<?xml version="1.0" encoding="utf-8"?>
<!-- Generator: Adobe Illustrator 20.1.0, SVG Export Plug-In . SVG Version: 6.00 Build 0)  -->
<svg version="1.1" id="Layer_1" xmlns="http://www.w3.org/2000/svg" xmlns:xlink="http://www.w3.org/1999/xlink" x="0px" y="0px"
	 viewBox="0 0 13.4 23.1" style="enable-background:new 0 0 13.4 23.1;" xml:space="preserve">
<style type="text/css">
	.st0{fill:none;stroke:#000000;stroke-width:0.25;stroke-miterlimit:10;}
	.st1{fill:none;stroke:#000000;stroke-linecap:round;stroke-linejoin:round;stroke-miterlimit:10;}
	.st2{fill:none;stroke:#000000;stroke-width:0.75;stroke-linecap:round;stroke-linejoin:round;stroke-miterlimit:10;}
	.st3{fill:none;}
	.st4{clip-path:url(#SVGID_2_);}
	.st5{clip-path:url(#SVGID_4_);}
	.st6{clip-path:url(#SVGID_6_);}
	.st7{fill:#010002;stroke:#000000;stroke-width:0.7;stroke-miterlimit:10;}
	.st8{stroke:#231F20;stroke-width:0.1;stroke-miterlimit:10;}
	.st9{stroke:#231F20;stroke-width:0.25;stroke-miterlimit:10;}
	.st10{stroke:#000000;stroke-width:0.25;stroke-miterlimit:10;}
	.st11{fill:none;stroke:#000000;stroke-width:0.75;stroke-miterlimit:10;}
	.st12{clip-path:url(#SVGID_8_);}
	.st13{fill:none;stroke:#000000;stroke-width:0.5;stroke-miterlimit:10;}
</style>
<g>
	<path d="M4.8,23.1c-0.1,0-0.2,0-0.4,0c-0.3,0-0.4,0-0.4,0l-0.4,0c-2.3-0.1-2.8-0.4-3-0.5c-0.2-0.1-0.5-0.4-0.6-1.3
		c0-1.1-0.1-4.7,0.7-6.9c-0.1-0.3-0.2-0.8,0.1-1.3c-0.2-0.4-0.1-0.7,0.1-1.1c-0.2-0.3-0.2-0.7,0-1c-0.3-0.4-0.2-0.9-0.1-1.2
		C0.6,9.4,0.3,8.3,0.5,6.3c0,0,0.1-1.3,1.5-2.9l0-0.2C1.8,3.2,1.5,3.1,1.5,2.8c0-0.2,0.1-0.4,0.2-0.5c0-0.2-0.1-0.4-0.1-0.6V0.9
		c0-0.1,0-0.3,0.2-0.5C2.1,0.1,2.5,0,3,0c0.6,0,1,0,1.4,0c0.3,0,0.8,0,1.4,0c0.5,0,0.9,0.1,1.2,0.4c0.2,0.2,0.2,0.4,0.2,0.5l0,0.8
		c0,0.2,0,0.4-0.1,0.6c0.1,0.1,0.2,0.2,0.2,0.5c0,0.3-0.3,0.4-0.5,0.4v0.2c0.5,0.7,1,1.4,1.2,2c0.1,0.2,0,0.4-0.2,0.5
		C7.7,6,7.4,5.9,7.4,5.7C7.1,5.1,6.8,4.5,6.3,3.9C6.2,3.8,6.1,3.6,6.1,3.4V3c0-0.1,0.1-0.3,0.2-0.4l0-0.1c0-0.1,0-0.2,0.1-0.3
		c0-0.2,0.1-0.3,0.1-0.5V0.9c0,0-0.1-0.2-0.6-0.2c-0.6,0-1,0-1.4,0c-0.3,0-0.8,0-1.4,0c-0.5,0-0.6,0.1-0.6,0.2l0,0.8
		c0,0.2,0,0.3,0.1,0.5c0,0.1,0,0.2,0.1,0.3l0,0.1C2.6,2.7,2.7,2.8,2.7,3v0.4c0,0.2-0.1,0.4-0.2,0.5C1.4,5.3,1.2,6.4,1.2,6.4
		C1,8.3,1.4,9.3,1.5,9.6c0.1,0.2,0.1,0.4,0,0.6c-0.1,0.2-0.1,0.3,0,0.4c0.2,0.2,0.2,0.5,0,0.7c-0.1,0.1-0.1,0.2,0,0.3
		c0.2,0.2,0.1,0.5,0,0.7c-0.1,0.1-0.1,0.2,0,0.4c0.1,0.2,0.1,0.5-0.1,0.7c-0.2,0.3-0.1,0.5,0,0.7c0.1,0.2,0.1,0.3,0,0.5
		c-0.8,2.1-0.7,5.6-0.7,6.7c0,0.4,0.1,0.6,0.1,0.6l0,0L1,21.9c0.2,0.1,1.1,0.3,3,0.4l0.4,0c0,0,0,0,0.1,0c0.1,0,0.2,0,0.2,0l0.2,0
		c1.9-0.1,2.8-0.2,3-0.4l0.1-0.1c0-0.1,0.1-0.2,0.1-0.6c0-0.4,0-1.2,0-2c0-0.2,0.2-0.4,0.4-0.4c0.2,0,0.4,0.2,0.4,0.4
		c0,0.8,0,1.6,0,2c0,0.9-0.4,1.2-0.6,1.3c-0.2,0.1-0.7,0.4-3,0.5v0L4.8,23.1C4.8,23.1,4.8,23.1,4.8,23.1z M0.9,13.2
		C0.9,13.2,0.9,13.2,0.9,13.2C0.9,13.2,0.9,13.2,0.9,13.2z M1,12.1C1,12.1,1,12.1,1,12.1C1,12.1,1,12.1,1,12.1z M1,10.9
		C1,10.9,1,10.9,1,10.9C1,10.9,1,10.9,1,10.9z M0.9,9.8C0.9,9.8,0.9,9.8,0.9,9.8C0.9,9.8,0.9,9.8,0.9,9.8z M2.2,3.3
		C2.2,3.3,2.2,3.3,2.2,3.3C2.2,3.3,2.2,3.3,2.2,3.3z M6.6,3.3C6.6,3.3,6.6,3.3,6.6,3.3C6.6,3.3,6.6,3.3,6.6,3.3z"/>
	<path d="M6.4,19.5c-0.1,0-0.2,0-0.3,0c-0.2,0-1-0.2-1.5-1.1c-0.7-1.1-3-5-2-8.2c0,0,0.2-1,1.1-1.7C4.2,8,4.9,7.8,5.7,7.8
		C5.4,7.3,5.1,6.5,5.3,5.5L5.4,5l0.4,0.2c0.7,0.3,1.1,0.5,2,1.5c0.2-0.5,0.7-1,1.4-1.4L9.6,5l0.2,0.5C9.8,5.7,10,6.2,10,6.8
		c0.5-0.3,1.1-0.5,2.1-0.3l0.3,0.1l0,0.3c-0.1,1.1-0.4,1.8-1,2.2c1,0.7,2.5,2.2,1.7,4.8c0,0.3-0.3,1.3-2.5,2.9
		c-0.4,0.3-0.7,0.5-1,0.7C8.1,18.8,7.2,19.5,6.4,19.5z M5.7,8.5c-2,0-2.3,1.6-2.4,1.7c-0.9,3,1.3,6.6,1.9,7.7c0.5,0.7,1,0.8,1,0.8
		l0.1,0C6.8,18.8,7.8,18,9.2,17c0.3-0.2,0.6-0.5,1-0.8c2-1.5,2.2-2.4,2.2-2.4l0-0.1c1-3.1-1.9-4.3-2-4.3L9.2,8.9l1.3-0.2
		c0.5-0.1,1-0.3,1.2-1.5c-0.8-0.1-1.1,0.1-1.7,0.6L8.3,9l0.9-1.5c0.1-0.2,0.1-0.8,0-1.3C8.7,6.5,8.3,7,8.3,7.5l0,1.1L7.6,7.7
		C6.8,6.7,6.4,6.3,6,6.1c0,1.2,0.7,1.8,0.7,1.8l1,0.9L6.4,8.6C6.1,8.6,5.9,8.5,5.7,8.5z"/>
</g>
</svg>
