<?xml version="1.0" encoding="utf-8"?>
<!-- Generator: Adobe Illustrator 20.1.0, SVG Export Plug-In . SVG Version: 6.00 Build 0)  -->
<svg version="1.1" id="Layer_1" xmlns="http://www.w3.org/2000/svg" xmlns:xlink="http://www.w3.org/1999/xlink" x="0px" y="0px"
	 viewBox="0 0 13.1 24" style="enable-background:new 0 0 13.1 24;" xml:space="preserve">
<style type="text/css">
	.st0{fill:none;stroke:#000000;stroke-width:0.25;stroke-miterlimit:10;}
	.st1{fill:none;stroke:#000000;stroke-linecap:round;stroke-linejoin:round;stroke-miterlimit:10;}
	.st2{fill:none;stroke:#000000;stroke-width:0.75;stroke-linecap:round;stroke-linejoin:round;stroke-miterlimit:10;}
	.st3{fill:none;}
	.st4{clip-path:url(#SVGID_2_);}
	.st5{clip-path:url(#SVGID_4_);}
	.st6{clip-path:url(#SVGID_6_);}
	.st7{fill:#010002;stroke:#000000;stroke-width:0.7;stroke-miterlimit:10;}
	.st8{stroke:#231F20;stroke-width:0.1;stroke-miterlimit:10;}
	.st9{stroke:#231F20;stroke-width:0.25;stroke-miterlimit:10;}
	.st10{stroke:#000000;stroke-width:0.25;stroke-miterlimit:10;}
	.st11{fill:none;stroke:#000000;stroke-width:0.75;stroke-miterlimit:10;}
	.st12{clip-path:url(#SVGID_8_);}
	.st13{fill:none;stroke:#000000;stroke-width:0.5;stroke-miterlimit:10;}
</style>
<path d="M1.8,24c-1,0-1.8-0.8-1.8-1.8c0-1.6,0.3-2.8,1-3.9c0.3-0.4,0.5-1,0.7-1.6c0.3-0.9,0.4-2,0.4-3.2c0-1.3-0.2-2.7-0.6-3.7
	C1.3,9.5,1.2,9.1,1,8.8C0.3,7.8,0,6.5,0,5V4.7C0,3.8,0.8,3,1.8,3h0.4V0.8H1.9c-0.2,0-0.4-0.2-0.4-0.4S1.7,0,1.9,0h4.6
	c0.1,0,0.2,0,0.2,0.1L10.9,3l0.4,0c1,0,1.8,0.8,1.8,1.8v0.5c0,1.5-0.3,2.7-0.9,3.6c-0.2,0.3-0.3,0.6-0.5,1c-0.4,1-0.6,2.3-0.6,3.7
	c0,1.1,0.1,2.2,0.4,3.2c0.2,0.6,0.4,1.2,0.7,1.6c0.6,1,0.9,2.1,0.9,3.6v0.3c0,1-0.8,1.8-1.8,1.8H1.8z M2.3,17.3
	c-0.2,0.6-0.4,1-0.6,1.5c-0.6,0.9-0.9,2-0.9,3.4c0,0.7,0.5,1.1,1,1.1h9.5c0.6,0,1-0.5,1-1v-0.3c0-1.4-0.2-2.4-0.8-3.2
	c-0.2-0.4-0.5-0.9-0.6-1.4l0-0.1L2.3,17.3L2.3,17.3z M2.4,10.3c0.3,1,0.4,2.1,0.4,3.3c0,0.9-0.1,1.9-0.3,2.8l0,0.1h8.2l0-0.1
	c-0.2-0.8-0.3-1.8-0.3-2.8c0-1.2,0.1-2.3,0.4-3.3l0-0.1H2.3L2.4,10.3z M1.8,3.7c-0.6,0-1,0.5-1,1V5c0,1.4,0.3,2.5,0.9,3.4
	C1.8,8.7,1.9,9,2.1,9.3l0,0.1h9l0-0.1c0.1-0.3,0.3-0.6,0.4-0.9c0.5-0.8,0.8-1.9,0.8-3.2V4.7c0-0.6-0.5-1-1-1H1.8z M6.1,3h3.4
	L6.4,0.8l-0.2,0H6.1V3z M3,3h2.4V2.4H3V3z M3,1.6h2.4V0.8H3V1.6z"/>
</svg>
