<?xml version="1.0" encoding="utf-8"?>
<!-- Generator: Adobe Illustrator 20.1.0, SVG Export Plug-In . SVG Version: 6.00 Build 0)  -->
<svg version="1.1" id="Layer_1" xmlns="http://www.w3.org/2000/svg" xmlns:xlink="http://www.w3.org/1999/xlink" x="0px" y="0px"
	 viewBox="0 0 9.4 28.6" style="enable-background:new 0 0 9.4 28.6;" xml:space="preserve">
<style type="text/css">
	.st0{fill:none;stroke:#000000;stroke-width:0.25;stroke-miterlimit:10;}
	.st1{fill:none;stroke:#000000;stroke-linecap:round;stroke-linejoin:round;stroke-miterlimit:10;}
	.st2{fill:none;stroke:#000000;stroke-width:0.75;stroke-linecap:round;stroke-linejoin:round;stroke-miterlimit:10;}
	.st3{fill:none;}
	.st4{clip-path:url(#SVGID_2_);}
	.st5{clip-path:url(#SVGID_4_);}
	.st6{clip-path:url(#SVGID_6_);}
	.st7{fill:#010002;stroke:#000000;stroke-width:0.7;stroke-miterlimit:10;}
	.st8{stroke:#231F20;stroke-width:0.1;stroke-miterlimit:10;}
	.st9{stroke:#231F20;stroke-width:0.25;stroke-miterlimit:10;}
	.st10{stroke:#000000;stroke-width:0.25;stroke-miterlimit:10;}
	.st11{fill:none;stroke:#000000;stroke-width:0.75;stroke-miterlimit:10;}
	.st12{clip-path:url(#SVGID_8_);}
	.st13{fill:none;stroke:#000000;stroke-width:0.5;stroke-miterlimit:10;}
</style>
<path d="M9.4,14.7l0-1.1c0-0.4,0-0.8-0.1-1.3c-0.4-2-1.5-3.6-2.1-4.5L7.1,7.7C7,7.6,7,7.4,7,7.2l0-4.3l0,0C7,2.8,7.1,2.7,7.2,2.6
	c0.1-0.1,0.1-0.3,0.1-0.5l0-1.1c0-0.3-0.1-0.5-0.3-0.7C6.8,0.1,6.5,0,6.2,0l-3,0c0,0,0,0,0,0C2.8,0,2.4,0.2,2.3,0.6
	C2.2,0.7,2.1,0.9,2.1,1.1l0,1.1c0,0.3,0.1,0.5,0.3,0.7l0,0l0,4.3c0,0.1,0,0.3-0.1,0.4c0,0,0,0.1-0.1,0.1C2,8.2,1.5,8.9,1,9.8
	c-0.4,0.9-0.7,1.7-0.9,2.5C0.1,12.8,0,13.2,0,13.6l0,1.1c0,2.2,0,3.9,0.1,4.6c0.3,1.3,0.3,4.5,0.1,5.8l-0.2,1.3
	c-0.1,0.5,0,1.1,0.4,1.5c0.4,0.4,0.9,0.7,1.4,0.7l5.5,0h0c0.6,0,1.1-0.2,1.4-0.7c0.1-0.1,0.2-0.2,0.2-0.4c0.2-0.4,0.2-0.8,0.2-1.2
	l-0.2-1.3c-0.2-1.3-0.2-4.5,0.1-5.8C9.4,18.6,9.4,16.8,9.4,14.7z M6.3,2.2L6.3,2.2c0,0.1-0.1,0.1-0.1,0.1l-3,0
	c-0.1,0-0.1-0.1-0.1-0.1l0-1.1l0,0c0,0,0.1-0.1,0.1-0.1c0,0,0,0,0,0l3,0c0,0,0.1,0,0.1,0c0,0,0,0.1,0,0.1L6.3,2.2z M3,8.3
	C3.1,8.2,3.1,8.1,3.2,8c0.1-0.3,0.2-0.5,0.2-0.8l0-4l2.6,0l0,4c0,0.4,0.1,0.7,0.3,1l0.1,0.1c0.5,0.7,1.4,2,1.8,3.6l0,0l-7,0l0,0
	c0.2-0.5,0.4-1.1,0.7-1.7C2.3,9.4,2.7,8.7,3,8.3L3,8.3z M3.7,12.9l4.7,0l0,0c0,0.2,0,0.5,0,0.7l0,1.1c0,0.9,0,2,0,2.9l0,0L3.7,12.9z
	 M1,26.2l0.6,0c0.2,0,0.3-0.1,0.4-0.3c0-0.1,0-0.1,0-0.2c0-0.3-0.2-0.5-0.5-0.5l-0.4,0l0,0c0.2-1.4,0.2-4.8-0.1-6.2
	c0-0.1,0-0.3-0.1-0.5l0,0l7.4,0l0,0.1c0,0.2,0,0.4-0.1,0.5C8,20.4,8,23.8,8.2,25.2l0,0.1l-0.1,0l-3.5,0c-0.2,0-0.3,0.1-0.4,0.3
	c0,0.1,0,0.1,0,0.2c0,0.3,0.2,0.5,0.5,0.5l3.6,0l0,0.2c0,0.2,0,0.4-0.1,0.6c0,0.1-0.1,0.1-0.1,0.2c-0.2,0.2-0.4,0.3-0.7,0.3h0
	l-5.5,0c-0.3,0-0.5-0.1-0.7-0.3C1,27.1,0.9,26.8,1,26.5L1,26.2z M5.6,17.6L1,12.9l0,0l1.4,0l4.7,4.7L5.6,17.6z M4.3,17.6l-3.3,0l0,0
	c0-0.9,0-2,0-2.8l0-0.6L4.3,17.6z"/>
</svg>
