<?xml version="1.0" encoding="utf-8"?>
<!-- Generator: Adobe Illustrator 20.1.0, SVG Export Plug-In . SVG Version: 6.00 Build 0)  -->
<svg version="1.1" id="Layer_1" xmlns="http://www.w3.org/2000/svg" xmlns:xlink="http://www.w3.org/1999/xlink" x="0px" y="0px"
	 viewBox="0 0 18.6 25.7" style="enable-background:new 0 0 18.6 25.7;" xml:space="preserve">
<style type="text/css">
	.st0{fill:none;stroke:#000000;stroke-width:0.25;stroke-miterlimit:10;}
	.st1{fill:none;stroke:#000000;stroke-linecap:round;stroke-linejoin:round;stroke-miterlimit:10;}
	.st2{fill:none;stroke:#000000;stroke-width:0.75;stroke-linecap:round;stroke-linejoin:round;stroke-miterlimit:10;}
	.st3{fill:none;}
	.st4{clip-path:url(#SVGID_2_);}
	.st5{clip-path:url(#SVGID_4_);}
	.st6{clip-path:url(#SVGID_6_);}
	.st7{fill:#010002;stroke:#000000;stroke-width:0.7;stroke-miterlimit:10;}
	.st8{stroke:#231F20;stroke-width:0.1;stroke-miterlimit:10;}
	.st9{stroke:#231F20;stroke-width:0.25;stroke-miterlimit:10;}
	.st10{stroke:#000000;stroke-width:0.25;stroke-miterlimit:10;}
	.st11{fill:none;stroke:#000000;stroke-width:0.75;stroke-miterlimit:10;}
	.st12{clip-path:url(#SVGID_8_);}
	.st13{fill:none;stroke:#000000;stroke-width:0.5;stroke-miterlimit:10;}
</style>
<g>
	<path d="M17.4,0H1.2C0.5,0,0,0.5,0,1.2v23.3c0,0.7,0.5,1.2,1.2,1.2h16.2c0.7,0,1.2-0.5,1.2-1.2V1.2C18.6,0.5,18.1,0,17.4,0
		 M11.2,18.7H9.3V16c0,0,0-0.1,0.1-0.1h1.8c0,0,0.1,0,0.1,0.1V18.7z M11.1,15.3H9.4c-0.4,0-0.7,0.3-0.7,0.7v2.7H8.2V16
		c0-0.4-0.3-0.7-0.7-0.7H5.7C5.3,15.3,5,15.6,5,16v2.7H4.7V16c0-0.4-0.3-0.7-0.7-0.7H2.2c-0.4,0-0.7,0.3-0.7,0.7v2.7H0.7v-4h11.9v4
		h-0.7V16C11.9,15.6,11.5,15.3,11.1,15.3 M7.6,18.7H5.6V16c0,0,0-0.1,0.1-0.1h1.8c0,0,0.1,0,0.1,0.1V18.7z M4.1,18.7H2.2V16
		c0,0,0-0.1,0.1-0.1H4c0,0,0.1,0,0.1,0.1V18.7z M12.6,5.4v4.2h-1.1V7c0-0.2-0.1-0.3-0.3-0.3c-0.2,0-0.3,0.1-0.3,0.3v2.6H9.6V7
		c0-0.2-0.1-0.3-0.3-0.3C9.1,6.7,9,6.8,9,7v2.6H7.8V7c0-0.2-0.1-0.3-0.3-0.3C7.3,6.7,7.2,6.8,7.2,7v2.6H6V7c0-0.2-0.1-0.3-0.3-0.3
		C5.5,6.7,5.4,6.8,5.4,7v2.6H4.2V7c0-0.2-0.1-0.3-0.3-0.3C3.7,6.7,3.6,6.8,3.6,7v2.6H2.4V7c0-0.2-0.1-0.3-0.3-0.3S1.8,6.8,1.8,7v2.6
		H0.7V5.4H12.6z M12.6,10.2v3.8h-0.7v-2.7c0-0.4-0.3-0.7-0.7-0.7H9.4c-0.4,0-0.7,0.3-0.7,0.7v2.7H8.2v-2.7c0-0.4-0.3-0.7-0.7-0.7
		H5.7C5.3,10.7,5,11,5,11.4v2.7H4.7v-2.7c0-0.4-0.3-0.7-0.7-0.7H2.2c-0.4,0-0.7,0.3-0.7,0.7v2.7H0.7v-3.8H12.6z M11.2,14.1H9.3v-2.7
		c0,0,0-0.1,0.1-0.1h1.8c0,0,0.1,0,0.1,0.1V14.1z M7.6,14.1H5.6v-2.7c0,0,0-0.1,0.1-0.1h1.8c0,0,0.1,0,0.1,0.1V14.1z M4.1,14.1H2.2
		v-2.7c0,0,0-0.1,0.1-0.1H4c0,0,0.1,0,0.1,0.1V14.1z M1.2,0.7h11.4v4.1h-1.1V2.2c0-0.2-0.1-0.3-0.3-0.3c-0.2,0-0.3,0.1-0.3,0.3v2.6
		H9.6V2.2c0-0.2-0.1-0.3-0.3-0.3C9.1,1.9,9,2,9,2.2v2.6H7.8V2.2c0-0.2-0.1-0.3-0.3-0.3C7.3,1.9,7.2,2,7.2,2.2v2.6H6V2.2
		C6,2,5.9,1.9,5.7,1.9C5.5,1.9,5.4,2,5.4,2.2v2.6H4.2V2.2c0-0.2-0.1-0.3-0.3-0.3C3.7,1.9,3.6,2,3.6,2.2v2.6H2.4V2.2
		c0-0.2-0.1-0.3-0.3-0.3S1.8,2,1.8,2.2v2.6H0.7V1.2C0.7,0.9,0.9,0.7,1.2,0.7 M0.7,24.5v-5.1h11.9V25H1.2C0.9,25,0.7,24.8,0.7,24.5
		 M18,24.5c0,0.3-0.2,0.5-0.5,0.5h-4.2V0.7h4.2c0.3,0,0.5,0.2,0.5,0.5V24.5z"/>
	<path d="M10.3,19.9H3c-0.4,0-0.7,0.3-0.7,0.7v2c0,0.9,0.8,1.7,1.7,1.7h5.4c0.9,0,1.7-0.8,1.7-1.7v-2C11,20.2,10.7,19.9,10.3,19.9
		 M10.3,22.6c0,0.6-0.5,1-1,1H3.9c-0.6,0-1-0.5-1-1v-2c0,0,0,0,0.1,0h7.3c0,0,0.1,0,0.1,0V22.6z"/>
	<path d="M14.8,7.4h1.5c0.3,0,0.6-0.3,0.6-0.6V5.2c0-0.3-0.3-0.6-0.6-0.6h-1.5c-0.3,0-0.6,0.3-0.6,0.6v1.6
		C14.3,7.2,14.5,7.4,14.8,7.4 M14.9,5.3h1.4v1.5h-1.4V5.3z"/>
	<path d="M14.7,8.3c-0.2,0-0.4,0.2-0.4,0.4c0,0.2,0.2,0.4,0.4,0.4c0.2,0,0.4-0.2,0.4-0.4C15.1,8.5,15,8.3,14.7,8.3"/>
	<path d="M16.5,8.3c-0.2,0-0.4,0.2-0.4,0.4c0,0.2,0.2,0.4,0.4,0.4c0.2,0,0.4-0.2,0.4-0.4C16.9,8.5,16.8,8.3,16.5,8.3"/>
	<path d="M14.7,10.1c-0.2,0-0.4,0.2-0.4,0.4c0,0.2,0.2,0.4,0.4,0.4c0.2,0,0.4-0.2,0.4-0.4C15.1,10.3,15,10.1,14.7,10.1"/>
	<path d="M16.5,10.1c-0.2,0-0.4,0.2-0.4,0.4c0,0.2,0.2,0.4,0.4,0.4c0.2,0,0.4-0.2,0.4-0.4C16.9,10.3,16.8,10.1,16.5,10.1"/>
	<path d="M14.7,12c-0.2,0-0.4,0.2-0.4,0.4c0,0.2,0.2,0.4,0.4,0.4c0.2,0,0.4-0.2,0.4-0.4C15.1,12.2,15,12,14.7,12"/>
	<path d="M16.5,12c-0.2,0-0.4,0.2-0.4,0.4c0,0.2,0.2,0.4,0.4,0.4c0.2,0,0.4-0.2,0.4-0.4C16.9,12.2,16.8,12,16.5,12"/>
	<path d="M16.8,13.8h-2.4c-0.2,0-0.3,0.1-0.3,0.3c0,0.2,0.1,0.3,0.3,0.3h2.4c0.2,0,0.3-0.1,0.3-0.3C17.1,14,17,13.8,16.8,13.8"/>
</g>
</svg>
