<?xml version="1.0" encoding="utf-8"?>
<!-- Generator: Adobe Illustrator 20.1.0, SVG Export Plug-In . SVG Version: 6.00 Build 0)  -->
<svg version="1.1" id="Layer_1" xmlns="http://www.w3.org/2000/svg" xmlns:xlink="http://www.w3.org/1999/xlink" x="0px" y="0px"
	 viewBox="0 0 11.8 26" style="enable-background:new 0 0 11.8 26;" xml:space="preserve">
<style type="text/css">
	.st0{fill:none;stroke:#000000;stroke-width:0.25;stroke-miterlimit:10;}
	.st1{fill:none;stroke:#000000;stroke-linecap:round;stroke-linejoin:round;stroke-miterlimit:10;}
	.st2{fill:none;stroke:#000000;stroke-width:0.75;stroke-linecap:round;stroke-linejoin:round;stroke-miterlimit:10;}
	.st3{fill:none;}
	.st4{clip-path:url(#SVGID_2_);}
	.st5{clip-path:url(#SVGID_4_);}
	.st6{clip-path:url(#SVGID_6_);}
	.st7{fill:#010002;stroke:#000000;stroke-width:0.7;stroke-miterlimit:10;}
	.st8{stroke:#231F20;stroke-width:0.1;stroke-miterlimit:10;}
	.st9{stroke:#231F20;stroke-width:0.25;stroke-miterlimit:10;}
	.st10{stroke:#000000;stroke-width:0.25;stroke-miterlimit:10;}
	.st11{fill:none;stroke:#000000;stroke-width:0.75;stroke-miterlimit:10;}
	.st12{clip-path:url(#SVGID_8_);}
	.st13{fill:none;stroke:#000000;stroke-width:0.5;stroke-miterlimit:10;}
</style>
<g>
	<path d="M11.3,8.6l-2.5-5V2.5h0.1c0.2,0,0.4-0.2,0.4-0.4V0.4C9.3,0.2,9.1,0,8.9,0h-6C2.7,0,2.5,0.2,2.5,0.4v1.7
		c0,0.2,0.2,0.4,0.4,0.4H3l0,1.2L0.5,8.6C0.2,9.2,0,10.2,0,10.9v13.6C0,25.3,0.7,26,1.5,26h8.8c0.8,0,1.5-0.7,1.5-1.5V10.9
		C11.8,10.2,11.6,9.2,11.3,8.6z M8,3.9L9.5,7C9.2,7.1,9,7.3,8.9,7.4C8.6,7.6,8.4,7.7,8,7.7c-0.4,0-0.6-0.1-0.8-0.3
		C6.9,7.2,6.6,6.9,5.9,6.9c-0.7,0-1,0.3-1.3,0.5C4.3,7.6,4.2,7.7,3.8,7.7C3.4,7.7,3.2,7.6,3,7.4C2.8,7.3,2.6,7.1,2.3,7l1.6-3.1
		c0-0.1,0-0.1,0-0.2V2.5h4v1.2C7.9,3.8,7.9,3.9,8,3.9z M1.9,7.8c0.2,0,0.4,0.2,0.6,0.3c0.3,0.2,0.6,0.5,1.3,0.5c0.7,0,1-0.3,1.3-0.5
		c0.2-0.2,0.4-0.3,0.8-0.3s0.6,0.1,0.8,0.3C7,8.3,7.4,8.6,8,8.6c0.7,0,1-0.3,1.3-0.5C9.6,8,9.7,7.9,9.9,7.8L10.5,9
		c0.2,0.5,0.5,1.4,0.5,1.9v13.6c0,0.4-0.3,0.7-0.7,0.7H1.5c-0.4,0-0.7-0.3-0.7-0.7V10.9c0-0.5,0.2-1.4,0.5-1.9L1.9,7.8z M3.3,1.7
		V0.8h5.1v0.8H3.3z"/>
	<path d="M2.1,24.3c0.2,0,0.4-0.2,0.4-0.4v-1.7c0-0.2-0.2-0.4-0.4-0.4S1.7,22,1.7,22.2v1.7C1.7,24.1,1.8,24.3,2.1,24.3z"/>
	<path d="M2.1,21c0.2,0,0.4-0.2,0.4-0.4v-9.7c0-0.3,0.1-0.9,0.3-1.2c0.1-0.2,0-0.5-0.2-0.6C2.4,9.1,2.1,9.1,2,9.3
		c-0.2,0.4-0.4,1.1-0.4,1.5v9.7C1.7,20.8,1.8,21,2.1,21z"/>
	<path d="M6.7,3.3H5.1c-0.2,0-0.4,0.2-0.4,0.4s0.2,0.4,0.4,0.4h1.6c0.2,0,0.4-0.2,0.4-0.4S6.9,3.3,6.7,3.3z"/>
	<path d="M3.1,16.9c0.5,0.1,0.9,0.5,1.2,0.8c0.4,0.4,0.8,0.8,1.3,0.8c0.2,0,0.4-0.1,0.5-0.2c0.1,0.2,0.2,0.5,0.2,0.7l0,2.2h0.7
		l0-2.2c0-0.2,0.1-0.5,0.3-0.8c0.2,0.1,0.3,0.1,0.5,0.1c0.7,0,1.1-0.6,1.5-1.2c0.3-0.5,0.7-1.1,1.3-1.4l0.5-0.4l-0.5-0.2
		c-1.1-0.5-2.3-0.4-3.1,0.2c-0.4,0.3-0.7,0.8-0.9,1.2c0,0,0,0.1,0,0.1c-0.1-0.2-0.3-0.4-0.6-0.5c-0.8-0.5-1.9-0.5-2.9,0.2l-0.4,0.5
		L3.1,16.9z M5.4,16.8l-0.3-0.1l-0.3,0.5l0.3,0.2c0.2,0.1,0.3,0.2,0.5,0.4c0,0-0.1,0-0.1,0c-0.2,0-0.5-0.3-0.8-0.6
		c-0.3-0.2-0.5-0.5-0.9-0.7c0.2-0.1,0.5-0.1,0.7-0.1c0.6,0,1.1,0.4,1.3,0.7C5.7,17,5.5,16.9,5.4,16.8z M7.9,17.2
		c0.2-0.3,0.3-0.4,0.3-0.5l0-0.1l-0.5-0.4l-0.1,0.2c0,0-0.3,0.3-0.5,0.7c0-0.1,0-0.3,0-0.4c0.1-0.3,0.3-0.6,0.6-0.8
		C8,15.7,8.4,15.5,9,15.5c0.2,0,0.4,0,0.6,0c-0.4,0.3-0.7,0.8-0.9,1.2c-0.3,0.5-0.6,0.9-0.9,0.9c0,0-0.1,0-0.1,0
		C7.7,17.4,7.8,17.3,7.9,17.2z M6.6,17.7C6.6,17.7,6.6,17.7,6.6,17.7c0,0.1,0,0.2,0,0.2c0,0,0,0,0-0.1C6.6,17.8,6.6,17.8,6.6,17.7z"
		/>
</g>
</svg>
