<?xml version="1.0" encoding="utf-8"?>
<!-- Generator: Adobe Illustrator 20.1.0, SVG Export Plug-In . SVG Version: 6.00 Build 0)  -->
<svg version="1.1" id="Layer_1" xmlns="http://www.w3.org/2000/svg" xmlns:xlink="http://www.w3.org/1999/xlink" x="0px" y="0px"
	 viewBox="0 0 34 24" style="enable-background:new 0 0 34 24;" xml:space="preserve">
<style type="text/css">
	.st0{fill:none;stroke:#000000;stroke-width:0.25;stroke-miterlimit:10;}
	.st1{fill:none;stroke:#000000;stroke-linecap:round;stroke-linejoin:round;stroke-miterlimit:10;}
	.st2{fill:none;stroke:#000000;stroke-width:0.75;stroke-linecap:round;stroke-linejoin:round;stroke-miterlimit:10;}
	.st3{fill:none;}
	.st4{clip-path:url(#SVGID_2_);}
	.st5{clip-path:url(#SVGID_4_);}
	.st6{clip-path:url(#SVGID_6_);}
	.st7{fill:#010002;stroke:#000000;stroke-width:0.7;stroke-miterlimit:10;}
	.st8{stroke:#231F20;stroke-width:0.1;stroke-miterlimit:10;}
	.st9{stroke:#231F20;stroke-width:0.25;stroke-miterlimit:10;}
	.st10{stroke:#000000;stroke-width:0.25;stroke-miterlimit:10;}
	.st11{fill:none;stroke:#000000;stroke-width:0.75;stroke-miterlimit:10;}
	.st12{clip-path:url(#SVGID_8_);}
	.st13{fill:none;stroke:#000000;stroke-width:0.5;stroke-miterlimit:10;}
</style>
<g>
	<g>
		<path d="M29.5,4.4c0.1,0,0.1-0.1,0.1-0.1c0-0.1-0.1-0.1-0.1-0.1c-0.1,0-0.1,0.1-0.1,0.1C29.4,4.3,29.4,4.4,29.5,4.4"/>
		<path d="M28.8,5C28.9,5,29,4.9,29,4.9c0-0.1-0.1-0.1-0.1-0.1c-0.1,0-0.1,0.1-0.1,0.1C28.7,4.9,28.7,5,28.8,5"/>
		<path d="M30.2,6.7c-0.1,0-0.1,0.1-0.1,0.1c0,0.1,0.1,0.1,0.1,0.1c0.1,0,0.1-0.1,0.1-0.1C30.4,6.8,30.3,6.7,30.2,6.7"/>
		<path d="M29.2,7C29.2,7.1,29.2,7.1,29.2,7c0.1,0.1,0.2,0,0.2,0C29.3,7,29.3,7,29.2,7C29.2,7,29.2,7,29.2,7"/>
		<path d="M27.9,5.3c0.1,0,0.1-0.1,0.1-0.1C28,5.1,27.9,5,27.9,5c-0.1,0-0.1,0.1-0.1,0.1C27.7,5.2,27.8,5.3,27.9,5.3"/>
		<path d="M29.1,5.8c0.1,0,0.1-0.1,0.1-0.1c0-0.1-0.1-0.1-0.1-0.1c-0.1,0-0.1,0.1-0.1,0.1C28.9,5.7,29,5.8,29.1,5.8"/>
		<path d="M28.4,6.8c0.1,0,0.1-0.1,0.1-0.1c0-0.1-0.1-0.1-0.1-0.1c-0.1,0-0.1,0.1-0.1,0.1C28.2,6.7,28.3,6.8,28.4,6.8"/>
		<path d="M28.8,7.6c0.1,0,0.2-0.1,0.2-0.2c0-0.1-0.1-0.2-0.2-0.2c-0.1,0-0.2,0.1-0.2,0.2C28.6,7.5,28.7,7.6,28.8,7.6"/>
		<path d="M30.4,6.1c0.1-0.1,0.2-0.2,0.2-0.4c-0.1-0.1-0.2-0.2-0.4-0.2c-0.1,0.1-0.2,0.2-0.2,0.4C30.1,6.1,30.3,6.2,30.4,6.1"/>
	</g>
	<g>
		<path d="M21.2,4.4c0.1,0,0.1-0.1,0.1-0.1c0-0.1-0.1-0.1-0.1-0.1c-0.1,0-0.1,0.1-0.1,0.1C21.1,4.3,21.1,4.4,21.2,4.4"/>
		<path d="M20.5,5c0.1,0,0.1-0.1,0.1-0.1c0-0.1-0.1-0.1-0.1-0.1c-0.1,0-0.1,0.1-0.1,0.1C20.4,4.9,20.4,5,20.5,5"/>
		<path d="M21.9,6.7c-0.1,0-0.1,0.1-0.1,0.1c0,0.1,0.1,0.1,0.1,0.1c0.1,0,0.1-0.1,0.1-0.1C22.1,6.8,22,6.7,21.9,6.7"/>
		<path d="M20.8,7C20.8,7.1,20.9,7.1,20.8,7C21,7.1,21,7.1,21,7C21,7,21,7,20.8,7C20.9,7,20.8,7,20.8,7"/>
		<path d="M19.6,5.3c0.1,0,0.1-0.1,0.1-0.1c0-0.1-0.1-0.1-0.1-0.1c-0.1,0-0.1,0.1-0.1,0.1C19.4,5.2,19.5,5.3,19.6,5.3"/>
		<path d="M20.8,5.8c0.1,0,0.1-0.1,0.1-0.1c0-0.1-0.1-0.1-0.1-0.1c-0.1,0-0.1,0.1-0.1,0.1C20.6,5.7,20.7,5.8,20.8,5.8"/>
		<path d="M20,6.8c0.1,0,0.1-0.1,0.1-0.1c0-0.1-0.1-0.1-0.1-0.1c-0.1,0-0.1,0.1-0.1,0.1C19.9,6.7,20,6.8,20,6.8"/>
		<path d="M20.5,7.6c0.1,0,0.2-0.1,0.2-0.2c0-0.1-0.1-0.2-0.2-0.2c-0.1,0-0.2,0.1-0.2,0.2C20.3,7.5,20.4,7.6,20.5,7.6"/>
		<path d="M22.1,6.1c0.1-0.1,0.2-0.2,0.2-0.4c-0.1-0.1-0.2-0.2-0.4-0.2c-0.1,0.1-0.2,0.2-0.2,0.4C21.8,6.1,21.9,6.2,22.1,6.1"/>
	</g>
	<g>
		<path d="M13.4,4.4c0.1,0,0.1-0.1,0.1-0.1c0-0.1-0.1-0.1-0.1-0.1c-0.1,0-0.1,0.1-0.1,0.1C13.2,4.3,13.3,4.4,13.4,4.4"/>
		<path d="M12.6,5c0.1,0,0.1-0.1,0.1-0.1c0-0.1-0.1-0.1-0.1-0.1c-0.1,0-0.1,0.1-0.1,0.1C12.5,4.9,12.6,5,12.6,5"/>
		<path d="M14.1,6.7c-0.1,0-0.1,0.1-0.1,0.1C13.9,6.9,14,7,14.1,7c0.1,0,0.1-0.1,0.1-0.1C14.2,6.8,14.1,6.7,14.1,6.7"/>
		<path d="M13,7C13,7.1,13,7.1,13,7c0.1,0.1,0.2,0,0.2,0C13.2,7,13.1,7,13,7C13,7,13,7,13,7"/>
		<path d="M11.7,5.3c0.1,0,0.1-0.1,0.1-0.1c0-0.1-0.1-0.1-0.1-0.1c-0.1,0-0.1,0.1-0.1,0.1C11.6,5.2,11.6,5.3,11.7,5.3"/>
		<path d="M12.9,5.8C13,5.8,13,5.7,13,5.6c0-0.1-0.1-0.1-0.1-0.1c-0.1,0-0.1,0.1-0.1,0.1C12.8,5.7,12.8,5.8,12.9,5.8"/>
		<path d="M12.2,6.8c0.1,0,0.1-0.1,0.1-0.1c0-0.1-0.1-0.1-0.1-0.1c-0.1,0-0.1,0.1-0.1,0.1C12.1,6.7,12.1,6.8,12.2,6.8"/>
		<path d="M12.6,7.6c0.1,0,0.2-0.1,0.2-0.2c0-0.1-0.1-0.2-0.2-0.2c-0.1,0-0.2,0.1-0.2,0.2C12.5,7.5,12.5,7.6,12.6,7.6"/>
		<path d="M14.2,6.1c0.1-0.1,0.2-0.2,0.2-0.4c-0.1-0.1-0.2-0.2-0.4-0.2c-0.1,0.1-0.2,0.2-0.2,0.4C13.9,6.1,14.1,6.2,14.2,6.1"/>
	</g>
	<g>
		<path d="M5,4.4c0.1,0,0.1-0.1,0.1-0.1c0-0.1-0.1-0.1-0.1-0.1C5,4.1,4.9,4.2,4.9,4.3C4.9,4.3,5,4.4,5,4.4"/>
		<path d="M4.3,5c0.1,0,0.1-0.1,0.1-0.1c0-0.1-0.1-0.1-0.1-0.1c-0.1,0-0.1,0.1-0.1,0.1C4.2,4.9,4.3,5,4.3,5"/>
		<path d="M5.7,6.7c-0.1,0-0.1,0.1-0.1,0.1C5.6,6.9,5.7,7,5.7,7c0.1,0,0.1-0.1,0.1-0.1C5.9,6.8,5.8,6.7,5.7,6.7"/>
		<path d="M4.7,7C4.7,7.1,4.7,7.1,4.7,7c0.1,0.1,0.2,0,0.2,0C4.9,7,4.8,7,4.7,7C4.7,7,4.7,7,4.7,7"/>
		<path d="M3.4,5.3c0.1,0,0.1-0.1,0.1-0.1C3.5,5.1,3.5,5,3.4,5C3.3,5,3.3,5.1,3.3,5.1C3.3,5.2,3.3,5.3,3.4,5.3"/>
		<path d="M4.6,5.8c0.1,0,0.1-0.1,0.1-0.1c0-0.1-0.1-0.1-0.1-0.1c-0.1,0-0.1,0.1-0.1,0.1C4.5,5.7,4.5,5.8,4.6,5.8"/>
		<path d="M3.9,6.8C4,6.8,4,6.7,4,6.7C4,6.6,4,6.5,3.9,6.5c-0.1,0-0.1,0.1-0.1,0.1C3.7,6.7,3.8,6.8,3.9,6.8"/>
		<path d="M4.3,7.6c0.1,0,0.2-0.1,0.2-0.2c0-0.1-0.1-0.2-0.2-0.2c-0.1,0-0.2,0.1-0.2,0.2C4.1,7.5,4.2,7.6,4.3,7.6"/>
		<path d="M5.9,6.1C6.1,6,6.1,5.9,6.1,5.7C6,5.6,5.9,5.5,5.7,5.6C5.6,5.6,5.5,5.8,5.6,5.9C5.6,6.1,5.8,6.2,5.9,6.1"/>
	</g>
	<path d="M34,20.1c0-0.1,0-8.8-0.1-11.5c0-0.5-0.1-0.9-0.3-1.4l0,0l-0.1-0.4c0,0,0,0,0,0l-0.1-0.3l0,0c-0.6-1.4-1.6-2.3-2-2.7V3.6
		c0.1,0,0.1,0,0.2-0.1c0.2-0.1,0.3-0.4,0.2-0.6c0-0.1-0.1-0.2-0.2-0.3V0.8c0-0.4-0.3-0.7-0.7-0.7h-3.4c-0.4,0-0.7,0.3-0.7,0.7v1.8
		c-0.1,0.1-0.2,0.2-0.2,0.4c0,0.1,0,0.3,0.1,0.4c0.1,0.1,0.2,0.2,0.3,0.2v0.3c-0.4,0.3-1.4,1.2-2,2.6c-0.6-1.4-1.6-2.3-2-2.6V3.6
		c0.1,0,0.1,0,0.2-0.1c0.2-0.1,0.3-0.4,0.2-0.6c0-0.1-0.1-0.2-0.2-0.3V0.8c0-0.4-0.3-0.7-0.7-0.7h-3.4c-0.4,0-0.7,0.3-0.7,0.7v1.8
		c-0.1,0.1-0.2,0.2-0.2,0.4c0,0.1,0,0.3,0.1,0.4c0.1,0.1,0.2,0.2,0.3,0.2v0.3c-0.4,0.3-1.3,1.2-2,2.5c-0.6-1.4-1.6-2.3-2-2.6V3.5
		c0.1,0,0.1,0,0.2-0.1c0.2-0.1,0.3-0.4,0.2-0.6c0-0.1-0.1-0.2-0.2-0.3V0.7C15.3,0.3,15,0,14.6,0h-3.4c-0.4,0-0.7,0.3-0.7,0.7v1.8
		c-0.1,0.1-0.2,0.2-0.2,0.4c0,0.1,0,0.3,0.1,0.4c0.1,0.1,0.2,0.2,0.3,0.2v0.3c-0.4,0.3-1.4,1.4-2,2.9C8.1,5.3,7.2,4.4,6.9,4.1V3.8
		c0.1,0,0.1,0,0.2-0.1c0.2-0.1,0.3-0.4,0.2-0.6c0-0.1-0.1-0.2-0.2-0.3V1c0-0.4-0.3-0.7-0.7-0.7H3.1C2.7,0.3,2.4,0.6,2.4,1v1.8
		C2.2,2.9,2.2,3,2.2,3.2c0,0.1,0,0.3,0.1,0.4c0.1,0.1,0.2,0.2,0.3,0.2V4c-0.3,0.3-1.1,1-1.8,2.2l0,0L0.7,6.5l0,0L0.5,6.8l0,0
		C0.3,7.5,0.2,8.1,0.1,8.7C0,11.5,0,20.2,0,20.3c0,0,0.1,0.6,0.2,1.3l0,0l0.1,0.3l0.1,0.4l0,0c0.1,0.4,0.3,0.6,0.5,0.8
		c0.1,0.3,0.3,0.5,0.6,0.6c0.5,0.2,1.1,0.2,1.8-0.1c0.5,0.4,1,0.5,1.5,0.5c0.1,0,0.1,0,0.2,0c0.4,0,0.9-0.2,1.3-0.5
		c0.7,0.3,1.3,0.3,1.8,0.1c0.3-0.1,0.5-0.3,0.6-0.6c0.1-0.1,0.2-0.2,0.3-0.4c0,0,0.1,0.1,0.1,0.1c0.1,0.3,0.3,0.5,0.6,0.6
		c0.5,0.2,1.1,0.2,1.8-0.1c0.5,0.4,1,0.5,1.5,0.5c0.5,0,1-0.1,1.5-0.5c0.7,0.3,1.3,0.3,1.8,0.1c0.3-0.1,0.5-0.3,0.6-0.6
		c0.1,0,0.1-0.1,0.2-0.2c0.1,0.1,0.2,0.2,0.3,0.3c0.1,0.3,0.3,0.5,0.6,0.6c0.5,0.2,1.1,0.2,1.8-0.1c0.5,0.4,1,0.5,1.5,0.5
		c0.5,0,1-0.1,1.5-0.5c0.7,0.3,1.3,0.3,1.8,0.1c0.3-0.1,0.5-0.3,0.6-0.6c0.1-0.1,0.1-0.1,0.2-0.2c0.1,0.1,0.1,0.2,0.2,0.2
		c0.1,0.3,0.3,0.5,0.6,0.6c0.5,0.2,1.1,0.2,1.8-0.1c0.5,0.4,1,0.5,1.5,0.5c0.5,0,1-0.1,1.5-0.5c0.7,0.3,1.3,0.3,1.8,0.1
		c0.3-0.1,0.5-0.3,0.6-0.6c0.2-0.1,0.4-0.4,0.5-0.8l0,0l0.1-0.4l0.1-0.3l0,0C34,20.7,34,20.1,34,20.1 M32.7,20.9c0,0-0.1,0-0.2,0
		c-0.3-0.1-0.9-0.2-1.8-0.4l0,0c0,0,0,0,0,0c-3.9-0.8-12.6-2.3-19.2-1.2c-0.2,0-0.5,0.1-0.7,0.1c-0.1,0-0.3,0-0.7,0.1
		c0,0-0.1,0-0.1,0c-0.1,0-0.2,0-0.4,0.1c0,0,0,0-0.1,0c-0.1,0-0.3,0-0.4,0.1c0,0-0.1,0-0.2,0c-0.1,0-0.3,0-0.4,0.1
		c-0.1,0-0.2,0-0.2,0c-0.1,0-0.3,0-0.4,0.1c-0.1,0-0.1,0-0.2,0c-0.2,0-0.3,0-0.5,0.1c-0.1,0-0.1,0-0.2,0c-0.2,0-0.3,0.1-0.5,0.1
		c-0.1,0-0.2,0-0.2,0c-0.2,0-0.3,0.1-0.5,0.1c-0.1,0-0.2,0-0.3,0c-0.2,0-0.3,0.1-0.5,0.1c0,0-0.1,0-0.1,0c-0.2,0-0.3,0.1-0.3,0.1
		c-0.1,0-0.2,0-0.3,0.1c-0.1,0-0.2,0-0.3,0.1c-0.1,0-0.2,0-0.4,0.1c-0.1,0-0.2,0-0.3,0.1c-0.1,0-0.2,0-0.3,0.1
		c-0.1,0-0.2,0.1-0.4,0.1c-0.1,0-0.2,0-0.2,0.1C2.2,20.9,2,21,1.9,21c-0.2,0.1-0.4,0.1-0.7,0.2c-0.1,0-0.1,0-0.2,0.1
		c-0.1,0-0.1,0-0.2,0.1c-0.1-0.6-0.2-1.1-0.2-1.1c0-0.1,0-8.8,0.1-11.5C0.8,8.2,1,7.6,1.2,7c0,0,0,0,0,0c0.1,0,0.1,0,0.2,0.1
		c0,0,0,0,0,0c0.1,0,0.2,0,0.2,0.1c0,0,0,0,0,0c0.1,0,0.2,0.1,0.3,0.1c0,0,0,0,0,0C2.7,7.4,3.7,7.7,4.9,8c0,0,0,0,0,0
		C5.1,8,5.3,8,5.5,8.1c0,0,0,0,0,0c0.2,0,0.4,0.1,0.6,0.1c0,0,0,0,0.1,0c0.2,0,0.4,0.1,0.6,0.1c0,0,0,0,0.1,0c0.2,0,0.4,0.1,0.6,0.1
		c0,0,0,0,0.1,0c0.2,0,0.4,0.1,0.7,0.1c0,0,0,0,0,0c1.7,0.3,3.5,0.6,5.4,0.8c0,0,0.1,0,0.1,0c0.2,0,0.4,0,0.7,0.1c0.1,0,0.1,0,0.2,0
		c0.2,0,0.4,0,0.6,0.1c0.1,0,0.1,0,0.2,0c0.2,0,0.4,0,0.6,0c0.1,0,0.2,0,0.2,0c0.2,0,0.4,0,0.5,0c0.1,0,0.2,0,0.2,0
		c0.2,0,0.4,0,0.5,0c0.1,0,0.2,0,0.2,0c0.2,0,0.3,0,0.5,0c0.1,0,0.2,0,0.2,0c0,0,0.1,0,0.1,0c0,0,0.1,0,0.1,0c0.5,0,1.1,0,1.6,0
		c0.1,0,0.1,0,0.2,0c0.6,0,1.1-0.1,1.6-0.2c0.5-0.1,1-0.2,1.6-0.2c0.2,0,0.4-0.1,0.6-0.1c0,0,0.1,0,0.1,0V19h5.9V8
		c0.2,0,0.3-0.1,0.5-0.1c0.2,0,0.4-0.1,0.6-0.1c0.2-0.1,0.5-0.1,0.7-0.2c0.2,0,0.4-0.1,0.6-0.1c0.2,0,0.3-0.1,0.5-0.1
		c0.1,0.4,0.2,0.8,0.2,1.2c0.1,2.7,0.1,11.4,0.1,11.5c0,0,0,0.5-0.2,1c0,0,0,0,0,0C33,21,32.8,21,32.7,20.9 M25.1,20.9
		C22.4,21,19.7,21,17.2,21l-0.3,0c-3.1-0.1-5.9-0.2-8-0.3l0,0l0,0c-0.3,0-0.7,0-1-0.1c1.7-0.3,3-0.5,3.1-0.5l0,0
		c5.5-1.1,12.7-0.2,17.2,0.6c-0.9,0.1-1.9,0.1-2.9,0.2L25.1,20.9z M24.9,7.7L24.9,7.7l0.2,0c0.8,0,1.7,0.1,2.5,0.2
		C27.4,7.9,27.2,8,27,8c-0.2,0-0.4,0.1-0.6,0.1c-0.3,0.1-0.6,0.1-0.8,0.2c-0.2,0-0.4,0.1-0.6,0.1c-0.3,0.1-0.6,0.1-0.9,0.2
		c-0.2,0-0.4,0.1-0.6,0.1c-0.5,0.1-1,0.2-1.5,0.2c-0.2,0-0.5,0.1-0.7,0.1c-0.1,0-0.2,0-0.2,0c-0.2,0-0.3,0-0.5,0c-0.1,0-0.2,0-0.3,0
		c-0.1,0-0.3,0-0.4,0c-0.1,0-0.2,0-0.3,0c-0.1,0-0.3,0-0.4,0c-0.1,0-0.2,0-0.3,0c-0.1,0-0.3,0-0.5,0c-0.1,0-0.2,0-0.3,0
		c-0.2,0-0.3,0-0.5,0c-0.1,0-0.2,0-0.3,0c-0.2,0-0.3,0-0.5,0c-0.1,0-0.2,0-0.3,0c-0.2,0-0.3,0-0.5,0c-0.1,0-0.2,0-0.3,0
		c-0.2,0-0.4,0-0.6,0c-0.1,0-0.2,0-0.3,0c-0.2,0-0.5,0-0.7-0.1c0,0-0.1,0-0.1,0c-0.3,0-0.6-0.1-0.8-0.1c0,0-0.1,0-0.1,0
		c-0.2,0-0.4-0.1-0.7-0.1c-0.1,0-0.2,0-0.3,0c-0.2,0-0.4-0.1-0.5-0.1c-0.1,0-0.2,0-0.3,0c-0.2,0-0.3-0.1-0.5-0.1c-0.1,0-0.2,0-0.3,0
		c-0.2,0-0.3-0.1-0.5-0.1c-0.1,0-0.2,0-0.3-0.1C9.3,8.2,9.2,8.1,9,8.1c0,0-0.1,0-0.1,0C12.1,7.8,18.6,7.5,24.9,7.7 M24.9,9.1
		c0,0,0.1,0,0.1,0C25.3,9,25.5,9,25.7,9c0.3,0,0.5-0.1,0.8-0.1c0.2,0,0.4-0.1,0.7-0.1c0.3,0,0.5-0.1,0.8-0.1c0.2,0,0.4-0.1,0.7-0.1
		c0.2-0.1,0.5-0.1,0.7-0.2c0.1,0,0.1,0,0.2,0v10.1h-4.5V9.1z M27.6,0.8H31v2.1l-0.3,0v0h-2.8v0h-0.3V0.8z M27.7,4.3l0.1-0.1V3.6h2.8
		v0.6l0.1,0.1c0,0,1.2,0.9,1.9,2.4c-0.1,0-0.3,0.1-0.4,0.1c-0.2,0.1-0.4,0.1-0.6,0.2C31.5,7,31.3,7.1,31,7.1c-0.2,0-0.4,0.1-0.6,0.1
		c-0.2,0-0.4,0.1-0.6,0.1c-1.3-0.2-2.8-0.3-4.2-0.3C26.3,5.4,27.7,4.3,27.7,4.3 M22.8,2.8h-3.4V0.8h3.4V2.8z M19.6,4.3l0.1-0.1V3.5
		h2.8l0,0.6l0.1,0.1c0,0,1.4,1.1,2,2.7c-2.4-0.1-4.9-0.1-7.1-0.1C18.2,5.3,19.5,4.3,19.6,4.3 M11.2,0.7h3.4v2.1l-0.3,0v0h-2.8v0
		h-0.3V0.7z M11.4,4.2l0.1-0.1V3.5h2.8v0.6l0.1,0.1c0,0,1.4,1.1,2,2.8C13.6,7.1,11,7.2,9.3,7.4C9.9,5.5,11.4,4.2,11.4,4.2 M3.1,1
		l3.4,0v2.1l-0.3,0v0H3.3v0H3.1V1z M3.2,4.5l0.1-0.1V3.8h2.8l0,0.6l0.1,0.1c0,0,1.4,1.3,2,3c-1,0.1-1.6,0.1-1.6,0.1l0,0.1
		c-0.1,0-0.1,0-0.2,0C6.4,7.6,6.2,7.5,6,7.5c0,0,0,0-0.1,0C5.5,7.4,5.1,7.3,4.7,7.2c-0.1,0-0.1,0-0.2,0c-0.1,0-0.3-0.1-0.4-0.1
		C4,7,4,7,3.9,7C3.8,7,3.7,7,3.6,6.9c-0.1,0-0.1,0-0.2,0c-0.1,0-0.2-0.1-0.3-0.1c-0.1,0-0.1,0-0.2,0c-0.1,0-0.2,0-0.3-0.1
		c-0.1,0-0.1,0-0.2,0c-0.1,0-0.1,0-0.2-0.1c-0.1,0-0.1,0-0.2,0c-0.1,0-0.1,0-0.2-0.1c0,0-0.1,0-0.1,0c-0.1,0-0.1,0-0.1,0
		c0,0-0.1,0-0.1,0c0,0,0,0,0,0C2.2,5.2,3.2,4.5,3.2,4.5 M8.5,21.7c-0.2,0.7-0.3,0.8-0.3,0.8l-0.1,0.1l0,0.1c0,0-0.1,0.2-0.3,0.3
		c-0.2,0.1-0.7,0.2-1.4-0.2l-0.2-0.1l-0.2,0.1c-0.4,0.3-0.8,0.5-1.1,0.5l0,0l0,0c-0.4,0-0.7-0.1-1.1-0.5l-0.2-0.1l-0.2,0.1
		C2.4,23.1,2,23.1,1.8,23c-0.2-0.1-0.3-0.3-0.3-0.3l-0.1-0.1l-0.1-0.1c0,0-0.1-0.1-0.2-0.4c0.1,0,0.1,0,0.2-0.1c0.1,0,0.1,0,0.2-0.1
		c0.2-0.1,0.4-0.1,0.6-0.2c0.8-0.2,1.9-0.4,3-0.6c0.6,0.1,1.9,0.2,3.6,0.3L8.5,21.7z M16.4,22.1l-0.1,0.1l0,0.1c0,0-0.1,0.2-0.3,0.3
		c-0.2,0.1-0.7,0.2-1.4-0.2l-0.2-0.1l-0.2,0.1C13.7,22.9,13.3,23,13,23l0,0l0,0c-0.4,0-0.7-0.1-1.1-0.5l-0.2-0.1l-0.2,0.1
		c-0.8,0.3-1.2,0.3-1.4,0.2c-0.2-0.1-0.3-0.3-0.3-0.3l-0.1-0.1l-0.1-0.1c0,0-0.1-0.1-0.3-0.5l-0.1-0.3c2.1,0.1,4.7,0.3,7.5,0.3
		C16.5,22.1,16.4,22.1,16.4,22.1 M24.6,22.2l-0.1,0.1l0,0.1c0,0-0.1,0.2-0.3,0.3c-0.2,0.1-0.7,0.2-1.4-0.2l-0.2-0.1l-0.2,0.1
		c-0.4,0.3-0.8,0.5-1.1,0.5l0,0l0,0c-0.4,0-0.7-0.1-1.1-0.5l-0.2-0.1l-0.2,0.1c-0.8,0.3-1.2,0.3-1.4,0.2c-0.2-0.1-0.3-0.3-0.3-0.3
		l-0.1-0.1l-0.1-0.1c0,0-0.1-0.1-0.3-0.6c0.8,0,1.7,0,2.6,0c1.6,0,3.3,0,5-0.1l0,0C24.7,22.2,24.6,22.2,24.6,22.2 M32.8,22.2
		l-0.1,0.1l0,0.1c0,0-0.1,0.2-0.3,0.3c-0.2,0.1-0.7,0.2-1.4-0.2l-0.2-0.1l-0.2,0.1c-0.4,0.3-0.8,0.5-1.1,0.5l0,0l0,0
		c-0.4,0-0.7-0.1-1.1-0.5l-0.2-0.1l-0.2,0.1c-0.8,0.3-1.2,0.3-1.4,0.2c-0.2-0.1-0.3-0.3-0.3-0.3L26,22.3l-0.1-0.1
		c0,0-0.1-0.1-0.3-0.6l0-0.1c1.7-0.1,3.5-0.2,5.1-0.4c1.2,0.2,1.9,0.4,1.9,0.4c0.1,0,0.3,0.1,0.5,0.1c0,0,0,0,0,0
		C32.9,22.2,32.8,22.2,32.8,22.2"/>
</g>
</svg>
