<svg xmlns="http://www.w3.org/2000/svg" viewBox="0 0 250 250"><title>CR</title><path d="M196.85,168.4l-.8,0H53.79l-.63,0a30,30,0,0,1,.21-3.55c.1-1.39.31-2.77.52-4.14s.53-3,.83-4.5a64.42,64.42,0,0,1,2.2-7.89,68.56,68.56,0,0,1,4.61-10.56,75.7,75.7,0,0,1,5.72-9,68.54,68.54,0,0,1,6.91-8,74.91,74.91,0,0,1,6.34-5.65,71.23,71.23,0,0,1,15.74-9.45,69.22,69.22,0,0,1,19.84-5.43,69.48,69.48,0,0,1,14.43-.35c1.75.16,3.49.34,5.23.59a71.77,71.77,0,0,1,8.23,1.73,73.71,73.71,0,0,1,9.46,3.31,70.29,70.29,0,0,1,12.16,6.67,66.92,66.92,0,0,1,9.65,7.94,70.81,70.81,0,0,1,7.47,8.54c1.06,1.46,2.12,2.91,3.07,4.44a72.33,72.33,0,0,1,6,11.79,76.32,76.32,0,0,1,2.86,8.72,66.41,66.41,0,0,1,1.73,9.22A44.28,44.28,0,0,1,196.85,168.4ZM141,156.28h0l-1.2.6a.37.37,0,0,0,.3,0c1.77-.61,3.6-1,5.41-1.47a7.6,7.6,0,0,1,3.21-.48,1.46,1.46,0,0,0,.62-.07,36.4,36.4,0,0,1,4.76-1c2.08-.31,4.19-.47,6.28-.72,1.63-.19,3.26-.34,4.9-.41,1.34-.06,2.67-.18,4-.16,1.14,0,2.29-.11,3.44-.12,1.35,0,2.69,0,4,.14a3.7,3.7,0,0,0,2.89-.6c.35-.29.59-1,.27-1.17-.57-.34-1-.85-1.59-1.17s-1.12-1.14-2-1.14c-.07,0-.13-.18-.22-.25-1-.78-1.44-1.29-2.58-.6a1,1,0,0,1-.66.18,30.33,30.33,0,0,0-3.31,0,47.88,47.88,0,0,0-5.6.54,35.3,35.3,0,0,0-4.32.61c-1.15.25-2.35.42-3.53.59a54.44,54.44,0,0,0-5.74,1.1c-1.71.43-3.46.67-5.19,1-1.26.27-2.51.59-3.75.93-.65.18-1.33.1-2,.27-1.42.37-2.84.76-4.29,1-1.74.34-3.48.72-5.19,1.18-1.36.36-2.74.68-4.1,1a20,20,0,0,1-3,.74,2.11,2.11,0,0,0-.82.25c-1.51.89-3.25,1.18-4.85,1.86s-3,1-4.44,1.67a31.46,31.46,0,0,0-5.28,2.72c-.09.07-.2.12-.29.19s-.29.2-.24.36.27.17.44.16c.69,0,1.28-.41,2-.48a3.59,3.59,0,0,0,2.32-1.09.35.35,0,0,1,.41-.12,1.19,1.19,0,0,0,.94-.14c.63-.31,1.43-.14,2-.72.12-.13.3-.08.48,0a.47.47,0,0,0,.55-.19c.16-.35.32-.5.69-.35a.76.76,0,0,0,.55,0c.74-.23,1.47-.52,2.22-.68a19.27,19.27,0,0,1,2.79-.88,11.54,11.54,0,0,0,1.52-.45c.58-.12,1.14-.32,1.73-.4a7.76,7.76,0,0,0,1.7-.52c.51-.2,1.06-.09,1.57-.33s1.37-.31,2-.55a3,3,0,0,1,1.56-.31,5.19,5.19,0,0,0,2.57-.3c.15,0,.33-.22.57.07-1.87.42-3.36,1.49-5,2.24.54-.17,1.06.11,1.55,0s.67-.52,1-.59.92.07,1.34-.14a10.69,10.69,0,0,1,1.89-.66c.66-.19,1.34-.36,2-.61.31-.12.54-.27.66.22A2.47,2.47,0,0,1,141,156.28ZM78.72,143.94l0,0A18.66,18.66,0,0,1,77,145.39a37.18,37.18,0,0,0-3.59,2.75c-1.6,1.33-3.13,2.77-4.75,4.1-2,1.63-3.57,3.64-5.42,5.39a1.85,1.85,0,0,0-.66,1.22,2.85,2.85,0,0,1,1.21-.4,13.77,13.77,0,0,0,5-1.58c.24-.14.61-.19.58-.6,0-.12.08-.12.14-.13.52-.05.83-.45,1.19-.75,1.11-.94,2-2.08,3.19-3a2.08,2.08,0,0,0,.89-1.15.84.84,0,0,1,.55-.56,4.79,4.79,0,0,0,2-1.64c.27-.29,1-.43.6-1.12l0,0c.48-.45.82-1.06,1.49-1.31a1.85,1.85,0,0,0,.67-.32c.88-.85,1.7-1.75,2.59-2.6a4.76,4.76,0,0,1,1.6-1.24,3.36,3.36,0,0,0,1.05-.57l1-.82c.16-.13.28-.17.41.06a.61.61,0,0,0,.94.2c.52-.45,1.17-.37,1.74-.53,1.17-.34,2.34-.71,3.54-1,.42-.09.7-.47,1.16-.45a10.3,10.3,0,0,0,1.91-.38c1.26-.19,2.32-1,3.6-1.09a22.52,22.52,0,0,0,2.25-.54,31.09,31.09,0,0,0-2.16,3.49c-.89,1.26-1.24,2.8-2.14,4.08-1.14,1.62-1.53,3.59-2.37,5.35a26.39,26.39,0,0,0-1.81,4c0,.16-.16.37-.1.49.29.57-.09,1.05-.29,1.47a1.6,1.6,0,0,0-.21,1.53,3.5,3.5,0,0,0,2.45,1.85A7.78,7.78,0,0,0,98,159.4a19,19,0,0,0,2.07-.8,9.24,9.24,0,0,0,2-1.2,1.72,1.72,0,0,1,.57-.26,6.49,6.49,0,0,0,3.12-2.23.6.6,0,0,0,.18-.54l-.45.16a11.84,11.84,0,0,1-3.15.86c-.85,0-1.2-.32-1.16-1.18,0-.5.15-1,.2-1.48a4,4,0,0,1,.45-2.13c.5-.74.7-1.7,1.22-2.46s.61-1.72,1.21-2.45a10.36,10.36,0,0,0,1-2.41c.12-.26-.14-.3-.33-.33s-.41,0-.45-.16.2-.3.35-.4.63-.31.58-.58c-.08-.47.23-.49.49-.62a3.56,3.56,0,0,0,.8-1.64.44.44,0,0,0-.09-.15c-.38-.51-.38-.73.18-1,.82-.36.9-1.16,1.25-1.81.22-.41.39-.85,1-1,2.57-.58,5.14-1.22,7.71-1.78,1.81-.4,3.61-.84,5.46-1.09a2.81,2.81,0,0,0,2-.79c.11-.13.23-.11.35,0a1.08,1.08,0,0,0,1,.17c.73-.14,1.46-.31,2.2-.44a3.67,3.67,0,0,0,2-.9.61.61,0,0,1,.58-.19c.54.13,1.08.3,1.54-.21a.19.19,0,0,1,.17,0,3.15,3.15,0,0,0,2.22-.35,6,6,0,0,0,2.23-1.41c-1.21.19-2.26.39-3.31.52-.88.11-1.71.44-2.59.5a5.76,5.76,0,0,0-2.23.48,1.56,1.56,0,0,1-1.22.18,1.37,1.37,0,0,0-.9,0c-.94.29-1.93.17-2.9.4a45.41,45.41,0,0,1-5.07.87c-1.86.23-3.71.58-5.56.87l-2.6.4a12.14,12.14,0,0,1,1-2.18c.69-1,1-2.17,1.72-3.16a9.52,9.52,0,0,0,.78-1.61,12.59,12.59,0,0,1,.85-1.25c.2-.31.29-.55-.26-.62.36-.28.79-.3,1-.66q.47-.79,1-1.57c.2-.31.1-.45-.24-.49-.11,0-.26.07-.35-.09a3.7,3.7,0,0,1,1.39-.92c.53-.18.66-.63.31-.9a4,4,0,0,0,.59-.23c.18-.1.39-.28.33-.49s-.3-.07-.46-.1-.23,0-.37-.13a9.27,9.27,0,0,1,1.11-.68,4,4,0,0,0,1.51-1.2,22.64,22.64,0,0,1,3.49-3.42c.57-.45,1.12-.93,1.76-1.47H125a32.28,32.28,0,0,0-5.72,1.52c-1.92.68-3.4,2.05-5.09,3.09-1,.61-1.85,1.44-2.81,2.13-1.65,1.18-3.25,2.43-4.86,3.67s-2.9,2.34-4.43,3.4-2.81,2.35-4.38,3.34a41,41,0,0,0-5.33,4.11c-.41.37-.71.86-1.25,1.09a4.25,4.25,0,0,0-1.09.74c-1.17,1-2.32,2-3.57,2.89a6.21,6.21,0,0,1-1.79,1c-2.17.65-4.36,1.24-6.58,1.71a34.86,34.86,0,0,0-4.43,1.25,4.43,4.43,0,0,0-1.38,1,9.56,9.56,0,0,1,1.89,0,5.09,5.09,0,0,1-1.57.47c-1.52.06-2.48,1.11-3.61,1.87a.3.3,0,0,0-.12.18,1,1,0,0,1-.82.79,4.93,4.93,0,0,0-1.86,1.1A5.53,5.53,0,0,0,65,148a.93.93,0,0,0,.61,0c2.89-.71,5.7-1.7,8.52-2.61C75.69,144.91,77.18,144.35,78.72,143.94Zm79.06.56a41,41,0,0,0,5.08-.68,17,17,0,0,0,7.49-2.88,3.67,3.67,0,0,0,1.08-1.45.83.83,0,0,0-.29-1,4.88,4.88,0,0,0-3.13-1.12c-1.33-.07-2.66-.07-4-.23-.41-.05-.31-.29-.21-.47a1.26,1.26,0,0,1,.43-.37,11.76,11.76,0,0,1,4.84-1.69c.19,0,.44-.14.58.09s-.1.38-.2.55-.22.2-.1.35a.26.26,0,0,0,.32.05c.53-.32,1.16-.23,1.71-.46a14.07,14.07,0,0,0,3.54-2c.16-.14.47-.21.38-.5a.85.85,0,0,0-.57-.53,1.46,1.46,0,0,0-.62,0c-3,.25-5.9,1.32-8.83,2.08-.39.1-.77.24-1.15.35a16.94,16.94,0,0,0-3,1.33,10,10,0,0,0-3.48,2.38c-.28.36-.62.78-.45,1.24s.68.4,1.06.42c1,0,2.07,0,3.1,0a9.34,9.34,0,0,1,3.81.68c.22.08.55.24.5.56a.93.93,0,0,1-.53.71,6.79,6.79,0,0,1-3,.57c-.36,0-.44-.18-.24-.48s.46-.29.26-.55-.43,0-.64,0a2,2,0,0,1-.28.08,11.83,11.83,0,0,0-4.45,1.43c-.35.17-.84.26-.8.85,0,.14-.2.16-.32.21a11.36,11.36,0,0,1-2.36.72c-.23,0-.52.19-.69-.06s0-.54.13-.75a31.63,31.63,0,0,0,1.71-3.14,32,32,0,0,0,2.16-4.14c.11-.29.06-.39-.19-.45a2.42,2.42,0,0,0-1.3.13c-.94.29-1.75.85-2.67,1.19a3.6,3.6,0,0,0-2.3,2.2,8.34,8.34,0,0,1-1.8,2.83,17.64,17.64,0,0,1-3.93,3.17,4.31,4.31,0,0,1-.68.31.38.38,0,0,1-.47-.09c-.13-.15,0-.28,0-.42a11.65,11.65,0,0,1,1.49-2.62c.89-1.24,1.61-2.59,2.55-3.79a2.79,2.79,0,0,0,.44-.67c.12-.3.11-.73-.25-.78a2.21,2.21,0,0,0-1.46.2,6.21,6.21,0,0,1-1.93.72,3.09,3.09,0,0,0-2.05,1.64,38.2,38.2,0,0,0-1.89,3.6.56.56,0,0,1-.16.24,4,4,0,0,0-1.31,2.48,1.72,1.72,0,0,0,.91,1.8,3.87,3.87,0,0,0,2.32.1,12.51,12.51,0,0,0,3.59-2.13c.7-.54,1.43-1,2.18-1.48.09-.06.2-.25.33-.09a.42.42,0,0,1,0,.38,1.18,1.18,0,0,0,1.13,1.51,16.62,16.62,0,0,0,5.11-1.27A6.36,6.36,0,0,1,157.78,144.5Zm-39.33.63c.74-1.8,1.83-3.28,2.55-5,.34-.8.73-1.63,1.14-2.42.25-.48.1-.61-.49-.56l-.29,0a27,27,0,0,0-2.79.88,7.32,7.32,0,0,0-1.92.9.88.88,0,0,0-.49.47,16.11,16.11,0,0,1-1.65,3.36,54.46,54.46,0,0,0-3.07,6.28,1,1,0,0,0-.1.44.8.8,0,0,1-.25.71c-.13.13-.32.51-.1.6.57.21.2.41,0,.56a1,1,0,0,0-.29,1.14c.11.54.51,1,.21,1.64,0,0,.06.18.12.24a12.81,12.81,0,0,0,3.34,2.57c.11-.23,0-.37-.09-.52a5.63,5.63,0,0,1-.29-2.72,7.86,7.86,0,0,1,1.15-2.79c.72-1.23,1.43-2.48,2-3.78a1.5,1.5,0,0,1,1.37-1,27.58,27.58,0,0,0,6.78-2A24.93,24.93,0,0,0,132,140.5a4.18,4.18,0,0,0,1.65-2.64,1.92,1.92,0,0,0-.69-2,5.19,5.19,0,0,0-2.74-1,32,32,0,0,0-6,.11,49.14,49.14,0,0,0-5.33.87,35,35,0,0,0-7.56,2.88,6.92,6.92,0,0,0-1,.61c-.1.07-.26.12-.18.31a1.36,1.36,0,0,0,.83-.11c1.41-.4,2.73-1.09,4.15-1.47A29.17,29.17,0,0,1,121,137a20.29,20.29,0,0,1,3.49,0,9.47,9.47,0,0,1,1.45.27c1.28.36,2.08,1.19,1.43,2.68a5.45,5.45,0,0,1-1.05,1.56,12.49,12.49,0,0,1-3,2.19A13.14,13.14,0,0,1,118.45,145.12Zm22-28.5a10.88,10.88,0,0,0-4.81,1.3,25.87,25.87,0,0,0-3.42,2.69,1.18,1.18,0,0,0-.36.76c-.2.86.85,2,1.62,2.38.34.17.44.05.56-.26s0-.71.21-.84c.51-.26.74-.76,1.16-1.09s.92-.64,1.07-1.23c0-.13.18-.32.33-.12s.44.12.66.05a11.93,11.93,0,0,1,4.29-.78,10.9,10.9,0,0,1,3.45.53,16,16,0,0,1,1.67.56,5.67,5.67,0,0,0,2.3,1.11.76.76,0,0,1,.73.71,1.69,1.69,0,0,0,.69,1.14c.3.29.62.57.93.86s.45.41.36.68c-.23.71.23,1.32.22,2a.48.48,0,0,0,.4.55c.26.06.32.29.06.39-.44.19-.42.54-.45.9s-.1,1-.16,1.43c0,.18-.06.34.1.48,1,.82,2.08.55,2.4-.34s.86-1.57.25-2.46c0-.05,0-.15,0-.22.36-1.89-.62-3.43-1.36-5a5.9,5.9,0,0,0-1.67-2c-1.06-.85-2-2-3.41-2.24-.07,0-.16-.06-.18-.12-.14-.44-.56-.49-.9-.64a22.31,22.31,0,0,0-3.2-.84A8.74,8.74,0,0,0,140.44,116.62Zm-3.05,31.81c-.35.07-.64.16-.94.2-.74.09-1-.24-.86-1a9.7,9.7,0,0,1,.54-1.95c.28-.63.53-1.3.85-1.91a28,28,0,0,1,1.63-3,5,5,0,0,0,.52-.74,32.74,32.74,0,0,1,2.19-3.54,15.39,15.39,0,0,0,1.44-2.7c.1-.27.39-.61.15-.83s-.62-.06-.94,0a15.1,15.1,0,0,0-2.83,1.1,3.82,3.82,0,0,0-1.58.88,19.45,19.45,0,0,0-2.31,3.66c-.78,1.51-1.66,3-2.37,4.5a14.84,14.84,0,0,0-1.6,4.91,1.69,1.69,0,0,0,1.69,2,9.56,9.56,0,0,0,4-1.2A.65.65,0,0,0,137.39,148.43Zm2.69-24.26a3.59,3.59,0,0,1,1.5-.73c2.88-.52,4.86.7,6.52,2.92a2.71,2.71,0,0,1,.5,1.56,5.75,5.75,0,0,0,.25,1.18.52.52,0,0,0,.49.42c.25,0,.24-.27.28-.44.47-2.21.23-4.26-1.6-5.79a4.25,4.25,0,0,0-2.73-1.2c-.11,0-.25,0-.28-.13-.07-.33-.37-.29-.59-.36a11.64,11.64,0,0,0-4.15,0,3.94,3.94,0,0,0-2.17.74c-.25.18-.43.24-.35.57s.05.56-.33.48c-.58-.13-.78.22-1,.64a2.81,2.81,0,0,0-.3,1.39c0,.36,0,.79.36,1a1.2,1.2,0,0,0,1.25-.2.7.7,0,0,1,.8-.16,1,1,0,0,0,1.32-.34,1.92,1.92,0,0,0,1.67.65c.15,0,.35-.13.42,0,.21.45.68.46,1,.65.2.1.52,0,.64.19.57.63,1.43.9,2,1.58.07.09.17.26.32.17s.11-.2.13-.3a2.14,2.14,0,0,0-.71-2,7.58,7.58,0,0,0-2.69-1.52C141.81,124.76,141,124.48,140.08,124.16Zm22.47,4.42.81-.08c.47,0,.82-.27.84-.77s-.35-.63-.74-.72a27.26,27.26,0,0,0-4.39-.45,8.33,8.33,0,0,0-2.62.09c-.14,0-.33,0-.34.22a.4.4,0,0,0,.3.44A21.36,21.36,0,0,0,162.55,128.58ZM130,114.3a.9.9,0,0,0,.33.82,18.09,18.09,0,0,0,3.61,2.31.69.69,0,0,0,.17,0c.57.12.87-.19.75-.75a2.67,2.67,0,0,0-.71-1.29,20.2,20.2,0,0,0-2.33-2A1.09,1.09,0,0,0,130,114.3Zm30.08,8.33a3.76,3.76,0,0,0,2-.46c.36-.23.33-.57.28-.92a.37.37,0,0,0-.39-.34,15.72,15.72,0,0,0-6.09.49,2.11,2.11,0,0,0-1,.58.34.34,0,0,0-.11.36c.09.21.22,0,.33,0a6,6,0,0,1,1.71-.1C158,122.39,159.11,122.51,160.11,122.62ZM139,113a6.54,6.54,0,0,0-.62-2.82.78.78,0,0,0-.89-.55.87.87,0,0,0-.76.75,3.91,3.91,0,0,0,.05,2c.28,1,.78,1.88,1,2.87.07.32.34.27.55.29s.31-.14.36-.35A13.38,13.38,0,0,0,139,113Zm9.5-2.39c0-.19,0-.52-.3-.49s-1,0-1.3.46a10.11,10.11,0,0,0-1.9,4.51c0,.21-.19.51.07.62s.54-.07.76-.29a13.55,13.55,0,0,0,1.95-2.62A6.25,6.25,0,0,0,148.48,110.6Zm3.59,7.3a12.1,12.1,0,0,0,3.43-.87,1.8,1.8,0,0,0,1.06-1.13.83.83,0,0,0-.07-.87c-.24-.29-.54-.19-.84-.11a12.33,12.33,0,0,0-4.07,2.31c-.14.11-.4.19-.33.41s.32.24.53.26Zm21.21,23.45a3.26,3.26,0,0,0,2.69-2.26.82.82,0,0,0-.81-1.06,3.12,3.12,0,0,0-2.78,2.33A.81.81,0,0,0,173.28,141.35Z" style="fill:#f8e401"/><path d="M47.83,168.38l-12.45,0c-.35,0-.39-.12-.38-.44a90,90,0,0,1,79.84-85.82,91,91,0,0,1,15.76-.4,88.62,88.62,0,0,1,30,7.14,90.33,90.33,0,0,1,52.83,65.42A85.64,85.64,0,0,1,215,167.9c0,.28.06.52-.37.51l-12.45,0a69.48,69.48,0,0,0-.68-7.72A71.87,71.87,0,0,0,199,149.45a77,77,0,0,0-7.46-17,78.94,78.94,0,0,0-11.34-14.81A77.13,77.13,0,0,0,148.31,98a78.57,78.57,0,0,0-9.58-2.38,77.38,77.38,0,0,0-30,.52,75.22,75.22,0,0,0-16.16,5.39,77.34,77.34,0,0,0-42.76,52.28A72.74,72.74,0,0,0,47.83,168.38Z" style="fill:#e22a3c"/><path d="M47.83,168.38a72.74,72.74,0,0,1,2-14.6A77.58,77.58,0,0,1,92.58,101.5a75.22,75.22,0,0,1,16.16-5.39,77.73,77.73,0,0,1,30-.52A78.57,78.57,0,0,1,148.31,98a77.87,77.87,0,0,1,31.92,19.65,78.94,78.94,0,0,1,11.34,14.81,77,77,0,0,1,7.46,17,71.87,71.87,0,0,1,2.46,11.21,69.48,69.48,0,0,1,.68,7.72c-1.77.07-3.55,0-5.32,0a44.3,44.3,0,0,0-.44-5.54,66.41,66.41,0,0,0-1.73-9.22,76.32,76.32,0,0,0-2.86-8.72,72.33,72.33,0,0,0-6-11.79c-.95-1.52-2-3-3.07-4.44a70.81,70.81,0,0,0-7.47-8.54,66.92,66.92,0,0,0-9.65-7.94,70.29,70.29,0,0,0-12.16-6.67,73.71,73.71,0,0,0-9.46-3.31,71.77,71.77,0,0,0-8.23-1.73c-1.74-.26-3.48-.43-5.23-.59a69.48,69.48,0,0,0-14.43.35,71.28,71.28,0,0,0-35.58,14.88,74.91,74.91,0,0,0-6.34,5.65,68.54,68.54,0,0,0-6.91,8,75.7,75.7,0,0,0-5.72,9,68.56,68.56,0,0,0-4.61,10.56,64.42,64.42,0,0,0-2.2,7.89c-.31,1.5-.6,3-.83,4.5s-.43,2.75-.52,4.14a30,30,0,0,0-.21,3.55C51.38,168.42,49.6,168.45,47.83,168.38Z" style="fill:#efa930"/><path d="M78.72,143.94c-1.54.41-3,1-4.54,1.46-2.83.91-5.63,1.9-8.52,2.61a.93.93,0,0,1-.61,0,5.53,5.53,0,0,1,1.21-1.1,4.93,4.93,0,0,1,1.86-1.1,1,1,0,0,0,.82-.79.3.3,0,0,1,.12-.18c1.13-.75,2.1-1.81,3.61-1.87a5.09,5.09,0,0,0,1.57-.47,9.56,9.56,0,0,0-1.89,0,4.43,4.43,0,0,1,1.38-1,34.86,34.86,0,0,1,4.43-1.25c2.22-.47,4.41-1.06,6.58-1.71a6.21,6.21,0,0,0,1.79-1c1.25-.89,2.4-1.91,3.57-2.89a4.25,4.25,0,0,1,1.09-.74c.54-.22.84-.72,1.25-1.09a41,41,0,0,1,5.33-4.11c1.57-1,2.87-2.29,4.38-3.34s2.95-2.27,4.43-3.4,3.21-2.48,4.86-3.67c1-.69,1.81-1.51,2.81-2.13,1.69-1,3.17-2.41,5.09-3.09a32.28,32.28,0,0,1,5.72-1.52h.29c-.64.53-1.19,1-1.76,1.47a22.64,22.64,0,0,0-3.49,3.42,4,4,0,0,1-1.51,1.2,9.27,9.27,0,0,0-1.11.68c.15.16.27.11.37.13s.41-.09.46.1-.15.38-.33.49a4,4,0,0,1-.59.23c.35.27.21.72-.31.9a3.7,3.7,0,0,0-1.39.92c.08.16.23.08.35.09.34,0,.44.18.24.49q-.5.78-1,1.57c-.21.36-.65.37-1,.66.56.07.46.32.26.62a12.59,12.59,0,0,0-.85,1.25,9.52,9.52,0,0,1-.78,1.61c-.7,1-1,2.15-1.72,3.16a12.14,12.14,0,0,0-1,2.18l2.6-.4c1.85-.29,3.7-.64,5.56-.87a45.41,45.41,0,0,0,5.07-.87c1-.23,2-.12,2.9-.4a1.37,1.37,0,0,1,.9,0,1.56,1.56,0,0,0,1.22-.18,5.76,5.76,0,0,1,2.23-.48c.87-.05,1.71-.38,2.59-.5,1.06-.14,2.11-.33,3.31-.52a6,6,0,0,1-2.23,1.41,3.15,3.15,0,0,1-2.22.35.19.19,0,0,0-.17,0c-.46.5-1,.33-1.54.21a.61.61,0,0,0-.58.19,3.67,3.67,0,0,1-2,.9c-.74.13-1.47.3-2.2.44a1.08,1.08,0,0,1-1-.17c-.12-.11-.24-.13-.35,0a2.81,2.81,0,0,1-2,.79c-1.84.25-3.65.7-5.46,1.09-2.58.56-5.14,1.2-7.71,1.78-.56.13-.74.57-1,1-.35.65-.43,1.45-1.25,1.81-.56.24-.56.47-.18,1a.44.44,0,0,1,.09.15,3.56,3.56,0,0,1-.8,1.64c-.26.13-.57.15-.49.62,0,.27-.35.42-.58.58s-.4.18-.35.4.29.13.45.16.45.07.33.33a10.36,10.36,0,0,1-1,2.41c-.6.73-.69,1.68-1.21,2.45s-.72,1.72-1.22,2.46a4,4,0,0,0-.45,2.13c0,.5-.17,1-.2,1.48,0,.86.3,1.21,1.16,1.18a11.84,11.84,0,0,0,3.15-.86l.45-.16a.6.6,0,0,1-.18.54,6.49,6.49,0,0,1-3.12,2.23,1.72,1.72,0,0,0-.57.26,9.24,9.24,0,0,1-2,1.2,19,19,0,0,1-2.07.8,7.78,7.78,0,0,1-2.63.24,3.5,3.5,0,0,1-2.45-1.85,1.6,1.6,0,0,1,.21-1.53c.2-.42.58-.9.29-1.47-.06-.12.05-.33.1-.49a26.39,26.39,0,0,1,1.81-4c.84-1.76,1.24-3.73,2.37-5.35.89-1.27,1.25-2.82,2.14-4.08a31.09,31.09,0,0,1,2.16-3.49,22.52,22.52,0,0,1-2.25.54c-1.28.08-2.34.91-3.6,1.09a10.3,10.3,0,0,1-1.91.38c-.46,0-.74.37-1.16.45-1.2.25-2.37.61-3.54,1-.57.17-1.22.08-1.74.53a.61.61,0,0,1-.94-.2c-.13-.23-.25-.19-.41-.06l-1,.82a3.36,3.36,0,0,1-1.05.57,4.76,4.76,0,0,0-1.6,1.24c-.88.84-1.71,1.74-2.59,2.6a1.85,1.85,0,0,1-.67.32c-.67.24-1,.85-1.49,1.31l0,0c.4.68-.32.82-.6,1.12a4.79,4.79,0,0,1-2,1.64.84.84,0,0,0-.55.56,2.08,2.08,0,0,1-.89,1.15c-1.14.91-2.08,2.05-3.19,3-.36.31-.67.7-1.19.75-.07,0-.16,0-.14.13,0,.42-.33.47-.58.6a13.77,13.77,0,0,1-5,1.58,2.85,2.85,0,0,0-1.21.4,1.85,1.85,0,0,1,.66-1.22c1.85-1.75,3.44-3.76,5.42-5.39,1.61-1.32,3.14-2.77,4.75-4.1A37.18,37.18,0,0,1,77,145.39,18.56,18.56,0,0,0,78.75,144l.13-.07,0,0ZM91,137.06l4-1c.16,0,.33-.14.49,0s.56.12.86,0a9.38,9.38,0,0,1,1.63-.68c1.65-.32,3.29-.69,4.94-1,.73-.14,1-.77,1.37-1.27.22-.32.35-.78.56-1.17.06-.12.17-.33.15-.35-.36-.27,0-.44.09-.59A24.76,24.76,0,0,0,107,128.2c1.59-2.43,3.13-4.9,4.82-7.27a2.09,2.09,0,0,0,.49-.93,4.26,4.26,0,0,0-1.34.93c-2.3,1.74-4.65,3.4-6.86,5.23q-5.17,4.27-10.41,8.46A29.81,29.81,0,0,0,90.9,137s-.16,0-.11.12S90.92,137.12,91,137.06Z" style="fill:#e22a3c"/><path d="M141,156.28a2.47,2.47,0,0,0-2.08,1c-.12-.49-.35-.34-.66-.22-.64.25-1.32.42-2,.61a10.69,10.69,0,0,0-1.89.66c-.42.21-.93,0-1.34.14s-.57.5-1,.59-1-.16-1.55,0c1.66-.74,3.15-1.82,5-2.24-.24-.29-.43-.11-.57-.07a5.19,5.19,0,0,1-2.57.3,3,3,0,0,0-1.56.31c-.67.24-1.4.25-2,.55s-1.06.13-1.57.33a7.76,7.76,0,0,1-1.7.52c-.6.08-1.15.29-1.73.4a11.54,11.54,0,0,1-1.52.45,19.27,19.27,0,0,0-2.79.88c-.75.16-1.48.45-2.22.68a.76.76,0,0,1-.55,0c-.37-.15-.53,0-.69.35a.47.47,0,0,1-.55.19c-.18-.06-.36-.11-.48,0-.53.59-1.34.41-2,.72a1.19,1.19,0,0,1-.94.14.35.35,0,0,0-.41.12,3.59,3.59,0,0,1-2.32,1.09c-.72.07-1.31.46-2,.48-.18,0-.38,0-.44-.16s.12-.27.24-.36.19-.13.29-.19a31.46,31.46,0,0,1,5.28-2.72c1.44-.64,3-1.05,4.44-1.67s3.33-1,4.85-1.86a2.11,2.11,0,0,1,.82-.25,20,20,0,0,0,3-.74c1.36-.36,2.74-.68,4.1-1,1.71-.46,3.45-.84,5.19-1.18,1.44-.28,2.86-.68,4.29-1,.65-.17,1.32-.08,2-.27,1.24-.34,2.49-.66,3.75-.93,1.73-.37,3.48-.61,5.19-1a54.44,54.44,0,0,1,5.74-1.1c1.18-.17,2.38-.34,3.53-.59a35.3,35.3,0,0,1,4.32-.61,47.88,47.88,0,0,1,5.6-.54,30.33,30.33,0,0,1,3.31,0,1,1,0,0,0,.66-.18c1.13-.68,1.6-.17,2.58.6.09.07.15.25.22.25.89,0,1.33.77,2,1.14s1,.83,1.59,1.17c.31.19.08.87-.27,1.17a3.7,3.7,0,0,1-2.89.6c-1.33-.1-2.67-.16-4-.14-1.15,0-2.29.14-3.44.12-1.34,0-2.68.1-4,.16-1.64.07-3.27.21-4.9.41-2.09.25-4.2.4-6.28.72a36.4,36.4,0,0,0-4.76,1,1.46,1.46,0,0,1-.62.07,7.6,7.6,0,0,0-3.21.48c-1.81.47-3.64.86-5.41,1.47a.37.37,0,0,1-.3,0l1.2-.6a1.25,1.25,0,0,0,1-.37C141.65,156,141.24,156,141,156.28Z" style="fill:#05994a"/><path d="M157.78,144.5a6.36,6.36,0,0,0-3.37.83,16.62,16.62,0,0,1-5.11,1.27,1.18,1.18,0,0,1-1.13-1.51.42.42,0,0,0,0-.38c-.13-.16-.25,0-.33.09-.74.47-1.47.95-2.18,1.48a12.51,12.51,0,0,1-3.59,2.13,3.87,3.87,0,0,1-2.32-.1,1.72,1.72,0,0,1-.91-1.8A4,4,0,0,1,140.1,144a.56.56,0,0,0,.16-.24,38.2,38.2,0,0,1,1.89-3.6,3.09,3.09,0,0,1,2.05-1.64,6.21,6.21,0,0,0,1.93-.72,2.21,2.21,0,0,1,1.46-.2c.36,0,.36.48.25.78a2.79,2.79,0,0,1-.44.67c-.94,1.2-1.66,2.55-2.55,3.79a11.65,11.65,0,0,0-1.49,2.62c-.05.14-.16.27,0,.42a.38.38,0,0,0,.47.09,4.31,4.31,0,0,0,.68-.31,17.64,17.64,0,0,0,3.93-3.17,8.34,8.34,0,0,0,1.8-2.83,3.6,3.6,0,0,1,2.3-2.2c.92-.34,1.73-.9,2.67-1.19a2.42,2.42,0,0,1,1.3-.13c.25.06.3.17.19.45a32,32,0,0,1-2.16,4.14,31.63,31.63,0,0,1-1.71,3.14c-.15.21-.31.49-.13.75s.46.1.69.06a11.36,11.36,0,0,0,2.36-.72c.12,0,.33-.06.32-.21,0-.58.45-.67.8-.85a11.83,11.83,0,0,1,4.45-1.43,2,2,0,0,0,.28-.08c.22,0,.47-.25.64,0s-.15.38-.26.55-.13.47.24.48a6.79,6.79,0,0,0,3-.57.93.93,0,0,0,.53-.71c.06-.31-.27-.47-.5-.56a9.34,9.34,0,0,0-3.81-.68c-1,.06-2.07,0-3.1,0-.38,0-.91,0-1.06-.42s.17-.88.45-1.24a10,10,0,0,1,3.48-2.38,16.94,16.94,0,0,1,3-1.33c.38-.11.76-.25,1.15-.35,2.92-.77,5.78-1.83,8.83-2.08a1.46,1.46,0,0,1,.62,0,.85.85,0,0,1,.57.53c.09.3-.22.37-.38.5a14.07,14.07,0,0,1-3.54,2c-.55.24-1.18.15-1.71.46a.26.26,0,0,1-.32-.05c-.12-.14,0-.24.1-.35s.34-.32.2-.55-.39-.12-.58-.09a11.76,11.76,0,0,0-4.84,1.69,1.26,1.26,0,0,0-.43.37c-.1.18-.2.42.21.47,1.33.16,2.66.16,4,.23a4.88,4.88,0,0,1,3.13,1.12.83.83,0,0,1,.29,1,3.67,3.67,0,0,1-1.08,1.45,17,17,0,0,1-7.49,2.88A41,41,0,0,1,157.78,144.5Z" style="fill:#1e3f78"/><path d="M118.45,145.12a13.14,13.14,0,0,0,4.83-1.49,12.49,12.49,0,0,0,3-2.19,5.45,5.45,0,0,0,1.05-1.56c.65-1.48-.15-2.32-1.43-2.68a9.47,9.47,0,0,0-1.45-.27,20.29,20.29,0,0,0-3.49,0,29.17,29.17,0,0,0-5.84,1.11c-1.42.38-2.74,1.07-4.15,1.47a1.36,1.36,0,0,1-.83.11c-.09-.19.08-.25.18-.31a6.92,6.92,0,0,1,1-.61,35,35,0,0,1,7.56-2.88,49.14,49.14,0,0,1,5.33-.87,32,32,0,0,1,6-.11,5.19,5.19,0,0,1,2.74,1,1.92,1.92,0,0,1,.69,2A4.18,4.18,0,0,1,132,140.5a24.93,24.93,0,0,1-6.63,3.74,27.58,27.58,0,0,1-6.78,2,1.5,1.5,0,0,0-1.37,1c-.59,1.29-1.3,2.54-2,3.78a7.86,7.86,0,0,0-1.15,2.79,5.63,5.63,0,0,0,.29,2.72c.06.15.2.29.09.52a12.81,12.81,0,0,1-3.34-2.57c-.06-.07-.15-.19-.12-.24.3-.59-.1-1.1-.21-1.64a1,1,0,0,1,.29-1.14c.17-.15.55-.35,0-.56-.22-.08,0-.47.1-.6a.8.8,0,0,0,.25-.71,1,1,0,0,1,.1-.44,54.46,54.46,0,0,1,3.07-6.28,16.11,16.11,0,0,0,1.65-3.36.88.88,0,0,1,.49-.47,7.32,7.32,0,0,1,1.92-.9,27,27,0,0,1,2.79-.88l.29,0c.59,0,.74.08.49.56-.41.79-.8,1.61-1.14,2.42C120.28,141.84,119.18,143.32,118.45,145.12Z" style="fill:#1e3f78"/><path d="M140.44,116.62a8.74,8.74,0,0,1,3.56.28,22.31,22.31,0,0,1,3.2.84c.34.15.76.2.9.64,0,.05.11.1.18.12,1.44.27,2.35,1.38,3.41,2.24a5.9,5.9,0,0,1,1.67,2c.74,1.59,1.72,3.13,1.36,5,0,.07,0,.17,0,.22.61.89,0,1.68-.25,2.46s-1.43,1.16-2.4.34c-.16-.13-.13-.3-.1-.48.07-.47.13-1,.16-1.43s0-.71.45-.9c.25-.11.19-.33-.06-.39a.48.48,0,0,1-.4-.55c0-.67-.45-1.29-.22-2,.09-.27-.16-.49-.36-.68s-.63-.56-.93-.86a1.69,1.69,0,0,1-.69-1.14.76.76,0,0,0-.73-.71,5.67,5.67,0,0,1-2.3-1.11,16,16,0,0,0-1.67-.56,10.9,10.9,0,0,0-3.45-.53,11.93,11.93,0,0,0-4.29.78c-.22.07-.44.24-.66-.05s-.3,0-.33.12c-.15.59-.65.89-1.07,1.23s-.65.84-1.16,1.09c-.25.13-.09.55-.21.84s-.22.43-.56.26c-.77-.38-1.81-1.52-1.62-2.38a1.18,1.18,0,0,1,.36-.76,25.87,25.87,0,0,1,3.42-2.69A10.88,10.88,0,0,1,140.44,116.62Z" style="fill:#e22a3c"/><path d="M137.39,148.43a.65.65,0,0,1-.39.42,9.56,9.56,0,0,1-4,1.2,1.69,1.69,0,0,1-1.69-2,14.84,14.84,0,0,1,1.6-4.91c.72-1.54,1.59-3,2.37-4.5a19.45,19.45,0,0,1,2.31-3.66,3.82,3.82,0,0,1,1.58-.88A15.1,15.1,0,0,1,142,133c.32-.07.72-.21.94,0s0,.56-.15.83a15.39,15.39,0,0,1-1.44,2.7,32.74,32.74,0,0,0-2.19,3.54,5,5,0,0,1-.52.74,28,28,0,0,0-1.63,3c-.32.61-.57,1.28-.85,1.91a9.7,9.7,0,0,0-.54,1.95c-.16.73.12,1.07.86,1C136.75,148.59,137,148.5,137.39,148.43Z" style="fill:#1e3f78"/><path d="M140.08,124.16c.9.32,1.73.59,2.55.9a7.58,7.58,0,0,1,2.69,1.52,2.14,2.14,0,0,1,.71,2c0,.11-.05.26-.13.3s-.25-.07-.32-.17c-.52-.68-1.38-1-2-1.58-.13-.14-.45-.09-.64-.19-.36-.19-.82-.2-1-.65-.07-.15-.27,0-.42,0a1.92,1.92,0,0,1-1.67-.65,1,1,0,0,1-1.32.34.7.7,0,0,0-.8.16,1.2,1.2,0,0,1-1.25.2c-.36-.18-.34-.61-.36-1a2.81,2.81,0,0,1,.3-1.39c.2-.42.4-.77,1-.64.38.09.4-.2.33-.48s.1-.39.35-.57a3.94,3.94,0,0,1,2.17-.74,11.64,11.64,0,0,1,4.15,0c.22.07.51,0,.59.36,0,.14.17.13.28.13a4.25,4.25,0,0,1,2.73,1.2c1.83,1.53,2.07,3.58,1.6,5.79,0,.17,0,.44-.28.44a.52.52,0,0,1-.49-.42,5.75,5.75,0,0,1-.25-1.18,2.71,2.71,0,0,0-.5-1.56c-1.66-2.23-3.63-3.45-6.52-2.92A3.59,3.59,0,0,0,140.08,124.16Z" style="fill:#e22a3c"/><path d="M162.55,128.58a21.36,21.36,0,0,1-6.15-1.27.4.4,0,0,1-.3-.44c0-.22.2-.18.34-.22a8.33,8.33,0,0,1,2.62-.09,27.26,27.26,0,0,1,4.39.45c.4.09.77.23.74.72s-.37.73-.84.77Z" style="fill:#e22a3c"/><path d="M130,114.3a1.09,1.09,0,0,1,1.83-.82,20.2,20.2,0,0,1,2.33,2,2.67,2.67,0,0,1,.71,1.29c.12.56-.18.86-.75.75a.69.69,0,0,1-.17,0,18.09,18.09,0,0,1-3.61-2.31A.9.9,0,0,1,130,114.3Z" style="fill:#e22a3c"/><path d="M160.11,122.62c-1-.11-2.12-.23-3.24-.38a6,6,0,0,0-1.71.1c-.11,0-.25.19-.33,0a.34.34,0,0,1,.11-.36,2.11,2.11,0,0,1,1-.58,15.72,15.72,0,0,1,6.09-.49.37.37,0,0,1,.39.34c.06.35.08.7-.28.92A3.76,3.76,0,0,1,160.11,122.62Z" style="fill:#e22a3c"/><path d="M139,113a13.38,13.38,0,0,1-.29,2.18c0,.21-.12.38-.36.35s-.48,0-.55-.29c-.23-1-.73-1.89-1-2.87a3.91,3.91,0,0,1-.05-2,.87.87,0,0,1,.76-.75.78.78,0,0,1,.89.55A6.54,6.54,0,0,1,139,113Z" style="fill:#e22a3c"/><path d="M148.48,110.6a6.25,6.25,0,0,1-.71,2.19,13.55,13.55,0,0,1-1.95,2.62c-.21.22-.47.41-.76.29s-.1-.41-.07-.62a10.11,10.11,0,0,1,1.9-4.51c.32-.46.84-.42,1.3-.46S148.44,110.4,148.48,110.6Z" style="fill:#e22a3c"/><path d="M152.07,117.9h-.29c-.21,0-.47,0-.53-.26s.19-.3.33-.41a12.33,12.33,0,0,1,4.07-2.31c.3-.08.6-.18.84.11a.83.83,0,0,1,.07.87A1.8,1.8,0,0,1,155.5,117,12.1,12.1,0,0,1,152.07,117.9Z" style="fill:#e22a3c"/><path d="M173.28,141.35a.81.81,0,0,1-.89-1,3.12,3.12,0,0,1,2.78-2.33.82.82,0,0,1,.81,1.06A3.26,3.26,0,0,1,173.28,141.35Zm0-.25a3,3,0,0,0,2.47-2.1c.07-.47-.19-.74-.71-.73a3,3,0,0,0-2.39,2C172.55,140.82,172.76,141.09,173.27,141.1Z" style="fill:#1e3f78"/><path d="M90.9,137a30,30,0,0,1,2.81-2.37q5.24-4.18,10.41-8.46c2.22-1.83,4.57-3.5,6.86-5.23a4.26,4.26,0,0,1,1.34-.93,2.09,2.09,0,0,1-.49.93c-1.69,2.37-3.23,4.84-4.82,7.27a24.76,24.76,0,0,1-1.94,2.83c-.12.14-.46.32-.09.59,0,0-.09.23-.15.35-.21.38-.34.84-.56,1.17-.33.49-.64,1.12-1.37,1.27-1.65.32-3.29.7-4.94,1a9.38,9.38,0,0,0-1.63.68c-.3.12-.57.24-.86,0s-.33,0-.49,0l-4,1Z" style="fill:#f8e401"/><path d="M91,137.06c0,.06-.13.12-.17.05s.07-.09.11-.13Z" style="fill:#f8e401"/><path d="M78.72,143.94l.13-.07,0,0-.13.07Z" style="fill:#f8e401"/><path d="M141,156.28c.29-.27.7-.24,1-.38a1.25,1.25,0,0,1-1,.37Z" style="fill:#f8e401"/><path d="M173.27,141.1c-.51,0-.72-.28-.63-.79a3,3,0,0,1,2.39-2c.52,0,.78.26.71.73A3,3,0,0,1,173.27,141.1Zm-.28-.37c.45,0,.43-.37.56-.57s.17-.33.36-.31.15.23.2.36,0,.3.21.27.2-.18.13-.31c-.18-.35,0-.5.3-.65a.91.91,0,0,0,.3-.34c.07-.12.19-.27.07-.42s-.24-.1-.37-.08c-.53.06-1,.17-1.18.78A10.38,10.38,0,0,1,173,140.73Z" style="fill:#f8e401"/><path d="M173,140.73a10.38,10.38,0,0,0,.59-1.27c.19-.61.66-.73,1.18-.78.13,0,.28,0,.37.08s0,.3-.07.42a.91.91,0,0,1-.3.34c-.28.15-.47.3-.3.65.06.13.05.29-.13.31s-.16-.16-.21-.27,0-.35-.2-.36-.27.16-.36.31S173.44,140.7,173,140.73Zm.91-1.16c.39,0,.71-.07.89-.42a.13.13,0,0,0-.12-.19C174.29,139,173.94,139,173.9,139.57Z" style="fill:#1e3f78"/><path d="M173.9,139.57c0-.53.39-.6.76-.62a.13.13,0,0,1,.12.19C174.61,139.5,174.29,139.56,173.9,139.57Z" style="fill:#f8e401"/></svg>