<svg xmlns="http://www.w3.org/2000/svg" viewBox="0 0 250 250"><title>Casual dining</title><path d="M65.1,140.52A9.86,9.86,0,0,1,69,138.68a10,10,0,0,1,11.83,6.71,13.18,13.18,0,0,1-1.39,12.07,9.7,9.7,0,0,1-7.13,4.3,11.78,11.78,0,0,1-5.59-.69.56.56,0,0,1-.44-.52,3.24,3.24,0,0,1,0-1.41.76.76,0,0,1,1-.57,10.41,10.41,0,0,0,1.94.35,5.26,5.26,0,0,0,5.53-3.55,14.12,14.12,0,0,0,.15-10.19c-1.42-3.91-5.3-4.45-8.31-3.08a2,2,0,0,0-1.37,2.14c.07,7.19,0,14.39,0,21.58,0,.22,0,.44,0,.66.08,1,.26,1.13,1.21,1.2a1.34,1.34,0,0,1,1.41,1.42c.1,1.34.1,1.34-1.23,1.34-2.84,0-5.68,0-8.52,0-.36,0-.49-.09-.44-.45a7.85,7.85,0,0,0,0-.82,1.32,1.32,0,0,1,1.31-1.5c.83-.11,1-.31,1-1.14,0-1.53,0-3.06,0-4.59,0-.32-.11-.38-.4-.42-5.79-.83-9.59-4.14-11.79-9.45-.24-.58-.45-1.17-.65-1.77a.39.39,0,0,0-.43-.32H34.5a.35.35,0,0,0-.4.28c-.54,1.77-1.24,3.48-1.68,5.28a4.23,4.23,0,0,0-.11.75c0,.75.1.95.82,1.18a1.73,1.73,0,0,1,1.46,2c0,.52.18,1.21-.08,1.53s-1,.1-1.51.1c-2.5,0-5,0-7.5,0-.4,0-.53-.1-.5-.51s0-1.09.06-1.63a1.37,1.37,0,0,1,1-1.23,3.71,3.71,0,0,0,2.2-1.92,32.46,32.46,0,0,0,2-5.15q4.23-11.92,8.43-23.85a1.12,1.12,0,0,0,0-1,3.35,3.35,0,0,1-.12-.34,1.94,1.94,0,0,1,.72-2.47q1.36-1,2.81-1.93c.55-.34.87-.23,1.24.31a4.65,4.65,0,0,1,.51,1.11c3,8.48,6.06,17,9.19,25.41a32.68,32.68,0,0,0,2.51,5.56,7.71,7.71,0,0,0,4,3.56c.56.2.56.2.56-.39q0-6.48,0-13c0-.31,0-.61,0-.92a.92.92,0,0,0-.76-.93c-1.17-.27-1.37-.56-1.37-1.76,0-1,0-1,1-1,1.9,0,3.81-.08,5.71-.15.36,0,.44.09.42.41S65.1,140.07,65.1,140.52Zm-29.51,5.58h9.61c.57,0,.57,0,.38-.54L42,135.37c-.43-1.22-.85-2.45-1.32-3.82Z" style="fill:#4e6e16"/><path d="M63.69,128.57c-4-3.43-5.8-8.11-7.05-13a32,32,0,0,1-.92-9.66,19.12,19.12,0,0,1,2.66-9.61A12.44,12.44,0,0,1,66,90.59a9.71,9.71,0,0,1,6.38.91c1.4.62,2.71,1.41,4.07,2.11a13.45,13.45,0,0,0,4.47,1.64,11.26,11.26,0,0,0,4.74-.47c5.09-1.6,9.25,1.26,11.22,5.15a20.35,20.35,0,0,1,2.22,9.58c0,.48,0,1,0,1.43s-.12,1-.2,1.55a23.27,23.27,0,0,1-3.5,9.15,27.92,27.92,0,0,1-5.3,6,8.7,8.7,0,0,1-4.15,2.16,13.14,13.14,0,0,1-4.89-.25,6.6,6.6,0,0,0-3.41,0,28,28,0,0,1-5.24,1.2,12.73,12.73,0,0,1-6.51-1c-.73-.31-1.37-.81-2.1-1.12h0ZM94.28,100.4h0a7.16,7.16,0,0,0-4.57-2.89,10.24,10.24,0,0,0-4.64.3,13.26,13.26,0,0,1-6.94.13,33.32,33.32,0,0,1-5.07-2,11.33,11.33,0,0,0-4.46-1.13,8.56,8.56,0,0,0-7.52,3.52,14.85,14.85,0,0,0-2.41,5,21.21,21.21,0,0,0-.05,10.14,5.07,5.07,0,0,0,.54,1.82c.06.25.1.5.17.74a22.63,22.63,0,0,0,2.58,5.73,9.67,9.67,0,0,0,4.79,3.94,12.33,12.33,0,0,0,4.87.74,26.41,26.41,0,0,0,3.83-.44c.83-.15,1.66-.33,2.48-.5a8.54,8.54,0,0,1,3.85.36,10.21,10.21,0,0,0,4.47.31A10,10,0,0,0,91,123.56a16.59,16.59,0,0,0,3.3-4.18,20.1,20.1,0,0,0,2.67-9.33,17.16,17.16,0,0,0-.29-3.54,15.28,15.28,0,0,0-2.27-6Z" style="fill:#ed2723"/><path d="M88.86,140.5a10.13,10.13,0,0,1,3.94-1.83,10,10,0,0,1,11.68,6.48,13.22,13.22,0,0,1-1.22,12.18A9.69,9.69,0,0,1,96,161.75a11.75,11.75,0,0,1-5.59-.69.58.58,0,0,1-.45-.58,6.15,6.15,0,0,1,0-1.12c.09-.66.49-1,1.14-.78a7.09,7.09,0,0,0,3.71.17,5.29,5.29,0,0,0,3.83-3.67,14.62,14.62,0,0,0,.09-9.73,5.3,5.3,0,0,0-4.43-3.85,6.7,6.7,0,0,0-5.08,1.3c-.23.17-.17.39-.17.6q0,8.83,0,17.65c0,1.77,0,3.54,0,5.31,0,1,.19,1.24,1.22,1.33a1.3,1.3,0,0,1,1.36,1.39c.09,1.36.09,1.36-1.25,1.36-2.81,0-5.61,0-8.42,0-.41,0-.53-.12-.49-.51s0-.58,0-.87a1.28,1.28,0,0,1,1.26-1.38c.89-.12,1.1-.35,1.1-1.26q0-11.63,0-23.26c0-.89-.19-1.09-1.07-1.31a1.23,1.23,0,0,1-1.07-1.38c0-.42-.14-1,.07-1.24s.83-.11,1.27-.12c1.78-.05,3.57-.08,5.35-.15.38,0,.47.1.44.45S88.86,140.06,88.86,140.5Z" style="fill:#4e6e16"/><path d="M141.54,139.93a13.35,13.35,0,0,1,3.81-1.29,10.22,10.22,0,0,1,12.06,7.86,13.79,13.79,0,0,1-.8,9.31,10.45,10.45,0,0,1-13.22,5.37,12,12,0,0,1-2.7-1.3.41.41,0,0,0-.6,0c-.62.56-1.27,1.08-1.88,1.64s-1.13.18-1.7.25c-.1,0-.11-.1-.11-.19s0-.31,0-.46q0-13.6,0-27.19c0-.17,0-.34,0-.51-.06-1.2-.19-1.42-1.28-1.55a1.13,1.13,0,0,1-1-1.19c-.11-1.44-.11-1.45,1.3-1.5,1.9-.06,3.81-.09,5.71-.16.39,0,.48.09.47.47,0,3.25,0,6.5,0,9.74Zm0,10.2q0,3.42,0,6.83a.64.64,0,0,0,.23.62c2.7,2,7.71,2.27,9.42-2.53a14.48,14.48,0,0,0,.11-9.65,5.36,5.36,0,0,0-3.94-3.84,6.66,6.66,0,0,0-5.48,1.08.75.75,0,0,0-.36.71C141.54,145.62,141.54,147.88,141.54,150.14Z" style="fill:#4e6e16"/><path d="M209.87,162.48a15.22,15.22,0,0,1-5.85-1.17,5.91,5.91,0,0,1-1.87-1.21,2.79,2.79,0,0,1-.67-3.3,3,3,0,0,1,3.21-1.35,3.29,3.29,0,0,1,1.46.68,1.8,1.8,0,0,1,.64,2c-.31,1.21,0,1.77,1.22,2a7,7,0,0,0,5-.6,3.12,3.12,0,0,0,.31-5.55,12.45,12.45,0,0,0-3.14-1.42,33.87,33.87,0,0,1-4.38-1.65,5.72,5.72,0,0,1-3.33-3.64,5.64,5.64,0,0,1,2-6.11,10.68,10.68,0,0,1,5.64-2.26,11.38,11.38,0,0,1,5.65.7,4.84,4.84,0,0,1,1.82,1.18,2.77,2.77,0,0,1,.57,3.06,2.83,2.83,0,0,1-2.78,1.34,4.18,4.18,0,0,1-.84-.18,2,2,0,0,1-1.53-2.46,1.09,1.09,0,0,0-1-1.41,5,5,0,0,0-4.16.83,2.65,2.65,0,0,0-.22,4.23,7.53,7.53,0,0,0,2.53,1.38c1.62.61,3.3,1,4.89,1.73a12.25,12.25,0,0,1,2.05,1.12c3.17,2.15,2.94,6.44.92,8.77a9.82,9.82,0,0,1-5.62,3.06A11.62,11.62,0,0,1,209.87,162.48Z" style="fill:#4e6e16"/><path d="M170.52,161.9c-5.12,0-9.22-2.75-10.41-7.37-1.28-5-.35-9.49,3.59-13a10.13,10.13,0,0,1,7.75-2.54c4.18.29,6.4,2.73,7.41,6.34.36,1.29.36,1.29-.87,1.88a65,65,0,0,1-12.55,4.25c-.28.07-.53.11-.44.5.62,2.78,2,5,4.71,6.14a8.38,8.38,0,0,0,6.49-.15,1.68,1.68,0,0,1,2.37,1.22c.06.23-.09.3-.23.39a13.93,13.93,0,0,1-5.78,2.22C171.87,161.85,171.17,161.83,170.52,161.9Zm-5.94-13.11.51-.11a79.87,79.87,0,0,0,8.68-2.19c.23-.07.4-.14.32-.44a10.91,10.91,0,0,0-1.12-2.82,4.13,4.13,0,0,0-6.58-.5C165,144.52,164.74,146.61,164.57,148.79Z" style="fill:#4e6e16"/><path d="M125.73,161.9c-4-.12-7.37-1.65-9.44-5.46a11.2,11.2,0,0,1-1.23-5.95,12.62,12.62,0,0,1,2.07-6.76,10.48,10.48,0,0,1,8-4.76,8.36,8.36,0,0,1,6.6,1.87,9.13,9.13,0,0,1,2.62,4.68c.29,1.07.29,1.07-.71,1.54a64.31,64.31,0,0,1-12.74,4.34c-.44.11-.56.22-.44.69.66,2.72,2,4.9,4.71,6a8.45,8.45,0,0,0,6.58-.21,1.72,1.72,0,0,1,2.27,1.35c0,.23-.18.27-.31.35a13.81,13.81,0,0,1-5.09,2.08A19.22,19.22,0,0,1,125.73,161.9Zm-5.65-13.76c0,.65,0,.66.61.53l2.33-.5c2.09-.48,4.16-1,6.2-1.68.15,0,.42,0,.32-.36a12.74,12.74,0,0,0-1-2.69,4.12,4.12,0,0,0-7.2,0A11.76,11.76,0,0,0,120.08,148.14Z" style="fill:#4e6e16"/><path d="M180,151a12.61,12.61,0,0,1,2.47-7.81,10.45,10.45,0,0,1,9.36-4.26c4.61.28,6.59,3.13,7.51,6.55.29,1.09.29,1.09-.74,1.58a64.2,64.2,0,0,1-12.74,4.33c-.43.1-.51.24-.41.67.72,3,2.29,5.32,5.41,6.23a8.42,8.42,0,0,0,5.81-.43,1.71,1.71,0,0,1,2.33,1.31c0,.24-.17.28-.29.36a12.89,12.89,0,0,1-4.39,1.92,12.5,12.5,0,0,1-8.68-.75,9.81,9.81,0,0,1-5.48-7.66c0-.23-.08-.47-.1-.71C180.08,151.91,180.06,151.47,180,151Zm5-2.24,2-.41q3.64-.77,7.19-1.9c.14,0,.4,0,.31-.33a11.17,11.17,0,0,0-1.17-3,4.11,4.11,0,0,0-6.91,0,7.84,7.84,0,0,0-.61,1.22A12.09,12.09,0,0,0,185.08,148.79Z" style="fill:#4e6e16"/><path d="M112.87,143.2q0,6.66,0,13.32a6.71,6.71,0,0,0,.06.91c.16,1.12.48,1.46,1.59,1.65.83.15,1.07.41,1.08,1.26,0,.51.17,1.17-.08,1.48s-1,.1-1.46.11c-2.89,0-5.78,0-8.67,0-.37,0-.52-.08-.48-.47s0-.89,0-1.33a1,1,0,0,1,1-1.05c1.45-.25,1.85-.69,1.86-2.16q0-11.38,0-22.76a4,4,0,0,0-.08-.71,1.48,1.48,0,0,0-1.43-1.41c-1.16-.19-1.33-.38-1.32-1.56,0-.42-.18-1,.08-1.23s.81-.1,1.22-.11c2-.07,4.08-.1,6.12-.19.48,0,.54.13.54.56C112.86,134.09,112.87,138.64,112.87,143.2Z" style="fill:#4e6e16"/><path d="M63.77,128.67c.74.31,1.37.8,2.1,1.12a12.73,12.73,0,0,0,6.51,1,28,28,0,0,0,5.24-1.2,6.6,6.6,0,0,1,3.41,0,13.14,13.14,0,0,0,4.89.25,8.7,8.7,0,0,0,4.15-2.16,27.92,27.92,0,0,0,5.3-6,23.27,23.27,0,0,0,3.5-9.15c.09-.51.07-1,.2-1.55a21.8,21.8,0,0,1-1.61,9.46,27.27,27.27,0,0,1-5.51,9,9.08,9.08,0,0,1-8.55,2.86,17.24,17.24,0,0,0-7.14.61,12.18,12.18,0,0,1-7.52-.22A10.67,10.67,0,0,1,63.77,128.67Z" style="fill:#b10c35"/><path d="M79.4,91.54a9.81,9.81,0,0,1,4.09-8.18,11.5,11.5,0,0,1,5.38-2.13A8.48,8.48,0,0,0,91,80.63a3.93,3.93,0,0,0,1.12-.86.5.5,0,0,1,.56-.16.47.47,0,0,1,.27.51,21.39,21.39,0,0,1-1.09,6,6,6,0,0,1-1-1c-.22-.21-.45-.41-.69-.6s-.22-.09-.35,0A28,28,0,0,1,85,88.78,18.34,18.34,0,0,1,79.4,91.54Z" style="fill:#ddeb4e"/><path d="M79.4,91.54A18.34,18.34,0,0,0,85,88.78a28,28,0,0,0,4.78-4.16c.13-.14.18-.18.35,0s.46.39.69.6a6,6,0,0,0,1,1A10,10,0,0,1,90.66,89a8,8,0,0,1-6.14,3.72,8.62,8.62,0,0,1-4.76-.89C79.63,91.73,79.46,91.7,79.4,91.54Z" style="fill:#a3ba37"/><path d="M202.85,135.89a6,6,0,0,1-1.4,3.47c-.21.27-.43.52-.66.78-.45.49-.44.48-.9,0-.21-.21-.18-.33,0-.54A4.71,4.71,0,0,0,201,137c0-.26,0-.35-.32-.35a1.85,1.85,0,0,1-.81-3.54,2,2,0,0,1,2.38.57A3.52,3.52,0,0,1,202.85,135.89Z" style="fill:#4e6e16"/><path d="M223.76,141.57c.17-.5.32-.87.41-1.26s.36-.29.6-.29.21.26.21.42c0,.53,0,1.05,0,1.58,0,.18,0,.29-.25.3s-.25-.11-.25-.29a4.16,4.16,0,0,0-.08-1.06l-.38,1.08c0,.13-.07.26-.26.27s-.25-.12-.31-.27a4.05,4.05,0,0,0-.41-1,3.48,3.48,0,0,0-.06.94c0,.15,0,.31-.21.32s-.25-.17-.25-.34c0-.54,0-1.09,0-1.63,0-.14,0-.35.2-.32s.45-.13.56.19S223.57,141,223.76,141.57Z" style="fill:#4e6e16"/><path d="M221.14,140c.42,0,.71.06.9.36.06.1.16.24.07.32a.36.36,0,0,1-.43,0c-.08-.05-.11-.18-.19-.22a.52.52,0,0,0-.49,0,.19.19,0,0,0-.11.21c0,.19.22.19.35.24s.43.11.63.2a.61.61,0,0,1,.22.95,1.14,1.14,0,0,1-1.66-.07c-.07-.12-.21-.29,0-.39a.28.28,0,0,1,.43.11c.12.28.35.28.6.26s.27-.06.3-.22-.09-.25-.22-.29l-.44-.13c-.37-.11-.74-.26-.65-.75A.69.69,0,0,1,221.14,140Z" style="fill:#4e6e16"/><path d="M63.69,128.57l.08.11Z" style="fill:#b10c35"/><path d="M94.36,100.48a15.28,15.28,0,0,1,2.27,6,17.16,17.16,0,0,1,.29,3.54,20.1,20.1,0,0,1-2.67,9.33,16.59,16.59,0,0,1-3.3,4.18,10,10,0,0,1-4.75,2.62,10.21,10.21,0,0,1-4.47-.31,8.54,8.54,0,0,0-3.85-.36c-.83.17-1.65.35-2.48.5a26.41,26.41,0,0,1-3.83.44,12.33,12.33,0,0,1-4.87-.74,9.67,9.67,0,0,1-4.79-3.94A22.63,22.63,0,0,1,59.34,116c-.07-.24-.12-.49-.17-.74s0-.65,0-1a30.25,30.25,0,0,1,.52-7.76,16.94,16.94,0,0,1,2.25-6.17,7,7,0,0,1,4.69-3.23,10.2,10.2,0,0,1,4.39.24,44.21,44.21,0,0,1,5.09,1.91,13.94,13.94,0,0,0,5.54,1.17,22.11,22.11,0,0,0,4.51-.75,11.86,11.86,0,0,1,5.34-.25,19.87,19.87,0,0,1,2.78.93h0Zm-23.92.78-.4.07c-3.16.66-5.44,2.34-6.41,5.54a4.37,4.37,0,0,0-.16,2.26c0,.19.09.42.33.47s.36-.16.46-.33a5.79,5.79,0,0,0,.54-1.37,10.83,10.83,0,0,1,2.59-4.38A12.48,12.48,0,0,1,70.44,101.26Z" style="fill:#b10c35"/><path d="M94.36,100.48l-.08-.08Z" style="fill:#fefefe"/><path d="M70.44,101.26a12.48,12.48,0,0,0-3.05,2.26,10.83,10.83,0,0,0-2.59,4.38,5.79,5.79,0,0,1-.54,1.37c-.11.17-.22.38-.46.33s-.28-.28-.33-.47a4.37,4.37,0,0,1,.16-2.26c1-3.2,3.25-4.88,6.41-5.54Z" style="fill:#fefefe"/><path d="M91.73,86.64A22.67,22.67,0,0,0,92.9,81c.07-.74.2-1.19-.2-1.41s-.95.53-.95.53a8.36,8.36,0,0,1-2.5,5.06l1.1,1.88,1.3-.45" style="fill:#a3ba37"/></svg>