<?xml version="1.0" encoding="utf-8"?>
<!-- Generator: Adobe Illustrator 20.1.0, SVG Export Plug-In . SVG Version: 6.00 Build 0)  -->
<svg version="1.1" id="Layer_1" xmlns="http://www.w3.org/2000/svg" xmlns:xlink="http://www.w3.org/1999/xlink" x="0px" y="0px"
	 viewBox="0 0 26.1 22.7" style="enable-background:new 0 0 26.1 22.7;" xml:space="preserve">
<style type="text/css">
	.st0{fill:none;stroke:#000000;stroke-width:0.25;stroke-miterlimit:10;}
	.st1{fill:none;stroke:#000000;stroke-linecap:round;stroke-linejoin:round;stroke-miterlimit:10;}
	.st2{fill:none;stroke:#000000;stroke-width:0.75;stroke-linecap:round;stroke-linejoin:round;stroke-miterlimit:10;}
	.st3{fill:none;}
	.st4{clip-path:url(#SVGID_2_);}
	.st5{clip-path:url(#SVGID_4_);}
	.st6{clip-path:url(#SVGID_6_);}
	.st7{fill:#010002;stroke:#000000;stroke-width:0.7;stroke-miterlimit:10;}
	.st8{stroke:#231F20;stroke-width:0.1;stroke-miterlimit:10;}
	.st9{stroke:#231F20;stroke-width:0.25;stroke-miterlimit:10;}
	.st10{stroke:#000000;stroke-width:0.25;stroke-miterlimit:10;}
	.st11{fill:none;stroke:#000000;stroke-width:0.75;stroke-miterlimit:10;}
	.st12{clip-path:url(#SVGID_8_);}
	.st13{fill:none;stroke:#000000;stroke-width:0.5;stroke-miterlimit:10;}
</style>
<g>
	<g>
		<g>
			<path class="st8" d="M2.6,22.7c-0.1,0-0.2-0.1-0.2-0.1c0,0,0-0.1,0-0.3l0-4c0-2.4,0-4.8,0-7.3c0-0.3-0.1-0.5-0.4-0.6
				c-0.9-0.4-1.4-1.1-1.7-2c0-0.1-0.1-0.3-0.1-0.5c0-0.1,0-0.1,0-0.2V7.2c0,0,0.1-0.1,0.1-0.1l0.9-1.6C2,3.7,3,2,4,0.3
				c0.1-0.1,0.1-0.2,0.2-0.3h17.7c0,0,0,0,0,0c0.1,0.1,0.2,0.1,0.2,0.2c0.9,1.5,1.7,3,2.5,4.4c0.4,0.6,0.7,1.2,1,1.9l0.4,0.7v0.2
				c0,0,0,0.1,0,0.1c-0.1,1.3-0.8,2.2-1.9,2.8c-0.3,0.1-0.4,0.4-0.4,0.7c0,3.7,0,7.5,0,11.2v0c0,0.1,0,0.1,0,0.2
				c0,0.1,0,0.2-0.3,0.2l-20.7,0C2.7,22.7,2.7,22.7,2.6,22.7L2.6,22.7z M2.9,22.2h20.4V10.7l-0.4,0c0,0-0.1,0-0.1,0
				c-1.2,0-2.2-0.5-3-1.5l-0.3-0.5l-0.3,0.5c-0.7,1-1.7,1.5-2.8,1.5c-1.2,0-2.1-0.5-2.9-1.5l-0.3-0.5l-0.3,0.5
				c-0.7,0.9-1.7,1.5-2.9,1.5c-1.1,0-2.2-0.5-2.9-1.5L6.7,8.8L6.3,9.3c-0.7,1-1.7,1.5-3,1.5c0,0-0.1,0-0.1,0l-0.4,0V22.2z M19.8,7.8
				c0.2,1.2,1.3,2.4,2.9,2.4h0c1.6,0,2.7-1.2,2.9-2.4l0.1-0.5h-5.9L19.8,7.8z M7,7.8c0.2,1.2,1.3,2.4,2.9,2.4c0.1,0,0.2,0,0.3,0
				c1.3-0.1,2.5-1.3,2.6-2.4l0-0.4H6.9L7,7.8z M13.4,7.8c0.1,1.2,1.3,2.4,2.9,2.4c0,0,0.1,0,0.1,0c1.5-0.1,2.6-1.3,2.8-2.4l0.1-0.5
				h-5.9L13.4,7.8z M0.6,7.8c0,0.5,0.2,1,0.6,1.5c0.6,0.6,1.5,1,2.3,1l0,0c1.6,0,2.7-1.4,2.8-2.4l0-0.4H0.6L0.6,7.8z M4.8,0.5
				c-0.3,0-0.5,0.1-0.6,0.3C3.5,2.2,2.7,3.5,2,4.8L1.3,6c0,0,0,0.1-0.1,0.1L0.9,6.8h24.3l-0.3-0.6c0,0,0-0.1,0-0.1l-0.3-0.6
				c-0.9-1.5-1.8-3.1-2.7-4.7c-0.1-0.2-0.4-0.3-0.6-0.3c-3.5,0-7,0-10.5,0L4.8,0.5z"/>
		</g>
	</g>
	<g>
		<path class="st9" d="M16.6,12.7c-1-1-2.2-1.5-3.6-1.5c-1.3,0-2.6,0.5-3.6,1.5S8,14.9,8,16.2s0.5,2.6,1.5,3.6c1,1,2.2,1.5,3.6,1.5
			c1.3,0,2.6-0.5,3.6-1.5c1-1,1.5-2.2,1.5-3.6S17.6,13.6,16.6,12.7z M13.1,20.9c-1.3,0-2.5-0.5-3.3-1.4c0,0,0,0,0.1,0l0,0
			c0.3,0.1,0.5,0,0.7,0c0.1,0,0.3-0.1,0.5,0l0,0c0.2,0,0.3,0.1,0.4,0.2c0.1,0.1,0.3,0.2,0.6,0.2l0,0c0,0,0.1,0,0.1,0
			c0.3,0,0.4-0.1,0.5-0.1c0.1-0.1,0.2-0.1,0.5-0.1l0,0h0c0.2,0,0.3,0.1,0.4,0.1c0.1,0.1,0.3,0.2,0.6,0.1l0,0c0.3,0,0.5-0.1,0.6-0.2
			c0.1-0.1,0.2-0.1,0.4-0.2l0,0c0.2,0,0.3,0,0.5,0c0.2,0,0.3,0.1,0.6,0l0,0c0.1,0,0.1,0,0.2-0.1C15.6,20.4,14.4,20.9,13.1,20.9z
			 M16.7,19c-0.1,0.1-0.2,0.2-0.4,0.2c-0.2,0.1-0.4,0-0.5,0c-0.1,0-0.3-0.1-0.6,0c-0.3,0-0.4,0.1-0.6,0.2c-0.1,0.1-0.2,0.2-0.5,0.2
			c-0.2,0-0.3,0-0.5-0.1c-0.1-0.1-0.3-0.1-0.6-0.1c-0.3,0-0.5,0.1-0.6,0.1c-0.1,0.1-0.2,0.1-0.5,0.1c-0.2,0-0.3-0.1-0.4-0.2
			c-0.1-0.1-0.3-0.2-0.6-0.2c-0.3-0.1-0.5,0-0.6,0.1c-0.1,0-0.3,0.1-0.5,0c-0.2-0.1-0.3-0.2-0.4-0.3c-0.1-0.1-0.2-0.2-0.4-0.3
			c-0.4-0.7-0.7-1.6-0.7-2.5c0-2.6,2.1-4.7,4.7-4.7s4.7,2.1,4.7,4.7c0,0.9-0.3,1.8-0.7,2.5C16.9,18.8,16.8,18.9,16.7,19z"/>
		<path class="st9" d="M14.1,11.9L14,12.2c0.6,0.1,1.2,0.4,1.6,0.8l0.2-0.2C15.3,12.4,14.7,12.1,14.1,11.9z"/>
		<path class="st9" d="M17.1,16.6c0,0.3-0.1,0.7-0.2,1l0.3,0.1c0.1-0.3,0.2-0.7,0.2-1L17.1,16.6z"/>
		<path class="st9" d="M13.1,14.2c-1.1,0-2,0.9-2,2s0.9,2,2,2s2-0.9,2-2S14.2,14.2,13.1,14.2z M13.1,17.9c-0.9,0-1.7-0.8-1.7-1.7
			s0.8-1.7,1.7-1.7c0.9,0,1.7,0.8,1.7,1.7S14,17.9,13.1,17.9z"/>
		<polygon class="st9" points="14.4,13.4 14.1,13.4 14.1,13.7 14.3,13.7 14.4,13.7 		"/>
		<polygon class="st9" points="13.2,12.6 13.2,12.3 12.9,12.3 12.9,12.6 13,12.6 		"/>
		<polygon class="st9" points="15.8,13.6 16,13.6 16.1,13.6 16.1,13.3 15.8,13.3 		"/>
		<polygon class="st9" points="17.3,15.4 17.1,15.4 17,15.4 17,15.7 17.3,15.7 		"/>
		<polygon class="st9" points="15.4,17.4 15.5,17.4 15.7,17.4 15.7,17.1 15.4,17.1 		"/>
		<polygon class="st9" points="10.9,17.9 10.9,18.2 11.2,18.2 11.2,17.9 11.1,17.9 		"/>
		<polygon class="st9" points="9,17.6 9.1,17.6 9.3,17.6 9.3,17.3 9,17.3 		"/>
		<polygon class="st9" points="10.3,16.1 10.3,16.4 10.6,16.4 10.6,16.1 10.5,16.1 		"/>
		<polygon class="st9" points="9.6,14.5 9.6,14.8 9.9,14.8 9.9,14.5 9.8,14.5 		"/>
		<polygon class="st9" points="11.9,14.1 11.9,13.8 11.6,13.8 11.6,14.1 11.7,14.1 		"/>
		<polygon class="st9" points="11.2,12.7 11.2,12.4 10.9,12.4 10.9,12.7 11,12.7 		"/>
		<polygon class="st9" points="14.1,18.9 14.3,18.9 14.4,18.9 14.4,18.5 14.1,18.5 		"/>
		<polygon class="st9" points="15.4,15.2 15.4,15.5 15.7,15.5 15.7,15.2 15.5,15.2 		"/>
		<rect x="16.4" y="18.2" class="st9" width="0.3" height="0.3"/>
	</g>
</g>
</svg>
