<svg xmlns="http://www.w3.org/2000/svg" viewBox="0 0 250 250"><title>Grocery</title><path d="M71.88,124.54A7.66,7.66,0,0,1,74,125.81a5.05,5.05,0,0,1,1.9,4c-.06,2.63-.11,5.26,0,7.88.13,3.95-2.86,7.53-7.33,8.26a13.8,13.8,0,0,1-2.27.15c-7.24,0-14.48,0-21.72,0-3.57,0-6.47-1.41-8.25-4.65a6.8,6.8,0,0,1-.85-3.34q0-16.86,0-33.72c0-.8.19-1,1-1,10.33,0,20.67-.1,31,.07a8.28,8.28,0,0,1,8.42,8.3c-.07,2.36-.06,4.73,0,7.09.1,2.64-1.24,4.26-3.46,5.37Zm-22.73.4c0,3.88,0,7.77,0,11.65,0,.67.2.83.84.82,3,0,6,0,8.93,0a3,3,0,0,0,3.21-2.89,20.24,20.24,0,0,0,0-3.32A3.28,3.28,0,0,0,58.58,128c-1.14,0-2.28-.06-3.42,0a3.56,3.56,0,0,1-3.72-3.49c0-.82,0-1.64,0-2.45,0-.6.19-.74.75-.73,2.22,0,4.44,0,6.66,0a3,3,0,0,0,3.33-3.06,21.39,21.39,0,0,0,0-2.45,3.07,3.07,0,0,0-3.43-3.32c-2.92,0-5.84,0-8.76,0-.64,0-.84.14-.83.81C49.17,117.17,49.16,121.05,49.16,124.94Z" style="fill:#fd3402"/><path d="M212.52,124.88c0,4.15-.14,8.3,0,12.44.22,5-3.86,8.15-7.7,8.71a18.25,18.25,0,0,1-2.62.14c-6.66,0-13.31,0-20,0a8.9,8.9,0,0,1-7.75-4,7.09,7.09,0,0,1-1.19-4.06c0-8.82,0-17.63,0-26.45,0-3.74,2.73-6.86,6.69-7.85a11.57,11.57,0,0,1,2.85-.33c7.12,0,14.25-.14,21.37.06a8.28,8.28,0,0,1,8.29,8.15C212.47,116.06,212.52,120.47,212.52,124.88Zm-26-.36c0,3.07,0,6.13,0,9.2a3.11,3.11,0,0,0,3.1,3.33c2.25,0,4.5.05,6.74,0a2.75,2.75,0,0,0,2.62-1.86,5.19,5.19,0,0,0,.32-2.06q0-8.58,0-17.17a8.4,8.4,0,0,0-.06-1.14,3,3,0,0,0-3.2-2.83c-1.81,0-3.62,0-5.43,0H190a3.19,3.19,0,0,0-3.48,3.41C186.51,118.44,186.54,121.48,186.54,124.52Z" style="fill:#fd3402"/><path d="M142.42,121.28c0-5.61,0-11.21,0-16.82,0-.76.13-1.07,1-1,1.6.08,3.21,0,4.82,0,4.49.21,8.53,3.48,8.49,8.35-.05,6.69,0,13.37,0,20.06a7.17,7.17,0,0,0,.72,3.48,2.64,2.64,0,0,0,2.58,1.59c2.89-.06,5.78,0,8.67,0,.61,0,.8.17.79.78q0,3.85,0,7.71c0,.62-.17.78-.78.77-5.81,0-11.62.05-17.43,0a8.69,8.69,0,0,1-8.06-4.82,7.3,7.3,0,0,1-.75-3.47Q142.42,129.56,142.42,121.28Z" style="fill:#fd3402"/><path d="M98.77,128.33c0,5.61,0,11.21,0,16.81,0,.88-.25,1.07-1.07,1-2.33-.11-4.67.15-7-.16a8.43,8.43,0,0,1-7.3-6.69,6,6,0,0,1-.09-1.13q0-16.9,0-33.81c0-.8.22-1,1-.95,2,.05,4-.08,6,0a8.79,8.79,0,0,1,7.65,4.6,7.41,7.41,0,0,1,.86,3.71Q98.76,120.05,98.77,128.33Z" style="fill:#fd3402"/><path d="M125.43,118.3a12.76,12.76,0,0,0-4.46,1,37.56,37.56,0,0,0-12.32,8c-.2.19-.35.48-.77.5a29.48,29.48,0,0,1,1.57-4.62,23.61,23.61,0,0,1,4.78-7.48c3.84-3.88,8.39-4.9,13.58-3.43a28.88,28.88,0,0,1,7.36,3.4c.3.18.57.33.42.81a35.49,35.49,0,0,1-5.15,10.95c-4.19,5.64-10.24,7.53-16.89,5.24a26.76,26.76,0,0,1-2.51-1,.76.76,0,0,0-1.06.25,16.78,16.78,0,0,0-2.85,4.79c-.24.65-.57,1-1.29.81a1.28,1.28,0,0,1-.88-1.64,12,12,0,0,1,2.71-4.55,50.06,50.06,0,0,1,12.57-10.49,20.86,20.86,0,0,1,4.37-2C124.86,118.74,125.21,118.76,125.43,118.3Z" style="fill:#049840"/><path d="M213.74,145.74A1.76,1.76,0,1,1,215.5,144,1.76,1.76,0,0,1,213.74,145.74Zm0-3.22A1.46,1.46,0,1,0,215.2,144,1.46,1.46,0,0,0,213.74,142.52Z" style="fill:#fd3402"/><path d="M213.15,143.23a3.08,3.08,0,0,1,.47,0,.79.79,0,0,1,.5.12.39.39,0,0,1,.14.32.41.41,0,0,1-.27.38h0a.39.39,0,0,1,.21.29c0,.17.1.38.13.44H214a1.94,1.94,0,0,1-.11-.36c0-.19-.11-.25-.25-.25h-.11v.61h-.35Zm.35.67h.14c.17,0,.28-.09.28-.22s-.1-.21-.26-.22h-.16Z" style="fill:#fd3402"/></svg>