<svg xmlns="http://www.w3.org/2000/svg" viewBox="0 0 250 250"><title>Grocery</title><path d="M96.33,148.47a1.34,1.34,0,0,1-.57-1q-.38-3.14-.85-6.27c-.14-.93.46-.67.89-.58a48.77,48.77,0,0,0,6.36,1,29.23,29.23,0,0,0,9.68-.41c3-.78,4.36-2.53,4.19-5.12a18.8,18.8,0,0,0,0-3.89c-.29.53-.44.77-.55,1a8.86,8.86,0,0,1-7.15,5.54c-4.18.6-8.32.81-11.82-2.26a1.32,1.32,0,0,0-.45-.16,16.67,16.67,0,0,1-3-8.31,29.66,29.66,0,0,1,.81-11.93c1.43-4.52,4.47-7.1,9.24-7.57a20.61,20.61,0,0,1,7.47.54,6.43,6.43,0,0,1,3.9,2.72c.24,1.58,1.45,2.85,1.52,4.51a4.18,4.18,0,0,0,.08-2.7l.07-.79c.26-1.09-.2-2.27.35-3.33l1,0,.05.06.06-.06c3.93-.05,7.86-.12,11.79,0,0,0-.05.07,0,.09a.71.71,0,0,0,.12.1l.13.85c0,.32-.08.64-.08,1,0,6.62,0,13.23,0,19.85a41.5,41.5,0,0,1-.23,7.16c-.64,3.55-2.22,6.53-5.47,8.33a20.46,20.46,0,0,1-7,2.15c-4.94.73-9.85.28-14.78,0C100.09,148.91,98.25,148.26,96.33,148.47Zm11.95-19.14c1.61,1.47,5.21,1.31,6.34-.43a6.55,6.55,0,0,0,.44-6.35c-.27-1.5-1-2.15-2.65-2.52-2-.43-4.34.28-5,1.64a7.8,7.8,0,0,0,0,6.92C107.6,128.94,107.75,129.36,108.28,129.33Z" style="fill:#c11304"/><path d="M110.8,149.64c-2.29,0-4.56-.13-6.79-.27l-2-.12a20.17,20.17,0,0,1-2.24-.29,12.29,12.29,0,0,0-3.38-.26h-.1l-.08-.06a1.59,1.59,0,0,1-.67-1.16c-.25-2.08-.54-4.19-.85-6.26a.71.71,0,0,1,1-.89l.15,0a48.64,48.64,0,0,0,6.32,1,29,29,0,0,0,9.59-.41c2.82-.73,4.17-2.37,4-4.86l0-.45a19.57,19.57,0,0,0,.07-2.62c-.06.11-.11.2-.15.29a9.1,9.1,0,0,1-7.34,5.69c-4.07.58-8.36.88-12-2.32a.61.61,0,0,0-.19-.06l-.17,0-.08,0,0-.07a17,17,0,0,1-3.07-8.44,30,30,0,0,1,.82-12c1.48-4.67,4.66-7.27,9.45-7.75a20.73,20.73,0,0,1,7.56.54,6.7,6.7,0,0,1,4,2.82l0,.1a7.09,7.09,0,0,0,.71,2,11.86,11.86,0,0,1,.56,1.32,3.3,3.3,0,0,0-.16-1.35l0-.05.07-.85a5,5,0,0,0,.07-1.36,3.93,3.93,0,0,1,.31-2.07l.07-.13,1.53-.07v0h.45c3.63,0,7.38-.1,11.07,0l.4,0-.14.26,0,0,.15.94c0,.16,0,.26,0,.36a5.66,5.66,0,0,0,0,.64q0,3.31,0,6.61c0,4.41,0,8.82,0,13.23,0,.61,0,1.23,0,1.84a27.45,27.45,0,0,1-.25,5.36c-.72,4-2.55,6.82-5.59,8.5a20.36,20.36,0,0,1-7.12,2.18A40.72,40.72,0,0,1,110.8,149.64ZM97.1,148.18a16.5,16.5,0,0,1,2.73.3,19.59,19.59,0,0,0,2.18.28l2,.12a61.44,61.44,0,0,0,12.68-.13,19.9,19.9,0,0,0,7-2.13c2.9-1.61,4.65-4.27,5.34-8.15a27,27,0,0,0,.24-5.26c0-.62,0-1.24,0-1.86,0-4.41,0-8.82,0-13.23q0-3.31,0-6.61a6.2,6.2,0,0,1,.05-.7c0-.1,0-.19,0-.29l-.12-.69-.08-.08c-3.6-.13-7.27-.08-10.82,0h-.62l-.17.19-.16-.19-.7,0a3.77,3.77,0,0,0-.19,1.69,5.35,5.35,0,0,1-.08,1.46l-.06.71a4.42,4.42,0,0,1-.09,2.8l-.43,1.37-.05-1.43A6,6,0,0,0,115,114a7.76,7.76,0,0,1-.75-2.05,6.23,6.23,0,0,0-3.73-2.57,20.25,20.25,0,0,0-7.38-.53,9.86,9.86,0,0,0-9,7.4,29.53,29.53,0,0,0-.8,11.83,16.5,16.5,0,0,0,2.93,8.12h.05a.88.88,0,0,1,.41.17c3.49,3.07,7.65,2.77,11.62,2.2a8.63,8.63,0,0,0,7-5.4c.08-.17.17-.33.3-.56l.27-.48.37-.69.09.78a17,17,0,0,1,0,3.52l0,.42c.18,2.69-1.33,4.55-4.38,5.34a29.35,29.35,0,0,1-9.76.42,48.92,48.92,0,0,1-6.39-1l-.16,0c-.1,0-.37-.09-.41,0s-.06.07,0,.38c.31,2.08.6,4.19.85,6.27a1.08,1.08,0,0,0,.4.76C96.64,148.19,96.87,148.18,97.1,148.18Zm14.19-17.6a4.89,4.89,0,0,1-3.1-1c-.58,0-.79-.49-.94-.81l0-.08a8,8,0,0,1,0-7.13c.67-1.44,3.08-2.25,5.26-1.78,1.81.4,2.55,1.11,2.84,2.72a6.78,6.78,0,0,1-.48,6.53,3.81,3.81,0,0,1-2.77,1.5A6.07,6.07,0,0,1,111.29,130.58Zm-2.92-1.5.08.07A4.6,4.6,0,0,0,112,130a3.32,3.32,0,0,0,2.42-1.27,6.27,6.27,0,0,0,.42-6.12c-.27-1.46-.87-2-2.47-2.37-1.93-.42-4.13.28-4.7,1.5a7.56,7.56,0,0,0,0,6.7l0,.08c.18.38.27.55.57.52Z" style="fill:#6556cc"/><path d="M133.85,134.19a13.29,13.29,0,0,1-1.8-5.87,31.6,31.6,0,0,1,.6-11.59c1.35-4.93,4.48-7.62,9.56-8.14a18,18,0,0,1,8,.79,5.3,5.3,0,0,1,2.8,2,26,26,0,0,1,2.06,5.07c0-.92.42-1.85-.15-2.7l.17-.68c.32-1.17-.24-2.43.4-3.57l.88,0h0c4,0,8-.14,12,.06,0,0,0,.06,0,.07a.54.54,0,0,0,.09.09l.15.89c0,.65-.08,1.29-.08,1.94q0,11,0,22a22.39,22.39,0,0,1-.23,4c-.73,4-2.71,7.18-6.56,8.88a23.07,23.07,0,0,1-5.94,1.6c-4.9.74-9.77.25-14.65,0-1.94-.09-3.82-.71-5.77-.56-.63-.36-.6-1-.68-1.59-.25-1.76-.41-3.54-.72-5.29-.19-1.05.17-1.16,1.06-.95a42.71,42.71,0,0,0,12,1.14,12.85,12.85,0,0,0,5.41-1.17A4.32,4.32,0,0,0,155,136.1c.28-1.17,0-2.33.06-3.86-1.12,2-1.9,3.86-3.62,4.92-3.95,2.43-8.16,2.53-12.48,1.23-.78-.24-1.72-.2-2.29-1C135.81,136.27,134.63,135.41,133.85,134.19Zm13.42-4.86c1.59,1.46,5.21,1.31,6.32-.43a6.49,6.49,0,0,0,.44-6.34c-.24-1.47-.86-2.14-2.51-2.48-2.72-.57-5.16.18-5.8,3.47a8.71,8.71,0,0,0,.4,4.52C146.3,128.59,146.51,129.25,147.27,129.33Z" style="fill:#c11304"/><path d="M149.9,149.65c-2.11,0-4.2-.12-6.26-.23l-2.56-.13a21.45,21.45,0,0,1-2.38-.29,14.5,14.5,0,0,0-3.37-.27h-.08l-.07,0a1.74,1.74,0,0,1-.77-1.52c0-.08,0-.17,0-.25-.1-.67-.18-1.34-.26-2-.13-1.07-.27-2.19-.46-3.26a1.28,1.28,0,0,1,.17-1.15c.26-.25.67-.21,1.19-.09a42.55,42.55,0,0,0,12,1.13,12.45,12.45,0,0,0,5.31-1.14,4.06,4.06,0,0,0,2.44-4.28V136a7.26,7.26,0,0,0,.08-2.07c0-.24,0-.48,0-.73-.92,1.71-1.71,3.19-3.23,4.13-3.72,2.29-7.87,2.7-12.68,1.26-.19-.06-.39-.1-.6-.14a2.72,2.72,0,0,1-1.82-.92,14,14,0,0,0-1.25-1.39,11.47,11.47,0,0,1-1.58-1.85h0a13.4,13.4,0,0,1-1.83-6,32.21,32.21,0,0,1,.61-11.68c1.38-5.07,4.58-7.79,9.77-8.33a18.23,18.23,0,0,1,8.15.8,5.47,5.47,0,0,1,2.93,2.12l.06.12a33,33,0,0,1,1.69,3.85,1.94,1.94,0,0,0-.25-1.33l-.06-.09.19-.79a4.67,4.67,0,0,0,.08-1.45,3.86,3.86,0,0,1,.34-2.18l.07-.12,1-.06h0l2.93,0c3,0,6-.06,9.06.08l.45,0-.2.29,0,.06.15.89c0,.25,0,.45,0,.65,0,.44,0,.89,0,1.33q0,6.48,0,13v9.22a21.91,21.91,0,0,1-.24,3.89c-.8,4.46-3,7.43-6.71,9.06a23.17,23.17,0,0,1-6,1.61A39.35,39.35,0,0,1,149.9,149.65ZM136,148.2a17.89,17.89,0,0,1,2.83.3,20.85,20.85,0,0,0,2.32.28l2.57.13a58.93,58.93,0,0,0,12-.16,22.44,22.44,0,0,0,5.88-1.58c3.55-1.57,5.65-4.41,6.42-8.69a21.54,21.54,0,0,0,.23-3.8v-9.22q0-6.48,0-13c0-.45,0-.91.05-1.36q0-.3,0-.59l-.13-.75,0,0c-2.94-.14-5.92-.1-8.82-.07l-2.93,0-.72,0a3.68,3.68,0,0,0-.21,1.8,5.13,5.13,0,0,1-.1,1.59l-.14.57a3,3,0,0,1,.21,2.06c0,.23-.07.47-.08.7l-.08,1.69-.41-1.65a25.46,25.46,0,0,0-2-4.93l0-.09a5,5,0,0,0-2.66-1.9,17.73,17.73,0,0,0-7.93-.77c-5,.51-8,3.12-9.34,8a31.72,31.72,0,0,0-.59,11.5,12.91,12.91,0,0,0,1.76,5.76,11.07,11.07,0,0,0,1.51,1.77,14.27,14.27,0,0,1,1.3,1.45,2.27,2.27,0,0,0,1.52.73c.22,0,.43.09.64.15,4.67,1.4,8.68,1,12.28-1.2,1.41-.87,2.18-2.3,3.06-4l.47-.87.53-1-.06,1.09a15.24,15.24,0,0,0,0,1.69,7.86,7.86,0,0,1-.08,2.17,4.56,4.56,0,0,1-2.71,4.73A13.18,13.18,0,0,1,147,142a43.34,43.34,0,0,1-12.11-1.15c-.4-.1-.65-.11-.73,0s-.11.17,0,.7c.19,1.09.33,2.21.46,3.29.08.67.16,1.34.26,2,0,.09,0,.18,0,.27.05.46.09.85.46,1.1Zm14.31-17.62a4.83,4.83,0,0,1-3.11-1c-.83-.13-1.09-.88-1.27-1.39a9,9,0,0,1-.41-4.68,4.63,4.63,0,0,1,1.88-3.14,5.49,5.49,0,0,1,4.22-.53,2.9,2.9,0,0,1,2.7,2.66,6.74,6.74,0,0,1-.47,6.54,3.76,3.76,0,0,1-2.76,1.5A5.89,5.89,0,0,1,150.27,130.58ZM150,120.15a3.76,3.76,0,0,0-4,3.45,8.47,8.47,0,0,0,.39,4.39c.21.61.4,1,.94,1.09h.08l.06.06A4.55,4.55,0,0,0,151,130a3.28,3.28,0,0,0,2.4-1.27,6.27,6.27,0,0,0,.42-6.11l0-.06c-.23-1.41-.79-2-2.32-2.28A7.39,7.39,0,0,0,150,120.15Z" style="fill:#6556cc"/><path d="M50.33,113a9.22,9.22,0,0,1,6.11-4.21,18.82,18.82,0,0,1,8.52.42,8.93,8.93,0,0,1,4.59,3.41c0,.2.05.36.31.31l0,0c-.15.29,0,.56.1.81a22.47,22.47,0,0,1,1.55,7.18,42.7,42.7,0,0,1-1.07,14.32c-.91,3.2-2.62,5.77-6,6.93a15.32,15.32,0,0,1-6.81.75c-2.08-.24-4.24-.48-5.8-2.28-.41-.48-.68-1.17-1.35-1.41l-.31-.66A6.17,6.17,0,0,0,49,136.14c-.12,1.47-.13,2.92-.12,4.36s-.06,1.55-1.56,1.56l-11.64.08c-.9-.22-.57-1-.57-1.49q0-16.64,0-33.27c0-1.62,0-3.25,0-4.87,0-.67.17-.92.89-.92,4.14,0,8.29.06,12.43,0,1,0,.78.68,1,1.16-.27,4.39,0,8.78,0,13.21Zm6.21,10.82a1.45,1.45,0,0,0-.55-1.39,4.61,4.61,0,0,0-6,.48,4.76,4.76,0,0,0-.8,2.5c-.26,2-.37,4,1.31,5.49s4.9,1.48,5.78-.26A8.23,8.23,0,0,0,56.54,123.79Z" style="fill:#c11304"/><path d="M59.4,143.3a15.34,15.34,0,0,1-1.79-.11h-.09c-2.1-.25-4.27-.5-5.87-2.35a5.57,5.57,0,0,1-.35-.48,2,2,0,0,0-.89-.87l-.1,0L50,138.7a6.72,6.72,0,0,0-.8-1.88c-.08,1.27-.08,2.51-.07,3.68,0,.78,0,1.23-.29,1.51s-.74.29-1.53.3l-8.31.05-3.33,0c-1-.23-.9-1-.85-1.42a2.59,2.59,0,0,0,0-.32q0-13.77,0-27.53V106c0-1.14,0-2.31,0-3.47a1.2,1.2,0,0,1,.25-.9,1.14,1.14,0,0,1,.86-.27h0c4.05,0,8.25.06,12.42,0h0a1,1,0,0,1,1.09,1,1.49,1.49,0,0,0,.09.35l0,.06v.06c-.22,3.43-.12,6.93,0,10.32q0,.69,0,1.37l.52-1.59a9.42,9.42,0,0,1,6.27-4.32,19.14,19.14,0,0,1,8.63.43,9.05,9.05,0,0,1,4.72,3.49l0,.07v.08a.34.34,0,0,0,0,.11l.16,0,.18.22,0,.18c-.08.15,0,.28.07.5l0,.1a22.71,22.71,0,0,1,1.57,7.26,43.24,43.24,0,0,1-1.08,14.4c-1.05,3.71-3.07,6-6.17,7.1A15.77,15.77,0,0,1,59.4,143.3Zm-8.73-4.24a2.58,2.58,0,0,1,1,1,4.92,4.92,0,0,0,.32.44c1.47,1.7,3.54,1.95,5.55,2.18h.09a15.14,15.14,0,0,0,6.7-.74c3-1,4.84-3.17,5.85-6.76A42.8,42.8,0,0,0,71.29,121a22.19,22.19,0,0,0-1.53-7.1l0-.09a1.28,1.28,0,0,1-.14-.64l-.1-.06a.53.53,0,0,1-.17-.38,8.54,8.54,0,0,0-4.42-3.26,18.64,18.64,0,0,0-8.41-.42,8.94,8.94,0,0,0-5.92,4.08l-1.38,4.36,0-1.51c0-1,0-1.91-.07-2.87-.09-3.38-.19-6.87,0-10.3a2.16,2.16,0,0,1-.1-.41c-.07-.38-.11-.54-.63-.54-4.18.08-8.38.05-12.44,0a.67.67,0,0,0-.53.12.78.78,0,0,0-.11.54c0,1.16,0,2.34,0,3.48v7.14q0,13.77,0,27.53a3.45,3.45,0,0,1,0,.39c-.06.5-.07.75.41.86l3.27,0,8.31-.05c.62,0,1,0,1.17-.15s.14-.54.14-1.15c0-1.38,0-2.86.12-4.38l0-.59.39.45a6.4,6.4,0,0,1,1.28,2.55Zm2.8-6.84A4.69,4.69,0,0,1,50.31,131c-1.77-1.61-1.65-3.7-1.38-5.71l0-.16a4.71,4.71,0,0,1,.83-2.47,4.46,4.46,0,0,1,3.12-1.46,4.39,4.39,0,0,1,3.26.95,1.7,1.7,0,0,1,.63,1.55,8.42,8.42,0,0,1-.31,7,2.9,2.9,0,0,1-2.19,1.43A4.8,4.8,0,0,1,53.48,132.22Zm-.15-10.48h-.39A4,4,0,0,0,50.17,123a4.26,4.26,0,0,0-.73,2.22l0,.16c-.26,2-.37,3.82,1.23,5.27a4.32,4.32,0,0,0,3.56,1A2.42,2.42,0,0,0,56,130.49a8,8,0,0,0,.26-6.62l0-.06v-.07a1.2,1.2,0,0,0-.47-1.17A3.72,3.72,0,0,0,53.33,121.75Z" style="fill:#6556cc"/><path d="M185.35,142.17c-.5-.07-.61-.39-.61-.86,0-2.35,0-4.7,0-7.05,0-.8.37-.83,1-.79,3.31.25,6.63.51,10,.47a18,18,0,0,0,3.26-.29c.76-.15,1.66-.4,1.39-1.56.28-1.11-.31-1.62-1.29-1.7-1.53-.13-3.06-.2-4.59-.23-3.06,0-6.05-.29-8.57-2.32a1.58,1.58,0,0,0-.56-.16h0c0-.19,0-.36-.23-.43-1.93-3.52-2-7.32-1.4-11.12s2.95-6.11,6.69-7a36.55,36.55,0,0,1,9.07-.68,117,117,0,0,1,13.08,1c.74.1,1,.4.95,1.07,0,.44-.08.89-.08,1.33,0,2.19,0,4.38,0,6.58,0,.57.06,1.16-.89,1-3.87-.63-7.77-.33-11.66-.36a4.84,4.84,0,0,0-2.1.52c-.78.36-.8,1.08-.71,1.78s.18,1.34,1.11,1.29A3.35,3.35,0,0,0,201,123c2.39.07,4.78-.09,7.18.16a7.73,7.73,0,0,1,6,3.22c0,.14.07.2.2.19l0,0a24.21,24.21,0,0,1,.45,7.69,9,9,0,0,1-3.21,6.05c-2,1.58-4.29,2-6.67,2.34a51.55,51.55,0,0,1-10.56.16C191.38,142.68,188.37,142.41,185.35,142.17Z" style="fill:#c11304"/><path d="M199.42,143.32c-1.77,0-3.47-.09-5-.19-2.11-.14-4.25-.32-6.32-.49l-2.74-.22h0a1,1,0,0,1-.82-1.11v-.2c0-2.25,0-4.57,0-6.85a1.06,1.06,0,0,1,.26-.84,1.23,1.23,0,0,1,1-.2l.44,0c3.11.23,6.33.47,9.5.44a17.63,17.63,0,0,0,3.22-.29,1.72,1.72,0,0,0,1.13-.52.94.94,0,0,0,.07-.74V132a1.14,1.14,0,0,0-.08-1,1.35,1.35,0,0,0-1-.43c-1.48-.13-3-.2-4.58-.23-3,0-6.1-.26-8.72-2.38a.45.45,0,0,0-.17-.06v.09l-.34-.17.08-.23H185c0-.16,0-.16-.06-.18l-.09,0,0-.09c-1.7-3.1-2.14-6.58-1.43-11.28.58-3.79,3-6.27,6.88-7.17a37.22,37.22,0,0,1,9.13-.68,117.83,117.83,0,0,1,13.11,1c.86.12,1.2.51,1.17,1.33l0,.41c0,.3,0,.6,0,.91q0,1.57,0,3.13c0,1.15,0,2.3,0,3.45v.11a1.22,1.22,0,0,1-.28,1,1.08,1.08,0,0,1-.9.15,48.94,48.94,0,0,0-8.51-.38c-1,0-2.08,0-3.12,0h0a4.57,4.57,0,0,0-2,.5c-.52.24-.68.67-.56,1.52s.21,1.13.85,1.07h.08l.07,0a2.38,2.38,0,0,0,1.38.27H201c.87,0,1.76,0,2.62,0a43.19,43.19,0,0,1,4.58.14,7.9,7.9,0,0,1,6.17,3.32l0,.08h0l.21.2v.07a24.22,24.22,0,0,1,.44,7.74,9.15,9.15,0,0,1-3.3,6.21c-2,1.62-4.36,2.05-6.79,2.39A40.85,40.85,0,0,1,199.42,143.32Zm-14-1.4,2.73.22c2.07.17,4.21.35,6.31.49a51.72,51.72,0,0,0,10.5-.16c2.36-.33,4.64-.75,6.55-2.28a8.68,8.68,0,0,0,3.12-5.89,23.5,23.5,0,0,0-.42-7.47.39.39,0,0,1-.15-.09.39.39,0,0,1-.11-.24,7.45,7.45,0,0,0-5.77-3,42.61,42.61,0,0,0-4.52-.14c-.86,0-1.75,0-2.63,0h-.37A2.87,2.87,0,0,1,199,123c-1.11,0-1.21-.89-1.29-1.51a1.72,1.72,0,0,1,.85-2,5.1,5.1,0,0,1,2.18-.54h0c1,0,2.07,0,3.1,0a49.46,49.46,0,0,1,8.59.39.68.68,0,0,0,.5,0c.11-.09.11-.35.1-.61v-.11c0-1.15,0-2.3,0-3.44s0-2.09,0-3.13c0-.31,0-.63,0-.94l0-.4c0-.48-.08-.71-.73-.8a117,117,0,0,0-13.05-1,36.59,36.59,0,0,0-9,.67c-3.76.86-5.95,3.14-6.5,6.76-.69,4.54-.28,7.91,1.33,10.89a.54.54,0,0,1,.3.42,1,1,0,0,1,.47.17c2.5,2,5.53,2.22,8.42,2.27,1.57,0,3.12.1,4.61.23a1.75,1.75,0,0,1,1.35.64,1.58,1.58,0,0,1,.18,1.32,1.4,1.4,0,0,1-.15,1.07,2.11,2.11,0,0,1-1.45.74,18,18,0,0,1-3.31.3c-3.2,0-6.42-.21-9.54-.44l-.44,0c-.24,0-.5,0-.59.07a.67.67,0,0,0-.1.47c0,2.29,0,4.62,0,6.86v.2C185,141.78,185.1,141.88,185.38,141.92Z" style="fill:#6556cc"/><path d="M76.07,142.12c-.73,0-.65-.53-.65-1,0-3.45,0-6.89,0-10.34,0-6.57,0-13.14,0-19.71,0-1,.32-1.19,1.24-1.15q5.9.23,11.8,0c.91,0,1.37.16,1.32,1.12a8.14,8.14,0,0,0-.22,2c0,9.21,0,18.41,0,27.62,0,1.14-.36,1.43-1.45,1.42C84.1,142,80.08,142.1,76.07,142.12Z" style="fill:#c11304"/><path d="M76.07,142.37h0c-.91,0-.9-.71-.9-1.16v-.12q0-3.1,0-6.2v-4.14q0-2.66,0-5.33c0-4.71,0-9.59,0-14.38a1.46,1.46,0,0,1,.32-1.13,1.56,1.56,0,0,1,1.18-.28c3.87.15,7.83.15,11.78,0a1.69,1.69,0,0,1,1.29.33A1.33,1.33,0,0,1,90,111a8,8,0,0,0-.21,2q0,4.38,0,8.76c0,6.18,0,12.57,0,18.85a1.73,1.73,0,0,1-.37,1.3,1.85,1.85,0,0,1-1.33.36c-2.89,0-5.84,0-8.69,0l-3.34,0Zm.36-32.24a.89.89,0,0,0-.62.14c-.12.11-.17.36-.17.76,0,4.79,0,9.67,0,14.38q0,2.66,0,5.33v4.14q0,3.1,0,6.21v.13c0,.5,0,.64.41.66l3.34,0c2.85,0,5.8,0,8.7,0,.54,0,.81-.06,1-.22a1.35,1.35,0,0,0,.23-.95c0-6.29,0-12.67,0-18.85q0-4.38,0-8.76a8.25,8.25,0,0,1,.22-2.11.85.85,0,0,0-.16-.63c-.14-.14-.42-.19-.91-.18-4,.15-7.94.15-11.82,0Z" style="fill:#6556cc"/><path d="M171.46,120c-.66,0-.83-.29-.68-1q1.6-7.35,3.08-14.73c.16-.78.56-.92,1.26-.92,3.2,0,6.4.06,9.6,0,1,0,1.16.32.94,1.14a1.75,1.75,0,0,0-.57.91c-1.83,4.45-3.7,8.89-5.48,13.37a1.57,1.57,0,0,1-1.7,1.18C175.75,119.89,173.61,119.94,171.46,120Z" style="fill:#c11304"/><path d="M171.45,120.22h0a1.06,1.06,0,0,1-.82-.33,1.2,1.2,0,0,1-.09-1c1-4.44,2-9.25,3.08-14.72.19-.94.71-1.13,1.51-1.12h.34c3,0,6.17.06,9.25,0,.58,0,.92.09,1.12.34a1.26,1.26,0,0,1,.07,1.11l0,.09-.08.05a1.29,1.29,0,0,0-.43.66l-.05.13-1.62,3.92c-1.28,3.09-2.6,6.29-3.86,9.45a1.81,1.81,0,0,1-1.92,1.33,4.53,4.53,0,0,0-.51,0c-1.36,0-2.74,0-4.07,0Zm3.62-16.65c-.61,0-.85.12-1,.72C173,109.76,172,114.58,171,119c-.06.29-.06.48,0,.56s.2.12.44.13l1.86,0c1.5,0,3.05-.05,4.58,0h0a1.32,1.32,0,0,0,1.45-1c1.26-3.16,2.58-6.36,3.86-9.45l1.62-3.92,0-.12a1.85,1.85,0,0,1,.53-.84c.07-.3.07-.5,0-.59s-.23-.17-.71-.15c-3.09.07-6.23,0-9.27,0h-.38Z" style="fill:#6556cc"/><path d="M76.2,107.2c-1-1.53-.87-3.23-.63-4.91a1.93,1.93,0,0,1,2.1-1.65c3.27-.05,6.54,0,9.81,0a2.14,2.14,0,0,1,2.06,1.43c0,1.13-.07,2.27,0,3.4a1.55,1.55,0,0,1-1.22,1.7,4.9,4.9,0,0,1-1.67.26C83.15,107.36,79.67,107.61,76.2,107.2Z" style="fill:#c11304"/><path d="M81.26,107.69a43.31,43.31,0,0,1-5.09-.24h-.11l-.06-.09c-1.07-1.57-.93-3.3-.67-5.08a2.17,2.17,0,0,1,2.34-1.87c3,0,6.2,0,9.82,0A2.38,2.38,0,0,1,89.78,102l0,0v0c0,.34,0,.68,0,1,0,.78,0,1.58,0,2.37a1.79,1.79,0,0,1-1.4,1.95,5,5,0,0,1-1.75.27c-1.12,0-2.27,0-3.37,0ZM76.35,107a55.35,55.35,0,0,0,6.9.21c1.11,0,2.26,0,3.39,0a4.73,4.73,0,0,0,1.58-.24,1.3,1.3,0,0,0,1.05-1.46c0-.8,0-1.61,0-2.4,0-.32,0-.64,0-1a1.87,1.87,0,0,0-1.81-1.23c-3.62,0-6.83,0-9.81,0a1.73,1.73,0,0,0-1.85,1.44C75.57,104,75.45,105.56,76.35,107Z" style="fill:#6556cc"/><path d="M155.53,109.51c-.64,1.13-.08,2.4-.4,3.57,0-1,0-2,0-3C155.1,109.84,155,109.4,155.53,109.51Z" style="fill:#437107"/><path d="M154.92,114.83l0-2.51c0-.74,0-1.47,0-2.21,0,0,0-.08,0-.12a.72.72,0,0,1,.17-.62.64.64,0,0,1,.57-.1l.34.06-.17.3a3.44,3.44,0,0,0-.27,1.92,5.13,5.13,0,0,1-.1,1.59Z" style="fill:#6556cc"/><path d="M116.5,109.52c-.56,1.07-.09,2.24-.35,3.33,0-.93,0-1.86,0-2.78C116.11,109.83,116,109.44,116.5,109.52Z" style="fill:#437107"/><path d="M115.92,114.84l0-2.72c0-.69,0-1.37,0-2.05,0,0,0-.07,0-.1a.67.67,0,0,1,.16-.58.6.6,0,0,1,.53-.11l.34.06-.16.31a3.49,3.49,0,0,0-.25,1.82,5.35,5.35,0,0,1-.08,1.46Z" style="fill:#6556cc"/><path d="M129.45,109.7a.71.71,0,0,1-.12-.1s0-.06,0-.09A.14.14,0,0,1,129.45,109.7Z" style="fill:#437107"/><path d="M129.57,110.12l-.27-.23.16-.19-.19.17a.68.68,0,0,1-.13-.13.29.29,0,0,1,0-.34l.12-.19.22.06a.38.38,0,0,1,.21.5Zm-.35-.5a.13.13,0,0,0,.06.12l0-.09.14.05-.23-.09Z" style="fill:#6556cc"/><polygon points="117.58 109.47 117.53 109.54 117.47 109.47 117.53 109.44 117.58 109.47" style="fill:#437107"/><path d="M117.52,109.91l-.19-.21a.29.29,0,0,1-.09-.33l.05-.07.1-.07.14-.09.43.29Z" style="fill:#6556cc"/><path d="M185.05,127.25c.21.07.25.24.23.43A.42.42,0,0,1,185.05,127.25Z" style="fill:#437107"/><path d="M185.51,128.08l-.34-.17a.67.67,0,0,1-.37-.67l0-.33.31.1a.6.6,0,0,1,.4.69Z" style="fill:#6556cc"/><path d="M168.42,109.68a.54.54,0,0,1-.09-.09s0,0,0-.07A.1.1,0,0,1,168.42,109.68Z" style="fill:#437107"/><path d="M168.5,110.09l-.25-.23.17-.18-.19.17a.52.52,0,0,1-.11-.12l-.1-.15.27-.36.2.08a.35.35,0,0,1,.15.48Zm-.3-.52a.15.15,0,0,0,.06.17l.06-.11Zm.28,0,.11.07a.31.31,0,0,0,0-.2Z" style="fill:#6556cc"/><path d="M69.85,112.9c-.25,0-.3-.11-.31-.31Z" style="fill:#437107"/><path d="M69.77,113.16a.46.46,0,0,1-.3-.1.6.6,0,0,1-.18-.47V112l1.08,1.11-.47.08Z" style="fill:#6556cc"/><path d="M214.37,126.61c-.13,0-.21,0-.2-.19Z" style="fill:#437107"/><path d="M214.35,126.86a.41.41,0,0,1-.43-.46l0-.53,1,1-.58,0Zm0-.43h.07a.13.13,0,0,0-.08-.08Z" style="fill:#6556cc"/><path d="M156.4,109.46h0Z" style="fill:#437107"/><path d="M156.4,109.71v-.25h0v-.25h.28v.5Zm0-.25,0,0v0Z" style="fill:#6556cc"/></svg>