<svg xmlns="http://www.w3.org/2000/svg" viewBox="0 0 250 250"><defs><style>.a{fill:#45280d;}.b{fill:#703819;}.c{fill:#f15926;}</style></defs><title>Midscale</title><path class="a" d="M186.3,163.09a11.37,11.37,0,0,1-2.75-2.39,12.16,12.16,0,0,1-1.08-1.53q-.25-.42-.47-.85l-.21-.44c-.11-.23-.31-.21-.54-.27a14.21,14.21,0,0,1-6.64-3.84,15.64,15.64,0,0,1-3.53-14.94,14.54,14.54,0,0,1,10.69-10.1,15.94,15.94,0,0,1,14.67,3.73,15.34,15.34,0,0,1,4,14.55,14.4,14.4,0,0,1-10.3,10.64,6.8,6.8,0,0,0,5.15,4.08,10.47,10.47,0,0,0,1.84.15l1,0a3.74,3.74,0,0,1,.86,0c.71.13.5,1.22.5,1.73a.66.66,0,0,1-.47.72c-.67.16-1.34.31-2,.42a20.94,20.94,0,0,1-3.6.34,13.38,13.38,0,0,1-7-1.93M179,143.22a22.56,22.56,0,0,0,1,7.5c.72,2.05,2,4.05,4.27,4.55a6.13,6.13,0,0,0,3.27-.17,4.65,4.65,0,0,0,1.28-.69,9.81,9.81,0,0,0,1.06-1.09,13.54,13.54,0,0,0,2.23-6.83,34.69,34.69,0,0,0-.12-7.5,12.83,12.83,0,0,0-1.5-5.07,5.57,5.57,0,0,0-4.63-2.9,5.71,5.71,0,0,0-5.31,3.45c-1.37,2.64-1.58,5.83-1.58,8.75M89.17,156.87a3.77,3.77,0,0,1-1.08-1.69c-1.93,1.59-4.54,3.17-7.14,2.47a4.38,4.38,0,0,1-3-5.24A7.28,7.28,0,0,1,81.45,148a48.22,48.22,0,0,1,6.09-3.21c.14-.06.32-.08.32-.24v-1c0-.44,0-.88,0-1.32a4.55,4.55,0,0,0-.17-1.54c-.49-1.17-2.19-1.17-3.18-.76-.2.08-.75.31-.69.6s.58.79.81,1.14a2.82,2.82,0,0,1,0,3.18,3.34,3.34,0,0,1-2.95,1.38,3.69,3.69,0,0,1-3-1.57,3.47,3.47,0,0,1-.17-3.27c1-2.35,3.42-3.59,5.76-4.15s5.25-.67,7.41.62a5.58,5.58,0,0,1,2.84,3.87,30,30,0,0,1,.14,3.91c0,2.24,0,4.48,0,6.72,0,.16-.13,1.59.21,1.66s.5-.52.72-.66c.41-.27.76.07,1.06.32s.62.5.45.93a5.68,5.68,0,0,1-1.26,1.6,5.32,5.32,0,0,1-3.19,1.59,4.64,4.64,0,0,1-3.54-.9m-4.56-5.25a1.49,1.49,0,0,0,1.59,1.55,2.45,2.45,0,0,0,1.13-.49c.1-.07.53-.32.53-.44v-4.77a10.2,10.2,0,0,0-2.57,2.32,3.14,3.14,0,0,0-.68,1.83m44.15,5.94c-.46,0-.61-.4-.61-.78s-.07-.76.18-1,1.13-.18,1.58-.22a4.67,4.67,0,0,0,1-.17c1.36-.42,1.12-2.14,1.12-3.25V138.34c0-1.78.07-3.58,0-5.35a2.6,2.6,0,0,0-.3-1.4,2.47,2.47,0,0,0-1.89-.7c-.46,0-1.27.14-1.57-.3a1.86,1.86,0,0,1-.11-1,.68.68,0,0,1,.77-.72h13a22,22,0,0,1,6.2.62,7.66,7.66,0,0,1,4.89,4.4,6.11,6.11,0,0,1-.18,5.2,7.6,7.6,0,0,1-4.26,3.3c2.13.66,4.19,1.67,5.34,3.68a7,7,0,0,1,.16,6.4c-2,4.15-7.29,5.07-11.44,5.07H128.76m11.18-3.1c.55.55,1.6.4,2.28.28a5.16,5.16,0,0,0,2.27-1,5.43,5.43,0,0,0,1.76-4.63,5.2,5.2,0,0,0-2.07-4.17,9,9,0,0,0-4.58-.88q0,2.9,0,5.81v2.28c0,.72-.18,1.77.37,2.33m-.33-13.15a7.38,7.38,0,0,0,4.16-1,4.53,4.53,0,0,0,1.75-3.89,4.47,4.47,0,0,0-1.7-3.85,7.35,7.35,0,0,0-4.17-.95q0,4.85,0,9.7M98.92,157.55c-.46,0-.61-.4-.61-.78s-.07-.74.16-1c.42-.46,1.44-.07,1.68-.8a9.71,9.71,0,0,0,.23-3.07V144c0-.83,0-1.66,0-2.48a2.93,2.93,0,0,0-.34-1.75c-.46-.58-1.73-.08-1.73-1.06,0-.53-.1-1.31.66-1.31h7.47a.65.65,0,0,1,.73.62v2.3c1.4-1.88,3.54-3.92,6.12-3.44,2.37.45,3,3.48,1.89,5.36a2.8,2.8,0,0,1-2.92,1.31,5.52,5.52,0,0,1-2.42-1.48c-.21-.16-.6,0-.78.16a3.12,3.12,0,0,0-1,1.22,10.09,10.09,0,0,0-.83,3.8c-.08,1.42,0,2.87,0,4.3v1.33a5.71,5.71,0,0,0,.09,1.92,1,1,0,0,0,.67.58c.44.13,1.11,0,1.48.27s.39,1.72-.24,1.85a3.53,3.53,0,0,1-.68,0H98.92m-49.21,0c-.46,0-.61-.4-.61-.78s-.07-.76.18-1,1.13-.18,1.58-.22a4.67,4.67,0,0,0,1-.17c1.36-.42,1.12-2.14,1.12-3.25V138.34c0-1.78.07-3.58,0-5.35a2.6,2.6,0,0,0-.3-1.4,2.47,2.47,0,0,0-1.89-.7c-.46,0-1.27.14-1.57-.3a1.86,1.86,0,0,1-.11-1,.68.68,0,0,1,.77-.72h13a22,22,0,0,1,6.2.62,7.66,7.66,0,0,1,4.89,4.4,6.11,6.11,0,0,1-.18,5.2,7.6,7.6,0,0,1-4.26,3.3c2.13.66,4.19,1.67,5.34,3.68a7,7,0,0,1,.16,6.4c-2,4.15-7.29,5.07-11.44,5.07H49.71m11.18-3.1c.55.55,1.6.4,2.28.28a5.16,5.16,0,0,0,2.27-1,5.43,5.43,0,0,0,1.76-4.63,5.2,5.2,0,0,0-2.07-4.17,9,9,0,0,0-4.58-.88q0,2.9,0,5.81v2.28c0,.72-.18,1.77.37,2.33m-.33-13.15a7.38,7.38,0,0,0,4.16-1,4.53,4.53,0,0,0,1.75-3.89,4.47,4.47,0,0,0-1.7-3.85,7.35,7.35,0,0,0-4.17-.95q0,4.85,0,9.7m96.08,8.78c-.7,0-.61-.77-.61-1.24v-3.58c0-.47.39-.64.79-.64h11.64c.52,0,.66.42.66.85v3.76c0,.43-.14.85-.66.85H156.65m-41.45,0c-.7,0-.61-.77-.61-1.24v-3.58c0-.47.39-.64.79-.64H127c.52,0,.66.42.66.85v3.76c0,.43-.14.85-.66.85H115.2m22.66-26.25c-1.42-1.66-1.56-3.91-1.28-6A18.05,18.05,0,0,1,139,111.2c2.29-3.94,5.46-7.19,8.28-10.73a43,43,0,0,0-4.55,4c-1.85,1.8-3.64,3.66-5.37,5.57-3.47,3.81-6.63,7.85-9.84,11.88a9.43,9.43,0,0,1-2,2.09c-1,.68-2,.11-2.5-.89a9,9,0,0,1-.88-3.94,5.72,5.72,0,0,1,1-3.09c1.2-2,2.64-3.79,4-5.65s2.79-3.84,4.06-5.84c.92-1.45,1.81-2.92,2.65-4.42.63-1.12,1.62-2.56,1.46-3.9A7.14,7.14,0,0,0,133,97.94c-.8.72-1.55,1.48-2.28,2.27-1.69,1.81-3.26,3.74-4.79,5.69a149.81,149.81,0,0,0-9.5,13.6c-.54.87-1.08,1.75-1.67,2.58a2.32,2.32,0,0,1-2.51,1.23c-1.12-.37-1.65-1.77-2-2.77a6.83,6.83,0,0,1-.65-3.23,3.63,3.63,0,0,1,.85-1.56l1.33-1.79q1.15-1.55,2.27-3.12c1.5-2.09,3-4.2,4.33-6.37a54.22,54.22,0,0,0,3.74-6.6,9.25,9.25,0,0,0,1-3.09c0-.37,0-.72-.42-.72a2,2,0,0,0-.57.11,14.32,14.32,0,0,0-2.68,1.25c-1,.57-2.07,1.16-3.1,1.77-2.14,1.26-4.25,2.57-6.44,3.74-1.21.64-4.55,2.27-4.71-.32a6.79,6.79,0,0,1,.14-1.45,26.14,26.14,0,0,1,.72-3.44c.56-1.88,2.18-3.07,3.69-4.21A11.9,11.9,0,0,1,112,89.91c.92-.38,1.44.74.84,1.4a51.89,51.89,0,0,1,7.4-3.36,18.46,18.46,0,0,1,2.92-.84,2.46,2.46,0,0,1,2.32.5,8.25,8.25,0,0,1,1.82,3.3,5.36,5.36,0,0,1,.42,2.26,12.79,12.79,0,0,1-1,3.65c-.49,1.23-1,2.43-1.61,3.62l-.65,1.36c3.49-4.2,7-8.39,11.58-11.46a14.65,14.65,0,0,1,2.85-1.61,2.24,2.24,0,0,1,1.81,0,4,4,0,0,1,1.87,4.7A31.18,31.18,0,0,1,140,98.91c-1.18,2.19-2.44,4.33-3.69,6.48,1.89-2,3.79-4,5.71-5.93a45.39,45.39,0,0,1,4.63-4.34c1.38-1.06,2.69-2.21,4-3.36.45-.4.9-.8,1.36-1.19.81-.68,1.92-1.62,3.06-1.47s1.7,1.25,2.19,2a5.86,5.86,0,0,1,1,2.07,3.05,3.05,0,0,1-1,2.24c-.72.83-1.47,1.64-2.22,2.44a56.4,56.4,0,0,0-9.64,13.53,27.18,27.18,0,0,0-1.44,3.52,9.67,9.67,0,0,0-.57,2.94c0,.79.13,1.57,1,1.62a5.84,5.84,0,0,0,3.43-1.39c1.15-.76,2.34-1.48,3.47-2.27l1.4-1,.64-.46a9.93,9.93,0,0,1,.26-1.15,12.11,12.11,0,0,1,1.42-2.88,24.27,24.27,0,0,1,2.3-3.18c1.45-1.7,3.59-3.65,6-3.16a1.81,1.81,0,0,1,1.52,2,7.41,7.41,0,0,1-1.23,3,12.32,12.32,0,0,1-1.91,2.6c-.84.8-1.68,1.61-2.48,2.46a2.89,2.89,0,0,0-1.06,2.6c.29,1.17,1.72,1.37,2.71,1.14a8.82,8.82,0,0,0,3-1.64c.51-.37,1-.76,1.5-1.15.15-.12.27-.16.29-.36s0-.28.05-.42q.07-.51.17-1a34.94,34.94,0,0,1,2.69-7.92,53.43,53.43,0,0,1,4.25-7.56A27.51,27.51,0,0,1,178,91.76a6.39,6.39,0,0,1,2.65-1.54c1.09-.2,1.66.62,1.78,1.58A14.66,14.66,0,0,1,181,99.27a49,49,0,0,1-9.57,13.83l-.36.39q0,.24-.09.49c0,.27-.08.55-.11.83a5.66,5.66,0,0,0,.1,1.76c.23,1,.88,2,2,2a2.61,2.61,0,0,0,1.44-.65,17.08,17.08,0,0,0,1.42-1.18l1-1,.67-.61c.23-.21.73-.52.77-.83a29.94,29.94,0,0,1,2.3-7.76,53,53,0,0,1,4-7.64,34.06,34.06,0,0,1,4.91-6.32c.93-.91,4.13-3.87,5.17-1.65a6.38,6.38,0,0,1,.21,3.18A16.36,16.36,0,0,1,194,98a35.46,35.46,0,0,1-3.79,7.25,57.76,57.76,0,0,1-5.21,6.68q-.7.78-1.43,1.55a11,11,0,0,0-.22,1.75,3.79,3.79,0,0,0,1,2.91c1,.85,2,.24,2.89-.4s1.55-1.33,2.3-2l1.37-1.26a1.51,1.51,0,0,0,.42-.86,10.42,10.42,0,0,1,.37-1,12.36,12.36,0,0,1,1.86-3,21.7,21.7,0,0,1,6.19-5.29c1.93-1.06,5-2.25,7-.91s.92,4.66-.35,6.26a18.45,18.45,0,0,1-5.94,4.49c-.81.43-1.63.83-2.46,1.2l-1.27.55c-.21.09-.17.12-.16.32a4.66,4.66,0,0,0,.05.73,2.33,2.33,0,0,0,1,1.7,3.29,3.29,0,0,0,2.44.1,13,13,0,0,0,4.58-2.57c.71-.55,1.4-1.12,2.08-1.7a11.15,11.15,0,0,0,1.81-2.24c-2.9-1.53-.4-5.42,1-7.12a7.64,7.64,0,0,1,3.3-2.68,1.31,1.31,0,0,1,1.68.5,1.86,1.86,0,0,1-.2,1.57,45.28,45.28,0,0,1,5.78-.67,1.94,1.94,0,0,1,2.06,1.22,4,4,0,0,1,.06,3.68,19.3,19.3,0,0,1-2.15,2.46,15.53,15.53,0,0,0-2.3,3.28,4.92,4.92,0,0,0-.75,2.17c0,.74,1,.66,1.51.5a10.17,10.17,0,0,0,2.77-1.55c.51-.36,1-.74,1.49-1.12s1.18-1,1.5-.19a2,2,0,0,1,0,.69V116a1,1,0,0,1-.29.8l-1.5,1.53c-1.67,1.68-3.45,3.58-5.61,4.63a3.27,3.27,0,0,1-3.46-.09,4.21,4.21,0,0,1-1.49-2.84c-.52-3.57,1.85-6.88,3.91-9.57-1.11.22-2.23.4-3.34.6a18.88,18.88,0,0,1-2.07,3.15,22.1,22.1,0,0,1-2.77,2.84,18.38,18.38,0,0,0-1.41,1.53q-.72.77-1.48,1.51a14.13,14.13,0,0,1-6.34,4,5.74,5.74,0,0,1-6-1.76,7.74,7.74,0,0,1-1.48-3.8,27.06,27.06,0,0,1-3.66,3.78,9.11,9.11,0,0,1-3.16,1.81,3.79,3.79,0,0,1-3.7-.78,8,8,0,0,1-2-4.74,26.75,26.75,0,0,1-3.63,3.73,9,9,0,0,1-3.14,1.79,3.79,3.79,0,0,1-3.69-.78,7.8,7.8,0,0,1-2-4.56,23.46,23.46,0,0,1-3.33,3.22,8.39,8.39,0,0,1-3.76,1.86c-3.43.48-4.92-3.09-5.35-5.88a48.62,48.62,0,0,1-7.9,6.11,8.21,8.21,0,0,1-4,1.45,4.8,4.8,0,0,1-3.7-1.68M148.12,100h0m26.72,2a31.76,31.76,0,0,0-2.21,5.32,35.86,35.86,0,0,0,3.74-5.49A28.36,28.36,0,0,0,177.73,99a7.15,7.15,0,0,0,.65-2.12,6.7,6.7,0,0,0-1.66,1.87,28.57,28.57,0,0,0-1.89,3.18m12.51,0a31.82,31.82,0,0,0-2.21,5.32,35.86,35.86,0,0,0,3.74-5.49A28.36,28.36,0,0,0,190.24,99a7.14,7.14,0,0,0,.65-2.12,6.62,6.62,0,0,0-1.66,1.87,28.51,28.51,0,0,0-1.89,3.18m14.46,5.59a10.43,10.43,0,0,0-4.7,5.2,14.11,14.11,0,0,0,4.15-3,8.75,8.75,0,0,0,1.35-1.8,2.37,2.37,0,0,0,.39-1,3.77,3.77,0,0,0-1.2.53M32.24,124.1A7.87,7.87,0,0,1,28,121.75a5.42,5.42,0,0,1-1.21-4.11,11.73,11.73,0,0,1,1.85-4.7,50.6,50.6,0,0,1,3.19-4.57,4.19,4.19,0,0,1-3-1.31,2.13,2.13,0,0,1,.2-2.84,5.77,5.77,0,0,1,2.91-.83c1.07-.15,2.15-.27,3.23-.41l1-.12c.22,0,.31,0,.46-.18l.34-.41q.7-.83,1.43-1.63A30.81,30.81,0,0,1,41,98.14a10.59,10.59,0,0,1,6.41-2.85c.78,0,1.27.58.83,1.27a13.75,13.75,0,0,1-1.41,1.69l-3.19,3.59a49.14,49.14,0,0,0,7.47-1.57,13.92,13.92,0,0,0,3.19-1.37,3.21,3.21,0,0,0,1.84-2.47c0-2.23-2.81-2.56-4.5-2.69a31.09,31.09,0,0,0-8.05.61,37.7,37.7,0,0,0-7.1,1.88,1.45,1.45,0,0,1,.8.77c.15.49-.21.85-.59,1.07a15.26,15.26,0,0,1-3,1.14,25,25,0,0,1-6.15,1.48A1.56,1.56,0,0,1,25.69,99,3.52,3.52,0,0,1,26,97.8a14.63,14.63,0,0,1,1.38-2.45,23,23,0,0,1,2.44-3.17,8.08,8.08,0,0,1,2.27-1.77,16.43,16.43,0,0,1,2.46-.83,80.05,80.05,0,0,1,8.17-1.92,42.76,42.76,0,0,1,8.11-.85,13.68,13.68,0,0,1,7.35,1.76,6.19,6.19,0,0,1,3,5.47,8.39,8.39,0,0,1-3.71,6.07c-4,3-9.26,4.24-14.12,5l-1.86.27-1,.13L40,106a40.85,40.85,0,0,1,7.94,1.67c2.19.7,4.65,1.76,5.71,3.95,1.16,2.39,0,4.86-1.74,6.58a20.8,20.8,0,0,1-6.64,4.14c-4,1.69-8.68,2.76-13,1.73m3.07-12.37c0,.14-.44.53-.54.64s-.35.45-.52.67a3.93,3.93,0,0,0-.77,1.5,2.42,2.42,0,0,0,1.5,2.5,6.9,6.9,0,0,0,3.43.57,16.19,16.19,0,0,0,4.09-.72,15.51,15.51,0,0,0,3.57-1.54c.88-.54,2.07-1.3,2.3-2.39.18-.83-.46-1.39-1.14-1.74a13.21,13.21,0,0,0-3.13-1c-1.53-.36-3.09-.62-4.64-.85l-1.36-.19c-.26,0-.47-.14-.64.07l-.45.54-1.69,2m.36-15.14h0m46.78,27.08c-1.59-1.11-2.21-3.26-2.46-5.08a26.75,26.75,0,0,1-3.63,3.73,9,9,0,0,1-3.14,1.79,3.79,3.79,0,0,1-3.69-.78,7.8,7.8,0,0,1-2-4.56c-1.63,1.87-3.58,3.85-5.94,4.77a4.39,4.39,0,0,1-3.11.11A4.45,4.45,0,0,1,56,121.23a10.52,10.52,0,0,1,.67-10.91,24.17,24.17,0,0,1,2.3-3.18c1.45-1.69,3.59-3.65,6-3.16a1.81,1.81,0,0,1,1.52,2,7.41,7.41,0,0,1-1.23,3,12.29,12.29,0,0,1-1.91,2.6c-.84.8-1.68,1.61-2.48,2.46a3.11,3.11,0,0,0-1.1,2.35c.09,1.22,1.46,1.61,2.49,1.44a7.63,7.63,0,0,0,3.08-1.53c.5-.35,1-.72,1.46-1.1l.4-.32c.17-.14.14-.18.17-.39s.09-.67.15-1a33.71,33.71,0,0,1,2.6-7.9A53.44,53.44,0,0,1,74.39,98a28.92,28.92,0,0,1,5-6,7.65,7.65,0,0,1,2.64-1.66,1.48,1.48,0,0,1,2,1.29c.44,2.49-.36,5.15-1.3,7.42a48,48,0,0,1-9.45,13.86c-.22.24-.58.49-.63.81s-.1.59-.14.89a6.23,6.23,0,0,0,0,1.73c.16,1,.7,2.15,1.84,2.27s2.21-1,3-1.7l2.47-2.26c.21-.2.18-.55.23-.83s.1-.59.16-.89c.14-.69.32-1.37.52-2a38.87,38.87,0,0,1,1.43-4,52.73,52.73,0,0,1,4-7.75,34.81,34.81,0,0,1,4.9-6.36c.94-.92,4-3.9,5.22-1.86A5.7,5.7,0,0,1,96.58,94a16,16,0,0,1-.92,3.87,34.93,34.93,0,0,1-3.75,7.25,57.25,57.25,0,0,1-5.19,6.69q-.7.78-1.42,1.55c-.34.35-.32,1.29-.34,1.78a3.72,3.72,0,0,0,1,3.08c1,.78,2.08.09,2.92-.57.56-.44,1.07-.92,1.59-1.39l2.23-2c.35-.32.92-.85,1.32-.24a1.4,1.4,0,0,1,.1.77v1.41a1,1,0,0,1-.23.63q-.52.69-1.06,1.36a29.76,29.76,0,0,1-3.6,3.85c-1.77,1.54-4.52,3.28-6.81,1.68m-6-21.74a31.8,31.8,0,0,0-2.21,5.32A35.75,35.75,0,0,0,78,101.75,28.36,28.36,0,0,0,79.36,99,7.14,7.14,0,0,0,80,96.88a6.71,6.71,0,0,0-1.66,1.87,28.68,28.68,0,0,0-1.89,3.18m12.51,0a31.82,31.82,0,0,0-2.21,5.32,35.83,35.83,0,0,0,3.74-5.49A28.31,28.31,0,0,0,91.87,99a7.15,7.15,0,0,0,.65-2.12,6.63,6.63,0,0,0-1.66,1.87A28.48,28.48,0,0,0,89,101.93m74.45.72c-1.55-1.3-.58-3.44.43-4.74s2.93-2.38,4.46-1.11.7,3.45-.28,4.74-3,2.46-4.61,1.11m-98.37,0c-1.5-1.26-.64-3.31.33-4.6s3-2.57,4.57-1.25.7,3.45-.28,4.74-3,2.46-4.61,1.11"/><path class="b" d="M186.3,161.27a11.37,11.37,0,0,1-2.75-2.39,12.16,12.16,0,0,1-1.08-1.53q-.25-.42-.47-.85l-.21-.44c-.11-.23-.31-.21-.54-.27a14.21,14.21,0,0,1-6.64-3.84A15.64,15.64,0,0,1,171.08,137a14.54,14.54,0,0,1,10.69-10.1,15.94,15.94,0,0,1,14.67,3.73,15.34,15.34,0,0,1,4,14.55,14.4,14.4,0,0,1-10.3,10.64,6.8,6.8,0,0,0,5.15,4.08,10.47,10.47,0,0,0,1.84.15l1,0a3.74,3.74,0,0,1,.86,0c.71.13.5,1.22.5,1.73a.66.66,0,0,1-.47.72c-.67.16-1.34.31-2,.42a20.94,20.94,0,0,1-3.6.34,13.38,13.38,0,0,1-7-1.93M179,141.4a22.56,22.56,0,0,0,1,7.5c.72,2.05,2,4.05,4.27,4.55a6.13,6.13,0,0,0,3.27-.17,4.65,4.65,0,0,0,1.28-.69,9.81,9.81,0,0,0,1.06-1.09,13.54,13.54,0,0,0,2.23-6.83,34.72,34.72,0,0,0-.12-7.5,12.83,12.83,0,0,0-1.5-5.07,5.57,5.57,0,0,0-4.63-2.9,5.71,5.71,0,0,0-5.31,3.45c-1.37,2.64-1.58,5.83-1.58,8.75M89.18,155a3.77,3.77,0,0,1-1.08-1.69c-1.93,1.59-4.54,3.17-7.14,2.47a4.38,4.38,0,0,1-3-5.24,7.28,7.28,0,0,1,3.51-4.42,48.22,48.22,0,0,1,6.09-3.21c.14-.06.32-.08.32-.24v-1c0-.44,0-.88,0-1.32a4.55,4.55,0,0,0-.17-1.54c-.49-1.17-2.19-1.17-3.18-.76-.2.08-.75.31-.69.6s.58.79.81,1.14a2.82,2.82,0,0,1,0,3.18,3.34,3.34,0,0,1-2.95,1.38,3.69,3.69,0,0,1-3-1.57,3.47,3.47,0,0,1-.17-3.27c1-2.35,3.42-3.59,5.76-4.15s5.25-.67,7.41.62a5.58,5.58,0,0,1,2.84,3.87,30,30,0,0,1,.14,3.91c0,2.24,0,4.48,0,6.72,0,.16-.13,1.59.21,1.66s.5-.52.72-.66c.41-.27.76.07,1.06.32s.62.5.45.93a5.68,5.68,0,0,1-1.26,1.6,5.32,5.32,0,0,1-3.19,1.59,4.64,4.64,0,0,1-3.54-.9m-4.56-5.25a1.49,1.49,0,0,0,1.59,1.55,2.45,2.45,0,0,0,1.13-.49c.1-.07.53-.32.53-.44v-4.77A10.2,10.2,0,0,0,85.29,148a3.14,3.14,0,0,0-.68,1.83m44.15,5.94c-.46,0-.61-.4-.61-.78s-.07-.76.18-1,1.13-.18,1.58-.22a4.67,4.67,0,0,0,1-.17c1.36-.42,1.12-2.14,1.12-3.25V136.53c0-1.78.07-3.58,0-5.35a2.6,2.6,0,0,0-.3-1.4,2.47,2.47,0,0,0-1.89-.7c-.46,0-1.27.14-1.57-.3a1.86,1.86,0,0,1-.11-1,.68.68,0,0,1,.77-.72h13a22,22,0,0,1,6.2.62,7.66,7.66,0,0,1,4.89,4.4,6.11,6.11,0,0,1-.18,5.2,7.6,7.6,0,0,1-4.26,3.3c2.13.66,4.19,1.67,5.34,3.68a7,7,0,0,1,.16,6.4c-2,4.15-7.29,5.07-11.44,5.07H128.76m11.18-3.1c.55.55,1.6.4,2.28.28a5.16,5.16,0,0,0,2.27-1,5.43,5.43,0,0,0,1.76-4.63,5.2,5.2,0,0,0-2.07-4.17,9,9,0,0,0-4.58-.88q0,2.9,0,5.81v2.28c0,.72-.18,1.77.37,2.33m-.33-13.15a7.38,7.38,0,0,0,4.16-1,4.53,4.53,0,0,0,1.75-3.89,4.47,4.47,0,0,0-1.7-3.85,7.35,7.35,0,0,0-4.17-.95q0,4.85,0,9.7M98.92,155.73c-.46,0-.61-.4-.61-.78s-.07-.74.16-1c.42-.46,1.44-.07,1.68-.8a9.71,9.71,0,0,0,.23-3.07v-7.87c0-.83,0-1.66,0-2.48A2.93,2.93,0,0,0,100,138c-.46-.58-1.73-.08-1.73-1.06,0-.53-.1-1.31.66-1.31h7.47a.65.65,0,0,1,.73.62v2.3c1.4-1.88,3.54-3.92,6.12-3.44,2.37.45,3,3.48,1.89,5.36a2.8,2.8,0,0,1-2.92,1.31,5.52,5.52,0,0,1-2.42-1.48c-.21-.16-.6,0-.78.16a3.12,3.12,0,0,0-1,1.22,10.09,10.09,0,0,0-.83,3.8c-.08,1.42,0,2.87,0,4.3v1.33a5.71,5.71,0,0,0,.09,1.92,1,1,0,0,0,.67.58c.44.13,1.11,0,1.48.27s.39,1.72-.24,1.85a3.53,3.53,0,0,1-.68,0H98.92m-49.21,0c-.46,0-.61-.4-.61-.78s-.07-.76.18-1,1.13-.18,1.58-.22a4.67,4.67,0,0,0,1-.17c1.36-.42,1.12-2.14,1.12-3.25V136.53c0-1.78.07-3.58,0-5.35a2.6,2.6,0,0,0-.3-1.4,2.47,2.47,0,0,0-1.89-.7c-.46,0-1.27.14-1.57-.3a1.86,1.86,0,0,1-.11-1,.68.68,0,0,1,.77-.72h13a22,22,0,0,1,6.2.62,7.66,7.66,0,0,1,4.89,4.4,6.11,6.11,0,0,1-.18,5.2,7.6,7.6,0,0,1-4.26,3.3c2.13.66,4.19,1.67,5.34,3.68a7,7,0,0,1,.16,6.4c-2,4.15-7.29,5.07-11.44,5.07H49.72m11.18-3.1c.55.55,1.6.4,2.28.28a5.16,5.16,0,0,0,2.27-1,5.43,5.43,0,0,0,1.76-4.63,5.2,5.2,0,0,0-2.07-4.17,9,9,0,0,0-4.58-.88q0,2.9,0,5.81v2.28c0,.72-.18,1.77.37,2.33m-.33-13.15a7.38,7.38,0,0,0,4.16-1,4.53,4.53,0,0,0,1.75-3.89,4.47,4.47,0,0,0-1.7-3.85,7.35,7.35,0,0,0-4.17-.95q0,4.85,0,9.7m96.08,8.78c-.7,0-.61-.77-.61-1.24v-3.58c0-.47.39-.64.79-.64h11.64c.52,0,.66.42.66.85v3.76c0,.43-.14.85-.66.85H156.66m-41.45,0c-.7,0-.61-.77-.61-1.24v-3.58c0-.47.39-.64.79-.64H127c.52,0,.66.42.66.85v3.76c0,.43-.14.85-.66.85H115.2M137.86,122c-1.42-1.66-1.56-3.91-1.28-6a18.05,18.05,0,0,1,2.47-6.65c2.29-3.94,5.46-7.19,8.28-10.73a43,43,0,0,0-4.55,4c-1.85,1.8-3.64,3.66-5.37,5.57-3.47,3.81-6.63,7.85-9.84,11.88a9.43,9.43,0,0,1-2,2.09c-1,.68-2,.11-2.5-.89a9,9,0,0,1-.88-3.94,5.72,5.72,0,0,1,1-3.09c1.2-2,2.64-3.79,4-5.65s2.79-3.84,4.06-5.84c.92-1.45,1.81-2.92,2.65-4.42.63-1.12,1.62-2.56,1.46-3.9A7.14,7.14,0,0,0,133,96.13c-.8.72-1.55,1.48-2.28,2.27-1.69,1.81-3.26,3.74-4.79,5.69a149.81,149.81,0,0,0-9.5,13.6c-.54.87-1.08,1.75-1.67,2.58a2.32,2.32,0,0,1-2.51,1.23c-1.12-.37-1.65-1.77-2-2.77a6.83,6.83,0,0,1-.65-3.23,3.63,3.63,0,0,1,.85-1.56l1.33-1.79q1.15-1.55,2.27-3.12c1.5-2.09,3-4.2,4.33-6.37a54.22,54.22,0,0,0,3.74-6.6A9.25,9.25,0,0,0,123,93c0-.37,0-.72-.42-.72a2,2,0,0,0-.57.11,14.32,14.32,0,0,0-2.68,1.25c-1,.57-2.07,1.16-3.1,1.77-2.14,1.26-4.25,2.57-6.44,3.74-1.21.64-4.55,2.27-4.71-.32a6.79,6.79,0,0,1,.14-1.45,26.14,26.14,0,0,1,.72-3.44c.56-1.88,2.18-3.07,3.69-4.21A11.9,11.9,0,0,1,112,88.09c.92-.38,1.44.74.84,1.4a51.89,51.89,0,0,1,7.4-3.36,18.46,18.46,0,0,1,2.92-.84,2.46,2.46,0,0,1,2.32.5,8.25,8.25,0,0,1,1.82,3.3,5.36,5.36,0,0,1,.42,2.26,12.79,12.79,0,0,1-1,3.65c-.49,1.23-1,2.43-1.61,3.62l-.65,1.36c3.49-4.2,7-8.39,11.58-11.46a14.65,14.65,0,0,1,2.85-1.61,2.24,2.24,0,0,1,1.81,0,4,4,0,0,1,1.87,4.7A31.18,31.18,0,0,1,140,97.09c-1.18,2.19-2.44,4.33-3.69,6.48,1.89-2,3.79-4,5.71-5.93a45.39,45.39,0,0,1,4.63-4.34c1.38-1.06,2.69-2.21,4-3.36.45-.4.9-.8,1.36-1.19.81-.68,1.92-1.62,3.06-1.47s1.7,1.25,2.19,2a5.86,5.86,0,0,1,1,2.07,3.05,3.05,0,0,1-1,2.24c-.72.83-1.47,1.64-2.22,2.44a56.4,56.4,0,0,0-9.64,13.53A27.18,27.18,0,0,0,144,113.1a9.67,9.67,0,0,0-.57,2.94c0,.79.13,1.57,1,1.62a5.84,5.84,0,0,0,3.43-1.39c1.15-.76,2.34-1.48,3.47-2.27l1.4-1,.64-.46a9.93,9.93,0,0,1,.26-1.15,12.11,12.11,0,0,1,1.42-2.88,24.27,24.27,0,0,1,2.3-3.18c1.45-1.7,3.59-3.65,6-3.16a1.81,1.81,0,0,1,1.52,2,7.41,7.41,0,0,1-1.23,3,12.32,12.32,0,0,1-1.91,2.6c-.84.8-1.68,1.61-2.48,2.46a2.89,2.89,0,0,0-1.06,2.6c.29,1.17,1.72,1.37,2.71,1.14a8.82,8.82,0,0,0,3-1.64c.51-.37,1-.76,1.5-1.15.15-.12.27-.16.29-.36s0-.28.05-.42c0-.34.1-.68.17-1a34.94,34.94,0,0,1,2.69-7.92,53.43,53.43,0,0,1,4.25-7.56A27.51,27.51,0,0,1,178,89.94a6.39,6.39,0,0,1,2.65-1.54c1.09-.2,1.66.62,1.78,1.58A14.66,14.66,0,0,1,181,97.45a49,49,0,0,1-9.57,13.83l-.36.39q0,.24-.09.49c0,.27-.08.55-.11.83a5.66,5.66,0,0,0,.1,1.76c.23,1,.88,2,2,2a2.61,2.61,0,0,0,1.44-.65,17.08,17.08,0,0,0,1.42-1.18l1-1,.67-.61c.23-.21.73-.52.77-.83a29.94,29.94,0,0,1,2.3-7.76,53,53,0,0,1,4-7.64,34.06,34.06,0,0,1,4.91-6.32c.93-.91,4.13-3.87,5.17-1.65a6.38,6.38,0,0,1,.21,3.18,16.36,16.36,0,0,1-1,3.86,35.46,35.46,0,0,1-3.79,7.25,57.76,57.76,0,0,1-5.21,6.68q-.7.78-1.43,1.55a11,11,0,0,0-.22,1.75,3.79,3.79,0,0,0,1,2.91c1,.85,2,.24,2.89-.4s1.55-1.33,2.3-2l1.37-1.26a1.51,1.51,0,0,0,.42-.86,10.42,10.42,0,0,1,.37-1,12.35,12.35,0,0,1,1.86-3,21.7,21.7,0,0,1,6.19-5.29c1.93-1.06,5-2.25,7-.91s.92,4.66-.35,6.26a18.45,18.45,0,0,1-5.94,4.49c-.81.43-1.63.83-2.46,1.2l-1.27.55c-.21.09-.17.12-.16.32a4.66,4.66,0,0,0,.05.73,2.33,2.33,0,0,0,1,1.7,3.29,3.29,0,0,0,2.44.1,13,13,0,0,0,4.58-2.57c.71-.55,1.4-1.12,2.08-1.7a11.15,11.15,0,0,0,1.81-2.24c-2.9-1.53-.4-5.42,1-7.12a7.64,7.64,0,0,1,3.3-2.68,1.31,1.31,0,0,1,1.68.5,1.86,1.86,0,0,1-.2,1.57,45.28,45.28,0,0,1,5.78-.67,1.94,1.94,0,0,1,2.06,1.22,4,4,0,0,1,.06,3.68,19.3,19.3,0,0,1-2.15,2.46,15.53,15.53,0,0,0-2.3,3.28,4.92,4.92,0,0,0-.75,2.17c0,.74,1,.66,1.51.5a10.17,10.17,0,0,0,2.77-1.55c.51-.36,1-.74,1.49-1.12s1.18-1,1.5-.19a2,2,0,0,1,0,.69v1.09a1,1,0,0,1-.29.8l-1.5,1.53c-1.67,1.68-3.45,3.58-5.61,4.63a3.27,3.27,0,0,1-3.46-.09,4.21,4.21,0,0,1-1.49-2.84c-.52-3.57,1.85-6.88,3.91-9.57-1.11.22-2.23.4-3.34.6a18.88,18.88,0,0,1-2.07,3.15,22.1,22.1,0,0,1-2.77,2.84,18.38,18.38,0,0,0-1.41,1.53q-.72.77-1.48,1.51a14.13,14.13,0,0,1-6.34,4,5.74,5.74,0,0,1-6-1.76,7.74,7.74,0,0,1-1.48-3.8,27.06,27.06,0,0,1-3.66,3.78,9.11,9.11,0,0,1-3.16,1.81,3.79,3.79,0,0,1-3.7-.78,8,8,0,0,1-2-4.74,26.75,26.75,0,0,1-3.63,3.73,9,9,0,0,1-3.14,1.79,3.79,3.79,0,0,1-3.69-.78,7.8,7.8,0,0,1-2-4.56,23.46,23.46,0,0,1-3.33,3.22,8.39,8.39,0,0,1-3.76,1.86c-3.43.48-4.92-3.09-5.35-5.88a48.62,48.62,0,0,1-7.9,6.11,8.21,8.21,0,0,1-4,1.45,4.8,4.8,0,0,1-3.7-1.68m10.26-23.86h0m26.72,2a31.76,31.76,0,0,0-2.21,5.32,35.86,35.86,0,0,0,3.74-5.49,28.47,28.47,0,0,0,1.37-2.75,7.15,7.15,0,0,0,.65-2.12,6.7,6.7,0,0,0-1.66,1.87,28.5,28.5,0,0,0-1.89,3.18m12.51,0a31.82,31.82,0,0,0-2.21,5.32,35.86,35.86,0,0,0,3.74-5.49,28.36,28.36,0,0,0,1.37-2.75,7.14,7.14,0,0,0,.65-2.12,6.62,6.62,0,0,0-1.66,1.87,28.44,28.44,0,0,0-1.89,3.18m14.46,5.59a10.43,10.43,0,0,0-4.7,5.2,14.11,14.11,0,0,0,4.15-3,8.75,8.75,0,0,0,1.35-1.8,2.37,2.37,0,0,0,.39-1,3.77,3.77,0,0,0-1.2.53M32.24,122.29A7.87,7.87,0,0,1,28,119.93a5.42,5.42,0,0,1-1.21-4.11,11.73,11.73,0,0,1,1.85-4.7,50.6,50.6,0,0,1,3.19-4.57,4.19,4.19,0,0,1-3-1.31,2.13,2.13,0,0,1,.2-2.84,5.77,5.77,0,0,1,2.91-.83c1.07-.15,2.15-.27,3.23-.41l1-.12c.22,0,.31,0,.46-.18l.34-.41q.7-.83,1.43-1.63A30.81,30.81,0,0,1,41,96.32a10.59,10.59,0,0,1,6.41-2.85c.78,0,1.27.58.83,1.27a13.75,13.75,0,0,1-1.41,1.69L43.59,100a49.14,49.14,0,0,0,7.47-1.57,13.92,13.92,0,0,0,3.19-1.37,3.21,3.21,0,0,0,1.84-2.47c0-2.23-2.81-2.56-4.5-2.69a31.09,31.09,0,0,0-8.05.61,37.7,37.7,0,0,0-7.1,1.88,1.45,1.45,0,0,1,.8.77c.15.49-.21.85-.59,1.07a15.26,15.26,0,0,1-3,1.14,25,25,0,0,1-6.15,1.48,1.56,1.56,0,0,1-1.79-1.66A3.52,3.52,0,0,1,26,96a14.63,14.63,0,0,1,1.38-2.45,23,23,0,0,1,2.44-3.17,8.08,8.08,0,0,1,2.27-1.77,16.43,16.43,0,0,1,2.46-.83,80.05,80.05,0,0,1,8.17-1.92A42.77,42.77,0,0,1,50.84,85a13.68,13.68,0,0,1,7.35,1.76,6.19,6.19,0,0,1,3,5.47,8.39,8.39,0,0,1-3.71,6.07c-4,3-9.26,4.24-14.12,5l-1.86.27-1,.13-.45.53a40.85,40.85,0,0,1,7.94,1.67c2.19.7,4.65,1.76,5.71,3.95,1.16,2.39,0,4.86-1.74,6.58a20.8,20.8,0,0,1-6.64,4.14c-4,1.69-8.68,2.76-13,1.73m3.07-12.37c0,.14-.44.53-.54.64s-.35.45-.52.67a3.93,3.93,0,0,0-.77,1.5,2.42,2.42,0,0,0,1.5,2.5,6.9,6.9,0,0,0,3.43.57,16.19,16.19,0,0,0,4.09-.72,15.51,15.51,0,0,0,3.57-1.54c.88-.54,2.07-1.3,2.3-2.39.18-.83-.46-1.39-1.14-1.74a13.21,13.21,0,0,0-3.13-1c-1.53-.36-3.09-.62-4.64-.85l-1.36-.19c-.26,0-.47-.14-.64.07l-.45.54-1.69,2m.36-15.14h0m46.78,27.08c-1.59-1.11-2.21-3.26-2.46-5.08a26.75,26.75,0,0,1-3.63,3.73,9,9,0,0,1-3.14,1.79,3.79,3.79,0,0,1-3.69-.78,7.8,7.8,0,0,1-2-4.56c-1.63,1.87-3.58,3.85-5.94,4.77a4.39,4.39,0,0,1-3.11.11A4.45,4.45,0,0,1,56,119.42a10.52,10.52,0,0,1,.67-10.91,24.17,24.17,0,0,1,2.3-3.18c1.45-1.69,3.59-3.65,6-3.16a1.81,1.81,0,0,1,1.52,2,7.41,7.41,0,0,1-1.23,3,12.29,12.29,0,0,1-1.91,2.6c-.84.8-1.68,1.61-2.48,2.46a3.11,3.11,0,0,0-1.1,2.35c.09,1.22,1.46,1.61,2.49,1.44a7.63,7.63,0,0,0,3.08-1.53c.5-.35,1-.72,1.46-1.1l.4-.32c.17-.14.14-.18.17-.39s.09-.67.15-1a33.71,33.71,0,0,1,2.6-7.9,53.44,53.44,0,0,1,4.21-7.61,28.92,28.92,0,0,1,5-6,7.65,7.65,0,0,1,2.64-1.66,1.48,1.48,0,0,1,2,1.29c.44,2.49-.36,5.15-1.3,7.42A48,48,0,0,1,73.27,111c-.22.24-.58.49-.63.81s-.1.59-.14.89a6.23,6.23,0,0,0,0,1.73c.16,1,.7,2.15,1.84,2.27s2.21-1,3-1.7l2.47-2.26c.21-.2.18-.55.23-.83s.1-.59.16-.89c.14-.69.32-1.37.52-2a38.87,38.87,0,0,1,1.43-4,52.73,52.73,0,0,1,4-7.75,34.81,34.81,0,0,1,4.9-6.36C92,90,95.13,87,96.3,89a5.7,5.7,0,0,1,.28,3.15A16,16,0,0,1,95.66,96a34.93,34.93,0,0,1-3.75,7.25A57.25,57.25,0,0,1,86.72,110q-.7.78-1.42,1.55c-.34.35-.32,1.29-.34,1.78a3.72,3.72,0,0,0,1,3.08c1,.78,2.08.09,2.92-.57.56-.44,1.07-.92,1.59-1.39l2.23-2c.35-.32.92-.85,1.32-.24a1.4,1.4,0,0,1,.1.77v1.41a1,1,0,0,1-.23.63q-.52.69-1.06,1.36a29.76,29.76,0,0,1-3.6,3.85c-1.77,1.54-4.52,3.28-6.81,1.68m-6-21.74a31.8,31.8,0,0,0-2.21,5.32A35.75,35.75,0,0,0,78,99.93a28.36,28.36,0,0,0,1.37-2.75A7.14,7.14,0,0,0,80,95.06a6.71,6.71,0,0,0-1.66,1.87,28.61,28.61,0,0,0-1.89,3.18m12.51,0a31.82,31.82,0,0,0-2.21,5.32,35.83,35.83,0,0,0,3.74-5.49,28.31,28.31,0,0,0,1.37-2.75,7.15,7.15,0,0,0,.65-2.12,6.63,6.63,0,0,0-1.66,1.87A28.48,28.48,0,0,0,89,100.11m74.45.72c-1.55-1.3-.58-3.44.43-4.74s2.93-2.38,4.46-1.11.7,3.45-.28,4.74-3,2.46-4.61,1.11m-98.37,0c-1.5-1.26-.64-3.31.33-4.6s3-2.57,4.57-1.25.7,3.45-.28,4.74-3,2.46-4.61,1.11"/><path class="c" d="M59.43,95.46a12.8,12.8,0,0,1-4.85,3.92,30.67,30.67,0,0,1-6.22,2.27,55.88,55.88,0,0,1-6.67,1.27l-.85.11c-.13,0-.63,0-.71.1l-.41.48-.94,1.1a43.28,43.28,0,0,1,7.87,1.42c2.13.6,4.57,1.37,6,3.2a4.55,4.55,0,0,1-.22,5.6,16.3,16.3,0,0,1-6.3,4.58,27.35,27.35,0,0,1-8,2.41,14.32,14.32,0,0,1-7.17-.71,5.21,5.21,0,0,1-3.51-4.65c-.05-2.24,1.25-4.34,2.44-6.15,1-1.51,2.08-3,3.2-4.39a6.68,6.68,0,0,1-3.07-.65c-.86-.52-1.35-1.93-.37-2.6a7.13,7.13,0,0,1,3-.67l3.57-.44.52-.06c.24,0,.26-.12.41-.3l.67-.8q.68-.8,1.4-1.57a27.84,27.84,0,0,1,2.47-2.37,11,11,0,0,1,3.13-1.9,9,9,0,0,1,1.7-.46c.17,0,1.45-.28,1.29.1a5.08,5.08,0,0,1-.95,1.19l-1.47,1.66L42,100.86a68.6,68.6,0,0,0,7.41-1.32c2.14-.52,4.59-1.19,6.23-2.76a3,3,0,0,0,1-2.78A2.86,2.86,0,0,0,54.79,92a15.29,15.29,0,0,0-6.73-.66A45.92,45.92,0,0,0,40,92.67a30.83,30.83,0,0,0-3.79,1.18,2.4,2.4,0,0,0-1,.52c-.19.24.84.54,1,.64.57.32.42.55-.07.8a18,18,0,0,1-2.68,1c-1.25.4-2.51.77-3.79,1.08a11.06,11.06,0,0,1-2.33.39c-2.25,0-.2-3.23.28-4,1.18-1.85,2.63-4,4.64-5.08a14.6,14.6,0,0,1,2.6-.88q1.94-.56,3.9-1a69.73,69.73,0,0,1,8.53-1.51c3.26-.34,7-.45,10,1.16a6.19,6.19,0,0,1,3,3.34A6,6,0,0,1,59.43,95.46ZM34.85,109.52a8.22,8.22,0,0,0-1.92,2.91,2.75,2.75,0,0,0,1.1,2.91c1.84,1.48,4.69,1.22,6.86.79a14.64,14.64,0,0,0,7-3.15,2.69,2.69,0,0,0,1.06-2.66,3.38,3.38,0,0,0-2.21-1.81,29.37,29.37,0,0,0-6.08-1.43l-1.77-.27-.85-.12-.52-.07c-.25,0-.25.07-.41.25Zm34.23-10c-.88,1.11-2.36,1.94-3.63.88s-.27-2.88.52-3.89,2.42-2.09,3.67-.95S69.87,98.48,69.08,99.48ZM65.95,104a5.38,5.38,0,0,1-.89,2.4,13.22,13.22,0,0,1-1.85,2.7c-.74.79-1.56,1.5-2.31,2.28a6.1,6.1,0,0,0-1.47,1.92,2.39,2.39,0,0,0,.62,2.81,3.29,3.29,0,0,0,3,.37A9.62,9.62,0,0,0,65.75,115c1-.68,1.89-1.43,2.79-2.19v1.66c0,.39-.19.53-.44.84-.45.56-.91,1.11-1.39,1.65-1.54,1.71-3.41,3.58-5.64,4.32a3.57,3.57,0,0,1-2.78-.15,4.54,4.54,0,0,1-1.93-2.49,10.67,10.67,0,0,1-.22-7.77,18.73,18.73,0,0,1,2.25-3.72A16,16,0,0,1,61.16,104a5.66,5.66,0,0,1,2.58-1.29C64.68,102.6,65.95,102.78,65.95,104Zm14.55-3.66a47.63,47.63,0,0,1-4.31,6.37q-1.32,1.67-2.75,3.25l-.72.78c-.22.24-.59.5-.65.83a12.4,12.4,0,0,0-.23,1.77,4.71,4.71,0,0,0,.89,3.19,2.38,2.38,0,0,0,2.92.58,12.15,12.15,0,0,0,2.54-2l2.34-2.15.51-.47v1.68c0,.39-.19.54-.43.86q-.66.86-1.36,1.7A19.67,19.67,0,0,1,74.62,121c-1.27.77-2.92,1.3-4.28.39-1.88-1.26-2.3-4.12-2.39-6.19a20.35,20.35,0,0,1,1.31-7.48,47.53,47.53,0,0,1,3.54-7.78,46.42,46.42,0,0,1,4.5-6.71A20.4,20.4,0,0,1,80,90.45a10.64,10.64,0,0,1,1.19-.87,3,3,0,0,1,1.43-.6c1,0,.92,1.5.92,2.19a11.7,11.7,0,0,1-.34,2.67A25.44,25.44,0,0,1,80.49,100.31Zm-.28-6c-.4,0-.83.46-1.09.73a10.54,10.54,0,0,0-.93,1.08,25,25,0,0,0-2,3.24,31.68,31.68,0,0,0-3.14,8.3,32.15,32.15,0,0,0,5.23-7A28.64,28.64,0,0,0,80,97.14C80.2,96.76,81.22,94.31,80.21,94.31Zm12.79,6a47.63,47.63,0,0,1-4.3,6.37q-1.32,1.67-2.75,3.25l-.72.78c-.22.24-.59.5-.65.83a12.4,12.4,0,0,0-.23,1.77,4.71,4.71,0,0,0,.89,3.19,2.38,2.38,0,0,0,2.92.58,12.15,12.15,0,0,0,2.54-2L93,112.94l.51-.47v1.68c0,.39-.19.54-.43.86q-.66.86-1.36,1.7A19.66,19.66,0,0,1,87.13,121c-1.27.77-2.92,1.3-4.28.39-1.88-1.26-2.3-4.12-2.39-6.19a20.34,20.34,0,0,1,1.31-7.48,47.64,47.64,0,0,1,3.54-7.78,46.36,46.36,0,0,1,4.5-6.71,20.38,20.38,0,0,1,2.66-2.76,10.63,10.63,0,0,1,1.19-.87,3,3,0,0,1,1.43-.6c1,0,.92,1.5.92,2.19a11.73,11.73,0,0,1-.33,2.67A25.44,25.44,0,0,1,93,100.31Zm-.28-6c-.4,0-.83.46-1.09.73a10.54,10.54,0,0,0-.93,1.08,25,25,0,0,0-2,3.24,31.69,31.69,0,0,0-3.14,8.3,32.12,32.12,0,0,0,5.23-7,28.7,28.7,0,0,0,1.79-3.56C92.71,96.76,93.73,94.31,92.72,94.31Zm64.39-1.43c-1.47,1.82-3.17,3.45-4.69,5.23a61.49,61.49,0,0,0-5,6.7,38.83,38.83,0,0,0-3.59,6.85,16,16,0,0,0-1,3.34c-.13.88-.25,2.14.43,2.83s1.94.5,2.75.19a15.94,15.94,0,0,0,2.91-1.72c1-.67,2-1.29,3-2,.76-.54,1.5-1.13,2.29-1.63v1.66c0,.38-.5.64-.76.89L152,116.6a47,47,0,0,1-6.12,4.71c-1.87,1.18-4.17,2.47-6.36,1.3s-2.62-3.83-2.39-6.11c.54-5.35,4.31-9.91,7.63-13.89.88-1,1.79-2.07,2.66-3.12.26-.31.51-.62.74-.95a1.43,1.43,0,0,0,.3-.52.44.44,0,0,0-.6-.43,3.65,3.65,0,0,0-.78.46,30.79,30.79,0,0,0-2.57,2.09,107.4,107.4,0,0,0-10.2,10.59c-1.73,2-3.39,4.08-5.06,6.15-.65.8-1.26,1.62-1.9,2.43a12.54,12.54,0,0,1-1.94,2.21c-2.13,1.67-2.74-3.77-2.56-4.91a6.82,6.82,0,0,1,1.19-2.61c.6-.92,1.25-1.82,1.89-2.71a126.73,126.73,0,0,0,8.62-12.94,10.5,10.5,0,0,0,1.34-3.12c.07-.38.18-1-.14-1.35s-.56-.09-.79,0a8.34,8.34,0,0,0-2.22,1.58c-.82.73-1.6,1.5-2.35,2.29A106.37,106.37,0,0,0,121,109.64q-2.46,3.5-4.76,7.12c-.62,1-1.21,2-1.86,2.92-.44.64-1.15,1.59-2.05,1.2s-1.37-1.82-1.68-2.7-.82-2.24-.28-3.16a19.49,19.49,0,0,1,1.24-1.69l1.27-1.73q1.1-1.49,2.17-3c1.53-2.15,3-4.34,4.4-6.58A42.34,42.34,0,0,0,123,95.47a5.56,5.56,0,0,0,.62-3.13c-.23-.9-1.26-.73-1.93-.5a19,19,0,0,0-3,1.48c-1.09.61-2.17,1.23-3.24,1.87-2.11,1.26-4.2,2.58-6.4,3.67-.72.36-1.95,1-2.78.7s-.43-1.54-.34-2.14a22.61,22.61,0,0,1,.77-3.59,4.82,4.82,0,0,1,1.38-2,28.82,28.82,0,0,1,3-2.39c.13-.09,1.36-1.13,1.52-.73.1.25-.32.5-.46.62-.3.25-.6.5-.88.76A3.21,3.21,0,0,0,110,91.8a67.5,67.5,0,0,1,7.1-3.77,25.39,25.39,0,0,1,6.31-2.17,2.35,2.35,0,0,1,1,0,2.48,2.48,0,0,1,1.25,1.2,11.65,11.65,0,0,1,1.38,3.36,6.08,6.08,0,0,1-.45,3.13,35.83,35.83,0,0,1-1.46,3.54c-1.14,2.49-2.36,4.94-3.54,7.41q2.65-3.41,5.47-6.67a56.94,56.94,0,0,1,5.82-6.13,37.68,37.68,0,0,1,3.22-2.51,14.54,14.54,0,0,1,3-1.72c2-.77,3.37,2.1,2.93,3.75A20.43,20.43,0,0,1,140.42,95c-.75,1.49-1.57,2.94-2.39,4.39-1.63,2.85-3.3,5.68-5,8.51,3.57-3.79,7.13-7.59,10.82-11.27.81-.81,1.63-1.61,2.51-2.34s2.08-1.64,3.08-2.5,1.83-1.59,2.74-2.39c.67-.59,1.94-1.81,2.94-1.52a2.29,2.29,0,0,1,1,.82,12.5,12.5,0,0,1,1.11,1.66,3.41,3.41,0,0,1,.48,1.06A2.05,2.05,0,0,1,157.11,92.88Zm10.34,6.6c-.88,1.11-2.36,1.94-3.63.88s-.27-2.88.52-3.89,2.42-2.09,3.67-.95S168.24,98.48,167.45,99.48Zm-3.13,4.5a5.38,5.38,0,0,1-.89,2.4,13.23,13.23,0,0,1-1.85,2.7c-.74.79-1.56,1.5-2.31,2.28a6.11,6.11,0,0,0-1.47,1.92,2.39,2.39,0,0,0,.62,2.81,3.29,3.29,0,0,0,3,.37,9.62,9.62,0,0,0,2.74-1.49c1-.68,1.89-1.43,2.79-2.19v1.66c0,.39-.19.53-.44.84-.45.56-.91,1.11-1.39,1.65-1.54,1.71-3.41,3.58-5.64,4.32a3.57,3.57,0,0,1-2.78-.15,4.54,4.54,0,0,1-1.93-2.49,10.67,10.67,0,0,1-.22-7.77,18.73,18.73,0,0,1,2.25-3.72,16,16,0,0,1,2.77-3.06,5.66,5.66,0,0,1,2.58-1.29C163.05,102.6,164.32,102.78,164.32,104Zm14.55-3.66a47.63,47.63,0,0,1-4.31,6.37q-1.32,1.67-2.75,3.25l-.72.78c-.22.24-.59.5-.65.83a12.39,12.39,0,0,0-.23,1.77,4.71,4.71,0,0,0,.89,3.19,2.38,2.38,0,0,0,2.92.58,12.17,12.17,0,0,0,2.54-2l2.34-2.15.51-.47v1.68c0,.39-.19.54-.43.86q-.66.86-1.36,1.7A19.66,19.66,0,0,1,173,121c-1.27.77-2.92,1.3-4.28.39-1.88-1.26-2.3-4.12-2.39-6.19a20.35,20.35,0,0,1,1.31-7.48,47.53,47.53,0,0,1,3.54-7.78,46.42,46.42,0,0,1,4.5-6.71,20.4,20.4,0,0,1,2.66-2.76,10.64,10.64,0,0,1,1.19-.87A3,3,0,0,1,181,89c1,0,.92,1.5.92,2.19a11.7,11.7,0,0,1-.34,2.67A25.46,25.46,0,0,1,178.87,100.31Zm-.28-6c-.4,0-.83.46-1.09.73a10.54,10.54,0,0,0-.93,1.08,25,25,0,0,0-2,3.24,31.69,31.69,0,0,0-3.14,8.3,32.13,32.13,0,0,0,5.23-7,28.57,28.57,0,0,0,1.79-3.56C178.57,96.76,179.6,94.31,178.58,94.31Zm12.79,6a47.63,47.63,0,0,1-4.31,6.37q-1.32,1.67-2.75,3.25l-.72.78c-.22.24-.59.5-.65.83a12.4,12.4,0,0,0-.23,1.77,4.71,4.71,0,0,0,.89,3.19,2.38,2.38,0,0,0,2.92.58,12.15,12.15,0,0,0,2.54-2l2.34-2.15.51-.47v1.68c0,.39-.19.54-.43.86q-.66.86-1.36,1.7A19.66,19.66,0,0,1,185.5,121c-1.27.77-2.92,1.3-4.28.39-1.88-1.26-2.3-4.12-2.39-6.19a20.35,20.35,0,0,1,1.31-7.48,47.57,47.57,0,0,1,3.54-7.78,46.36,46.36,0,0,1,4.5-6.71,20.4,20.4,0,0,1,2.66-2.76,10.67,10.67,0,0,1,1.19-.87,3,3,0,0,1,1.43-.6c1,0,.92,1.5.92,2.19a11.73,11.73,0,0,1-.33,2.67A25.42,25.42,0,0,1,191.38,100.31Zm-.28-6c-.4,0-.83.46-1.09.73a10.54,10.54,0,0,0-.93,1.08,25,25,0,0,0-2,3.24,31.68,31.68,0,0,0-3.14,8.3,32.15,32.15,0,0,0,5.23-7,28.64,28.64,0,0,0,1.79-3.56C191.08,96.76,192.11,94.31,191.09,94.31Zm5.61,22.48c1.47,1.68,4.13.64,5.74-.24a31.08,31.08,0,0,0,5.12-3.84v1.59c0,.16-.25.35-.35.47l-.68.79q-.71.8-1.45,1.57a16,16,0,0,1-6,4.33c-2.22.74-4.74.55-6.24-1.43a9.18,9.18,0,0,1-1.25-6.8,11.88,11.88,0,0,1,3.46-6.29,18.75,18.75,0,0,1,6.65-4.74c1.77-.68,5.5-1.34,5.63,1.53.11,2.51-1.93,4.55-3.79,5.93a30.43,30.43,0,0,1-5.66,3.21q-.79.36-1.58.68c-.18.07-.33.06-.33.26v.48A3.7,3.7,0,0,0,196.71,116.79Zm3.59-7.14a11.25,11.25,0,0,0,2.92-3.33c.22-.41.54-1,.35-1.47s-1-.21-1.37,0c-2.81,1.28-5.47,4-6,7.15A15.12,15.12,0,0,0,200.3,109.65ZM217.94,116a4.73,4.73,0,0,0,2.21-.81,26.8,26.8,0,0,0,3.53-2.53v1.67c0,.36-.6.75-.84,1l-1.4,1.41c-.84.82-1.68,1.64-2.6,2.38a8.1,8.1,0,0,1-3.15,1.84c-2.58.57-3.41-2.51-3.2-4.47.28-2.61,2-5,3.58-7.09q.63-.84,1.31-1.65c-1.1.24-2.22.43-3.33.63l-1.64.3c-.28.05-.31.06-.44.32s-.28.52-.43.77a20.11,20.11,0,0,1-4.27,5v-1.71c0-.18.33-.45.44-.59q.35-.43.69-.88c.37-.49.73-1,1.05-1.52a2.39,2.39,0,0,1-1.42-1,2.52,2.52,0,0,1-.12-1.67,10,10,0,0,1,2.15-3.9,6.31,6.31,0,0,1,3.1-2.43c1.59-.34.28,1.82,0,2.31,2-.31,4.09-.64,6.14-.81.58,0,1.44-.21,1.89.24a3.18,3.18,0,0,1,.69,1.58,2.94,2.94,0,0,1,0,1.7,8.81,8.81,0,0,1-2,2.41,16.52,16.52,0,0,0-2.33,3.05C216.85,112.85,215.2,116,217.94,116ZM67.34,140.63c2.06.48,4.36,1.07,5.94,2.57a6.18,6.18,0,0,1,1.64,6.12c-1.24,4.66-6.91,5.78-11,5.81-4.48,0-9,0-13.43,0h-.69c-.09,0,0-.18,0-.25v-.45c0-.09.69-.06.82-.07a3.2,3.2,0,0,0,2.67-1,5,5,0,0,0,.41-2.66c0-1.65,0-3.29,0-4.94,0-4.58.07-9.16,0-13.74a4.39,4.39,0,0,0-.48-2.61,3.5,3.5,0,0,0-2.75-.93c-.11,0-.66,0-.66-.06v-.45c0-.09-.06-.25.05-.25h8.7c2.3,0,4.62-.07,6.92.07a10.5,10.5,0,0,1,5.74,1.62,6.44,6.44,0,0,1,2.64,6.35C73.1,138.73,70,140,67.34,140.63Zm-7.42,9.77a5.61,5.61,0,0,0,.18,2.09c.45,1.13,1.74,1.21,2.79,1.09A5.46,5.46,0,0,0,67.73,149c.4-2.28-.24-5.22-2.36-6.48a7,7,0,0,0-2.81-.81c-.59-.07-1.18-.1-1.77-.11-.16,0-.84-.13-.84.07Q59.93,146,59.92,150.4Zm6.45-18.85c-1.23-2-3.54-2.34-5.7-2.38-.13,0-.68-.12-.68.06v.35q0,.68,0,1.35L60,139v1.07c2.15,0,4.54-.19,6-2A6.15,6.15,0,0,0,66.37,131.55Zm28.15,23.14a4.74,4.74,0,0,1-4.11.39,3.32,3.32,0,0,1-1.94-2.87c-1.65,1.49-3.72,3-6,3.15a3.74,3.74,0,0,1-4-4.24c.22-2,1.7-3.4,3.3-4.44a47.76,47.76,0,0,1,6.06-3.2c.09,0,.65-.24.65-.32v-1.36a22.17,22.17,0,0,0-.08-2.48,2.27,2.27,0,0,0-1.67-2,3.42,3.42,0,0,0-3.33.75,1,1,0,0,0,.07,1.25,4.68,4.68,0,0,1,1,1.66,2.34,2.34,0,0,1-1.55,2.59,3.28,3.28,0,0,1-3.22-.6,2.73,2.73,0,0,1-.6-3.17c.93-2.37,3.56-3.5,5.89-3.95s5.09-.43,7,1.11a4.77,4.77,0,0,1,1.83,2.51,13.89,13.89,0,0,1,.21,2.83c0,1,0,2.07,0,3.11v4.51c0,.53,0,1.05,0,1.58s.06,1,.48,1.2c.6.32,1.09-.22,1.38-.68l.41.33.19.16a3.53,3.53,0,0,1-.37.55A6.63,6.63,0,0,1,94.52,154.69Zm-6-10.15c-1.85,1.07-4.61,2.94-4.47,5.39a2.1,2.1,0,0,0,2.1,2,2.57,2.57,0,0,0,1.27-.41c.21-.12,1.1-.62,1.1-.87Q88.47,147.62,88.47,144.54Zm26-4.11a2.32,2.32,0,0,1-3,.33c-.84-.55-1.33-1.55-2.46-1a4.42,4.42,0,0,0-1.88,2.93,13.68,13.68,0,0,0-.44,3.59q0,1.79,0,3.58,0,.51,0,1a7.42,7.42,0,0,0,.13,2.28,1.58,1.58,0,0,0,1,1,3.9,3.9,0,0,0,.72.15c.18,0,.64-.05.64.16,0,.06,0,.65,0,.65H98.94a2,2,0,0,1,0-.5c0-.2-.06-.24.16-.26a3.09,3.09,0,0,0,.91-.23c.8-.36.88-1.18.95-2,.08-1,.06-2,.06-3v-8a8.67,8.67,0,0,0-.21-3.14,1.51,1.51,0,0,0-1-.94,4.68,4.68,0,0,0-.87-.17c0-.06,0-.34,0-.42s-.07-.33.05-.33h7.51c.15,0,.08,1.63.08,1.82q0,1.22,0,2.45c1.26-2,2.85-4.32,5.33-4.78a2.54,2.54,0,0,1,2.92,1.24A3.51,3.51,0,0,1,114.43,140.44Zm.77,7.22v-3.39a4.42,4.42,0,0,1,0-.84h11.61c.22,0,.22,0,.22.19v3.76c0,.25.06.28-.17.28H115.2Zm31.18-7c2.06.48,4.36,1.07,5.94,2.57a6.18,6.18,0,0,1,1.64,6.12c-1.24,4.66-6.91,5.78-11,5.81-4.48,0-9,0-13.43,0h-.69c-.09,0,0-.18,0-.25v-.45c0-.09.69-.06.82-.07a3.2,3.2,0,0,0,2.67-1,5,5,0,0,0,.41-2.66c0-1.65,0-3.29,0-4.94,0-4.58.07-9.16,0-13.74a4.39,4.39,0,0,0-.48-2.61,3.5,3.5,0,0,0-2.75-.93c-.11,0-.66,0-.66-.06v-.45c0-.09-.06-.25.05-.25h8.7c2.3,0,4.62-.07,6.92.07a10.5,10.5,0,0,1,5.74,1.62,6.44,6.44,0,0,1,2.64,6.35C152.15,138.73,149.06,140,146.38,140.63ZM139,150.4a5.61,5.61,0,0,0,.18,2.09c.45,1.13,1.74,1.21,2.79,1.09a5.46,5.46,0,0,0,4.85-4.57c.4-2.28-.24-5.22-2.36-6.48a7,7,0,0,0-2.81-.81c-.59-.07-1.18-.1-1.77-.11-.16,0-.84-.13-.84.07Q139,146,139,150.4Zm6.45-18.85c-1.23-2-3.54-2.34-5.7-2.38-.13,0-.68-.12-.68.06v.35q0,.68,0,1.35l0,8.11v1.07c2.15,0,4.54-.19,6-2A6.15,6.15,0,0,0,145.41,131.55Zm11.24,16.1v-3.39a4.42,4.42,0,0,1,0-.84h11.61c.22,0,.22,0,.22.19v3.76c0,.25.06.28-.17.28H156.66Zm40.35,3a12.82,12.82,0,0,1-7.75,4.71,7.7,7.7,0,0,0,3.47,4.32,10.62,10.62,0,0,0,6.09.9v1.17c0,.16-.54.2-.69.23a23.75,23.75,0,0,1-3.93.56A13.11,13.11,0,0,1,187,161a11.3,11.3,0,0,1-4.6-5.06l-.18-.41c-.08-.19-.15-.16-.35-.2l-.84-.22a14.45,14.45,0,0,1-1.72-.61,13.18,13.18,0,0,1-2.92-1.74,14.51,14.51,0,0,1-5.23-12.68,14,14,0,0,1,7-11.11,16,16,0,0,1,13.62-.71A13.9,13.9,0,0,1,200,138.38,15,15,0,0,1,197,150.66Zm-5.63-18.35a6.44,6.44,0,0,0-4.6-3.63,5.93,5.93,0,0,0-5.41,1.8,11.32,11.32,0,0,0-2.53,5.67,30.53,30.53,0,0,0-.33,7.84c.28,3.77,1.41,9.21,5.82,10.09a6,6,0,0,0,5.87-1.88,11.91,11.91,0,0,0,2.32-5.47,31.7,31.7,0,0,0,.29-8.28A15.87,15.87,0,0,0,191.37,132.31Z"/></svg>