<svg xmlns="http://www.w3.org/2000/svg" viewBox="0 0 250 250"><defs><style>.a,.c{fill:#568d3f;}.b{fill:#f9d433;}.b,.c{stroke:#fff;stroke-miterlimit:10;stroke-width:1.37px;}</style></defs><title>Fast Food</title><path class="a" d="M91.83,103.66A8.21,8.21,0,1,1,83.64,96a7.94,7.94,0,0,1,8.19,7.65Z"/><path class="a" d="M196.5,105.41a8.22,8.22,0,1,1-8.2-7.67,7.95,7.95,0,0,1,8.2,7.67Z"/><path class="a" d="M39.61,124.37s6.57-4.23,5.21-14.31c-.15-.74,1.23-12.32-17.45-12.32H16v59.51s30.36,4.42,30.36-21c0,0,.23-6.66-6.8-11.9ZM26.24,146h0V132.1s7.93.61,7.93,7-7.93,7-7.93,7Zm0-25.07h0V107s7.93.6,7.93,7-7.93,7-7.93,7Z"/><polygon class="a" points="52.42 102.98 62.58 101.05 62.58 143.32 74.41 143.32 74.41 152.82 52.42 152.82 52.42 102.98 52.42 102.98"/><polygon class="a" points="77.93 118.37 88.1 115.65 88.1 156.13 77.93 154.97 77.93 118.37 77.93 118.37"/><polygon class="a" points="99.3 104.83 95.15 153.23 105.31 156.13 109.06 120.06 113.61 153.62 123.99 156.13 131.25 122 133.53 154.97 144.73 156.13 139.97 98.72 127.72 101.05 119.94 134.61 112.37 102.5 99.3 104.83 99.3 104.83"/><path class="a" d="M149.24,102.45l2.19,55,9.47-1.9-.57-14.17s17.74-2.65,17-20.87-18.39-20.21-28.11-18Zm10.24,28h0l-.74-18.7s8.36,1.32,8.46,9-7.71,9.67-7.71,9.67Z"/><polygon class="a" points="183.74 119.14 193.9 117.21 192.45 157.1 182.7 155.25 183.74 119.14 183.74 119.14"/><polygon class="a" points="202.4 103.66 202.4 154.97 221.08 156.13 221.08 145.28 211.74 144.89 211.74 134.61 219.22 134.61 220.03 124.91 211.74 124.91 211.74 113.07 220.14 112.61 218.37 103.19 202.4 103.66 202.4 103.66"/><path class="a" d="M234,152.24a4.17,4.17,0,0,1-1.25,3.05,4.29,4.29,0,0,1-6.07,0,4.17,4.17,0,0,1-1.25-3.06,4,4,0,0,1,.41-1.82,4.23,4.23,0,0,1,1.15-1.48,4.12,4.12,0,0,1,2.69-1,4.19,4.19,0,0,1,1.79.38,4.1,4.1,0,0,1,1.84,1.58,4.24,4.24,0,0,1,.7,2.34Zm-4.32-3.67h0a3.38,3.38,0,0,0-2.52,1.08,3.58,3.58,0,0,0-1.05,2.58,3.62,3.62,0,0,0,1.05,2.61,3.54,3.54,0,0,0,5.09,0,3.62,3.62,0,0,0,1-2.61,4,4,0,0,0-.41-1.69,3.45,3.45,0,0,0-1.08-1.3,3.58,3.58,0,0,0-2.13-.68Zm.45,4.09h0l1.61,2.07h-1.16l-1.47-2v2h-.95v-5h1a2.48,2.48,0,0,1,1.52.37,1.37,1.37,0,0,1,.53,1.12,1.45,1.45,0,0,1-.28.86,1.36,1.36,0,0,1-.72.51l-.06,0Zm-1-.69h.16q1,0,1-.7t-1-.65h-.19V152Z"/><path class="b" d="M93.91,100.87a8.21,8.21,0,1,1-8.19-7.65,7.94,7.94,0,0,1,8.19,7.65Z"/><path class="b" d="M198.58,102.62a8.22,8.22,0,1,1-8.2-7.67,7.95,7.95,0,0,1,8.2,7.67Z"/><path class="c" d="M41.69,121.58s6.57-4.23,5.21-14.31C46.75,106.53,48.12,95,29.45,95H18.13v59.51s30.36,4.42,30.36-21c0,0,.23-6.66-6.8-11.9ZM28.32,143.23h0V129.31s7.93.61,7.93,7-7.93,7-7.93,7Zm0-25.07h0V104.24s7.93.6,7.93,7-7.93,7-7.93,7Z"/><polygon class="c" points="54.5 100.19 64.66 98.25 64.66 140.53 76.49 140.53 76.49 150.03 54.5 150.03 54.5 100.19 54.5 100.19"/><polygon class="c" points="80.01 115.58 90.18 112.86 90.18 153.34 80.01 152.18 80.01 115.58 80.01 115.58"/><polygon class="c" points="101.38 102.03 97.23 150.43 107.4 153.34 111.14 117.26 115.69 150.82 126.07 153.34 133.33 119.2 135.62 152.18 146.81 153.34 142.05 95.92 129.8 98.25 122.02 131.81 114.45 99.71 101.38 102.03 101.38 102.03"/><path class="c" d="M151.32,99.66l2.19,55,9.47-1.9-.57-14.17s17.74-2.65,17-20.87-18.39-20.21-28.11-18Zm10.24,28h0l-.74-18.7s8.36,1.32,8.46,9-7.71,9.67-7.71,9.67Z"/><polygon class="c" points="185.82 116.35 195.98 114.42 194.53 154.31 184.78 152.46 185.82 116.35 185.82 116.35"/><polygon class="c" points="204.48 100.87 204.48 152.18 223.16 153.34 223.16 142.48 213.82 142.09 213.82 131.81 221.3 131.81 222.11 122.11 213.82 122.11 213.82 110.28 222.22 109.81 220.45 100.39 204.48 100.87 204.48 100.87"/></svg>