<svg xmlns="http://www.w3.org/2000/svg" viewBox="0 0 250 250"><title>Casual dining</title><path d="M135.53,80.23l1.48,1.3-.46.33c-3.15-.9-6.39-.63-9.58-.53-4.37.13-6.69,2.1-8,6.24a7.49,7.49,0,0,0,.47,5.1c1.16-.55,2.76-.63,2.44-2.62a.93.93,0,0,1,.57-1.08c.67-.23.75.44,1.05.81.82,1,1.78,2,3.18,1.41s2.63-.11,3.83-.47c3.06-.91,6.38.76,9.31-1l-.91,1.72c-2,1.37-1.86,4-3.35,5.73.87-2.85-.83-3-2.88-2.7a16.19,16.19,0,0,1-3.84.46c-1.93-.23-2.32.68-2.26,2.24-1.28-1.63-1-4.16-3.51-6l3.59,8.3a5.06,5.06,0,0,1-.87.22,3.58,3.58,0,0,1-1-.06c-3.78-.92-4.56-.41-5.82,3.2-.8,2.31.54,4.39.33,6.63-.17,1.78,0,1.79,1.84,3.33.15.12.25.58.16.67-.73.75-1,2.27-2.59,1.72,1.22-1.81.56-3.4-.67-4.85-.73-.86-1.61-1.59-2.39-2.4-3.51-3.61-3.1-8,.89-11.08,1.48-1.14,2.94-2.35,1.74-4.72-.58-1.15-.48-2.65-.68-4l.53-2.11c1.17-3.3,3.87-4.76,6.93-5.79Zm-17.09,28.9c.55-1.19-.18-1.78-.46-2.47-1.06-2.65-.05-4.95,1.33-7a3.89,3.89,0,0,1,4.13-1.49c.52.09,1.32,1.16,1.52-.24.15-1.06-.09-2.09-1.36-2.39-4.12-1-9,3-9.14,7.16C114.37,105.71,116.52,107.19,118.43,109.13ZM123,90.6c-.11-.14.08-.62-.38-.57-.08,0-.19.45-.16.67s.26.53.38.52S123.16,91,123,90.6Z"/><path d="M118.07,86l-.53,2.11H33.65a6.32,6.32,0,0,0-6.55,6.47q0,18.54,0,37.08c0,.83-.29,1.7.46,2.47,2.21,2.29,4.59,4,8,4q47.73-.07,95.46,0c4.47,0,8.94-.05,13.41-.08,3.93,1.29,8.34-.16,12.11,2.1-.87,0-1.75.08-2.62.08H34.58A9.27,9.27,0,0,1,25,130.76q0-18.54,0-37.07A7.48,7.48,0,0,1,32.62,86Z" style="fill:#fe0000"/><path d="M142.46,86h73.06a9.31,9.31,0,0,1,9.48,9.3q0,18.66,0,37.32a8.06,8.06,0,0,1-7.6,7.59H173.51a2.51,2.51,0,0,1,1-2.19c14.11,0,28.22.08,42.33.06,2.53,0,6.09-3.67,6.09-6.08q0-18.93,0-37.86c0-.66.2-1.34-.39-2-2.19-2.31-4.56-4.09-8-4.09q-35.76.06-71.52,0C143.07,87.36,142.13,86.85,142.46,86Z" style="fill:#fe0000"/><path d="M143.13,166.55l-1.29-1.29a3.13,3.13,0,0,0,0-2.69q5.4-5.89,11.29-11.29c1.1.46,1.87.35,1.85-1.09l0,0a10.42,10.42,0,0,0,9.11.06.68.68,0,0,1,1,.57l0-.07a82.61,82.61,0,0,0-6.42,15.74c-.35,1.25-.79,3.12-2.44,2.56-1.85-.62-5.17.11-4.43-4.08-2,2.9-2.77,3-6,2.17C145,166.91,144.25,165.59,143.13,166.55Zm8.92-1.44a52.47,52.47,0,0,0,6.89-12.64A55.14,55.14,0,0,0,152.05,165.11Z" style="fill:#fea7a7"/><path d="M156.58,140.14c-3.76-2.26-8.17-.81-12.11-2.1l-8.42-4.21c-1-1.36-3.34-1.34-3.4-3.56a10.77,10.77,0,0,1,3.19,2,13.38,13.38,0,0,0,4.18,2.36,2.46,2.46,0,0,0,3.13-.9c.7-1,1.62-1.79,2.34-2.74,3-3.92,6.11-7.82,2.63-13.05,0,0,.23-.23.36-.36,3.48,1.09,7.19.4,10.54.19a20.07,20.07,0,0,1,13.34,3.4c1,1,2.61,1.28,3,2.88l-.4.4-3-2.06c-.06.43-.11.66-.12.9-.39,7.21-3.28,13-9.85,16.43-1,.53-.55,1.44-1,2C160.06,139.79,157.87,141.17,156.58,140.14Zm14.21-16.45c-.19-.81.49-2-.53-2.6a18.94,18.94,0,0,0-8.34-2.94c-1.29-.11-2,.33-1.25,1.89,1.07,2.36.69,4.79.22,7.31-.72,3.86-3.61,6.12-5.85,8.88-.4.49-1.61.91-.45,1.74,1.36,1,2.75,1.79,4.63,1.47C165.94,138.3,170.48,130.46,170.79,123.69Zm-10.51.33c0-4.3-1.11-5.37-5.47-5.37-.79,0-1.58,0-2.36,0-1.4.11-2.53.27-1.38,2.2a4.62,4.62,0,0,1,0,3.55,20.45,20.45,0,0,1-5,8.16c-2.95,3.2-3,3.33,1.05,4.66,1.94.63,4.64,2.08,6-.4,1-1.82,2.49-3,3.75-4.51A12.86,12.86,0,0,0,160.29,124Z"/><path d="M161,141.8c.46-.61,0-1.51,1-2,6.56-3.48,9.46-9.22,9.85-16.43,0-.24.06-.47.12-.9l3,2.06c1.24,3.36,1.74,6.69.16,10.13-2.53,5.52-7.13,7.91-14.1,7.2Z" style="fill:#fea7a7"/><path d="M161,141.81c7,.71,11.57-1.68,14.1-7.2,1.58-3.44,1.08-6.78-.16-10.13l.4-.4c2,3.07,2.13,6.39,1.31,9.84L174.47,138a2.51,2.51,0,0,0-1,2.19c-.11,1.15-.05,2.37-1.1,3.2L172,143c.3-.81,1-1.85.31-2.43s-1.38.51-2.08.91c-1.84,1-3.84,2.4-6,1.78-2.54-.74-3.61.86-4.78,2.29-.59.72-1.15,1.48-1.75,2.2-.34.41-1.25.63-.83,1.36.32.56.81,1.25,1.64,1.06,3.33-.74,7.05-.25,9.79-3l.41.39c-.66,1.73-1.67,3-3.69,3.19a.68.68,0,0,0-1-.57,10.42,10.42,0,0,1-9.11-.06C156.2,146.84,159.25,144.79,161,141.81Z"/><path d="M143.13,166.55c1.12-1,1.83.36,2.68.59,3.2.87,4,.73,6-2.17-.74,4.19,2.58,3.46,4.43,4.08,1.65.56,2.09-1.31,2.44-2.56a82.61,82.61,0,0,1,6.42-15.74c.25,1.8-1,3.06-1.6,4.57-1.62,4.15-3.26,8.3-4.63,12.54-.58,1.79-1.78,2.16-3.05,1.75-1.51-.49-3.31-.38-4.51-1.7-.36-.39-.66-.13-1.09,0A8,8,0,0,1,143.13,166.55Z"/><path d="M142.46,86c-.33.83.62,1.34.53,2.11a2.48,2.48,0,0,1-.79,1.59c-.69-.44-.07-.84,0-1.28.14-1.06-.33-1-1-.39a4.37,4.37,0,0,0-1.78-3.68c-.58-.49-1.64-.88-1.27-2v0C140.17,82.9,141.14,84.66,142.46,86Z"/><path d="M171.36,144.48c-.38,1.47-.84,2.87-2.63,3.16l-.41-.39c.93-1,1.4-2.4,2.63-3.16Z"/><path d="M141.84,162.57a3.13,3.13,0,0,1,0,2.69Q140,163.91,141.84,162.57Z"/><path d="M172.41,143.43q.1,1.16-1.05,1.05l-.4-.4,1-1Z"/><path d="M155,150.18c0,1.45-.75,1.55-1.85,1.09Z"/><path d="M137,81.53c.3.41,1.07.08,1.19.77v0c-.7.4-1.19,0-1.64-.46Z"/><path d="M136.05,133.83l8.42,4.21c-4.47,0-8.94.08-13.41.08q-47.73,0-95.46,0c-3.44,0-5.81-1.72-8-4-.74-.77-.46-1.64-.46-2.47q0-18.54,0-37.08a6.32,6.32,0,0,1,6.55-6.47h83.89c.21,1.34.1,2.84.68,4,1.2,2.37-.26,3.59-1.74,4.72-4,3.06-4.4,7.46-.89,11.08.79.81,1.67,1.54,2.39,2.4,1.23,1.45,1.89,3,.67,4.85l-.51.55-2.07-1.33,0,0-1.07-1.6,0,0a1.8,1.8,0,0,0-1.11-1.07l.06.07c-.42-2.92-2.74-5.34-2.22-8.52,0-.23-.52-.8-.75-.78s-.6.48-.77.93c-1.53,4.27.48,7.65,2.66,11l-.06-.06,1.09,1.89,0,.2.2,0a1.2,1.2,0,0,1,.1.23c0,.05,0,.16,0,.16-2,.47-3.15-1.63-5-1.49h0a4.67,4.67,0,0,1-3.3-4c-.87-4.65-2.52-9.14-3.08-13.88-.07-.62-.6-.46-1-.4-2.13-.25-3.55-.58-3.89,2.78a50.62,50.62,0,0,1-3.51,13.75c-.38.94-1.5,1.61-.93,2.85,1.41,1.11,3,.32,4.54.49.76.08.65-.63.62-1.1,0-.67.36-1.72-1-1.41l-.53-.18c.68-4.55.68-4.55,4.21-4.74.07,1.7,2.69,3.51-.31,5.15-.43.23-.76,2.09.48,2.2,1.7.14,3.54.68,5.18-.42l.94.57-.05,0a8.91,8.91,0,0,0,5.51,2.47c1.32.06,2.13,1.67,3,1.09,1.49-1,2.86-.17,4.25-.34-2.18.7-4.33,1.47-6.67.46a9,9,0,0,0-7.65,0,7.83,7.83,0,0,1-6.3-.14,7.47,7.47,0,0,0-6.15,0,8.81,8.81,0,0,1-7.07,0,6.9,6.9,0,0,0-5.9-.05,8.54,8.54,0,0,1-6.81.14,8.08,8.08,0,0,0-6.9,0,8.11,8.11,0,0,1-6.56,0,7.47,7.47,0,0,0-6.39,0c-2.48,1.06-5,.59-7.55-.29-1-.35-2-1.1-3.23-.54a13.1,13.1,0,0,1-11.44,0c-1.47-.67-2,0-1.94,1.58.09,2.19,0,4.38,0,6.58,0,4.15,1.7,5.87,5.8,5.87h80.52C122.72,133.91,129.39,133.86,136.05,133.83ZM44.46,104.4l.05,0c-.08-.69-.86-.39-1.13-.81v0l1.89-1.36.74-.74C48,99.26,47.6,96.76,45,94.17l-1.26-1.26c-.47-.72-1.15-.63-1.85-.49-2.88,0-5.76-.21-8.63,0-1.16.08-5-1.65-2.46,2.47.23.38.06,1,0,1.55-.34,6.7.86,13.48-1,20.12,1.14,1.1,2.55.54,3.79.47,3.1-.16,6.27.71,9.32-.47l0,0a4,4,0,0,0,2.37-1.13l.74-.74c3.27-3.2,3.11-6.67-.46-9.77h0C45.43,104.29,44.87,104.49,44.46,104.4Zm46.87,3.17h0a1.38,1.38,0,0,0-1.55-.64l.08,0-.11-.95h0a1.5,1.5,0,0,0,1.6-1.07l0,0c.74-1.58,2.13-3.15.08-4.77-2.35-2.69-8.87-4.36-12.11-3.15a1.08,1.08,0,0,0-.51,1.66c1.58,1,1,2.48.91,3.72-.19,4.7.82,9.48-.92,14.08,3.24,1.2,6.59.21,9.87.51a2.5,2.5,0,0,0,2.18-1l0,0c.66-.13.46-.68.55-1.1l0,.05a3.37,3.37,0,0,0,.62-5.94l0,.06A1.38,1.38,0,0,0,91.33,107.57Zm-15.75-.63.08,0-.11-.95h0a1.5,1.5,0,0,0,1.6-1.07l0,0c1.2-1.57,1.86-3.15.08-4.77-2.35-2.69-8.87-4.36-12.11-3.15a1.08,1.08,0,0,0-.51,1.66c1.58,1,1,2.48.91,3.72-.19,4.7.82,9.48-.92,14.08,2.86,1.21,5.85.21,8.76.52A4,4,0,0,0,76.85,116a.25.25,0,0,0,.21-.22c2.35-1.71,2.38-6.21.06-8.19h0A1.38,1.38,0,0,0,75.58,106.94Zm-17.45,7.48,0,0c-1.11,1-2.4.4-3.62.44l0,0-.1-15.61c.49-.33,1.17-.6.95-1.34A1.28,1.28,0,0,0,54,97.06c-1.57,0-3.14,0-4.7,0-.49,0-1.12-.1-1.11.68,0,.41.08,1.16.21,1.18,2.07.31,1.27,1.9,1.31,3,.09,2.44.13,4.88,0,7.31-.18,3.23.87,5.72,3.8,7.29a7.07,7.07,0,0,0,6,0l.74-.74A4,4,0,0,0,61.89,112c-.13-4.24,0-8.49,0-12.74.49-.33,1.17-.6,1-1.34a1.26,1.26,0,0,0-1.41-.86c-.87,0-1.74,0-2.61,0-.5,0-1.12-.09-1.11.68,0,.54-.31,1.35.66,1.39,1.14,0,.89.84.88,1.47,0,4.43,0,8.86-.08,13.29C58.72,113.93,58.24,113.82,58.13,114.42Z" style="fill:#fefefe"/><path d="M118.16,115.73l.51-.55c1.59.55,1.85-1,2.59-1.72.09-.09,0-.55-.16-.67-1.83-1.54-2-1.55-1.84-3.33.21-2.24-1.13-4.32-.33-6.63,1.26-3.61,2-4.12,5.82-3.2a3.58,3.58,0,0,0,1,.06,5.06,5.06,0,0,0,.87-.22l-3.59-8.3c2.56,1.83,2.23,4.35,3.51,6l0,0c.4,2.79,2.3,4.06,4.82,4.11s3.93-1.58,4.19-4.11v0c1.49-1.69,1.31-4.36,3.35-5.73l.36.43-.61,2c-1.37,1.49-1.58,3.46-2.54,5.41,1.73-.64,3.35-2.79,4.19.41-.62.62-1.22-.07-1.85,0-1.31.06-2,.52-1.86,1.88s1.1,1.36,2.11,1.32c2.53-.09,1.11-2.1,1.56-3.21a18.54,18.54,0,0,1,1.09,11.68h0c-1.75.59-1.75.59-3.16-.6a1.57,1.57,0,0,0-1.05-1.58c-.8-2.2-2.51-1-3.19-.38-1.13,1.08-1.79,2.73.17,4,.4.91.21,2.75,2.27,1.27l-1.89-1.69c.09-.93-1.3-1.83-.11-2.77a1.85,1.85,0,0,1,2.36,0c.41.45.32,1.24,1,1.52.92,1.17,1.18,3.09,3.32,2.83l.2,0,0,.2c-.79.87.12,1.32.58,1.4s1.11-.44.44-1.16l0,0c1.37.15,1.21-.73,1.07-1.6l0,0c1.66-.49,1.58-1.86,1.6-3.17v0c1.05.49.92-.34,1.12-.93a52.56,52.56,0,0,0,1.86-8.72c.74,5.38-1.22,10.27-3.16,15.46,2.35-1.14,2.35-1.14,2.37-2.52l-.08-.68-.05,0h.86c.07.2,0,.65.36.44.5-.34.9-.85.43-1.53h0c2.22-1.49,3-3.71,3.16-6.23.72-.37.5-1.08.62-1.68,1.59-1.07.68-3,1.53-4.31v6.46a9.66,9.66,0,0,0-1,4.25v0c-1.14-.4-1.09.36-1.08,1.1l.06-.08c-.79.72-1.51,1.47-1.09,2.68l0,0c-1.37-.15-1.21.73-1.07,1.6v0c-1.14-.4-1.09.36-1.08,1.1l.06-.06c-1.27-.13-1.79,1.08-2.74,1.52l-1.88.21a3.53,3.53,0,0,0,2.86,1.55c.3-.79-1.34-.47-.56-1.38.53-1,1.5.67,2-.35h0c-.13.12-.38.33-.36.36,3.49,5.23.34,9.13-2.63,13.05-.72,1-1.64,1.72-2.34,2.74a2.46,2.46,0,0,1-3.13.9,13.38,13.38,0,0,1-4.18-2.36,10.77,10.77,0,0,0-3.19-2h0c.46-1.65,2.09-1.53,3.24-2.14,3.2-1.69,6.25-3.53,7-7.47.29-1.52,1-1,1.8-.56a3.56,3.56,0,0,0,2.71,1.19c.77,0,.83-.48.74-1,0-.21-.29-.67-.44-.4-1.06,1.86-1.78-.1-2.64-.18l-3.93-1.93c-.28-.67-1.05-.59-1.51-1-1.79-2.06-1.91-.21-2.3,1-4.87,2.68-9.74,2.28-14.61,0-.42-.5-.86-.77-.23-1.65,1.26-1.74,2.59-1.65,4.61-.57-2.43-1.42-1.09-2.77-.46-4s.59-2.42-.75-3.25c-.32-.39-.64-.87-1.23-.51-.17.1-.2.44-.3.66l1.16.28c1.11,2,.13,3.56-1.3,4.56a41.43,41.43,0,0,0-4.31,4c-.45.41-1.23.31-1.51,1-2.39,1.57-.74-.9-1.23-1.23l-.07.07C118.16,117.22,118.67,116.88,118.16,115.73Zm4.48-15.5c-1.13-.07-1.85.3-1.85,1.58s.72,1.59,1.85,1.59,1.85-.31,1.85-1.59S123.76,100.16,122.63,100.23Zm10.26,15.42c-1.88,1.42-3.81,1.05-5.75.23C130.56,118.13,131.21,118.12,132.89,115.65Zm-11.07-3.41c.69-1,2.39-1.46,1.92-3.46C122.75,109.9,121.85,110.81,121.82,112.24Z" style="fill:#fea7a7"/><path d="M136.54,81.85c.45.5.94.86,1.64.46-.37,1.16.69,1.55,1.27,2A4.37,4.37,0,0,1,141.23,88l-.15.09c-1.48-.31-1.51.57-1.33,1.62l0,0c-2.94,1.78-6.25.11-9.31,1-1.21.36-2.54-.11-3.83.47s-2.36-.42-3.18-1.41c-.31-.37-.38-1-1.05-.81a.93.93,0,0,0-.57,1.08c.32,2-1.28,2.07-2.44,2.62a7.49,7.49,0,0,1-.47-5.1c1.33-4.14,3.64-6.12,8-6.24C130.16,81.23,133.39,81,136.54,81.85Z" style="fill:#898989"/><path d="M118.43,109.13c-1.91-1.95-4.06-3.42-4-6.46.1-4.19,5-8.14,9.14-7.16,1.27.3,1.51,1.33,1.36,2.39-.2,1.4-1,.33-1.52.24a3.89,3.89,0,0,0-4.13,1.49c-1.38,2.09-2.39,4.39-1.33,7C118.25,107.35,119,107.95,118.43,109.13Z" style="fill:#898989"/><path d="M126.57,97.15c-.06-1.56.33-2.47,2.26-2.24a16.19,16.19,0,0,0,3.84-.46c2-.27,3.75-.15,2.88,2.7l0,0c-.84-.52-.88.22-1.16.7-1.82,3.1-4,3.22-6.43.45-.37-.42-.12-1.83-1.42-1.14Z" style="fill:#898989"/><path d="M141.08,88.13l.15-.09c.62-.59,1.1-.67,1,.39-.06.45-.68.84,0,1.28l-.58.53c-1.75-.88-1.15,1.69-2.35,1.61l-.36-.43.91-1.72,0,0Z" style="fill:#fea7a7"/><path d="M123,90.6c.21.35.09.6-.16.62s-.34-.32-.38-.52.07-.66.16-.67C123,90,122.84,90.47,123,90.6Z" style="fill:#fea7a7"/><path d="M141.61,90.24l.58-.53a2.48,2.48,0,0,0,.79-1.59q35.76,0,71.52,0c3.43,0,5.79,1.78,8,4.09.6.63.39,1.31.39,2q0,18.93,0,37.86c0,2.42-3.56,6.08-6.09,6.08-14.11,0-28.22,0-42.33-.06l2.19-4.12h38.11c3.46,0,5.42-1.93,5.48-5.45,0-2.45-.06-4.91,0-7.36.07-1.84-.46-2.31-2.27-1.62-2.74,1-5.59,2-8.5.71a8,8,0,0,0-6.89,0,8.42,8.42,0,0,1-6.8-.13,7.24,7.24,0,0,0-5.9,0c-1.55.61-3.48,1.37-5,.56-4.36-2.26-8.38-.43-12.51.58A20.07,20.07,0,0,0,159,117.8c-3.35.21-7.07.9-10.54-.19h0c-.58-.66,1-.88.31-1.56l-.06.06c1.06.32,1-.45,1.08-1.1v0l1.07-1.6,0,0c.57-.81,1.37-1.53,1.09-2.68l-.06.08c1.06.32,1-.45,1.08-1.1v0A3.53,3.53,0,0,0,154,107.6a13.47,13.47,0,0,0,1.61,3.25c1.55,2.61,3.37,5.16,6.72,5.78,2.18,1.28,4.35-.05,6.44-.25,3.59-.35,3.57-.67,3.55-4.58,0-1.4-.05-2.8-.08-4.2.83-1.09.8-2-.75-2.07-1.81-.12-3.64,0-5.46,0-.39,0-1-.13-1,.49a1.39,1.39,0,0,0,.5.83,5.3,5.3,0,0,1,0,7.62c-.41-.88-1.22-.53-1.83-.5a1.9,1.9,0,0,1-2.1-1.44A22.37,22.37,0,0,1,161.35,96l0,0A1.38,1.38,0,0,0,162,94.5l-.06.08c.61.3.76-.21,1-.57,2.43-.41,4.42-.13,6,2.27.61.94.59,2.84,2.45,2.81,2.32,0,.55-1.37.46-1.78-.49-2.11-.06-4.68-2.56-5.94-1.14.53-2,1.84-3.62.51-1.44-1.18-3.22-.75-4.82.18-2.53,1.47-4.21,3.74-5.86,6.06-.7-.42-.54-1-.21-1.52s.6-1.33-.06-1.54-1.12.49-1.23,1.28c-.3,2.34-.66,4.67-1,7-.12.59.1,1.31-.62,1.68l-3.16,6.23h0c-.65.08-.35.85-.78,1.08H147c.44-1.89.81-3.8,1.34-5.67.67-2.36.41-7.22-1-9.29A43.57,43.57,0,0,1,145,109.68v0c-1.1.77-.83,2.24-1.6,3.17l0,0-1.07,1.6,0,0c-.37,0-.76.14-1-.25l0-.2-.2,0c-.93-1,.44-1.7.27-2.59h0c1.43-1.5.93-3.7,1.87-5.32,2.07-3.55,1.63-6.91-.33-10.28l-1.28-1.28C138.8,93,140.41,91.64,141.61,90.24Zm41.78,24.19,0,0c-1.11,1-2.4.4-3.62.44l0,0-.1-15.61c.49-.33,1.17-.6.95-1.34a1.28,1.28,0,0,0-1.42-.86c-1.57,0-3.14,0-4.7,0-.49,0-1.12-.1-1.11.68,0,.41.08,1.16.21,1.18,2.07.31,1.27,1.9,1.31,3,.09,2.44.13,4.88,0,7.31-.18,3.23.87,5.72,3.8,7.29,1.24,1.14,2.73.42,4.09.48,2.75.12,4.24-1.44,4.24-4.19,0-4.52,0-9,0-13.57.49-.33,1.17-.6,1-1.34a1.26,1.26,0,0,0-1.41-.86c-.87,0-1.74,0-2.61,0-.5,0-1.12-.09-1.11.68,0,.54-.31,1.35.66,1.39,1.14,0,.89.84.88,1.47,0,4.43,0,8.86-.08,13.29C184,113.93,183.5,113.82,183.39,114.42Zm21.61.51,0,0-.13-15.79c.17-.51,1-.92.34-1.56-1.18-1.08-2.66-.39-4-.53s-1.29,1-1.48,1.72c-.62,2.42-.77,5-2.06,7.2-1.42-2.18-1.77-4.77-2.74-7.12-.3-.72-.1-2-1.56-1.74-3.72-.2-3.71-.2-3.17,3a9.61,9.61,0,0,1,0,1.56c0,3,.06,6.09,0,9.13,0,1.67.82,3.71-1.51,4.7-.11,0,0,.65,0,1,1.59,1.14,3.37.27,5.05.5.56.08.64-.38.65-.84,0-.73,0-1.45-1.05-1.15l-.53-.18.09-8.33c.71,2.35,2,4.51,2.25,7,.06.52-.67,2.55,1.35,2.35.83.25,1-.16,1.09-.91.62-3.55,2.16-6.78,3.56-10.06,0,3.88.67,7.81-.88,11.58,1.4,1.14,3,.27,4.54.51.44.07,1.09.19,1.14-.59S206.22,114.84,205,114.93Zm8.42,0a33.63,33.63,0,0,0,0-3.67c-.21-1.93.27-2.83,2.46-2.59,4.71.51,6.53-2.5,5-7.33-2.76-4.63-7.25-4.41-11.74-4.21a1,1,0,0,0-.76,1.78c1.2.77.86,1.82.8,2.75-.28,5,.87,10.06-.94,14.94,1.95,1.14,4.07.24,6.1.5.56.07.65-.38.66-.84,0-.73,0-1.45-1.05-1.15Z" style="fill:#fefefe"/><path d="M152.05,165.11a55.14,55.14,0,0,1,6.89-12.64A52.47,52.47,0,0,1,152.05,165.11Z"/><path d="M132.64,130.26h0c.06,2.21,2.44,2.2,3.4,3.56-6.66,0-13.33.08-20,.08H35.54c-4.1,0-5.8-1.72-5.8-5.87,0-2.19.07-4.39,0-6.58-.07-1.54.47-2.25,1.94-1.58a13.1,13.1,0,0,0,11.44,0c1.2-.56,2.24.19,3.23.54,2.52.89,5.06,1.35,7.55.29a7.47,7.47,0,0,1,6.39,0,8.11,8.11,0,0,0,6.56,0,8.08,8.08,0,0,1,6.9,0,8.54,8.54,0,0,0,6.81-.14,6.9,6.9,0,0,1,5.9.05,8.81,8.81,0,0,0,7.07,0,7.47,7.47,0,0,1,6.15,0,7.83,7.83,0,0,0,6.3.14,9,9,0,0,1,7.65,0c2.34,1,4.48.24,6.67-.46,2-1.17,3.13.13,4.23,1.51l0,0c.51,1.2.29,2.89,2.15,3.19l0,0c-.11,1-.17,2,1.34,1.64a.61.61,0,0,1,.22.22c-.3,1.49.63,1.47,1.64,1.34l-.05,0A5.6,5.6,0,0,0,132.64,130.26Zm-36-2.05c-1.4-1.88-2.66-3.59-3.94-5.3a1.64,1.64,0,0,0-1.89-.51c-.86.24-.49,1-.5,1.55,0,2-.06,4,0,6,0,.65-.51,1.84.83,1.74s.66-1.22.69-1.89c.09-1.52,0-3.05,0-4.92,2.38,1.64,2.81,4.31,4.72,5.75,2-1.38,2.24-4.34,4.76-5.56,0,2,0,3.74,0,5.48,0,.5-.09,1.1.68,1.16,1,.08.88-.61.89-1.22,0-2.1,0-4.2,0-6.3,0-.62.44-1.49-.47-1.83a1.87,1.87,0,0,0-2.27.84C99,124.85,97.86,126.46,96.61,128.21Zm-56.12,3.56a4.52,4.52,0,0,0,3.88-1.15c.66-.59,2-.71,1.62-2A2.35,2.35,0,0,0,43.84,127c-1.86-.25-3.69-.66-5.53-1-.49-.08-1.09.1-1.17-.68s.46-.7.92-1c1.95-1.07,3.68,0,5.47.41.54.13,1.11.32,1.37-.2s-.11-1-.74-1.37c-2-1.17-5.89-1.3-7.65,0-.71.54-1.81,1.13-1.44,2.27a2.63,2.63,0,0,0,2.2,2.17,36.51,36.51,0,0,0,4.61.44c.53,0,1.31-.33,1.48.59.21,1.14-.8.9-1.36,1.11a6,6,0,0,1-5.25-.29c-.62-.34-1.32-.78-1.7.16s.64,1.27,1.16,1.35C37.67,131.31,39,132.13,40.49,131.77Zm34.69-3.58c1.48-1.4,3.6-1.81,2.87-3.66-.66-1.69-2.35-2.36-4.24-2.2-2.16.18-5-.93-6.3.44s-.27,4.16-.4,6.32a1.5,1.5,0,0,0,0,.52c.24.77-.68,2.12,1,2.17s1.13-1.35,1-2.09c-.27-2.14.91-2.28,2.48-2.1,2.17.25,3.11,2.1,4.27,3.51.69.84,1.38.9,1.94.51.73-.51.26-1.26-.31-1.72C76.8,129.29,76,128.78,75.18,128.19Zm-24.92-1.34a14.87,14.87,0,0,0,0,2.61c.15.84-.8,2.37,1.1,2.31,1.65-.05,1-1.44.92-2.19-.13-1.67.49-2.21,2.08-2a8.39,8.39,0,0,0,2.09,0c2.18-.26,3.82,0,3.27,2.87-.14.72,0,1.36,1,1.36s1-.66,1-1.38c0-2,.06-4,0-6,0-.79.62-2.12-1.1-2.06-1.5.05-.81,1.23-1,2s.39,2-.47,2.1a20.23,20.23,0,0,1-6.25,0c-1.35-.26-.47-1.94-.63-3-.11-.72-.28-1.09-1.08-1.1s-1.06.39-1,1.11C50.28,124.58,50.27,125.72,50.26,126.85Zm63-4.52c-1.23,0-2.45,0-3.68,0-.9,0-1.51.1-1.48,1.24.06,2.36,0,4.73,0,7.1,0,.71.18,1.14,1,1.15s1.11-.32,1.08-1.08a9.38,9.38,0,0,0,0-1.31c-.38-2.07.59-2.58,2.47-2.38a16.7,16.7,0,0,0,3.93,0c1.39-.18,3.06-.75,3-2.33s-1.38-2.5-3.16-2.38C115.41,122.39,114.36,122.34,113.3,122.34ZM85,127.08c0-1.21,0-2.43,0-3.64,0-.73-.24-1.1-1-1.1s-1.06.35-1.06,1.09q0,3.64,0,7.29c0,.73.24,1.1,1,1.1s1.07-.35,1.06-1.09C85,129.51,85,128.29,85,127.08Z" style="fill:#4837fe"/><path d="M172.37,121.2c4.12-1,8.15-2.84,12.51-.58,1.56.81,3.5,0,5-.56a7.24,7.24,0,0,1,5.9,0,8.42,8.42,0,0,0,6.8.13,8,8,0,0,1,6.89,0c2.91,1.28,5.77.32,8.5-.71,1.81-.68,2.34-.22,2.27,1.62-.09,2.45,0,4.91,0,7.36-.06,3.52-2,5.45-5.48,5.45H176.67c.82-3.45.7-6.77-1.31-9.84C175,122.48,173.36,122.16,172.37,121.2ZM205,122.82c-1.3-1.45-3-1.12-4.61-.95-2.29.26-5.06,2.68-4.81,4.28.31,1.95,1.1,3.84,3.55,4.11,1.3,1.45,3,1.12,4.61.95,2.29-.26,5.06-2.68,4.81-4.28C208.29,125,207.49,123.09,205,122.82Zm-22.18,7.46a6.39,6.39,0,0,0,6.94,0,.87.87,0,0,0,.28-1.31c-.36-.51-.78-.1-1.05.19-1.72,1.85-3.76,1.16-5.76.78-2.67-2.88-2.7-5.1.14-6.64a6,6,0,0,1,4.94,0c.48.45.74,1.23,1.6,1.12.1,0,.26-.27.24-.39-.11-.84-.7-1.1-1.46-1.13-1.3-1.45-3-1.12-4.61-.95-2.29.26-5.06,2.68-4.81,4.28C179.61,128.11,180.41,130,182.86,130.27Z" style="fill:#4837fe"/><path d="M170.79,123.69c-.31,6.77-4.85,14.61-11.56,15.76-1.88.32-3.27-.49-4.63-1.47-1.15-.83.06-1.25.45-1.74,2.24-2.76,5.13-5,5.85-8.88.47-2.51.84-5-.22-7.31-.71-1.56,0-2,1.25-1.89a18.94,18.94,0,0,1,8.34,2.94C171.28,121.72,170.6,122.88,170.79,123.69Z" style="fill:#fea7a7"/><path d="M160.29,124a12.86,12.86,0,0,1-3.42,8.31c-1.26,1.48-2.72,2.68-3.75,4.51-1.39,2.48-4.08,1-6,.4-4.1-1.34-4-1.47-1.05-4.66a20.45,20.45,0,0,0,5-8.16,4.62,4.62,0,0,0,0-3.55c-1.15-1.93,0-2.1,1.38-2.2.78-.06,1.57,0,2.36,0C159.18,118.65,160.27,119.72,160.29,124Z" style="fill:#fea7a7"/><path d="M172,143l-1,1c-1.23.76-1.7,2.15-2.63,3.16-2.73,2.72-6.45,2.23-9.79,3-.82.18-1.32-.51-1.64-1.06-.41-.73.49-1,.83-1.36.61-.72,1.17-1.48,1.75-2.2,1.17-1.43,2.24-3,4.78-2.29,2.13.62,4.13-.73,6-1.78.7-.4,1.5-1.38,2.08-.91S172.31,142.23,172,143Z" style="fill:#fea7a7"/><path d="M43.38,103.66v0c-.22.05-.55.1-.39.41.34.66,1,.3,1.52.4l-.05,0c.21.49.38,1.07,1.1.55h0c-.6.49-.1,1,.12,1.3,2,2.29,1.86,4.65.43,7.14-.2.35-.76.85-.09,1.33l-.74.74c-1-.14-2.2-.53-2.37,1.13l0,0H29.83c1.83-6.63.63-13.41,1-20.12,0-.52.2-1.17,0-1.55-2.52-4.12,1.3-2.39,2.46-2.47,2.86-.2,5.75,0,8.63,0,.57.34,1,1.15,1.85.49L45,94.17c.36,2.46,1.57,4.79,1.05,7.38l-.74.74C44.14,102.05,43.23,102.12,43.38,103.66Zm-6.8-9.13c-1.54,1-1.54,7.25,0,8.25a5.65,5.65,0,0,0,4.7-6.11C40.84,93.75,38.48,94.53,36.58,94.53Zm0,19.82c3.23.17,4.75-.64,5.12-3.52.23-1.79,1.26-4.24-1.52-5.34-.15-.75-.82-.47-1.26-.62-3.09-1-3.39-.82-3.39,2.43q0,2.89,0,5.78C35.53,113.8,35.45,114.58,36.58,114.35Zm5.56-10.53.2-.17c-.06-.06-.13-.17-.19-.17s-.13.1-.2.16Z" style="fill:#fe0000"/><path d="M64.56,116.55c1.75-4.59.73-9.38.92-14.08,0-1.24.67-2.74-.91-3.72a1.08,1.08,0,0,1,.51-1.66c3.24-1.21,9.76.45,12.11,3.15L77.11,105l0,0c-1-.3-1.7-.23-1.6,1.07h0c-.89-.46-1.06.34-1.52.95h1.63l-.08,0c.29.77.77,1.08,1.55.64h0c-.41.25-.25.57-.07.84a5.18,5.18,0,0,1,0,6.26c-.2.3-.55.74,0,1.09a.25.25,0,0,1-.21.22C72.78,116.85,68.66,116.48,64.56,116.55Zm5.7-10.61c2.34-.23,3.23-1.63,3.18-4.66,0-2.41-1.62-2.14-3.18-2-.42,0-1-.13-1,.47q-.07,2.86,0,5.73C69.29,106.06,69.84,106,70.26,105.93Zm1,1.67c-1.88-.68-1.94-.68-2,.84-.07,1.82,0,3.64,0,5.46,0,.74.23,1.17,1.05,1,2.52.7,3.26-.83,3.69-2.87C74.46,109.63,73.43,108.27,71.23,107.6Z" style="fill:#fe0000"/><path d="M78.77,116.55c1.75-4.59.73-9.38.92-14.08,0-1.24.67-2.74-.91-3.72a1.08,1.08,0,0,1,.51-1.66c3.24-1.21,9.76.45,12.11,3.15L91.32,105l0,0c-1-.3-1.7-.23-1.6,1.07h0c-.89-.46-1.06.34-1.52.95h1.63l-.08,0c.29.77.77,1.08,1.55.64h0c-.44.79-.13,1.27.64,1.55l0-.06c1,2.1,0,4-.62,5.94l0-.05c-.49.21-1.07.38-.55,1.1l0,0C86.84,116.87,82.79,116.45,78.77,116.55Zm5.7-17.28c-.42,0-1-.13-1,.47q-.07,2.86,0,5.73c0,.6.57.5,1,.47,2.34-.23,3.23-1.63,3.18-4.66C87.61,98.86,86,99.14,84.47,99.26Zm0,15.61c2.52.7,3.26-.83,3.69-2.87.51-2.38-.52-3.74-2.72-4.41-1.88-.68-1.94-.68-2,.84-.07,1.82,0,3.64,0,5.46C83.41,114.64,83.65,115.06,84.47,114.88Z" style="fill:#fe0000"/><path d="M59.12,113.91c0-4.43.07-8.86.08-13.29,0-.63.25-1.44-.88-1.47-1,0-.65-.84-.66-1.39,0-.78.62-.68,1.11-.68.87,0,1.74,0,2.61,0a1.26,1.26,0,0,1,1.41.86c.21.74-.46,1-1,1.34-1.37-.22-1,.81-1,1.5-.17,5,.44,10-.58,15l-.74.74-6,0c-2.92-1.57-4-4.06-3.8-7.29.13-2.43.09-4.88,0-7.31,0-1.1.76-2.69-1.31-3-.13,0-.21-.77-.21-1.18,0-.78.62-.68,1.11-.68,1.57,0,3.14,0,4.7,0a1.28,1.28,0,0,1,1.42.86c.22.74-.46,1-.95,1.34-.82-.18-1.06.23-1.05,1q0,6.75,0,13.5c0,.81.16,1.38,1.16,1.13l0,0c1.89,1.06,2.93.93,3.62-.44l0,0C58.79,114.9,59,114.47,59.12,113.91Z" style="fill:#fe0000"/><path d="M106.67,116.55c-1.64,1.1-3.49.56-5.18.42-1.24-.1-.91-2-.48-2.2,3-1.64.38-3.45.31-5.15-.57-.8-1.42-.39-2.13-.42-1.62-.06-4.16,3.51-3.5,4.94.24.52.92.27,1.42.21l.53.18c.2,1.41-.11,2.31-1.84,2a14.68,14.68,0,0,0-2.28,0c-.57-1.25.55-1.91.93-2.85a50.62,50.62,0,0,0,3.51-13.75c.34-3.36,1.76-3,3.89-2.78-.29,2.21.63,4.25,1.14,6.29,1.05,4.23,1.4,8.7,3.63,12.59l0-.05ZM99.74,103.3c-.07-.48.23-1.15-.38-1.37-.76-.27-.79.6-.9.95a29.06,29.06,0,0,0-.81,3.68c-.13.74.21,1.15,1,1a5.48,5.48,0,0,0,3-.27C100.2,106.22,100.7,104.49,99.74,103.3Z" style="fill:#fe0000"/><path d="M124.49,121.82c-1.1-1.37-2.23-2.67-4.23-1.51-1.39.17-2.76-.7-4.25.34-.82.57-1.63-1-3-1.09a8.9,8.9,0,0,1-5.51-2.47c1.14-.68,1.81.43,2.64.76,3.73,1.5,4.92,1.4,6.95-.83.49.33-1.16,2.8,1.23,1.23l.35.44a6.39,6.39,0,0,0-.38.62c1.49,1.12,2.83-.38,4.27-.26l-.29-.89.36-.44c4.87,2.28,9.74,2.69,14.61,0l.37.43c-3.42,2.59-7.09,3.46-11.22,1.76-.71-.29-1.63-1.08-2.3-.48S124.72,121,124.49,121.82Zm-8.22-2.32-.35-.32a2.3,2.3,0,0,0-.33.57c0,.09.18.23.27.35Z"/><path d="M117.14,117c-2,2.24-3.22,2.33-6.95.83-.83-.33-1.5-1.44-2.64-.76l.05,0c.47-1.12-.36-1.05-1-1.13l0,.05c.08-.36-.35-1,.67-.72.58.19,1.28.7,2,.14h0c.61,1.52,4.81,3,6,2.19.24-.16.81-.17.42-.58s-.68-1.38-1.51-.51l-.2,0,0-.2c.55-1.16.28-1.84-1.09-1.89l.06.06c.16-1.2-.66-2.07-1-3.1-.9-2.49-2.75-4.93-.59-7.93a11.89,11.89,0,0,0,2.7,8.38l-.06-.07c0,.69,0,1.52,1.11,1.07l0,0c-.14.87-.3,1.75,1.07,1.6l0,0c-.57,1.23,1.87,1.35,1,2.69Z" style="fill:#fea7a7"/><path d="M109.25,115.46c-.69.56-1.39,0-2-.14-1-.33-.59.36-.67.72-2.23-3.9-2.58-8.36-3.63-12.59-.51-2-1.43-4.08-1.14-6.29.42-.06.95-.22,1,.4.56,4.73,2.21,9.23,3.08,13.88A4.67,4.67,0,0,0,109.25,115.46Z"/><path d="M60.22,115.76c1-5,.41-10,.58-15,0-.69-.33-1.72,1-1.5,0,4.25-.09,8.5,0,12.74A4,4,0,0,1,60.22,115.76Z"/><path d="M54.58,114.88c-1,.25-1.16-.32-1.16-1.13q0-6.75,0-13.5c0-.74.23-1.16,1.05-1Z"/><path d="M114,111.84a11.89,11.89,0,0,1-2.7-8.38c-2.16,3-.31,5.44.59,7.93.37,1,1.18,1.9,1,3.1-2.18-3.36-4.19-6.75-2.66-11,.16-.45.38-.9.77-.93s.79.55.75.78C111.25,106.5,113.57,108.92,114,111.84Z"/><path d="M46,114.71c-.67-.48-.11-1,.09-1.33,1.43-2.49,1.56-4.85-.43-7.14-.22-.26-.72-.82-.12-1.3C49.12,108,49.28,111.51,46,114.71Z"/><path d="M97.11,114.35c-.5.06-1.18.31-1.42-.21-.66-1.43,1.88-5,3.5-4.94.71,0,1.55-.38,2.13.42C97.78,109.81,97.78,109.81,97.11,114.35Z"/><path d="M46,101.55c.51-2.58-.7-4.92-1.05-7.38C47.6,96.76,48,99.26,46,101.55Z"/><path d="M77.06,115.76c-.56-.35-.22-.79,0-1.09a5.18,5.18,0,0,0,0-6.26c-.19-.28-.35-.59.07-.84C79.44,109.55,79.41,114,77.06,115.76Z"/><path d="M29.83,116.55H42.93c-3,1.18-6.21.31-9.32.47C32.38,117.08,31,117.65,29.83,116.55Z"/><path d="M114.18,116.55c.84-.88,1.15.13,1.51.51s-.18.42-.42.58c-1.23.85-5.44-.66-6-2.19,1.86-.14,3.05,2,5,1.49,0,0,0-.11,0-.16A1.2,1.2,0,0,0,114.18,116.55Z"/><path d="M64.56,116.55c4.1-.07,8.22.31,12.29-.57a4,4,0,0,1-3.53,1.09C70.41,116.76,67.42,117.75,64.56,116.55Z"/><path d="M78.77,116.55c4-.09,8.06.33,12.05-.51a2.5,2.5,0,0,1-2.18,1C85.36,116.76,82,117.74,78.77,116.55Z"/><path d="M91.31,115c.66-1.93,1.57-3.84.62-5.94A3.37,3.37,0,0,1,91.31,115Z"/><path d="M93.51,116.55a14.68,14.68,0,0,1,2.28,0c1.73.28,2-.63,1.84-2,1.4-.32,1,.74,1,1.41,0,.48.14,1.19-.62,1.1C96.54,116.87,94.92,117.66,93.51,116.55Z"/><path d="M77.11,105l.08-4.77C79,101.85,78.32,103.43,77.11,105Z"/><path d="M91.32,105l.08-4.77C93.46,101.86,92.06,103.42,91.32,105Z"/><path d="M53.51,116.55l6,0A7.07,7.07,0,0,1,53.51,116.55Z"/><path d="M117.07,117.09c.88-1.34-1.56-1.46-1-2.69l2.08,1.33C118.67,116.88,118.16,117.22,117.07,117.09Z"/><path d="M58.15,114.4c-.69,1.37-1.73,1.5-3.62.44C55.75,114.81,57,115.37,58.15,114.4Z"/><path d="M42.9,116.58c.17-1.67,1.33-1.27,2.37-1.13A4,4,0,0,1,42.9,116.58Z"/><path d="M89.87,107H88.24c.46-.6.63-1.4,1.52-.95Z"/><path d="M75.66,107H74c.46-.6.63-1.4,1.52-.95Z"/><path d="M89.75,106.05c-.1-1.3.63-1.37,1.6-1.07A1.5,1.5,0,0,1,89.75,106.05Z"/><path d="M75.54,106.05c-.1-1.3.63-1.37,1.6-1.07A1.5,1.5,0,0,1,75.54,106.05Z"/><path d="M43.38,103.66c-.15-1.54.76-1.6,1.89-1.36Z"/><path d="M112.85,114.42c1.37,0,1.64.73,1.09,1.89Z"/><path d="M116.1,114.42c-1.37.15-1.21-.73-1.07-1.6Z"/><path d="M91.35,107.58c-.79.44-1.27.13-1.55-.64A1.38,1.38,0,0,1,91.35,107.58Z"/><path d="M77.14,107.58c-.79.44-1.27.13-1.55-.64A1.38,1.38,0,0,1,77.14,107.58Z"/><path d="M44.51,104.44c-.52-.1-1.19.26-1.52-.4-.15-.3.17-.35.39-.41C43.65,104.05,44.44,103.75,44.51,104.44Z"/><path d="M115,112.83c-1.15.45-1.07-.38-1.11-1.07A1.8,1.8,0,0,1,115,112.83Z"/><path d="M92,109.12c-.78-.29-1.08-.77-.64-1.55A1.38,1.38,0,0,1,92,109.12Z"/><path d="M43.69,92.91c-.83.66-1.28-.14-1.85-.49C42.54,92.28,43.22,92.19,43.69,92.91Z"/><path d="M106.57,116c.67.07,1.51,0,1,1.13l-.94-.57Z"/><path d="M90.81,116.05c-.52-.72.06-.88.55-1.1C91.27,115.37,91.47,115.92,90.81,116.05Z"/><path d="M59.12,113.91c-.13.56-.33,1-1,.51C58.24,113.82,58.72,113.93,59.12,113.91Z"/><path d="M45.56,104.95c-.72.52-.88-.06-1.1-.55C44.87,104.49,45.43,104.29,45.56,104.95Z"/><path d="M142.89,95.73c2,3.37,2.4,6.73.33,10.28-.94,1.62-.45,3.82-1.87,5.32a18.54,18.54,0,0,0-1.09-11.68l0,0c-.84-3.2-2.46-1.05-4.19-.41,1-2,1.17-3.92,2.54-5.41l0,0c.58,1.22-.85,1.92-.75,3,2.79-.06,3.78,1.2,4.71,8,1.75-1.81,1.4-3.77,1-5.85C143.46,97.89,142.22,97,142.89,95.73Z"/><path d="M132.64,130.26a5.6,5.6,0,0,1-2.93-2.16c.6.32,1.2.76,1.92.54,3.83-1.18,7.16-3.14,9.22-6.69.66-1.13,2-2.59-.11-3.78l.36-.44,3.93,1.93-.37.43c-.8-.45-1.51-1-1.8.56-.74,3.94-3.79,5.78-7,7.47C134.74,128.73,133.1,128.61,132.64,130.26Z"/><path d="M145,109.68a43.57,43.57,0,0,0,2.45-12.32c1.36,2.07,1.62,6.93,1,9.29-.53,1.87-.9,3.78-1.34,5.67l.05,0a.57.57,0,0,0-.43.78c.11.26.38.18.51-.1,0,1.38,0,1.38-2.37,2.52,1.95-5.19,3.91-10.08,3.16-15.46a52.56,52.56,0,0,1-1.86,8.72C145.88,109.34,146,110.17,145,109.68Z"/><path d="M119.88,117.27a41.44,41.44,0,0,1,4.31-4c1.43-1,2.41-2.6,1.3-4.56l.37-.43c1.34.83,1.44,1.89.75,3.25s-2,2.58.46,4c-2-1.08-3.35-1.17-4.61.57-.63.87-.19,1.15.23,1.65l-.36.44c-.77.19-1.23-.84-2-.52Z"/><path d="M126.55,97.1c1.3-.69,1.06.72,1.42,1.14,2.38,2.77,4.6,2.65,6.43-.45.28-.48.32-1.22,1.16-.7-.26,2.54-1.65,4.17-4.19,4.11S126.94,99.89,126.55,97.1Z"/><path d="M152.43,103.35c.33-2.34.68-4.67,1-7,.1-.79.47-1.51,1.23-1.28s.41,1,.06,1.54-.49,1.1.21,1.52c-.57,1-.33,2.16-.47,3.24-.17,1.37.6,2.87-.51,4.12h0V99C153.1,100.39,154,102.28,152.43,103.35Z"/><path d="M140.26,99.65c-.45,1.1,1,3.12-1.56,3.21-1,0-2,0-2.11-1.32s.55-1.82,1.86-1.88c.63,0,1.24.66,1.85,0Z"/><path d="M122.63,100.23c1.13-.07,1.85.3,1.85,1.58s-.72,1.59-1.85,1.59-1.85-.31-1.85-1.59S121.5,100.16,122.63,100.23Z"/><path d="M134.13,112.71c-2-1.23-1.3-2.87-.17-4,.68-.65,2.39-1.82,3.19.38l-.38.42a1.85,1.85,0,0,0-2.36,0c-1.2.94.2,1.84.11,2.77Z"/><path d="M141.35,111.31c.17.89-1.2,1.62-.27,2.59-2.13.26-2.4-1.67-3.32-2.83l.43-.36C139.6,111.91,139.6,111.91,141.35,111.31Z"/><path d="M132.89,115.65c-1.69,2.46-2.33,2.48-5.75.23C129.08,116.7,131,117.07,132.89,115.65Z"/><path d="M141.61,90.24c-1.19,1.4-2.8,2.81,0,4.21-1.13.62-1.93-.55-2.95-.56l0,0,.61-2C140.46,91.93,139.85,89.36,141.61,90.24Z"/><path d="M148.64,111.25,151.8,105C151.62,107.54,150.86,109.77,148.64,111.25Z"/><path d="M121.82,112.24c0-1.44.93-2.34,1.92-3.46C124.21,110.79,122.51,111.21,121.82,112.24Z"/><path d="M145,119.66c.87.09,1.59,2,2.64.18.15-.27.4.19.44.4.09.56,0,1-.74,1a3.56,3.56,0,0,1-2.71-1.19Z"/><path d="M137.3,117.74c.39-1.2.51-3,2.3-1l-.43.37c-.68.09-.49,1.44-1.51,1.05Z"/><path d="M154,107.6a3.53,3.53,0,0,1-1.11,2.15,9.66,9.66,0,0,1,1-4.25h0Z"/><path d="M134.52,112.3,136.4,114c-2.06,1.48-1.87-.36-2.27-1.27Z"/><path d="M146.43,117.94c-.78.9.86.58.56,1.38a3.53,3.53,0,0,1-2.86-1.55l1.88-.21Z"/><path d="M148.76,116c.72.68-.89.9-.31,1.56-.52,1-1.49-.61-2,.35l-.41-.39C147,117.11,147.49,115.91,148.76,116Z"/><path d="M143.38,112.84c.77-.94.49-2.4,1.6-3.17C145,111,145,112.34,143.38,112.84Z"/><path d="M151.91,110.75c.27,1.15-.53,1.87-1.09,2.68C150.4,112.22,151.12,111.47,151.91,110.75Z"/><path d="M139.6,116.75c.46.4,1.23.31,1.51,1l-.36.44a1.57,1.57,0,0,1-1.58-1.05Z"/><path d="M137.76,111.08c-.67-.28-.58-1.07-1-1.52l.38-.42a1.57,1.57,0,0,1,1.05,1.58Z"/><path d="M149.78,115c-.08.64,0,1.42-1.08,1.1C148.68,115.36,148.64,114.59,149.78,115Z"/><path d="M152.94,109.73c-.08.64,0,1.42-1.08,1.1C151.84,110.1,151.79,109.33,152.94,109.73Z"/><path d="M150.83,113.41l-1.07,1.6C149.62,114.14,149.46,113.26,150.83,113.41Z"/><path d="M141.32,114.15c.27.38.66.28,1,.25.67.71,0,1.23-.44,1.16S140.52,115,141.32,114.15Z"/><path d="M125.49,108.69l-1.16-.28c.1-.23.13-.56.3-.66.59-.36.91.12,1.23.51Z"/><path d="M118.37,118.25c.28-.67,1.06-.58,1.51-1l.42.38-1.58,1Z"/><path d="M142.32,114.42l1.07-1.6C143.54,113.69,143.7,114.57,142.32,114.42Z"/><path d="M147.87,112.32c.43-.24.13-1,.78-1.08.48.68.07,1.19-.43,1.53C147.92,113,147.94,112.52,147.87,112.32Z"/><path d="M147.15,113c-.13.28-.4.36-.51.1a.57.57,0,0,1,.43-.78Z" style="fill:#fefefe"/><path d="M141.08,88.13l-1.33,1.62C139.58,88.7,139.6,87.81,141.08,88.13Z"/><path d="M154,107.6l-.1-2.11c1.12-1.25.34-2.75.51-4.12.13-1.08-.11-2.22.47-3.24,1.65-2.32,3.33-4.59,5.86-6.06,1.6-.93,3.38-1.36,4.82-.18,1.62,1.33,2.48,0,3.62-.51l2.11,7.72c-1.86,0-1.84-1.87-2.45-2.81-1.56-2.4-3.54-2.69-6-2.27-.47-.06-1-.22-1,.57l.06-.08c-.77.29-1.08.77-.64,1.55l0,0c-1.67.62-1.84,2.09-2.16,3.57a23.27,23.27,0,0,0,1,12.32c.92,2.81,2.38,3.65,5.39,2.52a5.3,5.3,0,0,0,0-7.62,1.39,1.39,0,0,1-.5-.83c0-.62.58-.49,1-.49,1.82,0,3.65-.1,5.46,0,1.55.1,1.58,1,.75,2.07-1.09,0-1,.73-1,1.42,0,1.48,0,3,0,4.45,0,.55.24,1.46-.66,1.42-2.92-.13-5.36,1.95-8.27,1.74-3.36-.62-5.17-3.17-6.72-5.78A13.47,13.47,0,0,1,154,107.6Z" style="fill:#fe0000"/><path d="M197.72,106c1.29-2.23,1.44-4.78,2.06-7.2.19-.74.27-1.85,1.48-1.72s2.81-.56,4,.53c.7.64-.17,1-.34,1.56-.59,0-1,.19-1,.9q0,6.93,0,13.86c0,.8.35,1.09,1.09,1l0,0c.06.92.07,1.74-1.27,1.63-1.12-.09-2.25,0-3.37,0,1.55-3.76.89-7.7.88-11.58,0-.78,0-1.56,0-2.93-2.34,4.76-4.23,9.07-4.65,13.89-2,.2-1.29-1.82-1.35-2.35-.29-2.53-1.53-4.69-2.25-7l-.82-2.28c-.32,3.25-.31,6.43-.33,9.61,0,.74.22,1.18,1.05,1l.53.18c.12,1-.14,1.61-1.35,1.51s-2.2,0-3.3,0c0-.35-.15-1,0-1,2.33-1,1.47-3,1.51-4.7.08-3,0-6.09,0-9.13a9.61,9.61,0,0,0,0-1.56c-.53-3.2-.55-3.19,3.17-3,1,3,1.93,6,3,8.91C196.77,107.19,197.34,107.83,197.72,106Z" style="fill:#fe0000"/><path d="M208.24,116.55c1.81-4.88.66-10,.94-14.94.05-.93.4-2-.8-2.75a1,1,0,0,1,.76-1.78c4.49-.2,9-.42,11.74,4.21-.29,4.8-.91,5.5-4.84,6.67-1.21.36-2.95-.65-3.52.77-.49,1.2-.14,2.74-.15,4.13a11.12,11.12,0,0,0,.05,1.56c.08.61.57.5,1,.47l.53.18c.12,1-.15,1.59-1.36,1.51C211.14,116.47,209.69,116.55,208.24,116.55ZM215,106.11c2.45-1.33,1.69-3.64,1.4-5.55-.19-1.3-1.64-1.63-3-1.29-.82-.18-1.06.23-1.05,1,0,1.38.09,2.77,0,4.15C212.16,106.71,213.11,107.09,215,106.11Z" style="fill:#fe0000"/><path d="M184.39,113.91c0-4.43.07-8.86.08-13.29,0-.63.25-1.44-.88-1.47-1,0-.65-.84-.66-1.39,0-.78.62-.68,1.11-.68.87,0,1.74,0,2.61,0a1.26,1.26,0,0,1,1.41.86c.21.74-.46,1-1,1.34-1.63-.16-1,1.1-1,1.78-.06,3.58,0,7.16,0,10.74,0,3.27-1.48,4.75-4.66,4.76h-2.62c-2.92-1.57-4-4.06-3.8-7.29.13-2.43.09-4.88,0-7.31,0-1.1.76-2.69-1.31-3-.13,0-.21-.77-.21-1.18,0-.78.62-.68,1.11-.68,1.57,0,3.14,0,4.7,0a1.28,1.28,0,0,1,1.42.86c.22.74-.46,1-.95,1.34-.82-.18-1.06.23-1.05,1q0,6.75,0,13.5c0,.81.16,1.38,1.16,1.13l0,0c1.34,1,2.61,1.33,3.62-.44l0,0C184.05,114.9,184.25,114.47,184.39,113.91Z" style="fill:#fe0000"/><path d="M138.66,93.89c1,0,1.81,1.17,2.95.56l1.28,1.28c-.67,1.29.57,2.16.77,3.28.37,2.08.72,4-1,5.85-.93-6.75-1.92-8-4.71-8C137.81,95.81,139.24,95.11,138.66,93.89Z" style="fill:#898989"/><path d="M165.61,114.44c-3,1.13-4.48.29-5.39-2.52a23.27,23.27,0,0,1-1-12.32c.31-1.48.49-3,2.16-3.57a22.37,22.37,0,0,0,.33,16.47,1.9,1.9,0,0,0,2.1,1.44C164.39,113.91,165.2,113.56,165.61,114.44Z"/><path d="M178.77,116.55h2.62c3.18,0,4.64-1.48,4.66-4.76,0-3.58,0-7.16,0-10.74,0-.68-.6-1.94,1-1.78,0,4.52,0,9,0,13.57,0,2.75-1.49,4.31-4.24,4.19C181.5,117,180,117.69,178.77,116.55Z"/><path d="M213.42,114.88c-.42,0-.91.13-1-.47a11.12,11.12,0,0,1-.05-1.56c0-1.39-.34-2.93.15-4.13.57-1.42,2.31-.41,3.52-.77,3.93-1.17,4.54-1.87,4.84-6.67,1.51,4.83-.31,7.85-5,7.33-2.2-.24-2.68.66-2.46,2.59A33.63,33.63,0,0,1,213.42,114.88Z"/><path d="M162.37,116.63c2.92.21,5.35-1.87,8.27-1.74.9,0,.65-.87.66-1.42,0-1.48,0-3,0-4.45,0-.69-.13-1.47,1-1.42,0,1.4.08,2.8.08,4.2,0,3.92,0,4.24-3.55,4.58C166.71,116.58,164.55,117.92,162.37,116.63Z"/><path d="M179.84,114.88c-1,.25-1.16-.32-1.16-1.13q0-6.75,0-13.5c0-.74.23-1.16,1.05-1Z"/><path d="M205,115c-.74,0-1.1-.25-1.09-1q0-6.93,0-13.86c0-.7.37-.89,1-.9Z"/><path d="M196.58,115.93c.42-4.82,2.31-9.14,4.65-13.89,0,1.37,0,2.15,0,2.93-1.4,3.28-2.94,6.51-3.56,10.06C197.54,115.78,197.41,116.18,196.58,115.93Z"/><path d="M197.72,106c-.37,1.81-.95,1.17-1.34.05-1-3-2-5.94-3-8.91,1.46-.28,1.26,1,1.56,1.74C195.95,101.25,196.29,103.84,197.72,106Z"/><path d="M192.89,114.88c-.84.18-1.06-.25-1.05-1,0-3.18,0-6.37.33-9.61l.82,2.28Z"/><path d="M171.32,99.09l-2.11-7.72c2.5,1.25,2.07,3.82,2.56,5.94C171.87,97.72,173.63,99.12,171.32,99.09Z"/><path d="M208.24,116.55c1.45,0,2.9-.07,4.34,0,1.21.08,1.48-.49,1.36-1.51,1.1-.3,1.06.42,1.05,1.15,0,.47-.1.91-.66.84C212.32,116.79,210.19,117.69,208.24,116.55Z"/><path d="M200.35,116.55c1.12,0,2.26-.07,3.37,0,1.35.11,1.33-.72,1.27-1.63,1.22-.09,1.09.76,1,1.53s-.7.66-1.14.59C203.38,116.81,201.75,117.68,200.35,116.55Z"/><path d="M188.77,116.55c1.1,0,2.21-.07,3.3,0s1.46-.5,1.35-1.51c1.09-.3,1.07.42,1.05,1.15,0,.46-.09.92-.65.84C192.15,116.82,190.36,117.69,188.77,116.55Z"/><path d="M183.41,114.4c-1,1.78-2.27,1.42-3.62.44C181,114.81,182.3,115.37,183.41,114.4Z"/><path d="M161.33,96.05c-.44-.79-.13-1.27.64-1.55A1.38,1.38,0,0,1,161.33,96.05Z"/><path d="M184.39,113.91c-.13.56-.33,1-1,.51C183.5,113.82,184,113.93,184.39,113.91Z"/><path d="M161.91,94.58c0-.8.51-.63,1-.57C162.67,94.37,162.53,94.87,161.91,94.58Z"/><path d="M139.17,117.12a1.57,1.57,0,0,0,1.58,1.05c2.11,1.18.77,2.65.11,3.78-2.07,3.55-5.39,5.51-9.22,6.69-.72.22-1.32-.22-1.92-.54l.05,0-1.64-1.34a.61.61,0,0,0-.22-.22l-1.34-1.64,0,0c-.81-1-.78-2.57-2.15-3.19l0,0c.23-.87-1.15-1.67-.34-2.38s1.6.19,2.3.48c4.13,1.7,7.79.83,11.22-1.76C138.68,118.55,138.49,117.21,139.17,117.12Z" style="fill:#fea7a7"/><path d="M96.61,128.21c1.25-1.76,2.37-3.36,3.52-4.95a1.87,1.87,0,0,1,2.27-.84c.91.34.45,1.21.47,1.83.06,2.1,0,4.2,0,6.3,0,.6.07,1.3-.89,1.22-.76-.07-.67-.67-.68-1.16,0-1.75,0-3.5,0-5.48-2.52,1.22-2.74,4.18-4.76,5.56-1.91-1.45-2.34-4.12-4.72-5.75,0,1.87.06,3.4,0,4.92,0,.67.53,1.8-.69,1.89s-.81-1.09-.83-1.74c-.07-2-.05-4,0-6,0-.53-.36-1.31.5-1.55a1.64,1.64,0,0,1,1.89.51C94,124.62,95.22,126.33,96.61,128.21Z" style="fill:#fefefe"/><path d="M40.49,131.77c-1.48.36-2.82-.47-4.26-.7-.51-.08-1.55-.37-1.16-1.35s1.08-.5,1.7-.16a6,6,0,0,0,5.25.29c.56-.21,1.57,0,1.36-1.11-.17-.92-.95-.56-1.48-.59a36.51,36.51,0,0,1-4.61-.44,2.63,2.63,0,0,1-2.2-2.17c-.37-1.14.73-1.73,1.44-2.27,1.75-1.33,5.66-1.2,7.65,0,.63.37,1.05.73.74,1.37s-.83.33-1.37.2c-1.79-.44-3.52-1.48-5.47-.41-.47.26-1,.25-.92,1s.68.59,1.17.68c1.85.32,3.68.73,5.53,1A2.35,2.35,0,0,1,46,128.62c.39,1.3-1,1.41-1.62,2A4.52,4.52,0,0,1,40.49,131.77Z" style="fill:#fefefe"/><path d="M75.18,128.19c.82.59,1.62,1.11,2.36,1.7.57.46,1,1.22.31,1.72-.55.39-1.25.33-1.94-.51-1.16-1.41-2.1-3.26-4.27-3.51-1.57-.18-2.75,0-2.48,2.1.09.73.68,2.14-1,2.09s-.77-1.4-1-2.17a1.5,1.5,0,0,1,0-.52c.14-2.16-.92-5,.4-6.32s4.15-.26,6.3-.44c1.89-.16,3.58.5,4.24,2.2C78.78,126.38,76.66,126.79,75.18,128.19Zm-2.73-1.66c1.1,0,2,.07,2.83,0,1.07-.11,1.58-.8,1.13-1.8a2,2,0,0,0-2-1.32c-1.69.18-3.44-.43-5.07.37-.13.06-.08.48-.11.74C68.82,127.84,71.42,126.06,72.46,126.53Z" style="fill:#fefefe"/><path d="M50.27,126.85c0-1.14,0-2.27,0-3.41,0-.73.22-1.12,1-1.11s1,.38,1.08,1.1c.16,1-.72,2.71.63,3a20.23,20.23,0,0,0,6.25,0c.86-.11.31-1.37.47-2.1s-.53-1.9,1-2c1.72-.06,1.07,1.27,1.1,2.06.08,2,0,4,0,6,0,.72,0,1.38-1,1.38s-1.18-.65-1-1.36c.55-2.87-1.09-3.12-3.27-2.87a8.39,8.39,0,0,1-2.09,0c-1.58-.21-2.21.33-2.08,2,.06.75.73,2.14-.92,2.19-1.9.06-.94-1.47-1.1-2.31A14.63,14.63,0,0,1,50.27,126.85Z" style="fill:#fefefe"/><path d="M113.3,122.34c1.05,0,2.11.05,3.15,0,1.78-.11,3.07.88,3.16,2.38s-1.57,2.15-3,2.33a16.7,16.7,0,0,1-3.93,0c-1.88-.21-2.85.31-2.47,2.38a9.38,9.38,0,0,1,0,1.31c0,.76-.29,1.08-1.08,1.08s-1-.44-1-1.15c0-2.37,0-4.73,0-7.1,0-1.15.58-1.27,1.48-1.24C110.85,122.36,112.08,122.34,113.3,122.34Zm.22,3.68h2.55c.9,0,1.55-.38,1.52-1.35s-.7-1.29-1.6-1.28a8.1,8.1,0,0,0-2.33,0c-1.15.38-3.39-1.36-3.34,1.31S112.68,125.3,113.52,126Z" style="fill:#fefefe"/><path d="M85,127.08c0,1.21,0,2.43,0,3.64,0,.74-.25,1.09-1.06,1.09s-1.05-.37-1-1.1q0-3.64,0-7.29c0-.74.25-1.09,1.06-1.09s1.06.37,1,1.1C85,124.65,85,125.86,85,127.08Z" style="fill:#fefefe"/><path d="M124.46,121.78c1.37.62,1.34,2.19,2.15,3.19C124.75,124.67,125,123,124.46,121.78Z"/><path d="M126.58,124.93l1.34,1.64C126.41,126.89,126.46,125.93,126.58,124.93Z"/><path d="M128.13,126.79l1.64,1.34C128.75,128.26,127.83,128.28,128.13,126.79Z"/><path d="M182.86,130.27c-2.45-.27-3.25-2.17-3.56-4.12-.25-1.61,2.52-4,4.81-4.28,1.57-.18,3.32-.51,4.61.95l-.38.41a6,6,0,0,0-4.94,0c-2.84,1.55-2.81,3.77-.14,6.64Z" style="fill:#fefefe"/><path d="M205,122.82c2.45.27,3.25,2.17,3.56,4.12.25,1.61-2.52,4-4.81,4.28-1.57.18-3.32.51-4.61-.95l.4-.4c2.57.77,5.08.87,6.65-1.73,1.24-2-.08-3.58-1.57-4.91Z" style="fill:#fefefe"/><path d="M199.17,130.27c-2.45-.27-3.25-2.17-3.55-4.11-.25-1.6,2.52-4,4.81-4.28,1.57-.18,3.31-.51,4.61.95l-.39.41c-2.58-.78-5.08-.88-6.66,1.73-1.24,2,.09,3.58,1.58,4.91Z" style="fill:#fefefe"/><path d="M183.27,129.89c2,.38,4,1.07,5.76-.78.27-.29.69-.71,1.05-.19a.87.87,0,0,1-.28,1.31,6.39,6.39,0,0,1-6.94,0Z" style="fill:#fefefe"/><path d="M188.72,122.82c.76,0,1.35.29,1.46,1.13,0,.12-.14.38-.24.39-.86.11-1.12-.67-1.6-1.12Z" style="fill:#fefefe"/><path d="M40.18,105.49c2.78,1.11,1.75,3.55,1.52,5.34-.37,2.88-1.88,3.68-5.12,3.52,0-1.72,0-3.44,0-5.16,0-1.37-.34-3,.3-4S39,105.93,40.18,105.49Z" style="fill:#fefefe"/><path d="M36.58,94.53c1.9,0,4.26-.78,4.7,2.14a5.65,5.65,0,0,1-4.7,6.11Q36.58,98.65,36.58,94.53Z" style="fill:#fefefe"/><path d="M40.18,105.49c-1.21.44-2.75-1.16-3.29-.32s-.28,2.65-.3,4c0,1.72,0,3.44,0,5.16-1.13.23-1-.56-1.05-1.27q0-2.89,0-5.78c0-3.24.3-3.46,3.39-2.43C39.36,105,40,104.74,40.18,105.49Z"/><path d="M36.58,94.53q0,4.12,0,8.25C35,101.78,35,95.52,36.58,94.53Z"/><path d="M42.14,103.83l-.19-.18c.07-.06.13-.16.2-.16s.13.11.19.17Z"/><path d="M71.23,107.6c2.21.67,3.23,2,2.72,4.41-.43,2-1.17,3.57-3.69,2.87q0-3,0-5.95C70.26,108.25,70.13,107.48,71.23,107.6Z" style="fill:#fefefe"/><path d="M70.26,99.26c1.56-.12,3.14-.4,3.18,2,.05,3-.84,4.43-3.18,4.66Z" style="fill:#fefefe"/><path d="M71.23,107.6c-1.1-.12-1,.65-1,1.34q0,3,0,5.95c-.83.18-1.06-.24-1.05-1,0-1.82,0-3.64,0-5.46C69.28,106.92,69.35,106.92,71.23,107.6Z"/><path d="M70.26,99.26v6.67c-.42,0-1,.13-1-.47q-.07-2.86,0-5.73C69.29,99.13,69.84,99.23,70.26,99.26Z"/><path d="M85.44,107.6c2.21.67,3.23,2,2.72,4.41-.43,2-1.17,3.57-3.69,2.87q0-3,0-5.95C84.47,108.25,84.34,107.48,85.44,107.6Z" style="fill:#fefefe"/><path d="M84.47,99.26c1.56-.12,3.14-.4,3.18,2,.05,3-.84,4.43-3.18,4.66Z" style="fill:#fefefe"/><path d="M85.44,107.6c-1.1-.12-1,.65-1,1.34q0,3,0,5.95c-.83.18-1.06-.24-1.05-1,0-1.82,0-3.64,0-5.46C83.49,106.92,83.56,106.92,85.44,107.6Z"/><path d="M84.47,99.26v6.67c-.42,0-1,.13-1-.47q-.07-2.86,0-5.73C83.5,99.13,84,99.23,84.47,99.26Z"/><path d="M99.74,103.3c1,1.19.46,2.92,1.93,3.94a5.48,5.48,0,0,1-3,.27C99,106.1,99,104.6,99.74,103.3Z" style="fill:#fefefe"/><path d="M99.74,103.3c-.76,1.3-.75,2.8-1.05,4.21-.82.2-1.16-.21-1-1a29.06,29.06,0,0,1,.81-3.68c.11-.34.14-1.22.9-.95C100,102.15,99.67,102.82,99.74,103.3Z"/><path d="M118.73,118.69l1.58-1c.8-.31,1.26.72,2,.52l.29.89c-1.44-.13-2.78,1.38-4.27.26A6.39,6.39,0,0,1,118.73,118.69Z" style="fill:#fea7a7"/><path d="M116.27,119.5l-.4.6c-.1-.12-.3-.26-.27-.35a2.3,2.3,0,0,1,.33-.57Z" style="fill:#fea7a7"/><path d="M213.42,99.26c1.34-.35,2.79,0,3,1.29.29,1.91,1,4.22-1.4,5.55-1.12,0-1.73-.26-1.61-1.62C213.53,102.76,213.42,101,213.42,99.26Z" style="fill:#fefefe"/><path d="M213.42,99.26c0,1.74.11,3.5,0,5.23-.12,1.35.5,1.66,1.61,1.62-1.89,1-2.84.61-2.65-1.71.11-1.38,0-2.77,0-4.15C212.36,99.5,212.6,99.08,213.42,99.26Z"/><path d="M72.46,126.53c-1-.48-3.64,1.31-3.24-2,0-.26,0-.68.11-.74,1.63-.8,3.38-.19,5.07-.37a2,2,0,0,1,2,1.32c.45,1-.07,1.69-1.13,1.8C74.43,126.6,73.56,126.53,72.46,126.53Z" style="fill:#4837fe"/><path d="M113.52,126c-.84-.72-3.13,1.32-3.19-1.28s2.19-.92,3.34-1.31a8.1,8.1,0,0,1,2.33,0c.9,0,1.57.31,1.6,1.28S117,126,116.07,126Z" style="fill:#4837fe"/><path d="M199.57,129.87c-1.49-1.33-2.82-2.86-1.58-4.91,1.58-2.61,4.08-2.51,6.66-1.73,1.49,1.33,2.81,2.86,1.57,4.91C204.64,130.74,202.14,130.64,199.57,129.87Z" style="fill:#4837fe"/></svg>