<svg xmlns="http://www.w3.org/2000/svg" viewBox="0 0 250 250"><defs><style>.a{fill:#81b6bf;}.b{fill:#97c2c7;}.b,.d{fill-rule:evenodd;}.c,.d{fill:#3b2912;}</style></defs><title>Fast Food</title><path class="a" d="M134.52,115.61H116.65l-3.54,18.82a3.38,3.38,0,0,0,1.84,3.9l9.47,3.79a2.57,2.57,0,0,0,1.9,0l9.86-3.79a3.37,3.37,0,0,0,1.88-3.91Z"/><polygon class="a" points="200.11 128.02 204.5 128.02 204.5 125.98 200.11 125.98 200.11 124.17 204.5 124.17 204.5 121.91 197.82 121.91 197.82 132.27 200.11 132.27 200.11 128.02"/><polygon class="a" points="184.75 128.02 189.13 128.02 189.13 125.98 184.75 125.98 184.75 124.17 189.13 124.17 189.13 121.91 182.45 121.91 182.45 132.27 184.74 132.27 184.75 128.02"/><path class="a" d="M169.92,121.66a5.43,5.43,0,1,0,5.43,5.43A5.43,5.43,0,0,0,169.92,121.66Zm0,8.56a3.14,3.14,0,1,1,3.14-3.14A3.14,3.14,0,0,1,169.92,130.23Z"/><path class="a" d="M156.28,128.68a3.15,3.15,0,1,1,0-3.18L158,124a5.43,5.43,0,1,0,0,6.25Z"/><polygon class="a" points="220.38 130.01 215.61 130.01 215.61 128.02 220.38 128.02 220.38 125.98 215.61 125.98 215.61 124.17 220.38 124.17 220.38 121.91 213.32 121.91 213.32 132.27 220.38 132.27 220.38 130.01"/><polygon class="a" points="236.5 130.01 231.73 130.01 231.73 128.02 236.5 128.02 236.5 125.98 231.73 125.98 231.73 124.17 236.5 124.17 236.5 121.91 229.44 121.91 229.44 132.27 236.5 132.27 236.5 130.01"/><path class="b" d="M239.42,128l3.48.21-1.3.85a26.55,26.55,0,0,1-.29,3.3c-.77-1-.62-2.21-.68-3.35Z"/><path class="b" d="M243.18,127.89q.9,1,1.79,2.1,1-1,2-2c0,1.47.39,3.14-.54,4.43-.15-.8-.29-1.6-.42-2.4l-.92,1.38L244,130a6.57,6.57,0,0,1-.65,2.51A23.34,23.34,0,0,1,243.18,127.89Z"/><path class="c" d="M128.93,129.82a.56.56,0,0,0,.35-.59.59.59,0,0,0-.07-.23h0c-.45-.82-1.46-2.41-4.45-1.41,0,0-5.62,1.83-5.8,4.56a42.61,42.61,0,0,0-13.22,9.25l3,.93a1.64,1.64,0,0,0,.5.08.86.86,0,0,0,.58-.27h0c5.27-5.77,10.12-9.68,19-12.28Z"/><path class="c" d="M131.91,121.71a.17.17,0,0,0-.06-.12h0l-.29-.28a.78.78,0,0,1-.23-.56.74.74,0,0,1,.1-.37l.16-.27h0a.32.32,0,0,0,0-.16.34.34,0,0,0-.33-.34h-.11a6.12,6.12,0,0,1-1.12.23h0a12.3,12.3,0,0,1-3.38-.11c-6-1.16-6.89-4-6.66-5.25a2.37,2.37,0,0,1,.73-1.29c.83-.84,2.7-1.36,4.86-1.27.49,0,1.46.16,1.47.16h0a.23.23,0,0,0,.24-.11c.11-.25-.35-.43-.66-.68-.93-.74,1.45-1.25,1.57-1.54.18-.46-.94-.36-1.42-.65-.77-.47,1-1.23,1.19-1.34s0-.2-.11-.2c-5.29-.14-9.3,3.49-9.15,7.24.2,4,5.42,7.23,11.67,7.15a4.12,4.12,0,0,0,1.43-.16A.14.14,0,0,0,131.91,121.71Z"/><path class="c" d="M133.37,124.17a.65.65,0,0,0-.57-.65l-6.71-.91h0a.23.23,0,0,0-.23.21h0s0,.09,0,.13a1.41,1.41,0,0,0,1.16,1.39v.94h0a1.14,1.14,0,0,0,1.14,1.14h.13l4.31-.5h0a.64.64,0,0,0,.55-.5h0l.23-1.08h0A.65.65,0,0,0,133.37,124.17Z"/><path class="c" d="M135,129.52a41.84,41.84,0,0,0-14.4,4.62.29.29,0,0,0-.16.29.65.65,0,0,0,.2.34c1,1.07,2.33,1.75,8-.61a2.15,2.15,0,0,0,1.49-2.13,18.88,18.88,0,0,1,4-.48c4.29-.08,5.87.6,8,.88h.2a.9.9,0,0,0,.74-.5l1.06-2.57A44.19,44.19,0,0,0,135,129.52Z"/><path class="d" d="M52.42,124.19c2-.13,2.57-1,2.3-2.42s-2-1.86-3-1.67-1.8.68-1.79,1.62A2.3,2.3,0,0,0,52.42,124.19Z"/><path class="c" d="M68.08,123.86a.39.39,0,0,1-.41-.5s2.12-4.68,2.27-5.14c.21-.75-.19-1.42-1.6-.93-3.27,1.16-8.74,13.67-12,13.5-2.4-.12-1.82-5.44-4.62-5.1-2.22.27-4,6-5.69,5.42-2.2-.75-2-3.51-2-5.27s.89-3.21-5.73-1.27a3.38,3.38,0,0,0-1.78-1.38c-.87-.26-1.76.21-3.32,1.72-1,1-.74,1.4,1.1,2.09-.37,1.17-2,4.55-4.74,4,0,0,1.07-3.1.86-4.64-.13-1-.46-1.39-1.43-1.51s-1.25.55-2.27.41c-.73-.1-.88-.9-2.68-.69a5.27,5.27,0,0,0-3.71,1.79,4.83,4.83,0,0,0-1.27,2.74c-1.51.74-7.76,2.27-10.24,0-2.18-2,.31-8.65,6.78-10.87,7.82-2.67,1.09,3.25,5.16,2.92.53-.06,1.36-1,1.49-1.14,5.77-6.23-7.54-7.07-15.59.44-6.79,6.32-3.81,13.21,3.89,13.53,5.38.22,8.09-1.17,9.37-2,2.4,2.67,7.11.86,7.11.86a5.72,5.72,0,0,0,4,.73c5.06-1.06,6-5.75,6.59-6.31.37-.36,2.08-.3,2.08-.3a12.12,12.12,0,0,0,2.68,5.37,6.29,6.29,0,0,0,6,1.59c3.09-1,2.31-3.1,3.3-3.13,1.78-.06.24,2.93,5.1,3a10.18,10.18,0,0,0,5.59-1.92s.42,1,4.82,1,6.88-1.85,7.47-3.63C76.54,124,70.21,123.77,68.08,123.86Zm-41.57,6.93a2.91,2.91,0,0,1-3.13-.33,1.43,1.43,0,0,1-.49-1.9,2.36,2.36,0,0,1,3.59-.5C27.37,128.79,26.65,130.68,26.51,130.79Zm43.78-1.89c-1.22.76-3.9,1.94-5.47.49-1.29-1.19,1.84-3.6,4.77-3.37C72.13,126.21,71.51,128.13,70.29,128.9Z"/><path class="c" d="M106.85,129.93c-.46,0-1.25.6-1.79.5s-1-1.88-.91-3.43c.1-1.34.23-2.44-1.46-2.45-3.94,0-2.13,6.21-5.87,6.13-3.22-.06-.77-6.58-3.44-6.92,0,0-1.62-.25-4.86,1.7-.58.35-.86.09-1-.17a4.86,4.86,0,0,0-5.28-1.91c-5,1.19-5.8,5.7-6.38,7.06-.36.83-1.58,1.23-1.73,1.69s.89,1.25,1.64,1.26,1.63-1.06,2.89-.83,3.1,2,6.06,1S88.47,129,88.47,129s2.54-2.42,3.31-1.43c.54.69-.16,3.38,1.23,4.73.78.76,3.43,1.41,5.4,1.12a4.58,4.58,0,0,0,3.35-1.77,3,3,0,0,0,2.88.77,4,4,0,0,0,3.14-2C107.78,130.22,107.32,129.9,106.85,129.93Zm-21.93-1.28c-.51,1.61-3.76,4.23-4.68,1.06s1.83-4.34,3-4.08A2.18,2.18,0,0,1,84.92,128.66Z"/></svg>