<svg xmlns="http://www.w3.org/2000/svg" viewBox="0 0 250 250"><title>Grocery</title><path d="M152,125.77c-1.06.79-2,1.62-3.13,2.31a14.32,14.32,0,0,1-16.08-.75,14.84,14.84,0,0,1-6.07-9.79,15.07,15.07,0,0,1,1.45-9c2.11-4.42,5.46-7.47,10.31-8.53a14.73,14.73,0,0,1,14.47,4.23c.13.13.25.28.38.42a1.66,1.66,0,0,1,.11.16l-4.79,4.9c-.39-.36-.78-.7-1.13-1.07a.43.43,0,0,1,0-.36,3.83,3.83,0,0,0-1.13-4.64,7.38,7.38,0,0,0-5.37-1.89,9.2,9.2,0,0,0-8.34,5,14.11,14.11,0,0,0-.34,13.84A11.59,11.59,0,0,0,142.47,127a11.41,11.41,0,0,0,8.37-3.21,2.5,2.5,0,0,0,.89-1.68,7.17,7.17,0,0,1,4.55-5.78,10.85,10.85,0,0,1,7-.62l.41.08a3.67,3.67,0,0,0-4.43-4.41,5.6,5.6,0,0,0-4.23,3.25l-.24.48-1.82-.62,1.84-4.8a5.37,5.37,0,0,0,.91.08,9.64,9.64,0,0,0,1.88-.24,12.06,12.06,0,0,1,7,.09,4.3,4.3,0,0,1,3.09,4c.11,1.07.14,2.14.16,3.22.05,3.13.11,6.26.12,9.4a2.32,2.32,0,0,0,1.54,2.32,1.65,1.65,0,0,0,2.34-1.24,15.84,15.84,0,0,0,.13-2.05q0-4.28-.07-8.56a5.78,5.78,0,0,0-.26-1.41.65.65,0,0,0-.4-.39c-.1,0-.28.19-.4.32s-.17.35-.3.4a.74.74,0,0,1-.6,0,12.43,12.43,0,0,1-1.08-.94l3.46-5.06a5.67,5.67,0,0,1,2.06,2.38,1.54,1.54,0,0,0,.3.34,1.75,1.75,0,0,0,.34-.38c.14-.31.24-.64.36-1a1.71,1.71,0,0,1,1.31-1.15,15.76,15.76,0,0,1,4.6-.12,3.4,3.4,0,0,1,.51.14l-2.13,4.56c-.45-.3-.78-.56-1.14-.77a1.39,1.39,0,0,0-2.22.77,4.18,4.18,0,0,0-.3,1.45c0,3.4,0,6.8,0,10.19,0,.5.07,1,.08,1.49a.87.87,0,0,0,.72.9c.45.12.91.21,1.4.32v1.23h-.9c-2.37,0-4.73,0-7.1,0-.84,0-1.68-.09-2.52-.1-.41,0-.83.09-1.24.09a.62.62,0,0,1-.44-.22c-.51-.71-1-1.43-1.56-2.28a1.31,1.31,0,0,1-.09.26c-1.5,2.11-3.63,2.6-6,2.33a8.41,8.41,0,0,1-4-1.48A6,6,0,0,1,152,125.77Zm11.87-3.86h-.17c0-1,0-2,0-3,0-.78-.16-1-.9-1.24a5,5,0,0,0-2.36-.13,4.76,4.76,0,0,0-3.51,1.69,5.53,5.53,0,0,0-.65,5.66,4.67,4.67,0,0,0,5.18,2.85,2.94,2.94,0,0,0,2.42-3.09C163.86,123.75,163.87,122.83,163.87,121.91Z"/><path d="M61.89,104.76l-4.81,4.92c-.39-.36-.77-.69-1.11-1a.46.46,0,0,1,0-.4,3.84,3.84,0,0,0-1-4.51,7.44,7.44,0,0,0-5.56-2,9.19,9.19,0,0,0-8.26,4.93,14.13,14.13,0,0,0-.38,13.84A11.59,11.59,0,0,0,50.93,127a11.2,11.2,0,0,0,8-2.95A3.17,3.17,0,0,0,60.22,122c.49-3.16,2.56-5,5.48-6a10.87,10.87,0,0,1,6-.25l.4.07a3.64,3.64,0,0,0-3.51-4.44c-2.46-.09-4,1.18-5.13,3.23-.08.15-.15.31-.23.46l-.08.06-2-.6,1.3-3.08c.21-.49.39-1,.63-1.46a.5.5,0,0,1,.39-.24,6.63,6.63,0,0,0,2.8-.26,11,11,0,0,1,6.8.26,4.23,4.23,0,0,1,2.74,3.81,25.27,25.27,0,0,1,.17,2.66c.05,3.3.08,6.61.12,9.91a2.23,2.23,0,0,0,1.8,2.54c.43.15.56.36.51.77a6.61,6.61,0,0,0,0,.74c-.7,0-1.34-.09-2-.09s-1.23.07-1.85.08a.55.55,0,0,1-.39-.23c-.37-.58-.71-1.17-1.07-1.76-.08-.13-.17-.25-.29-.43-1.7,2.46-4.13,2.86-6.78,2.42a6.72,6.72,0,0,1-5.69-4.5,2.29,2.29,0,0,0-.25.19,14.5,14.5,0,0,1-22.08-1.63,13.51,13.51,0,0,1-3-9.12c.42-6.6,3.38-11.66,9.58-14.38a15,15,0,0,1,17,3.71Zm10.42,17.08h-.16c0-1,0-2,0-3a1,1,0,0,0-.78-1.11,4.24,4.24,0,0,0-.72-.2,8.1,8.1,0,0,0-3.28.27,3.75,3.75,0,0,0-2.18,1.44,5.84,5.84,0,0,0,0,6.7,4.33,4.33,0,0,0,4.51,1.8,3.11,3.11,0,0,0,2.61-3.3C72.3,123.59,72.31,122.71,72.31,121.84Z"/><path d="M196,130.14l1.07.46a4.06,4.06,0,0,0,2.68.35,2.86,2.86,0,0,0,1.72-1.42.56.56,0,0,0,0-.43q-2.89-7.19-5.8-14.37c-.45-1.1-1.05-1.27-2.29-.69l-.72-1.37-1,1.86c-.4-.27-.73-.53-1.09-.73a1.39,1.39,0,0,0-2.21.77,4.36,4.36,0,0,0-.3,1.5c0,3.38,0,6.76,0,10.15,0,.5.07,1,.08,1.49a.76.76,0,0,0,.54.79c.51.17,1,.3,1.59.46v1.16h-8.31a8.52,8.52,0,0,1,0-1c0-.11.19-.25.32-.29.35-.12.72-.2,1.08-.3a.76.76,0,0,0,.59-.75c0-.61.14-1.21.15-1.82q0-4.61,0-9.21a4.5,4.5,0,0,0-.22-1.28.76.76,0,0,0-.46-.45c-.13,0-.37.18-.48.34-.48.7-.65.73-1.3.16l-.77-.69,3.73-5.16,2.25,2.8a1.49,1.49,0,0,0,.16-.23,2.13,2.13,0,0,0,.17-.43,2.51,2.51,0,0,1,2.78-2c1,0,2,0,3,0a8.13,8.13,0,0,1,1,.16l-1,2,.06.07,4.63-2.48,1.89,4.57a15.39,15.39,0,0,0,1-1.87,3.58,3.58,0,0,1,3.72-2.34c1.76,0,3.52.06,5.28.06,1.09,0,2.17-.07,3.29-.11l-1.58,3.63c-2.52,5.74-5,11.5-7.57,17.22a6,6,0,0,1-4.59,3.8,6.91,6.91,0,0,1-3.5-.31c-.13,0-.31-.25-.29-.36C195.52,132.63,195.75,131.41,196,130.14Zm12.47-17.07h-.55c-1.2,0-2.4.07-3.6.09a3.23,3.23,0,0,0-2.56,1.15,10.09,10.09,0,0,0-1.11,1.72,1,1,0,0,0,0,.78c1,2.4,1.95,4.78,2.93,7.17.06.14.12.27.23.51Z"/><path d="M97,99.55a125.13,125.13,0,0,0-.35,12.59l.34-.26a10,10,0,0,1,5.6-2.66,6.49,6.49,0,0,1,2.85.35,4.15,4.15,0,0,1,2.7,3.57,14.28,14.28,0,0,1,.2,2.28c0,3.58,0,7.17,0,10.75,0,1.48.11,1.57,1.54,1.91l.71.17c0,.55,0,1.1,0,1.64,0,.09,0,.18,0,.23h-8.12l-.2-1.82c.51-.09,1-.16,1.45-.25a.72.72,0,0,0,.66-.8c0-3.68.05-7.35,0-11a8,8,0,0,0-.36-2.06,2.29,2.29,0,0,0-1.86-1.71,5.61,5.61,0,0,0-5.19,1.69,1.19,1.19,0,0,0-.31.79q0,5.54.08,11.08c0,.46.1.93.15,1.39a.69.69,0,0,0,.67.66c.42.05.83.08,1.29.12v1.94H90.56v-1.65c.46-.15.93-.28,1.39-.45a1.17,1.17,0,0,0,.85-1.16c0-.65.07-1.31.06-2,0-3.91-.08-7.82-.11-11.73,0-2.56,0-5.11-.06-7.67,0-.42-.06-.84-.07-1.26s-.18-.44-.47-.43l-1.25.07c0-.62,0-1.21,0-1.79a.37.37,0,0,1,.22-.25Z"/><path d="M122.41,128.25c-.51.33-1,.7-1.54,1a7.77,7.77,0,0,1-6.93.5,5.55,5.55,0,0,1-3.7-4.92,6.28,6.28,0,0,1,2.91-6.13c.52-.33,1.09-.58,1.67-.89-.4-.62-.77-1.25-1.19-1.84a3.71,3.71,0,0,1,1.09-5.25,7.31,7.31,0,0,1,8.72.55,1.3,1.3,0,0,0,.47.3,1,1,0,0,1,.74,1.13l-2.69,1.38c-.31-.53-.58-1.06-.9-1.55a3.43,3.43,0,0,0-2.77-1.59,2.43,2.43,0,0,0-2.36,2.88,4.1,4.1,0,0,0,.9,2c1.84,2.42,3.63,4.87,5.44,7.31.22.3.46.58.7.87.59-.52.89-2.76.59-3.89l-2-.09v-1.44h3.88c0,.83-.06,1.65-.14,2.46a14,14,0,0,1-1.08,4.52.47.47,0,0,0,0,.38,11.28,11.28,0,0,0,4.9,4.79,9.47,9.47,0,0,0,3.57.74c0,.88,0,1.74,0,2.61,0,.08-.27.21-.42.21a9.93,9.93,0,0,1-5.21-1.39,13,13,0,0,1-4.35-4.22l-.23-.35Zm-6.8-9.34a4.53,4.53,0,0,0-2.55,5.63,5.17,5.17,0,0,0,5.79,3.37,4.28,4.28,0,0,0,2.5-1Z"/><path d="M50.06,151.74V140.21h4l.06,1.19c2.15-2.07,4.14-2.05,6,0a3.19,3.19,0,0,1,3.26-1.53,2.44,2.44,0,0,1,2.4,2.24,8.3,8.3,0,0,1,.06,1q0,4,0,8.09v.53H61.74v-.51q0-3.44,0-6.87a5.79,5.79,0,0,0,0-.65c0-.32-.11-.64-.49-.7a.83.83,0,0,0-1,.42,2.12,2.12,0,0,0-.17.85c0,2.31,0,4.61,0,6.92v.54H56c0-.16,0-.34,0-.52q0-3.41,0-6.82a4.15,4.15,0,0,0-.05-.79.76.76,0,0,0-.86-.62.67.67,0,0,0-.72.65,5.51,5.51,0,0,0-.05.79q0,3.37,0,6.73c0,.18,0,.37,0,.58Z"/><path d="M76.78,127.52l2.56-3.73c.37.49.7,1,1.06,1.39a7.89,7.89,0,0,0,2.52,2.2,4.47,4.47,0,0,0,3.54.12c1.28-.43,2.1-2.79.78-3.94A12.87,12.87,0,0,0,83,121.11c-.67-.24-1.34-.49-2-.79-3.4-1.58-3.5-5.82-1.86-8a7.51,7.51,0,0,1,8.7-2.26,7.56,7.56,0,0,0,2.43.93c.35,0,.65.54,1,.85l-2.42,3.49c-.35-.43-.68-.87-1.05-1.28a5.11,5.11,0,0,0-4.14-2c-1.72.09-2.75,1.29-2.32,2.85a2.61,2.61,0,0,0,.93,1.34,13.81,13.81,0,0,0,2.38,1.26c1.18.53,2.39,1,3.58,1.49a6.9,6.9,0,0,1,1.13.65A4.8,4.8,0,0,1,91,126.06a8,8,0,0,1-10,4A14.32,14.32,0,0,1,76.78,127.52Z"/><path d="M36.69,134.11v-1.37h87.93a1.63,1.63,0,0,1,.74.2,15,15,0,0,1,1.84,1.17Z"/><path d="M138.42,141.51v-5h4.05v15.24h-4v-1.05a2.59,2.59,0,0,1-1.79,1.32,3.25,3.25,0,0,1-4-2.26,13.76,13.76,0,0,1-.36-4.68,13,13,0,0,1,.43-3,2.88,2.88,0,0,1,4-2,2.46,2.46,0,0,1,1.36,1.14,2.24,2.24,0,0,0,.15.23S138.31,141.49,138.42,141.51Zm.07,4.51c-.08-.77-.12-1.54-.25-2.29-.09-.57-.37-.77-.84-.75a.73.73,0,0,0-.75.79q-.06,2.19,0,4.38a.76.76,0,0,0,.78.82c.43,0,.71-.21.8-.75C138.36,147.51,138.41,146.76,138.49,146Z"/><path d="M38,147.23h4.18c0,.4,0,.79.09,1.17a.85.85,0,0,0,.82.86,1,1,0,0,0,1.1-.74,1.71,1.71,0,0,0-.95-2.22c-.83-.44-1.68-.82-2.51-1.25a11.09,11.09,0,0,1-1-.56A3,3,0,0,1,38.23,142a11.57,11.57,0,0,1,.19-2.91,3.7,3.7,0,0,1,3.08-2.72,8.23,8.23,0,0,1,3.94,0,3.77,3.77,0,0,1,2.87,4.41h-4c0-.29,0-.58,0-.87-.05-.59-.34-.91-.83-1a1,1,0,0,0-1.16.86,1.55,1.55,0,0,0,.66,1.68,9.41,9.41,0,0,0,1.4.73c.51.23,1,.42,1.55.64a4.31,4.31,0,0,1,2.82,4.88,9.44,9.44,0,0,1-.19,1.2,3.66,3.66,0,0,1-3,2.86,10.45,10.45,0,0,1-4.27,0,3.57,3.57,0,0,1-3.2-3.57C38,148,38,147.61,38,147.23Z"/><path d="M104.44,151.77h-3.87l-.35,0V136.5h9.2v3.41h-4.94v2.4H109v3.35h-4.6Z"/><path d="M120.27,146c-.09.89-.13,1.78-.29,2.65a3.72,3.72,0,0,1-3.54,3.34,11.92,11.92,0,0,1-3-.09,3.64,3.64,0,0,1-3.13-3.05,13.22,13.22,0,0,1-.06-5.38,3.81,3.81,0,0,1,3.69-3.43,10.77,10.77,0,0,1,2.79,0,3.7,3.7,0,0,1,3.28,3.29C120.14,144.2,120.18,145.09,120.27,146Zm-4.08.19c0-.88-.06-1.57-.12-2.25a2,2,0,0,0-.2-.85,1.16,1.16,0,0,0-.65-.48c-.34-.08-.59.16-.7.49a2.08,2.08,0,0,0-.13.59c0,1.35-.07,2.71-.07,4.06a4.62,4.62,0,0,0,.18,1.1.72.72,0,0,0,1.4,0,1.8,1.8,0,0,0,.09-.36C116.07,147.65,116.13,146.81,116.18,146.17Z"/><path d="M121.1,145.83c.09-.8.14-1.74.33-2.65a3.67,3.67,0,0,1,3.4-3.16,11.49,11.49,0,0,1,2.92,0c2,.28,3.05,1.42,3.42,3.54a13.53,13.53,0,0,1-.07,5.16,3.8,3.8,0,0,1-3.17,3.15,8.37,8.37,0,0,1-3.3,0,3.88,3.88,0,0,1-3.32-3.65C121.22,147.52,121.18,146.74,121.1,145.83Zm6,.13c0-.85-.07-1.48-.13-2.12a1.68,1.68,0,0,0-.18-.76,1.22,1.22,0,0,0-.65-.49.6.6,0,0,0-.7.48,2.53,2.53,0,0,0-.15.68c0,1.26-.08,2.52-.06,3.78a4.39,4.39,0,0,0,.26,1.41,1,1,0,0,0,.62.45.58.58,0,0,0,.68-.44,1.85,1.85,0,0,0,.14-.49C127,147.55,127.09,146.65,127.14,146Z"/><path d="M71.13,143.74H67.58a3,3,0,0,1,1.81-3.32,7.82,7.82,0,0,1,5.71-.05,2.67,2.67,0,0,1,1.67,2.81c0,1.64,0,3.27,0,4.91a8.85,8.85,0,0,0,.37,3.69h-.71c-.87,0-1.75,0-2.62,0-.5,0-.71-.15-.73-.63,0-.14,0-.28,0-.48a6,6,0,0,1-.5.59,3.54,3.54,0,0,1-3.6.61,2.46,2.46,0,0,1-1.76-2.35,7.11,7.11,0,0,1,0-1.82A3.09,3.09,0,0,1,70,145c.73-.15,1.47-.29,2.18-.49a1,1,0,0,0,.84-1.14.82.82,0,0,0-.63-.87,1,1,0,0,0-1.09.53A5.93,5.93,0,0,0,71.13,143.74ZM73,146.19a8.91,8.91,0,0,0-1.26.51,1.17,1.17,0,0,0-.52.65,4,4,0,0,0,0,1.19.68.68,0,0,0,.58.69.93.93,0,0,0,1-.42,1.45,1.45,0,0,0,.21-.65C73.07,147.52,73,146.87,73,146.19Z"/><path d="M204.73,146.65c0,.77,0,1.45,0,2.14a.93.93,0,0,0,.29.65,1.12,1.12,0,0,0,.81.17.86.86,0,0,0,.45-.57,8.56,8.56,0,0,0,.13-1.28h3.76a3.73,3.73,0,0,1-2.25,3.91,7.08,7.08,0,0,1-4.85,0,3.61,3.61,0,0,1-2.37-2.84,13.18,13.18,0,0,1,0-5.47A3.76,3.76,0,0,1,204.3,140a12.23,12.23,0,0,1,3.1.09,3.22,3.22,0,0,1,2.71,2.52,13.85,13.85,0,0,1,.33,4Zm0-2.2.36,0c1.43,0,1.45,0,1.23-1.45-.06-.41-.21-.71-.69-.72s-.82.16-.88.68A13,13,0,0,0,204.76,144.46Z"/><path d="M163.79,147.73a23.42,23.42,0,0,1-.54,2.32,3,3,0,0,1-2.34,1.8,8,8,0,0,1-3.61.05,3.61,3.61,0,0,1-3-3.13,15.58,15.58,0,0,1,0-5.44,3.58,3.58,0,0,1,3.48-3.32,12.4,12.4,0,0,1,3.2.1,3,3,0,0,1,2.66,2.65c.22,1.25.26,2.53.39,3.87H158c0,.86.06,1.67.15,2.46.05.42.42.58.84.58a.73.73,0,0,0,.81-.61c.06-.33.05-.68.11-1,0-.11.16-.29.24-.29C161.35,147.73,162.48,147.73,163.79,147.73ZM160,144.47c0-.54-.05-1-.13-1.49a.76.76,0,0,0-.86-.68.79.79,0,0,0-.83.72,6.22,6.22,0,0,0-.08,1.16.38.38,0,0,0,.25.28C158.86,144.49,159.37,144.47,160,144.47Z"/><path d="M194.29,132.77c0,.4-.08.77-.14,1.13a.36.36,0,0,1-.23.22,1.51,1.51,0,0,1-.42,0H133.81v-1.37Z"/><path d="M199.76,144.75h-3.92c0-.41,0-.81-.09-1.2a1.61,1.61,0,0,0-.29-.76.78.78,0,0,0-1.29.28,1.33,1.33,0,0,0-.11.45c0,1.65,0,3.3,0,4.94,0,.69.31.94.8,1s.89-.25,1-.94c.08-.52.1-1,.14-1.6h3.66a6.45,6.45,0,0,1-.77,3.75,3,3,0,0,1-1.76,1.16,8.17,8.17,0,0,1-4.11.09,3.55,3.55,0,0,1-2.79-2.66,12.68,12.68,0,0,1,0-6.29,3.67,3.67,0,0,1,3.27-2.91,9.4,9.4,0,0,1,3.57.11,2.88,2.88,0,0,1,2.38,2.29C199.6,143.16,199.65,143.93,199.76,144.75Z"/><path d="M143.68,148.07h3.6c0,.24,0,.49.09.73a1,1,0,0,0,1,.87.7.7,0,0,0,.79-.56c.16-.61,0-1-.51-1.25-.77-.34-1.56-.62-2.34-.92l-.69-.29c-1.58-.74-2.41-1.77-1.79-4.16a3.25,3.25,0,0,1,2.56-2.35,7.91,7.91,0,0,1,4.29.08,2.9,2.9,0,0,1,2.2,3.2h-3.47c0-.13,0-.31-.07-.42s-.36-.58-.59-.63a1.54,1.54,0,0,0-1,.18.67.67,0,0,0,.11,1.08,7,7,0,0,0,1.12.56c.58.24,1.16.45,1.75.66a3,3,0,0,1,2.39,3.29,3.43,3.43,0,0,1-2.4,3.56,7.85,7.85,0,0,1-5.05,0,2.92,2.92,0,0,1-1.95-2.72A7.85,7.85,0,0,1,143.68,148.07Z"/><path d="M180.57,151.75h-4.82L173,140.19h4.24l.88,7.62h.11l1.07-7.63h4.06Z"/><path d="M87.74,142.88H86.47v-2.71h1.25v-3.39H92v3.37h1.45v2.71H92.09c-.05.08-.08.11-.08.14q0,2.76,0,5.51a.57.57,0,0,0,.64.64c.25,0,.49,0,.78,0v2.72a13.12,13.12,0,0,1-4.19,0,1.7,1.7,0,0,1-1.39-1.46,6.71,6.71,0,0,1-.11-1.21c0-1.9,0-3.8,0-5.7C87.74,143.27,87.74,143.11,87.74,142.88Z"/><path d="M82.52,140.2v1.65l.12.11c.63-1.38,1.53-2.31,3.19-2v3.7c-.52,0-1,0-1.53,0-.93,0-1.46.45-1.51,1.37-.08,1.41-.06,2.83-.08,4.25,0,.81,0,1.62,0,2.45H78.49V140.2Z"/><path d="M165,151.74V140.19h4v1.39a14.65,14.65,0,0,1,1.29-1.34,2.31,2.31,0,0,1,1.83-.31v3.72c-.47,0-.94,0-1.4,0-1.1,0-1.65.54-1.68,1.64,0,1.93,0,3.86,0,5.8,0,.2,0,.4,0,.63Z"/><path d="M184.51,140.19h4v11.55h-4Z"/><path d="M188.52,139.16h-4v-2.87h4Z"/><path d="M210.8,132.73v1.34h-8.27c.67-.59,1-1.43,2.11-1.37,1.86.1,3.73,0,5.6,0Z"/><path d="M212.26,142.22v-1.87h.8a1.36,1.36,0,0,1,.44.05.43.43,0,0,1,.22.18.54.54,0,0,1,.08.3.5.5,0,0,1-.12.35.6.6,0,0,1-.37.17.88.88,0,0,1,.2.16,2.14,2.14,0,0,1,.22.3l.23.37h-.45l-.27-.41a2.65,2.65,0,0,0-.2-.28.29.29,0,0,0-.11-.08l-.19,0h-.08v.78Zm.38-1.08h.28a1.45,1.45,0,0,0,.34,0,.2.2,0,0,0,.11-.08.24.24,0,0,0,0-.14.22.22,0,0,0-.05-.15.23.23,0,0,0-.14-.07h-.57Z"/><path d="M213.1,143.18a1.9,1.9,0,1,1,1.9-1.9A1.9,1.9,0,0,1,213.1,143.18Zm0-3.42a1.52,1.52,0,1,0,1.52,1.52A1.52,1.52,0,0,0,213.1,139.76Z"/></svg>