<svg xmlns="http://www.w3.org/2000/svg" viewBox="0 0 250 250"><title>Grocery</title><path d="M197.13,119.41v6.66c-.15.07-.1.21-.1.32a63.8,63.8,0,0,1-1.83,12.35,67.07,67.07,0,0,1-30.89,41.93c0,.07-.21,0-.18.18h0c-.08,0-.21,0-.22.12h0a.55.55,0,0,0-.54.32h0a.94.94,0,0,0-.75.43h0a6.49,6.49,0,0,0-2,1.08h0c-.17,0-.31,0-.33.2h0c-.12-.07-.21-.06-.22.11h0c-.2-.11-.33.05-.48.12-1.12.51-2.23,1.06-3.36,1.54a66.64,66.64,0,0,1-27.42,5.46,68.36,68.36,0,0,1-12.42-1.31,67.52,67.52,0,0,1-54.23-65.08,64,64,0,0,1,.49-9,67.42,67.42,0,0,1,61.59-59.34,69.1,69.1,0,0,1,11.4,0,67.89,67.89,0,0,1,31.65,11.21,68.12,68.12,0,0,1,11,9.19c.1.1.16.36.4.19a.18.18,0,0,1,.15.16s-.07.07-.06.07a7.17,7.17,0,0,0,1.66,1.78h0c0,.09,0,.15.11.11h0a.73.73,0,0,0,.53.64h0a.15.15,0,0,0,.13.22v0c0,.15.11.21.19.3a27.4,27.4,0,0,1,3,3.78,69.37,69.37,0,0,1,9.3,18.19,67.08,67.08,0,0,1,3.3,16.35A5.68,5.68,0,0,0,197.13,119.41Zm-62,26.23c.48,2.6,1,5.16,1.41,7.72.08.47.26.55.68.52,3.25-.2,6.5-.48,9.72-1,.29,0,.4,0,.45.3.21,1.09.46,2.17.67,3.26.06.34.18.44.52.35a14.19,14.19,0,0,1,1.45-.3c.38-.06.49-.2.4-.59-.23-1-.39-2-.65-3-.13-.47,0-.56.44-.63a19.88,19.88,0,0,0,4.88-1.52,7.22,7.22,0,0,0,4.31-5.57,12.84,12.84,0,0,0,0-3.69,18.94,18.94,0,0,0-1.64-6.25,5.26,5.26,0,0,0-3.65-2.94,10,10,0,0,0-2.52-.23,34,34,0,0,0-5.55.69c-.35.07-.5,0-.57-.36-.2-1.07-.43-2.14-.66-3.21-.07-.33,0-.48.35-.56a46,46,0,0,1,5.06-.8c1.73-.17,3.47-.3,5.21-.46.23,0,.55.05.46-.41q-.84-4.41-1.64-8.82c-.05-.29-.15-.38-.43-.36-.56,0-1.13,0-1.69.07a79.47,79.47,0,0,0-8.1.71c-1.4.2-1.38.22-1.66-1.13-.07-.35,0-.44.34-.51a19.86,19.86,0,0,0,4.32-1.37,7.12,7.12,0,0,0,4.43-5.76,18.13,18.13,0,0,0-1.51-9.59,5.46,5.46,0,0,0-5.09-3.35,26.28,26.28,0,0,0-6.14.55c-.37.07-.52,0-.59-.37-.19-1.09-.44-2.17-.68-3.25-.07-.31,0-.45.32-.5.85-.14,1.7-.31,2.55-.44,2.42-.37,4.87-.5,7.31-.72.26,0,.43,0,.36-.38q-.83-4.38-1.63-8.77c-.06-.32-.15-.45-.49-.44a84.26,84.26,0,0,0-10.15.86c-.32.05-.43,0-.49-.34-.22-1.14-.47-2.27-.7-3.41-.05-.28-.14-.39-.44-.31a15.3,15.3,0,0,1-1.6.34c-.34.05-.38.2-.31.49.24,1.1.46,2.21.71,3.3.07.33,0,.44-.34.52a19.81,19.81,0,0,0-4.3,1.43c-2.93,1.42-4.79,3.64-5,7a18.15,18.15,0,0,0,2.34,10.2,5.67,5.67,0,0,0,3.71,2.85,9.22,9.22,0,0,0,3,.16,44,44,0,0,0,4.48-.75c.42-.08.54,0,.62.42.21,1.11.43,2.21.68,3.31.09.37,0,.52-.37.59a57.12,57.12,0,0,1-10.05,1.2c-.46,0-.47.16-.4.52.2,1,.39,2,.58,3.06s.34,1.87.51,2.81a1.21,1.21,0,0,1-.34-.49q-6.31-14-12.61-28c-.14-.32-.29-.45-.67-.38Q106.89,89.38,99,90.83c-.33.06-.39.2-.4.48q-.36,5.69-.73,11.39-.5,7.83-1,15.66a15,15,0,0,1-.21,2.42c-.44-2.39-.88-4.69-1.29-7-.07-.38-.16-.41-.5-.28-1.24.49-2.48,1-3.75,1.42A16.39,16.39,0,0,1,85,116a4,4,0,0,1-3.66-2.44,9.52,9.52,0,0,1-.84-3.68,4.43,4.43,0,0,1,3.15-4.77,20.52,20.52,0,0,1,5.22-1A36.35,36.35,0,0,1,93,104c.34,0,.5,0,.41-.47q-.91-4.77-1.76-9.56c-.07-.41-.21-.6-.65-.63-1.3-.09-2.59-.24-3.89-.33A25.55,25.55,0,0,0,77.22,94a13.79,13.79,0,0,0-5.88,3.5,12,12,0,0,0-3.13,8,33.15,33.15,0,0,0,2.44,13.63,13.61,13.61,0,0,0,3.91,5.62,11.73,11.73,0,0,0,7.71,2.55,26.43,26.43,0,0,0,10.42-2.2c1.28-.53,2.52-1.14,3.81-1.76,0,.26,0,.48,0,.68s0,.43.4.36q5.14-1,10.28-1.9c.33-.06.45-.18.45-.54,0-1.41,0-2.82,0-4.23,0-.31.05-.46.41-.52q3.74-.66,7.48-1.38c.36-.07.49,0,.61.34.49,1.34,1,2.66,1.52,4,.11.28.22.37.54.3,1.54-.3,3.07-.61,4.62-.86a60.61,60.61,0,0,1,6.33-1c3.2-.17,6.39-.45,9.57-.92.43-.06,1-.3,1.27-.12s.22.84.36,1.27,0,.46-.33.54a17.8,17.8,0,0,0-3.69,1.26c-2.91,1.39-4.79,3.57-5.06,6.87a18.55,18.55,0,0,0,1.93,9.62,6.25,6.25,0,0,0,6.55,3.75,41.47,41.47,0,0,0,4.65-.69c.29-.05.39,0,.45.29.23,1.19.47,2.38.74,3.57.08.34,0,.43-.32.47-1.37.21-2.74.46-4.12.66A34.51,34.51,0,0,1,135.17,145.64Zm-27.68-1.49-.1,0c-.07-.19-.15-.38-.21-.57q-2.82-8-5.63-16c-.13-.38-.28-.45-.67-.37-2.56.49-5.12,1-7.69,1.41-.33.06-.46.16-.45.53.09,2.73.14,5.46.21,8.18.06,2.36.13,4.72.18,7.08,0,.82,0,1.65,0,2.6l-.16-.47q-2.7-8.14-5.39-16.28c-.14-.43-.3-.57-.77-.48q-4.85.93-9.71,1.8c-.41.07-.46.19-.31.57q5.67,15.09,11.31,30.2c.12.33.25.41.6.34q5.34-1,10.7-2c.4-.07.5-.22.5-.61-.05-2.47-.08-4.93-.11-7.4s-.09-5-.13-7.45c0-.94,0-1.87,0-2.81a.67.67,0,0,1,.2.32L105.58,159c.1.28.13.58.62.48,3.56-.68,7.13-1.33,10.7-2,.32-.06.44-.17.44-.51,0-1.27,0-2.54,0-3.8q0-5.45,0-10.89,0-3.12,0-6.24,0-5.76.07-11.52c0-.27,0-.38-.35-.33q-5,.94-10.07,1.86c-.28.05-.33.17-.32.42q.21,4.75.41,9.5Q107.32,140.06,107.49,144.15ZM176.32,76.9l-.13,0c-3.48.64-7,1.3-10.44,1.92-.44.08-.38.29-.33.58.64,3.46,1.27,6.93,1.93,10.38.08.42,0,.54-.41.61-1.86.32-3.71.66-5.56,1-.39.08-.5,0-.57-.4-.63-3.5-1.3-7-1.93-10.49-.07-.37-.19-.41-.52-.33-.48.12-1,.18-1.45.27-2.93.54-5.85,1.09-8.78,1.61-.41.07-.49.21-.41.61.25,1.22.46,2.46.69,3.68L151.85,105q.82,4.44,1.64,8.88c0,.22,0,.52.44.43q5.13-1,10.28-1.9c.46-.08.51-.25.43-.65-.65-3.46-1.28-6.92-1.94-10.38-.07-.38,0-.48.37-.54,1.8-.31,3.6-.65,5.4-1,.78-.14.65-.26.81.56q1,5.14,1.89,10.28c.07.38.2.41.51.33s.93-.18,1.4-.26c2.94-.54,5.88-1.09,8.83-1.62.42-.07.48-.22.41-.61-.33-1.64-.62-3.29-.92-4.93l-3.74-20.3c-.36-2-.72-3.95-1.1-5.92C176.54,77.21,176.65,76.89,176.32,76.9Zm4.57,45.36c-.54-2.9-1.08-5.74-1.57-8.58-.09-.5-.26-.57-.72-.48-4.13.78-8.27,1.53-12.41,2.3-3.39.63-6.78,1.26-10.18,1.88-.34.06-.48.16-.37.5a2.87,2.87,0,0,1,.07.36l3.23,17.5q1.23,6.7,2.46,13.4c.07.39.21.46.58.39q11.31-2.11,22.63-4.18c.37-.07.51-.16.43-.57q-.71-3.73-1.38-7.48c-.07-.42-.24-.48-.62-.41L171.48,139c-.3.06-.41,0-.45-.31-.14-.82-.26-1.64-.46-2.44-.13-.52.05-.63.52-.71,3.81-.69,7.62-1.4,11.42-2.09.3-.05.43-.12.36-.46q-.65-3.42-1.27-6.85c0-.26-.14-.32-.38-.24a3.67,3.67,0,0,1-.47.08c-3.76.69-7.51,1.38-11.27,2.08-.32.06-.44,0-.49-.32-.15-.89-.29-1.77-.48-2.65-.07-.33,0-.39.32-.43l5.87-1.07,5.81-1.07C180.7,122.53,181,122.56,180.89,122.26Zm-56.82,34.06h.11l10.44-1.92c.31-.06.34-.18.28-.46-.43-2.26-.84-4.53-1.26-6.8q-2.25-12.2-4.5-24.4c-.09-.48-.26-.53-.68-.45q-5.08,1-10.17,1.88c-.32.06-.42.16-.35.48.16.79.3,1.59.45,2.39l3.76,20.4,1.58,8.57C123.77,156.19,123.78,156.4,124.06,156.33Zm-13.83,13.41c-.27-.74-.27-.74-1-.61a1.88,1.88,0,0,1-.36.07c-.46,0-.49.23-.42.6.34,1.85.65,3.71,1,5.56.14.77.14.77.95.64,1.06-.17,1.05-.17.86-1.24s-.41-2.36-.61-3.54c0-.24,0-.5.26-.56s.32.24.4.44a.58.58,0,0,1,0,.1c.18,1,.36,2,.53,3.07.26,1.5.25,1.5,1.76,1.16.24-.05.38-.1.29-.41a10.08,10.08,0,0,1-.19-1.09c-.18-1-.37-2.08-.55-3.12,0-.26,0-.54.27-.6s.32.25.39.45a1,1,0,0,1,0,.15l.56,3.22c.2,1.18.2,1.18,1.37,1a3.76,3.76,0,0,1,.41-.08c.25,0,.27-.12.23-.34-.33-1.8-.62-3.61-1-5.4a1.23,1.23,0,0,0-2.06-.78,1.38,1.38,0,0,0-.51.89C111.8,168.25,110.67,168.42,110.23,169.74ZM153,165.66l-.13,0c-.2-.93-.38-1.85-.59-2.77-.1-.42,0-1-.34-1.23s-.87.11-1.32.14-.38.14-.29.44c.59,2,1.18,4,1.75,6,.09.32.22.38.52.3a6.49,6.49,0,0,1,1.25-.22c.57,0,.6-.3.55-.78-.18-1.5-.3-3-.44-4.52a.15.15,0,0,0,0,0h0c.39,1.57.79,3.14,1.16,4.71.07.29.17.37.46.31.5-.11,1-.2,1.51-.27.27,0,.39-.13.37-.44-.12-1.77-.2-3.55-.33-5.32,0-.42.14-1-.19-1.22s-.84.12-1.27.16-.31.19-.28.42c.1.64.19,1.29.26,1.94a6.21,6.21,0,0,1,.11,1.67c-.27-.91-.49-1.83-.7-2.75-.26-1.12-.26-1.12-1.37-.94s-1.15.19-1,1.38C152.78,163.66,152.86,164.66,153,165.66Zm-2.38.87a11.41,11.41,0,0,0-.9-4.3,2.47,2.47,0,0,0-4.58.89,10.48,10.48,0,0,0,.91,5,2.15,2.15,0,0,0,2.59,1.31,2.2,2.2,0,0,0,2-2.14A7,7,0,0,0,150.59,166.52Zm19.29-7.5a1.51,1.51,0,0,0-1.7-.35,1.41,1.41,0,0,0-.7,1.53,13.05,13.05,0,0,0,.92,4.36,1.39,1.39,0,0,0,1.22,1,1.27,1.27,0,0,0,1.38-.83c0,.49.28.5.62.42a6.47,6.47,0,0,1,.88-.16c.29,0,.34-.15.29-.41-.4-2.23-.78-4.47-1.19-6.7-.08-.44,0-1.1-.32-1.27s-.9.11-1.37.15-.39.21-.32.52C169.7,157.87,169.78,158.45,169.88,159ZM119,173.65a1.32,1.32,0,0,0,1.66.58,1.37,1.37,0,0,0,.78-1.52,9.55,9.55,0,0,0-.12-1.26,11.66,11.66,0,0,0-.85-3.25,1.36,1.36,0,0,0-1.56-.89c-.5.07-.76.42-1.06.91,0-.56-.15-.65-.54-.53a2.86,2.86,0,0,1-.78.14c-.39,0-.46.19-.39.54q.69,3.81,1.35,7.63c0,.28.15.36.41.3a10.64,10.64,0,0,1,1.14-.2c.33,0,.35-.18.3-.45C119.19,175,119.09,174.38,119,173.65Zm40.54-12.57a1.43,1.43,0,0,1-.1-.33c0-.45-.25-.46-.59-.38a5.31,5.31,0,0,1-.88.16c-.36,0-.46.14-.39.52.31,1.64.58,3.29.88,4.94.09.48,0,1.13.34,1.38s.9-.12,1.37-.16.38-.16.32-.48c-.26-1.35-.48-2.7-.72-4.06,0-.27-.12-.58.22-.66s.39.28.43.52c.2,1,.36,2,.54,3.07.08.45,0,1.07.29,1.3s.88-.09,1.35-.11.46-.16.39-.53c-.31-1.64-.59-3.29-.88-4.94a2.22,2.22,0,0,0-.26-.74,1.2,1.2,0,0,0-1.73-.43A1.63,1.63,0,0,0,159.51,161.08Zm-52.43,7.17-3.36.58c-.24,0-.32.14-.27.39q.67,3.71,1.32,7.43c0,.25.12.31.37.26,1-.19,2-.39,3-.51.56-.07.66-.26.54-.8-.24-1.11-.21-1.12-1.34-.91s-1,.17-1.13-.88c0-.26.05-.34.3-.36s.72-.16,1.09-.19.67-.17.55-.73c-.25-1.15-.21-1.16-1.36-1-1,.16-1,.15-1.13-.83-.05-.31,0-.42.32-.44a3,3,0,0,0,.36-.07c1.46-.28,1.46-.28,1.08-1.72C107.33,168.3,107.28,168.16,107.08,168.25Zm22,2.22a8.28,8.28,0,0,0-.76-3.47,2,2,0,0,0-2.31-.93,1.85,1.85,0,0,0-1.7,1.62,7.14,7.14,0,0,0,.85,4.48,1.84,1.84,0,0,0,2.25.92C128.57,172.78,129.07,172,129,170.47Zm8.6-1.5a2,2,0,0,1-1.23.75.85.85,0,0,1-1-.39c-.13-.24-.18-.41.19-.46.59-.08,1.18-.2,1.77-.31.16,0,.37,0,.33-.3a8.19,8.19,0,0,0-.67-2.81,1.94,1.94,0,0,0-3.6.47,6.57,6.57,0,0,0,.82,4.63,2.13,2.13,0,0,0,3.47.16.48.48,0,0,0,.12-.43C137.8,169.88,137.73,169.47,137.64,169Zm4.58-.82a1.87,1.87,0,0,1-1.45.77.78.78,0,0,1-.74-.41c-.14-.25-.16-.41.2-.46.61-.08,1.21-.21,1.82-.31.17,0,.32,0,.28-.28a9.39,9.39,0,0,0-.63-2.71,1.78,1.78,0,0,0-2-1.12,1.82,1.82,0,0,0-1.72,1.59,6.88,6.88,0,0,0,.78,4.44,2.1,2.1,0,0,0,3.11.64.93.93,0,0,0,.48-1.19A6.06,6.06,0,0,1,142.22,168.15Zm-10.84.87h-.11l-.63-2.28c-.39-1.44-.39-1.43-1.85-1.09-.27.06-.34.13-.22.41.43,1,.86,2.08,1.25,3.14.55,1.45,1.38,2.83,1.1,4.49,0,.23,0,.31.29.26s.79-.16,1.2-.21.33-.18.33-.43q0-4,0-7.93c0-.32-.05-.46-.41-.36a3.56,3.56,0,0,1-.88.16c-.42,0-.47.21-.42.58C131.19,166.85,131.27,167.94,131.38,169Zm35.84-5.28a2,2,0,0,1-.92.69c-.43.12-.88.19-1.21-.22s-.23-.49.22-.57l1.72-.3c.19,0,.33-.06.3-.32a9.94,9.94,0,0,0-.56-2.57,1.95,1.95,0,0,0-3.73.4,6.76,6.76,0,0,0,.8,4.43,2.14,2.14,0,0,0,3.43.32c.12-.12.25-.24.21-.45C167.38,164.73,167.31,164.29,167.21,163.74Zm-44.55,10.07a10.15,10.15,0,0,1,1.18-.21c.44,0,.45-.24.38-.59q-.59-3.25-1.15-6.5c-.27-1.54-.26-1.54-1.81-1.15-.26.06-.29.15-.24.39.14.71.25,1.42.38,2.13.32,1.84.64,3.67,1,5.51C122.42,173.58,122.35,173.92,122.67,173.82Zm68.14-30.53a2.73,2.73,0,0,0-2.69-2.8,2.77,2.77,0,0,0-2.8,2.72A2.71,2.71,0,0,0,188,146,2.66,2.66,0,0,0,190.8,143.28Z" style="fill:#cd163f"/><path d="M130.18,53.31a6.64,6.64,0,0,0,1.89.19c2.33.18,4.64.48,6.94.89a71.47,71.47,0,0,1,14,4A69.61,69.61,0,0,1,172.43,70.1a76.42,76.42,0,0,1,6,5.76c.08.09.15.19.23.29-.24.17-.3-.08-.4-.19a68.12,68.12,0,0,0-11-9.19,67.89,67.89,0,0,0-31.65-11.21,69.1,69.1,0,0,0-11.4,0A67.4,67.4,0,0,0,62.7,114.85a64,64,0,0,0-.49,9,67.08,67.08,0,0,0,13.11,38.88,67.09,67.09,0,0,0,41.12,26.2,68.36,68.36,0,0,0,12.42,1.31,66.64,66.64,0,0,0,27.42-5.46c1.13-.48,2.24-1,3.36-1.54.15-.07.28-.23.48-.12a29.87,29.87,0,0,1-3.83,1.9,68.15,68.15,0,0,1-14.66,4.67c-2,.4-4.09.7-6.15,1A63.64,63.64,0,0,1,125,191a71.31,71.31,0,0,1-28.14-7.06,70.06,70.06,0,0,1-37.58-46.5,64.91,64.91,0,0,1-1.63-10.32,67.91,67.91,0,0,1,6.47-34.94A67,67,0,0,1,78.82,72.09a69.17,69.17,0,0,1,31.13-16.83,62.27,62.27,0,0,1,8.74-1.53c1.26-.13,2.52-.28,3.78-.31.08,0,.18,0,.21-.1Zm-.6.92h0c-.22-.84-.9-.4-1.38-.49A3.34,3.34,0,0,0,129.58,54.23ZM107.68,187.68a3.64,3.64,0,0,0,1.51.43c-.5-.14-.95-.5-1.51-.42a8.61,8.61,0,0,0-3.34-1.05A23.71,23.71,0,0,0,107.68,187.68ZM70,157.61c.06,0,.06,0,0,0l0,0a1.19,1.19,0,0,0-.65-1c-.79-.35-1.64-.56-2.54-1l1.33,2.22c.26-.68.38-.73,1-.51Zm-.39,2.29c0-.1-.11-.11-.2-.06l.14.12,1.59,2.31c.08-.76.22-.86.82-.68.31.1.61.21,1,.34a2.23,2.23,0,0,0-1.5-1.37A7.22,7.22,0,0,1,69.6,159.9Zm-1.9-6.37a1.59,1.59,0,0,0-1.32-1.34c-.59-.16-1.15-.42-1.78-.65l1.1,2.1c.21-.59.38-.68.94-.48Zm-4.12-4.22c.21-.59.35-.67.81-.52l1.26.43a1.51,1.51,0,0,0-1.23-1.37,4.88,4.88,0,0,1-1.79-.77Zm-3.9-43.37a5.86,5.86,0,0,1-.18.74c-.13.34,0,.5.32.57a7.85,7.85,0,0,1,1,.34c.8.29.78.29,1-.56.06-.29,0-.36-.26-.44C60.92,106.4,60.33,106.17,59.68,105.94Zm-1.46,8.27c0,.36-.08.67-.12,1,0,.16,0,.25.2.28a15.81,15.81,0,0,1,1.55.5c.14,0,.44.37.48,0s.37-.8-.11-1S58.9,114.45,58.21,114.21Zm2.64,18.43c-.12-.42.1-.94-.31-1.14a21.92,21.92,0,0,0-2.2-.82c0,.17,0,.28,0,.38.09.46-.11,1.16.79,1,.1,0,.23.08.34.12Zm-2-22.57a6.15,6.15,0,0,1-.14.84c-.08.27,0,.35.25.42.49.13,1,.33,1.45.48.15,0,.45.34.47-.05s.47-.76-.11-1S59.48,110.3,58.82,110.06ZM59,134.92c.06.28.11.54.17.79s0,.85.65.57c.13-.05.33.06.5.12l1.27.45a1.13,1.13,0,0,0-.95-1.35A15.54,15.54,0,0,1,59,134.92Zm2.77,10a.66.66,0,0,1,1-.35c.39.16.8.28,1.21.43a1.32,1.32,0,0,0-1.14-1.35,15.51,15.51,0,0,1-1.66-.59Zm-3.87-18.38a2.73,2.73,0,0,1,0,.3c0,.58,0,1.07.81,1.1a5.87,5.87,0,0,1,1.57.53,3.2,3.2,0,0,1,0-.48c.06-.49-.19-.7-.64-.83S58.54,126.74,57.92,126.52Zm4.22-28.35c-.11,0-.14.07-.18.18a4.6,4.6,0,0,1-.2.54c-.11.23-.1.35.2.43s.79.27,1.19.42c.66.24.67.24.89-.45,0-.12.24-.31,0-.4C63.43,98.62,62.8,98.4,62.14,98.16Zm.49,42.66a1.18,1.18,0,0,0-1-1.28,14.63,14.63,0,0,1-1.68-.59l.44,1.58C61.26,140,61.9,140.81,62.64,140.82Zm1-46.47s-.1,0-.12.05a3.35,3.35,0,0,0-.36.92c0,.16.34.17.52.24.41.16.83.3,1.24.45.21.08.36.09.43-.17a4.26,4.26,0,0,1,.23-.53c0-.1.09-.21,0-.26Zm-3.62,30c0-.26,0-.48,0-.71s0-.31-.18-.38l-2.11-.75c0,.36,0,.68,0,1,0,.1,0,.24.12.24A11.7,11.7,0,0,1,60.06,124.31Zm-2.2-5.87c0,.36,0,.66-.05,1,0,.13,0,.25.2.28a12.63,12.63,0,0,1,1.6.5c.14,0,.38.33.44,0s.27-.79-.12-1A20.73,20.73,0,0,0,57.86,118.44Zm7.58-27.82c-.22.17-.26.46-.41.68s-.11.35.17.44a7,7,0,0,1,1.23.45c.45.23.67.08.81-.34.05-.17.32-.41.14-.49C66.77,91.07,66.11,90.87,65.44,90.62Zm3.61-6.23,1.77.64c.12,0,.23.13.38,0,.61-.58.57-.84-.21-1.12l-.3-.11C69.65,83.41,69.65,83.41,69.05,84.39ZM66.86,88l1.13.41c1,.36,1,.36,1.48-.66l-1.08-.39C67.35,86.94,67.35,86.94,66.86,88Zm-6,14.09c-.24.14-.18.43-.28.64s-.09.39.23.48c.51.13,1,.35,1.48.52.13,0,.32.22.38,0s.39-.7.13-.85A13.09,13.09,0,0,0,60.82,102Zm15.4,64.12a5.91,5.91,0,0,0-3.35-1.65l1.61,1.92c.09-.7.23-.79.86-.59C75.62,165.94,75.89,166,76.22,166.17Zm-2.7-84.52c.24-.15.36-.44.56-.65s.08-.26-.12-.32l-1.44-.51c-.27-.1-1,.41-1,.69a.16.16,0,0,0,.09.11Zm3.3-6.89a7.93,7.93,0,0,1,1.14.43,1,1,0,0,0,1.5-.35l.07-.13-.1-.06-1.09-.39c-.85-.31-.85-.31-1.45.36A.86.86,0,0,0,76.82,74.76Zm-.07,2.92-1.59-.57a.79.79,0,0,0-1,.51c-.09.4.35.26.54.38a2.74,2.74,0,0,0,.59.22c.82.3.82.3,1.36-.38A1,1,0,0,0,76.75,77.68Zm3.08-5.83a6.8,6.8,0,0,1,1.09.41,1.1,1.1,0,0,0,1.61-.34.57.57,0,0,0,0-.13,6,6,0,0,1-1.11-.41C80.76,70.94,80.27,71.17,79.83,71.84ZM83.12,69l1.24.45c.84.3.84.3,1.51-.44a5.5,5.5,0,0,1-1.12-.42,1.08,1.08,0,0,0-1.58.3Zm6.08-2.43c-.54-.3-1.19-.33-1.67-.73-.11-.09-.19,0-.28,0l-.87.62a10.23,10.23,0,0,1,1.19.45A1.17,1.17,0,0,0,89.2,66.59Zm3.62-2.33c-.55-.32-1.22-.31-1.67-.78-.06-.07-.14,0-.19,0a5.06,5.06,0,0,0-1,.65,7.92,7.92,0,0,1,1.16.43A1.26,1.26,0,0,0,92.81,64.26Zm1-2.34c1.07.2,2,1.17,3,.1a3.23,3.23,0,0,1-1.13-.44c-.55-.54-.94-.14-1.39.09ZM101,60c-.44-.32-1.15-.2-1.44-.82,0,0-.09,0-.13,0a7.22,7.22,0,0,0-1.32.64C99.14,60,100,60.95,101,60Zm6.27-3.59c1.27.73,2.17.83,2.89.32-.29-.16-.75-.13-.88-.42-.23-.5-.54-.33-.87-.24ZM102.47,58c1.9.78,2,.79,2.9.3-.34-.24-.88-.17-1.07-.51s-.52-.28-.83-.16Zm-23,111.83a10.9,10.9,0,0,0-3-1.29l1.44,1.53c.09-.62.19-.69.75-.52C78.95,169.63,79.22,169.73,79.5,169.83ZM112.64,55.17c.94.17,1.71.92,2.69.42-.33-.23-.86-.16-.91-.71,0-.12-.14-.09-.22-.07A9.19,9.19,0,0,0,112.64,55.17Zm-29.58,118c-1-.36-2-.81-3.17-1.12l1.63,1.44C81.66,172.86,81.66,172.86,83.06,173.15Zm7.9,6.48a11.21,11.21,0,0,0-2.18-.63l1.92,1.21A.76.76,0,0,1,91,179.63Zm-5.45-2.94c0-.33,0-.63.42-.65a8.33,8.33,0,0,0-2-.58ZM118.13,54.22a4.45,4.45,0,0,0,2,.63c-.32-.17-.72-.25-.73-.73,0-.08-.11,0-.18,0Zm5-.41a6.42,6.42,0,0,0,1.53.57C124.43,53.36,123.68,53.87,123.13,53.81ZM95.62,183l1.74.81A2.15,2.15,0,0,0,95.62,183ZM134.48,54.28a3.26,3.26,0,0,0,1.14.29c.08,0,.19,0,.19-.1s-.07-.15-.17-.17A4.72,4.72,0,0,0,134.48,54.28Zm-25,134,.1,0a.44.44,0,0,0-.11-.05s-.06,0-.09,0Z" style="fill:#030303"/><path d="M135.17,145.64a34.51,34.51,0,0,0,5.93-.43c1.38-.2,2.75-.45,4.12-.66.3,0,.4-.14.32-.47-.27-1.18-.52-2.37-.74-3.57-.06-.31-.16-.35-.45-.29a41.47,41.47,0,0,1-4.65.69,6.25,6.25,0,0,1-6.55-3.75,18.55,18.55,0,0,1-1.93-9.62c.28-3.31,2.15-5.49,5.06-6.87A17.8,17.8,0,0,1,140,119.4c.34-.08.43-.22.33-.54s0-1.06-.36-1.27-.83.06-1.27.12c-3.17.46-6.36.75-9.57.92a60.61,60.61,0,0,0-6.33,1c-1.55.25-3.08.55-4.62.86-.31.06-.43,0-.54-.3-.5-1.34-1-2.66-1.52-4-.12-.32-.25-.41-.61-.34q-3.73.72-7.48,1.38c-.36.06-.41.22-.41.52,0,1.41,0,2.82,0,4.23,0,.36-.12.48-.45.54q-5.14.93-10.28,1.9c-.35.07-.44,0-.4-.36s0-.42,0-.68c-1.29.63-2.53,1.23-3.81,1.76a26.43,26.43,0,0,1-10.42,2.2,11.73,11.73,0,0,1-7.71-2.55,13.61,13.61,0,0,1-3.91-5.62,33.15,33.15,0,0,1-2.44-13.63,12,12,0,0,1,3.13-8A13.79,13.79,0,0,1,77.22,94,25.55,25.55,0,0,1,87.13,93c1.3.09,2.59.24,3.89.33.43,0,.57.22.65.63q.85,4.78,1.76,9.56c.08.43-.08.47-.41.47a36.35,36.35,0,0,0-4.17.12,20.52,20.52,0,0,0-5.22,1,4.43,4.43,0,0,0-3.15,4.77,9.52,9.52,0,0,0,.84,3.68A4,4,0,0,0,85,116a16.39,16.39,0,0,0,6.1-1.09c1.27-.43,2.51-.93,3.75-1.42.33-.13.43-.1.5.28.41,2.3.84,4.6,1.29,7a15,15,0,0,0,.21-2.42q.52-7.83,1-15.66.37-5.69.73-11.39c0-.28.08-.42.4-.48q7.92-1.44,15.84-2.93c.38-.07.52.06.67.38q6.3,14,12.61,28a1.21,1.21,0,0,0,.34.49c-.17-.94-.33-1.87-.51-2.81s-.38-2-.58-3.06c-.07-.35-.06-.51.4-.52a57.12,57.12,0,0,0,10.05-1.2c.41-.08.45-.22.37-.59-.25-1.1-.48-2.2-.68-3.31-.07-.39-.2-.5-.62-.42a44,44,0,0,1-4.48.75,9.22,9.22,0,0,1-3-.16,5.67,5.67,0,0,1-3.71-2.85,18.15,18.15,0,0,1-2.34-10.2c.22-3.33,2.07-5.55,5-7a19.81,19.81,0,0,1,4.3-1.43c.35-.08.41-.2.34-.52-.25-1.1-.46-2.21-.71-3.3-.07-.3,0-.44.31-.49a15.3,15.3,0,0,0,1.6-.34c.31-.08.39,0,.44.31.22,1.14.48,2.27.7,3.41.06.31.17.39.49.34a84.26,84.26,0,0,1,10.15-.86c.35,0,.44.12.49.44q.8,4.39,1.63,8.77c.07.35-.1.36-.36.38-2.44.22-4.88.36-7.31.72-.85.13-1.7.3-2.55.44-.32.05-.39.2-.32.5.24,1.08.49,2.16.68,3.25.07.42.22.44.59.37a26.28,26.28,0,0,1,6.14-.55,5.46,5.46,0,0,1,5.09,3.35,18.13,18.13,0,0,1,1.51,9.59,7.12,7.12,0,0,1-4.43,5.76,19.86,19.86,0,0,1-4.32,1.37c-.33.07-.42.16-.34.51.28,1.35.26,1.33,1.66,1.13a79.47,79.47,0,0,1,8.1-.71c.56,0,1.13,0,1.69-.07.28,0,.38.07.43.36q.8,4.42,1.64,8.82c.09.47-.22.39-.46.41-1.74.16-3.47.29-5.21.46a46,46,0,0,0-5.06.8c-.39.08-.43.23-.35.56.24,1.07.46,2.13.66,3.21.07.37.22.43.57.36a34,34,0,0,1,5.55-.69,10,10,0,0,1,2.52.23,5.26,5.26,0,0,1,3.65,2.94,18.94,18.94,0,0,1,1.64,6.25,12.84,12.84,0,0,1,0,3.69,7.22,7.22,0,0,1-4.31,5.57,19.88,19.88,0,0,1-4.88,1.52c-.39.08-.56.16-.44.63.26,1,.41,2,.65,3,.09.39,0,.53-.4.59a14.19,14.19,0,0,0-1.45.3c-.34.09-.45,0-.52-.35-.2-1.09-.46-2.17-.67-3.26-.06-.3-.16-.35-.45-.3-3.22.5-6.47.78-9.72,1-.42,0-.6-.05-.68-.52C136.15,150.8,135.66,148.24,135.17,145.64ZM112.91,108,107.8,94.85l-.13,0c0,.14,0,.27,0,.41q0,6.16-.07,12.32c0,.43-.2,1,.1,1.25s.79-.06,1.21-.14Zm34.81,31.86c-.17.11-.64-.25-.55.28.2,1.16.46,2.31.7,3.46,0,.15.08.26.28.17a4.54,4.54,0,0,0,1.76-1.12,1.49,1.49,0,0,0-.44-2.4A4,4,0,0,0,147.72,139.83ZM135.14,94.17a3.5,3.5,0,0,0-1.47,1.06,1.36,1.36,0,0,0,.58,2.21,3.31,3.31,0,0,0,1.62.28Zm5,10.32c-.35-.11-.39.1-.31.45.18.78.33,1.57.51,2.36.06.26,0,.69.24.74s.5-.27.71-.48a1.83,1.83,0,0,0,.61-2C141.61,104.75,141,104.54,140.14,104.48Zm2.37,25.09a3.55,3.55,0,0,0-1.15.81,1.28,1.28,0,0,0,.31,2.09,4.21,4.21,0,0,0,1.19.41c.35.09.34-.05.28-.32C142.93,131.59,142.73,130.61,142.51,129.57Z" style="fill:#fefdfd"/><path d="M107.49,144.15q-.17-4.09-.35-8.17-.2-4.75-.41-9.5c0-.25,0-.37.32-.42q5-.92,10.07-1.86c.31-.06.35.06.35.33q0,5.76-.07,11.52,0,3.12,0,6.24,0,5.45,0,10.89c0,1.27,0,2.54,0,3.8,0,.34-.12.45-.44.51-3.57.65-7.14,1.3-10.7,2-.49.1-.52-.2-.62-.48l-5.75-16.22a.67.67,0,0,0-.2-.32c0,.94,0,1.87,0,2.81,0,2.48.09,5,.13,7.45s.06,4.93.11,7.4c0,.39-.09.54-.5.61q-5.35,1-10.7,2c-.35.07-.48,0-.6-.34q-5.64-15.1-11.31-30.2c-.14-.38-.09-.5.31-.57q4.86-.88,9.71-1.8c.47-.09.63.05.77.48q2.68,8.14,5.39,16.28l.16.47c0-1,0-1.78,0-2.6-.05-2.36-.12-4.72-.18-7.08-.07-2.73-.12-5.46-.21-8.18,0-.38.12-.47.45-.53,2.56-.46,5.13-.92,7.69-1.41.39-.08.54,0,.67.37q2.8,8,5.63,16c.07.19.14.38.21.57Z" style="fill:#fefdfd"/><path d="M176.32,76.9c.33,0,.22.3.25.46.38,2,.73,3.95,1.1,5.92l3.74,20.3c.3,1.64.6,3.29.92,4.93.08.39,0,.54-.41.61-2.95.52-5.89,1.07-8.83,1.62-.47.09-.94.15-1.4.26s-.45,0-.51-.33q-.92-5.15-1.89-10.28c-.15-.82,0-.7-.81-.56-1.8.33-3.6.66-5.4,1-.35.06-.45.16-.37.54.66,3.46,1.29,6.92,1.94,10.38.08.4,0,.57-.43.65q-5.15.92-10.28,1.9c-.47.09-.4-.21-.44-.43q-.83-4.44-1.64-8.88l-3.43-18.59c-.23-1.23-.44-2.46-.69-3.68-.08-.4,0-.54.41-.61,2.93-.52,5.85-1.07,8.78-1.61.48-.09,1-.15,1.45-.27.32-.08.45,0,.52.33.63,3.5,1.29,7,1.93,10.49.07.39.18.48.57.4,1.85-.36,3.7-.7,5.56-1,.39-.07.49-.18.41-.61-.66-3.46-1.29-6.92-1.93-10.38-.05-.29-.11-.5.33-.58,3.48-.62,7-1.27,10.44-1.92Z" style="fill:#fefdfd"/><path d="M180.89,122.26c.11.29-.19.26-.37.3l-5.81,1.07-5.87,1.07c-.27,0-.39.11-.32.43.19.88.34,1.76.48,2.65.05.31.17.38.49.32,3.75-.71,7.51-1.39,11.27-2.08a3.67,3.67,0,0,0,.47-.08c.24-.08.33,0,.38.24q.62,3.43,1.27,6.85c.07.34-.06.41-.36.46-3.81.69-7.61,1.41-11.42,2.09-.47.08-.65.19-.52.71.2.8.32,1.62.46,2.44,0,.28.15.36.45.31l11.57-2.16c.39-.07.55,0,.62.41q.66,3.74,1.38,7.48c.08.4-.06.5-.43.57q-11.32,2.07-22.63,4.18c-.38.07-.51,0-.58-.39q-1.21-6.7-2.46-13.4l-3.23-17.5a2.87,2.87,0,0,0-.07-.36c-.11-.34,0-.44.37-.5,3.39-.61,6.78-1.25,10.18-1.88,4.14-.76,8.27-1.52,12.41-2.3.45-.09.63,0,.72.48C179.81,116.53,180.35,119.36,180.89,122.26Z" style="fill:#fefdfd"/><path d="M124.06,156.33c-.29.07-.3-.14-.33-.34l-1.58-8.57L118.39,127c-.15-.8-.28-1.59-.45-2.39-.07-.32,0-.42.35-.48q5.09-.92,10.17-1.88c.42-.08.6,0,.68.45q2.23,12.2,4.5,24.4c.42,2.27.83,4.54,1.26,6.8.05.28,0,.41-.28.46l-10.44,1.92Z" style="fill:#fefdfd"/><path d="M110.23,169.74c.43-1.32,1.57-1.49,2.56-.41a1.38,1.38,0,0,1,.51-.89,1.23,1.23,0,0,1,2.06.78c.36,1.79.65,3.6,1,5.4,0,.22,0,.33-.23.34a3.76,3.76,0,0,0-.41.08c-1.17.19-1.16.19-1.37-1l-.56-3.22a1,1,0,0,0,0-.15c-.07-.21-.07-.52-.39-.45s-.31.34-.27.6c.18,1,.37,2.08.55,3.12a10.08,10.08,0,0,0,.19,1.09c.09.31,0,.35-.29.41-1.5.34-1.5.35-1.76-1.16-.17-1-.35-2-.53-3.07a.58.58,0,0,0,0-.1c-.08-.2-.07-.51-.4-.44s-.3.32-.26.56c.2,1.18.4,2.36.61,3.54s.2,1.07-.86,1.24c-.8.13-.81.13-.95-.64-.33-1.85-.65-3.71-1-5.56-.07-.37,0-.62.42-.6a1.88,1.88,0,0,0,.36-.07C110,169,110,169,110.23,169.74Z" style="fill:#fefdfd"/><path d="M153,165.66c-.1-1-.19-2-.31-3-.15-1.2-.16-1.2,1-1.38s1.11-.18,1.37.94c.21.92.43,1.84.7,2.75a6.21,6.21,0,0,0-.11-1.67c-.07-.65-.16-1.29-.26-1.94,0-.24,0-.39.28-.42s1-.33,1.27-.16.16.79.19,1.22c.13,1.77.21,3.55.33,5.32,0,.31-.09.4-.37.44-.5.07-1,.16-1.51.27-.29.06-.39,0-.46-.31-.37-1.57-.77-3.14-1.16-4.71h0a.15.15,0,0,1,0,0c.14,1.51.26,3,.44,4.52.06.48,0,.76-.55.78a6.49,6.49,0,0,0-1.25.22c-.3.07-.43,0-.52-.3-.57-2-1.16-4-1.75-6-.09-.3,0-.42.29-.44s1-.36,1.32-.14.24.8.34,1.23c.21.92.4,1.85.59,2.77Zm2.85-.54c-.1.16,0,.3,0,.46A.43.43,0,0,0,155.81,165.12Z" style="fill:#fefdfd"/><path d="M150.59,166.52a7,7,0,0,1,0,.74,2.2,2.2,0,0,1-2,2.14,2.15,2.15,0,0,1-2.59-1.31,10.48,10.48,0,0,1-.91-5,2.47,2.47,0,0,1,4.58-.89A11.41,11.41,0,0,1,150.59,166.52Zm-1.81.13h0c0-.3-.06-.59-.11-.89a13.47,13.47,0,0,0-.5-2.32c-.12-.33-.29-.63-.71-.57s-.52.42-.53.79a3.67,3.67,0,0,0,.06.73,12.23,12.23,0,0,0,.6,2.72.58.58,0,0,0,.7.41c.34-.07.43-.33.47-.62A1.92,1.92,0,0,0,148.78,166.65Z" style="fill:#fefdfd"/><path d="M169.88,159c-.1-.57-.18-1.14-.3-1.71-.07-.31-.06-.49.32-.52s1-.32,1.37-.15.24.83.32,1.27c.41,2.23.79,4.47,1.19,6.7,0,.27,0,.39-.29.41a6.47,6.47,0,0,0-.88.16c-.33.08-.6.06-.62-.42a1.27,1.27,0,0,1-1.38.83,1.39,1.39,0,0,1-1.22-1,13.05,13.05,0,0,1-.92-4.36,1.41,1.41,0,0,1,.7-1.53A1.51,1.51,0,0,1,169.88,159Zm-.56,2.07a11.27,11.27,0,0,0,.45,2.24c.08.24.22.46.53.41s.36-.34.34-.57a9.75,9.75,0,0,0-.42-2.33c-.09-.27-.22-.56-.59-.47S169.32,160.74,169.31,161.09Z" style="fill:#fefdfd"/><path d="M119,173.65c.12.73.22,1.37.35,2,.05.28,0,.42-.3.45a10.64,10.64,0,0,0-1.14.2c-.26.05-.36,0-.41-.3q-.66-3.82-1.35-7.63c-.06-.35,0-.53.39-.54a2.86,2.86,0,0,0,.78-.14c.38-.12.58,0,.54.53.3-.5.56-.85,1.06-.91a1.36,1.36,0,0,1,1.56.89,11.66,11.66,0,0,1,.85,3.25,9.55,9.55,0,0,1,.12,1.26,1.37,1.37,0,0,1-.78,1.52A1.32,1.32,0,0,1,119,173.65Zm.63-1.69a10.74,10.74,0,0,0-.51-2.42.43.43,0,0,0-.53-.32.42.42,0,0,0-.32.48,7.3,7.3,0,0,0,.47,2.52c.09.23.26.45.56.37S119.57,172.25,119.6,172Z" style="fill:#fefdfd"/><path d="M159.51,161.08a1.63,1.63,0,0,1,.59-.94,1.2,1.2,0,0,1,1.73.43,2.22,2.22,0,0,1,.26.74c.29,1.65.57,3.29.88,4.94.07.37,0,.52-.39.53s-1,.39-1.35.11-.21-.85-.29-1.3c-.18-1-.35-2-.54-3.07,0-.23,0-.62-.43-.52s-.27.39-.22.66c.24,1.35.46,2.71.72,4.06.06.32,0,.46-.32.48s-1,.38-1.37.16-.26-.9-.34-1.38c-.3-1.64-.57-3.29-.88-4.94-.07-.38,0-.5.39-.52a5.31,5.31,0,0,0,.88-.16c.34-.08.59-.07.59.38A1.43,1.43,0,0,0,159.51,161.08Z" style="fill:#fefdfd"/><path d="M107.08,168.25c.21-.09.25.05.3.25.38,1.44.38,1.44-1.08,1.72a3,3,0,0,1-.36.07c-.29,0-.37.12-.32.44.17,1,.15,1,1.13.83,1.15-.18,1.11-.18,1.36,1,.12.56-.05.7-.55.73s-.72.14-1.09.19-.32.1-.3.36c.09,1.05.11,1.07,1.13.88s1.1-.21,1.34.91c.12.54,0,.73-.54.8-1,.13-2,.32-3,.51-.26,0-.33,0-.37-.26q-.65-3.72-1.32-7.43c0-.25,0-.35.27-.39Z" style="fill:#fefdfd"/><path d="M129,170.47c0,1.53-.47,2.31-1.68,2.61a1.84,1.84,0,0,1-2.25-.92,7.14,7.14,0,0,1-.85-4.48,1.85,1.85,0,0,1,1.7-1.62,2,2,0,0,1,2.31.93A8.28,8.28,0,0,1,129,170.47Zm-1.71-.08a9.11,9.11,0,0,0-.38-2c-.09-.29-.25-.58-.63-.49s-.39.37-.39.66a8.15,8.15,0,0,0,.35,2.07c.09.32.22.67.67.58S127.32,170.79,127.33,170.38Z" style="fill:#fefdfd"/><path d="M137.64,169c.09.5.16.91.25,1.32a.48.48,0,0,1-.12.43,2.13,2.13,0,0,1-3.47-.16,6.57,6.57,0,0,1-.82-4.63,1.94,1.94,0,0,1,3.6-.47,8.19,8.19,0,0,1,.67,2.81c0,.29-.17.27-.33.3-.59.11-1.17.23-1.77.31-.37.05-.33.22-.19.46a.85.85,0,0,0,1,.39A2,2,0,0,0,137.64,169ZM135,167c0,.18,0,.42.26.33s.78.11.84-.35a.58.58,0,0,0-.6-.65C135.09,166.32,135,166.66,135,167Z" style="fill:#fefdfd"/><path d="M142.22,168.15a6.06,6.06,0,0,0,.18,1,.93.93,0,0,1-.48,1.19,2.1,2.1,0,0,1-3.11-.64,6.88,6.88,0,0,1-.78-4.44,1.82,1.82,0,0,1,1.72-1.59,1.78,1.78,0,0,1,2,1.12,9.39,9.39,0,0,1,.63,2.71c0,.23-.11.25-.28.28-.61.1-1.21.23-1.82.31-.36,0-.34.21-.2.46a.78.78,0,0,0,.74.41A1.87,1.87,0,0,0,142.22,168.15Zm-2.65-2c.05.12-.07.42.24.31s.79.12.85-.32a.58.58,0,0,0-.6-.66C139.64,165.51,139.6,165.85,139.57,166.19Z" style="fill:#fefdfd"/><path d="M131.38,169c-.1-1.08-.19-2.17-.32-3.25,0-.37,0-.56.42-.58a3.56,3.56,0,0,0,.88-.16c.36-.11.41,0,.41.36q0,4,0,7.93c0,.25-.06.39-.33.43s-.8.12-1.2.21-.33,0-.29-.26c.28-1.66-.55-3-1.1-4.49-.4-1.05-.82-2.1-1.25-3.14-.12-.28,0-.35.22-.41,1.45-.34,1.45-.35,1.85,1.09l.63,2.28Z" style="fill:#fefdfd"/><path d="M167.21,163.74c.1.55.16,1,.25,1.41,0,.21-.09.33-.21.45a2.14,2.14,0,0,1-3.43-.32,6.76,6.76,0,0,1-.8-4.43,1.95,1.95,0,0,1,3.73-.4,9.94,9.94,0,0,1,.56,2.57c0,.26-.11.29-.3.32l-1.72.3c-.45.08-.5.22-.22.57s.78.34,1.21.22A2,2,0,0,0,167.21,163.74Zm-2.65-2c0,.15,0,.43.25.32s.8.12.86-.34a.6.6,0,0,0-.61-.67C164.65,161.1,164.59,161.44,164.56,161.78Z" style="fill:#fefdfd"/><path d="M122.67,173.82c-.31.1-.25-.24-.28-.42-.33-1.83-.65-3.67-1-5.51-.12-.71-.24-1.42-.38-2.13,0-.24,0-.32.24-.39,1.55-.38,1.54-.39,1.81,1.15q.56,3.25,1.15,6.5c.06.35.05.56-.38.59A10.15,10.15,0,0,0,122.67,173.82Z" style="fill:#fefdfd"/><path d="M190.8,143.28A2.66,2.66,0,0,1,188,146a2.71,2.71,0,0,1-2.72-2.78,2.77,2.77,0,0,1,2.8-2.72A2.73,2.73,0,0,1,190.8,143.28Zm-5-.06a2.25,2.25,0,1,0,4.5,0,2.25,2.25,0,1,0-4.5,0Z" style="fill:#fefdfd"/><path d="M178.83,76.31a14.57,14.57,0,0,1,1.59,1.85,7.17,7.17,0,0,1-1.66-1.78S178.81,76.33,178.83,76.31Z" style="fill:#030303"/><path d="M162.66,181.7a8.38,8.38,0,0,1-2,1.08A6.49,6.49,0,0,1,162.66,181.7Z" style="fill:#030303"/><path d="M180.53,78.26a2.12,2.12,0,0,1,.53.64A.73.73,0,0,1,180.53,78.26Z" style="fill:#030303"/><path d="M163.4,181.28a2,2,0,0,1-.75.43A.94.94,0,0,1,163.4,181.28Z" style="fill:#030303"/><path d="M163.93,181a1.34,1.34,0,0,1-.54.32A.55.55,0,0,1,163.93,181Z" style="fill:#030303"/><path d="M181.17,79.09c.21,0,.25.13.19.3C181.28,79.3,181.15,79.25,181.17,79.09Z" style="fill:#030303"/><path d="M160.66,182.78a.31.31,0,0,1-.33.2C160.36,182.78,160.49,182.75,160.66,182.78Z" style="fill:#030303"/><path d="M164.31,180.68c0,.08-.06.18-.18.18C164.1,180.71,164.26,180.75,164.31,180.68Z" style="fill:#030303"/><path d="M160.33,183c0,.12-.13.1-.22.11C160.12,182.92,160.21,182.91,160.33,183Z" style="fill:#030303"/><path d="M181.06,78.89c.08,0,.19.08.13.22A.15.15,0,0,1,181.06,78.89Z" style="fill:#030303"/><path d="M164.14,180.85a.26.26,0,0,1-.22.12C163.93,180.82,164.05,180.87,164.14,180.85Z" style="fill:#030303"/><path d="M180.42,78.15a.11.11,0,0,1,.11.11C180.42,78.3,180.41,78.25,180.42,78.15Z" style="fill:#030303"/><path d="M173.59,178.28c0-.16,0-.31.05-.47a1.46,1.46,0,0,1,2.29-1.09,13.3,13.3,0,0,1,2.33,2.49c.22.24-.17.31-.28.45s-.25.21-.42,0c-.46-.56-.94-1.09-1.41-1.64a2.69,2.69,0,0,0-.67-.59.82.82,0,0,0-1,0,1,1,0,0,0-.38,1,1.38,1.38,0,0,0,.36.69c.51.58,1,1.18,1.53,1.75.24.26.16.39-.07.57s-.34.3-.57,0c-.39-.5-.82-1-1.24-1.44-.13-.15-.25-.29-.39-.43-.5-.5-1-.59-1.39-.25a1.13,1.13,0,0,0-.06,1.57q.77.94,1.59,1.83c.2.22.17.33,0,.53s-.43.26-.68-.05c-.87-1-1.77-2-2.67-3.06.29-.31.57-.7,1,0a1.87,1.87,0,0,1,.52-1.51,1.42,1.42,0,0,1,1.47-.3s.1,0,.13,0S173.6,178.31,173.59,178.28Z" style="fill:#030303"/><path d="M147.37,195.06c0-1,.09-2,.14-3,0-.24-.08-.5.31-.62s.52.1.67.35a29.92,29.92,0,0,0,1.72,2.54q0-1.43,0-2.86c0-.73,0-.73.83-.83-.08,1.5-.16,3-.22,4.48,0,.33-.24.28-.42.36a.37.37,0,0,1-.52-.19c-.56-.89-1.13-1.77-1.75-2.74-.06,1.08-.12,2.08-.18,3.08,0,.3,0,.53-.42.65s-.49-.14-.63-.36l-2.21-3.54c.75-.38.76-.38,1.16.31l1.38,2.41Z" style="fill:#030303"/><path d="M122.19,194.17c-.43,1.07-.94,2-1.4,3a.45.45,0,0,1-.56.31.45.45,0,0,1-.44-.46c-.18-1.29-.41-2.57-.6-3.86,0-.13-.22-.41.08-.4s.69-.14.75.35c.12,1,.23,1.92.34,2.88,0,.1,0,.21.09.29s.17-.18.23-.3c.41-.86.83-1.71,1.2-2.58.13-.29.31-.27.54-.25s.34.14.38.4c.16,1.09.36,2.17.55,3.33l1.16-2.7c.3-.7.31-.7,1.13-.55-.65,1.37-1.31,2.72-1.94,4.08-.13.27-.3.18-.47.14s-.4,0-.44-.32C122.6,196.42,122.4,195.33,122.19,194.17Z" style="fill:#030303"/><path d="M108.65,191.13c-.61.78-1.22,1.55-1.82,2.33-.18.23-.32.36-.65.21a.46.46,0,0,1-.33-.54c.09-1.42.16-2.84.24-4.27.85.1.84.1.76.9-.09,1-.17,1.93-.27,3,.7-.91,1.35-1.75,2-2.6.17-.22.29-.38.64-.26s.32.34.3.6c-.06,1-.11,2.1-.16,3.24l1.76-2.45c.42-.59.43-.59,1.16-.22l-2.78,3.58c-.2.26-.37,0-.56,0s-.29-.25-.28-.48q.06-1.45.12-2.9c0-.09.09-.21,0-.27S108.68,191.07,108.65,191.13Z" style="fill:#030303"/><path d="M116.22,195.75l1.64-2.91a.62.62,0,0,1,.91-.23c.14.09.06.17,0,.26-.75,1.23-1.51,2.45-2.26,3.69-.16.26-.33.09-.5.07s-.38-.11-.39-.39c0-.91-.11-1.83-.16-2.74a.69.69,0,0,0-.08-.43,2.94,2.94,0,0,0-.53.81c-.39.59-.78,1.17-1.13,1.78-.18.31-.35.32-.68.25s-.31-.3-.32-.54q-.11-2.1-.23-4.21c.83,0,.84,0,.85.79,0,1,0,2,0,3.1.65-1.05,1.22-2,1.78-2.93.13-.22.25-.35.54-.27s.39.14.4.44C116.11,193.41,116.25,194.51,116.22,195.75Z" style="fill:#030303"/><path d="M141.09,193.52a1.89,1.89,0,0,1,1.09-.92,1.5,1.5,0,0,1,1.9,1,18.66,18.66,0,0,1,.59,3c.07.41-.29.24-.47.31s-.35,0-.38-.26c-.1-.64-.21-1.28-.33-1.92a5.43,5.43,0,0,0-.13-.62,1,1,0,0,0-1.21-.82,1.13,1.13,0,0,0-.88,1.26c.1.77.26,1.52.4,2.28.09.5-.11.7-.62.64-.18,0-.17-.14-.19-.26-.35-2-.69-3.95-1.05-5.92-.06-.32.09-.41.35-.43s.46-.14.51.28C140.77,191.94,140.94,192.68,141.09,193.52Z" style="fill:#030303"/><path d="M169.13,181.47a2.6,2.6,0,0,1,2.4,2.53,2.27,2.27,0,0,1-2.25,2.19,2.63,2.63,0,0,1-2.38-2.51A2.27,2.27,0,0,1,169.13,181.47Zm1.57,2.72a2.07,2.07,0,0,0-1.82-2,1.21,1.21,0,0,0-1.18,1.28,2.15,2.15,0,0,0,1.82,2A1.23,1.23,0,0,0,170.71,184.19Z" style="fill:#030303"/><path d="M157.56,189.12a2,2,0,0,1,1.76-2,2.06,2.06,0,0,1,2.1,1.44c.09.25,0,.3-.19.38-.76.36-1.52.73-2.29,1.08-.28.12-.27.23-.11.45a1.34,1.34,0,0,0,1.58.52,3.06,3.06,0,0,0,1-.6c.16-.13.26-.27.46,0s.18.33,0,.52a3.4,3.4,0,0,1-1.86.92,2.37,2.37,0,0,1-2.45-2.25C157.56,189.35,157.56,189.21,157.56,189.12Zm.74-.16c0,.6,0,.61.55.35s.87-.44,1.32-.62.3-.31.1-.53a1,1,0,0,0-1.21-.38A1.13,1.13,0,0,0,158.3,189Z" style="fill:#030303"/><path d="M134.69,197.65a2,2,0,0,1-1.42.66,1.29,1.29,0,0,1-1.31-.87,1.4,1.4,0,0,1,.48-1.6,3.19,3.19,0,0,1,1.78-.57c.33,0,.33-.15.26-.4a.86.86,0,0,0-.83-.68,2.12,2.12,0,0,0-1.07.22c-.17.08-.3.19-.4-.09s-.13-.34.13-.46a3,3,0,0,1,1.9-.26,1.46,1.46,0,0,1,1.15,1.41c.09,1,.12,1.93.19,2.89,0,.14,0,.21-.15.2s-.47.14-.62-.13A1.38,1.38,0,0,1,134.69,197.65Zm-.08-1.17c-.16-.15.18-.57-.23-.6a1.78,1.78,0,0,0-1.38.41.76.76,0,0,0-.17,1,.73.73,0,0,0,.91.34A1.12,1.12,0,0,0,134.61,196.48Z" style="fill:#030303"/><path d="M155.39,193.66c-.26.06-.33-.11-.35-.42s.22-.23.38-.24a2,2,0,0,0,1-.25.65.65,0,0,0-.24-1.24c-.35,0-.7,0-1-.08a1.13,1.13,0,0,1-1.08-.86,1.28,1.28,0,0,1,.47-1.37,2.3,2.3,0,0,1,1.31-.49c.23,0,.4,0,.4.32s-.06.37-.34.34a1.23,1.23,0,0,0-.71.15.6.6,0,0,0-.39.68.59.59,0,0,0,.62.47,7.16,7.16,0,0,1,1.1.07,1.3,1.3,0,0,1,.63,2.26A2.55,2.55,0,0,1,155.39,193.66Z" style="fill:#030303"/><path d="M138.35,193.21l.43.05c.32.05.23.26.2.47s-.18.22-.37.16a1.53,1.53,0,0,0-.84,0,.59.59,0,0,0-.48.5.54.54,0,0,0,.35.59c.32.14.67.22,1,.35a1.23,1.23,0,0,1,.91,1.27,1.29,1.29,0,0,1-1,1.25,2.85,2.85,0,0,1-1.56.06c-.34-.07-.3-.25-.27-.5s.21-.23.41-.17a1.65,1.65,0,0,0,1.09,0,.64.64,0,0,0,.48-.56.62.62,0,0,0-.39-.63c-.24-.1-.49-.19-.74-.27-.83-.27-1.2-.72-1.12-1.37a1.44,1.44,0,0,1,1.5-1.21Z" style="fill:#030303"/><path d="M167.46,186.84c.55.45.55.45,0,.92a2.36,2.36,0,0,1-2.7.58,2.72,2.72,0,0,1-1.39-2.48,2.57,2.57,0,0,1,1.93-2.13c.22-.06.42-.13.51.23s0,.35-.3.43a1.6,1.6,0,0,0-1.29,1.24,1.83,1.83,0,0,0,.79,1.84,1.53,1.53,0,0,0,2.05-.24C167.23,187.1,167.34,187,167.46,186.84Z" style="fill:#030303"/><path d="M129.84,198.31a2.11,2.11,0,0,1-2.28-2.35,2.32,2.32,0,0,1,2.55-2.35c.24,0,.48.09.72.12s.37.17.29.47-.24.27-.48.19a1.59,1.59,0,0,0-1.86.47,1.93,1.93,0,0,0-.08,2.13,1.65,1.65,0,0,0,1.88.59c.15,0,.37-.24.44.12s.08.46-.28.53A5.42,5.42,0,0,1,129.84,198.31Z" style="fill:#030303"/><path d="M154,194.14c0,.26-.3.19-.47.28s-.3.14-.38-.09c-.45-1.29-.89-2.58-1.34-3.87-.13-.38.22-.29.36-.36s.34-.25.45.09c.43,1.28.89,2.55,1.33,3.82Z" style="fill:#030303"/><path d="M126.18,197a.52.52,0,0,1,.51.57c0,.37-.17.61-.55.62a.53.53,0,0,1-.58-.59A.56.56,0,0,1,126.18,197Z" style="fill:#030303"/><path d="M164,189.51c0,.39-.24.59-.58.58a.57.57,0,0,1-.58-.61.51.51,0,0,1,.54-.57C163.84,188.9,164,189.18,164,189.51Z" style="fill:#030303"/><path d="M151.7,188.28a.54.54,0,0,1,.52.56.5.5,0,0,1-.52.55.51.51,0,0,1-.55-.57C151.15,188.47,151.4,188.34,151.7,188.28Z" style="fill:#030303"/><path d="M69.6,159.9a7.22,7.22,0,0,0,1.82.67,2.23,2.23,0,0,1,1.5,1.37c-.36-.13-.66-.25-1-.34-.6-.18-.74-.08-.82.68L69.54,160Z" style="fill:#fefdfd"/><path d="M67.7,153.53l-1.05-.37c-.57-.19-.74-.11-.94.48l-1.1-2.1c.63.23,1.19.5,1.78.65A1.59,1.59,0,0,1,67.7,153.53Z" style="fill:#fefdfd"/><path d="M63.58,149.3l-.95-2.23a4.88,4.88,0,0,0,1.79.77,1.51,1.51,0,0,1,1.23,1.37l-1.26-.43C63.92,148.63,63.79,148.71,63.58,149.3Z" style="fill:#fefdfd"/><path d="M59.68,105.94c.65.24,1.24.46,1.84.66.24.08.33.16.26.44-.19.85-.17.85-1,.56a7.85,7.85,0,0,0-1-.34c-.36-.08-.46-.23-.32-.57A5.86,5.86,0,0,0,59.68,105.94Z" style="fill:#fefdfd"/><path d="M58.21,114.21c.68.24,1.36.44,2,.73s.15.7.11,1-.34,0-.48,0a15.81,15.81,0,0,0-1.55-.5c-.2,0-.22-.13-.2-.28C58.13,114.87,58.17,114.56,58.21,114.21Z" style="fill:#fefdfd"/><path d="M70,157.62l-.84-.29c-.64-.22-.76-.17-1,.51l-1.33-2.22c.9.43,1.75.65,2.54,1a1.19,1.19,0,0,1,.65,1Z" style="fill:#fefdfd"/><path d="M60.85,132.63l-1.34-.47c-.12,0-.24-.14-.34-.12-.9.16-.7-.53-.79-1,0-.1,0-.21,0-.38a21.92,21.92,0,0,1,2.2.82C60.95,131.69,60.74,132.21,60.85,132.63Z" style="fill:#fefdfd"/><path d="M58.82,110.06c.67.24,1.3.44,1.92.69s.12.67.11,1-.32.1-.47.05c-.49-.14-1-.35-1.45-.48-.27-.07-.34-.15-.25-.42A6.15,6.15,0,0,0,58.82,110.06Z" style="fill:#fefdfd"/><path d="M59,134.92a15.54,15.54,0,0,0,1.64.57,1.13,1.13,0,0,1,.95,1.35l-1.27-.45c-.16-.06-.37-.17-.5-.12-.65.28-.57-.23-.65-.57S59.08,135.2,59,134.92Z" style="fill:#fefdfd"/><path d="M61.8,144.9,61.16,143a15.51,15.51,0,0,0,1.66.59A1.32,1.32,0,0,1,64,145c-.41-.14-.81-.27-1.21-.43A.66.66,0,0,0,61.8,144.9Z" style="fill:#fefdfd"/><path d="M57.92,126.52c.62.22,1.16.46,1.73.62s.7.34.64.83a3.2,3.2,0,0,0,0,.48,5.87,5.87,0,0,0-1.57-.53c-.84,0-.83-.52-.81-1.1A2.73,2.73,0,0,0,57.92,126.52Z" style="fill:#fefdfd"/><path d="M62.14,98.16c.66.24,1.29.46,1.91.7.24.1,0,.28,0,.4-.22.69-.23.69-.89.45-.4-.14-.78-.31-1.19-.42s-.3-.2-.2-.43a4.6,4.6,0,0,0,.2-.54C62,98.23,62,98.14,62.14,98.16Z" style="fill:#fefdfd"/><path d="M62.64,140.82c-.74,0-1.38-.81-2.25-.3l-.44-1.58a14.63,14.63,0,0,0,1.68.59A1.18,1.18,0,0,1,62.64,140.82Z" style="fill:#fefdfd"/><path d="M63.68,94.35l1.9.7c.14.05.09.17,0,.26a4.26,4.26,0,0,0-.23.53c-.07.27-.22.25-.43.17-.41-.16-.83-.29-1.24-.45-.18-.07-.54-.08-.52-.24a3.35,3.35,0,0,1,.36-.92S63.65,94.36,63.68,94.35Z" style="fill:#fefdfd"/><path d="M60.06,124.31a11.7,11.7,0,0,0-2.17-.6c-.15,0-.12-.14-.12-.24,0-.31,0-.63,0-1l2.11.75c.21.07.18.23.18.38S60.06,124.06,60.06,124.31Z" style="fill:#fefdfd"/><path d="M57.86,118.44a20.73,20.73,0,0,1,2.06.76c.39.19.18.66.12,1s-.3,0-.44,0a12.63,12.63,0,0,0-1.6-.5c-.22,0-.2-.15-.2-.28C57.82,119.1,57.84,118.8,57.86,118.44Z" style="fill:#fefdfd"/><path d="M65.44,90.62c.67.25,1.33.45,1.94.74.18.08-.09.32-.14.49-.14.42-.36.56-.81.34a7,7,0,0,0-1.23-.45c-.28-.08-.34-.19-.17-.44S65.22,90.79,65.44,90.62Z" style="fill:#fefdfd"/><path d="M69.05,84.39c.6-1,.6-1,1.64-.6l.3.11c.78.27.82.53.21,1.12-.15.14-.26.06-.38,0Z" style="fill:#fefdfd"/><path d="M66.86,88c.49-1,.49-1,1.53-.63l1.08.39c-.49,1-.49,1-1.48.66Z" style="fill:#fefdfd"/><path d="M60.82,102a13.09,13.09,0,0,1,1.94.75c.27.15-.06.56-.13.85s-.25.08-.38,0c-.5-.17-1-.38-1.48-.52-.33-.09-.35-.24-.23-.48S60.58,102.18,60.82,102Z" style="fill:#fefdfd"/><path d="M76.22,166.17c-.33-.12-.6-.23-.88-.32-.63-.2-.77-.11-.86.59l-1.61-1.92A5.91,5.91,0,0,1,76.22,166.17Z" style="fill:#fefdfd"/><path d="M73.52,81.64,71.66,81a.16.16,0,0,1-.09-.11c0-.28.68-.79,1-.69l1.44.51c.19.07.28.14.12.32S73.77,81.49,73.52,81.64Z" style="fill:#fefdfd"/><path d="M76.82,74.76a.86.86,0,0,1,.07-.15c.6-.66.6-.66,1.45-.36l1.09.39.1.06-.07.13a1,1,0,0,1-1.5.35A7.93,7.93,0,0,0,76.82,74.76Z" style="fill:#fefdfd"/><path d="M76.75,77.68a1,1,0,0,1-.08.16c-.54.68-.54.67-1.36.38a2.74,2.74,0,0,1-.59-.22c-.19-.12-.63,0-.54-.38a.79.79,0,0,1,1-.51Z" style="fill:#fefdfd"/><path d="M79.83,71.84c.44-.68.93-.91,1.63-.48a6,6,0,0,0,1.11.41.57.57,0,0,1,0,.13,1.1,1.1,0,0,1-1.61.34A6.8,6.8,0,0,0,79.83,71.84Z" style="fill:#fefdfd"/><path d="M83.12,69l.06-.11a1.08,1.08,0,0,1,1.58-.3,5.5,5.5,0,0,0,1.12.42c-.68.75-.68.75-1.51.44Z" style="fill:#fefdfd"/><path d="M89.2,66.59a1.17,1.17,0,0,1-1.63.35,10.23,10.23,0,0,0-1.19-.45l.87-.62c.09-.07.17-.11.28,0C88,66.26,88.66,66.29,89.2,66.59Z" style="fill:#fefdfd"/><path d="M92.81,64.26a1.26,1.26,0,0,1-1.65.31A7.92,7.92,0,0,0,90,64.14a5.06,5.06,0,0,1,1-.65c.05,0,.12-.09.19,0C91.59,64,92.27,63.94,92.81,64.26Z" style="fill:#fefdfd"/><path d="M93.81,61.92l.44-.26c.45-.22.84-.62,1.39-.09a3.23,3.23,0,0,0,1.13.44C95.77,63.08,94.88,62.12,93.81,61.92Z" style="fill:#fefdfd"/><path d="M101,60c-1,.94-1.89,0-2.89-.17a7.22,7.22,0,0,1,1.32-.64s.12,0,.13,0C99.87,59.81,100.58,59.69,101,60Z" style="fill:#fefdfd"/><path d="M107.3,56.42l1.14-.33c.33-.09.64-.26.87.24.13.29.59.25.88.42C109.46,57.25,108.56,57.15,107.3,56.42Z" style="fill:#fefdfd"/><path d="M102.47,58l1-.36c.31-.12.56-.3.83.16s.74.27,1.07.51C104.46,58.79,104.37,58.78,102.47,58Z" style="fill:#fefdfd"/><path d="M79.5,169.83c-.28-.1-.55-.2-.83-.29-.56-.17-.66-.09-.75.52l-1.44-1.53A10.9,10.9,0,0,1,79.5,169.83Z" style="fill:#fefdfd"/><path d="M112.64,55.17a9.19,9.19,0,0,1,1.56-.37c.07,0,.2,0,.22.07.06.55.58.48.91.71C114.34,56.09,113.58,55.34,112.64,55.17Z" style="fill:#fefdfd"/><path d="M83.06,173.15c-1.4-.29-1.4-.29-1.54.33L79.89,172C81.06,172.34,82,172.79,83.06,173.15Z" style="fill:#fefdfd"/><path d="M91,179.63a.76.76,0,0,0-.26.57L88.79,179A11.21,11.21,0,0,1,91,179.63Z" style="fill:#fefdfd"/><path d="M107.68,187.68a23.71,23.71,0,0,1-3.34-1,8.6,8.6,0,0,1,3.34,1.05Z" style="fill:#fefdfd"/><path d="M85.51,176.69l-1.61-1.23a8.33,8.33,0,0,1,2,.58C85.53,176.05,85.54,176.36,85.51,176.69Z" style="fill:#fefdfd"/><path d="M118.13,54.22l1.07-.14c.06,0,.17,0,.18,0,0,.48.41.55.73.73A4.45,4.45,0,0,1,118.13,54.22Z" style="fill:#fefdfd"/><path d="M123.13,53.81c.55.06,1.3-.45,1.53.57A6.42,6.42,0,0,1,123.13,53.81Z" style="fill:#fefdfd"/><path d="M129.59,54.23a3.36,3.36,0,0,1-1.38-.46c.49.08,1.16-.35,1.38.49Z" style="fill:#fefdfd"/><path d="M95.62,183a2.15,2.15,0,0,1,1.74.81Z" style="fill:#fefdfd"/><path d="M134.48,54.28a4.72,4.72,0,0,1,1.17,0c.09,0,.17.06.17.17s-.11.1-.19.1A3.26,3.26,0,0,1,134.48,54.28Z" style="fill:#fefdfd"/><path d="M107.68,187.68h0c.56-.08,1,.28,1.51.42A3.64,3.64,0,0,1,107.68,187.68Z" style="fill:#cd163f"/><path d="M109.49,188.25l-.1-.06s.06,0,.09,0a.44.44,0,0,1,.11.05Z" style="fill:#cd163f"/><path d="M69.54,160l-.14-.12c.09-.06.16,0,.2.06Z" style="fill:#fefdfd"/><path d="M70,157.63l0,0s0,0,0,0Z" style="fill:#fefdfd"/><polygon points="129.59 54.25 129.56 54.24 129.59 54.23 129.59 54.25" style="fill:#fefdfd"/><path d="M112.91,108l-4,.75c-.41.08-1,.32-1.21.14s-.1-.82-.1-1.25q0-6.16.07-12.32c0-.14,0-.27,0-.41l.13,0Z" style="fill:#cd163f"/><path d="M147.72,139.83a4,4,0,0,1,1.76.4,1.49,1.49,0,0,1,.44,2.4,4.54,4.54,0,0,1-1.76,1.12c-.2.08-.25,0-.28-.17-.24-1.15-.5-2.3-.7-3.46C147.09,139.58,147.56,139.94,147.72,139.83Z" style="fill:#cd163f"/><path d="M135.14,94.17l.74,3.55a3.31,3.31,0,0,1-1.62-.28,1.36,1.36,0,0,1-.58-2.21A3.5,3.5,0,0,1,135.14,94.17Z" style="fill:#cd163f"/><path d="M140.14,104.48c.81.06,1.47.26,1.75,1a1.83,1.83,0,0,1-.61,2c-.21.2-.45.54-.71.48s-.18-.48-.24-.74c-.17-.79-.33-1.58-.51-2.36C139.75,104.58,139.79,104.38,140.14,104.48Z" style="fill:#cd163f"/><path d="M142.51,129.57c.22,1,.42,2,.63,3,.06.26.07.41-.28.32a4.21,4.21,0,0,1-1.19-.41,1.28,1.28,0,0,1-.31-2.09A3.55,3.55,0,0,1,142.51,129.57Z" style="fill:#cd163f"/><path d="M155.81,165.12a.43.43,0,0,1,0,.46C155.79,165.42,155.71,165.27,155.81,165.12Z" style="fill:#cd163f"/><path d="M148.78,166.65a1.92,1.92,0,0,1,0,.26c0,.29-.13.55-.47.62a.58.58,0,0,1-.7-.41,12.23,12.23,0,0,1-.6-2.72,3.67,3.67,0,0,1-.06-.73c0-.37.08-.72.53-.79s.59.24.71.57a13.47,13.47,0,0,1,.5,2.32c.05.29.08.59.11.89Z" style="fill:#cd163f"/><path d="M169.31,161.09c0-.35,0-.65.31-.73s.5.2.59.47a9.75,9.75,0,0,1,.42,2.33c0,.24,0,.52-.34.57s-.45-.16-.53-.41A11.27,11.27,0,0,1,169.31,161.09Z" style="fill:#cd163f"/><path d="M119.6,172c0,.29,0,.56-.33.63s-.47-.14-.56-.37a7.3,7.3,0,0,1-.47-2.52.42.42,0,0,1,.32-.48.43.43,0,0,1,.53.32A10.74,10.74,0,0,1,119.6,172Z" style="fill:#cd163f"/><path d="M127.33,170.38c0,.4,0,.77-.38.85s-.58-.26-.67-.58a8.15,8.15,0,0,1-.35-2.07c0-.29,0-.59.39-.66s.54.2.63.49A9.11,9.11,0,0,1,127.33,170.38Z" style="fill:#cd163f"/><path d="M135,167c0-.32.1-.66.5-.67a.58.58,0,0,1,.6.65c-.05.46-.54.25-.84.35S135,167.16,135,167Z" style="fill:#cd163f"/><path d="M139.57,166.19c0-.33.07-.68.5-.68a.58.58,0,0,1,.6.66c-.07.44-.56.22-.85.32S139.62,166.31,139.57,166.19Z" style="fill:#cd163f"/><path d="M164.56,161.78c0-.34.09-.68.5-.69a.6.6,0,0,1,.61.67c-.06.46-.56.22-.86.34S164.59,161.93,164.56,161.78Z" style="fill:#cd163f"/><path d="M185.81,143.23a2.25,2.25,0,1,1,2.23,2.29A2.31,2.31,0,0,1,185.81,143.23Zm3,.09a.79.79,0,0,0,.42-1.06c-.17-.47-.57-.54-1-.54s-.67.08-1,.07-.54.2-.48.61a20,20,0,0,1,.18,2c0,.4.12.49.52.45.57-.06.24-.42.28-.65s-.16-.42.16-.46.54,0,.66.29a.88.88,0,0,1,.07.31c0,.47.3.37.57.36s.19-.3.19-.46A.88.88,0,0,0,188.82,143.31Z" style="fill:#cd163f"/><path d="M188.82,143.31a.88.88,0,0,1,.58.91c0,.16.21.45-.19.46s-.59.11-.57-.36a.88.88,0,0,0-.07-.31c-.11-.33-.39-.32-.66-.29s-.13.3-.16.46.29.59-.28.65c-.4,0-.51-.05-.52-.45a20,20,0,0,0-.18-2c-.05-.4,0-.63.48-.61s.67-.06,1-.07.82.07,1,.54A.79.79,0,0,1,188.82,143.31Zm-.86-1c-.32-.05-.39.12-.33.37s-.12.51.28.48.59-.07.59-.45S188.22,142.29,188,142.28Z" style="fill:#fefdfd"/><path d="M188,142.28c.26,0,.54.06.54.41s-.3.43-.59.45-.23-.3-.28-.48S187.63,142.23,188,142.28Z" style="fill:#cd163f"/></svg>