<?xml version="1.0" encoding="utf-8"?>
<!-- Generator: Adobe Illustrator 21.1.0, SVG Export Plug-In . SVG Version: 6.00 Build 0)  -->
<svg version="1.1" id="Layer_1" xmlns="http://www.w3.org/2000/svg" xmlns:xlink="http://www.w3.org/1999/xlink" x="0px" y="0px"
	 viewBox="0 0 32.6 26" style="enable-background:new 0 0 32.6 26;" xml:space="preserve">
<style type="text/css">
	.st0{fill:#F9E8A0;}
	.st1{fill:none;}
	.st2{fill:#414042;}
	.st3{fill:#FF0000;}
	.st4{fill:#CE593F;}
	.st5{fill:#EF8829;}
	.st6{clip-path:url(#SVGID_2_);}
	.st7{fill:#3F2D20;}
	.st8{fill:#F8E79F;}
	.st9{clip-path:url(#SVGID_4_);}
	.st10{clip-path:url(#SVGID_6_);}
	.st11{fill:#F7B239;}
	.st12{fill:#E09B2D;}
	.st13{fill:#9AD14B;}
	.st14{fill:#F95428;}
	.st15{fill:#E54728;}
	.st16{fill:#B27214;}
	.st17{fill:#F4DE3B;}
	.st18{fill:#90BC42;}
	.st19{fill:#FFFFFF;}
	.st20{clip-path:url(#SVGID_8_);fill:#FFFFFF;}
	.st21{clip-path:url(#SVGID_8_);fill:#333333;}
	.st22{fill:#CC722E;}
	.st23{fill:#B25719;}
	.st24{fill:#FFA91F;}
	.st25{fill:#8C5549;}
	.st26{opacity:0.15;}
	.st27{fill:#202020;}
	.st28{fill:#A4A4A5;}
	.st29{fill:#DCE0E2;}
	.st30{fill:#354251;}
	.st31{fill:#9DB6CA;}
	.st32{fill:#9ACFDF;}
	.st33{clip-path:url(#SVGID_10_);}
	.st34{clip-path:url(#SVGID_12_);}
	.st35{clip-path:url(#SVGID_14_);}
	.st36{fill:#FF7424;}
	.st37{fill:#FF4C1C;}
	.st38{fill:#DDA558;}
	.st39{fill:#D4F8F5;}
	.st40{opacity:0.1;fill:#54858D;enable-background:new    ;}
	.st41{fill:#FFD755;}
	.st42{fill:#FFF6C4;}
	.st43{fill:#6DA8D6;}
	.st44{fill:#FFDA44;}
	.st45{fill:#3FC378;}
	.st46{fill:#C9EEAE;}
	.st47{fill:#E21220;}
	.st48{fill:#FF505D;}
	.st49{fill:#FF7C80;}
	.st50{fill:#93298D;}
	.st51{fill:#FFF5CC;}
	.st52{fill:#0DD9DD;}
	.st53{fill:#02A6AA;}
	.st54{fill:#FDD44B;}
	.st55{fill:#84BD93;}
	.st56{clip-path:url(#SVGID_16_);fill:#EF8829;}
	.st57{clip-path:url(#SVGID_16_);fill:#3F2D20;}
	.st58{fill:none;stroke:#414042;stroke-width:0.75;stroke-miterlimit:10;}
	.st59{fill:#F6F6F6;}
	.st60{fill:#FF1D25;}
	.st61{fill:#FBB03B;}
	.st62{fill:#C7B299;}
	.st63{fill:#D2C1AD;}
	.st64{fill:#998675;}
	.st65{fill:#FF4A51;}
	.st66{fill:#B20209;}
	.st67{fill:#F0C891;}
	.st68{fill:none;stroke:#464646;stroke-width:16;stroke-linecap:round;stroke-linejoin:round;stroke-miterlimit:10;}
	.st69{clip-path:url(#SVGID_18_);}
	.st70{clip-path:url(#SVGID_20_);}
	.st71{clip-path:url(#SVGID_22_);}
	.st72{clip-path:url(#SVGID_24_);}
	.st73{clip-path:url(#SVGID_26_);}
	.st74{clip-path:url(#SVGID_28_);}
</style>
<g>
	<path class="st0" d="M22.3,22.9c3.4-2,5.6-5.7,5.6-9.9c0-6.4-5.2-11.6-11.6-11.6S4.7,6.6,4.7,13s5.2,11.6,11.6,11.6
		c1.5,0,2.9-0.3,4.2-0.8L22.3,22.9z"/>
	<g>
		<circle class="st3" cx="19.4" cy="4.9" r="1.2"/>
	</g>
	<g>
		<path class="st3" d="M10.5,15.8C7,19.5,12.4,25,16,20.3L10.5,15.8z"/>
		<path class="st0" d="M10.5,15.8l5.4,4.5C12.5,22.5,9.3,18.4,10.5,15.8z"/>
		<path class="st2" d="M12.8,22.5C12.8,22.5,12.8,22.5,12.8,22.5c0.9,0,2.2-0.3,3.4-2c0,0,0,0,0,0c0,0,0,0,0,0c0,0,0,0,0,0
			c0,0,0,0,0,0c0,0,0,0,0,0c0,0,0,0,0,0c0,0,0,0,0,0c0,0,0,0,0,0c0,0,0,0,0,0c0,0,0,0,0,0c0,0,0,0,0,0c0,0,0,0,0,0c0,0,0,0,0,0
			c0,0,0,0,0,0c0,0,0,0,0,0c0,0,0,0,0,0c0,0,0,0,0,0c0,0,0,0,0,0c0,0,0,0,0,0c0,0,0,0,0,0c0,0,0,0,0,0c0,0,0,0,0,0c0,0,0,0,0,0
			c0,0,0,0,0,0c0,0,0,0,0,0c0,0,0,0,0,0c0,0,0,0,0,0c0,0,0,0,0,0l-5.4-4.5c0,0,0,0,0,0c0,0,0,0,0,0c0,0,0,0,0,0c0,0,0,0,0,0
			c0,0,0,0,0,0c0,0,0,0,0,0c0,0,0,0,0,0c0,0,0,0,0,0c0,0,0,0,0,0c0,0,0,0,0,0c0,0,0,0,0,0c0,0,0,0,0,0c0,0,0,0,0,0c0,0,0,0,0,0
			c0,0,0,0,0,0c0,0,0,0,0,0c0,0,0,0,0,0c0,0,0,0,0,0c0,0,0,0,0,0c0,0,0,0,0,0c0,0,0,0,0,0c0,0,0,0,0,0c0,0,0,0,0,0c0,0,0,0,0,0
			c0,0,0,0,0,0c0,0,0,0,0,0c0,0,0,0,0,0c0,0,0,0,0,0c-1.2,1.3-1.6,2.9-1,4.4C9.9,21.5,11.4,22.5,12.8,22.5z M10.7,16.4l1.8,1.5
			L11.7,18c-0.2,0-0.3,0.2-0.3,0.4c0,0.2,0.2,0.3,0.4,0.3l1.1-0.1l0.1,1.1c0,0.2,0.2,0.3,0.4,0.3c0,0,0,0,0,0c0.2,0,0.3-0.2,0.3-0.4
			l-0.1-0.8l0.1,0.1l1.7,1.4c-0.5,0.2-0.9,0.3-1.4,0.3c-1.1,0-2.1-0.6-2.8-1.7C10.7,18.1,10.5,17.2,10.7,16.4z M9.9,17.4
			c0.1,0.7,0.3,1.3,0.7,1.9c0.8,1.2,2,2,3.4,2c0.2,0,0.4,0,0.6,0c-0.5,0.4-1.1,0.5-1.7,0.5c0,0,0,0,0,0c-1.2,0-2.3-0.8-2.9-2
			C9.7,19,9.6,18.1,9.9,17.4z"/>
	</g>
	<path class="st2" d="M24.8,4.6c-2.3-2.3-5.2-3.5-8.4-3.5s-6.2,1.2-8.4,3.5S4.4,9.8,4.4,13s1.2,6.2,3.5,8.4s5.2,3.5,8.4,3.5
		c1.5,0,2.9-0.3,4.3-0.8c0.2-0.1,0.3-0.3,0.2-0.5c-0.1-0.2-0.3-0.3-0.5-0.2c-1.3,0.5-2.6,0.7-4,0.7c-3,0-5.8-1.2-7.9-3.3
		C6.3,18.8,5.1,16,5.1,13s1.2-5.8,3.3-7.9s4.9-3.3,7.9-3.3s5.8,1.2,7.9,3.3s3.3,4.9,3.3,7.9c0,2-0.5,3.9-1.5,5.6c-1,1.6-2.3,3-4,4
		c-0.2,0.1-0.2,0.3-0.1,0.5c0.1,0.2,0.3,0.2,0.5,0.1c1.7-1,3.2-2.5,4.2-4.3c1-1.8,1.6-3.9,1.6-6C28.3,9.8,27,6.8,24.8,4.6z"/>
	<path class="st2" d="M8.3,11.2c-0.7,0-1.3,0.6-1.3,1.3s0.6,1.3,1.3,1.3s1.3-0.6,1.3-1.3S9,11.2,8.3,11.2z M8.3,12.8
		c-0.2,0-0.3-0.2-0.3-0.3s0.2-0.3,0.3-0.3s0.3,0.2,0.3,0.3S8.5,12.8,8.3,12.8z"/>
	<circle class="st3" cx="8.3" cy="12.5" r="0.6"/>
	<path class="st2" d="M20.9,4.9c0-0.9-0.7-1.6-1.6-1.6c-0.9,0-1.6,0.7-1.6,1.6s0.7,1.6,1.6,1.6S20.9,5.8,20.9,4.9z M18.5,4.9
		c0-0.5,0.4-0.8,0.8-0.8c0.5,0,0.8,0.4,0.8,0.8s-0.4,0.8-0.8,0.8S18.5,5.4,18.5,4.9z"/>
	<path class="st2" d="M24.9,11.7C24.9,11.7,24.9,11.7,24.9,11.7c0.2,0,0.3-0.2,0.3-0.4c-0.1-2.2-2-4.9-3.4-5.6
		c-0.2-0.1-0.4,0-0.5,0.2c-0.1,0.2,0,0.4,0.2,0.5c0.6,0.3,1.3,1,1.9,2c0.7,1,1.1,2.1,1.1,3C24.5,11.6,24.7,11.8,24.9,11.7z"/>
	<g>
		<path class="st0" d="M21.3,11.3c-2-1.8-6.5-2.7-8.4-3c0-0.8-0.1-2.2-0.4-3.5L8.4,9.4c1.3,0.1,2.7,0.1,3.5,0c0.5,1.9,1.9,6.2,4,8
			c3.2,2.8,7.5,1.2,7.5,1.2S24.5,14.1,21.3,11.3L21.3,11.3z M21.3,11.3"/>
		<path class="st2" d="M23.8,18.7c0,0,0.3-1.2,0.2-2.7c-0.2-2-1-3.7-2.4-5c-0.9-0.8-2.4-1.6-4.4-2.2c-1.7-0.5-3.2-0.8-3.9-0.9
			c0-0.9-0.2-2.1-0.4-3.3c0-0.1-0.1-0.2-0.3-0.3c-0.1,0-0.3,0-0.4,0.1L8.1,9.1C8,9.2,8,9.4,8.1,9.5c0.1,0.1,0.2,0.2,0.3,0.2
			c1.2,0.1,2.4,0.1,3.3,0c0.2,0.7,0.6,2.2,1.3,3.8c0.8,1.9,1.7,3.3,2.7,4.1c1.4,1.2,3.2,1.8,5.2,1.8c1.5,0,2.6-0.4,2.7-0.5
			C23.6,18.9,23.7,18.8,23.8,18.7L23.8,18.7z M20.8,18.7c-0.8,0-1.6-0.1-2.3-0.3c-0.1-0.3-0.3-1.5,0.6-2.9c0.1-0.2,0.1-0.4-0.1-0.5
			c-0.2-0.1-0.4-0.1-0.5,0.1c-0.8,1.2-0.9,2.3-0.8,3c-0.6-0.3-1.1-0.6-1.6-1c-1.9-1.7-3.3-5.7-3.8-7.9c0-0.1-0.1-0.1-0.1-0.2
			C12.1,9,12,9,11.9,9C11.2,9.1,10.2,9.1,9.2,9L10,8.1l0.3,0.3c0.1,0.1,0.4,0.1,0.5,0c0.1-0.1,0.1-0.4,0-0.5l-0.3-0.3L11,7l0.3,0.3
			c0.1,0.1,0.4,0.1,0.5,0c0.1-0.1,0.1-0.4,0-0.5l-0.3-0.3l0.8-0.9c0.2,1,0.3,2,0.2,2.7c0,0.2,0.1,0.3,0.3,0.4
			c2.2,0.3,6.3,1.2,8.2,2.9c1.2,1.1,2,2.6,2.1,4.5c0.1,1.1,0,1.9-0.1,2.3C22.7,18.4,21.9,18.6,20.8,18.7L20.8,18.7z M20.8,18.7"/>
		<path class="st2" d="M19.9,14.1c-0.1-0.1-0.4-0.1-0.5,0c-0.1,0.1-0.1,0.1-0.2,0.2c-0.1,0.1-0.1,0.4,0,0.5c0,0,0,0,0,0
			c0.1,0.1,0.4,0.1,0.5,0c0.1-0.1,0.1-0.1,0.2-0.2C20.1,14.4,20.1,14.2,19.9,14.1L19.9,14.1z M19.9,14.1"/>
		<path class="st2" d="M22.3,14.8c-0.4-0.3-0.9-0.3-1.3,0.1c-0.3,0.4-0.3,0.9,0.1,1.3c0.4,0.3,0.9,0.3,1.3-0.1
			C22.7,15.7,22.6,15.1,22.3,14.8L22.3,14.8z M21.5,15.6c-0.1-0.1-0.1-0.2,0-0.2c0.1-0.1,0.2-0.1,0.2,0c0.1,0.1,0.1,0.2,0,0.2
			C21.7,15.6,21.6,15.7,21.5,15.6L21.5,15.6z M21.5,15.6"/>
		<path class="st2" d="M18.6,12.8l0.4,0c0.1,0,0.2,0,0.2-0.1c0.1-0.1,0.1-0.2,0.1-0.3l0-0.3l0.2,0c0.2,0,0.3-0.2,0.3-0.4
			c0-0.2-0.2-0.3-0.4-0.3l-0.6,0c-0.1,0-0.2,0-0.2,0.1c-0.1,0.1-0.1,0.2-0.1,0.3l0,0.3l-0.4,0c-0.1,0-0.2,0-0.2,0.1
			s-0.1,0.2-0.1,0.3l0,0.5l-0.4,0c-0.2,0-0.3,0.2-0.3,0.4c0,0.1,0.1,0.2,0.1,0.2c0.1,0.1,0.2,0.1,0.3,0.1l0.8,0c0.1,0,0.2,0,0.2-0.1
			c0.1-0.1,0.1-0.2,0.1-0.3L18.6,12.8z M18.6,12.8"/>
		<path class="st2" d="M15.6,11.6l0.3,0c0.2,0,0.3-0.2,0.3-0.4c0-0.2-0.2-0.3-0.4-0.3l-0.6,0c-0.2,0-0.3,0.2-0.3,0.4l0,0.4l-0.4,0
			c-0.2,0-0.3,0.2-0.3,0.4c0,0.1,0.1,0.2,0.1,0.2c0.1,0.1,0.2,0.1,0.3,0.1l0.8,0c0.2,0,0.3-0.2,0.3-0.4L15.6,11.6z M15.6,11.6"/>
	</g>
</g>
</svg>
