<?xml version="1.0" encoding="utf-8"?>
<!-- Generator: Adobe Illustrator 21.1.0, SVG Export Plug-In . SVG Version: 6.00 Build 0)  -->
<svg version="1.1" id="Layer_1" xmlns="http://www.w3.org/2000/svg" xmlns:xlink="http://www.w3.org/1999/xlink" x="0px" y="0px"
	 viewBox="0 0 32.6 26" style="enable-background:new 0 0 32.6 26;" xml:space="preserve">
<style type="text/css">
	.st0{fill:#F9E8A0;}
	.st1{fill:none;}
	.st2{fill:#414042;}
	.st3{fill:#FF0000;}
	.st4{fill:#CE593F;}
	.st5{fill:#EF8829;}
	.st6{clip-path:url(#SVGID_2_);}
	.st7{fill:#3F2D20;}
	.st8{fill:#F8E79F;}
	.st9{clip-path:url(#SVGID_4_);}
	.st10{clip-path:url(#SVGID_6_);}
	.st11{fill:#F7B239;}
	.st12{fill:#E09B2D;}
	.st13{fill:#9AD14B;}
	.st14{fill:#F95428;}
	.st15{fill:#E54728;}
	.st16{fill:#B27214;}
	.st17{fill:#F4DE3B;}
	.st18{fill:#90BC42;}
	.st19{fill:#FFFFFF;}
	.st20{clip-path:url(#SVGID_8_);fill:#FFFFFF;}
	.st21{clip-path:url(#SVGID_8_);fill:#333333;}
	.st22{fill:#CC722E;}
	.st23{fill:#B25719;}
	.st24{fill:#FFA91F;}
	.st25{fill:#8C5549;}
	.st26{opacity:0.15;}
	.st27{fill:#202020;}
	.st28{fill:#A4A4A5;}
	.st29{fill:#DCE0E2;}
	.st30{fill:#354251;}
	.st31{fill:#9DB6CA;}
	.st32{fill:#9ACFDF;}
	.st33{clip-path:url(#SVGID_10_);}
	.st34{clip-path:url(#SVGID_12_);}
	.st35{clip-path:url(#SVGID_14_);}
	.st36{fill:#FF7424;}
	.st37{fill:#FF4C1C;}
	.st38{fill:#DDA558;}
	.st39{fill:#D4F8F5;}
	.st40{opacity:0.1;fill:#54858D;enable-background:new    ;}
	.st41{fill:#FFD755;}
	.st42{fill:#FFF6C4;}
	.st43{fill:#6DA8D6;}
	.st44{fill:#FFDA44;}
	.st45{fill:#3FC378;}
	.st46{fill:#C9EEAE;}
	.st47{fill:#E21220;}
	.st48{fill:#FF505D;}
	.st49{fill:#FF7C80;}
	.st50{fill:#93298D;}
	.st51{fill:#FFF5CC;}
	.st52{fill:#0DD9DD;}
	.st53{fill:#02A6AA;}
	.st54{fill:#FDD44B;}
	.st55{fill:#84BD93;}
	.st56{clip-path:url(#SVGID_16_);fill:#EF8829;}
	.st57{clip-path:url(#SVGID_16_);fill:#3F2D20;}
	.st58{fill:none;stroke:#414042;stroke-width:0.75;stroke-miterlimit:10;}
	.st59{fill:#F6F6F6;}
	.st60{fill:#FF1D25;}
	.st61{fill:#FBB03B;}
	.st62{fill:#C7B299;}
	.st63{fill:#D2C1AD;}
	.st64{fill:#998675;}
	.st65{fill:#FF4A51;}
	.st66{fill:#B20209;}
	.st67{fill:#F0C891;}
	.st68{fill:none;stroke:#464646;stroke-width:16;stroke-linecap:round;stroke-linejoin:round;stroke-miterlimit:10;}
	.st69{clip-path:url(#SVGID_18_);}
	.st70{clip-path:url(#SVGID_20_);}
	.st71{clip-path:url(#SVGID_22_);}
	.st72{clip-path:url(#SVGID_24_);}
	.st73{clip-path:url(#SVGID_26_);}
	.st74{clip-path:url(#SVGID_28_);}
</style>
<g>
	<g>
		<path class="st2" d="M13.4,10.2c0-1.4-1-2.6-2.4-3c0,0,0,0-0.1,0c0.5-0.5,0.9-1.2,0.9-1.9C12,4.4,11.7,3.6,11.1,3
			C10,2,8.3,1.9,7.2,2.9C6.6,3.4,6.3,4.1,6.3,4.8c-0.1,0.9,0.3,1.7,1,2.4c-1.5,0.4-2.5,1.6-2.5,3.2c0,0.4,0,0.9,0,1.5v1l8.7,0l0-0.1
			C13.4,12.7,13.4,10.8,13.4,10.2z M8,7.9c0.8,0,1.5,0,2.3,0c1.3,0,2.4,1.1,2.4,2.4c0,0.4,0,0.9,0,1.3l0,0.5h-1.1V10h-0.7v2.1H7.5
			V10H6.7v2.1H5.6l0-0.5c0-0.4,0-0.9,0-1.3C5.6,9,6.7,7.9,8,7.9z M9.1,7C9.1,7,9.1,7,9.1,7c-1.1,0-2-0.9-2-2c0-0.5,0.2-1,0.6-1.4
			C8.1,3.2,8.6,3,9.1,3c0,0,0,0,0,0c1.1,0,2,0.9,2,2c0,0.5-0.2,1-0.6,1.4S9.6,7,9.1,7z"/>
		<path class="st0" d="M10.8,12.2c-1.2,0-2.3,0-3.5,0c0-0.7,0-1.4,0-2.1c-0.2,0-0.3,0-0.4,0c0,0.7,0,1.4,0,2.1c-0.5,0-1,0-1.4,0
			c0,0,0-0.1,0-0.1c0-0.6,0-1.2,0-1.8c0-1.4,1.1-2.5,2.5-2.5c0.8,0,1.5,0,2.3,0c1.4,0,2.5,1.1,2.5,2.5c0,0.6,0,1.3,0,1.9
			c-0.5,0-0.9,0-1.4,0c0-0.7,0-1.4,0-2.1c-0.2,0-0.3,0-0.4,0C10.8,10.8,10.8,11.5,10.8,12.2z"/>
		<path class="st1" d="M9.1,7.2c-1.2,0-2.1-1-2.1-2.2c0-1.2,1-2.1,2.1-2.1c1.2,0,2.1,1,2.1,2.1C11.2,6.2,10.3,7.2,9.1,7.2z"/>
	</g>
	<g>
		<rect x="4.2" y="12.8" class="st3" width="8.7" height="1.2"/>
		<rect x="4.3" y="8" class="st3" width="4.3" height="2.2"/>
	</g>
	<rect x="22.3" y="9.9" class="st3" width="2.4" height="4"/>
	<rect x="26.1" y="10.2" class="st3" width="1.9" height="4.1"/>
	<polygon class="st0" points="2.5,23.3 2.5,16.1 1.2,16.1 1.2,14.2 31.3,14.2 31.3,15.9 30.5,15.9 30.5,23.3 	"/>
	<g>
		<path class="st2" d="M9.2,10.7H3.8V7.6h5.3V10.7z M4.7,9.8h3.5V8.5H4.7V9.8z"/>
		<path class="st2" d="M13.4,14.7H3.8v-2.2h9.6V14.7z M4.7,13.8h7.8v-0.4H4.7V13.8z"/>
		<path class="st2" d="M25,14.7h-2.9V9.8H25V14.7z M23,13.8h1.1v-3.1H23V13.8z"/>
		<path class="st2" d="M28.5,14.7h-2.8V9.8h2.8V14.7z M26.6,13.8h1v-3.1h-1V13.8z"/>
		<rect x="6.1" y="10.3" class="st2" width="0.9" height="2.6"/>
		<path class="st2" d="M31.9,16.5H0.8v-2.7h31.1V16.5z M1.6,15.6H31v-0.9H1.6V15.6z"/>
		<path class="st2" d="M31,23.8h-29v-8.2h29V23.8z M2.8,22.9h27.3v-6.4H2.8V22.9z"/>
	</g>
</g>
</svg>
