<?xml version="1.0" encoding="utf-8"?>
<!-- Generator: Adobe Illustrator 21.1.0, SVG Export Plug-In . SVG Version: 6.00 Build 0)  -->
<svg version="1.1" id="Layer_1" xmlns="http://www.w3.org/2000/svg" xmlns:xlink="http://www.w3.org/1999/xlink" x="0px" y="0px"
	 viewBox="0 0 32.6 26" style="enable-background:new 0 0 32.6 26;" xml:space="preserve">
<style type="text/css">
	.st0{fill:#F9E8A0;}
	.st1{fill:none;}
	.st2{fill:#414042;}
	.st3{fill:#FF0000;}
	.st4{fill:#CE593F;}
	.st5{fill:#EF8829;}
	.st6{clip-path:url(#SVGID_2_);}
	.st7{fill:#3F2D20;}
	.st8{fill:#F8E79F;}
	.st9{clip-path:url(#SVGID_4_);}
	.st10{clip-path:url(#SVGID_6_);}
	.st11{fill:#F7B239;}
	.st12{fill:#E09B2D;}
	.st13{fill:#9AD14B;}
	.st14{fill:#F95428;}
	.st15{fill:#E54728;}
	.st16{fill:#B27214;}
	.st17{fill:#F4DE3B;}
	.st18{fill:#90BC42;}
	.st19{fill:#FFFFFF;}
	.st20{clip-path:url(#SVGID_8_);fill:#FFFFFF;}
	.st21{clip-path:url(#SVGID_8_);fill:#333333;}
	.st22{fill:#CC722E;}
	.st23{fill:#B25719;}
	.st24{fill:#FFA91F;}
	.st25{fill:#8C5549;}
	.st26{opacity:0.15;}
	.st27{fill:#202020;}
	.st28{fill:#A4A4A5;}
	.st29{fill:#DCE0E2;}
	.st30{fill:#354251;}
	.st31{fill:#9DB6CA;}
	.st32{fill:#9ACFDF;}
	.st33{clip-path:url(#SVGID_10_);}
	.st34{clip-path:url(#SVGID_12_);}
	.st35{clip-path:url(#SVGID_14_);}
	.st36{fill:#FF7424;}
	.st37{fill:#FF4C1C;}
	.st38{fill:#DDA558;}
	.st39{fill:#D4F8F5;}
	.st40{opacity:0.1;fill:#54858D;enable-background:new    ;}
	.st41{fill:#FFD755;}
	.st42{fill:#FFF6C4;}
	.st43{fill:#6DA8D6;}
	.st44{fill:#FFDA44;}
	.st45{fill:#3FC378;}
	.st46{fill:#C9EEAE;}
	.st47{fill:#E21220;}
	.st48{fill:#FF505D;}
	.st49{fill:#FF7C80;}
	.st50{fill:#93298D;}
	.st51{fill:#FFF5CC;}
	.st52{fill:#0DD9DD;}
	.st53{fill:#02A6AA;}
	.st54{fill:#FDD44B;}
	.st55{fill:#84BD93;}
	.st56{clip-path:url(#SVGID_16_);fill:#EF8829;}
	.st57{clip-path:url(#SVGID_16_);fill:#3F2D20;}
	.st58{fill:none;stroke:#414042;stroke-width:0.75;stroke-miterlimit:10;}
	.st59{fill:#F6F6F6;}
	.st60{fill:#FF1D25;}
	.st61{fill:#FBB03B;}
	.st62{fill:#C7B299;}
	.st63{fill:#D2C1AD;}
	.st64{fill:#998675;}
	.st65{fill:#FF4A51;}
	.st66{fill:#B20209;}
	.st67{fill:#F0C891;}
	.st68{fill:none;stroke:#464646;stroke-width:16;stroke-linecap:round;stroke-linejoin:round;stroke-miterlimit:10;}
	.st69{clip-path:url(#SVGID_18_);}
	.st70{clip-path:url(#SVGID_20_);}
	.st71{clip-path:url(#SVGID_22_);}
	.st72{clip-path:url(#SVGID_24_);}
	.st73{clip-path:url(#SVGID_26_);}
	.st74{clip-path:url(#SVGID_28_);}
</style>
<g>
	<path class="st0" d="M28.8,12.1v3c0,4.6-4,7.4-11.9,7.4c-3.4,0-6.3-0.5-8.5-1.4c-2.9-1.1-4.5-2.9-4.5-4.9v-3L8.4,13L28.8,12.1z"/>
	<path class="st3" d="M3.9,13.2c0,3.5,5.2,6.3,13,6.3s11.9-2.8,11.9-7.4s-3.4-7.5-6.1-7.5S17.6,5.8,16,7.7s-3.1,4-6.1,2.9
		S3.9,9.7,3.9,13.2z"/>
	<path class="st0" d="M16.9,18c-7.3,0-11.6-2.4-11.6-4.8c0-0.7,0.1-1.1,0.4-1.3c0.3-0.3,0.9-0.3,1.3-0.3c0.7,0,1.5,0.2,2.5,0.5
		c0.7,0.2,1.3,0.3,2,0.3c2.7,0,4.3-2,5.6-3.6l0.1-0.1C18.5,7,20.5,6,22.7,6c1,0,2.1,0.6,3,1.6c1.1,1.2,1.7,2.8,1.7,4.5
		c0,1.8-0.8,3.2-2.3,4.2C23.2,17.4,20.4,18,16.9,18z"/>
	<path class="st2" d="M22.5,18.4C20.9,18.8,19,19,16.9,19c-2.8,0-5.4-0.4-7.4-1C9.2,17.9,9,18,8.9,18.3c-0.1,0.2,0.1,0.5,0.3,0.6
		c2.2,0.7,4.8,1.1,7.7,1.1c2.2,0,4.1-0.2,5.8-0.6c0.2-0.1,0.4-0.3,0.3-0.5C22.9,18.5,22.7,18.4,22.5,18.4z"/>
	<path class="st2" d="M23.9,4.3c-0.2-0.1-0.5,0.1-0.5,0.3c-0.1,0.2,0.1,0.5,0.3,0.5c1.2,0.3,2.3,1.2,3.2,2.3
		c0.7,0.9,1.5,2.5,1.5,4.7c0,2.6-1.4,4.6-4.1,5.7c-0.2,0.1-0.3,0.4-0.2,0.6c0.1,0.2,0.2,0.3,0.4,0.3c0.1,0,0.1,0,0.2,0
		c1.7-0.7,3-1.8,3.7-3.1c-0.1,2-1,3.5-2.8,4.6c-2,1.3-4.9,1.9-8.6,1.9c-3.7,0-7-0.6-9.3-1.8c-2.1-1.1-3.3-2.5-3.3-4v-0.5
		c0.6,0.8,1.4,1.5,2.5,2.1c0.1,0,0.1,0.1,0.2,0.1c0.2,0,0.3-0.1,0.4-0.2c0.1-0.2,0-0.5-0.2-0.6c-1.9-1-2.9-2.4-2.9-3.8
		c0-1,0.3-1.8,0.9-2.2c0.9-0.6,2.6-0.6,4.6,0.1c3.2,1.1,4.9-1.1,6.5-3L16.4,8c1.3-1.6,3.3-2.7,5.4-2.9c0.2,0,0.4-0.2,0.4-0.5
		c0-0.2-0.2-0.4-0.5-0.4c-2.3,0.3-4.5,1.4-6,3.2l-0.1,0.1c-0.7,0.9-1.5,1.8-2.4,2.4c-1,0.6-2,0.7-3.1,0.3c-1.3-0.5-3.8-1.1-5.4,0.1
		c-0.8,0.6-1.3,1.6-1.3,2.9v3c0,1.9,1.4,3.6,3.8,4.8c2.5,1.2,5.8,1.9,9.7,1.9c3.9,0,7-0.7,9.1-2c2.1-1.3,3.2-3.3,3.2-5.8v-3
		C29.2,7.9,26.5,5,23.9,4.3z"/>
	<path class="st2" d="M26.6,14.9c0.2,0.1,0.5,0,0.6-0.2c0.4-0.7,0.6-1.6,0.6-2.6c0-1.8-0.6-3.5-1.8-4.8c-1-1.1-2.2-1.7-3.3-1.7
		c-2.3,0-4.5,1-5.9,2.7l-0.1,0.1c-1.2,1.6-2.8,3.5-5.3,3.5c-0.6,0-1.2-0.1-1.8-0.3c-1-0.3-1.9-0.5-2.6-0.5c-0.7,0-1.2,0.2-1.6,0.4
		c-0.4,0.3-0.6,0.9-0.6,1.7c0,1,0.6,2,1.9,2.9c1.2,0.8,2.9,1.5,4.9,1.9c0,0,0.1,0,0.1,0c0.2,0,0.4-0.1,0.4-0.4
		c0-0.2-0.1-0.5-0.3-0.5c-0.4-0.1-0.7-0.2-1.1-0.2l-0.6-1.6C10.1,15,9.8,14.9,9.6,15c-0.2,0.1-0.3,0.3-0.3,0.6l0.4,1
		c-2.7-0.9-3.9-2.2-3.9-3.3c0-0.7,0.2-0.9,0.3-1C6.2,12.1,6.6,12,7,12c0.3,0,0.7,0,1,0.1l0.7,2c0.1,0.2,0.2,0.3,0.4,0.3
		c0.1,0,0.1,0,0.2,0c0.2-0.1,0.3-0.3,0.3-0.6l-0.5-1.4c0.1,0,0.2,0.1,0.3,0.1c0.7,0.2,1.4,0.4,2.1,0.4c0.8,0,1.4-0.1,2.1-0.4
		l1.9,5.1c-0.5,0-1.1-0.1-1.6-0.1c-0.2,0-0.5,0.1-0.5,0.4c0,0.2,0.1,0.5,0.4,0.5c1,0.1,2.1,0.2,3.2,0.2c3.6,0,6.5-0.6,8.3-1.8
		c0.2-0.1,0.3-0.4,0.1-0.6c-0.1-0.2-0.4-0.3-0.6-0.1c-0.8,0.5-1.9,0.9-3.2,1.2l-0.9-2.5c-0.1-0.2-0.3-0.3-0.6-0.3
		c-0.2,0.1-0.3,0.3-0.3,0.6l0.9,2.3c-1.1,0.2-2.4,0.3-3.7,0.3c-0.2,0-0.4,0-0.6,0l-2-5.5c1.3-0.8,2.3-2,3.1-3l0.1-0.1c0,0,0,0,0,0
		l1.7,4.7c0.1,0.2,0.2,0.3,0.4,0.3c0.1,0,0.1,0,0.2,0c0.2-0.1,0.3-0.3,0.3-0.6l-1.9-5.1c1-0.9,2.4-1.5,3.8-1.6l0.7,1.9
		c0.1,0.2,0.2,0.3,0.4,0.3c0.1,0,0.1,0,0.2,0c0.2-0.1,0.3-0.3,0.3-0.6l-0.6-1.6c0.8,0.1,1.7,0.6,2.4,1.4c1,1.1,1.5,2.6,1.5,4.2
		c0,0.8-0.2,1.5-0.5,2.2C26.3,14.5,26.3,14.7,26.6,14.9z"/>
	<path class="st2" d="M23.4,9.1c-0.2,0.1-0.3,0.3-0.3,0.6l1.8,4.9c0.1,0.2,0.2,0.3,0.4,0.3c0.1,0,0.1,0,0.2,0
		c0.2-0.1,0.3-0.3,0.3-0.6L24,9.4C23.9,9.2,23.7,9.1,23.4,9.1z"/>
</g>
</svg>
