<svg xmlns="http://www.w3.org/2000/svg" viewBox="0 0 250 250"><title>Casual dining</title><path d="M112.24,118.61s18.59-17.78,24.41-16.81,11.15,5.6,8.57,11.45-5.66,9.08-10.51,13.93-18.43,16.17-24.09,17.3-13.74,7.11-20.37,5.5-19.88-6.41-13.42-8.7,25.7-15.1,34.43-22.34" style="fill:#fff"/><path d="M94.79,175a108.26,108.26,0,0,1-13.93-.67c-6.49-.75-13-1.47-19.25-3.52a71.16,71.16,0,0,1-23-12.36,27.94,27.94,0,0,1-6.09-6.63,8,8,0,0,1,.79-9.57c2.37-2.9,5.6-4.36,9.1-5.3a36.29,36.29,0,0,1,13.1-.86c3.5.35,6.94,1,10.42,1.48a34.75,34.75,0,0,0,15-1.67c6-1.91,11.16-5.32,16.14-9.06a95,95,0,0,0,16.79-16.69A47.39,47.39,0,0,1,129.3,97.24a19.79,19.79,0,0,1,9.19-2.34A12.48,12.48,0,0,1,149,100.46a35.39,35.39,0,0,1,4.52,9.73,31.18,31.18,0,0,0,2.53,5.81,12.47,12.47,0,0,0,2.9,3.33,47.77,47.77,0,0,1,5.86,5.3,13.76,13.76,0,0,1,3.57,9.19,17.29,17.29,0,0,1-2.74,9,38.4,38.4,0,0,1-7.16,8.05c-10.1,9.42-22.08,15.49-35.07,19.8A79.25,79.25,0,0,1,110.22,174a91.29,91.29,0,0,1-11.31,1C97.54,175,96.17,175,94.79,175Zm47.7-64.27a5,5,0,0,0-5.8-5.17,13.91,13.91,0,0,0-6.09,2.81,74.14,74.14,0,0,0-10.34,10.07c-4.12,4.56-8.13,9.21-13.23,12.75a7.05,7.05,0,0,0-1.86,1.89,2.56,2.56,0,0,0,0,2.82,2.6,2.6,0,0,0,2.4,1.5,7,7,0,0,0,2.86-.74,32.81,32.81,0,0,0,5.35-3.14c6.77-4.7,13.15-9.92,19.79-14.79a27.26,27.26,0,0,0,5.54-5A5.85,5.85,0,0,0,142.49,110.71ZM89.67,146.45c.94-.1,2-.17,3.07-.33a15.57,15.57,0,0,0,7.07-2.73,4.47,4.47,0,0,0,1.88-2.63,3.19,3.19,0,0,0-1.16-3.17,2.23,2.23,0,0,0-2.64-.1,36.47,36.47,0,0,0-3.58,2,21.15,21.15,0,0,1-6.5,2.95c-.81.17-1.63.34-2.43.56-.46.13-1,.3-1.07.86a1.5,1.5,0,0,0,.61,1.41,3.4,3.4,0,0,0,1.27.67A14.88,14.88,0,0,0,89.67,146.45Z" style="fill:#ee2d24"/><path d="M196.62,175c-5.36-.1-10.32-.85-14.84-3.4-3.75-2.12-6.65-5-8-9.24a7,7,0,0,1,2.2-7.78,6.17,6.17,0,0,1,7.94.37,28.9,28.9,0,0,1,3.79,4.71,18.86,18.86,0,0,0,3.9,4.28,8.64,8.64,0,0,0,10.3-.06,7.14,7.14,0,0,0,2.69-5.38c.29-4.15-1.83-7-5.13-9a86.77,86.77,0,0,0-9.65-4.85,38,38,0,0,1-8.35-4.84c-3.86-3.19-6.36-7.17-6.75-12.22-.7-9.15,4.13-16.31,13.12-18.86a32.34,32.34,0,0,1,12.22-.85,23.15,23.15,0,0,1,10.32,3.33,13.12,13.12,0,0,1,6.13,7.9c.9,3.58-.84,6.86-4.19,7.64a6.17,6.17,0,0,1-6.62-2.28,20.56,20.56,0,0,1-1.94-3.06c-1.29-2.38-2.87-4.47-5.63-5.22-5-1.34-9.12,1.05-9.91,6a8.2,8.2,0,0,0,3.3,8,24.47,24.47,0,0,0,5.54,3.11c3.36,1.51,6.74,3,10,4.68a23.52,23.52,0,0,1,8.38,6.81,17.4,17.4,0,0,1,3.27,9.87,19.69,19.69,0,0,1-3.16,11.8c-3,4.52-7.36,6.86-12.53,7.93A36.41,36.41,0,0,1,196.62,175Z" style="fill:#5d9731"/><path d="M184.16,87.4a26.89,26.89,0,0,1-5.75,15.93,30,30,0,0,1-9.71,8.73,8.64,8.64,0,0,1-3.4,1.17,3,3,0,0,1-3.14-1.53,3.53,3.53,0,0,1,.12-3.68,5.77,5.77,0,0,1,1-1.16,40.33,40.33,0,0,0,5-5.6c2.47-3.6,2.5-6.66.09-10.32a37.37,37.37,0,0,1-2.55-4.11A8.19,8.19,0,0,1,172.88,75a10.36,10.36,0,0,1,10.91,8.54A17.15,17.15,0,0,1,184.16,87.4Z" style="fill:#5d9731"/></svg>