<svg xmlns="http://www.w3.org/2000/svg" viewBox="0 0 250 250"><defs><style>.a{fill:#dc022f;}</style></defs><title>Fast Food</title><path class="a" d="M68.7,131.35v13.07H61.09v-13H51.37v33.79h9.87V152.11h7.55v13.15h9.35V131.35ZM77.35,118V84.14H67.82V97.21H60.6V84.13H50.89V118h9.78v-13H68v13ZM86.48,84.1c0,.8-.09,1.49-.09,2.19,0,7.36.15,14.73-.06,22.09-.12,4.31,2,7,5.47,8.76a17.51,17.51,0,0,0,12.82,1.09c5.89-1.59,8.49-5.19,8.49-11.27q0-10.37,0-20.74V84.13h-10c0,.85,0,1.55,0,2.25q0,10.37,0,20.74c0,2.26-1.2,3.47-3.41,3.49-2.41,0-3.68-1.14-3.69-3.42q0-10.46,0-20.93c0-.69,0-1.38,0-2.16Zm74,21.31.52-.18a14.83,14.83,0,0,1,1.07,1.59c1.65,3.28,3.24,6.6,4.92,9.86.28.55.9,1.29,1.38,1.31,3.13.12,6.26.06,9.64.06-.44-.91-.72-1.55-1-2.16-2.58-4.91-5.22-9.79-7.71-14.74a3.25,3.25,0,0,1,0-2.59c2.2-4.16,4.55-8.24,6.85-12.35.36-.65.7-1.3,1.2-2.22-3.44,0-6.53,0-9.61.05-.48,0-1.08.61-1.38,1.09-1.49,2.41-2.9,4.88-4.36,7.32a11.88,11.88,0,0,1-1.07,1.32l-.48-.2V84.14h-10v33.8h10Zm-52.6,33.78c-.55-2.27-1-4.13-1.43-6a2.06,2.06,0,0,0-2.46-1.93c-4.78.12-9.56,0-14.33,0H86.82v34.11c6.26,0,12.33,0,18.39,0a1.65,1.65,0,0,0,1.3-.75c.75-2.24,1.36-4.53,2.1-7.1H96.15c0-1.53.07-2.81,0-4.08s.42-1.84,1.77-1.78c2,.09,4,0,6.06,0v-7.22H96.53v-5.26Zm17.27-.06h11.39C136,136.87,135.43,135,135,133a1.85,1.85,0,0,0-2.2-1.77c-4.46.09-8.91,0-13.37,0h-4.05v34H135l2.29-7.84H124.91v-5.82h7.56v-7.19h-7.3Zm78.63-28.88v-5.93h7.4v-7.2H203.9V91.82h11.4c-.6-2.33-1.21-4.3-1.6-6.31-.25-1.33-.94-1.58-2.14-1.56-4.72.06-9.43,0-14.15,0h-3.3V118c6.37,0,12.62,0,18.87,0a1.28,1.28,0,0,0,.93-.74c.7-2.24,1.32-4.51,2-7Zm-34.75,55h19.57l2.31-7.9H178.44c0-1.63,0-3,0-4.33,0-1.13.51-1.44,1.53-1.42,1.68,0,3.36.08,5,0,.46,0,1.25-.6,1.27-1,.13-2,.06-4,.06-6.2h-7.55v-5.33h11.39c-.54-2.27-1-4.19-1.45-6.13a1.89,1.89,0,0,0-2.23-1.75c-5.23.09-10.46,0-15.69,0-.56,0-1.11.09-1.75.15ZM43.26,92.34V88.17c0-4.56,0-4.56-4.64-4.53C29.9,83.71,23.55,88.59,22,97.05a25.56,25.56,0,0,0,.28,9.57c1.76,8.6,13,14.7,20.88,11.6v-8.4c-7.47-.69-10.73-3.41-10.7-8.83S35.83,92.95,43.26,92.34Zm-.11,38.82c-8.29-1.36-16,1.78-19.4,7.82s-2.83,15.91,1.47,21c4.05,4.84,12.4,7.43,18,5.47,0-2.31,0-4.69,0-7.07,0-.44-.08-.87-.12-1.28-7.41-.94-10.7-3.36-10.6-8.27A12,12,0,0,1,34.4,143c2-3.06,5.31-3.52,8.86-3.19,0-2.57,0-4.89,0-7.2C43.25,132.14,43.19,131.7,43.15,131.16Zm98.45-21.35c-7-.52-10.25-3-10.64-7.89a8.59,8.59,0,0,1,1.64-6c2.21-3,5.34-3.8,9-3.37,0-2.76.06-5.21-.06-7.65,0-.42-.8-1.1-1.28-1.16a30.86,30.86,0,0,0-4.25-.06c-7,.17-13.35,4.69-15.1,11.45a27.48,27.48,0,0,0-.54,9.73c1,9.07,11.15,16,19.92,13.84.51-.13,1.24-.81,1.26-1.27C141.66,114.92,141.6,112.41,141.6,109.81ZM159.41,138c.44-1.59,1-3.36,1.38-5.18a1.64,1.64,0,0,0-.76-1.41,19.23,19.23,0,0,0-4.32-.95,12.65,12.65,0,0,0-9.64,3.22,10.08,10.08,0,0,0,.77,15.69c1.68,1.3,3.61,2.32,5.13,3.77a4.32,4.32,0,0,1,1.14,3.19c-.16,1.46-1.54,2.19-3,2.23-1.14,0-2.29-.29-3.44-.29-.51,0-1.38.26-1.49.59-.62,1.94-1.06,3.95-1.56,5.95,3.18,1.69,6.47,1.64,9.75,1.46a10.3,10.3,0,0,0,10-8.39c1-4.45-1-8.43-5.63-11a24.35,24.35,0,0,1-4.09-2.55,3.24,3.24,0,0,1,1.11-5.8A23.18,23.18,0,0,1,159.41,138ZM203,158.16a45.18,45.18,0,0,1-1.37,5c-.62,1.57,0,2.25,1.38,2.38a52.35,52.35,0,0,0,9,.56,9.91,9.91,0,0,0,9-8.07c.84-4.87-.95-8.5-5.34-11a28.8,28.8,0,0,1-4.27-2.62c-2.34-1.93-1.78-5,1.1-5.92A22.55,22.55,0,0,1,217,138l1.74-6.58a47.58,47.58,0,0,0-6.26-1c-5.39-.14-10.44,3.29-11.81,7.76-1.43,4.67.68,9.29,5.71,12.54a30.59,30.59,0,0,1,2.85,2c1.13.92,2.15,2,1.56,3.64a3.43,3.43,0,0,1-3.7,2.24C205.78,158.58,204.45,158.33,203,158.16Zm-.66-31.73h-6.64l-2.22,8.74a25.8,25.8,0,0,0,2.7,0c.7-.08,1.77-.13,2-.56C199.62,132,200.89,129.27,202.31,126.43Zm18.16-8.37c2.11,0,3.84,0,5.57,0a1.29,1.29,0,0,0,1-.65c.53-1.84,1-3.71,1.47-5.8-2.05,0-3.85,0-5.64,0a1.26,1.26,0,0,0-.93.71C221.41,114.1,221,115.9,220.47,118.06Z"/><path class="a" d="M68.7,131.35h9.44v33.91H68.79V152.11H61.24v13.11H51.37V131.44h9.72v13H68.7Z"/><path class="a" d="M77.35,118H68v-13H60.68v13H50.89V84.13H60.6V97.21h7.22V84.14h9.53Z"/><path class="a" d="M86.48,84.1h9.57c0,.78,0,1.47,0,2.16q0,10.46,0,20.93c0,2.28,1.27,3.44,3.69,3.42,2.21,0,3.41-1.22,3.41-3.49q0-10.37,0-20.74c0-.7,0-1.4,0-2.25h10v2.09q0,10.37,0,20.74c0,6.08-2.6,9.68-8.49,11.27a17.51,17.51,0,0,1-12.82-1.09c-3.5-1.78-5.59-4.45-5.47-8.76.21-7.36.06-14.73.06-22.09C86.39,85.59,86.45,84.9,86.48,84.1Z"/><path class="a" d="M160.5,105.4v12.53h-10V84.14h10v9.42l.48.2A11.88,11.88,0,0,0,162,92.44c1.46-2.43,2.86-4.9,4.36-7.32.3-.48.9-1.07,1.38-1.09,3.08-.1,6.17-.05,9.61-.05-.49.91-.83,1.57-1.2,2.22-2.3,4.11-4.65,8.19-6.85,12.35a3.25,3.25,0,0,0,0,2.59c2.5,5,5.13,9.83,7.71,14.74.32.61.6,1.25,1,2.16-3.39,0-6.52.06-9.64-.06-.49,0-1.1-.76-1.38-1.31-1.68-3.27-3.27-6.58-4.92-9.86a14.83,14.83,0,0,0-1.07-1.59Z"/><path class="a" d="M107.9,139.18H96.53v5.26H104v7.22c-2.1,0-4.08.06-6.06,0-1.35-.06-1.86.44-1.77,1.78s0,2.55,0,4.08h12.47c-.75,2.58-1.36,4.86-2.1,7.1a1.65,1.65,0,0,1-1.3.75c-6.07,0-12.13,0-18.39,0V131.27h2.85c4.78,0,9.56.08,14.33,0a2.06,2.06,0,0,1,2.46,1.93C106.85,135,107.35,136.9,107.9,139.18Z"/><path class="a" d="M125.17,139.12v5.3h7.3v7.19h-7.56v5.82h12.36L135,165.27H115.42v-34h4.05c4.46,0,8.92.06,13.37,0A1.85,1.85,0,0,1,135,133c.38,1.95.94,3.86,1.51,6.11Z"/><path class="a" d="M203.8,110.24H216c-.72,2.53-1.34,4.8-2,7a1.28,1.28,0,0,1-.93.74c-6.25,0-12.5,0-18.87,0V84h3.3c4.72,0,9.43,0,14.15,0,1.2,0,1.89.23,2.14,1.56.38,2,1,4,1.6,6.31H203.9v5.28h7.29v7.2h-7.4Z"/><path class="a" d="M169.05,165.28V131.43c.63-.06,1.19-.15,1.75-.15,5.23,0,10.46,0,15.69,0a1.89,1.89,0,0,1,2.23,1.75c.41,1.94.91,3.86,1.45,6.13H178.78v5.33h7.55c0,2.23.07,4.22-.06,6.2,0,.36-.81.93-1.27,1-1.67.12-3.35.09-5,0-1,0-1.58.29-1.53,1.42.05,1.34,0,2.69,0,4.33h12.49l-2.31,7.9Z"/><path class="a" d="M43.26,92.34c-7.43.61-10.8,3.35-10.83,8.64s3.23,8.14,10.7,8.83v8.4c-7.88,3.1-19.12-3-20.88-11.6A25.56,25.56,0,0,1,22,97.05c1.58-8.46,7.94-13.34,16.65-13.41,4.64,0,4.64,0,4.64,4.53Z"/><path class="a" d="M43.15,131.16c0,.55.11,1,.11,1.43,0,2.31,0,4.63,0,7.2-3.55-.32-6.89.13-8.86,3.19a12,12,0,0,0-1.87,5.9c-.11,4.91,3.19,7.33,10.6,8.27,0,.41.12.85.12,1.28,0,2.38,0,4.76,0,7.07-5.64,2-14-.63-18-5.47-4.3-5.14-5-14.88-1.47-21S34.86,129.8,43.15,131.16Z"/><path class="a" d="M141.6,109.81c0,2.6.06,5.11-.06,7.61,0,.46-.75,1.14-1.26,1.27-8.77,2.14-18.91-4.77-19.92-13.84a27.48,27.48,0,0,1,.54-9.73c1.75-6.76,8.07-11.28,15.1-11.45a30.86,30.86,0,0,1,4.25.06c.49.06,1.26.73,1.28,1.16.12,2.44.06,4.89.06,7.65-3.66-.43-6.79.38-9,3.37a8.59,8.59,0,0,0-1.64,6C131.35,106.77,134.64,109.29,141.6,109.81Z"/><path class="a" d="M159.41,138a23.18,23.18,0,0,0-4.64.55,3.24,3.24,0,0,0-1.11,5.8,24.35,24.35,0,0,0,4.09,2.55c4.58,2.55,6.64,6.53,5.63,11a10.3,10.3,0,0,1-10,8.39c-3.28.18-6.58.23-9.75-1.46.5-2,.94-4,1.56-5.95.11-.33,1-.59,1.49-.59,1.15,0,2.29.32,3.44.29,1.46,0,2.84-.77,3-2.23a4.32,4.32,0,0,0-1.14-3.19c-1.53-1.45-3.45-2.47-5.13-3.77a10.08,10.08,0,0,1-.77-15.69,12.65,12.65,0,0,1,9.64-3.22,19.23,19.23,0,0,1,4.32.95,1.64,1.64,0,0,1,.76,1.41C160.41,134.66,159.84,136.44,159.41,138Z"/><path class="a" d="M203,158.16c1.48.18,2.8.42,4.14.48a3.43,3.43,0,0,0,3.7-2.24c.58-1.62-.44-2.72-1.56-3.64a30.59,30.59,0,0,0-2.85-2c-5-3.25-7.14-7.86-5.71-12.54,1.37-4.47,6.42-7.9,11.81-7.76a47.58,47.58,0,0,1,6.26,1L217,138a22.55,22.55,0,0,0-4.56.49c-2.88.94-3.43,4-1.1,5.92a28.8,28.8,0,0,0,4.27,2.62c4.39,2.48,6.18,6.12,5.34,11a9.91,9.91,0,0,1-9,8.07,52.35,52.35,0,0,1-9-.56c-1.37-.13-2-.81-1.38-2.38A45.18,45.18,0,0,0,203,158.16Z"/><path class="a" d="M202.31,126.43c-1.42,2.84-2.68,5.55-4.15,8.16-.24.43-1.31.48-2,.56a25.8,25.8,0,0,1-2.7,0l2.22-8.74Z"/><path class="a" d="M220.47,118.06c.53-2.15.94-4,1.46-5.74a1.26,1.26,0,0,1,.93-.71c1.79-.07,3.59,0,5.64,0-.52,2.09-.94,4-1.47,5.8a1.29,1.29,0,0,1-1,.65C224.31,118.09,222.57,118.06,220.47,118.06Z"/><path class="a" d="M226.26,139.36a2.9,2.9,0,1,1-2.89-2.82A2.83,2.83,0,0,1,226.26,139.36Zm-5.07,0a2.18,2.18,0,0,0,2.2,2.25,2.16,2.16,0,0,0,2.15-2.23,2.18,2.18,0,1,0-4.35,0Zm1.74,1.48h-.65V138a5.67,5.67,0,0,1,1.08-.09,1.76,1.76,0,0,1,1,.21.78.78,0,0,1,.28.62.72.72,0,0,1-.58.65v0a.83.83,0,0,1,.52.69,2.14,2.14,0,0,0,.21.7H224a2.41,2.41,0,0,1-.22-.69c-.05-.31-.22-.45-.58-.45h-.31Zm0-1.6h.31c.36,0,.65-.12.65-.41s-.19-.43-.6-.43a1.55,1.55,0,0,0-.36,0Z"/></svg>