<svg xmlns="http://www.w3.org/2000/svg" viewBox="0 0 250 250"><defs><style>.a{fill:#fefefe;}.b{fill:#f8423a;}.c{fill:#f8443c;}.d{fill:#f8433b;}.e{fill:#fe9a36;}.f{fill:#f8453d;}.g{fill:#9acc36;}.h{fill:#292425;}.i{fill:#2a2626;}.j{fill:#ed4339;}.k{fill:#fdfcfc;}.l{fill:#fefefd;}.m{fill:#fdfefd;}</style></defs><title>Fast Food</title><path class="a" d="M206.22,113.93h0a.6.6,0,0,0-.16,0l-14.91,7c-.47.22-.5.53-.3,1a18.6,18.6,0,0,0,3.5,5,1,1,0,0,1-.29.38L190.71,131a1,1,0,0,0,.07,1.68A24.24,24.24,0,0,0,206.21,139c.93,0,1.26-.28,1.3-1.23,0-.11,0-.22,0-.32q.1-4.77.21-9.54.14-6.6.29-13.2a1.09,1.09,0,0,0-.53-1.1,1,1,0,0,0-1.18.2Zm3.8-4a.74.74,0,0,0,.57.24l9.89,1.17,8.45,1c.54.06.72-.06.78-.62s.07-1,.09-1.5a22,22,0,0,0-.62-5.71l.31-.1,7.2-2.21c.71-.22.85-.44.83-1.17a2.28,2.28,0,0,0-.16-.68,28.22,28.22,0,0,0-12.43-15.65c-.87-.53-1.31-.41-1.8.46L214,101.29l-4.1,7.21A1,1,0,0,0,210,109.93Zm-40.94,59.37a29.12,29.12,0,0,0,8.36-1.1,15.7,15.7,0,0,0,7.71-4.72,13.76,13.76,0,0,0,3.21-10,11.52,11.52,0,0,0-3-7.54,19.74,19.74,0,0,0-7-4.59c-2.86-1.22-5.83-2.12-8.76-3.15a17.44,17.44,0,0,1-4-1.76,3.58,3.58,0,0,1-.5-5.73,4.54,4.54,0,0,1,2.54-1.23c4.15-.58,7.91.14,10.85,3.43.15.17.23.32.48,0q2.87-3.08,5.77-6.12c.23-.24.21-.38,0-.63a16.44,16.44,0,0,0-6.5-5,21.86,21.86,0,0,0-14.57-.78,14.38,14.38,0,0,0-8.22,5.57,13.24,13.24,0,0,0-2.27,8.84,11.14,11.14,0,0,0,3.25,7.32,20.08,20.08,0,0,0,7,4.28c2.77,1.11,5.64,1.92,8.44,2.93a15.5,15.5,0,0,1,4,1.94,3.72,3.72,0,0,1,1.35,4.8,5.19,5.19,0,0,1-3.42,2.76,16.45,16.45,0,0,1-8.63.2A12.84,12.84,0,0,1,157,154c-.23-.33-.36-.14-.53,0-2.17,1.83-4.34,3.67-6.52,5.49-.3.25-.3.43-.12.76a16.41,16.41,0,0,0,7.7,6.82A27.33,27.33,0,0,0,169.08,169.31Zm-62.62-49.77a26.43,26.43,0,0,0-9.09,1.53,24.15,24.15,0,0,0-14.19,12.7,24.67,24.67,0,0,0-2,15.09A23.45,23.45,0,0,0,92,165.23c6.53,4.19,13.66,5.11,21.16,3.35a24,24,0,0,0,11.7-6.86c.19-.19.55-.35.16-.75q-3.22-3.3-6.39-6.65c-.23-.24-.33-.21-.54,0a15.63,15.63,0,0,1-11.16,4.86,14,14,0,0,1-11.12-4.52,14.74,14.74,0,0,1-3.7-12.28c.92-7.73,7.47-13.49,16.26-12.55a15.57,15.57,0,0,1,9.67,4.75c.24.24.38.27.63,0q3.14-3.3,6.31-6.58c.3-.31.24-.45,0-.72A24.78,24.78,0,0,0,106.46,119.53ZM62,139.72q0,8.9,0,17.8a17.53,17.53,0,0,0,.49,4.16c.88,3.6,3,6,6.67,6.94a19.05,19.05,0,0,0,6.22.29,12.68,12.68,0,0,0,2.7-.49c.24-.08.39-.18.38-.48q0-4.37,0-8.74c0-.27,0-.39-.36-.33a12.54,12.54,0,0,1-1.44.15,2.77,2.77,0,0,1-3.2-2.38,9.57,9.57,0,0,1-.21-2.25q0-16.37,0-32.75c0-.48-.1-.63-.61-.63q-5,0-10,0c-.5,0-.62.14-.62.62Q62,130.68,62,139.72Zm68.39.28q0,8.74,0,17.48a17.36,17.36,0,0,0,.56,4.48,8.58,8.58,0,0,0,6.2,6.56,16.78,16.78,0,0,0,5.56.47,17,17,0,0,0,3.62-.52.57.57,0,0,0,.51-.66c0-1.74,0-3.49,0-5.23,0-1.12,0-2.23,0-3.35,0-.29,0-.41-.39-.34a9.07,9.07,0,0,1-1.45.14,2.77,2.77,0,0,1-3.17-2.48,10,10,0,0,1-.2-2.09q0-16.43,0-32.86c0-.44-.09-.57-.55-.57q-5.07,0-10.14,0c-.47,0-.55.14-.55.57Q130.35,130.79,130.34,140Zm5.59-24.45a6.64,6.64,0,1,0-6.73-6.64A6.66,6.66,0,0,0,135.93,115.54Zm-68.39,0a6.64,6.64,0,1,0-6.72-6.64A6.65,6.65,0,0,0,67.54,115.54Zm110.06-3.75a24.93,24.93,0,0,0,.37,4.29c.12.8.57,1.16,1.28,1l9-1.61,16.53-3c.67-.12,1-.39,1.06-.89s-.28-.9-.79-1.14L181.68,99.72c-1-.44-1.36-.29-1.78.66A27.62,27.62,0,0,0,177.6,111.79Zm32,1.74a1.53,1.53,0,0,0,.24.79L220.05,137c.37.81.85,1,1.64.62a26.33,26.33,0,0,0,11.07-9.88,1.05,1.05,0,0,0-.38-1.71L212.94,113.9c-.64-.4-1.27-.82-1.93-1.19A.94.94,0,0,0,209.55,113.54Zm-14.43,51.88h.1c.25.89.51,1.79.76,2.68.07.27.12.49.5.48s.39-.22.46-.46c.25-.91.52-1.81.77-2.72a25,25,0,0,1,.08,2.79c0,.31.1.39.4.39s.39-.11.39-.41c0-1.22,0-2.45,0-3.67,0-.17.14-.53-.22-.47s-.93-.36-1.12.34c-.24.88-.49,1.75-.77,2.75l-.64-2.3c-.24-.84-.24-.83-1.1-.82-.32,0-.38.12-.38.41,0,1.26,0,2.52,0,3.78,0,.32.1.39.4.39s.39-.11.39-.41C195.11,167.25,195.12,166.33,195.12,165.42Zm-2.59,1.24c0-.27,0-.54,0-.81a2.3,2.3,0,0,1,.07-1c.14-.25.56-.08.86-.09s.25-.24.26-.42,0-.35-.27-.35c-.9,0-1.8,0-2.7,0-.2,0-.27.06-.3.27-.07.49.2.55.56.49.52-.08.67.11.64.63,0,.93,0,1.87,0,2.8,0,.39.18.38.46.39s.47,0,.44-.4S192.53,167.16,192.53,166.65Z"/><path class="b" d="M12.47,142.1a18.81,18.81,0,0,0,.41-2.36c2.06-9.77,7.95-16.14,17.41-19.07A25.85,25.85,0,0,1,49,121.83a24.62,24.62,0,0,1,7.68,5.56c.14.14.3.25.08.48l-6.74,7a18.53,18.53,0,0,0-4-3.17c-5.1-2.89-12.71-2.82-17.59,1.63a14.13,14.13,0,0,0-4.49,8.15,15.18,15.18,0,0,0,1.92,11A13.5,13.5,0,0,0,36,159a15.66,15.66,0,0,0,13.57-4.63c.28-.28.42-.34.73,0q3.12,3.29,6.28,6.53c.24.25.24.39,0,.65a24.33,24.33,0,0,1-14.34,7.5A26.53,26.53,0,0,1,27,167a23.93,23.93,0,0,1-14.19-18.53,6.36,6.36,0,0,0-.3-1.66Z"/><path class="c" d="M193.29,90.93a20.35,20.35,0,0,0-1.42-2.09c-.38-.59-.84-1.13-1.24-1.71a1.16,1.16,0,0,1,.42-1.58,27.54,27.54,0,0,1,11.49-4.67,6,6,0,0,0,1.84-.31h4.75c.07.19.25.09.37.13a.92.92,0,0,1,.72,1c-.09,1-.21,2-.31,3-.08.85-.15,1.7-.24,2.55-.14,1.45-.28,2.91-.42,4.36-.12,1.29-.22,2.59-.34,3.89s-.31,2.69-.41,4c-.06.84-.15,1.67-.23,2.5-.13,1.44-.26,2.87-.42,4.3-.06.49-.1,1-.13,1.49a1,1,0,0,1-1.39,1c.64-.06.76-.23.58-.87-.27-1-.65-2-.83-3,.15-1.63.29-3.25.45-4.88q.41-4.29.82-8.58c.27-2.81.52-5.61.81-8.42.06-.56-.14-.65-.63-.65a27.79,27.79,0,0,0-4.78.34,25.39,25.39,0,0,0-9.62,3.71c-.29.18-.3.3-.1.57.66.89,1.3,1.81,1.95,2.71A18.08,18.08,0,0,1,193.29,90.93Z"/><path class="b" d="M169.08,169.31A27.33,27.33,0,0,1,157.54,167a16.41,16.41,0,0,1-7.7-6.82c-.18-.32-.19-.5.12-.76,2.18-1.82,4.35-3.66,6.52-5.49.18-.15.3-.34.53,0a12.84,12.84,0,0,0,8.18,5.17,16.45,16.45,0,0,0,8.63-.2,5.19,5.19,0,0,0,3.42-2.76,3.72,3.72,0,0,0-1.35-4.8,15.5,15.5,0,0,0-4-1.94c-2.8-1-5.68-1.82-8.44-2.93a20.08,20.08,0,0,1-7-4.28,11.14,11.14,0,0,1-3.25-7.32,13.24,13.24,0,0,1,2.27-8.84,14.38,14.38,0,0,1,8.22-5.57,21.86,21.86,0,0,1,14.57.78,16.44,16.44,0,0,1,6.5,5c.2.24.21.39,0,.63q-2.9,3-5.77,6.12c-.25.27-.33.12-.48,0-2.94-3.28-6.7-4-10.85-3.43a4.54,4.54,0,0,0-2.54,1.23,3.58,3.58,0,0,0,.5,5.73,17.44,17.44,0,0,0,4,1.76c2.93,1,5.9,1.93,8.76,3.15a19.74,19.74,0,0,1,7,4.59,11.52,11.52,0,0,1,3,7.54,13.76,13.76,0,0,1-3.21,10,15.7,15.7,0,0,1-7.71,4.72A29.12,29.12,0,0,1,169.08,169.31Z"/><path class="b" d="M106.46,119.53A24.78,24.78,0,0,1,125,127.3c.26.27.32.41,0,.72q-3.18,3.26-6.31,6.58c-.25.27-.39.24-.63,0a15.57,15.57,0,0,0-9.67-4.75c-8.78-.94-15.34,4.82-16.26,12.55a14.74,14.74,0,0,0,3.7,12.28,14,14,0,0,0,11.12,4.52,15.63,15.63,0,0,0,11.16-4.86c.21-.21.31-.24.54,0q3.18,3.34,6.39,6.65c.4.41,0,.56-.16.75a24,24,0,0,1-11.7,6.86c-7.5,1.77-14.63.84-21.16-3.35a23.45,23.45,0,0,1-10.79-16.37,24.67,24.67,0,0,1,2-15.09,24.15,24.15,0,0,1,14.19-12.7A26.43,26.43,0,0,1,106.46,119.53Z"/><path class="d" d="M62,139.72q0-9,0-18.07c0-.49.12-.63.62-.62q5,0,10,0c.51,0,.61.15.61.63q0,16.37,0,32.75a9.57,9.57,0,0,0,.21,2.25,2.77,2.77,0,0,0,3.2,2.38,12.54,12.54,0,0,0,1.44-.15c.32-.06.36.07.36.33q0,4.37,0,8.74c0,.3-.14.41-.38.48a12.68,12.68,0,0,1-2.7.49,19.05,19.05,0,0,1-6.22-.29c-3.68-.9-5.78-3.34-6.67-6.94a17.53,17.53,0,0,1-.49-4.16Q61.94,148.62,62,139.72Z"/><path class="b" d="M130.34,140q0-9.2,0-18.4c0-.43.08-.57.55-.57q5.07,0,10.14,0c.46,0,.55.13.55.57q0,16.43,0,32.86a10,10,0,0,0,.2,2.09,2.77,2.77,0,0,0,3.17,2.48,9.07,9.07,0,0,0,1.45-.14c.35-.07.39.05.39.34,0,1.12,0,2.23,0,3.35,0,1.74,0,3.49,0,5.23a.57.57,0,0,1-.51.66,17,17,0,0,1-3.62.52,16.78,16.78,0,0,1-5.56-.47,8.58,8.58,0,0,1-6.2-6.56,17.36,17.36,0,0,1-.56-4.48Q130.34,148.74,130.34,140Z"/><path class="d" d="M135.93,115.54a6.64,6.64,0,1,1,6.67-6.63A6.68,6.68,0,0,1,135.93,115.54Z"/><path class="d" d="M67.54,115.54a6.64,6.64,0,1,1,6.67-6.63A6.67,6.67,0,0,1,67.54,115.54Z"/><path class="e" d="M177.6,111.79a27.62,27.62,0,0,1,2.3-11.42c.41-.95.83-1.1,1.78-.66L205,110.49c.51.23.85.54.79,1.14s-.39.77-1.06.89l-16.53,3-9,1.61c-.71.13-1.16-.23-1.28-1A24.93,24.93,0,0,1,177.6,111.79Zm24-.71-.46-.23q-9.58-4.43-19.16-8.86c-.41-.19-.57-.15-.73.28a26.68,26.68,0,0,0-1.52,6.21,27.2,27.2,0,0,0,0,5.92c0,.35,0,.65.61.54,3.68-.7,7.38-1.34,11.07-2Z"/><path class="e" d="M209.55,113.54a.94.94,0,0,1,1.46-.83c.66.37,1.29.79,1.93,1.19L232.38,126a1.05,1.05,0,0,1,.38,1.71,26.33,26.33,0,0,1-11.07,9.88c-.79.38-1.27.19-1.64-.62l-10.27-22.67A1.53,1.53,0,0,1,209.55,113.54Zm3.21,2.57c.09.23.11.3.14.36q4.21,9.3,8.41,18.6c.21.47.41.35.72.18a24.69,24.69,0,0,0,8.41-7.52c.26-.37.17-.51-.17-.73q-6.6-4.09-13.18-8.21Z"/><path class="f" d="M206.31,113.85a1,1,0,0,1,1.18-.2,1.09,1.09,0,0,1,.53,1.1q-.15,6.6-.29,13.2-.1,4.77-.21,9.54c0,.11,0,.22,0,.32,0,.94-.37,1.27-1.3,1.23a24.24,24.24,0,0,1-15.43-6.32,1,1,0,0,1-.07-1.68l3.37-3.71a1,1,0,0,0,.29-.38,2.13,2.13,0,0,0,.67-.7c.08-.07.17-.14.24-.22l8.9-9.78c.07-.07.18-.13.1-.27h0c.16.06.17-.08.23-.16a15.48,15.48,0,0,0,1.72-1.89h0Zm-2.14,5.38h0c-.2,0-.28.21-.39.34-1.55,1.69-3.11,3.39-4.64,5.1-.87,1-1.82,1.89-2.6,2.94a2.31,2.31,0,0,0-.68.71c-1,1.07-2,2.15-3,3.2-.25.26-.12.38.09.54a22.47,22.47,0,0,0,12.19,5c.29,0,.41,0,.41-.35,0-2.62.12-5.24.17-7.87,0-1.33.05-2.66.08-4q.07-3.5.14-7a1.32,1.32,0,0,0,0-.64L204.29,119Z"/><path class="g" d="M210,109.93a1,1,0,0,1-.14-1.43l4.1-7.21,9.16-16.11c.49-.87.93-1,1.8-.46a28.22,28.22,0,0,1,12.43,15.65,2.28,2.28,0,0,1,.16.68c0,.73-.12,1-.83,1.17l-7.2,2.21-.31.1-.62-1.9c2.13-.64,4.25-1.3,6.39-1.92.38-.11.41-.26.28-.6a26.42,26.42,0,0,0-10.1-12.95c-.63-.43-.63-.42-1,.22l-11.05,19.42c-.08.14-.21.26-.17.44h0c-.11,0-.1.09-.12.17-.8.56-1.59,1.14-2.4,1.69A.72.72,0,0,0,210,109.93Z"/><path class="h" d="M206.1,105c.18,1,.56,2,.83,3,.17.64.06.81-.58.87L188.69,97.65c-.85-.54-.86-.61-.28-1.46a21.82,21.82,0,0,1,4.51-4.88c.14-.11.31-.19.37-.38A18.1,18.1,0,0,0,195,89.83a23.15,23.15,0,0,1,5.08-2.28c.74-.22.85-.17,1.06.59q1.71,6.21,3.58,12.38C205.17,102,205.54,103.56,206.1,105Zm-1.83,1.24c-.06.13.07.12.12.17a5.7,5.7,0,0,0,1.26.73l-1.27-4.29c-1.35-4.65-2.76-9.28-4-13.95-.06-.22-.06-.44-.44-.3a20.7,20.7,0,0,0-4.32,2,9.55,9.55,0,0,0-1.59,1.1,19.9,19.9,0,0,0-4.51,4.58c-.28.38-.2.52.17.76q7.09,4.48,14.17,9c.14.09.24.26.45.19Z"/><path class="i" d="M228.57,102.63l.62,1.9a22,22,0,0,1,.62,5.71c0,.5,0,1-.09,1.5s-.24.68-.78.62l-8.45-1-9.89-1.17a.74.74,0,0,1-.57-.24.72.72,0,0,1,.39-.84c.81-.55,1.6-1.12,2.4-1.69.06,0,.17,0,.12-.17h0c.21.07.31-.12.44-.21l12.11-8.43c.57-.4.74-.36,1.12.21A22.68,22.68,0,0,1,228.57,102.63Zm-12.42,3.73a.16.16,0,0,0-.17.12c-.91.52-1.73,1.18-2.61,1.77-.48.32-.95.66-1.54,1.08l1.3.15,6,.73,9.25,1.11c.23,0,.35,0,.37-.28a17.75,17.75,0,0,0-.61-6.23,7.48,7.48,0,0,0-.61-1.82,15.12,15.12,0,0,0-1.47-3.1c-.18-.32-.31-.32-.6-.12-2.1,1.48-4.21,2.94-6.31,4.41-1,.72-2.09,1.38-3.06,2.18Z"/><path class="i" d="M206.22,113.92a15.48,15.48,0,0,1-1.72,1.89c-.09,0-.21,0-.23.16h0c-.16-.06-.27.06-.4.11q-5.83,2.75-11.66,5.49c-.31.15-.32.26-.18.54a18.8,18.8,0,0,0,3,4.12,2.13,2.13,0,0,1-.67.7,18.6,18.6,0,0,1-3.5-5c-.21-.43-.18-.74.3-1l14.91-7A.6.6,0,0,1,206.22,113.92Z"/><path class="j" d="M195.12,165.42c0,.92,0,1.83,0,2.75,0,.3-.07.41-.39.41s-.4-.07-.4-.39c0-1.26,0-2.52,0-3.78,0-.29.06-.4.38-.41.86,0,.86,0,1.1.82l.64,2.3c.28-1,.53-1.87.77-2.75.19-.7.74-.27,1.12-.34s.22.3.22.47c0,1.22,0,2.45,0,3.67,0,.3-.07.41-.39.41s-.41-.08-.4-.39a25,25,0,0,0-.08-2.79c-.26.91-.52,1.81-.77,2.72-.07.24-.1.45-.46.46s-.43-.21-.5-.48c-.25-.9-.5-1.79-.76-2.68Z"/><path class="j" d="M192.53,166.65c0,.5,0,1,0,1.51s-.14.41-.44.4-.47,0-.46-.39c0-.93,0-1.87,0-2.8,0-.53-.13-.72-.64-.63-.36.06-.64,0-.56-.49,0-.21.1-.27.3-.27.9,0,1.8,0,2.7,0,.27,0,.28.15.27.35s.07.41-.26.42-.72-.15-.86.09a2.3,2.3,0,0,0-.07,1C192.53,166.12,192.53,166.38,192.53,166.65Z"/><path class="i" d="M206.31,113.85l-.09.08Z"/><path class="k" d="M206.1,105c-.56-1.47-.93-3-1.38-4.51q-1.85-6.17-3.58-12.38c-.21-.75-.32-.81-1.06-.59A23.15,23.15,0,0,0,195,89.83c-.65-.91-1.28-1.82-1.95-2.71-.19-.26-.19-.38.1-.57a25.39,25.39,0,0,1,9.62-3.71,27.79,27.79,0,0,1,4.78-.34c.49,0,.68.1.63.65-.29,2.8-.54,5.61-.81,8.42s-.55,5.72-.82,8.58C206.39,101.77,206.25,103.4,206.1,105Z"/><path class="l" d="M201.55,111.08l-10.19,1.85c-3.69.67-7.39,1.3-11.07,2-.59.11-.57-.19-.61-.54a27.2,27.2,0,0,1,0-5.92,26.68,26.68,0,0,1,1.52-6.21c.16-.43.32-.47.73-.28q9.57,4.45,19.16,8.86Z"/><path class="l" d="M212.76,116.1l4.33,2.69q6.59,4.11,13.18,8.21c.35.21.44.36.17.73a24.69,24.69,0,0,1-8.41,7.52c-.31.17-.51.29-.72-.18q-4.18-9.31-8.41-18.6C212.87,116.4,212.84,116.33,212.76,116.1Z"/><path class="m" d="M206,117.8q-.07,3.5-.14,7c0,1.33,0,2.66-.08,4-.06,2.62-.13,5.24-.17,7.87,0,.33-.12.38-.41.35A22.47,22.47,0,0,1,193,132c-.2-.16-.33-.28-.09-.54,1-1.06,2-2.13,3-3.2a17.17,17.17,0,0,0,3.69,2.3c.61.28.77.23,1-.38.87-2,1.74-4.05,2.62-6.07S205.06,119.92,206,117.8Z"/><path class="k" d="M195,126.23a18.8,18.8,0,0,1-3-4.12c-.15-.28-.14-.4.18-.54q5.83-2.73,11.66-5.49c.12-.06.24-.17.4-.11s0,.19-.1.27l-8.9,9.78C195.2,126.09,195.12,126.16,195,126.23Z"/><path class="k" d="M196.55,127.59c.79-1,1.73-2,2.6-2.94,1.53-1.71,3.09-3.4,4.64-5.1.12-.13.19-.31.39-.34s0,.13,0,.19q-2.13,5-4.26,9.92c-.13.32-.27.23-.48.12A18.84,18.84,0,0,1,196.55,127.59Z"/><path class="i" d="M196.55,127.59a18.84,18.84,0,0,0,2.89,1.86c.21.11.35.19.48-.12q2.12-5,4.26-9.92c0-.06.06-.13,0-.19h0c.13,0,.11-.1.11-.18l1.66-1.88a1.32,1.32,0,0,1,0,.64q-1.39,3.17-2.77,6.35c-.88,2-1.74,4-2.62,6.07-.26.6-.42.66-1,.38a17.17,17.17,0,0,1-3.69-2.3A2.31,2.31,0,0,1,196.55,127.59Z"/><path class="k" d="M204.27,116c0-.14.14-.13.23-.16S204.43,116,204.27,116Z"/><path class="k" d="M204.29,119c0,.08,0,.18-.11.18Z"/><path class="m" d="M228.57,102.63a22.68,22.68,0,0,0-2-3.81c-.38-.57-.55-.61-1.12-.21L213.37,107c-.13.09-.23.28-.44.21,0-.18.09-.3.17-.44l11.05-19.42c.37-.64.37-.65,1-.22a26.42,26.42,0,0,1,10.1,12.95c.13.34.1.49-.28.6C232.82,101.34,230.7,102,228.57,102.63Z"/><path class="m" d="M212.93,107.24c.05.12-.06.13-.12.17S212.82,107.24,212.93,107.24Z"/><path class="k" d="M204.27,106.28c-.21.07-.32-.11-.45-.19q-7.09-4.49-14.17-9c-.37-.23-.45-.37-.17-.76A19.9,19.9,0,0,1,194,91.77q4.64,6.5,9.27,13A8,8,0,0,1,204.27,106.28Z"/><path class="k" d="M195.59,90.66a20.7,20.7,0,0,1,4.32-2c.38-.14.38.08.44.3,1.28,4.67,2.68,9.3,4,13.95-.15-.18-.31-.35-.45-.53Z"/><path class="f" d="M195.59,90.66l8.35,11.68c.13.19.3.36.45.53l1.27,4.29a5.7,5.7,0,0,1-1.26-.73c0-.07,0-.15-.12-.17h0a8,8,0,0,0-1-1.51q-4.63-6.51-9.27-13A9.54,9.54,0,0,1,195.59,90.66Z"/><path class="k" d="M204.27,106.26c.1,0,.1.1.12.17S204.21,106.39,204.27,106.26Z"/><path class="k" d="M228.19,104.81a17.75,17.75,0,0,1,.61,6.23c0,.29-.14.3-.37.28l-9.25-1.11-6-.73c.18-.07.36-.14.55-.2Z"/><path class="g" d="M228.19,104.81l-14.5,4.46c-.19.06-.37.13-.55.2l-1.3-.15c.59-.41,1.06-.76,1.54-1.08.87-.58,1.69-1.24,2.61-1.77.07,0,.17,0,.17-.12h0c.18.09.35,0,.51-.05l4.25-1.3,6.67-2A7.48,7.48,0,0,1,228.19,104.81Z"/><path class="k" d="M227.59,103l-6.67,2-4.25,1.3c-.17.05-.33.14-.51.05,1-.79,2-1.46,3.06-2.18,2.1-1.48,4.22-2.93,6.31-4.41.29-.2.42-.2.6.12A15.12,15.12,0,0,1,227.59,103Z"/><path class="k" d="M216.15,106.36c0,.13-.1.1-.17.12A.16.16,0,0,1,216.15,106.36Z"/></svg>