<svg xmlns="http://www.w3.org/2000/svg" viewBox="0 0 250 250"><title>CR</title><path d="M185.12,156.77l-.57,0H65.43l-.57,0a.09.09,0,0,0,0-.08h0a1.15,1.15,0,0,0,.24-.07l4.31-2.34,8-4.32,12.92-7,8.08-4.36,12.2-6.62,5.26-2.85L125.3,124l.95.52,8.69,4.76,5.71,3.12,8.6,4.71,5.8,3.16,8.32,4.57,6,3.28,8.65,4.74c1.69.93,3.36,1.88,5.07,2.78a7.2,7.2,0,0,0,2,1h0Z" style="fill:#e31d25"/><path d="M125.3,124l-9.43,5.11L110.61,132l-12.2,6.62-8.08,4.36L77.4,150l-8,4.32-4.31,2.34a1.15,1.15,0,0,1-.24.07c0-.21.15-.34.24-.5l59.8-95.73c.1-.16.22-.3.33-.45h0s0,0,0,0Q125.3,92,125.3,124Z" style="fill:#f37216"/><path d="M125.3,124q0-32,0-64c.18.07.22.26.31.4l59.26,95.7c.09.14.16.3.23.45a7.2,7.2,0,0,1-2-1c-1.7-.9-3.38-1.85-5.07-2.78l-8.65-4.74-6-3.28-8.32-4.57-5.8-3.16-8.6-4.71-5.71-3.12-8.69-4.76Z" style="fill:#b5242a"/><path d="M165.83,190a22.78,22.78,0,0,1-5.48-.63,9.42,9.42,0,0,1-7.28-7.43,22.78,22.78,0,0,1,.08-10.7,9.13,9.13,0,0,1,7.22-7.15,23.15,23.15,0,0,1,11.16.08,9.46,9.46,0,0,1,7.31,7.42,21.41,21.41,0,0,1-.07,10.49c-1.08,4.15-3.87,6.53-8,7.44A24.8,24.8,0,0,1,165.83,190Zm-.21-6.38a11.85,11.85,0,0,0,1.91-.11,5.47,5.47,0,0,0,5-4.66,11.63,11.63,0,0,0,0-4.67,5.42,5.42,0,0,0-4.65-4.44,13.19,13.19,0,0,0-3.7-.09,5.33,5.33,0,0,0-5,4.49,11.49,11.49,0,0,0,0,4.92,5.23,5.23,0,0,0,4.35,4.35A9.7,9.7,0,0,0,165.62,183.62Z" style="fill:#137bc9"/><path d="M144.31,174.11h5.22c.3,0,.48,0,.47.41,0,2.24.06,4.48-.05,6.72a7.65,7.65,0,0,1-6.44,7.64,22.63,22.63,0,0,1-7.87.16,19.94,19.94,0,0,1-2.95-.52,8.18,8.18,0,0,1-5.73-5.93,20.25,20.25,0,0,1-.38-10,15.51,15.51,0,0,1,.95-3.21,8.58,8.58,0,0,1,7-5.54,27.8,27.8,0,0,1,10.83.38,11.55,11.55,0,0,1,1.86.62.58.58,0,0,1,.39.63c0,1.6-.07,3.21-.08,4.81,0,.41-.14.4-.46.31a28.32,28.32,0,0,0-8.51-1.2,9.53,9.53,0,0,0-1.84.24,4.25,4.25,0,0,0-3.43,3.51,18.72,18.72,0,0,0-.36,6.06,4.74,4.74,0,0,0,4.27,4.37,13.48,13.48,0,0,0,4.22-.08,2.39,2.39,0,0,0,2-1.69,6.66,6.66,0,0,0,.32-1.93c0-.36-.07-.47-.45-.47-1.4,0-2.79,0-4.19,0-.41,0-.52-.12-.52-.52q0-2.17,0-4.34c0-.4.13-.49.5-.48C140.83,174.13,142.57,174.11,144.31,174.11Z" style="fill:#137bca"/><path d="M92.18,180.6c0,2.09,0,4.1,0,6.12,0,.34-.19.44-.43.55a20.44,20.44,0,0,1-6.25,1.89,17.84,17.84,0,0,1-8-.6,9.83,9.83,0,0,1-6.92-7.67,18.47,18.47,0,0,1,.22-9,10.57,10.57,0,0,1,9.17-8.18,23.85,23.85,0,0,1,10.23.7l.15,0c1.85.6,1.85.6,1.85,2.54,0,1.45,0,2.9,0,4.35,0,.41,0,.52-.46.29a16.09,16.09,0,0,0-7.4-2,11.26,11.26,0,0,0-2.87.32,4.85,4.85,0,0,0-3.31,2.74,8.56,8.56,0,0,0-.39,6.87,4.79,4.79,0,0,0,4.14,3.29,15.74,15.74,0,0,0,9.41-1.68A8.81,8.81,0,0,0,92.18,180.6Z" style="fill:#137bc9"/><path d="M115,163.93c3.22,0,6.45,0,9.67,0,.37,0,.5.08.5.48q0,2.56,0,5.12c0,.38-.09.5-.48.49-1.78,0-3.55,0-5.33,0-.67,0-.67,0-.67.66q0,8.82,0,17.63c0,.45-.08.62-.58.61-2,0-4,0-6,0-.42,0-.54-.09-.54-.53,0-5.95,0-11.89,0-17.84,0-.51-.13-.62-.62-.61-1.88,0-3.76,0-5.64,0-.36,0-.51-.06-.5-.47q0-2.53,0-5.07c0-.41.13-.47.5-.47C108.52,163.93,111.74,163.93,115,163.93Z" style="fill:#137bc9"/><path d="M102.73,176.36c0,4,0,7.93,0,11.9,0,.43-.12.54-.54.54q-3.05,0-6.1,0c-.4,0-.48-.11-.48-.49q0-12,0-23.9c0-.38.09-.49.49-.49q3.08,0,6.16,0c.39,0,.49.11.48.49C102.72,168.39,102.73,172.38,102.73,176.36Z" style="fill:#137bca"/><path d="M185.12,156.77v-.16C185.18,156.65,185.26,156.7,185.12,156.77Z" style="fill:#b5242a"/><path d="M64.86,156.68a.09.09,0,0,1,0,.08l-.07,0Z" style="fill:#f37216"/></svg>