<svg xmlns="http://www.w3.org/2000/svg" viewBox="0 0 250 250"><title>Grocery</title><path d="M147.45,101.45h36.69a2.25,2.25,0,0,1,2.25,2.25v15.14a2.24,2.24,0,0,1-2.24,2.24H147.45a2.24,2.24,0,0,1-2.24-2.24V103.69A2.24,2.24,0,0,1,147.45,101.45Z" style="fill:#231f20"/><path d="M63.13,101.45h36.7a2.24,2.24,0,0,1,2.24,2.24v15.14a2.25,2.25,0,0,1-2.25,2.25H63.13a2.25,2.25,0,0,1-2.25-2.25V103.69A2.24,2.24,0,0,1,63.13,101.45Z" style="fill:#231f20"/><path d="M183.62,106.81c-.06-2-4.56-3.71-23.32-3.32H159l-1,0c-10.38.34-11.5,2.74-11.5,4s.44,1.78,2.46,2.43c.09,3.77.43,10.1.43,10.1l16.61.08h1.87l13.65.09L181,109.61l0-.28S183.68,108.83,183.62,106.81Z" style="fill:#fce32c"/><rect x="103.05" y="101.45" width="41.18" height="19.63" rx="2.24" ry="2.24" style="fill:#231f20"/><path d="M57.82,138.13a49.08,49.08,0,0,0-6.37-.45c-3.36,0-5.4.67-5.4,3.22s2.28,3,5.33,3a49,49,0,0,0,6.44-.57v5.42a46.37,46.37,0,0,1-9,1c-9.25,0-12.81-3.08-12.81-9.59,0-5.87,3.39-9.14,12.6-9.14a49.82,49.82,0,0,1,9.17,1.18Z" style="fill:#231f20"/><path d="M70.63,131.11c9.25,0,12.88,2.17,12.88,8.74s-3.36,10-12.88,10-12.88-3.35-12.88-10S61.39,131.11,70.63,131.11Zm3.84,9.74c0-2.2-.52-3.67-3.84-3.67s-3.84,1.47-3.84,3.67c0,2.65,1.25,3.8,3.84,3.8S74.48,143.5,74.48,140.85Z" style="fill:#231f20"/><path d="M83.72,131.56h18.15c3.95,0,6.82.73,6.82,4.5,0,2.95-2.42,4-6.61,4.35v.05c4.43,0,6.86,1,6.86,4.3,0,3.77-3.22,4.65-9.39,4.65H83.72Zm9,7.32H97.5c1.46,0,2.39-.63,2.39-1.4,0-1-.87-1.42-2.46-1.42H92.76Zm0,6.35H97c2.15,0,3.08-.3,3.08-1.43,0-.92-.62-1.45-2.56-1.45H92.76Z" style="fill:#231f20"/><path d="M121.45,131.11c9.25,0,12.88,2.17,12.88,8.74s-3.36,10-12.88,10-12.88-3.35-12.88-10S112.21,131.11,121.45,131.11Zm3.84,9.74c0-2.2-.52-3.67-3.84-3.67s-3.84,1.47-3.84,3.67c0,2.65,1.25,3.8,3.84,3.8S125.3,143.5,125.3,140.85Z" style="fill:#231f20"/><path d="M134.54,131.56H151c4.85,0,8.9.75,8.9,5.15,0,3.37-2.21,5-7,5.12l7.93,7.57h-11l-5.68-6.25h-.1v6.25h-9.52Zm9.52,8.37h3c1.87,0,3.36-.25,3.36-2,0-1.15-.76-1.7-2.88-1.7h-3.46Z" style="fill:#231f20"/><path d="M160,131.56h10.8l5.54,9.87h.07l-.62-9.87h8.86V149.4h-9.87l-6.48-10.92h-.07l.62,10.92H160Z" style="fill:#231f20"/><path d="M188,131.56h5.73l-2.87,7.62h-5.61Z" style="fill:#231f20"/><path d="M194.26,144.77a62.71,62.71,0,0,0,8.59.4c2,0,2.91-.2,2.91-1.2s-.45-1.22-2.49-1.22h-2.18c-4.47,0-7.79-.57-7.79-5.87,0-5.1,5.4-5.77,10.94-5.77,3.64,0,7.9.38,10,.6V137c-2.32-.12-4.85-.37-8-.37-2.87,0-3.67.32-3.67,1.25,0,.68.48,1.07,2.6,1.07,7.48,0,9.87.68,9.87,5.1,0,5.12-4.26,5.8-10.39,5.8-3.43,0-7-.2-10.39-.5Z" style="fill:#231f20"/><rect x="35.04" y="123.91" width="178.99" height="5.23" style="fill:#231f20"/><path d="M82.89,106.87a12.61,12.61,0,0,0-7-2.15c-4.17,0-6.92,2.8-6.92,5.42s5.45,10.07,10.25,10.07a3.39,3.39,0,0,0,2.71-1.46,8.31,8.31,0,0,0,4.65,1.37c2.33,0,4.36-1.63,6.2-3.55s3.07-3.75,3.07-5.94c0-4.55-4.82-5.47-7.68-5.47a7.09,7.09,0,0,0-4.52,1.5s-1.46-3.11-3.38-4a3.83,3.83,0,0,0-.73.38S82.36,104.53,82.89,106.87Z" style="fill:#209e5c"/><path d="M106.06,106.66l3-3.58s7.32,1.26,10.89,2.2,10.52,5,10.52,9.25a4.85,4.85,0,0,1-4.72,4.93c-.73,0-6.12-.09-8.39-.09s-4,.07-4.72.07a2.33,2.33,0,0,1-2.45-2.27c0-1.82,2.06-4.53,2.06-6.61S108,107,106.06,106.66Z" style="fill:#fff"/><path d="M107.75,106.31a21.15,21.15,0,0,1,2.41-2.43c9.65,2.27,15.1,3.67,15.1,5.82,0,.56-.75.82-.75,1.12s4.79.84,4.79,3.86a3.42,3.42,0,0,1-3.43,3.58,3.59,3.59,0,0,1-2.66-1.94,4.29,4.29,0,0,0-1.82-2.2,2.57,2.57,0,0,0-2,.09c-.21.14-.21.28.14.28s2.78,1,2.76,2.31-1.15,2.1-2.66,2.1-1.87-.56-2.15-.91-.4-.12-.63,0a3.68,3.68,0,0,1-2.22.63c-1.36,0-3-1.07-3-2.29a3.62,3.62,0,0,1,2.55-3c1.57-.65,2.13-.82.54-1.17s-1.52-1.26-1.12-1.61.23-1.43-.7-2.08A18.63,18.63,0,0,0,107.75,106.31Z" style="fill:#da283d"/><path d="M129,119.49h9.85c1.68,0,3.12-2.68,3.12-5.23s-2.06-7-10.1-11.09H114.25s8.16,1.37,12.78,4.61S134.13,115.56,129,119.49Z" style="fill:#da283d"/><circle cx="91.5" cy="115.94" r="0.14" style="fill:#231f20"/><circle cx="91.41" cy="114.63" r="0.14" style="fill:#231f20"/><circle cx="93.08" cy="114.15" r="0.13" style="fill:#231f20"/><circle cx="91.42" cy="113.38" r="0.13" style="fill:#231f20"/><circle cx="92.13" cy="111.91" r="0.13" style="fill:#231f20"/><circle cx="90.36" cy="111.61" r="0.13" style="fill:#231f20"/><circle cx="93.55" cy="111.87" r="0.13" style="fill:#231f20"/><circle cx="94.59" cy="111.33" r="0.13" style="fill:#231f20"/><circle cx="93.2" cy="109.32" r="0.13" style="fill:#231f20"/><circle cx="90.33" cy="108.14" r="0.13" style="fill:#231f20"/><circle cx="92.54" cy="110.41" r="0.15" style="fill:#231f20"/><circle cx="92.46" cy="108.57" r="0.15" style="fill:#231f20"/><circle cx="91.36" cy="110.8" r="0.19" style="fill:#231f20"/><circle cx="91.43" cy="109.79" r="0.17" style="fill:#231f20"/><circle cx="92.85" cy="112.91" r="0.08" style="fill:#231f20"/><circle cx="94.26" cy="110.3" r="0.08" style="fill:#231f20"/><circle cx="92.46" cy="107.52" r="0.08" style="fill:#231f20"/><circle cx="91.46" cy="106.54" r="0.08" style="fill:#231f20"/><circle cx="91.12" cy="112.61" r="0.13" style="fill:#231f20"/><circle cx="139.9" cy="116.28" r="0.15" transform="translate(-40.29 91.3) rotate(-31.84)" style="fill:#231f20"/><circle cx="139.07" cy="115.13" r="0.15" transform="translate(-39.78 90.51) rotate(-31.78)" style="fill:#231f20"/><circle cx="139.96" cy="114.16" r="0.14" transform="translate(-39.18 91.1) rotate(-31.87)" style="fill:#231f20"/><circle cx="138.38" cy="113.98" r="0.14" transform="translate(-39.2 89.4) rotate(-31.6)" style="fill:#231f20"/><circle cx="138.2" cy="112.23" r="0.14" transform="translate(-38.41 89.78) rotate(-31.83)" style="fill:#231f20"/><circle cx="136.44" cy="112.6" r="0.14" transform="translate(-38.71 87.73) rotate(-31.45)" style="fill:#231f20"/><circle cx="139.24" cy="111.98" r="0.14" transform="translate(-38.03 89.54) rotate(-31.59)" style="fill:#231f20"/><circle cx="140.12" cy="110.32" r="0.14" transform="translate(-37.02 89.75) rotate(-31.59)" style="fill:#231f20"/><circle cx="137.78" cy="109.74" r="0.14" transform="translate(-37.05 88.29) rotate(-31.54)" style="fill:#231f20"/><circle cx="134.6" cy="109.36" r="0.14" transform="translate(-37.44 87.5) rotate(-31.85)" style="fill:#231f20"/><circle cx="137.42" cy="110.88" r="0.16" transform="translate(-37.8 89.08) rotate(-31.81)" style="fill:#231f20"/><circle cx="136.31" cy="109.33" r="0.16" transform="translate(-37.21 88.72) rotate(-31.96)" style="fill:#231f20"/><circle cx="136.86" cy="111.65" r="0.21" transform="translate(-38.12 87.65) rotate(-31.4)" style="fill:#231f20"/><circle cx="136.36" cy="110.69" r="0.18" transform="translate(-37.81 88.08) rotate(-31.67)" style="fill:#231f20"/><circle cx="138.95" cy="113.21" r="0.09" transform="matrix(0.85, -0.53, 0.53, 0.85, -38.84, 90.54)" style="fill:#231f20"/><circle cx="138.37" cy="111.45" r="0.09" transform="translate(-37.91 89.27) rotate(-31.68)" style="fill:#231f20"/><circle cx="138.92" cy="110.31" r="0.09" transform="translate(-37.24 89.46) rotate(-31.7)" style="fill:#231f20"/><circle cx="139.95" cy="111.28" r="0.09" transform="translate(-37.69 90.96) rotate(-31.97)" style="fill:#231f20"/><circle cx="136.02" cy="108.03" r="0.09" transform="translate(-36.47 87.6) rotate(-31.7)" style="fill:#231f20"/><circle cx="134.55" cy="107.7" r="0.09" transform="translate(-36.57 87.22) rotate(-31.85)" style="fill:#231f20"/><circle cx="140.44" cy="112.62" r="0.09" transform="translate(-38.19 90.36) rotate(-31.62)" style="fill:#231f20"/><circle cx="133.9" cy="105.73" r="0.09" transform="translate(-35.63 86.58) rotate(-31.85)" style="fill:#231f20"/><circle cx="137.25" cy="113.29" r="0.14" transform="translate(-39.07 89.14) rotate(-31.74)" style="fill:#231f20"/><path d="M183.9,106.8c0-1.57-2-3.65-18.57-3.65-1.84,0-3.86,0-6,.08h-.39l.09.25a36.34,36.34,0,0,1,4.84.23h1.45c14.81,0,18,1.69,18,3.11.05,1.76-2.4,2.23-2.41,2.24l-1.69.28H181l0,.28h0C182,109.42,184,108.59,183.9,106.8Z" style="fill:#231f20"/><path d="M181.89,120.49,181.23,109h-13.1l-.47.28v.28h13l.59,10.31L168,119.84h0v.28h-1.87l1.87.29Z" style="fill:#231f20"/><path d="M168.23,120.39l-19-.1V120c0-.06-.33-6.16-.43-9.91-1.91-.64-2.47-1.25-2.47-2.64,0-1.77,2-3.95,11.77-4.27,7-.23,11.66,1,12.2,3.11.19.73-.07,1.87-2.31,3.16Zm-18.5-.65,17.93.09-.28-10.66.15-.08c1.61-.9,2.39-1.82,2.19-2.61-.35-1.35-3.61-2.72-10.08-2.72l-1.56,0c-9.77.32-11.23,2.46-11.23,3.71,0,1.09.31,1.53,2.27,2.16l.19.06v.2C149.39,113.2,149.67,118.5,149.73,119.74Z" style="fill:#231f20"/><circle cx="156.12" cy="116.66" r="0.15" transform="translate(-38.05 99.81) rotate(-31.81)" style="fill:#231f20"/><circle cx="155.29" cy="115.52" r="0.15" transform="translate(-37.56 99.12) rotate(-31.78)" style="fill:#231f20"/><circle cx="156.5" cy="114.6" r="0.14" transform="translate(-36.88 99.38) rotate(-31.71)" style="fill:#231f20"/><circle cx="154.05" cy="114.13" r="0.14" transform="translate(-37.04 98.51) rotate(-31.86)" style="fill:#231f20"/><circle cx="154.73" cy="112.9" r="0.14" transform="translate(-36.17 97.25) rotate(-31.43)" style="fill:#231f20"/><circle cx="152.99" cy="112.88" r="0.14" transform="translate(-36.42 96.39) rotate(-31.45)" style="fill:#231f20"/><circle cx="155.77" cy="112.38" r="0.14" transform="translate(-35.79 98.26) rotate(-31.59)" style="fill:#231f20"/><circle cx="156.34" cy="110.7" r="0.14" transform="translate(-34.85 98.74) rotate(-31.72)" style="fill:#231f20"/><circle cx="154.81" cy="111.85" r="0.14" transform="translate(-35.61 97.14) rotate(-31.43)" style="fill:#231f20"/><circle cx="156.88" cy="112.4" r="0.14" transform="translate(-35.66 99.16) rotate(-31.69)" style="fill:#231f20"/><circle cx="153.02" cy="111.85" r="0.16" transform="translate(-35.94 97.03) rotate(-31.68)" style="fill:#231f20"/><circle cx="155.44" cy="111.05" r="0.16" transform="translate(-35.19 98.65) rotate(-31.82)" style="fill:#231f20"/><circle cx="153.86" cy="112.5" r="0.21" transform="translate(-36.18 97.86) rotate(-31.77)" style="fill:#231f20"/><circle cx="153.67" cy="110.72" r="0.18" transform="translate(-35.22 96.8) rotate(-31.56)" style="fill:#231f20"/><circle cx="155.48" cy="113.91" r="0.09" transform="translate(-36.59 97.82) rotate(-31.44)" style="fill:#231f20"/><circle cx="155.34" cy="109.13" r="0.1" transform="translate(-34.21 98.64) rotate(-31.92)" style="fill:#231f20"/><circle cx="156.52" cy="111.56" r="0.09" transform="translate(-35.27 98.9) rotate(-31.7)" style="fill:#231f20"/><circle cx="156.48" cy="113.38" r="0.09" transform="translate(-36.33 100.46) rotate(-32.09)" style="fill:#231f20"/><circle cx="152.3" cy="114.42" r="0.14" transform="translate(-37.46 97.74) rotate(-31.89)" style="fill:#231f20"/><path d="M151.21,119.3c-.14,0-.59-.07-.59-1,0-.28-.23-6-.36-9.24a3.38,3.38,0,0,1-2-.75,1.22,1.22,0,0,1-.34-.93c.08-1.72,3.89-2.83,10.18-3h.76c3.65,0,9.18.66,9.88,1.73a1.14,1.14,0,0,1,.17,1.07c-.23.6-1,1.08-2.51,1.51.11,3.11.16,5.69.2,8l.05,2.57h-.29l-14.06,0ZM158.82,105h-.75c-6.59.16-9.59,1.34-9.64,2.44a.68.68,0,0,0,.19.52,3.18,3.18,0,0,0,1.9.59h.27v.27c0,.37.37,9.14.37,9.52a.9.9,0,0,0,.07.4h1l13.78,0,0-2c0-2.33-.09-5-.21-8.18v-.22l.21-.06c1.74-.48,2.24-.93,2.35-1.23a.58.58,0,0,0-.11-.56C167.81,105.81,163.3,105,158.82,105Z" style="fill:#231f20"/></svg>