<?xml version="1.0" encoding="utf-8"?>
<!-- Generator: Adobe Illustrator 20.1.0, SVG Export Plug-In . SVG Version: 6.00 Build 0)  -->
<svg version="1.1" id="Layer_1" xmlns="http://www.w3.org/2000/svg" xmlns:xlink="http://www.w3.org/1999/xlink" x="0px" y="0px"
	 viewBox="0 0 26.1 25.2" style="enable-background:new 0 0 26.1 25.2;" xml:space="preserve">
<style type="text/css">
	.st0{fill:none;stroke:#000000;stroke-width:0.25;stroke-miterlimit:10;}
	.st1{fill:none;stroke:#000000;stroke-linecap:round;stroke-linejoin:round;stroke-miterlimit:10;}
	.st2{fill:none;stroke:#000000;stroke-width:0.75;stroke-linecap:round;stroke-linejoin:round;stroke-miterlimit:10;}
	.st3{fill:none;}
	.st4{clip-path:url(#SVGID_2_);}
	.st5{clip-path:url(#SVGID_4_);}
	.st6{clip-path:url(#SVGID_6_);}
	.st7{fill:#010002;stroke:#000000;stroke-width:0.7;stroke-miterlimit:10;}
	.st8{stroke:#231F20;stroke-width:0.1;stroke-miterlimit:10;}
	.st9{stroke:#231F20;stroke-width:0.25;stroke-miterlimit:10;}
	.st10{stroke:#000000;stroke-width:0.25;stroke-miterlimit:10;}
	.st11{fill:none;stroke:#000000;stroke-width:0.75;stroke-miterlimit:10;}
	.st12{clip-path:url(#SVGID_8_);}
	.st13{fill:none;stroke:#000000;stroke-width:0.5;stroke-miterlimit:10;}
</style>
<g>
	<polygon class="st3" points="23,19.8 6.6,19.8 3.6,25.2 26.1,25.2 	"/>
	<g>
		<g transform="translate(1 1)">
			<path class="st8" d="M13.2,20.7h-3c-0.2,0-0.4-0.1-0.5-0.3c0-0.1-0.1-0.1-0.1-0.1l-2.3-0.2C7.1,20.1,7,19.9,7,19.7
				c0-0.3,0.2-0.5,0.5-0.5h8.7c0.3,0,0.5,0.2,0.5,0.5c0,0.2-0.1,0.4-0.4,0.4h0l-2.4,0.2c-0.1,0-0.1,0-0.1,0.1
				C13.6,20.6,13.4,20.7,13.2,20.7z M7.4,19.8l2.2,0.2c0.2,0,0.3,0.1,0.4,0.3c0,0.1,0.1,0.1,0.1,0.1h3c0.1,0,0.1,0,0.1-0.1
				c0.1-0.2,0.2-0.3,0.4-0.3l2.4-0.2c0.1,0,0.1-0.1,0.1-0.1c0-0.1-0.1-0.1-0.1-0.1H7.5C7.4,19.6,7.4,19.7,7.4,19.8
				C7.4,19.7,7.4,19.8,7.4,19.8z"/>
			<path class="st8" d="M11.8,13.6c-0.1,0-0.1,0-0.1-0.1c-0.3-0.3-0.4-0.6-0.4-0.9c0-0.3,0.1-0.6,0.4-0.8c0.2-0.2,0.3-0.4,0.3-0.6
				c0-0.2-0.1-0.4-0.3-0.6c-0.1-0.1-0.1-0.2,0-0.2s0.2-0.1,0.2,0c0.3,0.3,0.4,0.6,0.4,0.9c0,0.3-0.1,0.6-0.4,0.8
				c-0.2,0.2-0.3,0.4-0.3,0.6c0,0.2,0.1,0.4,0.3,0.6c0.1,0.1,0.1,0.2,0,0.2C11.9,13.5,11.8,13.6,11.8,13.6z"/>
			<path class="st8" d="M13.8,13.6c-0.1,0-0.1,0-0.1-0.1c-0.3-0.3-0.4-0.6-0.4-0.9c0-0.3,0.1-0.6,0.4-0.8c0.2-0.2,0.3-0.4,0.3-0.6
				c0-0.2-0.1-0.4-0.3-0.6c-0.1-0.1-0.1-0.2,0-0.2s0.2-0.1,0.2,0c0.3,0.3,0.4,0.6,0.4,0.9c0,0.3-0.1,0.6-0.4,0.8
				c-0.2,0.2-0.3,0.4-0.3,0.6c0,0.2,0.1,0.4,0.3,0.6c0.1,0.1,0.1,0.2,0,0.2C13.8,13.5,13.8,13.6,13.8,13.6z"/>
			<path class="st8" d="M10,13.6c-0.1,0-0.1,0-0.1-0.1c-0.3-0.3-0.4-0.6-0.4-0.9c0-0.3,0.1-0.6,0.4-0.8c0.2-0.2,0.3-0.4,0.3-0.6
				c0-0.2-0.1-0.4-0.3-0.6c-0.1-0.1-0.1-0.2,0-0.2s0.2-0.1,0.2,0c0.3,0.3,0.4,0.6,0.4,0.9c0,0.3-0.1,0.6-0.4,0.8
				c-0.2,0.2-0.3,0.4-0.3,0.6c0,0.2,0.1,0.4,0.3,0.6c0.1,0.1,0.1,0.2,0,0.2C10.1,13.5,10.1,13.6,10,13.6z"/>
			<path class="st8" d="M11.8,19.6c-3.9,0-4.4-2.5-4.4-5c0-0.1,0-0.2,0.1-0.2c0.1-0.1,0.2-0.1,0.2-0.1h8.2c0.1,0,0.2,0,0.2,0.1
				c0.1,0.1,0.1,0.2,0.1,0.2C16.2,17.1,15.7,19.6,11.8,19.6z M7.7,14.6c0,2.4,0.5,4.6,4.1,4.6s4.1-2.2,4.1-4.6H7.7z"/>
			<path class="st8" d="M14.7,18.4l0.3-0.3c0.7-0.9,0.9-2.2,0.9-3.3v-0.1l0.1-0.1h0c0.6,0,1.1,0.6,1.1,1.4c0,1-0.6,2.1-2,2.3
				L14.7,18.4z M16.2,15c0,0.9-0.1,2-0.7,2.9c0.9-0.3,1.2-1.1,1.2-1.8C16.8,15.6,16.5,15.1,16.2,15z"/>
			<path class="st8" d="M10.7,18.7C10.7,18.7,10.7,18.7,10.7,18.7c-1.4-0.2-2.2-1-2.5-2.6c0-0.1,0.1-0.2,0.1-0.2
				c0.1,0,0.2,0.1,0.2,0.1c0.3,1.4,0.9,2.1,2.2,2.3c0.1,0,0.2,0.1,0.1,0.2C10.9,18.7,10.8,18.7,10.7,18.7z"/>
		</g>
		<g>
			<path class="st8" d="M2.6,22.7c-0.1,0-0.2-0.1-0.2-0.1c0,0,0-0.1,0-0.3l0-4c0-2.4,0-4.8,0-7.3c0-0.3-0.1-0.5-0.4-0.6
				c-0.9-0.4-1.4-1.1-1.7-2c0-0.1-0.1-0.3-0.1-0.5c0-0.1,0-0.1,0-0.2V7.2c0,0,0.1-0.1,0.1-0.1l0.9-1.6C2,3.7,3,2,4,0.3
				c0.1-0.1,0.1-0.2,0.2-0.3h17.7c0,0,0,0,0,0c0.1,0.1,0.2,0.1,0.2,0.2c0.9,1.5,1.7,3,2.5,4.4c0.4,0.6,0.7,1.2,1,1.9l0.4,0.7v0.2
				c0,0,0,0.1,0,0.1c-0.1,1.3-0.8,2.2-1.9,2.8c-0.3,0.1-0.4,0.4-0.4,0.7c0,3.7,0,7.5,0,11.2v0c0,0.1,0,0.1,0,0.2
				c0,0.1,0,0.2-0.3,0.2l-20.7,0C2.7,22.7,2.7,22.7,2.6,22.7L2.6,22.7z M2.9,22.2h20.4V10.7l-0.4,0c0,0-0.1,0-0.1,0
				c-1.2,0-2.2-0.5-3-1.5l-0.3-0.5l-0.3,0.5c-0.7,1-1.7,1.5-2.8,1.5c-1.2,0-2.1-0.5-2.9-1.5l-0.3-0.5l-0.3,0.5
				c-0.7,0.9-1.7,1.5-2.9,1.5c-1.1,0-2.2-0.5-2.9-1.5L6.7,8.8L6.3,9.3c-0.7,1-1.7,1.5-3,1.5c0,0-0.1,0-0.1,0l-0.4,0V22.2z M19.8,7.8
				c0.2,1.2,1.3,2.4,2.9,2.4h0c1.6,0,2.7-1.2,2.9-2.4l0.1-0.5h-5.9L19.8,7.8z M7,7.8c0.2,1.2,1.3,2.4,2.9,2.4c0.1,0,0.2,0,0.3,0
				c1.3-0.1,2.5-1.3,2.6-2.4l0-0.4H6.9L7,7.8z M13.4,7.8c0.1,1.2,1.3,2.4,2.9,2.4c0,0,0.1,0,0.1,0c1.5-0.1,2.6-1.3,2.8-2.4l0.1-0.5
				h-5.9L13.4,7.8z M0.6,7.8c0,0.5,0.2,1,0.6,1.5c0.6,0.6,1.5,1,2.3,1l0,0c1.6,0,2.7-1.4,2.8-2.4l0-0.4H0.6L0.6,7.8z M4.8,0.5
				c-0.3,0-0.5,0.1-0.6,0.3C3.5,2.2,2.7,3.5,2,4.8L1.3,6c0,0,0,0.1-0.1,0.1L0.9,6.8h24.3l-0.3-0.6c0,0,0-0.1,0-0.1l-0.3-0.6
				c-0.9-1.5-1.8-3.1-2.7-4.7c-0.1-0.2-0.4-0.3-0.6-0.3c-3.5,0-7,0-10.5,0L4.8,0.5z"/>
		</g>
	</g>
</g>
</svg>
