<svg xmlns="http://www.w3.org/2000/svg" viewBox="0 0 250 250"><defs><style>.a{fill:#231f20;stroke:#231f20;stroke-miterlimit:2.61;stroke-width:0.37px;}.a,.b,.c{fill-rule:evenodd;}.b{fill:#fff;}.c,.d{fill:#ec1c24;}</style></defs><title>Fast Food</title><path class="a" d="M43,124H230.52a2.31,2.31,0,0,1,2.3,2.3h0a2.31,2.31,0,0,1-2.3,2.3H42.76L42.63,131c-.19,3.57-5,5.93-6.66,5.93H20.88c-3.21,0-5-3.6-3.54-6.84l5-10.64c1.51-3.24,2.72-2.53,5.92-2.53l10.35,0C41.78,116.95,43.2,120.45,43,124Z"/><path class="b" d="M24.94,121.61h3.51a.71.71,0,0,1,.71.71v.37a.71.71,0,0,1-.71.71H24.94a.71.71,0,0,1-.71-.71v-.37a.71.71,0,0,1,.71-.71Zm6.09,0h3.51a.71.71,0,0,1,.71.71v.37a.71.71,0,0,1-.71.71H31a.71.71,0,0,1-.71-.71v-.37a.71.71,0,0,1,.71-.71Zm6.09.06h3.51a.71.71,0,0,1,.71.71v.37a.71.71,0,0,1-.71.71H37.13a.71.71,0,0,1-.71-.71v-.37a.71.71,0,0,1,.71-.71Zm-14.28,4.65h3.51a.71.71,0,0,1,.71.71v.37a.71.71,0,0,1-.71.71H22.85a.71.71,0,0,1-.71-.71v-.37a.71.71,0,0,1,.71-.71Zm6.25.06H32.6a.71.71,0,0,1,.71.71v.37a.71.71,0,0,1-.71.71H29.09a.71.71,0,0,1-.71-.71v-.37a.71.71,0,0,1,.71-.71Zm6.22,0h3.51a.71.71,0,0,1,.71.71v.37a.71.71,0,0,1-.71.71H35.31a.71.71,0,0,1-.71-.71v-.37a.71.71,0,0,1,.71-.71Zm-14,5h3.51a.71.71,0,0,1,.71.71v.37a.71.71,0,0,1-.71.71H21.34a.71.71,0,0,1-.71-.71v-.37a.71.71,0,0,1,.71-.71Zm6,.15h3.51a.71.71,0,0,1,.71.71v.37a.71.71,0,0,1-.71.71H27.31a.71.71,0,0,1-.71-.71v-.37a.71.71,0,0,1,.71-.71Zm6.4,0h3.51a.71.71,0,0,1,.71.71v.37a.71.71,0,0,1-.71.71H33.71a.71.71,0,0,1-.71-.71v-.37A.71.71,0,0,1,33.71,131.61Z"/><path class="c" d="M27.67,97.8c.54-.09.41-.35.25,1.66-.11,1.34-.39,4.57-.95,5.5-.42-.66-.67-1.61-1-2.26a19.32,19.32,0,0,0-1.27-2.16c-4.24-6.29-3.73-1.66-5.5,2.7-.76,1.87-1.53,3.73-2.44,5.47l-3.93,7.61A16.45,16.45,0,0,0,11.36,119c-1.15,1.51-2.71,5.37-3.55,7.29a22.72,22.72,0,0,0-2.22,8.5c-.43,6.13,1.63,13.68,6.12,15.24,2.48.87,7.1-.17,9.52-.78a24.92,24.92,0,0,0,7.33-3.42c9.1-5.43,9,1.13,11.88-.68a1.11,1.11,0,0,0,.46-1.63c-.4-.64-.83-.45-1.32-1.35-.72-.95-3-1.46-4.1-1.54a16,16,0,0,0-9,2.51c-1,.57-3.29,1.55-3.89,2-.17.29-.1.29-.82.58-2.1.83-5.82,1.83-7.93,1.61-6.21-.65-6.86-14.38-3.94-20.13a35.67,35.67,0,0,0,1.91-3.69l.33-.36,1.11-1.92c3.7-6.27,3.8-5.95,6.93-13.31.8-1.88,1.42-4,2.31-5.76.45.23.39.19.77.82a7.32,7.32,0,0,1,.57,1.26,28.75,28.75,0,0,1,1.46,9.29l1.19.09c2.3-3.54,2.18-7.75,3.3-9.3,1.33,4.43,1.64,2.39,1.46,8.89l2.2.12c1.61-3.32,1.84-6.5,2.87-10.16,2.5,4,.07,10.28,0,11.63l.93.53c3.29-1.5,4.14-6.18,4.57-9.47,1,.29,2.25,2.37,2.65,3.83,1.41,5.13-.65,11.28-.36,11.93a1.26,1.26,0,0,0,2.21-.1,22.24,22.24,0,0,0,.63-2.81c2.2-12.29-5.13-19.93-7.2-18.52,0,.61,1.07,1.82.05,3.1-.22.28-.1.14-.33.31-.88-.86-.93-1.73-2.44-3.08-1-.86-.68-.71-.76-1.17a10.17,10.17,0,0,0-2.36-2c-1.34-.9-4-2.11-3.69.26.18,1.41,1.73,1.19,1.66,3.58C31.8,100.78,29.79,97.05,27.67,97.8Z"/><path class="c" d="M74.9,110.61c.41-.45.11-.52.48-1.21a42.89,42.89,0,0,0,.17,6.83c.34,2.26,0,3.79.19,6.14.66-.25-.21.31.31-.21s0-1,.5-1.62l1,.34c.51,1.57-.17-1,.12.38l.12,2.28c.23-2.48.47-.85.1-2.19l.93,0s0-.13-.05-.1-.39-.46.36-1.27l.4.12a9.13,9.13,0,0,1,0,2.27c.57.06.26.12.73-.45l.11-.15c0,.05.11.07.13.16l.32.45a1.19,1.19,0,0,0,.2-1c-.12-.66,0,0-.14-.37s-.24,0-.1-.44c1.77,0,.62,3.14.92,5.2a33.41,33.41,0,0,1,0,6.54l0,1.93.18-3.66c.39-4.57-.93-14,1.49-16.06,1.22-1,3.5-.68,5.36-.67,4.24,0,4.5,1.75,4.93,6.71.33,3.79,0,8,.1,11.81.37-.69.19-2.46.2-3.44,1.08.54.69.5,1.05,1.08.86-.25.71-.06.83-.8.44.49.17.27.81.58,0-.76,0-1,.45-1.33a1.79,1.79,0,0,1,1.41-.35c.61,0,.19.16.7-.16s.29-.16.47-.57.13-1.12.38-1.62c.67.26.17.55.59,1.23l.18-4.43a83.09,83.09,0,0,0-.78-14.29c-.68-4.36-2.22-8-6.48-8.62-2.59-.39-12.13-.56-14.07.49a6.9,6.9,0,0,0-3.3,4.15A23.55,23.55,0,0,0,74.9,110.61Z"/><path class="c" d="M102.42,138.87l0-6.15c-.07-.93-.35-9.33.31-10.29,1,.08.93.6,1.22,1.15l.94,0c-.33-.7-.24.16-.28-.56s.55-.45.87-1.25c.13-.33,0-.47.24-1,.54.2.06-.08.6.54.75.85.32-.24.59,1.06V121c.55-.2-.17-.2.28,0a.3.3,0,0,1,.1.16,4.41,4.41,0,0,0-.18-1.29l1.34,0a2.77,2.77,0,0,0-.17,1.39l.51-.44,0-.11.17-1.17a9.2,9.2,0,0,1,.42-2c.37-.67.09-.22.4-.47.26-.46.38-2,1.7-2.69.79-.4,6.64-.73,8,.36.92.76,1,1.88,1.41,3.12.22.16.34.09.54.25l0,3.76c.16-.53,0-.7.37-1.12l.32-.28c.68.32,0-.05.42.29.18.16.14.13.14.2.08-.17.14-.38.18-.47l.7-.1a2.9,2.9,0,0,0,.63.39c1,.59.29.36.62.94.56-.31.76-.18,1.62-.21.5-1-.26-.28.61-.82.47.65.17,1.43.4,2,.48-.2.28-.67.39-1.45.22-1.6.06-4.44.31-6.2.06-5.5-1-13.27-5.19-14.87-2.41-.91-6.53-.66-9.48-.66-3.31,0-6.31,0-8,2.11-3,3.81-3.11,11.07-3.16,17.11C102.24,121.71,102,137.45,102.42,138.87Z"/><path class="c" d="M93.74,132.32c-.05,7.11-1.52,7.32-6.69,7-2.63-.18-3.74-.33-4.43-2.63-.54-1.81-.36-4.82-.75-6.13l-.18,3.66,0-1.93c-1.28-.56-.27.47-.93,3.16l0,.11-.16,2.53c-.53.14-.5.26-.78.6L79.58,136c-.77.54-.17.29-.58.67l-.62.38c.25.72.36.29.05.85-.5.91-.28,3-.29,4a4.1,4.1,0,0,1-.37-2.05,6.89,6.89,0,0,0-.14-2,.29.29,0,0,0-.07-.17c-1.65.8-.12,2.47-.83,3.93-1,2-.05,1.19-.59,2.18-.21-.58-.26-5.06-.39-6.83-.08-1.14-.36-1.11-.78-1.6l-.05,1.07c-.3,1.8.24,3.73.09,5.47.3.34.26.66.3,1.33a12.34,12.34,0,0,0,.19,1.64c1,5.33,3,6.46,3.31,7.08,2.05,1.14,3.45,1.43,6.43,1.47,8.35.13,12.07,1.17,14.35-5.36a9.75,9.75,0,0,0,.43-1.57c.06-.3.08-.57.15-.85l.29-.79c-.07-1.65.33-3.74.41-5.44s.06-3.85,0-5.68c0-3.75-.12-7.54-.11-11.28l-.18,4.43c-.42-.67.07-1-.59-1.23-.25.5-.16,1.11-.38,1.62s-.1.34-.47.57-.08.14-.7.16a1.79,1.79,0,0,0-1.41.35c-.43.32-.45.57-.45,1.33-.64-.31-.37-.08-.81-.58-.13.74,0,.55-.83.8-.36-.58,0-.53-1.05-1.08C93.93,129.86,94.11,131.64,93.74,132.32Z"/><path class="c" d="M102.37,132.72l0,6.15a42.21,42.21,0,0,0,1,8.2c.92,3.77,1.82,4.08,3.2,5.58,3.71,1,.81,1,6.44,1.06,2.3,0,5,.17,7.3,0,5.38-.46,5.69-3.66,6.77-6.83,0-.06.09-.25.12-.31a1.14,1.14,0,0,1,.25-.43l.42-4.19c.12-2.47-.09-4.67,0-6.57a9.21,9.21,0,0,0,0-1.13,18.51,18.51,0,0,1-.21-2.36l-.79.65c-.62-.58-.29-1.13-.91-1s0,0-.45.3l-.12.08-.25.11-.13,0-.25,0-.12,0c-1.58.31-1.17.6-1.73,1.08.15-2.21-.91.45-.56-2a3,3,0,0,1-.77,1.4,2.25,2.25,0,0,1-.46-1.13c-.23-1.21.39-5.48-.1-7.25a74.83,74.83,0,0,1-.29,11.61c-.27,1.83-.73,3.18-2.32,3.68a24.09,24.09,0,0,1-5.56.11c-3.64-.45-3.34-5-3.4-8.57-.05-3-.37-8.91,0-11.54.18.62,0,6.12,0,7.29a4.76,4.76,0,0,1-.11,1.57c0,.07,0,.11-.05.17s0,.11-.06.17a6.33,6.33,0,0,0-.18,1.74A8.43,8.43,0,0,1,109,132s-.15.81-.16.81c-.31.64.17.24-.52.58-.34-.43-.39-.56-.41-1.43,0-.33,0-.88,0-1.24a1.36,1.36,0,0,0-.74,1.27,3.69,3.69,0,0,0,0,1.8l-.15.06c-1.35.45,0-.22-.46.15l0,1.57c-.81-.76-.52-1.67-.56-2.8-1-.25-.5.17-1.52.29,0,.12.09.55.08.59,0,.65.16.15-.19.63-.28-.35-.22-.37-.32-.88,0-.09-.07-.58-.09-.74s-.14-.95-.19-1.13c-.15.4-.07.49-.25.93-.29.71-.15.54-.62.9C102.51,133.29,102.71,133.1,102.37,132.72Z"/><path class="c" d="M48.28,138.74l-.07-13.91c.45.35.52-.33.48,2a3.71,3.71,0,0,0,.22-.62c0-.05,0-.23.05-.28,0-.52-.12-.45,0-.89a6.53,6.53,0,0,0,.28-.9,14,14,0,0,0,.1-1.91c0-.49-.06-.47.16-.89a4.19,4.19,0,0,1,.3-.35c.23-.19-.07,0,.42-.24.53,1.07-.63,4.15.61,4.68.21-.4-.37-1.64.53-2.64.54-.6-.26-.36.95-.45,0,.82,0,1.47-.08,2.24,0,.53.21,1.11.23,1.94l.33-.92c.19-1.21-.14-5.79.28-6.62s.2.22.42-1c.19-1.05-.36-.64.39-1,.82,1.45,0,8.87.61,10.48l.25-1.85c0-.19-.06-.69-.08-.94-.16-2.84.33-1.54.45-3.43a31.1,31.1,0,0,1,.45-5.43c.41-1.6.19-1.16.69-1.28,1-1,1.17-1.21,3.09-1.23,4.18,0,6.55-.81,6.63,4.25,0,.3,0,.78,0,1,.06.82-.11.49.3,1,.93.6,5.43.37,6.83.22.39-4.42.14-14.88-2.77-18.47-1.84-2.27-4.83-2.15-8.35-2.2-7-.09-11.12-.53-12.91,8.38l-.87,9.87C48.1,120.5,48,136.48,48.28,138.74Z"/><path class="c" d="M213.19,130.91a6.66,6.66,0,0,1-.11,3.19c0,2.79-.45,4.57-3.26,4.68-2.22.09-5.34.33-6.07-1.49-.46-.47,0,.12-.32-.61-.09-.22-.1-.3-.16-.48-.86-2.31-.12-2.45-.48-4-.2-.82,0-.12-.34-.71a3.09,3.09,0,0,1-.27-.49c-.24,1.27-.09,2.4-.38,3.69-.84-.34-.4.47-.42-1.11,0,0,0-.71,0-.72-.34-1.43.25.68-.32-.62l-.12-.31c-.43-1.49.43,0-.6-1.49a17.33,17.33,0,0,0-.41,4.2,1.89,1.89,0,0,1-.28-.36l-1.14-2.63c-.61.49-.11.46-.61.63l-1.35-.2a5.15,5.15,0,0,0-.19-1.61.76.76,0,0,0-.06.16l-.11.52a67,67,0,0,0-.15,9.09l.16,3.69c.4.46.37,1.54.65,2.44.82,2.63,1.28,3.9,3.51,5.43,2.42,1.66,7.2,1.21,10.72,1.2a9.33,9.33,0,0,0,5-1c4.67-2.82,4.12-12.5,4.43-13.11l-.11-14.56c-.24-.34-.14-.12-.23-.65l-.09-1.52c-.18,4.11-.49,7.85-.54,12.07-.31-.6-.05-1.28-.37-2l-.22.62a4.64,4.64,0,0,0,0,.6c-.67-1,0-.18-.76-.6,0-2.65.24-2.37-.45-2.64a5.8,5.8,0,0,0-.2,2c0,.75,0,1.5,0,2.25-.49-.81-.23-4.31-.25-4.63-1.94,0-.61-.42-1.36-1.65-.8,1.54.79,4.13-1,4.22a1.46,1.46,0,0,0,.15-2,1.72,1.72,0,0,0-1.56-.91c0,.16,0,.74,0,.86C213.33,130.84,213.43,130.65,213.19,130.91Z"/><path class="c" d="M130,141c.38.44.17-.41.34.87,0,.19,0,1,0,1.23,0,.93.15,1.16.2,2s.08,1.5.06,2c0,.82-.06.11.44,1.19a5.28,5.28,0,0,1,1.7-.19c0,.15,0,1,0,1.09.17.83-.24.33.41.54-.49.45-.24.21-.8.48l-.26,2.65c.73-.37.86.22,1.3-.28.3-.34.13-1.23.22-1.75a10.38,10.38,0,0,1,.56-1.52c.63-1.66.55-.42.8-1.49.08,0,.19,0,.23.08l.38.15c.66.3-.45-.11.32.16.32-.86.19-.33.46-.73l.48-.9a1.31,1.31,0,0,1,.09-.19l0-12.26c1.12-.2,1.18,0,1.56.88.72,1.62,1.8,4.89,2.46,5.67.56.5.22.17.69,1.06l.15.27a5.35,5.35,0,0,1,.25.56,16.24,16.24,0,0,1,.91,2.13c.5-.22.13-.42,1-.86l.57-.21c.91-.19,1,.33,1.06-1.17.25.33.2.93.72,1.12.93.34-.69-.06.27,0,.72.07.58-.08.72-.21s-.22-.92.51,0a3.86,3.86,0,0,1,.2-1.19s.08.06.1.14l.51.87.28-1c0,.16.53.38,1,.43a1.34,1.34,0,0,0-.26-.59l-.36,0c.17-.43.25-.42.33-.66.24-.78-.38-.8-.26-2.74-.16-.79-2.9-7.11-3.46-8.38-.45-1-1.69-3.16-1.39-4.32s1.38-2.87,1.58-4.19a9.2,9.2,0,0,1,.26-1.25c-1.09.58-1,.4-1.32,2.71l-.36-.84h-3c-.63-.11-.33-1.19-1.22-1.82-.61.43-.58.33-.85,1-.13.3,0,.25-.16.44a8.94,8.94,0,0,0-2.64-.38c-.23-.54-.07-.39-.42-.86-.66.64-.85.26-1.58.61,0-2,0-1.39-.42-1.58a3,3,0,0,0-.22,1.6,1.74,1.74,0,0,0-1-.38l-.08.13-.14.26c-.05.11,0,.17-.15.37a3.44,3.44,0,0,0,0-.56c-.09-.42-.05-.2-.22-.44-.63,0-.6.23-1.06.16l-.12,0c-.16,0,.21-.08-.47-.14l-.09,1c0-1.4-.16-2.34-.23-3.56l-.08-3c0-.06,0-.12,0-.17l-.16-.44Z"/><path class="c" d="M48.28,138.74c.29,1.26.28,2.86.5,4.23s.56,2.45.67,3.63c1,1,.93,3.75,3.93,5.51,2.16,1.27,5.63.92,8.39,1,3.7.07,8.65.48,10.18-3.84.47-1.33.7-2.55,1.1-3.71.44-3.09,1-11,.39-14.12H66.27c-.32,7.31.12,7.44-6.12,7.29a4.86,4.86,0,0,1-3.37-.88c-.44-.18-.25,0-.77-.45l-.11.13-.53.62c-1,1.16-.64,5-.58,6.5-.43-.44-.4-.75-.4-1.6l-.14-5.4c-.13-2.47,0-4.67-.17-7-.9.27-.36.1-.52.88-.55,2.79-.13,1.11-.05,3.12.15,3.82-.77,3-.75,8-.39-.39-.24-.11-.42-.74l-.08-2.44c0-1,0-1.87,0-2.86-.71-.17.33-.36-.23.15-.32.29-.05.37-.82.24.28.76.07.24.6.85-.29.8,0-.1-.43.81.31.3-.14,0,.48.41-.62.45-.14-.21-.71.5s-.61,4.82-.35,5.79c.32,1.19,0,.78.4,1.41-.46.87-.71-.73-.56,1L50.57,145c0-.73-.26-2.57-.26-2.59,0-.47.33-4.49-.29-5-.73.95.07,1.18-.17,2-.18.67-.73.31-1.37.47C48.37,138.26,48.54,139.09,48.28,138.74Z"/><path class="c" d="M168.16,109.52l0,2.59c0,.05,0,.11,0,.15.12.54.41.47.67.53l2.11.08c-.37.52-.22.29-.18,1.07.68.51.78,0,1.07.59s-.3.77.07,1.36.53.27,1.2.21a10.62,10.62,0,0,1,1.81,0c0-.05.06-.2.08-.17s.06-.12.08-.16c.36-.58.21-.46.58-.58,1.76-2,3.18-1.57,6.35-1.54,1.36,0,2.31.05,3.14.77s.74,1.71,1.28,2.77c0-1,.31-1.2.36-2.11.07.09.21,0,.78.84a1.89,1.89,0,0,0,.1.17l.89-.52a.81.81,0,0,0,.53-.48l.48,1.81c.32.36-.3.15.28.21.92-.22.5.18.6-1.15,0-.43,0-1,.05-1.49l.15,2.76c.27.16.66.37.93.54a5.84,5.84,0,0,0,0,.81c0,.19-.48-.34.29.7.77-1.13.27-.67.28-.7a5.12,5.12,0,0,0,.06-.9,4.23,4.23,0,0,1,1.28-.11l.12,5.5c0-1.77.49-6.2.2-7.62-.53-3.24-.18-12.33-4.46-14.78a11.9,11.9,0,0,0-5.37-1.09C172,99.13,170.05,99.6,168.16,109.52Z"/><path class="c" d="M228.86,122.57l0-.07a2.63,2.63,0,0,1,0-.86c.17-.77.06-.4.32-.8.76.13.35-.05.67.41s0,.6,0,.61c.15-2.29-.09-2.39.59-2.67.36-.15.12,0,.53-.18l0-2.31c1.31.18.35-.29.9.65l.23-.34.09-.12.09-.12a.3.3,0,0,1,.06.15c.12.72.87.62,1.12.62-.28-.16-.21-.07-.39-.37a3,3,0,0,1-.22-.62c0-.75.18-.77.84-.83.14.37.13,0,0,.3,0,0-.15.28-.16.28a1.63,1.63,0,0,1,1,.28,18.24,18.24,0,0,0,.05,2.17c0,.05,0,.1,0,.16s0,.1.05.15l.32,1.26a42,42,0,0,0,.23-4.39c.59.65.39,2.24.33,3.08H236l-.07-5,7.56-.1a113.16,113.16,0,0,0-.47-13.68l-22,0a105.47,105.47,0,0,0,.19,13.73c1.63.2,6.46-.35,7.42.27C229.13,115.06,228.86,121,228.86,122.57Z"/><path class="c" d="M130.21,114.56l.16.44c0,.05,0,.11,0,.17l.08,3c.07,1.22.19,2.16.23,3.56l.09-1c.68.06.31.11.47.14l.12,0c.46.07.43-.18,1.06-.16.17.24.13,0,.22.44a3.44,3.44,0,0,1,0,.56c.1-.2.09-.26.15-.37l.14-.26.08-.13a1.74,1.74,0,0,1,1,.38,3,3,0,0,1,.22-1.6c.45.19.39-.39.42,1.58.73-.35.92,0,1.58-.61.35.47.19.31.42.86a8.94,8.94,0,0,1,2.64.38c.12-.19,0-.13.16-.44.27-.65.24-.55.85-1,.89.63.59,1.71,1.22,1.82h3l.36.84c.28-2.31.23-2.13,1.32-2.71a9.2,9.2,0,0,0-.26,1.25,3.56,3.56,0,0,0,.67-1.58c.73-1.69,1.29-3.32,2-5,.61-1.5,1.35-3.31,1.93-4.92s3.77-8.9,3.78-10l-8.65-.05a52.48,52.48,0,0,0-2,4.92c-1.22,3.3-3.9,9.77-4.77,12.46-.65,2-.74,1.88-1.66,1.82-.52-1.21-.11-15.73-.15-18.46a1.84,1.84,0,0,0-1.26-.67,36.82,36.82,0,0,0-5.59.11Z"/><path class="c" d="M167.57,142.36l.1,1.94c.36.6.53,2.82,1.22,4.49a7.46,7.46,0,0,0,2.48,3.4c2.32,1.62,7,1.19,10.49,1.1,5.89-.15,7.79-.08,10-4.4,1.15-2.23,1.3-4.48,1.71-7l.18-2.65,0-2.87a10.46,10.46,0,0,0-.22,2.49c0,.16-.48,1.79-.58,2l-.76-.64-.19,2a2.25,2.25,0,0,1-.21-1.31s0-.09,0-.13l-.47-1.54c-.06.93.1,1-.18,1.42-1-.32-.11-.82-.85-1.71,0,.66-.1,3-.16,3.13-.45-.5-.32-.73-.49-1.13-.37-.89.21-.13-.7-.67.53-1.18.52.56.58-1-.19-.09-.77.29-1.2-.27l0,2.55a1.32,1.32,0,0,1-.07-.15l-.26-.59a6,6,0,0,1-.19-.61,3.63,3.63,0,0,1-.06-1.57c-1.48.24-.34.49-1.45-.07.07.78.09.74-.17,1.13-.54-.48-.23-.42-.78-.85l.5-.66c.25-.52.15-.44,0-1-1.17,1.1-.78,1.47-3.06,1.73a34.3,34.3,0,0,1-4.73.06c-2.94-.34-3.21-3-3.32-6.11h0c0,1.3-.2,2.38-.12,3.76.07,1.14.36,1.88-.12,2.79l-.2-.85c-.42.37-.29.29-.53.79-.21-.38-.29-1-2-1l-.09.14c-.71,1.3-.26,1.39-1.33,1.61l-.58.1c-.56.11-.45,0-.75.31s-.18.18-.18.41c-.08-1-.64-.95-.66-2.13-.46.43-.1-.1-.33.49-.17.42,0,.14.06.15,0-.89.17-2.33-.48-3Z"/><path class="c" d="M229,128.94l.15,23.37c1.34.23,2.76,0,4.09.13a8,8,0,0,0,3.22-.2l-.14-13.28-.07-9.15-.09,3.95c-.26-.35,0,.18-.15-.41l-.31-2.54-.44.72c-.38,1,.19,2.22-.36,2.94-.17-.28-.06.07-.18-.48l0-1.57a3.61,3.61,0,0,0-1.19-.23c.18-.42.13-.46-.17-1-.1,3.2.29,3.22-1.24,3.19a8.6,8.6,0,0,0-.12-3.33c-.47-1.94-.17-2.48-.51-3.12-.33.56-.19,3.77-.19,4.45l-.82,0c-.44-.78,0-.75.21-1.41-.35-.72-.12-.08-.37-.45-1-1.42-.48-4-.85-4.77a3,3,0,0,0-.18,1.57l-.18,1.48S229.06,128.9,229,128.94Z"/><path class="c" d="M195.82,125l.54-5.84c1,0,.73.27,1.68.26l.93-.06c0,.45-.24,1.5.55,1.64,1.06.19-.25.18.36-.1.78-.36-.5-.18.53-.34.25.4-.32.36.87,1.49l.14.13a.7.7,0,0,1,.23-.56l.43-.35c0-.84-.2-1.74.23-2.08l.2-.1.12,0c0-.76.32-4.35.21-4.46,0-1.66.16-13.56-.24-14s-1.65-.34-3.11-.33c-4.87,0-3.73-1.92-3.67,12.32C195.83,116.67,195.86,120.84,195.82,125Z"/><path class="c" d="M213.07,134.1a6.66,6.66,0,0,0,.11-3.19c-.11-1.15.14-2,.09-3.19-.2-4.57-.05-6.13-.07-10.53.41.44.3,0,.42.76s0,.33-.17.47l.51-1.83c.22-.7-.07-.29.4-.75l.09,3.24c.55-.06.74-.43,1.11-.78s-.78-.68.76-.26c1.24.35-.2.13.77.46l.62-.89a1.43,1.43,0,0,1,.17-.18c.13.56.37.8.08,1.23,0-.73.2-1,.25-1.86l.53-.08c.27-.14.48.07.47-.87l.54.62c.19-2.09.06-4.38.24-4.87l.16-.31c0-1.25.05-10.33-.32-10.77-.58-.7-6.59-.36-6.81-.12C212.74,101.13,213.16,130.13,213.07,134.1Z"/><path class="c" d="M74.9,110.61c-.19,4.23-.31,8.5-.26,12.87l.06,11.35c0,.24,0,.58,0,.81a1.67,1.67,0,0,0,.23.88l.05-1.07c.42.48.7.46.78,1.6.13,1.77.18,6.25.39,6.83.54-1-.37-.18.59-2.18.7-1.46-.82-3.13.83-3.93a.29.29,0,0,1,.07.17,6.89,6.89,0,0,1,.14,2,4.1,4.1,0,0,0,.37,2.05c0-1.05-.21-3.14.29-4,.3-.55.2-.12-.05-.85l.62-.38c.41-.38-.19-.13.58-.67l.24,2.66c.28-.34.25-.46.78-.6l.16-2.53,0-.11c.65-2.69-.36-3.72.93-3.16a33.41,33.41,0,0,0,0-6.54c-.29-2.07.86-5.25-.92-5.2-.14.46,0,.1.1.44s0-.29.14.37a1.19,1.19,0,0,1-.2,1l-.32-.45c0-.09-.08-.11-.13-.16l-.11.15c-.47.58-.16.51-.73.45a9.13,9.13,0,0,0,0-2.27l-.4-.12c-.75.8-.36,1.31-.36,1.27s0,.13.05.1l-.93,0c.37,1.34.13-.29-.1,2.19l-.12-2.28c-.29-1.39.39,1.19-.12-.38l-1-.34c-.45.63.14,1-.5,1.62s.35,0-.31.21c-.21-2.34.14-3.88-.19-6.14a42.89,42.89,0,0,1-.17-6.83C75,110.09,75.31,110.16,74.9,110.61Z"/><path class="c" d="M48.28,138.74c.25.35.08-.47.2,1.13.63-.16,1.18.19,1.37-.47.24-.86-.56-1.09.17-2,.62.54.3,4.55.29,5,0,0,.26,1.85.26,2.59l.06,2.81c-.14-1.74.11-.13.56-1-.43-.64-.08-.22-.4-1.41-.26-1-.25-5,.35-5.79s.09-.06.71-.5c-.63-.36-.17-.1-.48-.41.4-.91.14,0,.43-.81-.53-.61-.32-.09-.6-.85.77.13.5,0,.82-.24.56-.5-.48-.32.23-.15,0,1,0,1.88,0,2.86l.08,2.44c.18.63,0,.35.42.74,0-5.08.9-4.22.75-8-.08-2-.5-.32.05-3.12.15-.78-.39-.61.52-.88.21,2.37,0,4.57.17,7l.14,5.4c0,.85,0,1.16.4,1.6-.06-1.52-.4-5.34.58-6.5l.53-.62.11-.13c.51.47.32.27.77.45-1.57-3-1.29-7.42-1.32-11.33,0-3.47-.31-9.12.78-11.94-.5.12-.28-.32-.69,1.28a31.1,31.1,0,0,0-.45,5.43c-.12,1.89-.61.58-.45,3.43,0,.25.07.76.08.94l-.25,1.85c-.58-1.62.22-9-.61-10.48-.75.33-.2-.08-.39,1-.22,1.24,0,.14-.42,1s-.09,5.41-.28,6.62l-.33.92c0-.83-.25-1.41-.23-1.94,0-.77.08-1.42.08-2.24-1.21.09-.4-.16-.95.45-.89,1-.31,2.23-.53,2.64-1.24-.53-.07-3.61-.61-4.68-.49.21-.19,0-.42.24a4.19,4.19,0,0,0-.3.35c-.22.42-.14.4-.16.89a14,14,0,0,1-.1,1.91,6.53,6.53,0,0,1-.28.9c-.12.44,0,.37,0,.89,0,.05,0,.23-.05.28a3.71,3.71,0,0,1-.22.62c0-2.35,0-1.67-.48-2Z"/><path class="c" d="M167.53,122.46l0,1.42c-.15,2-.48,17.81.07,18.48l-.16-5.91c.65.69.44,2.13.48,3-.06,0-.23.27-.06-.15.23-.58-.13-.06.33-.49,0,1.18.58,1.14.66,2.13,0-.23,0-.21.18-.41s.19-.2.75-.31l.58-.1c1.06-.21.61-.31,1.33-1.61l.09-.14c1.74,0,1.81.6,2,1,.24-.5.11-.42.53-.79l.2.85c.47-.92.19-1.66.12-2.79-.08-1.37.09-2.45.12-3.76-.43-1.74-.23-6.08-.35-8.64-.07.19,0,.74,0,1.05-.25,1.37-.14.74-1,1-.13-.62.14-3-.43-3.38l0,2.37c-1.15-.17-.75-.11-1.56-.76s-.61-.18-1.36-.45a.55.55,0,0,1,.16-.75c-.31,0-1.54-.55-1.65,0-.69-.56-.61.86-.61-1.21,0,0,.47-.09,0,.31S167.54,122.46,167.53,122.46Z"/><path class="c" d="M186.5,117.22l.17,1.44,0,7.15c.43.47.25,3.07.72,4.46l.11.29c.31-.53.37-.4.48-1.14,0,.66.1.61.36.89l.76.69c1.08,1.19,0,1.33,1.16,1.33l.07-1.55c.11-.43,0-.26.21-.51,1.38.47,1,1.74,1.62,2.74,0-.76,0-3.61.44-4.31a22.31,22.31,0,0,0,.34,4.06c.36.41,0,.09.32,0l.38-.14a8.1,8.1,0,0,1,.14,3.77l0,2.87c.27-.43.18-.45.2-1.15,0-.53,0-1.1,0-1.64.07-3.64-.23-20.31-.06-21,.29,1.43-.21,5.85-.2,7.62l-.12-5.5a4.23,4.23,0,0,0-1.28.11,5.12,5.12,0,0,1-.06.9s.49-.42-.28.7c-.77-1-.25-.51-.29-.7a5.84,5.84,0,0,1,0-.81c-.27-.17-.66-.37-.93-.54l-.15-2.76c0,.45,0,1.06-.05,1.49-.1,1.34.32.93-.6,1.15-.58-.06,0,.15-.28-.21l-.48-1.81a.81.81,0,0,1-.53.48l-.89.52a1.89,1.89,0,0,1-.1-.17c-.57-.88-.71-.75-.78-.84C186.8,116,186.54,116.22,186.5,117.22Z"/><path class="c" d="M228.9,122.5l.13,6.44s.06-.17.06-.14l.18-1.48a3,3,0,0,1,.18-1.57c.37.82-.1,3.35.85,4.77.25.37,0-.28.37.45-.24.66-.65.63-.21,1.41l.82,0c0-.68-.13-3.89.19-4.45.33.64,0,1.18.51,3.12a8.6,8.6,0,0,1,.12,3.33c1.53,0,1.14,0,1.24-3.19.3.51.35.55.17,1a3.61,3.61,0,0,1,1.19.23l0,1.57c.12.55,0,.2.18.48.55-.72,0-1.94.36-2.94l.44-.72.31,2.54c.14.59-.11.06.15.41l.09-3.95L236,119h-.39c.06-.83.26-2.43-.33-3.08a42,42,0,0,1-.23,4.39l-.32-1.26s0-.1-.05-.15,0-.1,0-.16a18.24,18.24,0,0,1-.05-2.17,1.63,1.63,0,0,0-1-.28s.15-.25.16-.28c.09-.34.11.07,0-.3-.66.06-.87.08-.84.83a3,3,0,0,0,.22.62c.18.3.11.21.39.37-.25,0-1,.1-1.12-.62a.3.3,0,0,0-.06-.15l-.09.12-.09.12-.23.34c-.55-.94.41-.46-.9-.65l0,2.31c-.41.22-.17,0-.53.18-.68.28-.44.38-.59,2.67,0,0,.43,0,0-.61s.09-.28-.67-.41c-.26.4-.15,0-.32.8A2.63,2.63,0,0,0,228.9,122.5Z"/><path class="c" d="M141,140.69c.67,1.87,4.75,11.52,5,12.45l9.3-.15c0-1.36-4.52-9.87-4.93-12.09l-1-2.2c-.12,1.95.5,2,.26,2.74-.07.24-.16.23-.33.66l.36,0a1.34,1.34,0,0,1,.26.59c-.43,0-1-.27-1-.43l-.28,1-.51-.87c0-.08-.06-.09-.1-.14a3.86,3.86,0,0,0-.2,1.19c-.73-1-.37-.18-.51,0s0,.28-.72.21c-1-.09.66.31-.27,0-.52-.19-.47-.79-.72-1.12,0,1.5-.15,1-1.06,1.17l-.57.21c-.83.44-.47.64-1,.86a16.24,16.24,0,0,0-.91-2.13,5.35,5.35,0,0,0-.25-.56l-.15-.27C141.21,140.86,141.54,141.19,141,140.69Z"/><path class="c" d="M213.19,130.91c.24-.27.14-.08.25-.58,0-.12,0-.7,0-.86a1.72,1.72,0,0,1,1.56.91,1.46,1.46,0,0,1-.15,2c1.78-.1.19-2.68,1-4.22.75,1.23-.58,1.62,1.36,1.65,0,.33-.23,3.82.25,4.63,0-.75,0-1.5,0-2.25a5.8,5.8,0,0,1,.2-2c.69.27.45,0,.45,2.64.73.42.09-.44.76.6a4.64,4.64,0,0,1,0-.6l.22-.62c.32.74.07,1.43.37,2,0-4.21.36-8,.54-12.07l.09,1.52c.09.53,0,.31.23.65l-.18-13-.16.31c-.18.49,0,2.78-.24,4.87l-.54-.62c0,.94-.2.73-.47.87l-.53.08c-.05.83-.26,1.13-.25,1.86.29-.42,0-.66-.08-1.23a1.43,1.43,0,0,0-.17.18l-.62.89c-1-.33.47-.11-.77-.46-1.54-.43-.31-.18-.76.26s-.56.73-1.11.78l-.09-3.24c-.47.47-.18.06-.4.75l-.51,1.83c.16-.13.3.28.17-.47s0-.32-.42-.76c0,4.4-.12,6,.07,10.53C213.33,128.89,213.08,129.77,213.19,130.91Z"/><path class="c" d="M195.82,125c.06,2.5-.29,14,.17,15.28a67,67,0,0,1,.15-9.09l.11-.52a.76.76,0,0,1,.06-.16,5.15,5.15,0,0,1,.19,1.61l1.35.2c.5-.16,0-.13.61-.63l1.14,2.63a1.89,1.89,0,0,0,.28.36,17.33,17.33,0,0,1,.41-4.2c1,1.45.17,0,.6,1.49l.12.31c.56,1.3,0-.81.32.62,0,0,0,.67,0,.72,0,1.57-.42.77.42,1.11.29-1.3.14-2.43.38-3.69a3.09,3.09,0,0,0,.27.49c.34.59.14-.11.34.71.37,1.55-.37,1.69.48,4,.07.18.08.26.16.48.28.73-.13.15.32.61a20.7,20.7,0,0,1-.72-5.11c0-2-.05-3.92-.09-5.88-.08-3.91,0-7.84-.1-11.75.1.11-.17,3.7-.21,4.46l-.12,0-.2.1c-.43.34-.24,1.24-.23,2.08l-.43.35a.7.7,0,0,0-.23.56l-.14-.13c-1.19-1.13-.62-1.08-.87-1.49-1,.16.25,0-.53.34-.61.28.69.29-.36.1-.79-.14-.57-1.19-.55-1.64l-.93.06c-.94,0-.67-.22-1.68-.26Z"/><path class="c" d="M120.85,117.94l.23,6.19c.49,1.76-.13,6,.1,7.25a2.25,2.25,0,0,0,.46,1.13,3,3,0,0,0,.77-1.4c-.35,2.5.71-.16.56,2,.57-.48.15-.77,1.73-1.08l.12,0,.25,0,.13,0,.25-.11.12-.08c.48-.29-.25-.17.45-.3s.29.45.91,1l.79-.65a18.51,18.51,0,0,0,.21,2.36,9.21,9.21,0,0,1,0,1.13c-.14,1.89.08,4.1,0,6.57.65-1.85.36-23.15.22-26.81-.25,1.76-.1,4.6-.31,6.2-.11.78.09,1.25-.39,1.45-.24-.57.06-1.35-.4-2-.87.54-.1-.17-.61.82-.86,0-1.06-.1-1.62.21-.34-.58.35-.35-.62-.94a2.9,2.9,0,0,1-.63-.39l-.7.1c0,.1-.1.31-.18.47,0-.07,0,0-.14-.2-.39-.34.25,0-.42-.29l-.32.28c-.36.42-.22.59-.37,1.12l0-3.76C121.19,118,121.07,118.1,120.85,117.94Z"/><path class="c" d="M102.37,132.72c.34.38.15.57.66.64.47-.37.34-.2.62-.9.18-.44.1-.53.25-.93.06.18.18,1,.19,1.13s.07.65.09.74c.1.52,0,.53.32.88.34-.48.15,0,.19-.63,0,0-.08-.47-.08-.59,1-.13.55-.55,1.52-.29,0,1.13-.25,2,.56,2.8l0-1.57c.5-.36-.89.3.46-.15l.15-.06a3.69,3.69,0,0,1,0-1.8,1.36,1.36,0,0,1,.74-1.27c0,.36,0,.91,0,1.24,0,.86.07,1,.41,1.43.69-.34.21.07.52-.58,0,0,.15-.8.16-.81a8.43,8.43,0,0,0,.14-1.64,6.33,6.33,0,0,1,.18-1.74c0-.06,0-.11.06-.17s0-.11.05-.17a4.76,4.76,0,0,0,.11-1.57c0-1.18.13-6.67,0-7.29l.25-2.27c-.31.25,0-.2-.4.47a9.2,9.2,0,0,0-.42,2l-.17,1.17,0,.11-.51.44a2.77,2.77,0,0,1,.17-1.39l-1.34,0a4.41,4.41,0,0,1,.18,1.29.3.3,0,0,0-.1-.16c-.44-.23.27-.24-.28,0v1.34c-.27-1.3.16-.21-.59-1.06-.55-.62-.07-.35-.6-.54-.25.54-.11.68-.24,1-.32.8-.91.44-.87,1.25s0-.14.28.56l-.94,0c-.28-.55-.24-1.07-1.22-1.15C102,123.39,102.3,131.79,102.37,132.72Z"/><path class="c" d="M167.53,122.46s-.14.28.32-.09,0-.31,0-.31c0,2.07-.09.66.61,1.21.12-.55,1.35,0,1.65,0a.55.55,0,0,0-.16.75c.75.27.7-.08,1.36.45s.41.59,1.56.76l0-2.37c.57.38.29,2.76.43,3.38.83-.21.73.42,1-1,.06-.31-.05-.86,0-1.05.12,2.56-.08,6.9.35,8.64h0c0-5-.17-10.32.31-15.22l.67-2.44c-.37.11-.22,0-.58.58,0,0-.06.19-.08.16s0,.11-.08.17a10.62,10.62,0,0,0-1.81,0c-.68.06-.83.38-1.2-.21s.15-.91-.07-1.36-.39-.08-1.07-.59c0-.78-.19-.55.18-1.07l-2.11-.08c-.26-.06-.56,0-.67-.53,0,0,0-.1,0-.15l0-2.59c.05,1.43-.35,4.3-.44,6.05C167.6,117.9,167.52,120.1,167.53,122.46Z"/><path class="c" d="M185.85,137.2c.14.55.24.46,0,1l-.5.66c.55.43.24.37.78.85.26-.39.23-.35.17-1.13,1.11.56,0,.31,1.45.07a3.63,3.63,0,0,0,.06,1.57,6,6,0,0,0,.19.61l.26.59a1.32,1.32,0,0,0,.07.15l0-2.55c.43.56,1,.17,1.2.27-.06,1.57-.05-.17-.58,1,.91.55.33-.21.7.67.17.4,0,.63.49,1.13.06-.11.15-2.48.16-3.13.74.89-.16,1.39.85,1.71.27-.46.12-.49.18-1.42l.47,1.54s0,.09,0,.13a2.25,2.25,0,0,0,.21,1.31l.19-2,.76.64c.1-.21.56-1.83.58-2a10.46,10.46,0,0,1,.22-2.49,8.1,8.1,0,0,0-.14-3.77l-.38.14c-.36.12,0,.45-.32,0a22.31,22.31,0,0,1-.34-4.06c-.43.71-.43,3.56-.44,4.31-.65-1-.24-2.27-1.62-2.74-.18.25-.1.08-.21.51l-.07,1.55c-1.16,0-.08-.14-1.16-1.33l-.76-.69c-.26-.28-.32-.23-.36-.89-.11.74-.17.61-.48,1.14l-.11-.29c-.47-1.4-.29-4-.72-4.46C186.69,129.78,186.85,133.94,185.85,137.2Z"/><path class="c" d="M134.5,153.27l2.33-.08a45.43,45.43,0,0,0,.1-6.78,1.31,1.31,0,0,0-.09.19l-.48.9c-.27.4-.15-.13-.46.73-.77-.27.34.13-.32-.16l-.38-.15c0-.1-.15-.06-.23-.08-.25,1.07-.17-.17-.8,1.49a10.38,10.38,0,0,0-.56,1.52c-.1.52.08,1.41-.22,1.75-.44.49-.57-.1-1.3.28l.26-2.65c.56-.27.31,0,.8-.48-.65-.21-.24.29-.41-.54,0-.09,0-.94,0-1.09a5.28,5.28,0,0,0-1.7.19c-.5-1.07-.47-.37-.44-1.19,0-.46,0-1.18-.06-2s-.17-1.09-.2-2c0-.28,0-1,0-1.23-.17-1.28,0-.43-.34-.87l-.16,12.26Z"/><path class="d" d="M242.31,147.15a2.11,2.11,0,0,1,1.55.61,2.23,2.23,0,0,1,.61,1.61,2.19,2.19,0,0,1-.62,1.61,2.23,2.23,0,0,1-3.11,0,2.38,2.38,0,0,1,0-3.2,2.1,2.1,0,0,1,1.55-.61Zm0,.52a1.42,1.42,0,0,0-1.12.49,1.93,1.93,0,0,0,0,2.43,1.45,1.45,0,0,0,1.17.51,1.48,1.48,0,0,0,1-.42,1.68,1.68,0,0,0,.5-1.29,1.79,1.79,0,0,0-.42-1.21,1.44,1.44,0,0,0-1.12-.49Zm-.86.51h.85q1,0,1,.72t-.56.62l.59,1h-.59l-.54-1h-.23v1h-.5v-2.4Zm.5.41v.58h.42a.53.53,0,0,0,.27-.05.27.27,0,0,0,.1-.25.24.24,0,0,0-.13-.24,1,1,0,0,0-.31,0Z"/></svg>