<svg xmlns="http://www.w3.org/2000/svg" viewBox="0 0 250 250"><title>Grocery</title><path d="M147.27,120.5c-3.42-5-9.86,1.81-9.86,1.81s-6.84,5.23-8.45,8.25c-5.23,1-42.25,7.65-70,3s-21.09-14-1.41-21.53c19.52-7.45,32-9.06,51.11-9.86,0,0,17,.84,19.52,3a3.11,3.11,0,0,1,1,2.92c7.71-6.75,3.42-13.68-29-11.37C67.35,99.1,38.82,107.22,36.41,121.7S52.5,144,88.32,142.83s36.22-3.82,39-3.62A24.47,24.47,0,0,0,130,136c2,2.21,5.23,5.63,11.27,1.21s10.44-10.22,6-16.7ZM139,133.17s-4,2.56-4.42.8c-1.21-5.63,4.22-7.65,5.63-8.25a3,3,0,0,1,3.22-2.62c5.49,0-.8,7.24-4.43,10.06ZM198.6,125c6.95-.71,10.16.3,11.17.5-.2-2,2-4.59-7.14-4.43-11.27.2-11.87,2.21-11.87,2.21-4.94,4.82.69,7.83,4.83,7.65,4.53-.2,5.44,1.41,5.44,1.41-3.62.4-11.47,0-13.08.61s-9.05,4.42,2.21,4.83c12.06.43,24.1-1.43,14.69-9.05L196,126.53s-4-.84,2.61-1.51Z" style="fill:#ed1c24"/><path d="M166.47,132.82c-3.35,2.32-8.28,4.25-12.67,5.78,0,0-.2,2-.4,6.44s2.21,11.47-2.22,9.66l-2.82-2.82c-1-11,.6-21.73,2-28.77,1.34-6.71-.4-5,4.23-5.23,2.82-.12,2.21,2,1.81,3.62,1.61-.6,8.51-2.3,12.47,2.21a6.42,6.42,0,0,1,1.37,2.3,4.33,4.33,0,0,1-.67,3.85,10.14,10.14,0,0,1-2.14,2.24c-.31.25-.64.49-1,.73l0,0,0,0Zm-5.83-8.71s-5,.6-5.63,1.41c0,2.21-1,7.74,0,7.45,6.44-1.81,19.08-9.85,5.63-8.86Z" style="fill:#ed1c24"/><path d="M170.43,131.56s.12-.67.3-1.7l.67-3.85c.42-2.47.86-5.13,1-6.52,5.44-2.62,4.83,0,4.83,2.21,7.24-1.81,9.05,1.21,9.05,1.21,7,5.83-6,12.37-11.07,14,0,0-.1,1.51-.3,8.35-.21,7.15,3,9.56-3.92,7.24-2.63-.88-1.21-13.68-1.21-16.5-2-1.61-2.46-2.54-2.23-3.13v0a1.64,1.64,0,0,1,1-.73c.55-.21,1.24-.35,1.84-.54Zm5.64,0c5.84-1.41,13.51-8.52,7-7.44-6.64,1.11-7,2.42-7,2.42a43,43,0,0,0,0,5Zm36.3-14.66v.49h-1v2.5h-.59v-2.5h-.95v-.49h2.5Zm3.23,3-.11-1.76c0-.23,0-.51,0-.84h0c-.08.26-.16.62-.25.89l-.54,1.66H214l-.53-1.7-.22-.85h0c0,.27,0,.57,0,.84l-.11,1.76h-.57l.22-3h.9l.51,1.46a6.71,6.71,0,0,1,.2.76h0c.07-.26.14-.53.2-.74l.52-1.48H216l.22,3h-.6Z" style="fill:#ed1c24"/></svg>