<svg xmlns="http://www.w3.org/2000/svg" viewBox="0 0 250 250"><defs><style>.a{fill:#231f20;}</style></defs><title>Fast Casual</title><path class="a" d="M86.25,117.68c5.41,0,8.91-3.89,8.91-9.91a11.29,11.29,0,0,0-2.26-7.05C91.4,98.86,89.23,98,86.29,98c-6.35,0-8.6,5.34-8.6,9.91s2.24,9.81,8.56,9.81Zm0-3c-4.69,0-5-5.27-5-6.89a9.43,9.43,0,0,1,1.13-4.59A4.34,4.34,0,0,1,86.49,101a4.44,4.44,0,0,1,3.91,1.85,9.38,9.38,0,0,1,1.2,4.79c0,2.11-.52,7-5.32,7Z"/><path class="a" d="M161.44,102.32a8.4,8.4,0,0,0-6.64,3.18,11.34,11.34,0,0,0-2.12,7c0,5.81,3.38,9.57,8.6,9.57a9,9,0,0,0,5.88-2.1,5.34,5.34,0,0,0,2-3.79,1.64,1.64,0,0,0-1.73-1.65c-1.14,0-1.41,1-1.6,1.66-.63,2-1.9,2.86-4.36,2.86a4.85,4.85,0,0,1-3.61-1.46,6.63,6.63,0,0,1-1.66-4.62s0-.12,0-.16,1.33.1,11.43.13c2,0,2-.43,2-2.24,0-4.92-3.38-8.35-8.22-8.35Zm3.68,7.49-8.61-.06s.1-.25.1-.25l0-.15h0a5,5,0,0,1,4.9-4c2.49,0,4.22,1.71,4.5,4.45Zm-7.78.07Zm-.85-.07h0Zm9.6,0c0-.14,0-.28-.06-.42,0,.15.06.27.08.42Z"/><path class="a" d="M58.92,118.1a7.67,7.67,0,0,0,5.77,1.6,7.55,7.55,0,0,0,5.41-2.9,7.93,7.93,0,0,0,1.48-4.59,1.69,1.69,0,0,0-1.82-1.47c-1.31.14-1.46,1.29-1.59,2.22l0,.32a3.93,3.93,0,0,1-3.58,3.44c-4.52.47-5.41-4.59-5.57-6.15-.35-3.3.86-6.8,4.34-7.16,1.22-.12,3.2.36,3.55,1.81h0a1.66,1.66,0,0,0-1.52,1.67v.2a2.08,2.08,0,0,0,.78,1.44,2.42,2.42,0,0,0,1.78.51c2.11-.22,2.67-2.13,2.51-3.71a5.58,5.58,0,0,0-2.87-4.07,7.68,7.68,0,0,0-4.41-.82c-5.69.6-7.68,4.94-7.68,9.29a14.31,14.31,0,0,0,.08,1.54,10,10,0,0,0,3.37,6.82ZM66.83,105a1.83,1.83,0,0,1,.1.24h0a1.71,1.71,0,0,0-.09-.24Z"/><path class="a" d="M105.23,119.77h0l2-.15,2.39.27,1,.16c.92-.06,1.85-.57,1.86-1.55a1.42,1.42,0,0,0-.39-1,1.51,1.51,0,0,0-1.07-.44l-1.57.17-.4-.19a3.33,3.33,0,0,1-.32-1.8l.07-3.9c0-2.21.07-5,1.49-6.34a3.47,3.47,0,0,1,2.59-.88c1.27,0,2.64.82,2.66,2.05a3.47,3.47,0,0,0-.13.46.26.26,0,0,0-.15-.07,1.74,1.74,0,0,0-1.24.49,1.82,1.82,0,0,0-.56,1.28,2.08,2.08,0,0,0,2.13,2c2.35,0,3.22-1.92,3.26-3.78.06-3.53-2.92-5.18-5.72-5.23a5.86,5.86,0,0,0-4.56,2,1.35,1.35,0,0,0-1.23-1.58l-.68.13-.56.09-.75.11-1-.21-.84-.18c-.89,0-1.93.49-1.95,1.55a1.42,1.42,0,0,0,1.46,1.48l1.24-.09.73-.07.39.18a2.9,2.9,0,0,1,.27,1.59V107l-.13,7.61v.57c0,.36,0,1.45-.36,1.82l-.2.07-.14,0-1.47-.22a1.44,1.44,0,0,0-1.56,1.42c0,1.06,1,1.54,1.81,1.62l1.64-.15Zm3.27-16.29v0h0v0Zm.63-.59Zm6.37,3.72,0,0,0,.1,0,0,0,0h0Z"/><path class="a" d="M146.72,116.18l-1.59.26-.4-.16c-.33-.34-.35-1.58-.36-2.11v-.28l-.22-6.45c-.08-2-.26-3.84-1.89-5.26a7.81,7.81,0,0,0-5.33-1.77,7.45,7.45,0,0,0-5.43,2.42,2.32,2.32,0,0,0,0-.25,1.3,1.3,0,0,0-1.32-1.49l-.6.17-1,.22-.26.05-.9-.14-.9-.17c-.94.11-1.87.67-1.83,1.68a1.48,1.48,0,0,0,.46,1,1.58,1.58,0,0,0,1.11.39l1.59-.27.4.16a4.37,4.37,0,0,1,.36,2.12v.27l.27,7.81v.27l0,.75a2.26,2.26,0,0,1-.31,1.44l-.3.13a11.33,11.33,0,0,1-1.58-.14,1.46,1.46,0,0,0-1.49,1.54,1.76,1.76,0,0,0,1.85,1.55l1.66-.24,2.05-.27,2.17.15.91.11c.94-.11,1.85-.67,1.81-1.68a1.45,1.45,0,0,0-1.56-1.43l-.62.13-.53.14-.4-.17c-.33-.33-.35-1.58-.36-2.11v-.27l-.15-4.16,0-1.31a6.61,6.61,0,0,1,.72-3.4,4.77,4.77,0,0,1,3.89-2,4,4,0,0,1,3.55,1.62,7.64,7.64,0,0,1,.63,3.48L141,114v.28l0,.76a2.26,2.26,0,0,1-.31,1.43l-.33.13-.66-.07-.58-.07a1.55,1.55,0,0,0-1.11.47,1.47,1.47,0,0,0-.39,1.07,1.77,1.77,0,0,0,1.85,1.55l1.33-.24,2.07-.27,2.48.15,1,.11c.93-.12,1.85-.68,1.81-1.68a1.46,1.46,0,0,0-1.56-1.43Zm-14.66-13.85a5.37,5.37,0,0,0-.57.58s0,0,0,0a6.2,6.2,0,0,1,.57-.53Z"/><path class="a" d="M178.18,105.08l1.24-.25.63-.14a4.58,4.58,0,0,1,.51.11c.38.33.49,1.5.55,2.12,0,0,0,.23,0,.23l.82,7.74,0,.31.11,1.2a1.62,1.62,0,0,1-.21,1l-.19.09-.16.08s-1.53-.06-1.53-.06a1.46,1.46,0,0,0-1.38,1.63,1.8,1.8,0,0,0,2,1.42l1.61-.35,2.05-.42,2.46,0,1.08,0c.92-.18,1.79-.81,1.69-1.81a1.53,1.53,0,0,0-.53-1,1.55,1.55,0,0,0-1.14-.31l-1.2.28-.37.09-.39-.12c-.44-.37-.58-1.72-.63-2.23l-.37-3.53-.22-3a5.61,5.61,0,0,1,.93-3.58,3.52,3.52,0,0,1,2.52-1.22c1.31-.14,2.81.51,3,1.8l-.07.45a.25.25,0,0,0-.16-.06,1.73,1.73,0,0,0-1.2.65,1.85,1.85,0,0,0,.29,2.62,2.39,2.39,0,0,0,1.72.49c2.37-.25,3-2.35,2.82-4.23a4.85,4.85,0,0,0-1.77-3.36,6.38,6.38,0,0,0-4.66-1.22,6,6,0,0,0-4.5,2.68v0a.16.16,0,0,0,0-.1,1.29,1.29,0,0,0,0-.14,1.22,1.22,0,0,0-1.35-1.32l-.68.22-1.3.37-1.08-.08-.88-.1c-.9.17-1.89.73-1.78,1.81a1.47,1.47,0,0,0,.53,1,1.55,1.55,0,0,0,1.13.31Zm12.9.47,0,0s0,.05,0,.1l0,0a0,0,0,0,1,0,0h0Zm-7-3a7.49,7.49,0,0,0-.52.68h0s0,0,0-.05a6.14,6.14,0,0,1,.53-.63Z"/><path class="a" d="M139.06,132a8.41,8.41,0,0,0-6.72,3,11.38,11.38,0,0,0-2.28,6.92c-.13,5.81,3.16,9.64,8.38,9.76a9,9,0,0,0,5.93-2,5.35,5.35,0,0,0,2.1-3.75,1.63,1.63,0,0,0-1.68-1.69c-1.14,0-1.43.92-1.64,1.62-.67,2-2,2.81-4.42,2.75a4.88,4.88,0,0,1-3.58-1.54,6.62,6.62,0,0,1-1.55-4.47c0-.07,0-.13,0-.19s0-.12,0-.15,1.33.12,11.43.39c1,0,1.42-.07,1.68-.32s.34-.87.37-1.88a8.47,8.47,0,0,0-2.2-6.12,8.11,8.11,0,0,0-5.82-2.42Zm4.39,7.58c-.4-.06-7.08-.22-7.08-.22l-2.41-.05s.11-.25.11-.25l0-.14h0a5,5,0,0,1,5-3.88c2.49.06,4.17,1.8,4.39,4.55Zm.09,0c0-.14,0-.27-.05-.41,0,.14,0,.26.06.41Z"/><path class="a" d="M66.85,133.24a6.25,6.25,0,0,0-4.8,2.19V133.9l-.05-5c0-1-.21-1.26-1.4-1.24l-1.76.4-.83-.17-.81-.16a2.39,2.39,0,0,0-1.7.6,1.44,1.44,0,0,0,0,2,1.46,1.46,0,0,0,1.07.4l1.53-.22.38.16a4,4,0,0,1,.3,1.91V133l.3,16.91c0,1,0,2,1.51,2a1.53,1.53,0,0,0,1.12-.44,1.47,1.47,0,0,0,.39-1c0-.09,0-.25-.05-.33l0,0a6,6,0,0,0,.53.63,5.7,5.7,0,0,0,4.2,1.41,7.47,7.47,0,0,0,5.46-2.25A10.9,10.9,0,0,0,75,142.14c-.1-5.57-3.21-9-8.12-8.9ZM63,147a12.58,12.58,0,0,1-.76-4.75,7.48,7.48,0,0,1,.91-4.08,4.46,4.46,0,0,1,3.54-2,4.16,4.16,0,0,1,3.08,1.1,7.45,7.45,0,0,1,1.76,5.24A7.68,7.68,0,0,1,69.85,148a4.22,4.22,0,0,1-3.09,1.26A3.86,3.86,0,0,1,63,147Zm-.29-12,0,0h0l0,0Zm-.74,15v0l0,0Zm0-14.31v0Zm.55-.64,0,0,0,0Zm0,0-.27.27-.24.21h0c.17-.17.34-.33.51-.47ZM62,150v0h0v0Z"/><path class="a" d="M98.77,144.93a1.33,1.33,0,0,0-1,.27,2.27,2.27,0,0,0-.54,1.64l0,.6c0,.7-.11,1.76-.56,2.14l-.54.15s-.54-.28-.54-.28a2.06,2.06,0,0,1-.27-1.2,11,11,0,0,1,.14-1.49l0-.36c0,.07,0,.07.66-6,.24-2.26.07-4.05-1.5-5.5a8.12,8.12,0,0,0-4.65-1.82,8.52,8.52,0,0,0-4.71.89,4.8,4.8,0,0,0-2.53,3.51,1.57,1.57,0,0,0,.29,1.25,1.69,1.69,0,0,0,1.53.86,2,2,0,0,0,2.31-1.5,1.12,1.12,0,0,0-.31-1.24h0c0,.05.66-.38.66-.38a5.07,5.07,0,0,1,2.45-.47c1.28.12,3.4.65,3.2,3-.17,1.93-2.17,1.93-3.93,1.93h-1a9.28,9.28,0,0,0-4.3.83A4.86,4.86,0,0,0,80.74,146a5,5,0,0,0,2,4.45,7.71,7.71,0,0,0,4.05,1.38,6.54,6.54,0,0,0,5.6-1.88h0a.05.05,0,0,0,0,0,2,2,0,0,0,.09.39,3.41,3.41,0,0,0,3.13,2.1,3.78,3.78,0,0,0,3.32-1,4.62,4.62,0,0,0,.94-2.82l.05-.49.05-.35a7.76,7.76,0,0,0,.11-1.14,1.86,1.86,0,0,0-.34-1.18,1.34,1.34,0,0,0-1-.49Zm-6.4,4.86v0l0,0Zm-.16-5.17a4.15,4.15,0,0,1-5.11,4.26c-1.41-.13-2.93-.84-2.93-2.48v-.26c.16-1.89,2-2.14,3.81-2.15h.48a8.14,8.14,0,0,0,4-.79v.05c-.09.29-.23,1.38-.23,1.38Zm.24-1.47a3.94,3.94,0,0,1-.48.21,3.7,3.7,0,0,0,.48-.25s0,0,0,0Zm-.65,7.29.09-.08.52-.47h0a6.92,6.92,0,0,1-.61.55Z"/><path class="a" d="M163.37,135.64a5.8,5.8,0,0,0-4.67,1.64l.29-.22a5.17,5.17,0,0,0-.4.37v0l0-.07.08-.06-.08,0a.1.1,0,0,0,0,0,1.39,1.39,0,0,0,.1-.27h0a1.26,1.26,0,0,0-1.13-1.4l-.68.09-1.31.11a5.38,5.38,0,0,0-.9-.25l-.93-.27c-.89,0-1.95.34-2,1.4a1.43,1.43,0,0,0,1.35,1.58h2l.37.2a2.13,2.13,0,0,1,.18,1l-.07,1.07,0,.22-.66,7.53s0,.31,0,.31c0,.59-.1,1.68-.5,2l-.37.1s0,0-1.25-.3l-.19,0a1.5,1.5,0,0,0-1.13.33,1.41,1.41,0,0,0-.5,1c-.09,1,.85,1.58,1.68,1.73l1.63,0,2,0,.84.16,1.54.29,1,.23c.92,0,1.88-.45,2-1.42a1.42,1.42,0,0,0-.31-1.06,1.53,1.53,0,0,0-1-.51l-1.56.07-.39-.22a2.36,2.36,0,0,1-.21-1.18l.06-1,.3-3.42c.18-2.19.4-4.91,1.9-6.17a3.41,3.41,0,0,1,2.61-.68c1.23.11,2.49.92,2.49,2.1v.14h0l-.14.4a.39.39,0,0,0-.14-.07,1.62,1.62,0,0,0-1.26.38,1.8,1.8,0,0,0-.66,1.23,1.82,1.82,0,0,0,.43,1.34,2.31,2.31,0,0,0,1.55.79c2.32.2,3.32-1.68,3.48-3.51a4.74,4.74,0,0,0-1.07-3.53,6.2,6.2,0,0,0-4.22-2Zm1.92,5.48h0l0,0a.05.05,0,0,1,0,0Z"/><path class="a" d="M125.79,149.12l-1.18.28c-.26,0-.95-.18-2.61-2l-5.16-5.2a43.38,43.38,0,0,0,3.24-3.69c.46-.54,1-1.16,1.62-1.19l.69,0,.63,0a1.23,1.23,0,0,0,.87-.47,1.5,1.5,0,0,0,.28-1.12,1.57,1.57,0,0,0-1.68-1.37l-1,.24-2.4.54-2,.05h-1.53a3.28,3.28,0,0,0-2.08.82,1.17,1.17,0,0,0-.24.72c0,.06,0,.12,0,.19a1.72,1.72,0,0,0,1.92,1.35l1.4-.52.13,0a2.33,2.33,0,0,0-.32.52l-.12.14-4.58,5.43a.07.07,0,0,1,0,0,.21.21,0,0,0,0-.11,1.55,1.55,0,0,0,0-.17l-.05-.43-1.38-11.77c-.05-.48-.2-1.64-1.55-1.52l-.55.19-1.33.41-1-.06-.86-.08a1.72,1.72,0,0,0-1.53,1.76,1.41,1.41,0,0,0,1.63,1.25l.95-.24.55-.14.39.12c.34.29.46,1.43.51,2l0,.27,1.66,13.54,0,.26.12,1.21a1.58,1.58,0,0,1-.2.9l-.23.12c-.06,0-1.57,0-1.57,0a1.52,1.52,0,0,0-1,.54A1.45,1.45,0,0,0,106,153a1.71,1.71,0,0,0,1.78,1.36l1.57-.37,2-.43,2.39-.06.72.06c1.11-.38,1.61-1,1.51-1.83a1.36,1.36,0,0,0-1.6-1.26l-1.08.3c-.24,0-.46-.12-.79-2.31l-.21-1.11c0,.07,2.45-2.66,2.53-2.76l0,.06c.35.52,3.53,3.8,3.91,4.19l.71.78.35.45h0a1,1,0,0,0-.33-.07l-.68,0a1.52,1.52,0,0,0-1,.54,1.43,1.43,0,0,0-.28,1.07,1.69,1.69,0,0,0,1.6,1.38l1.34-.37,1.95-.43,2.4-.06,1,0c.89-.19,1.73-.82,1.61-1.78a1.41,1.41,0,0,0-1.63-1.24Zm-8.94-11.38v0Zm0,4.53-.08-.08h0l.08.09Zm-4.8,1.31-.32.38a.19.19,0,0,0,0,0c.06-.06.17-.17.32-.34Zm2.56,1.13.16-.18h0a1.33,1.33,0,0,0-.18.16Zm5.26,5.3,0,0h0v0Z"/><path class="a" d="M193.51,134.37l-1.06.06-2.39.05-1.94-.32-1.11-.28a1.71,1.71,0,0,0-1.74,1.44,1.42,1.42,0,0,0,.34,1,1.48,1.48,0,0,0,1,.49l.61-.1.5-.1c.4,0,.4.15.4.23s-.25.8-.26.82l-.11.25-4.45,9.88-.19-.73-2.69-10.6,0-.27a.46.46,0,0,0,0-.13s.08,0,.08,0,0,.06.66.25l.34.12a1.53,1.53,0,0,0,1.18-.33,1.4,1.4,0,0,0,.47-1,1.7,1.7,0,0,0-1.61-1.67l-.81.06h-.58l-1.83,0-2-.33-1.47-.27a1.71,1.71,0,0,0-1.77,1.44,1.4,1.4,0,0,0,.33,1,1.46,1.46,0,0,0,1,.49l.61-.11,1-.12c.42,0,.84,1.42,1,1.88,0,0,0,0,3.32,10.58a8.54,8.54,0,0,1,.6,3,4.64,4.64,0,0,1-1.62,2.71,4.1,4.1,0,0,1-3.06,1,2.13,2.13,0,0,1-1.43-.64h0l.06,0a1.26,1.26,0,0,0,.94-1.19s0-.16,0-.16a2,2,0,0,0-2.06-2,2.43,2.43,0,0,0-1.78.59,2.71,2.71,0,0,0-.91,1.92A3.4,3.4,0,0,0,172,156a6.09,6.09,0,0,0,4,1.85c5.61.39,7.89-4.32,9.91-8.49l5.24-10.87c.2-.41.7-1.47,1.08-1.47l.29.13.23.09.22.11c.94,0,1.88-.44,2-1.41a1.41,1.41,0,0,0-.33-1,1.47,1.47,0,0,0-1-.48Zm-10.17,13.51c.06-.11.21-.41.4-.81l-.43.94a.25.25,0,0,0,0-.06s0,0,0,0a.15.15,0,0,0,0,0Z"/><path class="a" d="M93.75,177.34a7,7,0,0,1-3.95,1.14,5.6,5.6,0,0,1-5.85-5.85,5.79,5.79,0,0,1,6-5.91,6.45,6.45,0,0,1,3.65,1v2.55a6.41,6.41,0,0,0-3.46-1.18,3.5,3.5,0,1,0-.06,7,7.09,7.09,0,0,0,3.64-1.27v2.51Z"/><path class="a" d="M120.24,178.33h-2.7l-.83-2.27h-4.5l-.76,2.27h-2.65l4.05-11.46h2.9l4.47,11.46Zm-5.89-8.72-1.47,4.45H116l-1.62-4.45Z"/><polygon class="a" points="142.48 168.97 138.06 168.97 138.06 171.53 142.48 171.53 142.48 173.63 138.06 173.63 138.06 178.34 135.55 178.34 135.55 166.87 142.48 166.87 142.48 168.97 142.48 168.97"/><polygon class="a" points="166.05 178.34 158.64 178.34 158.64 166.87 165.95 166.87 165.95 168.97 161.14 168.97 161.14 171.38 165.73 171.38 165.73 173.48 161.14 173.48 161.14 176.23 166.05 176.23 166.05 178.34 166.05 178.34"/><polygon class="a" points="86.31 86.95 82.51 79.97 85.99 78.08 86.63 79.26 84.48 80.43 85.36 82.03 87.04 81.12 87.68 82.3 86 83.21 87.64 86.22 86.31 86.95 86.31 86.95"/><polygon class="a" points="92.11 83.95 89.04 76.63 92.88 75.03 93.39 76.27 90.96 77.28 91.67 78.97 93.52 78.19 94.04 79.42 92.18 80.2 92.98 82.13 95.52 81.07 96.04 82.31 92.11 83.95 92.11 83.95"/><polygon class="a" points="98.76 81.34 96.44 73.75 100.41 72.53 100.81 73.81 98.28 74.58 98.82 76.33 100.74 75.74 101.13 77.02 99.21 77.61 99.82 79.61 102.45 78.81 102.84 80.09 98.76 81.34 98.76 81.34"/><path class="a" d="M104.06,71.6l2.07-.42c1.7-.34,2.8.2,3.26,2.15l.48,2.39c.33,2-.47,2.9-2.17,3.24l-2.07.42-1.57-7.78Zm2.79,6.17.52-.1c.82-.16,1.22-.65,1-1.81l-.41-2c-.22-1.1-.68-1.48-1.61-1.29l-.52.11,1,5.15Z"/><polygon class="a" points="122.16 69.38 122.22 70.71 120.46 70.8 120.77 77.39 119.26 77.46 118.94 70.87 117.17 70.96 117.11 69.62 122.16 69.38 122.16 69.38"/><polygon class="a" points="125.17 77.3 125.53 69.37 127.04 69.44 126.91 72.6 129.04 72.69 129.19 69.53 130.7 69.6 130.35 77.53 128.83 77.46 128.98 74.04 126.84 73.94 126.69 77.37 125.17 77.3 125.17 77.3"/><polygon class="a" points="133.43 77.84 134.53 69.98 138.65 70.56 138.46 71.88 135.85 71.51 135.6 73.32 137.59 73.6 137.4 74.93 135.41 74.65 135.12 76.72 137.84 77.1 137.65 78.43 133.43 77.84 133.43 77.84"/><path class="a" d="M147.4,72.46l2,.62c1.66.51,2.36,1.51,1.85,3.44l-.72,2.33c-.65,1.9-1.79,2.33-3.45,1.82l-2-.62,2.32-7.59Zm-.48,6.75.51.15c.8.24,1.38,0,1.73-1.13l.61-2c.33-1.07.11-1.63-.8-1.9l-.5-.16-1.54,5Z"/><path class="a" d="M152,82.26l4.94-6.52,1.79.77-1.37,8.05L156,84l.31-1.69-1.93-.83-1,1.37L152,82.26Zm3.18-1.91,1.39.59.59-3.24h0l-2,2.66Z"/><polygon class="a" points="163.38 82.46 166.08 80.31 167.49 81.1 163.28 84.15 161.7 86.95 160.38 86.2 161.96 83.41 162.39 78.22 163.8 79.02 163.38 82.46 163.38 82.46"/><path class="a" d="M202.11,49.07H188.19c-15.57-3-46.73-5.87-63.19-5.87s-47.36,2.9-62.81,5.87H47.89a4.69,4.69,0,0,0-4.68,4.68V195.92a4.69,4.69,0,0,0,4.68,4.68H61.56c15.57,3,46.77,5.87,63.27,5.87s47.82-2.9,63.45-5.87h13.84a4.69,4.69,0,0,0,4.68-4.68V53.75a4.69,4.69,0,0,0-4.68-4.68Zm1.32,144.6a3.58,3.58,0,0,1-3.57,3.58H179.58c-6.39.6-14,1.14-21.73,1.58-12.13,1.15-24.55,1.93-33,1.93s-21-.79-33.21-2c-7.47-.43-14.77-1-21.07-1.55H50.14a3.58,3.58,0,0,1-3.58-3.58V56a3.58,3.58,0,0,1,3.58-3.58H70.8c6.42-.61,13.89-1.15,21.53-1.58,12-1.15,24.28-1.93,32.67-1.93s20.8.78,32.88,1.93c7.66.43,15.16,1,21.61,1.58h20.37A3.58,3.58,0,0,1,203.43,56V193.67Z"/><path class="a" d="M189.93,203.93c-.12-.37-.29-.53-.55-.53a.38.38,0,0,0-.41.43c0,.59,1.67.64,1.67,1.86a1.1,1.1,0,0,1-1.25,1.12,1.27,1.27,0,0,1-1.28-1.1l.74-.16c.09.47.36.64.58.64a.44.44,0,0,0,.46-.47c0-.74-1.67-.75-1.67-1.84a1,1,0,0,1,1.18-1.1,1.17,1.17,0,0,1,1.2.95l-.67.2Z"/><polygon class="a" points="191.34 206.75 191.34 202.84 192.39 202.84 193.06 205.41 193.07 205.41 193.75 202.84 194.8 202.84 194.8 206.75 194.16 206.75 194.16 203.67 194.15 203.67 193.35 206.75 192.79 206.75 191.99 203.67 191.98 203.67 191.98 206.75 191.34 206.75 191.34 206.75"/></svg>