<svg xmlns="http://www.w3.org/2000/svg" xmlns:xlink="http://www.w3.org/1999/xlink" viewBox="0 0 250 250"><defs><linearGradient id="a" x1="42.66" y1="126.67" x2="106.97" y2="126.67" gradientUnits="userSpaceOnUse"><stop offset="0" stop-color="#fff"/><stop offset="1" stop-color="#fff" stop-opacity="0.2"/></linearGradient></defs><title>CR</title><path d="M53.54,101.26H199s20.51-1,15.1,13.84C208.5,130.42,201.56,148,201.56,148a1.33,1.33,0,0,1-1.18.71H48.23s-18.74,1-11.61-15.53,13-29.86,13-29.86A4.5,4.5,0,0,1,53.54,101.26Z" style="fill:#fab933"/><path d="M145.38,114.61a7.36,7.36,0,0,0,1.74-4.1c.15-1.13.67-1.21,1.55-1.2,3.17,0,6.34,0,9.51,0,14.31,0,28.62.1,42.92,0,4.29,0,7.61,3.72,5.67,8.14-.78,1.8-1.24,3.73-2.89,5a4.26,4.26,0,0,1-1.92,1c-.81.14-1.08.58-.66,1.39q1.32,2.56,2.55,5.16a2.15,2.15,0,0,1,0,2.28c-1,1.08-1,2.51-1.48,3.73-1.11,2.61-2,5.32-3,8a1.55,1.55,0,0,1-1.68,1.09c-6.52,0-13,0-19.57,0-1,0-2,.16-2.21-1.38-.1-.7-.88-1.38-1.5-1.9-1.11-.93-2.65-.13-2.82,1.7-.14,1.54-.9,1.61-2.09,1.61-6.38,0-12.77,0-19.15,0a4.72,4.72,0,0,1-1.92-.24c-1.89-.81-2.79-3.76-1.75-5.82.29-.57,1-1.34.13-1.7s-2-.55-2.51.69c-.82,1.94-1.67,3.88-2.36,5.87-.3.85-.65,1.22-1.56,1.19-1.72,0-3.45,0-5.17,0-1,0-1.21-.38-.78-1.28.81-1.74,1.24-3.64,2.22-5.31.22-.37.48-.81.09-1.13s-1-.14-1.49-.16-.51.34-.63.72c-.41,1.3-.83,2.61-1.37,3.87a5.11,5.11,0,0,1-5,3.24c-4.94.05-9.88,0-14.82.06-1.11,0-1.32-.44-.94-1.36a24.86,24.86,0,0,0,1.52-4.74.93.93,0,0,1,.12-.39c1-1.28.92-1.31,1.35-3.33a17.12,17.12,0,0,1,1.49-3.59c.16-.34.48-.66.34-1-.58-1.49-1.15-3-1.87-4.4-.32-.63-1.49-.18-1.77.69-.45,1.39-1.36,2.6-1.63,4.06-.12.62-.58.63-1.07.63-3.5,0-7,0-10.49,0-.45,0-1.12.19-.65-.78.22-.46-.44-.36-.68-.28-5.23,1.8-10.65,1.32-16,1.21-2,0-4.09.18-5.94-.94a.53.53,0,0,0-.5.05c-.89,1.13-2.12.73-3.24.73-4.85,0-9.7.09-14.54-.12-2.72-.12-5.33-.86-7.24-3.17a7.67,7.67,0,0,1-1.47-3.8,10.12,10.12,0,0,1,1.2-6,21.7,21.7,0,0,1,7.42-9.49,23.57,23.57,0,0,1,11.42-3.94c3.77-.33,7.53-.14,11.29-.26,1.32,0,2.61.4,4,0,.77-.22,1.27.09.69,1.07a16.39,16.39,0,0,0-1.21,2.78c-.19.51-.38,1.26.64,1,3.15-.77,6.36-.56,9.55-.59a48.67,48.67,0,0,1,7,.35c1.27.17,2.76.21,3.63,1.64.55.91,1.58.66,1.86-.52s.93-1.37,2-1.36c5.92,0,11.84,0,17.76.08,1.78,0,3.55.31,4.81,1.94.54.69,1.15-.05,1.21-.5.23-1.58,1.29-1.53,2.46-1.52,2,0,4,.11,6,0a1.75,1.75,0,0,1,2.08,1.45C144.18,112,145.14,113,145.38,114.61ZM134.59,135c1.44,0,2.89,0,4.33-.07,1-.05,1,.32.69,1.12-.8,1.93-1.54,3.89-2.28,5.85-.1.26-.43.56-.06.87.57.48,2.86,0,3.14-.75.75-1.85,1.51-3.7,2.17-5.59.39-1.1.92-1.66,2.21-1.51s2.61,0,3.91,0c.92,0,1.11-.71,1.17-1.3.08-.86-.7-.5-1.12-.5-4.19,0-8.39,0-12.58,0-1.49,0-1.68.24-1.56,1.86a2.12,2.12,0,0,1-2.23-.76.6.6,0,0,0-.73-.28c-1.47.82-3.3.33-4.83,1.44a2.92,2.92,0,0,0,2.15-.06,3.22,3.22,0,0,1,3.5.15C133.51,136.41,134.07,136,134.59,135Zm65.83-.14c.46-.37.84-.92.66-1.43s-.9-.29-1.38-.29c-2.93,0-5.87,0-8.8,0-3.36,0-3.38,0-4.66,3.13-.71,1.74-1.34,3.51-2.2,5.19-.46.9-.33,1.48.91,1.39,1-.07,2,0,3.07,0,2.79,0,5.59-.07,8.38,0a1.33,1.33,0,0,0,1.57-1.46c0-.79-.9-.4-1.36-.4-2.47,0-4.93,0-7.4,0-.49,0-1.26.22-1.4-.27a2.23,2.23,0,0,1,.64-1.77c.36-.45.94-.32,1.45-.32,2.79,0,5.59,0,8.38,0,1,0,1.11-.63,1.18-1.19.11-.9-.68-.53-1.1-.53-2.7,0-5.4-.05-8.1,0-.91,0-1.06-.33-.72-1.09.17-.39.32-.78.79-.91C193.7,135,197.07,135.13,200.43,134.9ZM156,113c.45-.73.48-1.19-.62-1.15-1.95.07-3.89.07-5.84.11-.21-.06-.32,0-.4.23q-1.63,4.31-3.28,8.61a.84.84,0,0,1-.58-.54c-.66-2.54-2-4.79-3-7.19a1.73,1.73,0,0,0-2-1.22,31.41,31.41,0,0,1-3.77,0,1.23,1.23,0,0,0-1.33.94q-3,7.67-6.06,15.32c-.29.72-.25,1,.62,1,1.72,0,3.45,0,5.17,0,.81,0,1.13-.34,1.4-1,.94-2.48,1.93-4.95,2.92-7.41.12-.3.09-.75.68-.86a43.15,43.15,0,0,0,2.23,5.19c.59,1.36.91,3.24,2,3.88s3,.2,4.52.23h.14a1.18,1.18,0,0,0,1.37-.89Q153.06,120.63,156,113ZM86.36,129.36a56.78,56.78,0,0,0,9.07-.42c2.17-.32,4.25-.9,5.34-3.07a76.17,76.17,0,0,0,4.07-10.23c.58-1.73,0-2.63-1.73-3.2a8,8,0,0,0-1.64-.33,70.69,70.69,0,0,0-14.92,0,6.77,6.77,0,0,0-6.22,4.8c-.8,2.26-1.87,4.44-2.76,6.65-1.22,3.05-1.3,4.83,2.52,5.39A49.51,49.51,0,0,0,86.36,129.36ZM192.82,111.9H186.7c-3.31,0-3.33,0-4.56,3.07-1.75,4.37-3.47,8.76-5.2,13.14-.26.67-.19,1.05.67,1,1.68,0,3.36-.06,5,0a1.49,1.49,0,0,0,1.7-1.25c.58-1.94,1.57-3.73,2-5.72s1.88-3.86,2.34-6a1.45,1.45,0,0,1,1.34-1.24c2,0,4.1-.05,6.15,0a1.22,1.22,0,0,1,1.3,1.35,2.92,2.92,0,0,1-2.82,2.73q-2.52.05-5,0c-.75,0-.88.2-.58.89q1.77,4.1,3.45,8.23a1.32,1.32,0,0,0,1.46,1c1.77-.07,3.54,0,5.31,0,1.51,0,1.51,0,.78-1.43-.85-1.65-1.65-3.34-2.56-5-.59-1.07-.3-1.4.82-1.32a6.48,6.48,0,0,0,.84,0c2.34-.12,4.13-1,4.88-3.43.18-.58.47-1.12.67-1.69.84-2.4-.36-4-2.93-4.22C198.62,111.8,195.45,112,192.82,111.9ZM123,121.57c1.09-.08,2-.12,2.92-.21a4.41,4.41,0,0,0,4-2.58c.39-.89.76-1.8,1.08-2.73.63-1.86,0-3.05-1.84-3.68a6,6,0,0,0-1.5-.29c-5.77-.39-11.55-.09-17.33-.17a1.07,1.07,0,0,0-1.11.84q-3,7.68-6,15.35c-.33.84-.07,1.06.77,1,1.63,0,3.26-.05,4.89,0a1.43,1.43,0,0,0,1.62-1.12c1.43-3.84,2.93-7.65,4.42-11.47.27-.7.51-1.55,1.39-1.58,2.09-.07,4.19-.07,6.28,0a1.14,1.14,0,0,1,1.16,1.31,2.94,2.94,0,0,1-3,2.75q-2.38,0-4.75,0c-.72,0-1.06.13-.71.95,1.19,2.78,2.35,5.58,3.5,8.37a1,1,0,0,0,1,.74q3.15,0,6.29,0c.62,0,.77-.24.5-.75C125.52,126.2,124.54,123.9,123,121.57Zm-47.37,3.84a2.7,2.7,0,0,0-1.84-.36c-3.77-.12-7.55.33-11.3-.33-1.6-.28-2.23-1.12-1.91-2.75.91-4.59,3.09-8.27,7.54-10.33,2.49-1.15,5.1-.92,7.69-.94s2.6-.35,1.58,2.32c-.17.44-.47.87-.1,1.28s2.71,0,3-.68c.71-1.67,1.37-3.36,2.09-5,.35-.82.11-1-.74-1-3,0-6.06,0-9.09,0a23.27,23.27,0,0,0-10.26,2.31,18.12,18.12,0,0,0-9.73,12.43c-.66,2.69.33,4.73,2.61,5.66a16.34,16.34,0,0,0,5.55,1.13c3.16.12,6.33,0,9.49,0C74.23,129.13,74.23,129.14,75.68,125.41Zm85.73.79a12,12,0,0,0,.85-2.15c.3-1.78,1.42-2.23,3-2.08.6.06,1.21,0,1.82,0h8a2.24,2.24,0,0,0,2-2.33c-.09-1.12-1.1-.52-1.66-.53q-5-.1-9.92,0c-1.1,0-1.34-.31-.83-1.26a4,4,0,0,0,.43-1c.32-1.49,1.23-1.95,2.72-1.9,3,.09,6.05,0,9.08,0,2.16,0,2.15,0,2.81-2,.24-.72.25-1.05-.7-1-6.1,0-12.2,0-18.3,0a1.09,1.09,0,0,0-1.23.83c-.72,2-1.53,4-2.3,6L153,129.13h19.15a2.76,2.76,0,0,0,2.13-2.58.4.4,0,0,0-.35-.37,5.71,5.71,0,0,0-1.75-.28C168.69,126.47,165.17,125.94,161.41,126.21ZM122,142.89h4.61c3.63,0,4.41-.58,5.55-4,.73-2.21.37-2.8-2-2.86-2.7-.07-5.4,0-8.1,0-1.72,0-1.74-.12-1-1.7.32-.72.83-.64,1.37-.64,3.49,0,7,0,10.48,0,1.14,0,1.18-.67,1.24-1.41.07-.93-.69-.65-1.15-.66q-5.1,0-10.2,0c-3.44,0-4,.43-5.25,3.62-.84,2.17-.33,2.91,2,2.92l8.52,0c.35,0,.81-.15,1,.28.28.63-1,2.22-1.71,2.23H121c-1.49,0-3,.06-4.47,0-1.31-.07-1.3,1-1.39,1.68-.13,1,.8.47,1.21.49C118.23,142.93,120.14,142.89,122,142.89Zm33.75,0v0c2,0,4,0,6,0a3,3,0,0,0,2.88-1.83c.8-1.85,1.55-3.74,2.29-5.61.53-1.33.1-2.12-1.34-2.14-4.1-.06-8.2,0-12.29,0a3,3,0,0,0-2.94,2.17c-.66,1.61-1.29,3.23-2,4.81s-.32,2.58,1.56,2.63S153.84,142.87,155.79,142.87Zm23.64-3.65c2.6.27,3.56-1.36,4.29-3.39s.43-2.61-1.78-2.64c-3.58,0-7.16,0-10.75,0a1.14,1.14,0,0,0-1.28.78c-1,2.64-2.11,5.25-3.14,7.88-.16.4-.31.91.4,1.08,1.65.39,2.44,0,3-1.61.18-.47.35-1,.54-1.42.12-.3.24-.6.67-.6,1.87,0,3.88-.53,5,1.88.29.66.77,1.68,1.82,1.73,1.22.06,2.45,0,3.78,0C181.4,141.36,180,140.7,179.44,139.22Zm-59-9.57c-.52,0-1.47-.27-1.22.16s-.6,1.1.07,1.25C120.34,131.3,119.87,130,120.41,129.64Z" style="fill:#fafdfa"/><path d="M104.71,135c-.4.71-.88.55-1.31.56-7.6.06-15.19.09-22.79.15-2.14,0-4.28.12-6.42.21-.4,0-1.11-.23-1.06.47,0,.53.69.3,1.07.3,8,.06,16,0,24,.17,2.9,0,5.78.66,8.73.68-2.36.42-5-.13-7,1.56l0,.43h4.21c-.21.64-.54.5-.78.52-6.53.62-13.09.53-19.63.55-10.76,0-21.53.17-32.29,0-4.12-.08-7.12-1.76-8.43-5.79a12.36,12.36,0,0,1-.09-6.22c1.13-5.76,4.24-10.55,7.8-15.07.33-.42.64-1.07,1.49-.76a33.77,33.77,0,0,0-4.11,7.64c-1.2,3.47-1.57,7,.16,10.39,1.46,2.88,4,3.87,7.06,3.91,6.85.08,13.69-.08,20.54.18,6.14.23,12.3.12,18.45.14C97.84,135,101.27,135,104.71,135Z" style="fill:url(#a)"/><path d="M86.36,129.36a49.51,49.51,0,0,1-6.27-.38c-3.82-.56-3.74-2.33-2.52-5.39.89-2.22,2-4.39,2.76-6.65a6.77,6.77,0,0,1,6.22-4.8,70.69,70.69,0,0,1,14.92,0,8,8,0,0,1,1.64.33c1.72.57,2.31,1.47,1.73,3.2a76.17,76.17,0,0,1-4.07,10.23c-1.09,2.16-3.17,2.75-5.34,3.07A56.78,56.78,0,0,1,86.36,129.36Zm6.73-14.44c-1.12,0-2.23,0-3.35,0a1.69,1.69,0,0,0-1.84,1.16c-1.16,3-2.32,5.94-3.5,8.9-.33.82,0,1.12.78,1.12l7.4,0A1.47,1.47,0,0,0,94,125q1.72-4.49,3.47-9c.29-.76.1-1.14-.78-1.11C95.51,114.94,94.3,114.92,93.09,114.92Z" style="fill:#0c83c9"/><path d="M192.82,111.9c2.63.1,5.8-.11,9,.17,2.58.23,3.77,1.82,2.93,4.22-.2.57-.49,1.11-.67,1.69-.75,2.4-2.53,3.31-4.88,3.43a6.48,6.48,0,0,1-.84,0c-1.12-.09-1.42.25-.82,1.32.91,1.62,1.71,3.3,2.56,5,.72,1.41.73,1.42-.78,1.43-1.77,0-3.54,0-5.31,0a1.32,1.32,0,0,1-1.46-1q-1.69-4.13-3.45-8.23c-.3-.69-.16-.9.58-.89q2.52,0,5,0a2.92,2.92,0,0,0,2.82-2.73,1.22,1.22,0,0,0-1.3-1.35c-2-.09-4.1-.05-6.15,0a1.45,1.45,0,0,0-1.34,1.24c-.45,2.14-1.84,3.9-2.34,6s-1.46,3.78-2,5.72a1.49,1.49,0,0,1-1.7,1.25c-1.67-.07-3.35,0-5,0-.87,0-.94-.37-.67-1,1.73-4.38,3.45-8.77,5.2-13.14,1.23-3.08,1.25-3.07,4.56-3.07Z" style="fill:#0c83c9"/><path d="M123,121.57c1.49,2.32,2.47,4.62,3.64,6.82.27.52.12.76-.5.75q-3.15,0-6.29,0a1,1,0,0,1-1-.74c-1.15-2.8-2.31-5.59-3.5-8.37-.35-.82,0-1,.71-.95q2.38,0,4.75,0a2.94,2.94,0,0,0,3-2.75,1.14,1.14,0,0,0-1.16-1.31c-2.09-.09-4.19-.09-6.28,0-.88,0-1.12.88-1.39,1.58-1.48,3.82-3,7.63-4.42,11.47a1.43,1.43,0,0,1-1.62,1.12c-1.63-.06-3.26,0-4.89,0-.84,0-1.1-.2-.77-1q3-7.67,6-15.35a1.07,1.07,0,0,1,1.11-.84c5.78.09,11.56-.22,17.33.17a6,6,0,0,1,1.5.29c1.87.63,2.47,1.82,1.84,3.68-.31.92-.69,1.83-1.08,2.73a4.41,4.41,0,0,1-4,2.58C125.05,121.45,124.14,121.49,123,121.57Z" style="fill:#0c83c9"/><path d="M75.68,125.41c-1.45,3.73-1.45,3.72-5.4,3.73-3.17,0-6.33.14-9.49,0A16.34,16.34,0,0,1,55.23,128c-2.27-.93-3.27-3-2.61-5.66a18.12,18.12,0,0,1,9.73-12.43,23.27,23.27,0,0,1,10.26-2.31c3-.05,6.06,0,9.09,0,.85,0,1.09.18.74,1-.71,1.67-1.37,3.36-2.09,5-.31.72-2.53,1.23-3,.68s-.07-.84.1-1.28c1-2.67,1-2.34-1.58-2.32s-5.21-.21-7.69.94c-4.45,2.06-6.63,5.74-7.54,10.33-.33,1.63.31,2.47,1.91,2.75,3.75.66,7.53.21,11.3.33A2.71,2.71,0,0,1,75.68,125.41Z" style="fill:#0c83c9"/><path d="M161.41,126.21c3.76-.27,7.28.27,10.8-.31a5.71,5.71,0,0,1,1.75.28.4.4,0,0,1,.35.37,2.76,2.76,0,0,1-2.13,2.58H153l4.09-10.43c.78-2,1.58-4,2.3-6a1.09,1.09,0,0,1,1.23-.83c6.1,0,12.2,0,18.3,0,1,0,.94.32.7,1-.66,2-.65,2-2.81,2-3,0-6.06.07-9.08,0-1.49,0-2.4.41-2.72,1.9a4,4,0,0,1-.43,1c-.52,1-.28,1.28.83,1.26q5-.08,9.92,0c.55,0,1.57-.59,1.66.53a2.24,2.24,0,0,1-2,2.33h-8c-.61,0-1.22.05-1.82,0-1.6-.15-2.72.3-3,2.08A12,12,0,0,1,161.41,126.21Z" style="fill:#0c83c9"/><path d="M122,142.89c-1.91,0-3.82,0-5.73,0-.41,0-1.34.52-1.21-.49.09-.7.09-1.75,1.39-1.68,1.49.08,3,0,4.47,0h6.43c.76,0,2-1.6,1.71-2.23-.19-.43-.65-.28-1-.28l-8.52,0c-2.36,0-2.86-.76-2-2.92,1.24-3.2,1.81-3.6,5.25-3.62s6.8,0,10.2,0c.46,0,1.22-.28,1.15.66-.06.73-.1,1.43-1.24,1.41-3.49-.07-7,0-10.48,0-.54,0-1-.08-1.37.64-.7,1.58-.68,1.69,1,1.7,2.7,0,5.4-.05,8.1,0,2.35.06,2.71.65,2,2.86-1.14,3.43-1.91,4-5.55,4H122Z" style="fill:#e53631"/><path d="M155.79,142.87c-2,0-3.91,0-5.87,0s-2.34-1-1.56-2.63,1.37-3.2,2-4.81a3,3,0,0,1,2.94-2.17c4.1,0,8.2-.06,12.29,0,1.45,0,1.87.81,1.34,2.14-.75,1.88-1.49,3.76-2.29,5.61a3,3,0,0,1-2.88,1.83c-2,0-4,0-6,0Zm.73-1.89h0c1.35,0,2.7,0,4.05,0a1.15,1.15,0,0,0,1.31-.77c.5-1.35,1-2.69,1.61-4,.34-.81.27-1.18-.74-1.17-2.7,0-5.4,0-8.11,0a1.11,1.11,0,0,0-1.26.8c-.52,1.44-1.08,2.88-1.7,4.28-.34.78,0,.88.64.88Z" style="fill:#e53631"/><path d="M179.44,139.22c.54,1.49,2,2.14,2.55,3.67-1.33,0-2.56,0-3.78,0-1-.05-1.52-1.07-1.82-1.73-1.07-2.41-3.08-1.85-5-1.88-.43,0-.55.3-.67.6-.2.47-.37.95-.54,1.42-.6,1.6-1.4,2-3,1.61-.71-.17-.56-.67-.4-1.08,1-2.63,2.13-5.24,3.14-7.88a1.14,1.14,0,0,1,1.28-.78c3.58,0,7.16,0,10.75,0,2.21,0,2.51.59,1.78,2.64S182,139.49,179.44,139.22Zm-2.89-4.31H174a2.22,2.22,0,0,0-2.13,2.18c0,.4.24.44.54.43,2.09,0,4.18,0,6.27-.08a2,2,0,0,0,1-.36,1.74,1.74,0,0,0,.73-1.71c-.11-.69-.83-.42-1.29-.44C178.31,134.87,177.43,134.9,176.54,134.9Z" style="fill:#e53631"/><path d="M134.6,135c-.11-1.62.08-1.86,1.56-1.86,4.19,0,8.39,0,12.58,0,.41,0,1.19-.35,1.12.5-.05.59-.25,1.32-1.17,1.3-1.3,0-2.62.11-3.91,0s-1.82.41-2.21,1.51c-.66,1.88-1.42,3.73-2.17,5.59-.28.7-2.57,1.23-3.14.75-.36-.3,0-.61.06-.87.74-2,1.47-3.92,2.28-5.85.33-.8.34-1.17-.69-1.12-1.44.08-2.89.05-4.33.07Z" style="fill:#e53631"/><path d="M134.59,135c-.52,1-1.08,1.37-2.13.49a3.22,3.22,0,0,0-3.5-.15,2.92,2.92,0,0,1-2.15.06c1.53-1.11,3.36-.62,4.83-1.44a.6.6,0,0,1,.73.28,2.12,2.12,0,0,0,2.23.76Z" style="fill:#fdfefd"/><path d="M201.09,133.47c-.2-.58-.9-.29-1.38-.29-2.93,0-5.87,0-8.8,0-3.36,0-3.38,0-4.66,3.13-.71,1.74-1.34,3.51-2.2,5.19-.46.9-.33,1.48.91,1.39,1-.07,2,0,3.07,0,2.79,0,5.59-.07,8.38,0a1.33,1.33,0,0,0,1.57-1.46c0-.79-.9-.4-1.36-.4-2.47,0-4.93,0-7.4,0-.49,0-1.26.22-1.4-.27a2.23,2.23,0,0,1,.64-1.77c.36-.45.94-.32,1.45-.32,2.79,0,5.59,0,8.38,0,1,0,1.11-.63,1.18-1.19.11-.9-.68-.53-1.1-.53-2.7,0-5.4-.05-8.1,0-.91,0-1.06-.33-.72-1.09.17-.39.32-.78.79-.91,3.36,0,6.72.16,10.09-.08C200.89,134.53,201.27,134,201.09,133.47Z" style="fill:#e53631"/><path d="M155.4,111.88c-1.95.07-3.89.07-5.84.11-.21-.06-.32,0-.4.23q-1.63,4.31-3.28,8.61a.84.84,0,0,1-.59-.54c-.66-2.54-2-4.79-3-7.19a1.73,1.73,0,0,0-2-1.22,31.4,31.4,0,0,1-3.77,0,1.23,1.23,0,0,0-1.33.94q-3,7.67-6.06,15.32c-.29.72-.25,1,.62,1,1.72,0,3.45,0,5.17,0,.81,0,1.13-.34,1.4-1,.94-2.48,1.93-4.95,2.92-7.41.12-.3.09-.75.68-.86a43.15,43.15,0,0,0,2.23,5.19c.59,1.36.91,3.24,2,3.88s3,.2,4.52.23h.14a1.18,1.18,0,0,0,1.37-.89q2.94-7.61,5.89-15.22C156.47,112.3,156.5,111.84,155.4,111.88Z" style="fill:#0c83c9"/><path d="M120.41,129.64c-.54.39-.07,1.65-1.14,1.42-.67-.15.25-.7-.07-1.25S119.89,129.6,120.41,129.64Z" style="fill:#fdfefd"/><path d="M93.09,114.92c1.21,0,2.42,0,3.63,0,.88,0,1.07.35.78,1.11q-1.74,4.48-3.47,9a1.47,1.47,0,0,1-1.45,1.08l-7.4,0c-.81,0-1.11-.29-.78-1.12,1.18-3,2.34-5.93,3.5-8.9a1.69,1.69,0,0,1,1.84-1.16C90.86,115,92,114.92,93.09,114.92Z" style="fill:#fafdfa"/><path d="M156.52,141h-4.19c-.63,0-1-.09-.64-.88.62-1.4,1.18-2.84,1.7-4.28a1.11,1.11,0,0,1,1.26-.8c2.7,0,5.41,0,8.11,0,1,0,1.09.36.74,1.17-.57,1.32-1.11,2.66-1.61,4a1.15,1.15,0,0,1-1.31.77c-1.35,0-2.7,0-4.05,0Z" style="fill:#fafdfa"/><path d="M176.54,134.9c.88,0,1.77,0,2.65,0,.46,0,1.18-.25,1.29.44a1.74,1.74,0,0,1-.73,1.71,2,2,0,0,1-1,.36c-2.09.05-4.18.06-6.27.08-.3,0-.53,0-.54-.43A2.22,2.22,0,0,1,174,134.9h2.51Z" style="fill:#fafdfa"/><path d="M206.07,142.29h-.66l0-.24h1.6l0,.24h-.66l-.38,2h-.28Z" style="fill:#fab933"/><path d="M208.78,144.3l.16-1.22c0-.21.08-.55.12-.76h0c-.1.23-.23.5-.35.73l-.67,1.24h-.21l-.17-1.22c0-.26-.06-.52-.07-.75h0c-.05.21-.12.55-.17.76l-.31,1.22h-.26l.59-2.26h.36l.18,1.3c0,.19.05.4.05.56h0c.07-.17.17-.37.26-.56l.7-1.3h.36L209,144.3Z" style="fill:#fab933"/></svg>