<svg xmlns="http://www.w3.org/2000/svg" viewBox="0 0 250 250"><title>Grocery</title><path d="M197.82,144.37h-11s-1.28-.19-.8,1.28,2.3,6,8.65,6.75a6.68,6.68,0,0,0,3.31-.67c1.55-.8,1.62,1,.26,2.11a15,15,0,0,1-8.92,3.45c-4.19,0-12.1-2.64-12.1-11.08,0-7.91,7-11.06,12.45-11.06,4.67,0,9.42,3.43,9.59,7.54C199.28,143.68,198.9,144.37,197.82,144.37Z" style="fill:#f60000"/><path d="M164.31,149.63c-.21-.32-1.05-1.11-1.05.28v4.44s.11,1.65,1.48,1.76,1.3.23,1.3.56-.13.6-1.34.6H152.07s-.71.08-.71-.42.38-.5,1.05-.8,1.43-.84,1.43-2.56V137.13a2.83,2.83,0,0,0-1.05-2.47c-1.22-.84-2.16-1.51-2.16-1.51s-1-.69.34-1.05,9.15-3.29,10.34-3.77,1.74-.43,1.74,1.32v14.8s-.21,2.06,1.26.84,5.15-4.13,4.63-5.74-1.65-1.44-1.65-1.44-.5-.21-.5-.63.28-.63,1-.63h10.34s.8,0,.8.5-.34.77-1.05.77-4.13.56-7.27,4.17c0,0-.84.46-.11,1.43l5.61,8.58s1.82,3.16,3.92,3.67c0,0,1.15.15,1.15.71s-.6.56-1.19.56H169.29a1.7,1.7,0,0,1-.73-.63l-4.25-7Z" style="fill:#f60000"/><path d="M146.05,155.91s.84,0,.84.51-.08.56-1,.56H132.21s-.71,0-.71-.63.3-.6,1-.75,2.36-.09,2.36-3.37v-7.66s0-2.14-1-2.87q-.91-.69-1.88-1.31c-.46-.25-1.38-.88.21-1.36s8.86-3,10.22-3.54c0,0,.9-.63,1,.71a14.57,14.57,0,0,0,.19,1.67s.19.92,1.07,0a5.25,5.25,0,0,1,4.44-2,3.39,3.39,0,0,1,3.69,3.28,2.87,2.87,0,0,1-3.06,2.79,3.76,3.76,0,0,1-3-1.44c-.4-.28-2.64-1-2.64,2.07v10.12s-.31,2.68,2,3.2Zm-26.68-2.43a9.48,9.48,0,0,1-7.08,3.22c-4.53,0-6.78-1.78-6.78-5.15s3-5.05,4.57-5.76,7.31-2.75,7.89-2.95,1.26-.42,1.26-1.36v-2.06a2.59,2.59,0,0,0-2.62-2.53c-2.55,0-2.91,1.32-2.91,2.95s-.23,4.46-3.14,4.46-3.33-1.74-3.33-2.77.46-6.07,9.83-6.07,11.41,3.35,11.41,8.46v6.18s-.27,3.33,1.42,3.52,1,1.38.33,2-7.33,3.5-10.85-2.1Z" style="fill:#f60000"/><path d="M74.31,155.57s.86,0,.86.48-.11.61-1.05.61H66.24s-.8.06-.8-.51.4-.61.88-.71,3-.48,3.48-6c0,0,1.31-14.91,1.34-16.21s.44-3.91-1.93-4.61c0,0-.9-.17-.9-.67s.44-.62,1-.62H81.09a1.33,1.33,0,0,1,1.34,1.05l3.31,10.43s.6,1.93,1.38-.31L90.39,129s.15-1.48,2.1-1.48h10.89s1.19-.09,1.19.75-.84.79-1.36.86-2,.54-1.89,3.35,1.15,19.18,1.15,19.18-.06,3.25,2.79,3.64c0,0,1.19-.11,1.19.54s-.44.74-1.22.74h-16s-.74,0-.74-.44.28-.55,1-.65,2.58-.44,2.45-3.2L90.72,137.9s-.31-2.19-1.07.08L83,156.22s-.44,1.15-1-.28L74,136.41s-.92-2-1.09.31l-1.09,13.76s-.4,4.86,2.54,5.09Zm98.4-47.68a3.91,3.91,0,0,0-2.49-1.67c-1.13-.06-1.27-.36-1.27-.77s.08-.61,1.11-.61H184.2s1.11-.09,1.11.46-.73.6-1.22.86-.73,1.51,0,2.6l3.37,5.57,2.66-5.05s.79-2.38-.27-3.12-1.71-.09-1.73-.93,1-.57,1.65-.57H196s1-.23,1,.48-.65.55-1.07.55-1.94.17-3.43,3.14l-9.65,18.05s-3.5,5.9-9.23,5.9-6.55-3.08-5.73-5a3.54,3.54,0,0,1,4.69-1.66c2.78,1.05,4.56,3.64,6.22,2.22s4.06-4.13,1.49-8.21l-7.67-12.21Zm27.18,30h-1.34s-.8-.13-.15-.69,9.14-7.94,10-8.67,1-.38,1,.3v6.72a.63.63,0,0,0,.69.71H214s1-.21,1,.63-.69,1.07-1.9,1.07h-2.66s-.75,0-.75.94v10s-.13,3.14,1.19,4.36a4.21,4.21,0,0,0,3.33,1.11c.82,0,1,.52.26,1.11a10.9,10.9,0,0,1-6.58,2.11c-3.48,0-7-.92-7-7.24V139.07a1,1,0,0,0-1-1.19Z" style="fill:#f60000"/><path d="M153.08,106.37h-1.34s-.8-.15-.15-.69,9.15-8,10-8.71,1-.38,1,.32V104a.64.64,0,0,0,.68.73h3.85s1-.21,1,.61-.69,1.07-1.9,1.07h-2.68s-.73,0-.73.94v10s-.13,3.16,1.19,4.36a4.14,4.14,0,0,0,3.33,1.11c.82,0,1,.51.26,1.11a10.75,10.75,0,0,1-6.58,2.13c-3.5,0-7-.94-7-7.26v-11.3a1,1,0,0,0-1-1.17ZM139,124.71s.6,0,.6.48.08.5-.48.5H125.4s-.65.06-.65-.5.28-.67.82-.67,2.22-.17,2.22-3.35v-6.45s-.06-2.55-1.31-3.28l-1.82-1.17s-1.17-.82.11-1.26,7.73-3,9.88-4.07c0,0,1.49-.77,1.49.44l.06,1s.11,1.22,1.17.19,3-2,6.26-2,7.62,1.88,7.62,7.33V122s-.13,2.6,1.45,2.6,1.55.44,1.55.63.06.75-.94.75h-10s-1.05.09-1.05-1.17V111s.11-3.16-2.37-3.16-3,1.86-3,3.89v9.74S136.71,124.13,139,124.71ZM94.83,110.22s-1.53-.61-.08-1.18,9-3.56,10.51-4.21,1.25.65,1.25,1.32v13.09s-.2,3.69,2.35,3.69,3-2.37,3-3.73v-5.84a3.11,3.11,0,0,0-.75-2.28l-2-1.57s-1.11-.57.3-1.09,8.8-3.29,9.9-3.87,1.59-.14,1.59,1.59V121s-.54,3.6,1.88,3.6c0,0,.73-.13.73.38s.13.71-.8.71h-8.42c-1.45,0-1.84-.23-1.84-1.36s-.88-.54-1.36-.13a8.62,8.62,0,0,1-6.31,2.28c-4,0-7-1.26-7-8.36V114s.27-1.94-2.89-3.77Zm-14.32-6.85c7.5,0,13.61,5,13.61,11.19s-6.11,11.2-13.61,11.2-13.61-5-13.61-11.2,3.85-11.19,13.61-11.19Zm-34.15,7s-.74,13.34,7.35,13.34c8.55,0,10.37-9.09,10.37-9.09s0-1.4,1.34-1,.8,1.34.74,2-.4,4.31-.34,7.29a32.75,32.75,0,0,1-12.06,2.43c-6.66,0-18.78-4.17-18.78-14.79S44.21,93.7,54.94,93.7a20.7,20.7,0,0,1,10,2.45s.65,0,.6,1.62-.06,6.53-.06,6.53-.17.94-.82.88-.77-.83-1-1.76-2.85-8.1-8.92-8.1-8.33,4.56-8.33,15Z" style="fill:#f60000"/><path d="M188.31,142.78h-1.89s-.79.06-.79-1.11.19-4.74,3.33-4.74,3,3.08,3,3.39c0,.56,0,2.51-3.64,2.47Zm-69.1,3v3.58s.08,3.6-2.2,3.6-2.06-2.58-2.06-2.91.23-4,2.77-5.13c.86-.4,1.49-.29,1.49.86ZM80.44,104.69c4,0,3.58,4.4,3.58,9.8s.17,9.8-3.58,9.8-3.58-4.4-3.58-9.8S76.44,104.69,80.44,104.69Z" style="fill:#fff"/></svg>