<svg xmlns="http://www.w3.org/2000/svg" viewBox="0 0 250 250"><defs><style>.a{fill:#561b0d;}.b{fill:#f9a61a;}</style></defs><title>Midscale</title><path class="a" d="M30.43,132.45a12.5,12.5,0,0,1,.54-2.14,5.12,5.12,0,0,0,.34-3.5,10.09,10.09,0,0,1,.68-6.4c.32-.79.73-1.55,1-2.35.23-.63.29-1.33.51-2s.52-1.08.77-1.63.56-1.29.83-1.94.45-1.07.63-1.62a5,5,0,0,0,.44-1.82,4.19,4.19,0,0,1,1-3.33,4.35,4.35,0,0,0,1.19-3.26c-.12-2.18-.17-4.36-.32-6.54,0-.48.07-.72.48-.83a7,7,0,0,1,1.55-.31c1.54,0,1.88.41,1.64,1.92-.12.75-.16,1.5-.24,2.26l.25.17a7.85,7.85,0,0,0,1.44-.86,4.43,4.43,0,0,1,3.61-1.15,11.92,11.92,0,0,0,1.83-.1.71.71,0,0,0,.7-1,11.71,11.71,0,0,0-.55-1.41A9.84,9.84,0,0,1,48.18,93a1.57,1.57,0,0,1,.18-1.21,3.13,3.13,0,0,0,.71-2.45c-.06-2.79.94-4,3.71-4.56a6.72,6.72,0,0,1,4.36.57,3.77,3.77,0,0,1,2.2,3.91.9.9,0,0,0,.57,1.08,1,1,0,0,1,.67,1.22c-.12.73-.28,1.46-.45,2.18-.09.38-.26.74-.44,1.24a12.57,12.57,0,0,0,1.39.25c.82.05,1.13.5,1.1,1.26,0,.27,0,.53,0,.8-.05,1.19.21,1.5,1.4,1.49A15.4,15.4,0,0,1,69.63,100a44.72,44.72,0,0,1,4.4,2.4,1.68,1.68,0,0,1,.91,1.57c0,.46.19.67.66.67,1.44,0,2.88.07,4.32.08,1.14,0,2.29,0,3.54,0,.26-.84.54-1.77.84-2.7,1.59-4.83,3.69-9.43,7.26-13.12,3.76-3.9,8.28-6.68,13.78-7.35a31.8,31.8,0,0,1,21.84,5.27c2.38,1.56,4.72,3.22,7.22,4.58a14.59,14.59,0,0,0,11.15,1.36,8.19,8.19,0,0,0,1.13-.4,4.27,4.27,0,0,0,2.76-3.17c.31-1.48.48-1.53,2-1.34,1.9.24,3.8.53,5.71.7,3.48.3,6.75-.69,10-1.66a65.13,65.13,0,0,1,13.8-3c13.71-1,25.59,2.83,34.78,13.57a37,37,0,0,1,8.95,19.73c1.39,11-1.5,20.81-8.05,29.62-4.09,5.51-9.48,9.46-15.49,12.64a76.64,76.64,0,0,1-25.76,8.19,139.91,139.91,0,0,1-26,.82,115.12,115.12,0,0,1-23.84-3.55,66.68,66.68,0,0,1-20.73-9c-2.5-1.7-4.78-3.75-7.14-5.65a4.76,4.76,0,0,1-.65-.81l-.24.1-.67,2.48c-.76,2.8-1.54,5.6-2.28,8.41a1.92,1.92,0,0,1-1.06,1.29,21.42,21.42,0,0,1-4.08,2.12c-1.24.33-2.43,1.07-3.81.89a1.5,1.5,0,0,0-.92.15,3.18,3.18,0,0,1-2.21.49.9.9,0,0,0-.47,0c-2.46,1.11-4.89.41-7.27-.23s-4.83-1.51-7.22-2.33a4.08,4.08,0,0,1-2.7-2.85c-1.35-4.62-2.76-9.24-4-13.88a34.83,34.83,0,0,1-.63-4.51.64.64,0,0,0-.3-.49c-.11,2.14-.19,4.29-.33,6.43-.19,3.11-.42,6.22-.64,9.33,0,.21-.1.42-.11.63,0,.58-.26.84-.89.82s-.84-.23-.91-.82c-.2-1.76-.45-3.52-.69-5.34l-1.42,1.59a2.07,2.07,0,0,1,0-2.09,19.2,19.2,0,0,1,1.26-1.78l-1.29-.07c-.08-.23-.16-.45-.22-.68-.13-.58.23-.69.69-.69,1.31,0,1.31,0,1.39-1.38,0-.11,0-.21,0-.32s0-.15,0-.4l-1.85,1.13c-.58-1.11-.41-1.45,1.56-2.93a6.44,6.44,0,0,0-.9,0c-.77.13-.9-.34-.94-.93s.5-.57.88-.6.94,0,1.45,0l.15-3.08L54,141.21c-.4-1.19-.19-1.53,1.57-2.5a4.68,4.68,0,0,1-1,0c-.28-.07-.67-.18-.77-.39a.64.64,0,0,1,.52-1,5.06,5.06,0,0,1,1.35,0c.64.07,1-.15.93-.83,0-.5,0-1,0-1.62-.32.09-.57.15-.8.24-1.28.5-1.34.47-1.73-.94a5.69,5.69,0,0,0-.43,1.34c-.1,1.49-.16,3-.16,4.47q0,9,0,17.93c0,1.06.09,2.12.07,3.18a3.15,3.15,0,0,1-.39,1c-.34-.18-.86-.27-1-.54a13.84,13.84,0,0,1-1-3c-.23-1.25-.24-2.55-.35-4-.54,0-1.06,0-1.58,0l-5.75.29a.94.94,0,0,0-1,.87,1.12,1.12,0,0,1-.62,1c-.48.24-.29.9.16,1.29,2.23,1.92,2.74,4.49,2.65,7.23-.07,2.08-1.48,3-3.51,2.55a5.27,5.27,0,0,1-3.35-2.76c-.37-.64-.68-1.32-1.07-2.1a10.82,10.82,0,0,1-.93.58c-.39.2-.81.33-1.21.51a2.74,2.74,0,0,0-.78.46c-.74.73-1.4,1.55-2.17,2.23a4.53,4.53,0,0,1-5.49.49,2,2,0,0,1-.75-3.12,12,12,0,0,1,1.75-1.73c.49-.45,1-.84,1.5-1.32a2.5,2.5,0,0,0,.64-2.72,1.7,1.7,0,0,1-.14-.54c0-1.16-.41-2-1.82-2.15,1.27-2.84,1-5.79,1.13-8.67.1-2.09-.23-4.2-.3-6.3q-.11-3.4-.08-6.8c0-1,.24-1.21,1.29-1.32C29.78,132.55,30.15,132.49,30.43,132.45Zm116.83,9.8c.83,4,.73,8.12-1.32,11.94s-5.47,6-9.71,7.16a1.59,1.59,0,0,0,.3.13,140.19,140.19,0,0,0,20.38,1.62,123.65,123.65,0,0,0,18.89-1.25,73,73,0,0,0,14.56-3.53c.75-.27,1.48-.59,2.39-.95-2-.2-3.68-.3-5.39-.56a22.16,22.16,0,0,1-14.34-8.1,39.36,39.36,0,0,1-6.33-12.13c-.11-.3-.22-.6-.33-.9l-.13,0v5.91h-6.11a109.77,109.77,0,0,0-.22-17.64,1,1,0,0,1,.28-.06c2.45,0,4.91-.1,7.36,0a12.7,12.7,0,0,1,3.51.66,4.19,4.19,0,0,1,2.93,4c.14,2-1,3.12-2.63,3.89-.63.3-1.3.51-1.94.76a7.55,7.55,0,0,0,2.32-.11c.71-.16.82.17,1,.74.6,2,1.27,3.89,1.92,5.83a4.23,4.23,0,0,0,.41.65c-.26-5.58,1-10.94-.47-16.44,3.17,0,6.23-.1,9.29,0a4.84,4.84,0,0,1,4.88,3.76c.55,2.41-.2,3.9-2.19,4.7-.73.29-1.47.57-2.2.85a10.54,10.54,0,0,0,2.16,0c.43,0,.63.09.81.54.94,2.46,1.95,4.89,2.93,7.33l.3.73c-.13.06-.2.11-.27.11H184c-.45,0-.63-.21-.67-.69a12.09,12.09,0,0,0-2.16-5.77V142H176a1.63,1.63,0,0,0,0,.39,8.69,8.69,0,0,0,.35.81A25.36,25.36,0,0,0,190,155.36a9.65,9.65,0,0,0,8.21-.44,48.45,48.45,0,0,0,4.72-2.84,38.38,38.38,0,0,0,12.63-13.46,31.07,31.07,0,0,0,4-12.72,30.2,30.2,0,0,0-1.74-12.26A28.9,28.9,0,0,0,209,100.48c-6.19-5.19-13.42-6.84-21.3-6.08a30.8,30.8,0,0,0-12.44,4.06c-1.65.94-3.23,2-4.84,3l.09.15,2.44-.78c1.07,4.88,1.92,9.68,4.41,14-.2.08-.27.14-.34.14-2.11,0-4.22,0-6.32,0-.22,0-.56-.38-.64-.65-.41-1.29-.76-2.6-1.13-3.91l-1.34-4.7a31.14,31.14,0,0,0-.43,4.19,8,8,0,0,0,.53,4.23c.3.56,0,.76-.57.76h-6.16a3.19,3.19,0,0,1-.58-.1c.92-7.22.47-14.36-.13-21.48l7-1.55.26,8.54c1-.6,1.76-1.08,2.54-1.58,7.09-4.53,14.69-7.21,23.25-6.65a29.32,29.32,0,0,1,13.28,3.92c6.42,3.81,10.47,9.53,13,16.39a30.34,30.34,0,0,1,1.64,17.12,38.84,38.84,0,0,1-13.64,22.19c-5.66,4.72-12.24,7.7-19.23,9.85a96.41,96.41,0,0,1-25,3.79,138.3,138.3,0,0,1-17.75-.47,139.59,139.59,0,0,1-15.78-2.36c-12.06-2.53-22.7-7.73-31.47-16.5a7.66,7.66,0,0,0-.77-.58c-.09.51-.14.87-.23,1.22a1.69,1.69,0,0,0,.48,1.83,52.76,52.76,0,0,0,13.24,9.43c10.34,5.25,21.43,7.84,32.88,8.9,5.09.47,10.22.54,15.33.57a107,107,0,0,0,17.75-1.46,74,74,0,0,0,23.42-7.72,46,46,0,0,0,15.31-12.63,36.67,36.67,0,0,0,7.1-30.48c-2.07-10.46-8.15-18.2-16.84-24a34.52,34.52,0,0,0-16.14-5.6,39.91,39.91,0,0,0-12.25.49c-3.93.83-7.83,1.78-11.71,2.81-4.82,1.28-9.64,2-14.58.68-.15,0-.51.22-.57.4a6.42,6.42,0,0,1-4.48,4.31,16.5,16.5,0,0,1-10.74-.46,36.22,36.22,0,0,1-7.88-4.54,37.19,37.19,0,0,0-9-4.68,27.23,27.23,0,0,0-13.84-1.32,22.4,22.4,0,0,0-14,8.86,35,35,0,0,0-5.59,11.94c-.31,1.07-.29,1.09.8,1.27a1.47,1.47,0,0,1,.32,0c.79.32,1,0,1.23-.78a28.39,28.39,0,0,1,7.82-13.72c5-4.7,10.92-6.27,17.58-4.4a10.93,10.93,0,0,1,7.32,6c.61,1.32,1,2.51,2.64,2.81.22,0,.35.55.52.84a2.71,2.71,0,0,1-.87.35c-1.73,0-3.47,0-5.2,0a11.8,11.8,0,0,0-6.95,2,1.91,1.91,0,0,1-2,.21c.57-.57,1-1.09,1.53-1.51s1.27-.79,1.83-1.28a3.76,3.76,0,0,0,1.05-1.37A4.21,4.21,0,0,0,112,90a3.42,3.42,0,0,0-3.68-.93,10.53,10.53,0,0,0-7.54,7c-1.9,4.93-1.45,9.89.11,14.8a17.85,17.85,0,0,0,7.15,9.93,13.8,13.8,0,0,0,9.88,2.32,7.5,7.5,0,0,0,3.87-2.26c.52-.47,1.13-.86,1.86-1.41a11.12,11.12,0,0,1-3.32,5.84,16.68,16.68,0,0,1-11,4.18,17.9,17.9,0,0,1-9.66-2.37c-.38-.21-.78-.37-1.24-.59,0,.34-.07.49-.08.65-.15,4.83-.31,9.65-.43,14.48a1.68,1.68,0,0,0,.42,1.06,68.55,68.55,0,0,0,12.11,10.41,10,10,0,0,0,4.92,1.76c.47,0,.7-.12.71-.61s.09-1.22.09-1.84q.09-11.53.15-23.05a1.07,1.07,0,0,1,.7-1.1c.89-.42,1.78-.86,2.64-1.33,2.7-1.45,3.8-4,4.48-6.78a1.49,1.49,0,0,0-.49-1.28c-.22-.15-.9.13-1.23.4-.63.49-1.13,1.13-1.72,1.67a5.36,5.36,0,0,1-3.76,1.51c-.51,0-.74-.13-.79-.7-.16-1.78.16-3.65-1-5.27-.29-.42.06-.64.45-.69a14.36,14.36,0,0,1,1.91-.18c4.85,0,9.71,0,14.56.17a7.09,7.09,0,0,1,6.67,4.07,10.39,10.39,0,0,1,1,2.86c.5,3.33-.26,6-3.71,7.33a34.42,34.42,0,0,1-3.34,1c1.55.34,3.6.68,5.59,1.25a12.21,12.21,0,0,1,5.45,3.29c0-.91,0-1.6,0-2.28a12.25,12.25,0,0,1,1.34-5.46,6.6,6.6,0,0,1,8.65-3.14,5.06,5.06,0,0,0,3.57.29c1.06-.33,1.28-.12,1.27,1,0,4.51-.12,9-.14,13.52,0,.79.14,1.58.24,2.57-1.5,0-2.94.07-4.36,0-1.14-.08-2.27-.46-3.36.21a.8.8,0,0,1-.39.06Zm-20.67,3.39h.15q0,2.4,0,4.8c0,2.21,0,4.43,0,6.64,0,.48.06.89.64.89a17,17,0,0,0,3.1-.08,7.87,7.87,0,0,0,5.94-5.17,16.59,16.59,0,0,0,.37-11.64c-1.39-4.47-4.34-7.15-9.09-7.69-1-.11-1.09-.06-1.09,1Q126.59,140,126.59,145.63ZM96,123.57a4.11,4.11,0,0,0-.41.18,31,31,0,0,1-12.73,3.91c-2.17.26-4.35.39-6.53.54a1,1,0,0,0-1.07,1.12,1.63,1.63,0,0,0,.81,1.1,4,4,0,0,0,1.7.33,40,40,0,0,0,10.06-1.15,24.77,24.77,0,0,0,7.89-3.18,1.35,1.35,0,0,0,.61-.89A11,11,0,0,0,96,123.57Zm-41.61-14,.24.13-1,2.8-.25-.07a1.44,1.44,0,0,0-.07-.45c-.14-.26-.32-.49-.48-.74-.2.19-.54.35-.58.56a6.85,6.85,0,0,0-.14,1.95c.09.84.46,1.66.5,2.5s.54,1.05,1.18,1.06a19.62,19.62,0,0,0,2.7-.18.84.84,0,0,0,.5-.63c0-.82-.05-1.65-.06-2.47,0-1,0-2,0-3.08l1.32.59a8.69,8.69,0,0,0-.24-1.83,8.14,8.14,0,0,0-.94-1.57.62.62,0,0,1,.25-1,6.87,6.87,0,0,0,.86-.7c-1.43-.65-1.79-.53-2.39.69a1.17,1.17,0,0,1-.14.29c-.2.22-.42.42-.63.63-.19-.3-.48-.58-.53-.9a11.51,11.51,0,0,1,0-1.74,1.33,1.33,0,0,0-1.79,1.36c0,.89.08,1.78.14,2.84l-1.43-1.12c-.12.61-.23,1.11-.3,1.62,0,.1.1.29.18.31a11.35,11.35,0,0,0,2.21.21c.25,0,.47-.54.71-.83A1.37,1.37,0,0,1,54.4,109.55Zm-16.28,4.58a4.44,4.44,0,0,1-.63.05c-1.42-.18-2.27.65-2.6,2.13-.09.39,0,.63.46.72.67.12,1.32.38,2,.56.24.07.64.21.71.11a1,1,0,0,0,.17-.79c-.16-.48.05-.69.42-.87l.72-.36c1-.54,1.13-1.29.3-2.1-.44-.43-.94-.79-1.38-1.21a2.83,2.83,0,0,1-.39-.66l.18-.19,1.42.66c.17-1-1-.83-1.22-1.49,1.11-.39,2.43.37,3.45-.69-1.19-.27-1.37-.67-.75-1.61a2.31,2.31,0,0,1,1-.81,2.25,2.25,0,0,0,1.46-1.65,3,3,0,0,0-.49-2.19c-.28-.54-.51-1.11-.87-1.89.65.09,1,.16,1.37.18a3.37,3.37,0,0,0,.67-.09,5.51,5.51,0,0,0-.33-1.62c-.32-.58-.75-.12-1,.15-.87.85-1.8,1.61-1.92,3-.08.93-.69,1.13-1.4.59-1.17,1.66-.49,3.15.47,4.71a10.81,10.81,0,0,0-1.11.18c-.47.13-1.08.17-1.36.49a5.43,5.43,0,0,0-.93,1.84c-.34,1-.16,1.36.74,2A8.8,8.8,0,0,1,38.12,114.13Zm58.24,29.79a1.16,1.16,0,0,0-.29.09,18,18,0,0,1-6.09,2.9,44.61,44.61,0,0,1-11.57,1.74,4.43,4.43,0,0,0-1.32.24c-.58.21-.65.72-.58,1.26s.46.63.93.64,1.22.13,1.83.14a35.82,35.82,0,0,0,10.86-1.57A13.94,13.94,0,0,0,95,147.07,3.33,3.33,0,0,0,96.36,143.92Zm-17-4.15h-.15c0-2.24,0-4.47,0-6.71,0-.29-.25-.77-.47-.84a7,7,0,0,0-1.73-.17c-.65,0-.91.26-.87,1,.15,3.16.23,6.33.36,9.5.06,1.36.19,2.71.28,4.06,0,.38.07.68.55.7.32,0,.63.11.94.13,1,.07,1.11,0,1.12-1C79.41,144.19,79.4,142,79.4,139.77Zm8,.14h-.26c0-2.26.09-4.53,0-6.79-.08-1.56-.21-1.53-1.72-1.49-.59,0-.78.22-.76.81.08,2.82.1,5.65.18,8.47.06,1.81.19,3.61.3,5.42a1.21,1.21,0,0,0,.17.55,7.47,7.47,0,0,0,1.77-.29c.19-.07.32-.55.33-.85C87.43,143.8,87.41,141.85,87.41,139.91Zm39.33-16.12h0c0,1.38,0,2.77,0,4.15,0,.6.25.79.82.78a3.21,3.21,0,0,0,2.94-2,5.94,5.94,0,0,0,.41-4c-.4-1.75-1.26-3.17-3.17-3.62-.81-.19-1,0-1,.81C126.74,121.18,126.74,122.49,126.74,123.79ZM65.29,101.56l.23.12c0,.12,0,.25,0,.37,0,.88.14,1,.93.67a13.74,13.74,0,0,1,1.5-.54,1.63,1.63,0,0,1,1.56.2,4,4,0,0,1-.79.16c-.5.11-1,.24-1.5.37.24.54.47,1.09.72,1.63,0,.07.11.11.17.17A11.86,11.86,0,0,0,69.29,106c.21.18.77.3.88.19a24.15,24.15,0,0,0,1.48-2l1.55,1.61a3.12,3.12,0,0,0,.31-.44,1.89,1.89,0,0,0-.57-2,7.21,7.21,0,0,0-5.68-2.8,5.29,5.29,0,0,1-2.21-.13,4.23,4.23,0,0,0-2.55-.2c-.75.11-.71.73-.84,1.19s-.19,1,.5,1.28l.65-1.5.66,1.45.61-.72v.89l.31.23ZM83.1,132c-.57,0-1,.09-1.46.11-.64,0-.93.29-.9,1,.11,2.87.15,5.75.25,8.62.06,1.7.18,3.4.29,5.1,0,.21.1.53.25.6.54.27,1.58-.48,1.58-1.1q0-6.43,0-12.87C83.1,133.07,83.1,132.62,83.1,132Zm68.79,6.52.32-.18c.11-2.6.25-5.2.32-7.8a19.94,19.94,0,0,0-.19-2.95c-.12-1-.8-1.27-1.51-.55a5,5,0,0,0-1.15,2,11.23,11.23,0,0,0,0,5.77,12.94,12.94,0,0,0,1.13,2.86C151,138.13,151.51,138.3,151.89,138.57Zm-76.78,2.65h-.33c0-2.69,0-5.38,0-8.07,0-1.07-.14-1.2-1.22-1.32-.85-.1-.94,0-.9.82.11,2.31.17,4.63.33,6.94s.42,4.61.62,6.91c.06.73.57.76,1.09.75s.41-.51.42-.84C75.12,144.67,75.11,142.94,75.11,141.21ZM45.8,130.47c.79-3.9-2.87-10-5.93-10a26.56,26.56,0,0,0,.38,3.3c.14.61.72,1.11.37,1.84-.06.11.08.35.18.5a4,4,0,0,0,3.32,2,.92.92,0,0,1,.94.66C45.26,129.33,45.5,129.81,45.8,130.47Zm33.36-18c-1,0-1.92,0-2.88,0-.49,0-.74.15-.76.68s.19.78.73.82a41.58,41.58,0,0,0,12.56-.66,35.34,35.34,0,0,0,3.81-1.16c.77-.27.11-.86.2-1.29a2,2,0,0,0-.73-.12c-.52.11-1,.33-1.52.48A45.78,45.78,0,0,1,79.17,112.46ZM44.81,133.59l-.23-.05c-.2.83-.4,1.66-.59,2.49-.33,1.5-.51,3.09-1.79,4.16A3.61,3.61,0,0,0,41,143c0,.8,0,1.6.07,2.39.07,1.56.25,3.11-.59,4.59-.54,1,.44,2.44,1.52,2.59Zm27,12.89c0-.36.06-.56,0-.76-.11-2.4-.21-4.79-.35-7.19q-.19-3-.49-6.05a1.25,1.25,0,0,0-.57-.88,5.27,5.27,0,0,0-1.48-.22c0,.32,0,.57,0,.83a68.17,68.17,0,0,0,1.29,11.41A4.31,4.31,0,0,0,71.85,146.49Zm1-25h.14q0,1.88,0,3.76c0,1.35,0,1.35,1.29,1.56,1,.17,1,.17,1-.85.08-3.2.15-6.39.27-9.58,0-1,0-1.13-1.06-1.18s-1.29.06-1.38,1.12C72.94,118,72.9,119.76,72.8,121.49Zm16,15.55h0c0,.69,0,1.39,0,2.08.12,2,.25,4,.41,6,0,.23.29.43.44.65.22-.22.58-.4.64-.65a10.6,10.6,0,0,0,.33-2.2c.08-2.69.15-5.37.15-8.06,0-1.19-.15-2.39-.25-3.58a.72.72,0,0,0-.26-.52c-.53-.27-1.43.37-1.43,1Q88.81,134.4,88.82,137ZM52.27,86.45c.72.27,1.35.53,2,.75a1.83,1.83,0,0,1,1.37,1.41c.1.55-.14.86-.68.77a9.22,9.22,0,0,1-1.27-.44c-.21-.07-.55-.2-.64-.11s-.4.58-.32.74a1.43,1.43,0,0,0,.76.51c.7.28,1.59.33,2.09.81a2,2,0,0,0,1.3.67c.33,0,.83.3.9.56a.8.8,0,0,1-.66,1c-.43.12-.83.54-1.23.52s-.75-.43-1.23-.73a5.12,5.12,0,0,0-.37,1,.87.87,0,0,0,.19.71c.13.1.51,0,.7-.1a1,1,0,0,1,1.57.34c.13.18.49.41.6.35a8.9,8.9,0,0,0,1.41-1c.11-.1.17-.49.09-.55-.51-.4-.28-.84-.16-1.3a1.36,1.36,0,0,0,0-.59,6.35,6.35,0,0,1-.32-1.34c0-1.87,0-1.86-1.75-1.55-.2,0-.44-.14-.66-.22a3.63,3.63,0,0,1,.37-.76c.1-.12.35-.1.52-.18s.64-.24.67-.41a1,1,0,0,0-.34-.75,3.69,3.69,0,0,0-2.71-1A2.52,2.52,0,0,0,52.27,86.45Zm24.54,34.61c0,1.68,0,3.35,0,5,0,.24.13.67.22.68a5.32,5.32,0,0,0,1.78-.07c.2-.05.34-.66.34-1,0-2.9,0-5.8,0-8.7,0-1.88.21-1.59-1.68-1.64-.52,0-.7.16-.7.69C76.82,117.71,76.81,119.38,76.81,121.06Zm7-3.68c.22,2.73.44,5.52.67,8.3,0,.19.15.54.2.54a4.78,4.78,0,0,0,1.52-.29,1.13,1.13,0,0,0,.44-.89c0-1.38,0-2.77-.2-4.15-.19-1.69-.51-3.36-.77-5-.08-.52-.38-.69-.9-.65-.7.06-1.1.3-1,1.09A7.83,7.83,0,0,1,83.79,117.38ZM94,157c-.4.22-.59.31-.76.43a23,23,0,0,1-8,3.33c-2.28.49-4.61.77-6.91,1.17a.84.84,0,0,0-.57.45c-.06.18.14.44.21.65l.81-.88.83,1c.77,0,1.78,0,2.78-.15a29.39,29.39,0,0,0,10.39-3.67C93.65,158.9,93.85,158.08,94,157ZM82.79,123.83h-.18c0-1.6,0-3.2,0-4.8,0-1.06-.24-2.11-.35-3.17-.06-.6-.4-.72-.94-.64-.9.13-.79.86-.79,1.42,0,2.88.1,5.76.15,8.63,0,1.2.07,1.24,1.28,1.18.63,0,.92-.28.86-.94S82.79,124.39,82.79,123.83Zm9.61,20.73h.29a4.69,4.69,0,0,0,.81-3c.08-1.89.15-3.77.15-5.66,0-1.72-.07-3.45-.14-5.17,0-.37,0-.89-.6-.82a.88.88,0,0,0-.9,1c0,3.27,0,6.55,0,9.82C92.07,142,92.27,143.28,92.4,144.57ZM44.07,150c0,.87,0,1.64,0,2.4,0,.56.16.87.74.87h6c0-1,0-1.84,0-2.71,0-.2-.31-.54-.48-.54C48.27,150,46.22,150,44.07,150Zm42.79-35.08c.3,1.47.65,2.77.82,4.11.24,1.9.35,3.81.49,5.71,0,.47.2.59.65.51,1.49-.25,1.55-.31,1.5-1.84a8.25,8.25,0,0,0-.11-1.35c-.45-2.21-.94-4.41-1.37-6.62-.12-.63-.45-.87-1-.76C87.46,114.77,87.13,114.88,86.86,114.94Zm-15.06,2.7h-.08c0-.64,0-1.28,0-1.92,0-.46-.22-.65-.67-.72-.77-.12-.74.44-.79.89-.17,1.56-.34,3.12-.47,4.69s-.21,3.19-.35,4.78c-.08.85.5.83,1.06.93s.77-.19.81-.75C71.45,122.91,71.63,120.28,71.8,117.65Zm8.57,40.73h.06c-.1-1.38-.17-2.76-.31-4.14-.15-1.57.1-1.45-1.84-1.45-.05,0-.13,0-.16,0-.2.19-.55.39-.54.58.14,2.23.32,4.45.51,6.67,0,.16.14.45.23.45a7.19,7.19,0,0,0,1.8,0c.13,0,.19-.64.23-1A11,11,0,0,0,80.37,158.38ZM61.82,112.83c.64-1.62,1.31-3.17,1.86-4.76a5.75,5.75,0,0,0,.17-2,.84.84,0,0,0-1-.82c-.46,0-1.06-.09-1.26.57-.36,1.19-.73,2.39-1,3.59a7.61,7.61,0,0,0-.25,1.88,2.84,2.84,0,0,0,.42,1l.23-.06c.14-.88-.12-1.88.66-2.76C62,110.72,61.1,111.85,61.82,112.83ZM74.59,128.1c-1.67-.28-3.34-.55-5-.86-.63-.12-.76.2-.76.7,0,1.44.29,1.78,1.7,2l.47.1,3.6.62Zm8.92,28.39c0-1,0-1.92,0-2.88,0-.47,0-.89-.67-.81s-1.26-.32-1.25.71c0,2,0,4,0,6,0,.36-.16.86.49.88.89,0,1.37-.28,1.38-.93C83.52,158.46,83.5,157.48,83.51,156.49Zm1.48-.43c0,1,0,2.08,0,3.11,0,.53.25.65.7.56s.82-.26.82-.86.17-1,.22-1.58c.13-1.45.25-2.9.32-4.36,0-.34,0-.94-.64-.73s-1.41-.13-1.41.9S85,155.07,85,156.06ZM181.22,129h0c0,.64,0,1.28,0,1.91s.23.7.72.63A2.58,2.58,0,0,0,184,129c.05-1.56-.58-2.5-1.8-2.8-.65-.16-.92.11-.94.69S181.22,128.28,181.22,129Zm-15.22.06c0,.72,0,1.44,0,2.16,0,.56.24.68.75.59a2.81,2.81,0,0,0,1.95-3.29c-.25-1.39-1-2.13-2.08-2.12-.43,0-.64.13-.62.6C166,127.67,166,128.37,166,129.06ZM77.17,109.33c3.3.45,6.53,1.46,9-1.65A16.84,16.84,0,0,0,77.17,109.33Zm-.78,51.16.3-.21c-.07-1.35-.11-2.7-.23-4.05-.09-1-.27-2.06-.41-3.08-.09-.65-.6-.46-1-.5s-.51.27-.49.62c.06,1.25.06,2.51.2,3.75a8.23,8.23,0,0,0,.62,2.3A5,5,0,0,0,76.39,160.49ZM38.1,124.2c1.09-1.35-.2-4.76-1.33-5.38a.66.66,0,0,0-1.05.32,2.84,2.84,0,0,0-.22.92,2,2,0,0,1-.74,1.69c-.16.12-.16.46-.28.86l1.22-.5.43,3.65.27,0c0-.34,0-.68,0-1,0-.85,0-1.7.11-2.54a1,1,0,0,1,1-.93C38,122.18,37,123.35,38.1,124.2Zm36.67-11.82-6.7-1.1c-.49,1.26-.4,1.44.82,1.75a16.06,16.06,0,0,0,1.7.4c1.37.19,2.75.34,4.18.51Zm15.3,2,1.54,9.88c.85,0,1.27-.38,1.18-1-.25-1.55-.47-3.1-.81-4.63A9.19,9.19,0,0,0,90.07,114.41ZM42.36,159.64A13,13,0,0,1,41.7,162c-.42.86-.44,1.33.31,2l.67.53c-.77,1-.89,2-.21,2.68a1.21,1.21,0,0,0,1.08.06,2.15,2.15,0,0,0,.6-2.16l-.44,1.26-.28-.07a14.37,14.37,0,0,0,0-3.4C43.25,161.71,43.33,160.37,42.36,159.64Zm25.13-45.1a32.94,32.94,0,0,0,.72,9.52c.29-2.66.49-5.33.74-8C69.07,114.66,69,114.57,67.48,114.54Zm-23,31.87c1.92,0,3.78,0,5.63,0,.71,0,.76-.35.77-.88s-.16-.86-.82-.83c-1.3.05-2.61,0-3.91,0C44.58,144.72,44.58,144.72,44.45,146.41ZM45.51,139l-.27,1.82c1.79,0,3.46,0,5.13,0,.71,0,.42-.68.46-1.07s0-.75-.56-.74C48.73,139,47.18,139,45.51,139Zm-14.6,21-.39-.21c-.3.46-.85.93-.85,1.39s-.08.67-.57.77a2.86,2.86,0,0,0-2.36,2.23c-.18.68.12,1.06.78.83a7.72,7.72,0,0,0,2-1.18c.22-.17.18-.68.27-1,0-.15.08-.37.18-.42C31.23,161.88,30.61,160.8,30.91,160Zm56.9-1.1A1.23,1.23,0,0,0,89,157.8c.32-1.88.6-3.77.86-5.66,0-.23-.14-.5-.22-.75a7.17,7.17,0,0,0-1,.54c-.11.09-.1.34-.13.53-.15,1-.33,2-.44,3S87.89,157.71,87.81,158.91Zm-12-10.3c-1-.09-2-.2-3.06-.27a1.36,1.36,0,0,0-.59.21c.21.7.27,1.76.74,2a8.3,8.3,0,0,0,2.76.44ZM64.2,104.38a2.12,2.12,0,0,1,1.22,1.87c.07.65.67.63,1.11.61s1-.15,1-.8a2.91,2.91,0,0,0-1.5-2.38C65.27,103.33,64.73,103.51,64.2,104.38Zm15,3.17a9.48,9.48,0,0,0-6.61,1.57C75.1,109.38,77.24,109.17,79.24,107.55ZM45,142.19l-.14.9c.1.07.14.12.18.12,1.8,0,3.6.09,5.41.08.13,0,.34-.42.35-.64a.65.65,0,0,0-.46-.44C48.6,142.18,46.84,142.19,45,142.19Zm46.8,8.41c-1.47,2.18-1.06,4.75-1.59,7.23C91.1,157.38,92.33,151.83,91.81,150.59ZM47.45,135.86c-.25.14-.52.4-.8.41-.85,0-.79.55-.76,1.13h4.77v-1l-.16.09-.89-1.14-.26.88h-.59l-.19-.81h-.14l-.26,1Zm2.36-13.09a1.89,1.89,0,0,0-.32-.23,3.2,3.2,0,0,0-3.28,1.27c-.28.52.1.66.44.67.89,0,1.78,0,2.75,0l-.79-.91,1,.09-.58-.62ZM47.5,103.1c-.2-.69-.35-1.3-.57-1.9-.08-.22-.31-.57-.43-.56a1.27,1.27,0,0,0-.78.43,2.11,2.11,0,0,0,.43,2.6,1.3,1.3,0,0,0,1,.11C47.29,103.72,47.38,103.33,47.5,103.1Zm12.82,18.31-.11.05c.22-.84.47-1.68.64-2.53.2-1,.36-2.08.46-3.13,0-.18-.32-.4-.5-.6-.17.19-.47.37-.47.56C60.31,117.64,60.32,119.53,60.32,121.41Zm36.28,7-.26,0v12.81C97.19,137.17,96.3,132.8,96.6,128.46Zm-1.5,1.77h-.23V142.6C95.58,138.4,95.21,134.31,95.1,130.22Zm-34.74-27c.15-1.11.3-2,.38-3a.76.76,0,0,0-.4-.62,4.93,4.93,0,0,0-1.2,0c.07.26.12.53.21.79s.18.38.25.58c.17.54.36,1.07-.37,1.41-.14.07-.16.41-.24.63l.12.37C59.49,102.34,59.84,102.87,60.36,103.26Zm-5.81-2.67c.19.84.18.83-.5,1.5a.58.58,0,0,0,0,.54,6.65,6.65,0,0,0,.68.85c1-1.25,1.89-2.43,1.43-4.12a3,3,0,0,0-.39,1.12c-.11.53-.3.83-.83.33A2.26,2.26,0,0,0,54.55,100.59Zm2.22,27.69c0-.54,0-1.1-.11-1.66a.61.61,0,0,0-.3-.38c-.06,0-.32.12-.34.22-.19,1.13-.38,2.25-.49,3.39,0,.18.34.53.54.55s.53-.29.57-.51A10.74,10.74,0,0,0,56.78,128.28Zm-7.59-26.65-.25.17a6.75,6.75,0,0,0,.13,1.12c.06.23.28.59.44.59,1,.06,1.93,0,2.9,0l.11-.29c-.46-.29-.91-.79-1.39-.83C50.37,102.37,49.68,102.39,49.19,101.63Zm-5.12,46.63c1.18.66,5.92.57,6.56-.08A15.86,15.86,0,0,0,44.06,148.26ZM27.19,167.15a2.67,2.67,0,0,0,.61-.67c.25-.51-.27-.46-.54-.63a7.69,7.69,0,0,1-.85-.79c-.17-.15-.48-.4-.53-.36a1.28,1.28,0,0,0-.48.65C25.25,166.15,26.12,167.12,27.19,167.15ZM94,122.69l.25-.06c-.17-3-1.44-5.79-2.24-8.67ZM40,101a4.12,4.12,0,0,0,.78-3.42c0-.21-.47-.35-.73-.52-.12.24-.41.56-.34.72a3.34,3.34,0,0,1,.13,2.88S39.89,100.8,40,101Zm17.24,3.13a5.51,5.51,0,0,0,1.12-1,1.14,1.14,0,0,0-.1-1,.85.85,0,0,0-.8-.15A1.27,1.27,0,0,0,57.23,104.14Zm.37-7.59c-.55.15-1,.25-1.45.41-.24.09-.55.28-.6.47s0,.74.18.84a1.17,1.17,0,0,0,1,0A1.61,1.61,0,0,0,57.6,96.55Zm36.12,53.69-.35-.05-1.13,6.12.38.07ZM86,109.15c1.12.05,2.14.29,3-.57A2.37,2.37,0,0,0,86,109.15Zm-8,2.33a2.58,2.58,0,0,0,.73-.06.59.59,0,0,0,.32-.44c0-.15-.18-.44-.3-.44a7,7,0,0,0-1.49,0c-.13,0-.32.3-.31.46s.21.33.37.4A2.29,2.29,0,0,0,78,111.48Zm17.22,38.3-.33-.07-1.11,5.22.25.05ZM75,111.39v0a1,1,0,0,0,.39,0,4.65,4.65,0,0,0,.58-.38c-.17-.16-.31-.41-.5-.47a2.81,2.81,0,0,0-1.09-.09.61.61,0,0,0-.41.45c0,.16.22.38.4.47A1.71,1.71,0,0,0,75,111.39ZM57.3,119.18l-.27-.07a17.76,17.76,0,0,0-.67,1.7c0,.16.2.4.32.61.21-.15.58-.28.6-.45A14.36,14.36,0,0,0,57.3,119.18Zm24.94-8c-.27-.81-1.06-1-2.11-.46C80.64,111.89,81.49,111.09,82.24,111.22ZM58.88,113l.31.05.44-2.69-.29,0A3.44,3.44,0,0,0,58.88,113Zm24-2.48c.43.85,1,1.07,1.56.7a.6.6,0,0,0,.25-.44c0-.14-.21-.36-.33-.36C83.88,110.4,83.41,110.46,82.86,110.5ZM40.19,153.35c0,.58.21.86.76.81s.91-.18.93-.81Zm30-42.76c-.31-.81-.75-1-1.27-.75a.63.63,0,0,0-.29.42.41.41,0,0,0,.25.31C69.33,110.61,69.77,110.59,70.21,110.59Zm17.38.23c-.21-.7-.7-.66-1.13-.57-.19,0-.34.31-.5.48.19.1.39.29.58.29A5.57,5.57,0,0,0,87.59,110.82Zm-16.47,0,1.42-.1c0-.14,0-.37-.07-.4C72,110.15,71.48,110,71.12,110.87Zm.24-2.62a3,3,0,0,0,.83.39,1,1,0,0,0,.6-.26c.08-.07,0-.28,0-.43a3,3,0,0,0-.65,0A5,5,0,0,0,71.36,108.25ZM53.36,134v-.27H51.91V134ZM78.8,164.83c.73,0,1.31.26,1.8-.42C79.9,164.25,79.37,164.14,78.8,164.83Zm9.61-54.31h1.33C89.31,109.94,89,109.91,88.41,110.51ZM50,112.09c-.38,1-.35,1.16.3,1.57Zm.84,1.53.39-.08L51,112.25l-.34.06ZM60.59,98h.14v-1.4h-.14Zm12.52,55.25-.3.05.27,1.49.29,0ZM91.64,110c-.34-.18-.51-.34-.68-.34s-.25.2-.38.31c.15.11.29.27.45.3S91.33,110.12,91.64,110ZM87,163c.8.39.93.33,1.11-.44Zm8-43.7-.14.07.45,2.17.15,0Z"/><path class="b" d="M147.27,142.25h3.34a.8.8,0,0,0,.39-.06c1.09-.66,2.22-.28,3.36-.21,1.42.1,2.86,0,4.36,0-.1-1-.24-1.78-.24-2.57,0-4.51.1-9,.14-13.52,0-1.1-.21-1.31-1.27-1a5.06,5.06,0,0,1-3.57-.29,6.6,6.6,0,0,0-8.65,3.14,12.25,12.25,0,0,0-1.34,5.46c0,.68,0,1.37,0,2.28a12.21,12.21,0,0,0-5.45-3.29c-2-.57-4-.91-5.59-1.25a34.42,34.42,0,0,0,3.34-1c3.45-1.35,4.22-4,3.71-7.33a10.39,10.39,0,0,0-1-2.86,7.09,7.09,0,0,0-6.67-4.07c-4.85-.15-9.71-.14-14.56-.17a14.36,14.36,0,0,0-1.91.18c-.39.05-.74.27-.45.69,1.13,1.62.81,3.49,1,5.27.05.58.28.69.79.7a5.36,5.36,0,0,0,3.76-1.51c.6-.53,1.1-1.18,1.72-1.67.34-.26,1-.55,1.23-.4a1.49,1.49,0,0,1,.49,1.28c-.68,2.78-1.78,5.32-4.48,6.78-.87.47-1.75.91-2.64,1.33a1.07,1.07,0,0,0-.7,1.1q0,11.53-.15,23.05c0,.61-.08,1.22-.09,1.84s-.24.64-.71.61a10,10,0,0,1-4.92-1.76,68.55,68.55,0,0,1-12.11-10.41,1.68,1.68,0,0,1-.42-1.06c.12-4.83.28-9.65.43-14.48,0-.15,0-.31.08-.65.47.22.87.38,1.24.59a17.9,17.9,0,0,0,9.66,2.37,16.68,16.68,0,0,0,11-4.18,11.12,11.12,0,0,0,3.32-5.84c-.73.55-1.33.94-1.86,1.41a7.5,7.5,0,0,1-3.87,2.26,13.8,13.8,0,0,1-9.88-2.32,17.85,17.85,0,0,1-7.15-9.93c-1.56-4.92-2-9.88-.11-14.8a10.53,10.53,0,0,1,7.54-7A3.42,3.42,0,0,1,112,90a4.21,4.21,0,0,1,.89,4.4,3.76,3.76,0,0,1-1.05,1.37c-.56.49-1.25.81-1.83,1.28s-1,.94-1.53,1.51a1.91,1.91,0,0,0,2-.21,11.8,11.8,0,0,1,6.95-2c1.73-.05,3.47,0,5.2,0a2.71,2.71,0,0,0,.87-.35c-.17-.29-.3-.8-.52-.84-1.61-.3-2-1.49-2.64-2.81a10.93,10.93,0,0,0-7.32-6c-6.67-1.87-12.56-.3-17.58,4.4a28.39,28.39,0,0,0-7.82,13.72c-.2.75-.45,1.1-1.23.78a1.47,1.47,0,0,0-.32,0c-1.09-.17-1.11-.2-.8-1.27A35,35,0,0,1,90.9,91.93a22.4,22.4,0,0,1,14-8.86,27.23,27.23,0,0,1,13.84,1.32,37.19,37.19,0,0,1,9,4.68,36.22,36.22,0,0,0,7.88,4.54,16.5,16.5,0,0,0,10.74.46,6.42,6.42,0,0,0,4.48-4.31c.06-.18.42-.44.57-.4,4.94,1.34,9.75.6,14.58-.68,3.88-1,7.79-2,11.71-2.81a39.91,39.91,0,0,1,12.25-.49A34.52,34.52,0,0,1,206,91c8.69,5.84,14.77,13.58,16.84,24a36.67,36.67,0,0,1-7.1,30.48,46,46,0,0,1-15.31,12.63,74,74,0,0,1-23.42,7.72,107,107,0,0,1-17.75,1.46c-5.11,0-10.25-.1-15.33-.57-11.46-1.06-22.54-3.65-32.88-8.9a52.76,52.76,0,0,1-13.24-9.43,1.69,1.69,0,0,1-.48-1.83c.09-.35.14-.71.23-1.22a7.66,7.66,0,0,1,.77.58c8.78,8.77,19.42,14,31.47,16.5a139.59,139.59,0,0,0,15.78,2.36,138.3,138.3,0,0,0,17.75.47,96.41,96.41,0,0,0,25-3.79c7-2.15,13.57-5.13,19.23-9.85a38.84,38.84,0,0,0,13.64-22.19,30.34,30.34,0,0,0-1.64-17.12c-2.55-6.86-6.61-12.59-13-16.39A29.32,29.32,0,0,0,193.33,92c-8.56-.56-16.16,2.12-23.25,6.65-.78.5-1.57,1-2.54,1.58l-.26-8.54-7,1.55c.61,7.12,1,14.27.13,21.48a3.19,3.19,0,0,0,.58.1h6.16c.57,0,.87-.2.57-.76a8,8,0,0,1-.53-4.23,31.14,31.14,0,0,1,.43-4.19l1.34,4.7c.37,1.31.72,2.62,1.13,3.91.09.27.42.64.64.65,2.11,0,4.21,0,6.32,0,.07,0,.14-.06.34-.14-2.49-4.29-3.33-9.09-4.41-14l-2.44.78-.09-.15c1.61-1,3.2-2,4.84-3a30.8,30.8,0,0,1,12.44-4.06c7.88-.75,15.12.9,21.3,6.08a28.9,28.9,0,0,1,8.75,13.16,30.2,30.2,0,0,1,1.74,12.26,31.07,31.07,0,0,1-4,12.72,38.38,38.38,0,0,1-12.63,13.46,48.45,48.45,0,0,1-4.72,2.84,9.65,9.65,0,0,1-8.21.44,25.36,25.36,0,0,1-13.65-12.18,8.69,8.69,0,0,1-.35-.81,1.63,1.63,0,0,1,0-.39h5.21v-6.51a12.09,12.09,0,0,1,2.16,5.77c0,.48.21.69.67.69h6.32c.07,0,.14-.06.27-.11l-.3-.73c-1-2.44-2-4.87-2.93-7.33-.17-.45-.37-.58-.81-.54a10.54,10.54,0,0,1-2.16,0c.73-.28,1.47-.56,2.2-.85,2-.8,2.75-2.29,2.19-4.7a4.84,4.84,0,0,0-4.88-3.76c-3.05-.13-6.12,0-9.29,0,1.43,5.5.22,10.86.47,16.44a4.23,4.23,0,0,1-.41-.65c-.65-1.94-1.32-3.87-1.92-5.83-.17-.57-.28-.9-1-.74a7.55,7.55,0,0,1-2.32.11c.65-.25,1.32-.47,1.94-.76,1.64-.77,2.77-1.93,2.63-3.89a4.19,4.19,0,0,0-2.93-4,12.7,12.7,0,0,0-3.51-.66c-2.45-.09-4.91,0-7.36,0a1,1,0,0,0-.28.06,109.77,109.77,0,0,1,.22,17.64h6.11v-5.91l.13,0c.11.3.22.6.33.9A39.36,39.36,0,0,0,173,148.71a22.16,22.16,0,0,0,14.34,8.1c1.71.26,3.44.36,5.39.56-.91.36-1.65.67-2.39.95a73,73,0,0,1-14.56,3.53,123.65,123.65,0,0,1-18.89,1.25,140.19,140.19,0,0,1-20.38-1.62,1.59,1.59,0,0,1-.3-.13c4.23-1.11,7.62-3.29,9.71-7.16S148.1,146.29,147.27,142.25Zm-22.93-35.64v-.13c.93-.29,1.88-.52,2.77-.89a3.5,3.5,0,0,0,2.37-3.13,3.94,3.94,0,0,0-2.17-4.19,9.14,9.14,0,0,0-3.26-.93c-2.79-.17-5.59-.14-8.39-.17-.77,0-.87.21-.54.93a4.58,4.58,0,0,1,.61,1.54c.09,2.39.14,4.79.08,7.18s-.23,5-.38,7.5c0,.61.22.79.78.79,1.71,0,3.41,0,5.12,0A4.4,4.4,0,0,0,122,115a16,16,0,0,1-.12-6.36c.33.74.63,1.3.84,1.9a31.14,31.14,0,0,1,1.16,3.79c.13.62.29.81.87.8,1.84,0,3.68,0,5.52,0a6.88,6.88,0,0,0,.81-.1c-.12-.3-.19-.5-.28-.68a35.36,35.36,0,0,1-3-7.54c-.1-.44-.34-.43-.7-.4C126.16,106.49,125.25,106.54,124.33,106.61ZM206.82,115c-.19-.43-.27-.65-.38-.85a34.19,34.19,0,0,1-3.13-7.41.85.85,0,0,0-.64-.44c-.83-.05-1.67,0-2.51,0a22.41,22.41,0,0,1,2.16-.7,3.53,3.53,0,0,0,2.74-3.34c.11-2.13-.62-3.55-2.37-4.29a8.43,8.43,0,0,0-2.83-.74c-2.82-.12-5.64-.1-8.47-.12a3.79,3.79,0,0,0-.68.12,9.61,9.61,0,0,1,.45,1.94c.06,4.37.08,8.73.09,13.1a10.28,10.28,0,0,1-.17,1.91c-.11.56.1.72.61.72h5.81c-.11-1.22-.25-2.3-.28-3.38s.07-2.12.12-3.18h.25a20.75,20.75,0,0,1,1.93,5.79c.07.7.37.94,1.07.92,1.55,0,3.09,0,4.64,0ZM144.7,98.35a13.16,13.16,0,0,1-5.32-.68,6.83,6.83,0,0,0-6.94,2c-3.22,3.29-3.24,9.24-1.17,12.77a5.32,5.32,0,0,0,6.7,2.52c.25-.08.55-.22.76-.15,1.83.65,3.69.32,5.54.27.67,0,.79-.31.73-.91-.14-1.24-.28-2.49-.3-3.73,0-3.65,0-7.3,0-11C144.7,99.12,144.7,98.81,144.7,98.35Zm45.1,9.8a1.53,1.53,0,0,0-1.9.25,13.55,13.55,0,0,0-1,1.16,1.92,1.92,0,0,1-3.1.06,6.06,6.06,0,0,1-1-2.38c-.21-1,0-1.16,1.1-1.15,1.6,0,3.19,0,4.79,0,.68,0,.89-.31.93-.9a9.6,9.6,0,0,0-.94-5,5.63,5.63,0,0,0-6.57-3,6.83,6.83,0,0,0-4.51,3.67,12.48,12.48,0,0,0-.58,10.65,5.83,5.83,0,0,0,4.37,3.83c2.92.73,5.42-.12,6.6-2.48A48.38,48.38,0,0,0,189.8,108.15Zm12.92,26.58a1.49,1.49,0,0,0-1.81.32c-.31.33-.56.71-.84,1.07a2,2,0,0,1-3.37,0,9,9,0,0,1-.9-2.51c-.17-.59.1-.85.76-.84,1.73,0,3.47,0,5.2,0,.62,0,.89-.25.9-.83,0-.77,0-1.55,0-2.32a6.1,6.1,0,0,0-4.6-5.59,6.74,6.74,0,0,0-7.81,4.19,13.46,13.46,0,0,0-.46,9,6.1,6.1,0,0,0,4.24,4.59c3.36,1,6.4,0,7.69-3.68C202.08,137,202.37,135.9,202.72,134.72Zm1.38-15.06a155,155,0,0,1-.11,22.12h8a7.91,7.91,0,0,1-.67-2c-.11-2.85-.2-5.7-.15-8.54.06-3.49.29-7,.41-10.46a24,24,0,0,0-.19-2.55c-1.31.35-2.49.74-3.71,1S205.2,119.52,204.1,119.66Zm-45.34-14.34c0-2.17,0-4.33,0-6.48a.76.76,0,0,0-.37-.54c-3.64-1.82-7.92-1.57-10.65,2-2.49,3.28-2.63,7-1.28,10.79,1.79,4.95,6.63,5.55,10.24,3.11a5.38,5.38,0,0,0,2.61-5.22c-.06-.68-.37-.83-.87-.49a21.63,21.63,0,0,0-1.93,1.53,1.82,1.82,0,0,1-2.85-.25,3.82,3.82,0,0,1-.47-.74,11.52,11.52,0,0,1-1-6.38,8.27,8.27,0,0,1,.7-2.51,1.32,1.32,0,0,1,2.35-.31,3.88,3.88,0,0,1,.89,1.31c.34,1,.57,2,.82,3.06S157.57,105.46,158.76,105.32Z"/><path class="b" d="M126.59,145.63q0-5.64,0-11.27c0-1,.09-1.09,1.09-1,4.75.54,7.7,3.22,9.09,7.69a16.59,16.59,0,0,1-.37,11.64,7.87,7.87,0,0,1-5.94,5.17,17,17,0,0,1-3.1.08c-.58,0-.64-.42-.64-.89,0-2.21,0-4.43,0-6.64q0-2.4,0-4.8Z"/><path class="b" d="M96,123.57a11,11,0,0,1,.33,2,1.35,1.35,0,0,1-.61.89,24.77,24.77,0,0,1-7.89,3.18,40,40,0,0,1-10.06,1.15,4,4,0,0,1-1.7-.33,1.63,1.63,0,0,1-.81-1.1,1,1,0,0,1,1.07-1.12c2.18-.15,4.36-.27,6.53-.54a31,31,0,0,0,12.73-3.91A4.11,4.11,0,0,1,96,123.57ZM76.4,130.38l.45-.23c.12-.22.35-.44.34-.64s-.3-.33-.47-.49c-.19.21-.48.4-.55.65S76.31,130.14,76.4,130.38Z"/><path class="b" d="M54.4,109.55a1.37,1.37,0,0,0-.24.18c-.24.29-.46.82-.71.83a11.35,11.35,0,0,1-2.21-.21c-.08,0-.2-.21-.18-.31.07-.51.18-1,.3-1.62l1.43,1.12c-.06-1.06-.18-2-.14-2.84a1.33,1.33,0,0,1,1.79-1.36,11.51,11.51,0,0,0,0,1.74c0,.32.35.6.53.9.21-.21.43-.41.63-.63a1.17,1.17,0,0,0,.14-.29c.59-1.21,1-1.33,2.39-.69a6.87,6.87,0,0,1-.86.7.62.62,0,0,0-.25,1,8.14,8.14,0,0,1,.94,1.57,8.69,8.69,0,0,1,.24,1.83l-1.32-.59c0,1.11,0,2.1,0,3.08,0,.82.1,1.65.06,2.47a.84.84,0,0,1-.5.63,19.62,19.62,0,0,1-2.7.18c-.64,0-1.14-.19-1.18-1.06s-.41-1.66-.5-2.5a6.85,6.85,0,0,1,.14-1.95c0-.22.38-.38.58-.56.16.25.34.48.48.74a1.44,1.44,0,0,1,.07.45l.25.07,1-2.8Z"/><path class="b" d="M38.12,114.13a8.8,8.8,0,0,0-.88-.85c-.9-.64-1.08-1-.74-2a5.43,5.43,0,0,1,.93-1.84c.27-.32.89-.36,1.36-.49a10.81,10.81,0,0,1,1.11-.18c-1-1.56-1.65-3.05-.47-4.71.71.54,1.32.34,1.4-.59.12-1.39,1.06-2.15,1.92-3,.28-.28.72-.73,1-.15a5.51,5.51,0,0,1,.33,1.62,3.37,3.37,0,0,1-.67.09c-.36,0-.72-.09-1.37-.18.36.78.59,1.35.87,1.89a3,3,0,0,1,.49,2.19A2.25,2.25,0,0,1,42,107.59a2.31,2.31,0,0,0-1,.81c-.62.94-.44,1.34.75,1.61-1,1.06-2.34.3-3.45.69.21.65,1.38.48,1.22,1.49l-1.42-.66-.18.19a2.83,2.83,0,0,0,.39.66c.44.43.94.79,1.38,1.21.84.81.72,1.57-.3,2.1l-.72.36c-.37.18-.58.39-.42.87a1,1,0,0,1-.17.79c-.07.09-.47,0-.71-.11-.66-.18-1.31-.44-2-.56-.5-.09-.55-.33-.46-.72.32-1.48,1.18-2.31,2.6-2.13A4.44,4.44,0,0,0,38.12,114.13Z"/><path class="b" d="M96.36,143.92A3.33,3.33,0,0,1,95,147.07a13.94,13.94,0,0,1-4.89,2.28,35.82,35.82,0,0,1-10.86,1.57c-.61,0-1.22-.12-1.83-.14s-.86-.08-.93-.64,0-1.06.58-1.26a4.43,4.43,0,0,1,1.32-.24A44.61,44.61,0,0,0,90,146.91a18,18,0,0,0,6.09-2.9A1.16,1.16,0,0,1,96.36,143.92Zm-19,5.69c-.15.49-.08.9.46,1s.74-.15.7-.57Z"/><path class="b" d="M79.4,139.77c0,2.21,0,4.42,0,6.63,0,1-.09,1.09-1.12,1-.32,0-.63-.12-.94-.13-.48,0-.53-.31-.55-.7-.08-1.35-.22-2.71-.28-4.06-.13-3.17-.21-6.33-.36-9.5,0-.71.22-1,.87-1a7,7,0,0,1,1.73.17c.23.07.47.54.47.84,0,2.24,0,4.47,0,6.71Z"/><path class="b" d="M87.41,139.91c0,1.94,0,3.89,0,5.83,0,.3-.14.78-.33.85a7.47,7.47,0,0,1-1.77.29,1.21,1.21,0,0,1-.17-.55c-.11-1.81-.25-3.61-.3-5.42-.09-2.82-.1-5.65-.18-8.47,0-.59.17-.79.76-.81,1.51,0,1.64-.07,1.72,1.49.12,2.26,0,4.52,0,6.79Z"/><path class="b" d="M126.74,123.79c0-1.3,0-2.61,0-3.91,0-.82.2-1,1-.81,1.91.45,2.77,1.86,3.17,3.62a5.94,5.94,0,0,1-.41,4,3.21,3.21,0,0,1-2.94,2c-.57,0-.83-.18-.82-.78,0-1.38,0-2.77,0-4.15Z"/><path class="b" d="M65.29,101.56l-.9,1.38-.31-.23v-.89l-.61.72-.66-1.45-.65,1.5c-.69-.27-.62-.82-.5-1.28s.09-1.08.84-1.19a4.23,4.23,0,0,1,2.55.2,5.29,5.29,0,0,0,2.21.13,7.21,7.21,0,0,1,5.68,2.8,1.89,1.89,0,0,1,.57,2,3.12,3.12,0,0,1-.31.44l-1.55-1.61a24.15,24.15,0,0,1-1.48,2c-.1.12-.66,0-.88-.19a11.86,11.86,0,0,1-1.16-1.26c-.05-.06-.14-.1-.17-.17-.24-.54-.48-1.09-.72-1.63.5-.12,1-.26,1.5-.37a4,4,0,0,0,.79-.16,1.63,1.63,0,0,0-1.56-.2,13.74,13.74,0,0,0-1.5.54c-.8.29-.9.21-.93-.67,0-.12,0-.25,0-.37Z"/><path class="b" d="M83.1,132c0,.57,0,1,0,1.47q0,6.43,0,12.87c0,.62-1,1.37-1.58,1.1-.15-.07-.23-.39-.25-.6-.11-1.7-.23-3.4-.29-5.1-.1-2.87-.14-5.75-.25-8.62,0-.71.26-1,.9-1C82.08,132.14,82.53,132.09,83.1,132Z"/><path class="b" d="M151.89,138.57c-.38-.26-.92-.44-1.11-.81a12.94,12.94,0,0,1-1.13-2.86,11.23,11.23,0,0,1,0-5.77,5,5,0,0,1,1.15-2c.71-.73,1.38-.44,1.51.55a19.94,19.94,0,0,1,.19,2.95c-.07,2.6-.21,5.2-.32,7.8Z"/><path class="b" d="M75.11,141.21c0,1.73,0,3.46,0,5.19,0,.33.21.83-.42.84s-1,0-1.09-.75c-.2-2.3-.46-4.6-.62-6.91s-.22-4.63-.33-6.94c0-.82.05-.91.9-.82,1.08.12,1.21.25,1.22,1.32,0,2.69,0,5.38,0,8.07Z"/><path class="b" d="M45.8,130.47c-.3-.65-.54-1.13-.74-1.63a.92.92,0,0,0-.94-.66,4,4,0,0,1-3.32-2c-.1-.15-.23-.39-.18-.5.36-.73-.22-1.23-.37-1.84a26.56,26.56,0,0,1-.38-3.3C42.93,120.43,46.59,126.57,45.8,130.47Z"/><path class="b" d="M79.17,112.46a45.78,45.78,0,0,0,11.4-1.27c.51-.14,1-.36,1.52-.48a2,2,0,0,1,.73.12c-.08.43.57,1-.2,1.29a35.34,35.34,0,0,1-3.81,1.16,41.58,41.58,0,0,1-12.56.66c-.54,0-.75-.29-.73-.82s.27-.69.76-.68C77.24,112.48,78.21,112.46,79.17,112.46Zm-2.48.24c-.22.26-.49.45-.45.56a.77.77,0,0,0,.45.5c.14,0,.47-.25.48-.39S76.91,113,76.69,112.7Z"/><path class="b" d="M44.81,133.59l-2.85,19c-1.07-.15-2.05-1.64-1.52-2.59.84-1.48.66-3,.59-4.59,0-.8-.1-1.6-.07-2.39a3.61,3.61,0,0,1,1.24-2.83c1.28-1.07,1.46-2.66,1.79-4.16.18-.83.39-1.66.59-2.49Z"/><path class="b" d="M71.85,146.49a4.31,4.31,0,0,1-1.59-2.86A68.17,68.17,0,0,1,69,132.22c0-.26,0-.52,0-.83a5.27,5.27,0,0,1,1.48.22,1.25,1.25,0,0,1,.57.88q.3,3,.49,6.05c.15,2.39.24,4.79.35,7.19C71.91,145.93,71.87,146.13,71.85,146.49Z"/><path class="b" d="M72.8,121.49c.09-1.73.14-3.46.29-5.18.09-1.06.31-1.17,1.38-1.12s1.09.17,1.06,1.18c-.12,3.19-.19,6.39-.27,9.58,0,1,0,1-1,.85-1.3-.21-1.29-.21-1.29-1.56s0-2.5,0-3.76Z"/><path class="b" d="M88.82,137q0-2.64,0-5.27c0-.61.9-1.25,1.43-1a.72.72,0,0,1,.26.52c.11,1.19.26,2.39.25,3.58,0,2.69-.07,5.38-.15,8.06a10.6,10.6,0,0,1-.33,2.2c-.06.26-.42.44-.64.65-.15-.22-.43-.42-.44-.65-.17-2-.3-4-.41-6,0-.69,0-1.38,0-2.08Z"/><path class="b" d="M52.27,86.45a2.52,2.52,0,0,1,2.12-.87,3.69,3.69,0,0,1,2.71,1,1,1,0,0,1,.34.75c0,.17-.42.29-.67.41s-.42.06-.52.18a3.63,3.63,0,0,0-.37.76c.22.08.46.25.66.22,1.8-.31,1.77-.32,1.75,1.55a6.35,6.35,0,0,0,.32,1.34,1.36,1.36,0,0,1,0,.59c-.11.46-.35.9.16,1.3.07.06,0,.45-.09.55a8.9,8.9,0,0,1-1.41,1c-.1.06-.47-.17-.6-.35a1,1,0,0,0-1.57-.34c-.19.12-.57.2-.7.1a.87.87,0,0,1-.19-.71,5.12,5.12,0,0,1,.37-1c.48.3.85.71,1.23.73s.8-.4,1.23-.52a.8.8,0,0,0,.66-1c-.07-.26-.57-.52-.9-.56a2,2,0,0,1-1.3-.67c-.5-.48-1.38-.53-2.09-.81a1.43,1.43,0,0,1-.76-.51c-.08-.17.13-.56.32-.74s.43,0,.64.11a9.22,9.22,0,0,0,1.27.44c.55.09.79-.22.68-.77a1.83,1.83,0,0,0-1.37-1.41C53.61,87,53,86.72,52.27,86.45Z"/><path class="b" d="M76.81,121.06c0-1.68,0-3.35,0-5,0-.52.18-.7.7-.69,1.89,0,1.67-.24,1.68,1.64,0,2.9,0,5.8,0,8.7,0,.35-.15,1-.34,1a5.32,5.32,0,0,1-1.78.07c-.09,0-.22-.44-.22-.68C76.8,124.41,76.81,122.74,76.81,121.06Z"/><path class="b" d="M83.79,117.38a7.83,7.83,0,0,0,0-1.09c-.12-.79.29-1,1-1.09.52,0,.82.13.9.65.26,1.68.58,3.35.77,5,.15,1.37.18,2.76.2,4.15a1.13,1.13,0,0,1-.44.89,4.78,4.78,0,0,1-1.52.29c-.05,0-.19-.34-.2-.54C84.23,122.89,84,120.11,83.79,117.38Z"/><path class="b" d="M94,157c-.18,1.06-.37,1.88-1.19,2.31A29.39,29.39,0,0,1,82.44,163c-1,.11-2,.11-2.78.15l-.83-1-.81.88c-.08-.2-.27-.47-.21-.65a.84.84,0,0,1,.57-.45c2.3-.4,4.63-.68,6.91-1.17a23,23,0,0,0,8-3.33C93.43,157.34,93.62,157.25,94,157Z"/><path class="b" d="M82.79,123.83c0,.56,0,1.12,0,1.68s-.23.9-.86.94c-1.2.06-1.26,0-1.28-1.18,0-2.88-.13-5.75-.15-8.63,0-.55-.11-1.28.79-1.42.54-.08.88,0,.94.64.11,1.06.31,2.11.35,3.17.06,1.6,0,3.2,0,4.8Z"/><path class="b" d="M92.4,144.57c-.12-1.28-.33-2.56-.35-3.84-.05-3.27,0-6.55,0-9.82a.88.88,0,0,1,.9-1c.61-.07.59.45.6.82.07,1.72.14,3.45.14,5.17,0,1.89-.07,3.78-.15,5.66a4.69,4.69,0,0,1-.81,3Z"/><path class="b" d="M86.86,114.94c.27-.07.59-.17.92-.23.6-.11.92.13,1,.76.44,2.21.92,4.41,1.37,6.62a8.25,8.25,0,0,1,.11,1.35c.05,1.52,0,1.58-1.5,1.84-.45.08-.62,0-.65-.51-.14-1.91-.25-3.82-.49-5.71C87.51,117.72,87.16,116.41,86.86,114.94Z"/><path class="b" d="M71.8,117.65c-.17,2.63-.35,5.26-.5,7.9,0,.56-.18.85-.81.75s-1.13-.08-1.06-.93c.14-1.59.22-3.19.35-4.78s.3-3.13.47-4.69c.05-.46,0-1,.79-.89.45.07.67.26.67.72,0,.64,0,1.28,0,1.92Z"/><path class="b" d="M80.37,158.38a11,11,0,0,1,0,1.12c0,.35-.09,1-.23,1a7.19,7.19,0,0,1-1.8,0c-.09,0-.22-.29-.23-.45-.19-2.22-.38-4.45-.51-6.67,0-.18.35-.39.54-.58,0,0,.1,0,.16,0,1.94,0,1.69-.12,1.84,1.45.13,1.38.21,2.76.31,4.14Z"/><path class="b" d="M61.82,112.83c-.72-1,.18-2.12-.19-3.34-.78.88-.53,1.88-.66,2.76l-.23.06a2.84,2.84,0,0,1-.42-1,7.61,7.61,0,0,1,.25-1.88c.31-1.21.68-2.4,1-3.59.2-.66.79-.54,1.26-.57a.84.84,0,0,1,1,.82,5.75,5.75,0,0,1-.17,2C63.13,109.67,62.46,111.22,61.82,112.83Z"/><path class="b" d="M74.59,128.1v2.58l-3.6-.62-.47-.1c-1.42-.25-1.71-.59-1.7-2,0-.49.13-.81.76-.7C71.24,127.55,72.92,127.82,74.59,128.1Z"/><path class="b" d="M83.51,156.49c0,1,0,2,0,3,0,.65-.5,1-1.38.93-.65,0-.49-.52-.49-.88,0-2,0-4,0-6,0-1,.74-.64,1.25-.71s.68.34.67.81C83.5,154.57,83.51,155.53,83.51,156.49Z"/><path class="b" d="M85,156.06c0-1,0-2,0-3s.89-.72,1.41-.9.66.39.64.73c-.06,1.45-.19,2.91-.32,4.36,0,.53-.21,1.05-.22,1.58s-.34.77-.82.86-.71,0-.7-.56C85,158.13,85,157.09,85,156.06Z"/><path class="b" d="M181.22,129c0-.72,0-1.44,0-2.15s.29-.85.94-.69c1.22.3,1.85,1.24,1.8,2.8a2.58,2.58,0,0,1-2.05,2.59c-.5.07-.75-.08-.72-.63s0-1.28,0-1.91Z"/><path class="b" d="M166,129.06c0-.69,0-1.38,0-2.08,0-.46.19-.59.62-.6,1.08,0,1.82.74,2.08,2.12a2.81,2.81,0,0,1-1.95,3.29c-.51.1-.77,0-.75-.59C166,130.5,166,129.78,166,129.06Z"/><path class="b" d="M77.17,109.33a16.84,16.84,0,0,1,9-1.65C83.7,110.79,80.47,109.78,77.17,109.33Z"/><path class="b" d="M76.39,160.49a5,5,0,0,1-1-1.16,8.23,8.23,0,0,1-.62-2.3c-.14-1.24-.14-2.5-.2-3.75,0-.35,0-.66.49-.62s.91-.15,1,.5c.14,1,.32,2.05.41,3.08.11,1.35.16,2.7.23,4.05Z"/><path class="b" d="M38.1,124.2c-1.07-.85-.15-2-.58-3a1,1,0,0,0-1,.93c-.1.84-.08,1.69-.11,2.54,0,.34,0,.68,0,1l-.27,0-.43-3.65-1.22.5c.12-.4.12-.74.28-.86a2,2,0,0,0,.74-1.69,2.84,2.84,0,0,1,.22-.92.66.66,0,0,1,1.05-.32C37.9,119.44,39.19,122.85,38.1,124.2Z"/><path class="b" d="M74.77,112.38v1.56c-1.43-.17-2.81-.31-4.18-.51a16.06,16.06,0,0,1-1.7-.4c-1.22-.31-1.3-.49-.82-1.75Z"/><path class="b" d="M90.07,114.41A9.19,9.19,0,0,1,92,118.7c.34,1.53.56,3.09.81,4.63.09.58-.33.91-1.18,1Z"/><path class="b" d="M42.36,159.64c1,.73.9,2.07,1.14,3.17a14.37,14.37,0,0,1,0,3.4l.28.07.44-1.26a2.15,2.15,0,0,1-.6,2.16,1.21,1.21,0,0,1-1.08-.06c-.68-.65-.56-1.66.21-2.68l-.67-.53c-.75-.62-.74-1.09-.31-2A13,13,0,0,0,42.36,159.64Z"/><path class="b" d="M67.48,114.54c1.54,0,1.59.12,1.46,1.53-.25,2.66-.45,5.33-.74,8A32.94,32.94,0,0,1,67.48,114.54Z"/><path class="b" d="M30.91,160c-.31.79.32,1.87-.89,2.39-.1,0-.14.27-.18.42-.09.35,0,.85-.27,1a7.72,7.72,0,0,1-2,1.18c-.65.23-1-.15-.78-.83A2.86,2.86,0,0,1,29.1,162c.49-.1.57-.23.57-.77s.55-.93.85-1.39Z"/><path class="b" d="M87.81,158.91c.09-1.2.13-2.33.25-3.45s.29-2,.44-3c0-.18,0-.44.13-.53a7.17,7.17,0,0,1,1-.54c.08.25.26.51.22.75-.26,1.89-.54,3.78-.86,5.66A1.23,1.23,0,0,1,87.81,158.91Z"/><path class="b" d="M75.83,148.6,75.68,151a8.3,8.3,0,0,1-2.76-.44c-.47-.25-.53-1.31-.74-2a1.36,1.36,0,0,1,.59-.21C73.8,148.4,74.82,148.51,75.83,148.6Z"/><path class="b" d="M64.2,104.38c.53-.87,1.07-1.06,1.83-.71a2.91,2.91,0,0,1,1.5,2.38c0,.65-.53.78-1,.8s-1,0-1.11-.61A2.12,2.12,0,0,0,64.2,104.38Z"/><path class="b" d="M79.24,107.55c-2,1.62-4.14,1.83-6.61,1.57A9.48,9.48,0,0,1,79.24,107.55Z"/><path class="b" d="M91.81,150.59c.51,1.23-.71,6.78-1.59,7.23C90.75,155.34,90.35,152.77,91.81,150.59Z"/><path class="b" d="M47.45,135.86l.72.59.26-1h.14l.19.81h.59l.26-.88.89,1.14.16-.09v1H45.88c0-.58-.09-1.09.76-1.13C46.92,136.26,47.19,136,47.45,135.86Z"/><path class="b" d="M49.8,122.77l-.77.28.58.62-1-.09.79.91c-1,0-1.86,0-2.75,0-.34,0-.72-.16-.44-.67a3.2,3.2,0,0,1,3.28-1.27A1.89,1.89,0,0,1,49.8,122.77Z"/><path class="b" d="M47.5,103.1c-.13.24-.21.62-.39.68a1.3,1.3,0,0,1-1-.11,2.11,2.11,0,0,1-.43-2.6,1.27,1.27,0,0,1,.78-.43c.12,0,.35.34.43.56C47.15,101.8,47.3,102.41,47.5,103.1Z"/><path class="b" d="M60.32,121.41c0-1.88,0-3.76,0-5.64,0-.19.31-.37.47-.56.17.2.51.42.5.6-.1,1-.26,2.1-.46,3.13-.17.85-.42,1.68-.64,2.53Z"/><path class="b" d="M96.6,128.46c-.3,4.34.59,8.71-.26,12.83V128.48Z"/><path class="b" d="M95.1,130.22c.11,4.08.48,8.17-.23,12.37V130.22Z"/><path class="b" d="M60.36,103.26c-.52-.39-.88-.92-1.26.16L59,103c.08-.22.09-.56.24-.63.73-.34.54-.87.37-1.41-.06-.2-.18-.38-.25-.58s-.14-.52-.21-.79a4.93,4.93,0,0,1,1.2,0,.76.76,0,0,1,.4.62C60.67,101.21,60.51,102.15,60.36,103.26Z"/><path class="b" d="M54.55,100.59a2.26,2.26,0,0,1,.35.22c.52.5.72.2.83-.33a3,3,0,0,1,.39-1.12c.46,1.69-.46,2.87-1.43,4.12a6.65,6.65,0,0,1-.68-.85.58.58,0,0,1,0-.54C54.73,101.42,54.74,101.43,54.55,100.59Z"/><path class="b" d="M56.78,128.28a10.74,10.74,0,0,1-.12,1.61c0,.21-.39.52-.57.51s-.56-.37-.54-.55c.11-1.13.3-2.26.49-3.39,0-.09.28-.25.34-.22a.61.61,0,0,1,.3.38C56.73,127.18,56.75,127.74,56.78,128.28Z"/><path class="b" d="M49.19,101.63c.49.75,1.19.74,1.94.8.48,0,.93.54,1.39.83l-.11.29c-1,0-1.94,0-2.9,0-.16,0-.37-.36-.44-.59a6.75,6.75,0,0,1-.13-1.12Z"/><path class="b" d="M27.19,167.15c-1.07,0-1.94-1-1.79-1.79a1.28,1.28,0,0,1,.48-.65s.36.21.53.36a7.69,7.69,0,0,0,.85.79c.26.17.78.12.54.63A2.67,2.67,0,0,1,27.19,167.15Z"/><path class="b" d="M94,122.69l-2-8.72c.8,2.87,2.07,5.63,2.24,8.67Z"/><path class="b" d="M40,101c-.1-.21-.17-.3-.15-.34a3.34,3.34,0,0,0-.13-2.88c-.07-.16.22-.48.34-.72.25.17.69.31.73.52A4.12,4.12,0,0,1,40,101Z"/><path class="b" d="M57.23,104.14a1.27,1.27,0,0,1,.22-2.12.85.85,0,0,1,.8.15,1.14,1.14,0,0,1,.1,1A5.51,5.51,0,0,1,57.23,104.14Z"/><path class="b" d="M57.6,96.55a1.61,1.61,0,0,1-.91,1.69,1.17,1.17,0,0,1-1,0c-.17-.1-.25-.57-.18-.84s.37-.38.6-.47C56.59,96.79,57,96.7,57.6,96.55Z"/><path class="b" d="M93.72,150.24l-1.1,6.14-.38-.07,1.13-6.12Z"/><path class="b" d="M86,109.15a2.37,2.37,0,0,1,3-.57C88.15,109.44,87.13,109.2,86,109.15Z"/><path class="b" d="M78,111.48a2.29,2.29,0,0,1-.68,0c-.16-.06-.37-.26-.37-.4s.18-.44.31-.46a7,7,0,0,1,1.49,0c.12,0,.31.29.3.44a.59.59,0,0,1-.32.44A2.58,2.58,0,0,1,78,111.48Z"/><path class="b" d="M95.25,149.78,94.06,155l-.25-.05,1.11-5.22Z"/><path class="b" d="M75,111.39a1.71,1.71,0,0,1-.62-.05c-.18-.09-.4-.31-.4-.47a.61.61,0,0,1,.41-.45,2.81,2.81,0,0,1,1.09.09c.2.06.34.31.5.47a4.65,4.65,0,0,1-.58.38,1,1,0,0,1-.39,0Z"/><path class="b" d="M57.3,119.18a14.36,14.36,0,0,1,0,1.8c0,.17-.39.3-.6.45-.11-.2-.36-.45-.32-.61a17.76,17.76,0,0,1,.67-1.7Z"/><path class="b" d="M82.24,111.22c-.75-.14-1.6.66-2.11-.46C81.18,110.27,82,110.41,82.24,111.22Z"/><path class="b" d="M58.88,113a3.44,3.44,0,0,1,.45-2.69l.29,0L59.19,113Z"/><path class="b" d="M82.86,110.5c.55,0,1-.11,1.48-.1.12,0,.31.23.33.36a.6.6,0,0,1-.25.44C83.91,111.58,83.3,111.35,82.86,110.5Z"/><path class="b" d="M40.19,153.35h1.69c0,.63-.43.76-.93.81S40.2,153.93,40.19,153.35Z"/><path class="b" d="M70.21,110.59c-.44,0-.88,0-1.31,0a.41.41,0,0,1-.25-.31.63.63,0,0,1,.29-.42C69.47,109.62,69.9,109.77,70.21,110.59Z"/><path class="b" d="M87.59,110.82a5.57,5.57,0,0,1-1,.2c-.19,0-.39-.19-.58-.29.17-.17.31-.44.5-.48C86.89,110.16,87.37,110.12,87.59,110.82Z"/><path class="b" d="M71.12,110.87c.36-.89.87-.72,1.35-.5.07,0,0,.26.07.4Z"/><path class="b" d="M71.36,108.25a5,5,0,0,1,.82-.33,3,3,0,0,1,.65,0c0,.15,0,.37,0,.43a1,1,0,0,1-.6.26A3,3,0,0,1,71.36,108.25Z"/><path class="b" d="M53.36,134H51.91v-.27h1.46Z"/><path class="b" d="M78.8,164.83c.57-.69,1.1-.58,1.8-.42C80.11,165.08,79.53,164.84,78.8,164.83Z"/><path class="b" d="M88.41,110.51c.56-.61.9-.58,1.33,0Z"/><path class="b" d="M50,112.09l.3,1.57C49.68,113.25,49.65,113.11,50,112.09Z"/><path class="b" d="M50.87,113.61l-.17-1.3.34-.06.23,1.28Z"/><path class="b" d="M60.59,98v-1.4h.14V98Z"/><path class="b" d="M73.11,153.22l.26,1.49-.29,0-.27-1.49Z"/><path class="b" d="M91.64,110c-.32.15-.48.3-.6.27s-.3-.2-.45-.3c.13-.11.25-.31.38-.31S91.31,109.78,91.64,110Z"/><path class="b" d="M87,163l1.11-.44C88,163.29,87.84,163.36,87,163Z"/><path class="b" d="M95,119.27l.47,2.2-.15,0-.45-2.17Z"/><path class="a" d="M124.33,106.61c.91-.07,1.82-.12,2.73-.22.36,0,.59,0,.7.4a35.36,35.36,0,0,0,3,7.54c.09.19.16.39.28.68a6.88,6.88,0,0,1-.81.1c-1.84,0-3.68,0-5.52,0-.58,0-.75-.19-.87-.8a31.14,31.14,0,0,0-1.16-3.79c-.2-.59-.5-1.16-.84-1.9A16,16,0,0,0,122,115a4.4,4.4,0,0,1-.67.11c-1.71,0-3.41,0-5.12,0-.56,0-.82-.18-.78-.79.15-2.5.33-5,.38-7.5s0-4.79-.08-7.18a4.58,4.58,0,0,0-.61-1.54c-.33-.73-.23-.94.54-.93,2.8,0,5.6,0,8.39.17a9.14,9.14,0,0,1,3.26.93,3.94,3.94,0,0,1,2.17,4.19,3.5,3.5,0,0,1-2.37,3.13c-.89.37-1.85.6-2.77.89Zm-2.76-4.77h-.13c.05.74.12,1.48.15,2.22,0,.49.27.63.72.64,1.08,0,1.76-.69,2-2.15a2.79,2.79,0,0,0-1.07-2.82,2.19,2.19,0,0,0-1.36-.11c-.18,0-.28.61-.32.94A10.06,10.06,0,0,0,121.58,101.83Z"/><path class="a" d="M206.82,115h-1.59c-1.55,0-3.09,0-4.64,0-.7,0-1-.22-1.07-.92a20.75,20.75,0,0,0-1.93-5.79h-.25c0,1.06-.14,2.12-.12,3.18s.17,2.16.28,3.38h-5.81c-.51,0-.72-.15-.61-.72a10.28,10.28,0,0,0,.17-1.91c0-4.37,0-8.73-.09-13.1a9.61,9.61,0,0,0-.45-1.94,3.79,3.79,0,0,1,.68-.12c2.82,0,5.65,0,8.47.12a8.43,8.43,0,0,1,2.83.74c1.75.74,2.47,2.16,2.37,4.29a3.53,3.53,0,0,1-2.74,3.34,22.41,22.41,0,0,0-2.16.7c.84,0,1.68,0,2.51,0a.85.85,0,0,1,.64.44,34.19,34.19,0,0,0,3.13,7.41C206.55,114.32,206.63,114.55,206.82,115Zm-9.64-13.13c0,.7.08,1.39.11,2.08s.37.64.83.56a2.4,2.4,0,0,0,1.82-2,2.51,2.51,0,0,0-1.88-3.18c-.45,0-.73.09-.77.57C197.25,100.52,197.22,101.18,197.18,101.84Z"/><path class="a" d="M144.7,98.35c0,.46,0,.78,0,1.09,0,3.65,0,7.3,0,11,0,1.25.16,2.49.3,3.73.07.6-.06.89-.73.91-1.86.05-3.72.38-5.54-.27-.21-.07-.51.07-.76.15a5.32,5.32,0,0,1-6.7-2.52c-2.06-3.52-2-9.47,1.17-12.77a6.83,6.83,0,0,1,6.94-2A13.16,13.16,0,0,0,144.7,98.35ZM139,106h-.1c0-1.68,0-3.35,0-5,0-.76-.59-1-1.2-.58a4.1,4.1,0,0,0-1.26,1.66,9.6,9.6,0,0,0-.41,5,21.2,21.2,0,0,0,1,3.74c.19.56.69,1.22,1.35,1,.34-.13.57-.9.59-1.4C139,109,139,107.49,139,106Z"/><path class="a" d="M189.8,108.15a48.38,48.38,0,0,1-1.77,4.64c-1.18,2.36-3.68,3.21-6.6,2.48a5.83,5.83,0,0,1-4.37-3.83,12.48,12.48,0,0,1,.58-10.65,6.83,6.83,0,0,1,4.51-3.67,5.63,5.63,0,0,1,6.57,3,9.6,9.6,0,0,1,.94,5c0,.59-.25.91-.93.9-1.6,0-3.19,0-4.79,0-1.07,0-1.32.13-1.1,1.15a6.06,6.06,0,0,0,1,2.38,1.92,1.92,0,0,0,3.1-.06,13.55,13.55,0,0,1,1-1.16A1.53,1.53,0,0,1,189.8,108.15Zm-4.55-6.05h0c0-.37,0-.75,0-1.12a4.35,4.35,0,0,0-.16-.78,1,1,0,0,0-1.59-.54,2,2,0,0,0-.67,1,13.41,13.41,0,0,0-.37,2.18c-.15,1.49.16,1.81,1.91,1.39a1.07,1.07,0,0,0,.9-1.22C185.24,102.68,185.25,102.39,185.25,102.09Z"/><path class="a" d="M202.72,134.72c-.35,1.18-.63,2.31-1,3.41-1.28,3.7-4.33,4.66-7.69,3.68a6.1,6.1,0,0,1-4.24-4.59,13.46,13.46,0,0,1,.46-9,6.74,6.74,0,0,1,7.81-4.19,6.1,6.1,0,0,1,4.6,5.59c0,.77,0,1.55,0,2.32,0,.59-.28.84-.9.83-1.73,0-3.47,0-5.2,0-.66,0-.93.25-.76.84a9,9,0,0,0,.9,2.51,2,2,0,0,0,3.37,0c.28-.36.53-.74.84-1.07A1.49,1.49,0,0,1,202.72,134.72Zm-7.34-5.09c.07,1.16.15,1.3.9,1.42s1.8-.35,1.94-.9a5.56,5.56,0,0,0-.17-3.36.91.91,0,0,0-1.56-.44,2.22,2.22,0,0,0-.68,1C195.59,128.11,195.51,128.88,195.38,129.63Z"/><path class="a" d="M204.1,119.66c1.1-.14,2.37-.24,3.61-.48s2.4-.63,3.71-1a24,24,0,0,1,.19,2.55c-.12,3.49-.34,7-.41,10.46-.05,2.85,0,5.7.15,8.54a7.91,7.91,0,0,0,.67,2h-8A155,155,0,0,0,204.1,119.66Z"/><path class="a" d="M158.76,105.32c-1.19.14-1.61-.17-1.84-1.09s-.48-2.06-.82-3.06a3.88,3.88,0,0,0-.89-1.31,1.32,1.32,0,0,0-2.35.31,8.27,8.27,0,0,0-.7,2.51,11.52,11.52,0,0,0,1,6.38,3.82,3.82,0,0,0,.47.74,1.82,1.82,0,0,0,2.85.25,21.63,21.63,0,0,1,1.93-1.53c.5-.34.81-.19.87.49a5.38,5.38,0,0,1-2.61,5.22c-3.61,2.44-8.45,1.84-10.24-3.11-1.36-3.76-1.21-7.51,1.28-10.79,2.73-3.6,7-3.85,10.65-2a.76.76,0,0,1,.37.54C158.77,101,158.76,103.15,158.76,105.32Z"/><path class="a" d="M76.4,130.38c-.09-.24-.29-.52-.23-.72s.36-.43.55-.65c.17.16.46.32.47.49s-.21.43-.34.64Z"/><path class="a" d="M77.37,149.61l1.16.42c0,.42-.25.64-.7.57S77.22,150.1,77.37,149.61Z"/><path class="a" d="M76.69,112.7c.23.3.47.48.47.66s-.34.42-.48.39a.77.77,0,0,1-.45-.5C76.2,113.15,76.47,113,76.69,112.7Z"/><path class="b" d="M121.58,101.83a10.06,10.06,0,0,1,0-1.27c0-.34.14-.9.32-.94a2.19,2.19,0,0,1,1.36.11,2.79,2.79,0,0,1,1.07,2.82c-.26,1.46-.95,2.17-2,2.15-.45,0-.69-.15-.72-.64,0-.74-.1-1.48-.15-2.22Z"/><path class="b" d="M197.18,101.84c0-.66.07-1.32.12-2,0-.48.31-.61.77-.57a2.51,2.51,0,0,1,1.88,3.18,2.4,2.4,0,0,1-1.82,2c-.46.08-.8,0-.83-.56S197.22,102.54,197.18,101.84Z"/><path class="b" d="M139,106c0,1.47,0,2.93,0,4.39,0,.5-.26,1.27-.59,1.4-.66.26-1.16-.4-1.35-1a21.2,21.2,0,0,1-1-3.74,9.6,9.6,0,0,1,.41-5,4.1,4.1,0,0,1,1.26-1.66c.61-.47,1.17-.18,1.2.58.07,1.67,0,3.35,0,5Z"/><path class="b" d="M185.25,102.09c0,.29,0,.59,0,.88a1.07,1.07,0,0,1-.9,1.22c-1.75.42-2.06.1-1.91-1.39a13.41,13.41,0,0,1,.37-2.18,2,2,0,0,1,.67-1,1,1,0,0,1,1.59.54,4.35,4.35,0,0,1,.16.78c0,.37,0,.74,0,1.12Z"/><path class="b" d="M195.38,129.63c.13-.75.22-1.52.43-2.25a2.22,2.22,0,0,1,.68-1,.91.91,0,0,1,1.56.44,5.56,5.56,0,0,1,.17,3.36c-.14.55-1.18,1-1.94.9S195.45,130.79,195.38,129.63Z"/></svg>