<svg xmlns="http://www.w3.org/2000/svg" viewBox="0 0 250 250"><title>Grocery</title><path d="M92.3,134.45c1.84-1,2.52-2.65,2.87-4.67,1.27-7.29,2.64-14.56,2-22-.17-1.86.8-2.68,2.54-2.68,5.67,0,11.35-.19,17,.11,6.49.35,9,6,5.22,11.27a24.44,24.44,0,0,1-5.68,6.09c-1.71,1.2-1.58,2.27-.34,3.74,1.8,2.12,3.43,4.39,5.18,6.56.5.63.9,1.75,1.93,1.36a3.31,3.31,0,0,0,2.19-2.77c.86-5.3,1.93-10.57,2.78-15.88.37-2.32,1.45-4.57-.8-7-1.18-1.25.41-3.31,2.29-3.35,7.11-.15,14.22-.08,21.33,0,1.29,0,2.63.65,2.5,2.22-.17,2.09.47,4.6-2.07,5.85-1.68.83-2.65-.23-3.6-1.44s-8.11-2-9-1c-1.32,1.62-1.26,3.84-1.21,5.76,0,1.56,1.85.69,2.85.81a9.61,9.61,0,0,0,5-.87c2.19-1,3.52,0,3.5,2.44,0,4.47-2,5.84-5.91,4.23-2-.82-4.17-.26-6.27-.3-.57,0-.74.56-.81,1-.35,2.37-.65,4.75-1,7.13-.15,1,.45,1.1,1.19,1.09,3.62,0,7.35.49,10.36-2.37a2.65,2.65,0,0,1,3.19-.54c1.16.62,1.05,1.8.91,2.82-.36,2.44.07,5.47-3.8,5.61-.64,0-.72.82-.95,1.34-.47,1.05-.93,2.11-1.42,3.15-3.64,7.75-10.3,10.19-18,6.36-7.38-3.65-12.4-9.88-17.08-16.39-1.33-1.85-2.48-3.82-4-5.7-.54,2.4-1.72,4.64-.27,7.18,1.31,2.29.14,4.18-2.5,4.25-2.21.05-4.43-.1-6.63,0-2.64.16-3.81-.88-3.39-3.54Zm32.76,3.46a14.47,14.47,0,0,0,5.19,4.66,6.17,6.17,0,0,0,8.22-2.36c.88-1.44,1.18-2.4-1.17-2.33C133.39,138,129.47,137.91,125.05,137.91Zm-18.44-21.28c-.12,2.39.13,2.66,1.82,2.29a6.65,6.65,0,0,0,4.73-3.87c.65-1.36,1-2.79-.12-4s-2.46-1-3.79-.75c-1.64.27-2,1.49-2.14,3S106.73,115.9,106.61,116.64Z" style="fill:#d71631"/><path d="M92.35,134.4c-3.71,6.14-8.88,10.36-16,11.9-15.69,3.41-30.53-4.24-32.71-23-1.38-11.83,2.49-21.55,12.21-28.36,10.15-7.11,21.19-7,32.38-2.39a14.6,14.6,0,0,1,1.77,1c6.23,3.66,7.5,8.25,4.05,14.72-.83,1.55-1.75,3.11-3.9,2.75s-2.86-1.86-3.23-3.85C85.64,100.19,80.7,96,74.91,97A14.58,14.58,0,0,0,66,102.48c-6.79,8.42-8.41,18-5.26,28.21,2,6.34,9,9.25,15.85,7a19,19,0,0,0,7.76-5.32c1.38-1.46,2.69-3.16,5.08-2.6s2.37,2.86,2.87,4.72Z" style="fill:#d71631"/><path d="M177.63,112.82c0,1.13.18,3-2.16,3.1-2.15.12-3-1.16-3.05-3.28-.06-2-1.6-2.77-3.32-3-2-.27-4,0-5.09,1.9-.79,1.3,0,2.38,1.1,3.22,1.62,1.28,3.59,1.78,5.49,2.44,3.48,1.21,6.64,2.77,7.16,7a10.76,10.76,0,0,1-4.92,10.92c-6.21,4.24-13.54,4-18.94-.62-2.08-1.78-3.11-3.87-2-6.62.53-1.34,1.27-2.42,2.88-2.38a3.18,3.18,0,0,1,3,2.16c2.06,4.54,3.69,5.55,7,4.6,1.83-.53,3.54-1.4,3.68-3.53s-1.73-2.58-3.22-3.17a42,42,0,0,0-4.14-1.21c-4.17-1.18-6.42-4-7-8.22a9.32,9.32,0,0,1,5-9.87,17.21,17.21,0,0,1,12-1.85C176.15,105.51,177.55,107.2,177.63,112.82Z" style="fill:#d71631"/><path d="M194.6,104.54c4.23,0,8.45,0,12.68,0,1.21,0,2.83-.3,3.23,1.19.53,2,1.12,4.18-.08,6.16-.66,1.09-1.67.57-2.53,0a13.72,13.72,0,0,0-7.06-2.18c-1.63,0-2.35.5-2.57,2.24-.78,6.38-1.74,12.74-2.66,19.1a3.74,3.74,0,0,0,.79,2.9c1.29,1.83.42,3.74-1.79,3.87-3,.17-6,0-8.93,0a2.09,2.09,0,0,1-2.15-1.57,2,2,0,0,1,1-2.48c1.49-.82,1.68-2.13,1.86-3.62.73-6,1.51-12,2.4-18,.29-2-.31-2.58-2.22-2.56s-3.82,0-5.49,1.27-2.41.6-2.69-1.25c-.59-3.88.49-5.19,4.4-5.19Z" style="fill:#d71631"/><path d="M147.09,145h56.42v.62H147.1Z" style="fill:#d71631"/><path d="M115.84,145.74h-31v-.55h31Z" style="fill:#d71631"/><path d="M51.84,161.92V151.49H58.2v1.61H53.43v2.61h4.35v1.61H53.43v4.6Z" style="fill:#17a04e"/><path d="M67.7,157.7H65.86v4.21H64.27V151.49h3.92a2.88,2.88,0,0,1,1.19.25A3.16,3.16,0,0,1,71,153.4a3,3,0,0,1,.24,1.21,3,3,0,0,1-.51,1.7,3.18,3.18,0,0,1-1.29,1.13l2.33,4.48H70Zm-1.84-1.61h2.33a1.46,1.46,0,0,0,.57-.11,1.42,1.42,0,0,0,.46-.31,1.53,1.53,0,0,0,.32-.48,1.48,1.48,0,0,0,.12-.59,1.45,1.45,0,0,0-.43-1.06,1.47,1.47,0,0,0-1-.45H65.86Z" style="fill:#17a04e"/><path d="M77.85,161.92V151.49h6.36v1.61H79.45v2.61h4.35v1.61H79.45v3h4.82v1.61Z" style="fill:#17a04e"/><path d="M96.45,154a2.53,2.53,0,0,0-.91-.73,2.79,2.79,0,0,0-1.16-.22,2.3,2.3,0,0,0-1.33.33,1,1,0,0,0-.48.81.76.76,0,0,0,.21.53,2.15,2.15,0,0,0,.55.42,7.17,7.17,0,0,0,.74.35l.78.3h0q.43.15,1,.39a4.88,4.88,0,0,1,1,.61,3.52,3.52,0,0,1,.81.89,2.26,2.26,0,0,1,.33,1.24,3,3,0,0,1-.28,1.32,2.69,2.69,0,0,1-.78,1,3.56,3.56,0,0,1-1.17.59,5,5,0,0,1-1.45.2,4.56,4.56,0,0,1-2.06-.48A6.42,6.42,0,0,1,90.33,160l1.3-1.07a3.38,3.38,0,0,0,1.2,1.09,3.18,3.18,0,0,0,1.47.34,3.62,3.62,0,0,0,.83-.09,2.28,2.28,0,0,0,.65-.25,1.37,1.37,0,0,0,.43-.39.84.84,0,0,0,.15-.49,1,1,0,0,0-.22-.66,2.19,2.19,0,0,0-.56-.5,3.93,3.93,0,0,0-.77-.37l-.82-.29-.35-.13q-.5-.18-1-.38a3.36,3.36,0,0,1-.86-.52,2.42,2.42,0,0,1-.62-.8,2.64,2.64,0,0,1-.24-1.18,3.08,3.08,0,0,1,.19-1.07,2.39,2.39,0,0,1,.6-.92,3,3,0,0,1,1.06-.63,4.55,4.55,0,0,1,1.56-.24,5.6,5.6,0,0,1,1,.09,3.8,3.8,0,0,1,.94.31,4.48,4.48,0,0,1,.89.57,6,6,0,0,1,.86.87l-1.37,1.1Z" style="fill:#17a04e"/><path d="M110,161.92v-4.6h-4.26v4.6h-1.59V151.49h1.59v4.21H110v-4.21h1.59v10.42Z" style="fill:#17a04e"/><path d="M127.12,161.92v-7.09l-3.36,5-3.41-4.91v7h-1.71V151.49H120l3.77,5.48,3.77-5.48h1.34v10.42Z" style="fill:#d7112d"/><path d="M142.28,158.92h-3.59l-1.16,3h-2l4.08-10.42h1.66l4.08,10.42h-2Zm-3-1.59h2.33l-.3-.77-.27-.68-.27-.69-.32-.83Z" style="fill:#d7112d"/><path d="M155.91,157.7h-2v4.21h-1.76V151.49h4.34a3.48,3.48,0,0,1,1.31.25,3.54,3.54,0,0,1,1.08.67,3.18,3.18,0,0,1,.73,1,2.84,2.84,0,0,1-.29,2.9,3.44,3.44,0,0,1-1.43,1.13l2.58,4.48h-2Zm-2-1.61h2.58a1.77,1.77,0,0,0,.64-.11,1.6,1.6,0,0,0,.51-.31,1.52,1.52,0,0,0,.35-.48,1.35,1.35,0,0,0,.13-.59,1.38,1.38,0,0,0-.47-1.06,1.72,1.72,0,0,0-1.16-.45h-2.58Z" style="fill:#d7112d"/><path d="M167.15,161.92V151.49h1.74v4.38l4.79-4.38h2.36l-5.56,5.06,1.36,1.31,1.43,1.39,1.43,1.38,1.35,1.29h-2.45l-4.71-4.59v4.59Z" style="fill:#d7112d"/><path d="M182.77,161.92V151.49h7v1.61h-5.28v2.61h4.81v1.61h-4.81v3h5.33v1.61Z" style="fill:#d7112d"/><path d="M201,153.1v8.82h-1.76V153.1h-2.71v-1.61h7.13v1.61Z" style="fill:#d7112d"/></svg>