<svg xmlns="http://www.w3.org/2000/svg" viewBox="0 0 250 250"><title>Grocery</title><path d="M82.44,86.53c.76.1,1.52.18,2.27.29a17.18,17.18,0,0,1,9.77,4.89l.42.39A14.82,14.82,0,0,1,95,90.41a4.25,4.25,0,0,1,4-3.47,8.17,8.17,0,0,1,2.5.19,4.46,4.46,0,0,1,3.35,4.46c0,1.78-.24,3.55-.4,5.33a19.07,19.07,0,0,0,0,5.13c.51-.13,1-.27,1.5-.37a10.89,10.89,0,0,1,5.11.15,11.47,11.47,0,0,0,5.7,0,15.51,15.51,0,0,1,3.06-.34,1.52,1.52,0,0,1,1.59,1.57c.05.72,0,1.44,0,2.16,0,6.92,0,13.84,0,20.76a11.73,11.73,0,0,0,.54,3.74,5.23,5.23,0,0,0,5.17,3.36c3.26-.22,5.55-2.41,6.61-5.72a16.33,16.33,0,0,0,.62-4.82c0-2.65,0-5.29,0-7.94a21.05,21.05,0,0,0-.26-2.42,2,2,0,0,0-.16-.49,1.18,1.18,0,0,0-1.63-.82,13,13,0,0,1-1.49.41,3.12,3.12,0,0,1-3.77-2.6,7.62,7.62,0,0,1,0-3.53c.47-2.09,2-3.07,3.92-3.48a9.25,9.25,0,0,1,4.55.07,12.64,12.64,0,0,0,6.53,0,12.19,12.19,0,0,1,2.83-.25,1.74,1.74,0,0,1,1.8,1.79c.05.83,0,1.66,0,2.48,0,7.53,0,15.06,0,22.6,0,1.17.13,2.33.24,3.5a2.35,2.35,0,0,0,.3.83,1.09,1.09,0,0,0,1.34.59,2.73,2.73,0,0,0,.32-.08,4.42,4.42,0,0,1,3.21-.2c0-.28,0-.49,0-.7q0-14.61,0-29.22c0-1.25,0-2.5-.1-3.75a4.85,4.85,0,0,0-.38-1.49,1.09,1.09,0,0,0-1.45-.69c-.3.07-.6.17-.9.27a3.22,3.22,0,0,1-4.51-2.64,7.57,7.57,0,0,1,.38-4.6A3.94,3.94,0,0,1,149,87.69a22.34,22.34,0,0,1,6.5.75,7.72,7.72,0,0,0,3.66-.15,31.88,31.88,0,0,1,3.5-.59,2.4,2.4,0,0,1,2.43,2,10.67,10.67,0,0,1,.1,1.45q0,6.93,0,13.86c0,.11,0,.21,0,.39a2,2,0,0,0,.26-.22,12.94,12.94,0,0,1,9.23-4.87,13.25,13.25,0,0,1,11,3.57,17.66,17.66,0,0,1,4.24,6.84,30.18,30.18,0,0,1,1.74,9.36,29.61,29.61,0,0,1-2.8,14.39,16.45,16.45,0,0,1-6.28,7.06,15.13,15.13,0,0,1-6.79,2.1,16.9,16.9,0,0,1-7.65-1,12.91,12.91,0,0,1-6.38-5.59.94.94,0,0,0-.34-.36c0,.5.07,1,.13,1.5a3.39,3.39,0,0,1-2.05,3.68c-1.47.69-4.76.7-6.24-.77a1.19,1.19,0,0,0-.17.14,4.36,4.36,0,0,1-4.16,1.42c-1.14-.15-2.27-.4-3.41-.6a11,11,0,0,0-4.5.32,6.11,6.11,0,0,1-2.73.26,2.28,2.28,0,0,1-2-2.11,12.34,12.34,0,0,1-.09-1.35c0-.69,0-1.37,0-2.19-.17.18-.26.26-.34.36A17.87,17.87,0,0,1,116,142.51a10,10,0,0,1-6.72-8.62,35.81,35.81,0,0,1-.27-4c0-5.17,0-10.34,0-15.5a9.77,9.77,0,0,0-.26-2.22c-.31-1.28-.84-1.55-2.09-1.16a4.26,4.26,0,0,1-2.16.32,5.69,5.69,0,0,1-1.52-.55.64.64,0,0,0-.74,0,8.52,8.52,0,0,1-7.08.54,4.22,4.22,0,0,1-2.87-4c-.08-.9,0-1.81,0-2.72a5.94,5.94,0,0,0-3.91-6A11.58,11.58,0,0,0,82.19,98a8.76,8.76,0,0,0-6.11,3.64,13,13,0,0,0-1.85,3.87,23.82,23.82,0,0,0-1,6.18c-.07,2.22-.14,4.44-.07,6.66a22.31,22.31,0,0,0,1.58,8.28,9.18,9.18,0,0,0,7.79,5.81,12.75,12.75,0,0,0,5.84-.4,5.69,5.69,0,0,0,4.15-5.25c.09-1.25,0-2.5.09-3.75a5.08,5.08,0,0,1,4.25-5,7.37,7.37,0,0,1,6,1.15,7,7,0,0,1,2.73,4.76,15.56,15.56,0,0,1-7.32,15.95,25.19,25.19,0,0,1-9.62,3.5,31.36,31.36,0,0,1-7.53.27A25,25,0,0,1,66.57,138a21.77,21.77,0,0,1-6.2-9.09,36.15,36.15,0,0,1-2.26-10c-.06-.68-.13-1.37-.2-2q0-1.41,0-2.82c.07-.75.14-1.49.2-2.24a43,43,0,0,1,1.62-9,21.19,21.19,0,0,1,18-16c.83-.13,1.67-.2,2.51-.3ZM178.77,122c-.12-1.32-.2-2.65-.38-4a9.75,9.75,0,0,0-2.26-5.17,5.09,5.09,0,0,0-8.1,0,10.6,10.6,0,0,0-2,3.75,19.69,19.69,0,0,0-.64,8.95,12.27,12.27,0,0,0,1.56,4.63,5.92,5.92,0,0,0,8.3,1.92,6.85,6.85,0,0,0,2.27-3.1A20.55,20.55,0,0,0,178.77,122Z" style="fill:#ee3a43"/><path d="M128.2,154.1c-1.74.44-2.69-.49-2.45-2.35,0-.33.08-.65.1-1,0-.5-.21-.88-.69-.9-1.29-.05-2.59,0-3.88,0a.61.61,0,0,0-.64.62c0,.73-.08,1.47-.05,2.2,0,.4.34.53.72.51s.83,0,.91-.54a5.12,5.12,0,0,0,0-.89.88.88,0,0,1,.85-1c.79-.08,1.32.21,1.44.8a3,3,0,0,1,0,.56c0,1.25,0,2.5.05,3.76,0,.45.09.9.09,1.36a1.22,1.22,0,0,1-1.63,1.28,1,1,0,0,1-.76-1c0-.3,0-.6,0-.89s-.35-.63-.94-.62c-.4,0-.75.13-.75.59,0,.91,0,1.81.08,2.72,0,.59.32.76.9.63s1.22-.19,1.6.47a2.16,2.16,0,0,1-.14,2.22,1.31,1.31,0,0,1-1.11.5c-.69,0-1.37-.13-2.06-.12-1.36,0-2.71.07-4.07.11l-.42,0a1.71,1.71,0,0,1-1.7-2.47,1.14,1.14,0,0,1,1.4-.79c1,.19,1.25,0,1.29-1,0-.78,0-1.57,0-2.35q0-2.54,0-5.07c0-.13,0-.25,0-.38-.06-1.05-.27-1.22-1.3-1a1.12,1.12,0,0,1-1.38-.75,1.69,1.69,0,0,1,1.5-2.49c.84,0,1.69.1,2.53.11q2.7,0,5.39,0c1.63,0,3.25-.09,4.88-.12.91,0,1.19.27,1.16,1.18,0,.69-.09,1.37-.14,2.06,0,.15,0,.29,0,.57.11-.19.17-.26.2-.33a6.35,6.35,0,0,1,4.94-3.69,8.59,8.59,0,0,1,4.62.36,6.5,6.5,0,0,1,4,4.62,11.68,11.68,0,0,1-.39,8,6.33,6.33,0,0,1-5.31,3.87,8.79,8.79,0,0,1-4.26-.38,6.3,6.3,0,0,1-4.17-5C128.44,156.7,128.37,155.4,128.2,154.1ZM139,155.22c-.12-1.1-.15-2-.31-2.84a2.91,2.91,0,0,0-2-2.53,2.76,2.76,0,0,0-3.57,1.8,9.76,9.76,0,0,0-.43,2.43,10,10,0,0,0,.38,4,2.69,2.69,0,0,0,2.69,2,2.61,2.61,0,0,0,2.71-2A25.92,25.92,0,0,0,139,155.22Z" style="fill:#ee3a43"/><path d="M160.45,154.92c0-1.21,0-2.41,0-3.62a3.76,3.76,0,0,0-.08-.74c-.13-.61-.34-.8-.91-.61-1.41.48-2-.77-1.8-2a1.41,1.41,0,0,1,1.47-1.25c.81,0,1.62.12,2.43.13,1.2,0,2.4,0,3.6-.05a26.28,26.28,0,0,1,3,0,5.51,5.51,0,0,1,3.9,2.43,10.11,10.11,0,0,1,0,11.21,6.08,6.08,0,0,1-5.6,2.6c-1.22-.06-2.44-.18-3.65-.19-1,0-1.93.12-2.9.18l-.61,0a1.71,1.71,0,0,1-1.64-2.49,1.14,1.14,0,0,1,1.42-.77c1,.19,1.25,0,1.27-1,0-1.31,0-2.63,0-3.94Zm4.2.12c0,1.32,0,2.63,0,3.95,0,.42,0,.86.54,1a3,3,0,0,0,1.1.1,3.2,3.2,0,0,0,2.54-2.07,7.58,7.58,0,0,0,.24-5.58,3.56,3.56,0,0,0-2.65-2.6c-1.26-.27-1.76.13-1.77,1.42S164.65,153.77,164.65,155Z" style="fill:#ee3a43"/><path d="M158.65,154.93a11.58,11.58,0,0,1-.84,4.48,6.42,6.42,0,0,1-5.35,4,9,9,0,0,1-3.76-.23,6,6,0,0,1-4.28-3.92,12.21,12.21,0,0,1,0-8.53,6.32,6.32,0,0,1,5.23-4.17,8.8,8.8,0,0,1,4.08.23,6.38,6.38,0,0,1,4.43,4.64,33.11,33.11,0,0,1,.67,3.52Zm-4.3.34c-.12-1.12-.15-2-.31-2.82a2.94,2.94,0,0,0-2-2.58,2.76,2.76,0,0,0-3.58,1.78,12,12,0,0,0,0,6.51,2.64,2.64,0,0,0,1.66,1.79,2.74,2.74,0,0,0,3.7-1.75A21.14,21.14,0,0,0,154.35,155.27Z" style="fill:#ee3a43"/><path d="M176.72,162c-.41,1.13-.89,1.44-1.85,1.25a1.23,1.23,0,0,1-1.07-1.33c0-.48.07-1,.06-1.45,0-.84-.05-1.69-.07-2.53a1.25,1.25,0,0,1,1-1.37,3.31,3.31,0,0,1,1.24-.13c.83.09,1.28.59,1.37,1.58a2,2,0,0,0,2,2.08,4.75,4.75,0,0,0,1.89-.13,1.54,1.54,0,0,0,1.16-1.58,1.37,1.37,0,0,0-1.09-1.46c-1.11-.36-2.25-.63-3.38-.95a5,5,0,0,1-3.31-2.42,4.9,4.9,0,0,1,3.56-7,5.76,5.76,0,0,1,3.58.38,13.86,13.86,0,0,1,1.52,1,.27.27,0,0,0,0-.11c.05-1.07.71-1.18,1.42-1.17.95,0,1.38.46,1.37,1.35,0,.55-.1,1.09-.1,1.64s.08,1.25.08,1.87a1.34,1.34,0,0,1-1.22,1.37,1.64,1.64,0,0,1-1.94-.93,3.54,3.54,0,0,1-.16-.68,1.51,1.51,0,0,0-1.1-1.33,3.7,3.7,0,0,0-2.11-.25,1.47,1.47,0,0,0-1.27,1.31,1.31,1.31,0,0,0,1.09,1.48c.91.26,1.86.39,2.77.66a10.79,10.79,0,0,1,2.12.85,4.27,4.27,0,0,1,2.23,4.44,5.35,5.35,0,0,1-4.46,4.94,6.09,6.09,0,0,1-4.9-1Z" style="fill:#ee3a43"/><path d="M190.31,143.12a2.51,2.51,0,1,1,2.51-2.51A2.52,2.52,0,0,1,190.31,143.12Zm0-4.75a2.23,2.23,0,1,0,2.23,2.23A2.24,2.24,0,0,0,190.31,138.38Z" style="fill:#ee3a43"/><path d="M189.48,139a3.9,3.9,0,0,1,.72-.06,1.19,1.19,0,0,1,.84.24.72.72,0,0,1,.23.55.76.76,0,0,1-.55.74h0a.72.72,0,0,1,.43.59,4.61,4.61,0,0,0,.22.8H191a3.76,3.76,0,0,1-.19-.69c-.09-.4-.24-.55-.58-.56h-.35v1.26h-.37Zm.37,1.32h.38c.4,0,.65-.22.65-.55s-.27-.54-.67-.54a1.54,1.54,0,0,0-.37,0Z" style="fill:#ee3a43"/></svg>