<svg xmlns="http://www.w3.org/2000/svg" viewBox="0 0 250 250"><title>Drug Logos</title><path d="M167,118.06h9c.61,0,1.08,0,1.28.79.88,3.26,3.18,4.88,6.4,5.25,2.85.32,5.73.45,8.45-.8a3.75,3.75,0,0,0,2.29-4.64,4.08,4.08,0,0,0-2.88-2.68,65.37,65.37,0,0,0-7.91-2.11,113.07,113.07,0,0,1-14.7-4.3c-6.33-2.48-10.25-7-10.92-13.84-.7-7.22,1.89-13.06,8.13-17,4.46-2.85,9.47-4,14.66-4.39,7.15-.53,14.21-.14,20.86,2.9a18.58,18.58,0,0,1,11.18,14.12c.07.35.07.7.14,1,.14.71,0,1-.86,1q-8.93,0-17.86,0c-.74,0-1-.34-1.15-1a5.63,5.63,0,0,0-3.76-3.79,13.4,13.4,0,0,0-8.2-.18,3.66,3.66,0,0,0-3,3.47c-.1,1.65.66,2.83,2.53,3.63,3.18,1.35,6.6,1.89,9.92,2.72,4.23,1.06,8.55,1.83,12.58,3.52,5.46,2.29,9.93,5.71,11.26,11.87,2.2,10.26-2.7,19-12.64,22.7-6.22,2.33-12.7,2.79-19.27,2.43-5.62-.31-11-1.45-15.88-4.41a20.47,20.47,0,0,1-9.84-14.95c-.16-1,0-1.44,1.17-1.41C161,118.12,164,118.06,167,118.06Z" style="fill:#cc1c00"/><path d="M89.52,99c-3,0-5.91,0-8.86,0-.67,0-1-.13-1.16-.89-1.12-7.28-6.84-9.2-12.79-8.53-5.4.61-8.48,3.65-9.83,9.73a30.68,30.68,0,0,0,.45,15.81,12.29,12.29,0,0,0,17.82,7A10,10,0,0,0,80,114.59c.15-.95.46-1.23,1.41-1.22,5.73,0,11.46.05,17.2,0,1.14,0,1.31.39,1.2,1.38C98.58,125,93.51,132.6,83.7,136.3a41.44,41.44,0,0,1-30.37-.19c-8.6-3.34-14.15-9.67-16.72-18.53a38.89,38.89,0,0,1,.24-22.93C39.89,85,46.42,78.72,56,75.84a42.7,42.7,0,0,1,26.91.59c9.93,3.5,15.18,10.84,16.51,21.16.15,1.14-.22,1.42-1.33,1.39C95.26,98.91,92.39,99,89.52,99Z" style="fill:#cc1c00"/><path d="M128,115.18l4-13.49q3.66-12.35,7.3-24.7A1.41,1.41,0,0,1,141,75.76q9,.08,18,0c1,0,1.28.16.9,1.21q-10.62,29.53-21.17,59.08a1.52,1.52,0,0,1-1.72,1.18q-9.13-.05-18.26,0A1.51,1.51,0,0,1,117,136q-10.42-29.32-20.9-58.61c-.58-1.64-.58-1.64,1.22-1.64,6.13,0,12.26,0,18.39,0a1.23,1.23,0,0,1,1.45,1.08q5,18.15,10,36.28A5,5,0,0,0,128,115.18Z" style="fill:#cc1c00"/><path d="M117.81,152c.61-.47,1.05-1,1.55-1.39,2.47-2.18,7.62-2.46,9.79,1.26.34.58.51.35.81,0a7.25,7.25,0,0,1,8-2.53,5.38,5.38,0,0,1,4.1,4.51,9.47,9.47,0,0,1,.17,1.81c0,4,0,8.07,0,12.1,0,.7-.17,1-.91.94a17.71,17.71,0,0,0-2.55,0c-.79.06-1-.18-1-1,0-3.76,0-7.52,0-11.29a4.31,4.31,0,0,0-.52-2.28c-1.19-2-4.39-2.06-6.05-.13a5.06,5.06,0,0,0-1.15,3.46c0,3.43,0,6.86,0,10.28,0,.68-.15,1-.9.95a19.51,19.51,0,0,0-2.64,0c-.74.05-.92-.25-.92-.94,0-3.49,0-7,0-10.47q0-.32,0-.64c0-2.61-1-3.9-3-4a4.34,4.34,0,0,0-4.55,3.72,13.88,13.88,0,0,0-.08,1.82c0,3.22,0,6.43,0,9.65,0,.65-.16.94-.86.9-.94-.05-1.88,0-2.82,0-.52,0-.78-.12-.77-.7q0-8.92,0-17.84c0-.47.18-.65.64-.64,1,0,2.06,0,3.09,0,.52,0,.6.23.58.66C117.79,150.79,117.81,151.4,117.81,152Z" style="fill:#cc1c00"/><path d="M39.65,166.68a1.41,1.41,0,0,0-.16,1c0,2.46,0,4.92,0,7.37,0,.59-.17.82-.77.79a19.11,19.11,0,0,0-2.55,0c-.9.08-1.19-.17-1.18-1.13.06-4.16,0-8.31,0-12.47,0-3.91,0-7.83,0-11.74,0-.76.22-1,1-1,.91.06,1.82,0,2.73,0,.47,0,.66.18.63.65s0,1.13,0,1.65c.34.11.44-.09.54-.22,3.34-4,11.18-3.43,13.56,2.31,1.7,4.08,1.65,8.19-.84,12C49.85,170.13,42.7,170.29,40,167A3,3,0,0,0,39.65,166.68ZM50,159.45a12.64,12.64,0,0,0-.31-3,4.89,4.89,0,0,0-3.9-4c-2.37-.37-4.41.44-5.44,2.4a8.57,8.57,0,0,0,0,8.44c1.06,1.94,3,2.5,5.06,2.36A4.44,4.44,0,0,0,49.28,163,8.42,8.42,0,0,0,50,159.45Z" style="fill:#cc1c00"/><path d="M62.22,151.95c2.33-2.86,5.3-3.45,8.64-2.51a5.76,5.76,0,0,1,4.31,5.48c.09,4.37,0,8.74.07,13.1,0,.53-.22.68-.71.67-.91,0-1.82,0-2.73,0-.74,0-1-.18-1-1,0-3.61,0-7.22,0-10.83,0-2.73-1.24-4.14-3.74-4.27a4.52,4.52,0,0,0-5,4c-.14,2.85-.06,5.7-.08,8.55,0,.91,0,1.82,0,2.73,0,.55-.17.76-.73.74-1,0-2,0-3,0-.56,0-.74-.2-.73-.74,0-1.79,0-3.58,0-5.37,0-6.52,0-13,0-19.57,0-.8.21-1.08,1-1A14.54,14.54,0,0,0,61,142c.84-.07,1,.27,1,1,0,2.64,0,5.28,0,7.92A1.34,1.34,0,0,0,62.22,151.95Z" style="fill:#cc1c00"/><path d="M162.66,159.52c0,1.52,0,3,0,4.55s.15,1.55,1.49,1.87c.09,0,.23,0,.25.08a5.86,5.86,0,0,1,.11,2.24c0,.47-.46.49-.8.58a6.31,6.31,0,0,1-3.06-.08,2.69,2.69,0,0,1-2.09-1.83c-.15-.47-.29-.61-.7-.19-2.6,2.69-5.78,2.82-9.1,1.84a4.9,4.9,0,0,1-3.66-4.88,5,5,0,0,1,3.21-5.1,26.5,26.5,0,0,1,6.62-1.52,13.28,13.28,0,0,0,1.86-.42,1.84,1.84,0,0,0,1.47-1.56,2.28,2.28,0,0,0-.94-2.15,6.05,6.05,0,0,0-6,0,2.84,2.84,0,0,0-1.06,1.85.65.65,0,0,1-.78.64,24.12,24.12,0,0,0-2.64,0c-.83.06-.9-.34-.78-1a6.15,6.15,0,0,1,4.89-4.94,13.63,13.63,0,0,1,7.37.09,5.42,5.42,0,0,1,4.26,5.43c.06,1.48,0,3,0,4.46Zm-4.32,1.33c0-.45,0-.91,0-1.36s-.16-.64-.64-.43a18.79,18.79,0,0,1-3.41.94,12.14,12.14,0,0,0-3.29,1,2.58,2.58,0,0,0-1.39,2.73,2.4,2.4,0,0,0,1.94,2.24A5.06,5.06,0,0,0,158.33,160.85Z" style="fill:#cc1c00"/><path d="M91.33,166.32c-2.94,3.09-6.34,3.4-10,2.1a4.76,4.76,0,0,1-3.25-4.69,4.94,4.94,0,0,1,3.09-5.08,26,26,0,0,1,6.7-1.57,15.1,15.1,0,0,0,1.86-.42,1.83,1.83,0,0,0,1.48-1.44,2.25,2.25,0,0,0-.88-2.25,6,6,0,0,0-6,0,2.86,2.86,0,0,0-1,1.86c-.07.47-.28.59-.71.58-.94,0-1.88,0-2.82,0-.66,0-.74-.24-.65-.82a6.06,6.06,0,0,1,4.83-5.08,13.44,13.44,0,0,1,7.45.09,5.44,5.44,0,0,1,4.26,5.54c.06,2.88,0,5.76,0,8.64a6.53,6.53,0,0,0,.12,1.26.9.9,0,0,0,.94.82c.87-.1.82.42.82,1,0,1.92-.1,2.06-2,2.06S91.92,168.61,91.33,166.32Zm0-5.62c0-.39,0-.79,0-1.18,0-.56-.13-.7-.67-.46a13.74,13.74,0,0,1-2.61.77,18.45,18.45,0,0,0-3.93,1.09,2.63,2.63,0,0,0-1.55,2.9,2.43,2.43,0,0,0,2,2.17C88.4,167,91.37,164.66,91.37,160.69Z" style="fill:#cc1c00"/><path d="M195.72,163.54c.55-1.61,1-3,1.47-4.33,1.05-3,2.14-5.92,3.18-8.89.2-.57.45-.84,1.1-.81,1,.05,1.94,0,2.91,0,.72,0,.8.18.55.83-1.81,4.59-3.58,9.2-5.36,13.8-.93,2.4-1.85,4.8-2.8,7.19a16.28,16.28,0,0,1-1,2,5,5,0,0,1-3.8,2.65,13.92,13.92,0,0,1-3.63,0c-.54-.07-.7-.3-.68-.83,0-.79-.26-1.75.1-2.32s1.4-.1,2.14-.14a2.67,2.67,0,0,0,2.55-1.71c.31-.75.58-1.53.91-2.28a1.09,1.09,0,0,0-.12-.95c-2.37-5.77-4.72-11.55-7.11-17.31-.31-.74-.21-.93.59-.89a25.79,25.79,0,0,0,2.91,0,1,1,0,0,1,1.19.82c1.49,4.16,3.18,8.25,4.56,12.45C195.48,162.94,195.55,163.1,195.72,163.54Z" style="fill:#cc1c00"/><path d="M182.78,155.87c-.12,0-.24,0-.36,0a1.88,1.88,0,0,1-2.26-1.26c-1.29-2.77-5.91-3-8-.48s-2.15,7.53,0,10a5.36,5.36,0,0,0,5.33,1.56,3.92,3.92,0,0,0,3.32-3.2c.1-.43.29-.52.68-.52,1,0,1.94.05,2.91,0,.77,0,.86.28.72.91a7.44,7.44,0,0,1-6,6c-3.71.84-7.2.35-10.1-2.36a10.74,10.74,0,0,1-2.25-11.47,9.47,9.47,0,0,1,9-6c3,0,5.65.69,7.65,3.08a8.11,8.11,0,0,1,1.49,3c.16.56,0,.79-.6.76S183.3,155.87,182.78,155.87Z" style="fill:#cc1c00"/><path d="M104.64,152.47c.37-.43.72-.88,1.11-1.3a5.7,5.7,0,0,1,4.77-1.77c.53,0,.75.21.73.77,0,.82,0,1.64,0,2.46,0,.54-.19.66-.7.62a5.66,5.66,0,0,0-3.18.59,5.05,5.05,0,0,0-2.8,4.76q-.07,4.55,0,9.1c0,.8-.22,1.08-1,1a18.25,18.25,0,0,0-2.64,0c-.76.05-.81-.34-.81-.94,0-4.92,0-9.83,0-14.75,0-.91,0-1.82,0-2.73,0-.52.12-.79.7-.78,1,0,1.94,0,2.91,0,.51,0,.71.18.69.69,0,.75,0,1.49,0,2.24Z" style="fill:#cc1c00"/><path d="M213,148.75c.21-.71.44-1.41.63-2.13a.75.75,0,0,1,.9-.66c.61.06.41.49.42.81,0,.82,0,1.64,0,2.45,0,.23.05.53-.32.52s-.33-.29-.33-.53c0-.63,0-1.26,0-2.11a6.77,6.77,0,0,0-.79,1.89c-.13.32-.11.76-.62.76s-.49-.46-.61-.77c-.22-.62-.42-1.26-.68-2a8.19,8.19,0,0,0-.13,2.23c0,.23.07.54-.28.56s-.34-.34-.34-.59c0-.85,0-1.7,0-2.54,0-.3-.05-.64.42-.64s.7,0,.83.48c.19.78.47,1.54.71,2.3Z" style="fill:#cc1c00"/><path d="M208.48,146h1.08c.23,0,.44,0,.42.33s-.24.26-.41.24c-.76-.1-.84.33-.8.92a16,16,0,0,1,0,1.63c0,.26.16.66-.34.68s-.4-.42-.41-.72c0-.54,0-1.09,0-1.63s-.06-1-.76-.89c-.2,0-.47,0-.45-.29s.29-.26.49-.26Z" style="fill:#cc1c00"/></svg>