<svg xmlns="http://www.w3.org/2000/svg" viewBox="0 0 250 250"><title>Grocery</title><path d="M206.56,74.72H45a9.23,9.23,0,0,0-9.22,9.22v83.56A9.23,9.23,0,0,0,45,176.71H206.56a9.23,9.23,0,0,0,9.22-9.22V83.94A9.23,9.23,0,0,0,206.56,74.72Zm6.34,92.78a6.34,6.34,0,0,1-6.34,6.34H45a6.35,6.35,0,0,1-6.34-6.34V83.94A6.35,6.35,0,0,1,45,77.6H206.56a6.34,6.34,0,0,1,6.34,6.34Z" style="fill:#231f20"/><path d="M207.81,163.8c0,2.69-2.5,4.87-5.59,4.87H49.39c-3.09,0-5.59-2.18-5.59-4.87V87.93c0-2.69,2.5-4.87,5.59-4.87H202.22c3.09,0,5.59,2.18,5.59,4.87Z" style="fill:#231f20"/><path d="M49.39,82.79c-3.23,0-5.86,2.31-5.86,5.14V163.8c0,2.83,2.63,5.14,5.86,5.14H202.22c3.23,0,5.86-2.3,5.86-5.14V87.93c0-2.83-2.63-5.14-5.86-5.14Zm-5.32,81V87.93c0-2.54,2.39-4.6,5.32-4.6H202.22c2.93,0,5.32,2.06,5.32,4.6V163.8c0,2.54-2.39,4.6-5.32,4.6H49.39C46.46,168.4,44.07,166.34,44.07,163.8Z" style="fill:#fff"/><path d="M120.59,100.94a9,9,0,0,0-1.72-3.7c-.91-.95-2.07-1.25-4.48-1.25h-2.15c-1.51,0-1.68.09-1.68,1.51V107h3.53c3.83,0,4.26-.39,4.74-3.14h1.55v8.57h-1.55c-.47-2.93-.9-3.27-4.74-3.27h-3.53V116c0,4,.34,4.31,4.09,4.61v1.51H101.26v-1.51c3.14-.3,3.53-.56,3.53-4.61V100.08c0-3.87-.39-4.18-3.53-4.48V94.09h20.37c0,.73.26,4,.47,6.59Z" style="fill:#fff"/><path d="M132,107.1c1.59-2.71,3.23-4.56,4.87-4.56a2.77,2.77,0,0,1,2.89,2.71,3.4,3.4,0,0,1-2.11,3.14,1.18,1.18,0,0,1-1.34-.21,3.2,3.2,0,0,0-2-.86c-.82,0-1.68.56-2.41,2.28v8c0,2.63.22,2.84,3.53,3.1v1.38h-11.8V120.7c2.37-.26,2.76-.47,2.76-3.1v-9.43c0-2.15-.3-2.37-2.33-2.84v-1.21a47.9,47.9,0,0,0,7.84-1.64v4.61Z" style="fill:#fff"/><path d="M157.46,117.82c-2.58,3.87-5.94,4.78-7.75,4.78-5.77,0-8.91-4.26-8.91-9.22a11,11,0,0,1,3.19-7.8,9.6,9.6,0,0,1,6.59-3.06h0a7.09,7.09,0,0,1,7,6.93c0,.86-.3,1.42-1.25,1.55-.77.13-6.07.52-10.29.69.17,4.61,2.71,6.93,5.81,6.93a7.24,7.24,0,0,0,4.82-1.85Zm-7.75-13.56c-1.68,0-3.14,2-3.44,5.43l5.17-.13c.65,0,.9-.13.9-.86,0-2.2-.95-4.44-2.58-4.44Z" style="fill:#fff"/><path d="M171.54,108.6c-1.16-2.63-2.54-4.39-4.56-4.39a2.26,2.26,0,0,0-2.2,2.32c0,1.34,1,2.33,3.19,3.32,3.49,1.51,5.81,3,5.81,6.37,0,4.26-4.09,6.37-7.71,6.37a10.65,10.65,0,0,1-5.43-1.46,27.06,27.06,0,0,1-.65-5.81l1.25-.09c.95,2.71,3,5.68,5.6,5.68a2.26,2.26,0,0,0,2.33-2.33c0-1.25-.6-2.32-3.23-3.62-2-.95-5.51-2.63-5.51-6.33,0-3.36,2.71-6.07,7.23-6.12a9.59,9.59,0,0,1,4.13.78,27,27,0,0,1,1,4.91Z" style="fill:#fff"/><path d="M187.38,122.08V120.7c2.07-.3,2.2-.6,2.2-3v-7.58c0-3.32-1.42-4.44-3.1-4.44a4.38,4.38,0,0,0-3.1,1.2v10.81c0,2.41.17,2.71,2,3v1.38H175.15V120.7c2.45-.21,2.71-.39,2.71-3.14v-20c0-2.63-.17-2.63-2.41-2.89V93.36a67.09,67.09,0,0,0,7.92-1.55v13.48a8.62,8.62,0,0,1,5.73-2.76c3.75,0,5.94,2.41,5.94,7.15v7.88c0,2.76.26,2.8,2.45,3.14v1.38Z" style="fill:#fff"/><path d="M91.87,157.73v-1.51c3.23-.34,3.44-.65,3.4-4.61L95.19,135H95l-9.56,22.39H84.29l-8.83-22H75.3l-.52,11.24a39.44,39.44,0,0,0,0,7c.17,1.89,1,2.28,3.87,2.54v1.51H68.28v-1.51c2.45-.22,3.23-.95,3.53-2.5a76.56,76.56,0,0,0,.91-8.14l.69-8.53c.34-4.87,0-5.47-3.66-5.81v-1.51h8.91L87,148.6l8.44-18.86h8.66v1.51c-3.44.34-3.62.69-3.53,4.26l.39,16.11c.09,4,.3,4.26,3.66,4.61v1.51Z" style="fill:#fff"/><path d="M120.77,158.25a3.85,3.85,0,0,1-2.63-.9,3.61,3.61,0,0,1-1.08-1.55c-1.64,1.08-3.66,2.45-4.52,2.45a5.64,5.64,0,0,1-5.81-5.51c0-2.24,1-3.27,3.27-4.13,2.54-.95,5.86-2,6.85-2.84v-1.29c0-2.71-1-4.22-2.58-4.22a1.75,1.75,0,0,0-1.46.77,8.6,8.6,0,0,0-1.21,3,1.66,1.66,0,0,1-1.81,1.46c-1.16,0-2.71-1-2.71-2.15,0-.77.56-1.34,1.51-2.07a21.18,21.18,0,0,1,7.15-3.06,6.65,6.65,0,0,1,4.22,1.25c1.85,1.38,2.24,3.27,2.24,5.68v7.11c0,2,.65,2.54,1.38,2.54a3.48,3.48,0,0,0,1.46-.34l.43,1.38Zm-3.92-10.81c-.77.43-1.46.86-2.37,1.34a3,3,0,0,0-2,3c0,2.37,1.59,3.27,2.58,3.27a2.74,2.74,0,0,0,1.81-.69Z" style="fill:#fff"/><path d="M134.85,142.74c1.59-2.71,3.23-4.56,4.87-4.56a2.77,2.77,0,0,1,2.88,2.71,3.4,3.4,0,0,1-2.11,3.14,1.18,1.18,0,0,1-1.33-.22,3.21,3.21,0,0,0-2-.86c-.82,0-1.68.56-2.41,2.28v8c0,2.63.22,2.84,3.53,3.1v1.38h-11.8v-1.38c2.37-.26,2.76-.47,2.76-3.1v-9.43c0-2.15-.3-2.37-2.33-2.84v-1.2a48,48,0,0,0,7.84-1.64v4.61Z" style="fill:#fff"/><path d="M158.23,157.82c-1.25-1.55-3.66-5.43-5.56-8.48-.39-.52-.65-.73-.86-.77a1.43,1.43,0,0,0-.43,0v4.61c0,2.8.34,2.88,2.84,3.23v1.38H143.16v-1.38c2.58-.34,2.84-.43,2.84-3.23V133.19c0-2.37-.3-2.67-2.58-2.93V129a53,53,0,0,0,8-1.55v19.76a4.8,4.8,0,0,0,2.5-1.68,23.77,23.77,0,0,0,2.54-3.7c.47-.95.3-1.46-1.34-1.72v-1.29l9.3-.39v1.29c-2.67.47-4.18,1-5.38,2.24a34.12,34.12,0,0,0-3.06,3.53c1.16,1.89,4.91,7,6.24,8.66a5.12,5.12,0,0,0,3.62,2.2v1.38Z" style="fill:#fff"/><path d="M182.73,153.47c-2.58,3.88-5.94,4.78-7.75,4.78-5.77,0-8.91-4.26-8.91-9.22a11,11,0,0,1,3.19-7.79,9.6,9.6,0,0,1,6.59-3.06h0a7.09,7.09,0,0,1,7,6.93c0,.86-.3,1.42-1.25,1.55-.77.13-6.07.52-10.29.69.17,4.61,2.71,6.93,5.81,6.93a7.24,7.24,0,0,0,4.82-1.85ZM175,139.9c-1.68,0-3.14,2-3.44,5.43l5.17-.13c.65,0,.9-.13.9-.86,0-2.19-.95-4.44-2.58-4.44Z" style="fill:#fff"/><path d="M194.36,157.77a5.77,5.77,0,0,1-1.72.47c-3.32,0-5.3-1.55-5.3-5.43V140.76h-2.71l-.22-.52,1.2-1.55h1.72v-3.14l4.91-3.36.6.3v6.2h4.22a1.45,1.45,0,0,1-.26,2.07h-4V151.4c0,3.36,1.55,3.75,2.41,3.75a5.26,5.26,0,0,0,2.19-.52l.43,1.51Z" style="fill:#fff"/><path d="M70,79.52a17.75,17.75,0,0,1,19.64-.93c6.71,3.71,9.92,11.2,9,18.74a27.26,27.26,0,0,1-13,20c-5.26,2.93-11.09,4.93-15.37,9.75-1.26-.6-2.1-2-3.29-2.67-6.19-4.41-14-5.8-18.94-12.16a25.3,25.3,0,0,1-6.71-17.83c.2-7.22,4.48-14.46,11.3-17.15a19.85,19.85,0,0,1,14.45.67Z" style="fill:#c50c46"/><path d="M70.15,82.88a26.85,26.85,0,0,1,5.63-3.19,15.51,15.51,0,0,1,15.6,3.77c5.83,5.18,5.26,14,2.75,20.48-2.45,4.75-6.54,9.58-11.48,12-4.34,2.18-8.63,3.84-12.33,7.35-5.2-4.85-12.12-5.79-17.37-10.51C46.17,107.45,42.71,98.4,45,90c1.44-5.46,6.35-10.31,12-10.94a18.6,18.6,0,0,1,9.7,1.64Z" style="fill:#c50c46"/><path d="M57,78.75c-5.59.62-10.77,5.32-12.31,11.18-2.28,8.24,1,17.54,8,23.12a34,34,0,0,0,8.62,5.18,32.66,32.66,0,0,1,8.73,5.31l.23.21.22-.21c3-2.81,6.26-4.4,9.77-6.09l2.48-1.21c4.49-2.2,8.84-6.74,11.62-12.14,2.55-6.63,3.14-15.57-2.83-20.87a15.83,15.83,0,0,0-15.91-3.84,22.24,22.24,0,0,0-4.87,2.67l-.67.44-3.2-2.05A19.07,19.07,0,0,0,57,78.75Zm4.61,38.88a33.54,33.54,0,0,1-8.48-5.08,22.21,22.21,0,0,1-8.52-17.24,19.53,19.53,0,0,1,.7-5.21C46.82,84.48,51.77,80,57.1,79.4A18.38,18.38,0,0,1,66.63,81l3.52,2.26,1-.68A21.68,21.68,0,0,1,75.88,80a15.19,15.19,0,0,1,15.26,3.69c3.25,2.89,4.47,6.91,4.47,11a25.94,25.94,0,0,1-1.78,9.12c-2.71,5.25-6.94,9.68-11.32,11.82L80,116.86c-3.47,1.67-6.74,3.28-9.71,6A34,34,0,0,0,61.64,117.63Z" style="fill:#fff"/><path d="M52.06,91.91c0-.66-.12-.94-.71-1l-.91,0c-.34,0-.48-.18-.47-.39,0-.37.3-.53,1.28-.74a26,26,0,0,1,5.69-.35c3,.09,5.2.95,6.7,2.53A9.18,9.18,0,0,1,66,98.82c-.15,5.19-2.63,9.12-8.16,9-1.34,0-3.05-.2-4.48-.24-1.14,0-2.26.05-3.17,0-.34,0-.57-.19-.56-.53s.27-.51.93-.57c.86-.09,1.13-.4,1.16-1.65Zm3.75,12.93c0,1.11.26,1.81,1.52,1.84s2.3-.62,3-2.4a13.7,13.7,0,0,0,1-5.4c.17-5.93-1.59-8.27-3.88-8.33-1,0-1.23.25-1.26,1.28Z" style="fill:#fff"/><path d="M67.37,99.76a2.09,2.09,0,0,1,2.34-1.93c1.12,0,2,.68,2,1.62s-.73,1.32-1.32,1.68c-.16.12-.27.18-.28.23s.06.14.12.23c.29.41.66,1,.95,1.46.08.11.15.22.21.22s.56-.85.57-1.06a.32.32,0,0,0-.27-.35c-.16,0-.29-.12-.29-.26s.14-.25.34-.25.57.07.86.08.72,0,.91,0,.31.08.3.26-.22.21-.47.26a1,1,0,0,0-.73.49c-.24.34-.45.69-.62,1a1.71,1.71,0,0,0-.26.45.74.74,0,0,0,.13.3c.2.36.44.76.68,1.15s.52.73.8.79.47.13.46.35-.13.23-.33.22c-.37,0-.82-.08-1.35-.09s-1,0-1.28,0-.25,0-.28-.2a.21.21,0,0,1,.11-.21.17.17,0,0,0,.12-.2c0-.14-.26-.52-.34-.52s-.18.16-.36.31a2.54,2.54,0,0,1-1.89.86,2.16,2.16,0,0,1-2.22-2.33,2.22,2.22,0,0,1,1.49-2c.38-.19.75-.3.75-.41s-.85-1-.82-2.1Zm.27,3.94c0,.78.47,1.85,1.38,1.87a1.06,1.06,0,0,0,1-.66c0-.14-1-1.62-1.32-2.16-.13-.21-.21-.3-.27-.3a1.37,1.37,0,0,0-.82,1.23Zm2.22-5.35a.82.82,0,0,0-.81.9,2.42,2.42,0,0,0,.72,1.6,1.52,1.52,0,0,0,.92-1.34c0-.66-.24-1.14-.82-1.16Z" style="fill:#fff"/><path d="M78,107.89c-.16.4-.25.62-.93.6s-.79-.28-.92-.68L71.08,92.39c-.23-.86-.68-1.22-1.16-1.32s-.77-.14-.76-.53.39-.5.7-.49c1,0,2,.17,3,.2s1.77-.06,2.63,0c.31,0,.65.13.64.5a.5.5,0,0,1-.44.5.55.55,0,0,0-.5.59,5.44,5.44,0,0,0,.38,1.58l2.58,7.81c.26.84.47,1.5.61,1.5s.29-.31.48-.73l.67-1.44a2.92,2.92,0,0,0,.25-.79,8.6,8.6,0,0,0-.39-1.41l-1.92-6a1.56,1.56,0,0,0-.74-1c-.23-.09-.39-.18-.39-.44,0-.43.36-.59.87-.58,1.2,0,2.31.18,3.53.21,1.43,0,2.91,0,4.17,0,.77,0,1,.17,1,.51s-.24.45-.55.5c-.6.1-.82.6-1.09,1.2l-1,2.25a6.14,6.14,0,0,0-.49,1.1,3.7,3.7,0,0,0,.21.77l1.48,4.24a4.48,4.48,0,0,0,.53,1.38c.17,0,.33-.5.58-1.3l2.46-7.33a6.3,6.3,0,0,0,.36-1.65.65.65,0,0,0-.61-.65c-.4-.1-.65-.25-.64-.5s.27-.51.62-.5,1,.14,1.51.16,1-.09,1.46-.07.62.19.61.47-.27.39-.64.5-.78.41-1,1.11l-5.4,15.38c-.13.37-.25.62-.93.6s-.74-.25-.87-.62l-2.07-6.68h-.06Zm4.13-14c.16.46.26.81.38.81s.27-.42.45-.84A11.06,11.06,0,0,0,83.54,92c0-.37-.22-.46-1-.48s-1,.09-1,.4A10.54,10.54,0,0,0,82.14,93.93Z" style="fill:#fff"/></svg>