<svg id="Layer_1" data-name="Layer 1" xmlns="http://www.w3.org/2000/svg" viewBox="0 0 250 250"><defs><style>.cls-1{fill:#e37527;}.cls-2{fill:#181377;}.cls-3{fill:#121212;}</style></defs><title>Coke_Dine</title><path class="cls-1" d="M171.68,146.68a4.56,4.56,0,0,1-3,1.38c-12.21,2.26-22.11,15.07-22.48,27.43-.06,2.18-.75,2.89-2.93,2.85-7.15-.11-14.3-.07-21.45,0-1.89,0-2.65-.78-2.58-2.59.4-10.67,4.57-19.2,14-24.77,2.16-1.28,4.25-2.65,6.83-3,.56-.07,1.37-.31,1.38-1s-.88-.65-1.41-.83c-12.69-4.33-20.24-14.53-20.48-28.4,0-1.66.63-2.35,2.28-2.34q11.29.09,22.58.09c1.52,0,1.7.9,1.78,2.06a31.35,31.35,0,0,0,2.46,11.08,30.23,30.23,0,0,0,15.58,15.53A30.73,30.73,0,0,0,171.68,146.68Z"/><path class="cls-2" d="M203.44,162.47l1.91-3.19a13.33,13.33,0,0,0,1.81-5l.38-1.83.15-.12-.1-.16.27-2.26a12.15,12.15,0,0,0,0-5.35l-.25-2.34c.15-.21.16-.4-.09-.55l-.35-1.69.06-.17-.14-.11-.9-2.64-.94-2.21c-3.69-6.9-9-12-16.44-14.69a35.28,35.28,0,0,0-11.23-1.75c-1.79,0-2.07,1.1-2.07,2.57,0,6.85,0,13.7,0,20.55,0,3,0,2.93-2.91,2.54a26.85,26.85,0,0,1-18.52-10.49c-3.53-4.61-4.94-10-5.16-15.78-.06-1.55.46-2.21,2.08-2.2,9.81.09,19.65-.23,29.44.25a30.93,30.93,0,0,1,29.11,37.87c-2.13,9.93-8.08,17.23-17.4,21.68-5.09,2.43-10.48,2.87-16,2.89-8.37,0-16.74,0-25.11,0-1.69,0-2.35-.52-2.23-2.23.93-13.58,9.63-24.65,24.5-26,1.67-.16,2.16.47,2.15,2,0,7.08,0,14.15-.06,21.23,0,2.8.29,3.15,3.11,3.13,7.74-.07,14.33-3,20.05-8.1a8.46,8.46,0,0,0,3.29-3.65l1-1.26A1.08,1.08,0,0,0,203.44,162.47Z"/><path class="cls-3" d="M114.07,88.54c0-5.48.06-11,0-16.43,0-1.74.59-2.29,2.24-2.25q4.79.1,9.58,0c1.51,0,2,.56,2,2-.1,2.58-.1,5.17-.13,7.76,0,.51-.19,1.12.37,1.45s.95-.2,1.39-.47c4.42-2.67,9.06-4.25,14.3-2.85a6.39,6.39,0,0,1,5,5.26c.61,3.16.33,6.37.37,9.56,0,4.18,0,8.37.08,12.55,0,1.59-.67,2-2.05,2-3.19,0-6.39-.06-9.58,0-1.42,0-1.82-.54-1.81-1.9.07-7,.06-14,.09-21,0-3.75-1-4.37-4.34-2.85-2.67,1.21-4.06,2.83-3.88,6.09.33,5.84.08,11.71.19,17.56,0,1.65-.56,2.13-2.11,2.1-3.19-.07-6.39-.07-9.58,0-1.53,0-2.14-.44-2.11-2.1.1-5.47,0-11,0-16.43Z"/><path class="cls-3" d="M35.81,88.76c0-5.48,0-11,0-16.44,0-1.15.4-1.76,1.55-1.75,6.62,0,13.27-.27,19.85.22,10.91.81,17.28,13,14.36,22.69-2.62,8.73-9.34,14.1-18.86,13.68-4.86-.21-9.74-.11-14.62,0-1.82,0-2.29-.54-2.23-2.39.16-5.32.06-10.66.06-16ZM52,88.62h0c0,4.86.05,9.72,0,14.59,0,1.74.68,2.39,2.31,2.16a21.33,21.33,0,0,0,7.63-2.1c6.51-3.6,9.73-11.67,7.7-19.5A15.6,15.6,0,0,0,54.09,72.15c-1.53,0-2.13.46-2.1,2.11C52.09,79,52,83.83,52,88.62Z"/><path class="cls-3" d="M75,95.55c1.09-5.64,7.18-8.27,13.26-7.89,1.93.12,3.95.16,5.72,1.26.94.58,1.43,0,1.43-.95,0-1.9.09-3.81-.08-5.7-.2-2.19-2-2.78-3.78-3-3.71-.39-7.11.34-9.7,3.35A3.76,3.76,0,0,1,80.07,84c-.1-.21-.22-.25-.37,0l-1-.5c0-.53,0-1.07.07-1.6l1.45-1.58c2.14-.46,3.9-2.22,6.12-2.17,5.45.12,11-.78,16.31,1.29,4.05,1.56,5.55,3.25,5.6,7.74s0,9.28,0,13.92a11.67,11.67,0,0,0,.38,3.15c.69,2.52.63,2.54-1.9,2.62-3.56.11-7.13-.31-10.68.22l-.63-.63c.88-1.47-1.26-1.67-1.19-2.8a2.58,2.58,0,0,0,1.16-2.54c0-2.28,0-4.56,0-6.83,0-3.16-.63-3.92-3.83-4.44-2.36-.39-3.49.47-3.52,2.87,0,3.79,0,7.59,0,11.38.49,1.59.49,1.6,2.84,1.53.45,0,1-.16,1.07.45.07.44-.36.6-.72.73-4,1.42-7.83,1.47-11.53-.87S75,99.74,75,95.55Z"/><path class="cls-3" d="M154.76,88.6c0-5.55,0-11.1,0-16.64,0-1.45.44-2.1,1.94-2.08q5,.06,10,0c1.28,0,1.77.5,1.77,1.75q0,16.87,0,33.75c0,1.11-.34,1.73-1.54,1.72q-5.24,0-10.49,0c-1.44,0-1.74-.76-1.73-2,.05-5.47,0-10.94,0-16.42Z"/><path class="cls-3" d="M210.37,81.4a12.12,12.12,0,0,0-5.79-2.5c-1.07-.09-2.2-.18-2.79,1a2.42,2.42,0,0,0,.7,2.9c2.53,2.63,5.15,5.19,7.68,7.81,2.19,2.27,4,4.63,4,8.12.07,4-2,6.33-5.27,7.75A16.69,16.69,0,0,1,192.21,105c-.79-.52-2-1.17-1.25-2.29s1.7-.17,2.46.41a13.14,13.14,0,0,0,6.87,2.83c1,.1,2.31.26,2.89-.84s-.29-2-1-2.79l-8-8.76c.18-.32.06-.45-.28-.41l-.55-.64c-.47-.84-.93-1.69-1.41-2.53a7,7,0,0,1,.74-8.62,12.13,12.13,0,0,1,5.3-3.33c4.73-1.51,9.22-.7,13.61,1.25l1,1.12C212.3,81.77,211.3,81.5,210.37,81.4Z"/><path class="cls-3" d="M178.77,85.7l1.39-.37c.28.36.27,0,.51-.12A8.74,8.74,0,0,0,186.84,81c.25-.44.68-.92.21-1.43s-1-.12-1.43.09a13.22,13.22,0,0,1-9.35.44c-2.34-.68-4.56-1.91-4.76-4.61s1.82-4,4.06-4.85a13.94,13.94,0,0,1,9.54-.06c5,1.68,5.49,6.69,3.2,10.95a8.9,8.9,0,0,1-6.36,4.9,17.9,17.9,0,0,1-1.82.59c-1.69.19-3.4.93-5-.22.06,0,.18-.11.17-.13a2.61,2.61,0,0,0-.18-.35c1-.84,2.17-.4,3.27-.55C178.51,86,178.64,86,178.77,85.7Z"/><path class="cls-3" d="M96.06,107.06c3.55-.53,7.12-.11,10.68-.22,2.54-.08,2.6-.1,1.9-2.62a11.67,11.67,0,0,1-.38-3.15c0-4.64,0-9.28,0-13.92s-1.54-6.18-5.6-7.74c-5.36-2.07-10.86-1.17-16.31-1.29-2.22,0-4,1.71-6.12,2.17,4.12-3.17,9-3.34,13.78-3.08,3.76.2,7.53.56,11,2.54A7.57,7.57,0,0,1,109,86.6c.1,4.86,0,9.72.07,14.58,0,1.58-.08,3.19.76,4.66.57,1,0,1.48-.92,1.46C104.64,107.17,100.34,107.62,96.06,107.06Z"/><path class="cls-3" d="M104.57,121.87l1.09,1.16a1.75,1.75,0,0,0,1.21,1.21l1.46,1.56c1.94,3.41,1.63,5.4-1,6.62-1.06.49-2,.86-2.29-.89a1.87,1.87,0,0,0-1.48-1.77L101,126.89c-.37-1.24-1.51-2.17-1.37-3.64a4.53,4.53,0,0,1,3.59-3.49C105.14,119.57,103.76,121.41,104.57,121.87Z"/><path class="cls-3" d="M94.24,103.63c-.06,1.13,2.07,1.33,1.19,2.8-.8-1.19-1.59-.53-2.43,0a12.62,12.62,0,0,1-15-1.1c-3-2.66-4.21-6.63-3-9.75-.06,4.2.86,7.93,4.71,10.37s7.56,2.3,11.53.87c.36-.13.79-.29.72-.73-.1-.61-.61-.47-1.07-.45-2.35.07-2.35.06-2.84-1.53a2.32,2.32,0,0,0,3.31.8C92.31,104.4,93.28,104,94.24,103.63Z"/><path class="cls-3" d="M211.6,79.32c-4.4-1.95-8.89-2.76-13.61-1.25a12.13,12.13,0,0,0-5.3,3.33,7,7,0,0,0-.74,8.62c.48.84.94,1.69,1.41,2.53-4.63-4.78-4.15-9.79,1.22-13.41C198.91,76.22,206.65,75.54,211.6,79.32Z"/><path class="cls-3" d="M103.53,129.77a1.87,1.87,0,0,1,1.48,1.77c.28,1.75,1.23,1.38,2.29.89,2.67-1.22,3-3.22,1-6.62,2.81,2.47,2.58,5.18-.58,6.94s-6.17,1.29-8.37-1.57a16.69,16.69,0,0,1,2.57.4c.75.24,1.51,1.18,2.23.36S103.61,130.55,103.53,129.77Z"/><path class="cls-3" d="M104.57,121.87c-.82-.46.57-2.3-1.37-2.12a4.53,4.53,0,0,0-3.59,3.49c-.14,1.47,1,2.4,1.37,3.64-1.69-1.34-2.52-3-1.49-5.07.87-1.78,4.28-3.31,6.24-2.82a16.72,16.72,0,0,1,3,1,1,1,0,0,1,.44,1.38c-.37.74-.87.28-1.33.07C106.66,121,105.47,120.12,104.57,121.87Z"/><path class="cls-2" d="M201.94,164.7a8.46,8.46,0,0,1-3.29,3.65A14.86,14.86,0,0,1,201.94,164.7Z"/><path class="cls-2" d="M207.86,144.6a12.15,12.15,0,0,1,0,5.35A13.17,13.17,0,0,1,207.86,144.6Z"/><path class="cls-2" d="M207.17,154.31a13.33,13.33,0,0,1-1.81,5c-.06-1.85,1.45-3.22,1.55-5,0,0,.1-.09.15-.13Z"/><path class="cls-3" d="M210.37,81.4c.93.1,1.92.37,2.23-1,.18.94.15,1.21-.21,1.43A1.36,1.36,0,0,1,210.37,81.4Z"/><path class="cls-2" d="M205.24,134.88l.94,2.21A1.91,1.91,0,0,1,205.24,134.88Z"/><path class="cls-3" d="M78.75,81.87c0,.54,0,1.07-.07,1.6C77.73,82.89,77.86,82.36,78.75,81.87Z"/><path class="cls-2" d="M203.44,162.47a1.08,1.08,0,0,1-.54,1c-.41-.47.2-.68.27-1,0,0,.11-.1.17-.1S203.41,162.41,203.44,162.47Z"/><path class="cls-2" d="M207.52,141.71c.25.15.24.34.09.55C207.09,142.15,207.13,142,207.52,141.71Z"/><path class="cls-2" d="M207.08,139.74l.14.11-.06.17-.26-.05Z"/><path class="cls-2" d="M207.6,152.2l.1.16-.15.12-.23-.19Z"/><path class="cls-3" d="M181.65,85a34.46,34.46,0,0,1-3.66.78l-2.84.47a.32.32,0,0,0,0,.53l5,.22s1.83-.58,2.27-.75Z"/><path class="cls-3" d="M193.24,92.44A19.67,19.67,0,0,0,194.54,94s.63-1.14.61-1.14-.9-.63-.91-.63l-1,.17Z"/><rect class="cls-3" x="36.17" y="117.03" width="6.85" height="16.14"/><rect class="cls-3" x="90.76" y="116.48" width="6.85" height="17.3"/><rect class="cls-3" x="37.08" y="117.03" width="13.55" height="1.29"/><rect class="cls-3" x="37.08" y="121.4" width="13.55" height="1.29"/><path d="M58.25,134.27a7,7,0,1,1,7-7A7,7,0,0,1,58.25,134.27Zm0-12.67a5.65,5.65,0,1,0,5.65,5.65A5.65,5.65,0,0,0,58.25,121.61Z"/><path d="M58.25,120.92v12.67s-6.88-.22-6.33-6.33c0,0-.91-3.77,3.93-5.86C55.84,121.4,57,119.95,58.25,120.92Z"/><path d="M72.62,134.27a7,7,0,1,1,7-7A7,7,0,0,1,72.62,134.27Zm0-12.67a5.65,5.65,0,1,0,5.65,5.65A5.65,5.65,0,0,0,72.62,121.61Z"/><path d="M72.62,120.92v12.67s-6.88-.22-6.33-6.33c0,0-.91-3.77,3.93-5.86C70.22,121.4,71.4,119.95,72.62,120.92Z"/><path d="M87.78,134.44a7,7,0,1,1,7-7A7,7,0,0,1,87.78,134.44Zm0-12.67a5.65,5.65,0,1,0,5.65,5.65A5.65,5.65,0,0,0,87.78,121.78Z"/><path d="M87.78,121.09v12.67s-6.88-.22-6.33-6.33c0,0-.91-3.77,3.93-5.86C85.37,121.57,86.56,120.12,87.78,121.09Z"/><path d="M70.56,157.68c.62,8.53,5.16,11.68,5.16,11.68,6.94,6.81,14.72,6,14.72,6a21.21,21.21,0,0,0,16.07-7.13C110.75,163.45,111,156,111,156c0-1-1.59-1.93-1.59-1.93-1.14-.84-7-1.29-7-1.29l3.92-6.49c2.38-.32,2.83-1.61,2.83-1.61,1-2.7-.9-3.66-.9-3.66,1.35,2.75-1,3.47-1,3.47-2.43.14-2.51-1.61-2.51-1.61-.19-3.08,3-2.25,3-2.25-.51-1.16-2.7-.64-2.7-.64a3,3,0,0,0-1.67,4l-9.19,8.29c-20.56.51-22.24,3.08-22.24,3.08a89.49,89.49,0,0,1,20.24-1.09l-3.66,3.6c-11,.32-16-.64-16-.64,3.86,1.41,15.1,2.38,15.1,2.38a86.91,86.91,0,0,0,20.63-1.16c-2,12.27-14.4,14.85-14.4,14.85-9.9,1.35-15.1-2.83-15.1-2.83A17.12,17.12,0,0,1,70.56,157.68Zm25.53.31h-4l11.57-11.82s.31-.42.59,0Z"/><path d="M70.52,156.89c0,.27,0,.53,0,.78C70.52,157.18,70.52,156.89,70.52,156.89Z"/></svg>