<svg xmlns="http://www.w3.org/2000/svg" viewBox="0 0 250 250"><defs><style>.a{fill:#ee3e42;}.b{fill:#fff;}.c{fill:#f9aa53;}.d{fill:#007ac1;}</style></defs><title>Fast Food</title><path class="a" d="M218.32,116.15c-10.78-10.85-26.83-31.21-50.11-46.22q-3.3-2.12-6.79-4c-11-6.26-25.8-8.83-36.42-8.7-10.62-.13-25.42,2.44-36.42,8.7-2.32,1.23-4.59,2.55-6.78,4-23.27,15-39.34,35.37-50.11,46.22A129.87,129.87,0,0,1,21.58,125a128.88,128.88,0,0,1,10.1,8.86c10.77,10.84,26.83,31.21,50.11,46.21,2.19,1.42,4.47,2.74,6.78,4,11,6.26,25.79,8.83,36.42,8.7,10.62.13,25.42-2.44,36.42-8.7q3.49-1.84,6.78-4c23.28-15,39.34-35.37,50.12-46.21a129.93,129.93,0,0,1,10.1-8.86,131.3,131.3,0,0,1-10.1-8.85"/><path class="b" d="M66.61,90.83H97c19.71,0,33.3,5.46,31.19,24.49s-11.1,38.19-36.39,38.19H56.28l1.23-5.64,3.06-.54L72.54,97l-7.18-.63Zm15.95,55.88a33.4,33.4,0,0,0,6.22.45c15.24,0,19.15-35.55,18.65-41.1-.7-7.61-4.32-8.87-8.13-8.87h-5Z"/><path class="b" d="M187.85,153.41a14,14,0,0,1-5.43,1.52c-5,0-5-1.82-7.39-5.14,12.57-7,20.34-21.2,20.34-37.56,0-14.83-11.55-23-30.79-23-21.44,0-39.21,19.75-39.76,39.33-.47,16.61,7.7,26.3,31.07,26a37.29,37.29,0,0,0,5.32-.36c2.88,7,5.14,10,14.61,10a21.81,21.81,0,0,0,10.46-2.63l1.67-7.22Zm-23.38-13.74A20.7,20.7,0,0,0,154,136.42l-1.45,6.26c3.18.43,4.53,2.09,5.74,4.51a5.94,5.94,0,0,1-3.4,1.07c-5.87,0-8.32-3.23-8.69-7.43-.59-6.8,5.75-45.22,18.21-45.22,5.87,0,8.31,3.22,8.68,7.44.41,4.74-2.57,24.89-8.65,36.62"/><path class="c" d="M215.54,98.45c-23.2-16-59.78-27.76-89.49-27.1A125.77,125.77,0,0,0,91.21,77c14.91-9.43,35.19-15.45,57.58-15.95,23-.51,49.87,6.25,71.62,16.71Z"/><path class="d" d="M34.46,151.55c23.2,16,59.77,27.76,89.49,27.1A125.91,125.91,0,0,0,158.8,173c-14.91,9.43-35.18,15.44-57.58,15.95-23,.51-49.87-6.25-71.62-16.71Z"/><path class="b" d="M188.82,146.46a4.36,4.36,0,1,1,4.36,4.48,4.37,4.37,0,0,1-4.36-4.48m4.36,3.74a3.74,3.74,0,1,0-3.5-3.74,3.55,3.55,0,0,0,3.5,3.74m-.91-1.14h-.74v-5.16h1.88c1.17,0,1.75.46,1.75,1.46a1.32,1.32,0,0,1-1.28,1.42l1.4,2.28h-.83l-1.31-2.25h-.86Zm.88-2.93c.63,0,1.21,0,1.21-.84s-.55-.76-1.09-.76h-1v1.6Z"/></svg>