<svg xmlns="http://www.w3.org/2000/svg" xmlns:xlink="http://www.w3.org/1999/xlink" viewBox="0 0 250 250"><defs><linearGradient id="a" x1="81.48" y1="125.72" x2="170.92" y2="125.72" gradientUnits="userSpaceOnUse"><stop offset="0" stop-color="#fff"/><stop offset="1" stop-color="#ffe0aa" stop-opacity="0"/></linearGradient><clipPath id="c"><circle cx="126.2" cy="125.72" r="44.72" style="fill:url(#a)"/></clipPath><linearGradient id="d" x1="81.48" y1="158.08" x2="170.92" y2="158.08" xlink:href="#a"/><linearGradient id="e" x1="81.48" y1="145.27" x2="170.92" y2="145.27" xlink:href="#a"/><linearGradient id="f" x1="81.48" y1="144.36" x2="170.92" y2="144.36" xlink:href="#a"/><linearGradient id="g" x1="81.48" y1="143.45" x2="170.92" y2="143.45" xlink:href="#a"/><linearGradient id="h" x1="81.48" y1="142.54" x2="170.92" y2="142.54" xlink:href="#a"/><linearGradient id="i" x1="81.48" y1="141.63" x2="170.92" y2="141.63" xlink:href="#a"/><linearGradient id="j" x1="81.48" y1="140.72" x2="170.92" y2="140.72" xlink:href="#a"/><linearGradient id="k" x1="81.48" y1="139.81" x2="170.92" y2="139.81" xlink:href="#a"/><linearGradient id="l" x1="81.48" y1="138.91" x2="170.92" y2="138.91" xlink:href="#a"/><linearGradient id="m" x1="81.48" y1="138" x2="170.92" y2="138" xlink:href="#a"/><linearGradient id="n" x1="81.48" y1="137.09" x2="170.92" y2="137.09" xlink:href="#a"/><linearGradient id="o" x1="81.48" y1="136.18" x2="170.92" y2="136.18" xlink:href="#a"/><linearGradient id="p" x1="81.48" y1="135.27" x2="170.92" y2="135.27" xlink:href="#a"/><linearGradient id="q" x1="81.48" y1="134.36" x2="170.92" y2="134.36" xlink:href="#a"/><linearGradient id="r" x1="81.48" y1="133.45" x2="170.92" y2="133.45" xlink:href="#a"/><linearGradient id="s" x1="81.48" y1="132.54" x2="170.92" y2="132.54" xlink:href="#a"/><linearGradient id="t" x1="81.48" y1="131.63" x2="170.92" y2="131.63" xlink:href="#a"/><linearGradient id="u" x1="81.48" y1="130.72" x2="170.92" y2="130.72" xlink:href="#a"/><linearGradient id="v" x1="81.48" y1="129.81" x2="170.92" y2="129.81" xlink:href="#a"/><linearGradient id="w" x1="81.48" y1="128.9" x2="170.92" y2="128.9" xlink:href="#a"/><linearGradient id="x" x1="81.48" y1="127.99" x2="170.92" y2="127.99" xlink:href="#a"/><linearGradient id="y" x1="81.48" y1="127.08" x2="170.92" y2="127.08" xlink:href="#a"/><linearGradient id="z" x1="81.48" y1="126.17" x2="170.92" y2="126.17" xlink:href="#a"/><linearGradient id="aa" x1="81.48" y1="125.26" x2="170.92" y2="125.26" xlink:href="#a"/><linearGradient id="ab" x1="81.48" y1="124.35" x2="170.92" y2="124.35" xlink:href="#a"/><linearGradient id="ac" x1="81.48" y1="123.44" x2="170.92" y2="123.44" xlink:href="#a"/><linearGradient id="ad" x1="81.48" y1="122.53" x2="170.92" y2="122.53" xlink:href="#a"/><linearGradient id="ae" x1="81.48" y1="121.62" x2="170.92" y2="121.62" xlink:href="#a"/><linearGradient id="af" x1="81.48" y1="120.71" x2="170.92" y2="120.71" xlink:href="#a"/><linearGradient id="ag" x1="81.48" y1="119.8" x2="170.92" y2="119.8" xlink:href="#a"/><linearGradient id="ah" x1="81.48" y1="118.89" x2="170.92" y2="118.89" xlink:href="#a"/><linearGradient id="ai" x1="81.48" y1="117.98" x2="170.92" y2="117.98" xlink:href="#a"/><linearGradient id="aj" x1="81.48" y1="117.07" x2="170.92" y2="117.07" xlink:href="#a"/><linearGradient id="ak" x1="81.48" y1="116.16" x2="170.92" y2="116.16" xlink:href="#a"/><linearGradient id="al" x1="81.48" y1="115.25" x2="170.92" y2="115.25" xlink:href="#a"/><linearGradient id="am" x1="81.48" y1="114.34" x2="170.92" y2="114.34" xlink:href="#a"/><linearGradient id="an" x1="81.48" y1="113.43" x2="170.92" y2="113.43" xlink:href="#a"/><linearGradient id="ao" x1="81.48" y1="112.52" x2="170.92" y2="112.52" xlink:href="#a"/><linearGradient id="ap" x1="81.48" y1="111.61" x2="170.92" y2="111.61" xlink:href="#a"/><linearGradient id="aq" x1="81.48" y1="110.7" x2="170.92" y2="110.7" xlink:href="#a"/><linearGradient id="ar" x1="81.48" y1="109.79" x2="170.92" y2="109.79" xlink:href="#a"/><linearGradient id="as" x1="81.48" y1="108.88" x2="170.92" y2="108.88" xlink:href="#a"/><linearGradient id="at" x1="81.48" y1="107.97" x2="170.92" y2="107.97" xlink:href="#a"/><linearGradient id="au" x1="81.48" y1="107.06" x2="170.92" y2="107.06" xlink:href="#a"/><linearGradient id="av" x1="81.48" y1="106.15" x2="170.92" y2="106.15" xlink:href="#a"/><linearGradient id="aw" x1="81.48" y1="105.24" x2="170.92" y2="105.24" xlink:href="#a"/><linearGradient id="ax" x1="81.48" y1="104.33" x2="170.92" y2="104.33" xlink:href="#a"/><linearGradient id="ay" x1="81.48" y1="103.42" x2="170.92" y2="103.42" xlink:href="#a"/><linearGradient id="az" x1="81.48" y1="102.51" x2="170.92" y2="102.51" xlink:href="#a"/><linearGradient id="ba" x1="81.48" y1="101.6" x2="170.92" y2="101.6" xlink:href="#a"/><linearGradient id="bb" x1="81.48" y1="100.69" x2="170.92" y2="100.69" xlink:href="#a"/><linearGradient id="bc" x1="81.48" y1="99.78" x2="170.92" y2="99.78" xlink:href="#a"/><linearGradient id="bd" x1="81.48" y1="98.87" x2="170.92" y2="98.87" xlink:href="#a"/><linearGradient id="be" x1="81.48" y1="97.96" x2="170.92" y2="97.96" xlink:href="#a"/><linearGradient id="bf" x1="81.48" y1="97.05" x2="170.92" y2="97.05" xlink:href="#a"/><linearGradient id="bg" x1="81.48" y1="96.14" x2="170.92" y2="96.14" xlink:href="#a"/><linearGradient id="bh" x1="81.48" y1="95.23" x2="170.92" y2="95.23" xlink:href="#a"/><linearGradient id="bi" x1="81.48" y1="94.32" x2="170.92" y2="94.32" xlink:href="#a"/><linearGradient id="bj" x1="81.48" y1="93.41" x2="170.92" y2="93.41" xlink:href="#a"/><linearGradient id="bk" x1="81.48" y1="92.5" x2="170.92" y2="92.5" xlink:href="#a"/><linearGradient id="bl" x1="81.48" y1="91.59" x2="170.92" y2="91.59" xlink:href="#a"/><linearGradient id="bm" x1="81.48" y1="90.68" x2="170.92" y2="90.68" xlink:href="#a"/><linearGradient id="bn" x1="81.48" y1="89.77" x2="170.92" y2="89.77" xlink:href="#a"/><linearGradient id="bo" x1="81.48" y1="88.86" x2="170.92" y2="88.86" xlink:href="#a"/><linearGradient id="bp" x1="81.48" y1="87.96" x2="170.92" y2="87.96" xlink:href="#a"/><linearGradient id="bq" x1="81.48" y1="87.05" x2="170.92" y2="87.05" xlink:href="#a"/><linearGradient id="br" x1="81.48" y1="86.14" x2="170.92" y2="86.14" xlink:href="#a"/><linearGradient id="bs" x1="81.48" y1="85.23" x2="170.92" y2="85.23" xlink:href="#a"/><linearGradient id="bt" x1="81.48" y1="84.32" x2="170.92" y2="84.32" xlink:href="#a"/><linearGradient id="bu" x1="81.48" y1="83.41" x2="170.92" y2="83.41" xlink:href="#a"/><linearGradient id="bv" x1="81.48" y1="82.5" x2="170.92" y2="82.5" xlink:href="#a"/><linearGradient id="bw" x1="81.48" y1="81.59" x2="170.92" y2="81.59" xlink:href="#a"/><linearGradient id="bx" x1="81.48" y1="81.06" x2="170.92" y2="81.06" xlink:href="#a"/><clipPath id="by"><circle cx="126.15" cy="125.96" r="37.93" style="fill:none"/></clipPath><linearGradient id="bz" x1="135.97" y1="89.3" x2="116.33" y2="162.6" gradientUnits="userSpaceOnUse"><stop offset="0" stop-color="#fff"/><stop offset="0.54" stop-color="#bebdbd" stop-opacity="0"/><stop offset="1" stop-opacity="0"/></linearGradient><clipPath id="ca"><path d="M61.54,155.08a20.56,20.56,0,0,0-1.5-6.44c-1.9-4.65-6.52-11.08-17.74-15.28h0l-4.8-1.52a3.37,3.37,0,0,1,.34-.46c1-.68,9.44-6.45,24.35-11.16H183l9,.9c1.37.42,16.07,5,22.83,10.52a46.2,46.2,0,0,0-9.6,4c-6.93,3.82-11.63,8.91-13.6,14.71v.06a23.43,23.43,0,0,0-.67,4.55A53,53,0,0,0,183.8,149a57.71,57.71,0,0,0-25.28-9.85l.61-1.75L157,136.25l-78.1-1.83-2.63,9.68A71.68,71.68,0,0,0,61.54,155.08Z" style="fill:none"/></clipPath><clipPath id="cb"><path d="M193.47,109.38H57.79L65.31,143s54.25-15.89,103.26-4.94c0,0,12,2.79,15.46,4.94Z" style="fill:none"/></clipPath><clipPath id="cc"><circle cx="74.13" cy="124.18" r="5.15" style="fill:none"/></clipPath><clipPath id="cd"><circle cx="180.46" cy="124.18" r="5.15" style="fill:none"/></clipPath></defs><title>Grocery</title><circle cx="126.2" cy="125.72" r="44.72" style="fill:url(#a)"/><g style="clip-path:url(#c)"><rect x="81.48" y="145.73" width="89.44" height="24.71" style="fill:url(#d)"/><rect x="81.48" y="144.82" width="89.44" height="0.91" style="fill:url(#e)"/><rect x="81.48" y="143.91" width="89.44" height="0.91" style="fill:url(#f)"/><rect x="81.48" y="143" width="89.44" height="0.91" style="fill:url(#g)"/><rect x="81.48" y="142.09" width="89.44" height="0.91" style="fill:url(#h)"/><rect x="81.48" y="141.18" width="89.44" height="0.91" style="fill:url(#i)"/><rect x="81.48" y="140.27" width="89.44" height="0.91" style="fill:url(#j)"/><rect x="81.48" y="139.36" width="89.44" height="0.91" style="fill:url(#k)"/><rect x="81.48" y="138.45" width="89.44" height="0.91" style="fill:url(#l)"/><rect x="81.48" y="137.54" width="89.44" height="0.91" style="fill:url(#m)"/><rect x="81.48" y="136.63" width="89.44" height="0.91" style="fill:url(#n)"/><rect x="81.48" y="135.72" width="89.44" height="0.91" style="fill:url(#o)"/><rect x="81.48" y="134.81" width="89.44" height="0.91" style="fill:url(#p)"/><rect x="81.48" y="133.9" width="89.44" height="0.91" style="fill:url(#q)"/><rect x="81.48" y="132.99" width="89.44" height="0.91" style="fill:url(#r)"/><rect x="81.48" y="132.08" width="89.44" height="0.91" style="fill:url(#s)"/><rect x="81.48" y="131.17" width="89.44" height="0.91" style="fill:url(#t)"/><rect x="81.48" y="130.26" width="89.44" height="0.91" style="fill:url(#u)"/><rect x="81.48" y="129.35" width="89.44" height="0.91" style="fill:url(#v)"/><rect x="81.48" y="128.44" width="89.44" height="0.91" style="fill:url(#w)"/><rect x="81.48" y="127.53" width="89.44" height="0.91" style="fill:url(#x)"/><rect x="81.48" y="126.62" width="89.44" height="0.91" style="fill:url(#y)"/><rect x="81.48" y="125.71" width="89.44" height="0.91" style="fill:url(#z)"/><rect x="81.48" y="124.8" width="89.44" height="0.91" style="fill:url(#aa)"/><rect x="81.48" y="123.89" width="89.44" height="0.91" style="fill:url(#ab)"/><rect x="81.48" y="122.98" width="89.44" height="0.91" style="fill:url(#ac)"/><rect x="81.48" y="122.07" width="89.44" height="0.91" style="fill:url(#ad)"/><rect x="81.48" y="121.16" width="89.44" height="0.91" style="fill:url(#ae)"/><rect x="81.48" y="120.25" width="89.44" height="0.91" style="fill:url(#af)"/><rect x="81.48" y="119.34" width="89.44" height="0.91" style="fill:url(#ag)"/><rect x="81.48" y="118.43" width="89.44" height="0.91" style="fill:url(#ah)"/><rect x="81.48" y="117.52" width="89.44" height="0.91" style="fill:url(#ai)"/><rect x="81.48" y="116.61" width="89.44" height="0.91" style="fill:url(#aj)"/><rect x="81.48" y="115.7" width="89.44" height="0.91" style="fill:url(#ak)"/><rect x="81.48" y="114.79" width="89.44" height="0.91" style="fill:url(#al)"/><rect x="81.48" y="113.89" width="89.44" height="0.91" style="fill:url(#am)"/><rect x="81.48" y="112.98" width="89.44" height="0.91" style="fill:url(#an)"/><rect x="81.48" y="112.07" width="89.44" height="0.91" style="fill:url(#ao)"/><rect x="81.48" y="111.16" width="89.44" height="0.91" style="fill:url(#ap)"/><rect x="81.48" y="110.25" width="89.44" height="0.91" style="fill:url(#aq)"/><rect x="81.48" y="109.34" width="89.44" height="0.91" style="fill:url(#ar)"/><rect x="81.48" y="108.43" width="89.44" height="0.91" style="fill:url(#as)"/><rect x="81.48" y="107.52" width="89.44" height="0.91" style="fill:url(#at)"/><rect x="81.48" y="106.61" width="89.44" height="0.91" style="fill:url(#au)"/><rect x="81.48" y="105.7" width="89.44" height="0.91" style="fill:url(#av)"/><rect x="81.48" y="104.79" width="89.44" height="0.91" style="fill:url(#aw)"/><rect x="81.48" y="103.88" width="89.44" height="0.91" style="fill:url(#ax)"/><rect x="81.48" y="102.97" width="89.44" height="0.91" style="fill:url(#ay)"/><rect x="81.48" y="102.06" width="89.44" height="0.91" style="fill:url(#az)"/><rect x="81.48" y="101.15" width="89.44" height="0.91" style="fill:url(#ba)"/><rect x="81.48" y="100.24" width="89.44" height="0.91" style="fill:url(#bb)"/><rect x="81.48" y="99.33" width="89.44" height="0.91" style="fill:url(#bc)"/><rect x="81.48" y="98.42" width="89.44" height="0.91" style="fill:url(#bd)"/><rect x="81.48" y="97.51" width="89.44" height="0.91" style="fill:url(#be)"/><rect x="81.48" y="96.6" width="89.44" height="0.91" style="fill:url(#bf)"/><rect x="81.48" y="95.69" width="89.44" height="0.91" style="fill:url(#bg)"/><rect x="81.48" y="94.78" width="89.44" height="0.91" style="fill:url(#bh)"/><rect x="81.48" y="93.87" width="89.44" height="0.91" style="fill:url(#bi)"/><rect x="81.48" y="92.96" width="89.44" height="0.91" style="fill:url(#bj)"/><rect x="81.48" y="92.05" width="89.44" height="0.91" style="fill:url(#bk)"/><rect x="81.48" y="91.14" width="89.44" height="0.91" style="fill:url(#bl)"/><rect x="81.48" y="90.23" width="89.44" height="0.91" style="fill:url(#bm)"/><rect x="81.48" y="89.32" width="89.44" height="0.91" style="fill:url(#bn)"/><rect x="81.48" y="88.41" width="89.44" height="0.91" style="fill:url(#bo)"/><rect x="81.48" y="87.5" width="89.44" height="0.91" style="fill:url(#bp)"/><rect x="81.48" y="86.59" width="89.44" height="0.91" style="fill:url(#bq)"/><rect x="81.48" y="85.68" width="89.44" height="0.91" style="fill:url(#br)"/><rect x="81.48" y="84.77" width="89.44" height="0.91" style="fill:url(#bs)"/><rect x="81.48" y="83.86" width="89.44" height="0.91" style="fill:url(#bt)"/><rect x="81.48" y="82.95" width="89.44" height="0.91" style="fill:url(#bu)"/><rect x="81.48" y="82.04" width="89.44" height="0.91" style="fill:url(#bv)"/><rect x="81.48" y="81.13" width="89.44" height="0.91" style="fill:url(#bw)"/><rect x="81.48" y="81" width="89.44" height="0.13" style="fill:url(#bx)"/></g><path d="M126.2,171.35A45.63,45.63,0,1,1,158.46,158,45.34,45.34,0,0,1,126.2,171.35Zm0-89.44A43.81,43.81,0,1,0,170,125.72,43.86,43.86,0,0,0,126.2,81.91Z"/><circle cx="126.2" cy="125.72" r="37.93" style="fill:#edf2d6"/><g style="clip-path:url(#by)"><rect x="96.66" y="155.46" width="9.83" height="9.83" style="fill:#b9bda3"/><rect x="86.82" y="155.46" width="9.83" height="9.83" style="fill:#838570"/><rect x="116.32" y="155.46" width="9.83" height="9.83" style="fill:#b9bda3"/><rect x="106.49" y="155.46" width="9.83" height="9.83" style="fill:#838570"/><rect x="135.99" y="155.46" width="9.83" height="9.83" style="fill:#b9bda3"/><rect x="126.15" y="155.46" width="9.83" height="9.83" style="fill:#838570"/><rect x="155.65" y="155.46" width="9.83" height="9.83" style="fill:#b9bda3"/><rect x="145.82" y="155.46" width="9.83" height="9.83" style="fill:#838570"/><rect x="96.66" y="145.63" width="9.83" height="9.83" style="fill:#838570"/><rect x="86.82" y="145.63" width="9.83" height="9.83" style="fill:#b9bda3"/><rect x="116.32" y="145.63" width="9.83" height="9.83" style="fill:#838570"/><rect x="106.49" y="145.63" width="9.83" height="9.83" style="fill:#b9bda3"/><rect x="135.99" y="145.63" width="9.83" height="9.83" style="fill:#838570"/><rect x="126.15" y="145.63" width="9.83" height="9.83" style="fill:#b9bda3"/><rect x="155.65" y="145.63" width="9.83" height="9.83" style="fill:#838570"/><rect x="145.82" y="145.63" width="9.83" height="9.83" style="fill:#b9bda3"/><rect x="96.66" y="135.8" width="9.83" height="9.83" style="fill:#b9bda3"/><rect x="86.82" y="135.8" width="9.83" height="9.83" style="fill:#838570"/><rect x="116.32" y="135.8" width="9.83" height="9.83" style="fill:#b9bda3"/><rect x="106.49" y="135.8" width="9.83" height="9.83" style="fill:#838570"/><rect x="135.99" y="135.8" width="9.83" height="9.83" style="fill:#b9bda3"/><rect x="126.15" y="135.8" width="9.83" height="9.83" style="fill:#838570"/><rect x="155.65" y="135.8" width="9.83" height="9.83" style="fill:#b9bda3"/><rect x="145.82" y="135.8" width="9.83" height="9.83" style="fill:#838570"/><rect x="96.66" y="125.96" width="9.83" height="9.83" style="fill:#838570"/><rect x="86.82" y="125.96" width="9.83" height="9.83" style="fill:#b9bda3"/><rect x="116.32" y="125.96" width="9.83" height="9.83" style="fill:#838570"/><rect x="106.49" y="125.96" width="9.83" height="9.83" style="fill:#b9bda3"/><rect x="135.99" y="125.96" width="9.83" height="9.83" style="fill:#838570"/><rect x="126.15" y="125.96" width="9.83" height="9.83" style="fill:#b9bda3"/><rect x="155.65" y="125.96" width="9.83" height="9.83" style="fill:#838570"/><rect x="145.82" y="125.96" width="9.83" height="9.83" style="fill:#b9bda3"/><rect x="96.66" y="116.13" width="9.83" height="9.83" style="fill:#b9bda3"/><rect x="86.82" y="116.13" width="9.83" height="9.83" style="fill:#838570"/><rect x="116.32" y="116.13" width="9.83" height="9.83" style="fill:#b9bda3"/><rect x="106.49" y="116.13" width="9.83" height="9.83" style="fill:#838570"/><rect x="135.99" y="116.13" width="9.83" height="9.83" style="fill:#b9bda3"/><rect x="126.15" y="116.13" width="9.83" height="9.83" style="fill:#838570"/><rect x="155.65" y="116.13" width="9.83" height="9.83" style="fill:#b9bda3"/><rect x="145.82" y="116.13" width="9.83" height="9.83" style="fill:#838570"/><rect x="96.66" y="106.3" width="9.83" height="9.83" style="fill:#838570"/><rect x="86.82" y="106.3" width="9.83" height="9.83" style="fill:#b9bda3"/><rect x="116.32" y="106.3" width="9.83" height="9.83" style="fill:#838570"/><rect x="106.49" y="106.3" width="9.83" height="9.83" style="fill:#b9bda3"/><rect x="135.99" y="106.3" width="9.83" height="9.83" style="fill:#838570"/><rect x="126.15" y="106.3" width="9.83" height="9.83" style="fill:#b9bda3"/><rect x="155.65" y="106.3" width="9.83" height="9.83" style="fill:#838570"/><rect x="145.82" y="106.3" width="9.83" height="9.83" style="fill:#b9bda3"/><rect x="96.66" y="96.47" width="9.83" height="9.83" style="fill:#b9bda3"/><rect x="86.82" y="96.47" width="9.83" height="9.83" style="fill:#838570"/><rect x="116.32" y="96.47" width="9.83" height="9.83" style="fill:#b9bda3"/><rect x="106.49" y="96.47" width="9.83" height="9.83" style="fill:#838570"/><rect x="135.99" y="96.47" width="9.83" height="9.83" style="fill:#b9bda3"/><rect x="126.15" y="96.47" width="9.83" height="9.83" style="fill:#838570"/><rect x="155.65" y="96.47" width="9.83" height="9.83" style="fill:#b9bda3"/><rect x="145.82" y="96.47" width="9.83" height="9.83" style="fill:#838570"/><rect x="96.66" y="86.63" width="9.83" height="9.83" style="fill:#838570"/><rect x="86.82" y="86.63" width="9.83" height="9.83" style="fill:#b9bda3"/><rect x="116.32" y="86.63" width="9.83" height="9.83" style="fill:#838570"/><rect x="106.49" y="86.63" width="9.83" height="9.83" style="fill:#b9bda3"/><rect x="135.99" y="86.63" width="9.83" height="9.83" style="fill:#838570"/><rect x="126.15" y="86.63" width="9.83" height="9.83" style="fill:#b9bda3"/><rect x="155.65" y="86.63" width="9.83" height="9.83" style="fill:#838570"/><rect x="145.82" y="86.63" width="9.83" height="9.83" style="fill:#b9bda3"/></g><circle cx="126.15" cy="125.95" r="37.93" style="fill:url(#bz)"/><path d="M107.14,150.08h-.48l-1.41-4.21v6.18h-.69v-9.18H105l1.86,5.6,1.86-5.6h.48v9.18h-.69v-6.18Z"/><path d="M116.13,149.69h-2l-.5,2.36h-.72l2-9.18h.48l2,9.18h-.72Zm-1.75-1.25h1.49l-.74-3.41Z"/><path d="M121.69,147.72v4.33H121v-9.18h1.69a1,1,0,0,1,.94.54,4,4,0,0,1,0,3.78,1.07,1.07,0,0,1-.56.49l1.73,4.38H124l-1.71-4.33Zm1-1.25a.58.58,0,0,0,.58-.34,2.06,2.06,0,0,0,0-1.68.58.58,0,0,0-.58-.34h-1v2.36Z"/><path d="M128.4,142.87h.69v3.87l2-3.87H132l-2.17,4.26,2.31,4.92h-.88l-2.15-4.59v4.59h-.69Z"/><path d="M138.13,146.47v1.25h-1.58v3.08h2.13v1.25h-2.82v-9.18h2.75v1.25h-2.06v2.36Z"/><path d="M142.05,142.87h3.3v1.25H144v7.94h-.69v-7.94h-1.31Z"/><path d="M149.06,149.75c.28.66.68,1.18,1.18,1.18s.84-.55.84-1.38c0-1.4-1-1.56-1.66-2.36a3.12,3.12,0,0,1-.61-2c0-1.34.62-2.44,1.46-2.44a1.66,1.66,0,0,1,1.29.92l-.41,1a1.09,1.09,0,0,0-.86-.63c-.4,0-.8.43-.8,1.23,0,1.17,1,1.42,1.64,2.2a3.23,3.23,0,0,1,.63,2.1c0,1.61-.65,2.66-1.49,2.66-.66,0-1.26-.55-1.69-1.54Z"/><path d="M107.42,150h-.48l-1.41-4.21v6.18h-.69v-9.18h.48l1.86,5.6,1.86-5.6h.48v9.18h-.69v-6.18Z" style="fill:#fff"/><path d="M116.41,149.58h-2l-.5,2.36h-.72l2-9.18h.48l2,9.18h-.72Zm-1.75-1.25h1.49l-.74-3.41Z" style="fill:#fff"/><path d="M122,147.62v4.33h-.69v-9.18H123a1,1,0,0,1,.94.54,4,4,0,0,1,0,3.78,1.07,1.07,0,0,1-.56.49l1.73,4.38h-.83l-1.71-4.33Zm1-1.25a.58.58,0,0,0,.58-.34,2.06,2.06,0,0,0,0-1.68.58.58,0,0,0-.58-.34h-1v2.36Z" style="fill:#fff"/><path d="M128.67,142.76h.69v3.87l2-3.87h.91L130.08,147l2.31,4.92h-.88l-2.15-4.59v4.59h-.69Z" style="fill:#fff"/><path d="M138.41,146.37v1.25h-1.58v3.08H139v1.25h-2.82v-9.18h2.75V144h-2.06v2.36Z" style="fill:#fff"/><path d="M142.33,142.76h3.3V144h-1.31v7.94h-.69V144h-1.31Z" style="fill:#fff"/><path d="M149.34,149.65c.28.66.68,1.18,1.18,1.18s.84-.55.84-1.38c0-1.4-1-1.56-1.66-2.36a3.12,3.12,0,0,1-.61-2c0-1.34.62-2.44,1.46-2.44a1.66,1.66,0,0,1,1.29.92l-.41,1a1.09,1.09,0,0,0-.86-.63c-.4,0-.8.43-.8,1.23,0,1.17,1,1.42,1.64,2.2a3.23,3.23,0,0,1,.63,2.1c0,1.61-.65,2.66-1.49,2.66-.66,0-1.26-.55-1.69-1.54Z" style="fill:#fff"/><g style="clip-path:url(#ca)"><rect x="37.48" y="150.78" width="177.33" height="4.3" style="fill:#fff"/><rect x="37.48" y="150.64" width="177.33" height="0.14" style="fill:#fff"/><rect x="37.48" y="150.51" width="177.33" height="0.14" style="fill:#fffffe"/><rect x="37.48" y="150.37" width="177.33" height="0.14" style="fill:#fffffd"/><rect x="37.48" y="150.23" width="177.33" height="0.14" style="fill:#fffffc"/><rect x="37.48" y="150.1" width="177.33" height="0.14" style="fill:#fffffb"/><rect x="37.48" y="149.96" width="177.33" height="0.14" style="fill:#fefffa"/><rect x="37.48" y="149.82" width="177.33" height="0.14" style="fill:#fefef9"/><rect x="37.48" y="149.69" width="177.33" height="0.14" style="fill:#fefef8"/><rect x="37.48" y="149.55" width="177.33" height="0.14" style="fill:#fefef7"/><rect x="37.48" y="149.41" width="177.33" height="0.14" style="fill:#fefef6"/><rect x="37.48" y="149.28" width="177.33" height="0.14" style="fill:#fefef5"/><rect x="37.48" y="149.14" width="177.33" height="0.14" style="fill:#fefef4"/><rect x="37.48" y="149" width="177.33" height="0.14" style="fill:#fefef3"/><rect x="37.48" y="148.87" width="177.33" height="0.14" style="fill:#fefef2"/><rect x="37.48" y="148.73" width="177.33" height="0.14" style="fill:#fdfef1"/><rect x="37.48" y="148.59" width="177.33" height="0.14" style="fill:#fdfef0"/><rect x="37.48" y="148.46" width="177.33" height="0.14" style="fill:#fdfeef"/><rect x="37.48" y="148.32" width="177.33" height="0.14" style="fill:#fdfeee"/><rect x="37.48" y="148.18" width="177.33" height="0.14" style="fill:#fdfded"/><rect x="37.48" y="148.04" width="177.33" height="0.14" style="fill:#fdfdec"/><rect x="37.48" y="147.91" width="177.33" height="0.14" style="fill:#fdfdeb"/><rect x="37.48" y="147.77" width="177.33" height="0.14" style="fill:#fdfdea"/><rect x="37.48" y="147.63" width="177.33" height="0.14" style="fill:#fcfde9"/><rect x="37.48" y="147.5" width="177.33" height="0.14" style="fill:#fcfde8"/><rect x="37.48" y="147.36" width="177.33" height="0.14" style="fill:#fcfde7"/><rect x="37.48" y="147.22" width="177.33" height="0.14" style="fill:#fcfde6"/><rect x="37.48" y="147.09" width="177.33" height="0.14" style="fill:#fcfde5"/><rect x="37.48" y="146.95" width="177.33" height="0.14" style="fill:#fcfde4"/><rect x="37.48" y="146.81" width="177.33" height="0.14" style="fill:#fcfde3"/><rect x="37.48" y="146.68" width="177.33" height="0.14" style="fill:#fcfce2"/><rect x="37.48" y="146.54" width="177.33" height="0.14" style="fill:#fcfce1"/><rect x="37.48" y="146.4" width="177.33" height="0.14" style="fill:#fbfce0"/><rect x="37.48" y="146.27" width="177.33" height="0.14" style="fill:#fbfcdf"/><rect x="37.48" y="146.13" width="177.33" height="0.14" style="fill:#fbfcde"/><rect x="37.48" y="145.99" width="177.33" height="0.14" style="fill:#fbfcdd"/><rect x="37.48" y="145.86" width="177.33" height="0.14" style="fill:#fbfcdc"/><rect x="37.48" y="145.72" width="177.33" height="0.14" style="fill:#fbfcdb"/><rect x="37.48" y="145.58" width="177.33" height="0.14" style="fill:#fbfcda"/><rect x="37.48" y="145.45" width="177.33" height="0.14" style="fill:#fbfcd9"/><rect x="37.48" y="145.31" width="177.33" height="0.14" style="fill:#fbfcd8"/><rect x="37.48" y="145.17" width="177.33" height="0.14" style="fill:#fafcd7"/><rect x="37.48" y="145.04" width="177.33" height="0.14" style="fill:#fafbd6"/><rect x="37.48" y="144.9" width="177.33" height="0.14" style="fill:#fafbd5"/><rect x="37.48" y="144.76" width="177.33" height="0.14" style="fill:#fafbd4"/><rect x="37.48" y="144.63" width="177.33" height="0.14" style="fill:#fafbd3"/><rect x="37.48" y="144.49" width="177.33" height="0.14" style="fill:#fafbd2"/><rect x="37.48" y="144.35" width="177.33" height="0.14" style="fill:#fafbd1"/><rect x="37.48" y="144.22" width="177.33" height="0.14" style="fill:#fafbd0"/><rect x="37.48" y="144.08" width="177.33" height="0.14" style="fill:#fafbcf"/><rect x="37.48" y="143.94" width="177.33" height="0.14" style="fill:#f9fbce"/><rect x="37.48" y="143.8" width="177.33" height="0.14" style="fill:#f9fbcd"/><rect x="37.48" y="143.67" width="177.33" height="0.14" style="fill:#f9fbcc"/><rect x="37.48" y="143.53" width="177.33" height="0.14" style="fill:#f9facb"/><rect x="37.48" y="143.39" width="177.33" height="0.14" style="fill:#f9faca"/><rect x="37.48" y="143.26" width="177.33" height="0.14" style="fill:#f9fac9"/><rect x="37.48" y="143.12" width="177.33" height="0.14" style="fill:#f9fac8"/><rect x="37.48" y="142.98" width="177.33" height="0.14" style="fill:#f9fac7"/><rect x="37.48" y="142.85" width="177.33" height="0.14" style="fill:#f8fac6"/><rect x="37.48" y="142.71" width="177.33" height="0.14" style="fill:#f8fac5"/><rect x="37.48" y="142.57" width="177.33" height="0.14" style="fill:#f8fac4"/><rect x="37.48" y="142.44" width="177.33" height="0.14" style="fill:#f8fac3"/><rect x="37.48" y="142.3" width="177.33" height="0.14" style="fill:#f8fac2"/><rect x="37.48" y="142.16" width="177.33" height="0.14" style="fill:#f8fac1"/><rect x="37.48" y="142.03" width="177.33" height="0.14" style="fill:#f8fac0"/><rect x="37.48" y="141.89" width="177.33" height="0.14" style="fill:#f8f9bf"/><rect x="37.48" y="141.75" width="177.33" height="0.14" style="fill:#f8f9be"/><rect x="37.48" y="141.62" width="177.33" height="0.14" style="fill:#f7f9bd"/><rect x="37.48" y="141.48" width="177.33" height="0.14" style="fill:#f7f9bc"/><rect x="37.48" y="141.34" width="177.33" height="0.14" style="fill:#f7f9bb"/><rect x="37.48" y="141.21" width="177.33" height="0.14" style="fill:#f7f9ba"/><rect x="37.48" y="141.07" width="177.33" height="0.14" style="fill:#f7f9b9"/><rect x="37.48" y="140.93" width="177.33" height="0.14" style="fill:#f7f9b8"/><rect x="37.48" y="140.8" width="177.33" height="0.14" style="fill:#f7f9b7"/><rect x="37.48" y="140.66" width="177.33" height="0.14" style="fill:#f7f9b6"/><rect x="37.48" y="140.52" width="177.33" height="0.14" style="fill:#f7f9b5"/><rect x="37.48" y="140.39" width="177.33" height="0.14" style="fill:#f6f9b4"/><rect x="37.48" y="140.25" width="177.33" height="0.14" style="fill:#f6f8b3"/><rect x="37.48" y="140.11" width="177.33" height="0.14" style="fill:#f6f8b2"/><rect x="37.48" y="139.98" width="177.33" height="0.14" style="fill:#f6f8b1"/><rect x="37.48" y="139.84" width="177.33" height="0.14" style="fill:#f6f8b0"/><rect x="37.48" y="139.7" width="177.33" height="0.14" style="fill:#f6f8af"/><rect x="37.48" y="139.57" width="177.33" height="0.14" style="fill:#f6f8ae"/><rect x="37.48" y="139.43" width="177.33" height="0.14" style="fill:#f6f8ad"/><rect x="37.48" y="139.29" width="177.33" height="0.14" style="fill:#f6f8ac"/><rect x="37.48" y="139.15" width="177.33" height="0.14" style="fill:#f5f8ab"/><rect x="37.48" y="139.02" width="177.33" height="0.14" style="fill:#f5f8aa"/><rect x="37.48" y="138.88" width="177.33" height="0.14" style="fill:#f5f8a9"/><rect x="37.48" y="138.74" width="177.33" height="0.14" style="fill:#f5f7a8"/><rect x="37.48" y="138.61" width="177.33" height="0.14" style="fill:#f5f7a7"/><rect x="37.48" y="138.47" width="177.33" height="0.14" style="fill:#f5f7a6"/><rect x="37.48" y="138.33" width="177.33" height="0.14" style="fill:#f5f7a5"/><rect x="37.48" y="138.2" width="177.33" height="0.14" style="fill:#f5f7a4"/><rect x="37.48" y="138.06" width="177.33" height="0.14" style="fill:#f4f7a3"/><rect x="37.48" y="137.92" width="177.33" height="0.14" style="fill:#f4f7a2"/><rect x="37.48" y="137.79" width="177.33" height="0.14" style="fill:#f4f7a1"/><rect x="37.48" y="137.65" width="177.33" height="0.14" style="fill:#f4f7a0"/><rect x="37.48" y="137.51" width="177.33" height="0.14" style="fill:#f4f79f"/><rect x="37.48" y="137.38" width="177.33" height="0.14" style="fill:#f4f79e"/><rect x="37.48" y="137.24" width="177.33" height="0.14" style="fill:#f4f79d"/><rect x="37.48" y="137.1" width="177.33" height="0.14" style="fill:#f4f69c"/><rect x="37.48" y="136.97" width="177.33" height="0.14" style="fill:#f4f69b"/><rect x="37.48" y="136.83" width="177.33" height="0.14" style="fill:#f3f69a"/><rect x="37.48" y="136.69" width="177.33" height="0.14" style="fill:#f3f699"/><rect x="37.48" y="136.56" width="177.33" height="0.14" style="fill:#f3f698"/><rect x="37.48" y="136.42" width="177.33" height="0.14" style="fill:#f3f697"/><rect x="37.48" y="136.28" width="177.33" height="0.14" style="fill:#f3f696"/><rect x="37.48" y="136.15" width="177.33" height="0.14" style="fill:#f3f695"/><rect x="37.48" y="136.01" width="177.33" height="0.14" style="fill:#f3f694"/><rect x="37.48" y="135.87" width="177.33" height="0.14" style="fill:#f3f693"/><rect x="37.48" y="135.74" width="177.33" height="0.14" style="fill:#f3f692"/><rect x="37.48" y="135.6" width="177.33" height="0.14" style="fill:#f2f591"/><rect x="37.48" y="135.46" width="177.33" height="0.14" style="fill:#f2f590"/><rect x="37.48" y="135.33" width="177.33" height="0.14" style="fill:#f2f58f"/><rect x="37.48" y="135.19" width="177.33" height="0.14" style="fill:#f2f58e"/><rect x="37.48" y="135.05" width="177.33" height="0.14" style="fill:#f2f58d"/><rect x="37.48" y="134.91" width="177.33" height="0.14" style="fill:#f2f58c"/><rect x="37.48" y="134.78" width="177.33" height="0.14" style="fill:#f2f58b"/><rect x="37.48" y="134.64" width="177.33" height="0.14" style="fill:#f2f58a"/><rect x="37.48" y="134.5" width="177.33" height="0.14" style="fill:#f2f589"/><rect x="37.48" y="134.37" width="177.33" height="0.14" style="fill:#f1f588"/><rect x="37.48" y="134.23" width="177.33" height="0.14" style="fill:#f1f587"/><rect x="37.48" y="134.09" width="177.33" height="0.14" style="fill:#f1f586"/><rect x="37.48" y="133.96" width="177.33" height="0.14" style="fill:#f1f485"/><rect x="37.48" y="133.82" width="177.33" height="0.14" style="fill:#f1f484"/><rect x="37.48" y="133.68" width="177.33" height="0.14" style="fill:#f1f483"/><rect x="37.48" y="133.55" width="177.33" height="0.14" style="fill:#f1f482"/><rect x="37.48" y="133.41" width="177.33" height="0.14" style="fill:#f1f481"/><rect x="37.48" y="133.27" width="177.33" height="0.14" style="fill:#f1f480"/><rect x="37.48" y="133.14" width="177.33" height="0.14" style="fill:#f0f47e"/><rect x="37.48" y="133" width="177.33" height="0.14" style="fill:#f0f47d"/><rect x="37.48" y="132.86" width="177.33" height="0.14" style="fill:#f0f47c"/><rect x="37.48" y="132.73" width="177.33" height="0.14" style="fill:#f0f47b"/><rect x="37.48" y="132.59" width="177.33" height="0.14" style="fill:#f0f47a"/><rect x="37.48" y="132.45" width="177.33" height="0.14" style="fill:#f0f379"/><rect x="37.48" y="132.32" width="177.33" height="0.14" style="fill:#f0f378"/><rect x="37.48" y="132.18" width="177.33" height="0.14" style="fill:#f0f377"/><rect x="37.48" y="132.04" width="177.33" height="0.14" style="fill:#eff376"/><rect x="37.48" y="131.91" width="177.33" height="0.14" style="fill:#eff375"/><rect x="37.48" y="131.77" width="177.33" height="0.14" style="fill:#eff374"/><rect x="37.48" y="131.63" width="177.33" height="0.14" style="fill:#eff373"/><rect x="37.48" y="131.5" width="177.33" height="0.14" style="fill:#eff372"/><rect x="37.48" y="131.36" width="177.33" height="0.14" style="fill:#eff371"/><rect x="37.48" y="131.22" width="177.33" height="0.14" style="fill:#eff370"/><rect x="37.48" y="131.09" width="177.33" height="0.14" style="fill:#eff36f"/><rect x="37.48" y="130.95" width="177.33" height="0.14" style="fill:#eff36e"/><rect x="37.48" y="130.81" width="177.33" height="0.14" style="fill:#eef26d"/><rect x="37.48" y="130.68" width="177.33" height="0.14" style="fill:#eef26c"/><rect x="37.48" y="130.54" width="177.33" height="0.14" style="fill:#eef26b"/><rect x="37.48" y="130.4" width="177.33" height="0.14" style="fill:#eef26a"/><rect x="37.48" y="130.26" width="177.33" height="0.14" style="fill:#eef269"/><rect x="37.48" y="130.13" width="177.33" height="0.14" style="fill:#eef268"/><rect x="37.48" y="129.99" width="177.33" height="0.14" style="fill:#eef267"/><rect x="37.48" y="129.85" width="177.33" height="0.14" style="fill:#eef266"/><rect x="37.48" y="129.72" width="177.33" height="0.14" style="fill:#eef265"/><rect x="37.48" y="129.58" width="177.33" height="0.14" style="fill:#edf264"/><rect x="37.48" y="129.44" width="177.33" height="0.14" style="fill:#edf263"/><rect x="37.48" y="129.31" width="177.33" height="0.14" style="fill:#edf162"/><rect x="37.48" y="129.17" width="177.33" height="0.14" style="fill:#edf161"/><rect x="37.48" y="129.03" width="177.33" height="0.14" style="fill:#edf160"/><rect x="37.48" y="128.9" width="177.33" height="0.14" style="fill:#edf15f"/><rect x="37.48" y="128.76" width="177.33" height="0.14" style="fill:#edf15e"/><rect x="37.48" y="128.62" width="177.33" height="0.14" style="fill:#edf15d"/><rect x="37.48" y="128.49" width="177.33" height="0.14" style="fill:#edf15c"/><rect x="37.48" y="128.35" width="177.33" height="0.14" style="fill:#ecf15b"/><rect x="37.48" y="128.21" width="177.33" height="0.14" style="fill:#ecf15a"/><rect x="37.48" y="128.08" width="177.33" height="0.14" style="fill:#ecf159"/><rect x="37.48" y="127.94" width="177.33" height="0.14" style="fill:#ecf158"/><rect x="37.48" y="127.8" width="177.33" height="0.14" style="fill:#ecf157"/><rect x="37.48" y="127.67" width="177.33" height="0.14" style="fill:#ecf056"/><rect x="37.48" y="127.53" width="177.33" height="0.14" style="fill:#ecf055"/><rect x="37.48" y="127.39" width="177.33" height="0.14" style="fill:#ecf054"/><rect x="37.48" y="127.26" width="177.33" height="0.14" style="fill:#ebf053"/><rect x="37.48" y="127.12" width="177.33" height="0.14" style="fill:#ebf052"/><rect x="37.48" y="126.98" width="177.33" height="0.14" style="fill:#ebf051"/><rect x="37.48" y="126.85" width="177.33" height="0.14" style="fill:#ebf050"/><rect x="37.48" y="126.71" width="177.33" height="0.14" style="fill:#ebf04f"/><rect x="37.48" y="126.57" width="177.33" height="0.14" style="fill:#ebf04e"/><rect x="37.48" y="126.44" width="177.33" height="0.14" style="fill:#ebf04d"/><rect x="37.48" y="126.3" width="177.33" height="0.14" style="fill:#ebf04c"/><rect x="37.48" y="126.16" width="177.33" height="0.14" style="fill:#ebef4b"/><rect x="37.48" y="126.02" width="177.33" height="0.14" style="fill:#eaef4a"/><rect x="37.48" y="125.89" width="177.33" height="0.14" style="fill:#eaef49"/><rect x="37.48" y="125.75" width="177.33" height="0.14" style="fill:#eaef48"/><rect x="37.48" y="125.61" width="177.33" height="0.14" style="fill:#eaef47"/><rect x="37.48" y="125.48" width="177.33" height="0.14" style="fill:#eaef46"/><rect x="37.48" y="125.34" width="177.33" height="0.14" style="fill:#eaef45"/><rect x="37.48" y="125.2" width="177.33" height="0.14" style="fill:#eaef44"/><rect x="37.48" y="125.07" width="177.33" height="0.14" style="fill:#eaef43"/><rect x="37.48" y="124.93" width="177.33" height="0.14" style="fill:#eaef42"/><rect x="37.48" y="124.79" width="177.33" height="0.14" style="fill:#e9ef41"/><rect x="37.48" y="124.66" width="177.33" height="0.14" style="fill:#e9ef40"/><rect x="37.48" y="124.52" width="177.33" height="0.14" style="fill:#e9ee3f"/><rect x="37.48" y="124.38" width="177.33" height="0.14" style="fill:#e9ee3e"/><rect x="37.48" y="124.25" width="177.33" height="0.14" style="fill:#e9ee3d"/><rect x="37.48" y="124.11" width="177.33" height="0.14" style="fill:#e9ee3c"/><rect x="37.48" y="123.97" width="177.33" height="0.14" style="fill:#e9ee3b"/><rect x="37.48" y="123.84" width="177.33" height="0.14" style="fill:#e9ee3a"/><rect x="37.48" y="123.7" width="177.33" height="0.14" style="fill:#e9ee39"/><rect x="37.48" y="123.56" width="177.33" height="0.14" style="fill:#e8ee38"/><rect x="37.48" y="123.43" width="177.33" height="0.14" style="fill:#e8ee37"/><rect x="37.48" y="123.29" width="177.33" height="0.14" style="fill:#e8ee36"/><rect x="37.48" y="123.15" width="177.33" height="0.14" style="fill:#e8ee35"/><rect x="37.48" y="123.02" width="177.33" height="0.14" style="fill:#e8ee34"/><rect x="37.48" y="122.88" width="177.33" height="0.14" style="fill:#e8ed33"/><rect x="37.48" y="122.74" width="177.33" height="0.14" style="fill:#e8ed32"/><rect x="37.48" y="122.61" width="177.33" height="0.14" style="fill:#e8ed31"/><rect x="37.48" y="122.47" width="177.33" height="0.14" style="fill:#e7ed30"/><rect x="37.48" y="122.33" width="177.33" height="0.14" style="fill:#e7ed2f"/><rect x="37.48" y="122.2" width="177.33" height="0.14" style="fill:#e7ed2e"/><rect x="37.48" y="122.06" width="177.33" height="0.14" style="fill:#e7ed2d"/><rect x="37.48" y="121.92" width="177.33" height="0.14" style="fill:#e7ed2c"/><rect x="37.48" y="121.79" width="177.33" height="0.14" style="fill:#e7ed2b"/><rect x="37.48" y="121.65" width="177.33" height="0.14" style="fill:#e7ed2a"/><rect x="37.48" y="121.51" width="177.33" height="0.14" style="fill:#e7ed29"/><rect x="37.48" y="121.37" width="177.33" height="0.14" style="fill:#e7ec28"/><rect x="37.48" y="121.24" width="177.33" height="0.14" style="fill:#e6ec27"/><rect x="37.48" y="121.1" width="177.33" height="0.14" style="fill:#e6ec26"/><rect x="37.48" y="120.96" width="177.33" height="0.14" style="fill:#e6ec25"/><rect x="37.48" y="120.83" width="177.33" height="0.14" style="fill:#e6ec24"/><rect x="37.48" y="120.69" width="177.33" height="0.14" style="fill:#e6ec23"/><rect x="37.48" y="120.55" width="177.33" height="0.14" style="fill:#e6ec22"/><rect x="37.48" y="120.42" width="177.33" height="0.14" style="fill:#e6ec21"/><rect x="37.48" y="120.28" width="177.33" height="0.14" style="fill:#e6ec20"/><rect x="37.48" y="120.2" width="177.33" height="0.08" style="fill:#e6ec1f"/></g><path d="M183,121.33l8.8.88c1.69.52,13.66,4.32,20.6,9a48.82,48.82,0,0,0-7.7,3.4c-7.18,4-12.06,9.26-14.12,15.33l0,.06,0,.06a21.17,21.17,0,0,0-.48,2.45,56,56,0,0,0-5.59-4.46A58.85,58.85,0,0,0,160,138.22l.48-1.39-1.72-.9-1.08-.56-.46-.24h-.52l-77-1.8-1.76,0-.46,1.7-2.27,8.37a72.84,72.84,0,0,0-12.88,9.42,21.94,21.94,0,0,0-1.31-4.54c-2-4.86-6.79-11.56-18.38-15.91l-.05,0-.06,0-2.77-.88a99,99,0,0,1,22.53-10.07H183m.11-2.25H62c-16.29,5.13-24.93,11.45-24.93,11.45-1.26,1.4-.77,2.11-.77,2.11l5.62,1.78c21,7.87,18.45,23.41,18.45,23.41a70.74,70.74,0,0,1,16.82-13l2.53-9.31,77,1.8,1.08.56-.75,2.15c23,2.53,35.07,17.75,35.07,17.75a23.63,23.63,0,0,1,.61-7.16c4.59-13.53,22.71-18,22.71-18,1.22-.23.7-1.4.7-1.4-7-6.18-23.88-11.24-23.88-11.24l-9.13-.91Z"/><g style="clip-path:url(#cb)"><rect x="57.79" y="138.64" width="135.68" height="4.33" style="fill:#fff"/><rect x="57.79" y="138.52" width="135.68" height="0.12" style="fill:#fff"/><rect x="57.79" y="138.4" width="135.68" height="0.12" style="fill:#fffffe"/><rect x="57.79" y="138.28" width="135.68" height="0.12" style="fill:#fffffd"/><rect x="57.79" y="138.16" width="135.68" height="0.12" style="fill:#fffffc"/><rect x="57.79" y="138.04" width="135.68" height="0.12" style="fill:#fffffb"/><rect x="57.79" y="137.92" width="135.68" height="0.12" style="fill:#fffffa"/><rect x="57.79" y="137.8" width="135.68" height="0.12" style="fill:#fffff9"/><rect x="57.79" y="137.68" width="135.68" height="0.12" style="fill:#fffff8"/><rect x="57.79" y="137.56" width="135.68" height="0.12" style="fill:#fffff7"/><rect x="57.79" y="137.44" width="135.68" height="0.12" style="fill:#fffff6"/><rect x="57.79" y="137.32" width="135.68" height="0.12" style="fill:#fffff5"/><rect x="57.79" y="137.2" width="135.68" height="0.12" style="fill:#fffff4"/><rect x="57.79" y="137.08" width="135.68" height="0.12" style="fill:#fffff3"/><rect x="57.79" y="136.96" width="135.68" height="0.12" style="fill:#fffff2"/><rect x="57.79" y="136.84" width="135.68" height="0.12" style="fill:#fffff1"/><rect x="57.79" y="136.72" width="135.68" height="0.12" style="fill:ivory"/><rect x="57.79" y="136.61" width="135.68" height="0.12" style="fill:#ffffef"/><rect x="57.79" y="136.49" width="135.68" height="0.12" style="fill:#ffe"/><rect x="57.79" y="136.37" width="135.68" height="0.12" style="fill:#ffffed"/><rect x="57.79" y="136.25" width="135.68" height="0.12" style="fill:#ffffec"/><rect x="57.79" y="136.13" width="135.68" height="0.12" style="fill:#ffffeb"/><rect x="57.79" y="136.01" width="135.68" height="0.12" style="fill:#ffffea"/><rect x="57.79" y="135.89" width="135.68" height="0.12" style="fill:#ffffe9"/><rect x="57.79" y="135.77" width="135.68" height="0.12" style="fill:#ffffe8"/><rect x="57.79" y="135.65" width="135.68" height="0.12" style="fill:#ffffe7"/><rect x="57.79" y="135.53" width="135.68" height="0.12" style="fill:#ffffe6"/><rect x="57.79" y="135.41" width="135.68" height="0.12" style="fill:#ffffe5"/><rect x="57.79" y="135.29" width="135.68" height="0.12" style="fill:#ffffe4"/><rect x="57.79" y="135.17" width="135.68" height="0.12" style="fill:#ffffe3"/><rect x="57.79" y="135.05" width="135.68" height="0.12" style="fill:#ffffe2"/><rect x="57.79" y="134.93" width="135.68" height="0.12" style="fill:#ffffe1"/><rect x="57.79" y="134.81" width="135.68" height="0.12" style="fill:#ffffe0"/><rect x="57.79" y="134.69" width="135.68" height="0.12" style="fill:#ffffdf"/><rect x="57.79" y="134.58" width="135.68" height="0.12" style="fill:#ffffde"/><rect x="57.79" y="134.46" width="135.68" height="0.12" style="fill:#ffd"/><rect x="57.79" y="134.34" width="135.68" height="0.12" style="fill:#ffffdc"/><rect x="57.79" y="134.22" width="135.68" height="0.12" style="fill:#ffffdb"/><rect x="57.79" y="134.1" width="135.68" height="0.12" style="fill:#ffffda"/><rect x="57.79" y="133.98" width="135.68" height="0.12" style="fill:#ffffd9"/><rect x="57.79" y="133.86" width="135.68" height="0.12" style="fill:#ffffd8"/><rect x="57.79" y="133.74" width="135.68" height="0.12" style="fill:#ffffd7"/><rect x="57.79" y="133.62" width="135.68" height="0.12" style="fill:#ffffd6"/><rect x="57.79" y="133.5" width="135.68" height="0.12" style="fill:#ffffd5"/><rect x="57.79" y="133.38" width="135.68" height="0.12" style="fill:#ffffd4"/><rect x="57.79" y="133.26" width="135.68" height="0.12" style="fill:#ffffd3"/><rect x="57.79" y="133.14" width="135.68" height="0.12" style="fill:#ffffd2"/><rect x="57.79" y="133.02" width="135.68" height="0.12" style="fill:#ffffd1"/><rect x="57.79" y="132.9" width="135.68" height="0.12" style="fill:#ffffd0"/><rect x="57.79" y="132.78" width="135.68" height="0.12" style="fill:#ffffcf"/><rect x="57.79" y="132.66" width="135.68" height="0.12" style="fill:#ffffce"/><rect x="57.79" y="132.54" width="135.68" height="0.12" style="fill:#ffffcd"/><rect x="57.79" y="132.43" width="135.68" height="0.12" style="fill:#ffc"/><rect x="57.79" y="132.31" width="135.68" height="0.12" style="fill:#ffffcb"/><rect x="57.79" y="132.19" width="135.68" height="0.12" style="fill:#ffffca"/><rect x="57.79" y="132.07" width="135.68" height="0.12" style="fill:#ffffc9"/><rect x="57.79" y="131.95" width="135.68" height="0.12" style="fill:#ffffc8"/><rect x="57.79" y="131.83" width="135.68" height="0.12" style="fill:#ffffc7"/><rect x="57.79" y="131.71" width="135.68" height="0.12" style="fill:#ffffc6"/><rect x="57.79" y="131.59" width="135.68" height="0.12" style="fill:#ffffc5"/><rect x="57.79" y="131.47" width="135.68" height="0.12" style="fill:#ffffc4"/><rect x="57.79" y="131.35" width="135.68" height="0.12" style="fill:#ffffc3"/><rect x="57.79" y="131.23" width="135.68" height="0.12" style="fill:#ffffc2"/><rect x="57.79" y="131.11" width="135.68" height="0.12" style="fill:#ffffc1"/><rect x="57.79" y="130.99" width="135.68" height="0.12" style="fill:#ffffc0"/><rect x="57.79" y="130.87" width="135.68" height="0.12" style="fill:#ffffbf"/><rect x="57.79" y="130.75" width="135.68" height="0.12" style="fill:#ffffbe"/><rect x="57.79" y="130.63" width="135.68" height="0.12" style="fill:#ffffbd"/><rect x="57.79" y="130.51" width="135.68" height="0.12" style="fill:#ffffbc"/><rect x="57.79" y="130.4" width="135.68" height="0.12" style="fill:#ffb"/><rect x="57.79" y="130.28" width="135.68" height="0.12" style="fill:#ffffba"/><rect x="57.79" y="130.16" width="135.68" height="0.12" style="fill:#ffffb9"/><rect x="57.79" y="130.04" width="135.68" height="0.12" style="fill:#ffffb8"/><rect x="57.79" y="129.92" width="135.68" height="0.12" style="fill:#ffffb7"/><rect x="57.79" y="129.8" width="135.68" height="0.12" style="fill:#ffffb6"/><rect x="57.79" y="129.68" width="135.68" height="0.12" style="fill:#ffffb5"/><rect x="57.79" y="129.56" width="135.68" height="0.12" style="fill:#ffffb4"/><rect x="57.79" y="129.44" width="135.68" height="0.12" style="fill:#ffffb3"/><rect x="57.79" y="129.32" width="135.68" height="0.12" style="fill:#ffffb2"/><rect x="57.79" y="129.2" width="135.68" height="0.12" style="fill:#ffffb1"/><rect x="57.79" y="129.08" width="135.68" height="0.12" style="fill:#ffffb0"/><rect x="57.79" y="128.96" width="135.68" height="0.12" style="fill:#ffffaf"/><rect x="57.79" y="128.84" width="135.68" height="0.12" style="fill:#ffffae"/><rect x="57.79" y="128.72" width="135.68" height="0.12" style="fill:#ffffad"/><rect x="57.79" y="128.6" width="135.68" height="0.12" style="fill:#ffffac"/><rect x="57.79" y="128.48" width="135.68" height="0.12" style="fill:#ffffab"/><rect x="57.79" y="128.37" width="135.68" height="0.12" style="fill:#ffa"/><rect x="57.79" y="128.25" width="135.68" height="0.12" style="fill:#ffffa9"/><rect x="57.79" y="128.13" width="135.68" height="0.12" style="fill:#ffffa8"/><rect x="57.79" y="128.01" width="135.68" height="0.12" style="fill:#ffffa7"/><rect x="57.79" y="127.89" width="135.68" height="0.12" style="fill:#ffffa6"/><rect x="57.79" y="127.77" width="135.68" height="0.12" style="fill:#ffffa5"/><rect x="57.79" y="127.65" width="135.68" height="0.12" style="fill:#ffffa4"/><rect x="57.79" y="127.53" width="135.68" height="0.12" style="fill:#ffffa3"/><rect x="57.79" y="127.41" width="135.68" height="0.12" style="fill:#ffffa2"/><rect x="57.79" y="127.29" width="135.68" height="0.12" style="fill:#ffffa1"/><rect x="57.79" y="127.17" width="135.68" height="0.12" style="fill:#ffffa0"/><rect x="57.79" y="127.05" width="135.68" height="0.12" style="fill:#ffff9f"/><rect x="57.79" y="126.93" width="135.68" height="0.12" style="fill:#ffff9e"/><rect x="57.79" y="126.81" width="135.68" height="0.12" style="fill:#ffff9d"/><rect x="57.79" y="126.69" width="135.68" height="0.12" style="fill:#ffff9c"/><rect x="57.79" y="126.57" width="135.68" height="0.12" style="fill:#ffff9b"/><rect x="57.79" y="126.45" width="135.68" height="0.12" style="fill:#ffff9a"/><rect x="57.79" y="126.33" width="135.68" height="0.12" style="fill:#ff9"/><rect x="57.79" y="126.22" width="135.68" height="0.12" style="fill:#ffff98"/><rect x="57.79" y="126.1" width="135.68" height="0.12" style="fill:#ffff97"/><rect x="57.79" y="125.98" width="135.68" height="0.12" style="fill:#ffff96"/><rect x="57.79" y="125.86" width="135.68" height="0.12" style="fill:#feff94"/><rect x="57.79" y="125.74" width="135.68" height="0.12" style="fill:#feff93"/><rect x="57.79" y="125.62" width="135.68" height="0.12" style="fill:#feff92"/><rect x="57.79" y="125.5" width="135.68" height="0.12" style="fill:#feff91"/><rect x="57.79" y="125.38" width="135.68" height="0.12" style="fill:#feff90"/><rect x="57.79" y="125.26" width="135.68" height="0.12" style="fill:#feff8f"/><rect x="57.79" y="125.14" width="135.68" height="0.12" style="fill:#feff8e"/><rect x="57.79" y="125.02" width="135.68" height="0.12" style="fill:#feff8d"/><rect x="57.79" y="124.9" width="135.68" height="0.12" style="fill:#feff8c"/><rect x="57.79" y="124.78" width="135.68" height="0.12" style="fill:#feff8b"/><rect x="57.79" y="124.66" width="135.68" height="0.12" style="fill:#feff8a"/><rect x="57.79" y="124.54" width="135.68" height="0.12" style="fill:#feff89"/><rect x="57.79" y="124.42" width="135.68" height="0.12" style="fill:#feff88"/><rect x="57.79" y="124.3" width="135.68" height="0.12" style="fill:#feff87"/><rect x="57.79" y="124.19" width="135.68" height="0.12" style="fill:#feff86"/><rect x="57.79" y="124.07" width="135.68" height="0.12" style="fill:#feff85"/><rect x="57.79" y="123.95" width="135.68" height="0.12" style="fill:#feff84"/><rect x="57.79" y="123.83" width="135.68" height="0.12" style="fill:#feff83"/><rect x="57.79" y="123.71" width="135.68" height="0.12" style="fill:#feff82"/><rect x="57.79" y="123.59" width="135.68" height="0.12" style="fill:#feff81"/><rect x="57.79" y="123.47" width="135.68" height="0.12" style="fill:#feff80"/><rect x="57.79" y="123.35" width="135.68" height="0.12" style="fill:#feff7f"/><rect x="57.79" y="123.23" width="135.68" height="0.12" style="fill:#feff7e"/><rect x="57.79" y="123.11" width="135.68" height="0.12" style="fill:#feff7d"/><rect x="57.79" y="122.99" width="135.68" height="0.12" style="fill:#feff7c"/><rect x="57.79" y="122.87" width="135.68" height="0.12" style="fill:#feff7b"/><rect x="57.79" y="122.75" width="135.68" height="0.12" style="fill:#feff7a"/><rect x="57.79" y="122.63" width="135.68" height="0.12" style="fill:#feff79"/><rect x="57.79" y="122.51" width="135.68" height="0.12" style="fill:#feff78"/><rect x="57.79" y="122.39" width="135.68" height="0.12" style="fill:#feff77"/><rect x="57.79" y="122.27" width="135.68" height="0.12" style="fill:#feff76"/><rect x="57.79" y="122.16" width="135.68" height="0.12" style="fill:#feff75"/><rect x="57.79" y="122.04" width="135.68" height="0.12" style="fill:#feff74"/><rect x="57.79" y="121.92" width="135.68" height="0.12" style="fill:#feff73"/><rect x="57.79" y="121.8" width="135.68" height="0.12" style="fill:#feff72"/><rect x="57.79" y="121.68" width="135.68" height="0.12" style="fill:#feff71"/><rect x="57.79" y="121.56" width="135.68" height="0.12" style="fill:#feff70"/><rect x="57.79" y="121.44" width="135.68" height="0.12" style="fill:#feff6f"/><rect x="57.79" y="121.32" width="135.68" height="0.12" style="fill:#feff6e"/><rect x="57.79" y="121.2" width="135.68" height="0.12" style="fill:#feff6d"/><rect x="57.79" y="121.08" width="135.68" height="0.12" style="fill:#feff6c"/><rect x="57.79" y="120.96" width="135.68" height="0.12" style="fill:#feff6b"/><rect x="57.79" y="120.84" width="135.68" height="0.12" style="fill:#feff6a"/><rect x="57.79" y="120.72" width="135.68" height="0.12" style="fill:#feff69"/><rect x="57.79" y="120.6" width="135.68" height="0.12" style="fill:#feff68"/><rect x="57.79" y="120.48" width="135.68" height="0.12" style="fill:#feff67"/><rect x="57.79" y="120.36" width="135.68" height="0.12" style="fill:#feff66"/><rect x="57.79" y="120.24" width="135.68" height="0.12" style="fill:#feff65"/><rect x="57.79" y="120.12" width="135.68" height="0.12" style="fill:#feff64"/><rect x="57.79" y="120.01" width="135.68" height="0.12" style="fill:#feff63"/><rect x="57.79" y="119.89" width="135.68" height="0.12" style="fill:#feff62"/><rect x="57.79" y="119.77" width="135.68" height="0.12" style="fill:#feff61"/><rect x="57.79" y="119.65" width="135.68" height="0.12" style="fill:#feff60"/><rect x="57.79" y="119.53" width="135.68" height="0.12" style="fill:#feff5f"/><rect x="57.79" y="119.41" width="135.68" height="0.12" style="fill:#feff5e"/><rect x="57.79" y="119.29" width="135.68" height="0.12" style="fill:#feff5d"/><rect x="57.79" y="119.17" width="135.68" height="0.12" style="fill:#feff5c"/><rect x="57.79" y="119.05" width="135.68" height="0.12" style="fill:#feff5b"/><rect x="57.79" y="118.93" width="135.68" height="0.12" style="fill:#feff5a"/><rect x="57.79" y="118.81" width="135.68" height="0.12" style="fill:#feff59"/><rect x="57.79" y="118.69" width="135.68" height="0.12" style="fill:#feff58"/><rect x="57.79" y="118.57" width="135.68" height="0.12" style="fill:#feff57"/><rect x="57.79" y="118.45" width="135.68" height="0.12" style="fill:#feff56"/><rect x="57.79" y="118.33" width="135.68" height="0.12" style="fill:#feff55"/><rect x="57.79" y="118.21" width="135.68" height="0.12" style="fill:#feff54"/><rect x="57.79" y="118.09" width="135.68" height="0.12" style="fill:#feff53"/><rect x="57.79" y="117.98" width="135.68" height="0.12" style="fill:#feff52"/><rect x="57.79" y="117.86" width="135.68" height="0.12" style="fill:#feff51"/><rect x="57.79" y="117.74" width="135.68" height="0.12" style="fill:#feff50"/><rect x="57.79" y="117.62" width="135.68" height="0.12" style="fill:#feff4f"/><rect x="57.79" y="117.5" width="135.68" height="0.12" style="fill:#feff4e"/><rect x="57.79" y="117.38" width="135.68" height="0.12" style="fill:#feff4d"/><rect x="57.79" y="117.26" width="135.68" height="0.12" style="fill:#feff4c"/><rect x="57.79" y="117.14" width="135.68" height="0.12" style="fill:#feff4b"/><rect x="57.79" y="117.02" width="135.68" height="0.12" style="fill:#feff4a"/><rect x="57.79" y="116.9" width="135.68" height="0.12" style="fill:#feff49"/><rect x="57.79" y="116.78" width="135.68" height="0.12" style="fill:#feff48"/><rect x="57.79" y="116.66" width="135.68" height="0.12" style="fill:#feff47"/><rect x="57.79" y="116.54" width="135.68" height="0.12" style="fill:#feff46"/><rect x="57.79" y="116.42" width="135.68" height="0.12" style="fill:#feff45"/><rect x="57.79" y="116.3" width="135.68" height="0.12" style="fill:#feff44"/><rect x="57.79" y="116.18" width="135.68" height="0.12" style="fill:#feff43"/><rect x="57.79" y="116.06" width="135.68" height="0.12" style="fill:#feff42"/><rect x="57.79" y="115.95" width="135.68" height="0.12" style="fill:#feff41"/><rect x="57.79" y="115.83" width="135.68" height="0.12" style="fill:#feff40"/><rect x="57.79" y="115.71" width="135.68" height="0.12" style="fill:#feff3f"/><rect x="57.79" y="115.59" width="135.68" height="0.12" style="fill:#feff3e"/><rect x="57.79" y="115.47" width="135.68" height="0.12" style="fill:#feff3d"/><rect x="57.79" y="115.35" width="135.68" height="0.12" style="fill:#feff3c"/><rect x="57.79" y="115.23" width="135.68" height="0.12" style="fill:#feff3b"/><rect x="57.79" y="115.11" width="135.68" height="0.12" style="fill:#feff3a"/><rect x="57.79" y="114.99" width="135.68" height="0.12" style="fill:#feff39"/><rect x="57.79" y="114.87" width="135.68" height="0.12" style="fill:#feff38"/><rect x="57.79" y="114.75" width="135.68" height="0.12" style="fill:#feff37"/><rect x="57.79" y="114.63" width="135.68" height="0.12" style="fill:#feff36"/><rect x="57.79" y="114.51" width="135.68" height="0.12" style="fill:#feff35"/><rect x="57.79" y="114.39" width="135.68" height="0.12" style="fill:#feff34"/><rect x="57.79" y="114.27" width="135.68" height="0.12" style="fill:#feff33"/><rect x="57.79" y="114.15" width="135.68" height="0.12" style="fill:#feff32"/><rect x="57.79" y="114.03" width="135.68" height="0.12" style="fill:#feff31"/><rect x="57.79" y="113.91" width="135.68" height="0.12" style="fill:#feff30"/><rect x="57.79" y="113.8" width="135.68" height="0.12" style="fill:#feff2f"/><rect x="57.79" y="113.68" width="135.68" height="0.12" style="fill:#feff2e"/><rect x="57.79" y="113.56" width="135.68" height="0.12" style="fill:#feff2d"/><rect x="57.79" y="113.44" width="135.68" height="0.12" style="fill:#feff2c"/><rect x="57.79" y="113.32" width="135.68" height="0.12" style="fill:#feff2b"/><rect x="57.79" y="113.2" width="135.68" height="0.12" style="fill:#feff2a"/><rect x="57.79" y="109.38" width="135.68" height="3.82" style="fill:#feff2a"/></g><path d="M184.66,144.6l-1.19-.74c-3.25-2-15-4.78-15.14-4.8-25.16-5.62-51.75-4-69.63-1.62A246.13,246.13,0,0,0,65.6,144l-1.08.32-8-36H194.86ZM59.11,110.43l7,31.22a258,258,0,0,1,32.33-6.31,248.5,248.5,0,0,1,33.34-2.22,174.05,174.05,0,0,1,37,3.87c.46.11,10.11,2.36,14.57,4.43l8.72-31Z"/><g style="clip-path:url(#cc)"><rect x="68.98" y="119.03" width="10.3" height="10.3" style="fill:#fff655"/><circle cx="74.13" cy="124.18" r="4.34" style="fill:#fff655"/><circle cx="74.13" cy="124.18" r="4.31" style="fill:#fff656"/><circle cx="74.13" cy="124.18" r="4.29" style="fill:#fff657"/><circle cx="74.13" cy="124.18" r="4.27" style="fill:#fff658"/><circle cx="74.13" cy="124.18" r="4.24" style="fill:#fff659"/><circle cx="74.13" cy="124.18" r="4.22" style="fill:#fff65a"/><circle cx="74.13" cy="124.18" r="4.2" style="fill:#fff65b"/><circle cx="74.13" cy="124.18" r="4.18" style="fill:#fff65c"/><circle cx="74.13" cy="124.18" r="4.15" style="fill:#fff65d"/><circle cx="74.13" cy="124.18" r="4.13" style="fill:#fff65e"/><circle cx="74.13" cy="124.18" r="4.11" style="fill:#fff75f"/><circle cx="74.13" cy="124.18" r="4.08" style="fill:#fff760"/><circle cx="74.13" cy="124.18" r="4.06" style="fill:#fff761"/><circle cx="74.13" cy="124.18" r="4.04" style="fill:#fff762"/><circle cx="74.13" cy="124.18" r="4.01" style="fill:#fff763"/><circle cx="74.13" cy="124.18" r="3.99" style="fill:#fff764"/><circle cx="74.13" cy="124.18" r="3.97" style="fill:#fff765"/><circle cx="74.13" cy="124.18" r="3.95" style="fill:#fff766"/><circle cx="74.13" cy="124.18" r="3.92" style="fill:#fff767"/><circle cx="74.13" cy="124.18" r="3.9" style="fill:#fff768"/><circle cx="74.13" cy="124.18" r="3.88" style="fill:#fff769"/><circle cx="74.13" cy="124.18" r="3.85" style="fill:#fff76a"/><circle cx="74.13" cy="124.18" r="3.83" style="fill:#fff76b"/><circle cx="74.13" cy="124.18" r="3.81" style="fill:#fff76c"/><circle cx="74.13" cy="124.18" r="3.79" style="fill:#fff76d"/><circle cx="74.13" cy="124.18" r="3.76" style="fill:#fff76e"/><circle cx="74.13" cy="124.18" r="3.74" style="fill:#fff76f"/><circle cx="74.13" cy="124.18" r="3.72" style="fill:#fff770"/><circle cx="74.13" cy="124.18" r="3.69" style="fill:#fff771"/><circle cx="74.13" cy="124.18" r="3.67" style="fill:#fff872"/><circle cx="74.13" cy="124.18" r="3.65" style="fill:#fff873"/><circle cx="74.13" cy="124.18" r="3.62" style="fill:#fff874"/><circle cx="74.13" cy="124.18" r="3.6" style="fill:#fff875"/><circle cx="74.13" cy="124.18" r="3.58" style="fill:#fff876"/><circle cx="74.13" cy="124.18" r="3.56" style="fill:#fff877"/><circle cx="74.13" cy="124.18" r="3.53" style="fill:#fff878"/><circle cx="74.13" cy="124.18" r="3.51" style="fill:#fff879"/><circle cx="74.13" cy="124.18" r="3.49" style="fill:#fff87a"/><circle cx="74.13" cy="124.18" r="3.46" style="fill:#fff87b"/><circle cx="74.13" cy="124.18" r="3.44" style="fill:#fff87c"/><circle cx="74.13" cy="124.18" r="3.42" style="fill:#fff87d"/><circle cx="74.13" cy="124.18" r="3.39" style="fill:#fff87e"/><circle cx="74.13" cy="124.18" r="3.37" style="fill:#fff87f"/><circle cx="74.13" cy="124.18" r="3.35" style="fill:#fff880"/><circle cx="74.13" cy="124.18" r="3.33" style="fill:#fff881"/><circle cx="74.13" cy="124.18" r="3.3" style="fill:#fff882"/><circle cx="74.13" cy="124.18" r="3.28" style="fill:#fff883"/><circle cx="74.13" cy="124.18" r="3.26" style="fill:#fff984"/><circle cx="74.13" cy="124.18" r="3.23" style="fill:#fff985"/><circle cx="74.13" cy="124.18" r="3.21" style="fill:#fff986"/><circle cx="74.13" cy="124.18" r="3.19" style="fill:#fff987"/><circle cx="74.13" cy="124.18" r="3.17" style="fill:#fff988"/><circle cx="74.13" cy="124.18" r="3.14" style="fill:#fff989"/><circle cx="74.13" cy="124.18" r="3.12" style="fill:#fff98a"/><circle cx="74.13" cy="124.18" r="3.1" style="fill:#fff98b"/><circle cx="74.13" cy="124.18" r="3.07" style="fill:#fff98c"/><circle cx="74.13" cy="124.18" r="3.05" style="fill:#fff98d"/><circle cx="74.13" cy="124.18" r="3.03" style="fill:#fff98e"/><circle cx="74.13" cy="124.18" r="3" style="fill:#fff98f"/><circle cx="74.13" cy="124.18" r="2.98" style="fill:#fff990"/><circle cx="74.13" cy="124.18" r="2.96" style="fill:#fff991"/><circle cx="74.13" cy="124.18" r="2.94" style="fill:#fff992"/><circle cx="74.13" cy="124.18" r="2.91" style="fill:#fff993"/><circle cx="74.13" cy="124.18" r="2.89" style="fill:#fff994"/><circle cx="74.13" cy="124.18" r="2.87" style="fill:#fff995"/><circle cx="74.13" cy="124.18" r="2.84" style="fill:#fff996"/><circle cx="74.13" cy="124.18" r="2.82" style="fill:#fffa97"/><circle cx="74.13" cy="124.18" r="2.8" style="fill:#fffa98"/><circle cx="74.13" cy="124.18" r="2.78" style="fill:#fffa99"/><circle cx="74.13" cy="124.18" r="2.75" style="fill:#fffa9a"/><circle cx="74.13" cy="124.18" r="2.73" style="fill:#fffa9b"/><circle cx="74.13" cy="124.18" r="2.71" style="fill:#fffa9c"/><circle cx="74.13" cy="124.18" r="2.68" style="fill:#fffa9d"/><circle cx="74.13" cy="124.18" r="2.66" style="fill:#fffa9e"/><circle cx="74.13" cy="124.18" r="2.64" style="fill:#fffa9f"/><circle cx="74.13" cy="124.18" r="2.61" style="fill:#fffaa0"/><circle cx="74.13" cy="124.18" r="2.59" style="fill:#fffaa1"/><circle cx="74.13" cy="124.18" r="2.57" style="fill:#fffaa2"/><circle cx="74.13" cy="124.18" r="2.55" style="fill:#fffaa3"/><circle cx="74.13" cy="124.18" r="2.52" style="fill:#fffaa4"/><circle cx="74.13" cy="124.18" r="2.5" style="fill:#fffaa5"/><circle cx="74.13" cy="124.18" r="2.48" style="fill:#fffaa6"/><circle cx="74.13" cy="124.18" r="2.45" style="fill:#fffaa7"/><circle cx="74.13" cy="124.18" r="2.43" style="fill:#fffaa8"/><circle cx="74.13" cy="124.18" r="2.41" style="fill:#fffaa9"/><circle cx="74.13" cy="124.18" r="2.38" style="fill:#fffbab"/><circle cx="74.13" cy="124.18" r="2.36" style="fill:#fffbac"/><circle cx="74.13" cy="124.18" r="2.34" style="fill:#fffbad"/><circle cx="74.13" cy="124.18" r="2.32" style="fill:#fffbae"/><circle cx="74.13" cy="124.18" r="2.29" style="fill:#fffbaf"/><circle cx="74.13" cy="124.18" r="2.27" style="fill:#fffbb0"/><circle cx="74.13" cy="124.18" r="2.25" style="fill:#fffbb1"/><circle cx="74.13" cy="124.18" r="2.22" style="fill:#fffbb2"/><circle cx="74.13" cy="124.18" r="2.2" style="fill:#fffbb3"/><circle cx="74.13" cy="124.18" r="2.18" style="fill:#fffbb4"/><circle cx="74.13" cy="124.18" r="2.16" style="fill:#fffbb5"/><circle cx="74.13" cy="124.18" r="2.13" style="fill:#fffbb6"/><circle cx="74.13" cy="124.18" r="2.11" style="fill:#fffbb7"/><circle cx="74.13" cy="124.18" r="2.09" style="fill:#fffbb8"/><circle cx="74.13" cy="124.18" r="2.06" style="fill:#fffbb9"/><circle cx="74.13" cy="124.18" r="2.04" style="fill:#fffbba"/><circle cx="74.13" cy="124.18" r="2.02" style="fill:#fffbbb"/><circle cx="74.13" cy="124.18" r="1.99" style="fill:#fffbbc"/><circle cx="74.13" cy="124.18" r="1.97" style="fill:#fffbbd"/><circle cx="74.13" cy="124.18" r="1.95" style="fill:#fffcbe"/><circle cx="74.13" cy="124.18" r="1.93" style="fill:#fffcbf"/><circle cx="74.13" cy="124.18" r="1.9" style="fill:#fffcc0"/><circle cx="74.13" cy="124.18" r="1.88" style="fill:#fffcc1"/><circle cx="74.13" cy="124.18" r="1.86" style="fill:#fffcc2"/><circle cx="74.13" cy="124.18" r="1.83" style="fill:#fffcc3"/><circle cx="74.13" cy="124.18" r="1.81" style="fill:#fffcc4"/><circle cx="74.13" cy="124.18" r="1.79" style="fill:#fffcc5"/><circle cx="74.13" cy="124.18" r="1.77" style="fill:#fffcc6"/><circle cx="74.13" cy="124.18" r="1.74" style="fill:#fffcc7"/><circle cx="74.13" cy="124.18" r="1.72" style="fill:#fffcc8"/><circle cx="74.13" cy="124.18" r="1.7" style="fill:#fffcc9"/><circle cx="74.13" cy="124.18" r="1.67" style="fill:#fffcca"/><circle cx="74.13" cy="124.18" r="1.65" style="fill:#fffccb"/><circle cx="74.13" cy="124.18" r="1.63" style="fill:#fffccc"/><circle cx="74.13" cy="124.18" r="1.6" style="fill:#fffccd"/><circle cx="74.13" cy="124.18" r="1.58" style="fill:#fffcce"/><circle cx="74.13" cy="124.18" r="1.56" style="fill:#fffccf"/><circle cx="74.13" cy="124.18" r="1.54" style="fill:#fffcd0"/><circle cx="74.13" cy="124.18" r="1.51" style="fill:#fffdd1"/><circle cx="74.13" cy="124.18" r="1.49" style="fill:#fffdd2"/><circle cx="74.13" cy="124.18" r="1.47" style="fill:#fffdd3"/><circle cx="74.13" cy="124.18" r="1.44" style="fill:#fffdd4"/><circle cx="74.13" cy="124.18" r="1.42" style="fill:#fffdd5"/><circle cx="74.13" cy="124.18" r="1.4" style="fill:#fffdd6"/><circle cx="74.13" cy="124.18" r="1.37" style="fill:#fffdd7"/><circle cx="74.13" cy="124.18" r="1.35" style="fill:#fffdd8"/><circle cx="74.13" cy="124.18" r="1.33" style="fill:#fffdd9"/><circle cx="74.13" cy="124.18" r="1.31" style="fill:#fffdda"/><circle cx="74.13" cy="124.18" r="1.28" style="fill:#fffddb"/><circle cx="74.13" cy="124.18" r="1.26" style="fill:#fffddc"/><circle cx="74.13" cy="124.18" r="1.24" style="fill:#fffddd"/><circle cx="74.13" cy="124.18" r="1.21" style="fill:#fffdde"/><circle cx="74.13" cy="124.18" r="1.19" style="fill:#fffddf"/><circle cx="74.13" cy="124.18" r="1.17" style="fill:#fffde0"/><circle cx="74.13" cy="124.18" r="1.15" style="fill:#fffde1"/><circle cx="74.13" cy="124.18" r="1.12" style="fill:#fffde2"/><circle cx="74.13" cy="124.18" r="1.1" style="fill:#fffee3"/><circle cx="74.13" cy="124.18" r="1.08" style="fill:#fffee4"/><circle cx="74.13" cy="124.18" r="1.05" style="fill:#fffee5"/><circle cx="74.13" cy="124.18" r="1.03" style="fill:#fffee6"/><circle cx="74.13" cy="124.18" r="1.01" style="fill:#fffee7"/><circle cx="74.13" cy="124.18" r="0.98" style="fill:#fffee8"/><circle cx="74.13" cy="124.18" r="0.96" style="fill:#fffee9"/><circle cx="74.13" cy="124.18" r="0.94" style="fill:#fffeea"/><circle cx="74.13" cy="124.18" r="0.92" style="fill:#fffeeb"/><circle cx="74.13" cy="124.18" r="0.89" style="fill:#fffeec"/><circle cx="74.13" cy="124.18" r="0.87" style="fill:#fffeed"/><circle cx="74.13" cy="124.18" r="0.85" style="fill:#fffeee"/><circle cx="74.13" cy="124.18" r="0.82" style="fill:#fffeef"/><circle cx="74.13" cy="124.18" r="0.8" style="fill:#fffef0"/><circle cx="74.13" cy="124.18" r="0.78" style="fill:#fffef1"/><circle cx="74.13" cy="124.18" r="0.75" style="fill:#fffef2"/><circle cx="74.13" cy="124.18" r="0.73" style="fill:#fffef3"/><circle cx="74.13" cy="124.18" r="0.71" style="fill:#fffef4"/><circle cx="74.13" cy="124.18" r="0.69" style="fill:#fffef5"/><circle cx="74.13" cy="124.18" r="0.66" style="fill:#fffff6"/><circle cx="74.13" cy="124.18" r="0.64" style="fill:#fffff7"/><circle cx="74.13" cy="124.18" r="0.62" style="fill:#fffff8"/><circle cx="74.13" cy="124.18" r="0.59" style="fill:#fffff9"/><circle cx="74.13" cy="124.18" r="0.57" style="fill:#fffffa"/><circle cx="74.13" cy="124.18" r="0.55" style="fill:#fffffb"/><circle cx="74.13" cy="124.18" r="0.53" style="fill:#fffffc"/><circle cx="74.13" cy="124.18" r="0.5" style="fill:#fffffd"/><circle cx="74.13" cy="124.18" r="0.48" style="fill:#fffffe"/><circle cx="74.13" cy="124.18" r="0.46" style="fill:#fff"/></g><path d="M74.13,129.47a5.29,5.29,0,1,1,5.29-5.29A5.3,5.3,0,0,1,74.13,129.47Zm0-10.3a5,5,0,1,0,5,5A5,5,0,0,0,74.13,119.17Z"/><g style="clip-path:url(#cd)"><rect x="175.31" y="119.03" width="10.3" height="10.3" style="fill:#fff655"/><circle cx="180.46" cy="124.18" r="4.34" style="fill:#fff655"/><circle cx="180.46" cy="124.18" r="4.31" style="fill:#fff656"/><circle cx="180.46" cy="124.18" r="4.29" style="fill:#fff657"/><circle cx="180.46" cy="124.18" r="4.27" style="fill:#fff658"/><circle cx="180.46" cy="124.18" r="4.24" style="fill:#fff659"/><circle cx="180.46" cy="124.18" r="4.22" style="fill:#fff65a"/><circle cx="180.46" cy="124.18" r="4.2" style="fill:#fff65b"/><circle cx="180.46" cy="124.18" r="4.18" style="fill:#fff65c"/><circle cx="180.46" cy="124.18" r="4.15" style="fill:#fff65d"/><circle cx="180.46" cy="124.18" r="4.13" style="fill:#fff65e"/><circle cx="180.46" cy="124.18" r="4.11" style="fill:#fff75f"/><circle cx="180.46" cy="124.18" r="4.08" style="fill:#fff760"/><circle cx="180.46" cy="124.18" r="4.06" style="fill:#fff761"/><circle cx="180.46" cy="124.18" r="4.04" style="fill:#fff762"/><circle cx="180.46" cy="124.18" r="4.01" style="fill:#fff763"/><circle cx="180.46" cy="124.18" r="3.99" style="fill:#fff764"/><circle cx="180.46" cy="124.18" r="3.97" style="fill:#fff765"/><circle cx="180.46" cy="124.18" r="3.95" style="fill:#fff766"/><circle cx="180.46" cy="124.18" r="3.92" style="fill:#fff767"/><circle cx="180.46" cy="124.18" r="3.9" style="fill:#fff768"/><circle cx="180.46" cy="124.18" r="3.88" style="fill:#fff769"/><circle cx="180.46" cy="124.18" r="3.85" style="fill:#fff76a"/><circle cx="180.46" cy="124.18" r="3.83" style="fill:#fff76b"/><circle cx="180.46" cy="124.18" r="3.81" style="fill:#fff76c"/><circle cx="180.46" cy="124.18" r="3.79" style="fill:#fff76d"/><circle cx="180.46" cy="124.18" r="3.76" style="fill:#fff76e"/><circle cx="180.46" cy="124.18" r="3.74" style="fill:#fff76f"/><circle cx="180.46" cy="124.18" r="3.72" style="fill:#fff770"/><circle cx="180.46" cy="124.18" r="3.69" style="fill:#fff771"/><circle cx="180.46" cy="124.18" r="3.67" style="fill:#fff872"/><circle cx="180.46" cy="124.18" r="3.65" style="fill:#fff873"/><circle cx="180.46" cy="124.18" r="3.62" style="fill:#fff874"/><circle cx="180.46" cy="124.18" r="3.6" style="fill:#fff875"/><circle cx="180.46" cy="124.18" r="3.58" style="fill:#fff876"/><circle cx="180.46" cy="124.18" r="3.56" style="fill:#fff877"/><circle cx="180.46" cy="124.18" r="3.53" style="fill:#fff878"/><circle cx="180.46" cy="124.18" r="3.51" style="fill:#fff879"/><circle cx="180.46" cy="124.18" r="3.49" style="fill:#fff87a"/><circle cx="180.46" cy="124.18" r="3.46" style="fill:#fff87b"/><circle cx="180.46" cy="124.18" r="3.44" style="fill:#fff87c"/><circle cx="180.46" cy="124.18" r="3.42" style="fill:#fff87d"/><circle cx="180.46" cy="124.18" r="3.39" style="fill:#fff87e"/><circle cx="180.46" cy="124.18" r="3.37" style="fill:#fff87f"/><circle cx="180.46" cy="124.18" r="3.35" style="fill:#fff880"/><circle cx="180.46" cy="124.18" r="3.33" style="fill:#fff881"/><circle cx="180.46" cy="124.18" r="3.3" style="fill:#fff882"/><circle cx="180.46" cy="124.18" r="3.28" style="fill:#fff883"/><circle cx="180.46" cy="124.18" r="3.26" style="fill:#fff984"/><circle cx="180.46" cy="124.18" r="3.23" style="fill:#fff985"/><circle cx="180.46" cy="124.18" r="3.21" style="fill:#fff986"/><circle cx="180.46" cy="124.18" r="3.19" style="fill:#fff987"/><circle cx="180.46" cy="124.18" r="3.17" style="fill:#fff988"/><circle cx="180.46" cy="124.18" r="3.14" style="fill:#fff989"/><circle cx="180.46" cy="124.18" r="3.12" style="fill:#fff98a"/><circle cx="180.46" cy="124.18" r="3.1" style="fill:#fff98b"/><circle cx="180.46" cy="124.18" r="3.07" style="fill:#fff98c"/><circle cx="180.46" cy="124.18" r="3.05" style="fill:#fff98d"/><circle cx="180.46" cy="124.18" r="3.03" style="fill:#fff98e"/><circle cx="180.46" cy="124.18" r="3" style="fill:#fff98f"/><circle cx="180.46" cy="124.18" r="2.98" style="fill:#fff990"/><circle cx="180.46" cy="124.18" r="2.96" style="fill:#fff991"/><circle cx="180.46" cy="124.18" r="2.94" style="fill:#fff992"/><circle cx="180.46" cy="124.18" r="2.91" style="fill:#fff993"/><circle cx="180.46" cy="124.18" r="2.89" style="fill:#fff994"/><circle cx="180.46" cy="124.18" r="2.87" style="fill:#fff995"/><circle cx="180.46" cy="124.18" r="2.84" style="fill:#fff996"/><circle cx="180.46" cy="124.18" r="2.82" style="fill:#fffa97"/><circle cx="180.46" cy="124.18" r="2.8" style="fill:#fffa98"/><circle cx="180.46" cy="124.18" r="2.78" style="fill:#fffa99"/><circle cx="180.46" cy="124.18" r="2.75" style="fill:#fffa9a"/><circle cx="180.46" cy="124.18" r="2.73" style="fill:#fffa9b"/><circle cx="180.46" cy="124.18" r="2.71" style="fill:#fffa9c"/><circle cx="180.46" cy="124.18" r="2.68" style="fill:#fffa9d"/><circle cx="180.46" cy="124.18" r="2.66" style="fill:#fffa9e"/><circle cx="180.46" cy="124.18" r="2.64" style="fill:#fffa9f"/><circle cx="180.46" cy="124.18" r="2.61" style="fill:#fffaa0"/><circle cx="180.46" cy="124.18" r="2.59" style="fill:#fffaa1"/><circle cx="180.46" cy="124.18" r="2.57" style="fill:#fffaa2"/><circle cx="180.46" cy="124.18" r="2.55" style="fill:#fffaa3"/><circle cx="180.46" cy="124.18" r="2.52" style="fill:#fffaa4"/><circle cx="180.46" cy="124.18" r="2.5" style="fill:#fffaa5"/><circle cx="180.46" cy="124.18" r="2.48" style="fill:#fffaa6"/><circle cx="180.46" cy="124.18" r="2.45" style="fill:#fffaa7"/><circle cx="180.46" cy="124.18" r="2.43" style="fill:#fffaa8"/><circle cx="180.46" cy="124.18" r="2.41" style="fill:#fffaa9"/><circle cx="180.46" cy="124.18" r="2.38" style="fill:#fffbab"/><circle cx="180.46" cy="124.18" r="2.36" style="fill:#fffbac"/><circle cx="180.46" cy="124.18" r="2.34" style="fill:#fffbad"/><circle cx="180.46" cy="124.18" r="2.32" style="fill:#fffbae"/><circle cx="180.46" cy="124.18" r="2.29" style="fill:#fffbaf"/><circle cx="180.46" cy="124.18" r="2.27" style="fill:#fffbb0"/><circle cx="180.46" cy="124.18" r="2.25" style="fill:#fffbb1"/><circle cx="180.46" cy="124.18" r="2.22" style="fill:#fffbb2"/><circle cx="180.46" cy="124.18" r="2.2" style="fill:#fffbb3"/><circle cx="180.46" cy="124.18" r="2.18" style="fill:#fffbb4"/><circle cx="180.46" cy="124.18" r="2.16" style="fill:#fffbb5"/><circle cx="180.46" cy="124.18" r="2.13" style="fill:#fffbb6"/><circle cx="180.46" cy="124.18" r="2.11" style="fill:#fffbb7"/><circle cx="180.46" cy="124.18" r="2.09" style="fill:#fffbb8"/><circle cx="180.46" cy="124.18" r="2.06" style="fill:#fffbb9"/><circle cx="180.46" cy="124.18" r="2.04" style="fill:#fffbba"/><circle cx="180.46" cy="124.18" r="2.02" style="fill:#fffbbb"/><circle cx="180.46" cy="124.18" r="1.99" style="fill:#fffbbc"/><circle cx="180.46" cy="124.18" r="1.97" style="fill:#fffbbd"/><circle cx="180.46" cy="124.18" r="1.95" style="fill:#fffcbe"/><circle cx="180.46" cy="124.18" r="1.93" style="fill:#fffcbf"/><circle cx="180.46" cy="124.18" r="1.9" style="fill:#fffcc0"/><circle cx="180.46" cy="124.18" r="1.88" style="fill:#fffcc1"/><circle cx="180.46" cy="124.18" r="1.86" style="fill:#fffcc2"/><circle cx="180.46" cy="124.18" r="1.83" style="fill:#fffcc3"/><circle cx="180.46" cy="124.18" r="1.81" style="fill:#fffcc4"/><circle cx="180.46" cy="124.18" r="1.79" style="fill:#fffcc5"/><circle cx="180.46" cy="124.18" r="1.77" style="fill:#fffcc6"/><circle cx="180.46" cy="124.18" r="1.74" style="fill:#fffcc7"/><circle cx="180.46" cy="124.18" r="1.72" style="fill:#fffcc8"/><circle cx="180.46" cy="124.18" r="1.7" style="fill:#fffcc9"/><circle cx="180.46" cy="124.18" r="1.67" style="fill:#fffcca"/><circle cx="180.46" cy="124.18" r="1.65" style="fill:#fffccb"/><circle cx="180.46" cy="124.18" r="1.63" style="fill:#fffccc"/><circle cx="180.46" cy="124.18" r="1.6" style="fill:#fffccd"/><circle cx="180.46" cy="124.18" r="1.58" style="fill:#fffcce"/><circle cx="180.46" cy="124.18" r="1.56" style="fill:#fffccf"/><circle cx="180.46" cy="124.18" r="1.54" style="fill:#fffcd0"/><circle cx="180.46" cy="124.18" r="1.51" style="fill:#fffdd1"/><circle cx="180.46" cy="124.18" r="1.49" style="fill:#fffdd2"/><circle cx="180.46" cy="124.18" r="1.47" style="fill:#fffdd3"/><circle cx="180.46" cy="124.18" r="1.44" style="fill:#fffdd4"/><circle cx="180.46" cy="124.18" r="1.42" style="fill:#fffdd5"/><circle cx="180.46" cy="124.18" r="1.4" style="fill:#fffdd6"/><circle cx="180.46" cy="124.18" r="1.37" style="fill:#fffdd7"/><circle cx="180.46" cy="124.18" r="1.35" style="fill:#fffdd8"/><circle cx="180.46" cy="124.18" r="1.33" style="fill:#fffdd9"/><circle cx="180.46" cy="124.18" r="1.31" style="fill:#fffdda"/><circle cx="180.46" cy="124.18" r="1.28" style="fill:#fffddb"/><circle cx="180.46" cy="124.18" r="1.26" style="fill:#fffddc"/><circle cx="180.46" cy="124.18" r="1.24" style="fill:#fffddd"/><circle cx="180.46" cy="124.18" r="1.21" style="fill:#fffdde"/><circle cx="180.46" cy="124.18" r="1.19" style="fill:#fffddf"/><circle cx="180.46" cy="124.18" r="1.17" style="fill:#fffde0"/><circle cx="180.46" cy="124.18" r="1.15" style="fill:#fffde1"/><circle cx="180.46" cy="124.18" r="1.12" style="fill:#fffde2"/><circle cx="180.46" cy="124.18" r="1.1" style="fill:#fffee3"/><circle cx="180.46" cy="124.18" r="1.08" style="fill:#fffee4"/><circle cx="180.46" cy="124.18" r="1.05" style="fill:#fffee5"/><circle cx="180.46" cy="124.18" r="1.03" style="fill:#fffee6"/><circle cx="180.46" cy="124.18" r="1.01" style="fill:#fffee7"/><circle cx="180.46" cy="124.18" r="0.98" style="fill:#fffee8"/><circle cx="180.46" cy="124.18" r="0.96" style="fill:#fffee9"/><circle cx="180.46" cy="124.18" r="0.94" style="fill:#fffeea"/><circle cx="180.46" cy="124.18" r="0.92" style="fill:#fffeeb"/><circle cx="180.46" cy="124.18" r="0.89" style="fill:#fffeec"/><circle cx="180.46" cy="124.18" r="0.87" style="fill:#fffeed"/><circle cx="180.46" cy="124.18" r="0.85" style="fill:#fffeee"/><circle cx="180.46" cy="124.18" r="0.82" style="fill:#fffeef"/><circle cx="180.46" cy="124.18" r="0.8" style="fill:#fffef0"/><circle cx="180.46" cy="124.18" r="0.78" style="fill:#fffef1"/><circle cx="180.46" cy="124.18" r="0.75" style="fill:#fffef2"/><circle cx="180.46" cy="124.18" r="0.73" style="fill:#fffef3"/><circle cx="180.46" cy="124.18" r="0.71" style="fill:#fffef4"/><circle cx="180.46" cy="124.18" r="0.69" style="fill:#fffef5"/><circle cx="180.46" cy="124.18" r="0.66" style="fill:#fffff6"/><circle cx="180.46" cy="124.18" r="0.64" style="fill:#fffff7"/><circle cx="180.46" cy="124.18" r="0.62" style="fill:#fffff8"/><circle cx="180.46" cy="124.18" r="0.59" style="fill:#fffff9"/><circle cx="180.46" cy="124.18" r="0.57" style="fill:#fffffa"/><circle cx="180.46" cy="124.18" r="0.55" style="fill:#fffffb"/><circle cx="180.46" cy="124.18" r="0.53" style="fill:#fffffc"/><circle cx="180.46" cy="124.18" r="0.5" style="fill:#fffffd"/><circle cx="180.46" cy="124.18" r="0.48" style="fill:#fffffe"/><circle cx="180.46" cy="124.18" r="0.46" style="fill:#fff"/></g><path d="M180.46,129.47a5.29,5.29,0,1,1,5.29-5.29A5.3,5.3,0,0,1,180.46,129.47Zm0-10.3a5,5,0,1,0,5,5A5,5,0,0,0,180.46,119.17Z"/><path d="M86.6,94.6c1.9,0,3.81.07,5.71,0,4.51-.19,7.77,1.95,10.31,5.44a32.1,32.1,0,0,1,4.69,9.41,43.61,43.61,0,0,1,1.7,8.2,53,53,0,0,1,.36,5.61,56.48,56.48,0,0,1-.68,9.8,28.7,28.7,0,0,1-2.74,8.39,13.55,13.55,0,0,1-6.11,6.4,6.9,6.9,0,0,1-2.9.8c-2.49,0-5,.34-7.46.35-3.16,0-6.31.17-9.47.3-.72,0-1-.21-.89-.92a4.82,4.82,0,0,0,0-1,.61.61,0,0,1,.39-.65,2.44,2.44,0,0,0,1.37-2.49q0-5.93-.08-11.85c0-3.46,0-6.92-.09-10.37-.16-6.32,0-12.65-.14-19a9.91,9.91,0,0,0-.68-4.35,2.13,2.13,0,0,0-1-1.18c-.49-.19-.57-.53-.57-1,0-1.94,0-1.94,1.89-1.95H86.6Zm3.12,35.33c-.23-.23-.1-.51-.11-.77,0-1.33,0-2.65,0-4h0v14.43h.17v-7.13c.14.15.08.33.08.49q0,2.93,0,5.85a7.45,7.45,0,0,0,.29,2.27,2.51,2.51,0,0,0,1.25,1.65,3.41,3.41,0,0,0,3.63-.41c2.12-1.46,3.09-3.73,3.82-6a24.39,24.39,0,0,0,1.17-7.63c0-2.62,0-5.24-.05-7.85a30.5,30.5,0,0,0-.42-4.93,50.43,50.43,0,0,0-4.23-13.16c-.63-1.25-2.35-2.47-3.83-1.9a3,3,0,0,0-1.91,3c0,3.87,0,7.75.08,11.62C89.81,120.24,89.71,125.09,89.72,129.93ZM81,145.35V120.7Q81,133,81,145.35Zm11.86,3.09v.07H96.4v-.07Z" style="fill:#010101"/><path d="M158.3,125.09q0,1.8,0,3.6h.18c0-.9,0-1.8,0-2.69,0-.49.16-.7.64-.71s.26.36.29.58a30.74,30.74,0,0,0,1.46,6.18,5.77,5.77,0,0,0,1.69,2.63,3.48,3.48,0,0,0,3.67.45,3.12,3.12,0,0,0,2-2.67,7.15,7.15,0,0,0-.13-2.7,4,4,0,0,0-1.45-2.4c-1.08-.81-2.1-1.7-3.15-2.56,0-.16.1-.31-.08-.45-1.13-.91-2.16-1.94-3.23-2.91-.41-.37-.11.19-.25.22a5,5,0,0,1-1.26-3.2,22.05,22.05,0,0,1,.16-8.18c.53-2.15,1.4-4.17,3.49-5.44a6.52,6.52,0,0,1,4.63-.7c.9.15,1.79.32,2.67.54a2.45,2.45,0,0,0,1.37-.07,1.39,1.39,0,0,1,.52,1.42c0,.77,0,1.54,0,2.32h.14V105a1.45,1.45,0,0,1,.1.33q.25,4.08.49,8.15c0,.45.09.9.12,1.36,0,.28.08.61-.33.69s-.59-.15-.7-.48q-.48-1.46-1-2.93a7,7,0,0,0-1.32-2.76,3.14,3.14,0,0,0-3.38-1,1.26,1.26,0,0,0-.9,1,11.14,11.14,0,0,0,.2,4.47,5.17,5.17,0,0,0,2.75,2.85,11.59,11.59,0,0,1,6,8.71,22.29,22.29,0,0,1-.6,7.66,12.16,12.16,0,0,1-1.17,3.38,7.4,7.4,0,0,1-7.6,3.58,9.63,9.63,0,0,1-3.85-1.12.81.81,0,0,0-1.08.14c-.12.13-.24.37-.46.29s-.16-.37-.18-.57c-.19-2.07-.26-4.15-.3-6.22" style="fill:#010101"/><path d="M152.43,111.82a10.84,10.84,0,0,1,.43,2.7c.27,1.73.39,3.49.56,5.23s.3,3.23.45,4.84c0,.25,0,.46-.32.48s-.47-.26-.53-.51c-.13-.59-.2-1.19-.3-1.79a6.31,6.31,0,0,0-.17-.93c-1-2.91-1.37-2.36-3.9-2.43-.4,0-.49.22-.49.56,0,4.48,0,9,0,13.44a2.17,2.17,0,0,0,1.52,2.18,2.8,2.8,0,0,0,3.26-.87,20.17,20.17,0,0,0,2.61-4.77,21.47,21.47,0,0,0,1.33-4.19c.06-.33.21-.72.63-.7s.46.47.42.79c-.13,1-.31,2.05-.47,3.08-.32,2-.65,4.05-1,6.08-.22,1.36-.42,2.72-.63,4.08,0,.3-.17.48-.53.46-3.9-.23-7.8,0-11.7-.07-.37,0-.74,0-1.11,0s-.85.18-.91-.35-.31-1.08.43-1.37a1,1,0,0,0,.63-.92,27.81,27.81,0,0,0,.08-4.28c-.15-7.53-.09-15.05-.12-22.58,0-.65,0-1.29,0-1.95a1.79,1.79,0,0,0-1-2c-.54-.24-.34-.82-.27-1.24s.49-.39.85-.39h11c.57,0,1.14,0,1.52-.53.17-.26.39-.19.46.11a4,4,0,0,1,.13.71c.21,2.84.58,5.67.92,8.5.06.5.05,1,.09,1.52,0,.26.13.56-.26.65s-.58-.14-.69-.49c-.34-1.14-.71-2.27-1-3.41a5,5,0,0,0-3.58-3.45,2,2,0,0,0-2.48,1,.68.68,0,0,0-.13.4c.17,1.79,0,3.58.06,5.37,0,.56.18.81.76.77s1.49.14,2.09-.46a3.3,3.3,0,0,0,.77-1.92c.05-.28,0-.59.21-.83.18.56-.11,1.26.5,1.7A15,15,0,0,0,152.43,111.82Zm-4.61,21.71h.07V119.63h-.07Zm7.9,3.43v1.25A1.34,1.34,0,0,0,155.72,137Z" style="fill:#010101"/><path d="M121.81,139.38h-3.48c-.28,0-.67.12-.74-.29s-.24-.92.2-1.16a2.35,2.35,0,0,0,1.23-2.07,11.24,11.24,0,0,0-2.75-8.62,4,4,0,0,0-2-1.1c-.6-.17-.93,0-1,.63-.21,1.68-.46,3.36-.67,5-.17,1.39-.32,2.79-.47,4.18a1.7,1.7,0,0,0,.9,1.86c.52.27.34.78.28,1.2s-.45.31-.73.31h-4.15c-.29,0-.67.05-.75-.31s-.23-.87.21-1.16a4.55,4.55,0,0,0,1.64-2.64,33.6,33.6,0,0,0,.73-4.53c.36-2,.56-3.94.9-5.9s.59-4.15.9-6.22c.4-2.61.79-5.22,1.25-7.81a31.45,31.45,0,0,0,.58-4.31,1,1,0,0,0-.37-1c-.48-.37-.31-1-.21-1.46s.59-.35.95-.35H120c.37,0,.84-.09,1,.31a1.24,1.24,0,0,1-.18,1.39,2.13,2.13,0,0,0-.55,2.11c.55,3.56,1.15,7.1,1.64,10.67.44,3.17,1,6.32,1.51,9.48.44,2.75.94,5.49,1.28,8.25a2.24,2.24,0,0,0,1.06,1.76c.54.36.43.87.36,1.33s-.54.32-.86.33C124.08,139.4,122.94,139.39,121.81,139.38Zm-7.65-17.83c-.05.3.09.45.34.59.47.27.91.59,1.39.84s.72,1,1.14.73-.1-.85-.14-1.31c-.23-2.5-.64-5-1-7.46-.06-.42,0-1.22-.22-1.19-.62.06-.37.79-.45,1.23C114.83,117.17,114.51,119.37,114.16,121.55ZM119.94,106a3.43,3.43,0,0,0,0,1.9A4.17,4.17,0,0,0,119.94,106Z" style="fill:#010101"/><path d="M127.79,104.44h3.11c.37,0,.83-.07,1,.35a1.26,1.26,0,0,1-.19,1.4,2.09,2.09,0,0,0-.62,2.19c.52,3.06,1,6.13,1.44,9.19.25,1.7.45,3.42.69,5.12a20.31,20.31,0,0,1,.4,2.63c0,.16-.07.41.15.44s.35-.24.36-.46a19.51,19.51,0,0,1,.29-2q.72-4.75,1.41-9.51c.29-2,.53-4,.92-6.05a1.29,1.29,0,0,0-.81-1.56c-.64-.27-.42-.83-.37-1.29s.43-.48.79-.48h4.08c.37,0,.82,0,1,.39s.27,1-.19,1.38a3.64,3.64,0,0,0-1.22,2.65c-.5,2.81-1,5.63-1.49,8.43-.71,3.83-1.37,7.67-2.08,11.49a31.29,31.29,0,0,1-.88,4.48,13.57,13.57,0,0,0-.33,2.53,5.72,5.72,0,0,1-.24,1,1.39,1.39,0,0,0,.38,1.67,1.12,1.12,0,0,1,.4,1c0,.42-.17.65-.61.65h-5.86c-.25,0-.54,0-.56-.35s-.24-.9.22-1.07c1-.37.86-1.11.76-1.85-.23-1.59-.48-3.17-.76-4.75-.38-2.09-.71-4.18-1-6.28-.35-2.26-.79-4.51-1.17-6.76-.49-2.92-.94-5.84-1.47-8.75-.18-1-.27-1.95-.5-2.9a1.56,1.56,0,0,0-.58-1,1.17,1.17,0,0,1-.51-1.06c0-.65.23-.9.85-.89,1.11,0,2.22,0,3.34,0Zm7.82,11.31v1.38A1.46,1.46,0,0,0,135.61,115.75Zm-8.87,1.84c0,.35-.19.72.17,1.19C126.92,118.25,127,117.9,126.75,117.59Z" style="fill:#010101"/><path d="M157.53,105.4c.24-1.18.47-2.37.72-3.55.5-2.36,1-4.71,1.52-7.07.17-.81.36-.92,1.11-.62,1,.42,2,.87,3.08,1.25.53.2.62.47.39,1q-2.36,5-4.71,9.95c-.19.4-.41.54-.8.3l-1.08-.65A.49.49,0,0,1,157.53,105.4Z" style="fill:#010101"/><rect x="119.2" y="105.46" width="0.9" height="2.49" style="fill:#010101"/><rect x="92.29" y="148.07" width="4.52" height="0.49" style="fill:#010101"/><polygon points="89.89 141.33 85.31 141.33 85.31 124.39 89.72 124.39 89.89 141.33" style="fill:#010101"/><rect x="126.67" y="117.38" width="0.61" height="1.5" style="fill:#010101"/><rect x="135.57" y="115.39" width="0.73" height="1.84" style="fill:#010101"/><rect x="146.96" y="119.08" width="0.96" height="16.85" style="fill:#010101"/><rect x="154.78" y="136.59" width="1.11" height="1.67" style="fill:#010101"/><path d="M151.78,113.18l.15-2.09s.5-1.14.62,1v2.77l-.77-1.53" style="fill:#010101"/><rect x="158.27" y="124.13" width="1.08" height="4.84" rx="0.51" ry="0.51" style="fill:#010101"/><path d="M159.61,121.24s3.73,3.57,5,4.43.39-2.52.39-2.52-3.83-2.75-4.19-2.8-1-.22-1,.23A1.32,1.32,0,0,1,159.61,121.24Z" style="fill:#010101"/><path d="M86.89,95.59c1.8,0,3.61.06,5.41,0,4.27-.18,7.36,1.84,9.76,5.15a30.41,30.41,0,0,1,4.44,8.92,41.31,41.31,0,0,1,1.61,7.76,50.17,50.17,0,0,1,.34,5.31,53.51,53.51,0,0,1-.65,9.29,27.18,27.18,0,0,1-2.6,8A12.84,12.84,0,0,1,99.41,146a6.54,6.54,0,0,1-2.75.76c-2.36,0-4.71.32-7.07.33-3,0-6,.16-9,.28-.69,0-.94-.19-.85-.87a4.56,4.56,0,0,0,0-.91.58.58,0,0,1,.37-.61,2.31,2.31,0,0,0,1.3-2.36q0-5.62-.08-11.23c0-3.28,0-6.55-.08-9.83-.15-6,0-12-.13-18a9.39,9.39,0,0,0-.64-4.12,2,2,0,0,0-1-1.12c-.46-.18-.54-.5-.54-.94,0-1.84,0-1.84,1.79-1.84h6.11Zm3,33.47c-.21-.22-.1-.49-.1-.73,0-1.26,0-2.51,0-3.77h0v13.67h.16v-6.75c.13.14.07.31.07.47q0,2.77,0,5.54a7.06,7.06,0,0,0,.28,2.15,2.37,2.37,0,0,0,1.18,1.57,3.23,3.23,0,0,0,3.44-.39c2-1.39,2.93-3.53,3.62-5.72a23.11,23.11,0,0,0,1.11-7.23c0-2.48,0-5-.05-7.44a28.89,28.89,0,0,0-.4-4.67,47.77,47.77,0,0,0-4-12.47c-.6-1.19-2.22-2.34-3.63-1.8a2.86,2.86,0,0,0-1.81,2.81c0,3.67,0,7.34.07,11C89.92,119.89,89.83,124.48,89.84,129.06ZM81.6,143.67V120.32Q81.6,132,81.6,143.67Zm11.24,2.93v.07h3.33v-.07Z" style="fill:#d8200c"/><path d="M158.67,125q0,1.76,0,3.53h.17c0-.88,0-1.76,0-2.64,0-.48.15-.68.6-.7s.24.36.28.57a30.91,30.91,0,0,0,1.38,6,5.67,5.67,0,0,0,1.6,2.57,3.21,3.21,0,0,0,3.48.44,3,3,0,0,0,1.93-2.61,7.22,7.22,0,0,0-.12-2.64,4,4,0,0,0-1.37-2.35c-1-.79-2-1.66-3-2.5,0-.16.09-.3-.07-.44-1.07-.89-2-1.89-3.06-2.85-.39-.36-.11.19-.23.21a4.94,4.94,0,0,1-1.2-3.13,22.28,22.28,0,0,1,.15-8c.5-2.1,1.33-4.08,3.3-5.32a6,6,0,0,1,4.38-.69c.85.14,1.7.32,2.53.53a2.25,2.25,0,0,0,1.3-.07,1.39,1.39,0,0,1,.49,1.39c0,.75,0,1.51,0,2.27h.13v-3.28a1.46,1.46,0,0,1,.1.32q.24,4,.46,8c0,.44.08.88.11,1.33,0,.27.07.59-.32.68s-.56-.15-.67-.47q-.46-1.43-.9-2.86a6.89,6.89,0,0,0-1.25-2.7,2.91,2.91,0,0,0-3.2-1,1.22,1.22,0,0,0-.86.94A11.26,11.26,0,0,0,165,114a5,5,0,0,0,2.61,2.79,11.35,11.35,0,0,1,5.67,8.52,22.51,22.51,0,0,1-.57,7.5,12.17,12.17,0,0,1-1.11,3.3,6.93,6.93,0,0,1-7.2,3.5,8.9,8.9,0,0,1-3.65-1.1.75.75,0,0,0-1,.14c-.11.13-.22.36-.44.29s-.15-.36-.17-.56c-.18-2-.25-4.06-.28-6.09" style="fill:#d8200c"/><path d="M152.44,112.2a10.67,10.67,0,0,1,.4,2.61c.26,1.67.37,3.37.53,5.06s.28,3.12.42,4.68c0,.25,0,.44-.3.46s-.45-.25-.5-.5c-.12-.57-.19-1.15-.28-1.73a6.21,6.21,0,0,0-.17-.9c-.9-2.82-1.3-2.29-3.7-2.35-.38,0-.47.22-.46.54,0,4.33,0,8.66,0,13a2.1,2.1,0,0,0,1.44,2.11,2.62,2.62,0,0,0,3.08-.84,19.62,19.62,0,0,0,2.48-4.61,21.07,21.07,0,0,0,1.26-4.05c.06-.32.2-.7.6-.67s.44.45.4.76c-.12,1-.29,2-.45,3-.31,2-.62,3.92-.93,5.88-.2,1.31-.4,2.63-.6,3.94,0,.29-.17.46-.51.44-3.69-.22-7.39,0-11.09-.06-.35,0-.7,0-1.05,0s-.8.18-.86-.34-.3-1,.41-1.32a1,1,0,0,0,.59-.89,27.44,27.44,0,0,0,.08-4.14c-.14-7.28-.09-14.55-.11-21.83,0-.63,0-1.25,0-1.88a1.74,1.74,0,0,0-1-1.91c-.51-.23-.32-.79-.25-1.2s.47-.38.8-.38h10.39c.54,0,1.08,0,1.44-.52.16-.25.37-.18.44.11a4,4,0,0,1,.12.69c.2,2.75.55,5.48.87,8.22.06.49,0,1,.08,1.47,0,.25.13.54-.24.62s-.55-.13-.65-.47c-.32-1.1-.68-2.19-1-3.29a4.79,4.79,0,0,0-3.39-3.33,1.84,1.84,0,0,0-2.35.95.66.66,0,0,0-.13.38c.16,1.73,0,3.46.06,5.19,0,.54.17.78.72.75s1.41.13,2-.45a3.23,3.23,0,0,0,.73-1.86c0-.27,0-.57.2-.8.17.54-.11,1.22.48,1.64A14.8,14.8,0,0,0,152.44,112.2Zm-4.37,21h.07V119.75h-.07Zm7.48,3.31v1.2A1.32,1.32,0,0,0,155.56,136.5Z" style="fill:#d8200c"/><path d="M121.44,138.82h-3.3c-.26,0-.63.11-.7-.27s-.23-.87.19-1.1a2.22,2.22,0,0,0,1.17-2,10.65,10.65,0,0,0-2.61-8.17,3.79,3.79,0,0,0-1.86-1c-.57-.16-.88,0-1,.6-.19,1.6-.43,3.19-.63,4.78-.17,1.32-.31,2.64-.45,4a1.61,1.61,0,0,0,.85,1.77c.49.26.33.74.27,1.13s-.42.29-.69.3h-3.93c-.28,0-.63.05-.71-.29s-.22-.83.19-1.1a4.31,4.31,0,0,0,1.56-2.5,31.82,31.82,0,0,0,.7-4.29c.34-1.85.53-3.73.85-5.59s.56-3.93.85-5.89c.37-2.47.74-4.94,1.18-7.4a29.79,29.79,0,0,0,.55-4.08,1,1,0,0,0-.35-.92c-.45-.35-.29-.93-.2-1.38s.56-.33.9-.33h5.41c.35,0,.79-.09.94.3a1.17,1.17,0,0,1-.17,1.32,2,2,0,0,0-.52,2c.52,3.37,1.09,6.73,1.55,10.11.41,3,1,6,1.43,9,.42,2.6.89,5.2,1.21,7.82a2.12,2.12,0,0,0,1,1.66c.51.34.4.82.34,1.26s-.51.31-.81.31C123.59,138.83,122.51,138.82,121.44,138.82Zm-7.25-16.89c0,.29.09.43.32.56.45.25.86.55,1.31.8s.68.93,1.08.7-.1-.8-.14-1.24c-.21-2.37-.6-4.71-.93-7.07-.06-.4,0-1.15-.21-1.13-.59.06-.35.75-.43,1.17C114.83,117.78,114.52,119.85,114.19,121.93Zm5.48-14.69a3.25,3.25,0,0,0,0,1.8A4,4,0,0,0,119.67,107.24Z" style="fill:#d8200c"/><path d="M128.17,105h2.95c.35,0,.79-.07.92.33a1.2,1.2,0,0,1-.18,1.32,2,2,0,0,0-.59,2.08c.49,2.9.93,5.8,1.36,8.71.24,1.61.42,3.24.66,4.85a19.24,19.24,0,0,1,.37,2.49c0,.15-.06.39.14.42s.33-.23.34-.44a18.48,18.48,0,0,1,.27-1.87q.68-4.5,1.33-9c.27-1.91.5-3.83.87-5.73a1.22,1.22,0,0,0-.77-1.48c-.6-.25-.39-.79-.35-1.22s.41-.46.75-.46h3.86c.35,0,.78,0,.9.37s.25,1-.18,1.31a3.45,3.45,0,0,0-1.16,2.51c-.47,2.66-.92,5.33-1.42,8-.67,3.63-1.3,7.26-2,10.89a29.64,29.64,0,0,1-.84,4.24,12.86,12.86,0,0,0-.31,2.4,5.42,5.42,0,0,1-.23,1,1.32,1.32,0,0,0,.36,1.58,1.07,1.07,0,0,1,.38.92c0,.4-.16.61-.58.61h-5.55c-.24,0-.52,0-.53-.33s-.23-.85.2-1c.91-.35.82-1.06.72-1.75-.21-1.5-.45-3-.72-4.5-.36-2-.67-4-1-5.94-.33-2.14-.74-4.27-1.11-6.41-.47-2.76-.89-5.53-1.4-8.29-.17-.92-.26-1.84-.47-2.75a1.48,1.48,0,0,0-.55-.94,1.11,1.11,0,0,1-.48-1c0-.62.21-.85.81-.85,1.05,0,2.11,0,3.16,0Zm7.41,10.71v1.31A1.38,1.38,0,0,0,135.58,115.76Zm-8.4,1.75c0,.33-.18.68.16,1.12C127.34,118.13,127.39,117.8,127.18,117.51Z" style="fill:#d8200c"/><path d="M157.67,105c.23-1.12.44-2.24.68-3.36.47-2.23,1-4.46,1.44-6.7.16-.76.35-.87,1-.58,1,.4,1.93.82,2.91,1.19.5.19.59.45.37.91q-2.24,4.71-4.46,9.42c-.18.38-.39.51-.76.28l-1-.62A.46.46,0,0,1,157.67,105Z" style="fill:#d8200c"/><rect x="118.97" y="106.68" width="0.85" height="2.36" style="fill:#d8200c"/><rect x="92.28" y="146.25" width="4.28" height="0.47" style="fill:#d8200c"/><polygon points="90 139.87 85.67 139.87 85.67 123.82 89.84 123.82 90 139.87" style="fill:#d8200c"/><rect x="127.1" y="117.31" width="0.57" height="1.42" style="fill:#d8200c"/><rect x="135.54" y="115.42" width="0.69" height="1.74" style="fill:#d8200c"/><rect x="147.26" y="119.22" width="0.91" height="16.29" style="fill:#d8200c"/><rect x="154.67" y="136.14" width="1.05" height="1.62" style="fill:#d8200c"/><path d="M151.82,113.51l.14-2s.47-1.1.59,1v2.68l-.73-1.47" style="fill:#d8200c"/><rect x="158.64" y="124.06" width="1.02" height="4.74" rx="0.51" ry="0.51" style="fill:#d8200c"/><path d="M159.91,121.24s3.53,3.49,4.72,4.34.37-2.46.37-2.46-3.63-2.69-4-2.74-.92-.21-.95.22A1.32,1.32,0,0,1,159.91,121.24Z" style="fill:#d8200c"/></svg>