<svg xmlns="http://www.w3.org/2000/svg" viewBox="0 0 250 250"><defs><style>.a{fill:#fdc02f;}.b{fill:#fddc24;}.c{fill:#fdfaf8;}.d{fill:#fcf8f3;}.e{fill:#fdf9f7;}.f{fill:#d5ad63;}.g{fill:#d5ad64;}.h{fill:#ed3439;}.i{fill:#ed3438;}.j{fill:#b43032;}.k{fill:#b42f31;}.l{fill:#ed3338;}.m{fill:#eeca3c;}</style></defs><title>Midscale</title><path class="a" d="M125.1,80.79c1.12.26,2.3.52,3.47.81l59.35,14.29,22.53,5.42c1.81.44,2.32,1.31,1.92,3.12q-4.89,22.5-9.78,45a2.32,2.32,0,0,1-1.91,1.93q-19.2,4.53-38.39,9.09l-36.44,8.65a3.42,3.42,0,0,1-1.61,0L89.88,161l-39.77-9.42-.76-.17a2.25,2.25,0,0,1-1.9-1.93c-1.07-5-2.17-9.91-3.25-14.86Q41.31,121.31,38.42,108l-.81-3.75c-.36-1.65.17-2.56,1.79-2.95l18.24-4.4,34.21-8.22L123.91,81C124.28,80.93,124.66,80.88,125.1,80.79Zm.07,4.26c-.32,0-.56.07-.78.12L112.47,88,97,91.72,83.41,95,68.55,98.56l-13.83,3.35q-6,1.44-12,2.85c-.52.12-.76.28-.61.91.58,2.41,1.09,4.83,1.62,7.25q2.11,9.71,4.2,19.43c1.06,4.89,2.15,9.76,3.19,14.65a.76.76,0,0,0,.7.71c2.46.57,4.91,1.16,7.37,1.74l13.64,3.21,18.87,4.49c3.54.84,7.08,1.65,10.61,2.49,6.86,1.63,13.72,3.29,20.59,4.91a6.43,6.43,0,0,0,3.12.3c5.62-1.37,11.25-2.69,16.87-4l13.16-3.1,16.87-4,15.91-3.79,9.23-2.17c.39-.09.71-.18.83-.71,1.25-5.9,2.54-11.8,3.82-17.7l3.14-14.45c.67-3.06,1.31-6.13,2-9.19.14-.6,0-.8-.59-.93-2.3-.51-4.6-1.07-6.89-1.62l-14.94-3.6-14.18-3.4-14.8-3.56-16-3.85-13.35-3.22Z"/><path class="b" d="M125.17,85.05l2,.46,13.35,3.22,16,3.85,14.8,3.56,14.18,3.4,14.94,3.6c2.29.55,4.59,1.1,6.89,1.62.58.13.73.33.59.93-.7,3.06-1.34,6.13-2,9.19l-3.14,14.45c-1.28,5.9-2.57,11.8-3.82,17.7-.11.53-.44.62-.83.71l-9.23,2.17-15.91,3.79-16.87,4-13.16,3.1c-5.63,1.33-11.25,2.66-16.87,4a6.43,6.43,0,0,1-3.12-.3c-6.87-1.62-13.73-3.28-20.59-4.91-3.54-.84-7.08-1.65-10.61-2.49l-18.87-4.49L59.2,149.44c-2.46-.58-4.91-1.17-7.37-1.74a.76.76,0,0,1-.7-.71c-1-4.89-2.13-9.77-3.19-14.65q-2.11-9.71-4.2-19.43c-.52-2.42-1-4.84-1.62-7.25-.15-.63.09-.78.61-.91q6-1.41,12-2.85l13.83-3.35L83.41,95,97,91.72,112.47,88l11.92-2.83C124.61,85.12,124.85,85.1,125.17,85.05Zm71.6,37.78.14.15h0a10.43,10.43,0,0,0,1.32,1.77,5.75,5.75,0,0,0,.2-.59c.54-2.64,1-5.28,1.63-7.9a1.22,1.22,0,0,0-.7-1.59l-.43-.24a1.08,1.08,0,0,0-.66-1.47,3.39,3.39,0,0,1-.41-.29c-3.67-2.64-7.62-3.85-12.09-2.37a8,8,0,0,0,.29-3.9,4,4,0,0,0-1.33-2.48c-.17-.34-.32-.68-.52-1a4.84,4.84,0,0,0-5.15-2.35,5.39,5.39,0,0,0-3.95,6.63c.14.69,0,.78-.64.72-4.46-.37-8.93-.69-13.4-1.06-3.38-.28-6.75-.63-10.12-.94-1.14-.11-2.29-.19-3.51-.28.44,1,1.14,1.74,1.47,2.67h-.45c0-.14,0-.24-.17-.27h0l-.14-.15c-2.19-3.49-7.1-3.22-9.34-.78-.08.08-.16.18-.29.1a3.22,3.22,0,0,1,0-.78c.18-.68-.14-.8-.74-.8-1.33,0-2.66-.06-4-.1l-7.41-.23c.13.28.23.5.33.7l1.78,3.4a1.68,1.68,0,0,1,.24.87q-.13,3.56-.23,7.11c-.12,4.27-.18,8.54-.36,12.81-.05,1.25.22,2.58-.55,3.74a27.45,27.45,0,0,1-.21-3.88c-.15-2.36-.18-4.73-.31-7.09-.14-2.69-.21-5.39-.3-8.09a13.36,13.36,0,0,0-.89-4.71,4.69,4.69,0,0,0-2.11-2.73h0l-.14-.17c-2.89-3.26-6.41-3.35-9.48-.26-.06.06-.13.15-.25.07a1.25,1.25,0,0,1-.08-.74c.07-.67-.21-.82-.85-.79q-5.4.26-10.81.44c-.6,0-.49.22-.26.57.7,1.1,1.38,2.21,2.09,3.31a1.87,1.87,0,0,1,.31,1c.09,2.75.21,5.5.31,8.25-.17-.18-.23-.37-.36-1.07a18.5,18.5,0,0,0-3.13-7.74A3,3,0,0,0,99.73,109h0l-.18-.16a9.61,9.61,0,0,0-9.08-3.24c-3.48.51-5.63,2.72-6.94,5.83a21,21,0,0,0-1.45,9c-.41-.11-.3-.51-.36-.76a39.61,39.61,0,0,0-1.3-4.27,17,17,0,0,0-8.31-9.32c-3.33-1.75-7-1.86-10.63-1.41-4.25.53-8.46,1.38-12.69,2.06-.6.1-.53.26-.21.63,1.05,1.22,2.08,2.47,3.13,3.69a1.77,1.77,0,0,1,.43.88q2.2,12.78,4.42,25.56a5,5,0,0,1-.33,3.23c-.51,1.06-.89,2.19-1.32,3.3-.08.22-.3.47-.17.66s.43,0,.66,0l.84-.14c.7-.12.77,0,.57.61l-.21.66c2.25-.38,4.46-.71,6.66-1.12,2.66-.49,5.37-.79,8-1.42a14.29,14.29,0,0,0,11.16-12.41c.14-1.07.25-2.15.38-3.22.09.31.2.63.28.94,1,3.83,2.44,7.36,6,9.63a.27.27,0,0,0,.31.16h0c0,.23.14.32.29.44a8.83,8.83,0,0,0,6.71,1.66,8.64,8.64,0,0,0,5.4-2.86,12.56,12.56,0,0,0,2.7-5.32c.28-1,.31-2,.57-3,.05,1.2.1,2.4.17,3.59a2.23,2.23,0,0,1-.28,1.22c-.58,1.11-1.14,2.23-1.7,3.35-.32.64-.29.68.46.65l1.48-.06-.68,1.51c.34,0,.59-.1.85-.11,3.24-.1,6.48-.21,9.73-.3,1.81,0,1.48.14,1.51-1.52H118c0,.14,0,.28,0,.43,0,1,0,1,.95,1,1.61,0,3.22-.06,4.83-.11,4-.15,8.05.19,12.08.26a13.67,13.67,0,0,1,1.77.11c1.44.21,1.45.17,1.47-1.27,0,0,0-.09,0-.14l1.4,0c0,1.45,0,1.5.92,1.52,2.11,0,4.21.2,6.31.29,1.65.07,3.31.13,5,.28.23,0,.5.09.69-.06s0-.27-.07-.39c-.59-1.11-1.2-2.21-1.78-3.32a7.25,7.25,0,0,1-1.12-4.2c.31-3.41.28-6.86.35-10.29,0-2.46.24-4.93.16-7.39a1.64,1.64,0,0,1,.09-.41q1.79,9.24,3.59,18.49a10.42,10.42,0,0,1-2.2,9.63c-.79.86-1.48,1.82-2.29,2.83l2.39.26c-.12.5-.68.73-.78,1.24a1.17,1.17,0,0,0,.81.19c.8,0,1.61.09,2.4.16q4.16.4,8.31.83A.62.62,0,0,0,164,147c.24-.77.52-1.52.79-2.28l6.93-19.23c1.34-3.72,2.63-7.45,4-11.15a5.25,5.25,0,0,1,1.78-2.33c-.37.89-.75,1.78-1.11,2.68-.42,1.06,0,1.66,1.11,1.8-.3,1,.31,1.88,1.21,1.64a3.13,3.13,0,0,0,1.07-.68,12.09,12.09,0,0,0,2.48,8.88c.7,1,1.38,2,2.06,3,.42.61.84,1.21,1.24,1.83a1.1,1.1,0,0,1,.05,1.33,1.13,1.13,0,0,1-1.3.31,4.28,4.28,0,0,1-1.34-.66,20.44,20.44,0,0,1-3.93-3.6l-1.18-1.41c-.08.26-.14.43-.18.61-.58,2.81-1.08,5.64-1.78,8.41a2.31,2.31,0,0,0,.92,2.86c0,.36-.17.77.16,1.08a17.87,17.87,0,0,0,1.41,1.3,12,12,0,0,0,6.42,2.39,12.09,12.09,0,0,0,5.53-.54A10.82,10.82,0,0,0,197,131.11a6.51,6.51,0,0,0-1.28-3v0a.21.21,0,0,0-.16-.22,14.86,14.86,0,0,0-1.87-3.14c-.91-1.2-1.86-2.38-2.79-3.57.17-1.18.94-1.61,2-1.11a10.46,10.46,0,0,1,2.2,1.41c.43.35.74.86,1.33,1h0c0,.14,0,.24.16.28h0l.14.15Zm-24,18.67a2.33,2.33,0,0,0-2.39,2.37,2.39,2.39,0,0,0,4.78-.06A2.35,2.35,0,0,0,172.72,141.5Z"/><path class="c" d="M148.92,108.31c-.33-.94-1-1.68-1.47-2.67,1.23.1,2.37.18,3.51.28,3.37.31,6.74.66,10.12.94,4.46.37,8.93.69,13.4,1.06.64.05.79,0,.64-.72a5.39,5.39,0,0,1,3.95-6.63,4.84,4.84,0,0,1,5.15,2.35c.19.32.35.67.52,1a8,8,0,0,1-.07,4.6,13,13,0,0,1-1.48,3l-.11.17-.06.08.08-.06.19-.09a15.59,15.59,0,0,1,2.49-1.37c4.48-1.49,8.42-.27,12.09,2.37a3.39,3.39,0,0,0,.41.29,1.08,1.08,0,0,1,.66,1.47c-.54,2.59-1.07,5.19-1.62,7.78-.06.28.06.7-.41.78h0c0-.09,0-.15-.14-.15h0c0-.1,0-.16-.14-.15h0a.21.21,0,0,0-.16-.28h0a8.07,8.07,0,0,0-1.88-2.19,8.66,8.66,0,0,0-3.18-2.1,1.19,1.19,0,0,0-1.3.3,1.13,1.13,0,0,0-.17,1.32,4,4,0,0,0,1,1.37c.93,1.19,1.88,2.37,2.79,3.57a14.86,14.86,0,0,1,1.87,3.14l.16.22v0a12.59,12.59,0,0,1,.47,4.83,10.54,10.54,0,0,1-12.81,9.25,14.29,14.29,0,0,1-6.58-3.18,2.31,2.31,0,0,1-.92-2.86c.7-2.78,1.2-5.61,1.78-8.41,0-.18.1-.35.18-.61l1.18,1.41a20.44,20.44,0,0,0,3.93,3.6,4.28,4.28,0,0,0,1.34.66,1.13,1.13,0,0,0,1.3-.31,1.1,1.1,0,0,0-.05-1.33c-.4-.62-.82-1.22-1.24-1.83-.68-1-1.36-2-2.06-3a12.09,12.09,0,0,1-2.48-8.88,12.67,12.67,0,0,1,1.4-3.63,5.89,5.89,0,0,0-.79.53,18,18,0,0,1-2.9,2.13c-1.15-.14-1.53-.74-1.11-1.8.35-.9.74-1.79,1.1-2.68.14-.33.29-.65.41-1s.21-.45-.09-.54-.72-.68-1.05-.31c-.89,1-2,1.77-2.47,3.07q-4,11-7.91,22-1.83,5.08-3.66,10.16c-.11.31-.19.57-.62.51-.61-.09-1.22-.15-1.84-.2l-7.79-.64-2.39-.26c.81-1,1.5-2,2.29-2.83a10.42,10.42,0,0,0,2.2-9.63q-1.8-9.24-3.59-18.49c0-.19-.06-.37-.1-.56-.32-1.6-.56-3.24-1.7-4.53,0-.1,0-.2-.15-.18h0a.19.19,0,0,0-.15-.29Zm34.3,17.53.14.2c.16.26.32.52.49.77a36.48,36.48,0,0,1,2.91,4.45,2,2,0,0,1-.43,1.86,2.34,2.34,0,0,1-2.68.48,9.6,9.6,0,0,1-2.3-1.4,24.47,24.47,0,0,1-2.9-2.84c-.07.1-.13.14-.15.2-.53,2.52-1,5-1.58,7.55a.43.43,0,0,0,.15.5,9.23,9.23,0,0,0,1.5,1.18,11.48,11.48,0,0,0,10,2.21c6.74-1.59,8.43-10.12,5.53-14.27-1.32-1.89-2.74-3.69-4.21-5.47a3.76,3.76,0,0,1-.83-1.71,2.1,2.1,0,0,1,2.5-2.5,5.63,5.63,0,0,1,2.1,1,16.8,16.8,0,0,1,3.14,2.83l1.14-5.89a1.12,1.12,0,0,0-.52-1.63,14.77,14.77,0,0,0-6.86-2.68,8.43,8.43,0,0,0-8.14,3.63c-2.33,3.3-1.94,7.8.84,11.26v0a.33.33,0,0,0,.18.28Zm-21-17.4c-.41.63-.81,1.28-1.25,1.89a2.07,2.07,0,0,0-.4,1.53c.31,2.94.57,5.89.9,8.82a4.43,4.43,0,0,0,.33,1.89l1.07-4.52q.82-3.18,1.64-6.35a.68.68,0,0,0,0-.41c-.29-.67-.6-1.33-.9-2a1.18,1.18,0,0,0-.3-.71,2.51,2.51,0,0,0-.44-1A2.22,2.22,0,0,0,162.23,108.45ZM179,111.22a32,32,0,0,0-1.74,4.17,21.4,21.4,0,0,0,4.09-3.06,6.38,6.38,0,0,0,1.73-2.38,7.56,7.56,0,0,0,.69-5.48,3.9,3.9,0,0,0-3.47-3,4,4,0,0,0-4.1,2.75,4.25,4.25,0,0,0,1.28,4.79,2,2,0,0,0,.7.45C179.42,110,179.42,110,179,111.22Zm-4.43-.31a17.73,17.73,0,0,0,1.71-1.81l-12.08-1c.42,1,.78,1.88,1.15,2.75a1.46,1.46,0,0,1,.07,1c-.69,2.58-1.38,5.16-2,7.75a27.5,27.5,0,0,0-1.07,4.69l-1.17,4.34c-.56-5.57-1.07-10.93-1.64-16.28a3.23,3.23,0,0,1,.62-2.78c.25-.4.52-.79.76-1.19.38-.63.37-.62-.37-.69l-6.09-.53-5.26-.42c.35.59.67,1.09.95,1.6a7.84,7.84,0,0,1,1.22,2.38c.24,1.35.5,2.69.76,4q1.6,8.28,3.21,16.55c.41,2.13,1.14,4.26.2,6.45a5.7,5.7,0,0,0-.3,1.16,5,5,0,0,1-1.27,2.55c-.6.64-1.13,1.35-1.67,2-.13.16-.42.45.06.46a18.62,18.62,0,0,0,2.9.18c1.91.19,3.83.35,5.73.58.64.08.9-.12,1.11-.71q5.36-15,10.75-30A7.27,7.27,0,0,1,174.61,110.91Z"/><path class="c" d="M127.64,134c.77-1.16.5-2.49.55-3.74.17-4.27.24-8.54.36-12.81q.1-3.56.23-7.11a1.68,1.68,0,0,0-.24-.87l-1.78-3.4c-.11-.2-.2-.42-.33-.7l7.41.23c1.33,0,2.66.1,4,.1.6,0,.91.12.74.8a3.22,3.22,0,0,0,0,.78c.13.08.22,0,.29-.1,2.24-2.44,7.15-2.71,9.34.78l.14.15h0c0,.12,0,.23.17.27h0a15.19,15.19,0,0,1,1,6.39c-.14,4-.22,8-.33,11.94-.06,1.94-.1,3.88-.24,5.82a4.71,4.71,0,0,0,.76,3c.5.78.91,1.61,1.37,2.41.21.35.18.51-.27.49l-4-.21-6.31-.32-1.4,0c0-.26,0-.52,0-.78q.13-4.73.28-9.46c.1-3.27.21-6.54.27-9.81,0-.53.07-1.34-.66-1.37s-.66.78-.69,1.28c-.08,1.42-.09,2.84-.14,4.26-.15,4.15-.24,8.3-.35,12.44,0,1-.08,1.94-.11,2.91,0,.29,0,.49-.42.48-2.68-.1-5.36-.13-8-.29-3.75-.22-7.49.07-11.23.08h-1.39c-.19-.13-.14-.34-.15-.52-.09-1.94-.18-3.88-.25-5.83q-.24-6.68-.47-13.36a3.19,3.19,0,0,0-.28-1.31.55.55,0,0,0-.54-.39c-.28,0-.37.25-.44.49a5.23,5.23,0,0,0-.12,1.7q.2,5.12.41,10.23c.12,2.84.24,5.68.37,8.52,0,.39-.06.55-.48.56-1.66,0-3.32.09-5,.14l-4.48.18-1.48.06c-.74,0-.78,0-.46-.65.56-1.12,1.12-2.24,1.7-3.35a2.23,2.23,0,0,0,.28-1.22c-.07-1.2-.12-2.4-.17-3.59a17.41,17.41,0,0,0-.12-3l0-1.31c0-1.19-.19-2.38-.14-3.58a10.72,10.72,0,0,0-.06-2.26c-.11-2.75-.22-5.5-.31-8.25a1.87,1.87,0,0,0-.31-1c-.71-1.1-1.39-2.21-2.09-3.31-.22-.35-.33-.55.26-.57q5.4-.19,10.81-.44c.64,0,.92.12.85.79a1.25,1.25,0,0,0,.08.74c.13.08.19,0,.25-.07,3.07-3.1,6.59-3,9.48.26l.14.17h0a12.55,12.55,0,0,1,1.41,4.95c.17,3,.3,6,.41,8.95.13,3.27.23,6.54.34,9.81a6.4,6.4,0,0,0,1.1,4.08Zm-4.92-26.11,0,0c-1.91-3.07-6.76-2.37-8.34.62-.55.63-.77,1.47-1.35,2.33l-.14-2.3c.13-.43-.07-.84,0-1.27s-.18-.62-.66-.6c-2.65.12-5.31.22-8,.33a1.63,1.63,0,0,0-.84.16l1.65,2.62a1.39,1.39,0,0,1,.26.72q.27,7,.55,14c.11,2.84.2,5.69.33,8.53a2.42,2.42,0,0,1-.29,1.35c-.47.86-.9,1.75-1.44,2.79,1.13-.24,2.12,0,3.09-.26,1.9-.06,3.79-.14,5.69-.16.59,0,.76-.15.73-.75-.24-5.55-.44-11.1-.65-16.65a9.39,9.39,0,0,1,0-2.2c.24-1.21.8-1.91,1.57-1.93s1.26.39,1.64,1.73c0,.17,0,.33,0,.5.23,5.8.48,11.6.7,17.4.07,1.88,0,1.88,2,1.7h7a1.53,1.53,0,0,0,0-.31,2.66,2.66,0,0,0-.2-.46,9.1,9.1,0,0,1-1.13-4.76q-.29-9.11-.72-18.22a8.82,8.82,0,0,0-1.38-4.71C122.84,107.94,122.82,107.86,122.72,107.85Zm7.5,28.59c1.89.07,3.79.11,5.68.23.64,0,.77-.15.79-.76.15-5.9.34-11.8.52-17.7a4.47,4.47,0,0,1,.3-1.6c.38-.91,1-1.38,1.66-1.31s1.18.58,1.37,1.66c0,.07,0,.14.05.21,0,.45,0,.89,0,1.34-.15,5.54-.31,11.07-.45,16.61,0,1.82,0,1.82,1.84,1.73l7.62.44c-.51-.91-.93-1.7-1.39-2.47a1.67,1.67,0,0,1-.25-.94c.13-4,.28-8,.37-12,.07-3,.3-6.07.19-9.11a8.39,8.39,0,0,0-1.12-4.2,2.86,2.86,0,0,0-.19-.37,5,5,0,0,0-8.2.36,15.73,15.73,0,0,0-1.47,2.27v-2.39a12,12,0,0,1,.06-1.21c.07-.51-.11-.64-.61-.65-2.51-.06-5-.16-7.54-.25-.42,0-.83,0-1.36,0l1.46,2.76a1.82,1.82,0,0,1,.26.94q-.33,11.32-.63,22.63a2.47,2.47,0,0,1-.24,1c-.41.87-.8,1.75-1.24,2.73Z"/><path class="d" d="M82.8,127.64c-.13,1.07-.24,2.15-.38,3.22a14.29,14.29,0,0,1-11.16,12.41c-2.64.63-5.34.93-8,1.42-2.2.41-4.41.74-6.66,1.12l.21-.66c.21-.66.14-.73-.57-.61l-.84.14c-.22,0-.51.23-.66,0s.08-.45.17-.66c.43-1.1.81-2.23,1.32-3.3a5,5,0,0,0,.33-3.23q-2.24-12.77-4.42-25.56a1.77,1.77,0,0,0-.43-.88c-1-1.23-2.07-2.47-3.13-3.69-.32-.37-.39-.53.21-.63,4.23-.68,8.44-1.53,12.69-2.06,3.65-.46,7.3-.35,10.63,1.41a17,17,0,0,1,8.31,9.32,39.61,39.61,0,0,1,1.3,4.27c.06.25-.05.65.36.76.19.92,0,1.85.16,2.81s.3,2.15.42,3.23C82.73,126.85,83,127.23,82.8,127.64Zm-23.52,15.3c.35,0,.71-.08,1.05-.15,3.33-.64,6.71-1,10-1.85A12.59,12.59,0,0,0,80,129.72a32.37,32.37,0,0,0-.68-10.53A23.12,23.12,0,0,0,76,110.78a8.6,8.6,0,0,0-2.31-2.46,6.12,6.12,0,0,0-2.09-1.41,18,18,0,0,0-10.36-1.22c-2.51.33-5,.8-7.49,1.23-1.18.2-2.36.43-3.63.67.9,1.08,1.74,2.08,2.56,3.08a1.38,1.38,0,0,1,.38.66q1,6.15,2.12,12.3,1.26,7.27,2.53,14.53a3.26,3.26,0,0,1-.18,2.05c-.48,1-.84,2.14-1.31,3.34Z"/><path class="e" d="M82.8,127.64c.22-.41-.08-.79-.12-1.16-.12-1.08-.25-2.17-.42-3.23s0-1.89-.16-2.81a21,21,0,0,1,1.45-9c1.31-3.11,3.46-5.33,6.94-5.83a9.61,9.61,0,0,1,9.08,3.24l.18.16h0c.3.53.6,1.07.89,1.6a19.67,19.67,0,0,1,2.14,6.72,34.42,34.42,0,0,1,.57,5.83c0,.35-.07.49-.45.53-1.26.11-2.51.34-3.77.4-2.27.1-4.51.46-6.78.58-.28,0-.45.09-.42.41a11.06,11.06,0,0,0,1,4.17c.23.44.57.78,1.15.46a1.12,1.12,0,0,0,.52-.73,8,8,0,0,0,.61-3.17c.87-.06,1.74-.1,2.61-.18,1.87-.16,3.73-.48,5.62-.54l0,1.28a19.2,19.2,0,0,1-1.14,6.25c-1.64,4.41-5.06,6.75-9.64,6.56a11.61,11.61,0,0,1-3.35-.85h0c-.06-.15-.19-.15-.31-.16-3.51-2.27-5-5.79-6-9.63C83,128.27,82.9,128,82.8,127.64Zm6.2,9.28,0,0a8.1,8.1,0,0,0,10.38-1.36,12.3,12.3,0,0,0,2.85-7.62,6.22,6.22,0,0,0,.15-1.55c0-.36-.14-.44-.47-.41-1.79.18-3.58.37-5.37.52-.42,0-.55.17-.56.59a5.65,5.65,0,0,1-.82,2.82,1.79,1.79,0,0,1-1.33.95c-1.22,0-1.73-.82-2.14-1.76a17,17,0,0,1-1-4.64c-.06-.47,0-.65.56-.69,3.47-.29,6.93-.64,10.4-.93.52,0,.71-.15.62-.71s-.13-1.42-.2-2.12a24.82,24.82,0,0,0-2-8.09,8.65,8.65,0,0,0-2-2.9c0-.2-.17-.28-.28-.38a7.84,7.84,0,0,0-5.43-2.09,7.68,7.68,0,0,0-7.26,3.86,15.58,15.58,0,0,0-2,6.45,34.46,34.46,0,0,0,.13,7.45A26.4,26.4,0,0,0,85.22,132,10.53,10.53,0,0,0,89,136.89Z"/><path class="f" d="M152.48,145.07l7.79.64c.61.05,1.23.11,1.84.2.43.06.51-.2.62-.51q1.83-5.08,3.66-10.16,4-11,7.91-22c.47-1.3,1.58-2.11,2.47-3.07.34-.37.7.19,1.05.31s.16.35.09.54-.27.66-.41,1a5.24,5.24,0,0,0-1.78,2.33c-1.41,3.69-2.69,7.43-4,11.15l-6.93,19.23c-.27.76-.56,1.51-.79,2.28a.62.62,0,0,1-.76.52q-4.15-.43-8.31-.83c-.8-.08-1.6-.11-2.4-.16a1.17,1.17,0,0,1-.81-.19C151.8,145.79,152.36,145.57,152.48,145.07Z"/><path class="f" d="M140.48,137.84l6.31.32,4,.21c.46,0,.48-.13.27-.49-.47-.8-.88-1.63-1.37-2.41a4.71,4.71,0,0,1-.76-3c.14-1.94.18-3.88.24-5.82.12-4,.2-8,.33-11.94a15.19,15.19,0,0,0-1-6.39h.44a.23.23,0,0,0,.15.29h0l.15.18c1.14,1.29,1.38,2.93,1.7,4.53,0,.18.07.37.1.56a1.63,1.63,0,0,0-.09.41c.09,2.47-.11,4.93-.16,7.39-.07,3.43,0,6.88-.35,10.29a7.25,7.25,0,0,0,1.12,4.2c.58,1.12,1.19,2.21,1.78,3.32.06.12.2.29.07.39s-.46.08-.69.06c-1.65-.15-3.3-.21-5-.28-2.1-.09-4.2-.25-6.31-.29C140.49,139.34,140.49,139.29,140.48,137.84Z"/><path class="g" d="M118,137.56c3.74,0,7.48-.3,11.23-.08,2.67.16,5.35.19,8,.29.39,0,.41-.19.42-.48,0-1,.08-1.94.11-2.91.12-4.15.2-8.3.35-12.44.05-1.42.06-2.85.14-4.26,0-.5,0-1.31.69-1.28s.68.83.66,1.37c-.07,3.27-.18,6.54-.27,9.81s-.19,6.3-.28,9.46c0,.26,0,.52,0,.78,0,0,0,.09,0,.14,0,1.44,0,1.48-1.47,1.27a13.67,13.67,0,0,0-1.77-.11c-4-.08-8.05-.41-12.08-.26-1.61.06-3.22.1-4.83.11-.94,0-.94,0-.95-1C118,137.84,118,137.7,118,137.56Z"/><path class="g" d="M105.15,138l4.48-.18c1.66-.06,3.32-.11,5-.14.43,0,.5-.17.48-.56-.14-2.84-.26-5.68-.37-8.52q-.21-5.12-.41-10.23a5.23,5.23,0,0,1,.12-1.7c.07-.24.16-.46.44-.49a.55.55,0,0,1,.54.39,3.19,3.19,0,0,1,.28,1.31q.23,6.68.47,13.36c.07,1.94.16,3.88.25,5.83,0,.18,0,.39.15.52,0,1.66.3,1.48-1.51,1.52-3.24.08-6.48.19-9.73.3-.25,0-.51.06-.85.11Z"/><path class="f" d="M94.07,129.75c-.57.33-.91,0-1.15-.46a11.06,11.06,0,0,1-1-4.17c0-.32.14-.4.42-.41,2.26-.12,4.51-.48,6.78-.58,1.26-.06,2.51-.28,3.77-.4.38,0,.44-.17.45-.53a34.42,34.42,0,0,0-.57-5.83,19.67,19.67,0,0,0-2.14-6.72c-.29-.54-.59-1.07-.89-1.6a3,3,0,0,1,1.43,1.29,18.5,18.5,0,0,1,3.13,7.74c.13.7.18.88.36,1.07a10.69,10.69,0,0,1,.06,2.26c0,1.2.11,2.39.14,3.58a4.39,4.39,0,0,0-1.44.15c-1.88.06-3.74.37-5.62.54-.87.08-1.74.12-2.61.18a7,7,0,0,0-.85,0c-1,.14-.94.17-.8,1.17S93.89,128.85,94.07,129.75Z"/><path class="f" d="M176.84,139a14.29,14.29,0,0,0,6.58,3.18,10.54,10.54,0,0,0,12.81-9.25,12.59,12.59,0,0,0-.47-4.83,6.5,6.5,0,0,1,1.28,3,10.82,10.82,0,0,1-6.68,12.11,12.09,12.09,0,0,1-5.53.54,12,12,0,0,1-6.42-2.39,17.87,17.87,0,0,1-1.41-1.3C176.67,139.76,176.86,139.35,176.84,139Z"/><path class="f" d="M89.35,138.37a11.61,11.61,0,0,0,3.35.85c4.58.19,8-2.15,9.64-6.56a19.2,19.2,0,0,0,1.14-6.25l1.43-.12a17.41,17.41,0,0,1,.12,3c-.26,1-.29,2-.57,3a12.56,12.56,0,0,1-2.7,5.32,8.64,8.64,0,0,1-5.4,2.86,8.83,8.83,0,0,1-6.71-1.66C89.49,138.7,89.32,138.6,89.35,138.37Z"/><path class="f" d="M127.64,134l-.56,1.29a6.4,6.4,0,0,1-1.1-4.08c-.11-3.27-.21-6.54-.34-9.81-.12-3-.24-6-.41-8.95a12.55,12.55,0,0,0-1.41-4.95,4.69,4.69,0,0,1,2.11,2.73,13.36,13.36,0,0,1,.89,4.71c.09,2.7.16,5.39.3,8.09.13,2.36.16,4.73.31,7.09A27.45,27.45,0,0,0,127.64,134Z"/><path class="f" d="M196.91,123c.46-.09.35-.5.41-.78.55-2.59,1.08-5.18,1.62-7.78l.43.24a1.22,1.22,0,0,1,.7,1.59c-.6,2.62-1.09,5.27-1.63,7.9a5.75,5.75,0,0,1-.2.59A10.43,10.43,0,0,1,196.91,123Z"/><path class="g" d="M183.2,111.56a13,13,0,0,0,1.48-3,8,8,0,0,0,.07-4.6,4,4,0,0,1,1.33,2.48,8,8,0,0,1-.29,3.9,15.64,15.64,0,0,0-2.49,1.36Z"/><path class="h" d="M172.72,141.5a2.35,2.35,0,0,1,2.39,2.3,2.39,2.39,0,0,1-4.78.06A2.33,2.33,0,0,1,172.72,141.5Zm-1,1a1.61,1.61,0,0,0-.06,2.62,1.45,1.45,0,0,0,2.19-.06,1.54,1.54,0,0,0,.06-2.46A1.48,1.48,0,0,0,171.69,142.51Z"/><path class="g" d="M190.93,121.13a4,4,0,0,1-1-1.37,1.13,1.13,0,0,1,.17-1.32,1.19,1.19,0,0,1,1.3-.3,8.66,8.66,0,0,1,3.18,2.1,8.07,8.07,0,0,1,1.88,2.19c-.59-.14-.9-.65-1.33-1A10.46,10.46,0,0,0,193,120C191.87,119.52,191.11,119.95,190.93,121.13Z"/><path class="g" d="M177.51,116.46a18,18,0,0,0,2.9-2.13,5.89,5.89,0,0,1,.79-.53,12.67,12.67,0,0,0-1.4,3.63,3.13,3.13,0,0,1-1.07.68C177.83,118.34,177.21,117.5,177.51,116.46Z"/><path class="f" d="M148.46,108.33c-.14,0-.16-.15-.17-.27C148.44,108.08,148.48,108.19,148.46,108.33Z"/><path class="g" d="M196.48,122.42a.21.21,0,0,1,.16.28C196.49,122.66,196.46,122.55,196.48,122.42Z"/><path class="f" d="M89,138.21c.12,0,.26,0,.31.16A.27.27,0,0,1,89,138.21Z"/><path class="f" d="M123.82,107.47l-.14-.17Z"/><path class="f" d="M148.3,108.06l-.14-.15Z"/><path class="g" d="M196.64,122.69c.11,0,.14.06.14.15Z"/><path class="f" d="M195.76,128.05l-.16-.22A.21.21,0,0,1,195.76,128.05Z"/><path class="f" d="M99.74,109l-.18-.16Z"/><path class="g" d="M196.77,122.84c.1,0,.14.06.14.15Z"/><path class="i" d="M160.22,109.64a3.23,3.23,0,0,0-.62,2.78c.56,5.35,1.08,10.7,1.64,16.28l1.17-4.34.6,6c1.45-5.34,2.78-10.67,4.16-16a2.55,2.55,0,0,0-.18-2,15.5,15.5,0,0,1-.69-1.63c-.06-.15-.2-.31-.08-.46s.35-.1.53-.08c1,.09,2,.16,3,.26,1.64.17,3.3.19,4.93.45A7.27,7.27,0,0,0,172.9,114q-5.37,15-10.75,30c-.21.6-.47.79-1.11.71-1.91-.23-3.82-.39-5.73-.58.15-.21.3-.42.44-.64.3-.45.81-.77,1-1.31.42-1.52.79-3.06,1.17-4.6a1.55,1.55,0,0,0,0-.64q-.94-4.93-1.89-9.85-1.1-5.69-2.22-11.37c-.36-1.82-.45-3.72-1.67-5.26a6.22,6.22,0,0,1-.54-.83c-.12-.22-.39-.47-.27-.69s.52-.08.78-.13h.07Z"/><path class="i" d="M186.76,131.26a36.48,36.48,0,0,0-2.91-4.45c-.17-.25-.33-.51-.49-.77l-.14-.2h0c0-.13,0-.25-.18-.28v0a.81.81,0,0,0-.1-.55,8.28,8.28,0,0,1-.44-5.95,8.48,8.48,0,0,1,9.53-6.18,13.53,13.53,0,0,1,5.68,2.1l-1.14,5.89a16.8,16.8,0,0,0-3.14-2.83,5.63,5.63,0,0,0-2.1-1,2.1,2.1,0,0,0-2.5,2.5,3.76,3.76,0,0,0,.83,1.71c1.47,1.77,2.89,3.58,4.21,5.47,2.9,4.15,1.22,12.68-5.53,14.27a11.48,11.48,0,0,1-10-2.21c.26-1.32.52-2.63.78-4,.22-1.07.44-2.14.68-3.31a4.54,4.54,0,0,1,.49.47,13.84,13.84,0,0,0,3.46,3.13,4.08,4.08,0,0,0,2.73.84c1-.1,2-1.22,1.8-2.15A5.59,5.59,0,0,0,186.76,131.26Z"/><path class="j" d="M160.22,109.64l-8.1-.74H152c-.27,0-.63-.15-.78.13s.15.47.27.69a6.22,6.22,0,0,0,.54.83c1.22,1.55,1.31,3.45,1.67,5.26q1.12,5.69,2.22,11.37,1,4.92,1.89,9.85a1.55,1.55,0,0,1,0,.64c-.38,1.54-.75,3.07-1.17,4.6-.15.53-.66.85-1,1.31-.14.22-.29.43-.44.64a18.62,18.62,0,0,1-2.9-.18c-.48,0-.19-.3-.06-.46.55-.68,1.08-1.39,1.67-2a5,5,0,0,0,1.27-2.55,5.7,5.7,0,0,1,.3-1.16c.94-2.18.21-4.31-.2-6.45q-1.59-8.28-3.21-16.55c-.26-1.34-.53-2.69-.76-4a7.84,7.84,0,0,0-1.22-2.38c-.28-.51-.6-1-.95-1.6l5.26.42,6.09.53c.75.06.76.05.37.69C160.73,108.85,160.47,109.24,160.22,109.64Z"/><path class="j" d="M174.61,110.91c-1.63-.27-3.29-.28-4.93-.45-1-.1-2-.17-3-.26-.19,0-.4-.09-.53.08s0,.31.08.46a15.5,15.5,0,0,0,.69,1.63,2.55,2.55,0,0,1,.18,2c-1.37,5.32-2.7,10.65-4.16,16l-.6-6a27.5,27.5,0,0,1,1.07-4.69c.62-2.59,1.31-5.17,2-7.75a1.46,1.46,0,0,0-.07-1c-.37-.87-.73-1.74-1.15-2.75l12.08,1A17.73,17.73,0,0,1,174.61,110.91Z"/><path class="j" d="M197.73,115a13.53,13.53,0,0,0-5.68-2.1,8.48,8.48,0,0,0-9.53,6.18A8.28,8.28,0,0,0,183,125a.81.81,0,0,1,.1.55c-2.78-3.46-3.17-8-.84-11.26a8.43,8.43,0,0,1,8.14-3.63,14.77,14.77,0,0,1,6.86,2.68A1.12,1.12,0,0,1,197.73,115Z"/><path class="h" d="M183.82,104.46a7.56,7.56,0,0,1-.69,5.48,6.38,6.38,0,0,1-1.73,2.38,6.3,6.3,0,0,1-2.35-1.11c.38-1.2.38-1.2-.82-1.75a2,2,0,0,1-.7-.45,3,3,0,0,0,0-.43,4.41,4.41,0,0,1,1.69-4.18A3.86,3.86,0,0,1,183.82,104.46Z"/><path class="j" d="M186.76,131.26a5.59,5.59,0,0,1,1.56,2.56c.24.93-.77,2-1.8,2.15a4.08,4.08,0,0,1-2.73-.84,13.84,13.84,0,0,1-3.46-3.13,4.54,4.54,0,0,0-.49-.47c-.24,1.17-.47,2.24-.68,3.31-.27,1.32-.52,2.63-.78,4a9.23,9.23,0,0,1-1.5-1.18.43.43,0,0,1-.15-.5c.53-2.52,1.05-5,1.58-7.55,0-.06.08-.11.15-.2a24.47,24.47,0,0,0,2.9,2.84,9.6,9.6,0,0,0,2.3,1.4,2.34,2.34,0,0,0,2.68-.48A2,2,0,0,0,186.76,131.26Z"/><path class="j" d="M183.82,104.46a3.86,3.86,0,0,0-4.63,0,4.41,4.41,0,0,0-1.69,4.18,3,3,0,0,1,0,.43,4.25,4.25,0,0,1-1.28-4.79,4,4,0,0,1,4.1-2.75A3.9,3.9,0,0,1,183.82,104.46Z"/><path class="f" d="M162.88,118.05l-1.07,4.52a4.43,4.43,0,0,1-.33-1.89c-.33-2.94-.6-5.88-.9-8.82a2.07,2.07,0,0,1,.4-1.53c.45-.61.84-1.26,1.25-1.89l1.07.14a1.18,1.18,0,0,1,.3.71,5.68,5.68,0,0,1-.65,1.17c-.23.48-.72.86-.65,1.46.15,1.29.17,2.6.32,3.88A6.38,6.38,0,0,0,162.88,118.05Z"/><path class="b" d="M162.88,118.05a6.38,6.38,0,0,1-.26-2.23c-.15-1.29-.16-2.59-.32-3.88-.07-.61.42-1,.65-1.46a5.68,5.68,0,0,0,.65-1.17c.3.66.61,1.32.9,2a.68.68,0,0,1,0,.41Q163.71,114.88,162.88,118.05Z"/><path class="j" d="M179,111.22a6.3,6.3,0,0,0,2.35,1.11,21.4,21.4,0,0,1-4.09,3.06A32,32,0,0,1,179,111.22Z"/><path class="b" d="M163.29,108.59l-1.07-.14a2.22,2.22,0,0,1,.63-.89A2.51,2.51,0,0,1,163.29,108.59Z"/><path class="b" d="M149,108.6a.23.23,0,0,1-.15-.29A.19.19,0,0,1,149,108.6Z"/><path class="j" d="M183.05,125.57c.15,0,.17.16.18.28A.33.33,0,0,1,183.05,125.57Z"/><path class="j" d="M183.22,125.84l.14.2Z"/><path class="g" d="M183.08,111.73l.11-.17.1.1-.19.09Z"/><path class="g" d="M183.1,111.75l-.08.06.06-.08Z"/><path class="b" d="M149.19,108.78l-.15-.18C149.18,108.58,149.19,108.67,149.19,108.78Z"/><path class="h" d="M140.57,117.16c0-.07,0-.14-.05-.21-.19-1.07-.61-1.59-1.37-1.66s-1.28.4-1.66,1.31a4.47,4.47,0,0,0-.3,1.6c-.18,5.9-.37,11.8-.52,17.7,0,.61-.15.8-.79.76-1.89-.12-3.78-.16-5.68-.23a1.76,1.76,0,0,1,.35-.77,2,2,0,0,0,.38-1.05q0-2,.1-4c.1-3.07.21-6.14.29-9.22.06-2.2.18-4.4.18-6.6a10.86,10.86,0,0,1,.11-2.33,1.89,1.89,0,0,0-.24-1.37c-.42-.72-.77-1.47-1.18-2.19-.29-.5-.11-.56.37-.56,2.3,0,4.59.25,6.89.15v2.39a15.73,15.73,0,0,1,1.47-2.27c.43,0,.4.28.41.58a23.72,23.72,0,0,0-.08,3.67,15.26,15.26,0,0,1,1.33-2.18,5.38,5.38,0,0,1,5.59-2.36c.4.07.73.36,1.15.31a8.39,8.39,0,0,1,1.12,4.2c.11,3-.12,6.08-.19,9.11-.1,4-.24,8-.37,12a1.67,1.67,0,0,0,.25.94c.45.77.88,1.56,1.39,2.47l-7.62-.44c0-2.69.24-5.38.15-8.08,0-.07,0-.14,0-.21.17-3.14.31-6.27.26-9.41A1.76,1.76,0,0,0,140.57,117.16Z"/><path class="i" d="M122.85,108a8.82,8.82,0,0,1,1.38,4.71q.42,9.11.72,18.22a9.1,9.1,0,0,0,1.13,4.76,2.66,2.66,0,0,1,.2.46,1.53,1.53,0,0,1,0,.31h-7c-.05-2-.17-3.92-.25-5.88-.1-2.5-.21-5-.29-7.51,0-1.37-.14-2.74-.18-4.11s-.71-2.09-2-2.1c-.38-1.34-.77-1.75-1.64-1.73s-1.33.72-1.57,1.93a9.39,9.39,0,0,0,0,2.2c.21,5.55.42,11.1.65,16.65,0,.6-.15.75-.73.75-1.9,0-3.8.1-5.69.16a6.29,6.29,0,0,0,.54-4.07c-.17-1.51-.11-3-.21-4.53-.15-2.36-.23-4.72-.3-7.09-.08-2.84-.24-5.67-.3-8.51a2.53,2.53,0,0,0-.43-1.4c-.43-.65-.84-1.32-1.25-2-.19-.3-.23-.51.26-.52,2.34-.08,4.68-.18,7-.27l.14,2.3c.59-.86.8-1.7,1.35-2.33.49,0,.43.41.44.75a12.83,12.83,0,0,0,.23,3.38,12.42,12.42,0,0,1,1-2.06,5.48,5.48,0,0,1,6.09-2.71.79.79,0,0,0,.55,0l0,0Z"/><path class="j" d="M112.91,108.47c-2.34.09-4.68.19-7,.27-.49,0-.45.22-.26.52.41.66.82,1.33,1.25,2a2.53,2.53,0,0,1,.43,1.4c.06,2.84.22,5.67.3,8.51.07,2.36.15,4.73.3,7.09.09,1.51,0,3,.21,4.53a6.29,6.29,0,0,1-.54,4.07c-1,.23-2,0-3.09.26.53-1,1-1.92,1.44-2.79a2.42,2.42,0,0,0,.29-1.35c-.13-2.84-.22-5.69-.33-8.53q-.28-7-.55-14a1.39,1.39,0,0,0-.26-.72l-1.65-2.62a1.63,1.63,0,0,1,.84-.16c2.65-.11,5.31-.2,8-.33.48,0,.71.08.66.6S113,108,112.91,108.47Z"/><path class="j" d="M137.47,108.46c-2.3.1-4.59-.15-6.89-.15-.49,0-.66.07-.37.56.41.72.76,1.47,1.18,2.19a1.89,1.89,0,0,1,.24,1.37,10.86,10.86,0,0,0-.11,2.33c0,2.2-.12,4.4-.18,6.6-.08,3.07-.18,6.15-.29,9.22q-.07,2-.1,4a2,2,0,0,1-.38,1.05,1.76,1.76,0,0,0-.35.77h-2.59c.44-1,.83-1.86,1.24-2.73a2.47,2.47,0,0,0,.24-1q.3-11.32.63-22.63a1.82,1.82,0,0,0-.26-.94L128,106.36c.53,0,.94,0,1.36,0,2.51.08,5,.19,7.54.25.5,0,.68.14.61.65A12,12,0,0,0,137.47,108.46Z"/><path class="j" d="M116.58,116.88c1.24,0,1.91.67,2,2.1s.14,2.74.18,4.11c.07,2.5.18,5,.29,7.51.08,2,.2,3.92.25,5.88-1.94.18-1.91.18-2-1.7-.22-5.8-.46-11.6-.7-17.4C116.57,117.21,116.58,117,116.58,116.88Z"/><path class="k" d="M140.57,117.16a1.76,1.76,0,0,1,1.76,2c0,3.14-.09,6.28-.26,9.41,0,.07,0,.14,0,.21.09,2.7-.19,5.38-.15,8.08-1.86.09-1.88.09-1.84-1.73.14-5.54.3-11.07.45-16.61C140.54,118.06,140.56,117.61,140.57,117.16Z"/><path class="k" d="M122.74,107.83a.79.79,0,0,1-.55,0,5.48,5.48,0,0,0-6.09,2.71,12.42,12.42,0,0,0-1,2.06,12.83,12.83,0,0,1-.23-3.38c0-.33,0-.7-.44-.75C116,105.46,120.83,104.76,122.74,107.83Z"/><path class="k" d="M147.34,108.6c-.42,0-.75-.23-1.15-.31a5.38,5.38,0,0,0-5.59,2.36,15.26,15.26,0,0,0-1.33,2.18,23.72,23.72,0,0,1,.08-3.67c0-.3,0-.59-.41-.58a5,5,0,0,1,8.2-.36A2.86,2.86,0,0,1,147.34,108.6Z"/><path class="b" d="M104.9,126.29l-1.43.12,0-1.28a4.39,4.39,0,0,1,1.44-.15Z"/><path class="k" d="M122.85,108l-.13-.18C122.82,107.86,122.84,107.94,122.85,108Z"/><path class="l" d="M73.66,108.32A8.6,8.6,0,0,1,76,110.78a23.12,23.12,0,0,1,3.31,8.41A32.37,32.37,0,0,1,80,129.72a12.59,12.59,0,0,1-9.63,11.22c-3.28.87-6.66,1.21-10,1.85-.35.07-.7.1-1.05.15.2-.58.38-1.17.59-1.74a1.28,1.28,0,0,0,.09-.69l-2.42-14.06c-.71-4.11-1.44-8.21-2.11-12.32a4.75,4.75,0,0,0-1.24-2.69,19.41,19.41,0,0,1-1.27-1.52c-.65-.82-.64-.83.45-1l9.69-1.59a20.23,20.23,0,0,1,7.88.17C71.88,107.69,72.76,108,73.66,108.32ZM68,114.77l-.14-.17A4.19,4.19,0,0,0,65,112.92a14.31,14.31,0,0,0-2,.22c-.51,0-.61.19-.52.7,1,6.05,2.05,12.11,3.08,18.16.09.53,0,1.27.36,1.54s1.06-.13,1.62-.15a1.34,1.34,0,0,0,.21,0c0,.07,0,.14,0,.21.08,1.68.08,1.67,1.69,1.39a3.75,3.75,0,0,0,2.54-1.37,6.85,6.85,0,0,0,1.18-4,29.59,29.59,0,0,0-.91-7.86,14.1,14.1,0,0,0-2.19-5.5c-.52-.69-1-1.44-2.05-1.44Z"/><path class="k" d="M73.66,108.32c-.9-.29-1.78-.64-2.69-.85a20.23,20.23,0,0,0-7.88-.17l-9.69,1.59c-1.1.18-1.1.19-.45,1a19.41,19.41,0,0,0,1.27,1.52,4.75,4.75,0,0,1,1.24,2.69c.67,4.11,1.4,8.22,2.11,12.32L60,140.5a1.28,1.28,0,0,1-.09.69c-.21.58-.4,1.16-.59,1.74l-3.09.62c.46-1.21.83-2.3,1.31-3.34a3.26,3.26,0,0,0,.18-2.05q-1.28-7.26-2.53-14.53-1.07-6.15-2.12-12.3a1.38,1.38,0,0,0-.38-.66c-.83-1-1.66-2-2.56-3.08,1.28-.24,2.45-.47,3.63-.67,2.49-.42,5-.9,7.49-1.23a18,18,0,0,1,10.36,1.22A6.12,6.12,0,0,1,73.66,108.32Z"/><path class="i" d="M102.29,128a12.3,12.3,0,0,1-2.85,7.62A8.1,8.1,0,0,1,89.06,137l0-.1-.09.06,0,0c.09-.24-.07-.41-.2-.57a12.44,12.44,0,0,1-2-3.83,34.22,34.22,0,0,1-1.61-12.92,18.65,18.65,0,0,1,1.31-6.06c1.91-4.51,5.89-6,10.19-4.94.5.13,1,.31,1.48.47a8.65,8.65,0,0,1,2,2.9,24.82,24.82,0,0,1,2,8.09c.08.71.09,1.42.2,2.12s-.11.67-.62.71c-3.47.29-6.93.64-10.4.93-.51,0-.62.22-.56.69a17,17,0,0,0,1,4.64c.41.94.93,1.79,2.14,1.76a2,2,0,0,0,.78,1.3,1.75,1.75,0,0,0,2.72-.77,8.54,8.54,0,0,0,.79-2.7c0-.26.07-.43.4-.46A34.09,34.09,0,0,1,102.29,128Zm-7.67-13.09-.22-.36a2.08,2.08,0,0,0-2-1.32c-1,.08-1.39.81-1.69,1.62a9.11,9.11,0,0,0-.43,3.72c0,.43.22.5.59.46s1-.08,1.49-.12c0,.45,0,.9,0,1.35s.18.51.57.47c1.3-.15,2.61-.29,3.92-.39.41,0,.54-.18.51-.56a9.25,9.25,0,0,0-.91-3.53A2.29,2.29,0,0,0,94.62,114.88Z"/><path class="k" d="M98.17,109c-.49-.16-1-.34-1.48-.47-4.3-1.08-8.27.43-10.19,4.94a18.65,18.65,0,0,0-1.31,6.06,34.22,34.22,0,0,0,1.61,12.92,12.44,12.44,0,0,0,2,3.83c.13.16.29.33.2.57A10.52,10.52,0,0,1,85.22,132a26.4,26.4,0,0,1-1.87-7.68,34.46,34.46,0,0,1-.13-7.45,15.58,15.58,0,0,1,2-6.45,7.68,7.68,0,0,1,7.26-3.86,7.84,7.84,0,0,1,5.43,2.09C98,108.76,98.18,108.84,98.17,109Z"/><path class="j" d="M102.29,128a34.09,34.09,0,0,0-3.73.29c-.32,0-.36.2-.4.46a8.54,8.54,0,0,1-.79,2.7,1.75,1.75,0,0,1-2.72.77,2,2,0,0,1-.78-1.3,1.79,1.79,0,0,0,1.33-.95,5.65,5.65,0,0,0,.82-2.82c0-.42.14-.56.56-.59,1.79-.15,3.58-.33,5.37-.52.33,0,.49,0,.47.41A6.22,6.22,0,0,1,102.29,128Z"/><path class="b" d="M94.07,129.75c-.18-.9-.39-1.79-.52-2.7s-.17-1,.8-1.17a7,7,0,0,1,.85,0,8,8,0,0,1-.61,3.17A1.12,1.12,0,0,1,94.07,129.75Z"/><path class="k" d="M89,136.92l.09-.06,0,.1Z"/><path class="b" d="M173.82,145.07a1.45,1.45,0,0,1-2.19.06l.09-.1c.46.11.58-.12.55-.54,0-.15-.07-.36.15-.42s.33.11.43.28c.22.38.4.83,1,.72Z"/><path class="b" d="M173.88,142.61a1.54,1.54,0,0,1-.06,2.47h0c0-.29-.26-.49-.39-.74s-.25-.27,0-.38c.69-.28.52-.78.34-1.29Z"/><path class="b" d="M171.64,145.14a1.61,1.61,0,0,1,.06-2.62h0l0,2.53Z"/><path class="b" d="M171.69,142.51a1.48,1.48,0,0,1,2.19.09l-.07.06a5.87,5.87,0,0,0-2.13-.16Z"/><path class="d" d="M67.66,133.34a1.34,1.34,0,0,1-.21,0c-.56,0-1.23.48-1.62.15s-.27-1-.36-1.54c-1-6.05-2-12.11-3.08-18.16-.09-.5,0-.66.52-.7a14.31,14.31,0,0,1,2-.22,4.19,4.19,0,0,1,2.86,1.68l.14.17h0a16.82,16.82,0,0,1,1,1.88,27.58,27.58,0,0,1,1.89,12.55C70.61,131.14,69.84,132.81,67.66,133.34ZM70,126.6a33,33,0,0,0-1-6.5,14.07,14.07,0,0,0-1.7-4.42,3.18,3.18,0,0,0-3.2-1.69c-.54.06-.62.25-.54.71q1.49,8.61,3,17.22c.08.48.29.51.66.46a2.58,2.58,0,0,0,2.19-1.69A10.1,10.1,0,0,0,70,126.6Z"/><path class="k" d="M67.66,133.34c2.17-.53,2.94-2.2,3.14-4.15a27.58,27.58,0,0,0-1.89-12.55,16.82,16.82,0,0,0-1-1.88c1,0,1.54.75,2.05,1.44a14.1,14.1,0,0,1,2.19,5.5,29.59,29.59,0,0,1,.91,7.86,6.85,6.85,0,0,1-1.18,4,3.75,3.75,0,0,1-2.54,1.37c-1.6.28-1.6.29-1.69-1.39C67.68,133.48,67.67,133.41,67.66,133.34Z"/><path class="k" d="M68,114.77l-.14-.17Z"/><path class="e" d="M92.33,118.88c-.5,0-1,.06-1.49.12s-.57,0-.59-.46a9.11,9.11,0,0,1,.43-3.72c.3-.81.73-1.54,1.69-1.62a2.08,2.08,0,0,1,2,1.32l.22.36a27,27,0,0,1,.67,3c.07.48.09.75-.56.8A11.63,11.63,0,0,0,92.33,118.88Zm.3-1.08c.4,0,.8-.07,1.19-.08s.43-.15.37-.44a6.35,6.35,0,0,0-.71-2.26,1.05,1.05,0,0,0-1.06-.78c-.5,0-.65.52-.77.92a7.26,7.26,0,0,0-.3,1.45C91.22,118,91.24,118,92.63,117.79Z"/><path class="k" d="M92.33,118.88a11.63,11.63,0,0,1,2.4-.24c.66,0,.63-.31.56-.8a27,27,0,0,0-.67-3,2.29,2.29,0,0,1,1.8,1.33,9.25,9.25,0,0,1,.91,3.53c0,.38-.1.53-.51.56-1.31.1-2.61.25-3.92.39-.38,0-.59,0-.57-.47S92.33,119.32,92.33,118.88Z"/><path class="h" d="M171.68,142.51a5.87,5.87,0,0,1,2.13.16c.17.51.35,1-.34,1.29-.28.11-.09.25,0,.38s.35.45.39.74c-.58.11-.76-.33-1-.72-.1-.17-.19-.35-.43-.28s-.16.27-.15.42c0,.41-.08.65-.55.54Zm1.08,1c.23,0,.56.05.56-.27s-.35-.29-.59-.3-.45-.08-.46.26S172.57,143.48,172.77,143.51Z"/><path class="m" d="M70,126.6a10.1,10.1,0,0,1-.58,4.08,2.58,2.58,0,0,1-2.19,1.69c-.37,0-.58,0-.66-.46q-1.45-8.61-3-17.22c-.08-.46,0-.65.54-.71a3.18,3.18,0,0,1,3.2,1.69A14.07,14.07,0,0,1,69,120.1,33,33,0,0,1,70,126.6Z"/><path class="g" d="M92.63,117.79c-1.39.21-1.41.2-1.29-1.19a7.26,7.26,0,0,1,.3-1.45c.12-.4.28-.88.77-.92a1.05,1.05,0,0,1,1.06.78A5.92,5.92,0,0,0,92.63,117.79Z"/><path class="b" d="M92.63,117.79a5.92,5.92,0,0,1,.85-2.78,6.35,6.35,0,0,1,.71,2.26c.06.3-.05.44-.37.44S93,117.77,92.63,117.79Z"/><path class="b" d="M172.77,143.51c-.2,0-.5.09-.49-.3s.27-.27.46-.26.6-.07.59.3S173,143.49,172.77,143.51Z"/></svg>