<svg xmlns="http://www.w3.org/2000/svg" xmlns:xlink="http://www.w3.org/1999/xlink" viewBox="0 0 250 250"><defs><clipPath id="a"><path d="M196.22,134a2.7,2.7,0,0,0,.65-.25l-.75.4Z" style="fill:none"/></clipPath><clipPath id="b"><path d="M79.22,108.31c-.36.19-.53.29-.89.51h-.11Z" style="fill:none"/></clipPath><clipPath id="c"><path d="M188.64,115a4.26,4.26,0,0,0,1-.13l-1,.28C188.63,115,188.65,115,188.64,115Z" style="fill:none"/></clipPath><clipPath id="d"><path d="M99.31,133.63a1.75,1.75,0,0,0-.43.83l-.12-.86C99,133.75,99.19,133.77,99.31,133.63Z" style="fill:none"/></clipPath><clipPath id="e"><path d="M78.27,108.78c.51-.25.86-.42,1.47-.75l-1.52.81Z" style="fill:none"/></clipPath><clipPath id="f"><path d="M98.91,134.73c0-.26-.09-.58-.19-1.1l0,0Z" style="fill:none"/></clipPath><clipPath id="g"><path d="M176.83,129.85a4.15,4.15,0,0,0,.67-1.11c-.07.17,0,.29.1.35Z" style="fill:none"/></clipPath><clipPath id="h"><path d="M129.92,119.67c-.92.9-1.72,1.91-2.66,2.78l-.93-1.11c.68.34,2.21-.53,4.08-2.12C130.18,119.43,130.08,119.52,129.92,119.67Z" style="fill:none"/></clipPath><clipPath id="i"><path d="M149.13,118.13c-.89.82-1.67,1.74-2.58,2.54l-.89-1.15c.67.36,2.16-.4,4-1.83C149.45,117.85,149.33,118,149.13,118.13Z" style="fill:none"/></clipPath><clipPath id="j"><path d="M83.77,159.77a23.8,23.8,0,0,0-2.2,1.49L84,159.41A1.67,1.67,0,0,1,83.77,159.77Z" style="fill:none"/></clipPath><clipPath id="k"><path d="M35.11,113.23a3,3,0,0,0,1.16-1.34,1,1,0,0,0,.2,1.29Z" style="fill:none"/></clipPath><clipPath id="l"><path d="M53.74,153.48a2.92,2.92,0,0,0-.73-1.3s.1-.15.31-.52Z" style="fill:none"/></clipPath><clipPath id="m"><path d="M185,113.24l-.6-1.83,6,3.19-1.87.52Z" style="fill:none"/></clipPath><clipPath id="n"><path d="M195.71,137.14c-60.3,1.24-108.39,22.74-114.57,24.44C87.32,159.88,135.41,138.38,195.71,137.14Z" style="fill:none"/></clipPath><clipPath id="o"><path d="M146.72,120.9c-.31,0,15.42-16.34,13.79-21.87C162.14,104.56,146.4,120.89,146.72,120.9Z" style="fill:none"/></clipPath><clipPath id="p"><path d="M119.54,126.24h0c0-10.15,7.16-32.82,23.88-35.67C126.71,93.42,119.54,116.09,119.54,126.24Z" style="fill:none"/></clipPath><clipPath id="q"><path d="M141.88,100h0c0,6.37-14.74,22.64-14.44,22.64C127.14,122.68,141.88,106.41,141.88,100Z" style="fill:none"/></clipPath><clipPath id="r"><path d="M153.65,125.62h0c0-15.61,19.4-19.46,20.63-6.72C173.05,106.16,153.65,110,153.65,125.62Z" style="fill:none"/></clipPath><clipPath id="s"><path d="M203.62,122.76h0c-2.13,0-4.3,3.12-2.39,5.35C199.32,125.87,201.49,122.76,203.62,122.76Z" style="fill:none"/></clipPath><clipPath id="t"><path d="M54.68,140.89l6.93-7.23c.51-.41,10.19-8.12,14.24-4.76,3.74,3.11,3,7.29,7.58,6.79,2.73-.3,6.2-5.11,10.33-10.59,2.68-3.55,9.54-14.43.65-22.63l.9-1c9.74,9,2.32,20.7-.48,24.42C90.67,131.41,87,136.56,83.58,137c-6.05.53-5.22-4.3-8.57-7.09C72.07,127.28,62.93,134.31,54.68,140.89Z" style="fill:none"/></clipPath><clipPath id="u"><path d="M175.71,125.84l-1.29-.41,2.5-3.61,4-3.46Z" style="fill:none"/></clipPath><clipPath id="v"><path d="M177.59,129.08l-.94.94c-.51-.62-3-2.08-2.22-4.59l1.29.41C175.19,127.27,177,128.4,177.59,129.08Z" style="fill:none"/></clipPath><clipPath id="w"><path d="M41.46,101l-1.26-.5c3.05-3.49,19-9.7,34.7-10.56s31,3.61,32.76,21.5c.52,5.25-1.48,10.61-5.37,16-1.85,2.57,5.7-1.67,9.41-8.8l.64,1.65c-3.36,6.51-13.15,11.14-11.14,6.38,3.74-5.21,5.61-10.27,5.13-15.12C104.69,94.74,90.21,90.46,75,91.28,59.57,92.14,43.92,98.25,41.46,101Z" style="fill:none"/></clipPath><clipPath id="x"><path d="M112.35,120.32l-.64-1.65,7.9,2.84-1.71.8Z" style="fill:none"/></clipPath><clipPath id="y"><path d="M117.89,122.32l1.71-.8c-.6,1.67-7.79,7.8-7,11.15.35,1.53,5-2.52,7.08-4.43l1.41.52c-2.66,2.41-8.23,7.32-9.79,4.2C110.41,128.61,117.94,122.3,117.89,122.32Z" style="fill:none"/></clipPath><clipPath id="z"><path d="M121.06,128.76l-1.41-.52c-1.1-8.75,5.84-34.61,23.77-37.67l.22,1.31C126.69,94.72,119.92,119.75,121.06,128.76Z" style="fill:none"/></clipPath><clipPath id="aa"><path d="M143.65,91.89l-.22-1.31c4.17-.56,5.3,1.62,5.7,3.2l-1.29.32C147.53,92.93,146.83,91.51,143.65,91.89Z" style="fill:none"/></clipPath><clipPath id="ab"><path d="M147.83,94.09l1.29-.32c.72,3.16-1.66,8.72-1.53,8.52l1.11.74C146.41,104.06,148.46,96.72,147.83,94.09Z" style="fill:none"/></clipPath><clipPath id="ac"><path d="M148.71,103l-1.11-.74C150.82,98,153.8,93.16,160,91l.44,1.26C154.7,94.25,151.87,98.84,148.71,103Z" style="fill:none"/></clipPath><clipPath id="ad"><path d="M160.42,92.29,160,91c1.93-.69,4-.86,5.4.53l-.94.94C163.59,91.62,162.07,91.71,160.42,92.29Z" style="fill:none"/></clipPath><clipPath id="ae"><path d="M164.44,92.5l.94-.94c6.39,7.91-12.7,30.71-17.83,34.43l-1.33-.68C151.69,121.35,170,99.09,164.44,92.5Z" style="fill:none"/></clipPath><clipPath id="af"><path d="M146.22,125.3l1.33.68a3.29,3.29,0,0,0,.59,2l-1,1C146.19,127.84,146.22,126.08,146.22,125.3Z" style="fill:none"/></clipPath><clipPath id="ag"><path d="M147.19,128.91l1-1c2.64,1.32,5.37-1.6,5.51-1.75l1.35.51C154.45,127.31,151.19,130.9,147.19,128.91Z" style="fill:none"/></clipPath><clipPath id="ah"><path d="M155,126.72l-1.35-.51c-.5-16.11,19.38-20.21,20.62-7.31l-1.22,1.28C172.19,107.69,154.49,111.44,155,126.72Z" style="fill:none"/></clipPath><clipPath id="ai"><path d="M173.06,120.18l1.22-1.28c2.37.1,9-5.16,10.17-7.49l.6,1.83C184.31,114.7,177.28,120.3,173.06,120.18Z" style="fill:none"/></clipPath><clipPath id="aj"><path d="M187.67,126.76l-1.33.09c0-1.6,1.71-3.5,2-4.06l2-.81C189.12,124.15,187.63,125.84,187.67,126.76Z" style="fill:none"/></clipPath><clipPath id="ak"><path d="M184.21,122.85l3.39-4.16c.46-.34,9.27-6.85,12.11-4.4l-.87,1C197.13,113.6,188.83,119.43,184.21,122.85Z" style="fill:none"/></clipPath><clipPath id="al"><path d="M198.84,115.3l.87-1c1.81,1.24-.88,3.75-4.34,8.75l-2.93,1.9C197.73,117.26,199.64,115.37,198.84,115.3Z" style="fill:none"/></clipPath><clipPath id="am"><path d="M192.44,124.93l2.93-1.9c1.78-.33,8.42-5.72,9.94-7.56l1.33.48C204.7,118.31,197.86,123.89,192.44,124.93Z" style="fill:none"/></clipPath><clipPath id="an"><path d="M206.64,115.95l-1.33-.48c0-1.05-2-5.89,5.07-8.41l.45,1.26C205,110.41,206.65,114.2,206.64,115.95Z" style="fill:none"/></clipPath><clipPath id="ao"><path d="M169.38,115.77l-2.21,2c-5,1.38-7.42,6-5.61,8.51l-1.1.78C158.06,123.54,161.08,118,169.38,115.77Z" style="fill:none"/></clipPath><clipPath id="ap"><path d="M172.11,120.78l-3,2.13c-.74.19-3.14-2-1.92-5.15l2.21-2C167.57,120.45,169.16,121.64,172.11,120.78Z" style="fill:none"/></clipPath><clipPath id="aq"><path d="M160.47,127l1.1-.78c2.8,2.47,6.21-1.39,7.53-3.37l3-2.13C168.76,125.82,164.67,130.61,160.47,127Z" style="fill:none"/></clipPath><clipPath id="ar"><path d="M140.5,127.21l-1.45-.57c-.28-1.6-.33-5,2.49-13.21l5.14-10.81C140,121.84,140.12,125,140.5,127.21Z" style="fill:none"/></clipPath><clipPath id="as"><path d="M146.68,102.62l-5.14,10.81c-4.37,7-13,14.23-13.49,14.61l-1.47-.51C127.63,126.64,136.17,119.55,146.68,102.62Z" style="fill:none"/></clipPath><clipPath id="at"><path d="M126.58,127.52,128,128c1.3,6,10.51-1,11-1.39l1.45.57C139.34,128.09,128.95,135.9,126.58,127.52Z" style="fill:none"/></clipPath><clipPath id="au"><path d="M126.33,121.34l.93,1.11.18.22c-.31,0,16.14-18.15,14.29-23.61-.76-2.26-11.55,8.66-14.29,23.61l-.18-.22-.93-1.11C128.93,107,140.74,94.94,143,98.64c1.53,4.87-7,15.89-12.59,20.59C128.53,120.81,127,121.68,126.33,121.34Z" style="fill:none"/></clipPath><clipPath id="av"><path d="M145.66,119.52l.89,1.15.17.23c-.31,0,15.42-16.34,13.79-21.87-.67-2.28-10.46,7-13.79,21.87l-.17-.23-.89-1.15c3.16-14.19,14-24.66,16.12-20.88,1.33,4.89-6.81,14.86-12.14,19C147.82,119.13,146.33,119.88,145.66,119.52Z" style="fill:none"/></clipPath><linearGradient id="aw" x1="64.59" y1="-1681.01" x2="166.01" y2="-1782.42" gradientTransform="matrix(1, 0, 0, -1, 6, -1611)" gradientUnits="userSpaceOnUse"><stop offset="0" stop-color="#fff"/><stop offset="0.08" stop-color="#cb1626"/><stop offset="0.2" stop-color="#fff"/><stop offset="0.24" stop-color="#cb1626"/><stop offset="0.92" stop-color="#cb1626"/><stop offset="0.96" stop-color="#fff"/><stop offset="0.99" stop-color="#cb1626"/></linearGradient><clipPath id="ax"><path d="M210.82,108.32l-.45-1.26c1-.33,2.35-.41,3,.33l-1,.85C212.26,108.11,211.51,108.1,210.82,108.32Z" style="fill:none"/></clipPath><clipPath id="ay"><path d="M122.16,107.32l1.09.76c-2.8,4-5.44,5.12-8.08,3.26s-2.65-5.52,1-10.49c3.41-4.66,6.19-5.35,9.11-3.13,2.46,1.88.78,6.35-2,10.35l-1.09-.76c2.62-3.78,3.84-7.48,2.3-8.53-2.18-1.65-4.16-1.23-7.22,2.86-3.25,4.52-3.05,7.4-1.29,8.61S120.38,110.21,122.16,107.32Z" style="fill:none"/></clipPath><clipPath id="az"><path d="M212.32,108.25l1-.85c1.52,2.11-.81,4.34-1.67,6.19l-1.51.08C211.38,111,213.14,109.23,212.32,108.25Z" style="fill:none"/></clipPath><clipPath id="ba"><path d="M210.17,113.66l1.51-.08c2.52,4.19,6.58,12.32-1.25,16l-.57-1.21C216.44,125.4,212.94,118.27,210.17,113.66Z" style="fill:none"/></clipPath><clipPath id="bb"><path d="M209.86,128.35l.57,1.21c-4.68,2.24-7.23.56-9.19-1.46l1-.93C203.89,128.91,205.87,130.23,209.86,128.35Z" style="fill:none"/></clipPath><clipPath id="bc"><path d="M202.19,127.17l-1,.93c-2.21-2.57,1-6.33,3.35-5.11.87.45.69,1.36,1.71,1.84l-.57,1.2c-1.68-.88-1.52-1.82-1.76-1.86C203,123.53,200.9,125.79,202.19,127.17Z" style="fill:none"/></clipPath><clipPath id="bd"><path d="M205.73,126l.57-1.2c1,.52,2-.41,2.5-1.07l1.09.77C209.26,125.45,207.65,127,205.73,126Z" style="fill:none"/></clipPath><clipPath id="be"><path d="M209.9,124.53l-1.09-.77a3.74,3.74,0,0,0,0-3l1.27-.49C210.5,121.36,210.77,123.29,209.9,124.53Z" style="fill:none"/></clipPath><clipPath id="bf"><path d="M210.09,120.25l-1.27.49a12.33,12.33,0,0,0-1.47-2.78l.19-2.42C208.74,117.69,210.11,119.62,210.09,120.25Z" style="fill:none"/></clipPath><clipPath id="bg"><path d="M207.55,115.54l-.19,2.42c-5.55,7.12-20.58,15.12-21,8.9l1.33-.09C187.29,131.25,201,123.93,207.55,115.54Z" style="fill:none"/></clipPath><clipPath id="bh"><path d="M195,135.83l.72,1.32c-60.3,1.24-108.39,22.74-114.57,24.44L84,159.41C86.85,158.63,135.12,137.06,195,135.83Z" style="fill:none"/></clipPath><clipPath id="bi"><path d="M87.17,152l-1-1.1c20.62-6.39,56.42-18.09,112.4-18.12l-2.49,1.33C142.85,134.16,107.19,145.81,87.17,152Z" style="fill:none"/></clipPath><clipPath id="bj"><path d="M121.59,130.41l-.59,2.26c-.61.52-12.14,10.38-17.22,6.26l.84-1C108.56,141.28,119.56,132.15,121.59,130.41Z" style="fill:none"/></clipPath><clipPath id="bk"><path d="M104.62,137.89l-.84,1c-2.48-2.21-1.37-6.13-1.31-6.34l1.29.36C103.71,133.1,102.84,136.35,104.62,137.89Z" style="fill:none"/></clipPath><clipPath id="bl"><path d="M124.26,134.69l-.49,1.24c-1.84-.77-2.72-3.14-2.76-3.27l.59-2.26C122.29,132.29,123,134.2,124.26,134.69Z" style="fill:none"/></clipPath><clipPath id="bm"><path d="M141.41,129.05l-1,2.1c-.58.34-11.57,6.79-16.69,4.78l.49-1.24C128.61,136.48,139.22,130.33,141.41,129.05Z" style="fill:none"/></clipPath><clipPath id="bn"><path d="M99.41,129.33,98.19,133c-11.06,14.13-21.66,14-23.33,8.32l1.28-.38C77.26,145.29,86.47,145.68,99.41,129.33Z" style="fill:none"/></clipPath><clipPath id="bo"><path d="M155.52,128l-.35,1.76c-13.44,8-14.65,1.72-14.72,1.39l1-2.1C141.8,131.06,142.23,135.91,155.52,128Z" style="fill:none"/></clipPath><clipPath id="bp"><path d="M53.32,151.66l.44,1.92A47.43,47.43,0,0,0,43.43,149l1.91-.78A52.61,52.61,0,0,1,53.32,151.66Z" style="fill:none"/></clipPath><clipPath id="bq"><path d="M45.34,148.24l-1.91.78,22.91-43.69.71,1.51Z" style="fill:none"/></clipPath><clipPath id="br"><path d="M172.32,122.12l1.12,1.17c-1.2,5.93-12.92,13.65-18.27,6.49l.35-1.76C160.58,135,171.12,128.16,172.32,122.12Z" style="fill:none"/></clipPath><clipPath id="bs"><path d="M180.95,118.36l-4,3.46a24.35,24.35,0,0,1-3.48,1.46l-1.12-1.17C173.76,121.89,176.21,120.69,180.95,118.36Z" style="fill:none"/></clipPath><clipPath id="bt"><path d="M36.47,113.18h-.33l-1.14,0c.18-.43,3.62-8.7,5.2-12.72l1.26.5C39.86,105,36.42,113.31,36.47,113.18Z" style="fill:none"/></clipPath><clipPath id="bu"><path d="M98.91,134.73c-.05-.36-.1-.65-.19-1.1,0,0,4.3-3.19,5-.69l-1.29-.36c.07-.43-3.32,2.43-3.5,2.58Z" style="fill:none"/></clipPath><clipPath id="bv"><path d="M79.22,108.31c-.37.2-.53.29-.87.51.15-.1-5-.68-11.3-2l-.71-1.51c7.68,1.58,12.95,2.13,14.62,2.06Z" style="fill:none"/></clipPath><clipPath id="bw"><path d="M53.74,153.48a2.94,2.94,0,0,0-.72-1.29s.39-.86.78-1.89c.92-2.47,5.18-8.68,9.67-12.46,4.78-4.1,10.61-5.51,12.67,3.14l-1.28.38c-1.67-7.36-6.21-6.13-10.54-2.5s-8.45,9.66-9.28,11.9a20.64,20.64,0,0,1-1.28,2.81Z" style="fill:none"/></clipPath><clipPath id="bx"><path d="M176.83,129.85a4,4,0,0,0,.67-1.11c.68-1.57,9.75-7.46,12.89-6.75l-2,.81c-.81-.23-11.49,7.46-11.72,7.23Z" style="fill:none"/></clipPath><clipPath id="by"><path d="M35.11,113.23a3.06,3.06,0,0,0,1.16-1.34c.92-1.91,5.7-4.69,8.53-6.17,10.44-5.42,35.4-16.07,50.52-4.24l-.9,1c-14.29-11.24-38.7-.91-49,4.45-3.51,1.82-10.34,6.46-10.41,6.32Z" style="fill:none"/></clipPath><clipPath id="bz"><path d="M196.22,134a2.66,2.66,0,0,0,.65-.25l1.74-.93-2.9,4.35-.72-1.32Z" style="fill:none"/></clipPath><clipPath id="ca"><path d="M99.31,133.63a1.79,1.79,0,0,0-.43.83l.1.71c-.72-.33-.78-2-.78-2.12l1.22-3.72C99.49,132,99.59,133.29,99.31,133.63Z" style="fill:none"/></clipPath><clipPath id="cb"><path d="M78.27,108.78c.48-.23.81-.4,1.39-.7l1.29-.69c-.73,1-14.67,19.87-19.34,26.26l-6.93,7.23C64.87,126.93,78.27,108.78,78.27,108.78Z" style="fill:none"/></clipPath><clipPath id="cc"><path d="M188.64,115a4.13,4.13,0,0,0,1-.13l.84-.23a28.41,28.41,0,0,0-2.84,4.08l-3.39,4.16C186.86,117.11,188.52,115,188.64,115Z" style="fill:none"/></clipPath><clipPath id="cd"><path d="M83.77,159.77a24,24,0,0,0-2.2,1.49l-.43.33c.25-.41,4.83-10.16,5.07-10.67l.92,1.06,0,0S83.43,160,83.77,159.77Z" style="fill:none"/></clipPath></defs><title>Grocery</title><path d="M196.22,134a2.7,2.7,0,0,0,.65-.25l-.75.4Z" style="fill:#ed1c2e"/><g style="clip-path:url(#a)"><path d="M196.51,133.89l.12-.05.13-.06.1-.05-.75.4.1-.15h0l.13,0,.13,0,0,0" style="fill:#bc1322"/></g><path d="M79.22,108.31c-.36.19-.53.29-.89.51h-.11Z" style="fill:#ed1c2e"/><g style="clip-path:url(#b)"><path d="M79.22,108.31c-.36.19-.53.29-.89.51h-.11l1-.53" style="fill:#bc1322"/><path d="M79.22,108.31l-.39.22-.18.11-.28.17,0,0c.36-.22.36-.22.73-.42h0l.09,0" style="fill:#bc1322"/></g><path d="M188.64,115a4.26,4.26,0,0,0,1-.13l-1,.28C188.63,115,188.65,115,188.64,115Z" style="fill:#ed1c2e"/><g style="clip-path:url(#c)"><path d="M188.64,115a4.26,4.26,0,0,0,1-.13l-1,.28c.06-.1.08-.16.06-.16" style="fill:#db192a"/><path d="M189.6,114.83h0" style="fill:#db192a"/><path d="M188.82,115l.27,0,.12,0,.14,0,.11,0,.08,0h0l-.39.11-.55.15c.06-.1.08-.16.06-.16h.18" style="fill:#db192a"/><path d="M189.47,114.86h0" style="fill:#bc1322"/><path d="M188.82,115l.27,0,.12,0,.14,0h0a4.07,4.07,0,0,1-.72.07h.18" style="fill:#bc1322"/></g><path d="M99.31,133.63a1.75,1.75,0,0,0-.43.83l-.12-.86C99,133.75,99.19,133.77,99.31,133.63Z" style="fill:#ed1c2e"/><g style="clip-path:url(#d)"><path d="M99.31,133.63a1.75,1.75,0,0,0-.43.83l-.12-.86c.26.15.44.17.55,0" style="fill:#bc1322"/><path d="M98.88,134.47v0h0" style="fill:#bc1322"/><path d="M99.22,133.74l0-.06,0,.06" style="fill:#bc1322"/><path d="M99.16,133.82a1.65,1.65,0,0,0-.25.46l0,.07a.84.84,0,0,0,0,.09h0c0-.19,0-.22,0-.3a2.47,2.47,0,0,1,.31-.37l0,0" style="fill:#db192a"/></g><path d="M78.27,108.78c.51-.25.86-.42,1.47-.75l-1.52.81Z" style="fill:#ed1c2e"/><g style="clip-path:url(#e)"><path d="M78.27,108.78c.51-.25.86-.42,1.47-.75l-1.52.81,0-.06" style="fill:#db192a"/><path d="M79.75,108l0,0h0l0,0" style="fill:#db192a"/><path d="M78.58,108.63l.41-.21.2-.1.19-.1,0,0-.06,0-.35.19-.8.42,0-.06h0l.31-.15" style="fill:#db192a"/><path d="M79.75,108h0" style="fill:#bc1322"/><path d="M78.58,108.63l.33-.16h0l-.57.28.21-.1.06,0" style="fill:#bc1322"/></g><path d="M98.91,134.73c0-.26-.09-.58-.19-1.1l0,0Z" style="fill:#ed1c2e"/><g style="clip-path:url(#f)"><path d="M98.91,134.73c0-.26-.09-.58-.19-1.1l0,0,.16,1.13" style="fill:#f58d76"/><path d="M98.91,134.73v0h0v0" style="fill:#f58d76"/><path d="M98.88,134.48l0,.19v-.11l0-.1,0-.1,0-.11,0-.11,0-.11,0-.12,0-.12,0-.16,0,0,.12.87" style="fill:#f58d76"/><polyline points="98.91 134.73 98.91 134.72 98.91 134.72 98.91 134.73" style="fill:#db192a"/><path d="M98.82,134c0,.2,0,.36.06.44l0-.1v0l0-.11,0-.11,0-.11,0-.12,0-.12,0-.16,0,0,.06.44" style="fill:#db192a"/><path d="M98.75,133.74v.06l0-.12v0h0l0,.1" style="fill:#bc1322"/><path d="M98.83,134.17l0,.1,0-.11v-.1h0s0,.08,0,.12" style="fill:#bc1322"/></g><path d="M176.83,129.85a4.15,4.15,0,0,0,.67-1.11c-.07.17,0,.29.1.35Z" style="fill:#ed1c2e"/><g style="clip-path:url(#g)"><path d="M176.83,129.85a4.15,4.15,0,0,0,.67-1.11c-.07.17,0,.29.1.35l-.77.77" style="fill:#fccdbe"/><path d="M177,129.64l-.08.08-.12.12h0l.1-.11.05-.07.06-.08.06-.08.06-.09.06-.1.06-.1.06-.11.06-.12.06-.12.06-.14c-.07.17,0,.29.1.35l-.56.56" style="fill:#fccdbe"/><path d="M177.14,129.54a1.21,1.21,0,0,0-.23.23l-.08.08h0l.1-.11.05-.07.06-.08.06-.08.06-.09.06-.1.06-.1.06-.11.06-.12.06-.12.06-.14c-.07.17,0,.29.1.35l-.46.46" style="fill:#f58d76"/><path d="M176.83,129.85l0,0h0" style="fill:#db192a"/><path d="M177.3,129.38a1,1,0,0,0-.17.14c-.1.1-.18.21-.27.31l0-.05,0,0,.05-.07.06-.08.06-.08.06-.09.06-.1.06-.1.06-.11.06-.12.06-.12.06-.14c-.07.17,0,.29.1.35l-.3.3" style="fill:#db192a"/><path d="M177,129.59l.12-.18.06-.1.06-.1.06-.11.06-.12.06-.12.06-.13v0a2.22,2.22,0,0,1-.43.8l0,0-.1.12.05-.07,0-.07" style="fill:#bc1322"/></g><path d="M129.92,119.67c-.92.9-1.72,1.91-2.66,2.78l-.93-1.11c.68.34,2.21-.53,4.08-2.12C130.18,119.43,130.08,119.52,129.92,119.67Z" style="fill:#ed1c2e"/><g style="clip-path:url(#h)"><path d="M129.92,119.67l-.25.26c-2.32,2.5-2.41,2.52-2.41,2.52l-.93-1.11c.68.34,2.21-.53,4.08-2.12-.23.2-.33.29-.49.45" style="fill:#bc1322"/><path d="M130.28,119.33l-.34.28.46-.38h0l-.12.11" style="fill:#bc1322"/><path d="M129.72,119.83l-.61.7-.7.74c-.68.71-.77.8-1.07,1.1l0,0c-.16-.12-.4-.42-.23-.59a3.74,3.74,0,0,1,.31-.27c.21-.16.45-.28.66-.44.58-.42,1.14-.87,1.73-1.29l-.07.07" style="fill:#db192a"/><path d="M126.71,121.53a2.45,2.45,0,0,0,.57.91l0,0-.93-1.11a.72.72,0,0,0,.27.07h0a.3.3,0,0,1,.11.12" style="fill:#bc1322"/><path d="M128.22,121.21l-.08.1-.25.28a4.36,4.36,0,0,1-.3.38c-.09.08-.24.23-.36.19s0,0,0,0a1.11,1.11,0,0,1,.27-.4l.17-.12.3-.25c.21-.17.25-.19.32-.2l0,.07" style="fill:#f58d76"/></g><path d="M149.13,118.13c-.89.82-1.67,1.74-2.58,2.54l-.89-1.15c.67.36,2.16-.4,4-1.83C149.45,117.85,149.33,118,149.13,118.13Z" style="fill:#ed1c2e"/><g style="clip-path:url(#i)"><path d="M149.13,118.13l-.26.26c-2.19,2.23-2.32,2.28-2.32,2.28l-.89-1.15c.67.36,2.16-.4,4-1.83-.19.15-.32.26-.51.44" style="fill:#bc1322"/><path d="M149.51,117.8l-.36.27.49-.38h0l-.14.11" style="fill:#bc1322"/><path d="M149,118.24c-.1.09-.64.68-.64.69l-.67.67c-.7.69-.75.73-1,1l0,0c-.16-.13-.37-.45-.22-.6a3.47,3.47,0,0,1,.31-.25c.21-.14.44-.25.65-.39.43-.29.43-.29,1.7-1.17l-.06.05" style="fill:#db192a"/><path d="M146,119.73a2.5,2.5,0,0,0,.53.93l0,0-.89-1.15a.77.77,0,0,0,.27.08l.09.06,0,.06" style="fill:#bc1322"/><path d="M148,119.1l-.28.24-.61.67c-.35.44-.5.43-.52.43a.33.33,0,0,1-.09-.15,1.94,1.94,0,0,1,.3-.35c.1-.08.24-.17.34-.24l.73-.56a1.56,1.56,0,0,1,.2-.14s0,0,0,0-.05.06-.08.08" style="fill:#f58d76"/></g><path d="M83.77,159.77a23.8,23.8,0,0,0-2.2,1.49L84,159.41A1.67,1.67,0,0,1,83.77,159.77Z" style="fill:#ed1c2e"/><g style="clip-path:url(#j)"><path d="M83.77,159.77a23.8,23.8,0,0,0-2.2,1.49L84,159.41a1.67,1.67,0,0,1-.26.36" style="fill:#bc1322"/><path d="M83.57,159.89l-.38.24-.19.12-.19.12-.18.12-.18.12-.17.12-.16.12L82,161l-.15.11-.13.1-.12.09,1.52-1.15.65-.33-.17.1" style="fill:#bc1322"/></g><path d="M35.11,113.23a3,3,0,0,0,1.16-1.34,1,1,0,0,0,.2,1.29Z" style="fill:#ed1c2e"/><g style="clip-path:url(#k)"><path d="M35.11,113.23a3,3,0,0,0,1.16-1.34,1,1,0,0,0,.2,1.29l-1.36,0" style="fill:#bc1322"/><path d="M35.45,113l.12-.1.06-.06.07-.07.06-.07.07-.08.06-.08.06-.09.06-.09.06-.1.06-.1.06-.11.06-.11v0l-.07.16h0c-.1.22-.18.44-.29.66a1.91,1.91,0,0,1-.17.26.8.8,0,0,1-.26.18c-.11,0-.24,0-.36.08l.08-.05.25-.2" style="fill:#bc1322"/></g><path d="M53.74,153.48a2.92,2.92,0,0,0-.73-1.3s.1-.15.31-.52Z" style="fill:#ed1c2e"/><g style="clip-path:url(#l)"><path d="M53.74,153.48a2.92,2.92,0,0,0-.73-1.3s.1-.15.31-.52l.42,1.83" style="fill:#f58d76"/><path d="M53.57,152.74c0,.09,0,.09.1.44l.07.3h0l0-.11,0-.06,0-.08,0-.07,0-.09,0-.08,0-.09,0-.08-.06-.1-.05-.08-.07-.1-.06-.08-.07-.09-.07-.08-.09-.11s.1-.15.31-.52l.25,1.08" style="fill:#f58d76"/><path d="M53.52,152.9h0l0,0,.06.12,0-.08,0-.08" style="fill:#db192a"/><path d="M53.71,153.37l0-.14,0-.07,0-.09h0a2,2,0,0,1,.12.37v-.07" style="fill:#db192a"/><path d="M53.74,153.48v0h0" style="fill:#db192a"/><path d="M53.45,152.23l-.15.25s0,0,.19.37l0-.08,0,0-.05-.08-.07-.1-.06-.08-.07-.09-.07-.08-.09-.11s.1-.15.31-.52l.13.57" style="fill:#db192a"/><path d="M53.11,152.31l0,0-.07-.08-.06-.06h0l.11.13" style="fill:#bc1322"/><path d="M53.29,152.54l-.12-.15h0l.11.14" style="fill:#bc1322"/><path d="M53.42,152.73l0-.06v0l0,0h0" style="fill:#bc1322"/><polyline points="53.74 153.48 53.74 153.48 53.74 153.48 53.74 153.48" style="fill:#bc1322"/></g><path d="M185,113.24l-.6-1.83,6,3.19-1.87.52Z" style="fill:#ed1c2e"/><g style="clip-path:url(#m)"><path d="M188.57,115.12,185,113.24l-.25-.77,4.57,2.44-.79.22" style="fill:#db192a"/><path d="M189.36,114.9l-4.57-2.44-.29-.9,5.78,3.08-.92.25" style="fill:#f58d76"/><path d="M190.27,114.65l-5.78-3.08-.05-.16,6,3.19-.16,0" style="fill:#db192a"/></g><path d="M184.44,111.41l6,3.19Z" style="fill:#bd1322"/><path d="M195.71,137.14c-60.3,1.24-108.39,22.74-114.57,24.44C87.32,159.88,135.41,138.38,195.71,137.14Z" style="fill:#ed1c2e"/><g style="clip-path:url(#n)"><path d="M195.71,137.14c-60.3,1.24-108.39,22.74-114.57,24.44,6.18-1.71,54.27-23.2,114.57-24.44" style="fill:#bc1322"/></g><path d="M146.72,120.9c-.31,0,15.42-16.34,13.79-21.87C162.14,104.56,146.4,120.89,146.72,120.9Z" style="fill:#ed1c2e"/><g style="clip-path:url(#o)"><path d="M146.72,120.9s0,0,0-.06,0,.06,0,.06" style="fill:#bc1322"/><path d="M146.74,120.84h0c.7-1,13.92-15,13.88-20.95h0c0,6-13.18,19.92-13.88,20.95" style="fill:#db192a"/><path d="M160.62,99.89h0a3.13,3.13,0,0,0-.12-.87,3.13,3.13,0,0,1,.12.87" style="fill:#bc1322"/></g><path d="M119.54,126.24h0c0-10.15,7.16-32.82,23.88-35.67C126.71,93.42,119.54,116.09,119.54,126.24Z" style="fill:#ed1c2e"/><g style="clip-path:url(#p)"><path d="M119.54,126.24h0c0-10.15,7.16-32.82,23.88-35.67-16.72,2.85-23.88,25.52-23.88,35.67" style="fill:#db192a"/></g><path d="M141.88,100h0c0,6.37-14.74,22.64-14.44,22.64C127.14,122.68,141.88,106.41,141.88,100Z" style="fill:#ed1c2e"/><g style="clip-path:url(#q)"><path d="M127.44,122.68s0,0,0-.07,0,.07,0,.07" style="fill:#bc1322"/><path d="M127.47,122.61h0c.75-1.13,14.41-16.44,14.41-22.57h0c0,6.14-13.66,21.44-14.41,22.57" style="fill:#db192a"/></g><path d="M153.65,125.62h0c0-15.61,19.4-19.46,20.63-6.72C173.05,106.16,153.65,110,153.65,125.62Z" style="fill:#ed1c2e"/><g style="clip-path:url(#r)"><path d="M153.65,125.62h0c0-11.59,10.69-16.69,16.7-13.35h0c-6-3.34-16.7,1.76-16.7,13.35" style="fill:#db192a"/><path d="M170.35,112.27h0a8,8,0,0,1,3.93,6.63,8,8,0,0,0-3.93-6.63" style="fill:#bc1322"/></g><path d="M203.62,122.76h0c-2.13,0-4.3,3.12-2.39,5.35C199.32,125.87,201.49,122.76,203.62,122.76Z" style="fill:#ed1c2e"/><g style="clip-path:url(#s)"><path d="M201.23,128.1a2.92,2.92,0,0,1-.74-1.89,2.93,2.93,0,0,0,.74,1.89" style="fill:#bc1322"/><path d="M200.5,126.21h0a3.5,3.5,0,0,1,3.12-3.45h0a3.5,3.5,0,0,0-3.12,3.45" style="fill:#db192a"/></g><path d="M54.68,140.89l6.93-7.23c.51-.41,10.19-8.12,14.24-4.76,3.74,3.11,3,7.29,7.58,6.79,2.73-.3,6.2-5.11,10.33-10.59,2.68-3.55,9.54-14.43.65-22.63l.9-1c9.74,9,2.32,20.7-.48,24.42C90.67,131.41,87,136.56,83.58,137c-6.05.53-5.22-4.3-8.57-7.09C72.07,127.28,62.93,134.31,54.68,140.89Z" style="fill:#ed1c2e"/><g style="clip-path:url(#t)"><path d="M54.68,140.89l6.93-7.23c.51-.41,10.19-8.12,14.24-4.76,3.74,3.11,3,7.29,7.58,6.79,2.73-.3,6.2-5.11,10.33-10.59,2.68-3.55,9.54-14.43.65-22.63l.9-1c9.74,9,2.32,20.7-.48,24.42C90.67,131.41,87,136.56,83.58,137c-6.05.53-5.22-4.3-8.57-7.09-2.94-2.64-12.07,4.39-20.32,11" style="fill:#f58d76"/><path d="M95.32,101.48c9.74,9,2.32,20.7-.48,24.42C90.67,131.41,87,136.56,83.58,137c-6.05.53-5.22-4.3-8.57-7.09-2.94-2.64-12.07,4.39-20.32,11l3.82-4h0c9.38-7.68,13-8.22,16.17-8.11-.37-.64-4.43-2.06-14.72,6.6l1.66-1.73c.51-.41,10.19-8.12,14.24-4.76,3.74,3.11,3,7.29,7.58,6.79,2.73-.3,6.2-5.11,10.33-10.59,2.68-3.55,9.54-14.43.65-22.63l.91-1" style="fill:#f58d76"/><path d="M95.32,101.48c9.74,9,2.32,20.7-.48,24.42C90.67,131.41,87,136.56,83.58,137c-6.05.53-5.22-4.3-8.57-7.09-2.94-2.64-12.07,4.39-20.32,11l1.92-2h0c5.59-4.48,14-11.25,18.46-9.66.16.06.44.27.56.14s-.29-1.44-2.73-1.3c-4.48.25-10.61,5.06-11.29,5.61.53-.43,10.21-8.14,14.26-4.78,3.74,3.11,3,7.29,7.58,6.79,2.73-.3,6.2-5.11,10.33-10.59,2.68-3.55,9.54-14.43.65-22.63l.91-1" style="fill:#db192a"/><path d="M97.22,104.93c1.31,1.13,7.26,7.57-4.54,23.19l-.72.95c-1.66,2.15-4.43,5.76-6.6,6.94-3,1.65-5.25-.21-5.18-.5a.25.25,0,0,1,.14-.14,6.5,6.5,0,0,1,.86.14c2.68.79,4.07-.45,5.42-1.64a79.4,79.4,0,0,0,9.68-12.66c4.54-8.22,2-13.61.82-16.2,0,0,.08-.06.12-.06" style="fill:#db192a"/><path d="M98.37,107.26c.58.68,2.81,6.09-1.33,13.74-.09.16-9.28,15.79-14.44,15.43-1.3-.09-1.59-.54-1.59-.54s0-.11.74,0c4.66.59,10-6.59,13.71-12.71,4.44-7.38,3.65-11.55,2.81-16,0,0,.07,0,.1.07" style="fill:#f58d76"/><path d="M80.47,135c-2.22-1.76-2.59-5-5.15-6.49a3.41,3.41,0,0,1,.54.36c2.83,2.35,3.09,5.32,5,6.41h0c-.13-.08-.3-.19-.42-.28" style="fill:#bc1322"/><path d="M73.69,128.58a19,19,0,0,0-2.2.28,18.27,18.27,0,0,0-2.23.69l-1,.37a.06.06,0,0,1,0-.06,12.78,12.78,0,0,1,3.28-1.33,3.91,3.91,0,0,1,2.41-.05.06.06,0,0,1,0,.06c-.06,0-.17,0-.24,0" style="fill:#fccdbe"/><path d="M99.07,109.65A13.89,13.89,0,0,1,98,118.33a24.49,24.49,0,0,0,1-4.75A14.7,14.7,0,0,0,99.1,112c0-.91-.15-1.82-.18-2.73,0,.13.11.29.15.42" style="fill:#fccdbe"/><path d="M84.61,135.86a3.45,3.45,0,0,1-2.77.24s0,0,0-.07.06,0,.08,0c.56-.07,1.13,0,1.7-.09a5.11,5.11,0,0,0,.79-.18l.35-.09s.06,0,.06,0-.13.11-.19.15" style="fill:#fccdbe"/><path d="M94.55,102.31c2.1,2.31,4.25,5.27,4.28,9.68a12.71,12.71,0,0,0-4.41-9.53l.14-.15" style="fill:#bc1322"/></g><path d="M175.71,125.84l-1.29-.41,2.5-3.61,4-3.46Z" style="fill:#ed1c2e"/><g style="clip-path:url(#u)"><path d="M180.95,118.36l-5.23,7.48-.38-.12,4.44-6.35,1.17-1" style="fill:#db192a"/><path d="M179.78,119.37l-4.44,6.35-.38-.12,3.62-5.2,1.2-1" style="fill:#f58d76"/><path d="M178.58,120.4,175,125.6l-.2-.06,3.19-4.59.64-.55" style="fill:#fccdbe"/><path d="M177.94,121l-3.19,4.59-.32-.1L177,121.8l1-.85" style="fill:#f58d76"/><path d="M177,121.8l-2.52,3.64h0l2.5-3.61,0,0" style="fill:#db192a"/></g><path d="M177.59,129.08l-.94.94c-.51-.62-3-2.08-2.22-4.59l1.29.41C175.19,127.27,177,128.4,177.59,129.08Z" style="fill:#ed1c2e"/><g style="clip-path:url(#v)"><path d="M177.59,129.08l-.94.94c-.51-.62-3-2.08-2.22-4.59l1.29.41c-.53,1.43,1.33,2.55,1.88,3.24" style="fill:#fccdbe"/><path d="M174.72,125.53c-.41,1,0,1.45,0,1.42s0,0,.14-1.38l.83.26c-.53,1.43,1.33,2.55,1.88,3.24l-.94.94c-.51-.62-3-2.08-2.22-4.59l.3.09" style="fill:#fccdbe"/><path d="M174.62,125.5c-.41,1.3.17,1.88.25,1.86s.07-.14.06-.52a4.52,4.52,0,0,1,.11-1.21l.67.21c-.53,1.43,1.33,2.55,1.88,3.24l-.94.94c-.51-.62-3-2.08-2.22-4.59l.2.06" style="fill:#f58d76"/><path d="M174.45,125.44c-.42,1.64.68,2.52.78,2.44s0-.31,0-.45a3.06,3.06,0,0,1,.09-1.71l.4.13c-.53,1.43,1.33,2.55,1.88,3.24l-.94.94c-.51-.62-3-2.08-2.22-4.59h0" style="fill:#db192a"/><path d="M174.28,126.54a3.07,3.07,0,0,0,1.07,2.13c.36.29.76.53,1.09.85.14.13.14.13.24.47l0,0c-.44-.53-2.36-1.7-2.38-3.61h0s0,.08,0,.12" style="fill:#bc1322"/></g><path d="M41.46,101l-1.26-.5c3.05-3.49,19-9.7,34.7-10.56s31,3.61,32.76,21.5c.52,5.25-1.48,10.61-5.37,16-1.85,2.57,5.7-1.67,9.41-8.8l.64,1.65c-3.36,6.51-13.15,11.14-11.14,6.38,3.74-5.21,5.61-10.27,5.13-15.12C104.69,94.74,90.21,90.46,75,91.28,59.57,92.14,43.92,98.25,41.46,101Z" style="fill:#ed1c2e"/><g style="clip-path:url(#w)"><path d="M41.46,101l-1.26-.5c3.05-3.49,19-9.7,34.7-10.56s31,3.61,32.76,21.5c.52,5.25-1.48,10.61-5.37,16-1.85,2.57,5.7-1.67,9.41-8.8l.64,1.65c-3.36,6.51-13.15,11.14-11.14,6.38,3.74-5.21,5.61-10.27,5.13-15.12C104.69,94.74,90.21,90.46,75,91.28c-15.41.85-31.06,7-33.51,9.73" style="fill:#f58d76"/><path d="M111.83,119c-4.49,8.37-9.89,9.43-9.94,9.44,3,.36,8.19-5.67,10.11-9l.35.91c-3.36,6.51-13.15,11.14-11.14,6.38,3.74-5.21,5.61-10.27,5.13-15.12C104.69,94.74,90.21,90.46,75,91.28c-15.41.85-31.06,7-33.51,9.73l-.75-.3h0c2.85-2.17,27.51-14.94,52.64-8-13.27-7.44-48,1.65-52.74,7.95l-.41-.16c3.05-3.49,19-9.7,34.7-10.56s31,3.61,32.76,21.5c.52,5.25-1.48,10.61-5.37,16-1.85,2.57,5.7-1.67,9.41-8.8l.12.31" style="fill:#f58d76"/><path d="M111.71,118.69c-3.39,6.05-8.32,9.73-10.23,9.6.08.09.15.24.25.28,1.27.56,7.27-2.86,10.42-8.74l.19.5c-3.36,6.51-13.15,11.14-11.14,6.38,3.74-5.21,5.61-10.27,5.13-15.12C104.69,94.74,90.21,90.46,75,91.28c-15.41.85-31.06,7-33.51,9.73l-.35-.14h0c.24-.21,28.86-18.77,57.72-5.1-2.24-3.93-19.95-10.28-46.58-1.33q-1.13.38-2.19.78c-2.13.83-7.8,3-9.85,5.29,3-3.49,19-9.7,34.69-10.57s31,3.61,32.76,21.5c.52,5.25-1.48,10.61-5.37,16-1.85,2.57,5.7-1.67,9.41-8.8h0" style="fill:#db192a"/><path d="M102.09,128.21c-.63-.21-.91-.3-.67-.91.79-2,2.27-3.54,3.22-5.42a22.55,22.55,0,0,0,2.32-7.61c.34-3.26.59-14.36-10.18-20.46,5.87,3.27,10,8.82,10.89,17.63.52,5.25-1.48,10.61-5.37,16-.32.44-.36.68-.18.74h0" style="fill:#bc1322"/><path d="M86.82,91c-17.15-1.15-24.34.44-41.89,6.9C53.88,93.1,73.54,88,87.21,91h-.39" style="fill:#fccdbe"/><path d="M103.37,128.14a3,3,0,0,1-1.42.35,6.93,6.93,0,0,0,1.69-.5l-.27.15" style="fill:#fccdbe"/></g><path d="M112.35,120.32l-.64-1.65,7.9,2.84-1.71.8Z" style="fill:#ed1c2e"/><g style="clip-path:url(#x)"><path d="M117.89,122.32l-5.55-2-.23-.58,6.38,2.3-.61.28" style="fill:#db192a"/><path d="M118.5,122l-6.38-2.3-.16-.42,7,2.51-.43.2" style="fill:#f58d76"/><path d="M118.93,121.83l-7-2.51-.09-.23,7.3,2.63-.24.11" style="fill:#fccdbe"/><path d="M119.17,121.72l-7.3-2.63-.15-.38,7.84,2.82-.39.18" style="fill:#f58d76"/><path d="M119.56,121.54l-7.84-2.82,0,0,7.9,2.84,0,0" style="fill:#db192a"/></g><path d="M117.89,122.32l1.71-.8c-.6,1.67-7.79,7.8-7,11.15.35,1.53,5-2.52,7.08-4.43l1.41.52c-2.66,2.41-8.23,7.32-9.79,4.2C110.41,128.61,117.94,122.3,117.89,122.32Z" style="fill:#ed1c2e"/><g style="clip-path:url(#y)"><path d="M117.89,122.32l1.71-.8c-.6,1.67-7.79,7.8-7,11.15.35,1.53,5-2.52,7.08-4.43l1.41.52c-2.66,2.41-8.23,7.32-9.79,4.2-.86-4.35,6.67-10.66,6.62-10.64" style="fill:#f58d76"/><path d="M120,128.38c-5.25,4.75-6.64,4.83-7.31,4.87-.07,0-.2,0-.23.08a.11.11,0,0,0,0,.09c.12.24.88.42,2.46-.59a44.09,44.09,0,0,0,5.29-4.36l.82.3c-2.66,2.41-8.23,7.32-9.79,4.2-.87-4.35,6.66-10.66,6.62-10.64l1.71-.8c-.6,1.67-7.79,7.8-7,11.15.35,1.53,5-2.52,7.08-4.43l.38.14" style="fill:#f58d76"/><path d="M119.66,128.24c-4.77,4.31-6.15,4.79-6.77,4.78-.9,0-.88.69,0,.73,1.83.06,5.11-2.71,7.76-5.13l.4.15c-2.66,2.41-8.23,7.32-9.79,4.2-.87-4.35,6.66-10.66,6.62-10.64l1.71-.8c-.6,1.67-7.79,7.8-7,11.15.35,1.53,5-2.52,7.08-4.43h0" style="fill:#db192a"/><path d="M112.76,132.94c-.92-.51-.92-.51-1-1.18a5.41,5.41,0,0,1,.68-2.36,32.29,32.29,0,0,1,6.08-7.39l1.06-.5c-.6,1.67-7.79,7.8-7,11.15a.41.41,0,0,0,.2.28h0" style="fill:#bc1322"/><path d="M114.26,133.06c-.79.53-1.57.49-1.53.32s.06,0,.1-.06c.21-.06.43-.05.64-.11s.45-.14.64-.21.2-.13.28-.1a0,0,0,0,1,0,0c0,.06-.11.09-.16.12" style="fill:#fccdbe"/></g><path d="M121.06,128.76l-1.41-.52c-1.1-8.75,5.84-34.61,23.77-37.67l.22,1.31C126.69,94.72,119.92,119.75,121.06,128.76Z" style="fill:#ed1c2e"/><g style="clip-path:url(#z)"><path d="M121.06,128.76l-1.41-.52c-1.1-8.75,5.84-34.61,23.77-37.67l.22,1.31c-17,2.83-23.73,27.86-22.58,36.87" style="fill:#fccdbe"/><path d="M143.47,90.83c-.26.38-1,.23-1.49.32a16.64,16.64,0,0,0-4.08,1.63c1.94-.33,3.71-1.25,5.63-1.64l.13.74c-17,2.83-23.73,27.86-22.58,36.87l-.87-.32h0c-.57-6.5,1.68-13.38,2.88-17.07-1.19,2.4-4,11.25-3.12,17l-.3-.11c-1.1-8.75,5.84-34.61,23.77-37.67l0,.26" style="fill:#fccdbe"/><path d="M143.45,90.76c-.28.42-1.15.25-1.63.35-7.8,1.68-13.63,10.14-15.23,12.69-4.58,7.3-7.46,17.84-6.7,24.52l-.23-.09c-1.1-8.75,5.84-34.61,23.77-37.67l0,.19" style="fill:#f58d76"/><path d="M143.65,91.89c-17,2.83-23.73,27.86-22.58,36.87l-.73-.27h0c-.38-4.15,1.94-32.7,23.21-37.2l.1.6" style="fill:#f58d76"/><path d="M143.65,91.89c-17,2.83-23.73,27.86-22.58,36.87l-.51-.19h0c-.63-6.66,3.53-32.84,23-37l.06.36" style="fill:#db192a"/><path d="M143.42,90.57c-19.33,4.12-24.67,30.33-23.63,37.72-1.24-8.81,5.7-34.66,23.63-37.72h0" style="fill:#db192a"/><path d="M119.57,127.37l.08.87a16,16,0,0,1-.11-1.83c0,.29,0,.67,0,1" style="fill:#bc1322"/></g><path d="M143.65,91.89l-.22-1.31c4.17-.56,5.3,1.62,5.7,3.2l-1.29.32C147.53,92.93,146.83,91.51,143.65,91.89Z" style="fill:#ed1c2e"/><g style="clip-path:url(#aa)"><path d="M143.65,91.89l-.22-1.31c4.17-.56,5.3,1.62,5.7,3.2l-1.29.32c-.3-1.16-1-2.58-4.18-2.21" style="fill:#fccdbe"/><path d="M147.83,94.09c-.3-1.16-1-2.58-4.18-2.21l-.13-.74h0a12.18,12.18,0,0,1,1.56-.11,2.32,2.32,0,0,0,.71,0,0,0,0,0,0,0,0s-.37-.36-2.33-.14l0-.26c4.17-.56,5.3,1.62,5.7,3.2l-1.29.32" style="fill:#fccdbe"/><path d="M147.83,94.09c-.3-1.16-1-2.58-4.18-2.21l-.1-.6h0a9.73,9.73,0,0,1,2.4,0c.44,0,.82.08.57-.14s-.86-.6-3.06-.34l0-.19c4.17-.56,5.3,1.62,5.7,3.2l-1.29.32" style="fill:#f58d76"/><path d="M147.83,94.09c-.3-1.16-1-2.58-4.18-2.21l-.06-.36h0a7.63,7.63,0,0,1,3,.12,2.23,2.23,0,0,0,.66.11c.39-.06-.1-.65-.21-.73-.37-.28-1.33-.7-3.57-.45,4.17-.56,5.3,1.61,5.7,3.19l-1.29.32" style="fill:#db192a"/><path d="M148.66,93.88c-.08-1.37-.13-2.06-1.44-2.83a4.07,4.07,0,0,1,1.91,2.71l-.46.12" style="fill:#bc1322"/></g><path d="M147.83,94.09l1.29-.32c.72,3.16-1.66,8.72-1.53,8.52l1.11.74C146.41,104.06,148.46,96.72,147.83,94.09Z" style="fill:#ed1c2e"/><g style="clip-path:url(#ab)"><path d="M147.83,94.09l1.29-.32c.72,3.16-1.66,8.72-1.53,8.52l1.11.74c-2.29,1-.25-6.31-.88-8.94" style="fill:#f58d76"/><path d="M147.84,102.46c.1.12,0,.33.24.38s.13-.08.15-.13l.48.32c-2.29,1-.25-6.31-.88-8.94l1.29-.32c.72,3.16-1.66,8.72-1.53,8.52l.25.16" style="fill:#f58d76"/><path d="M147.6,102.3c.2.17.23.48.46.63s.25,0,.39-.07l.26.17c-2.29,1-.25-6.31-.88-8.94l1.29-.32c.72,3.16-1.66,8.72-1.53,8.52h0" style="fill:#db192a"/><path d="M147.59,102.3c0,.17.24.21.29.37-.44-.28,0-2.58.21-3.95a28.76,28.76,0,0,0,.55-4.83l.48-.12c.72,3.14-1.62,8.63-1.53,8.53h0" style="fill:#bc1322"/><path d="M148,102.64a.2.2,0,0,1,0,.08.39.39,0,0,1-.14-.12c.07,0,.08,0,.11,0" style="fill:#fccdbe"/></g><path d="M148.71,103l-1.11-.74C150.82,98,153.8,93.16,160,91l.44,1.26C154.7,94.25,151.87,98.84,148.71,103Z" style="fill:#ed1c2e"/><g style="clip-path:url(#ac)"><path d="M148.71,103l-1.11-.74C150.82,98,153.8,93.16,160,91l.44,1.26c-5.72,2-8.55,6.56-11.71,10.75" style="fill:#fccdbe"/><path d="M160.08,91.3a7.09,7.09,0,0,0-2.06,1,11,11,0,0,0,2.15-.76l.25.73c-5.72,2-8.55,6.56-11.71,10.75l-1.11-.74C150.82,98,153.8,93.16,160,91l.1.28" style="fill:#fccdbe"/><path d="M160,91.22c-4.25,1.58-6.52,3.69-12.15,11.27l-.3-.2C150.82,98,153.8,93.16,160,91l.07.2" style="fill:#f58d76"/><path d="M160.42,92.29c-5.72,2-8.55,6.56-11.71,10.75l-.67-.45.3-.4c4.37-5.86,6.36-8.53,11.88-10.49l.2.59" style="fill:#f58d76"/><path d="M160.42,92.29c-5.72,2-8.55,6.56-11.71,10.75l-.32-.22h0c4.48-6,6.33-8.45,10.86-10.46l.52-.21.54-.2.12.34" style="fill:#db192a"/><path d="M160,91c-5.41,2-7.45,4.7-12.38,11.27C150.82,98,153.8,93.16,160,91h0" style="fill:#db192a"/></g><path d="M160.42,92.29,160,91c1.93-.69,4-.86,5.4.53l-.94.94C163.59,91.62,162.07,91.71,160.42,92.29Z" style="fill:#ed1c2e"/><g style="clip-path:url(#ad)"><path d="M160.42,92.29,160,91c1.93-.69,4-.86,5.4.53l-.94.94c-.85-.88-2.37-.79-4-.21" style="fill:#fccdbe"/><path d="M164.44,92.5c-.85-.88-2.37-.79-4-.21l-.26-.74h0a9.45,9.45,0,0,1,2.82-.49c.25,0,.45,0,.47-.06a0,0,0,0,0,0,0s-.91-.58-3.37.34L160,91c1.93-.69,4-.86,5.4.53l-.94.94" style="fill:#fccdbe"/><path d="M164.44,92.5c-.85-.88-2.37-.79-4-.21l-.2-.59h0a7.91,7.91,0,0,1,3.19-.47c.27,0,1.1.07.41-.29-.29-.15-1.43-.57-3.77.28L160,91c1.93-.69,4-.86,5.4.53l-.94.95" style="fill:#f58d76"/><path d="M164.44,92.5c-.85-.88-2.37-.79-4-.21l-.12-.34h0a6.52,6.52,0,0,1,3.58-.38c.5.1.78.16.84,0a.85.85,0,0,0-.51-.75c-.57-.28-1.87-.62-4.23.2,1.92-.69,4-.86,5.4.52l-.94.94" style="fill:#db192a"/><path d="M165.37,91.56a3,3,0,0,0-.74-.58,3.41,3.41,0,0,1,.75.57h0" style="fill:#bc1322"/></g><path d="M164.44,92.5l.94-.94c6.39,7.91-12.7,30.71-17.83,34.43l-1.33-.68C151.69,121.35,170,99.09,164.44,92.5Z" style="fill:#ed1c2e"/><g style="clip-path:url(#ae)"><path d="M164.44,92.5l.94-.94c6.39,7.91-12.7,30.71-17.83,34.43l-1.33-.68c5.46-3.95,23.76-26.21,18.22-32.8" style="fill:#bc1322"/><path d="M146.63,125.5c8.36-6.28,23.18-27.79,18.73-33.93,6.42,7.89-12.67,30.68-17.8,34.4l-.93-.47" style="fill:#bc1322"/></g><path d="M146.22,125.3l1.33.68a3.29,3.29,0,0,0,.59,2l-1,1C146.19,127.84,146.22,126.08,146.22,125.3Z" style="fill:#ed1c2e"/><g style="clip-path:url(#af)"><path d="M146.22,125.3l1.33.68a3.29,3.29,0,0,0,.59,2l-1,1c-1-1.07-1-2.84-1-3.62" style="fill:#bc1322"/><path d="M148.14,128c-.22-.18-.46-.31-.67-.5a1.43,1.43,0,0,1-.25-.33,3.33,3.33,0,0,1-.36-1.53l.7.36a3.29,3.29,0,0,0,.59,2h0" style="fill:#bc1322"/></g><path d="M147.19,128.91l1-1c2.64,1.32,5.37-1.6,5.51-1.75l1.35.51C154.45,127.31,151.19,130.9,147.19,128.91Z" style="fill:#ed1c2e"/><g style="clip-path:url(#ag)"><path d="M147.19,128.91l1-1c2.64,1.32,5.37-1.6,5.51-1.75l1.35.51c-.55.59-3.81,4.18-7.82,2.2" style="fill:#f58d76"/><path d="M154.07,126.36a6.76,6.76,0,0,1-5.45,2.08c-.28,0-.44-.06-.47,0s1,.8,2.48.45,2.38-1.24,3.56-2.47l.82.31c-.55.59-3.81,4.18-7.82,2.2l1-1c2.64,1.32,5.37-1.6,5.51-1.75l.41.16" style="fill:#f58d76"/><path d="M155,126.72c-.55.59-3.81,4.18-7.82,2.2l.38-.38,0,0c2,1.32,4.72.56,7-2l.39.15" style="fill:#db192a"/><path d="M153.66,126.21a8.07,8.07,0,0,1-2,1.54l-.2.1a4,4,0,0,1-3.36.18l.06-.06c2.64,1.32,5.37-1.6,5.51-1.75h0" style="fill:#db192a"/><path d="M151.82,128.16a3.25,3.25,0,0,1-1.47.64c-1,.17-1.5-.11-1.47-.17s.17,0,.41,0a5.93,5.93,0,0,0,1.06-.09c.5-.09,1-.31,1.45-.39,0,0,0,0,0,0s0,0,0,0" style="fill:#fccdbe"/></g><path d="M155,126.72l-1.35-.51c-.5-16.11,19.38-20.21,20.62-7.31l-1.22,1.28C172.19,107.69,154.49,111.44,155,126.72Z" style="fill:#ed1c2e"/><g style="clip-path:url(#ah)"><path d="M155,126.72l-1.35-.51c-.5-16.11,19.38-20.21,20.62-7.31l-1.22,1.28c-.87-12.49-18.57-8.73-18.06,6.54" style="fill:#fccdbe"/><path d="M173.06,120.18c-.87-12.49-18.57-8.73-18.06,6.54l-.8-.3h0A20,20,0,0,1,155,120c-.42.59-1.11,2.19-1.11,6.28l-.27-.1c-.5-16.11,19.38-20.21,20.62-7.31l-1.22,1.28" style="fill:#fccdbe"/><path d="M173.06,120.18c-.87-12.49-18.57-8.73-18.06,6.54l-.68-.26h0c0-1.85,0-7.47,4-11.23a13.18,13.18,0,0,1,5.13-2.83,11.44,11.44,0,0,1,5.15-.23c.53.08.53.08.69.05-1.24-1.83-13.24-.68-15.15,10.35a17.86,17.86,0,0,0-.24,3.72l-.21-.08c-.5-16.11,19.38-20.21,20.62-7.31l-1.22,1.28" style="fill:#f58d76"/><path d="M173.06,120.18c-.87-12.49-18.57-8.73-18.06,6.54l-.47-.18c0-.43,0-1,0-1.42.87-10.29,8.77-14.57,15.6-12.1.35.13.68.25.74.12.24-.58-3.43-3.11-8.52-1.14-4.43,1.71-9,6.35-8.62,14.26-.59-16.14,19.28-20.24,20.52-7.35l-1.22,1.28" style="fill:#db192a"/><path d="M173.69,119.52c0-3-.28-5.51-3.34-7.24a8,8,0,0,1,3.93,6.62l-.59.62" style="fill:#bc1322"/><path d="M167.73,111.82a1.69,1.69,0,0,1-.39,0,14.34,14.34,0,0,0-3,.22,15.43,15.43,0,0,0-2.63.78,1.46,1.46,0,0,1-.37.11c.36-.8,5.45-1.93,6.48-1.13l-.05,0" style="fill:#fccdbe"/><path d="M153.66,126.21c0-.14,0-.27,0-.41h0v.41" style="fill:#bc1322"/></g><path d="M173.06,120.18l1.22-1.28c2.37.1,9-5.16,10.17-7.49l.6,1.83C184.31,114.7,177.28,120.3,173.06,120.18Z" style="fill:#ed1c2e"/><g style="clip-path:url(#ai)"><path d="M173.06,120.18l1.22-1.28c2.37.1,9-5.16,10.17-7.49l.6,1.83c-.73,1.46-7.76,7.06-12,6.94" style="fill:#fccdbe"/><path d="M185,113.24c-.73,1.46-7.76,7.06-12,6.94l.7-.74h0c1.12.31,3.07-.85,3.23-1-.61.15-1.16.48-1.77.63a3,3,0,0,1-1.21.11l.26-.28c2.37.1,9-5.16,10.17-7.49l.6,1.83" style="fill:#fccdbe"/><path d="M184.55,111.74c-1.47,3.08-8.39,7.64-10.46,7.35l.19-.2c2.37.1,9-5.16,10.17-7.49l.11.33" style="fill:#f58d76"/><path d="M185,113.24c-.73,1.46-7.76,7.06-12,6.94l.57-.6h0c.61.13,2.09,0,5.11-2a27.27,27.27,0,0,0,3-2.35c1-.94,1.91-2.07,3-3l.33,1" style="fill:#f58d76"/><path d="M185,113.24c-.73,1.46-7.76,7.06-12,6.94l.35-.37h0c3.09.35,9.32-4.2,11.45-7.13l.18.56" style="fill:#db192a"/><path d="M184.45,111.42c-1.18,2.26-7.54,7.44-10.18,7.48,2.38.1,9-5.17,10.17-7.5v0" style="fill:#db192a"/></g><path d="M187.67,126.76l-1.33.09c0-1.6,1.71-3.5,2-4.06l2-.81C189.12,124.15,187.63,125.84,187.67,126.76Z" style="fill:#ed1c2e"/><g style="clip-path:url(#aj)"><path d="M187.67,126.76l-1.33.09c0-1.6,1.71-3.5,2-4.06l2-.81c-1.27,2.17-2.76,3.86-2.72,4.78" style="fill:#fccdbe"/><path d="M190.39,122c-1.27,2.17-2.76,3.86-2.72,4.78l-.79.06h0c.07-1,.07-1,.05-1a1.42,1.42,0,0,0-.33,1l-.26,0c0-1.6,1.71-3.5,2-4.06l2-.81" style="fill:#fccdbe"/><path d="M188.79,122.63c0,.24-.2.48-.86,1.35-.91,1.2-1.41,2-1.39,2.86h-.21c0-1.6,1.71-3.5,2-4.06l.42-.17" style="fill:#f58d76"/><path d="M190.39,122c-1.27,2.17-2.76,3.86-2.72,4.78l-.67,0h0a4.43,4.43,0,0,1,.54-1.76c.48-.93,1.19-1.7,1.71-2.6l1.14-.46" style="fill:#f58d76"/><path d="M190.39,122c-1.27,2.17-2.76,3.86-2.72,4.78l-.46,0h0a7.61,7.61,0,0,1,1.56-3,14.78,14.78,0,0,0,1-1.58l.6-.24" style="fill:#db192a"/><path d="M188.39,122.79a27.43,27.43,0,0,0-1.56,2.38,2.88,2.88,0,0,0-.4,1.68h-.09c0-1.6,1.71-3.5,2-4.06h0" style="fill:#db192a"/></g><path d="M184.21,122.85l3.39-4.16c.46-.34,9.27-6.85,12.11-4.4l-.87,1C197.13,113.6,188.83,119.43,184.21,122.85Z" style="fill:#ed1c2e"/><g style="clip-path:url(#ak)"><path d="M184.21,122.85l3.39-4.16c.46-.34,9.27-6.85,12.11-4.4l-.87,1c-1.71-1.7-10,4.13-14.63,7.55" style="fill:#f58d76"/><path d="M198.84,115.3c-1.71-1.7-10,4.13-14.63,7.55l1.82-2.23h0c3-2.31,8.67-6.18,12.29-6.2.22,0,.56,0,.61-.09s-.7-.69-2.74-.11c-2.4.69-6,2.75-9.35,5.39l.75-.93c.46-.34,9.27-6.85,12.11-4.4l-.87,1" style="fill:#f58d76"/><path d="M198.84,115.3c-1.71-1.7-10,4.13-14.63,7.55l.93-1.14h0c1.83-1.37,2.86-2.1,4.38-3.12l.51-.34c4.12-2.64,6.76-3.74,8.54-3.59,1.45.13.5-.74.18-.83-3.31-.84-10.37,4.27-11.17,4.86.47-.35,9.28-6.86,12.12-4.41l-.87,1" style="fill:#db192a"/><path d="M198.46,114.23a2.42,2.42,0,0,1-.47.06,10.46,10.46,0,0,0-2.27.45c-.79.24-1.52.65-2.33.85,1.38-1.09,5.06-2,5.13-1.41,0,0,0,0-.06.05" style="fill:#fccdbe"/><path d="M199.71,114.29a1.78,1.78,0,0,0-.33-.24,2,2,0,0,1,.34.23h0" style="fill:#bc1322"/></g><path d="M198.84,115.3l.87-1c1.81,1.24-.88,3.75-4.34,8.75l-2.93,1.9C197.73,117.26,199.64,115.37,198.84,115.3Z" style="fill:#ed1c2e"/><g style="clip-path:url(#al)"><path d="M198.84,115.3l.87-1c1.81,1.24-.88,3.75-4.34,8.75l-2.93,1.9c5.29-7.67,7.2-9.56,6.4-9.63" style="fill:#db192a"/><path d="M192.44,124.93c5.29-7.67,7.2-9.56,6.4-9.63l.32-.37h0c.41-.12.43-.29.39-.45l.17-.19c1.81,1.24-.88,3.75-4.34,8.75l-2.93,1.9" style="fill:#db192a"/><path d="M193.38,124.32c1.75-2.55,3.72-4.94,5.37-7.56.29-.45.5-1,.82-1.39.14-.19.37-.31.46-.55s-.22-.46-.33-.54c1.81,1.24-.88,3.74-4.34,8.75l-2,1.29" style="fill:#bc1322"/></g><path d="M192.44,124.93l2.93-1.9c1.78-.33,8.42-5.72,9.94-7.56l1.33.48C204.7,118.31,197.86,123.89,192.44,124.93Z" style="fill:#ed1c2e"/><g style="clip-path:url(#am)"><path d="M192.44,124.93l2.93-1.9c1.78-.33,8.42-5.72,9.94-7.56l1.33.48c-1.95,2.36-8.78,7.94-14.21,9" style="fill:#fccdbe"/><path d="M206.64,115.95c-1.95,2.36-8.78,7.94-14.21,9l1.64-1.06h0a5.47,5.47,0,0,0,2.34-.83c-1.54.45-1.54.45-1.64.38l.6-.39c1.78-.33,8.42-5.72,9.94-7.56l1.33.48" style="fill:#fccdbe"/><path d="M205.7,115.61c-1.07,1.48-9,8-10.76,7.7l.43-.28c1.78-.33,8.42-5.72,9.94-7.56l.39.14" style="fill:#f58d76"/><path d="M206.64,115.95c-1.95,2.36-8.78,7.94-14.21,9l1.33-.86h0c2.44.15,9.58-5.37,12-8.42l.82.29" style="fill:#f58d76"/><path d="M206.64,115.95c-1.95,2.36-8.78,7.94-14.21,9l.79-.51h0c3.74-.37,10.88-6,13-8.61l.39.14" style="fill:#db192a"/><path d="M205.32,115.47c-1.62,1.89-7.92,7.07-10,7.57,1.79-.33,8.43-5.72,9.95-7.57h0" style="fill:#db192a"/></g><path d="M206.64,115.95l-1.33-.48c0-1.05-2-5.89,5.07-8.41l.45,1.26C205,110.41,206.65,114.2,206.64,115.95Z" style="fill:#ed1c2e"/><g style="clip-path:url(#an)"><path d="M206.64,115.95l-1.33-.48c0-1.05-2-5.89,5.07-8.41l.45,1.26c-5.85,2.08-4.18,5.88-4.18,7.63" style="fill:#fccdbe"/><path d="M210.48,107.34a4.28,4.28,0,0,0-1.47.76,6.89,6.89,0,0,0,1.56-.52l.26.74c-5.85,2.09-4.18,5.88-4.18,7.63l-.79-.28h0c0-.76-.25-1.5-.27-2.26a12.08,12.08,0,0,0,.17-2.13s-.78.73-.28,3.27a2.69,2.69,0,0,1,.1,1l-.26-.09c0-1.05-2-5.89,5.07-8.41l.1.28" style="fill:#fccdbe"/><path d="M210.45,107.26a10.11,10.11,0,0,0-2.59,1.33s-1.89,1.91-2,2.11a5.14,5.14,0,0,0-.44,3.86,3.17,3.17,0,0,1,.11,1l-.2-.07c0-1.05-2-5.89,5.07-8.41l.07.19" style="fill:#f58d76"/><path d="M210.82,108.32c-5.85,2.09-4.18,5.88-4.18,7.63l-.67-.24h0c0-.77-.23-1.51-.26-2.28,0-.09,0-.18,0-.27.1-2.93,1.11-4,4.9-5.43l.21.59" style="fill:#f58d76"/><path d="M210.82,108.32c-5.85,2.09-4.18,5.88-4.18,7.63l-.45-.16v-.15c-.37-3.3-.63-5.69,4.52-7.65l.12.34" style="fill:#db192a"/><path d="M210.38,107.07c-.94.35-3.42,1.3-4.53,3.17a5.46,5.46,0,0,0-.53,4.31c.13.67.14.79.07,1l-.08,0c0-1.05-2-5.89,5.07-8.41h0" style="fill:#db192a"/><path d="M205,113.29a10.32,10.32,0,0,0,.19,1.62,3.75,3.75,0,0,1,.07.55,23,23,0,0,1-.27-2.29h0s0,.08,0,.12" style="fill:#bc1322"/></g><path d="M169.38,115.77l-2.21,2c-5,1.38-7.42,6-5.61,8.51l-1.1.78C158.06,123.54,161.08,118,169.38,115.77Z" style="fill:#ed1c2e"/><g style="clip-path:url(#ao)"><path d="M169.38,115.77l-2.21,2c-5,1.38-7.42,6-5.61,8.51l-1.1.78c-2.41-3.51.61-9,8.91-11.28" style="fill:#bc1322"/><path d="M161.52,126.31a2.91,2.91,0,0,1-1.19-3.3,7.11,7.11,0,0,1,2.69-3.93,14.17,14.17,0,0,1,5.64-2.65l-1.49,1.34c-5,1.38-7.42,6-5.61,8.51l0,0" style="fill:#bc1322"/></g><path d="M172.11,120.78l-3,2.13c-.74.19-3.14-2-1.92-5.15l2.21-2C167.57,120.45,169.16,121.64,172.11,120.78Z" style="fill:#ed1c2e"/><g style="clip-path:url(#ap)"><path d="M172.11,120.78l-3,2.13c-.74.19-3.14-2-1.92-5.15l2.21-2c-1.81,4.68-.22,5.87,2.73,5" style="fill:#f58d76"/><path d="M167.53,117.44c-1.11,2.18-.18,3.53-.07,3.47s.07-.28.05-.69a6.86,6.86,0,0,1,.7-3.4l1.16-1c-1.81,4.68-.22,5.87,2.73,5l-3,2.13c-.74.19-3.14-2-1.92-5.15l.36-.32" style="fill:#f58d76"/><path d="M167.2,117.73c-.88,2.46.38,3.8.55,3.72s.11-.28.08-1.2a8.3,8.3,0,0,1,.87-3.86l.68-.62c-1.81,4.68-.22,5.87,2.73,5l-3,2.13c-.74.19-3.14-2-1.92-5.15l0,0" style="fill:#db192a"/><path d="M166.83,119.67a3.14,3.14,0,0,0,1.3,2.61c.17.07.54.21,3.09-.87l-2.13,1.5c-.59.15-2.24-1.22-2.26-3.37h0s0,.09,0,.13" style="fill:#bc1322"/><path d="M167.77,117.4c-.08.34-.21.67-.28,1a7.84,7.84,0,0,0-.13.91c-.07,1-.07,1-.08,1h0c-.28-.16-.37-2,.55-3.15,0,.06,0,.13,0,.18" style="fill:#fccdbe"/></g><path d="M160.47,127l1.1-.78c2.8,2.47,6.21-1.39,7.53-3.37l3-2.13C168.76,125.82,164.67,130.61,160.47,127Z" style="fill:#ed1c2e"/><g style="clip-path:url(#aq)"><path d="M160.47,127l1.1-.78c2.8,2.47,6.21-1.39,7.53-3.37l3-2.13c-3.35,5-7.44,9.83-11.64,6.27" style="fill:#f58d76"/><path d="M169.81,122.4c-1.79,3.29-4.41,5.1-7,4.84-.23,0-.44,0-.47,0s.55.6,1.66.49c2.71-.27,5.55-4.44,6.35-5.72l1.77-1.25c-3.35,5-7.44,9.83-11.64,6.27l1.1-.78c2.8,2.47,6.21-1.39,7.53-3.37l.72-.5" style="fill:#f58d76"/><path d="M169.11,122.9a11,11,0,0,1-4,3.81l-.27.11a4.44,4.44,0,0,1-3.07,0,.51.51,0,0,0-.31,0c-.22.15.52.9,1.48,1.11,2.41.53,5.2-1.65,8.3-6.48l.9-.63c-3.35,5-7.44,9.83-11.64,6.27l1.1-.78c2.8,2.47,6.21-1.39,7.53-3.37h0" style="fill:#db192a"/><path d="M165.41,127a2.62,2.62,0,0,1-1.42.57,1.57,1.57,0,0,1-1-.16,0,0,0,0,1,0,0s.08,0,.45-.06a6.27,6.27,0,0,0,.91-.09c.36-.06.7-.2,1.06-.27,0,0,0,0,.06,0s0,0,0,0" style="fill:#fccdbe"/><path d="M162.09,126.67a4.13,4.13,0,0,1-.54-.39h0a3.45,3.45,0,0,0,.61.44h0l-.08,0" style="fill:#bc1322"/></g><path d="M140.5,127.21l-1.45-.57c-.28-1.6-.33-5,2.49-13.21l5.14-10.81C140,121.84,140.12,125,140.5,127.21Z" style="fill:#ed1c2e"/><g style="clip-path:url(#ar)"><path d="M140.5,127.21l-1.45-.57c-.28-1.6-.33-5,2.49-13.21l5.14-10.81c-6.63,19.22-6.56,22.42-6.18,24.59" style="fill:#fccdbe"/><path d="M146.68,102.62c-6.63,19.22-6.56,22.42-6.18,24.59l-.92-.36h0c-.59-4.32,1.45-10.8,3.73-17.15l3.37-7.08" style="fill:#fccdbe"/><path d="M142.8,110.78c-1.55,4.25-4.43,12.16-3.42,16l-.33-.13c-.28-1.6-.33-5,2.49-13.21l1.26-2.65" style="fill:#fccdbe"/><path d="M146.68,102.62c-6.63,19.22-6.56,22.42-6.18,24.59l-.77-.3h0c-.61-3.85,1.19-10,4.29-18.7l2.66-5.59" style="fill:#f58d76"/><path d="M142.34,111.73c-1.09,3-4,10.9-3,15l-.25-.1c-.28-1.6-.33-5,2.49-13.21l.81-1.7" style="fill:#f58d76"/><path d="M146.68,102.62c-6.63,19.22-6.56,22.42-6.18,24.59L140,127h0c-.51-3.36.78-8.66,5.12-21l1.6-3.37" style="fill:#db192a"/><path d="M141.61,113.26c-2.91,8.44-2.82,11.62-2.41,13.44l-.16-.06c-.28-1.6-.33-5,2.49-13.21l.08-.16" style="fill:#db192a"/><path d="M138.92,125.3a8.79,8.79,0,0,0,.12,1.34,9.11,9.11,0,0,1-.13-1.49h0s0,.11,0,.15" style="fill:#bc1322"/></g><path d="M146.68,102.62l-5.14,10.81c-4.37,7-13,14.23-13.49,14.61l-1.47-.51C127.63,126.64,136.17,119.55,146.68,102.62Z" style="fill:#ed1c2e"/><g style="clip-path:url(#as)"><path d="M146.68,102.62l-5.14,10.81c-4.37,7-13,14.23-13.49,14.61l-1.47-.51c1.05-.89,9.59-8,20.1-24.9" style="fill:#bc1322"/><path d="M127,127.68a83.33,83.33,0,0,0,18-21.54l-3.47,7.29c-4.37,7-13,14.23-13.49,14.61l-1-.35" style="fill:#bc1322"/></g><path d="M126.58,127.52,128,128c1.3,6,10.51-1,11-1.39l1.45.57C139.34,128.09,128.95,135.9,126.58,127.52Z" style="fill:#ed1c2e"/><g style="clip-path:url(#at)"><path d="M126.58,127.52,128,128c1.3,6,10.51-1,11-1.39l1.45.57c-1.15.88-11.55,8.69-13.92.32" style="fill:#f58d76"/><path d="M139.38,126.77a25.79,25.79,0,0,1-5.5,3.2,10.38,10.38,0,0,1-2.28.66c-.7.1-1.39-.08-2.09,0,.56,1,5,.57,10.19-3.71l.79.31c-1.16.88-11.55,8.69-13.92.32L128,128c1.3,6,10.51-1,11-1.39l.33.13" style="fill:#f58d76"/><path d="M139,126.64c-.4.31-.69.51-1.08.78l-.31.21c-4.51,3-6.6,3-7.92,2.69,0,0-1-.16-1-.07s2,2.75,8.78-1.42A28.76,28.76,0,0,0,140.1,127l.4.16c-1.16.88-11.55,8.69-13.92.32l1.47.51c1.3,6,10.51-1,11-1.39h0" style="fill:#db192a"/><path d="M135.47,129.47a10.47,10.47,0,0,1-3.12,1.33,3.52,3.52,0,0,1-2.16,0s.05,0,.27,0a7.45,7.45,0,0,0,1.43-.12,32.4,32.4,0,0,0,3.63-1.24l-.05.06" style="fill:#fccdbe"/><path d="M129.3,130.06a4.81,4.81,0,0,1-1.8-2.22l.55.19a2.91,2.91,0,0,0,1.35,2.09l-.1-.06" style="fill:#bc1322"/></g><path d="M126.33,121.34l.93,1.11.18.22c-.31,0,16.14-18.15,14.29-23.61-.76-2.26-11.55,8.66-14.29,23.61l-.18-.22-.93-1.11C128.93,107,140.74,94.94,143,98.64c1.53,4.87-7,15.89-12.59,20.59C128.53,120.81,127,121.68,126.33,121.34Z" style="fill:#ed1c2e"/><g style="clip-path:url(#au)"><path d="M126.33,121.34l.93,1.11.18.22c-.31,0,16.14-18.15,14.29-23.61-.76-2.26-11.55,8.66-14.29,23.61l-.18-.22-.93-1.11C128.93,107,140.74,94.94,143,98.64c1.53,4.87-7,15.89-12.59,20.59-1.87,1.59-3.4,2.45-4.08,2.12" style="fill:#bc1322"/><path d="M127.25,122.46l-.48-.58h0c3.56-17.21,13.9-24.87,15.13-23.62a.22.22,0,0,1,.06.14c0,.53-.1,1.07-.09,1.6a3,3,0,0,0-.15-.94c-.76-2.26-11.55,8.66-14.29,23.61l-.18-.22" style="fill:#bc1322"/><path d="M142,98.76c.77-.17,1.82,2.44-2.54,9.38-3.62,5.76-8.11,10.43-9.22,11.15.08-.19.08-.19.94-1.26a107.33,107.33,0,0,0,8.11-11.33c2.51-4.29,2.81-6.5,2.62-7.6,0-.07,0-.17,0-.23s.06-.11.1-.12" style="fill:#db192a"/><path d="M126.45,121.39a3.29,3.29,0,0,1,.33.49l.48.58.18.22s0,0,0-.05c.17-.26,1.83-2.35,2.49-3l.34-.28c-1.72,1.44-3.13,2.25-3.84,2.06" style="fill:#bc1322"/><path d="M142.17,99c2.47,1.19-5.66,13.73-8,16,3.82-5.42,4.84-6.88,6.23-9.67s1.72-4.43,1.69-5.94c0-.09,0-.23,0-.31a.1.1,0,0,1,.08,0" style="fill:#f58d76"/><path d="M142.27,99.53c.07.06.42,1.31-.65,3.49a.17.17,0,0,1,0,0s0-.05,0-.08l.3-1.14,0-.08a18.47,18.47,0,0,0,.23-1.9c0-.08,0-.25.06-.27s0,0,0,0" style="fill:#fccdbe"/></g><path d="M145.66,119.52l.89,1.15.17.23c-.31,0,15.42-16.34,13.79-21.87-.67-2.28-10.46,7-13.79,21.87l-.17-.23-.89-1.15c3.16-14.19,14-24.66,16.12-20.88,1.33,4.89-6.81,14.86-12.14,19C147.82,119.13,146.33,119.88,145.66,119.52Z" style="fill:#ed1c2e"/><g style="clip-path:url(#av)"><path d="M145.66,119.52l.89,1.15.17.23c-.31,0,15.42-16.34,13.79-21.87-.67-2.28-10.46,7-13.79,21.87l-.17-.23-.89-1.15c3.16-14.19,14-24.66,16.12-20.88,1.33,4.89-6.81,14.86-12.14,19-1.82,1.43-3.31,2.18-4,1.83" style="fill:#bc1322"/><path d="M146.55,120.67l-.47-.61h0c4.27-17.34,14-23.41,14.62-21.81.11.28-.21.41-.22.65s.14.65.15,1a3.12,3.12,0,0,0-.12-.86c-.67-2.28-10.46,7-13.79,21.87l-.17-.23" style="fill:#bc1322"/><path d="M160.85,98.69c1.28-.1,1.34,5.16-6.75,14.56a25.68,25.68,0,0,1-4.65,4.55.57.57,0,0,1,0-.1s.13-.16.78-.94a78.58,78.58,0,0,0,8.58-11.69c1.77-3.16,2-5.06,1.86-6.11,0-.06,0-.25.15-.28" style="fill:#db192a"/><path d="M145.78,119.57a3,3,0,0,1,.3.49l.47.61.17.23s0,0,0,0a32.12,32.12,0,0,1,2.45-2.8l.29-.23c-1.65,1.27-3,2-3.7,1.75" style="fill:#bc1322"/><path d="M160.92,98.9c.42.13.79,1.82-.81,5a53.83,53.83,0,0,1-6.25,9.15c3.09-4.3,4.25-5.91,5.42-8.27s1.6-3.84,1.56-5.55c0-.09,0-.24,0-.31a.11.11,0,0,1,.08,0" style="fill:#f58d76"/><path d="M161,99.45c.2.21.08,1.18.08,1.19a6,6,0,0,1-.67,2l0,0c-.14-.27.18-.7.26-1s.14-.7.19-1,.05-.64.07-.92.05-.32.07-.32,0,0,0,0" style="fill:#fccdbe"/></g><path d="M187.67,126.76c0-.92,1.45-2.61,2.72-4.78-3.49-.78-14.26,6.54-12.8,7.1-.55-.68-2.41-1.81-1.88-3.24.64-.85,1.48-2.05,5.23-7.48-4.74,2.32-7.19,3.53-8.63,3.75-1.2,6-11.74,12.93-16.8,5.89-13.3,7.91-13.73,3.05-14.12,1-2.18,1.28-12.8,7.43-17.15,5.64-1.24-.49-2-2.4-2.66-4.28-2,1.74-13,10.87-17,7.48-1.79-1.54-.91-4.78-.86-4.94-.77-2.63-5.47,1-5,.66.91.52.77-.54.65-4.28-12.94,16.35-22.15,16-23.27,11.66-2.07-8.65-7.9-7.24-12.67-3.14-4.5,3.77-8.75,10-9.67,12.46-.55,1.5-1.17,2.57-.48,1.36a52.58,52.58,0,0,0-8-3.41l21.71-41.41c6.77,1.39,12.14,2,11.17,2,.92-1.25-13,17.63-23.54,32,8.25-6.58,17.39-13.61,20.32-11,3.35,2.78,2.52,7.61,8.57,7.09,3.47-.44,7.09-5.6,11.25-11.11,2.81-3.71,10.23-15.37.48-24.42-15.12-11.82-40.08-1.18-50.52,4.24-3.59,1.86-10.3,5.84-8.33,7.46-.05.13,3.39-8.14,5-12.17,2.45-2.76,18.1-8.87,33.51-9.73,15.23-.82,29.71,3.46,31.36,20.29.48,4.86-1.39,9.91-5.13,15.12-2,4.77,7.78.13,11.14-6.38l5.55,2s-7.49,6.29-6.62,10.64c1.56,3.12,7.13-1.79,9.79-4.2-1.15-9,5.63-34,22.58-36.87,3.18-.37,3.88,1,4.18,2.21.63,2.63-1.41,10,.88,8.94,3.16-4.19,6-8.78,11.71-10.75,1.65-.58,3.17-.67,4,.21,5.55,6.59-12.75,28.85-18.22,32.8,0,.78,0,2.54,1,3.62,4,2,7.26-1.61,7.82-2.2-.52-15.27,17.18-19,18.06-6.54,4.22.12,11.25-5.48,12-6.94l3.53,1.88c.45-.74-1.29,1.08-4.37,7.73,4.63-3.42,12.92-9.25,14.63-7.55.8.08-1.11,2-6.4,9.63,5.43-1,12.26-6.62,14.21-9,0-1.74-1.67-5.54,4.18-7.63.69-.22,1.44-.21,1.49-.07.82,1-.94,2.77-2.15,5.41,2.77,4.62,6.27,11.75-.31,14.69-4,1.88-6,.55-7.67-1.18-1.29-1.38.76-3.64,1.78-3,.24,0,.08,1,1.76,1.86,1.92.95,3.54-.59,4.17-1.5a5.09,5.09,0,0,0,.2-4.29c0-.63-1.36-2.56-2.54-4.71C201,123.93,187.29,131.25,187.67,126.76Zm-61.35-5.41C129,122.67,145,105.15,143,98.64c-2.26-3.7-14.06,8.39-16.67,22.71m19.33-1.82c2.63,1.4,17.91-14.31,16.12-20.88-2.09-3.79-13,6.69-16.12,20.88m1-16.9c-10.51,16.93-19.05,24-20.1,24.9,2.37,8.38,12.77.57,13.92-.32-.38-2.17-.45-5.37,6.18-24.59M160.47,127c4.2,3.56,8.29-1.23,11.64-6.27-3,.86-4.54-.33-2.73-5-8.31,2.25-11.32,7.76-8.91,11.28" style="fill:url(#aw)"/><path d="M210.82,108.32l-.45-1.26c1-.33,2.35-.41,3,.33l-1,.85C212.26,108.11,211.51,108.1,210.82,108.32Z" style="fill:#ed1c2e"/><g style="clip-path:url(#ax)"><path d="M210.82,108.32l-.45-1.26c1-.33,2.35-.41,3,.33l-1,.85c-.05-.13-.81-.15-1.49.07" style="fill:#db192a"/><path d="M212.32,108.25c-.05-.13-.81-.15-1.49.07l-.16-.44h0a5.49,5.49,0,0,1,1.39-.29,1.89,1.89,0,0,0,.48-.11c.39-.17.43-.33.14-.49a3.21,3.21,0,0,0-2.3.08c1-.33,2.35-.41,3,.33l-1,.85" style="fill:#db192a"/><path d="M212.32,108.25c-.05-.13-.81-.15-1.49.07v0h0a3.15,3.15,0,0,1,1.43-.15.23.23,0,0,0,.12,0,3.3,3.3,0,0,0,.78-.69c.09-.18-.18-.35-.24-.38a2.18,2.18,0,0,0-.93-.24,1.84,1.84,0,0,1,1.36.57l-1,.86" style="fill:#cc1626"/><path d="M213.32,107.41a.9.9,0,0,0-.36-.34,1.34,1.34,0,0,1,.39.31l0,0" style="fill:#bc1322"/><path d="M213.34,107.39l0,0,0,0h0" style="fill:#ad0e1d"/></g><path d="M122.16,107.32l1.09.76c-2.8,4-5.44,5.12-8.08,3.26s-2.65-5.52,1-10.49c3.41-4.66,6.19-5.35,9.11-3.13,2.46,1.88.78,6.35-2,10.35l-1.09-.76c2.62-3.78,3.84-7.48,2.3-8.53-2.18-1.65-4.16-1.23-7.22,2.86-3.25,4.52-3.05,7.4-1.29,8.61S120.38,110.21,122.16,107.32Z" style="fill:#ed1c2e"/><g style="clip-path:url(#ay)"><path d="M122.16,107.32l1.09.76c-2.8,4-5.44,5.12-8.08,3.26s-2.65-5.52,1-10.49c3.41-4.66,6.19-5.35,9.11-3.13,2.46,1.88.78,6.35-2,10.35l-1.09-.76c2.62-3.78,3.84-7.48,2.3-8.53-2.18-1.65-4.16-1.23-7.22,2.86-3.25,4.52-3.05,7.4-1.29,8.61s4.43,0,6.21-2.93" style="fill:#bc1322"/><path d="M124.79,98a1.44,1.44,0,0,1-.6-.15C123,97.44,120.92,96.7,118,100c-4.59,5.32-3.83,8.47-3.59,9.5,0,.11.09.39,0,.45s-1.51-1.12-.86-4.07,3.76-7,5.5-8.23c3.64-2.65,5.65.06,5.67.09s.08.13.06.19a.11.11,0,0,1,0,0" style="fill:#db192a"/><path d="M113.35,107.77c.12,3,1.84,3.31,2.86,3.49,1.85.33,3.35-.28,5-2.07a13.88,13.88,0,0,0,1.28-1.63l.74.52c-2.8,4-5.44,5.12-8.08,3.26a4.29,4.29,0,0,1-1.83-3.63h0s0,0,0,.06" style="fill:#bc1322"/><path d="M122.51,107.57a18.52,18.52,0,0,0,3.21-6.87c.4-2.24.45-2.53-1.33-3.55a7.49,7.49,0,0,1,.89.59c2.46,1.88.78,6.35-2,10.35l-.74-.52" style="fill:#bc1322"/><path d="M123.58,97.27s-.17,0-.43,0c-.82-.07-3.32-.27-5.89,3-1.11,1.41-3.65,5.06-3.21,8.35.1.73.05.74,0,.75s-1.65-1.93,1.08-6.44a25.19,25.19,0,0,1,4.94-5.59c1.7-1.15,3.46-.42,3.52-.13a.07.07,0,0,1,0,.06" style="fill:#f58d76"/><path d="M114.27,105.11l0,.19a17.7,17.7,0,0,0-.36,2.4,6.28,6.28,0,0,1,0,1c-.46-.64-.22-2.68.43-3.75l0,.13" style="fill:#fccdbe"/><path d="M122.73,97a1.69,1.69,0,0,1-.28,0c-.33,0-.66.06-1,.11,0,0-.35.07-.58.13-.44.13-.44.13-.53.08a2.42,2.42,0,0,1,2.45-.4l-.08.05" style="fill:#fccdbe"/></g><path d="M212.32,108.25l1-.85c1.52,2.11-.81,4.34-1.67,6.19l-1.51.08C211.38,111,213.14,109.23,212.32,108.25Z" style="fill:#ed1c2e"/><g style="clip-path:url(#az)"><path d="M212.32,108.25l1-.85c1.52,2.11-.81,4.34-1.67,6.19l-1.51.08c1.21-2.64,3-4.43,2.15-5.41" style="fill:#bc1322"/><path d="M210.69,113.63c.6-1.35,1.54-2.51,2.12-3.87.77-1.82.67-2,.5-2.33l0,0c1.52,2.11-.81,4.34-1.67,6.19l-1,.05" style="fill:#bc1322"/><path d="M211.14,113.61c.63-1.5,1.76-2.73,2.3-4.28a1.76,1.76,0,0,0-.1-1.93c1.52,2.11-.81,4.34-1.67,6.18l-.53,0" style="fill:#ad0e1d"/></g><path d="M210.17,113.66l1.51-.08c2.52,4.19,6.58,12.32-1.25,16l-.57-1.21C216.44,125.4,212.94,118.27,210.17,113.66Z" style="fill:#ed1c2e"/><g style="clip-path:url(#ba)"><path d="M210.17,113.66l1.51-.08c2.52,4.19,6.58,12.32-1.25,16l-.57-1.21c6.58-2.95,3.08-10.08.31-14.69" style="fill:#bc1322"/><path d="M210,128.73c5.2-2.75,5.71-7.85,1.53-15.15h.11c2.52,4.19,6.58,12.32-1.25,16l-.39-.83" style="fill:#bc1322"/><path d="M210.2,129.08c7.07-3.82,4.71-10,1.46-15.51,2.53,4.19,6.59,12.32-1.24,16l-.22-.48" style="fill:#ad0e1d"/></g><path d="M209.86,128.35l.57,1.21c-4.68,2.24-7.23.56-9.19-1.46l1-.93C203.89,128.91,205.87,130.23,209.86,128.35Z" style="fill:#ed1c2e"/><g style="clip-path:url(#bb)"><path d="M209.86,128.35l.57,1.21c-4.68,2.24-7.23.56-9.19-1.46l1-.93c1.7,1.73,3.68,3.06,7.67,1.18" style="fill:#bc1322"/><path d="M201.33,128s.05,0,.07.06c2.32,2,5.22,2.24,8.63.65l.39.83c-4.68,2.24-7.23.56-9.19-1.46l.1-.09" style="fill:#bc1322"/></g><path d="M202.19,127.17l-1,.93c-2.21-2.57,1-6.33,3.35-5.11.87.45.69,1.36,1.71,1.84l-.57,1.2c-1.68-.88-1.52-1.82-1.76-1.86C203,123.53,200.9,125.79,202.19,127.17Z" style="fill:#ed1c2e"/><g style="clip-path:url(#bc)"><path d="M202.19,127.17l-1,.93c-2.21-2.57,1-6.33,3.35-5.11.87.45.69,1.36,1.71,1.84l-.57,1.2c-1.68-.88-1.52-1.82-1.76-1.86-1-.64-3.08,1.62-1.78,3" style="fill:#db192a"/><path d="M206.27,124.9s-1-.07-.48.49c0,.05.13.11.18.16l-.24.5c-1.68-.88-1.52-1.82-1.76-1.86-1-.64-3.08,1.62-1.78,3l-1,.93c-2.21-2.57,1-6.33,3.35-5.11.87.45.69,1.36,1.71,1.84l0,.07" style="fill:#db192a"/><path d="M204.47,123.54s-.19.21-.33.17a2.34,2.34,0,0,0-2.22,1,3,3,0,0,0-.54,2.33c0,.27,0,.42-.06.49s-.68-.56-.76-1.47c-.18-2.17,2.76-4,3.95-3a.42.42,0,0,1,0,.5" style="fill:#db192a"/><path d="M204.23,123.35a1.75,1.75,0,0,1-.41.08,3.23,3.23,0,0,0-2.11.9,3.76,3.76,0,0,0-.56,2.5c0,.11,0,.24-.05.26s-.52-.57-.35-1.47a2.5,2.5,0,0,1,.4-.92,1.92,1.92,0,0,1,.14-.17l.08-.08.07-.08s.12-.09.17-.14a6.57,6.57,0,0,1,.87-.92c.72-.5,1.55-.41,1.76-.1a.1.1,0,0,1,0,.14" style="fill:#f58d76"/><path d="M206.18,124.77a2.27,2.27,0,0,1-1.07-1.22,1,1,0,0,0-.48-.54c.79.44.68,1.27,1.56,1.76h0" style="fill:#bc1322"/><path d="M203.86,123.25a.87.87,0,0,1-.27.07h0l-.72.13c-.12,0-.18,0-.19,0s.75-.58,1.22-.31c.1.06,0,.11,0,.13" style="fill:#fccdbe"/><path d="M201.11,125.27a1,1,0,0,1,0,.1l0,.3c0,.27,0,.31-.06.75,0,.22,0,.25,0,.28h0c-.09,0-.19-.4-.16-.75a1.28,1.28,0,0,1,.28-.79h0s0,.07,0,.09" style="fill:#fccdbe"/><path d="M200.5,126.32a2.59,2.59,0,0,0,.78,1.74l0,0a2.93,2.93,0,0,1-.74-1.9s0,.08,0,.12" style="fill:#bc1322"/></g><path d="M205.73,126l.57-1.2c1,.52,2-.41,2.5-1.07l1.09.77C209.26,125.45,207.65,127,205.73,126Z" style="fill:#ed1c2e"/><g style="clip-path:url(#bd)"><path d="M205.73,126l.57-1.2c1,.52,2-.41,2.5-1.07l1.09.77c-.63.91-2.25,2.45-4.17,1.5" style="fill:#db192a"/><path d="M209.9,124.53c-.63.91-2.25,2.45-4.17,1.5l.42-.88h0c.31,1,2.15.92,3.35-.9l.4.28" style="fill:#db192a"/><path d="M208.81,123.77a3.22,3.22,0,0,1-1.25,1.07,1.66,1.66,0,0,1-1.09.1.61.61,0,0,0-.21,0l0-.09c1,.52,2-.41,2.5-1.07h0" style="fill:#db192a"/><path d="M209.9,124.53c-.63.91-2.25,2.45-4.17,1.5l0-.05h0a2.69,2.69,0,0,0,3-.33l.18-.14a5,5,0,0,0,.93-1l0,0" style="fill:#cc1626"/><path d="M206.73,125a1.6,1.6,0,0,1-.43-.13h0a1.3,1.3,0,0,0,.55.15h-.12" style="fill:#cc1626"/><path d="M208.8,123.77a3.59,3.59,0,0,1-.37.44,3.53,3.53,0,0,0,.37-.44h0" style="fill:#cc1626"/></g><path d="M209.9,124.53l-1.09-.77a3.74,3.74,0,0,0,0-3l1.27-.49C210.5,121.36,210.77,123.29,209.9,124.53Z" style="fill:#ed1c2e"/><g style="clip-path:url(#be)"><path d="M209.9,124.53l-1.09-.77a3.74,3.74,0,0,0,0-3l1.27-.49c.4,1.11.67,3-.2,4.29" style="fill:#db192a"/><path d="M210.09,120.25a5.09,5.09,0,0,1-.2,4.29l-.4-.28h0a2.06,2.06,0,0,0-.15-2.29s-.05.06-.06.09c-.09.31-.09.64-.16,1a1.93,1.93,0,0,1-.33.77,3.77,3.77,0,0,0,0-3l1.27-.49" style="fill:#db192a"/><path d="M208.92,120.7c.18.81.47,2.17-.12,3.07a3.74,3.74,0,0,0,0-3l.09,0" style="fill:#cc1626"/><path d="M210.09,120.25a5.09,5.09,0,0,1-.2,4.29l0,0h0a5,5,0,0,0,.11-4.23l.11,0" style="fill:#cc1626"/><path d="M208.83,120.73a5.16,5.16,0,0,1,.31,1.68,5,5,0,0,0-.31-1.68h0" style="fill:#bc1322"/></g><path d="M210.09,120.25l-1.27.49a12.33,12.33,0,0,0-1.47-2.78l.19-2.42C208.74,117.69,210.11,119.62,210.09,120.25Z" style="fill:#ed1c2e"/><g style="clip-path:url(#bf)"><path d="M210.09,120.25l-1.27.49a12.33,12.33,0,0,0-1.47-2.78l.19-2.42c1.19,2.15,2.56,4.08,2.54,4.71" style="fill:#db192a"/><path d="M207.55,115.54c1.19,2.15,2.56,4.08,2.54,4.71l-.74.28h0c-.23,0-.38.07-.44.17l-.09,0a12.33,12.33,0,0,0-1.47-2.78l.19-2.42" style="fill:#db192a"/><path d="M207.42,117.18c.35-.2.37-.21.09-1.08l0-.56c1.19,2.15,2.56,4.08,2.54,4.71l0,0h0c-.12-.49-1-1.57-1.21-1.18-.25.55.06,1.1,0,1.64a13.11,13.11,0,0,0-1.48-2.78l.06-.78" style="fill:#cc1626"/><path d="M207.36,117.93c1.12,1.83,1.42,2.32,1.47,2.8a12.46,12.46,0,0,0-1.47-2.78v0" style="fill:#bc1322"/></g><path d="M207.55,115.54l-.19,2.42c-5.55,7.12-20.58,15.12-21,8.9l1.33-.09C187.29,131.25,201,123.93,207.55,115.54Z" style="fill:#ed1c2e"/><g style="clip-path:url(#bg)"><path d="M207.55,115.54l-.19,2.42c-5.55,7.12-20.58,15.12-21,8.9l1.33-.09c-.38,4.49,13.32-2.83,19.88-11.22" style="fill:#fccdbe"/><path d="M186.61,126.83a1,1,0,0,0,.18.48c.07-.13.07-.13.09-.5l.79-.06c-.38,4.5,13.32-2.83,19.88-11.22l-.19,2.42c-5.55,7.12-20.58,15.12-21,8.9l.27,0" style="fill:#fccdbe"/><path d="M186.55,126.84c.15.91.4.81.4.81s0,0,.05-.84l.67,0c-.38,4.5,13.32-2.83,19.88-11.22l-.19,2.42c-5.55,7.12-20.58,15.12-21,8.9l.21,0" style="fill:#f58d76"/><path d="M186.45,126.84c.27,1.19.64,1.14.68,1.12s.08,0,.1-1.18l.45,0c-.38,4.5,13.32-2.83,19.88-11.22l-.19,2.42c-5.55,7.12-20.58,15.12-21,8.9h.11" style="fill:#db192a"/><path d="M186.34,126.85c.18,1.35.59,1.57,1.37,1.53,3-.16,3.67-.2,7.27-2a39.71,39.71,0,0,0,12.5-10.09l-.13,1.65c-5.55,7.12-20.58,15.12-21,8.9h0" style="fill:#bc1322"/></g><path d="M122.16,107.32c-1.78,2.89-4.4,4.2-6.21,2.93s-2-4.09,1.29-8.61c3.07-4.08,5-4.5,7.22-2.86C126,99.85,124.78,103.54,122.16,107.32Z" style="fill:#cb1626"/><path d="M195,135.83l.72,1.32c-60.3,1.24-108.39,22.74-114.57,24.44L84,159.41C86.85,158.63,135.12,137.06,195,135.83Z" style="fill:#ed1c2e"/><g style="clip-path:url(#bh)"><path d="M195,135.83l.72,1.32c-60.3,1.24-108.39,22.74-114.57,24.44L84,159.41c2.82-.78,51.09-22.35,111-23.58" style="fill:#bc1322"/><path d="M83.09,160.11a324,324,0,0,1,112.16-23.81l.46.84c-60.3,1.24-108.39,22.74-114.57,24.44l2-1.47" style="fill:#bc1322"/></g><path d="M87.17,152l-1-1.1c20.62-6.39,56.42-18.09,112.4-18.12l-2.49,1.33C142.85,134.16,107.19,145.81,87.17,152Z" style="fill:#ed1c2e"/><g style="clip-path:url(#bi)"><path d="M87.17,152l-1-1.1c20.62-6.39,56.42-18.09,112.4-18.12l-2.49,1.33c-53.27,0-88.93,11.68-108.95,17.88" style="fill:#fccdbe"/><path d="M198.09,133.07c-50.77.43-80.61,8.44-111.68,18.08,20.42-6.63,56.22-18.33,112.19-18.35l-.52.28" style="fill:#fccdbe"/><path d="M196.12,134.13c-53.27,0-88.93,11.68-108.95,17.88l-.55-.63h0c29.62-9.21,60.39-17.52,110.93-18l-1.43.77" style="fill:#fccdbe"/><path d="M198.24,133c-51,.41-80.87,8.43-111.88,18.09,20.48-6.56,56.28-18.26,112.25-18.29l-.37.2" style="fill:#f58d76"/><path d="M196.12,134.13c-53.27,0-88.93,11.68-108.95,17.88l-.44-.51h0c30.8-9.56,60.38-17.51,110.56-18l-1.17.62" style="fill:#f58d76"/><path d="M196.12,134.13c-53.27,0-88.93,11.68-108.95,17.88l-.26-.3c30.83-9.56,60.38-17.51,109.92-18l-.71.38" style="fill:#db192a"/><path d="M198.6,132.8c-1.51.38-3.63,0-5.19,0-50.1.35-85.84,11.45-107.2,18.08,20.62-6.39,56.42-18.09,112.4-18.12h0" style="fill:#db192a"/></g><path d="M87.17,152c20-6.2,55.68-17.86,108.95-17.88L195,135.83c-59.87,1.23-108.14,22.8-111,23.58C82.59,161.77,87.18,152,87.17,152Z" style="fill:#cb1626"/><path d="M121.59,130.41l-.59,2.26c-.61.52-12.14,10.38-17.22,6.26l.84-1C108.56,141.28,119.56,132.15,121.59,130.41Z" style="fill:#ed1c2e"/><g style="clip-path:url(#bj)"><path d="M121.59,130.41l-.59,2.26c-.61.52-12.14,10.38-17.22,6.26l.84-1c3.94,3.39,14.93-5.74,17-7.48" style="fill:#bc1322"/><path d="M104,138.71c4.21,1.77,10.23-2.26,12.5-3.79l.59-.41c.8-.57,2.45-1.75,4.37-3.41l-.41,1.57c-.61.52-12.14,10.38-17.22,6.26l.17-.21" style="fill:#bc1322"/></g><path d="M104.62,137.89l-.84,1c-2.48-2.21-1.37-6.13-1.31-6.34l1.29.36C103.71,133.1,102.84,136.35,104.62,137.89Z" style="fill:#ed1c2e"/><g style="clip-path:url(#bk)"><path d="M104.62,137.89l-.84,1c-2.48-2.21-1.37-6.13-1.31-6.34l1.29.36c0,.16-.92,3.4.86,4.94" style="fill:#fccdbe"/><path d="M102.76,132.66c-.56,1.54-.24,3.69,0,3.73l0,0a2.72,2.72,0,0,0,0-.49,10.92,10.92,0,0,1,0-1.75c0-.47.14-.94.2-1.41l.81.23c0,.16-.92,3.4.86,4.94l-.84,1c-2.48-2.21-1.37-6.13-1.31-6.34l.29.08" style="fill:#fccdbe"/><path d="M102.67,132.64c-.69,2.31.08,4.59.34,4.48.06,0,0-.33,0-.56a9.5,9.5,0,0,1-.14-1.61,9.69,9.69,0,0,1,.27-2.19l.65.18c0,.16-.92,3.4.86,4.94l-.84,1c-2.48-2.21-1.37-6.13-1.31-6.34l.19.05" style="fill:#f58d76"/><path d="M102.5,132.59c-.81,3.24.65,5.33.91,5.21.09,0,.06-.15-.11-.86a7.74,7.74,0,0,1-.23-1.58,8.38,8.38,0,0,1,.3-2.53l.4.11c0,.16-.92,3.4.86,4.94l-.84,1c-2.48-2.21-1.37-6.13-1.31-6.34h0" style="fill:#db192a"/><path d="M102.18,135c0,.7.19,3,1.75,3.75l-.14.17a5.28,5.28,0,0,1-1.61-4h0s0,.07,0,.09" style="fill:#bc1322"/></g><path d="M124.26,134.69l-.49,1.24c-1.84-.77-2.72-3.14-2.76-3.27l.59-2.26C122.29,132.29,123,134.2,124.26,134.69Z" style="fill:#ed1c2e"/><g style="clip-path:url(#bl)"><path d="M124.26,134.69l-.49,1.24c-1.84-.77-2.72-3.14-2.76-3.27l.59-2.26c.7,1.88,1.42,3.79,2.66,4.28" style="fill:#f58d76"/><path d="M121.15,132.13c.14.33.2.39.23.39s.07,0-.14-.72l.36-1.39c.7,1.88,1.42,3.79,2.66,4.28l-.49,1.24c-1.84-.77-2.72-3.14-2.76-3.27l.14-.54" style="fill:#f58d76"/><path d="M121.1,132.32c.27.79.94,1.71,1.09,1.6s.06,0-.84-2.55l.25-1c.7,1.88,1.42,3.79,2.66,4.28l-.49,1.24c-1.84-.77-2.72-3.14-2.76-3.27l.09-.34" style="fill:#db192a"/><path d="M121,132.66c1,2.59,2.29,2.65,3,2.69l-.23.59c-1.84-.77-2.72-3.14-2.76-3.27h0" style="fill:#bc1322"/></g><path d="M141.41,129.05l-1,2.1c-.58.34-11.57,6.79-16.69,4.78l.49-1.24C128.61,136.48,139.22,130.33,141.41,129.05Z" style="fill:#ed1c2e"/><g style="clip-path:url(#bm)"><path d="M141.41,129.05l-1,2.1c-.58.34-11.57,6.79-16.69,4.78l.49-1.24c4.35,1.79,15-4.36,17.15-5.64" style="fill:#bc1322"/><path d="M124,135.34c2.58.49,5.68-.15,10.34-2.14l.63-.28a63.4,63.4,0,0,0,6.14-3.22l-.66,1.46c-.58.34-11.57,6.79-16.69,4.78l.23-.6" style="fill:#bc1322"/></g><path d="M99.41,129.33,98.19,133c-11.06,14.13-21.66,14-23.33,8.32l1.28-.38C77.26,145.29,86.47,145.68,99.41,129.33Z" style="fill:#ed1c2e"/><g style="clip-path:url(#bn)"><path d="M99.41,129.33,98.19,133c-11.06,14.13-21.66,14-23.33,8.32l1.28-.38c1.12,4.31,10.33,4.7,23.27-11.66" style="fill:#f58d76"/><path d="M75.12,141.29c.19.09.15.32.28.45a.9.9,0,0,0,0-.53l.72-.21c1.12,4.31,10.33,4.7,23.27-11.66L98.19,133c-11.06,14.13-21.66,14-23.33,8.32l.26-.08" style="fill:#f58d76"/><path d="M75,141.31c.51,1.23.81,1.13.82,1.12s0,0-.22-1.3l.51-.15c1.12,4.31,10.33,4.7,23.27-11.66L98.19,133c-11.06,14.13-21.66,14-23.33,8.32l.17-.05" style="fill:#db192a"/><path d="M74.86,141.36c.09,0,.07.22.1.31.48,1.42,1.25,1.93,3.46,2.28a11.73,11.73,0,0,0,6.4-1c6.1-2.74,10.79-8.08,14.19-12.43L98.19,133c-11.06,14.13-21.66,14-23.33,8.32h0" style="fill:#bc1322"/></g><path d="M155.52,128l-.35,1.76c-13.44,8-14.65,1.72-14.72,1.39l1-2.1C141.8,131.06,142.23,135.91,155.52,128Z" style="fill:#ed1c2e"/><g style="clip-path:url(#bo)"><path d="M155.52,128l-.35,1.76c-13.44,8-14.65,1.72-14.72,1.39l1-2.1c.39,2,.82,6.86,14.12-1" style="fill:#fccdbe"/><path d="M140.68,130.65l0,.15c.1-.1.1-.1.07-.4l.61-1.35c.39,2,.82,6.86,14.12-1l-.35,1.76c-13.44,8-14.65,1.72-14.72,1.39l.23-.5" style="fill:#fccdbe"/><path d="M140.63,130.78c.11.61.29.63.29.63s0-1.22,0-1.23l.51-1.13c.39,2,.82,6.86,14.12-1l-.35,1.76c-13.44,8-14.65,1.72-14.72,1.39l.17-.37" style="fill:#f58d76"/><path d="M140.57,130.92c.17.8.57,1.08.67,1s-.18-2.08-.18-2.1l.36-.79c.39,2,.82,6.86,14.12-1l-.35,1.76c-13.44,8-14.65,1.72-14.72,1.39l.11-.24" style="fill:#db192a"/><path d="M140.46,131.16c.53,2.45,3.78,1.89,5.16,1.64,3.18-.55,6.59-2.37,9.8-4.25l-.24,1.22c-13.44,8-14.65,1.72-14.72,1.39h0" style="fill:#bc1322"/></g><path d="M53.32,151.66l.44,1.92A47.43,47.43,0,0,0,43.43,149l1.91-.78A52.61,52.61,0,0,1,53.32,151.66Z" style="fill:#ed1c2e"/><g style="clip-path:url(#bp)"><path d="M53.32,151.66l.44,1.92A47.43,47.43,0,0,0,43.43,149l1.91-.78a52.61,52.61,0,0,1,8,3.41" style="fill:#bc1322"/><path d="M44.42,148.62c4.37,1.57,7.82,3.22,9.21,4.39l.13.56A47.43,47.43,0,0,0,43.43,149l1-.4" style="fill:#bc1322"/></g><path d="M45.34,148.24l-1.91.78,22.91-43.69.71,1.51Z" style="fill:#ed1c2e"/><g style="clip-path:url(#bq)"><path d="M67.05,106.84,45.34,148.24l-.58.23,22.07-42.09.22.45" style="fill:#db192a"/><path d="M66.84,106.38,44.76,148.48l-.48.19L66.66,106l.18.38" style="fill:#f58d76"/><path d="M66.66,106,44.28,148.67l-.49.2,22.68-43.25.18.39" style="fill:#fccdbe"/><path d="M66.47,105.62,43.79,148.87l-.35.14,22.9-43.67.13.27" style="fill:#f58d76"/><path d="M66.34,105.34,43.44,149h0l22.91-43.69h0" style="fill:#db192a"/></g><path d="M172.32,122.12l1.12,1.17c-1.2,5.93-12.92,13.65-18.27,6.49l.35-1.76C160.58,135,171.12,128.16,172.32,122.12Z" style="fill:#ed1c2e"/><g style="clip-path:url(#br)"><path d="M172.32,122.12l1.12,1.17c-1.2,5.93-12.92,13.65-18.27,6.49l.35-1.76c5.06,7,15.6.15,16.8-5.89" style="fill:#bc1322"/><path d="M155.18,129.72c4.12,4.86,15.62.19,17.58-7.14l.68.7c-1.2,5.93-12.92,13.65-18.27,6.49v0" style="fill:#bc1322"/></g><path d="M180.95,118.36l-4,3.46a24.35,24.35,0,0,1-3.48,1.46l-1.12-1.17C173.76,121.89,176.21,120.69,180.95,118.36Z" style="fill:#ed1c2e"/><g style="clip-path:url(#bs)"><path d="M180.95,118.36l-4,3.46a24.35,24.35,0,0,1-3.48,1.46l-1.12-1.17c1.44-.23,3.89-1.43,8.63-3.75" style="fill:#bc1322"/><path d="M172.7,122.51c1.14-.19,3.22-1.21,7-3.07l-2.77,2.39a24.35,24.35,0,0,1-3.48,1.46l-.74-.77" style="fill:#bc1322"/></g><path d="M36.47,113.18h-.33l-1.14,0c.18-.43,3.62-8.7,5.2-12.72l1.26.5C39.86,105,36.42,113.31,36.47,113.18Z" style="fill:#ed1c2e"/><g style="clip-path:url(#bt)"><path d="M36.47,113.18h-.33l-1.14,0c.18-.43,3.62-8.7,5.2-12.72l1.26.5c-1.61,4-5,12.3-5,12.17" style="fill:#db192a"/><path d="M41.46,101c-1.61,4-5,12.3-5,12.17h-.59c0-.09,0-.09.2-.51,3.34-8,4.44-10.84,4.86-11.89l.52.21" style="fill:#db192a"/><path d="M40.22,100.52C38.47,105,35,113.16,35,113.23c.16-.43,3.61-8.7,5.19-12.72h0" style="fill:#db192a"/><path d="M40.21,100.51C38.44,105,35.35,112.4,35,113.23c.18-.43,3.62-8.7,5.2-12.72h0" style="fill:#cc1626"/><path d="M41.46,101c-1.61,4-5,12.3-5,12.17h-.31c.12-.06.23-.14.35-.19l.1-.24.14-.33.17-.41.2-.49.23-.55.25-.61.27-.66c1.69-4.08,2.69-6.52,3.56-8.7h0" style="fill:#cc1626"/><path d="M36.47,113.16h-.29l.07,0c.07,0,.19-.06.22,0" style="fill:#bc1322"/><path d="M36.47,113.18h0" style="fill:#ad0e1d"/></g><path d="M98.91,134.73c-.05-.36-.1-.65-.19-1.1,0,0,4.3-3.19,5-.69l-1.29-.36c.07-.43-3.32,2.43-3.5,2.58Z" style="fill:#ed1c2e"/><g style="clip-path:url(#bu)"><path d="M98.91,134.73c-.05-.36-.1-.65-.19-1.1,0,0,4.3-3.19,5-.69l-1.29-.36c.07-.43-3.32,2.43-3.5,2.58l-.06-.44" style="fill:#fccdbe"/><path d="M98.91,134.73l0-.2,0-.1,0-.1,0-.11,0-.11,0-.11,0-.12,0-.12,0-.12s4.3-3.19,5-.69l-.78-.22h0a.28.28,0,0,0-.2-.06l-.32-.09c.07-.43-3.32,2.43-3.5,2.58l-.06-.44" style="fill:#fccdbe"/><path d="M98.91,134.73l0-.2,0-.1,0-.1,0-.11,0-.11,0-.11,0-.12,0-.12,0-.12s4.3-3.19,5-.69l-.64-.18h0a.36.36,0,0,0-.42-.12l-.23-.07c.07-.43-3.32,2.43-3.5,2.58l-.06-.44" style="fill:#f58d76"/><path d="M98.91,134.73l0-.2,0-.1,0-.1,0-.11,0-.11,0-.11,0-.12,0-.12,0-.12s4.3-3.19,5-.69l-.44-.13h0c-.08-.15-.11-.21-.25-.25s-.35.05-.53,0l-.06,0c.07-.43-3.32,2.43-3.5,2.58l-.06-.44" style="fill:#db192a"/><path d="M98.91,134.73l0-.2,0-.1,0-.1,0-.11,0-.11,0-.11,0-.12,0-.12,0-.12h0l.1.47a13.36,13.36,0,0,1,2.64-1.68c1.1-.47,1.48-.17,1.47-.05s-.31.11-.45.19v0c0-.38-3.33,2.44-3.5,2.59l-.06-.44" style="fill:#bc1322"/></g><path d="M79.22,108.31c-.37.2-.53.29-.87.51.15-.1-5-.68-11.3-2l-.71-1.51c7.68,1.58,12.95,2.13,14.62,2.06Z" style="fill:#ed1c2e"/><g style="clip-path:url(#bv)"><path d="M79.22,108.31c-.37.2-.53.29-.87.51.15-.1-5-.68-11.3-2l-.71-1.51c7.68,1.58,12.95,2.13,14.62,2.06l-1.73.92" style="fill:#fccdbe"/><path d="M80.4,107.69l-.09,0c-1.49-.19-3-.2-4.49-.38-2.36-.29-4.66-1-7.06-1a96.75,96.75,0,0,0,10.35,1.61,6.16,6.16,0,0,1,.65.07.09.09,0,0,1,0,.06l0,0-.56.3h0l-.52.29-.18.11-.19.12c.16-.1-4.94-.68-11.28-2l-.71-1.51c7.68,1.58,12.95,2.13,14.62,2.06l-.55.3" style="fill:#fccdbe"/><path d="M80.55,107.6c-1.94-.24-3.9-.3-5.83-.57-3.67-.52-6.65-1.12-8.26-1.43l-.13-.27c7.68,1.58,12.95,2.13,14.62,2.06l-.4.21" style="fill:#f58d76"/><path d="M79.22,108.31l-.52.29-.18.11-.19.12c.16-.1-4.94-.68-11.28-2l-.37-.78h0a108.81,108.81,0,0,0,12.46,2l.38,0a.09.09,0,0,1,0,.09h0l-.28.15" style="fill:#f58d76"/><path d="M79.22,108.31l-.52.29-.18.11-.19.12c.16-.1-4.94-.68-11.28-2l-.23-.48h0a99.57,99.57,0,0,0,12.34,1.94s.07,0,.1,0h0l-.05,0" style="fill:#db192a"/><path d="M80.94,107.4c-.4,0-4.25.05-14.6-2.05,7.68,1.56,12.94,2.11,14.61,2h0" style="fill:#db192a"/><path d="M79.22,108.31l-.52.29-.18.11-.19.12h0c.3-.17.59-.37.9-.52h0" style="fill:#bc1322"/></g><path d="M53.74,153.48a2.94,2.94,0,0,0-.72-1.29s.39-.86.78-1.89c.92-2.47,5.18-8.68,9.67-12.46,4.78-4.1,10.61-5.51,12.67,3.14l-1.28.38c-1.67-7.36-6.21-6.13-10.54-2.5s-8.45,9.66-9.28,11.9a20.64,20.64,0,0,1-1.28,2.81Z" style="fill:#ed1c2e"/><g style="clip-path:url(#bw)"><path d="M53.74,153.48a2.94,2.94,0,0,0-.72-1.29s.39-.86.78-1.89c.92-2.47,5.18-8.68,9.67-12.46,4.78-4.1,10.61-5.51,12.67,3.14l-1.28.38c-1.67-7.36-6.21-6.13-10.54-2.5s-8.45,9.66-9.28,11.9a20.64,20.64,0,0,1-1.28,2.81l0-.09" style="fill:#fccdbe"/><path d="M53.74,153.48l0-.12,0-.06,0-.08,0-.07,0-.09,0-.08,0-.09,0-.08-.06-.1-.05-.08-.07-.1-.06-.08-.07-.1-.07-.08-.08-.09s.4-.85.79-1.88c.92-2.47,5.18-8.68,9.67-12.46,4.78-4.1,10.61-5.51,12.67,3.14l-.86.25h0l-.1-.21,0,.24-.34.1c-1.67-7.36-6.21-6.13-10.54-2.5s-8.45,9.66-9.28,11.9a20.64,20.64,0,0,1-1.28,2.81l0-.09" style="fill:#fccdbe"/><path d="M53.74,153.48l0-.12,0-.06,0-.08,0-.07,0-.09,0-.08,0-.09,0-.08-.06-.1-.05-.08-.07-.1-.06-.08-.07-.1-.07-.08-.08-.09s.4-.85.79-1.88c.92-2.47,5.18-8.68,9.67-12.46,4.78-4.1,10.61-5.51,12.67,3.14l-.7.21h0a7.15,7.15,0,0,0-.82-2.12,10.65,10.65,0,0,0,.48,2.22l-.24.07c-1.67-7.36-6.21-6.13-10.54-2.5s-8.45,9.66-9.28,11.9a20.64,20.64,0,0,1-1.28,2.81l0-.09" style="fill:#f58d76"/><path d="M53.74,153.48l0-.12,0-.06,0-.08,0-.07,0-.09,0-.08,0-.09,0-.08-.06-.1-.05-.08-.07-.1-.06-.08-.07-.1-.07-.08-.08-.09s.4-.85.79-1.88c.92-2.47,5.18-8.68,9.67-12.46,4.78-4.1,10.61-5.51,12.67,3.14l-.49.15h0c-.83-3.15-1.73-3.55-1.74-3.55s-.06.06-.07.1.11.33.17.47a16.59,16.59,0,0,1,1,3.17l-.15,0c-1.67-7.36-6.21-6.13-10.54-2.5s-8.45,9.66-9.28,11.9a20.64,20.64,0,0,1-1.28,2.81l0-.09" style="fill:#db192a"/><path d="M53.74,153.48l0-.12,0-.06,0-.08,0-.07,0-.09,0-.08,0-.09,0-.08-.06-.1-.05-.08-.07-.1-.06-.08-.07-.1-.07-.08-.06-.07,0,0c.07.07.12.23.21.24a10.46,10.46,0,0,0,1-2c1.7-4.5,16.87-25.6,20.63-9.11-1.67-7.36-6.21-6.13-10.54-2.5s-8.45,9.66-9.28,11.9a20.64,20.64,0,0,1-1.28,2.81l0-.09" style="fill:#bc1322"/></g><path d="M176.83,129.85a4,4,0,0,0,.67-1.11c.68-1.57,9.75-7.46,12.89-6.75l-2,.81c-.81-.23-11.49,7.46-11.72,7.23Z" style="fill:#ed1c2e"/><g style="clip-path:url(#bx)"><path d="M176.83,129.85a4,4,0,0,0,.67-1.11c.68-1.57,9.75-7.46,12.89-6.75l-2,.81c-.81-.23-11.49,7.46-11.72,7.23l.18-.18" style="fill:#db192a"/><path d="M176.78,129.9l0,0h0l.1-.12.05-.07.06-.08.06-.08.06-.09.06-.1.06-.11.06-.11.06-.12.06-.12.06-.12c.68-1.57,9.75-7.45,12.89-6.75l-2,.81c-.81-.23-11.49,7.46-11.72,7.23l.13-.13" style="fill:#db192a"/><path d="M176.69,130a.71.71,0,0,0,.14-.14l0-.05.05-.06.05-.07.06-.08.06-.08.06-.09.06-.1.06-.11.06-.11.06-.12.06-.12.06-.12,0-.09h0c2.52-1.55,4.81-3.47,7.42-4.88,3.91-2.1,4.59-1.58,4.6-1.57a.1.1,0,0,1,0,.07s0,0,0,.06l-1.18.47c-.81-.23-11.49,7.46-11.72,7.23l0,0" style="fill:#bc1322"/></g><path d="M35.11,113.23a3.06,3.06,0,0,0,1.16-1.34c.92-1.91,5.7-4.69,8.53-6.17,10.44-5.42,35.4-16.07,50.52-4.24l-.9,1c-14.29-11.24-38.7-.91-49,4.45-3.51,1.82-10.34,6.46-10.41,6.32Z" style="fill:#ed1c2e"/><g style="clip-path:url(#by)"><path d="M35.11,113.23a3.06,3.06,0,0,0,1.16-1.34c.92-1.91,5.7-4.69,8.53-6.17,10.44-5.42,35.4-16.07,50.52-4.24l-.9,1c-14.29-11.24-38.7-.91-49,4.45-3.51,1.82-10.34,6.46-10.41,6.32h.11" style="fill:#db192a"/><path d="M35.05,113.23h.06l.3-.22.06,0,.06-.05.06-.06.06-.06.06-.07.07-.08.06-.08.07-.08.06-.09.06-.1.06-.1.06-.1.06-.11.06-.11c.92-1.9,5.7-4.69,8.53-6.16,10.44-5.42,35.4-16.07,50.52-4.24l-.9,1c-14.29-11.24-38.7-.91-49,4.45-3.5,1.82-10.34,6.46-10.41,6.32h.05" style="fill:#db192a"/><path d="M35,113.23h.1l.07,0,.23-.17.06,0,.06-.05.06-.06.06-.06.06-.07.07-.08.06-.08.07-.08.06-.09.06-.1.06-.1.06-.1.06-.11,0-.1,0,0c2.07-3,40-25.72,58.34-9.62l-.21.22c-14.29-11.24-38.7-.91-49,4.45-3.5,1.82-10.34,6.46-10.41,6.33h0" style="fill:#bc1322"/></g><path d="M196.22,134a2.66,2.66,0,0,0,.65-.25l1.74-.93-2.9,4.35-.72-1.32Z" style="fill:#ed1c2e"/><g style="clip-path:url(#bz)"><path d="M195,135.83l1.23-1.85h0l.13,0,.13,0,.08,0,.12-.05.13-.06.07,0,.05,0-1.7,2.55-.23-.43" style="fill:#db192a"/><path d="M195.22,136.25l1.7-2.55,1.69-.9-2.9,4.35-.49-.89" style="fill:#bc1322"/></g><path d="M99.31,133.63a1.79,1.79,0,0,0-.43.83l.1.71c-.72-.33-.78-2-.78-2.12l1.22-3.72C99.49,132,99.59,133.29,99.31,133.63Z" style="fill:#ed1c2e"/><g style="clip-path:url(#ca)"><path d="M99.31,133.63a1.79,1.79,0,0,0-.43.83l.1.71c-.72-.33-.78-2-.78-2.12l1.22-3.72c.08,2.66.18,4-.1,4.31" style="fill:#fccdbe"/><path d="M98.44,132.3c0,1.92.39,2,.39,2S99,134,99,134l0,0s-.14,0-.22-.56a15.11,15.11,0,0,1-.1-1.85l.73-2.22c.08,2.66.18,4-.1,4.31h0l-.16.21-.07.1-.07.12,0,.1-.05.13,0,.07a.28.28,0,0,0,0,.11l.1.7c-.72-.33-.78-2-.78-2.12l.24-.75" style="fill:#fccdbe"/><path d="M98.38,132.47c0,1.71.42,2,.46,2s0-.06,0-.09a2.09,2.09,0,0,1,.27-.51c-.18,0-.3-.16-.36-2.62l.61-1.88c.08,2.66.18,4-.1,4.31h0l-.16.21-.07.1-.07.12,0,.1-.05.13,0,.07a.28.28,0,0,0,0,.11l.1.7c-.72-.33-.78-2-.78-2.12l.19-.58" style="fill:#f58d76"/><path d="M98.28,132.77c0,1.06.4,1.9.56,1.79s.07-.31.15-.45a2.45,2.45,0,0,1,.23-.35s.06,0,.05-.08c-.2-.7-.2-.7-.28-3.07l.42-1.28c.08,2.66.18,4-.1,4.31h0l-.16.21-.07.1-.07.12,0,.1-.05.13,0,.07a.28.28,0,0,0,0,.11l.1.7c-.72-.33-.78-2-.78-2.12l.09-.27" style="fill:#db192a"/><path d="M99.31,133.63l0,0,0-.05,0,0" style="fill:#bc1322"/><path d="M98.19,133c0,1.18.44,2,.63,1.82s0-.38.09-.56l0,.07a.29.29,0,0,0,0,.1l.1.7c-.72-.33-.78-2-.78-2.12h0" style="fill:#bc1322"/></g><path d="M78.27,108.78c.48-.23.81-.4,1.39-.7l1.29-.69c-.73,1-14.67,19.87-19.34,26.26l-6.93,7.23C64.87,126.93,78.27,108.78,78.27,108.78Z" style="fill:#ed1c2e"/><g style="clip-path:url(#cb)"><path d="M78.27,108.78c.48-.23.81-.4,1.39-.7l1.29-.69c-.73,1-14.67,19.87-19.34,26.26l-6.93,7.23c10.19-14,23.59-32.11,23.59-32.11" style="fill:#bc1322"/><path d="M78.27,108.78l.09,0h0l-.1.07,0,0" style="fill:#bc1322"/><path d="M56.89,138.58l5.29-7.23.94-1.28c3.26-4.44,7.31-10,14.82-20.13l.37-.5.7-1a1.54,1.54,0,0,0-.58.21l.21-.1.06,0,.2-.1.2-.1.19-.1.19-.1.18-.1.08,0,1.21-.64c-.73,1-14.67,19.87-19.34,26.26l-4.73,4.93" style="fill:#bc1322"/></g><path d="M188.64,115a4.13,4.13,0,0,0,1-.13l.84-.23a28.41,28.41,0,0,0-2.84,4.08l-3.39,4.16C186.86,117.11,188.52,115,188.64,115Z" style="fill:#ed1c2e"/><g style="clip-path:url(#cc)"><path d="M188.64,115a4.13,4.13,0,0,0,1-.13l.84-.23a28.41,28.41,0,0,0-2.84,4.08l-3.39,4.16c2.65-5.74,4.31-7.88,4.43-7.88" style="fill:#bc1322"/><path d="M185.37,121.42a30.44,30.44,0,0,1,3.43-6.11c.19-.26.23-.32.21-.34s-.25,0-.37,0h.4l.14,0,.12,0,.14,0,.11,0h.06l.84-.23a28.41,28.41,0,0,0-2.84,4.08l-2.23,2.74" style="fill:#bc1322"/></g><path d="M83.77,159.77a24,24,0,0,0-2.2,1.49l-.43.33c.25-.41,4.83-10.16,5.07-10.67l.92,1.06,0,0S83.43,160,83.77,159.77Z" style="fill:#ed1c2e"/><g style="clip-path:url(#cd)"><path d="M83.77,159.77a24,24,0,0,0-2.2,1.49l-.43.33c.25-.41,4.83-10.16,5.07-10.67l.92,1.06,0,0s-3.74,8-3.4,7.76" style="fill:#f58d76"/><path d="M86.38,151.11c-4.59,9.65-4.59,9.65-4.8,10.07a.37.37,0,0,0,.17-.06l.06,0a1.62,1.62,0,0,0,.62-.73c1.48-2.94,2.78-6,4.23-8.93l.48.55s-3.7,8-3.36,7.79h0l-.38.23-.19.12-.19.12-.18.12-.18.12-.17.12-.17.12-.16.12L82,161l-.15.11-.14.1-.12.09h0l-.43.32c.25-.41,4.83-10.16,5.07-10.67l.17.19" style="fill:#f58d76"/><path d="M87.14,152l0,0s-3.74,8-3.4,7.76h0l-.38.23-.19.12-.19.12-.18.12-.18.12-.17.12-.17.12-.16.12L82,161l-.15.11-.14.1-.12.09h0l0,0,.2-.15.06,0c1-.71,1-.76,1.12-1,.35-.64,3.93-8.36,4-8.43l.26.3" style="fill:#db192a"/><path d="M86.22,150.93c0,.1-4.6,9.79-5.06,10.65.23-.39,4.81-10.14,5.05-10.66h0" style="fill:#db192a"/><path d="M81.63,161.21l.11-.08.06,0h0l-.23.17h0l.07-.05" style="fill:#bc1322"/><path d="M83.77,159.77l-.38.23-.19.12-.19.12-.18.12-.18.12-.17.12-.17.12-.12.08,0,0c.53-.39.87-.6,1.55-1h0" style="fill:#bc1322"/><path d="M87.14,152l0,0h0a.22.22,0,0,1,0-.07l0,0" style="fill:#bc1322"/></g><path d="M152,151.24a2.26,2.26,0,0,0,.2,1.17h-1.19a2.26,2.26,0,0,0,.2-1.17v-3.35a2.23,2.23,0,0,0-.18-1.16h2.76c.22,0,.41,0,.41.08v.69h0c-.25-.41-.81-.42-1.23-.42H152v2.3c.68,0,1.4,0,2.09-.06-.31.51-1.32.51-1.87.51h-.22v1.42Z"/><path d="M159.46,149.7c0,1.28-.55,2.45-1.83,2.45-1.43,0-1.83-1.54-1.83-2.71s.55-2.45,1.83-2.45C159.06,147,159.46,148.53,159.46,149.7Zm.92-.25a2.56,2.56,0,0,0-2.68-2.86,2.81,2.81,0,0,0-2.82,3.09,2.56,2.56,0,0,0,2.68,2.86A2.81,2.81,0,0,0,160.39,149.45Z"/><path d="M165.57,149.7c0,1.28-.55,2.45-1.83,2.45-1.43,0-1.83-1.54-1.83-2.71s.55-2.45,1.83-2.45C165.17,147,165.57,148.53,165.57,149.7Zm.92-.25a2.56,2.56,0,0,0-2.68-2.86,2.81,2.81,0,0,0-2.82,3.09,2.56,2.56,0,0,0,2.68,2.86A2.81,2.81,0,0,0,166.49,149.45Z"/><path d="M168.07,147.48c0-.14,0-.29,0-.42a5.14,5.14,0,0,1,.85-.07,2.26,2.26,0,0,1,2.43,2.52c0,1.46-.56,2.59-2.14,2.59-1,0-1.14,0-1.14-.68v-3.94Zm-.8,3.77a2.22,2.22,0,0,1-.2,1.16c.62,0,1.24,0,2.14,0a2.9,2.9,0,0,0,3.06-3.09,2.49,2.49,0,0,0-2.5-2.71c-.91,0-1.81.09-2.7.09a2.23,2.23,0,0,1,.2,1.16v3.36Z"/><path d="M175.43,151.3a1.77,1.77,0,0,0,1.58.9,1.08,1.08,0,0,0,1.18-1.12c0-1.5-2.54-1.31-2.54-3a1.58,1.58,0,0,1,1.78-1.53c.46,0,.91.05,1.37.05v.82a1.38,1.38,0,0,0-1.23-.53,1,1,0,0,0-1.08,1c0,1.37,2.54,1.2,2.54,2.91a1.9,1.9,0,0,1-2.07,1.72,4.87,4.87,0,0,1-1.53-.3Z"/><path d="M181.17,152.41a2.26,2.26,0,0,0,.2-1.17v-4.07h-1.18a1,1,0,0,0-.63.2l.18-.64h4.47c-.15.39-.69.45-1.06.45h-1v4.07a2.25,2.25,0,0,0,.2,1.17h-1.19Z"/><path d="M188.83,149.7c0,1.28-.55,2.45-1.83,2.45-1.43,0-1.83-1.54-1.83-2.71S185.72,147,187,147C188.43,147,188.83,148.53,188.83,149.7Zm.92-.25a2.56,2.56,0,0,0-2.68-2.86,2.81,2.81,0,0,0-2.82,3.09,2.56,2.56,0,0,0,2.68,2.86A2.81,2.81,0,0,0,189.75,149.45Z"/><path d="M191.51,147.42c0-.14,0-.3,0-.43h.42c.79,0,1.3.13,1.3,1a1.2,1.2,0,0,1-1.34,1.32l-.4,0Zm1.22,2a1.86,1.86,0,0,0,1.32-1.62c0-.7-.47-1.19-1.38-1.19-.69,0-1.41.09-2.15.09a2.25,2.25,0,0,1,.2,1.17v3.3a2.11,2.11,0,0,1-.24,1.22h1.24a2.25,2.25,0,0,1-.2-1.16v-1.6c.52,0,.58.2,1,.73l1.09,1.55a.84.84,0,0,0,.75.49H195a4.84,4.84,0,0,1-.75-.83Z"/><path d="M196.31,152.06h1a2.27,2.27,0,0,0,1.54-.51l-.16.81c-.24,0-.53,0-.85,0h-2.57a2.22,2.22,0,0,0,.22-1.16v-3.36a2.23,2.23,0,0,0-.2-1.16h3.1l0,.68a2,2,0,0,0-1.32-.33h-.83v2.14c.68,0,1.41,0,2.09-.06-.31.51-1.32.51-1.87.51h-.22v2.4Z"/><path d="M199.35,151.3a1.77,1.77,0,0,0,1.58.9,1.08,1.08,0,0,0,1.18-1.12c0-1.5-2.54-1.31-2.54-3a1.58,1.58,0,0,1,1.78-1.53c.46,0,.91.05,1.37.05v.82a1.38,1.38,0,0,0-1.23-.53,1,1,0,0,0-1.08,1c0,1.37,2.54,1.2,2.54,2.91a1.9,1.9,0,0,1-2.07,1.72,4.87,4.87,0,0,1-1.53-.3v-.94Z"/><path d="M204.77,147.87a1.68,1.68,0,1,1,1.68,1.8A1.76,1.76,0,0,1,204.77,147.87Zm-.33,0a2,2,0,1,0,2-2A2,2,0,0,0,204.44,147.87Zm1.33.68c0,.26,0,.26-.29.29v.1h1v-.1c-.3,0-.29,0-.29-.29V148h.29c.38.55.53,1,.72,1h.38v-.05a2.59,2.59,0,0,1-.45-.51l-.34-.46a.65.65,0,0,0,.47-.62c0-.38-.34-.54-.68-.54h-1.05v.09c.29,0,.29,0,.29.29v1.43Zm.38-1.68h.25c.29,0,.42.17.42.45s-.09.53-.41.53h-.26Z"/></svg>