<svg xmlns="http://www.w3.org/2000/svg" viewBox="0 0 250 250"><title>Grocery</title><path d="M166.35,138.11V142l10.41-2.75s2.06-.18,1.61,1.41c0,0-1.76,2.54-.09,3.09,0,0,.72.42,4.05-.71L207,137.17v-4l-14.78,2.93-11.11,3.09s-1.64,0-1.16-1.46c0,0,1.31-1.59,1.11-2.39,0,0-.35-.6-2.93-.08S166.35,138.11,166.35,138.11Z" style="fill:#fffdfd"/><path d="M34.94,102.49l.18,0c3.95,0,7.89-.08,11.84,0a12.8,12.8,0,0,1,5.81,1.4,11.26,11.26,0,0,1,5.8,7.74,12.68,12.68,0,0,1-2,10.61,10.58,10.58,0,0,1-7.37,4.37,30.23,30.23,0,0,1-4.35.25l-9.86,0v-.18a1,1,0,0,0,.44-.3,3.54,3.54,0,0,0,1.1-2.76q0-7.54,0-15.08c0-1.19,0-2.37-.1-3.55a2.87,2.87,0,0,0-1.44-2.44Zm8.44,12.27c0,2.58,0,5.16,0,7.74,0,.27,0,.45.34.51,3.26.63,5.71-.23,7.09-3.3a13.61,13.61,0,0,0-.3-10.51,5,5,0,0,0-3.61-2.71,10,10,0,0,0-3.13.09c-.32,0-.4.18-.39.49C43.39,109.63,43.38,112.19,43.38,114.75Z" style="fill:#df3b3f"/><path d="M177,101.86v15.28l1.59-1.82c.58-.66,1.16-1.34,1.76-2,1.15-1.27,1-2.35-.43-3.32l-.2-.17h8.58c0,.19-.15.27-.24.37q-2.61,2.89-5.22,5.78a.43.43,0,0,0-.06.64c1.37,2.11,2.72,4.24,4.09,6.35.89,1.37,1.64,2.87,3.08,3.78a.14.14,0,0,1-.16.12c-2,.06-4,.11-5.94.19a2.94,2.94,0,0,1-2.8-1.46c-1.1-1.77-2.17-3.56-3.25-5.34-.24-.39-.48-.78-.76-1.15,0,1.88-.15,3.75.06,5.61a2.92,2.92,0,0,0,.86,1.7l.39.41h-9s0-.1,0-.12a3.61,3.61,0,0,0,1.23-2.92c.06-2.79,0-5.58,0-8.37,0-3.39.06-6.78,0-10.18a3.33,3.33,0,0,0-1.13-2.55,1,1,0,0,1-.12-.14s0,0,0-.05a.88.88,0,0,1,.47,0c1.77,0,3.54.07,5.31-.06a3.54,3.54,0,0,0,1.73-.55Z" style="fill:#df3b3f"/><path d="M176.33,148.14a1.9,1.9,0,0,1-.89-2.88c.16-.29.35-.56.49-.86.25-.53.06-.84-.53-.87a5.76,5.76,0,0,0-2,.34l-6.59,2.1c-.48.15-.48.15-.48-.36,0-1.2,0-2.4,0-3.6,0-.23,0-.38.29-.46,2.71-.85,5.42-1.72,8.14-2.56a6.51,6.51,0,0,1,2.44-.32,2.35,2.35,0,0,1,1.36.52A1.47,1.47,0,0,1,179,141c-.12.31-.28.6-.4.9-.26.64,0,1,.73,1a9.89,9.89,0,0,0,1.84-.42c4.76-1.33,9.49-2.76,14.31-3.87q5.54-1.27,11.17-2.1c.27,0,.34,0,.33.29,0,1.26,0,2.52,0,3.78,0,.4-.19.43-.47.47-1.63.25-3.26.48-4.88.76a145.57,145.57,0,0,0-15.13,3.51c-2.57.74-5.12,1.58-7.68,2.38l-1.61.48Z" style="fill:#df3b3f"/><path d="M79.73,126.83a.14.14,0,0,1,.06-.17,3.61,3.61,0,0,0,1.16-3q0-5.36,0-10.72a3.62,3.62,0,0,0-1.19-3s0-.07-.05-.12c.14-.11.29-.06.44-.06,1.29,0,2.58,0,3.87,0a6.62,6.62,0,0,0,3.32-.59v2.11c.17.08.21-.07.26-.13a5.74,5.74,0,0,1,8.18-.3c.18.18.34.48.55.51s.37-.3.57-.47a6.85,6.85,0,0,1,3.9-1.56,8.3,8.3,0,0,1,4.06.54,4.94,4.94,0,0,1,3.3,4.84c0,2.81,0,5.61,0,8.42a13.08,13.08,0,0,0,.06,1.35,3.19,3.19,0,0,0,1,2c.09.09.23.15.25.34h-8.95a.93.93,0,0,1,.11-.17,3.58,3.58,0,0,0,1.16-2.91q0-4,0-8a4.67,4.67,0,0,0-.16-1.29,1.57,1.57,0,0,0-1.52-1.25,1.8,1.8,0,0,0-2,1,3,3,0,0,0-.26,1.22q0,4.32,0,8.64a3.23,3.23,0,0,0,1.1,2.51c.06.06.15.1.14.24h-8.9a.12.12,0,0,1,0-.17,3.47,3.47,0,0,0,1.16-2.81c0-2.63,0-5.25,0-7.88a4.68,4.68,0,0,0-.22-1.6,1.71,1.71,0,0,0-1.85-1.19,1.66,1.66,0,0,0-1.72,1.24,4.92,4.92,0,0,0-.2,1.51c0,2.31,0,4.62,0,6.93,0,1.45,0,2.88,1.42,4Z" style="fill:#df3b3f"/><path d="M141.17,126.84h-9c0-.07,0-.12.07-.15a3.54,3.54,0,0,0,1.22-3c0-2.54,0-5.07,0-7.61a4.44,4.44,0,0,0-.1-1,2.41,2.41,0,0,0-2.47-1.94,2.23,2.23,0,0,0-2,2.26c0,.7,0,1.41,0,2.11,0,2.09,0,4.17,0,6.26a3.46,3.46,0,0,0,1.19,2.93.33.33,0,0,1,.07.11s0,0,0,.07h-8.92c-.05-.18.12-.23.2-.31a3,3,0,0,0,1-2.27q0-5.83,0-11.66a3.24,3.24,0,0,0-1.12-2.55c-.06-.05-.16-.1-.11-.26h.41c1.47,0,2.94,0,4.41,0a6,6,0,0,0,2.46-.45c.38-.16.42,0,.41.31,0,.49,0,1,0,1.48,0,0,.08,0,.09,0a5.16,5.16,0,0,1,3.53-1.77,7.24,7.24,0,0,1,5.34,1.26,5,5,0,0,1,2.05,3.88c.14,2.8,0,5.61.06,8.41,0,.41,0,.81,0,1.22a3.11,3.11,0,0,0,1.08,2.43l.16.16S141.17,126.79,141.17,126.84Z" style="fill:#df3b3f"/><path d="M79.39,117.73c0,3-.81,5.3-2.71,7.08a9.4,9.4,0,0,1-5.19,2.39,11.1,11.1,0,0,1-6.14-.64,8.16,8.16,0,0,1-5.19-7.37,9.49,9.49,0,0,1,.74-4.62,8.1,8.1,0,0,1,4.9-4.55,11,11,0,0,1,8.79.33A8.3,8.3,0,0,1,79.39,117.73ZM73.14,119a10.38,10.38,0,0,0-.56-3.83,3.06,3.06,0,0,0-2-2.13,3,3,0,0,0-3.9,2.31,9.33,9.33,0,0,0-.26,3A10,10,0,0,0,67.1,122a3,3,0,0,0,3,1.89,2.78,2.78,0,0,0,2.65-2.18A8.53,8.53,0,0,0,73.14,119Z" style="fill:#df3b3f"/><path d="M166.35,137.23c0-.66,0-1.32,0-2a.36.36,0,0,1,.29-.41c4.37-1.38,8.73-2.77,13.1-4.13a5.69,5.69,0,0,1,2.7-.29,1.72,1.72,0,0,1,1.4,2.58l-.32.74a.67.67,0,0,0,.08.76.62.62,0,0,0,.71.11c1.65-.51,3.34-.84,5-1.24,5.41-1.29,10.82-2.52,16.3-3.46l1.11-.18c.19,0,.27,0,.27.22,0,1.34,0,2.67,0,4,0,.33-.21.31-.42.33-1.81.25-3.61.55-5.41.87a130.74,130.74,0,0,0-16.06,4,24.33,24.33,0,0,1-3.7.91,3.82,3.82,0,0,1-.76,0,1.1,1.1,0,0,1-1.1-.89,2.49,2.49,0,0,1,.19-1.88c.14-.28.3-.55.44-.83a.77.77,0,0,0,0-.85c-.2-.27-.5-.22-.79-.18a10.27,10.27,0,0,0-1.65.43l-11.09,3.51c-.34.11-.37,0-.36-.29C166.36,138.52,166.35,137.88,166.35,137.23Z" style="fill:#02a677"/><path d="M206.4,113.75a9.17,9.17,0,0,0-2.81-1.21,6.17,6.17,0,0,0-3.15-.07c-.46.14-.88.34-1,.89a1.26,1.26,0,0,0,.73,1.33,13.66,13.66,0,0,0,2.51.85,10.5,10.5,0,0,1,4.17,2.22,4.89,4.89,0,0,1-.61,7.64A10.58,10.58,0,0,1,202,127a23.45,23.45,0,0,1-9-.56c-.15,0-.27-.07-.31-.26-.25-1.33-.51-2.67-.77-4.07a15.27,15.27,0,0,0,3.93,1.69,8.48,8.48,0,0,0,3.83.21,1.62,1.62,0,0,0,1.4-1.12,1.29,1.29,0,0,0-.59-1.44,12,12,0,0,0-2.6-1.31,23.55,23.55,0,0,1-3.46-1.7c-3.32-2.12-2.39-5.91-.21-7.54a8.92,8.92,0,0,1,4.73-1.64,24.12,24.12,0,0,1,7.06.54c.29.06.42.16.41.49C206.38,111.41,206.4,112.53,206.4,113.75Z" style="fill:#df3b3f"/><path d="M169.18,121.84c-.35,1.22-.7,2.3-1,3.4a1.32,1.32,0,0,1-.92,1,13.2,13.2,0,0,1-9.66.35,8.08,8.08,0,0,1-5.5-6.61,8.7,8.7,0,0,1,6.46-10.13,14.87,14.87,0,0,1,6.1-.41c.64.08,1.28.15,1.92.21.21,0,.28.09.28.3q0,1.85,0,3.69c0,.45-.22.23-.38.13a6.36,6.36,0,0,0-3.17-1,3.56,3.56,0,0,0-4,3.15,8.3,8.3,0,0,0,.44,4.85c.87,2.16,2.44,3.05,5,2.84a8.27,8.27,0,0,0,4.11-1.57Z" style="fill:#df3b3f"/><path d="M119.83,126.85h-8.93c0-.12,0-.17.09-.21a3.43,3.43,0,0,0,1.15-2.77q0-5.54,0-11.07a3.41,3.41,0,0,0-1.28-2.89c.17-.18.34-.1.5-.1h4.82a4.28,4.28,0,0,0,2.13-.46c.23-.13.28,0,.28.18,0,.44,0,.87,0,1.31q0,6.21,0,12.42c0,.36,0,.72,0,1.08a3.07,3.07,0,0,0,.94,2.13c.1.1.2.22.3.33S119.83,126.8,119.83,126.85Z" style="fill:#df3b3f"/><path d="M151.44,126.81c-.4.09-8.57.09-9,0,0-.11.07-.16.13-.21a3.4,3.4,0,0,0,1.12-2.69q0-5.58,0-11.16a3.33,3.33,0,0,0-1.27-2.84c.17-.19.34-.11.49-.11h4.86a4.17,4.17,0,0,0,2.08-.46c.25-.14.28,0,.27.19s0,.69,0,1c0,4.39,0,8.79,0,13.18a3.57,3.57,0,0,0,1.22,3S151.43,126.77,151.44,126.81Z" style="fill:#df3b3f"/><path d="M150.06,105.31a3.39,3.39,0,0,1-3.47,3.38,3.35,3.35,0,0,1-3.2-3.26,3.41,3.41,0,0,1,3.38-3.48A3.32,3.32,0,0,1,150.06,105.31Z" style="fill:#df3b3f"/><path d="M118.46,105.33a3.4,3.4,0,0,1-3.53,3.37,3.34,3.34,0,0,1-3.14-3.32,3.39,3.39,0,0,1,3.44-3.42A3.34,3.34,0,0,1,118.46,105.33Z" style="fill:#df3b3f"/><path d="M188.36,112.14a14.05,14.05,0,0,0,3-2.87,8.07,8.07,0,0,1-.86-.18,2.36,2.36,0,0,1-1.73-2,2.44,2.44,0,0,1,1.24-2.59,2.51,2.51,0,0,1,2.84.05,3.13,3.13,0,0,1,1.1,3.76,8,8,0,0,1-3.21,3.88C190,112.72,189.18,112.4,188.36,112.14Z" style="fill:#df3b3f"/><path d="M212.71,127.14a2.23,2.23,0,1,1,2.23-2.23A2.23,2.23,0,0,1,212.71,127.14Zm0-4.19a2,2,0,1,0,2,2A2,2,0,0,0,212.71,123Z" style="fill:#df3b3f"/><path d="M211.87,123.87a4.19,4.19,0,0,1,.64,0,1.22,1.22,0,0,1,.75.18.5.5,0,0,1,.2.41.59.59,0,0,1-.49.55h0a.56.56,0,0,1,.38.43,3,3,0,0,0,.2.59h-.35a2.44,2.44,0,0,1-.17-.51.47.47,0,0,0-.52-.42h-.32V126h-.33Zm.33,1h.34c.36,0,.59-.16.59-.41s-.24-.4-.6-.4a1.66,1.66,0,0,0-.33,0Z" style="fill:#df3b3f"/></svg>