<svg xmlns="http://www.w3.org/2000/svg" viewBox="0 0 250 250"><title>Casual dining</title><path d="M225,174.74c-.19.24-.14.55-.2.83a2.81,2.81,0,0,1-2.4,2.35,16,16,0,0,1-3,.26q-6.6,0-13.19,0a20.4,20.4,0,0,1-2.65-.22A2.66,2.66,0,0,1,201,175.5a8.64,8.64,0,0,1-.16-1.52,106.37,106.37,0,0,1,.68-14.76c.07-.51.19-1,.26-1.51a1.85,1.85,0,0,1,1.67-1.64,17.63,17.63,0,0,1,3.39-.16c4.46,0,8.93,0,13.39,0a15.12,15.12,0,0,1,1.6.09,2.14,2.14,0,0,1,2.22,2.12,87.79,87.79,0,0,1,.82,9.35,4.84,4.84,0,0,0,.13,1.45Zm-12.2-.93c2-.07,4,.1,6.06-.12,1-.11,1.46-.51,1.48-1.52a81,81,0,0,0-.48-11c-.12-1-.42-1.27-1.42-1.3-.71,0-1.42,0-2.13,0l-9.13,0c-1,0-1.29.29-1.39,1.29a103.08,103.08,0,0,0-.42,10.78c0,1.19.39,1.6,1.56,1.72C208.89,173.91,210.85,173.75,212.8,173.81Z"/><path d="M55.35,137a73,73,0,0,1,7.19-7.37c2.3-2,4.54-4.05,6.66-6.24a51.35,51.35,0,0,0,5.89-8c.27-.41.56-.8.83-1.21a16.69,16.69,0,0,1,4.62-4.74,6.47,6.47,0,0,0,2.87-3.32c.1-.31.12-.47-.22-.61-2.36-.92-3.53-3.82-3.22-6.39a6.7,6.7,0,0,1,1.29-3.31.82.82,0,0,0,.17-.68,32.23,32.23,0,0,0-.69-4A8.16,8.16,0,0,1,80.89,87a25.41,25.41,0,0,1,2.57-6.69,15.75,15.75,0,0,1,4.42-4.65,48.85,48.85,0,0,1,8.9-4.93c2.73-1.29,5.51-2.47,8.15-3.95a19.28,19.28,0,0,0,2.59-1.63,9.4,9.4,0,0,1,5.59-1.88,33.2,33.2,0,0,1,8,.86c.87.17,1.75.33,2.62.46a11.46,11.46,0,0,1,7,3.75,22.78,22.78,0,0,0,6,4.68,17.3,17.3,0,0,1,5.42,4.25A6.46,6.46,0,0,0,144.75,79a30.23,30.23,0,0,0,8.61,2.22,13.61,13.61,0,0,1,4.73,1.53,1,1,0,0,0,.94.06A7.32,7.32,0,0,0,160.9,82,23.72,23.72,0,0,1,170,78.07c.54-.13,1.07-.3,1.59-.48.27-.09.63-.15.67-.47s-.34-.48-.59-.65c-.52-.34-1.07-.63-1.58-1-2-1.42-3.75-3.09-4.36-5.54a10.51,10.51,0,0,1,.93-7.69,7.09,7.09,0,0,1,4.85-3.35c.85-.21,1.1.1.76.92a4.25,4.25,0,0,0,0,3.73c.72,1.42.31,2.87.06,4.31-.13.74-.26,1.49-.36,2.23a3.42,3.42,0,0,0,.76,2.68c.64.8,1.3,1.58,1.94,2.37a5,5,0,0,1,.84,1.28c.46,1.17.41,2.57-1.21,3-2.41.71-4.74,1.64-7.07,2.57a17.45,17.45,0,0,0-3.44,1.73c-1.63,1.11-1.22,2.54,0,3.3a14.55,14.55,0,0,1,5.44,6.81,12,12,0,0,0,2.9,4.11,3.11,3.11,0,0,1,1,2,20,20,0,0,1,.06,3.66,3.06,3.06,0,0,0,.53,1.95,16.68,16.68,0,0,0,2.08,2.51,17.4,17.4,0,0,1,4.77,10.4c.32,2.3.16,4.62.37,6.92a8.27,8.27,0,0,0,2.29,5.25,18.05,18.05,0,0,1,3.49,5.94c.15.38,0,.46-.33.46q-4.77,0-9.53,0c-.37,0-.45-.16-.43-.48a5.9,5.9,0,0,1,.36-1.82,5.05,5.05,0,0,0-1.1-5.51,6.13,6.13,0,0,1-1.51-4.14,16.21,16.21,0,0,0-.21-3,7.08,7.08,0,0,0-4.42-5.06,13.7,13.7,0,0,0-8.37-.62,13.77,13.77,0,0,1-2.17.34,2.11,2.11,0,0,1-2-1c-.32-.51-.6-1-.93-1.54a1.55,1.55,0,0,0-2-.66,5.07,5.07,0,0,0-1.19.59A46.84,46.84,0,0,0,147.5,118a11.94,11.94,0,0,1-2.95,1.93.52.52,0,0,0-.34.72c.32,1.13.36,2.32.75,3.44a1.6,1.6,0,0,1-.35,1.5,8.17,8.17,0,0,1-1.72,1.66q-1.53,1.18-3.09,2.33a21.21,21.21,0,0,0-3.14,3,.49.49,0,0,0-.05.73,6.49,6.49,0,0,1,1.29,3.1c.05.53,0,.78-.68.77-3.58,0-7.16,0-10.73,0-.62,0-.81.14-.68.77.24,1.27.22,1.27-1.11,1.27-3.18,0-6.36,0-9.53,0-.6,0-.72-.18-.62-.73a12.88,12.88,0,0,1,1.11-3.82c.4-.75,1.1-1.27,1.55-2a4,4,0,0,0,.58-1.59c.44-3,.53-6.07,1.33-9,.15-.54.3-1.07.48-1.6.11-.33,0-.44-.31-.48-1.14-.18-2.28-.35-3.42-.56-.44-.08-.52.07-.56.46-.24,2.68-.47,5.36-.88,8a8.1,8.1,0,0,1-.85,2.85,3.92,3.92,0,0,1-2.8,2,15.54,15.54,0,0,1-5.44.1,6.23,6.23,0,0,1-4.77-3.84,15.8,15.8,0,0,1-1.08-3A6.89,6.89,0,0,0,97,122.14c-.55-.45-1.12-.88-1.71-1.28a8.29,8.29,0,0,1-2.83-3.3c-.13-.26-.19-.5-.61-.31-1.65.76-3.31,1.53-5,2.19a4.76,4.76,0,0,0-3,3.08,1.27,1.27,0,0,1-.79.81,40.24,40.24,0,0,0-10.75,6.33q-1.45,1.28-2.81,2.65a1,1,0,0,0-.32.88,7.22,7.22,0,0,1-.7,3.62.46.46,0,0,1-.49.34l-12.47,0S55.46,137.11,55.35,137Zm54.07-26.35-1.06-.36c-3.34-1.11-6.3-2.75-8.34-5.75-.38-.57-.86-1.07-1.3-1.6a46.25,46.25,0,0,0-5.2-5.61,10.29,10.29,0,0,0-6.91-2.71,5.09,5.09,0,0,0-5.3,4.45,4.67,4.67,0,0,0,3.43,5.65,79.46,79.46,0,0,1,12.58,5.4,13.42,13.42,0,0,0,8.47,1.36A17.61,17.61,0,0,0,109.41,110.69Zm30.22,2.89-.32-.06a13.6,13.6,0,0,1-7.5-3.74c-1.5-1.51-3-3-4.6-4.45a20.63,20.63,0,0,0-7.42-4.83,8.76,8.76,0,0,0-2.39-.55c-.71,0-.9.25-.61.89s.59,1.29.92,1.92a6.53,6.53,0,0,1,.76,3.47,24.1,24.1,0,0,1-.29,2.91c-.06.32,0,.53.36.62a27.39,27.39,0,0,1,7.74,3,14.8,14.8,0,0,0,9.66,2A8.88,8.88,0,0,0,139.64,113.58Zm-8.9,7.48a1,1,0,0,1-.22,0c-.6-.13-.88,0-1,.72A5.77,5.77,0,0,1,127,126a7.66,7.66,0,0,0-3.23,6.55,1.17,1.17,0,0,0,.18.76c.33.45.63.91.92,1.38.15.25.25.29.51.11a7.52,7.52,0,0,1,1.95-1,7.22,7.22,0,0,0,3-2.13,29.67,29.67,0,0,0,4.55-6,2.89,2.89,0,0,0,.13-2.79,11.54,11.54,0,0,1-.68-1.73c-.13-.42-.33-.49-.72-.42A18.06,18.06,0,0,1,130.73,121.07Z"/><path d="M119.56,155.94c1.52.06,4.32-.17,7.12,0,1.83.1,2.42.65,2.67,2.48a100.51,100.51,0,0,1,.86,12.22c0,1.35.07,2.71,0,4.06-.17,2.1-1,3-3,3.31a18.18,18.18,0,0,1-2.59.18q-6.53,0-13.06,0a20.48,20.48,0,0,1-2.59-.2,2.81,2.81,0,0,1-2.73-2.83,43.3,43.3,0,0,1-.07-6,88.08,88.08,0,0,1,.73-10.36c.32-2.29.84-2.79,3.19-2.82C112.78,155.91,115.53,155.94,119.56,155.94Zm-1.51,17.88c1.93-.06,3.87.09,5.8-.09,1.41-.13,1.77-.49,1.78-1.88a88.28,88.28,0,0,0-.51-10.71c-.11-1-.44-1.28-1.43-1.3s-1.77,0-2.66,0l-8.66,0c-.91,0-1.21.27-1.29,1.16-.13,1.44-.26,2.88-.32,4.32-.1,2.22-.25,4.44-.13,6.66.07,1.23.41,1.55,1.63,1.67C114.19,173.91,116.13,173.75,118.06,173.81Z"/><path d="M47.72,172.82c0,1.67,0,3.33,0,5,0,.29,0,.49-.42.49l-22.07,0a1,1,0,0,1-.2-.06c1.25-1.77,1-3.8,1-5.78,0-4.16,0-8.31,0-12.47a5.82,5.82,0,0,0-1-3.61H46.92l-2,4.92c-.4-.94-1.13-.95-1.89-.95q-5.9,0-11.8,0c-.51,0-.7.12-.68.66,0,1.09,0,2.18,0,3.27,0,.45.15.57.57.57H41.15a5.08,5.08,0,0,0,2.81-.9v5.79c-1.4-1-3-1-4.51-1-2.78,0-5.56,0-8.33,0-.56,0-.72.17-.72.71,0,1.44,0,2.89-.05,4.33,0,.48.15.59.61.59q6.93,0,13.87,0a2.55,2.55,0,0,0,2.77-1.67Z"/><path d="M133.46,156.09c3.53.12,6.89.11,10.24.08,2.8,0,5.6,0,8.4,0a6.64,6.64,0,0,1,.66,0c2,.19,2.55.76,2.73,2.74a35.42,35.42,0,0,1,.08,4.19,2.61,2.61,0,0,1-1.49,2.42c-.66.33-.65.67-.38,1.28,1.29,3,2.53,5.92,3.76,8.89a7,7,0,0,0,2,2.53c-.12.22-.29.15-.43.15l-5.13,0c-.29,0-.5,0-.58-.38a19.49,19.49,0,0,0-1.87-4.54,28.66,28.66,0,0,1-1.56-3.39,3.08,3.08,0,0,0-.63-1.09,1.18,1.18,0,0,0-1.25-.44,80.51,80.51,0,0,0-8.42,2.73.94.94,0,0,0-.7,1.1,8.07,8.07,0,0,1,0,1.07c0,1.62-.08,3.25,1,4.7H133.4c1.18-1.66,1.06-3.47,1.07-5.27,0-4.09,0-8.18.09-12.26A6.78,6.78,0,0,0,133.46,156.09Zm11.19,3.78v0c-1.66,0-3.33,0-5,0-.52,0-.69.1-.68.65q0,4.2,0,8.39c0,.5.12.54.55.39,1.59-.57,3.19-1.09,4.78-1.65a41.91,41.91,0,0,0,5.21-2,1.88,1.88,0,0,0,1.18-1.83c0-1,0-2-.07-3-.08-.75-.24-.9-1-.9Z"/><path d="M101.76,163c-.34-.64-.68-1.28-1-1.91a2.86,2.86,0,0,0-2.56-1.54c-1.8,0-3.6,0-5.4,0-.39,0-.48.15-.48.52,0,4.89,0,9.78,0,14.67a5.31,5.31,0,0,0,1,3.34H86.82a7.3,7.3,0,0,0,1.05-4.62q0-6.57,0-13.13c0-.56-.1-.78-.72-.76-1.67,0-3.33,0-5,0a2.9,2.9,0,0,0-2.64,1.39A20.33,20.33,0,0,0,78.41,163c-.19-.14-.11-.32-.11-.47,0-1.93,0-3.87,0-5.8,0-.54.12-.71.69-.7,4.06.07,8.13.12,12.2.13,3.35,0,6.71-.06,10.06-.13.5,0,.65.1.65.61,0,2.11,0,4.22,0,6.32Z"/><path d="M173.67,163c0-2.15,0-4.31,0-6.46,0-.48.18-.53.59-.52,4.62.05,9.24.11,13.86.12,2.86,0,5.73-.07,8.59-.12.31,0,.56,0,.56.42,0,2.17,0,4.35-.11,6.56-.22-.44-.46-.87-.66-1.32a3.53,3.53,0,0,0-3.61-2.2c-1.53,0-3.07,0-4.6,0-.44,0-.62.12-.62.6,0,4.8,0,9.6,0,14.4a5.64,5.64,0,0,0,1,3.53H182.2c1.1-1.49,1.06-3.18,1.05-4.87q0-6.46,0-12.93c0-.55-.14-.72-.7-.71q-2.5.05-5,0a2.94,2.94,0,0,0-2.68,1.43C174.44,161.61,174.13,162.35,173.67,163Z"/><path d="M71.9,170.05c0,2.58,0,5.15,0,7.73,0,.41-.18.47-.52.47H50.73c1.31-1.85,1-3.89,1-5.86,0-3.73,0-7.46,0-11.2,0-1.69.07-3.38-1.08-4.9h6.54a5.76,5.76,0,0,0-1,2.73c0,.2,0,.4,0,.6,0,4.57-.11,9.15.11,13.73,0,.52.15.74.72.74,3.64,0,7.28.07,10.93.11a2.73,2.73,0,0,0,1.94-.9A10.46,10.46,0,0,0,71.9,170.05Z"/><path d="M162.88,178.11a6.55,6.55,0,0,0,1-4c0-4.6,0-9.2,0-13.8a6.36,6.36,0,0,0-1-4.07h6.53c-1.13,1.45-1,3.11-1,4.75q0,6.87,0,13.73a5.59,5.59,0,0,0,1,3.4Z"/><path d="M92.36,187.89c0,.86,0,1.72,0,2.58,0,.24.12.56-.33.58s-.36-.3-.36-.55c0-1,0-2,0-2.93,0-.22-.14-.55.16-.64a.85.85,0,0,1,1,.25c.76.86,1.56,1.7,2.35,2.54l.38.44.17-.06c0-.87,0-1.74,0-2.62,0-.26-.11-.61.38-.59s.31.36.31.59c0,1,0,1.91,0,2.86,0,.23.17.59-.2.68a.9.9,0,0,1-1-.27c-.8-.9-1.63-1.76-2.44-2.64a2,2,0,0,1-.21-.34Z"/><path d="M66.31,190.08c0-.84,0-1.67,0-2.51,0-.25-.22-.69.34-.67s.31.45.32.7c0,.91,0,1.82,0,2.73,0,.24.16.59-.19.69a.86.86,0,0,1-1-.28c-.69-.78-1.41-1.53-2.12-2.3l-.75-.78c0,1.08,0,2,0,2.86,0,.17.08.41-.12.48s-.56.16-.56-.29q0-1.73,0-3.46c0-.15,0-.33.21-.34a1,1,0,0,1,.9.26c.81.91,1.66,1.79,2.48,2.69a2.31,2.31,0,0,1,.22.33Z"/><path d="M168.74,190.1c0-.9,0-1.8,0-2.7,0-.23-.07-.5.33-.51s.35.25.35.49c0,1,0,2,0,3,0,.22.14.54-.17.64a.83.83,0,0,1-.92-.2c-.76-.84-1.54-1.66-2.3-2.49-.16-.17-.29-.37-.43-.55l-.19.11c0,.88,0,1.75,0,2.63,0,.26.07.56-.37.54s-.3-.31-.3-.53c0-1,0-2,0-3,0-.21-.16-.54.2-.61a.82.82,0,0,1,.85.21c.85.94,1.72,1.86,2.58,2.78a2,2,0,0,1,.19.28Z"/><path d="M155.88,191c-.55-.07-1.43.3-1.86-.15s-.11-1.27-.11-1.93-.28-1.53.1-1.93,1.3-.11,2-.15c.51,0,1,0,1.53,0,.22,0,.52-.11.53.3s-.33.33-.56.33c-.82,0-1.64,0-2.46,0-.48,0-.46.25-.47.58s.09.53.48.51,1,0,1.53,0c.2,0,.41,0,.41.29s-.2.3-.41.3c-.51,0-1,0-1.53,0s-.48.29-.48.64,0,.65.51.63c.89,0,1.77,0,2.66,0,.21,0,.47-.07.48.29s-.26.3-.47.3Z"/><path d="M42.57,191.13a3.73,3.73,0,0,1-1.13-.1,2.1,2.1,0,0,1,0-4.11,3.17,3.17,0,0,1,3,.49c.14.11.43.25.29.44a.47.47,0,0,1-.7,0,2.44,2.44,0,0,0-2.27-.38,1.48,1.48,0,0,0-1.19,1.55,1.52,1.52,0,0,0,1.36,1.41,2.48,2.48,0,0,0,2-.37c.26-.2.52-.24.7,0s-.14.41-.3.53A2.48,2.48,0,0,1,42.57,191.13Z"/><path d="M196.62,191.13c-1.73,0-2.75-.86-2.72-2.22a2,2,0,0,1,1.11-1.76,3.26,3.26,0,0,1,3.51.29c.12.11.43.23.25.44a.44.44,0,0,1-.65.05,2.37,2.37,0,0,0-1.87-.5,1.81,1.81,0,0,0-1.45.83,1.41,1.41,0,0,0,.63,2,2.58,2.58,0,0,0,2.49-.1,3.7,3.7,0,0,1,.33-.22.45.45,0,0,1,.53.18c.14.17-.08.26-.19.36A2.58,2.58,0,0,1,196.62,191.13Z"/><path d="M56,191c-.54.19-.82,0-1-.41a.62.62,0,0,0-.72-.44,11.28,11.28,0,0,1-1.4,0c-.57,0-1.05,0-1.24.68A.45.45,0,0,1,51,191c-.26-.13,0-.34.08-.49q.84-1.63,1.71-3.24a.68.68,0,0,1,1.2-.1C54.7,188.42,55.35,189.68,56,191Zm-2.56-3.44c-.16.28-.28.44-.36.62-.19.44-.75.93-.53,1.27s.91.07,1.39.1h.13c.28,0,.37-.09.22-.35C54.06,188.67,53.8,188.16,53.47,187.53Z"/><path d="M120.68,190.94c.68-1.29,1.34-2.57,2-3.82a.68.68,0,0,1,1.14.11q.9,1.67,1.77,3.36c.06.13.3.32,0,.43a.49.49,0,0,1-.6-.13c-.2-.25-.18-.72-.59-.74-.82,0-1.64,0-2.47,0-.23,0-.29.26-.36.44C121.45,191,121.18,191.17,120.68,190.94Zm2.59-3.4a5.64,5.64,0,0,0-.37.62c-.18.44-.76.95-.5,1.26s1,.08,1.46.1c.34,0,.38-.14.23-.41Z"/><path d="M107.8,191c-.45.19-.77.12-.9-.3s-.49-.56-.93-.53a9,9,0,0,1-1.33,0c-.54,0-.94.06-1.14.63-.13.4-.46.33-.85.21.69-1.31,1.36-2.6,2.06-3.87a.69.69,0,0,1,1.06.05C106.46,188.4,107.12,189.67,107.8,191Zm-2.55-3.4a6.44,6.44,0,0,0-.36.59c-.19.44-.76,1-.55,1.26s1,.08,1.5.12c.33,0,.38-.12.23-.4C105.82,188.65,105.57,188.16,105.25,187.55Z"/><path d="M207.56,186.9c.32-.07.48.1.61.37.57,1.1,1.16,2.19,1.73,3.29.07.13.3.31.06.44s-.52.13-.59-.1c-.32-1-1.14-.76-1.85-.78-.27,0-.53,0-.8,0a.68.68,0,0,0-.82.49.9.9,0,0,1-.2.34.49.49,0,0,1-.56.07c-.26-.12,0-.31,0-.43.58-1.12,1.18-2.23,1.76-3.35A.53.53,0,0,1,207.56,186.9Zm0,.62c-.35.65-.64,1.18-.92,1.72-.1.2,0,.28.21.28h1.39c.25,0,.33-.1.21-.32Z"/><path d="M136.75,188.6q0,.37,0,.73c0,1.06-.31,1.5-1.34,1.73a4.38,4.38,0,0,1-2,0,1.51,1.51,0,0,1-1.37-1.74c0-.66,0-1.33,0-2,0-.24,0-.44.34-.44s.35.19.35.43c0,.69,0,1.37,0,2.06a1,1,0,0,0,.88,1.08,3.25,3.25,0,0,0,1.12.08c1.09-.13,1.34-.4,1.34-1.48,0-.6,0-1.2,0-1.8,0-.23.05-.38.33-.38s.33.15.33.38c0,.44,0,.89,0,1.33Z"/><path d="M77.89,187.16c0,.23,0,.38-.27.37h-.33c-1.37,0-1.37,0-1.37,1.41,0,.55,0,1.11,0,1.66,0,.23,0,.44-.34.44s-.34-.19-.34-.43c0-.84,0-1.68,0-2.53,0-.44-.13-.6-.57-.56s-.71,0-1.06,0-.38-.05-.37-.33.11-.31.32-.31h4C77.76,186.89,77.93,186.93,77.89,187.16Z"/><path d="M145.36,186.89h1.86c.25,0,.43,0,.42.35s-.21.28-.41.29c-.5,0-1.16-.23-1.47.12s-.09,1.06-.11,1.61,0,.84,0,1.26c0,.23.08.51-.32.52s-.35-.3-.35-.55c0-.8,0-1.6,0-2.4,0-.42-.1-.61-.55-.57s-.75,0-1.13,0c-.23,0-.31-.1-.31-.32s.08-.32.31-.32h2.06Z"/><path d="M178,186.89h1.93c.22,0,.39,0,.39.31s-.13.35-.37.33h-.27c-1.37,0-1.37,0-1.37,1.41,0,.58,0,1.15,0,1.73,0,.24-.08.37-.34.37s-.34-.14-.34-.37c0-.64,0-1.29,0-1.93,0-1.21,0-1.21-1.17-1.21H176c-.19,0-.34,0-.35-.28s.08-.36.34-.36Z"/><path d="M186.58,189q0-.8,0-1.6c0-.25,0-.49.36-.49s.32.22.32.45q0,1.63,0,3.26c0,.22,0,.44-.32.46s-.36-.23-.36-.48C186.58,190,186.58,189.5,186.58,189Z"/><path d="M84.83,189c0,.58,0,1.15,0,1.73,0,.25-.08.36-.34.36s-.34-.14-.34-.37c0-1.13,0-2.26,0-3.39,0-.21,0-.39.31-.39s.38.14.37.4C84.83,187.85,84.83,188.4,84.83,189Z"/><path d="M156.56,185.72a1.59,1.59,0,0,1-.17.26c-.21.2-.25.6-.64.57-.13,0-.08-.17,0-.27C155.87,185.93,155.93,185.45,156.56,185.72Z"/></svg>