<svg xmlns="http://www.w3.org/2000/svg" viewBox="0 0 250 250"><title>Grocery</title><path d="M122.05,134.91V138a15.07,15.07,0,0,1-.18,2.14s0,.8-1.07.62c0,0-.76.31-1.2-.85v-6.28a.84.84,0,0,1,1.16-.58S122.05,132.68,122.05,134.91Z" style="fill:#ef3e42"/><path d="M182,57.75l-4.68-1-.58.31c-17.74,9.67-27.9,3.79-27.9,3.79A63.34,63.34,0,0,1,128.74,51L124,50.85C107.66,65.2,96,63.33,96,63.33c-15.2.31-21.08-5.75-21.08-5.75l-4.77-.18.22,92.08a45.47,45.47,0,0,0,4.77,13.46c6.51,13.06,18.23,19.21,23.8,21.48a25.74,25.74,0,0,0,3.12,1.11c.8.22,1.74.67,2.72,1,4.41,1.6,9.58,3.88,9.58,3.88,9.18,4.86,8.07,7,8.07,7,1,1,4.55.94,4.55.94,3.57-6.51,11.9-9.81,17.2-11.28,2.76-.8,4.28-1.07,4.28-1.07,1.11-.31,2.63-.67,3.7-1.07,11.54-4.37,20.95-14.35,20.95-14.35,8.6-7.8,9.18-24,9.18-24v-23.4Zm-57.36,82.77a2.75,2.75,0,0,1-2.45,2.18h-2.76c-2.72-.13-2.76-3.25-2.76-3.25v-5.53a3,3,0,0,1,2.59-2.76l2.54,0a3.34,3.34,0,0,1,3,3.79h0l.09,3.12h0C124.86,139.1,124.64,140.52,124.64,140.52Z" style="fill:#ef3e42"/><path d="M75.21,60S88.49,68,104.49,64c0,0,10.34-.71,23.13-11.37a1.42,1.42,0,0,1,.71,0c3.83,3,20.24,12.08,31.38,11.77a38.69,38.69,0,0,0,20.68-5.48l0,13.46,0,20.9-26.56,0H74.72V59.94Z" style="fill:#fff200;stroke:#fff200;stroke-width:0.037319999188185px"/><path d="M75.12,95.15l60.13,0,45.19,0,0,30.62v22.29s0,11.45-7.4,19.52a53.88,53.88,0,0,1-26.34,16.71s-13.28,3.61-16,7c0,0-3.43,3.39-3.61,3.79l-.53,0s-4-5.39-12.57-8.11c0,0-3-.89-6.69-2.09-5.79-2-13.86-4.86-17.83-8.51,0,0-11.72-8.91-14.22-26.88" style="fill:#fff200;stroke:#fff200;stroke-width:0.037319999188185px"/><path d="M76.86,64.31l1.25,0s11.14,6.37,30.26,1.29c0,0,11.72-3.3,15.2-6.64l4.68,6.82,4.86-7.22s9.18,6.06,19.88,7.22c0,0,11.77,3.92,26-3.3l-.18,28.48-102-.22Z" style="fill:#ef3e42"/><path d="M138.23,192.14a4.59,4.59,0,1,0,4.59,4.59A4.58,4.58,0,0,0,138.23,192.14Z" style="fill:none;stroke:#fff;stroke-width:0.600000023841858px"/><path d="M155.35,73h-1.43a.4.4,0,0,1-.4-.4V71a.4.4,0,0,1,.4-.4h6.42a.4.4,0,0,1,.4.4v1.56a.4.4,0,0,1-.4.4h-1.11a.27.27,0,0,0-.27.36l3.88,12.57a.48.48,0,0,0,.49.36h.49a.4.4,0,0,1,.4.4v1.43a.4.4,0,0,1-.4.4h-4.28a.4.4,0,0,1-.4-.4V86.73a.4.4,0,0,1,.4-.4h.31a.23.23,0,0,0,.22-.36l-.53-1.29a.66.66,0,0,0-.53-.36h-4.15a.66.66,0,0,0-.53.36l-.49,1.2a.24.24,0,0,0,.22.36h.49a.4.4,0,0,1,.4.4v1.43a.4.4,0,0,1-.4.4h-4.46a.4.4,0,0,1-.4-.4V86.73a.4.4,0,0,1,.4-.4h.31a.66.66,0,0,0,.53-.36l4.77-12.66c0-.22-.18-.36-.36-.36Zm1.52,5c-.09-.22-.22-.22-.31,0l-1.6,3.39a.27.27,0,0,0,.27.4h2.72a.27.27,0,0,0,.27-.4L156.86,78Z" style="fill:#fff200;stroke:#fff200;stroke-width:0.037319999188185px"/><path d="M79.13,71a.4.4,0,0,1,.4-.4H89.2a.4.4,0,0,1,.4.4v4.23a.4.4,0,0,1-.4.4H87.78a.4.4,0,0,1-.4-.4v-2a.4.4,0,0,0-.4-.4H84a.4.4,0,0,0-.4.4v4.81a.4.4,0,0,0,.4.4h1.2a.4.4,0,0,0,.4-.4v-.85a.4.4,0,0,1,.4-.4h1.07a.4.4,0,0,1,.4.4v5.17a.4.4,0,0,1-.4.4H86a.4.4,0,0,1-.4-.4v-1a.4.4,0,0,0-.4-.4h-1a.4.4,0,0,0-.4.4V86a.4.4,0,0,0,.4.4h1a.4.4,0,0,1,.4.4v1.34a.4.4,0,0,1-.4.4H79.71a.4.4,0,0,1-.4-.4V86.77a.4.4,0,0,1,.4-.4h.85A.4.4,0,0,0,81,86V73.31a.4.4,0,0,0-.4-.4H79.49a.34.34,0,0,1-.36-.4V71Z" style="fill:#fff200;stroke:#fff200;stroke-width:0.037319999188185px"/><path d="M130.61,84v4.19a.36.36,0,0,1-.4.36h-1.38a.16.16,0,0,1-.13,0h-9.32a.4.4,0,0,1-.4-.4V86.68a.4.4,0,0,1,.4-.4h.85a.4.4,0,0,0,.4-.4V73.22a.36.36,0,0,0-.4-.36h-1.11a.34.34,0,0,1-.36-.4l0-1.52a.4.4,0,0,1,.4-.4h9.67a.4.4,0,0,1,.4.4v4.23a.36.36,0,0,1-.4.36h-1.43a.39.39,0,0,1-.4-.36v-2a.36.36,0,0,0-.4-.36H123.7a.39.39,0,0,0-.4.36v4.86a.4.4,0,0,0,.4.4h1.2a.4.4,0,0,0,.4-.4v-.85a.4.4,0,0,1,.4-.4h1.07a.36.36,0,0,1,.36.4V82.4a.39.39,0,0,1-.36.4h-1.07a.4.4,0,0,1-.4-.4v-.94a.4.4,0,0,0-.4-.4h-1a.4.4,0,0,0-.4.4V86a.4.4,0,0,0,.4.4h4.59V84a.4.4,0,0,1,.4-.4h1.38A.39.39,0,0,1,130.61,84Z" style="fill:#fff200;stroke:#fff200;stroke-width:0.037319999188185px"/><path d="M94.42,73H93a.4.4,0,0,1-.4-.4V71a.4.4,0,0,1,.4-.4h6.42a.4.4,0,0,1,.4.4v1.56a.4.4,0,0,1-.4.4H98.34a.27.27,0,0,0-.27.36L102,85.88a.48.48,0,0,0,.49.36h.49a.4.4,0,0,1,.4.4v1.43a.4.4,0,0,1-.4.4H98.65a.4.4,0,0,1-.4-.4V86.73a.4.4,0,0,1,.4-.4H99a.23.23,0,0,0,.22-.36l-.53-1.29a.66.66,0,0,0-.53-.36H94a.66.66,0,0,0-.53.36l-.49,1.2a.24.24,0,0,0,.22.36h.45a.4.4,0,0,1,.4.4v1.43a.4.4,0,0,1-.4.4H89.16a.4.4,0,0,1-.4-.4V86.73a.4.4,0,0,1,.4-.4h.31A.66.66,0,0,0,90,86l4.77-12.66c0-.22-.18-.36-.36-.36Zm1.78,5c-.09-.22-.22-.22-.31,0l-1.6,3.39a.27.27,0,0,0,.27.4h2.72a.27.27,0,0,0,.27-.4L96.2,78Z" style="fill:#fff200;stroke:#fff200;stroke-width:0.037319999188185px"/><path d="M104.71,86.32h.36a.4.4,0,0,0,.4-.4V73.31a.4.4,0,0,0-.4-.4H104a.4.4,0,0,1-.4-.4V71.17a.4.4,0,0,1,.4-.4h8.83c2.63,0,3.52,4.59,3.52,4.59a6.47,6.47,0,0,1-2.14,5c2,2.05,1.83,5.93,2.05,5.93h1.29a.4.4,0,0,1,.4.4V88a.4.4,0,0,1-.4.4h-4.9a.4.4,0,0,1-.4-.4V86.68a.4.4,0,0,1,.4-.4h.76c0-3.61-1.43-4.32-1.43-4.32a1.87,1.87,0,0,0-.71-.18h-2.5a.4.4,0,0,0-.4.4v3.74a.4.4,0,0,0,.4.4h1a.4.4,0,0,1,.4.4v1.34a.4.4,0,0,1-.4.4h-4.95a.4.4,0,0,1-.4-.4V86.73a.34.34,0,0,1,.36-.4Zm8.65-10.52c-.45-2.36-1.6-2.59-1.87-2.59h-2.85a.35.35,0,0,0-.36.36v5.08a.4.4,0,0,0,.4.4h2.72a.33.33,0,0,0,.22,0c1.2-.27,1.65-2,1.74-2.76A1.2,1.2,0,0,0,113.36,75.81Z" style="fill:#fff200;stroke:#fff200;stroke-width:0.037319999188185px"/><path d="M111.62,79s-.09,0-.18,0h-.09A.57.57,0,0,0,111.62,79Z" style="fill:#ef3e42"/><path d="M141.17,77.77l-3.79,10.3a.66.66,0,0,1-.53.36h-1.07a.48.48,0,0,1-.45-.36l-3.25-14.75a.47.47,0,0,0-.45-.36h-.71a.34.34,0,0,1-.36-.4V71a.4.4,0,0,1,.4-.4h4.9a.4.4,0,0,1,.4.4v1.56a.4.4,0,0,1-.4.4h-.4a.29.29,0,0,0-.31.36l1.6,7.27c0,.22.13.22.22,0l3.57-9.63a.66.66,0,0,1,.53-.36h.49a.54.54,0,0,1,.49.36l3.52,10.3c.09.18.18.18.22,0l1.65-8c0-.22-.09-.36-.31-.36h-.4a.4.4,0,0,1-.4-.4V70.95a.4.4,0,0,1,.4-.4h4.95a.4.4,0,0,1,.4.4v1.56a.4.4,0,0,1-.4.4h-.85a.48.48,0,0,0-.45.36L147.32,88a.47.47,0,0,1-.45.36l-1.65,0a.54.54,0,0,1-.49-.36" style="fill:#fff200;stroke:#fff200;stroke-width:0.037319999188185px"/><path d="M176.7,71v1.56a.4.4,0,0,1-.4.4h-.8a.7.7,0,0,0-.58.31l-4,6.69s0,.09,0,.18v5.79a.4.4,0,0,0,.4.4H172a.4.4,0,0,1,.4.4v1.34a.4.4,0,0,1-.4.4h-4.59a.4.4,0,0,1-.4-.4V86.64a.4.4,0,0,1,.4-.4h.4a.39.39,0,0,0,.4-.36V80.26l-4.37-7a.7.7,0,0,0-.58-.31h-.67a.36.36,0,0,1-.36-.4V71a.39.39,0,0,1,.36-.4H167a.4.4,0,0,1,.4.4v1.56a.39.39,0,0,1-.36.4c-.18,0-.27.13-.18.31l2.45,4.15a.19.19,0,0,0,.36,0l2.36-4.23c.09-.18,0-.36-.18-.36h-.13a.4.4,0,0,1-.4-.4V70.95a.4.4,0,0,1,.4-.4h4.59A.53.53,0,0,1,176.7,71Z" style="fill:#fff200;stroke:#fff200;stroke-width:0.037319999188185px"/><polygon points="81.54 108.92 87.82 108.92 87.82 110.75 84.52 110.75 84.52 113.42 87.51 113.42 87.51 115.47 84.57 115.47 84.57 118.37 88.09 118.37 88.09 120.2 81.72 120.2 81.54 108.92" style="fill:#ef3e42"/><polygon points="138.9 152.25 145.18 152.25 145.18 154.07 141.84 154.07 141.84 156.75 144.87 156.75 144.87 158.8 141.89 158.8 141.89 161.65 145.45 161.65 145.45 163.52 139.08 163.52 138.9 152.25" style="fill:#ef3e42"/><path d="M94.82,115.61a15.07,15.07,0,0,1-.18,2.14.73.73,0,0,1-.76.62h-.45c-.22,0-.76,0-1.07-.85v-6.28a1,1,0,0,1,.85-.62,1.47,1.47,0,0,1,.62,0c.4,0,1.07.27,1.07,2h2.67a3.4,3.4,0,0,0-3-3.92l-2.54,0a3,3,0,0,0-2.59,2.76V117s0,3.12,2.76,3.25H95a2.75,2.75,0,0,0,2.45-2.18,24.46,24.46,0,0,0,.18-2.45Z" style="fill:#ef3e42"/><path d="M155.12,112.84a3.4,3.4,0,0,0-3-3.92l-2.54,0a3,3,0,0,0-2.59,2.76v5.57s0,3.12,2.76,3.25h2.76a2.75,2.75,0,0,0,2.45-2.18,20.84,20.84,0,0,0,.22-2.5l-2.81,0a15.07,15.07,0,0,1-.18,2.14s0,.8-1.07.62c0,0-.76.31-1.2-.85v-6.28a.84.84,0,0,1,1.16-.58s1.38-.45,1.34,2Z" style="fill:#ef3e42"/><path d="M127.22,154.61a3,3,0,0,0-2.94-2.76l-2.54,0a3,3,0,0,0-2.59,2.76v5.53s0,3.12,2.76,3.25h2.76a2.75,2.75,0,0,0,2.45-2.18,3.59,3.59,0,0,0,.09-1.07C127.22,159.46,127.27,155.5,127.22,154.61Zm-2.81,6.24a.77.77,0,0,1-.71.67.57.57,0,0,1-.27,0h-.27c-.27,0-.71-.09-1-.85v-6.28a.9.9,0,0,1,.76-.62h.67c.22,0,.85,0,.94.62,0,.36,0,5.17,0,6.28C124.41,160.71,124.41,160.8,124.41,160.85Z" style="fill:#ef3e42"/><path d="M124.55,133.88a3,3,0,0,0-2.94-2.76l-2.54,0a3,3,0,0,0-2.59,2.76v5.53s0,3.12,2.76,3.25H122a2.75,2.75,0,0,0,2.45-2.18,3.59,3.59,0,0,0,.09-1.07C124.55,138.74,124.55,134.77,124.55,133.88Zm-2.85,6.24a.77.77,0,0,1-.71.67.57.57,0,0,1-.27,0h-.27c-.27,0-.71-.09-1-.85V133.7a.9.9,0,0,1,.76-.62h.67c.22,0,.85,0,.94.62,0,.36,0,5.17,0,6.28C121.69,140,121.69,140.08,121.69,140.12Z" style="fill:#ef3e42"/><path d="M107.3,111.51a3,3,0,0,0-2.94-2.76l-2.54,0a3,3,0,0,0-2.59,2.76v5.53s0,3.12,2.76,3.25h2.76a2.75,2.75,0,0,0,2.45-2.18,3.59,3.59,0,0,0,.09-1.07C107.3,116.37,107.34,112.44,107.3,111.51Zm-2.85,6.24a.77.77,0,0,1-.71.67.57.57,0,0,1-.27,0h-.27c-.27,0-.71-.09-1-.85v-6.28a.9.9,0,0,1,.76-.62h.67c.22,0,.85,0,.94.62,0,.36,0,5.17,0,6.28C104.49,117.66,104.49,117.7,104.45,117.75Z" style="fill:#ef3e42"/><path d="M126.82,111.55a3,3,0,0,0-2.94-2.76l-2.54,0a3,3,0,0,0-2.59,2.76v5.53s0,3.12,2.76,3.25h2.76a2.75,2.75,0,0,0,2.45-2.18,3.59,3.59,0,0,0,.09-1.07C126.82,116.45,126.82,112.49,126.82,111.55ZM124,117.79a.77.77,0,0,1-.71.67.57.57,0,0,1-.27,0h-.27c-.27,0-.71-.09-1-.85v-6.28a.9.9,0,0,1,.76-.62h.67c.22,0,.85,0,.94.62,0,.36,0,5.17,0,6.28A.16.16,0,0,0,124,117.79Z" style="fill:#ef3e42"/><path d="M134.58,133.84a3,3,0,0,0-2.94-2.76l-2.54,0a3,3,0,0,0-2.59,2.76v5.53s0,3.12,2.76,3.25H132a2.75,2.75,0,0,0,2.45-2.18,3.59,3.59,0,0,0,.09-1.07C134.58,138.74,134.62,134.77,134.58,133.84Zm-2.85,6.24a.77.77,0,0,1-.71.67.57.57,0,0,1-.27,0h-.27c-.27,0-.71-.09-1-.85v-6.28a.9.9,0,0,1,.76-.62h.67c.22,0,.85,0,.94.62,0,.36,0,5.17,0,6.28A.64.64,0,0,0,131.72,140.08Z" style="fill:#ef3e42"/><polygon points="108.99 120.24 108.99 108.88 111.8 108.88 114.25 114.94 114.25 108.83 116.75 108.83 116.75 120.2 113.94 120.2 111.53 114.4 111.53 120.24 108.99 120.24" style="fill:#ef3e42"/><polygon points="128.74 120.33 128.74 109.06 132.79 109.06 134.22 114.58 135.82 109.06 139.57 109.06 139.57 120.33 137.21 120.33 137.21 112.89 136.89 112.89 134.93 120.33 133.37 120.33 131.59 112.84 131.28 112.84 131.28 120.33 128.74 120.33" style="fill:#ef3e42"/><polygon points="142.06 109.06 144.83 109.06 144.83 120.38 142.15 120.38 142.06 109.06" style="fill:#ef3e42"/><polygon points="156.33 120.51 158.87 109.14 162.7 109.14 165.28 120.38 162.43 120.38 162.03 118.5 159.58 118.5 159 120.51 156.33 120.51" style="fill:#ef3e42"/><polygon points="159.71 116.54 160.74 112.27 161.01 112.27 161.72 116.54 159.71 116.54" style="fill:#fff200"/><polygon points="166.98 109.14 169.7 109.14 169.7 118.42 173.22 118.42 173.22 120.47 166.93 120.47 166.98 109.14" style="fill:#ef3e42"/><polygon points="109.08 131.25 115.28 131.25 115.28 132.9 111.89 132.9 111.89 135.75 114.97 135.75 114.97 137.76 112.02 137.76 112.02 142.71 109.17 142.71 109.08 131.25" style="fill:#ef3e42"/><path d="M136.36,131.3h5.53a2.91,2.91,0,0,1,2.18,2.59c.18,2.14.49,4.5,0,6,0,0,0,2.41-2,2.94h-5.66Z" style="fill:#ef3e42"/><path d="M139.12,133.12v7.76h1.43s.71.13.85-1a30.59,30.59,0,0,0,0-5.75s0-.85-1-1Z" style="fill:#fff200"/><path d="M107.57,158.84s-.53-1.2-3.34-2.63c0,0-2.54-1-1.11-2.23,0,0,1.34-.62,1.65.49l.13,1.07,2.59,0s.36-2.94-2.18-3.57a10.07,10.07,0,0,0-3.83.22,3.31,3.31,0,0,0-.89,4.81,11.3,11.3,0,0,0,3.3,2.18s1.43.53,1.16,1.65a1.08,1.08,0,0,1-1.34.89,1.5,1.5,0,0,1-.76-.22c-.27-.13-.58-.49-.62-1.69l-2.67-.13a7.21,7.21,0,0,0,.49,2.41,3.12,3.12,0,0,0,2.23,1.56,12.15,12.15,0,0,0,3.21-.13C106.36,163.25,108.86,162.23,107.57,158.84Z" style="fill:#ef3e42"/><path d="M154.86,158.93s-.53-1.2-3.39-2.63c0,0-2.54-1-1.11-2.23,0,0,1.34-.62,1.65.49l.13,1.07,2.59,0s.36-2.94-2.18-3.57a10.07,10.07,0,0,0-3.83.22,3.31,3.31,0,0,0-.89,4.81,11.3,11.3,0,0,0,3.3,2.18s1.43.53,1.16,1.65a1.12,1.12,0,0,1-1.38.89h-.09a1.3,1.3,0,0,1-.4-.09l-.22-.09s0,0-.09,0h0c-.27-.13-.53-.53-.58-1.65l-2.67-.13a7.21,7.21,0,0,0,.49,2.41,3.12,3.12,0,0,0,2.23,1.56,12.15,12.15,0,0,0,3.21-.13C153.65,163.39,156.1,162.36,154.86,158.93Z" style="fill:#ef3e42"/><polyline points="109.3 151.98 109.3 153.8 112.07 153.8 112.07 163.48 114.88 163.48 114.88 153.76 117.73 153.76 117.73 151.98" style="fill:#ef3e42"/><path d="M129.32,152h5.26s2.23.18,2.36,2.18,0,2.18-.36,2.59l-.62.89s1,.67,1,1.52l0,2.72a2.92,2.92,0,0,0,.31,1c.22.49.18.58.18.58h-2.81a2.84,2.84,0,0,1-.36-1.16v-2.54s0-.94-.85-.94H131.9v4.68h-2.63Z" style="fill:#ef3e42"/><path d="M131.95,153.94h1.52s.8.13.8.8V156s-.18.8-.8.8h-1.25s-.36-.22-.36-.45Z" style="fill:#fff200"/><path d="M138.23,200.6a3.88,3.88,0,1,1,3.88-3.88A3.88,3.88,0,0,1,138.23,200.6Z" style="fill:#fff;stroke:#ef3e42;stroke-width:0.600000023841858px"/><path d="M137.07,195h1.52c.31,0,.8,0,.8.76s-.49.8-.89.8h-1.43V195Zm0,2.05h1.47c.71,0,.8.45.8.8a5.09,5.09,0,0,0,.09,1.11h.76v-.09c-.18-.09-.22-.22-.22-.45l0-.8a.76.76,0,0,0-.53-.85,1.13,1.13,0,0,0,.62-1.07c0-.94-.71-1.2-1.47-1.2h-2.09V199h.62v-2Z" style="fill:#ed1c24;stroke:#ef3e42;stroke-width:0.600000023841858px"/><polygon points="111.44 178.5 112.38 178.36 113.54 179.79 120.8 179.92 123.43 183.44 122.23 183.44 120.18 180.86 113.14 180.99 111.44 178.5" style="fill:#ef3e42"/><polygon points="140.33 178.59 139.43 178.45 138.23 179.88 130.97 180.01 128.38 183.53 129.54 183.53 131.59 180.9 138.63 181.04 140.33 178.59" style="fill:#ef3e42"/><polygon points="122.63 179.66 126.02 185.54 129.14 179.66 122.63 179.66" style="fill:#ef3e42"/><polygon points="125.13 180.99 126.82 180.99 126.02 183.18 125.13 180.99" style="fill:#fff200"/></svg>