<?xml version="1.0" encoding="utf-8"?>
<!-- Generator: Adobe Illustrator 21.1.0, SVG Export Plug-In . SVG Version: 6.00 Build 0)  -->
<svg version="1.1" id="Layer_1" xmlns="http://www.w3.org/2000/svg" xmlns:xlink="http://www.w3.org/1999/xlink" x="0px" y="0px"
	 viewBox="0 0 32.6 26" style="enable-background:new 0 0 32.6 26;" xml:space="preserve">
<style type="text/css">
	.st0{fill:#F9E8A0;}
	.st1{fill:none;}
	.st2{fill:#414042;}
	.st3{fill:#FF0000;}
	.st4{fill:#CE593F;}
	.st5{fill:#EF8829;}
	.st6{clip-path:url(#SVGID_2_);}
	.st7{fill:#3F2D20;}
	.st8{fill:#F8E79F;}
	.st9{clip-path:url(#SVGID_4_);}
	.st10{clip-path:url(#SVGID_6_);}
	.st11{fill:#F7B239;}
	.st12{fill:#E09B2D;}
	.st13{fill:#9AD14B;}
	.st14{fill:#F95428;}
	.st15{fill:#E54728;}
	.st16{fill:#B27214;}
	.st17{fill:#F4DE3B;}
	.st18{fill:#90BC42;}
	.st19{fill:#FFFFFF;}
	.st20{clip-path:url(#SVGID_8_);fill:#FFFFFF;}
	.st21{clip-path:url(#SVGID_8_);fill:#333333;}
	.st22{fill:#CC722E;}
	.st23{fill:#B25719;}
	.st24{fill:#FFA91F;}
	.st25{fill:#8C5549;}
	.st26{opacity:0.15;}
	.st27{fill:#202020;}
	.st28{fill:#A4A4A5;}
	.st29{fill:#DCE0E2;}
	.st30{fill:#354251;}
	.st31{fill:#9DB6CA;}
	.st32{fill:#9ACFDF;}
	.st33{clip-path:url(#SVGID_10_);}
	.st34{clip-path:url(#SVGID_12_);}
	.st35{clip-path:url(#SVGID_14_);}
	.st36{fill:#FF7424;}
	.st37{fill:#FF4C1C;}
	.st38{fill:#DDA558;}
	.st39{fill:#D4F8F5;}
	.st40{opacity:0.1;fill:#54858D;enable-background:new    ;}
	.st41{fill:#FFD755;}
	.st42{fill:#FFF6C4;}
	.st43{fill:#6DA8D6;}
	.st44{fill:#FFDA44;}
	.st45{fill:#3FC378;}
	.st46{fill:#C9EEAE;}
	.st47{fill:#E21220;}
	.st48{fill:#FF505D;}
	.st49{fill:#FF7C80;}
	.st50{fill:#93298D;}
	.st51{fill:#FFF5CC;}
	.st52{fill:#0DD9DD;}
	.st53{fill:#02A6AA;}
	.st54{fill:#FDD44B;}
	.st55{fill:#84BD93;}
	.st56{clip-path:url(#SVGID_16_);fill:#EF8829;}
	.st57{clip-path:url(#SVGID_16_);fill:#3F2D20;}
	.st58{fill:none;stroke:#414042;stroke-width:0.75;stroke-miterlimit:10;}
	.st59{fill:#F6F6F6;}
	.st60{fill:#FF1D25;}
	.st61{fill:#FBB03B;}
	.st62{fill:#C7B299;}
	.st63{fill:#D2C1AD;}
	.st64{fill:#998675;}
	.st65{fill:#FF4A51;}
	.st66{fill:#B20209;}
	.st67{fill:#F0C891;}
	.st68{fill:none;stroke:#464646;stroke-width:16;stroke-linecap:round;stroke-linejoin:round;stroke-miterlimit:10;}
	.st69{clip-path:url(#SVGID_18_);}
	.st70{clip-path:url(#SVGID_20_);}
	.st71{clip-path:url(#SVGID_22_);}
	.st72{clip-path:url(#SVGID_24_);}
	.st73{clip-path:url(#SVGID_26_);}
	.st74{clip-path:url(#SVGID_28_);}
</style>
<g shape-rendering="auto" image-rendering="auto" color-rendering="auto" transform="translate(0 -1020.36)" color-interpolation="sRGB">
	<g>
		<path class="st2" d="M15.4,1024.8L15.4,1024.8c-0.3,0-0.7,0.1-0.9,0.4l-8.5,8.5c-0.5,0.5-0.5,1.4,0.1,1.9l-5.3,5.3
			c-0.7,0.7-0.4,2,0.6,2.2l11.5,3c1,0.2,1.8-0.7,1.6-1.6l-0.1-0.5l9.3,2.4c0.5,0.1,1,0,1.3-0.4c0.3-0.4,0.4-0.9,0.3-1.2c0,0,0,0,0,0
			l-3-11.5c-0.1-0.5-0.5-0.8-0.9-0.9c-0.4-0.1-0.9,0-1.3,0.3l-1.2,1.2l-2.1-8.1c-0.1-0.5-0.5-0.8-0.9-0.9
			C15.7,1024.8,15.5,1024.8,15.4,1024.8L15.4,1024.8z M12.6,1037.4l2.1,0.5l-1.5,1.5L12.6,1037.4L12.6,1037.4z"/>
		<path class="st0" d="M15.5,1025.6c0.2,0,0.3,0.2,0.4,0.4l2.3,8.8c0,0,0,0.1,0,0.1l0.7,2.6c0,0.1,0,0.3-0.1,0.5c0,0,0,0,0,0
			c-0.1,0.1-0.3,0.2-0.5,0.1l-2.6-0.7c0,0-0.1,0-0.1,0l-3.2-0.8l-0.9-3.6c-0.1-0.5-0.5-0.8-0.9-0.9c-0.4-0.1-0.9,0-1.3,0.3l-2.7,2.7
			c-0.2-0.2-0.3-0.5-0.1-0.7l8.6-8.5c0.1-0.1,0.2-0.1,0.2-0.1C15.4,1025.6,15.4,1025.6,15.5,1025.6L15.5,1025.6z"/>
		<g>
			<path class="st0" d="M10.1,1032.8c0.1,0,0.2,0,0.2,0c0.2,0,0.3,0.2,0.3,0.4c1,3.8,2,7.7,3,11.5c0.1,0.4-0.2,0.7-0.6,0.6l-11.5-3
				c-0.4-0.1-0.5-0.5-0.2-0.8l8.5-8.5C9.9,1032.8,10,1032.8,10.1,1032.8L10.1,1032.8z"/>
			<path class="st0" d="M21,1033.1c0.2,0,0.3,0.2,0.4,0.4l1.4,5.5c-0.2,0-0.4,0-0.5,0.1c-0.5,0.2-0.9,0.7-0.8,1.3
				c0.1,0.6,0.5,1,1,1.1c0.3,0.1,0.6,0,0.9-0.2l1,3.7c0,0.2,0.1,0.3-0.1,0.5c0,0,0,0,0,0c-0.1,0.1-0.3,0.2-0.5,0.1l-4.9-1.3
				c0.1-0.4,0.1-0.8-0.2-1.2c-0.2-0.2-0.4-0.4-0.6-0.4l0,0c-0.2-0.1-0.5-0.1-0.8,0c-0.4,0.2-0.7,0.5-0.8,1l-2.5-0.6l-0.7-2.6
				l2.2-2.2l2.4,0.6c0.5,0.1,1,0,1.3-0.4c0.4-0.4,0.4-0.9,0.3-1.2c0,0,0,0,0,0l-0.6-2.4l1.6-1.6c0.1-0.1,0.2-0.1,0.2-0.1
				C20.9,1033.1,21,1033.1,21,1033.1L21,1033.1z"/>
		</g>
		<g>
			<path class="st3" d="M17.8,1043.5c0.1,0,0.3,0.1,0.3,0.2c0.1,0.1,0.1,0.3,0,0.4l-0.8-0.2c0-0.2,0.1-0.3,0.3-0.4
				C17.7,1043.5,17.7,1043.5,17.8,1043.5L17.8,1043.5z"/>
		</g>
		<g>
			<path class="st2" d="M9.9,1037.7c0,0-0.1,0-0.1,0l-4.1,1.2c-0.2,0.1-0.3,0.3-0.3,0.5c0.1,0.2,0.3,0.3,0.5,0.3c0,0,0,0,0,0
				l4.1-1.2c0.2-0.1,0.3-0.3,0.3-0.5C10.2,1037.8,10.1,1037.6,9.9,1037.7L9.9,1037.7z"/>
			<path class="st2" d="M10.3,1039.7c0,0-0.1,0-0.1,0L6,1041c-0.2,0.1-0.3,0.3-0.3,0.5c0.1,0.2,0.3,0.3,0.5,0.3l4.1-1.2
				c0.2-0.1,0.3-0.3,0.3-0.5C10.6,1039.8,10.5,1039.7,10.3,1039.7L10.3,1039.7z"/>
		</g>
	</g>
	<path class="st2" d="M13.6,1030.1c-0.7,0-1.3,0.6-1.3,1.3c0,0.7,0.6,1.3,1.3,1.3c0.7,0,1.3-0.6,1.3-1.3
		C15,1030.7,14.4,1030.1,13.6,1030.1z"/>
	<path class="st3" d="M13.6,1030.7c0.4,0,0.7,0.3,0.7,0.7c0,0.4-0.3,0.7-0.7,0.7c-0.4,0-0.7-0.3-0.7-0.7
		C13,1031,13.3,1030.7,13.6,1030.7z"/>
	<g>
		<path class="st2" d="M16,1033.4c-0.7,0-1.3,0.6-1.3,1.3c0,0.7,0.6,1.3,1.3,1.3c0.7,0,1.3-0.6,1.3-1.3
			C17.4,1034,16.8,1033.4,16,1033.4z"/>
		<path class="st3" d="M16,1034c0.4,0,0.7,0.3,0.7,0.7c0,0.4-0.3,0.7-0.7,0.7c-0.4,0-0.7-0.3-0.7-0.7C15.4,1034.3,15.7,1034,16,1034
			z"/>
	</g>
	<g>
		<defs>
			<polygon id="SVGID_9_" points="19.4,1044.4 16,1043.5 16.4,1041.6 20,1042.5 			"/>
		</defs>
		<clipPath id="SVGID_2_">
			<use xlink:href="#SVGID_9_"  style="overflow:visible;"/>
		</clipPath>
		<g class="st6">
			<path class="st2" d="M17.8,1042.6c-0.7,0-1.3,0.6-1.3,1.3c0,0.7,0.6,1.3,1.3,1.3c0.7,0,1.3-0.6,1.3-1.3
				C19.1,1043.2,18.5,1042.6,17.8,1042.6z"/>
			<path class="st3" d="M17.8,1043.2c0.4,0,0.7,0.3,0.7,0.7c0,0.4-0.3,0.7-0.7,0.7c-0.4,0-0.7-0.3-0.7-0.7
				C17.1,1043.5,17.4,1043.2,17.8,1043.2z"/>
		</g>
	</g>
	<g>
		<defs>
			<polygon id="SVGID_11_" points="23.6,1041.7 22.7,1038.2 20.6,1038.8 21.7,1043.3 			"/>
		</defs>
		<clipPath id="SVGID_4_">
			<use xlink:href="#SVGID_11_"  style="overflow:visible;"/>
		</clipPath>
		<g class="st9">
			<path class="st2" d="M22.8,1038.8c-0.7,0-1.3,0.6-1.3,1.3c0,0.7,0.6,1.3,1.3,1.3c0.7,0,1.3-0.6,1.3-1.3
				C24.1,1039.4,23.5,1038.8,22.8,1038.8z"/>
			<path class="st3" d="M22.8,1039.4c0.4,0,0.7,0.3,0.7,0.7c0,0.4-0.3,0.7-0.7,0.7c-0.4,0-0.7-0.3-0.7-0.7
				C22.1,1039.7,22.4,1039.4,22.8,1039.4z"/>
		</g>
	</g>
</g>
<g>
	<defs>
		<polygon id="SVGID_21_" points="32.6,16.5 25.3,16.4 23.4,10 22.5,10.2 19.2,10.5 18.7,2.8 18.7,0 32.6,0 		"/>
	</defs>
	<clipPath id="SVGID_6_">
		<use xlink:href="#SVGID_21_"  style="overflow:visible;"/>
	</clipPath>
	<g class="st10">
		<g>
			<path class="st0" d="M25.7,2.1c-1.2,0-2.2,0.3-3.2,0.8h0.9c0.6,0,1,0.5,1,1c0,0.4-0.2,0.7-0.5,0.9C24,4.9,24.1,5,24.2,5
				c0.2,0.2,0.3,0.5,0.3,0.7c0,0.4-0.2,0.7-0.5,0.9c0.3,0.2,0.5,0.5,0.5,0.9c0,0.4-0.2,0.7-0.5,0.9c0.3,0.2,0.5,0.5,0.5,0.9
				c0,0.4-0.2,0.7-0.5,0.9c0.1,0,0.1,0.1,0.2,0.2c0.2,0.2,0.3,0.5,0.3,0.7c0,0.4-0.2,0.7-0.5,0.9c0.3,0.2,0.5,0.5,0.5,0.9
				c0,0.6-0.5,1-1,1H22c1,0.7,2.3,1.1,3.7,1.1c3.6,0,6.5-2.9,6.5-6.5S29.3,2.1,25.7,2.1z"/>
			<g>
				<polygon class="st3" points="27.1,0.7 24.3,0.7 24.3,1.3 25.1,1.3 25.1,2.1 26.2,2.1 26.2,1.3 27.1,1.3 				"/>
				<rect x="31.1" y="2.4" transform="matrix(0.7071 -0.7071 0.7071 0.7071 7.2249 23.1563)" class="st3" width="1" height="0.8"/>
				<path class="st3" d="M25.2,9.1c0,0-0.1-0.3,0.2-0.6c0.3-0.3,2.9-2.1,2.9-2.1l-2.3,3.3C26.1,9.7,25.4,9.8,25.2,9.1z"/>
			</g>
			<g>
				<path class="st2" d="M25.9,10c0.3,0,0.5-0.2,0.7-0.4l2.4-3.3C29,6.2,29,6.1,28.9,6c-0.1-0.1-0.2-0.1-0.3,0l-3.3,2.4
					c-0.4,0.3-0.5,0.8-0.2,1.3C25.2,9.8,25.5,10,25.9,10L25.9,10z M25.4,9c0-0.1,0.1-0.2,0.2-0.3l2-1.5l-1.4,2
					c-0.1,0.2-0.4,0.2-0.5,0.1C25.5,9.3,25.4,9.2,25.4,9L25.4,9z"/>
				<path class="st2" d="M31.6,5.3L31.6,5.3L31.6,5.3c-0.3-0.4-0.6-0.8-0.9-1.2l0.5-0.5l0.4,0.4l1.1-1.1l-1.1-1.1l-1.1,1.1l0.4,0.4
					l-0.5,0.5c-0.4-0.3-0.8-0.6-1.2-0.9l0,0l0,0c-0.8-0.5-1.7-0.8-2.6-0.9V1.7h0.4c0.3,0,0.6-0.3,0.6-0.6s-0.3-0.6-0.6-0.6h-2.3
					c-0.3,0-0.6,0.3-0.6,0.6s0.3,0.6,0.6,0.6h0.4V2c-0.3,0-0.5,0.1-0.8,0.1c-0.1,0-0.2,0.2-0.2,0.3c0,0.1,0.2,0.2,0.3,0.2
					c0.2-0.1,0.5-0.1,0.7-0.1h0.3h0.2v0.5c0,0.1,0.1,0.3,0.3,0.3c0.1,0,0.3-0.1,0.3-0.3V2.4c0.9,0,1.8,0.3,2.6,0.7l-0.3,0.4
					c-0.1,0.1,0,0.3,0.1,0.3c0,0,0.1,0,0.1,0c0.1,0,0.2,0,0.2-0.1L29,3.3c0.8,0.5,1.5,1.2,2,2l-0.4,0.2c-0.1,0.1-0.2,0.2-0.1,0.3
					C30.5,6,30.6,6,30.7,6c0,0,0.1,0,0.1,0l0.4-0.3c0.4,0.8,0.7,1.7,0.7,2.7h-0.5c-0.1,0-0.3,0.1-0.3,0.3c0,0.1,0.1,0.3,0.3,0.3h0
					h0.5c0,0.9-0.3,1.9-0.7,2.7l-0.4-0.3c-0.1-0.1-0.3,0-0.3,0.1c-0.1,0.1,0,0.3,0.1,0.3l0,0L31,12c-0.5,0.8-1.2,1.5-2,2l-0.2-0.4
					c-0.1-0.1-0.2-0.2-0.3-0.1c-0.1,0.1-0.2,0.2-0.1,0.3l0.3,0.4c-0.8,0.4-1.7,0.7-2.6,0.7v-0.5c0-0.1-0.1-0.3-0.3-0.3
					c-0.1,0-0.3,0.1-0.3,0.3v0V15c-0.4,0-0.8-0.1-1.2-0.2c-0.1,0-0.3,0.1-0.3,0.2c0,0.1,0.1,0.3,0.2,0.3c0.5,0.1,1,0.2,1.5,0.2h0
					c1.2,0,2.3-0.3,3.3-0.9l0,0l0,0c1-0.6,1.9-1.4,2.5-2.5l0,0l0,0C32.7,10,32.7,7.4,31.6,5.3L31.6,5.3z M31.6,2.5l0.4,0.4l-0.4,0.4
					l-0.4-0.4L31.6,2.5z M25.5,1.9V1.1h-0.9c-0.1,0-0.1-0.1-0.1-0.1c0-0.1,0.1-0.1,0.1-0.1h2.3c0.1,0,0.1,0.1,0.1,0.1
					c0,0.1-0.1,0.1-0.1,0.1h-0.9v0.8H25.5L25.5,1.9z M23.4,3.9h-1.3c-0.1,0-0.3,0.1-0.3,0.3c0,0.1,0.1,0.3,0.3,0.3h1.3
					c0.1,0,0.3-0.1,0.3-0.3C23.7,4,23.6,3.9,23.4,3.9z M23.4,5.7h-2.5c-0.1,0-0.3,0.1-0.3,0.3c0,0.1,0.1,0.3,0.3,0.3h0h2.5
					c0.1,0,0.3-0.1,0.3-0.3C23.7,5.8,23.6,5.7,23.4,5.7C23.4,5.7,23.4,5.7,23.4,5.7z M23.4,7.4h-3.8c-0.1,0-0.3,0.1-0.3,0.3
					c0,0.1,0.1,0.3,0.3,0.3h3.8c0.1,0,0.3-0.1,0.3-0.3C23.7,7.6,23.6,7.4,23.4,7.4z M23.4,9.2h-4.8c-0.1,0-0.3,0.1-0.3,0.3
					c0,0.1,0.1,0.3,0.3,0.3h4.8c0.1,0,0.3-0.1,0.3-0.3C23.7,9.3,23.6,9.2,23.4,9.2z M23.4,11h-3.3c-0.1,0-0.3,0.1-0.3,0.3
					c0,0.1,0.1,0.3,0.3,0.3c0,0,0,0,0,0h3.3c0.1,0,0.3-0.1,0.3-0.3C23.7,11.1,23.6,11,23.4,11C23.4,11,23.4,11,23.4,11z M23.4,12.8
					h-1.8c-0.1,0-0.3,0.1-0.3,0.3c0,0.1,0.1,0.3,0.3,0.3h1.8c0.1,0,0.3-0.1,0.3-0.3C23.7,12.9,23.6,12.8,23.4,12.8z"/>
			</g>
		</g>
	</g>
</g>
</svg>
