<?xml version="1.0" encoding="utf-8"?>
<!-- Generator: Adobe Illustrator 21.1.0, SVG Export Plug-In . SVG Version: 6.00 Build 0)  -->
<svg version="1.1" id="Layer_1" xmlns="http://www.w3.org/2000/svg" xmlns:xlink="http://www.w3.org/1999/xlink" x="0px" y="0px"
	 viewBox="0 0 32.6 26" style="enable-background:new 0 0 32.6 26;" xml:space="preserve">
<style type="text/css">
	.st0{fill:#F9E8A0;}
	.st1{fill:none;}
	.st2{fill:#414042;}
	.st3{fill:#FF0000;}
	.st4{fill:#CE593F;}
	.st5{fill:#EF8829;}
	.st6{clip-path:url(#SVGID_2_);}
	.st7{fill:#3F2D20;}
	.st8{fill:#F8E79F;}
	.st9{clip-path:url(#SVGID_4_);}
	.st10{clip-path:url(#SVGID_6_);}
	.st11{fill:#F7B239;}
	.st12{fill:#E09B2D;}
	.st13{fill:#9AD14B;}
	.st14{fill:#F95428;}
	.st15{fill:#E54728;}
	.st16{fill:#B27214;}
	.st17{fill:#F4DE3B;}
	.st18{fill:#90BC42;}
	.st19{fill:#FFFFFF;}
	.st20{clip-path:url(#SVGID_8_);fill:#FFFFFF;}
	.st21{clip-path:url(#SVGID_8_);fill:#333333;}
	.st22{fill:#CC722E;}
	.st23{fill:#B25719;}
	.st24{fill:#FFA91F;}
	.st25{fill:#8C5549;}
	.st26{opacity:0.15;}
	.st27{fill:#202020;}
	.st28{fill:#A4A4A5;}
	.st29{fill:#DCE0E2;}
	.st30{fill:#354251;}
	.st31{fill:#9DB6CA;}
	.st32{fill:#9ACFDF;}
	.st33{clip-path:url(#SVGID_10_);}
	.st34{clip-path:url(#SVGID_12_);}
	.st35{clip-path:url(#SVGID_14_);}
	.st36{fill:#FF7424;}
	.st37{fill:#FF4C1C;}
	.st38{fill:#DDA558;}
	.st39{fill:#D4F8F5;}
	.st40{opacity:0.1;fill:#54858D;enable-background:new    ;}
	.st41{fill:#FFD755;}
	.st42{fill:#FFF6C4;}
	.st43{fill:#6DA8D6;}
	.st44{fill:#FFDA44;}
	.st45{fill:#3FC378;}
	.st46{fill:#C9EEAE;}
	.st47{fill:#E21220;}
	.st48{fill:#FF505D;}
	.st49{fill:#FF7C80;}
	.st50{fill:#93298D;}
	.st51{fill:#FFF5CC;}
	.st52{fill:#0DD9DD;}
	.st53{fill:#02A6AA;}
	.st54{fill:#FDD44B;}
	.st55{fill:#84BD93;}
	.st56{clip-path:url(#SVGID_16_);fill:#EF8829;}
	.st57{clip-path:url(#SVGID_16_);fill:#3F2D20;}
	.st58{fill:none;stroke:#414042;stroke-width:0.75;stroke-miterlimit:10;}
	.st59{fill:#F6F6F6;}
	.st60{fill:#FF1D25;}
	.st61{fill:#FBB03B;}
	.st62{fill:#C7B299;}
	.st63{fill:#D2C1AD;}
	.st64{fill:#998675;}
	.st65{fill:#FF4A51;}
	.st66{fill:#B20209;}
	.st67{fill:#F0C891;}
	.st68{fill:none;stroke:#464646;stroke-width:16;stroke-linecap:round;stroke-linejoin:round;stroke-miterlimit:10;}
	.st69{clip-path:url(#SVGID_18_);}
	.st70{clip-path:url(#SVGID_20_);}
	.st71{clip-path:url(#SVGID_22_);}
	.st72{clip-path:url(#SVGID_24_);}
	.st73{clip-path:url(#SVGID_26_);}
	.st74{clip-path:url(#SVGID_28_);}
</style>
<g>
	<path class="st0" d="M2,16.7h22.2l-6.5,8.5c-0.1,0.1-0.2,0.2-0.4,0.2H8.8c-0.1,0-0.3-0.1-0.4-0.2L2,16.7z"/>
	<path class="st3" d="M8.8,15.8c0.2-0.2,0.5-0.3,0.8-0.3c0.6,0,1,0.3,1.3,0.8H9.3L8.8,15.8L8.8,15.8z"/>
	<path class="st3" d="M16.1,15.4c-0.8,0-0.8,0.1-1,0.9h-1.4c0.2-1.5,1.4-2.6,2.7-2.6s2.6,1.1,2.8,2.6h-1.5c-0.2-0.9-0.5-1.2-1.3-1.2
		L16.1,15.4z"/>
	<g>
		<path class="st2" d="M8.9,25.9c-0.3,0-0.7-0.2-0.9-0.4l-6.8-8.8c-0.1-0.1-0.1-0.2,0-0.3c0-0.1,0.1-0.2,0.3-0.2h5.1l0-0.1
			c0.1-0.6,0.3-1.1,0.6-1.6l0-0.1L2.1,8.3C2,8.2,2,8,2.1,7.9c0.1,0,0.1-0.1,0.2-0.1c0.1,0,0.2,0,0.2,0.1l5.2,6.1L7.8,14
			c0.4-0.3,0.9-0.6,1.5-0.7l0.1,0L5.8,4.6c0-0.1,0-0.1,0-0.2c0-0.1,0.1-0.1,0.2-0.2c0,0,0.1,0,0.1,0c0.1,0,0.2,0.1,0.3,0.2l3.7,9
			l0.1,0c0.7,0.1,1.4,0.4,2,0.9l0.1,0.1l0.1-0.1c0.8-1.6,2.5-2.5,4.3-2.5c2.5,0,4.6,2,4.8,4.5l0,0.1h3.5c0.1,0,0.2,0.1,0.3,0.2
			c0,0.1,0,0.2,0,0.3l-6.8,8.8c-0.2,0.3-0.5,0.4-0.9,0.4H8.9z M24.1,16.8H2.1l6.4,8.3c0.1,0.1,0.3,0.2,0.4,0.2h8.3
			c0.2,0,0.3-0.1,0.4-0.2L24.1,16.8z M7.7,14.9l-0.1,0.1c-0.2,0.3-0.3,0.7-0.4,1l0,0.1h1.1l0-0.1c0-0.1,0.1-0.2,0.1-0.3l0-0.1
			L7.7,14.9z M9.2,15.7L9.2,15.7l0,0.1l0.3,0.3h1.2l-0.1-0.1c-0.2-0.3-0.5-0.5-0.9-0.5C9.6,15.5,9.4,15.6,9.2,15.7z M9.8,13.9
			c-0.6,0-1.2,0.2-1.6,0.6l-0.1,0.1l0.7,0.8l0.1-0.1C9.1,15.1,9.4,15,9.8,15c0.7,0,1.3,0.5,1.5,1.2l0,0.1h1.1l0-0.1
			C12.2,14.8,11.1,13.9,9.8,13.9L9.8,13.9z M19.6,16.1L19.6,16.1l1.1,0.1l0-0.1c-0.2-2.2-2.1-3.9-4.3-3.9c-1.7,0-3.2,1-3.9,2.6
			c0.2,0.4,0.4,0.8,0.4,1.3l0.1,0.1h0.2l0-0.1c0.2-1.6,1.6-2.8,3.2-2.8C18,13.3,19.4,14.5,19.6,16.1z M17.9,16.1L17.9,16.1l1.1,0.1
			l0-0.1c-0.2-1.3-1.3-2.2-2.6-2.2s-2.4,1-2.6,2.2l0,0.1h1.1l0-0.1c0.2-0.7,0.8-1.2,1.5-1.2C17.1,15,17.7,15.4,17.9,16.1z
			 M15.6,16.1l-0.1,0.1h1.9l-0.1-0.1c-0.2-0.3-0.5-0.5-0.9-0.5S15.7,15.7,15.6,16.1z"/>
		<path class="st2" d="M12.7,11.8c0.2,0,0.3-0.1,0.3-0.3c0-0.4,0.2-0.6,0.4-0.9c0.2-0.3,0.5-0.6,0.5-1.2s-0.3-1-0.5-1.2
			C13.1,8,13,7.8,13,7.4c0-0.4,0.2-0.6,0.4-0.9c0.2-0.3,0.5-0.6,0.5-1.2c0-0.2-0.1-0.3-0.3-0.3s-0.3,0.1-0.3,0.3
			c0,0.4-0.2,0.6-0.4,0.9c-0.2,0.3-0.5,0.6-0.5,1.2c0,0.6,0.3,1,0.5,1.2c0.2,0.2,0.4,0.4,0.4,0.9c0,0.4-0.2,0.6-0.4,0.9
			c-0.2,0.3-0.5,0.6-0.5,1.2C12.4,11.7,12.5,11.8,12.7,11.8z"/>
		<path class="st2" d="M11.8,9.7c0.2,0,0.3-0.1,0.3-0.3c0-0.1,0-0.1-0.1-0.2c-0.3-0.3-0.7-0.9-0.7-1.9c0-0.4,0.1-0.8,0.2-1.1
			c0.1-0.1,0-0.3-0.1-0.4c0,0-0.1,0-0.1,0c-0.1,0-0.2,0.1-0.3,0.2c-0.2,0.4-0.3,0.9-0.3,1.4c0,1.2,0.6,1.9,0.8,2.3
			C11.6,9.7,11.7,9.7,11.8,9.7z"/>
		<path class="st2" d="M14.9,11c0.1,0,0.2-0.1,0.3-0.2c0.2-0.4,0.3-0.9,0.3-1.4c0-1.2-0.6-1.9-0.8-2.2c0,0-0.1-0.1-0.1-0.1
			c0,0-0.1,0-0.2,0c-0.1,0-0.2,0-0.2,0.1c-0.1,0.1-0.1,0.2,0,0.3c0.3,0.4,0.7,0.9,0.7,1.9c0,0.4-0.1,0.8-0.2,1.1c0,0.1,0,0.1,0,0.2
			c0,0.1,0.1,0.1,0.2,0.2C14.8,11,14.9,11,14.9,11z"/>
	</g>
</g>
<g>
	<g>
		<path class="st0" d="M25.4,1.9c-1.1,0-2.2,0.3-3.1,0.8h0.9c0.6,0,1,0.5,1,1c0,0.4-0.2,0.7-0.5,0.9c0.1,0,0.1,0.1,0.2,0.1
			c0.2,0.2,0.3,0.4,0.3,0.7c0,0.4-0.2,0.7-0.5,0.9c0.3,0.2,0.5,0.5,0.5,0.9c0,0.4-0.2,0.7-0.5,0.9c0.3,0.2,0.5,0.5,0.5,0.9
			c0,0.4-0.2,0.7-0.5,0.9c0.1,0,0.1,0.1,0.2,0.2c0.2,0.2,0.3,0.4,0.3,0.7c0,0.4-0.2,0.7-0.5,0.9c0.3,0.2,0.5,0.5,0.5,0.9
			c0,0.6-0.5,1-1,1h-1.4c1,0.7,2.2,1.1,3.5,1.1c3.5,0,6.3-2.8,6.3-6.3S28.8,1.9,25.4,1.9z"/>
		<g>
			<polygon class="st3" points="26.7,0.5 24,0.5 24,1.1 24.8,1.1 24.8,1.8 25.9,1.8 25.9,1.1 26.7,1.1 			"/>
			<rect x="30.6" y="2.2" transform="matrix(0.7071 -0.7071 0.7071 0.7071 7.271 22.6931)" class="st3" width="0.9" height="0.8"/>
			<path class="st3" d="M24.9,8.6c0,0-0.1-0.2,0.2-0.6C25.4,7.7,28,6,28,6l-2.2,3.1C25.8,9.2,25.1,9.3,24.9,8.6z"/>
		</g>
		<g>
			<path class="st2" d="M25.6,9.4c0.3,0,0.5-0.1,0.6-0.4l2.3-3.2c0.1-0.1,0.1-0.3,0-0.3c-0.1-0.1-0.2-0.1-0.3,0L25,7.9
				c-0.4,0.3-0.5,0.8-0.2,1.2C24.9,9.3,25.2,9.4,25.6,9.4L25.6,9.4z M25.1,8.5c0-0.1,0.1-0.2,0.2-0.3l1.9-1.4l-1.4,1.9
				c-0.1,0.2-0.4,0.2-0.5,0.1C25.2,8.8,25.1,8.7,25.1,8.5L25.1,8.5z"/>
			<path class="st2" d="M31,4.9L31,4.9L31,4.9c-0.2-0.4-0.5-0.8-0.9-1.2l0.5-0.5L31,3.6l1.1-1.1L31,1.5L30,2.5l0.3,0.3l-0.5,0.5
				c-0.4-0.3-0.7-0.6-1.2-0.9l0,0l0,0c-0.8-0.4-1.6-0.7-2.5-0.8V1.4h0.4c0.3,0,0.6-0.3,0.6-0.6s-0.3-0.6-0.6-0.6h-2.2
				c-0.3,0-0.6,0.3-0.6,0.6s0.3,0.6,0.6,0.6h0.4v0.3c-0.3,0-0.5,0.1-0.8,0.1c-0.1,0-0.2,0.2-0.2,0.3c0,0.1,0.2,0.2,0.3,0.2
				c0.2-0.1,0.4-0.1,0.7-0.1h0.3h0.2v0.4c0,0.1,0.1,0.2,0.2,0.2c0.1,0,0.2-0.1,0.2-0.2V2.1c0.9,0,1.8,0.3,2.5,0.7l-0.2,0.4
				c-0.1,0.1,0,0.3,0.1,0.3c0,0,0.1,0,0.1,0c0.1,0,0.2,0,0.2-0.1L28.6,3c0.8,0.5,1.4,1.1,1.9,1.9L30,5.2c-0.1,0.1-0.2,0.2-0.1,0.3
				c0,0.1,0.1,0.1,0.2,0.1c0,0,0.1,0,0.1,0l0.4-0.2c0.4,0.8,0.7,1.7,0.7,2.6h-0.5c-0.1,0-0.2,0.1-0.2,0.2c0,0.1,0.1,0.2,0.2,0.2h0
				h0.5c0,0.9-0.3,1.8-0.7,2.6l-0.4-0.2c-0.1-0.1-0.3,0-0.3,0.1c-0.1,0.1,0,0.3,0.1,0.3l0,0l0.4,0.2c-0.5,0.8-1.1,1.4-1.9,1.9
				l-0.2-0.4c-0.1-0.1-0.2-0.2-0.3-0.1s-0.2,0.2-0.1,0.3l0.2,0.4c-0.8,0.4-1.7,0.7-2.5,0.7v-0.5c0-0.1-0.1-0.2-0.2-0.2
				s-0.2,0.1-0.2,0.2v0v0.5c-0.4,0-0.8-0.1-1.2-0.1c-0.1,0-0.3,0.1-0.3,0.2c0,0.1,0.1,0.3,0.2,0.3c0.5,0.1,1,0.2,1.5,0.2h0
				c1.1,0,2.2-0.3,3.2-0.9l0,0l0,0c1-0.6,1.8-1.4,2.4-2.4l0,0l0,0C32.1,9.5,32.1,7,31,4.9L31,4.9z M31,2.2l0.3,0.3L31,2.9l-0.3-0.3
				L31,2.2z M25.1,1.7V0.9h-0.9c-0.1,0-0.1-0.1-0.1-0.1c0-0.1,0.1-0.1,0.1-0.1h2.2c0.1,0,0.1,0.1,0.1,0.1c0,0.1-0.1,0.1-0.1,0.1
				h-0.9v0.7H25.1L25.1,1.7z M23.2,3.6H22c-0.1,0-0.2,0.1-0.2,0.2s0.1,0.2,0.2,0.2h1.2c0.1,0,0.2-0.1,0.2-0.2S23.3,3.6,23.2,3.6z
				 M23.2,5.3h-2.4c-0.1,0-0.2,0.1-0.2,0.2c0,0.1,0.1,0.2,0.2,0.2h0h2.4c0.1,0,0.2-0.1,0.2-0.2C23.4,5.4,23.3,5.3,23.2,5.3
				C23.2,5.3,23.2,5.3,23.2,5.3z M23.2,7h-3.7c-0.1,0-0.2,0.1-0.2,0.2c0,0.1,0.1,0.2,0.2,0.2h3.7c0.1,0,0.2-0.1,0.2-0.2
				C23.4,7.1,23.3,7,23.2,7z M23.2,8.7h-4.6c-0.1,0-0.2,0.1-0.2,0.2c0,0.1,0.1,0.2,0.2,0.2h4.6c0.1,0,0.2-0.1,0.2-0.2
				C23.4,8.8,23.3,8.7,23.2,8.7z M23.2,10.4H20c-0.1,0-0.2,0.1-0.2,0.2c0,0.1,0.1,0.2,0.2,0.2c0,0,0,0,0,0h3.2
				c0.1,0,0.2-0.1,0.2-0.2C23.4,10.5,23.3,10.4,23.2,10.4C23.2,10.4,23.2,10.4,23.2,10.4z M23.2,12.1h-1.7c-0.1,0-0.2,0.1-0.2,0.2
				c0,0.1,0.1,0.2,0.2,0.2h1.7c0.1,0,0.2-0.1,0.2-0.2C23.4,12.2,23.3,12.1,23.2,12.1z"/>
		</g>
	</g>
</g>
</svg>
