<?xml version="1.0" encoding="utf-8"?>
<!-- Generator: Adobe Illustrator 21.1.0, SVG Export Plug-In . SVG Version: 6.00 Build 0)  -->
<svg version="1.1" id="Layer_1" xmlns="http://www.w3.org/2000/svg" xmlns:xlink="http://www.w3.org/1999/xlink" x="0px" y="0px"
	 viewBox="0 0 23.6 23.7" style="enable-background:new 0 0 23.6 23.7;" xml:space="preserve">
<style type="text/css">
	.st0{fill:#F9E8A0;}
	.st1{fill:none;}
	.st2{fill:#414042;}
	.st3{fill:#FF0000;}
	.st4{fill:#CE593F;}
	.st5{fill:#EF8829;}
	.st6{clip-path:url(#SVGID_2_);}
	.st7{fill:#3F2D20;}
	.st8{fill:#F8E79F;}
	.st9{clip-path:url(#SVGID_4_);}
	.st10{clip-path:url(#SVGID_6_);}
	.st11{fill:#F7B239;}
	.st12{fill:#E09B2D;}
	.st13{fill:#9AD14B;}
	.st14{fill:#F95428;}
	.st15{fill:#E54728;}
	.st16{fill:#B27214;}
	.st17{fill:#F4DE3B;}
	.st18{fill:#90BC42;}
	.st19{fill:#FFFFFF;}
	.st20{clip-path:url(#SVGID_8_);fill:#FFFFFF;}
	.st21{clip-path:url(#SVGID_8_);fill:#333333;}
	.st22{fill:#CC722E;}
	.st23{fill:#B25719;}
	.st24{fill:#FFA91F;}
	.st25{fill:#8C5549;}
	.st26{opacity:0.15;}
	.st27{fill:#202020;}
	.st28{fill:#A4A4A5;}
	.st29{fill:#DCE0E2;}
	.st30{fill:#354251;}
	.st31{fill:#9DB6CA;}
	.st32{fill:#9ACFDF;}
	.st33{clip-path:url(#SVGID_10_);}
	.st34{clip-path:url(#SVGID_12_);}
	.st35{clip-path:url(#SVGID_14_);}
	.st36{fill:#FF7424;}
	.st37{fill:#FF4C1C;}
	.st38{fill:#DDA558;}
	.st39{fill:#D4F8F5;}
	.st40{opacity:0.1;fill:#54858D;enable-background:new    ;}
	.st41{fill:#FFD755;}
	.st42{fill:#FFF6C4;}
	.st43{fill:#6DA8D6;}
	.st44{fill:#FFDA44;}
	.st45{fill:#3FC378;}
	.st46{fill:#C9EEAE;}
	.st47{fill:#E21220;}
	.st48{fill:#FF505D;}
	.st49{fill:#FF7C80;}
	.st50{fill:#93298D;}
	.st51{fill:#FFF5CC;}
	.st52{fill:#0DD9DD;}
	.st53{fill:#02A6AA;}
	.st54{fill:#FDD44B;}
	.st55{fill:#84BD93;}
	.st56{clip-path:url(#SVGID_16_);fill:#EF8829;}
	.st57{clip-path:url(#SVGID_16_);fill:#3F2D20;}
	.st58{fill:none;stroke:#414042;stroke-width:0.75;stroke-miterlimit:10;}
	.st59{fill:#F6F6F6;}
	.st60{fill:#FF1D25;}
	.st61{fill:#FBB03B;}
	.st62{fill:#C7B299;}
	.st63{fill:#D2C1AD;}
	.st64{fill:#998675;}
	.st65{fill:#FF4A51;}
	.st66{fill:#B20209;}
	.st67{fill:#F0C891;}
	.st68{fill:none;stroke:#464646;stroke-width:16;stroke-linecap:round;stroke-linejoin:round;stroke-miterlimit:10;}
	.st69{clip-path:url(#SVGID_18_);}
	.st70{clip-path:url(#SVGID_20_);}
	.st71{clip-path:url(#SVGID_22_);}
	.st72{clip-path:url(#SVGID_24_);}
	.st73{clip-path:url(#SVGID_26_);}
	.st74{clip-path:url(#SVGID_28_);}
</style>
<g>
	<g>
		<g>
			<path class="st3" d="M11.7,22.4c-1-0.2-3-0.6-4.4-0.6c-1.7,0-3.9,0.4-4.8,0.6l-0.3,0.1l0.1,0.2c0.2,0.3,0.6,0.6,0.9,0.6h8
				c0.4,0,0.7-0.2,0.9-0.5l0.1-0.2L12,22.5C11.9,22.5,11.8,22.5,11.7,22.4z"/>
			<g>
				<path class="st8" d="M5.9,12.8l0.2,0.1V6.7H4.7v5.6l0.1,0.1C5.1,12.6,5.5,12.7,5.9,12.8z"/>
				<path class="st8" d="M3.8,11.5L4,11.4L3.8,11.5C3.9,11.6,4,11.7,4,11.7L4.3,12V8.2H2.9v2.6l0.1,0C3.3,11,3.6,11.2,3.8,11.5z"/>
				<path class="st8" d="M2.3,10.7l0.2,0V9.2H1.1v1.4h1.1C2.3,10.7,2.3,10.7,2.3,10.7z"/>
				<path class="st8" d="M6.9,13.1L6.9,13.1c0.1,0,0.2,0,0.3,0c0.1,0,0.2,0,0.3,0l0,0c0.1,0,0.2,0,0.3,0L8,13V4.9H6.5V13l0.2,0
					C6.8,13.1,6.8,13.1,6.9,13.1z"/>
				<path class="st8" d="M12.2,10.7h1.1V9.2h-1.4v1.4l0.2,0C12.2,10.7,12.2,10.7,12.2,10.7z"/>
				<path class="st8" d="M9.7,12.3L9.7,12.3l0.1-5.6H8.3v6.1l0.2-0.1C8.9,12.7,9.3,12.6,9.7,12.3z"/>
				<path class="st8" d="M10.6,11.5L10.6,11.5c0.2-0.3,0.5-0.6,0.9-0.7l0.1,0V8.2h-1.4V12l0.3-0.3C10.5,11.7,10.5,11.6,10.6,11.5z"
					/>
			</g>
			<path class="st3" d="M13.5,11.1L13.5,11.1c-0.1,0-0.2,0-0.2,0h-1c-0.1,0-0.3,0-0.5,0.1c-0.4,0.1-0.7,0.3-0.9,0.7
				c-0.2,0.2-0.4,0.5-0.7,0.7L10,12.5l0.1,0.2L10,12.6c-0.5,0.3-1,0.6-1.6,0.7l-0.3,0.1c-0.2,0-0.3,0.1-0.5,0.1c-0.3,0-0.6,0-0.9,0
				c-0.1,0-0.3,0-0.4-0.1L6,13.3c-0.6-0.2-1.1-0.4-1.6-0.7l-0.2-0.1C4,12.2,3.8,12,3.6,11.7c-0.2-0.3-0.5-0.5-0.9-0.6l0,0
				C2.5,11,2.3,11,2.2,11h-1C1.1,11,1,11,1,11c-0.4,0.1-0.6,0.6-0.6,0.9V12c0,0.1,0,0.2,0,0.3l0,0.5l0.3-0.1
				c0.2-0.1,0.3-0.1,0.5-0.1h1c0.7,0,1.3,0.3,1.6,0.8c0.7,1,2.3,1.6,3.4,1.6c1.1,0,2.7-0.7,3.4-1.6c0.4-0.5,1-0.8,1.6-0.8h1
				c0.2,0,0.3,0,0.5,0.1l0.3,0.1l0-0.5c0-0.1,0-0.3,0-0.4V12C14,11.5,13.8,11.2,13.5,11.1z"/>
			<path class="st8" d="M13.3,13h-1c-0.5,0-1,0.3-1.3,0.7c-0.8,1.1-2.5,1.8-3.7,1.8c-1.2,0-2.9-0.7-3.7-1.8C3.2,13.2,2.7,13,2.2,13
				h-1c-0.4,0-0.6,0.2-0.7,0.6l0,0l0,0.1c0.1,1,0.1,2,0.3,2.9l0,0.3c0,0.2,0.1,0.4,0.1,0.6L1,18.1c0,0.2,0.1,0.5,0.1,0.7
				c0,0.2,0.1,0.4,0.1,0.6c0,0.2,0.1,0.4,0.1,0.5c0.1,0.4,0.2,0.7,0.3,1.1c0,0.1,0.1,0.2,0.1,0.3C1.9,21.6,1.9,21.8,2,22l0.1,0.2
				l0.2,0c0.5-0.1,2.4-0.5,4.1-0.6c0.3,0,0.6,0,0.9,0c0.2,0,0.5,0,0.9,0c1.4,0.1,2.9,0.4,3.6,0.6l0.6,0.1l0.1-0.2
				c0.1-0.3,0.2-0.5,0.3-0.8l0.1-0.2c0.1-0.4,0.2-0.7,0.3-1.1c0-0.2,0.1-0.3,0.1-0.5l0-0.1c0-0.2,0.1-0.4,0.1-0.5
				c0.1-0.2,0.1-0.5,0.1-0.7l0.1-0.4c0-0.3,0.1-0.5,0.1-0.8l0-0.2c0.2-1,0.2-2,0.3-3.1l0,0C13.9,13.2,13.6,13,13.3,13z"/>
		</g>
		<path class="st2" d="M3.3,23.7c-0.6,0-1.2-0.4-1.4-1l0-0.1l-0.1-0.2c-0.1-0.4-0.3-0.8-0.4-1.2l-0.1-0.5c-0.1-0.2-0.1-0.5-0.2-0.7
			l-0.1-0.6c-0.1-0.2-0.1-0.4-0.1-0.6c-0.1-0.2-0.1-0.5-0.1-0.7l-0.1-0.4c0-0.3-0.1-0.5-0.1-0.8l0-0.2C0.1,15.2,0,13.6,0,12
			c0-0.6,0.2-1.1,0.7-1.3l0.1,0V8.8h1.8V7.7h1.8V6.3h1.8V4.5h2.3v1.8h1.8v1.4H12v1.1h1.8v1.8c0.4,0.3,0.7,0.8,0.7,1.3
			c0,1.6-0.1,3.3-0.4,4.9l0,0.2c0,0.3-0.1,0.5-0.1,0.8l-0.1,0.4c0,0.2-0.1,0.5-0.2,0.7c0,0.2-0.1,0.4-0.1,0.5c0,0.2-0.1,0.4-0.2,0.6
			c0,0.2-0.3,1.2-0.3,1.2c-0.1,0.4-0.2,0.8-0.4,1.2l0,0.1c-0.2,0.7-0.8,1.2-1.5,1.2H3.3z M7.3,21.9c-1.7,0-3.9,0.4-4.8,0.6l-0.1,0
			l0.1,0.1C2.6,23,3,23.2,3.3,23.2h8c0.4,0,0.7-0.2,0.9-0.5l0.1-0.1l-0.5-0.1C10.7,22.3,8.7,21.9,7.3,21.9z M7.3,21.4
			c1.5,0,3.6,0.4,4.6,0.6l0.5,0.1l0-0.1c0.1-0.3,0.2-0.5,0.3-0.8l0.1-0.2c0.1-0.4,0.2-0.7,0.3-1.1l0.1-0.5c0.1-0.2,0.1-0.4,0.1-0.6
			c0.1-0.2,0.2-0.9,0.2-0.9l0-0.2c0.1-0.3,0.1-0.5,0.1-0.8l0-0.2c0.2-1.1,0.3-2.1,0.3-3.1c0-0.2-0.2-0.6-0.7-0.6h-1
			c-0.5,0-1,0.2-1.3,0.7c-0.8,1.1-2.6,1.8-3.7,1.8c-1.2,0-2.9-0.7-3.7-1.8C3.2,13.3,2.8,13,2.2,13h-1c-0.3,0-0.5,0.2-0.7,0.6
			c0.1,1.1,0.1,2.1,0.3,3l0,0.3c0,0.2,0.2,0.9,0.2,0.9l0.1,0.3c0,0.2,0.1,0.4,0.1,0.7c0,0.2,0.1,0.4,0.1,0.6c0,0.2,0.1,0.4,0.1,0.5
			c0.1,0.4,0.2,0.7,0.3,1.1l0.3,1.1l0.1,0C3,21.9,5.4,21.4,7.3,21.4z M2.2,12.5c0.7,0,1.3,0.3,1.7,0.9C4.6,14.3,6.2,15,7.3,15
			c1.1,0,2.6-0.6,3.3-1.6c0.4-0.5,1-0.9,1.7-0.9h1c0.2,0,0.4,0,0.5,0.1l0.1,0.1l0-0.3c0-0.1,0-0.2,0-0.4c0-0.4-0.1-0.8-0.5-0.9
			c-0.1,0-0.1,0-0.2,0h-1c-0.1,0-0.3,0-0.4,0.1c-0.3,0.1-0.7,0.3-0.9,0.6c-0.2,0.3-0.4,0.5-0.7,0.7l-0.2,0.1c-0.5,0.3-1,0.6-1.6,0.8
			l-0.1,0v0l-0.2,0c-0.2,0-0.3,0.1-0.5,0.1c-0.2,0-0.3,0-0.5,0c-0.1,0-0.3,0-0.4,0c-0.2,0-0.3-0.1-0.5-0.1l-0.3-0.1l0,0
			c-0.6-0.2-1.1-0.4-1.6-0.7l-0.2-0.1C4,12.3,3.7,12,3.6,11.8c-0.2-0.3-0.5-0.5-0.9-0.6c-0.2,0-0.3-0.1-0.5-0.1h-1
			c-0.1,0-0.1,0-0.2,0c-0.4,0.1-0.5,0.5-0.5,0.8l0,0.8l0.1-0.1c0.2-0.1,0.4-0.1,0.5-0.1H2.2z M6.6,12.9L6.6,12.9c0.2,0,0.3,0,0.4,0
			c0.1,0,0.2,0,0.3,0c0.1,0,0.2,0,0.3,0c0.1,0,0.2,0,0.3,0l0.1,0V5H6.6V12.9z M4.8,12.2L4.8,12.2c0.4,0.2,0.8,0.3,1.2,0.4l0.1,0V6.8
			H4.8V12.2z M8.4,12.7l0.1,0c0.4-0.1,0.8-0.2,1.1-0.4l0-5.5H8.4V12.7z M3,10.7L3,10.7c0.4,0.2,0.7,0.4,0.9,0.7
			c0.1,0.1,0.1,0.2,0.2,0.2l0.2,0.2V8.2H3V10.7z M10.2,11.8l0.2-0.2c0.1-0.1,0.1-0.1,0.1-0.2c0.2-0.3,0.5-0.6,0.9-0.7l0.1,0V8.2
			h-1.3V11.8z M1.2,10.5h1l0.3,0l0-0.1V9.3H1.2V10.5z M12,10.6l0.2,0h1V9.3H12V10.6z"/>
		<path class="st2" d="M7.3,21.6c-1.7,0-3.1-1.4-3.1-3.1c0-1.7,1.4-3.1,3.1-3.1s3.1,1.4,3.1,3.1C10.4,20.3,9,21.6,7.3,21.6z
			 M7.3,16.1c-1.3,0-2.4,1.1-2.4,2.4C4.9,19.9,6,21,7.3,21s2.4-1.1,2.4-2.4C9.7,17.2,8.6,16.1,7.3,16.1z"/>
		<path class="st2" d="M7.3,20C7.1,20,7,19.9,7,19.7v-0.8H6.2c-0.2,0-0.3-0.1-0.3-0.3s0.1-0.3,0.3-0.3H7v-0.8c0-0.2,0.1-0.3,0.3-0.3
			c0.2,0,0.3,0.1,0.3,0.3v0.8h0.8c0.2,0,0.3,0.1,0.3,0.3s-0.1,0.3-0.3,0.3H7.6v0.8C7.6,19.9,7.5,20,7.3,20z"/>
	</g>
	<g>
		<defs>
			<path id="SVGID_3_" d="M23.6,0H11.8v6.4h1.6l0,1.2h1.8v1.8c0.7,0.1,0.7,0.9,0.7,0.9c0.3,4-0.5,5.7-0.5,6h8.2V0z"/>
		</defs>
		<clipPath id="SVGID_2_">
			<use xlink:href="#SVGID_3_"  style="overflow:visible;"/>
		</clipPath>
		<g class="st6">
			<g>
				<path class="st0" d="M17,1.6c-1.1,0-2.1,0.3-3,0.8h0.9c0.5,0,1,0.4,1,1c0,0.4-0.2,0.7-0.5,0.8c0.1,0,0.1,0.1,0.2,0.1
					c0.2,0.2,0.3,0.4,0.3,0.7c0,0.4-0.2,0.7-0.5,0.9c0.3,0.2,0.5,0.5,0.5,0.9c0,0.4-0.2,0.7-0.5,0.8c0.3,0.2,0.5,0.5,0.5,0.8
					c0,0.4-0.2,0.7-0.5,0.8c0.1,0,0.1,0.1,0.2,0.1c0.2,0.2,0.3,0.4,0.3,0.7c0,0.4-0.2,0.7-0.5,0.9c0.3,0.2,0.5,0.5,0.5,0.9
					c0,0.5-0.4,1-1,1h-1.3c1,0.7,2.2,1.1,3.5,1.1c3.4,0,6.2-2.8,6.2-6.2S20.4,1.6,17,1.6z"/>
				<g>
					<polygon class="st3" points="18.3,0.3 15.7,0.3 15.7,0.8 16.5,0.8 16.5,1.6 17.5,1.6 17.5,0.8 18.3,0.8 					"/>
					
						<rect x="22.1" y="1.9" transform="matrix(0.7071 -0.7071 0.7071 0.7071 4.9732 16.6435)" class="st3" width="0.9" height="0.8"/>
					<path class="st3" d="M16.6,8.2c0,0-0.1-0.2,0.2-0.5c0.3-0.3,2.8-2,2.8-2l-2.1,3.1C17.5,8.8,16.8,8.9,16.6,8.2z"/>
				</g>
				<g>
					<path class="st2" d="M17.2,9c0.2,0,0.5-0.1,0.6-0.3l2.2-3.1c0.1-0.1,0.1-0.2,0-0.3c-0.1-0.1-0.2-0.1-0.3,0l-3.1,2.2
						c-0.4,0.3-0.5,0.8-0.2,1.2C16.6,8.9,16.9,9,17.2,9L17.2,9z M16.8,8.2c0-0.1,0.1-0.2,0.2-0.3l1.9-1.4l-1.4,1.9
						c-0.1,0.2-0.3,0.2-0.5,0.1C16.8,8.4,16.8,8.3,16.8,8.2L16.8,8.2z"/>
					<path class="st2" d="M22.6,4.6L22.6,4.6L22.6,4.6c-0.2-0.4-0.5-0.8-0.9-1.1L22.2,3l0.3,0.3l1-1l-1-1l-1,1l0.3,0.3l-0.5,0.5
						c-0.3-0.3-0.7-0.6-1.1-0.9l0,0l0,0c-0.8-0.4-1.6-0.7-2.4-0.8V1.2h0.4c0.3,0,0.6-0.3,0.6-0.6S18.4,0,18.1,0H16
						c-0.3,0-0.6,0.3-0.6,0.6s0.3,0.6,0.6,0.6h0.4v0.3c-0.3,0-0.5,0.1-0.8,0.1c-0.1,0-0.2,0.2-0.2,0.3c0,0.1,0.2,0.2,0.3,0.2
						c0.2,0,0.4-0.1,0.7-0.1h0.3h0.2v0.4c0,0.1,0.1,0.2,0.2,0.2c0.1,0,0.2-0.1,0.2-0.2V1.9c0.9,0,1.7,0.3,2.5,0.7l-0.2,0.4
						c-0.1,0.1,0,0.3,0.1,0.3c0,0,0.1,0,0.1,0c0.1,0,0.2,0,0.2-0.1l0.2-0.4c0.7,0.5,1.4,1.1,1.9,1.9l-0.4,0.2
						c-0.1,0.1-0.2,0.2-0.1,0.3c0,0.1,0.1,0.1,0.2,0.1c0,0,0.1,0,0.1,0L22.3,5c0.4,0.8,0.6,1.6,0.7,2.5h-0.5c-0.1,0-0.2,0.1-0.2,0.2
						c0,0.1,0.1,0.2,0.2,0.2h0h0.5c0,0.9-0.3,1.7-0.7,2.5l-0.4-0.2c-0.1-0.1-0.3,0-0.3,0.1c-0.1,0.1,0,0.3,0.1,0.3l0,0L22,11
						c-0.5,0.7-1.1,1.4-1.9,1.9l-0.2-0.4c-0.1-0.1-0.2-0.2-0.3-0.1c-0.1,0.1-0.2,0.2-0.1,0.3l0.2,0.4c-0.8,0.4-1.6,0.6-2.5,0.7v-0.5
						c0-0.1-0.1-0.2-0.2-0.2c-0.1,0-0.2,0.1-0.2,0.2v0v0.5c-0.4,0-0.8-0.1-1.1-0.1c-0.1,0-0.3,0-0.3,0.2c0,0.1,0,0.3,0.2,0.3
						c0.5,0.1,1,0.2,1.4,0.2h0c1.1,0,2.2-0.3,3.2-0.9l0,0l0,0c1-0.6,1.8-1.4,2.3-2.3l0,0l0,0C23.6,9.1,23.6,6.6,22.6,4.6L22.6,4.6z
						 M22.6,1.9l0.3,0.3l-0.3,0.3l-0.3-0.3L22.6,1.9z M16.8,1.4V0.7H16c-0.1,0-0.1-0.1-0.1-0.1c0-0.1,0.1-0.1,0.1-0.1h2.1
						c0.1,0,0.1,0.1,0.1,0.1c0,0.1-0.1,0.1-0.1,0.1h-0.8v0.7H16.8L16.8,1.4z M14.9,3.3h-1.2c-0.1,0-0.2,0.1-0.2,0.2s0.1,0.2,0.2,0.2
						h1.2c0.1,0,0.2-0.1,0.2-0.2S15,3.3,14.9,3.3z M14.9,5h-2.4c-0.1,0-0.2,0.1-0.2,0.2c0,0.1,0.1,0.2,0.2,0.2h0h2.4
						c0.1,0,0.2-0.1,0.2-0.2C15.1,5.1,15,5,14.9,5C14.9,5,14.9,5,14.9,5z M14.9,6.6h-3.6c-0.1,0-0.2,0.1-0.2,0.2
						c0,0.1,0.1,0.2,0.2,0.2h3.6c0.1,0,0.2-0.1,0.2-0.2C15.1,6.8,15,6.6,14.9,6.6z M14.9,8.3h-4.5c-0.1,0-0.2,0.1-0.2,0.2
						s0.1,0.2,0.2,0.2h4.5c0.1,0,0.2-0.1,0.2-0.2S15,8.3,14.9,8.3z M14.9,10h-3.1c-0.1,0-0.2,0.1-0.2,0.2c0,0.1,0.1,0.2,0.2,0.2
						c0,0,0,0,0,0h3.1c0.1,0,0.2-0.1,0.2-0.2C15.1,10.1,15,10,14.9,10C14.9,10,14.9,10,14.9,10z M14.9,11.7h-1.7
						c-0.1,0-0.2,0.1-0.2,0.2c0,0.1,0.1,0.2,0.2,0.2h1.7c0.1,0,0.2-0.1,0.2-0.2C15.1,11.8,15,11.7,14.9,11.7z"/>
				</g>
			</g>
		</g>
	</g>
</g>
</svg>
