<svg xmlns="http://www.w3.org/2000/svg" viewBox="0 0 250 250"><title>Grocery</title><path d="M56.55,101.64a2.61,2.61,0,0,1-.7,2.06c-.47.69-1,1.37-1.4,2.08a5.27,5.27,0,0,0-.35,1l3.08.19c4.46.28,8.93.51,13.39.85,2.15.16,4.28.52,6.42.77,2.89.34,5.79.73,8.67-.09.76-.22,1.5-.54,2.24-.82l.18.21a18.49,18.49,0,0,1-1.94,1.82,19.61,19.61,0,0,1-7.41,2.87,84,84,0,0,1-16,1.48c-2.8.06-5.61.06-8.41.07-.47,0-.62.16-.56.63a29.08,29.08,0,0,0,3.47,10,1.16,1.16,0,0,0,.83.48c2.23.14,4.47.19,6.7.33,1.39.09,2.78.3,4.27.47a3.06,3.06,0,0,1-1.9,1.71,15.84,15.84,0,0,1-3.13.73c-1.43.18-2.88.21-4.47.32.19.4.3.69.45,1a19.19,19.19,0,0,1,2.61,11.09,15.13,15.13,0,0,1-2.92,7.45,31.21,31.21,0,0,1-9,8.17c-.53.34-.71,0-.89-.37l-3-6.82-3.28-7.48c-.09-.21-.15-.44-.25-.77.3,0,.51,0,.71,0a5,5,0,0,0,5.25-3.38,11.94,11.94,0,0,0,.82-5.39c0-.73-.08-1.46-.17-2.17-.16-1.13-.2-1.18-1.33-1.06a21.33,21.33,0,0,1-6.59-.31,9,9,0,0,1-5.52-3.13c1.16-.06,2.16-.15,3.16-.17,2.91-.07,5.82-.12,8.74-.15.74,0,.88-.24.77-1a43.78,43.78,0,0,1-.75-9.56c0-.7-.17-1-.93-1a49.33,49.33,0,0,1-10.8-2.32,5.39,5.39,0,0,1-1.2-.83,6.68,6.68,0,0,1,1.07-.89,22.66,22.66,0,0,1,8.26-2.36c1.74-.19,3.49-.26,5.23-.47a1.6,1.6,0,0,0,.94-.71,11.58,11.58,0,0,1,4.62-4.18,5.58,5.58,0,0,1,.6-.25A2.09,2.09,0,0,1,56.55,101.64Z" style="fill:#eb1038"/><path d="M163.45,142.49l-4.75,6c-.54.68-1.07,1.35-1.59,2a1.06,1.06,0,0,1-1.24.46,5.15,5.15,0,0,1-3.27-2.33c-.16-.24-.31-.49-.53-.84l-.62.67c-2.2,2.45-4.89,3.79-8.2,3.14s-4.84-3-5.49-6a8.8,8.8,0,0,1,3.67-9.72c2.55-1.8,5.22-3.45,7.78-5.23a14.45,14.45,0,0,0,2.6-2.29,3.53,3.53,0,0,0,.91-3.73,2.23,2.23,0,0,0-1.87-1.59,2,2,0,0,0-2,1.2,22.2,22.2,0,0,0-1.25,3.56,4,4,0,0,1-6,2.7,4.11,4.11,0,0,1-1.89-4.46c.68-3.67,3-5.88,6.39-7.07a9.36,9.36,0,0,1,7.91.43,7.3,7.3,0,0,1,3.77,5.9c.32,2.7.49,5.41.72,8.12a14.4,14.4,0,0,0,2,7.06A4.25,4.25,0,0,0,163.45,142.49ZM151,134.25c-.25,0-.41,0-.5.09-1.7,1.27-3.43,2.5-5.07,3.85a3.92,3.92,0,0,0-1,1.74,2.2,2.2,0,0,0,1.31,2.71,3.16,3.16,0,0,0,3.64-1.57C150.74,139,150.7,136.62,151,134.25Z" style="fill:#eb1038"/><path d="M130.32,105.48a3.58,3.58,0,0,1,1.11,2.45,20.12,20.12,0,0,1-.2,3c-.14,1.05-.06,1.2,1.05,1.24a57.67,57.67,0,0,1,10.43,1.22c.88.2,1.75.46,2.63.69l0,.3a25.28,25.28,0,0,1-2.47.76,54.14,54.14,0,0,1-10.37,1c-.27,0-.54,0-.81,0-1.77.17-1.77.17-2.18,1.89A50.86,50.86,0,0,0,128,131.93a15.13,15.13,0,0,0,1,5.53c.68,1.56,1.61,2.26,3,2.17a2.84,2.84,0,0,0,2.3-1.47,32.44,32.44,0,0,0,1.55-3.52c.1-.23.17-.48.25-.72h.21a12.69,12.69,0,0,1,.4,1.77,22,22,0,0,1-.5,6.74,18.49,18.49,0,0,1-2.32,6.17,6.65,6.65,0,0,1-4.23,3.27,3.77,3.77,0,0,1-3.7-1.33,12.55,12.55,0,0,1-2.76-6.47,49.75,49.75,0,0,1-.11-14.18,85.5,85.5,0,0,1,2.35-12.79c.23-.87.13-1-.8-1-3.53,0-7.06,0-10.59-.14a25.2,25.2,0,0,1-7.56-1.19A12.73,12.73,0,0,1,105,114l.06-.31c.59-.13,1.17-.28,1.76-.37a110.75,110.75,0,0,1,15-1.3c1.48,0,3-.09,4.45-.1a1.11,1.11,0,0,0,1.14-.8c.71-1.6,1.49-3.17,2.26-4.74A7.56,7.56,0,0,1,130.32,105.48Z" style="fill:#eb1038"/><path d="M106.39,136.25c.66,1.13,1.2,2.16,1.84,3.11a5.17,5.17,0,0,0,1.41,1.41,1.25,1.25,0,0,0,2.05-1.07,4.29,4.29,0,0,0-.78-2.3c-1-1.32-2.15-2.49-3.22-3.74-1.44-1.68-2.86-3.39-3.3-5.66a7,7,0,0,1,5.25-8.19,10.52,10.52,0,0,1,10.11,2.9,6.4,6.4,0,0,1,2,5.13,2.94,2.94,0,0,1-2.46,2.73,3.87,3.87,0,0,1-4.88-3.95,5,5,0,0,0-1-3.24,2.56,2.56,0,0,0-3.4-.65,2.49,2.49,0,0,0-1,3.32,9.64,9.64,0,0,0,1.95,2.32c2.36,2.17,4.9,4.15,7.14,6.43a9.52,9.52,0,0,1,2.69,8.1c-.63,4.92-4.51,9-10.21,8.31-3.74-.46-6.51-2.55-8.89-5.28a.89.89,0,0,1-.15-.79C103.12,142.2,104.73,139.28,106.39,136.25Z" style="fill:#eb1038"/><path d="M93.38,138.17c3,2.57,6,2.53,9.47,1-.56,1.06-1,1.91-1.45,2.74-1.63,2.95-3.28,5.89-4.9,8.84-.24.43-.47.69-1,.51-4.5-1.49-8.29-3.94-10.6-8.21a15.4,15.4,0,0,1-1.72-9.38,17.4,17.4,0,0,1,5-10.67,10.46,10.46,0,0,1,8.17-3.23,6.29,6.29,0,0,1,6.29,7.27c-.5,5.09-3.49,8.3-7.84,10.49C94.42,137.72,94,137.89,93.38,138.17Zm-2.71-7.63c.13.93.24,1.86.41,2.78s.42.93,1.13.39a14.39,14.39,0,0,0,1.23-1,11.36,11.36,0,0,0,3.33-5.34,2.23,2.23,0,0,0-2.44-3,2.86,2.86,0,0,0-2.08,1.24A7.89,7.89,0,0,0,90.66,130.54Z" style="fill:#eb1038"/><path d="M75.37,151.47c-.23-.28-.41-.46-.56-.68a35,35,0,0,1-6.25-17.2,11.8,11.8,0,0,1,.56-5c1.19-3.3,4.1-4.48,7.09-4.08,3.5.46,5.35,2.49,5.83,6a22.89,22.89,0,0,1-.77,8.32A33.76,33.76,0,0,1,76,150.71C75.8,150.95,75.61,151.17,75.37,151.47Z" style="fill:#eb1038"/><path d="M75.18,122.62a7.55,7.55,0,0,1-4.87-1.51,2.25,2.25,0,0,1-.06-3.78A7.4,7.4,0,0,1,73,116a8.76,8.76,0,0,1,6.94.87c2,1.24,2.06,3.18.1,4.53A8.23,8.23,0,0,1,75.18,122.62Z" style="fill:#eb1038"/><path d="M180.08,119.53a3.83,3.83,0,0,1-.83-.64c-.84-.84-.65-1.54.46-1.92a3.52,3.52,0,0,0,2.32-2.32c.44-1.45.66-3,1-4.48a6,6,0,0,0,0-.85c.52.18,1,.3,1.36.48.16.07.36.31.35.45-.17,2.23-.27,4.51-1.85,6.31a10.87,10.87,0,0,1-1.63,1.25,6.23,6.23,0,0,0,1.29.25,6.54,6.54,0,0,0,4.95-2.37,9.74,9.74,0,0,0,2.3-5.34c0-.34.11-.68.16-1l.24-.07a30.07,30.07,0,0,1,1.87,3.09c1,2.17.24,4.55-1.8,6.37l-8.8,1.45c-.33.05-1.16.21-1.54-.11a9.06,9.06,0,0,1-1.44-1.5c-.54-.87-.19-1.56.78-1.8a3.36,3.36,0,0,0,2.09-1.67,10.9,10.9,0,0,0,1.17-5.71.61.61,0,0,0-.26-.45,24.81,24.81,0,0,0-3.31-1.83c-1.94-.76-3.18,0-3.59,2.08-.15.73-.17,1.57-1.15,1.74-.74.13-1.31-.28-1.74-1.39-1.31-3.45-1.62-7,0-10.38s4.53-4.94,8.05-5.56a10.93,10.93,0,0,1,6.49.74,1.71,1.71,0,0,0,1.07.06c5.57-1.57,12.24,2.53,13.05,8.31a14.08,14.08,0,0,1-1.68,8.75c-1.66,3.11-4.61,5-8.11,6.06"/><path d="M180.24,105.85c0-6.49,4.89-11.75,10.92-11.75s10.92,5.26,10.92,11.75-4.89,11.75-10.92,11.75" style="fill:#eb1038"/><path d="M191.15,117.68v-.16c6,0,10.83-5.24,10.83-11.67s-4.86-11.67-10.83-11.67-10.83,5.24-10.83,11.67h-.16c0-6.52,4.93-11.83,11-11.83s11,5.31,11,11.83S197.22,117.68,191.15,117.68Z"/><path d="M190,118.91c-.29.37-.11,1.85-.18,2.52.28-.09.48-.1.59-.21,1.75-1.67,3.93-2,6.22-2a9.83,9.83,0,0,0,5.59-1.86c.54-.38.66-.68.26-1.3a5.94,5.94,0,0,1-1.35-4,5.19,5.19,0,0,1,.41-1.46c.1-.23.41-.36.62-.53.16.2.32.4.47.61.5.68,1,1.38,1.49,2.05.09.11.27.15.56.29a3.61,3.61,0,0,0,.2-1.12c-.24-1.4-.51-2.8-.84-4.18a10.09,10.09,0,0,1-.1-6,5.09,5.09,0,0,1,2.57-2.89,8,8,0,0,0,1.32-.9,6.26,6.26,0,0,1,6-1.32,2.6,2.6,0,0,1,.91.5c.64.55.57,1.19-.2,1.52-4.31,1.82-6.27,5.32-6.68,9.73a62.19,62.19,0,0,0,0,7.82,16,16,0,0,1-1.47,8.09A5.67,5.67,0,0,1,204,127c-.19.1-.4.17-.6.25l.23.28h1.18c0,.28,0,.62-.12.83a4.81,4.81,0,0,1-3.71,2l-1.45.15c.25.53.73,1.24.61,1.36a3.45,3.45,0,0,1-1.49.78,7.55,7.55,0,0,1-3.84-.12c-.3-.07-.61-.08-1.16-.14a4.9,4.9,0,0,0,.47.73c1.2,1.19,2.41,2.38,3.64,3.55.35.33.68.2,1-.17,2.8-3.86,6.86-4.87,11.31-5a.71.71,0,0,1,.24,0s.08.06.19.16a13.56,13.56,0,0,1-7.87,5.63,10.85,10.85,0,0,1,6.52,2c-2.42,1.23-4.81,1-7.28.57a10.25,10.25,0,0,1,3.23,3.64,5.25,5.25,0,0,1-3.73-1.64c-.74-.72-1.31-1.63-2-2.43a3.67,3.67,0,0,0-.76-.54c-.17.33-.52.67-.49,1a6.56,6.56,0,0,1-1.25,4.41,1.7,1.7,0,0,0,.91,2.72c1.58.61,3.09,1.4,4.61,2.13a1.84,1.84,0,0,1,.59.54,1,1,0,0,1-.09,1.47,1.47,1.47,0,0,1-1.21.15,13.33,13.33,0,0,1-1.92-1l.15.58-1.9-1.78.14-.16c.21.14.41.3.63.42,1,.57,2.06,1.17,3.12,1.68a.86.86,0,0,0,.82-.18,1.15,1.15,0,0,0,.06-.92,1.24,1.24,0,0,0-.63-.59c-1.56-.73-3.12-1.45-4.71-2.12-.27-.11-.65,0-1.13.06l-.11-2.5-1.81-.15-.15,1.88c-1.26,0-2.38,0-3.49,0a.86.86,0,0,0-.9.94c.05.33.47.63.76.9a1.21,1.21,0,0,0,.53.18,13.92,13.92,0,0,1,5.08,2.2c1.11.8,2.12,1.74,3.23,2.56a1.3,1.3,0,0,0,1.12.2c.47-.27.31-.78.05-1.21s-.48-.9-.71-1.36a9.86,9.86,0,0,1,1.13,1.65,1.27,1.27,0,0,1-.24,1.13,1.13,1.13,0,0,1-1.07.08,12.34,12.34,0,0,1-1.84-1.44,16.06,16.06,0,0,0-7-3.6c-1.53-.38-1.82-1.13-.91-2.63-1,.2-2,.34-3,.61a10.57,10.57,0,0,0-4.37,2.36,3.62,3.62,0,0,1-1.09.68c-.94.37-1.63-.18-1.39-1.15a5.19,5.19,0,0,1,.81-1.46,3.1,3.1,0,0,0,.55-.94c-.54.1-1.08.23-1.62.3a2.18,2.18,0,0,1-1,0c-.31-.12-.71-.42-.77-.71a1.24,1.24,0,0,1,.34-1.05,5.15,5.15,0,0,1,1.8-.86c1.46-.34,3-.57,4.51-.86a1.77,1.77,0,0,0-.4-1.68,6,6,0,0,1-1.37-3.72,3.34,3.34,0,0,0-1.23-2.89,15.32,15.32,0,0,1-2-2.17,1,1,0,0,0-1.11-.31,16.58,16.58,0,0,1-2.86.27c-.28,0-.77-.17-.8-.34s.15-.63.28-.94a1.43,1.43,0,0,0,.24-.51,5.7,5.7,0,0,1-.62.1c-.93,0-1.86.13-2.79.1a1.1,1.1,0,0,1-.79-.53c-.07-.14.26-.5.44-.75a4.49,4.49,0,0,1,.41-.44,15.7,15.7,0,0,1-2.47.27,4.5,4.5,0,0,1-3.42-2.08c-1-1.37-1.88-2.83-2.73-4.29a12.62,12.62,0,0,0-5.39-5.31c-.64-.31-.59-.7-.21-1.15a1.89,1.89,0,0,1,1.8-.68,3.55,3.55,0,0,1,2.44,1.44,19.45,19.45,0,0,0,1.27,1.74,3.92,3.92,0,0,0-.16-.85c-.36-.84-.75-1.67-1.15-2.49-.32-.66-.1-1.17.6-1.07a7,7,0,0,1,2.14.78c.37.19.62.35,1,.09a1.55,1.55,0,0,1,.76-.23c.73,0,.87.26.81,1a9.54,9.54,0,0,0,.1,2.46c.07.39.48.73.74,1.08s.44.38.5.62c.22.87.87,1,1.61,1.23a10.36,10.36,0,0,0,5-.14c1.74-.43,6.39-1.66,6.39-1.66m-4.17,6.62c.13.65.24,1.48.46,2.27,1.06,3.8,3.85,6.13,7.06,8a3.19,3.19,0,0,0,1.18.16,4.6,4.6,0,0,0-.39-1.06c-2.27-3.36-2.3-5.4-.11-8.78a3.84,3.84,0,0,0,.31-.47,12.09,12.09,0,0,0,.72-1.7,2.65,2.65,0,0,0-1.16-3.23,5.23,5.23,0,0,0-5.25-.13A5.62,5.62,0,0,0,177.53,126.67Zm5.14,18.91c-.41.49-1.17,1.36-1.88,2.27-.35.45-.88,1-.34,1.57s1.14.1,1.65-.27l.07,0a13.24,13.24,0,0,1,8-3.19c.46,0,1.08,0,1-.61a1.4,1.4,0,0,0-.84-1c-1.05-.3-2.16-.43-3.33-.64l-.14-1.42h-2v2h-.18l-.16-.69a15.21,15.21,0,0,0-5.23,1c-.55.21-1.34.45-1.13,1.24s1,.63,1.65.51C181,146.07,182.11,145.74,182.67,145.59Zm8.74.6c.44,0,.81,0,1.18.05,1.2,0,1.62-.54,1.3-1.72a2.15,2.15,0,0,0-.31-.56,7.35,7.35,0,0,1-.79-1.21,3.19,3.19,0,0,0-3.12-2.09c-1.58-.1-1.73-.09-2.27,1.34-.35.92-.07,1.39.9,1.52a12.49,12.49,0,0,1,1.82.35C191.55,144.3,191.74,144.65,191.42,146.18Z" style="fill:#2db342"/><path d="M200.12,154.23a1.21,1.21,0,0,1-.59-.13,12.69,12.69,0,0,1-1.87-1.47,15.7,15.7,0,0,0-6.87-3.55c-.84-.21-1.33-.53-1.52-1a1.85,1.85,0,0,1,.21-1.53l-.43.08c-.68.12-1.38.25-2,.43a10.37,10.37,0,0,0-4.27,2.3,3.88,3.88,0,0,1-1.16.73,1.34,1.34,0,0,1-1.4-.14,1.27,1.27,0,0,1-.31-1.3,3.9,3.9,0,0,1,.65-1.23l.2-.3.17-.24.17-.24h0c-.38.08-.76.16-1.15.21h-.09a2.13,2.13,0,0,1-1.06,0,1.52,1.52,0,0,1-.92-.89,1.47,1.47,0,0,1,.44-1.3,5.41,5.41,0,0,1,1.88-.9c1-.25,2.08-.43,3.17-.62l1.19-.21a1.52,1.52,0,0,0-.38-1.31,6.25,6.25,0,0,1-1.43-3.87,3.1,3.1,0,0,0-1.14-2.7,10.83,10.83,0,0,1-1.63-1.67l-.45-.53c-.25-.28-.43-.33-.88-.23a16.75,16.75,0,0,1-2.89.27c-.29,0-1-.16-1.06-.53a1.5,1.5,0,0,1,.21-.9l.08-.18,0-.09-.19,0-.62,0c-.72,0-1.46.09-2.19.06a1.34,1.34,0,0,1-1-.66c-.12-.24.08-.51.31-.81l.12-.16-.16,0a8.26,8.26,0,0,1-1.69.15,4.69,4.69,0,0,1-3.6-2.18c-1.06-1.46-2-3-2.74-4.31a12.25,12.25,0,0,0-5.28-5.21,1,1,0,0,1-.61-.64,1,1,0,0,1,.32-.88,2.14,2.14,0,0,1,2-.76,3.78,3.78,0,0,1,2.6,1.54c.14.19.27.38.39.57l.15.22c-.33-.74-.67-1.47-1-2.15a1.1,1.1,0,0,1,0-1.13.86.86,0,0,1,.88-.29,7.21,7.21,0,0,1,2.22.81l.07,0c.34.18.45.22.69.06a1.78,1.78,0,0,1,.88-.27,1.09,1.09,0,0,1,.86.24,1.26,1.26,0,0,1,.21,1,9.34,9.34,0,0,0,.1,2.4,1.66,1.66,0,0,0,.43.66c.09.1.18.21.26.31a1.79,1.79,0,0,0,.18.19,1.13,1.13,0,0,1,.36.51c.17.7.66.86,1.43,1.05a10,10,0,0,0,4.92-.14c1.72-.42,6.34-1.64,6.39-1.66l.12.47s-4.67,1.23-6.39,1.66a10.49,10.49,0,0,1-5.15.14c-.72-.18-1.53-.38-1.79-1.41a.82.82,0,0,0-.23-.28,2.16,2.16,0,0,1-.23-.25l-.24-.29a2,2,0,0,1-.55-.9,9.83,9.83,0,0,1-.1-2.52c0-.34,0-.54-.08-.62a.66.66,0,0,0-.48-.09,1.31,1.31,0,0,0-.63.19,1,1,0,0,1-1.19,0l-.07,0a6.78,6.78,0,0,0-2.06-.76c-.12,0-.33,0-.42.09a.68.68,0,0,0,.07.63c.38.79.78,1.63,1.15,2.5a2.29,2.29,0,0,1,.14.64c0,.09,0,.17,0,.26l.15.83-.57-.63a10.46,10.46,0,0,1-.9-1.2l-.38-.55a3.31,3.31,0,0,0-2.28-1.35,1.65,1.65,0,0,0-1.58.6c-.17.2-.24.36-.22.46s.2.24.35.31a12.71,12.71,0,0,1,5.49,5.41c.76,1.3,1.68,2.82,2.72,4.27a4.23,4.23,0,0,0,3.24,2,7.89,7.89,0,0,0,1.59-.15l.84-.12.67-.08-.46.49-.17.17a1.85,1.85,0,0,0-.22.24l-.15.21a2.77,2.77,0,0,0-.24.34.88.88,0,0,0,.55.35c.71,0,1.44,0,2.15-.06l.63,0a2.86,2.86,0,0,0,.39-.06l.2,0,.33-.05-.05.33a1.08,1.08,0,0,1-.21.48l-.05.08-.09.2a1.4,1.4,0,0,0-.18.57,1.12,1.12,0,0,0,.56.17,16.45,16.45,0,0,0,2.82-.26,1.66,1.66,0,0,1,.7,0,11.13,11.13,0,0,1-1.39-3.09c-.16-.57-.26-1.15-.35-1.67,0-.22-.08-.43-.11-.62v-.06a5.84,5.84,0,0,1,2.95-5.09c1.62-1,3.41-.92,5.48.12A2.89,2.89,0,0,1,187,125.2a8.22,8.22,0,0,1-.54,1.32l-.2.42a2.08,2.08,0,0,1-.22.36l-.1.15c-2.15,3.3-2.12,5.21.11,8.51a2.62,2.62,0,0,1,.31.79c0,.12.06.23.1.33l.13.37-.39,0-.37,0a1.82,1.82,0,0,1-.91-.17c-.72-.43-1.46-.9-2.17-1.42a4.7,4.7,0,0,1,.39,2,5.77,5.77,0,0,0,1.32,3.58,2.3,2.3,0,0,1,.42.71h2.26l0-.1c.58-1.53.83-1.61,2.52-1.5a3.42,3.42,0,0,1,3.33,2.24,3.35,3.35,0,0,0,.47.75c.1.13.2.27.3.42l.06.09a1.91,1.91,0,0,1,.28.54h0l2.22.18a2.55,2.55,0,0,1,.25-.45,6.28,6.28,0,0,0,1.21-4.25,1.34,1.34,0,0,1,.34-.82,3.17,3.17,0,0,0,.18-.29l.13-.24.22.15.24.15a2.14,2.14,0,0,1,.57.43c.26.31.51.64.75,1a12.53,12.53,0,0,0,1.22,1.46,5,5,0,0,0,3.17,1.55,9.38,9.38,0,0,0-2.55-2.82l-.45-.38-.67-.57.87.15a11.25,11.25,0,0,0,6.77-.38,11.09,11.09,0,0,0-6.06-1.71l-1.34-.07,1.28-.4a13.26,13.26,0,0,0,7.62-5.34H210c-5.33.1-8.76,1.6-11.12,4.85a1,1,0,0,1-.68.46.8.8,0,0,1-.63-.25c-1.25-1.19-2.49-2.41-3.64-3.55a2,2,0,0,1-.3-.44l-.2-.34-.27-.43.51.06.49.05a5.13,5.13,0,0,1,.69.1,7.41,7.41,0,0,0,3.72.12,3.34,3.34,0,0,0,1.31-.65,5.83,5.83,0,0,0-.3-.58c-.1-.19-.21-.39-.3-.57l-.15-.31.74-.08,1-.11a4.53,4.53,0,0,0,3.54-1.89,1,1,0,0,0,.07-.43v0h-1l-.52-.62.3-.13.19-.08.39-.17a5.54,5.54,0,0,0,2.35-2.59,16,16,0,0,0,1.44-8c0-.44,0-.88,0-1.33a49.85,49.85,0,0,1,0-6.52c.46-4.87,2.75-8.21,6.83-9.93.28-.12.45-.29.48-.47a.76.76,0,0,0-.34-.64,2.37,2.37,0,0,0-.83-.45,6,6,0,0,0-5.82,1.28,8.23,8.23,0,0,1-1.36.93,4.83,4.83,0,0,0-2.45,2.76,9.88,9.88,0,0,0,.11,5.83c.29,1.21.56,2.51.85,4.2a1.9,1.9,0,0,1-.1.82c0,.12-.07.25-.09.38l-.06.32-.29-.14-.26-.12a.86.86,0,0,1-.39-.25c-.34-.46-.68-.93-1-1.38l-.49-.68-.32-.41h0l0,0a.92.92,0,0,0-.32.27,5,5,0,0,0-.39,1.39,5.69,5.69,0,0,0,1.31,3.81,1,1,0,0,1-.32,1.63,10.1,10.1,0,0,1-5.73,1.91c-2.11,0-4.31.29-6.05,2a.91.91,0,0,1-.43.19l-.25.07-.35.12,0-.37c0-.21,0-.53,0-.86a3.32,3.32,0,0,1,.22-1.79l.38.3a4.17,4.17,0,0,0-.11,1.48c0,.2,0,.4,0,.57a.55.55,0,0,0,.17-.06c1.87-1.78,4.17-2.06,6.38-2.09a9.63,9.63,0,0,0,5.45-1.82c.45-.31.52-.47.19-1a6.18,6.18,0,0,1-1.38-4.14,5.38,5.38,0,0,1,.43-1.53,1.23,1.23,0,0,1,.49-.48l.2-.14.19-.16.15.2.15.19.33.43.49.68c.32.45.66.92,1,1.37a.88.88,0,0,0,.19.09h0l0-.12a1.56,1.56,0,0,0,.09-.61c-.29-1.68-.55-3-.84-4.16a10.44,10.44,0,0,1-.09-6.11,5.37,5.37,0,0,1,2.68-3,7.79,7.79,0,0,0,1.28-.88,6.52,6.52,0,0,1,6.27-1.36,2.83,2.83,0,0,1,1,.55,1.21,1.21,0,0,1,.51,1.08,1.16,1.16,0,0,1-.77.84c-3.9,1.64-6.09,4.85-6.53,9.53a49.47,49.47,0,0,0,0,6.46c0,.44,0,.89,0,1.33a16.47,16.47,0,0,1-1.5,8.21,6,6,0,0,1-2.57,2.8l-.16.07H205l0,.27c0,.08,0,.16,0,.25a1.26,1.26,0,0,1-.15.68,5,5,0,0,1-3.89,2.1l-1.05.11h0l.13.23c.32.57.49.89.28,1.09a3.6,3.6,0,0,1-1.59.84,7.84,7.84,0,0,1-4-.12,4.75,4.75,0,0,0-.63-.09h0a1.26,1.26,0,0,0,.18.26c1.15,1.14,2.39,2.35,3.64,3.54a.35.35,0,0,0,.25.12.55.55,0,0,0,.33-.26c3.15-4.34,7.8-5,11.51-5.05a.93.93,0,0,1,.32.05.49.49,0,0,1,.18.13l.09.08.16.14-.11.18a13.1,13.1,0,0,1-6.87,5.34,10.08,10.08,0,0,1,5.47,2l.3.24-.34.17a10.44,10.44,0,0,1-6.56.73,8.65,8.65,0,0,1,2.63,3.16l.15.34H205a5.45,5.45,0,0,1-3.89-1.7,12.88,12.88,0,0,1-1.27-1.52c-.23-.31-.48-.63-.73-.93a1.77,1.77,0,0,0-.45-.33l-.05,0-.08.11a1.11,1.11,0,0,0-.25.51,6.83,6.83,0,0,1-1.3,4.57,1.52,1.52,0,0,0-.28,1.33,1.69,1.69,0,0,0,1.08,1c1.23.48,2.44,1.07,3.61,1.64l1,.5a2.07,2.07,0,0,1,.68.61,1.28,1.28,0,0,1-.12,1.8,1.68,1.68,0,0,1-1.45.2,7.25,7.25,0,0,1-1.33-.63l-.14-.08,0,.1.3.4a5.94,5.94,0,0,1,.8,1.23,1.5,1.5,0,0,1-.29,1.4A1.12,1.12,0,0,1,200.12,154.23Zm-8-7.41c-.47,0-.94,0-1.4,0a.78.78,0,0,0-.57.26.49.49,0,0,0-.1.4c0,.18.28.41.51.6l.18.16a.76.76,0,0,0,.29.09l.13,0a14.07,14.07,0,0,1,5.17,2.24c.58.42,1.15.89,1.69,1.34s1,.84,1.54,1.22a1.12,1.12,0,0,0,.85.19.31.31,0,0,0,.17-.19c0-.11,0-.31-.2-.68s-.35-.64-.51-1l-.21-.41,0,0-2.06-1.93.43-.51.18.12.2.14a4.41,4.41,0,0,0,.41.27l.58.32c.82.46,1.67.94,2.53,1.35a.71.71,0,0,0,.51-.11.93.93,0,0,0,0-.7,1,1,0,0,0-.5-.45c-1.29-.6-3-1.39-4.7-2.11a1.2,1.2,0,0,0-.54,0l-.48.06-.25,0-.11-2.53-1.36-.11-.15,1.86h-2.3Zm7,3.11.29.27,0-.13-.19-.11Zm-15.75-4.77-.49.59-.38.45c-.41.48-1,1.14-1.49,1.81l-.09.11c-.44.55-.57.84-.27,1.14s.73.15,1.29-.26l.07-.05h0c2-1.88,4.55-2.88,8.18-3.25h.15c.59-.05.68-.13.67-.34a1.18,1.18,0,0,0-.67-.76,20.42,20.42,0,0,0-2.31-.47l-1-.17-.18,0-.14-1.39h-1.49v2l-.61,0-.16-.69a14.78,14.78,0,0,0-5,.95l-.12,0c-.71.27-1,.45-.86.9s.51.51,1.3.35l.07,0c.81-.17,1.61-.4,2.19-.56l.52-.15Zm13.09,1.21,0,.73.19,0a3.23,3.23,0,0,1,.44,0A2.12,2.12,0,0,1,196.44,146.36Zm-6.19-.2-.11.18-.13.23a1.35,1.35,0,0,1,.66-.2l.47,0,0-.22,0-.2a1.78,1.78,0,0,1-.83.22Zm-8.49-.07-.08.29h0l.3-.35Zm11.73.25h.45l0-.33A1.16,1.16,0,0,1,193.49,146.35Zm-1.78-.39h.13l.76,0a1.22,1.22,0,0,0,1-.31,1.27,1.27,0,0,0,0-1.1,1.51,1.51,0,0,0-.22-.4l-.06-.09c-.08-.13-.18-.26-.28-.39a3.75,3.75,0,0,1-.54-.87,3,3,0,0,0-2.91-1.93c-1.54-.1-1.54-.1-2,1.19a.74.74,0,0,0,.7,1.19,12.48,12.48,0,0,1,1.85.35C191.64,144.07,192,144.52,191.71,146Zm-4.4-2.47.15,0-.16-.12Zm-9.54-16.82c0,.19.07.39.11.6.09.5.19,1.08.34,1.62,1.11,4,4.14,6.22,7,7.9a1.47,1.47,0,0,0,.67.11h.05v0a2.23,2.23,0,0,0-.25-.64c-2.34-3.46-2.37-5.58-.11-9l.12-.17a1.69,1.69,0,0,0,.17-.27l.2-.43a7.71,7.71,0,0,0,.51-1.24,2.39,2.39,0,0,0-1-2.95,5,5,0,0,0-5-.14A5.38,5.38,0,0,0,177.77,126.66Zm-2.71,5.55Z"/><path d="M199.87,151c.23.45.45.92.71,1.36s.42.94-.05,1.21a1.3,1.3,0,0,1-1.12-.2c-1.11-.81-2.12-1.75-3.23-2.56a13.92,13.92,0,0,0-5.08-2.2,1.21,1.21,0,0,1-.53-.18c-.29-.27-.71-.56-.76-.9a.86.86,0,0,1,.9-.94c1.11-.06,2.23,0,3.49,0l.15-1.88,1.81.15.11,2.5c.48,0,.86-.17,1.13-.06,1.58.67,3.15,1.39,4.71,2.12a1.24,1.24,0,0,1,.63.59,1.15,1.15,0,0,1-.06.92.86.86,0,0,1-.82.18c-1.06-.52-2.09-1.11-3.12-1.68-.22-.12-.42-.28-.63-.42l-.14.16,1.9,1.78A.16.16,0,0,1,199.87,151Z" style="fill:#f8c81e"/><path d="M177.56,126.66a5.62,5.62,0,0,1,2.83-4.9,5.23,5.23,0,0,1,5.25.13,2.65,2.65,0,0,1,1.16,3.23,12.09,12.09,0,0,1-.72,1.7,3.84,3.84,0,0,1-.31.47c-2.19,3.37-2.16,5.42.11,8.78a4.6,4.6,0,0,1,.39,1.06,3.19,3.19,0,0,1-1.18-.16c-3.21-1.92-6-4.24-7.06-8C177.8,128.14,177.69,127.31,177.56,126.66Z" style="fill:#fff"/><path d="M193.28,114.45c-.53-3.11-2.8-5.24-4-7.9a8.62,8.62,0,0,1-.17-7.71,2.86,2.86,0,0,1,4.84-.48c.39.49,0,.71-.21,1a5.76,5.76,0,0,0-1.5,5.38,14.64,14.64,0,0,0,1.08,2.37l-.6.34c1.23,0,2.56,0,3.89,0,.68,0,.91.25.81.93a8.87,8.87,0,0,1-3.45,5.74A3.69,3.69,0,0,1,193.28,114.45Z" style="fill:#fff"/><path d="M182.7,145.58c-.56.15-1.63.48-2.73.71-.61.13-1.43.34-1.65-.51s.58-1,1.13-1.24a15.21,15.21,0,0,1,5.23-1l.16.69H185v-2h2l.14,1.42c1.17.21,2.27.34,3.33.64a1.4,1.4,0,0,1,.84,1c0,.58-.58.57-1,.61a13.24,13.24,0,0,0-8,3.19l-.07,0c-.51.37-1.1.83-1.65.27s0-1.12.34-1.57C181.53,146.93,182.29,146.07,182.7,145.58Z" style="fill:#f8c81e"/><path d="M191.45,146.17c.33-1.53.13-1.89-1.3-2.31a12.49,12.49,0,0,0-1.82-.35c-1-.13-1.25-.6-.9-1.52.55-1.43.69-1.45,2.27-1.34a3.19,3.19,0,0,1,3.12,2.09,7.35,7.35,0,0,0,.79,1.21,2.15,2.15,0,0,1,.31.56c.33,1.18-.1,1.73-1.3,1.72C192.25,146.22,191.88,146.19,191.45,146.17Z" style="fill:#fff"/><ellipse cx="194.74" cy="103.64" rx="5.22" ry="3.96" transform="translate(7.62 220.47) rotate(-60)"/><path d="M195.58,106.81a2.88,2.88,0,0,0,.92-2.53l-1.46.94c.16-.83.27-1.47.41-2.1s-.18-.83-.74-.81c-1.19,0-1.75.82-2.18,1.86a1.42,1.42,0,0,1-.1-.54,9.09,9.09,0,0,1,.59-2.08,2.71,2.71,0,0,1,3.22-1.55,2.83,2.83,0,0,1,1.84,3A4,4,0,0,1,195.58,106.81Z" style="fill:#fff"/><path d="M183.16,109.78s-.35-3,1-3.56,6.61.79,6.23,3.93-3,7.59-3,7.59L182,119.79l-1.81-2.54s2.51-2.08,3-3.62A9.54,9.54,0,0,0,183.16,109.78Z"/><path d="M190.33,109.09a30.07,30.07,0,0,1,1.87,3.09c1,2.17.24,4.55-1.8,6.37a8.84,8.84,0,0,1-10.2.82,3.83,3.83,0,0,1-.83-.64c-.84-.84-.65-1.54.46-1.92a3.52,3.52,0,0,0,2.32-2.32c.44-1.45.66-3,1-4.48a6,6,0,0,0,0-.85c.52.18,1,.3,1.36.48.16.07.36.31.35.45-.17,2.23-.27,4.51-1.85,6.31a10.87,10.87,0,0,1-1.63,1.25,6.23,6.23,0,0,0,1.29.25,6.54,6.54,0,0,0,4.95-2.37,9.74,9.74,0,0,0,2.3-5.34c0-.34.11-.68.16-1Z" style="fill:#f8c81e"/><ellipse cx="183.49" cy="108.02" rx="1.85" ry="0.96"/><path d="M190,96.33c-3,3.92-3.13,6.73-.62,11.55a3.72,3.72,0,0,1-3.28,1.3,11.76,11.76,0,0,1-4.23-1.51,17.93,17.93,0,0,0-3.13-1.26,2.87,2.87,0,0,0-3.85,2.72c0,.08,0,.18,0,.24-.17.28-.3.68-.55.77s-.66-.18-.77-.41a10.9,10.9,0,0,1-1-2.44c-.81-3.56-.59-7,1.81-10,2.23-2.76,5.26-3.7,8.72-3.49a15.33,15.33,0,0,1,6.39,2.1A4.9,4.9,0,0,1,190,96.33Z" style="fill:#f8c81e"/><path d="M174.22,110.23a1.07,1.07,0,0,1-.77-.46l-.06-.11a10.42,10.42,0,0,1-1-2.35c-.93-4.08-.34-7.37,1.83-10s5-3.75,8.78-3.52a15.45,15.45,0,0,1,6.43,2.11,2.41,2.41,0,0,1,.37.26l.19.15.06,0,0,.06c-3,3.89-3.11,6.67-.61,11.46l0,0,0,0a3.8,3.8,0,0,1-3.35,1.33,10.61,10.61,0,0,1-3.86-1.32l-.4-.2a17.89,17.89,0,0,0-3.11-1.26,3,3,0,0,0-2.52.31,3.13,3.13,0,0,0-1.23,2.34.52.52,0,0,0,0,.08.33.33,0,0,1,0,.2l-.13.23c-.12.24-.25.49-.46.57Zm7.91-16.35a9.38,9.38,0,0,0-7.75,3.49c-2.13,2.63-2.71,5.86-1.79,9.9a10.31,10.31,0,0,0,1,2.32l.06.11a.85.85,0,0,0,.67.37c.15-.06.27-.28.38-.49l.13-.24a.25.25,0,0,0,0-.1.68.68,0,0,1,0-.1,3.28,3.28,0,0,1,1.3-2.46,3.12,3.12,0,0,1,2.66-.33,18.05,18.05,0,0,1,3.14,1.27l.4.2a10.48,10.48,0,0,0,3.8,1.31,3.65,3.65,0,0,0,3.18-1.23c-2.49-4.8-2.34-7.62.61-11.52l-.13-.11a2.26,2.26,0,0,0-.34-.25A15.3,15.3,0,0,0,183,93.9Z" style="fill:#020102"/><path d="M163.95,154.92a3.4,3.4,0,1,1,3.4-3.4A3.4,3.4,0,0,1,163.95,154.92Zm0-6.38a3,3,0,1,0,3,3A3,3,0,0,0,163.95,148.53Z"/><path d="M162.66,149.93a6.4,6.4,0,0,1,1-.07,1.86,1.86,0,0,1,1.14.27.76.76,0,0,1,.31.62.9.9,0,0,1-.75.84h0a.85.85,0,0,1,.58.66,4.57,4.57,0,0,0,.31.9h-.53a3.72,3.72,0,0,1-.26-.78.72.72,0,0,0-.79-.64h-.48v1.42h-.51Zm.51,1.5h.52c.55,0,.89-.25.89-.62s-.37-.61-.91-.61a2.52,2.52,0,0,0-.51,0Z"/></svg>