<svg xmlns="http://www.w3.org/2000/svg" viewBox="0 0 250 250"><defs><style>.a{fill:#1a1a19;}.b{fill:#de2e14;}.c{fill:#fefefe;}.d{fill:#fefefd;}</style></defs><title>Fine Dining</title><path class="a" d="M26,96.28a.82.82,0,0,1,.06.56,8.22,8.22,0,0,1-.08,2,18,18,0,0,0,1-2c.06-.12.1-.33.33-.2s.3.15.22.43a5,5,0,0,1-.57,1.28,1.8,1.8,0,0,0-.19.38,1.82,1.82,0,0,1-.38.75c-.21.21-.14.56-.29.82a.1.1,0,0,0,0,.09c.48.35.34,1,.61,1.42a14.29,14.29,0,0,1,.8,1.78,3.37,3.37,0,0,0,.48,1,4.53,4.53,0,0,1,.7,1.61c.36,1,.85,1.94,1.24,2.92.19.47.39.92.61,1.38a.92.92,0,0,0,.78.48,1.18,1.18,0,0,1,.66.24,2,2,0,0,0,.82.29,7.5,7.5,0,0,1,1.51.78,17.41,17.41,0,0,1,2.6,1.92,8.57,8.57,0,0,1,1.93,2.08c.41.6.76,1.23,1.16,1.82s.65,1.29,1,1.92a3.38,3.38,0,0,1,.18.58,18.11,18.11,0,0,1,.85,3.15,7.75,7.75,0,0,0,.3,1.51,3.71,3.71,0,0,1,0,1.11,10.52,10.52,0,0,1,0,2,23.85,23.85,0,0,1-.59,3.75,11.64,11.64,0,0,1-.67,2c-.19.36.06.71.25,1a8.78,8.78,0,0,1,.75,1.66c.18.47.3,1,.52,1.44a3.73,3.73,0,0,0,.54,1,1,1,0,0,1,.26.52c0,.21.23.36.3.53a10.7,10.7,0,0,1,.62,1.17.47.47,0,0,1-.49.64.27.27,0,0,1-.25-.17c-.46-.84-.74-1.76-1.15-2.62s-.7-2-1.26-3a12.66,12.66,0,0,1-.6-1.31c0-.05,0-.14-.13-.15-.11.45-.51.71-.71,1.08a15,15,0,0,1-1.06,1.54,7.08,7.08,0,0,1-.89.92c-.14.13-.25.28-.37.42a11.82,11.82,0,0,1-1.89,1.74.54.54,0,0,0-.22.23c0,.06-.08.13-.15.11s-.15-.11-.1-.14-.07-.17.08-.2.26-.19.34-.37.28-.35.38-.55a12.19,12.19,0,0,0,.89-2.87,1.48,1.48,0,0,0,.07-.53c0-.28.2-.44.35-.58.34-.33.44-.79.73-1.13s.37-.72.63-1a.2.2,0,0,0-.09-.34c-.44-.14-.85-.38-1.31-.48a1.09,1.09,0,0,1-.41-.2,1,1,0,0,0-.54-.23c-.18,0-.35-.24-.57-.31a10.44,10.44,0,0,1-1.74-.84,7.8,7.8,0,0,0-1.28-.57,14,14,0,0,1,.08,2.2c0,.37,0,.38-.34.19a3,3,0,0,1-1-1.09A2.88,2.88,0,0,0,30,130.77c-.33-.13-.38-.1-.42.25a6,6,0,0,1-.33,1.81,6.13,6.13,0,0,1-.35.7c-.12.2-.25.22-.41,0-.42-.43-.77-.92-1.15-1.38A7.51,7.51,0,0,0,26.28,131c-.32-.25-.42-.2-.51.19a8.63,8.63,0,0,1-.48,1,13.82,13.82,0,0,1-.72,1.68c-.14.26-.26.25-.43.07-.37-.41-.78-.76-1.12-1.2a1.48,1.48,0,0,0-.84-.61c-.25-.05-.4-.36-.69-.43s-.4-.13-.34.27.1.86.13,1.29c0,.21,0,.41-.33.32h-.07c-1,.15-1.54-.55-1.71-1.42-.06-.32-.08-.68-.49-.86-.18-.08-.27-.43-.34-.71a.94.94,0,0,1-.68.42,3.83,3.83,0,0,0-.84.44c-.75.34-1.46.77-2.24,1.05a2,2,0,0,0-.52.28,1.28,1.28,0,0,1-.66.26c-.31,0-.36.14-.17.39s.05.23.1.34a6.29,6.29,0,0,0,.66.94,5,5,0,0,1,.78,1.22c0,.07,0,.17.09.21.43.27.5.81.85,1.13.09.08.07.18.07.28a2.94,2.94,0,0,0,.17,1c.07.2,0,.39,0,.57a2.93,2.93,0,0,0,.74,1.69c.1.1.12.2,0,.4a29,29,0,0,1-5.28-5.9c-.53,1.37-1.28,2.65-1.74,4.06-.34,1.07-.9,2.06-1.22,3.14-.07.24-.28.48-.38.75s-.2.15-.31.12-.34-.11-.36-.29-.07-.63.23-.86a.49.49,0,0,0,.17-.35.69.69,0,0,1,.26-.48s.11-.08.12-.12a4.85,4.85,0,0,1,.59-1.3c.18-.45.4-.88.55-1.34s.19-.65.32-1c.27-.66.56-1.32.88-2a1,1,0,0,0,.14-.54.23.23,0,0,1,0-.15c.48-.53.09-1-.12-1.47a13.56,13.56,0,0,1-.75-2.23,16.82,16.82,0,0,1-.41-2.16,33,33,0,0,1-.11-3.67,7.2,7.2,0,0,0,0-1.28c.39-.27.08-.74.34-1.11A2.52,2.52,0,0,0,10,122a1.93,1.93,0,0,1,.31-.93c.26-.38.32-.85.54-1.26.09-.16.05-.38.31-.4,0-.25.22-.4.24-.63a.61.61,0,0,1,.19-.41s.11-.07.12-.12c.1-.54.61-.77.87-1.2a15.57,15.57,0,0,1,1.73-2A18.9,18.9,0,0,1,16,113.49a5,5,0,0,1,1-.7,20.23,20.23,0,0,0,1.79-1.15,6.76,6.76,0,0,1,1.79-.69c.18-.06.33-.1.4-.29.51-1.23,1-2.45,1.51-3.69.21-.57.42-1.15.64-1.71a11.2,11.2,0,0,1,.63-1.32,4,4,0,0,0,.24-.5c.25-.61.52-1.22.78-1.82a1,1,0,0,0,.09-.28,1.24,1.24,0,0,1,.29-.78.32.32,0,0,0,.05-.35c-.12-.37-.32-.71-.47-1.06a11.39,11.39,0,0,1-1-2.09c0-.2,0-.31.15-.39s.3,0,.39.17c.36.74.73,1.47,1.1,2.2a18,18,0,0,0-.05-2.11,1.45,1.45,0,0,1,.14-.64Z"/><path class="a" d="M22.45,153.72c-.13-.15-.33-.07-.49-.12-.46-.15-.56-.28-.39-.72a19.14,19.14,0,0,0,.54-2c.07-.3.19-.58.29-.87.37-1.08.67-2.19,1-3.28.18-.57.38-1.14.57-1.7,0-.06,0-.16.15-.15a7.45,7.45,0,0,1,1.17.06.8.8,0,0,1,.61.8,19,19,0,0,1-.19,3.17,10.28,10.28,0,0,0,0,1.52,18.31,18.31,0,0,1-.25,2.25c-.06.6-.63.72-1.1.9-.16.06-.35,0-.49.13Z"/><path class="a" d="M26.66,153.72c0-.07,0-.13-.1-.14-.37,0-.4-.26-.38-.55a11.12,11.12,0,0,1,.07-1.78.55.55,0,0,0,0-.2,11.38,11.38,0,0,1-.11-2.47,22.23,22.23,0,0,1,.1-2.41,1.68,1.68,0,0,0-.12-.85c-.1-.28,0-.37.29-.36s.63,0,.95,0,.33,0,.31.28a.57.57,0,0,0,0,.17c0,.1.24.12.13.24a.42.42,0,0,1-.35.12c-.34-.11-.3.19-.27.29a22.16,22.16,0,0,1,.21,2.62c0,.41.33.36.57.42.44.11.56.28.46.71,0,.09-.06.11-.13.11H28c-.4,0-.51.18-.34.53a.3.3,0,0,1,0,.31c-.1.22,0,.46.06.68a.79.79,0,0,0,.05.12c.23.72.23.74,1,.65.16,0,.2,0,.26.14a5.53,5.53,0,0,1,.3.93.32.32,0,0,1-.27.43Z"/><path class="a" d="M6.29,144.15a1.44,1.44,0,0,0,.87-.17A8.27,8.27,0,0,1,9,143.32a22.36,22.36,0,0,1,2.12-.76,20.25,20.25,0,0,0,2.1-.79c.63-.2,1.22-.5,1.88-.64a1.16,1.16,0,0,1,1.18.32l.34.34c.28.26.28.26-.11.39a1.82,1.82,0,0,0-.33.13.42.42,0,0,1-.54-.08c-.23-.21-.44-.39-.76-.07-.16.16-.47.14-.7.25s-.61.35-.92.5-.2.23-.09.38a.82.82,0,0,0,.14.15c.1.08.06.19.06.28s-.14.06-.22.08h0a.61.61,0,0,1-1-.36c0-.11-.14-.1-.28-.06a23,23,0,0,0-2.18.86c-.81.35-1.64.64-2.46,1-.2.08-.28,0-.39-.13a5.1,5.1,0,0,0-.54-.81Z"/><path class="a" d="M243.71,131.65c-.17.2-.27.44-.45.64a1.72,1.72,0,0,1-2.79-.71,1.69,1.69,0,0,1,1.19-2.15c.91-.07,1.53-.09,2.05,1.08Z"/><path class="a" d="M220.41,131.65c-.55.07-1.19-.1-1.84-.07a9.81,9.81,0,0,0-2,.2c-.43.11-.67,0-.77-.27s-.05-.41.24-.48a5.19,5.19,0,0,0,.72-.22,1.18,1.18,0,0,0,.67-1.35,4.67,4.67,0,0,0-.36-1.12,1.29,1.29,0,0,1-.13-.9.41.41,0,0,0-.15-.37,2,2,0,0,1-.62-1.34c0-.2-.18-.32-.26-.49a1.14,1.14,0,0,1-.23-.84c.09-.38-.64-1.17-1.05-1.24a7.5,7.5,0,0,0-2.46.06c-.31.05-.62,0-.93.06a1.14,1.14,0,0,0-1,.92c-.13.65-.54,1.19-.68,1.83s-.63,1.22-.76,1.91a3.76,3.76,0,0,0-.23,1,1.45,1.45,0,0,0,.74,1,1.23,1.23,0,0,1,.72,1.24c0,.31-.18.49-.49.44a13,13,0,0,0-2.33-.07,9.18,9.18,0,0,1-2.12-.22c-.08,0-.13,0-.2,0a.76.76,0,0,1-.73.12,3.35,3.35,0,0,0-1.43,0,3.34,3.34,0,0,1-1.3-.1,5.25,5.25,0,0,0-2.33-.06.49.49,0,0,1-.59-.32.67.67,0,0,1,.25-.75.79.79,0,0,1,.26-.13c.67-.13.83-.67,1-1.21a.71.71,0,0,0-.06-.35,3.39,3.39,0,0,1,.06-2.22.36.36,0,0,0,0-.3,3.75,3.75,0,0,1-.26-2.23,1,1,0,0,0-.36-.86,3,3,0,0,0-2.47-.53,5,5,0,0,1-2,0,2.06,2.06,0,0,0-1,.07,10.21,10.21,0,0,1-1.67.12.32.32,0,0,1-.18-.06,1,1,0,0,0-.81,0,.91.91,0,0,0-.78,1,3,3,0,0,1-.13,1.05s0,.09,0,.13a1.13,1.13,0,0,1-.14,1c-.16.2-.16.45.15.55s.2.18.14.34-.2.52,0,.79c.05.07,0,.15,0,.21a.56.56,0,0,0,0,.67,2.26,2.26,0,0,1,.16,1,.85.85,0,0,0,.46.81,9.3,9.3,0,0,0,1.44.71c.11,0,.22.09.21.26s-.17.2-.28.25a5.41,5.41,0,0,1-1.08.13c-.61.13-1.22.29-1.83.4a1.94,1.94,0,0,1-.94-.13,2,2,0,0,0-1.58,0,.9.9,0,0,1-.78,0,.27.27,0,0,0-.19,0c-.44.12-.56-.2-.64-.51s.14-.5.39-.61a14.62,14.62,0,0,0,1.34-1,.38.38,0,0,0,.15-.39,6.9,6.9,0,0,1,.22-1.6,4.36,4.36,0,0,0-.16-2.34.73.73,0,0,1,0-.52c.17-.53-.09-1-.12-1.5,0-.08,0-.16,0-.23a3.36,3.36,0,0,0,0-1.19,1.54,1.54,0,0,1,.25-1c.08-.1.14-.23,0-.34a.21.21,0,0,1-.09-.17,4.88,4.88,0,0,1-.08-1.55,1.4,1.4,0,0,0,0-.54,8.23,8.23,0,0,1,0-2,9.65,9.65,0,0,0-.24-1.79c0-.38-.41-.62-.77-.77a3.1,3.1,0,0,1-.72-.46.66.66,0,0,1-.18-.71c0-.21.28-.16.4-.12a.93.93,0,0,0,.79,0,1.15,1.15,0,0,1,.76,0,1.68,1.68,0,0,1,.41.11c.69.39,1.3-.09,1.94-.18a2.49,2.49,0,0,1,1.79.18.4.4,0,0,0,.12.06c.12,0,.29,0,.35.13s-.05.32-.15.45a1.16,1.16,0,0,1-.57.44,1.16,1.16,0,0,0-.79.89,3.78,3.78,0,0,0,0,1.43,1.76,1.76,0,0,1-.23,1.31c-.38.53-.36.65.18,1a.44.44,0,0,1,.17.63,1.23,1.23,0,0,0-.16.8c0,.27.06.53.08.8s.61.54.92.46a6.94,6.94,0,0,1,2.55-.13,8,8,0,0,0,1.56.15,2,2,0,0,1,.79.21.38.38,0,0,0,.37,0,1.2,1.2,0,0,1,1.14-.1,1.78,1.78,0,0,0,.76,0c.73-.1,1-.65,1.13-1.23a4.09,4.09,0,0,1,.16-.39,1.06,1.06,0,0,0,0-1.06,1.64,1.64,0,0,1-.18-.79,7,7,0,0,1,.19-2.39.69.69,0,0,0-.18-.62,7,7,0,0,0-.75-.89.51.51,0,0,0-.38-.18c-.27,0-.34-.18-.38-.38a.36.36,0,0,1,.24-.45,2.67,2.67,0,0,1,1.58-.2,5.13,5.13,0,0,0,1.27-.08c.13,0,.26,0,.39,0a3.79,3.79,0,0,0,1.32-.14,1.64,1.64,0,0,1,1.2.2c.24.1.22.31.1.49a1.94,1.94,0,0,1-1.2.8c-.46.13-.67.49-.43.9a1.75,1.75,0,0,1,0,1.45,2.36,2.36,0,0,0,0,1.62,3.74,3.74,0,0,1,.27,1.35c0,.34,0,.68,0,1a1.49,1.49,0,0,1-.27,1.1.59.59,0,0,0,0,.79,2,2,0,0,1,.33,1.25c0,1.56,0,3.12,0,4.68a1.56,1.56,0,0,0,.19.79c.2.34.1.73.2,1.09a1.84,1.84,0,0,0,1,.92.12.12,0,0,0,.09,0c.35-.4.88-.49,1.31-.76a2.92,2.92,0,0,0,1.22-1.4c.27-.68.78-1.24,1.09-1.91a.68.68,0,0,1,.35-.3.67.67,0,0,0,.39-.6,5.32,5.32,0,0,1,.77-2.45,5.71,5.71,0,0,0,1-2.46.62.62,0,0,1,.13-.29,3.78,3.78,0,0,0,.74-1.55,9.55,9.55,0,0,1,.91-2.2,4.5,4.5,0,0,0,.25-.57,8,8,0,0,1,.46-1.18,2.86,2.86,0,0,0,.23-1.9,1,1,0,0,1,.6-1.14c.53-.12,1,.18.87.73a2.71,2.71,0,0,0,.33,1.54,9.11,9.11,0,0,1,.67,1.56,13,13,0,0,0,.25,1.29c.11.34.4.63.43,1a1.37,1.37,0,0,0,.29.79.46.46,0,0,1,.08.28,3.6,3.6,0,0,0,.43,1.71,2.89,2.89,0,0,1,.25,1.48.83.83,0,0,0,.15.5,20.2,20.2,0,0,1,1.28,2.83c.13.3.22.62.35.92a2.55,2.55,0,0,1,.26,1.21c0,.18,0,.38.17.44.5.2.59.65.71,1.08a1.54,1.54,0,0,0,1,1.11c.16.06.31.17.46.24.33.14.3.42.24.65a.58.58,0,0,1-.57.47Z"/><path class="a" d="M146.42,137H52.32c-.48,0-.48,0-.48-.48,0-.1,0-.2,0-.31s0-.18.17-.17h188.6c.3,0,.4.07.38.38,0,.58,0,.58-.59.58Z"/><path class="b" d="M21.66,132.39c1.14.76,1.91,1.89,3,2.64a4.15,4.15,0,0,1,.43-1.11,5,5,0,0,0,.56-.94c.15-.32.27-.67.41-1,0-.09.06-.2.2-.26A4.05,4.05,0,0,0,27,133a2.3,2.3,0,0,0,1,1.08h0c.16.2.34.4.63.32a2,2,0,0,0,.83-.67c.49-.5.39-1.1.4-1.7,0-.15,0-.31,0-.48.63.15.93.64,1.27,1.06.49.59,1,1.17,1.47,1.77a2.56,2.56,0,0,1,.55.81c.06.18.24.24.39,0a22.79,22.79,0,0,1,1.78-2c.11-.11.25-.18.35-.35.06.27.26.42.19.72s.25.71.14,1.12a.71.71,0,0,0,.05.41,1.42,1.42,0,0,1,.08,1,4.28,4.28,0,0,1-.24,1.46c-.1.23-.05.52-.15.74s-.32.73-.49,1.09-.5.67-.69,1a7.78,7.78,0,0,1-.76,1.05,2.93,2.93,0,0,1-1,.87c-.37.19-.74.39-1.09.62a2.75,2.75,0,0,1-1.11.35c-.24,0-.44.17-.67.21-.45.09-.9.16-1.36.21a16.16,16.16,0,0,1-1.76.21,1.53,1.53,0,0,0-.63.14c-.21.1-.42,0-.65,0a9.91,9.91,0,0,1-3.15-.29c-.18,0-.47.1-.54-.22-.52.15-.89-.23-1.3-.4a5.27,5.27,0,0,1-1.28-.7,6.2,6.2,0,0,1-2.15-2.37,7,7,0,0,1-.31-1.31A6.55,6.55,0,0,1,17,136a8.35,8.35,0,0,0,.12-3.06c-.06-.42.16-.6.58-.45.15.06.28.19.46.06a.07.07,0,0,1,.1,0c0,.16.19.19.29.25a2.59,2.59,0,0,1,1,1.18.59.59,0,0,0,.31.32s.1,0,.1.07c0,.39.28.66.36,1a1,1,0,0,0,.42.69c.08.05.17.11.25-.06a14.86,14.86,0,0,0,.56-1.43c.15-.43,0-.88.18-1.29,0-.09,0-.17-.06-.25A1.28,1.28,0,0,1,21.66,132.39Z"/><path class="a" d="M221.58,124.22c-.07-1.06-.11-2.11-.21-3.16a5.25,5.25,0,0,1,.58-2.45,10.61,10.61,0,0,1,.83-1.67,1.87,1.87,0,0,1,.29-.4.45.45,0,0,0,.19-.37c0-.32.16-.5.34-.72a11.38,11.38,0,0,1,2.09-1.78,6.79,6.79,0,0,1,2.71-1.19c.54-.11,1-.3,1.58-.41a.7.7,0,0,1,.2,0,26.05,26.05,0,0,0,2.94-.08,6.31,6.31,0,0,1,2.89.58,6.84,6.84,0,0,1,2.46,1.64,9,9,0,0,0,1.32,1.58,9.71,9.71,0,0,1,2,2.66,2.93,2.93,0,0,1,.47,1.52,3.35,3.35,0,0,1-.21,1.1.9.9,0,0,0,.07.73,1.53,1.53,0,0,1,.16.77,11.91,11.91,0,0,1-.13,2.27,3.87,3.87,0,0,1-.47,1,3.15,3.15,0,0,0-.49,1.17s0,.08,0,.09c-.56.39-.72,1.09-1.15,1.58a10.42,10.42,0,0,1-1.76,1.62,13.48,13.48,0,0,1-3,1.67,3.29,3.29,0,0,1-1.38.19,8.21,8.21,0,0,0-2.45.09,2.14,2.14,0,0,1-1.19-.07,2.9,2.9,0,0,0-1-.12,4.28,4.28,0,0,1-3.09-1.27,10.89,10.89,0,0,0-1.09-.87,1,1,0,0,1-.32-.43,3.09,3.09,0,0,0-1.19-1.52,2.71,2.71,0,0,1-.76-1,10.45,10.45,0,0,0-.82-1.31A1.71,1.71,0,0,1,221.58,124.22Z"/><path class="a" d="M74.88,112a21.82,21.82,0,0,0,2.95-.07,6.65,6.65,0,0,1,3,.71A6.17,6.17,0,0,1,83,114.2a11.94,11.94,0,0,0,1.32,1.58,9.23,9.23,0,0,1,2.25,3.29,2.65,2.65,0,0,1,0,1.92,1,1,0,0,0,0,.74,1.8,1.8,0,0,1,.17.87,10.67,10.67,0,0,1-.14,2.17,3.85,3.85,0,0,1-.41.88,3.19,3.19,0,0,0-.55,1.29.16.16,0,0,1-.05.11c-.48.32-.64.88-1,1.32a8.7,8.7,0,0,1-2.21,2.05,12.77,12.77,0,0,1-2.83,1.5,3.08,3.08,0,0,1-1.35.17,7.76,7.76,0,0,0-2.32.06,2.62,2.62,0,0,1-1.28,0,3.41,3.41,0,0,0-1-.12,4.24,4.24,0,0,1-3.09-1.27,9.64,9.64,0,0,0-1.09-.86.92.92,0,0,1-.32-.4,4.1,4.1,0,0,0-.66-1.09,1,1,0,0,0-.28-.26,2.93,2.93,0,0,1-1-1.24,10,10,0,0,0-.87-1.39,1.45,1.45,0,0,1-.3-1c0-.73-.08-1.46-.08-2.19,0-.4-.11-.81-.13-1.22a6,6,0,0,1,.59-2.48,12.42,12.42,0,0,1,.86-1.73,1,1,0,0,1,.31-.41.32.32,0,0,0,.15-.32c0-.31.15-.48.32-.69a9.72,9.72,0,0,1,2.14-1.82,6.5,6.5,0,0,1,3-1.21,6.79,6.79,0,0,0,1.15-.36C74.59,112,74.74,112.07,74.88,112Z"/><path class="a" d="M107.67,124c-.13-.84-.06-1.73-.21-2.62a4.62,4.62,0,0,1,.47-2.48,7.93,7.93,0,0,1,1.35-2.5s.07-.07.07-.11c.12-1,.87-1.41,1.54-1.9.34-.25.56-.62.93-.81a9.39,9.39,0,0,1,3-1.17,6.08,6.08,0,0,0,1.19-.35.55.55,0,0,1,.23,0c1.09.1,2.18-.1,3.28-.08a6.21,6.21,0,0,1,2.67.64,6.6,6.6,0,0,1,2.38,1.64,8.42,8.42,0,0,0,1.23,1.48,9.75,9.75,0,0,1,2.08,2.79,3.19,3.19,0,0,1,.43,1.3,4,4,0,0,1-.23,1.33.62.62,0,0,0,0,.48,1.62,1.62,0,0,1,.21.92,17.91,17.91,0,0,1-.07,2,4,4,0,0,1-.58,1.31,2.66,2.66,0,0,0-.45,1.08.16.16,0,0,1,0,.09c-.7.73-1.1,1.69-1.88,2.38a15.79,15.79,0,0,1-2.08,1.52,10.54,10.54,0,0,1-2,1,3.11,3.11,0,0,1-1.32.17,8.55,8.55,0,0,0-2.39.06,2.8,2.8,0,0,1-1.35-.06,1.66,1.66,0,0,0-.79-.1,3.51,3.51,0,0,1-1.68-.27,4.24,4.24,0,0,1-1.52-1,7.94,7.94,0,0,0-1-.79,1,1,0,0,1-.43-.5,3.55,3.55,0,0,0-.6-1,1.4,1.4,0,0,0-.41-.38,3.31,3.31,0,0,1-1-1.35,8.15,8.15,0,0,0-.68-1.08A2,2,0,0,1,107.67,124Z"/><path class="a" d="M88.32,123.09a9.32,9.32,0,0,0-.21-1.77,1.64,1.64,0,0,1,.06-.63,7.39,7.39,0,0,1,.44-1.54.49.49,0,0,0,.08-.25,3.83,3.83,0,0,1,.27-1.52,1,1,0,0,1,.15-.39,14.3,14.3,0,0,0,1-1.42,9.38,9.38,0,0,1,2.72-2.35,5.72,5.72,0,0,1,2.41-.87.65.65,0,0,0,.41-.18,1,1,0,0,1,.88-.29c.82,0,1.64-.13,2.46-.06a8.81,8.81,0,0,1,2.68.4c.48.2.95.44,1.42.65s1.15.41,1.72.62a.9.9,0,0,1,.61.81c0,.57,0,1.14,0,1.71a12.24,12.24,0,0,1-.19,2c0,.23-.29.33-.56.16a2.77,2.77,0,0,1-1.33-1.47,3.81,3.81,0,0,0-.63-1.1s-.1-.09-.1-.13c0-.47-.34-.52-.69-.61a4.13,4.13,0,0,1-.87-.37,6.35,6.35,0,0,0-1.82-.41A13,13,0,0,1,97,113.7a.76.76,0,0,0-.49,0,8.72,8.72,0,0,0-2.78,1.58c-.38.27-.47.78-.67,1.19-.1.21-.14.43-.39.54a.32.32,0,0,0-.16.31,3.76,3.76,0,0,1-.65,2.14,1,1,0,0,0,0,.94,1.41,1.41,0,0,1,.09.62,7.39,7.39,0,0,1,0,1.46.28.28,0,0,0,0,.2,1.21,1.21,0,0,1,0,1.23.2.2,0,0,0,0,.24,2.76,2.76,0,0,1,.33,1.48,7.15,7.15,0,0,0,.9,2.47,3.63,3.63,0,0,0,2.4,1.64,10.12,10.12,0,0,0,3.49.54c.28,0,.55.11.83.07a1.49,1.49,0,0,0,1.23-.65,3.27,3.27,0,0,0,.66-1.82,4.25,4.25,0,0,0-.23-1.19c-.14-.43-.58-.46-.95-.55-.19,0-.4,0-.59-.08a.79.79,0,0,1-.59-.6.6.6,0,0,1,.62-.53,16.67,16.67,0,0,1,1.82,0,6.86,6.86,0,0,0,1.39,0c.58-.06,1.18,0,1.76,0a3,3,0,0,1,1,.07.37.37,0,0,1,.3.48,1.48,1.48,0,0,0-.09.48,1.15,1.15,0,0,1-.48,1,1.5,1.5,0,0,0-.43,1,8.84,8.84,0,0,0,.13,2.14c.11.75.09.76-.68.87s-1.4.36-2.12.45a3.1,3.1,0,0,1-.87,0,3,3,0,0,0-1.62.27,1.68,1.68,0,0,1-.74.13c-1,0-1.94.17-2.92.13a5.18,5.18,0,0,1-2.65-.79c-.39-.25-.8-.45-1.21-.67a.71.71,0,0,1-.19-.13c-.65-.73-1.49-1.27-2.14-2a4.23,4.23,0,0,1-1.15-2.15,4.66,4.66,0,0,0-.48-1.14A4.57,4.57,0,0,1,88.32,123.09Z"/><path class="a" d="M175.23,111.81c1.49.14,3,.16,4.48.16a3.83,3.83,0,0,1,1.61.43c.56.26,1.12.55,1.7.78.36.14.38.4.33.7a4.13,4.13,0,0,0,0,1.53.33.33,0,0,1,0,.07,10.93,10.93,0,0,0,.07,1.55c0,.36-.23.49-.48.57a.63.63,0,0,1-.81-.29,2.86,2.86,0,0,1-.26-.6,1.43,1.43,0,0,0-.65-.88c-.42-.29-.81-.64-1.25-.92a1,1,0,0,1-.34-.48.62.62,0,0,0-.55-.45,7.4,7.4,0,0,1-1.73-.57c-.34-.11-.69-.2-1-.28-.18,0-.35.14-.5.12-.68-.12-1.24.3-1.86.4a3.73,3.73,0,0,0-2,1.12,7.54,7.54,0,0,0-1.21,1.29,3.6,3.6,0,0,0-.47,1.07,11.16,11.16,0,0,0-.53,1.82c-.05.47-.14.94-.18,1.41,0,.26-.13.49-.17.74a.61.61,0,0,0,.06.43,1.1,1.1,0,0,1,.17.73c.08,1.19,0,2.39.08,3.58a2.7,2.7,0,0,0,.82,1.89,11.23,11.23,0,0,0,1.8,1.55,7.16,7.16,0,0,0,2.2.9,6.67,6.67,0,0,0,1.87,0,5.79,5.79,0,0,1,1.14.06,3.69,3.69,0,0,0,2.68-.85,4.35,4.35,0,0,0,1.63-2,7.23,7.23,0,0,1,.55-1.22c.26-.42.62-.5,1-.2a.37.37,0,0,1,.14.32,8.29,8.29,0,0,0,.26,2.44c.18.73-.34,1.39-1.2,1.76s-2,.68-2.94,1.1a5.15,5.15,0,0,1-1.48.31,15.91,15.91,0,0,1-2.34.15,9.33,9.33,0,0,1-4.52-1.36,26.84,26.84,0,0,1-3.12-2.32,4.49,4.49,0,0,1-1.58-2.46c-.16-.67-.4-1.32-.5-2a6.79,6.79,0,0,1-.07-1c0-.63-.07-1.26,0-1.9a10.18,10.18,0,0,1,.59-2.66,16.41,16.41,0,0,1,1.15-2.31c.14-.27.22-.57.35-.84a1.22,1.22,0,0,1,1-.72,1.76,1.76,0,0,0,1.47-1.15,1,1,0,0,1,.69-.6,21.71,21.71,0,0,1,2.31-.72A8.73,8.73,0,0,1,175.23,111.81Z"/><path class="a" d="M56.73,131.65a5.05,5.05,0,0,1-1.83-.19.85.85,0,0,0-.72.06,1.36,1.36,0,0,1-.81.13,4.44,4.44,0,0,0-.76.08.44.44,0,0,1-.47-.25.52.52,0,0,1,.06-.61c.06-.08.13-.18.22-.21.75-.29.87-1.09,1.32-1.62a.26.26,0,0,0,0-.23,2.9,2.9,0,0,1-.12-1.36,12.24,12.24,0,0,0-.14-1.39,4.64,4.64,0,0,1,.33-1.95,2.34,2.34,0,0,0-.08-1.66,1.62,1.62,0,0,1-.12-1,5.29,5.29,0,0,0,.13-1.32,3.7,3.7,0,0,1,.29-1.52,2.37,2.37,0,0,0,.06-1.07c-.08-.94-.3-1.86-.34-2.8a1.78,1.78,0,0,0-.9-1.42,2.81,2.81,0,0,1-.52-.48.31.31,0,0,1-.09-.38c.08-.18.21-.15.35-.18a13.88,13.88,0,0,1,2.31,0,6.29,6.29,0,0,0,1.05,0,3.61,3.61,0,0,1,1.67.31,1.2,1.2,0,0,0,.76,0,3,3,0,0,1,1-.17,11.55,11.55,0,0,1,1.54-.06,13.41,13.41,0,0,0,1.82.06,3.5,3.5,0,0,0,1.52-.26,1.41,1.41,0,0,1,.79-.07c.49.08.6.42.51,1a4.9,4.9,0,0,0-.19,1.17.14.14,0,0,1,0,.07,2.55,2.55,0,0,0,.12,2c.1.3-.07.59-.43.77a.56.56,0,0,1-.78-.19,1.57,1.57,0,0,1-.42-1.05c0-.16-.17-.27-.25-.41a3.55,3.55,0,0,0-2.6-1.67c-.31-.07-.63-.1-.95-.15a4.19,4.19,0,0,0-2.32.53,1.12,1.12,0,0,0-.5,1.35.9.9,0,0,1-.18.86,1.17,1.17,0,0,0-.21,1.29,2.58,2.58,0,0,1,.17,1.55,1.76,1.76,0,0,0,.31,1.12c.13.28.53.28.81.21s.82,0,1.23-.11a1.24,1.24,0,0,0,.79-.35c.27-.31.54-.62.8-.94a.54.54,0,0,1,.66-.19.67.67,0,0,1,.48.63,4.88,4.88,0,0,1-.14,1.25,3.19,3.19,0,0,0,0,2,.24.24,0,0,1,0,.16c-.16.4,0,.79,0,1.19a.43.43,0,0,1-.68.41,2.46,2.46,0,0,1-1.16-1.15,2.73,2.73,0,0,0-2-1.41,1.3,1.3,0,0,0-.93.26c-.36.24-.27.63-.21.92a2,2,0,0,1-.16,1.25,1.24,1.24,0,0,0-.14.74,1.19,1.19,0,0,1-.12.77.4.4,0,0,0,0,.48,1.54,1.54,0,0,1,.24,1.25,3.09,3.09,0,0,0,.48,2.28.93.93,0,0,0,.35.31,1.23,1.23,0,0,1,.57.62.47.47,0,0,1-.45.72Z"/><path class="a" d="M140.75,131.65a6.5,6.5,0,0,1-2.15-.2c-.2-.06-.39.07-.59.07a8.58,8.58,0,0,0-1.26-.14l-1.84.2c-.21,0-.34-.05-.36-.28a.77.77,0,0,1,.46-.81c.61-.23.75-.74.9-1.28a11.41,11.41,0,0,0,0-2.07.4.4,0,0,0-.12-.26c-.29-.38-.28-.52,0-.86a.83.83,0,0,0,.17-1.13,1.23,1.23,0,0,1-.06-.76,2.88,2.88,0,0,0,0-1.18,2.59,2.59,0,0,1,0-1.2,1.66,1.66,0,0,0,0-1.29c-.1-.19,0-.41.09-.61a.9.9,0,0,0,0-.58,2.46,2.46,0,0,0-.47-1,1.15,1.15,0,0,0-.65-.43c-.27,0-.39-.12-.37-.39s.22-.33.44-.37a2.47,2.47,0,0,1,1.22.14,2.15,2.15,0,0,0,1.08,0,5.86,5.86,0,0,1,2.41.06,1.56,1.56,0,0,0,.77,0,3.73,3.73,0,0,1,3.17.62,5.12,5.12,0,0,0,.61.3,16.23,16.23,0,0,1,1.55,1.19,3.68,3.68,0,0,1,1.42,1.66,5.15,5.15,0,0,1,.51,2.13,13.87,13.87,0,0,1-.2,2.87,1.26,1.26,0,0,0,0,.6,1.08,1.08,0,0,1-.34,1,.85.85,0,0,0-.27.55c0,.31-.26.48-.48.67a3.6,3.6,0,0,0-.95,1,.41.41,0,0,1-.37.26.37.37,0,0,0-.34.27c-.09.22-.3.29-.48.42a10.42,10.42,0,0,1-2.15.75,3.45,3.45,0,0,1-1.21,0Z"/><path class="a" d="M156.47,122.83a1.41,1.41,0,0,1-.17.81.58.58,0,0,0,0,.46,4.3,4.3,0,0,1,.17,1.48c0,.46-.37.69-.73.51a.65.65,0,0,1-.33-.39c-.09-.54-.53-.58-.92-.69a1.3,1.3,0,0,1-.44-.21,1.28,1.28,0,0,0-1.07-.34c-.33.08-.39.2-.25.52a3,3,0,0,1,.22.72,1.3,1.3,0,0,1-.1.85c-.27.45-.07.88,0,1.29a2.51,2.51,0,0,1,0,.76,1.84,1.84,0,0,0,.72,2,1.58,1.58,0,0,0,1.51,0c.37-.17.76-.08,1.13-.21a1.8,1.8,0,0,0,1.09-1.19c.16-.44.22-1,.81-1.09.27-.06.54.06.53.33s.15.7-.15,1c-.11.12-.06.4,0,.61a1.64,1.64,0,0,1,0,1.08.69.69,0,0,1-.81.52,11.78,11.78,0,0,0-2.24-.13,4.3,4.3,0,0,0-1.16.13,1.24,1.24,0,0,1-.49,0,7.54,7.54,0,0,0-2-.14c-.87.1-1.73,0-2.6.06-.21,0-.46.06-.51-.24a.52.52,0,0,1,.38-.62,2.54,2.54,0,0,0,.83-.52,1.25,1.25,0,0,0,.36-.82c.1-.54,0-1.09.11-1.64a1.26,1.26,0,0,0,0-.73.3.3,0,0,1,0-.2,4.12,4.12,0,0,0,0-1.63.49.49,0,0,1,.12-.4c.29-.25.2-.5,0-.75a.62.62,0,0,1-.09-.65c.09-.24,0-.5,0-.72a3,3,0,0,1,.3-1.27,1.48,1.48,0,0,0,.09-1.13,12.36,12.36,0,0,1-.2-1.27.66.66,0,0,0-.27-.48c-.35-.27-.7-.54-1.07-.78-.16-.1-.26-.22-.21-.39s.16-.37.43-.37a5.36,5.36,0,0,1,1.9.27,1.17,1.17,0,0,0,.87,0,2,2,0,0,1,.78-.11,12.8,12.8,0,0,0,1.32-.11,4.3,4.3,0,0,1,2.07.21,1,1,0,0,0,.53,0,2.53,2.53,0,0,1,1.85.29.63.63,0,0,1,.31.48c0,.49.19.94.16,1.43,0,.19,0,.37-.22.48s-.41,0-.58-.15a.89.89,0,0,1-.27-.45.78.78,0,0,0-.57-.59,3.11,3.11,0,0,1-.57-.31,1.77,1.77,0,0,0-1.7-.24.38.38,0,0,1-.43,0,1.74,1.74,0,0,0-1.19-.31.66.66,0,0,0-.61.94,1.85,1.85,0,0,1-.09,1.74.74.74,0,0,0,0,.73,1.44,1.44,0,0,1,.06,1.21,1.54,1.54,0,0,0,.06.85.34.34,0,0,0,.31.22,2.49,2.49,0,0,0,1-.1,1.9,1.9,0,0,0,1.19-1,.41.41,0,0,1,.34-.28c.44,0,.53,0,.54.49C156.47,122.64,156.47,122.71,156.47,122.83Z"/><path class="a" d="M194.06,146.86c-.47,0-1,.07-1.46,0s-.73.11-1.1.06a3.08,3.08,0,0,1-.53-.05c-.43-.13-.75.17-.83.66a3.17,3.17,0,0,1-.19,1.26s0,.06,0,.09a1.61,1.61,0,0,1,.14,1.06,5,5,0,0,0,.14.86c0,.34.32.44.57.56a2.06,2.06,0,0,0,.54.24.15.15,0,0,1,.14.13c0,.08-.06.11-.12.14-.22.14-.48.05-.71.12s-.6.13-.9.2a2.06,2.06,0,0,1-.85-.09.77.77,0,0,0-.56,0,1.45,1.45,0,0,1-.94,0,.24.24,0,0,1-.19-.28c0-.13-.07-.31.13-.38s.5-.4.79-.53.14-.27.14-.33c0-.45.22-.87.17-1.32a1.77,1.77,0,0,0-.14-.84c-.08-.13,0-.27,0-.4a13.84,13.84,0,0,0-.1-1.47c0-.11-.06-.26,0-.33.29-.43,0-.87.05-1.3a11.68,11.68,0,0,0,0-1.39c0-.43-.08-.86-.13-1.28s-.28-.39-.5-.53-.41-.18-.49-.41a.3.3,0,0,1,0-.32c.06-.07.17,0,.26,0a.7.7,0,0,0,.42,0,1.6,1.6,0,0,1,.91.12.38.38,0,0,0,.31,0,2.17,2.17,0,0,1,1.85,0,.15.15,0,0,1,.06.25,1.21,1.21,0,0,1-.36.35.91.91,0,0,0-.52,1.15,1.21,1.21,0,0,1-.15,1c-.17.2-.1.33.07.4a.29.29,0,0,1,.16.42,2,2,0,0,0-.05.63c0,.44.23.59.67.51a9.67,9.67,0,0,1,1.64,0c.52,0,1,.33,1.55.05.12-.06.24,0,.35.07a.86.86,0,0,0,1.06-.54,1.67,1.67,0,0,0,.09-1.35,2.65,2.65,0,0,1,0-1.31.49.49,0,0,0-.1-.49c-.2-.22-.29-.54-.66-.6-.13,0-.19-.17-.18-.33s.09-.18.22-.2a6.84,6.84,0,0,1,.93-.1,5.5,5.5,0,0,0,1.65-.14.89.89,0,0,1,.7.12c.12.05.14.15.06.28a.89.89,0,0,1-.65.45c-.26,0-.42.25-.31.44.25.42,0,.81,0,1.19a1.22,1.22,0,0,0,0,.67,4.29,4.29,0,0,1,.17,1.58.54.54,0,0,1-.15.39c-.14.13-.14.24,0,.41a1.54,1.54,0,0,1,.22.88,9.43,9.43,0,0,0,.16,3.17,2.63,2.63,0,0,1,0,.4c.07.38.42.48.69.65l.25.17a.21.21,0,0,1,.06.25c0,.1-.11.13-.21.13a8.33,8.33,0,0,1-2.38-.12,1.16,1.16,0,0,0-.59,0c-.2,0-.51.13-.6-.19s.16-.46.39-.53a.7.7,0,0,0,.47-.78,2.3,2.3,0,0,1,0-1,3.2,3.2,0,0,0-.15-1.28.42.42,0,0,1,0-.17c.06-.25.17-.5,0-.72a1.07,1.07,0,0,0-1-.41A2.8,2.8,0,0,1,194.06,146.86Z"/><path class="a" d="M199.1,147.4A10.16,10.16,0,0,0,199,146a2.62,2.62,0,0,1,.28-1.17,16.11,16.11,0,0,1,.77-1.52,2.71,2.71,0,0,1,.64-.86,6.28,6.28,0,0,1,2.73-1.42,16.15,16.15,0,0,1,2.58-.22,3.52,3.52,0,0,1,2.52.9,10.81,10.81,0,0,1,2.34,2.74A2,2,0,0,1,211,146a.33.33,0,0,0,0,.22,4.73,4.73,0,0,1,0,1.89,1.62,1.62,0,0,1-.26.56,6.44,6.44,0,0,1-1.44,2.11,7.12,7.12,0,0,1-2.7,1.53c-.26.08-.51,0-.76-.05a14.44,14.44,0,0,1-1.54.06,4.63,4.63,0,0,1-2-.37,4.06,4.06,0,0,1-1.69-1.64.79.79,0,0,0-.26-.3,5.64,5.64,0,0,1-1.23-1.8C199,148,199.14,147.65,199.1,147.4Z"/><path class="a" d="M185.28,152.09c-.6-.16-1.24,0-1.84-.24-.16-.08-.43,0-.64.08a.89.89,0,0,1-.4,0c-.15,0-.35-.07-.4-.25a.38.38,0,0,1,.19-.42c.18-.12,0-.27,0-.37a3.43,3.43,0,0,0-.94-.88,1.3,1.3,0,0,1-.37-.37,3.38,3.38,0,0,0-.76-.81,2.23,2.23,0,0,1-.67-.82c-.18-.44-.63-.54-1-.67-.19-.07-.3.19-.32.39a5.49,5.49,0,0,0,0,.59c0,.58,0,1.17,0,1.75a1.57,1.57,0,0,0,.71,1.17c.2.15.45.23.4.53s-.47.31-.78.21a3.19,3.19,0,0,0-1.36-.09,11.14,11.14,0,0,1-1.12.12.63.63,0,0,1-.32-.07c-.27-.15-.28-.4,0-.54a1,1,0,0,0,.63-1.1,6.11,6.11,0,0,0-.06-1.14.88.88,0,0,1,.17-.62.61.61,0,0,0-.07-.82.94.94,0,0,1-.16-.86,3.08,3.08,0,0,0,0-1.26.88.88,0,0,1,.14-.6,1,1,0,0,0,.07-1,2.12,2.12,0,0,1-.14-1.08c0-.46-.08-.88-.58-1.08a.36.36,0,0,1-.22-.48c.09-.19.28-.23.51-.13a2,2,0,0,0,1.06-.08c.63-.09,1.25-.13,1.88-.18a.46.46,0,0,1,.34.11c.16.13.23.27,0,.41s-.38.3-.59.42a.49.49,0,0,0-.27.38,4.06,4.06,0,0,1-.16.95.63.63,0,0,0,.06.46.57.57,0,0,1,.08.51c-.18.35-.12.75-.32,1.08-.11.18,0,.31.13.38a.38.38,0,0,0,.53-.08c.35-.57,1-.87,1.38-1.35a.47.47,0,0,1,.27-.11.8.8,0,0,0,.58-.52c.13-.33.46-.5.74-.69l.34-.21a.5.5,0,0,0,.16-.76c-.08-.14-.17-.28-.23-.43-.15-.34,0-.61.35-.53.54.12,1.12-.13,1.63.23a.61.61,0,0,0,.52,0,4.09,4.09,0,0,1,.76-.22.52.52,0,0,1,.64.33.61.61,0,0,1-.5.61,2.45,2.45,0,0,0-1.32.6,9,9,0,0,0-1.07.9.36.36,0,0,1-.17.1,2.38,2.38,0,0,0-1.29.89,5.38,5.38,0,0,1-1.06.85,1.5,1.5,0,0,0-.49.74.27.27,0,0,0,.17.33c.38.2.63.59,1.07.69a.26.26,0,0,1,.19.29.53.53,0,0,0,.3.49,5.17,5.17,0,0,1,1.39,1.35c.23.31.44.63.9.66a.65.65,0,0,1,.47.43,2.07,2.07,0,0,0,1.16,1.12c.23.09.48.23.37.52s-.33.22-.54.22Z"/><path class="a" d="M62.22,141a6.2,6.2,0,0,1,.88.1,2.53,2.53,0,0,0,1-.12,3.55,3.55,0,0,1,1.22,0,4.7,4.7,0,0,1,2.84,1.23,3,3,0,0,1,.7,1.42,2,2,0,0,1-.62,1.95,2.33,2.33,0,0,1-1.07.71c-.08,0-.19.05-.22.18s.12.17.18.2a1.16,1.16,0,0,1,.56,1,6.92,6.92,0,0,0,.4,1.93.43.43,0,0,1,0,.13c.05.56.29.78.85.79.11,0,.24,0,.29.11s-.05.18-.11.26c-.18.24-.21.59-.5.77-.07,0-.13.12-.21.17-.56.4-1.07.14-1.44-.44a12.64,12.64,0,0,1-.87-1.9,1.7,1.7,0,0,1-.05-.8,2.22,2.22,0,0,0-.89-1.78,1.24,1.24,0,0,0-1.23.06.3.3,0,0,0-.08.41,1.78,1.78,0,0,1,.2.75.82.82,0,0,1-.22.83.17.17,0,0,0,0,.29.62.62,0,0,1,.22.56,2,2,0,0,0,.07.83c.12.3.28.58.65.63,0,0,.08,0,.12.05s.32.16.3.31-.22.15-.37.17a5.87,5.87,0,0,1-1.63,0,12.65,12.65,0,0,0-1.35.15c-.17,0-.35,0-.52,0a.23.23,0,0,1-.24-.13.28.28,0,0,1,0-.29,1.62,1.62,0,0,1,.39-.32,1,1,0,0,0,.58-1c0-.14,0-.27,0-.41,0-.84,0-1.69.07-2.53,0-.51-.1-1-.07-1.51s0-.83.07-1.24a12.6,12.6,0,0,0-.07-1.84.91.91,0,0,0-.53-1,.52.52,0,0,1-.33-.62c.05-.28.31-.26.54-.26Z"/><path class="a" d="M56.39,152.1c-.88-.09-1.68,0-2.49-.11a8.65,8.65,0,0,0-1.18.1,1.51,1.51,0,0,1-.49-.06c-.11,0-.22,0-.25-.17a.3.3,0,0,1,.17-.3c.19-.12.42-.19.53-.41a.65.65,0,0,0,.12-.27,10.81,10.81,0,0,0,.24-1.21,4.88,4.88,0,0,0,0-.86,1.41,1.41,0,0,1,0-.3q0-1.7,0-3.39a1.79,1.79,0,0,1,.13-.95.09.09,0,0,0,0-.07c-.23-.6,0-1.25-.21-1.84a1,1,0,0,0-.81-.78.3.3,0,0,1-.26-.36c0-.22.23-.29.42-.31a4.15,4.15,0,0,1,1.31.16,2.43,2.43,0,0,0,1.26,0,1.08,1.08,0,0,1,.55.06,5.27,5.27,0,0,0,1.31,0,3.07,3.07,0,0,1,2,.68c.31.21.54.49.82.73a1.23,1.23,0,0,1,.29.78,2.36,2.36,0,0,0,.13.78,1,1,0,0,1-.06.85,1,1,0,0,1-.63.56c-.33.12-.55.46-.92.56-.1,0-.12.22,0,.32s.55.4.82.62a1.66,1.66,0,0,1,.52.85,5.68,5.68,0,0,1,.31,1.68,3.09,3.09,0,0,1-.33,1.26.42.42,0,0,1-.1.16c-.65.42-1.19,1-2.07,1A8.25,8.25,0,0,0,56.39,152.1Z"/><path class="a" d="M129,152.16a1.68,1.68,0,0,1-.61-.13.37.37,0,0,1-.29-.42c0-.44-.37-.68-.65-.93a2,2,0,0,1-.6-.69,1.52,1.52,0,0,0-.37-.51l-1.16-1.16c-.13-.13-.26-.29-.2-.47s0-.36-.2-.45a2,2,0,0,1-.89-.85c-.22-.43-.65-.66-1-1a5.24,5.24,0,0,1-.7-1.11.2.2,0,0,1,0-.21c.13-.28-.12-.35-.28-.36a.34.34,0,0,0-.38.34c0,.2.13.36.13.54a6.53,6.53,0,0,1-.09,1.87.85.85,0,0,0,0,.23,9.23,9.23,0,0,0,0,1.91,8.92,8.92,0,0,0,.16,1.48c0,.09,0,.22.11.26.51.3.76.91,1.37,1.08.19.05.33.17.26.38a.33.33,0,0,1-.46.16,2.2,2.2,0,0,0-1.27-.06.68.68,0,0,1-.43,0,.73.73,0,0,0-.5,0,2.4,2.4,0,0,1-1-.13c-.21,0-.16-.25-.1-.39a.4.4,0,0,1,.19-.19c.75-.35.84-1.05.92-1.74a2.46,2.46,0,0,0-.06-1,1.31,1.31,0,0,1,.07-.63,14.1,14.1,0,0,0-.06-2.28,24.39,24.39,0,0,0,.13-2.51,1.94,1.94,0,0,0-.27-1,1.38,1.38,0,0,0-.54-.43,1,1,0,0,1-.29-.22.34.34,0,0,1,0-.38c.05-.1.19-.1.34-.08.51.06,1,.07,1.52.17a5.89,5.89,0,0,0,1,0c.37,0,.65.25.42.73a.62.62,0,0,0,.17.68,10.76,10.76,0,0,0,1.47,1.76s0,0,0,0c.16.69.84.93,1.23,1.42a8,8,0,0,1,1,1.37,1.08,1.08,0,0,0,.53.54.82.82,0,0,1,.48.57.65.65,0,0,0,.12.23c.11.13.23.28.42.15s.15-.26.07-.44a1.77,1.77,0,0,1,0-1.3,1.6,1.6,0,0,0,.06-1.19,1.43,1.43,0,0,1-.11-1,8.9,8.9,0,0,0-.1-2.3.7.7,0,0,0-.61-.72,1,1,0,0,1-.65-.36c-.15-.19-.08-.47.13-.44.66.09,1.31-.21,2,0a2.39,2.39,0,0,0,1,.21c.16,0,.22.16.21.25a.34.34,0,0,1-.26.35c-.29,0-.35.25-.47.44a7.46,7.46,0,0,0-.51,1.75.31.31,0,0,0,0,.19,3.63,3.63,0,0,1,0,1.65,1,1,0,0,0,0,.2c0,1.12,0,2.24,0,3.36,0,.5.15,1,.13,1.49a4.85,4.85,0,0,0,0,.81C129.55,152,129.39,152.16,129,152.16Z"/><path class="a" d="M141.54,152.36a2.15,2.15,0,0,1-1-.23,3.77,3.77,0,0,0-1.24-.31,2.32,2.32,0,0,1-.57-.14.51.51,0,0,1-.35-.47,3.37,3.37,0,0,1,0-1.09,2.14,2.14,0,0,0-.09-.75c-.08-.35,0-.54.36-.61s.56.17.55.42c0,.44.37.54.58.78s.42.28.58.51a2.47,2.47,0,0,0,1.63.82,3.25,3.25,0,0,0,1.7-.24c.45-.12.84-1.15.77-1.62a1.28,1.28,0,0,0-.8-1.07,9.52,9.52,0,0,0-1.57-.92.3.3,0,0,1-.19-.19c-.06-.39-.38-.39-.63-.38a2.24,2.24,0,0,1-.91-.12c-.36-.18-.92-.3-1.05-.64-.21-.55-.65-1.08-.54-1.69s-.11-1.14.27-1.61.65-1.2,1.27-1.53a5.2,5.2,0,0,1,1.29-.46,9.67,9.67,0,0,1,2.8-.06,4.37,4.37,0,0,1,1,.1c.45.14.73.45.59.89a.77.77,0,0,0,.1.72c.25.36.12.74.1,1.12,0,.2-.31.28-.48.15a1,1,0,0,1-.45-.64.56.56,0,0,0-.37-.45,3.63,3.63,0,0,1-.81-.58,1.4,1.4,0,0,0-1-.37,4.71,4.71,0,0,0-1.65.18,1.2,1.2,0,0,0-.91,1.14,2.21,2.21,0,0,0-.06.59c.1.49.57.59.86.87a3.58,3.58,0,0,0,1.28.65,3,3,0,0,1,.7.36,1.22,1.22,0,0,0,.85.3s.08,0,.1,0c.33.39.93.51,1.08,1.08a.46.46,0,0,0,.12.23,3.23,3.23,0,0,1,.81,1.66,2.16,2.16,0,0,1-.36,1.75,3.17,3.17,0,0,1-1.16,1.21,4.3,4.3,0,0,1-1.22.35C142.83,152.22,142.11,152.28,141.54,152.36Z"/><path class="a" d="M217.87,152.2a7.19,7.19,0,0,1-1,.07,4.56,4.56,0,0,1-2.85-.66,2.17,2.17,0,0,1-1-1.78,22,22,0,0,0-.22-2.93,4,4,0,0,1,0-1.37,1.82,1.82,0,0,0-.08-.59,3,3,0,0,1,.22-1.26,1.61,1.61,0,0,0-.07-.83,4.84,4.84,0,0,1-.23-.75c0-.16-.17-.21-.33-.26-.51-.15-.59-.28-.6-.66s.16-.37.35-.34c1,.13,1.95,0,2.92.11a4.53,4.53,0,0,0,1.15.15c.15,0,.3,0,.26.2s0,.46-.25.46a1,1,0,0,0-.85.28.2.2,0,0,1-.15.06c-.37-.06-.42.19-.37.44a1.9,1.9,0,0,1-.16,1.31s-.06.1,0,.12c.36.38.1.87.21,1.29.05.22-.09.39-.08.59s0,.62.06.94a3.58,3.58,0,0,1-.11,1.22,1.67,1.67,0,0,0,.06.59c.07.44,0,.93.34,1.29.58.64,1.12,1.33,2.14,1.35.65,0,1.28-.09,1.92-.11a1.56,1.56,0,0,0,1.24-1c.19-.37.41-.74.15-1.17a.31.31,0,0,1,0-.32,2.88,2.88,0,0,0,.22-2.36,3.21,3.21,0,0,1,0-1.52,1.17,1.17,0,0,0-.07-.66,4.07,4.07,0,0,1-.07-1.2.82.82,0,0,0-.37-.69,2.43,2.43,0,0,1-.36-.35.65.65,0,0,0-.38-.27.34.34,0,0,1-.3-.38.37.37,0,0,1,.41-.28,8.45,8.45,0,0,0,1.44,0l.06,0c.52.43,1.05,0,1.57,0,.25,0,.37,0,.46.22a.44.44,0,0,1-.12.58,5.12,5.12,0,0,0-.73.54,1.44,1.44,0,0,0-.43,1c.06.85-.3,1.65-.22,2.49a12,12,0,0,1,.13,1.63c0,1-.14,2-.28,3a.79.79,0,0,1-.23.43,5.44,5.44,0,0,1-2.43,1.46A3.52,3.52,0,0,1,217.87,152.2Z"/><path class="a" d="M223.61,150.6a3.73,3.73,0,0,0-.06-1.37.37.37,0,0,1,.37-.45c.26,0,.56.1.54.36a.87.87,0,0,0,.53.78,11.35,11.35,0,0,1,1,.95,1.46,1.46,0,0,0,.87.35,2.3,2.3,0,0,1,.59.09,1.06,1.06,0,0,0,.75,0,1.87,1.87,0,0,1,.6-.17c.23,0,.34-.2.47-.37a2.47,2.47,0,0,0,.48-.74c0-.11.07-.25,0-.32a2,2,0,0,1-.17-.77.38.38,0,0,0-.33-.35,1.11,1.11,0,0,1-.59-.33,2.92,2.92,0,0,0-1.23-.75c-.13-.05-.26-.13-.28-.22-.09-.41-.43-.41-.7-.38a1.72,1.72,0,0,1-.81-.12c-.4-.18-1-.3-1.13-.69a7.58,7.58,0,0,1-.46-1.21,1.36,1.36,0,0,1,0-.81.56.56,0,0,0,0-.3,1.39,1.39,0,0,1,.39-1.18,2.32,2.32,0,0,0,.35-.51,2,2,0,0,1,1-.89,5.24,5.24,0,0,1,2.18-.46,10.46,10.46,0,0,1,1.8.11,7.77,7.77,0,0,1,.86.07.75.75,0,0,1,.57.92.65.65,0,0,0,.08.65c.29.36.14.78.12,1.17,0,.17-.31.26-.47.14a1,1,0,0,1-.45-.64.59.59,0,0,0-.38-.48,3.11,3.11,0,0,1-.78-.56,1.44,1.44,0,0,0-.89-.38,4.32,4.32,0,0,0-1.94.23,1.19,1.19,0,0,0-.7,1c0,.13,0,.26-.06.39a.63.63,0,0,0,.19.63,7.91,7.91,0,0,0,1.21.86,9.46,9.46,0,0,1,1.82.88s.1.07.15.07a1.35,1.35,0,0,1,1.24.71,4,4,0,0,1,1,1.7,2,2,0,0,0,.15.4,2.1,2.1,0,0,1-.25,1.79,3.07,3.07,0,0,1-1.21,1.33,4.17,4.17,0,0,1-1.22.36c-.71.16-1.44.21-2.16.31a1.05,1.05,0,0,1-.59-.08,7.38,7.38,0,0,0-1.76-.5C223.7,151.64,223.61,151.48,223.61,150.6Z"/><path class="a" d="M240.45,142.57c0,.49-.11.62-.44.55s-.3-.26-.37-.43a.76.76,0,0,0-.48-.49,5.13,5.13,0,0,1-.63-.34,1.18,1.18,0,0,0-1.05-.08.38.38,0,0,1-.42-.05,1.2,1.2,0,0,0-.88-.23.47.47,0,0,0-.44.67,1.47,1.47,0,0,1-.08,1.41.64.64,0,0,0,.05.58,1.16,1.16,0,0,1,0,.86.68.68,0,0,0,.11.72.82.82,0,0,0,.82.06,1.47,1.47,0,0,0,1-.85c.1-.29.35-.21.51-.16s.16.23.16.43c0,.5-.26,1,0,1.49a2.31,2.31,0,0,1,0,.91.36.36,0,0,1-.54.23c-.1-.07-.23-.16-.25-.27-.08-.39-.36-.48-.69-.54a.83.83,0,0,1-.46-.24.59.59,0,0,0-.31-.18c-.2,0-.42-.11-.6.08s0,.31.08.45a1.3,1.3,0,0,1,0,1,1.32,1.32,0,0,0,0,.91,1.15,1.15,0,0,1,0,.65,1.39,1.39,0,0,0,.63,1.61,1.3,1.3,0,0,0,.92,0,6,6,0,0,1,.83-.18,1.34,1.34,0,0,0,1.06-1,1.29,1.29,0,0,1,.39-.67.42.42,0,0,1,.45-.1c.2.08.2.22.18.38a1.44,1.44,0,0,1-.12.74c-.1.17,0,.4.08.61.15.47-.14,1-.63,1a5.24,5.24,0,0,1-.69-.07,5.66,5.66,0,0,0-1.93,0,1.58,1.58,0,0,1-.48,0,7.67,7.67,0,0,0-2.17,0,9.55,9.55,0,0,1-1.61-.07c-.18,0-.18-.2-.14-.34a.44.44,0,0,1,.28-.32,1.32,1.32,0,0,0,1-1.5c0-.48,0-.95,0-1.43s0-.77,0-1.15a5.79,5.79,0,0,0,0-1.33,2.72,2.72,0,0,1,.29-1.89c.19-.34-.09-.68-.08-1l0,0c.08-.81-.53-1.13-1.07-1.5a.34.34,0,0,1-.18-.36c0-.15.13-.19.26-.26s.52,0,.78,0a1.68,1.68,0,0,1,.71.14,1,1,0,0,0,.84,0,1.12,1.12,0,0,1,.36-.05,8.51,8.51,0,0,0,1.33-.11,2,2,0,0,1,.92.06,4.29,4.29,0,0,0,1.49.12,1.51,1.51,0,0,1,.75.2.6.6,0,0,1,.36.58C240.35,142.08,240.5,142.33,240.45,142.57Z"/><path class="a" d="M162.71,145.38a1.09,1.09,0,0,1-.1.6.42.42,0,0,0,0,.36,3,3,0,0,1,.12,1.12.36.36,0,0,1-.22.4.31.31,0,0,1-.44-.13,1.57,1.57,0,0,0-1.09-.81c-.29-.1-.53-.35-.87-.33s-.41.14-.26.4a1.63,1.63,0,0,1,0,1.47,1.1,1.1,0,0,0,.05.66,1.33,1.33,0,0,1,0,.61,1.31,1.31,0,0,0,.66,1.62,1.07,1.07,0,0,0,.76,0c.38-.11.77-.15,1.15-.26a1.31,1.31,0,0,0,.82-.87c.14-.32.17-.71.59-.85s.48,0,.49.28a1.13,1.13,0,0,1-.12.77c-.15.2,0,.44.07.65a.89.89,0,0,1-.24.9.56.56,0,0,1-.49.12,6.79,6.79,0,0,0-2.13-.07,3.94,3.94,0,0,1-1.14,0,6.6,6.6,0,0,0-1.82,0,3.75,3.75,0,0,1-1,0l-.46,0c-.16,0-.36,0-.39-.2a.39.39,0,0,1,.29-.46,1.7,1.7,0,0,0,.72-.46.75.75,0,0,0,.21-.47,12.06,12.06,0,0,0,.07-1.78,7.58,7.58,0,0,0,0-1.36.57.57,0,0,1,.16-.59c.12-.11,0-.29,0-.43s-.13-.12-.12-.23a4.68,4.68,0,0,1,.32-2c.17-.28,0-.6-.07-.88s-.07-.46-.1-.68a.7.7,0,0,0-.29-.46,5,5,0,0,0-.72-.51c-.18-.1-.17-.24-.15-.39s.1-.19.26-.23a2.71,2.71,0,0,1,1.32.15,1.51,1.51,0,0,0,1,0,.8.8,0,0,1,.36-.06,8.51,8.51,0,0,0,1.33-.11,2,2,0,0,1,.92.06,4.76,4.76,0,0,0,1.49.12,1.52,1.52,0,0,1,.81.24.66.66,0,0,1,.3.45c.06.35.05.71.08,1.07a.28.28,0,0,1-.18.33.37.37,0,0,1-.44-.08c0-.05-.12-.1-.13-.15-.17-.75-.89-.8-1.4-1.1a.91.91,0,0,0-.83,0,.36.36,0,0,1-.42-.05,1,1,0,0,0-.64-.22c-.62,0-.86.19-.65.81a1.39,1.39,0,0,1-.09,1.19.5.5,0,0,0,0,.52,1.5,1.5,0,0,1,.07,1c0,.24-.14.56.16.74a.83.83,0,0,0,.71,0c.43-.14.88-.27,1-.77a.42.42,0,0,1,.57-.27c.26.06.11.3.15.46A.88.88,0,0,1,162.71,145.38Z"/><path class="a" d="M81.18,142.65a9.05,9.05,0,0,0,0-1.23c-.07-.34.15-.67.64-.46a1.67,1.67,0,0,0,.76.08c1.27,0,2.54-.06,3.8,0,.45,0,.93-.19,1.35.11a2,2,0,0,1,1-.13c.23,0,.51,0,.59.23a.78.78,0,0,1-.19.75,5.31,5.31,0,0,0-1.1,1.67.71.71,0,0,1-.22.25.77.77,0,0,0-.28.44,1.09,1.09,0,0,1-.46.72.43.43,0,0,0-.14.53c.09.32-.15.58-.33.82-.31.42-.62.83-.94,1.24,0,0,0,.09-.07.11-.23.15-.35.26,0,.48.14.1,0,.35-.15.45a1.28,1.28,0,0,0-.57.81c0,.07-.05.17-.11.2-.45.24-.6.73-.93,1.07-.08.08-.18.17-.08.28s.26.35.42.24a1.61,1.61,0,0,1,1-.14c.6,0,1.2-.07,1.8,0a1.15,1.15,0,0,0,.33,0c.54-.12.78-.55,1.06-.94a3.66,3.66,0,0,1,.28-.4c.2-.21.39-.14.48.12a1.47,1.47,0,0,1,0,.61c0,.4.09.8.08,1.21s-.11.41-.4.4a2.4,2.4,0,0,1-.7-.07,1.58,1.58,0,0,0-1.07,0,.65.65,0,0,1-.46,0,1.87,1.87,0,0,0-1.34,0,3.13,3.13,0,0,1-1.32,0,6.46,6.46,0,0,0-1.8,0l-.63,0a.4.4,0,0,1-.42-.5c.06-.24.11-.5.39-.61a.8.8,0,0,0,.47-.7.57.57,0,0,1,.2-.37,1.11,1.11,0,0,0,.25-.41,4,4,0,0,1,.83-1.18,1.54,1.54,0,0,0,.4-.6,13.87,13.87,0,0,1,.66-1.49,3,3,0,0,1,.74-1c.19-.18.17-.47.29-.69.33-.62.66-1.23,1-1.84a.71.71,0,0,1,.22-.25c.26-.17.15-.36,0-.53s-.29-.19-.48-.06a1.77,1.77,0,0,1-1.27.14,4.15,4.15,0,0,0-1.36.12s-.09,0-.13,0c-.53-.18-.81.11-1.09.5-.15.21-.42.29-.52.58s-.29.16-.43-.05S81.19,142.83,81.18,142.65Z"/><path class="a" d="M153.56,152.09a4.61,4.61,0,0,1-.46-.06,12.76,12.76,0,0,0-2.92.11c-.18,0-.38.07-.47-.18s0-.39.19-.49a1.92,1.92,0,0,0,.19-.13,1.05,1.05,0,0,0,.55-1.31.49.49,0,0,1,0-.17c.11-1.06-.11-2.11-.08-3.17a13.23,13.23,0,0,0,.08-1.61,4,4,0,0,1-.13-1.29,2.46,2.46,0,0,0-.13-1.32.82.82,0,0,0-1.17-.52,3.83,3.83,0,0,1-.5.17.81.81,0,0,0-.53.5,2.67,2.67,0,0,1-.67.76c-.1.1-.24,0-.34,0A.27.27,0,0,1,147,143a2.16,2.16,0,0,0-.06-1.6c-.15-.34.14-.65.56-.58a1.31,1.31,0,0,1,.71.24.39.39,0,0,0,.44.07,3,3,0,0,1,2.19.06A1.78,1.78,0,0,0,152,141c.06,0,.1-.09.17-.08.71,0,1.44-.25,2.12.17.18.11.34,0,.51-.06s.49-.14.73-.17.43-.11.54.07a.71.71,0,0,1,0,.61,2,2,0,0,1-.13.33,1.68,1.68,0,0,0-.22,1.12c0,.25-.1.36-.3.36a.35.35,0,0,1-.4-.34,1,1,0,0,0-.3-.81c-.31-.23-.57-.54-1-.41a1,1,0,0,1-.62-.08c-.37-.13-.48,0-.56.35a9.27,9.27,0,0,0,0,1.92c0,.24-.12.46-.12.7a3.81,3.81,0,0,0,.09,1,2,2,0,0,1,0,1,.84.84,0,0,0,0,.68.61.61,0,0,1,0,.29c0,.32.08.65.09.95a3.55,3.55,0,0,1,.05,1.18,1.32,1.32,0,0,0,.78,1.56l.12.05c.2.1.42.22.37.49S153.73,152.08,153.56,152.09Z"/><path class="a" d="M98.37,145.26c.36.13.41.31.34.68a2.86,2.86,0,0,0,.06,2,1.49,1.49,0,0,1,0,1.32,1.22,1.22,0,0,0,.3,1.4c.21.23.54.19.82.27a6.79,6.79,0,0,0,1.92.08.81.81,0,0,0,.86-.52c.08-.26.22-.49.3-.76a.44.44,0,0,1,.59-.29.28.28,0,0,1,.2.31,4.09,4.09,0,0,0,0,1.59c.06.46-.15.69-.62.69-.63,0-1.27,0-1.9,0s-1.21,0-1.82,0a2.18,2.18,0,0,1-.95-.13,1.14,1.14,0,0,0-.74,0,.41.41,0,0,1-.16,0c-.52,0-1,.08-1.55.07a1,1,0,0,1-.36-.06c-.31-.13-.36-.28-.13-.51a.76.76,0,0,1,.26-.2,1.33,1.33,0,0,0,.76-1.44,1.55,1.55,0,0,1,.12-.74c.13-.26-.07-.54-.17-.79a1.66,1.66,0,0,1-.05-1,2.08,2.08,0,0,0,.05-1.31,1,1,0,0,1,.06-.88,2.37,2.37,0,0,0,.09-1.42,8.56,8.56,0,0,1,0-.94.89.89,0,0,0-.56-1,.73.73,0,0,1-.45-.53c0-.2,0-.36.28-.37.55,0,1.07.17,1.63.17a1.73,1.73,0,0,0,.53-.07,1.53,1.53,0,0,1,1,0,.47.47,0,0,0,.29,0,.4.4,0,0,1,.47.15c.1.17-.1.26-.2.35s-.26.16-.38.26a1.82,1.82,0,0,0-.55,1.22,4.37,4.37,0,0,0,0,.95A2.4,2.4,0,0,1,98.37,145.26Z"/><path class="a" d="M78.89,152.09c-.48,0-1-.07-1.59,0l-.63.07a.26.26,0,0,1-.3-.2c0-.16.09-.23.23-.27.33-.09.65-.16.73-.59a1.28,1.28,0,0,0-.11-.72,1.58,1.58,0,0,1-.19-.69s0-.11,0-.13c-.36-.32-.34-.82-.59-1.19a.79.79,0,0,1-.15-.43.78.78,0,0,0-.75-.73,12.66,12.66,0,0,0-1.68.08.61.61,0,0,0-.59.41,20.88,20.88,0,0,1-.81,2.09,3.77,3.77,0,0,0-.16.53.77.77,0,0,0,.42.83.67.67,0,0,1,.38.73.23.23,0,0,1-.26.23c-.8,0-1.6,0-2.39-.08a2.31,2.31,0,0,1-.4-.13c-.12,0-.26,0-.27-.22s0-.33.23-.4.27-.13.41-.19c.62-.26.81-.87,1.14-1.38.2-.3.31-.66.67-.86s.12-.49.19-.75a4.14,4.14,0,0,1,.64-1.36,1.31,1.31,0,0,0,.22-.64c0-.45.41-.74.51-1.16a18.35,18.35,0,0,1,1-2.53,3.2,3.2,0,0,0,.11-1.19.54.54,0,0,1,.23-.47c.29-.2.65-.06.64.28a3.08,3.08,0,0,0,.47,1.49,1.7,1.7,0,0,1,.18.73c0,.38.27.66.36,1a9,9,0,0,0,.4,1.45,1.66,1.66,0,0,1,.16.9.45.45,0,0,0,.08.28,13,13,0,0,1,1.09,2.62c.09.27.08.55.37.72a.43.43,0,0,1,.15.29.92.92,0,0,0,.7.82c.2.06.38.2.32.44a.43.43,0,0,1-.48.33Z"/><path class="a" d="M174,152.09c-.5,0-1.07-.07-1.63,0l-.63.07a.27.27,0,0,1-.3-.24c0-.18.12-.19.22-.23.78-.27.95-.66.59-1.42a1,1,0,0,1-.14-.57s0-.11,0-.13c-.37-.3-.35-.79-.57-1.16a1,1,0,0,1-.17-.49.85.85,0,0,0-.75-.71,15.59,15.59,0,0,0-1.68.07.8.8,0,0,0-.68.63c-.11.49-.37.93-.52,1.41-.09.29-.25.55-.32.86a.76.76,0,0,0,.36,1c.26.18.49.37.41.73,0,.13-.08.23-.26.23a22.41,22.41,0,0,1-2.39-.08,3.16,3.16,0,0,1-.57-.15c-.12,0-.1-.16-.11-.26a.3.3,0,0,1,.22-.34c.2-.08.38-.23.57-.32a1.63,1.63,0,0,0,.72-.79A9.19,9.19,0,0,1,167,149c.14-.19.4-.28.4-.57a2.32,2.32,0,0,1,.39-1.27c.32-.48.4-1.07.67-1.54.42-.73.58-1.54,1-2.28a3.37,3.37,0,0,0,.56-2.16.43.43,0,0,1,.27-.51c.3-.12.59,0,.57.26,0,.72.45,1.26.58,1.91s.49,1.21.58,1.82.53,1.27.45,2c0,.25.22.44.31.67.24.6.55,1.17.73,1.78a3,3,0,0,0,.55,1.24c.17.2.14.56.4.77s.34.13.5.25a.36.36,0,0,1,.18.36.35.35,0,0,1-.35.32C174.51,152.1,174.27,152.09,174,152.09Z"/><path class="a" d="M117.88,152.09c-.5,0-1.05,0-1.61,0a5.32,5.32,0,0,1-.63.08.3.3,0,0,1-.32-.23c0-.19.11-.21.24-.25l.09,0c.6-.19.82-.52.58-1.1a12.73,12.73,0,0,0-.54-1.49,2.75,2.75,0,0,1-.45-1.24c0-.27-.46-.61-.74-.63a12.2,12.2,0,0,0-1.71.08.74.74,0,0,0-.66.61,12.46,12.46,0,0,1-.59,1.55,6.89,6.89,0,0,0-.29.83.75.75,0,0,0,.38.86,2.37,2.37,0,0,1,.33.28c.17.15.11.35.07.53s-.22.15-.35.14a20.06,20.06,0,0,1-2.22-.06c-.21,0-.39-.14-.61-.15s-.11-.14-.12-.25a.31.31,0,0,1,.2-.35c.22-.08.4-.24.6-.33a1.35,1.35,0,0,0,.66-.71c.17-.37.41-.7.61-1.05,0-.08.08-.2.21-.24s.28-.28.3-.49a3.08,3.08,0,0,1,.67-1.69,1.71,1.71,0,0,0,.28-.83c.05-.33.32-.54.41-.84a7.64,7.64,0,0,1,.55-1.43c.22-.4.31-.86.54-1.25a2.53,2.53,0,0,0,.13-1.25c0-.34.16-.47.49-.49s.37.08.36.28c-.05.7.42,1.24.57,1.87s.49,1.23.58,1.85.53,1.27.46,2c0,.26.21.44.31.68.23.6.5,1.19.75,1.78a.81.81,0,0,1,.09.31.7.7,0,0,0,.31.71.7.7,0,0,1,.24.49.79.79,0,0,0,.56.64c.39.16.48.29.4.57s-.21.24-.38.25Z"/><path class="a" d="M39.29,149.93c-.16,0-.25-.21-.41-.35-.4-.35-.71-.77-1.13-1.1-.16-.13-.31-.31-.47-.46-.8-.78-1.58-1.58-2.4-2.33s-1.39-1.41-2.17-2c-.11-.09-.13-.2,0-.27a4.6,4.6,0,0,0,.81-.5c.2-.14.42-.2.59-.33s.4-.08.56,0c.75.48,1.48,1,2.22,1.45.5.33,1,.69,1.52,1,1.1.57,2,1.4,3.09,2a4.46,4.46,0,0,0,.79.41c.26.09.14.14,0,.25s-.44.4-.64.62a.74.74,0,0,1-1.08,0,15.34,15.34,0,0,1-1.37-1.12c-.4-.42-.92-.61-1.32-1s-.35.09-.5.17,0,.18.1.24c.44.4.92.75,1.33,1.17s.94.81,1.4,1.23a.2.2,0,0,1,0,.34A1.51,1.51,0,0,1,39.29,149.93Z"/><path class="a" d="M107.41,144.36a9.77,9.77,0,0,0-.09,2.21c0,.4,0,.8.06,1.21a1.14,1.14,0,0,1-.09.62c-.06.1,0,.18,0,.28a3.86,3.86,0,0,1,.06,1.46,1.61,1.61,0,0,0,.35,1.09c.07.12.13.26.27.33s.27.14.2.29a.41.41,0,0,1-.36.26,4.68,4.68,0,0,1-1.07-.09,3,3,0,0,0-.67,0c-.45,0-.94.2-1.32-.24-.13-.15-.14-.24,0-.4a2.16,2.16,0,0,0,.84-1.2c0-.17-.07-.29,0-.44a9.3,9.3,0,0,0,.06-1.88,5.37,5.37,0,0,0-.13-1.45,2,2,0,0,1,0-1.34,1.3,1.3,0,0,0,0-1,1.43,1.43,0,0,1,0-.77,1.32,1.32,0,0,0-.81-1.51.42.42,0,0,1-.27-.48c0-.21.13-.26.32-.31a4.26,4.26,0,0,1,1.61.08.64.64,0,0,0,.4,0,.7.7,0,0,1,.64,0,.46.46,0,0,0,.36,0,.39.39,0,0,1,.51.18c.11.16,0,.33-.12.44a3.69,3.69,0,0,1-.6.52.78.78,0,0,0-.26.68A6.5,6.5,0,0,0,107.41,144.36Z"/><path class="a" d="M93.62,152.09a3.15,3.15,0,0,1-.92-.12.76.76,0,0,0-.41.07,4,4,0,0,1-1,0c-.26,0-.35-.26-.47-.43s.13-.22.22-.32a2.94,2.94,0,0,0,.58-.72.91.91,0,0,0,.12-.78c-.09-.23,0-.48.08-.72a.77.77,0,0,0,0-.44,1.31,1.31,0,0,1,0-.74,8.38,8.38,0,0,0-.16-1.93,2.08,2.08,0,0,1,.08-.87,1.59,1.59,0,0,0-.06-1.19.68.68,0,0,1,0-.49,1.51,1.51,0,0,0-.14-1.18,1,1,0,0,0-.64-.49c-.2-.06-.24-.18-.26-.37a.33.33,0,0,1,.25-.37,2.85,2.85,0,0,1,1.42,0A1.12,1.12,0,0,0,93,141a.61.61,0,0,1,.43,0,1.13,1.13,0,0,0,.61,0c.13,0,.27.08.36.19a.27.27,0,0,1,0,.34,2,2,0,0,1-.51.53.9.9,0,0,0-.43.87,7.12,7.12,0,0,0,.12,1.69.26.26,0,0,1,0,.13,6,6,0,0,0-.07,2.18,3.07,3.07,0,0,1-.07,1.49.22.22,0,0,0,0,.18,4.44,4.44,0,0,1,.11,1.47,1.55,1.55,0,0,0,.72,1.56.16.16,0,0,1,.08.22c0,.11-.06.28-.25.27Z"/><path class="a" d="M38.44,150.56a1.48,1.48,0,0,0-.78.28.63.63,0,0,1-.81-.13c-.78-.74-1.37-1.65-2.12-2.41a.21.21,0,0,1,0-.33c-.33.17-.62.3-.49.65a2.37,2.37,0,0,0,.45.57c.56.68,1.08,1.39,1.58,2.12.06.09.09.11,0,.19-.35.21-.8.17-1.12.44a.41.41,0,0,1-.3-.18c-1.35-2.11-2.71-4.22-4.07-6.33l-.45-.72c-.09-.15-.15-.31.13-.29s.25-.11.34-.18.31-.09.43.07c.54.77,1,1.58,1.64,2.31a5.73,5.73,0,0,1,.57.85.21.21,0,0,0,.31.09c.15-.07.13-.18.11-.27a1.47,1.47,0,0,0-.34-.62q-.94-1.15-1.86-2.33c-.21-.26-.14-.38.17-.48a.8.8,0,0,1,.91.27c.95,1,2,1.93,2.87,3,.7.82,1.45,1.59,2.15,2.41A8.23,8.23,0,0,1,38.44,150.56Z"/><path class="a" d="M18.72,143.27c0,.13,0,.21-.14.31a18.27,18.27,0,0,1-2.43,2.09,3.56,3.56,0,0,0-.36.36,12.6,12.6,0,0,1-1.69,1.39c-.38.27-.67.66-1,1a10,10,0,0,1-.8.65c-.1.07-.17.19-.27.26s-.13.52-.48.31c-.19-.11-.42-.13-.57-.32a.84.84,0,0,0-.34-.26,3.33,3.33,0,0,1-.82-.56,2.45,2.45,0,0,1-.85-1.22.31.31,0,0,1,.19-.36,5.65,5.65,0,0,1,.89-.56,14.54,14.54,0,0,0,1.51-.88c.6-.3,1.17-.66,1.78-.95a7.52,7.52,0,0,0,1.29-.77c.45-.33.95-.59,1.42-.88a7.33,7.33,0,0,1,1.09-.54.4.4,0,0,1,.46.11,4.7,4.7,0,0,0,1,.68C18.69,143.12,18.72,143.16,18.72,143.27Z"/><path class="a" d="M19.18,147.08c-.36,0-.49-.37-.78-.38a1.39,1.39,0,0,1,.11-.2l1.29-1.64c.08-.1.22-.21.05-.36s-.31-.09-.42.07a10.16,10.16,0,0,1-1.22,1.18c-.33.32-.6.72-.94,1-.08.08,0,.1,0,.16a5.52,5.52,0,0,0,1.24.67c.25.12.27.27.12.46-.58.75-1.12,1.52-1.74,2.23-.28.32-.54.65-.78,1s-.44.43-.86.2-.71-.33-1.07-.5a8.28,8.28,0,0,0-1.55-.76c-.14,0-.12-.23,0-.32.73-.59,1.28-1.37,2-2a5.84,5.84,0,0,0,1.3-1.37c.18-.32.59-.35.84-.62a10,10,0,0,1,1.75-1.62,4.47,4.47,0,0,0,.66-.54.62.62,0,0,1,1,0c.21.2.49.23.73.37s.29.28.12.54c-.34.5-.74,1-1.11,1.44a5,5,0,0,0-.52.8C19.33,147,19.26,147.11,19.18,147.08Z"/><path class="a" d="M28.59,144.7a3,3,0,0,0,1.07-.08c.12,0,.26,0,.33.1a10.64,10.64,0,0,1,.53,1c.06.14.17.22.24.35.32.67.66,1.33,1,2,.05.1.11.18-.06.24a2.15,2.15,0,0,0-.71.35c-.09.07-.14,0-.18-.12a14.49,14.49,0,0,1-.88-1.86,3.72,3.72,0,0,0-.46-.94c-.08-.1-.1-.28-.27-.2s0,.23,0,.32c.57,1.58,1,3.2,1.56,4.79a4.08,4.08,0,0,1,.32.88c0,.15.09.29.22.21s.51.08.54-.3a1.21,1.21,0,0,0-.25-.77,7.36,7.36,0,0,1-.48-1.11c-.06-.13,0-.21.13-.25l.1,0c.25-.1.48-.37.74-.3s.3.4.47.6A8.38,8.38,0,0,1,33.88,152c.1.25,0,.37-.23.46-.75.27-1.5.52-2.27.72-.42.11-.79-.08-1.19,0-.1,0-.12-.1-.14-.19-.25-.81-.53-1.61-.79-2.42a17.24,17.24,0,0,1-.58-2.48,9,9,0,0,1-.29-1.56c0-.19.12-.42,0-.64a2.79,2.79,0,0,1-.23-.68C28,144.86,28,144.64,28.59,144.7Z"/><path class="a" d="M43.18,146.79a.52.52,0,0,1-.29-.09c-.42-.23-.84-.47-1.27-.68-.75-.37-1.46-.83-2.21-1.21s-1.51-.8-2.25-1.22-1.38-.75-2-1.2c-.18-.12-.14-.25,0-.34a7.58,7.58,0,0,0,1-1.06.54.54,0,0,1,.57-.17c.52.17,1,.35,1.55.51,1,.31,2,.78,3,1a5,5,0,0,1,.84.35,7.54,7.54,0,0,0,1.06.3c.34.09.65.23,1,.35a3.59,3.59,0,0,0,.93.3c.16,0,.2.16.26.28s.09.22,0,.33c-.38.42-.69.9-1.08,1.31s-.46.72-.73,1.05C43.41,146.74,43.34,146.8,43.18,146.79Z"/><path class="a" d="M20.15,153.18a5.39,5.39,0,0,1-1.27-.3c-.4-.14-.8-.29-1.19-.46A4.12,4.12,0,0,1,17,152c-.18-.13-.24-.25,0-.46a1.47,1.47,0,0,0,.6-1c0-.14.15-.14.21-.23.85-1.13,1.59-2.34,2.36-3.52a2.43,2.43,0,0,1,.31-.35.42.42,0,0,0,.17-.38.21.21,0,0,1,0-.16c.47-.41.68-1,1.14-1.43.17-.15.26-.18.44,0a1,1,0,0,0,.72.28c.46,0,.51.13.4.59-.22.88-.56,1.71-.86,2.56s-.71,1.56-.92,2.39-.74,1.77-1,2.68C20.45,153.17,20.32,153.2,20.15,153.18Z"/><path class="a" d="M211,110a2.73,2.73,0,0,1,.45-1.16,3.74,3.74,0,0,1,.92-1.27c.55-.49,1-.25,1.54,0a2.15,2.15,0,0,1,.76.7,2,2,0,0,0,.76.55c.22.11.41-.1.57-.25a8.11,8.11,0,0,1,1-1c.21-.15.33-.15.43.09s.18.53-.1.76a.51.51,0,0,0-.11.3.68.68,0,0,1-.34.57.48.48,0,0,0-.21.25,2.43,2.43,0,0,1-.88.87.54.54,0,0,1-.6-.07c-.26-.18-.5-.38-.78-.54a1.29,1.29,0,0,1-.59-.6.67.67,0,0,0-1.24-.09,5.68,5.68,0,0,0-.58.88.69.69,0,0,1-.63.36C211.1,110.39,210.91,110.23,211,110Z"/><path class="c" d="M25.38,112.36a13.06,13.06,0,0,0,.06,1.46,6.54,6.54,0,0,0,.13,1.49,3.12,3.12,0,0,1-.08,1.07,6.73,6.73,0,0,0,0,2.1c.08.41-.07.61-.5.68a9.24,9.24,0,0,0-2,.58,1.32,1.32,0,0,0-.52.44c-.14.19-.27.07-.37.05s0-.16,0-.24c.08-.27-.15-.4-.26-.58a1.71,1.71,0,0,1-.48-1.09.16.16,0,0,0-.07-.14,1.94,1.94,0,0,1-.54-.89c0-.1,0-.24-.22-.24s-.12-.08-.11-.11c.12-.53-.39-.76-.57-1.14a.62.62,0,0,1,0-.62,5.78,5.78,0,0,0,.5-1.14c.16-.67.71-.68,1.19-.87.31-.13.64-.19,1-.3a9.1,9.1,0,0,1,1.62-.31A8.39,8.39,0,0,0,25.38,112.36Z"/><path class="c" d="M26.33,112.42a8.6,8.6,0,0,1,1.41.18c1,.07,1.87.46,2.82.6a.83.83,0,0,1,.66.53c.22.52.49,1,.73,1.54.06.13.16.27-.05.36l-.06,0c.12.45-.31.54-.48.8s-.29.68-.53,1a1.17,1.17,0,0,1-.32.32.49.49,0,0,0-.27.33c0,.38-.38.58-.54.89s-.39.6-.58.9c-.06.11-.1.14-.19.09-.55-.29-1.18-.4-1.74-.66a1.23,1.23,0,0,0-.6-.13c-.22,0-.35-.07-.33-.33,0-.66-.18-1.31-.12-2s0-1.41.07-2.12c0-.38-.09-.75-.08-1.14a7.31,7.31,0,0,0,.08-1C26.17,112.41,26.32,112.43,26.33,112.42Z"/><path class="c" d="M32.19,127.27c.23-.16.47,0,.72,0,1.13,0,2.26,0,3.39,0,.19,0,.38-.15.56,0l.06,0c.46-.39.35.14.43.28.53,1,.81,2.16,1.4,3.16a5.74,5.74,0,0,1,.32.68c.24.55-.1,1-.3,1.46,0,.1-.12,0-.16,0-.35-.29-.81-.36-1.16-.64a.15.15,0,0,0-.19,0c-.15.09-.23.09-.23-.12s-.09-.15-.2-.18a4.1,4.1,0,0,1-1.1-.58,1.86,1.86,0,0,0-1.12-.51.11.11,0,0,1-.08,0,2.14,2.14,0,0,0-1.33-.63.9.9,0,0,1-.71-.82A7.18,7.18,0,0,0,32.19,127.27Z"/><path class="c" d="M34.79,122a.49.49,0,0,0-.5.2c-.12.14-.31.15-.48.2s-.14,0-.18.06c-.24.32-.67.25-1,.46s-.66.38-1,.61-.22.11-.27-.08-.2-.55-.29-.83a2.67,2.67,0,0,0-.33-.56c-.3-.48-.7-.88-1-1.34a.29.29,0,0,1,0-.4c.57-.84,1.07-1.73,1.59-2.6a9,9,0,0,1,1.09-1.63C33.14,118.09,34.1,120,34.79,122Z"/><path class="c" d="M33.27,114.62a1.82,1.82,0,0,1,.23.12,7,7,0,0,1,1.73,1.2c.45.58,1.1,1,1.55,1.51a6,6,0,0,1,1.32,2,1.6,1.6,0,0,0,.26.53c.22.28.07.39-.17.5a5,5,0,0,0-1.21.55c-.17.14-.51.06-.53.41,0,0,0,.08-.06,0-.29-.25-.48,0-.69.15s-.29,0-.35-.16c-.32-.86-.81-1.64-1.06-2.53a3.09,3.09,0,0,0-.29-.55c-.45-.9-.72-1.88-1.23-2.75,0-.07-.08-.15,0-.21a2.21,2.21,0,0,0,.32-.71A.17.17,0,0,1,33.27,114.62Z"/><path class="c" d="M19.3,116.27a26.53,26.53,0,0,0,1.63,2.86,8.79,8.79,0,0,1,.77,1.37c0,.11.07.17-.06.28s-.3.5-.51.59c-.4.17-.44.52-.6.83a8,8,0,0,0-.32,1.2c-.08.24-.09.39-.47.23s-.63-.52-1.07-.32c-.07,0-.08,0-.09-.1,0-.25-.22-.31-.41-.36a1.84,1.84,0,0,1-1.13-.67c0-.07-.08-.08,0-.17.47-1.21.9-2.43,1.45-3.61A16,16,0,0,1,19.3,116.27Z"/><path class="c" d="M16.33,121.86a1.07,1.07,0,0,1-.24-.14.33.33,0,0,0-.3-.12c-.16,0-.26,0-.3-.2s-.26-.13-.4-.19a5.17,5.17,0,0,0-1.23-.43c-.3-.06-.44-.36-.69-.5-.06,0,0-.13,0-.2a20.91,20.91,0,0,1,2.1-2.68,9.41,9.41,0,0,0,.76-.71c.19-.23.42-.43.6-.67a3.09,3.09,0,0,1,1.25-.91.76.76,0,0,0,.31-.18c.18-.21.29-.21.34.08a.48.48,0,0,0,.07.22c.37.46.19.88-.07,1.31-.47.77-.63,1.67-1,2.47s-.76,1.82-1.14,2.73A.88.88,0,0,1,16.33,121.86Z"/><path class="c" d="M15.62,127.1a3.1,3.1,0,0,1,.81.05.19.19,0,0,0,.12,0,.58.58,0,0,1,.89.34,13.45,13.45,0,0,1,.65,2.5c0,.12,0,.17-.13.18s-.15.21-.21.33c-.11-.08-.22-.18-.36-.1s-.36.21-.53.32a1.14,1.14,0,0,1-.68.2c-.07,0-.14,0-.18.06a.83.83,0,0,1-.61.28s-.09,0-.1,0c-.17.34-.57.25-.84.43a7.4,7.4,0,0,0-.84.55c-.25.22-.6.14-.9.25-.1,0-.12-.22-.07-.34a4.16,4.16,0,0,1,.32-.71,6.37,6.37,0,0,0,.69-1.65,6.18,6.18,0,0,1,.46-1c.22-.44.26-.94.5-1.38.1-.18.18-.3.42-.27A4.45,4.45,0,0,0,15.62,127.1Z"/><path class="c" d="M11.59,125.49A14.7,14.7,0,0,1,12,123a7,7,0,0,1,.25-1.22c.12-.31.39-.5.53-.79.05-.11.15,0,.19,0,.86.53,1.79.93,2.7,1.38.29.14.35.28.15.69-.5,1-.89,2.13-1.35,3.19,0,0,0,.14-.11.11a2.89,2.89,0,0,0-1.38.06,1.16,1.16,0,0,1-.61,0l-.12,0c-.19-.08-.49.08-.57-.08A2.6,2.6,0,0,1,11.59,125.49Z"/><path class="c" d="M25.33,101.83a2,2,0,0,1,.15,1.2,1,1,0,0,0,.15.87c.08.11.08.18,0,.26-.38.42-.21.92-.18,1.38a8.58,8.58,0,0,1,0,2.17,3,3,0,0,0,0,1.09,3,3,0,0,1,0,1c0,.17-.08.27-.32.3-1.07.17-2.15.34-3.21.59-.16,0-.23,0-.15-.2.41-.89.82-1.79,1.2-2.69a21.05,21.05,0,0,1,.81-2,27.77,27.77,0,0,0,1.21-3Z"/><path class="c" d="M39.83,125.82c0,.17,0,.25,0,.33,0,.38-.07.4-.44.42s-.72-.14-1.11,0c-.13.06-.35-.09-.54.07s-.24-.12-.28-.23c-.4-1.19-1-2.29-1.44-3.47,0-.12-.14-.22-.2-.34s-.07-.38.13-.45a16.15,16.15,0,0,0,2.27-1.2c.51-.25.62-.22.77.32s.24,1.07.35,1.6c.14.69.28,1.38.4,2.07C39.81,125.29,39.81,125.6,39.83,125.82Z"/><path class="c" d="M29.88,110.53c-.6-.16-1.14-.34-1.69-.44a10.36,10.36,0,0,0-1.47-.09c-.53,0-.54,0-.53-.54,0-.85-.12-1.71-.07-2.56a1.84,1.84,0,0,1,.06-.66c.1-.22-.14-.38-.14-.61,0-.6.12-1.19.08-1.78a2.74,2.74,0,0,0-.07-.76,2.48,2.48,0,0,1,0-1.28C27.22,104.75,28.56,107.61,29.88,110.53Z"/><path class="c" d="M31.63,124.9c0-.13,0-.3,0-.47s0-.14.12-.17l2.87-1.34a2.38,2.38,0,0,1,.51-.27,2.33,2.33,0,0,0,.22.51c.47,1.07,1,2.12,1.51,3.17.11.23.09.39-.16.29-.48-.21-1-.05-1.44-.17-.05,0-.12,0-.16,0s-.4,0-.56,0c-.37.08-.77,0-1.12.12s-.6-.07-.9-.08c-.1,0-.19-.07-.31,0s-.17.06-.19-.06C31.93,125.92,31.54,125.5,31.63,124.9Z"/><path class="c" d="M20,126.49c-.33,0-.58,0-.83,0s-.32-.26-.45-.42a3.12,3.12,0,0,1-.31-.78,5.31,5.31,0,0,0-.53-.74c-.09-.14-.25-.06-.3.08a2.37,2.37,0,0,0-.14.6c0,.17-.08.18-.21.17a.22.22,0,0,0-.1,0c-.17.07-.4,0-.52.18s.14.27.21.41c.19.36.19.43-.2.48a1,1,0,0,1-.72-.07.39.39,0,0,0-.51,0,.19.19,0,0,1-.25,0c-.06-.06,0-.14,0-.21.44-1.06,1-2.07,1.37-3.15,0-.11.13-.18.23-.12s.44.14.61.31a.31.31,0,0,0,.3.11c.17,0,.37.16.54.27a1.61,1.61,0,0,0,.63.26c.36.07.64.38,1,.4,0,0,0,0,0,.07-.22.32.15.71-.13,1,0,.06.06.26.1.39S19.77,126.23,20,126.49Z"/><path class="c" d="M12.27,131.5c-.17-.46-.15-.92-.47-1.24.16-.81-.48-1.48-.38-2.3.07-.6.22-.93.8-.83a10.85,10.85,0,0,0,1.43,0c.48,0,.55.09.31.51a17.79,17.79,0,0,0-1.16,2.82A11.41,11.41,0,0,1,12.27,131.5Z"/><path class="c" d="M25.43,121.14a2.45,2.45,0,0,1-.27,1.46c-.1.16-.19.32-.4.29s-.34.22-.54.28-.19.09-.28,0a13,13,0,0,1-1.15-2.2c0-.1.2-.29.36-.39a3.72,3.72,0,0,1,1.52-.56,1.59,1.59,0,0,0,.39-.15c.19-.08.28,0,.31.17A5.69,5.69,0,0,1,25.43,121.14Z"/><path class="c" d="M26.18,121.06a10.53,10.53,0,0,1,.13-1.15c0-.15.08-.15.2-.11a7.06,7.06,0,0,1,2,.83s.19,0,.11.15c-.2.3-.2.69-.51.94a2,2,0,0,0-.71,1c0,.11,0,.36-.24.29s-.51-.07-.55-.39c0-.14,0-.23-.2-.22s-.16-.08-.15-.19C26.3,121.83,26.16,121.45,26.18,121.06Z"/><path class="c" d="M23.4,123.37a.21.21,0,0,1-.14.2,4.44,4.44,0,0,1-.5.25.49.49,0,0,0-.4.39.54.54,0,0,1-.14.22c-.15.17-.3.33-.56.16a2.71,2.71,0,0,0-.42-.16c-.46-.19-.44-.27-.37-.75a6.64,6.64,0,0,1,1.1-2.17c.12-.22.25-.21.4,0a2.86,2.86,0,0,1,.69,1.32.57.57,0,0,0,.21.4C23.34,123.26,23.42,123.31,23.4,123.37Z"/><path class="c" d="M29.23,121.12a5,5,0,0,1,1.5,2.46c0,.14.07.31-.16.35,0,0-.09.07-.13.11a.44.44,0,0,1-.64.09,6,6,0,0,0-1.61-.69c-.2,0-.22-.13-.15-.34C28.29,122.34,29,121.89,29.23,121.12Z"/><path class="c" d="M39.41,130.76a20,20,0,0,1-1.29-3.06,1.11,1.11,0,0,0-.07-.15c-.15-.31-.09-.47.22-.42s.82-.12,1.24-.1c.26,0,.27.13.25.31a13.69,13.69,0,0,0-.13,1.9C39.63,129.72,39.42,130.18,39.41,130.76Z"/><path class="c" d="M20.7,124.7a.94.94,0,0,0,.64.39c.1,0,.25.09.07.24a1.72,1.72,0,0,0-.46.74c0,.12-.12.24-.26.21s-.08-.17-.07-.25C20.64,125.61,20.67,125.19,20.7,124.7Z"/><path class="c" d="M32,113.84l.71.38c.09,0,.08.1,0,.17s-.19.26-.3.41A4.68,4.68,0,0,1,32,113.84Z"/><path class="c" d="M19.29,114.86c-.23-.45-.23-.45.26-.9C19.63,114.16,19.52,114.48,19.29,114.86Z"/><path class="d" d="M19.92,127.29c-.12-.08-.27-.1-.37-.22C19.93,127.11,19.93,127.11,19.92,127.29Z"/><path class="c" d="M24.75,146c0,.5-.09,1-.15,1.51s-.13,1-.19,1.48c-.09.79-.13,1.59-.27,2.37,0,.12,0,.25,0,.37a.56.56,0,0,1-.71.42c-.12-.06-.1-.16-.1-.26a5.89,5.89,0,0,1,.25-1.22c.2-1,.39-2,.65-2.94.14-.51.23-1,.33-1.54a.84.84,0,0,1,.12-.22Z"/><path class="c" d="M242.12,132.47a1.42,1.42,0,1,1,0-2.85,1.43,1.43,0,0,1,1.41,1.41A1.37,1.37,0,0,1,242.12,132.47Z"/><path class="c" d="M213.21,121.94h-.44c-.55,0-.67-.2-.79-.74a4.33,4.33,0,0,1,.39-2.24,2.43,2.43,0,0,1,.31-.5,2.8,2.8,0,0,0,.43-.91.35.35,0,0,1,.41-.3.6.6,0,0,1,.57.37c0,.12,0,.18-.1.26a.42.42,0,0,0-.1.54,1.57,1.57,0,0,1,.34,1.07,5,5,0,0,0,.32,1.4,2,2,0,0,1,0,.53c0,.34-.25.48-.72.51Z"/><path class="c" d="M231.68,113a8.81,8.81,0,0,1,1.47.13.67.67,0,0,1,.55.42,1.7,1.7,0,0,0,.59.66,7.68,7.68,0,0,1,2.15,2.27,1.8,1.8,0,0,0,1,.78,1.66,1.66,0,0,1,1,1.15.37.37,0,0,1-.08.31,3.2,3.2,0,0,0-.34,1.39,4,4,0,0,1,0,1.23.88.88,0,0,0,.23.87,1.77,1.77,0,0,1,.26,1.45c0,.49-.38.86-.44,1.33s-.2,1.06-.26,1.59a2.68,2.68,0,0,1-.64,1.48,7.2,7.2,0,0,1-2.57,1.93,11.13,11.13,0,0,1-1.94.7.79.79,0,0,1-.67-.12,1.78,1.78,0,0,0-1.44-.29,1.49,1.49,0,0,1-1.28-.41,1.13,1.13,0,0,0-.48-.2,3.15,3.15,0,0,1-2.17-1.42,7.2,7.2,0,0,1-.69-1.19,3.14,3.14,0,0,1-.17-1.65,3.68,3.68,0,0,0-.19-1.47,4.41,4.41,0,0,1,0-1.86,4.85,4.85,0,0,0,.11-.58.82.82,0,0,0-.33-.83c-.53-.41-.57-.72-.12-1.33a8.42,8.42,0,0,0,1.18-2.51,2.91,2.91,0,0,1,.76-1.22,2.08,2.08,0,0,0,.46-.61.73.73,0,0,1,.28-.33c.59-.34,1-.9,1.66-1.19A4.47,4.47,0,0,1,231,113,5.74,5.74,0,0,1,231.68,113Z"/><path class="c" d="M70.16,125.78a4.17,4.17,0,0,0-.16-2,4.11,4.11,0,0,1,.06-1.8,3.61,3.61,0,0,0,.11-.69.64.64,0,0,0-.29-.61c-.56-.42-.62-.74-.17-1.39a8.55,8.55,0,0,0,1.18-2.51,2.81,2.81,0,0,1,.75-1.22,2.09,2.09,0,0,0,.5-.7c.12-.28.43-.32.63-.5a5.09,5.09,0,0,1,2.13-1.26,4.51,4.51,0,0,1,2-.12c.24,0,.48,0,.73.07a.72.72,0,0,1,.5.38,2.69,2.69,0,0,0,.75.81,6.7,6.7,0,0,1,1.81,1.9A2.26,2.26,0,0,0,82,117.26a1.52,1.52,0,0,1,.94,1.18.64.64,0,0,1-.12.39,3.42,3.42,0,0,0-.28,1.14c-.1.47.15.94,0,1.41a.79.79,0,0,0,.2.77,1.91,1.91,0,0,1,.25,1.73c-.06.38-.35.68-.4,1.07-.07.56-.19,1.11-.26,1.66a2.65,2.65,0,0,1-.62,1.42,7.11,7.11,0,0,1-2.45,1.88,11.67,11.67,0,0,1-2.08.77.83.83,0,0,1-.67-.12,1.79,1.79,0,0,0-1.44-.29,1.17,1.17,0,0,1-1-.25,2.58,2.58,0,0,0-1-.43,2.91,2.91,0,0,1-1.94-1.41,7.21,7.21,0,0,1-.69-1.19A5.87,5.87,0,0,1,70.16,125.78Z"/><path class="c" d="M118.43,130.7a.6.6,0,0,1-.42-.13,1.86,1.86,0,0,0-1.47-.29,1.43,1.43,0,0,1-1.2-.36,1.49,1.49,0,0,0-.59-.25,3.16,3.16,0,0,1-2.14-1.46,4.67,4.67,0,0,1-.78-1.57,6.15,6.15,0,0,1,0-1.11,2.93,2.93,0,0,0-.08-1.16,4.55,4.55,0,0,1,0-2.52c.1-.46.16-.89-.34-1.23s-.4-.83,0-1.35a5.79,5.79,0,0,0,1-2.1,3.54,3.54,0,0,1,.74-1.41,3.3,3.3,0,0,0,.64-.84c.09-.21.36-.24.52-.39a5.49,5.49,0,0,1,2.15-1.31,4.54,4.54,0,0,1,2.14-.14c.23,0,.46,0,.69.07a.76.76,0,0,1,.59.51,1.16,1.16,0,0,0,.46.52,8.4,8.4,0,0,1,1.77,1.61,7.6,7.6,0,0,0,.69,1,3,3,0,0,0,.9.6,1.59,1.59,0,0,1,.84,1.12.34.34,0,0,1,0,.29,2.9,2.9,0,0,0-.29,2.14.27.27,0,0,1,0,.17,1,1,0,0,0,.15,1.17,1.9,1.9,0,0,1,.07,2,6.25,6.25,0,0,0-.46,2.08,3.43,3.43,0,0,1-.94,2.05,8.73,8.73,0,0,1-4.12,2.3l-.22.07Z"/><path class="c" d="M140.17,130.65a3.27,3.27,0,0,1-1.45-.3.61.61,0,0,1-.31-.49,7.32,7.32,0,0,1,.21-1.71c0-.32,0-.64-.28-.8a.3.3,0,0,1-.11-.52,1.16,1.16,0,0,0,.14-1.2,3.78,3.78,0,0,1,.08-1.5c.06-.41.12-.79-.3-1.09a.34.34,0,0,1,0-.59,1.12,1.12,0,0,0,.29-.82c0-.65.26-1.33-.17-1.95a.46.46,0,0,1,0-.43,2.6,2.6,0,0,1,.43-.7,1.25,1.25,0,0,1,1.37-.24,1,1,0,0,0,.57,0,1.56,1.56,0,0,1,1.55.34,11.43,11.43,0,0,0,1.54,1.09c.07.05.17.09.2.16a9.25,9.25,0,0,1,1.05,2.14c.13.64.32,1.27.46,1.91a1.3,1.3,0,0,1-.08.72,4.2,4.2,0,0,0-.39,1.69c0,.09-.07.18-.12.26a2.16,2.16,0,0,0-.36.87,1.61,1.61,0,0,1-.49.91c-.35.4-.54.91-.92,1.29a2.11,2.11,0,0,1-1.6.84A6.84,6.84,0,0,0,140.17,130.65Z"/><path class="c" d="M205,141.36c.31,0,.56.1.82.08a.31.31,0,0,1,.25.14c.17.39.57.54.83.83a5.11,5.11,0,0,1,.75.85,1.34,1.34,0,0,0,.65.56.94.94,0,0,1,.53.56.31.31,0,0,1,0,.27,3.52,3.52,0,0,0-.19,1.24,2.08,2.08,0,0,0,.27,1.08.72.72,0,0,1,0,.64,5,5,0,0,0-.37,1.56,2,2,0,0,1-.86,1.33,5.71,5.71,0,0,1-2.12,1,.37.37,0,0,1-.3,0c-.29-.25-.63-.18-1-.19-.11,0-.23,0-.33,0a8.24,8.24,0,0,0-1-.46,2.18,2.18,0,0,1-1.33-2.13,8,8,0,0,0-.14-1.22,11.82,11.82,0,0,1,.07-1.31.35.35,0,0,0-.16-.35.39.39,0,0,1-.13-.61,12.08,12.08,0,0,0,.85-1.76,3.92,3.92,0,0,1,2.32-1.95A3.64,3.64,0,0,1,205,141.36Z"/><path class="c" d="M64.07,144.37c0-.25.05-.48-.26-.5-.13,0-.1-.14-.08-.18.23-.35.14-.77.27-1.15a.82.82,0,0,1,1-.64,1.92,1.92,0,0,1,1.7,1.37,9.46,9.46,0,0,0,.24,1,.4.4,0,0,1,0,.33c-.35.57-.61,1.24-1.41,1.33-.19,0-.39.17-.59,0s-.24.08-.38,0A.84.84,0,0,1,64,145,2.31,2.31,0,0,0,64.07,144.37Z"/><path class="c" d="M56.36,151.27A2.78,2.78,0,0,1,55,151a.45.45,0,0,1-.31-.61c.1-.24.08-.5.17-.73a.48.48,0,0,0-.11-.46.56.56,0,0,1,0-.76.88.88,0,0,0,.13-.82A.94.94,0,0,1,56,146.41a2.44,2.44,0,0,0,.82.11.93.93,0,0,1,.85.53,7.07,7.07,0,0,1,.39,1.35,3.3,3.3,0,0,1-.25,2.26c-.16.46-.61.57-1.05.61C56.67,151.28,56.55,151.27,56.36,151.27Z"/><path class="c" d="M56.15,145.65c-.31-.06-.64.08-.94-.13-.1-.07-.21-.15-.2-.23a5.66,5.66,0,0,0-.23-1.26,1.45,1.45,0,0,1,.11-.71,1.2,1.2,0,0,0,0-.74.67.67,0,0,1,.86-.74,1.87,1.87,0,0,0,.61,0,1.1,1.1,0,0,1,1.11.4c.23.34.56.64.55,1.06a3.16,3.16,0,0,1-.15,1.46,1.46,1.46,0,0,1-.94.81A7.38,7.38,0,0,1,56.15,145.65Z"/><path class="c" d="M74.94,146.52c-.69,0-.92-.49-.65-1.25.16-.46.45-.84.62-1.29.08-.22.24-.14.36-.1s.16.16.08.29a.33.33,0,0,0,.06.49c.19.15,0,.37.08.55a2.64,2.64,0,0,1,.19.83c0,.26,0,.43-.35.42C75.22,146.47,75.08,146.52,74.94,146.52Z"/><path class="c" d="M170,146.52a.76.76,0,0,1-.71-1.09c.17-.51.5-.94.66-1.45.07-.22.26-.16.41-.1s.16.2,0,.32a.24.24,0,0,0,0,.28c.33.4.19.91.37,1.35S170.63,146.52,170,146.52Z"/><path class="c" d="M113.91,146.52c-.25,0-.58,0-.65-.22a1.58,1.58,0,0,1-.08-.81c.13-.55.5-1,.67-1.52.07-.23.28-.14.41-.08s.16.19,0,.3a.23.23,0,0,0-.05.28c.29.34.2.78.31,1.16C114.78,146.38,114.74,146.46,113.91,146.52Z"/><path class="c" d="M34.37,143.46a10.79,10.79,0,0,1,2.41,1.87c.1.1.29.17,0,.35s-.24.09-.38-.06a11.79,11.79,0,0,0-.9-.85l-1.1-1A.26.26,0,0,1,34.37,143.46Z"/><path class="c" d="M10.91,147.26c0-.14.05-.2.17-.28,1-.68,2.12-1.3,3.19-1.95a3.33,3.33,0,0,0,.66-.36,13.69,13.69,0,0,1,1.15-.82c.29-.24.7-.33,1-.58.11-.09.24,0,.35.15s0,.23-.09.29c-.4.3-.82.59-1.22.89-.56.41-1.08.88-1.67,1.24-.88.54-1.72,1.16-2.61,1.68-.44.26-.57.27-.82,0A.31.31,0,0,1,10.91,147.26Z"/><path class="c" d="M15,149.76a.37.37,0,0,1,.11-.33,11.5,11.5,0,0,0,1.16-1.3c.16-.22.62-.1.73.15,0,.08,0,.09-.06.13a16.63,16.63,0,0,0-1.4,1.64c-.06.1-.15.09-.19,0S14.9,150,15,149.76Z"/><path class="c" d="M37,141.73a3,3,0,0,1,1.18.29c1.26.58,2.52,1.16,3.79,1.72.38.17.73.38,1.11.55a.2.2,0,0,1,.11.28c-.07.16-.12.35-.28.44s-.29.37-.43,0c0-.12-.28-.21-.44-.25-1.05-.31-2-.93-3-1.34a5.16,5.16,0,0,1-1.25-.57c-.37-.3-.82-.39-1.18-.65-.19-.13-.08-.26,0-.35S36.9,141.78,37,141.73Z"/><path class="c" d="M22.24,145.29c.11.07.12.11.09.19a24.57,24.57,0,0,1-1,2.47,18.53,18.53,0,0,0-1,2.08c-.16.48-.51.87-.66,1.35-.05.17-.19.13-.27.07a1.26,1.26,0,0,0-.41-.19c-.15,0-.08-.2-.06-.31a3.9,3.9,0,0,1,.5-1c.4-.69.71-1.43,1.16-2.08.55-.81,1-1.69,1.56-2.47A1,1,0,0,0,22.24,145.29Z"/><path class="a" d="M243.06,132c-.48.08-.48.08-1.13-.81a.77.77,0,0,0,.16.83h-.82c.52-.45.18-1,.27-1.57,0-.15-.11-.1-.19-.11s-.08-.06-.08-.12,0-.1.08-.08c.36.17.73-.06,1.1,0,.17,0,.3.09.31.29s0,.44-.21.54-.23.14-.06.31A8.05,8.05,0,0,0,243.06,132Z"/><path class="c" d="M241.87,130.64c0-.15-.1-.37.22-.35s.34.09.33.32-.2.35-.39.36S241.95,130.73,241.87,130.64Z"/></svg>