<svg xmlns="http://www.w3.org/2000/svg" viewBox="0 0 250 250"><title>Grocery</title><path d="M113.61,113.17v22.18h11.83a9.52,9.52,0,0,0,8.43-10c0-9.61-4.2-12.15-8.43-12.2-3.8,0-11.83,0-11.83,0Z" style="fill:#b32128;fill-rule:evenodd"/><path d="M194.4,113.17v22.19h11.83a9.54,9.54,0,0,0,8.43-10c0-9.61-4.2-12.15-8.43-12.2-3.8,0-11.83,0-11.83,0Z" style="fill:#b32128;fill-rule:evenodd"/><path d="M78.5,136.29c6.31,0,11.06-2,11.11-11.54.06-10.81-4.8-11.85-11.11-11.85s-11,3-11,11.85,4.64,11.54,11,11.54Z" style="fill:#b32128;fill-rule:evenodd"/><path d="M78.58,131c2.08,0,2.91-2.86,2.91-6.39s-.75-6.37-2.91-6.39-2.91,2.86-2.91,6.39.51,6.35,2.91,6.39Z" style="fill:#fff;fill-rule:evenodd"/><path d="M101.32,136.29c6.31,0,11.06-2,11.11-11.54.06-10.81-4.8-11.85-11.11-11.85s-11,3-11,11.85,4.64,11.54,11,11.54Z" style="fill:#b32128;fill-rule:evenodd"/><path d="M101.4,131c2.08,0,2.91-2.86,2.91-6.39s-.75-6.37-2.91-6.39-2.91,2.86-2.91,6.39.51,6.35,2.91,6.39Z" style="fill:#fff;fill-rule:evenodd"/><polygon points="134.84 113.17 134.84 135.36 148.14 135.36 148.14 130.44 143.18 130.44 143.18 113.17 134.84 113.17 134.84 113.17" style="fill:#b32128;fill-rule:evenodd"/><polygon points="163.88 135.35 172.01 135.35 165.04 113.17 155.85 113.17 148.88 135.35 157.23 135.35 158.21 131.18 163.04 131.18 163.88 135.35 163.88 135.35" style="fill:#b32128;fill-rule:evenodd"/><polygon points="159.3 126.53 160.82 120.09 162.11 126.53 159.3 126.53 159.3 126.53" style="fill:#fff;fill-rule:evenodd"/><polygon points="172.49 135.37 172.49 113.12 181.2 113.12 185.06 123.31 185.06 113.12 192.66 113.12 192.66 135.37 184.32 135.37 180.73 126.74 180.73 135.37 172.49 135.37 172.49 135.37" style="fill:#b32128;fill-rule:evenodd"/><path d="M121.21,118.4v11s4.44.53,4.44-5.49-4.44-5.49-4.44-5.49Z" style="fill:#fff;fill-rule:evenodd"/><path d="M202,118.4v11s4.44.53,4.44-5.49S202,118.4,202,118.4Z" style="fill:#fff;fill-rule:evenodd"/><path d="M53.31,137.05a7.49,7.49,0,0,1-3.92-3.26c-.83-2.36-1.14-3-1.14-3A7.42,7.42,0,0,1,47,127.21a5.69,5.69,0,0,0-2.55-.39,6.69,6.69,0,0,0-3.28.65c-.65,8.42-5.37,9.46-5.59,9.61s-.91.32-.91.79.79.75.79.75h18c.7,0,.77-.33.77-.75s-.87-.82-.87-.82Z" style="fill:#b32128;fill-rule:evenodd"/><path d="M64.2,113.67c0-1.74-.87-1.58-.87-1.58H35.85s-.71,0-.71.63c0,.75,1.27,1.35,1.27,1.35a11.66,11.66,0,0,1,4.88,9.24,5.49,5.49,0,0,0,2.95.51,6.3,6.3,0,0,0,2.89-.44c.64-4.29,3.09-10.25,8.3-10.25,6.18,0,7.37,8,7.45,9.27s.48,2.06,1.19,2.06.71-1,.71-1-.55-8-.55-9.74Z" style="fill:#b32128;fill-rule:evenodd"/><path d="M52,122.52s-.48-2.8,1.74-4.07,4,.32,3.33,2-2.32,2.48-5.07,2.06Z" style="fill:#b32128;fill-rule:evenodd"/><path d="M54.29,125.27s1.43-2.45,3.95-2,2.83,2.79,1.26,3.68-3.38.41-5.21-1.68Z" style="fill:#b32128;fill-rule:evenodd"/><path d="M51.94,128.26s2.67-1,4.31,1,.38,4-1.4,3.62S52,131,51.94,128.26Z" style="fill:#b32128;fill-rule:evenodd"/><path d="M51,125.39c0,.18.11,1.52-.73,1.52s-2-1.52-2-1.52,1.15-1.52,2-1.52.73,1.35.73,1.52Z" style="fill:#b32128;fill-rule:evenodd"/></svg>