<svg xmlns="http://www.w3.org/2000/svg" viewBox="0 0 250 250"><title>Grocery</title><path d="M110.85,125c0-8,0-16.17,0-24.16,0-.7,0-.71.71-.71,13.26,0,26.85,0,40.11,0,.68,0,.6.07.6.65,0,13.68,0,27.52,0,41.2,0,2.38,0,4.92,0,7.3,0,.59,0,.58-.59.58-13.31,0-27,0-40.28,0-.56,0-.54-.19-.54-.7,0-8,0-16.17,0-24.16Zm24.87,8.49a12.66,12.66,0,0,1-2.46-6.93c-.28-3.33,0-6.53,2.06-9.36.09-.13.33-.32,0-.47a.4.4,0,0,0-.52.16c-.41.58-.79,1.18-1.21,1.75a12.82,12.82,0,0,1-4.89,4.35c-.29.14-.75.48-.67-.28a14.49,14.49,0,0,1,2.32-7c3.31-4.71,9.19-4.82,12.55-.25a15.11,15.11,0,0,1,2.11,5c.1.37-.1,1.1.38,1s.16-.77.13-1.17a67.45,67.45,0,0,1-.07-8.81,26.81,26.81,0,0,1,1.3-8.08c-10.33,3.12-20.5,2.69-30.71-.43a39.33,39.33,0,0,1,2.12,4.29,42.4,42.4,0,0,1,3.62,15.89A44,44,0,0,1,120.33,136a48.22,48.22,0,0,1-2,5.8c-.26.67,0,.72.54.74a46.6,46.6,0,0,1,10.48,1.66,24.31,24.31,0,0,1,5.82,2.37,13,13,0,0,0-1.36-2.59,77.23,77.23,0,0,1-4.39-10.61,42,42,0,0,1-1.13-4.88c-.13-.74.16-.81.75-.55a9.49,9.49,0,0,1,2,1.1,19.09,19.09,0,0,1,3.63,4C134.92,133.38,135.14,133.73,135.72,133.5Zm7-4.73c-.3.34-.46.53-.63.71a1.59,1.59,0,0,1-2.69-.24,7.79,7.79,0,0,1-.31-7.67c.77-1.67,2.08-1.73,3.3-.37.07.08.13.19.28.08,0-1.27,0-2.55,0-3.84a1,1,0,0,0-.23-.69,3.44,3.44,0,0,0-4-.85,5.28,5.28,0,0,0-2.44,2.52,14.87,14.87,0,0,0-1.17,10.35,9.08,9.08,0,0,0,2.6,5,3.57,3.57,0,0,0,5-.07.83.83,0,0,0,.28-.66C142.75,131.67,142.75,130.33,142.75,128.77Z" style="fill:#0687cd"/><path d="M68.81,122.24a22,22,0,0,1-3.5,11.39c-2.61,3.9-6.69,4.56-10.52,2.64-1.82-.92-2.72-2.67-3.36-4.53-1-2.91-.69-5.86-.17-8.79a18.19,18.19,0,0,1,3.14-8A8.43,8.43,0,0,1,66,113.28c1.62,1.21,2.13,3,2.46,4.79A18.65,18.65,0,0,1,68.81,122.24Zm-6.64-.6c0-.73,0-1.45,0-2.18a1.69,1.69,0,0,0-1.23-1.71c-.87-.21-1.36.42-1.69,1.08a18.45,18.45,0,0,0-1.65,10.35,1.57,1.57,0,0,0,1.23,1.52c.73.16,1.21-.31,1.61-.83a3.83,3.83,0,0,0,.45-.79A18.51,18.51,0,0,0,62.18,121.65Z" style="fill:#eb1c30"/><path d="M88.52,121.63c-.15,4.74-1.22,9.08-4.11,12.8a7.7,7.7,0,0,1-10.86,1.18,8.79,8.79,0,0,1-2.91-6.14,23.3,23.3,0,0,1,2.59-13.22,8.45,8.45,0,0,1,12.42-3,5.35,5.35,0,0,1,2.06,3,23.5,23.5,0,0,1,.61,2.61C88.45,119.77,88.46,120.76,88.52,121.63Zm-11.38,5c.05.86.06,1.73.17,2.59a1.56,1.56,0,0,0,1.18,1.46,1.5,1.5,0,0,0,1.57-.72,4.08,4.08,0,0,0,.6-1,18.9,18.9,0,0,0,1.26-6.21,11.94,11.94,0,0,0-.12-3.67,1.56,1.56,0,0,0-1.2-1.35c-.76-.14-1.19.34-1.54.91a7,7,0,0,0-.43.81A18.83,18.83,0,0,0,77.14,126.65Z" style="fill:#eb1c30"/><path d="M93.19,136.57c-1.12,0-2.24,0-3.35,0-.55,0-.65-.17-.57-.68.7-4.47,1.38-8.94,2.06-13.42.47-3.09.95-6.18,1.41-9.28.06-.4.1-.67.62-.67a49.51,49.51,0,0,1,6.95.16,7.17,7.17,0,0,1,6.57,6.35,19.86,19.86,0,0,1-1.6,12.25,8.61,8.61,0,0,1-6.74,4.93A29.94,29.94,0,0,1,93.19,136.57Zm7.25-13.6a7.64,7.64,0,0,0,0-1.17,2.84,2.84,0,0,0-1.37-2.35c-.34-.17-.6-.25-.69.29q-.78,5.17-1.6,10.34c-.1.66.19.72.69.57a3.13,3.13,0,0,0,2-2A18.08,18.08,0,0,0,100.44,123Z" style="fill:#eb1c30"/><path d="M206.35,118.54c.69-1.7,1.41-3.39,2.07-5.1a1,1,0,0,1,1.09-.74c2,0,4,0,6.13,0l-3,5.62c-1.25,2.31-2.49,4.62-3.75,6.92a5.74,5.74,0,0,0-.61,1.9c-.47,2.9-1,5.79-1.41,8.69-.07.44-.23.6-.7.6-1.85,0-3.69,0-5.54,0-.61,0-.75-.14-.66-.75.46-3,.84-6.09,1.31-9.13a8.62,8.62,0,0,0-.46-3.21c-.69-3.25-1.46-6.48-2.2-9.72-.22-1-.23-1,.75-1,1.85,0,3.69,0,5.54,0,.51,0,.66.13.71.63.16,1.75.37,3.49.56,5.24Z" style="fill:#eb1c30"/><path d="M47.33,118.43c-.48,0-1.44-.33-2,.11s-.34,1.46-.48,2.22c-.21,1.08-.18,1.09.9,1.08.87,0,1.74,0,2.6,0,.62,0,.68.19.57.73q-.47,2.26-.84,4.53c-.07.46-.24.61-.7.6-1,0-2,0-3,0-.54,0-.72.18-.8.68-.39,2.43-.83,4.85-1.2,7.28-.09.63-.3.84-.95.82-1.65-.05-3.3-.08-4.95,0-.85,0-.9-.31-.79-1,.51-3.17,1-6.35,1.5-9.52.65-4.2,1.31-8.39,1.93-12.59.1-.64.31-.87,1-.87q5,.06,10,0c.68,0,.8.2.7.81q-.38,2.32-.66,4.65c-.05.45-.25.55-.65.53C48.86,118.41,48.24,118.43,47.33,118.43Z" style="fill:#eb1c30"/><path d="M189.57,112.62c2.1,0,4.19,0,6.29,0,.57,0,.72.13.63.7-.26,1.63-.47,3.26-.67,4.9,0,.37-.2.46-.54.45-.81,0-1.62,0-2.43,0-.46,0-.68.08-.76.61-.87,5.49-1.78,11-2.65,16.47-.08.47-.22.67-.73.66-1.85,0-3.69,0-5.54,0-.49,0-.63-.13-.55-.63q1.18-7.15,2.33-14.31c.13-.77.23-1.55.39-2.31.11-.51-.08-.65-.55-.64-.84,0-1.68,0-2.52,0-.52,0-.76,0-.63-.68.3-1.53.54-3.08.76-4.63.07-.53.34-.6.8-.59,2.13,0,4.25,0,6.38,0Z" style="fill:#eb1c30"/><path d="M162.49,126.63a7.36,7.36,0,0,0,.25,2.08,2.5,2.5,0,0,0,2.42,1.84,10.11,10.11,0,0,0,1.68,0c.58-.06.65.16.58.66-.2,1.44-.38,2.88-.53,4.33a1,1,0,0,1-.84,1,8.23,8.23,0,0,1-6.29-.41,7,7,0,0,1-3.52-5,19.66,19.66,0,0,1,2.91-15.53,8.38,8.38,0,0,1,5.25-3.5,9.73,9.73,0,0,1,5.11,0c.56.17.81.4.69,1.07-.26,1.43-.4,2.88-.6,4.32,0,.25.06.63-.43.48-3.47-1.06-4.83,1.13-5.85,3.62A12.39,12.39,0,0,0,162.49,126.63Z" style="fill:#eb1c30"/><path d="M172.87,136.39c-.9,0-1.79,0-2.68,0-.56,0-.72-.12-.62-.71.55-3.45,1-6.91,1.57-10.36.61-4,1.22-8.07,1.82-12.11.06-.4.11-.66.63-.66,1.9,0,3.8,0,5.71,0,.44,0,.58.11.51.59q-1.36,9-2.69,17.91c-.23,1.55-.5,3.09-.68,4.64-.07.59-.32.72-.86.7-.89,0-1.79,0-2.68,0Z" style="fill:#eb1c30"/><path d="M135.72,133.5c-.58.23-.8-.12-1.06-.47a19.09,19.09,0,0,0-3.63-4,9.49,9.49,0,0,0-2-1.1c-.58-.25-.87-.19-.75.55a42,42,0,0,0,1.13,4.88,77.23,77.23,0,0,0,4.39,10.61,13,13,0,0,1,1.36,2.59,24.31,24.31,0,0,0-5.82-2.37,46.6,46.6,0,0,0-10.48-1.66c-.56,0-.8-.07-.54-.74a48.22,48.22,0,0,0,2-5.8,44,44,0,0,0,1.48-12.77,42.4,42.4,0,0,0-3.62-15.89,39.33,39.33,0,0,0-2.12-4.29c10.22,3.12,20.39,3.55,30.71.43a26.81,26.81,0,0,0-1.3,8.08,67.45,67.45,0,0,0,.07,8.81c0,.4.36,1.09-.13,1.17s-.28-.66-.38-1a15.11,15.11,0,0,0-2.11-5c-3.36-4.57-9.24-4.46-12.55.25a14.49,14.49,0,0,0-2.32,7c-.08.75.38.41.67.28a12.82,12.82,0,0,0,4.89-4.35c.42-.57.8-1.17,1.21-1.75a.4.4,0,0,1,.52-.16c.3.15.05.35,0,.47-2,2.83-2.34,6-2.06,9.36A12.66,12.66,0,0,0,135.72,133.5Z" style="fill:#fefefe"/><path d="M142.75,128.77c0,1.56,0,2.9,0,4.24a.83.83,0,0,1-.28.66,3.57,3.57,0,0,1-5,.07,9.08,9.08,0,0,1-2.6-5A14.87,14.87,0,0,1,136,118.42a5.28,5.28,0,0,1,2.44-2.52,3.44,3.44,0,0,1,4,.85,1,1,0,0,1,.23.69c0,1.28,0,2.57,0,3.84-.15.11-.2,0-.28-.08-1.23-1.36-2.54-1.3-3.3.37a7.79,7.79,0,0,0,.31,7.67,1.59,1.59,0,0,0,2.69.24C142.29,129.3,142.45,129.11,142.75,128.77Z" style="fill:#fefefe"/></svg>