<svg xmlns="http://www.w3.org/2000/svg" viewBox="0 0 250 250"><title>Grocery</title><path d="M173.7,123.49a3.6,3.6,0,0,0,.83.43,1.6,1.6,0,0,1,1.38,1.75q0,6,0,12a1.65,1.65,0,0,1-1.31,1.82c-.29.08-.48.5-.71.76.28.15.57.44.85.44q3.84.05,7.68,0a2.73,2.73,0,0,0,.91-.38c-.21-.28-.37-.7-.65-.81a1.71,1.71,0,0,1-1.19-1.72c0-3.38,0-6.76,0-10.14,0-1.11,1.85-2.62,3.14-2.61s2,.88,2,2.4c0,3.45,0,6.9,0,10.35a1.7,1.7,0,0,1-1.24,1.78c-.23.08-.36.46-.54.7.25.15.5.44.75.44,2.39,0,4.78,0,7.17,0h1.15v3.56H37.43V136c.8,0,1.57,0,2.34,0,.59,0,.88-.15.88-.79q0-7.73,0-15.47c0-.59-.25-.77-.8-.75-.78,0-1.56,0-2.43,0v-8.14H66.88V119c5.06-1.31,9.39-.28,13.08,3.44a12.72,12.72,0,0,1,9.54-3.94,12.52,12.52,0,0,1,9.29,4c1.12-.89,2.14-1.78,3.25-2.53a6.58,6.58,0,0,1,2.08-.82.83.83,0,0,0,.76-1c0-2.42,0-4.84,0-7.35h15.94v5.4l.27.09c1-1.17,2-2.32,2.87-3.53a1.84,1.84,0,0,1,1.72-.82c1.53.06,3.06,0,4.71,0v7c.49,0,.86.05,1.22.05q19.21,0,38.41,0a1.35,1.35,0,0,0,1.55-1c2-5.66,4.05-11.3,6.09-16.94.65-1.8.68-1.81,2.91-1.44L168.32,133h-.21c-.28-1-.56-2-.84-3-.42-1.51-.85-3-1.24-4.54-.28-1.09-.1-1.32,1-1.54.73-.14.73-.14.6-1.17h-2.31c-2,0-4,0-5.94,0-.28,0-.56.3-.84.46.22.23.43.48.66.7s.9.62,1.11,1a4.17,4.17,0,0,1,0,4.09c-.7,1.34-1.16,2.8-1.84,4.49-.88-2.26-1.66-4.24-2.43-6.23-.2-.51-.39-1-.55-1.54-.26-.86-.32-1.63.84-1.9.18,0,.37-.44.39-.68s-.34-.41-.53-.41q-3.79,0-7.58,0a.72.72,0,0,0-.55.41,1,1,0,0,0,.26.69,10.45,10.45,0,0,1,1.49,1.95c2,4.76,3.83,9.56,5.74,14.34a1.22,1.22,0,0,0,.15.38c.23.25.51.68.73.66a1.24,1.24,0,0,0,.84-.66c1.32-3.18,2.6-6.38,3.88-9.58.16-.4.33-.8.61-1.46.38,1.14.69,2,1,2.9l2.57,7.77c.18.54.23,1.11,1.07,1.11s.89-.62,1.08-1.13q2.9-7.82,5.78-15.64C173.44,124.12,173.59,123.75,173.7,123.49Zm-62.2.59a18.44,18.44,0,0,0-3.3-1.64,6.38,6.38,0,0,0-6.89,3.13,11.94,11.94,0,0,0-.74,11.47c2,4.55,6.88,5.52,10.62,2.27a2.21,2.21,0,0,1,.39-.2l.12,2c1.3-.25,2.46-.5,3.63-.7s2.37-.31,3.54-.5a.71.71,0,0,0,.47-.49.75.75,0,0,0-.39-.58c-1.84-.71-1.84-.7-1.84-2.69q0-10.19,0-20.37c0-.43,0-.86-.07-1.3h-8.25c-.16,1-.16,1,.65,1.08s2,.2,2.07,1.51C111.53,119.45,111.49,121.83,111.49,124.08Zm-48.28-1.82v-7.74a2.41,2.41,0,0,0-.38-.08q-10.39,0-20.78,0c-.87,0-.85.43-.66,1.05l.52.11c2.5.45,2.73.72,2.73,3.28q0,8.8,0,17.61c0,2.3-.25,2.61-2.56,3-.82.13-.92.5-.66,1.16a1.91,1.91,0,0,0,.35.08c4.27,0,8.53,0,12.8,0,.86,0,.86-.43.65-1.09-.51-.06-1-.12-1.53-.17-2-.18-2.56-.78-2.58-2.79,0-2.56,0-5.12,0-7.68,0-.3.05-.59.08-.87a4.48,4.48,0,0,1,5.06,3,11.18,11.18,0,0,1,.45,2c.12.79.46,1.06,1.19.73v-13c-.77-.26-1.09,0-1.2.7a11,11,0,0,1-.5,2,4.35,4.35,0,0,1-5,2.85c0-3.11,0-6.24.05-9.37,0-.36.7-.89,1.16-1a8.37,8.37,0,0,1,2.34-.09c4.59.22,6.53,1.54,7.36,5.69C62.19,122.25,62.5,122.51,63.21,122.26Zm25.81,19a8.34,8.34,0,0,0,7.14-3.42,10.41,10.41,0,0,0,1.74-8,8.67,8.67,0,0,0-11.78-7c-3.59,1.41-5.26,4.33-5.6,8C80.07,135.72,83,141.08,89,141.23Zm-18.78,0a8.41,8.41,0,0,0,6.47-2.52c2.29-2.4,2.88-5.32,2.55-8.52a8.69,8.69,0,0,0-9.91-7.82c-4,.55-6.8,3.48-7.46,8C61.14,135.36,64.1,141.06,70.24,141.23Zm78.48-9.46c0-.41,0-.82,0-1.23A8.75,8.75,0,0,0,136.56,123c-3.53,1.49-5.65,5.38-5.32,9.76.44,5.92,5.64,9.72,11.2,8.19C146.26,139.86,148.78,136.23,148.72,131.77Zm-22-15.41-.36-.29a5.84,5.84,0,0,0-1.2.79q-2.79,3-5.5,6.17a6.45,6.45,0,0,0-.69,1.46l2.21.16c0,.49,0,.87,0,1.24,0,3.72,0,7.44,0,11.15a3.82,3.82,0,0,0,4,4.11,5.9,5.9,0,0,0,6.07-4.4c-.54-.44-1-.64-1.41.21a2.85,2.85,0,0,1-.42.58c-.47.58-1.16,1-1.78.59a2.14,2.14,0,0,1-.89-1.54c-.08-3.75,0-7.5-.05-11.26,0-.56.2-.8.78-.77.91,0,1.82,0,2.75,0v-1.83c-.82,0-1.57,0-2.31,0-.91.08-1.27-.22-1.23-1.19C126.74,119.82,126.69,118.09,126.69,116.36Z" style="fill:#1e3c78"/><path d="M181.47,125.23l-.12-2.43h-7.4c.33-.95.6-1.77.89-2.57,2.43-6.58,4.89-13.16,7.29-19.76a1.23,1.23,0,0,1,1.39-1c5.77,0,11.53,0,17.3,0,2.1,0,3.64,1,4.12,2.7a5.33,5.33,0,0,1-.05,2.36,17.82,17.82,0,0,1-.83,2.3,1.72,1.72,0,0,0,1.44,2.49,15,15,0,0,0,2.44.12c3.07,0,6.13,0,9.32,0-.1.39-.16.68-.26.95q-5.19,14-10.37,28.1a1.41,1.41,0,0,1-1.61,1.11c-2.59-.07-5.19,0-7.78-.06a8.17,8.17,0,0,1-3-.69,3.53,3.53,0,0,1-2-3.4c0-2.39,0-4.78,0-7.17,0-3.09-1-4.87-3.22-5.71a6.14,6.14,0,0,0-6.91,2Z" style="fill:#d92e37"/><path d="M37.5,151.24c-.5-2.75-.4-2.87,2.23-2.87H194v2.87Z" style="fill:#d92e37"/><path d="M111.52,131.7c0,1.29,0,2.59,0,3.88A3.71,3.71,0,0,1,109,138.8a2.12,2.12,0,0,1-2.58-1.14,7.43,7.43,0,0,1-.84-2.8c-.07-2.3.06-4.61.14-6.92a4.15,4.15,0,0,1,.31-1.18c.56-1.58,1.61-2.34,2.94-2.12a3.06,3.06,0,0,1,2.56,3.08C111.53,129,111.52,130.37,111.52,131.7Z" style="fill:#1e3c78"/><path d="M86.24,131.79c.13-1.7.21-3.4.41-5.09a5.84,5.84,0,0,1,.65-1.92,2.11,2.11,0,0,1,2.12-1.14,2,2,0,0,1,1.92,1.28,8.68,8.68,0,0,1,.68,2.75c0,3,0,6.05-.12,9.08a4.49,4.49,0,0,1-.56,1.84,2.26,2.26,0,0,1-4,.1,11.48,11.48,0,0,1-.84-3,9.41,9.41,0,0,1-.1-1.73c0-.72,0-1.43,0-2.15Z" style="fill:#1e3c78"/><path d="M73.67,131.74c-.21,2-.31,3.93-.64,5.8-.28,1.61-1.16,2.3-2.42,2.3a2.39,2.39,0,0,1-2.52-2.33c-.29-2.83-.35-5.7-.38-8.55a12.88,12.88,0,0,1,.51-3.32,2.34,2.34,0,0,1,2.39-2,2.18,2.18,0,0,1,2.33,2C73.31,127.7,73.44,129.78,73.67,131.74Z" style="fill:#1e3c78"/><path d="M143.07,131.85c-.18,1.83-.34,3.66-.54,5.48a3.7,3.7,0,0,1-.34,1.06,2.35,2.35,0,0,1-4.31.08,8.77,8.77,0,0,1-.68-3c0-3,.11-6.05.25-9.07a3.83,3.83,0,0,1,.63-1.7,2.21,2.21,0,0,1,4,.17,14.23,14.23,0,0,1,.81,3.76,26.36,26.36,0,0,1,0,3.17Z" style="fill:#1e3c78"/><path d="M196.68,143.88a1.69,1.69,0,1,1,1.69-1.69A1.69,1.69,0,0,1,196.68,143.88Zm0-3.18a1.49,1.49,0,1,0,1.49,1.49A1.49,1.49,0,0,0,196.68,140.7Z" style="fill:#1e3c78"/><path d="M196.07,143v-1.66h.61a.69.69,0,0,1,.28,0,.33.33,0,0,1,.15.16.54.54,0,0,1,.06.25.47.47,0,0,1-.1.3.45.45,0,0,1-.29.15l.11.08a1.13,1.13,0,0,1,.15.22l.24.45h-.23l-.18-.35-.13-.23a.47.47,0,0,0-.09-.11l-.08,0h-.31V143Zm.18-.93h.39a.5.5,0,0,0,.2,0,.22.22,0,0,0,.11-.1.31.31,0,0,0,0-.15.27.27,0,0,0-.07-.19.3.3,0,0,0-.22-.08h-.44Z" style="fill:#1e3c78"/></svg>