<svg xmlns="http://www.w3.org/2000/svg" viewBox="0 0 250 250"><title>Grocery</title><path d="M205.26,106.07c-.94,1.39-1.88,2.77-2.81,4.17-2.29,3.43-4.56,6.87-6.85,10.3a.87.87,0,0,0-.1.85q2.86,8.79,5.7,17.59c0,.08,0,.15.08.28l-3.16-.43c-2.92-.38-5.85-.78-8.77-1.13s-6.09-.71-9.13-1c-2.85-.3-5.71-.56-8.57-.82-2-.18-4-.33-5.95-.49-.15,0-.36-.11-.45.05a.43.43,0,0,0,.11.53c.25.23,0,.34-.14.45a7.3,7.3,0,0,1-3.68,1.57.83.83,0,0,0-.58.3c-.13.15-.26.29-.4.43a4.07,4.07,0,0,0-1,1.57,4.77,4.77,0,0,1-2.2,2.47.59.59,0,0,0-.33.57,5.32,5.32,0,0,1-4.26,5.41,3.23,3.23,0,0,1-1.26.1.66.66,0,0,0-.77.45,7.29,7.29,0,0,1-1.83,2.57.5.5,0,0,0-.12.53,13.62,13.62,0,0,1,.1,3.22,1.86,1.86,0,0,1-.11.57,9,9,0,0,1-3,4.17,13,13,0,0,1-7.17,2.35,1,1,0,0,0-.8.34q-6.61,7.08-13.23,14.15c-.32.35-.48.39-.82,0-3-3.22-6-6.42-9-9.63a1.18,1.18,0,0,0-.66-.37,6.88,6.88,0,0,1-4.76-3.19,6.19,6.19,0,0,1-.77-2.75.92.92,0,0,0-.25-.61c-.94-1-1.88-2-2.8-3a.74.74,0,0,0-.65-.21,18.13,18.13,0,0,1-8.59-1.94A12.09,12.09,0,0,1,89.91,148c-.08-.28-.19-.34-.47-.29a4,4,0,0,1-1.35.07,1.73,1.73,0,0,0-1.36.66c-.42.39-.7.38-.86-.17A22.65,22.65,0,0,0,85,145.6c-.84-2-.37-3.93,0-5.91a21.13,21.13,0,0,1,.79-2.91c0-.09.1-.23.06-.27-.34-.4-.69-.78-1-1.16-.19-.2-.44-.1-.65-.08-3.27.27-6.53.54-9.79.84-2.74.25-5.49.52-8.22.82q-4.76.52-9.52,1.12c-3,.38-6,.8-9,1.2,0,0-.06,0-.13,0l1.15-3.56q2.33-7.22,4.68-14.43a.63.63,0,0,0-.13-.62L46,109.76,43.48,106l8.75-1.18c0-.19-.11-.27-.2-.38-.89-1.11-1.77-2.22-2.68-3.31-.24-.29-.22-.43.06-.68a116,116,0,0,1,15-11,113.53,113.53,0,0,1,44.87-15.87q4.93-.64,9.89-.86c.1,0,.24.06.29-.1h9.3c.06.15.2.09.3.09,2.85.11,5.69.35,8.53.67a113.5,113.5,0,0,1,38.67,11.71A115.37,115.37,0,0,1,199,100.36c.35.3.31.47,0,.78-.9,1.08-1.76,2.18-2.65,3.27-.17.21-.25.34.12.38.54.05,1.07.12,1.6.2l7.11,1Zm-85,45.14a3.23,3.23,0,0,0-.81,2,6.3,6.3,0,0,0,.82-2l.07-.11,0,0Zm-19.18-39.74c.39.18.88.12,1.18.5a2.51,2.51,0,0,0,1.79.74c.48.07.61-.12.52-.59s-.19-1.05-.29-1.58l0-1.22a11.94,11.94,0,0,0,.12-3c0-.27,0-.53.24-.68a.62.62,0,0,1,.72.13,19.4,19.4,0,0,0,5,2.17,20.31,20.31,0,0,0,2,.93,26.62,26.62,0,0,1,2.6,1.61.4.4,0,0,0,.28.06c.88-.12,1.81,0,2.47-.89a7,7,0,0,1,2.22-1.56l.64-.25a8.12,8.12,0,0,1,4.75-.43c.64.13,1.21.49,1.85.59a8.61,8.61,0,0,0,4.19-.31c.31-.11.52-.24.56-.57l.33-.81a6.56,6.56,0,0,1,1.75-2.49,2.41,2.41,0,0,1,2.83,0c.44.36.68.87,1.08,1.25a2.17,2.17,0,0,1,.78,1.77c0,.37.13.5.46.59a5.78,5.78,0,0,1,2.72,1.35,2.23,2.23,0,0,1,.44.8c0,.22.18.19.32.16l1.8-.36a6.73,6.73,0,0,1,4.66,1.38,8.16,8.16,0,0,1,1.37,1.74,9.32,9.32,0,0,1,.62,2,.6.6,0,0,0,.46.54c1.92.72,3.81,1.52,5.64,2.43a1,1,0,0,0,1.34-.09c.54-.48.68-.4.93.27.07.18.09.41.39.24s.88-.49,1.32-.73l1.64-.47H163c.93-.09.93-.09,1.2.75a11.33,11.33,0,0,0,.13,1.48,3.1,3.1,0,0,0,.06.77c.07.71.07.72.75.55.38-.1.55,0,.54.42s0,.75,0,1.12a.58.58,0,0,0,.31.6,72,72,0,0,1,8.45,6.36c.22.19.33.18.5,0,.35-.47.71-.93,1.07-1.39l.75-.93,3.17-3.91,6.89-8.57q2.85-3.54,5.69-7.08c1-1.19,1.89-2.4,2.84-3.61a4.27,4.27,0,0,0,.77-.92c.32-.39.62-.79,1-1.16.2-.22.15-.35-.05-.51-.7-.56-1.38-1.15-2.07-1.71a111.21,111.21,0,0,0-12.44-8.71,115.32,115.32,0,0,0-11.36-6A110.23,110.23,0,0,0,160.42,80,111.45,111.45,0,0,0,144,75.78a109.58,109.58,0,0,0-11.38-1.42c-3.68-.26-7.36-.36-11-.26-4,.11-8,.4-12,.91q-5.43.7-10.76,1.92a111.89,111.89,0,0,0-16.66,5.24,113.65,113.65,0,0,0-16,7.94A111.15,111.15,0,0,0,55,97.76c-1.18.92-2.34,1.87-3.5,2.82-.16.13-.44.26-.18.54a9.57,9.57,0,0,0,1,1.19,3.72,3.72,0,0,0,.75,1,1,1,0,0,0,.09.17L59,110.66l8.62,10.73,4.08,5a5.3,5.3,0,0,0,.77.95l1.09,1.43c.13.17.23.18.39,0,.4-.36.81-.7,1.22-1a79.75,79.75,0,0,1,8.44-6.12c.16-.1.38-.16.32-.42a7.22,7.22,0,0,1,0-2.18,5,5,0,0,0,.21-1.53c.36-1.14.63-2.3,1.81-3,.85-.49,1.41-1.39,2.32-1.84a15.45,15.45,0,0,1,6.44-1.55c1.15,0,2.31,0,3.46,0A17.53,17.53,0,0,1,101.09,111.46Zm52.85,18.87a1,1,0,0,0-.47.12.48.48,0,0,0-.56.41,4.8,4.8,0,0,1-1.15,2.06c-.16.16-.16.28.07.34a3.79,3.79,0,0,1,1.47.82.48.48,0,0,0,.57.09,4.43,4.43,0,0,1,3.36-.24c.26.1.35,0,.4-.25a2.49,2.49,0,0,0-.06-1.11,2.64,2.64,0,0,0-2.84-2.3h-.67Zm-17.22.34s-.06-.08-.1-.09a4,4,0,0,0-4.16,2.54.38.38,0,0,0,.17.5,25.6,25.6,0,0,1,2.62,1.68c.21.14.32.1.44-.07a5,5,0,0,1,1.78-1.48c.63-.34.63-.34.23-1a6.91,6.91,0,0,1-.11-1.59.32.32,0,0,0-.26-.36Zm.2,4.38c-.34.1-.46.44-.7.65a.15.15,0,0,0,0,.26c.48.28.52.81.67,1.26a3.63,3.63,0,0,0,1.48,2.1c.17.1.28.17.47,0a6.33,6.33,0,0,1,2.23-1c.27-.06.21-.16.14-.33a4,4,0,0,1,0-3.58c.07-.14.15-.28-.07-.35a3,3,0,0,0-2.07-.15A4.42,4.42,0,0,0,136.92,135.05Zm4.2-9.81a3.12,3.12,0,0,0-1.25,2.22c-.08.4.15.34.38.2l.09,0a4.17,4.17,0,0,1,5,.53c.15.13.23.13.35,0a5.91,5.91,0,0,1,1.44-1.23.38.38,0,0,0,.17-.5,2.51,2.51,0,0,0-1.05-1.52,2.31,2.31,0,0,0-1.06-.67,3.91,3.91,0,0,0-3.93.9c-.05,0-.08,0-.07.07Zm12-.08a3.4,3.4,0,0,0-1.7.65c-.24,0-.38.16-.55.28s-.29.35.05.51a3.41,3.41,0,0,1,2.16,2.78c.05.4.19.38.5.3a4.52,4.52,0,0,1,2.41,0c.33.1.46,0,.59-.28a3.13,3.13,0,0,0-.76-3.61A2.8,2.8,0,0,0,153.08,125.17ZM54.81,107.93c-.21-.56-.73-.91-1-1.42a.68.68,0,0,0-.82-.32c-.66.1-1.32.18-2,.27l-4.93.64a14.89,14.89,0,0,0,1.25,1.83,5.12,5.12,0,0,0,.71,1.13l3.44,5.2,3.42,5.15A.56.56,0,0,1,55,121q-1.57,4.8-3.13,9.61c-.4,1.24-.77,2.49-1.15,3.73a5.39,5.39,0,0,0-.45,1.28c-.16.44-.32.88-.47,1.33s-.1.56.43.49c2.88-.38,5.76-.79,8.65-1.14s6-.69,9-1,5.72-.59,8.58-.86c2.14-.2,4.28-.34,6.42-.51.13,0,.29,0,.34-.13s-.1-.23-.18-.32l-1.18-1.24c-.13-.16-.31-.14-.49-.16-.45,0-.9-.11-1.35-.15-1.35-.12-2.69-.4-4.05-.41a3.93,3.93,0,0,0-1.38-.21,1.94,1.94,0,0,1-1.7-.9,20.37,20.37,0,0,0-1.5-1.92l-7.47-9.26L55.77,109A4,4,0,0,0,54.81,107.93Zm101.3,26.65a2.21,2.21,0,0,0-1.93.34c-.12.07-.09.18,0,.3A4.11,4.11,0,0,1,154,139c-.21.39-.2.52.28.62a3.17,3.17,0,0,1,2.21,1.54c.28.51.38.52.83.17a4.35,4.35,0,0,0,1.65-4.11,3,3,0,0,0-2.63-2.68Zm37.55-26.66a3.75,3.75,0,0,0-.94,1.14c-.7.83-1.4,1.66-2.08,2.5L182.23,122c-2.28,2.84-4.57,5.66-6.82,8.53a1.75,1.75,0,0,1-1.4.71,3.19,3.19,0,0,0-1.32.22,6.72,6.72,0,0,0-.78,0l-4.69.55c-.13,0-.31,0-.34.17a7.72,7.72,0,0,0-.57,1.39c-.09.2,0,.3.23.31l1.36.1,6.5.58,3.25.31,5.33.56,3.92.45,4.2.51,5.17.65,2.41.33c.29,0,.44,0,.31-.36s-.33-.94-.5-1.42a5.59,5.59,0,0,0-.4-1.26c-.13-.45-.26-.91-.4-1.35-.48-1.49-1-3-1.45-4.45-.8-2.47-1.59-5-2.42-7.42a.78.78,0,0,1,.09-.77c1.72-2.59,3.45-5.17,5.15-7.77a29,29,0,0,0,1.61-2.5,3.75,3.75,0,0,0,.75-1.15,10.88,10.88,0,0,0,1.09-1.54c.16-.23.07-.33-.21-.36-.89-.1-1.77-.23-2.65-.34l-4.25-.54c-.17,0-.39-.08-.5.09A15,15,0,0,0,193.66,107.92Zm-47.93,24.4a5.19,5.19,0,0,0-3.51,1.71c-.11.11-.26.21-.24.4a.83.83,0,0,0-.16.17,3.27,3.27,0,0,0,0,3.22c.18.33.34.6.79.59a1.32,1.32,0,0,1,.78.25,1.24,1.24,0,0,0,1.48,0,.89.89,0,0,1,.27-.11c.27-.05.35-.21.35-.48a4.85,4.85,0,0,1,2.24-4c.56-.4.58-.39.12-.9a1.87,1.87,0,0,0-.12-.15A2.17,2.17,0,0,0,145.73,132.32ZM139,129.75a2.8,2.8,0,0,0-.51,2.57c.19.77.38.85,1.24.83a3.7,3.7,0,0,1,1.71.32.44.44,0,0,0,.62-.13,5.34,5.34,0,0,1,2.42-1.49c.32-.09.34-.25.29-.49a3.4,3.4,0,0,1,.25-2.09c.08-.18.15-.4,0-.55a2.42,2.42,0,0,0-1.51-.89A4,4,0,0,0,139,129.75ZM144.07,140a3,3,0,0,0-1.29,1.33.56.56,0,0,0,.12.8,20.66,20.66,0,0,1,3,3.68c.36.58.42.59,1.1.35a4.65,4.65,0,0,0,2.81-4.35,3,3,0,0,0-2.13-2.53.09.09,0,0,0-.07,0c-.13-.22-.34-.17-.53-.16A3.69,3.69,0,0,0,144.07,140Zm5.57-13a3.92,3.92,0,0,0-3.72,2l-.08.12,0,.15a2.54,2.54,0,0,0-.41,2.17c0,.2.19.23.37.23a3.48,3.48,0,0,1,3,1.5c.07.1.17.27.29.22.52-.23,1.14-.11,1.63-.43a4.15,4.15,0,0,0,1.61-3.84A2.9,2.9,0,0,0,149.64,126.95Zm-31.73,8.13h0a1.13,1.13,0,0,0,.08.22,13.79,13.79,0,0,1,1.5,10.87,13.4,13.4,0,0,1-3,5.79c-.26.3-.25.44.16.54a5,5,0,0,1,1.48.62c.31.19.42.13.49-.22a5.31,5.31,0,0,1,2-3.28,2.11,2.11,0,0,0,.83-1.31,7.81,7.81,0,0,0,.65-1.89l.22-.64c.62-1.88.93-3.91,2.61-5.28-.33-.27-.74-.31-1-.68a1.53,1.53,0,0,0,2.16-.22.76.76,0,0,0,.35-.71h0l.08-.1c.33-.55.47-.61,1.06-.4.39.14.77.33,1.15.49.42.32.74.65.37,1.22-.09.14-.06.35-.11.52s0,.38.31.4a39.59,39.59,0,0,0,7.14-.15h2.5c-.53-.32-.94-.78-1.42-1.1a4.1,4.1,0,0,1-1.69-2.63.84.84,0,0,0-.38-.53c-1.25-.86-2.53-1.67-3.7-2.63a11.1,11.1,0,0,0-2.6-1.5,1.29,1.29,0,0,0-.76-.13,18.85,18.85,0,0,0-3.51.12,24.52,24.52,0,0,1-4.44.22c-1.25-.07-2.49-.28-3.75-.31a1.85,1.85,0,0,1-1.24-.52l.72.08a22.07,22.07,0,0,0,5.21.14l3.48-.48h2.5l0-.14a4.68,4.68,0,0,1-1-.93c-.43-.52-1-1-1.12-1.67a1.17,1.17,0,0,0-.46-.81c-1.65-1.33-3.48-2.4-5.13-3.73a5.92,5.92,0,0,0-4-1.11,2.13,2.13,0,0,0-.78,0,41.27,41.27,0,0,1-10.51.12,10.51,10.51,0,0,1-3.43-.86h0c.15-.12.32,0,.47,0a38.74,38.74,0,0,0,7.38.51,13.64,13.64,0,0,0,3.44-.34c1.24-.16,2.48-.14,3.82-.2a4.23,4.23,0,0,1-1.74-2.13,2,2,0,0,0-1-1.18c-1.87-1.13-3.72-2.29-5.59-3.4a18.59,18.59,0,0,0-4.79-2.15,1.35,1.35,0,0,1-1-.58.49.49,0,0,0-.33-.2,10.1,10.1,0,0,0-3.56-.51c-.73.07-1.46.06-2.2.06a14.64,14.64,0,0,0-5.89,1.15c-.08,0-.16,0-.2.11h0a8.12,8.12,0,0,0-2.44,1.5,4.84,4.84,0,0,0-2,3.26,10,10,0,0,0,.11,3.86c.91,3,2.78,5.54,4.49,8.13.15.23.47.58.86.34a13.08,13.08,0,0,1,1.88-.91,9.81,9.81,0,0,1,5.23.2.57.57,0,0,0,.55-.1,31.52,31.52,0,0,1,3.41-.59,2.76,2.76,0,0,0,1.1-.14c.31-.19.2-.68.29-1,.18-.74.45-.87,1.16-.61a17.29,17.29,0,0,0,1.71.83c.2,0,.21.26.11.4-.34.54,0,.51.4.55a20.43,20.43,0,0,1,5.6,1.26A13.2,13.2,0,0,1,117.8,135C117.81,135,117.83,135.07,117.9,135.07Zm5.48,12.72c-.29.64-.29.66.39.64a5.65,5.65,0,0,1,2.94.7c.5.28.5.27.6-.35a10.85,10.85,0,0,0-.21-7.09c-.12-.33-.31-.36-.6-.18a4.56,4.56,0,0,0-1.73,2.07A37.28,37.28,0,0,0,123.38,147.79Zm26.86-14.16a.16.16,0,0,0-.21,0,4.18,4.18,0,0,0-3,1.94,3.05,3.05,0,0,0-.76,2.57c0,.21.18.18.33.19a3.78,3.78,0,0,1,3.54,2.11c.13.23.26.31.5.22a4.61,4.61,0,0,0,2.91-3,3.05,3.05,0,0,0-2.78-4Zm-14-29.08s-.08-.11-.14-.13c-.85-.37-1.44-.08-2,.75a13.44,13.44,0,0,0-1.88,3.79,15.42,15.42,0,0,1-1.48,3.69c-.07.11-.08.27-.25.3-.11-.24.15-.42,0-.67-.42.35-1,.25-1.54.47a3.88,3.88,0,0,1,1.17.84c.15.22.36.11.53.07a8.82,8.82,0,0,1,2.61-.1c.63.06,1.23.29,1.86.32a2,2,0,0,0,.72.1c.14,0,.27,0,.33-.16s0-.25-.12-.34a5.89,5.89,0,0,1-.45-.51,4.78,4.78,0,0,1-.52-3.44,6.06,6.06,0,0,1,.59-1.87c.13.39-.09.71,0,1.13l.5-.87a.82.82,0,0,1,.79-.48c.82.08.79-.24.72-.93a2.56,2.56,0,0,0-.19-.55A2.91,2.91,0,0,0,136.28,104.55Zm-7.57,48.91-.19.19a4.16,4.16,0,0,1-1,.3,2.55,2.55,0,0,1-2.28-1.54.78.78,0,0,1-.14-.83c.12.16.22.31.33.44s.13.16.25.1c.56-.33,1.1-.67,1.11-1.42.05-.16.16-.32-.06-.47a5.07,5.07,0,0,0-3.1-1,1,1,0,0,0-1.07.81,22.59,22.59,0,0,1-1.64,4.21c-.14.26,0,.38.19.47a8.48,8.48,0,0,1,2,1.86,5.2,5.2,0,0,1,.62,4.25c-.08.36.18.4.39.42a5.45,5.45,0,0,0,1.61,0,5.8,5.8,0,0,0,4.66-4.31,3,3,0,0,0-.13-2.21l-.08-.2-.09-.2a2.78,2.78,0,0,0-.7-1.26,3.52,3.52,0,0,0-.82-1c-.15-.17-.26-.09-.26.11A1.55,1.55,0,0,0,128.7,153.47Zm7.92-40.84,0,0,0,0c0,.22.19.29.29.43s.31.24.28.44c0,.44.21.37.47.32l2.38-.49c-.1.18-.3.23-.47.31a1.58,1.58,0,0,0-.65.19,8.47,8.47,0,0,1-4.19.73,16.1,16.1,0,0,0-3.59-.07,3.82,3.82,0,0,0-3.49,3c0,.1,0,.27-.23.33a2.78,2.78,0,0,1,0-1.57,2.91,2.91,0,0,1,1.59-1.93c.4-.21.33-.37,0-.59a6.57,6.57,0,0,0-1.24-.68,28.36,28.36,0,0,1-2.61-1.23,1.36,1.36,0,0,1-.62-.51,13.34,13.34,0,0,0,2.19.65l.47.18c.17,0,.34.19.51.1a5.47,5.47,0,0,1,1.35-.34,1.53,1.53,0,0,0,.91-.4,2.61,2.61,0,0,0,1.1-1.69c.11-.27.22-.54.31-.81s0-.29-.22-.23c-.76.24-1.55.41-2.38.59a7.12,7.12,0,0,0,.85,1c0,.17.14.27.24.38-.17.38-.29,0-.39,0a11.79,11.79,0,0,0-3.45-2,6.12,6.12,0,0,0-4.69.35,7.62,7.62,0,0,0-4.89,7.21,19.18,19.18,0,0,0,.86,6c.08.28.24.31.46.31a3.77,3.77,0,0,1,1.29.22c1.19.87,2.32,1.82,3.57,2.62.59.38,1.16.77,1.74,1.16a3.71,3.71,0,0,1,1.66,2.12,4.13,4.13,0,0,0,1,1.53c.08-1,.16-1.94.24-2.87s.14-1.95.21-2.92c0-.09,0-.22.11-.25s.17.12.2.22a7.29,7.29,0,0,1,.17.81c.22,1.84.26,3.7.31,5.55a.86.86,0,0,0,.93.93,2.08,2.08,0,0,1,1.1.35l.94.62c.16.11.28.16.38-.06s.37-.72.56-1.08a5.58,5.58,0,0,1,2.69-1.66,5.81,5.81,0,0,1,2.59.07c.13.15.28.13.35,0,.29-.71,1.08-1.18,1-2.11a2.56,2.56,0,0,1,.26-1.18,5,5,0,0,1,4.6-3.35,5.89,5.89,0,0,1,.87.08c.31.07.39,0,.4-.32a11.91,11.91,0,0,1,.59-3.25c.27-.87.27-.88.93-.3.26.23.38.21.53-.1.27-.57.58-1.13.87-1.69.31-.39.6-.81.94-1.18s.63-.88,1.22-.16a9.24,9.24,0,0,0-.32-2,4.14,4.14,0,0,0-2.21-3,7.11,7.11,0,0,0-5.21-.5c-.19.05-.36.13-.52-.08a5.58,5.58,0,0,0-2.18-1.76c-.57-.28-1.13-.75-1.85-.31a.56.56,0,0,1-.56-.07c-.41-.28-.67,0-.8.31a5.53,5.53,0,0,0-.45,2.08c0,.75,0,.74.73,1a3.1,3.1,0,0,1,1.71.87c.1.12.18.26.06.4s-.23,0-.34-.06A3.2,3.2,0,0,0,136.63,112.63Zm24.18,9.6h0c-1.09,1.64-2.12,3.32-3.27,4.91a.57.57,0,0,0-.07.42,3.8,3.8,0,0,1-.3,2.15.53.53,0,0,0,.16.75,3.68,3.68,0,0,1,1.33,2.87c0,.48.22.49.57.44.9-.13,1.79-.29,2.69-.44a4.4,4.4,0,0,1,1.67-.09.42.42,0,0,1-.33.23,30.7,30.7,0,0,1-4.16.8c-.15,0-.36-.08-.42.14a.6.6,0,0,0,.12.64,4.37,4.37,0,0,1,.87,1.34.51.51,0,0,0,.42.35,4.84,4.84,0,0,0,3.65-.63c.29-.19.37-.31,0-.47-.18-.08-.4-.17-.08-.39a6.07,6.07,0,0,0,2.1-3c.11-.28.06-.32-.2-.37-.65-.12-1.3-.27-2-.4-.27-.06-.42-.17-.29-.47s0-.46-.31-.56a2.83,2.83,0,0,0-2.13.19,1.17,1.17,0,0,1-1.21,0,.49.49,0,0,1,0-.87.9.9,0,0,1,.55-.17,7,7,0,0,1,1.45,0,.65.65,0,0,0,.55-.15,6.55,6.55,0,0,0,1.38-1.31,2.13,2.13,0,0,0,.6-1.25c.12-.17.07-.26-.12-.32-.47-.14-.47-.46-.32-.85a11.86,11.86,0,0,0,.79-3.65c0-.47,0-.55-.52-.45l-.24.06c-.32.12-.42,0-.4-.33a10,10,0,0,0-.22-2.91c-.08-.29-.17-.43-.54-.33a12.78,12.78,0,0,0-2.92,1.21c-.54.31-.64.3-.7-.31s-.25-.39-.52-.21a5.44,5.44,0,0,0-1.4,1.35c-.32.44-.32.45-.58-.06a2.14,2.14,0,0,1-.11-.22c-.11-.29-.3-.3-.54-.16a7.07,7.07,0,0,0-2,1.65.78.78,0,0,0-.16.72,2.29,2.29,0,0,1-.2,1.57c-.08.17-.2.31-.42.25a.39.39,0,0,1-.29-.41,1.66,1.66,0,0,1,.12-.52,5.46,5.46,0,0,0,.24-2.22c0-.22-.06-.61-.4-.4s-.52,0-.67-.27a6.46,6.46,0,0,0-2.17-2.71c-.37-.26-.59-.18-.85.15a12.85,12.85,0,0,0-1.5,2.89c-.31.72-.31.73-.94.31-.29-.19-.36-.09-.41.19-.1.56-.14,1.13-.21,1.69a1.44,1.44,0,0,0,.9,1.7,4.93,4.93,0,0,1,1.16,1.78c.05.16.15.22.29.17a2.75,2.75,0,0,1,1-.08c.23,0,.33-.08.32-.31a31,31,0,0,1,.21-4.08.61.61,0,0,1,.2-.55c0,.29,0,.5,0,.71a32,32,0,0,0,.17,3.26c0,.32.16.31.36.16a9,9,0,0,1,1.31-.74,5.42,5.42,0,0,1,3.23-.11,4,4,0,0,1,2,1.86c.13.28.26.08.35,0,.29-.41.57-.83.87-1.23,1.09-1.51,2.19-3,3.18-4.6.2.2,0,.35-.08.5-.15.33-.33.65-.5,1A.2.2,0,0,0,160.81,122.23Zm-45,30.86h-.28a1.14,1.14,0,0,0-1.09.07,4.53,4.53,0,0,0-2,.89,5,5,0,0,0-1.95,2.48,9.91,9.91,0,0,0-.71,4.29,5,5,0,0,0,3.37,4.72,8,8,0,0,0,3.92.47,5.87,5.87,0,0,0,4.55-3,9.27,9.27,0,0,0,1-2.79,4,4,0,0,0-.1-2.4,5.87,5.87,0,0,0-1.91-2.36c-.22-.17-.32-.1-.48.05a1.15,1.15,0,0,0-.31,1.27c-.32.48.32.14.31.36-.38.34-.5.37-1.35.22a3.49,3.49,0,0,1-2.65-1.61c-.19-.33-.31-.7.15-.95a.81.81,0,0,0,.23.67c.12.1.27.28.42.17.5-.36,1.15-.53,1.48-1.13.13-.23.14-.33-.1-.45-.43-.22-.85-.48-1.29-.69A1.92,1.92,0,0,0,115.85,153.08Zm31.57-.68a3.28,3.28,0,0,0-.33-1.37,47.35,47.35,0,0,0-3-5.91c-.51-.73-1.19-1.33-1.74-2a3.77,3.77,0,0,0-3-1.28c-.3,0-.59-.12-.9-.11-.93,0-1.86,0-2.79,0a30.15,30.15,0,0,1-6.1-.14c-.36-.06-.46,0-.36.36a10,10,0,0,1,.27,2.13,24.11,24.11,0,0,1-.61,5.87.9.9,0,0,0,.26,1.23,10.66,10.66,0,0,1,1.1,1.24,5.58,5.58,0,0,1,.73,6.39c-.38.74-.39.74.44.9l.24,0a17.5,17.5,0,0,1,3.52.55,13.25,13.25,0,0,0,5.38.32,12.63,12.63,0,0,0,4.32-1.73A6,6,0,0,0,147.42,152.4ZM99.8,135.72a1.54,1.54,0,0,0-.62.45,4.27,4.27,0,0,0-1.7,2.49,8.63,8.63,0,0,1-2.54,4.89c-1.09,1.09-2.35,2-3.43,3.12a.59.59,0,0,0-.19.65c0,.17.12.34.19.5a11,11,0,0,0,2,3.7,13.46,13.46,0,0,0,5.68,3.4,17.07,17.07,0,0,0,10.37.19,1.68,1.68,0,0,0,.94-.48,6.07,6.07,0,0,1,3.65-2.19,1.39,1.39,0,0,0,.71-.4,14,14,0,0,0,3.92-9.37,11.91,11.91,0,0,0-.42-3.62,5.92,5.92,0,0,0-.76-2l0-.1c0-.06,0-.09-.06-.11a8.07,8.07,0,0,0-2-3.06c-2.66-2.43-5.92-3.28-9.41-3.51-.29,0-.37.12-.39.37a9.35,9.35,0,0,0,0,2.58c.07.5.15,1,.2,1.5,0,.35.18.4.49.32a9.22,9.22,0,0,0,1.39-.59c.17-.08.37-.29.52-.07s-.1.38-.23.53a.54.54,0,0,1-.12.09,5.52,5.52,0,0,1-5.19.72,2.42,2.42,0,0,1-1.25-.8c-.19-.27-.51-.6-.2-.9s.66,0,.95.2.54.57.86.41.23-.57.26-.89a5.23,5.23,0,0,0,.22-2.31c-.83,1-1.6,1.9-3,1.56A3.55,3.55,0,0,1,99.8,135.72ZM88.43,147a3.15,3.15,0,0,0,2.67-1.3,18.89,18.89,0,0,1,2.39-2.16,7.69,7.69,0,0,0,3-4.55A6.52,6.52,0,0,1,99,135.29a2.24,2.24,0,0,0,.85-2.67c-.19-.63-.29-.69-.94-.61-.11,0-.22.05-.33.08a7.31,7.31,0,0,0-3,1.66,22.4,22.4,0,0,0-2.5,2.61,19.56,19.56,0,0,0-3,4,13.91,13.91,0,0,1-1.92,2.71,7.44,7.44,0,0,0-1.32,2.16,3.58,3.58,0,0,0-.34,1.85c0,.15,0,.41.28.21A1.93,1.93,0,0,1,88.43,147Zm-2.17-.46a8.18,8.18,0,0,1,1-2.63,54.46,54.46,0,0,0,3.19-5.2,9.43,9.43,0,0,1,1.89-2.59c.95-.92,2-1.73,2.9-2.68a6.73,6.73,0,0,1,3.32-1.73c.23-.06.62,0,.65-.17s-.34-.39-.57-.52a7.59,7.59,0,0,0-8.9,1.63,18.92,18.92,0,0,0-2.28,3.1,13.67,13.67,0,0,0-2.08,6.38A8.35,8.35,0,0,0,86.26,146.52Zm49.81,15.83-3.26-.57c-.2,0-.29.13-.4.24q-3.94,4.21-7.86,8.44c-.32.35-.49.38-.82,0-1.15-1.29-2.34-2.54-3.52-3.8-.13-.14-.22-.27-.44-.15a7.75,7.75,0,0,1-2.88.81l7.25,7.78Zm-30.54-55.12,1,1.65a27.87,27.87,0,0,0,3.68,4.23,14.54,14.54,0,0,1,2.72,3.84,3.06,3.06,0,0,0,1.37,1.67,1,1,0,0,1,.56.9,1.33,1.33,0,0,0,.52,1,1.11,1.11,0,0,0,0-.27c-.11-.71-.15-1.42-.21-2.13a13.84,13.84,0,0,1,.34-5.17.72.72,0,0,0-.19-.79,10.65,10.65,0,0,0-2.78-2C110.36,108.93,107.91,108.35,105.53,107.23Zm-18.61,24c.07.06.18.09.21,0a.3.3,0,0,0-.05-.22,1.66,1.66,0,0,0-.21-.26c-1.71-1.84-3.43-3.68-5.13-5.53a.44.44,0,0,0-.69-.08,71.06,71.06,0,0,0-5.69,4.32c-.1.09-.32.11-.26.3s.23.07.35.13a.53.53,0,0,0,.19,0c1.63.18,3.25.37,4.87.58C82.64,130.81,84.78,131,86.92,131.26Zm86.6-1.39a2.58,2.58,0,0,0-.29-.34c-1.91-1.53-3.86-3-5.87-4.43-.14-.1-.27-.15-.37,0-.38.55-1.23.79-1.12,1.67,0,0,0,.09-.05.13a5.22,5.22,0,0,1-1.62,2.56c-.29.25-.27.4.11.51a.39.39,0,0,1,.29.5c-.1.38.13.36.37.38a9.39,9.39,0,0,0,1.5-.14c1.27-.14,2.54-.29,3.81-.44Zm-22.89,12.54a4.28,4.28,0,0,1-.51,2.14.6.6,0,0,0,0,.6,4.21,4.21,0,0,1,.62,2,.4.4,0,0,0,.41.44,5,5,0,0,0,1.46,0,4.36,4.36,0,0,0,3.3-3.72c.33-2.11-.39-3.13-2.3-3.54a.92.92,0,0,0-.84.24,5,5,0,0,1-1.82,1,.35.35,0,0,0-.3.42A4.61,4.61,0,0,1,150.63,142.41Zm-38.39-25.19a1.59,1.59,0,0,0-.27-.69,23,23,0,0,0-3.57-4.55,15.87,15.87,0,0,1-2.2-2.91c-.22-.38-.43-.76-.7-1.23a16.66,16.66,0,0,0-.18,2.15,8,8,0,0,0,.39,2.39c.16.45.09,1,.62,1.32.85.48,1.68,1,2.52,1.48C110,115.83,111.11,116.45,112.25,117.23Zm13.73,23-.41.34a8.09,8.09,0,0,0-2.36,3.87c-.59,2-1.19,4-1.86,6-.74,2.19-1.6,4.29-3.77,5.49-.16.09-.14.19,0,.32a1.93,1.93,0,0,0,1.42.52c.2-.05.31-.15.18-.34s0-.5.14-.72a11,11,0,0,0,1.89-3.34c1-2.66,1.79-5.37,2.64-8.07a5.66,5.66,0,0,1,2-3.1C126.26,140.88,126.32,140.64,126,140.25Zm1.44-.39.25-.06c.25-.08.68,0,.71-.28s-.38-.49-.67-.62a2.28,2.28,0,0,0-.47-.12.26.26,0,0,0-.29.12,2,2,0,0,0,.2,1.89,2.46,2.46,0,0,1,.88,1.37,10.79,10.79,0,0,1,.21,5.21,29.57,29.57,0,0,1-1,4.22,1.18,1.18,0,0,1-.56.76c-.4.19-.41.34-.07.64a1.36,1.36,0,0,0,.66.28c.39.08.53-.1.42-.45a1.89,1.89,0,0,1,0-1.15c.28-1,.56-2,.82-3.06a13.89,13.89,0,0,0,.14-6.62c-.11-.49-.16-1-.83-1.16,0,0-.07-.09-.12-.15.19,0,.34-.09.5-.11s.26-.06.24-.23-.14-.15-.26-.17A1.59,1.59,0,0,1,127.42,139.86Zm-23.3-5.47a2.47,2.47,0,0,1,0,.44c-.08.44.2.49.51.48s.57,0,.53-.51c-.14-1.83-.43-3.67.21-5.47a.45.45,0,0,0-.21-.58c-.18-.11-.35-.24-.53-.35-.44-.26-.71-.18-.87.29a8.59,8.59,0,0,1-1,1.91c-.57.87-1.17,1.7-2.43,1.26-.09,0-.2,0-.23.1a.24.24,0,0,0,.08.26,1.64,1.64,0,0,0,1.62.21,2.83,2.83,0,0,0,1-.84,9.89,9.89,0,0,0,1-1.52c.11-.2.17-.55.49-.4s.07.42,0,.62a.72.72,0,0,0-.11.42A16.25,16.25,0,0,1,104.12,134.39Zm45.62,13.09a3.79,3.79,0,0,0-.22-1.2c-.09-.33-.24-.48-.56-.15a3.85,3.85,0,0,1-2.05,1.15c-.33.07-.32.25-.25.5.25.94.89,1.69,1.22,2.6.07.2.22.16.35,0A4.2,4.2,0,0,0,149.74,147.49ZM86.83,135a19.08,19.08,0,0,1,1.52-2.21l-4-.46Zm54.82,6.39c.12.05.24-.07.35-.27a4.88,4.88,0,0,1,1-1.35c.12-.12.37-.18.33-.38s-.29-.23-.48-.29a4.15,4.15,0,0,0-3.63.78c-.22.14-.06.23,0,.34A3.32,3.32,0,0,0,141.65,141.44ZM99.31,130.78c.44.81,1.21.57,1.8.62s.81-.58,1.22-1.06A19,19,0,0,0,99.31,130.78Zm9.38,27.73.48-1.65-1.66.38Z" style="fill:#262121"/><path d="M98.19,111.15c-1.15,0-2.31,0-3.46,0a15.45,15.45,0,0,0-6.44,1.55c-.91.45-1.47,1.34-2.32,1.84-1.18.68-1.45,1.84-1.81,3a78.47,78.47,0,0,0-12.45,8.9l-4.08-5L59,110.66l-5.82-7.23a1,1,0,0,1-.09-.17A109.78,109.78,0,0,1,110,78a111.48,111.48,0,0,1,14.1-.93,109.25,109.25,0,0,1,10.94.54,107.89,107.89,0,0,1,11.83,1.82,109.75,109.75,0,0,1,48.48,23.79c-.95,1.2-1.88,2.41-2.84,3.61q-2.84,3.55-5.69,7.08L180,122.52l-3.17,3.91a74.1,74.1,0,0,0-7.33-5.68,61,61,0,0,0-5.21-3.26c-.26-.84-.26-.84-1.2-.75h-.14c-.14-.09-.26-.19-.41-.27a81.19,81.19,0,0,0-8.3-3.9,49.82,49.82,0,0,0-5-1.79,6.73,6.73,0,0,0-4.66-1.38,15.87,15.87,0,0,0-2.57-.6,5.78,5.78,0,0,0-2.72-1.35c-.33-.09-.49-.21-.46-.59a2.17,2.17,0,0,0-.78-1.77c-.4-.37-.64-.89-1.08-1.25a2.41,2.41,0,0,0-2.83,0,6.56,6.56,0,0,0-1.75,2.49l-.33.81c-2.26-.23-4.52-.34-6.79-.38a78,78,0,0,0-8,.3c-2.29.19-4.57.51-6.83.89a19.4,19.4,0,0,1-5-2.17.62.62,0,0,0-.72-.13c-.28.16-.26.41-.24.68a11.94,11.94,0,0,1-.12,3A55.72,55.72,0,0,0,98.19,111.15Zm-34.79-8c.53,0,.7.48.94.83l7.51,11.57c.65,1,.63,1.12-.33,1.83s-.9.66-.23,1.57A.42.42,0,0,0,72,119c2-1.55,4.11-3.05,6.28-4.42a.35.35,0,0,0,.14-.53c-.57-1.08-.65-1.1-1.64-.45l-.12.08c-.55.35-.78.33-1.14-.22-1.16-1.77-2.3-3.56-3.45-5.34a.49.49,0,0,1,.17-.78l3.39-2.23a.5.5,0,0,1,.81.18c1,1.82,2.11,3.64,3.15,5.47.41.72.36.83-.35,1.28-.91.58-.91.42-.31,1.42.23.39.43.44.81.2,2-1.25,4-2.38,6.14-3.45.59-.3.62-.37.29-1-.48-.84-.48-.84-1.29-.38-1.1.62-1.15.6-1.79-.51L76.27,96.6c-.75-1.3-.76-1.31.52-2s.89-.6.4-1.47c-.29-.52-.37-.54-.87-.24l-6.22,3.6c-1.06.61-1,.48-.35,1.64a.39.39,0,0,0,.61.16l1-.6a.5.5,0,0,1,.76.16c.11.16.23.32.33.49q1.15,2,2.28,4c.3.53.26.67-.23,1l-3.14,2.08c-.69.46-.89.42-1.33-.28q-1.21-1.9-2.4-3.81c-.61-1-.6-1,.35-1.63l.08-.06c1.07-.69.89-.62.29-1.53-.23-.35-.44-.37-.76-.14-.74.53-1.5,1-2.25,1.56-1.48,1-2.95,2-4.43,3.05-.35.24-.4.46-.16.8.72,1.06.47,1,1.5.31l.36-.25A1.46,1.46,0,0,1,63.4,103.11Zm117.74,2a5.25,5.25,0,0,0-.82-1.36,5.44,5.44,0,0,0-7.18-.89A11.46,11.46,0,0,0,169,108a7.71,7.71,0,0,0-.76,4.56,2.06,2.06,0,0,0,1.1,1.57,10.62,10.62,0,0,0,3.85,1.19c.36,0,.42.15.28.45-.28.62,0,1,.5,1.38.82.55,1.6,1.18,2.4,1.78s.81.61,1.44-.26a.42.42,0,0,0-.1-.69c-.72-.57-.73-.65-.17-1.41q5-6.74,10-13.48c.27-.36.25-.57-.14-.81-1.27-.8-2.52-1.62-3.78-2.44-.85-.55-1-.52-1.49.36a.36.36,0,0,0,.09.54l.92.73a.51.51,0,0,1,.13.77Zm-58.4-3.94v-.08l.34,0c.82,0,1.63,0,2.45,0,.43,0,.61-.13.55-.56a1.34,1.34,0,0,1,0-.34c.06-.46-.11-.64-.6-.62-.73,0-.84-.1-.94-.81a4,4,0,0,1,0-.44c-.07-2.48-.12-5-.21-7.43a5.5,5.5,0,0,0-1.08-3.34,2.25,2.25,0,0,0-1.94-1,10.79,10.79,0,0,0-4.64,1.4c-.24.15-.34.09-.43-.13s-.14-.26-.19-.4a.6.6,0,0,0-.79-.42c-1.38.26-2.76.48-4.14.7-.3,0-.44.19-.4.49s0,.39.06.58.17.47.51.43l.29,0c.71,0,.87.06,1,.77.12.9.2,1.81.29,2.72.23,2.29.46,4.57.67,6.86.07.7,0,.78-.72.87-.19,0-.45,0-.53.19a1.79,1.79,0,0,0,.1,1.14c.09.32.43.17.64.14q2.47-.32,5-.51c.93-.07,1,.13.84-1,0-.4-.19-.54-.59-.5-.69.06-.84-.06-.9-.74-.24-2.58-.48-5.16-.71-7.74-.12-1.42,0-1.6,1.4-2l.14,0a1.48,1.48,0,0,1,2.13,1.12,2.72,2.72,0,0,1,.16.71c.16,2.62.23,5.24.31,7.87,0,.46-.15.66-.6.68-.67,0-.74,0-.69.84,0,.08,0,.16,0,.24,0,.32.15.45.49.45C120.84,101.18,121.79,101.19,122.73,101.19ZM100.65,93a.83.83,0,0,1,.37-.72,5.78,5.78,0,0,1,1.58-.87,1,1,0,0,1,1,.13,3.26,3.26,0,0,1,1.18,2.08c.49,2.26,1,4.52,1.44,6.78.18.87.14.94-.71,1.13-.34.08-.48.24-.39.59a4.67,4.67,0,0,1,.1.48c.06.39.22.55.66.45,1.64-.37,3.28-.7,4.94-.93,1-.13,1-.14.8-1.08-.07-.38-.22-.53-.62-.46-.77.13-.84.07-1-.66-.5-2.44-1-4.88-1.5-7.32a6.33,6.33,0,0,0-1.47-3.3,2.4,2.4,0,0,0-2.26-.89,10.57,10.57,0,0,0-4.33,2.07c-.23.19-.39.27-.55-.06,0-.1-.15-.18-.2-.28-.22-.43-.52-.48-1-.29-1.23.52-2.48,1-3.71,1.5-.48.19-.53.38-.3,1s.31.68.87.47.79-.16,1,.45a3.85,3.85,0,0,1,.16.46Q98,98,99.12,102.31c.22.82.17.92-.63,1.16-.47.14-.56.38-.39.79,0,.06,0,.13.06.19.19.63.2.63.81.44,1.6-.49,3.22-.95,4.85-1.34,1-.25,1-.11.67-1.23-.08-.32-.26-.4-.58-.33-.75.18-.86.11-1.06-.64-.56-2.09-1.11-4.19-1.66-6.28ZM133.5,87a19.81,19.81,0,0,0-4.75.47.61.61,0,0,0-.53.49,4.41,4.41,0,0,0,.09,2.46c.31,1,.87,1.2,1.75.73a2.69,2.69,0,0,0,.52-.37,3.84,3.84,0,0,0,1-1.54c0-.13.06-.28.23-.36a1.61,1.61,0,0,1,2.39,1.06c0,.11.06.22.09.33a8,8,0,0,1,0,2.29c0,.35-.12.42-.47.38a9.63,9.63,0,0,0-4.06.34,4.53,4.53,0,0,0-2.09,7.36,2.24,2.24,0,0,0,1.77.78,8.56,8.56,0,0,0,3.37-.74c.38-.17.56-.14.61.28s.41.69.9.74c1.09.11,2.17.27,3.25.42.64.09.68.07.8-.57,0-.13,0-.26,0-.39,0-.33-.1-.46-.42-.52-.74-.12-.77-.16-.68-.92.2-1.73.45-3.46.65-5.19a21.25,21.25,0,0,0,.35-4.23,3.42,3.42,0,0,0-3.19-3.3C134.57,87,134,87,133.5,87ZM85.82,97.47c.07-.26-.16-.6.1-.86.89-.89,1.31-1,2.29-.23a5.39,5.39,0,0,1,1.44,2.3c.13.32.09.44-.24.58A10.35,10.35,0,0,0,86,101.57a4.31,4.31,0,0,0,.39,6.67,2.86,2.86,0,0,0,3.45.24,8.88,8.88,0,0,0,2.44-2.08c.25-.31.42-.31.66,0s.46.48.88.32c1.2-.46,2.42-.87,3.63-1.3.13,0,.32-.08.32-.26a2,2,0,0,0-.36-1.1c-.18-.27-.46-.06-.67,0a.62.62,0,0,1-.87-.38c-.08-.18-.17-.35-.24-.53-.71-1.8-1.41-3.61-2.13-5.41a14.76,14.76,0,0,0-1.39-3,3.46,3.46,0,0,0-4.54-1.23c-.65.35-1.31.66-1.93,1a16.3,16.3,0,0,0-3,2.26c-.2.2-.47.37-.4.73A3.91,3.91,0,0,0,83.65,100,.87.87,0,0,0,85,99.87,3.07,3.07,0,0,0,85.82,97.47Zm67.81,8.81a6,6,0,0,0,4.27-1.54,10.87,10.87,0,0,0,3.11-6,5.3,5.3,0,0,0-3.4-6.54c-3.45-1.55-6.45-.57-8.25,2.72a13.76,13.76,0,0,0-1.63,5.13,4.79,4.79,0,0,0,1.44,4.33A7.27,7.27,0,0,0,153.63,106.27Zm-1.47-20.69c0-.23-.11-.41-.35-.57a5.07,5.07,0,0,0-3.32-.78c-2.4.23-4.29,1.25-5.15,3.63-.2.57-.43.57-.89.45-1.21-.3-1-.23-1.2.78-.13.55-.07.61.5.74a5.18,5.18,0,0,0,.67.15c.35,0,.37.18.3.49-.4,1.78-.78,3.56-1.17,5.34l-1,4.63c-.08.39-.25.61-.71.51-.7-.15-.7-.13-.86.57,0,.1-.05.19-.07.28-.07.33,0,.52.39.58q1,.17,2.06.4,2.19.49,4.37,1c.42.1.67,0,.7-.44a3.61,3.61,0,0,1,.1-.48c.07-.31,0-.49-.37-.55s-.83-.17-1.24-.27-.64-.31-.53-.85q1.07-5,2.14-10c.06-.26.15-.34.43-.27.6.15,1.21.25,1.81.38.43.1.74.06.78-.48a3.43,3.43,0,0,1,.13-.57c.07-.29,0-.47-.32-.53l-1.1-.24c-1.39-.29-1.4-.29-1-1.65a2.81,2.81,0,0,1,.8-1.43c.25-.21.46-.29.58.16a3,3,0,0,0,1,1.61.86.86,0,0,0,1.4-.11A3.92,3.92,0,0,0,152.16,85.59Zm16.77,12c0-.21-.08-.33-.27-.41l-4.1-1.71a.39.39,0,0,0-.49.07c-.63.68-.56,1.1.25,1.49l0,0c.59.3.66.44.37,1-.58,1.18-1.19,2.36-1.78,3.53q-1.27,2.51-2.55,5c-.33.63-.46.67-1.06.4l-.22-.1c-.32-.19-.52-.07-.65.24l-.17.35c-.26.52-.24.6.31.84,1.87.8,3.69,1.71,5.5,2.67.85.45.82.64,1.37-.48a.4.4,0,0,0-.22-.63c-.29-.14-.58-.3-.87-.45-.72-.36-.78-.5-.42-1.2l3.5-6.83a2.42,2.42,0,0,1,.56-.79,1.13,1.13,0,0,1,1.15-.11c.37.11.44.35.47.69a2.38,2.38,0,0,0,.47,1.17c.43.61.75.7,1.41.34a4.55,4.55,0,0,0,1.9-2.23.8.8,0,0,0-.44-1.23,4.77,4.77,0,0,0-2.12-.51,8.33,8.33,0,0,0-1.76.1c-.29.06-.38,0-.31-.33S168.89,97.86,168.93,97.55Z" style="fill:#ed2e26"/><path d="M105.69,133.19a9.35,9.35,0,0,1,0-2.58c0-.25.11-.39.39-.37,3.49.22,6.75,1.08,9.41,3.51a8.07,8.07,0,0,1,2,3.06l.06.11,0,.1a8.33,8.33,0,0,0,.37,1.45,15.92,15.92,0,0,1,.33,5.42,9.58,9.58,0,0,1-2.1,4.89,10.89,10.89,0,0,1-2.53,2.11,13.76,13.76,0,0,1-6.33,2,13.1,13.1,0,0,1-3.5,0c-.9-.13-1.8-.25-2.68-.45a14.32,14.32,0,0,1-3.79-1.57,7.34,7.34,0,0,1-3.61-4.58c-.22-.82-.05-1.14.67-1.63A7.85,7.85,0,0,0,98,139.51a6.42,6.42,0,0,1,1.27-2.9,2,2,0,0,0,.56-.89,3.55,3.55,0,0,0,.77-2.78c1.41.34,2.17-.53,3-1.56a5.23,5.23,0,0,1-.22,2.31c-.54-.1-1.08-.22-1.62-.31a.7.7,0,0,0-.84.42,1,1,0,0,0,0,1,3.1,3.1,0,0,0,1.42,1.14,6,6,0,0,0,4,.26,5.6,5.6,0,0,0,2.56-1.42.72.72,0,0,0,.07-1,2.16,2.16,0,0,0-1.51-.68A14.27,14.27,0,0,0,105.69,133.19Zm4,5.1a2.55,2.55,0,0,0,1.71-.47c.17-.14.44-.25.36-.52a.76.76,0,0,0-.61-.5,1,1,0,0,0-.43,0q-1.15.33-2.29.69c-.17.05-.33.13-.29.38s.2.27.39.29Z" style="fill:#ed2e26"/><path d="M124.78,131.6l-3.48.48a22.07,22.07,0,0,1-5.21-.14l-.72-.08a1.85,1.85,0,0,0,1.24.52c1.26,0,2.5.24,3.75.31a24.52,24.52,0,0,0,4.44-.22,18.85,18.85,0,0,1,3.51-.12,3.61,3.61,0,0,0,.92,1.1c.69.45,1.39.88,2.07,1.34.92.63,2,1.1,2.49,2.19-1.18-.41-2.37-.78-3.59-1.08a10.51,10.51,0,0,0-6.93.48,5.86,5.86,0,0,0-2,1.41.45.45,0,0,0,.08.78.78.78,0,0,0,.72.2,3.78,3.78,0,0,0,2.25.32,7.49,7.49,0,0,1,2.07-.21.76.76,0,0,1-.35.71,1.53,1.53,0,0,1-2.16.22c.28.36.69.41,1,.68-1.69,1.36-2,3.4-2.61,5.28l-.22.64c-.41-.51-1-.85-1.37-1.37a30.67,30.67,0,0,0,0-3.26,11.27,11.27,0,0,0-2.07-6c-.2-.26-.35-.58-.71-.68h0c0-.09,0-.18-.11-.11a13.2,13.2,0,0,0-5.66-4.43,20.43,20.43,0,0,0-5.6-1.26c-.36,0-.74,0-.4-.55.09-.15.09-.35-.11-.4a17.29,17.29,0,0,1-1.71-.83c-.72-.26-1-.13-1.16.61-.09.36,0,.85-.29,1a2.76,2.76,0,0,1-1.1.14,31.52,31.52,0,0,0-3.41.59,2.42,2.42,0,0,0-1.46-.77c-.83-.11-.84-.19-.9-1,0-.31-.23-.32-.43-.37a8.06,8.06,0,0,0-1.09-.23c-.43,0-.7-.2-.74-.68,0-.26-.24-.43-.44-.62a9.44,9.44,0,0,0-2-1.07l.49-.34c.59-.41.61-.59.05-1.06a4.09,4.09,0,0,1-1.13-1.32,8.28,8.28,0,0,0-1-1.72c-.13-.16-.34-.27-.35-.51a13.87,13.87,0,0,0-.37-2,2.63,2.63,0,0,1,.32-1.82,5.16,5.16,0,0,1,3.94-2.45,19.83,19.83,0,0,1,6.48-.22c.32.05.85,0,.93.29.14.56.55.56.89.55,1.57-.05,2.85.76,4.2,1.36,1.07.47,2.05,1.09,3.07,1.65.72.4,1.41.86,2.12,1.29.18.11,0,.12,0,.16-1.21-.39-2.42-.75-3.65-1.07a9.25,9.25,0,0,0-7.08.81,5,5,0,0,0-2.11,2,.59.59,0,0,0,.22.91c.05.1.12.1.2,0h.19c0,.13.1.19.19.26.35.27.7,0,1.05,0,1,0,1.86-.52,2.85-.51s2-.41,3-.3a7.21,7.21,0,0,0,1.7.07,7.21,7.21,0,0,1,1.36-.07,3.93,3.93,0,0,1,2.72,1,7.24,7.24,0,0,0,.6.48,13.64,13.64,0,0,1-3.44.34,38.74,38.74,0,0,1-7.38-.51c-.15,0-.32-.11-.47,0v0h0a10.51,10.51,0,0,0,3.43.86,41.27,41.27,0,0,0,10.51-.12,2.13,2.13,0,0,1,.78,0,1,1,0,0,0,.57.26,10.54,10.54,0,0,1,2.1,1,30.75,30.75,0,0,1,4.52,3.06c.11.08.25.14.21.34l-.34-.06h-.19a1.67,1.67,0,0,0-1-.48c-.74-.18-1.49-.32-2.24-.46a18.14,18.14,0,0,0-4.56-.33,6.44,6.44,0,0,0-3.42,1.15c-.33.24-.71.44-.8.9h0c-.08,0-.11,0-.1.1h0c-.1,0-.15,0-.19.13l0,.14c-.3.22-.18.41.06.55a1.11,1.11,0,0,0,.74.14,5.41,5.41,0,0,0,1.94.31l2.48-.08a28.08,28.08,0,0,1,4.47.15,10.27,10.27,0,0,1,4.4,1.21C124.37,131.37,124.66,131.33,124.78,131.6Z" style="fill:#fdf6db"/><path d="M55.77,109l8.16,10.15,7.47,9.26a20.37,20.37,0,0,1,1.5,1.92,1.94,1.94,0,0,0,1.7.9,3.93,3.93,0,0,1,1.38.21.88.88,0,0,1-.18.06c-3.33.29-6.65.63-10,1-3.76.4-7.51.86-11.26,1.32-1.28.16-2.54.4-3.83.47.38-1.24.76-2.49,1.16-3.73Q53.43,125.75,55,121a.56.56,0,0,0-.12-.54l-3.42-5.15L48,110.06l4.19-.56Z" style="fill:#b22018"/><path d="M172.7,131.46a3.2,3.2,0,0,1,1.32-.22,1.75,1.75,0,0,0,1.4-.71c2.25-2.86,4.54-5.69,6.82-8.53l8.4-10.44c.68-.85,1.39-1.67,2.08-2.5,1.24.15,2.49.28,3.73.45,1.42.18,2.83.39,4.25.59a29.1,29.1,0,0,1-1.61,2.5c-1.7,2.6-3.43,5.18-5.15,7.77a.78.78,0,0,0-.09.77c.82,2.47,1.61,4.95,2.42,7.42.48,1.48,1,3,1.45,4.45.14.45.27.9.4,1.35l-.68-.08c-3.77-.49-7.55-1-11.33-1.4q-5-.57-10.05-1.06C174.93,131.7,173.81,131.58,172.7,131.46Zm8.63-2.12a1.6,1.6,0,0,0-1.58-1.59,1.59,1.59,0,0,0,0,3.18A1.59,1.59,0,0,0,181.33,129.34Z" style="fill:#b22018"/><path d="M52.34,102.3a9.57,9.57,0,0,1-1-1.19c-.25-.28,0-.41.18-.54,1.16-.95,2.32-1.9,3.5-2.82a111.15,111.15,0,0,1,11.16-7.65,113.65,113.65,0,0,1,16-7.94A111.89,111.89,0,0,1,98.8,76.93q5.33-1.23,10.76-1.92c4-.51,8-.8,12-.91,3.69-.1,7.37,0,11,.26A109.58,109.58,0,0,1,144,75.78,111.45,111.45,0,0,1,160.42,80a110.23,110.23,0,0,1,10.76,4.27,115.32,115.32,0,0,1,11.36,6A111.21,111.21,0,0,1,195,99c.7.56,1.38,1.15,2.07,1.71.21.17.25.3.05.51-.34.37-.64.77-1,1.16-1.71-1.47-3.47-2.86-5.27-4.22A111.09,111.09,0,0,0,58,97.85C56.05,99.27,54.2,100.79,52.34,102.3Z" style="fill:#eb2e27"/><path d="M147.88,117.62c-.29.56-.6,1.12-.87,1.69-.15.31-.28.32-.53.1-.66-.58-.67-.57-.93.3a11.91,11.91,0,0,0-.59,3.25c0,.31-.09.39-.4.32a5.89,5.89,0,0,0-.87-.08,2,2,0,0,0-.41-.92,2.14,2.14,0,0,0-2.65-.17,4.54,4.54,0,0,0-1.42,1.95c-1,1.81-1,3.91-1.7,5.82a5.81,5.81,0,0,0-2.59-.07,5.58,5.58,0,0,0-2.69,1.66c0-.45-.06-.91-.11-1.36a28.44,28.44,0,0,0-.37-3,30.91,30.91,0,0,0-2-5.69A6.86,6.86,0,0,1,129,118a2.85,2.85,0,0,1,1.85-2.57,9.08,9.08,0,0,1,3.37-.38,10.26,10.26,0,0,0,4.32-.82c.38-.16.82-.23,1.06-.63.17-.09.37-.13.47-.31,0,0,.1,0,.08-.07l0,0a3.42,3.42,0,0,0-1.2.16c.5-.59.47-.78-.1-1.23a4.19,4.19,0,0,0-1.9-.84c-.46-.08-.58-.33-.57-.74a3.6,3.6,0,0,1,.17-.76.5.5,0,0,1,.59-.43A5.39,5.39,0,0,1,140.8,111a1,1,0,0,1,.19,1.21c-.08.16-.23.29-.07.48s.37.16.58.08a11.41,11.41,0,0,1,2-.53,3.69,3.69,0,0,1,4.62,3.61C148.08,116.44,147.89,117,147.88,117.62Zm-15,1v0h.34a4.46,4.46,0,0,0,2.64-.9c.2-.14.36-.3.29-.57s-.29-.32-.54-.32a2.14,2.14,0,0,0-.81.13,2.67,2.67,0,0,1-2,.08,3.87,3.87,0,0,0-.66-.17,1.08,1.08,0,0,0-1.19.71c-.11.51.17.85.83,1A10.13,10.13,0,0,0,132.86,118.64Z" style="fill:#71c267"/><path d="M52.34,102.3c1.86-1.51,3.71-3,5.64-4.46a111.05,111.05,0,0,1,132.9.28c1.8,1.35,3.56,2.75,5.27,4.22a4.27,4.27,0,0,1-.77.92,110,110,0,0,0-71.25-26.15A111.48,111.48,0,0,0,110,78a109.69,109.69,0,0,0-56.94,25.23A3.72,3.72,0,0,1,52.34,102.3Z" style="fill:#fcf8f6"/><path d="M126,128.62a3.71,3.71,0,0,0-1.66-2.12c-.58-.39-1.15-.78-1.74-1.16-1.24-.8-2.38-1.75-3.57-2.62-.19-.43-.39-.86-.57-1.29a12.89,12.89,0,0,1-.73-7.35,6.56,6.56,0,0,1,7.09-5.1,7.35,7.35,0,0,1,3,1.2,4,4,0,0,0,1.92.88c.12,0,.29.06.34-.11s-.09-.26-.25-.29-.23-.21-.24-.38a1.83,1.83,0,0,1,1.43-.5,2.61,2.61,0,0,1-1.1,1.69c-.53.1-1.07,0-1.6.1s-1-.06-1.18.54l-.47-.18a4.65,4.65,0,0,0-3.27-1.37c-.31,0-.29.19-.21.4a2.1,2.1,0,0,0,.91,1.11,19.35,19.35,0,0,0,2.66,1.08,4.53,4.53,0,0,1,1.65.82c.21.2.2.31-.08.4a2.66,2.66,0,0,0-1.08.54,3.19,3.19,0,0,0-.86,3c.16,1.19.27,2.39.34,3.58A21.56,21.56,0,0,1,126,128.62Zm-.94-13.14c.51.06.69-.28.82-.67a.62.62,0,0,0-.41-.82,2.49,2.49,0,0,0-1.22-.27,1,1,0,0,0-.87.6c-.07.15-.12.32.05.44A4,4,0,0,0,125.1,115.48Z" style="fill:#71c267"/><path d="M128.87,149.94a24.11,24.11,0,0,0,.61-5.87,10,10,0,0,0-.27-2.13c-.1-.38,0-.42.36-.36a30.15,30.15,0,0,0,6.1.14c.93,0,1.86,0,2.79,0,.31,0,.6.11.9.11a4.83,4.83,0,0,0,1,1.46,5.33,5.33,0,0,1,2,2.81,6.82,6.82,0,0,1-.19,4.46A3,3,0,0,1,140.9,152c-.5.3-1,.56-1.52.86a2.28,2.28,0,0,1-1.47.42,13.17,13.17,0,0,1-2.18-.4c-1-.31-2-.73-3-1.1-.23-.08-.58-.17-.67,0-.23.51-.63.49-1.05.51a1.88,1.88,0,0,1-.45-.57A19.69,19.69,0,0,0,128.87,149.94Z" style="fill:#fdf6db"/><path d="M110.86,119c.08,0,.22,0,0-.16-.71-.43-1.39-.89-2.12-1.29-1-.56-2-1.18-3.07-1.65-1.35-.6-2.63-1.41-4.2-1.36-.33,0-.75,0-.89-.55-.07-.3-.6-.24-.93-.29a19.83,19.83,0,0,0-6.48.22,5.16,5.16,0,0,0-3.94,2.45,2.63,2.63,0,0,0-.32,1.82,13.87,13.87,0,0,1,.37,2c0,.24.22.35.35.51a8.28,8.28,0,0,1,1,1.72,4.09,4.09,0,0,0,1.13,1.32c.55.46.54.65-.05,1.06l-.49.34a9.44,9.44,0,0,1,2,1.07c.2.19.42.35.44.62,0,.48.31.63.74.68a8.06,8.06,0,0,1,1.09.23c.19,0,.4.07.43.37.06.82.07.9.9,1a2.42,2.42,0,0,1,1.46.77.57.57,0,0,1-.55.1,9.81,9.81,0,0,0-5.23-.2.41.41,0,0,0-.15-.29,37.53,37.53,0,0,1-3.59-4.54c-.18-.26-.17-.41.06-.55s.24-.31.08-.55c-.4-.59-.74-1.22-1.13-1.81a4.46,4.46,0,0,1-1-3.13c0-.1,0-.2,0-.29a5.18,5.18,0,0,1,1.43-3.47,1.22,1.22,0,0,0,.29-.39,1.64,1.64,0,0,1,.73-.81c.14-.08.36-.11.37-.34h0c.1,0,.18,0,.2-.11a14.64,14.64,0,0,1,5.89-1.15c.73,0,1.47,0,2.2-.06a10.1,10.1,0,0,1,3.56.51.49.49,0,0,1,.33.2,1.35,1.35,0,0,0,1,.58,18.59,18.59,0,0,1,4.79,2.15c1.87,1.12,3.72,2.27,5.59,3.4a2,2,0,0,1,1,1.18A4.23,4.23,0,0,0,116,122.4c-1.34.06-2.58,0-3.82.2a7.23,7.23,0,0,1-.6-.48,3.93,3.93,0,0,0-2.72-1,7.21,7.21,0,0,0-1.36.07,7.21,7.21,0,0,1-1.7-.07c-1-.11-2,.31-3,.3s-1.87.46-2.85.51c-.36,0-.7.24-1.05,0-.09-.07-.18-.13-.19-.26a2.25,2.25,0,0,1,.2-.27,7.28,7.28,0,0,1,3.62-1.79,11.42,11.42,0,0,1,4.85-.09,52.83,52.83,0,0,1,5.71,1.11s0,0,.09-.06a2.34,2.34,0,0,0-.63-.78A6.1,6.1,0,0,0,110.86,119Z" style="fill:#fce094"/><path d="M131,152.3c.42,0,.83,0,1.05-.51.09-.21.44-.13.67,0,1,.36,2,.79,3,1.1a13.17,13.17,0,0,0,2.18.4,2.28,2.28,0,0,0,1.47-.42c.5-.3,1-.56,1.52-.86a3,3,0,0,0,1.22-1.45,6.82,6.82,0,0,0,.19-4.46,5.33,5.33,0,0,0-2-2.81,4.83,4.83,0,0,1-1-1.46,3.77,3.77,0,0,1,3,1.28c.55.7,1.23,1.31,1.74,2a47.35,47.35,0,0,1,3,5.91,3.28,3.28,0,0,1,.33,1.37c-.33-.08-.3-.48-.55-.65-.11.13-.07.27-.07.39a3.88,3.88,0,0,1-.54,1.95,6.05,6.05,0,0,1-3.38,2.67,3.39,3.39,0,0,1-2.24.27,14.32,14.32,0,0,0-3.55-.51c-1.55-.13-3.12-.11-4.67-.3-.29,0-.4-.15-.39-.43a6.09,6.09,0,0,0-.25-1.58C131.62,153.53,131.22,153,131,152.3Z" style="fill:#fce094"/><path d="M99.8,135.72a2,2,0,0,1-.56.89,6.42,6.42,0,0,0-1.27,2.9,7.85,7.85,0,0,1-3.51,5.13c-.72.49-.89.81-.67,1.63a7.34,7.34,0,0,0,3.61,4.58,14.32,14.32,0,0,0,3.79,1.57c.88.2,1.78.32,2.68.45a13.1,13.1,0,0,0,3.5,0,13.76,13.76,0,0,0,6.33-2,10.89,10.89,0,0,0,2.53-2.11,9.58,9.58,0,0,0,2.1-4.89,15.92,15.92,0,0,0-.33-5.42,8.33,8.33,0,0,1-.37-1.45,5.92,5.92,0,0,1,.76,2,11.91,11.91,0,0,1,.42,3.62,14,14,0,0,1-3.92,9.37,1.39,1.39,0,0,1-.71.4,6.07,6.07,0,0,0-3.65,2.19,1.68,1.68,0,0,1-.94.48,17.07,17.07,0,0,1-10.37-.19,13.46,13.46,0,0,1-5.68-3.4,11,11,0,0,1-2-3.7c-.07-.17-.14-.33-.19-.5a.59.59,0,0,1,.19-.65c1.08-1.11,2.34-2,3.43-3.12a8.63,8.63,0,0,0,2.54-4.89,4.27,4.27,0,0,1,1.7-2.49A1.54,1.54,0,0,1,99.8,135.72Z" style="fill:#b22018"/><path d="M88.43,147a1.93,1.93,0,0,0-1.66.33c-.24.2-.26-.05-.28-.21a3.58,3.58,0,0,1,.34-1.85,7.44,7.44,0,0,1,1.32-2.16,13.91,13.91,0,0,0,1.92-2.71,19.56,19.56,0,0,1,3-4,22.4,22.4,0,0,1,2.5-2.61,7.31,7.31,0,0,1,3-1.66c.11,0,.22-.06.33-.08.65-.08.75,0,.94.61a2.24,2.24,0,0,1-.85,2.67A6.52,6.52,0,0,0,96.51,139a7.69,7.69,0,0,1-3,4.55,18.89,18.89,0,0,0-2.39,2.16A3.15,3.15,0,0,1,88.43,147Z" style="fill:#71c267"/><path d="M160.91,122c.17-.32.36-.64.5-1,.06-.15.28-.3.08-.5a.5.5,0,0,0-.34.18,7.87,7.87,0,0,1-1.64.92,6.59,6.59,0,0,0-2.85,2.41c-.19.33-.36.22-.5,0a1.28,1.28,0,0,1-.16-.65c0-.16-.16-.28-.24-.12-.2.44-.6.78-.65,1.29a5.42,5.42,0,0,0-3.23.11,3.16,3.16,0,0,0-.37-1.25,12.51,12.51,0,0,0-1.39-2.67c-.06-.1-.17-.29-.27-.09-.46.92-1.36,1.59-1.51,2.69,0,.3-.19.42-.43.13a2.27,2.27,0,0,0-.66-.49c-.28-.15-.45-.13-.47.26s.13.74.11,1.11a1.44,1.44,0,0,1-.9-1.7c.08-.56.11-1.13.21-1.69.05-.28.13-.38.41-.19.63.42.64.41.94-.31a12.85,12.85,0,0,1,1.5-2.89c.26-.33.47-.41.85-.15a6.46,6.46,0,0,1,2.17,2.71c.15.31.24.53.67.27s.38.18.4.4a5.46,5.46,0,0,1-.24,2.22,1.66,1.66,0,0,0-.12.52.39.39,0,0,0,.29.41c.22.06.33-.08.42-.25a2.29,2.29,0,0,0,.2-1.57.78.78,0,0,1,.16-.72,7.07,7.07,0,0,1,2-1.65c.24-.14.43-.13.54.16a2.14,2.14,0,0,0,.11.22c.26.5.25.5.58.06a5.44,5.44,0,0,1,1.4-1.35c.27-.18.47-.28.52.21s.15.62.7.31a12.78,12.78,0,0,1,2.92-1.21c.37-.1.46,0,.54.33a10,10,0,0,1,.22,2.91c0,.34.08.45.4.33l.24-.06c.47-.11.53,0,.52.45a11.86,11.86,0,0,1-.79,3.65c-.14.39-.14.71.32.85.19.06.24.15.12.32l-.24.15a3.35,3.35,0,0,1-3.45.63,4.5,4.5,0,0,0,1.56-4.08,6.71,6.71,0,0,1-.95.42c-.51.14-.67-.05-.52-.56a4.52,4.52,0,0,0,.24-1.28h0A.19.19,0,0,0,160.91,122Z" style="fill:#299846"/><path d="M126,128.62a21.56,21.56,0,0,0,.77-7.14c-.07-1.2-.18-2.39-.34-3.58a3.19,3.19,0,0,1,.86-3,2.66,2.66,0,0,1,1.08-.54c.28-.08.29-.19.08-.4a4.53,4.53,0,0,0-1.65-.82,19.35,19.35,0,0,1-2.66-1.08,2.1,2.1,0,0,1-.91-1.11c-.08-.21-.1-.41.21-.4a4.65,4.65,0,0,1,3.27,1.37,13.34,13.34,0,0,1-2.19-.65,1.36,1.36,0,0,0,.62.51,28.36,28.36,0,0,0,2.61,1.23,6.57,6.57,0,0,1,1.24.68c.3.21.37.38,0,.59a2.91,2.91,0,0,0-1.59,1.93,2.78,2.78,0,0,0,0,1.57c.23-.06.22-.23.23-.33a3.82,3.82,0,0,1,3.49-3,16.1,16.1,0,0,1,3.59.07,8.47,8.47,0,0,0,4.19-.73,1.58,1.58,0,0,1,.65-.19c-.24.4-.69.48-1.06.63a10.26,10.26,0,0,1-4.32.82,9.08,9.08,0,0,0-3.37.38A2.85,2.85,0,0,0,129,118a6.86,6.86,0,0,0,.75,3.34,30.91,30.91,0,0,1,2,5.69,28.44,28.44,0,0,1,.37,3c0,.45.07.91.11,1.36-.19.36-.38.71-.56,1.08s-.23.17-.38.06l-.94-.62a2.08,2.08,0,0,0-1.1-.35.86.86,0,0,1-.93-.93c0-1.85-.09-3.71-.31-5.55a7.29,7.29,0,0,0-.17-.81c0-.1,0-.26-.2-.22s-.1.15-.11.25c-.07,1-.14,1.95-.21,2.92s-.15,1.87-.24,2.87A4.13,4.13,0,0,1,126,128.62Z" style="fill:#299846"/><path d="M86.26,146.52a8.35,8.35,0,0,1-.84-4.39,13.67,13.67,0,0,1,2.08-6.38,18.92,18.92,0,0,1,2.28-3.1,7.59,7.59,0,0,1,8.9-1.63c.23.13.61.24.57.52s-.42.11-.65.17a6.73,6.73,0,0,0-3.32,1.73c-.91.95-2,1.76-2.9,2.68a9.43,9.43,0,0,0-1.89,2.59,54.46,54.46,0,0,1-3.19,5.2A8.18,8.18,0,0,0,86.26,146.52Z" style="fill:#299846"/><path d="M136.07,162.35l-11.93,12.74-7.25-7.78a7.75,7.75,0,0,0,2.88-.81c.22-.12.31,0,.44.15,1.17,1.27,2.37,2.52,3.52,3.8.33.37.5.35.82,0q3.91-4.24,7.86-8.44c.11-.11.19-.27.4-.24Z" style="fill:#fdfcfb"/><path d="M112.44,154a4.53,4.53,0,0,1,2-.89,2.39,2.39,0,0,0,1.09-.07h.28c0,.17.17.15.3.19a6.23,6.23,0,0,1,1.85,1c-.36.1-.59-.09-.85-.08a1.62,1.62,0,0,0-1.79-.47l1.42.44c-.17.2-.52.25-.53.59v.12h0c-.46.25-.33.62-.15.95a3.49,3.49,0,0,0,2.65,1.61c.85.15,1,.11,1.35-.22,0-.22-.63.12-.31-.36.15,0,.33,0,.4-.14.25-.45.53-.24.81-.07a2.55,2.55,0,0,1,1.07,2.68,3.18,3.18,0,0,1-2.75,2.29,8.61,8.61,0,0,1-5.38-.82c-.6-.26-.87-.11-.93.53a10.77,10.77,0,0,0,.21,1.63c0,.47-.24.64-.68.45a1.17,1.17,0,0,1-.3-.17,4.3,4.3,0,0,1-1.16-1.43,6.23,6.23,0,0,1-.48-3.79,7.43,7.43,0,0,1,1-2.79C111.88,154.78,112.29,154.5,112.44,154Zm3.17,1.69a1.2,1.2,0,0,0,.2,1,4.52,4.52,0,0,0,3.89,2.24,3.19,3.19,0,0,0,1.59-.19c.37-.17.6-.44.44-.85a1.54,1.54,0,0,0-.68-.81c-.29-.16-.49-.12-.46.26a.44.44,0,0,1-.28.46,1.92,1.92,0,0,1-.79.24A3.64,3.64,0,0,1,115.61,155.73Z" style="fill:#b22018"/><path d="M131,152.3c.19.65.59,1.22.75,1.9a6.09,6.09,0,0,1,.25,1.58c0,.28.1.39.39.43,1.55.19,3.12.17,4.67.3a14.32,14.32,0,0,1,3.55.51,3.39,3.39,0,0,0,2.24-.27,6.05,6.05,0,0,0,3.38-2.67,3.88,3.88,0,0,0,.54-1.95c0-.12,0-.26.07-.39.25.16.22.57.55.65a6,6,0,0,1-2.56,6.49,12.63,12.63,0,0,1-4.32,1.73,13.25,13.25,0,0,1-5.38-.32,17.5,17.5,0,0,0-3.52-.55l-.24,0c-.83-.16-.82-.15-.44-.9a5.58,5.58,0,0,0-.73-6.39,10.66,10.66,0,0,0-1.1-1.24.9.9,0,0,1-.26-1.23,19.73,19.73,0,0,1,1.7,1.79A1.88,1.88,0,0,0,131,152.3Zm8,5.7c-.24-.13-.41-.25-.6-.33a4.68,4.68,0,0,0-1.28-.24l-3.89-.54c-.1,0-.25-.06-.3.08s.07.17.13.24a2.83,2.83,0,0,0,2.22.93A22.06,22.06,0,0,0,139,158Z" style="fill:#e2b33c"/><path d="M160.81,122.22a4.52,4.52,0,0,1-.24,1.28c-.15.51,0,.69.52.56a6.71,6.71,0,0,0,.95-.42,4.5,4.5,0,0,1-1.56,4.08,3.35,3.35,0,0,0,3.45-.63l.24-.15a2.13,2.13,0,0,1-.6,1.25,6.55,6.55,0,0,1-1.38,1.31.65.65,0,0,1-.55.15,7,7,0,0,0-1.45,0,.9.9,0,0,0-.55.17.49.49,0,0,0,0,.87,1.17,1.17,0,0,0,1.21,0,2.83,2.83,0,0,1,2.13-.19c.32.09.45.24.31.56s0,.42.29.47c.65.13,1.3.28,2,.4.26,0,.31.09.2.37a6.07,6.07,0,0,1-2.1,3c-.32.22-.1.31.08.39.37.16.29.27,0,.47a4.84,4.84,0,0,1-3.65.63.51.51,0,0,1-.42-.35,4.37,4.37,0,0,0-.87-1.34.6.6,0,0,1-.12-.64c.06-.22.27-.12.42-.14a30.7,30.7,0,0,0,4.16-.8.42.42,0,0,0,.33-.23,4.4,4.4,0,0,0-1.67.09c-.9.15-1.79.31-2.69.44-.35,0-.57,0-.57-.44a3.68,3.68,0,0,0-1.33-2.87.53.53,0,0,1-.16-.75,3.8,3.8,0,0,0,.3-2.15.57.57,0,0,1,.07-.42C158.7,125.54,159.72,123.86,160.81,122.22Z" style="fill:#01843e"/><path d="M81.87,132.18,83,133.42c.09.09.24.17.18.32s-.21.12-.34.13c-2.14.17-4.28.31-6.42.51q-4.3.4-8.58.86c-3,.32-6,.64-9,1s-5.77.76-8.65,1.14c-.52.07-.59,0-.43-.49s.31-.89.47-1.33l7.47-.93q6.31-.81,12.63-1.42C74.2,132.84,78,132.52,81.87,132.18Z" style="fill:#b22018"/><path d="M198.5,135.62c.16.47.32.95.5,1.42s0,.4-.31.36l-2.41-.33-5.17-.65-4.2-.51-3.92-.45-5.33-.56-3.25-.31-6.5-.58-1.36-.1c-.21,0-.32-.11-.23-.31a7.71,7.71,0,0,1,.57-1.39c2.61.23,5.23.44,7.84.7,3.63.35,7.26.71,10.89,1.12C189.92,134.48,194.21,135,198.5,135.62Z" style="fill:#b22018"/><path d="M112.44,154c-.15.46-.56.74-.81,1.13a7.43,7.43,0,0,0-1,2.79,6.23,6.23,0,0,0,.48,3.79,4.3,4.3,0,0,0,1.16,1.43,1.17,1.17,0,0,0,.3.17c.44.19.71,0,.68-.45a10.77,10.77,0,0,1-.21-1.63c.05-.65.32-.8.93-.53a8.61,8.61,0,0,0,5.38.82,3.18,3.18,0,0,0,2.75-2.29,2.55,2.55,0,0,0-1.07-2.68c-.28-.17-.56-.38-.81.07-.07.12-.25.15-.4.14a1.15,1.15,0,0,1,.31-1.27c.16-.16.26-.23.48-.05a5.87,5.87,0,0,1,1.91,2.36,4,4,0,0,1,.1,2.4,9.27,9.27,0,0,1-1,2.79,5.87,5.87,0,0,1-4.55,3,8,8,0,0,1-3.92-.47,5,5,0,0,1-3.37-4.72,9.91,9.91,0,0,1,.71-4.29A5,5,0,0,1,112.44,154Z" style="fill:#6f3231"/><path d="M105.53,107.23c2.38,1.12,4.83,1.7,7,2.94a10.65,10.65,0,0,1,2.78,2,.72.72,0,0,1,.19.79,13.84,13.84,0,0,0-.34,5.17c.06.71.1,1.43.21,2.13a1.11,1.11,0,0,1,0,.27,1.33,1.33,0,0,1-.52-1,1,1,0,0,0-.56-.9,3.06,3.06,0,0,1-1.37-1.67,14.54,14.54,0,0,0-2.72-3.84,27.87,27.87,0,0,1-3.68-4.23Z" style="fill:#01843e"/><path d="M86.92,131.26c-2.14-.24-4.28-.45-6.42-.72-1.62-.21-3.25-.4-4.87-.58a.53.53,0,0,1-.19,0c-.11-.06-.3,0-.35-.13s.16-.21.26-.3A71.06,71.06,0,0,1,81,125.17a.44.44,0,0,1,.69.08c1.7,1.85,3.42,3.69,5.13,5.53a1.66,1.66,0,0,1,.21.26.3.3,0,0,1,.05.22C87.1,131.34,87,131.31,86.92,131.26Z" style="fill:#6f3231"/><path d="M89.71,113.58c0,.23-.23.26-.37.34a1.64,1.64,0,0,0-.73.81,1.22,1.22,0,0,1-.29.39,5.18,5.18,0,0,0-1.43,3.47c0,.1,0,.2,0,.29a4.46,4.46,0,0,0,1,3.13c.4.59.74,1.22,1.13,1.81.16.24.18.38-.08.55s-.24.29-.06.55a37.53,37.53,0,0,0,3.59,4.54.41.41,0,0,1,.15.29,13.08,13.08,0,0,0-1.88.91c-.39.23-.7-.11-.86-.34-1.71-2.59-3.58-5.08-4.49-8.13a10,10,0,0,1-.11-3.86,4.84,4.84,0,0,1,2-3.26A8.12,8.12,0,0,1,89.71,113.58Z" style="fill:#e2b33c"/><path d="M198.5,135.62c-4.29-.58-8.59-1.14-12.89-1.61-3.63-.4-7.26-.76-10.89-1.12-2.61-.25-5.22-.47-7.84-.7,0-.22.21-.16.34-.17l4.69-.55a6.73,6.73,0,0,1,.78,0c1.11.12,2.23.24,3.34.35q5,.48,10.05,1.06c3.78.43,7.56.91,11.33,1.4l.68.08A5.59,5.59,0,0,1,198.5,135.62Z" style="fill:#fcf8f6"/><path d="M81.87,132.18c-3.83.34-7.67.66-11.5,1q-6.33.62-12.63,1.42l-7.47.93a5.41,5.41,0,0,1,.45-1.28c1.29-.07,2.55-.31,3.83-.47,3.75-.46,7.5-.92,11.26-1.32,3.32-.35,6.65-.7,10-1a.88.88,0,0,0,.18-.06c1.36,0,2.7.29,4.05.41.45,0,.9.1,1.35.15C81.55,132,81.74,132,81.87,132.18Z" style="fill:#fcf8f6"/><path d="M133.77,137c-.51-1.09-1.58-1.56-2.49-2.19-.68-.47-1.38-.89-2.07-1.34a3.61,3.61,0,0,1-.92-1.1,1.29,1.29,0,0,1,.76.13,11.1,11.1,0,0,1,2.6,1.5c1.17,1,2.45,1.77,3.7,2.63a.84.84,0,0,1,.38.53,4.1,4.1,0,0,0,1.69,2.63c.48.33.89.79,1.42,1.1h-2.5a.72.72,0,0,0-.36-.6,4.89,4.89,0,0,0-1.86-.79c-1.44-.36-2.93-.22-4.38-.49-.36-.07-.74-.07-1.11-.1s-.76-.35-1.15-.49c-.59-.21-.73-.15-1.06.4l-.08.1h0a7.49,7.49,0,0,0-2.07.21,3.78,3.78,0,0,1-2.25-.32,5.76,5.76,0,0,1,3.23-1.75,12.73,12.73,0,0,1,4.45.16c1.49.23,3,.29,4.48.51l.16,0a.72.72,0,0,0,.84.21A3.42,3.42,0,0,0,133.77,137Z" style="fill:#fce094"/><path d="M122.62,127.81l.34.06c0-.2-.11-.26-.21-.34a30.75,30.75,0,0,0-4.52-3.06,10.54,10.54,0,0,0-2.1-1,1,1,0,0,1-.57-.26,5.92,5.92,0,0,1,4,1.11c1.65,1.33,3.48,2.4,5.13,3.73a1.17,1.17,0,0,1,.46.81c.1.72.69,1.16,1.12,1.67a4.68,4.68,0,0,0,1,.93l0,.14h-2.5c-.11-.27-.41-.23-.61-.35a10.27,10.27,0,0,0-4.4-1.21,28.08,28.08,0,0,0-4.47-.15l-2.48.08a5.42,5.42,0,0,1-1.94-.31,3.56,3.56,0,0,1,1.22-.77,20.62,20.62,0,0,1,5.1-.67,16.76,16.76,0,0,1,3.35.15,13.94,13.94,0,0,1,3.66.77c.11,0,.24.19.34,0s0-.28-.12-.39a.62.62,0,0,0-.32-.22l-.23-.08-1.26-.59A.84.84,0,0,0,122.62,127.81Z" style="fill:#fce094"/><path d="M130.25,154.73a3,3,0,0,1,.13,2.21,5.8,5.8,0,0,1-4.66,4.31,5.45,5.45,0,0,1-1.61,0c-.21,0-.47-.06-.39-.42a5.2,5.2,0,0,0-.62-4.25,1.72,1.72,0,0,0,1.6-.68,1.31,1.31,0,0,1,1.84-.41,4,4,0,0,0,2,.29A1.62,1.62,0,0,0,130.25,154.73Z" style="fill:#6f3231"/><path d="M147.88,117.62c0-.6.2-1.18.21-1.79a3.69,3.69,0,0,0-4.62-3.61,11.41,11.41,0,0,0-2,.53c-.21.08-.41.12-.58-.08s0-.32.07-.48a1,1,0,0,0-.19-1.21,5.39,5.39,0,0,0-3.71-1.59.5.5,0,0,0-.59.43,3.6,3.6,0,0,0-.17.76c0,.41.12.66.57.74a4.19,4.19,0,0,1,1.9.84c.56.45.6.64.1,1.23a3.42,3.42,0,0,1,1.2-.16l0,0c0,.07,0,.06-.08.07l-2.38.49c-.26.05-.52.12-.47-.32,0-.2-.18-.3-.28-.44s-.31-.2-.29-.43h0a3.2,3.2,0,0,1,1.48.46c.11.06.22.2.34.06s0-.27-.06-.4a3.1,3.1,0,0,0-1.71-.87c-.71-.22-.7-.21-.73-1a5.53,5.53,0,0,1,.45-2.08c.12-.34.38-.59.8-.31a.56.56,0,0,0,.56.07c.72-.44,1.28,0,1.85.31a5.58,5.58,0,0,1,2.18,1.76c.16.22.33.14.52.08a7.11,7.11,0,0,1,5.21.5,4.14,4.14,0,0,1,2.21,3,9.24,9.24,0,0,1,.32,2c-.58-.72-.9-.19-1.22.16S148.19,117.22,147.88,117.62Z" style="fill:#299846"/><path d="M173.52,129.87l-3.24.39c-1.27.15-2.54.31-3.81.44a9.39,9.39,0,0,1-1.5.14c-.24,0-.47,0-.37-.38a.39.39,0,0,0-.29-.5c-.38-.11-.4-.25-.11-.51a5.22,5.22,0,0,0,1.62-2.56s.06-.09.05-.13c-.1-.88.74-1.12,1.12-1.67.11-.15.23-.11.37,0,2,1.4,4,2.9,5.87,4.43A2.58,2.58,0,0,1,173.52,129.87Z" style="fill:#6f3231"/><path d="M130.25,154.73a1.62,1.62,0,0,1-1.71,1.08,4,4,0,0,1-2-.29,1.31,1.31,0,0,0-1.84.41,1.72,1.72,0,0,1-1.6.68,8.48,8.48,0,0,0-2-1.86c-.15-.09-.34-.22-.19-.47a22.59,22.59,0,0,0,1.64-4.21,1,1,0,0,1,1.07-.81,5.07,5.07,0,0,1,3.1,1c.22.14.11.3.06.47l-.38-.07c-.58-.1-1.44.14-1.59.49a1.61,1.61,0,0,0,.29,1.67,3.26,3.26,0,0,1,.41.6,3,3,0,0,0,2.71,1.24c.42-.08.5-.26.28-.63a.62.62,0,0,1,0-.33l.19-.19c.27-.07.33-.49.68-.4a2.78,2.78,0,0,1,.7,1.26c0,.09,0,.17.09.2Zm-3.83.08a1.42,1.42,0,0,0,.13.21,2.87,2.87,0,0,0,2.9.24c.35-.25,0-.52-.09-.76s-.24-.3-.43-.06a1.39,1.39,0,0,1-.75.41A3.89,3.89,0,0,1,126.42,154.81ZM124.28,151c.22,0,.55,0,.59-.39a.46.46,0,0,0-.47-.47,2.41,2.41,0,0,0-1.3.35.25.25,0,0,0-.11.29c0,.13.14.11.23.12Z" style="fill:#b22018"/><path d="M83.94,119.07a7.22,7.22,0,0,0,0,2.18c.06.26-.16.32-.32.42a79.75,79.75,0,0,0-8.44,6.12c-.41.34-.82.69-1.22,1-.16.15-.26.14-.39,0l-1.09-1.43c.1-.1.2-.21.31-.3,1.9-1.64,3.87-3.19,5.92-4.63A61.89,61.89,0,0,1,83.94,119.07Z" style="fill:#eb2e27"/><path d="M176,127.36c-.36.46-.72.92-1.07,1.39-.16.22-.28.23-.5,0a72,72,0,0,0-8.45-6.36.58.58,0,0,1-.31-.6c0-.37,0-.75,0-1.12s-.16-.52-.54-.42c-.68.18-.67.17-.75-.55a3.1,3.1,0,0,1-.06-.77c.12.06.24.1.35.17A78.51,78.51,0,0,1,176,127.36Z" style="fill:#eb2e27"/><path d="M150.63,142.41a4.61,4.61,0,0,0,0-.46.35.35,0,0,1,.3-.42,5,5,0,0,0,1.82-1,.92.92,0,0,1,.84-.24c1.92.41,2.64,1.42,2.3,3.54a4.36,4.36,0,0,1-3.3,3.72,5,5,0,0,1-1.46,0,.4.4,0,0,1-.41-.44,4.21,4.21,0,0,0-.62-2,.6.6,0,0,1,0-.6A4.28,4.28,0,0,0,150.63,142.41Zm3.52,0a2.15,2.15,0,0,0-.09-.77c-.24-.61-.61-.7-1.09-.27a3.51,3.51,0,0,1-1.6.88c-.17,0-.28.09-.26.27a4.06,4.06,0,0,1-.2,1.15.83.83,0,0,0,.79,1A2.36,2.36,0,0,0,154.16,142.46Z" style="fill:#69488d"/><path d="M135.15,113.9c-.63,0-1.23-.26-1.86-.32a8.82,8.82,0,0,0-2.61.1c-.17,0-.38.15-.53-.07a2.08,2.08,0,0,0,1.77-1.87,13.62,13.62,0,0,1,1.11-4.31c.66-1.41,1.51-2.66,3.25-2.88a2.91,2.91,0,0,1,1.22,1.41,3,3,0,0,0-2,1.5,6.72,6.72,0,0,0-1,3.32A4.89,4.89,0,0,0,135.15,113.9Z" style="fill:#71c267"/><path d="M147.07,135.6a4.18,4.18,0,0,1,3-1.94l.21,0h.57c0,.14.17.13.27.18a2.3,2.3,0,0,1,1.48,1.63,2.92,2.92,0,0,1-.81,2.74c-.77.76-1.48,1-2.47.21a3.19,3.19,0,0,0-1-.52C146.87,137.35,146.74,136.87,147.07,135.6Z" style="fill:#9569ac"/><path d="M110.4,108c2.27-.38,4.54-.69,6.83-.89a78,78,0,0,1,8-.3c2.27,0,4.53.14,6.79.38,0,.33-.24.46-.56.57a8.61,8.61,0,0,1-4.19.31c-.64-.1-1.21-.46-1.85-.59a8.12,8.12,0,0,0-4.75.43l-.64.25a41.7,41.7,0,0,0-4.63.35,22,22,0,0,0-2.94.42A20.31,20.31,0,0,1,110.4,108Z" style="fill:#fcf8f6"/><path d="M123.38,147.79a37.28,37.28,0,0,1,1.4-4.21,4.56,4.56,0,0,1,1.73-2.07c.29-.19.48-.15.6.18a10.85,10.85,0,0,1,.21,7.09A6.88,6.88,0,0,0,123.38,147.79Z" style="fill:#fdf6db"/><path d="M129.89,110.66c.16,0,.3.11.25.29s-.22.11-.34.11a4,4,0,0,1-1.92-.88,7.35,7.35,0,0,0-3-1.2,6.56,6.56,0,0,0-7.09,5.1,12.89,12.89,0,0,0,.73,7.35c.18.43.38.86.57,1.29a3.78,3.78,0,0,0-1.29-.22c-.22,0-.38,0-.46-.31a19.18,19.18,0,0,1-.86-6,7.62,7.62,0,0,1,4.89-7.21,6.12,6.12,0,0,1,4.69-.35,11.79,11.79,0,0,1,3.45,2C129.59,110.7,129.71,111,129.89,110.66Z" style="fill:#299846"/><path d="M117.9,135.07c.36.1.51.42.71.68a11.27,11.27,0,0,1,2.07,6,30.68,30.68,0,0,1,0,3.26,1,1,0,0,0-.08.22,11.88,11.88,0,0,1-.64,3.08l-.37,1a3.31,3.31,0,0,0,.75-.47,2.22,2.22,0,0,1,1-.56,2.11,2.11,0,0,1-.83,1.31,5.31,5.31,0,0,0-2,3.28c-.07.35-.19.41-.49.22a5,5,0,0,0-1.48-.62c-.41-.1-.42-.23-.16-.54a13.4,13.4,0,0,0,3-5.79,13.79,13.79,0,0,0-1.5-10.87A1.13,1.13,0,0,1,117.9,135.07Z" style="fill:#e2b33c"/><path d="M145.79,129.23l0-.15.08-.12a3.93,3.93,0,0,1,3.72-2c0,.17.18.15.3.19a2.31,2.31,0,0,1,1.56,2.41,2.85,2.85,0,0,1-1.38,2c-.81.54-1.07.52-1.71-.06a4,4,0,0,0-1.94-1,.75.75,0,0,1-.64-.79C145.82,129.56,145.8,129.39,145.79,129.23Z" style="fill:#9569ac"/><path d="M147.63,139.23a.09.09,0,0,1,.07,0c0,.24.2.27.32.39a2.06,2.06,0,0,1,.66,1.36,3,3,0,0,1-1.6,2.81,1.46,1.46,0,0,1-2-.12,8.45,8.45,0,0,0-1.16-1.17c-.6-.54-.79-1-.37-1.71.17-.28.32-.56.48-.83a3.69,3.69,0,0,1,3-.89A.66.66,0,0,0,147.63,139.23Z" style="fill:#9569ac"/><path d="M161.26,117.22c-.44.24-.88.48-1.32.73s-.32-.06-.39-.24c-.25-.67-.39-.75-.93-.27a1,1,0,0,1-1.34.09c-1.83-.91-3.72-1.7-5.64-2.43a.6.6,0,0,1-.46-.54,9.31,9.31,0,0,0-.62-2,3.26,3.26,0,0,1,.33.08q2.07.72,4.09,1.59A60.92,60.92,0,0,1,161.26,117.22Z" style="fill:#eb2e27"/><path d="M139,129.75a4,4,0,0,1,4.51-1.92s0,.11,0,.14a1.94,1.94,0,0,1,.12,2.79,3.58,3.58,0,0,1-3.31,1.57,1.61,1.61,0,0,1-1.46-1.14C138.7,130.67,139,130.22,139,129.75Z" style="fill:#9569ac"/><path d="M112.25,117.23c-1.13-.78-2.27-1.4-3.38-2.06-.84-.5-1.67-1-2.52-1.48-.53-.3-.46-.87-.62-1.32a8,8,0,0,1-.39-2.39,16.66,16.66,0,0,1,.18-2.15c.27.47.48.85.7,1.23a15.87,15.87,0,0,0,2.2,2.91,23,23,0,0,1,3.57,4.55A1.59,1.59,0,0,1,112.25,117.23Z" style="fill:#01843e"/><path d="M176,127.36a78.51,78.51,0,0,0-11.33-8.22c-.11-.07-.23-.11-.35-.17a11.33,11.33,0,0,1-.13-1.48,60.94,60.94,0,0,1,5.21,3.26,74.1,74.1,0,0,1,7.33,5.68Z" style="fill:#fcf8f6"/><path d="M83.94,119.07a61.89,61.89,0,0,0-5.24,3.38c-2.05,1.44-4,3-5.92,4.63-.11.09-.21.2-.31.3a5.3,5.3,0,0,1-.77-.95,78.47,78.47,0,0,1,12.45-8.9A5,5,0,0,1,83.94,119.07Z" style="fill:#fcf8f6"/><path d="M142,134.43c0-.19.13-.29.24-.4a5.19,5.19,0,0,1,3.51-1.71c.31.27.74.38,1,.74s.28.57,0,.82a7.13,7.13,0,0,0-2,3.35.55.55,0,0,1-.75.4A2.6,2.6,0,0,1,142,134.43Z" style="fill:#9569ac"/><path d="M161.26,117.22a60.92,60.92,0,0,0-6.28-3q-2-.87-4.09-1.59a3.26,3.26,0,0,0-.33-.08,8.15,8.15,0,0,0-1.37-1.74,49.84,49.84,0,0,1,5,1.79,81.19,81.19,0,0,1,8.3,3.9c.14.08.27.18.41.27Z" style="fill:#fcf8f6"/><path d="M193.66,107.92a15,15,0,0,1,1.26-1.67c.12-.17.33-.11.5-.09l4.25.54c.89.11,1.77.25,2.65.34.28,0,.37.12.21.36a10.86,10.86,0,0,1-1.09,1.54l-4.5-.58C195.85,108.22,194.74,108.14,193.66,107.92Z" style="fill:#b22018"/><path d="M156.3,134.59a3,3,0,0,1,2.63,2.68,4.35,4.35,0,0,1-1.65,4.11c-.45.35-.55.34-.83-.17a3.17,3.17,0,0,0-2.21-1.54c-.47-.11-.49-.23-.28-.62a4.11,4.11,0,0,0,.19-3.84c-.05-.12-.09-.23,0-.3a2.21,2.21,0,0,1,1.93-.34s-.08.07-.12.08c-.69.11-.88.38-.76,1.09a5.61,5.61,0,0,1,.11.87,6,6,0,0,1-.31,1.81.32.32,0,0,0,.19.45,1.48,1.48,0,0,0,2.27-.58,2.27,2.27,0,0,0-.5-3.3C156.77,134.82,156.43,134.88,156.3,134.59Z" style="fill:#69488d"/><path d="M47.32,108.93a14.89,14.89,0,0,1-1.25-1.83l4.93-.64c.66-.09,1.32-.16,2-.27a.68.68,0,0,1,.82.32c.29.51.8.85,1,1.42a.44.44,0,0,1-.13.07Z" style="fill:#b22018"/><path d="M144.07,140c-.16.28-.32.56-.48.83-.42.7-.23,1.17.37,1.71a8.45,8.45,0,0,1,1.16,1.17,1.46,1.46,0,0,0,2,.12,3,3,0,0,0,1.6-2.81,2.06,2.06,0,0,0-.66-1.36c-.12-.12-.35-.15-.32-.39a3,3,0,0,1,2.13,2.53,4.65,4.65,0,0,1-2.81,4.35c-.68.24-.73.23-1.1-.35a20.66,20.66,0,0,0-3-3.68.56.56,0,0,1-.12-.8A3,3,0,0,1,144.07,140Z" style="fill:#69488d"/><path d="M146.91,124.37c0-.38-.13-.73-.11-1.11s.19-.41.47-.26a2.27,2.27,0,0,1,.66.49c.24.28.39.17.43-.13.15-1.1,1-1.77,1.51-2.69.1-.2.21,0,.27.09a12.51,12.51,0,0,1,1.39,2.67,3.16,3.16,0,0,1,.37,1.25,9,9,0,0,0-1.31.74c-.2.15-.33.16-.36-.16a32,32,0,0,1-.17-3.26c0-.21,0-.42,0-.71a.61.61,0,0,0-.2.55,31,31,0,0,0-.21,4.08c0,.23-.09.31-.32.31a2.75,2.75,0,0,0-1,.08c-.14.05-.24,0-.29-.17A4.93,4.93,0,0,0,146.91,124.37Z" style="fill:#01843e"/><path d="M147.07,135.6c-.34,1.27-.2,1.75,1.23,2.26a3.19,3.19,0,0,1,1,.52c1,.84,1.7.55,2.47-.21a2.92,2.92,0,0,0,.81-2.74,2.3,2.3,0,0,0-1.48-1.63c-.1,0-.23,0-.27-.18a3.05,3.05,0,0,1,2.78,4,4.61,4.61,0,0,1-2.91,3c-.23.1-.36,0-.5-.22a3.78,3.78,0,0,0-3.54-2.11c-.15,0-.31,0-.33-.19A3.05,3.05,0,0,1,147.07,135.6Z" style="fill:#69488d"/><path d="M153.08,125.17a2.8,2.8,0,0,1,2.71.64,3.13,3.13,0,0,1,.76,3.61c-.13.29-.25.38-.59.28a4.52,4.52,0,0,0-2.41,0c-.31.08-.45.1-.5-.3a3.41,3.41,0,0,0-2.16-2.78c-.35-.16-.32-.31-.05-.51s.31-.3.55-.28a.82.82,0,0,0,.37.7,6.85,6.85,0,0,1,1.07,1c.43.43.83.53,1.25.3a1.62,1.62,0,0,0,.92-1.56,1.53,1.53,0,0,0-1.35-1C153.45,125.25,153.24,125.33,153.08,125.17Z" style="fill:#69488d"/><path d="M145.79,129.23c0,.16,0,.32,0,.48a.75.75,0,0,0,.64.79,4,4,0,0,1,1.94,1c.64.58.9.6,1.71.06a2.85,2.85,0,0,0,1.38-2,2.31,2.31,0,0,0-1.56-2.41c-.12,0-.27,0-.3-.19a2.9,2.9,0,0,1,2.66,2.13,4.15,4.15,0,0,1-1.61,3.84c-.49.32-1.1.21-1.63.43-.13.05-.22-.12-.29-.22a3.48,3.48,0,0,0-3-1.5c-.18,0-.35,0-.37-.23A2.54,2.54,0,0,1,145.79,129.23Z" style="fill:#69488d"/><path d="M128.64,138.87c.37,0,.75,0,1.11.1,1.45.28,2.95.13,4.38.49a4.89,4.89,0,0,1,1.86.79.72.72,0,0,1,.36.6,39.59,39.59,0,0,1-7.14.15c-.27,0-.39-.11-.31-.4s0-.38.11-.52C129.38,139.53,129.06,139.19,128.64,138.87Z" style="fill:#fdf6db"/><path d="M141.24,125.1a3.91,3.91,0,0,1,3.93-.9,2.31,2.31,0,0,1,1.06.67,1.3,1.3,0,0,0,0,.29,1.86,1.86,0,0,1-.37,1.64c-.17.25-.45.44-.76.25a5.56,5.56,0,0,0-3.29-.62c-.95,0-1-.11-.71-1a.63.63,0,0,0,0-.19l0-.07Z" style="fill:#9569ac"/><path d="M137.51,129.87c.67-1.91.71-4,1.7-5.82a4.54,4.54,0,0,1,1.42-1.95,2.14,2.14,0,0,1,2.65.17,2,2,0,0,1,.41.92,5,5,0,0,0-4.6,3.35,2.56,2.56,0,0,0-.26,1.18c.11.93-.68,1.39-1,2.11C137.79,130,137.64,130,137.51,129.87Z" style="fill:#299846"/><path d="M155.12,124.58c0-.51.45-.85.65-1.29.08-.17.23,0,.24.12a1.28,1.28,0,0,0,.16.65c.14.23.31.34.5,0a6.59,6.59,0,0,1,2.85-2.41,7.87,7.87,0,0,0,1.64-.92.5.5,0,0,1,.34-.18c-1,1.58-2.08,3.09-3.18,4.6-.29.41-.57.83-.87,1.23-.09.12-.22.32-.35,0A4,4,0,0,0,155.12,124.58Z" style="fill:#01843e"/><path d="M142,134.43a2.6,2.6,0,0,0,2,3.2.55.55,0,0,0,.75-.4,7.13,7.13,0,0,1,2-3.35c.27-.25.2-.53,0-.82s-.69-.47-1-.74a2.17,2.17,0,0,1,2.05.67,1.87,1.87,0,0,1,.12.15c.45.52.44.5-.12.9a4.85,4.85,0,0,0-2.24,4c0,.28-.08.43-.35.48a.89.89,0,0,0-.27.11,1.24,1.24,0,0,1-1.48,0,1.32,1.32,0,0,0-.78-.25c-.45,0-.61-.26-.79-.59a3.27,3.27,0,0,1,0-3.22A.83.83,0,0,1,142,134.43Z" style="fill:#69488d"/><path d="M126,140.25c.34.4.28.63-.15.93a5.66,5.66,0,0,0-2,3.1c-.85,2.7-1.68,5.4-2.64,8.07a11,11,0,0,1-1.89,3.34c-.18.22-.35.42-.14.72s0,.29-.18.34a1.93,1.93,0,0,1-1.42-.52c-.09-.13-.11-.23,0-.32,2.18-1.2,3-3.3,3.77-5.49.66-2,1.27-4,1.86-6a8.09,8.09,0,0,1,2.36-3.87Z" style="fill:#e2b33c"/><path d="M105.69,133.19a14.27,14.27,0,0,1,1.8-.11,2.16,2.16,0,0,1,1.51.68.72.72,0,0,1-.07,1,5.6,5.6,0,0,1-2.56,1.42,6,6,0,0,1-4-.26,3.1,3.1,0,0,1-1.42-1.14,1,1,0,0,1,0-1,.7.7,0,0,1,.84-.42c.54.09,1.08.2,1.62.31,0,.32,0,.76-.26.89s-.6-.21-.86-.41-.63-.51-.95-.2,0,.63.2.9a2.42,2.42,0,0,0,1.25.8,5.52,5.52,0,0,0,5.19-.72.54.54,0,0,0,.12-.09c.14-.15.38-.32.23-.53s-.35,0-.52.07a9.22,9.22,0,0,1-1.39.59c-.3.09-.46,0-.49-.32C105.84,134.18,105.76,133.69,105.69,133.19Z" style="fill:#b22018"/><path d="M127.42,139.86a1.59,1.59,0,0,0,.8.3c.11,0,.24,0,.26.17s-.1.21-.24.23-.31.07-.5.11c0,.06.08.14.12.15.67.11.72.67.83,1.16a13.89,13.89,0,0,1-.14,6.62c-.26,1-.55,2-.82,3.06a1.89,1.89,0,0,0,0,1.15c.12.35,0,.52-.42.45a1.36,1.36,0,0,1-.66-.28c-.34-.3-.33-.44.07-.64a1.18,1.18,0,0,0,.56-.76,29.57,29.57,0,0,0,1-4.22,10.79,10.79,0,0,0-.21-5.21,2.46,2.46,0,0,0-.88-1.37,2,2,0,0,1-.2-1.89.26.26,0,0,1,.29-.12,2.28,2.28,0,0,1,.47.12c.3.13.7.27.67.62s-.46.2-.71.28Z" style="fill:#e2b33c"/><path d="M156.3,134.59c.14.29.47.23.69.39a2.27,2.27,0,0,1,.5,3.3,1.48,1.48,0,0,1-2.27.58.32.32,0,0,1-.19-.45,6,6,0,0,0,.31-1.81,5.61,5.61,0,0,0-.11-.87c-.11-.7.08-1,.76-1.09,0,0,.08,0,.12-.08Z" style="fill:#9569ac"/><path d="M154.73,130.28a2.64,2.64,0,0,1,2.84,2.3,2.49,2.49,0,0,1,.06,1.11c-.06.23-.14.35-.4.25a4.43,4.43,0,0,0-3.36.24.48.48,0,0,1-.57-.09,3.79,3.79,0,0,0-1.47-.82c-.23-.06-.23-.18-.07-.34a4.8,4.8,0,0,0,1.15-2.06.48.48,0,0,1,.56-.41c-.36.51-.38,1.15-.69,1.68-.09.16-.34.36-.09.55s.43.48.84.3a3.51,3.51,0,0,1,1.37-.28,1,1,0,0,0,.95-.47,1.47,1.47,0,0,0-.19-1.33C155.42,130.58,155,130.54,154.73,130.28Z" style="fill:#69488d"/><path d="M139.08,134a3,3,0,0,1,2.07.15c.22.07.13.22.07.35a4,4,0,0,0,0,3.58c.08.17.13.28-.14.33a6.33,6.33,0,0,0-2.23,1c-.19.13-.3.06-.47,0a3.63,3.63,0,0,1-1.48-2.1c-.15-.45-.19-1-.67-1.26a.15.15,0,0,1,0-.26c.24-.21.36-.55.7-.65a.84.84,0,0,0,.32,1.14,2.46,2.46,0,0,1,.76,1.1c.09.21.22.37.45.39a2.66,2.66,0,0,0,1.11-.1.65.65,0,0,0,.5-.73,5.55,5.55,0,0,1,.16-1.73c.19-.74-.06-1-.83-1.05C139.28,134.07,139.16,134.09,139.08,134Z" style="fill:#69488d"/><path d="M139,129.75c0,.48-.26.92-.09,1.43a1.61,1.61,0,0,0,1.46,1.14,3.58,3.58,0,0,0,3.31-1.57,1.94,1.94,0,0,0-.12-2.79s0-.09,0-.14a2.42,2.42,0,0,1,1.51.89c.16.16.09.37,0,.55a3.4,3.4,0,0,0-.25,2.09c.05.24,0,.4-.29.49a5.34,5.34,0,0,0-2.42,1.49.44.44,0,0,1-.62.13,3.7,3.7,0,0,0-1.71-.32c-.86,0-1.05-.06-1.24-.83A2.8,2.8,0,0,1,139,129.75Z" style="fill:#69488d"/><path d="M104.12,134.39a16.25,16.25,0,0,0,0-3.7.72.72,0,0,1,.11-.42c.08-.2.36-.46,0-.62s-.39.21-.49.4a9.89,9.89,0,0,1-1,1.52,2.83,2.83,0,0,1-1,.84,1.64,1.64,0,0,1-1.62-.21.24.24,0,0,1-.08-.26c0-.13.14-.13.23-.1,1.26.45,1.86-.39,2.43-1.26a8.59,8.59,0,0,0,1-1.91c.17-.47.43-.55.87-.29.18.11.35.24.53.35a.45.45,0,0,1,.21.58c-.64,1.8-.35,3.64-.21,5.47,0,.5-.22.49-.53.51s-.59,0-.51-.48A2.47,2.47,0,0,0,104.12,134.39Z" style="fill:#e2b33c"/><path d="M193.66,107.92c1.08.23,2.19.3,3.28.45l4.5.58a3.75,3.75,0,0,1-.75,1.15c-1.42-.2-2.83-.41-4.25-.59-1.24-.16-2.48-.3-3.73-.45A3.74,3.74,0,0,1,193.66,107.92Z" style="fill:#fcf8f6"/><path d="M136.72,130.67l.61.17a.32.32,0,0,1,.26.36,6.91,6.91,0,0,0,.11,1.59,4.71,4.71,0,0,0-1.67,1.14c-.14.14-.25.28-.48.1a7.26,7.26,0,0,0-2.12-1.14c-.2-.07-.26-.17-.11-.36a4.33,4.33,0,0,1,1.5-1.34A12,12,0,0,1,136.72,130.67Z" style="fill:#9569ac"/><path d="M112.44,108.9a22,22,0,0,1,2.94-.42,41.7,41.7,0,0,1,4.63-.35,7,7,0,0,0-2.22,1.56c-.66.92-1.59.77-2.47.89a.4.4,0,0,1-.28-.06A26.62,26.62,0,0,0,112.44,108.9Z" style="fill:#eb2e27"/><path d="M47.32,108.93l7.37-.94a.44.44,0,0,0,.13-.07,4,4,0,0,1,1,1.09l-3.55.48-4.19.56A5.12,5.12,0,0,1,47.32,108.93Z" style="fill:#fcf8f6"/><path d="M139.08,134c.09.1.21.08.32.08.77,0,1,.31.83,1.05a5.55,5.55,0,0,0-.16,1.73.65.65,0,0,1-.5.73,2.66,2.66,0,0,1-1.11.1c-.23,0-.36-.18-.45-.39a2.46,2.46,0,0,0-.76-1.1.84.84,0,0,1-.32-1.14A4.42,4.42,0,0,1,139.08,134Z" style="fill:#9569ac"/><path d="M149.74,147.49a4.2,4.2,0,0,1-1.52,2.94c-.13.12-.27.16-.35,0-.32-.9-1-1.66-1.22-2.6-.07-.25-.08-.44.25-.5a3.85,3.85,0,0,0,2.05-1.15c.32-.33.47-.18.56.15A3.79,3.79,0,0,1,149.74,147.49Z" style="fill:#69488d"/><path d="M136.72,130.67a12,12,0,0,0-1.91.52,4.33,4.33,0,0,0-1.5,1.34c-.14.19-.09.29.11.36a7.26,7.26,0,0,1,2.12,1.14c.23.18.34,0,.48-.1a4.71,4.71,0,0,1,1.67-1.14c.4.61.4.61-.23,1a5,5,0,0,0-1.78,1.48c-.12.17-.23.21-.44.07a25.6,25.6,0,0,0-2.62-1.68.38.38,0,0,1-.17-.5,4,4,0,0,1,4.16-2.54S136.69,130.64,136.72,130.67Z" style="fill:#69488d"/><path d="M141.12,125.24a.63.63,0,0,1,0,.19c-.32.88-.23,1,.71,1a5.56,5.56,0,0,1,3.29.62c.31.19.58,0,.76-.25a1.86,1.86,0,0,0,.37-1.64,1.3,1.3,0,0,1,0-.29,2.51,2.51,0,0,1,1.05,1.52.38.38,0,0,1-.17.5,5.91,5.91,0,0,0-1.44,1.23c-.12.14-.2.15-.35,0a4.17,4.17,0,0,0-5-.53l-.09,0c-.24.15-.46.21-.38-.2A3.12,3.12,0,0,1,141.12,125.24Z" style="fill:#69488d"/><path d="M135.15,113.9a4.89,4.89,0,0,1-.7-3.11,6.72,6.72,0,0,1,1-3.32,3,3,0,0,1,2-1.5,2.56,2.56,0,0,1,.19.55c.07.69.11,1-.72.93a.82.82,0,0,0-.79.48l-.5.87c-.07-.41.16-.73,0-1.13a6.06,6.06,0,0,0-.59,1.87,4.78,4.78,0,0,0,.52,3.44,5.89,5.89,0,0,0,.45.51c.09.1.18.2.12.34s-.19.15-.33.16A2,2,0,0,1,135.15,113.9Z" style="fill:#299846"/><path d="M153.08,125.17c.16.16.37.08.56.09a1.53,1.53,0,0,1,1.35,1,1.62,1.62,0,0,1-.92,1.56c-.42.23-.81.13-1.25-.3a6.85,6.85,0,0,0-1.07-1,.82.82,0,0,1-.37-.7A3.39,3.39,0,0,1,153.08,125.17Z" style="fill:#9569ac"/><path d="M154.73,130.28c.28.26.69.3.93.63a1.47,1.47,0,0,1,.19,1.33,1,1,0,0,1-.95.47,3.51,3.51,0,0,0-1.37.28c-.42.18-.6-.13-.84-.3s0-.39.09-.55c.31-.53.33-1.18.69-1.68a1,1,0,0,1,.47-.12l.13,0Z" style="fill:#9569ac"/><path d="M98.19,111.15a55.72,55.72,0,0,1,6.09-1.84l0,1.22c-1.08.27-2.16.55-3.21.92A17.53,17.53,0,0,0,98.19,111.15Z" style="fill:#fcf8f6"/><path d="M136.28,104.55c-1.74.22-2.59,1.47-3.25,2.88a13.62,13.62,0,0,0-1.11,4.31,2.08,2.08,0,0,1-1.77,1.87,3.88,3.88,0,0,0-1.17-.84c.57-.22,1.12-.12,1.54-.47.13.24-.12.43,0,.67.17,0,.18-.19.25-.3a15.42,15.42,0,0,0,1.48-3.69,13.44,13.44,0,0,1,1.88-3.79c.59-.83,1.18-1.12,2-.75C136.19,104.45,136.23,104.51,136.28,104.55Z" style="fill:#299846"/><path d="M86.83,135l-2.49-2.68,4,.46A19.08,19.08,0,0,0,86.83,135Z" style="fill:#fcf8f6"/><path d="M121.38,148.29a2.22,2.22,0,0,0-1,.56,3.31,3.31,0,0,1-.75.47l.37-1a11.88,11.88,0,0,0,.64-3.08,1,1,0,0,1,.08-.22c.39.52,1,.86,1.37,1.37A7.81,7.81,0,0,1,121.38,148.29Z" style="fill:#fce094"/><path d="M128.51,153.66a.62.62,0,0,0,0,.33c.21.37.13.56-.28.63a3,3,0,0,1-2.71-1.24,3.26,3.26,0,0,0-.41-.6,1.61,1.61,0,0,1-.29-1.67c.15-.35,1-.59,1.59-.49l.38.07c0,.76-.55,1.1-1.11,1.42-.11.07-.19,0-.25-.1s-.21-.28-.33-.44a.78.78,0,0,0,.14.83,2.55,2.55,0,0,0,2.28,1.54A4.16,4.16,0,0,0,128.51,153.66Z" style="fill:#6f3231"/><path d="M141.65,141.44a3.32,3.32,0,0,1-2.4-1.17c-.08-.11-.24-.2,0-.34a4.15,4.15,0,0,1,3.63-.78c.18.06.43.08.48.29s-.2.26-.33.38a4.88,4.88,0,0,0-1,1.35C141.89,141.37,141.77,141.49,141.65,141.44Zm-.06-2.18a1.77,1.77,0,0,0-.9.13.35.35,0,0,0-.23.29c0,.16.11.2.23.27a4.28,4.28,0,0,1,.56.37c.66.5.66.5,1.06-.21l.07-.13c.22-.44.09-.67-.4-.72A3.81,3.81,0,0,0,141.59,139.26Z" style="fill:#69488d"/><path d="M101.09,111.46c1.05-.37,2.13-.65,3.21-.92.09.53.18,1.05.29,1.58s0,.66-.52.59a2.51,2.51,0,0,1-1.79-.74C102,111.58,101.48,111.65,101.09,111.46Z" style="fill:#eb2e27"/><path d="M116.25,154.71c0-.35.36-.39.53-.59l.37,0c.25,0,.48.18.85.08a6.23,6.23,0,0,0-1.85-1c-.12,0-.26,0-.3-.19a1.92,1.92,0,0,1,1.15.32c.44.2.86.46,1.29.69.23.12.22.23.1.45-.34.6-1,.77-1.48,1.13-.14.1-.3-.07-.42-.17a.81.81,0,0,1-.23-.67h0C116.36,154.79,116.3,154.75,116.25,154.71Z" style="fill:#6f3231"/><path d="M123.38,147.79a6.88,6.88,0,0,1,3.93,1c-.09.63-.09.63-.6.35a5.65,5.65,0,0,0-2.94-.7C123.09,148.45,123.09,148.43,123.38,147.79Z" style="fill:#e2b33c"/><path d="M131.08,109.78a1.83,1.83,0,0,0-1.43.5,7.11,7.11,0,0,1-.85-1c.84-.18,1.62-.35,2.38-.59.19-.06.29,0,.22.23S131.19,109.51,131.08,109.78Z" style="fill:#299846"/><path d="M99.31,130.78a19,19,0,0,1,3-.44c-.4.48-.64,1.1-1.22,1.06S99.75,131.6,99.31,130.78Z" style="fill:#eb2e27"/><path d="M108.69,158.51l-1.19-1.27,1.66-.38Z" style="fill:#fcf8f6"/><path d="M142,108.81a15.87,15.87,0,0,1,2.57.6l-1.8.36c-.15,0-.28.06-.32-.16A2.23,2.23,0,0,0,142,108.81Z" style="fill:#fcf8f6"/><path d="M127.21,112.11c.2-.6.75-.49,1.18-.54s1.07,0,1.6-.1a1.53,1.53,0,0,1-.91.4,5.47,5.47,0,0,0-1.35.34C127.55,112.3,127.38,112.15,127.21,112.11Z" style="fill:#299846"/><path d="M129.39,153.06c-.36-.08-.42.33-.68.4a1.55,1.55,0,0,1-.4-1.34c0-.21.11-.28.26-.11A3.52,3.52,0,0,1,129.39,153.06Z" style="fill:#6f3231"/><path d="M120.28,151.21a6.3,6.3,0,0,1-.82,2,3.23,3.23,0,0,1,.81-2Z" style="fill:#6f3231"/><path d="M115.58,153.07a2.39,2.39,0,0,1-1.09.07A1.14,1.14,0,0,1,115.58,153.07Z" style="fill:#6f3231"/><path d="M147.63,139.23a.66.66,0,0,1-.53-.16C147.29,139.06,147.5,139,147.63,139.23Z" style="fill:#69488d"/><path d="M160.91,122a.19.19,0,0,1-.1.19A.2.2,0,0,1,160.91,122Z" style="fill:#01843e"/><path d="M120.27,151.2l0-.13,0,0-.07.11Z" style="fill:#6f3231"/><path d="M89.91,113.47c0,.12-.1.14-.2.11S89.83,113.49,89.91,113.47Z" style="fill:#e2b33c"/><path d="M117.8,135c.14-.07.13,0,.11.11S117.81,135,117.8,135Z" style="fill:#e2b33c"/><path d="M130.17,154.53c-.1,0-.11-.12-.09-.2Z" style="fill:#6f3231"/><path d="M150.24,133.63l-.21,0A.16.16,0,0,1,150.24,133.63Z" style="fill:#69488d"/><path d="M136.63,112.63l0,0,0,0Z" style="fill:#299846"/><path d="M117.6,136.92l-.06-.11C117.59,136.83,117.62,136.86,117.6,136.92Z" style="fill:#b22018"/><path d="M126.35,138.88l.08-.1Z" style="fill:#fdf6db"/><path d="M154.06,130.29l-.13,0Z" style="fill:#69488d"/><path d="M141.24,125.1l-.07.07C141.16,125.11,141.19,125.09,141.24,125.1Z" style="fill:#69488d"/><path d="M145.92,129l-.08.12Z" style="fill:#69488d"/><path d="M63.4,103.11a1.46,1.46,0,0,0-.81.32l-.36.25c-1,.69-.78.75-1.5-.31-.23-.35-.19-.57.16-.8,1.48-1,3-2,4.43-3.05.75-.52,1.51-1,2.25-1.56.32-.23.53-.21.76.14.6.92.79.85-.29,1.53L68,99.7c-.95.66-1,.66-.35,1.63q1.19,1.91,2.4,3.81c.45.7.64.73,1.33.28l3.14-2.08c.5-.33.53-.47.23-1q-1.13-2-2.28-4c-.1-.17-.22-.33-.33-.49a.5.5,0,0,0-.76-.16l-1,.6a.39.39,0,0,1-.61-.16c-.69-1.16-.71-1,.35-1.64l6.22-3.6c.51-.29.58-.27.87.24.49.88.77.8-.4,1.47s-1.27.74-.52,2L83,108.38c.64,1.12.69,1.13,1.79.51.82-.46.82-.46,1.29.38.33.59.31.66-.29,1-2.09,1.07-4.15,2.2-6.14,3.45-.38.24-.58.19-.81-.2-.6-1-.6-.84.31-1.42.71-.45.76-.56.35-1.28-1-1.83-2.1-3.64-3.15-5.47a.5.5,0,0,0-.81-.18l-3.39,2.23a.49.49,0,0,0-.17.78c1.15,1.78,2.29,3.57,3.45,5.34.35.54.59.56,1.14.22l.12-.08c1-.65,1.08-.63,1.64.45a.35.35,0,0,1-.14.53C76.09,116,74,117.45,72,119a.42.42,0,0,1-.69-.09c-.68-.91-.69-.91.23-1.57s1-.82.33-1.83l-7.51-11.57C64.1,103.59,63.93,103.14,63.4,103.11Z" style="fill:#fdfcfb"/><path d="M181.13,105.13l2.11-2.88a.51.51,0,0,0-.13-.77l-.92-.73a.36.36,0,0,1-.09-.54c.53-.88.64-.91,1.49-.36,1.26.82,2.51,1.64,3.78,2.44.39.24.41.45.14.81q-5,6.73-10,13.48c-.56.75-.55.84.17,1.41a.42.42,0,0,1,.1.69c-.62.86-.61.87-1.44.26s-1.57-1.22-2.4-1.78c-.54-.36-.78-.76-.5-1.38.13-.3.07-.4-.28-.45a10.62,10.62,0,0,1-3.85-1.19,2.06,2.06,0,0,1-1.1-1.57A7.71,7.71,0,0,1,169,108a11.46,11.46,0,0,1,4.13-5.15,5.44,5.44,0,0,1,7.18.89A5.25,5.25,0,0,1,181.13,105.13ZM172.06,112c0,1.33.34,1.75,1.39,1.89a1.82,1.82,0,0,0,1.83-.86c.85-1.17,1.72-2.33,2.57-3.5a18.67,18.67,0,0,0,1.63-2.37,1.6,1.6,0,0,0-.91-2.38,2.28,2.28,0,0,0-2.06.25,9.88,9.88,0,0,0-3.36,3.85A7.31,7.31,0,0,0,172.06,112Z" style="fill:#fdfcfb"/><path d="M122.73,101.19c-.95,0-1.89,0-2.84,0-.34,0-.48-.13-.49-.45,0-.08,0-.16,0-.24-.05-.84,0-.8.69-.84.45,0,.61-.23.6-.68-.08-2.62-.15-5.25-.31-7.87a2.72,2.72,0,0,0-.16-.71,1.48,1.48,0,0,0-2.13-1.12l-.14,0c-1.38.4-1.53.59-1.4,2,.22,2.58.47,5.16.71,7.74.06.68.21.81.9.74.4,0,.54.1.59.5.13,1.16.1,1-.84,1q-2.49.18-5,.51c-.22,0-.56.18-.64-.14a1.79,1.79,0,0,1-.1-1.14c.08-.2.33-.16.53-.19.7-.1.79-.17.72-.87-.21-2.29-.45-4.57-.67-6.86-.09-.91-.16-1.82-.29-2.72-.1-.72-.25-.81-1-.77l-.29,0c-.33,0-.49-.1-.51-.43s0-.39-.06-.58.1-.45.4-.49c1.38-.23,2.77-.45,4.14-.7a.6.6,0,0,1,.79.42c0,.14.13.26.19.4s.19.28.43.13a10.79,10.79,0,0,1,4.64-1.4,2.25,2.25,0,0,1,1.94,1,5.5,5.5,0,0,1,1.08,3.34c.09,2.48.14,5,.21,7.43a4,4,0,0,0,0,.44c.1.72.21.84.94.81.48,0,.66.16.6.62a1.34,1.34,0,0,0,0,.34c.06.43-.12.57-.55.56-.81,0-1.63,0-2.45,0l-.34,0Z" style="fill:#fdfcfb"/><path d="M100.65,93l.53,2c.55,2.09,1.1,4.19,1.66,6.28.2.75.32.82,1.06.64.32-.08.5,0,.58.33.28,1.12.34,1-.67,1.23-1.63.4-3.24.85-4.85,1.34-.61.19-.61.19-.81-.44,0-.06,0-.13-.06-.19-.18-.41-.08-.65.39-.79.8-.24.85-.34.63-1.16Q98,98,96.79,93.73a3.85,3.85,0,0,0-.16-.46c-.25-.61-.43-.68-1-.45s-.61.18-.87-.47-.18-.78.3-1c1.24-.5,2.49-1,3.71-1.5.45-.19.74-.14,1,.29.05.1.15.17.2.28.16.32.32.24.55.06a10.57,10.57,0,0,1,4.33-2.07,2.4,2.4,0,0,1,2.26.89,6.33,6.33,0,0,1,1.47,3.3c.51,2.44,1,4.88,1.5,7.32.15.73.22.79,1,.66.41-.07.56.08.62.46.16.94.15,1-.8,1.08-1.66.23-3.31.56-4.94.93-.44.1-.6-.05-.66-.45a4.67,4.67,0,0,0-.1-.48c-.09-.34,0-.51.39-.59.85-.19.89-.26.71-1.13-.48-2.26-1-4.53-1.44-6.78a3.26,3.26,0,0,0-1.18-2.08,1,1,0,0,0-1-.13,5.78,5.78,0,0,0-1.58.87A.83.83,0,0,0,100.65,93Z" style="fill:#fdfcfb"/><path d="M133.5,87c.54,0,1.08,0,1.61,0a3.42,3.42,0,0,1,3.19,3.3,21.25,21.25,0,0,1-.35,4.23c-.2,1.73-.44,3.46-.65,5.19-.09.76-.06.79.68.92.32.05.47.19.42.52,0,.13,0,.26,0,.39-.11.64-.16.66-.8.57-1.08-.15-2.16-.31-3.25-.42-.5-.05-.84-.21-.9-.74s-.23-.45-.61-.28a8.56,8.56,0,0,1-3.37.74,2.24,2.24,0,0,1-1.77-.78,4.53,4.53,0,0,1,2.09-7.36,9.63,9.63,0,0,1,4.06-.34c.35,0,.45,0,.47-.38a8,8,0,0,0,0-2.29c0-.11-.05-.22-.09-.33a1.61,1.61,0,0,0-2.39-1.06c-.16.08-.18.23-.23.36a3.84,3.84,0,0,1-1,1.54,2.69,2.69,0,0,1-.52.37c-.89.47-1.45.24-1.75-.73a4.41,4.41,0,0,1-.09-2.46.61.61,0,0,1,.53-.49A19.81,19.81,0,0,1,133.5,87Zm-.3,7.61a2.7,2.7,0,0,0-1.55.36,3,3,0,0,0-.5,4.29.6.6,0,0,0,.43.18,1.85,1.85,0,0,0,2-1.65c.13-.89.22-1.78.37-2.66.07-.43-.06-.57-.47-.52Z" style="fill:#fdfcfb"/><path d="M85.82,97.47A3.07,3.07,0,0,1,85,99.87a.87.87,0,0,1-1.34.11,3.91,3.91,0,0,1-1.44-2.43c-.07-.35.2-.53.4-.73a16.3,16.3,0,0,1,3-2.26c.63-.38,1.29-.7,1.93-1a3.46,3.46,0,0,1,4.54,1.23,14.76,14.76,0,0,1,1.39,3c.72,1.8,1.42,3.61,2.13,5.41.07.18.17.35.24.53a.62.62,0,0,0,.87.38c.21-.07.5-.27.67,0a2,2,0,0,1,.36,1.1c0,.18-.18.21-.32.26-1.21.43-2.43.85-3.63,1.3-.42.16-.65-.05-.88-.32s-.41-.28-.66,0a8.88,8.88,0,0,1-2.44,2.08,2.86,2.86,0,0,1-3.45-.24,4.31,4.31,0,0,1-.39-6.67,10.35,10.35,0,0,1,3.42-2.31c.32-.14.36-.26.24-.58a5.39,5.39,0,0,0-1.44-2.3c-1-.81-1.4-.67-2.29.23C85.66,96.87,85.89,97.21,85.82,97.47Zm2.32,6.19A2.84,2.84,0,0,0,89.78,106a.81.81,0,0,0,.91-.08,2,2,0,0,0,.81-2.52c-.26-.72-.55-1.43-.84-2.14s-.25-.62-.82-.3a5.2,5.2,0,0,0-.82.53A2.46,2.46,0,0,0,88.14,103.66Z" style="fill:#fdfcfb"/><path d="M153.63,106.27a7.27,7.27,0,0,1-4.46-1.86,4.79,4.79,0,0,1-1.44-4.33A13.76,13.76,0,0,1,149.36,95c1.8-3.29,4.79-4.27,8.25-2.72a5.3,5.3,0,0,1,3.4,6.54,10.87,10.87,0,0,1-3.11,6A6,6,0,0,1,153.63,106.27Zm-2.36-3.83c0,.17,0,.25,0,.33a1.49,1.49,0,0,0,.77,1.52,1.66,1.66,0,0,0,1.83-.28,4.79,4.79,0,0,0,1.12-1.35A23,23,0,0,0,157.33,97a5,5,0,0,0,.19-2.32,1.64,1.64,0,0,0-2.79-.84,4.75,4.75,0,0,0-.76,1,22.49,22.49,0,0,0-2,4.51A11,11,0,0,0,151.27,102.44Z" style="fill:#fdfcfb"/><path d="M152.16,85.59a3.92,3.92,0,0,1-1,2.55.86.86,0,0,1-1.4.11,3,3,0,0,1-1-1.61c-.12-.46-.32-.37-.58-.16a2.81,2.81,0,0,0-.8,1.43c-.43,1.36-.43,1.36,1,1.65l1.1.24c.31.06.4.24.32.53a3.43,3.43,0,0,0-.13.57c0,.53-.35.58-.78.48-.6-.14-1.21-.24-1.81-.38-.28-.07-.37,0-.43.27q-1.07,5-2.14,10c-.11.54,0,.71.53.85s.82.21,1.24.27.44.24.37.55a3.61,3.61,0,0,0-.1.48c0,.47-.29.54-.7.44q-2.18-.53-4.37-1-1-.23-2.06-.4c-.37-.06-.46-.25-.39-.58,0-.1.05-.19.07-.28.16-.7.16-.72.86-.57.46.1.63-.13.71-.51l1-4.63c.39-1.78.76-3.56,1.17-5.34.07-.31,0-.46-.3-.49a5.18,5.18,0,0,1-.67-.15c-.58-.13-.63-.2-.5-.74.24-1,0-1.08,1.2-.78.46.12.69.11.89-.45.86-2.38,2.76-3.39,5.15-3.63a5.07,5.07,0,0,1,3.32.78C152.06,85.17,152.2,85.36,152.16,85.59Z" style="fill:#fdfcfb"/><path d="M168.93,97.55c0,.31-.07.62-.14.92s0,.4.31.33a8.33,8.33,0,0,1,1.76-.1,4.77,4.77,0,0,1,2.12.51.8.8,0,0,1,.44,1.23,4.55,4.55,0,0,1-1.9,2.23c-.66.35-1,.27-1.41-.34a2.38,2.38,0,0,1-.47-1.17c0-.34-.1-.58-.47-.69a1.13,1.13,0,0,0-1.15.11,2.42,2.42,0,0,0-.56.79l-3.5,6.83c-.36.7-.3.84.42,1.2.29.15.57.31.87.45a.4.4,0,0,1,.22.63c-.55,1.12-.52.93-1.37.48-1.8-1-3.62-1.87-5.5-2.67-.55-.23-.57-.31-.31-.84l.17-.35c.14-.3.33-.43.65-.24l.22.1c.6.28.74.23,1.06-.4q1.28-2.5,2.55-5c.6-1.18,1.2-2.35,1.78-3.53.29-.58.22-.73-.37-1l0,0c-.81-.39-.88-.81-.25-1.49a.39.39,0,0,1,.49-.07l4.1,1.71C168.86,97.23,169,97.34,168.93,97.55Z" style="fill:#fdfcfb"/><path d="M109.65,138.29l-1.17-.12c-.18,0-.34-.06-.39-.29s.12-.33.29-.38q1.14-.36,2.29-.69a1,1,0,0,1,.43,0,.76.76,0,0,1,.61.5c.09.28-.19.39-.36.52A2.55,2.55,0,0,1,109.65,138.29Z" style="fill:#fcf8f6"/><path d="M110.86,119a6.1,6.1,0,0,1,1.62.76,2.34,2.34,0,0,1,.63.78s-.08.07-.09.06a52.83,52.83,0,0,0-5.71-1.11,11.42,11.42,0,0,0-4.85.09,7.28,7.28,0,0,0-3.62,1.79,2.25,2.25,0,0,0-.2.27h-.19l-.2,0a.59.59,0,0,1-.22-.91,5,5,0,0,1,2.11-2,9.25,9.25,0,0,1,7.08-.81C108.44,118.28,109.65,118.64,110.86,119Zm1.29,1.14.06.07,0-.05h-.09c-.12-.25-.38-.29-.59-.37-.82-.31-1.65-.6-2.49-.87a13.2,13.2,0,0,0-7.3-.63,5,5,0,0,0-3.17,2.33.9.9,0,0,0-.19.74,6.25,6.25,0,0,1,3.34-2.15,13.05,13.05,0,0,1,6.15-.08C109.31,119.46,110.74,119.78,112.15,120.17Z" style="fill:#e2b33c"/><path d="M134.19,137.69c-1.49-.22-3-.28-4.48-.51a12.73,12.73,0,0,0-4.45-.16,5.76,5.76,0,0,0-3.23,1.75.78.78,0,0,1-.72-.2.45.45,0,0,1-.08-.78,5.86,5.86,0,0,1,2-1.41,10.51,10.51,0,0,1,6.93-.48c1.22.3,2.41.68,3.59,1.08a3.42,3.42,0,0,1,1.42.95.72.72,0,0,1-.84-.21c0-.18-.1-.11-.18-.12-.06-.2-.27-.22-.41-.3a8.34,8.34,0,0,0-1.57-.53,15.19,15.19,0,0,0-6.27-.72,7.66,7.66,0,0,0-2.37.55,3,3,0,0,0-1.38,1.08,6.11,6.11,0,0,0,.8-.32,8.61,8.61,0,0,1,1.77-.53,16.66,16.66,0,0,1,3.35-.22,23.44,23.44,0,0,1,4.89.61,10.75,10.75,0,0,0,1.2.38Z" style="fill:#e2b33c"/><path d="M122.63,127.9l1.26.59,0,.1a.59.59,0,0,1-.19,0,11.91,11.91,0,0,0-4.4-.7,35.43,35.43,0,0,0-4.62.09,13.82,13.82,0,0,0-4.43,1c-.1,0-.15,0-.19-.07l0-.14c.09,0,.18,0,.19-.13h0c.07,0,.11,0,.1-.1h0a13.54,13.54,0,0,1,2-1,10.74,10.74,0,0,1,4.71-.51,19.64,19.64,0,0,1,4.82.62.93.93,0,0,0,.52.09h0C122.45,127.92,122.55,127.9,122.63,127.9Z" style="fill:#262121"/><path d="M110.07,129c0,.09.09.11.19.07a13.82,13.82,0,0,1,4.43-1,35.43,35.43,0,0,1,4.62-.09,11.91,11.91,0,0,1,4.4.7.59.59,0,0,0,.19,0h0c0,.17.1.11.17,0l.05,0a.62.62,0,0,1,.32.22c.11.11.21.25.12.39s-.23,0-.34,0a13.94,13.94,0,0,0-3.66-.77,16.76,16.76,0,0,0-3.35-.15,20.62,20.62,0,0,0-5.1.67,3.56,3.56,0,0,0-1.22.77,1.11,1.11,0,0,1-.74-.14C109.89,129.37,109.77,129.18,110.07,129Z" style="fill:#e2b33c"/><path d="M122.43,127.81a.93.93,0,0,1-.52-.09,19.64,19.64,0,0,0-4.82-.62,10.74,10.74,0,0,0-4.71.51,13.54,13.54,0,0,0-2,1c.09-.46.48-.67.8-.9a6.44,6.44,0,0,1,3.42-1.15,18.14,18.14,0,0,1,4.56.33c.75.14,1.5.29,2.24.46A1.67,1.67,0,0,1,122.43,127.81Z" style="fill:#e2b33c"/><path d="M98.25,121.63l.2,0C98.37,121.74,98.3,121.73,98.25,121.63Z" style="fill:#fce094"/><path d="M122.63,127.9c-.08,0-.17,0-.2-.1h.19A.85.85,0,0,1,122.63,127.9Z" style="fill:#e2b33c"/><path d="M110.29,128.68c0,.13-.1.12-.19.13S110.18,128.67,110.29,128.68Z" style="fill:#e2b33c"/><path d="M110.38,128.59c0,.07,0,.11-.1.1S110.3,128.57,110.38,128.59Z" style="fill:#e2b33c"/><polygon points="100.85 122.44 100.87 122.44 100.86 122.45 100.85 122.44" style="fill:#262121"/><path d="M181.33,129.34a1.59,1.59,0,0,1-1.58,1.59,1.59,1.59,0,1,1,1.58-1.59Zm-1.58,1.22a1.24,1.24,0,0,0,1.22-1.22,1.27,1.27,0,0,0-1.21-1.24,1.25,1.25,0,0,0-1.21,1.23A1.24,1.24,0,0,0,179.74,130.56Z" style="fill:#fcf8f6"/><path d="M132.86,118.64a10.13,10.13,0,0,1-1.07-.08c-.66-.12-.93-.46-.83-1a1.08,1.08,0,0,1,1.19-.71,3.87,3.87,0,0,1,.66.17,2.67,2.67,0,0,0,2-.08,2.14,2.14,0,0,1,.81-.13c.25,0,.46.06.54.32s-.09.43-.29.57a4.46,4.46,0,0,1-2.64.9h-.34Z" style="fill:#fdfcfb"/><path d="M125.1,115.48a4,4,0,0,1-1.63-.72c-.17-.12-.12-.3-.05-.44a1,1,0,0,1,.87-.6,2.49,2.49,0,0,1,1.22.27.62.62,0,0,1,.41.82C125.79,115.2,125.61,115.54,125.1,115.48Z" style="fill:#fcf8f6"/><path d="M115.61,155.73a3.64,3.64,0,0,0,3.91,2.34,1.92,1.92,0,0,0,.79-.24.44.44,0,0,0,.28-.46c0-.37.17-.42.46-.26a1.54,1.54,0,0,1,.68.81c.15.41-.07.68-.44.85a3.19,3.19,0,0,1-1.59.19,4.52,4.52,0,0,1-3.89-2.24A1.2,1.2,0,0,1,115.61,155.73Z" style="fill:#fcf8f6"/><path d="M117.15,154.15l-.37,0-1.42-.44A1.62,1.62,0,0,1,117.15,154.15Z" style="fill:#fdf6db"/><path d="M116.25,154.71s.1.08,0,.12Z" style="fill:#262121"/><path d="M139,158a22.06,22.06,0,0,1-3.73.14,2.83,2.83,0,0,1-2.22-.93c-.06-.07-.17-.14-.13-.24s.2-.1.3-.08l3.89.54a4.68,4.68,0,0,1,1.28.24C138.62,157.76,138.79,157.87,139,158Z" style="fill:#fce094"/><path d="M134.17,137.6c.08,0,.21-.06.18.12l-.16,0v-.1Z" style="fill:#262121"/><path d="M123.9,128.59l0-.1.23.08-.05,0-.17,0Z" style="fill:#e2b33c"/><path d="M126.42,154.81a3.89,3.89,0,0,0,1.76,0,1.39,1.39,0,0,0,.75-.41c.2-.24.33-.13.43.06s.44.51.09.76a2.87,2.87,0,0,1-2.9-.24A1.42,1.42,0,0,1,126.42,154.81Z" style="fill:#fcf8f6"/><path d="M124.28,151l-1.06-.09c-.1,0-.2,0-.23-.12a.25.25,0,0,1,.11-.29,2.41,2.41,0,0,1,1.3-.35.46.46,0,0,1,.47.47C124.83,151,124.5,151,124.28,151Z" style="fill:#fcf8f6"/><path d="M154.16,142.46a2.36,2.36,0,0,1-2.46,2.29.83.83,0,0,1-.79-1,4.06,4.06,0,0,0,.2-1.15c0-.18.09-.23.26-.27a3.51,3.51,0,0,0,1.6-.88c.47-.43.85-.33,1.09.27A2.14,2.14,0,0,1,154.16,142.46Z" style="fill:#9569ac"/><path d="M141.59,139.26a3.75,3.75,0,0,1,.39,0c.49.05.62.28.4.72l-.07.13c-.41.71-.41.71-1.06.21a4.28,4.28,0,0,0-.56-.37c-.12-.06-.24-.11-.23-.27a.35.35,0,0,1,.23-.29A1.77,1.77,0,0,1,141.59,139.26Z" style="fill:#9569ac"/><path d="M172.06,112a7.31,7.31,0,0,1,1.09-3.12,9.88,9.88,0,0,1,3.36-3.85,2.28,2.28,0,0,1,2.06-.25,1.6,1.6,0,0,1,.91,2.38,18.67,18.67,0,0,1-1.63,2.37c-.85,1.18-1.72,2.33-2.57,3.5a1.82,1.82,0,0,1-1.83.86C172.4,113.75,172,113.34,172.06,112Z" style="fill:#ed2e26"/><path d="M133.19,94.6h.3c.41-.05.54.09.47.52-.15.88-.24,1.78-.37,2.66a1.85,1.85,0,0,1-2,1.65.6.6,0,0,1-.43-.18,3,3,0,0,1,.5-4.29A2.7,2.7,0,0,1,133.19,94.6Z" style="fill:#eb2e27"/><path d="M88.14,103.66a2.46,2.46,0,0,1,.88-2.18,5.2,5.2,0,0,1,.82-.53c.57-.32.58-.31.82.3s.57,1.42.84,2.14a2,2,0,0,1-.81,2.52.81.81,0,0,1-.91.08A2.84,2.84,0,0,1,88.14,103.66Z" style="fill:#eb2e27"/><path d="M151.27,102.44a11,11,0,0,1,.71-3.09,22.49,22.49,0,0,1,2-4.51,4.75,4.75,0,0,1,.76-1,1.64,1.64,0,0,1,2.79.84,5,5,0,0,1-.19,2.32,23,23,0,0,1-2.34,5.62,4.79,4.79,0,0,1-1.12,1.35,1.66,1.66,0,0,1-1.83.28,1.49,1.49,0,0,1-.77-1.52C151.27,102.69,151.27,102.61,151.27,102.44Z" style="fill:#ed2e26"/><path d="M112.15,120.17c-1.41-.39-2.84-.71-4.26-1a13.05,13.05,0,0,0-6.15.08,6.25,6.25,0,0,0-3.34,2.15.9.9,0,0,1,.19-.74,5,5,0,0,1,3.17-2.33,13.2,13.2,0,0,1,7.3.63c.84.26,1.67.56,2.49.87.21.08.48.11.59.37Z" style="fill:#262121"/><path d="M112.14,120.17h.09l0,.05-.06-.07Z" style="fill:#262121"/><path d="M134.18,137.59a10.75,10.75,0,0,1-1.2-.38,23.44,23.44,0,0,0-4.89-.61,16.66,16.66,0,0,0-3.35.22,8.61,8.61,0,0,0-1.77.53,6.11,6.11,0,0,1-.8.32,3,3,0,0,1,1.38-1.08,7.66,7.66,0,0,1,2.37-.55,15.19,15.19,0,0,1,6.27.72,8.34,8.34,0,0,1,1.57.53c.15.09.35.1.41.3Z" style="fill:#262121"/><path d="M123.89,128.58l.17,0C124,128.7,123.93,128.75,123.89,128.58Z" style="fill:#262121"/><path d="M179.74,130.56a1.24,1.24,0,0,1-1.2-1.23,1.25,1.25,0,0,1,1.21-1.23,1.27,1.27,0,0,1,1.21,1.24A1.24,1.24,0,0,1,179.74,130.56Zm.74-.49a.71.71,0,0,1-.07-.93.36.36,0,0,0-.1-.45,1.15,1.15,0,0,0-1.07-.16c-.25.06-.1.36-.12.56a6.48,6.48,0,0,0,0,.68c0,.17,0,.33.23.34s.23-.13.23-.28,0-.22.12-.22.16.11.19.19A.41.41,0,0,0,180.48,130.07Z" style="fill:#b22018"/><path d="M180.48,130.07a.41.41,0,0,1-.6-.27c0-.08-.07-.2-.19-.19s-.12.13-.12.22,0,.29-.23.28-.23-.18-.23-.34a6.48,6.48,0,0,1,0-.68c0-.19-.13-.5.12-.56a1.15,1.15,0,0,1,1.07.16.36.36,0,0,1,.1.45A.71.71,0,0,0,180.48,130.07Zm-.49-1a.26.26,0,0,0-.29-.2c-.16,0-.14.14-.14.26s.08.2.22.17A.23.23,0,0,0,180,129Z" style="fill:#fdf6db"/><path d="M180,129a.23.23,0,0,1-.21.23c-.14,0-.22,0-.22-.17s0-.25.14-.26A.26.26,0,0,1,180,129Z" style="fill:#eb2e27"/></svg>