<svg xmlns="http://www.w3.org/2000/svg" viewBox="0 0 250 250"><defs><style>.a{fill:#006c4d;}</style></defs><title>Midscale</title><path class="a" d="M56.25,127.89c5.31.1,10.6.09,15.88.09a8,8,0,0,1,1.9.23,3.07,3.07,0,0,1,2.5,4,5.66,5.66,0,0,1-.5,1.48,15.37,15.37,0,0,1-6.21,6.67c-.29.15-.23.22,0,.39a5.24,5.24,0,0,1,1.89,3.92c.26,3.22-1.13,5.79-3.24,8.06a13.84,13.84,0,0,1-10.77,4.55c-3.71-.05-7.42,0-11.13,0-1.57,0-3.14.07-4.72.09-.39,0-.9.13-1-.4a1.23,1.23,0,0,1,.52-1.33,2.88,2.88,0,0,1,1.13-.44l.91-.2a4,4,0,0,0,3-2.45q4.3-9.39,8.44-18.85c.36-.84.7-1.68,1.08-2.51a.69.69,0,0,0-.36-1c-.67-.36-1.42-.53-2.11-.83-.32-.14-.8-.21-.74-.69s.47-.69.91-.76C54.49,127.81,55.39,127.95,56.25,127.89ZM55,154.1a13.53,13.53,0,0,0,6.32-1.75,11,11,0,0,0,5.19-5.45,2.26,2.26,0,0,0,.15-1.48,5,5,0,0,0-2.1-3,2,2,0,0,0-1.82-.27,37.3,37.3,0,0,1-5.39,1.43.72.72,0,0,0-.6.46c-1,2.19-2,4.37-3,6.56-.3.67-.59,1.35-.83,2s0,1.12.72,1.3A5.18,5.18,0,0,0,55,154.1Zm4-14.48.33,0c.31,0,.62-.08.92-.15a15.69,15.69,0,0,0,7.34-4,7.42,7.42,0,0,0,2.08-3c.43-1.32,0-2.07-1.34-2.34a15.2,15.2,0,0,0-4.17,0,2.23,2.23,0,0,0-1.93,1.46q-1.77,3.82-3.55,7.64C58.48,139.54,58.57,139.7,59,139.62Z"/><path class="a" d="M49.16,105.75H56.1c.3,0,.55,0,.69-.36,1.1-2.65,2.29-5.26,3.3-8,.27-.73.15-1-.59-1.29-.43-.17-.89-.27-1.32-.45s-.62-.67-.13-1.05a1.56,1.56,0,0,1,1-.27l9.84.14c.39,0,.78,0,1.17,0s.61,0,.65.43-.26.6-.6.65c-.73.11-1.47.15-2.2.25a3.07,3.07,0,0,0-2.55,1.95c-2.68,6.11-5.53,12.14-8.13,18.28-.5,1.18-.93,2.38-1.37,3.58-.24.66-.13,1,.51,1.27s1.23.48,1.82.76c.31.14.79.22.71.71a.92.92,0,0,1-.91.75,30.43,30.43,0,0,1-3.72,0c-2.1,0-4.2,0-6.29,0-.7,0-1.4,0-2.09-.06-.24,0-.49,0-.56-.31a.6.6,0,0,1,.28-.7,4.27,4.27,0,0,1,1.19-.46,12.44,12.44,0,0,0,1.76-.59,4,4,0,0,0,2.16-2.25c1.26-3.07,2.55-6.12,3.82-9.18.25-.59.24-.6-.4-.61l-12.41-.06c-1.47,0-1.46,0-2,1.34-1.25,2.86-2.4,5.76-3.75,8.58-.09.19-.17.39-.24.59a1,1,0,0,0,.41,1.42c.34.26.72.46,1.07.71.61.44.52,1.08-.17,1.39a2.44,2.44,0,0,1-1,.13l-10,0c-.4,0-1,.14-1.05-.44s.45-.72.88-.85c.72-.23,1.45-.41,2.18-.62a3.74,3.74,0,0,0,2.51-2.23c3-6.82,6.14-13.57,9-20.43l.13-.32c.58-1.46.29-2-1.24-2.46l-.89-.25c-.18-.06-.39-.1-.4-.35a.55.55,0,0,1,.29-.47,2.73,2.73,0,0,1,1.61-.4q5.16,0,10.32,0a2.56,2.56,0,0,1,.57.09.4.4,0,0,1,.33.36.59.59,0,0,1-.3.59,3.54,3.54,0,0,1-1.21.39,10,10,0,0,0-1.68.46,3.48,3.48,0,0,0-1.94,1.82c-1.13,2.43-2.26,4.85-3.41,7.27-.24.49-.11.57.37.57C44.5,105.74,46.83,105.75,49.16,105.75Z"/><path class="a" d="M140.26,123,130,122.81c-.34,0-.78,0-.87-.4s.29-.69.66-.83c.69-.26,1.39-.48,2.09-.73a9.93,9.93,0,0,0,2.36-1.11,3.75,3.75,0,0,0,1.41-1.66c2.73-6.47,5.62-12.87,8.42-19.3.44-1,.29-1.46-.77-1.8a23.09,23.09,0,0,0-4.52-1.07,4.61,4.61,0,0,0-4,1.8,16.39,16.39,0,0,1-2.61,2.48,3.3,3.3,0,0,1-2.75.59A1.86,1.86,0,0,1,128,98.4a7,7,0,0,1,2.94-3.8,11.2,11.2,0,0,1,9.49-1.66c2,.48,3.87,1.14,5.86,1.5a11,11,0,0,0,1.5.18,69.76,69.76,0,0,0,8.73-.11A33,33,0,0,0,164.43,93c.38-.13.78-.23,1.17-.34a.54.54,0,0,1,.67.21.71.71,0,0,1,0,.77,2.28,2.28,0,0,1-.78.77,20.67,20.67,0,0,1-8.94,3.56c-1.19.14-2.4.1-3.6.16a7.51,7.51,0,0,0-1.15.16,2.74,2.74,0,0,0-2,1.74c-2.78,6-5.35,12.14-7.89,18.27-.17.41-.3.84-.5,1.24a.89.89,0,0,0,.28,1.14,6.78,6.78,0,0,0,1.29.79c.37.22.8.4.64,1a1,1,0,0,1-1.08.68h-2.27Z"/><path class="a" d="M181.49,114.48c-1,1.23-1.88,2.35-2.79,3.45-1.14,1.37-2.3,2.73-3.45,4.1a2.84,2.84,0,0,1-.37.37c-1.36,1.1-2.33.88-3.06-.71a6.27,6.27,0,0,1-.6-2.42,31.08,31.08,0,0,1,.43-8.06,41,41,0,0,1,1.36-4.56,6.31,6.31,0,0,0,.51-2.14c0-.87-.3-1.19-1.15-1.28-.26,0-.68.13-.7-.3a.85.85,0,0,1,.62-.89,2.22,2.22,0,0,1,.63-.06H179c.57,0,1.26,0,1.41.63s-.49.89-1,1.1a2.9,2.9,0,0,0-1.81,2.12,51.6,51.6,0,0,0-1.49,6.93,20.37,20.37,0,0,0,.19,4.62c.14.05.21,0,.27-.09A32.16,32.16,0,0,0,183.83,105c.26-.88.15-1.1-.7-1.49-.28-.12-.64-.19-.58-.61a1,1,0,0,1,.76-.86,2.43,2.43,0,0,1,.58,0h6c.4,0,.9-.07,1,.49a.88.88,0,0,1-.71,1,3.18,3.18,0,0,0-2.14,2.39,28.9,28.9,0,0,0-1.43,5.68,16.7,16.7,0,0,0,.48,6.74c.18.61.2.62.65.13a53.57,53.57,0,0,0,6.79-9.58c.66-1.14,1.3-2.3,1.86-3.49s.25-1.63-.9-1.93c-.43-.11-.88-.16-1.31-.28s-.52-.43-.2-.77a1.25,1.25,0,0,1,.95-.38h5.42c.23,0,.49,0,.58.28a.57.57,0,0,1-.19.69c-1.95,1.13-2.49,3.22-3.39,5a51.81,51.81,0,0,1-8.83,13.14,14.07,14.07,0,0,1-1.47,1.32,3.23,3.23,0,0,1-2.08.61,1.63,1.63,0,0,1-1.42-1,14.71,14.71,0,0,1-1.74-5.09C181.67,116.19,181.6,115.4,181.49,114.48Z"/><path class="a" d="M97.57,113l1.25-1.34c2.68-2.91,5.38-5.82,8-8.75a2.47,2.47,0,0,1,2-.88c1.77,0,3.54,0,5.3,0,.34,0,.79-.11.94.37s-.22.81-.78,1a4.72,4.72,0,0,1-.56.16,3.09,3.09,0,0,0-2.32,2q-2.72,6.49-5.49,13c-.18.43-.39.85-.59,1.27a.86.86,0,0,0,.36,1.32c.18.11.38.2.56.3.5.27.52.61.07,1a1.61,1.61,0,0,1-1,.3H98.78c-.3,0-.69.06-.75-.36a.77.77,0,0,1,.48-.85,4.21,4.21,0,0,1,.66-.23,3,3,0,0,0,2-1.78l4.74-10.88c.06-.13.21-.31.05-.41s-.29.12-.4.23L96.13,118.6a6,6,0,0,1-1.4,1.22c-1,.56-1.56.24-1.54-.86.05-3.26-.15-6.52-.15-9.78,0-.16.06-.35-.14-.51a2.14,2.14,0,0,0-.44.79q-1.91,4-3.79,8a16.6,16.6,0,0,0-1,2.8c-.19.69.08,1.05.78,1.22.21.05.52,0,.56.3a.72.72,0,0,1-.41.66,1.52,1.52,0,0,1-.89.23h-5c-.27,0-.59,0-.67-.31a.73.73,0,0,1,.39-.83,1.53,1.53,0,0,1,.43-.17,3.36,3.36,0,0,0,2.42-2.09q3.12-7.08,6.21-14.17c.34-.77.22-1-.68-1.4-.71-.33-.85-.68-.51-1.19a1,1,0,0,1,.84-.45c1.71,0,3.42-.06,5.12,0,.54,0,.7.32.72.79q.13,2.79.27,5.58C97.41,109.89,97.49,111.35,97.57,113Z"/><path class="a" d="M214.17,114.18l1.54-3.75,2.19-5.39c.4-1,.23-1.33-.8-1.59l-.28-.08c-.24-.08-.59,0-.63-.4s.23-.56.5-.73a1.29,1.29,0,0,1,.67-.16c1.9-.06,3.81,0,5.71-.07.29,0,.67,0,.77.36a.7.7,0,0,1-.51.82,10,10,0,0,1-1,.37,3.9,3.9,0,0,0-2.64,2.57q-2.71,7.52-5.46,15a8.51,8.51,0,0,1-.41,1,1.52,1.52,0,0,1-1.53.93,1.41,1.41,0,0,1-1.27-1c-.29-.68-.52-1.38-.78-2.07-1.39-3.74-3-7.39-4.29-11.18-.18-.53-.34-1.06-.51-1.58-.17,0-.19.07-.23.15-1.58,3.86-3.44,7.59-5.16,11.39q-.18.4-.34.8c-.35.87-.32,1,.47,1.52a.74.74,0,0,1,0,1.35,1.88,1.88,0,0,1-1,.24h-3.67c-.3,0-.68,0-.76-.36a.85.85,0,0,1,.44-.94,4.14,4.14,0,0,1,.59-.26,3.56,3.56,0,0,0,2-2c1.88-4.38,4-8.68,5.68-13.13.12-.31.21-.62.31-.94.2-.68.08-1-.55-1.27-.31-.16-.65-.27-.94-.45a.56.56,0,0,1,0-1.05,2.38,2.38,0,0,1,1.13-.25H208a1.8,1.8,0,0,1,1.72,1.19c.56,1.26,1,2.55,1.54,3.83q1.34,3.41,2.67,6.82A.55.55,0,0,0,214.17,114.18Z"/><path class="a" d="M69.1,124c-2.5-.08-4.69-.79-6.17-2.94a7,7,0,0,1-1.08-5.63,18.7,18.7,0,0,1,12.2-14.3,8.83,8.83,0,0,1,6.82.07,6.63,6.63,0,0,1,4.1,5.71,12.66,12.66,0,0,1-2.16,8.06,18.49,18.49,0,0,1-10.35,8.49A12.87,12.87,0,0,1,69.1,124Zm-3.74-6.5c-.08,2.86,1.12,4.39,3.5,4.49a7.26,7.26,0,0,0,4.71-1.54,19.68,19.68,0,0,0,6.57-9.2,10.54,10.54,0,0,0,.78-4,3.42,3.42,0,0,0-3.7-3.66,7.62,7.62,0,0,0-5,1.86,19.55,19.55,0,0,0-5.56,7.43A12.85,12.85,0,0,0,65.37,117.47Z"/><path class="a" d="M169.86,108.65a13.3,13.3,0,0,1-1.88,5.72,18.8,18.8,0,0,1-10,8.84,10.2,10.2,0,0,1-6.9.31,6.57,6.57,0,0,1-4.52-6.16,14.44,14.44,0,0,1,2.49-8.11,18.42,18.42,0,0,1,9.73-8.12,10.13,10.13,0,0,1,5.62-.38C167.79,101.51,169.87,104.27,169.86,108.65Zm-4.14-.61c.08-2.69-.91-4.11-2.8-4.43a6.23,6.23,0,0,0-4.67,1,18.26,18.26,0,0,0-8,13.05c-.4,2.87,1.41,4.52,4.29,4.29a8.21,8.21,0,0,0,4.6-2.05,19.1,19.1,0,0,0,4.75-6.12A14.7,14.7,0,0,0,165.72,108Z"/><path class="a" d="M147,128.42c2,0,4,0,5.95,0a2.3,2.3,0,0,1,1.72.71,5.86,5.86,0,0,1,1.6,2.73,1.26,1.26,0,0,1-.64,1.53,1.37,1.37,0,0,1-1.68-.68c-.55-1.8-1.89-2.39-3.59-2.5a13.35,13.35,0,0,0-3.54.17,2,2,0,0,0-1.55,1.2c-.86,2-1.68,4-2.52,5.94-.12.28-.07.39.25.39,1.17,0,2.33,0,3.5,0a4.79,4.79,0,0,0,2.07-.73c.93-.52,1.84-1.08,2.77-1.6.26-.15.57-.36.84-.05s.13.59,0,.86a17.24,17.24,0,0,1-3.28,4.06,4,4,0,0,1-1.5.87.61.61,0,0,1-.82-.33,1.94,1.94,0,0,0-2.09-1.14c-.74,0-1.48,0-2.21,0a.53.53,0,0,0-.58.35c-.88,2-1.86,4-2.65,6-.54,1.41-.32,1.74,1.2,1.74a27.58,27.58,0,0,0,4.3-.19,4.47,4.47,0,0,0,1.9-.83,29.54,29.54,0,0,1,5.5-3.14,3.16,3.16,0,0,1,1.53-.31c.54.05.72.35.4.77a26.33,26.33,0,0,1-4.8,5.05,2.59,2.59,0,0,1-1.68.54c-4.86-.05-9.71-.09-14.57-.13-.41,0-.81,0-1.22-.06-.24,0-.49,0-.55-.33a.68.68,0,0,1,.24-.68,1.2,1.2,0,0,1,.58-.25,3,3,0,0,0,2.24-1.85c2.09-4.86,4.33-9.66,6.25-14.6.06-.16.12-.33.17-.49.33-1.07.33-1.09-.66-1.62-.45-.24-.44-.55-.19-.9a1.43,1.43,0,0,1,1.3-.5Z"/><path class="a" d="M124.54,102.19h6a2.13,2.13,0,0,1,.8.09,5.1,5.1,0,0,1,2.49,3.66,1.1,1.1,0,0,1-.72,1.2,1.49,1.49,0,0,1-1.58-.59.66.66,0,0,1-.08-.15,3.32,3.32,0,0,0-3.37-2.44,13.35,13.35,0,0,0-3.71.15,2.09,2.09,0,0,0-1.58,1.25c-.76,1.74-1.5,3.49-2.25,5.24-.12.27-.07.39.25.39,1.17,0,2.33,0,3.5,0a5.9,5.9,0,0,0,2.53-1c.78-.43,1.54-.91,2.31-1.35.27-.15.58-.33.85,0s.12.58,0,.86a17.41,17.41,0,0,1-3.28,4.07,4.07,4.07,0,0,1-1.39.84.69.69,0,0,1-1-.35,1.88,1.88,0,0,0-1.94-1.1c-.78,0-1.55,0-2.33,0a.53.53,0,0,0-.57.37c-.88,2-1.82,3.9-2.61,5.9a4.38,4.38,0,0,0-.26.89c-.09.57.12.88.69.91a27.09,27.09,0,0,0,5.12-.15,4,4,0,0,0,1.74-.76A30.6,30.6,0,0,1,129.4,117a3.75,3.75,0,0,1,1.79-.44c.56,0,.75.36.41.81a26.09,26.09,0,0,1-4.81,5,2.5,2.5,0,0,1-1.62.52c-5.15-.06-10.29-.11-15.44-.15a2,2,0,0,1-.41,0c-.22,0-.48-.06-.52-.37a.66.66,0,0,1,.28-.66,1.28,1.28,0,0,1,.47-.21,3.3,3.3,0,0,0,2.48-2.23c1-2.42,2.12-4.83,3.15-7.26.93-2.19,2-4.34,2.77-6.59.07-.2.11-.41.19-.61a.79.79,0,0,0-.48-1.13c-.3-.14-.72-.2-.62-.7a1,1,0,0,1,.86-.77,3.81,3.81,0,0,1,.75,0Z"/><path class="a" d="M83.38,127.9c1,0,2.06,0,3.09,0,.33,0,.76,0,.84.45a.84.84,0,0,1-.59.9c-.37.17-.76.29-1.14.44a1.93,1.93,0,0,0-1.24,1.07c-1.41,3.82-3.23,7.47-4.76,11.24a6,6,0,0,0-.57,2.42,2,2,0,0,0,1.12,1.84,3.66,3.66,0,0,0,1.44.44,11.5,11.5,0,0,0,5.5-.61,5.8,5.8,0,0,0,3-2.69,92.17,92.17,0,0,0,5.67-12.8c.23-.62,0-1-.67-1.13-.4-.08-.81-.09-1.21-.16s-.62-.11-.64-.48a.82.82,0,0,1,.47-.86,1.53,1.53,0,0,1,.68-.12l5.54,0a3.84,3.84,0,0,1,.69.1c.23,0,.49.13.53.39a.66.66,0,0,1-.39.66,1.49,1.49,0,0,1-.43.17,3.26,3.26,0,0,0-2.44,2.26c-1.25,3.13-2.44,6.29-3.89,9.34-.47,1-.94,2-1.47,3A10.84,10.84,0,0,1,84,149.51a11.05,11.05,0,0,1-5.94-.69,4.72,4.72,0,0,1-2.88-6.16,70.08,70.08,0,0,1,3.34-8c.59-1.31,1.23-2.59,1.74-3.94.31-.83.23-1-.57-1.31-.32-.13-.8-.14-.73-.67s.44-.71.89-.79A24.21,24.21,0,0,1,83.38,127.9Z"/><path class="a" d="M163,150.09c-1.38,0-2.76,0-4.14,0-.38,0-.92.1-1-.44s.36-.82.8-.9c2.14-.39,3.17-1.8,3.95-3.73,1.61-4,3.41-7.9,5.13-11.85.73-1.66.56-2-1.14-2.57a3.88,3.88,0,0,0-4.57,1.17c-.45.5-.89,1-1.35,1.53a2.78,2.78,0,0,1-3.12.27.72.72,0,0,1-.26-.83c.64-2.39,3.31-5,6.37-4.69,2.73.28,5.39.89,8.08,1.35a14.57,14.57,0,0,0,9.25-1.12c.45-.23.9-.45,1.37-.65s.8-.27,1.08.07,0,.77-.18,1.11a3,3,0,0,1-1,.89,12.7,12.7,0,0,1-5.61,1.74,14.75,14.75,0,0,0-2.36.35,2,2,0,0,0-1.41,1.11c-2,4.33-4.12,8.64-6,13-.51,1.19-.41,1.45.67,2.14.24.16.5.31.73.48.58.43.52,1-.13,1.31a2.17,2.17,0,0,1-1,.2Z"/><path class="a" d="M127.32,128.34c2.59.09,4.77-.08,6.94.1a3.76,3.76,0,0,1,2.36,1,2.1,2.1,0,0,1,.45,2.46,1.3,1.3,0,0,1-2.21.34,2.12,2.12,0,0,1-.62-1.1,1.27,1.27,0,0,0-1.2-1.09,18.22,18.22,0,0,0-5.16,0,2.19,2.19,0,0,0-1.74,1.4c-.8,1.87-1.56,3.76-2.34,5.64-.1.25-.1.4.24.4a24,24,0,0,0,4.64-.23,6,6,0,0,0,2.28-1c.19-.13.38-.27.58-.39a.86.86,0,0,1,1,0c.27.21.1.54,0,.81a8.12,8.12,0,0,1-3.52,4.55,2.31,2.31,0,0,1-1.67.33c-.51-.08-.66-.34-.47-.82.06-.16.16-.31.23-.47.31-.65.16-1-.56-1-1.12,0-2.25,0-3.38,0a.45.45,0,0,0-.43.32c-1,2.18-2.11,4.32-3,6.55-.31.77-.17,1.09.61,1.4.5.2,1,.35,1.53.54.2.07.4.17.39.44a.62.62,0,0,1-.38.55,2,2,0,0,1-.9.19h-8.62c-.31,0-.68,0-.76-.37s.2-.65.56-.78c.53-.19,1.07-.34,1.6-.53a3.65,3.65,0,0,0,2.24-2.07q3-6.79,5.93-13.59c.61-1.41.55-1.51-.88-2.08-.3-.12-.68-.18-.63-.63a.86.86,0,0,1,.72-.75,10.48,10.48,0,0,1,2.61-.12C125.1,128.32,126.42,128.34,127.32,128.34Z"/><path class="a" d="M109.94,128.37c1.76.06,3.94-.11,6.11.08a3.8,3.8,0,0,1,2.27.95,2.1,2.1,0,0,1,.49,2.59,1.28,1.28,0,0,1-2.14.3,2.07,2.07,0,0,1-.64-1.09,1.31,1.31,0,0,0-1.24-1.13,18.66,18.66,0,0,0-5.11,0,2.1,2.1,0,0,0-1.7,1.27c-.83,1.92-1.62,3.86-2.42,5.8-.08.19-.1.36.17.36,2,0,4,.18,5.92-.6a6.76,6.76,0,0,0,1.31-.75,2.39,2.39,0,0,1,.55-.32.83.83,0,0,1,.79,0c.25.19.13.46.06.7a8,8,0,0,1-3.69,4.76,2.2,2.2,0,0,1-1.58.24c-.44-.08-.66-.32-.43-.79.06-.12.11-.25.17-.37.41-.81.25-1.13-.64-1.15-1,0-2.1,0-3.15,0a.52.52,0,0,0-.53.36c-1,2.13-2.05,4.22-2.95,6.39-.38.92-.23,1.23.72,1.58.45.17.92.3,1.37.48.19.07.42.17.41.43a.63.63,0,0,1-.37.55,1.85,1.85,0,0,1-.9.2H94.18c-.3,0-.67,0-.76-.36s.19-.66.54-.79c.53-.19,1.07-.35,1.6-.53a3.69,3.69,0,0,0,2.26-2.12q2.93-6.72,5.85-13.44c.66-1.52.63-1.57-.89-2.2-.27-.11-.59-.19-.58-.56a.83.83,0,0,1,.58-.74,2.9,2.9,0,0,1,1.14-.18l2.8,0Z"/><path class="a" d="M221.08,106.92a1.89,1.89,0,0,1,2-1.91,1.94,1.94,0,1,1-.06,3.89A1.9,1.9,0,0,1,221.08,106.92Zm3.54,0a1.56,1.56,0,0,0-1.56-1.66A1.63,1.63,0,0,0,221.4,107a1.68,1.68,0,0,0,1.62,1.65A1.6,1.6,0,0,0,224.62,107Z"/><path class="a" d="M223.82,108.09c-.38-.09-.43-.45-.6-.68s-.22-.39-.48-.31-.14.32-.17.49.06.31-.11.45c-.25-.12-.15-.36-.16-.54s0-.54,0-.81c0-.85.46-1.14,1.26-.77.35.16.54.71.24.9-.57.36-.2.64,0,1A.31.31,0,0,1,223.82,108.09Zm-.84-1.24c.27,0,.59,0,.59-.4s-.3-.34-.56-.35-.46,0-.45.35S222.69,106.88,223,106.85Z"/></svg>