<svg xmlns="http://www.w3.org/2000/svg" viewBox="0 0 250 250"><defs><style>.a{fill:#080808;}</style></defs><title>Fine Dining</title><rect class="a" x="35.89" y="112.4" width="3.88" height="28.49"/><rect class="a" x="134.79" y="112.99" width="3.88" height="27.9"/><polygon class="a" points="200.83 140.89 196.94 135.84 196.94 112.39 200.83 112.39 200.83 140.89"/><polygon class="a" points="186.5 140.89 182.62 140.89 182.62 112.89 186.5 117.3 186.5 140.89"/><rect class="a" x="134.79" y="105.59" width="3.88" height="17.49" transform="translate(22.39 251.07) rotate(-90)"/><path class="a" d="M93,112.4v19.67a4.23,4.23,0,0,1-.81,2.52,5.38,5.38,0,0,1-9,0,4.23,4.23,0,0,1-.81-2.52V112.4H78.56v20.21a4.46,4.46,0,0,0,.11,1,9.28,9.28,0,0,0,18.11,0,4.46,4.46,0,0,0,.11-1V112.4Z"/><rect class="a" x="21.74" y="112.4" width="3.88" height="28.49"/><polygon class="a" points="15.1 130.75 38.06 130.75 38.06 134.77 17.93 134.77 15.1 130.75"/><path class="a" d="M48.08,126.64a10.83,10.83,0,1,1,10.83,10.83A10.83,10.83,0,0,1,48.08,126.64Zm10.83,14.25a14.25,14.25,0,1,0-14.25-14.25A14.25,14.25,0,0,0,58.91,140.89Z"/><path class="a" d="M151.73,126.64a10.83,10.83,0,1,1,10.83,10.83A10.83,10.83,0,0,1,151.73,126.64Zm10.83,14.25a14.25,14.25,0,1,0-14.25-14.25A14.25,14.25,0,0,0,162.56,140.89Z"/><polyline class="a" points="186.5 123.54 199.38 139.01 199.38 132.62 185.6 116.28"/><path class="a" d="M209.08,109.11h4v3.28s-1.08,3.2-4,3.88Z"/><path class="a" d="M122.52,132.79a2.58,2.58,0,0,1,.52,2.56,7.89,7.89,0,0,1-7.52,5.52c-7.27.43-9.43-6.55-9.43-6.55l3.73-1s4,7.94,8.78,1.91a1.37,1.37,0,0,0-.1-1.8l-11.08-12a3.51,3.51,0,0,1-.76-3.74,7.56,7.56,0,0,1,7.08-5.3c7.27-.43,9.43,6.55,9.43,6.55l-3.73,1s-3.56-7.58-8.3-1.69a1.56,1.56,0,0,0,.08,2Z"/><path class="a" d="M234.24,132.79a2.58,2.58,0,0,1,.52,2.56,7.89,7.89,0,0,1-7.52,5.52c-7.27.43-9.43-6.55-9.43-6.55l3.73-1s4,7.94,8.78,1.91a1.37,1.37,0,0,0-.1-1.8l-11.08-12a3.51,3.51,0,0,1-.76-3.74,7.56,7.56,0,0,1,7.08-5.3c7.27-.43,9.43,6.55,9.43,6.55l-3.73,1s-3.56-7.58-8.3-1.69a1.56,1.56,0,0,0,.08,2Z"/></svg>