<svg xmlns="http://www.w3.org/2000/svg" viewBox="0 0 250 250"><title>Grocery</title><path d="M119.4,156.53c.48-.39.92-.74,1.34-1.11a4.16,4.16,0,0,0,1.2-1.62,1.87,1.87,0,0,0-.6-2.09,3,3,0,0,0-2.16-.58,12.21,12.21,0,0,0-5.06,1c-1.93.77-3.83,1.59-5.75,2.36a14.62,14.62,0,0,1-3.89.86,14,14,0,0,1-5.7-.55A12.75,12.75,0,0,1,96,153.41a9.64,9.64,0,0,1-4-4.53,12.35,12.35,0,0,1,.58-11.62,7.38,7.38,0,0,1,2.56-2.67,4.16,4.16,0,0,0,.75-.6,1.21,1.21,0,0,0,.06-1.87,17.31,17.31,0,0,1-3.68-6.21,13.2,13.2,0,0,1,3.23-13.82,16.16,16.16,0,0,1,7.73-4.69,21.05,21.05,0,0,1,6.9-.6,24.74,24.74,0,0,1,6.34,1.31,1.88,1.88,0,0,0,1,0,2.55,2.55,0,0,0,1.89-1.75c.13-.4.26-.8.39-1.21.47-1.47,1.42-1.87,2.88-1.57a4,4,0,0,1,3.11,3.38,9.53,9.53,0,0,1,.15.95,2.63,2.63,0,0,1-1.45,2.55c-.45.32-.87.67-1.29,1a1.59,1.59,0,0,0-.07,2.14,10.55,10.55,0,0,1,2.12,4.05,14.8,14.8,0,0,1,.53,5.25A12.91,12.91,0,0,1,123,130.1a17.39,17.39,0,0,1-11.11,6.55A24.38,24.38,0,0,1,108,137a18.33,18.33,0,0,1-2.55-.31,6.29,6.29,0,0,0-3.12.11,2.7,2.7,0,0,0-1.59,1.57,2.21,2.21,0,0,0,.16,1.57,1.84,1.84,0,0,0,1.33,1.11,8.09,8.09,0,0,0,4.59,0c2.46-.61,4.9-1.29,7.36-1.91a21.32,21.32,0,0,1,6.7-.72,8.81,8.81,0,0,1,6.86,3.35,7.53,7.53,0,0,1,1.43,3.76,10.92,10.92,0,0,1-.43,4.82,9.53,9.53,0,0,1-3,4.17,11.82,11.82,0,0,1-2.58,1.64,6.39,6.39,0,0,1-3.39.43C119.68,156.59,119.57,156.56,119.4,156.53ZM112.12,121a17.08,17.08,0,0,0-1.44-7,2.63,2.63,0,0,0-1-1.28,1.92,1.92,0,0,0-2.48.32,5.07,5.07,0,0,0-.45.71,13.48,13.48,0,0,0-1.4,5.93,37.4,37.4,0,0,0,.46,7.7,7.23,7.23,0,0,0,1.16,3.18,2.13,2.13,0,0,0,2.45.75,3.56,3.56,0,0,0,1.72-2.18A30.75,30.75,0,0,0,112.12,121Z" style="fill:#ee3a43"/><path d="M70.44,146.74H54.57V109.2A24.43,24.43,0,0,0,68,106.15a5,5,0,0,1,.34,1.73c.07.65.12,1.3.26,1.93a1.66,1.66,0,0,0,.45.7.86.86,0,0,0,1,.26,15.08,15.08,0,0,0,2.25-1,12.83,12.83,0,0,1,4.59-1.8,10.14,10.14,0,0,1,8.44,2,7.41,7.41,0,0,1,2.6,4.82A15.25,15.25,0,0,1,88,117c0,5.52,0,11,0,16.56,0,3.13,0,6.26.07,9.39a4.66,4.66,0,0,0,.49,1.6,5.34,5.34,0,0,0,1.59,2.18H76c-.56,0-1.13,0-1.69,0-.24,0-.37-.07-.34-.33a3,3,0,0,0,0-.35c0-8.58,0-17.15,0-25.73a9,9,0,0,0-.6-3,3.27,3.27,0,0,0-.79-1.34,1.7,1.7,0,0,0-2.73.22,7,7,0,0,0-.81,1.85,5.58,5.58,0,0,0-.34,2.11q0,5.37,0,10.75c0,3.89,0,7.78-.08,11.67A5.78,5.78,0,0,0,69.89,146C70.05,146.24,70.23,146.47,70.44,146.74Z" style="fill:#ee3a43"/><path d="M181.28,123.32l-6.34,2.84-4.83,2.18c-1.94.88-3.87,1.76-5.81,2.62a1.86,1.86,0,0,0-1.08,1.64,3.39,3.39,0,0,0,.59,2.22,10.91,10.91,0,0,0,7.34,5.18,3.8,3.8,0,0,0,2.16-.14,1.83,1.83,0,0,0,1.42-1.95,9.33,9.33,0,0,1,.07-1.5,2.47,2.47,0,0,1,2.26-2.17,3.91,3.91,0,0,1,3.85,1.83,4.83,4.83,0,0,1,.55,4.92,8.49,8.49,0,0,1-2.34,3.14,17,17,0,0,1-4.54,2.83,15.51,15.51,0,0,1-4.12,1A19.7,19.7,0,0,1,156,144.1a20.11,20.11,0,0,1-7.73-12.82,24.55,24.55,0,0,1,.54-11.27,19.54,19.54,0,0,1,4.49-7.88,15.89,15.89,0,0,1,19.67-2.92,10.09,10.09,0,0,1,2.87,2.66,22.24,22.24,0,0,1,2.84,5.29q.75,2.1,1.4,4.23a4,4,0,0,0,.93,1.56C181.07,123,181.15,123.16,181.28,123.32Zm-13.14-2.73c0-.26,0-.51-.06-.77a17.36,17.36,0,0,0-1-4.2,5.41,5.41,0,0,0-1.42-2.5,2.07,2.07,0,0,0-2.25-.23A4.19,4.19,0,0,0,162,115a23,23,0,0,0-.6,7.1,5.57,5.57,0,0,0,.49,1.8.93.93,0,0,0,1.24.61,16.64,16.64,0,0,0,1.72-.51c.57-.2,1.13-.42,1.68-.66a2.87,2.87,0,0,0,.92-.57A3,3,0,0,0,168.14,120.59Z" style="fill:#ee3a43"/><path d="M203,116.08a10.85,10.85,0,0,0,.5-1.1,1.81,1.81,0,0,0-.76-2.24,6.21,6.21,0,0,0-5.41-1,4.78,4.78,0,0,0-3,2,2.74,2.74,0,0,0,.29,3.17,8.7,8.7,0,0,0,4.51,2.47c1.69.45,3.43.75,5.1,1.26a18.17,18.17,0,0,1,7,3.75,11,11,0,0,1,3.37,5.09,12,12,0,0,1-.42,8,14.44,14.44,0,0,1-4.07,5.55,18.3,18.3,0,0,1-6.46,3.36,21.8,21.8,0,0,1-8.42,1,15.51,15.51,0,0,1-7.61-2.5,11.31,11.31,0,0,1-2.83-2.74,4.94,4.94,0,0,1,.19-5.82,4.86,4.86,0,0,1,4-2.17c2,0,2.79.91,2.94,2.69,0,.62.12,1.25.22,1.87a2.53,2.53,0,0,0,1.2,1.7,7.37,7.37,0,0,0,3.51,1.36c2.29.2,4.37-.25,5.9-2.16a2.93,2.93,0,0,0,.47-3.23,4,4,0,0,0-1.2-1.6,15.33,15.33,0,0,0-5.17-2.48c-1.85-.56-3.74-1-5.53-1.73a13.67,13.67,0,0,1-7.62-7,11.12,11.12,0,0,1,3.05-13.37,18.45,18.45,0,0,1,7.93-3.89,22,22,0,0,1,6.09-.34,15.13,15.13,0,0,1,7.49,2.27,8.92,8.92,0,0,1,2.37,2.17,10.66,10.66,0,0,1,1.22,2,4.23,4.23,0,0,1,0,2.68,4,4,0,0,1-3.76,2.91A6.87,6.87,0,0,1,203,116.08Z" style="fill:#ee3a43"/><path d="M130.69,98.19a28.77,28.77,0,0,0,7.45-.59,18.08,18.08,0,0,0,6.91-3,9.2,9.2,0,0,1,.15,1.09c0,1.28,0,2.57,0,3.85q0,9.11-.08,18.22,0,9.45-.08,18.91c0,1.74-.1,3.49,0,5.23a7.29,7.29,0,0,0,1.71,4.63l.12.15s0,0,0,.08H132.89c-.58,0-1.15,0-1.73,0-.23,0-.36-.06-.36-.32s0-.36,0-.53q0-8.8,0-17.6,0-14.77,0-29.55A3.13,3.13,0,0,0,130.69,98.19Z" style="fill:#ee3a43"/><path d="M35.54,110.52c5,.07,9.82-.45,14.19-3.42,0,.5.12.91.12,1.31,0,2,0,3.93,0,5.89,0,3.27,0,6.55,0,9.82q0,9.55-.08,19.1a4.35,4.35,0,0,0,1.14,2.85l.63.74h-16Z" style="fill:#ee3a43"/><path d="M49.45,99.56a4.64,4.64,0,0,1-1.7,3.48,9.48,9.48,0,0,1-9.67,1.67,4.78,4.78,0,0,1-2.69-2.7,3.79,3.79,0,0,1,.42-3.56,7.2,7.2,0,0,1,4.48-3.22,9.31,9.31,0,0,1,6.07.17,5.27,5.27,0,0,1,2.51,2.07A3.69,3.69,0,0,1,49.45,99.56Z" style="fill:#ee3a43"/></svg>