<svg xmlns="http://www.w3.org/2000/svg" viewBox="0 0 250 250"><title>Casual dining</title><path d="M149.26,116.25c0-3.78,0-7.56,0-11.34,0-.58.12-.8.75-.79,2.78.05,5.56,0,8.34.07a10.46,10.46,0,0,1,1.53.14,4.54,4.54,0,0,1,4.25,4.59c.13,1.46.06,2.93.07,4.39q0,5.2,0,10.39a4.28,4.28,0,0,1-4.14,4.66,18.67,18.67,0,0,1-2,.12c-2.61,0-5.22,0-7.83,0-.71,0-.95-.14-.94-.91C149.29,123.82,149.26,120,149.26,116.25Zm6.3,0c0,2.46,0,4.93,0,7.39,0,.24-.13.55.28.65a1.57,1.57,0,0,0,1.87-.9,2.73,2.73,0,0,0,.18-1.14q0-6,0-12a3.6,3.6,0,0,0-.12-.94,1.4,1.4,0,0,0-.75-.94c-.91-.44-1.46-.12-1.46.86Q155.56,112.78,155.56,116.29Z"/><path d="M139.75,115.63q0-1.16,0-2.33c0-2.81,0-5.61,0-8.42,0-.54.1-.78.71-.76,1.29,0,2.59.06,3.88,0,.7,0,.78.24.77.83q0,10.5,0,21c0,.66,0,1.32,0,2,0,.39-.08.57-.52.56-1.44,0-2.88,0-4.32,0-.54,0-.58-.3-.67-.66l-3.12-11.95a1.49,1.49,0,0,0-.31-.66V116c0,3.93,0,7.86,0,11.79,0,.59-.17.74-.74.72-1.32,0-2.64,0-4,0-.49,0-.68-.1-.68-.64q0-11.57,0-23.13c0-.51.19-.61.64-.6,1.37,0,2.73,0,4.1,0,.5,0,.66.19.78.63,1,3.44,2,6.87,3,10.3.06.2.13.4.19.6Z"/><path d="M194,115.58a3.55,3.55,0,0,0,.37.14c2,.51,2.92,1.5,3,3.59.08,2.9,0,5.8,0,8.7,0,.34-.1.48-.45.47-1.66,0-3.32,0-5,0-.51,0-.46-.3-.46-.62,0-2.8,0-5.61,0-8.41a5.56,5.56,0,0,0-.12-1.16,1.36,1.36,0,0,0-1.19-1.13c-.81-.14-1,0-1,.8,0,3.27,0,6.53,0,9.8,0,.58-.16.74-.73.73-1.61,0-3.22,0-4.83,0-.44,0-.59-.12-.59-.58q0-11.59,0-23.19c0-.52.2-.61.64-.6,2.85,0,5.7-.06,8.55.08a9.83,9.83,0,0,1,1.52.19,3.81,3.81,0,0,1,3.33,3.93c0,1,0,2,0,3.07C197.08,113.89,196.35,114.88,194,115.58Zm-4.81-4.93q0,1.17,0,2.34c0,.22,0,.41.31.45a1.68,1.68,0,0,0,2-1.55,18.21,18.21,0,0,0,0-2.26,1.71,1.71,0,0,0-2-1.59c-.32,0-.34.2-.33.43C189.16,109.2,189.16,109.93,189.16,110.66Z"/><path d="M53.72,104.13c1.32,0,2.63,0,3.95,0,.42,0,.58.12.64.56q1.14,8.51,2.32,17c.27,2,.54,4,.84,5.93.1.65,0,.9-.75.87-1.61-.06-3.22,0-4.83,0-.51,0-.68-.15-.69-.66,0-1-.13-2-.19-3.06,0-.41-.16-.58-.62-.59-1.7,0-1.7-.06-1.81,1.65,0,.7-.13,1.41-.14,2.11,0,.47-.2.56-.62.55-1.71,0-3.41,0-5.12,0-.51,0-.6-.15-.53-.63q1.46-11.45,2.88-22.91c.08-.62.26-.87.93-.84C51.23,104.18,52.47,104.13,53.72,104.13Zm.13,5.06c-.21.07-.2.24-.21.38-.3,3.29-.59,6.59-.89,9.88,0,.32.07.49.38.41.56-.14,1.22.35,1.69-.29,0,0,0-.09,0-.14Z"/><path d="M119.37,104.13c1.29,0,2.59,0,3.88,0,.51,0,.67.18.73.64.54,4,1.09,8,1.64,12,.5,3.69,1,7.39,1.52,11.07.07.49,0,.64-.52.64q-2.56,0-5.12,0c-.44,0-.6-.12-.62-.56-.05-1-.18-2.09-.21-3.13,0-.49-.2-.61-.65-.62-1.6,0-1.6,0-1.73,1.55-.06.75-.13,1.5-.17,2.26,0,.36-.15.5-.54.5-1.76,0-3.51,0-5.27,0-.56,0-.5-.27-.46-.64.4-3.21.8-6.43,1.2-9.64.57-4.5,1.15-9,1.7-13.49.06-.48.22-.61.67-.6C116.74,104.15,118.05,104.13,119.37,104.13Zm.09,4.83-.11,0c-.28,3.13-.56,6.25-.86,9.38-.15,1.55-.17,1.53,1.41,1.53.48,0,.63-.12.56-.61-.12-.87-.18-1.74-.27-2.61Z"/><path d="M101,111.83c.44-2.29.9-4.58,1.31-6.88.11-.61.28-.87,1-.84,1.36.06,2.73,0,4.1,0,.67,0,.75.17.59.8-.8,3-1.54,6-2.31,9.06a2.55,2.55,0,0,0,0,1.29c1,4.18,2,8.38,3.07,12.56.13.54,0,.68-.52.67-1.58,0-3.17,0-4.76,0-.59,0-.73-.22-.81-.73-.51-3-1.05-5.95-1.58-8.92a.41.41,0,0,0-.15-.27l-1,7.29c-.1.72-.22,1.45-.29,2.17,0,.34-.18.45-.51.45-1.78,0-3.56,0-5.34,0-.6,0-.46-.34-.39-.67.77-3.74,1.5-7.5,2.34-11.23a6.51,6.51,0,0,0-.11-3c-.68-2.89-1.31-5.79-2-8.68-.14-.58-.1-.81.59-.78,1.58.05,3.17.06,4.75,0,.68,0,.86.24.94.83.32,2.29.68,4.57,1,6.86Z"/><path d="M209,119.58c.8,0,1.61,0,2.41,0,.42,0,.55.13.54.54,0,1,0,2,0,2.93a10.05,10.05,0,0,0,.06,1c.06.57.34,1,1,1a1,1,0,0,0,1-.93c.34-3,.19-4-2.1-5.57a33.41,33.41,0,0,1-3.79-2.61,6.18,6.18,0,0,1-2.08-4.66,19.66,19.66,0,0,1,.08-2.92A4.86,4.86,0,0,1,210,104a11.93,11.93,0,0,1,6.36.12,4.39,4.39,0,0,1,3.41,4.46c0,.73,0,1.46,0,2.19,0,.47-.16.58-.59.57-1.49,0-3,0-4.46,0-.45,0-.59-.14-.58-.59a9.47,9.47,0,0,0-.08-2.12c-.12-.62-.42-1-1.1-1.05s-.93.48-1,1.08a3.54,3.54,0,0,0,1.7,4,29.74,29.74,0,0,1,4.13,2.75,6.73,6.73,0,0,1,2.42,5.27,24,24,0,0,1-.11,3.65,4.83,4.83,0,0,1-3.84,4.28,13.21,13.21,0,0,1-6.16.09,4.58,4.58,0,0,1-4-4.57c-.12-1.34-.09-2.68-.11-4,0-.43.15-.54.55-.53C207.36,119.6,208.17,119.58,209,119.58Z"/><path d="M168.37,116.29c0-3.81,0-7.61,0-11.42,0-.54.09-.76.7-.75,3.07,0,6.15,0,9.22,0,.53,0,.73.12.71.69,0,1.19,0,2.39,0,3.59,0,.57-.18.7-.71.68-1,0-2,0-3,0-.46,0-.65.09-.63.6,0,1.07,0,2.15,0,3.22,0,.54.18.66.67.64.93,0,1.85,0,2.78,0,.44,0,.66.07.65.6,0,1.19,0,2.39,0,3.59,0,.47-.18.58-.6.57-1,0-2,0-2.93,0-.38,0-.57.05-.57.51,0,1.44,0,2.88,0,4.32,0,.4.15.49.51.48,1.22,0,2.44,0,3.66,0,.42,0,.54.13.53.54q0,1.94,0,3.88c0,.4-.1.55-.53.55q-5,0-10,0c-.54,0-.51-.28-.51-.64Q168.37,122.07,168.37,116.29Z"/><path d="M79.21,116.32c0-3.8,0-7.61,0-11.41,0-.58.1-.8.74-.79,3,0,6.1,0,9.15,0,.55,0,.78.11.75.72,0,1.19,0,2.39,0,3.58,0,.52-.17.67-.67.65-1,0-2,0-3.07,0-.42,0-.62.07-.6.55,0,1.12,0,2.24,0,3.37,0,.43.15.54.55.53,1,0,1.9,0,2.85,0,.46,0,.66.1.64.6,0,1.17,0,2.34,0,3.51,0,.54-.19.65-.68.64-1,0-1.9,0-2.85,0-.37,0-.52.09-.51.49,0,1.44,0,2.88,0,4.32,0,.46.19.51.56.5,1.15,0,2.29,0,3.44,0,.57,0,.7.17.68.7,0,1.22,0,2.44,0,3.66,0,.41-.06.62-.55.62-3.29,0-6.59,0-9.88,0-.59,0-.54-.31-.54-.69Q79.21,122.07,79.21,116.32Z"/><path d="M65.16,116.27c0-3.8,0-7.61,0-11.41,0-.56.13-.75.72-.74,1.61,0,3.22.05,4.83,0,.69,0,.78.23.78.83,0,6,0,11.95,0,17.92,0,.68.13,1,.86.9.92-.07,1.85,0,2.78,0,.38,0,.51.13.5.51q0,1.87,0,3.73c0,.38-.12.51-.5.51-3.15,0-6.29,0-9.44,0-.56,0-.48-.32-.48-.66Q65.16,122.05,65.16,116.27Z"/><path d="M33.78,114.54q0,4.53,0,9.07c0,3.25-1.42,4.74-4.68,4.85-1.17,0-2.34,0-3.51,0-.45,0-.59-.16-.59-.59,0-1.07,0-2.15,0-3.22,0-.34.06-.58.48-.52,1.63.22,2-.63,2-2.08q0-8.45,0-16.89c0-1,0-1,1-1,1.46,0,2.93,0,4.39,0,.68,0,.92.14.91.88C33.75,108.2,33.78,111.37,33.78,114.54Z" style="fill:#a80532"/><path d="M175,138.24c0,1.83,0,3.56,0,5.28,0,.71-.19.93-.9.9-1.72-.07-1.47.22-1.48-1.47,0-2.44,0-4.88,0-7.31,0-.62.22-.72.79-.79a2.82,2.82,0,0,1,3.26,1.7A33.54,33.54,0,0,0,179,140c.1.15.17.42.41.35s.14-.33.14-.51c0-1.41,0-2.83,0-4.24,0-.55.12-.79.73-.77,1.79.06,1.53-.24,1.54,1.57,0,2.39,0,4.78,0,7.17,0,.64-.19.79-.82.85a2.31,2.31,0,0,1-2.52-1.32c-.81-1.47-1.83-2.82-2.77-4.21A1.43,1.43,0,0,0,175,138.24Z" style="fill:#9a7f54"/><path d="M119.42,140.39c.19-.21.1-.46.1-.69,0-1.39,0-2.78,0-4.17,0-.51.16-.67.67-.68,1.7,0,1.7,0,1.7,1.69,0,2.36,0,4.73,0,7.09,0,.61-.2.73-.79.8a2.37,2.37,0,0,1-2.64-1.38c-.81-1.44-1.8-2.78-2.73-4.15-.15-.22-.23-.67-.56-.55s-.14.52-.14.8c0,1.49,0,3,0,4.46,0,.58-.14.83-.78.81-1.75-.06-1.48.23-1.49-1.53,0-2.41,0-4.82,0-7.24,0-.59.15-.8.78-.8,2.11,0,2.1,0,3.25,1.8.74,1.15,1.5,2.28,2.25,3.42C119.15,140.2,119.21,140.37,119.42,140.39Z" style="fill:#9a7f54"/><path d="M91.76,134.87a11.81,11.81,0,0,1,3.55.29,2.89,2.89,0,0,1,2.3,3c0,.9,0,1.8,0,2.71a3.17,3.17,0,0,1-3.13,3.42c-1.61.2-3.21.09-4.82.14-.43,0-.61-.14-.61-.59q0-4.21,0-8.41c0-.42.18-.56.57-.55C90.35,134.88,91.06,134.87,91.76,134.87Zm-.16,4.77h0q0,.95,0,1.9c0,1.49,0,1.49,1.5,1.37a1.89,1.89,0,0,0,2-2.11c0-.83,0-1.65,0-2.48a1.75,1.75,0,0,0-1.86-2c-.34,0-.68,0-1,0s-.61.15-.6.59C91.62,137.84,91.61,138.74,91.61,139.64Z" style="fill:#9a7f54"/><path d="M46.77,139.61c0-1.34,0-2.68,0-4,0-.52.12-.73.69-.74,1.86,0,1.86,0,1.86,1.83s0,2,2,2c.51,0,1,0,1.54,0s.52-.15.51-.52c0-.88,0-1.76,0-2.63,0-.52.18-.66.68-.67,1.85,0,1.85,0,1.85,1.83,0,2.32,0,4.63,0,6.95,0,.62-.2.79-.8.78-1.74,0-1.74,0-1.74-1.73,0-.63,0-1.27,0-1.9s-.22-.63-.67-.62c-.9,0-1.8,0-2.71,0-.53,0-.68.24-.67.71,0,1,0,2,0,2.93,0,.43-.14.62-.59.61-2.41-.06-1.9.37-1.95-1.87C46.75,141.56,46.77,140.59,46.77,139.61Z" style="fill:#9a7f54"/><path d="M70.81,139.59q0,.77,0,1.53a2.8,2.8,0,0,1-2.46,3.17,7.94,7.94,0,0,1-4.1-.06,2.79,2.79,0,0,1-2.25-3c0-1.14,0-2.29,0-3.43a2.7,2.7,0,0,1,2-2.74,7.72,7.72,0,0,1,4.94,0,2.61,2.61,0,0,1,1.88,2.66C70.82,138.38,70.81,139,70.81,139.59Zm-2.53.05h0c0-.56,0-1.12,0-1.68,0-1.25-.47-1.73-1.7-1.75-1.51,0-2,.4-2.06,1.71,0,1,0,2,0,3.07-.11,1.88,1.06,2.3,2.67,2a1.26,1.26,0,0,0,1.09-1.34C68.29,141,68.28,140.3,68.28,139.64Z" style="fill:#9a7f54"/><path d="M128,139.59q0-1,0-1.9a2.49,2.49,0,0,1,1.68-2.5,7.15,7.15,0,0,1,5-.1,2.81,2.81,0,0,1,1.91,2.14c.12.5,0,.63-.48.61a6.35,6.35,0,0,0-.8,0c-.67.06-1.18,0-1.41-.83s-1.23-1-2.24-.76a1.33,1.33,0,0,0-1.13,1.47c0,1.27,0,2.54,0,3.81,0,1,.48,1.43,1.5,1.53s1.92-.37,2.1-1.26c.11-.56,0-.91-.7-.86-.17,0-.34,0-.51,0-.51.05-.68-.17-.68-.68s.1-.72.65-.71q1.57.05,3.15,0c.54,0,.66.21.65.7,0,1.15,0,2.29,0,3.44,0,.25.11.63-.24.68s-.9.26-1.13-.21c-.31-.62-.61-.38-1-.16a5.17,5.17,0,0,1-5.21-.3,2.21,2.21,0,0,1-1.05-2C128,141,128,140.29,128,139.59Z" style="fill:#9a7f54"/><path d="M146.88,134.71a4.83,4.83,0,0,1,3.57,1.33c.21.22.54.49.41.8s-.5.23-.78.27a3.5,3.5,0,0,0-.64.14.84.84,0,0,1-1.09-.38,2.09,2.09,0,0,0-2.43-.65,1.08,1.08,0,0,0-.8.87c-.07.46.25.72.59.93a10.07,10.07,0,0,0,1.88.79,11.19,11.19,0,0,1,2.32,1.06,2.29,2.29,0,0,1,1.26,2.15,2.26,2.26,0,0,1-1.54,2,6.92,6.92,0,0,1-5.53,0,3.44,3.44,0,0,1-1.72-1.63c-.14-.28-.14-.44.25-.48a15.92,15.92,0,0,0,1.58-.26c.37-.08.51.13.68.4a2.29,2.29,0,0,0,2.85,1,1.19,1.19,0,0,0,.86-1,1.1,1.1,0,0,0-.59-1,11.22,11.22,0,0,0-2.33-1,9.46,9.46,0,0,1-2.17-1,2,2,0,0,1,.12-3.49A6,6,0,0,1,146.88,134.71Z" style="fill:#9a7f54"/><path d="M188.33,139.64c0-.63,0-1.27,0-1.9a2.57,2.57,0,0,1,1.77-2.59,7.59,7.59,0,0,1,5.28,0,2.63,2.63,0,0,1,1.73,2.1c.08.36,0,.57-.44.56a8.75,8.75,0,0,0-1,0c-.61.06-1,0-1.2-.77s-1.15-1-2.34-.82a1.35,1.35,0,0,0-1.25,1.46q0,1.94,0,3.87A1.3,1.3,0,0,0,192,143c1.44.35,2.13-.19,2.63-1.57.33-.92,1.36-.25,2.06-.39.48-.09.44.36.4.66a2.63,2.63,0,0,1-1.5,2.26,6.67,6.67,0,0,1-3.49.55,6.19,6.19,0,0,1-2.06-.42,2.7,2.7,0,0,1-1.75-2.62C188.33,140.86,188.33,140.25,188.33,139.64Z" style="fill:#9a7f54"/><path d="M201.49,104.13c.61,0,1.22,0,1.83,0,.36,0,.52.1.52.49,0,1.19,0,2.39,0,3.58a4.63,4.63,0,0,1-3.64,4.06c-.58.1-.85,0-.87-.67s-.24-1.16.58-1.39c.22-.06.32-.34.42-.57.17-.4.08-.63-.39-.55-.71.12-.84-.22-.81-.84a31.5,31.5,0,0,0,0-3.28c0-.71.23-.87.86-.82S201,104.13,201.49,104.13Z"/><path d="M76.77,139.64c0-1.34,0-2.68,0-4,0-.55.12-.78.73-.77,1.81,0,1.81,0,1.81,1.8s0,3.65,0,5.48c0,.59.17.83.79.8,1,0,2,0,3,0,.65,0,.6.36.62.8s-.09.71-.64.71q-2.81,0-5.62,0c-.52,0-.67-.18-.67-.68C76.79,142.37,76.77,141,76.77,139.64Z" style="fill:#9a7f54"/><path d="M103.72,139.56c0-1.34,0-2.68,0-4,0-.49.13-.68.66-.69,1.9,0,1.9,0,1.9,1.86,0,2.31,0,4.62,0,6.94,0,.55-.14.77-.74.77-1.82,0-1.82,0-1.82-1.79Q103.72,141.09,103.72,139.56Z" style="fill:#9a7f54"/><path d="M163.3,139.64c0-1.37,0-2.73,0-4.1,0-.5.14-.68.66-.69,1.88,0,1.88,0,1.88,1.81,0,2.34,0,4.68,0,7,0,.53-.14.73-.7.73-1.84,0-1.84,0-1.84-1.77Q163.3,141.14,163.3,139.64Z" style="fill:#9a7f54"/><path d="M42.46,126.15c-.08.65.35,1.69-.16,2.17s-1.53.11-2.33.14c-.58,0-1.17,0-1.75,0-.31,0-.43-.11-.43-.43q0-2,0-4.09c0-.34.15-.4.44-.4,1.27,0,2.53,0,3.8,0,.38,0,.44.18.43.49C42.45,124.69,42.46,125.35,42.46,126.15Z" style="fill:#a80532"/><path d="M153.17,142.63c1.33,0,1.23-.21,1.27,1.24a3.77,3.77,0,0,1-1.1,2.31.77.77,0,0,1-1,.09c-.28-.19.07-.46.15-.69a2.9,2.9,0,0,1,.27-.52c.23-.4.27-.66-.35-.65-.88,0-.44-.69-.51-1.08s0-.74.55-.69C152.68,142.64,152.93,142.63,153.17,142.63Z" style="fill:#9a7f54"/><path d="M202.13,144.4a3.25,3.25,0,0,0-.51,0c-.71.11-.83-.23-.85-.87s.21-1,1-.92a4,4,0,0,0,.95,0c.58-.06.83.13.81.76C203.43,144.4,203.46,144.4,202.13,144.4Z" style="fill:#9a7f54"/><path d="M222.91,108a2,2,0,0,1-2.05-2,2.07,2.07,0,0,1,4.15,0A2,2,0,0,1,222.91,108Zm.9-.68a1.63,1.63,0,1,0-1.84-2.68,1.72,1.72,0,0,0-.36,2.34,1.52,1.52,0,0,0,2.21.33Z"/><path d="M223.82,107.34a2,2,0,0,1-.74-.84c-.08-.15-.17-.32-.38-.28s-.12.28-.16.43.14.52-.21.51-.19-.34-.2-.53a8,8,0,0,1,0-1.1c0-.25-.19-.67.27-.7s1-.17,1.4.35c.06.09.11.29.06.34-.56.6-.19,1.21-.05,1.82Zm-.37-1.84c0-.32-.3-.3-.53-.33s-.37,0-.38.29.09.4.37.38S223.4,105.86,223.44,105.5Z"/></svg>