<svg xmlns="http://www.w3.org/2000/svg" viewBox="0 0 250 250"><defs><style>.a,.e{fill:#e2231a;}.b,.d{fill:#fff;}.c{fill:#1f355e;}.d,.e{fill-rule:evenodd;}</style></defs><title>Fast Casual</title><path class="a" d="M125.08,51c-56.19,0-101.94,33.12-102,73.95S68.74,199,124.93,199s101.93-33.13,102-73.94S181.27,51,125.08,51"/><path class="b" d="M27.93,124.9c0,38.16,43.48,69.26,97,69.31s97.1-30.94,97.14-69.11-43.48-69.26-97-69.32S28,86.75,27.93,124.9"/><path class="c" d="M31.15,124.9C31.19,88.52,73.32,59,125.07,59s93.82,29.7,93.79,66.09S176.69,191,124.93,191,31.11,161.3,31.15,124.9Z"/><path class="b" d="M98.7,72.78a1.92,1.92,0,0,0-1.21-.12c-.31.07-.68.33-.6.66s.56.35.87.37l.46,0c1,0,1.75.27,2,1.21a2,2,0,0,1-.31,1.72,3.15,3.15,0,0,1-1.71,1,4.55,4.55,0,0,1-2.42-.12l.43-1.4a2.5,2.5,0,0,0,1.64.25c.39-.1.76-.38.67-.79s-.79-.41-1.18-.42c-1.11,0-1.87-.12-2.13-1.23A2.06,2.06,0,0,1,97,71.45a5.27,5.27,0,0,1,2.14,0l-.39,1.33"/><polyline class="b" points="104.6 76.15 102.9 76.46 101.83 70.58 103.53 70.27 104.6 76.15"/><polyline class="b" points="106.3 69.77 108.01 69.56 111.59 72.81 111.61 72.8 111.16 69.17 112.87 68.95 113.61 74.91 111.89 75.1 108.31 71.85 108.29 71.85 108.73 75.49 107.02 75.7 106.3 69.77"/><path class="b" d="M120.57,70.49a2,2,0,0,0-1.55-.56,1.64,1.64,0,1,0,.21,3.26,2,2,0,0,0,1.45-.71l.11,1.87a5.3,5.3,0,0,1-1.52.35,3.84,3.84,0,0,1-2.54-.75,2.74,2.74,0,0,1-1.18-2.19,2.93,2.93,0,0,1,.86-2.23,3.76,3.76,0,0,1,2.47-1.11,4.39,4.39,0,0,1,1.59.22l.1,1.85"/><polyline class="b" points="124.94 69.75 124.93 70.76 126.88 70.76 126.87 72.08 124.94 72.07 124.93 73.1 126.97 73.11 126.97 74.41 123.2 74.41 123.2 68.44 126.98 68.44 126.99 69.75 124.94 69.75"/><polyline class="b" points="135.07 70.15 135.2 68.83 137.86 69.09 137.29 75.03 135.58 74.87 136.02 70.24 135.07 70.15"/><path class="b" d="M141.07,75.48l2.17-1.71h0a2.41,2.41,0,0,1-1,0,2.08,2.08,0,0,1-1.79-2.4c.22-1.46,1.66-2,3.16-1.82a3.31,3.31,0,0,1,1.79.79,2.15,2.15,0,0,1,.64,1.77,3.9,3.9,0,0,1-1.42,2.19L143,75.77l-1.95-.28m1.19-3.87a1,1,0,0,0,.92,1.14,1,1,0,0,0,1.23-.81,1.06,1.06,0,0,0-.95-1.14A1,1,0,0,0,142.27,71.61Z"/><path class="b" d="M150.58,72.43l-.25.64.52.09a2.12,2.12,0,0,1,1.84,2.6,2,2,0,0,1-1.18,1.38,3.18,3.18,0,0,1-2,.07,4.3,4.3,0,0,1-2-1l.57-1.38a3.12,3.12,0,0,0,1.66,1.07,1,1,0,0,0,1.23-.64c.16-.7-.52-1.16-1.2-1.31a3.64,3.64,0,0,0-1.29,0l1.26-3,3.38.74-.29,1.29-2.24-.5"/><path class="b" d="M160.3,73.61,157.92,75l0,0a2.55,2.55,0,0,1,.93.08,2.09,2.09,0,0,1,1.45,2.63c-.42,1.41-1.92,1.79-3.37,1.37a3.35,3.35,0,0,1-1.67-1,2.12,2.12,0,0,1-.39-1.84,4,4,0,0,1,1.68-2l1.85-1.22,1.88.56m-1.71,3.66a1,1,0,0,0-.75-1.23,1,1,0,0,0-1.33.62,1.07,1.07,0,0,0,.78,1.27A1,1,0,0,0,158.59,77.28Z"/><path class="b" d="M119.78,174.47c0,2.93-.16,3.45-.37,3.64a2.21,2.21,0,0,1-2.47.11c-.84-.58-1.17-1.84-1.17-4.13a36.61,36.61,0,0,1,.41-4.79,20.49,20.49,0,0,0-4.18,0,30.67,30.67,0,0,0-.62,6c0,2,.18,4,1.13,5.2a3.49,3.49,0,0,0,3.14,1.35,5.21,5.21,0,0,0,3-.77l1.08-.53a5.59,5.59,0,0,0,.13,1.19c.68.12,3.71,0,3.71,0s.3-11.45.33-12.45a22.49,22.49,0,0,0-4.13,0c0,2.22,0,3.94,0,5.16"/><path class="b" d="M109.07,179.21c.58-2.54-1.43-4.07-4.29-5.33-.89-.4-1.74-.79-1.53-1.76.35-1.62,3.25-.93,4.42-.48a8.94,8.94,0,0,0,.48-2.54c0-.09-8.26-1.84-9.15,2.23-.59,2.68,1.65,3.85,3.73,4.77,1.54.69,2.42,1.41,2.09,2.51-.42,1.32-3.76.81-5,.15a5.85,5.85,0,0,0-.64,2.51c2.9,1.49,9,1.5,9.86-2.08"/><path class="b" d="M150.36,179.26c.58-2.54-1.42-4.08-4.28-5.33-.89-.39-1.74-.79-1.53-1.76.36-1.61,3.25-.92,4.42-.47a8.91,8.91,0,0,0,.48-2.54c0-.09-8.26-1.83-9.14,2.23-.58,2.69,1.66,3.85,3.73,4.78,1.53.69,2.42,1.41,2.08,2.5-.41,1.33-3.76.83-5,.15a6.18,6.18,0,0,0-.64,2.52c2.91,1.48,9,1.5,9.85-2.07"/><path class="b" d="M133.7,173.56h0m4.93,3.82c-.16-2.27-2.73-2.62-2.71-2.75s2.23-1.2,1.58-3.46c-1.06-3.69-9.84-1.65-10.26-1.58,0,.68-.16,12.34-.16,12.34a26.47,26.47,0,0,0,7.57-.06C136.43,181.54,138.81,180.16,138.63,177.38Zm-7.58-3.1a6.71,6.71,0,0,1,.1-2.54c.62-.24,2.9-.32,2.8,1S131.15,174.39,131,174.28Zm.12,5.13a6.86,6.86,0,0,1,.08-2.51c.76-.68,3.5-.87,3.44,1S131.33,179.6,131.17,179.41Z"/><path class="d" d="M107.48,92l.07,0-.07,0m86.7,32.27c3.22-1,3.84-3.92,3.84-5.93,0-.15,0-.29,0-.41a3.15,3.15,0,0,0-1.63-2.63,107.16,107.16,0,0,0,1.5-15.05c0-1,0-1.85-.11-2.61-.07-.61-.5-2.63-3.37-3.27a23.43,23.43,0,0,0-10.33,1.15c-.87-2.09-3.46-2.28-4.34-2.32a33.32,33.32,0,0,0-5.12.24c-2.66.32-4.45.66-5.2,2.35-.23.54-.41,1.07-.59,1.61a8.26,8.26,0,0,0-1-1.14,11.42,11.42,0,0,0-8.19-2.83c-3.83.19-7.67,2.19-10.79,5.61a14.21,14.21,0,0,0-2,2.74c-.08-.1-.14-.2-.23-.29h0a1.71,1.71,0,0,0-.12-.15.85.85,0,0,1,.11.15c-1.73-2.48-2.28-3.89-2-5.17h0c.36-1.64.6-3.73-.75-5.29a4.93,4.93,0,0,0-3.93-1.55H134c-4.69,0-6.81,5-7.46,8.86a5.14,5.14,0,0,0-3.45-1.08l-1,.06a8.92,8.92,0,0,1-3.05-.11,0,0,0,0,1,0,0,2.09,2.09,0,0,1,0-.33,5.4,5.4,0,0,0,.1-1,4.21,4.21,0,0,0-.41-1.8A3.7,3.7,0,0,0,115.88,92a28.55,28.55,0,0,0-4.16-.34,25.79,25.79,0,0,0-4.17.31,5.15,5.15,0,0,0-3.23,1.66,3.71,3.71,0,0,0-.8,2.1,11.29,11.29,0,0,0-7.26-2.14,15.12,15.12,0,0,0-9.37,4.19c-.1-5.85-.36-10.35-.59-12.79l0-.43A5.65,5.65,0,0,0,85,81a6.1,6.1,0,0,0-4.76-1.83l-7.43.75.32,0a5.25,5.25,0,0,0-4.54,1.92c-1.32,1.68-1,3.83-.81,5.25l.29,1.44c2.45,11.62,1.68,13.76,1.2,15.36a1.94,1.94,0,0,1-1.87,1.23c-1.23.08-3.87-1.17-5.62-2.37a4.88,4.88,0,0,0-3.75-.9,4.13,4.13,0,0,0-3.16,2.63l0,.07c-.12.23-1.08,2.37-2.85,6.35a4.68,4.68,0,0,0-.57,2.16,4.06,4.06,0,0,0,.28,1.42,8.05,8.05,0,0,0,2.44,2.9,27,27,0,0,0,12.26,4.73,8.6,8.6,0,0,0-.8,2.42l-6.2,30.53c-.32,1.59-.76,3.74.77,5.51a5.76,5.76,0,0,0,4.55,1.69l6.82,0c3.64,0,5-2,5.93-5,.06-.21.12-.41.18-.63l.12.26c1.2,3,4.62,3,6.09,3H85c1.47,0,4.88,0,6.11-3a1.89,1.89,0,0,1,.11-.24s.1.46.1.46c.87,3.62,2.72,5.21,6,5.2H104a6,6,0,0,0,4.17-1.34,6.28,6.28,0,0,0,4.26,1.33l3.82,0c2.52,0,4.18-.9,5-2.76.68,1.43,2.09,2.66,5,2.63h.2l1.91.07,1.26,0a4.86,4.86,0,0,0,3.28-1.4,5.57,5.57,0,0,0,.75-.92C136.55,162,140.23,164,144,164c3.24,0,4.41-1.61,5.06-3l.14-.28a15.85,15.85,0,0,0,7.75,1.88,20.65,20.65,0,0,0,10-2.6,13,13,0,0,0,7.85,2.35c6.42,0,10.54-3.29,12.33-7.09a10.18,10.18,0,0,0,6.3-1.67c2.18-1.69,2.12-3.4,1.83-5.29h0c-.66-4.35-4.23-4.12-5.4-4.05l-.61,0c-1.61,0-3.27-.07-4.25-1.25a9.39,9.39,0,0,1-2-4.86,2.29,2.29,0,0,1,.07-.65,11.24,11.24,0,0,0,.26-2.17,5.28,5.28,0,0,0-.3-1.81C191.08,132.92,193.18,127.82,194.18,124.27ZM85.59,123.1c-.15.49-.59,1.94-1.13,3.71-.42-1.45-1.1-3.67-1.1-3.67-.8-2.52-2.16-3.71-3.52-4.22A14.15,14.15,0,0,0,83.72,115a13.62,13.62,0,0,0,4.51,4.34A6.58,6.58,0,0,0,85.59,123.1Zm36.23.16a50.64,50.64,0,0,0-.94,5.06,8.1,8.1,0,0,0-.7-.77,9.28,9.28,0,0,0-6.44-2.5,9.08,9.08,0,0,0-8.86,6.69c-.82-4.2-1.41-7.29-1.41-7.29v0a8.26,8.26,0,0,0-1.19-3.11,22,22,0,0,0,5.16-1.8l.14-.07a18.15,18.15,0,0,0,5-3.88,7.35,7.35,0,0,0,.86,1.56,9.93,9.93,0,0,0,8,4,10.91,10.91,0,0,0,1.29,0A6.72,6.72,0,0,0,121.82,123.26Zm33.13,5.51a7.41,7.41,0,0,0,3.4,6.1,8.42,8.42,0,0,0-1.41,0,14.49,14.49,0,0,0-8.23,3.26,8.3,8.3,0,0,0-3.64-5.59,11,11,0,0,0-7.94-1.64c.51-2.07,1.1-4.09,1.5-5.24a7,7,0,0,0,.41-2.27,4.55,4.55,0,0,0-.69-2.5,13.26,13.26,0,0,0,9.09-5c2.56,3.65,7,5.78,12.19,5.77h.28a8.76,8.76,0,0,0-3,1.8,8,8,0,0,0-2,5.23S154.95,128.74,154.95,128.77Zm14.85-13.31s0,0,0,0a.05.05,0,0,0,0,0Zm.72,8.51a6.39,6.39,0,0,0,0,.78,8.32,8.32,0,0,0,.11,1.43,2.61,2.61,0,0,0-.19-.42,9.09,9.09,0,0,0-6.51-4.61,21.79,21.79,0,0,0,8-3.62,10,10,0,0,0,1.56.94A8.13,8.13,0,0,0,170.51,124ZM118.73,94a.38.38,0,0,0,0,.07s.05.07.07.12Z"/><path class="b" d="M186.94,134.23a2.57,2.57,0,1,1-2.57,2.56,2.57,2.57,0,0,1,2.57-2.56m0,4.35a1.77,1.77,0,1,0-1.71-1.78A1.74,1.74,0,0,0,186.94,138.57Zm-1-3.08h1c.73,0,1.15.18,1.15.82a.66.66,0,0,1-.7.71l.58,1.06h-.67l-.52-1h-.24v1h-.61Zm.62,1.09h.52c.24,0,.37-.08.37-.34s-.3-.27-.51-.28h-.37Z"/><path class="e" d="M57.77,105.74c.15-.33.37-.82.72-.87a1.67,1.67,0,0,1,1.34.36c.46.33,4.65,3.15,7.71,3a5.09,5.09,0,0,0,4.77-3.45C73.58,100.54,72,92,71.17,88l-.26-1.27c-.14-1-.33-2.33.21-3A1.93,1.93,0,0,1,72.74,83l7.45-.75a2.83,2.83,0,0,1,2.27.72A3.1,3.1,0,0,1,83,84.78l0,.49c.38,3.93,1.25,15.82.09,22.24s-4.37,9.72-10.76,11.23C65.63,120.32,59,117.12,56,115a4.75,4.75,0,0,1-1.39-1.54,1.68,1.68,0,0,1,.2-1.25c0-.07,2.68-6,2.84-6.29l.08-.15M194.7,118c.12,3.26-1.55,3.43-2.54,3.52-.39,0-.7.07-.76.31l-.15.56c-1,3.74-2.16,8.4-10.61,8.14a8,8,0,0,1-5.66-2,5.42,5.42,0,0,1-1.35-4.27c.43-4.51,6.49-6,10.07-6.54h.06l0,0a8.76,8.76,0,0,0,.18-2.11l-.07-.07-.09,0c-.8.32-7.92,3-11.52-1.86l-.18-.27-.16.07a18.3,18.3,0,0,1-12.41,5.13c-4.78,0-8.52-2.09-10.3-5.74a10.63,10.63,0,0,1,1.91-11.79,12.7,12.7,0,0,1,8.53-4.55,8,8,0,0,1,5.81,2,4.68,4.68,0,0,1,1.37,5,10.51,10.51,0,0,1-7.31,6.79l-.12,0v.11a1.07,1.07,0,0,0,.63,1c1.26.72,4.06.32,6.4-.87,2.8-1.45,3.9-3.59,4-5l.15-1.14a26.26,26.26,0,0,1,1.7-7.45c.37-.33,6.28-1.08,8.24-.59.29.08.46.17.5.27a10.75,10.75,0,0,1-.42,2.91c-.64,3.09-1.61,7.75.1,10a2,2,0,0,0,1.5.68,2,2,0,0,0,1.46-.73c.51-.48.71-3.48.95-7.36a24.92,24.92,0,0,1,.33-3.74c.36-.44,6.57-1.67,8.81-1,.45.13.67.31.7.55.55,5.17-1.32,17.36-1.84,19.47a.21.21,0,0,0,0,.2c.12.13.37.15.86.14s1.16,0,1.18.28M157.18,105.8c2,0,4.07-1.53,4.39-2.77a1.12,1.12,0,0,0-.68-1.35,1.94,1.94,0,0,0-2,.21,4.58,4.58,0,0,0-1.83,3.79l0,.12Zm26.21,16.27v-.14h-.17c-2,.11-4,1.1-4.45,2.19a1.12,1.12,0,0,0,.21,1.28,1.68,1.68,0,0,0,1.89.45A4.24,4.24,0,0,0,183.38,122.07Zm-39.53-18.88c2.07,2.59,3,5,2.53,7.07-.52,3.76-4,7.74-10.28,7.66a9.62,9.62,0,0,1-7.17-2.78l-.13-.11-.1.13a9.6,9.6,0,0,1-7.29,3,6.67,6.67,0,0,1-5.43-2.74c-1.76-2.38-.68-5.58.11-7.27.45-1,.86-2.13,0-2.56a1.12,1.12,0,0,0-.78,0c-.61.25-1,1.05-1.2,1.6l-.08.21c-1.85,4.37-4.71,7.71-8,9.41l-.14.07a18.32,18.32,0,0,1-9.63,1.86c-5.09-.45-8.93-2.87-10.55-6.66a10.18,10.18,0,0,1,2.14-10.87c2.54-2.78,5.56-4.4,8.52-4.54a8,8,0,0,1,5.81,2,4.69,4.69,0,0,1,1.36,5,10.45,10.45,0,0,1-7.31,6.77h-.11v.13a1.09,1.09,0,0,0,.61,1c1.2.71,4,.32,6.42-.87a7.68,7.68,0,0,0,2.79-2.54c2.43-4.17.88-11.16.82-11.47a1.48,1.48,0,0,1,.08-1.17A2.28,2.28,0,0,1,108,95a20,20,0,0,1,3.59-.26,26.7,26.7,0,0,1,3.53.24l.11,0c.23,0,.44.08.56.38a1.56,1.56,0,0,1,.06,1c-.09.49-.44,3,1.64,3.63a10.13,10.13,0,0,0,4.76.43l.94-.07a1.8,1.8,0,0,1,1.83,1.08,2.22,2.22,0,0,1-.33,2c-.36.64-3.52,6.44-2.08,8.25a1.86,1.86,0,0,0,2,.44c3.15-.63,4.88-8.27,4.9-11.25s1.52-8.23,4.48-8.25h5.93a1.74,1.74,0,0,1,1.43.41c.37.44.41,1.3.09,2.73-.53,2.52.56,4.73,2.49,7.48m-50,2.75c2,0,4.07-1.54,4.37-2.76a1.12,1.12,0,0,0-.69-1.37,2,2,0,0,0-2,.21,4.53,4.53,0,0,0-1.84,3.8l0,.12Zm44.58,1.78a5.05,5.05,0,0,0-1.1-2.6,7.94,7.94,0,0,1-.94-1.75l-.31.06c.09,2.09-.89,5.15-2,6.18l-.17.15.21.08a3.8,3.8,0,0,0,2.81.1,2.36,2.36,0,0,0,1.31-1.44A2.41,2.41,0,0,0,138.41,107.72Zm23.93,25.22h0a2,2,0,0,1,1.23,2.36.56.56,0,0,0,.37.64,1.81,1.81,0,0,0,2-.85c1.85-2.43,2.32-5.82,1.12-8.07a4.25,4.25,0,0,0-4-2.3,4.89,4.89,0,0,0-3.53,1.3,3.57,3.57,0,0,0-1.17,2.48,4.48,4.48,0,0,0,4,4.44M145,154.8a2.84,2.84,0,0,1,2.43,1.07,1.45,1.45,0,0,1,0,1.23,24.3,24.3,0,0,1-1.19,2.82l-.12.24c-.31.69-.56,1.21-2.15,1.22-4.8,0-10-4.86-12.26-6.94l-.45-.41,0,3.64a1.9,1.9,0,0,1-.63,1.31,1.53,1.53,0,0,1-1,.49l-1,0-2.13-.08h-.23c-1,0-2,0-2.23-1.64-1.17-7.42-1.38-24.17.92-33.55.55-2.21,2-2.45,5.07-2.45h3.4a2.55,2.55,0,0,1,2.1.8,2.52,2.52,0,0,1,.05,2.38,55.07,55.07,0,0,0-2.57,11.22l0,.32.27-.2c3.47-2.64,6.86-2.94,10.08-.93a5.94,5.94,0,0,1,2.44,5c.15,4-2.26,8.22-6.44,11.29l-.1.07,0,.11c.55,1.14,3.54,2.89,5.76,3m-7.11-12a1.78,1.78,0,0,0-.1-.54,1.22,1.22,0,0,0-1-.73,2.43,2.43,0,0,0-1.94.52c-1.54,1.18-2.23,3.84-2.3,5.24v.14h.16a5.84,5.84,0,0,0,4.26-2.34A4,4,0,0,0,137.84,142.75ZM192.18,149a8.14,8.14,0,0,1,.1,1.1,1.53,1.53,0,0,1-.8,1.41c-1,.79-4.25,1.6-6.27.44l-.2-.12,0,.22c-.53,3.63-3.92,7.54-10.11,7.56-4,0-6.19-1.66-7.35-3.06l-.09-.1-.26.16A18,18,0,0,1,157,159.86c-4,0-7.31-1.49-9.28-4.23l-.2-.29a10.46,10.46,0,0,1,1.24-12.76,12.45,12.45,0,0,1,8.36-4.48,7.91,7.91,0,0,1,5.71,2,4.63,4.63,0,0,1,1.34,4.91,10.31,10.31,0,0,1-7.17,6.67l-.11,0v.11a1.16,1.16,0,0,0,.7,1.07c1.18.62,3.87.44,6.2-1,3.11-1.85,4.42-6.49,4.55-9.15s1.4-8.71,4.4-8.74l5.83,0a1.85,1.85,0,0,1,1.4.43c.36.42.39,1.28.09,2.69-.61,2.85,1,5.92,2.44,8,2.06,2.58,5.33,2.54,6.9,2.51l.78,0c1.18-.08,1.77-.12,2,1.44m-37.5-1.76c2,0,4-1.49,4.31-2.72a1.1,1.1,0,0,0-.67-1.34,1.88,1.88,0,0,0-2,.22,4.39,4.39,0,0,0-1.8,3.72l0,.13Zm21.39-.27a8.31,8.31,0,0,1-.93-1.72l-.29,0c.08,2-.89,5.09-1.93,6.1l-.15.15.21.08a3.63,3.63,0,0,0,2.74.11,2.3,2.3,0,0,0,1.31-1.41C177.47,149.09,176.77,148,176.08,147ZM117.18,142l-6.35,0a2.6,2.6,0,0,0-1.87.5,3.59,3.59,0,0,0-.56,2.7c.14,2.54.52,5.83.81,8.47l.34,3.24c.21,2.36,1.31,2.56,2.81,2.54l3.83,0c1.4,0,2.27-.13,2.5-2.57s.69-7.79.9-11.7c.08-1.38-.09-2.23-.55-2.68a2.56,2.56,0,0,0-1.87-.51m-3.54-2.23a5.87,5.87,0,0,0,5.94-5.74,5.63,5.63,0,0,0-1.77-4.09,6,6,0,0,0-4.16-1.64,5.88,5.88,0,0,0-5.94,5.75,5.59,5.59,0,0,0,1.77,4.09,6,6,0,0,0,4.15,1.63M100.2,125.23c-.39-2.15-1.54-3.43-3.07-3.43l-6.13,0c-1.18,0-1.89.73-2.42,2.4-.49,1.52-4,13.48-4.07,13.6l-.15.49-4.18-14.07c-.53-1.68-1.26-2.37-2.42-2.39l-6,0c-1.54,0-2.71,1.29-3.09,3.44L62.47,156c-.28,1.36-.42,2.38.09,3a2.64,2.64,0,0,0,2.06.61l6.83,0c1.3,0,2-.13,2.85-2.84.68-2.24,1.22-4.71,1.66-6.69l.74-3.22s4,9.23,4,9.25c.32.8,1.1,1.07,3.1,1.06h1.11c2,0,2.78-.28,3.1-1.08l4-9.25,2.39,9.9c.63,2.64,1.49,2.82,2.84,2.82l6.73,0a2.65,2.65,0,0,0,2.07-.62c.53-.58.37-1.6.1-3l-5.89-30.71"/></svg>