<svg xmlns="http://www.w3.org/2000/svg" viewBox="0 0 250 250"><defs><style>.a{fill:#fff;}.b,.d{fill:#462514;}.c{fill:none;stroke:#462514;stroke-miterlimit:10;stroke-width:1.54px;}.d{fill-rule:evenodd;}</style></defs><title>Fast Casual</title><path class="a" d="M198.69,111.94l-.16-.19c.06-.6.12-1.19.19-1.79.23-1.77-1.2-2.22-2.52-1.66-1.63.69-3.22,1.48-4.79,2.31a1.3,1.3,0,0,0-.62,1,.79.79,0,0,0,1.16.49.82.82,0,0,1,1.05.31,1.66,1.66,0,0,1,.34,1.61c-.56,2.4-1.15,4.79-1.61,7.21a3.52,3.52,0,0,1-1,1.94c-.14.14-.24.32-.38.46-1.08,1-2.12,2.14-3.27,3.11a1.18,1.18,0,0,1-2-.88,7.15,7.15,0,0,1,0-1.73q.49-3,1.06-5.94c.58-3,1.2-6,1.8-9a2.68,2.68,0,0,1,.13-.43,1.49,1.49,0,0,0-1.34-2.12,3.15,3.15,0,0,0-1.4.26c-1.58.74-3.15,1.52-4.68,2.36-.29.16-.4.66-.6,1,.33.13.65.27,1,.38.11,0,.25,0,.37,0a1.15,1.15,0,0,1,1.32,1.13,7.58,7.58,0,0,1-.21,1.63c-.31,1.5-.63,3-1,4.48a2.5,2.5,0,0,1-.44,1c-.47.58-1,1.1-1.52,1.67a20.76,20.76,0,0,1-8.15,6.13,2.42,2.42,0,0,1-2.43-.55,6,6,0,0,1-1.11-4.7,1,1,0,0,1,.48-.63c1.22-.69,2.52-1.25,3.67-2a35.68,35.68,0,0,0,4.13-3.24,6.11,6.11,0,0,0,1.9-4.08,3.48,3.48,0,0,0-.86-3,3.78,3.78,0,0,0-2.54-1,8.39,8.39,0,0,0-5.89,2.42,17.24,17.24,0,0,0-4.68,6.91,21.34,21.34,0,0,0-1.36,6.31,1.37,1.37,0,0,1-.44,1,19.57,19.57,0,0,1-3.2,1.73c-1.26.49-2-.18-1.95-1.54a20.86,20.86,0,0,1,.39-2.15c.46-2.57.89-5.15,1.38-7.72a2.4,2.4,0,0,1,.62-1.09c.49-.53,1.07-1,1.6-1.49a34.41,34.41,0,0,0,5.77-7.2A22.05,22.05,0,0,0,169.41,99a7.3,7.3,0,0,0-.33-5.86,3.76,3.76,0,0,0-3.6-1.84A7.36,7.36,0,0,0,160.95,94a18.82,18.82,0,0,0-3.52,6c-.77,2.09-1.62,4.16-2.22,6.3s-.9,4.17-1.29,6.27c-.33,1.73-.58,3.47-.91,5.2a6.31,6.31,0,0,1-.62,2.15,15,15,0,0,1-2.08,2.48,20,20,0,0,1-5.08,3.82,4.6,4.6,0,0,1-2.14.57,2.8,2.8,0,0,1-2.41-2.35,22.72,22.72,0,0,1-.1-2.94.89.89,0,0,1,.31-.64,9,9,0,0,1,1.31-.72,21.59,21.59,0,0,0,6.45-4.46,6.43,6.43,0,0,0,2-5.24,2.94,2.94,0,0,0-1.65-2.54,5.79,5.79,0,0,0-5.43.44,12.36,12.36,0,0,0-4,3.41,16.35,16.35,0,0,0-2.86,5.12,21.36,21.36,0,0,0-.73,2.51,26.06,26.06,0,0,0-.52,3.93,3.45,3.45,0,0,1-.91,2.31c-.35.39-.81.67-1.19,1a1.52,1.52,0,0,1-1.82.29,1.69,1.69,0,0,1-.58-1.34,32,32,0,0,1,.44-4c.26-1.53.66-3,1-4.57q.58-2.8,1.13-5.62c.29-1.48.55-3,.85-4.44s.59-2.75.88-4.13c.33-1.57.72-3.13.94-4.72.15-1.07-.61-1.72-1.7-1.68a2.49,2.49,0,0,0-.81.17c-.6.24-1.2.51-1.79.79-1.18.56-2.37,1.1-3.52,1.72-.26.14-.36.57-.54.87.31.17.61.36.94.5.12.05.3,0,.45,0,1.26-.1,1.68.34,1.44,1.6-.46,2.49-.93,5-1.45,7.47,0,.18-.54.47-.69.4a5.12,5.12,0,0,0-4,0,9.36,9.36,0,0,0-4,2.37,17.53,17.53,0,0,0-4.61,10.49,3.74,3.74,0,0,1-3.14,2.94c-.87,0-1.16-.15-1.09-1s.28-1.93.44-2.89c.31-1.78.59-3.57.94-5.34q.48-2.4,1.12-4.76A4.35,4.35,0,0,1,115,110c.31-.36.76-.7.44-1.12a1.74,1.74,0,0,0-1.26-.58,20.63,20.63,0,0,0-3,.4,1.54,1.54,0,0,0-.84.44c-.52.6-1.06.9-1.83.47a1.29,1.29,0,0,0-.45-.06,7.15,7.15,0,0,0-6.15,2.18,16.2,16.2,0,0,0-3.48,4.78,21.26,21.26,0,0,0-1.63,4.82,10.48,10.48,0,0,0,.8,7.39c1.09,2,3.29,1.85,4.72,1.14a9.82,9.82,0,0,0,3.63-3.23,3.75,3.75,0,0,1,.87-.65c0,.69,0,1.24,0,1.78a2.19,2.19,0,0,0,2.61,2.46,7.12,7.12,0,0,0,4.05-1.8c.76-.59,1.47-1.26,2.32-2,.1.44.17.71.23,1,.62,3,3.23,3.49,5.4,2.43a10.53,10.53,0,0,0,4-3.66,2.38,2.38,0,0,1,.41-.38l.2.06c0,.3,0,.6,0,.9-.15,1.84.7,3.21,2.33,3.55a5.32,5.32,0,0,0,1.47-.15,7.68,7.68,0,0,0,3.75-1.77c.8-.58,1.5-1.3,2.31-2l.29.56a6,6,0,0,0,9.15,2.24,24.44,24.44,0,0,0,5.33-4.76c.27-.32.57-.6.86-.9l.2.06c0,.22,0,.45,0,.67a21.89,21.89,0,0,0-.3,3.43c.08,1.18.6,2.32,1.58,2.41a6.55,6.55,0,0,0,2.89-.2,27,27,0,0,0,6.76-4,.64.64,0,0,1,.59.16,6.66,6.66,0,0,0,3,3.59,5.93,5.93,0,0,0,5.07.29,11.18,11.18,0,0,0,3.28-2.1c1.73-1.53,3.3-3.23,5-4.84a4.93,4.93,0,0,1,.76-.51l.17.17c0,.22-.08.43-.08.65-.06,1.78-.15,3.55-.13,5.33,0,.73.56,1.16,1.23,1.48a4.28,4.28,0,0,0,3.63-.31,12.35,12.35,0,0,0,4.5-3.32,6.79,6.79,0,0,1,1.05-.76c0,.76,0,1.28,0,1.8a2.72,2.72,0,0,0,2.29,2.71,5.61,5.61,0,0,0,4.12-1,1,1,0,0,0,.29-.73c0-.11-.25-.29-.42-.35-1.31-.42-1.66-.8-1.54-2.18a33.27,33.27,0,0,1,.61-3.65c.41-2.06.69-4.15,1.91-6a9.13,9.13,0,0,1,3-3.06,2.59,2.59,0,0,1,1.91-.28c.7.26.32,1.1.32,1.71a1.57,1.57,0,0,1-.06.3c-.29,1.48-.57,3-.86,4.45-.23,1.16-.48,2.31-.7,3.47a29.82,29.82,0,0,0-.57,3.56,4.44,4.44,0,0,0,.4,2.26c1,2,2.87,1.92,4.7,1.16a10.42,10.42,0,0,0,4.38-3.82c.42-.6.54-.61.86.08a8.59,8.59,0,0,0,2.22,3,5.3,5.3,0,0,0,4.29,1.19,10.83,10.83,0,0,0,2.68-.88,9.87,9.87,0,0,0,5.37-5.69,3.13,3.13,0,0,0,0-1.1,3.29,3.29,0,0,0-1.24.27,9.32,9.32,0,0,0-1.5,1.47,6.35,6.35,0,0,1-4.05,2.25,2.87,2.87,0,0,1-2.14-.8c-1.13-1.22-1-2.88-1-4.44a1.14,1.14,0,0,1,.46-.73c.33-.25.75-.39,1.11-.61,1.8-1.11,3.67-2.15,5.38-3.39a7.46,7.46,0,0,0,3.22-5c.32-2.25-.53-3.74-2.45-4.23a6.39,6.39,0,0,0-4.6.7,12.61,12.61,0,0,0-4.12,3.6,18.49,18.49,0,0,0-2.67,4.76,21.43,21.43,0,0,0-1.28,5.08c-.07.62-.17,1.24-.24,1.86s-2.24,2.77-3.16,2.81-1.54-.46-1.44-1.39q.28-2.58.73-5.14c.28-1.56.67-3.09,1-4.64a26.6,26.6,0,0,0,.67-3.86c.12-2.51-1.48-3.32-3.63-2.9a12,12,0,0,0-5.51,3.08A5,5,0,0,1,198.69,111.94ZM75.51,126.39l-.26-.07a5.12,5.12,0,0,1-.08-.84c.07-1.15.2-2.29.25-3.44q.13-3.24.19-6.48c.05-3.23.06-6.45.1-9.68,0-2.77,0-5.55.13-8.32s.29-5.82.41-8.74c0-.85-.26-1-1.08-.73a5.12,5.12,0,0,1-1.22.37c-2.56.2-5.12.45-7.68.51a23,23,0,0,0-8.36,1.32,8.86,8.86,0,0,0-3.61,2.5,11,11,0,0,0-2.62,7.66,6.86,6.86,0,0,0,1.59,4.44,5.23,5.23,0,0,0,4,1.8.54.54,0,0,0,.29-1,3.34,3.34,0,0,1-2-3.48,12.66,12.66,0,0,1,3.31-8.66,9.44,9.44,0,0,1,4.54-3,10.48,10.48,0,0,1,4,0,3,3,0,0,1,1.84,1.3,6.1,6.1,0,0,1,.48,5A46.79,46.79,0,0,1,68,101.54c-.73,1.78-1.52,3.53-2.3,5.29-1,2.36-2.05,4.73-3.16,7.06-1.21,2.56-2.51,5.07-3.79,7.59a47,47,0,0,1-5.11,8c-2.26,2.82-4.68,5.36-8.37,6.45-3,.89-5.55.22-7.35-2.39a1,1,0,0,0-.85-.31c-.2.05-.4.46-.44.73a1.33,1.33,0,0,0,.22.78c.27.48.59.93.89,1.39a9.51,9.51,0,0,0,6.34,3.95,10.15,10.15,0,0,0,6.08-.45,9.9,9.9,0,0,0,3.47-2.12,31.68,31.68,0,0,0,2.9-3.35,33.94,33.94,0,0,0,2.22-3.82c.53-1,1-2,1.43-3.05.59-1.35,1.17-2.7,1.71-4.07s.92-2.48,1.38-3.72c.39-1.05.78-2.11,1.15-3.17.48-1.37.93-2.75,1.42-4.12s1.1-2.89,1.62-4.35.94-2.81,1.44-4.2c.08-.22.36-.38.54-.56l.27.13c-.09,1.07-.23,2.14-.25,3.21-.09,5.27-.16,10.53-.23,15.8,0,.6,0,1.21,0,1.81-.13,2.71-.28,5.42-.39,8.13-.07,1.68-.06,3.37-.09,5.06,0,.67.19.81.79.51,1.41-.7,2.83-1.39,4.22-2.13s1.32-.74,1.32-2.28a5,5,0,0,1,.66-3.23,20.93,20.93,0,0,0,1.46-2.87c.55-1.07,1.14-2.12,1.69-3.19.68-1.31,1.33-2.64,2-3.95.95-1.79,1.95-3.55,2.89-5.34,1.17-2.24,2.3-4.49,3.46-6.74q1.47-2.84,3-5.67a2.42,2.42,0,0,1,.4-.45l.27.09c-.06.5-.09,1-.19,1.49s-.37,1.1-.49,1.66c-.49,2.29-1,4.58-1.43,6.87-.55,2.68-1.2,5.35-1.6,8.05a57.36,57.36,0,0,0-.82,9.92c.06,2.48.13,4.95,1.28,7.19a5.79,5.79,0,0,0,1.82,2.23c2.31,1.48,4.71,1,7-.14a9.94,9.94,0,0,0,4.25-4.53.74.74,0,0,0-.38-1.13c-.64-.29-1,.14-1.24.64a3.11,3.11,0,0,1-3.69,1.36,4.56,4.56,0,0,1-2.68-3.5,16.54,16.54,0,0,1-.27-6c.23-1.34.26-2.71.47-4.05.3-1.94.66-3.87,1-5.79.47-2.47,1-4.93,1.48-7.39.19-.93.42-1.86.64-2.79.35-1.49.72-3,1.07-4.46.29-1.22.51-2.46.83-3.68.53-2,1.07-4,1.71-6,.69-2.16,2.39-2.77,4.52-1.86.79.34,1.12,1,1.62,1.62s.8.69,1.35.24c.75-.62.83-1,.33-1.64-1.24-1.71-3.13-2.11-5-2.2a7.09,7.09,0,0,0-4.07.88,15.56,15.56,0,0,0-3.6,2.38,31.13,31.13,0,0,0-3.4,4.94c-1,1.72-1.92,3.53-2.87,5.3s-1.82,3.39-2.71,5.09c-.73,1.4-1.39,2.83-2.12,4.23s-1.62,3-2.42,4.49-1.48,2.78-2.21,4.18-1.45,2.85-2.19,4.27C76.42,124.76,76,125.57,75.51,126.39ZM29.29,93.88l-.15,0c0-.2,0-.4,0-.61a1.64,1.64,0,0,0-2.37-1.42c-1.64.86-3.3,1.67-5,2.45-.75.35-1.58.53-2.3.93a1.25,1.25,0,0,0-.51,1c0,.21.59.48.93.51s.89-.23,1.33-.2a2.82,2.82,0,0,1,1.5.42,1.35,1.35,0,0,1,.34,1.66,3.8,3.8,0,0,0-.23.87c-.3,1.68-.57,3.37-.9,5.05-.54,2.77-1.13,5.52-1.66,8.29-.29,1.51-.5,3-.78,4.53-.33,1.78-.75,3.55-1,5.34-.31,2-.94,4-.27,6a2.54,2.54,0,0,0,.5.89,2.66,2.66,0,0,0,2.61.56c2.28-.36,4.1-1.71,6-2.91,1.09-.7,1.34-.69,1.72.53a3.21,3.21,0,0,0,1.81,2.27,4.4,4.4,0,0,0,4.5-.95c.91-.81,1.7-1.76,2.56-2.64a1.74,1.74,0,0,1,.43-.24,1.53,1.53,0,0,1,.24.49c0,.37,0,.76,0,1.13a2.36,2.36,0,0,0,1.91,2.31,3.66,3.66,0,0,0,3.45-1.1,53,53,0,0,0,3.69-4.44,1,1,0,0,0,.06-.88c-.06-.13-.55-.16-.8-.08a2.14,2.14,0,0,0-.8.5,11.76,11.76,0,0,1-1,1,1.62,1.62,0,0,1-1.12.35c-.21,0-.45-.66-.41-1,.25-1.92.56-3.83.9-5.73s.62-3.57,1.07-5.33c.33-1.33.41-2.79,1.62-3.79a.79.79,0,0,0-.55-1.4,29.74,29.74,0,0,0-4.08.58,1.46,1.46,0,0,0-.81.64c-.29.45-.6.43-1,.26a5.48,5.48,0,0,0-4.59.27,12.83,12.83,0,0,0-5.14,5.24,26.92,26.92,0,0,0-1.48,3.19,10.71,10.71,0,0,0-1,4.82,1.75,1.75,0,0,1-.94,1.64,3.46,3.46,0,0,1-.83.5c-.77.27-1.61.76-2.36.21a1.88,1.88,0,0,1-.48-2c.29-1.46.53-2.92.79-4.38q.72-4,1.43-8,.32-1.78.67-3.56c.36-1.87.74-3.74,1.11-5.61.3-1.51.59-3,.87-4.52C28.89,96.36,29.08,95.12,29.29,93.88Zm92.14,65.95H18.27a1.43,1.43,0,0,0-.73.1c-.25.16-.56.46-.57.7s.34.54.59.63a3.65,3.65,0,0,0,1.19.11H222.44c.71,0,1.41,0,2.12,0a2.38,2.38,0,0,0,.94-.21.77.77,0,0,0,.41-.56,1,1,0,0,0-.43-.64,1.38,1.38,0,0,0-.73-.13Zm42.21-22.23v0h60a4.35,4.35,0,0,0,1.35,0,5.22,5.22,0,0,0,1.18-.8,3.35,3.35,0,0,0-1-.64,7.45,7.45,0,0,0-1.65-.08H105.77a18.7,18.7,0,0,1-2.27,0,1.48,1.48,0,0,0-1.66.87c-.08.16-.18.41-.11.54s.33.18.51.18c.81,0,1.61,0,2.42,0ZM191,99.15c0-1.45-.38-1.84-1.59-1.71-.2,0-.4.06-.6.1-.74.14-1.49.24-2.21.45a3,3,0,0,0-2.35,1.77,15.67,15.67,0,0,0-.63,2.7c-.2,1.44.38,2,1.83,1.72a26.75,26.75,0,0,0,2.89-.55,2.54,2.54,0,0,0,2-1.58C190.59,101,190.78,100,191,99.15ZM26.7,137.61c2.87,0,5.74,0,8.61,0a2.87,2.87,0,0,0,.75-.22,4.24,4.24,0,0,0-.29-.82.76.76,0,0,0-.49-.32,12.74,12.74,0,0,0-1.77-.16q-7.56,0-15.11,0a2,2,0,0,0-.94.2.89.89,0,0,0-.43.66.92.92,0,0,0,.54.61,3.54,3.54,0,0,0,1.12.09Z"/><path class="b" d="M198.69,111.94a5,5,0,0,0,.77-.47A12,12,0,0,1,205,108.4c2.15-.42,3.76.39,3.63,2.9a26.6,26.6,0,0,1-.67,3.86c-.31,1.55-.71,3.08-1,4.64s-.54,3.42-.73,5.14c-.1.93.52,1.43,1.44,1.39s3.07-2.07,3.16-2.81.17-1.24.24-1.86a21.43,21.43,0,0,1,1.28-5.08,18.49,18.49,0,0,1,2.67-4.76,12.61,12.61,0,0,1,4.12-3.6,6.39,6.39,0,0,1,4.6-.7c1.93.5,2.77,2,2.45,4.23a7.46,7.46,0,0,1-3.22,5c-1.71,1.24-3.58,2.28-5.38,3.39-.36.22-.78.36-1.11.61a1.14,1.14,0,0,0-.46.73c0,1.56-.14,3.21,1,4.44a2.87,2.87,0,0,0,2.14.8,6.35,6.35,0,0,0,4.05-2.25,9.32,9.32,0,0,1,1.5-1.47,3.29,3.29,0,0,1,1.24-.27,3.13,3.13,0,0,1,0,1.1,9.87,9.87,0,0,1-5.37,5.69,10.83,10.83,0,0,1-2.68.88,5.3,5.3,0,0,1-4.29-1.19,8.59,8.59,0,0,1-2.22-3c-.32-.69-.44-.67-.86-.08a10.42,10.42,0,0,1-4.38,3.82c-1.82.76-3.65.8-4.7-1.16a4.44,4.44,0,0,1-.4-2.26,29.82,29.82,0,0,1,.57-3.56c.22-1.16.47-2.31.7-3.47.29-1.48.57-3,.86-4.45a1.57,1.57,0,0,0,.06-.3c0-.6.37-1.45-.32-1.71a2.59,2.59,0,0,0-1.91.28,9.13,9.13,0,0,0-3,3.06c-1.22,1.81-1.5,3.91-1.91,6a33.27,33.27,0,0,0-.61,3.65c-.12,1.38.23,1.76,1.54,2.18.17.05.43.24.42.35a1,1,0,0,1-.29.73,5.61,5.61,0,0,1-4.12,1,2.72,2.72,0,0,1-2.29-2.71c0-.52,0-1,0-1.8a6.79,6.79,0,0,0-1.05.76,12.35,12.35,0,0,1-4.5,3.32,4.28,4.28,0,0,1-3.63.31c-.67-.32-1.22-.75-1.23-1.48,0-1.78.08-3.55.13-5.33,0-.22.05-.43.08-.65l-.17-.17a4.93,4.93,0,0,0-.76.51c-1.65,1.61-3.23,3.31-5,4.84a11.18,11.18,0,0,1-3.28,2.1,5.93,5.93,0,0,1-5.07-.29,6.66,6.66,0,0,1-3-3.59.64.64,0,0,0-.59-.16,27,27,0,0,1-6.76,4,6.55,6.55,0,0,1-2.89.2c-1-.09-1.5-1.22-1.58-2.41a21.89,21.89,0,0,1,.3-3.43c0-.22,0-.45,0-.67l-.2-.06c-.29.3-.59.59-.86.9a24.44,24.44,0,0,1-5.33,4.76,6,6,0,0,1-9.15-2.24l-.29-.56c-.81.71-1.51,1.43-2.31,2a7.68,7.68,0,0,1-3.75,1.77,5.32,5.32,0,0,1-1.47.15c-1.63-.34-2.48-1.71-2.33-3.55,0-.3,0-.6,0-.9l-.2-.06a2.38,2.38,0,0,0-.41.38,10.53,10.53,0,0,1-4,3.66c-2.17,1.06-4.77.58-5.4-2.43-.06-.28-.13-.55-.23-1-.85.74-1.56,1.41-2.32,2a7.12,7.12,0,0,1-4.05,1.8,2.19,2.19,0,0,1-2.61-2.46c0-.55,0-1.09,0-1.78a3.75,3.75,0,0,0-.87.65,9.82,9.82,0,0,1-3.63,3.23c-1.43.71-3.63.83-4.72-1.14a10.48,10.48,0,0,1-.8-7.39,21.26,21.26,0,0,1,1.63-4.82,16.2,16.2,0,0,1,3.48-4.78,7.15,7.15,0,0,1,6.15-2.18,1.29,1.29,0,0,1,.45.06c.77.43,1.31.14,1.83-.47a1.54,1.54,0,0,1,.84-.44,20.63,20.63,0,0,1,3-.4,1.74,1.74,0,0,1,1.26.58c.32.41-.13.75-.44,1.12a4.35,4.35,0,0,0-.83,1.64q-.64,2.36-1.12,4.76c-.36,1.77-.64,3.56-.94,5.34-.16,1-.38,1.92-.44,2.89s.23,1.06,1.09,1a3.74,3.74,0,0,0,3.14-2.94,17.53,17.53,0,0,1,4.61-10.49,9.36,9.36,0,0,1,4-2.37,5.12,5.12,0,0,1,4,0c.14.07.65-.22.69-.4.52-2.48,1-5,1.45-7.47.23-1.26-.18-1.7-1.44-1.6-.15,0-.32.08-.45,0-.32-.14-.63-.33-.94-.5.18-.3.28-.73.54-.87,1.15-.62,2.34-1.16,3.52-1.72.59-.28,1.18-.55,1.79-.79a2.49,2.49,0,0,1,.81-.17c1.09,0,1.85.61,1.7,1.68-.22,1.59-.61,3.15-.94,4.72-.29,1.38-.6,2.75-.88,4.13s-.56,3-.85,4.44q-.55,2.81-1.13,5.62c-.32,1.53-.71,3-1,4.57a32,32,0,0,0-.44,4,1.69,1.69,0,0,0,.58,1.34,1.52,1.52,0,0,0,1.82-.29c.38-.37.84-.65,1.19-1a3.45,3.45,0,0,0,.91-2.31,26.06,26.06,0,0,1,.52-3.93,21.36,21.36,0,0,1,.73-2.51,16.35,16.35,0,0,1,2.86-5.12,12.36,12.36,0,0,1,4-3.41,5.79,5.79,0,0,1,5.43-.44,2.94,2.94,0,0,1,1.65,2.54,6.43,6.43,0,0,1-2,5.24,21.59,21.59,0,0,1-6.45,4.46,9,9,0,0,0-1.31.72.89.89,0,0,0-.31.64,22.72,22.72,0,0,0,.1,2.94,2.8,2.8,0,0,0,2.41,2.35,4.6,4.6,0,0,0,2.14-.57,20,20,0,0,0,5.08-3.82,15,15,0,0,0,2.08-2.48,6.31,6.31,0,0,0,.62-2.15c.33-1.73.59-3.47.91-5.2.4-2.1.72-4.22,1.29-6.27s1.45-4.21,2.22-6.3a18.82,18.82,0,0,1,3.52-6,7.36,7.36,0,0,1,4.53-2.64,3.76,3.76,0,0,1,3.6,1.84,7.3,7.3,0,0,1,.33,5.86,22.05,22.05,0,0,1-2.47,5.53,34.41,34.41,0,0,1-5.77,7.2c-.53.5-1.11,1-1.6,1.49a2.4,2.4,0,0,0-.62,1.09c-.49,2.57-.93,5.15-1.38,7.72a20.86,20.86,0,0,0-.39,2.15c-.1,1.37.68,2,1.95,1.54a19.57,19.57,0,0,0,3.2-1.73,1.37,1.37,0,0,0,.44-1,21.34,21.34,0,0,1,1.36-6.31,17.24,17.24,0,0,1,4.68-6.91,8.39,8.39,0,0,1,5.89-2.42,3.78,3.78,0,0,1,2.54,1,3.48,3.48,0,0,1,.86,3,6.11,6.11,0,0,1-1.9,4.08,35.68,35.68,0,0,1-4.13,3.24c-1.15.78-2.46,1.34-3.67,2a1,1,0,0,0-.48.63,6,6,0,0,0,1.11,4.7,2.42,2.42,0,0,0,2.43.55,20.76,20.76,0,0,0,8.15-6.13c.5-.56,1-1.08,1.52-1.67a2.5,2.5,0,0,0,.44-1c.35-1.49.67-3,1-4.48a7.58,7.58,0,0,0,.21-1.63,1.15,1.15,0,0,0-1.32-1.13c-.13,0-.26.08-.37,0-.33-.11-.65-.25-1-.38.19-.34.3-.84.6-1,1.53-.84,3.1-1.62,4.68-2.36a3.15,3.15,0,0,1,1.4-.26,1.49,1.49,0,0,1,1.34,2.12,2.68,2.68,0,0,0-.13.43c-.6,3-1.22,6-1.8,9q-.57,3-1.06,5.94a7.15,7.15,0,0,0,0,1.73,1.18,1.18,0,0,0,2,.88c1.15-1,2.19-2.06,3.27-3.11.14-.14.24-.32.38-.46a3.52,3.52,0,0,0,1-1.94c.46-2.42,1-4.82,1.61-7.21a1.66,1.66,0,0,0-.34-1.61.82.82,0,0,0-1.05-.31.79.79,0,0,1-1.16-.49,1.3,1.3,0,0,1,.62-1c1.57-.83,3.16-1.62,4.79-2.31,1.32-.56,2.75-.11,2.52,1.66-.08.59-.13,1.19-.19,1.79ZM101.09,123.7a6.1,6.1,0,0,0,.78,1.92c.8.89,1.79.71,2.82-.27a11.54,11.54,0,0,0,3-5.21c.6-2,.91-4.12,1.33-6.18a4.55,4.55,0,0,0,.15-1.34c0-.26-.34-.71-.51-.71a5,5,0,0,0-1.89.32,6.64,6.64,0,0,0-3.32,3.73c-.54,1.31-1.06,2.64-1.48,4C101.6,121.13,101.4,122.37,101.09,123.7Zm19.34,0c.22.64.42,1.33.7,2a.94.94,0,0,0,1.39.48,5.16,5.16,0,0,0,1.18-.79c2.18-1.89,2.81-4.57,3.57-7.16.51-1.73.8-3.52,1.18-5.28.1-.45.14-.89-.44-1a2.71,2.71,0,0,0-2.38.33,10.34,10.34,0,0,0-3.29,4.49,18.06,18.06,0,0,0-.9,2.63C121.08,120.75,120.79,122.17,120.44,123.69Zm47-27.12a5.81,5.81,0,0,0-.76-1.7c-1-1-1.68-.7-2.68.31-1.17,1.18-1.42,2.84-1.93,4.34a31.69,31.69,0,0,0-.78,3.13q-.54,2.39-1.05,4.78a11.45,11.45,0,0,0-.19,1.34c0,.13.06.37.13.38a.56.56,0,0,0,.46-.11c1.1-1.37,2.26-2.69,3.24-4.14a23,23,0,0,0,2.13-4C166.63,99.53,167,98,167.44,96.58Zm1.08,21.88a1.82,1.82,0,0,0,.4-.09,13.91,13.91,0,0,0,4.33-4,4,4,0,0,0,.85-2.82c-.1-1-.85-1.42-1.63-.83a6.7,6.7,0,0,0-1.57,1.68,21.26,21.26,0,0,0-2.26,5.28A5.46,5.46,0,0,0,168.52,118.46Zm-27.39-.09a3.28,3.28,0,0,0,.93-.34,33.28,33.28,0,0,0,3.36-3.19,7.73,7.73,0,0,0,1.32-2.81,1.62,1.62,0,0,0-.68-1.34c-.28-.18-1,0-1.34.28a4,4,0,0,0-1,1.09,18,18,0,0,0-2.39,5.23A8.35,8.35,0,0,0,141.13,118.37Zm75.42-.12.19.14a2.88,2.88,0,0,0,.89-.36c1.17-1.06,2.36-2.1,3.42-3.26a3.91,3.91,0,0,0,1.13-3.1c0-.36-.23-.91-.49-1a1.69,1.69,0,0,0-1.25.19,3.22,3.22,0,0,0-1.05,1.06,25.43,25.43,0,0,0-1.73,3.08C217.21,116,216.92,117.16,216.56,118.25Z"/><path class="b" d="M75.51,126.39c.45-.82.92-1.63,1.35-2.46.74-1.42,1.45-2.85,2.19-4.27s1.46-2.79,2.21-4.18,1.64-3,2.42-4.49,1.4-2.83,2.12-4.23c.89-1.71,1.8-3.4,2.71-5.09s1.83-3.58,2.87-5.3a31.13,31.13,0,0,1,3.4-4.94A15.56,15.56,0,0,1,98.39,89a7.09,7.09,0,0,1,4.07-.88c1.9.1,3.79.49,5,2.2.5.69.42,1-.33,1.64-.55.45-1,.22-1.35-.24s-.83-1.28-1.62-1.62c-2.13-.92-3.83-.31-4.52,1.86C99,94,98.49,96,98,98c-.32,1.21-.55,2.45-.83,3.68-.35,1.49-.71,3-1.07,4.46-.22.93-.45,1.85-.64,2.79-.5,2.46-1,4.92-1.48,7.39-.37,1.93-.73,3.86-1,5.79-.21,1.34-.24,2.71-.47,4.05a16.54,16.54,0,0,0,.27,6,4.56,4.56,0,0,0,2.68,3.5,3.11,3.11,0,0,0,3.69-1.36c.26-.5.6-.93,1.24-.64a.74.74,0,0,1,.38,1.13,9.94,9.94,0,0,1-4.25,4.53c-2.3,1.17-4.7,1.62-7,.14a5.79,5.79,0,0,1-1.82-2.23c-1.15-2.25-1.21-4.71-1.28-7.19a57.36,57.36,0,0,1,.82-9.92c.4-2.7,1.06-5.37,1.6-8.05.47-2.29.94-4.58,1.43-6.87.12-.56.36-1.1.49-1.66s.13-1,.19-1.49l-.27-.09a2.42,2.42,0,0,0-.4.45q-1.49,2.83-3,5.67c-1.16,2.24-2.29,4.5-3.46,6.74-.94,1.79-1.94,3.56-2.89,5.34-.69,1.31-1.34,2.64-2,3.95-.55,1.07-1.14,2.12-1.69,3.19a20.93,20.93,0,0,1-1.46,2.87,5,5,0,0,0-.66,3.23c0,1.54,0,1.57-1.32,2.28s-2.81,1.43-4.22,2.13c-.6.3-.8.16-.79-.51,0-1.69,0-3.37.09-5.06.11-2.71.26-5.42.39-8.13,0-.6,0-1.21,0-1.81.07-5.27.13-10.53.23-15.8,0-1.07.16-2.14.25-3.21l-.27-.13c-.19.19-.46.34-.54.56-.5,1.39-.95,2.81-1.44,4.2s-1.09,2.89-1.62,4.35-.94,2.75-1.42,4.12c-.37,1.06-.76,2.11-1.15,3.17-.46,1.24-.89,2.49-1.38,3.72s-1.12,2.72-1.71,4.07c-.45,1-.91,2.06-1.43,3.05a33.94,33.94,0,0,1-2.22,3.82,31.68,31.68,0,0,1-2.9,3.35,9.9,9.9,0,0,1-3.47,2.12,10.15,10.15,0,0,1-6.08.45,9.51,9.51,0,0,1-6.34-3.95c-.31-.46-.62-.91-.89-1.39a1.33,1.33,0,0,1-.22-.78c0-.27.24-.68.44-.73a1,1,0,0,1,.85.31c1.79,2.61,4.37,3.28,7.35,2.39,3.68-1.1,6.11-3.64,8.37-6.45a47,47,0,0,0,5.11-8c1.29-2.52,2.58-5,3.79-7.59,1.11-2.33,2.12-4.7,3.16-7.06.78-1.76,1.57-3.51,2.3-5.29a46.79,46.79,0,0,0,1.76-4.72,6.1,6.1,0,0,0-.48-5,3,3,0,0,0-1.84-1.3,10.48,10.48,0,0,0-4,0,9.44,9.44,0,0,0-4.54,3,12.66,12.66,0,0,0-3.31,8.66,3.34,3.34,0,0,0,2,3.48.54.54,0,0,1-.29,1,5.23,5.23,0,0,1-4-1.8,6.86,6.86,0,0,1-1.59-4.44A11,11,0,0,1,54.3,92.8a8.86,8.86,0,0,1,3.61-2.5A23,23,0,0,1,66.27,89c2.56-.06,5.12-.31,7.68-.51a5.12,5.12,0,0,0,1.22-.37c.82-.28,1.11-.12,1.08.73-.12,2.91-.31,5.82-.41,8.74s-.1,5.54-.13,8.32c0,3.23,0,6.45-.1,9.68q-.05,3.24-.19,6.48c0,1.15-.18,2.29-.25,3.44a5.12,5.12,0,0,0,.08.84Z"/><path class="b" d="M29.29,93.88c-.21,1.24-.4,2.48-.62,3.71-.28,1.51-.57,3-.87,4.52-.37,1.87-.74,3.74-1.11,5.61q-.35,1.78-.67,3.56-.72,4-1.43,8c-.26,1.46-.5,2.93-.79,4.38a1.88,1.88,0,0,0,.48,2c.75.55,1.59.06,2.36-.21a3.46,3.46,0,0,0,.83-.5,1.75,1.75,0,0,0,.94-1.64,10.71,10.71,0,0,1,1-4.82,26.92,26.92,0,0,1,1.48-3.19,12.83,12.83,0,0,1,5.14-5.24,5.48,5.48,0,0,1,4.59-.27c.42.17.73.2,1-.26a1.46,1.46,0,0,1,.81-.64,29.74,29.74,0,0,1,4.08-.58.79.79,0,0,1,.55,1.4c-1.21,1-1.29,2.46-1.62,3.79-.44,1.76-.75,3.55-1.07,5.33s-.65,3.81-.9,5.73c0,.32.2.93.41,1a1.62,1.62,0,0,0,1.12-.35,11.76,11.76,0,0,0,1-1,2.14,2.14,0,0,1,.8-.5c.25-.07.74,0,.8.08a1,1,0,0,1-.06.88,53,53,0,0,1-3.69,4.44,3.66,3.66,0,0,1-3.45,1.1,2.36,2.36,0,0,1-1.91-2.31c0-.38,0-.76,0-1.13a1.53,1.53,0,0,0-.24-.49,1.74,1.74,0,0,0-.43.24c-.85.88-1.64,1.83-2.56,2.64a4.4,4.4,0,0,1-4.5.95A3.21,3.21,0,0,1,29,127.83c-.38-1.22-.63-1.23-1.72-.53-1.87,1.2-3.69,2.56-6,2.91a2.66,2.66,0,0,1-2.61-.56,2.54,2.54,0,0,1-.5-.89c-.68-2,0-4,.27-6,.28-1.79.7-3.55,1-5.34.28-1.51.49-3,.78-4.53.54-2.77,1.12-5.52,1.66-8.29.33-1.68.6-3.37.9-5.05a3.8,3.8,0,0,1,.23-.87A1.35,1.35,0,0,0,22.76,97a2.82,2.82,0,0,0-1.5-.42c-.44,0-.9.24-1.33.2s-.91-.3-.93-.51a1.25,1.25,0,0,1,.51-1c.72-.39,1.55-.57,2.3-.93,1.67-.79,3.34-1.6,5-2.45a1.64,1.64,0,0,1,2.37,1.42c0,.2,0,.4,0,.61Zm10.73,18a4,4,0,0,0-3.23,1.68,23.6,23.6,0,0,0-2.61,5,23.11,23.11,0,0,0-1.11,4.91,3.46,3.46,0,0,0,.49,2.06,1.72,1.72,0,0,0,1.37.64,2.76,2.76,0,0,0,1.42-.79,10,10,0,0,0,2.8-4.57c.3-.95.52-1.93.74-2.9.37-1.64.74-3.29,1.05-4.94C41.14,112,40.94,111.84,40,111.86Z"/><path class="b" d="M191,99.15c-.19.81-.38,1.88-.69,2.91a2.54,2.54,0,0,1-2,1.58,26.75,26.75,0,0,1-2.89.55c-1.45.24-2-.28-1.83-1.72a15.67,15.67,0,0,1,.63-2.7A3,3,0,0,1,186.57,98c.72-.2,1.47-.3,2.21-.45.2,0,.4-.08.6-.1C190.6,97.31,191,97.7,191,99.15Z"/><path class="a" d="M101.09,123.7c.3-1.34.51-2.57.87-3.75.42-1.36.94-2.68,1.48-4a6.64,6.64,0,0,1,3.32-3.73,5,5,0,0,1,1.89-.32c.17,0,.48.44.51.71A4.55,4.55,0,0,1,109,114c-.42,2.07-.73,4.17-1.33,6.18a11.54,11.54,0,0,1-3,5.21c-1,1-2,1.16-2.82.27A6.1,6.1,0,0,1,101.09,123.7Z"/><path class="a" d="M120.44,123.69c.35-1.53.64-2.95,1-4.35a18.06,18.06,0,0,1,.9-2.63,10.34,10.34,0,0,1,3.29-4.49,2.71,2.71,0,0,1,2.38-.33c.58.14.54.58.44,1-.39,1.76-.68,3.55-1.18,5.28-.76,2.59-1.39,5.27-3.57,7.16a5.16,5.16,0,0,1-1.18.79.94.94,0,0,1-1.39-.48C120.86,125,120.66,124.34,120.44,123.69Z"/><path class="a" d="M167.44,96.58c-.45,1.42-.82,3-1.42,4.39a23,23,0,0,1-2.13,4c-1,1.45-2.14,2.77-3.24,4.14a.56.56,0,0,1-.46.11c-.07,0-.14-.25-.13-.38a11.45,11.45,0,0,1,.19-1.34q.51-2.39,1.05-4.78a31.69,31.69,0,0,1,.78-3.13c.51-1.5.76-3.16,1.93-4.34,1-1,1.65-1.35,2.68-.31A5.81,5.81,0,0,1,167.44,96.58Z"/><path class="a" d="M168.52,118.46a5.46,5.46,0,0,1,.12-.76,21.26,21.26,0,0,1,2.26-5.28,6.7,6.7,0,0,1,1.57-1.68c.78-.59,1.53-.15,1.63.83a4,4,0,0,1-.85,2.82,13.91,13.91,0,0,1-4.33,4A1.82,1.82,0,0,1,168.52,118.46Z"/><path class="a" d="M141.13,118.37a8.35,8.35,0,0,1,.18-1.08,18,18,0,0,1,2.39-5.23,4,4,0,0,1,1-1.09c.39-.23,1.06-.46,1.34-.28a1.62,1.62,0,0,1,.68,1.34,7.73,7.73,0,0,1-1.32,2.81,33.28,33.28,0,0,1-3.36,3.19A3.28,3.28,0,0,1,141.13,118.37Z"/><path class="a" d="M216.56,118.25c.36-1.09.65-2.21,1.11-3.25a25.43,25.43,0,0,1,1.73-3.08,3.22,3.22,0,0,1,1.05-1.06,1.69,1.69,0,0,1,1.25-.19c.26.09.45.64.49,1a3.91,3.91,0,0,1-1.13,3.1c-1.06,1.16-2.26,2.2-3.42,3.26a2.88,2.88,0,0,1-.89.36Z"/><path class="a" d="M40,111.86c.92,0,1.12.16.95,1.06-.32,1.65-.68,3.3-1.05,4.94-.22,1-.44,2-.74,2.9a10,10,0,0,1-2.8,4.57,2.76,2.76,0,0,1-1.42.79,1.72,1.72,0,0,1-1.37-.64,3.46,3.46,0,0,1-.49-2.06,23.11,23.11,0,0,1,1.11-4.91,23.6,23.6,0,0,1,2.61-5A4,4,0,0,1,40,111.86Z"/><line class="c" x1="17.03" y1="136.83" x2="35.78" y2="136.83"/><line class="c" x1="102.84" y1="136.83" x2="226.22" y2="136.83"/><line class="c" x1="17.4" y1="160.61" x2="226.22" y2="160.61"/><path class="b" d="M25.57,144.12l.51-1.08h.55l.18,4.37h-.68a5.22,5.22,0,0,0-1.19-2.8,2.71,2.71,0,0,0-2-.91,2.41,2.41,0,0,0-2.05,1.18,6.69,6.69,0,0,0-.81,3.72,7.15,7.15,0,0,0,.89,4,2.41,2.41,0,0,0,2.11,1,3.07,3.07,0,0,0,2.35-1,4.38,4.38,0,0,0,1-2.2H27a4.62,4.62,0,0,1-1.42,2.95,4.17,4.17,0,0,1-2.92,1.08,5,5,0,0,1-3.76-1.58,5.61,5.61,0,0,1-1.52-4,5.71,5.71,0,0,1,1.75-4.38A4.94,4.94,0,0,1,22.66,143a4.24,4.24,0,0,1,1.46.25A5.48,5.48,0,0,1,25.57,144.12Z"/><path class="b" d="M34.22,143a5.63,5.63,0,0,1,2.84.75,5.31,5.31,0,0,1,2,2,5.8,5.8,0,0,1,.73,2.9,5.61,5.61,0,0,1-1.6,4.09,5.35,5.35,0,0,1-4,1.64,5.41,5.41,0,0,1-4.8-2.75,5.81,5.81,0,0,1-.72-2.94,5.61,5.61,0,0,1,1.59-4.1A5.28,5.28,0,0,1,34.22,143Zm0,.71a2.47,2.47,0,0,0-1.52.48,3.21,3.21,0,0,0-1,1.56,9.14,9.14,0,0,0-.38,2.95,9.64,9.64,0,0,0,.35,3,3,3,0,0,0,1,1.5,2.6,2.6,0,0,0,1.56.49,2.45,2.45,0,0,0,2.11-1.13,7.19,7.19,0,0,0,.79-3.93,9.61,9.61,0,0,0-.34-2.94,2.9,2.9,0,0,0-1-1.47A2.59,2.59,0,0,0,34.26,143.73Z"/><path class="b" d="M41,143.29h5.49V144H45.4a.45.45,0,0,0-.37.16.74.74,0,0,0-.13.48v6a2.66,2.66,0,0,0,.68,2,2.53,2.53,0,0,0,1.87.68,3.37,3.37,0,0,0,1.59-.38,2.11,2.11,0,0,0,.86-.92,3.46,3.46,0,0,0,.34-1.62v-4.63a1.94,1.94,0,0,0-.39-1.33,1.35,1.35,0,0,0-1.06-.44h-.16v-.69h4.16V144H52.5a1.13,1.13,0,0,0-1,.49,2.08,2.08,0,0,0-.34,1.21v5A3.46,3.46,0,0,1,50,153.4a4.43,4.43,0,0,1-3.1,1A6,6,0,0,1,44.5,154,3.14,3.14,0,0,1,43,152.77a3.69,3.69,0,0,1-.44-1.92v-6.13a.82.82,0,0,0-.16-.59.83.83,0,0,0-.58-.16H41Z"/><path class="b" d="M53.7,143.29h3.38L63,150.77v-5.08a1.69,1.69,0,0,0-.43-1.21,1.76,1.76,0,0,0-1.22-.5v-.69h4V144a1.49,1.49,0,0,0-1.56,1.71v8.51h-.85L56.2,145.6v6a2,2,0,0,0,.47,1.49,1.58,1.58,0,0,0,1.16.47H58v.69h-4.4v-.69h.3A1.38,1.38,0,0,0,55,153a2,2,0,0,0,.44-1.33v-7a1.52,1.52,0,0,0-1.26-.65H53.7Z"/><path class="b" d="M66.47,143.29H76l.24,4.14h-.67a7.74,7.74,0,0,0-.61-2.07,2.64,2.64,0,0,0-.86-1.06A1.9,1.9,0,0,0,73,144a.73.73,0,0,0-.49.14.5.5,0,0,0-.15.39V153a.55.55,0,0,0,.15.4.49.49,0,0,0,.36.16h1.24v.69H68.33v-.69h1.18a.58.58,0,0,0,.42-.15.53.53,0,0,0,.15-.4v-8.39a.55.55,0,0,0-.16-.43.74.74,0,0,0-.5-.14q-1.88,0-2.54,3.44h-.65Z"/><path class="b" d="M77.53,143.29h5.69a6,6,0,0,1,2.26.36,2.84,2.84,0,0,1,1.3,1,2.34,2.34,0,0,1,.43,1.37,2.27,2.27,0,0,1-1.08,1.95,5.45,5.45,0,0,1-2.52.74,3.39,3.39,0,0,1,1.31.45,2.71,2.71,0,0,1,.81.91,7.72,7.72,0,0,1,.76,1.91,3.07,3.07,0,0,0,.32.9.4.4,0,0,0,.32.18q.49,0,.58-1.29h.65a3.16,3.16,0,0,1-.61,2,1.94,1.94,0,0,1-1.52.59,2,2,0,0,1-1.12-.29,1.79,1.79,0,0,1-.65-.84,10.35,10.35,0,0,1-.37-1.49,9.76,9.76,0,0,0-.49-1.84,1.62,1.62,0,0,0-.56-.7,1.52,1.52,0,0,0-.86-.23h-.8v4a.52.52,0,0,0,.15.41.78.78,0,0,0,.52.18h1v.69H77.53v-.69h.86a.67.67,0,0,0,.5-.17.66.66,0,0,0,.17-.48v-8.22a.69.69,0,0,0-.15-.5.59.59,0,0,0-.44-.16h-.93Zm3.86,4.95h.92a2.81,2.81,0,0,0,1.93-.63,2.09,2.09,0,0,0,.53-1.62,2,2,0,0,0-.52-1.53,2.67,2.67,0,0,0-1.81-.48,1.55,1.55,0,0,0-.87.15.91.91,0,0,0-.18.67Z"/><path class="b" d="M88.87,143.29H94.3V144h-.75a1.09,1.09,0,0,0-.55.1.3.3,0,0,0-.15.26.88.88,0,0,0,.13.42l2.27,3.91,1.59-3.17a1.61,1.61,0,0,0,.2-.72.72.72,0,0,0-.26-.58A1.22,1.22,0,0,0,96,144h-.33v-.69h4.22V144a2.29,2.29,0,0,0-1.17.29,2.17,2.17,0,0,0-.75.89l-2.19,4.33v3.43a.57.57,0,0,0,.17.45.77.77,0,0,0,.52.15h1.13v.69h-6v-.69h1.12a.79.79,0,0,0,.54-.14.59.59,0,0,0,.15-.45v-3l-2.94-5.05a1.73,1.73,0,0,0-.59-.66,1.59,1.59,0,0,0-.79-.18h-.24Z"/><path class="b" d="M104.87,143.29h9.62l.11,3.76h-.66a4.12,4.12,0,0,0-.81-2.41,2.6,2.6,0,0,0-2-.67h-1.62a.76.76,0,0,0-.52.15.54.54,0,0,0-.16.42v3.65h.59q1.76,0,2-2.09h.65v5h-.65a3.14,3.14,0,0,0-.27-1.28,1.82,1.82,0,0,0-.65-.73,1.74,1.74,0,0,0-1-.27h-.74v4a.59.59,0,0,0,.17.46.84.84,0,0,0,.58.21h1v.69h-5.77v-.69h1a.72.72,0,0,0,.52-.18.61.61,0,0,0,.18-.45v-8.33a.5.5,0,0,0-.18-.44,1.45,1.45,0,0,0-.74-.13h-.75Z"/><path class="b" d="M116,143.29h5.69a6,6,0,0,1,2.26.36,2.84,2.84,0,0,1,1.3,1,2.34,2.34,0,0,1,.43,1.37,2.27,2.27,0,0,1-1.08,1.95,5.45,5.45,0,0,1-2.52.74,3.39,3.39,0,0,1,1.31.45,2.71,2.71,0,0,1,.81.91,7.72,7.72,0,0,1,.76,1.91,3.07,3.07,0,0,0,.32.9.4.4,0,0,0,.32.18q.49,0,.58-1.29h.65a3.16,3.16,0,0,1-.61,2,1.94,1.94,0,0,1-1.52.59,2,2,0,0,1-1.12-.29,1.79,1.79,0,0,1-.65-.84,10.35,10.35,0,0,1-.37-1.49,9.76,9.76,0,0,0-.49-1.84,1.62,1.62,0,0,0-.56-.7,1.52,1.52,0,0,0-.86-.23h-.8v4a.52.52,0,0,0,.15.41.78.78,0,0,0,.52.18h1v.69H116v-.69h.86a.67.67,0,0,0,.5-.17.66.66,0,0,0,.17-.48v-8.22a.69.69,0,0,0-.15-.5.59.59,0,0,0-.44-.16H116Zm3.86,4.95h.92a2.81,2.81,0,0,0,1.93-.63,2.09,2.09,0,0,0,.53-1.62,2,2,0,0,0-.52-1.53,2.67,2.67,0,0,0-1.81-.48,1.55,1.55,0,0,0-.87.15.91.91,0,0,0-.18.67Z"/><path class="b" d="M127.92,143.29h9.5l.21,3.81H137a6.22,6.22,0,0,0-.57-1.94,2.25,2.25,0,0,0-.9-.89,3.12,3.12,0,0,0-1.46-.29h-1.49a.75.75,0,0,0-.5.14.48.48,0,0,0-.16.38v3.78h.51a1.8,1.8,0,0,0,1.36-.5,2.58,2.58,0,0,0,.57-1.62H135v5.07h-.66a2.8,2.8,0,0,0-.55-1.78,1.93,1.93,0,0,0-1.47-.52h-.42v4a.43.43,0,0,0,.16.38,1.2,1.2,0,0,0,.68.16h1.31a3,3,0,0,0,2.21-.86,4.31,4.31,0,0,0,1.06-2.6H138l-.16,4.15h-9.9v-.69h1a.69.69,0,0,0,.51-.17.61.61,0,0,0,.17-.46V144.5a.45.45,0,0,0-.17-.39,1.12,1.12,0,0,0-.62-.13h-.86Z"/><path class="b" d="M139.42,143.29h3.38l5.91,7.48v-5.08a1.69,1.69,0,0,0-.43-1.21,1.76,1.76,0,0,0-1.22-.5v-.69h4V144a1.49,1.49,0,0,0-1.56,1.71v8.51h-.85l-6.72-8.61v6a2,2,0,0,0,.47,1.49,1.58,1.58,0,0,0,1.16.47h.18v.69h-4.4v-.69h.3a1.38,1.38,0,0,0,1.09-.52,2,2,0,0,0,.44-1.33v-7a1.52,1.52,0,0,0-1.26-.65h-.49Z"/><path class="b" d="M160.78,144.12l.51-1.08h.55l.18,4.37h-.68a5.22,5.22,0,0,0-1.19-2.8,2.71,2.71,0,0,0-2-.91,2.41,2.41,0,0,0-2.05,1.18,6.69,6.69,0,0,0-.81,3.72,7.15,7.15,0,0,0,.89,4,2.41,2.41,0,0,0,2.11,1,3.07,3.07,0,0,0,2.35-1,4.38,4.38,0,0,0,1-2.2h.66a4.62,4.62,0,0,1-1.42,2.95,4.17,4.17,0,0,1-2.92,1.08,5,5,0,0,1-3.76-1.58,5.61,5.61,0,0,1-1.52-4,5.71,5.71,0,0,1,1.75-4.38,4.94,4.94,0,0,1,3.49-1.39,4.24,4.24,0,0,1,1.46.25A5.48,5.48,0,0,1,160.78,144.12Z"/><path class="b" d="M164,143.29h5.05V144h-.75a.68.68,0,0,0-.47.14.48.48,0,0,0-.15.38v3.58h4.16v-3.39a.73.73,0,0,0-.17-.55.81.81,0,0,0-.56-.16h-.63v-.69h5.06V144h-.68a.82.82,0,0,0-.55.15.59.59,0,0,0-.16.46v8.24a.72.72,0,0,0,.17.53.63.63,0,0,0,.47.17h.76v.69h-5.06v-.69h.77a.61.61,0,0,0,.45-.14.66.66,0,0,0,.14-.47V149h-4.16v3.92a.68.68,0,0,0,.13.46.46.46,0,0,0,.36.15h.88v.69H164v-.69h.81a.52.52,0,0,0,.41-.14.69.69,0,0,0,.13-.47v-8.22a.72.72,0,0,0-.17-.54.78.78,0,0,0-.55-.16H164Z"/><path class="b" d="M190,144.12l.51-1.08h.55l.18,4.37h-.68a5.22,5.22,0,0,0-1.19-2.8,2.71,2.71,0,0,0-2-.91,2.41,2.41,0,0,0-2.05,1.18,6.69,6.69,0,0,0-.81,3.72,7.15,7.15,0,0,0,.89,4,2.41,2.41,0,0,0,2.11,1,3.07,3.07,0,0,0,2.35-1,4.38,4.38,0,0,0,1-2.2h.66a4.62,4.62,0,0,1-1.42,2.95,4.17,4.17,0,0,1-2.92,1.08,5,5,0,0,1-3.76-1.58,5.61,5.61,0,0,1-1.52-4,5.71,5.71,0,0,1,1.75-4.38,4.94,4.94,0,0,1,3.49-1.39,4.24,4.24,0,0,1,1.46.25A5.48,5.48,0,0,1,190,144.12Z"/><path class="b" d="M198.56,143l4.09,9.79a1.32,1.32,0,0,0,.38.56.93.93,0,0,0,.55.15h.4v.69h-5.12v-.69h.48a1.68,1.68,0,0,0,.78-.13.37.37,0,0,0,.21-.33,1,1,0,0,0-.09-.38l-.84-2h-4.08l-.39.92a2.5,2.5,0,0,0-.24.86,1,1,0,0,0,.35.78,1.45,1.45,0,0,0,1,.3h.35v.69h-4.14v-.69h.24a1.07,1.07,0,0,0,.7-.25,2.36,2.36,0,0,0,.67-.91l3.91-9.34Zm-1.19,2.76-1.75,4.16h3.48Z"/><path class="b" d="M204.56,143.29h9.62l.11,3.76h-.66a4.12,4.12,0,0,0-.81-2.41,2.6,2.6,0,0,0-2-.67h-1.62a.76.76,0,0,0-.52.15.54.54,0,0,0-.16.42v3.65h.59q1.76,0,2-2.09h.65v5h-.65a3.14,3.14,0,0,0-.27-1.28,1.82,1.82,0,0,0-.65-.73,1.74,1.74,0,0,0-1-.27h-.74v4a.59.59,0,0,0,.17.46.84.84,0,0,0,.58.21h1v.69h-5.77v-.69h1a.72.72,0,0,0,.52-.18.61.61,0,0,0,.18-.45v-8.33a.5.5,0,0,0-.18-.44,1.45,1.45,0,0,0-.74-.13h-.75Z"/><path class="b" d="M215.31,143.29h9.5l.21,3.81h-.65a6.22,6.22,0,0,0-.57-1.94,2.25,2.25,0,0,0-.9-.89,3.12,3.12,0,0,0-1.46-.29H220a.75.75,0,0,0-.5.14.48.48,0,0,0-.16.38v3.78h.51a1.8,1.8,0,0,0,1.36-.5,2.58,2.58,0,0,0,.57-1.62h.66v5.07h-.66a2.8,2.8,0,0,0-.55-1.78,1.93,1.93,0,0,0-1.47-.52h-.42v4a.43.43,0,0,0,.16.38,1.2,1.2,0,0,0,.68.16h1.31a3,3,0,0,0,2.21-.86,4.31,4.31,0,0,0,1.06-2.6h.66l-.16,4.15h-9.9v-.69h1a.69.69,0,0,0,.51-.17.61.61,0,0,0,.17-.46V144.5a.45.45,0,0,0-.17-.39,1.12,1.12,0,0,0-.62-.13h-.86Zm3.92-.83-.21-.17,1.19-1.7a1.53,1.53,0,0,1,1.17-.81.87.87,0,0,1,.6.25.71.71,0,0,1,.27.52.77.77,0,0,1-.2.52,2.72,2.72,0,0,1-.88.53Z"/><path class="d" d="M230.45,162a2.58,2.58,0,1,0-2.58-2.58,2.58,2.58,0,0,0,2.58,2.58Zm0-.44a2.14,2.14,0,1,1,2.14-2.14,2.14,2.14,0,0,1-2.14,2.14Z"/><path class="d" d="M229.92,159.67h.51l.78,1.27h.5l-.84-1.29a.76.76,0,0,0,.76-.81c0-.58-.34-.84-1-.84h-1.12v2.94h.45v-1.27Zm0-.38v-.91h.61c.31,0,.64.07.64.43s-.34.48-.71.48Z"/></svg>