<svg xmlns="http://www.w3.org/2000/svg" viewBox="0 0 250 250"><title>Drug Logos</title><path d="M30,129.06c1.26-3.37,3.18-4.68,6.83-4.76a21.55,21.55,0,0,1,6.52,1,.93.93,0,0,0,1.28-.54,103.36,103.36,0,0,1,5.82-9.6,20.41,20.41,0,0,1,4.13-4.37,6.75,6.75,0,0,1,6.11-1.24,2.69,2.69,0,0,1,2.13,3.31c-.41,2.41-1.73,4.41-3,6.44a.5.5,0,0,1-.5.23c-1,0-2,0-3.05,0-.55,0-.49-.19-.26-.56.69-1.09,1.36-2.19,2-3.29a3.64,3.64,0,0,0,.32-.67c.13-.36.39-.76,0-1.11s-.85-.16-1.24,0a4.26,4.26,0,0,0-1.37,1.24,50.41,50.41,0,0,0-4.65,7.52c-.7,1.29-1.34,2.6-2,3.89-.35.65-.17,1,.45,1.36a10.53,10.53,0,0,0,8.13,1c.44-.1.55-.35.63-.77a13.27,13.27,0,0,1,7.28-10,8.13,8.13,0,0,1,5.68-.36,3.76,3.76,0,0,1,2.77,3.35,12.14,12.14,0,0,1,.14,1.33c.06.76.09.79.77.38a17.51,17.51,0,0,0,4.48-4.21,1.31,1.31,0,0,1,1.18-.57c1.07,0,2.14,0,3.2,0,.53,0,.69.12.41.62a4.34,4.34,0,0,0-.24.68,1.58,1.58,0,0,0,.78-.34,6.27,6.27,0,0,1,4.72-.8,2.11,2.11,0,0,1,1.72,2.27,10.79,10.79,0,0,1-1,4.23c-.56,1.38-1.14,2.75-1.71,4.12-.12.29-.32.65,0,.9s.58,0,.84-.11a13.12,13.12,0,0,0,4-2.77,3.4,3.4,0,0,0,.66-1.07,18.12,18.12,0,0,1,4.78-6.74,5.36,5.36,0,0,1,4.79-1.47,4.83,4.83,0,0,1,2.74,1.9.62.62,0,0,0,.36-.48c.25-1,.83-1.23,1.8-1.15,1.2.1,2.42,0,3.75,0L106.79,130a3.4,3.4,0,0,0,1.74-.57,12.92,12.92,0,0,0,3.85-3.35c1.82-2.13,3.45-4.43,5.42-6.43a13.38,13.38,0,0,1,3.64-2.68.78.78,0,0,1,1,.08c.31.28.67.51,1,.77,1.11.85,1.1.85.62,2.2a21.89,21.89,0,0,0-1.69,6,23.06,23.06,0,0,1-.62,4.11,8.25,8.25,0,0,1-.4,1.27c-1.54,3.58-3.86,4.37-7.47,3.41a3.22,3.22,0,0,1-2-1.59.8.8,0,0,0-1.21-.38c-.71.3-1.45.52-2.15.82a.6.6,0,0,1-.86-.27c-.35-.54-.75-1.05-1.1-1.59s-.51-.45-.76.08c-1.31,2.86-2.67,5.7-3.95,8.58-.31.7-.59.73-1.18.36-.84-.52-1.73-1-2.61-1.43-.46-.23-.59-.46-.34-1,.58-1.18,1.09-2.39,1.63-3.59a1.69,1.69,0,0,0,.27-.86,6.73,6.73,0,0,0-1.61.22,6,6,0,0,1-1.85,0,2.72,2.72,0,0,1-2.37-2.25c-.12-.61-.32-.63-.81-.32a39.47,39.47,0,0,1-4.74,2.48,7.12,7.12,0,0,1-3.33.65c-1.35-.07-1.87-.62-1.88-1.95a9.81,9.81,0,0,1,.84-3.52c.4-1.07.85-2.11,1.27-3.18.13-.34.22-.71.33-1.06a1.2,1.2,0,0,0-.41-1.4,1.25,1.25,0,0,0-1.53,0,5.43,5.43,0,0,0-2,2.17c-.93,1.7-1.81,3.42-2.7,5.13-.6,1.17-1.2,2.34-1.78,3.52a.76.76,0,0,1-.79.5q-1.75,0-3.5,0c-.56,0-.54-.17-.34-.59,1-2.22,2.07-4.45,3.1-6.68a3.14,3.14,0,0,0,.29-.86c-1.22.54-2.58.71-3.39,2a14.63,14.63,0,0,1-5.33,5,6.84,6.84,0,0,1-8.22-.65.76.76,0,0,0-.87-.17,13.09,13.09,0,0,1-11.49-1.38c-.57-.34-.93-.38-1.43.17-3.16,3.49-9.13,3.73-12.87,1.6A4.7,4.7,0,0,1,30,130.55Zm70,.43a2.78,2.78,0,0,0,2.58-1.58c.52-1.23,1.12-2.42,1.64-3.65a1.42,1.42,0,0,0-1.25-2,2,2,0,0,0-1.28.31,7.06,7.06,0,0,0-3.25,5.17A1.43,1.43,0,0,0,100,129.49Zm-37.49-.41c0,1,.44,1.4,1.37,1.15a7,7,0,0,0,3.56-2.78c.2-.25.12-.41-.18-.46A4.15,4.15,0,0,1,65,125.78c-.56-.54-.93-.37-1.32.16A6.35,6.35,0,0,0,62.48,129.08Zm56.32-3.57c-.09-.28.2-.76-.19-.9s-.5.34-.7.58a20.92,20.92,0,0,0-2.4,3.47c-.37.68-.25,1.12.39,1.62s1,.12,1.43-.25a3,3,0,0,0,.67-1A9.6,9.6,0,0,0,118.81,125.52Zm-81,5.19a3.75,3.75,0,0,0,2.81-1c.22-.19.38-.35.09-.66a4,4,0,0,0-4.92-.15.7.7,0,0,0,0,1.14A2.36,2.36,0,0,0,37.85,130.71Zm31.33-7.14c.56.08.91-.16.92-.84a1.42,1.42,0,0,0-1.21-1.52c-.52,0-1.62.74-1.62,1.12S68.31,123.55,69.17,123.57Z" style="fill:#de0029"/><path d="M145,108.95a16.23,16.23,0,0,1,4,1.53c3.82,2.27,5.55,5.88,4.77,10.59a16.33,16.33,0,0,1-10.67,13.23,13.38,13.38,0,0,1-4.9.7,1.4,1.4,0,0,1-.93-.42c-1.12-.94-2.23-1.9-3.37-2.82a.78.78,0,0,1-.23-1.12q3.49-7.48,6.93-15c.17-.37.59-.87.36-1.14s-.83,0-1.24.13a9.73,9.73,0,0,0-4.38,2.41c-.36.34-.54.35-.82-.08-.57-.87-1.17-1.73-1.82-2.54a.77.77,0,0,1,.07-1.19,13.44,13.44,0,0,1,7.8-4.14c.19,0,.4,0,.56-.16ZM139.47,130a1.44,1.44,0,0,0,.9,0c4.18-.95,8.34-5.45,9-9.71.35-2.41-.38-4.08-2.21-5.17-.45-.27-.65-.22-.87.28-1.12,2.46-2.27,4.9-3.41,7.35Z" style="fill:#de0029"/><path d="M189.53,118.23a1.5,1.5,0,0,1-.26.79l-3.83,8.55a6.85,6.85,0,0,0-.37,1c-.29,1.06.31,1.67,1.36,1.35a4.44,4.44,0,0,0,2.63-2.17c.66-1.19,1.27-2.42,1.93-3.61a17.13,17.13,0,0,1,3.16-4,5.35,5.35,0,0,1,7-.81c.66.41,1,.31,1.15-.38s.61-.88,1.31-.82c1.14.1,2.28.11,3.42.11.62,0,.78.15.51.77-1.57,3.56-3.11,7.13-4.67,10.7-.1.22-.18.45-.28.69.35.16.56-.07.78-.18a14.59,14.59,0,0,0,4.75-3.88c1.56-1.83,3-3.8,4.58-5.59a14.46,14.46,0,0,1,4.14-3.24,1.21,1.21,0,0,1,1.38.07c2.1,1.44,2.16,1.45,1,3.72a19,19,0,0,0-1.44,7,9.76,9.76,0,0,1-2.08,5.48,5,5,0,0,1-7.9.27c-1.06-1.13-1.06-1.13-2.39-.3a4.12,4.12,0,0,1-.8.4c-.85.3-1.14.18-1.57-.59-.18-.32-.35-.66-.54-1s-.2-.67-.5-.68-.36.42-.48.67q-1.73,3.5-3.43,7c-.81,1.66-.81,1.67-2.45.78-.68-.36-1.33-.77-2-1.11-.45-.22-.48-.46-.28-.88.51-1.07,1-2.16,1.47-3.25.08-.17.25-.37.13-.55s-.36,0-.55,0l-1.63.17a3.78,3.78,0,0,1-3.56-1.43c-.33-.41-.63-.4-1.07-.14a12.47,12.47,0,0,1-3.09,1.45,4.45,4.45,0,0,1-4.26-.86.84.84,0,0,0-1.05-.13,11.3,11.3,0,0,1-3.19,1,4.6,4.6,0,0,1-4.64-1.87c-.29-.39-.49-.41-.86-.1a8.3,8.3,0,0,1-6.31,2.12,2.61,2.61,0,0,1-2.5-2.25,8.58,8.58,0,0,1,.56-5c.56-1.35,1.18-2.68,1.77-4,.3-.68.17-.92-.56-1.09-1.06-.25-1.13-.22-1.48.82a30.91,30.91,0,0,1-6.35,10.92,1.57,1.57,0,0,1-1.32.61c-1.58,0-3.16,0-4.94,0,.41-.43.69-.73,1-1a27.67,27.67,0,0,0,6.8-10.19,46.78,46.78,0,0,0,1.87-7.19c.13-.66.33-.83,1-.57a22.17,22.17,0,0,0,2.63.81c.48.12.68.33.56.82-.17.72.08,1.05.85,1.17,1.37.21,2.72.56,4.09.79a.9.9,0,0,1,.82.72c.19.64.39,1.28.57,1.93a2.08,2.08,0,0,1-.17,1.52c-.57,1.14-1.31,2.17-2,3.25a8,8,0,0,0-1,2.13,1.39,1.39,0,0,0,.3,1.46c.43.38.91.07,1.31-.16a9.29,9.29,0,0,0,4-4.1c1.12-2.43,2.26-4.86,3.36-7.29a.81.81,0,0,1,.87-.58q1.82.06,3.65,0c.59,0,.65.13.42.65-1.32,2.94-2.62,5.89-3.92,8.84a7.86,7.86,0,0,0-.48,1.33c-.18.78.12,1.13.91,1.15a2.83,2.83,0,0,0,2.35-1.22,12.86,12.86,0,0,0,1.49-2.65c1.1-2.41,2.22-4.82,3.27-7.25a1.14,1.14,0,0,1,1.28-.81C187,118.27,188.27,118.23,189.53,118.23Zm4.5,10.11a1.72,1.72,0,0,0,1.3,1.9,1.83,1.83,0,0,0,2.25-1c.66-1.44,1.31-2.88,1.95-4.33.45-1,.25-1.34-.88-1.44a2.55,2.55,0,0,0-.59,0A5,5,0,0,0,194,128.34Zm20.44-3.62a15.63,15.63,0,0,0-3.33,4.05,1.35,1.35,0,0,0,.08,1.54,1.38,1.38,0,0,0,1.43.39c.64-.1.85-.65,1-1.16A16.76,16.76,0,0,0,214.47,124.72Z" style="fill:#de0029"/></svg>