<svg xmlns="http://www.w3.org/2000/svg" viewBox="0 0 250 250"><title>CR</title><path d="M118.71,133.78c-.11.54-.2,1-.31,1.52-.41,1.8-1.39,2.16-3,2a3.64,3.64,0,0,1-2.35-1.19,3.69,3.69,0,0,0-3-1.14c-5,.06-10,0-15,0-1.59,0-1.85-.26-1.85-1.85,0-.38,0-.76,0-1.14a1.44,1.44,0,0,1,.56-1.24,9,9,0,0,1,1.36-.91c.35-.21.7-.42,1-.65a1,1,0,0,0,.49-1q0-9.65,0-19.29a2.36,2.36,0,0,0-1-2.05c-.38-.27-.78-.53-1.15-.81a1.22,1.22,0,0,1-.53-1.1c0-.53,0-1.07,0-1.59a2.2,2.2,0,0,1,2.27-1.9c.53,0,1.06,0,1.6,0h8.12a4.6,4.6,0,0,1,1.44.17,2.1,2.1,0,0,1,1.51,2c0,.46,0,.91,0,1.37a1.14,1.14,0,0,1-.49,1c-.4.3-.82.58-1.22.87a2.23,2.23,0,0,0-1,1.94q0,9.05,0,18.11c0,.36.1.45.45.44,2.37,0,4.74,0,7.11-.11.32,0,.36-.08.29-.39a14.81,14.81,0,0,1,.26-8.18,11,11,0,0,1,7.67-7.4,17.82,17.82,0,0,1,11.2.18,11,11,0,0,1,7.54,8.73,14.58,14.58,0,0,1-.42,7.69A10.66,10.66,0,0,1,134,134.8a17.69,17.69,0,0,1-13.37,0A12.15,12.15,0,0,1,118.71,133.78Zm3.47-12.14a10.53,10.53,0,0,0,1.89,6.07A5,5,0,0,0,129,130a3.45,3.45,0,0,0,3.27-2.81,10.2,10.2,0,0,0-2-8.66,4.71,4.71,0,0,0-4.28-1.86,3.64,3.64,0,0,0-3.59,3A9.19,9.19,0,0,0,122.18,121.64Z" style="fill:#010101"/><path d="M180.46,125.69c-1.85,0-3.71,0-5.56,0-.39,0-.41.13-.27.41a4,4,0,0,0,.4.71,6.7,6.7,0,0,0,6.24,2.75,12.78,12.78,0,0,0,4.52-1.44l1.06-.52a1.44,1.44,0,0,1,1.76.25,6.07,6.07,0,0,1,1.83,3.14,1.43,1.43,0,0,1-.44,1.24,6.83,6.83,0,0,1-2.14,1.67,17.29,17.29,0,0,1-9.37,2.13,16.14,16.14,0,0,1-5.45-1.17,10.94,10.94,0,0,1-6.55-7.35,15,15,0,0,1,.38-9.71,11.17,11.17,0,0,1,8.55-7.16,15.15,15.15,0,0,1,8.15.18,10,10,0,0,1,7,7.59,6.75,6.75,0,0,1-.37,4.16,5.22,5.22,0,0,1-4.69,3.12Zm-3.1-5.74v0c.93,0,1.85,0,2.78,0a8.58,8.58,0,0,0,3-.53,1.38,1.38,0,0,0,.8-1.9,2.25,2.25,0,0,0-.62-.89,4.58,4.58,0,0,0-3-1.21,6.62,6.62,0,0,0-6.14,4.21c-.1.29-.07.36.24.36C175.41,119.94,176.38,119.95,177.35,119.95Z" style="fill:#010101"/><path d="M201.83,136.5a23.38,23.38,0,0,1-8.23-1.5,5.61,5.61,0,0,1-1.74-1.06,2.13,2.13,0,0,1-.72-2,31.63,31.63,0,0,1,.69-3.25,5.34,5.34,0,0,1,.41-1.06,1.41,1.41,0,0,1,1.38-.78,2.48,2.48,0,0,1,2.18,1.06,6.4,6.4,0,0,0,3.19,2.48,9.13,9.13,0,0,0,4,.38,2.39,2.39,0,0,0,1.2-.51,1.45,1.45,0,0,0-.07-2.45,8.67,8.67,0,0,0-2.24-1c-1.73-.57-3.5-1-5.17-1.72a11.28,11.28,0,0,1-2.37-1.34,6.32,6.32,0,0,1-2.19-7.18,7.63,7.63,0,0,1,4.89-5,19.33,19.33,0,0,1,11.85,0,5.27,5.27,0,0,1,2,1.21,2.09,2.09,0,0,1,.6,2c-.27,1.23-.42,2.48-.76,3.7-.23.81-.45,1-1.3,1h-1.32a2.11,2.11,0,0,1-1.75-.83,4.43,4.43,0,0,1-.54-.78,2.85,2.85,0,0,0-2.48-1.6,12.62,12.62,0,0,0-2.23-.07,1.32,1.32,0,0,0-.7,2.44,7.39,7.39,0,0,0,2.27,1c1.7.55,3.45,1,5.1,1.66a10.8,10.8,0,0,1,2.52,1.45,6.21,6.21,0,0,1,2.45,4.74,7.55,7.55,0,0,1-4.56,7.83,13.37,13.37,0,0,1-3.86,1A24.66,24.66,0,0,1,201.83,136.5Z" style="fill:#010101"/><path d="M153.49,127.67c1.24-3,2.63-6,3.81-9a2.68,2.68,0,0,0,.25-1.19c-.05-.63-.29-.9-.92-1a3.21,3.21,0,0,1-1.22-.34,1.61,1.61,0,0,1-.89-1.48q0-.71,0-1.41a1.82,1.82,0,0,1,1.61-2,1.38,1.38,0,0,1,.27,0c3.22-.09,6.44-.12,9.66,0a1.82,1.82,0,0,1,1.88,2c0,.36,0,.73,0,1.09a1.65,1.65,0,0,1-1.42,1.83,2.12,2.12,0,0,0-1.73,1.57q-3.24,8.2-6.52,16.38a1.85,1.85,0,0,1-2.1,1.43h-5.47a1.8,1.8,0,0,1-2-1.35l-6.56-16.46a8.44,8.44,0,0,0-.37-.78,1.2,1.2,0,0,0-.92-.67,2.8,2.8,0,0,1-1-.33,1.58,1.58,0,0,1-.86-1.41c0-.44,0-.88,0-1.32a1.85,1.85,0,0,1,1.8-2,8,8,0,0,1,1-.06h7.89a4.73,4.73,0,0,1,1.44.17,1.74,1.74,0,0,1,1.33,1.79c0,.47,0,.94,0,1.41a1.77,1.77,0,0,1-1.42,1.86,4.13,4.13,0,0,1-.58.11c-.85.11-1.18.56-1,1.42a7.9,7.9,0,0,0,.5,1.56c1.13,2.66,2.27,5.32,3.41,8C153.33,127.52,153.33,127.64,153.49,127.67Z" style="fill:#010101"/><path d="M86.61,105.36a13.43,13.43,0,0,1-3.18,8.4,68.9,68.9,0,0,1-11,10.62c-2.36,1.84-4.67,3.75-7,5.65-3.17,2.61-6.41,5.11-9.79,7.44a.71.71,0,0,1-1,0,97.69,97.69,0,0,1-8.46-6.4,59.62,59.62,0,0,1-8.44-8.75,13.08,13.08,0,0,1-2.66-6.16,8.94,8.94,0,0,1,.9-5.92,8.15,8.15,0,0,1,3.52-3.14,1.78,1.78,0,0,0,.66-.53,8.45,8.45,0,0,1,3.13-2.52,1.61,1.61,0,0,0,.62-.51A8.58,8.58,0,0,1,47.12,101a1.41,1.41,0,0,0,.53-.4A9,9,0,0,1,54.36,97a14.1,14.1,0,0,1,11.77,4.65c.35.36.49.14.69-.08a14.13,14.13,0,0,1,7.28-4.25A11.84,11.84,0,0,1,82,98a7.49,7.49,0,0,1,4.27,4.82A11.1,11.1,0,0,1,86.61,105.36ZM43,104.94a7.05,7.05,0,0,0-2.6,2.43,8.24,8.24,0,0,0-.88,5.82A13.74,13.74,0,0,0,42.84,120a75.35,75.35,0,0,0,15.83,13.86.41.41,0,0,0,.56,0l2.9-2.06c.09-.06.23-.1.25-.28l-.51-.35a77.79,77.79,0,0,1-13-10.81,30.13,30.13,0,0,1-4.54-5.62A11.62,11.62,0,0,1,43.09,105v-.11Zm-3.73,3a6.62,6.62,0,0,0-3.32,4,10.11,10.11,0,0,0,0,5.27,16.34,16.34,0,0,0,3.81,6.61,77.48,77.48,0,0,0,15.11,13,.47.47,0,0,0,.64,0c.84-.61,1.69-1.19,2.53-1.79.66-.47.65-.47,0-.93A79,79,0,0,1,46.73,125a43.58,43.58,0,0,1-5.53-6.23c-2.22-3.3-3.12-6.85-1.87-10.76,0,0,.05-.08,0-.11S39.29,108,39.27,108Zm7.63-2.9a8.53,8.53,0,0,0,.1,1.86,13.41,13.41,0,0,0,2.93,6.43,63.18,63.18,0,0,0,7,7.32,92,92,0,0,0,9.21,7.08c.25.18.4.09.6-.05,1.44-1,2.9-2.06,4.33-3.11A64.62,64.62,0,0,0,83,113.3a12.59,12.59,0,0,0,3-8.36,6.82,6.82,0,0,0-3.76-6.18,10.88,10.88,0,0,0-7.84-.84,14,14,0,0,0-7.53,4.52c-.35.39-.5.39-.84,0a15.09,15.09,0,0,0-2.21-2,13.34,13.34,0,0,0-9.44-2.75,8.55,8.55,0,0,0-6.05,3A6.84,6.84,0,0,0,46.89,105.07Zm-.06-3.19a6.71,6.71,0,0,0-3.37,4,10,10,0,0,0-.11,4.74,14.66,14.66,0,0,0,3.34,6.44,75.68,75.68,0,0,0,15.75,13.75.41.41,0,0,0,.55,0l2.86-2c.11-.08.25-.12.29-.29l-1.71-1.2a73.19,73.19,0,0,1-11.06-9.19,38.74,38.74,0,0,1-4.71-5.44,12.83,12.83,0,0,1-2.37-7.06A12,12,0,0,1,46.83,101.88Z" style="fill:#090503"/><path d="M197.85,99.94a5.9,5.9,0,0,1-1.5,3.56,28,28,0,0,1-4.91,4.73c-.16.12-.26.2-.46,0a26.38,26.38,0,0,1-5.35-5.31,5.34,5.34,0,0,1-1.11-3.21,2.85,2.85,0,0,1,3.36-2.87,4.45,4.45,0,0,1,2.75,1.38c.55.57.56.57,1.13,0a4.31,4.31,0,0,1,3.07-1.38A2.81,2.81,0,0,1,197.85,99.94Z" style="fill:#fe0005"/><path d="M213.4,134.92a1.57,1.57,0,1,1-1.61,1.57A1.59,1.59,0,0,1,213.4,134.92Zm0,.33a1.24,1.24,0,0,0,0,2.47,1.17,1.17,0,0,0,1.21-1.19A1.19,1.19,0,0,0,213.41,135.26Z" style="fill:#090503"/><path d="M46.89,105.07a6.84,6.84,0,0,1,1.44-4.37,8.55,8.55,0,0,1,6.05-3,13.34,13.34,0,0,1,9.44,2.75,15.09,15.09,0,0,1,2.21,2c.34.39.49.38.84,0a14,14,0,0,1,7.53-4.52,10.88,10.88,0,0,1,7.84.84A6.82,6.82,0,0,1,86,104.94a12.59,12.59,0,0,1-3,8.36,64.62,64.62,0,0,1-11.91,11.3c-1.43,1-2.89,2.07-4.33,3.11-.19.14-.35.23-.6.05A92,92,0,0,1,57,120.69a63.18,63.18,0,0,1-7-7.32A13.41,13.41,0,0,1,47,106.93,8.53,8.53,0,0,1,46.89,105.07Z" style="fill:#fe0005"/><path d="M46.83,101.88a12,12,0,0,0-.54,3.69,12.83,12.83,0,0,0,2.37,7.06,38.74,38.74,0,0,0,4.71,5.44,73.19,73.19,0,0,0,11.06,9.19l1.71,1.2c0,.17-.18.22-.29.29l-2.86,2a.41.41,0,0,1-.55,0,75.68,75.68,0,0,1-15.75-13.75,14.66,14.66,0,0,1-3.34-6.44,10,10,0,0,1,.11-4.74A6.71,6.71,0,0,1,46.83,101.88Z" style="fill:#fce400"/><path d="M39.33,108c-1.26,3.91-.35,7.46,1.87,10.76A43.58,43.58,0,0,0,46.73,125,79,79,0,0,0,58,134.12c.66.45.66.46,0,.93-.84.6-1.69,1.18-2.53,1.79a.47.47,0,0,1-.64,0,77.48,77.48,0,0,1-15.11-13A16.34,16.34,0,0,1,36,117.22a10.11,10.11,0,0,1,0-5.27,6.62,6.62,0,0,1,3.32-4Z" style="fill:#fe0005"/><path d="M43.09,105a11.62,11.62,0,0,0,1.21,9.68,30.13,30.13,0,0,0,4.54,5.62,77.79,77.79,0,0,0,13,10.81l.51.35c0,.18-.15.21-.25.28l-2.9,2.06a.41.41,0,0,1-.56,0A75.35,75.35,0,0,1,42.84,120a13.74,13.74,0,0,1-3.33-6.79,8.24,8.24,0,0,1,.88-5.82,7.05,7.05,0,0,1,2.6-2.43Z" style="fill:#fc7a00"/><path d="M43,104.94l.1,0V105Z" style="fill:#fc7a00"/><path d="M39.27,108s.05-.05.06,0,0,.07,0,.11Z" style="fill:#fe0005"/><path d="M212.79,136.46v0c0-.68.31-.9,1-.68.22.08.44.3.3.47-.28.32,0,.55,0,.82,0,.09.11.22-.05.27s-.28,0-.32-.15,0-.11-.05-.17a.3.3,0,0,0-.36-.27c-.22,0-.12.21-.13.33s0,.28-.19.28-.17-.16-.18-.29S212.79,136.64,212.79,136.46Zm.56-.49c-.13,0-.2,0-.18.2s0,.27.16.25.33,0,.34-.23S213.53,136,213.35,136Z" style="fill:#090503"/><path d="M142,148.42c-.48,0-.62-.38-.62-1.2v-4.4h.9c.17,0,.19-.12.22-.37l.15-1h-1.26v-2.07h0l-.72-.19a3.88,3.88,0,0,1-2.53,2.65v1h.67v4.94c0,1.64.51,2.4,1.88,2.4a3.11,3.11,0,0,0,2.31-1.32l-.38-.66A1.07,1.07,0,0,1,142,148.42Z" style="fill:#010101"/><path d="M148.89,141.43a2.06,2.06,0,0,0-.94-.31c-.57,0-.93.61-1.55,1.76a3.05,3.05,0,0,0-1.6-1.76l-1.57,2.23.52.7.28-.26c.23.18.23.35.23.68v4.37h-.51v1.08h3.84v-1.08h-.74v-3.62c0-.85.38-1.32.93-1.32a3.1,3.1,0,0,1,1.19.38l.86-2.91-.77-.33Z" style="fill:#010101"/><polygon points="153.15 141.13 153.15 141.13 153.15 141.13 153.15 141.13" style="fill:#010101"/><path d="M136.32,143.75c0-1.74-.84-2.63-2-2.63a4,4,0,0,0-2.59,1.5l.07-1.5h-.1l-3.07,1v1l.51-.1v5.83h-.51v1.08h3.6v-1.08h-.51v-5a1.81,1.81,0,0,1,1.26-.7c.52,0,.78.36.78,1.11v4.54h-.49v1.08h3.57v-1.08h-.49Z" style="fill:#010101"/><path d="M106.59,147.46c-1.71,0-3-2.28-3-5.2,0-1.72.57-2.71,1.36-2.71.54,0,.93.55.93,1.23a1.4,1.4,0,0,1-.35,1l.6.85,3.08-3-.61-1-.46.45a2.77,2.77,0,0,0-2.35-1.2,4.57,4.57,0,0,0-3.63,2.23,7.41,7.41,0,0,0-1.31,4.36c0,3.34,1.84,5.72,4.46,5.72,1.76,0,3.15-1.06,4.3-3.22l-.75-.82A2.7,2.7,0,0,1,106.59,147.46Z" style="fill:#010101"/><path d="M126.59,141.12h-.09l-3,1v1L124,143v4.53a1.51,1.51,0,0,1-1.06.57c-.48,0-.73-.38-.73-1.12v-5.86h-.1l-3,1v1l.49-.1v4.53c0,1.74.82,2.63,2,2.63a3.22,3.22,0,0,0,2.2-1.29l.33,1h2.92v-1.08h-.51Z" style="fill:#010101"/><path d="M114,141.12c-2.33,0-4,1.89-4,4.53s1.72,4.51,4,4.51,4-1.89,4-4.51S116.29,141.12,114,141.12Z" style="fill:#010101"/><path d="M157.39,141.59c-.49,0-1-.34-1.5-.34-.86,0-1.29.73-2,2.27a15.32,15.32,0,0,1-.76-2.39L150.39,143l.33.78.45-.23,2.77,6.23-.17.49a1,1,0,0,1-1,.75,2.44,2.44,0,0,1-1.16-.44l-.41,2.29a2.23,2.23,0,0,0,1.1.28c1.08,0,1.86-1,2.6-2.83l2.73-7a12.09,12.09,0,0,1,.73-1.63l-.31-.38A1.09,1.09,0,0,1,157.39,141.59Z" style="fill:#010101"/><path d="M203.61,144.09c-.76-.45-1.19-.77-1.19-1.22a.45.45,0,0,1,.45-.5c.51,0,1.13.58,1.93,1.71l1.06-2a3.78,3.78,0,0,0-2.44-1,2.68,2.68,0,0,0-2.74,2.9c0,1.6.84,2.05,2.14,2.91.84.54,1.31.83,1.31,1.29s-.17.54-.49.54c-.55,0-1.36-.68-2.41-2.05L200,148.91a4.06,4.06,0,0,0,2.87,1.24,3.08,3.08,0,0,0,3.15-3.08C206.07,145.64,205.2,145,203.61,144.09Z" style="fill:#010101"/><path d="M191.65,141l-.16.4a2.06,2.06,0,0,0-.95-.31c-.57,0-.93.61-1.55,1.76a3.06,3.06,0,0,0-1.6-1.76l-1.57,2.23.52.7.28-.26c.23.18.23.35.23.68v4.37h-.51v1.08h3.84v-1.08h-.74v-3.62c0-.85.38-1.32.93-1.32a3.11,3.11,0,0,1,1.19.38l.86-2.91h0Z" style="fill:#010101"/><path d="M197.47,148.07a2.07,2.07,0,0,1-1.87-1.53l2.82-1.37c.86-.42,1.22-.35,1.22-.54a5.38,5.38,0,0,0-1-2.17,3,3,0,0,0-2.47-1.34c-1.83,0-3.52,1.84-3.52,4.55s1.39,4.48,3.37,4.48a4.23,4.23,0,0,0,3.66-2.29l-.52-.68A2.21,2.21,0,0,1,197.47,148.07Z" style="fill:#010101"/><path d="M181.15,141.12c-2.33,0-4,1.89-4,4.53s1.72,4.51,4,4.51,4-1.89,4-4.51S183.46,141.12,181.15,141.12Z" style="fill:#010101"/><path d="M167,141.82c-1.12-.51-1.66-.91-1.66-1.51a.75.75,0,0,1,.8-.73c.6,0,1.57.71,3,2.14l1.57-3-.84-.63-.33.56a5.07,5.07,0,0,0-2.54-.87,4,4,0,0,0-3.72,4,3.21,3.21,0,0,0,1.37,2.68,25.86,25.86,0,0,0,3.14,1.55c.73.36,1.1.68,1.1,1.11a1,1,0,0,1-1.1,1c-1,0-2.27-1-3.79-2.92l-1.68,2.92a6.11,6.11,0,0,0,4.31,2,4.31,4.31,0,0,0,4.12-4.45,3.29,3.29,0,0,0-.78-2.19A8.45,8.45,0,0,0,167,141.82Z" style="fill:#010101"/><path d="M175.68,148.42c-.48,0-.62-.38-.62-1.2v-4.4h.9c.17,0,.19-.12.22-.37l.15-1h-1.26v-2.07l-.72-.19a3.87,3.87,0,0,1-2.53,2.65v1h.67v4.94c0,1.64.51,2.4,1.88,2.4a3.11,3.11,0,0,0,2.31-1.32l-.38-.66A1.07,1.07,0,0,1,175.68,148.42Z" style="fill:#010101"/><path d="M115.35,146.73c0,1.41-.33,2.13-.94,2.13-.81,0-1.8-1.8-1.8-4.41,0-1.33.35-2,.91-2C114.32,142.42,115.35,144.21,115.35,146.73Zm41.09-3.26-1.31,3.34-1-2.54c.26-.66.57-1,.87-1s.63.32,1.07.32a.71.71,0,0,0,.33-.13Zm26.07,3.26c0,1.41-.33,2.13-.94,2.13-.81,0-1.8-1.8-1.8-4.41,0-1.33.35-2,.91-2C181.48,142.42,182.51,144.21,182.51,146.73ZM197,144.35l-1.83.9a5,5,0,0,1-.2-1.44c0-.85.27-1.32.71-1.32s1,.63,1.32,1.86Z" style="fill:#fff"/></svg>