<svg xmlns="http://www.w3.org/2000/svg" viewBox="0 0 250 250"><title>Grocery</title><path d="M35.71,164.31A12.11,12.11,0,0,1,37,160.39a5.73,5.73,0,0,1,2.74-2.52,10.24,10.24,0,0,1,2.89-.8c2.26-.35,4.5-.79,6.75-1.2l7.95-1.47,7.89-1.47c.41-.08.41-.09.48-.51q.64-3.86,1.29-7.72.59-3.53,1.17-7.07l1.29-7.72,1.17-7.07,1.29-7.72L73,108l1.29-7.77c.07-.4.12-.81.21-1.21s0-.36-.27-.42A17.64,17.64,0,0,1,68.37,96a12.24,12.24,0,0,1-5.18-8,7.76,7.76,0,0,1-.2-1.32l.45.42a21.52,21.52,0,0,0,10,5.68c.51.13,1,.22,1.56.3.25,0,.33,0,.36-.28.2-1.56.48-3.1.83-4.63a35.07,35.07,0,0,1,3.38-9.29,19.18,19.18,0,0,1,4.84-5.9A13.86,13.86,0,0,1,91,70c.17,0,.34,0,.51,0a1.08,1.08,0,0,1,.39,0c.15,0,.31,0,.45-.05h1.54c.1.09.22,0,.33.05h.21c.09,0,.19,0,.28,0a14,14,0,0,1,8.52,4.15,11.26,11.26,0,0,1,2.95,6.19,14.33,14.33,0,0,1-3,11.15,16.7,16.7,0,0,1-6.05,4.87,31,31,0,0,1-8,2.66,30.57,30.57,0,0,1-3.49.51c-.21,0-.29.08-.32.29-.15,1-.33,2.06-.49,3.08l-1.08,6.77-1.07,6.72-1.07,6.72-1.09,6.82-1.09,6.82-1,6.57-1.11,7c0,.08,0,.17,0,.28a2.84,2.84,0,0,0,1-.13L91,148.12c3.32-.61,6.64-1.22,10-1.8,2.37-.41,4.75-.78,7.12-1.17s4.64-.77,7-1.17,4.87-.84,7.3-1.29c5.23-1,10.46-1.95,15.59-3.37a17.37,17.37,0,0,0,2.82-1,1.53,1.53,0,0,1,0,.66,23.77,23.77,0,0,1-.76,6,10.57,10.57,0,0,1-3.37,5.5,12.94,12.94,0,0,1-4.17,2.23A28,28,0,0,1,127,154c-1.91.25-3.82.52-5.73.78l-5,.65-5,.67-4.26.55-4.26.56-4.31.56-4.31.57-4.31.56-4.31.57-4.26.56-4.36.57c-.25,0-.51.08-.76.09a.45.45,0,0,0-.43.36c-.3.8-.59,1.6-.93,2.38A34.94,34.94,0,0,1,68.72,173a22.06,22.06,0,0,1-9.54,6.49,23.69,23.69,0,0,1-4.8,1c-.16.08-.32,0-.49,0h-.24c-.24,0-.48-.06-.71.05H51.51c-.16-.11-.34,0-.51-.05h-.62a16.73,16.73,0,0,1-9.45-3.5,14,14,0,0,1-5.19-8.18,3.18,3.18,0,0,1-.11-.86,3,3,0,0,0-.05-.68c0-.12,0-.25-.05-.36v-1.85A3.94,3.94,0,0,0,35.71,164.31Z" style="fill:#006227"/><path d="M215.43,107.64a11.82,11.82,0,0,1-2.65,6.27,12,12,0,0,1-6.85,4.11,14.35,14.35,0,0,1-9.21-.85A9.73,9.73,0,0,1,192,113a1.07,1.07,0,0,0-.09-.12c-.2.06-.3.23-.43.35-1.55,1.5-3,3.07-4.67,4.45a25,25,0,0,1-7.58,4.47,13.2,13.2,0,0,1-4.2.83,8.49,8.49,0,0,1-7.59-4,8.07,8.07,0,0,1-1.09-3.12,11.18,11.18,0,0,1-.22-2.19c0-.28-.11-.35-.37-.33a14.65,14.65,0,0,1-2.15.08,19.35,19.35,0,0,1-2.39-.24c-.37-.07-.37-.07-.51.29a37.39,37.39,0,0,1-2.74,5.88,20.31,20.31,0,0,1-4.42,5.4,13.32,13.32,0,0,1-6.38,2.93,14.59,14.59,0,0,1-3.92.22,7.37,7.37,0,0,1-4.35-1.71,1.56,1.56,0,0,0-.18-.12,15.8,15.8,0,0,1-2.84,2.35,13.7,13.7,0,0,1-5.24,1.92,14.61,14.61,0,0,1-3.06.2,9.43,9.43,0,0,1-2.56-.44,5.94,5.94,0,0,1-4.17-4.86,12.73,12.73,0,0,1-.18-2.91A57.06,57.06,0,0,1,122,111.93c.09-.38.17-.77.25-1.15a.4.4,0,0,0,0-.11c-.15,0-.22.13-.32.21a15.64,15.64,0,0,1-4.77,2.72.6.6,0,0,0-.46.61,30.14,30.14,0,0,1-2.76,10.64,24,24,0,0,1-4.2,6,14.71,14.71,0,0,1-8.58,4.4,11.87,11.87,0,0,1-6-.56,7.87,7.87,0,0,1-5.24-6.29,19.94,19.94,0,0,1,.91-10.38,26.88,26.88,0,0,1,6.76-10.73,16.6,16.6,0,0,1,7.37-4.25,11,11,0,0,1,5.67-.16,7.61,7.61,0,0,1,5.83,5.95c.09.4.16.8.25,1.21a.94.94,0,0,0,.58-.14,11.37,11.37,0,0,0,4-2.82,18.63,18.63,0,0,0,3.94-5.94,1.42,1.42,0,0,1,1.27-1c2.6-.38,5.19-.83,7.78-1.25l1.08-.18c.08.21,0,.38-.1.54-1.23,3.71-2.34,7.45-3.31,11.23a65.32,65.32,0,0,0-1.39,7.13,25.16,25.16,0,0,0-.32,2.95,6.51,6.51,0,0,0,.14,1.73,1.82,1.82,0,0,0,2,1.55,3.91,3.91,0,0,0,1.73-.41,8.17,8.17,0,0,0,2.07-1.57,2.15,2.15,0,0,0,.7-1.7,40.39,40.39,0,0,1,.44-5.82,74.3,74.3,0,0,1,2.59-11.62,37.66,37.66,0,0,1,1.72-4.6.9.9,0,0,1,.78-.6c3-.47,6-1,9-1.48a.26.26,0,0,1,.23.05l-.5,1.53c-1.26,3.89-2.43,7.81-3.37,11.8-.47,2-.79,4.05-1.09,6.09a15.22,15.22,0,0,0-.21,3.47,3.76,3.76,0,0,0,.24,1.09,1.74,1.74,0,0,0,1.65,1.16,4.08,4.08,0,0,0,2.25-.58,8.15,8.15,0,0,0,2.3-2,23.4,23.4,0,0,0,3.74-6.84.38.38,0,0,0-.12-.52,8.26,8.26,0,0,1-3.07-6.75,14.92,14.92,0,0,1,1.76-6.82,7.6,7.6,0,0,1,2.55-2.89,5.77,5.77,0,0,1,3.09-.95,2.45,2.45,0,0,1,2.26,1.25,6,6,0,0,1,.79,2.57,21.2,21.2,0,0,1-.76,7.8c-.37,1.42-.73,2.84-1.17,4.24,0,.08,0,.17-.05.27a5.48,5.48,0,0,0,1.45.24,14.68,14.68,0,0,0,2.4.07c.5,0,.51,0,.57-.55a20.24,20.24,0,0,1,.64-3.16,25.77,25.77,0,0,1,7.67-12.47,16.26,16.26,0,0,1,7.16-3.8,13.86,13.86,0,0,1,4-.35,5.32,5.32,0,0,1,4.67,3.67,6.87,6.87,0,0,1-.16,4.76,12.34,12.34,0,0,1-3,4.32,33.81,33.81,0,0,1-6,4.68,46.44,46.44,0,0,1-5.13,2.87.43.43,0,0,0-.29.55,5.82,5.82,0,0,0,5.78,4.84,8,8,0,0,0,3.65-1.06,13.78,13.78,0,0,0,3-2.18c.81-.76,1.58-1.56,2.34-2.37a.78.78,0,0,0,.23-.59,13.91,13.91,0,0,1,.32-3.56,8.16,8.16,0,0,1,1.89-3.59,5.4,5.4,0,0,1,3.55-1.83,3.19,3.19,0,0,1,1.07.07,2.38,2.38,0,0,1,1.83,2.56,4.35,4.35,0,0,1-.53,1.8,7.55,7.55,0,0,1-1.06,1.5c-.91,1-1.81,2-2.73,3.05a.49.49,0,0,0-.08.67,4,4,0,0,0,1.95,1.75,7,7,0,0,0,5.67.1,5.87,5.87,0,0,0,3.39-3.95,7.15,7.15,0,0,0-1.07-6.61A29.53,29.53,0,0,0,202.91,99,21.63,21.63,0,0,1,201,96.73a10.12,10.12,0,0,1-1.9-6.61,7.11,7.11,0,0,1,1.58-4,10.66,10.66,0,0,1,6.48-4c.26-.05.54-.07.8-.1.08.2,0,.32-.09.45a10.81,10.81,0,0,0-.74,3.8A11.36,11.36,0,0,0,208.19,91a31.05,31.05,0,0,0,3,5.23c.85,1.22,1.73,2.41,2.48,3.7a13.71,13.71,0,0,1,1.68,4.16c0,.2,0,.41.07.61a.55.55,0,0,1,0,.28c0,.11,0,.24.05.34V107c-.09.1,0,.23-.05.34A.57.57,0,0,1,215.43,107.64Z" style="fill:#006227"/><path d="M215.43,107.64v-.3q0-.08.08,0v.31h-.09Z" style="fill:#b5cebb"/><path d="M215.52,107.33h-.08a.29.29,0,0,1,.08-.32Z" style="fill:#73a380"/><path d="M215.52,105.28a.29.29,0,0,1-.08-.32s.06,0,.08,0Z" style="fill:#81a882"/><path d="M188.09,133c-.42,0-.78.15-1.19.12a11,11,0,0,1,.19-1.57c0-.19.16-.18.3-.21l3.08-.5,1.67-.27a1.8,1.8,0,0,1,1.42.24,1.33,1.33,0,0,1,.6,1.33c-.27,1.91-.55,3.82-.83,5.72q-.33,2.23-.66,4.45a2.71,2.71,0,0,1-2.17,2.24c-1.68.26-3.37.49-5.06.73a2.72,2.72,0,0,1-.34,0c0-.53.14-1,.2-1.56,0-.12.11-.15.22-.17s.51-.09.76-.1.31-.13.34-.35c.19-1.3.39-2.6.58-3.9q.45-3,.88-6S188.09,133.05,188.09,133Z" style="fill:#006227"/><path d="M172.47,135.72c-.07.48-.16,1.12-.25,1.76q-.44,2.91-.88,5.81c-.11.71-.18,1.42-.32,2.12a2.74,2.74,0,0,1-2.14,2.17,24.06,24.06,0,0,1-2.62.42,1.75,1.75,0,0,1-.81-.09,1.34,1.34,0,0,1-1-1.34,14.8,14.8,0,0,1,.26-1.92c.32-2.16.65-4.32,1-6.47.08-.51.14-1,.22-1.52a2.9,2.9,0,0,1,2.32-2.25c.8-.14,1.62-.26,2.42-.38a1.68,1.68,0,0,1,1,.17A1.42,1.42,0,0,1,172.47,135.72Z" style="fill:#006227"/><path d="M176.72,146.49c-1.21,0-1.83-.71-1.67-1.76q.63-4.22,1.28-8.44c.06-.42.11-.85.19-1.26a2.8,2.8,0,0,1,2.36-2.35l1.92-.3a3.44,3.44,0,0,1,.61,0,1.38,1.38,0,0,1,1.42,1.57c-.06.66-.17,1.32-.27,2q-.44,3-.89,6c-.1.69-.17,1.39-.31,2.07a2.64,2.64,0,0,1-2,2.08A18.57,18.57,0,0,1,176.72,146.49Z" style="fill:#006227"/><path d="M156.68,147.54c.61,0,1.14-.17,1.7-.22a3.23,3.23,0,0,1-.1,1.15c-.08.68-.1.67-.79.77l-4.86.7a.69.69,0,0,1-.44,0c.06-.49.14-1,.19-1.49,0-.23.2-.25.37-.28l1.17-.16a.39.39,0,0,0,.39-.38q.7-4.63,1.42-9.25s0,0,0-.08c-.57,0-1.14.22-1.76.21.08-.52.16-1,.21-1.49,0-.25.2-.29.39-.32l3.28-.53,4.24-.69.59-.07c0,.65-.18,1.24-.25,1.84,0,.39-.13.77-.18,1.16,0,.2-.09.3-.3.33-.54.07-1.07.17-1.64.26,0-.51.14-1,.18-1.48a9.85,9.85,0,0,0-1.41.19c-.91.14-.9.15-1,1.07s-.28,1.82-.42,2.79l2.5-.38c0,.59-.16,1.14-.23,1.69,0,.17-.11.22-.27.24-.64.09-1.28.22-1.92.29-.31,0-.4.16-.44.44C157.07,145,156.87,146.26,156.68,147.54Z" style="fill:#006227"/><path d="M201.58,133.24a6.26,6.26,0,0,1,.14-1.38c0-.29.09-.57.13-.86s0-.33-.28-.3-.61.08-.91.14a.53.53,0,0,0-.44.5c-.13.91-.27,1.82-.39,2.74-.06.46,0,.6.44.81s.85.42,1.27.65a5.1,5.1,0,0,1,.69.44,1.67,1.67,0,0,1,.69,1.57c-.13,1.19-.28,2.37-.47,3.55a2.66,2.66,0,0,1-2.12,2l-2,.3h-.31a1.31,1.31,0,0,1-1.43-1.48c.06-.73.2-1.45.3-2.18,0-.18.12-.21.27-.23l1.8-.29c.12.12.07.24,0,.35-.08.52-.17,1-.24,1.57s0,.47.38.42l.76-.11a.52.52,0,0,0,.47-.47c.13-.86.27-1.72.39-2.58a.78.78,0,0,0-.48-.91c-.49-.23-1-.51-1.44-.77a3.46,3.46,0,0,1-.71-.5,1.59,1.59,0,0,1-.53-1.38c.06-.56.14-1.12.22-1.67s.17-1.15.24-1.72a2.66,2.66,0,0,1,2.25-2.26l1.87-.29a1.43,1.43,0,0,1,1.71,1.67c-.09.66-.18,1.32-.26,2,0,.26-.1.42-.43.44C202.71,133,202.16,133.15,201.58,133.24Z" style="fill:#006227"/><path d="M63.44,162.34a8.56,8.56,0,0,1-.46,1.33,18.35,18.35,0,0,1-3.78,6.09,12.21,12.21,0,0,1-9.63,3.81A9.67,9.67,0,0,1,44.39,172a6.09,6.09,0,0,1-2.81-5.77,1.31,1.31,0,0,1,0-.2c.24-1.11.07-.89,1.09-1l4.31-.57,4.26-.55,4.31-.56,4.31-.57,2.84-.37Z" style="fill:#fff"/><path d="M108.22,106.53l-.33.44a5.56,5.56,0,0,0-1.13,2.76,4.46,4.46,0,0,0,3.36,4.76,4.83,4.83,0,0,0,1.26.21c.23,0,.33.06.33.32a13.66,13.66,0,0,1-2.89,9,6,6,0,0,1-3.51,2.31,6,6,0,0,1-2.74,0,4.73,4.73,0,0,1-3.3-2.81,8.12,8.12,0,0,1-.68-2.87A14.7,14.7,0,0,1,102.78,109a9,9,0,0,1,3.83-2.37A3.37,3.37,0,0,1,108.22,106.53Z" style="fill:#fff"/><path d="M175.54,107c0-.76,0-1.44.08-2.11a20.55,20.55,0,0,1,1.76-6.79,8,8,0,0,1,1.79-2.53,3.64,3.64,0,0,1,1.08-.76,1.57,1.57,0,0,1,1.87.36,2.45,2.45,0,0,1,.7,1.5,6.12,6.12,0,0,1-.65,3.52,11,11,0,0,1-1.39,2.08,26.77,26.77,0,0,1-4.91,4.53Z" style="fill:#fff"/><path d="M188.8,143l.42-2.9.87-6c.07-.46.14-.91.2-1.37a.25.25,0,0,1,.25-.25c.34,0,.67-.11,1-.17s.44,0,.39.35c-.07.59-.16,1.18-.25,1.77l-.89,6c-.09.59-.19,1.18-.26,1.77a.58.58,0,0,1-.55.56Z" style="fill:#fff"/><path d="M166.9,145.71c.15-1,.31-2.07.47-3.14.29-1.9.59-3.81.88-5.71.09-.56.17-.66.71-.75l.71-.11c.42-.06.47,0,.41.43s-.14.91-.2,1.37q-.56,3.69-1.12,7.38c-.09.6-.21.72-.8.79-.25,0-.51.08-.76.1S166.88,146.06,166.9,145.71Z" style="fill:#fff"/><path d="M177.37,144.22c.11-.78.23-1.61.36-2.44.33-2.21.66-4.42,1-6.62.09-.63.13-.69.77-.81l.76-.13c.27,0,.35,0,.31.3-.06.54-.15,1.08-.23,1.62l-1.11,7.43c0,.13-.05.27-.07.4a.51.51,0,0,1-.47.46l-1,.14C177.39,144.61,177.36,144.58,177.37,144.22Z" style="fill:#fff"/></svg>