<svg xmlns="http://www.w3.org/2000/svg" viewBox="0 0 250 250"><defs><style>.a{fill:#cc4831;}.b{fill:#f8a519;}</style></defs><title>Midscale</title><path class="a" d="M225,142.45c-.15,0-.13.2-.17.31a2.49,2.49,0,0,1-4.78-.93,2.49,2.49,0,0,1,4.76-1c.05.12,0,.28.2.34Zm-.37-.62a2.09,2.09,0,0,0-2.07-2.14,2.12,2.12,0,1,0,2.07,2.14Z"/><path class="a" d="M103.19,123.67c0-3.21,0-6.41,0-9.62a10.1,10.1,0,0,0-.34-3c-.21-.68-.54-1.17-1.36-1.22a17.45,17.45,0,0,1-1.92-.34,3.23,3.23,0,0,1-2.56-2.4,3.31,3.31,0,0,1,1.24-3.5,4.44,4.44,0,0,1,2.45-.77c3.4,0,6.8,0,10.2,0a2.45,2.45,0,0,1,1.86.69,1.82,1.82,0,0,1,.58,1.35c0,3,0,6,0,9,0,.68.39.92,1,.63a16.85,16.85,0,0,1,4.22-1.55,12.86,12.86,0,0,1,14.87,9.28,20.78,20.78,0,0,1-1.86,16.07c-2.57,4.59-6.71,6.49-11.9,6.26a13.44,13.44,0,0,1-6.65-2,.63.63,0,0,0-1,.1,4.37,4.37,0,0,1-2.68,1.1,13.25,13.25,0,0,1-1.9.1c-3.78,0-7.56,0-11.34-.06-2.39,0-4.79,0-7.18-.2a1.68,1.68,0,0,1-1.31-.64c-.11-.15-.27-.27-.39-.42a.74.74,0,0,0-1.09-.16,13.28,13.28,0,0,1-7.54,2.12,10.91,10.91,0,0,1-7.42-2.33,8.37,8.37,0,0,1-3-5.85c-.16-1.85-.08-3.71-.12-5.57C68,127.78,68,124.89,68,122a1.71,1.71,0,0,0-1.27-1.48l-2.43-.45a2.89,2.89,0,0,1-2.66-2.71A3.34,3.34,0,0,1,62.86,114a3,3,0,0,1,1.9-.49c3.56-.05,7.11-.12,10.67,0a5.34,5.34,0,0,1,1.9.37,1.27,1.27,0,0,1,1,1.41c0,5.92,0,11.85,0,17.77a2.49,2.49,0,0,0,.94,2.08,5.07,5.07,0,0,0,4.78,1,3.28,3.28,0,0,0,2.33-3.3c0-3.19,0-6.38,0-9.57,0-.64,0-1.27,0-1.91a.57.57,0,0,0-.5-.64,2.35,2.35,0,0,0-.71-.08,7.29,7.29,0,0,1-2-.25,3.45,3.45,0,0,1-2.58-4.4,3.91,3.91,0,0,1,1.35-2,2.25,2.25,0,0,1,1.45-.51c3.18,0,6.35,0,9.53,0a14.38,14.38,0,0,1,2.08.21,2.08,2.08,0,0,1,1.84,2.14c0,3.87,0,7.75-.09,11.62,0,1.94-.07,3.87-.12,5.81,0,.59-.07,1.17-.12,1.76a1.26,1.26,0,0,0,1,1.53,7,7,0,0,0,2.77.32,4.28,4.28,0,0,0,1.8-.4,1.78,1.78,0,0,0,1.08-1.64Q103.19,129.24,103.19,123.67Zm20.49,4.22a21.29,21.29,0,0,0-.21-2.53,10,10,0,0,0-.63-2.28,4.28,4.28,0,0,0-2.92-2.77,5.09,5.09,0,0,0-6.07,2.87,12.83,12.83,0,0,0-.9,6.1,11.37,11.37,0,0,0,1,4.65,4.84,4.84,0,0,0,4.75,2.78,5.07,5.07,0,0,0,4.36-3.71A21.69,21.69,0,0,0,123.68,127.89Z"/><path class="a" d="M44.92,143.73H28.81a3.43,3.43,0,0,1-3.4-2.28,3.91,3.91,0,0,1,.56-4.36,4.06,4.06,0,0,1,2.67-1.21,9.58,9.58,0,0,0,2.83-.56,1.06,1.06,0,0,0,.65-.74,18.2,18.2,0,0,0,.56-3.71c.22-3,.18-6,.21-9,0-3.35,0-6.7.1-10a19.52,19.52,0,0,0-.31-4.45c0-.06,0-.12,0-.19a1.85,1.85,0,0,0-2-1.67c-.65-.06-1.3-.09-1.94-.19a3.8,3.8,0,0,1-3.16-2.43A3.73,3.73,0,0,1,26.09,99a4,4,0,0,1,2.81-1.32,16.53,16.53,0,0,1,2.7-.18H48.24a8.28,8.28,0,0,1,2.63.36,3.57,3.57,0,0,1,2.58,3.6,3.37,3.37,0,0,1-2.18,3.27,11.19,11.19,0,0,1-3.5.84c-1.73.2-2.07.49-2.45,2.21a21.68,21.68,0,0,0-.26,4.27c-.07,3.81-.11,7.62-.2,11.42-.07,3.24-.09,6.47,0,9.71a2.42,2.42,0,0,0,2.45,2.49c2,.07,4,0,6,0a2.4,2.4,0,0,0,1.53-.7,1.28,1.28,0,0,0,.41-1c0-1.67,0-3.33,0-5a6.78,6.78,0,0,1,.23-1.74c.76-2.91,4.11-3.41,6-2.63a4.3,4.3,0,0,1,2.77,4.09c-.06,3.86,0,7.72,0,11.58a3.74,3.74,0,0,1-.45,2.16,3.27,3.27,0,0,1-3,1.34Z"/><path class="b" d="M180.88,92.38c6,.3,11,2.9,14.1,8.64a16.29,16.29,0,0,1,1.84,6.74,15.41,15.41,0,0,1-2,8.41,40.35,40.35,0,0,1-17.35,17.12,6.68,6.68,0,0,1-4.15.68,4.53,4.53,0,0,1-1.8-7.91c.75-.58,1.52-1.14,2.29-1.71.45-.33.42-.55-.09-.8a16,16,0,0,1-8.53-8.75,15.79,15.79,0,0,1,2.72-16.6C171.14,94.28,175.43,92.49,180.88,92.38Z"/><path class="a" d="M143.14,113.43c2,0,3.9.1,5.85.13a3.42,3.42,0,0,1,3.21,4.63,2.32,2.32,0,0,1-.91,1.24c-.69.48-1.36,1-2,1.54A.91.91,0,0,0,149,122a40.44,40.44,0,0,0,1.61,4.42c.5,1.25,1.06,2.48,1.57,3.72a3.53,3.53,0,0,0,1.07,1.31c.15.12.25.16.35-.06a48.25,48.25,0,0,0,3.31-9.29,1.11,1.11,0,0,0-.45-1.27,17.06,17.06,0,0,0-1.83-1.28,2.8,2.8,0,0,1-1.37-2.41,3.12,3.12,0,0,1,3-3.51c2-.13,4.09-.13,6.14-.14a.51.51,0,0,1,.52.31c.27.54.59,1.05.83,1.6a20.5,20.5,0,0,0,3.11,4.82c.22.26.18.39,0,.65a17.13,17.13,0,0,0-2.09,3.83c-1.46,3.3-2.65,6.72-4.07,10-2.25,5.22-4.22,10.56-6.48,15.78a11,11,0,0,1-8.73,6.86,14.36,14.36,0,0,1-9-1.23,9.14,9.14,0,0,1-5.21-6.85,6.31,6.31,0,0,1,2.22-6.41c2-1.56,5.89-1.79,7.82.14a4.89,4.89,0,0,1,1.44,4.52,1.59,1.59,0,0,1-.31.79c-.25.29-.12.49.09.68a2.18,2.18,0,0,0,2,.42,3.47,3.47,0,0,0,2.73-3.4,7.6,7.6,0,0,0-.63-3c-1.81-4.68-3.92-9.25-5.89-13.86a54.33,54.33,0,0,0-3.38-6.91l-.1-.16a2.94,2.94,0,0,0-2.32-1.67c-2.09-.25-3.2-2.68-2.65-4.5a2.87,2.87,0,0,1,1.51-1.75,7.6,7.6,0,0,1,3.56-.71C139.26,113.42,141.2,113.43,143.14,113.43Z"/><path class="a" d="M219.28,118.82c0,.89,0,1.78,0,2.67a3.16,3.16,0,0,1-4.88,2.74,2.07,2.07,0,0,1-.72-.68c-.47-.68-1-1.33-1.42-2a3.6,3.6,0,0,0-2.42-1.62,9.67,9.67,0,0,0-4.29-.14,2.16,2.16,0,0,0-1,.47,1.5,1.5,0,0,0,.16,2.4,11.3,11.3,0,0,0,3.7,1.31,44.2,44.2,0,0,1,5.21,1.46c6,2.2,7.53,8.43,5.39,13.2a9.51,9.51,0,0,1-8.42,5.84,20.85,20.85,0,0,1-9.26-1.2,2,2,0,0,0-2,.28,4.61,4.61,0,0,1-2.08.88,2.7,2.7,0,0,1-2.9-1.45,8.12,8.12,0,0,1-.78-3.12,23,23,0,0,1,.09-4.51,3.44,3.44,0,0,1,2.28-3.22,3.54,3.54,0,0,1,3.8,1.1,10.72,10.72,0,0,1,1.6,2.52,2.53,2.53,0,0,0,1,1.05,8.77,8.77,0,0,0,6.35.88,1.79,1.79,0,0,0,1.56-2.13,1.61,1.61,0,0,0-.89-1.16,13.84,13.84,0,0,0-3.54-1.35,41,41,0,0,1-5.51-1.63,10.82,10.82,0,0,1-4.86-3.69,9.14,9.14,0,0,1,4.8-13.92,19.93,19.93,0,0,1,8-.74,13.16,13.16,0,0,1,4.32,1.07A1.44,1.44,0,0,0,214,114a3.63,3.63,0,0,1,3.21-.55,2.92,2.92,0,0,1,2.07,2.87Q219.28,117.58,219.28,118.82Z"/><path class="a" d="M223.8,143.16c-.52.18-.57-.13-.6-.47a.77.77,0,0,0-1.12-.66c-.14.06-.12.17-.12.27s0,.44,0,.67,0,.25-.2.24-.28,0-.28-.22c0-.81,0-1.62,0-2.42,0-.17.07-.22.23-.22.44,0,.89,0,1.33,0a.77.77,0,0,1,.55,1.19c-.1.18-.12.27,0,.44s.08.4.08.6A1.13,1.13,0,0,0,223.8,143.16Zm-1.31-1.56h.29a.37.37,0,0,0,.43-.39c0-.29-.17-.39-.42-.41l-.57,0c-.17,0-.25,0-.27.24C221.91,141.56,221.95,141.62,222.5,141.6Z"/></svg>