<svg xmlns="http://www.w3.org/2000/svg" viewBox="0 0 250 250"><title>CR</title><path d="M47.86,200V50H202.14V200Zm92-80.83a2.48,2.48,0,0,1-.35-.4c-2.06-3.8-4-7.66-6.2-11.39-2.42-4.13-4.74-8.31-7.09-12.48-.44-.78-.7-.69-1.21,0a26.8,26.8,0,0,0-1.35,2.44q-3.79,6.18-7.35,12.48c-.85,1.5-1.73,3-2.61,4.45-1.35,2.24-2.75,4.46-4.08,6.71-2.12,3.58-4.21,7.18-6.3,10.77-1,1.72-2,3.45-3,5.18-.33.41-.58,1.07-1,1.2a6.32,6.32,0,0,0-2.6,2,2.84,2.84,0,0,1-3.05,1c-2.09-.54-2-.42-2.23-2.57S90.86,134,88.31,133c-.88-.35-.64-1-.07-1.57,2.39-2.52,5.12-4.7,7.32-7.42a9.2,9.2,0,0,0,1.72-8.65,1.77,1.77,0,0,0-.54-.9,6.38,6.38,0,0,0-7.15-1.14,32.07,32.07,0,0,0-7.34,4.45,56.89,56.89,0,0,0-14.65,16.26,52.45,52.45,0,0,0-4.87,10.45A33.35,33.35,0,0,0,60.91,156c0,3.16,1.11,5.77,4.21,7.05.91.38,1,.8.79,1.61a22.72,22.72,0,0,0-.13,11.49,10.78,10.78,0,0,0,4.12,5.94c.95.71,2.27.6,3,1.62a8.39,8.39,0,0,0-1,1.26c-.92,1.31-1.33,2.93-2.46,4.1-.47.49-.83,1.07-.61,1.61s1,.28,1.47.28H177.45c.67,0,1.34,0,2,0s.85-.29.48-.94c-1.19-2.08-2.31-4.2-3.5-6.27-2-3.49-4.16-6.89-6-10.45-2.66-5.06-5.68-9.91-8.37-15-1.66-3.13-3.49-6.17-5.26-9.25-.28-.48-.44-1.1-1.06-1.33.3-1.79,1.46-2.39,3-1.61a5.45,5.45,0,0,0,1.84.75c4,.48,7.69-.77,9.35-4.51.25-.57.62-.85,1.21-.25a3.83,3.83,0,0,0,3.16,1,18.05,18.05,0,0,1,2.14,0,7.49,7.49,0,0,0,7.06-3.91,60.06,60.06,0,0,0,3.5-5.89c2.07-4.34,3.78-8.75,3.38-13.65-.2-2.53-.6-5.11-3.31-6.35-1.21-.55-1.82-1.06-.59-2.18.11-.1.12-.33.14-.51a12.16,12.16,0,0,0-.64-5.92c-.87-2.29-3.09-3-5-1.49a38.71,38.71,0,0,0-6.67,7.17c-.62.82-1,.74-1.47,0a3.72,3.72,0,0,0-5.25-1.42,25.34,25.34,0,0,0-3.37,2.52,25.84,25.84,0,0,0-3.72,3.55,27.26,27.26,0,0,0-4.65,6.26c-.46.88-.8.51-1.07,0a8.82,8.82,0,0,0-1.92-2.19c-2.59-2.31-3.8-2.31-6.3,0a3.5,3.5,0,0,0-.82,1c-.41.86-.87.67-1.26.07a2.85,2.85,0,0,0-2.9-1.22C141,119.12,140.44,119.14,139.86,119.17ZM65.65,58.46c-.85,0-1.7,0-2.54,0s-1.38.24-1.56,1.3c-.37,2.26-.22,4.54-.49,6.8q-.94,7.62-1.67,15.27c-.29,3-.21,3,2.84,2.93.73,0,1-.25,1.08-1,.06-1,.31-1.95.31-2.92,0-3.17.75-6.28.79-9.45,0-.3,0-.7.34-.78s.56.25.74.49a2,2,0,0,1,.3.73c.88,4.09,2.57,7.94,3.61,12a1,1,0,0,0,1.2.92c1.38,0,2.77-.06,4.15,0a1.2,1.2,0,0,0,1.36-1c1.43-4.19,2.83-8.39,4.28-12.56.17-.5,0-1.46.67-1.4s.34,1,.39,1.5Q82,77.51,82.5,83.69c.06.81.41,1.08,1.2,1,.93,0,1.87,0,2.81,0,4,0,3.89,0,3.6-4q-.76-10.39-1.29-20.79c-.06-1.25-.48-1.51-1.57-1.47-1.56.06-3.13.08-4.68,0s-2.67.2-3.26,2.15c-1.2,3.92-2.74,7.75-4,11.67-.12.4,0,1.05-.59,1.05s-.77-.64-.91-1.16l-1-3.59c-.63-2.31-1.67-4.48-2.13-6.86-.64-3.27-.75-3.24-4.14-3.25ZM174,85.26h2.27a2.2,2.2,0,0,0,.53-.08c4.27-1.12,8-3,10.3-7a12.57,12.57,0,0,0,1.92-6c.12-5.91-2.75-10.12-7.8-12.74a15.15,15.15,0,0,0-11.65-1.07c-4.58,1.38-7.93,4.05-9.71,8.61a12.17,12.17,0,0,0,.7,10.71C163.4,82.7,168.08,85.22,174,85.26ZM117.23,71.59c0,4,0,7.94,0,11.9,0,.88.21,1.3,1.2,1.26,1.74-.07,3.48-.07,5.21,0,1,0,1.34-.31,1.31-1.3-.05-2.41,0-4.81,0-7.22,0-1.85.15-1.93,2-2.13,2.5-.27,5.07-.38,7.37-1.51,1.75-.85,3.46-1.86,4-4a11.68,11.68,0,0,0,0-4.64c-.35-2.17-3.82-5-5.87-5.18-4.63-.47-9.26-.2-13.89-.34-1.09,0-1.38.35-1.37,1.38C117.26,63.74,117.23,67.67,117.23,71.59Zm-5.78,13.15c1.13,0,2.11,0,3.09,0s1.15-.43.8-1.16c-.67-1.42-.81-3-1.37-4.44-1.44-3.68-2.32-7.54-3.68-11.25-1-2.66-1.73-5.39-2.58-8.09-.25-.8-.57-1.43-1.65-1.36a42.71,42.71,0,0,1-4.68,0c-1,0-1.38.48-1.53,1.3-.55,2.93-2,5.56-2.83,8.4s-1.9,5.6-2.92,8.37c-.81,2.2-1.56,4.43-2.39,6.62-.49,1.29-.34,1.6,1,1.6a17.81,17.81,0,0,1,2,0,1.14,1.14,0,0,0,1.39-.91A39.1,39.1,0,0,0,97.25,80c.18-.92.53-1.32,1.47-1.3,1.87,0,3.74,0,5.62,0a1.54,1.54,0,0,1,1.57,1c.24.52.47,1.05.71,1.58.48,1.08.18,2.6,1.3,3.24S110.36,84.59,111.45,84.74Zm28.61-12.86a29,29,0,0,0,.65,4.27A9,9,0,0,0,144.27,82a13.86,13.86,0,0,0,10.33,3.11,17.16,17.16,0,0,0,4.82-1c1.14-.49.54-1.47.59-2.23s-.66-.72-1.18-.72a22.38,22.38,0,0,1-4.49-.63,6.39,6.39,0,0,1-4.16-3.07c-2.34-3.76-2.09-7.74-.56-11.66,1-2.68,2.91-4.53,6.07-4.55a15.14,15.14,0,0,1,3.18.35c1.43.3,1.63.06,1.45-1.38-.12-.92-.82-1.14-1.47-1.31a22,22,0,0,0-7.1-.94,12.38,12.38,0,0,0-8.34,3.63C140.78,64.29,139.87,67.7,140.06,71.88Z" style="fill:#035940"/><path d="M155.73,147.82c.62.22.78.84,1.06,1.33,1.76,3.08,3.6,6.13,5.26,9.25,2.68,5,5.7,9.9,8.37,15,1.87,3.56,4,7,6,10.45,1.19,2.08,2.31,4.19,3.5,6.27.37.64.21.91-.48.94s-1.34,0-2,0H70.32c-.51,0-1.25.26-1.47-.28s.14-1.13.61-1.61c1.13-1.16,1.54-2.78,2.46-4.1a8.27,8.27,0,0,1,1-1.26c.74-.32,1.51-.66,2.19-1a13.11,13.11,0,0,0,2.86-1.85c2.18-2.07,2.79-5,4.1-7.51a68.87,68.87,0,0,1,3.78-6.2A72.34,72.34,0,0,1,90.94,161c.65-.78,1.19-.86,1.72.08a12,12,0,0,0,3,3.21,12.66,12.66,0,0,0,7.73,2.87c.79,0,1.26.35,1.18,1.24-.24,2.77.68,5.31,1.65,7.83a3.3,3.3,0,0,0,2.41,2.26,3.64,3.64,0,0,0,3.35-1.21,11,11,0,0,0,3-8.48,17.4,17.4,0,0,1,.42-5.83c.33-1.06.87-2,1.2-3.07a11.49,11.49,0,0,1,2.52-4.28c1.13-1.22,2.1-.92,2.56.61a11.09,11.09,0,0,1,.38,2.1c.19,1.87,2.42,4.59,4.77,4.06a5.9,5.9,0,0,0,2.82-1.79,8.29,8.29,0,0,0,2.7-5.95,79.41,79.41,0,0,1,1.71-11.84c.08-.45.26-.76.75-.77s.66.25.88.65c1,1.77.31,3.43-.24,5.12-.9,2.78-2,5.55-.93,8.53a13.94,13.94,0,0,0,1.53,3.35,5.84,5.84,0,0,0,3.45,2.72c2.78.63,4.79-1,6.14-2.81,2.16-2.83,4.41-5.59,6.69-8.31C153.35,150,154.13,148.5,155.73,147.82Z" style="fill:#fdef2a"/><path d="M155.73,147.82c-1.6.69-2.38,2.21-3.41,3.44-2.28,2.73-4.53,5.48-6.69,8.31-1.36,1.78-3.36,3.44-6.14,2.81a5.84,5.84,0,0,1-3.45-2.72,13.94,13.94,0,0,1-1.53-3.35c-1-3,0-5.75.93-8.53.55-1.69,1.21-3.34.24-5.12-.22-.4-.42-.67-.88-.65s-.67.32-.75.77a79.41,79.41,0,0,0-1.71,11.84,8.29,8.29,0,0,1-2.7,5.95,5.9,5.9,0,0,1-2.82,1.79c-2.35.53-4.57-2.19-4.77-4.06a11.09,11.09,0,0,0-.38-2.1c-.46-1.52-1.43-1.82-2.56-.61a11.49,11.49,0,0,0-2.52,4.28c-.34,1.06-.88,2-1.2,3.07a17.4,17.4,0,0,0-.42,5.83,11,11,0,0,1-3,8.48,3.64,3.64,0,0,1-3.35,1.21,3.3,3.3,0,0,1-2.41-2.26c-1-2.52-1.89-5.06-1.65-7.83.08-.88-.39-1.21-1.18-1.24a12.66,12.66,0,0,1-7.73-2.87,12,12,0,0,1-3-3.21c-.53-.94-1.07-.85-1.72-.08a72.34,72.34,0,0,0-5.13,6.15,68.87,68.87,0,0,0-3.78,6.2c-1.3,2.52-1.92,5.44-4.1,7.51a13.11,13.11,0,0,1-2.86,1.85c-.67.37-1.45.7-2.19,1-.73-1-2.05-.91-3-1.62a10.78,10.78,0,0,1-4.12-5.94,22.72,22.72,0,0,1,.13-11.49c.19-.81.13-1.23-.79-1.61C62,161.81,61,159.2,60.91,156a33.35,33.35,0,0,1,1.83-11.53,52.45,52.45,0,0,1,4.87-10.45,56.89,56.89,0,0,1,14.65-16.26,32.07,32.07,0,0,1,7.34-4.45,6.38,6.38,0,0,1,7.15,1.14,1.77,1.77,0,0,1,.54.9A9.2,9.2,0,0,1,95.57,124c-2.21,2.71-4.93,4.9-7.32,7.42-.57.6-.82,1.22.07,1.57,2.55,1,3,3.22,3.16,5.48s.14,2,2.23,2.57a2.84,2.84,0,0,0,3.05-1,6.32,6.32,0,0,1,2.6-2c.42-.13.67-.78,1-1.2.81.16,4.05-1.29,4.55-2.07,1.52-2.38,3.82-3.95,6-5.66a13.3,13.3,0,0,1,5.88-2.61c2.39-.45,4.9-1.3,7.22.43a1,1,0,0,0,1.41-.17c.41-.46.85-.88,1.23-1.38,1.45-1.92,2.61-3.1,5.38-2.09.53.19,1.19.42,1.65-.06,1.77-1.86,4.29-2.58,6.25-4.13.58,0,1.16-.05,1.73-.1a2.85,2.85,0,0,1,2.9,1.22c.4.6.85.8,1.26-.07a3.5,3.5,0,0,1,.82-1c2.51-2.26,3.71-2.26,6.3,0a8.82,8.82,0,0,1,1.92,2.19c.27.48.61.86,1.07,0a27.26,27.26,0,0,1,4.65-6.26,25.84,25.84,0,0,1,3.72-3.55,25.34,25.34,0,0,1,3.37-2.52,3.72,3.72,0,0,1,5.25,1.42c.5.75.85.82,1.47,0a38.71,38.71,0,0,1,6.67-7.17c1.86-1.48,4.08-.8,5,1.49a12.16,12.16,0,0,1,.64,5.92c0,.17,0,.41-.14.51-1.23,1.13-.62,1.63.59,2.18,2.71,1.24,3.1,3.82,3.31,6.35.4,4.91-1.32,9.31-3.38,13.65a60.06,60.06,0,0,1-3.5,5.89,7.49,7.49,0,0,1-7.06,3.91,18.05,18.05,0,0,0-2.14,0,3.83,3.83,0,0,1-3.16-1c-.6-.6-1-.32-1.21.25-1.66,3.74-5.32,5-9.35,4.51a5.45,5.45,0,0,1-1.84-.75C157.19,145.43,156,146,155.73,147.82ZM67.57,170.5c-.08,3,.19,5.67,1.88,7.91,1.55,2.05,3.23,3.18,5.28,1.92a7.72,7.72,0,0,0,3.13-3.57,48,48,0,0,1,4.32-8.36,54,54,0,0,1,7.94-9.95c2.51-2.34,2.28-2.11,4.05.31,1.4,1.9,2.73,3.83,4.9,5a11.07,11.07,0,0,0,6,1.08c1.4-.08,1.82.5,1.78,1.78a15.67,15.67,0,0,0,1,7.08c.36.79.4,2,1.29,2.15,1.09.13,1.86-.91,2.49-1.77a4.06,4.06,0,0,0,.51-1.23,23.58,23.58,0,0,0,.72-6.62,18.72,18.72,0,0,1,3.63-11.07c1.68-2.27,4.1-3.92,5.54-6.42.24-.42.49-1.14,1.14-.94s.55.91.56,1.4a73.79,73.79,0,0,0,1.17,8.87c.21,1.44,1.19,2,2.46,1.27a4,4,0,0,0,2-3.27,118,118,0,0,1,1.84-12.78,21.6,21.6,0,0,1,3-6.74,15.4,15.4,0,0,1,4.52-4.65,3.82,3.82,0,0,0,1.41-1.72c.88-2.09,1.64-4.22,2.34-6.37.21-.65.6-1.44-.07-2s-1.45-.08-2.16.09a2.3,2.3,0,0,0-.35.19,15.85,15.85,0,0,0-5.36,4.28,1.25,1.25,0,0,1-2,.26c-1.76-1.22-2.82-1.16-3.88.1a19.73,19.73,0,0,0-3,3.73c-.61,1.22-1.2,1.19-1.8,0a3.42,3.42,0,0,0-3.25-1.88c-4.49-.22-7.93,1.83-11.1,4.69-2.24,2-3.89,4.55-7.06,5.69a14.88,14.88,0,0,0-7,6c-.59.88-1.1.55-1.34-.13-.58-1.66-1.68-1.73-3.09-1.25a10.21,10.21,0,0,0-1.66.5c-.35.19-.78.35-1.13,0s-.13-.77,0-1.12a9.65,9.65,0,0,0,.7-5,3.19,3.19,0,0,0-1.75-2.81c-1.18-.51-2,.48-2.72,1.25-2,2.07-4.05,4.14-6.05,6.23a1.61,1.61,0,0,1-2.27.37c-.74-.6,0-1.38.35-1.85,2.11-2.57,4.24-5.13,6.48-7.58,3.09-3.39,6.17-6.78,9.58-9.86a6.67,6.67,0,0,0,2.47-4.58c.08-1.26.42-2.66-.72-3.47s-2.82-.57-4.24-.06c-.12,0-.22.16-.34.21a26.65,26.65,0,0,0-5.35,3.21,54.81,54.81,0,0,0-6.44,5.53,57,57,0,0,0-5.72,6.63A46.43,46.43,0,0,0,68.66,137a51.28,51.28,0,0,0-3.86,9.16,28.73,28.73,0,0,0-1.54,10.35c.17,2.86,1.49,4.32,4.39,4.84,1,.18,1.16.61,1,1.55C68.24,165.49,67.3,168.05,67.57,170.5Zm91.79-29.56c-.32,1.28-.43,2.52.86,3.31,1.84,1.13,5.85.05,6.95-1.88,1.51-2.66,3-5.34,4.49-8a9.81,9.81,0,0,0,.57-1.47c.94-2.53.93-5.76,4.58-6.41.51-.09,1-.63,1.4-1a2.57,2.57,0,0,1,1-.61c.31-.07.6-.2.88,0a.77.77,0,0,1,.09,1,15.91,15.91,0,0,1-1.29,2.48c-2.23,3.15-3.91,6.66-6.38,9.67-1,1.26-.36,2.61,1.25,2.71,1,.06,2,0,2.94,0a4.65,4.65,0,0,0,4.16-2c1.14-1.52,2.07-3.19,3.1-4.79a32.63,32.63,0,0,0,3.72-9.51,12,12,0,0,0-.25-7.13c-.76-2.15-2.24-2.62-4.2-1.47-.65.38-1.35.7-2,1-.28.14-.59.34-.85,0s0-.52.09-.74A22.93,22.93,0,0,1,183,112c1.79-1.95,1.47-4,.78-6.11-.39-1.21-1-1.25-1.94-.31a79.89,79.89,0,0,0-7.95,9.3,10.48,10.48,0,0,0-1.66,2.37c-.41,1.2-1.28,2.13-1.6,3.35a1,1,0,0,1-1,.61,2.93,2.93,0,0,0-2.6,1.37,1.8,1.8,0,0,1-1.26.69c-.79.15-1.07-.27-.95-1a2.13,2.13,0,0,1,.6-1c1.38-1.57,2.77-3.13,4.11-4.73a4.72,4.72,0,0,0,1.45-4c-.26-1.42-1.1-1.92-2.39-1.27a11.37,11.37,0,0,0-2.8,2c-3.33,3.21-6.72,6.37-8.52,10.78a11.42,11.42,0,0,0-1.26,4.61,3.06,3.06,0,0,0,3,3.25,7.79,7.79,0,0,0,4.32-1.16c.4-.19.8-.52,1.23-.15a1.1,1.1,0,0,1,.17,1.25,4.23,4.23,0,0,1-.45,1.1c-.87,1.29-1.62,2.65-2.38,4a8.26,8.26,0,0,1-1.92,2.53c0-1.24,0-2.43,0-3.62s-.55-1.55-1.62-.91-2.21,1.3-3.27,2a54.66,54.66,0,0,0-6.94,5.61c-.22.22-.49.46-.82.24s-.27-.6-.09-.95a19.25,19.25,0,0,1,2.47-3.62c1.32-1.54,3.39-2.74,2.76-5.34-.2-.84-.19-1.74-1.14-2.09s-1.43.32-1.93.87c-.83.92-1.61,1.89-2.41,2.85-.27.33-.6.64-1,.36s-.25-.75,0-1.07c2.15-2.77,3.61-6,5.71-8.79,1.54-2.06,1.5-2.29-.58-3.91a2.76,2.76,0,0,1-.45-.49,1.21,1.21,0,0,0-2.13,0c-1.81,2.3-3.61,4.61-5.3,7-1.38,2-2.66,4-3.87,6.05a12,12,0,0,0-1.49,8,1.68,1.68,0,0,0,.62,1.14c1,.54.57,1.21.34,1.91-.81,2.49-1.66,5-2.4,7.49-.68,2.32.34,4.19,1.66,6s2.92,2.2,4.56.71a25.55,25.55,0,0,0,2.76-3.06c1.9-2.4,3.63-4.94,5.64-7.25a64.23,64.23,0,0,1,6.81-7.07A2,2,0,0,1,159.36,140.93Zm-5.49-13.3c-.06-.37,0-1-.38-.86-.61.2-.68,1-.83,1.53-.11.4.31.53.6.5C154.08,128.74,153.69,128,153.87,127.64Zm1,5.22c.21.25,0,.77.53.8.1,0,.3-.15.29-.19C155.59,133.07,155.19,133,154.84,132.86Z" style="fill:#f3f9f8"/><path d="M139.86,119.17c-2,1.55-4.48,2.27-6.25,4.13-.46.48-1.12.25-1.65.06-2.77-1-3.93.17-5.38,2.09-.38.5-.81.93-1.23,1.38a1,1,0,0,1-1.41.17c-2.31-1.74-4.83-.89-7.22-.43a13.3,13.3,0,0,0-5.88,2.61c-2.13,1.72-4.44,3.28-6,5.66-.5.78-3.74,2.23-4.55,2.07,1-1.73,2-3.46,3-5.18,2.09-3.6,4.18-7.19,6.3-10.77,1.33-2.25,2.73-4.47,4.08-6.71.89-1.47,1.77-3,2.61-4.45q3.57-6.3,7.35-12.48A26.8,26.8,0,0,1,125,94.88c.51-.67.77-.76,1.21,0,2.35,4.17,4.67,8.35,7.09,12.48,2.19,3.73,4.14,7.59,6.2,11.39A2.48,2.48,0,0,0,139.86,119.17Z" style="fill:#fdef2a"/><path d="M65.65,58.46h.94c3.39,0,3.5,0,4.14,3.25.47,2.38,1.51,4.55,2.13,6.86l1,3.59c.14.52.26,1.16.91,1.16s.46-.66.59-1.05c1.22-3.93,2.76-7.75,4-11.67.6-2,1.59-2.25,3.26-2.15s3.12.06,4.68,0c1.09,0,1.51.22,1.57,1.47q.52,10.4,1.29,20.79c.29,4,.38,4-3.6,4-.94,0-1.88,0-2.81,0-.78,0-1.13-.24-1.2-1Q82,77.51,81.44,71.33c0-.53.22-1.45-.39-1.5s-.49.9-.67,1.4c-1.46,4.18-2.86,8.37-4.28,12.56a1.2,1.2,0,0,1-1.36,1c-1.38-.08-2.77-.06-4.15,0a1,1,0,0,1-1.2-.92c-1-4-2.73-7.88-3.61-12a2,2,0,0,0-.3-.73c-.17-.25-.41-.56-.74-.49s-.34.48-.34.78c0,3.17-.8,6.27-.79,9.45,0,1-.25,1.94-.31,2.92,0,.74-.35,1-1.08,1-3.05.09-3.13.1-2.84-2.93q.73-7.65,1.67-15.27c.28-2.26.12-4.54.49-6.8.17-1.06.59-1.37,1.56-1.3S64.8,58.46,65.65,58.46Z" style="fill:#f3f9f8"/><path d="M174,85.26c-5.89,0-10.57-2.56-13.44-7.61a12.17,12.17,0,0,1-.7-10.71c1.78-4.55,5.12-7.23,9.71-8.61a15.15,15.15,0,0,1,11.65,1.07c5,2.62,7.93,6.83,7.8,12.74a12.57,12.57,0,0,1-1.92,6c-2.3,4-6,5.91-10.3,7a2.2,2.2,0,0,1-.53.08Zm-6.72-13.61a11.26,11.26,0,0,0,2.37,7.42,5.33,5.33,0,0,0,5.83,2c2.85-1,4.12-3.38,4.76-6,1.16-4.65.61-9-3.24-12.43a4.24,4.24,0,0,0-5.27-.49C168.43,64.37,167.17,67.54,167.25,71.64Z" style="fill:#f3f9f8"/><path d="M117.23,71.59c0-3.92,0-7.85,0-11.77,0-1,.28-1.41,1.37-1.38,4.63.14,9.26-.13,13.89.34,2,.21,5.52,3,5.87,5.18a11.68,11.68,0,0,1,0,4.64c-.52,2.13-2.23,3.14-4,4-2.3,1.12-4.87,1.23-7.37,1.51-1.89.21-2,.29-2,2.13,0,2.41,0,4.82,0,7.22,0,1-.31,1.34-1.31,1.3-1.74-.07-3.48-.07-5.21,0-1,0-1.21-.38-1.2-1.26C117.25,79.53,117.23,75.56,117.23,71.59Zm12.93-5.34a4.57,4.57,0,0,0-4.1-4.47c-.79-.07-1.16.19-1.16,1,0,2.36,0,4.72,0,7.08,0,.92.4,1.05,1.14,1A5,5,0,0,0,130.17,66.25Z" style="fill:#f3f9f8"/><path d="M111.45,84.74c-1.09-.15-2.45.41-3.54-.22s-.82-2.16-1.3-3.24c-.23-.53-.47-1.05-.71-1.58a1.54,1.54,0,0,0-1.57-1c-1.87,0-3.74,0-5.62,0-.94,0-1.29.38-1.47,1.3a39.1,39.1,0,0,1-1.13,3.83,1.14,1.14,0,0,1-1.39.91,17.81,17.81,0,0,0-2,0c-1.35,0-1.51-.31-1-1.6.83-2.19,1.57-4.42,2.39-6.62,1-2.77,2.07-5.56,2.92-8.37s2.28-5.47,2.83-8.4c.15-.82.54-1.35,1.53-1.3a42.71,42.71,0,0,0,4.68,0c1.08-.07,1.4.56,1.65,1.36.86,2.7,1.61,5.44,2.58,8.09,1.36,3.71,2.24,7.57,3.68,11.25.56,1.43.7,3,1.37,4.44.34.73.12,1.19-.8,1.16S112.58,84.74,111.45,84.74Zm-10-10.83c.49,0,1,0,1.46,0s.68-.21.51-.58a38.76,38.76,0,0,1-1.53-4.48.58.58,0,0,0-.6-.44c-.25,0-.37.23-.39.46a18.56,18.56,0,0,1-1,3C99.43,73.78,99.54,73.92,101.46,73.91Z" style="fill:#f3f9f8"/><path d="M140.06,71.88c-.19-4.18.72-7.59,3.35-10.26A12.38,12.38,0,0,1,151.74,58a22,22,0,0,1,7.1.94c.65.18,1.35.39,1.47,1.31.19,1.43,0,1.67-1.45,1.38a15.14,15.14,0,0,0-3.18-.35c-3.16,0-5,1.87-6.07,4.55-1.53,3.92-1.78,7.9.56,11.66a6.39,6.39,0,0,0,4.16,3.07,22.38,22.38,0,0,0,4.49.63c.52,0,1.23,0,1.18.72s.54,1.74-.59,2.23a17.16,17.16,0,0,1-4.82,1A13.86,13.86,0,0,1,144.27,82a9,9,0,0,1-3.56-5.89A29,29,0,0,1,140.06,71.88Z" style="fill:#f3f9f8"/><path d="M67.57,170.5c-.27-2.44.67-5,1.08-7.64.15-.95,0-1.37-1-1.55-2.9-.51-4.22-2-4.39-4.84a28.73,28.73,0,0,1,1.54-10.35A51.28,51.28,0,0,1,68.66,137a46.43,46.43,0,0,1,3.69-5.71,57,57,0,0,1,5.72-6.63,54.81,54.81,0,0,1,6.44-5.53,26.65,26.65,0,0,1,5.35-3.21c.12,0,.22-.17.34-.21,1.43-.51,3-.85,4.24.06s.79,2.21.72,3.47a6.67,6.67,0,0,1-2.47,4.58c-3.41,3.08-6.49,6.48-9.58,9.86-2.24,2.46-4.37,5-6.48,7.58-.39.47-1.1,1.25-.35,1.85a1.61,1.61,0,0,0,2.27-.37c2-2.09,4-4.16,6.05-6.23.75-.77,1.53-1.76,2.72-1.25A3.19,3.19,0,0,1,89.06,138a9.65,9.65,0,0,1-.7,5c-.15.35-.4.78,0,1.12s.78.15,1.13,0a10.21,10.21,0,0,1,1.66-.5c1.41-.48,2.5-.41,3.09,1.25.24.68.75,1,1.34.13a14.88,14.88,0,0,1,7-6c3.16-1.13,4.82-3.67,7.06-5.69,3.17-2.86,6.62-4.91,11.1-4.69a3.42,3.42,0,0,1,3.25,1.88c.61,1.18,1.19,1.21,1.8,0a19.73,19.73,0,0,1,3-3.73c1.06-1.26,2.13-1.33,3.88-.1a1.25,1.25,0,0,0,2-.26,15.85,15.85,0,0,1,5.36-4.28,2.3,2.3,0,0,1,.35-.19c.72-.18,1.49-.67,2.16-.09s.28,1.36.07,2c-.7,2.15-1.46,4.28-2.34,6.37a3.82,3.82,0,0,1-1.41,1.72,15.4,15.4,0,0,0-4.52,4.65,21.6,21.6,0,0,0-3,6.74A118,118,0,0,0,129.4,156a4,4,0,0,1-2,3.27c-1.27.73-2.25.18-2.46-1.27a73.79,73.79,0,0,1-1.17-8.87c0-.49,0-1.22-.56-1.4s-.9.52-1.14.94c-1.44,2.5-3.86,4.15-5.54,6.42a18.72,18.72,0,0,0-3.63,11.07,23.58,23.58,0,0,1-.72,6.62,4.06,4.06,0,0,1-.51,1.23c-.64.86-1.41,1.9-2.49,1.77-.88-.1-.93-1.36-1.29-2.15a15.67,15.67,0,0,1-1-7.08c0-1.27-.39-1.85-1.78-1.78a11.07,11.07,0,0,1-6-1.08c-2.16-1.15-3.5-3.09-4.9-5-1.78-2.42-1.54-2.66-4.05-.31a54,54,0,0,0-7.94,9.95,48,48,0,0,0-4.32,8.36,7.72,7.72,0,0,1-3.13,3.57c-2,1.26-3.73.14-5.28-1.92C67.76,176.16,67.49,173.5,67.57,170.5Zm39.52-22.21h.06c0-1,0-2,0-3.07,0-.79-2.13-2.64-3-2.48s-.42,1.11-.69,1.66a5,5,0,0,1-.31.73,44,44,0,0,1-4.86,5.76c-.71.71-1,1.27-.19,2.24,2.23,2.64,4.31,5.41,6.45,8.13.37.47.59,1.27,1.36,1s.63-1,.65-1.6Q106.84,154.49,107.09,148.29ZM88.2,150.07c-.36-1.62-1.12-2.91-2.54-2.36a6.32,6.32,0,0,0-1.71,1c-4,3.29-5.35,8-6.92,12.67a.57.57,0,0,0,.24.71c.33.15.42-.2.57-.41a8.89,8.89,0,0,1,.91-1.14c3-2.89,5.55-6.22,8.67-9A2,2,0,0,0,88.2,150.07Zm28.07-6.31a9,9,0,0,0,3.32-5.14c.2-.65.2-1.26-.46-1.62s-1.24.05-1.59.56A8.76,8.76,0,0,0,116.27,143.77Z" style="fill:#ef3c37"/><path d="M159.36,140.93a2,2,0,0,0-1.49.71,64.23,64.23,0,0,0-6.81,7.07c-2,2.3-3.74,4.85-5.64,7.25a25.55,25.55,0,0,1-2.76,3.06c-1.63,1.49-3.29,1.07-4.56-.71s-2.35-3.72-1.66-6c.74-2.51,1.59-5,2.4-7.49.23-.7.68-1.37-.34-1.91a1.68,1.68,0,0,1-.62-1.14,12,12,0,0,1,1.49-8c1.21-2.06,2.49-4.1,3.87-6.05,1.69-2.39,3.49-4.7,5.3-7a1.21,1.21,0,0,1,2.13,0,2.76,2.76,0,0,0,.45.49c2.09,1.61,2.12,1.85.58,3.91-2.1,2.8-3.56,6-5.71,8.79-.25.32-.43.77,0,1.07s.74,0,1-.36c.8-1,1.57-1.93,2.41-2.85.5-.55,1-1.2,1.93-.87s.94,1.26,1.14,2.09c.63,2.61-1.44,3.81-2.76,5.34a19.25,19.25,0,0,0-2.47,3.62c-.18.34-.29.69.09.95s.6,0,.82-.24a54.66,54.66,0,0,1,6.94-5.61c1.06-.74,2.17-1.39,3.27-2s1.57-.32,1.62.91,0,2.37,0,3.62a8.26,8.26,0,0,0,1.92-2.53c.76-1.36,1.5-2.72,2.38-4a4.23,4.23,0,0,0,.45-1.1,1.1,1.1,0,0,0-.17-1.25c-.42-.37-.83,0-1.23.15a7.79,7.79,0,0,1-4.32,1.16,3.06,3.06,0,0,1-3-3.25,11.42,11.42,0,0,1,1.26-4.61c1.8-4.41,5.19-7.57,8.52-10.78a11.37,11.37,0,0,1,2.8-2c1.29-.65,2.13-.14,2.39,1.27a4.72,4.72,0,0,1-1.45,4c-1.34,1.6-2.73,3.16-4.11,4.73a2.13,2.13,0,0,0-.6,1c-.12.73.16,1.16.95,1a1.8,1.8,0,0,0,1.26-.69,2.93,2.93,0,0,1,2.6-1.37,1,1,0,0,0,1-.61c.33-1.22,1.19-2.16,1.6-3.35a10.48,10.48,0,0,1,1.66-2.37,79.89,79.89,0,0,1,7.95-9.3c.91-.93,1.55-.9,1.94.31.68,2.12,1,4.16-.78,6.11a22.93,22.93,0,0,0-2.53,4.21c-.13.22-.3.5-.09.74s.58.1.85,0c.68-.34,1.37-.65,2-1,2-1.15,3.45-.67,4.2,1.47a12,12,0,0,1,.25,7.13A32.63,32.63,0,0,1,184,134c-1,1.6-2,3.27-3.1,4.79a4.65,4.65,0,0,1-4.16,2c-1-.06-2,0-2.94,0-1.61-.1-2.28-1.45-1.25-2.71,2.47-3,4.14-6.52,6.38-9.67a15.91,15.91,0,0,0,1.29-2.48.77.77,0,0,0-.09-1c-.28-.24-.58-.12-.88,0a2.57,2.57,0,0,0-1,.61c-.45.36-.89.9-1.4,1-3.65.65-3.64,3.87-4.58,6.41a9.81,9.81,0,0,1-.57,1.47c-1.5,2.67-3,5.35-4.49,8-1.1,1.93-5.11,3-6.95,1.88C158.93,143.45,159,142.21,159.36,140.93Z" style="fill:#ef3c37"/><path d="M153.87,127.64c-.18.38.21,1.1-.61,1.17-.29,0-.71-.1-.6-.5.15-.57.22-1.33.83-1.53C153.89,126.65,153.8,127.27,153.87,127.64Z" style="fill:#035940"/><path d="M154.84,132.86c.34.16.74.21.82.61,0,0-.19.2-.29.19C154.88,133.63,155.05,133.11,154.84,132.86Z" style="fill:#035940"/><path d="M167.25,71.64c-.09-4.1,1.18-7.27,4.46-9.42a4.24,4.24,0,0,1,5.27.49c3.85,3.43,4.4,7.79,3.24,12.43-.65,2.59-1.91,5-4.76,6a5.33,5.33,0,0,1-5.83-2A11.26,11.26,0,0,1,167.25,71.64Z" style="fill:#035940"/><path d="M130.17,66.25A5,5,0,0,1,126,70.82c-.73.1-1.16,0-1.14-1,.05-2.36,0-4.72,0-7.08,0-.83.36-1.09,1.16-1A4.57,4.57,0,0,1,130.17,66.25Z" style="fill:#035940"/><path d="M101.46,73.91c-1.92,0-2-.13-1.53-2a18.56,18.56,0,0,0,1-3c0-.23.13-.45.39-.46a.58.58,0,0,1,.6.44,38.76,38.76,0,0,0,1.53,4.48c.17.37-.17.56-.51.58S101.94,73.91,101.46,73.91Z" style="fill:#035940"/><path d="M107.09,148.29q-.26,6.2-.51,12.4c0,.61.06,1.39-.65,1.6s-1-.56-1.36-1c-2.13-2.72-4.22-5.49-6.45-8.13-.82-1-.53-1.53.19-2.24a44,44,0,0,0,4.86-5.76,5,5,0,0,0,.31-.73c.27-.55-.16-1.5.69-1.66s2.94,1.69,3,2.48c0,1,0,2,0,3.07Zm-2.53,3.29h0c0-.89,0-1.78,0-2.67a.62.62,0,0,0-.37-.65c-.24-.08-.42.06-.55.27a13.75,13.75,0,0,1-2.34,2.79c-.48.45-.69,1-.17,1.5a21.23,21.23,0,0,1,1.84,2.57c.22.27.32.71.76.59a.92.92,0,0,0,.61-.93C104.46,153.89,104.5,152.74,104.56,151.58Z" style="fill:#f3f9f8"/><path d="M88.2,150.07a2,2,0,0,1-.78,1.48c-3.12,2.78-5.67,6.11-8.67,9a8.89,8.89,0,0,0-.91,1.14c-.15.2-.23.56-.57.41a.57.57,0,0,1-.24-.71C78.6,156.77,80,152,84,148.73a6.32,6.32,0,0,1,1.71-1C87.08,147.17,87.83,148.46,88.2,150.07Z" style="fill:#f3f9f8"/><path d="M116.27,143.77a8.76,8.76,0,0,1,1.27-6.21c.35-.5.89-.95,1.59-.56s.66,1,.46,1.62A9,9,0,0,1,116.27,143.77Z" style="fill:#f3f9f8"/><path d="M104.56,151.58c-.06,1.16-.1,2.31-.17,3.47a.92.92,0,0,1-.61.93c-.44.12-.54-.32-.76-.59a21.23,21.23,0,0,0-1.84-2.57c-.52-.48-.31-1.05.17-1.5a13.75,13.75,0,0,0,2.34-2.79c.13-.21.3-.35.55-.27a.62.62,0,0,1,.37.65c0,.89,0,1.78,0,2.67Z" style="fill:#fdef2a"/></svg>