<svg xmlns="http://www.w3.org/2000/svg" viewBox="0 0 250 250"><title>CR</title><path d="M119.74,187.5H63.42a16.51,16.51,0,0,1-15.75-11.14c-2.59-7.6-4.35-15.44-6.55-23.15-.86-3-1.63-6-2.49-9a15.85,15.85,0,0,1,.78-11C48.21,113,57,92.69,66,72.51c2.87-6.46,8.31-9.86,15.29-9.9q37.79-.23,75.59,0c7.15,0,12.65,3.37,15.67,10,8.35,18.46,16.6,37,24.89,55.46.68,1.52,1.32,3.06,2.06,4.55a15.47,15.47,0,0,1,.88,11.1c-2.81,10.79-5.78,21.54-8.74,32.29-1.73,6.29-8.68,11.46-15.24,11.46Zm-.14-5.92h56.46a11.15,11.15,0,0,0,10.12-7.6c2.66-9.68,5.23-19.39,7.86-29.08,1-3.76,1.77-7.46-.25-11.18-2.78-5.11-5-10.5-7.36-15.79-6.4-14.18-12.71-28.41-19.16-42.57-2-4.4-5.46-6.9-10.49-6.9H117.47c-11.84,0-23.68-.08-35.52,0-5.17.05-9.05,2.4-11.19,7.35-3.43,7.93-6.94,15.82-10.42,23.74L45.06,134.42a12.1,12.1,0,0,0-.72,9c.74,2.25,1.23,4.58,1.86,6.86,2.28,8.32,4.44,16.67,7.26,24.83a8.92,8.92,0,0,0,3.68,4.67,11.7,11.7,0,0,0,6.61,1.84Q91.67,181.56,119.6,181.58Z" style="fill:#16499d"/><path d="M212,182a5.45,5.45,0,1,1-10.9,0,5.45,5.45,0,0,1,10.9,0Zm-.85,0A4.58,4.58,0,1,0,202,182a4.58,4.58,0,1,0,9.16.08Z" style="fill:#16499d"/><path d="M144.93,109.1c-.79.4-.88,1-1.12,1.47Q136,126,128.33,141.52a2.06,2.06,0,0,1-2.16,1.39q-6.9-.11-13.81,0a2,2,0,0,1-2-1.31Q102.43,126,94.46,110.49a1.68,1.68,0,0,0-.94-1.06c-.17,1.79-.36,3.5-.51,5.22-.74,9-1.49,17.94-2.19,26.92-.08,1.06-.48,1.32-1.49,1.32-7.59,0-15.18,0-22.77,0-2.47,0-2.24.21-1.57-2.06q8.17-27.47,16.38-54.93c.42-1.41.87-2.8,1.24-4.22a1.32,1.32,0,0,1,1.49-1.15c6.48,0,13,0,19.43,0,1,0,1.25.61,1.54,1.33q6.52,16.35,13.06,32.69a8.58,8.58,0,0,0,.4,1c.21.38.15,1.06.69,1.07s.53-.66.68-1.06q4.94-12.65,9.85-25.31c1.1-2.83,2.24-5.64,3.28-8.49a1.61,1.61,0,0,1,1.77-1.22c6.27,0,12.55,0,18.82,0A1.67,1.67,0,0,1,155.51,82q5.39,17.7,10.85,35.39Q170,129.15,173.64,141c.59,1.91.59,1.91-1.34,1.91-7.59,0-15.18,0-22.77,0-1.29,0-1.73-.32-1.84-1.63-.8-10-1.67-20.06-2.53-30.09C145.12,110.54,145,109.9,144.93,109.1Z" style="fill:#ed1b3b"/><path d="M68.72,158.92c.46-2.22.95-4.43,1.35-6.66.2-1.14.7-1.56,1.91-1.56,3.94,0,3.88,0,4.3,3.86s1,7.72,1.46,11.58c.24,1.92.25,1.92-1.63,1.92a2.4,2.4,0,0,0-.45,0c-1.59.31-1.93-.5-2-1.92-.2-2.76-.62-5.51-1.08-8.28-.83,1.4-.76,3-1.08,4.52s-.5,3-.67,4.5c-.1.86-.4,1.19-1.33,1.2-3.22,0-3.21.07-3.68-3.09-.31-2-.65-4.09-1-6.13a1.36,1.36,0,0,0-.63-1.14c-.32,2.82-.67,5.56-.94,8.3-.21,2.06-.17,2.07-2.19,2.07-.46,0-.91,0-1.37,0-.7,0-.81-.25-.72-.92q1.05-7.5,2-15c.13-1,.55-1.44,1.66-1.45,3.86,0,3.86-.09,4.66,3.63.33,1.55.68,3.1,1,4.65Z" style="fill:#16499d"/><path d="M169.7,158.83c0,2.62-.06,5.24,0,7.86,0,1.17-.37,1.58-1.47,1.4-.9-.15-2.21.59-2.18-1.32.07-4.9,0-9.8,0-14.71,0-1,.35-1.3,1.32-1.35,4.24-.19,4.24-.21,5.28,3.88.53,2.09,1.08,4.17,1.62,6.25l.41,0q0-2,0-3.92c0-1.72,0-3.44,0-5.15,0-.79.22-1.07,1-1,3.32.13,2.74-.43,2.76,2.69,0,4.45,0,8.9,0,13.34,0,1-.29,1.38-1.36,1.39-4.31,0-4.31.06-5.47-4-.5-1.77-1-3.54-1.54-5.31Z" style="fill:#16499d"/><path d="M107,168c-4,.26-4,.26-5.24-3.26-.25-.72-.48-1.44-.72-2.15-.15-.46-.36-.88-.93-.82s-.61.58-.62,1c0,1.41,0,2.83,0,4.24,0,.76-.28,1.07-1.08,1-3.51-.09-2.85.45-2.88-2.68,0-4.39,0-8.79,0-13.18,0-1.24.46-1.61,1.57-1.6a38,38,0,0,1,6.19.28,4,4,0,0,1,2.39,1.16c1.88,2,1.69,7.15-.44,8.88-.68.55-.51,1-.3,1.55C105.58,164.26,106.26,166,107,168Zm-7.57-11.64c.35.86-.72,2.43,1.33,2.39,1.42,0,2.12-.75,2.11-2.32s-.7-2.26-2.14-2.32C98.77,154,99.76,155.52,99.43,156.35Z" style="fill:#16499d"/><path d="M134.89,159.38c0-2.48,0-5,0-7.43,0-.86.15-1.27,1.15-1.25,3.67.09,2.92-.23,3,3,0,.56,0,1.12,0,1.67.07.73-.39,1.73.31,2.12a5.09,5.09,0,0,0,3.12.13c.63-.08.52-.69.53-1.1,0-1.51.08-3,0-4.55,0-.89.2-1.26,1.17-1.24,3.54.07,2.85-.35,2.89,2.7,0,4.34,0,8.69,0,13,0,1.21-.25,1.69-1.58,1.64-2.49-.09-2.49,0-2.49-2.47q0-.91,0-1.82c0-2.44-1.06-3.19-3.42-2.5-.62.18-.6.59-.61,1,0,1.52,0,3,0,4.55,0,.77-.13,1.16-1.07,1.19-3.08.08-3.08.13-3.08-2.95Q134.89,162.26,134.89,159.38Z" style="fill:#16499d"/><path d="M149.92,159.45c.07-1.19.06-2.41.21-3.61.47-3.8,3.13-5.88,7-5.51s5.54,2.18,5.9,5.89A37.56,37.56,0,0,1,163,162c-.3,5.25-3.16,6.89-8.06,6.28-3.05-.38-4.51-2.1-4.87-5.3C150,161.81,150,160.64,149.92,159.45Zm4,.07a16.62,16.62,0,0,0,.33,3.67,2.29,2.29,0,0,0,2.34,2,2.21,2.21,0,0,0,2.23-1.91,17,17,0,0,0,0-7.51,2.23,2.23,0,0,0-2.25-1.9,2.29,2.29,0,0,0-2.32,2A16,16,0,0,0,153.89,159.52Z" style="fill:#16499d"/><path d="M86.21,150.73c3.12,0,3.11,0,3.77,3.05.93,4.3,1.83,8.6,2.84,12.88.29,1.24-.06,1.55-1.21,1.42a5,5,0,0,0-1.36,0c-1.18.19-1.69-.35-1.69-1.47,0-1.32-.67-1.78-1.93-1.58a4.16,4.16,0,0,1-1.21,0c-1.1-.16-1.53.32-1.66,1.39-.06.54.07,1.47-.6,1.57a14.26,14.26,0,0,1-3.46,0c-.4,0-.26-.58-.19-.92,1.06-5,2.13-10.08,3.15-15.13.17-.84.55-1.24,1.42-1.19C84.79,150.76,85.5,150.73,86.21,150.73Zm-.2,3.78c-.39,1.91-.8,3.82-1.14,5.74-.09.49-.51,1.21.11,1.49a4.19,4.19,0,0,0,2.38.12c.31-.05.28-.38.24-.63A28.83,28.83,0,0,0,86,154.51Z" style="fill:#16499d"/><path d="M119.64,168.07c-1.34.37-2.12-.26-2.11-1.92,0-.91-.51-1.23-1.38-1.13a4.18,4.18,0,0,1-1.21,0c-1.48-.27-2.2.37-2.2,1.82,0,1.28-.83,1.24-1.75,1.24-2.62,0-2.63,0-2.1-2.52.95-4.55,1.92-9.1,2.83-13.66.17-.86.48-1.22,1.38-1.18,1.31.06,2.63.06,3.94,0,1,0,1.43.33,1.63,1.32,1,4.9,2.06,9.79,3.2,14.66.3,1.27-.11,1.52-1.22,1.38A9.65,9.65,0,0,0,119.64,168.07Zm-4.23-13.42-.42,0-1.22,6.36c-.18,1,.58.82,1.06.82s1.8.41,1.75-.46A28.21,28.21,0,0,0,115.4,154.65Z" style="fill:#16499d"/><path d="M125.42,161.17c0-1.77-.06-3.54,0-5.3.05-1.17-.3-1.6-1.53-1.57-2.27.06-2.7-.59-2.25-2.89.12-.63.47-.68,1-.68,3.18,0,6.36,0,9.55,0,.7,0,1,.26,1,1,.21,2.51.15,2.66-2.4,2.61-1.19,0-1.43.4-1.42,1.49.06,3.59,0,7.17,0,10.76,0,1.13-.23,1.62-1.5,1.55-2.76-.16-2.45.45-2.48-2.53C125.4,164.1,125.42,162.64,125.42,161.17Z" style="fill:#16499d"/><path d="M204.51,182q0-.23,0-.45c0-2.66.59-3.1,3.25-2.47.58.14,1.07.36,1.16,1s.27,1.5-.39,1.8c-1.33.6-.64,1.19-.23,1.92.21.36,1,.81.35,1.2s-.71-.52-1-.86c-.55-.59-.6-1.87-1.66-1.7s-.44,1.33-.65,2c-.07.23,0,.54-.37.56s-.43-.33-.43-.62C204.5,183.59,204.51,182.79,204.51,182Zm2-.31c.73-.05,1.64.06,1.58-1.07,0-1-.86-.94-1.56-1s-1.23.07-1.24,1S205.74,181.74,206.52,181.67Z" style="fill:#16499d"/></svg>