<svg xmlns="http://www.w3.org/2000/svg" viewBox="0 0 250 250"><title>Grocery</title><path d="M66.76,96.29c0,.13.16.08.24.08a30.26,30.26,0,0,1,6.93,1.35,29.31,29.31,0,0,1,19.39,20.9,29.27,29.27,0,0,1-22,35.44,25.68,25.68,0,0,1-4.37.62,6.61,6.61,0,0,1-.82.06h-2.3a6.63,6.63,0,0,1-.86-.06,26.88,26.88,0,0,1-4.72-.7,29.28,29.28,0,0,1-21.42-20.52,28,28,0,0,1-1-5.37c-.06-.67-.13-1.33-.17-2v-1.8a1.92,1.92,0,0,0,.13-.77,28.31,28.31,0,0,1,.61-4.3A29.31,29.31,0,0,1,55.3,97.94a31,31,0,0,1,9-1.64Zm-.34,46.09c0,.65,0,1.3,0,1.94.12,2.56.39,5.12.55,7.68,0,.18.05.28.25.24h.14a26.3,26.3,0,0,0,4.73-.86,26.81,26.81,0,0,0,19.61-24.23,25.46,25.46,0,0,0-.62-7.57A26.48,26.48,0,0,0,77.5,101.83a26.91,26.91,0,0,0-18.8-2.4,26.88,26.88,0,0,0-20.57,24.91,25.77,25.77,0,0,0,.47,6.33,26.86,26.86,0,0,0,20.77,21.09,22.37,22.37,0,0,0,3.23.47c.25,0,.25,0,.27-.24.07-.82.14-1.65.19-2.47.11-1.47.24-2.94.32-4.41a35.24,35.24,0,0,0,0-5.53,6.43,6.43,0,0,0-1.18-3.27c-.31-.42-.63-.84-1-1.25-.8-1-1.64-1.88-2.35-2.91a9.34,9.34,0,0,1-1.5-3.17,13.06,13.06,0,0,1-.29-3.68,15.69,15.69,0,0,1,1.39-5.73,11.74,11.74,0,0,1,2.89-4A6.65,6.65,0,0,1,64,114a3.4,3.4,0,0,1,1.84,0,6.9,6.9,0,0,1,3,1.78,12.11,12.11,0,0,1,2.62,3.88,15.9,15.9,0,0,1,1.31,5.24,14,14,0,0,1-.18,3.62A9.11,9.11,0,0,1,71,132.09a30.34,30.34,0,0,1-1.95,2.45,21.31,21.31,0,0,0-1.55,2,5.82,5.82,0,0,0-.93,2.32A17.94,17.94,0,0,0,66.42,142.38Z" style="fill:#f18a05"/><path d="M123.72,122.37a12.89,12.89,0,0,0,1-1.64c1-1.85,1.83-3.78,2.69-5.69,1.06-2.35,2.11-4.7,3.38-7a22.75,22.75,0,0,1,2.66-3.88,7.43,7.43,0,0,1,2.33-1.84,4.25,4.25,0,0,1,3.21-.32,3.4,3.4,0,0,1,.75.35.28.28,0,0,1,.13.38q-.5,1.65-1,3.31c-1.2,4.17-2.34,8.35-3.31,12.58-.43,1.9-.83,3.82-1.1,5.75a13.13,13.13,0,0,0-.17,2.24.74.74,0,0,0,.39,0,4.37,4.37,0,0,0,1.72-1,9.52,9.52,0,0,0,1.35-1.54,20.43,20.43,0,0,0,1.36-2.2,3,3,0,0,0,.21-.57,16.42,16.42,0,0,1,3.4-6.15,8.59,8.59,0,0,1,3.31-2.41,5.21,5.21,0,0,1,2.5-.33,3.05,3.05,0,0,1,1.81.87,3.49,3.49,0,0,1,.26.31.43.43,0,0,0,.22-.2,2.9,2.9,0,0,1,2.14-1.17,5.38,5.38,0,0,1,2.27.28c.25.08.25.09.17.33-1.15,3.27-2.05,6.61-2.88,10-.36,1.45-.68,2.92-.95,4.39,0,.15,0,.31-.06.47.16.07.27,0,.38-.07a4.43,4.43,0,0,0,1.14-.87,16,16,0,0,0,2.26-3c.22-.37.43-.75.64-1.13.06-.11.09-.26.27-.23a.42.42,0,0,1,.38.28.85.85,0,0,1,0,.36,3.42,3.42,0,0,1-.26,1,11.28,11.28,0,0,1-3.42,4.64,4.92,4.92,0,0,1-2.19,1,2.94,2.94,0,0,1-1,0,1.86,1.86,0,0,1-1.35-.92,4.49,4.49,0,0,1-.56-1.81,11.3,11.3,0,0,1-.07-1.53c-.15,0-.17.17-.22.27a12.38,12.38,0,0,1-2,2.64,4.22,4.22,0,0,1-2.11,1.24,3.75,3.75,0,0,1-3.69-1.06,4.31,4.31,0,0,1-1-2.27,7.8,7.8,0,0,1-.09-1.2c-.06,0-.09,0-.11,0a10.46,10.46,0,0,1-3,3,7.75,7.75,0,0,1-2.45,1.18,3.31,3.31,0,0,1-1.46.08,2.1,2.1,0,0,1-1.39-.95,4.19,4.19,0,0,1-.62-1.71,10.13,10.13,0,0,1,0-2.48,69.21,69.21,0,0,1,1.94-10.38c.52-2.15,1.11-4.29,1.71-6.43a.59.59,0,0,0,0-.33,1,1,0,0,0-.28.32,33.84,33.84,0,0,0-2.73,4.65c-1.07,2.13-2,4.32-3,6.49a52.16,52.16,0,0,1-2.71,5.23,17.16,17.16,0,0,1-3.94,4.59,5.53,5.53,0,0,1-2.35,1.19,2.6,2.6,0,0,1-1.32-.06c-.3-.1-.31-.12-.21-.44.56-1.78,1.13-3.56,1.68-5.35,1.78-5.76,3.51-11.53,5.32-17.28l.61-1.92a.21.21,0,0,0,0-.19,1,1,0,0,0-.38.3,18.22,18.22,0,0,0-2.7,3.4,57.44,57.44,0,0,0-3.94,7.47c-.73,1.61-1.4,3.23-2.26,4.78a27.89,27.89,0,0,1-3.87,5.53,13,13,0,0,1-3.51,2.78,7.37,7.37,0,0,1-5.61.58,4.57,4.57,0,0,1-1-.4,3.61,3.61,0,0,1-1.93-3.09,3.39,3.39,0,0,1,.26-1.69,2.91,2.91,0,0,1,3.4-1.56,2,2,0,0,1,1.49,2.39A3.26,3.26,0,0,1,103,127a5.91,5.91,0,0,1-1.29.67,2.18,2.18,0,0,0,.76.46,3.84,3.84,0,0,0,2.16.11,6.26,6.26,0,0,0,3.19-1.77,14.67,14.67,0,0,0,2.21-2.83,52.45,52.45,0,0,0,2.65-5c1.09-2.25,2.15-4.53,3.38-6.71a29.17,29.17,0,0,1,3.53-5.11,15.4,15.4,0,0,1,4.21-3.38l.12-.07s0-.06,0-.06c-1.8,0-3.6-.11-5.4-.09a18.93,18.93,0,0,0-3.82.36,6.48,6.48,0,0,0-1.91.71,3.14,3.14,0,0,0-1.65,2.84,6.38,6.38,0,0,0,.61,2.86,3.28,3.28,0,0,0,2,1.88,1.3,1.3,0,0,1-1.6.9,2,2,0,0,1-1.21-.79,4.6,4.6,0,0,1-.81-1.9,7.46,7.46,0,0,1,1.37-6.33,8.36,8.36,0,0,1,4.17-2.82,12,12,0,0,1,4.94-.47c1.55.15,3.07.5,4.61.78a20.8,20.8,0,0,0,4.69.38c.58,0,.66.09.48.65l-4.76,14.33L123.76,122c0,.11-.07.23-.1.34s-.07.11,0,.15S123.71,122.41,123.72,122.37Zm20,3c0,.13,0,.26,0,.4a3.51,3.51,0,0,0,.15,1.1c.19.55.49.69,1,.46a2.86,2.86,0,0,0,.88-.61A9.17,9.17,0,0,0,148,123a1.92,1.92,0,0,0,.07-.35c.12-.82.29-1.63.48-2.43a48.28,48.28,0,0,1,1.58-5.3.35.35,0,0,0-.12-.46,1.73,1.73,0,0,0-2.69.12,6.83,6.83,0,0,0-1.11,1.59,21.13,21.13,0,0,0-1.79,4.84A19.19,19.19,0,0,0,143.76,125.33Z" style="fill:#e84b37"/><path d="M177.11,122a19.28,19.28,0,0,0-.64,1.89,24.49,24.49,0,0,0-1,4.6c0,.12,0,.2-.16.25a7.65,7.65,0,0,1-2.89.65h-.14a1.42,1.42,0,0,1-1.34-1.2,3.56,3.56,0,0,1,0-1.39c.31-1.75.74-3.47,1.15-5.19,1.2-4.95,2.5-9.87,3.73-14.81.12-.5.24-1,.37-1.5a.54.54,0,0,0,0-.29,1.79,1.79,0,0,0-.87.11,6.47,6.47,0,0,0-2.51,1.5A14.46,14.46,0,0,0,170.2,110c-.3.5-.58,1-.83,1.55a.64.64,0,0,0-.12.36l.44.1a3.2,3.2,0,0,1,2.38,4.18,2.86,2.86,0,0,1-3,2,3,3,0,0,1-.46-.06,1.9,1.9,0,0,1-1.46-1.34,4.08,4.08,0,0,1-.11-1.85c0-.37.14-.73.22-1.09,0-.07,0-.14,0-.22a1,1,0,0,0-.36.28,9.63,9.63,0,0,0-1.76,2.53,29.76,29.76,0,0,0-2,5.19,56.94,56.94,0,0,0-1.59,6.82.36.36,0,0,1-.26.34,13.25,13.25,0,0,1-1.93.56,3.81,3.81,0,0,1-.68.05,1.45,1.45,0,0,1-1.59-1.52,6.18,6.18,0,0,1,.11-1.4c.36-2.15,1-4.26,1.5-6.37.42-1.6.87-3.19,1.23-4.8a2.43,2.43,0,0,0,.1-.73,1.63,1.63,0,0,0-.77.28A5.41,5.41,0,0,0,158,116a9.1,9.1,0,0,0-1.05,1.54c-.06.11-.07.28-.26.25a.49.49,0,0,1-.39-.28.68.68,0,0,1,0-.32,2.12,2.12,0,0,1,.25-.86,8.14,8.14,0,0,1,2.2-2.68,6.51,6.51,0,0,1,2.55-1.36,3.6,3.6,0,0,1,1.88,0,1.92,1.92,0,0,1,1.51,2.17c0,.13,0,.26,0,.41.13,0,.17-.15.22-.23a8.92,8.92,0,0,1,1.47-1.67,4.27,4.27,0,0,1,1.24-.78.6.6,0,0,0,.36-.36,20.22,20.22,0,0,1,4.41-6.39,12.58,12.58,0,0,1,2.78-2.09,7.1,7.1,0,0,1,3-.92,3.54,3.54,0,0,1,1,.07,2,2,0,0,1,1.6,2,10.31,10.31,0,0,1-.18,2.22,58.64,58.64,0,0,1-1.79,7c-.35,1.17-.71,2.34-1.07,3.51,0,.11-.1.22-.05.35.14,0,.18-.19.25-.29a12.3,12.3,0,0,1,3.93-3.84,7.44,7.44,0,0,1,2.67-1,3.73,3.73,0,0,1,1.43,0,2.35,2.35,0,0,1,1.86,2.19,4.3,4.3,0,0,1-.65,2.54,7.21,7.21,0,0,1-3.1,2.76,10.54,10.54,0,0,1-2.58.87c-.07,0-.15,0-.19.07a.09.09,0,0,0,.05.09,4.82,4.82,0,0,1,1.65,1.91,16.16,16.16,0,0,1,.87,2.09,10.77,10.77,0,0,0,.51,1.27c.33.65.64.71,1.2.23a6.65,6.65,0,0,0,1-1.19,24.93,24.93,0,0,0,1.62-2.59,1.43,1.43,0,0,0,.16-.51,12.72,12.72,0,0,1,7.21-9.6,6.67,6.67,0,0,1,3-.62,4.28,4.28,0,0,1,.85.12,3,3,0,0,1,2.37,2.78,6.11,6.11,0,0,1-.59,3.18,7.74,7.74,0,0,1-5,4.39,7.22,7.22,0,0,1-2.81.22h-.11c-.18,0-.25,0-.28.21a12.32,12.32,0,0,0-.13,2.19,5.27,5.27,0,0,0,.16,1.1,3.06,3.06,0,0,0,.2.57,1.9,1.9,0,0,0,2.56,1,4.35,4.35,0,0,0,1.27-.87,12.64,12.64,0,0,0,1.73-2.06,23.74,23.74,0,0,0,1.46-2.4c.06-.11.08-.26.27-.24a.45.45,0,0,1,.41.35,1.39,1.39,0,0,1,0,.57,5.52,5.52,0,0,1-.39,1.16,10.53,10.53,0,0,1-3.25,4.19,6.44,6.44,0,0,1-4,1.36,4.84,4.84,0,0,1-4.66-3.27,6.33,6.33,0,0,1-.3-1.11.57.57,0,0,0-.1-.3l-.2.34a11.57,11.57,0,0,1-3.21,3.55,4.7,4.7,0,0,1-1.24.64,2.35,2.35,0,0,1-2.68-.77,5.94,5.94,0,0,1-.77-1.26c-.35-.72-.63-1.48-.94-2.22a11.34,11.34,0,0,0-1.43-2.61A5.35,5.35,0,0,0,177.11,122Zm16.07-.28a3.61,3.61,0,0,0,2.33-.63,5.18,5.18,0,0,0,1.45-1.57,10.37,10.37,0,0,0,1.37-3.83,8.32,8.32,0,0,0,.14-1.54.78.78,0,0,0-1.06-.76,1.47,1.47,0,0,0-.53.3,4.19,4.19,0,0,0-.62.65,10,10,0,0,0-.83,1.26,22.35,22.35,0,0,0-1.92,4.72A10,10,0,0,0,193.18,121.74Zm-15.48-1.21a.36.36,0,0,0,.22,0l.43,0a7,7,0,0,0,3.21-1.45,5.23,5.23,0,0,0,1.56-1.9,3.34,3.34,0,0,0,.33-1.67.73.73,0,0,0-.88-.76,2.65,2.65,0,0,0-1.12.36,5.06,5.06,0,0,0-1.35,1.17,16.47,16.47,0,0,0-2.39,4.16A.33.33,0,0,0,177.7,120.53Zm-.1-2.87s0,0,0-.05h0a.11.11,0,0,0,0,.06S177.59,117.69,177.6,117.66Z" style="fill:#e84b37"/><path d="M146.14,143.1l.57.67c1,1.2,2,2.43,3.1,3.6a12.84,12.84,0,0,0,2.39,2.07,6.54,6.54,0,0,0,2.36,1c.26,0,.25.06.26.32,0,.07,0,.14,0,.22s-.06.15-.16.15h-.22c-1.44,0-2.88,0-4.32,0a.65.65,0,0,1-.59-.31l-5.61-7.48a.58.58,0,0,0-.56-.28,7.38,7.38,0,0,1-.86,0c-.18,0-.24.07-.22.23a1.06,1.06,0,0,1,0,.11q0,2.05,0,4.1a7.38,7.38,0,0,0,.14,1.5,1.57,1.57,0,0,0,1.48,1.39,7,7,0,0,0,1,.08c.27,0,.27,0,.27.29,0,.07,0,.14,0,.22s-.06.15-.16.14h-7.92c-.14,0-.2-.05-.19-.19s0-.12,0-.18c0-.27,0-.28.28-.28a5.5,5.5,0,0,0,1.32-.15,1.47,1.47,0,0,0,1.1-1.07,5.87,5.87,0,0,0,.2-1.67q0-5.67,0-11.34a6.91,6.91,0,0,0-.14-1.39,1.56,1.56,0,0,0-1.45-1.37,7,7,0,0,0-1-.08c-.32,0-.32,0-.32-.32s0-.33.34-.33h8a7.93,7.93,0,0,1,3.42.73,4.88,4.88,0,0,1,2.6,2.67,4.81,4.81,0,0,1-1.6,5.63,6.78,6.78,0,0,1-2.9,1.19Zm-3.87-5.17q0,1.87,0,3.74c0,.32,0,.32.31.32H144a11.8,11.8,0,0,0,1.69-.06,3.36,3.36,0,0,0,2.85-2.27,5,5,0,0,0,.17-2.83,3.43,3.43,0,0,0-2-2.58,4.09,4.09,0,0,0-1.71-.34H142.4a.12.12,0,0,0-.13.13c0,.1,0,.19,0,.29Q142.26,136.13,142.26,137.93Z" style="fill:#e84b37"/><path d="M205.83,113.93h-2.92a.39.39,0,0,1-.39-.2.75.75,0,0,1,.53-1.09c.57-.08,1.14-.17,1.7-.3l1-.24a6.68,6.68,0,0,0,3.56-2.42,15.11,15.11,0,0,0,1.39-2.14A4.16,4.16,0,0,1,211,107a.65.65,0,0,1,.89-.2.28.28,0,0,1,.18.37c-.16.64-.29,1.28-.45,1.92-.26,1.06-.52,2.12-.78,3.18-.08.33-.08.33.27.33h1.84c.26,0,.51,0,.63.3a.71.71,0,0,1-.26.74,1.18,1.18,0,0,1-.8.28h-1.84c-.28,0-.29,0-.36.28-1.09,4.1-2.29,8.17-3.3,12.28-.09.38-.17.77-.26,1.17a.45.45,0,0,0,.39-.08,4,4,0,0,0,.93-.67,14.31,14.31,0,0,0,2.19-2.75,18.12,18.12,0,0,0,.92-1.59c.06-.12.09-.28.3-.25a.43.43,0,0,1,.39.37,1.53,1.53,0,0,1,0,.57,6,6,0,0,1-.46,1.28,11.43,11.43,0,0,1-3.07,4,4.91,4.91,0,0,1-2.27,1.11,3.46,3.46,0,0,1-2.37-.38,2.43,2.43,0,0,1-1.2-2.57c.2-1.13.5-2.25.8-3.36q1.21-4.49,2.44-9Z" style="fill:#e84b37"/><path d="M164.55,151.15h-7.27c-.17,0-.25,0-.23-.22a1,1,0,0,0,0-.11c0-.31,0-.32.31-.32a5.83,5.83,0,0,0,1.21-.13,1.49,1.49,0,0,0,1.19-1.16,7,7,0,0,0,.19-1.78q0-4.53,0-9.07c0-1,0-1.92-.06-2.88a4.64,4.64,0,0,0-.15-.85,1.44,1.44,0,0,0-1.1-1.07,5.48,5.48,0,0,0-1.28-.14c-.32,0-.32,0-.32-.32s0-.33.34-.33H170.7c.31,0,.32,0,.34.27q.12,1.72.23,3.45c0,.11.1.28-.11.32s-.5,0-.57-.23-.2-.74-.31-1.11a1.93,1.93,0,0,0-1.57-1.42,5.8,5.8,0,0,0-1.14-.13h-4.86c-.28,0-.29,0-.29.31q0,3.17,0,6.33c0,.28,0,.29.27.29a28.64,28.64,0,0,0,2.88-.07,4,4,0,0,0,.77-.16,1.43,1.43,0,0,0,1-1,5.63,5.63,0,0,0,.15-1.35c0-.1,0-.25.06-.3a1,1,0,0,1,.53,0s.06.07.06.12,0,.19,0,.29q0,3.1,0,6.19c0,.44,0,.43-.44.41-.18,0-.22-.09-.22-.24a6.51,6.51,0,0,0-.05-1,1.69,1.69,0,0,0-1.75-1.66,20,20,0,0,0-2.26-.08h-.83c-.12,0-.18,0-.17.17s0,.12,0,.18q0,2.32,0,4.64a7.51,7.51,0,0,0,.14,1.57,1.55,1.55,0,0,0,1.45,1.37,5.52,5.52,0,0,0,.9.07h3.45a6.25,6.25,0,0,0,1.43-.16,1.91,1.91,0,0,0,1.46-1.3c.14-.4.23-.81.33-1.21,0-.09,0-.24.14-.26a1,1,0,0,1,.5,0c.09,0,.06.15.05.23q0,.86-.1,1.72c0,.61-.08,1.22-.12,1.83,0,.27,0,.28-.29.28h-7.23Z" style="fill:#e84b37"/><path d="M182.62,151.15h-7.05c-.45,0-.46,0-.42-.46,0-.14.07-.19.2-.19a8.46,8.46,0,0,0,.9-.05c1.41-.16,1.59-.89,1.72-1.76a8.17,8.17,0,0,0,.08-1.26q0-5.49,0-11a7.81,7.81,0,0,0-.14-1.57,1.55,1.55,0,0,0-1.45-1.37,7.4,7.4,0,0,0-1-.08c-.26,0-.26,0-.27-.26,0-.07,0-.14,0-.22s0-.18.16-.18h13.57c.19,0,.24.07.25.25.07,1.14.15,2.27.22,3.41,0,.08,0,.17,0,.25s0,.13-.13.13h-.32c-.13,0-.19-.05-.22-.18s-.13-.49-.19-.73l-.09-.31a2.08,2.08,0,0,0-1.88-1.59,8.63,8.63,0,0,0-1.22-.09h-4.5c-.31,0-.31,0-.31.32q0,3.15,0,6.3c0,.31,0,.32.31.32a27.93,27.93,0,0,0,2.84-.07,4.2,4.2,0,0,0,.74-.15,1.44,1.44,0,0,0,1-1,5.71,5.71,0,0,0,.16-1.28c0-.45.08-.48.51-.43.1,0,.15.05.15.15s0,.17,0,.25q0,3.11,0,6.23c0,.42,0,.41-.41.4-.17,0-.23,0-.24-.22a10.31,10.31,0,0,0-.1-1.22,1.55,1.55,0,0,0-1.34-1.36,6,6,0,0,0-1.07-.13l-2.3,0c-.26,0-.27,0-.27.25,0,1.69,0,3.38,0,5.07a5.43,5.43,0,0,0,.19,1.46,1.45,1.45,0,0,0,1.09,1.08,3.8,3.8,0,0,0,.89.13c1.38,0,2.76,0,4.14,0a4.88,4.88,0,0,0,1.17-.18,1.88,1.88,0,0,0,1.34-1.24c.14-.4.23-.8.34-1.21,0-.1,0-.24.13-.28a1.17,1.17,0,0,1,.5,0s.07.06.07.11,0,.14,0,.22c-.07,1.15-.14,2.3-.21,3.45,0,.33,0,.3-.34.3h-7.2Z" style="fill:#e84b37"/><path d="M102.23,148.28q0-1.53,0-3.06c0-.09,0-.2.06-.27a1.32,1.32,0,0,1,.5,0c.07.06.06.15.07.23a7.59,7.59,0,0,0,.4,1.75,5.05,5.05,0,0,0,4.76,3.49,4.84,4.84,0,0,0,2-.22,3.3,3.3,0,0,0,2.33-2.64,2.46,2.46,0,0,0-.51-2,6,6,0,0,0-1.37-1.26,14.45,14.45,0,0,0-1.73-1l-2.79-1.42a6.31,6.31,0,0,1-2.81-2.7,4.51,4.51,0,0,1,0-4.63,4.59,4.59,0,0,1,3.28-2.18,5.85,5.85,0,0,1,4.65,1c.25.18.25.17.47-.05a2.51,2.51,0,0,0,.59-1c0-.09,0-.2.16-.21a1.09,1.09,0,0,1,.46,0s0,.08.05.12a2.36,2.36,0,0,1,0,.25q0,3,0,5.94c0,.41,0,.41-.41.4-.24,0-.24,0-.27-.27a8.4,8.4,0,0,0-.67-2.64,4.12,4.12,0,0,0-4.83-2.34,2.67,2.67,0,0,0-2.12,2.68,2.55,2.55,0,0,0,.69,1.73,6,6,0,0,0,1.17.95,23.67,23.67,0,0,0,2.07,1.17l2.6,1.32a8.3,8.3,0,0,1,1.34.83A4.92,4.92,0,0,1,114,148a5.27,5.27,0,0,1-4,3.45,6.6,6.6,0,0,1-4.19-.39c-.53-.22-1-.48-1.57-.71s-.54-.21-.87.22a2.75,2.75,0,0,0-.46.89c0,.15-.53.23-.62.11s0-.19,0-.28Q102.22,149.81,102.23,148.28Z" style="fill:#e84b37"/><path d="M126.72,141.12q0,3.13,0,6.26a7.78,7.78,0,0,0,.14,1.61,1.6,1.6,0,0,0,1.52,1.43,7.41,7.41,0,0,0,1,.07c.27,0,.27,0,.27.29,0,.06,0,.12,0,.18s-.07.19-.2.18h-7.7c-.44,0-.46,0-.42-.47,0-.14.07-.18.2-.18a6.93,6.93,0,0,0,1-.06,1.71,1.71,0,0,0,1.69-1.73,9.86,9.86,0,0,0,.08-1.26q0-6.59,0-13.17c0-.32,0-.33-.27-.32-1.56,0-3.12,0-4.68,0a4.55,4.55,0,0,0-1.09.2,1.81,1.81,0,0,0-1.18,1.08,10.29,10.29,0,0,0-.42,1.37c0,.09,0,.22-.13.23a1.05,1.05,0,0,1-.53,0c-.08,0,0-.13,0-.2q.07-1.09.15-2.19c0-.5.08-1,.11-1.51,0-.15.07-.22.22-.2h18c.45,0,.41-.09.45.42.09,1.14.16,2.27.23,3.41,0,.29,0,.29-.29.3s-.34,0-.43-.32a10.76,10.76,0,0,0-.36-1.2,1.9,1.9,0,0,0-1.36-1.22,7.25,7.25,0,0,0-1.82-.19c-1.26,0-2.52,0-3.78,0-.3,0-.31,0-.31.33q0,3.42,0,6.84Z" style="fill:#e84b37"/><path d="M203.11,141.31q0,2.82,0,5.65a11.73,11.73,0,0,0,.13,1.9c0,.06,0,.12,0,.18a1.61,1.61,0,0,0,1.52,1.4,6,6,0,0,0,1,.07c.17,0,.25.06.23.23a1,1,0,0,0,0,.11c0,.31,0,.31-.31.31h-7.66c-.1,0-.26.06-.29-.06a.91.91,0,0,1,0-.53c0-.07.13-.05.2-.05a7.82,7.82,0,0,0,1-.07,1.65,1.65,0,0,0,1.59-1.54,12.12,12.12,0,0,0,.13-2q0-6.24,0-12.48c0-.07,0-.14,0-.22s-.06-.2-.2-.19h-.14c-1.26,0-2.52,0-3.78,0a7.82,7.82,0,0,0-1.71.17,1.91,1.91,0,0,0-1.48,1.33c-.13.4-.25.8-.35,1.21,0,.17-.11.26-.28.23h-.18c-.16,0-.26,0-.22-.22a.62.62,0,0,0,0-.07c.08-1.21.16-2.42.23-3.62,0-.15.06-.22.21-.21H211c.19,0,.24.07.25.25.07,1.16.15,2.32.22,3.48,0,.08,0,.17,0,.25s0,.09,0,.1-.32,0-.49,0-.13-.07-.16-.16c-.06-.24-.12-.49-.19-.73s-.09-.3-.14-.45a2,2,0,0,0-1.72-1.48,9.14,9.14,0,0,0-1.5-.12h-3.78c-.34,0-.34,0-.34.37Q203.11,137.82,203.11,141.31Z" style="fill:#e84b37"/><path d="M89.54,125.48a14.34,14.34,0,0,1-.39,3.71,4.87,4.87,0,0,1-.6,1.42,1.88,1.88,0,0,1-2.36.82C82.47,130.21,78.76,129,75,127.8c-.22-.07-.53-.07-.64-.27a1.4,1.4,0,0,1,0-.67,15.24,15.24,0,0,0-.13-3.08c0-.24,0-.24.25-.34l4.24-1.37L86,119.7a3.13,3.13,0,0,1,.8-.18,1.69,1.69,0,0,1,1.28.46,3.13,3.13,0,0,1,.74,1.09,8.39,8.39,0,0,1,.57,2.29A18.84,18.84,0,0,1,89.54,125.48Z" style="fill:#e84b37"/><path d="M43.32,119.52a2.22,2.22,0,0,1,.74.13l11.25,3.65c.35.11.34,0,.29.44a17,17,0,0,0-.14,3c0,.22,0,.43,0,.64s0,.33-.27.43L51.4,129l-7.18,2.34c-.16.05-.32.11-.48.14a1.7,1.7,0,0,1-1.63-.44,3.25,3.25,0,0,1-.77-1.2,8.45,8.45,0,0,1-.51-2.16,19.62,19.62,0,0,1-.07-3.63,10,10,0,0,1,.5-2.68,3.59,3.59,0,0,1,.77-1.33A1.67,1.67,0,0,1,43.32,119.52Z" style="fill:#e84b37"/><path d="M73.94,121.84a.65.65,0,0,1-.12-.31,16,16,0,0,0-1.48-3.69.45.45,0,0,1,0-.57q3.2-4.39,6.39-8.78a1.85,1.85,0,0,1,1.39-.86,2.25,2.25,0,0,1,1,.15,4.39,4.39,0,0,1,1.41.85,16.26,16.26,0,0,1,4.22,5.83,4.09,4.09,0,0,1,.35,1.82,1.73,1.73,0,0,1-1.26,1.7c-.74.25-1.48.49-2.22.73l-9.36,3Z" style="fill:#e84b37"/><path d="M87.08,135a5.06,5.06,0,0,1-.5,1.94,16.32,16.32,0,0,1-2.15,3.44,12.09,12.09,0,0,1-2.09,2.17,4.53,4.53,0,0,1-1.27.73,1.81,1.81,0,0,1-2.3-.71l-5-6.92c-.49-.68-1-1.36-1.49-2a.34.34,0,0,1,0-.47A11.26,11.26,0,0,0,74,129.54c.07-.25.07-.25.31-.17l3.25,1.05,8,2.61.1,0A1.81,1.81,0,0,1,87.08,135Z" style="fill:#e84b37"/><path d="M43.18,116.13a5.07,5.07,0,0,1,.38-1.72,14.5,14.5,0,0,1,1.88-3.22,13.71,13.71,0,0,1,2.32-2.55,4.91,4.91,0,0,1,1.38-.84,1.83,1.83,0,0,1,2.39.71L57.68,117a.41.41,0,0,1,0,.54,16.13,16.13,0,0,0-1.62,3.83,1.74,1.74,0,0,0-.06.21c0,.15-.1.17-.23.12L55,121.4,44.6,118a2.26,2.26,0,0,1-.82-.43A1.91,1.91,0,0,1,43.18,116.13Z" style="fill:#e84b37"/><path d="M43.19,135.18a1.86,1.86,0,0,1,1.34-2.11l11-3.56c.31-.1.31-.1.39.16a11.7,11.7,0,0,0,1.89,3.73c.23.31.21.26,0,.55l-6.3,8.67a1.8,1.8,0,0,1-2.25.7,5,5,0,0,1-1.65-1A15.68,15.68,0,0,1,45,139.26a12.69,12.69,0,0,1-1.45-2.64A4.63,4.63,0,0,1,43.19,135.18Z" style="fill:#e84b37"/><path d="M71.19,116a.91.91,0,0,1-.3-.3A9.76,9.76,0,0,0,67,112.74a4.31,4.31,0,0,0-.64-.22.26.26,0,0,1-.23-.33c0-.15,0-.31,0-.47,0-2.63,0-5.25,0-7.88a1.88,1.88,0,0,1,1.53-2,5.31,5.31,0,0,1,2-.09,17.43,17.43,0,0,1,5.6,1.73,6.31,6.31,0,0,1,1.81,1.28,2.53,2.53,0,0,1,.63,1,1.73,1.73,0,0,1-.31,1.56l-1.94,2.68-4.08,5.61Z" style="fill:#e84b37"/><path d="M58.91,115.76l-.49-.67L53,107.59l0,0a1.9,1.9,0,0,1,.14-2.69,5.78,5.78,0,0,1,1.66-1.24,18.24,18.24,0,0,1,5-1.73,8.18,8.18,0,0,1,2-.14,3.23,3.23,0,0,1,1.21.29,1.7,1.7,0,0,1,1,1.62c0,2.8,0,5.61,0,8.41,0,.16,0,.27-.21.31a8.9,8.9,0,0,0-4.72,3Z" style="fill:#e84b37"/><path d="M71,134.8l.86,1.18,5.49,7.56a3.4,3.4,0,0,1,.25.39,1.69,1.69,0,0,1,0,1.59,3.27,3.27,0,0,1-.93,1.13A8.89,8.89,0,0,1,74.45,148a18,18,0,0,1-4.37,1.27,7.7,7.7,0,0,1-1.43.09c-.15,0-.24,0-.25-.23-.2-2.5-.43-5-.4-7.5a15.44,15.44,0,0,1,.24-2.68,3.78,3.78,0,0,1,.48-1.23,9.59,9.59,0,0,1,.88-1.23Z" style="fill:#e84b37"/><path d="M59.12,135.09a18.09,18.09,0,0,1,2.2,2.91,4,4,0,0,1,.39,1.38,24.54,24.54,0,0,1,.13,4.31c0,1-.12,2.08-.19,3.12q-.07,1.09-.17,2.19c0,.35,0,.35-.4.33a15.2,15.2,0,0,1-4.19-.94,13.34,13.34,0,0,1-2.58-1.18,5.55,5.55,0,0,1-1.13-.88,3.52,3.52,0,0,1-.24-.27,1.83,1.83,0,0,1,0-2.47l4.19-5.76,1.8-2.47A.76.76,0,0,1,59.12,135.09Z" style="fill:#e84b37"/><path d="M213,134.49V133h-.57v-.19h1.38V133h-.58v1.45Z" style="fill:#e84b37"/><path d="M214,134.49v-1.65h.35l.41,1.17.08.24.09-.26.42-1.14h.31v1.65h-.22v-1.38l-.51,1.38h-.21l-.5-1.4v1.4Z" style="fill:#e84b37"/></svg>