<svg xmlns="http://www.w3.org/2000/svg" viewBox="0 0 250 250"><defs><style>.a{fill:#000001;}.b{fill:#fefefe;}.c{fill:#070708;}.d{fill:#f7f8f8;}.e{fill:#bebebe;}.f{fill:#fcfdfd;}.g{fill:#414142;}.h{fill:#bebebf;}.i{fill:silver;}.j{fill:#7f7e80;}.k{fill:#424243;}.l{fill:#7f7f80;}.m{fill:#858586;}.n{fill:#fee616;}.o{fill:#f9a535;}.p{fill:#4f90cc;}.q{fill:#ed3124;}.r{fill:#fdfdfd;}.s{fill:#4e90cb;}.t{fill:#fde516;}.u{fill:#fbfbfb;}.v{fill:#ea3023;}.w{fill:#f2a133;}.x{fill:#f5de15;}.y{fill:#efd915;}.z{fill:#f3a233;}.aa{fill:#aeaeaf;}.ab{fill:#86591d;}.ac{fill:#f2a032;}.ad{fill:#111112;}.ae{fill:#020101;}</style></defs><title>Fast Food</title><path class="a" d="M188.83,200a5,5,0,0,0-1.87-.41,14.87,14.87,0,0,1-7-3.41,2.87,2.87,0,0,0-2.31-.74A43.06,43.06,0,0,1,166,194.38a45.7,45.7,0,0,1-5-1.12c-2.17-.7-2.93-1.76-3-4.06a10.65,10.65,0,0,1,2.64-7.23,16.43,16.43,0,0,1,5.46-4.46,8.78,8.78,0,0,1,7.61-.1,53,53,0,0,1,7.38,3.74c.45.28.68.37.89-.26.42-1.25.92-2.47,1.45-3.88a12.77,12.77,0,0,1-9.55-1.64c-2.88-1.9-4.51-4.7-5.57-8.07a27.2,27.2,0,0,1-1.31,3.59c-1.17,2.42-2.64,4.54-5.3,5.52-3.8,1.4-7.8,0-10.31-3.52a19.85,19.85,0,0,1-3.2-8.85,37.92,37.92,0,0,1,.13-12.23,15.84,15.84,0,0,1,5-9c3.36-3.08,8.51-2.48,11.47,1.22a19,19,0,0,1,3.38,7c0,.16,0,.35.28.49a14.09,14.09,0,0,1,6.75-9,11.32,11.32,0,0,1,11.15-.19,18.3,18.3,0,0,0-.19-3.44,76.6,76.6,0,0,0-1.9-10.45c-.11-.47-.4-.62-.82-.74a69.23,69.23,0,0,0-6.88-1.31,17,17,0,0,1-7-3,1.59,1.59,0,0,0-1.11-.34,8,8,0,0,1-3.16-.33c-.47-.17-.67-.1-.79.47a27.39,27.39,0,0,1-2.25,6.87,9.81,9.81,0,0,1-7.49,5.52,5.24,5.24,0,0,1-5.55-2.5c-.3-.49-.54-1-.85-1.58-.71.75-1.38,1.51-2.1,2.22a11.41,11.41,0,0,1-4.34,2.92,3.4,3.4,0,0,1-4.33-1.53,12.71,12.71,0,0,1-1.63-5.06,32.31,32.31,0,0,1,0-8c0-.28.16-.65-.07-.82s-.51.16-.75.29a24.42,24.42,0,0,1-2.51,1.33,1.49,1.49,0,0,0-1,1.33,26.16,26.16,0,0,1-2.09,7c-1.11,2.28-2.62,4.19-5.29,4.68-5.12.93-8.82-1.21-10.74-6.17-.79,1-1.54,2-2.34,2.89a7.07,7.07,0,0,1-4,2.44c-4.48.93-8.42-1.45-9.86-6-.23-.73-.4-1.49-.62-2.32A32.91,32.91,0,0,1,94,131.44a18.49,18.49,0,0,1-2.46,2.78c-4.53,4.12-9.8,2.45-12.86-.84a14,14,0,0,1-3.18-6.62l-.23-1c-.42.79-.78,1.5-1.17,2.19-2,3.46-4.62,6.19-8.59,7.3-5.15,1.44-9.46-.7-11.46-5.66l-.14-.29a21.46,21.46,0,0,1-3.44,3.92c-.57.49-1.15,1-1.76,1.41-2.92,2.14-5.89,1.83-8.39-.83a8.51,8.51,0,0,1-2.17-5.94,41,41,0,0,1,1.56-10.05c.23-1,.46-2,.69-3a1.19,1.19,0,0,0-.25-1.2c-.92,1.82-1.89,3.55-2.63,5.4-1.9,4.76-3.61,9.59-5.15,14.47-.1.33-.21.66-.34,1a3.45,3.45,0,0,1-4.95,1.73,1.59,1.59,0,0,1-.93-1.7c.36-3.67.73-7.34,1.08-11,.2-2.1.3-4.2.3-6.31a1,1,0,0,0-.58-1,.86.86,0,0,0-1,.24,5.47,5.47,0,0,0-1.36,2.18c-1.37,3.52-2.22,7.2-3.31,10.8-.49,1.63-.87,3.29-1.41,4.9-.67,2-1.9,2.51-3.87,1.84a2.67,2.67,0,0,1-1.81-3,37.58,37.58,0,0,1,.76-4.16c.88-5.11,2-10.19,2.39-15.37.12-1.6.24-3.24-.8-4.67a.86.86,0,0,1,0-.91c.44-.93.76-2,2-2.21s2.08.69,2.74,1.63a11,11,0,0,1,1.59,4.44,1.72,1.72,0,0,0,.27.86c1.79-2.58,4.23-3.76,7.26-2.88,2.33.68,2.57,3,3.15,4.94.32-.08.29-.42.38-.65.78-1.87,1.55-3.78,3.13-5.11a8.8,8.8,0,0,1,8.12-1.73,2.65,2.65,0,0,1,2,2.48,24,24,0,0,1-.82,8.39A56.15,56.15,0,0,0,44.84,127c0,.58.09.78.72.81,1.44.06,2.88.2,4.31.35a.78.78,0,0,0,.91-.54,33.78,33.78,0,0,0,2.41-6.18c.4-1.53.36-3.14.69-4.69a19.47,19.47,0,0,1,5.84-10.83,8.77,8.77,0,0,1,3.75-2.07c3.15-.81,5.56,1,5.67,4.31a16,16,0,0,1-2.78,9.46,41.3,41.3,0,0,1-7.64,8.56,1.53,1.53,0,0,0-.65,1.47c.08.57.08,1.15.17,1.72A4,4,0,0,0,62,133c3.55.54,6.22-.91,8.43-3.52A27.89,27.89,0,0,0,74.76,122a7.35,7.35,0,0,0,.08-2.83,231.25,231.25,0,0,1,1.1-26.52,63,63,0,0,1,2.74-13.88,43.65,43.65,0,0,1,3.44-7.9,7.92,7.92,0,0,1,6.27-4.21A4.08,4.08,0,0,1,92.7,69a20.35,20.35,0,0,1,2.19,9.59c0,7.8-1.83,15.24-4.55,22.49a78.51,78.51,0,0,1-8.68,16.55,2.92,2.92,0,0,0-.59,2.24c.54,3.36,1.13,6.71,2.76,9.76,1.51,2.81,3.3,3,5.17.38a56.83,56.83,0,0,0,5.75-10.8c.46-1.06.88-2.12,1.34-3.18a2.61,2.61,0,0,0,.21-1.09,157.5,157.5,0,0,1,.57-16.08,84.82,84.82,0,0,1,3-15,77.38,77.38,0,0,1,2.48-7.72,3,3,0,0,1,2.42-1.95c3.1-.61,5.24.46,6.53,3.32a22,22,0,0,1,1.58,12.1,60.29,60.29,0,0,1-6.34,19.71,32.63,32.63,0,0,1-4.32,5.82,12.73,12.73,0,0,1-1.06,1.25,4.82,4.82,0,0,0-1.45,4.89,42.35,42.35,0,0,0,1.78,7.64,5.42,5.42,0,0,0,4.38,3.6,3.75,3.75,0,0,0,3.71-1.32,22.35,22.35,0,0,0,3.15-5,6.24,6.24,0,0,0,.17-2.31,40.63,40.63,0,0,1,5.15-16.17,10.41,10.41,0,0,1,2.86-3.43,5.27,5.27,0,0,1,2.76-1.14,1.81,1.81,0,0,1,2.13,1.55c.07.42.24.41.54.43a5.41,5.41,0,0,1,4.64,3.11,13.81,13.81,0,0,1,1.13,8.75c-.09.6-.12,1.2-.19,1.81s.15.62.62.38a6.42,6.42,0,0,0,3.63-4.05,5.21,5.21,0,0,0,.27-.91c.31-3.36,2.48-5.38,5.07-7.1.68-.45,1.41-1,2.23-.56s.86,1.38.89,2.21c.09,2.74-.67,5.37-1.13,8a38,38,0,0,0-.93,8.58,21.09,21.09,0,0,0,.68,4.52,7.75,7.75,0,0,0,.31.89c.16.37.33.78.79.83s.72-.33.93-.67a17.75,17.75,0,0,0,2.13-6c.61-2.9.85-5.88,1.73-8.73.24-.77.53-1.52.84-2.26a4.7,4.7,0,0,1,3.62-2.78,1.49,1.49,0,0,1,2,1.3,15.82,15.82,0,0,1-.12,5.68,79.39,79.39,0,0,0-1.22,7.94,8.24,8.24,0,0,0,.49,3.56c.51,1.22,1.39,1.4,2.38.51a5.13,5.13,0,0,0,.84-1,16.49,16.49,0,0,0,2.26-5.48,9.39,9.39,0,0,0-.94-6c-.88-2-1.73-4-2.44-6.07-.85-2.48,0-4.25,1.92-5.73.34-.26.71-.5,1-.7a125.77,125.77,0,0,1-10.33-14.41,22.51,22.51,0,0,1-1.11-2,.82.82,0,0,0-1.05-.54,38.2,38.2,0,0,1-7.46.9,7.38,7.38,0,0,1-6.15-2.93,1.52,1.52,0,0,0-1.2-.58,2.21,2.21,0,0,1-2-1.4c-1.06-2.64-3.32-3.87-5.7-5a3.83,3.83,0,0,1-2.1-1.7c-.16-.33-.49-.39-.78-.48-.77-.24-1.55-.44-2.31-.7a2.85,2.85,0,0,1-2.07-2.7c0-.63-.25-.85-.86-.87s-1.08-.23-1.62-.23c-2,0-3.77-2.4-4-4.53-.39-3.61,2.7-6.87,5.54-7.62a7.41,7.41,0,0,0,3.43-1.9,8.17,8.17,0,0,1,5.94-2.76,4.72,4.72,0,0,0,3.32-1.29,7.75,7.75,0,0,1,6-1.87,10.63,10.63,0,0,0,6.16-1.43,6.07,6.07,0,0,1,2.56-.71c.46-.16,1,.07,1.41-.14h.17a16.16,16.16,0,0,1,4.37.89,9.13,9.13,0,0,1,4.21,3.72,3.88,3.88,0,0,1-.06,3.89,1.05,1.05,0,0,0,.28,1.48,46.88,46.88,0,0,1,10.77,15.45,32.91,32.91,0,0,0,6,9.33,5.61,5.61,0,0,1,1.63,3.73,1.67,1.67,0,0,1-1,1.74c-3.57,1.68-7.08,1.76-10.45-.47-1.86-1.23-3.83-2.23-5.91-3.47a15,15,0,0,0,2.91,4.68,42.53,42.53,0,0,0,6.26,5.18c1.5,1.11,1.48,1.11,3.1.11a64,64,0,0,1,9.55-4.68,3.44,3.44,0,0,0,2.22-2.3,17.75,17.75,0,0,1,1.51-3.77,1,1,0,0,0-.29-1.45c-1.19-1.05-1.1-1.83.23-2.75.93-.64.93-.64,1.25-1.21a36.82,36.82,0,0,1-3.84-.61,10.19,10.19,0,0,1-4.8-2.27,5.14,5.14,0,0,1-1.73-4.91,3.23,3.23,0,0,1,1.49-2.15,5.72,5.72,0,0,1,3.83-1.13c1.51.19,2.8-.51,4.19-.78a.8.8,0,0,0,.61-.56,25.39,25.39,0,0,1,1.76-3.56c-.34-.47-.82-.12-1.22-.22a6.08,6.08,0,0,1-3-1.25c-2.06-1.55-2.19-5.29.75-6.34a4.51,4.51,0,0,0,1.89-1.34,3,3,0,0,1,2.83-1c3.19.55,6.44.48,9.65.94a36.57,36.57,0,0,1,8.33,1.9,4,4,0,0,0,1.62.2,22.12,22.12,0,0,1,6.17.69c.42.11.83.25,1.24.39a5.63,5.63,0,0,1,4,4.65,12.14,12.14,0,0,1,.26,3.44,6.7,6.7,0,0,1-2.88,4.84,3.68,3.68,0,0,0-1.76,3.72,36.05,36.05,0,0,1-.17,4.06c0,2.83.4,5.64.38,8.47a2.48,2.48,0,0,0,1.21,2c2.82,2,4.6,4.91,6.58,7.63,2.15,3,3.4,6.35,4.7,9.72a37.63,37.63,0,0,1,2.45,9.45,15.11,15.11,0,0,0,2.34,6.18c.36.59.66,1.22,1,1.8a10,10,0,0,1,1.61,7.51c-.3,1.71-.13,3.46-.36,5.18a4.53,4.53,0,0,1-.62,2,2.63,2.63,0,0,1-4.11.33,3.56,3.56,0,0,1-.83-1.31,4.15,4.15,0,0,0-1.64-2.42c-.71-.46-1.39-3.88-1.1-4.71a2.26,2.26,0,0,1,.33-.6,1.38,1.38,0,0,0-.41-2.14c-.48-.3-.75,0-1,.31a8.15,8.15,0,0,1-2.52,2.2,4.84,4.84,0,0,1-3.85.39,2.63,2.63,0,0,1-2-2.16,2.32,2.32,0,0,1,1.24-2.63,5.05,5.05,0,0,0,2.55-3.52,6.62,6.62,0,0,1,3.14-4.47.93.93,0,0,0,.44-1,18.94,18.94,0,0,0-4.38-10.46,29,29,0,0,0-3.85-3.71,8.23,8.23,0,0,0,.14,3.24c.44,1.55.93,3.1,1.36,4.66a27.12,27.12,0,0,1,1,6.22c.14,3.73-1.67,6.18-5,7.63a33.58,33.58,0,0,1-9.68,2.56c-1.63.19-1.67.18-1.45,1.81.51,3.78,1.35,7.5,2,11.26.09.54.36.72.89.67.75-.06,1.5,0,2.25,0a1.27,1.27,0,0,1,1.42,1.08q1.55,5.32,3.13,10.63c1,3.54,2.07,7.1,3.18,10.62a7.85,7.85,0,0,1,.3,1.18q2.77-10.51,5.44-21c.09-.34.17-.67.26-1a1.07,1.07,0,0,1,1.28-.86,59,59,0,0,0,7.87,0c.94-.08,1.3.19,1.28,1.16-.05,3.63.2,7.27-.14,10.9,0,.11,0,.23,0,.35,0,4.76.08,9.52-.17,14.28a7.61,7.61,0,0,0,.18,1.89,1.74,1.74,0,0,0,1.84,1.68c.59.06.9.31.91.91.06,2.83.08,2.51-2.26,2.51H217.55c-1.43,0-1.73-.34-1.54-1.78a15.84,15.84,0,0,0,.13-1.81c0-.66.35-1.09,1-1,1.63.16,2.09-.72,2.26-2.39a71.56,71.56,0,0,0,.14-9.34c-.05-1.79-.11-3.57-.13-5.36a3.41,3.41,0,0,1,.1-1.11c-1.91,6.51-3.52,13.09-5,19.7a5.63,5.63,0,0,0,.74,4.8c1,1.56,2,3.17,3.16,4.65a17.39,17.39,0,0,1,3.23,8.56,22,22,0,0,1-.33,7.31c-.42,2.09-.58,2.22-2.74,2.22H208c-2.44,0-4.87-.17-7.31-.08A19.82,19.82,0,0,0,198,200h-.35c-.28-.18-.59,0-.88-.09s-.69-.1-1,.09Z"/><path class="b" d="M13.52,171.25V146.48a1.27,1.27,0,0,1,.27-.17,2.47,2.47,0,0,1,2.88,1.88,14.31,14.31,0,0,1,.55,3.76c.23,4.78.44,9.55.37,14.34a10.56,10.56,0,0,1-.47,3.41A2.69,2.69,0,0,1,14,171.6,1,1,0,0,1,13.52,171.25Z"/><path class="c" d="M236.82,175.23c-.3,0-.56,0-.55-.45a2.84,2.84,0,0,0-.19-1.26,8.82,8.82,0,0,1-.32,1c-.12.25-.06.68-.53.66s-.35-.4-.46-.63a2.76,2.76,0,0,0-.4-.8c0,.38-.08.76-.11,1.14,0,.18,0,.34-.27.35s-.27-.17-.25-.34c0-.66.1-1.32.14-2,0-.24.16-.26.34-.26s.5,0,.6.32.29.79.45,1.2c.47-.48.17-1.32,1-1.53.51-.13.34.41.59.53Z"/><path class="d" d="M198,200c.28-.37.68-.14,1-.18a46.28,46.28,0,0,1,8.84,0q.09,0,.07.09s0,.05-.06.05Z"/><path class="e" d="M207.89,200s0-.1,0-.14h6.26s.06.07,0,.1,0,0-.05,0Z"/><path class="f" d="M214.12,200a.73.73,0,0,0,0-.14h2.93c.06,0,.09.06.07.09s0,.05-.06.05Z"/><path class="g" d="M13.52,171.25l.38.14a4,4,0,0,1-.12,1.88.18.18,0,0,1-.26.05Z"/><path class="h" d="M13.72,146.46l-.2,0v-1.73a.14.14,0,0,1,.14,0A1.46,1.46,0,0,1,13.72,146.46Z"/><path class="i" d="M217.07,200s0-.09,0-.14h1.58a.47.47,0,0,0,0,.15Z"/><path class="j" d="M145.35,50.33c-.44.36-.94.11-1.41.14a.32.32,0,0,1,0-.14Z"/><path class="h" d="M13.72,175.39h-.19v-1.21a.18.18,0,0,1,.26.06A1,1,0,0,1,13.72,175.39Z"/><path class="k" d="M195.76,200c.31-.32.7-.12,1.05-.15q.07.06,0,.11s0,0-.05,0Z"/><path class="l" d="M13.67,174.21h-.15v-.87h.16A.56.56,0,0,1,13.67,174.21Z"/><path class="m" d="M196.8,200a.47.47,0,0,1,0-.15c.28.05.62-.19.85.15Z"/><path class="a" d="M13.67,174.21v-.86c.13-.64-.21-1.34.22-1.95,1.89.08,2.67-.5,3.13-2.35a13,13,0,0,0,.3-3.26c0-5.12,0-10.25-.52-15.36a13.11,13.11,0,0,0-.31-1.87c-.39-1.59-1.11-2.12-2.77-2.1l-.06-1.73c0-.84.11-1.67.1-2.5,0-.5.1-.69.66-.71,2.94-.1,5.88-.14,8.83-.18.64,0,.69.38.81.78l5,17.05c.59,2,1.19,4,1.86,6.17.58-2.18,1.11-4.15,1.62-6.12q2.17-8.36,4.3-16.73c.13-.52.31-.68.85-.69,5.48-.05,11-.1,16.44-.23,3.18-.08,6.35,0,9.52.06.77,0,1.18.16,1.13,1.09A20.43,20.43,0,0,0,65,146c.07.61-.19.75-.7.79s-.86.1-1.28.17a2.19,2.19,0,0,0-2.17,2.43c-.09,1.79-.17,3.57-.18,5.36a51,51,0,0,0,.5,10.35,12.11,12.11,0,0,0,.47,1.66,3,3,0,0,0,2.48,2.36,5.17,5.17,0,0,0,4.64-1.33,5.66,5.66,0,0,0,1-3.42,74.44,74.44,0,0,0,.12-8.9c0-3.06,0-6.12,0-9.18,0-1.33,0-2.65-.06-4,0-.32,0-.55.44-.54,2.85.1,5.71-.21,8.56,0,.54,0,.74.16.71.73,0,1.12-.05,2.25,0,3.38,0,.58-.2.69-.7.65s-1,0-1.56,0a1.53,1.53,0,0,0-1.77,1.65c-.05.69,0,1.38,0,2.08,0,5.54,0,11.08-.52,16.6-.25,2.71-.82,5.28-2.65,7.44A8.2,8.2,0,0,1,67,177.09a19.45,19.45,0,0,1-8.14-.56,8.34,8.34,0,0,1-5.32-4.85,29,29,0,0,1-2.09-8.26,99.33,99.33,0,0,1-.52-13.21,10.07,10.07,0,0,0-.12-1.38c-.28-1.86-.72-2.31-2.57-2.56a10.78,10.78,0,0,0-1.38-.1c-1.35,0-1.8.42-1.82,1.8,0,2.16-.05,4.33-.09,6.49-.08,4.38,0,8.77-.22,13.15a10,10,0,0,0,.24,2.92,1.87,1.87,0,0,0,2.15,1.68c.52,0,.55.15.56.56.06,2.26.07,2.26-2.19,2.26-3.2,0-6.41,0-9.61,0-.81,0-1-.24-.91-1s.12-1.67.14-2.5c0-.47.21-.63.67-.66,2-.16,2.36-.42,2.56-2.46a95.34,95.34,0,0,0,.12-10.55c0-2,0-4,0-6.05l-.3,0c-.48,1.66-1,3.32-1.43,5q-2.39,8.57-4.16,17.3c-.1.51-.32.63-.81.61-1,0-2.08-.06-3.12,0-.66,0-.92-.17-1.11-.81-2.15-7.13-4.42-14.23-6.37-21.42a.75.75,0,0,0-.12-.3,40.48,40.48,0,0,0-.29,5.58c-.06,3.37-.35,6.74-.27,10.12,0,.12,0,.23,0,.35.18,2.38.82,3,3.2,2.9.44,0,.55.08.55.5,0,1.15,0,2.31,0,3.46,0,.56-.24.6-.67.57-3.28-.18-6.57-.27-9.86-.28Z"/><path class="a" d="M122.83,144.05c-.31,0-.56-.07-.82-.09a1.84,1.84,0,0,0-2.13,1.58,17.1,17.1,0,0,0-.19,3.88q-.11,5.8-.12,11.6a67.69,67.69,0,0,0,.31,6.91c.17,1.68.92,2.49,2.79,2.71.64.08.88.29.81.86s.18.67.67.71a2.43,2.43,0,0,0,2.78-1.91,8.42,8.42,0,0,0,.26-2.14q.07-9.3.15-18.61a9.4,9.4,0,0,0-.18-2,2.11,2.11,0,0,0-2-1.94c-.41-.06-.52-.19-.51-.58,0-1,0-2.07-.06-3.11,0-.32,0-.53.41-.52,4.35.15,8.71-.12,13,.7a14,14,0,0,1,2.16.6,6.94,6.94,0,0,1,4.87,6.91,8.64,8.64,0,0,1-2.73,7,.66.66,0,0,0-.2.76c.87,3.49,1.68,7,2.74,10.44.71,2.31,1.44,2.88,3.88,3,.39,0,.47.15.47.5q0,1.73.11,3.45c0,.44-.09.59-.56.6-2.54,0-5.07.1-7.61.16h-.69c-1.9,0-1.9,0-1.94-1.89,0-.69,0-1.38-.06-2.07,0-.46.11-.58.58-.57,1.47,0,1.78-.34,1.58-1.8a47.27,47.27,0,0,0-2.65-9.82c-.16-.44-.34-.48-.76-.37-.86.22-1.74.39-2.62.54-.31.05-.45.14-.46.47-.08,3.22-.4,6.44-.27,9.67.07,1.54.25,1.74,1.8,2,.76.15,1.06.42,1,1.22a13.9,13.9,0,0,0,0,2.42c0,.55-.14.68-.67.67-2.94-.05-5.88-.08-8.83-.09-1.09,0-2.19,0-3.29,0-.23,0-.6.11-.55-.32.1-.85-.49-.66-.94-.66-3.84,0-7.67.06-11.51.12-.54,0-.72-.08-.69-.68.06-1.21,0-2.42,0-3.63,0-.37,0-.52.49-.57,2.23-.24,3.18-1.26,3.32-3.54.12-1.9-.09-3.81-.08-5.71,0-.38-.15-.49-.51-.49q-3,0-6.06,0c-.42,0-.53.16-.54.56-.08,3.78-.19,7.55-.28,11.33,0,.46,0,.92-.05,1.38-.05,1.2-.05,1.23-1.21,1.29q-4,.24-8,.27c-.6,0-.72-.2-.69-.74.07-1.06.1-2.13.12-3.2,0-.4.15-.53.56-.57,1.47-.15,1.77-.45,1.94-1.9a48.94,48.94,0,0,0,.14-5.53c0-5.28,0-10.56,0-15.84a7,7,0,0,0-.33-2.3c-.28-.79-.71-1.48-1.7-1.46-.41,0-.46-.23-.45-.56,0-.75,0-1.5,0-2.25,0-.47.17-.56.6-.58,3.2-.16,6.4,0,9.6.09.61,0,.44.42.42.72-.13,2.13-.11,4.27-.11,6.4s0,4.39,0,6.58c0,.79.14,1.08,1,1.11,1.67.06,3.34.08,5,.1.43,0,.59-.08.61-.56a55.87,55.87,0,0,0,0-8.55c-.15-1.54-.63-2-2.17-2.12-.57,0-.73-.19-.7-.74,0-.83,0-1.67,0-2.51,0-.42,0-.61.56-.58a107.18,107.18,0,0,0,10.72,0c.34,0,.62,0,.6.47C122.81,141.94,122.83,143,122.83,144.05Z"/><path class="a" d="M85.91,176.38a18.75,18.75,0,0,1-3.19-.29,4.57,4.57,0,0,1-4-3.93,22.84,22.84,0,0,1-.19-4.92.46.46,0,0,1,.45-.51c1.81-.29,3.62.06,5.44,0,.42,0,.31.34.32.57,0,.63,0,1.27,0,1.9s.2,1.31,1,1.48a1.45,1.45,0,0,0,1.7-.9c.95-2,1.32-4.12,0-6.18a20.69,20.69,0,0,0-3.78-4.49c-3.08-2.77-3.64-6.24-3.2-10.09a10.39,10.39,0,0,1,2.66-6.41c2.91-3,7.42-2.54,10.17-.95a3.76,3.76,0,0,1,1.58,2.68,26.58,26.58,0,0,1,.4,3.78c0,.35,0,.53-.45.51-1.56,0-3.11-.08-4.67-.08-.51,0-.7-.15-.69-.69a7.29,7.29,0,0,0-.35-2.64c-.16-.45-.38-.91-.9-.94s-.78.43-1,.85a7.16,7.16,0,0,0,1.09,7.61,46.59,46.59,0,0,0,3.35,3.38,10.64,10.64,0,0,1,3.69,8,38,38,0,0,1-.22,5.36,9.08,9.08,0,0,1-1.61,4c-1.32,2-3.28,2.62-5.48,2.83C87.35,176.33,86.63,176.34,85.91,176.38Z"/><path class="n" d="M190.44,73.28a1.06,1.06,0,0,0-.48,1.43,7.23,7.23,0,0,0,4.7-3.89.91.91,0,0,1,1.21-.53c.53.12,1.39.46,1.5-.23s-.82-.58-1.34-.66-.71-.31-.72-.88A6.15,6.15,0,0,0,193,63.34c2.6.14,5,.24,7.38,1.49a45.18,45.18,0,0,1,9.13,6.62,1.71,1.71,0,0,1,.63,1.57c-.4,4.81-.38,9.62-.38,14.44a3.69,3.69,0,0,0,1.91,3.48,11.84,11.84,0,0,1,2.52,2.23A42.69,42.69,0,0,1,225.1,115a10.65,10.65,0,0,1,.28,4.11c-.06.29.13.49.26.71,1,1.7,2,3.44,3.09,5.1a8.33,8.33,0,0,1,1.51,6.05c-.35,2.2-.3,4.43-.49,6.64,0,.47-.1.9-.63,1.12a1.28,1.28,0,0,1-1.43-.33,2.88,2.88,0,0,1-.86-3c.75-3.4-.67-6.09-2.9-8.43-1-1.09-1.83-.93-2.78.22a15.18,15.18,0,0,1-2,2.2,3.37,3.37,0,0,1-2.73.82,1.49,1.49,0,0,1-1.34-1.27c-.14-.74.36-1,.95-1.21a3.21,3.21,0,0,0,1.89-1.91,18.42,18.42,0,0,0,.81-2.18,5.82,5.82,0,0,1,3-3.83,1,1,0,0,0,.64-1.18c-.48-4-1.36-7.91-3.7-11.37a76,76,0,0,0-7.61-9.07c-.31-.34-.56-.73-.85-1.09s-.37-.5-.71-.34-.32.48-.27.76a6,6,0,0,0,1.35,3.13c.17.18.4.31.36.63-.38,3,.53,5.88,1.18,8.77a52.42,52.42,0,0,1,1.49,6.3,8.16,8.16,0,0,1-.84,4.6,1.26,1.26,0,0,1-1.13.75,32.05,32.05,0,0,1-12.51-.93,116.5,116.5,0,0,0-18.8-3.31,92.76,92.76,0,0,0-13.23-.21c-.61,0-1.41.36-1.79-.18a3.21,3.21,0,0,1-.52-2.88,7.14,7.14,0,0,1,1.52-2.49c2-2.34,4.07-4.64,6.07-7a48.23,48.23,0,0,0,7.42-12.91c.73-1.75,1.59-3.45,2.39-5.17.08-.18.2-.35.28-.53.18-.4.42-.16.63-.06.42.19.08.32,0,.48a2.37,2.37,0,0,0-.13,2.81,2.41,2.41,0,0,0,2.59,1.15c.25-.07.64-.08.64-.45s-.32-.38-.56-.46-.5-.15-.74-.23c-.89-.32-1.22-.85-1-1.61.24-.91.64-1.17,1.66-1a15.34,15.34,0,0,0,7.1-.38,10.66,10.66,0,0,0,5.95-4.49c.61-.86,1.19-1.76,1.9-2.81,0,.4,0,.6,0,.8s-.1.72.33.79.62-.26.79-.58a2.75,2.75,0,0,0-.7-2.77,3.14,3.14,0,0,0-4.19,1.25,8.21,8.21,0,0,0,1.78-.29c.53-.06.94-.08.57.7a14.75,14.75,0,0,1-4.1,5.28,8.86,8.86,0,0,1-4.47,1.69c-3.21.44-6.14-.08-8.48-2.58-.46-.5-.5-.79.14-1.14a7.24,7.24,0,0,0,2.39-1.67c.19-.25.43-.09.64,0a5.35,5.35,0,0,0,1.63.14c.27,0,.53-.09.58-.41s-.17-.41-.37-.53a8.64,8.64,0,0,0-3.86-1.13,43.62,43.62,0,0,1-5.52-.33,5.12,5.12,0,0,1-3.92-3.42A2.51,2.51,0,0,1,175,71.65a5.79,5.79,0,0,1,5-.43,17.6,17.6,0,0,1,2.26.86,11.38,11.38,0,0,0,4,.74.7.7,0,0,0,.75-.31c.31-.28.67-.14,1,0C188.8,72.72,189.74,72.64,190.44,73.28Z"/><path class="n" d="M204.76,185.86a11.53,11.53,0,0,1-4.41-2.13,29.25,29.25,0,0,0-8.25-4.26c-.4-.12-.48-.24-.33-.64a28.1,28.1,0,0,0,1.47-9.77,198.15,198.15,0,0,0-1.75-26c-.61-5-1.46-9.92-2.42-14.84-.08-.4-.33-1.11-.07-1.19.62-.18,1.24-.61,2-.3a10.08,10.08,0,0,0,5.25.74c.61-.08.79.14.87.69q.69,4.79,1.42,9.58c1,6.46,1.84,13,4.13,19.14a123.38,123.38,0,0,0,5.44,11.46A95.21,95.21,0,0,0,217,182.77a15.23,15.23,0,0,1,2.48,13.53c0,.17-.1.33-.16.49-.56,1.57-.56,1.57-2.2,1.57l-26.49-.1a24.8,24.8,0,0,1-5-.6c-2-.41-3.47-1.63-5-2.73a1.66,1.66,0,0,1-.63-1.54c.35-4.84,2.2-8.8,6.52-11.43a7.49,7.49,0,0,1,7.71-.21,59.1,59.1,0,0,1,6.36,3.66C202.23,186.46,203.27,186.6,204.76,185.86Z"/><path class="o" d="M149.57,61.39a5.21,5.21,0,0,0-2.63.11,8,8,0,0,1-4.58-.35A2.57,2.57,0,0,0,139,62c-1,1.24-2.38,1.55-3.79,1.87a23.72,23.72,0,0,0-3.34.85,5.06,5.06,0,0,0-3,4.2c.11.21.56-.12.52.33a4,4,0,0,1-3.79.91c.39,1.39,1.14,1.82,2.39,1.34.78-.3,1.5-.73,2.26-1.07a1.79,1.79,0,0,1,2.63.61,4.67,4.67,0,0,0,2.18,1.34,27.06,27.06,0,0,0,4.86,1.18A3,3,0,0,1,142,74.76a4.54,4.54,0,0,1,.36.48c1.42,2.64,3.79,3.06,6.44,2.72.6-.08.9,0,1.09.58a3.7,3.7,0,0,0,.59,1,.94.94,0,0,0,1.12.42,2,2,0,0,1,1.52.15,18.33,18.33,0,0,1,3.74,2.1,57.16,57.16,0,0,0,10.68,7.66,7,7,0,0,1-4.27-.6,22.27,22.27,0,0,1-3.66-2.44,7.44,7.44,0,0,0-3.32-1.74,3.39,3.39,0,0,1-1.86-1.2,9.56,9.56,0,0,0-4.05-2.84,7,7,0,0,1-2.31-1.64,4.62,4.62,0,0,0-3.33-1.2,4.79,4.79,0,0,1-2.63-.7c-1.7-1-3.43-1.89-5.12-2.88-.71-.42-1.21-1.14-2-1.5-1.76-.83-3.51-1.35-5.36-.28-.51.29-1,0-1.41-.14a22.09,22.09,0,0,0-8.76-1.26,13.36,13.36,0,0,1-3.19-.18c-.34-.07-.68-.12-1-.22-2.83-.85-3.84-3.25-2.42-5.84a6.58,6.58,0,0,1,4.68-3.63,5.61,5.61,0,0,0,3.67-2.24,5,5,0,0,1,4.16-2.09,6.5,6.5,0,0,0,4.92-2.16,4.13,4.13,0,0,1,3.06-1.41c1.69,0,3.39-.38,5,.22.28.1.4-.14.58-.28,3.28-2.46,6.7-3,10.51-1.12a6,6,0,0,1,3.33,3,2.57,2.57,0,0,1-.12,2.62,3.91,3.91,0,0,0-.85,2.23C151.28,61.1,150.34,61,149.57,61.39Z"/><path class="n" d="M176.73,194.29a70.16,70.16,0,0,1-15.74-2.6,1.1,1.1,0,0,1-.84-.86,7.07,7.07,0,0,1,.08-4.59,14.1,14.1,0,0,1,5.6-6.95c2.94-1.8,5.9-1.44,8.81,0,2.18,1.1,4.28,2.36,6.35,3.67.48.31.51.5.22,1a17.85,17.85,0,0,0-2.69,6.77,11.7,11.7,0,0,0-.1,2.76c.06.73-.19.9-.84.82A6.91,6.91,0,0,0,176.73,194.29Z"/><path class="n" d="M149.57,61.39c.59-.74,1.6-.54,2.31-1,.17.93.91,1.29,1.66,1.6a4.68,4.68,0,0,1,2.64,2.32,11.45,11.45,0,0,0-5.26.24,4.67,4.67,0,0,0-3.49,3,4.11,4.11,0,0,0,1.22,4.27,10.52,10.52,0,0,0,8.52,3,4.74,4.74,0,0,0,3.15-2c1-1.1,1-1.1,1.63.22,1,2.1,2,4.22,3,6.32s2.85,4,4.43,5.84a11.46,11.46,0,0,1,1.87,2.89c.09.22.35.47.13.7a1,1,0,0,1-.93.31,13.47,13.47,0,0,1-5-1.89,46,46,0,0,1-4.2-3.19c-.27-.21-.23-.36-.12-.63a3,3,0,0,0-1-3.75,3.66,3.66,0,0,0-4.47-.49,1.13,1.13,0,0,1-1.47.06,3.46,3.46,0,0,0-2.37-.65c-.45.08-.52-.25-.66-.53a4,4,0,0,0-.84-1.4,2,2,0,0,0-2.06-.22A3.91,3.91,0,0,1,144,75.24a16,16,0,0,0-2.4-2.48c-.23-.17-.24-.3-.14-.57,1.3-3.62-.27-6.44-4-7.31l-.41-.11a10.47,10.47,0,0,0,3.48-2.4c.24-.27.66-.05,1,0,1.93.3,3.85.8,5.83.46A3,3,0,0,0,149.57,61.39Z"/><path class="n" d="M183.16,182a70.08,70.08,0,0,0,3.64-11.24A54.38,54.38,0,0,0,188,154.18c-.39-4.68-.59-9.38-.91-14.06a117.93,117.93,0,0,0-1.54-13.22c0-.17,0-.34-.05-.54a1.43,1.43,0,0,1,1.53,1,38.36,38.36,0,0,1,2.81,9.86,175.87,175.87,0,0,1,2.31,25.37,91.2,91.2,0,0,1-.21,9.33,16.12,16.12,0,0,1-1.95,6.76,1.46,1.46,0,0,1-1.06.77,15,15,0,0,0-4.3,1.77C184.16,181.47,183.66,181.73,183.16,182Z"/><path class="n" d="M178.32,92.91A48.35,48.35,0,0,1,172,103.6a1.31,1.31,0,0,1-.6.47c-1.26.49-2.49,1.05-3.77,1.49-3.32,1.13-6-.14-8.25-2.48-2.05-2.12-3.52-4.71-5.38-7a71.64,71.64,0,0,1-4.26-6.61c-.81-1.24-.59-1.71.77-2.27a3.24,3.24,0,0,0,1.62-.92c.15-.2.37-.09.56,0a2.52,2.52,0,0,1,1.8,1.51c1.5,4.32,5.27,6.57,8.43,9.38.81.72,1.77,1.28,2.66,1.93.25.18.39.3.72,0a29.89,29.89,0,0,1,8.36-4.78C175.84,93.92,177,93.43,178.32,92.91Z"/><path class="b" d="M100.14,110.63c0-2.91-.07-5.59,0-8.26.09-3,.16-5.95.52-8.89a46.58,46.58,0,0,1,3.08-12.55,7.36,7.36,0,0,1,.94-1.65c1.17-1.52,2.71-1.41,3.53.31a15.42,15.42,0,0,1,1.61,7.26,34,34,0,0,1-4.37,15.3C103.92,105,102.07,107.71,100.14,110.63Z"/><path class="p" d="M184.43,55.92a64.53,64.53,0,0,1,7.59.35,43.16,43.16,0,0,1,8.09,1.33,4,4,0,0,1,2.37,1.47,2.63,2.63,0,0,0,1.61.94c.27.07.63.2.78-.13s-.18-.55-.46-.71L204,59a.78.78,0,0,1,.85-.29c1.74.22,3.5.36,5.22.7,2.1.41,3.93,1.36,4.52,3.63.68,2.61.4,5.05-1.73,7a2.33,2.33,0,0,1-3.09.17,18.85,18.85,0,0,1-1.86-1.55,30.69,30.69,0,0,0-9.59-5.72A13.89,13.89,0,0,1,194,60.33a16,16,0,0,0-9-4.12A.76.76,0,0,1,184.43,55.92Z"/><path class="b" d="M154.79,157.78A40.86,40.86,0,0,1,156.09,147,7,7,0,0,1,157,145a1.41,1.41,0,0,1,2.58-.08A10.39,10.39,0,0,1,161,148.8a44.11,44.11,0,0,1,.27,19.2,6.83,6.83,0,0,1-.9,2.32c-1,1.51-2.46,1.52-3.48,0a9.59,9.59,0,0,1-1.33-3.71A45.78,45.78,0,0,1,154.79,157.78Z"/><path class="b" d="M81,114.69c-.11-3.47-.09-6.89.09-10.31A66.18,66.18,0,0,1,83.86,87a30.9,30.9,0,0,1,2.28-5.3,5.77,5.77,0,0,1,.62-.93c.44-.52.88-.48,1.25.09a7.59,7.59,0,0,1,.87,2.51c1.14,5,.35,10-.92,14.86a64.33,64.33,0,0,1-6.57,15.8C81.27,114.28,81.13,114.48,81,114.69Z"/><path class="n" d="M152.83,84.89a21.06,21.06,0,0,1-8,2.86,27.14,27.14,0,0,1-5.16.44c-2.43,0-5-.83-5.78-4.27a25.94,25.94,0,0,0-1.07-3.46,7.93,7.93,0,0,0-2.8-3.86c-1.56-1.07-.7-2.46.39-3a4,4,0,0,1,4,.29c2.5,1.55,4.32,3.62,4.53,6.74a9,9,0,0,0,.27,1.53c.16.65.56.76,1.1.4a3.64,3.64,0,0,0,.6-.49c.42-.43.83-.88,1.25-1.32a2.8,2.8,0,0,1,3.89-.42,29.56,29.56,0,0,1,3.2,2.35c.83.77,2,.92,2.92,1.66C152.37,84.51,152.69,84.57,152.83,84.89Z"/><path class="b" d="M176.41,158.5a43.42,43.42,0,0,1,.45-5.42,10.05,10.05,0,0,1,1.21-3.39c1.31-2.2,3.25-2.2,4.55,0a12.76,12.76,0,0,1,1.48,5.1,33.67,33.67,0,0,1-.48,11.59,8.54,8.54,0,0,1-1.05,2.72,1.9,1.9,0,0,1-3.06.64,6.13,6.13,0,0,1-2.29-3.46A23,23,0,0,1,176.41,158.5Z"/><path class="q" d="M155.53,73.57a8.2,8.2,0,0,1-5.86-2.33,3,3,0,0,1,1-5.16,7.28,7.28,0,0,1,2.85-.6,9,9,0,0,0,2.73-.12c.57-.19,1.05.23,1.41.67a37.94,37.94,0,0,1,2.75,4.49.69.69,0,0,1-.13.86A5.21,5.21,0,0,1,155.53,73.57Z"/><path class="o" d="M175.74,118.27a80.56,80.56,0,0,1,11.89,1.6c1.81.36,3.6.77,5.41,1.13.49.1.51.21.29.65a13.79,13.79,0,0,1-1.47,2.73,3.48,3.48,0,0,1-3.65,1.4,18.1,18.1,0,0,1-5.95-2.24,28.21,28.21,0,0,1-5.67-4.08A3,3,0,0,1,175.74,118.27Z"/><path class="b" d="M119.9,117.7a8.58,8.58,0,0,0,7.16,5.53c.36.06.57.11.47.58a15.62,15.62,0,0,1-3.08,7.14c-1.48,1.79-2.71,1.63-3.49-.54a25,25,0,0,1-1.31-10.13C119.7,119.41,119.81,118.55,119.9,117.7Z"/><path class="o" d="M165.9,118a2.59,2.59,0,0,0,1.62.18c2.07-.18,4.15-.06,6.23-.07.51,0,.69.37.93.66a23.6,23.6,0,0,0,7,6c.79.42,1.62.75,2.43,1.11.17.08.33.15.27.36s-.22.16-.36.15c-6.15-.47-12-1.78-16.62-6.25A6,6,0,0,1,165.9,118Z"/><path class="b" d="M58,120.77c.22-3.16.48-6.11,2-8.78a9.84,9.84,0,0,1,1.85-2.48,4.3,4.3,0,0,1,1.61-1A1.78,1.78,0,0,1,66,110.59a8.35,8.35,0,0,1-1.4,3.86A25.57,25.57,0,0,1,58,120.77Z"/><path class="n" d="M183.44,68.66c.55-2.33,2.17-3.7,4.1-4.88-.72-.57-1.33-.13-2,.15a1.35,1.35,0,0,1,1.26-1.2,27.32,27.32,0,0,1,5.15.44.29.29,0,0,1,.2.12c.91,1.5,1.92,3,1.73,4.85-.06.57-.19.82-.85.66a23.18,23.18,0,0,0-2.73-.43,3.59,3.59,0,0,0-1.95.27,2.62,2.62,0,0,1-1.93.12A15.08,15.08,0,0,0,183.44,68.66Z"/><path class="q" d="M136.17,66a5.23,5.23,0,0,1,4,1.8,3.23,3.23,0,0,1-.07,4.14c-.17.18-.38.08-.57.06a14.69,14.69,0,0,1-5.46-1.8c-.61-.32-1.21-.67-1.8-1s-.79-.8-.26-1.44a5.4,5.4,0,0,1,3.25-1.65A8.14,8.14,0,0,1,136.17,66Z"/><path class="o" d="M206,123.14c-3.77,1.72-7.36,3.06-11.3,3.1l-.6,0c-1.78-.12-1.87-.3-1.05-1.77a8.69,8.69,0,0,0,1.25-2.82c.08-.54.44-.27.65-.22,2.37.49,4.74.93,7.13,1.26C203.27,122.82,204.5,123,206,123.14Z"/><path class="n" d="M132.74,83.86c.13.51-.17.51-.53.38a1.91,1.91,0,0,1-.83-.74c-.37-.51-.76-1-1.1-1.55a8.13,8.13,0,0,0-4-3.36A3.38,3.38,0,0,1,124,75.09c0-1.35-.08-1.34,1.25-1.14.82.12,1.66.2,2.49.29.21,0,.5-.07.46.32-.2,1.6.76,2.58,1.84,3.5A8,8,0,0,1,132.74,83.86Z"/><path class="b" d="M128.57,117.13a14,14,0,0,1-.16,2.32c-.07.54-.33.68-.8.66l-.17,0c-3.24-.3-4.31-1.32-3.49-5.6a3.4,3.4,0,0,1,1.51-2.41,1.35,1.35,0,0,1,2.19.63A9.53,9.53,0,0,1,128.57,117.13Z"/><path class="r" d="M190.44,73.28,187,72.51c0-.46-.36-.55-.74-.52a9.11,9.11,0,0,1-2.78-.54c-.65-.16-.65-.58-.63-1.09s.48-.43.82-.48.58,0,.86-.07c.47-.1.72,0,.8.55a1.32,1.32,0,0,0,2.47.25c.33-1.1,1.17-1,2-1,.29,0,.48.08.43.46a1.82,1.82,0,0,0,1.62,2.26A3.34,3.34,0,0,1,190.44,73.28Z"/><path class="s" d="M191.56,61.81a12.32,12.32,0,0,1-3.22-1.15c-1.14-.48-2.27-1-3.39-1.51a5.88,5.88,0,0,0-2.95-.5c-1.81.15-2.49.84-2.57,2.64a2.17,2.17,0,0,1,.41-3.15,5,5,0,0,1,4.77-.61,12.88,12.88,0,0,1,3,1.59Z"/><path class="t" d="M123.18,76.2c-1.17-.31-2.3-.55-3.39-.9a1.75,1.75,0,0,1-1.35-1.88c0-.33.08-.41.38-.37l4.19.61c.21,0,.39.05.28.37A9.7,9.7,0,0,0,123.18,76.2Z"/><path class="u" d="M169.74,106c-.29.42-.44.66-.62.88l-2.75,3.26c-.24-1-.43-1.86-.65-2.73,0-.17,0-.26.15-.3C167.12,106.95,168.28,106.41,169.74,106Z"/><path class="v" d="M156.55,80.28A2.56,2.56,0,0,1,160,81.74a.94.94,0,0,1-.19,1c-.23.16-.48-.21-.7-.37A19.86,19.86,0,0,1,156.55,80.28Z"/><path class="w" d="M204.26,125.21c2.07-.69,3.86-2.13,6.14-2.27a15.57,15.57,0,0,1-5.92,2.42C204.3,125.45,204.25,125.37,204.26,125.21Z"/><path class="x" d="M226,132.77a10.69,10.69,0,0,1,.11,1.16c0,.32.1.8-.28.88a.92.92,0,0,1-1-.64.75.75,0,0,1,.33-1C225.45,133,225.72,132.91,226,132.77Z"/><path class="y" d="M225.13,131.19c.33,0,.68,0,.63.35-.07.52-.59.55-1,.68s-.47,0-.42-.35A.8.8,0,0,1,225.13,131.19Z"/><path class="z" d="M129.41,69.21l-.52-.33a1.46,1.46,0,0,0,1.51-.55C130.37,69.09,129.76,69,129.41,69.21Z"/><path class="aa" d="M184,64.37c-.41-.37-1,0-1.4-.33.46,0,.91,0,1.37,0S184.11,64.25,184,64.37Z"/><path class="ab" d="M203.73,125.54c-.17.21-.37.19-.64,0l.65-.22s.06.08,0,.12S203.75,125.54,203.73,125.54Z"/><path class="ac" d="M203.73,125.54v-.18l.51-.16.22.16A1.22,1.22,0,0,1,203.73,125.54Z"/><path class="ad" d="M232.52,172.63h.77c.14,0,.31,0,.31.19a.24.24,0,0,1-.28.25c-.7-.07-.45.46-.52.8s.27,1.26-.23,1.25-.19-.82-.28-1.27.11-.85-.56-.78a.23.23,0,0,1-.28-.24c0-.2.16-.2.3-.2Z"/><path class="b" d="M134.24,150c0-1.32,0-2.65,0-4,0-.62.2-.78.79-.73a9,9,0,0,1,2.28.44,4,4,0,0,1,2.7,5,5.14,5.14,0,0,1-4.55,4.08c-1,.07-1.09,0-1.09-1q0-1.9,0-3.8Z"/><path class="ae" d="M117.35,65.21c-.16-1,.16-1.45,1.2-1.71,3.89-1,5.94,2.63,5.46,5.26a2.86,2.86,0,0,0-.1.5c0,.34-.15.44-.47.45s-.42-.18-.41-.48a5.24,5.24,0,0,0-.23-1.7A3.59,3.59,0,0,0,118,65Z"/></svg>