<svg xmlns="http://www.w3.org/2000/svg" viewBox="0 0 250 250"><title>Casual dining</title><path d="M45.37,112.7c-.29.66-.62,1.31-.88,2A21.64,21.64,0,0,1,43,118c-.51.85-.65,1.84-1.14,2.67-.93,1.6-1.45,3.37-2.21,5-.14.3-.26.62-.4.92-.07.14-.09.36-.31.35s-.24-.23-.3-.37c-.79-1.65-1.57-3.3-2.36-4.95a7.63,7.63,0,0,0-.74-1.45c-1.63-2.08-2.27-4.65-3.55-7a8,8,0,0,1,.15,2.31c-.06,1.69.15,3.38.14,5.07q0,2.77,0,5.54c0,.35-.13.42-.45.42q-3.19,0-6.37,0c-.36,0-.47-.1-.47-.47,0-2.37-.06-4.75.06-7.11,0-.54,0-1.12.1-1.68,0-.28-.1-.59-.09-.93,0-5.19.06-10.38.07-15.56,0-.71,0-1.43,0-2.14,0-.47.15-.56.58-.56q3.11,0,6.22,0a.58.58,0,0,1,.64.44c1.12,3.05,2.74,5.89,3.91,8.93.45,1.16,1,2.28,1.44,3.46a24.65,24.65,0,0,1,1,2.82,6.54,6.54,0,0,0,.66-1.51,14.13,14.13,0,0,1,1.05-2.41c.72-1.58,1.53-3.14,2.15-4.76s1.49-3.08,2.2-4.64c.23-.52.26-1.21.9-1.56a1.19,1.19,0,0,1,.6-.23c2,0,4.06,0,6.09,0,.4,0,.5.12.5.51,0,3.52,0,7,0,10.57,0,1.59,0,3.18,0,4.77a5.14,5.14,0,0,1-.2,1.79c-.18.48.09.76.09,1.13q-.05,4.17,0,8.33c0,.5-.15.6-.62.59-1.31,0-2.62.07-3.92,0-.88-.07-1.78-.07-2.66-.23-.26,0-.24-.21-.23-.37a16.78,16.78,0,0,1,.14-2.59,11.14,11.14,0,0,0-.1-1.51c.07-1.55-.06-3.09,0-4.64.05-.92-.2-1.88-.21-2.83C45.38,113.6,45.62,113.18,45.37,112.7Zm-17.09,2.75s-.07.12-.06.13c.45.43-.13.5-.25.73s-.06.23,0,.29a.49.49,0,0,0,.3,0c.18,0,.09-.12,0-.21-.17-.25.14-.17.2-.26s.32-.11.25-.27A.88.88,0,0,0,28.28,115.46Z" style="fill:#6e1e1f"/><path d="M167.7,98.09c.25.18-.11.5.15.6.47.19.94.57,1.45.37a1,1,0,0,1,.73,0c.32.08.67.31,1,.07.21-.13.34.08.5.16.35.16.66.43,1.12.05s.62.23.66.48.07.23.24.31a6.62,6.62,0,0,1,3.56,3.45,11.15,11.15,0,0,1,.69,5.74,8.22,8.22,0,0,1-2.11,4.39,5.83,5.83,0,0,1-2.11,1.47c-.62.29-.66.44-.3,1a11.87,11.87,0,0,1,1.53,2.95c.07.23.31.23.4.45a37.43,37.43,0,0,0,1.79,3.72,22.08,22.08,0,0,1,1.41,2.65h-7.29c-1.52,0-1.49,0-2.05-1.41-.78-1.92-1.59-3.81-2.53-5.66-.35-.69-.71-1.38-1-2.09-.1-.23-.18-.33-.43-.33q-1.15,0-2.31,0c-.29,0-.41.08-.41.4,0,2.46,0,4.91,0,7.37a5.77,5.77,0,0,1-.06,1.93c0,.14-.16.31.09.32s.51.16.59-.17-.18-1,.39-1.26c0,0,0-.16,0-.17-.57-.19-.32-.66-.33-1-.09-2.07.22-4.13.12-6.19,0-.36.13-.44.45-.42s.6,0,.9,0c.76,0,1,.48.72,1.21a1.51,1.51,0,0,0,0,.57c0,2.71,0,5.43,0,8.14,0,.43-.09.62-.56.58-2.27-.21-4.55-.12-6.83-.13-.36,0-.45-.15-.41-.46s-.13-.47-.48-.46c-.66,0-1.33,0-2,0-.49,0-.5-.22-.49-.58.06-4.1,0-8.19,0-12.29,0-2.62,0-5.24,0-7.86,0-2.12,0-4.25,0-6.37,0-.62.32-.7.77-.7,1.84,0,3.69.06,5.52,0,.73,0,1.44.1,2.16,0s1.58,0,2.37,0c.25,0,.6.22.76-.23,0-.12.13,0,.2.1a.54.54,0,0,0,.91-.25C167.25,98.21,167.49,98.18,167.7,98.09Zm-5.28,9.17c0,.83,0,1.66,0,2.5,0,.4.11.51.5.5,1.49,0,3,0,4.48,0a3.14,3.14,0,0,0,1.93-.62,3,3,0,0,0,.92-2.93,2.51,2.51,0,0,0-2-2.2c-1.75-.08-3.5.1-5.24-.15-.46-.07-.58.13-.56.57C162.44,105.68,162.42,106.47,162.42,107.26Zm9.21-7.28c0-.44-.21-.62-.59-.51a1.69,1.69,0,0,0-1,.93c0,.09,0,.18,0,.21s.23.06.28,0,.17-.34.35-.06.22.07.29,0,.15-.4.46-.28C171.56,100.22,171.67,100.1,171.63,100Zm-4.76.16a.54.54,0,0,0-.21.42c0,.27.22.18.37.2s.29-.08.29-.29S167.07,100.25,166.87,100.14Z" style="fill:#6e1e1f"/><path d="M211.74,118.6a40.55,40.55,0,0,1-5.46-1.37c-.43-.15-1.13-.23-1.06-1,0-.17-.33-.36-.48,0-.08.2-.2.26-.32.15-.54-.51-1.33-.66-1.81-1.26-.06-.08-.16-.14-.14-.27a.23.23,0,0,1,.29,0A17.5,17.5,0,0,0,206.3,116a18.83,18.83,0,0,0,3.38.67,10.15,10.15,0,0,1,2.34,1c0-.67-.3-1.08-1.15-1.36a17.94,17.94,0,0,0-2.72-.75c-1-.17-2-.45-3-.72a17.45,17.45,0,0,1-2.88-.85c-1.77-.82-3.37-1.82-4.06-3.8a10.25,10.25,0,0,1-.29-6.24,6.81,6.81,0,0,1,2.29-3.55,9,9,0,0,1,3.4-1.86,20.15,20.15,0,0,1,7.05-.58,45.61,45.61,0,0,1,4.61.68,9.43,9.43,0,0,1,2.72,1.11c.53.3,1,.68,1.53,1,.26.15.32.32.18.56-.83,1.46-1.64,2.93-2.52,4.37a8.94,8.94,0,0,0-.76,1.18c-.17.4-.43.14-.61,0a12.43,12.43,0,0,0-4.35-1.9,11,11,0,0,0-4.33-.2,1.74,1.74,0,0,0-1.33,1.27,1.5,1.5,0,0,0,.91,1.39,13,13,0,0,0,3.43,1,10.15,10.15,0,0,1,3,.82,4.49,4.49,0,0,0,.85.2c.27.09.63.2.1.55a6.4,6.4,0,0,1,4.56,2.13,6.72,6.72,0,0,1,1.84,4.54,11.81,11.81,0,0,1-.47,4.56,6.89,6.89,0,0,1-2.54,3.39,10.14,10.14,0,0,1-5.51,1.85,32.47,32.47,0,0,1-3.63.09,22.45,22.45,0,0,1-7-1.32A34.67,34.67,0,0,1,197,123c-.41-.21-.42-.46-.19-.74.63-.77.81-1.83,1.62-2.49.18-.14.1-.44.29-.61s.38.44.53,0c0-.09-.35-.2-.29-.46a4.94,4.94,0,0,1,1-1.93c.2-.27.58-.13.81.05a12.76,12.76,0,0,0,4.68,2.07,11.56,11.56,0,0,0,5.55.2C211.33,119,211.71,119,211.74,118.6Z" style="fill:#6e1e1f"/><path d="M140.82,126.24c-2.16,0-4.32.07-6.47,0s-4.13-.11-6.19-.1c-.53,0-.58-.3-.58-.69q0-2,0-4,0-8,0-15.9c0-2.16,0-4.32,0-6.48,0-.46.13-.58.57-.56,1.11,0,2.22,0,3.33,0,.22,0,.51-.14.6.27,0,.16.37.17.35,0-.06-.5.27-.35.49-.35h15.38c.34,0,.76-.12.38.51-.16.26,0,.73,0,1.1a10.73,10.73,0,0,0-.14,1.8,13.37,13.37,0,0,1,.14,2c.05,1.14,0,1.14-1.11,1.14-4,0-7.9,0-11.86,0-.46,0-.64.09-.62.59,0,1,0,2,0,3,0,.4.08.55.52.55,2.32,0,4.64,0,7,0,.47,0,.62.11.61.6,0,1.66,0,3.32-.13,5,0,.32-.09.45-.43.44-2.2,0-4.4,0-6.59,0-.29,0-.58,0-.87,0s-.32.12-.32.35c0,1.31,0,2.62,0,3.92,0,.41.23.37.5.37h3.85c3.06,0,6.11,0,9.16,0,.46,0,.62.1.61.59,0,1.84,0,3.67,0,5.51,0,.47-.16.56-.58.55C145.87,126.23,143.34,126.24,140.82,126.24Zm-7.35-18.74c.1.37.57,0,.56.37,0,.17-.21.35.1.43.06,0,.19,0,.21-.08.07-.21,0-.47.19-.65C134.17,107.62,133.84,107,133.48,107.5Z" style="fill:#6e1e1f"/><path d="M77.08,117.75a1.74,1.74,0,0,1-.38-.2c-.06-.06-.09-.16-.19-.12s-.11.16,0,.25.07.21-.09.22-.24.06-.29-.06-.26-.54-.17-.7a2,2,0,0,0,.12-1.06q0-8.43,0-16.85c0-.53.13-.68.67-.67,2.18,0,4.36,0,6.53,0,.46,0,.69.09.61.59,0,.15,0,.3,0,.45,0,.48,0,.83.65.54.36-.16.74.11,1.12.12.22,0,.16.23.15.36-.06,1.79.06,3.57-.09,5.36-.11,1.32,0,2.68,0,4,0,1.61.22,3.21.08,4.82a2,2,0,0,0,.06.94c.17.42-.32.27-.47.53.63-.07.61.23.42.64a1,1,0,0,0,0,.38,2.78,2.78,0,0,1,0,1.08c-.18.38-.65.1-1,.16-.14,0-.2.13-.3.19-.25.15-.44.12-.44-.25,0-3.07,0-6.14,0-9.21a16.67,16.67,0,0,1,.05-2.41h-.17c0,.15,0,.29,0,.44,0,1.67,0,3.33,0,5a31.59,31.59,0,0,1-.19,3.33c-.09,1,0,2-.09,3,0,.23-.39.29-.16.68s.27.31.55.27a3.17,3.17,0,0,1,1.84.12c.09,0,.19.05.23,0,.28-.53.78-.3,1.16-.3,2.63,0,5.25,0,7.88,0,.43,0,.59.09.58.56q0,2.85,0,5.7c0,.44-.14.55-.55.52-1.51-.11-3-.11-4.55-.07-4.76.13-9.51,0-14.26.06-.88,0-.88,0-.88-.87,0-.69,0-1.38,0-2.08,0-.41,0-.85.49-1,.05,0,.14-.08.13-.11-.13-.61.43-1.28-.14-1.85-.07-.07-.09-.1,0-.19.29-.35.29-.41-.08-.69-.13-.1-.18-.23-.08-.29C76.25,118.71,76.35,118,77.08,117.75Z" style="fill:#6e1e1f"/><path d="M100.91,122.75c-.06-2.91.22-5.81.13-8.72,0-.19-.07-.41.26-.48s.13-.27,0-.41A1.68,1.68,0,0,1,101,112c.17-4.26.12-8.53.13-12.79a7.62,7.62,0,0,1,.13-.94c0-.27.24-.19.39-.2a35.56,35.56,0,0,1,4,.1A2.29,2.29,0,0,0,107,98c.21-.1.88.26,1.29.13.84-.26.76.23.75.75s0,1,0,1.5c0,.16.12.41-.2.45-.11,0-.14.06-.08.16.63,1.07.22,2.24.26,3.36.07,1.83-.17,3.67-.11,5.51,0,.27.14.57-.21.82s.25.22.22.46c-.12,1.22.24,2.47-.21,3.66-.12.32.19.39.19.59a23.45,23.45,0,0,1,0,2.76,5,5,0,0,0,.19,1.29c0,.23.28.13.44.13.85,0,1.71,0,2.56,0,.34,0,.64,0,.69.44a.19.19,0,0,0,.26.19c.19,0,.14-.16.08-.29-.15-.34.08-.34.31-.34,2.5,0,5,.1,7.49.12.38,0,.31.25.33.47.09,1.43-.14,2.84-.13,4.27,0,.53,0,1.07,0,1.6,0,.34-.1.45-.44.43-2.09-.17-4.18,0-6.26-.16s-4.13,0-6.19-.12a5.82,5.82,0,0,0-2,0c-1.58.58-3.16.07-4.72.28-.48.06-.67-.08-.65-.61C100.94,124.85,100.91,123.8,100.91,122.75Z" style="fill:#6e1e1f"/><path d="M67.65,106.73c0,2.73-.06,5.47,0,8.19,0,.78.11,1.57.11,2.36,0,2.61,0,5.22,0,7.83,0,.52-.15.63-.64.63q-3.36,0-6.72,0c-.44,0-.55-.11-.58-.56a48.4,48.4,0,0,1-.23-5.72c.07-1.32.06-2.65.05-4,0-1.52.07-3-.06-4.57a1.18,1.18,0,0,1,.21-1c.14-.16-.11-.35-.1-.56.06-2.6,0-5.2.05-7.8,0-1,0-2,0-3,0-.38.08-.52.49-.51q3.46,0,6.92,0c.43,0,.53.13.53.54,0,2.71,0,5.42,0,8.13Z" style="fill:#6e1e1f"/><path d="M110.14,144.72c0-2.63,0-5.26,0-7.88,0-.63.18-.9.84-.83a8.61,8.61,0,0,0,1.47,0c.4,0,.5.12.5.51,0,2,0,4,0,6,0,.48.12.61.6.6,1.86,0,3.72,0,5.58,0,.5,0,.67-.16.66-.66,0-1.94,0-3.89,0-5.83,0-.44.1-.59.56-.58,1,0,1.92,0,2.88,0,.37,0,.53.07.52.49-.11,2.79.2,5.58.12,8.37-.06,2.3.05,4.59.12,6.89,0,.46-.1.92-.11,1.37,0,.24-.16.16-.25.16h-3.33c-.27,0-.38-.07-.38-.36q0-1.83,0-3.65c0-1.12,0-2.24,0-3.36,0-.26-.12-.32-.35-.32-2.07,0-4.14,0-6.22,0-.46,0-.38.28-.38.55,0,2.14,0,4.27,0,6.41,0,.64-.18.81-.78.75a7.94,7.94,0,0,0-1.47,0c-.46,0-.57-.13-.56-.57C110.15,150.06,110.14,147.39,110.14,144.72Z" style="fill:#6e1e1f"/><path d="M141.65,135.39a6.64,6.64,0,0,1,6.16,3,7.3,7.3,0,0,1,1.3,3.5,5.21,5.21,0,0,0,.3,2c.13.25,0,.37-.22.5s-.37.45,0,.68a.48.48,0,0,1,.17.51,9.89,9.89,0,0,1-.68,3.12,2.44,2.44,0,0,1-.55.85c-.16.15-.24.7-.45,0,0-.12-.16,0-.24.05s-.37.06-.24.29c.29.55-.36.74-.46,1.18a1.12,1.12,0,0,1-1.16.71c-.16,0-.36,0-.41.13-.29.66-.93.61-1.46.7a9.27,9.27,0,0,1-4.38-.17,6.65,6.65,0,0,1-4.17-4.05,11.76,11.76,0,0,1-.73-5.33,10.84,10.84,0,0,1,.59-3.43,6.73,6.73,0,0,1,3.29-3.66A5.3,5.3,0,0,1,141.65,135.39Zm0,2.65a4.1,4.1,0,0,0-4.1,3.21c-.13.56-.19,1.11-.28,1.67a8.52,8.52,0,0,0,1,5.5c.82,1.5,3.81,2.31,5.38,1.54a4.57,4.57,0,0,0,2.28-2.59,10.47,10.47,0,0,0,.38-5.38C145.89,139.2,144.07,138.23,141.64,138Zm4.17,11.81c.29-.13.67.25.82-.16.05-.14-.17-.55-.29-.56C145.85,149.06,146.1,149.65,145.81,149.84Z" style="fill:#6e1e1f"/><path d="M213.13,134.86c1.71,0,3.42,0,5.12,0,.42,0,.62.07.59.55-.05.63.2,1.47-.12,1.86s-1.2.12-1.83.13c-1.67,0-3.33,0-5,0-.42,0-.6,0-.54.6a21.64,21.64,0,0,1,0,3.1c0,.44.1.6.56.58,1,0,1.92,0,2.88,0,.4,0,.58.08.55.52a13.61,13.61,0,0,0,0,1.6c0,.42-.14.57-.56.56-1,0-2,0-3,0-.33,0-.39.13-.39.42,0,1.48,0,3,0,4.45,0,.34.11.44.44.44,1.8,0,3.6,0,5.4,0,.58,0,1.15-.09,1.73-.12.34,0,.54,0,.43.5a5.11,5.11,0,0,0,0,1.53c0,.46-.19.6-.55.49s-.84,0-1.16-.32a.25.25,0,0,0-.24,0,4.94,4.94,0,0,1-2.32.21c-2.38.06-4.77,0-7.15,0-.44,0-.65-.06-.62-.58.26-5.32.09-10.64.13-16,0-.39.1-.51.5-.51C209.67,134.87,211.4,134.86,213.13,134.86Z" style="fill:#6e1e1f"/><path d="M41.48,152.52c-.89,0-1.79,0-2.67,0-.61,0-.62-.7-.66-1.1a1.43,1.43,0,0,0-.52-1.18,2.22,2.22,0,0,1-.5-1.2c-.1-.4-.3-.49-.67-.49-1.54,0-3.08,0-4.61,0a8.64,8.64,0,0,0-1.57,0,.59.59,0,0,0-.54.49c-.28,1-.6,2-.86,2.95-.09.34-.24.41-.56.45a17.57,17.57,0,0,1-2,.12c-.49,0-.56-.12-.39-.59.53-1.52,1.06-3,1.61-4.56s.84-2.8,1.34-4.17a11.49,11.49,0,0,0,.67-2,.54.54,0,0,1,.16-.34c1.16-.76,1-2.14,1.46-3.22.32-.76.62-1.54.86-2.34.07-.23.23-.26.44-.25.77,0,1.54,0,2.31,0s.71.6.82,1a53.53,53.53,0,0,0,1.93,5.47c.13.28-.11.31-.23.43s-.28.18-.2.36.23.1.34.08c.55-.07.53.39.63.7.28,1,.49,1.95.8,2.9.52,1.6,1.08,3.2,1.68,4.78.22.58.09,1.42,1.07,1.55Zm-6.41-6.43c-.51-2.47-1.47-4.8-2.16-7.23-.13.61-.42,1.12-.54,1.73a12.07,12.07,0,0,1-1.24,3.91c-.24.41-.22.88-.46,1.28-.12.21,0,.32.23.37.79.14,1.62-.25,2.38.2C33.82,145.91,34.45,146.27,35.07,146.09Z" style="fill:#6e1e1f"/><path d="M80,137.91c-1.26,0-2.52,0-3.78,0-.39,0-.57.07-.56.52,0,1,0,2,0,3,0,.42.16.46.52.49,1.33.13,2.64-.17,4-.15.5,0,.7.14.66.66a12.34,12.34,0,0,0,0,1.6c0,.4-.19.54-.52.54a12.83,12.83,0,0,1-2.44,0c-.56-.1-1.11,0-1.66-.09-.36,0-.53,0-.53.48,0,1.53.22,3,.14,4.58,0,.48.32.36.57.36,2.56,0,5.13,0,7.69,0,.59,0,.8.15.72.74s0,1-.09,1.45-.29.51-.66.49c-1.34-.07-2.69-.1-4-.06-2.17.06-4.34,0-6.51.07-.5,0-.65-.11-.64-.63.07-2.58,0-5.16.05-7.74,0-2.34,0-4.68,0-7,0-.52,0-1,0-1.57,0-.13,0-.42.17-.3.38.25.68,0,1,0q4.88,0,9.76,0c.45,0,.61.11.57.57a9.31,9.31,0,0,0,0,1.47c0,.49-.09.67-.62.65C82.47,137.88,81.21,137.91,80,137.91Z" style="fill:#6e1e1f"/><path d="M170.27,141.47c0-2.11,0-3.84,0-5.57,0-.42.12-.55.54-.53.62,0,1.24,0,1.86,0,.37,0,.54.11.54.51,0,1.84.05,3.68,0,5.51a9.22,9.22,0,0,1-.14,2.4c-.55,1.64-.15,3.41-.76,5a5.88,5.88,0,0,1-4.37,4c-.2,0-.88.43-.75-.41,0,0-.27-.3-.48-.13s-.49,0-.34.3-.06.25-.23.27a5.51,5.51,0,0,1-4.78-1.37,6.27,6.27,0,0,1-1.81-3.72,22.7,22.7,0,0,1-.12-4.59c.11-2.38.11-4.77.1-7.15,0-.38.14-.47.48-.45a17.48,17.48,0,0,0,1.79,0c.53,0,.64.23.66.68,0,.73-.06,1.46,0,2.19.07,1.53,0,3.07,0,4.6,0,1,0,2.07,0,3.1a5.09,5.09,0,0,0,.81,2.61,3.16,3.16,0,0,0,1.92,1.31,5.48,5.48,0,0,0,2.7,0,3.79,3.79,0,0,0,2.31-2.77C170.41,145.17,170.17,143.13,170.27,141.47Z" style="fill:#6e1e1f"/><path d="M192.13,143.53c.5-.52.83-.21,1.24-.12a4.43,4.43,0,0,1,2.65,1.83,2.85,2.85,0,0,1,.53,3c-.09.18,0,.42-.08.63s-.16.75-.67.44c-.1.28.11.34.21.47s.17.3,0,.31c-.55,0-.36.57-.57.76a5.85,5.85,0,0,1-1.64,1.28,7.5,7.5,0,0,1-2.54.6c-1.93.08-3.85.08-5.59-1.06-.69-.45-1.24-1-1.89-1.5a.26.26,0,0,1,0-.43,8.93,8.93,0,0,0,1.42-1.37c.23-.24.4-.21.64,0a7.62,7.62,0,0,0,2.88,1.54,8.59,8.59,0,0,0,3.55.13c.69-.06,1.53-1.1,1.65-1.94a1.86,1.86,0,0,0-1.11-2,13.62,13.62,0,0,0-3.35-1,10,10,0,0,1-3.43-1.32,4.11,4.11,0,0,1-1.64-4.34c.38-2.12,1.74-3.16,3.72-3.69a8.19,8.19,0,0,1,6.33.79c.22.12.42.29.62.43,1.24.85.8,1,0,1.78l-.05,0c-1,1.44-1.81.07-2.69-.22-1.51-.49-3-.91-4.51.1a1.68,1.68,0,0,0-.13,2.61,6.15,6.15,0,0,0,2.62,1.13,6.46,6.46,0,0,0,1.28.31C192,142.72,192.27,143,192.13,143.53Z" style="fill:#6e1e1f"/><path d="M51,147.36q0-2.21,0-4.42c0-2.33,0-4.66,0-7,0-.37.12-.47.47-.46,1.09,0,2.18,0,3.27,0,.43,0,.49.17.48.53-.08,1.75-.06,3.51,0,5.26,0,2.72,0,5.45,0,8.17,0,.44.2.54.59.54,1.2,0,2.39,0,3.59,0,1,0,1.95.08,2.92.12.18,0,.36,0,.34.26a5.3,5.3,0,0,1-.09,1.62s-.1,0-.1.07c0,.71,0,.71-.69.71-2.48,0-5,.05-7.43,0-.92,0-1.84,0-2.76,0-.44,0-.58-.1-.58-.56C51.06,150.61,51,149,51,147.36Z" style="fill:#6e1e1f"/><path d="M68.61,123c.09-.9,0-2,.08-3.11.06-.92,0-1.86,0-2.78a10.2,10.2,0,0,0-.15-2.45,5.61,5.61,0,0,1-.09-1.33c0-4.25,0-8.5,0-12.75,0-.5.12-.65.63-.64,1.27,0,1.21,0,1.29,1.26.28,4.63,0,9.26.11,13.89,0,2.55,0,5.11,0,7.66,0,1.07,0,2.14.11,3.21,0,.54-.17,1-.15,1.58,0,.27-.22.21-.38.21-1.52,0-3,0-4.57,0-.86,0-1.72,0-2.58,0-.71,0-.29-.49-.37-.74s0-.5.42-.49c1.61,0,3.22,0,4.83,0,.58,0,.81-.13.78-.75C68.57,124.94,68.61,124.08,68.61,123Z" style="fill:#6e1e1f"/><path d="M221.32,115a4.6,4.6,0,0,1,1.33,2,10.43,10.43,0,0,1,.54,3.21,2.11,2.11,0,0,1-.33,1.26,5.73,5.73,0,0,0-.29,1.55,5.6,5.6,0,0,1-1.9,3.37A6.55,6.55,0,0,1,218.2,128a6.79,6.79,0,0,0-1.35.6,4.9,4.9,0,0,1-1.87.36,22.56,22.56,0,0,1-3.55.15,1.19,1.19,0,0,0-.89.16c-.18.13-.69-.14-1.06-.21-1-.19-2-.22-3-.47a21.6,21.6,0,0,1-6.49-2.45c-.15-.1-.2-.17-.11-.34s.16-.28.43-.19a21.39,21.39,0,0,0,3,.88,28.64,28.64,0,0,0,5.49.73,23.15,23.15,0,0,0,6.53-.79,9.22,9.22,0,0,0,3-1.59,7.9,7.9,0,0,0,2.87-4.72,9.1,9.1,0,0,0,.09-4.31,1,1,0,0,1,0-.25C221.3,115.41,221.31,115.29,221.32,115Z" style="fill:#6e1e1f"/><path d="M55.37,106.34c0,1.82,0,3.63,0,5.45,0,.53-.07,1.07-.08,1.59a38.16,38.16,0,0,1,0,4.38,12.62,12.62,0,0,0,.05,2c0,.25.13.56-.23.71,0,0-.08.13-.07.15.73.78.16,1.65.18,2.47,0,1.41,0,2.82,0,4.23,0,.68-.2.8-.82.78-2,0-4,0-6,0-.28,0-.62,0-.51-.4.07-.27-.33-.72.42-.78,1.52-.12,3-.06,4.56-.06.53,0,.67-.14.67-.67,0-2.54,0-5.07,0-7.61a40.48,40.48,0,0,0-.07-4.72,30.06,30.06,0,0,1-.08-4.66c.16-2.86.06-5.71.09-8.56,0-.36.11-.47.47-.47,1.31,0,1.3,0,1.3,1.23Q55.37,103.84,55.37,106.34Z" style="fill:#6e1e1f"/><path d="M140.48,128.55c-3.35,0-6.7,0-10.06,0-.52,0-.7-.11-.68-.66,0-1.12,0-1.12,1.1-1.12,6,0,12.09,0,18.13,0,.53,0,.69-.13.67-.67,0-1.19,0-2.39,0-3.59,0-.38.08-.55.49-.51s1-.18,1.3.09,0,.83,0,1.26a26,26,0,0,0-.11,4.39c0,.68-.2.79-.82.78C147.14,128.54,143.81,128.55,140.48,128.55Z" style="fill:#6e1e1f"/><path d="M181,109.12a8.22,8.22,0,0,1-.93,4.32,7.14,7.14,0,0,1-3,3.08,5.17,5.17,0,0,0-.82.55c-.26.23,0,.72.23,1a1.82,1.82,0,0,1,.41,1.51c0,.18-.05.34-.25.38s-.28-.07-.35-.21c-.69-1.31-1.37-2.63-2.09-3.93-.2-.37,0-.44.25-.56a8,8,0,0,0,4-4.93,6.84,6.84,0,0,0,.32-2,17.35,17.35,0,0,0-.27-4.37,15.44,15.44,0,0,0-.66-1.76c-.06-.14-.17-.29,0-.4s.27,0,.39.13a7.15,7.15,0,0,1,2.74,5.15C180.95,107.77,181,108.44,181,109.12Z" style="fill:#6e1e1f"/><path d="M122.8,121.79a2.94,2.94,0,0,0,.45,0c.46-.07.52.21.44.53a13.12,13.12,0,0,0,0,2.38c0,1.11,0,2.23-.1,3.34,0,.14,0,.33-.38.35-1,.06-2.05.06-3.08.05-3.51,0-7,0-10.52,0a10.82,10.82,0,0,1-2.51-.23c-.33-.08-.62.12-.94.13-.77,0-1.52-.13-2.28-.17s-.28-.67-.36-1,.24-.36.46-.31a18.85,18.85,0,0,0,3.56.11c1.73,0,3.46,0,5.19,0s3.22,0,4.84.05c1.21,0,2.44.15,3.66.08.47,0,.63-.17.63-.64,0-1.2,0-2.41,0-3.61C121.81,121.79,121.81,121.79,122.8,121.79Z" style="fill:#6e1e1f"/><path d="M86.78,126.78h8.07c1.32,0,1.32,0,1.32-1.3s0-2.35,0-3.52c0-.37,0-.69.53-.52a2.85,2.85,0,0,0,.93,0c.29,0,.51.13.42.41a5.3,5.3,0,0,0,0,1.42,30,30,0,0,0-.12,3.44c0,.4.07.83.12,1.25s-.08.37-.36.37a39.42,39.42,0,0,1-4.65-.19,26.31,26.31,0,0,0-3.21-.06,1.29,1.29,0,0,1-.95-.32c-.18-.15-.33.49-.76.46-.74-.05-1.49,0-2.24,0-2.5,0-5,0-7.5,0-.62,0-.57-.3-.56-.7s-.08-.72.56-.71C81.18,126.81,84,126.78,86.78,126.78Z" style="fill:#6e1e1f"/><path d="M209.05,105.51c2.65-.22,4.84,1,7,2.27.78.48.73.49,1.18-.29.77-1.32,1.55-2.64,2.44-3.89a1.53,1.53,0,0,0,.11-.22c.48-1,.48-1,1.48-.44.24.13.45.3.68.46.94.63,1,.64.36,1.58-1,1.56-2,3.11-3,4.67-.17.27-.34.41-.72.16a12.4,12.4,0,0,0-5.94-2.17,11,11,0,0,0-2.75.1,4.44,4.44,0,0,1-3-.85c-.43-.27-.26-1.05.22-1.24A6.51,6.51,0,0,1,209.05,105.51Z" style="fill:#6e1e1f"/><path d="M194,100.05a21.15,21.15,0,0,0-2,1.8.83.83,0,0,0-.27.93,24.4,24.4,0,0,1,.4,2.62,10.07,10.07,0,0,1-1.73-.86c-.58-.36-1.11-.64-1.82-.12a14.63,14.63,0,0,1-2.17,1.1c.12-1,.2-1.85.34-2.72a1.19,1.19,0,0,0-.35-1.25c-.53-.46-1-1-1.5-1.49-.08-.08-.25-.17-.17-.3a.47.47,0,0,1,.33-.15c.59-.06,1.18-.11,1.77-.13.77,0,1.14-.25,1.35-1,.16-.57.63-1,.69-1.6a.31.31,0,0,1,.2-.21c.14,0,.21.1.27.22a20.6,20.6,0,0,1,1,2,1.25,1.25,0,0,0,1.41.85A9.94,9.94,0,0,1,194,100.05Z" style="fill:#6e1e1f"/><path d="M142.58,105.63c2.07,0,4.14,0,6.21,0,.49,0,.61-.14.6-.61,0-1.26,0-2.52,0-3.78,0-.4,0-.64.54-.42a1.2,1.2,0,0,0,.63,0c.59-.09.76.36.71.73a45.33,45.33,0,0,0-.09,4.84c0,1-.05,1.08-1.09.85a2.46,2.46,0,0,0-.51,0c-3.73,0-7.47,0-11.2,0-.52,0-.76.12-.66.66.06.37-.07.51-.48.52-1.41,0-1.41,0-1.41-1.38s0-1.43,1.42-1.43Z" style="fill:#6e1e1f"/><path d="M110.19,110.78c-.91-.15-.49-.88-.54-1.39s0-.79,0-1.2c-.08-1.4,0-2.82,0-4.23,0-.13-.07-.3.13-.37s.37-.21,0-.27c-.22,0-.09-.24-.1-.36a20,20,0,0,1,.13-2.28s0-.11,0-.12c.49-.38,1.05-.08,1.57-.16.33-.05.31.21.3.42-.07,1.91.07,3.83-.1,5.74-.13,1.53.06,3.08-.06,4.61-.09,1.19,0,2.38-.09,3.58s.11,2.24.11,3.37c0,.69-.15.82-.84.7h-.06c-.28-.24-.85.07-.93-.23a6.47,6.47,0,0,1-.15-1.95c0-.26.08-.54.09-.81,0-1,0-2,0-3,0-.56.26-1.09,0-1.68S110.19,111.21,110.19,110.78Z" style="fill:#6e1e1f"/><path d="M139.87,115.63c1.22,0,2.43,0,3.65,0,.36,0,.48-.1.47-.47,0-1.26,0-2.52,0-3.78,0-.38.08-.53.49-.51,1.69,0,1.45-.2,1.39,1.36s-.13,3.1-.1,4.65c0,.5-.42.48-.62.48-1.62,0-3.24.05-4.86,0a8.67,8.67,0,0,1-2.19-.1c-.41-.11-.54.16-.55.56,0,1.11,0,1.08-1.16,1.11-.47,0-.64-.1-.61-.6a18.78,18.78,0,0,0,0-2.17c0-.47.15-.56.58-.55C137.53,115.65,138.7,115.63,139.87,115.63Z" style="fill:#6e1e1f"/><path d="M32.85,116.5a.76.76,0,0,1,.47.55,5.87,5.87,0,0,0,.42,1,6.75,6.75,0,0,1,1,4.41c-.07,1.08,0,2.18,0,3.27a6.74,6.74,0,0,0,0,1.68c.1.36-.11.46-.46.46-2.11,0-4.23,0-6.34,0-.51,0-.57-.26-.61-.67s.26-.47.59-.47h2.82c.6,0,1.15.36,1.79.27.35,0,.47-.13.46-.49,0-2.54,0-5.08,0-7.62C32.92,118.16,32.84,117.37,32.85,116.5Z" style="fill:#6e1e1f"/><path d="M44.86,116.37A26.61,26.61,0,0,0,45,119.6c0,.36-.06.57-.51.52a2,2,0,0,1,.46,1.87c-1,2-1.94,4-2.91,6-.13.27-.41.45-.42.8,0,.14-.2.29-.33,0-.33-.77-.68-1.52-1-2.28a.28.28,0,0,1,0-.27c.48-1.08.87-2.22,1.44-3.25s1.26-2.33,1.77-3.52a25,25,0,0,0,1-2.68A.44.44,0,0,1,44.86,116.37Zm-1.71,7.07c-.1-.26-.36-.48-.35-.82,0,0-.12-.07-.15-.05s-.2.15-.2.22c0,.36.31.59.44.9a.24.24,0,0,0,.17,0S43.22,123.56,43.15,123.43Z" style="fill:#6e1e1f"/><path d="M100.27,143.38c-.41.67-1.23,1-1.41,1.67a5.89,5.89,0,0,0,.21,2.07,4.19,4.19,0,0,1-1.6-.74.87.87,0,0,0-1,0,5.14,5.14,0,0,1-1.29.68c-.21-.49,0-.95.08-1.41a1.32,1.32,0,0,0-.53-1.27c-.34-.25-.65-.55-1-.83.59-.5,1.19-.29,1.72-.44a1,1,0,0,0,.69-.54,4.2,4.2,0,0,1,.82-1.4c.46.58.49,1.49,1.12,1.82A7.71,7.71,0,0,0,100.27,143.38Z" style="fill:#6e1e1f"/><path d="M176.09,126.66h3.4c.34,0,.46,0,.23-.41-.92-1.69-1.76-3.41-2.66-5.11a.68.68,0,0,1,.06-.76c.07-.12.1-.27.31-.27s.25.13.31.26l1.76,3.53c.57,1.15,1.15,2.29,1.73,3.43.2.38.25.59-.32.58-1.76,0-3.51,0-5.27,0-.87,0-1.74-.09-2.6-.11-.24,0-.77-.74-.71-1s.28-.14.42-.14Z" style="fill:#6e1e1f"/><path d="M219.75,134a2.47,2.47,0,0,1,2.6-2.62,2.51,2.51,0,0,1,2.64,2.71,2.48,2.48,0,0,1-2.76,2.5A2.45,2.45,0,0,1,219.75,134Zm3.84,1.4c-.46.11-.8.06-.87-.41,0-.3-.18-.59-.49-.55s-.17.41-.19.63-.09.37-.37.38-.4-.13-.39-.42,0-.85,0-1.28c0-1.2,0-1.21,1.22-1.1a2.26,2.26,0,0,1,.36.1c.75.2.9.66.4,1.25,0,.05-.27,0-.08.18.35.28.19.78.47,1.09a1.78,1.78,0,0,0,.11-2.53,1.82,1.82,0,0,0-2.68-.23,2.07,2.07,0,0,0-.13,2.85A1.75,1.75,0,0,0,223.59,135.44Zm-1.23-2.14c-.18,0-.33,0-.34.25s.1.29.3.29.38,0,.37-.29S222.55,133.29,222.37,133.3Z" style="fill:#6e1e1f"/><path d="M38.78,111.85a2.08,2.08,0,0,1-.63-1.19,37,37,0,0,0-1.79-4.4c-.85-2-1.8-4-2.7-5.94-.09-.2,0-.32.2-.33a.84.84,0,0,1,.93.49c.45,1.06.93,2.1,1.35,3.18.66,1.67,1.44,3.29,2.22,4.9.28.58.48,1.19.75,1.77S39,111.36,38.78,111.85Z" style="fill:#6e1e1f"/><path d="M195.83,101.43c-.7.71-1.29,1.37-1.95,2a.66.66,0,0,0-.31.62c.11.89.22,1.78.33,2.67-.82,0-1-.24-1.22-1s-.27-1.82-.42-2.73c0-.06-.07-.11-.07-.17,0-.44,1.48-1.61,1.93-1.54S195.17,101.36,195.83,101.43Z" style="fill:#6e1e1f"/><path d="M190.79,105.49a9.69,9.69,0,0,1-2.43,1.3c0-.67-.12-1.4.47-1.79S190.07,105.29,190.79,105.49Z" style="fill:#6e1e1f"/><path d="M191.22,98.22c.07.29.39.48.24.79-.05.11-.23.07-.32,0C190.91,98.72,190.94,98.48,191.22,98.22Z" style="fill:#6e1e1f"/><path d="M169.51,106.24c-1.24,0-2.39,0-3.53,0-.52,0-.65.16-.62.65,0,.79,0,1.58,0,2.37,0,.37-.11.46-.47.47-1.82,0-1.82.06-1.82-1.74,0-.75,0-1.49,0-2.24,0-.33,0-.5.44-.49,1.43,0,2.86,0,4.29,0A1.79,1.79,0,0,1,169.51,106.24Z" style="fill:#6e1e1f"/></svg>