<svg xmlns="http://www.w3.org/2000/svg" viewBox="0 0 250 250"><title>Casual dining</title><path d="M125.44,72.86c-19.77,6.59-38.77,56-37.79,63.12,1.25,3.81,1.36,4.3,1.36,4.3s3-13.45,7.68-22.87c0,0-1.31,7.35,2.67,19.11,8.71,26,21.18,32.51,22.71,32,0,0-4.74-5.17-8.71-17C96,99.66,124.9,73,125.44,72.86Z" style="fill:#c33b2e"/><path d="M86.23,92.74C70.55,98,63.14,168.65,42.72,175.52c-9.09,3-12.69-6.7-8.82-14.54-5.39,1.8-10.84,8.5-8.22,16.34,1.8,5.39,7.13,10.13,16.12,7.13,18-6,29-57.51,29.79-55.22,7.3,21.73,19.28,27.39,22.33,26.36,0,0-4.3-3.27-8.93-16.94C81.06,126.94,79.48,106.35,86.23,92.74Z" style="fill:#c33b2e"/><path d="M133.45,118.23c-2.61,7.35-6.81,20-8.82,20.64-.82.27-.93-.49-.93-.87-.22-4,5.45-30.88,5.88-33.27,0,0-5.39,1.8-6.81,2.29,0,0-2.23,9-3.87,18.24-1.09,6-2.29,11.93-1.31,14.76.6,1.85,2.45,4.14,5.66,3,6.37-2.12,9.75-15.3,11.33-19.66.87-2.45,1.85-5.23,2.83-8L134,116.59C133.83,117.19,133.61,117.74,133.45,118.23Z" style="fill:#c33b2e"/><path d="M177.45,121.38c-.33.11-.76.27-1-.44-.33-1,.22-4,.93-8.28,1.31-7.84,4.47-16.66,3.1-20.64-.54-1.69-2.29-3.92-6-2.67-4.68,1.58-8.17,9.09-9.37,11.49.33-2.23-1.14-8-6-6.32-3.59,1.2-7.13,6.7-9.53,11.55.33-2.23-.05-8.33-5.34-6.59-3.76,1.25-6.54,7.3-8.71,13.23l3.43-1.14c1.52-4,2.89-7.08,3.7-7.35s.93.49.93.87c.22,4-5.55,30.5-6,32.84,0,0,5.39-1.8,6.81-2.29,2.12-11.22,6.59-34.85,13.34-37.14.71-.22,1,0,1.14.54.76,2.23-2.89,17.75-5.61,33.55l6.81-2.29c1.09-6.15,5.72-34.58,13.51-37.2.54-.16,1-.16,1.14.33.27.82-1.52,6.37-2.45,11.49-1.52,8.33-3.32,14.05-2.12,17.75.54,1.63,2,3.92,5.88,2.61,3.21-1.09,6.26-6.59,6.26-6.59a10.37,10.37,0,0,1-.65-2.94C181.64,115.83,179.14,120.84,177.45,121.38Z" style="fill:#c33b2e"/><path d="M123.16,97.59a3.22,3.22,0,0,0,4.3,2.45,5,5,0,0,0,2.83-6c-.6-2.18-2.34-3.21-4.19-2.56A5,5,0,0,0,123.16,97.59Z" style="fill:#c33b2e"/><path d="M212.2,78.53c-.6-1.69,2.45-5.39,2-6.92s-1.47-1.52-3.1-1-2.56,4.9-1.36,8.33c2,5.94,4.08,8,6.1,14,3.54,10.62-.05,16.12-4.08,17.43-2.78.93-3.87-.65-3.54-1.2s3.59-2.07,2.45-5.5a3.38,3.38,0,0,0-4.3-2.34c-2,.65-3.65,3.81-2.67,6.7.33.93,2.94,7,11.11,4.25,5.06-1.69,13-7.9,9.31-18.79C221.67,86.48,213.72,82.94,212.2,78.53Z" style="fill:#c33b2e"/><path d="M207.46,82.39l-10.07,25.49c-1.8,4.14-3.81,7.9-5.17,8.33-.82.27-.93-.49-.93-.87-.22-4,5.45-30.88,5.88-33.27,0,0-5.39,1.8-6.81,2.29,0,0-2.23,9-3.87,18.24-1.09,6-2.29,11.93-1.31,14.76.6,1.85,2.34,4.14,5.61,3,3.81-1.25,7-6.86,9.69-13.4l8.39-21.29C208.11,84.08,207.84,83.32,207.46,82.39Z" style="fill:#c33b2e"/><path d="M47.62,129.28c8.11-2.72,11.44-11.38,10.95-12.91-.11-.38-2.61,4.47-9.15,6.64a10.34,10.34,0,0,1-12.8-6.37c-1.8-5.39.93-10.67,6.43-12.53,9.42-3.16,21.18.49,28.75-2.07,5.66-1.91,6.48-6.15,5.72-8.44-.93-2.67-4.25-4.36-5.61-3.92,0,0,4,5.77-5.72,9-9.42,3.16-13.18-1.14-25.92,3.1-6.1,2.07-15.74,9.26-12.42,19.17C30,127.32,36.57,133,47.62,129.28Z" style="fill:#c33b2e"/><path d="M190.74,74.93a3.22,3.22,0,0,0,4.3,2.45,5,5,0,0,0,2.83-6c-.6-2.18-2.34-3.21-4.19-2.56A5,5,0,0,0,190.74,74.93Z" style="fill:#c33b2e"/><path d="M201.09,66.76a10.69,10.69,0,0,1,.87-1.14,2.92,2.92,0,0,1,1.31-.87,2.23,2.23,0,0,1,2,.27,3.78,3.78,0,0,1,1.47,2.07,5.38,5.38,0,0,1,.22,2.45,9.45,9.45,0,0,1-.76,2.4,17.74,17.74,0,0,1-1.31,2.18A18.46,18.46,0,0,1,203.37,76l-1-.38-.16-.44a8.57,8.57,0,0,0,1.58-2.83,4.18,4.18,0,0,0,.16-2.67,2.76,2.76,0,0,0-1-1.42,3.61,3.61,0,0,0-1.69-.71Z" style="fill:#c33b2e"/></svg>