<svg xmlns="http://www.w3.org/2000/svg" viewBox="0 0 250 250"><defs><style>.a{fill:#ed1b24;}.b{fill:#202020;}.c{fill:#828282;}.d{fill:#838383;}.e{fill:#222;}.f{fill:#fefefe;}.g{fill:#fbfbfb;}.h{fill:#242424;}.i{fill:#e7e7e7;}</style></defs><title>Fast Casual</title><path class="a" d="M142.74,187.42a322,322,0,0,1-34-2c-5.53-.6-11.06-1.29-16.55-2.2-.32-.05-.85.09-.87-.41s-.29-1.24.31-1.75a10.64,10.64,0,0,0,3.75-6.93c.54-4.07-.49-7.62-3.73-10.33-.5-.42-.37-.9-.34-1.38s.49-.38.79-.43c7.85-1.34,15.75-2.37,23.68-3.17a264.48,264.48,0,0,1,27.81-1.48,286.69,286.69,0,0,1,32.59,2.19c5.74.68,11.47,1.48,17.17,2.45.31.05.8-.09.87.43a1.28,1.28,0,0,1-.43,1.34,11.67,11.67,0,0,0-2.72,14.55,9.07,9.07,0,0,0,2.74,3.1c.58.4.45.91.4,1.41s-.51.35-.81.4c-10.36,1.65-20.78,2.78-31.25,3.48Q152.46,187.39,142.74,187.42Z"/><path class="b" d="M64.15,150a1.63,1.63,0,0,0,.08-.87c-.25-15-.56-30-.74-45.06,0-3.42.34-6.85.54-10.28.32-5.37.63-10.73,1-16.09a29.85,29.85,0,0,1,1.41-8.34,8,8,0,0,1,1.1-2.1,3.57,3.57,0,0,1,3.31-1.5,2.2,2.2,0,0,1,2,1.47,7.16,7.16,0,0,1,.4,2.62,48.23,48.23,0,0,1-.83,7.57Q71.1,86.67,70.29,96q-1,11.52-1,23.08a250,250,0,0,0,1.46,27.95c.42,3.86,1.18,7.69,1.06,11.6a12.56,12.56,0,0,1-.71,4.16c-1.19,3.13-4.37,3.94-6.91,1.75a12.27,12.27,0,0,1-2.76-3.48A132.77,132.77,0,0,1,54.66,146,358,358,0,0,1,38.78,92.22c-.08-.38,0-1-.44-1s-.37.63-.48,1a114.5,114.5,0,0,0-3.52,18.5,219.94,219.94,0,0,0-1.55,29.74A145,145,0,0,0,34,158.14a55.89,55.89,0,0,1,.88,6.63,9,9,0,0,1-.32,2.85,3.05,3.05,0,0,1-5.17,1.5,5.35,5.35,0,0,1-1.73-2.68,38.71,38.71,0,0,1-1.12-7.68,201.46,201.46,0,0,1,.06-25.61c.48-8.63,1.51-17.2,2.7-25.76.86-6.15,1.44-12.34,2.41-18.48a56.56,56.56,0,0,1,2.6-11,13.4,13.4,0,0,1,1.48-3c1.25-1.81,2.71-2.51,4.35-2.09a4.21,4.21,0,0,1,3.08,4A113.08,113.08,0,0,0,44.84,89,263.61,263.61,0,0,0,59.2,139.59c1.37,3.41,3,6.69,4.57,10C63.84,149.75,63.88,149.94,64.15,150Z"/><path class="b" d="M107.14,142.72c-.45.74-.83,1.38-1.23,2a28.61,28.61,0,0,1-6.43,7.22c-5.63,4.41-11.76,3.29-16.24.18a17.08,17.08,0,0,1-6.37-9c-3.2-9.63-1.9-18.59,4.17-26.78a14.34,14.34,0,0,1,3.66-3.44A7,7,0,0,1,95.24,116a15.93,15.93,0,0,1,.69,10.51c-1.68,6.9-5.59,12.07-12.16,15-.53.24-.51.48-.34.93a8.46,8.46,0,0,0,8.57,5.3,11.08,11.08,0,0,0,7.59-3.93,25.42,25.42,0,0,0,4-6.55c.54-1.2,1-2.42,1.58-3.63A8.29,8.29,0,0,1,106.7,131c.21-.21.16-.49.19-.75a61.46,61.46,0,0,1,2.31-11.34,17.15,17.15,0,0,1,1.85-4.2c1.52-2.35,3.47-2.56,5.49-.6a3.72,3.72,0,0,1,.81,4.66,45.55,45.55,0,0,0-3.89,11.86,34.07,34.07,0,0,0-.52,9.1c.11,1.2.43,2.33,1.74,2.72s2.07-.54,2.73-1.43a28,28,0,0,0,3.48-7.24c1.66-4.54,2.8-9.22,4-13.89a12.56,12.56,0,0,1,1.37-3.47,3.38,3.38,0,0,1,5.12-1.16,3.17,3.17,0,0,1,1.58,2.89c0,2.21-.38,4.4-.51,6.6a70.64,70.64,0,0,0,.08,13.58,13.7,13.7,0,0,0,.84,3.34,3.46,3.46,0,0,0,.81,1.26,2,2,0,0,0,2.89,0,6.68,6.68,0,0,0,1.48-2.45,37,37,0,0,0,2-9.47,43.68,43.68,0,0,0-1.48-16.89,13.07,13.07,0,0,1-.52-4.13c.07-1.66.74-2.73,1.94-3a3.15,3.15,0,0,1,3.78,1.63,19.89,19.89,0,0,1,2.06,6.48,63.88,63.88,0,0,1-.08,19,48.84,48.84,0,0,1-2.67,11.25,16.79,16.79,0,0,1-2.19,4.12,6.06,6.06,0,0,1-9.2,1.07,12.5,12.5,0,0,1-3.28-4.5,26.54,26.54,0,0,1-2.33-12.4c0-.29.23-.8-.22-.83-.3,0-.21.51-.26.79a42.68,42.68,0,0,1-4.52,14,15.82,15.82,0,0,1-2.22,3.26c-2.13,2.28-4.56,2.53-7.06.67a13.29,13.29,0,0,1-4.84-7.54Z"/><path class="b" d="M166.32,129.1a15.74,15.74,0,0,0-1.4,2.88,49.23,49.23,0,0,0-2.45,10.41c-.35,2.25-.49,4.53-1,6.76a5.93,5.93,0,0,1-.9,2.26,1.85,1.85,0,0,1-2.46.69,5,5,0,0,1-3-3.32,30.38,30.38,0,0,1-.84-6.63c-.43-9.19-.07-18.38.32-27.56.36-8.56,1.18-17.09,2-25.62a101.39,101.39,0,0,1,3.28-19.41,16.21,16.21,0,0,1,2.46-5.33,3.74,3.74,0,0,1,4.11-1.54,2.73,2.73,0,0,1,2.21,2.74,8.23,8.23,0,0,1-.39,2.55c-2.05,7.31-3.41,14.76-4.78,22.22-1,5.66-2,11.33-2.68,17.06-.42,3.82-.62,7.65-.76,11.49-.13,3.6-.2,7.2-.29,10.79,0,.32-.12.67.14,1,.29-.22.29-.55.39-.83a44,44,0,0,1,5.32-11.29A26.27,26.27,0,0,1,175.8,110c2.67-1.3,4.3,0,5.17,1.72a2,2,0,0,1-1.07,3c-3.7,1.73-6.51,4.53-9.1,7.59a1.25,1.25,0,0,0-.27,1,36.34,36.34,0,0,0,2.53,10.3c.41,1,.88,2.08,1.29,3.12a20,20,0,0,0,8.48,9.59,2.55,2.55,0,0,1,1.13,2.93,2.48,2.48,0,0,1-2.11,2.16,4,4,0,0,1-2.38-.34,16,16,0,0,1-5.67-4.56,33.87,33.87,0,0,1-6.7-14.11Z"/><path class="b" d="M208.9,158.06a17.06,17.06,0,0,1-11.16-4.36,20.2,20.2,0,0,1-7.18-15.29,5.27,5.27,0,0,1,.5-2.52,2.54,2.54,0,0,1,3.86-.83,2.1,2.1,0,0,1,.67,1.68,26.66,26.66,0,0,0,.76,5.12,13.06,13.06,0,0,0,8,9.18,6.7,6.7,0,0,0,4.16.4,2.93,2.93,0,0,0,2.38-2.94,7.14,7.14,0,0,0-1.28-4,18.39,18.39,0,0,0-3.48-4c-2.05-1.84-4.16-3.63-6.19-5.5a21.8,21.8,0,0,1-5.84-8.1c-2-5.22-.86-10.17,3.38-13.82a17.59,17.59,0,0,1,14.73-4.24c4.2.65,6.49,3.38,7.55,7.34a9.63,9.63,0,0,1-3.54,10.7,15.07,15.07,0,0,1-6.33,3,3.71,3.71,0,0,1-4.37-3.09,1.7,1.7,0,0,1,.9-1.94,9.13,9.13,0,0,1,1.87-.75,15.23,15.23,0,0,0,3.51-1.63c2-1.32,2.66-2.89,2-4.73a4.6,4.6,0,0,0-4.81-3.12,10.22,10.22,0,0,0-8.75,7.73,8.3,8.3,0,0,0,.73,5.19,19.35,19.35,0,0,0,4.47,5.86c1.82,1.7,3.72,3.33,5.55,5a21.36,21.36,0,0,1,5.8,7.78,10.1,10.1,0,0,1,.72,5.71c-.64,3.24-3.26,5.52-6.88,6C210,158,209.35,158,208.9,158.06Z"/><path class="c" d="M38.37,93.13c.33,1.47.66,2.93,1,4.4a348.77,348.77,0,0,0,16,51.74A107.15,107.15,0,0,0,61,161.62a13.06,13.06,0,0,0,2.58,3.26,5.23,5.23,0,0,0,2.9,1.49c.6.07.44.32.23.65a4,4,0,0,1-5.46,1.2,10.38,10.38,0,0,1-3.47-3.87,110.2,110.2,0,0,1-5.9-12.88,345.78,345.78,0,0,1-15.13-48.54,7.41,7.41,0,0,1-.06-3.46c.41-1.83.79-3.66,1.26-5.47.08-.29.18-.58.26-.87Z"/><path class="c" d="M34.49,75.93a41,41,0,0,0-2.87,10c-1,5.64-1.62,11.35-2.34,17-.59,4.62-1.22,9.23-1.79,13.84-.73,5.88-1.23,11.78-1.54,17.7-.26,4.94-.45,9.87-.37,14.82a97.57,97.57,0,0,0,1.09,15.34,16.62,16.62,0,0,0,.43,1.82,5.71,5.71,0,0,0,3.31,3.84c.4.17.42.35.28.71a3,3,0,0,1-4.35,1.52,5.19,5.19,0,0,1-2.39-3.12,31.22,31.22,0,0,1-1-6.17,192.89,192.89,0,0,1-.11-26.68c.45-8.48,1.42-16.92,2.61-25.33.87-6.17,1.46-12.39,2.4-18.55a59.09,59.09,0,0,1,2.74-11.9,11.68,11.68,0,0,1,2-3.63A3.84,3.84,0,0,1,34.49,75.93Z"/><path class="c" d="M160.66,65.77c-.31.79-.61,1.47-.85,2.16A65.34,65.34,0,0,0,157,80.64c-1.15,8.1-1.73,16.27-2.4,24.42-.54,6.6-.77,13.22-1,19.84-.13,4.63-.17,9.26-.07,13.89a67.92,67.92,0,0,0,.65,8.61,6.42,6.42,0,0,0,3,5,.46.46,0,0,1,.26.59,4.36,4.36,0,0,1-1,1.82,1.88,1.88,0,0,1-2.33.3,5.15,5.15,0,0,1-2.88-3.41,32.34,32.34,0,0,1-.8-6.56c-.39-8.23-.14-16.46.21-24.68.19-4.55.37-9.11.79-13.65.78-8.62,1.28-17.28,2.73-25.83a45,45,0,0,1,3.2-11.84,8.25,8.25,0,0,1,1.65-2.43A3.11,3.11,0,0,1,160.66,65.77Z"/><path class="c" d="M65.93,68.79c-1.71,5.32-1.57,10.7-1.94,16Q63.36,94,62.9,103.13c-.11,2.2,0,4.41.07,6.62q.24,14.72.48,29.43.06,3.71.13,7.41c0,.25,0,.5,0,.79-.14-.05-.21-.06-.22-.09-1-2.13-2.09-4.26-3-6.47a2.86,2.86,0,0,1-.12-1q-.18-10.76-.35-21.52c-.06-3.53-.16-7.05-.2-10.58,0-2.88.27-5.75.43-8.62q.38-7,.84-14.08a75.5,75.5,0,0,1,1-10.16,12.71,12.71,0,0,1,1.46-4.12A3.88,3.88,0,0,1,65.93,68.79Z"/><path class="c" d="M79.73,117.07a25.06,25.06,0,0,0-2.23,3.82c-4.11,9-4,17.92.77,26.55a15,15,0,0,0,13.67,8,11.76,11.76,0,0,0,3.9-.74,1.09,1.09,0,0,1-.56.6c-4.84,3.49-10.74,3.44-15.77-.13a16.64,16.64,0,0,1-6-7.94c-3.68-9.81-2.59-19,3.52-27.58a15.31,15.31,0,0,1,2.07-2.29A.78.78,0,0,1,79.73,117.07Z"/><path class="c" d="M194.37,115.71a3,3,0,0,1-.14.31c-2.22,3.85-2.12,7.77-.39,11.75a25.34,25.34,0,0,0,6.79,8.65c2,1.82,4.18,3.53,6.12,5.47a14.17,14.17,0,0,1,3,4,5.44,5.44,0,0,1,.58,2.64,2.56,2.56,0,0,1-2.72,2.41c-.24,0-.41-.06-.47-.33-.63-3.15-2.74-5.32-5-7.38-1.52-1.39-3.07-2.76-4.67-4.07a3.17,3.17,0,0,1-1.32-2.62,2.5,2.5,0,0,0-2.42-2.63,2.17,2.17,0,0,0-.64,0,.72.72,0,0,1-.78-.38,14.78,14.78,0,0,1-2.88-8.89A11.52,11.52,0,0,1,194.37,115.71Z"/><path class="c" d="M212,158.31a6.53,6.53,0,0,1-3,2,13,13,0,0,1-9.69-.41c-6.84-2.87-10.81-8.11-12.25-15.33a11.37,11.37,0,0,1-.11-4.85,2.55,2.55,0,0,1,2.07-2.22c.75-.13.87,0,.91.74.36,8.61,4.26,15,12,18.83A15,15,0,0,0,212,158.31Z"/><path class="c" d="M166.12,130.9c.16.66.28,1.14.4,1.62a34.13,34.13,0,0,0,7.31,15,14.94,14.94,0,0,0,5.91,4.34c.44.17.51.41.4.83a2.84,2.84,0,0,1-3.93,1.65,12.66,12.66,0,0,1-4.53-3,30.41,30.41,0,0,1-7.65-13.4,1.25,1.25,0,0,1-.06-.64,31,31,0,0,1,1.87-6A4.35,4.35,0,0,1,166.12,130.9Z"/><path class="c" d="M140.26,125.81a47.51,47.51,0,0,1-1.85,13.29,10.08,10.08,0,0,1-1.35,2.93,1.92,1.92,0,0,1-1.18.89c-.61.12-.82-.09-.64-.67a42.14,42.14,0,0,0,1.5-7.46,43.51,43.51,0,0,0-1.31-17.31,14,14,0,0,1-.59-4.69c.11-1.78,1-2.83,2.48-2.93.33,0,.66,0,.65.44,0,2.41.77,4.67,1.28,7A39.06,39.06,0,0,1,140.26,125.81Z"/><path class="b" d="M194.47,104.43a15.29,15.29,0,0,1-.87,5.69,7.88,7.88,0,0,1-.49,1c-.83,1.47-1.79,1.85-3.13,1.26-1.61-.71-2.24-1.91-1.77-3.44.18-.6.4-1.18.62-1.76a7.67,7.67,0,0,0-.07-5.62c-.36-.91-.76-1.81-1.14-2.72A9.58,9.58,0,0,1,187,97a2,2,0,0,1,2.64-2.5,4.22,4.22,0,0,1,2.56,2.07A15,15,0,0,1,194.47,104.43Z"/><path class="c" d="M137.3,152.81a5.48,5.48,0,0,1-6.15,2.1,8.36,8.36,0,0,1-4.84-3.85,21,21,0,0,1-2.5-5.72,1.36,1.36,0,0,1,0-.85c.4-1.13.85-2.25,1.21-3.39s.66-2.3,1-3.56a6.83,6.83,0,0,1,.32,1.82,24.56,24.56,0,0,0,2.74,8.15,11.91,11.91,0,0,0,2.75,3.39,7.47,7.47,0,0,0,4.83,1.79l.5,0S137.21,152.76,137.3,152.81Z"/><path class="d" d="M188.77,104.47a8.86,8.86,0,0,1-.49,2.58c-.18.52-.38,1-.56,1.56a3.09,3.09,0,0,0,1.54,4.09c.56.32.65.62.32,1.12a1.3,1.3,0,0,0-.06.13c-1.14,2.23-3.43,2.35-4.83.26a2.43,2.43,0,0,1-.22-2.15c.22-.76.51-1.5.75-2.25a7.24,7.24,0,0,0,0-4.73c-.35-1-.78-2-1.22-3a10.61,10.61,0,0,1-.73-2,1.85,1.85,0,0,1,.49-2,2.5,2.5,0,0,1,2.44-.42.68.68,0,0,1,.47.41c.54,1.46,1.3,2.83,1.77,4.33A8.52,8.52,0,0,1,188.77,104.47Z"/><path class="c" d="M97.35,144.92l.65-1.07a56.18,56.18,0,0,0,3.19-6.68,10.89,10.89,0,0,1,1.76-3.2,1.34,1.34,0,0,0,.21-.82,56.41,56.41,0,0,1,2.75-12.55,12.1,12.1,0,0,1,1.87-3.55,3.42,3.42,0,0,1,1.39-1.11c.13-.05.28-.14.4,0s0,.26,0,.39a53.54,53.54,0,0,0-3.2,13.68,1.27,1.27,0,0,1-.18.69,22.31,22.31,0,0,0-2.56,5.13,31,31,0,0,1-3.92,7A8.46,8.46,0,0,1,97.35,144.92Z"/><path class="c" d="M106.91,144.37c1.64,4.51,3.81,8.29,9,9.13a4.73,4.73,0,0,1-5.58,2c-2.69-1.1-4.29-3.27-5.6-5.74a2,2,0,0,1,.3-2.68A25.72,25.72,0,0,0,106.91,144.37Z"/><path class="c" d="M124.91,117.84c0,.09,0,.14,0,.18-1.72,5.73-2.88,11.64-5.15,17.21a26.3,26.3,0,0,1-2.6,5.2,3.68,3.68,0,0,1-1.49,1.42c-.15.07-.33.14-.47,0s0-.27,0-.39c2.75-5.8,4.25-12,5.85-18.18a15.51,15.51,0,0,1,1.24-3.44,4,4,0,0,1,2.15-2.11C124.59,117.68,124.86,117.49,124.91,117.84Z"/><path class="d" d="M203.64,117.65c2-1.57,4.08-2.84,6.78-2.37a3.6,3.6,0,0,1,2.63,2.05,3,3,0,0,1-.64,3.85,6.57,6.57,0,0,1-.78.64c-.35.25-.75.69-1.1.59s-.17-.73-.25-1.12a4.64,4.64,0,0,0-5.1-3.68c-.49.05-1,.15-1.48.23Z"/><path class="d" d="M212.62,129.63c0,.29-.22.33-.36.44a16.44,16.44,0,0,1-5.53,2.69,1.25,1.25,0,0,1-1.41-.37,27.82,27.82,0,0,1-2.91-3.57c-.3-.45-.23-.74.22-1a6.07,6.07,0,0,1,.64-.32,3.91,3.91,0,0,1,1.43-.45c.6,0,.5.77.73,1.18a4.3,4.3,0,0,0,4.56,2.17A15.92,15.92,0,0,0,212.62,129.63Z"/><path class="e" d="M221.92,110.49a2.66,2.66,0,0,1,2.76-2.77,2.75,2.75,0,1,1,0,5.49A2.61,2.61,0,0,1,221.92,110.49Z"/><path class="d" d="M165.27,117.83a52.17,52.17,0,0,0-4.73,9.18c.09-1.56-.43-3.16.65-4.6a30.63,30.63,0,0,1,1.89-2.62c.67-.72,1.35-1.42,2-2.13Z"/><path class="f" d="M102.31,171.6c0-1.87,0-3.74,0-5.61,0-.51.16-.66.67-.63q3.48.23,7,.4c.45,0,.62.16.63.63.07,2,.08,2-1.95,2-.84,0-1.68-.05-2.52-.1-.36,0-.5.1-.52.48-.08,1.37-.1,1.36,1.3,1.38.82,0,1.63,0,2.45,0,.4,0,.53.16.55.55.12,2.13.13,2.12-2,2.14-.6,0-1.2,0-1.8,0-.37,0-.49.13-.51.5-.1,1.58-.11,1.58,1.43,1.54,1,0,2.06,0,3.09-.08.44,0,.57.15.59.58.08,2,.1,2-1.91,2.15s-3.83.2-5.74.34c-.56,0-.75-.11-.74-.7C102.33,175.34,102.31,173.47,102.31,171.6Z"/><path class="f" d="M161.85,166.4a11.5,11.5,0,0,1,4.15.16,2.57,2.57,0,0,1,2.09,2.92,3.33,3.33,0,0,1-1.35,2.06c-.47.39-.48.61,0,1a5.63,5.63,0,0,1,1,1.74c.4.77.75,1.55,1.16,2.32.25.47.1.58-.37.55-.79-.05-1.58-.09-2.37-.1a.72.72,0,0,1-.72-.47c-.47-1-1-1.93-1.46-2.89a1.17,1.17,0,0,0-.78-.69c-.93-.22-1.15,0-1.15.89s0,1.63,0,2.45c0,.37-.09.59-.52.57-.74,0-1.49,0-2.23,0-.41,0-.54-.18-.53-.57q0-4.68,0-9.36c0-.4.14-.56.54-.56C160.12,166.41,161,166.4,161.85,166.4Z"/><path class="f" d="M125.42,176.88c-1.66.05-1.68.06-2.24-1.49-.18-.5-.42-.73-1-.69-.84.06-1.68.06-2.52,0a.71.71,0,0,0-.79.54c-.71,1.89-.72,1.88-2.72,1.92-1.14,0-1.1.12-.7-.95,1.16-3.15,2.34-6.29,3.48-9.45a.78.78,0,0,1,.94-.62c.81.07,1.63.07,2.44.07a.71.71,0,0,1,.75.52q1.95,4.76,3.93,9.5c.18.42.14.63-.37.6S125.83,176.88,125.42,176.88Z"/><path class="f" d="M144.92,171.63c0-1.49,0-3,0-4.46,0-.44.14-.58.57-.58q3.56,0,7.12-.06c.39,0,.54.12.56.53.1,1.77.11,1.77-1.68,1.78-.91,0-1.82,0-2.73,0-.69,0-.53.44-.55.82s0,.76.57.73c1,0,2.06,0,3.09,0,.46,0,.64.15.63.62-.05,2,.29,1.65-1.63,1.69-.72,0-1.44,0-2.16,0-.36,0-.49.14-.51.51-.06,1.21-.07,1.21,1.11,1.22s2.25,0,3.38,0c.46,0,.62.15.63.62,0,1.71.06,1.71-1.62,1.68-2,0-3.93-.08-5.9-.06-.66,0-.93-.13-.89-.86C145,174.41,144.92,173,144.92,171.63Z"/><path class="f" d="M178.09,170c.69-1.33,1.33-2.49,1.89-3.68a1.22,1.22,0,0,1,1.29-.87,12.94,12.94,0,0,0,1.87-.11c.54-.05.64.09.37.57-1.19,2.14-2.34,4.3-3.53,6.43a2.69,2.69,0,0,0-.36,1.43c0,1.08,0,2.16,0,3.24,0,.46-.13.66-.61.61-.67-.06-1.34-.09-2-.1-.48,0-.67-.19-.66-.69,0-1.08,0-2.16,0-3.24a2.25,2.25,0,0,0-.33-1.22c-1.14-1.95-2.25-3.91-3.4-5.85-.3-.5-.22-.64.35-.65.79,0,1.58-.05,2.37-.11a.71.71,0,0,1,.78.46C176.74,167.48,177.38,168.68,178.09,170Z"/><path class="f" d="M134.69,166.58c1.46,0,2.92,0,4.39,0,.52,0,.71.14.71.69,0,1.6,0,1.6-1.58,1.59-1.91,0-1.91,0-1.91,1.89s0,3.55,0,5.32c0,.46-.13.65-.61.64a17.15,17.15,0,0,0-1.94,0c-.62.06-.71-.24-.71-.76,0-2.11,0-4.22,0-6.33,0-.67-.2-.88-.85-.84s-1.34,0-2,0c-.35,0-.5-.12-.53-.5-.15-1.85-.16-1.84,1.7-1.82,1.1,0,2.2,0,3.31,0Z"/><path class="f" d="M82,134a28.2,28.2,0,0,1,3-11.75,7.94,7.94,0,0,1,2-2.59c1.77-1.43,3.54-.81,4,1.4a7.23,7.23,0,0,1,0,3.14,20.75,20.75,0,0,1-3.15,7.51,13.71,13.71,0,0,1-5.06,4.38c-.5.26-.67.17-.7-.38S82,134.52,82,134Z"/><path class="g" d="M224.72,112.56a2.1,2.1,0,0,1,0-4.19,2.06,2.06,0,0,1,2.15,2.12A2,2,0,0,1,224.72,112.56Z"/><path class="a" d="M162,169.64c0-1.24,0-1.26,1.27-1.18.62,0,1.3,0,1.48.85a1.21,1.21,0,0,1-.88,1.45,2.33,2.33,0,0,1-.64.09C161.77,170.85,162,171,162,169.64Z"/><path class="a" d="M121.09,169l1.08,3.23c.09.28,0,.41-.29.41h-1.79c-.28,0-.4-.1-.29-.4.37-1.08.73-2.16,1.1-3.25Z"/><path class="d" d="M84.57,134.13c.39-.76.8-1.51,1.15-2.29a18.35,18.35,0,0,0,1.67-5.56,5.51,5.51,0,0,0-.43-3.16c-.09-.17-.22-.31-.32-.48s-.73-.37-.68-.76.43-.73.7-1.06a4,4,0,0,1,1.45-1.16,1.45,1.45,0,0,1,2.06.7,4,4,0,0,1,.42,2.45,17.52,17.52,0,0,1-5.3,10.89c-.19.18-.41.33-.61.49Z"/><path class="h" d="M224.49,108.95c1.25,0,1.52.42,1,1.49-.18.4.21.64.26,1,0,.16.3.36,0,.48a.42.42,0,0,1-.61-.2l0-.06c-.2-.28-.16-.85-.57-.81s-.14.55-.23.84-.12.25-.28.26-.32-.08-.32-.28c0-.79,0-1.58,0-2.36C223.82,108.69,224.33,109.09,224.49,108.95Z"/><path class="i" d="M225.11,109.8a.4.4,0,0,1-.4.42c-.22,0-.3-.1-.3-.3s0-.46.31-.44S225.08,109.56,225.11,109.8Z"/></svg>