<svg xmlns="http://www.w3.org/2000/svg" viewBox="0 0 250 250"><title>Mass</title><path d="M39.36,125q0,44.71,0,89.41c0,.46.08.59.57.59Q125,215,210,215c.53,0,.6-.13.6-.62q0-89.38,0-178.76c0-.49-.08-.62-.6-.62Q125,35,40,35c-.55,0-.63.14-.63.65Q39.37,80.33,39.36,125ZM77,51.18h0c.25,0,.29-.28.42-.44a7.05,7.05,0,0,1,7-2.71c1.29.23,1.27.28,1.31,1.53a.22.22,0,0,0,0,.06c1.09.45,1.23.71.91,1.93a3.79,3.79,0,0,0-.12,1.67c.26-.07.24-.32.3-.5a7.24,7.24,0,0,1,.72-1.6A6.68,6.68,0,0,1,92.72,48c2.77-.25,5,.34,6.11,3.15a1.43,1.43,0,0,1,.7.91,1.41,1.41,0,0,0,.46.83c.11-.2.23-.4.32-.61a7.47,7.47,0,0,1,2.33-3c1.62-1.28,4.79-2,6.56-.35.22.21.48.18.56-.17a.49.49,0,0,1,.56-.38c1,0,2,0,3.07,0,.38,0,.49.22.39.6a1.32,1.32,0,0,0-.09.86,2.23,2.23,0,0,0,.8.13c.33,0,.45.21.36.51a29.28,29.28,0,0,0-.64,3.79c-.32,2.18-.72,4.35-1.05,6.52-.05.35-.2.46-.53.46-1,0-2,0-3,0a.66.66,0,0,1-.7-.42c-.12-.35-.26-.31-.49-.11a2,2,0,0,1-.39.3,5.22,5.22,0,0,1-3.92.43,3.32,3.32,0,0,1-1.76-.87,8.65,8.65,0,0,1-1.29-1.89,10.8,10.8,0,0,1-1.33-2.45,6.83,6.83,0,0,0-1.39.1,2.19,2.19,0,0,0-.64,1.13,1.48,1.48,0,0,0,.86.1.61.61,0,0,1,.63.32.56.56,0,0,1-.19.68c-.45.39-.77.9-1.19,1.33a5.45,5.45,0,0,1-3.31,1.54A8.1,8.1,0,0,1,90.3,61a4.26,4.26,0,0,1-2.52-2.4,1,1,0,0,0-.13-.27,4.09,4.09,0,0,1-1.2-2.88c0-.75,0-1.5,0-2.24a1.26,1.26,0,0,1-.91,0c-1.75-.77-2.75-.39-3.85,1a2,2,0,0,0-.48,2,.53.53,0,0,0,.35.24A2.9,2.9,0,0,0,84,56.21c.14-.07.3-.21.47-.11s.08.34.06.52c0,.37-.1.74-.15,1.12.16.34.4.22.62.1s.33-.35.59-.13,0,.4-.06.6a.71.71,0,0,0,0,.31c.08.7-.34,1.33-.28,2,0,.21-.15.26-.31.33a6.65,6.65,0,0,1-5.15.06,4.85,4.85,0,0,1-2.49-2.55A11.37,11.37,0,0,1,76,56.32c.07-.27.16-.59-.17-.7s-.37.3-.52.52a12.07,12.07,0,0,1-1.48,2.08,9.38,9.38,0,0,1-3.44,2.52c-.54.19-1.09.24-1.63.39a10.53,10.53,0,0,1-5,.19,10.06,10.06,0,0,1-3.28-1.48c-.46-.29-1.09-.64-.92-1.42h0c-.22,0-.27-.13-.28-.31a8.14,8.14,0,0,1-1.73-8.74,10.2,10.2,0,0,1,5.55-5.92,10.07,10.07,0,0,1,6.74-.78,7.6,7.6,0,0,1,5.34,4.45,4.57,4.57,0,0,1,1.22,2.4c.14.65.24,1.3.36,2l.13-.16h0Zm115.68,5.13-.31.47c-.31.48-.24.68.29.73a2.52,2.52,0,0,1,.62,0c.23.08.62.21.35.55a13.48,13.48,0,0,1-.81,1.1,7.39,7.39,0,0,1-3.47,2,7.16,7.16,0,0,1-6.21-.87,4,4,0,0,1-1.16-1.78,5.79,5.79,0,0,1-1.26-3.72,10.4,10.4,0,0,1,.68-3,2.76,2.76,0,0,0-.4.91.63.63,0,0,1-.58.49c-1.09.1-1.09.11-1.18,1.2a3.84,3.84,0,0,1-.05.56c-.43,1.83-.45,3.71-.77,5.55-.06.32-.14.48-.46.56a12.94,12.94,0,0,1-2.75.11c-.81,0-1-.15-.83-1,.06-.42,0-.67-.51-.59-.53-.08-.64-.36-.55-.88.37-2.15.7-4.3,1-6.45.06-.39.1-.76-.48-.68s-.71-.24-.61-.76.26-1.32.33-2c0-.44.22-.67.67-.62s.78-.24.84-.76.24-1.32.3-2c0-.49.28-.64.74-.62.8,0,1.59,0,2.39,0s.95,0,.86,1a1,1,0,0,0,0,.56,2.72,2.72,0,0,0,.49.07c.64,0,.69.1.57.74-.06.31-.32.74.18,1,.44.07.58.32.5.75a1.54,1.54,0,0,0,0,.8c.16.19.39.12.57.12.48,0,.57.23.45.63a8.49,8.49,0,0,1,2.68-2,8.33,8.33,0,0,1,4.92-.38,4.4,4.4,0,0,1,3.33,3.16c.12-.05.1-.64.39-.07a6.5,6.5,0,0,1,.78,3.79c-.15,1.33-.05,1.34-1.42,1.3Zm-34.5-5.53a3,3,0,0,1,.05-.43c.14-.52.57-.28.88-.31s.35.24.27.5A23.2,23.2,0,0,1,161.1,49a5.34,5.34,0,0,1,6.25-.05c.29.2.46.19.54-.16a.53.53,0,0,1,.57-.46h3c.38,0,.51.19.45.56a2.78,2.78,0,0,0-.06,1.06c1.05-.12,1.32.09,1,1.14-.35,1.21-.41,2.46-.64,3.68-.36,1.86-.57,3.74-.84,5.62-.06.41-.23.66-.67.66h-2.83c-.26,0-.51,0-.53-.37,0-.56-.33-.45-.61-.2a4.07,4.07,0,0,1-2,.89,5,5,0,0,1-4.25-1.1,1.41,1.41,0,0,1-.69-1.25,5.21,5.21,0,0,1-1.81-3.77,9.17,9.17,0,0,1,.42-2.83c-.24.22-.12.73-.66.71-.95,0-1.14.16-1.19,1.07a2.94,2.94,0,0,1,0,.44c-.4,1.92-.69,3.85-1,5.79-.05.4-.21.62-.63.62h-2.83c-.19,0-.43,0-.41-.27,0-.4-.13-.85.24-1.18a3.58,3.58,0,0,0-.37-.05c-1.09,0-1.09-.05-.91-1.12.34-2,.65-4.09,1-6.13.08-.5-.06-.74-.57-.69s-.6-.23-.52-.66c.11-.66.24-1.32.31-2,.05-.46.24-.68.73-.62s.73-.2.78-.72c.07-.68.23-1.36.33-2a.64.64,0,0,1,.76-.63c.88,0,1.76,0,2.64,0,.57,0,.69.27.59.75a1.36,1.36,0,0,0,0,.92,4.45,4.45,0,0,1,.68,0c.26.05.48.2.41.51s-.22.74-.34,1.11a1.42,1.42,0,0,0,.23.06c.85.08.82.07.73.93A4.33,4.33,0,0,0,158.13,50.78Zm-31.29,6.79a2.36,2.36,0,0,0,.25-1.14c.25-1.57.47-3.15.71-4.72,0-.28-.18-.76.21-.8s.39.47.51.78a1.33,1.33,0,0,1,0,.37,11.1,11.1,0,0,1,0,2.32c-.28,2-.76,4-1,6.06,0,.41-.32.55-.71.55H124.4c-.32,0-.71.11-.72-.43s.21-1,.77-1,1,0,1.51,0a.63.63,0,0,0,.68-.45,1.56,1.56,0,0,0,.14-1l-.26,1a.43.43,0,0,1-.45.36h-3c-.34,0-.52-.17-.46-.51.27-1.67.56-3.34.81-5,.11-.74.4-1.51-.08-2.23.25.83.21.92-.63.95a1.75,1.75,0,0,0-.87.29,3.13,3.13,0,0,0-1.29,2.43c-.3,1.74-.54,3.49-.79,5.23,0,.3-.22.37-.48.38h-2.95c-.31,0-.48-.13-.45-.46a1.5,1.5,0,0,1,.27-1,7.76,7.76,0,0,0-.81-.06c-.54,0-.63-.23-.52-.71.16-.74.24-1.49.36-2.23.41-2.59.82-5.17,1.22-7.76a.49.49,0,0,1,.58-.49c1,0,1.93,0,2.89,0,.42,0,.58.17.48.58,0,.14-.09.3.06.4s.3-.07.42-.17a5,5,0,0,1,4.66-1,2.72,2.72,0,0,1,2.13,2.29,8.16,8.16,0,0,1-.07,2.75C127.31,54.59,127.07,56.08,126.85,57.57ZM49.57,203.13l0,0c-.26-.26-.18-.59-.18-.89q0-12.28,0-24.55,0-18.51,0-37c0-.85,0-.86.83-.86H66.18c.92,0,1.85,0,2.77,0,.46,0,.64.19.63.64a2.36,2.36,0,0,0,.08,1.12h1.64c.83,0,.83,0,.83.84q0,19.76,0,39.52c0,.25-.13.55.16.75s.46.16.7.16q6.36,0,12.71,0c.54,0,.78.17.74.73a1.23,1.23,0,0,0,.12.91l1.7,0a.72.72,0,0,1,.81.81c0,.29,0,.59,0,.88q0,8.94,0,17.87c0,1,0,1-.95,1H52.69c-.5,0-.74-.2-.72-.71,0-.21,0-.42,0-.63,0-.39-.18-.52-.53-.52l-1.44,0ZM144,53.69a1.67,1.67,0,0,0-1-.62c-.77-.26-1.56-.49-2.32-.77a3.18,3.18,0,0,1-2.4-2.61,6.63,6.63,0,0,1,3.38-6.33c2.68-1.33,5.29-.84,7.86.34a.33.33,0,0,1,.18.51c-.08.17-.15.34-.23.51a3,3,0,0,1,.37.24c.3.26.9.12,1,.66s-.39.76-.62,1.11A9.11,9.11,0,0,1,149,48.58c-.25.23-.5.36-.76.09a3,3,0,0,0-1.42-.74c-.85-.24-2.15-.21-2.52,1,.13.24.38.23.59.3,1.88.53,3.64,1.22,4.22,3.38.2-.15.32-.06.42.13a4.38,4.38,0,0,1,.63,2,8.07,8.07,0,0,1-.3,1.84,5.46,5.46,0,0,1-1.08,2.35,7.1,7.1,0,0,1-4.18,2.51,5.51,5.51,0,0,1-2.42.24,10.64,10.64,0,0,1-2.77-.65,6.52,6.52,0,0,1-1.89-1.11c-.14-.15-.3-.32-.09-.54a.49.49,0,0,1,.57-.12c.23.09.42.29.68.31a20.25,20.25,0,0,1-2.09-1.13c-.28-.22-.43-.41-.16-.77.57-.77,1.1-1.58,1.63-2.39.31-.47.57-.54,1-.14a4.21,4.21,0,0,0,3.58,1.15,1.8,1.8,0,0,0,1.63-2.14c0,.3,0,.65-.4.46-.68-.34-1.47-.32-2.14-.68a4.71,4.71,0,0,1-1.73-1.08c-.14-.18-.46-.4-.31-.63s.42.08.64.13a1.85,1.85,0,0,1,.36.13A15.71,15.71,0,0,1,144,53.69ZM50.19,129.27c-.34-.22-.66-.48-1-.68a28,28,0,0,1-4.9-3.37.8.8,0,0,1-.29-.95c.67-1.91,1.33-3.83,2-5.75l3.2-9.12,1.24-3.56c.05-.15.06-.38.27-.37s.19.24.25.39.18.61.3.89A8.63,8.63,0,0,0,52.35,109a2.71,2.71,0,0,0,.64-1.32c.07-.2-.08-.55.25-.55s.39.27.43.54a12.8,12.8,0,0,0,.68,1.93c.24.71.73,1.31.91,2a2.84,2.84,0,0,0,3.55-1.88,12,12,0,0,0,.71-4.44q0-18.6,0-37.2c0-.76.06-.83.81-.83H76.77l1.82,0c.49,0,.76.14.68.7a1.67,1.67,0,0,0,.08,1,10.81,10.81,0,0,0,1.82.05c.49,0,.74.2.73.72,0,.69,0,1.38,0,2.08q0,20.61,0,41.23a24,24,0,0,1-.32,2.85,13.72,13.72,0,0,1-.3,1.84c-.26,1-.6,1.94-.84,2.92a13.69,13.69,0,0,1-1.28,2.94A19.24,19.24,0,0,1,76.93,127a17.86,17.86,0,0,1-3.64,3.4,19.1,19.1,0,0,1-4.12,2.07,12,12,0,0,1-4,.94c-1.15,0-2.31,0-3.46,0a17.62,17.62,0,0,1-5.06-1,26.08,26.08,0,0,1-4.94-2.09C51.18,130.13,50.51,129.92,50.19,129.27ZM196.83,74.65a18.47,18.47,0,0,1,2.41,7.19,19.61,19.61,0,0,1-.77,8.87,10.74,10.74,0,0,1-5.85,6.78c-.19.09-.4.17-.39.43s.2.37.43.47a20.13,20.13,0,0,1,2.81,1.52c.86.57,1.58,1.3,2.38,1.94,0-.28.09-.31.33-.14a16.34,16.34,0,0,1,2,1.77,14.1,14.1,0,0,1,3.44,5.5,18.62,18.62,0,0,1,.8,3.79,19.34,19.34,0,0,1-.55,7.4,13.94,13.94,0,0,1-2.07,4.59c-.56.77-1.26,1.46-1.82,2.22a9.27,9.27,0,0,1-2.88,2.42,20.64,20.64,0,0,1-6.45,2.39,29.68,29.68,0,0,1-5.7.65c-9,0-18,0-26.95,0-1,0-1-.06-1-1,0-.21,0-.42,0-.63a4.54,4.54,0,0,0-1.68-.1c-.82,0-.87-.08-.87-.91q0-30.85,0-61.7c0-.51.15-.7.68-.7q11.46,0,22.92,0a36.56,36.56,0,0,1,9.47,1.09A17.73,17.73,0,0,1,194,71.6a25,25,0,0,1,2.35,2.33l-.19-.25c-.14-.17-.41-.37-.2-.58s.43.08.58.21c.61.54,1.19,1.09,1.76,1.68a15.42,15.42,0,0,1,2.45,3.75A13.3,13.3,0,0,1,202,83.9,19.62,19.62,0,0,1,201.8,90a18.87,18.87,0,0,1-.81,3,12,12,0,0,1-1.43,2.74,11.1,11.1,0,0,1-4.28,3.44.91.91,0,0,1-.89,0c-.5-.27-1-.53-1.5-.79-.22-.11-.53-.12-.55-.44s.3-.36.51-.46a9.76,9.76,0,0,0,3.09-2.24,14.07,14.07,0,0,0,3.42-7.82,21.45,21.45,0,0,0-.16-6.64A14.94,14.94,0,0,0,196.83,74.65Zm-56.69,71.18a7.61,7.61,0,0,1,2.32,1.66,27.47,27.47,0,0,1,4.63,4.88,31.19,31.19,0,0,1,3.82,6.65,32.59,32.59,0,0,1,1.94,6.39,46.63,46.63,0,0,1,.86,7.09,39.45,39.45,0,0,1-.92,9.35,31.68,31.68,0,0,1-1.65,5.56,30,30,0,0,1-5.12,8.45,28.31,28.31,0,0,1-12.48,8.33,31.5,31.5,0,0,1-7.28,1.53,33,33,0,0,1-15-2.07c-1.18-.45-2.36-.95-3.49-1.52a7.59,7.59,0,0,1-2.13-1.46l-.23-.2h0c-.37-.24-.73-.48-1.11-.71a28.26,28.26,0,0,1-11-12.36,33.79,33.79,0,0,1-2.9-10,41.18,41.18,0,0,1,.18-12.59,32.69,32.69,0,0,1,4.09-11.27,29.54,29.54,0,0,1,8.66-9.36,29.19,29.19,0,0,1,11.77-4.8,31.84,31.84,0,0,1,13.41.51A29.4,29.4,0,0,1,137.6,144,20.9,20.9,0,0,0,140.15,145.83Zm-38-17.5a4.62,4.62,0,0,0-.5-.37,29.07,29.07,0,0,1-6.75-5.19A29.58,29.58,0,0,1,88,111a38.5,38.5,0,0,1-1.58-8.07,40.13,40.13,0,0,1,.29-10,33.18,33.18,0,0,1,3.93-11.54,29.55,29.55,0,0,1,20.5-14.61,32.49,32.49,0,0,1,10.58-.12,30.21,30.21,0,0,1,10.22,3.52c1.39.77,2.65,1.75,4,2.62.18,0,.42,0,.54.12.7.63,1.55,1.07,2.21,1.73A17.9,17.9,0,0,1,141.87,78c.6,1,1.5,1.83,2.2,2.8a39.27,39.27,0,0,1,3.8,7.15,21.39,21.39,0,0,1,1.37,4.39,34.76,34.76,0,0,1,.81,5.16,40.06,40.06,0,0,1-.37,9.82c-.27,1.37-.46,2.75-.83,4.09a42,42,0,0,1-1.51,4.4,15.27,15.27,0,0,1-1.18,1.86c-.28.49-.15,1.09-.54,1.52a9.34,9.34,0,0,0-1.73,2.49c-.35.82-1.15,1.35-1.69,2.06a13.2,13.2,0,0,1-3.76,3.33c-.47.28-.67.8-1.08,1.07a32.62,32.62,0,0,1-5.55,3,18.61,18.61,0,0,1-2.69,1l-3.88.91a31.9,31.9,0,0,1-5.66.51,9.21,9.21,0,0,1-3.35-.31,15.88,15.88,0,0,0-2.46-.38,31.5,31.5,0,0,1-4.84-1.24A27.52,27.52,0,0,1,105,130,14.82,14.82,0,0,1,102.14,128.32Zm86.08,55h0q0,10.42,0,20.84c0,.55-.14.87-.77.87H169c-.91,0-.91,0-.92-.93,0-.73-.2-.92-.94-.93h-1.07c-.42,0-.61-.2-.6-.61s0-.8,0-1.2q0-17.34,0-34.69c0-.71,0-1.42,0-2.14s0-1.53-.05-2.29c0-.37-.22-.52-.52-.42a5.27,5.27,0,0,1-1.87.13c-1.83,0-3.63.35-5.45.28-.36,0-.59,0-.62-.48-.08-1.38-.1-1.38-1.49-1.4a1.75,1.75,0,0,0-.31,0c-.59.11-.68-.2-.68-.71q0-9,0-18a8.75,8.75,0,0,0,0-.88c-.07-.65,0-.76.68-.76h41c.2,0,.4,0,.43.3s-.24.95.23,1.29.89,0,1.34,0a2,2,0,0,0,.38,0c.51-.06.7.13.7.66q0,9.66,0,19.33c0,.52-.2.66-.67.63-1-.06-2.05-.14-3.07-.17-2.15-.08-4.3-.31-6.45-.33-.85,0-.9,0-.9.88Q188.22,172.93,188.22,183.28Z" style="fill:#eb1c25"/><path d="M135.92,72.85c-1.33-.87-2.59-1.84-4-2.62a30.21,30.21,0,0,0-10.22-3.52,32.49,32.49,0,0,0-10.58.12,29.55,29.55,0,0,0-20.5,14.61A33.18,33.18,0,0,0,86.71,93a40.13,40.13,0,0,0-.29,10A38.5,38.5,0,0,0,88,111a29.58,29.58,0,0,0,6.91,11.75,29.07,29.07,0,0,0,6.75,5.19,4.59,4.59,0,0,1,.5.37,11.74,11.74,0,0,1,2.3,1,31.67,31.67,0,0,0,9.56,2.29A32.3,32.3,0,0,0,129.79,129a28.11,28.11,0,0,0,12.77-11.16,32.62,32.62,0,0,0,4.64-14,39.13,39.13,0,0,0-1.63-16.65,30.44,30.44,0,0,0-6.76-11.48C137.87,74.73,136.89,73.8,135.92,72.85ZM123.39,89.78l0,0h0c.15.15.3.29.45.44a12.44,12.44,0,0,1,3,6.15,15.63,15.63,0,0,1-.8,9.08,10,10,0,0,1-3.71,4.63,9.83,9.83,0,0,1-8.25,1.26,2.36,2.36,0,0,1-1.5-.69h-.16l-.15-.12a1.24,1.24,0,0,1-.69-.28,10.66,10.66,0,0,1-4.51-6.37,15.76,15.76,0,0,1,.56-10.18c2.22-5.46,7.77-7.89,13.08-5.67a4.59,4.59,0,0,1,2.4,1.65Z" style="fill:#fdfcfc"/><path d="M105.38,200.47l.23.2a.7.7,0,0,1,.47.13,30.19,30.19,0,0,0,9.28,3,33.61,33.61,0,0,0,11.46-.22A29,29,0,0,0,149.5,183a39.48,39.48,0,0,0-1.38-26.22,30,30,0,0,0-6.9-9.87c-.37-.35-.86-.61-1.07-1.11A20.9,20.9,0,0,1,137.6,144a29.4,29.4,0,0,0-9.16-4.15,31.84,31.84,0,0,0-13.41-.51,29.19,29.19,0,0,0-11.77,4.8,29.54,29.54,0,0,0-8.66,9.36,32.69,32.69,0,0,0-4.09,11.27,41.18,41.18,0,0,0-.18,12.59,33.79,33.79,0,0,0,2.9,10,28.26,28.26,0,0,0,11,12.36c.37.23.74.47,1.11.71Zm11-17.28c-.13.08-.24,0-.35-.06A10.16,10.16,0,0,1,111,177a15.66,15.66,0,0,1-.24-9.11,11.16,11.16,0,0,1,3.8-6.14,9.4,9.4,0,0,1,8.6-1.72,6.79,6.79,0,0,1,3.51,1.92,1.14,1.14,0,0,1,.21.12,11.34,11.34,0,0,1,3.57,6.33,15,15,0,0,1-1.4,10.88,9.52,9.52,0,0,1-3.61,3.65,9.85,9.85,0,0,1-5.95,1.16A5.75,5.75,0,0,1,116.38,183.19Z" style="fill:#fdfcfc"/><path d="M196.3,73.93A25,25,0,0,0,194,71.6a17.73,17.73,0,0,0-6.47-3.1A36.56,36.56,0,0,0,178,67.41q-11.46,0-22.92,0c-.53,0-.68.19-.68.7q0,30.85,0,61.7c0,.83,0,.87.87.91a4.54,4.54,0,0,1,1.68.1,1.14,1.14,0,0,1,.67-.09h24.31a30.42,30.42,0,0,0,4-.26,24,24,0,0,0,4.61-1.13,17.2,17.2,0,0,0,8-5.32,15.62,15.62,0,0,0,3.34-8.41,18.57,18.57,0,0,0-1.31-9.62,15.18,15.18,0,0,0-2.74-4.1c-.8-.64-1.51-1.38-2.38-1.94a20.13,20.13,0,0,0-2.81-1.52c-.23-.1-.42-.2-.43-.47s.19-.35.39-.43a10.74,10.74,0,0,0,5.85-6.78,19.61,19.61,0,0,0,.77-8.87,18.46,18.46,0,0,0-2.41-7.19,1.3,1.3,0,0,1-.35-.52v0ZM175.64,91.58a7.49,7.49,0,0,1-2.23.1c-.27,0-.43-.22-.4-.53a8,8,0,0,0,0-.81q0-3.52,0-7c0-.36.09-.67.5-.65,1.67.07,3.36-.2,5,.31a2.55,2.55,0,0,1,1.9,1.45,3.85,3.85,0,0,1,.71,2.71C181.12,90.44,178.71,91.9,175.64,91.58Zm6.94,15.84v0h0a3.68,3.68,0,0,1,.78,2.34c.12,1.91-.25,3.65-2,4.74a9.85,9.85,0,0,1-5.27,1.09c-.09,0-.17-.1-.26-.15-.19.23-.46.17-.7.17-.46,0-.92,0-1.38,0s-.67-.21-.67-.66q0-4.62,0-9.24c0-.46.2-.63.65-.62.8,0,1.59,0,2.39,0a13.35,13.35,0,0,1,4,.5,3.63,3.63,0,0,1,2.36,1.7Z" style="fill:#fdfcfc"/><path d="M69.66,141.57a2.36,2.36,0,0,1-.08-1.12c0-.45-.16-.65-.63-.64-.92,0-1.85,0-2.77,0H50.25c-.81,0-.83,0-.83.86q0,18.51,0,37,0,12.28,0,24.55c0,.31-.09.64.18.89v0h0l.43,0a15.56,15.56,0,0,0,2.77,0H85.63c.57,0,.81-.13.8-.78,0-5.71,0-11.42,0-17.13a1.47,1.47,0,0,1,.13-.8,1.23,1.23,0,0,1-.12-.91c0-.56-.2-.73-.74-.73q-6.36,0-12.71,0c-.24,0-.51.07-.7-.16-.64.33-1.32.07-2,.16s-.76-.21-.76-.77q0-19,0-38A10.27,10.27,0,0,1,69.66,141.57Z" style="fill:#fdfcfc"/><path d="M79.36,69a1.67,1.67,0,0,1-.08-1c.07-.56-.19-.71-.68-.7l-1.82,0H60.34c-.75,0-.81.07-.81.83q0,18.6,0,37.2a12,12,0,0,1-.71,4.44,2.84,2.84,0,0,1-3.55,1.88.57.57,0,0,1-.48,0,4.35,4.35,0,0,1-2.44-2.6,8.63,8.63,0,0,1-1.11-2.29c-.13-.28-.2-.59-.3-.89s0-.38-.25-.39-.22.22-.27.37l-1.24,3.56L46,118.52c-.67,1.92-1.33,3.83-2,5.75a.8.8,0,0,0,.29.95,28,28,0,0,0,4.9,3.37c.37.2.68.45,1,.68,1.37.32,2.59,1,3.93,1.42a19.53,19.53,0,0,0,13-.23A17.28,17.28,0,0,0,75.2,124a23.85,23.85,0,0,0,4-13.85q0-20.2,0-40.4A1.47,1.47,0,0,1,79.36,69Z" style="fill:#fdfcfc"/><path d="M188.22,183.28q0-10.36,0-20.71c0-.85,0-.88.9-.88,2.16,0,4.3.25,6.45.33,1,0,2,.11,3.07.17.47,0,.67-.11.67-.63q0-9.66,0-19.33c0-.54-.2-.73-.7-.66a2,2,0,0,1-.38,0c-.45,0-.92.27-1.34,0s-.18-.86-.23-1.29-.23-.3-.43-.3h-41c-.65,0-.74.11-.68.76a8.75,8.75,0,0,1,0,.88q0,9,0,18c0,.51.09.81.68.71a1.75,1.75,0,0,1,.31,0c1.4,0,1.41,0,1.49,1.4,0,.46.26.47.62.48,1.83.07,3.63-.31,5.45-.28a5.27,5.27,0,0,0,1.87-.13c.3-.1.52,0,.52.42,0,.76.1,1.53.05,2.29s0,1.42,0,2.14q0,17.34,0,34.69c0,.4,0,.8,0,1.2s.19.62.6.61h1.07c.74,0,.93.2.94.93,0,.92,0,.93.92.93h18.45c.63,0,.77-.31.77-.87q0-10.42,0-20.84Zm-2.66-1.82q0,10.48,0,21c0,.54-.14.74-.71.73q-7.52,0-15,0c-1.15,0-2.31,0-3.46,0-.83,0-.93-.1-.91-.95,0-.36,0-.71,0-1.07q0-17.85,0-35.7c0-1.59,0-3.19.08-4.78.06-.79,0-.87-.81-.82l-9.42.52c-.87,0-.93,0-.93-.89q0-9.38,0-18.76c0-.89.06-1,1-1h39.41c.42,0,.84,0,1.26,0s.75.24.7.77-.06,1.09-.06,1.63q0,8.66,0,17.31c0,.86,0,.88-.9.84l-9.61-.49c-.39,0-.6.08-.6.57Q185.57,171,185.56,181.46Z" style="fill:#2a2325"/><path d="M135.92,72.85c1,1,1.95,1.88,2.88,2.86a30.44,30.44,0,0,1,6.76,11.48,39.13,39.13,0,0,1,1.63,16.65,32.62,32.62,0,0,1-4.64,14A28.11,28.11,0,0,1,129.79,129,32.3,32.3,0,0,1,114,131.56a31.67,31.67,0,0,1-9.56-2.29,11.74,11.74,0,0,0-2.3-1A14.83,14.83,0,0,0,105,130a27.52,27.52,0,0,0,3.92,1.62,31.5,31.5,0,0,0,4.84,1.24,15.88,15.88,0,0,1,2.46.38,9.21,9.21,0,0,0,3.35.31,31.9,31.9,0,0,0,5.66-.51l3.88-.91a18.61,18.61,0,0,0,2.69-1,32.62,32.62,0,0,0,5.55-3c.42-.27.62-.8,1.08-1.07a13.2,13.2,0,0,0,3.76-3.33c.54-.7,1.34-1.23,1.69-2.06a9.34,9.34,0,0,1,1.73-2.49c.39-.44.26-1,.54-1.52a15.27,15.27,0,0,0,1.18-1.86,42,42,0,0,0,1.51-4.4c.37-1.34.56-2.73.83-4.09a40.06,40.06,0,0,0,.37-9.82,34.76,34.76,0,0,0-.81-5.16,21.39,21.39,0,0,0-1.37-4.39,39.27,39.27,0,0,0-3.8-7.15c-.7-1-1.59-1.79-2.2-2.8a17.9,17.9,0,0,0-3.19-3.28c-.66-.65-1.51-1.1-2.21-1.73C136.34,72.86,136.11,72.88,135.92,72.85Z" style="fill:#2a2325"/><path d="M79.36,69a1.47,1.47,0,0,0-.11.74q0,20.2,0,40.4a23.85,23.85,0,0,1-4,13.85,17.28,17.28,0,0,1-8.13,6.47,19.53,19.53,0,0,1-13,.23c-1.34-.4-2.56-1.11-3.93-1.42.32.65,1,.85,1.56,1.14a26.08,26.08,0,0,0,4.94,2.09,17.62,17.62,0,0,0,5.06,1c1.15,0,2.31,0,3.46,0a12,12,0,0,0,4-.94,19.1,19.1,0,0,0,4.12-2.07,17.86,17.86,0,0,0,3.64-3.4,19.24,19.24,0,0,0,2.22-3.37,13.69,13.69,0,0,0,1.28-2.94c.23-1,.58-1.94.84-2.92a13.72,13.72,0,0,0,.3-1.84,24,24,0,0,0,.32-2.85q0-20.61,0-41.23c0-.69,0-1.38,0-2.08,0-.51-.24-.72-.73-.72A10.81,10.81,0,0,1,79.36,69Z" style="fill:#2a2325"/><path d="M140.15,145.83c.22.5.7.76,1.07,1.11a30,30,0,0,1,6.9,9.87A39.48,39.48,0,0,1,149.5,183a29,29,0,0,1-22.67,20.54,33.61,33.61,0,0,1-11.46.22,30.19,30.19,0,0,1-9.28-3,.7.7,0,0,0-.47-.13,7.59,7.59,0,0,0,2.13,1.46c1.13.57,2.31,1.06,3.49,1.52a33,33,0,0,0,15,2.07,31.5,31.5,0,0,0,7.28-1.53A28.31,28.31,0,0,0,146,195.87a30,30,0,0,0,5.12-8.45,31.68,31.68,0,0,0,1.65-5.56,39.45,39.45,0,0,0,.92-9.35,46.63,46.63,0,0,0-.86-7.09,32.59,32.59,0,0,0-1.94-6.39,31.19,31.19,0,0,0-3.82-6.65,27.47,27.47,0,0,0-4.63-4.88A7.61,7.61,0,0,0,140.15,145.83Z" style="fill:#2a2325"/><path d="M75.15,47.14a7.6,7.6,0,0,0-5.34-4.45,10.07,10.07,0,0,0-6.74.78,10.2,10.2,0,0,0-5.55,5.92,8.14,8.14,0,0,0,1.73,8.74.29.29,0,0,1,.28.31h0c.19,0,.3.1.44.2a6.71,6.71,0,0,0,2.79,1.22,10.66,10.66,0,0,0,12.66-9A11.47,11.47,0,0,0,75.15,47.14Zm-4.53,2c.28.22.26.55.31.86a4.09,4.09,0,0,1-.33,2.15,5.49,5.49,0,0,1-5.44,3.73,2.68,2.68,0,0,1-2.4-1.2c-.44-.11-.59-.48-.75-.83a4.59,4.59,0,0,1,.82-5.24,5,5,0,0,1,6.34-1.3A2.51,2.51,0,0,1,70.61,49.13Z" style="fill:#fdfcfc"/><path d="M197.85,101.86a15.18,15.18,0,0,1,2.74,4.1,18.57,18.57,0,0,1,1.31,9.62,15.62,15.62,0,0,1-3.34,8.41,17.2,17.2,0,0,1-8,5.32,24,24,0,0,1-4.61,1.13,30.42,30.42,0,0,1-4,.26H157.64a1.14,1.14,0,0,0-.67.09c0,.21,0,.42,0,.63,0,1,.05,1,1,1,9,0,18,0,26.95,0a29.68,29.68,0,0,0,5.7-.65,20.64,20.64,0,0,0,6.45-2.39A9.27,9.27,0,0,0,200,127c.57-.76,1.26-1.44,1.82-2.22a13.94,13.94,0,0,0,2.07-4.59,19.34,19.34,0,0,0,.55-7.4,18.62,18.62,0,0,0-.8-3.79,14.1,14.1,0,0,0-3.44-5.5,16.34,16.34,0,0,0-2-1.77C197.94,101.55,197.86,101.58,197.85,101.86Z" style="fill:#2a2325"/><path d="M149.53,44.71c.08-.17.15-.34.23-.51a.33.33,0,0,0-.18-.51c-2.57-1.18-5.18-1.67-7.86-.34a6.63,6.63,0,0,0-3.38,6.33,3.18,3.18,0,0,0,2.4,2.61c.76.28,1.55.51,2.32.77a1.68,1.68,0,0,1,1,.62.79.79,0,0,1,.3.41,1.8,1.8,0,0,1-1.63,2.14,4.21,4.21,0,0,1-3.58-1.15c-.47-.41-.73-.34-1,.14-.53.81-1.06,1.61-1.63,2.39-.27.37-.12.55.16.77a20.25,20.25,0,0,0,2.09,1.13l.45.09a1.75,1.75,0,0,1,.77.24l.87.11a8.79,8.79,0,0,1,1.75,0l.78-.11a2,2,0,0,1,.86-.22l.62-.18a1.29,1.29,0,0,1,.81-.33,1.54,1.54,0,0,1,.63-.4s0-.06,0,0l.31-.24,0,0,0,0,.27-.15.41-.39,0,0,0,0,0,0,.21-.22c0-.05,0-.06,0,0l.28-.38.81-1.58.17-.58a4.73,4.73,0,0,1,.25-1.13l0-1.32c-.58-2.16-2.34-2.84-4.22-3.38-.22-.06-.47-.06-.59-.3a1.44,1.44,0,0,1-1.32-1,1.34,1.34,0,0,1,.93-1.35,3,3,0,0,1,3.25.42c.42.3.6.24.89-.16A12.14,12.14,0,0,1,149.53,44.71Z" style="fill:#fdfcfc"/><path d="M86.55,184.47a1.47,1.47,0,0,0-.13.8c0,5.71,0,11.42,0,17.13,0,.64-.23.78-.8.78H52.77a15.56,15.56,0,0,1-2.77,0l1.45,0c.35,0,.56.12.53.52,0,.21,0,.42,0,.63,0,.51.22.72.72.71H88.12c1,0,.95,0,.95-1q0-8.94,0-17.87c0-.29,0-.59,0-.88a.72.72,0,0,0-.81-.81Z" style="fill:#2a2325"/><path d="M113.7,49.75a1.32,1.32,0,0,1,.09-.86c.1-.38,0-.59-.39-.6-1,0-2,0-3.07,0a.49.49,0,0,0-.56.38c-.09.35-.34.38-.56.17-1.77-1.63-4.94-.93-6.56.35a7.47,7.47,0,0,0-2.33,3c-.09.21-.21.4-.32.6a17,17,0,0,0-.2,3.31,10.82,10.82,0,0,0,1.33,2.45l.16.08c2.18,1.56,4.35,1.69,6.51,0,.08-.07.18-.13.29-.06s.06.19,0,.28c-.1.49.12.62.58.6a20.57,20.57,0,0,1,2.45,0c.7.06,1-.2,1.06-.87q.47-3.27,1-6.52A11.56,11.56,0,0,1,113.7,49.75ZM104.88,56a1.16,1.16,0,0,1-.83-1,3,3,0,0,1,2.71-3.62c1-.07,2.27.55,2.23,1.66a2.44,2.44,0,0,1-.7,2.47A2.65,2.65,0,0,1,104.88,56Z" style="fill:#fdfcfc"/><path d="M158.36,52.38a9.18,9.18,0,0,0-.42,2.82A5.21,5.21,0,0,0,159.75,59a3,3,0,0,1,.34.15,4.81,4.81,0,0,0,5.6-.24c.17-.12.33-.31.6-.28a.88.88,0,0,1,0,.27c-.12.5,0,.66.58.63.9,0,1.8,0,2.7,0a.6.6,0,0,0,.7-.6c.23-1.58.46-3.15.74-4.72a36.18,36.18,0,0,1,.76-4.27,2.78,2.78,0,0,1,.06-1.06c.06-.38-.07-.56-.45-.56h-3a.53.53,0,0,0-.57.46c-.08.35-.25.36-.54.16a5.34,5.34,0,0,0-6.25.05,23.16,23.16,0,0,0-1.77,1.56l-.15.28h0Zm8.76.77c.12,0,.14.14.15.25a3,3,0,0,1-1.62,2.71,2.33,2.33,0,0,1-2.58-.12,1.79,1.79,0,0,1-.93-2.17,3.13,3.13,0,0,1,2.58-2.43A1.94,1.94,0,0,1,167.12,53.15Z" style="fill:#fdfcfc"/><path d="M69.66,141.57a10.27,10.27,0,0,0-.09,2.5q0,19,0,38c0,.56.16.85.76.77s1.34.17,2-.16c-.3-.2-.16-.5-.16-.75q0-19.76,0-39.52c0-.85,0-.85-.83-.84Z" style="fill:#2a2325"/><path d="M86.49,53.22c0,.75,0,1.5,0,2.24a4.09,4.09,0,0,0,1.2,2.88,1,1,0,0,1,.13.27,11.56,11.56,0,0,0,2.62,1.12A8.8,8.8,0,0,0,95,59.32a9.05,9.05,0,0,0,2.75-1.92,2.18,2.18,0,0,1,.64-1.13C98.25,56,98,56,97.7,56c-.75,0-1.49,0-2.23,0a2.07,2.07,0,0,0-1.35.34,2.1,2.1,0,0,1-2.83.36q-.84-.18-.91-1.29c0-.77,0-.85.77-.85,2.36,0,4.73,0,7.09,0,.43,0,.53-.17.62-.58a14.2,14.2,0,0,0,0-2.87C97.67,48.3,95.49,47.7,92.72,48a6.68,6.68,0,0,0-5.22,3.17,7.24,7.24,0,0,0-.72,1.6c-.06.19,0,.43-.3.5Zm5.92-1v.06c-.34,0-.67,0-1,0s-.47-.19-.31-.54a2.17,2.17,0,0,1,.74-.76,2.27,2.27,0,0,1,3.46.66c.16.38.13.59-.37.58C94.08,52.22,93.24,52.23,92.41,52.23Z" style="fill:#fdfcfc"/><path d="M123.32,51.73c.48.73.19,1.49.08,2.23-.25,1.67-.54,3.34-.81,5-.05.34.12.51.46.51h3a.43.43,0,0,0,.45-.36l.26-1,.06-.61c.23-1.49.46-3,.68-4.47a8.16,8.16,0,0,0,.07-2.75,2.72,2.72,0,0,0-2.13-2.29,5,5,0,0,0-4.66,1c-.11.1-.21.31-.42.17s-.1-.27-.06-.4c.1-.41-.06-.58-.48-.58-1,0-1.93,0-2.89,0a.49.49,0,0,0-.58.49c-.39,2.59-.81,5.17-1.22,7.76-.12.74-.2,1.49-.36,2.23-.1.49,0,.73.52.71a7.81,7.81,0,0,1,.81.06c.82-.14,1.67.07,2.49-.11l.22-.68a2.53,2.53,0,0,1,.12-.88,4.46,4.46,0,0,1,.25-1.51l.12-.76a3.92,3.92,0,0,1,.26-1.51,2,2,0,0,1,.12-.87,2.38,2.38,0,0,1,.34-.93l.29-.39s0-.05,0,0a1.12,1.12,0,0,1,.61-.49s0-.06,0-.06.12-.12.2,0l.59-.14,0,0,.06,0c.16,0,.33-.1.48,0C122.72,51.21,123.13,51.28,123.32,51.73Z" style="fill:#fdfcfc"/><path d="M181.36,51.78a10.41,10.41,0,0,0-.68,3,5.79,5.79,0,0,0,1.25,3.72,7.81,7.81,0,0,0,3.83,1.35,7.11,7.11,0,0,0,6.57-3.1l.31-.46c-.13-.3-.38-.33-.67-.33h-2.45a1.89,1.89,0,0,0-1.08.24c0,.35-.36.43-.58.57a2.16,2.16,0,0,1-2.17-.07,1.42,1.42,0,0,1-1.11-1.62c0-.43.24-.59.7-.58,2.37,0,4.74,0,7.1,0,.48,0,.66-.15.72-.63a17.69,17.69,0,0,0,0-2.63,4.4,4.4,0,0,0-3.33-3.16,8.33,8.33,0,0,0-4.92.38,8.49,8.49,0,0,0-2.68,2l-.36.52c0,.11,0,.18-.13.2Zm6.12.51h-1.82c-.16,0-.36.05-.44-.15a.48.48,0,0,1,.14-.46,3.11,3.11,0,0,1,1.44-1.06,2.19,2.19,0,0,1,2.72,1c.16.43.07.67-.43.59A9.65,9.65,0,0,0,187.47,52.29Z" style="fill:#fdfcfc"/><path d="M181.11,49.74a1.54,1.54,0,0,1,0-.8c.08-.43-.06-.68-.5-.75l-.74.1c-.84.1-1-.06-.81-.88a2.88,2.88,0,0,1,.31-1,1,1,0,0,1,0-.56c.09-.92,0-1-.86-1s-1.59,0-2.39,0c-.46,0-.69.13-.74.62-.07.67-.22,1.32-.3,2s-.26.83-.84.76-.62.18-.67.62c-.08.66-.2,1.32-.33,2s0,.84.61.76.54.29.48.68c-.35,2.15-.68,4.31-1,6.45-.09.52,0,.8.55.88a16.83,16.83,0,0,1,2.75-.09.58.58,0,0,0,.71-.58c.32-2.11.67-4.21,1-6.31.15-1,.14-1,1.13-1h.75a.53.53,0,0,0,.62-.54A2.9,2.9,0,0,1,181.11,49.74Z" style="fill:#fdfcfc"/><path d="M84.33,57.73c.05-.37.11-.74.15-1.12,0-.17.15-.39-.06-.52s-.32,0-.47.11a2.9,2.9,0,0,1-2.36.26c-.14,0-.28-.09-.35-.24a1.25,1.25,0,0,1-.9-.78,3.08,3.08,0,0,1,4.29-3.88c.49.3.59.22.71-.36s0-1.11.34-1.57a.22.22,0,0,1,0-.06c0-1.25,0-1.31-1.31-1.53a7.05,7.05,0,0,0-7,2.71c-.13.15-.17.4-.42.44h0l-.13.16h0l-.13.15A8.6,8.6,0,0,0,76,56.32a11.39,11.39,0,0,0,1.23,2.15A16.37,16.37,0,0,0,79,59.52a6.63,6.63,0,0,0,4.12.06A1.74,1.74,0,0,0,84.33,57.73Z" style="fill:#fdfcfc"/><path d="M156.61,46.56a1.36,1.36,0,0,1,0-.92c.1-.48,0-.77-.59-.75-.88,0-1.76,0-2.64,0a.64.64,0,0,0-.76.63c-.09.68-.26,1.36-.33,2-.05.52-.25.79-.78.72s-.67.16-.73.62c-.08.66-.2,1.32-.31,2-.07.43,0,.71.52.66s.65.19.57.69c-.34,2-.65,4.09-1,6.13-.18,1.07-.18,1.08.91,1.12a3.64,3.64,0,0,1,.37.05,5.92,5.92,0,0,1,1.36,0c1.1,0,1.1,0,1.38-1a.91.91,0,0,1,.11-.64l.13-.77h0l0,0a2.19,2.19,0,0,1,.12-.9c-.1-.21,0-.37.12-.54l.11-.72a.18.18,0,0,1,0-.27l.12-.74a1.07,1.07,0,0,1,.13-.78l.13-.81,0,0h0c0-.22,0-.44.21-.58l0,0,0,0a2.92,2.92,0,0,1,1.24-.06c.65.07,1-.17,1-.82a4.32,4.32,0,0,1,.19-1.58c.09-.85.12-.85-.73-.93a1.48,1.48,0,0,1-.24-.06c-.42,0-1,.36-1.07-.36A1.76,1.76,0,0,1,156.61,46.56Z" style="fill:#fdfcfc"/><path d="M196.48,74.12a1.3,1.3,0,0,0,.35.52,14.94,14.94,0,0,1,2.37,6.15,21.45,21.45,0,0,1,.16,6.64,14.07,14.07,0,0,1-3.42,7.82,9.76,9.76,0,0,1-3.09,2.24c-.22.1-.54.12-.51.46s.33.33.55.44c.5.26,1,.52,1.5.79a.91.91,0,0,0,.89,0,11.1,11.1,0,0,0,4.28-3.44A12,12,0,0,0,201,93a18.87,18.87,0,0,0,.81-3A19.62,19.62,0,0,0,202,83.9a13.3,13.3,0,0,0-1.29-5.16A15.42,15.42,0,0,0,198.25,75c-.56-.59-1.15-1.14-1.76-1.68-.15-.13-.36-.43-.58-.21s.06.4.2.58l.19.25.18.21Z" style="fill:#2a2325"/><path d="M76,56.32a8.6,8.6,0,0,1,.74-4.83c-.12-.65-.22-1.3-.36-2a4.56,4.56,0,0,0-1.22-2.4,11.48,11.48,0,0,1,.25,3.73,10.66,10.66,0,0,1-12.66,9,6.71,6.71,0,0,1-2.79-1.22c-.13-.1-.25-.23-.44-.2-.17.78.46,1.13.92,1.42a10.06,10.06,0,0,0,3.28,1.48,10.53,10.53,0,0,0,5-.19c.54-.15,1.09-.2,1.63-.39a9.38,9.38,0,0,0,3.44-2.52,12.07,12.07,0,0,0,1.48-2.08c.15-.23.1-.66.52-.52S76.05,56.06,76,56.32Z" style="fill:#2a2325"/><path d="M113.7,49.75a11.56,11.56,0,0,0-.46,2.38q-.55,3.25-1,6.52c-.1.67-.36.93-1.06.87a20.57,20.57,0,0,0-2.45,0c-.46,0-.69-.11-.58-.6,0-.1.08-.21,0-.28s-.2,0-.29.06c-2.17,1.71-4.34,1.57-6.51,0l-.16-.08a8.65,8.65,0,0,0,1.29,1.89,3.32,3.32,0,0,0,1.76.87,5.22,5.22,0,0,0,3.92-.43,2,2,0,0,0,.39-.3c.22-.2.37-.24.49.11a.66.66,0,0,0,.7.42c1,0,2,0,3,0,.33,0,.48-.11.53-.46.33-2.18.73-4.34,1.05-6.52a29.28,29.28,0,0,1,.64-3.79c.09-.3,0-.5-.36-.51A2.23,2.23,0,0,1,113.7,49.75Z" style="fill:#2a2325"/><path d="M171.81,49.92a36.18,36.18,0,0,0-.76,4.27c-.28,1.57-.51,3.14-.74,4.72a.6.6,0,0,1-.7.6c-.9,0-1.81-.06-2.7,0-.53,0-.7-.13-.58-.63a.88.88,0,0,0,0-.27c-.27,0-.44.16-.6.28a4.81,4.81,0,0,1-5.6.24,3,3,0,0,0-.34-.15,1.41,1.41,0,0,0,.69,1.25,5,5,0,0,0,4.25,1.1,4.07,4.07,0,0,0,2-.89c.28-.25.58-.36.61.2,0,.37.28.37.53.37h2.83c.44,0,.62-.25.67-.66.26-1.87.47-3.76.84-5.62.24-1.22.3-2.47.64-3.68C173.13,50,172.86,49.8,171.81,49.92Z" style="fill:#2a2325"/><path d="M147.3,57.84l-.41.38c-.05.13-.18.16-.3.21l-.31.24v0h0a1.53,1.53,0,0,0-.63.4l-.82.33-.61.18a1.75,1.75,0,0,1-.86.23l-.77.11a5.91,5.91,0,0,1-1.75,0l-.87-.11c-.3.07-.53-.12-.77-.24l-.45-.09c-.27,0-.45-.22-.68-.31a.49.49,0,0,0-.57.12c-.21.22,0,.39.09.54A6.52,6.52,0,0,0,139.44,61a10.64,10.64,0,0,0,2.77.65,5.51,5.51,0,0,0,2.42-.24,7.1,7.1,0,0,0,4.18-2.51,5.46,5.46,0,0,0,1.08-2.35,8.07,8.07,0,0,0,.3-1.84,4.38,4.38,0,0,0-.63-2c-.1-.19-.22-.28-.42-.13l0,1.32a3.15,3.15,0,0,1-.25,1.14l-.17.57a4.48,4.48,0,0,1-.81,1.58l-.28.38v0h0l-.21.22v0Z" style="fill:#2a2325"/><path d="M181.11,49.74a2.9,2.9,0,0,0-.33,1.32.53.53,0,0,1-.62.54h-.75c-1,0-1,0-1.13,1-.32,2.11-.67,4.21-1,6.31a.58.58,0,0,1-.71.58,16.83,16.83,0,0,0-2.75.09c.49-.08.58.17.51.59-.12.81,0,1,.83,1a12.94,12.94,0,0,0,2.75-.11c.32-.08.4-.24.46-.56.32-1.84.34-3.73.77-5.55a3.84,3.84,0,0,0,.05-.56c.09-1.08.09-1.09,1.18-1.2a.63.63,0,0,0,.58-.49,2.75,2.75,0,0,1,.39-.91l.29-.57.13-.2.36-.52c.12-.4,0-.63-.45-.63C181.5,49.86,181.27,49.93,181.11,49.74Z" style="fill:#2a2325"/><path d="M192.33,56.78a7.11,7.11,0,0,1-6.57,3.1,7.81,7.81,0,0,1-3.83-1.35,4,4,0,0,0,1.16,1.78,7.16,7.16,0,0,0,6.21.87,7.39,7.39,0,0,0,3.47-2,13.48,13.48,0,0,0,.81-1.1c.27-.34-.12-.46-.35-.55a2.52,2.52,0,0,0-.62,0C192.09,57.46,192,57.25,192.33,56.78Z" style="fill:#2a2325"/><path d="M188.44,56.23a1.89,1.89,0,0,1,1.08-.24H192c.29,0,.54,0,.67.33h.19c1.36,0,1.27,0,1.42-1.3a6.5,6.5,0,0,0-.78-3.79c-.29-.56-.27,0-.39.07a17.68,17.68,0,0,1,0,2.63c-.06.48-.24.63-.72.63-2.37,0-4.74,0-7.1,0-.46,0-.65.15-.7.58a1.42,1.42,0,0,0,1.11,1.62c0-.47.32-.57.71-.56Z" style="fill:#2a2325"/><path d="M97.76,57.4A9.05,9.05,0,0,1,95,59.32a8.8,8.8,0,0,1-4.61.42,11.56,11.56,0,0,1-2.62-1.12A4.26,4.26,0,0,0,90.3,61a8.1,8.1,0,0,0,4.25.36,5.45,5.45,0,0,0,3.31-1.54c.42-.43.74-.94,1.19-1.33a.56.56,0,0,0,.19-.68.61.61,0,0,0-.63-.32A1.48,1.48,0,0,1,97.76,57.4Z" style="fill:#2a2325"/><path d="M98.83,51.11a14.2,14.2,0,0,1,0,2.87c-.09.41-.2.58-.62.58-2.36,0-4.73,0-7.09,0-.73,0-.82.08-.77.85s.35,1.17.91,1.29c.08-.25.27-.48.51-.47a6.38,6.38,0,0,1,2.32.12A2.07,2.07,0,0,1,95.47,56c.74,0,1.49,0,2.23,0,.27,0,.55,0,.7.28a6.76,6.76,0,0,1,1.39-.11,16.94,16.94,0,0,1,.2-3.31,1.4,1.4,0,0,1-.46-.83A1.43,1.43,0,0,0,98.83,51.11Z" style="fill:#2a2325"/><path d="M155.36,53.87l-.11.73,0,.28-.11.72-.12.54a2.19,2.19,0,0,0-.12.9v0l0,0-.13.77c.1.24-.07.43-.11.64-.28,1-.28,1-1.38,1a5.92,5.92,0,0,0-1.36,0c-.36.33-.21.78-.24,1.18,0,.25.22.27.41.27h2.83c.42,0,.57-.21.63-.62.26-1.94.55-3.88,1-5.79a2.94,2.94,0,0,0,0-.44c.05-.91.24-1.1,1.19-1.07.53,0,.42-.49.65-.71l.82-1.56h0l.15-.28c.08-.26.12-.54-.27-.5s-.74-.21-.88.31a3,3,0,0,0-.05.42c0,.65-.38.89-1,.82a2.93,2.93,0,0,0-1.23.06l0,0,0,0c-.21.14-.2.36-.21.58v0l-.13.81A2,2,0,0,1,155.36,53.87Z" style="fill:#2a2325"/><path d="M118.62,59.44c-.82.18-1.66,0-2.49.11a1.5,1.5,0,0,0-.27,1c0,.32.14.46.45.46h2.95c.26,0,.44-.08.48-.38.25-1.75.49-3.49.79-5.23A3.13,3.13,0,0,1,121.82,53a1.75,1.75,0,0,1,.87-.29c.84,0,.89-.11.63-.94-.19-.46-.6-.52-1-.6a.65.65,0,0,1-.51,0l-.59.14-.22.1a1.12,1.12,0,0,0-.61.49v0h0l-.29.39a3.1,3.1,0,0,1-.34.93,2,2,0,0,0-.12.87,7,7,0,0,1-.26,1.51l-.12.76a6.34,6.34,0,0,1-.25,1.51,2.52,2.52,0,0,0-.12.87A.67.67,0,0,1,118.62,59.44Z" style="fill:#2a2325"/><path d="M85.69,49.63c-.38.47-.23,1-.34,1.57s-.22.66-.71.36a3.08,3.08,0,0,0-4.29,3.88,1.25,1.25,0,0,0,.9.78,2,2,0,0,1,.48-2c1.11-1.42,2.1-1.79,3.85-1a1.26,1.26,0,0,0,.91,0h0a3.79,3.79,0,0,1,.12-1.67C86.92,50.35,86.79,50.09,85.69,49.63Z" style="fill:#2a2325"/><path d="M149.53,44.71a12.14,12.14,0,0,0-1.46,2c-.29.39-.48.46-.89.16a3,3,0,0,0-3.25-.42,1.34,1.34,0,0,0-.93,1.35,1.44,1.44,0,0,0,1.32,1c.37-1.16,1.67-1.19,2.52-1a3,3,0,0,1,1.42.74c.25.27.51.13.76-.09a9.11,9.11,0,0,0,1.24-1.86c.23-.35.7-.61.62-1.11s-.68-.39-1-.66A3,3,0,0,0,149.53,44.71Z" style="fill:#2a2325"/><path d="M84.33,57.73a1.74,1.74,0,0,1-1.18,1.85A6.63,6.63,0,0,1,79,59.52a16.37,16.37,0,0,1-1.82-1.05A4.85,4.85,0,0,0,79.71,61,6.65,6.65,0,0,0,84.86,61c.17-.07.33-.12.31-.33-.06-.7.36-1.33.28-2a.71.71,0,0,1,0-.31c.07-.2.33-.37.06-.6s-.4,0-.59.13S84.49,58.08,84.33,57.73Z" style="fill:#2a2325"/><path d="M126.85,57.57l-.06.61a1.57,1.57,0,0,1-.14,1,.63.63,0,0,1-.68.45c-.5,0-1,0-1.51,0s-.79.32-.77,1,.4.43.72.43h2.45c.38,0,.66-.14.71-.55.21-2,.69-4,1-6.06a11.1,11.1,0,0,0,0-2.32,1.33,1.33,0,0,0,0-.37c-.12-.3-.19-.81-.51-.78s-.17.52-.21.8c-.24,1.57-.47,3.15-.71,4.72A2.36,2.36,0,0,1,126.85,57.57Z" style="fill:#2a2325"/><path d="M52.35,109a4.35,4.35,0,0,0,2.44,2.6.57.57,0,0,0,.48,0c-.18-.74-.67-1.33-.91-2a12.8,12.8,0,0,1-.68-1.93c0-.27-.17-.54-.43-.54s-.19.35-.25.55A2.71,2.71,0,0,1,52.35,109Z" style="fill:#2a2325"/><path d="M144.34,54.1a.79.79,0,0,0-.3-.41,15.68,15.68,0,0,0-3.27-1.27,1.85,1.85,0,0,0-.36-.13c-.22,0-.44-.44-.64-.13s.17.44.31.63a4.71,4.71,0,0,0,1.73,1.08c.67.35,1.45.34,2.14.68C144.34,54.75,144.38,54.41,144.34,54.1Z" style="fill:#2a2325"/><path d="M179.4,46.4a2.88,2.88,0,0,0-.31,1c-.17.82,0,1,.81.88l.74-.1c-.51-.24-.25-.67-.19-1,.12-.64.06-.76-.57-.74A2.72,2.72,0,0,1,179.4,46.4Z" style="fill:#2a2325"/><path d="M156.61,46.56a1.76,1.76,0,0,0-.32,1.3c.08.72.65.39,1.07.36.12-.37.25-.73.34-1.11s-.16-.46-.41-.51A4.45,4.45,0,0,0,156.61,46.56Z" style="fill:#2a2325"/><path d="M59.52,58.44a.29.29,0,0,0-.28-.31C59.25,58.31,59.3,58.46,59.52,58.44Z" style="fill:#2a2325"/><path d="M76.85,51.34h0Z" style="fill:#2a2325"/><path d="M77,51.18h0Z" style="fill:#2a2325"/><path d="M105.38,200.47h0Z" style="fill:#2a2325"/><polygon points="49.57 203.13 49.6 203.12 49.6 203.15 49.57 203.13" style="fill:#2a2325"/><path d="M112.59,110.63a2.36,2.36,0,0,0,1.5.69,9.83,9.83,0,0,0,8.25-1.26,10,10,0,0,0,3.71-4.63,15.63,15.63,0,0,0,.8-9.08,12.44,12.44,0,0,0-3-6.15c-.14-.15-.3-.29-.45-.44l0,0-.27-.12a10,10,0,0,0-3-.7,9,9,0,0,0-4.73.87A9.79,9.79,0,0,0,111.68,93a12.15,12.15,0,0,0-2.42,5.88,14.23,14.23,0,0,0,3,11.68l.15.12C112.49,110.7,112.54,110.68,112.59,110.63Z" style="fill:#eb1c25"/><path d="M112.29,110.52a14.23,14.23,0,0,1-3-11.68A12.15,12.15,0,0,1,111.68,93a9.79,9.79,0,0,1,3.72-3.13,9,9,0,0,1,4.73-.87,10,10,0,0,1,3,.7,4.59,4.59,0,0,0-2.4-1.65c-5.3-2.22-10.85.21-13.08,5.67a15.76,15.76,0,0,0-.56,10.18,10.66,10.66,0,0,0,4.51,6.37A1.24,1.24,0,0,0,112.29,110.52Z" style="fill:#2a2325"/><path d="M112.59,110.63c-.05,0-.11.07-.16,0Z" style="fill:#2a2325"/><polygon points="123.39 89.78 123.38 89.75 123.42 89.75 123.39 89.78" style="fill:#2a2325"/><path d="M116.38,183.19a5.75,5.75,0,0,0,3.08.92,9.85,9.85,0,0,0,5.95-1.16,9.52,9.52,0,0,0,3.61-3.65,15,15,0,0,0,1.4-10.88,11.34,11.34,0,0,0-3.57-6.33,1.14,1.14,0,0,0-.21-.12,3.3,3.3,0,0,1-.68-.07,12.74,12.74,0,0,0-2.56-.44,10.57,10.57,0,0,0-3.08.44,6.52,6.52,0,0,0-3.38,1.76,13.58,13.58,0,0,0-4.06,9.52,24.3,24.3,0,0,0,.4,4.09,11,11,0,0,0,2,4.82A3.16,3.16,0,0,0,116.38,183.19Z" style="fill:#eb1c25"/><path d="M116.38,183.19a3.16,3.16,0,0,1-1.05-1.12,11,11,0,0,1-2-4.82,24.3,24.3,0,0,1-.4-4.09,13.58,13.58,0,0,1,4.06-9.52,6.52,6.52,0,0,1,3.38-1.76,10.57,10.57,0,0,1,3.08-.44,12.74,12.74,0,0,1,2.56.44,3.3,3.3,0,0,0,.68.07,6.79,6.79,0,0,0-3.51-1.92,9.4,9.4,0,0,0-8.6,1.72,11.16,11.16,0,0,0-3.8,6.14A15.66,15.66,0,0,0,111,177a10.16,10.16,0,0,0,5.07,6.12C116.15,183.19,116.25,183.27,116.38,183.19Z" style="fill:#2a2325"/><path d="M175.77,115.4c.09.05.17.15.26.15a9.85,9.85,0,0,0,5.27-1.09c1.78-1.1,2.15-2.83,2-4.74a3.69,3.69,0,0,0-.78-2.34l0,0-.13-.13a23.25,23.25,0,0,0-2.54-.45c-1.12-.08-2.26,0-3.39,0-.77,0-.87.11-.87.88,0,2.2,0,4.39,0,6.59C175.66,114.65,175.52,115.05,175.77,115.4Z" style="fill:#eb1c25"/><path d="M175.77,115.4c-.24-.35-.11-.75-.11-1.12,0-2.2,0-4.39,0-6.59,0-.77.1-.87.87-.88,1.13,0,2.26-.06,3.39,0a23.25,23.25,0,0,1,2.54.45,3.63,3.63,0,0,0-2.36-1.7,13.35,13.35,0,0,0-4-.5c-.8,0-1.59,0-2.39,0-.45,0-.65.16-.65.62q0,4.62,0,9.24c0,.45.14.71.67.66s.92,0,1.38,0C175.31,115.57,175.58,115.63,175.77,115.4Z" style="fill:#2a2325"/><path d="M175.64,91.58c3.07.31,5.49-1.15,5.47-4.46a3.85,3.85,0,0,0-.71-2.71c-1.27,0-2.55,0-3.82,0-.9,0-.94.08-.93,1C175.65,87.45,175.64,89.51,175.64,91.58Z" style="fill:#eb1c25"/><path d="M175.64,91.58c0-2.07,0-4.13,0-6.2,0-.89,0-1,.93-1,1.27,0,2.55,0,3.82,0a2.55,2.55,0,0,0-1.9-1.45c-1.63-.51-3.32-.25-5-.31-.4,0-.5.29-.5.65q0,3.52,0,7a8,8,0,0,1,0,.81c0,.31.12.54.4.53A7.49,7.49,0,0,0,175.64,91.58Z" style="fill:#2a2325"/><polygon points="182.58 107.42 182.56 107.39 182.59 107.39 182.58 107.42" style="fill:#2a2325"/><path d="M196.48,74.12v0Z" style="fill:#eb1c25"/><path d="M185.56,181.46q0-10.51,0-21c0-.48.21-.59.6-.57l9.61.49c.87,0,.9,0,.9-.84q0-8.66,0-17.31c0-.54,0-1.09.06-1.63s-.15-.79-.7-.77-.84,0-1.26,0H155.34c-.91,0-1,.06-1,1q0,9.38,0,18.76c0,.88.06.94.93.89l9.42-.52c.8,0,.87,0,.81.82-.12,1.59-.08,3.19-.08,4.78q0,17.85,0,35.7c0,.36,0,.71,0,1.07,0,.85.08,1,.91.95,1.15,0,2.31,0,3.46,0q7.52,0,15,0c.57,0,.71-.2.71-.73Q185.55,191.95,185.56,181.46Z" style="fill:#fdfcfc"/><path d="M62.76,54.65a2.68,2.68,0,0,0,2.4,1.2,5.49,5.49,0,0,0,5.44-3.73A4.09,4.09,0,0,0,70.92,50c0-.3,0-.63-.31-.86a.5.5,0,0,1-.43-.13,3.08,3.08,0,0,0-1.72-.64,5.19,5.19,0,0,0-2.53.43,6.65,6.65,0,0,0-2.41,2A5.35,5.35,0,0,0,62.76,54.65Z" style="fill:#eb1c25"/><path d="M62.76,54.65a5.35,5.35,0,0,1,.76-3.88,6.65,6.65,0,0,1,2.41-2,5.19,5.19,0,0,1,2.53-.43,3.08,3.08,0,0,1,1.72.64.5.5,0,0,0,.43.13,2.51,2.51,0,0,0-1.43-1.85,5,5,0,0,0-6.34,1.3A4.59,4.59,0,0,0,62,53.82C62.17,54.17,62.32,54.55,62.76,54.65Z" style="fill:#2a2325"/><path d="M140.81,59.95a5.91,5.91,0,0,0,1.75,0A8.82,8.82,0,0,0,140.81,59.95Z" style="fill:#eb1c25"/><path d="M147.84,57.16a4.48,4.48,0,0,0,.81-1.58Z" style="fill:#eb1c25"/><path d="M148.83,55a3.15,3.15,0,0,0,.25-1.14A4.77,4.77,0,0,0,148.83,55Z" style="fill:#eb1c25"/><path d="M143.33,59.83a1.75,1.75,0,0,0,.86-.23A2,2,0,0,0,143.33,59.83Z" style="fill:#eb1c25"/><path d="M139.17,59.6c.25.11.47.3.77.24A1.76,1.76,0,0,0,139.17,59.6Z" style="fill:#eb1c25"/><path d="M144.81,59.43l.82-.33A1.3,1.3,0,0,0,144.81,59.43Z" style="fill:#eb1c25"/><path d="M146.6,58.43c.12,0,.24-.08.3-.21l-.27.15,0,0Z" style="fill:#eb1c25"/><path d="M146.25,58.69h0v0S146.23,58.65,146.25,58.69Z" style="fill:#eb1c25"/><path d="M147.3,57.84h0v0l0,0,0,0Z" style="fill:#eb1c25"/><path d="M147.53,57.58h0v0C147.51,57.52,147.5,57.53,147.53,57.58Z" style="fill:#eb1c25"/><path d="M109,53c0-1.11-1.2-1.72-2.23-1.66A3,3,0,0,0,104,55a1.16,1.16,0,0,0,.83,1,.86.86,0,0,0,.19-.63,2.87,2.87,0,0,1,2.13-2.24A12.2,12.2,0,0,0,109,53Z" style="fill:#2a2325"/><path d="M109,53a12.2,12.2,0,0,1-1.79.08,2.87,2.87,0,0,0-2.13,2.24.86.86,0,0,1-.19.63,2.65,2.65,0,0,0,3.41-.48A2.44,2.44,0,0,0,109,53Z" style="fill:#eb1c25"/><path d="M167.12,53.15a1.94,1.94,0,0,0-2.41-1.77,3.13,3.13,0,0,0-2.58,2.43,1.78,1.78,0,0,0,.93,2.17,3.64,3.64,0,0,1,.52-1.64A2.54,2.54,0,0,1,165.4,53,6.4,6.4,0,0,1,167.12,53.15Z" style="fill:#2a2325"/><path d="M167.12,53.15a6.4,6.4,0,0,0-1.72-.1,2.54,2.54,0,0,0-1.81,1.3,3.64,3.64,0,0,0-.52,1.64,2.33,2.33,0,0,0,2.58.12,3,3,0,0,0,1.62-2.71C167.26,53.29,167.24,53.19,167.12,53.15Z" style="fill:#eb1c25"/><path d="M159.19,50.83h0Z" style="fill:#eb1c25"/><path d="M92.41,52.23c.84,0,1.68,0,2.51,0,.5,0,.53-.2.37-.58A2.27,2.27,0,0,0,91.83,51a2.17,2.17,0,0,0-.74.76c-.16.35-.16.56.31.54s.67,0,1,0Z" style="fill:#2a2325"/><path d="M94.12,56.31a6.38,6.38,0,0,0-2.32-.12c-.23,0-.42.22-.51.47A2.1,2.1,0,0,0,94.12,56.31Z" style="fill:#eb1c25"/><path d="M119,57.89a6.34,6.34,0,0,0,.25-1.51A4.48,4.48,0,0,0,119,57.89Z" style="fill:#eb1c25"/><path d="M119.33,55.62a7,7,0,0,0,.26-1.51A3.93,3.93,0,0,0,119.33,55.62Z" style="fill:#eb1c25"/><path d="M119.71,53.23a3.1,3.1,0,0,0,.34-.93A2.39,2.39,0,0,0,119.71,53.23Z" style="fill:#eb1c25"/><path d="M118.62,59.44a.67.67,0,0,0,.23-.68Z" style="fill:#eb1c25"/><path d="M121.79,51.15a.65.65,0,0,0,.51,0c-.16-.13-.32,0-.48,0l-.06,0Z" style="fill:#eb1c25"/><path d="M121,51.39l.22-.1c-.09-.08-.14,0-.2,0S121,51.37,121,51.39Z" style="fill:#eb1c25"/><path d="M120.34,51.91h0v0S120.31,51.86,120.34,51.91Z" style="fill:#eb1c25"/><path d="M187.47,52.29a9.65,9.65,0,0,1,1.63,0c.5.08.59-.17.43-.59a2.19,2.19,0,0,0-2.72-1,3.11,3.11,0,0,0-1.44,1.06.48.48,0,0,0-.14.46c.08.21.28.15.44.15Z" style="fill:#2a2325"/><path d="M188.44,56.23l-2-.05c-.39,0-.7.09-.71.56a2.16,2.16,0,0,0,2.17.07C188.09,56.66,188.4,56.57,188.44,56.23Z" style="fill:#eb1c25"/><path d="M181.78,51l-.13.2C181.77,51.19,181.81,51.12,181.78,51Z" style="fill:#eb1c25"/><path d="M155.36,53.87a2,2,0,0,0,.13-.78A1.08,1.08,0,0,0,155.36,53.87Z" style="fill:#eb1c25"/><path d="M154.63,58.49c0-.22.21-.41.11-.64A.92.92,0,0,0,154.63,58.49Z" style="fill:#eb1c25"/><path d="M155,56.14l.12-.54C155,55.76,154.89,55.93,155,56.14Z" style="fill:#eb1c25"/><path d="M155.23,54.88l0-.28A.18.18,0,0,0,155.23,54.88Z" style="fill:#eb1c25"/><path d="M154.87,57.08l0,0v0l0,0Z" style="fill:#eb1c25"/><path d="M155.83,51.66l0,0,0,0,0,0Z" style="fill:#eb1c25"/><path d="M155.62,52.28v0h0Z" style="fill:#eb1c25"/></svg>