<svg xmlns="http://www.w3.org/2000/svg" viewBox="0 0 250 250"><title>Grocery</title><path d="M201.42,167.49A15.69,15.69,0,0,0,217,151.54V98.46a15.77,15.77,0,0,0-15.57-15.95H52.57A15.77,15.77,0,0,0,37,98.46v53.07a15.69,15.69,0,0,0,15.57,15.95Z" style="fill:#ec1b2e;stroke:#fcb945;stroke-miterlimit:2.61310005187988;stroke-width:3.75235176086426px;fill-rule:evenodd"/><polygon points="178.07 151.81 184.11 151.81 184.11 126.79 178.07 126.79 178.07 151.81 178.07 151.81" style="fill:#fffdee;fill-rule:evenodd"/><path d="M143.3,141.5c0,5.22,3.62,8.66,8.19,8.66a7.75,7.75,0,0,0,1.88-.27,1.48,1.48,0,0,1-.67,2.47c-1.88.83-4.56-.14-6.31-1.79l-3.09,4.26a11.54,11.54,0,0,0,6.31,2.89c4.16.55,8.05-.82,9.53-3.85,1.21-2.61.94-4.67-.81-7.29a8.6,8.6,0,0,0,1.48-4.95,9.44,9.44,0,0,0-1.34-4.67l-.13-.55a6.81,6.81,0,0,1,1.61-2.89H154a7.27,7.27,0,0,0-2.55-.28,8.19,8.19,0,0,0-8.19,8.25l5.77-.14c0-1.51,1.34-2.06,2.55-2.06a2.38,2.38,0,0,1,2.28,2.34,2.43,2.43,0,1,1-4.83-.27l-5.77.14Z" style="fill:#fffdee;fill-rule:evenodd"/><path d="M160.49,141.5c0,5.22,3.62,8.66,8.32,8.66a7.69,7.69,0,0,0,1.74-.27,1.48,1.48,0,0,1-.67,2.47c-1.88.83-4.56-.14-6.31-1.79l-3.09,4.26a11.55,11.55,0,0,0,6.31,2.89c4.16.55,8.05-.82,9.53-3.85,1.21-2.61.94-4.67-.81-7.29a8.59,8.59,0,0,0,1.48-4.95,9.43,9.43,0,0,0-1.34-4.67v-.55a5.65,5.65,0,0,1,1.48-2.89h-5.77a8.07,8.07,0,0,0-2.55-.28,8.31,8.31,0,0,0-8.32,8.25l5.77-.14c0-1.51,1.34-2.06,2.55-2.06a2.38,2.38,0,0,1,2.28,2.34,2.43,2.43,0,1,1-4.83-.27l-5.77.14Z" style="fill:#fffdee;fill-rule:evenodd"/><polygon points="194.98 157.72 202.23 133.53 195.92 133.53 188.67 157.72 194.98 157.72 194.98 157.72" style="fill:#fffdee;fill-rule:evenodd"/><polygon points="190.82 150.57 185.32 133.53 191.49 133.53 197.13 150.57 190.82 150.57 190.82 150.57" style="fill:#fffdee;fill-rule:evenodd"/><polygon points="136.19 151.81 142.23 151.81 142.23 133.53 136.19 133.53 136.19 151.81 136.19 151.81" style="fill:#fffdee;fill-rule:evenodd"/><polygon points="136.19 131.6 142.23 131.6 142.23 126.79 136.19 126.79 136.19 131.6 136.19 131.6" style="fill:#fffdee;fill-rule:evenodd"/><path d="M121.43,112.35a3.29,3.29,0,1,0,3.22-3.3,3.31,3.31,0,0,0-3.22,3.3l-5.77-.14v-8.94h5.91l-.13,1.24a8,8,0,0,1,4.7-1.51c4.56,0,8.32,4.26,8.32,9.49s-3.76,9.35-8.32,9.35a7.32,7.32,0,0,1-4.56-1.51v7.29h-5.91v-15.4l5.77.14Z" style="fill:#fffdee;fill-rule:evenodd"/><polygon points="134.98 121.56 141.02 121.56 141.02 103.28 134.98 103.28 134.98 121.56 134.98 121.56" style="fill:#fffdee;fill-rule:evenodd"/><polygon points="134.98 101.35 141.02 101.35 141.02 96.54 134.98 96.54 134.98 101.35 134.98 101.35" style="fill:#fffdee;fill-rule:evenodd"/><path d="M159.14,111.25a8.07,8.07,0,0,0,8.19,8.66,7.74,7.74,0,0,0,1.88-.28,1.55,1.55,0,0,1-.67,2.47c-2,.83-4.56-.14-6.44-1.79l-3,4.26a11.54,11.54,0,0,0,6.31,2.89c4.16.55,8.05-.82,9.53-3.85,1.21-2.61.94-4.67-.81-7.29a8.6,8.6,0,0,0,1.48-4.95,8.37,8.37,0,0,0-1.48-4.67v-.55a7.42,7.42,0,0,1,1.48-2.89h-5.77a7.27,7.27,0,0,0-2.55-.28,8.11,8.11,0,0,0-8.19,8.25l5.77-.14c0-1.51,1.34-2.06,2.55-2.06a2.38,2.38,0,0,1,2.28,2.34,2.43,2.43,0,1,1-4.83-.27l-5.77.14Z" style="fill:#fffdee;fill-rule:evenodd"/><polygon points="193.5 127.47 200.89 103.28 194.58 103.28 187.33 127.47 193.5 127.47 193.5 127.47" style="fill:#fffdee;fill-rule:evenodd"/><polygon points="189.48 120.33 183.84 103.28 190.15 103.28 195.79 120.33 189.48 120.33 189.48 120.33" style="fill:#fffdee;fill-rule:evenodd"/><path d="M141.83,111.25a8.07,8.07,0,0,0,8.19,8.66,8.86,8.86,0,0,0,1.88-.28s1.21,1.51-.81,2.47-4.43-.14-6.31-1.79l-3.09,4.26a11.55,11.55,0,0,0,6.31,2.89c4.16.55,8.19-.82,9.66-3.85,1.21-2.61.94-4.67-.81-7.29a8.6,8.6,0,0,0,1.48-4.95,8.37,8.37,0,0,0-1.48-4.67v-.55a7.42,7.42,0,0,1,1.48-2.89h-5.77A7.65,7.65,0,0,0,150,103a8.31,8.31,0,0,0-8.32,8.25l5.91-.14c0-1.51,1.21-2.06,2.42-2.06a2.41,2.41,0,0,1,2.42,2.34,2.44,2.44,0,0,1-2.42,2.47,2.46,2.46,0,0,1-2.55-2.75l-5.64.14Z" style="fill:#fffdee;fill-rule:evenodd"/><polygon points="176.73 121.56 182.77 121.56 182.77 96.54 176.73 96.54 176.73 121.56 176.73 121.56" style="fill:#fffdee;fill-rule:evenodd"/><polygon points="114.98 151.67 110.82 133.53 116.73 133.53 120.89 151.67 114.98 151.67 114.98 151.67" style="fill:#fffdee;fill-rule:evenodd"/><polygon points="130.69 151.67 134.98 133.53 129.08 133.53 124.78 151.67 130.69 151.67 130.69 151.67" style="fill:#fffdee;fill-rule:evenodd"/><polygon points="120.75 151.67 125.05 133.53 120.75 133.53 116.46 151.67 120.75 151.67 120.75 151.67" style="fill:#fffdee;fill-rule:evenodd"/><polygon points="124.92 151.67 120.75 133.53 125.05 133.53 129.21 151.67 124.92 151.67 124.92 151.67" style="fill:#fffdee;fill-rule:evenodd"/><path d="M49.88,103.83c.67-.83,1.61-.69,2.28-1.37a1,1,0,0,0,.4-.83c.27-1.51.54-3,.94-4.67a4.13,4.13,0,0,1,1.61-2.61c1.75-.83,3.76-.69,5.64-.83.67,0,1.61,0,1.88-.69s1.21-1.92,2-1.24c2.15,1.79,3.89,3.44,6.17,5.09,2,1.24,3.62,2.61,5.64,3.85.54.41,1.07,1,1.61.69a14,14,0,0,1,4.56-1.65,8.83,8.83,0,0,1,2.68-.14c.67.14,1.34.14,2,.28,3.76.83,6.58,2.89,9.66,5.22h.54a8.65,8.65,0,0,1,2.15-1.24,1.43,1.43,0,0,1,.67-.14c2.55-1.1,5.24-1,7.79-1.1.4,0,.8.27.8.55a19.45,19.45,0,0,1-3.36,13.75,1.05,1.05,0,0,0-.13.69c.4,3.3,1.07,6.46.81,9.76a13.27,13.27,0,0,1-1.07,4.13c-.27.82-.94,1.51-.67,2.2a14,14,0,0,1,.4,8.11,12.19,12.19,0,0,1-3.62,6c-1.34,1.24-2.82,2.2-4.16,3.3A12.64,12.64,0,0,1,88.81,157c-3.49.82-7,.14-10.34-1a10.18,10.18,0,0,1-7.79-.27c-3.89-1.93-6.17-5.78-7.79-9.76A7.76,7.76,0,0,1,60.75,144,9.81,9.81,0,0,1,59,141c-.4-.69-.27-1.79-.94-2.2-2.28-1.79-4.56-3.3-6-5.91a25.19,25.19,0,0,1-2.15-4.26c-.94-2.47-2-4.95-1.88-7.7a33.11,33.11,0,0,1,6.44-2.47c-.54-4-3.36-7.15-4.7-11a3.76,3.76,0,0,1,.13-3.57Z" style="fill:#231f20;fill-rule:evenodd"/><path d="M49.88,103.83c.67-.83,1.61-.69,2.28-1.37a1,1,0,0,0,.4-.83c.27-1.51.54-3,.94-4.67a4.13,4.13,0,0,1,1.61-2.61c1.75-.83,3.76-.69,5.64-.83.67,0,1.61,0,1.88-.69s1.21-1.93,2-1.24c2.15,1.79,3.89,3.44,6.17,5.09,2,1.24,3.62,2.61,5.64,3.85.54.41,1.07,1,1.61.69a14,14,0,0,1,4.56-1.65,8.83,8.83,0,0,1,2.68-.14c.67.14,1.34.14,2,.28,3.76.83,6.58,2.89,9.66,5.22h.54a8.64,8.64,0,0,1,2.15-1.24,1.43,1.43,0,0,1,.67-.14c2.55-1.1,5.24-1,7.79-1.1.4,0,.8.27.8.55a19.45,19.45,0,0,1-3.36,13.75,1.05,1.05,0,0,0-.13.69c.4,3.3,1.07,6.46.81,9.76a13.27,13.27,0,0,1-1.07,4.13c-.27.82-.94,1.51-.67,2.2a14,14,0,0,1,.4,8.11,12.19,12.19,0,0,1-3.62,6c-1.34,1.24-2.82,2.2-4.16,3.3A12.64,12.64,0,0,1,88.81,157c-3.49.82-7,.14-10.34-1a10.18,10.18,0,0,1-7.79-.27c-3.89-1.93-6.17-5.78-7.79-9.76A7.77,7.77,0,0,1,60.75,144a9.81,9.81,0,0,1-1.75-3c-.4-.69-.27-1.79-.94-2.2-2.28-1.79-4.56-3.3-6-5.91a25.19,25.19,0,0,1-2.15-4.26,21.59,21.59,0,0,1-1.88-7.7,33.11,33.11,0,0,1,6.44-2.47c-.54-4-3.36-7.15-4.7-11a3.76,3.76,0,0,1,.13-3.57Z" style="fill:none;stroke:#231f20;stroke-miterlimit:2.61310005187988;stroke-width:0.175128653645515px"/><path d="M52.43,106.44c.67,3.3,2.82,5.78,3.89,8.8.27.83.67,1.65.94,2.34.13.27.27.27.4.27,2.15-.14,3.89-1,6-1.38s3.76-1,5.77-1.24a2.91,2.91,0,0,0,.67-.41c1.07-2.06,1.88-4.13,2.82-6.19.81-1.65,1.88-3.16,2.55-4.81.27-1.1-.94-1.79-1.74-2.34-1.07-.55-2.15-1.24-3.22-1.79a22.12,22.12,0,0,1-3.62-2.61l-2-2.06c-.13-.14-.4.14-.4.14-.13,4.54,1.61,8.8,2.68,13.2a1.55,1.55,0,0,1,0,1.1c-.13.41-.4.69-.81.41-1.07-.69-1.88-1.65-3.22-1.92-3.62-.69-7.11-.27-10.47-1.65-.13,0-.4,0-.27.14Z" style="fill:#fffdee;fill-rule:evenodd"/><path d="M55,104.51a11.27,11.27,0,0,0,3.09.69c1.21,0,2.55.41,3.76-.41v-.27a50.33,50.33,0,0,0-5.1-5.64c-.27-.28-.54-.55-.94-.41-.67.27-.67,1.24-.67,1.79a21.32,21.32,0,0,0-.27,4.13.13.13,0,0,0,.13.14Z" style="fill:#fffdee;fill-rule:evenodd"/><path d="M63,102c.13-.27,0-.55,0-.69-.4-1.65-.67-3.44-1.07-5s-2.28-.69-3.49-.69a.53.53,0,0,0-.4.69,21,21,0,0,0,4.7,5.77A.46.46,0,0,1,63,102Z" style="fill:#fffdee;fill-rule:evenodd"/><path d="M54.44,131.88c1.34,2.06,3.36,3,5.37,4.4.27.14.4.41.54.55A13.83,13.83,0,0,0,62.5,142a4.08,4.08,0,0,0,2.28,1.79c1.74,4.26,3.89,9.62,8.86,10.45a6.59,6.59,0,0,0,2.82-.27c.54-.14.67-.55.81-1.1a14.38,14.38,0,0,0,13.56.82,10.39,10.39,0,0,0,3.22-2.2,13.07,13.07,0,0,0,2.42-4c.13-.14.54.28.67.28,4.56-2.34,7.25-8,5.23-12.92a2.88,2.88,0,0,0-.54-.83c-.4-.55-1.07-1-1.48-1.51a.67.67,0,0,1,.13-1c.4-.14,1.21.28,1.48,0,2.55-2.89,2.15-7,1.75-10.72-.27-1.51-.94-3-.67-4.67.13-.83,1.07-1.37,1.48-2.2a10.7,10.7,0,0,0,1.61-3.85c.4-1.51.94-3,.54-4.68,0-.28-.27-.28-.4-.28a14.69,14.69,0,0,0-4.83.69c-1.61.41-2.55,1.37-3.89,2.34h-.27a59.22,59.22,0,0,0-4.83-3.85c-3.49-2.2-7.52-3.3-11.41-1.92a5.13,5.13,0,0,0-2.42,1.65,32.4,32.4,0,0,0-5.24,10.59.64.64,0,0,0,0,.69c1.07,1.1,3.36,1.79,3.22,3.58,0,.27-.27.27-.4.27a10.34,10.34,0,0,1-3-1.65c-1.61-1-3.22.14-4.16,1.51-.54,1.1-.67,2.61-1.88,3.3-.13.14-.54,0-.54-.28a8,8,0,0,1,.81-3.44c0-.14.13-.41-.13-.41a10.9,10.9,0,0,0-5.1,1c-.27.14-1.21.27-.94.69,1.21,1.37,3,2.2,3.76,4v.55a1,1,0,0,1-1.21.27c-1.61-1-2.55-2.47-4.16-3a10.22,10.22,0,0,0-6.71-.14,5.05,5.05,0,0,0-2.28,1.1c0,1.65.81,3.16,1.34,4.68a29.29,29.29,0,0,0,2.42,4.54Z" style="fill:#fbd2c3;fill-rule:evenodd"/><path d="M54.44,131.88c1.34,2.06,3.36,3,5.37,4.4.27.14.4.41.54.55A13.83,13.83,0,0,0,62.5,142a4.08,4.08,0,0,0,2.28,1.79c1.74,4.26,3.89,9.62,8.86,10.45a6.59,6.59,0,0,0,2.82-.27c.54-.14.67-.55.81-1.1a14.38,14.38,0,0,0,13.56.82,10.39,10.39,0,0,0,3.22-2.2,13.07,13.07,0,0,0,2.42-4c.13-.14.54.28.67.28,4.56-2.34,7.25-8,5.23-12.92a2.88,2.88,0,0,0-.54-.83c-.4-.55-1.07-1-1.48-1.51a.67.67,0,0,1,.13-1c.4-.14,1.21.28,1.48,0,2.55-2.89,2.15-7,1.75-10.72-.27-1.51-.94-3-.67-4.67.13-.83,1.07-1.37,1.48-2.2a10.7,10.7,0,0,0,1.61-3.85c.4-1.51.94-3,.54-4.68,0-.28-.4-.28-.4-.28a14.68,14.68,0,0,0-4.83.69c-1.61.41-2.55,1.37-3.89,2.34h-.27a59.22,59.22,0,0,0-4.83-3.85c-3.49-2.2-7.52-3.3-11.41-1.92a5.13,5.13,0,0,0-2.42,1.65,32.4,32.4,0,0,0-5.24,10.59.64.64,0,0,0,0,.69c1.07,1.1,3.36,1.79,3.22,3.58,0,.27-.4.27-.4.27a10.34,10.34,0,0,1-3-1.65c-1.61-1-3.22.14-4.16,1.51-.54,1.1-.67,2.61-1.88,3.3-.13.14-.54,0-.54-.28a8,8,0,0,1,.81-3.44c0-.14.13-.41-.13-.41a10.9,10.9,0,0,0-5.1,1c-.27.14-1.21.27-.94.69,1.21,1.37,3,2.2,3.76,4v.55a1,1,0,0,1-1.21.27c-1.61-1-2.55-2.47-4.16-3a10.22,10.22,0,0,0-6.71-.14,5.05,5.05,0,0,0-2.28,1.1c0,1.65.81,3.16,1.34,4.68a29.29,29.29,0,0,0,2.42,4.54Z" style="fill:none;stroke:#231f20;stroke-miterlimit:2.61310005187988;stroke-width:0.350787341594696px"/><path d="M53.1,123.07c1.34-.82,2.68-.41,4.16-.14a7.68,7.68,0,0,1,3.36,1.24,10.34,10.34,0,0,1,2.68,2.75c.27.27.27,1-.27.82-.94-.28-1.48-1.24-2.42-1.79-.67-.41-1.48-.83-2.28-1.24a12.52,12.52,0,0,0-2.42-.55c-.81-.14-1.61.28-2.42,0-.27-.14-.54-.28-.54-.41s-.27-.55.13-.69Z" style="fill:#231f20;fill-rule:evenodd"/><path d="M88,111c2.42-.69,4.56,1,5.37,3.16.13.41.13.69-.27.83,0,.14-.13.14-.27,0-.8-.55-1.07-1.51-2-1.93a3.4,3.4,0,0,0-2.82-.41c-1.61.55-2,2.34-3.09,3.58-.13.27-.81.41-.81,0a5.86,5.86,0,0,1,2.55-4.54A2.54,2.54,0,0,1,88,111Z" style="fill:#231f20;fill-rule:evenodd"/><path d="M101,107.13c1.07-.55,2.28-1.24,3.49-.83a.62.62,0,0,1,.27.83c-.4,1-1.61,1-2.55,1.24A16.41,16.41,0,0,0,99.68,110c-.54.41-1.21-.28-.94-.83a4.78,4.78,0,0,1,2.28-2.06Z" style="fill:#231f20;fill-rule:evenodd"/><path d="M70.15,139s-2-4.54-1.48-8.66,3.76-6.32,6.44-4.54,5.1,6.46,4.83,10.72a4.91,4.91,0,0,1-4.3,1.92c-3-.14-4.83-.69-5.5.55Z" style="fill:#fffdee;fill-rule:evenodd"/><path d="M86,134.49a18.86,18.86,0,0,1-1.21-8.8c.67-4.13,2.55-5.23,4.43-5.23s6.31,3.57,6.31,8.66v4.26S93.64,135,86,134.49Z" style="fill:#fffdee;fill-rule:evenodd"/><path d="M71,125c3.36-1.65,6.71,1.37,8.05,4.4a15.21,15.21,0,0,1,1.21,7.29c0,.14-.27.55-.54.41-.67-1.1-.4-2.34-.67-3.44a18.63,18.63,0,0,0-1.34-3.85,5.92,5.92,0,0,0-2.42-3,3.63,3.63,0,0,0-3.49-.69c-1.61.55-2.42,2.34-2.55,4.13a17.55,17.55,0,0,0,.4,5.22c.27.83.13,1.79.81,2.2.4.28,1.48,0,1.48-.41.27-1.65-.67-3.44.4-4.95.4-.55.94-1.38,1.48-1.1s.54,1.24.94,1.65c.67-.41.4-1.51,1.21-1.65,2.15,1.37,2.68,4.4,2,6.6-.13.27-.94.14-.81.27,1.48,2.2,2.82,4.13,3.22,6.74a1,1,0,0,0,.94.83,6.55,6.55,0,0,0,3.62-.28,20.73,20.73,0,0,1-1.34-4.95,13.26,13.26,0,0,1,.13-4,.13.13,0,0,0-.13-.14,9.46,9.46,0,0,1-1.21,1c-.27.14-.94.14-.94-.41s.67-.69,1.07-1v-.28c-.54-.55-1.21-.14-1.75-.55-.4-.14-.13-.69.13-.83a9.93,9.93,0,0,1,2,.14,3.66,3.66,0,0,0,2.42-.14,7.15,7.15,0,0,0-.81-2.75,14.76,14.76,0,0,1-.13-7.56,5.79,5.79,0,0,1,1.88-3,6.12,6.12,0,0,1,1.74-1.1,3.27,3.27,0,0,1,2.28.14,4.78,4.78,0,0,1,3.09,2.34,15,15,0,0,1,2.68,11.14.66.66,0,0,1-.8.55.29.29,0,0,1-.27-.28c.4-4.54-.4-10.59-5.1-12.37a2.42,2.42,0,0,0-2.15.28,4.82,4.82,0,0,0-2.28,3.71,7,7,0,0,0-.13,2.89,5.28,5.28,0,0,0,.13,1.51c.4,1.37.4,2.89,1.21,4,.13.14.27,0,.4,0a.51.51,0,0,1,.27.69c-.54.55-1.21.83-1.61,1.38a4.29,4.29,0,0,0-.67,1.65c-.4,2.61-.4,5.64,1.48,7.7.13.14.81-.28.67-.41-1.21-3.16-2.42-7.7.54-10-.94-2.61-.94-6.19,1.21-8.11.81.14,1.07,1.1,1.48,1.65.13.14.27.41.4.14a1.44,1.44,0,0,0,.54-1.1c0-.14.27-.14.4,0,1.34,1.24,1.48,3.16,1.75,4.95,0,.55,0,1.38-.67,1.65,1.34,1.51,3,2.89,3.36,4.95.27.83.81,1.65.4,2.2-1.21,1.51-3.22,2.06-3.76,4s-.8,3.85-1.88,5.5a3,3,0,0,1-.94,1.24,6.43,6.43,0,0,1-1.48.55c-3.36.55-4.7-2.61-6.71-4.54-.27-.27-.67-.82-1.07-.55s-.27,1.24-1.07,1.1c-.54-1.65-.4-3.57-1.07-5.23a8.25,8.25,0,0,0-3.89-4.4c-1.07-.55-2.15,0-3.09.41-1.61.82-2.55,2.34-3.89,3.57-.27.14-.94,0-.81-.41A8.61,8.61,0,0,1,69.21,139a.43.43,0,0,0,0-.55A18.57,18.57,0,0,1,68,129.95c.27-2.06,1.07-4.12,3-4.95Z" style="fill:#231f20;fill-rule:evenodd"/><path d="M90.42,134.76c-1.48-.14-2.69,1.24-3.09,2.47a9,9,0,0,0,.81,6.46c.13.14.27.41.4.27a9.92,9.92,0,0,0,6.71-3.57c-.54-2.47-2.15-5.5-4.83-5.64Z" style="fill:#fbd2c3;fill-rule:evenodd"/><path d="M84.11,147.14a1.36,1.36,0,0,0-.54.14A6.47,6.47,0,0,0,86.93,151a2.88,2.88,0,0,0,2.55-.41c.67-.41.81-1.1,1.07-1.92a17.72,17.72,0,0,0,.67-3.85,5.24,5.24,0,0,0-2.55,1c-.8.41-.54,1.65-.54,2.61,0,.14-.27.14-.27.14-.54-.28-.81-.83-1.48-1.1a6.15,6.15,0,0,0-2.28-.27Z" style="fill:#f59580;stroke:#231f20;stroke-miterlimit:2.61310005187988;stroke-width:0.350787341594696px;fill-rule:evenodd"/><path d="M88.27,139.71c.54-.14.94.27,1.48.69a1.12,1.12,0,0,1,.54,1.24c0,.28,0,.55-.4.69a1.63,1.63,0,0,1-1.74-1.1c-.27-.41-.4-1.38.13-1.51Z" style="fill:#231f20;fill-rule:evenodd"/><path d="M93,137.65a.89.89,0,0,1,1.07.41,3.46,3.46,0,0,1,.13,1.65c-.27.55-.81,1.24-1.34.82a1.84,1.84,0,0,1,.13-2.89Z" style="fill:#231f20;fill-rule:evenodd"/><path d="M88.81,141c-.13.14,0,.41.27.55s.27.14.4-.14a.51.51,0,0,0-.13-.41c-.13-.28-.54-.41-.54,0Z" style="fill:#fbd2c3;fill-rule:evenodd"/><path d="M93.1,138.75c-.27,0-.27.83,0,.69s.4-.69,0-.69Z" style="fill:#fbd2c3;fill-rule:evenodd"/><path d="M204.11,152.91a.4.4,0,1,1-.81,0v-4.54a.29.29,0,0,1,.27-.27h1.75c1.07,0,1.61.55,1.61,1.51s-.54,1.37-1.07,1.37l.94,1.65a.51.51,0,0,1,.13.41.29.29,0,0,1-.27.27c-.13,0-.27,0-.4-.27L205,151h-.94v1.92Zm0-2.47h.81c.67,0,1.34,0,1.34-.83s-.54-.83-1.07-.83h-1.07v1.65Zm.94-4.13a4.38,4.38,0,0,1,4.29,4.4,4.36,4.36,0,1,1-8.72,0,4.41,4.41,0,0,1,4.43-4.4Zm0,8a3.65,3.65,0,0,0,0-7.29,3.64,3.64,0,0,0,0,7.29Z" style="fill:#fffdee;fill-rule:evenodd"/></svg>