<svg xmlns="http://www.w3.org/2000/svg" viewBox="0 0 250 250"><title>Grocery</title><path d="M143.66,102.26a1.3,1.3,0,0,1,.2,1.57,41.85,41.85,0,0,0-1.86,5,6.77,6.77,0,0,0-1,2.79,14.11,14.11,0,0,0-1.15,3.19c-.23.73-.77,1.38-.63,2.22a4.81,4.81,0,0,0-.36.7c-.47,1.47-.93,2.94-1.39,4.41l-.45,1.24c-1.84,5.13-2.87,10.49-4.22,15.75a32.23,32.23,0,0,0-1,4.91l-.73,2.76a17.8,17.8,0,0,1-3.78,1.61c-.24.08-.53.06-.67.34h-1.06l-2-2a23,23,0,0,1-2.49-3,25,25,0,0,1-2.94-4.11,3,3,0,0,1,.37-4c.29-.32.74-.57.77-1.09.49,0,.74-.45,1.09-.69,1.35-.94,1.91-.88,3,.36a3.29,3.29,0,0,0,.39.34,14.53,14.53,0,0,0,2.07,2.36c.28.46.63,1,1.19.92s.63-.78.76-1.27q2.33-8.76,4.64-17.53c.66-2.51,1.39-5,2.24-7.44a14.41,14.41,0,0,0,1.05-2.8c1.22-3,3.76-4.58,6.41-6,.26-.14.64-.15.73-.53Z" style="fill:#cb293d"/><path d="M135.63,108.84a14.43,14.43,0,0,1-1.05,2.8H54.82a15.73,15.73,0,0,0-10,3.29c-4.68,3.66-6.63,8.54-6.23,14.4A16,16,0,0,0,54.6,144l65.56,0c.3,0,.66.17.89-.19a23,23,0,0,0,2.49,3c-.38,0-.77,0-1.15,0H54.64a18.52,18.52,0,0,1-18.55-15.26,18.81,18.81,0,0,1,18.48-22.75h80.71Z" style="fill:#053c75"/><path d="M131.08,146.8l.73-2.76h60.84a17.25,17.25,0,0,0,2.21-.11c9.46-1.23,16.16-10.2,13.43-20.54-1.9-7.18-8.15-11.73-15.73-11.73H142.1l-1.06,0a6.77,6.77,0,0,1,1-2.79c17,0,33.95,0,50.92,0a18.45,18.45,0,0,1,18.42,15.23c2.27,12.24-6.15,21.63-16.58,22.69a27.31,27.31,0,0,1-2.75.08H132C131.67,146.84,131.37,146.81,131.08,146.8Z" style="fill:#053c75"/><path d="M139.26,117c3.81,0,7.63-.23,11.44.12,5.94.55,6.53,6.39,4.38,9.53a12.13,12.13,0,0,1-3.17,3.06c-.25.17-.62.27-.37.73a48.25,48.25,0,0,0,6.17,9c0-1.28,0-2.32,0-3.37,0-6.06,0-12.13,0-18.19,0-.7.18-.9.89-.88a40.66,40.66,0,0,0,4.17,0c.86-.05,1,.27,1,1-.06,1,0,1.95,0,3.13a22.67,22.67,0,0,0,1.06-3.46.76.76,0,0,1,.89-.7q7.23,0,14.46,0c.61,0,.81.23.94.76a14.87,14.87,0,0,0,1,2.86c0-1,0-2,0-3,0-.46.13-.61.6-.61q6.3,0,12.6,0c.43,0,.59.13.7.56q.48,2,1.09,3.92c.19.59,0,.7-.54.7-2.51,0-5,0-7.54,0-.66,0-1,.1-.89.85s-.35,1.9.19,2.37,1.52.12,2.31.13h5.81c-.44,1.62-.86,3.16-1.25,4.7-.12.48-.44.46-.8.46-1.86,0-3.73,0-5.59,0-.56,0-.71.15-.68.69a23,23,0,0,1,0,2.57c0,.56.15.69.69.69,2.78,0,5.56,0,8.34,0,.59,0,.76.1.57.71-.4,1.31-.74,2.64-1.07,4-.1.4-.3.5-.69.5-4.41,0-8.81,0-13.22,0-.74,0-.62-.42-.62-.85,0-5.26,0-10.53,0-15.79,0-.81-.22-1-1-1-1.42.06-2.84.06-4.26,0-.69,0-.89.16-.88.87,0,5.23,0,10.47,0,15.7,0,.79-.16,1.07-1,1-1.39-.08-2.78-.06-4.17,0-.68,0-.88-.15-.88-.86,0-5.26,0-10.53,0-15.79,0-.82-.24-1-1-.95-1.48.06-3,.06-4.43,0-.68,0-.83.18-.82.84,0,5.29,0,10.59,0,15.88,0,.67-.13,1-.86.88s-1.32.09-1.95,0c-2.61-.52-4.48.91-6.35,2.34-1.64,1.26-1.62,1.29-2.91-.32a57.82,57.82,0,0,1-7.31-12.2c-.24-.51,0-.67.33-.91a20.41,20.41,0,0,0,3.78-3.06,3.3,3.3,0,0,0,.9-1.69,1.22,1.22,0,0,0-1.05-1.56,10,10,0,0,0-1.76-.15c-3,0-6,0-9,0,.46-1.47.92-2.94,1.39-4.41A4.81,4.81,0,0,1,139.26,117Z" style="fill:#053c75"/><path d="M118.12,139.71c-2.19,0-4.38,0-6.56,0-.79,0-.89-.27-.89-1,0-5.82,0-11.65,0-17.47,0-1.21,0-2.42,0-3.64,0-.45.05-.69.61-.69q6.3,0,12.59,0c.45,0,.61.17.71.57.33,1.31.67,2.63,1.07,3.92.19.62,0,.68-.56.68-2.54,0-5.08,0-7.63,0-.62,0-.83.15-.78.78.07.82-.25,1.89.16,2.4s1.55.14,2.37.16c1.71,0,3.43,0,5.14,0,.54,0,.65.14.5.63-.38,1.33-.74,2.67-1.09,4-.11.41-.31.54-.74.53-1.86,0-3.72,0-5.59,0-.54,0-.79.09-.75.71a20.23,20.23,0,0,1,0,2.57c0,.57.18.71.7.67s1.24,0,1.86,0c0,.52-.48.77-.76,1.09A3,3,0,0,0,118.12,139.71Z" style="fill:#053c75"/><path d="M123.68,134.61l.44,0c2.52,0,2.52,0,1.63,2.39A14.55,14.55,0,0,1,123.68,134.61Z" style="fill:#053c75"/><path d="M66.73,122.05c.44-1.69.81-3.14,1.19-4.59a.51.51,0,0,1,.55-.46c4.11.09,8.22-.24,12.32.18a5.27,5.27,0,0,1,4.93,4,6.8,6.8,0,0,1-2.16,7,18.27,18.27,0,0,1-2,1.59c-.34.24-.38.43-.19.79a48.46,48.46,0,0,0,4.33,6.71c.37.49.71,1,1.09,1.49.13.17.27.46.54.38s.15-.41.15-.62q0-5.32,0-10.64c0-3.37,0-6.74,0-10.11,0-.63.18-.8.8-.79,1.45,0,2.9.06,4.34,0,.8,0,.89.28.89,1,0,6.27,0,12.54,0,18.8,0,.8,0,1.6,0,2.39,0,.48-.16.6-.61.59-1.42,0-2.84.06-4.26,0a3.2,3.2,0,0,0-2.13.83c-1.05.73-2.12,1.45-3.13,2.24-.53.41-.86.38-1.27-.13a54.24,54.24,0,0,1-6.24-9.56c-.57-1.13-1.11-2.28-1.66-3.41a2.73,2.73,0,0,0-.26-.36,1.68,1.68,0,0,0-.15,1.08c0,2.87,0,5.74,0,8.6,0,.55-.1.77-.71.75-1.57,0-3.13,0-4.7,0-.45,0-.61-.12-.61-.6q0-7.85,0-15.7c0-.54.21-.62.68-.62,1.54,0,3.08,0,4.61,0,.56,0,.76.12.74.72,0,1.77,0,3.54,0,5.48a22.79,22.79,0,0,0,3.77-2.76A5.29,5.29,0,0,0,79,124.47c.53-1.22.09-2-1.24-2.19a12.34,12.34,0,0,0-1.5-.1H69.5c-.86,0-1.9-.29-2.52.09s-.13,1.5-.29,2.3a10.29,10.29,0,0,1-3.29,5.54,24.12,24.12,0,0,1-6.92,4.32,1,1,0,0,0-.69,1.13c0,1.18,0,2.37,0,3.55,0,.5-.15.66-.65.65q-2.39,0-4.79,0c-.47,0-.59-.14-.59-.6q0-7.85,0-15.7c0-.53.18-.63.65-.62,1.57,0,3.13,0,4.7,0,.57,0,.68.19.67.71,0,1.7,0,3.4,0,5.25A12.15,12.15,0,0,0,60,125.46a2.19,2.19,0,0,0,.45-2.23c-.36-.85-1.16-.93-1.94-1-3-.18-6-.06-9-.07-.66,0-.89-.08-.65-.82.42-1.26.73-2.55,1.06-3.83.08-.32.16-.54.56-.53,3.37.07,6.74-.15,10.1.11C63.61,117.35,65.88,118.68,66.73,122.05Z" style="fill:#053c75"/><path d="M110,122.24c-1.87,0-3.65-.1-5.41,0-2.39.16-3.52,1.44-3.64,3.84a8,8,0,0,0,7.61,8.47c1.71.1,1.71.1,1.26,1.79-.24.88-.52,1.76-.7,2.65-.12.57-.36.74-.94.75A13,13,0,0,1,95,128.83a13.94,13.94,0,0,1,0-5.37,7.64,7.64,0,0,1,6.77-6.29,59.78,59.78,0,0,1,6.29-.17.5.5,0,0,1,.58.4Z" style="fill:#053c75"/><path d="M138,131.18c0-2.54,0-5.08,0-7.62,0-.59.17-.75.74-.73,1.56,0,3.13,0,4.7,0,.45,0,.6.11.6.59q0,7.84,0,15.68c0,.49-.12.66-.63.65-1.53,0-3.07,0-4.61,0-.61,0-.81-.14-.8-.78C138,136.38,138,133.78,138,131.18Z" style="fill:#053c75"/><path d="M212.47,149.06a3.26,3.26,0,1,1,3.26-3.26A3.26,3.26,0,0,1,212.47,149.06Zm0-5.77a2.52,2.52,0,1,0,2.52,2.52A2.52,2.52,0,0,0,212.47,143.29Z" style="fill:#053c75"/><path d="M211.43,144.27a4.28,4.28,0,0,1,.79-.07,1.3,1.3,0,0,1,.92.26.79.79,0,0,1,.25.61.84.84,0,0,1-.6.81h0a.8.8,0,0,1,.47.64,5.07,5.07,0,0,0,.25.88h-.43a4.14,4.14,0,0,1-.21-.76c-.09-.44-.26-.61-.64-.62h-.39v1.38h-.41Zm.41,1.45h.42c.44,0,.72-.24.72-.61s-.3-.59-.73-.6a1.69,1.69,0,0,0-.41,0Z" style="fill:#053c75"/></svg>