<?xml version="1.0" encoding="utf-8"?>
<!-- Generator: Adobe Illustrator 21.1.0, SVG Export Plug-In . SVG Version: 6.00 Build 0)  -->
<svg version="1.1" id="Layer_1" xmlns="http://www.w3.org/2000/svg" xmlns:xlink="http://www.w3.org/1999/xlink" x="0px" y="0px"
	 viewBox="0 0 32.6 26" style="enable-background:new 0 0 32.6 26;" xml:space="preserve">
<style type="text/css">
	.st0{fill:#F9E8A0;}
	.st1{fill:none;}
	.st2{fill:#414042;}
	.st3{fill:#FF0000;}
	.st4{fill:#CE593F;}
	.st5{fill:#EF8829;}
	.st6{clip-path:url(#SVGID_2_);}
	.st7{fill:#3F2D20;}
	.st8{fill:#F8E79F;}
	.st9{clip-path:url(#SVGID_4_);}
	.st10{clip-path:url(#SVGID_6_);}
	.st11{fill:#F7B239;}
	.st12{fill:#E09B2D;}
	.st13{fill:#9AD14B;}
	.st14{fill:#F95428;}
	.st15{fill:#E54728;}
	.st16{fill:#B27214;}
	.st17{fill:#F4DE3B;}
	.st18{fill:#90BC42;}
	.st19{fill:#FFFFFF;}
	.st20{clip-path:url(#SVGID_8_);fill:#FFFFFF;}
	.st21{clip-path:url(#SVGID_8_);fill:#333333;}
	.st22{fill:#CC722E;}
	.st23{fill:#B25719;}
	.st24{fill:#FFA91F;}
	.st25{fill:#8C5549;}
	.st26{opacity:0.15;}
	.st27{fill:#202020;}
	.st28{fill:#A4A4A5;}
	.st29{fill:#DCE0E2;}
	.st30{fill:#354251;}
	.st31{fill:#9DB6CA;}
	.st32{fill:#9ACFDF;}
	.st33{clip-path:url(#SVGID_10_);}
	.st34{clip-path:url(#SVGID_12_);}
	.st35{clip-path:url(#SVGID_14_);}
	.st36{fill:#FF7424;}
	.st37{fill:#FF4C1C;}
	.st38{fill:#DDA558;}
	.st39{fill:#D4F8F5;}
	.st40{opacity:0.1;fill:#54858D;enable-background:new    ;}
	.st41{fill:#FFD755;}
	.st42{fill:#FFF6C4;}
	.st43{fill:#6DA8D6;}
	.st44{fill:#FFDA44;}
	.st45{fill:#3FC378;}
	.st46{fill:#C9EEAE;}
	.st47{fill:#E21220;}
	.st48{fill:#FF505D;}
	.st49{fill:#FF7C80;}
	.st50{fill:#93298D;}
	.st51{fill:#FFF5CC;}
	.st52{fill:#0DD9DD;}
	.st53{fill:#02A6AA;}
	.st54{fill:#FDD44B;}
	.st55{fill:#84BD93;}
	.st56{clip-path:url(#SVGID_16_);fill:#EF8829;}
	.st57{clip-path:url(#SVGID_16_);fill:#3F2D20;}
	.st58{fill:none;stroke:#414042;stroke-width:0.75;stroke-miterlimit:10;}
	.st59{fill:#F6F6F6;}
	.st60{fill:#FF1D25;}
	.st61{fill:#FBB03B;}
	.st62{fill:#C7B299;}
	.st63{fill:#D2C1AD;}
	.st64{fill:#998675;}
	.st65{fill:#FF4A51;}
	.st66{fill:#B20209;}
	.st67{fill:#F0C891;}
	.st68{fill:none;stroke:#464646;stroke-width:16;stroke-linecap:round;stroke-linejoin:round;stroke-miterlimit:10;}
	.st69{clip-path:url(#SVGID_18_);}
	.st70{clip-path:url(#SVGID_20_);}
	.st71{clip-path:url(#SVGID_22_);}
	.st72{clip-path:url(#SVGID_24_);}
	.st73{clip-path:url(#SVGID_26_);}
	.st74{clip-path:url(#SVGID_28_);}
</style>
<g>
	<g>
		<path class="st19" d="M3.2,10.9c0-7.2,26.3-7.2,26.3,0S3.2,18.1,3.2,10.9z"/>
		<ellipse class="st19" cx="21.7" cy="6.6" rx="3.6" ry="4.7"/>
	</g>
	<circle class="st3" cx="21.7" cy="6.6" r="1.9"/>
	<path class="st0" d="M12.8,4.3h-1.4c-2,0-3.6,1.6-3.6,3.6s1.6,3.6,3.6,3.6h1.4"/>
	<circle class="st0" cx="12.8" cy="7.9" r="3.6"/>
	<path class="st2" d="M13.2,5.9c0-0.3-0.2-0.5-0.4-0.5s-0.4,0.2-0.4,0.5s0.4,0.9,0.4,0.9S13.2,6.2,13.2,5.9z"/>
	<path class="st2" d="M14.5,6.8c0.2-0.2,0.2-0.5,0.1-0.6C14.4,6,14.1,6,13.9,6.2c-0.2,0.2-0.4,0.9-0.4,0.9S14.3,7,14.5,6.8z"/>
	<path class="st2" d="M10.8,7.5c-0.3,0-0.5,0.2-0.5,0.4s0.2,0.4,0.5,0.4c0.3,0,0.9-0.4,0.9-0.4S11.1,7.5,10.8,7.5z"/>
	<path class="st2" d="M14.8,8.3c0.3,0,0.5-0.2,0.5-0.4c0-0.2-0.2-0.4-0.5-0.4c-0.3,0-0.9,0.4-0.9,0.4S14.5,8.3,14.8,8.3z"/>
	<path class="st2" d="M11.7,6.2C11.5,6,11.2,6,11.1,6.2c-0.2,0.2-0.1,0.4,0.1,0.6c0.2,0.2,0.9,0.4,0.9,0.4S11.9,6.4,11.7,6.2z"/>
	<path class="st3" d="M10.8,17.8c-2.4,0-4.4-2-4.4-4.4S8.3,9,10.8,9"/>
	<circle class="st3" cx="12.2" cy="13.4" r="4.4"/>
	<g>
		<path class="st0" d="M11.5,12.1v-0.8c-1.2,0-2.1,1-2.1,2.1s1,2.1,2.1,2.1v-0.8c-0.4-0.3-0.7-0.8-0.7-1.3
			C10.8,12.9,11.1,12.4,11.5,12.1z"/>
		<path class="st0" d="M12.8,11.3v0.8c0.4,0.3,0.7,0.8,0.7,1.3c0,0.5-0.3,1-0.7,1.3v0.8c1.2,0,2.1-1,2.1-2.1
			C14.9,12.2,14,11.3,12.8,11.3z"/>
	</g>
	<path class="st0" d="M20.2,16.2c-2.4,0-4.4-2-4.4-4.4s2-4.4,4.4-4.4"/>
	<circle class="st0" cx="21.6" cy="11.8" r="4.4"/>
	<path class="st0" d="M29.5,10.9c0,7.3-5.9,13.1-13.1,13.1S3.2,18.2,3.2,10.9C3.2,18.1,29.5,18.1,29.5,10.9z"/>
	<rect x="21.2" y="9.3" class="st2" width="0.8" height="0.8"/>
	<rect x="21.2" y="13.4" class="st2" width="0.8" height="0.8"/>
	<rect x="22.9" y="10.3" transform="matrix(0.866 -0.5 0.5 0.866 -2.2344 13.1192)" class="st2" width="0.8" height="0.8"/>
	<rect x="19.4" y="12.4" transform="matrix(0.866 -0.5 0.5 0.866 -3.7524 11.6011)" class="st2" width="0.8" height="0.8"/>
	<rect x="22.9" y="12.4" transform="matrix(0.5 -0.866 0.866 0.5 0.5944 26.6346)" class="st2" width="0.8" height="0.8"/>
	<rect x="19.4" y="10.3" transform="matrix(0.5 -0.866 0.866 0.5 0.5944 22.4869)" class="st2" width="0.8" height="0.8"/>
	<g>
		<path class="st2" d="M16.3,24.4c-3.6,0-7-1.4-9.5-4c-2.5-2.5-4-5.9-4-9.5c0-1.7,1.3-3.2,3.9-4.2l0.3,0.7C5.4,8,3.6,9.2,3.6,10.9
			c0,1.2,0.8,2.2,2.4,3.1c0.1-0.2,0-0.4,0-0.6c0-1.5,0.7-2.9,1.8-3.8C7.6,9.1,7.5,8.5,7.5,7.9c0-2.2,1.8-4,4-4h1.4
			c1.1,0,2.1,0.4,2.8,1.2c0.2,0,0.4,0,0.5,0c0.1,0,0.7,0,0.9,0L17,6c-0.2-0.1-0.5-0.1-0.7-0.1c0.3,0.6,0.4,1.2,0.5,1.8l-0.8,0
			c0-1.7-1.5-3-3.2-3c-1.8,0-3.2,1.4-3.2,3.2c0,0.3,0,0.5,0.1,0.8c0.4,0,0.7-0.1,1.1-0.1h1.4c1.3,0,2.6,0.5,3.5,1.5
			c0.5-1.1,1.2-1.9,2.2-2.5c0-0.4,0-0.7,0-1c0-2.8,1.8-5.1,4-5.1s4,2.3,4,5.1c0,0.7-0.1,1.4-0.4,2.1c0.7,0.9,1,1.9,1,3
			c0,0.9-0.3,1.9-0.8,2.7c1.6-0.6,3.5-1.7,3.5-3.5c0-1.6-1.6-2.7-2.9-3.3L26.6,7c2.1,1,3.2,2.4,3.2,4c0,3.6-1.4,7-4,9.5
			C23.3,23,19.9,24.4,16.3,24.4z M3.8,13.4c0.5,2.5,1.7,4.7,3.5,6.5c2.4,2.4,5.6,3.7,9,3.7s6.6-1.3,9-3.7c1.8-1.8,3-4.1,3.5-6.5
			c-0.8,0.7-1.9,1.4-3.4,1.9c-2.4,0.9-5.7,1.4-9.2,1.4s-6.7-0.5-9.2-1.4C5.7,14.8,4.6,14.1,3.8,13.4l0-0.2L3.8,13.4z M16.7,15.1
			c-0.1,0.3-0.2,0.5-0.4,0.8c0.3,0,0.6,0.1,0.9,0.1c0.2,0,0.3,0,0.5,0C17.3,15.6,17,15.4,16.7,15.1L16.7,15.1L16.7,15.1z M12.8,10.9
			c1.4,0,2.5,1.1,2.5,2.5c0,1-0.7,2-1.6,2.3c0.6,0.1,1.1,0.2,1.7,0.2c0.4-0.5,0.7-1,0.8-1.6c-0.5-0.8-0.7-1.7-0.7-2.6
			c0-0.2,0-0.5,0.1-0.7c-0.8-1.1-2-1.7-3.3-1.7c-2.2,0-4.1,1.8-4.1,4.1c0,0.5,0.1,1,0.3,1.5c0.5,0.2,0.9,0.3,1.4,0.4
			C9.3,14.7,9,14.1,9,13.4c0-1.4,1.1-2.5,2.5-2.5h0.4l0,1.4l-0.2,0.1c-0.3,0.2-0.5,0.6-0.5,1c0,0.4,0.2,0.8,0.5,1l0.2,0.1l0,1.1
			l0.5,0.1l0.1-1.2l0.2-0.1c0.3-0.2,0.5-0.6,0.5-1c0-0.4-0.2-0.8-0.5-1l-0.2-0.1l0-1.4H12.8z M21.6,7.7c-2.2,0-4.1,1.8-4.1,4.1
			c0,1.9,1.3,3.5,3.1,3.9c1.2-0.2,2.4-0.4,3.4-0.7c1-0.8,1.7-2,1.7-3.3C25.6,9.5,23.8,7.7,21.6,7.7z M17.9,8.4
			c-1.1,0.8-1.8,2-1.8,3.4c0,1.5,0.8,2.8,2.1,3.5c-0.1-0.2-0.2-0.4-0.4-0.6c-0.7-0.8-1.1-1.9-1.1-3c0-1.2,0.4-2.3,1.2-3.2l0,0
			L17.9,8.4L17.9,8.4z M11.1,11.7c-0.8,0.2-1.3,0.9-1.3,1.7c0,0.8,0.6,1.5,1.3,1.7l0.1-0.2c-0.5-0.4-0.7-0.9-0.7-1.5
			c0-0.6,0.3-1.1,0.7-1.5L11.1,11.7L11.1,11.7L11.1,11.7z M13.2,11.9c0.5,0.4,0.7,0.9,0.7,1.5s-0.3,1.1-0.7,1.5l0,0.2
			c0.9-0.1,1.4-0.9,1.4-1.7c0-0.8-0.6-1.5-1.3-1.7l-0.1,0V11.9z M8.8,9.9c-1.3,0.7-2.1,2.1-2.1,3.5c0,0.3,0,0.6,0.1,1
			c0.2,0.1,0.4,0.2,0.6,0.2l0.1,0l0-0.1c-0.1-0.4-0.1-0.8-0.1-1.2C7.4,12.1,7.9,10.9,8.8,9.9L8.8,9.9z M8.2,8.3
			c0,0.3,0.1,0.6,0.2,0.8C8.7,9.1,8.8,9.1,9,9c0-0.3-0.1-0.5-0.1-0.7L8.2,8.3L8.2,8.3L8.2,8.3z M21.7,5.1c-0.8,0-1.5,0.6-1.6,1.5
			c0,0.2,0,0.3,0,0.4l1.4,0c1.1,0,2.2,0.4,3.1,1.1c0.2-0.5,0.3-1,0.3-1.5c0-2.4-1.4-4.3-3.2-4.3c-1.8,0-3.2,1.9-3.2,4.3
			c0,0.2,0,0.4,0,0.6c0.3-0.1,0.6-0.1,0.9-0.2c0-0.2,0-0.3,0-0.4c0-0.1,0-0.1,0-0.1c0.1-1.2,1.1-2.2,2.3-2.2c1.3,0,2.3,1,2.3,2.3
			l-0.8,0C23.3,5.8,22.6,5.1,21.7,5.1z M8.5,6.7C8.4,6.9,8.3,7.2,8.2,7.5l0.6,0.1C8.9,7.2,9,7,9.1,6.7L8.5,6.7L8.5,6.7L8.5,6.7z
			 M10,5.1C9.6,5.2,9.3,5.5,9,5.8l0.4,0.1C9.6,5.6,9.8,5.4,10,5.1L10,5.1z"/>
	</g>
</g>
</svg>
