<?xml version="1.0" encoding="utf-8"?>
<!-- Generator: Adobe Illustrator 21.1.0, SVG Export Plug-In . SVG Version: 6.00 Build 0)  -->
<svg version="1.1" id="Layer_1" xmlns="http://www.w3.org/2000/svg" xmlns:xlink="http://www.w3.org/1999/xlink" x="0px" y="0px"
	 viewBox="0 0 32.6 26" style="enable-background:new 0 0 32.6 26;" xml:space="preserve">
<style type="text/css">
	.st0{fill:#F9E8A0;}
	.st1{fill:none;}
	.st2{fill:#414042;}
	.st3{fill:#FF0000;}
	.st4{fill:#CE593F;}
	.st5{fill:#EF8829;}
	.st6{clip-path:url(#SVGID_2_);}
	.st7{fill:#3F2D20;}
	.st8{fill:#F8E79F;}
	.st9{clip-path:url(#SVGID_4_);}
	.st10{clip-path:url(#SVGID_6_);}
	.st11{fill:#F7B239;}
	.st12{fill:#E09B2D;}
	.st13{fill:#9AD14B;}
	.st14{fill:#F95428;}
	.st15{fill:#E54728;}
	.st16{fill:#B27214;}
	.st17{fill:#F4DE3B;}
	.st18{fill:#90BC42;}
	.st19{fill:#FFFFFF;}
	.st20{clip-path:url(#SVGID_8_);fill:#FFFFFF;}
	.st21{clip-path:url(#SVGID_8_);fill:#333333;}
	.st22{fill:#CC722E;}
	.st23{fill:#B25719;}
	.st24{fill:#FFA91F;}
	.st25{fill:#8C5549;}
	.st26{opacity:0.15;}
	.st27{fill:#202020;}
	.st28{fill:#A4A4A5;}
	.st29{fill:#DCE0E2;}
	.st30{fill:#354251;}
	.st31{fill:#9DB6CA;}
	.st32{fill:#9ACFDF;}
	.st33{clip-path:url(#SVGID_10_);}
	.st34{clip-path:url(#SVGID_12_);}
	.st35{clip-path:url(#SVGID_14_);}
	.st36{fill:#FF7424;}
	.st37{fill:#FF4C1C;}
	.st38{fill:#DDA558;}
	.st39{fill:#D4F8F5;}
	.st40{opacity:0.1;fill:#54858D;enable-background:new    ;}
	.st41{fill:#FFD755;}
	.st42{fill:#FFF6C4;}
	.st43{fill:#6DA8D6;}
	.st44{fill:#FFDA44;}
	.st45{fill:#3FC378;}
	.st46{fill:#C9EEAE;}
	.st47{fill:#E21220;}
	.st48{fill:#FF505D;}
	.st49{fill:#FF7C80;}
	.st50{fill:#93298D;}
	.st51{fill:#FFF5CC;}
	.st52{fill:#0DD9DD;}
	.st53{fill:#02A6AA;}
	.st54{fill:#FDD44B;}
	.st55{fill:#84BD93;}
	.st56{clip-path:url(#SVGID_16_);fill:#EF8829;}
	.st57{clip-path:url(#SVGID_16_);fill:#3F2D20;}
	.st58{fill:none;stroke:#414042;stroke-width:0.75;stroke-miterlimit:10;}
	.st59{fill:#F6F6F6;}
	.st60{fill:#FF1D25;}
	.st61{fill:#FBB03B;}
	.st62{fill:#C7B299;}
	.st63{fill:#D2C1AD;}
	.st64{fill:#998675;}
	.st65{fill:#FF4A51;}
	.st66{fill:#B20209;}
	.st67{fill:#F0C891;}
	.st68{fill:none;stroke:#464646;stroke-width:16;stroke-linecap:round;stroke-linejoin:round;stroke-miterlimit:10;}
	.st69{clip-path:url(#SVGID_18_);}
	.st70{clip-path:url(#SVGID_20_);}
	.st71{clip-path:url(#SVGID_22_);}
	.st72{clip-path:url(#SVGID_24_);}
	.st73{clip-path:url(#SVGID_26_);}
	.st74{clip-path:url(#SVGID_28_);}
</style>
<g>
	<path class="st0" d="M21.4,22.7L6.2,14.5l-0.3-1.6l15.5-8.4c0,0,0.2-2,1.3-2.4s2,0.1,2.4,1.2s1.3,5.2,1.3,6.1s0.8,5.3-0.3,10.4
		c-0.5,2.1-0.7,4-2.8,4.1C23.4,23.9,22.5,24.1,21.4,22.7z"/>
	<g>
		<circle class="st3" cx="12.7" cy="13.1" r="1.4"/>
		<circle class="st3" cx="18.8" cy="15" r="1.4"/>
		<circle class="st3" cx="19.6" cy="8.9" r="1.4"/>
	</g>
	<g>
		<path class="st2" d="M26.8,8.8c-0.3-2.3-0.8-4.3-1.2-5.5c-0.2-0.6-0.6-1.1-1.2-1.4c-0.6-0.3-1.3-0.3-1.9,0c-1,0.4-1.6,1.5-1.4,2.6
			L5.5,12.7l0.5,2l15.3,8.2c0.2,0.5,0.6,1,1.2,1.2c0.3,0.1,0.6,0.2,1,0.2c0.3,0,0.6-0.1,0.9-0.2c0.6-0.3,1.1-0.8,1.3-1.4
			c0.7-2,1.2-4.2,1.4-6.5C27.2,13.9,27.2,11.4,26.8,8.8z M21.3,21.3c-0.1,0.3-0.1,0.5-0.1,0.8L6.6,14.3l-0.3-1.1L21.3,21.3
			C21.3,21.2,21.3,21.2,21.3,21.3z M21.5,20.5L7,12.8l14.3-7.6c0.3,1.1,0.7,2.6,0.9,4.4C22.6,12.3,22.8,16.4,21.5,20.5z M26.3,16.3
			c-0.2,2.2-0.6,4.3-1.3,6.3c-0.2,0.4-0.5,0.8-0.9,1c-0.4,0.2-0.9,0.2-1.3,0c-0.8-0.4-1.1-1.2-0.9-2c1.6-4.5,1.4-9,1-12
			c-0.2-1.6-0.5-3-0.8-4.1c0.1-0.3,0.6-1.1,1.5-1.3l-0.1-0.7c-0.8,0.2-1.3,0.7-1.6,1.1c0,0,0,0,0,0c-0.2-0.8,0.2-1.7,0.9-2
			c0.2-0.1,0.4-0.1,0.6-0.1c0.2,0,0.5,0.1,0.7,0.2c0.4,0.2,0.7,0.6,0.9,1c0.4,1.2,0.9,3.1,1.2,5.4C26.5,11.4,26.6,13.9,26.3,16.3z"
			/>
		<path class="st2" d="M23.5,22l0.6,0.3c0.1-0.1,0.2-0.4,0.3-0.7l-0.6-0.2C23.6,21.7,23.5,21.9,23.5,22z"/>
		<path class="st2" d="M24.9,12.9c0.2,3.2-0.4,5.9-0.9,7.6l0.6,0.2c0.5-1.7,1.1-4.5,0.9-7.8L24.9,12.9z"/>
		<path class="st2" d="M19.6,10.7c1,0,1.8-0.8,1.8-1.8c0-1-0.8-1.8-1.8-1.8c-1,0-1.8,0.8-1.8,1.8C17.8,9.9,18.6,10.7,19.6,10.7z
			 M19.6,7.8c0.6,0,1.1,0.5,1.1,1.1S20.2,10,19.6,10c-0.6,0-1.1-0.5-1.1-1.1C18.5,8.3,19,7.8,19.6,7.8z"/>
		<path class="st2" d="M12.8,11.4c-1,0-1.8,0.8-1.8,1.8s0.8,1.8,1.8,1.8c1,0,1.8-0.8,1.8-1.8S13.7,11.4,12.8,11.4z M12.8,14.2
			c-0.6,0-1.1-0.5-1.1-1.1s0.5-1.1,1.1-1.1s1.1,0.5,1.1,1.1S13.4,14.2,12.8,14.2z"/>
		<path class="st2" d="M18.7,13.2c-1,0-1.8,0.8-1.8,1.8c0,1,0.8,1.8,1.8,1.8c1,0,1.8-0.8,1.8-1.8S19.7,13.2,18.7,13.2z M18.7,16.1
			c-0.6,0-1.1-0.5-1.1-1.1s0.5-1.1,1.1-1.1c0.6,0,1.1,0.5,1.1,1.1S19.3,16.1,18.7,16.1z"/>
		<polygon class="st2" points="16.2,9.9 16.5,9.9 16.8,9.9 16.8,8.9 16.2,8.9 		"/>
		<rect x="9.3" y="11.8" class="st2" width="0.7" height="1"/>
		<rect x="17.4" y="11.2" class="st2" width="0.7" height="1"/>
		<polygon class="st2" points="15.7,12.4 15.7,11.3 15,11.3 15,12.4 15.3,12.4 		"/>
		<polygon class="st2" points="20.2,11.9 20.2,13 20.5,13 20.9,13 20.9,11.9 20.5,11.9 		"/>
		<polygon class="st2" points="20.2,17.6 20.2,18.6 20.9,18.6 20.9,17.6 20.5,17.6 		"/>
		<polygon class="st2" points="21.2,15.2 21.5,15.2 21.9,15.2 21.9,14.2 21.2,14.2 		"/>
		<polygon class="st2" points="15.2,16 15.5,16 15.8,16 15.8,15 15.2,15 		"/>
	</g>
</g>
</svg>
