<?xml version="1.0" encoding="utf-8"?>
<!-- Generator: Adobe Illustrator 21.1.0, SVG Export Plug-In . SVG Version: 6.00 Build 0)  -->
<svg version="1.1" id="Layer_1" xmlns="http://www.w3.org/2000/svg" xmlns:xlink="http://www.w3.org/1999/xlink" x="0px" y="0px"
	 viewBox="0 0 32.6 26" style="enable-background:new 0 0 32.6 26;" xml:space="preserve">
<style type="text/css">
	.st0{fill:#F9E8A0;}
	.st1{fill:none;}
	.st2{fill:#414042;}
	.st3{fill:#FF0000;}
	.st4{fill:#CE593F;}
	.st5{fill:#EF8829;}
	.st6{clip-path:url(#SVGID_2_);}
	.st7{fill:#3F2D20;}
	.st8{fill:#F8E79F;}
	.st9{clip-path:url(#SVGID_4_);}
	.st10{clip-path:url(#SVGID_6_);}
	.st11{fill:#F7B239;}
	.st12{fill:#E09B2D;}
	.st13{fill:#9AD14B;}
	.st14{fill:#F95428;}
	.st15{fill:#E54728;}
	.st16{fill:#B27214;}
	.st17{fill:#F4DE3B;}
	.st18{fill:#90BC42;}
	.st19{fill:#FFFFFF;}
	.st20{clip-path:url(#SVGID_8_);fill:#FFFFFF;}
	.st21{clip-path:url(#SVGID_8_);fill:#333333;}
	.st22{fill:#CC722E;}
	.st23{fill:#B25719;}
	.st24{fill:#FFA91F;}
	.st25{fill:#8C5549;}
	.st26{opacity:0.15;}
	.st27{fill:#202020;}
	.st28{fill:#A4A4A5;}
	.st29{fill:#DCE0E2;}
	.st30{fill:#354251;}
	.st31{fill:#9DB6CA;}
	.st32{fill:#9ACFDF;}
	.st33{clip-path:url(#SVGID_10_);}
	.st34{clip-path:url(#SVGID_12_);}
	.st35{clip-path:url(#SVGID_14_);}
	.st36{fill:#FF7424;}
	.st37{fill:#FF4C1C;}
	.st38{fill:#DDA558;}
	.st39{fill:#D4F8F5;}
	.st40{opacity:0.1;fill:#54858D;enable-background:new    ;}
	.st41{fill:#FFD755;}
	.st42{fill:#FFF6C4;}
	.st43{fill:#6DA8D6;}
	.st44{fill:#FFDA44;}
	.st45{fill:#3FC378;}
	.st46{fill:#C9EEAE;}
	.st47{fill:#E21220;}
	.st48{fill:#FF505D;}
	.st49{fill:#FF7C80;}
	.st50{fill:#93298D;}
	.st51{fill:#FFF5CC;}
	.st52{fill:#0DD9DD;}
	.st53{fill:#02A6AA;}
	.st54{fill:#FDD44B;}
	.st55{fill:#84BD93;}
	.st56{clip-path:url(#SVGID_16_);fill:#EF8829;}
	.st57{clip-path:url(#SVGID_16_);fill:#3F2D20;}
	.st58{fill:none;stroke:#414042;stroke-width:0.75;stroke-miterlimit:10;}
	.st59{fill:#F6F6F6;}
	.st60{fill:#FF1D25;}
	.st61{fill:#FBB03B;}
	.st62{fill:#C7B299;}
	.st63{fill:#D2C1AD;}
	.st64{fill:#998675;}
	.st65{fill:#FF4A51;}
	.st66{fill:#B20209;}
	.st67{fill:#F0C891;}
	.st68{fill:none;stroke:#464646;stroke-width:16;stroke-linecap:round;stroke-linejoin:round;stroke-miterlimit:10;}
	.st69{clip-path:url(#SVGID_18_);}
	.st70{clip-path:url(#SVGID_20_);}
	.st71{clip-path:url(#SVGID_22_);}
	.st72{clip-path:url(#SVGID_24_);}
	.st73{clip-path:url(#SVGID_26_);}
	.st74{clip-path:url(#SVGID_28_);}
</style>
<g>
	<polygon class="st0" points="3,21.6 29.6,21.6 28.3,24.1 4.1,24.1 	"/>
	<g>
		<polyline class="st58" points="27.4,18.4 30.1,21.6 28.2,24.1 4.1,24.1 2.5,21.4 4.9,18.4 		"/>
		<line class="st58" x1="30.1" y1="21.6" x2="2.5" y2="21.6"/>
	</g>
	<g>
		<path class="st0" d="M7.9,16.5c-1,0-1.2,0.3-1.2,0.8c0,0.8,0.5,1.4,1.2,1.4h16.9c0.6,0,1.2-0.6,1.2-1.4c0-0.5-0.2-0.8-1.2-0.8H7.9
			z"/>
		<path class="st3" d="M8.5,13.8c-0.5,0-1,0.4-1,1c0,0.5,0.4,1,1,1h15.6c0.5,0,1-0.4,1-1c0-0.5-0.4-1-1-1H8.5z"/>
		<path class="st0" d="M16.3,2.7c-2.6,0-5.1,0.6-6.9,1.7C7.7,5.5,6.7,6.9,6.7,8.3c0,0.9,0.7,1.6,1.6,1.6h16c0.9,0,1.6-0.7,1.6-1.6
			c0-1.5-1-2.9-2.7-3.9C21.4,3.3,18.9,2.7,16.3,2.7z"/>
		<g>
			<path class="st4" d="M24.4,13.9C24.4,13.9,24.5,13.9,24.4,13.9C24.5,13.9,24.4,13.9,24.4,13.9L24.4,13.9z M24.4,13.9"/>
			<path class="st4" d="M24.6,14C24.6,14,24.6,14,24.6,14C24.6,14,24.6,14,24.6,14L24.6,14z M24.6,14"/>
			<path class="st4" d="M24.8,14.2C24.8,14.2,24.8,14.2,24.8,14.2C24.8,14.2,24.8,14.2,24.8,14.2L24.8,14.2z M24.8,14.2"/>
			<path class="st4" d="M24.9,14.4C24.9,14.4,24.9,14.4,24.9,14.4C24.9,14.4,24.9,14.4,24.9,14.4L24.9,14.4z M24.9,14.4"/>
			<path class="st4" d="M24.3,13.9C24.3,13.9,24.3,13.9,24.3,13.9C24.3,13.9,24.3,13.9,24.3,13.9L24.3,13.9z M24.3,13.9"/>
			<path class="st4" d="M24.7,14.1C24.7,14.1,24.7,14.1,24.7,14.1C24.7,14.1,24.7,14.1,24.7,14.1L24.7,14.1z M24.7,14.1"/>
			<path class="st4" d="M7.7,15C7.7,14.9,7.7,14.9,7.7,15C7.7,14.9,7.7,14.9,7.7,15L7.7,15z M7.7,15"/>
			<path class="st4" d="M8.3,15.6c0,0-0.1,0-0.1,0C8.2,15.5,8.2,15.6,8.3,15.6L8.3,15.6z M8.3,15.6"/>
			<path class="st4" d="M8.1,15.5C8,15.5,8,15.4,8.1,15.5C8,15.4,8,15.5,8.1,15.5L8.1,15.5z M8.1,15.5"/>
			<path class="st4" d="M7.9,15.3C7.9,15.3,7.9,15.4,7.9,15.3C7.9,15.4,7.9,15.3,7.9,15.3L7.9,15.3z M7.9,15.3"/>
			<path class="st4" d="M7.8,15.1C7.7,15.1,7.7,15.1,7.8,15.1C7.7,15.1,7.7,15.1,7.8,15.1L7.8,15.1z M7.8,15.1"/>
			<path class="st4" d="M7.8,15.3C7.8,15.2,7.8,15.2,7.8,15.3C7.8,15.2,7.8,15.2,7.8,15.3L7.8,15.3z M7.8,15.3"/>
			<path class="st54" d="M7.2,9.4C7.2,9.4,7.2,9.4,7.2,9.4C7.2,9.4,7.2,9.4,7.2,9.4L7.2,9.4z M7.2,9.4"/>
			<path class="st54" d="M23.5,4.7C23.5,4.7,23.5,4.7,23.5,4.7C23.5,4.7,23.5,4.7,23.5,4.7L23.5,4.7z M23.5,4.7"/>
			<path class="st54" d="M6.8,8.7C6.8,8.7,6.8,8.6,6.8,8.7C6.8,8.6,6.8,8.7,6.8,8.7L6.8,8.7z M6.8,8.7"/>
			<path class="st54" d="M6.8,8.5C6.8,8.5,6.8,8.5,6.8,8.5C6.8,8.5,6.8,8.5,6.8,8.5L6.8,8.5z M6.8,8.5"/>
			<path class="st54" d="M24.6,5.6C24.6,5.6,24.6,5.6,24.6,5.6C24.6,5.6,24.6,5.6,24.6,5.6L24.6,5.6z M24.6,5.6"/>
			<path class="st54" d="M24.8,5.8C24.8,5.8,24.8,5.8,24.8,5.8C24.8,5.8,24.8,5.8,24.8,5.8L24.8,5.8z M24.8,5.8"/>
			<path class="st54" d="M24,5.1c0,0,0.1,0.1,0.1,0.1C24.1,5.1,24,5.1,24,5.1L24,5.1z M24,5.1"/>
			<path class="st54" d="M6.9,8.8C6.8,8.8,6.8,8.8,6.9,8.8C6.8,8.8,6.8,8.8,6.9,8.8L6.9,8.8z M6.9,8.8"/>
			<path class="st54" d="M24.3,5.3C24.3,5.3,24.3,5.3,24.3,5.3C24.3,5.3,24.3,5.3,24.3,5.3L24.3,5.3z M24.3,5.3"/>
			<path class="st54" d="M23.7,4.9c0,0,0.1,0.1,0.1,0.1C23.8,4.9,23.8,4.9,23.7,4.9L23.7,4.9z M23.7,4.9"/>
			<path class="st54" d="M7.5,9.6C7.5,9.6,7.4,9.6,7.5,9.6C7.4,9.6,7.5,9.6,7.5,9.6L7.5,9.6z M7.5,9.6"/>
			<path class="st54" d="M6.9,8.9C6.9,8.9,6.9,8.9,6.9,8.9C6.9,8.9,6.9,8.9,6.9,8.9L6.9,8.9z M6.9,8.9"/>
			<path class="st54" d="M7.7,9.7C7.7,9.7,7.7,9.7,7.7,9.7C7.7,9.7,7.7,9.7,7.7,9.7L7.7,9.7z M7.7,9.7"/>
			<path class="st54" d="M7.6,9.7C7.6,9.7,7.6,9.7,7.6,9.7C7.6,9.7,7.6,9.7,7.6,9.7L7.6,9.7z M7.6,9.7"/>
			<path class="st54" d="M7,9.1C7,9.1,7,9.1,7,9.1C7,9.1,7,9.1,7,9.1L7,9.1z M7,9.1"/>
			<path class="st54" d="M7.1,9.2C7,9.2,7,9.2,7.1,9.2C7,9.2,7,9.2,7.1,9.2L7.1,9.2z M7.1,9.2"/>
			<path class="st54" d="M7.4,9.5C7.4,9.5,7.3,9.5,7.4,9.5C7.3,9.5,7.4,9.5,7.4,9.5L7.4,9.5z M7.4,9.5"/>
			<path class="st54" d="M7.1,9.3C7.1,9.3,7.1,9.3,7.1,9.3C7.1,9.3,7.1,9.3,7.1,9.3L7.1,9.3z M7.1,9.3"/>
			<path class="st2" d="M10.9,7.1c-0.1,0-0.2,0.1-0.3,0.1c-0.1,0.1-0.1,0.2-0.1,0.3c0,0.1,0.1,0.2,0.1,0.3C10.7,8,10.8,8,10.9,8
				C11,8,11.2,8,11.2,7.9c0.1-0.1,0.1-0.2,0.1-0.3c0-0.1-0.1-0.2-0.1-0.3C11.2,7.1,11,7.1,10.9,7.1L10.9,7.1z M10.9,7.1"/>
			<path class="st2" d="M16.3,7.1c-0.1,0-0.2,0.1-0.3,0.1c-0.1,0.1-0.1,0.2-0.1,0.3c0,0.1,0.1,0.2,0.1,0.3C16.1,8,16.2,8,16.3,8
				c0.1,0,0.2-0.1,0.3-0.1c0.1-0.1,0.1-0.2,0.1-0.3c0-0.1-0.1-0.2-0.1-0.3C16.6,7.1,16.4,7.1,16.3,7.1L16.3,7.1z M16.3,7.1"/>
			<path class="st2" d="M21.7,7.1c-0.1,0-0.2,0.1-0.3,0.1c-0.1,0.1-0.1,0.2-0.1,0.3c0,0.1,0.1,0.2,0.1,0.3C21.5,8,21.6,8,21.7,8
				C21.9,8,22,8,22.1,7.9c0.1-0.1,0.1-0.2,0.1-0.3c0-0.1-0.1-0.2-0.1-0.3C22,7.1,21.9,7.1,21.7,7.1L21.7,7.1z M21.7,7.1"/>
			<path class="st2" d="M13.8,4.7c-0.1,0-0.2,0.1-0.3,0.1c-0.1,0.1-0.1,0.2-0.1,0.3c0,0.1,0.1,0.2,0.1,0.3c0.1,0.1,0.2,0.1,0.3,0.1
				c0.1,0,0.2-0.1,0.3-0.1c0.1-0.1,0.1-0.2,0.1-0.3c0-0.1-0.1-0.2-0.1-0.3C14,4.7,13.9,4.7,13.8,4.7L13.8,4.7z M13.8,4.7"/>
			<path class="st2" d="M18.9,4.7c-0.1,0-0.2,0.1-0.3,0.1c-0.1,0.1-0.1,0.2-0.1,0.3c0,0.1,0.1,0.2,0.1,0.3c0.1,0.1,0.2,0.1,0.3,0.1
				c0.1,0,0.2-0.1,0.3-0.1c0.1-0.1,0.1-0.2,0.1-0.3c0-0.1-0.1-0.2-0.1-0.3C19.1,4.7,19,4.7,18.9,4.7L18.9,4.7z M18.9,4.7"/>
			<g>
				<path class="st2" d="M7.9,19.5c-1.1,0-1.9-1-1.9-2.2c0-0.8,0.4-1.3,1.1-1.5l0.1,0l-0.1-0.1c-0.2-0.3-0.3-0.6-0.3-0.9
					c0-0.6,0.3-1.1,0.8-1.4l0.1-0.1l-0.1-0.1c-0.3-0.4-0.5-0.8-0.5-1.3c0-0.4,0.1-0.8,0.4-1.2l0.1-0.1l-0.1,0
					c-0.9-0.4-1.5-1.2-1.5-2.2C5.9,6.6,7,5,9,3.8c2-1.2,4.5-1.8,7.3-1.8s5.3,0.6,7.3,1.8c2,1.2,3.1,2.8,3.1,4.6c0,1-0.6,1.9-1.5,2.2
					l-0.1,0l0.1,0.1c0.3,0.3,0.4,0.7,0.4,1.2c0,0.5-0.2,0.9-0.5,1.3L25,13.2l0.1,0.1c0.5,0.3,0.8,0.9,0.8,1.4c0,0.3-0.1,0.6-0.3,0.9
					l-0.1,0.1l0.1,0c0.7,0.2,1.1,0.7,1.1,1.5c0,1.2-0.9,2.2-1.9,2.2H7.9z M7.9,16.5c-1,0-1.2,0.3-1.2,0.8c0,0.8,0.5,1.4,1.2,1.4
					h16.9c0.6,0,1.2-0.6,1.2-1.4c0-0.5-0.2-0.8-1.2-0.8H7.9z M8.5,13.8c-0.5,0-1,0.4-1,1c0,0.5,0.4,1,1,1h15.6c0.5,0,1-0.4,1-1
					c0-0.5-0.4-1-1-1H8.5z M22.1,12c-0.6,0-0.9,0.2-1.2,0.5c-0.2,0.1-0.4,0.3-0.6,0.4l0,0.2h3.4c0.1,0,0.1,0,0.1,0l0.3,0l-0.3-0.1
					c-0.2-0.1-0.4-0.3-0.6-0.4C22.9,12.2,22.7,12,22.1,12z M16.3,12c-0.6,0-0.9,0.2-1.2,0.5c-0.2,0.1-0.4,0.3-0.6,0.4l0,0.2h3.5
					l0-0.2c-0.2-0.1-0.4-0.3-0.6-0.4C17.2,12.2,16.9,12,16.3,12z M10.6,12c-0.6,0-0.9,0.2-1.2,0.5c-0.2,0.1-0.3,0.3-0.6,0.4L8.5,13
					l0.3,0c0,0,0.1,0,0.1,0h3.4l0-0.2c-0.2-0.1-0.4-0.3-0.6-0.4C11.5,12.2,11.2,12,10.6,12z M16.3,11.2c0.8,0,1.3,0.3,1.7,0.6
					c0.3,0.2,0.6,0.5,1.2,0.5c0.6,0,0.9-0.2,1.2-0.5c0.4-0.3,0.8-0.6,1.7-0.6c0.8,0,1.3,0.3,1.7,0.6c0.3,0.2,0.5,0.4,0.9,0.4l0.1,0
					l0-0.1c0-0.1,0.1-0.2,0.1-0.3c0-0.6-0.5-1.1-1.1-1.1H9c-0.6,0-1.1,0.5-1.1,1.1c0,0.1,0,0.2,0.1,0.3l0,0.1l0.1,0
					c0.4-0.1,0.6-0.2,0.9-0.4c0.4-0.3,0.8-0.6,1.7-0.6c0.8,0,1.3,0.3,1.7,0.6c0.3,0.2,0.6,0.5,1.2,0.5c0.6,0,0.9-0.2,1.2-0.5
					C15,11.6,15.5,11.2,16.3,11.2z M16.3,2.7c-2.6,0-5.1,0.6-6.9,1.7C7.7,5.5,6.7,6.9,6.7,8.3c0,0.9,0.7,1.6,1.6,1.6h16
					c0.9,0,1.6-0.7,1.6-1.6c0-1.5-1-2.9-2.7-3.9C21.4,3.3,18.9,2.7,16.3,2.7z"/>
				<path class="st0" d="M22.1,12c-0.6,0-0.9,0.2-1.2,0.5c-0.2,0.1-0.4,0.3-0.6,0.4l0,0.2h3.4c0.1,0,0.1,0,0.1,0l0.3,0l-0.3-0.1
					c-0.2-0.1-0.4-0.3-0.6-0.4C22.9,12.2,22.7,12,22.1,12z"/>
				<path class="st0" d="M16.3,12c-0.6,0-0.9,0.2-1.2,0.5c-0.2,0.1-0.4,0.3-0.6,0.4l0,0.2h3.5l0-0.2c-0.2-0.1-0.4-0.3-0.6-0.4
					C17.2,12.2,16.9,12,16.3,12z"/>
				<path class="st0" d="M10.6,12c-0.6,0-0.9,0.2-1.2,0.5c-0.2,0.1-0.3,0.3-0.6,0.4L8.5,13l0.3,0c0,0,0.1,0,0.1,0h3.4l0-0.2
					c-0.2-0.1-0.4-0.3-0.6-0.4C11.5,12.2,11.2,12,10.6,12z"/>
				<path class="st0" d="M16.3,11.2c0.8,0,1.3,0.3,1.7,0.6c0.3,0.2,0.6,0.5,1.2,0.5c0.6,0,0.9-0.2,1.2-0.5c0.4-0.3,0.8-0.6,1.7-0.6
					c0.8,0,1.3,0.3,1.7,0.6c0.3,0.2,0.5,0.4,0.9,0.4l0.1,0l0-0.1c0-0.1,0.1-0.2,0.1-0.3c0-0.6-0.5-1.1-1.1-1.1H9
					c-0.6,0-1.1,0.5-1.1,1.1c0,0.1,0,0.2,0.1,0.3l0,0.1l0.1,0c0.4-0.1,0.6-0.2,0.9-0.4c0.4-0.3,0.8-0.6,1.7-0.6
					c0.8,0,1.3,0.3,1.7,0.6c0.3,0.2,0.6,0.5,1.2,0.5c0.6,0,0.9-0.2,1.2-0.5C15,11.6,15.5,11.2,16.3,11.2z"/>
			</g>
		</g>
	</g>
</g>
</svg>
