<svg xmlns="http://www.w3.org/2000/svg" viewBox="0 0 250 250"><title>Grocery</title><path d="M144.17,129.24c-4.51,2.77-9.23,3-14.07,2.26-5.62-.88-8.52-4.17-8.73-10.17-.12-3.53.13-7.08.19-10.62a17.73,17.73,0,0,0-.72-5.35c-1.1-3.73-3.74-5.7-7.41-6.54-.61-.14-1.84.23-1.62-1s1.1-1.61,2.4-1.24a33.61,33.61,0,0,0,10.48,1.48A40.22,40.22,0,0,0,135,96c0,1.49,0,2.79,0,4.1,0,3.29-.37,2.93,3.07,3,1,0,1.95,0,2.92,0s1.26.43,1.2,1.39c-.19,2.83-1.6,4.27-4.47,4.42-2.6.14-2.79.31-2.79,3,0,3.75,0,7.51.1,11.26a10.11,10.11,0,0,0,.44,2.87,3.63,3.63,0,0,0,5.7,2,7.79,7.79,0,0,0,3.43-7q0-9.8,0-19.6c0-4.15-1.2-5.19-5.3-4.68.42-1.52.41-1.56,1.73-1.57,5.21,0,10.43,0,15.64,0,1.32,0,1.65.46,1.62,1.69-.09,4-.09,7.92-.12,11.88,0,.6,0,1.2,0,2.14a20.68,20.68,0,0,1,11-3,12.58,12.58,0,0,1,4.49.81c3.08,1.21,4.85,3.37,4.83,6.81,0,3.82-.07,7.65-.05,11.47,0,3.14,1.84,4.82,4.3,4a5.48,5.48,0,0,0,3.67-4.62c0-.55,0-1.12.07-1.67s-.09-1.13.52-1.2a1.21,1.21,0,0,1,1.22,1,14.19,14.19,0,0,1,.19,1.44,9.24,9.24,0,0,0,11,7.76,4.17,4.17,0,0,0,3.48-2.92c.5-1.52-.39-2.72-1.42-3.67a14.16,14.16,0,0,0-2.75-1.86c-1.82-1-3.66-2-5.54-2.89-6.46-3.07-6-11.78-1.59-15.48,5-4.27,10.68-4.67,16.67-2.93,4,1.16,4,1.28,5.06-2.56,1.25.21,1.69.94,1.68,2.19-.05,3.61,0,7.23,0,10.84,0,.51.23,1.26-.48,1.42s-1.18-.35-1.54-.88a11,11,0,0,1-1.19-3.74,5.91,5.91,0,0,0-8.12-4.16c-2.9,1.23-3.43,3.86-1,5.87a48.17,48.17,0,0,0,5.18,3.48,16.89,16.89,0,0,1,5.39,4.83,8.31,8.31,0,0,1-.1,9.93c-3.79,5.5-11.76,7.61-18.1,4.79-1.08-.48-2.1-1.09-3.17-1.59-2.19-1-2.91-.63-3.49,1.76-.15.64.13,1.81-.89,1.74s-1-1.16-1-2c0-1.51,0-3,0-4.68-1.11.18-1.52,1-2.11,1.48-4.46,3.81-9.39,5.61-15.21,3.54a5.66,5.66,0,0,1-4.15-5.63c-.07-4.45-.09-8.89-.17-13.34a11.36,11.36,0,0,0-.32-3.09,2.91,2.91,0,0,0-3.51-2.23c-1.76.28-2.88,1-2.84,3.14.1,5.07,0,10.14,0,15.22,0,2.91,1,4,3.88,4.36.53.07,1.45-.28,1.48.61s-.76.81-1.41.81H139c-.37,0-.94.2-1-.38a1.09,1.09,0,0,1,.73-1.15,20.08,20.08,0,0,1,2-.45C143.35,133.36,144.14,132.33,144.17,129.24Z" style="fill:#2b4e09"/><path d="M63.18,131.07A2.31,2.31,0,0,1,60.67,133c-7.85,0-15.71,0-23.56,0-.52,0-1.47.37-1.47-.52s.66-1.3,1.6-1.25a13.69,13.69,0,0,0,2.08-.11,3.23,3.23,0,0,0,3.2-3,19.79,19.79,0,0,0,.28-2.69q0-13.24,0-26.48c0-3.74-1.49-6.16-4.24-6.88a24.6,24.6,0,0,0-3.56-.4c.08-1.16.77-1.43,1.8-1.42,11.26,0,22.52-.12,33.78.07,7.93.14,12.34,5.75,11,13.54-.56,3.35-2.78,5.55-5.51,7.24-1.67,1-1.69,1.65.07,2.52,2.46,1.2,3.55,3.46,4.11,6,.52,2.3.84,4.65,1.27,7a13.61,13.61,0,0,0,.56,2.22c.6,1.62,1.43,3.15,3.42,3.18s2.87-1.45,3.83-2.85c.67-1-.13-1.35-.7-1.82a14.64,14.64,0,0,1-5.33-8.48c-1.67-8,3.5-15.6,12.18-17.89,9-2.37,18.51,2,21.49,9.91s-1.36,16.27-9.8,19.32a18.91,18.91,0,0,1-14-.24,1.86,1.86,0,0,0-2.61.57,16,16,0,0,1-18.46,4.46,7.59,7.59,0,0,1-5-6.6c-.3-2.9-.45-5.81-.74-8.72s-1.07-3.5-3.79-3.66c-.35,0-.69,0-1,0-4.21-.05-4.69.41-4.74,4.58,0,2.36-.05,4.72,0,7.08.06,2.55,1,3.42,3.57,3.55C61.22,131.11,62.11,131.07,63.18,131.07Zm42.31-15.5c0-2.56,0-5.13,0-7.69-.07-3.12-2.12-5.34-4.89-5.42a5.1,5.1,0,0,0-5.18,5.34q-.13,7.9,0,15.8c0,3.19,2.3,5.48,5.11,5.44s4.91-2.32,5-5.57C105.54,120.84,105.5,118.2,105.49,115.57ZM56.87,102.93c0,1.8,0,3.6,0,5.4,0,.53,0,1.07.66,1.34,3.86,1.5,8.42-.72,9.07-4.8,1.13-7.05-2.29-9.75-8.83-8.9-.88.11-.91.7-.91,1.35Q56.86,100.13,56.87,102.93Z" style="fill:#2b4e09"/><path d="M183.83,107.93a8.14,8.14,0,0,1-4.88.13,6.86,6.86,0,0,1-4.64-7.86,6.73,6.73,0,0,1,7-5.55,7,7,0,0,1,6.68,6c.51,4.58-1.38,8.22-4.54,11.35-.42.41-.88.76-1.46.36-.73-.51-.11-.95.13-1.39Z" style="fill:#2b4e09"/><path d="M100.29,148.12c.95-.47,1.48-.79,2-1a4,4,0,0,1,5.49,2.62c.81,2.92.4,5.94.3,8.91,0,1.47-1.51.74-2.36.87s-1.44-.21-1.42-1.25c0-1.87,0-3.75,0-5.62,0-1.35-.28-2.64-2-2.63s-2.11,1.26-2.09,2.74c0,1.8,0,3.61,0,5.42.06,1.57-1,1.36-2,1.38s-1.93.1-1.92-1.42q.08-7.71,0-15.41c0-1.67,1.12-1.2,2-1.25s2-.2,1.88,1.38S100.29,146.14,100.29,148.12Z" style="fill:#2b4e09"/><path d="M73.14,154.53c-.69,0-1.39,0-2.08,0s-1.52-.28-1.68.4.65,1.28,1.37,1.6a6.19,6.19,0,0,0,4.09.17c1.07-.26,1.32.12,1.5,1s.07,1.43-1,1.65a11.72,11.72,0,0,1-5.56.09c-3.63-1-5.29-4.57-4-8.51a5.83,5.83,0,0,1,11.34,2.65,1,1,0,0,1-1.14.9c-1,0-1.95,0-2.92,0ZM71.31,152c.72-.44,2.06.61,2.2-.77.11-1.15-.86-1.85-2.05-1.82a1.94,1.94,0,0,0-2.11,1.85C69.39,152.52,70.67,151.58,71.31,152Z" style="fill:#2b4e09"/><path d="M116.79,153.32c0-1.6,0-3.2,0-4.8,0-.45-.16-1.05.53-1.17.46-.08,1.09-.21,1.26.39.39,1.39.88.48,1.4.13,2.07-1.4,3.79-1.33,5.59.48.77.77,1,.46,1.6-.1a4.06,4.06,0,0,1,4.6-1,3.89,3.89,0,0,1,2.51,3.76c.12,2.43.09,4.86.12,7.29,0,.7-.16,1.21-1,1.22s-1.14-.52-1.13-1.33c0-2,0-4,0-6-.07-2.17-1.06-3.36-2.65-3.34s-2.82,1.39-2.89,3.45,0,3.89,0,5.84c0,.73,0,1.42-1,1.43s-1-.69-1-1.41c0-2,.06-4,0-6-.07-1.61-.52-3.1-2.51-3.25a3,3,0,0,0-3,3.11c-.14,2-.06,4-.09,6,0,.76.1,1.59-1.1,1.56s-1-.86-1-1.61C116.78,156.37,116.79,154.84,116.79,153.32Z" style="fill:#2b4e09"/><path d="M44.22,159.53c-1.37.27-1.77-.48-1.7-1.89.09-1.8,0-3.61,0-5.41,0-1,.32-1.94-1.12-2.52a1.56,1.56,0,0,1,.07-2.46c1.27-.5,1.13-1.4,1.35-2.26a4.9,4.9,0,0,1,5.84-3.73c1,.21,1,.83.9,1.53s.25,1.51-.91,1.46a1.67,1.67,0,0,0-1.79.8c-.4.88-1,2,.8,2,1,0,1.32.47,1.28,1.4s0,1.61-1.13,1.52-1.35.58-1.33,1.56c0,2,0,4,0,6S46.47,159.57,44.22,159.53Z" style="fill:#2b4e09"/><path d="M85.92,159.73a10.73,10.73,0,0,1-2.82-.3c-1.33-.25-1.19-1-1-2s.85-1.1,1.68-.69a1.83,1.83,0,0,0,.6.15c1.06.12,2.51.72,2.9-.67s-1.23-1.4-2.11-1.78c-2.33-1-3.32-2.3-3.06-4.15s1.84-3.19,4.18-3.4A13.91,13.91,0,0,1,89,147c1,.11,1.66.47,1.36,1.75s-.8,1.25-1.77.93a4.6,4.6,0,0,0-1.64-.16,1.05,1.05,0,0,0-1.1.79c-.12.59.35.88.77,1.1s1,.42,1.54.63c2.38,1,3.28,2.37,2.93,4.43-.29,1.75-1.87,3-4.1,3.24A9.25,9.25,0,0,1,85.92,159.73Z" style="fill:#2b4e09"/><path d="M168.77,152.43c2.12-1.68,3.06-3.84,4.93-5,.44-.28,1.21,0,2,0-.74,1.59-2,2.55-3.1,3.67-.88.92-1,1.58-.15,2.63,1.45,1.74,2.74,3.63,4.17,5.55a2.41,2.41,0,0,1-3.46-1c-.74-1.17-1.6-2.27-2.43-3.39-.27-.36-.45-1-1.09-.7a1.32,1.32,0,0,0-.81,1.14c-.05,1-.05,1.94,0,2.92,0,.76-.07,1.37-1.07,1.39s-1.18-.48-1.18-1.3q0-7.82,0-15.63c0-.73.17-1.16,1-1.17s1.23.3,1.22,1.2C168.75,145.75,168.77,148.86,168.77,152.43Z" style="fill:#2b4e09"/><path d="M149.31,154.86c0,1.11,0,2.22,0,3.33,0,.45.29,1-.36,1.25-.45.15-1.12.26-1.33-.23-.55-1.3-1.09-.42-1.68-.11A4.37,4.37,0,0,1,141,159a3.4,3.4,0,0,1-1.17-3.93c.5-1.83,2-2.54,3.69-3,.4-.11.84-.09,1.23-.21.8-.26,2.23.38,2.18-1.16,0-1.38-1.14-2-2.43-2.14a6,6,0,0,0-2.63.52c-.4.14-.78.34-1-.24s-.21-.92.39-1.18a6.94,6.94,0,0,1,5.66-.24c1.75.76,2.27,2.33,2.29,4.11,0,1.11,0,2.22,0,3.33Zm-5.4,3.31a3.24,3.24,0,0,0,3.28-3.43c0-1-.25-1.53-1.39-1.5-2.2.07-3.76,1.12-3.83,2.68A2,2,0,0,0,143.92,158.17Z" style="fill:#2b4e09"/><path d="M186.46,153.73c-.76,0-1.53,0-2.29,0s-1.57-.33-1.91.4a2.33,2.33,0,0,0,.62,2.3c1.31,1.74,3.14,1.8,5.09,1.55.64-.08,1.61-.93,1.89.33s-1,1.12-1.69,1.24c-2.63.47-5.27.46-7-2a7.22,7.22,0,0,1-.19-7.9,5.35,5.35,0,0,1,6.27-2.51,5.52,5.52,0,0,1,3.58,5.36c0,.94-.44,1.22-1.26,1.21h-3.13Zm-1.09-1.53a3.81,3.81,0,0,0,.83,0c.8-.18,2.09.58,2.33-.61a2.59,2.59,0,0,0-1.75-2.8,2.83,2.83,0,0,0-2.61.09c-1.11.6-2.06,1.61-1.82,2.78s1.56.38,2.38.54A3.43,3.43,0,0,0,185.38,152.2Z" style="fill:#2b4e09"/><path d="M57.56,148.77a6.86,6.86,0,0,1,.86-1.16c.7-.63,1.76-1.14,2.45-.61.88.66.35,1.93.33,2.93,0,.57-.61.39-1,.43-2,.21-2.74,1.38-2.71,3.25,0,1.32-.09,2.64,0,3.95.13,1.51-.34,2-1.93,2s-1.92-.73-1.88-2.14c.07-2.77,0-5.54,0-8.31,0-.78-.63-2,.88-2.08,1.15-.1,2.5-.4,2.44,1.66Z" style="fill:#2b4e09"/><path d="M209.5,159.74c-.23-.05-1-.18-1.71-.38-.58-.16-1-.41-.7-1.19s.65-.72,1.25-.45a4.22,4.22,0,0,0,2.64.38,1.9,1.9,0,0,0,1.71-1.58,1.75,1.75,0,0,0-1-1.89c-.79-.43-1.65-.73-2.44-1.16a3.18,3.18,0,0,1-1.93-3.56,3.45,3.45,0,0,1,3.17-2.86,5.85,5.85,0,0,1,3.08.26c.52.21.86.46.67,1.07s-.45.76-1.08.57c-1.42-.42-3.17-.91-3.68,1s1.48,2,2.64,2.61c2.38,1.17,3.15,2.45,2.61,4.56C214.27,158.86,212.58,159.81,209.5,159.74Z" style="fill:#2b4e09"/><path d="M196.9,153.38c0-.9,0-1.81,0-2.71s.1-1.87-1.31-1.8c-.51,0-.7-.38-.67-.85a.64.64,0,0,1,.64-.68c1.15,0,1.42-.6,1.35-1.58s.73-1.12,1.38-1.21c1-.14.69.73.66,1.16-.12,1.57.82,1.66,2,1.61.61,0,1.33-.11,1.26.89s-.75.76-1.24.68c-1.84-.28-2.07.74-2,2.21s0,2.78,0,4.17.26,2.86,2.26,2.73c.52,0,.74.23.77.74s-.27.85-.82,1a3.24,3.24,0,0,1-4.24-2.8,32.91,32.91,0,0,1,0-3.54Z" style="fill:#2b4e09"/><path d="M157.68,148.92c.86-.79,1.43-1.64,2.44-1.84.58-.11,1.33-.33,1.46.61.09.63.09,1.18-.84,1.34-2.28.37-3,2-3,4.08,0,1.73,0,3.46,0,5.19,0,.69-.14,1.21-1,1.22s-1.19-.43-1.18-1.27c0-3,0-6.09,0-9.14,0-.63-.55-1.6.73-1.79S157.31,148.17,157.68,148.92Z" style="fill:#2b4e09"/><path d="M201.43,100.49a3.71,3.71,0,1,1,3.71-3.71A3.71,3.71,0,0,1,201.43,100.49Zm0-6.8a3.08,3.08,0,1,0,3.08,3.08A3.09,3.09,0,0,0,201.43,93.69Z" style="fill:#2b4e09"/><path d="M200.37,94.9a5.21,5.21,0,0,1,1-.08,1.59,1.59,0,0,1,1.13.32,1,1,0,0,1,.31.74,1,1,0,0,1-.73,1v0a1,1,0,0,1,.57.78,6.18,6.18,0,0,0,.3,1.07h-.52a5,5,0,0,1-.26-.93c-.12-.54-.32-.74-.78-.76h-.47v1.69h-.5Zm.5,1.77h.51c.54,0,.88-.29.88-.74s-.36-.72-.89-.73a2.07,2.07,0,0,0-.5,0Z" style="fill:#2b4e09"/></svg>