<svg xmlns="http://www.w3.org/2000/svg" viewBox="0 0 250 250"><defs><style>.a{fill:#dd1d39;}.b{fill:#5cac46;}.c{fill:#161615;}.d{fill:#151514;}.e{fill:#cdcdcd;}.f{fill:#fefefe;}</style></defs><title>Fast Food</title><path class="a" d="M72.45,92.34c-1.69,0-3.37,0-5.06,0a.72.72,0,0,1-.79-.48Q59.42,76.16,52.21,60.46q-2.5-5.45-5-10.9c-.15-.31-.14-.44.2-.61a198.36,198.36,0,0,1,23.64-9.52A176.53,176.53,0,0,1,92,34.08q6.77-1.29,13.61-2c3.47-.38,7-.64,10.45-.82,4.65-.24,9.3-.26,14-.15,4.19.1,8.37.39,12.54.81A173.09,173.09,0,0,1,197,46.53c1.85.83,3.68,1.7,5.53,2.53.36.16.41.29.24.67Q196,64.39,189.28,79.07q-2.94,6.39-5.87,12.79a.68.68,0,0,1-.72.5q-5.17,0-10.34,0c-.47,0-.57-.08-.36-.54Q180.48,73.39,189,55c.2-.44.16-.58-.3-.78a164.45,164.45,0,0,0-30.49-9.45q-7-1.43-14-2.26-5.92-.69-11.87-.94c-3.51-.15-7-.24-10.54-.15-3.75.1-7.49.28-11.23.6a163.32,163.32,0,0,0-22.14,3.44,165.94,165.94,0,0,0-27.12,8.69c-.5.21-.35.42-.2.73L75,85.3c1,2.17,2,4.35,3,6.51.21.44.14.55-.35.54C75.93,92.33,74.19,92.34,72.45,92.34Z"/><path class="b" d="M125,219l-3.79-8.26-12.58-27.46-12.3-26.86q-1.72-3.76-3.46-7.5c-.18-.39-.2-.56.33-.56q5.2,0,10.39,0a.65.65,0,0,1,.69.47q10.22,22.34,20.46,44.67c.08.18.18.36.29.59l1.59-3.46,14.64-31.81q2.29-5,4.56-9.95a.72.72,0,0,1,.77-.51c3.43,0,6.85,0,10.28,0,.62,0,.62,0,.36.56l-13.62,29.63L127.17,214.2Z"/><path d="M79.66,120.25a9.62,9.62,0,0,1,4.78,6c1.07,4.3.55,8.37-2.32,11.91a11.75,11.75,0,0,1-7.31,4,18.55,18.55,0,0,1-3.44.28q-8.79,0-17.59,0c-.45,0-.58-.1-.58-.57q0-21.11,0-42.22c0-.47.09-.61.59-.61,5.79,0,11.58,0,17.37,0a14.42,14.42,0,0,1,8.45,2.47,12,12,0,0,1,3,15.69,10.84,10.84,0,0,1-1.31,1.62A12.21,12.21,0,0,1,79.66,120.25Z"/><path d="M199.11,142.47h-2.68c-2.51,0-5,0-7.53,0a.63.63,0,0,1-.66-.41q-3.91-8-7.83-16a.65.65,0,0,0-.69-.46q-2.12,0-4.23,0c-.42,0-.51.11-.51.51,0,5.26,0,10.52,0,15.78,0,.5-.12.64-.63.63-2.71,0-5.42,0-8.14,0-.37,0-.5-.08-.5-.48q0-21.22,0-42.44c0-.34.07-.47.45-.47,5.72,0,11.43,0,17.15,0a14,14,0,0,1,9.76,3.73,12.33,12.33,0,0,1,3.8,7.31,13.11,13.11,0,0,1-1.26,8.42,11.59,11.59,0,0,1-5.68,5.19c-.35.16-.4.25-.22.6q4.49,8.62,8.95,17.26Z"/><path d="M128.44,120.77q0-10.53,0-21.06c0-.52.15-.62.64-.62,5.61,0,11.22,0,16.82,0a14.15,14.15,0,0,1,10,3.79,12.38,12.38,0,0,1,3.79,7.49,13,13,0,0,1-1.46,8.49,11.59,11.59,0,0,1-5.48,4.88c-.34.15-.45.25-.24.65q4.54,8.69,9,17.41a2,2,0,0,0,.1.19c.24.36.16.47-.28.46q-4.81,0-9.62,0a.74.74,0,0,1-.79-.48q-3.91-8-7.83-16a.57.57,0,0,0-.61-.39c-1.43,0-2.86,0-4.29,0-.44,0-.49.15-.49.53,0,5.24,0,10.48,0,15.72,0,.51-.08.68-.64.67-2.69,0-5.39,0-8.08,0-.44,0-.54-.12-.54-.55Q128.45,131.35,128.44,120.77Z"/><path d="M201.42,120.81c0-2.66,0-5.31.23-8a14.91,14.91,0,0,1,13.92-14,17.36,17.36,0,0,1,9.37,1.47,14.33,14.33,0,0,1,8.3,11.07,36.17,36.17,0,0,1,.43,5.85c0,3.39.12,6.78-.11,10.16-.2,3-.69,6-2.45,8.54a15.19,15.19,0,0,1-11.72,6.82,17.06,17.06,0,0,1-9.6-1.65,14.38,14.38,0,0,1-8-11.52A71.08,71.08,0,0,1,201.42,120.81Z"/><path d="M119.8,142.47c-1.43,0-2.86,0-4.29,0a.55.55,0,0,1-.65-.46c-.71-2.2-1.46-4.4-2.18-6.6a.57.57,0,0,0-.64-.48q-6.71,0-13.41,0a.57.57,0,0,0-.66.46c-.73,2.2-1.5,4.39-2.22,6.59a.6.6,0,0,1-.7.48c-2.82,0-5.64,0-8.47,0-.67,0-.67,0-.45-.62l11-30.18c1.47-4,2.94-8.06,4.39-12.1a.62.62,0,0,1,.71-.48q3.08,0,6.16,0a.58.58,0,0,1,.66.46q6,16.49,12,33c1.15,3.14,2.28,6.28,3.44,9.41.16.42.16.55-.35.54C122.7,142.45,121.25,142.47,119.8,142.47Z"/><path d="M31.6,142.84a22.76,22.76,0,0,1-11-2.58A19,19,0,0,1,16.48,137c-.19-.2-.21-.3,0-.51Q19.26,133.75,22,131c.15-.15.23-.23.42,0,2.47,2.53,5.59,3.41,9,3.56a12.85,12.85,0,0,0,5.14-.63c3-1.13,3.4-4,2.59-6.11a3.57,3.57,0,0,0-2.82-2.27c-2.3-.46-4.62-.74-6.94-1.11a16.92,16.92,0,0,1-6.05-2,9.9,9.9,0,0,1-4.76-6.18,14.48,14.48,0,0,1,.54-9.58A11.86,11.86,0,0,1,27,99.73a21.88,21.88,0,0,1,16.63,1.33,16.66,16.66,0,0,1,3.86,2.88c.18.17.16.27,0,.43q-2.76,2.72-5.51,5.45c-.19.19-.29.12-.44,0-2.12-2.15-4.81-2.81-7.7-2.89a9,9,0,0,0-4.08.64,4.56,4.56,0,0,0-2.57,5.36,3.78,3.78,0,0,0,2.56,2.56,17.65,17.65,0,0,0,3.7.76,55.62,55.62,0,0,1,7.06,1.31,10.89,10.89,0,0,1,7.94,9.86,14.38,14.38,0,0,1-.85,7.06A12.87,12.87,0,0,1,40,141.53,21.43,21.43,0,0,1,31.6,142.84Z"/><path d="M98.75,67.83c-.32-1.89-.63-3.78-1-5.67-.13-.78-.15-.78.61-.9l.65-.11c.77-.12.76-.12.9.68.64,3.73,1.27,7.46,1.94,11.18.1.53,0,.72-.56.79-1.42.2-1.42.23-2.15-1L95.9,67.2c-.06-.1-.08-.24-.28-.32.18,1.05.35,2.07.52,3.09.24,1.37.47,2.74.71,4.11.06.32,0,.53-.36.52a3,3,0,0,0-.49.08c-.41.06-.91.35-1.19.11s-.19-.75-.26-1.14q-.91-5.3-1.82-10.59c-.14-.81-.15-.81.62-.94,1.44-.25,1.44-.25,2.21,1l3.09,5C98.92,68.12,98.74,67.95,98.75,67.83Z"/><path d="M137.23,66.49a2.63,2.63,0,0,1-2.58.66,2.08,2.08,0,0,1-1.78-2,11.35,11.35,0,0,1,.35-3.91c.46-1.5,1.58-2.16,3.34-2a7.52,7.52,0,0,1,.82.11,2.67,2.67,0,0,1,2.35,3c0,1.74-.17,3.47-.27,5.2a15.39,15.39,0,0,1-.24,2.73,2.57,2.57,0,0,1-2.58,2.17,8,8,0,0,1-1.15,0,2.9,2.9,0,0,1-2.61-3.55c.05-.24.18-.23.35-.23.46,0,.91.06,1.37.06s.44.15.38.47a2.12,2.12,0,0,0,0,.6.88.88,0,0,0,1,.9c.62,0,1-.25,1.08-.85C137.1,68.71,137.15,67.66,137.23,66.49Z"/><path d="M152.73,66.9a2.64,2.64,0,0,1,2.7-.36,2.08,2.08,0,0,1,1.48,2.08,11.71,11.71,0,0,1-.65,3.71,2.67,2.67,0,0,1-3,1.95,7.32,7.32,0,0,1-1.19-.19,2.74,2.74,0,0,1-2.21-3.32c.3-2.08.65-4.15,1-6.23q.06-.41.15-.81c.46-2.11,1.65-2.91,3.79-2.55a2.89,2.89,0,0,1,2.59,3.74c0,.26-.12.41-.42.31a5.54,5.54,0,0,0-.65-.11c-.34-.06-.78,0-1-.22s0-.61.06-.94a.93.93,0,0,0-.9-1,1,1,0,0,0-1.15.77C153.08,64.72,152.93,65.75,152.73,66.9Z"/><path d="M112.38,65.8c-.06-1-.11-2-.18-3a3.15,3.15,0,0,1,3-3.57,3.52,3.52,0,0,1,3.51,1.17,4.59,4.59,0,0,1,.76,2.86c0,.24-.19.2-.31.21l-1.81.11c-.22,0-.29-.06-.29-.28a7.22,7.22,0,0,0-.09-1.09,1.15,1.15,0,0,0-1.33-1.08c-.73.1-1.07.54-1,1.36.07,1.35.17,2.7.25,4,.06.89.1,1.79.16,2.68a1.14,1.14,0,0,0,1.51,1.17.93.93,0,0,0,.85-1c0-.53,0-1.06-.06-1.59,0-.22,0-.33.29-.34.58,0,1.17-.07,1.75-.1.16,0,.37-.06.37.2a7.45,7.45,0,0,1-.12,2.72,3.26,3.26,0,0,1-.23.5A4,4,0,0,1,115,72.27a3,3,0,0,1-2.38-3c-.06-1.15-.14-2.3-.21-3.45Z"/><path d="M144.13,64.6a2.22,2.22,0,0,1,1.66-.56,2.35,2.35,0,0,1,2.44,2.69,18.64,18.64,0,0,1-.38,3.71c-.45,2.29-1.9,3.12-4.27,2.52a2.88,2.88,0,0,1-2.24-3.89c.05-.18.13-.24.3-.22l.6.08c.4,0,.91,0,1.17.17s0,.74,0,1.13a1.07,1.07,0,0,0,2.05.44,7.23,7.23,0,0,0,.31-1.89c.09-.6.14-1.2.2-1.8a1,1,0,0,0-.54-1.16,1.12,1.12,0,0,0-1.38.32.84.84,0,0,1-.92.36c-1.24-.13-1.25-.12-1.06-1.38.25-1.65.49-3.29.65-5,0-.27.09-.39.39-.35,1.71.2,3.42.38,5.13.56.22,0,.33.09.27.35a4.12,4.12,0,0,0-.15,1c0,.55-.27.55-.69.5-.91-.12-1.82-.2-2.73-.31-.25,0-.41,0-.45.3C144.39,63,144.26,63.72,144.13,64.6Z"/><path d="M110.2,59.75c-.64,2.46-1.24,4.85-1.89,7.22a5.57,5.57,0,0,0,0,2.06c.1,1.11.24,2.22.38,3.33,0,.37-.05.53-.44.54a11.37,11.37,0,0,0-1.53.16c-.33.06-.41,0-.44-.35-.13-1.29-.34-2.58-.41-3.87a6,6,0,0,0-.89-2.5c-.91-1.75-1.81-3.5-2.73-5.24-.21-.39-.12-.49.29-.51a12,12,0,0,0,1.53-.17.44.44,0,0,1,.58.31c.65,1.41,1.32,2.8,2,4.31.28-1.36.55-2.62.8-3.87s.22-1.13,1.34-1.27Z"/><path d="M129.61,65.43c0,2,0,4,0,6,0,.38-.1.52-.48.48-.56,0-1.29.21-1.63-.14s-.08-1-.08-1.53c0-2.67.06-5.34.12-8,0-.38-.08-.54-.47-.48a2.4,2.4,0,0,1-.49,0c-1.16-.06-.86.1-.92-1,0-.21.09-.29.25-.36a15,15,0,0,0,2.43-1.37c.4-.28.86-.09,1.28-.09.21,0,.1.27.1.42,0,2,0,4,0,6Z"/><path class="c" d="M163.51,149.43c0,.54,0,1.09,0,1.63,0,.19.16.5-.28.49s-.25-.33-.25-.52c0-.68,0-1.36,0-2,0-.16-.16-.46.19-.46s.66-.17.8.32.38,1.1.6,1.71a7.42,7.42,0,0,0,.66-1.69c.15-.49.49-.36.79-.35s.22.32.22.5c0,.71,0,1.43,0,2.14,0,.19,0,.35-.27.36s-.31-.16-.31-.38c0-.56,0-1.13,0-1.84a15.53,15.53,0,0,0-.63,1.61c-.1.22,0,.59-.43.6s-.35-.35-.44-.58c-.2-.51-.37-1-.55-1.54Z"/><path d="M123.13,71.94C122,72,122,72,122,70.79c0-.94,0-.95.92-.95.43,0,1-.15,1.27.07s.09.82.1,1.25C124.26,71.92,124.25,71.92,123.13,71.94Z"/><path class="d" d="M160.86,150.29a4,4,0,0,1,0-.55c.07-.52,0-.84-.67-.72-.15,0-.33,0-.33-.22s.1-.27.3-.27h2c.18,0,.31,0,.32.26s-.16.27-.32.23c-.63-.12-.72.21-.68.73s0,1,0,1.48c0,.23-.06.31-.31.32s-.31-.1-.3-.32S160.86,150.6,160.86,150.29Z"/><path class="e" d="M98.75,67.83a2.22,2.22,0,0,1,.09.34c0,.07.08.19-.06.2s-.09-.13-.13-.2Z"/><path class="f" d="M67.37,124.66c1.17,0,2.58,0,4,0a4.4,4.4,0,0,1,4.15,3.11,5,5,0,0,1-1.72,5.49,5.16,5.16,0,0,1-2.91.84c-2.66,0-5.31,0-8,0-.37,0-.46-.11-.45-.46q0-4.29,0-8.57c0-.41.14-.48.5-.47C64.35,124.67,65.74,124.66,67.37,124.66Z"/><path class="f" d="M62.46,111.83c0-1.3,0-2.6,0-3.9,0-.36.06-.5.47-.5,2.45,0,4.91,0,7.36,0a6.2,6.2,0,0,1,1.68.23,3.87,3.87,0,0,1,3,3.06,4.3,4.3,0,0,1-1.3,4.44,4.91,4.91,0,0,1-3.27,1.08c-2.51,0-5,0-7.53,0-.33,0-.44-.08-.43-.42C62.47,114.51,62.46,113.17,62.46,111.83Z"/><path class="f" d="M175,112.56c0-1.56,0-3.12,0-4.67,0-.36.1-.45.45-.45,2.35,0,4.69,0,7,0a5.12,5.12,0,0,1,5.13,3.46,5,5,0,0,1-4.6,6.75c-2.56.11-5.13,0-7.7,0-.36,0-.33-.18-.33-.41Q175,114.92,175,112.56Z"/><path class="f" d="M137.68,112.53c0-1.56,0-3.11,0-4.67,0-.34.08-.43.42-.43,2.4,0,4.8,0,7.19,0a5.1,5.1,0,0,1,.37,10.2c-2.54.09-5.09,0-7.63,0-.37,0-.35-.19-.35-.44C137.68,115.68,137.68,114.11,137.68,112.53Z"/><path class="f" d="M210.66,120.74a65.7,65.7,0,0,1,.34-7.84c.72-6.13,7.36-7,10.56-4.58a6.65,6.65,0,0,1,2.54,4.69,63.75,63.75,0,0,1,.36,9.32,52.6,52.6,0,0,1-.25,5.43,7.71,7.71,0,0,1-1.65,4.51,6.41,6.41,0,0,1-6.88,2,5.94,5.94,0,0,1-4.56-5,44.7,44.7,0,0,1-.45-8Q210.66,121,210.66,120.74Z"/><path class="f" d="M100.8,127l4.67-13.44L110,127Z"/><path class="f" d="M137.39,63.35c0,.35,0,.69-.06,1a1.17,1.17,0,0,1-1.24,1.11c-.59,0-1-.45-1-1.16s.06-1.53.13-2.3A1.06,1.06,0,0,1,136.39,61c.73,0,1.07.45,1.06,1.25,0,.38,0,.77,0,1.15Z"/><path class="f" d="M152.05,71.15c.12-.71.26-1.61.42-2.51.06-.33.79-.71,1.25-.65s.86.35.85.85A10.75,10.75,0,0,1,154,72c-.17.49-.67.65-1.25.49S152,72,152.05,71.15Z"/></svg>