<svg xmlns="http://www.w3.org/2000/svg" viewBox="0 0 250 250"><defs><style>.a{fill:#fff;}.b{fill:none;stroke:#fff;stroke-linecap:round;stroke-linejoin:round;stroke-width:0.83px;}.c{fill:#7e0000;}.d{fill:#eadb75;}.e{fill:#ffdf8c;}</style></defs><title>Midscale</title><path class="a" d="M213.44,113.51a4,4,0,0,0,4.06-4s0,0,0-.07a4.07,4.07,0,1,0-4.06,4.09Zm-3.28-4.09a3.27,3.27,0,1,1,3.27,3.41,3.27,3.27,0,0,1-3.27-3.41Zm2.43.32h.81l1.23,2h.79l-1.32-2.07a1.22,1.22,0,0,0,1.2-1.29c0-.93-.54-1.33-1.64-1.33h-1.77v4.7h.71v-2Zm0-.6v-1.46h1c.49,0,1,.11,1,.69s-.53.77-1.12.77h-.84Z"/><path class="b" d="M213.44,113.51a4,4,0,0,0,4.06-4s0,0,0-.07a4.07,4.07,0,1,0-4.06,4.09m-3.28-4.09a3.27,3.27,0,1,1,3.27,3.41,3.27,3.27,0,0,1-3.27-3.41m2.43.32h.81l1.23,2h.79l-1.32-2.07a1.22,1.22,0,0,0,1.2-1.29c0-.93-.54-1.33-1.64-1.33h-1.77v4.7h.71v-2m0-.6v-1.46h1c.49,0,1,.11,1,.69s-.53.77-1.12.77h-.84Z"/><path class="c" d="M70.36,84.92c3.14,5.79,5,12.16,7.33,18.29a.74.74,0,0,0,1,.38,14.41,14.41,0,0,0,2.51-2.65,94.59,94.59,0,0,1,9.34-10.66c1.91-1.92,4.61-3.12,7.26-2.3,2,.77,2.73,2.77,2.74,4.79.14,3.58.28,6.49.36,10.07a1.09,1.09,0,0,0,.5.5c1.66.1,3.14-.64,4.85-.32a12.73,12.73,0,0,1,2.43.87,21.36,21.36,0,0,1,3.28,3c.05,0,.22,0,.27-.11,3.49-5.07,9-7.13,14.71-7.85,5.07-.55,10.11,1.76,12.2,6.5.23.39.23,1,.67,1.23a1.69,1.69,0,0,0,.33-.17c3.5-3.11,6.77-8.56,12-6.54a9.85,9.85,0,0,1,1.83,1,13.91,13.91,0,0,1,4.8-.15c.11,0,.16-.11.22-.17a10.2,10.2,0,0,1,14.64-10.42,9.57,9.57,0,0,1,5.54,8.4,13.44,13.44,0,0,1-.95,5.38c.22.22.44-.17.6-.34,3.11-3.39,7.12-5.6,11.87-5a30.53,30.53,0,0,0,3.15.42c1.75-1.53,4.17-2.72,6.5-1.68,1.83.82,2.45,2.67,3.18,4.28,1.31,4.3,3,8.53,3.7,13.12a7.77,7.77,0,0,1-2.43,6.34c0,.11,0,.11,0,.22,6.77,4.08,10.36,11.16,11.63,18.48.82,5.08-.91,9.52-3,13.62a26.14,26.14,0,0,1-7.65,8,26.64,26.64,0,0,1-14.31,3.71c-7.34-.27-14.37-3.46-18.51-10.08a22.57,22.57,0,0,1-2.27-6.92c-1.84-1.67-4.21-2.26-6.43-3.14-2.71-1-5.64-1.91-7.65-4.41-.11,0-.11-.11-.22-.11-2.31.58-4.91,0-7.29-.33-3.1-.75-6.41-.84-9.18-2.33-.38.06-.55.45-.88.51a51.38,51.38,0,0,1-7.78.29,9.53,9.53,0,0,1-4-1c-3.73,2.61-9.68,3.11-13.62.63a1.37,1.37,0,0,0-.5.11c-3.72,3.34-7.2,9.91-12.9,7.11-.61-.16-1-1.11-1.77-.71-3.36,1.1-6.77,2.13-10,3.45a19,19,0,0,0-1.3,2.87A24.57,24.57,0,0,1,77.38,163c-6.36,4.2-14.57,5.61-22.58,4.28a27.17,27.17,0,0,1-18.47-11.81c-3.3-4.89-4.29-11-3.62-17.25a22.67,22.67,0,0,1,9.8-15.53A34.21,34.21,0,0,1,49,119.24c.11-.06.22-.23.11-.34-5.89-4.82-10.14-11.38-8.5-19.23,1.05-6.05,6.13-12,12.13-13.53a24.47,24.47,0,0,1,7.06-.73c.77-.34,1.15-1.3,1.86-1.86a5.88,5.88,0,0,1,6.17-.72,6.65,6.65,0,0,1,2.56,2.1Z"/><path class="d" d="M69.32,92.37c1.07,2.85,2.2,5.63,3.05,8.54.23,1.12.57,2.46-.25,3.42a2.06,2.06,0,0,1-2.26.69,3.62,3.62,0,0,1-1.72-1.33c-2.4-2.78-4.75-7.18-9-7a6.22,6.22,0,0,0-5.38,3.51A6.44,6.44,0,0,0,54.88,107a10.17,10.17,0,0,0,4.27,2.93,4.53,4.53,0,0,0,.89.5c6.09,2.35,12.61,3.81,17.51,9,4.51,4.61,7.59,9.78,8.19,16,.23,1.06.13,2.24.41,3.24a.75.75,0,0,0,.88.16c1.75-1.25,1.24-3.71,1.39-5.72.15-8.17,0-16.29-.38-24.4a1.32,1.32,0,0,0-.67-1.17c-1.38-.44-3.31.42-4.31-1-.73-1.34.31-2.52,1.07-3.53,2.62-3,5.24-6,8.2-8.8.82-.62,1.92-1.42,2.92-.81,1.06,1.22.85,3.07.87,4.64.09,4.31-.15,8.28.22,12.42.11.17.06.39.28.45,2.14-1.14,4-2.95,6.31-3.64a4.79,4.79,0,0,1,5.14,1.24c1.17,1.33,1.3,3.18,1.42,5,.37,4.64.41,9.29.89,13.93a1.67,1.67,0,0,0,.84,1,1.82,1.82,0,0,0,1.43-.4,1.17,1.17,0,0,0,.33-.45c-.14-4.08,1.48-8,5.1-10,3.24-1.76,7-2.08,10.85-2.56.66-.45.37-1.57.37-2.35-.4-1.4-.25-3.41-2-3.84-1.38-.33-2.36.8-3.41,1.48-2.08,1.64-4,4.51-7,3.31a3.07,3.07,0,0,1-1.73-2.28c-.14-3,3-4.73,5.13-5.92,3.79-1.77,9-2.88,13.07-1a6.63,6.63,0,0,1,3.3,5.34c.33,6.6.17,13.43.34,20.14.73,1.39,2.55.87,3.49,2.15.44-.06.77-.51,1.26-.68a2.93,2.93,0,0,0,1.92-1.08,9.86,9.86,0,0,0,.47-3.14c.3-3.31,0-6.77,0-10.07a2.61,2.61,0,0,0-.51-1.62c-1.22-.89-4.41.49-3.77-2.21a8.66,8.66,0,0,1,.87-1.18c2.35-2.54,4.43-5,6.77-7.5a2.78,2.78,0,0,1,2.81-.92,3.06,3.06,0,0,1,2.12,2.22c.78.61,1.32-.57,2-.8a5.75,5.75,0,0,1,5.69.57,7.94,7.94,0,0,1,2.66,8.26.19.19,0,0,0,.33.05c2.3-1.92,4.32-4.8,6.78-6.38a1.66,1.66,0,0,1,1.88.38,2.24,2.24,0,0,1,.33.61c.13,8.78.15,17.63.28,26.41.18,1.57.14,3.41,1.75,4.24.39.11.95.83,1.27.21a11.13,11.13,0,0,1,5.63-6.26,13,13,0,0,1,13.19.89c1.95,1.66,4,3.77,3.64,6.51a2,2,0,0,1-1.43,1.35c-2.26.47-3.16-2.32-4.94-3.09a6.69,6.69,0,0,0-4.31-.86,6.35,6.35,0,0,0-5,4.52,9.4,9.4,0,0,0,3.17,9.15c3.67,3.16,9.84,2.32,13.85.38a11,11,0,0,0,5.53-11.13c-.25-3.8-2.65-7-5.87-9.07a57.7,57.7,0,0,0-10.69-5.61c-2.66-1.43-5.54-3-7.17-5.93-2-3.4-2.39-8.76-.1-12.14,2.07-3.43,5.52-5.81,9.61-5.62a16.17,16.17,0,0,1,4.54,1.3c.88-.06,1.09-1.35,2-1.64a1.83,1.83,0,0,1,1.32.1c1.06.89,1.29,2.34,1.85,3.51.91,2.84,2.2,5.58,2.83,8.54a2.37,2.37,0,0,1-1,2.41,2.18,2.18,0,0,1-1.76.3c-2.66-1.32-3.18-4.23-5.29-6.05-1.5-1.33-3.39-2.54-5.53-1.74a5,5,0,0,0-2.79,2.93,4.62,4.62,0,0,0,1.14,4.47c2.56,2.38,5.71,3.08,8.54,4.68,6,2.8,12.59,8,14.91,14.59a19.32,19.32,0,0,1-5.07,19.91c-3.72,3.72-8.51,4.94-13.64,5.32a20.52,20.52,0,0,1-11.84-3.53c-4.27-3-6.25-7.61-6.45-12.65-1.28-1.39-3.16-1.65-4.76-2.42-2.88-1.15-6-1.91-8.64-3.62a2.09,2.09,0,0,1-.79-2.23c.59-1.63,2.58-1,3.9-1.6.88-.79.53-2.25.63-3.36a84.72,84.72,0,0,0-.44-12.42c-.62-1.39-2.49-.6-3.27-1.93a.65.65,0,0,0-.33-.33c-1.65.41-3.64.31-4.81-1s.63-3.87-1.37-4.91a1.33,1.33,0,0,0-1,.18c-.93.74-.76,2-.91,3q-.28,8-.14,16c.12,1.9,1.46,3.18,2.74,4.51a1.57,1.57,0,0,1,.07,1.62c-.93,1-2.54.3-3.69.26-3.71-1-7.84-.83-11.23-2.7a6.16,6.16,0,0,1-3.64.48c-1.71,0-3.37-.14-5-.12a2.64,2.64,0,0,1-2.11-1.83c-.06-.34-.07-.67-.12-1.06,0-3,.44-6.38-.13-9.4a2.25,2.25,0,0,0-1.56-1.27,6.33,6.33,0,0,0-5.93,3,3.46,3.46,0,0,0,.53,3.69c1.67,2.06,5.23-.66,6.31,2.3a4.59,4.59,0,0,1-2.39,4.33c-3,2.15-8,1.81-10.92-.19a8.81,8.81,0,0,1-1.67-2.11,29,29,0,0,0-2.13,2.42c-2.24,2.37-4.2,5.35-6.78,7.34-.77.23-1.48.8-2.31.41a2.36,2.36,0,0,1-1.5-1.72c.14-3.08,2.38-5.22,2.13-8.41,0-4.31,0-8.9-.23-13.15-.23-1.17-.13-2.57-1.24-3.29a2.86,2.86,0,0,0-2.15-.26c-2.09.86-2.46,3.32-2.82,5.34a70.06,70.06,0,0,0,.12,13.6c0,2.46,3.38,1.43,3.51,3.94a2,2,0,0,1-.32,1.29c-1.43,1-3.19,1.26-4.78,1.89-3.19,1-6.27,2.35-9.52,3.27-.44.84-.59,1.8-1,2.7a25.64,25.64,0,0,1-24.25,16C52,163,43.92,159.41,39.61,151.89c-3.8-6.12-3.44-15.25.31-21.27,4-5.74,10.63-8.82,17.59-7.2a19.22,19.22,0,0,1,7.37,3.91,12.68,12.68,0,0,1,4,6,5.15,5.15,0,0,1-.13,3.64A2.78,2.78,0,0,1,67.46,138c-2.31.35-3.55-1.93-5.21-3.15-2.22-1.66-4.55-3-7.47-2.84a8.71,8.71,0,0,0-5.77,2.4,10.59,10.59,0,0,0-2.62,10.2,11.67,11.67,0,0,0,4.59,7,18,18,0,0,0,13.21,2.68,15.88,15.88,0,0,0,11.42-6.87,15.89,15.89,0,0,0,1.1-13.16,18.41,18.41,0,0,0-10.53-11.72c-6.37-3.25-13.77-4.36-18.74-10.47-3-3.5-4.55-8.58-2.82-13.12,1.56-5,6.43-9.46,11.67-9.84a42.18,42.18,0,0,1,5.35.18c1.1-.74,1.3-2.7,3-2.71a2.81,2.81,0,0,1,1.71.43,4.5,4.5,0,0,1,1.51,2c.51,1.11,1.07,2.23,1.52,3.34Z"/><path class="e" d="M173.79,96.72a5.57,5.57,0,0,1,0,5,5.37,5.37,0,0,1-5.1,3.29,5.79,5.79,0,1,1,5.06-8.33Z"/><path class="c" d="M213.44,113.51a4,4,0,0,0,4.06-4s0,0,0-.07a4.07,4.07,0,1,0-4.06,4.09Zm-3.28-4.09a3.27,3.27,0,1,1,3.27,3.41,3.27,3.27,0,0,1-3.27-3.41Zm2.43.32h.81l1.23,2h.79l-1.32-2.07a1.22,1.22,0,0,0,1.2-1.29c0-.93-.54-1.33-1.64-1.33h-1.77v4.7h.71v-2Zm0-.6v-1.46h1c.49,0,1,.11,1,.69s-.53.77-1.12.77h-.84Z"/></svg>