<svg xmlns="http://www.w3.org/2000/svg" viewBox="0 0 250 250"><title>Grocery</title><path d="M140.18,125.68H145c.9,0,.92.1.7.93-.34,1.3-.81,2.57-1.21,3.85-.49,1.53-1.06,3-1.59,4.57-.44,1.28-.79,2.61-1.3,3.86a7.79,7.79,0,0,0-.55,3.21c0,.89.39,1.48,1.26,1.61,1.56.23,3.15.32,4.41-.95a4.63,4.63,0,0,0,1.19-2.13c.33-1.32.91-2.54,1.23-3.86a33.66,33.66,0,0,1,1.1-3.19c.62-1.77,1.24-3.55,1.87-5.32a9.5,9.5,0,0,0,.57-1.91c.06-.47.47-.68,1-.68h10c.44,0,.65.16.53.64-.36,1.46-.85,2.87-1.34,4.29s-.88,2.89-1.37,4.31c-.42,1.22-.76,2.46-1.24,3.66a15.1,15.1,0,0,0-.82,2.66c-.23,1.12.46,1.77,1.5,2.26a3.71,3.71,0,0,0,3.56-.41,4.41,4.41,0,0,0,2-3c.45-1.71,1.16-3.35,1.72-5,.75-2.27,1.66-4.5,2.3-6.81a17.55,17.55,0,0,1,.79-1.91,1,1,0,0,1,1.12-.69q4.75,0,9.5,0c.7,0,.86.26.65.87-.48,1.46-1,2.91-1.43,4.37-.4,1.25-.71,2.54-1.19,3.76s-.83,2.43-1.26,3.63-.82,2.16-1.13,3.27a9.7,9.7,0,0,1-4.36,5.91,22,22,0,0,1-10.87,3,15.22,15.22,0,0,1-7.42-1.09,10.4,10.4,0,0,1-2.83-2.15.77.77,0,0,0-1.1-.16c-1,.57-1.91,1.2-2.93,1.68a19.34,19.34,0,0,1-2.65.91,21.12,21.12,0,0,1-7.91.94,18.56,18.56,0,0,1-4.58-.63,6.45,6.45,0,0,1-4.22-3.64,5.56,5.56,0,0,1,0-3.25c.32-1.3.82-2.55,1.23-3.83q.81-2.56,1.59-5.12c.19-.64.58-1.18.77-1.83.57-2,1.22-3.94,1.84-5.9a1.07,1.07,0,0,1,1.17-.75C136.91,125.69,138.54,125.68,140.18,125.68Z" style="fill:#ee871c"/><path d="M68.87,149.88H64c-.82,0-1-.21-.68-.95,1.23-3,2.36-6.11,3.49-9.18,1-2.83,2.19-5.61,3.26-8.43.92-2.42,1.77-4.86,2.68-7.28.77-2,1.6-4.06,2.38-6.1a.85.85,0,0,1,.92-.6h9.91c.73,0,1,.35.65,1a32.79,32.79,0,0,0-1.31,3.51c-.47,1.19-.88,2.4-1.33,3.59-.08.21-.18.42-.06.61s.38.07.57,0a19.35,19.35,0,0,1,8.43-.62,6.49,6.49,0,0,1,5.73,7,15.12,15.12,0,0,1-1.16,4c-.58,1.58-1.15,3.15-1.74,4.73-.77,2.07-1.57,4.13-2.34,6.2-.23.62-.48,1.24-.66,1.88a.87.87,0,0,1-.93.71H81.53c-.45,0-.73-.11-.51-.68.68-1.77,1.32-3.55,2-5.32.56-1.53,1.1-3.06,1.67-4.58s1.12-2.94,1.71-4.39c.37-.9.66-1.82,0-2.65a2.38,2.38,0,0,0-2.79-.61,4.3,4.3,0,0,0-2.95,2.87c-.87,2.4-1.86,4.77-2.77,7.15-.73,1.91-1.42,3.84-2.17,5.75-.2.52-.42,1-.6,1.57a1.2,1.2,0,0,1-1.37.91C72.1,149.82,70.48,149.88,68.87,149.88Z" style="fill:#ee871c"/><path d="M118.6,149.79h-4.51c-1,0-1.18-.23-1-1.19.05-.22.32-.47.06-.66s-.44.14-.64.3a9.73,9.73,0,0,1-5.8,2.14,23.12,23.12,0,0,1-4.82-.13c-2.38-.44-4.37-1.56-5.17-4a6.89,6.89,0,0,1,.05-4,9.52,9.52,0,0,1,3.8-5.15,16.43,16.43,0,0,1,3.67-1.87,39.68,39.68,0,0,1,4.92-1.23,10.44,10.44,0,0,1,2.48-.2l5.48,0a1.69,1.69,0,0,0,1.95-1.58,6.32,6.32,0,0,1,.35-1.22,2,2,0,0,0-1.8-2.63,9.07,9.07,0,0,0-7.46,2.67c-.5.48-1,.95-1.52,1.43a1.35,1.35,0,0,1-1.91.09,3.09,3.09,0,0,1-1.4-2.72,3.44,3.44,0,0,1,1.53-2.51,17.23,17.23,0,0,1,4.34-2.1c3.7-1.29,7.51-1,11.28-.82a11.2,11.2,0,0,1,5.86,2.09,4.43,4.43,0,0,1,2,3.56,3.89,3.89,0,0,1-.53,2.28,6,6,0,0,0-.54,1.65c-.35,1.16-.85,2.27-1.16,3.45a31.94,31.94,0,0,1-1.26,3.52c-.24.62-.41,1.26-.62,1.89-.51,1.52-1,3-1.5,4.56-.2.6-.38,1.21-.54,1.82s-.38.57-.8.57ZM109.34,145a6.63,6.63,0,0,0,5-2,13.12,13.12,0,0,0,2.46-4.28c.24-.6-.1-.77-.62-.79a14.49,14.49,0,0,0-4.86.47,7.77,7.77,0,0,0-3.85,2.2c-1,1.18-1.29,2.47-.29,3.52A3.11,3.11,0,0,0,109.34,145Z" style="fill:#ee871c"/><path d="M192.52,150.82a16.17,16.17,0,0,1-5.74-.53,14.46,14.46,0,0,1-6.58-3.63,6.37,6.37,0,0,1-1.55-2.78,3.86,3.86,0,0,1,1-3.41,8.26,8.26,0,0,1,3.43-2.56,1.12,1.12,0,0,1,1.51.53c.68,1.11,1.32,2.25,2,3.37a9.26,9.26,0,0,0,3.68,3.8,2.93,2.93,0,0,0,2.5.06c1.26-.53,1.4-2,.4-3.25s-2.26-2.43-3.4-3.63a14.38,14.38,0,0,1-3.39-4.62,5.67,5.67,0,0,1,.92-6.08,11.29,11.29,0,0,1,5.13-3.28,23.09,23.09,0,0,1,10.8-.85,8.34,8.34,0,0,1,6,3.48,3.68,3.68,0,0,1-1.19,5.46,6,6,0,0,1-3.15,1.06c-.86,0-1.23-.37-1.38-1.23a9.72,9.72,0,0,0-1.06-3.34,3.67,3.67,0,0,0-5.23-.8c-.67.64-.65,1.36.13,2.26a35.47,35.47,0,0,0,4.08,3.84,16.92,16.92,0,0,1,4,4.44c2,3.55,1.07,7.06-2.3,9.23a17,17,0,0,1-10,2.48Z" style="fill:#ee871c"/><path d="M49.48,150.79a15.67,15.67,0,0,1-5.59-.49c-3.18-1-6.23-2.2-7.84-5.43a3.9,3.9,0,0,1,.34-4,8.33,8.33,0,0,1,3.72-2.93c.81-.37,1.28.14,1.64.73.69,1.11,1.31,2.25,2,3.37a8.45,8.45,0,0,0,3.47,3.56A2.77,2.77,0,0,0,50,145.5a1.85,1.85,0,0,0,.41-2.67,29.75,29.75,0,0,0-3-3.42,19.83,19.83,0,0,1-3.87-4.86,5.83,5.83,0,0,1,1-6.74,12.07,12.07,0,0,1,5-3A22.72,22.72,0,0,1,60.24,124a7.8,7.8,0,0,1,6.12,3.78,3.55,3.55,0,0,1-1.07,4.95,5.74,5.74,0,0,1-3.48,1.27A1.16,1.16,0,0,1,60.6,133a31.4,31.4,0,0,0-.85-3.08,3.55,3.55,0,0,0-5.57-1.31c-.61.47-.64,1.06-.15,1.76a23.65,23.65,0,0,0,4,3.95,26.42,26.42,0,0,1,3.81,3.87c2.94,3.93,1.69,8.52-2.49,10.62A19,19,0,0,1,49.48,150.79Z" style="fill:#ee871c"/><path d="M185.69,124a1.06,1.06,0,0,1-.73-.41,21,21,0,0,1-4.25-7.17,12.35,12.35,0,0,1-.35-6.88,21.26,21.26,0,0,1,4.59-8.92c.7-.84.82-.89,1.57-.11a20.86,20.86,0,0,1,4.43,6.69,9,9,0,0,1,.72,2.78,23.06,23.06,0,0,1-.06,2.8,18.55,18.55,0,0,1-3.48,8.29A12.35,12.35,0,0,1,185.69,124Z" style="fill:#63be29"/><path d="M185.69,124a12.35,12.35,0,0,0,2.44-2.93,18.55,18.55,0,0,0,3.48-8.29,23.06,23.06,0,0,0,.06-2.8,17.65,17.65,0,0,1,4.56-1.92,20.93,20.93,0,0,1,5.88-.77c.45,0,.61.21.56.66a17.69,17.69,0,0,1-.79,3.43,26.27,26.27,0,0,1-1.77,4.43,13.44,13.44,0,0,1-6.84,6.65,30.87,30.87,0,0,1-6.88,1.72C186,124.25,186,124.23,185.69,124Z" style="fill:#bdce00"/><path d="M191.67,110a17.7,17.7,0,0,1-6,14S185.93,113.85,191.67,110Z" style="fill:#68910f"/><path d="M211,126.72v-2h-.85v-.41h2.29v.41h-.85v2Z" style="fill:#ee871c"/><path d="M212.85,126.72v-2.44h.87l.52,1.66.52-1.66h.87v2.44h-.54V124.8l-.57,1.92H214l-.57-1.92v1.92Z" style="fill:#ee871c"/></svg>