<svg id="Layer_1" data-name="Layer 1" xmlns="http://www.w3.org/2000/svg" viewBox="0 0 250 250"><defs><style>.cls-1,.cls-2{fill:#e31e26;}.cls-2{stroke:#fff;stroke-miterlimit:10;stroke-width:2px;}.cls-3,.cls-4{fill-rule:evenodd;}.cls-4{fill:#fff;}</style></defs><title>Coke_Dine</title><ellipse class="cls-1" cx="125" cy="125" rx="90.43" ry="55.79" transform="translate(-14.59 16.53) rotate(-7.15)"/><ellipse class="cls-2" cx="125.46" cy="125" rx="80.92" ry="49.92" transform="translate(-14.58 16.59) rotate(-7.15)"/><path class="cls-3" d="M189,122a2.79,2.79,0,1,1,2.06-3.38A2.7,2.7,0,0,1,189,122Zm-1.18-4.8a2.15,2.15,0,0,0,1,4.17h0a2.15,2.15,0,0,0-1-4.17Zm.42,3.65-.62.15-.72-2.92,1.09-.27c.75-.18,1.25-.08,1.42.59a.7.7,0,0,1-.52.93l1.06,1.1-.74.18-1-1.06-.29.07.3,1.23Zm.13-1.86c.28-.07.43-.17.35-.49s-.4-.24-.64-.19l-.44.11.17.7.55-.14Z"/><path class="cls-3" d="M131.9,128.83c.53,2.14,3.09,3.36,5.73,2.71s4.35-2.91,3.83-5.06-3.09-3.36-5.73-2.71-4.35,2.91-3.83,5.06Zm40.3-12.18c14.17-5.56,11.38-16,11.38-16-3.61-10-19.93-2.77-19.93-2.77,5.67,2.32,4.23,5.92,4.23,5.92-2.78,10.42-21.31,12.41-21.31,12.41-11.86,1.75-46.43,10.22-46.43,10.22-1.25-1.32-6-6.42-6-6.42a143.78,143.78,0,0,1-12.12-13.49c-6-7.35.6-12.67.6-12.67,9.84-7.32,16.18-1.18,16.18-1.18L99.08,123l8.53-2.09,0-14.37s-.14-4.37,2.32-4.74c0,0,2.19-.54,1.73,3.29,0,0-1.35,10.53,1,12.73,0,0,6.26,5.66,12.65-6.12,0,0,0,5.79,6,3.85,0,0,4-.53,6.53-6.47,0,0,1.4,4.76,6.16,3.36,0,0,4.21-.8,6.42-6l0,3.93,8.75-2.15.35-16.55s-.13-3,1.27-3.33c0,0,1.83-.82,1.57,2.63l-.06,1.64,8.09-2-.13-7.16s.29-3.55-4-3.19a7.78,7.78,0,0,0-6.94,5.41l-.14-3.06-8.09,2-.27,15.91a3.18,3.18,0,0,1-2.58,3.65s-1.74.69-1.73-3.29l.22-15.2L137.57,88l-.22,15.2s.28,3.91-2,4c0,0-1.59.56-1.35-2.68l.11-15.64-9.41,2.31-.27,15s.3,3.85-2.33,4c0,0-2.13.66-1.83-3l.27-10.27s.79-5.3-5-4.12a10.24,10.24,0,0,0-7.68,6.52l.23-14.2a4.21,4.21,0,0,1-4.92,1.67s-9.4-2.4-22,2.14c0,0-21.78,7.66-10.45,28.3A60,60,0,0,0,83.25,132c-23.8,8.39-19.32,26.42-19.32,26.42,5.48,20,24.7,17,24.7,17,10.3-1,13.3-4.88,13.3-4.88,4.44,1.58,13.45-1.44,13.45-1.44,10.91-3.26,11.07-14,11.07-14l.5-14.5,3.61-.88.06,16.33c.24,6.67,4.32,5.78,4.32,5.78,6.32-1.2,7.7-5.95,7.7-5.95l.07,3.58,9.19-2.25-.06-16.33a2.72,2.72,0,0,1,1.73-2.86c1.7-.65,1.85.94,1.85.94.25,4,.27,7.7.27,7.7-.23,9.45,4.66,9.06,4.66,9.06,8.13-.81,8.39-6.93,8.39-6.93,4.7,5.69,11.68,2.24,11.68,2.24,9.53-4.65,6.83-12.81,6.83-12.81-2.43,6.16-6.48,6.69-6.48,6.69-4.72.35-4.13-5.48-4.13-5.48a9.44,9.44,0,0,0,5.48-.49c5.91-2.38,4-11.1,4-11.1-1.77-7.22-10.26-3.05-10.26-3.05-12.79,7-8.13,21.71-8.13,21.71-3.28,2.39-2.94-1.6-2.94-1.6V133.55c-.47-5.68-4.4-4.72-4.4-4.72-5.63.68-8.28,6-8.28,6l0-3.93-9,2.2,0,16c.38,4.4-1.88,4.63-1.88,4.63-2.19.54-1.89-3.94-1.89-3.94l.07-15.79L126.87,137c-1.27-8,1.24-10.56,1.24-10.56,2.89-4.42,16.86-4.55,16.86-4.55a88.72,88.72,0,0,0,27.23-5.28Zm-93,41.23S71.44,142,88.84,132.11c0,0,7,5.44,10.08,10.07,0,0-12.29,4.69-10.09,14.12,0,0,1.94,9.27,9.77,10.15,0,0-12.79,5.82-19.45-8.56ZM103.24,163s-5.11-1-6.85-8.29c0,0-1.63-6.65,4.53-9.84,0,0,9.6,11.31,2.32,18.13Zm15.63-25.78-3.59.88.25,3.75,3.59-.88-.28,14.4c-1.1,9.23-10.48,8.39-10.48,8.39,7.47-7,6.31-18.12,6.31-18.12-1.26-12.46-9.2-18.35-9.2-18.35,8-2.18,19.33-4.29,19.33-4.29-7.67,5.24-5.92,14.22-5.92,14.22Zm57.8-6.44c1.28-4.38,3.25-4.08,3.25-4.08,1.68.42,1.44,3,1.44,3-.23,4.09-2.76,4.56-2.76,4.56-3.12.65-1.93-3.45-1.93-3.45Z"/><path class="cls-4" d="M188.85,121.62a2.79,2.79,0,1,1,2.06-3.38,2.7,2.7,0,0,1-2.06,3.38Zm-1.18-4.8a2.15,2.15,0,0,0,1,4.17h0a2.15,2.15,0,0,0-1-4.17Zm.42,3.65-.62.15-.72-2.92,1.09-.27c.75-.18,1.25-.08,1.42.59a.7.7,0,0,1-.52.93l1.06,1.1-.74.18-1-1.06-.29.07.3,1.23Zm.13-1.86c.28-.07.43-.17.35-.49s-.4-.24-.64-.19l-.44.11.17.7.55-.14Z"/><path class="cls-4" d="M130.76,125c.53,2.14,3.09,3.36,5.73,2.71s4.35-2.91,3.83-5.06-3.09-3.36-5.73-2.71-4.35,2.91-3.83,5.06Zm40.3-12.18c14.17-5.56,11.38-16,11.38-16-3.61-10-19.93-2.77-19.93-2.77,5.67,2.32,4.23,5.92,4.23,5.92-2.78,10.42-21.31,12.41-21.31,12.41C133.57,114.14,99,122.61,99,122.61c-1.25-1.32-6-6.42-6-6.42A143.78,143.78,0,0,1,80.91,102.7c-6-7.35.6-12.67.6-12.67,9.84-7.32,16.18-1.18,16.18-1.18l.24,30.32,8.53-2.09,0-14.37s-.14-4.37,2.32-4.74c0,0,2.19-.54,1.73,3.29,0,0-1.35,10.53,1,12.73,0,0,6.26,5.66,12.65-6.12,0,0,0,5.79,6,3.85,0,0,4-.53,6.53-6.47,0,0,1.4,4.76,6.16,3.36,0,0,4.21-.8,6.42-6l0,3.93,8.75-2.15.35-16.55s-.13-3,1.27-3.33c0,0,1.83-.82,1.57,2.63l-.06,1.64,8.09-2-.13-7.16s.29-3.55-4-3.19a7.78,7.78,0,0,0-6.94,5.41l-.14-3.06-8.09,2-.27,15.91a3.18,3.18,0,0,1-2.58,3.65s-1.74.69-1.73-3.29l.22-15.2-9.19,2.25-.22,15.2s.28,3.91-2,4c0,0-1.59.56-1.35-2.68L132.92,85l-9.41,2.31-.27,15s.3,3.85-2.33,4c0,0-2.13.66-1.83-3L119.36,93s.79-5.3-5-4.12a10.24,10.24,0,0,0-7.68,6.52l.23-14.2A4.21,4.21,0,0,1,102,82.91s-9.4-2.4-22,2.14c0,0-21.78,7.66-10.45,28.3a60,60,0,0,0,12.5,14.79c-23.8,8.39-19.32,26.42-19.32,26.42,5.48,20,24.7,17,24.7,17,10.3-1,13.3-4.88,13.3-4.88,4.44,1.58,13.45-1.44,13.45-1.44,10.91-3.26,11.07-14,11.07-14l.5-14.5,3.61-.88.06,16.33c.24,6.67,4.32,5.78,4.32,5.78,6.32-1.2,7.7-5.95,7.7-5.95l.07,3.58,9.19-2.25-.06-16.33a2.72,2.72,0,0,1,1.73-2.86c1.7-.65,1.85.94,1.85.94.25,4,.27,7.7.27,7.7-.23,9.45,4.66,9.06,4.66,9.06,8.13-.81,8.39-6.93,8.39-6.93,4.7,5.69,11.68,2.24,11.68,2.24,9.53-4.65,6.83-12.81,6.83-12.81-2.43,6.16-6.48,6.69-6.48,6.69-4.72.35-4.13-5.48-4.13-5.48a9.44,9.44,0,0,0,5.48-.49c5.91-2.38,4-11.1,4-11.1-1.77-7.22-10.26-3.05-10.26-3.05-12.79,7-8.13,21.71-8.13,21.71-3.28,2.39-2.94-1.6-2.94-1.6V129.74c-.47-5.68-4.4-4.72-4.4-4.72-5.63.68-8.28,6-8.28,6l0-3.93-9,2.2,0,16c.38,4.4-1.88,4.63-1.88,4.63-2.19.54-1.89-3.94-1.89-3.94l.07-15.79-12.47,3.06c-1.27-8,1.24-10.56,1.24-10.56,2.89-4.42,16.86-4.55,16.86-4.55a88.72,88.72,0,0,0,27.23-5.28ZM78,154.07s-7.71-15.91,9.69-25.78c0,0,7,5.44,10.08,10.07,0,0-12.29,4.69-10.09,14.12,0,0,1.94,9.27,9.77,10.15,0,0-12.79,5.82-19.45-8.56Zm24.08,5.07s-5.11-1-6.85-8.29c0,0-1.63-6.65,4.53-9.84,0,0,9.6,11.31,2.32,18.13Zm15.63-25.78-3.59.88.25,3.75,3.59-.88-.28,14.4c-1.1,9.23-10.48,8.39-10.48,8.39,7.47-7,6.31-18.12,6.31-18.12-1.26-12.46-9.2-18.35-9.2-18.35,8-2.18,19.33-4.29,19.33-4.29-7.67,5.24-5.92,14.22-5.92,14.22Zm57.8-6.44c1.28-4.38,3.25-4.08,3.25-4.08,1.68.42,1.44,3,1.44,3-.23,4.09-2.76,4.56-2.76,4.56-3.12.65-1.93-3.45-1.93-3.45Z"/></svg>