<svg xmlns="http://www.w3.org/2000/svg" viewBox="0 0 250 250"><defs><style>.a{fill:#fdfdfd;}.b{fill:#c90303;}.c{fill:#faf6f6;}.d{fill:#fbf7f6;}.e{fill:#f8f4f3;}.f{fill:#fbf8f7;}</style></defs><title>Fast Casual</title><path class="a" d="M69.61,102.28c.22.11.29.12.32.16,2.27,3.38,4.74,6.62,6.91,10.07a19.33,19.33,0,0,0,4,4.3,1.45,1.45,0,0,0,2,.09,7.3,7.3,0,0,0,1.77-1.52c2.77-4,5.93-7.76,8.27-12.07a2.79,2.79,0,0,1,.8-1.14c0,.33,0,.55.05.77q.05,5,.1,10.07c0,2.09,0,4.17,0,6.26,0,.89.22,1.37,1.34,1.32,2.44-.12,4.89-.06,7.34,0,.66,0,.84-.24.89-.83.11-1.25-.16-2.47-.13-3.71.1-4.11.21-8.21.24-12.32,0-5.18-.65-10.35-.45-15.54,0-.65-.2-.87-.82-.87q-3.86,0-7.73,0a1.47,1.47,0,0,0-1.31.69c-1.3,1.83-2.66,3.62-3.85,5.53-2.28,3.64-4.3,7.44-6.71,11-.38.55-.51.7-1,.06a55.38,55.38,0,0,1-5.08-7.86A51.06,51.06,0,0,0,70.24,88a1.91,1.91,0,0,0-1.44-.7c-2.12-.06-4.24,0-6.36,0-1.11,0-1.5.43-1.58,1.44a65.36,65.36,0,0,0-.12,10.83,13.73,13.73,0,0,1,.11,1.95c-.36,6.06-.42,12.12-.4,18.19,0,.74.22.94.93.93q3.82-.05,7.63,0c.67,0,.91-.17.88-.87-.11-2.83-.37-5.66-.3-8.5S69.61,105.31,69.61,102.28ZM52.1,146.57c.33-.38.6-.74.91-1.06a8.62,8.62,0,0,0,2.63-7.3c-.38-3.84-2.15-6.56-5.71-7.86a15.92,15.92,0,0,0-6-1c-5.77.22-11.54.14-17.31.16-1,0-1.1.34-1.13,1.18-.15,3.69.34,7.35.39,11,0,2.32-.31,4.61-.26,6.93.09,4.17.07,8.35.05,12.52,0,1.15,0,1.24,1.25,1.29,5.67.24,11.35.05,17,0a53.71,53.71,0,0,0,6.84-.19c6.27-.85,8.54-7.52,5.36-12.33A11.24,11.24,0,0,0,52.1,146.57Zm132.69-42.05h.38c0,1,0,2,0,2.93.1,3.95,0,7.89-.21,11.83-.05.92.17,1.24,1.14,1.21,2.57-.07,5.15,0,7.73,0,.58,0,.8-.18.77-.79-.18-3.53.56-7,.46-10.55,0-.45.1-.73.65-.72,4.56.07,9.13-.16,13.69,0,.54,0,.63.26.66.71a34,34,0,0,1,0,3.81,62.68,62.68,0,0,0-.12,6.84c0,.35,0,.76.54.75,2.83-.06,5.67.19,8.5-.11.6-.06.85-.29.83-.92-.13-3.68.28-7.36,0-11-.1-1.33-.22-2.66-.21-4,.07-5.44-.18-10.89.21-16.33,0-.66-.06-1-.87-1q-4,.09-8,0c-.76,0-.92.24-.93.94-.06,3.61.18,7.23-.33,10.84-.1.74-.31.89-1,.89-4.17,0-8.35-.14-12.52.19-.93.07-1.07-.25-1.05-1.07.07-3.59-.09-7.17-.35-10.75-.06-.78-.27-1.14-1.16-1.11-2.67.08-5.35.09-8,.06-.81,0-1,.29-1,1,.08,1.24.14,2.47.15,3.71C184.8,96.11,184.79,100.31,184.79,104.52ZM157,151.66a30.53,30.53,0,0,0-.54-8.46c-.18-.87-.56-1.2-1.44-1.12a24.69,24.69,0,0,1-3.12.11c-3-.11-6.06-.18-9.09-.12-.78,0-1,.26-1,1a44.86,44.86,0,0,0-.06,6c.13,1,.49,1.42,1.43,1.45l3.42.1c.31,0,.64-.09.67.45a4.68,4.68,0,0,1-3.94,4.66,6.25,6.25,0,0,1-4.77-1.35,13.88,13.88,0,0,1-3.79-5.38,4.24,4.24,0,0,1-.36-2.1,14,14,0,0,1,1.89-6.58,3.3,3.3,0,0,1,1.66-1.56,29.51,29.51,0,0,1,7.82-1.93,23.42,23.42,0,0,1,9,1.23c.62.22,1.06.2,1.24-.54a28.88,28.88,0,0,0,.76-5.11,1.23,1.23,0,0,0-.89-1.33c-4.32-1.83-8.91-2.13-13.49-2.25a24.42,24.42,0,0,0-7.82,1.52,12.62,12.62,0,0,0-7.06,5.08,18,18,0,0,0-3,9.94,25.77,25.77,0,0,0,2.07,9.66,11.83,11.83,0,0,0,7.34,7.24,18,18,0,0,0,7.41.92,8.75,8.75,0,0,0,4.77-1.52,23.36,23.36,0,0,0,2.52-1.84c.34-.34.53-.26.73.11.38.68.78,1.35,1.14,2a1.66,1.66,0,0,0,1.44,1,23.16,23.16,0,0,0,3-.08c1.58,0,1.86-.28,1.81-1.83C156.7,157.9,156.78,154.78,157,151.66Zm8-65c-3.91-.54-7.4.59-10.95,1.23a2.16,2.16,0,0,0-1,.46,24.9,24.9,0,0,0-3,2.8,6.41,6.41,0,0,0-1.56,4.6c.17,4.14,2.46,6.88,5.93,8.72a45.77,45.77,0,0,0,11.68,4.34,4.68,4.68,0,0,1,2.43,1.19,1.43,1.43,0,0,1-.59,2.47,4.51,4.51,0,0,1-2,.15c-1.32-.2-2.65-.33-4-.4a16.49,16.49,0,0,1-5.83-1.12,34.15,34.15,0,0,0-5.66-1.77c-1.19-.29-1.23-.29-1.45.95-.31,1.73-.55,3.47-.84,5.21-.24,1.44-.24,1.5,1.05,2.07a36.47,36.47,0,0,0,13.38,3.58A31.89,31.89,0,0,0,173,119.74a8.66,8.66,0,0,0,6.64-7,8.28,8.28,0,0,0-3.13-8.65c-2.9-2.36-6.42-3.41-10-4.23a17,17,0,0,1-6.07-2.28c-.93-.64-.91-1.24,0-1.88a2.72,2.72,0,0,1,1-.38,13.06,13.06,0,0,1,4-.11,56.19,56.19,0,0,1,10.33,2,1.13,1.13,0,0,0,1.62-.83,19.58,19.58,0,0,0,.88-5.27c.06-.7-.11-1-.68-1.29C173.46,88.06,169.38,86.21,165,86.7ZM39.82,86.63a26,26,0,0,0-6.31.72,13,13,0,0,0-6.51,3c-3,2.71-2.89,7.62-1.13,10.31A11.54,11.54,0,0,0,32.18,105c3.73,1.27,7.43,2.58,11,4.16a4.61,4.61,0,0,1,1.33.8c.64.6.63,1.07-.09,1.59a5.15,5.15,0,0,1-2.69.77c-5.15.47-9.9-1.14-14.63-2.83-1.39-.5-1.52-.5-2,.88A40.81,40.81,0,0,0,24,115.93a1.22,1.22,0,0,0,.67,1.3,19,19,0,0,0,3.24,1.8,31.2,31.2,0,0,0,17,2.08c4.26-.63,7.53-2.44,9.65-6.25,1.36-2.44,1-7.08-.86-9.16a15.1,15.1,0,0,0-5.34-3.87,54.91,54.91,0,0,0-10.1-3.21,5.77,5.77,0,0,1-2.2-1c-.94-.69-.9-1.17.19-1.65a9,9,0,0,1,5.15-.73,58.21,58.21,0,0,1,11.25,2.39c.61.23,1,0,1.13-.64a33.39,33.39,0,0,0,.53-3.57c.45-3.43.38-3.53-2.84-4.95C47.71,86.81,43.72,87,39.82,86.63Zm86.65.55v.07c-1.6,0-3.2,0-4.8,0a1.29,1.29,0,0,0-1.38.82c-.87,1.82-1.8,3.61-2.62,5.45-2.12,4.72-3.69,9.65-5.47,14.5-1.41,3.84-2.87,7.67-4.29,11.51-.38,1-.3,1.12.79,1.12l8.22,0c.36,0,.65-.06.76-.45a34.1,34.1,0,0,0,1.32-4.08c.09-.53.31-.59.76-.61,4.11-.21,8.21.27,12.31,0,.54,0,.76.19.82.7a20.78,20.78,0,0,0,1.13,3.63.92.92,0,0,0,.91.75l9.2-.07c.42,0,.59-.11.43-.59-.78-2.37-1.24-4.84-2.38-7.11a22.43,22.43,0,0,1-1.77-4.32c-1-3.7-2-7.38-3.36-11A54.75,54.75,0,0,0,132.57,88a1.53,1.53,0,0,0-1.51-.83C129.53,87.22,128,87.18,126.47,87.18Zm52.83,50.24c3,0,5.64,0,8.28,0,.54,0,.89-.1.93-.69.11-1.46.32-2.92.3-4.38,0-2.94-.07-3-3-2.94l-22.6.14c-1.27,0-1.32,0-1.28,1.3.12,4.37.4,8.74.17,13.1-.31,5.83-.32,11.66-.17,17.49,0,.51-.12,1,.74,1,8.67.37,17.34,0,26,.19.63,0,.86-.18.84-.83-.06-2.09-.09-4.17-.08-6.26,0-.63-.25-.9-.83-.92-1.17,0-2.35-.14-3.52-.08-4.4.23-8.8.26-13.2.27-.72,0-1.08-.15-1-1s.05-1.82,0-2.74c0-.43.11-.67.6-.64.94.05,1.89.06,2.83.11,3.58.2,7.17.09,10.75.05.22,0,.45-.09.67-.11a.43.43,0,0,0,.45-.5,36.12,36.12,0,0,0-.39-7c-.07-.32-.13-.57-.52-.54-2.38.19-4.76-.42-7.13-.14-2.16.26-4.3-.18-6.45,0-.38,0-.6-.11-.59-.56,0-1.24,0-2.48,0-3.72,0-.41.11-.59.56-.57C174.31,137.68,177,137.18,179.29,137.42Zm37.2,11.77a7,7,0,0,0,3.95-4.08c.36-1,.65-2,.91-3a9.55,9.55,0,0,0-5.18-10.72A28.21,28.21,0,0,0,211.3,130a40.2,40.2,0,0,0-8.87-.41c-2.77.06-5.53-.21-8.31,0-1,.06-1.1.47-1,1.3.11,1.72.3,3.43.29,5.17,0,3.95-.26,7.88-.31,11.82s.2,7.82-.06,11.73c-.05.81,0,1.63,0,2.45,0,.38.09.64.54.62,2.7-.14,5.41.13,8.11-.11.41,0,.59-.19.58-.59s0-.79,0-1.17a66.28,66.28,0,0,1-.19-6.94c0-.33-.13-.74.47-.74a22.4,22.4,0,0,1,7,.74,4.07,4.07,0,0,1,3.12,4.38c0,1.17,0,2.35,0,3.52,0,.55.18.77.78.83a53.86,53.86,0,0,0,7.72,0c.37,0,.52-.13.51-.51,0-1.4.06-2.82-.11-4.2A11.44,11.44,0,0,0,216.49,149.19Zm-100.22-.3a10.08,10.08,0,0,0-1.13-18.54c-2.51-.82-5.1-.52-7.65-.76-4.2-.4-8.41,0-12.61,0-1,0-1.29.45-1.31,1.3,0,.26,0,.52,0,.78-.08,2.58.36,5.15.3,7.71-.11,5.09.07,10.17-.12,15.26a51,51,0,0,0,0,7c.07.72.26.92,1,.91,2.28,0,4.56,0,6.84.06,1.25,0,1.26.08,1.27-1.2,0-2.51.06-5,.12-7.53,0-.31-.12-.78.46-.78,2.41,0,4.83,0,7.09,1a3.68,3.68,0,0,1,2.41,3.66c0,1.34.07,2.67.06,4,0,.53.17.7.71.77a53.34,53.34,0,0,0,7.82,0c.37,0,.51-.15.5-.53a27,27,0,0,0-.28-5.16A11.15,11.15,0,0,0,116.27,148.89Zm-27.11-9.22c0-3.4,0-6.33,0-9.27,0-.68-.22-.86-.89-.88-2.54-.08-5.09-.07-7.63,0-.87,0-1.16.22-1.14,1.14.15,5,.16,10-.06,15a19.48,19.48,0,0,1-1.18,5.91,3.93,3.93,0,0,1-3.68,2.71,4.64,4.64,0,0,1-4.84-4.6c-.29-4.06-.38-8.13-.48-12.2-.06-2.35.29-4.69.17-7,0-.35.14-.82-.52-.83-2.8,0-5.61-.09-8.41-.13-.33,0-.68,0-.67.48,0,2.38-.53,4.74-.28,7.12a23.37,23.37,0,0,1,.14,3.32,41.32,41.32,0,0,0,2.12,15.48,10.3,10.3,0,0,0,7.45,6.81c4.57,1.27,9,.31,13.35-1.35a1.9,1.9,0,0,0,.64-.44,16.38,16.38,0,0,0,4.08-6C89.15,149.77,88.95,144.47,89.16,139.67Z"/><path class="b" d="M69.61,102.28c0,3,.06,6,0,8.94s.19,5.67.3,8.5c0,.7-.21.88-.88.87q-3.82-.05-7.63,0c-.72,0-.93-.19-.93-.93,0-6.07,0-12.13.4-18.19a13.73,13.73,0,0,0-.11-1.95,65.36,65.36,0,0,1,.12-10.83c.08-1,.47-1.45,1.58-1.44,2.12,0,4.24,0,6.36,0a1.91,1.91,0,0,1,1.44.7,51.06,51.06,0,0,1,6.2,8.75,55.38,55.38,0,0,0,5.08,7.86c.54.63.67.49,1-.06C85,101,87,97.18,89.28,93.54c1.19-1.91,2.55-3.7,3.85-5.53a1.47,1.47,0,0,1,1.31-.69q3.86,0,7.73,0c.62,0,.84.22.82.87-.2,5.19.48,10.36.45,15.54,0,4.11-.14,8.22-.24,12.32,0,1.24.24,2.47.13,3.71-.05.58-.23.84-.89.83-2.45,0-4.9-.1-7.34,0-1.12.05-1.33-.43-1.34-1.32,0-2.09,0-4.17,0-6.26q0-5-.1-10.07c0-.22,0-.44-.05-.77a2.79,2.79,0,0,0-.8,1.14c-2.33,4.31-5.5,8.06-8.27,12.07a7.3,7.3,0,0,1-1.77,1.52,1.45,1.45,0,0,1-2-.09,19.33,19.33,0,0,1-4-4.3c-2.17-3.45-4.64-6.69-6.91-10.07C69.91,102.4,69.84,102.39,69.61,102.28Z"/><path class="b" d="M52.1,146.57a11.24,11.24,0,0,1,4,3.4c3.17,4.81.91,11.47-5.36,12.33a53.71,53.71,0,0,1-6.84.19c-5.67,0-11.35.23-17,0-1.2,0-1.25-.14-1.25-1.29,0-4.17,0-8.35-.05-12.52-.05-2.32.3-4.61.26-6.93-.05-3.68-.54-7.34-.39-11,0-.84.17-1.17,1.13-1.18,5.77,0,11.54.05,17.31-.16a15.92,15.92,0,0,1,6,1c3.56,1.31,5.33,4,5.71,7.86a8.62,8.62,0,0,1-2.63,7.3C52.71,145.84,52.43,146.19,52.1,146.57Zm-11.18-3.44a18.17,18.17,0,0,0,3.71-.2c1-.31,2.05-.79,2.32-2a3.39,3.39,0,0,0-3.39-4.39c-2.7-.07-5.41,0-8.11-.07-.66,0-.84.21-.81.84.1,1.66.19,3.32.18,5,0,.82.33,1,1,1A48.12,48.12,0,0,1,40.93,143.13Zm-1.18,12.34a33.23,33.23,0,0,0,6.11,0,2.55,2.55,0,0,0,1.33-4.62A5.14,5.14,0,0,0,44,150c-2.84-.07-5.66.3-8.49.31-.5,0-.68.13-.65.67.05,1.27.07,2.54,0,3.81,0,.65.22.75.78.74C37,155.45,38.41,155.47,39.75,155.47Z"/><path class="b" d="M184.79,104.52c0-4.21,0-8.41,0-12.62,0-1.24-.07-2.48-.15-3.71,0-.73.16-1,1-1,2.67,0,5.35,0,8-.06.89,0,1.1.33,1.16,1.11.26,3.58.43,7.16.35,10.75,0,.81.12,1.14,1.05,1.07,4.17-.33,8.34-.21,12.52-.19.67,0,.88-.15,1-.89.5-3.61.26-7.23.33-10.84,0-.7.17-1,.93-.94q4,.06,8,0c.81,0,.92.34.87,1-.39,5.44-.14,10.89-.21,16.33,0,1.34.1,2.67.21,4,.28,3.68-.12,7.36,0,11,0,.63-.23.86-.83.92-2.83.3-5.67.06-8.5.11-.54,0-.52-.39-.54-.75a62.68,62.68,0,0,1,.12-6.84,34,34,0,0,0,0-3.81c0-.46-.13-.69-.66-.71-4.56-.18-9.13.05-13.69,0-.55,0-.66.27-.65.72.1,3.53-.63,7-.46,10.55,0,.61-.19.79-.77.79-2.58,0-5.15-.05-7.73,0-1,0-1.19-.3-1.14-1.21.22-3.94.31-7.89.21-11.83,0-1,0-2,0-2.93Z"/><path class="b" d="M157,151.66c-.2,3.12-.28,6.25-.18,9.38,0,1.55-.23,1.78-1.81,1.83a23.16,23.16,0,0,1-3,.08,1.66,1.66,0,0,1-1.44-1c-.37-.69-.77-1.36-1.14-2-.2-.37-.39-.45-.73-.11a23.36,23.36,0,0,1-2.52,1.84,8.75,8.75,0,0,1-4.77,1.52,18,18,0,0,1-7.41-.92,11.83,11.83,0,0,1-7.34-7.24,25.77,25.77,0,0,1-2.07-9.66,18,18,0,0,1,3-9.94,12.62,12.62,0,0,1,7.06-5.08,24.42,24.42,0,0,1,7.82-1.52c4.59.12,9.17.42,13.49,2.25a1.23,1.23,0,0,1,.89,1.33,28.88,28.88,0,0,1-.76,5.11c-.18.75-.62.76-1.24.54a23.42,23.42,0,0,0-9-1.23,29.51,29.51,0,0,0-7.82,1.93,3.3,3.3,0,0,0-1.66,1.56,14,14,0,0,0-1.89,6.58,4.24,4.24,0,0,0,.36,2.1,13.88,13.88,0,0,0,3.79,5.38,6.25,6.25,0,0,0,4.77,1.35,4.68,4.68,0,0,0,3.94-4.66c0-.53-.36-.44-.67-.45l-3.42-.1c-.94,0-1.3-.48-1.43-1.45a44.86,44.86,0,0,1,.06-6c0-.73.26-1,1-1,3-.06,6.06,0,9.09.12a24.69,24.69,0,0,0,3.12-.11c.89-.08,1.26.25,1.44,1.12A30.53,30.53,0,0,1,157,151.66Z"/><path class="b" d="M165,86.7c4.42-.49,8.5,1.36,12.6,3.14.58.25.75.59.68,1.29a19.58,19.58,0,0,1-.88,5.27,1.13,1.13,0,0,1-1.62.83,56.19,56.19,0,0,0-10.33-2,13.06,13.06,0,0,0-4,.11,2.72,2.72,0,0,0-1,.38c-.93.63-.95,1.23,0,1.88a17,17,0,0,0,6.07,2.28c3.56.82,7.08,1.87,10,4.23a8.28,8.28,0,0,1,3.13,8.65,8.66,8.66,0,0,1-6.64,7,31.89,31.89,0,0,1-10.36,1.44,36.47,36.47,0,0,1-13.38-3.58c-1.29-.57-1.3-.64-1.05-2.07.29-1.73.53-3.48.84-5.21.22-1.23.26-1.24,1.45-.95a34.15,34.15,0,0,1,5.66,1.77,16.49,16.49,0,0,0,5.83,1.12c1.34.07,2.66.2,4,.4a4.51,4.51,0,0,0,2-.15,1.43,1.43,0,0,0,.59-2.47,4.68,4.68,0,0,0-2.43-1.19,45.77,45.77,0,0,1-11.68-4.34c-3.48-1.85-5.76-4.58-5.93-8.72a6.41,6.41,0,0,1,1.56-4.6,24.9,24.9,0,0,1,3-2.8,2.16,2.16,0,0,1,1-.46C157.56,87.28,161,86.16,165,86.7Z"/><path class="b" d="M39.82,86.63c3.9.37,7.89.18,11.61,1.81,3.22,1.42,3.29,1.52,2.84,4.95A33.39,33.39,0,0,1,53.73,97c-.16.67-.51.87-1.13.64a58.21,58.21,0,0,0-11.25-2.39,9,9,0,0,0-5.15.73c-1.09.48-1.13,1-.19,1.65a5.77,5.77,0,0,0,2.2,1,54.91,54.91,0,0,1,10.1,3.21,15.1,15.1,0,0,1,5.34,3.87c1.87,2.07,2.21,6.72.86,9.16-2.12,3.81-5.39,5.62-9.65,6.25a31.2,31.2,0,0,1-17-2.08,19,19,0,0,1-3.24-1.8,1.22,1.22,0,0,1-.67-1.3,40.81,40.81,0,0,1,1.16-5.53c.5-1.38.63-1.38,2-.88,4.73,1.69,9.48,3.3,14.63,2.83a5.15,5.15,0,0,0,2.69-.77c.72-.52.74-1,.09-1.59a4.61,4.61,0,0,0-1.33-.8c-3.61-1.58-7.31-2.89-11-4.16a11.54,11.54,0,0,1-6.32-4.36C24.11,98,24,93.07,27,90.37a13,13,0,0,1,6.51-3A26,26,0,0,1,39.82,86.63Z"/><path class="b" d="M126.47,87.18c1.53,0,3.07,0,4.6,0a1.53,1.53,0,0,1,1.51.83,54.75,54.75,0,0,1,4.48,9.51c1.34,3.6,2.38,7.28,3.36,11a22.43,22.43,0,0,0,1.77,4.32c1.14,2.26,1.59,4.73,2.38,7.11.16.48,0,.58-.43.59l-9.2.07a.92.92,0,0,1-.91-.75,20.78,20.78,0,0,1-1.13-3.63c-.05-.51-.27-.73-.82-.7-4.1.23-8.21-.26-12.31,0-.45,0-.67.08-.76.61a34.1,34.1,0,0,1-1.32,4.08c-.12.39-.41.44-.76.45l-8.22,0c-1.09,0-1.16-.1-.79-1.12,1.43-3.84,2.88-7.66,4.29-11.51,1.78-4.85,3.35-9.78,5.47-14.5.83-1.84,1.76-3.63,2.62-5.45a1.29,1.29,0,0,1,1.38-.82c1.6.06,3.2,0,4.8,0Zm3.69,20.29A38.58,38.58,0,0,0,126,97c-1.29,3.49-3.28,6.64-4.41,10.27C124.49,107.18,127.28,107.31,130.15,107.47Z"/><path class="b" d="M179.29,137.42c-2.32-.24-5,.26-7.66.12-.44,0-.56.16-.56.57,0,1.24,0,2.48,0,3.72,0,.45.21.59.59.56,2.15-.19,4.28.25,6.45,0,2.37-.28,4.74.33,7.13.14.39,0,.46.22.52.54a36.12,36.12,0,0,1,.39,7,.43.43,0,0,1-.45.5c-.23,0-.45.11-.67.11-3.58,0-7.17.15-10.75-.05-.94-.05-1.89-.06-2.83-.11-.49,0-.6.21-.6.64,0,.91,0,1.83,0,2.74s.28,1,1,1c4.4,0,8.8,0,13.2-.27,1.17-.06,2.35,0,3.52.08.58,0,.83.28.83.92,0,2.09,0,4.17.08,6.26,0,.65-.21.85-.84.83-8.67-.23-17.34.18-26-.19-.85,0-.72-.54-.74-1-.16-5.83-.14-11.66.17-17.49.23-4.36,0-8.73-.17-13.1,0-1.3,0-1.29,1.28-1.3l22.6-.14c3,0,3,0,3,2.94,0,1.46-.19,2.92-.3,4.38,0,.59-.39.7-.93.69C184.93,137.41,182.29,137.42,179.29,137.42Z"/><path class="b" d="M216.49,149.19a11.44,11.44,0,0,1,5,8.59c.18,1.38.07,2.8.11,4.2,0,.38-.14.5-.51.51a53.86,53.86,0,0,1-7.72,0c-.6-.07-.78-.29-.78-.83,0-1.17,0-2.35,0-3.52a4.07,4.07,0,0,0-3.12-4.38,22.4,22.4,0,0,0-7-.74c-.61,0-.48.41-.47.74a66.28,66.28,0,0,0,.19,6.94c0,.39,0,.78,0,1.17s-.17.56-.58.59c-2.7.24-5.41,0-8.11.11-.45,0-.54-.24-.54-.62,0-.82,0-1.63,0-2.45.26-3.91,0-7.82.06-11.73s.3-7.88.31-11.82c0-1.74-.18-3.45-.29-5.17-.05-.82.07-1.23,1-1.3,2.77-.18,5.54.09,8.31,0a40.2,40.2,0,0,1,8.87.41,28.21,28.21,0,0,1,4.86,1.44,9.55,9.55,0,0,1,5.18,10.72c-.26,1-.55,2-.91,3A7,7,0,0,1,216.49,149.19Zm-14.56-7.94H202c0,1.3,0,2.61,0,3.91,0,.51.15.7.67.66a31.56,31.56,0,0,0,6.83-1c1.44-.43,2.94-1.2,3.28-3,.56-2.94-1-4.92-4.08-5.12a47.07,47.07,0,0,0-6.15.15c-.54,0-.63.26-.62.73C202,138.78,201.94,140,201.94,141.25Z"/><path class="b" d="M116.27,148.89a11.15,11.15,0,0,1,5.39,7.91,27,27,0,0,1,.28,5.16c0,.38-.13.52-.5.53a53.34,53.34,0,0,1-7.82,0c-.54-.07-.71-.23-.71-.77,0-1.34-.09-2.67-.06-4a3.68,3.68,0,0,0-2.41-3.66c-2.25-1-4.68-1-7.09-1-.59,0-.46.47-.46.78-.05,2.51-.08,5-.12,7.53,0,1.28,0,1.23-1.27,1.2-2.28-.06-4.56-.09-6.84-.06-.71,0-.9-.19-1-.91a51,51,0,0,1,0-7c.18-5.08,0-10.17.12-15.26.06-2.56-.38-5.13-.3-7.71,0-.26,0-.52,0-.78,0-.85.26-1.32,1.31-1.3,4.2.08,8.41-.35,12.61,0,2.55.24,5.14-.06,7.65.76a10.08,10.08,0,0,1,1.13,18.54ZM103,142.43c0,1,0,2.09,0,3.12,0,.63.15.89.81.83,1.3-.12,2.59-.21,3.89-.3a7.08,7.08,0,0,0,4.77-2.39c1.92-2.08.7-5.91-2-6.38a38.78,38.78,0,0,0-6.21-.62c-.68,0-.89.24-1,.87A37.55,37.55,0,0,0,103,142.43Z"/><path class="b" d="M89.16,139.67c-.22,4.8,0,10.1-1.82,15.18a16.38,16.38,0,0,1-4.08,6,1.9,1.9,0,0,1-.64.44c-4.33,1.65-8.79,2.61-13.35,1.35a10.3,10.3,0,0,1-7.45-6.81,41.32,41.32,0,0,1-2.12-15.48,23.37,23.37,0,0,0-.14-3.32c-.24-2.38.32-4.74.28-7.12,0-.49.35-.49.67-.48,2.8,0,5.61.1,8.41.13.66,0,.5.48.52.83.12,2.35-.23,4.69-.17,7,.11,4.07.2,8.14.48,12.2a4.64,4.64,0,0,0,4.84,4.6,3.93,3.93,0,0,0,3.68-2.71,19.48,19.48,0,0,0,1.18-5.91c.21-5,.2-10,.06-15,0-.92.27-1.13,1.14-1.14,2.54,0,5.09-.06,7.63,0,.67,0,.9.2.89.88C89.15,133.34,89.16,136.27,89.16,139.67Z"/><path class="c" d="M40.93,143.13a48.12,48.12,0,0,0-5.07.15c-.71,0-1-.16-1-1,0-1.66-.09-3.32-.18-5,0-.63.15-.85.81-.84,2.7,0,5.41,0,8.11.07A3.39,3.39,0,0,1,47,140.94c-.27,1.2-1.28,1.68-2.32,2A18.17,18.17,0,0,1,40.93,143.13Z"/><path class="d" d="M39.75,155.47c-1.34,0-2.75,0-4.15,0-.56,0-.81-.09-.78-.74.06-1.27,0-2.54,0-3.81,0-.54.16-.66.65-.67,2.83,0,5.66-.39,8.49-.31a5.14,5.14,0,0,1,3.23.86,2.55,2.55,0,0,1-1.33,4.62A33.23,33.23,0,0,1,39.75,155.47Z"/><path class="e" d="M130.15,107.47c-2.87-.17-5.66-.3-8.53-.2,1.13-3.63,3.11-6.79,4.41-10.27A38.58,38.58,0,0,1,130.15,107.47Z"/><path class="f" d="M201.94,141.25c0-1.24,0-2.48,0-3.71,0-.47.08-.7.62-.73a47.07,47.07,0,0,1,6.15-.15c3.07.2,4.64,2.19,4.08,5.12-.34,1.8-1.84,2.56-3.28,3a31.56,31.56,0,0,1-6.83,1c-.52,0-.68-.15-.67-.66,0-1.3,0-2.61,0-3.91Z"/><path class="f" d="M103,142.43a37.55,37.55,0,0,1,.22-4.87c.09-.63.3-.88,1-.87a38.78,38.78,0,0,1,6.21.62c2.74.47,4,4.3,2,6.38a7.08,7.08,0,0,1-4.77,2.39c-1.3.09-2.6.18-3.89.3-.66.06-.84-.2-.81-.83C103,144.51,103,143.47,103,142.43Z"/><path class="b" d="M224.93,160.16a1.42,1.42,0,0,1,.56.55,1.54,1.54,0,0,1,.22.81,1.52,1.52,0,0,1-.44,1.09,1.44,1.44,0,0,1-2.1,0,1.52,1.52,0,0,1-.44-1.09,1.53,1.53,0,0,1,.42-1.08,1.44,1.44,0,0,1,1.76-.28m-1.55-.34a1.76,1.76,0,0,0-.72.68,1.93,1.93,0,0,0-.29,1,1.9,1.9,0,0,0,.54,1.36,1.81,1.81,0,0,0,2.62,0,2,2,0,0,0,0-2.7,1.78,1.78,0,0,0-1.36-.57,1.83,1.83,0,0,0-.8.21m.43,2.73v-.84h.1a.39.39,0,0,1,.29.11,1.58,1.58,0,0,1,.26.4l.16.33h.49l-.23-.41a2.4,2.4,0,0,0-.23-.35.49.49,0,0,0-.19-.13.69.69,0,0,0,.4-.19.53.53,0,0,0,.13-.37.6.6,0,0,0-.15-.41.68.68,0,0,0-.51-.17h-.93v2Zm0-1.71h.36a.51.51,0,0,1,.3.07.22.22,0,0,1,.1.2.23.23,0,0,1-.1.22.65.65,0,0,1-.34.06h-.32Z"/></svg>