<svg xmlns="http://www.w3.org/2000/svg" viewBox="0 0 250 250"><defs><style>.a{fill:#06704b;}</style></defs><title>Fast Food</title><polyline class="a" points="182.23 212.95 184.27 218.19 184.27 218.19"/><path class="a" d="M134.59,71.41h0a59,59,0,0,0-9.61-.83,57.86,57.86,0,0,0-9.57.83c-.49.07-.68-.38-.3-.64L125,63.24s9.58,7.27,9.88,7.53S135,71.49,134.59,71.41Zm-16.51,47.13h0a1.07,1.07,0,0,0-.64.64c2,1.54,3.36,5,7.54,5s5.58-3.5,7.58-5a1.18,1.18,0,0,0-.64-.64,32.28,32.28,0,0,1-6.94.64A31.68,31.68,0,0,1,118.08,118.54Zm6.9-5.87h0c-1.17,0-1.39-.42-2.19-.42a4.14,4.14,0,0,0-2.56,1.13,1.38,1.38,0,0,0,.34.75c1.69.27,2.45,1.2,4.41,1.2s2.71-.94,4.41-1.2a1.18,1.18,0,0,0,.34-.75,4,4,0,0,0-2.53-1.13C126.41,112.26,126.15,112.67,125,112.67Zm95.21,18h0c-.11,2.3-.34,4.56-.6,6.78-10.78,1.81-14.66-7.83-25.7-7.34a64.36,64.36,0,0,1,1.58,7.19c9.12,0,12.81,8.51,23,7.23-.53,2.6-1.17,5.19-1.92,7.72-8,.79-10.86-7.19-20.13-7,.07,1.32.11,2.63.11,4,0,.75,0,1.51,0,2.22,7.91-.08,10.48,7.23,18,6.88a75.33,75.33,0,0,1-3.13,7.49c-5.43-.26-7.28-7.23-15.53-6.66-.26,1.77-.56,3.54-.94,5.27,7.16-.49,8.71,6.1,13.83,6.62-1.32,2.37-2.71,4.71-4.22,6.93-3-1.62-5.65-6.51-11.42-6.82.56-1.81,1.09-3.69,1.54-5.53a23.85,23.85,0,0,1-15.87-6.47c1.58-9-12.44-18.22-12.44-24.84,0-7.19,3.66-11.15,3.66-20.86,0-7.15-3.51-15-8.78-20.29a16.82,16.82,0,0,0-3.28-2.64c4.86,6,8.56,13.1,8.56,21.31,0,9.11-4.22,13.93-4.22,22.36s12.32,15.7,12.32,24.35c0,3.43-1.09,6.78-4.71,13.33,5.54,5.53,12.74,8.54,17.41,8.54a2.74,2.74,0,0,0,2.87-1.66c.45-1,.9-2.07,1.32-3.09,5,.19,7.32,4.74,10.06,6.55-1.51,2-3.13,4-4.79,5.91-1.84-2.07-4.37-5.5-8-6.47-.64,1.28-1.32,2.52-2.08,3.76,3.17.83,5.32,4,7,6.1a75.83,75.83,0,0,1-5.62,5.35,17.93,17.93,0,0,0-5.24-5.57c-.75,1.05-1.58,2.11-2.41,3.12a16.24,16.24,0,0,1,4.41,5.19c-2.23,1.81-4.56,3.5-7,5.12-1.21-9.67-14.4-16.3-10.86-27.52-1.17,2-2.56,4.44-2.56,7.42,0,8.13,8.67,14.57,9.35,22.66-1.77,1.05-3.62,2.07-5.51,3-.3-8.85-9.46-18.56-9.46-25.86,0-8.13,10.67-16.3,10.67-25.9s-12.33-16.22-12.33-24.65,5.24-13.29,5.24-24.05a28.9,28.9,0,0,0-9.57-21,16.28,16.28,0,0,0-3.24-2.26c5.46,6.55,8.63,12.54,8.63,21.57,0,10.16-6,15.77-6,25.71s12.06,15.47,12.06,24.73-11.23,17.09-11.23,26.62c0,8.66,9.91,17.32,10.06,27.59-2.15.94-4.38,1.81-6.64,2.6,1.28-10.39-9.87-21.12-9.87-29.59,0-9.26,11.65-17.2,11.65-27.22s-11.84-14.6-11.84-24.88,7.27-15.92,7.27-27.21a27.54,27.54,0,0,0-10.74-21.68l-.41-.34c-.6-.41-1.1.12-.64.64a29.15,29.15,0,0,1,6.9,19.73c0,10.39-8.33,18.78-8.33,28.83,0,11.82,11.19,15.2,11.19,24.91s-12,17.51-12,27.82c0,9.56,11.38,20.18,9.42,31.24-2.26.56-4.6,1.09-6.93,1.51,2.15-13.74-9-23.64-9-32.6,0-9.75,12.44-18.45,12.44-28,0-9-8.93-11.89-10.1-21.08a2.16,2.16,0,0,0-2.56-2c-1.81.34-4.15,1.54-7.8,1.54s-6-1.2-7.8-1.54a2.2,2.2,0,0,0-2.56,2c-1.17,9.18-10.1,12.12-10.1,21.08,0,9.52,12.48,18.22,12.48,28,0,9-11.19,18.86-9,32.6-2.34-.41-4.67-.94-6.93-1.51-2-11.07,9.43-21.68,9.43-31.24,0-10.31-12-18.07-12-27.82s11.23-13.1,11.23-24.91c0-10.05-8.37-18.45-8.37-28.83a29,29,0,0,1,6.93-19.73c.41-.53-.07-1.05-.68-.64l-.42.34A27.55,27.55,0,0,0,96.37,106.5c0,11.29,7.27,17,7.27,27.21s-11.83,14.91-11.83,24.88,11.65,18,11.65,27.22c0,8.47-11.16,19.2-9.88,29.59-2.26-.79-4.45-1.66-6.63-2.6C87.1,202.53,97,193.87,97,185.21c0-9.52-11.23-17.32-11.23-26.62s12.06-14.79,12.06-24.73-6-15.55-6-25.71c0-9,3.17-15,8.67-21.57a16.43,16.43,0,0,0-3.28,2.26,28.9,28.9,0,0,0-9.58,21c0,10.76,5.24,15.62,5.24,24.05S80.62,149,80.62,158.59s10.67,17.77,10.67,25.9c0,7.3-9.2,17-9.5,25.86-1.88-.94-3.69-2-5.5-3,.68-8.09,9.34-14.53,9.34-22.66,0-3-1.39-5.46-2.56-7.42,3.58,11.22-9.65,17.84-10.85,27.52-2.38-1.62-4.71-3.31-7-5.12a16.35,16.35,0,0,1,4.45-5.19c-.87-1-1.66-2.07-2.45-3.12A18.41,18.41,0,0,0,62,196.92c-1.92-1.69-3.81-3.46-5.62-5.35,1.66-2.07,3.84-5.27,7-6.1-.72-1.24-1.43-2.48-2.07-3.76-3.66,1-6.14,4.4-8,6.47-1.66-1.92-3.28-3.88-4.79-5.91,2.79-1.81,5.09-6.36,10.1-6.55.41,1,.83,2.07,1.32,3.09a2.68,2.68,0,0,0,2.86,1.66c4.64,0,11.83-3,17.38-8.54-3.58-6.55-4.67-9.9-4.67-13.33,0-8.66,12.32-16,12.32-24.35S83.52,121,83.52,111.88c0-8.2,3.73-15.32,8.56-21.31a17.07,17.07,0,0,0-3.28,2.64c-5.23,5.3-8.74,13.14-8.74,20.29,0,9.71,3.62,13.66,3.62,20.86,0,6.62-14,15.81-12.43,24.84a23.86,23.86,0,0,1-15.87,6.47c.45,1.84,1,3.72,1.55,5.53-5.73.3-8.37,5.2-11.42,6.82-1.51-2.22-2.9-4.55-4.22-6.93,5.13-.53,6.67-7.11,13.83-6.62-.38-1.73-.68-3.5-.94-5.27-8.22-.57-10.1,6.4-15.53,6.66-1.13-2.44-2.19-4.93-3.13-7.49,7.54.34,10.1-7,18-6.88,0-.72,0-1.47,0-2.22,0-1.35,0-2.67.11-4-9.27-.23-12.1,7.75-20.13,7-.72-2.52-1.36-5.12-1.92-7.72,10.14,1.28,13.83-7.27,23-7.23a64.17,64.17,0,0,1,1.62-7.19c-11.08-.49-14.93,9.15-25.71,7.34-.3-2.22-.49-4.48-.6-6.78,12.51,1.43,17.22-8.88,28.64-7.6a69.08,69.08,0,0,1,3.73-7.9c-14.32-2.52-19.18,9.45-32.49,7.6a95.34,95.34,0,0,1,190.61,0c-13.34,1.85-18.21-10.13-32.53-7.6a62.88,62.88,0,0,1,3.73,7.9C202.92,121.78,207.64,132.1,220.19,130.66ZM84,90.76h0a24.79,24.79,0,0,0-22.77,2.45,24.9,24.9,0,0,0-10-16.38.86.86,0,0,0-1.4.83c1.09,14.27-7.24,26.61-17.49,37.49,10.55,3.16,19.56-10.43,33.28-5.69A71.17,71.17,0,0,1,84,90.76Zm41-8.62h0c-8.86,0-16.24,5-18.2,11.45-.15.49.08.83.64.56a13,13,0,0,1,5.36-1.05,11,11,0,0,1,8.67,3.61c.83,2.75.9,6.7,0,9-1.47-.34-2-1.51-3.47-1.51s-2.56,1-5,1-2.75-1.13-4.38-1.13c-1.92,0-2.26,2-2.26,4.15,0,9.86,9,23.41,18.7,23.41s18.7-13.55,18.7-23.41c0-2.18-.45-4.1-2.41-4.37a6.08,6.08,0,0,1-4.19,1.36c-2.49,0-3.17-1-4.6-1-1.73,0-1.58,3.69-3.66,3.91a17.37,17.37,0,0,1-.3-11.41,11.07,11.07,0,0,1,8.67-3.61,13.17,13.17,0,0,1,5.39,1.05c.56.27.75-.07.6-.56C141.26,87.11,133.84,82.14,125,82.14Zm14.1,14.12h0a8.32,8.32,0,0,0-6.18,2.41,2.4,2.4,0,0,0,.08,1.62c3.84-1.32,7.23-1.36,8.89.49A2.93,2.93,0,0,0,143,98.44C143,97.16,141.71,96.26,139.08,96.26Zm-30.94,4.52h0c1.85-1.88,5.77-1.81,9.84-.3.15-2-3.47-4.22-7.08-4.22-2.6,0-3.92.9-3.92,2.18A3,3,0,0,0,108.13,100.77Zm61-33.35h0a31.55,31.55,0,0,0-18,6.89,71.24,71.24,0,0,1,8.1-16.07c-8.9.94-16.36,4.17-21.79,9.75l-4.22-11.15,9.43-8.32L130,47.66,125,35.92l-5,11.75-12.63.86,9.46,8.32L112.5,68c-5.43-5.58-12.85-8.81-21.75-9.75a71.33,71.33,0,0,1,8.06,16.07,31.46,31.46,0,0,0-18-6.89A83,83,0,0,1,91.51,84.7a1.13,1.13,0,0,0,1.69.57,71.77,71.77,0,0,1,63.55,0,1.13,1.13,0,0,0,1.7-.57A84.51,84.51,0,0,1,169.12,67.42Zm15.26,42h0c13.68-4.74,22.69,8.85,33.28,5.69C207.41,104.28,199,91.93,200.18,77.67a.89.89,0,0,0-1.43-.83,25,25,0,0,0-10,16.38A24.8,24.8,0,0,0,166,90.76,72.32,72.32,0,0,1,184.38,109.47Z"/><polygon class="a" points="177.6 219.76 177.6 219.76 176.65 219.76 176.65 213.78 174.47 213.78 174.47 212.95 179.82 212.95 179.82 213.78 177.6 213.78 177.6 219.76"/><polygon class="a" points="184.27 218.19 184.27 218.19 186.3 212.95 187.81 212.95 187.81 219.76 186.83 219.76 186.83 214.08 184.53 219.76 183.93 219.76 181.67 214.08 181.67 219.76 180.73 219.76 180.73 212.95 182.23 212.95 184.27 218.19"/></svg>