<svg xmlns="http://www.w3.org/2000/svg" viewBox="0 0 250 250"><title>Grocery</title><path d="M180.35,158c-.23-.1-.24-.33-.3-.53l-6.62-20.37c-.38-1.17-.78-2.33-1.12-3.51a.85.85,0,0,0-1-.72q-12.53,0-25.06,0a1.18,1.18,0,0,1-.71-.1l2.85-2.1,15.21-11c1-.7,1.92-1.41,2.9-2.09a.64.64,0,0,0,.29-.85c-.93-2.81-1.84-5.62-2.75-8.43l-4.24-13.11c-.29-.9-.59-1.79-.88-2.69,0-.14-.19-.32,0-.43s.25.09.36.17l8.9,6.48q5.79,4.21,11.57,8.43a.81.81,0,0,0,1.15,0c3.38-2.49,6.79-5,10.19-7.42l10.29-7.47c.11-.08.2-.21.4-.19a1.11,1.11,0,0,1-.13.7c-.92,2.85-1.86,5.69-2.78,8.53Q197,107,195.15,112.79c-.41,1.27-.82,2.54-1.26,3.8a.75.75,0,0,0,.32,1q5.05,3.63,10.08,7.3l6.95,5.07,3.54,2.57c.09.07.26.11.2.27s-.22.09-.33.09h-2.08q-11.57,0-23.14,0a1,1,0,0,0-1.09.79c-1.42,4.48-2.88,8.95-4.33,13.42q-1.73,5.33-3.48,10.66C180.49,157.83,180.47,157.94,180.35,158Z" style="fill:#7ac141"/><path d="M109.18,130.93c-.49.41-1,.83-1.47,1.22a11.06,11.06,0,0,1-5.68,2.27,18.15,18.15,0,0,1-7.47-.41c-2.79-.84-4.65-2.54-4.87-5.6a9.44,9.44,0,0,1,1.39-5.56,12,12,0,0,1,5.54-4.69,28.79,28.79,0,0,1,9.39-2.33c2.7-.28,5.41-.17,8.11-.19a.81.81,0,0,0,.87-.53,10.8,10.8,0,0,0,1-2.82c.27-1.95-.61-3-2.59-3.14a10.42,10.42,0,0,0-7.95,2.9c-.71.65-1.39,1.33-2.09,2a1.21,1.21,0,0,1-1.77.15c-2.3-1.52-2.27-4.36.06-6a18.65,18.65,0,0,1,7.91-3,34.63,34.63,0,0,1,6.92-.43,19.36,19.36,0,0,1,8.42,1.9,5.51,5.51,0,0,1,3.23,3.81,6.27,6.27,0,0,1-.4,3.3c-2.17,6.2-4.34,12.4-6.26,18.69-.39,1.29-.39,1.29-1.73,1.29H109.28c-.74,0-.79,0-.61-.77s.41-1.31.61-2Zm-3.88-3.43a7.22,7.22,0,0,0,6-2.85,16.28,16.28,0,0,0,2.37-4.64c.12-.33,0-.4-.33-.4-1,0-2.1,0-3.15,0a11.66,11.66,0,0,0-6.16,2,4.5,4.5,0,0,0-1.94,2.65,2.34,2.34,0,0,0,1.22,2.79A3.89,3.89,0,0,0,105.31,127.5Z" style="fill:#0179c2"/><path d="M50.82,134.38a22.67,22.67,0,0,1-10.43-2.32,10.86,10.86,0,0,1-4.55-3.85,4.72,4.72,0,0,1,.33-5.8,9,9,0,0,1,4-2.86c.83-.3,1.07-.22,1.6.47a16.72,16.72,0,0,1,1.38,2.34,18.36,18.36,0,0,0,3,4.4A5.17,5.17,0,0,0,50,128.7a2.43,2.43,0,0,0,2.24-1.2A2.32,2.32,0,0,0,51.9,125a20.24,20.24,0,0,0-2.39-2.8,56.37,56.37,0,0,1-3.88-4.12,10.36,10.36,0,0,1-1.93-3.36,6.58,6.58,0,0,1,1.51-6.83A13.77,13.77,0,0,1,52,104.11a25,25,0,0,1,7.39-1,16.18,16.18,0,0,1,7.74,1.7,7,7,0,0,1,3.46,3.83,3.93,3.93,0,0,1-1.42,4.56,8.18,8.18,0,0,1-3.68,1.62c-1.19.2-1.63-.1-1.92-1.27-.2-.81-.34-1.64-.57-2.44a4.58,4.58,0,0,0-2.21-3,4.87,4.87,0,0,0-4.61.53,1.46,1.46,0,0,0-.38,1.7,5.17,5.17,0,0,0,1.14,1.6c1.64,1.74,3.54,3.19,5.29,4.81a15.31,15.31,0,0,1,4,5.17,7.49,7.49,0,0,1-2.55,9,18.73,18.73,0,0,1-7.78,2.93A27.89,27.89,0,0,1,50.82,134.38Z" style="fill:#0179c2"/><path d="M91.86,110.86c-1,0-2.07,0-3.1,0a.61.61,0,0,0-.71.48c-1.52,4.86-3.2,9.67-4.55,14.58a4,4,0,0,0,0,2.06,1.87,1.87,0,0,0,1.77,1.45,4.62,4.62,0,0,0,2.13-.39c.3-.13.45-.09.54.25.2.77.42,1.55.66,2.31.12.36,0,.51-.32.66a20,20,0,0,1-6.45,2,21.08,21.08,0,0,1-7.44,0A5.4,5.4,0,0,1,71.72,133a4.85,4.85,0,0,1-1.35-4.52,37,37,0,0,1,1.77-5.93c1.18-3.59,2.38-7.16,3.58-10.75.33-1,.32-1-.71-1-.75,0-1.5,0-2.24,0-.4,0-.56-.1-.42-.53q.68-2.22,1.33-4.45a.57.57,0,0,1,.65-.48c1,0,1.93,0,2.89,0a.75.75,0,0,0,.86-.65c.45-1.56,1-3.1,1.41-4.65a.66.66,0,0,1,.57-.53q5.57-1.14,11.19-2c.6-.09.63,0,.45.54q-1,3.27-2,6.53c-.24.76-.24.76.57.76h6c.9,0,.9,0,.66.9-.35,1.29-.73,2.57-1,3.87a.8.8,0,0,1-1,.7C93.85,110.82,92.86,110.85,91.86,110.86Z" style="fill:#0179c2"/><path d="M143.34,109.1a21.58,21.58,0,0,1,2.56-2.11,12.09,12.09,0,0,1,6.07-2.3c3.56-.17,6,.89,7.87,4.21a4,4,0,0,1-1.35,5.37,8.41,8.41,0,0,1-3.42,1.44,1.74,1.74,0,0,1-2.21-1.09,7.85,7.85,0,0,0-1-1.58c-1.24-1.39-2.84-1.51-4.52-1.27a7.16,7.16,0,0,0-5.68,4.57,39.58,39.58,0,0,0-1.53,4.83c-1.23,4-2.48,8.06-3.72,12.1a.58.58,0,0,1-.65.47q-5.74,0-11.49,0c-.46,0-.5-.15-.36-.54q3.28-9.74,6.55-19.49c.79-2.35,1.59-4.69,2.36-7a.81.81,0,0,1,.91-.66c1.5,0,3,0,4.49,0l5.34-.07c.74,0,.75,0,.54.7Z" style="fill:#0179c2"/><path d="M115,140.94c.26-.17.49-.33.73-.46a4.41,4.41,0,0,1,3.55-.39,1.12,1.12,0,0,1,.78.81c.1.39.23.37.48.13a4.41,4.41,0,0,1,3.4-1.13c1.23.06,1.78.65,1.71,1.88a11.29,11.29,0,0,1-.79,2.88c-.61,1.82-1.25,3.64-1.84,5.47a.72.72,0,0,1-.84.6c-.53,0-1.07,0-1.6,0-.73,0-.77,0-.55-.72.48-1.45,1-2.9,1.48-4.35.28-.84.57-1.69.83-2.54s-.12-1.12-.87-1a2,2,0,0,0-1.53,1,9.12,9.12,0,0,0-.66,1.69c-.6,1.79-1.21,3.58-1.8,5.37a.68.68,0,0,1-.77.56c-.59,0-1.18,0-1.76,0s-.66-.05-.47-.64l2.15-6.38a6.4,6.4,0,0,0,.19-.67c.15-.67-.17-1-.86-1a1.93,1.93,0,0,0-1.61,1.09,30.14,30.14,0,0,0-1.12,3.11c-.46,1.26-.87,2.53-1.27,3.8-.14.46-.36.68-.87.65s-1.25,0-1.87,0c-.37,0-.46-.13-.34-.5q1.64-4.83,3.24-9.67a.53.53,0,0,1,.59-.42c.5,0,1,0,1.5,0C115.08,140.12,115.08,140.12,115,140.94Z" style="fill:#7ac141"/><path d="M147.08,143.63a.74.74,0,0,0,.54-.3c1-1,2.07-1.9,3.09-2.87a1.14,1.14,0,0,1,.86-.34c.73,0,1.46,0,2.19,0,.15,0,.36-.07.44.11s-.13.26-.24.36c-1.24,1.1-2.46,2.21-3.72,3.28a1,1,0,0,0-.34,1.11c.45,1.7.85,3.42,1.31,5.12.13.48,0,.61-.47.6-.71,0-1.43,0-2.14,0a.58.58,0,0,1-.69-.55c-.21-1-.44-2.05-.67-3.08-.12-.56-.16-.55-.63-.21a2.92,2.92,0,0,0-1.27,1.88,8.29,8.29,0,0,1-.35,1.07c-.3.88-.3.88-1.26.88h-1.39c-.63,0-.67-.05-.47-.63l1.86-5.52c.81-2.41,1.63-4.83,2.42-7.25a.74.74,0,0,1,.84-.62c.59,0,1.17,0,1.76,0s.62.09.45.59c-.65,1.94-1.31,3.88-2,5.82C147.18,143.28,147.14,143.44,147.08,143.63Z" style="fill:#7ac141"/><path d="M131.63,150.71c-.23,0-.46,0-.69,0-.44,0-.74-.06-.69-.6,0-.29-.14-.31-.32-.14a4,4,0,0,1-3.22,1,1.66,1.66,0,0,1-1.75-2,4.47,4.47,0,0,1,3.1-4c1.09-.36,2.22-.51,3.31-.85a1.66,1.66,0,0,0,1.17-1.5.64.64,0,0,0-.66-.73,1.75,1.75,0,0,0-1.92,1.12.67.67,0,0,1-.76.49c-.53,0-1.07,0-1.6,0s-.55-.12-.36-.59a4.57,4.57,0,0,1,4.17-2.94,7.44,7.44,0,0,1,3,.24,1.56,1.56,0,0,1,1.16,2c-.26,1.22-.75,2.37-1.13,3.56s-.7,2.09-1.05,3.14a3.43,3.43,0,0,0-.21,1.26c0,.4-.15.6-.57.58S131.95,150.71,131.63,150.71Zm-.05-5.12c-.87.39-1.7.4-2.4.82a2.15,2.15,0,0,0-1.13,1.88c0,.5.21.72.72.71a2.19,2.19,0,0,0,1.78-.82A10,10,0,0,0,131.57,145.59Z" style="fill:#7ac141"/><path d="M158.7,145.9c-.78,0-1.57,0-2.35,0a.58.58,0,0,0-.64.43,6.67,6.67,0,0,0-.4,1.49c-.11,1,.53,1.44,1.45,1.07a2.44,2.44,0,0,0,1.23-1.28.86.86,0,0,1,.92-.55c.51,0,1,0,1.55,0s.53.1.36.51a5.14,5.14,0,0,1-4.92,3.36,6.11,6.11,0,0,1-2.06-.22,2,2,0,0,1-1.56-2.1,8.09,8.09,0,0,1,.53-2.66,19.41,19.41,0,0,1,1.22-3,5.92,5.92,0,0,1,6.89-2.85,1.81,1.81,0,0,1,1.52,2,10.92,10.92,0,0,1-.74,3.48c-.1.29-.33.34-.6.34h-2.4Zm-.86-1.73h1a.43.43,0,0,0,.49-.32,4.11,4.11,0,0,0,.22-1.26c0-.52-.23-.73-.76-.76a2.31,2.31,0,0,0-2.11,1.61c-.29.68-.27.72.45.72Z" style="fill:#7ac141"/><path d="M168.18,137.13c1.5,0,1.51,0,1.07,1.44q-.17.56-.37,1.12c-.1.3,0,.44.3.44s.43,0,.64,0c.47,0,.57.18.4.58,0,.07,0,.14-.07.2-.37,1.12-.37,1.13-1.55,1.15a.65.65,0,0,0-.71.49c-.59,1.79-1.2,3.58-1.79,5.37-.19.59,0,.81.62.85s.75,0,.5.77c-.44,1.25-.44,1.26-1.78,1.28a7.71,7.71,0,0,1-1.81-.09,1.05,1.05,0,0,1-.95-1.38,12.78,12.78,0,0,1,.53-1.9c.56-1.63,1.11-3.27,1.67-4.9.13-.37,0-.47-.35-.49-.91,0-.91,0-.64-.93,0-.14.09-.27.12-.41a.71.71,0,0,1,.84-.61c.84,0,.84,0,1.11-.81.18-.54.38-1.07.54-1.62a.65.65,0,0,1,.77-.56C167.58,137.15,167.88,137.13,168.18,137.13Z" style="fill:#7ac141"/><path d="M140.75,141.09c.34-.1.56-.4.85-.59a3.65,3.65,0,0,1,2.06-.62c.41,0,.5.16.37.53-.19.54-.36,1.08-.52,1.63a.66.66,0,0,1-.78.54,3.22,3.22,0,0,0-1.58.19,2.78,2.78,0,0,0-1.57,1.79c-.61,1.86-1.26,3.71-1.86,5.57a.73.73,0,0,1-.85.59c-.6,0-1.21,0-1.81,0-.42,0-.54-.14-.4-.55.68-2,1.34-4,2-6,.39-1.16.8-2.32,1.17-3.49.13-.42.33-.62.79-.59s1.07,0,1.6,0,.65,0,.5.64C140.72,140.86,140.64,141,140.75,141.09Z" style="fill:#7ac141"/><path d="M187.83,151.26a3,3,0,0,1,1.45.38,2.73,2.73,0,0,1,1.09,1.08,2.94,2.94,0,0,1,0,2.94,2.77,2.77,0,0,1-1.08,1.08,2.94,2.94,0,0,1-2.92,0,2.77,2.77,0,0,1-1.09-1.08,2.94,2.94,0,0,1,0-2.94,2.73,2.73,0,0,1,1.09-1.08A3,3,0,0,1,187.83,151.26Zm0,.57a2.39,2.39,0,0,0-1.16.3,2.2,2.2,0,0,0-.88.87,2.37,2.37,0,0,0,0,2.36,2.23,2.23,0,0,0,.87.87,2.35,2.35,0,0,0,2.35,0,2.25,2.25,0,0,0,.87-.87,2.36,2.36,0,0,0,0-2.36,2.19,2.19,0,0,0-.88-.87A2.4,2.4,0,0,0,187.84,151.83Zm-1.33,3.93v-3.12h1.63a1.24,1.24,0,0,1,.49.12.79.79,0,0,1,.29.3.88.88,0,0,1,.12.45.82.82,0,0,1-.22.58,1,1,0,0,1-.62.3.8.8,0,0,1,.22.12,1.62,1.62,0,0,1,.21.24l.23.38.37.63h-.78l-.26-.51a2.11,2.11,0,0,0-.44-.64.7.7,0,0,0-.44-.13h-.16v1.28Zm.63-1.77h.26a3.11,3.11,0,0,0,.68,0,.4.4,0,0,0,.21-.15.39.39,0,0,0,.08-.24.38.38,0,0,0-.08-.23.41.41,0,0,0-.21-.15,3,3,0,0,0-.68,0h-.26Z" style="fill:#7ac141"/></svg>