<svg xmlns="http://www.w3.org/2000/svg" viewBox="0 0 250 250"><title>CR</title><path d="M35,155V115.7H55.45l-1.57-4.09a159,159,0,0,1,57.21-16c30-2.4,58.73,2.55,85.83,16.09l-1.68,3.92H215V155Zm16.46-30.62c0-2-.08-4-.06-6.07,0-.73-.2-1-1-1q-2.75.07-5.5,0c-.77,0-1,.28-1,1,0,2,0,4-.06,6.07-2.1,0-4.2.07-6.29,0-.74,0-1,.22-1,1,0,1.72.06,3.44,0,5.15,0,.89.31,1.09,1.13,1.08,2.06,0,4.12,0,6.18.05l-.05,7.13c-1.45,0-2.89.07-4.34.07-2.89,0-2.89,0-2.89,2.94,0,1.43,0,2.86,0,4.24h7.2c0-2.5,0-4.9,0-7.29h7.69v7.32h7.23c0-2.48,0-4.91,0-7.33h5.85c-.68-1.75-1.28-3.34-1.91-4.93-1-2.4-1-2.4-3.8-2.07,0,.43,0,.88,0,1.32q-.05,2.85-.11,5.71l-7.31,0,0-7.15c2.1,0,4.19-.07,6.29-.06.72,0,1-.18,1-1q-.07-2.63,0-5.27c0-.76-.25-1-1-1C55.66,124.44,53.56,124.39,51.46,124.37Zm140,14.72v-7.42c-.94,0-1.74,0-2.54,0-.3,0-.75.16-.84.37-1,2.23-2,4.48-3.08,7h6.5l-.05,7.06c-.41,0-.83.1-1.24.1-1.75,0-3.51,0-5.26,0-.32,0-.88.4-.89.63-.07,1.94-.06,3.89,0,5.83,0,.23.35.64.54.65,2.28,0,4.55,0,6.84,0,0-2.52,0-4.91,0-7.3l7.68,0v7.19h7.28c0-2.46,0-4.82,0-7.19h7.45v-7.07h-7.45v-7.42h7.51c0-2.12,0-4.17,0-6.22,0-.85-.33-1-1.08-1-1.75,0-3.51.05-5.26,0-.85,0-1.12.24-1.11,1.1,0,2.05,0,4.11,0,6.17h-7.34c0,2.61,0,5,0,7.37Zm-7.18-2.46,10.6-24.43c-46.43-21-92.63-21-139,.09l9.7,24.37C105.17,119.06,144.61,119.07,184.25,136.63Zm-10.73,16.9c0-6,0-11.84,0-17.64a1.1,1.1,0,0,0-.62-.75,130.49,130.49,0,0,0-49.75-9A128.81,128.81,0,0,0,97,129.19a144.23,144.23,0,0,0-19.16,5.72,1.34,1.34,0,0,0-1,1.51c0,5.16,0,10.32,0,15.49,0,1.61,0,1.61,1.62,1.61h95ZM195.2,131.6c1,0,1.91,0,2.86,0,.61,0,.91-.16.89-.83q0-2.75,0-5.49c0-.64-.22-.87-.87-.86-1.91,0-3.82,0-5.72,0-.56,0-.84.16-.83.77q0,2.8,0,5.61c0,.59.21.82.8.81C193.29,131.58,194.24,131.6,195.2,131.6ZM66.42,146.11h7.22c0-2.26,0-4.47,0-6.67,0-.18-.29-.51-.45-.51-2.24,0-4.48,0-6.75,0Zm-.12,7.12c0-2.21,0-4.3,0-6.39a.86.86,0,0,0-.62-.58q-3-.07-6.07,0c-.23,0-.64.35-.65.54,0,2.13,0,4.26,0,6.43Zm-14.92,0c0-2.2,0-4.29,0-6.38a.86.86,0,0,0-.61-.58c-2.06,0-4.12,0-6.19,0a.78.78,0,0,0-.54.53c0,2.13,0,4.26,0,6.43Zm132.46-14.16H177v7h6.89Zm22.5-21.54h-7.26v6.76h7.26Z"/><path d="M184.25,136.63c-39.64-17.56-79.07-17.57-118.66,0l-9.7-24.37c46.33-21.07,92.53-21.09,139-.09Zm-82.05-24c-.15-1.07-.25-2.49-.57-3.85A6.49,6.49,0,0,0,98.24,104a6.66,6.66,0,0,0-8.56,3.36,14.57,14.57,0,0,0-.31,11A6.82,6.82,0,0,0,91,121a6.18,6.18,0,0,0,9.07-1.09C101.74,117.85,102,115.4,102.19,112.58Zm83.6,4.5a11.71,11.71,0,0,0-.33-1.89,6.2,6.2,0,0,0-7.78-3.46c-4.52,1.58-7,5.18-8.37,9.49-1.44,4.56,2.64,8.47,7.33,7.3,3.1-.78,5.1-2.93,6.82-5.43A11.19,11.19,0,0,0,185.79,117.08Zm-20.19-4.85,3.51-.35c.59-.06,1.15-.26.91-1a8.2,8.2,0,0,0-1.27-2.73,7.27,7.27,0,0,0-10.8.53,17.67,17.67,0,0,0-3.81,8.66c-.31,2.24.11,4.31,2.18,5.63a7.57,7.57,0,0,0,6.16.88c2.82-.74,6.08-5.36,6.13-8.64-1.89-.46-3.81-.93-5.73-1.35a.84.84,0,0,0-.66.43c-.38.89-.68,1.82-1,2.74l1.71.59c-.48.68-.77,1.42-1.32,1.76a2.37,2.37,0,0,1-1.88.16c-.31-.12-.58-1.1-.42-1.54a56,56,0,0,1,2.62-6.27,2.67,2.67,0,0,1,2-1.14C164.39,110.6,164.89,111.52,165.6,112.23Zm-56.5,7.67c.13-1.63.31-3.21.37-4.8,0-.94.32-1.3,1.32-1.39,3.68-.34,5.93-2.23,6.4-5.55.44-3.14-.55-6.15-4.31-6.32-2.45-.11-4.92.1-7.51.18L104,120.25ZM71.48,115c-.41-1.12-.79-2.31-1.3-3.44a1.11,1.11,0,0,0-1-.4,20.77,20.77,0,0,0-4.29,1.73,4.88,4.88,0,0,0-2.52,4.92,5.28,5.28,0,0,0,3.86,4.63c.91.28,1.85.48,2.74.81s1.8.95,1.7,2-1,1.46-2,1.63-1.73.19-2.71.3c.46,1.31.89,2.6,1.4,3.86.09.22.52.39.81.41,2.42.16,6.1-2.07,7.12-4.27A6,6,0,0,0,72,119.26c-1.18-.44-2.4-.74-3.55-1.25a1.63,1.63,0,0,1-.85-1.19,1.59,1.59,0,0,1,.89-1.14A21.83,21.83,0,0,1,71.48,115Zm3.34-.84,3-.94,2.3,13.34c1.53-.48,2.92-.87,4.26-1.39a1.21,1.21,0,0,0,.49-1c-.35-2.26-.8-4.5-1.2-6.74-.35-1.93-.68-3.87-1-5.82l2.95-1-.79-4.53L74,109.6Zm63.41-3.3H138c-.24-2.62-.45-5.24-.74-7.85,0-.37-.36-1-.62-1-1.41-.23-2.85-.32-4.29-.46l-4.46,17.87a26.51,26.51,0,0,1,3.32.29c1,.21,1.24-.19,1.44-1,.6-2.47,1.27-4.92,1.92-7.37l.15,0,1,8.66,4.77.49,4.4-17.89a24.68,24.68,0,0,1-3.14-.28c-1.09-.24-1.34.23-1.56,1.17C139.59,105.93,138.88,108.38,138.22,110.84Zm13.17,7.09,1.39-4-7.32-1.26-1.39,4Zm-24.11-7c-2.27-.09-4.43-.19-6.59-.23a1,1,0,0,0-.79.56c-.29,1.13-.47,2.29-.76,3.78,2.35,0,4.54,0,6.74,0,.29,0,.77-.29.82-.52C126.95,113.37,127.09,112.21,127.28,110.95Z" style="fill:#fff"/><path d="M206.39,131.68c0-2.06.08-4.11,0-6.17,0-.86.25-1.13,1.11-1.1,1.75.06,3.51,0,5.26,0,.75,0,1.1.16,1.08,1-.05,2,0,4.1,0,6.22h-7.51Z" style="fill:#fff"/><path d="M191.37,146.09v7.3c-2.28,0-4.56,0-6.84,0-.19,0-.54-.42-.54-.65,0-1.94-.06-3.89,0-5.83,0-.23.57-.62.89-.63,1.75-.06,3.51,0,5.26,0,.41,0,.83-.07,1.24-.1Z" style="fill:#fff"/><path d="M195.2,131.6c-1,0-1.91,0-2.86,0-.59,0-.81-.22-.8-.81q0-2.8,0-5.61c0-.62.27-.78.83-.77,1.91,0,3.82,0,5.72,0,.64,0,.88.22.87.86q0,2.75,0,5.49c0,.67-.28.85-.89.83C197.1,131.58,196.15,131.6,195.2,131.6Z" style="fill:#fff"/><path d="M199.06,139.05v-7.37h7.34l0,0q0,3.71,0,7.42l0,0H199Z" style="fill:#fff"/><path d="M51.48,138.83l7.31,0,0,0v7.33H51.52c0-2.47,0-4.89,0-7.32Z" style="fill:#fff"/><path d="M206.34,146.12v7.19h-7.28c0-2.41,0-4.8,0-7.19l0,0h7.37Z" style="fill:#fff"/><path d="M206.34,139.05h7.45v7.07h-7.45l0,0V139Z" style="fill:#fff"/><path d="M43.84,138.77v7.3h-7.2c0-1.39,0-2.81,0-4.24,0-2.94,0-2.93,2.89-2.94,1.45,0,2.89,0,4.34-.07Z" style="fill:#fff"/><path d="M43.87,138.81l.05-7.13,0,0h7.61l0,0q0,3.57,0,7.15l0,0H43.84Z" style="fill:#fff"/><path d="M191.42,139.1l7.64,0,0,0v7.14l0,0-7.69,0,0,0q0-3.53.05-7.07Z" style="fill:#fff"/><path d="M66.42,146.11V138.9c2.27,0,4.51,0,6.75,0,.16,0,.45.33.45.51,0,2.21,0,4.42,0,6.67Z" style="fill:#fff"/><path d="M43.93,131.68c-2.06,0-4.12-.08-6.18-.05-.82,0-1.16-.19-1.13-1.08.06-1.71,0-3.43,0-5.15,0-.76.25-1,1-1,2.1,0,4.19,0,6.29,0l0,0v7.38Z" style="fill:#fff"/><path d="M51.46,124.37c2.1,0,4.2.07,6.29,0,.74,0,1,.22,1,1q-.07,2.63,0,5.27c0,.78-.29,1-1,1-2.1,0-4.19,0-6.29.06l0,0v-7.38Z" style="fill:#fff"/><path d="M43.91,124.37c0-2,.07-4,.06-6.07,0-.73.2-1,1-1q2.75.07,5.5,0c.77,0,1,.28,1,1,0,2,0,4,.06,6.07l0,0H43.88Z" style="fill:#fff"/><path d="M66.3,153.23H58.91c0-2.17,0-4.3,0-6.43,0-.19.42-.54.65-.54q3-.06,6.07,0a.86.86,0,0,1,.62.58C66.32,148.93,66.3,151,66.3,153.23Z" style="fill:#fff"/><path d="M51.38,153.23H44c0-2.18,0-4.31,0-6.43a.78.78,0,0,1,.54-.53c2.06,0,4.12,0,6.19,0a.86.86,0,0,1,.61.58C51.4,148.94,51.38,151,51.38,153.23Z" style="fill:#fff"/><path d="M183.85,139.06v7H177v-7Z" style="fill:#fff"/><path d="M206.35,117.52v6.76h-7.26v-6.76Z" style="fill:#fff"/><path d="M191.46,139.06H185c1.09-2.52,2.06-4.77,3.08-7,.1-.21.55-.35.84-.37.8-.05,1.6,0,2.54,0,0,2.5,0,5,0,7.42Z" style="fill:#fff"/><path d="M58.79,138.81q.05-2.85.11-5.71c0-.45,0-.89,0-1.32,2.84-.33,2.84-.33,3.8,2.07.63,1.59,1.24,3.18,1.91,4.93H58.75Z" style="fill:#fff"/><path d="M185.79,117.08a11.19,11.19,0,0,1-2.33,6c-1.72,2.49-3.72,4.65-6.82,5.43-4.68,1.18-8.76-2.73-7.33-7.3,1.36-4.31,3.85-7.91,8.37-9.49a6.2,6.2,0,0,1,7.78,3.46A11.71,11.71,0,0,1,185.79,117.08Zm-4.89-.18c-.26-.4-.45-.94-.66-1a2.79,2.79,0,0,0-1.78.3,16.13,16.13,0,0,0-4.24,6.29,1.67,1.67,0,0,0,.33,1.55,1.64,1.64,0,0,0,1.59-.17,31.4,31.4,0,0,0,3.17-3.86A24.07,24.07,0,0,0,180.9,116.91Z" style="fill:#008f40"/><path d="M165.6,112.23c-.71-.72-1.21-1.63-1.68-1.61a2.67,2.67,0,0,0-2,1.14A56,56,0,0,0,159.3,118c-.16.43.11,1.42.42,1.54a2.37,2.37,0,0,0,1.88-.16c.54-.34.84-1.08,1.32-1.76l-1.71-.59c.33-.92.63-1.85,1-2.74a.84.84,0,0,1,.66-.43c1.93.42,3.84.9,5.73,1.35-.05,3.28-3.31,7.91-6.13,8.64a7.57,7.57,0,0,1-6.16-.88c-2.06-1.31-2.49-3.39-2.18-5.63a17.67,17.67,0,0,1,3.81-8.66,7.27,7.27,0,0,1,10.8-.53,8.2,8.2,0,0,1,1.27,2.73c.24.7-.32.91-.91,1Z" style="fill:#008f40"/><path d="M102.19,112.58c-.21,2.82-.45,5.27-2.07,7.34A6.18,6.18,0,0,1,91,121a6.82,6.82,0,0,1-1.68-2.67,14.57,14.57,0,0,1,.31-11A6.66,6.66,0,0,1,98.24,104a6.49,6.49,0,0,1,3.38,4.77C101.94,110.09,102,111.51,102.19,112.58Zm-8.63-.46h.08a8.29,8.29,0,0,0,0,1,24.46,24.46,0,0,0,.53,3.49c.14.51.78.88,1.19,1.31.45-.45.91-.88,1.35-1.34a.63.63,0,0,0,.12-.43c-.16-2.34-.27-4.69-.55-7,0-.42-.86-1.14-1.16-1.06a2,2,0,0,0-1.24,1.21A15.09,15.09,0,0,0,93.57,112.12Z" style="fill:#d52d20"/><path d="M109.1,119.9l-5.11.35L105.36,102c2.6-.07,5.06-.29,7.51-.18,3.76.17,4.75,3.18,4.31,6.32-.47,3.32-2.72,5.21-6.4,5.55-1,.09-1.29.46-1.32,1.39C109.41,116.69,109.23,118.27,109.1,119.9Zm.84-10.29c2,.49,3-1.64,2.25-3.17-.19-.38-.92-.53-1.43-.69-.12,0-.5.33-.53.54C110.09,107.38,110,108.47,109.94,109.61Z" style="fill:#d52d20"/><path d="M71.48,115a21.83,21.83,0,0,0-2.94.7,1.59,1.59,0,0,0-.89,1.14,1.63,1.63,0,0,0,.85,1.19c1.14.51,2.37.82,3.55,1.25a6,6,0,0,1,3.26,7.92c-1,2.2-4.7,4.43-7.12,4.27-.29,0-.72-.2-.81-.41-.51-1.26-.93-2.55-1.4-3.86,1-.1,1.86-.14,2.71-.3s1.88-.58,2-1.63-.77-1.7-1.7-2-1.83-.52-2.74-.81a5.28,5.28,0,0,1-3.86-4.63,4.88,4.88,0,0,1,2.52-4.92,20.77,20.77,0,0,1,4.29-1.73,1.11,1.11,0,0,1,1,.4C70.68,112.67,71.07,113.86,71.48,115Z" style="fill:#d52d20"/><path d="M74.82,114.14,74,109.6l10.74-3.53.79,4.53-2.95,1c.34,1.95.68,3.88,1,5.82.4,2.25.85,4.49,1.2,6.74a1.21,1.21,0,0,1-.49,1c-1.34.51-2.73.9-4.26,1.39l-2.3-13.34Z" style="fill:#d52d20"/><path d="M138.22,110.84c.66-2.46,1.37-4.91,2-7.38.22-.94.47-1.41,1.56-1.17a24.68,24.68,0,0,0,3.14.28l-4.4,17.89-4.77-.49-1-8.66-.15,0c-.65,2.46-1.32,4.91-1.92,7.37-.2.84-.46,1.23-1.44,1a26.51,26.51,0,0,0-3.32-.29l4.46-17.87c1.44.14,2.88.23,4.29.46.26,0,.58.64.62,1,.28,2.61.5,5.23.74,7.85Zm-3.36-4.06.29,0,1.31,12.38a17.65,17.65,0,0,1,2.43.23c.74.17,1-.18,1.09-.76q.56-2.27,1.14-4.54l2.73-10.81a8.8,8.8,0,0,1-1.79-.16c-.78-.24-1,.05-1.15.76-.41,1.74-.9,3.46-1.37,5.19-.59,2.19-1.19,4.37-1.79,6.56-.55-3.54-.87-7-1.14-10.56-.18-2.43-.15-2.38-2.61-2.55-.87-.06-1.16.25-1.28,1-.08.49-.23,1-.35,1.44L129,118.39c2.07,1,2.66.69,3.16-1.35.16-.67.34-1.33.51-2Z"/><path d="M151.39,117.93l-7.32-1.28,1.39-4,7.32,1.26Zm.17-3.37-5.46-.93-.8,2.37,5.47.91Z"/><path d="M127.28,110.95c-.19,1.26-.33,2.42-.58,3.56-.05.23-.53.52-.82.52-2.2,0-4.4,0-6.74,0,.29-1.49.47-2.65.76-3.78a1,1,0,0,1,.79-.56C122.85,110.75,125,110.86,127.28,110.95Zm-6.95,3c1.72.08,3.34.16,5,.2a.83.83,0,0,0,.65-.43,16.49,16.49,0,0,0,.32-1.93c-1.18-.09-2.27-.2-3.35-.26a8.53,8.53,0,0,0-1.59,0,.89.89,0,0,0-.65.44A17.24,17.24,0,0,0,120.33,114Z"/><path d="M96,134.24c-2.37-1-3.82-1-4.78.23a3.51,3.51,0,0,0-.11,3.86c1.5,1.71,3.2,1,4.86.25.59,2,.17,2.39-2.44,2.64a4.88,4.88,0,0,1-5-3.67A4.61,4.61,0,0,1,92,131.94a8.33,8.33,0,0,1,3.78.31c.35.09.43,1.22.64,1.87Z"/><path d="M114.2,145.31c-2.09-1-3.62-1-4.56.05a3.5,3.5,0,0,0-.29,4c.78,1.27,1.72,1.35,4.92.44.29,1.87,0,2.24-1.77,2.51a4.88,4.88,0,0,1-5.53-3.2,4.75,4.75,0,0,1,2.66-5.88,5.13,5.13,0,0,1,4.33.16c.42.22.44,1.2.64,1.83Z"/><path d="M120.77,138.53c.66,1.23,1.33,1.25,2.7.26l1.29.65a3.1,3.1,0,0,1-3.71,1.69,3.16,3.16,0,0,1-2.37-3.23,3.31,3.31,0,0,1,2.49-3.18,3.15,3.15,0,0,1,3.92,2.7c.09.73-.07,1.17-1,1.13C123.06,138.49,122,138.53,120.77,138.53Zm2.36-1.45c-1-1.06-1.59-1-2.29,0Z"/><path d="M117.54,149.55a1.33,1.33,0,0,0,1.92.87c1.08-.47,1.08-.47,2,.25a3.28,3.28,0,0,1-4.71,1.12,3.51,3.51,0,0,1-.74-4.7,3.28,3.28,0,0,1,4.75-.58,5.58,5.58,0,0,1,1,2.32c0,.14-.53.67-.84.69C119.86,149.6,118.73,149.55,117.54,149.55Zm2.28-1.38c-.9-1.07-1.48-1.06-2.19,0Z"/><path d="M136,149.55c.44,1.25,1.37,1.22,2,.83.87-.55,1.39-.2,2,.25a3,3,0,0,1-3.62,1.59,2.84,2.84,0,0,1-2.34-2.83,3.24,3.24,0,0,1,2.18-3.48,3.12,3.12,0,0,1,4.19,2.64c.11.68-.09,1-.82,1C138.46,149.53,137.32,149.55,136,149.55Zm0-1.4h2.31C137.59,147.17,137.13,147.14,136,148.15Z"/><path d="M163.62,138.52h-4.17a1.26,1.26,0,0,0,1.91.8c1-.51,1-.51,2,.2a3.23,3.23,0,0,1-4.25,1.42,3.26,3.26,0,0,1-1.6-4.17,3.21,3.21,0,0,1,3.86-2C162.92,135,163.83,136.49,163.62,138.52Zm-2.07-1.39.15-.37a3.46,3.46,0,0,0-1.19-.4,3.31,3.31,0,0,0-1.12.52l.14.26Z"/><path d="M143.13,138.53H139c.46,1.12,1.3,1.24,1.9.77.88-.69,1.43-.29,2.09.18a3.14,3.14,0,0,1-4,1.59,3.48,3.48,0,0,1-1.91-4.17,3.27,3.27,0,0,1,4-2.16A3.07,3.07,0,0,1,143.13,138.53Zm-4-1.47h2.19C140.45,136,139.74,136,139.12,137.07Z"/><path d="M100.52,134.64A3.29,3.29,0,0,1,104,138a3.37,3.37,0,0,1-3.4,3.31,3.41,3.41,0,0,1-3.4-3.19A3.29,3.29,0,0,1,100.52,134.64Zm.16,1.84a1.38,1.38,0,0,0-1.52,1.59,1.31,1.31,0,0,0,1.38,1.36,1.37,1.37,0,0,0,1.43-1.55A1.28,1.28,0,0,0,100.69,136.48Z"/><path d="M126.09,134.7c.83.2,1.41.37,2,.47a1.17,1.17,0,0,0,.65-.15c2-1,3.51-.15,3.68,2.06.08,1,0,2.06,0,3.09,0,.74-.34.9-1,.89s-1-.1-1-.87c0-.91,0-1.83,0-2.75,0-.6-.18-1.16-1-1.15a1.17,1.17,0,0,0-1.29,1.16,21.65,21.65,0,0,0,0,2.63c0,.77-.31,1-1,1s-1-.18-1-.9C126.11,138.46,126.09,136.75,126.09,134.7Z"/><path d="M105.21,134.77l2.22.38a5.85,5.85,0,0,1,1.31-.48,2.09,2.09,0,0,1,2.56,2c.09,1.22,0,2.44,0,3.67,0,.73-.46.76-1,.76s-1,0-1-.76q0-1.38,0-2.75c0-.63-.06-1.26-1-1.25a1.2,1.2,0,0,0-1.31,1.27c0,1.1,0,2.2,0,3.39h-1.83Z"/><path d="M129.07,151.91c-1.75.32-1.82.26-1.84-1.25a8.75,8.75,0,0,0-.1-2c-.12-.46-.57-.83-.88-1.24-.45.38-1.16.7-1.29,1.17a9.11,9.11,0,0,0-.09,2.62c0,.7-.26.94-.95.94s-1.09-.13-1.06-.94c0-1.3,0-2.6,0-3.89,0-.42.15-1.15.33-1.18a6.5,6.5,0,0,1,1.72.08,13.67,13.67,0,0,1,2.65-.25,1.61,1.61,0,0,1,1.48,1.84C129.06,149.12,129.07,150.49,129.07,151.91Z"/><path d="M146.48,135.28a8.77,8.77,0,0,1,1.46-.59,2.08,2.08,0,0,1,2.68,2c.06,1.06,0,2.14,0,3.21,0,.3,0,.61,0,1l-1.89.08c0-1.24.07-2.37,0-3.49s-.8-1.66-1.51-1.15a2.77,2.77,0,0,0-.86,1.71,18.59,18.59,0,0,0,0,2.83h-1.82v-6.12l2,.23Z"/><path d="M111.78,135c2.07-.25,2.07-.25,2.65,1.47.22.64.45,1.28.71,2l.74-2c.62-1.71.62-1.71,2.64-1.45-.76,1.89-1.48,3.76-2.3,5.59-.12.28-.75.47-1.12.45a1.39,1.39,0,0,1-1.05-.57C113.24,138.69,112.55,136.88,111.78,135Z"/><path d="M156.79,138.76c-.22.93-.16,1.83-.54,2.11a2.7,2.7,0,0,1-2.92,0,3.41,3.41,0,0,1-1.58-3.63,3.26,3.26,0,0,1,2.73-2.56c1.77-.2,2.23.25,2.06,2.12-.94-.2-2-.83-2.68.37a2,2,0,0,0,.1,1.68C154.63,139.82,155.6,139.47,156.79,138.76Z"/><path d="M132.74,152h-1.91c0-1.17,0-2.29,0-3.42,0-.46.18-1-.61-1.12a3.27,3.27,0,0,1-.15-1.3c1.2-.28.58-1.32.88-2h1.68c.3.71-.26,1.8.88,2.21a1.6,1.6,0,0,1-.06,1c-1.1.34-.64,1.22-.69,1.88C132.7,150.11,132.74,151,132.74,152Z"/><path d="M145.86,145.66c.1,1.51,0,2.36-1.51,2.2-.25,0-.76.67-.84,1.09a9.86,9.86,0,0,0,0,2.28c0,.76-.4.85-1,.86s-1-.15-1-.89c0-1.33,0-2.67,0-4,0-.4.18-1.1.38-1.14a3.06,3.06,0,0,1,1.67.25Z"/><path d="M135.64,141h-1.73v-6h1.73Z"/><path d="M134.79,131c.53.67,1.14,1.13,1.08,1.47s-.7.78-1.08,1.16c-.36-.37-1-.72-1-1.12S134.29,131.69,134.79,131Z"/><path d="M199,146.16V139h7.37v7.14Z"/><path d="M43.88,124.33h7.61v7.38H43.88Z"/><path d="M93.57,112.12a15.09,15.09,0,0,1,.34-2.81,2,2,0,0,1,1.24-1.21c.3-.07,1.11.64,1.16,1.06.27,2.33.39,4.68.55,7a.63.63,0,0,1-.12.43c-.43.46-.89.9-1.35,1.34-.41-.43-1.05-.8-1.19-1.31a24.46,24.46,0,0,1-.53-3.49,8.29,8.29,0,0,1,0-1Z" style="fill:#fff"/><path d="M180.9,116.91a24.07,24.07,0,0,1-1.59,3.17,31.4,31.4,0,0,1-3.17,3.86,1.64,1.64,0,0,1-1.59.17,1.67,1.67,0,0,1-.33-1.55,16.13,16.13,0,0,1,4.24-6.29,2.79,2.79,0,0,1,1.78-.3C180.45,116,180.63,116.5,180.9,116.91Z" style="fill:#fff"/><path d="M109.94,109.61c.09-1.13.16-2.23.3-3.31,0-.21.41-.58.53-.54.51.15,1.24.31,1.43.69C112.94,108,111.92,110.1,109.94,109.61Z" style="fill:#fff"/><path d="M173.52,153.53h-95c-1.61,0-1.62,0-1.62-1.61,0-5.16,0-10.32,0-15.49a1.34,1.34,0,0,1,1-1.51A144.23,144.23,0,0,1,97,129.19a129.73,129.73,0,0,1,57,.15,130.76,130.76,0,0,1,18.78,5.79,1.1,1.1,0,0,1,.62.75C173.52,141.69,173.52,147.5,173.52,153.53ZM96,134.24l.39-.13c-.21-.65-.29-1.78-.64-1.87a8.33,8.33,0,0,0-3.78-.31,4.61,4.61,0,0,0-3.47,5.62,4.88,4.88,0,0,0,5,3.67c2.61-.25,3-.68,2.44-2.64-1.66.79-3.37,1.46-4.86-.25a3.51,3.51,0,0,1,.11-3.86C92.18,133.26,93.62,133.19,96,134.24Zm18.21,11.07.4-.13c-.2-.63-.22-1.61-.64-1.83a5.13,5.13,0,0,0-4.33-.16,4.75,4.75,0,0,0-2.66,5.88,4.88,4.88,0,0,0,5.53,3.2c1.8-.27,2.05-.64,1.77-2.51-3.21.91-4.15.83-4.92-.44a3.5,3.5,0,0,1,.29-4C110.59,144.34,112.11,144.32,114.2,145.31Zm6.57-6.78c1.22,0,2.29,0,3.36,0,.88,0,1-.4,1-1.13a3.15,3.15,0,0,0-3.92-2.7,3.31,3.31,0,0,0-2.49,3.18,3.16,3.16,0,0,0,2.37,3.23,3.1,3.1,0,0,0,3.71-1.69l-1.29-.65C122.1,139.79,121.43,139.77,120.77,138.53Zm-3.23,11c1.19,0,2.33.05,3.46,0,.31,0,.88-.55.84-.69a5.58,5.58,0,0,0-1-2.32,3.28,3.28,0,0,0-4.75.58,3.51,3.51,0,0,0,.74,4.7,3.28,3.28,0,0,0,4.71-1.12c-1-.71-1-.71-2-.25A1.33,1.33,0,0,1,117.54,149.55Zm18.46,0c1.32,0,2.46,0,3.6,0,.73,0,.92-.32.82-1a3.12,3.12,0,0,0-4.19-2.64,3.24,3.24,0,0,0-2.18,3.48,2.84,2.84,0,0,0,2.34,2.83,3,3,0,0,0,3.62-1.59c-.62-.45-1.15-.8-2-.25C137.37,150.77,136.44,150.8,136,149.55Zm27.62-11c.21-2-.7-3.48-2.22-3.8a3.21,3.21,0,0,0-3.86,2,3.26,3.26,0,0,0,1.6,4.17,3.23,3.23,0,0,0,4.25-1.42c-1-.71-1-.71-2-.2a1.26,1.26,0,0,1-1.91-.8Zm-20.49,0a3.07,3.07,0,0,0-2-3.79,3.27,3.27,0,0,0-4,2.16,3.48,3.48,0,0,0,1.91,4.17,3.14,3.14,0,0,0,4-1.59c-.66-.47-1.21-.87-2.09-.18-.6.47-1.44.36-1.9-.77Zm-42.61-3.89a3.29,3.29,0,0,0-3.35,3.45,3.41,3.41,0,0,0,3.4,3.19A3.37,3.37,0,0,0,104,138,3.29,3.29,0,0,0,100.52,134.64Zm25.57.06c0,2,0,3.76,0,5.47,0,.73.33.89,1,.9s1.06-.21,1-1a21.65,21.65,0,0,1,0-2.63,1.17,1.17,0,0,1,1.29-1.16c.79,0,.94.55,1,1.15,0,.91.07,1.83,0,2.75,0,.76.4.86,1,.87s1-.16,1-.89c0-1,0-2.07,0-3.09-.17-2.21-1.67-3-3.68-2.06a1.17,1.17,0,0,1-.65.15C127.5,135.07,126.92,134.9,126.09,134.7Zm-20.88.07V141H107c0-1.19,0-2.29,0-3.39a1.2,1.2,0,0,1,1.31-1.27c.9,0,.94.62,1,1.25q0,1.37,0,2.75c0,.73.46.76,1,.76s1,0,1-.76c0-1.22.06-2.45,0-3.67a2.09,2.09,0,0,0-2.56-2,5.85,5.85,0,0,0-1.31.48Zm23.86,17.13c0-1.42,0-2.79,0-4.16a1.61,1.61,0,0,0-1.48-1.84,13.67,13.67,0,0,0-2.65.25,6.5,6.5,0,0,0-1.72-.08c-.18,0-.32.76-.33,1.18,0,1.3,0,2.6,0,3.89,0,.81.39.93,1.06.94s1-.24.95-.94a9.11,9.11,0,0,1,.09-2.62c.13-.47.84-.78,1.29-1.17.3.41.76.78.88,1.24a8.75,8.75,0,0,1,.1,2C127.25,152.17,127.32,152.23,129.07,151.91Zm17.41-16.62,0-.22-2-.23V141h1.82a18.59,18.59,0,0,1,0-2.83,2.77,2.77,0,0,1,.86-1.71c.7-.51,1.42,0,1.51,1.15s0,2.25,0,3.49l1.89-.08c0-.44,0-.74,0-1,0-1.07,0-2.14,0-3.21a2.08,2.08,0,0,0-2.68-2A8.77,8.77,0,0,0,146.48,135.28Zm-34.7-.31c.77,1.91,1.46,3.71,2.25,5.48a1.39,1.39,0,0,0,1.05.57c.38,0,1-.18,1.12-.45.82-1.83,1.54-3.7,2.3-5.59-2-.26-2-.26-2.64,1.45l-.74,2c-.26-.72-.49-1.36-.71-2C113.85,134.72,113.85,134.72,111.78,135Zm45,3.79c-1.19.71-2.16,1.06-2.84.07a2,2,0,0,1-.1-1.68c.64-1.2,1.74-.57,2.68-.37.17-1.87-.29-2.32-2.06-2.12a3.26,3.26,0,0,0-2.73,2.56,3.41,3.41,0,0,0,1.58,3.63,2.7,2.7,0,0,0,2.92,0C156.63,140.59,156.57,139.69,156.79,138.76Zm-24,13.24c0-1,0-1.89,0-2.76,0-.66-.42-1.54.69-1.88a1.6,1.6,0,0,0,.06-1c-1.13-.42-.58-1.5-.88-2.21h-1.68c-.3.72.32,1.76-.88,2a3.27,3.27,0,0,0,.15,1.3c.79.12.61.66.61,1.12,0,1.12,0,2.25,0,3.42Zm13.12-6.35-2.33.65a3.06,3.06,0,0,0-1.67-.25c-.2,0-.37.74-.38,1.14,0,1.33,0,2.66,0,4,0,.73.35.9,1,.89s1-.09,1-.86a9.86,9.86,0,0,1,0-2.28c.08-.42.59-1.11.84-1.09C145.83,148,146,147.17,145.86,145.66ZM135.64,141v-6h-1.73v6Zm-.85-10c-.5.69-1.07,1.13-1,1.51s.66.75,1,1.12c.39-.38,1-.72,1.08-1.16S135.31,131.68,134.79,131Z" style="fill:#ffff01"/><path d="M134.86,106.78,132.71,115c-.17.66-.35,1.33-.51,2-.5,2-1.08,2.3-3.16,1.35L132.39,105c.12-.48.28-1,.35-1.44.12-.76.41-1.07,1.28-1,2.45.17,2.42.12,2.61,2.55.27,3.51.59,7,1.14,10.56.6-2.19,1.2-4.37,1.79-6.56.47-1.73,1-3.45,1.37-5.19.16-.71.37-1,1.15-.76a8.8,8.8,0,0,0,1.79.16l-2.73,10.81q-.57,2.27-1.14,4.54c-.14.58-.35.93-1.09.76a17.65,17.65,0,0,0-2.43-.23l-1.31-12.38Z" style="fill:#ffff01"/><path d="M151.56,114.55l-.79,2.35L145.3,116l.8-2.37Z" style="fill:#ffff01"/><path d="M120.33,114a17.24,17.24,0,0,1,.33-2,.89.89,0,0,1,.65-.44,8.53,8.53,0,0,1,1.59,0c1.09.07,2.17.17,3.35.26a16.49,16.49,0,0,1-.32,1.93.83.83,0,0,1-.65.43C123.67,114.14,122,114.06,120.33,114Z" style="fill:#ffff01"/><path d="M123.13,137.09h-2.29C121.54,136,122.14,136,123.13,137.09Z" style="fill:#ffff01"/><path d="M119.82,148.16h-2.19C118.34,147.11,118.91,147.1,119.82,148.16Z" style="fill:#ffff01"/><path d="M136,148.15c1.13-1,1.59-1,2.31,0Z" style="fill:#ffff01"/><path d="M161.55,137.13h-2l-.14-.26a3.31,3.31,0,0,1,1.12-.52,3.46,3.46,0,0,1,1.19.4Z" style="fill:#ffff01"/><path d="M139.12,137.07c.63-1,1.34-1.06,2.19,0Z" style="fill:#ffff01"/><path d="M100.69,136.48a1.28,1.28,0,0,1,1.3,1.41,1.37,1.37,0,0,1-1.43,1.55,1.31,1.31,0,0,1-1.38-1.36A1.38,1.38,0,0,1,100.69,136.48Z" style="fill:#ffff01"/></svg>