<svg xmlns="http://www.w3.org/2000/svg" viewBox="0 0 250 250"><defs><style>.a{fill:#67bc49;}.b{fill:#67bc48;}.c{fill:#fefefe;}.d{fill:#fcfcfc;}.e{fill:#fcfcfb;}</style></defs><title>Fast Food</title><path class="a" d="M243.75,112.29,238,114.66q-4.36,1.77-8.74,3.52c-.28.11-.64.45-.84.26s.08-.6.17-.91c.4-1.36.81-2.72,1.25-4.07.11-.35,0-.4-.29-.38a7.78,7.78,0,0,0-2.62.66,17.94,17.94,0,0,0-4,2.55,34.69,34.69,0,0,0-3.79,3.59c-1.39,1.47-2.65,3.06-3.92,4.64a52,52,0,0,0-5.93,10.07,58.22,58.22,0,0,0-2.73,7.13c-.63,1.89-1.29,3.77-1.94,5.66-.08.23-.17.37-.46.37H191.17a.85.85,0,0,1-.16,0c.45-1.32.9-2.65,1.36-4,.77-2.21,1.56-4.42,2.33-6.63.93-2.65,1.83-5.31,2.8-7.94a3.92,3.92,0,0,0,0-2c-.17-1.38-.43-2.74-.65-4.11-.26-1.62-.52-3.25-.77-4.87-.21-1.37-.38-2.75-.59-4.12s-.4-2.59-.6-3.89-.42-2.82-.64-4.23c-.1-.62-.2-1.24-.32-1.86s-.05-.72.57-.72c3.39,0,6.78,0,10.16,0,.5,0,.62.18.66.64.14,1.31.34,2.61.51,3.91.13,1,.25,2,.38,3,.18,1.32.36,2.64.54,4,.13,1,.26,1.95.36,2.93a4.71,4.71,0,0,1,.11,1.4,3.19,3.19,0,0,0,.84-1,61.68,61.68,0,0,1,4.54-5.9,37.75,37.75,0,0,1,7.55-6.62,14.44,14.44,0,0,1,6-2.19,41.63,41.63,0,0,1,6.23-.16c.67,0,.77-.2.92-.7.46-1.56,1-3.1,1.46-4.65h.23a3.25,3.25,0,0,1,.79,1.08q3.66,5.95,7.34,11.89a9,9,0,0,1,.56,1Z"/><path class="a" d="M6.25,137.14a15.57,15.57,0,0,0,2.27-.86c2.93-1.17,5.85-2.38,8.76-3.58,1.45-.6,2.89-1.22,4.34-1.83.1,0,.21-.07.32-.1s.38-.16.27.25c-.34,1.27-.83,2.49-1.21,3.74,0,.05,0,.1-.06.16-.44,1.37-.39,1.51,1,2a12.78,12.78,0,0,0,3.41.72,8.9,8.9,0,0,0,4.18-.61,3.3,3.3,0,0,0,2.21-2.19,4.4,4.4,0,0,0-.43-2.71,7.89,7.89,0,0,0-1.55-2.23,17.63,17.63,0,0,1-3.39-5.56,12.42,12.42,0,0,1-.8-4.46,14.26,14.26,0,0,1,.66-5.51,18.83,18.83,0,0,1,3.37-5.58,16.53,16.53,0,0,1,5.23-4,17.45,17.45,0,0,1,5.77-1.66,24.13,24.13,0,0,1,3.4-.21,20.27,20.27,0,0,1,6.29,1.29,16.56,16.56,0,0,1,3.26,1.51c.24.15.27.25.14.47q-2.32,4.39-4.62,8.79c-.17.33-.34.19-.53.09a18.3,18.3,0,0,0-3.4-1.48,6,6,0,0,0-3.67-.06,4.45,4.45,0,0,0-2.9,3.32,5.83,5.83,0,0,0,.77,4.27,34.4,34.4,0,0,0,3.36,4.49,14.32,14.32,0,0,1,3,5.92,11.15,11.15,0,0,1-.32,5.72,13.41,13.41,0,0,1-3,5,20.66,20.66,0,0,1-11.55,6,24.88,24.88,0,0,1-6.29.43,24.09,24.09,0,0,1-7-1.4c-.4-.15-.57-.17-.72.33-.43,1.47-1,2.91-1.44,4.36h-.23a16.36,16.36,0,0,1-1.53-2.35q-3.44-5.58-6.89-11.16a4.32,4.32,0,0,1-.5-1.06Z"/><path class="a" d="M127.94,130.2l2.18-4.54c1.2-2.49,2.43-5,3.61-7.46s2.53-5.24,3.81-7.85q1.61-3.27,3.16-6.56a.62.62,0,0,1,.66-.43q4.71,0,9.43,0c.4,0,.49.06.41.51-.32,1.65-.56,3.31-.84,5s-.55,3.17-.82,4.75-.58,3.31-.87,5c-.24,1.4-.48,2.81-.72,4.21q-.43,2.48-.86,5c-.12.69-.26,1.38-.39,2.11.24-.07.25-.23.31-.35l4.16-8.78,3.55-7.53,3.68-7.84c0-.1.07-.21.11-.31.63-1.67.63-1.67,2.4-1.67h9.6c.63,0,.65,0,.35.57L166.52,112l-3.38,6.31-3.51,6.57-3.35,6.26-4.35,8.12-3.29,6.16c-.33.62-.66,1.24-1,1.86-.14.25-.27.48-.65.47-3.69,0-7.38,0-11.07,0l-.22,0L140.31,121l-.06,0q-1.76,3.76-3.51,7.53-2.52,5.44-5,10.88l-2.78,6c-.32.69-.63,1.38-.92,2.07a.49.49,0,0,1-.53.36q-5.45,0-10.9,0c-.35,0-.48-.09-.44-.44.09-.78.17-1.55.26-2.33s.21-1.69.31-2.54q.22-1.85.43-3.7c.09-.77.16-1.55.25-2.33.14-1.27.3-2.54.44-3.82s.22-2.37.36-3.55.29-2.35.43-3.53.23-2.25.36-3.38.28-2.39.42-3.59c.09-.79.17-1.59.26-2.38.14-1.25.3-2.51.44-3.76s.23-2.29.35-3.44.29-2.43.43-3.65c.06-.54.11-1.07.13-1.61,0-.27.09-.35.36-.35h11.29c.26,0,.34,0,.28.35-.57,2.92-1.09,5.85-1.65,8.77-.39,2-.83,4.08-1.22,6.13-.59,3.1-1.14,6.21-1.71,9.32-.14.75-.31,1.49-.47,2.23Z"/><path class="a" d="M109.49,124.79c.52.41,1.06.77,1.53,1.21a10.26,10.26,0,0,1,3.27,6.34,10.13,10.13,0,0,1-.62,5.05,15,15,0,0,1-3.13,4.94,17.25,17.25,0,0,1-7.18,4.3,26.31,26.31,0,0,1-5.8,1.16c-.94.09-1.87.08-2.8.08q-8.1,0-16.2,0h-.72c.8-2.39,1.58-4.71,2.36-7q4.25-12.77,8.5-25.54,1.88-5.67,3.73-11.36a.57.57,0,0,1,.66-.46c4.29,0,8.58,0,12.87,0a23.52,23.52,0,0,1,5.93.56,8.61,8.61,0,0,1,3.79,2,6.31,6.31,0,0,1,1.92,3.79,13.72,13.72,0,0,1-1.48,8.36,13.92,13.92,0,0,1-6.33,6.43C109.69,124.66,109.6,124.72,109.49,124.79Z"/><path class="a" d="M70.71,103.71c-.76,2.31-1.51,4.58-2.26,6.84q-3.84,11.52-7.67,23a4.66,4.66,0,0,0-.33,2.48,1.94,1.94,0,0,0,2.32,1.5,4.5,4.5,0,0,0,3.55-3.22c2.76-7.48,5.11-15.11,7.68-22.65.86-2.52,1.68-5,2.5-7.58.11-.34.29-.42.64-.42q5.5,0,11,0c.53,0,.58.13.43.59q-2.86,8.52-5.71,17Q80.93,127.14,79,133a29.52,29.52,0,0,1-3.5,7.21,19.29,19.29,0,0,1-8,6.9,20.24,20.24,0,0,1-5.2,1.5,27.15,27.15,0,0,1-5.66.18,11,11,0,0,1-5.9-1.87,7.07,7.07,0,0,1-2.91-4.52,14.44,14.44,0,0,1,.18-6.14c.9-4,2.44-7.9,3.72-11.83,2.2-6.73,4.47-13.43,6.73-20.14.09-.26.12-.55.56-.55C62.88,103.72,66.75,103.71,70.71,103.71Z"/><path class="a" d="M152.26,147.6l2.11-3.93,5.47-10.16c.95-1.76,1.87-3.54,2.82-5.3,1.76-3.27,3.54-6.53,5.3-9.8,1-1.79,1.9-3.6,2.86-5.39,1.49-2.77,3.08-5.49,4.44-8.32a2.15,2.15,0,0,1,2.39-1.34c4.69.06,9.37,0,14.06,0,.58,0,.71.18.64.69q-.23,1.68-.44,3.36c-.13,1-.23,2.07-.35,3.1-.14,1.2-.3,2.39-.44,3.59s-.22,2.14-.35,3.21c-.17,1.45-.37,2.9-.55,4.36-.13,1.07-.23,2.14-.36,3.21s-.29,2.28-.43,3.42-.23,2.18-.36,3.27-.3,2.35-.44,3.53-.23,2.14-.35,3.21-.29,2.28-.42,3.42-.24,2.1-.36,3.15-.24,1.8-.33,2.71c0,.28-.15.29-.36.29H174.91c-.37,0-.51,0-.4-.46.38-1.52.72-3.05,1.06-4.58a16.13,16.13,0,0,0,.46-2.19c-2.41,0-4.82.09-7.22,0a2,2,0,0,0-2.25,1.34c-.89,1.83-1.92,3.59-2.88,5.38a.49.49,0,0,1-.5.33H152.51A1.92,1.92,0,0,1,152.26,147.6Z"/><path class="b" d="M211.18,148.21a2.25,2.25,0,1,1,0-4.49,2.11,2.11,0,0,1,2.3,2.29A2.15,2.15,0,0,1,211.18,148.21Z"/><path class="c" d="M95.84,138.16H94c-.28,0-.36-.05-.25-.36.82-2.41,1.62-4.83,2.44-7.25,0-.11.07-.3.28-.3,1.77,0,3.5.08,4.93,1.33a3,3,0,0,1,.67,3.33,4.81,4.81,0,0,1-4.8,3.24Z"/><path class="c" d="M98.54,120.86c.62-1.83,1.22-3.61,1.83-5.39.23-.66.48-1.32.71-2,.06-.17.07-.29.31-.3a16.55,16.55,0,0,1,3.45.24,2.15,2.15,0,0,1,1.77,2.88,5.77,5.77,0,0,1-4.83,4.33A12,12,0,0,1,98.54,120.86Z"/><path class="c" d="M172.08,131.49l8.24-15.42.09,0c-.12.81-.24,1.63-.37,2.44-.25,1.51-.52,3-.77,4.53-.28,1.7-.55,3.39-.83,5.09-.17,1-.36,2-.52,3,0,.18,0,.33-.26.33Z"/><path class="d" d="M212.26,147.32a1.6,1.6,0,0,1-2.08.08,1.88,1.88,0,0,1-.74-1.54,1.75,1.75,0,0,1,3.14-1,1.88,1.88,0,0,1,0,2.14c-.12.16-.22.26-.35,0s-.27-.35-.39-.54-.17-.32.11-.42.34-.5.31-.82a.56.56,0,0,0-.54-.53c-.05,0-.1-.05-.15-.07-.95-.27-1.22-.07-1.22.9,0,.49,0,1,0,1.47,0,.15,0,.3.22.3s.23-.13.23-.29a.25.25,0,0,1,0-.06c.06-.25-.16-.67.14-.74s.43.39.58.64A.72.72,0,0,0,212.26,147.32Z"/><path class="e" d="M211.09,145.73c-.27.06-.32-.1-.33-.38s.18-.32.4-.3.51,0,.51.36S211.37,145.71,211.09,145.73Z"/></svg>