<svg xmlns="http://www.w3.org/2000/svg" viewBox="0 0 250 250"><defs><style>.a{fill:#fefdfd;}.b{fill:#e93935;}.c{fill:#2eaf57;}.d{fill:#252122;}.e{fill:#262223;}.f{fill:#e93b37;}.g{fill:#272324;}.h{fill:#292526;}.i{fill:#282425;}.j{fill:#343031;}.k{fill:#fbfbfb;}.l{fill:#fafafa;}.m{fill:#f5f5f5;}</style></defs><title>Fast Casual</title><path class="a" d="M204.43,110.93l.36-1.6a25.68,25.68,0,0,1,3.81.43,20.49,20.49,0,0,1,16.09,16.67,23.48,23.48,0,0,1-1.49,12.32c-3.69,9.77-10,17.25-19.43,21.86-6.16,3-12.81,4.13-19.57,4.58a32,32,0,0,1-10.17-.85,5.7,5.7,0,0,0-1.19-.17,1,1,0,0,0-1,.37c-.22.37,0,.73.21,1a3.92,3.92,0,0,0,2.54,1.54,49.42,49.42,0,0,0,5.14.76,66.42,66.42,0,0,0,7.77,1,61.3,61.3,0,0,0,20.3-2.57c5.88-1.77,11.23-4.53,15.24-9.27,6.47-7.65,10-16.55,9.7-26.6a21.5,21.5,0,0,0-10.58-18.5,33,33,0,0,0-12.37-4.56,16.64,16.64,0,0,0-4.43-.52A45.59,45.59,0,0,1,208.05,98a8.83,8.83,0,0,0,.91-4.26c-.06-.69-.33-.84-.93-.49a3.26,3.26,0,0,0-1.11,1.24,36.88,36.88,0,0,0-3.76,8.18,7,7,0,0,1-.42,1c-.07.15-.18.38-.41.27s-.1-.29-.09-.43q.11-1.84.23-3.67c.17-2.47.83-4.89.75-7.4a7.75,7.75,0,0,1,.82-3.63,7.56,7.56,0,0,0,.49-1.35c.76-2.87-.92-4.83-3.87-4.54a11.52,11.52,0,0,0-1.8.35,3.54,3.54,0,0,0-2.7,2.86q-.34,1.48-.67,3a53.39,53.39,0,0,0-.72,6.52c-.23,2.46-.81,4.9-.59,7.4a4.06,4.06,0,0,1-.1.85,7.22,7.22,0,0,1-.5-1.74c-.76-4.31-.88-8.7-1.45-13A25.49,25.49,0,0,0,190,80.94a2,2,0,0,0-2.72-1.22,4.92,4.92,0,0,0-1.59.73,12.68,12.68,0,0,0-3.44,3.64,1.68,1.68,0,0,0-.18,1.45,10.55,10.55,0,0,0,1.8,3.27A6,6,0,0,1,185.27,92c.24,4.63,1.61,9.07,2.22,13.64a65.23,65.23,0,0,0-10.12-.71,30.25,30.25,0,0,0-15.9,4.68c-5.56,3.51-9,8.72-11.54,14.66-.26.62.07.59.49.58,2.72,0,5.45,0,8.17,0a1.31,1.31,0,0,0,1.23-.65,31.32,31.32,0,0,1,16.59-12,39,39,0,0,1,15.83-1.35,55.84,55.84,0,0,1,16,4.37,3.74,3.74,0,0,0,1.54.39c.58,0,.77-.24.55-.8a4.31,4.31,0,0,0-1.88-2A32,32,0,0,0,204.43,110.93ZM49.52,118a19.09,19.09,0,0,0,3-.19,19.48,19.48,0,0,0,8.52-3,7.55,7.55,0,0,0,3.17-4c1.15-3.7-.78-6.74-4.58-7.17-2.81-.31-5.59.14-8.38.29a15.43,15.43,0,0,1-5.09-.22c-1.84-.52-2.49-1.77-1.83-3.55a9.12,9.12,0,0,1,2.52-3.46,4.68,4.68,0,0,1,4-1.3,13.28,13.28,0,0,0,3,.1,1.74,1.74,0,0,0,1.64-1,4,4,0,0,0-.48-3.73c-.59-1-1.57-.84-2.45-.7-6.15,1-9.83,4-11.38,9.8a7.19,7.19,0,0,0,.43,5.08,4.6,4.6,0,0,0,3.33,2.85,13.21,13.21,0,0,0,4,.07,31,31,0,0,1,10,.1,1.85,1.85,0,0,1,1.64,1.21,2,2,0,0,1-.58,2.05A7.28,7.28,0,0,1,57.2,113a23.09,23.09,0,0,1-7.81,1.52A8.27,8.27,0,0,1,43.81,113a5.32,5.32,0,0,0-3.4-1c-.63,0-1.24.13-1.52.81a1.87,1.87,0,0,0,.25,2,5,5,0,0,0,1.71,1.29A18.89,18.89,0,0,0,49.52,118Zm29.42,21.43a10,10,0,0,0,.06,2.71,1.39,1.39,0,0,0,1.32,1.27A2.32,2.32,0,0,0,83,141.16,15.38,15.38,0,0,0,80.52,131a2.81,2.81,0,0,0-3.06-1.08,7.35,7.35,0,0,0-2.83,1.25c-1.11.73-2.18,1.54-3.31,2.25-1.94,1.21-2.29,1.1-3.43-.86a21.83,21.83,0,0,0-2.8-4.17,4.8,4.8,0,0,0-4.25-1.76,2,2,0,0,0-2,1.84,71.05,71.05,0,0,1-2.38,9.84,38.34,38.34,0,0,0-1.61,7.89c-.11,1.71.71,2.56,2.32,2.4a2,2,0,0,0,1.41-.83,5.17,5.17,0,0,0,.88-1.78,40.08,40.08,0,0,0,1.11-7.82,18.31,18.31,0,0,1,.65-4.09c.38-1.14.9-1.32,1.92-.69a5.33,5.33,0,0,1,1.7,1.88,16.82,16.82,0,0,0,1.62,2.56,3.12,3.12,0,0,0,3.32,1A8,8,0,0,0,72.87,137,24.28,24.28,0,0,1,75.3,135c1.67-1.05,3.18-.39,3.53,1.57A9.3,9.3,0,0,1,78.94,139.41Zm-51.66-1.18c0,2.27,0,4.53,0,6.79a16.48,16.48,0,0,0,.45,4.28,2,2,0,0,0,.7,1.21c1.21.84,2.27.55,2.79-.83a12.93,12.93,0,0,0,.57-4.58c0-4.62-.55-9.2-.77-13.81a22.11,22.11,0,0,1,.16-4.94,2.13,2.13,0,0,1,1.54-1.76,14.31,14.31,0,0,1,3-.56,13.36,13.36,0,0,0,3.45-.62,2,2,0,0,0,1.2-1.83c-.07-.75-.62-1.07-1.25-1.3a7.21,7.21,0,0,0-1.95-.41c-5.31-.41-10.6.13-15.88.53a8.12,8.12,0,0,0-3.59,1,1.19,1.19,0,0,0-.38,1.93,2.63,2.63,0,0,0,1.14.85,4.84,4.84,0,0,0,2,.35c1.25,0,2.51-.05,3.76-.11a2.27,2.27,0,0,1,2.43,1.65,15.21,15.21,0,0,1,.81,4.14A42.24,42.24,0,0,1,27.28,138.22Zm66.64-36.46c0-1.39-.43-2.13-1.25-2.35s-1.42.17-1.94,1.07a4.58,4.58,0,0,0-.52,1.33A16.52,16.52,0,0,0,89.9,105a17.52,17.52,0,0,1-.48,4.28.84.84,0,0,1-1,.7,4.43,4.43,0,0,1-2.88-1.7c-.76-.78-1.41-1.67-2.25-2.38a2.62,2.62,0,0,0-3.8.1,9.55,9.55,0,0,0-1.62,2.27,13.2,13.2,0,0,1-1.53,2.24.8.8,0,0,1-1.3.05,6.49,6.49,0,0,1-1.44-1.9c-.77-1.46-1.5-2.94-2.26-4.41a16.64,16.64,0,0,0-3.06-4.56,3.89,3.89,0,0,0-2-1.13c-.56-.1-1.17-.19-1.55.34s0,1,.22,1.49a16.56,16.56,0,0,0,2.11,2.81A15.85,15.85,0,0,1,70.42,109a24.78,24.78,0,0,0,1.69,4,8.17,8.17,0,0,0,1.49,2.16,2.36,2.36,0,0,0,3.32.25A6.33,6.33,0,0,0,79,113a16.45,16.45,0,0,1,.77-1.58,1.88,1.88,0,0,1,3-.64,8.91,8.91,0,0,1,2,2.07A21,21,0,0,0,87,115.5a3,3,0,0,0,4.06.32,4.73,4.73,0,0,0,1.9-3.13C93.73,109,93,105.11,93.92,101.77Zm50.54,15.69a2.17,2.17,0,0,0,.58,1.91,2.53,2.53,0,0,0,2.79,0,2.12,2.12,0,0,0,1.12-2.27c-.33-1.86-.84-3.68-1.28-5.52a79.63,79.63,0,0,1-2-9.44,2,2,0,0,1,1.31-2.39,12.32,12.32,0,0,1,3-.87,9.25,9.25,0,0,0,3-.91,1.43,1.43,0,0,0,.66-1.72,1.34,1.34,0,0,0-1.34-1,3.9,3.9,0,0,0-1.35.09c-1.37.34-2.72.76-4.11,1-2.06.38-2.31.14-2.69-1.9-.25-1.34-.26-2.71-.63-4a2,2,0,0,0-2.7-1.64c-1.61.44-2.17,1.3-1.77,2.81a14.64,14.64,0,0,0,.54,1.5,8.11,8.11,0,0,1,.63,2.14,2.05,2.05,0,0,1-1.86,2.49,12.42,12.42,0,0,1-2.47.08,6.52,6.52,0,0,0-4,1.33c-.5.38-1.1.76-1,1.52s.76,1.05,1.38,1.32a3.13,3.13,0,0,0,.93.23,6.73,6.73,0,0,0,2.89-.48,19,19,0,0,1,3-.95,2.27,2.27,0,0,1,2.42,1,7.16,7.16,0,0,1,1,2.25A51,51,0,0,1,144.46,117.45Zm-30.62,13.31c.65,0,.69,0,1.12.8a10.53,10.53,0,0,1,1.07,3.66,51.89,51.89,0,0,1-.41,14.34,6.11,6.11,0,0,0-.09,2.77,1.61,1.61,0,0,0,2.43,1.09,2.68,2.68,0,0,0,1.29-1.56,10.47,10.47,0,0,0,.63-3.44,88.22,88.22,0,0,0-.55-10.94,34.87,34.87,0,0,1-.15-6.55,1.31,1.31,0,0,1,1-1.23,15.85,15.85,0,0,1,2.75-.5c.41,0,.82-.13.92-.61a1,1,0,0,0-.59-1.11,3.76,3.76,0,0,0-1.29-.39l-2.46-.31a2.28,2.28,0,0,1-2.15-2c-.11-.63-.17-1.27-.25-1.9a6.5,6.5,0,0,0-.61-2.62,1.91,1.91,0,0,0-2.22-.84c-.79.28-.71,1-.68,1.61,0,.26.06.53.1.79.13.92.32,1.84.37,2.77a2.45,2.45,0,0,1-2,2.8,16.23,16.23,0,0,1-1.63.37,19.26,19.26,0,0,0-3.9.84,1.22,1.22,0,0,0-.82,1.17c0,.58.38.84.85,1a6.18,6.18,0,0,0,2.83.37C110.82,131.06,112.2,130.91,113.84,130.77ZM97.91,108a10.28,10.28,0,0,0,.34,2.7c.63,2.66,1.79,4.91,4.57,5.91a10.23,10.23,0,0,0,7,.39,4.33,4.33,0,0,0,2.65-2.5,1.32,1.32,0,0,0-.39-1.66c-.54-.42-1,0-1.42.3s-.67.61-1,.9a4.2,4.2,0,0,1-6.68-2.24c-.24-1.08-.11-1.39,1-1.74s2.25-.64,3.39-.91a5.92,5.92,0,0,0,4.53-4.94,4.34,4.34,0,0,0-2.4-5.07,6.36,6.36,0,0,0-3.67-.49A9.41,9.41,0,0,0,97.91,108Zm-1.65,20.49a4.45,4.45,0,0,0-3.64,2.25,67.31,67.31,0,0,0-5.37,11.47,5.28,5.28,0,0,0-.4,1.86c0,.81.3,1.12,1.08,1.18a2,2,0,0,0,2.26-1.38c.25-.61.43-1.26.67-1.87a2.21,2.21,0,0,1,1.06-1.35,32.4,32.4,0,0,1,7.72-2.5,1.35,1.35,0,0,1,1.43.6,25.49,25.49,0,0,1,1.8,3.11,6.88,6.88,0,0,0,1.7,2.2,1.28,1.28,0,0,0,1.74,0,1.83,1.83,0,0,0,.75-1.67,5.35,5.35,0,0,0-1-2.66,30.26,30.26,0,0,1-2.58-4.95,17.28,17.28,0,0,0-2-3.7A6.23,6.23,0,0,0,96.27,128.51Zm30.23-12c.63-.05,1.11-.06,1.58-.13a4.58,4.58,0,0,0,3.39-1.71c.4-.59.86-1.41.35-2s-1.29-.13-1.92.18l-.14.08A6.36,6.36,0,0,1,124,113c-1.23-.5-1.45-1.47-.66-2.57a5.25,5.25,0,0,1,2-1.48,23.54,23.54,0,0,0,2.81-1.51,2.59,2.59,0,0,0,1.07-1.35c.49-1.6-.46-4.39-2-5.13a6.38,6.38,0,0,0-6.49,0c-3.92,2.46-6,7.77-2.7,12.58a4.5,4.5,0,0,0,1.86,1.58A17.08,17.08,0,0,0,126.5,116.47Zm25.43,27.2a14.24,14.24,0,0,0,1.49-.12,4.92,4.92,0,0,0,3.85-2.25c.46-.8.29-1.09-.64-1.16a5.09,5.09,0,0,0-2.54.6,6.11,6.11,0,0,1-6.35-.66c-1-.69-1-1.43,0-2.09a10,10,0,0,1,2.52-1,20.93,20.93,0,0,0,4.21-1.46,4,4,0,0,0,2.26-3.61c0-1.61-1.12-2.44-2.43-3.06a6.85,6.85,0,0,0-1.05-.36c-4.15-1.18-8.46,1.37-10.36,3.82-2.21,2.85-1.15,8.72,2.83,10.11A19.61,19.61,0,0,0,151.93,143.67ZM43.59,132.22a6,6,0,0,0-1.83.18c-4.38.81-6.71,6.25-3.62,9.81A8.6,8.6,0,0,0,45,145.38a6.15,6.15,0,0,0,5.7-4.16,6.33,6.33,0,0,0-1.38-7A8.41,8.41,0,0,0,43.59,132.22ZM125,139a6.24,6.24,0,0,0,1,3.41c1.47,2.2,4.94,3.07,7.71,1.91a8.07,8.07,0,0,0,4.71-7.72c-.12-2.88-1.61-4.56-4.16-5a9.39,9.39,0,0,0-2.87.12C126.76,132.38,125.18,135.65,125,139Zm39.59,6.82h.56c4-.12,6-2.72,5-6.6a8.13,8.13,0,0,0-3.59-5.36,5.84,5.84,0,0,1-1.05-.86,2.88,2.88,0,0,1,.52-4.79,11.94,11.94,0,0,1,2.26-1,6.82,6.82,0,0,0,2.25-1.17c.52-.46.85-1,.43-1.68-.33-.55-.92-.62-1.7-.24-1,.48-2,1-2.95,1.42a17.09,17.09,0,0,0-3.48,1.93c-2.36,1.84-3.25,4.12-.93,6.84,1.07,1.26,2.19,2.48,3.28,3.72a7.47,7.47,0,0,1,1.43,2.2,2.14,2.14,0,0,1-1.05,2.78,4.35,4.35,0,0,1-1.37.4,27.35,27.35,0,0,0-2.85.4c-.32.09-.66.17-.71.55s.3.6.61.74A7,7,0,0,0,164.58,145.83Zm-14.19.93a4,4,0,0,0,.2.4c.2.29.39.58.6.85a44.41,44.41,0,0,0,6.51,6.49,28.08,28.08,0,0,0,9.18,5.08,5.61,5.61,0,0,1,3.19,2.29c.16.27.38.22.63.17,1.2-.2,1.72-1.16,2.3-2.06a.83.83,0,0,0,.12-1,.77.77,0,0,0-.93-.25,3.41,3.41,0,0,1-2.2-.17c-5.7-2.31-10.47-5.7-13.28-11.38-.14-.29-.28-.46-.64-.46C154.2,146.78,152.36,146.77,150.39,146.77ZM50.75,159.49h0q0,.68,0,1.36c0,1.05,0,1.05-1.06.95a3,3,0,0,0-3.32,2.35A3.09,3.09,0,0,0,48.41,168a5.14,5.14,0,0,0,3.86-.45c.29-.14.32-.32.32-.63,0-3.17-.1-6.34.05-9.51,0-.15.09-.39-.07-.43a3.06,3.06,0,0,0-1.73.12c-.43.14-.17.55-.18.83C50.66,158.42,50.72,159,50.75,159.49ZM116.56,162c0-1.41,0-2.75,0-4.08,0-1.12,0-1.16-1.08-1a4.66,4.66,0,0,1-.47.09c-.36,0-.43.21-.41.53.21,2.77,0,5.55.12,8.32,0,.52-.44,1.16.23,1.58a4,4,0,0,0,1.64.6,6.88,6.88,0,0,0,1.52,0,3.25,3.25,0,0,0,2.86-2.8,2.87,2.87,0,0,0-1.93-3.36A4,4,0,0,0,116.56,162Zm14.53,3.16c.68.81,1.23,1.45,1.77,2.1.92,1.12.92,1.12,2.08.31l.07,0c.32-.15.27-.3.05-.53-.55-.58-1.06-1.2-1.62-1.77-.37-.37-.45-.63,0-1s1-.94,1.55-1.44c-.23-.21-.4-.34-.54-.49-.53-.59-.93-.6-1.46.08a7.46,7.46,0,0,1-1.88,1.82c0-2.24,0-4.4,0-6.56,0-.23.14-.59-.08-.67a2.71,2.71,0,0,0-1.64.12c-.42.11-.23.49-.22.75.12,2.93.06,5.87.06,8.8,0,1.38,0,1.36,1.38,1.33.45,0,.52-.15.49-.56C131.06,166.73,131.09,166.06,131.09,165.17Zm-38.62,2.65.62.15a3,3,0,0,0,3.78-2.28,3.07,3.07,0,0,0-2.25-3.89,5.12,5.12,0,0,0-3.71.52c-.17.09-.3.15-.28.4a58.27,58.27,0,0,1,0,6.46c0,1.35,0,1.33,1.35,1.41.4,0,.51-.09.5-.47C92.45,169.37,92.47,168.62,92.47,167.81Zm-13.64-6.12a3.25,3.25,0,1,0-.1,6.5,3.25,3.25,0,0,0,3.46-3.29A3.19,3.19,0,0,0,78.82,161.69Zm10.31,3c0-.63,0-1.11,0-1.6,0-1.28,0-1.25-1.27-1.26-.51,0-.63.15-.61.64,0,1,0,1.92,0,2.88a1.08,1.08,0,0,1-1.19,1.17c-.8,0-.9-.56-.93-1.13s0-1.44,0-2.16c0-1.46,0-1.46-1.47-1.39h-.08c-.31,0-.41.09-.41.4,0,1.12,0,2.24,0,3.36.06,2.19,1.83,3.21,3.79,2.19.13-.07.34-.28.41-.14.4.91,1,.14,1.5.2.24,0,.44-.1.35-.46A14,14,0,0,1,89.13,164.7ZM32.83,164a3.41,3.41,0,0,0-2.65.09,2.08,2.08,0,0,0-.05,3.82,3.1,3.1,0,0,0,2.48,0c.16-.06.38-.3.48-.11.48.9,1.06,0,1.58.1.16,0,.23-.15.17-.35a20.16,20.16,0,0,1-.27-4.05,1.72,1.72,0,0,0-1.35-1.67,6,6,0,0,0-3.16.06c-.36.09-.76.15-.5.73s.28.86.9.47a2.29,2.29,0,0,1,.92-.25C32.22,162.74,32.57,163,32.83,164Zm92.89,0a3.43,3.43,0,0,0-2.56.12,2,2,0,0,0-1.32,2,2.08,2.08,0,0,0,1.52,1.94,3.16,3.16,0,0,0,2.25-.15c.14-.06.35-.25.41-.11.45.88,1,.1,1.55.15.22,0,.3-.12.23-.37a16.55,16.55,0,0,1-.26-3.89,1.73,1.73,0,0,0-1.37-1.81,6,6,0,0,0-3.38.13c-.33.1-.42.24-.3.57.18.51.32,1,1,.52a2.23,2.23,0,0,1,1-.23C125.27,162.78,125.62,163.11,125.71,164Zm-82.45,0a3.56,3.56,0,0,0-2.58.1,2,2,0,0,0-1.34,2,2,2,0,0,0,1.4,1.94,3.13,3.13,0,0,0,2.33-.09c.15-.06.35-.31.48-.09.53.9,1.11,0,1.66.07.11,0,.13-.19.09-.33a16.45,16.45,0,0,1-.27-4,1.67,1.67,0,0,0-1.14-1.66,5.75,5.75,0,0,0-3.69.08c-.26.08-.36.22-.24.47.2.43.22,1.1,1,.61a2.24,2.24,0,0,1,1.08-.24A1.06,1.06,0,0,1,43.27,164Zm96.59,1.49h1.76c.48,0,.7-.16.7-.71a3,3,0,0,0-4-3,3.08,3.08,0,0,0-2.22,2.74,3.14,3.14,0,0,0,1.54,3.25,4.27,4.27,0,0,0,4-.22c.11-.1.34-.21.17-.37-.36-.33-.5-1-1.3-.64A2.06,2.06,0,0,1,138,166c-.23-.36-.24-.59.29-.58S139.32,165.47,139.86,165.46Zm11.83-.09c-.47-1-.86-1.76-1.23-2.56-.55-1.21-.53-1.19-1.76-.67-.49.2-.48.42-.3.83a23.56,23.56,0,0,0,2.07,3.68.68.68,0,0,1,0,.91,12.88,12.88,0,0,1-1.59,1.78c-.12.12-.35.18-.29.42a1.19,1.19,0,0,0,1.69.52,20.11,20.11,0,0,0,4.4-7.77c.09-.25,0-.34-.19-.41a4.42,4.42,0,0,1-.75-.27c-.5-.28-.68-.07-.83.41A19.4,19.4,0,0,1,151.69,165.37ZM38.15,162.5h0c0-1.65,0-3.3,0-5,0-.63-.21-.79-.7-.64s-1.3-.23-1.29.83c.05,3,0,6,.06,8.95,0,1.29,0,1.25,1.27,1.28.55,0,.65-.17.64-.67C38.13,165.69,38.15,164.1,38.15,162.5Zm34.15,5.61a2.22,2.22,0,0,0,2.42-1.79c.15-1.08-.42-1.81-1.71-2.22a6.42,6.42,0,0,1-.67-.24c-.22-.1-.44-.24-.36-.54s.32-.34.57-.34a2.32,2.32,0,0,1,1.2.38c.49.3.53-.17.66-.4s.49-.4.11-.73a3.15,3.15,0,0,0-3.65.06,1.81,1.81,0,0,0,.43,3c.4.2.84.32,1.26.49.26.1.49.25.4.59a.58.58,0,0,1-.62.4,1.84,1.84,0,0,1-1.11-.39c-.27-.19-.41-.18-.6.14-.53.88-.53.94.4,1.34A2.85,2.85,0,0,0,72.3,168.11Zm-16.35,0a2.23,2.23,0,0,0,2.39-1.73c.16-1.13-.4-1.86-1.74-2.28a4.57,4.57,0,0,1-.67-.24c-.22-.11-.41-.29-.32-.57s.29-.28.52-.29a2.18,2.18,0,0,1,1.2.37c.26.16.39.13.57-.13.55-.79.52-.91-.37-1.27a3.38,3.38,0,0,0-1.8-.25,2.08,2.08,0,0,0-1.86,1.89c-.08.91.33,1.44,1.41,1.86l1,.37a.45.45,0,0,1,.34.48c0,.3-.25.39-.49.44a1.51,1.51,0,0,1-1.19-.33c-.36-.25-.51-.19-.71.18-.46.83-.45.89.4,1.25A3,3,0,0,0,56,168.11Zm46.44-5.7a3.71,3.71,0,0,0-2.55-.71,2.11,2.11,0,0,0-1.91,1.75c-.14,1,.27,1.58,1.41,2l1,.36a.44.44,0,0,1,.33.49c0,.25-.21.35-.43.41a1.45,1.45,0,0,1-1.27-.32c-.36-.25-.51-.18-.71.18-.46.83-.45.89.41,1.25a3.57,3.57,0,0,0,1.56.27,2.25,2.25,0,0,0,2.19-1.75,2,2,0,0,0-1.62-2.24c-.45-.16-1.34-.12-1.07-.83s1-.27,1.46,0,.71.18.91-.28C102.16,162.8,102.28,162.62,102.39,162.41Zm-77,5.7a2.27,2.27,0,0,0,2.44-1.79c.17-1-.46-1.82-1.74-2.22a4.91,4.91,0,0,1-.68-.23c-.21-.1-.44-.25-.36-.54s.31-.34.57-.34a2.68,2.68,0,0,1,1.2.38c.65.33.54-.38.78-.6s.19-.43-.13-.59a3.77,3.77,0,0,0-2.23-.48,2,2,0,0,0-1.88,1.76c-.11,1.06.24,1.56,1.4,2,.27.1.56.17.83.29s.59.24.45.63a.64.64,0,0,1-.72.38,2,2,0,0,1-1-.4c-.28-.22-.42-.15-.59.15-.52.87-.49,1,.49,1.37A2.78,2.78,0,0,0,25.41,168.11Zm119.82-5.69c-.09-1-.82-.44-1.26-.56s-.57.12-.56.56c0,1.44,0,2.88,0,4.32,0,1.24,0,1.22,1.27,1.21.46,0,.57-.11.53-.59a21.28,21.28,0,0,1,0-2.56c0-1,.55-1.34,1.48-1.16.16,0,.41.27.47,0,.14-.55.62-1.17.28-1.64s-1-.26-1.49,0A5.92,5.92,0,0,0,145.23,162.42Zm28.28-19.5a3,3,0,0,0,3.12,3.05,3.08,3.08,0,0,0,3.26-3,3.19,3.19,0,0,0-6.38,0Zm-109.26,20a1.59,1.59,0,0,0-1.66,1.57,1.63,1.63,0,0,0,3.26.06A1.57,1.57,0,0,0,64.25,162.95Zm45.61,1.56a1.54,1.54,0,0,0-1.66-1.56,1.6,1.6,0,0,0-1.6,1.64,1.68,1.68,0,0,0,1.68,1.59A1.61,1.61,0,0,0,109.86,164.51Z"/><path class="b" d="M205.37,106.86a16.64,16.64,0,0,1,4.43.52,33,33,0,0,1,12.37,4.56,21.5,21.5,0,0,1,10.58,18.5c.26,10.05-3.23,19-9.7,26.6-4,4.74-9.36,7.5-15.24,9.27a61.3,61.3,0,0,1-20.3,2.57,66.42,66.42,0,0,1-7.77-1,49.42,49.42,0,0,1-5.14-.76,3.92,3.92,0,0,1-2.54-1.54c-.2-.31-.43-.67-.21-1a1,1,0,0,1,1-.37,5.7,5.7,0,0,1,1.19.17,32,32,0,0,0,10.17.85c6.77-.45,13.41-1.58,19.57-4.58,9.47-4.61,15.75-12.1,19.43-21.86a23.48,23.48,0,0,0,1.49-12.32,20.49,20.49,0,0,0-16.09-16.67,25.68,25.68,0,0,0-3.81-.43A8.2,8.2,0,0,1,205.37,106.86Z"/><path class="c" d="M205.37,106.86a8.2,8.2,0,0,0-.57,2.47l-.36,1.6c-.4-.14-.81-.25-1.2-.41-2.34-1-4.69-1.88-7.09-2.68a79.58,79.58,0,0,0-8.65-2.19c-.61-4.57-2-9-2.22-13.64a6,6,0,0,0-1.35-3.19,10.55,10.55,0,0,1-1.8-3.27,1.68,1.68,0,0,1,.18-1.45,12.68,12.68,0,0,1,3.44-3.64,4.92,4.92,0,0,1,1.59-.73A2,2,0,0,1,190,80.94a25.49,25.49,0,0,1,2.08,8.17c.56,4.34.69,8.72,1.45,13a7.22,7.22,0,0,0,.5,1.74,4.06,4.06,0,0,0,.1-.85c-.22-2.5.36-4.94.59-7.4a53.39,53.39,0,0,1,.72-6.52q.33-1.48.67-3a3.54,3.54,0,0,1,2.7-2.86,11.52,11.52,0,0,1,1.8-.35c3-.29,4.63,1.67,3.87,4.54a7.56,7.56,0,0,1-.49,1.35,7.75,7.75,0,0,0-.82,3.63c.08,2.5-.58,4.92-.75,7.4q-.13,1.84-.23,3.67c0,.15-.08.35.09.43s.34-.12.41-.27a7,7,0,0,0,.42-1,36.88,36.88,0,0,1,3.76-8.18A3.26,3.26,0,0,1,208,93.25c.6-.35.87-.2.93.49a8.83,8.83,0,0,1-.91,4.26A45.59,45.59,0,0,0,205.37,106.86Z"/><path class="b" d="M187.49,105.65a79.58,79.58,0,0,1,8.65,2.19c2.4.79,4.76,1.71,7.09,2.68.39.16.8.27,1.2.41a32,32,0,0,1,4,1.87,4.31,4.31,0,0,1,1.88,2c.22.57,0,.79-.55.8a3.74,3.74,0,0,1-1.54-.39,55.84,55.84,0,0,0-16-4.37,39,39,0,0,0-15.83,1.35,31.32,31.32,0,0,0-16.59,12,1.31,1.31,0,0,1-1.23.65c-2.72,0-5.44,0-8.17,0-.42,0-.75,0-.49-.58,2.51-5.95,6-11.15,11.54-14.66a30.25,30.25,0,0,1,15.9-4.68A65.23,65.23,0,0,1,187.49,105.65Z"/><path class="d" d="M49.52,118a18.89,18.89,0,0,1-8.67-1.84,5,5,0,0,1-1.71-1.29,1.87,1.87,0,0,1-.25-2c.28-.68.88-.8,1.52-.81a5.32,5.32,0,0,1,3.4,1,8.27,8.27,0,0,0,5.58,1.51A23.09,23.09,0,0,0,57.2,113,7.28,7.28,0,0,0,60,111.27a2,2,0,0,0,.58-2.05A1.85,1.85,0,0,0,58.89,108a31,31,0,0,0-10-.1,13.21,13.21,0,0,1-4-.07A4.6,4.6,0,0,1,41.54,105a7.19,7.19,0,0,1-.43-5.08c1.55-5.8,5.24-8.82,11.38-9.8.88-.14,1.87-.26,2.45.7a4,4,0,0,1,.48,3.73,1.74,1.74,0,0,1-1.64,1,13.28,13.28,0,0,1-3-.1,4.68,4.68,0,0,0-4,1.3,9.12,9.12,0,0,0-2.52,3.46c-.66,1.78,0,3,1.83,3.55a15.43,15.43,0,0,0,5.09.22c2.79-.15,5.58-.61,8.38-.29,3.79.43,5.73,3.47,4.58,7.17a7.55,7.55,0,0,1-3.17,4,19.48,19.48,0,0,1-8.52,3A19.09,19.09,0,0,1,49.52,118Z"/><path class="d" d="M78.94,139.41a9.3,9.3,0,0,0-.11-2.79c-.35-2-1.85-2.62-3.53-1.57A24.28,24.28,0,0,0,72.87,137a8,8,0,0,1-3.06,1.82,3.12,3.12,0,0,1-3.32-1,16.82,16.82,0,0,1-1.62-2.56,5.33,5.33,0,0,0-1.7-1.88c-1-.62-1.54-.45-1.92.69a18.31,18.31,0,0,0-.65,4.09A40.08,40.08,0,0,1,59.47,146a5.17,5.17,0,0,1-.88,1.78,2,2,0,0,1-1.41.83c-1.6.17-2.42-.68-2.32-2.4a38.34,38.34,0,0,1,1.61-7.89,71.05,71.05,0,0,0,2.38-9.84,2,2,0,0,1,2-1.84,4.8,4.8,0,0,1,4.25,1.76,21.83,21.83,0,0,1,2.8,4.17c1.14,2,1.48,2.07,3.43.86,1.13-.7,2.19-1.51,3.31-2.25a7.35,7.35,0,0,1,2.83-1.25A2.81,2.81,0,0,1,80.52,131,15.38,15.38,0,0,1,83,141.16a2.32,2.32,0,0,1-2.69,2.22A1.39,1.39,0,0,1,79,142.12,10,10,0,0,1,78.94,139.41Z"/><path class="d" d="M27.28,138.22a42.24,42.24,0,0,0,.13-8,15.21,15.21,0,0,0-.81-4.14,2.27,2.27,0,0,0-2.43-1.65c-1.25.06-2.5.08-3.76.11a4.84,4.84,0,0,1-2-.35,2.63,2.63,0,0,1-1.14-.85,1.19,1.19,0,0,1,.38-1.93,8.12,8.12,0,0,1,3.59-1c5.29-.4,10.57-.94,15.88-.53a7.21,7.21,0,0,1,1.95.41c.62.23,1.18.55,1.25,1.3a2,2,0,0,1-1.2,1.83,13.36,13.36,0,0,1-3.45.62,14.31,14.31,0,0,0-3,.56,2.13,2.13,0,0,0-1.54,1.76A22.11,22.11,0,0,0,31,131.3c.22,4.61.79,9.19.77,13.81a12.93,12.93,0,0,1-.57,4.58c-.52,1.38-1.58,1.67-2.79.83a2,2,0,0,1-.7-1.21,16.48,16.48,0,0,1-.45-4.28C27.25,142.76,27.28,140.49,27.28,138.22Z"/><path class="d" d="M93.92,101.77c-.87,3.34-.19,7.2-1,10.92a4.73,4.73,0,0,1-1.9,3.13A3,3,0,0,1,87,115.5a21,21,0,0,1-2.2-2.64,8.91,8.91,0,0,0-2-2.07,1.88,1.88,0,0,0-3,.64A16.45,16.45,0,0,0,79,113a6.33,6.33,0,0,1-2.08,2.49,2.36,2.36,0,0,1-3.32-.25,8.17,8.17,0,0,1-1.49-2.16,24.78,24.78,0,0,1-1.69-4,15.85,15.85,0,0,0-3.36-5.83,16.56,16.56,0,0,1-2.11-2.81c-.25-.45-.59-1-.22-1.49s1-.44,1.55-.34a3.89,3.89,0,0,1,2,1.13,16.64,16.64,0,0,1,3.06,4.56c.76,1.46,1.49,2.95,2.26,4.41a6.49,6.49,0,0,0,1.44,1.9.8.8,0,0,0,1.3-.05,13.2,13.2,0,0,0,1.53-2.24A9.55,9.55,0,0,1,79.46,106a2.62,2.62,0,0,1,3.8-.1c.83.71,1.48,1.6,2.25,2.38a4.43,4.43,0,0,0,2.88,1.7.84.84,0,0,0,1-.7A17.52,17.52,0,0,0,89.9,105a16.52,16.52,0,0,1,.31-3.18,4.58,4.58,0,0,1,.52-1.33c.52-.9,1.2-1.27,1.94-1.07S94,100.37,93.92,101.77Z"/><path class="d" d="M144.46,117.45a51,51,0,0,0-2-13.45,7.16,7.16,0,0,0-1-2.25,2.27,2.27,0,0,0-2.42-1,19,19,0,0,0-3,.95,6.73,6.73,0,0,1-2.89.48,3.13,3.13,0,0,1-.93-.23c-.61-.27-1.25-.57-1.38-1.32s.48-1.14,1-1.52a6.52,6.52,0,0,1,4-1.33,12.42,12.42,0,0,0,2.47-.08,2.05,2.05,0,0,0,1.86-2.49,8.11,8.11,0,0,0-.63-2.14,14.64,14.64,0,0,1-.54-1.5c-.4-1.51.16-2.37,1.77-2.81a2,2,0,0,1,2.7,1.64c.37,1.32.38,2.69.63,4,.38,2,.64,2.28,2.69,1.9,1.38-.25,2.74-.67,4.11-1a3.9,3.9,0,0,1,1.35-.09,1.34,1.34,0,0,1,1.34,1,1.43,1.43,0,0,1-.66,1.72,9.25,9.25,0,0,1-3,.91,12.32,12.32,0,0,0-3,.87,2,2,0,0,0-1.31,2.39,79.63,79.63,0,0,0,2,9.44c.44,1.84,1,3.66,1.28,5.52a2.12,2.12,0,0,1-1.12,2.27,2.53,2.53,0,0,1-2.79,0A2.17,2.17,0,0,1,144.46,117.45Z"/><path class="d" d="M113.84,130.77c-1.63.14-3,.29-4.4.38a6.18,6.18,0,0,1-2.83-.37c-.47-.19-.85-.46-.85-1a1.22,1.22,0,0,1,.82-1.17,19.26,19.26,0,0,1,3.9-.84,16.23,16.23,0,0,0,1.63-.37,2.45,2.45,0,0,0,2-2.8c0-.93-.24-1.85-.37-2.77,0-.26-.08-.53-.1-.79,0-.64-.12-1.33.68-1.61a1.91,1.91,0,0,1,2.22.84,6.5,6.5,0,0,1,.61,2.62c.08.63.14,1.27.25,1.9a2.28,2.28,0,0,0,2.15,2l2.46.31a3.76,3.76,0,0,1,1.29.39,1,1,0,0,1,.59,1.11c-.09.49-.51.57-.92.61a15.85,15.85,0,0,0-2.75.5,1.31,1.31,0,0,0-1,1.23,34.87,34.87,0,0,0,.15,6.55,88.22,88.22,0,0,1,.55,10.94,10.47,10.47,0,0,1-.63,3.44,2.68,2.68,0,0,1-1.29,1.56,1.61,1.61,0,0,1-2.43-1.09,6.11,6.11,0,0,1,.09-2.77,51.89,51.89,0,0,0,.41-14.34,10.53,10.53,0,0,0-1.07-3.66C114.53,130.77,114.49,130.75,113.84,130.77Z"/><path class="e" d="M97.91,108a9.41,9.41,0,0,1,7.81-9.35,6.36,6.36,0,0,1,3.67.49,4.34,4.34,0,0,1,2.4,5.07,5.92,5.92,0,0,1-4.53,4.94c-1.14.28-2.28.56-3.39.91s-1.2.65-1,1.74a4.2,4.2,0,0,0,6.68,2.24c.35-.29.67-.61,1-.9s.88-.73,1.42-.3a1.32,1.32,0,0,1,.39,1.66,4.33,4.33,0,0,1-2.65,2.5,10.23,10.23,0,0,1-7-.39c-2.78-1-3.94-3.25-4.57-5.91A10.28,10.28,0,0,1,97.91,108Zm6.32-.77a4.78,4.78,0,0,0,4.06-3.9,1.32,1.32,0,0,0-.85-1.4,2.66,2.66,0,0,0-2.38.07,6,6,0,0,0-2.5,2.61C101.85,106.09,102.6,107.25,104.23,107.24Z"/><path class="d" d="M96.27,128.51a6.23,6.23,0,0,1,5.18,2.59,17.28,17.28,0,0,1,2,3.7,30.26,30.26,0,0,0,2.58,4.95,5.35,5.35,0,0,1,1,2.66,1.83,1.83,0,0,1-.75,1.67,1.28,1.28,0,0,1-1.74,0,6.88,6.88,0,0,1-1.7-2.2,25.49,25.49,0,0,0-1.8-3.11,1.35,1.35,0,0,0-1.43-.6,32.4,32.4,0,0,0-7.72,2.5A2.21,2.21,0,0,0,90.88,142c-.24.62-.42,1.26-.67,1.87a2,2,0,0,1-2.26,1.38c-.78-.06-1.06-.37-1.08-1.18a5.28,5.28,0,0,1,.4-1.86,67.31,67.31,0,0,1,5.37-11.47A4.45,4.45,0,0,1,96.27,128.51Zm-.91,8a5.33,5.33,0,0,0,2.91-.93c.28-.18.5-.38.43-.77A2.45,2.45,0,0,0,96.54,133a2.53,2.53,0,0,0-2.31,1.67C93.59,135.92,94,136.54,95.36,136.55Z"/><path class="d" d="M126.5,116.47a17.08,17.08,0,0,1-6.61-1.34,4.5,4.5,0,0,1-1.86-1.58c-3.33-4.81-1.22-10.12,2.7-12.58a6.38,6.38,0,0,1,6.49,0c1.5.74,2.45,3.53,2,5.13a2.59,2.59,0,0,1-1.07,1.35,23.54,23.54,0,0,1-2.81,1.51,5.25,5.25,0,0,0-2,1.48c-.79,1.1-.58,2.07.66,2.57a6.36,6.36,0,0,0,5.77-.13l.14-.08c.63-.31,1.44-.71,1.92-.18s.06,1.38-.35,2a4.58,4.58,0,0,1-3.39,1.71C127.61,116.42,127.13,116.42,126.5,116.47Zm-2.76-13.56c-1.14,0-2.45,1.18-2.94,2.68-.2.6-.33,1.23.22,1.7a1.59,1.59,0,0,0,1.94,0,4.93,4.93,0,0,0,2.13-2.5C125.56,103.66,125,102.93,123.74,102.92Z"/><path class="e" d="M151.93,143.67a19.61,19.61,0,0,1-6.17-1.23c-4-1.39-5-7.26-2.83-10.11,1.89-2.45,6.21-5,10.36-3.82a6.85,6.85,0,0,1,1.05.36c1.31.62,2.45,1.46,2.43,3.06a4,4,0,0,1-2.26,3.61A20.93,20.93,0,0,1,150.3,137a10,10,0,0,0-2.52,1c-1.06.66-1.06,1.41,0,2.09a6.11,6.11,0,0,0,6.35.66,5.09,5.09,0,0,1,2.54-.6c.93.07,1.1.35.64,1.16a4.92,4.92,0,0,1-3.85,2.25A14.24,14.24,0,0,1,151.93,143.67Zm-3.21-8.34a4.11,4.11,0,0,0,3.9-2.63,1.35,1.35,0,0,0-1-1.91,4,4,0,0,0-4.44,1.89C146.23,134.62,146.48,135.06,148.72,135.33Z"/><path class="d" d="M43.59,132.22a8.41,8.41,0,0,1,5.75,2,6.33,6.33,0,0,1,1.38,7,6.15,6.15,0,0,1-5.7,4.16,8.6,8.6,0,0,1-6.87-3.17c-3.09-3.56-.77-9,3.62-9.81A6,6,0,0,1,43.59,132.22Zm-.48,3.52a2.73,2.73,0,0,0-1.59.42,1.19,1.19,0,0,0-.61,1.13,4.39,4.39,0,0,0,3,3.82,1.85,1.85,0,0,0,1.85-.41,2.66,2.66,0,0,0-.6-4.46A4.79,4.79,0,0,0,43.11,135.74Z"/><path class="d" d="M125,139c.18-3.36,1.77-6.63,6.38-7.27a9.39,9.39,0,0,1,2.87-.12c2.55.43,4,2.11,4.16,5a8.07,8.07,0,0,1-4.71,7.72c-2.77,1.15-6.24.29-7.71-1.91A6.23,6.23,0,0,1,125,139Zm7-3.75a3.75,3.75,0,0,0-3.47,3.76,2,2,0,0,0,.95,1.58,3.38,3.38,0,0,0,3.35.26,3.5,3.5,0,0,0,1.91-3.63A2.59,2.59,0,0,0,132,135.26Z"/><path class="e" d="M164.58,145.83a7,7,0,0,1-3.33-.7c-.31-.15-.66-.32-.61-.74s.4-.46.71-.55a27.35,27.35,0,0,1,2.85-.4,4.35,4.35,0,0,0,1.37-.4,2.14,2.14,0,0,0,1.05-2.78,7.47,7.47,0,0,0-1.43-2.2c-1.09-1.24-2.21-2.46-3.28-3.72-2.32-2.72-1.43-5,.93-6.84a17.09,17.09,0,0,1,3.48-1.93c1-.45,2-.94,2.95-1.42.78-.38,1.36-.3,1.7.24.43.7.09,1.22-.43,1.68a6.82,6.82,0,0,1-2.25,1.17,11.94,11.94,0,0,0-2.26,1,2.88,2.88,0,0,0-.52,4.79,5.84,5.84,0,0,0,1.05.86,8.13,8.13,0,0,1,3.59,5.36c1,3.87-1,6.48-5,6.6Z"/><path class="f" d="M150.39,146.77c2,0,3.81,0,5.65,0,.36,0,.5.17.64.46,2.8,5.68,7.58,9.07,13.28,11.38a3.41,3.41,0,0,0,2.2.17.77.77,0,0,1,.93.25.83.83,0,0,1-.12,1c-.58.9-1.09,1.86-2.3,2.06-.24,0-.46.1-.63-.17a5.61,5.61,0,0,0-3.19-2.29,28.08,28.08,0,0,1-9.18-5.08,44.41,44.41,0,0,1-6.51-6.49c-.21-.27-.4-.56-.6-.85A4,4,0,0,1,150.39,146.77Z"/><path class="g" d="M50.75,159.49c0-.53-.09-1.06-.08-1.59,0-.28-.26-.69.18-.83a3.06,3.06,0,0,1,1.73-.12c.17,0,.08.28.07.43-.15,3.17-.06,6.34-.05,9.51,0,.31,0,.48-.32.63a5.14,5.14,0,0,1-3.86.45,3.09,3.09,0,0,1-2.06-3.82,3,3,0,0,1,3.32-2.35c1.06.11,1.06.11,1.06-.95q0-.68,0-1.36Zm0,5.63c0-.39,0-.71,0-1a.55.55,0,0,0-.34-.56,1.56,1.56,0,0,0-1.9.3,1.82,1.82,0,0,0-.13,2.09,1.53,1.53,0,0,0,1.83.59C51.09,166.3,50.6,165.55,50.73,165.12Z"/><path class="e" d="M116.56,162a4,4,0,0,1,2.49-.06A2.87,2.87,0,0,1,121,165.3a3.25,3.25,0,0,1-2.86,2.8,6.88,6.88,0,0,1-1.52,0,4,4,0,0,1-1.64-.6c-.67-.42-.21-1.06-.23-1.58-.1-2.77.09-5.55-.12-8.32,0-.32,0-.52.41-.53a4.66,4.66,0,0,0,.47-.09c1.12-.17,1.12-.14,1.08,1C116.53,159.26,116.56,160.59,116.56,162Zm0,2.89c0,.39,0,.71,0,1a.55.55,0,0,0,.24.55,1.85,1.85,0,0,0,2.14-.59,1.58,1.58,0,0,0-.24-2.21,1.66,1.66,0,0,0-1.8-.14C116.19,163.86,116.69,164.49,116.53,164.89Z"/><path class="d" d="M131.09,165.17c0,.9,0,1.57,0,2.23,0,.41,0,.55-.49.56-1.41,0-1.38.05-1.38-1.33,0-2.93.06-5.87-.06-8.8,0-.26-.2-.64.22-.75A2.71,2.71,0,0,1,131,157c.21.08.08.44.08.67,0,2.16,0,4.32,0,6.56a7.46,7.46,0,0,0,1.88-1.82c.53-.68.94-.67,1.46-.08.14.16.31.28.54.49-.53.5-1,1-1.55,1.44s-.38.63,0,1c.56.57,1.07,1.19,1.62,1.77.22.23.26.38-.05.53l-.07,0c-1.16.82-1.16.82-2.08-.31C132.32,166.62,131.77,166,131.09,165.17Z"/><path class="g" d="M92.47,167.81c0,.81,0,1.55,0,2.3,0,.38-.1.49-.5.47-1.36-.08-1.37-.06-1.35-1.41a58.27,58.27,0,0,0,0-6.46c0-.26.11-.32.28-.4a5.12,5.12,0,0,1,3.71-.52,3.07,3.07,0,0,1,2.25,3.89A3,3,0,0,1,93.09,168Zm0-3c.18.47-.28,1.08.31,1.47a1.71,1.71,0,0,0,1.94-.18,1.85,1.85,0,0,0,.25-2.09,1.61,1.61,0,0,0-1.88-.69C92.1,163.49,92.61,164.25,92.44,164.78Z"/><path class="h" d="M78.82,161.69a3.19,3.19,0,0,1,3.36,3.2,3.25,3.25,0,0,1-3.46,3.29,3.25,3.25,0,1,1,.1-6.5Zm-1.66,3.21a1.61,1.61,0,1,0,3.2,0,1.6,1.6,0,1,0-3.2,0Z"/><path class="g" d="M89.13,164.7a14,14,0,0,0,.11,2.72c.09.35-.11.49-.35.46-.49-.06-1.1.71-1.5-.2-.06-.14-.27.07-.41.14-2,1-3.73,0-3.79-2.19,0-1.12,0-2.24,0-3.36,0-.32.09-.44.41-.4h.08c1.47-.08,1.47-.08,1.47,1.39,0,.72,0,1.44,0,2.16s.13,1.15.93,1.13a1.08,1.08,0,0,0,1.19-1.17c0-1,0-1.92,0-2.88,0-.48.1-.64.61-.64,1.28,0,1.28,0,1.27,1.26C89.13,163.59,89.13,164.07,89.13,164.7Z"/><path class="h" d="M32.83,164c-.25-1-.61-1.27-1.45-1.16a2.29,2.29,0,0,0-.92.25c-.63.39-.71,0-.9-.47s.14-.64.5-.73a6,6,0,0,1,3.16-.06,1.72,1.72,0,0,1,1.35,1.67,20.16,20.16,0,0,0,.27,4.05c.06.2,0,.38-.17.35-.52-.1-1.1.79-1.58-.1-.11-.2-.32,0-.48.11a3.1,3.1,0,0,1-2.48,0,2.08,2.08,0,0,1,.05-3.82A3.41,3.41,0,0,1,32.83,164Zm0,1.88a1,1,0,0,0-1.1-1,1.09,1.09,0,0,0-1.1,1,1.12,1.12,0,0,0,1.14,1A1,1,0,0,0,32.85,165.89Z"/><path class="i" d="M125.71,164c-.09-.86-.44-1.19-1.22-1.14a2.23,2.23,0,0,0-1,.23c-.69.43-.83,0-1-.52-.12-.33,0-.47.3-.57a6,6,0,0,1,3.38-.13,1.73,1.73,0,0,1,1.37,1.81,16.55,16.55,0,0,0,.26,3.89c.07.25,0,.4-.23.37-.51-.06-1.1.73-1.55-.15-.07-.13-.28.05-.41.11a3.16,3.16,0,0,1-2.25.15,2.08,2.08,0,0,1-1.52-1.94,2,2,0,0,1,1.32-2A3.43,3.43,0,0,1,125.71,164Zm.08,2a1,1,0,0,0-1.06-1,1,1,0,0,0-1.11,1,1,1,0,0,0,1.08,1A1,1,0,0,0,125.8,165.93Z"/><path class="i" d="M43.27,164a1.06,1.06,0,0,0-1.21-1.14,2.24,2.24,0,0,0-1.08.24c-.8.49-.83-.17-1-.61-.11-.25,0-.39.24-.47a5.75,5.75,0,0,1,3.69-.08A1.67,1.67,0,0,1,45,163.57a16.45,16.45,0,0,0,.27,4c0,.14,0,.35-.09.33-.55-.11-1.13.83-1.66-.07-.13-.22-.33,0-.48.09a3.13,3.13,0,0,1-2.33.09,2,2,0,0,1-1.4-1.94,2,2,0,0,1,1.34-2A3.56,3.56,0,0,1,43.27,164Zm-1,3a1,1,0,0,0,1-1.08,1,1,0,0,0-1.1-1A1,1,0,0,0,41.12,166,1.07,1.07,0,0,0,42.27,167Z"/><path class="i" d="M139.86,165.47c-.53,0-1.07,0-1.6,0s-.52.22-.29.58a2.06,2.06,0,0,0,2.48.49c.8-.36.94.31,1.3.64.16.15-.06.27-.17.37a4.27,4.27,0,0,1-4,.22,3.14,3.14,0,0,1-1.54-3.25,3.08,3.08,0,0,1,2.22-2.74,3,3,0,0,1,4,3c0,.54-.22.71-.7.71Zm-.68-1.21c.29,0,.59,0,.88,0,.64.05.58-.26.36-.66a1.45,1.45,0,0,0-2.21-.3c-.24.22-.49.5-.38.82s.46.1.71.14A4.52,4.52,0,0,0,139.18,164.26Z"/><path class="i" d="M151.69,165.37a19.4,19.4,0,0,0,1.22-3.13c.15-.48.33-.69.83-.41a4.42,4.42,0,0,0,.75.27c.21.07.28.16.19.41a20.11,20.11,0,0,1-4.4,7.77,1.19,1.19,0,0,1-1.69-.52c-.07-.24.16-.31.29-.42a12.88,12.88,0,0,0,1.59-1.78.68.68,0,0,0,0-.91A23.56,23.56,0,0,1,148.4,163c-.18-.41-.18-.62.3-.83,1.23-.52,1.21-.54,1.76.67C150.82,163.61,151.21,164.39,151.69,165.37Z"/><path class="h" d="M38.15,162.5c0,1.6,0,3.2,0,4.79,0,.5-.09.68-.64.67-1.27,0-1.27,0-1.27-1.28,0-3,0-6-.06-8.95,0-1.06.8-.68,1.29-.83s.73,0,.7.64c-.06,1.65,0,3.3,0,5Z"/><path class="h" d="M72.3,168.11a2.85,2.85,0,0,1-1.28-.26c-.94-.39-.94-.46-.4-1.34.19-.32.33-.33.6-.14a1.84,1.84,0,0,0,1.11.39.58.58,0,0,0,.62-.4c.09-.34-.14-.49-.4-.59-.42-.17-.86-.29-1.26-.49a1.81,1.81,0,0,1-.43-3,3.15,3.15,0,0,1,3.65-.06c.39.33,0,.52-.11.73s-.17.7-.66.4a2.32,2.32,0,0,0-1.2-.38c-.25,0-.49,0-.57.34s.14.44.36.54a6.42,6.42,0,0,0,.67.24c1.29.41,1.86,1.14,1.71,2.22A2.22,2.22,0,0,1,72.3,168.11Z"/><path class="h" d="M56,168.11a3,3,0,0,1-1.36-.28c-.86-.36-.86-.42-.4-1.25.2-.36.35-.43.71-.18a1.51,1.51,0,0,0,1.19.33c.24-.05.47-.14.49-.44a.45.45,0,0,0-.34-.48l-1-.37c-1.08-.41-1.49-.95-1.41-1.86a2.08,2.08,0,0,1,1.86-1.89,3.38,3.38,0,0,1,1.8.25c.89.36.91.48.37,1.27-.18.26-.31.29-.57.13a2.18,2.18,0,0,0-1.2-.37c-.22,0-.44.05-.52.29s.09.46.32.57a4.57,4.57,0,0,0,.67.24c1.34.42,1.9,1.15,1.74,2.28A2.23,2.23,0,0,1,56,168.11Z"/><path class="h" d="M102.39,162.41c-.12.21-.24.39-.32.58-.2.46-.43.55-.91.28s-1.21-.66-1.46,0,.62.68,1.07.83a2,2,0,0,1,1.62,2.24,2.25,2.25,0,0,1-2.19,1.75,3.57,3.57,0,0,1-1.56-.27c-.86-.36-.87-.43-.41-1.25.2-.36.35-.44.71-.18a1.45,1.45,0,0,0,1.27.32c.21-.06.4-.17.43-.41a.44.44,0,0,0-.33-.49l-1-.36c-1.14-.43-1.55-1-1.41-2a2.11,2.11,0,0,1,1.91-1.75A3.71,3.71,0,0,1,102.39,162.41Z"/><path class="i" d="M25.41,168.11a2.78,2.78,0,0,1-1.2-.22c-1-.36-1-.5-.49-1.37.18-.3.31-.37.59-.15a2,2,0,0,0,1,.4.64.64,0,0,0,.72-.38c.14-.39-.19-.51-.45-.63s-.55-.19-.83-.29c-1.17-.44-1.51-.94-1.4-2a2,2,0,0,1,1.88-1.76,3.77,3.77,0,0,1,2.23.48c.32.16.38.37.13.59s-.13.93-.78.6a2.68,2.68,0,0,0-1.2-.38c-.26,0-.5.06-.57.34s.15.44.36.54a4.91,4.91,0,0,0,.68.23c1.28.4,1.9,1.2,1.74,2.22A2.27,2.27,0,0,1,25.41,168.11Z"/><path class="i" d="M145.23,162.42A5.92,5.92,0,0,1,146,162c.51-.21,1.19-.38,1.49,0s-.14,1.09-.28,1.64c-.07.27-.31,0-.47,0-.93-.17-1.44.2-1.48,1.16a21.28,21.28,0,0,0,0,2.56c0,.48-.07.59-.53.59-1.27,0-1.27,0-1.27-1.21,0-1.44,0-2.88,0-4.32,0-.44.1-.69.56-.56S145.14,161.43,145.23,162.42Z"/><path class="j" d="M173.51,142.92a3.19,3.19,0,0,1,6.38,0,3.08,3.08,0,0,1-3.26,3A3,3,0,0,1,173.51,142.92Zm5.77.05a2.55,2.55,0,0,0-2.54-2.45,2.45,2.45,0,1,0,0,4.9A2.58,2.58,0,0,0,179.28,143Z"/><path class="h" d="M64.25,162.95a1.57,1.57,0,0,1,1.6,1.63,1.63,1.63,0,0,1-3.26-.06A1.59,1.59,0,0,1,64.25,162.95Z"/><path class="h" d="M109.86,164.51a1.61,1.61,0,0,1-1.57,1.67,1.68,1.68,0,0,1-1.68-1.59,1.6,1.6,0,0,1,1.6-1.64A1.54,1.54,0,0,1,109.86,164.51Z"/><path class="k" d="M104.23,107.24c-1.64,0-2.39-1.15-1.67-2.62a6,6,0,0,1,2.5-2.61,2.66,2.66,0,0,1,2.38-.07,1.32,1.32,0,0,1,.85,1.4A4.78,4.78,0,0,1,104.23,107.24Z"/><path class="l" d="M95.36,136.55c-1.38,0-1.78-.63-1.13-1.86A2.53,2.53,0,0,1,96.54,133a2.45,2.45,0,0,1,2.16,1.83c.07.39-.15.6-.43.77A5.33,5.33,0,0,1,95.36,136.55Z"/><path class="l" d="M123.74,102.92c1.29,0,1.82.75,1.34,1.93a4.93,4.93,0,0,1-2.13,2.5,1.59,1.59,0,0,1-1.94,0c-.55-.47-.42-1.1-.22-1.7C121.29,104.1,122.59,102.91,123.74,102.92Z"/><path class="k" d="M148.72,135.33c-2.24-.27-2.49-.72-1.53-2.65a4,4,0,0,1,4.44-1.89,1.35,1.35,0,0,1,1,1.91A4.11,4.11,0,0,1,148.72,135.33Z"/><path class="k" d="M43.11,135.74a4.79,4.79,0,0,1,2.07.5,2.66,2.66,0,0,1,.6,4.46,1.85,1.85,0,0,1-1.85.41,4.39,4.39,0,0,1-3-3.82,1.19,1.19,0,0,1,.61-1.13A2.73,2.73,0,0,1,43.11,135.74Z"/><path class="k" d="M132,135.26a2.59,2.59,0,0,1,2.74,2,3.5,3.5,0,0,1-1.91,3.63,3.38,3.38,0,0,1-3.35-.26,2,2,0,0,1-.95-1.58A3.75,3.75,0,0,1,132,135.26Z"/><path class="m" d="M50.73,165.12c-.14.43.35,1.18-.54,1.38a1.53,1.53,0,0,1-1.83-.59,1.82,1.82,0,0,1,.13-2.09,1.56,1.56,0,0,1,1.9-.3.55.55,0,0,1,.34.56C50.72,164.41,50.73,164.73,50.73,165.12Z"/><path class="m" d="M116.53,164.89c.16-.4-.33-1,.33-1.36a1.66,1.66,0,0,1,1.8.14,1.58,1.58,0,0,1,.24,2.21,1.85,1.85,0,0,1-2.14.59.55.55,0,0,1-.24-.55C116.53,165.6,116.53,165.28,116.53,164.89Z"/><path class="l" d="M92.44,164.78c.16-.53-.35-1.29.62-1.49a1.61,1.61,0,0,1,1.88.69,1.85,1.85,0,0,1-.25,2.09,1.71,1.71,0,0,1-1.94.18C92.16,165.86,92.62,165.25,92.44,164.78Z"/><path class="l" d="M77.17,164.9a1.6,1.6,0,1,1,3.2,0,1.61,1.61,0,1,1-3.2,0Z"/><path class="m" d="M32.85,165.89A1,1,0,0,1,31.79,167a1.12,1.12,0,0,1-1.14-1,1.09,1.09,0,0,1,1.1-1A1,1,0,0,1,32.85,165.89Z"/><path class="m" d="M125.8,165.93a1,1,0,0,1-1.09,1,1,1,0,0,1-1.08-1,1,1,0,0,1,1.11-1A1,1,0,0,1,125.8,165.93Z"/><path class="m" d="M42.27,167a1.07,1.07,0,0,1-1.14-1,1,1,0,0,1,1.06-1.06,1,1,0,0,1,1.1,1A1,1,0,0,1,42.27,167Z"/><path class="l" d="M139.18,164.26a4.52,4.52,0,0,1-.64,0c-.24,0-.59.17-.71-.14s.14-.6.38-.82a1.45,1.45,0,0,1,2.21.3c.22.4.28.72-.36.66C139.76,164.24,139.47,164.26,139.18,164.26Z"/><path class="m" d="M179.28,143a2.58,2.58,0,0,1-2.56,2.45,2.45,2.45,0,1,1,2.56-2.45Zm-4-.06c0,.35,0,.69,0,1s-.13.7.46.7.51-.31.51-.67c0-.18-.12-.49.2-.5s.61,0,.72.38a2.55,2.55,0,0,1,.06.47c0,.43.38.27.62.3s.31-.17.28-.41,0-.65-.27-.89-.24-.21,0-.36a.81.81,0,0,0,.25-1.13,1.13,1.13,0,0,0-1.09-.53C175.28,141.24,175.28,141.23,175.28,142.91Z"/><path class="j" d="M175.28,142.91c0-1.68,0-1.67,1.71-1.6a1.13,1.13,0,0,1,1.09.53.81.81,0,0,1-.25,1.13c-.21.15-.09.25,0,.36s.23.58.27.89,0,.45-.28.41-.57.13-.62-.3a2.55,2.55,0,0,0-.06-.47c-.11-.35-.43-.4-.72-.38s-.2.32-.2.5c0,.37,0,.67-.51.67s-.45-.38-.46-.7S175.28,143.26,175.28,142.91Zm1-.44c0,.18,0,.37.36.34s.61-.06.61-.45-.35-.4-.63-.44S176.25,142.15,176.24,142.47Z"/><path class="m" d="M176.24,142.47c0-.32,0-.6.34-.54s.62,0,.63.44-.3.42-.61.45S176.2,142.65,176.24,142.47Z"/></svg>