<svg id="Layer_1" data-name="Layer 1" xmlns="http://www.w3.org/2000/svg" viewBox="0 0 250 250"><defs><style>.cls-1{fill:#292524;}.cls-2{fill:#785ca6;}.cls-15,.cls-3{fill:#795ca6;}.cls-4{fill:#609936;}.cls-5{fill:#e81c27;}.cls-6{fill:#785ba5;}.cls-7{fill:#edc184;}.cls-8{fill:#f7f7f8;}.cls-9{fill:#9dc965;}.cls-10{fill:#5b9332;}.cls-11{fill:#e41c27;}.cls-12{fill:#fafafa;}.cls-13{fill:#e8bd81;}.cls-14{fill:#9ac563;}.cls-15{font-size:4.67px;font-family:MyriadPro-Regular, Myriad Pro;}</style></defs><title>Coke_Dine</title><path class="cls-1" d="M89.27,110.13l.43-4.88c.2-2.3.38-4.59.63-6.88a1.84,1.84,0,0,0-.73-1.71A28.79,28.79,0,0,0,81.5,92,10.45,10.45,0,0,1,84,90.25a77.25,77.25,0,0,1,8.31-3.78c.51-.21.75-.35.56-1a6.06,6.06,0,0,1,.8-5A16.68,16.68,0,0,1,99.38,75a42.08,42.08,0,0,1,13.55-5.38,60.71,60.71,0,0,1,17.34-1.37c7.83.48,15.38,2.13,22.28,6.05a19.19,19.19,0,0,1,5.95,4.93c1.47,1.93,2.39,4,1.58,6.5-.18.56.27.54.54.66A85.17,85.17,0,0,1,169,90.24,12.11,12.11,0,0,1,171.59,92a28,28,0,0,0-7.94,4.46,2.11,2.11,0,0,0-.89,2.07c.39,3.87.69,7.74,1,11.63-.28.06-.45-.17-.65-.3a36,36,0,0,0-14.91-5.3c-.56-.08-.9,0-1.12.57a2.77,2.77,0,0,1-1.53,1.57c-.64.26-.62.68-.58,1.23a8.21,8.21,0,0,1-4.33,7.84,7.65,7.65,0,0,1-4,.54,1.42,1.42,0,0,0-1.36.66q-4.33,5.55-8.71,11.07c-.32-.08-.43-.37-.6-.58-.83-1-1.69-2-2.45-3.13s-1.62-1.95-3.47-1.61c-3.44.62-6.1-3.11-5-6.57a9.28,9.28,0,0,1,.41-.95c.14-.3.39-.53.09-.93s-.55-.28-.9-.23a14.74,14.74,0,0,1-7.48-.75,10.81,10.81,0,0,1-6.69-7c-.27-.77-.57-.82-1.27-.62a33.17,33.17,0,0,0-9.41,4.2,3.62,3.62,0,0,1-.37.22S89.4,110.13,89.27,110.13Zm22-29.93.05,0-.06,0a4.4,4.4,0,0,0-2-1.64c-.44-.2-.63,0-.75.4s-.21.63.22.65C109.59,79.66,110.39,80.1,111.27,80.19ZM144.68,102a1,1,0,0,1,1,.6,2.23,2.23,0,0,1-.92,2.91c-.2.12-.71.07-.48.52s.55.14.82,0a2.83,2.83,0,0,0,.45-4.67c-.32-.27-.8-.78-1.09-.54-.61.51-1.27.95-1.87,1.46,0,0,0,.11,0,.16.13,1.28.95,1.77,2.28,1.29l-1.24-.54c.14-.57,1.6.21,1-1.1ZM122,92.14c-.23-.38.14-.54.3-.75a14.89,14.89,0,0,1,3.29-3c.16-.11.52-.17.35-.47s-.42-.18-.63-.09a6.89,6.89,0,0,0-.83.45,26,26,0,0,0-3.1,2.33c-.24.2-.74.38-.56.75a1.13,1.13,0,0,0,1,.71c.1,0,.15,0,.2.08a.6.6,0,0,0,.11.63c.45.63.88,1.27,1.34,1.94a18.44,18.44,0,0,1,5.09-4.48c.11-.06.29-.13.19-.31s-.28-.12-.45-.07A12,12,0,0,0,124.42,92c-.23.18-.39.53-.85.37a18.29,18.29,0,0,1,3.57-3.2c.14-.1.44-.15.28-.42a.45.45,0,0,0-.55-.13,4.51,4.51,0,0,0-1.42.79C124.28,90.34,123.14,91.24,122,92.14Zm19,7.65c.35.28.59.89,1.23.35a2.94,2.94,0,0,0-1.09-.51c-.11-.5.27-.25.42-.25A1.33,1.33,0,0,0,142.7,99c-.42-.36-1.09-.16-1.44-.67.38-.38,1.73.16,1-1.16a1.58,1.58,0,0,1,1.29,2.13,2.42,2.42,0,0,1-1.35,1.6c-.18.08-.41.14-.27.42s.31.17.51.09a2.91,2.91,0,0,0-.74-5.6,2.85,2.85,0,0,0-3,1.75c-.13.31-.15.5.17.72C139.6,98.74,140.27,99.28,141,99.79ZM115.65,87.86l-.18-.16c.89-1.42,2.33-2.35,3.3-3.73-1.79.72-3,2.19-4.54,3.35a17.18,17.18,0,0,1,3.14-4,1.37,1.37,0,0,0-.95.52,35,35,0,0,0-3,3.17,9.21,9.21,0,0,0-1,1.3c-.2.35-.29.85.4.79a10.09,10.09,0,0,1,2.75.11.93.93,0,0,0,.91-.33c1.11-1.16,2.25-2.3,3.37-3.46.14-.14.48-.28.28-.53s-.41,0-.59.13A20.7,20.7,0,0,0,115.65,87.86Zm5.49,27.45c.07.44-.33.62-.51.92s-.32.32-.15.52a.49.49,0,0,0,.64.05,2.11,2.11,0,0,0,.47-.37,21.31,21.31,0,0,0,4.16-6.11,1.85,1.85,0,0,0,.19-1.5.75.75,0,0,1,.31-1.08,2.28,2.28,0,0,0,.47-.5c.18-.25.44-.55.08-.82a.65.65,0,0,0-1,.13,2.11,2.11,0,0,0-.55,1.51,4.48,4.48,0,0,1-.77,2.78,36.2,36.2,0,0,1-2.8,4c-.1.13-.16.32-.39.26.09-.46.5-1-.36-1.19-1.44-.35-2.81-.39-4,.73a4.21,4.21,0,0,0-1.3,4.17,4,4,0,0,0,5,2.94,4.35,4.35,0,0,0,2.92-5.18c-.07-.24-.06-.68-.48-.55a.72.72,0,0,0-.44.92,3.67,3.67,0,0,1-.91,3.2,3,3,0,0,1-3.14.94c-1-.24-1.9-.58-2.11-1.76l.12-.11c1.91,1.11,2.07,1.16,3,.94-.89-.38-1.89-.59-2.23-1.91a4,4,0,0,0,2.9,1.08,6.07,6.07,0,0,1-1.47-1.18,2.46,2.46,0,0,1,0-3.42l.12.13a3,3,0,0,0-.25,1.59,2.18,2.18,0,0,0,2.87,1.88c.24-.12.5-.26.44-.57s-.35-.2-.57-.2a1.47,1.47,0,0,1-1.65-1.37C119.74,115.21,120.62,115.52,121.13,115.31Zm30.77-37.54c1.17-.6,1.9-.06,2.45.94a2.53,2.53,0,0,0,.33.39.81.81,0,0,0,0,.25c1.21,2.87,1.44,5.72-.12,8.55-.19.35-.1.49.25.64.56.23,1.09.52,1.64.77a.66.66,0,0,1,.44.83c-.49,1.89-1.21,3.64-3.16,4.46a1.1,1.1,0,0,0-.75,1.48,2.85,2.85,0,0,1-.65,2.75,8.87,8.87,0,0,0-1.85,3.13,6,6,0,0,1-1.57,1.45,44.41,44.41,0,0,1,13.94,4.89l-.16-1.74c-.15-2.62-.16-5.26-.51-7.86a3,3,0,0,1,1.29-3c.35-.29.73-.55,1.1-.83,1.16-.88,2.53-1.43,3.74-2.23l1.47-.64c-.57-.37-1-.69-1.53-1a56.88,56.88,0,0,0-8.58-3.81c-.54-.2-.7-.37-.49-1a5.12,5.12,0,0,0,.16-2.89,8.93,8.93,0,0,0-2.57-4.41,24.07,24.07,0,0,0-7.57-4.88,2.44,2.44,0,0,1-1.34-1.15c-.21-.46-.54-.5-1-.51s-1.12.32-1.71.13A59,59,0,0,0,132,69.89c-.25,0-.52,0-.7-.26-1.08-1.49-3.55-1.28-4.76-.28a1.23,1.23,0,0,1-.85.3,59,59,0,0,0-8.52.68,48.52,48.52,0,0,0-15.83,4.88,17.85,17.85,0,0,0-6.33,5.11,6.36,6.36,0,0,0-1.25,5.77c.23.77,0,1-.66,1.19a52.86,52.86,0,0,0-8.49,3.8,3.25,3.25,0,0,0-1.28,1l1.41.56c.19.33.56.38.85.54a24.47,24.47,0,0,1,3.92,2.5,2.85,2.85,0,0,1,1.32,2.7,39,39,0,0,0-.3,4.12,35,35,0,0,0-.19,4l-.23,1.78a43.58,43.58,0,0,1,8.18-3.53c1.51-.49,1.51-.49,1.31-2.08a19.23,19.23,0,0,1,.24-4.21,6.62,6.62,0,0,0-.93-5.11,12.4,12.4,0,0,1-.74-1.46,9.12,9.12,0,0,1-.6-6.63,3,3,0,0,0-.26-3c-.33-.43-.19-.74.33-.88l.67-.17c1-.31,2.24-.07,3.19-.62a15.42,15.42,0,0,1,5.08-1.81,1.33,1.33,0,0,0,1.08-.85,7.41,7.41,0,0,1,2.2-2.72c1-.86,2.31-1.39,3.31-2.29a2.6,2.6,0,0,0,1.47-1.14c.35-.56.68-.46,1.13-.17a6.56,6.56,0,0,1,1.75,1.8A6.17,6.17,0,0,1,121,71.34a7.2,7.2,0,0,0,1.63-.51,4.46,4.46,0,0,1,3.33-.42c.26.06.45.16.65-.14a3,3,0,0,1,3.06-1.13,1.56,1.56,0,0,1,1.47,1.15,1.49,1.49,0,0,0,1.76,1.11,4.63,4.63,0,0,1,3.22,1c.17.13.28.37.54.33.21-.31-.36-.94.45-1,2.6-.08,5.09.12,6.78,2.52a4.91,4.91,0,0,1,2.86-1.31c.22,0,.54-.13.65.1.51,1,1.56,1.63,2,2.7.11.28.17.41.58.33a1.66,1.66,0,0,1,2,1.73h-.12v.08Zm-23.09,22.81-.14-.2a40.68,40.68,0,0,1,5.4-5.62,9.88,9.88,0,0,0-3.56,1.83c-1.41,1-2.63,2.31-3.92,3.48l-.15-.19c.16-.23.32-.48.5-.7a66.89,66.89,0,0,1,5-5.27c.18-.18.62-.32.38-.66s-.58-.06-.84.09a9.76,9.76,0,0,0-1.09.7,32.16,32.16,0,0,0-5.18,5.06,1.86,1.86,0,0,0-.46,1.42,15.19,15.19,0,0,1-1.19,6.83c-.46,1.13-.38,1.3.85,1.85a2.59,2.59,0,0,0,.1-1,3,3,0,0,1,1.5-2.73,1.43,1.43,0,0,1,1.63-.15c.58.39.48,1,.38,1.57s-.31.91-.11,1.35a8.54,8.54,0,0,1,.61,2.77,1,1,0,0,0,.74.9,26,26,0,0,0,4.09,1.36c.17,0,.41,0,.42.29a13,13,0,0,1-3.69-.34,3.92,3.92,0,0,0,2.09,1.23,26.18,26.18,0,0,0,5.13.62,5.56,5.56,0,0,0,5.71-4c.1-.31.24-.66,0-.89s-.59,0-.84.21a21,21,0,0,0-2.38,2.25l-.15-.15a9.75,9.75,0,0,1,3.33-3.86c.23-.18.67-.32.43-.7s-.52,0-.77.07a17.33,17.33,0,0,0-4.48,3l-.13-.11a14.11,14.11,0,0,1,4.87-4.95c-2.87.12-4.58,2.13-6.38,4,1.14-2.67,3.42-4.23,5.61-5.89a3.65,3.65,0,0,0-1.92.48,17.15,17.15,0,0,0-4.21,3.11l-.16-.17a12,12,0,0,1,5-4.89c.15-.07.47,0,.35-.37s-.31-.17-.5-.1-.44.14-.65.23a15.43,15.43,0,0,0-4.61,3.27c-.22.22-.38.61-.86.46a20.5,20.5,0,0,1,4.88-5.31c.17-.13.58-.19.39-.53s-.46-.16-.71-.08a5.26,5.26,0,0,0-1.9,1.16c-1.2,1.11-2.36,2.27-3.56,3.39-.19.18-.3.58-.71.38a16.86,16.86,0,0,1,5.77-6.05A3.86,3.86,0,0,1,136.85,98c-.5-.76-1-.51-1.47-.12a16.59,16.59,0,0,0-5.19,6.55,3.11,3.11,0,0,0-.24,1c-.09,1,.18,1.27,1.21,1.24-.46.43-.87.46-1.27,0a1.9,1.9,0,0,1-.41-1.78,8.77,8.77,0,0,1,1.27-3,27.25,27.25,0,0,1,4.37-5.31c.14-.13.48-.23.25-.53s-.41-.17-.62,0a14.2,14.2,0,0,0-1.45.93C131.8,98.15,130.31,99.37,128.82,100.58Zm-13-3.08c3.38,4,3.54,8.57,2.63,10.21a13.91,13.91,0,0,0-3.89-8.9c-.41-.41-.4-.67,0-1A5.17,5.17,0,0,0,116.24,95c.09-.38.23-.82-.32-1s-.83.07-1,.49-.44,1-.72,1.47a3.43,3.43,0,0,1-5.23.59,2.08,2.08,0,0,1-.54-1.07c-.07-.35.08-.47.43-.43s.51.35.69,0-.16-.46-.28-.68-.27-.44-.38-.67-.21-.36,0-.56a.53.53,0,0,1,.63-.13,6.26,6.26,0,0,0,.9.29c.24,0,.57.12.72-.14s-.1-.54-.3-.73a4.39,4.39,0,0,0-.82-.63A5.07,5.07,0,0,0,103.3,93a12.61,12.61,0,0,0-1.87,13,11.51,11.51,0,0,0,16.43,5.61,12.48,12.48,0,0,0,4-17.3c-1.59-2.58-3.72-4.3-6.91-4.3-.24,0-.68-.23-.7.33s.23.54.65.57A7.44,7.44,0,0,1,121.17,95a10.7,10.7,0,0,1,.35,10.28c-.14-1.28-.22-2.42-.41-3.53a8.52,8.52,0,0,0-3-5.48c-.28-.22-.62-.59-1-.21s.18.58.37.76c2.87,2.59,3.19,5.93,2.86,9.47C120.13,102.7,119.25,99.42,115.77,97.5ZM98,81.91a28.72,28.72,0,0,1,7.84,3.62,14.37,14.37,0,0,1,5.62,6.62,1.61,1.61,0,0,0,.18-1.66,3.85,3.85,0,0,1,1.28-4.2c.19-.18.38-.35.58-.52,3.47-2.91,4.1-6.75,3.57-11a3.14,3.14,0,0,0-1.3-2.26c-.33-.23-.57-.2-.51.26a5,5,0,0,1-1.14,3.62A18.11,18.11,0,0,0,111,88.29c0,.19.12.43-.13.53s-.31-.11-.42-.22c-1.25-1.25-2.6-2.58-2.91-4.31-.35-1.93-1.56-2.18-3-2.36-.23,0-.45-.08-.68-.11A15.66,15.66,0,0,0,98,81.91Zm32.82-.5c.66-.35,1.15-.59,1.61-.87a.66.66,0,0,0,.39-.71c-.08-.31-.34-.42-.64-.51a2.88,2.88,0,0,0-3.62,2.86c-.05,1.55.06,3.11,0,4.67a3.49,3.49,0,0,0,2.07,3.51l.15.09a2.87,2.87,0,0,0,4.1-1.42c-1.32.49-2.61.94-3.77-.23.12-.18.28-.12.41-.13a8,8,0,0,0,2.91-.71c.29-.13.67-.36.58-.66s-.54-.15-.81-.08a4.4,4.4,0,0,1-3.11-.37,2.33,2.33,0,0,1,1.1-.27,5.52,5.52,0,0,0,2.39-.67c.22-.12.55-.26.44-.55s-.44-.1-.67-.06a5.52,5.52,0,0,1-3.53-.33,2,2,0,0,1,.89-.3,8.64,8.64,0,0,0,2.85-.92c.16-.1.37-.24.3-.47s-.34-.17-.52-.14c-.51.07-1,.19-1.53.26a5.11,5.11,0,0,1-2.13-.09,1,1,0,0,1,.44-.34,17.34,17.34,0,0,0,2.56-1c.2-.12.44-.25.35-.52s-.38-.17-.59-.11A10.37,10.37,0,0,1,130.83,81.41ZM135,116.25a17.33,17.33,0,0,1-2.06-.28c-.65-.17-.85-.08-.92.66a5.55,5.55,0,0,1-4.7,5,4.51,4.51,0,0,1-2.76-.48c-.83-.42-1.07.32-1.47.66s.12.59.29.81c.89,1.13,1.82,2.23,2.7,3.36.34.44.56.53,1,0,1.5-1.89,3-3.75,4.57-5.61Zm-9.67-35.18a7.71,7.71,0,0,0,2.45-.28c.61-.2.57-.49.16-.84a3.34,3.34,0,0,0-1.86-.82c-2.63-.26-4,1.61-4.38,3.79s0,2.74,1.45,3.25c1.32.46,2.76.58,4,1.38l.08,0a.52.52,0,0,0,.65-.41c.06-.39-.31-.22-.5-.24-.4,0-.8,0-1.06-.42.53-.34,1.33-.24,1.59-1-1.82.13-2.4,0-2.8-.73a3.4,3.4,0,0,0,2.72-1c-1.08-.21-2.22.16-3.12-.78a6,6,0,0,0,3.52-.95C127.07,81.8,126,82.16,125.28,81.08Zm10.94-1.86c-.36-1.58-1.44-2.07-2.69-2.6a4.16,4.16,0,0,0,.52-.07c.35-.11,1,.22,1-.29s-.54-.6-.95-.74a3,3,0,0,0-.41-.13,1.55,1.55,0,0,0-1.88,2A2.64,2.64,0,0,0,133.13,79a8.14,8.14,0,0,1,3.56,6c0,.24-.08.6.26.64s.53-.22.68-.47a2.07,2.07,0,0,0,.21-.56,14,14,0,0,0,.56-5.29,10.88,10.88,0,0,0-2.48-6c-1.31-1.5-3-1.11-4.22-.37a1.93,1.93,0,0,0-1,1.47,1.21,1.21,0,0,0,.42,1.24c.45.3.73-.07,1.06-.3a1.75,1.75,0,0,1,1.4-.53c.2,0,.49.21.58-.1a.55.55,0,0,0-.31-.57c-.4-.22-.84-.38-1.43-.64a3.07,3.07,0,0,1,3.08.49c2.33,2.05,2.93,6.62,2.18,9.25,0,.14-.09.29-.26.29s-.31-.24-.37-.42a9.32,9.32,0,0,0-3.42-5A3.48,3.48,0,0,1,136.23,79.22Zm-9.65,40c-.23-.36-.88-.31-1-1,.58,0,1.19.42,1.73-.17a7.55,7.55,0,0,1-.8-.4c-.23-.15-.53-.22-.65-.55.47,0,.92-.05,1.36-.13a1.29,1.29,0,0,0,.91-.44.61.61,0,0,0,.09-.72c-.16-.22-.38,0-.54.07a2.74,2.74,0,0,1-1.36.16.91.91,0,0,1-.88-.7c-.1-.44.15-.61.58-.78.61-.24.42-.89.4-1.37s-.48-.3-.76-.28a5,5,0,0,0-1.81,2.26.68.68,0,0,0,.11.23,5,5,0,0,1,.31,4.18c-.23.69,0,1,.62,1.24a4.11,4.11,0,0,0,4.23-6.87c-.24-.21-.53-.62-.86-.28a.67.67,0,0,0,.14,1.1,2.53,2.53,0,0,1,.94,2.13c.11,1.48-1.68,3.63-3.57,2.76C126,119.34,126.46,119.56,126.58,119.18Zm2-46.85.36-.13c1-.31,1.31-.79,1-1.43a1.45,1.45,0,0,0-1.94-.55,1.12,1.12,0,0,0-.64,1.19,10.76,10.76,0,0,1-.46,4.68c-.13.32-.3.63-.72.65a.32.32,0,0,1-.33-.22.81.81,0,0,1,.31-.91c.15-.15.46-.31.28-.55s-.48-.14-.73-.06-.44.36-.57.61a4.28,4.28,0,0,1-.68,1.19.59.59,0,0,0-.09.85c.25.35.3.92.94.85a6.65,6.65,0,0,1,2.78.46c1.24.39,2.1-.54,3.13-.9.17-.06.1-.31.11-.48.07-1.1-.76-1.58-1.47-2.24-.29.63-.22,1.07.31,1.42.3.2.53.45,0,.69a3.62,3.62,0,0,1-2.42.43.3.3,0,0,1,.27-.35c.76-.21.93-.73.86-1.45a6.44,6.44,0,0,1,.15-2.31A1.2,1.2,0,0,0,128.55,72.33Zm-3.89,26.75a59.17,59.17,0,0,1,5.71-6.14c.2-.2.55-.33.41-.77a1.55,1.55,0,0,0-2.31-.95,16.06,16.06,0,0,0-4.53,3.82.79.79,0,0,0-.17.79C124.07,96.89,124.35,97.95,124.66,99.08Zm22.13-19.91c-1.2-3-3.21-3.3-5.06-3a2.92,2.92,0,0,0-2.43,3.71A2.36,2.36,0,0,0,143,81.33a1.59,1.59,0,0,0,.14-2.17c-.22-.18-.46-.27-.69-.05s.08.32.17.45c.38.54.4,1-.21,1.39a1.61,1.61,0,0,1-2.16-.67,2.4,2.4,0,0,1,1-3.11,3.22,3.22,0,0,1,3.48.52,2.76,2.76,0,0,1,1,3.08,17.89,17.89,0,0,1-.62,1.88c-.14.36-.1.57.27.75.64.32.81.23.91-.86A4.23,4.23,0,0,1,149,78.82a17.16,17.16,0,0,0,1.6-.85.44.44,0,0,0,.19-.66.5.5,0,0,0-.75-.16C149.05,77.91,147.75,78.21,146.79,79.17Zm-26.52,0a6.74,6.74,0,0,0,2.26-.23c.29-.12.62-.21.66-.6a.81.81,0,0,0-.47-.77,4.47,4.47,0,0,0-1.31-.64,2.82,2.82,0,0,0-3,1,5.88,5.88,0,0,0-.85,4,.2.2,0,0,0,0,.07,3.76,3.76,0,0,0,3.22,1.36c-.39-.4-1.08-.44-1.28-1.07.51-.16,1.09-.06,1.56-.48-.51-.35-1.13-.53-1.28-1.22.83,0,1.66.35,2.33-.55A2.63,2.63,0,0,1,120.27,79.2ZM98.88,84.63c-1.62,2.39-.7,7,2.36,9.63-.5-1.31-1.72-2.27-2-3.88a10.22,10.22,0,0,0,2.29,1.6,1.42,1.42,0,0,0,2-.65c.15-.23.15-.33-.13-.42-1.94-.69-2.86-2.29-3.6-4Zm47.05,11.66c1.12-.31,1.54-.79,1.63-1.74a3,3,0,0,0-2.32-3.21,3,3,0,0,0-3.38,1.89c-.44,1.19-.2,1.72,1,2.13l.72.28a3,3,0,0,0,2,0c-.56-.43-1.25-.35-1.79-.94h1.22c.34,0,.71.07,1-.28-.31-.1-.59-.17-.85-.28a1.83,1.83,0,0,1-.81-.41c.44-.06.84-.1,1.23-.19.81-.18-.21-.62.11-.89C147.13,93.12,147.28,94.51,145.94,96.29Zm-29.11-7a12.65,12.65,0,0,1,3,1.41c.36.25.52,0,.72-.2.78-.73,1.56-1.45,2.31-2.21.28-.28.7-.47.8-.94a3,3,0,0,1-2.6-1.19c-.18-.29-.41-.12-.59,0A10.93,10.93,0,0,0,116.83,89.27ZM148,98.16c1.09.31,1.49.8,1.5,1.66A2.22,2.22,0,0,1,147.8,102c-.27.08-.86-.1-.7.47.11.4.59.16.91.17a1.29,1.29,0,0,0,.49-.14,3.08,3.08,0,0,0,1.66-2.81,3,3,0,0,0-1.91-2.65,2.87,2.87,0,0,0-3,.63,7.69,7.69,0,0,0-.34,2.31.31.31,0,0,0,.13.1,6.06,6.06,0,0,1,1.51,1.13,1.11,1.11,0,0,0,1.38,0c-.47-.46-1.24-.36-1.61-1,.77-.13,1.52.16,2.31-.13-.48-.45-1.1-.36-1.5-.71C147.34,98.93,149,99.72,148,98.16ZM123.68,74.92c-.25-.81-1.21-.76-1.69-1.34a2.21,2.21,0,0,1,1.35-.12,12,12,0,0,1,1.36.35,4.08,4.08,0,0,0-5.15-1,2.83,2.83,0,0,0-1.5,3.33c.16.53.42,1,1.12.67a5.5,5.5,0,0,1,3.85-.38c.09,0,.24,0,.28-.19-.18-.6-.92-.72-1.3-1.19C122.59,74.6,123.13,75.14,123.68,74.92ZM141,91.78c.5,0,1.24,0,1.27-.46,0-.68.31-.48.67-.41a.62.62,0,0,0,.61-.25c.15-.26-.14-.4-.31-.53a2.88,2.88,0,0,0-1.74-.69,2.76,2.76,0,0,0-2.63,1.48,1.92,1.92,0,0,0,.22,2.51c.38.42.7.91,1,1.37.2.27.43.41.75.14-.26-.42-.77-.64-.85-1.12.28-.34.82.32.94-.28.08-.37-.55-.44-.57-.82.33-.16.76.12,1-.31S141.05,92.08,141,91.78Zm-1.57-4.13c1.6-.19,1.6-.19,1.21-1.19,1,.1,1.23.45,1.48,2,.63-.41.55-1,.32-1.52A3,3,0,0,0,140,85.11a2.93,2.93,0,0,0-3.09,2.68c0,.25,0,.53.36.57a11.21,11.21,0,0,0,3.44,0Zm11.11,7.4a1.25,1.25,0,0,1,1.19,1.18,2,2,0,0,1-.71,2.08c-.23.17-.42.37-.18.63s.41,0,.57-.16a2.93,2.93,0,0,0-2.25-5.11c-.55.09-1,.32-1,1s-.47,1.14-.28,1.47.91.5,1.39.74a1.53,1.53,0,0,0,1.75,0l-1.66-.61C149.62,95.72,150.95,96.5,150.54,95.06Zm-.12-3.53a1.69,1.69,0,0,1,1.37,1.77c0,.27,0,.58.35.58s.28-.37.29-.6a2.93,2.93,0,0,0-1.5-2.64,2.69,2.69,0,0,0-3.08.16c-.48.3-1,.66-.38,1.25.39.39.38,1.79,1.49.69.19-.19.43,0,.65,0a.93.93,0,0,0,1-.17C150.91,92.24,150.51,92,150.42,91.53Zm-.54-4.36c.4-.15.66.08.87.36a1.8,1.8,0,0,1,.35,1.78c-.08.23-.32.6.11.73s.47-.31.55-.59A3,3,0,0,0,148,85.91a1,1,0,0,0-.54,1.63c.24.33.5.63.73,1,.53.78,1,.91,2,.47-.5-.39-1.2-.31-1.74-.79a3.19,3.19,0,0,0,1.58-.29C150.15,87.6,149.76,87.48,149.88,87.17Zm-3.39,2.47c0-.35-.58-.69-.19-.91s.64.33.88.63a1.48,1.48,0,0,1,.18.3c.1.2.14.46.48.28s.22-.35.13-.57a2.79,2.79,0,0,0-2.32-1.83,2.9,2.9,0,0,0-2.55,1c-.14.15-.4.38-.09.57a7.83,7.83,0,0,1,1.53,1.37,3,3,0,0,0,2,.24c-.5-.33-1.13-.34-1.63-.79A4.7,4.7,0,0,0,146.49,89.63Zm-1.78-4.45A1.46,1.46,0,0,1,146,86.47c0,.23,0,.5.37.46s.26-.38.23-.61a2.62,2.62,0,0,0-1.92-2.22c-1.17-.41-2.06.23-3,.85a4.58,4.58,0,0,1,1.09,1.33c.54,1.08.62,1.1,1.79.57l-1.11-.51C145.1,86.1,145.1,86.1,144.71,85.18Zm-7.16,9.28a1.6,1.6,0,0,1,1.27.76c.13.16,0,.63.46.42s.25-.47.15-.76a2.9,2.9,0,0,0-4.06-1.31c-.14.1-.36.2-.19.39a21.85,21.85,0,0,1,2.05,2.73c.19.3.68.19.88-.17s-.25-.33-.41-.48-.39-.13-.43-.38C138.23,95.45,138.23,95.45,137.55,94.46ZM111.67,97c.46-.07.9-.24.64-.93a2.64,2.64,0,0,1,0-1.52,31.29,31.29,0,0,1,1.09-3.72c.1-.29.15-.56-.13-.78a.66.66,0,0,0-.73-.08c-.31.15-.28.48-.31.76A18.74,18.74,0,0,1,110.9,96C110.67,96.61,110.95,97,111.67,97Zm34.88-13a1.61,1.61,0,0,0,.36,1.22c.16.24.56.24.55.09,0-.85.61-.49,1-.58s.53-.19.26-.56c-.13-.17-.36-.4-.1-.59s.42.08.59.24a2.32,2.32,0,0,1,.65,1c.1.3.28.6.58.51s.18-.5.13-.75a2.69,2.69,0,0,0-2-2C147.08,82.06,146.61,82.37,146.55,84ZM137.7,89a3,3,0,0,0-2.42,1.58c-.11.2-.25.43,0,.6.58.37,1.17.73,1.76,1.07.14.08.35.14.48,0s0-.31-.12-.45-.3-.39-.15-.41c.75-.09.43-1.07,1.11-1.24.26-.06.68-.4.56-.76s-.58-.28-.91-.36A2.23,2.23,0,0,0,137.7,89Zm3.14-5.31a3.09,3.09,0,0,1,1,.09,1.68,1.68,0,0,0,1.16-.49c.22-.16,0-.36-.1-.52a.82.82,0,0,0-1.07-.26,1.72,1.72,0,0,1-1.34-.15c-.34-.17-.62-.4-1,0a2.24,2.24,0,0,0-.67,2c.09.4.66.13,1,.17a6.21,6.21,0,0,0,.78,0c.23,0,.53,0,.62-.2S140.93,84,140.84,83.7ZM121.48,99.11a8.16,8.16,0,0,0-2.1-5,2,2,0,0,0-.56-.4.52.52,0,0,0-.71.08c-.21.26,0,.42.15.59A22.73,22.73,0,0,1,121.48,99.11Zm5.17-26.34a2,2,0,0,0-3.26-1.34c-.28.23-.58.47.05.69a9.22,9.22,0,0,1,2.2,1.33c.23.17.42.62.75.4S126.66,73.29,126.65,72.77Zm-23.87,8.14c1,.1,2,.19,2.91.33,1.2.17,1.16.16,1.33-1,.07-.52-.09-.6-.52-.55A9.77,9.77,0,0,0,102.78,80.92ZM127.12,109a1,1,0,0,0-.53,1.19,10.9,10.9,0,0,1-.12,4.77c-.06.2-.37.49,0,.63s.54-.1.67-.39a3.42,3.42,0,0,0,.3-1.33A29.68,29.68,0,0,0,127.12,109Zm23.76-27.38a1.56,1.56,0,0,0-1.2-1.42,1.4,1.4,0,0,0-1.57.64c-.19.24-.39.64.16.68a3.18,3.18,0,0,1,1.68.8c.2.16.4.36.69.18S150.89,82.11,150.89,81.66Zm3.29,4.93c0-.66-.6-1.07-1.27-1.4a.61.61,0,0,0-.78.07.65.65,0,0,0-.14.85,16.25,16.25,0,0,1,.85,1.58c.16.42.53.38.84.12A1.46,1.46,0,0,0,154.18,86.59Zm-48,.1A4.45,4.45,0,0,0,103.62,89c-.17.34-.11.55.26.65s.63.4.88-.1C105.22,88.62,105.7,87.66,106.17,86.69Zm-1.55-1.06a5.12,5.12,0,0,0-2.49,2.69c-.22.52.28.74.66.94s.34-.08.38-.28A8.06,8.06,0,0,1,104.62,85.63Zm9.71,6.13a1.37,1.37,0,0,0-.36,0A3.28,3.28,0,0,0,112.89,94c.11.33.32.41.55.1a4.56,4.56,0,0,1,1.74-1.49c.33-.15.27-.32,0-.5A1.91,1.91,0,0,0,114.33,91.76Zm38.42-12.21a6.66,6.66,0,0,0,.18.94c.09.63.39.6.82.33.66-.42.69-.8.11-1.74-.17-.28-.3-.7-.74-.57S152.77,79.05,152.75,79.55Zm-5.83-5.87c-.51,0-1.18.41-1.19.62s1.08,1.45,1.25,1.4c.41-.13.81-.41.74-.82S147.43,73.82,146.91,73.68ZM136.08,92.39a2.35,2.35,0,0,0-2.92-.26C134.6,93.36,134.6,93.36,136.08,92.39Zm-25.36-8.79a7.17,7.17,0,0,0-2-1.43c-.18-.11-.39-.32-.62-.12s-.09.42,0,.65.12.61.53.68A6.58,6.58,0,0,0,110.73,83.61Zm41.51-3.24c0-.18-.09-.43-.15-.67s-.1-.68-.5-.69a1.24,1.24,0,0,0-1,.49c-.22.33.3.45.45.69a3.34,3.34,0,0,0,.45.51c.16.17.2.57.53.43S152.24,80.71,152.24,80.37Zm-50.67,7.79a13.07,13.07,0,0,1,1.5-3.38C101.41,85.57,100.66,87.22,101.57,88.16ZM112,78.69a4,4,0,0,0-1.69-1.7c-.47-.27-.69.18-.87.47s.12.47.39.56Zm-1.63,7.18a1.82,1.82,0,0,0-1.68-1.45c-.35,0-.2.28-.12.44a5.37,5.37,0,0,0,1.1,1.3c.15.16.3.44.53.36S110.33,86.08,110.39,85.87Zm42.9,6.52c.36.31-.16,1.13.48,1.19a1,1,0,0,0,.92-1.06.83.83,0,0,0-.74-.91C153.45,91.57,153.35,91.93,153.29,92.38Zm-42.68-16,1.93.7c.12,0,.27.16.39,0a.44.44,0,0,0,0-.48C112.45,75.53,111.45,75.39,110.61,76.42Zm-2.93,11.16a4.06,4.06,0,0,0-1.88,1.77c-.13.19-.43.45-.11.63s.69.27.9-.13C107,89.16,107.27,88.45,107.68,87.58Zm3-5.86a5.89,5.89,0,0,0-1.94-1.38c-.22-.1-.53-.3-.61.12s-.19.8.27.88A8,8,0,0,0,110.73,81.72ZM144,77.83a3.1,3.1,0,0,0,.34,2.1.46.46,0,0,0,.58.25c.25-.07.24-.29.24-.49A2.17,2.17,0,0,0,144,77.83Zm10.85,6.79a1.09,1.09,0,0,0-1.11-1.11c-.22,0-.4.09-.42.34s.85,1.48,1.12,1.46C154.92,85.28,154.82,84.89,154.86,84.63ZM147.61,77c.05.23-.09.61.27.51s1-.29,1-.86c0-.36-.15-.93-.61-.89C147.53,75.8,147.88,76.61,147.61,77Zm-4.41-1.85a1.34,1.34,0,0,0-1.19-1,.69.69,0,0,0-.72.36.55.55,0,0,0,0,.64c.19.26.44.15.7.11S142.75,75.18,143.2,75.14ZM155.56,90.4c-.14-.44-.55-.45-.89-.47s-.75.14-.7.64a.69.69,0,0,0,.73.68C155.21,91.24,155.41,90.85,155.56,90.4ZM144.05,83a1.52,1.52,0,0,0,.85-1.14c.07-.33-.11-.51-.42-.47-.47.06-1,.25-1,.74C143.39,82.49,143.74,82.81,144.05,83Zm-5.29-9.4a.45.45,0,0,0,.5-.48c0-.71-.65-.6-1.08-.71-.24-.06-.49,0-.45.33C137.8,73.27,138,73.64,138.77,73.63ZM100.68,86.56a15.66,15.66,0,0,1,.79-2.58C100,84.75,99.9,85.25,100.68,86.56Zm13.47-11c-.08-.42-.42-.63-.62-.93a.45.45,0,0,0-.69-.09c-.2.14-.54.24-.52.52s.36.33.59.42A1.48,1.48,0,0,0,114.16,75.6ZM130,73.38c.54-.13.79-.54,1.12-.84.18-.16.6-.33.22-.66a.59.59,0,0,0-.91.07A1.75,1.75,0,0,0,130,73.38Zm-6.14,36.91a3.34,3.34,0,0,0-1.24-.87.68.68,0,0,0-.42.51c0,.18,1,.88,1.21.82A.67.67,0,0,0,123.84,110.29Zm15.1-34.91c-.38,0-.59.25-.52.63s.08,1,.34,1,.64-.5.7-.94A.53.53,0,0,0,138.94,75.37Zm15.3,7.25a.52.52,0,0,0,.71-.42.48.48,0,0,0-.46-.59.67.67,0,0,0-.76.53C153.62,82.56,154,82.57,154.24,82.62ZM141.3,73.36a1,1,0,0,0-.8-.58.42.42,0,0,0-.46.5c0,.38.33.53.68.49S141.25,73.7,141.3,73.36Zm4.49,2.8a.85.85,0,0,0-.41-1.08.54.54,0,0,0-.77.11c-.26.41.21.39.37.48S145.41,76.14,145.79,76.16Zm6.93,6.22c-.48.47-.76,1.12-1.34,1.51-.18.12-.16.29,0,.43s.26,0,.36-.09A4,4,0,0,0,152.72,82.38Zm-10.08-4.08c.31,0,.57-.08.62-.43s-.18-.45-.47-.42-.69,0-.7.43S142.36,78.28,142.64,78.29Zm-1,1.88a4.88,4.88,0,0,0-.12-1.77c0-.14-.07-.29-.26-.25a.24.24,0,0,0-.17.33C141.25,79,141.41,79.49,141.63,80.17Zm11.79,9.69c0-.23-.08-.43-.32-.42s-.54.11-.6.4a.42.42,0,0,0,.4.48C153.21,90.37,153.34,90.12,153.42,89.86ZM139.05,74.65a.6.6,0,0,0-.55-.47c-.22,0-.41,0-.44.28a.41.41,0,0,0,.44.5A.51.51,0,0,0,139.05,74.65Zm6.77,21.68a7.39,7.39,0,0,1-1.41.18C144.84,97.17,144.84,97.17,145.82,96.33Zm-6-21.71c.1.44.06.95.48,1.27,0,0,.21,0,.21-.09C140.62,75.25,140.22,74.95,139.84,74.62ZM108.27,89.19c-.35.41-.75.52-.69.93,0,.16.3.14.45.09C108.46,90.08,108.3,89.74,108.27,89.19Zm-7.91-5.69c-.41.1-.74.13-.79.55a.52.52,0,0,0,.19.34C100.15,84.28,100.24,83.94,100.36,83.5Z"/><path class="cls-2" d="M29.84,159.75a7.11,7.11,0,0,0-2.23,6.5c.66,5.68,5,8,9.32,8.19a11.25,11.25,0,0,0,8.49-2.74,10.52,10.52,0,0,0-.89-16.06,29.83,29.83,0,0,0-8-4,35.88,35.88,0,0,1-9.94-5.3c-4.19-3.41-5.55-7.94-5-13.11.69-6.67,5.53-10.29,11.78-11.33A12.71,12.71,0,0,1,41.7,123a8.35,8.35,0,0,1,4.35,8.35,5,5,0,0,1-7.49,3.49c-.86-.54-.86-.68-.1-1.3,2.31-1.86,1.92-5.82-.73-7.51a6.31,6.31,0,0,0-9.33,4.12,8.05,8.05,0,0,0,4.24,8.7A40.36,40.36,0,0,0,41,142.13a29.31,29.31,0,0,1,11.13,5.7,15.86,15.86,0,0,1,5.37,10.69c1,9.3-5.34,16.62-13.85,19a21.75,21.75,0,0,1-14.56-.47,13.45,13.45,0,0,1-7.59-17.19,10.92,10.92,0,0,1,12.06-6.7,5.38,5.38,0,0,1,4.49,5,3.84,3.84,0,0,1-5.11,4.08C31.72,161.95,31.36,161.65,29.84,159.75Z"/><path class="cls-3" d="M165,181a16.33,16.33,0,0,1,2-7.37,7.76,7.76,0,0,1,6.31-4c3.92-.46,7.76.23,11.57,1,5.62,1.09,11.21,2.31,16.83,3.43a10.29,10.29,0,0,0,3.78.09,5,5,0,0,0,3-1.71,5.48,5.48,0,0,0,1.4-5.16c-1.09-5.35-1.85-10.77-3-16.13a14.62,14.62,0,0,0-4-7.89,3.11,3.11,0,0,1,1.4,0,23.5,23.5,0,0,1,3.05.57,7,7,0,0,1,5.57,5.91c.79,4.3,1.52,8.61,2.27,12.92a2.51,2.51,0,0,0,.07.25c.34.07.37-.23.47-.4,1.83-3.17,3.66-6.33,5.46-9.52,1.21-2.14.91-3.48-1.15-4.81-.68-.44-.67-.75-.28-1.32.2-.29.33-.37.68-.2a19,19,0,0,0,8.2,1.79c.44,0,.82,0,.74.6-.06.46.25,1.05-.63,1.11a4.74,4.74,0,0,0-3.68,2.11c-2.88,4-5.43,8.15-8.14,12.23-3,4.46-5.84,9-9.11,13.24a10.61,10.61,0,0,1-7.71,4.06c-3.87.42-7.63-.37-11.39-1.09-4.24-.82-8.46-1.74-12.74-2.3a18.29,18.29,0,0,0-6.79.13A7.74,7.74,0,0,0,165,181Z"/><path class="cls-3" d="M72.57,148.21c-.57,3.06-1.08,5.88-1.61,8.7-.35,1.87-.71,3.73-1.05,5.6-.08.46-.25.71-.77.71a15.09,15.09,0,0,0-4,.59c-.63.17-.78,0-1-.55-1.48-3.87-3-7.73-4.62-11.54-1-2.41-2.11-4.79-3.25-7.15a5.28,5.28,0,0,0-4.13-3.15c-.5-.08-.62-.3-.51-.76s0-.82.73-.76a42.78,42.78,0,0,0,11.77-.77c.72-.14.8.2,1,.65.31.67-.27.63-.59.76-1.31.55-1.64,1.11-1.26,2.51a76.79,76.79,0,0,0,3.09,8.14c.64,1.6,1.32,3.18,2.06,5a11.38,11.38,0,0,0,.55-2.63q1.24-7.23,2.41-14.47c.08-.48.22-.7.73-.73a10.49,10.49,0,0,0,3.11-.67c.64-.25.81,0,1,.55,1.61,5.26,3.35,10.46,5.2,15.64a1.46,1.46,0,0,0,.46.83c.21-1.38.39-2.7.62-4,.76-4.21,1.32-8.47,3-12.48,2.5-6.13,8.58-7.74,13.38-6.74a9.06,9.06,0,0,1,1,.33A21.2,21.2,0,0,0,96,133.51a20.21,20.21,0,0,0-7.3,8.46,63,63,0,0,0-5.15,16.42c-.17.93-.35,1.87-.49,2.81-.05.35-.17.49-.54.5a20.74,20.74,0,0,0-4.62.54c-.61.15-.66-.2-.79-.59q-2-5.85-4-11.69C73,149.44,72.83,148.93,72.57,148.21Z"/><path class="cls-3" d="M155.84,124.19a18.51,18.51,0,0,1,5.59.47,5.65,5.65,0,0,1,4.51,6c-.23,2.73-.38,5.46-.56,8.19a1.21,1.21,0,0,0,.07.81,9.45,9.45,0,0,1,3.84-1.61,9.67,9.67,0,0,1,11.51,9.14,17.89,17.89,0,0,1-1.7,9.15A10.15,10.15,0,0,1,170,162.2c-3.11.15-6.1-.25-8.72-2.14a.91.91,0,0,0-1,0c-.91.36-1.84.68-2.73,1.07-.67.3-.91.24-.82-.57q.42-3.86.76-7.74.51-5.85,1-11.71c.23-3,.43-5.92.61-8.88a13.73,13.73,0,0,0-.45-4.71A5.68,5.68,0,0,0,155.84,124.19Zm18,24.65a15,15,0,0,0-.54-4.61,4.32,4.32,0,0,0-4.67-3.29,6.94,6.94,0,0,0-3.23,1.11.8.8,0,0,0-.39.71q-.58,6.79-1.18,13.59a1.88,1.88,0,0,0,.46,1.42,4.74,4.74,0,0,0,8.34-1.45A26.12,26.12,0,0,0,173.87,148.84Z"/><path class="cls-3" d="M205.51,164.1a8.05,8.05,0,0,1-7.29,2.65c-1.86-.24-3.37-1-4-2.91-.14-.4-.2-.83-.31-1.33a8.71,8.71,0,0,1-4.3,2.16,9,9,0,0,1-4.52-.31,5.76,5.76,0,0,1-3.68-6.66c.46-3,2.65-5.15,6.09-5.89a23.6,23.6,0,0,1,7-.2c.84.07,1.22-.13,1.24-1a6.05,6.05,0,0,1,.18-1.11c.77-3.57-1.57-5-4.27-5.32A13.82,13.82,0,0,0,186,145l-1,.32a7.41,7.41,0,0,1,3.94-3,13.89,13.89,0,0,1,9.24.11c3.13,1.1,4.31,3.7,4,7.42-.33,3.44-1.17,6.8-1.7,10.21-.42,2.68.54,3.92,3.26,4.11C204.22,164.13,204.73,164.1,205.51,164.1Zm-14.35-2.79a6.86,6.86,0,0,0,2.35-.69.86.86,0,0,0,.52-.72c.33-1.89.65-3.79,1-5.68.08-.41,0-.52-.41-.51a25.19,25.19,0,0,0-2.58,0c-2.57.3-3.86,1.62-4.1,4.08A3,3,0,0,0,191.16,161.32Z"/><path class="cls-3" d="M112.6,155.86a9.19,9.19,0,0,1-4.28,3.37,15,15,0,0,1-10,.49,9,9,0,0,1-6.21-5.78,14.58,14.58,0,0,1,.94-12.43,11.64,11.64,0,0,1,11.69-5.57c5.22.7,7.29,3.92,7.87,8.51.23,1.78.18,1.77-1.6,1.84l-12.35.51c-.34,0-.72-.05-.68.51a14.23,14.23,0,0,0,1.14,5.28c1.4,2.89,3.93,3.87,6.92,4.05A19.13,19.13,0,0,0,112.6,155.86ZM100,144.38v-.2h5.09c.32,0,.74.1.69-.48a11.87,11.87,0,0,0-.59-3.47,3.09,3.09,0,0,0-2.48-2.25,3.29,3.29,0,0,0-3.45,1.62,8.9,8.9,0,0,0-1.14,3.23c-.3,1.6-.29,1.6,1.36,1.56Z"/><path class="cls-3" d="M136.19,155.75a9.2,9.2,0,0,1-4.62,3.28,15.18,15.18,0,0,1-9.84,0,8.86,8.86,0,0,1-5.74-5.49,14.3,14.3,0,0,1,1.1-12.65c2.52-4.17,6.41-5.84,11.24-5.41a10.64,10.64,0,0,1,3.67.91c2.8,1.33,4,3.75,4.51,6.64.12.74.12,1.49.22,2.23s-.14.88-.83.87c-3.63,0-7.26,0-10.9,0-.81,0-1.61,0-2.42,0-.44,0-.61.13-.61.59a13.89,13.89,0,0,0,.66,4.59,7,7,0,0,0,6,4.81A18.71,18.71,0,0,0,136.19,155.75Zm-6.26-12.69a11.33,11.33,0,0,0-.66-3.65,3,3,0,0,0-3-2,3.41,3.41,0,0,0-3,2,11.68,11.68,0,0,0-1.13,3.51c-.17.8.09.9.8.89,2,0,4.08,0,6.12,0C129.77,143.82,130.05,143.59,129.92,143.06Z"/><path class="cls-3" d="M155.19,156.48a11.12,11.12,0,0,1-10.95,3.91c-2.59-.68-4.15-2.8-4.26-5.91-.12-3.46.27-6.91.42-10.36q.12-2.59.31-5.17c0-.51-.15-.64-.63-.64a15.75,15.75,0,0,1-1.72-.12c-.25,0-.65.14-.66-.33s-.13-.77.43-1c3.61-1.4,6.25-4,8.76-6.85.19-.21.38-.43.56-.66s.44-.5.8-.36.18.5.16.75c-.16,1.92-.31,3.85-.54,5.76-.08.67.14.73.71.76,2.24.08,4.49.24,6.73.34.43,0,.59.14.6.6,0,2,.05,1.95-1.89,1.84s-3.86-.16-5.78-.3c-.58,0-.6.24-.63.65-.18,3.34-.38,6.67-.55,10a19.94,19.94,0,0,0-.06,3.71c.38,2.85,1.26,3.64,4.17,3.7,1.36,0,2.68-.31,4-.32Z"/><path class="cls-4" d="M112.43,171.45l2.17-5a1.71,1.71,0,0,1,2-.69c.2.11.17.28.17.44,0,2.79,0,5.59,0,8.38,0,.44-.18.51-.57.52-1.32.05-1.33.07-1.33-1.24s0-2.52-.12-3.82l-2.38,5.27-2.53-5.48c0,1.66,0,3.08,0,4.48,0,.64-.15.87-.8.81s-1.1.15-1.08-.82c.06-2.56,0-5.13,0-7.69,0-.28-.26-.84.29-.81s1.34-.44,1.74.43c.72,1.6,1.46,3.19,2.19,4.78Z"/><path class="cls-4" d="M136.82,175.51c-.63,0-1.11,0-1.59,0s-.61-.17-.76-.53c-.35-.82-.74-1.62-1.08-2.44s-1.14-.44-1.72-.49-.34.54-.38.84a13.36,13.36,0,0,0-.1,1.89c0,.48-.18.58-.61.56-1.53-.08-1.29.17-1.24-1.28.08-2.47.19-4.95.25-7.42,0-.51.11-.72.67-.68,1.35.09,2.7.1,4.05.19a2.83,2.83,0,0,1,2.69,2.06,2.94,2.94,0,0,1-1.32,3.43c-.44.26-.36.47-.2.82C135.92,173.45,136.35,174.44,136.82,175.51Zm-3.92-5.19h.95c.73,0,1.22-.29,1.28-1.08s-.3-1.22-1.15-1.3-1.44,0-2.16-.06c-.22,0-.42,0-.42.3a5.06,5.06,0,0,0,0,1.95C131.62,170.53,132.4,170.23,132.9,170.32Z"/><path class="cls-4" d="M106,175.08a1.81,1.81,0,0,1-.27.09c-1.77.15-1.77.15-2.6-1.42-.23-.43-.48-.85-.68-1.3a.76.76,0,0,0-.86-.52c-1.55.12-1.26-.09-1.25,1.33,0,.29,0,.58,0,.86,0,1.2-.38,1.51-1.56,1.24-.33-.07-.31-.28-.32-.51-.07-2.77-.13-5.53-.2-8.3,0-.41.12-.56.54-.56,1.47,0,2.94-.06,4.41,0a2.64,2.64,0,0,1,2.57,2,2.84,2.84,0,0,1-1.1,3.27c-.43.29-.42.49-.2.88C105,173.12,105.47,174.07,106,175.08Zm-4.28-4.94c.37,0,.75,0,1.12,0a1.12,1.12,0,0,0,1.14-1.24,1.09,1.09,0,0,0-1.15-1.14c-.6,0-1.21.05-1.81,0s-.88.19-.85.87C100.24,170.18,100.2,170.19,101.72,170.14Z"/><path class="cls-4" d="M146.85,176c-.57,0-1.14,0-1.7,0s-.52-.3-.66-.58l-2-4.06c-.77.83-1.84,1.36-1.66,2.72a3.78,3.78,0,0,1,0,.69,1.15,1.15,0,0,1-1.74.88c-.23-.13-.16-.35-.15-.54.13-2.76.27-5.52.4-8.28,0-.35.12-.49.51-.51,1.38-.07,1.41-.06,1.36,1.31,0,.43,0,.86-.07,1.29s-.07.86-.13,1.57l1.79-2a4.67,4.67,0,0,0,.52-.57,2.64,2.64,0,0,1,3.41-1.14c-.76.81-1.49,1.64-2.28,2.41a.88.88,0,0,0-.21,1.25c.82,1.55,1.57,3.13,2.34,4.71A1.49,1.49,0,0,1,146.85,176Z"/><path class="cls-4" d="M152,172.38c-.42.07-1-.36-1.2.07a5.16,5.16,0,0,0-.21,1.78c0,.36.3.28.51.3,1.2.1,2.41.22,3.61.27.54,0,.68.18.61.72-.14,1.17-.1,1.16-1.27,1.07-1.63-.12-3.27-.25-4.91-.34-.48,0-.62-.17-.57-.67q.34-4,.59-8.09c0-.49.16-.64.66-.6,1.72.15,3.44.27,5.16.38.53,0,.81.19.65.78s.24,1.22-.8,1.09-2.18-.12-3.27-.25c-.7-.08-.66.33-.66.77s-.16.91.58.84c.34,0,.69.06,1,0,.81,0,1,.26,1,1.1C153.37,172.94,152.46,172.16,152,172.38Z"/><path class="cls-4" d="M93,175.74c-.89,0-1.79,0-2.68,0-.43,0-.54-.13-.56-.53q-.18-4.15-.39-8.29c0-.43.16-.55.55-.56,1.79-.06,3.57-.13,5.35-.23.44,0,.59.1.61.56C95.94,168,96,168,94.7,168c-.86,0-1.73.12-2.59.08s-.72.6-.75,1.14c0,.71.45.5.81.49s.46,0,.69-.05c1.33-.09,1.39,0,1.28,1.36,0,.33-.13.47-.46.46s-.58,0-.86,0c-1.6.06-1.25-.11-1.3,1.37,0,.77.2,1,1,.91,1.09-.12,2.19-.11,3.28-.17s.49.79.65,1.22-.07.66-.57.65c-.95,0-1.9,0-2.85,0Z"/><path class="cls-4" d="M64.66,178a4.5,4.5,0,0,1-2.75-.87c-.36-.27-.47-.47-.11-.87.5-.57.87-1,1.71-.41a2.69,2.69,0,0,0,2.42.09.89.89,0,0,0,.71-1,.86.86,0,0,0-.77-.81c-.73-.16-1.47-.25-2.21-.37-1.6-.28-2.35-1-2.48-2.42a2.69,2.69,0,0,1,2-2.76,4.46,4.46,0,0,1,4,.47c.36.23.52.43.15.78a3.71,3.71,0,0,0-.49.6c-.24.35-.44.4-.83.13a2.46,2.46,0,0,0-2.39-.25.78.78,0,0,0-.57.78.71.71,0,0,0,.64.71c.67.14,1.36.21,2,.34,2,.37,2.72,1.14,2.74,2.74s-.87,2.55-2.7,2.94A11.88,11.88,0,0,1,64.66,178Z"/><path class="cls-4" d="M78,172.79c0,2.62-1.34,4.07-3.64,4.22a3.69,3.69,0,0,1-3.91-3.56c-.2-1.69-.31-3.38-.48-5.07,0-.36.06-.5.42-.57,1.28-.26,1.4-.2,1.53,1.07.15,1.43.24,2.87.41,4.3s1,2.11,2.15,2,1.72-1.09,1.61-2.47-.2-3-.44-4.47c-.16-.93.38-.88.94-1s.93-.09,1,.71C77.65,169.65,77.87,171.34,78,172.79Z"/><path class="cls-4" d="M84.61,166.7a3,3,0,0,1,2.8,4.1,2.87,2.87,0,0,1-2.63,1.91,6.54,6.54,0,0,1-1.46.12c-.89-.07-1.07.35-.93,1.12.09.48.05,1,.14,1.46.12.65-.13.83-.76.86-1.08,0-1.07.09-1.15-1-.16-2.44-.29-4.89-.52-7.33-.07-.79.21-1,.92-1C82.09,166.89,83.16,166.79,84.61,166.7Zm-1.06,1.89a5.63,5.63,0,0,1-.68,0c-.69,0-.85.27-.77.94.2,1.51.17,1.51,1.72,1.44,1.36-.07,1.87-.43,1.83-1.3S85.13,168.54,83.55,168.59Z"/><path class="cls-4" d="M123,173.1h-.26c-1.4,0-1.4,0-1.89,1.31a1.65,1.65,0,0,1-2,.71c-.25-.15-.11-.35,0-.52l3.37-8.39c.29-.72.9-.27,1.35-.36a.6.6,0,0,1,.78.45c1,2.81,2,5.62,3.05,8.42.14.38.13.55-.37.56-1.46,0-1.49.06-1.91-1.3-.2-.65-.48-1-1.2-.87a5.32,5.32,0,0,1-.86,0Zm.11-4.84c-.24.66-.41,1.17-.6,1.68-.56,1.52-.51,1.57,1.14,1.43.34,0,.47-.1.35-.45C123.72,170.07,123.45,169.23,123.12,168.25Z"/><path class="cls-4" d="M159.33,176.35c.19-2.09.35-4.07.56-6,.07-.62-.16-.84-.73-.83-.23,0-.46,0-.69,0-1.26-.08-1.24-.08-1.08-1.36.06-.44.18-.59.63-.54,2.06.2,4.13.38,6.19.55.32,0,.48.14.42.49a3.16,3.16,0,0,0-.08.77c0,.58-.24.64-.73.6-2-.17-2-.15-2.2,1.88-.13,1.52-.25,3-.39,4.56,0,.4.05,1-.66.77C160.08,177,159,177.51,159.33,176.35Z"/><path class="cls-3" d="M228.34,169.64a2.73,2.73,0,0,1-2.84,2.73,2.77,2.77,0,0,1-2.73-2.85,2.78,2.78,0,0,1,5.57.12Zm-.54-.08a2.25,2.25,0,1,0-2.25,2.32A2.2,2.2,0,0,0,227.8,169.56Z"/><path class="cls-3" d="M155.2,156.49l0-.06,0,0Z"/><path class="cls-5" d="M115.77,97.5c3.47,1.92,4.35,5.2,4.6,8.83.33-3.54,0-6.88-2.86-9.47-.2-.18-.79-.31-.37-.76s.7,0,1,.21a8.52,8.52,0,0,1,3,5.48c.19,1.12.26,2.25.41,3.53A10.7,10.7,0,0,0,121.17,95,7.44,7.44,0,0,0,114.95,91c-.41,0-.66-.11-.65-.57s.45-.33.7-.33c3.19,0,5.32,1.72,6.91,4.3a12.48,12.48,0,0,1-4,17.3,11.51,11.51,0,0,1-16.43-5.61,12.61,12.61,0,0,1,1.87-13,5.07,5.07,0,0,1,6.62-1.18,4.39,4.39,0,0,1,.82.63c.2.19.48.42.3.73s-.48.18-.72.14a6.26,6.26,0,0,1-.9-.29.53.53,0,0,0-.63.13c-.17.2-.05.38,0,.56s.26.45.38.67.43.42.28.68-.46,0-.69,0-.5.07-.43.43a2.08,2.08,0,0,0,.54,1.07,3.43,3.43,0,0,0,5.23-.59c.27-.47.47-1,.72-1.47s.53-.69,1-.49.41.64.32,1a5.17,5.17,0,0,1-1.71,2.74c-.42.36-.43.61,0,1a13.91,13.91,0,0,1,3.89,8.9C119.31,106.07,119.15,101.48,115.77,97.5Zm-12,9.51c.6-3.28.77-6.68,2.71-9.6a3.15,3.15,0,0,0-2.4,2.6A17.8,17.8,0,0,0,103.74,107Zm3.24,1.1c1.34-4,2.15-7.81,1.93-9C107.33,100.37,106.72,103.14,107,108.12Zm5.13-9c0,3.15.15,6.28.44,9.4a53,53,0,0,0,.76-6.07A4.32,4.32,0,0,0,112.1,99.15Zm3,3.82a57.11,57.11,0,0,1,.44,8c0,.37.18.35.44.23s.38-.38.45-.67a8.83,8.83,0,0,0,0-3.09A10.07,10.07,0,0,0,115.13,103ZM106,95.37a3.29,3.29,0,0,0-3.58,2.18,9.3,9.3,0,0,0-.59,5.26A8.26,8.26,0,0,1,106,95.37Zm1.06-2.49c-1.64-.7-3.89.68-4.22,2.51A16.18,16.18,0,0,1,107.07,92.87Zm-4.38,2.65,0-.05h0Z"/><path class="cls-6" d="M90.37,106.54a35,35,0,0,1,.19-4,39,39,0,0,1,.3-4.12,2.85,2.85,0,0,0-1.32-2.7,24.47,24.47,0,0,0-3.92-2.5c-.29-.16-.66-.21-.85-.54a10.46,10.46,0,0,1,3.35-2.05A47.56,47.56,0,0,1,95.52,88c-1.27-2.47-1.27-3.77,0-5.83a11,11,0,0,1,2.12-2.49,27.46,27.46,0,0,1,9.89-5.31,26.07,26.07,0,0,1,5.68-1.4c-1,.9-2.27,1.43-3.31,2.29a7.41,7.41,0,0,0-2.2,2.72,1.33,1.33,0,0,1-1.08.85,15.42,15.42,0,0,0-5.08,1.81c-.95.55-2.14.31-3.19.62l-.67.17c-.51.14-.65.45-.33.88a3,3,0,0,1,.26,3,9.12,9.12,0,0,0,.6,6.63,12.4,12.4,0,0,0,.74,1.46,6.62,6.62,0,0,1,.93,5.11,19.23,19.23,0,0,0-.24,4.21A49.86,49.86,0,0,0,90.37,106.54Z"/><path class="cls-7" d="M138.09,111a17.33,17.33,0,0,1,4.48-3c.25-.1.58-.37.77-.07s-.2.51-.43.7a9.75,9.75,0,0,0-3.33,3.86.22.22,0,0,0-.07.33l.23-.17a21,21,0,0,1,2.38-2.25c.26-.17.54-.47.84-.21s.12.58,0,.89a5.56,5.56,0,0,1-5.71,4,26.18,26.18,0,0,1-5.13-.62,3.92,3.92,0,0,1-2.09-1.23,13,13,0,0,0,3.69.34c0-.29-.25-.25-.42-.29a26,26,0,0,1-4.09-1.36,1,1,0,0,1-.74-.9,8.54,8.54,0,0,0-.61-2.77c-.2-.44,0-.9.11-1.35s.21-1.18-.38-1.57a1.43,1.43,0,0,0-1.63.15,3,3,0,0,0-1.5,2.73,2.59,2.59,0,0,1-.1,1c-1.23-.55-1.31-.72-.85-1.85a15.19,15.19,0,0,0,1.19-6.83,1.86,1.86,0,0,1,.46-1.42,32.16,32.16,0,0,1,5.18-5.06,9.76,9.76,0,0,1,1.09-.7c.26-.15.6-.43.84-.09s-.2.48-.38.66a66.89,66.89,0,0,0-5,5.27c-.18.22-.33.46-.5.7l-.24.27-.19.22a.22.22,0,0,0,.34-.07l.25-.24c1.3-1.17,2.52-2.43,3.92-3.48a9.88,9.88,0,0,1,3.56-1.83,40.68,40.68,0,0,0-5.4,5.62l-.16.19-.24.32c.22.11.3-.07.41-.19a.33.33,0,0,0,.12-.12c1.5-1.21,3-2.43,4.49-3.62a14.2,14.2,0,0,1,1.45-.93c.2-.12.45-.19.62,0s-.11.4-.25.53a27.25,27.25,0,0,0-4.37,5.31,8.77,8.77,0,0,0-1.27,3,1.9,1.9,0,0,0,.41,1.78c.4.41.8.38,1.27,0l0,0c.19.1.3,0,.37-.16l.87-.87c.15,0,.33,0,.33-.2l0,0c.21,0,.36-.11.18-.35h0c.41.2.52-.2.71-.38,1.19-1.12,2.35-2.28,3.56-3.39a5.26,5.26,0,0,1,1.9-1.16c.25-.08.56-.18.71.08s-.22.4-.39.53a20.5,20.5,0,0,0-4.88,5.31c.48.15.64-.24.86-.46a15.43,15.43,0,0,1,4.61-3.27c.21-.09.43-.15.65-.23s.4-.18.5.1-.21.29-.35.37a12,12,0,0,0-5,4.89l-.21.34c-.07,0-.27,0-.15.18s.21,0,.24-.12l.27-.23a17.14,17.14,0,0,1,4.21-3.11,3.65,3.65,0,0,1,1.92-.48c-2.19,1.66-4.47,3.21-5.61,5.89,1.8-1.86,3.51-3.88,6.38-4A14.1,14.1,0,0,0,138,110.9c0,.07-.05.19,0,.21S138.07,111.08,138.09,111Z"/><path class="cls-6" d="M150.51,102a8.87,8.87,0,0,1,1.85-3.13,2.85,2.85,0,0,0,.65-2.75,1.1,1.1,0,0,1,.75-1.48c1.95-.83,2.67-2.58,3.16-4.46a.66.66,0,0,0-.44-.83c-.55-.25-1.08-.55-1.64-.77-.35-.14-.44-.29-.25-.64,1.56-2.83,1.33-5.68.12-8.55a.8.8,0,0,1,0-.25,8.57,8.57,0,0,1,2.38,2.33c1.75,2.31,1.86,4.06.42,6.54a35.63,35.63,0,0,1,4.92,1.57,19.21,19.21,0,0,1,5.92,3.09c-1.21.8-2.58,1.34-3.74,2.23-.36.28-.74.54-1.1.83a3,3,0,0,0-1.29,3c.35,2.6.36,5.24.51,7.86-.31-.15-.63-.28-.93-.44A45.11,45.11,0,0,0,150.51,102Z"/><path class="cls-8" d="M168.35,92.63a19.21,19.21,0,0,0-5.92-3.09A35.63,35.63,0,0,0,157.5,88c1.44-2.48,1.33-4.23-.42-6.54a8.57,8.57,0,0,0-2.38-2.33,2.53,2.53,0,0,1-.33-.39c-.56-1-1.29-1.54-2.45-.94v0a1.66,1.66,0,0,0-2-1.73c-.41.08-.47,0-.58-.33-.42-1.07-1.47-1.68-2-2.7-.11-.22-.43-.12-.65-.1a4.91,4.91,0,0,0-2.86,1.31c-1.69-2.4-4.18-2.6-6.78-2.52-.81,0-.24.66-.45,1-.26,0-.37-.2-.54-.33a4.63,4.63,0,0,0-3.22-1,1.49,1.49,0,0,1-1.76-1.11,1.56,1.56,0,0,0-1.47-1.15,3,3,0,0,0-3.06,1.13c-.2.3-.39.2-.65.14a4.46,4.46,0,0,0-3.33.42,7.2,7.2,0,0,1-1.63.51,6.17,6.17,0,0,0-3.41,2.07,6.56,6.56,0,0,0-1.75-1.8c-.45-.29-.78-.39-1.13.17a2.6,2.6,0,0,1-1.47,1.14,26.07,26.07,0,0,0-5.68,1.4,27.46,27.46,0,0,0-9.89,5.31,11,11,0,0,0-2.12,2.49c-1.25,2.06-1.25,3.37,0,5.83a47.56,47.56,0,0,0-7.39,2.61,10.46,10.46,0,0,0-3.35,2.05l-1.41-.56a3.25,3.25,0,0,1,1.28-1,52.86,52.86,0,0,1,8.49-3.8c.63-.23.89-.42.66-1.19a6.36,6.36,0,0,1,1.25-5.77,17.85,17.85,0,0,1,6.33-5.11,48.52,48.52,0,0,1,15.83-4.88,59,59,0,0,1,8.52-.68,1.23,1.23,0,0,0,.85-.3c1.21-1,3.68-1.21,4.76.28.18.25.45.24.7.26a59,59,0,0,1,13.17,2.64c.59.19,1.13-.14,1.71-.13s.75,0,1,.51a2.44,2.44,0,0,0,1.34,1.15,24.07,24.07,0,0,1,7.57,4.88,8.93,8.93,0,0,1,2.57,4.41,5.12,5.12,0,0,1-.16,2.89c-.21.58,0,.75.49,1A56.88,56.88,0,0,1,168.29,91c.49.28,1,.61,1.53,1Z"/><path class="cls-9" d="M98,81.91a15.66,15.66,0,0,1,5.8-.09c.23,0,.45.09.68.11,1.48.18,2.69.43,3,2.36.32,1.73,1.66,3.06,2.91,4.31.12.12.23.3.42.22s.14-.34.13-.53a18.11,18.11,0,0,1,3.15-11.85,5,5,0,0,0,1.14-3.62c-.06-.46.18-.49.51-.26a3.14,3.14,0,0,1,1.3,2.26c.52,4.2-.11,8-3.57,11-.2.17-.39.34-.58.52a3.85,3.85,0,0,0-1.28,4.2,1.61,1.61,0,0,1-.18,1.66,14.37,14.37,0,0,0-5.62-6.62A28.72,28.72,0,0,0,98,81.91Z"/><path class="cls-10" d="M130.83,81.41a10.37,10.37,0,0,0,2.62-.1c.21-.06.48-.2.59.11s-.15.4-.35.52a17.34,17.34,0,0,1-2.56,1,1,1,0,0,0-.44.34,5.11,5.11,0,0,0,2.13.09c.51-.07,1-.19,1.53-.26.18,0,.44-.13.52.14s-.13.37-.3.47a8.64,8.64,0,0,1-2.85.92,2,2,0,0,0-.89.3,5.52,5.52,0,0,0,3.53.33c.24,0,.55-.26.67.06s-.22.43-.44.55a5.52,5.52,0,0,1-2.39.67,2.33,2.33,0,0,0-1.1.27,4.4,4.4,0,0,0,3.11.37c.28-.08.68-.33.81.08s-.29.54-.58.66a8,8,0,0,1-2.91.71c-.13,0-.28-.06-.41.13,1.16,1.16,2.45.71,3.77.23a2.87,2.87,0,0,1-4.1,1.42l-.15-.09a3.49,3.49,0,0,1-2.07-3.51c.06-1.55-.05-3.11,0-4.67a2.88,2.88,0,0,1,3.62-2.86c.3.09.56.2.64.51a.66.66,0,0,1-.39.71C132,80.82,131.49,81.06,130.83,81.41Zm-1.31,6.36a5.85,5.85,0,0,0,.37-2.83,27.72,27.72,0,0,1,.67-4.06c0-.22.18-.48-.07-.62s-.47.12-.64.29a2.16,2.16,0,0,0-.57,1.05A15.15,15.15,0,0,0,129.52,87.77Z"/><path class="cls-11" d="M116.54,119.36c.21,1.18,1.16,1.52,2.11,1.76a3,3,0,0,0,3.14-.94,3.67,3.67,0,0,0,.91-3.2.72.72,0,0,1,.44-.92c.42-.14.41.31.48.55a4.35,4.35,0,0,1-2.92,5.18,4,4,0,0,1-5-2.94,4.21,4.21,0,0,1,1.3-4.17c1.15-1.12,2.52-1.08,4-.73.86.21.44.73.36,1.19h0c-.13,0-.19,0-.18.18h0c-.52.21-1.39-.1-1.35.91a1.47,1.47,0,0,0,1.65,1.37c.22,0,.5-.12.57.2s-.2.45-.44.57a2.18,2.18,0,0,1-2.87-1.88,3,3,0,0,1,.25-1.59c.06-.06.22-.1.13-.21s-.19,0-.25.08a2.46,2.46,0,0,0,0,3.42,6.07,6.07,0,0,0,1.47,1.18,4,4,0,0,1-2.9-1.08c.34,1.33,1.34,1.53,2.23,1.91-.89.23-1.06.17-3-.94l-.15-.08Z"/><path class="cls-6" d="M135,116.25l-3.39,4.14c-1.53,1.87-3.07,3.72-4.57,5.61-.4.51-.62.41-1,0-.89-1.13-1.82-2.23-2.7-3.36-.17-.22-.73-.44-.29-.81s.64-1.08,1.47-.66a4.51,4.51,0,0,0,2.76.48,5.55,5.55,0,0,0,4.7-5c.07-.74.27-.83.92-.66A17.33,17.33,0,0,0,135,116.25Z"/><path class="cls-10" d="M125.28,81.08c.72,1.08,1.78.73,2.85,1a6,6,0,0,1-3.52.95c.9.94,2,.57,3.12.78a3.4,3.4,0,0,1-2.72,1c.4.72,1,.87,2.8.73-.26.79-1.06.69-1.59,1,.26.38.66.39,1.06.42.19,0,.56-.15.5.24a.52.52,0,0,1-.65.41l-.08,0c-1.2-.8-2.64-.92-4-1.38-1.48-.51-1.8-1.2-1.45-3.25s1.75-4.05,4.38-3.79a3.34,3.34,0,0,1,1.86.82c.41.35.45.63-.16.84A7.71,7.71,0,0,1,125.28,81.08Zm-2.92,4c.29-.15.26-.4.33-.61a7,7,0,0,1,1.82-3.63c.21-.18.51-.47.31-.72s-.6-.05-.85.12a2.37,2.37,0,0,0-.67.65A6.21,6.21,0,0,0,122.36,85.09Z"/><path class="cls-10" d="M136.23,79.22a3.48,3.48,0,0,0-2.57-1.2,9.32,9.32,0,0,1,3.42,5c.06.18.12.41.37.42s.22-.14.26-.29c.75-2.63.16-7.2-2.18-9.25a3.07,3.07,0,0,0-3.08-.49c.59.26,1,.42,1.43.64a.55.55,0,0,1,.31.57c-.09.31-.38.14-.58.1a1.75,1.75,0,0,0-1.4.53c-.32.23-.6.6-1.06.3a1.21,1.21,0,0,1-.42-1.24,1.93,1.93,0,0,1,1-1.47c1.22-.75,2.91-1.13,4.22.37a10.88,10.88,0,0,1,2.48,6,14,14,0,0,1-.56,5.29,2.07,2.07,0,0,1-.21.56c-.15.25-.4.5-.68.47s-.23-.4-.26-.64a8.14,8.14,0,0,0-3.56-6,2.64,2.64,0,0,1-1.31-1.64,1.55,1.55,0,0,1,1.88-2,3,3,0,0,1,.41.13c.41.14,1,.3.95.74s-.66.18-1,.29a4.16,4.16,0,0,1-.52.07C134.79,77.15,135.87,77.64,136.23,79.22Zm-3.54-2.95c-.3.08-.36.32-.32.59s.08.79.46.78.39-.46.39-.77S133,76.37,132.68,76.28ZM131.85,74a.61.61,0,0,0-.49.52c0,.34.24.34.47.33s.48-.12.45-.4S132.17,74,131.85,74Z"/><path class="cls-12" d="M132.38,105.63l-.87.87c-.14,0-.31-.05-.37.16l0,0c-1,0-1.3-.24-1.21-1.24a3.11,3.11,0,0,1,.24-1,16.59,16.59,0,0,1,5.19-6.55c.52-.39,1-.63,1.47.12a3.86,3.86,0,0,0,1.77,1.08,16.86,16.86,0,0,0-5.77,6.05h0c-.19.05-.34.13-.18.35l0,0C132.47,105.29,132.41,105.44,132.38,105.63Z"/><path class="cls-11" d="M126.58,119.18c-.12.38-.6.16-.75.48,1.89.87,3.69-1.28,3.57-2.76a2.53,2.53,0,0,0-.94-2.13.67.67,0,0,1-.14-1.1c.33-.34.62.07.86.28a4.11,4.11,0,0,1-4.23,6.87c-.61-.24-.85-.55-.62-1.24a5,5,0,0,0-.31-4.18.68.68,0,0,1-.11-.23,5,5,0,0,1,1.81-2.26c.28,0,.74-.2.76.28s.21,1.13-.4,1.37c-.43.16-.68.33-.58.78a.91.91,0,0,0,.88.7,2.74,2.74,0,0,0,1.36-.16c.16-.07.38-.29.54-.07a.61.61,0,0,1-.09.72,1.29,1.29,0,0,1-.91.44c-.44.08-.89.09-1.36.13.12.33.42.4.65.55a7.55,7.55,0,0,0,.8.4c-.54.59-1.15.2-1.73.17C125.7,118.87,126.35,118.82,126.58,119.18Z"/><path class="cls-9" d="M128.55,72.33a1.2,1.2,0,0,1,.51,1.44,6.44,6.44,0,0,0-.15,2.31c.07.72-.1,1.24-.86,1.45a.3.3,0,0,0-.27.35,3.62,3.62,0,0,0,2.42-.43c.48-.24.26-.49,0-.69-.53-.35-.6-.79-.31-1.42.7.66,1.53,1.14,1.47,2.24,0,.17.06.42-.11.48-1,.36-1.89,1.29-3.13.9a6.65,6.65,0,0,0-2.78-.46c-.63.07-.69-.51-.94-.85a.59.59,0,0,1,.09-.85,4.28,4.28,0,0,0,.68-1.19c.13-.26.26-.52.57-.61s.58-.14.73.06-.13.4-.28.55a.81.81,0,0,0-.31.91.32.32,0,0,0,.33.22c.42,0,.59-.33.72-.65a10.76,10.76,0,0,0,.46-4.68,1.12,1.12,0,0,1,.64-1.19,1.45,1.45,0,0,1,1.94.55c.29.64,0,1.12-1,1.43Z"/><path class="cls-12" d="M124.66,99.08c-.31-1.13-.59-2.19-.89-3.24a.79.79,0,0,1,.17-.79,16.06,16.06,0,0,1,4.53-3.82,1.55,1.55,0,0,1,2.31.95c.14.43-.2.57-.41.77A59.17,59.17,0,0,0,124.66,99.08Z"/><path class="cls-8" d="M150.51,102a45.11,45.11,0,0,1,11.29,4.15c.3.16.62.3.93.44l.16,1.74a44.41,44.41,0,0,0-13.94-4.89A6,6,0,0,0,150.51,102Z"/><path class="cls-13" d="M146.79,79.17c1-1,2.26-1.26,3.27-2a.5.5,0,0,1,.75.16.44.44,0,0,1-.19.66,17.16,17.16,0,0,1-1.6.85,4.23,4.23,0,0,0-2.69,3.71c-.1,1.09-.27,1.18-.91.86-.36-.18-.41-.38-.27-.75a17.89,17.89,0,0,0,.62-1.88,2.76,2.76,0,0,0-1-3.08,3.22,3.22,0,0,0-3.48-.52,2.4,2.4,0,0,0-1,3.11,1.61,1.61,0,0,0,2.16.67c.61-.36.59-.85.21-1.39-.09-.13-.44-.2-.17-.45s.48-.13.69.05a1.59,1.59,0,0,1-.14,2.17,2.36,2.36,0,0,1-3.67-1.42,2.92,2.92,0,0,1,2.43-3.71C143.59,75.88,145.59,76.22,146.79,79.17Z"/><path class="cls-10" d="M120.27,79.2a2.63,2.63,0,0,0,1.84.88c-.67.9-1.5.59-2.33.55.15.69.77.87,1.28,1.22-.47.42-1,.32-1.56.48.19.63.88.67,1.28,1.07A3.76,3.76,0,0,1,117.57,82a.2.2,0,0,1,0-.07,5.88,5.88,0,0,1,.85-4,2.82,2.82,0,0,1,3-1,4.47,4.47,0,0,1,1.31.64.81.81,0,0,1,.47.77c0,.39-.37.48-.66.6A6.74,6.74,0,0,1,120.27,79.2Zm.21-1.69c-1.47.25-2.57,2.05-2.42,3.87Z"/><path class="cls-7" d="M98.88,84.63l.93,2.24c.74,1.76,1.66,3.36,3.6,4,.28.1.28.19.13.42a1.42,1.42,0,0,1-2,.65,10.22,10.22,0,0,1-2.29-1.6c.25,1.61,1.47,2.58,2,3.88C98.18,91.63,97.26,87,98.88,84.63Zm.42,5.67-.05-.06-.06.06.08.06Z"/><path class="cls-14" d="M145.94,96.29c1.34-1.77,1.2-3.16-.3-3.62-.32.26.7.71-.11.89-.39.09-.79.12-1.23.19a1.83,1.83,0,0,0,.81.41c.26.11.54.18.85.28-.31.35-.68.27-1,.28H143.7c.54.6,1.23.51,1.79.94a3,3,0,0,1-2,0l-.72-.28c-1.16-.4-1.4-.94-1-2.13a3,3,0,0,1,3.38-1.89,3,3,0,0,1,2.32,3.21C147.48,95.49,147.05,96,145.94,96.29Z"/><path class="cls-13" d="M115.65,87.86A20.7,20.7,0,0,1,119.5,85c.18-.09.4-.37.59-.13s-.14.39-.28.53c-1.12,1.16-2.26,2.3-3.37,3.46a.93.93,0,0,1-.91.33,10.09,10.09,0,0,0-2.75-.11c-.68.06-.59-.44-.4-.79a9.21,9.21,0,0,1,1-1.3,35,35,0,0,1,3-3.17,1.37,1.37,0,0,1,.95-.52,17.18,17.18,0,0,0-3.14,4c1.5-1.16,2.75-2.62,4.54-3.35-1,1.38-2.41,2.31-3.3,3.73-.08.12-.32.24-.16.38S115.56,88,115.65,87.86Zm-1.47-.33,0-.13-.14.07c-.08,0-.08.08,0,.11S114.12,87.63,114.17,87.53Z"/><path class="cls-12" d="M116.83,89.27a10.93,10.93,0,0,1,3.65-3.16c.18-.09.41-.26.59,0a3,3,0,0,0,2.6,1.19c-.1.47-.52.66-.8.94-.75.75-1.53,1.48-2.31,2.21-.2.19-.36.45-.72.2A12.65,12.65,0,0,0,116.83,89.27Z"/><path class="cls-14" d="M148,98.16c1,1.56-.69.76-.91,1.29.41.34,1,.26,1.5.71-.79.3-1.54,0-2.31.13.37.61,1.14.5,1.61,1a1.11,1.11,0,0,1-1.38,0,6.06,6.06,0,0,0-1.51-1.13.31.31,0,0,1-.13-.1,7.69,7.69,0,0,1,.34-2.31,2.87,2.87,0,0,1,3-.63,3,3,0,0,1,1.91,2.65,3.08,3.08,0,0,1-1.66,2.81,1.29,1.29,0,0,1-.49.14c-.32,0-.8.23-.91-.17-.16-.57.44-.39.7-.47a2.22,2.22,0,0,0,1.72-2.19C149.52,99,149.12,98.47,148,98.16Z"/><path class="cls-10" d="M123.68,74.92c-.55.22-1.09-.32-1.67.09.39.47,1.12.59,1.3,1.19,0,.21-.19.22-.28.19a5.5,5.5,0,0,0-3.85.38c-.7.31-1-.14-1.12-.67a2.83,2.83,0,0,1,1.5-3.33,4.08,4.08,0,0,1,5.15,1,12,12,0,0,0-1.36-.35,2.21,2.21,0,0,0-1.35.12C122.47,74.17,123.43,74.11,123.68,74.92Zm-5.26.31a15.6,15.6,0,0,0,2.79-1.64c.18-.13.51-.3.31-.6a.58.58,0,0,0-.71-.15A3.94,3.94,0,0,0,118.42,75.23Z"/><path class="cls-8" d="M90.37,106.54a49.86,49.86,0,0,1,9.26-3.82c.2,1.59.2,1.59-1.31,2.08a43.58,43.58,0,0,0-8.18,3.53Z"/><path class="cls-14" d="M141,99.79c-.69-.51-1.37-1-2.08-1.53-.32-.22-.3-.41-.17-.72a2.85,2.85,0,0,1,3-1.75,2.91,2.91,0,0,1,.74,5.6c-.2.07-.39.15-.51-.09s.09-.34.27-.42a2.42,2.42,0,0,0,1.35-1.6,1.58,1.58,0,0,0-1.29-2.13c.75,1.32-.6.78-1,1.16.35.5,1,.31,1.44.67a1.33,1.33,0,0,1-1.17.41c-.15,0-.54-.24-.42.25Z"/><path class="cls-14" d="M141,91.78c.06.29.52.3.37.63s-.62.15-1,.31c0,.38.65.45.57.82-.12.6-.67-.06-.94.28.08.48.59.7.85,1.12-.32.27-.54.13-.75-.14-.35-.46-.66-.95-1-1.37a1.92,1.92,0,0,1-.22-2.51,2.76,2.76,0,0,1,2.63-1.48,2.88,2.88,0,0,1,1.74.69c.16.14.46.28.31.53a.62.62,0,0,1-.61.25c-.36-.06-.62-.27-.67.41C142.24,91.8,141.5,91.79,141,91.78Z"/><path class="cls-13" d="M122,92.14c1.15-.9,2.3-1.8,3.46-2.69a4.51,4.51,0,0,1,1.42-.79.45.45,0,0,1,.55.13c.16.27-.14.32-.28.42a18.29,18.29,0,0,0-3.57,3.2c.46.17.62-.19.85-.37a12,12,0,0,1,3.86-2.22c.17-.05.34-.14.45.07s-.07.25-.19.31a18.44,18.44,0,0,0-5.09,4.48c-.46-.67-.89-1.31-1.34-1.94a.6.6,0,0,1-.11-.63Z"/><path class="cls-14" d="M139.43,87.66l1.26.68a11.21,11.21,0,0,1-3.44,0c-.38,0-.34-.32-.36-.57A2.93,2.93,0,0,1,140,85.11a3,3,0,0,1,2.47,1.78c.23.56.31,1.11-.32,1.52-.25-1.51-.52-1.86-1.48-2C141,87.46,141,87.46,139.43,87.66Z"/><path class="cls-14" d="M150.54,95.06c.4,1.44-.92.66-1.2,1.18l1.66.61a1.53,1.53,0,0,1-1.75,0c-.48-.24-1.18-.35-1.39-.74s.22-1,.28-1.47.48-.87,1-1a2.93,2.93,0,0,1,2.25,5.11c-.16.12-.32.42-.57.16s-.05-.46.18-.63a2,2,0,0,0,.71-2.08A1.25,1.25,0,0,0,150.54,95.06Z"/><path class="cls-14" d="M121.3,115.15c.23.06.29-.13.39-.26a36.2,36.2,0,0,0,2.8-4,4.48,4.48,0,0,0,.77-2.78,2.11,2.11,0,0,1,.55-1.51.65.65,0,0,1,1-.13c.36.28.1.57-.08.82a2.28,2.28,0,0,1-.47.5.75.75,0,0,0-.31,1.08,1.85,1.85,0,0,1-.19,1.5,21.31,21.31,0,0,1-4.16,6.11,2.11,2.11,0,0,1-.47.37.49.49,0,0,1-.64-.05c-.17-.2.05-.36.15-.52s.58-.48.51-.92h0c.18.06.21,0,.18-.18Z"/><path class="cls-14" d="M150.42,91.53c.09.45.48.72.15,1.06a.93.93,0,0,1-1,.17c-.22,0-.46-.21-.65,0-1.11,1.1-1.1-.3-1.49-.69-.6-.59-.1-1,.38-1.25a2.69,2.69,0,0,1,3.08-.16,2.93,2.93,0,0,1,1.5,2.64c0,.23.09.6-.29.6s-.36-.31-.35-.58A1.69,1.69,0,0,0,150.42,91.53Z"/><path class="cls-14" d="M149.88,87.17c-.12.31.27.43.23.72a3.19,3.19,0,0,1-1.58.29c.54.48,1.24.41,1.74.79-1,.44-1.51.31-2-.47-.23-.33-.49-.64-.73-1a1,1,0,0,1,.54-1.63,3,3,0,0,1,3.72,3.53c-.07.29-.08.72-.55.59s-.19-.49-.11-.73a1.8,1.8,0,0,0-.35-1.78C150.54,87.25,150.28,87,149.88,87.17Z"/><path class="cls-14" d="M146.49,89.63a4.7,4.7,0,0,1-1.58.29c.5.44,1.13.45,1.63.79a3,3,0,0,1-2-.24A7.83,7.83,0,0,0,143,89.09c-.31-.18-.05-.42.09-.57a2.9,2.9,0,0,1,2.55-1A2.79,2.79,0,0,1,148,89.36c.09.23.17.42-.13.57s-.38-.07-.48-.28a1.48,1.48,0,0,0-.18-.3c-.24-.3-.46-.86-.88-.63S146.51,89.28,146.49,89.63Z"/><path class="cls-14" d="M144.58,102.05c.63,1.31-.83.53-1,1.1l1.24.54c-1.34.48-2.16,0-2.28-1.29,0-.06,0-.14,0-.16.6-.51,1.26-1,1.87-1.46.29-.24.77.26,1.09.54a2.83,2.83,0,0,1-.45,4.67c-.26.14-.6.41-.82,0s.28-.4.48-.52a2.23,2.23,0,0,0,.92-2.91,1,1,0,0,0-1-.6l-.13,0Z"/><path class="cls-14" d="M144.71,85.18c.39.92.39.92-1.21,1.14l1.11.51c-1.17.53-1.25.51-1.79-.57a4.58,4.58,0,0,0-1.09-1.33c.94-.62,1.82-1.26,3-.85a2.62,2.62,0,0,1,1.92,2.22c0,.23.18.56-.23.61s-.32-.23-.37-.46A1.46,1.46,0,0,0,144.71,85.18Z"/><path class="cls-14" d="M137.55,94.46c.68,1,.68,1-.27,1.21,0,.25.29.25.43.38s.61.1.41.48-.69.46-.88.17A21.85,21.85,0,0,0,135.19,94c-.16-.19.06-.29.19-.39a2.9,2.9,0,0,1,4.06,1.31c.1.28.18.59-.15.76s-.33-.27-.46-.42A1.6,1.6,0,0,0,137.55,94.46Z"/><path class="cls-13" d="M111.67,97c-.72,0-1-.36-.77-.93a18.74,18.74,0,0,0,1.28-5.34c0-.28,0-.61.31-.76a.66.66,0,0,1,.73.08c.28.22.23.48.13.78a31.29,31.29,0,0,0-1.09,3.72,2.64,2.64,0,0,0,0,1.52C112.57,96.73,112.13,96.9,111.67,97Z"/><path class="cls-14" d="M146.55,84c.07-1.59.54-1.9,2-1.38a2.69,2.69,0,0,1,2,2c.05.24.22.64-.13.75s-.48-.2-.58-.51a2.32,2.32,0,0,0-.65-1c-.17-.15-.37-.39-.59-.24s0,.42.1.59c.28.37.11.47-.26.56s-1-.27-1,.58c0,.15-.39.15-.55-.09A1.61,1.61,0,0,1,146.55,84Z"/><path class="cls-14" d="M137.7,89a2.23,2.23,0,0,1,.34,0c.32.08.8,0,.91.36s-.3.69-.56.76c-.68.17-.36,1.15-1.11,1.24-.15,0,.06.28.15.41s.26.28.12.45-.34.09-.48,0c-.6-.34-1.18-.7-1.76-1.07-.28-.17-.13-.4,0-.6A3,3,0,0,1,137.7,89Z"/><path class="cls-14" d="M140.84,83.7c.09.32.6.25.45.61s-.39.2-.62.2a6.21,6.21,0,0,1-.78,0c-.35,0-.92.23-1-.17a2.24,2.24,0,0,1,.67-2c.36-.4.63-.17,1,0a1.72,1.72,0,0,0,1.34.15.82.82,0,0,1,1.07.26c.11.16.32.36.1.52a1.68,1.68,0,0,1-1.16.49A3.09,3.09,0,0,0,140.84,83.7Z"/><path class="cls-13" d="M122,92.13c0-.07-.1-.08-.2-.08a1.13,1.13,0,0,1-1-.71c-.18-.37.32-.54.56-.75a26,26,0,0,1,3.1-2.33,6.89,6.89,0,0,1,.83-.45c.22-.1.51-.12.63.09s-.19.36-.35.47a14.89,14.89,0,0,0-3.29,3c-.16.2-.53.37-.3.75Z"/><path class="cls-11" d="M121.48,99.11a22.73,22.73,0,0,0-3.21-4.68c-.15-.17-.36-.33-.15-.59a.52.52,0,0,1,.71-.08,2,2,0,0,1,.56.4A8.16,8.16,0,0,1,121.48,99.11Z"/><path class="cls-10" d="M126.65,72.77c0,.52,0,.92-.25,1.08s-.52-.23-.75-.4a9.22,9.22,0,0,0-2.2-1.33c-.64-.22-.33-.46-.05-.69a2,2,0,0,1,3.26,1.34Zm-2-1.24c-.19,0-.49,0-.46.37s.37.47.69.48.53-.12.49-.45S125.07,71.53,124.7,71.53Z"/><path class="cls-13" d="M102.78,80.92a9.77,9.77,0,0,1,3.72-1.24c.43,0,.59,0,.52.55-.16,1.18-.12,1.19-1.33,1C104.74,81.11,103.77,81,102.78,80.92Z"/><path class="cls-14" d="M127.12,109a29.68,29.68,0,0,1,.37,4.87,3.42,3.42,0,0,1-.3,1.33c-.13.29-.36.5-.67.39s-.11-.43,0-.63a10.9,10.9,0,0,0,.12-4.77A1,1,0,0,1,127.12,109Z"/><path class="cls-10" d="M150.89,81.66c0,.45,0,.72-.24.88s-.48,0-.69-.18a3.18,3.18,0,0,0-1.68-.8c-.55,0-.35-.44-.16-.68a1.4,1.4,0,0,1,1.57-.64A1.56,1.56,0,0,1,150.89,81.66Z"/><path class="cls-10" d="M154.18,86.59a1.46,1.46,0,0,1-.49,1.22c-.31.26-.68.3-.84-.12a16.25,16.25,0,0,0-.85-1.58.65.65,0,0,1,.14-.85.61.61,0,0,1,.78-.07C153.58,85.52,154.13,85.93,154.18,86.59Z"/><path class="cls-10" d="M106.17,86.69c-.47,1-.95,1.93-1.42,2.9-.24.5-.58.18-.88.1s-.42-.31-.26-.65A4.45,4.45,0,0,1,106.17,86.69Z"/><path class="cls-10" d="M104.62,85.63A8.06,8.06,0,0,0,103.17,89c0,.2-.09.43-.38.28s-.88-.42-.66-.94A5.12,5.12,0,0,1,104.62,85.63Z"/><path class="cls-11" d="M114.33,91.76a1.91,1.91,0,0,1,.91.4c.22.18.28.36,0,.5a4.56,4.56,0,0,0-1.74,1.49c-.23.31-.44.23-.55-.1A3.28,3.28,0,0,1,114,91.81,1.37,1.37,0,0,1,114.33,91.76Z"/><path class="cls-10" d="M152.75,79.55c0-.5-.05-.91.36-1s.57.29.74.57c.58.94.55,1.32-.11,1.74-.43.27-.73.29-.82-.33A6.66,6.66,0,0,1,152.75,79.55Z"/><path class="cls-10" d="M146.91,73.68c.52.14.71.7.8,1.19s-.33.7-.74.82c-.16.05-1.26-1.2-1.25-1.4S146.4,73.7,146.91,73.68Z"/><path class="cls-14" d="M136.08,92.39c-1.48,1-1.48,1-2.92-.26A2.35,2.35,0,0,1,136.08,92.39Z"/><path class="cls-10" d="M110.73,83.61a6.58,6.58,0,0,1-2.11-.22c-.41-.06-.46-.35-.53-.68s-.15-.47,0-.65.44,0,.62.12A7.17,7.17,0,0,1,110.73,83.61Z"/><path class="cls-10" d="M111.27,80.19c-.88-.09-1.67-.53-2.57-.57-.43,0-.31-.37-.22-.65s.31-.6.75-.4a4.4,4.4,0,0,1,2,1.64Z"/><path class="cls-10" d="M152.24,80.37c0,.34,0,.66-.27.75s-.36-.27-.53-.43a3.34,3.34,0,0,1-.45-.51c-.15-.24-.67-.35-.45-.69a1.24,1.24,0,0,1,1-.49c.4,0,.43.39.5.69S152.2,80.19,152.24,80.37Z"/><path class="cls-10" d="M101.57,88.16c-.9-.93-.16-2.59,1.5-3.38A13.07,13.07,0,0,0,101.57,88.16Z"/><path class="cls-10" d="M112,78.69,109.85,78c-.27-.09-.65-.16-.39-.56s.41-.74.87-.47A4,4,0,0,1,112,78.69Z"/><path class="cls-10" d="M110.39,85.87c-.05.21.14.55-.17.66s-.38-.2-.53-.36a5.37,5.37,0,0,1-1.1-1.3c-.08-.16-.23-.4.12-.44A1.82,1.82,0,0,1,110.39,85.87Z"/><path class="cls-10" d="M153.29,92.38c.05-.46.16-.82.66-.77a.83.83,0,0,1,.74.91,1,1,0,0,1-.92,1.06C153.13,93.52,153.66,92.69,153.29,92.38Z"/><path class="cls-10" d="M110.61,76.42c.84-1,1.84-.89,2.31.23a.44.44,0,0,1,0,.48c-.12.14-.26,0-.39,0Z"/><path class="cls-10" d="M107.68,87.58c-.41.87-.73,1.58-1.09,2.27-.21.4-.64.29-.9.13s0-.44.11-.63A4.06,4.06,0,0,1,107.68,87.58Z"/><path class="cls-10" d="M110.73,81.72a8,8,0,0,1-2.28-.39c-.46-.08-.33-.57-.27-.88s.39-.22.61-.12A5.89,5.89,0,0,1,110.73,81.72Z"/><path class="cls-10" d="M144,77.83a2.17,2.17,0,0,1,1.15,1.85c0,.2,0,.42-.24.49a.46.46,0,0,1-.58-.25A3.1,3.1,0,0,1,144,77.83Z"/><path class="cls-10" d="M154.86,84.63c0,.26.06.65-.4.69-.28,0-1.15-1.14-1.12-1.46s.2-.33.42-.34A1.09,1.09,0,0,1,154.86,84.63Z"/><path class="cls-10" d="M147.61,77c.27-.38-.08-1.19.69-1.25.47,0,.62.54.61.89,0,.58-.59.74-1,.86S147.66,77.22,147.61,77Z"/><path class="cls-10" d="M143.2,75.14c-.45,0-.84,0-1.22.11s-.51.15-.7-.11a.55.55,0,0,1,0-.64.69.69,0,0,1,.72-.36A1.34,1.34,0,0,1,143.2,75.14Z"/><path class="cls-10" d="M155.56,90.4c-.16.45-.36.85-.86.85a.69.69,0,0,1-.73-.68c0-.5.31-.66.7-.64S155.42,90,155.56,90.4Z"/><path class="cls-14" d="M144.05,83c-.31-.23-.66-.54-.61-.87.07-.49.57-.68,1-.74.31,0,.49.14.42.47A1.52,1.52,0,0,1,144.05,83Z"/><path class="cls-10" d="M138.77,73.63c-.75,0-1-.36-1-.87,0-.34.22-.39.45-.33.43.11,1.06,0,1.08.71A.45.45,0,0,1,138.77,73.63Z"/><path class="cls-10" d="M100.68,86.56c-.79-1.31-.64-1.82.79-2.58A15.66,15.66,0,0,0,100.68,86.56Z"/><path class="cls-10" d="M114.16,75.6a1.48,1.48,0,0,1-1.24-.07c-.23-.09-.57-.13-.59-.42s.32-.38.52-.52a.45.45,0,0,1,.69.09C113.74,75,114.08,75.18,114.16,75.6Z"/><path class="cls-10" d="M130,73.38a1.75,1.75,0,0,1,.43-1.43.59.59,0,0,1,.91-.07c.38.33,0,.5-.22.66C130.77,72.83,130.51,73.25,130,73.38Z"/><path class="cls-13" d="M123.84,110.29a.67.67,0,0,1-.46.45c-.24.06-1.26-.63-1.21-.82a.68.68,0,0,1,.42-.51A3.34,3.34,0,0,1,123.84,110.29Z"/><path class="cls-10" d="M138.94,75.37a.53.53,0,0,1,.53.65c-.06.44-.3.93-.7.94s-.28-.61-.34-1S138.56,75.41,138.94,75.37Z"/><path class="cls-10" d="M154.24,82.62c-.27-.05-.62-.06-.51-.48a.67.67,0,0,1,.76-.53.48.48,0,0,1,.46.59A.52.52,0,0,1,154.24,82.62Z"/><path class="cls-10" d="M141.3,73.36c-.06.34-.33.39-.58.41s-.65-.11-.68-.49a.42.42,0,0,1,.46-.5A1,1,0,0,1,141.3,73.36Z"/><path class="cls-10" d="M145.79,76.16c-.39,0-.54-.35-.81-.5s-.64-.07-.37-.48a.54.54,0,0,1,.77-.11A.85.85,0,0,1,145.79,76.16Z"/><path class="cls-14" d="M152.72,82.38a4,4,0,0,1-1,1.85c-.09.1-.21.22-.36.09s-.17-.31,0-.43C152,83.49,152.24,82.85,152.72,82.38Z"/><path class="cls-10" d="M142.64,78.29c-.28,0-.55-.12-.54-.41s.4-.4.7-.43.52.06.47.42S143,78.3,142.64,78.29Z"/><path class="cls-14" d="M141.63,80.17c-.22-.68-.39-1.18-.54-1.68a.24.24,0,0,1,.17-.33c.19,0,.24.11.26.25A4.88,4.88,0,0,1,141.63,80.17Z"/><path class="cls-10" d="M153.42,89.86c-.08.26-.21.51-.52.46a.42.42,0,0,1-.4-.48c.06-.29.34-.39.6-.4S153.42,89.63,153.42,89.86Z"/><path class="cls-10" d="M139.05,74.65a.51.51,0,0,1-.54.31.41.41,0,0,1-.44-.5c0-.25.21-.32.44-.28A.6.6,0,0,1,139.05,74.65Z"/><path class="cls-14" d="M145.82,96.33c-1,.83-1,.83-1.41.18A7.39,7.39,0,0,0,145.82,96.33Z"/><path class="cls-14" d="M139.84,74.62c.38.33.77.63.69,1.18,0,0-.18.11-.21.09C139.9,75.56,139.94,75.06,139.84,74.62Z"/><path class="cls-10" d="M108.27,89.19c0,.54.19.88-.24,1-.15,0-.43.07-.45-.09C107.52,89.71,107.91,89.6,108.27,89.19Z"/><path class="cls-10" d="M100.36,83.5c-.11.44-.2.78-.6.89a.52.52,0,0,1-.19-.34C99.61,83.63,100,83.6,100.36,83.5Z"/><path class="cls-14" d="M141.11,99.64a2.94,2.94,0,0,1,1.09.51c-.64.54-.88-.07-1.23-.35Z"/><path class="cls-10" d="M111.26,80.2l.06,0-.05,0Z"/><path class="cls-8" d="M151.91,77.77l-.09.1V77.8h.12Z"/><path class="cls-1" d="M103.74,107a17.8,17.8,0,0,1,.31-7,3.15,3.15,0,0,1,2.4-2.6C104.51,100.34,104.34,103.73,103.74,107Z"/><path class="cls-1" d="M107,108.12c-.26-5,.35-7.74,1.93-9C109.13,100.31,108.32,104.09,107,108.12Z"/><path class="cls-1" d="M112.1,99.15a4.32,4.32,0,0,1,1.2,3.33,53,53,0,0,1-.76,6.07C112.25,105.42,112.09,102.3,112.1,99.15Z"/><path class="cls-1" d="M115.13,103a10.07,10.07,0,0,1,1.3,4.47,8.83,8.83,0,0,1,0,3.09c-.07.3-.15.54-.45.67s-.46.13-.44-.23A57.11,57.11,0,0,0,115.13,103Z"/><path class="cls-1" d="M106,95.37a8.26,8.26,0,0,0-4.17,7.44,9.3,9.3,0,0,1,.59-5.26A3.29,3.29,0,0,1,106,95.37Z"/><path class="cls-1" d="M107.07,92.87a16.18,16.18,0,0,0-4.22,2.51C103.18,93.55,105.43,92.17,107.07,92.87Z"/><polygon class="cls-1" points="102.69 95.52 102.68 95.46 102.72 95.47 102.69 95.52"/><path class="cls-1" d="M128.7,100.7c-.11.12-.19.3-.41.19l.24-.32Z"/><path class="cls-1" d="M139.74,112.66l-.23.17a.22.22,0,0,1,.07-.33Z"/><path class="cls-1" d="M132.69,105.45c-.16-.23,0-.3.18-.35C133.05,105.34,132.9,105.41,132.69,105.45Z"/><path class="cls-1" d="M135.66,107.88c0,.15-.18.2-.24.12s.08-.14.15-.18Z"/><path class="cls-1" d="M135.57,107.82l.21-.34.16.17-.27.23Z"/><path class="cls-1" d="M131.14,106.65c.06-.21.23-.15.37-.16C131.44,106.67,131.33,106.75,131.14,106.65Z"/><path class="cls-1" d="M132.38,105.63c0-.19.1-.34.33-.2C132.71,105.68,132.53,105.63,132.38,105.63Z"/><path class="cls-1" d="M126.21,100.16l.24-.27.15.19-.25.24Z"/><path class="cls-1" d="M126.35,100.31a.22.22,0,0,1-.34.07l.19-.22Z"/><path class="cls-1" d="M138.09,111c0,.08-.07.16-.16.1s0-.13,0-.21Z"/><path class="cls-1" d="M128.53,100.57l.16-.19.14.2a.33.33,0,0,1-.12.12Z"/><path class="cls-9" d="M129.52,87.77a15.15,15.15,0,0,1-.24-6.17,2.16,2.16,0,0,1,.57-1.05c.17-.18.35-.46.64-.29s.12.4.07.62a27.72,27.72,0,0,0-.67,4.06A5.85,5.85,0,0,1,129.52,87.77Z"/><path class="cls-1" d="M118.84,114.75c.06-.1.18-.17.25-.08s-.07.15-.13.21Z"/><path class="cls-1" d="M116.54,119.36l0-.19.15.08Z"/><path class="cls-1" d="M121.3,115.14c0,.15,0,.24-.18.18C121.11,115.18,121.17,115.13,121.3,115.14Z"/><path class="cls-9" d="M122.36,85.09a6.21,6.21,0,0,1,.93-4.18,2.37,2.37,0,0,1,.67-.65c.25-.17.62-.41.85-.12s-.1.54-.31.72a7,7,0,0,0-1.82,3.63C122.63,84.69,122.65,84.93,122.36,85.09Z"/><path class="cls-9" d="M132.68,76.28c.32.09.54.27.54.6s-.1.76-.39.77-.41-.46-.46-.78S132.38,76.36,132.68,76.28Z"/><path class="cls-14" d="M131.85,74c.32,0,.42.23.44.45s-.2.39-.45.4-.51,0-.47-.33A.61.61,0,0,1,131.85,74Z"/><path class="cls-9" d="M120.49,77.5l-2.42,3.87C117.92,79.55,119,77.75,120.49,77.5Z"/><path class="cls-1" d="M99.31,90.3l0,.06-.08-.06.06-.06Z"/><path class="cls-1" d="M115.65,87.86c-.08.13-.18.35-.34.22s.08-.26.16-.38Z"/><path class="cls-1" d="M114.17,87.53c0,.1-.12.09-.2.05s-.07-.08,0-.11l.14-.07Z"/><path class="cls-9" d="M118.42,75.23a3.94,3.94,0,0,1,2.39-2.39.58.58,0,0,1,.71.15c.2.29-.13.46-.31.6A15.6,15.6,0,0,1,118.42,75.23Z"/><path class="cls-1" d="M144.58,102.05l0-.14.13,0Z"/><path class="cls-14" d="M124.7,71.53c.37,0,.67,0,.71.41s-.2.46-.49.45-.65-.07-.69-.48S124.51,71.55,124.7,71.53Z"/><text class="cls-15" transform="translate(224.3 170.98)">R</text></svg>