<svg xmlns="http://www.w3.org/2000/svg" viewBox="0 0 250 250"><defs><style>.a{fill:#252122;}.b{fill:#d36797;}.c{fill:#faf9f9;}.d{fill:#242021;}.e{fill:#ec71a7;}.f{fill:#f6f6f6;}.g{fill:#edeced;}.h{fill:#f4f4f4;}.i{fill:#f2f2f2;}.j{fill:#fdfdfd;}.k{fill:#e6e6e6;}.l{fill:#fefdfd;}.m{fill:#292124;}.n{fill:#363334;}</style></defs><title>Fast Casual</title><path class="a" d="M15.82,126.91v-3.83c.18,0,.17-.19.2-.32a15.19,15.19,0,0,1,3.73-6.84,37.87,37.87,0,0,1,10.55-7.82A108.72,108.72,0,0,1,53.82,99.3a217.24,217.24,0,0,1,25.19-5c6.25-.9,12.52-1.59,18.82-2.09q8.2-.66,16.42-.89a10.77,10.77,0,0,0,3.1-.14h15.31a10.92,10.92,0,0,0,3.1.14c2.6.11,5.2.21,7.8.34,6.42.31,12.82.85,19.2,1.58C169.54,94,176.3,95,183,96.28a165.27,165.27,0,0,1,26,7,68.47,68.47,0,0,1,16.44,8.32,23.31,23.31,0,0,1,7.53,8.16c.57,1.11.78,2.32,1.24,3.45v3.66c-.23,0-.18.25-.21.4a16.42,16.42,0,0,1-5,8.07,46.55,46.55,0,0,1-13,8.36c-10.76,5-22.15,7.87-33.72,10.12-7.29,1.42-14.63,2.44-22,3.22-7.55.8-15.12,1.29-22.7,1.61a4.3,4.3,0,0,0-2.07.18h-21.3c-.06-.23-.26-.16-.41-.16-10.44-.32-20.84-1.12-31.21-2.48a234.29,234.29,0,0,1-24.24-4.38A130.31,130.31,0,0,1,35,144.2a49.91,49.91,0,0,1-13.42-8.3,17.48,17.48,0,0,1-5.32-7.78C16.12,127.71,16.19,127.23,15.82,126.91ZM124.2,95.64c-2.68-.06-6.36.06-10,.17-9.89.29-19.75,1-29.58,2.11A230,230,0,0,0,55.87,103a99.77,99.77,0,0,0-22.3,7.94,33.8,33.8,0,0,0-8.88,6.36c-4.52,4.68-4.67,10.21-.35,15.07a29.4,29.4,0,0,0,7.89,6,88.68,88.68,0,0,0,20,7.7,230.41,230.41,0,0,0,36.85,6.51c10.45,1.09,20.94,1.61,31.44,1.77,6.1.09,12.19,0,18.29-.25,7.89-.29,15.77-.84,23.62-1.67a241.18,241.18,0,0,0,28.84-4.7,112.76,112.76,0,0,0,22.9-7.49,37,37,0,0,0,11.05-7.39c4.77-4.89,4.75-10.81,0-15.68a32.23,32.23,0,0,0-7.45-5.53,89.39,89.39,0,0,0-20.48-7.83,238.79,238.79,0,0,0-41-6.81C145.93,96.06,135.57,95.66,124.2,95.64Z"/><path class="b" d="M135.82,91.13a.21.21,0,0,0-.06.14,10.93,10.93,0,0,1-3.1-.14Z"/><path class="b" d="M114.25,91.27a.21.21,0,0,0-.07-.14h3.16A10.77,10.77,0,0,1,114.25,91.27Z"/><path class="c" d="M124.2,95.64c11.38,0,21.73.42,32.06,1.34a238.79,238.79,0,0,1,41,6.81,89.39,89.39,0,0,1,20.48,7.83,32.23,32.23,0,0,1,7.45,5.53c4.79,4.87,4.8,10.79,0,15.68a37,37,0,0,1-11.05,7.39,112.76,112.76,0,0,1-22.9,7.49,241.18,241.18,0,0,1-28.84,4.7c-7.85.83-15.73,1.38-23.62,1.67-6.1.23-12.19.34-18.29.25-10.5-.15-21-.68-31.44-1.77a230.41,230.41,0,0,1-36.85-6.51,88.68,88.68,0,0,1-20-7.7,29.4,29.4,0,0,1-7.89-6c-4.32-4.86-4.17-10.38.35-15.07a33.8,33.8,0,0,1,8.88-6.36A99.77,99.77,0,0,1,55.87,103a230,230,0,0,1,28.7-5.05c9.83-1.16,19.69-1.83,29.58-2.11C117.83,95.7,121.52,95.58,124.2,95.64Zm.86,2.14q-7.27,0-14.54.3-13,.49-25.93,2a222.5,222.5,0,0,0-29.08,5.2A96.5,96.5,0,0,0,34,113a27.06,27.06,0,0,0-8.38,6.3c-3,3.53-3.07,7.24-.31,10.91a18.12,18.12,0,0,0,3.7,3.57,51.21,51.21,0,0,0,12.62,6.56,158.68,158.68,0,0,0,30.77,7.82,292.49,292.49,0,0,0,31.38,3.38q15.08.85,30.17.5c10.53-.26,21-.94,31.5-2.18a220.65,220.65,0,0,0,29.81-5.4,95.42,95.42,0,0,0,20.39-7.4,27.83,27.83,0,0,0,8.57-6.32,8.88,8.88,0,0,0,2.42-5.69,8.66,8.66,0,0,0-2.33-5.8,28.38,28.38,0,0,0-9.42-6.83,104.92,104.92,0,0,0-22.48-7.7A249.25,249.25,0,0,0,154.69,99C144.83,98.16,134.95,97.79,125.05,97.78Z"/><path class="d" d="M125.05,97.78c9.9,0,19.78.38,29.64,1.21a249.25,249.25,0,0,1,37.74,5.78,104.92,104.92,0,0,1,22.48,7.7,28.38,28.38,0,0,1,9.42,6.83,8.66,8.66,0,0,1,2.33,5.8,8.88,8.88,0,0,1-2.42,5.69,27.83,27.83,0,0,1-8.57,6.32,95.42,95.42,0,0,1-20.39,7.4,220.65,220.65,0,0,1-29.81,5.4c-10.46,1.23-21,1.91-31.5,2.18q-15.1.37-30.17-.5a292.49,292.49,0,0,1-31.38-3.38,158.68,158.68,0,0,1-30.77-7.82A51.21,51.21,0,0,1,29,133.82a18.12,18.12,0,0,1-3.7-3.57c-2.76-3.66-2.66-7.38.31-10.91A27.06,27.06,0,0,1,34,113a96.5,96.5,0,0,1,21.48-7.76,222.5,222.5,0,0,1,29.08-5.2q12.93-1.52,25.93-2Q117.78,97.81,125.05,97.78Zm63.24,24.32-.23.14c-.82-1.1-1.67-2.18-2.47-3.3s-1.74-2.57-2.63-3.83a1,1,0,0,0-1.57-.26,5.47,5.47,0,0,1-3.24,1.25c-.45.09-.56.16-.46.6.54,2.32,1,4.65,1.58,7,.81,3.22,1.51,6.47,2.5,9.64.07.23.09.53.39.59s.4-.23.51-.45.27-.49.63-.24c.66.46,1.19,0,1.71-.3.17-.11.24-.37.53-.24.83.38.69-.22.59-.64-.3-1.21-.64-2.4-1-3.6a21,21,0,0,1-.81-3.66c1.77,2.15,3.61,4.22,5.15,6.52.13.2.24.48.56.37s.19-.36.23-.57-.14-.49.13-.6.35.21.52.33c.38.26.77.88,1.24.26a1.21,1.21,0,0,1,1.44-.47c.22.05.45.12.47-.24,0-.58.27-.5.6-.19s.43.35.67.23.17-.49.12-.75c-.31-1.74-.73-3.46-1.2-5.17-.7-2.55-1.38-5.11-2.14-7.64-.45-1.51-.83-3-1.24-4.55a.81.81,0,0,0-1.11-.57,1.7,1.7,0,0,0-1.25,1.91c0,.25,0,.47-.21.55s-.37-.08-.39-.3c-.06-.46-.28-.4-.55-.18-.1.08-.17.25-.33.18-1.35-.55-.69.43-.59.83C187,117.19,187.67,119.65,188.3,122.11Zm-93.64-7.49c-1.08.19-2.46-.15-3.43.64s-2.17,1.19-3,2.08a12.68,12.68,0,0,0-3.13,11.22A7.19,7.19,0,0,0,88.5,133c2.3,1.55,4.92,1.06,7.35.29,2.16-.68,3.38-2.58,4.49-4.44,1.21-2,.86-4.47,1.53-6.65a3.6,3.6,0,0,0-.17-1.56A7.57,7.57,0,0,0,94.65,114.62Zm61.77,6.91c.37-.69.74-1.33,1.06-2a3.64,3.64,0,0,0-2.29-5.23,8.18,8.18,0,0,0-8.24,2c-.21.21-.3.27-.66.12-.56-.23-1.23.07-1.87-.13-.19-.06-.29.3-.25.53s.18.64.24,1c.38,1.85,1.17,3.57,1.57,5.41a76.31,76.31,0,0,0,2.45,9.05,1.62,1.62,0,0,0,2.19,1.1l5.39-1.68a7.32,7.32,0,0,0,2.66-1.32c1.39-1.18,2.41-2.6,2.16-4.52a4.8,4.8,0,0,0-3.39-3.94Zm16.48,12c0-.28-.16-.59.14-.64s.32.29.41.51.29.79.65.57c.75-.47,1.12-.08,1.57.42a.72.72,0,0,0,.91.2c.3-.18.14-.5.1-.76-.38-2.66-1-5.27-1.4-7.93-.45-3.23-1.16-6.43-1.36-9.69a5.76,5.76,0,0,0-.23-1.22c-.06-.22-.26-.57-.52-.29-.59.63-1.57.43-2.14,1.06-.17.18-.31,0-.41-.11a.92.92,0,0,0-1.13-.2,8,8,0,0,0-2,.57.35.35,0,0,1-.45-.08c-.57-.61-.68,0-.79.34-.33,1.14-.61,2.3-.92,3.45L161.78,133c-.08.3-.18.66.16.82s.48-.24.6-.49.14-.6.53-.5.88,0,1,.53c.16.74.59.69,1.1.36.16-.11.34-.27.52-.08.56.61.65,0,.73-.31a20,20,0,0,0,.45-2,.78.78,0,0,1,.86-.7,28.92,28.92,0,0,1,3.57.17c.45,0,.6.31.64.72a5.82,5.82,0,0,0,.4,2.11c.1.19.15.48.43.41S172.9,133.67,172.91,133.57ZM138.6,115.81c-.43-.85-.9-1-1.69-.69-.57.24-1.54.48-1.85.2-.92-.85-.86,0-1.06.45-.1.23-.18.47-.27.7q-2.86,6.81-5.32,13.78a13,13,0,0,0-.41,1.6c0,.22-.22.54.11.65s.42-.2.54-.41.17-.62.42-.53.92.15,1,.63c.14.87.64.63,1.14.45.18-.06.45-.26.52-.21.91.76.72-.31.91-.58a4.29,4.29,0,0,0,.42-1.16.79.79,0,0,1,1-.63c1.12.17,2.25.29,3.38.42a.6.6,0,0,1,.63.62,14.35,14.35,0,0,1,.28,2,.56.56,0,0,0,.41.65c.35.06.36-.27.42-.5s.08-.38.26-.37.22.27.23.46c0,.54.23.8.79.49s.69,0,.88.4.44.82.92.68.48-.72.41-1.15c-.41-2.58-.42-5.18-.64-7.77-.3-3.61-.33-7.24-.47-10.86,0-.25,0-.52-.27-.62s-.33.23-.51.32c-.35.18-.46.86-1.06.5S138.82,115.21,138.6,115.81Zm69.81,17h.16l.29.76c.06.17.2.35.36.22.7-.56,1,0,1.35.44.2.26.54.57.92.44s.23-.58.21-.88c-.09-1.66-.23-3.31-.35-5-.14-1.93-.31-3.86-.41-5.79-.08-1.68-.08-3.37-.1-5a21.77,21.77,0,0,0,0-3.39c0-.2,0-.4-.22-.5a.3.3,0,0,0-.28.08c-.33.74-1.06.72-1.68.81-.34,0-.58.52-.82.33a2.76,2.76,0,0,0-2.93-.14c-.29.11-.67.41-.93.14-.68-.7-.73,0-.89.36-.87,1.95-1.56,4-2.3,6-1.24,3.34-2.49,6.69-3.71,10-.08.23-.34.55,0,.74s.41-.19.57-.34c.73-.72,1.34-.66,1.85.26a.75.75,0,0,0,.57.37c1,.18,1.39-.08,1.69-1.12.13-.45.33-.89.42-1.34s.34-.62.82-.56c1.15.16,2.31.29,3.46.4a.87.87,0,0,1,.87.82c.11.77.24,1.53.36,2.3,0,.21.14.4.35.41s.26-.23.28-.42S208.39,133,208.41,132.84Zm-145.3.43c.3.2.27.45.38.64s.41.49.73.23c.62-.51.83-.12,1.05.41.15.36.4.76.85.63s.38-.57.42-.92a2.27,2.27,0,0,0,0-.41c-.29-3.75-.37-7.52-.58-11.28-.13-2.27.11-4.54,0-6.8,0-.84-.07-.84-.73-.44a1.68,1.68,0,0,1-.4.11c-.42.12-.95.13-1.23.39s-.55.22-.73-.1a.72.72,0,0,0-1-.37c-.67.3-1.45-.06-2.08.4-.15.11-.31,0-.41-.16-.46-.67-.67-.31-.87.2-.38,1-.75,2-1.17,2.93-1.84,4.21-3.69,8.41-5.34,12.7a3.71,3.71,0,0,0-.23.71c0,.14-.05.35.16.41s.26-.09.33-.2c.26-.34.5-.7.77-1.08.19.31.28.64.69.56s.47.17.51.48c.11.83.23.88,1,.55.18-.08.36-.43.6,0s.44.15.54-.12a18,18,0,0,0,.68-1.87c.14-.5.38-.68.89-.61,1.15.16,2.31.29,3.47.41.48,0,.65.29.69.75.06.77.18,1.54.27,2.31,0,.16,0,.34.26.36a.35.35,0,0,0,.36-.29A4.65,4.65,0,0,0,63.1,133.26ZM38,115.5c.42.65.75,1.21-.18,1.58-.42.17-.1.35,0,.55.29.43.6.87,0,1.37-.35.32-.25.57.25.64a13.35,13.35,0,0,0,3-.23c1.49-.14,1.49-.14,1.61,1.38,0,.19.06.38.09.57.26,1.61.55,3.21.78,4.83.29,2,.12,4,.62,6,0,.16,0,.37.1.46a2.74,2.74,0,0,0,2.3,0,.8.8,0,0,1,.9-.14c.7.23.88.79,1,1.39a1,1,0,0,0,1,.62c.39,0,.18-.53.18-.83a27.11,27.11,0,0,0-.36-3.46c-.48-3.7-.89-7.42-1.41-11.11-.09-.66.13-.73.62-.85a35.52,35.52,0,0,1,4.2-.48c.22,0,.5-.06.56-.28s-.22-.34-.4-.46c-.59-.41-.59-.67,0-1.1.18-.13.56-.16.42-.5a1.75,1.75,0,0,0-1.31-1.26,8.62,8.62,0,0,0-2.16,0c-2.48.27-5,.52-7.43.8C41.07,115.11,39.6,115.31,38,115.5Zm40.83.5c.75-.05.85-.33.56-1-.16-.34.07-.88-.56-.89-2.31,0-4.61.08-6.39,1.78a9.53,9.53,0,0,0-3.22,6.89A15.29,15.29,0,0,0,72,131.65a5.7,5.7,0,0,0,3,2.19,8,8,0,0,0,7-.93c1.2-.77,1.33-1.2.6-2.44a2.63,2.63,0,0,1-.43-1.77c.06-.4-.18-.34-.39-.25-.48.2-1,.45-1.44.64-2,.76-4.7-.33-5.3-2.21a12.06,12.06,0,0,1-.61-4.67c.2-2.44,1.41-3.56,3.88-3.62H79c.23,0,.53,0,.57-.23s-.28-.26-.48-.3-.53-.14-.58-.41.27-.36.48-.46.57-.16.61-.49S79.14,116.36,78.88,116Zm42.82-.34c.54-.12,1.08-.24.55-.93-.06-.08,0-.27,0-.41a.47.47,0,0,0-.51-.53c-2.52-.06-5,.13-6.82,2.14a9.64,9.64,0,0,0-2.86,6.89,15.79,15.79,0,0,0,2.71,8.41,5.81,5.81,0,0,0,3,2.21,7.9,7.9,0,0,0,7-.87c1.27-.81,1.39-1.25.63-2.56a2.31,2.31,0,0,1-.4-1.66c.1-.46-.2-.35-.45-.24-.51.22-1,.48-1.52.66-1.93.66-4.54-.4-5.12-2.16a12.08,12.08,0,0,1-.66-4.58c.15-2.3,1.13-3.47,3.13-3.74a13.82,13.82,0,0,1,1.41-.07c.23,0,.53,0,.59-.21s-.27-.25-.46-.32-.52-.12-.56-.42.27-.38.49-.46.57-.2.6-.5S121.94,116,121.7,115.66ZM82.46,143.43l-.18,0-.65-2.12c-.42-1.38-.41-1.35-1.84-1.31-.46,0-.55.17-.55.59,0,1.22,0,2.44,0,3.66,0,.53.16.65.66.64s.71,0,.68-.61c-.06-.88,0-1.77,0-2.65a11.14,11.14,0,0,1,.91,2.59c.12.57.4.65.91.67s.7-.23.82-.67c.23-.87.5-1.73.75-2.59a11,11,0,0,1,.17,2.69c0,.55.26.54.66.55s.64-.07.62-.57c0-1.05,0-2.11,0-3.16s0-1.09-1.12-1.15c-.66,0-.92.19-1.06.81C83,141.7,82.71,142.56,82.46,143.43Zm43.75-34.56c-.47-.78.09-1.79-.81-2.32a1.21,1.21,0,0,1,.15-.15,1.11,1.11,0,0,0,.52-1.35,1.48,1.48,0,0,0-1.31-1,26.86,26.86,0,0,0-3.48-.09c-.38,0-.37.25-.37.51,0,1.3,0,2.6,0,3.91,0,.35.12.47.48.5.65.06,1-.09.9-.84,0-.33-.19-.89.14-1a2.94,2.94,0,0,1,1.8,0c.47.16.37.59.35.92,0,.75.33,1,1,.86A4.71,4.71,0,0,1,126.21,108.87Zm7.38-1.78a1.68,1.68,0,1,1-2.95-1.59,1.75,1.75,0,0,1,2.55-.34,1.56,1.56,0,0,0,1.27.38c.39,0,.41-.16.26-.46a1.65,1.65,0,0,0-.74-.76,4,4,0,0,0-3.75,0,2.23,2.23,0,0,0-1.23,2c-.09,2.06,2.24,3.36,4.27,2.37.26-.13.45-.43.77.06s.8.1.81-.37,0-1.16,0-1.74c0-.27-.08-.4-.37-.4-.64,0-1.27,0-1.91,0-.27,0-.4.08-.4.38s.07.48.41.46S133.24,107.08,133.59,107.08Zm-26.77-.74c0,.64,0,1.28,0,1.91,0,.45.09.64.59.63,1.22,0,2.44,0,3.66,0,.3,0,.6.05.61-.43s-.32-.47-.66-.47c-.78,0-1.55,0-2.33,0-.48,0-.55-.19-.53-.59s0-.67.5-.61a7.79,7.79,0,0,0,1.66,0c.32,0,.9.37.9-.42s-.6-.44-1-.48a10,10,0,0,0-1.58,0c-.38,0-.54-.09-.54-.5s.21-.43.52-.43h2.25c.33,0,.59,0,.59-.47s-.18-.51-.55-.5c-1.22,0-2.44,0-3.66,0-.36,0-.49.1-.48.47C106.84,105.06,106.82,105.7,106.82,106.34Zm6.84,35.19c.87,1.16,1.59,2.1,2.29,3.06.38.53.92.32,1.37.27s.18-.5.19-.77c0-1.11,0-2.22,0-3.32,0-.44,0-.77-.61-.76s-.67.26-.66.74c0,.77,0,1.54,0,2.32a20.66,20.66,0,0,1-2.17-2.66c-.42-.6-1-.4-1.5-.32s-.19.56-.2.86c0,1.14,0,2.27,0,3.41,0,.54.25.56.65.55s.69,0,.66-.55C113.63,143.5,113.66,142.65,113.66,141.53Zm-7.54-35.09c0-.55,0-1.11,0-1.66s.09-.85-.64-.85-.8.31-.72.85c.14.82-.15,1.09-1,1-1.33-.08-1.36,0-1.37-1.3,0-.53-.24-.59-.65-.55s-.78-.12-.75.54c0,1.19.05,2.38,0,3.57,0,.67.18.83.82.82.95,0,.53-.68.55-1.06.05-1.12,0-1.12,1.07-1.12,1.33,0,1.34,0,1.33,1.36,0,.48,0,.82.66.83s.73-.36.7-.87S106.12,107,106.12,106.44Zm33.19-.94c.84,1.12,1.56,2.05,2.23,3,.38.54.91.36,1.36.31s.25-.54.25-.82c0-1.14,0-2.27,0-3.41,0-.52-.15-.65-.66-.65s-.61.18-.59.63c0,.84,0,1.68,0,2.56-.15-.06-.19-.07-.2-.09-.66-.88-1.36-1.74-2-2.66-.41-.62-1-.46-1.48-.39s-.26.59-.27.89c0,1.11,0,2.22,0,3.32,0,.52.15.67.66.66s.72-.05.68-.62C139.28,107.41,139.32,106.57,139.32,105.5ZM117,109c1.62,0,2.65-.58,3-1.72.58-1.93-.85-3.51-3.07-3.39-1.52.08-2.48.7-2.79,1.79C113.63,107.56,114.83,109,117,109Zm21.58,33.45c0,1.64,1.06,2.59,2.94,2.62s3.09-1,3.09-2.58-1.12-2.55-3-2.56S138.62,140.8,138.62,142.42ZM149,108.88c0-.34.87.4.53-.42-.58-1.4-1.24-2.78-1.89-4.15a1.27,1.27,0,0,0-1.82,0c-.66,1.37-1.29,2.75-1.93,4.13-.07.14-.18.39.05.39.47,0,1.12.37,1.37-.36.34-1,1.15-.47,1.75-.59a.77.77,0,0,1,1,.63C148.2,109,148.6,108.83,149,108.88Zm-43.3,34.3c-.56.13-1.08-.26-1.51.32a1.55,1.55,0,0,1-2,.4,1.72,1.72,0,0,1-.66-2,1.41,1.41,0,0,1,1.54-1.1,1.35,1.35,0,0,1,1.15.54c.2.28,1.35.43,1.4.21.12-.47-.22-.78-.54-1a3.46,3.46,0,0,0-3-.55,2.3,2.3,0,0,0-1.91,1.63,2.49,2.49,0,0,0,1.54,3.23A3,3,0,0,0,105.69,143.18Zm47.6,0c-.55.14-1.08-.27-1.51.32a1.54,1.54,0,0,1-1.93.44,1.69,1.69,0,0,1-.74-2,1.41,1.41,0,0,1,1.54-1.1,1.3,1.3,0,0,1,1.19.61c.15.25,1.31.34,1.36.14.11-.39-.16-.68-.41-.93-1.41-1.43-4.46-.84-5,1a2.5,2.5,0,0,0,1.54,3.23A3,3,0,0,0,153.3,143.18Zm14.48,1.71h1.91c.33,0,.59,0,.57-.46s-.26-.4-.55-.4c-.83,0-1.66,0-2.49,0-.54,0-.47-.32-.47-.65s-.07-.67.47-.65,1.38,0,2.08,0c.31,0,.52,0,.52-.42s-.17-.45-.5-.44c-.69,0-1.38,0-2.08,0-.32,0-.52,0-.5-.43s.05-.57.49-.55c.75,0,1.49,0,2.24,0,.29,0,.6.09.62-.41s-.32-.47-.65-.47c-1.16,0-2.33,0-3.49,0-.45,0-.55.15-.55.57q0,1.87,0,3.74c0,.42.08.6.54.57S167.17,144.89,167.78,144.89Zm-79.14,0h1.88c.28,0,.62.12.63-.4s-.34-.46-.66-.46c-.72,0-1.44,0-2.16,0-.47,0-.69-.07-.7-.62s.23-.69.74-.67,1.28,0,1.91,0c.38,0,.46-.14.46-.48s-.18-.4-.46-.39c-.69,0-1.39,0-2.08,0-.34,0-.58,0-.56-.47s.17-.52.55-.51c.78,0,1.55,0,2.33,0,.37,0,.47-.14.47-.49s-.17-.42-.46-.41H88.76c-.77,0-1.81-.26-2.24.13s-.13,1.51-.16,2.3-.28,1.8.1,2.25S88,144.81,88.64,144.89Zm42.72,0c-.7-1.52-1.35-2.95-2-4.37-.25-.54-1.61-.69-1.86-.18-.72,1.48-1.4,3-2.14,4.59.59-.08,1.3.29,1.47-.2.34-1,1-.8,1.72-.78.33,0,.87-.22,1,.17C129.8,145.13,130.55,144.91,131.36,144.85Zm21.95.06c.61-.12,1.31.28,1.49-.24.32-1,1-.79,1.64-.77.36,0,.94-.24,1.05.18.29,1.08,1,.79,1.84.78-.71-1.56-1.38-3.07-2.09-4.56-.18-.38-1.58-.44-1.76-.06C154.75,141.76,154.06,143.28,153.31,144.91Zm-41.58,0-2.07-4.55a.48.48,0,0,0-.36-.29,1.31,1.31,0,0,0-1.73.86l-.42.9-1.42,3.07c.84.07,1.59.23,1.79-.79,0-.22.25-.17.41-.17h1.57c.17,0,.37,0,.41.19C110.12,145.19,110.94,144.87,111.73,144.87Zm-14.55-.08c-.56-.69-1.1-1.38-1.67-2a.48.48,0,0,1,0-.76c.53-.59,1-1.22,1.51-1.83-1.44-.61-1.94.47-2.58,1.38a7.35,7.35,0,0,0-1-1.34c-.43-.35-1-.15-1.65-.1.56.7,1,1.32,1.53,1.89a.52.52,0,0,1,0,.83c-.56.63-1.07,1.3-1.59,1.94,1.55.71,2-.68,2.81-1.5C95.07,144.44,95.74,145.29,97.19,144.79Zm24-2.31a15.68,15.68,0,0,1,0,1.66c-.07.64.17.77.78.78.79,0,.6-.5.56-.87-.09-.74.17-1,.91-.91a4.07,4.07,0,0,0,1.07,0c1-.14,1.56-.71,1.53-1.61s-.6-1.38-1.61-1.43-1.72,0-2.57,0c-.59,0-.7.21-.66.72S121.2,141.9,121.2,142.48Zm38.89-.15c0,.8,0,1.46,0,2.13s.45.4.74.43.66.11.64-.45-.27-1.21.13-1.49,1-.07,1.54-.08a1.53,1.53,0,0,0,.25,0c.32-.06.84.23.82-.47s-.54-.39-.86-.42a8.38,8.38,0,0,0-1.41,0c-.44,0-.48-.18-.49-.54s.12-.53.52-.52c.69,0,1.38,0,2.08,0,.34,0,.58,0,.56-.48s-.23-.43-.53-.42h-1.58c-.77,0-1.8-.26-2.24.13S160.16,141.67,160.09,142.33Zm-9.89-36c0,.66,0,1.33,0,2,0,.4.15.53.53.52,1.16,0,2.32,0,3.48,0,.38,0,.46-.15.47-.49s-.11-.51-.47-.46a2.67,2.67,0,0,1-.41,0c-.71,0-1.67.23-2.07-.13s-.11-1.4-.15-2.13c0-.22,0-.44,0-.66-.06-.44.3-1.06-.66-1.07s-.66.64-.7,1.11S150.2,105.93,150.2,106.37ZM97.77,104c-.72,0-1.44,0-2.16,0-.41,0-.44.21-.44.52s.09.47.43.44.56,0,.83,0c.51-.07.67.12.65.64,0,.91,0,1.83,0,2.74,0,.43.13.56.56.58.59,0,.88-.09.8-.76a14.94,14.94,0,0,1,0-1.66c0-1.45,0-1.46,1.41-1.53.37,0,.54-.09.55-.51s-.27-.46-.59-.46ZM133,140c-.69,0-1.38,0-2.08,0-.35,0-.48.09-.49.46s.18.46.51.44.5,0,.75,0c.51-.07.68.12.66.64,0,.88,0,1.77,0,2.66,0,.55.14.69.69.7s.71-.18.67-.7a13.25,13.25,0,0,1,0-1.66c0-.52-.23-1.15.12-1.52s.89-.08,1.36-.1c.29,0,.46-.05.46-.41s-.09-.5-.46-.49C134.45,140,133.73,140,133,140Zm4.11-33.57c0-.69,0-1.38,0-2.07s-.38-.42-.69-.43-.68-.11-.67.44c0,1.32,0,2.65,0,4,0,.53.31.49.64.48s.75.11.71-.49S137.13,107.1,137.13,106.47Zm-8.82-.06c0-.61,0-1.22,0-1.82s-.19-.64-.67-.63-.72,0-.69.6c0,1.24,0,2.48,0,3.72,0,.49.17.62.62.59s.79.07.74-.56S128.31,107,128.31,106.41ZM99.23,142.48c0-.66,0-1.33,0-2s-.43-.42-.74-.44-.65-.1-.64.46c0,1.3,0,2.6,0,3.91,0,.42.16.46.53.5.69.07.94-.14.86-.85A13.12,13.12,0,0,1,99.23,142.48Zm37.22,0c0,.66,0,1.32,0,2s.37.43.66.42.7.18.69-.41c0-1.32,0-2.65,0-4,0-.61-.39-.47-.72-.48s-.67-.09-.64.46S136.45,141.82,136.45,142.48Zm79.65-13.77a2.49,2.49,0,0,0-2.5,2.47,2.54,2.54,0,0,0,2.55,2.52,2.45,2.45,0,0,0,2.42-2.54A2.41,2.41,0,0,0,216.1,128.71Z"/><path class="e" d="M188.3,122.11c-.63-2.46-1.27-4.92-1.87-7.39-.1-.4-.76-1.38.59-.83.16.06.23-.1.33-.18.27-.22.5-.28.55.18,0,.23.17.38.39.3s.24-.31.21-.55a1.7,1.7,0,0,1,1.25-1.91.81.81,0,0,1,1.11.57c.42,1.51.79,3,1.24,4.55.76,2.54,1.44,5.09,2.14,7.64.47,1.71.89,3.42,1.2,5.17,0,.26.19.59-.12.75s-.49-.05-.67-.23-.56-.39-.6.19c0,.36-.24.29-.47.24a1.21,1.21,0,0,0-1.44.47c-.46.62-.85,0-1.24-.26-.17-.12-.26-.43-.52-.33s-.1.39-.13.6,0,.48-.23.57-.43-.17-.56-.37c-1.55-2.3-3.39-4.37-5.15-6.52a21,21,0,0,0,.81,3.66c.34,1.2.69,2.39,1,3.6.1.42.24,1-.59.64-.29-.13-.36.13-.53.24-.52.34-1.05.76-1.71.3-.35-.25-.49,0-.63.24s-.19.51-.51.45-.31-.36-.39-.59c-1-3.17-1.69-6.42-2.5-9.64-.58-2.31-1-4.64-1.58-7-.1-.44,0-.51.46-.6a5.47,5.47,0,0,0,3.24-1.25,1,1,0,0,1,1.57.26c.9,1.26,1.73,2.57,2.63,3.83s1.64,2.2,2.47,3.3Z"/><path class="e" d="M94.65,114.62a7.57,7.57,0,0,1,7,6,3.6,3.6,0,0,1,.17,1.56c-.67,2.19-.32,4.62-1.53,6.65-1.11,1.86-2.32,3.76-4.49,4.44-2.43.77-5.05,1.26-7.35-.29a7.19,7.19,0,0,1-3.38-4.47,12.68,12.68,0,0,1,3.13-11.22c.81-.89,2-1.31,3-2.08S93.57,114.81,94.65,114.62Zm2.05,7.69a9.2,9.2,0,0,0,0-1c-.15-1.34-1.66-2.51-2.69-2A5.68,5.68,0,0,0,91.12,122a10.76,10.76,0,0,0-.87,4.93,2.61,2.61,0,0,0,1.67,2.45,2.82,2.82,0,0,0,3-1.24A11.34,11.34,0,0,0,96.7,122.31Z"/><path class="e" d="M156.43,121.52l1,.37a4.8,4.8,0,0,1,3.39,3.94c.25,1.91-.77,3.34-2.16,4.52a7.32,7.32,0,0,1-2.66,1.32l-5.39,1.68a1.62,1.62,0,0,1-2.19-1.1A76.31,76.31,0,0,1,146,123.2c-.4-1.84-1.19-3.57-1.57-5.41-.07-.32-.18-.64-.24-1s.06-.59.25-.53c.63.21,1.31-.09,1.87.13.36.15.45.08.66-.12a8.18,8.18,0,0,1,8.24-2,3.64,3.64,0,0,1,2.29,5.23C157.17,120.2,156.79,120.84,156.43,121.52Zm-3.88,7a4.55,4.55,0,0,0,3.3-2.24.63.63,0,0,0,0-.54c-.57-1.28-3.27-1.83-4.31-.89a.55.55,0,0,0-.16.6c.23.88.45,1.77.69,2.65C152.09,128.31,152.22,128.54,152.54,128.49Zm-.87-10.74a2.7,2.7,0,0,0-2.14.69c-.34.39.11.93.22,1.4.53,2.26.56,2.26,2.67,1.19A2,2,0,0,0,153.6,119C153.37,118.13,152.78,117.76,151.67,117.76Z"/><path class="e" d="M172.91,133.57c0,.1.13.36-.12.42s-.33-.22-.43-.41a5.82,5.82,0,0,1-.4-2.11c0-.41-.19-.68-.64-.72a28.92,28.92,0,0,0-3.57-.17.78.78,0,0,0-.86.7,20,20,0,0,1-.45,2c-.09.29-.18.92-.73.31-.17-.19-.35,0-.52.08-.51.33-.94.38-1.1-.36-.13-.58-.63-.44-1-.53s-.41.26-.53.5-.2.68-.6.49-.24-.52-.16-.82l3.58-13.21c.31-1.15.6-2.3.92-3.45.11-.38.22-1,.79-.34a.35.35,0,0,0,.45.08,8,8,0,0,1,2-.57.92.92,0,0,1,1.13.2c.1.11.24.29.41.11.57-.63,1.55-.43,2.14-1.06.26-.28.46.07.52.29a5.76,5.76,0,0,1,.23,1.22c.2,3.27.92,6.46,1.36,9.69.37,2.66,1,5.27,1.4,7.93,0,.26.2.58-.1.76a.72.72,0,0,1-.91-.2c-.45-.5-.82-.89-1.57-.42-.36.22-.53-.26-.65-.57s-.08-.57-.41-.51S172.91,133.29,172.91,133.57Zm-3.19-13.46a.73.73,0,0,0-.42.61c-.25,1.56-.89,3-1.2,4.56-.4,2-.91,2.09,1.62,2.1,1.46,0,1.49,0,1.21-1.45A34.27,34.27,0,0,0,169.71,120.11Z"/><path class="e" d="M138.6,115.81c.22-.6.55-.82,1.05-.51s.72-.32,1.06-.5c.17-.09.21-.42.51-.32s.26.37.27.62c.14,3.62.17,7.25.47,10.86.22,2.59.24,5.2.64,7.77.07.42.11,1-.41,1.15s-.73-.29-.92-.68-.39-.68-.88-.4-.76.05-.79-.49c0-.19,0-.44-.23-.46s-.22.2-.26.37-.06.56-.42.5a.56.56,0,0,1-.41-.65,14.35,14.35,0,0,0-.28-2,.6.6,0,0,0-.63-.62c-1.13-.13-2.26-.25-3.38-.42a.79.79,0,0,0-1,.63,4.29,4.29,0,0,1-.42,1.16c-.19.27,0,1.34-.91.58-.07-.06-.34.14-.52.21-.51.18-1,.42-1.14-.45-.08-.48-.64-.5-1-.63s-.3.32-.42.53-.26.51-.54.41-.16-.43-.11-.65a13,13,0,0,1,.41-1.6q2.45-7,5.32-13.78c.1-.23.17-.47.27-.7.21-.46.14-1.3,1.06-.45.31.28,1.28,0,1.85-.2C137.7,114.8,138.17,115,138.6,115.81Zm-2.12,11.08c1.41,0,1.41,0,1.34-1.38,0-.17,0-.33,0-.5-.08-1.58-.29-3.14-.52-4.7,0-.29-.14-.64-.39-.69s-.36.36-.44.59c-.51,1.58-1,3.16-1.48,4.75C134.42,126.88,134.44,126.89,136.48,126.89Z"/><path class="e" d="M208.41,132.84c0,.13,0,.25-.05.38s0,.43-.28.42-.32-.2-.35-.41c-.12-.76-.24-1.53-.36-2.3a.87.87,0,0,0-.87-.82c-1.16-.11-2.31-.25-3.46-.4-.48-.07-.72.07-.82.56s-.29.89-.42,1.34c-.3,1-.67,1.3-1.69,1.12a.75.75,0,0,1-.57-.37c-.51-.92-1.12-1-1.85-.26-.16.16-.3.49-.57.34s-.09-.51,0-.74c1.23-3.35,2.47-6.69,3.71-10,.74-2,1.43-4,2.3-6,.16-.36.22-1.07.89-.36.26.27.64,0,.93-.14a2.76,2.76,0,0,1,2.93.14c.24.19.48-.29.82-.33.62-.08,1.35-.06,1.68-.81a.3.3,0,0,1,.28-.08c.19.1.19.31.22.5a21.77,21.77,0,0,1,0,3.39c0,1.68,0,3.37.1,5,.09,1.93.27,3.86.41,5.79.12,1.66.25,3.31.35,5,0,.29.22.73-.21.88s-.72-.18-.92-.44c-.37-.48-.64-1-1.35-.44-.16.13-.3-.05-.36-.22l-.29-.76Zm-2.27-13.52c-.83,1.34-1,2.78-1.58,4a15.72,15.72,0,0,0-.87,2.68c-.1.36-.08.6.34.65a17.65,17.65,0,0,0,2.47.26c.36,0,.45-.11.44-.49,0-1.47-.18-2.93-.34-4.39A10.63,10.63,0,0,0,206.13,119.31Z"/><path class="e" d="M63.1,133.26a4.65,4.65,0,0,1-.1.51.35.35,0,0,1-.36.29c-.23,0-.24-.19-.26-.36-.1-.77-.21-1.54-.27-2.31,0-.47-.21-.7-.69-.75-1.16-.12-2.31-.25-3.47-.41-.51-.07-.75.11-.89.61a18,18,0,0,1-.68,1.87c-.11.27-.27.58-.54.12s-.41,0-.6,0c-.79.33-.9.27-1-.55,0-.31-.14-.55-.51-.48s-.5-.25-.69-.56c-.27.38-.51.74-.77,1.08-.08.1-.17.24-.33.2s-.18-.28-.16-.41a3.71,3.71,0,0,1,.23-.71c1.66-4.28,3.5-8.49,5.34-12.7.42-1,.79-1.95,1.17-2.93.2-.51.42-.87.87-.2.1.15.26.27.41.16.63-.46,1.41-.1,2.08-.4a.72.72,0,0,1,1,.37c.19.32.34.46.73.1s.81-.27,1.23-.39a1.68,1.68,0,0,0,.4-.11c.66-.39.7-.4.73.44.1,2.27-.14,4.53,0,6.8.21,3.76.29,7.52.58,11.28a2.27,2.27,0,0,1,0,.41c0,.36,0,.81-.42.92s-.7-.27-.85-.63c-.22-.53-.43-.92-1.05-.41-.32.26-.56.08-.73-.23S63.41,133.46,63.1,133.26Zm-1.58-14A1,1,0,0,0,61,120q-1,2.6-1.88,5.21c-.18.52-.56,1.14-.41,1.55s1,.35,1.5.43a1.77,1.77,0,0,1,.23.09c1,.32,1.57,0,1.52-1.07C61.83,123.94,61.67,121.66,61.52,119.29Z"/><path class="e" d="M38,115.5c1.55-.19,3-.39,4.5-.56,2.48-.28,5-.53,7.43-.8a8.62,8.62,0,0,1,2.16,0,1.75,1.75,0,0,1,1.31,1.26c.14.34-.24.37-.42.5-.58.43-.58.69,0,1.1.18.12.47.2.4.46s-.34.25-.56.28a35.52,35.52,0,0,0-4.2.48c-.49.13-.71.19-.62.85.52,3.7.93,7.41,1.41,11.11a27.11,27.11,0,0,1,.36,3.46c0,.3.22.83-.18.83a1,1,0,0,1-1-.62c-.16-.59-.34-1.15-1-1.39a.8.8,0,0,0-.9.14,2.74,2.74,0,0,1-2.3,0c-.09-.1-.06-.31-.1-.46-.5-2-.33-4-.62-6-.23-1.61-.52-3.22-.78-4.83,0-.19-.07-.38-.09-.57-.12-1.52-.12-1.51-1.61-1.38a13.35,13.35,0,0,1-3,.23c-.5-.07-.6-.31-.25-.64.55-.5.24-.94,0-1.37-.13-.2-.45-.39,0-.55C38.8,116.71,38.47,116.15,38,115.5Z"/><path class="e" d="M78.88,116c.26.36.76.26.7.7s-.37.37-.61.49-.55.13-.48.46.33.35.58.41.54,0,.48.3-.35.23-.57.23H78.3c-2.47.05-3.68,1.18-3.88,3.62a12.06,12.06,0,0,0,.61,4.67c.6,1.88,3.28,3,5.3,2.21.49-.18,1-.43,1.44-.64.22-.09.45-.16.39.25a2.63,2.63,0,0,0,.43,1.77c.73,1.24.59,1.67-.6,2.44a8,8,0,0,1-7,.93,5.7,5.7,0,0,1-3-2.19,15.29,15.29,0,0,1-2.74-8.82,9.53,9.53,0,0,1,3.22-6.89c1.78-1.7,4.08-1.83,6.39-1.78.63,0,.4.55.56.89C79.73,115.67,79.63,115.95,78.88,116Z"/><path class="e" d="M121.7,115.66c.25.35.76.23.71.66s-.33.4-.6.5-.54.11-.49.46.33.34.56.42.54,0,.46.32-.36.2-.59.21a13.82,13.82,0,0,0-1.41.07c-2,.27-3,1.44-3.13,3.74a12.08,12.08,0,0,0,.66,4.58c.59,1.76,3.19,2.82,5.12,2.16.52-.18,1-.44,1.52-.66.25-.11.54-.22.45.24a2.31,2.31,0,0,0,.4,1.66c.76,1.31.64,1.75-.63,2.56a7.9,7.9,0,0,1-7,.87,5.81,5.81,0,0,1-3-2.21,15.79,15.79,0,0,1-2.71-8.41,9.64,9.64,0,0,1,2.86-6.89c1.83-2,4.31-2.2,6.82-2.14a.47.47,0,0,1,.51.53c0,.14-.08.32,0,.41C122.78,115.42,122.24,115.54,121.7,115.66Z"/><path class="f" d="M82.46,143.43c.26-.87.55-1.73.76-2.61.14-.62.4-.85,1.06-.81,1.12.06,1.12,0,1.12,1.15s0,2.11,0,3.16c0,.51-.18.59-.62.57s-.69,0-.66-.55a11,11,0,0,0-.17-2.69c-.25.86-.52,1.72-.75,2.59-.12.44-.27.69-.82.67s-.79-.11-.91-.67a11.14,11.14,0,0,0-.91-2.59c0,.88,0,1.77,0,2.65,0,.58-.23.59-.68.61s-.68-.11-.66-.64c0-1.22,0-2.44,0-3.66,0-.42.09-.57.55-.59,1.42,0,1.42-.06,1.84,1.31l.65,2.12Z"/><path class="g" d="M126.21,108.87a4.71,4.71,0,0,0-.63,0c-.68.11-1-.11-1-.86,0-.33.11-.76-.35-.92a2.94,2.94,0,0,0-1.8,0c-.33.1-.18.66-.14,1,.09.74-.25.9-.9.84-.36,0-.48-.15-.48-.5,0-1.3,0-2.6,0-3.91,0-.25,0-.52.37-.51a26.86,26.86,0,0,1,3.48.09,1.48,1.48,0,0,1,1.31,1,1.11,1.11,0,0,1-.52,1.35,1.21,1.21,0,0,0-.15.15C126.3,107.08,125.74,108.09,126.21,108.87Zm-2.88-4c-.46.12-1.12-.3-1.11.67s.69.51,1.1.59a2.72,2.72,0,0,0,.82,0c.33,0,.58-.19.6-.56a.55.55,0,0,0-.54-.6Z"/><path class="h" d="M133.59,107.08c-.35,0-.68,0-1,0s-.41-.16-.41-.46.13-.39.4-.38c.64,0,1.27,0,1.91,0,.3,0,.38.12.37.4,0,.58,0,1.16,0,1.74s-.57.74-.81.37-.51-.18-.77-.06c-2,1-4.36-.31-4.27-2.37a2.23,2.23,0,0,1,1.23-2,4,4,0,0,1,3.75,0,1.65,1.65,0,0,1,.74.76c.15.3.13.47-.26.46a1.56,1.56,0,0,1-1.27-.38,1.75,1.75,0,0,0-2.55.34,1.68,1.68,0,1,0,2.95,1.59Z"/><path class="g" d="M106.82,106.34c0-.64,0-1.28,0-1.91,0-.37.12-.47.48-.47,1.22,0,2.44,0,3.66,0,.37,0,.55.08.55.5s-.25.47-.59.47h-2.25c-.31,0-.52,0-.52.43s.16.52.54.5a10,10,0,0,1,1.58,0c.35,0,1-.35,1,.48s-.59.38-.9.42a7.79,7.79,0,0,1-1.66,0c-.54-.05-.48.27-.5.61s.05.61.53.59c.77,0,1.55,0,2.33,0,.33,0,.67-.07.66.47s-.31.43-.61.43c-1.22,0-2.44,0-3.66,0-.5,0-.61-.18-.59-.63C106.85,107.62,106.82,107,106.82,106.34Z"/><path class="h" d="M113.66,141.53c0,1.11,0,2,0,2.82,0,.55-.26.55-.66.55s-.67,0-.65-.55c0-1.13,0-2.27,0-3.41,0-.3-.21-.79.2-.86s1.09-.28,1.5.32a20.66,20.66,0,0,0,2.17,2.66c0-.77,0-1.54,0-2.32,0-.49,0-.73.66-.74s.62.31.61.76c0,1.11,0,2.22,0,3.32,0,.27.2.72-.19.77s-1,.27-1.37-.27C115.25,143.63,114.53,142.69,113.66,141.53Z"/><path class="g" d="M106.12,106.44c0,.53,0,1.05,0,1.58s0,.88-.7.87-.67-.35-.66-.83c0-1.36,0-1.36-1.33-1.36-1.05,0-1,0-1.07,1.12,0,.38.4,1.05-.55,1.06-.64,0-.86-.15-.82-.82.06-1.19,0-2.38,0-3.57,0-.66.38-.51.75-.54s.65,0,.65.55c0,1.28,0,1.22,1.37,1.3.86.05,1.15-.21,1-1-.09-.54,0-.85.72-.85s.64.4.64.85S106.12,105.89,106.12,106.44Z"/><path class="f" d="M139.32,105.5c0,1.06,0,1.91,0,2.75,0,.57-.22.61-.68.62s-.68-.14-.66-.66c0-1.11,0-2.22,0-3.32,0-.31-.27-.83.27-.89s1.07-.23,1.48.39c.61.92,1.31,1.78,2,2.66,0,0,0,0,.2.09,0-.89,0-1.73,0-2.56,0-.45.1-.63.59-.63s.67.13.66.65c0,1.13,0,2.27,0,3.41,0,.28.23.76-.25.82s-1,.23-1.36-.31C140.88,107.56,140.15,106.63,139.32,105.5Z"/><path class="f" d="M117,109c-2.2,0-3.41-1.41-2.87-3.31.31-1.09,1.27-1.71,2.79-1.79,2.22-.12,3.65,1.46,3.07,3.39C119.68,108.39,118.65,109,117,109Zm1.73-2.53a1.67,1.67,0,1,0-1.65,1.66A1.56,1.56,0,0,0,118.76,106.44Z"/><path class="f" d="M138.62,142.42c0-1.61,1.11-2.53,3-2.52s3,1,3,2.56-1.19,2.6-3.09,2.58S138.61,144.06,138.62,142.42Zm3,1.67a1.63,1.63,0,1,0,0-3.27,1.51,1.51,0,0,0-1.68,1.62A1.5,1.5,0,0,0,141.6,144.08Z"/><path class="i" d="M149,108.88c-.4,0-.79.11-.9-.37a.77.77,0,0,0-1-.63c-.6.12-1.41-.42-1.75.59-.24.73-.89.34-1.37.36-.24,0-.12-.24-.05-.39.64-1.38,1.27-2.76,1.93-4.13a1.27,1.27,0,0,1,1.82,0c.65,1.37,1.31,2.75,1.89,4.15C149.86,109.28,149,108.53,149,108.88Zm-2.26-3.64a6.31,6.31,0,0,0-.71,1.71h1.32a1.59,1.59,0,0,0,0-.35C147.12,106.16,146.93,105.73,146.73,105.24Z"/><path class="i" d="M105.69,143.18a3,3,0,0,1-4,1.67,2.49,2.49,0,0,1-1.54-3.23,2.3,2.3,0,0,1,1.91-1.63,3.46,3.46,0,0,1,3,.55c.32.25.65.57.54,1-.06.22-1.2.07-1.4-.21a1.35,1.35,0,0,0-1.15-.54,1.41,1.41,0,0,0-1.54,1.1,1.72,1.72,0,0,0,.66,2,1.55,1.55,0,0,0,2-.4C104.61,142.92,105.14,143.31,105.69,143.18Z"/><path class="i" d="M153.3,143.18a3,3,0,0,1-4,1.67,2.5,2.5,0,0,1-1.54-3.23c.57-1.81,3.62-2.41,5-1,.25.25.52.54.41.93-.05.19-1.21.1-1.36-.14a1.3,1.3,0,0,0-1.19-.61,1.41,1.41,0,0,0-1.54,1.1,1.69,1.69,0,0,0,.74,2,1.54,1.54,0,0,0,1.93-.44C152.21,142.91,152.74,143.32,153.3,143.18Z"/><path class="j" d="M167.78,144.89c-.61,0-1.22,0-1.83,0s-.55-.15-.54-.57q0-1.87,0-3.74c0-.42.09-.58.55-.57,1.16,0,2.32,0,3.49,0,.33,0,.66-.08.65.47s-.33.41-.62.41c-.75,0-1.5,0-2.24,0-.44,0-.48.2-.49.55s.19.44.5.43c.69,0,1.38,0,2.08,0,.33,0,.5,0,.5.44s-.21.43-.52.42c-.69,0-1.39,0-2.08,0s-.47.32-.47.65-.07.67.47.65c.83,0,1.66,0,2.49,0,.28,0,.53,0,.55.4s-.24.46-.57.46Z"/><path class="c" d="M88.64,144.89c-.66-.08-1.72.35-2.17-.17s-.13-1.48-.1-2.25-.35-1.85.16-2.3S88,140,88.76,140h1.75c.3,0,.46.06.46.41s-.1.5-.47.49c-.78,0-1.55,0-2.33,0-.38,0-.54.1-.55.51s.22.47.56.47c.69,0,1.39,0,2.08,0,.28,0,.46,0,.46.39s-.08.5-.46.48c-.64,0-1.28,0-1.91,0s-.75.07-.74.67.23.64.7.62c.72,0,1.44,0,2.16,0,.32,0,.67-.1.66.46s-.35.4-.63.4Z"/><path class="c" d="M131.36,144.85c-.81.06-1.56.28-1.85-.78-.11-.39-.64-.16-1-.17-.68,0-1.39-.21-1.72.78-.17.49-.87.13-1.47.2.74-1.6,1.41-3.11,2.14-4.59.25-.51,1.61-.36,1.86.18C130,141.9,130.66,143.34,131.36,144.85Zm-2.92-3.5c-.27.11-.28.3-.34.44-.59,1.34-.59,1.34.91,1.19A7.16,7.16,0,0,0,128.44,141.35Z"/><path class="c" d="M153.31,144.91c.75-1.63,1.44-3.16,2.17-4.66.19-.38,1.58-.33,1.76.06.71,1.49,1.38,3,2.09,4.56-.79,0-1.55.3-1.84-.78-.11-.42-.69-.16-1.05-.18-.65,0-1.32-.19-1.64.77C154.62,145.2,153.91,144.79,153.31,144.91Zm3-3.72c-.21.48-.33.82-.5,1.13-.34.62-.14.75.51.75s.74-.22.46-.75C156.64,142,156.53,141.65,156.34,141.19Z"/><path class="c" d="M111.73,144.87c-.79,0-1.62.32-1.82-.79,0-.2-.24-.19-.41-.19h-1.57c-.16,0-.36,0-.41.17-.2,1-.95.86-1.79.79l1.42-3.07.42-.9a1.31,1.31,0,0,1,1.73-.86.48.48,0,0,1,.36.29ZM108,143c1.57.13,1.57.13,1-1.19-.06-.16-.15-.31-.28-.57Z"/><path class="f" d="M97.19,144.79c-1.44.5-2.12-.35-2.68-1.54-.82.82-1.26,2.22-2.81,1.5.52-.64,1-1.31,1.59-1.94a.52.52,0,0,0,0-.83c-.51-.57-1-1.19-1.53-1.89.64,0,1.22-.25,1.65.1a7.35,7.35,0,0,1,1,1.34c.65-.9,1.14-2,2.58-1.38-.5.61-1,1.24-1.51,1.83a.48.48,0,0,0,0,.76C96.08,143.41,96.62,144.1,97.19,144.79Z"/><path class="f" d="M121.2,142.48c0-.58,0-1.16,0-1.74s.08-.76.66-.72c.85.06,1.72,0,2.57,0s1.58.6,1.61,1.43-.5,1.47-1.53,1.61a4.07,4.07,0,0,1-1.07,0c-.74-.1-1,.17-.91.91,0,.37.23.89-.56.87-.61,0-.84-.14-.78-.78A15.68,15.68,0,0,0,121.2,142.48Zm2.19-.24c.19,0,.39,0,.58,0,.4,0,.69-.19.72-.64s-.31-.62-.68-.67-.72,0-1.07,0-.38.07-.41.36C122.42,142.15,122.49,142.25,123.39,142.24Z"/><path class="f" d="M160.09,142.33c.07-.66-.35-1.71.16-2.16s1.47-.12,2.24-.13h1.58c.3,0,.52,0,.53.42s-.22.48-.56.48c-.69,0-1.38,0-2.08,0-.4,0-.53.12-.52.52s.06.57.49.54a8.38,8.38,0,0,1,1.41,0c.32,0,.84-.28.86.42s-.49.41-.82.47a1.53,1.53,0,0,1-.25,0c-.52,0-1.18-.17-1.54.08s-.14,1-.13,1.49-.33.48-.64.45-.77.23-.74-.43S160.09,143.13,160.09,142.33Z"/><path class="k" d="M150.2,106.37c0-.44,0-.89,0-1.33s-.3-1.12.7-1.11.6.63.66,1.07c0,.22,0,.44,0,.66,0,.73-.32,1.71.15,2.13s1.36.11,2.07.13a2.67,2.67,0,0,0,.41,0c.36,0,.48.1.47.46s-.09.5-.47.49c-1.16,0-2.32,0-3.48,0-.39,0-.55-.12-.53-.52C150.21,107.69,150.2,107,150.2,106.37Z"/><path class="i" d="M97.77,104h2c.32,0,.59,0,.59.46s-.17.49-.55.51c-1.41.06-1.41.07-1.41,1.53a14.94,14.94,0,0,0,0,1.66c.08.67-.21.79-.8.76-.43,0-.58-.15-.56-.58,0-.91,0-1.83,0-2.74,0-.52-.14-.7-.65-.64-.27,0-.55,0-.83,0s-.43-.14-.43-.44,0-.53.44-.52C96.33,104,97,104,97.77,104Z"/><path class="c" d="M133,140c.72,0,1.44,0,2.16,0,.38,0,.46.15.46.49s-.18.4-.46.41c-.46,0-1.06-.21-1.36.1s-.1,1-.12,1.52a13.25,13.25,0,0,0,0,1.66c0,.53-.11.71-.67.7s-.71-.15-.69-.7c0-.88,0-1.77,0-2.66,0-.52-.15-.71-.66-.64-.24,0-.5,0-.75,0s-.51,0-.51-.44.14-.47.49-.46C131.63,140,132.32,140,133,140Z"/><path class="i" d="M137.13,106.47c0,.63,0,1.27,0,1.9s-.37.48-.71.49-.65.05-.64-.48c0-1.32,0-2.65,0-4,0-.56.35-.45.67-.44s.7-.13.69.43S137.13,105.78,137.13,106.47Z"/><path class="i" d="M128.31,106.41c0,.63,0,1.27,0,1.9s-.36.53-.74.56-.64-.1-.62-.59c0-1.24,0-2.48,0-3.72,0-.58.25-.59.69-.6s.71.09.67.63S128.31,105.8,128.31,106.41Z"/><path class="l" d="M99.23,142.48a13.08,13.08,0,0,0,0,1.58c.09.71-.17.92-.86.85-.37,0-.53-.08-.53-.5,0-1.3,0-2.6,0-3.91,0-.55.32-.48.64-.46s.77-.2.74.44S99.23,141.81,99.23,142.48Z"/><path class="f" d="M136.45,142.48c0-.66,0-1.32,0-2s.31-.47.64-.46.73-.14.72.48c0,1.32,0,2.64,0,4,0,.59-.4.4-.69.41s-.69.15-.66-.42S136.45,143.14,136.45,142.48Z"/><path class="b" d="M216.1,128.71a2.41,2.41,0,0,1,2.48,2.46,2.45,2.45,0,0,1-2.42,2.54,2.54,2.54,0,0,1-2.55-2.52A2.49,2.49,0,0,1,216.1,128.71Zm0,.38a2.11,2.11,0,0,0-2.12,2.11,2.11,2.11,0,0,0,4.22,0A2.11,2.11,0,0,0,216.11,129.09Z"/><path class="d" d="M96.7,122.31a11.34,11.34,0,0,1-1.77,5.88,2.82,2.82,0,0,1-3,1.24A2.61,2.61,0,0,1,90.25,127a10.76,10.76,0,0,1,.87-4.93A5.68,5.68,0,0,1,94,119.3c1-.5,2.54.67,2.69,2A9.2,9.2,0,0,1,96.7,122.31Z"/><path class="a" d="M152.54,128.49c-.32,0-.45-.18-.52-.43-.24-.88-.46-1.76-.69-2.65a.55.55,0,0,1,.16-.6c1-.94,3.73-.39,4.31.89a.63.63,0,0,1,0,.54A4.55,4.55,0,0,1,152.54,128.49Z"/><path class="a" d="M151.67,117.76c1.11,0,1.7.37,1.92,1.21a2,2,0,0,1-1.18,2.07c-2.11,1.07-2.14,1.07-2.67-1.19-.11-.46-.56-1-.22-1.4A2.7,2.7,0,0,1,151.67,117.76Z"/><path class="m" d="M169.71,120.11a34.27,34.27,0,0,1,1.21,5.82c.28,1.45.25,1.46-1.21,1.45-2.53,0-2-.14-1.62-2.1.31-1.54.95-3,1.2-4.56A.73.73,0,0,1,169.71,120.11Z"/><path class="m" d="M136.48,126.89c-2,0-2.06,0-1.51-1.92.46-1.59,1-3.17,1.48-4.75.08-.23.09-.66.44-.59s.35.4.39.69c.22,1.56.43,3.12.52,4.7,0,.17,0,.33,0,.5C137.88,126.89,137.88,126.89,136.48,126.89Z"/><path class="m" d="M206.13,119.31a10.63,10.63,0,0,1,.47,2.76c.16,1.46.3,2.92.34,4.39,0,.38-.08.49-.44.49a17.65,17.65,0,0,1-2.47-.26c-.42-.06-.44-.29-.34-.65a15.72,15.72,0,0,1,.87-2.68C205.16,122.1,205.3,120.65,206.13,119.31Z"/><path class="a" d="M61.52,119.29c.15,2.36.31,4.64.42,6.93.05,1-.48,1.39-1.52,1.07a1.77,1.77,0,0,0-.23-.09c-.53-.08-1.31.07-1.5-.43s.23-1,.41-1.55Q60,122.6,61,120A1,1,0,0,1,61.52,119.29Z"/><path class="n" d="M123.33,104.84l.87.09a.55.55,0,0,1,.54.6c0,.37-.27.53-.6.56a2.72,2.72,0,0,1-.82,0c-.41-.09-1.08.4-1.1-.59S122.88,105,123.33,104.84Z"/><path class="m" d="M118.76,106.44a1.67,1.67,0,1,1-3.33,0,1.67,1.67,0,0,1,3.33,0Z"/><path class="m" d="M141.6,144.08a1.5,1.5,0,0,1-1.65-1.65,1.51,1.51,0,0,1,1.68-1.62,1.63,1.63,0,1,1,0,3.27Z"/><path class="n" d="M146.73,105.24c.2.49.39.92.56,1.36a1.59,1.59,0,0,1,0,.35H146A6.31,6.31,0,0,1,146.73,105.24Z"/><path class="n" d="M128.44,141.35A7.16,7.16,0,0,1,129,143c-1.5.15-1.5.14-.91-1.19C128.16,141.65,128.17,141.46,128.44,141.35Z"/><path class="n" d="M156.34,141.19c.19.47.3.81.47,1.12.28.53.24.75-.46.75s-.86-.13-.51-.75C156,142,156.13,141.67,156.34,141.19Z"/><path class="n" d="M108,143l.75-1.77c.13.27.21.42.28.57C109.53,143.12,109.53,143.12,108,143Z"/><path class="m" d="M123.39,142.24c-.9,0-1-.1-.87-1,0-.3.15-.37.41-.36s.72,0,1.07,0,.71.2.68.67-.32.61-.72.64C123.78,142.25,123.58,142.24,123.39,142.24Z"/><path class="m" d="M216.11,129.09a2.1,2.1,0,1,1,0,4.21,2.08,2.08,0,0,1-2.11-2.1A2.11,2.11,0,0,1,216.11,129.09Zm-1.05,2h0c0,.33,0,.66,0,1s.06.32.27.33.28-.11.31-.3-.11-.66.39-.65a.67.67,0,0,1,.71.66.32.32,0,0,0,.41.3c.11,0,.27-.07.22-.18a3.42,3.42,0,0,1,0-2c0-.28-.29-.44-.57-.52-1.28-.37-1.73,0-1.73,1.25T215.06,131.08Z"/><path class="b" d="M215.06,131.08s0-.06,0-.08c0-1.3.45-1.62,1.73-1.25.28.08.59.24.57.52a3.42,3.42,0,0,0,0,2c.05.11-.1.17-.22.18a.32.32,0,0,1-.41-.3.67.67,0,0,0-.71-.66c-.5,0-.35.38-.39.65s-.1.3-.31.3-.27-.14-.27-.33,0-.66,0-1Zm1,0c.32,0,.72,0,.76-.45s-.37-.45-.69-.48-.57,0-.56.48S215.72,131.08,216.06,131Z"/><path class="n" d="M216.06,131c-.35,0-.49-.1-.5-.46s.21-.51.56-.48.73,0,.69.48S216.39,131,216.06,131Z"/></svg>