<svg xmlns="http://www.w3.org/2000/svg" viewBox="0 0 250 250"><title>Casual dining</title><path d="M149.89,93.69a23.53,23.53,0,1,1-23.53-23.53,23.53,23.53,0,0,1,23.53,23.53Z" style="fill:#231f20"/><path d="M207.65,153a10.27,10.27,0,0,1-10.27,10.27h-142A10.27,10.27,0,0,1,45.07,153V122.63a10.27,10.27,0,0,1,10.27-10.27h142a10.27,10.27,0,0,1,10.27,10.27V153Z" style="fill:#231f20"/><path d="M171.48,133.9c0,7.33-3.32,13.27-7.41,13.27H86.71c-4.09,0-7.41-5.94-7.41-13.27V108.71c0-7.33,3.32-13.27,7.41-13.27h77.36c4.09,0,7.41,5.94,7.41,13.27V133.9Z" style="fill:#231f20"/><path d="M229.43,143.51c0,3.53-7.52,6.39-16.79,6.39H37.36c-9.27,0-16.79-2.86-16.79-6.39V131.39c0-3.53,7.52-6.39,16.79-6.39H212.64c9.27,0,16.79,2.86,16.79,6.39v12.12Z" style="fill:#231f20"/><path d="M172.65,166.57c0,7.33-3.35,13.27-7.47,13.27h-78c-4.13,0-7.47-5.94-7.47-13.27V141.38c0-7.33,3.35-13.27,7.47-13.27h78c4.13,0,7.47,5.94,7.47,13.27v25.19Z" style="fill:#231f20"/><path d="M145.42,92.72A19.45,19.45,0,1,1,126,73.27a19.45,19.45,0,0,1,19.45,19.45Z" style="fill:none;stroke:#ffd600;stroke-miterlimit:2.61310005187988;stroke-width:1.30910193920136px"/><path d="M87.89,167.12c2.53-.6,4.7-1.48,5-2.77.11-.43-.21-.69-.81-.69a8.64,8.64,0,0,0-3.58,1l-.64,2.51Zm-3.09,5.75a1.93,1.93,0,0,1,.34-.58l1.75-6.87a.23.23,0,0,1-.15,0c-.15,0-.27-.22-.15-.69a1.32,1.32,0,0,1,.72-1l.09-.36a1.45,1.45,0,0,1,0-.52,1.16,1.16,0,0,1,1.09-.84c.47,0,.73.42.41,1l0,.18a9.55,9.55,0,0,1,4-1c1.23,0,1.94.68,1.64,1.86-.46,1.8-2.54,3.25-5.78,3.88l3.86,4.17a.59.59,0,0,1,.8.73,1.3,1.3,0,0,1-1.18,1,.56.56,0,0,1-.58-.47l-4.18-4.57-.88,3.47a1.35,1.35,0,0,1,0,.55,1.2,1.2,0,0,1-1.29.89c-.51,0-.6-.46-.48-.92v0Z" style="fill:#ffe200"/><path d="M87.89,167.12c2.53-.6,4.7-1.48,5-2.77.11-.43-.21-.69-.81-.69a8.64,8.64,0,0,0-3.58,1l-.64,2.51Zm-3.09,5.75a1.93,1.93,0,0,1,.34-.58l1.75-6.87a.23.23,0,0,1-.15,0c-.15,0-.27-.22-.15-.69a1.32,1.32,0,0,1,.72-1l.09-.36a1.45,1.45,0,0,1,0-.52,1.16,1.16,0,0,1,1.09-.84c.47,0,.73.42.41,1l0,.18a9.55,9.55,0,0,1,4-1c1.23,0,1.94.68,1.64,1.86-.46,1.8-2.54,3.25-5.78,3.88l3.86,4.17a.59.59,0,0,1,.8.73,1.3,1.3,0,0,1-1.18,1,.56.56,0,0,1-.58-.47l-4.18-4.57-.88,3.47a1.35,1.35,0,0,1,0,.55,1.2,1.2,0,0,1-1.29.89c-.51,0-.6-.46-.48-.92v0Z" style="fill:none;stroke:#ec1c24;stroke-miterlimit:2.61310005187988;stroke-width:0.474899917840958px"/><path d="M101,163.15c-1.58,0-4.17,3.25-4.88,6-.42,1.64-.33,3.46,1.13,3.46,1.66,0,4-2.24,4.73-5.32.71-2.78.28-4.16-1-4.16Zm.51-1.43c1.75,0,3,1.5,2,5.53s-4.06,6.82-6.9,6.81c-2.47,0-2.57-2.69-2.07-4.67.91-3.58,4.31-7.67,7-7.67Z" style="fill:#ffe200"/><path d="M101,163.15c-1.58,0-4.17,3.25-4.88,6-.42,1.64-.33,3.46,1.13,3.46,1.66,0,4-2.24,4.73-5.32.71-2.78.28-4.16-1-4.16Zm.51-1.43c1.75,0,3,1.5,2,5.53s-4.06,6.82-6.9,6.81c-2.47,0-2.57-2.69-2.07-4.67.91-3.58,4.31-7.67,7-7.67Z" style="fill:none;stroke:#ec1c24;stroke-miterlimit:2.61310005187988;stroke-width:0.474899917840958px"/><path d="M109.89,168.1l-.39-3.29-2.32,3.5,2.71-.21Zm-3.66,1.63a19.26,19.26,0,0,0-1.68,2.56,5.56,5.56,0,0,0-.22.79,1,1,0,0,1-1.09.75c-.57,0-.69-.4-.59-.81a11.58,11.58,0,0,1,1.43-2.35l4.22-6.11a8.5,8.5,0,0,0,.9-1.47,1.41,1.41,0,0,1,1.19-1.2.56.56,0,0,1,.63.68c-.08.31-.22.41-.28.67a32.86,32.86,0,0,0,.58,4.43,20.74,20.74,0,0,1,.53,5.13,1.24,1.24,0,0,1-1.18,1.06c-.47,0-.73-.28-.63-.67s.21-.48.26-.64a11.57,11.57,0,0,0-.23-3.07l-3.83.29Z" style="fill:#ffe200"/><path d="M109.89,168.1l-.39-3.29-2.32,3.5,2.71-.21Zm-3.66,1.63a19.26,19.26,0,0,0-1.68,2.56,5.56,5.56,0,0,0-.22.79,1,1,0,0,1-1.09.75c-.57,0-.69-.4-.59-.81a11.58,11.58,0,0,1,1.43-2.35l4.22-6.11a8.5,8.5,0,0,0,.9-1.47,1.41,1.41,0,0,1,1.19-1.2.56.56,0,0,1,.63.68c-.08.31-.22.41-.28.67a32.86,32.86,0,0,0,.58,4.43,20.74,20.74,0,0,1,.53,5.13,1.24,1.24,0,0,1-1.18,1.06c-.47,0-.73-.28-.63-.67s.21-.48.26-.64a11.57,11.57,0,0,0-.23-3.07l-3.83.29Z" style="fill:none;stroke:#ec1c24;stroke-miterlimit:2.61310005187988;stroke-width:0.474899917840958px"/><path d="M114.7,172.35a7.28,7.28,0,0,0,4.11-2,8.7,8.7,0,0,0,2.36-4.08c.33-1.3-.18-2.74-1.46-2.74a6.34,6.34,0,0,0-3,.93l-2,7.86Zm-1.87.86a1.4,1.4,0,0,1,.36-.7l2.29-9a1.36,1.36,0,0,1,0-.58,1.14,1.14,0,0,1,1.12-.77c.55,0,.61.44.43.81a7.15,7.15,0,0,1,3.34-.83c1.89,0,2.82,2,2.31,4a10.35,10.35,0,0,1-9.19,7.83c-.62,0-.85-.26-.72-.77v0Z" style="fill:#ffe200"/><path d="M114.7,172.35a7.28,7.28,0,0,0,4.11-2,8.7,8.7,0,0,0,2.36-4.08c.33-1.3-.18-2.74-1.46-2.74a6.34,6.34,0,0,0-3,.93l-2,7.86Zm-1.87.86a1.4,1.4,0,0,1,.36-.7l2.29-9a1.36,1.36,0,0,1,0-.58,1.14,1.14,0,0,1,1.12-.77c.55,0,.61.44.43.81a7.15,7.15,0,0,1,3.34-.83c1.89,0,2.82,2,2.31,4a10.35,10.35,0,0,1-9.19,7.83c-.62,0-.85-.26-.72-.77v0Z" style="fill:none;stroke:#ec1c24;stroke-miterlimit:2.61310005187988;stroke-width:0.474899917840958px"/><path d="M124.13,172.48a1.81,1.81,0,0,1,0,.6,1,1,0,0,1-.95.77c-.73,0-.91-.31-.8-.73a1.37,1.37,0,0,1,.31-.58l1-3.89a.67.67,0,0,1-.12-.56c.12-.46.26-.81.49-.9l.92-3.62a1.43,1.43,0,0,1,0-.51,1.22,1.22,0,0,1,1.21-.78.6.6,0,0,1,.5.75,1.29,1.29,0,0,1-.27.58l-.87,3.4,4.6-.34.76-3a1.4,1.4,0,0,1,0-.66,1.1,1.1,0,0,1,1-.75c.36,0,.77.38.69.7a1.43,1.43,0,0,1-.27.56l-2.29,9a1.62,1.62,0,0,1,0,.61,1.17,1.17,0,0,1-1.07.68.64.64,0,0,1-.65-.84,1.91,1.91,0,0,1,.32-.62l1.06-4.19-4.6.34-1,3.94Z" style="fill:#ffe200"/><path d="M124.13,172.48a1.81,1.81,0,0,1,0,.6,1,1,0,0,1-.95.77c-.73,0-.91-.31-.8-.73a1.37,1.37,0,0,1,.31-.58l1-3.89a.67.67,0,0,1-.12-.56c.12-.46.26-.81.49-.9l.92-3.62a1.43,1.43,0,0,1,0-.51,1.22,1.22,0,0,1,1.21-.78.6.6,0,0,1,.5.75,1.29,1.29,0,0,1-.27.58l-.87,3.4,4.6-.34.76-3a1.4,1.4,0,0,1,0-.66,1.1,1.1,0,0,1,1-.75c.36,0,.77.38.69.7a1.43,1.43,0,0,1-.27.56l-2.29,9a1.62,1.62,0,0,1,0,.61,1.17,1.17,0,0,1-1.07.68.64.64,0,0,1-.65-.84,1.91,1.91,0,0,1,.32-.62l1.06-4.19-4.6.34-1,3.94Z" style="fill:none;stroke:#ec1c24;stroke-miterlimit:2.61310005187988;stroke-width:0.474899917840958px"/><path d="M138.84,163.18c-1.58,0-4.17,3.25-4.88,6-.42,1.64-.33,3.46,1.13,3.46,1.66,0,4-2.24,4.73-5.32.71-2.78.28-4.16-1-4.16Zm.51-1.43c1.75,0,3,1.5,2,5.53s-4.06,6.82-6.9,6.81c-2.47,0-2.58-2.69-2.07-4.67.91-3.58,4.31-7.67,7-7.67Z" style="fill:#ffe200"/><path d="M138.84,163.18c-1.58,0-4.17,3.25-4.88,6-.42,1.64-.33,3.46,1.13,3.46,1.66,0,4-2.24,4.73-5.32.71-2.78.28-4.16-1-4.16Zm.51-1.43c1.75,0,3,1.5,2,5.53s-4.06,6.82-6.9,6.81c-2.47,0-2.58-2.69-2.07-4.67.91-3.58,4.31-7.67,7-7.67Z" style="fill:none;stroke:#ec1c24;stroke-miterlimit:2.61310005187988;stroke-width:0.474899917840958px"/><path d="M143.77,174.08c-2,0-2.19-1.51-1.92-2.6l2-8a1,1,0,0,1,1-1.16c.64,0,.55.69.46,1l-2.09,8.24a.94.94,0,0,0,1,.92,4,4,0,0,0,3.49-2l1.8-7.08a.52.52,0,0,1,0-.42,1.14,1.14,0,0,1,1.14-.83.53.53,0,0,1,.51.73.92.92,0,0,1-.16.36l-1.9,7.49a4.83,4.83,0,0,1-1.53,1.9,6,6,0,0,1-3.76,1.38Z" style="fill:#ffe200"/><path d="M143.77,174.08c-2,0-2.19-1.51-1.92-2.6l2-8a1,1,0,0,1,1-1.16c.64,0,.55.69.46,1l-2.09,8.24a.94.94,0,0,0,1,.92,4,4,0,0,0,3.49-2l1.8-7.08a.52.52,0,0,1,0-.42,1.14,1.14,0,0,1,1.14-.83.53.53,0,0,1,.51.73.92.92,0,0,1-.16.36l-1.9,7.49a4.83,4.83,0,0,1-1.53,1.9,6,6,0,0,1-3.76,1.38Z" style="fill:none;stroke:#ec1c24;stroke-miterlimit:2.61310005187988;stroke-width:0.474899917840958px"/><path d="M157.82,162.22c1.38,0,2.33,1,2.14,1.8a.89.89,0,0,1-.87.74c-.61,0-.79-.28-.71-.62-.09-.29-.51-.5-1.13-.5a4.43,4.43,0,0,0-3.81,2.77c-.16.65.05.87.45.87a7.39,7.39,0,0,0,1.92-.42,7.66,7.66,0,0,1,2.34-.43c1.28,0,2.09.77,1.68,2.37a5.77,5.77,0,0,1-1.54,2.7,8.3,8.3,0,0,1-5.61,2.53,1.93,1.93,0,0,1-2.11-2.25,1.27,1.27,0,0,1,1.11-1c.51,0,.43.72.51,1.13a.84.84,0,0,0,1,.73,6.64,6.64,0,0,0,4-1.81,3.47,3.47,0,0,0,1.1-1.9c.19-.76-.08-1-.71-1a7,7,0,0,0-2.15.43,7.45,7.45,0,0,1-2.22.42c-1.08,0-1.73-.57-1.33-2.16a6.84,6.84,0,0,1,5.94-4.37Z" style="fill:#ffe200"/><path d="M157.82,162.22c1.38,0,2.33,1,2.14,1.8a.89.89,0,0,1-.87.74c-.61,0-.79-.28-.71-.62-.09-.29-.51-.5-1.13-.5a4.43,4.43,0,0,0-3.81,2.77c-.16.65.05.87.45.87a7.39,7.39,0,0,0,1.92-.42,7.66,7.66,0,0,1,2.34-.43c1.28,0,2.09.77,1.68,2.37a5.77,5.77,0,0,1-1.54,2.7,8.3,8.3,0,0,1-5.61,2.53,1.93,1.93,0,0,1-2.11-2.25,1.27,1.27,0,0,1,1.11-1c.51,0,.43.72.51,1.13a.84.84,0,0,0,1,.73,6.64,6.64,0,0,0,4-1.81,3.47,3.47,0,0,0,1.1-1.9c.19-.76-.08-1-.71-1a7,7,0,0,0-2.15.43,7.45,7.45,0,0,1-2.22.42c-1.08,0-1.73-.57-1.33-2.16a6.84,6.84,0,0,1,5.94-4.37Z" style="fill:none;stroke:#ec1c24;stroke-miterlimit:2.61310005187988;stroke-width:0.474899917840958px"/><path d="M162,172.32l4.3-.35a.87.87,0,0,1,.55-.26.65.65,0,0,1,.64.84c-.2.77-.66.92-1.46.91l-4.4.35a1.38,1.38,0,0,1-.95.31c-.42,0-.72-.31-.57-.91a2.19,2.19,0,0,1,.4-.8l.85-3.35a1,1,0,0,1-.06-.81,1.86,1.86,0,0,1,.48-.83l.72-2.84a.65.65,0,0,1-.15-.7,1.2,1.2,0,0,1,.41-.69.47.47,0,0,1,0-.29,1,1,0,0,1,1-.64c.5,0,.71.28.61.65l3.73-.36a1.37,1.37,0,0,1,.62-.27.61.61,0,0,1,.66.82,1.26,1.26,0,0,1-1.14,1.05,1,1,0,0,1-.49-.14l-3.75.37-.76,3,3-.41a1.16,1.16,0,0,1,.61-.26c.5,0,.72.47.6.93a1.08,1.08,0,0,1-1.12.91.57.57,0,0,1-.33-.12l-3.16.43-.88,3.47Z" style="fill:#ffe200"/><path d="M162,172.32l4.3-.35a.87.87,0,0,1,.55-.26.65.65,0,0,1,.64.84c-.2.77-.66.92-1.46.91l-4.4.35a1.38,1.38,0,0,1-.95.31c-.42,0-.72-.31-.57-.91a2.19,2.19,0,0,1,.4-.8l.85-3.35a1,1,0,0,1-.06-.81,1.86,1.86,0,0,1,.48-.83l.72-2.84a.65.65,0,0,1-.15-.7,1.2,1.2,0,0,1,.41-.69.47.47,0,0,1,0-.29,1,1,0,0,1,1-.64c.5,0,.71.28.61.65l3.73-.36a1.37,1.37,0,0,1,.62-.27.61.61,0,0,1,.66.82,1.26,1.26,0,0,1-1.14,1.05,1,1,0,0,1-.49-.14l-3.75.37-.76,3,3-.41a1.16,1.16,0,0,1,.61-.26c.5,0,.72.47.6.93a1.08,1.08,0,0,1-1.12.91.57.57,0,0,1-.33-.12l-3.16.43-.88,3.47Z" style="fill:none;stroke:#ec1c24;stroke-miterlimit:2.61310005187988;stroke-width:0.474899917840958px"/><path d="M110.94,93.47h8.33V81.33l5.94.53v5.41l1.06.62.62.09,1.6.27,1.51.18.18.35,6,.27,2,.18V90l-.09,2.22.89.44-.09,1.77.62.09-.27,4.61s-5.94,3.37-7.36,6.2a18.5,18.5,0,0,0,.27,3.55,3.39,3.39,0,0,1-4.08-1l-5.14-7.62s-2.48-.89-2.93-.62c0,0-.35,2.13-.62,2.13l-1.15.09-.62-.53s-6.83-7.45-6.65-7.89Z" style="fill:#719171"/><path d="M110.94,93.47h8.33V81.33l5.94.53v5.41l1.06.62.62.09,1.6.27,1.51.18.18.35,6,.27,2,.18V90l-.09,2.22.89.44-.09,1.77.62.09-.27,4.61s-5.94,3.37-7.36,6.2a18.5,18.5,0,0,0,.27,3.55,3.39,3.39,0,0,1-4.08-1l-5.14-7.62s-2.48-.89-2.93-.62c0,0-.35,2.13-.62,2.13l-1.15.09-.62-.53s-6.83-7.45-6.65-7.89Z" style="fill:none;stroke:#ffd600;stroke-miterlimit:2.61310005187988;stroke-width:0.954434096813202px"/><polygon points="118.35 84.43 115.98 84.16 114.79 84.52 113.88 84.61 112.88 85.25 112.69 86.16 113.7 87.17 115.25 88.08 117.34 88.35 118.26 87.99 120.81 87.26 122.91 86.35 124.37 85.25 126.28 84.52 128.47 83.7 130.29 83.34 132.76 83.34 133.03 83.25 133.39 82.33 132.21 81.6 131.11 81.42 128.65 81.06 127.47 81.06 126.65 80.78 126.19 80.24 125.64 79.51 125.28 78.96 124.91 78.41 124.37 77.77 123.91 77.32 123.36 77.14 122.36 77.04 121.54 77.04 120.44 77.04 119.44 77.23 118.8 77.77 118.17 78.5 118.07 79.51 118.07 80.33 118.17 81.42 118.44 82.61 118.53 83.43 118.35 84.43 118.35 84.43" style="fill:#231f20"/><path d="M118.35,84.43,116,84.16l-1.19.36-.91.09-1,.64-.18.91,1,1,1.55.91,2.1.27.91-.36,2.55-.73,2.1-.91,1.46-1.09,1.92-.73,2.19-.82,1.82-.36h2.46l.27-.09.36-.91-1.18-.73-1.09-.18-2.46-.36h-1.19l-.82-.27-.46-.55-.55-.73-.36-.55-.36-.55-.55-.64-.46-.46-.55-.18-1-.09h-1.92l-1,.18-.64.55-.64.73-.09,1v.82l.09,1.09.27,1.19.09.82-.18,1Zm-5,.55.91-.18.91-.46.82-.18.36.27.36,3.74,3.19-1.82.91-1.09.82-1.19s-2.55,1.73-3.37,0,.18-.09.18-.09l.55-2,.64-.64.73-1,.27-1.46.27-.91.46-.55L122,77h.82l.55.09.55.18m-4,9s1.67-2.9,4-3.74c1.58-.57,2-1.82,8.3-1m-13.86,2.83L116,84.16l-1.19.36-.91.09-1,.64-.18.91,1,1,1.55.91,2.1.27.91-.36,2.55-.73,2.1-.91,1.46-1.09,1.92-.73,2.19-.82,1.82-.36h2.46l.27-.09.36-.91-1.18-.73-1.09-.18-2.46-.36h-1.19l-.82-.27-.46-.55-.55-.73-.36-.55-.37-.55-.55-.64-.46-.46-.55-.18-1-.09h-.82l-1.4-.34-.91.39-.84.84-.22.56-.09,1v.82l.09,1.09.27,1.19.09.82-.18,1Z" style="fill:none;stroke:#ffd600;stroke-miterlimit:2.61310005187988;stroke-width:0.327297538518906px"/><path d="M104.09,101.64a1.49,1.49,0,0,1-1.58,1.38H85.79a1.49,1.49,0,0,1-1.58-1.38h0a1.49,1.49,0,0,1,1.58-1.38h16.71a1.49,1.49,0,0,1,1.58,1.38Z" style="fill:#fff"/><path d="M168.3,101.64a1.49,1.49,0,0,1-1.58,1.38H150a1.49,1.49,0,0,1-1.58-1.38h0a1.49,1.49,0,0,1,1.58-1.38h16.71a1.49,1.49,0,0,1,1.58,1.38Z" style="fill:#fff"/><path d="M107.51,108.62c0,.76-.91,1.38-2,1.38H83.89c-1.13,0-2-.62-2-1.38h0c0-.76.91-1.38,2-1.38h21.58c1.13,0,2,.62,2,1.38Z" style="fill:#fff"/><path d="M170.8,108.62c0,.76-.91,1.38-2,1.38H147.18c-1.13,0-2-.62-2-1.38h0c0-.76.91-1.38,2-1.38h21.58c1.13,0,2,.62,2,1.38Z" style="fill:#fff"/><path d="M70.35,115.46a1.51,1.51,0,0,1-1.61,1.38h-17a1.51,1.51,0,0,1-1.61-1.38h0a1.51,1.51,0,0,1,1.61-1.38h17a1.51,1.51,0,0,1,1.61,1.38Z" style="fill:#fff"/><path d="M104.06,115.46c0,.76-1.33,1.38-3,1.38H69.69c-1.64,0-3-.62-3-1.38h0c0-.76,1.33-1.38,3-1.38h31.4c1.64,0,3,.62,3,1.38Z" style="fill:#fff"/><path d="M114.69,115.46a1.51,1.51,0,0,1-1.61,1.38h-17a1.51,1.51,0,0,1-1.61-1.38h0a1.51,1.51,0,0,1,1.61-1.38h17a1.51,1.51,0,0,1,1.61,1.38Z" style="fill:#fff"/><path d="M158,115.46a1.51,1.51,0,0,1-1.61,1.38h-17a1.51,1.51,0,0,1-1.61-1.38h0a1.51,1.51,0,0,1,1.61-1.38h17a1.51,1.51,0,0,1,1.61,1.38Z" style="fill:#fff"/><path d="M191.7,115.46c0,.76-1.33,1.38-3,1.38h-31.4c-1.64,0-3-.62-3-1.38h0c0-.76,1.33-1.38,3-1.38h31.4c1.64,0,3,.62,3,1.38Z" style="fill:#fff"/><path d="M202.33,115.46a1.51,1.51,0,0,1-1.61,1.38h-17a1.51,1.51,0,0,1-1.61-1.38h0a1.51,1.51,0,0,1,1.61-1.38h17a1.51,1.51,0,0,1,1.61,1.38Z" style="fill:#fff"/><path d="M98.13,159.28c0,.76-1.71,1.38-3.82,1.38H53.95c-2.11,0-3.82-.62-3.82-1.38h0c0-.76,1.71-1.38,3.82-1.38H94.31c2.11,0,3.82.62,3.82,1.38Z" style="fill:#fff"/><path d="M178.14,159.28c0,.76-3.15,1.38-7,1.38H96.56c-3.89,0-7-.62-7-1.38h0c0-.76,3.15-1.38,7-1.38h74.53c3.89,0,7,.62,7,1.38Z" style="fill:#fff"/><path d="M203.37,159.28c0,.76-1.71,1.38-3.82,1.38H159.19c-2.11,0-3.82-.62-3.82-1.38h0c0-.76,1.71-1.38,3.82-1.38h40.37c2.11,0,3.82.62,3.82,1.38Z" style="fill:#fff"/><path d="M113.73,177.43c0,.62-.82,1.12-1.83,1.12H92.54c-1,0-1.83-.5-1.83-1.12h0c0-.62.82-1.12,1.83-1.12H111.9c1,0,1.83.5,1.83,1.12Z" style="fill:#fff"/><path d="M152.11,177.43c0,.62-1.51,1.12-3.38,1.12H113c-1.87,0-3.38-.5-3.38-1.12h0c0-.62,1.51-1.12,3.38-1.12h35.75c1.87,0,3.38.5,3.38,1.12Z" style="fill:#fff"/><path d="M164.22,177.43c0,.62-.82,1.12-1.83,1.12H143c-1,0-1.83-.5-1.83-1.12h0c0-.62.82-1.12,1.83-1.12h19.37c1,0,1.83.5,1.83,1.12Z" style="fill:#fff"/><polygon points="53.54 126.31 53.54 120.21 78.67 120.21 78.67 126.31 69.49 126.31 69.49 153.46 62.72 153.46 62.72 126.31 53.54 126.31 53.54 126.31" style="fill:#ec1c24"/><polygon points="53.54 126.31 53.54 120.21 78.67 120.21 78.67 126.31 69.49 126.31 69.49 153.46 62.72 153.46 62.72 126.31 53.54 126.31 53.54 126.31" style="fill:none;stroke:#ec1c24;stroke-miterlimit:2.61310005187988;stroke-width:2.18458676338196px"/><polygon points="104.27 120.21 104.27 126.31 89.36 126.31 89.36 133.51 103.04 133.51 103.04 139.16 89.36 139.16 89.36 147.36 104.58 147.36 104.58 153.46 83.13 153.46 83.13 120.21 104.27 120.21 104.27 120.21" style="fill:#ec1c24"/><polygon points="104.27 120.21 104.27 126.31 89.36 126.31 89.36 133.51 103.04 133.51 103.04 139.16 89.36 139.16 89.36 147.36 104.58 147.36 104.58 153.46 83.13 153.46 83.13 120.21 104.27 120.21 104.27 120.21" style="fill:none;stroke:#ec1c24;stroke-miterlimit:2.61310005187988;stroke-width:2.0967321395874px"/><polygon points="110.67 120.21 118.69 120.21 124.85 130.83 131.24 120.21 138.81 120.21 128.73 136.09 139.69 153.46 131.46 153.46 124.59 141.96 117.59 153.46 109.83 153.46 120.8 136.04 110.67 120.21 110.67 120.21" style="fill:#ec1c24"/><polygon points="110.67 120.21 118.69 120.21 124.85 130.83 131.24 120.21 138.81 120.21 128.73 136.09 139.69 153.46 131.46 153.46 124.59 141.96 117.59 153.46 109.83 153.46 120.8 136.04 110.67 120.21 110.67 120.21" style="fill:none;stroke:#ec1c24;stroke-miterlimit:2.61310005187988;stroke-width:2.21316146850586px"/><path d="M161.83,140.62,158,128.41h-.09L154,140.62Zm-.38-20.41,11.32,33.25h-6.91l-2.29-7.38H152.25l-2.37,7.38h-6.7l11.45-33.25Z" style="fill:#ec1c24"/><path d="M161.83,140.62,158,128.41h-.09L154,140.62Zm-.38-20.41,11.32,33.25h-6.91l-2.29-7.38H152.25l-2.37,7.38h-6.7l11.45-33.25Z" style="fill:none;stroke:#ec1c24;stroke-miterlimit:2.61310005187988;stroke-width:2.17141389846802px"/><path d="M179.5,145.24a5.16,5.16,0,0,0,1.4,1.89,5.69,5.69,0,0,0,2,1.07,8.45,8.45,0,0,0,2.43.35,11.12,11.12,0,0,0,1.82-.16,5.72,5.72,0,0,0,1.82-.63,4.15,4.15,0,0,0,1.42-1.28,3.52,3.52,0,0,0,.57-2.07,3.15,3.15,0,0,0-.75-2.18,5.88,5.88,0,0,0-2-1.39,17.73,17.73,0,0,0-2.75-1q-1.53-.42-3.11-.93a24.65,24.65,0,0,1-3.15-1.14,10.5,10.5,0,0,1-2.75-1.74,8,8,0,0,1-2-2.67,9.11,9.11,0,0,1-.75-3.88,9.71,9.71,0,0,1,.95-4.43,9.52,9.52,0,0,1,2.48-3.13,10.24,10.24,0,0,1,3.47-1.86,13,13,0,0,1,3.87-.6,16.12,16.12,0,0,1,4.34.58,10.2,10.2,0,0,1,3.69,1.88,9.18,9.18,0,0,1,2.56,3.32,11.48,11.48,0,0,1,.95,4.9H190a6.59,6.59,0,0,0-.55-2.47,3.94,3.94,0,0,0-1.24-1.54,4.87,4.87,0,0,0-1.77-.79,9.57,9.57,0,0,0-2.18-.23,6.59,6.59,0,0,0-1.55.19,3.83,3.83,0,0,0-2.44,1.81,3.48,3.48,0,0,0-.41,1.77,3.34,3.34,0,0,0,.32,1.58,3,3,0,0,0,1.27,1.12,14.73,14.73,0,0,0,2.63,1l4.38,1.3q.81.19,2.24.67a10.21,10.21,0,0,1,2.85,1.56,9.42,9.42,0,0,1,2.44,2.86,9.1,9.1,0,0,1,1,4.58,11.52,11.52,0,0,1-.77,4.23,9.14,9.14,0,0,1-2.27,3.37,10.52,10.52,0,0,1-3.74,2.21,15.56,15.56,0,0,1-5.17.79,15.87,15.87,0,0,1-4.61-.68,11,11,0,0,1-3.95-2.12,10.21,10.21,0,0,1-2.72-3.68,12.45,12.45,0,0,1-1-5.31H179a6.87,6.87,0,0,0,.53,2.84Z" style="fill:#ec1c24"/><path d="M179.5,145.24a5.16,5.16,0,0,0,1.4,1.89,5.69,5.69,0,0,0,2,1.07,8.45,8.45,0,0,0,2.43.35,11.12,11.12,0,0,0,1.82-.16,5.72,5.72,0,0,0,1.82-.63,4.15,4.15,0,0,0,1.42-1.28,3.52,3.52,0,0,0,.57-2.07,3.15,3.15,0,0,0-.75-2.18,5.88,5.88,0,0,0-2-1.39,17.73,17.73,0,0,0-2.75-1q-1.53-.42-3.11-.93a24.65,24.65,0,0,1-3.15-1.14,10.5,10.5,0,0,1-2.75-1.74,8,8,0,0,1-2-2.67,9.11,9.11,0,0,1-.75-3.88,9.71,9.71,0,0,1,.95-4.43,9.52,9.52,0,0,1,2.48-3.13,10.24,10.24,0,0,1,3.47-1.86,13,13,0,0,1,3.87-.6,16.12,16.12,0,0,1,4.34.58,10.2,10.2,0,0,1,3.69,1.88,9.18,9.18,0,0,1,2.56,3.32,11.48,11.48,0,0,1,.95,4.9H190a6.59,6.59,0,0,0-.55-2.47,3.94,3.94,0,0,0-1.24-1.54,4.87,4.87,0,0,0-1.77-.79,9.57,9.57,0,0,0-2.18-.23,6.59,6.59,0,0,0-1.55.19,3.83,3.83,0,0,0-2.44,1.81,3.48,3.48,0,0,0-.41,1.77,3.34,3.34,0,0,0,.32,1.58,3,3,0,0,0,1.27,1.12,14.73,14.73,0,0,0,2.63,1l4.38,1.3q.81.19,2.24.67a10.21,10.21,0,0,1,2.85,1.56,9.42,9.42,0,0,1,2.44,2.86,9.1,9.1,0,0,1,1,4.58,11.52,11.52,0,0,1-.77,4.23,9.14,9.14,0,0,1-2.27,3.37,10.52,10.52,0,0,1-3.74,2.21,15.56,15.56,0,0,1-5.17.79,15.87,15.87,0,0,1-4.61-.68,11,11,0,0,1-3.95-2.12,10.21,10.21,0,0,1-2.72-3.68,12.45,12.45,0,0,1-1-5.31H179a6.87,6.87,0,0,0,.53,2.84Z" style="fill:none;stroke:#ec1c24;stroke-miterlimit:2.61310005187988;stroke-width:2.2346830368042px"/><path d="M53.54,126.31v-6.1H78.68v6.1H69.49v27.15H62.72V126.31Zm50.73-6.1v6.1H89.36v7.2H103v5.65H89.36v8.2h15.22v6.1H83.13V120.21Zm6.4,0h8l6.17,10.62,6.39-10.62h7.57l-10.08,15.88,11,17.37h-8.24L124.59,142l-7,11.5h-7.75l11-17.42-10.13-15.83Zm51.16,20.41L158,128.41h-.09L154,140.62Zm-.38-20.41,11.32,33.25h-6.91l-2.29-7.38H152.25l-2.37,7.38h-6.7l11.45-33.25Zm18.05,25a5.16,5.16,0,0,0,1.4,1.89,5.69,5.69,0,0,0,2,1.07,8.45,8.45,0,0,0,2.43.35,11.12,11.12,0,0,0,1.82-.16,5.72,5.72,0,0,0,1.82-.63,4.15,4.15,0,0,0,1.42-1.28,3.52,3.52,0,0,0,.57-2.07,3.15,3.15,0,0,0-.75-2.18,5.88,5.88,0,0,0-2-1.39,17.73,17.73,0,0,0-2.75-1q-1.53-.42-3.11-.93a24.65,24.65,0,0,1-3.15-1.14,10.5,10.5,0,0,1-2.75-1.74,8,8,0,0,1-2-2.67,9.11,9.11,0,0,1-.75-3.88,9.71,9.71,0,0,1,.95-4.43,9.52,9.52,0,0,1,2.48-3.13,10.24,10.24,0,0,1,3.47-1.86,13,13,0,0,1,3.87-.6,16.12,16.12,0,0,1,4.34.58,10.2,10.2,0,0,1,3.69,1.88,9.18,9.18,0,0,1,2.56,3.32,11.48,11.48,0,0,1,.95,4.9H190a6.59,6.59,0,0,0-.55-2.47,3.94,3.94,0,0,0-1.24-1.54,4.87,4.87,0,0,0-1.77-.79,9.57,9.57,0,0,0-2.18-.23,6.59,6.59,0,0,0-1.55.19,3.83,3.83,0,0,0-2.44,1.81,3.48,3.48,0,0,0-.41,1.77,3.34,3.34,0,0,0,.32,1.58,3,3,0,0,0,1.27,1.12,14.73,14.73,0,0,0,2.63,1l4.38,1.3q.81.19,2.24.67a10.21,10.21,0,0,1,2.85,1.56,9.42,9.42,0,0,1,2.44,2.86,9.1,9.1,0,0,1,1,4.58,11.52,11.52,0,0,1-.77,4.23,9.14,9.14,0,0,1-2.27,3.37,10.52,10.52,0,0,1-3.74,2.21,15.56,15.56,0,0,1-5.17.79,15.87,15.87,0,0,1-4.61-.68,11,11,0,0,1-3.95-2.12,10.21,10.21,0,0,1-2.72-3.68,12.45,12.45,0,0,1-1-5.31H179a6.87,6.87,0,0,0,.53,2.84Z" style="fill:none;stroke:#ffd600;stroke-miterlimit:2.61310005187988;stroke-width:0.654598355293274px"/><path d="M44,130.16a1.29,1.29,0,0,1-1.29,1.29H28.54a1.29,1.29,0,0,1-1.29-1.29h0a1.29,1.29,0,0,1,1.29-1.29H42.73A1.29,1.29,0,0,1,44,130.16Z" style="fill:#fafdff"/><path d="M44.69,137.33c0,.71-.78,1.29-1.75,1.29H23.75c-1,0-1.75-.58-1.75-1.29h0c0-.71.78-1.29,1.75-1.29H42.94c1,0,1.75.58,1.75,1.29Z" style="fill:#fafdff"/><path d="M44.27,144.17a1.35,1.35,0,0,1-1.4,1.29H27.57a1.35,1.35,0,0,1-1.4-1.29h0a1.35,1.35,0,0,1,1.4-1.29H42.88a1.35,1.35,0,0,1,1.4,1.29Z" style="fill:#fafdff"/><path d="M206,130.16a1.29,1.29,0,0,0,1.29,1.29h14.18a1.29,1.29,0,0,0,1.29-1.29h0a1.29,1.29,0,0,0-1.29-1.29H207.27a1.29,1.29,0,0,0-1.29,1.29Z" style="fill:#fafdff"/><path d="M205.31,137.33c0,.71.78,1.29,1.75,1.29h19.19c1,0,1.75-.58,1.75-1.29h0c0-.71-.78-1.29-1.75-1.29H207.06c-1,0-1.75.58-1.75,1.29Z" style="fill:#fafdff"/><path d="M205.72,144.17a1.35,1.35,0,0,0,1.4,1.29h15.31a1.35,1.35,0,0,0,1.4-1.29h0a1.35,1.35,0,0,0-1.4-1.29H207.12a1.35,1.35,0,0,0-1.4,1.29Z" style="fill:#fafdff"/><path d="M176.44,166.43h.28c.21,0,.4.08.4.29s-.09.38-.5.38h-.19v-.67Zm-.32,1.57h.32v-.72h.35l.54.76.32-.08-.57-.75a.56.56,0,0,0,.39-.51c0-.3-.3-.45-.68-.45h-.66V168Zm.64.82a1.64,1.64,0,1,0-1.61-1.64,1.63,1.63,0,0,0,1.61,1.64Zm0-.26a1.38,1.38,0,1,1,1.32-1.38,1.37,1.37,0,0,1-1.32,1.38Z" style="fill:#231f20"/></svg>