<svg xmlns="http://www.w3.org/2000/svg" viewBox="0 0 250 250"><title>Fast Casual</title><path d="M188.7,117l-29-27.26a18.54,18.54,0,0,0,.4,3.81,209.12,209.12,0,0,0,4.65,23.6c.21.8.46,1.13,1.4,1a18.76,18.76,0,0,1,4.49-.15c.4,0,.87,0,.88.59s-.48.63-.93.64a59.68,59.68,0,0,0-11.93,1.84c-.16,0-.33.06-.49.1-.41.12-.75,0-.86-.41s.15-.61.51-.72c1-.3,1.88-.68,2.85-.9.74-.17.93-.49.91-1.22A172.82,172.82,0,0,0,159,94.3c-.31-1.87-.71-3.73-1-5.6a2.31,2.31,0,0,0-1.29-1.77,5.81,5.81,0,0,0-4.07-.52c-.2,0-.38.12-.58.14s-.65,0-.72-.35.25-.44.5-.51c1.42-.39,2.92-.37,4.32-.78,2.66-.78,4.51.14,6.47,2,7.54,7.21,15.26,14.22,22.92,21.31l1.09,1a20,20,0,0,0-.36-3.55,205.43,205.43,0,0,0-4.37-23.25c-.18-.71-.43-1-1.2-.86a14.87,14.87,0,0,1-3.69.06c-.41,0-.87-.1-.86-.62s.44-.6.86-.6a51.26,51.26,0,0,0,11.34-1.7c.44-.11.91-.25,1.08.32s-.35.7-.75.83a24.78,24.78,0,0,1-2.67.82c-.75.15-.92.5-.91,1.21a171.79,171.79,0,0,0,1.68,19c.69,5.08,1.63,10.12,2.65,15.14.19.94.5.74,1,.3A4.34,4.34,0,0,0,191.8,114q4-17.21,8.1-34.41a4.52,4.52,0,0,1,8.6-1q6.81,13.45,13.69,26.88c.79,1.54,1.57,3.09,2.37,4.62a3.63,3.63,0,0,0,4.9,2,2.2,2.2,0,0,1,2.47.59,2.3,2.3,0,0,1-1.71,3.86c-2.9,0-5.8,0-8.7.16a16.15,16.15,0,0,0-6.81,1.74,2.3,2.3,0,0,1-2.78-.25,2.2,2.2,0,0,1-.61-2.46,2.3,2.3,0,0,1,2.32-1.55,15.71,15.71,0,0,0,4.83-.65c1.15-.4,1.31-.67,1-1.85a50.84,50.84,0,0,0-3.91-8.52.63.63,0,0,0-.82-.34,107.87,107.87,0,0,1-14.87,1.74.88.88,0,0,0-1,.77,66.4,66.4,0,0,0-1.68,8.21c-.25,2,.12,2.41,2.16,2.39a20.71,20.71,0,0,0,4.15-.58,2.3,2.3,0,0,1,2.72,3.09,2.07,2.07,0,0,1-2.29,1.41c-4.12-1.16-8.06-.13-12,.8-1.33.31-2.66.61-4,1a2.22,2.22,0,0,1-2.49-.82,2.12,2.12,0,0,1-.23-2.44,2.21,2.21,0,0,1,2.32-1.23A2.15,2.15,0,0,0,188.7,117Zm15.62-36-.89,4.31q-1.45,7-2.88,14.07c-.08.4-.38.94.53.85,3.64-.36,7.29-.64,10.9-1.25.9-.15.88-.38.54-1.08-2.57-5.37-5.11-10.75-7.66-16.12C204.74,81.53,204.69,81.21,204.32,81Z"/><path d="M52.41,126.26c.26.67.41,1.1.58,1.51q3.87,9.31,7.74,18.62A2.75,2.75,0,0,0,62,147.85c1.83,1,3.62,2.12,5.44,3.16a2,2,0,0,1,.95,1.09c.48,1.24,1,2.48,1.54,3.68.35.73.26,1-.53,1.36-5,2-9.9,4.1-14.85,6.16-1.2.5-2.41,1-3.59,1.5a1.26,1.26,0,0,1-1.3-.07c-1.92-1.14-3.85-2.25-5.79-3.35a1.66,1.66,0,0,1-.76-.87c-.71-1.76-1.43-3.51-2.19-5.25-.22-.5-.16-.78.34-1a12.38,12.38,0,0,0,1.11-.67c1.55-.94,1.87-1.64,1.46-3.39a15.73,15.73,0,0,0-.76-2.37c-1.14-2.8-2.34-5.59-3.48-8.39-.24-.6-.44-.84-1.14-.54-1.31.55-2.58,1.54-4,1.47a15.12,15.12,0,0,1-4-1.3c-1.41-.5-2.82-1-4.24-1.49a1.34,1.34,0,0,1-.89-.84q-3.9-9.4-7.84-18.79c-.25-.59-.09-.78.45-1q15.63-6.48,31.24-13a1.29,1.29,0,0,1,1.3.09q3.39,2,6.81,4a2,2,0,0,1,.88,1q3.67,8.85,7.37,17.69c.25.59.2.84-.43,1.08-1.8.7-3.58,1.45-5.35,2.22a1.26,1.26,0,0,1-1.29-.11C56.58,128.71,54.61,127.56,52.41,126.26Zm-25.07-2.78c0-.2,0-.4,0-.6.12-1.84.89-3,2.23-3.46,1.19-.37,2.34.2,3.49,1.76a18.72,18.72,0,0,1,2.09,4c2.2,5.28,4.41,10.56,6.6,15.85,1.17,2.83,2.51,5.59,3.43,8.52s.52,3.73-2,5.28a2.15,2.15,0,0,1-.26.15c-.47.21-.52.5-.31,1a20.45,20.45,0,0,1,1,2.4c.25.79.58.92,1.36.59,4.5-1.91,9-3.77,13.54-5.66.79-.33,2-.44,2.24-1.11s-.51-1.57-.83-2.37c-.61-1.49-.63-1.54-2.24-1.09a3.08,3.08,0,0,1-3.55-1.1,9.55,9.55,0,0,1-1.38-2.31q-5.18-12.39-10.32-24.79a10.22,10.22,0,0,1-.88-4.07,2.66,2.66,0,0,1,4-2.51,5.71,5.71,0,0,1,1.61,1.16,14.59,14.59,0,0,1,2.54,3.56A51.42,51.42,0,0,1,52,123.83c.26.64.49.91,1.2.53a17,17,0,0,1,2.48-1c.69-.23.73-.54.46-1.17q-3.35-8-6.63-15.94c-.28-.68-.57-.69-1.17-.43-2.81,1.2-5.65,2.37-8.47,3.54L20,117.61c-.37.16-1,.16-.64.9q3.45,8.19,6.84,16.4c.21.52.47.52.9.33.94-.42,1.89-.82,2.86-1.19.5-.19.56-.43.36-.89q-.79-1.78-1.5-3.59A18,18,0,0,1,27.34,123.49Z"/><path d="M109.94,122.61c-.2-1.06-.42-2.23-.65-3.4-1.15-5.81-2.3-11.62-3.48-17.43-.14-.68-.1-1,.7-1.13,1.81-.29,3.6-.66,5.38-1.08.78-.18,1,.06,1.17.8,1.27,6.57,2.59,13.13,3.86,19.7.18.93.39,1.36,1.49,1.06,1.7-.46,3.45-.74,5.19-1,.65-.12.78-.39.66-1q-2-9.69-3.88-19.39c-.32-1.61-.49-1.19,1-1.54s3.27-.63,4.89-1c.75-.17,1.08-.09,1.25.8,1.25,6.54,2.59,13.06,3.85,19.6.16.82.45.95,1.17.75s1.44-.26,2.15-.44c.44-.11.59,0,.67.44.4,2.06.81,4.11,1.24,6.17.12.59-.29.56-.64.63l-11,2.18c-4.24.84-8.5,1.65-12.73,2.54-.91.19-1.22,0-1.36-.92-.28-1.71-.67-3.4-1-5.1A1.82,1.82,0,0,1,109.94,122.61Z"/><path d="M81.18,124.49c-.18,1.22-.36,2.44-.55,3.65a1.38,1.38,0,0,0,.06.78A20.33,20.33,0,0,0,84,134.81a4.3,4.3,0,0,0,2.19,1.5c.56.14,1,.08,1-.67s.25-1.26.22-1.88c0-1.05.53-1.29,1.41-1.44a51.1,51.1,0,0,0,13-3.87,23.87,23.87,0,0,0,3.51-2,30.63,30.63,0,0,1-2.61,5.46c-.31.51-1,.68-1.51.94a75.44,75.44,0,0,1-11.77,4.09l-.19,0c-3.49,1-4.87.42-6.8-2.69a20,20,0,0,1-2.28-5.2c-.37-1.32.2-2.63.23-4a3.33,3.33,0,0,0,.06-.39c-.24-2.18.94-3.17,2.88-3.74a38.12,38.12,0,0,0,4.33-1.79c.47-.21.69-.13.86.37.54,1.61,1.13,3.2,1.66,4.81.18.56.43.74,1,.53a14.69,14.69,0,0,1,2-.59c.71-.15.77-.46.54-1.11-1.73-4.82-3.39-9.67-5.14-14.49a7.81,7.81,0,0,1-.44-3.42c.15-1.79.29-3.59.37-5.38a1,1,0,0,1,.82-1.06c2.07-.73,4.14-1.47,6.17-2.3.8-.33,1,0,1.22.65q3.86,11.55,7.77,23.09c.26.76.47,1.53.78,2.26a2.09,2.09,0,0,1-.48,2.38,8.38,8.38,0,0,1-2.35,1.83A41.12,41.12,0,0,1,90,131.13c-4,.74-6.1-.5-7.72-4.29-.33-.78-.6-1.59-.89-2.38Zm8.57-23.19h-.21c-.2,1.45-.41,2.9-.6,4.35a2.28,2.28,0,0,0,.09,1.08q2.86,8.2,5.7,16.41c.07.21.11.57.36.54a3.36,3.36,0,0,0,1.85-.65c.42-.37.17-.79,0-1.2L92.5,109.1Q91.13,105.2,89.75,101.3Z"/><path d="M146.41,109.51a15.61,15.61,0,0,1-2.07,4.93c-2,2.81-4.32,3.21-7.07,1.18a10.22,10.22,0,0,1-3.32-4.43,28.67,28.67,0,0,1-1-19.82,9.84,9.84,0,0,1,1.56-3.11A5.12,5.12,0,0,1,141.65,87a1.52,1.52,0,0,0,1.11.29c.69-.09,1.39-.13,2.09-.22.87-.12,1.59-.11,2,.92.24.61.78.79,1.46.27s1.09-.26,1.24.58a25.59,25.59,0,0,1,.15,4,42.73,42.73,0,0,0,.83,8.73,7.69,7.69,0,0,0,.79,2.15,1.83,1.83,0,0,0,3.26.36,8.61,8.61,0,0,0,1.76-3.65,16.43,16.43,0,0,1,.57-1.8c.2-.49.63-.49.76,0,.5,1.81,1.53,3.54.49,5.55a19.62,19.62,0,0,1-3.15,4.95c-2.63,2.68-5.29,2.86-8.25.56A2.63,2.63,0,0,0,146.41,109.51ZM139.2,98.06c.09,1.38.16,3.25.35,5.1a14.43,14.43,0,0,0,1.26,5.31,1.5,1.5,0,0,0,1.39,1c.74,0,1.09-.59,1.3-1.21a8.55,8.55,0,0,0,.41-2.76c0-4.42-.86-8.74-1.46-13.09-.16-1.18-.87-1.86-1.69-1.8-1.15.08-1.25,1.06-1.42,1.89A33.53,33.53,0,0,0,139.2,98.06Z"/><path d="M130.2,148.82c.25-6.06.44-10.22.59-14.38A1.29,1.29,0,0,1,132,133c2.74-.52,5.48-1.11,8.2-1.73a1,1,0,0,1,1.35.61q5.66,11.23,11.36,22.44c.44.88.29,1.17-.69,1.38-2.31.49-4.63.94-6.93,1.48-.81.19-1.14-.06-1.41-.79-.45-1.22-1-2.4-1.48-3.6-.09-.21-.13-.53-.3-.62-1-.56-1.89.18-2.84.25-.59,0-.59.51-.58,1,.05,1.4.06,2.8.15,4.19a1,1,0,0,1-.91,1.16q-3.57.72-7.12,1.52c-.86.19-1.14-.07-1.1-.95C129.94,155.17,130.1,151,130.2,148.82Zm8.71-4.43-.3.09c0,1.31,0,2.61,0,3.92,0,.61.47.43.8.32s1.18,0,1-.61A38.09,38.09,0,0,0,138.91,144.4Z"/><path d="M181.17,122.75a11.14,11.14,0,0,1,5.87,1.54,7,7,0,0,1,3,3.85c.2.63.05,1-.64,1.16-2.17.51-4.33,1.05-6.49,1.6-.57.15-1,.14-1.36-.46a1.31,1.31,0,0,0-.78-.59.92.92,0,0,0-1.16.31c-.27.42,0,.76.34,1a4.38,4.38,0,0,0,1.66.89c1.33.42,2.67.82,4,1.19a16.27,16.27,0,0,1,3,1.16c4.91,2.48,4.38,7.31,2.51,10.18a7.91,7.91,0,0,1-2.21,2.29,14.14,14.14,0,0,1-11.25,2.18,8.32,8.32,0,0,1-6.21-6.75c-.09-.54.09-.73.56-.84l6.2-1.56a.75.75,0,0,1,1,.54,3.67,3.67,0,0,0,1.54,1.91,1.33,1.33,0,0,0,1.86-.3c.39-.81-.13-1.25-.77-1.57a37.35,37.35,0,0,0-5.42-2,12.6,12.6,0,0,1-4.32-2.23,6.16,6.16,0,0,1-1.12-8.82c2.08-2.86,5.09-4.06,8.47-4.55C180.06,122.82,180.7,122.79,181.17,122.75Z"/><path d="M102.18,139.4a.58.58,0,0,1,.71.52q.57,2.73,1.16,5.47c.15.72-.35.82-.87.93-2.21.46-4.42,1-6.64,1.38-.92.17-1.3.53-1,1.46a2.79,2.79,0,0,1,.15.68c.06.73.42.87,1.08.69.93-.25,1.89-.41,2.83-.61.62-.14,1,0,1.12.72.32,1.73.69,3.46,1.1,5.17.17.71-.08,1-.74,1.1-.92.17-1.81.44-2.73.57s-.93.51-.77,1.24c.54,2.4,1,4.82,1.55,7.22.17.75,0,1.09-.76,1.25-2.55.5-5.08,1-7.61,1.61-.63.14-.93,0-1.06-.66q-2.55-12.06-5.13-24.1c-.12-.57,0-.9.61-1L102,139.45Z"/><path d="M157.51,154.54c-.81.1-.93-.31-1-.82q-1.56-7.42-3.16-14.84a16.57,16.57,0,0,1-.38-1.86c-.09-1-.57-1.12-1.42-.91-1.26.31-2.54.53-3.8.83-.73.17-1.11,0-1.25-.8-.32-1.7-.7-3.39-1.1-5.07-.16-.69.08-.95.74-1.08q9.87-2.07,19.72-4.18c.66-.14.92.09,1,.69.35,1.73.69,3.46,1.09,5.18.16.69-.05,1-.71,1.12-1.34.27-2.66.63-4,.84-.91.14-1.06.55-.88,1.37,1.17,5.4,2.31,10.8,3.47,16.2.32,1.51.33,1.51-1.16,1.84l-6.73,1.44C157.74,154.51,157.54,154.53,157.51,154.54Z"/><path d="M113.45,137c.56,0,.58.45.66.86l2.22,10.45c.46,2.15.94,4.29,1.36,6.44.13.64.34.8,1,.65,2.4-.55,4.82-1,7.22-1.56.78-.18,1,.09,1.14.77.35,1.76.7,3.52,1.11,5.27.16.69,0,1-.7,1.1q-8.2,1.72-16.39,3.5c-.81.18-1-.29-1.1-.9q-1.82-8.64-3.66-17.28-.65-3.07-1.31-6.15c-.26-1.21-.19-1.33,1-1.58l6.93-1.47Z"/><path d="M80.4,142.55l.69-.23c.23-.07.48-.12.58.18q.37,1.08.71,2.18c.1.33-.17.38-.39.45l-6.06,2c-.18.06-.44.2-.53,0a24.45,24.45,0,0,1-.79-2.36c-.1-.36.31-.39.54-.43.67-.14.82-.42.58-1.1-1.3-3.81-2.56-7.63-3.82-11.45-.17-.52-.36-.87-1-.55s-.86.09-1-.49a5.37,5.37,0,0,0-.34-1c-.31-.67-.37-1.2.56-1.33.47-.07.47-.35.35-.72q-2.21-6.63-4.39-13.26c-.19-.58-.51-.51-.91-.33s-.7.06-.88-.42c-.82-2.14-.84-2.14,1.34-2.86,1.39-.46,2.8-.88,4.16-1.4.74-.28,1-.07,1.15.63a3.69,3.69,0,0,0,.3.85c.33.71.38,1.27-.62,1.41-.48.06-.54.32-.38.78q2.21,6.57,4.37,13.16c.2.62.5.59,1,.37s.86-.17,1,.47a4.59,4.59,0,0,0,.38,1.13c.31.66.31,1.13-.56,1.26-.47.07-.55.35-.4.8q2,5.91,3.94,11.83C80,142.28,80.05,142.56,80.4,142.55Z"/><path d="M190.87,161.45a14.55,14.55,0,0,0-1.18,3.19c-.13.47-.22,1-.77,1.21s-.83-.43-1.17-.76a27.55,27.55,0,0,1-2.4-3.25,24.73,24.73,0,0,0,0,5.06c.13.62.29,1.07,1,1,.28,0,.55.08.57.42s-.21.38-.46.4a20.29,20.29,0,0,0-3.35.52c-.26.06-.61.08-.71-.2s.2-.47.42-.59a1.49,1.49,0,0,0,.76-1.69,28.5,28.5,0,0,0-.44-3.57c-.13-.54-.24-1-.85-1.2s-.38-.51-.07-.74c.63-.45.49-1,.35-1.61s-.25-1-.35-1.55c-.15-.74-.44-1.34-1.31-1.39-.2,0-.44,0-.49-.26s.19-.3.36-.4a11.08,11.08,0,0,1,4-1.07c.28,0,.78,0,.65.39-.37,1,.33,1.58.61,2.31a24.64,24.64,0,0,0,1.39,2.6c.31-1.71.58-3.16.83-4.61a.82.82,0,0,0-.58-.94c-.19-.08-.37-.21-.3-.45s.27-.16.42-.2a19.62,19.62,0,0,1,5.46-.34c.13,0,.28,0,.33.16a.29.29,0,0,1-.24.37c-1.37.35-1.13,1.33-.91,2.31a9.17,9.17,0,0,1,.47,2.24c0,.5.38.65.76.8s.54.52.06.73-.51.65-.5,1.14a16.09,16.09,0,0,0,.66,3.73,1.83,1.83,0,0,0,1.67,1.58c.34,0,.95,0,.88.58s-.59.32-.93.33c-1.4,0-2.79.23-4.18.36-.3,0-.74.22-.85-.23s.29-.51.58-.56c.8-.15.88-.66.75-1.33A23.2,23.2,0,0,0,190.87,161.45Z"/><path d="M62.92,91.22a16,16,0,0,1,1.42,1.68,3.92,3.92,0,0,0,3.32,1.82c1.39.11,2.76.39,4.28.62-.81,1.34-1.53,2.61-2.32,3.83a1.52,1.52,0,0,0-.13,1.65c.6,1.29,1.11,2.61,1.73,4.11-1.53-.39-2.89-.66-4.2-1.09a1.71,1.71,0,0,0-1.95.48c-1,1-2.06,1.85-3.26,2.91-.11-1.57-.25-2.92-.3-4.27a1.57,1.57,0,0,0-.85-1.44c-1.19-.72-2.34-1.5-3.6-2.31,1.35-.94,2.58-1.85,3.86-2.67a2.43,2.43,0,0,0,1.22-1.8C62.33,93.63,62.63,92.54,62.92,91.22Z"/><path d="M170.12,169.14a21,21,0,0,1-4-4.32,21.06,21.06,0,0,0-2.22,3.84c-.25.54.34.42.59.53s.91,0,.88.61-.53.64-1,.71q-2.41.39-4.83.75c-.32,0-.73.12-.86-.29s.21-.66.52-.86a.48.48,0,0,1,.18-.09c2.89-.39,3.2-3.19,4.62-5,.27-.34,0-.52-.29-.68-.48-.27-.84-.54-.06-.92.47-.23.35-.52.06-.86q-1.39-1.63-2.75-3.31a2,2,0,0,0-1.72-.6c-.28,0-.68.09-.76-.29s.34-.55.64-.64a17,17,0,0,1,4.3-.85c.38,0,.92-.12,1,.36s-.45.62-.82.8c-.09,0-.19.07-.48.17l2.11,2c.36.35.54.19.73-.18.4-.8.81-1.6,1.27-2.38.24-.4.24-.58-.27-.64-.3,0-.68-.16-.68-.48s.46-.42.77-.46q2-.24,4.07-.43c.31,0,.75-.1.83.33s-.34.48-.62.51c-1.34.16-1.87,1.06-2.27,2.2a16.75,16.75,0,0,1-1.25,2.72c-.42.74-.21,1,.54,1.11.59.09,1.12.22.28.81-.33.23-.17.46,0,.65a24.85,24.85,0,0,1,3.15,3.86,2.26,2.26,0,0,0,2,1.21.61.61,0,0,1,.67.61c0,.36-.29.41-.57.4-1.72-.07-3.36.49-5,.65-.17,0-.33.07-.49.07-.33,0-.72.05-.83-.36s.19-.66.56-.81A9,9,0,0,0,170.12,169.14Z"/><path d="M201.42,166.68h-4.17c-.32,0-.63,0-.69-.41a.57.57,0,0,1,.47-.67c1.32-.17,1.29-1.12,1.26-2.08,0-.67.21-1.53-.12-2a2.34,2.34,0,0,1-.34-2.5c.29-1-.19-2.15-.36-3.24-.09-.57-.51-.8-1-.93-.37-.09-.92-.11-.9-.61s.59-.58,1-.63c1.55-.2,3.1-.35,4.66-.52,1.09-.12,2.19-.23,3.28-.37.5-.06.79,0,.88.63a28,28,0,0,1,.43,3.16c0,.25.06.58-.25.69s-.47-.15-.64-.36-.56-.66-.83-1a1.86,1.86,0,0,0-1.86-.7,9.17,9.17,0,0,1-1,.09c-1.51.09-1.51.08-1.24,1.62a5.92,5.92,0,0,0,.24,1.17c.12.31-.23.9.47.9s1.22-.13,1.38-.87a3.35,3.35,0,0,1,.39-1.33c.15-.22.31-.47.62-.39a.57.57,0,0,1,.4.53,34.24,34.24,0,0,1,.09,4.69.53.53,0,0,1-.48.56c-.35,0-.53-.25-.66-.53-.24-.52-.16-1.49-1.12-1.1s-.14,1.08-.14,1.64a1.33,1.33,0,0,0,.07.39c.2.61-.21,1.42.37,1.84s3.14-.35,3.6-.85.83-1,1.37-.78,0,.93,0,1.41c0,.23-.13.45-.18.67-.42,1.85-.42,1.86-2.32,1.83A16.33,16.33,0,0,0,201.42,166.68Z"/><path d="M219.19,153.33c-.63-.11-1.09-.18-1.54-.28-.23-.05-.46-.17-.49-.44s.25-.42.45-.44a18.64,18.64,0,0,1,4.88,0c.47.07.53.36.15.68a.48.48,0,0,1-.16.11c-2.54.69-3.42,3.11-5,4.8-.31.34-.57.65.07,1,.41.22.13.55-.14.69-.72.37-.42.63,0,1a13.13,13.13,0,0,1,2.3,2.35,4.43,4.43,0,0,0,3,1.93c.36,0,.8.16.74.63s-.51.33-.83.36c-1.26.13-2.52.26-3.78.34-.44,0-1.08.17-1.23-.36-.2-.68.62-.49,1-.8a5.57,5.57,0,0,0-1.46-1.45,14.35,14.35,0,0,1-2.4-2.39c-.45-.57-.71-.47-1.08.07-.75,1.1-1.54,2.17-2.32,3.25-.27.37-.47.69.21.83.26.05.52.24.46.56s-.35.41-.61.45c-1.32.19-2.63.35-4,.51-.18,0-.44.06-.5-.19a.48.48,0,0,1,.32-.56c2.59-.68,3.24-3.29,4.91-4.88.55-.53.66-1-.26-1.23s-.87-.54-.1-.93c.5-.26.6-.57.15-1a7.26,7.26,0,0,1-1.15-1.75c-.5-.87-1-1.74-2.22-1.73-.37,0-.87-.25-.86-.68s.52-.56.9-.62c1.09-.15,2.18-.29,3.27-.37.38,0,.91,0,1,.45s-.36.61-.69.75c-.75.3-.62.64-.19,1.16a10,10,0,0,0,2.19,2.3c.2.13.44.42.68.07C216.09,155.9,217.78,154.87,219.19,153.33Z"/><path d="M156.8,160.72a2.47,2.47,0,0,1,0,.3c-.08.41.15,1-.28,1.19s-.71-.39-1-.71a1.09,1.09,0,0,0-1.24-.4c-.19,0-.38.12-.57.18-1.61.53-1.6.53-1.07,2.18.11.35.17.71.25,1.07s0,.52.36.49.35-.26.38-.51-.09-.75.37-.81.63.41.79.76a6,6,0,0,1,.37,2.45.68.68,0,0,1-.56.73c-.38.06-.46-.29-.54-.59s-.08-.6-.47-.48-.21.38-.17.61c.14.75.3,1.5.44,2.25,0,.22.11.35.36.4a2.29,2.29,0,0,0,2.27-1.24c.2-.42.33-1,.95-.82s.46.67.43,1.09c0,.66-.12,1.32-.19,2,0,.45-.34.6-.75.65l-6.14.76c-.41,0-.94.22-1.11-.34s.27-.86.67-1c.82-.2.82-.72.71-1.36a6.2,6.2,0,0,1-.15-1.09,1.11,1.11,0,0,0-.89-1.25c-.69-.17-.66-.5-.24-1,.74-.84.66-3.73-.08-4.53-.28-.31-.66-.28-1-.38s-.44-.17-.47-.44a.59.59,0,0,1,.32-.67,6.51,6.51,0,0,1,1.3-.51c1.63-.33,3.26-.65,4.9-.9S156.91,159,156.8,160.72Z"/><path d="M136.46,167.61c-.57-.16-.58-.58-.65-.91-.21-1-.34-2-.56-2.94-.11-.48,0-.61.5-.66,2.35-.23,4.69-.51,7-1a15.27,15.27,0,0,0,2.44-.87c1.15-.43,1.51-.22,1.72,1,.15.85.39,1.68.53,2.54.05.33.13.83-.32.91s-.5-.37-.61-.68-.2-.64-.34-.94a.8.8,0,0,0-.95-.54c-1,.21-2.08.43-3.12.6-.38.06-.42.25-.39.54.07.66.15,1.32.21,2,0,.43.32.61.7.73.57.18.65.46.21.92a2.06,2.06,0,0,0,.8,2.9,5.66,5.66,0,0,1,1.6.53c.25.18.51.37.45.72a.6.6,0,0,1-.67.49,12.45,12.45,0,0,0-4.52,1.1,3.36,3.36,0,0,1-.78.13.45.45,0,0,1-.5-.25c-.09-.22.07-.38.21-.51s.32-.24.48-.36c.49-.38,1.32-.53,1.4-1.17a6.86,6.86,0,0,0-.14-2.68c0-.1,0-.26-.1-.27-1.27-.29-.73-1-.64-1.85a5.36,5.36,0,0,0-.8-2.32c-.13-.3-.46-.21-.72-.14a5.44,5.44,0,0,1-1.76.32c-.36,0-.42.17-.45.49C136.65,166.12,136.55,166.84,136.46,167.61Z"/><path d="M177.75,163a35.08,35.08,0,0,1-4.12.36c-.56,0-1.07-.08-.93-.8.11-.54.33-.83,1.1-.72a11.64,11.64,0,0,0,2.75-.24c.53-.05,1.06-.08,1.59-.12s1,.11.92.72-.3,1-1,.84Z"/><path d="M43.08,133a2.93,2.93,0,0,0-2.85,1c-1.26-3-2.48-6-3.72-8.91-.52-1.23-1.05-2.45-1.63-3.64a9,9,0,0,0-1-1.59c-1.13-1.44-2.51-2.28-4.43-1.74a4.48,4.48,0,0,0-3.3,4,16.09,16.09,0,0,0,1.32,7.5c.36,1,.73,1.93,1.18,2.86.37.77-.21.82-.64,1s-.86.47-1.16-.29Q24,126.26,21,119.37c-.33-.78.09-.89.61-1.1l20.1-8.36c2-.84,4.06-1.68,6.08-2.55.5-.22.72-.16.95.39q2.86,7,5.8,13.92c.34.8-.22.82-.64,1s-.87.52-1.17-.26a34.41,34.41,0,0,0-2.27-5,13.9,13.9,0,0,0-3-3.83,4.59,4.59,0,0,0-4.25-1.17c-2.41.61-3.51,2.48-3.05,5.15a16.28,16.28,0,0,0,1.08,3.52c1.46,3.5,2.91,7,4.36,10.48-.22.26-.47.13-.69.18-.67.16-1.41.41-1.59,1.06s.63.75,1,1.1a2.17,2.17,0,0,0,.64.47c1.4.56,1.83,1.57,1.89,3.06a36.49,36.49,0,0,0,1.72,8.39,3.28,3.28,0,0,1,.17,1.18c-.43-.78-.86-1.56-1.3-2.33a35.69,35.69,0,0,0-4.87-6.93c-.18-.19-.43-.36-.32-.68.48-1.31.39-2.73.79-4.06a11.82,11.82,0,0,1,0-5.62c.1-.32-.1-.49-.3-.67a21.92,21.92,0,0,1-3.83-4.83c-.5-.8-1-1.61-1.47-2.41a.53.53,0,0,0,0,.43,24.91,24.91,0,0,1,1.32,8.52c0,.24,0,.48.23.6C40.79,129.89,41.89,131.5,43.08,133Z"/></svg>