<svg id="Layer_1" data-name="Layer 1" xmlns="http://www.w3.org/2000/svg" viewBox="0 0 250 250"><defs><style>.cls-1{fill:#ec1c24;}.cls-2{fill:#231f20;}</style></defs><title>Coke_Dine</title><path class="cls-1" d="M147.83,127.27q0,8.92,0,17.85c0,.47-.08.64-.61.64q-7.36,0-14.73,0c-.44,0-.57-.09-.59-.56-.2-6.06-.05-12.11-.06-18.17,0-1.82.05-3.65.07-5.47a20.55,20.55,0,0,0-.2-3.65c-.05-.31-.06-.74-.47-.77s-.52.42-.59.74a18.12,18.12,0,0,0-.23,4.19c0,.15,0,.29,0,.44q0,5.45,0,10.89c0,3.94,0,7.88,0,11.83,0,.44-.13.53-.55.53q-7.39,0-14.78,0c-.41,0-.56-.08-.56-.53,0-7.81,0-15.62,0-23.43a25.09,25.09,0,0,0-.13-3.87c-.06-.41,0-1-.62-1s-.51.61-.57,1a24.89,24.89,0,0,0-.17,4.26c0,1.44,0,2.88,0,4.32,0,6.22,0,12.45,0,18.67,0,.5-.15.59-.61.58q-7.23,0-14.45,0c-.5,0-.6-.14-.59-.61q.06-3.26,0-6.51,0-9.91,0-19.82,0-4.27,0-8.54a6.24,6.24,0,0,1,2.7-5.44,6.7,6.7,0,0,1,3.3-1,91.34,91.34,0,0,1,12.24-.15,8.67,8.67,0,0,1,6.36,3.29c.31.36.45.42.78,0a11.09,11.09,0,0,1,3.18-2.72,5.54,5.54,0,0,1,2.44-.53,61.54,61.54,0,0,1,8.91-.12,25,25,0,0,1,5.52.65,7.22,7.22,0,0,1,3.1,1.66,5,5,0,0,1,1.68,3.78C147.82,115.52,147.83,121.4,147.83,127.27Z"/><path class="cls-1" d="M59.34,78.73c0,2.91,0,5.74,0,8.56,0,.4.08.54.5.53,1,0,2.08,0,3.12,0q7.75,0,15.49.07c.39,0,.52.07.53.5.1,5.26-.09,10.51,0,15.76,0,.5-.31.35-.54.35H63.18c-1.11,0-2.23,0-3.34,0-.41,0-.51.1-.51.51,0,3.56,0,7.12,0,10.68,0,2-.14,4-.08,6.07a15.13,15.13,0,0,0,.32,2.55,4.56,4.56,0,0,0,2.39,3.22,12,12,0,0,0,4.65,1.31,86,86,0,0,0,10.71.13c.69,0,1.39,0,2.08,0,.45,0,.54.14.54.55,0,4.16,0,8.32,0,12.48,0,1.11,0,2.23,0,3.34,0,.33-.1.44-.43.44-5.31,0-10.62.2-15.93-.1a24.25,24.25,0,0,1-14.19-5,16.46,16.46,0,0,1-6-10.7,26.59,26.59,0,0,1-.28-4.2q0-10.46,0-20.92c0-.48-.1-.64-.61-.63-3.14,0-6.28,0-9.42,0-.44,0-.53-.13-.53-.55q0-7.45,0-14.89c0-.42.09-.56.54-.55,1.93,0,3.87,0,5.8,0a67.33,67.33,0,0,0,9.71-.63,25.29,25.29,0,0,0,3.71-.92,8.1,8.1,0,0,0,3.78-3,37,37,0,0,0,2.84-4.35A1.11,1.11,0,0,1,59.34,78.73Z"/><path class="cls-1" d="M200.56,145.68c-3.07,0-6.13,0-9.2,0-1.26,0-2.51,0-3.77,0-2.23.08-3.44-1.11-3.74-3.54a31.29,31.29,0,0,1-.15-3.71c0-3.48,0-7,0-10.46,0-.42.11-.51.52-.51q7.86.06,15.71.08c.38,0,.45.13.45.47,0,1.18.05,2.37.09,3.55a4.88,4.88,0,0,0,.07.65c0,.23.06.5.36.54a.67.67,0,0,0,.71-.4,3.27,3.27,0,0,0,.31-1.7c0-1.26-.11-2.51-.16-3.77,0-.36-.27-.28-.47-.28-2.08,0-4.16-.05-6.24-.06q-5.42,0-10.84,0c-.4,0-.52-.08-.52-.5,0-5.77,0-11.53,0-17.3a4.81,4.81,0,0,1,1.77-4.06,4.32,4.32,0,0,1,1.72-.8,14.91,14.91,0,0,1,3.29-.43c4.53,0,9.05,0,13.58.05,2.86,0,5.73,0,8.59.13a4.2,4.2,0,0,1,2.92,1.44,6.83,6.83,0,0,1,1.85,4.67c0,3,0,5.91,0,8.87,0,.71,0,1.42,0,2.13,0,.42-.09.55-.53.55-2.1,0-4.2,0-6.3,0-2.65,0-5.29,0-7.93.08-.43,0-.59-.07-.59-.55a11.54,11.54,0,0,0-.28-3c-.13-.46-.25-1.05-.82-1s-.49.65-.52,1.08,0,1,0,1.47c0,.89.1,1.78,0,2.68,0,.5.14.69.69.69,5.2,0,10.4,0,15.6-.06.52,0,.67.11.67.65,0,3,0,6.06-.06,9.09a84.72,84.72,0,0,1-.38,8.74,11.15,11.15,0,0,1-.5,2.4,2.64,2.64,0,0,1-2.68,2l-.66,0H200.56Z"/><path class="cls-1" d="M149.2,124.06c0-2.94,0-5.88,0-8.81,0-2,0-4,.08-6a4.6,4.6,0,0,1,1.64-3.35,7.79,7.79,0,0,1,5.53-2.22c3.32,0,6.64,0,10-.06q7.69-.09,15.37-.21c.44,0,.58.08.58.55q0,6.38.07,12.75c0,.48-.1.61-.6.61-4.47,0-8.94,0-13.41,0a9.53,9.53,0,0,0-2.12.15,2.81,2.81,0,0,0-.52.16.49.49,0,0,0-.36.5c0,.24.19.35.38.42a6.28,6.28,0,0,0,2.32.29q6.82,0,13.63,0c.48,0,.61.11.6.6q0,5.89,0,11.77c0,.47-.13.56-.57.56-4.91,0-9.82,0-14.73,0a3.57,3.57,0,0,0-1,.16c-.25.07-.48.21-.5.51a.63.63,0,0,0,.44.63,5.14,5.14,0,0,0,2.1.28c4.54,0,9.09,0,13.63,0,.54,0,.65.14.65.66,0,3.78,0,7.56,0,11.33,0,.34,0,.54-.45.52-3.17-.14-6.35,0-9.52,0-6.15,0-12.3-.05-18.45-.09a9.12,9.12,0,0,1-2.06-.25,2.33,2.33,0,0,1-1.62-1.34,10.89,10.89,0,0,1-.86-4.09c-.3-4.17-.2-8.35-.19-12.52C149.2,126.35,149.2,125.2,149.2,124.06Z"/><path class="cls-1" d="M96.25,124.7q0,10.26,0,20.52c0,.44-.09.58-.56.58q-7.11,0-14.23,0c-.47,0-.56-.13-.56-.57q0-20.5,0-41c0-.5.13-.63.63-.63q7.09,0,14.18,0c.46,0,.57.11.57.57Q96.24,114.43,96.25,124.7Z"/><path class="cls-1" d="M96.27,95.6a7.8,7.8,0,1,1-7.79-7.78A7.76,7.76,0,0,1,96.27,95.6Z"/><path class="cls-2" d="M61.84,110.06a3.66,3.66,0,0,1,3.74-3.67,3.72,3.72,0,0,1,3.71,3.72,3.79,3.79,0,0,1-3.74,3.72A3.71,3.71,0,0,1,61.84,110.06Z"/><path class="cls-2" d="M69.57,122.14a10,10,0,0,1-6.89-3.08,1.08,1.08,0,1,1,1.52-1.52A7.8,7.8,0,0,0,70,120a8.4,8.4,0,0,0,4.9-2c.24-.19.47-.41.72-.59A1.07,1.07,0,0,1,77,119,11,11,0,0,1,69.57,122.14Z"/><path class="cls-2" d="M74,108.33c.64,0,1.27,0,1.91,0a1.32,1.32,0,0,1,0,2.62q-1.91,0-3.82,0a1.32,1.32,0,0,1,0-2.62C72.72,108.32,73.36,108.33,74,108.33Z"/><path class="cls-2" d="M150.87,148.22c-1.7,0-3.39,0-5.09,0a.62.62,0,0,0-.69.5q-2.45,6.42-4.93,12.84c-.29.75-.59,1.5-.91,2.34l-.18-.46q-2.8-7.34-5.58-14.68a.69.69,0,0,0-.78-.54c-1.66,0-3.32,0-5,0-.46,0-.61.08-.6.58,0,4.29,0,8.58,0,12.86,0,2.85,0,5.69,0,8.54,0,.45.13.54.54.52.89,0,1.79,0,2.68,0,.47,0,.63-.08.63-.6,0-5.8,0-11.61,0-17.41v-.53a.84.84,0,0,1,.22.37q3.23,8.84,6.46,17.68c.13.37.29.52.69.49a16.57,16.57,0,0,1,1.86,0,.54.54,0,0,0,.62-.43q2.4-6.62,4.82-13.22l1.77-4.84.1,0v.6c0,5.77,0,11.53,0,17.3,0,.46.12.58.57.56.93,0,1.86,0,2.79,0,.37,0,.49-.07.49-.47q0-10.78,0-21.57C151.36,148.28,151.23,148.22,150.87,148.22Z"/><path class="cls-2" d="M121.34,159.67a5.75,5.75,0,0,0,2.33-4.77,5.64,5.64,0,0,0-2.65-5.41,8.76,8.76,0,0,0-4.43-1.23c-2.92-.07-5.84,0-8.76,0-.28,0-.38.07-.38.37,0,.71,0,1.42,0,2.13q0,9.71,0,19.43c0,.45.1.59.56.57.95,0,1.9,0,2.84,0,.48,0,.64-.09.63-.61,0-2.81,0-5.62,0-8.43,0-.41.11-.54.52-.51a15.31,15.31,0,0,0,1.86,0,.74.74,0,0,1,.79.48c1.55,2.87,3.13,5.71,4.67,8.58a.79.79,0,0,0,.84.49c1.19,0,2.37,0,3.56,0h.74l-6-9.94A6.52,6.52,0,0,0,121.34,159.67Zm-6.66-2c-.87,0-1.75,0-2.62,0-.44,0-.61-.09-.58-.56,0-.82,0-1.64,0-2.46s0-1.79,0-2.68c0-.18,0-.38.25-.37a31.41,31.41,0,0,1,5.28.2,2.79,2.79,0,0,1,2.3,3.78,2.59,2.59,0,0,1-1.94,1.81A9.38,9.38,0,0,1,114.69,157.72Z"/><path class="cls-2" d="M80.21,159.5c0-3.58,0-7.15,0-10.73,0-.41-.07-.57-.53-.55-1,0-2,0-3,0-.43,0-.5.13-.5.52,0,2.61,0,5.22,0,7.83,0,.53-.17.62-.64.62q-4.65,0-9.31,0c-.44,0-.58-.08-.57-.55,0-2.63,0-5.25,0-7.88,0-.44-.13-.54-.54-.53-1,0-2,0-3.07,0-.31,0-.45,0-.45.41q0,10.84,0,21.68c0,.36.13.42.44.41,1,0,2,0,3,0,.46,0,.61-.07.6-.58,0-2.92,0-5.84,0-8.76,0-.43.06-.58.55-.58q4.71,0,9.41,0c.47,0,.56.14.56.58,0,2.94,0,5.88,0,8.81,0,.39.06.54.5.52,1,0,2,0,3,0,.46,0,.53-.14.53-.55C80.2,166.61,80.21,163.06,80.21,159.5Z"/><path class="cls-2" d="M167.08,148.76a.74.74,0,0,0-.84-.54,19.26,19.26,0,0,1-2.3,0,.77.77,0,0,0-.87.58q-4.08,9.44-8.2,18.87c-.43,1-.86,2-1.31,3.05,1.41,0,2.74,0,4.06,0a.56.56,0,0,0,.62-.44c.54-1.43,1.12-2.84,1.66-4.27a.6.6,0,0,1,.67-.45q4.38,0,8.76,0a.6.6,0,0,1,.66.47c.57,1.44,1.16,2.87,1.75,4.3.08.2.12.4.43.4,1.42,0,2.84,0,4.34,0l-1.42-3.31Q171.08,158.08,167.08,148.76Zm1,13.39c-2.06,0-4.12,0-6.18,0-.22,0-.41,0-.28-.31,1.13-2.9,2.24-5.8,3.39-8.79l3.31,8.73C168.37,162,168.4,162.15,168,162.14Z"/><path class="cls-2" d="M95.8,148.6a.51.51,0,0,0-.56-.38c-.86,0-1.72,0-2.57,0a.68.68,0,0,0-.76.49q-4,9.14-7.93,18.27l-1.63,3.74c1.46,0,2.84,0,4.23,0,.3,0,.35-.18.43-.39.57-1.46,1.16-2.91,1.72-4.37a.54.54,0,0,1,.59-.41q4.44,0,8.87,0a.54.54,0,0,1,.59.41c.58,1.46,1.17,2.9,1.76,4.35.07.17.08.4.37.4h4.29c.08-.21,0-.33-.09-.46Q100.45,159.43,95.8,148.6Zm.91,13.55c-2,0-4,0-6,0-.32,0-.42,0-.28-.39,1.1-2.81,2.17-5.63,3.26-8.45a1.25,1.25,0,0,1,.13-.19c1.09,2.88,2.15,5.72,3.24,8.55C97.18,162,97.14,162.15,96.7,162.14Z"/><path class="cls-2" d="M56,149.26a9,9,0,0,0-4-1c-2.81-.06-5.62,0-8.43,0-.46,0-.38.26-.38.52q0,5.34,0,10.67c0,3.58,0,7.15,0,10.73,0,.44.08.6.55.58,1,0,2,0,3,0,.41,0,.55-.07.55-.52,0-2.74,0-5.47,0-8.21,0-.48.11-.6.59-.6a28.09,28.09,0,0,0,6.21-.33c2.3-.5,4.1-1.62,4.77-4a8.29,8.29,0,0,0,.12-4A5.34,5.34,0,0,0,56,149.26Zm-1.22,6.27a2.66,2.66,0,0,1-2.1,2.12,12.83,12.83,0,0,1-3,.32c-.81,0-1.47,0-2.13,0-.25,0-.35-.06-.35-.33,0-1.9,0-3.79,0-5.69,0-.19,0-.31.26-.3a25.91,25.91,0,0,1,4.8.21A2.89,2.89,0,0,1,54.75,155.53Z"/><path class="cls-2" d="M196.26,167c-.86-.58-1.71-1.18-2.54-1.81-.33-.25-.5-.25-.77.08-3.15,3.82-8.12,2.43-10.22.06a8.81,8.81,0,0,1-1.91-8.28c1.4-6,8.76-7.53,11.91-3.75.17.21.3.17.49,0,.8-.6,1.59-1.23,2.43-1.77.47-.31.35-.49,0-.8a9.79,9.79,0,0,0-7.55-3.11,14.21,14.21,0,0,0-2.18.17,10.87,10.87,0,0,0-7.88,5.05,12.67,12.67,0,0,0-1.65,8.58,10.74,10.74,0,0,0,4.33,7.56,12.26,12.26,0,0,0,8.1,2.26,9.74,9.74,0,0,0,7.47-3.64C196.58,167.33,196.55,167.2,196.26,167Z"/><path class="cls-2" d="M212.72,148.22c-.29,0-.36.2-.47.38l-5,8c-.1.16-.21.31-.33.5-1.57-2.53-3.18-5-4.61-7.54a2.27,2.27,0,0,0-2.52-1.38,33.44,33.44,0,0,1-3.4,0l.39.62q3.88,5.92,7.77,11.83a1.47,1.47,0,0,1,.26.86c0,2.9,0,5.8,0,8.7,0,.39.1.49.49.48,1,0,2,0,3.06,0,.42,0,.51-.11.5-.51,0-2.88,0-5.77,0-8.65a1.29,1.29,0,0,1,.2-.77q3.08-4.65,6.12-9.31l2.13-3.26C215.7,148.23,214.21,148.24,212.72,148.22Z"/></svg>