<svg xmlns="http://www.w3.org/2000/svg" viewBox="0 0 250 250"><defs><style>.a{fill:#78a12f;}.b{fill:#f27421;}.c{fill:#fefefe;}</style></defs><title>Fast Food</title><path class="a" d="M124.65,173.19H13.87c-.73,0-.73,0-.73-.72q0-11.61,0-23.21c0-.42.09-.54.53-.54q111,0,221.91,0c.44,0,.57.09.56.55q0,11.67,0,23.34c0,.64.08.57-.56.57Z"/><path class="b" d="M98.19,107.69c0,2.28,0,4.91-.12,7.54-.16,4-.38,8.09-.87,12.11a40.27,40.27,0,0,1-1.36,6.81,12.36,12.36,0,0,1-3.92,6A15.69,15.69,0,0,1,84.38,144a22.23,22.23,0,0,1-5,.19c-1.59-.1-3.19-.12-4.78-.31a21.13,21.13,0,0,1-9.1-3,16,16,0,0,1-6.59-9,32.32,32.32,0,0,1-1.33-7.8c-.3-4.58-.23-9.16-.28-13.74-.05-4.74.23-9.45.62-14.17a57.93,57.93,0,0,1,.72-6.56,13.53,13.53,0,0,1,3.53-7.12,11.47,11.47,0,0,1,5.59-2.89A41.64,41.64,0,0,1,76,78.46a34.7,34.7,0,0,1,10.59,1,17.63,17.63,0,0,1,6.24,3A11.42,11.42,0,0,1,97.31,90a60.6,60.6,0,0,1,.63,6.53C98.13,100.13,98.21,103.73,98.19,107.69Z"/><path class="b" d="M187.33,107.56c0,2.56,0,5.35-.14,8.14-.19,4.13-.41,8.26-1,12.37a32.71,32.71,0,0,1-1.44,6.61,13.74,13.74,0,0,1-8.11,8.34,20.23,20.23,0,0,1-3.59,1.11,12.56,12.56,0,0,1-2.65,0c-2,0-3.9,0-5.85-.17a22.53,22.53,0,0,1-9-2.48,15.69,15.69,0,0,1-7.43-9.12,29.86,29.86,0,0,1-1.43-7.51c-.18-2.43-.26-4.87-.28-7.31,0-3.81-.12-7.63,0-11.44.09-3.57.32-7.14.65-10.7a54.69,54.69,0,0,1,.65-5.72,13.51,13.51,0,0,1,3.63-7.26,11.14,11.14,0,0,1,5.15-2.72,40.94,40.94,0,0,1,8.62-1.27,34.74,34.74,0,0,1,10.63,1,17.91,17.91,0,0,1,5.85,2.67,11.45,11.45,0,0,1,4.82,7.76,55.67,55.67,0,0,1,.61,5.9C187.26,99.64,187.34,103.48,187.33,107.56Z"/><path class="b" d="M129.71,96.11a10.3,10.3,0,0,0-.27-2.87,3.22,3.22,0,0,0-3.13-2.6,14.6,14.6,0,0,0-3.58,0,5.89,5.89,0,0,0-4.91,5,46.64,46.64,0,0,0-.44,4.77c-.19,3-.25,6.06-.22,9.09a81.13,81.13,0,0,0,1.28,14.6,10.94,10.94,0,0,0,.66,2.43,5.66,5.66,0,0,0,4.41,3.26,13.67,13.67,0,0,0,5.76-.27c.29-.07.32-.27.36-.49.27-1.49.39-3,.52-4.49.16-1.78.28-3.56.44-5.34,0-.33,0-.45-.4-.46-1.73-.05-3.46,0-5.19-.05-.39,0-.55-.08-.56-.54,0-1.49-.1-3-.13-4.47a34.49,34.49,0,0,0-.52-4.89c-.07-.4,0-.54.44-.56,2.58-.17,5.16-.33,7.75-.24,3.13.11,6.26.22,9.4.21.26,0,.32.09.32.33q0,3.88-.16,7.76c-.06,1.7-.08,3.4-.14,5.1-.16,4.07-.34,8.15-.7,12.21a41.17,41.17,0,0,1-.86,6.14c0,.1-.06.2-.08.3a1.55,1.55,0,0,1-1.19,1.26,33.5,33.5,0,0,1-6.67,1.36,45.11,45.11,0,0,1-6.29.24A39,39,0,0,1,112,140.35a16.21,16.21,0,0,1-3.55-2,8.38,8.38,0,0,1-3.37-5.13,89.34,89.34,0,0,1-1.61-10.64c-.3-3.31-.46-6.63-.55-10-.11-4.1-.06-8.19,0-12.29,0-2.14.05-4.29.13-6.43a13.69,13.69,0,0,1,3.52-8.7,21,21,0,0,1,10-6.16,26.27,26.27,0,0,1,15.33-.31,15.72,15.72,0,0,1,7.3,4.5,9.35,9.35,0,0,1,2.71,6.81c0,1.55.06,3.1.13,4.65,0,.37-.1.44-.44.45-3.41.16-6.82.32-10.21.71Z"/><path class="b" d="M213.36,142.19c-2.45,0-4.91,0-7.36,0-.33,0-.44-.07-.4-.42.21-2.24.39-4.47.58-6.71s.39-4.5.59-6.76c0-.35,0-.81.16-1s.63,0,1,.11a25.36,25.36,0,0,0,5.52.13,24.81,24.81,0,0,0,3.31-.21,5.84,5.84,0,0,0,3.49-1.76,3.88,3.88,0,0,0,1-3.44,10.61,10.61,0,0,0-1.33-3.73,45.79,45.79,0,0,0-5.49-7.72,30.58,30.58,0,0,1-3.87-5.18A17.55,17.55,0,0,1,208,98.65c-.41-3.61-.48-7.23.87-10.67a16,16,0,0,1,11.16-9.91A40.74,40.74,0,0,1,228,76.8c2.85-.23,5.7-.28,8.55-.27.37,0,.51,0,.48.47-.24,3.58-.46,7.16-.69,10.75-.06,1-.14,1.92-.17,2.88,0,.36-.17.43-.47.46-1.15.11-2.3.19-3.44.36a15,15,0,0,0-4.87,1.7A2.33,2.33,0,0,0,226.28,95a8.57,8.57,0,0,0,.58,4.26,25.51,25.51,0,0,0,2.95,5.49c.72,1.1,1.47,2.18,2.23,3.25a39.5,39.5,0,0,1,5.62,11.69c1.79,6.1.46,11.54-3.38,16.53a14.85,14.85,0,0,1-10.1,5.68,63,63,0,0,1-9.25.36h-1.55Z"/><path class="b" d="M26.13,138.46c0-3.86-.21-7.71-.36-11.56q-.2-4.92-.3-9.84c-.07-3.31-.12-6.62-.18-9.93-.07-3.81-.17-7.62-.26-11.44,0-.68-.06-1.36-.07-2,0-.25-.06-.37-.35-.35-2.53.18-5.05-.06-7.58-.12-1.18,0-2.36,0-3.55-.05-.27,0-.35-.08-.35-.35,0-3.19-.35-6.37-.55-9.56-.08-1.21,0-2.42,0-3.64,0-.26.11-.31.35-.32L18,79.09c3.43-.11,6.85-.23,10.28-.27,1.43,0,2.87-.06,4.3-.09,5.2-.1,10.41-.07,15.62-.1,1.27,0,2.54,0,3.81,0,.23,0,.37,0,.4.32.2,3,.57,6,.68,9,.06,1.64.07,3.28.11,4.92,0,.3-.06.41-.39.41-1.21,0-2.43,0-3.64,0-2.6,0-5.2.06-7.8.17-.35,0-.47.08-.46.47.09,2.68-.18,5.35-.21,8-.05,4.66,0,9.32,0,14,0,2.5,0,5,.05,7.5q0,8.05,0,16.11c0,.81,0,1.63,0,2.44,0,.31-.12.37-.39.37l-7.81-.09-6.12-.07c-.21,0-.38,0-.36-.29C26.16,140.71,26.12,139.58,26.13,138.46Z"/><path class="b" d="M190.25,80.12c0-.61,0-1.21,0-1.82,0-.42.09-.55.53-.53,2,.06,4,.07,5.94.1l8,.12c1.07,0,1.08,0,1,1a54,54,0,0,1-.93,7.51c-.8,4.46-1.58,8.93-2.07,13.43-.06.53-.12,1.06-.16,1.59,0,.27-.13.34-.39.35l-5.89.11c-1.23,0-2.45.05-3.68.09-.27,0-.38-.06-.4-.35-.34-4.63-.92-9.23-1.46-13.83A61.18,61.18,0,0,1,190.25,80.12Z"/><path class="c" d="M162.31,152.49c.4,0,.8,0,1.2,0s.72.09.83.64c.15.8.26,1.6.38,2.41.21,1.43.65,2.82.89,4.25.19,1.11.39,2.21.67,3.3,0,.09,0,.17.07.26s.06.25.21.25.19-.13.22-.24c.15-.56.28-1.12.42-1.67.53-2.08.93-4.2,1.5-6.28.18-.66.22-1.37.43-2s.42-.86,1.18-.84,1.39,0,2.08.08.81.27.68.92c-.51,2.62-1.31,5.18-1.84,7.8-.23,1.14-.71,2.23-.91,3.37-.24,1.34-.62,2.64-.92,4a1.08,1.08,0,0,1-1.26,1c-1.11-.09-2.22,0-3.32-.06-.69,0-1-.21-1.18-.9-.21-.85-.44-1.68-.73-2.5,0-.13,0-.34-.21-.35s-.22.2-.28.35a17.68,17.68,0,0,0-.64,2.48c-.21.89-.42,1-1.32,1l-2.53-.06c-.84,0-1.17-.25-1.38-1.07a8.22,8.22,0,0,1-.25-1.35,15.8,15.8,0,0,0-.47-2.34q-1.33-5.64-2.64-11.29c-.16-.69.1-1,.82-1a18.93,18.93,0,0,1,2-.07,1.28,1.28,0,0,1,1.38,1.17,6.43,6.43,0,0,1,.13,1c.09,1.7.83,3.25,1.14,4.9.25,1.32.69,2.6.9,3.93a1.2,1.2,0,0,0,.07.26c0,.11.09.23.24.22s.16-.11.19-.21a6.31,6.31,0,0,0,.28-.93,5.08,5.08,0,0,1,.41-1.63,5.25,5.25,0,0,0,.34-3.66c-.29-1.33-.5-2.67-.74-4-.14-.8,0-.94.81-.94h1.15Z"/><path class="c" d="M131.39,156.45c0-.72,0-2.05,0-3.38,0-.57.1-.61.65-.59.84,0,1.68,0,2.53,0a.88.88,0,0,1,1,1.05c-.15,3.22-.09,6.45-.21,9.66-.07,1.84.11,3.66.14,5.49,0,.79-.21,1-1,.92s-1.3,0-1.95-.06a1.13,1.13,0,0,1-.94-.56c-1.47-2.25-2.83-4.57-4.37-6.78a6.54,6.54,0,0,1-.48-.95,4,4,0,0,0-.47-.8c-.1-.13-.23-.25-.41-.2a.4.4,0,0,0-.27.37,5.81,5.81,0,0,0-.08.66c0,1.08,0,2.16,0,3.23s0,2.45.15,3.67c0,.21,0,.41,0,.62a.57.57,0,0,1-.57.69c-1,.1-2.07,0-3.1,0-.34,0-.51-.29-.5-.62.12-2.56,0-5.12.05-7.67.05-2.22-.13-4.43-.11-6.64,0-.52-.05-1-.07-1.55a.55.55,0,0,1,.6-.65c1,0,2,0,3,0a1.13,1.13,0,0,1,1,.57c1.22,1.92,2.48,3.82,3.71,5.73.47.72.76,1.53,1.17,2.29.1.18.16.51.41.45s.11-.36.11-.54C131.4,159.63,131.39,158.34,131.39,156.45Z"/><path class="c" d="M142.19,169.56c-.87,0-1.75,0-2.62,0-1.06,0-1.37-.29-1.34-1.35,0-1.82-.09-3.64.07-5.45a8.18,8.18,0,0,0,0-1.55,2.69,2.69,0,0,1,0-.53c.18-1.81,0-3.63.08-5.44,0-.59-.11-1.17,0-1.77s.29-.86.9-1l.13,0c2.31.1,4.64-.24,6.94.22a7.81,7.81,0,0,1,5.35,3.83,8.22,8.22,0,0,1,1.15,4,9.81,9.81,0,0,1-.51,4.1,7.4,7.4,0,0,1-6.07,4.83A24.4,24.4,0,0,1,142.19,169.56Z"/><path class="c" d="M206.58,157.9c0,2.69,0,5.38,0,8.07,0,.86.07,1.71.1,2.57a1.71,1.71,0,0,1-.09.7.47.47,0,0,1-.5.36c-.77-.06-1.54,0-2.31,0-1,0-1.23-.32-1.22-1.27,0-1.42,0-2.84,0-4.26,0-1-.31-1.28-1.29-1.35s-2.07,0-3.1,0a1.51,1.51,0,0,0-1.65,1.65c0,1.48,0,3-.06,4.43,0,.54-.19.78-.73.8-.85,0-1.71,0-2.57,0a.63.63,0,0,1-.65-.6,5.79,5.79,0,0,1,0-1.1c0-1.61,0-3.22,0-4.83,0-2.44,0-4.88,0-7.32,0-.78-.08-1.56,0-2.35s.23-.91,1-.91h2.35c.62,0,.87.26.82.88a24.31,24.31,0,0,0,0,4.11c.07.72.34,1.11,1,1.14,1.13.06,2.27,0,3.41,0a1.83,1.83,0,0,0,.88-.28,1.29,1.29,0,0,0,.72-1.23c0-1.17,0-2.34-.09-3.5a2,2,0,0,1,0-.57.59.59,0,0,1,.67-.56,17.28,17.28,0,0,0,2.52,0c.72-.07.9.14.9.85q0,2.31,0,4.61Z"/><path class="c" d="M34.37,167.86c.05-1.12.11-2.34.08-3.57-.06-2.14,0-4.29,0-6.43.06-1.52,0-3,0-4.56,0-.76.29-1,1.07-1,1.33,0,2.66.08,4,.05a11.16,11.16,0,0,1,3.21.29c3,.83,4.15,3.28,3.88,6A6.09,6.09,0,0,1,45,162.42c-.27.27-.51.57-.76.87a.7.7,0,0,0,.1,1.12,5,5,0,0,0,1.61.91c.66.22.72.33.71,1s0,1.54-.08,2.3c-.09.93-.31,1.08-1.3,1.06a2.88,2.88,0,0,1-1.72-.82,9.57,9.57,0,0,1-1.43-1.32,10.55,10.55,0,0,0-2-1.56,1,1,0,0,0-1.18,0c-.38.23-.38.61-.36,1a11.32,11.32,0,0,0,.1,1.93c.1.49-.18.77-.68.75-.92,0-1.83,0-2.74,0-.61,0-.82-.22-.82-.83C34.37,168.53,34.37,168.25,34.37,167.86Z"/><path class="c" d="M73.71,169.66c-.4,0-.8,0-1.19-.07a.79.79,0,0,1-.73-.61c-.15-.49-.35-1-.49-1.47a.73.73,0,0,0-.73-.6,15.26,15.26,0,0,0-3.18.07,1.41,1.41,0,0,0-1.33,1.32c-.24,1.27-.24,1.27-1.52,1.27-.59,0-1.18,0-1.77,0s-1-.42-.88-1.12c.22-1.31.42-2.63.73-3.91.45-1.89.81-3.8,1.3-5.69A48.8,48.8,0,0,0,65,154c.19-1.22.6-1.54,1.85-1.57s2.63,0,3.94,0a1.46,1.46,0,0,1,1.64,1.25,72.65,72.65,0,0,1,1.84,7.78c.13.91.44,1.8.63,2.71.28,1.34.62,2.67.91,4,.2.91-.12,1.35-1,1.44-.35,0-.71,0-1.06,0Z"/><path class="c" d="M112.69,152.41c.66,0,1.33,0,2,0a1.46,1.46,0,0,1,1.61,1.23c.3,1.06.56,2.14.85,3.21.35,1.28.63,2.58.9,3.88.5,2.44,1.06,4.86,1.61,7.29a2.75,2.75,0,0,1,0,.88.68.68,0,0,1-.62.65,11.15,11.15,0,0,1-2.65,0,.81.81,0,0,1-.76-.64c-.14-.48-.34-.94-.47-1.43a.75.75,0,0,0-.76-.62,15.2,15.2,0,0,0-3.18.08,1.38,1.38,0,0,0-1.3,1.25c-.3,1.33-.3,1.33-1.65,1.33-.53,0-1.07,0-1.6,0-.82,0-1.07-.43-.92-1.23.22-1.16.38-2.33.62-3.48.41-1.92.86-3.83,1.31-5.73.39-1.66.88-3.31,1.12-5a3.69,3.69,0,0,1,.08-.39,1.41,1.41,0,0,1,1.55-1.28c.74,0,1.48,0,2.22,0Z"/><path class="c" d="M26.84,152.4a17.66,17.66,0,0,1,3,.19,1.45,1.45,0,0,1,1.4,1.71c0,.53,0,1.06,0,1.6s-.23.75-.78.73a10.39,10.39,0,0,1-1.56-.32,9.13,9.13,0,0,0-4.34-.06,3.93,3.93,0,0,0-2.93,3.54,5.23,5.23,0,0,0,5.55,5.78,1.05,1.05,0,0,0,1.13-1,4,4,0,0,0-.09-1.54.82.82,0,0,0-.95-.74c-.89,0-1,.12-1-1,0-.52,0-1,0-1.55,0-.71.36-1.06,1.05-1a18.09,18.09,0,0,0,3.53,0c.51-.07.86.31.91.93a9.23,9.23,0,0,1,0,1.15c-.08,2,0,4.08,0,6.12,0,.59-.07,1.18-.13,1.77a.84.84,0,0,1-.8.82c-2.71.24-5.41.34-8-.87a13.74,13.74,0,0,1-3-2.06,3.52,3.52,0,0,1-.76-1,11.58,11.58,0,0,1-1.57-6.19,7.34,7.34,0,0,1,6.65-6.91C25.15,152.44,26,152.41,26.84,152.4Z"/><path class="c" d="M48.66,161.83c.06-1.95-.08-3.9.07-5.85a16.94,16.94,0,0,0-.07-2,2.2,2.2,0,0,1,.15-.91.89.89,0,0,1,.91-.64c2.88.08,5.76.08,8.65.06a.62.62,0,0,1,.68.61,8.41,8.41,0,0,1-.3,2.63c-.05.27-.33.32-.58.32l-2.62,0c-.58,0-1.15-.06-1.73,0-.79,0-1.12.43-1,1.21,0,.29.05.59.06.88a.71.71,0,0,0,.62.74,11,11,0,0,0,2.25.07c.84,0,1.68,0,2.52,0,.63,0,.87.25.89.86a11.84,11.84,0,0,1,0,2.17.79.79,0,0,1-.75.73,19.25,19.25,0,0,1-2.7,0c-.65,0-1.3-.08-1.95-.1s-.72.13-.8.62a7.78,7.78,0,0,0,0,2.08.66.66,0,0,0,.68.59,34,34,0,0,0,4.16,0,7,7,0,0,1,1.28,0,.74.74,0,0,1,.69.7,9.23,9.23,0,0,1,0,2.25c-.08.59-.26.71-.87.71l-8.33,0h-.71a.86.86,0,0,1-1-.94C48.64,166.35,48.66,164.09,48.66,161.83Z"/><path class="c" d="M216.58,158.87c.67.11,1.38,0,2.09,0s.88.24.89.9,0,1.24,0,1.86-.25,1-1,1c-1.08,0-2.15-.06-3.23-.1l-1.24-.07a.64.64,0,0,0-.72.58,7.46,7.46,0,0,0-.06,2,.71.71,0,0,0,.73.69,33.79,33.79,0,0,0,4.16,0,5.42,5.42,0,0,1,1.28.05.73.73,0,0,1,.64.64A8,8,0,0,1,220,169a.61.61,0,0,1-.69.55c-.8,0-1.6-.1-2.39-.05-1.45.08-2.9,0-4.34,0-.83,0-1.66,0-2.48,0a.83.83,0,0,1-.94-.93c0-1.67-.16-3.34-.05-5,.07-1.09-.09-2.18-.06-3.28.05-1.68.06-3.36.08-5a9.66,9.66,0,0,1,0-1.81c.15-.78.44-1.06,1.22-1,2.79.09,5.59.06,8.38.06.48,0,.66.15.74.64a7.33,7.33,0,0,1-.31,2.62c-.06.31-.41.3-.67.31-1.14,0-2.27,0-3.41-.09a3.83,3.83,0,0,0-1.19.06.78.78,0,0,0-.67.82c0,.47,0,.94.09,1.41s.31.48.61.55a10.89,10.89,0,0,0,2.21.07Z"/><path class="c" d="M222.08,167.33c0-.4,0-.8,0-1.2a.61.61,0,0,1,.5-.68,3,3,0,0,1,1.4.05,5.21,5.21,0,0,0,1.75.16,1.47,1.47,0,0,0,1.32-1,1.41,1.41,0,0,0-.48-1.59c-.89-.8-1.79-1.59-2.71-2.36a5.17,5.17,0,0,1-1.81-5.29,3.4,3.4,0,0,1,2.57-2.67,11.65,11.65,0,0,1,5.18-.27,1,1,0,0,1,1,1.28,12.44,12.44,0,0,0,0,1.64c0,.55-.19.77-.74.74s-1.39-.08-2.08-.15a2.16,2.16,0,0,0-.79.07,1.09,1.09,0,0,0-.5,1.88,11.28,11.28,0,0,0,1.78,1.53,8.75,8.75,0,0,1,1.91,1.78,5.28,5.28,0,0,1,.6,5.35,4.7,4.7,0,0,1-4.15,3,12,12,0,0,1-3.66-.09c-.88-.17-1.1-.52-1-1.27a7.68,7.68,0,0,0,0-.89Z"/><path class="c" d="M94.91,167.29c0-.38,0-.77,0-1.15a.61.61,0,0,1,.49-.68,2.86,2.86,0,0,1,1.44.05,5,5,0,0,0,1.8.15,1.45,1.45,0,0,0,1.25-.93,1.34,1.34,0,0,0-.4-1.53c-1-.93-2.06-1.81-3.09-2.73a5.12,5.12,0,0,1-1.12-6,3.57,3.57,0,0,1,2.36-1.73,11.84,11.84,0,0,1,4.92-.22c.83.13,1.09.46,1.05,1.3a14.17,14.17,0,0,0,0,1.64c0,.53-.21.76-.75.74-.69,0-1.39-.08-2.08-.15a2.14,2.14,0,0,0-.79.07,1.06,1.06,0,0,0-.63,1.7,5.74,5.74,0,0,0,1.28,1.21,19.79,19.79,0,0,1,2.14,1.79,5.28,5.28,0,0,1,1.15,5.41,4.59,4.59,0,0,1-3.78,3.29,11,11,0,0,1-4.23,0c-.81-.15-1-.43-1-1.25,0-.31,0-.62,0-.93Z"/><path class="c" d="M190.43,167.56c0,.43,0,.86,0,1.29a.77.77,0,0,1-.81.81,9.74,9.74,0,0,1-3.54-.43,4.5,4.5,0,0,1-1.62-.89,10.94,10.94,0,0,1-2.38-2.29,10,10,0,0,1-1.29-6.22,8.26,8.26,0,0,1,1.1-3.93,7.37,7.37,0,0,1,5.47-3.46,8,8,0,0,1,2.39,0,.75.75,0,0,1,.72.71,19.56,19.56,0,0,1,0,2.56c0,.51-.23.62-.74.55a4,4,0,0,0-4.92,4,5.68,5.68,0,0,0,1.78,4.74,3.11,3.11,0,0,0,2.95.8c.72-.17.92,0,.93.74,0,.34,0,.68,0,1Z"/><path class="c" d="M78.13,166a21.2,21.2,0,0,1,.06-2.94,10.15,10.15,0,0,0,0-1.82,7,7,0,0,1,0-1.33c.07-.78-.06-1.56,0-2.34a1.13,1.13,0,0,0-1.29-1.22l-1,0c-.5,0-.67-.14-.72-.63a7.91,7.91,0,0,1,0-1c0-.47,0-.95.06-1.42.07-.64.36-.88,1-.87,1.14,0,2.27.06,3.41.07,1.48,0,3,0,4.44,0,.94,0,1.13.2,1.13,1.15,0,.68,0,1.36,0,2s-.2.75-.79.73H84.2c-1.33-.13-1.85.47-1.87,1.71,0,2.11-.14,4.22-.11,6.34,0,1.4,0,2.81.07,4.21,0,.53-.15.71-.67.81a15.69,15.69,0,0,1-3,0c-.34,0-.49-.29-.54-.6a8.52,8.52,0,0,1,0-1.28C78.13,167.11,78.13,166.56,78.13,166Z"/><path class="c" d="M177,169.57h-1.33c-.61,0-.86-.24-.85-.87,0-.92.09-1.83.08-2.75,0-2.35,0-4.7-.07-7.05a20.62,20.62,0,0,1,0-2.62,12.26,12.26,0,0,0-.1-2.39,1.17,1.17,0,0,1,1.28-1.46c.61,0,1.21,0,1.82,0,.85,0,1.16.27,1.19,1.13,0,.6,0,1.21,0,1.82-.08,1.43,0,2.86,0,4.29,0,2.07.06,4.14,0,6.21a30.05,30.05,0,0,1,0,3.1c-.07.54-.15.62-.71.62H177Z"/><path class="c" d="M83,108.94c0,4.64-.2,8.92-.38,13.21a12.16,12.16,0,0,1-1.09,5A4.11,4.11,0,0,1,77,129.68a4.46,4.46,0,0,1-4-4,88.7,88.7,0,0,1-.91-10.28c-.08-3.28.06-6.56.22-9.84q.2-4.34.45-8.68a3.8,3.8,0,0,1,.84-2.07,6,6,0,0,1,4-2.41,4,4,0,0,1,4.77,3.21,23.29,23.29,0,0,1,.33,3.61C82.85,102.61,83,105.95,83,108.94Z"/><path class="c" d="M172.12,109.25c0,4.16-.21,8.45-.4,12.75a13.71,13.71,0,0,1-1.09,5.12,5,5,0,0,1-1.43,1.95,2.45,2.45,0,0,1-1.68.58,13.12,13.12,0,0,1-1.85,0,4.47,4.47,0,0,1-3.56-3.88,86.41,86.41,0,0,1-.93-11.56c0-3.34.13-6.67.3-10,.12-2.39.22-4.78.38-7.17a4.55,4.55,0,0,1,2.08-3.4,5.67,5.67,0,0,1,2.73-1.21c2-.2,4.15.54,4.77,3.18a20.56,20.56,0,0,1,.32,3.3C172,102.31,172.1,105.71,172.12,109.25Z"/><path class="a" d="M142.21,161.08c.13-.95.08-2,.18-3.07s.41-1.22,1.33-1.35a4.48,4.48,0,0,1,5,3.38,6,6,0,0,1-.51,3.84,3.39,3.39,0,0,1-2.88,1.86,5.34,5.34,0,0,1-2.07-.15,1.08,1.08,0,0,1-1-1.19C142.3,163.31,142.31,162.25,142.21,161.08Z"/><path class="a" d="M38.45,159.91c.1-.82.05-1.71.09-2.59,0-.7.3-1,1-1a4.92,4.92,0,0,1,1.67.15,1.78,1.78,0,0,1,1.46,1.86A4,4,0,0,1,40,161.93a2.39,2.39,0,0,1-.61.08c-.55,0-.75-.17-.81-.72S38.49,160.42,38.45,159.91Z"/><path class="a" d="M68.83,163c-.18,0-.36,0-.53,0a1,1,0,0,1-.95-1.19,35.2,35.2,0,0,1,.74-3.73c.11-.39.25-.89.74-.88s.5.52.61.87a16.64,16.64,0,0,1,.87,3.69c.09,1-.14,1.2-1.13,1.24Z"/><path class="a" d="M112.74,163c-.16,0-.33,0-.49,0a1,1,0,0,1-1-1.12,18.51,18.51,0,0,1,.41-2.31A8.46,8.46,0,0,1,112,158a1.9,1.9,0,0,1,.33-.62c.29-.33.6-.3.8.1a6.85,6.85,0,0,1,.47,1.38,18.28,18.28,0,0,1,.63,2.89c.07.89-.13,1.16-1,1.22h-.44Z"/></svg>