<svg id="svg" version="1.1" width="1000" height="454" xmlns="http://www.w3.org/2000/svg" xmlns:xlink="http://www.w3.org/1999/xlink" style="display: block;"><g id="svgg"><path id="path0" d="M106.113 1.598 C 101.312 1.857,100.193 2.043,98.927 2.790 C 97.696 3.516,96.459 3.739,92.014 4.036 C 86.432 4.409,83.399 4.937,82.486 5.695 C 82.198 5.934,79.495 6.263,76.481 6.425 C 72.452 6.642,70.311 6.957,68.400 7.614 C 66.495 8.269,64.303 8.592,60.199 8.825 C 56.004 9.064,53.845 9.388,51.599 10.120 C 49.501 10.803,47.158 11.184,43.800 11.387 C 40.112 11.610,38.704 11.858,37.722 12.458 C 36.696 13.084,35.280 13.305,30.522 13.578 C 24.491 13.923,21.225 14.498,19.811 15.462 C 19.344 15.781,17.928 16.000,16.340 16.000 C 12.560 16.000,7.650 16.742,6.000 17.563 C 5.230 17.946,4.060 18.523,3.400 18.844 C 1.887 19.583,1.671 20.816,1.627 29.000 C 1.584 36.866,1.248 40.400,0.542 40.400 C 0.109 40.400,0.000 41.681,0.000 46.800 C 0.000 52.134,0.097 53.200,0.582 53.200 C 1.377 53.200,1.478 52.338,2.212 39.200 C 3.282 20.062,3.377 19.574,6.151 19.020 C 6.618 18.927,8.710 18.486,10.800 18.041 C 12.890 17.596,16.580 17.025,19.000 16.773 C 21.420 16.522,24.840 15.983,26.600 15.576 C 28.360 15.170,31.767 14.639,34.172 14.398 C 36.577 14.156,38.694 13.865,38.878 13.752 C 39.326 13.475,47.980 12.160,53.200 11.575 C 55.510 11.317,57.710 10.943,58.089 10.744 C 58.468 10.546,61.618 10.030,65.089 9.597 C 68.560 9.164,72.660 8.539,74.200 8.207 C 75.740 7.876,78.710 7.412,80.800 7.178 C 82.890 6.943,86.310 6.405,88.400 5.982 C 90.490 5.559,94.624 4.933,97.586 4.592 C 100.549 4.251,103.879 3.717,104.986 3.405 C 112.237 1.364,114.974 2.169,114.840 6.303 C 114.729 9.722,114.835 9.813,118.777 9.697 C 122.981 9.573,123.600 10.041,123.600 13.347 C 123.600 16.121,124.088 16.910,126.114 17.416 C 128.146 17.923,128.488 19.317,128.347 26.508 C 128.217 33.153,128.626 34.496,130.441 33.375 C 131.025 33.013,141.598 33.980,143.800 34.596 C 144.900 34.904,147.128 35.431,148.751 35.767 C 150.375 36.103,152.445 36.736,153.351 37.174 C 154.258 37.612,155.777 38.243,156.726 38.576 C 157.675 38.910,158.915 39.547,159.480 39.991 C 160.045 40.436,160.693 40.800,160.919 40.800 C 161.558 40.800,168.746 45.150,171.200 47.021 C 172.410 47.944,173.972 48.805,174.672 48.934 C 176.114 49.200,175.964 49.547,176.987 43.588 C 177.310 41.712,177.833 39.642,178.149 38.988 C 178.466 38.335,178.933 36.180,179.187 34.200 C 179.968 28.112,181.139 27.668,198.400 26.919 C 203.858 26.683,222.812 25.554,225.035 25.333 C 228.942 24.946,229.880 26.578,231.021 35.748 L 231.263 37.696 232.664 36.348 C 233.434 35.606,234.715 34.100,235.510 33.000 C 241.890 24.172,241.194 24.585,248.621 25.221 C 256.600 25.905,268.665 26.368,269.867 26.035 C 271.025 25.716,271.351 23.793,270.445 22.627 C 269.846 21.856,268.800 18.284,268.800 17.009 C 268.800 14.605,269.766 14.364,274.514 15.578 C 276.187 16.006,280.285 16.641,283.619 16.989 C 287.001 17.342,290.196 17.888,290.845 18.223 C 291.570 18.598,294.151 18.976,297.703 19.228 C 305.093 19.752,313.433 21.435,314.398 22.597 C 314.924 23.232,313.458 25.264,311.225 26.995 C 310.661 27.432,308.707 29.232,306.882 30.995 C 305.058 32.758,303.135 34.366,302.609 34.568 C 302.083 34.770,301.546 35.361,301.416 35.880 C 301.255 36.522,300.800 36.900,299.996 37.061 C 299.343 37.191,298.925 37.478,299.063 37.702 C 299.406 38.256,305.848 37.824,306.606 37.195 C 307.324 36.599,319.497 37.037,320.296 37.688 C 320.569 37.910,324.439 38.312,328.896 38.582 C 334.592 38.926,337.357 39.254,338.200 39.687 C 338.860 40.026,340.377 40.509,341.570 40.762 C 342.764 41.015,344.294 41.556,344.970 41.965 C 345.647 42.374,346.650 42.845,347.200 43.011 C 348.996 43.552,359.365 48.715,360.778 49.771 C 361.535 50.337,362.345 50.805,362.578 50.811 C 362.949 50.821,365.969 52.647,369.450 54.967 C 370.082 55.388,371.590 56.378,372.800 57.167 C 376.577 59.628,376.511 62.435,372.596 65.800 C 372.340 66.020,371.896 66.650,371.610 67.200 C 371.324 67.750,370.851 68.470,370.560 68.800 C 370.269 69.130,369.122 70.480,368.010 71.800 C 364.764 75.657,364.046 76.487,362.136 78.600 C 361.142 79.700,360.036 81.095,359.678 81.701 C 359.320 82.306,358.696 82.906,358.291 83.035 C 356.676 83.547,356.382 86.241,357.761 87.880 C 358.289 88.508,358.936 89.827,359.199 90.811 C 359.462 91.795,360.097 93.524,360.611 94.653 C 361.126 95.782,361.669 97.359,361.818 98.156 C 361.968 98.954,362.467 100.086,362.928 100.671 C 363.444 101.328,364.026 103.127,364.448 105.368 C 364.823 107.366,365.322 109.720,365.556 110.600 C 366.185 112.968,366.089 120.514,365.381 124.400 C 365.040 126.270,364.591 128.769,364.383 129.953 C 364.175 131.138,363.718 132.668,363.367 133.353 C 363.017 134.039,362.496 135.355,362.211 136.277 C 361.076 139.946,355.664 146.738,352.666 148.256 C 351.970 148.608,351.102 149.157,350.737 149.476 C 350.373 149.795,349.023 150.329,347.737 150.663 C 346.452 150.997,345.127 151.514,344.794 151.812 C 342.321 154.024,322.954 154.017,316.170 151.803 C 314.480 151.251,312.788 150.800,312.409 150.800 C 312.029 150.800,310.873 150.350,309.838 149.800 C 308.804 149.250,307.721 148.800,307.433 148.800 C 306.909 148.800,305.890 148.324,296.400 143.654 C 293.650 142.300,291.244 141.194,291.053 141.196 C 290.862 141.198,290.080 140.651,289.315 139.979 C 287.372 138.273,287.157 138.529,287.013 142.717 C 286.887 146.373,286.589 147.257,285.232 147.983 C 284.316 148.473,268.872 147.774,264.400 147.039 C 259.897 146.299,250.430 145.600,244.914 145.600 C 239.215 145.600,237.708 144.233,238.238 139.543 C 238.580 136.521,238.438 136.414,234.074 136.406 C 230.596 136.400,229.809 136.633,228.309 138.118 C 225.983 140.419,221.000 140.121,220.211 137.634 C 219.898 136.648,216.987 133.546,216.672 133.862 C 216.522 134.011,216.400 134.562,216.400 135.085 C 216.400 135.608,215.987 136.449,215.483 136.954 C 214.978 137.458,214.347 138.600,214.080 139.491 C 213.078 142.835,208.849 143.370,186.710 142.954 C 171.115 142.662,172.023 142.815,170.714 140.252 C 170.216 139.277,170.205 138.770,170.644 136.882 C 170.928 135.660,171.053 134.486,170.922 134.274 C 170.477 133.553,163.709 134.291,162.845 135.155 C 162.425 135.575,161.508 136.045,160.807 136.199 C 160.106 136.353,158.539 137.001,157.325 137.639 C 156.112 138.278,154.569 138.800,153.898 138.800 C 153.227 138.800,151.693 139.266,150.490 139.835 C 146.344 141.796,129.005 142.069,124.151 140.250 C 118.367 138.082,116.982 137.487,116.093 136.787 C 115.543 136.354,114.788 136.000,114.417 136.000 C 114.046 136.000,113.035 135.465,112.171 134.811 C 111.307 134.157,110.410 133.617,110.179 133.611 C 109.302 133.588,100.278 126.528,98.871 124.765 C 98.360 124.124,97.690 123.600,97.381 123.600 C 97.073 123.600,96.541 123.060,96.200 122.400 C 95.859 121.740,95.432 121.200,95.253 121.200 C 95.073 121.200,94.591 120.578,94.182 119.818 C 93.021 117.662,92.400 118.616,92.400 122.557 C 92.400 124.545,92.099 126.905,91.628 128.608 C 91.029 130.774,90.823 133.069,90.709 138.847 C 90.547 147.041,90.247 148.164,88.095 148.619 C 87.493 148.746,85.604 149.291,83.898 149.830 C 82.192 150.370,79.402 150.927,77.698 151.070 C 75.719 151.236,74.239 151.587,73.600 152.042 C 72.598 152.756,68.861 153.600,66.705 153.600 C 66.073 153.600,64.774 153.956,63.819 154.391 C 62.863 154.827,60.308 155.392,58.141 155.648 C 55.974 155.903,53.817 156.364,53.347 156.671 C 52.878 156.979,50.358 157.502,47.747 157.835 C 45.136 158.167,41.757 158.785,40.239 159.206 C 36.022 160.377,35.100 159.575,34.215 153.969 C 33.826 151.502,33.249 151.048,31.200 151.600 C 25.062 153.253,22.994 152.746,23.326 149.670 C 23.437 148.642,23.730 145.370,23.977 142.400 C 24.224 139.430,24.775 134.930,25.201 132.400 C 25.627 129.870,26.257 124.560,26.600 120.600 C 26.944 116.640,27.486 111.960,27.805 110.200 C 28.124 108.440,28.662 103.400,29.000 99.000 C 29.339 94.600,29.784 89.830,29.989 88.400 C 30.673 83.642,30.892 78.904,30.440 78.625 C 30.207 78.481,28.798 78.742,27.308 79.205 C 25.819 79.669,23.070 80.221,21.200 80.432 C 19.330 80.643,17.246 80.917,16.568 81.040 C 14.548 81.406,12.802 79.659,12.795 77.264 C 12.783 73.494,12.189 72.979,8.600 73.628 C 7.500 73.828,5.115 74.213,3.300 74.484 C -1.413 75.189,-1.200 75.999,3.700 76.004 C 9.453 76.011,10.287 76.227,10.077 77.656 C 9.975 78.350,10.149 79.112,10.502 79.516 C 10.830 79.892,11.302 80.830,11.551 81.600 C 11.827 82.457,12.506 83.308,13.301 83.795 C 17.460 86.342,18.279 86.768,19.037 86.783 C 19.870 86.800,23.872 88.056,25.400 88.780 C 25.840 88.988,26.560 89.215,27.000 89.284 C 27.880 89.423,28.476 101.534,27.652 102.546 C 26.802 103.592,26.359 106.643,25.979 114.079 C 25.723 119.102,25.372 122.448,25.012 123.311 C 24.164 125.338,23.200 133.561,23.200 138.757 C 23.200 142.499,23.055 143.648,22.415 144.974 C 21.929 145.980,21.586 147.646,21.515 149.345 C 21.349 153.304,21.944 153.696,28.005 153.630 L 32.513 153.580 32.249 156.149 C 31.970 158.875,33.176 160.800,35.163 160.800 C 35.549 160.800,36.106 161.250,36.400 161.800 C 36.817 162.579,37.252 162.801,38.368 162.805 C 40.464 162.813,41.502 163.181,41.713 163.990 C 41.888 164.658,43.084 165.193,45.693 165.770 C 46.294 165.903,47.417 166.566,48.190 167.245 C 49.441 168.343,49.802 168.456,51.497 168.284 C 58.573 167.563,61.657 167.096,66.225 166.053 C 87.637 161.165,95.238 158.538,97.394 155.281 C 97.962 154.423,98.886 153.475,99.447 153.175 C 100.805 152.448,101.603 150.807,102.015 147.892 C 102.454 144.792,105.249 139.088,106.642 138.454 C 108.461 137.625,109.841 137.935,112.622 139.800 C 114.098 140.790,115.537 141.600,115.819 141.600 C 116.102 141.600,116.572 142.140,116.864 142.800 C 117.156 143.460,117.576 144.028,117.798 144.063 C 118.019 144.097,118.656 144.160,119.213 144.202 C 120.409 144.292,121.787 144.975,123.284 146.220 C 123.881 146.716,125.231 147.439,126.284 147.826 C 127.338 148.213,129.196 148.937,130.413 149.434 C 133.425 150.663,141.727 151.762,145.800 151.471 C 152.113 151.019,156.575 150.327,158.060 149.569 C 158.889 149.146,160.070 148.801,160.684 148.801 C 161.925 148.803,167.004 147.452,169.251 146.523 C 171.378 145.643,176.456 146.162,177.939 147.410 C 179.239 148.504,183.039 150.094,186.029 150.795 C 187.223 151.076,188.380 151.438,188.600 151.600 C 189.793 152.481,192.455 152.851,197.486 152.834 C 209.002 152.796,212.652 152.508,215.607 151.406 C 216.381 151.117,218.053 150.751,219.322 150.592 C 220.750 150.414,222.196 149.920,223.115 149.295 C 224.314 148.481,225.178 148.264,227.600 148.166 C 229.250 148.100,232.301 147.842,234.380 147.594 C 237.914 147.171,238.253 147.195,239.616 147.961 C 240.738 148.592,241.350 148.701,242.271 148.437 C 243.723 148.020,244.800 148.535,244.800 149.646 C 244.800 151.405,245.546 152.079,247.185 151.802 C 248.441 151.590,249.199 151.791,251.479 152.939 C 255.728 155.079,261.432 156.509,266.400 156.680 C 268.710 156.759,273.480 156.931,277.000 157.060 C 283.515 157.300,287.812 156.921,291.000 155.825 C 300.428 152.583,306.372 152.791,311.129 156.530 C 311.656 156.944,314.760 158.305,317.800 159.455 C 318.680 159.788,320.480 160.301,321.800 160.596 C 323.120 160.891,325.730 161.540,327.600 162.039 C 331.727 163.139,345.651 163.407,349.600 162.462 C 357.157 160.654,361.141 158.531,366.528 153.443 C 367.369 152.650,368.202 152.000,368.380 152.000 C 368.558 152.000,368.929 151.454,369.205 150.787 C 369.482 150.120,370.240 148.905,370.892 148.087 C 375.383 142.446,377.903 133.402,377.749 123.476 C 377.667 118.174,376.057 110.242,373.796 104.000 C 373.038 101.907,372.590 99.609,372.313 96.400 L 371.917 91.800 373.635 88.262 C 374.833 85.793,376.235 83.747,378.276 81.490 C 379.884 79.711,381.200 77.928,381.200 77.529 C 381.200 77.129,381.830 76.105,382.600 75.252 C 383.765 73.963,383.959 73.497,383.756 72.482 C 383.594 71.672,383.729 70.951,384.156 70.341 C 385.195 68.858,384.995 66.319,383.749 65.170 C 382.300 63.833,381.657 62.146,381.901 60.323 C 382.111 58.757,381.194 58.397,380.643 59.831 C 380.273 60.796,379.345 60.465,378.195 58.958 C 377.590 58.164,376.488 57.262,375.747 56.952 C 375.006 56.643,374.400 56.124,374.400 55.800 C 374.400 55.476,373.770 54.948,373.000 54.626 C 372.230 54.304,371.600 53.870,371.600 53.661 C 371.600 53.451,370.678 52.949,369.550 52.543 C 368.423 52.138,367.410 51.571,367.300 51.284 C 367.190 50.997,365.998 50.228,364.650 49.574 C 361.723 48.154,360.641 47.531,359.703 46.727 C 359.316 46.395,358.237 45.829,357.305 45.467 C 356.373 45.106,355.261 44.461,354.834 44.034 C 354.404 43.604,353.198 43.136,352.129 42.984 C 351.068 42.834,349.390 42.209,348.400 41.595 C 347.410 40.981,345.798 40.349,344.817 40.190 C 343.837 40.032,342.559 39.550,341.977 39.119 C 340.871 38.302,337.038 37.636,333.300 37.613 C 331.766 37.604,330.990 37.390,330.422 36.822 C 329.633 36.033,328.813 35.827,324.700 35.388 C 322.819 35.187,322.400 35.008,322.400 34.404 C 322.400 33.055,321.917 32.376,320.551 31.806 C 319.125 31.210,318.831 30.405,319.757 29.636 C 321.496 28.193,320.024 26.505,317.625 27.193 C 315.558 27.786,314.873 25.031,316.827 23.986 C 318.298 23.198,317.633 22.234,314.400 20.467 C 312.077 19.198,309.587 18.721,304.200 18.515 C 299.256 18.326,298.366 18.182,296.600 17.291 C 294.834 16.400,293.898 16.249,288.600 16.003 C 284.243 15.801,282.169 15.533,281.025 15.025 C 278.237 13.788,269.626 13.278,267.956 14.251 C 266.285 15.224,266.087 16.300,267.167 18.532 C 269.291 22.920,268.745 25.344,265.800 24.589 C 263.678 24.046,256.927 23.661,246.891 23.512 L 240.782 23.421 239.027 25.411 C 238.061 26.505,236.760 27.912,236.136 28.538 C 235.511 29.164,234.721 30.208,234.379 30.858 L 233.759 32.040 232.733 31.233 C 231.975 30.637,231.637 29.903,231.442 28.430 C 231.130 26.076,229.703 24.153,227.928 23.693 C 226.409 23.300,215.250 24.141,211.000 24.970 C 208.824 25.394,203.613 25.705,194.712 25.943 C 178.997 26.362,178.400 26.584,178.400 32.000 C 178.400 32.928,177.984 34.448,177.432 35.537 C 176.820 36.744,176.358 38.545,176.176 40.424 C 175.925 43.037,173.200 48.134,173.200 45.993 C 173.200 45.767,172.705 45.364,172.100 45.098 C 171.495 44.831,170.783 44.320,170.517 43.963 C 170.251 43.606,169.222 43.086,168.229 42.808 C 167.122 42.498,166.332 42.016,166.188 41.564 C 165.981 40.910,163.870 40.009,162.533 40.002 C 162.277 40.001,161.733 39.541,161.324 38.980 C 160.729 38.164,160.131 37.914,158.324 37.728 C 156.621 37.552,156.020 37.320,155.880 36.786 C 155.751 36.289,154.999 35.932,153.376 35.595 C 152.100 35.330,150.813 34.870,150.515 34.572 C 149.803 33.860,147.571 33.245,144.600 32.943 C 141.473 32.625,139.420 30.937,139.736 28.944 C 139.897 27.930,139.708 27.470,138.755 26.557 C 137.795 25.638,137.622 25.211,137.827 24.275 C 138.161 22.754,135.658 19.002,133.788 18.221 C 132.819 17.816,132.174 17.035,131.161 15.042 C 129.769 12.302,129.444 11.987,129.055 13.000 C 128.518 14.399,126.339 13.730,126.617 12.251 C 126.849 11.015,126.734 10.805,125.258 9.751 C 124.371 9.118,123.460 8.195,123.232 7.700 C 122.727 6.604,122.718 6.603,120.051 7.617 C 118.868 8.067,117.861 8.382,117.812 8.317 C 117.763 8.253,117.560 6.941,117.361 5.402 C 116.839 1.359,115.968 1.065,106.113 1.598 M36.431 26.444 L 35.512 27.687 32.190 27.411 C 28.434 27.098,23.911 27.495,24.904 28.050 C 25.759 28.529,27.463 28.559,32.900 28.194 L 37.600 27.878 37.600 26.539 C 37.600 24.901,37.573 24.898,36.431 26.444 M299.362 26.500 C 298.731 27.746,294.830 31.703,292.100 33.865 C 291.385 34.432,290.800 35.107,290.800 35.366 C 290.800 35.953,287.924 38.800,287.331 38.800 C 287.091 38.800,286.418 39.425,285.835 40.189 C 285.253 40.953,283.971 42.132,282.988 42.808 C 281.098 44.109,280.805 44.674,281.821 45.063 C 282.242 45.225,283.496 44.226,285.730 41.951 C 287.538 40.108,289.914 37.758,291.009 36.728 C 292.104 35.698,293.180 34.666,293.400 34.433 C 293.620 34.201,295.105 32.902,296.700 31.547 C 298.295 30.192,299.600 28.929,299.600 28.741 C 299.600 28.553,300.342 27.679,301.248 26.800 L 302.896 25.200 301.459 25.200 C 300.238 25.200,299.921 25.397,299.362 26.500 M20.258 29.514 C 19.995 30.946,20.223 37.557,20.547 37.880 C 20.686 38.019,20.806 36.798,20.814 35.167 C 20.823 33.353,21.050 31.811,21.400 31.200 C 22.167 29.858,22.139 29.479,21.229 28.911 C 20.547 28.485,20.434 28.555,20.258 29.514 M247.990 41.812 C 247.215 42.746,248.164 43.607,249.023 42.748 C 249.553 42.218,249.560 42.065,249.073 41.661 C 248.631 41.293,248.393 41.327,247.990 41.812 M193.480 43.214 C 192.472 44.272,192.374 44.621,192.498 46.695 C 192.625 48.820,192.662 48.897,192.970 47.690 C 193.154 46.970,193.810 46.020,194.428 45.580 C 195.579 44.760,196.892 42.625,196.491 42.224 C 195.935 41.668,194.504 42.139,193.480 43.214 M199.422 42.365 C 199.106 42.875,202.096 43.319,203.900 43.029 C 204.725 42.897,206.894 43.031,208.721 43.329 C 211.961 43.856,213.646 43.379,212.519 42.253 C 212.119 41.853,199.672 41.959,199.422 42.365 M17.775 44.626 C 17.424 46.968,17.914 48.254,18.877 47.515 C 19.897 46.733,20.217 44.274,19.404 43.462 C 18.378 42.435,18.071 42.654,17.775 44.626 M243.456 47.078 C 243.062 47.471,243.153 49.676,243.552 49.430 C 244.019 49.141,244.373 47.230,244.002 47.001 C 243.842 46.903,243.596 46.937,243.456 47.078 M240.622 51.176 C 240.067 51.789,240.024 52.097,240.396 52.793 C 240.969 53.863,242.000 53.209,242.000 51.775 C 242.000 50.508,241.444 50.267,240.622 51.176 M123.100 51.281 C 120.400 51.998,122.656 52.982,125.900 52.502 C 127.464 52.270,127.551 51.888,126.181 51.264 C 125.033 50.741,125.135 50.741,123.100 51.281 M114.710 52.700 C 114.597 53.134,113.819 53.589,112.664 53.898 C 110.696 54.425,110.279 54.971,111.584 55.312 C 112.743 55.615,115.317 54.604,115.728 53.685 C 115.924 53.245,116.471 52.698,116.942 52.469 C 117.707 52.099,117.643 52.051,116.347 52.027 C 115.284 52.007,114.844 52.188,114.710 52.700 M190.240 53.300 C 189.673 57.047,189.625 59.600,190.122 59.600 C 190.494 59.600,190.648 58.579,190.692 55.800 C 190.754 51.909,190.589 50.993,190.240 53.300 M107.258 57.606 C 107.027 58.269,106.424 58.978,105.919 59.181 L 105.000 59.549 105.900 59.625 C 106.395 59.666,107.113 59.723,107.495 59.750 C 107.897 59.779,108.251 59.464,108.336 59.000 C 108.417 58.560,108.734 57.915,109.042 57.568 C 109.671 56.857,109.409 56.400,108.372 56.400 C 107.960 56.400,107.508 56.889,107.258 57.606 M102.570 63.419 C 102.278 64.973,102.629 65.717,103.216 64.788 C 103.705 64.015,103.706 62.000,103.218 62.000 C 103.008 62.000,102.716 62.638,102.570 63.419 M99.993 68.021 C 99.685 68.954,99.127 69.799,98.753 69.896 C 98.036 70.084,97.617 71.063,97.897 71.897 C 98.157 72.669,99.600 71.727,99.600 70.786 C 99.600 70.354,99.867 70.000,100.192 70.000 C 100.948 70.000,101.344 68.459,100.897 67.252 C 100.578 66.388,100.514 66.442,99.993 68.021 M19.011 83.618 C 19.386 84.224,18.370 85.330,17.884 84.844 C 17.435 84.395,17.784 83.200,18.364 83.200 C 18.578 83.200,18.869 83.388,19.011 83.618 M141.244 83.900 C 141.032 84.285,139.935 85.320,138.805 86.200 C 137.512 87.207,136.668 88.204,136.528 88.891 C 136.404 89.491,136.055 90.188,135.752 90.440 C 133.555 92.263,137.357 97.604,140.847 97.598 C 146.368 97.589,152.225 89.719,149.685 85.724 C 148.259 83.481,142.194 82.170,141.244 83.900 M158.608 86.858 C 158.075 88.312,158.250 94.452,158.800 93.600 C 159.013 93.270,159.191 92.601,159.194 92.114 C 159.197 91.627,159.751 90.600,160.424 89.833 C 161.611 88.482,161.607 86.800,160.419 86.800 C 160.224 86.800,159.782 86.691,159.436 86.558 C 159.084 86.423,158.719 86.555,158.608 86.858 M155.636 96.925 C 155.176 97.875,154.800 98.846,154.800 99.083 C 154.800 99.320,154.530 99.618,154.200 99.745 C 153.851 99.879,153.600 100.477,153.600 101.176 C 153.600 102.187,153.395 102.436,152.300 102.752 C 151.157 103.083,151.121 103.131,152.000 103.158 C 153.305 103.197,153.659 102.904,154.494 101.100 C 154.875 100.275,155.457 99.600,155.786 99.600 C 156.115 99.600,156.467 99.195,156.568 98.700 C 157.310 95.059,156.909 94.296,155.636 96.925 M148.078 105.010 L 147.157 105.495 148.071 105.735 C 149.095 106.002,149.990 105.405,149.380 104.862 C 149.169 104.675,148.589 104.740,148.078 105.010 M141.400 107.268 C 140.080 107.482,138.829 107.824,138.620 108.028 C 138.411 108.233,137.937 108.400,137.567 108.400 C 137.166 108.400,136.816 108.805,136.702 109.400 C 136.529 110.307,136.636 110.400,137.865 110.400 C 138.942 110.400,139.298 110.195,139.600 109.400 C 139.926 108.542,140.231 108.400,141.740 108.400 C 144.207 108.400,146.058 107.974,145.885 107.447 C 145.690 106.852,144.311 106.797,141.400 107.268 M340.243 113.033 C 340.109 113.381,340.000 114.716,340.000 116.000 C 340.000 118.810,339.740 119.600,338.815 119.600 C 338.334 119.600,337.929 120.188,337.512 121.493 C 337.135 122.676,336.626 123.463,336.154 123.593 C 334.665 124.002,333.872 124.689,334.126 125.350 C 334.617 126.630,337.200 125.552,337.200 124.069 C 337.200 123.811,337.464 123.600,337.786 123.600 C 338.488 123.600,339.200 122.386,339.200 121.189 C 339.200 120.679,339.509 120.244,339.953 120.128 C 340.814 119.903,341.189 118.268,341.196 114.700 C 341.200 112.490,340.752 111.706,340.243 113.033 M331.800 126.578 C 329.926 127.157,329.878 127.847,331.721 127.694 C 333.517 127.545,334.000 127.316,334.000 126.613 C 334.000 125.912,333.959 125.911,331.800 126.578 M326.000 129.200 C 326.000 129.420,326.720 129.600,327.600 129.600 C 328.480 129.600,329.200 129.420,329.200 129.200 C 329.200 128.980,328.480 128.800,327.600 128.800 C 326.720 128.800,326.000 128.980,326.000 129.200 " stroke="none" fill="#cacaca" fill-rule="evenodd"></path><path id="path1" d="M0.000 20.200 C 0.000 36.931,0.093 40.400,0.542 40.400 C 1.248 40.400,1.584 36.866,1.627 29.000 C 1.671 20.816,1.887 19.583,3.400 18.844 C 4.060 18.523,5.230 17.946,6.000 17.563 C 7.650 16.742,12.560 16.000,16.340 16.000 C 17.928 16.000,19.344 15.781,19.811 15.462 C 21.225 14.498,24.491 13.923,30.522 13.578 C 35.280 13.305,36.696 13.084,37.722 12.458 C 38.704 11.858,40.112 11.610,43.800 11.387 C 47.158 11.184,49.501 10.803,51.599 10.120 C 53.845 9.388,56.004 9.064,60.199 8.825 C 64.303 8.592,66.495 8.269,68.400 7.614 C 70.311 6.957,72.452 6.642,76.481 6.425 C 79.495 6.263,82.198 5.934,82.486 5.695 C 83.399 4.937,86.432 4.409,92.014 4.036 C 96.414 3.742,97.702 3.513,98.894 2.810 C 100.152 2.067,101.276 1.899,106.842 1.622 C 116.238 1.154,117.019 1.450,117.432 5.642 C 117.735 8.719,117.591 8.645,120.749 7.352 C 122.543 6.618,122.746 6.646,123.232 7.700 C 123.460 8.195,124.371 9.118,125.258 9.751 C 126.734 10.805,126.849 11.015,126.617 12.251 C 126.339 13.730,128.518 14.399,129.055 13.000 C 129.444 11.987,129.769 12.302,131.161 15.042 C 132.174 17.035,132.819 17.816,133.788 18.221 C 135.658 19.002,138.161 22.754,137.827 24.275 C 137.622 25.211,137.795 25.638,138.755 26.557 C 139.708 27.470,139.897 27.930,139.736 28.944 C 139.420 30.937,141.473 32.625,144.600 32.943 C 147.571 33.245,149.803 33.860,150.515 34.572 C 150.813 34.870,152.100 35.330,153.376 35.595 C 154.999 35.932,155.751 36.289,155.880 36.786 C 156.020 37.320,156.621 37.552,158.324 37.728 C 160.131 37.914,160.729 38.164,161.324 38.980 C 161.733 39.541,162.277 40.001,162.533 40.002 C 163.870 40.009,165.981 40.910,166.188 41.564 C 166.332 42.016,167.122 42.498,168.229 42.808 C 169.222 43.086,170.251 43.606,170.517 43.963 C 170.783 44.320,171.495 44.831,172.100 45.098 C 172.705 45.364,173.200 45.767,173.200 45.993 C 173.200 48.134,175.925 43.037,176.176 40.424 C 176.358 38.545,176.820 36.744,177.432 35.537 C 177.984 34.448,178.400 32.928,178.400 32.000 C 178.400 26.584,178.997 26.362,194.712 25.943 C 203.613 25.705,208.824 25.394,211.000 24.970 C 215.250 24.141,226.409 23.300,227.928 23.693 C 229.703 24.153,231.130 26.076,231.442 28.430 C 231.637 29.903,231.975 30.637,232.733 31.233 L 233.759 32.040 234.379 30.858 C 234.721 30.208,235.511 29.164,236.136 28.538 C 236.760 27.912,238.061 26.505,239.027 25.411 L 240.782 23.421 246.891 23.512 C 256.927 23.661,263.678 24.046,265.800 24.589 C 268.745 25.344,269.291 22.920,267.167 18.532 C 266.087 16.300,266.285 15.224,267.956 14.251 C 269.626 13.278,278.237 13.788,281.025 15.025 C 282.169 15.533,284.243 15.801,288.600 16.003 C 293.898 16.249,294.834 16.400,296.600 17.291 C 298.366 18.182,299.256 18.326,304.200 18.515 C 309.587 18.721,312.077 19.198,314.400 20.467 C 317.633 22.234,318.298 23.198,316.827 23.986 C 314.873 25.031,315.558 27.786,317.625 27.193 C 320.024 26.505,321.496 28.193,319.757 29.636 C 318.831 30.405,319.125 31.210,320.551 31.806 C 321.917 32.376,322.400 33.055,322.400 34.404 C 322.400 35.008,322.819 35.187,324.700 35.388 C 328.813 35.827,329.633 36.033,330.422 36.822 C 330.990 37.390,331.766 37.604,333.300 37.613 C 337.038 37.636,340.871 38.302,341.977 39.119 C 342.559 39.550,343.837 40.032,344.817 40.190 C 345.798 40.349,347.410 40.981,348.400 41.595 C 349.390 42.209,351.068 42.834,352.129 42.984 C 353.198 43.136,354.404 43.604,354.834 44.034 C 355.261 44.461,356.373 45.106,357.305 45.467 C 358.237 45.829,359.316 46.395,359.703 46.727 C 360.641 47.531,361.723 48.154,364.650 49.574 C 365.998 50.228,367.190 50.997,367.300 51.284 C 367.410 51.571,368.423 52.138,369.550 52.543 C 370.678 52.949,371.600 53.451,371.600 53.661 C 371.600 53.870,372.230 54.304,373.000 54.626 C 373.770 54.948,374.400 55.476,374.400 55.800 C 374.400 56.124,375.006 56.643,375.747 56.952 C 376.488 57.262,377.590 58.164,378.195 58.958 C 379.345 60.465,380.273 60.796,380.643 59.831 C 381.194 58.397,382.111 58.757,381.901 60.323 C 381.657 62.146,382.300 63.833,383.749 65.170 C 384.995 66.319,385.195 68.858,384.156 70.341 C 383.729 70.951,383.594 71.672,383.756 72.482 C 383.959 73.497,383.765 73.963,382.600 75.252 C 381.830 76.105,381.200 77.129,381.200 77.529 C 381.200 77.928,379.884 79.711,378.276 81.490 C 376.235 83.747,374.833 85.793,373.635 88.262 L 371.917 91.800 372.313 96.400 C 372.590 99.609,373.038 101.907,373.796 104.000 C 376.057 110.242,377.667 118.174,377.749 123.476 C 377.903 133.402,375.383 142.446,370.892 148.087 C 370.240 148.905,369.482 150.120,369.205 150.787 C 368.929 151.454,368.558 152.000,368.380 152.000 C 368.202 152.000,367.369 152.650,366.528 153.443 C 361.141 158.531,357.157 160.654,349.600 162.462 C 345.651 163.407,331.727 163.139,327.600 162.039 C 325.730 161.540,323.120 160.891,321.800 160.596 C 320.480 160.301,318.680 159.788,317.800 159.455 C 314.760 158.305,311.656 156.944,311.129 156.530 C 306.372 152.791,300.428 152.583,291.000 155.825 C 287.812 156.921,283.515 157.300,277.000 157.060 C 273.480 156.931,268.710 156.759,266.400 156.680 C 261.432 156.509,255.728 155.079,251.479 152.939 C 249.199 151.791,248.441 151.590,247.185 151.802 C 245.546 152.079,244.800 151.405,244.800 149.646 C 244.800 148.535,243.723 148.020,242.271 148.437 C 241.350 148.701,240.738 148.592,239.616 147.961 C 238.253 147.195,237.914 147.171,234.380 147.594 C 232.301 147.842,229.250 148.100,227.600 148.166 C 225.178 148.264,224.314 148.481,223.115 149.295 C 222.196 149.920,220.750 150.414,219.322 150.592 C 218.053 150.751,216.381 151.117,215.607 151.406 C 210.480 153.318,191.114 153.458,188.600 151.600 C 188.380 151.438,187.223 151.076,186.029 150.795 C 183.039 150.094,179.239 148.504,177.939 147.410 C 176.456 146.162,171.378 145.643,169.251 146.523 C 167.004 147.452,161.925 148.803,160.684 148.801 C 160.070 148.801,158.889 149.146,158.060 149.569 C 156.575 150.327,152.113 151.019,145.800 151.471 C 141.727 151.762,133.425 150.663,130.413 149.434 C 129.196 148.937,127.338 148.213,126.284 147.826 C 125.231 147.439,123.881 146.716,123.284 146.220 C 121.787 144.975,120.409 144.292,119.213 144.202 C 118.656 144.160,118.019 144.097,117.798 144.063 C 117.576 144.028,117.156 143.460,116.864 142.800 C 116.572 142.140,116.102 141.600,115.819 141.600 C 115.537 141.600,114.098 140.790,112.622 139.800 C 109.841 137.935,108.461 137.625,106.642 138.454 C 105.249 139.088,102.454 144.792,102.015 147.892 C 101.603 150.807,100.805 152.448,99.447 153.175 C 98.886 153.475,97.962 154.423,97.394 155.281 C 95.238 158.538,87.637 161.165,66.225 166.053 C 61.657 167.096,58.573 167.563,51.497 168.284 C 49.802 168.456,49.441 168.343,48.190 167.245 C 47.417 166.566,46.294 165.903,45.693 165.770 C 43.084 165.193,41.888 164.658,41.713 163.990 C 41.502 163.181,40.464 162.813,38.368 162.805 C 37.252 162.801,36.817 162.579,36.400 161.800 C 36.106 161.250,35.549 160.800,35.163 160.800 C 33.176 160.800,31.970 158.875,32.249 156.149 L 32.513 153.580 28.005 153.630 C 21.944 153.696,21.349 153.304,21.515 149.345 C 21.586 147.646,21.929 145.980,22.415 144.974 C 23.055 143.648,23.200 142.499,23.200 138.757 C 23.200 133.561,24.164 125.338,25.012 123.311 C 25.372 122.448,25.723 119.102,25.979 114.079 C 26.359 106.643,26.802 103.592,27.652 102.546 C 28.476 101.534,27.880 89.423,27.000 89.284 C 26.560 89.215,25.840 88.988,25.400 88.780 C 23.872 88.056,19.870 86.800,19.037 86.783 C 18.279 86.768,17.460 86.342,13.301 83.795 C 12.506 83.308,11.827 82.457,11.551 81.600 C 11.302 80.830,10.830 79.892,10.502 79.516 C 10.149 79.112,9.975 78.350,10.077 77.656 C 10.287 76.227,9.453 76.011,3.700 76.004 L 0.000 76.000 0.000 128.800 L 0.000 181.600 200.000 181.600 L 400.000 181.600 400.000 90.800 L 400.000 0.000 200.000 0.000 L 0.000 0.000 0.000 20.200 M17.734 83.827 C 17.379 84.753,18.165 85.365,18.771 84.634 C 19.284 84.017,19.052 83.200,18.364 83.200 C 18.150 83.200,17.867 83.482,17.734 83.827 " stroke="none" fill="#ffffff" fill-rule="evenodd"></path><path id="path2" d="M107.997 2.789 C 106.785 2.946,105.165 3.278,104.397 3.528 C 103.629 3.778,100.570 4.259,97.600 4.597 C 94.630 4.936,90.490 5.559,88.400 5.982 C 86.310 6.405,82.890 6.943,80.800 7.178 C 78.710 7.412,75.740 7.876,74.200 8.207 C 72.660 8.539,68.560 9.164,65.089 9.597 C 61.618 10.030,58.468 10.546,58.089 10.744 C 57.710 10.943,55.510 11.317,53.200 11.575 C 47.980 12.160,39.326 13.475,38.878 13.752 C 38.694 13.865,36.577 14.156,34.172 14.398 C 31.767 14.639,28.360 15.170,26.600 15.576 C 24.840 15.983,21.420 16.522,19.000 16.773 C 16.580 17.025,12.890 17.596,10.800 18.041 C 8.710 18.486,6.618 18.927,6.151 19.020 C 3.377 19.574,3.282 20.062,2.212 39.200 C 1.478 52.338,1.377 53.200,0.582 53.200 C 0.099 53.200,0.000 54.191,0.000 59.000 C 0.000 63.768,0.102 64.800,0.573 64.800 C 1.702 64.800,2.290 60.102,2.822 46.828 C 3.048 41.203,3.513 34.350,3.856 31.600 C 4.199 28.850,4.619 25.282,4.790 23.670 C 5.173 20.043,5.072 20.135,9.240 19.619 C 11.132 19.384,13.562 18.932,14.640 18.615 C 15.718 18.297,19.415 17.758,22.856 17.417 C 26.296 17.075,29.896 16.518,30.856 16.178 C 31.815 15.838,35.317 15.299,38.638 14.980 C 41.959 14.660,45.540 14.139,46.596 13.821 C 47.653 13.503,50.246 13.050,52.358 12.813 C 57.336 12.256,61.256 11.641,64.000 10.987 C 65.210 10.699,68.360 10.258,71.000 10.008 C 73.640 9.758,76.520 9.298,77.400 8.986 C 78.280 8.674,81.610 8.138,84.800 7.795 C 87.990 7.452,91.500 6.928,92.600 6.630 C 95.587 5.822,96.951 5.615,102.020 5.199 C 104.561 4.991,107.419 4.546,108.370 4.210 C 112.591 2.721,113.600 3.326,113.600 7.344 C 113.600 11.322,115.388 12.573,119.071 11.173 C 120.683 10.560,122.190 12.277,121.854 14.344 C 121.598 15.922,122.721 18.194,123.949 18.584 C 126.310 19.333,126.466 19.933,126.183 27.137 C 125.834 36.001,125.303 35.400,133.469 35.400 C 140.345 35.400,149.568 36.636,151.336 37.795 C 151.846 38.129,153.235 38.691,154.423 39.044 C 155.610 39.396,157.002 40.016,157.516 40.420 C 158.030 40.824,159.114 41.367,159.925 41.626 C 160.736 41.886,161.760 42.415,162.200 42.802 C 162.640 43.190,163.587 43.803,164.304 44.165 C 165.741 44.892,167.466 46.079,171.037 48.800 C 173.013 50.305,175.232 51.600,175.837 51.600 C 176.395 51.600,177.207 49.329,177.554 46.796 C 177.780 45.144,178.233 43.254,178.560 42.596 C 178.887 41.938,179.444 39.510,179.797 37.200 C 180.945 29.700,180.952 29.693,188.049 29.190 C 190.992 28.982,195.020 28.627,197.000 28.402 C 207.966 27.155,226.821 26.443,227.445 27.252 C 228.117 28.124,229.501 32.814,229.731 35.000 C 230.320 40.599,232.596 40.395,236.586 34.387 C 242.300 25.782,240.544 26.426,256.948 26.926 C 266.666 27.222,270.822 27.216,271.649 26.904 C 272.690 26.511,272.824 26.557,273.030 27.379 C 273.438 29.004,273.068 31.021,272.400 30.814 C 272.070 30.712,270.360 30.599,268.600 30.564 L 265.400 30.499 268.400 30.818 C 270.050 30.994,271.850 31.197,272.400 31.269 C 273.596 31.426,273.987 29.283,273.227 26.737 L 272.790 25.275 270.757 25.811 C 268.617 26.376,259.149 26.124,248.621 25.221 C 241.194 24.585,241.890 24.172,235.510 33.000 C 234.715 34.100,233.434 35.606,232.664 36.348 L 231.263 37.696 231.021 35.748 C 229.880 26.578,228.942 24.946,225.035 25.333 C 222.812 25.554,203.858 26.683,198.400 26.919 C 181.139 27.668,179.968 28.112,179.187 34.200 C 178.933 36.180,178.466 38.335,178.149 38.988 C 177.833 39.642,177.310 41.712,176.987 43.588 C 175.964 49.547,176.114 49.200,174.672 48.934 C 173.972 48.805,172.410 47.944,171.200 47.021 C 168.746 45.150,161.558 40.800,160.919 40.800 C 160.693 40.800,160.045 40.436,159.480 39.991 C 158.915 39.547,157.675 38.910,156.726 38.576 C 155.777 38.243,154.258 37.612,153.351 37.174 C 152.445 36.736,150.375 36.103,148.751 35.767 C 147.128 35.431,144.900 34.904,143.800 34.596 C 141.598 33.980,131.025 33.013,130.441 33.375 C 128.626 34.496,128.217 33.153,128.347 26.508 C 128.488 19.317,128.146 17.923,126.114 17.416 C 124.088 16.910,123.600 16.121,123.600 13.347 C 123.600 10.041,122.981 9.573,118.777 9.697 C 114.835 9.813,114.729 9.722,114.840 6.303 C 114.970 2.310,114.314 1.974,107.997 2.789 M104.400 8.164 C 103.410 8.454,100.170 9.013,97.200 9.408 C 94.230 9.802,90.990 10.367,90.000 10.662 C 89.010 10.958,85.950 11.476,83.200 11.813 C 80.450 12.151,77.660 12.589,77.000 12.787 C 75.041 13.375,71.639 13.966,67.729 14.397 C 65.710 14.619,62.560 15.147,60.729 15.570 C 58.898 15.993,55.780 16.543,53.800 16.791 C 51.820 17.039,48.760 17.580,47.000 17.994 C 45.240 18.407,41.602 19.025,38.916 19.366 C 36.229 19.707,32.629 20.331,30.916 20.752 C 28.024 21.462,22.170 22.485,14.042 23.700 C 8.877 24.473,9.399 22.454,8.011 47.000 C 6.853 67.482,6.843 67.402,10.556 67.104 C 11.950 66.992,13.401 66.727,13.781 66.515 C 14.266 66.243,13.813 66.183,12.265 66.311 C 8.627 66.613,7.834 65.499,8.103 60.466 C 8.217 58.340,8.614 50.210,8.984 42.400 C 9.885 23.415,9.298 24.831,16.600 24.016 C 20.457 23.585,31.454 21.413,32.916 20.793 C 33.402 20.587,36.860 20.046,40.600 19.590 C 44.340 19.134,47.697 18.674,48.059 18.567 C 48.422 18.459,51.122 17.940,54.059 17.411 C 56.997 16.883,60.570 16.170,62.000 15.827 C 63.430 15.483,67.097 14.923,70.148 14.580 C 73.200 14.238,76.440 13.706,77.348 13.398 C 78.257 13.090,80.710 12.638,82.800 12.392 C 84.890 12.147,88.130 11.602,90.000 11.182 C 91.870 10.762,95.470 10.141,98.000 9.802 C 109.757 8.226,109.963 8.384,108.432 17.850 C 107.648 22.698,107.019 29.257,106.434 38.689 C 105.976 46.086,105.221 46.927,97.680 48.444 C 93.028 49.380,82.855 52.561,81.784 53.414 C 81.061 53.990,81.093 53.996,82.200 53.489 C 82.860 53.186,84.570 52.617,86.000 52.223 C 87.430 51.829,90.320 50.993,92.423 50.365 C 94.525 49.738,97.225 49.022,98.423 48.774 C 101.575 48.122,105.927 46.366,106.213 45.632 C 106.348 45.284,106.717 41.704,107.033 37.675 C 107.349 33.647,107.778 29.591,107.986 28.662 C 108.350 27.036,108.980 20.299,109.431 13.200 C 109.767 7.911,108.748 6.892,104.400 8.164 M269.280 15.280 C 268.611 15.949,268.681 17.753,269.473 20.265 C 270.112 22.292,270.800 23.091,270.800 21.806 C 270.800 21.480,271.308 20.644,271.929 19.949 L 273.059 18.685 279.029 19.174 C 282.313 19.444,286.080 19.941,287.400 20.279 C 290.582 21.093,292.100 21.341,291.015 20.870 C 290.280 20.552,290.293 20.515,291.215 20.297 C 292.357 20.026,300.792 20.259,301.103 20.569 C 301.660 21.127,298.778 21.582,295.673 21.427 C 293.763 21.332,292.740 21.340,293.400 21.446 C 296.930 22.012,298.699 22.790,299.199 23.997 C 299.635 25.051,299.895 25.200,301.297 25.200 L 302.896 25.200 301.248 26.800 C 300.342 27.679,299.600 28.553,299.600 28.741 C 299.600 28.929,298.295 30.192,296.700 31.547 C 295.105 32.902,293.620 34.201,293.400 34.433 C 293.180 34.666,292.104 35.698,291.009 36.728 C 289.914 37.758,287.538 40.108,285.730 41.951 C 282.678 45.060,281.200 45.863,281.200 44.413 C 281.200 44.186,280.985 44.000,280.722 44.000 C 280.459 44.000,279.749 43.526,279.145 42.948 L 278.047 41.895 278.626 43.819 C 280.201 49.054,281.999 48.749,288.752 42.100 C 290.595 40.285,292.321 38.800,292.587 38.800 C 292.854 38.800,293.278 38.346,293.531 37.792 C 293.783 37.238,294.442 36.612,294.995 36.402 C 295.548 36.192,296.000 35.808,296.000 35.550 C 296.000 35.291,296.855 34.297,297.900 33.341 C 298.945 32.385,299.980 31.407,300.200 31.169 C 300.420 30.931,301.825 29.528,303.322 28.052 C 305.887 25.524,306.020 25.305,305.622 24.258 C 305.062 22.785,304.998 22.894,306.700 22.421 C 308.668 21.875,310.721 21.917,312.166 22.534 L 313.333 23.032 309.566 26.370 C 307.495 28.206,305.620 29.909,305.400 30.154 C 304.739 30.891,301.092 33.600,300.761 33.600 C 300.592 33.600,300.340 33.960,300.200 34.401 C 300.054 34.861,299.108 35.561,297.973 36.050 C 296.652 36.618,296.000 37.137,296.000 37.620 C 296.000 38.017,295.545 38.699,294.990 39.137 L 293.980 39.931 295.190 40.793 C 296.842 41.969,296.745 42.214,294.098 43.550 C 290.596 45.318,284.820 50.967,282.857 54.543 C 276.399 66.309,280.096 76.827,294.000 86.252 C 299.074 89.691,299.608 90.064,302.000 91.846 C 307.495 95.938,308.987 99.131,306.500 101.475 C 305.694 102.234,305.623 102.395,306.233 102.078 C 307.722 101.302,308.247 100.038,308.042 97.721 C 307.955 96.729,304.034 92.540,301.762 91.010 C 300.463 90.136,298.016 88.393,296.324 87.137 C 294.632 85.881,292.832 84.636,292.324 84.369 C 290.545 83.436,283.529 76.206,282.561 74.309 C 279.916 69.127,280.059 60.648,282.877 55.621 C 284.876 52.054,291.895 45.371,295.141 43.943 C 296.603 43.300,298.261 42.520,298.823 42.209 C 299.386 41.899,301.186 41.275,302.823 40.823 C 304.461 40.371,306.031 39.688,306.313 39.306 C 306.743 38.723,307.941 38.545,313.713 38.205 C 317.501 37.982,320.420 37.684,320.200 37.543 C 319.342 36.993,307.223 36.683,306.606 37.195 C 305.848 37.824,299.406 38.256,299.063 37.702 C 298.925 37.478,299.343 37.191,299.996 37.061 C 300.800 36.900,301.255 36.522,301.416 35.880 C 301.546 35.361,302.083 34.770,302.609 34.568 C 303.135 34.366,305.058 32.758,306.882 30.995 C 308.707 29.232,310.661 27.432,311.225 26.995 C 313.458 25.264,314.924 23.232,314.398 22.597 C 313.433 21.435,305.093 19.752,297.703 19.228 C 294.151 18.976,291.570 18.598,290.845 18.223 C 290.196 17.888,287.001 17.342,283.619 16.989 C 280.285 16.641,276.187 16.006,274.514 15.578 C 270.986 14.676,269.944 14.616,269.280 15.280 M271.179 17.560 C 271.490 18.142,271.439 18.376,270.960 18.560 C 270.035 18.915,270.000 18.887,270.000 17.800 C 270.000 16.615,270.607 16.491,271.179 17.560 M113.326 17.603 C 111.640 18.282,111.465 19.307,111.281 29.600 C 111.073 41.146,111.322 42.022,114.188 39.836 C 115.919 38.516,115.883 38.683,116.387 29.387 C 117.064 16.907,116.873 16.174,113.326 17.603 M283.224 17.866 C 285.012 18.052,285.534 18.222,284.983 18.438 C 283.974 18.832,279.860 18.873,277.800 18.508 L 276.200 18.225 277.600 17.965 C 279.650 17.585,280.408 17.571,283.224 17.866 M248.448 30.432 C 246.084 30.896,244.951 31.711,243.674 33.865 C 243.084 34.862,241.430 37.275,240.000 39.226 C 234.407 46.859,233.774 47.744,233.000 48.995 C 232.560 49.706,231.545 51.079,230.746 52.044 L 229.291 53.800 228.346 53.015 L 227.400 52.230 228.277 53.180 L 229.153 54.131 230.580 53.042 C 231.365 52.444,232.377 51.229,232.829 50.344 C 233.280 49.458,234.719 47.461,236.025 45.905 C 237.331 44.350,238.400 42.901,238.400 42.686 C 238.400 42.471,239.315 41.194,240.433 39.848 C 241.551 38.501,243.216 36.230,244.133 34.800 C 246.601 30.950,246.900 30.856,257.000 30.750 C 264.798 30.668,265.070 30.642,260.800 30.383 C 254.546 30.005,250.540 30.021,248.448 30.432 M213.000 32.423 C 211.020 32.591,204.590 32.916,198.712 33.147 C 184.792 33.694,185.680 33.259,184.616 40.044 C 184.258 42.330,183.613 45.820,183.184 47.800 C 182.755 49.780,182.217 52.775,181.987 54.455 C 181.758 56.135,181.397 58.114,181.185 58.852 C 180.973 59.591,180.816 60.556,180.836 60.997 C 180.937 63.268,183.197 52.828,184.427 44.404 C 185.965 33.883,185.572 34.146,200.267 33.797 C 205.950 33.662,212.095 33.404,213.923 33.223 C 220.934 32.530,221.730 33.170,223.813 41.171 C 225.137 46.253,226.742 50.991,227.040 50.693 C 227.129 50.604,226.833 49.467,226.381 48.166 C 225.930 46.865,225.297 44.540,224.975 43.000 C 224.653 41.460,224.224 39.750,224.022 39.200 C 223.819 38.650,223.367 37.167,223.017 35.905 C 222.070 32.488,220.144 31.819,213.000 32.423 M326.141 38.815 C 324.601 39.405,324.721 39.949,326.488 40.390 C 329.634 41.175,340.733 45.620,344.968 47.791 C 346.050 48.346,347.192 48.800,347.506 48.800 C 347.820 48.800,348.554 49.131,349.138 49.535 C 349.722 49.939,351.574 51.020,353.253 51.937 C 357.698 54.364,357.999 55.259,355.292 58.000 C 354.691 58.608,352.670 60.769,350.800 62.803 C 344.005 70.192,343.064 70.383,334.432 66.129 L 328.200 63.058 324.666 63.029 C 320.942 62.998,319.571 63.682,319.616 65.544 C 319.624 65.905,319.876 65.639,320.174 64.952 C 321.102 62.821,325.286 62.792,330.200 64.884 C 334.795 66.841,338.278 68.555,339.473 69.448 C 342.247 71.522,343.575 70.811,351.746 62.878 C 359.992 54.872,360.028 54.576,353.200 51.084 C 351.330 50.127,349.440 49.151,349.000 48.914 C 347.229 47.962,342.905 45.992,341.400 45.451 C 337.796 44.157,334.560 42.663,333.931 42.002 C 333.562 41.615,332.077 41.064,330.631 40.776 C 329.184 40.489,328.000 40.106,328.000 39.927 C 328.000 39.225,334.455 39.570,335.753 40.341 C 336.439 40.748,338.294 41.302,339.876 41.573 C 341.499 41.850,343.127 42.389,343.613 42.811 C 344.087 43.222,345.446 43.760,346.633 44.007 C 347.820 44.253,348.928 44.676,349.095 44.946 C 349.263 45.215,351.470 46.474,354.000 47.743 C 356.530 49.012,359.770 50.760,361.200 51.627 C 362.630 52.495,364.160 53.372,364.600 53.577 C 365.040 53.783,366.210 54.501,367.200 55.173 C 368.190 55.846,369.203 56.397,369.451 56.398 C 369.699 56.399,370.137 56.683,370.424 57.029 C 370.711 57.375,371.604 57.994,372.408 58.404 C 375.353 59.906,374.119 61.852,360.892 76.565 C 359.292 78.344,357.192 80.617,356.225 81.616 C 353.487 84.445,353.446 85.612,355.929 89.914 C 357.040 91.840,358.306 94.247,358.741 95.263 C 359.177 96.280,359.711 97.221,359.927 97.355 C 360.143 97.488,360.542 98.543,360.813 99.699 C 361.085 100.854,361.576 102.329,361.904 102.977 C 362.993 105.128,363.258 106.556,363.573 112.000 C 364.568 129.154,360.271 140.298,349.970 147.286 C 348.523 148.267,346.484 149.285,345.438 149.549 C 344.391 149.812,342.605 150.404,341.468 150.864 C 338.964 151.877,327.344 152.387,323.600 151.648 C 314.652 149.881,311.829 149.183,309.761 148.224 C 304.837 145.941,301.364 144.209,300.368 143.538 C 299.801 143.155,297.641 141.968,295.568 140.898 C 291.368 138.731,288.598 137.044,288.210 136.416 C 286.938 134.359,285.431 136.724,285.200 141.141 C 284.938 146.138,284.464 146.507,278.979 145.985 C 276.988 145.796,270.778 145.450,265.179 145.217 C 239.401 144.143,239.706 144.214,240.202 139.447 C 240.584 135.776,240.212 135.451,235.333 135.188 C 230.657 134.937,228.558 135.305,227.186 136.616 C 224.833 138.865,222.393 137.907,220.368 133.938 C 219.928 133.075,218.990 132.013,218.284 131.578 L 217.000 130.787 216.200 131.764 C 214.624 133.690,213.150 136.399,212.926 137.781 C 212.486 140.490,210.347 140.758,188.655 140.814 C 171.321 140.859,171.572 140.900,172.175 138.090 C 172.695 135.663,172.538 133.616,171.765 132.754 C 170.595 131.450,165.030 131.873,161.746 133.515 C 160.456 134.161,158.469 134.994,157.331 135.366 C 156.193 135.739,155.046 136.304,154.782 136.622 C 154.518 136.940,154.005 137.200,153.641 137.200 C 153.277 137.200,150.751 137.744,148.027 138.410 C 136.898 141.127,124.068 140.106,117.353 135.968 C 116.667 135.546,115.837 135.200,115.508 135.200 C 115.179 135.200,114.261 134.705,113.467 134.100 C 112.674 133.495,111.164 132.462,110.112 131.804 C 105.305 128.798,98.038 121.690,95.200 117.218 C 94.210 115.658,92.815 113.927,92.101 113.371 L 90.801 112.360 90.434 113.280 C 90.232 113.786,89.847 120.050,89.580 127.200 C 89.312 134.350,89.047 141.361,88.992 142.781 C 88.858 146.236,88.139 146.853,83.193 147.758 C 81.157 148.131,79.021 148.679,78.445 148.976 C 77.870 149.274,76.319 149.646,75.000 149.803 C 73.680 149.961,71.610 150.411,70.400 150.805 C 69.190 151.199,66.132 151.912,63.604 152.391 C 61.077 152.869,58.807 153.428,58.560 153.633 C 58.314 153.838,56.422 154.286,54.356 154.629 C 52.290 154.972,49.610 155.584,48.400 155.987 C 47.190 156.391,44.670 156.921,42.800 157.165 C 40.930 157.409,38.905 157.718,38.299 157.851 C 36.924 158.154,36.000 156.314,36.000 153.275 C 36.000 149.970,33.273 148.898,29.000 150.523 C 25.840 151.725,25.319 151.717,24.879 150.455 C 24.367 148.985,24.987 140.269,25.837 137.000 C 26.180 135.680,26.785 130.730,27.180 126.000 C 27.576 121.270,28.088 116.932,28.317 116.360 C 28.547 115.788,29.027 111.468,29.385 106.760 C 29.743 102.052,30.214 97.630,30.432 96.934 C 31.647 93.044,32.415 78.443,31.447 77.639 C 30.561 76.904,26.607 77.271,22.726 78.450 C 21.127 78.936,18.735 79.348,17.411 79.367 L 15.005 79.400 14.678 76.400 C 14.204 72.050,13.619 71.804,5.727 72.639 C 2.907 72.938,0.465 73.186,0.300 73.191 C 0.135 73.196,0.000 73.560,0.000 74.000 C 0.000 75.009,1.240 75.047,5.502 74.166 C 12.007 72.823,12.498 72.989,12.729 76.619 C 12.930 79.779,14.372 81.438,16.568 81.040 C 17.246 80.917,19.330 80.643,21.200 80.432 C 23.070 80.221,25.819 79.669,27.308 79.205 C 28.798 78.742,30.207 78.481,30.440 78.625 C 30.892 78.904,30.673 83.642,29.989 88.400 C 29.784 89.830,29.339 94.600,29.000 99.000 C 28.662 103.400,28.124 108.440,27.805 110.200 C 27.486 111.960,26.944 116.640,26.600 120.600 C 26.257 124.560,25.627 129.870,25.201 132.400 C 24.775 134.930,24.224 139.430,23.977 142.400 C 23.730 145.370,23.437 148.642,23.326 149.670 C 22.994 152.746,25.062 153.253,31.200 151.600 C 33.249 151.048,33.826 151.502,34.215 153.969 C 35.100 159.575,36.022 160.377,40.239 159.206 C 41.757 158.785,45.136 158.167,47.747 157.835 C 50.358 157.502,52.878 156.979,53.347 156.671 C 53.817 156.364,55.974 155.903,58.141 155.648 C 60.308 155.392,62.863 154.827,63.819 154.391 C 64.774 153.956,66.073 153.600,66.705 153.600 C 68.861 153.600,72.598 152.756,73.600 152.042 C 74.239 151.587,75.719 151.236,77.698 151.070 C 79.402 150.927,82.192 150.370,83.898 149.830 C 85.604 149.291,87.493 148.746,88.095 148.619 C 90.247 148.164,90.547 147.041,90.709 138.847 C 90.823 133.069,91.029 130.774,91.628 128.608 C 92.099 126.905,92.400 124.545,92.400 122.557 C 92.400 118.616,93.021 117.662,94.182 119.818 C 94.591 120.578,95.073 121.200,95.253 121.200 C 95.432 121.200,95.859 121.740,96.200 122.400 C 96.541 123.060,97.073 123.600,97.381 123.600 C 97.690 123.600,98.360 124.124,98.871 124.765 C 100.278 126.528,109.302 133.588,110.179 133.611 C 110.410 133.617,111.307 134.157,112.171 134.811 C 113.035 135.465,114.046 136.000,114.417 136.000 C 114.788 136.000,115.543 136.354,116.093 136.787 C 116.982 137.487,118.367 138.082,124.151 140.250 C 129.005 142.069,146.344 141.796,150.490 139.835 C 151.693 139.266,153.227 138.800,153.898 138.800 C 154.569 138.800,156.112 138.278,157.325 137.639 C 158.539 137.001,160.106 136.353,160.807 136.199 C 161.508 136.045,162.425 135.575,162.845 135.155 C 163.709 134.291,170.477 133.553,170.922 134.274 C 171.053 134.486,170.928 135.660,170.644 136.882 C 170.205 138.770,170.216 139.277,170.714 140.252 C 172.023 142.815,171.115 142.662,186.710 142.954 C 208.849 143.370,213.078 142.835,214.080 139.491 C 214.347 138.600,214.978 137.458,215.483 136.954 C 215.987 136.449,216.400 135.608,216.400 135.085 C 216.400 134.562,216.522 134.011,216.672 133.862 C 216.987 133.546,219.898 136.648,220.211 137.634 C 221.000 140.121,225.983 140.419,228.309 138.118 C 229.809 136.633,230.596 136.400,234.074 136.406 C 238.438 136.414,238.580 136.521,238.238 139.543 C 237.708 144.233,239.215 145.600,244.914 145.600 C 250.430 145.600,259.897 146.299,264.400 147.039 C 268.872 147.774,284.316 148.473,285.232 147.983 C 286.589 147.257,286.887 146.373,287.013 142.717 C 287.157 138.529,287.372 138.273,289.315 139.979 C 290.080 140.651,290.862 141.198,291.053 141.196 C 291.244 141.194,293.650 142.300,296.400 143.654 C 305.890 148.324,306.909 148.800,307.433 148.800 C 307.721 148.800,308.804 149.250,309.838 149.800 C 310.873 150.350,312.029 150.800,312.409 150.800 C 312.788 150.800,314.480 151.251,316.170 151.803 C 322.954 154.017,342.321 154.024,344.794 151.812 C 345.127 151.514,346.452 150.997,347.737 150.663 C 349.023 150.329,350.373 149.795,350.737 149.476 C 351.102 149.157,351.970 148.608,352.666 148.256 C 355.664 146.738,361.076 139.946,362.211 136.277 C 362.496 135.355,363.017 134.039,363.367 133.353 C 363.718 132.668,364.175 131.138,364.383 129.953 C 364.591 128.769,365.040 126.270,365.381 124.400 C 366.089 120.514,366.185 112.968,365.556 110.600 C 365.322 109.720,364.823 107.366,364.448 105.368 C 364.026 103.127,363.444 101.328,362.928 100.671 C 362.467 100.086,361.968 98.954,361.818 98.156 C 361.669 97.359,361.126 95.782,360.611 94.653 C 360.097 93.524,359.462 91.795,359.199 90.811 C 358.936 89.827,358.289 88.508,357.761 87.880 C 356.382 86.241,356.676 83.547,358.291 83.035 C 358.696 82.906,359.320 82.306,359.678 81.701 C 360.036 81.095,361.142 79.700,362.136 78.600 C 364.046 76.487,364.764 75.657,368.010 71.800 C 369.122 70.480,370.269 69.130,370.560 68.800 C 370.851 68.470,371.324 67.750,371.610 67.200 C 371.896 66.650,372.340 66.020,372.596 65.800 C 376.511 62.435,376.577 59.628,372.800 57.167 C 371.590 56.378,370.082 55.388,369.450 54.967 C 365.969 52.647,362.949 50.821,362.578 50.811 C 362.345 50.805,361.535 50.337,360.778 49.771 C 359.365 48.715,348.996 43.552,347.200 43.011 C 346.650 42.845,345.660 42.383,345.000 41.985 C 344.340 41.586,342.720 40.992,341.400 40.664 C 340.080 40.336,338.280 39.805,337.400 39.485 C 335.551 38.813,327.412 38.328,326.141 38.815 M303.000 40.000 C 302.864 40.220,301.908 40.397,300.876 40.394 C 299.517 40.389,299.165 40.281,299.600 40.000 C 300.404 39.480,303.321 39.480,303.000 40.000 M124.371 41.204 C 121.151 41.749,115.427 43.857,112.368 45.623 C 110.736 46.566,108.756 47.670,107.968 48.077 C 107.181 48.483,105.378 49.937,103.963 51.308 C 102.547 52.679,100.888 54.125,100.276 54.521 C 99.664 54.918,98.960 55.689,98.711 56.235 L 98.259 57.227 97.762 56.045 C 96.874 53.934,95.787 53.733,94.144 55.376 C 92.609 56.911,92.610 56.905,93.427 62.306 C 93.627 63.626,93.458 64.575,92.679 66.506 C 88.813 76.093,87.820 91.285,90.690 96.951 C 91.011 97.584,91.543 99.011,91.873 100.122 C 93.150 104.422,99.648 114.088,102.394 115.772 C 102.727 115.976,103.450 116.610,104.000 117.181 C 107.056 120.351,115.832 125.149,120.538 126.222 C 123.386 126.871,123.762 127.072,124.591 128.386 C 127.201 132.521,128.714 133.015,138.600 132.961 C 145.215 132.925,146.074 132.836,149.170 131.861 C 151.024 131.277,152.797 130.800,153.110 130.800 C 154.156 130.800,161.677 127.582,163.012 126.564 C 164.941 125.092,166.746 119.211,165.713 117.760 C 164.919 116.643,162.800 116.040,162.800 116.930 C 162.800 118.061,161.019 119.248,160.210 118.657 C 159.186 117.908,159.695 116.841,161.222 116.536 C 162.069 116.366,162.586 115.957,162.852 115.244 C 163.066 114.670,163.569 113.930,163.970 113.600 C 165.074 112.692,169.265 107.600,168.910 107.598 C 168.740 107.598,166.791 109.443,164.579 111.698 C 162.368 113.954,159.758 116.391,158.779 117.113 C 157.801 117.834,156.460 118.841,155.800 119.348 C 154.438 120.396,151.026 122.036,147.200 123.481 C 145.770 124.022,143.880 124.741,143.000 125.080 C 140.859 125.905,125.513 126.300,121.200 125.642 C 109.966 123.926,96.465 111.562,92.109 99.000 C 89.959 92.801,89.023 81.051,90.292 76.200 C 93.437 64.178,95.530 60.542,104.275 51.910 C 105.774 50.431,107.990 48.703,109.200 48.070 C 110.410 47.438,112.570 46.280,114.000 45.497 C 134.095 34.492,163.182 45.598,172.028 67.652 C 172.502 68.833,173.232 70.700,173.651 71.800 C 174.069 72.900,174.308 73.260,174.182 72.600 C 172.999 66.437,166.600 56.028,161.343 51.717 C 160.326 50.883,158.937 49.705,158.258 49.100 C 157.578 48.495,156.820 48.000,156.573 48.000 C 156.326 48.000,155.809 47.652,155.424 47.226 C 151.419 42.801,134.416 39.503,124.371 41.204 M274.116 53.134 C 274.070 58.120,274.183 62.920,274.367 63.800 C 274.572 64.780,274.671 61.332,274.625 54.908 C 274.583 49.137,274.470 44.337,274.374 44.241 C 274.278 44.145,274.162 48.147,274.116 53.134 M79.867 56.881 C 79.742 57.607,79.437 60.360,79.191 63.000 C 78.944 65.640,78.490 69.690,78.181 72.000 C 77.872 74.310,77.427 79.080,77.193 82.600 C 76.958 86.120,76.416 91.546,75.989 94.657 C 75.561 97.769,74.931 103.799,74.589 108.057 C 74.247 112.316,73.806 116.430,73.608 117.200 C 73.411 117.970,73.050 121.009,72.807 123.954 C 72.355 129.427,71.817 131.242,70.427 131.985 C 68.894 132.806,64.126 134.371,61.200 135.014 C 57.762 135.769,51.138 137.703,48.200 138.810 C 47.100 139.224,45.030 139.832,43.600 140.161 C 42.170 140.489,39.929 141.130,38.620 141.585 C 35.574 142.643,32.506 142.991,31.080 142.438 L 29.960 142.005 30.202 138.702 C 30.336 136.886,30.699 133.960,31.008 132.200 C 31.318 130.440,31.850 126.570,32.191 123.600 C 32.531 120.630,32.975 117.660,33.177 117.000 C 33.379 116.340,33.834 112.110,34.190 107.600 C 34.545 103.090,35.007 98.500,35.217 97.400 C 36.391 91.246,38.824 72.743,38.978 68.800 C 39.169 63.922,39.123 64.133,38.068 73.000 C 37.858 74.760,37.401 78.180,37.051 80.600 C 36.057 87.481,34.754 97.466,34.363 101.200 C 33.297 111.383,32.749 115.684,32.414 116.495 C 32.209 116.993,31.846 119.830,31.606 122.800 C 31.367 125.770,30.914 129.730,30.600 131.600 C 29.132 140.342,29.078 144.000,30.420 144.000 C 31.653 144.000,37.798 142.568,39.802 141.814 C 41.163 141.301,43.339 140.671,44.638 140.414 C 45.937 140.156,47.900 139.609,49.000 139.197 C 51.993 138.078,57.790 136.375,61.400 135.554 C 72.277 133.080,72.566 132.813,73.415 124.460 C 73.742 121.237,74.179 117.790,74.384 116.800 C 74.590 115.810,74.864 113.380,74.992 111.400 C 75.390 105.268,76.053 98.665,76.416 97.200 C 76.607 96.430,77.135 90.940,77.590 85.000 C 78.044 79.060,78.669 73.120,78.978 71.800 C 79.288 70.480,79.730 66.351,79.961 62.624 C 80.369 56.050,80.338 54.167,79.867 56.881 M84.218 57.981 C 83.366 58.870,83.052 59.638,82.946 61.081 C 82.869 62.137,82.522 67.500,82.175 73.000 C 81.828 78.500,81.386 83.720,81.194 84.600 C 81.002 85.480,80.650 88.540,80.412 91.400 C 79.545 101.816,78.768 109.854,78.401 112.200 C 78.194 113.520,77.746 118.920,77.406 124.200 C 77.065 129.480,76.690 134.106,76.572 134.481 C 76.264 135.463,72.518 137.111,68.911 137.853 C 67.200 138.204,65.289 138.754,64.666 139.074 C 64.042 139.394,62.422 139.896,61.066 140.188 C 58.328 140.778,51.979 142.526,49.200 143.454 C 48.210 143.785,46.140 144.371,44.600 144.756 C 40.598 145.758,40.000 146.154,40.000 147.800 C 40.000 150.172,42.550 150.764,46.297 149.261 C 48.054 148.557,50.601 147.873,60.800 145.368 C 66.174 144.048,70.552 142.913,73.800 141.995 C 75.340 141.560,77.365 141.016,78.301 140.786 C 81.199 140.075,81.636 138.476,82.401 125.800 C 82.640 121.840,83.269 113.830,83.798 108.000 C 84.327 102.170,85.055 93.170,85.416 88.000 C 85.777 82.830,86.223 77.700,86.407 76.600 C 87.106 72.437,87.715 59.048,87.258 57.900 C 86.687 56.467,85.642 56.495,84.218 57.981 M360.476 58.141 C 359.968 58.423,359.227 59.149,358.830 59.754 C 358.433 60.360,356.025 63.047,353.478 65.727 C 342.861 76.902,343.658 75.891,344.098 77.628 C 344.494 79.187,345.548 80.177,347.258 80.593 C 348.307 80.849,348.147 80.999,357.030 71.434 C 359.874 68.372,363.064 64.952,364.119 63.834 C 365.498 62.372,365.978 61.575,365.825 61.000 C 365.707 60.560,365.608 59.918,365.605 59.574 C 365.593 58.197,362.123 57.227,360.476 58.141 M32.400 61.422 C 31.410 61.734,28.800 62.341,26.600 62.770 C 24.400 63.199,21.610 63.922,20.400 64.377 L 18.200 65.204 20.200 64.964 C 21.300 64.832,22.800 64.474,23.533 64.168 C 24.266 63.863,26.439 63.340,28.362 63.007 C 30.284 62.673,32.705 62.111,33.742 61.758 C 34.779 61.405,36.238 61.187,36.985 61.274 C 37.733 61.361,38.256 61.290,38.148 61.116 C 37.838 60.615,34.372 60.799,32.400 61.422 M127.532 62.437 C 103.901 66.078,104.879 100.473,128.667 102.357 C 130.464 102.500,131.864 102.504,131.779 102.367 C 131.695 102.230,130.254 102.014,128.579 101.887 C 120.891 101.306,113.886 95.442,111.568 87.648 C 107.153 72.799,120.370 59.853,136.480 63.247 C 145.122 65.067,153.896 76.193,152.394 83.427 C 151.867 85.967,151.585 86.097,150.688 84.215 C 148.387 79.389,138.570 80.657,135.622 86.161 C 135.139 87.062,134.397 88.430,133.973 89.200 C 132.472 91.923,132.871 94.883,135.055 97.217 C 136.075 98.308,137.043 99.200,137.206 99.200 C 137.369 99.200,138.194 99.489,139.040 99.842 L 140.577 100.485 139.389 101.123 C 138.735 101.474,137.390 101.881,136.400 102.027 L 134.600 102.293 136.574 102.347 C 138.979 102.412,142.000 101.101,142.000 99.993 C 142.000 99.588,142.265 98.992,142.590 98.667 C 143.305 97.952,142.687 97.600,140.714 97.600 C 137.291 97.600,133.615 92.214,135.800 90.400 C 136.130 90.126,136.400 89.551,136.400 89.122 C 136.400 88.693,137.160 87.680,138.090 86.871 C 139.019 86.062,140.261 84.905,140.850 84.300 C 143.047 82.043,148.100 83.179,150.038 86.366 C 151.454 88.694,152.553 87.644,153.040 83.500 C 154.415 71.797,140.635 60.418,127.532 62.437 M180.043 64.068 C 179.809 65.241,179.433 67.730,179.209 69.600 C 178.751 73.429,178.455 74.570,177.207 77.333 C 176.155 79.660,176.371 80.188,177.577 78.238 C 178.510 76.727,179.206 73.570,180.141 66.600 C 180.778 61.853,180.731 60.634,180.043 64.068 M26.311 67.411 C 20.759 68.711,19.200 69.792,19.200 72.344 C 19.200 75.050,21.595 75.801,24.906 74.131 C 25.514 73.825,27.132 73.347,28.501 73.070 C 31.109 72.542,32.800 70.989,32.800 69.123 C 32.800 68.351,31.099 66.359,30.518 66.450 C 30.343 66.478,28.450 66.910,26.311 67.411 M273.952 85.033 C 273.847 124.844,273.805 127.342,273.231 128.484 C 272.311 130.314,269.007 130.418,256.400 129.012 C 253.430 128.680,248.750 128.432,246.000 128.460 L 241.000 128.511 246.800 129.024 C 249.990 129.306,255.210 129.815,258.400 130.155 C 266.655 131.035,272.886 131.013,273.703 130.100 C 274.380 129.343,274.964 68.031,274.300 67.367 C 274.135 67.202,273.979 75.152,273.952 85.033 M320.163 68.318 C 321.059 70.033,322.709 71.358,327.000 73.809 C 329.200 75.065,331.270 76.320,331.600 76.598 C 331.930 76.876,332.830 77.421,333.600 77.808 C 334.370 78.196,336.080 79.406,337.400 80.498 C 338.720 81.590,340.610 83.140,341.600 83.942 C 352.730 92.959,355.015 103.061,349.419 118.519 C 346.978 125.264,338.572 135.200,335.307 135.200 C 334.992 135.200,333.534 135.726,332.067 136.369 C 321.236 141.115,307.708 139.080,292.349 130.395 C 284.247 125.813,277.626 116.287,279.269 111.575 C 279.903 109.756,283.987 103.745,285.736 102.057 C 287.423 100.428,288.412 100.453,294.800 102.291 C 301.092 104.102,303.485 104.207,305.000 102.738 C 305.228 102.516,304.916 102.532,304.274 102.775 C 301.744 103.730,294.347 102.431,290.406 100.340 C 287.213 98.645,283.984 101.432,279.075 110.117 C 276.581 114.529,281.265 123.576,288.698 128.704 C 292.549 131.361,301.236 135.997,302.376 136.004 C 302.719 136.006,303.900 136.450,305.000 136.991 C 306.100 137.532,307.328 137.981,307.728 137.987 C 312.961 138.077,317.110 140.326,315.971 142.455 C 314.704 144.822,316.945 145.400,327.400 145.400 C 334.180 145.400,335.614 145.294,336.800 144.708 C 337.570 144.327,339.227 143.664,340.483 143.235 C 354.497 138.446,363.750 120.200,358.947 106.828 C 357.549 102.936,357.173 103.400,356.191 110.233 C 355.814 112.855,355.252 115.497,354.941 116.104 C 354.630 116.711,354.049 118.241,353.649 119.504 C 353.250 120.767,352.400 122.633,351.761 123.652 C 349.134 127.841,347.588 130.000,347.215 130.000 C 346.998 130.000,346.541 130.540,346.200 131.200 C 345.859 131.860,345.356 132.400,345.082 132.400 C 344.809 132.400,343.714 133.120,342.649 134.000 C 340.584 135.707,339.335 136.017,338.917 134.929 C 338.745 134.479,338.975 134.050,339.616 133.629 C 342.797 131.537,347.885 124.822,349.212 120.965 C 349.597 119.846,350.188 118.397,350.524 117.746 C 352.006 114.882,353.364 105.293,352.894 101.025 C 351.989 92.825,344.182 83.091,334.024 77.499 C 329.312 74.905,323.177 70.807,321.499 69.133 C 320.072 67.709,319.739 67.506,320.163 68.318 M137.094 74.035 C 129.048 75.931,121.227 90.277,126.459 93.544 C 127.729 94.337,129.019 92.812,130.388 88.901 C 132.551 82.721,136.820 78.526,141.687 77.796 C 145.144 77.278,145.692 75.976,143.113 74.404 C 141.718 73.553,139.672 73.428,137.094 74.035 M234.800 98.518 C 234.250 98.773,233.534 99.346,233.210 99.791 C 232.885 100.236,230.629 102.760,228.196 105.400 C 225.763 108.040,222.977 111.190,222.004 112.400 C 217.310 118.241,214.904 119.564,213.642 117.000 C 212.160 113.990,209.168 106.909,208.392 104.575 C 207.920 103.159,207.503 102.000,207.465 102.000 C 207.426 102.000,206.811 101.833,206.097 101.628 C 204.430 101.150,204.422 101.480,206.084 102.178 C 207.196 102.646,207.512 103.138,208.445 105.859 C 213.752 121.334,214.342 121.932,219.000 116.568 C 221.683 113.478,223.560 111.379,228.034 106.463 C 230.105 104.188,232.192 101.782,232.671 101.116 C 233.151 100.451,234.096 99.570,234.771 99.159 C 235.447 98.748,236.000 98.319,236.000 98.206 C 236.000 97.955,236.031 97.947,234.800 98.518 M236.835 103.400 C 236.803 105.600,236.523 110.969,236.211 115.330 C 235.375 127.046,235.752 128.462,239.680 128.368 C 241.053 128.336,240.946 128.234,239.107 127.829 C 236.616 127.280,236.446 125.805,237.145 110.800 C 237.355 106.290,237.384 101.880,237.209 101.000 C 236.959 99.736,236.880 100.241,236.835 103.400 M203.265 109.000 C 202.249 117.073,200.689 122.890,199.283 123.847 C 197.282 125.210,172.008 125.769,170.720 124.479 C 170.034 123.792,170.193 117.834,171.001 113.994 C 171.792 110.237,171.712 109.614,170.825 112.615 C 169.636 116.636,169.012 122.899,169.665 124.261 L 170.210 125.400 184.899 125.506 C 201.683 125.628,200.926 125.783,201.384 122.129 C 201.518 121.068,201.977 118.670,202.406 116.800 C 203.306 112.874,204.137 106.784,203.918 105.725 C 203.836 105.326,203.542 106.800,203.265 109.000 M230.161 111.362 C 228.979 112.161,223.782 119.415,222.777 121.669 C 222.152 123.069,222.622 126.892,223.561 128.051 C 224.529 129.247,226.025 128.365,228.210 125.311 C 229.084 124.089,230.340 122.349,231.000 121.444 C 232.156 119.860,232.200 119.643,232.200 115.521 C 232.200 110.683,231.942 110.157,230.161 111.362 M206.621 119.559 C 206.113 120.542,204.800 125.925,204.800 127.026 C 204.800 128.008,202.441 128.419,195.766 128.600 C 181.645 128.983,180.518 129.111,179.573 130.438 C 176.996 134.057,180.225 134.400,203.464 132.977 C 208.235 132.685,208.745 132.341,209.791 128.709 C 210.638 125.770,210.324 123.613,208.609 120.586 L 207.292 118.263 206.621 119.559 M159.167 119.743 C 158.717 120.127,156.400 120.335,156.400 119.990 C 156.400 119.775,157.060 119.600,157.867 119.600 C 158.673 119.600,159.258 119.664,159.167 119.743 M154.480 122.480 C 154.107 122.853,153.893 122.853,153.520 122.480 C 153.147 122.107,153.253 122.000,154.000 122.000 C 154.747 122.000,154.853 122.107,154.480 122.480 M276.388 125.223 C 276.142 125.682,275.995 127.454,276.055 129.227 C 276.206 133.631,276.501 133.486,268.000 133.158 C 252.962 132.578,248.084 132.695,247.575 133.647 C 246.757 135.175,247.824 135.643,253.055 136.056 C 255.665 136.262,259.780 136.687,262.200 137.001 C 274.655 138.615,278.998 138.286,279.394 135.695 C 279.520 134.873,279.785 133.300,279.983 132.200 C 280.901 127.096,280.918 127.363,279.571 125.828 C 278.158 124.219,277.039 124.006,276.388 125.223 M338.400 136.502 C 338.400 137.120,335.804 137.978,334.761 137.706 C 333.009 137.248,334.644 136.073,337.100 136.025 C 337.890 136.010,338.400 136.197,338.400 136.502 M332.000 139.200 C 331.670 139.413,329.420 139.563,327.000 139.534 C 323.725 139.494,323.060 139.408,324.400 139.200 C 327.301 138.749,332.698 138.749,332.000 139.200 " stroke="none" fill="#65a3a7" fill-rule="evenodd"></path><path id="path3" d="M108.206 4.240 C 107.329 4.561,104.539 4.993,102.006 5.201 C 96.951 5.615,95.586 5.822,92.600 6.630 C 91.500 6.928,87.990 7.452,84.800 7.795 C 81.610 8.138,78.280 8.674,77.400 8.986 C 76.520 9.298,73.640 9.758,71.000 10.008 C 68.360 10.258,65.210 10.699,64.000 10.987 C 61.256 11.641,57.336 12.256,52.358 12.813 C 50.246 13.050,47.653 13.503,46.596 13.821 C 45.540 14.139,41.959 14.660,38.638 14.980 C 35.317 15.299,31.815 15.838,30.856 16.178 C 29.896 16.518,26.296 17.075,22.856 17.417 C 19.415 17.758,15.718 18.297,14.640 18.615 C 13.562 18.932,11.132 19.384,9.240 19.619 C 5.072 20.135,5.173 20.043,4.790 23.670 C 4.619 25.282,4.199 28.850,3.856 31.600 C 3.513 34.350,3.048 41.203,2.822 46.828 C 2.290 60.102,1.702 64.800,0.573 64.800 C 0.112 64.800,0.000 65.621,0.000 69.000 C 0.000 71.310,0.135 73.196,0.300 73.191 C 0.465 73.186,2.907 72.938,5.727 72.639 C 13.619 71.804,14.204 72.050,14.678 76.400 L 15.005 79.400 17.411 79.367 C 18.735 79.348,21.127 78.936,22.726 78.450 C 26.607 77.271,30.561 76.904,31.447 77.639 C 32.415 78.443,31.647 93.044,30.432 96.934 C 30.214 97.630,29.743 102.052,29.385 106.760 C 29.027 111.468,28.547 115.788,28.317 116.360 C 28.088 116.932,27.576 121.270,27.180 126.000 C 26.785 130.730,26.180 135.680,25.837 137.000 C 24.987 140.269,24.367 148.985,24.879 150.455 C 25.319 151.717,25.840 151.725,29.000 150.523 C 33.273 148.898,36.000 149.970,36.000 153.275 C 36.000 156.314,36.924 158.154,38.299 157.851 C 38.905 157.718,40.930 157.409,42.800 157.165 C 44.670 156.921,47.190 156.391,48.400 155.987 C 49.610 155.584,52.290 154.972,54.356 154.629 C 56.422 154.286,58.314 153.838,58.560 153.633 C 58.807 153.428,61.077 152.869,63.604 152.391 C 66.132 151.912,69.190 151.199,70.400 150.805 C 71.610 150.411,73.680 149.961,75.000 149.803 C 76.319 149.646,77.870 149.274,78.445 148.976 C 79.021 148.679,81.157 148.131,83.193 147.758 C 88.139 146.853,88.858 146.236,88.992 142.781 C 89.047 141.361,89.312 134.350,89.580 127.200 C 89.847 120.050,90.232 113.786,90.434 113.280 L 90.801 112.360 92.101 113.371 C 92.815 113.927,94.210 115.658,95.200 117.218 C 98.038 121.690,105.305 128.798,110.112 131.804 C 111.164 132.462,112.674 133.495,113.467 134.100 C 114.261 134.705,115.179 135.200,115.508 135.200 C 115.837 135.200,116.667 135.546,117.353 135.968 C 124.068 140.106,136.898 141.127,148.027 138.410 C 150.751 137.744,153.277 137.200,153.641 137.200 C 154.005 137.200,154.518 136.940,154.782 136.622 C 155.046 136.304,156.193 135.739,157.331 135.366 C 158.469 134.994,160.456 134.161,161.746 133.515 C 165.030 131.873,170.595 131.450,171.765 132.754 C 172.538 133.616,172.695 135.663,172.175 138.090 C 171.572 140.900,171.321 140.859,188.655 140.814 C 210.347 140.758,212.486 140.490,212.926 137.781 C 213.150 136.399,214.624 133.690,216.200 131.764 L 217.000 130.787 218.284 131.578 C 218.990 132.013,219.928 133.075,220.368 133.938 C 222.393 137.907,224.833 138.865,227.186 136.616 C 228.558 135.305,230.657 134.937,235.333 135.188 C 240.212 135.451,240.584 135.776,240.202 139.447 C 239.706 144.214,239.401 144.143,265.179 145.217 C 270.778 145.450,276.988 145.796,278.979 145.985 C 284.464 146.507,284.938 146.138,285.200 141.141 C 285.431 136.724,286.938 134.359,288.210 136.416 C 288.598 137.044,291.368 138.731,295.568 140.898 C 297.641 141.968,299.801 143.155,300.368 143.538 C 301.364 144.209,304.837 145.941,309.761 148.224 C 311.829 149.183,314.652 149.881,323.600 151.648 C 327.344 152.387,338.964 151.877,341.468 150.864 C 342.605 150.404,344.391 149.812,345.438 149.549 C 346.484 149.285,348.523 148.267,349.970 147.286 C 360.271 140.298,364.568 129.154,363.573 112.000 C 363.258 106.556,362.993 105.128,361.904 102.977 C 361.576 102.329,361.085 100.854,360.813 99.699 C 360.542 98.543,360.143 97.488,359.927 97.355 C 359.711 97.221,359.177 96.280,358.741 95.263 C 358.306 94.247,357.040 91.840,355.929 89.914 C 353.446 85.612,353.487 84.445,356.225 81.616 C 357.192 80.617,359.292 78.344,360.892 76.565 C 374.119 61.852,375.353 59.906,372.408 58.404 C 371.604 57.994,370.711 57.375,370.424 57.029 C 370.137 56.683,369.699 56.399,369.451 56.398 C 369.203 56.397,368.190 55.846,367.200 55.173 C 366.210 54.501,365.040 53.783,364.600 53.577 C 364.160 53.372,362.630 52.495,361.200 51.627 C 359.770 50.760,356.530 49.012,354.000 47.743 C 351.470 46.474,349.263 45.215,349.095 44.946 C 348.928 44.676,347.820 44.253,346.633 44.007 C 345.446 43.760,344.087 43.222,343.613 42.811 C 343.127 42.389,341.499 41.850,339.876 41.573 C 338.294 41.302,336.439 40.748,335.753 40.341 C 334.455 39.570,328.000 39.225,328.000 39.927 C 328.000 40.106,329.184 40.489,330.631 40.776 C 332.077 41.064,333.562 41.615,333.931 42.002 C 334.560 42.663,337.796 44.157,341.400 45.451 C 342.905 45.992,347.229 47.962,349.000 48.914 C 349.440 49.151,351.330 50.127,353.200 51.084 C 360.028 54.576,359.992 54.872,351.746 62.878 C 343.575 70.811,342.247 71.522,339.473 69.448 C 338.278 68.555,334.795 66.841,330.200 64.884 C 324.070 62.275,319.600 63.086,319.600 66.806 C 319.600 68.193,326.757 73.499,334.024 77.499 C 344.182 83.091,351.989 92.825,352.894 101.025 C 353.364 105.293,352.006 114.882,350.524 117.746 C 350.188 118.397,349.597 119.846,349.212 120.965 C 347.885 124.822,342.797 131.537,339.616 133.629 C 338.975 134.050,338.745 134.479,338.917 134.929 C 339.335 136.017,340.584 135.707,342.649 134.000 C 343.714 133.120,344.809 132.400,345.082 132.400 C 345.356 132.400,345.859 131.860,346.200 131.200 C 346.541 130.540,346.998 130.000,347.215 130.000 C 347.588 130.000,349.134 127.841,351.761 123.652 C 352.400 122.633,353.250 120.767,353.649 119.504 C 354.049 118.241,354.630 116.711,354.941 116.104 C 355.252 115.497,355.814 112.855,356.191 110.233 C 357.173 103.400,357.549 102.936,358.947 106.828 C 363.750 120.200,354.497 138.446,340.483 143.235 C 339.227 143.664,337.570 144.327,336.800 144.708 C 335.614 145.294,334.180 145.400,327.400 145.400 C 316.945 145.400,314.704 144.822,315.971 142.455 C 317.110 140.326,312.961 138.077,307.728 137.987 C 307.328 137.981,306.100 137.532,305.000 136.991 C 303.900 136.450,302.719 136.006,302.376 136.004 C 301.236 135.997,292.549 131.361,288.698 128.704 C 281.265 123.576,276.581 114.529,279.075 110.117 C 283.984 101.432,287.213 98.645,290.406 100.340 C 294.602 102.566,301.910 103.750,304.578 102.635 C 309.463 100.594,308.536 96.713,302.000 91.846 C 299.608 90.064,299.074 89.691,294.000 86.252 C 280.096 76.827,276.399 66.309,282.857 54.543 C 284.820 50.967,290.596 45.318,294.098 43.550 C 296.745 42.214,296.842 41.969,295.190 40.793 L 293.980 39.931 294.990 39.137 C 295.545 38.699,296.000 38.017,296.000 37.620 C 296.000 37.137,296.652 36.618,297.973 36.050 C 299.108 35.561,300.054 34.861,300.200 34.401 C 300.340 33.960,300.592 33.600,300.761 33.600 C 301.092 33.600,304.739 30.891,305.400 30.154 C 305.620 29.909,307.495 28.206,309.566 26.370 L 313.333 23.032 312.166 22.534 C 310.721 21.917,308.668 21.875,306.700 22.421 C 304.998 22.894,305.062 22.785,305.622 24.258 C 306.020 25.305,305.887 25.524,303.322 28.052 C 301.825 29.528,300.420 30.931,300.200 31.169 C 299.980 31.407,298.945 32.385,297.900 33.341 C 296.855 34.297,296.000 35.291,296.000 35.550 C 296.000 35.808,295.548 36.192,294.995 36.402 C 294.442 36.612,293.783 37.238,293.531 37.792 C 293.278 38.346,292.854 38.800,292.587 38.800 C 292.321 38.800,290.595 40.285,288.752 42.100 C 282.030 48.718,280.141 49.041,278.627 43.832 C 278.296 42.694,277.572 41.338,277.019 40.818 C 276.465 40.298,275.899 39.269,275.761 38.532 C 275.559 37.455,274.889 36.331,274.774 36.876 C 274.760 36.944,274.659 57.788,274.550 83.195 C 274.372 124.742,274.288 129.461,273.714 130.095 C 272.902 130.992,266.430 131.025,258.400 130.174 C 255.430 129.859,249.760 129.334,245.800 129.008 C 234.819 128.104,235.255 128.725,236.211 115.330 C 236.804 107.034,236.962 99.687,236.570 98.665 C 236.277 97.902,233.903 99.413,232.635 101.169 C 232.176 101.806,230.105 104.188,228.034 106.463 C 223.560 111.379,221.683 113.478,219.000 116.568 C 214.342 121.932,213.752 121.334,208.445 105.859 C 207.514 103.145,207.195 102.645,206.093 102.182 L 204.818 101.646 204.462 103.123 C 204.266 103.935,203.895 106.642,203.639 109.138 C 203.383 111.633,202.825 115.143,202.398 116.938 C 201.972 118.732,201.515 121.068,201.383 122.129 C 200.927 125.783,201.683 125.628,184.899 125.506 L 170.210 125.400 169.662 124.254 C 168.969 122.808,169.582 117.265,171.062 111.600 C 172.512 106.048,171.752 101.712,170.032 105.725 C 169.286 107.466,165.591 112.267,163.970 113.600 C 163.569 113.930,163.066 114.670,162.852 115.244 C 162.586 115.957,162.069 116.366,161.222 116.536 C 159.695 116.841,159.186 117.908,160.210 118.657 C 161.019 119.248,162.800 118.061,162.800 116.930 C 162.800 116.040,164.919 116.643,165.713 117.760 C 166.746 119.211,164.941 125.092,163.012 126.564 C 161.677 127.582,154.156 130.800,153.110 130.800 C 152.797 130.800,151.024 131.277,149.170 131.861 C 146.074 132.836,145.215 132.925,138.600 132.961 C 128.714 133.015,127.201 132.521,124.591 128.386 C 123.762 127.072,123.386 126.871,120.538 126.222 C 115.832 125.149,107.056 120.351,104.000 117.181 C 103.450 116.610,102.727 115.976,102.394 115.772 C 99.648 114.088,93.150 104.422,91.873 100.122 C 91.543 99.011,91.011 97.584,90.690 96.951 C 87.820 91.285,88.813 76.093,92.679 66.506 C 93.458 64.575,93.627 63.626,93.427 62.306 C 92.610 56.905,92.609 56.911,94.144 55.376 C 95.787 53.733,96.874 53.934,97.762 56.045 L 98.259 57.227 98.711 56.235 C 98.960 55.689,99.664 54.918,100.276 54.521 C 100.888 54.125,102.547 52.679,103.963 51.308 C 105.378 49.937,107.181 48.483,107.968 48.077 C 108.756 47.670,110.750 46.558,112.400 45.604 C 121.496 40.348,135.556 39.168,146.082 42.776 C 150.357 44.242,154.511 46.218,155.414 47.215 C 155.804 47.647,156.326 48.000,156.573 48.000 C 156.820 48.000,157.578 48.495,158.258 49.100 C 158.937 49.705,160.326 50.883,161.343 51.717 C 162.361 52.551,164.229 54.531,165.494 56.117 C 171.567 63.724,173.784 68.787,175.246 78.384 L 175.701 81.368 176.684 78.784 C 177.225 77.363,177.908 75.563,178.202 74.786 C 178.497 74.008,179.026 71.147,179.380 68.429 C 179.734 65.710,180.099 63.364,180.191 63.214 C 180.464 62.773,181.582 57.233,182.011 54.200 C 182.229 52.660,182.758 49.780,183.186 47.800 C 183.614 45.820,184.258 42.330,184.616 40.044 C 185.680 33.262,184.822 33.686,198.513 33.173 C 204.281 32.956,210.925 32.626,213.278 32.439 C 220.369 31.876,222.071 32.483,223.013 35.910 C 223.359 37.169,223.793 38.569,223.977 39.020 C 224.160 39.471,224.522 40.911,224.781 42.220 C 225.532 46.024,227.624 52.129,228.474 53.000 C 229.342 53.890,230.965 52.476,232.835 49.200 C 233.274 48.430,234.481 46.681,235.517 45.312 C 238.467 41.416,242.335 35.992,243.729 33.800 C 245.891 30.398,246.696 30.180,256.600 30.313 C 268.355 30.470,271.709 30.574,272.400 30.802 C 273.069 31.023,273.440 29.009,273.030 27.379 C 272.824 26.557,272.690 26.511,271.649 26.904 C 270.822 27.216,266.666 27.222,256.948 26.926 C 240.544 26.426,242.300 25.782,236.586 34.387 C 232.596 40.395,230.320 40.599,229.731 35.000 C 229.501 32.814,228.117 28.124,227.445 27.252 C 226.821 26.443,207.966 27.155,197.000 28.402 C 195.020 28.627,190.992 28.982,188.049 29.190 C 180.952 29.693,180.945 29.700,179.797 37.200 C 179.444 39.510,178.887 41.938,178.560 42.596 C 178.233 43.254,177.780 45.144,177.554 46.796 C 177.207 49.329,176.395 51.600,175.837 51.600 C 175.232 51.600,173.013 50.305,171.037 48.800 C 167.466 46.079,165.741 44.892,164.304 44.165 C 163.587 43.803,162.640 43.190,162.200 42.802 C 161.760 42.415,160.736 41.886,159.925 41.626 C 159.114 41.367,158.030 40.824,157.516 40.420 C 157.002 40.016,155.610 39.396,154.423 39.044 C 153.235 38.691,151.846 38.129,151.336 37.795 C 149.568 36.636,140.345 35.400,133.469 35.400 C 125.303 35.400,125.834 36.001,126.183 27.137 C 126.466 19.933,126.310 19.333,123.949 18.584 C 122.721 18.194,121.598 15.922,121.854 14.344 C 122.190 12.277,120.683 10.560,119.071 11.173 C 115.388 12.573,113.600 11.322,113.600 7.344 C 113.600 3.354,112.444 2.689,108.206 4.240 M109.114 8.800 C 109.675 9.853,109.634 11.486,108.790 21.787 C 108.556 24.640,108.194 27.734,107.986 28.662 C 107.778 29.591,107.349 33.647,107.033 37.675 C 106.717 41.704,106.348 45.284,106.213 45.632 C 105.927 46.366,101.575 48.122,98.423 48.774 C 97.225 49.022,94.435 49.764,92.223 50.423 C 90.010 51.082,87.210 51.895,86.000 52.230 C 80.260 53.820,80.562 53.301,79.972 62.600 C 79.735 66.340,79.288 70.480,78.978 71.800 C 78.669 73.120,78.044 79.060,77.590 85.000 C 77.135 90.940,76.607 96.430,76.416 97.200 C 76.053 98.665,75.390 105.268,74.992 111.400 C 74.864 113.380,74.590 115.810,74.384 116.800 C 74.179 117.790,73.742 121.237,73.415 124.460 C 72.566 132.813,72.277 133.080,61.400 135.554 C 57.790 136.375,51.993 138.078,49.000 139.197 C 47.900 139.609,45.937 140.156,44.638 140.414 C 43.339 140.671,41.163 141.301,39.802 141.814 C 37.798 142.568,31.653 144.000,30.420 144.000 C 29.078 144.000,29.132 140.342,30.600 131.600 C 30.914 129.730,31.367 125.770,31.606 122.800 C 31.846 119.830,32.211 116.989,32.418 116.486 C 32.800 115.561,33.166 112.739,34.219 102.600 C 34.539 99.520,34.962 96.100,35.158 95.000 C 35.355 93.900,35.811 90.300,36.171 87.000 C 36.532 83.700,37.077 79.560,37.383 77.800 C 40.027 62.603,39.360 59.768,33.620 61.793 C 32.696 62.119,30.348 62.662,28.403 63.000 C 26.458 63.337,24.266 63.860,23.533 64.161 C 22.800 64.463,20.850 64.923,19.200 65.184 C 17.550 65.445,15.164 66.005,13.898 66.429 C 6.777 68.814,6.777 68.815,8.011 47.000 C 9.399 22.454,8.877 24.473,14.042 23.700 C 22.170 22.485,28.024 21.462,30.916 20.752 C 32.629 20.331,36.229 19.707,38.916 19.366 C 41.602 19.025,45.240 18.407,47.000 17.994 C 48.760 17.580,51.820 17.039,53.800 16.791 C 55.780 16.543,58.898 15.993,60.729 15.570 C 62.560 15.147,65.710 14.619,67.729 14.397 C 71.639 13.966,75.041 13.375,77.000 12.787 C 77.660 12.589,80.450 12.151,83.200 11.813 C 85.950 11.476,89.010 10.958,90.000 10.662 C 90.990 10.367,94.230 9.802,97.200 9.408 C 100.170 9.013,103.410 8.454,104.400 8.164 C 107.008 7.401,108.475 7.599,109.114 8.800 M270.000 17.800 C 270.000 18.887,270.035 18.915,270.960 18.560 C 271.439 18.376,271.490 18.142,271.179 17.560 C 270.607 16.491,270.000 16.615,270.000 17.800 M116.171 17.829 C 116.918 18.575,116.932 19.336,116.387 29.387 C 115.883 38.683,115.919 38.516,114.188 39.836 C 112.804 40.892,112.770 40.897,111.944 40.154 C 110.938 39.250,110.948 20.743,111.954 18.877 C 112.802 17.307,115.083 16.740,116.171 17.829 M277.600 17.965 L 276.200 18.225 277.800 18.508 C 279.860 18.873,283.974 18.832,284.983 18.438 C 286.511 17.840,280.386 17.448,277.600 17.965 M291.000 20.395 C 290.025 20.772,291.361 21.036,296.044 21.392 C 298.782 21.600,301.668 21.134,301.108 20.575 C 300.761 20.228,291.844 20.069,291.000 20.395 M299.600 40.000 C 299.165 40.281,299.517 40.389,300.876 40.394 C 301.908 40.397,302.864 40.220,303.000 40.000 C 303.321 39.480,300.404 39.480,299.600 40.000 M87.258 57.900 C 87.715 59.048,87.106 72.437,86.407 76.600 C 86.223 77.700,85.777 82.830,85.416 88.000 C 85.055 93.170,84.327 102.170,83.798 108.000 C 83.269 113.830,82.640 121.840,82.401 125.800 C 81.636 138.476,81.199 140.075,78.301 140.786 C 77.365 141.016,75.340 141.560,73.800 141.995 C 70.552 142.913,66.174 144.048,60.800 145.368 C 50.601 147.873,48.054 148.557,46.297 149.261 C 42.550 150.764,40.000 150.172,40.000 147.800 C 40.000 146.154,40.598 145.758,44.600 144.756 C 46.140 144.371,48.210 143.785,49.200 143.454 C 51.979 142.526,58.328 140.778,61.066 140.188 C 62.422 139.896,64.042 139.394,64.666 139.074 C 65.289 138.754,67.200 138.204,68.911 137.853 C 72.518 137.111,76.264 135.463,76.572 134.481 C 76.690 134.106,77.065 129.480,77.406 124.200 C 77.746 118.920,78.194 113.520,78.401 112.200 C 78.768 109.854,79.545 101.816,80.412 91.400 C 80.650 88.540,81.002 85.480,81.194 84.600 C 81.386 83.720,81.828 78.500,82.175 73.000 C 82.522 67.500,82.869 62.137,82.946 61.081 C 83.190 57.739,86.285 55.455,87.258 57.900 M364.186 58.274 C 364.964 58.645,365.602 59.230,365.605 59.574 C 365.608 59.918,365.707 60.560,365.825 61.000 C 365.978 61.575,365.498 62.372,364.119 63.834 C 363.064 64.952,359.874 68.372,357.030 71.434 C 348.147 80.999,348.307 80.849,347.258 80.593 C 345.548 80.177,344.494 79.187,344.098 77.628 C 343.658 75.891,342.861 76.902,353.478 65.727 C 356.025 63.047,358.433 60.360,358.830 59.754 C 360.216 57.641,361.889 57.179,364.186 58.274 M125.245 63.432 C 103.843 69.188,107.074 99.698,129.329 101.995 C 133.858 102.462,137.204 102.188,139.192 101.188 L 140.585 100.488 139.043 99.844 C 138.196 99.490,137.369 99.200,137.206 99.200 C 137.043 99.200,136.075 98.308,135.055 97.217 C 132.871 94.883,132.472 91.923,133.973 89.200 C 134.397 88.430,135.139 87.062,135.622 86.161 C 138.570 80.657,148.387 79.389,150.688 84.215 C 151.585 86.097,151.867 85.967,152.394 83.427 C 153.896 76.193,145.122 65.067,136.480 63.247 C 133.580 62.636,127.855 62.730,125.245 63.432 M31.818 67.382 C 33.932 69.496,32.296 72.302,28.501 73.070 C 27.132 73.347,25.514 73.825,24.906 74.131 C 20.957 76.122,18.049 74.265,19.440 70.641 C 19.964 69.274,25.226 67.284,30.518 66.450 C 30.693 66.423,31.278 66.842,31.818 67.382 M143.113 74.404 C 145.692 75.976,145.144 77.278,141.687 77.796 C 136.820 78.526,132.551 82.721,130.388 88.901 C 127.777 96.363,123.315 94.938,125.413 87.311 C 128.094 77.569,137.297 70.857,143.113 74.404 M232.200 115.521 C 232.200 119.643,232.156 119.860,231.000 121.444 C 230.340 122.349,229.084 124.089,228.210 125.311 C 225.050 129.728,223.159 129.609,222.577 124.958 C 222.240 122.256,222.401 121.864,226.087 116.400 C 230.923 109.233,232.200 109.050,232.200 115.521 M210.189 124.664 C 210.985 129.973,208.820 132.649,203.464 132.977 C 180.225 134.400,176.996 134.057,179.573 130.438 C 180.518 129.111,181.645 128.983,195.766 128.600 C 202.441 128.419,204.800 128.008,204.800 127.026 C 204.800 125.925,206.113 120.542,206.621 119.559 L 207.292 118.263 208.609 120.586 C 209.333 121.864,210.044 123.699,210.189 124.664 M156.400 119.990 C 156.400 120.214,156.953 120.275,157.700 120.133 C 159.523 119.786,159.581 119.600,157.867 119.600 C 157.060 119.600,156.400 119.775,156.400 119.990 M153.520 122.480 C 153.893 122.853,154.107 122.853,154.480 122.480 C 154.853 122.107,154.747 122.000,154.000 122.000 C 153.253 122.000,153.147 122.107,153.520 122.480 M279.571 125.828 C 280.918 127.363,280.901 127.096,279.983 132.200 C 279.785 133.300,279.520 134.873,279.394 135.695 C 278.998 138.286,274.655 138.615,262.200 137.001 C 259.780 136.687,255.665 136.262,253.055 136.056 C 247.824 135.643,246.757 135.175,247.575 133.647 C 248.084 132.695,252.962 132.578,268.000 133.158 C 276.501 133.486,276.206 133.631,276.055 129.227 C 275.887 124.280,277.144 123.064,279.571 125.828 M334.900 136.412 C 332.803 137.256,334.636 138.182,336.961 137.455 C 337.753 137.207,338.400 136.778,338.400 136.502 C 338.400 135.919,336.264 135.864,334.900 136.412 M324.400 139.200 C 323.060 139.408,323.725 139.494,327.000 139.534 C 329.420 139.563,331.670 139.413,332.000 139.200 C 332.698 138.749,327.301 138.749,324.400 139.200 " stroke="none" fill="#211f20" fill-rule="evenodd"></path><path id="path4" d="M104.200 9.051 C 103.540 9.138,100.750 9.495,98.000 9.844 C 95.250 10.192,91.560 10.809,89.800 11.213 C 88.040 11.618,84.890 12.149,82.800 12.394 C 80.710 12.638,78.257 13.090,77.348 13.398 C 76.440 13.706,73.200 14.238,70.148 14.580 C 67.097 14.923,63.430 15.483,62.000 15.827 C 60.570 16.170,56.997 16.883,54.059 17.411 C 51.122 17.940,48.422 18.459,48.059 18.567 C 47.697 18.674,44.340 19.134,40.600 19.590 C 36.860 20.046,33.402 20.587,32.916 20.793 C 31.454 21.413,20.457 23.585,16.600 24.016 C 9.298 24.831,9.885 23.415,8.984 42.400 C 8.614 50.210,8.217 58.340,8.103 60.466 C 7.743 67.186,10.542 67.883,21.800 63.876 C 22.680 63.562,24.735 63.081,26.368 62.805 C 28.000 62.530,30.519 61.966,31.966 61.552 C 38.511 59.681,39.468 60.632,39.056 68.600 C 38.842 72.752,36.342 91.503,35.217 97.400 C 35.007 98.500,34.545 103.090,34.190 107.600 C 33.834 112.110,33.379 116.340,33.177 117.000 C 32.975 117.660,32.531 120.630,32.191 123.600 C 31.850 126.570,31.318 130.440,31.008 132.200 C 30.699 133.960,30.336 136.886,30.202 138.702 L 29.960 142.005 31.080 142.438 C 32.506 142.991,35.574 142.643,38.620 141.585 C 39.929 141.130,42.170 140.489,43.600 140.161 C 45.030 139.832,47.100 139.224,48.200 138.810 C 51.138 137.703,57.762 135.769,61.200 135.014 C 64.126 134.371,68.894 132.806,70.427 131.985 C 71.817 131.242,72.355 129.427,72.807 123.954 C 73.050 121.009,73.411 117.970,73.608 117.200 C 73.806 116.430,74.247 112.316,74.589 108.057 C 74.931 103.799,75.561 97.769,75.989 94.657 C 76.416 91.546,76.958 86.120,77.193 82.600 C 77.427 79.080,77.873 74.310,78.183 72.000 C 78.493 69.690,78.955 65.550,79.209 62.800 C 79.803 56.390,80.255 54.572,81.496 53.596 C 82.750 52.609,92.666 49.453,97.680 48.444 C 105.221 46.927,105.976 46.086,106.434 38.689 C 107.019 29.257,107.648 22.698,108.432 17.850 C 109.740 9.762,109.088 8.406,104.200 9.051 M272.094 19.700 C 270.306 21.603,270.275 25.935,272.052 25.470 C 272.977 25.229,273.727 27.424,273.532 29.800 C 273.412 31.256,273.310 31.386,272.400 31.240 C 271.850 31.153,266.323 31.012,260.119 30.928 C 246.643 30.747,246.748 30.721,244.133 34.800 C 243.216 36.230,241.551 38.501,240.433 39.848 C 239.315 41.194,238.400 42.471,238.400 42.686 C 238.400 42.901,237.331 44.350,236.025 45.905 C 234.719 47.461,233.280 49.458,232.829 50.344 C 229.641 56.592,227.148 54.060,223.813 41.191 C 221.734 33.170,220.939 32.530,213.923 33.223 C 212.095 33.404,205.950 33.662,200.267 33.797 C 185.811 34.140,185.921 34.074,184.622 43.201 C 183.731 49.468,182.505 55.883,181.375 60.200 C 180.857 62.180,180.147 66.050,179.797 68.800 C 178.989 75.163,178.621 76.523,177.017 79.100 L 175.709 81.200 175.217 78.700 C 173.375 69.351,170.783 63.714,164.963 56.400 C 153.467 41.955,129.739 36.878,114.000 45.497 C 112.570 46.280,110.410 47.438,109.200 48.070 C 107.990 48.703,105.774 50.431,104.275 51.910 C 95.530 60.542,93.437 64.178,90.292 76.200 C 89.023 81.051,89.959 92.801,92.109 99.000 C 96.465 111.562,109.966 123.926,121.200 125.642 C 125.513 126.300,140.859 125.905,143.000 125.080 C 143.880 124.741,145.770 124.022,147.200 123.481 C 151.026 122.036,154.438 120.396,155.800 119.348 C 156.460 118.841,157.797 117.834,158.770 117.113 C 161.605 115.012,169.595 106.728,170.234 105.229 C 171.753 101.666,172.332 107.684,171.059 113.800 C 170.196 117.948,170.011 123.769,170.720 124.479 C 171.282 125.042,187.570 125.337,194.520 124.910 C 200.574 124.538,201.411 122.947,203.416 108.000 C 204.240 101.854,204.533 101.205,206.268 101.668 C 207.387 101.966,207.638 102.311,208.393 104.579 C 209.169 106.910,212.161 113.992,213.642 117.000 C 214.904 119.564,217.310 118.241,222.004 112.400 C 222.977 111.190,225.763 108.040,228.196 105.400 C 230.629 102.760,232.885 100.237,233.210 99.794 C 233.941 98.795,236.004 97.844,236.457 98.297 C 237.310 99.150,237.523 102.972,237.152 110.800 C 236.275 129.302,235.483 127.939,247.400 128.432 C 251.800 128.614,257.560 129.040,260.200 129.378 C 268.625 130.458,272.369 130.194,273.241 128.459 C 273.813 127.322,273.789 129.046,273.980 74.400 C 274.089 43.315,274.612 32.758,275.758 38.489 C 276.036 39.879,279.742 44.000,280.714 44.000 C 281.589 44.000,284.687 41.694,285.835 40.189 C 286.418 39.425,287.107 38.800,287.366 38.800 C 287.967 38.800,290.800 35.917,290.800 35.306 C 290.800 35.053,291.143 34.605,291.563 34.311 C 293.422 33.009,298.660 27.811,299.254 26.679 C 300.733 23.858,298.527 22.150,292.408 21.377 C 291.203 21.224,289.493 20.843,288.608 20.530 C 287.201 20.032,276.809 18.804,273.970 18.801 C 273.403 18.801,272.559 19.205,272.094 19.700 M37.600 26.539 L 37.600 27.878 32.900 28.194 C 27.463 28.559,25.759 28.529,24.904 28.050 C 23.911 27.495,28.434 27.098,32.190 27.411 L 35.512 27.687 36.431 26.444 C 37.573 24.898,37.600 24.901,37.600 26.539 M21.986 29.796 C 21.978 30.018,21.714 30.650,21.400 31.200 C 21.050 31.811,20.823 33.353,20.814 35.167 C 20.795 39.227,20.322 38.446,20.176 34.114 C 20.015 29.304,20.222 28.282,21.229 28.911 C 21.653 29.176,21.994 29.574,21.986 29.796 M310.310 38.373 C 307.667 38.559,306.697 38.786,306.310 39.310 C 306.030 39.690,304.461 40.371,302.823 40.823 C 301.186 41.275,299.386 41.899,298.823 42.209 C 298.261 42.520,296.603 43.300,295.141 43.943 C 291.895 45.371,284.876 52.054,282.877 55.621 C 280.059 60.648,279.916 69.127,282.561 74.309 C 283.529 76.206,290.545 83.436,292.324 84.369 C 292.832 84.636,294.632 85.881,296.324 87.137 C 298.016 88.393,300.463 90.136,301.762 91.010 C 304.034 92.540,307.955 96.729,308.042 97.721 C 308.522 103.148,303.590 104.910,295.000 102.379 C 288.445 100.448,287.438 100.413,285.736 102.057 C 283.987 103.745,279.903 109.756,279.269 111.575 C 277.626 116.287,284.247 125.813,292.349 130.395 C 301.528 135.586,306.482 137.480,313.329 138.418 C 318.750 139.160,328.008 138.148,332.067 136.369 C 333.534 135.726,334.992 135.200,335.307 135.200 C 338.572 135.200,346.978 125.264,349.419 118.519 C 355.015 103.061,352.730 92.959,341.600 83.942 C 340.610 83.140,338.720 81.590,337.400 80.498 C 336.080 79.406,334.370 78.196,333.600 77.808 C 332.830 77.421,331.930 76.876,331.600 76.598 C 331.270 76.320,329.200 75.065,327.000 73.809 C 320.980 70.371,318.937 68.016,319.658 65.350 C 320.206 63.328,320.935 62.997,324.763 63.029 L 328.200 63.058 334.432 66.129 C 343.064 70.383,344.005 70.192,350.800 62.803 C 352.670 60.769,354.691 58.608,355.292 58.000 C 357.999 55.259,357.698 54.364,353.253 51.937 C 351.574 51.020,349.722 49.939,349.138 49.535 C 348.554 49.131,347.820 48.800,347.506 48.800 C 347.192 48.800,346.050 48.346,344.968 47.791 C 340.723 45.615,329.635 41.175,326.470 40.385 C 324.720 39.948,324.642 38.899,326.349 38.739 C 330.964 38.307,316.072 37.967,310.310 38.373 M249.023 42.748 C 248.164 43.607,247.215 42.746,247.990 41.812 C 248.393 41.327,248.631 41.293,249.073 41.661 C 249.560 42.065,249.553 42.218,249.023 42.748 M196.491 42.224 C 196.892 42.625,195.579 44.760,194.428 45.580 C 193.810 46.020,193.154 46.970,192.970 47.690 C 192.662 48.897,192.625 48.820,192.498 46.695 C 192.317 43.681,194.973 40.707,196.491 42.224 M212.519 42.253 C 213.646 43.379,211.961 43.856,208.721 43.329 C 206.894 43.031,204.725 42.897,203.900 43.029 C 202.096 43.319,199.106 42.875,199.422 42.365 C 199.672 41.959,212.119 41.853,212.519 42.253 M19.404 43.462 C 20.217 44.274,19.897 46.733,18.877 47.515 C 17.914 48.254,17.424 46.968,17.775 44.626 C 18.071 42.654,18.378 42.435,19.404 43.462 M244.099 48.196 C 243.992 48.755,243.746 49.310,243.552 49.430 C 243.153 49.676,243.062 47.471,243.456 47.078 C 243.946 46.587,244.291 47.188,244.099 48.196 M242.000 51.775 C 242.000 53.209,240.969 53.863,240.396 52.793 C 240.024 52.097,240.067 51.789,240.622 51.176 C 241.444 50.267,242.000 50.508,242.000 51.775 M126.181 51.264 C 128.156 52.164,126.271 52.916,123.100 52.494 C 120.845 52.194,121.817 51.292,124.881 50.841 C 125.036 50.819,125.621 51.009,126.181 51.264 M116.942 52.469 C 116.471 52.698,115.924 53.245,115.728 53.685 C 115.317 54.604,112.743 55.615,111.584 55.312 C 110.279 54.971,110.696 54.425,112.664 53.898 C 113.819 53.589,114.597 53.134,114.710 52.700 C 114.844 52.188,115.284 52.007,116.347 52.027 C 117.643 52.051,117.707 52.099,116.942 52.469 M190.692 55.800 C 190.648 58.579,190.494 59.600,190.122 59.600 C 189.625 59.600,189.673 57.047,190.240 53.300 C 190.589 50.993,190.754 51.909,190.692 55.800 M109.334 56.668 C 109.481 56.815,109.350 57.220,109.042 57.568 C 108.734 57.915,108.417 58.560,108.336 59.000 C 108.251 59.464,107.897 59.779,107.495 59.750 C 107.113 59.723,106.395 59.666,105.900 59.625 L 105.000 59.549 105.919 59.181 C 106.424 58.978,107.027 58.269,107.258 57.606 C 107.652 56.476,108.679 56.012,109.334 56.668 M103.594 63.100 C 103.587 64.335,102.985 65.519,102.574 65.107 C 102.192 64.725,102.757 62.000,103.218 62.000 C 103.428 62.000,103.597 62.495,103.594 63.100 M136.688 62.854 C 147.054 64.828,156.212 79.041,152.164 86.870 C 151.566 88.026,151.513 88.045,150.771 87.374 C 150.021 86.695,150.000 86.722,150.000 88.351 C 150.000 91.468,145.920 97.200,143.701 97.200 C 143.231 97.200,142.736 97.380,142.600 97.600 C 142.464 97.820,142.556 98.000,142.805 98.000 C 143.066 98.000,142.992 98.265,142.629 98.629 C 142.283 98.974,142.000 99.588,142.000 99.993 C 142.000 102.547,129.910 103.509,123.932 101.430 C 117.238 99.102,112.520 93.968,110.956 87.309 C 107.199 71.307,119.531 59.587,136.688 62.854 M101.013 69.091 C 100.887 69.591,100.518 70.000,100.192 70.000 C 99.867 70.000,99.600 70.354,99.600 70.786 C 99.600 71.727,98.157 72.669,97.897 71.897 C 97.617 71.063,98.036 70.084,98.753 69.896 C 99.127 69.799,99.685 68.954,99.993 68.021 C 100.611 66.148,101.514 67.095,101.013 69.091 M160.419 86.800 C 161.607 86.800,161.611 88.482,160.424 89.833 C 159.751 90.600,159.197 91.627,159.194 92.114 C 159.177 94.507,158.408 94.043,158.343 91.600 C 158.225 87.212,158.449 86.180,159.436 86.558 C 159.782 86.691,160.224 86.800,160.419 86.800 M156.922 96.690 C 156.549 99.119,156.361 99.600,155.786 99.600 C 155.457 99.600,154.875 100.275,154.494 101.100 C 153.659 102.904,153.305 103.197,152.000 103.158 C 151.121 103.131,151.157 103.083,152.300 102.752 C 153.395 102.436,153.600 102.187,153.600 101.176 C 153.600 100.477,153.851 99.879,154.200 99.745 C 154.530 99.618,154.800 99.320,154.800 99.083 C 154.800 98.299,156.467 95.194,156.783 95.389 C 156.953 95.495,157.016 96.080,156.922 96.690 M149.373 105.587 C 149.160 105.800,148.575 105.866,148.071 105.735 L 147.157 105.495 148.078 105.010 C 149.069 104.487,150.040 104.920,149.373 105.587 M145.885 107.447 C 146.058 107.974,144.207 108.400,141.740 108.400 C 140.231 108.400,139.926 108.542,139.600 109.400 C 139.298 110.195,138.942 110.400,137.865 110.400 C 136.636 110.400,136.529 110.307,136.702 109.400 C 136.816 108.805,137.166 108.400,137.567 108.400 C 137.937 108.400,138.411 108.233,138.620 108.028 C 139.545 107.124,145.620 106.638,145.885 107.447 M341.196 114.700 C 341.189 118.268,340.814 119.903,339.953 120.128 C 339.509 120.244,339.200 120.679,339.200 121.189 C 339.200 122.386,338.488 123.600,337.786 123.600 C 337.464 123.600,337.200 123.811,337.200 124.069 C 337.200 125.552,334.617 126.630,334.126 125.350 C 333.872 124.689,334.665 124.002,336.154 123.593 C 336.626 123.463,337.135 122.676,337.512 121.493 C 337.929 120.188,338.334 119.600,338.815 119.600 C 339.740 119.600,340.000 118.810,340.000 116.000 C 340.000 114.716,340.109 113.381,340.243 113.033 C 340.752 111.706,341.200 112.490,341.196 114.700 M334.000 126.613 C 334.000 127.316,333.517 127.545,331.721 127.694 C 329.878 127.847,329.926 127.157,331.800 126.578 C 333.959 125.911,334.000 125.912,334.000 126.613 M329.200 129.200 C 329.200 129.420,328.480 129.600,327.600 129.600 C 326.720 129.600,326.000 129.420,326.000 129.200 C 326.000 128.980,326.720 128.800,327.600 128.800 C 328.480 128.800,329.200 128.980,329.200 129.200 " stroke="none" fill="#f24b9d" fill-rule="evenodd"></path></g></svg>