<svg xmlns="http://www.w3.org/2000/svg" viewBox="0 0 250 250"><title>Grocery</title><polygon points="45.93 107.56 35.87 124.78 46.24 142.15 55.84 125.24 45.93 107.56 45.93 107.56" style="fill:#fff;fill-rule:evenodd"/><path d="M165.12,138.5c.61,0,.91,1.07-.3,1.07.46,0-4,0-7.62-.15-2.74,0-5.94.15-6.86.15h-.46c-.91,0-1.07-1.07,0-1.07,3-.15,3.35-.91,4.57-2.74,0,0,9.75-17.38,10.21-18.14.3-.61.91-2.44-.3-2.44h-2c-.91,0-.91-1.07,0-1.07.76-.15,16.61,0,16.61,0,4,0,9,.91,7.47,6.25-1.07,4-2.74,7.93-8.54,9.6-3,.91-10.82.46-12.65.46h.46L161.92,137c-.76,1.52,3.2,1.52,3.2,1.52ZM166.64,128s.15.46.3.46c.3,0,5.49.76,7-1.22,1.68-1.83,4-6.4,4.72-8.53.76-1.83-.15-3-2-3h-2.59l-.46.15-7,12.19Z" style="fill:#ec1c24;fill-rule:evenodd"/><path d="M189.2,131.18c-5.49,0-6.1,4.12-6.1,5.18a4.72,4.72,0,0,0,1.52,3.35c1.68,1.68,5,2.44,6.55,2.44,4.27,0,7.32-.76,9.75-5,2.13-3.81-1.07-6.55-3-7.93-4.42-3.2-7.77-5.64-7-9.14,1.07-4.72,4.57-6.86,10.06-7.16a18.9,18.9,0,0,1,6.25.76l3.2.76s2.9.15,4.11-.61l.46.46a24.17,24.17,0,0,0-4.27,7.77h-.61a14,14,0,0,0,.15-2.44c-.15-2.74-1.83-5-5.94-5-1.83,0-4.27.46-5,2.74-1.37,4,2.74,4.88,6.86,9,2.74,2.9,4.57,5.49,2.13,9.75-3.2,5.49-10.21,7.47-16,7.62-4.72.15-8.08-2.13-8.84-3a6.54,6.54,0,0,1-2-4.27c0-2.74,2.29-6.55,7.77-6.55,1.83,0,7.16.61,7.16,4.27,0,3.35-2.59,4.12-4.27,4.12-1.52,0-4-.76-4-2.9,0-1.52.3-2.44,2.44-2.74,1.37,0,2.59,1.07,2.59-.3,0-.46-1.68-1.07-4-1.07Z" style="fill:#ec1c24;fill-rule:evenodd"/><path d="M110.71,139.71l-7.62-.15H95.77c-1.07,0-1.37-1.07.15-1.07,3,0,3.2-1.37,4-2.29l14.48-24.84a47.84,47.84,0,0,0-10.82-1.68c-5.33-.3-7.77,1.07-9.14,2.29a6.41,6.41,0,0,0-2.74,5c.15,4.73,5,5.64,6.86,4.42.15,0,.76-.76-.15-1.22-1.37-.46-2.59-.61-2.59-2.9,0-1.52,2-3.35,5.49-2.44,4.72,1.22,3.66,8.84-3.66,8.84-5.64,0-7.62-3.66-7.62-7.16,0-2.74,1.52-5.18,4.12-7.16,0,0,5.94-5,19.81-3.35,7.93.91,19.51,4.42,24.23.46.15-.15.3.15.3.15-5.18,7.16-16.61,5.33-16.61,5.33l-14.17,25.15c-.3,1.22,1.52,1.37,3.2,1.37.76,0,.46,1.22-.15,1.22Z" style="fill:#ec1c24;fill-rule:evenodd"/><path d="M35,125.08l4.88,8.23h2l-5.18-8.84,9.3-15.85,9.14,16.46-8.69,16-4.57-7.77h-2c0,.15,5.94,10.21,5.94,10.21H64.22L75.5,125.08,64.22,106.79H45.78L35,125.08Z" style="fill:#ec1c24;fill-rule:evenodd"/><path d="M152.32,123.86c-.91,7.16-6.71,11.58-12.5,14.33a18.36,18.36,0,0,1-8.69,1.68c-5.33,0-10.52-3.81-8.38-12.19a19.83,19.83,0,0,1,11.58-13.26,20.45,20.45,0,0,1,8.08-1.52c5.94-.15,10.82,4,9.91,11Zm-14-7.16c-1.83,2.29-8.53,12-10.21,18-.61,2,0,3,2.9,3,4,0,4.88-1.83,6.86-4.88,2.29-3.66,6.86-10.52,8.08-13.87.91-2.74.46-3.81-2.44-4.27a6.12,6.12,0,0,0-5.18,2Z" style="fill:#ec1c24;fill-rule:evenodd"/></svg>