<svg xmlns="http://www.w3.org/2000/svg" viewBox="0 0 250 250"><title>Grocery</title><rect x="35" y="110.37" width="180" height="29.25" style="fill:#007940"/><path d="M37.84,114.13v11.52c0,2.57.23,4.55,1.21,6.17,1.62,2.52,4.68,4.09,8.5,4.09s6.89-1.53,8.5-4.09c1-1.62,1.26-3.6,1.26-6.17V114.13H49.67V125.7c0,2.21-.41,3.51-2.12,3.51s-2.12-1.31-2.12-3.51V114.13Z" style="fill:#f9f300"/><path d="M115.42,135.33v-15h-7v2a5.43,5.43,0,0,0-4.64-2.47c-3.51,0-6,3.1-6,8.1s2.75,7.92,6,7.92c1.94,0,3.46-.9,4.9-2.83v2.25h6.71Zm-8.78-5.4a2.15,2.15,0,1,1,1.89-2.12A1.94,1.94,0,0,1,106.64,129.93Z" style="fill:#f9f300"/><path d="M83.92,120.34v15h7.29v-5.94a2.64,2.64,0,0,1,2.93-2.88,4.51,4.51,0,0,1,2,.63v-7.24a2.19,2.19,0,0,0-.54,0A5.46,5.46,0,0,0,91,122.41V120.3H83.92Z" style="fill:#f9f300"/><rect x="60.97" y="114.09" width="7.25" height="21.19" style="fill:#f9f300"/><polygon points="72.53 115.39 72.53 120.34 70.46 120.34 70.46 125.88 72.53 125.88 72.53 135.33 79.78 135.33 79.78 125.88 81.84 125.88 81.84 120.34 79.78 120.34 79.78 115.39 72.53 115.39" style="fill:#f9f300"/><path d="M207.85,126c-1.53-.36-2.34-.4-2.34-1.08,0-.45.4-.77,1.08-.77a7,7,0,0,1,3.24,1.35l1.8-4.5a14.11,14.11,0,0,0-5.72-1.17c-4.37,0-7.07,2.34-7.07,5.35,0,2.25,1.3,3.6,4.05,4.23,1.22.27,2,.27,2,1,0,.54-.4.86-1.17.86a8,8,0,0,1-3.92-1.67l-1.93,4.63a15.24,15.24,0,0,0,6.93,1.62c4.63,0,7.38-2.52,7.38-5.72C212.08,127.95,210.73,126.73,207.85,126Z" style="fill:#f9f300"/><path d="M184.72,119.89c-3.33,0-6,3.06-6,7.88,0,5,2.57,8.1,6,8.1a5.59,5.59,0,0,0,4.82-2.74v2.21h6.75V114.09h-7.15v5.71a25.58,25.58,0,0,0,.13,2.65A5.16,5.16,0,0,0,184.72,119.89Zm4.68,8a1.94,1.94,0,0,1-1.89,2.21,2,2,0,0,1-1.89-2.21,1.9,1.9,0,0,1,1.89-2.16A1.93,1.93,0,0,1,189.4,127.86Z" style="fill:#f9f300"/><path d="M157.54,127.86c0-4.41-3.6-8-8.73-8s-8.73,3.6-8.73,8,3.6,8,8.73,8S157.54,132.27,157.54,127.86Zm-10.53,0a1.79,1.79,0,0,1,1.8-2,1.82,1.82,0,0,1,1.8,2,1.81,1.81,0,1,1-3.6,0Z" style="fill:#f9f300"/><path d="M176.8,127.86c0-4.41-3.6-8-8.73-8s-8.73,3.6-8.73,8,3.6,8,8.73,8S176.8,132.27,176.8,127.86Zm-10.49,0a1.79,1.79,0,0,1,1.8-2,1.82,1.82,0,0,1,1.8,2,1.79,1.79,0,0,1-1.8,2C167,129.93,166.31,129.12,166.31,127.86Z" style="fill:#f9f300"/><polygon points="138.54 119.85 138.54 114.13 124.37 114.13 124.37 135.33 131.97 135.33 131.97 127.77 137.91 127.77 137.91 122.32 131.97 122.32 131.97 119.85 138.54 119.85" style="fill:#f9f300"/></svg>