<svg xmlns="http://www.w3.org/2000/svg" viewBox="0 0 250 250"><title>Grocery</title><path d="M73.82,91.84c0,.6-.11,1.2-.11,1.79q0,12.56,0,25.13a26.54,26.54,0,0,1-1,7.43,13.5,13.5,0,0,1-10.28,9.93,32.63,32.63,0,0,1-15.19.23c-7.12-1.58-10.75-5.6-11.9-12.79a29.88,29.88,0,0,1-.38-4.79q0-13.47,0-26.93H48.24c0,3.3-.11,6.6-.11,9.9,0,6.51,0,13,.08,19.53,0,2.31.76,4.36,3.14,5.35,4.59,1.9,8.61-.44,9.16-5.34a12.05,12.05,0,0,0,.09-1.35q0-14,0-28.1Z" style="fill:#372b9a"/><path d="M215,91.84c0,14.13,0,28.27,0,42.4,0,1.46-.37,1.88-1.82,1.8-2.35-.13-4.71-.11-7.06,0-1.24.05-1.58-.42-1.49-1.55a3.37,3.37,0,0,0-.15-1.89c-.42-.1-.56.23-.72.44-4.53,6.2-15.73,4.53-19.39-2.38-3.37-6.35-2.54-16.48,2-22.09a11.27,11.27,0,0,1,13-3.7,6.77,6.77,0,0,1,3.8,3.84l.45-.15V91.84ZM203.9,121.35c-.12-1.15-.23-2.4-.41-3.64A8.74,8.74,0,0,0,203,116a4.53,4.53,0,0,0-8.48,0,15.77,15.77,0,0,0-.2,9.19,4,4,0,0,0,3.56,3.19,4.78,4.78,0,0,0,5-2.4A9.25,9.25,0,0,0,203.9,121.35Z" style="fill:#372b9a"/><path d="M86.5,108.44a1.42,1.42,0,0,0,1-.74c3.58-4.34,8.19-5.16,13.32-3.66,4.8,1.4,6.63,5.27,6.82,9.78.29,7.06.12,14.14.18,21.21,0,1-.53,1-1.24,1-3,0-5.92-.06-8.88,0-1.14,0-1.45-.34-1.44-1.45.05-5.22,0-10.43,0-15.65a11.65,11.65,0,0,0-.4-3.42A3.68,3.68,0,0,0,92,112.63a3.92,3.92,0,0,0-4.1,2.88,10.78,10.78,0,0,0-.4,3.27c0,5.22,0,10.43,0,15.65,0,1.21-.28,1.66-1.58,1.62-2.91-.1-5.82-.06-8.73,0-.92,0-1.31-.18-1.31-1.22q.06-14.67,0-29.34c0-.88.19-1.24,1.15-1.22,2.76.06,5.52,0,8.27,0,.83,0,1.2.24,1.15,1.11S86.5,107.34,86.5,108.44Z" style="fill:#372b9a"/><path d="M169.43,123.37H159.8c-1.57,0-1.75.23-1.29,1.75a5.87,5.87,0,0,0,4.31,4.39,4.69,4.69,0,0,0,5.39-2c.32-.47.73-.44,1.18-.44,3,0,6,0,9,0,1.13,0,1.1.39.76,1.25a11.71,11.71,0,0,1-6.55,6.69,21.74,21.74,0,0,1-16.68.47,13.58,13.58,0,0,1-9-11.3,20.32,20.32,0,0,1,.8-9.94c2.3-6.6,8.12-10.38,15.7-10.27,5.71.08,10.68,1.73,14,6.77,2.33,3.57,2.89,7.63,3.11,11.77.05,1-.57.86-1.19.86Zm-5.9-6c1.45,0,2.9,0,4.35,0,.88,0,1.11-.34,1.09-1.17a4.35,4.35,0,0,0-3.8-4.5c-4-.78-6.68,1-6.82,4.58,0,.78.16,1.1,1,1.08C160.72,117.38,162.13,117.41,163.53,117.41Z" style="fill:#372b9a"/><path d="M128.06,120.83c0-2.81,0-5.62,0-8.43,0-1.14-.35-1.46-1.47-1.45-2.64,0-2.64,0-2.64-2.68,0-.1,0-.2,0-.3.07-1.15-.44-2.53.21-3.38s2.07-.26,3.14-.31c.86,0,1-.49,1-1.17,0-2.31,0-4.61,0-6.92,0-.89.2-1.24,1.16-1.23,3,.05,6,0,9,0,.92,0,1.23.29,1.21,1.21-.05,2.16.07,4.32,0,6.47-.08,1.4.46,1.76,1.73,1.63.94-.09,1.91,0,2.86,0,.73,0,1.13.18,1.11,1q0,2.41,0,4.81c0,.76-.36.93-1,.92-1.15,0-2.31.05-3.46,0s-1.21.52-1.2,1.39c0,3.86,0,7.72,0,11.59,0,2.89.78,3.75,3.66,3.66,1.6-.05,1.95.49,1.85,1.94-.12,1.8,0,3.61,0,5.41,0,.58,0,1.11-.81,1.11-3.6,0-7.21.47-10.79-.24-3.42-.68-4.79-2.21-5.18-5.68A82,82,0,0,1,128.06,120.83Z" style="fill:#372b9a"/><path d="M121.7,120.16c0,4.87,0,9.73,0,14.6,0,1-.26,1.3-1.26,1.28-3-.06-6-.05-9,0-.89,0-1.23-.21-1.22-1.16q0-14.75,0-29.49c0-.84.24-1.14,1.1-1.13,3.06,0,6.12.06,9.18,0,1.05,0,1.23.4,1.22,1.32C121.68,110.43,121.7,115.29,121.7,120.16Z" style="fill:#372b9a"/><path d="M115.89,101.65c-1.55,0-3.11,0-4.66,0-.79,0-1-.28-1-1.05,0-1.55,0-3.1,0-4.66,0-.76.21-1.06,1-1.05q4.73.05,9.46,0c.8,0,1,.28,1,1,0,1.55-.06,3.11,0,4.66,0,.92-.38,1.08-1.17,1.06C119,101.62,117.44,101.65,115.89,101.65Z" style="fill:#372b9a"/><path d="M116.76,145.86c1.23-1.25,2.21-3.2,4.22-2.61,2.28.68,1.79,3.08,2.26,4.95.66-.5.73-1.25,1.07-1.82.23-.39.38-.82.61-1.2.93-1.53,2.53-2.48,3.67-2.07,1.67.6,1.67,2.11,1.67,3.52a57.3,57.3,0,0,1-.55,7.34c-.09.7-.31,1.36-1.14,1.3s-.89-.81-.84-1.49c.18-2.35.39-4.69.54-7,0-.51.22-1.29-.43-1.44s-1.05.52-1.29,1.07c-1.16,2.61-2.28,5.23-3.39,7.86-.28.66-.5,1.45-1.38,1.32s-.94-1-.94-1.76c0-2.45.52-4.9,0-7.35-.07-.38,0-.88-.42-1s-.84.27-1.12.59a11.41,11.41,0,0,0-2.16,5.06c-.28,1.11-.41,2.27-.59,3.4-.11.71-.36,1.31-1.2,1.23s-.91-.67-.91-1.33q0-4.36,0-8.72c0-.69.08-1.4.91-1.49s1,.59,1.12,1.29C116.53,145.53,116.64,145.65,116.76,145.86Z" style="fill:#ff2626"/><path d="M161,145.11c.68-.48,1.34-1,2-1.44a3.45,3.45,0,0,1,3.3-.36c2.14.88,2.51,3,.77,4.54a8.75,8.75,0,0,1-2.82,1.7c-1.16.42-1,.88-.2,1.49s1.64,1.32,2.47,2c.55.42,1.39.77.82,1.62s-1.35.42-2,0a29.79,29.79,0,0,1-5.42-4.9,16,16,0,0,0-.38,4.08c0,.71,0,1.54-1,1.49s-.89-.82-.89-1.48a44.79,44.79,0,0,1,.48-7.19c.62-3.81,3.32-5.9,6.41-7.64.58-.33,1.34-.45,1.71.3s-.24,1.16-.85,1.47A9.72,9.72,0,0,0,161,145.11Zm0,3.25a8.56,8.56,0,0,0,4.27-1.6c.42-.3,1.1-.6.73-1.24s-1-.55-1.6-.27A9.62,9.62,0,0,0,161,148.36Z" style="fill:#ff2626"/><path d="M80.25,146.17c.59-.2.88-.77,1.29-1.18a5.71,5.71,0,0,1,4.67-1.63,3.24,3.24,0,0,1,3.15,3.22,6.87,6.87,0,0,1-5.39,7.3c-.34.08-.68.16-1,.21-.89.13-1.94,0-2.63.43s-.23,1.67-.39,2.53c-.11.59-.29,1.11-1,1.1S78,157.62,78,157q0-5.86,0-11.73c0-.65.21-1.26,1-1.25s.87.57,1,1.14C80,145.52,79.86,145.91,80.25,146.17Zm7.12,1.07c0-1.41-.45-1.91-1.85-1.9a3.16,3.16,0,0,0-2.33.87,42.42,42.42,0,0,0-2.91,3.42,2.23,2.23,0,0,0-.18,2.29c.34.73,1.16.29,1.77.25a10.34,10.34,0,0,0,1.63-.21A4.87,4.87,0,0,0,87.38,147.24Z" style="fill:#ff2626"/><path d="M141.93,152.19c-1,.89-1.74,1.95-2.93,2.43-1.71.69-3.46.91-5-.25s-1.63-2.87-1.18-4.64a7.37,7.37,0,0,1,5.24-5.66,17.73,17.73,0,0,1,5.19-.67c.71,0,1.53,0,1.57,1s-.77,1-1.49,1a19.71,19.71,0,0,0-4.61.57,5.55,5.55,0,0,0-4.08,4.86c-.18,1.88,1,2.8,2.81,2.27a5.43,5.43,0,0,0,3-2.53c.56-.89,1-1.84,1.54-2.75.31-.54.72-1,1.44-.8s.76.73.75,1.32c0,1.75,0,3.51,0,5.26,0,.69-.09,1.39-1,1.43s-1-.69-1-1.36A2.16,2.16,0,0,0,141.93,152.19Z" style="fill:#ff2626"/><path d="M96.82,150.85c-.3,0-.6,0-.9,0-.71,0-1.36-.24-1.28-1.1s.7-.85,1.36-.8a4.74,4.74,0,0,0,3.64-1.06c.5-.44,1-.94.71-1.68a1.57,1.57,0,0,0-1.42-.94c-1.94-.32-3.26.68-4.37,2.06s-1.88,3-1.19,4.85a2,2,0,0,0,1.86,1.31,6.77,6.77,0,0,0,4.1-.54c.59-.33,1.2-.38,1.53.33s-.1,1.17-.69,1.45a7.7,7.7,0,0,1-7,.15c-1.87-.89-2.7-3.52-1.81-6a8.33,8.33,0,0,1,5.76-5.64,4.78,4.78,0,0,1,2.94.2,3.19,3.19,0,0,1,1.28,5.5A5.89,5.89,0,0,1,96.82,150.85Z" style="fill:#ff2626"/><path d="M175.88,155.67c-5,0-7.13-3.74-4.82-7.79,1.47-2.57,3.4-4.62,6.72-4.5a4,4,0,0,1,3.69,2.37c.45,1.36-.09,2.71-1.55,3.93a6.35,6.35,0,0,1-5.08,1.3c-.57-.07-1.13-.29-1.1-1s.6-1,1.27-.95c1.43.05,2.81,0,3.9-1.12a1.53,1.53,0,0,0,.6-1.45,1.48,1.48,0,0,0-1.34-1.05c-2.14-.39-3.51.84-4.69,2.35a4.51,4.51,0,0,0-.9,4.76,2,2,0,0,0,1.53,1.08,6.42,6.42,0,0,0,4.39-.5c.61-.31,1.23-.28,1.56.37s-.22,1.11-.74,1.42A5.9,5.9,0,0,1,175.88,155.67Z" style="fill:#ff2626"/><path d="M73.2,149.85c-.83,1.25-1.62,2.52-2.5,3.73-.73,1-1.64,1.92-3,1.44s-1.58-1.7-1.58-3c0-2.16,0-4.31,0-6.47,0-.79.07-1.64,1.11-1.59s.87.94.88,1.62c0,2,0,4,0,6,0,.38-.16.91.29,1.08s.76-.39,1-.72a47.79,47.79,0,0,0,3.9-6.76c.31-.64.6-1.39,1.49-1.19s.84,1,.84,1.72c0,2.56,0,5.11,0,7.67,0,.72,0,1.54-1,1.55s-1-.78-1-1.52c0-1.18,0-2.37,0-3.55Z" style="fill:#ff2626"/><path d="M55.37,155.38c-.71-.21-2.13.53-2.18-.91s1.41-.93,2.23-1.07a28,28,0,0,0,4-.54,3.91,3.91,0,0,0,1.69-.94c1-1,.86-1.74-.46-2.24s-2.6-.76-3.85-1.25c-2.87-1.11-3.28-3.46-1.09-5.6a7,7,0,0,1,5.95-2.26c.68.08,1.43.14,1.43,1s-.78,1.1-1.52,1a5.17,5.17,0,0,0-4.36,1.55c-1.26,1.25-1.16,1.91.55,2.55,1,.38,2.11.62,3.15,1,1.38.46,2.67,1.12,2.86,2.74s-.84,2.71-2.06,3.59S58.27,155.33,55.37,155.38Z" style="fill:#ff2626"/><path d="M196.3,155.64l-.75,0c-.68,0-1.43,0-1.45-.89s.72-1,1.4-1a14.36,14.36,0,0,0,3.7-.58,1.59,1.59,0,0,0,1.26-1.35c0-.76-.74-.86-1.29-1a12.47,12.47,0,0,1-2.81-1.05,2.48,2.48,0,0,1-1-3.71c1.17-1.64,2.66-2.88,4.87-2.74.74,0,1.69-.1,1.7,1s-.87,1.08-1.64,1a3.09,3.09,0,0,0-2.44.92c-1.23,1.14-1.12,1.67.51,2.24.71.25,1.45.42,2.14.7,2.36.95,2.79,3.08,1,4.88C200,155.48,198.17,155.57,196.3,155.64Z" style="fill:#ff2626"/><path d="M187.18,150.06c0-1.2,0-2.4,0-3.6,0-1-.24-1.55-1.34-1.4a2.66,2.66,0,0,1-.6,0,1,1,0,0,1-1-.92.88.88,0,0,1,1-1c1.72.25,2-.63,1.92-2.07-.06-.65,0-1.45.89-1.48s1.1.79,1,1.5c-.23,1.69.48,2.25,2.09,2,.7-.1,1.38.13,1.37,1s-.72.94-1.41,1c-2,.09-2,.1-2,2.05s0,4.2,0,6.3c0,.76.2,1.84-1,1.8s-.91-1.11-.94-1.87c0-1.1,0-2.2,0-3.3Z" style="fill:#ff2626"/><path d="M150.34,144.75c.62-.54,1.08-1,1.6-1.36a2.08,2.08,0,0,1,3.43,1.56c.07.54,0,1-.56,1.26a.85.85,0,0,1-1.15-.43c-.53-1-1-.56-1.39.05-1.22,1.9-2.48,3.79-2.11,6.23a5.86,5.86,0,0,1,0,1.05c0,.78.16,1.82-1,1.83s-1-1.06-1-1.83c0-2.81,0-5.61,0-8.42,0-.82-.41-2.08.89-2.19S150,143.79,150.34,144.75Z" style="fill:#ff2626"/><path d="M107,145.43c.44-.38.86-.8,1.33-1.14a1.92,1.92,0,0,1,2.21-.39,2.69,2.69,0,0,1,1.33,2.06,1,1,0,0,1-.54,1.13.83.83,0,0,1-1.16-.38c-.66-1.29-1.12-.49-1.53.14-1.23,1.85-2.32,3.74-2,6.11a5,5,0,0,1,0,1.2c-.06.6-.33,1.1-1,1.08s-.94-.53-1-1.12,0-1.3,0-1.95c0-2.2,0-4.4,0-6.6,0-.83-.18-1.9,1-2s1,.93,1.16,1.61C106.82,145.24,106.92,145.3,107,145.43Z" style="fill:#ff2626"/></svg>