<svg xmlns="http://www.w3.org/2000/svg" viewBox="0 0 250 250"><title>Casual dining</title><path d="M143.29,70.21c2.19.42,3.84-.32,4.14-2.24.51-3.18.83-6.39,1.05-9.6.14-2.11-.93-3.12-3.09-3.39s-3.43.54-3.88,2.54a19.8,19.8,0,0,0-.48,4,2.6,2.6,0,0,0,3.63,2.58c.25-.08.49-.2,1-.39-.14,1.28-.24,2.33-.37,3.38-.09.76-.47,1.29-1.3,1.22s-1.12-.69-1-1.44c.18-1.18-.71-.85-1.29-1-.8-.18-.92.31-1,.94A3.1,3.1,0,0,0,143.29,70.21Zm1.19-7.93c-.94,0-1.07-.77-1-1.54,0-.12,0-.24,0-.35h0c.09-.74.16-1.49.28-2.22s.48-1.3,1.31-1.22,1.18.71,1.12,1.52-.21,1.64-.24,2.46A1.29,1.29,0,0,1,144.48,62.28Z"/><path d="M76.43,66.69l2.24,8.69,6.94-1.78L85,71.51l-4.42,1.11-1.1-4.26,3.14-.92c-.1-.48-.2-.85-.26-1.23-.1-.65-.41-.81-1.06-.66-2.4.54-2.34.5-3.05-1.87-.33-1.11,0-1.47,1-1.66s1.86-.49,2.86-.75l-.59-2.07c-2,.52-3.86,1-5.73,1.45-.73.17-.86.47-.66,1.15C75.62,63.42,76,65.06,76.43,66.69Z"/><path d="M90.91,64.5a24.25,24.25,0,0,0,2.48,1.57A6.33,6.33,0,0,1,95,67.62a1.34,1.34,0,0,1-.41,2A1.41,1.41,0,0,1,92.47,69c-.2-.32-.36-.67-.55-1-.43.13-.77.23-1.1.35s-.7.27-1,.41c.5,2,1.64,3.15,3.33,3.36a3.91,3.91,0,0,0,3.32-6.72,11.61,11.61,0,0,0-1.83-1.47c-.74-.52-1.6-.88-2.28-1.46a4.12,4.12,0,0,1-1.28-1.74,1.61,1.61,0,0,1,.62-1.43c.36-.2,1.05.08,1.53.29.27.12.41.54.63.85L96,59.77c-.81-2.52-2.5-3.43-4.79-2.74a3.35,3.35,0,0,0-2.34,4.72A8,8,0,0,0,90.91,64.5Z"/><path d="M168,74.57a3.41,3.41,0,0,0,4.16-.91,5.7,5.7,0,0,0,.4-6.25c2-1.57,2.84-3.94,2-5.82a3.45,3.45,0,0,0-3.85-1.84c-1.51.29-2.41,1.42-2.53,3.25l1.95.51a9.88,9.88,0,0,1,.6-1.31,1,1,0,0,1,1.69-.08c.7.94-.35,3.68-1.52,3.65-1.32,0-1.35.74-1.45,1.61l.42-.28c.37.58,1.08,1.19,1.05,1.75a13.84,13.84,0,0,1-.85,3.56c-.07.21-.82.42-1.11.29a1.56,1.56,0,0,1-.75-1,5.77,5.77,0,0,1,.15-1.61l-2.12-.57a17.27,17.27,0,0,0-.35,1.93A2.75,2.75,0,0,0,168,74.57Z"/><path d="M157,69.18a8,8,0,0,0-.18.93c-.32,1.86-.32,1.86,1.59,2.1a1.3,1.3,0,0,0,.38-.09l.66-3.27h1.3l.29-1.6-1.23-.5,1.57-9.09c-2.26-.75-2.26-.75-3.47,1-1.43,2.06-2.91,4.09-4.28,6.2a14.87,14.87,0,0,0-1,2.59c1.42.27,2.56.5,3.71.69C156.95,68.26,157.23,68.52,157,69.18Zm1.12-8,.29.13c-.26,1.53-.51,3.06-.82,4.58a.82.82,0,0,1-.65.45,16.08,16.08,0,0,1-2-.33Z"/><path d="M104.06,60.17c0,.08,0,.16,0,.23l1.06,9.82,2.49-.26L106.3,57.29a7.93,7.93,0,0,0,1.77-.25,1.09,1.09,0,0,0,.58-.86c-.07-.45-.44-1.24-.63-1.23-2.3.16-4.59.44-7,.7l.28,2.05C103.83,57.76,103.83,57.76,104.06,60.17Z"/><path d="M131.72,57.42c0,.53,0,1,0,1.53-.11,2.79-.23,5.57-.33,8.36-.07,2-.06,2,2.18,1.87l.58-15c-1.94-.26-4.45,1.47-4.25,2.91Z"/><path d="M116.35,69.19,116.21,67l-2.26.11C113.73,69.49,114,69.73,116.35,69.19Z"/><path d="M32.51,183.17c0,1.6,0,3.2,0,4.81s0,2.91,0,4.37c0-1.46,0-2.91,0-4.37S32.52,184.77,32.51,183.17Z"/><path d="M162.34,107.68c.56,0,.83-.1.83-.76q0-4.49,0-9c0-.63-.22-.78-.81-.78q-14.57,0-29.14,0c-.64,0-.89.17-.89.85q0,4.43,0,8.86c0,.61.2.82.8.8,1.59,0,3.19,0,4.78,0,3.34,0,3.69.22,3.72,3.5.07,8.85,0,17.71,0,26.57l-.19.1c-.26-.45-.54-.9-.79-1.36q-10.53-19.12-21-38.26a1.75,1.75,0,0,0-1.8-1.07c-6.76,0-13.52,0-20.28,0-11.15,0-22.3,0-33.45,0-1,0-1.23.29-1.21,1.24.06,2.72.07,5.44,0,8.16,0,1,.31,1.16,1.19,1.14,1.86,0,3.72,0,5.59.06a1.47,1.47,0,0,1,1.56,1.42,24.48,24.48,0,0,1,.27,3.13q0,14,0,28.09a32.23,32.23,0,0,1-.41,5.22c-.58,3.46-2.42,5.84-5.89,6.75a16.63,16.63,0,0,1-9.53-.27,8,8,0,0,1-5.75-7.31,30.51,30.51,0,0,1-.16-3.14q0-14.63,0-29.25c0-1,.11-2,.21-3a1.62,1.62,0,0,1,1.75-1.64c1.59,0,3.18-.07,4.77,0,.65,0,.88-.18.87-.86q0-4.37,0-8.74c0-.72-.23-.92-.94-.92q-17.54,0-35.08,0c-.67,0-.86.2-.85.86,0,2.91,0,5.83,0,8.74,0,.7.16.95.9.92,1.82-.05,3.65-.05,5.48,0s2.14.47,2.27,2.14c.11,1.35.21,2.71.21,4.07q0,13.81,0,27.62a31.38,31.38,0,0,0,.34,4.64c1.13,7.59,5.12,13,12.5,15.36a48.33,48.33,0,0,0,29.13.32,16.68,16.68,0,0,0,11.74-12.19,29.26,29.26,0,0,0,1-7.83c0-9.25,0-18.49,0-27.74a28.61,28.61,0,0,1,.26-4.76A1.63,1.63,0,0,1,86,107.72c2.68-.09,5.36-.1,8,0a1.63,1.63,0,0,1,1.68,1.71c.09.93.2,1.86.2,2.78q0,16.31,0,32.63a39.29,39.29,0,0,1-.2,4.88c-.22,1.78-.58,2.15-2.35,2.17-2.06,0-4.12,0-6.18,0-.76,0-1,.17-1,1,0,2.87,0,5.75,0,8.62,0,.82.3.94,1,.94q14.92,0,29.83,0c.69,0,1-.13.94-.89q-.06-4.37,0-8.74c0-.74-.25-.9-.94-.89-2.06,0-4.12,0-6.18,0-1.56,0-1.92-.36-2.14-1.86a15.45,15.45,0,0,1-.19-2.2q0-13.81,0-27.62c0-.26-.18-.61.21-.82.15.25.29.47.42.71q11.23,20.6,22.44,41.21a1.82,1.82,0,0,0,1.89,1.09c6.49,0,13,0,19.46,0,1.08,0,1.33-.29,1.32-1.34q-.05-24.24,0-48.48a24.37,24.37,0,0,1,.16-2.67c.21-1.92.56-2.23,2.51-2.26Q159.66,107.64,162.34,107.68Z"/><path d="M226.88,115.26c-3-8.47-8.93-14.11-17.38-17.12a45.19,45.19,0,0,0-14.61-2.38,45.88,45.88,0,0,0-11,1.13c-11.34,2.73-19.18,9.41-22.75,20.64a40.85,40.85,0,0,0-.65,22.31c2.39,9.86,8.19,17,17.61,20.87a42.21,42.21,0,0,0,29.3,1.2c10.45-3.26,17.48-10.2,20.52-20.78A41.64,41.64,0,0,0,226.88,115.26Zm-21.53,28.62a16.09,16.09,0,0,1-3.15,6.55c-3.36,4.08-13,4.87-16.72-1.71a24,24,0,0,1-2.8-8.82,66.53,66.53,0,0,1,.72-22.8,19.27,19.27,0,0,1,2.64-6.29c3.48-5.45,14.35-6.19,17.79,1.29a34,34,0,0,1,2.6,11.51c.15,1.66.17,3.33.25,5A62.46,62.46,0,0,1,205.35,143.88Z"/><path d="M147.45,193.19c-.69-.29-.68-.68-.4-1.28a23.3,23.3,0,0,0,.87-2.28c.09-.27.24-.59-.06-.86a1.35,1.35,0,0,0-2.25.62c-.15.43-.15,1.13-.57,1.19s-.64-.66-.94-1c-.07-.09-.1-.21-.18-.3a1.38,1.38,0,0,1,.18-2.18,5.41,5.41,0,0,0,1.65-2.89,4,4,0,0,0,.08-.77q0-.16,0-.32a2.87,2.87,0,0,0-3-2.66,3,3,0,0,0-2.32.79,2.82,2.82,0,0,0-.25.29,3.93,3.93,0,0,0-.49,3.88c.63,1.67,1,3.18-.45,4.6a1.16,1.16,0,0,0-.2.42,4,4,0,0,0,.37,4.08,3.24,3.24,0,0,0,3.88,1.08,4.23,4.23,0,0,1,3.9.07.65.65,0,0,0,.93-.19A2.1,2.1,0,0,0,147.45,193.19ZM141.67,183c.06-.54.29-1,.9-1s.84.49.91,1a3.67,3.67,0,0,1-1.17,3.07A5.67,5.67,0,0,1,141.67,183Zm1.77,10.16c-.2.28-.56.22-.82.27a1.4,1.4,0,0,1-1.42-1,2,2,0,0,1,.28-1.88c.21-.3.37-.08.51.13.38.58.79,1.14,1.17,1.72C143.32,192.62,143.72,192.8,143.45,193.17Z"/><path d="M142.77,180.44a2.87,2.87,0,0,1,3,2.66,2.87,2.87,0,0,0-3-2.67,3,3,0,0,0-2.32.79A3,3,0,0,1,142.77,180.44Z"/><path d="M182.7,189.63c-.11-.35-.34-.7.08-1,1.74-1.43,1.56-3.36,1.23-5.25a3.08,3.08,0,0,0-2.77-2.6c-1.35-.23-2.71,0-4.06-.14-.82-.06-1,.28-1,1q0,.8,0,1.6c0,1.6,0,3.2,0,4.8,0,2,0,4,0,5.94,0,1.76-.31,1.5,1.64,1.58.78,0,1-.24,1-1-.05-1.43,0-2.87,0-4.31,0-.37-.1-.8.52-.82.47,0,.78.06.92.61.34,1.31.89,2.58,1.12,3.91s.91,1.7,2.21,1.62c.93-.06.89-.37.66-1C183.72,192.88,183.22,191.25,182.7,189.63Zm-3.12-2.35c-.63,0-.79-.25-.77-.83,0-.81,0-1.62,0-2.42,0-.42-.36-1.12.44-1.21s1.65-.15,2.09.8a3.3,3.3,0,0,1,.2,1.21C181.58,186.71,181,187.3,179.58,187.28Z"/><path d="M176.25,188c0-1.6,0-3.2,0-4.8,0,1.6,0,3.2,0,4.8,0,2,0,4,0,5.94C176.23,192,176.25,190,176.25,188Z"/><path d="M100.85,189.69c-.11-.35-.36-.73,0-1.06,1.77-1.47,1.58-3.42,1.22-5.36a3,3,0,0,0-2.7-2.52,33.84,33.84,0,0,0-4.18-.14c-.67,0-.87.22-.86.87s0,1.09,0,1.63c0,1.63,0,3.26,0,4.89,0,1.46,0,2.91,0,4.37q0,.73,0,1.46c0,1.86-.39,1.63,1.76,1.7.77,0,.9-.3.88-1,0-1.44,0-2.87,0-4.31,0-.36-.13-.81.5-.84s.77.1.91.64c.34,1.31.87,2.59,1.12,3.91s.86,1.66,2.12,1.58c.94-.06,1-.29.72-1.09C101.83,192.88,101.35,191.28,100.85,189.69Zm-1.3-3.36c-.39,1-1.21,1-2,.92s-.44-.83-.5-1.28a7.88,7.88,0,0,1,0-1.85c.05-.46-.41-1.2.48-1.3s1.76-.06,2.08,1a4.15,4.15,0,0,1,.13.91A4.26,4.26,0,0,1,99.55,186.33Z"/><path d="M94.39,183.1c0,1.63,0,3.26,0,4.89,0,1.46,0,2.91,0,4.37,0-1.46,0-2.91,0-4.37C94.39,186.36,94.4,184.73,94.39,183.1Z"/><path d="M169.81,188.07c-.71-.65-2.08-.11-3.15-.21-.73-.07-1,.21-.91.92.07.55-.28,1.37.82,1.21.71-.1.88.26.82.88,0,.39,0,.78,0,1.16-.05.79-.37,1.36-1.25,1.38s-1.19-.65-1.2-1.39q0-4,0-7.92c0-.67.18-1.35,1.09-1.37s1.08.57,1.3,1.24c.16.49-.25,1.21.4,1.44a5.9,5.9,0,0,0,1.62.06c.44,0,.58-.17.62-.61a3.84,3.84,0,0,0-3.47-4.42c-2.61-.17-4.15,1.19-4.23,3.8,0,1.28,0,2.56,0,4.13a32,32,0,0,0,.13,4.6,3.29,3.29,0,0,0,5.29,2.11c.42-.31.65-.51.93.11s.75.36,1.14.29.3-.56.31-.88c0-1.16,0-2.33,0-3.49S170.49,188.69,169.81,188.07Z"/><path d="M123.07,182.32c-.31-1.71-.3-1.71-2.1-1.72-.41.27-1.37-.51-1.59.62-.84,4.54-1.67,9.07-2.5,13.61,0,.26-.17.5.23.65a1.64,1.64,0,0,0,2.41-1.39,3.82,3.82,0,0,0,.08-.69c0-1,.45-1.15,1.36-1.21,1.26-.09,1.79.33,1.75,1.56a5.83,5.83,0,0,0,.1.92c.21,1.53,1.4.74,2.11.78.88.05.42-.73.35-1.12C124.56,190.33,123.8,186.33,123.07,182.32Zm-2.1,7.58c-.41.08-.87.11-.74-.61.29-1.63.53-3.28.79-4.92l.2,0c.27,1.67.57,3.34.79,5C122.14,190.31,121.36,189.83,121,189.91Z"/><path d="M37.78,180.75a37.06,37.06,0,0,0-4.3-.15c-.76-.05-1,.19-1,1q0,.8,0,1.6c0,1.6,0,3.2,0,4.81s0,2.91,0,4.37q0,.73,0,1.46c0,1.92-.37,1.65,1.74,1.71.73,0,.94-.23.91-.93-.05-1.16,0-2.33,0-3.49,0-1.65,0-1.65,1.63-1.68,2.62,0,3.94-1.32,4-3.93a9.3,9.3,0,0,0-.08-1.63A3.3,3.3,0,0,0,37.78,180.75Zm-1.95,6.53c-.59,0-.73-.26-.71-.78,0-.13,0-.25,0-.38,0-.38,0-.76,0-1.14,0-.17,0-.36,0-.53a.65.65,0,0,1,0-.16c.18-.51-.56-1.41.66-1.49,1.46-.1,2.16.31,2.36,1.46C38.53,186.41,37.76,187.38,35.84,187.28Z"/><path d="M87.34,193.19H85.82c-1.86,0-1.64.27-1.65-1.69,0-2.46,0-2.46,2.41-2.55.32,0,.69.12.84-.38.39-1.29-.06-1.92-1.41-1.92H84.73c-.31,0-.55-.11-.55-.45,0-1-.35-2.21.17-3.08.35-.58,1.45-.13,2.21-.2a4.54,4.54,0,0,1,1,0c1,.14.82-.55.81-1.11s.24-1.27-.83-1.22c-1.71.07-3.42.05-5.13,0-.72,0-.94.21-.93.93q0,.82,0,1.63c0,1.63,0,3.26,0,4.89,0,2.18,0,4.35,0,6.53,0,.56,0,1,.77.95,1.9,0,3.81,0,5.71,0,.56,0,.72-.21.75-.75C88.85,193.21,88.85,193.19,87.34,193.19Z"/><path d="M61.6,193.19c-.7,0-1.4,0-2.09,0-.93.07-1.18-.12-.72-1.07,1.24-2.54,2.36-5.15,3.59-7.69a6.51,6.51,0,0,0,.58-3c0-.61-.21-.82-.81-.81-1.59,0-3.18.07-4.77,0-1,0-1.25.23-1.24,1.2s.28,1.24,1.18,1.13c.61-.07,1.24,0,1.86,0,1-.08,1,.25.64,1-1.27,2.66-2.46,5.36-3.76,8a6.49,6.49,0,0,0-.48,2.94c0,.54.27.64.73.63h5.82c.29,0,.62.1.79-.3A1.33,1.33,0,0,0,61.6,193.19Z"/><path d="M57.75,195.5h0Z"/><path d="M75.25,184.32a6.37,6.37,0,0,0,.54-2.92c0-.62-.23-.8-.82-.8-1.74,0-3.49,0-5.23,0-1,0-.78.63-.78,1.17s-.24,1.24.77,1.16c.77-.06,1.55,0,2.32,0,.94-.07.94.3.61,1-1.22,2.55-2.37,5.14-3.62,7.67a6.56,6.56,0,0,0-.62,3.14c0,.58.16.84.79.81l.73,0c.73,0,1.45,0,2.18,0s1.4,0,2.1,0l.7,0c1,.08.86-.57.88-1.19s0-1.23-.93-1.15-1.79,0-2.67,0-1-.24-.6-1C72.82,189.6,74,186.93,75.25,184.32Z"/><path d="M72.11,195.5c-.73,0-1.45,0-2.18,0,.73,0,1.45,0,2.18,0s1.4,0,2.1,0C73.51,195.47,72.81,195.5,72.11,195.5Z"/><path d="M204.76,193.19a11.61,11.61,0,0,0-1.51,0c-1,.13-1.17-.28-1.16-1.18,0-3.49,0-7,0-10.49,0-1.1-.64-1-1.28-.92s-1.45-.35-1.41.9q0,.81,0,1.63c0,1.63,0,3.26,0,4.89q0,1.63,0,3.26t0,3.26c0,.55,0,1,.77,1,1.75,0,3.5,0,5.24,0,.3,0,.59,0,.71-.4C206.53,193.77,206.13,193.19,204.76,193.19Z"/><path d="M199.47,183.14c0,1.63,0,3.26,0,4.89q0,1.63,0,3.26,0-1.63,0-3.26C199.46,186.4,199.49,184.77,199.47,183.14Z"/><path d="M216.52,193.18c-.53.07-1.09,0-1.63,0-.9.11-1.1-.27-1.09-1.12,0-3.49,0-7,0-10.48,0-1-.48-1.06-1.2-1s-1.53-.38-1.48.95c0,.53,0,1.07,0,1.6,0,1.6,0,3.2,0,4.81s0,3.26,0,4.89q0,.82,0,1.63c0,.84.27,1.05,1.06,1,1.55-.05,3.11-.06,4.66,0,.81,0,.93-.28,1-1C217.95,193.44,217.61,193,216.52,193.18Z"/><path d="M211.19,188c0-1.6,0-3.21,0-4.81,0,1.6,0,3.2,0,4.81s0,3.26,0,4.89C211.21,191.23,211.19,189.6,211.19,188Z"/><path d="M111.28,192.31c0-1.42,0-2.85,0-4.28,0-1.63,0-3.26,0-4.89,0-.54,0-1.09,0-1.63,0-1.23-.77-.89-1.4-.91s-1.31-.23-1.29.89c.05,4.34.06,8.69,0,13,0,1.19.68,1,1.35,1s1.4.24,1.35-.95q0-.41,0-.81Q111.28,193,111.28,192.31Z"/><path d="M111.3,188c0,1.43,0,2.85,0,4.28,0-1.42,0-2.85,0-4.28,0-1.63,0-3.26,0-4.89C111.27,184.78,111.3,186.41,111.3,188Z"/><path d="M191.94,180.6c-.7,0-1.48-.25-1.43,1,0,.54,0,1.08,0,1.63,0,1.63,0,3.26,0,4.88s0,3.2,0,4.8c0,.53,0,1.07,0,1.6,0,1,.51,1,1.21,1s1.5.39,1.49-.94q-.09-6.45,0-12.91C193.24,180.56,192.7,180.57,191.94,180.6Z"/><path d="M190.54,188.13c0-1.63,0-3.26,0-4.88,0,1.63,0,3.26,0,4.88s0,3.2,0,4.8C190.57,191.33,190.54,189.73,190.54,188.13Z"/><path d="M49.41,188c0-1.63,0-3.25,0-4.88q0-.81,0-1.63c0-1.13-.68-.89-1.3-.88s-1.32-.26-1.31.88q.07,6.56,0,13.13c0,1.13.7.88,1.31.88s1.34.27,1.3-.87q0-.83,0-1.65C49.38,191.31,49.41,189.66,49.41,188Z"/><path d="M49.41,188c0,1.66,0,3.31,0,5,0-1.65,0-3.31,0-5s0-3.25,0-4.88C49.38,184.75,49.41,186.38,49.41,188Z"/></svg>