<svg xmlns="http://www.w3.org/2000/svg" viewBox="0 0 250 250"><defs><style>.a{fill:#4a2401;}.b{fill:#e16f34;}.c{fill:#f9d201;}.d{fill:#492300;}</style></defs><title>Midscale</title><path class="a" d="M32.92,70.34c.12-.48.21-1,.36-1.45.93-3.05,2.72-5.3,5.91-6.21a5.25,5.25,0,0,1,1.44-.18q84.37,0,168.74,0c2.92,0,4.93,1.67,6.39,4.07a9,9,0,0,1,1.21,3.5c0,.09,0,.2.11.25v3c-.29,1-.56,2-.86,3l-11.38,39q-9.07,31.12-18.12,62.25a19.55,19.55,0,0,1-2.49,5.87,9.12,9.12,0,0,1-7.58,3.91c-.62,0-1.25,0-1.87,0H74.52a12,12,0,0,1-5.34-1A9.88,9.88,0,0,1,64.37,181,80.79,80.79,0,0,1,62,173.17q-5.09-17.39-10.13-34.79-9.2-31.6-18.42-63.19a11.52,11.52,0,0,0-.49-1.82ZM125,64.84H40.94a4.83,4.83,0,0,0-3.45,1.34,7.51,7.51,0,0,0-2,8c1.6,5.67,3.28,11.32,4.92,17l7.07,24.25,5.46,18.76,6.82,23.41c1.58,5.43,3.15,10.87,4.75,16.3a52.74,52.74,0,0,0,2.09,6.55,7.21,7.21,0,0,0,4.07,4.2,15.73,15.73,0,0,0,5.49.52c.27,0,.24-.18.25-.36a1,1,0,1,1,2.05,0c0,.32.1.35.36.35a13.55,13.55,0,0,1,1.93,0,1.4,1.4,0,0,0,1.6-1A46.05,46.05,0,0,1,102,164.53a47.82,47.82,0,0,1,19.66-5.59,48.59,48.59,0,0,1,27.73,6.46A47.26,47.26,0,0,1,161.89,176a45.6,45.6,0,0,1,5.77,8.76.67.67,0,0,0,.72.44c.8,0,1.6,0,2.4,0,.34,0,.48-.06.47-.44a1,1,0,1,1,2,.06c0,.37.1.38.37.38a36.53,36.53,0,0,0,3.91-.1,6.57,6.57,0,0,0,4.62-2.54,15.49,15.49,0,0,0,2.33-5.25q5.38-18.48,10.76-37l8.87-30.47q5.08-17.45,10.18-34.89a9.28,9.28,0,0,0,.09-5.9,5.81,5.81,0,0,0-5.92-4.19ZM84.08,185.14h81c.63,0,.63,0,.32-.58a43.28,43.28,0,0,0-9.65-12.15,46.27,46.27,0,0,0-29.7-11.65,43.19,43.19,0,0,0-12.49,1.38C100.8,165.47,91,172.73,84.47,184.25A2.47,2.47,0,0,0,84.08,185.14Z"/><path class="b" d="M125,64.84h83.48A5.81,5.81,0,0,1,214.41,69a9.28,9.28,0,0,1-.09,5.9q-5.11,17.44-10.18,34.89l-8.87,30.47q-5.38,18.48-10.76,37a15.49,15.49,0,0,1-2.33,5.25,6.57,6.57,0,0,1-4.62,2.54,36.53,36.53,0,0,1-3.91.1c-.27,0-.41,0-.37-.38a1,1,0,1,0-2-.06c0,.39-.14.45-.47.44-.8,0-1.6,0-2.4,0a.67.67,0,0,1-.72-.44,45.6,45.6,0,0,0-5.77-8.76,47.26,47.26,0,0,0-12.55-10.55,48.59,48.59,0,0,0-27.73-6.46A47.82,47.82,0,0,0,102,164.53,46.05,46.05,0,0,0,82.34,184.2a1.4,1.4,0,0,1-1.6,1,13.55,13.55,0,0,0-1.93,0c-.25,0-.36,0-.36-.35a1,1,0,1,0-2.05,0c0,.18,0,.36-.25.36a15.73,15.73,0,0,1-5.49-.52,7.21,7.21,0,0,1-4.07-4.2,52.74,52.74,0,0,1-2.09-6.55c-1.6-5.43-3.17-10.86-4.75-16.3l-6.82-23.41L47.48,115.4,40.41,91.15c-1.65-5.66-3.33-11.3-4.92-17a7.51,7.51,0,0,1,2-8,4.83,4.83,0,0,1,3.45-1.34Zm25.23,43.54-.93.45a4.44,4.44,0,0,0-2.05,6.23,5.92,5.92,0,0,0,3.53,3.06,19.53,19.53,0,0,0,12.66.2,6.54,6.54,0,0,0,3.93-3c1.48-2.64,1.4-7-2.87-8.76a15.15,15.15,0,0,0-5.13-1c-1.59-.06-3.19-.14-4.78-.24-1.35-.09-2-1-1.56-2.17.14-.36.3-.53.78-.37a10.15,10.15,0,0,0,8.2-.46A6.59,6.59,0,0,0,165.24,94c-.13-.35,0-.36.28-.36.64,0,1.29,0,1.93,0,.4,0,.54-.1.53-.52q0-1.72,0-3.45c0-.43-.14-.51-.54-.51-2.22,0-4.44,0-6.66,0a3.78,3.78,0,0,1-.81-.08,11.39,11.39,0,0,0-5.83.2,6.86,6.86,0,0,0-3.68,11c.26.31.06.37-.16.49a4.23,4.23,0,0,0-2,5.57A4.63,4.63,0,0,0,150.24,108.38ZM73.65,96.82l-.38-1.21a50.1,50.1,0,0,0-1.85-5.34C69.61,86.17,67.77,82.08,66,78a.61.61,0,0,0-.66-.43q-2.92,0-5.85,0c-.48,0-.51.13-.33.53Q66.06,93.39,73,108.68c.1.22.11.55.51.54s.46-.29.58-.56l3.23-7.45q5-11.59,10.08-23.18c.18-.41.08-.48-.33-.48-1.7,0-3.39,0-5.09,0a.75.75,0,0,0-.83.52c-.8,1.88-1.64,3.74-2.44,5.62-1.26,3-2.72,5.91-3.74,9C74.51,94,74.1,95.36,73.65,96.82ZM176.41,101h14.36c.42,0,.62-.06.64-.55a14,14,0,0,0-.17-2.73,10,10,0,0,0-4-6.94A10.91,10.91,0,0,0,179.17,89a10.06,10.06,0,0,0-9,11.05,9.39,9.39,0,0,0,6.1,8.27,14.5,14.5,0,0,0,7.51.88,11.09,11.09,0,0,0,5.81-2.39c.22-.18.49-.32.15-.67-1-1.05-2-2.13-3-3.21-.2-.22-.33-.23-.58-.07a8.68,8.68,0,0,1-5.51,1.33A4.49,4.49,0,0,1,176.41,101Zm-39.21,5.44.12,0c0,.68-.05,1.35-.11,2,0,.38.11.46.46.46,1.69,0,3.39,0,5.08,0,.44,0,.56-.11.56-.55,0-3.12,0-6.23,0-9.35,0-1,0-1.9-.1-2.86a7.73,7.73,0,0,0-5.56-6.86,13.41,13.41,0,0,0-4.75-.37,10.31,10.31,0,0,0-6.62,2.83c-.21.2-.32.33-.06.6,1,1,1.89,2,2.83,3,.22.24.36.31.66.06A6.2,6.2,0,0,1,134.16,94a2.86,2.86,0,0,1,3,2.65c.12.8.16.71-.62.73a42.11,42.11,0,0,0-6.87.25,6.19,6.19,0,0,0-4,2.15,6,6,0,0,0-.89,5,5.14,5.14,0,0,0,2.78,3.76,8,8,0,0,0,3.37.84,6.42,6.42,0,0,0,5.82-2.32C136.85,106.82,137,106.62,137.2,106.41Zm6.05,21.3c0-.86,0-1.66,0-2.45,0-.39,0-.48-.46-.49-1.71,0-3.42.1-5.13,0-.43,0-.57.12-.57.56q0,9.26,0,18.52c0,.49.18.58.61.57,1.62,0,3.23,0,4.85,0,.61,0,.74-.16.73-.75,0-3.39,0-6.78,0-10.17a3.26,3.26,0,0,1,2-3.15,4.83,4.83,0,0,1,2.58-.34,2.83,2.83,0,0,1,2.62,2.42,9.14,9.14,0,0,1,.12,1.45c0,3.33,0,6.66,0,10,0,.47.12.56.59.55,1.59,0,3.19-.08,4.79,0,.73,0,.74.05.74-.7,0-3.62,0-7.25,0-10.87a11.23,11.23,0,0,0-.49-3.39,7.17,7.17,0,0,0-11.19-3.73A12.73,12.73,0,0,0,143.25,127.71Zm-25.32,0c0-.88.05-1.66.12-2.43,0-.43-.13-.53-.52-.52-1.68,0-3.35,0-5,0-.43,0-.57.11-.56.55q0,9.26,0,18.53c0,.41.12.53.53.53,1.62,0,3.23,0,4.85,0,.57,0,.76-.1.75-.73,0-3.21,0-6.43,0-9.64,0-2.31,1.09-3.65,3.24-4s3.69.59,4.06,2.51a5.89,5.89,0,0,1,.06,1.11c0,3.37,0,6.74,0,10.11,0,.5.1.68.64.67q2.45-.06,4.91,0c.52,0,.65-.15.65-.66,0-3.64,0-7.29,0-10.93a10.48,10.48,0,0,0-.69-3.83,6.66,6.66,0,0,0-5.7-4.57,6.85,6.85,0,0,0-6.58,2.58A2.37,2.37,0,0,1,117.94,127.74ZM120,93.39q0-7.42,0-14.84a1.1,1.1,0,0,0-.29-.9q-1.92-1.88-3.8-3.8c-.26-.27-.43-.29-.7,0q-1.88,1.92-3.8,3.8c-.23.23-.26.37,0,.6.57.53,1.07,1.14,1.67,1.64a2.24,2.24,0,0,1,.81,1.92c0,8.82,0,17.65,0,26.47,0,.54.15.69.68.67q2.42-.05,4.85,0c.52,0,.65-.14.64-.65C120,103.33,120,98.36,120,93.39Zm-12.24,0q0-7.45,0-14.9c0-.27,0-.53-.19-.76q-2-1.95-3.93-3.92c-.21-.21-.36-.22-.58,0q-1.93,2-3.88,3.88c-.22.22-.21.36,0,.57.69.66,1.34,1.36,2,2a1.38,1.38,0,0,1,.46,1.12c0,9,0,18,0,26.94,0,.52.13.65.65.64q2.42-.05,4.85,0c.5,0,.61-.14.61-.62C107.75,103.34,107.75,98.36,107.75,93.37Zm-1.18,36.08q0-7.19,0-14.37c0-.14,0-.27,0-.41s-.09-.38-.37-.38h-5.43c-.25,0-.36.1-.35.34s.05.78,0,1.17c0,9.39.07,18.78-.06,28.16,0,.4.1.54.52.53,1.66,0,3.31,0,5,0,.53,0,.68-.13.68-.67C106.56,139,106.57,134.24,106.57,129.45ZM89.4,99.16c0,3.08,0,6.16,0,9.23,0,.44.12.56.56.55q2.54,0,5.08,0c.44,0,.56-.11.56-.55q0-9.29,0-18.59c0-.42-.13-.53-.53-.52-1.69,0-3.39,0-5.08,0-.46,0-.59.12-.59.58C89.41,93,89.4,96.06,89.4,99.16Zm6.55-15.78a2.39,2.39,0,0,0-.17-.2c-1-1-2.08-2.06-3.11-3.09-.22-.22-.35-.13-.52,0-1,1-2,2-3,3-.26.25-.19.4,0,.61q1.5,1.48,3,3c.24.25.39.21.61,0,1-1,2-2,3-3C95.81,83.65,95.94,83.58,95.95,83.39Zm67,58.85a2,2,0,0,0-2,2,2,2,0,0,0,2,2,2.05,2.05,0,0,0,2-2A2,2,0,0,0,163,142.23ZM100.25,161.3a1,1,0,0,0-2.09,0,1,1,0,0,0,2.09,0Zm27.51-7.48a1.05,1.05,0,0,0-1.06,1,1.11,1.11,0,0,0,1.05,1.05,1,1,0,0,0,1-1A1,1,0,0,0,127.77,153.81Zm37.52,18.45a1,1,0,0,0-1-1,1,1,0,0,0-1,1.05,1.12,1.12,0,0,0,1.07,1A1.06,1.06,0,0,0,165.29,172.26Zm-71.07-6.77a1.07,1.07,0,0,0,1-1.08,1,1,0,0,0-2.08.06A1.06,1.06,0,0,0,94.22,165.49ZM160.1,167a1,1,0,0,0-1,1,1.06,1.06,0,0,0,1,1.06,1.1,1.1,0,0,0,1.05-1A1,1,0,0,0,160.1,167ZM125.86,154.8a1.07,1.07,0,0,0-1-1.08,1,1,0,0,0-.08,2.09A1.08,1.08,0,0,0,125.86,154.8Zm14.63,1.93a1,1,0,1,0-2.08.05,1,1,0,0,0,2.08-.05Zm-24.56-.21a1,1,0,0,0,1.06-1,1,1,0,1,0-2.09,0A1,1,0,0,0,115.93,156.52ZM88.46,170.19a1,1,0,0,0-1-1,1,1,0,1,0,1,1Zm3.39-2.92a1.08,1.08,0,0,0,1-1.06,1.07,1.07,0,0,0-1.06-1,1,1,0,0,0-1,1.05A1.05,1.05,0,0,0,91.85,167.27ZM137.58,156a1,1,0,0,0-1-1.05,1.08,1.08,0,0,0-1.06,1,1.09,1.09,0,0,0,1,1.06A1,1,0,0,0,137.58,156Zm-54,17.55a1,1,0,0,0-.05,2.07,1.06,1.06,0,0,0,1.07-1A1,1,0,0,0,83.55,173.6Zm36.36-18.53a1,1,0,0,0-1.06-1,1.06,1.06,0,0,0-1,1.07,1.08,1.08,0,0,0,1.08,1A1.06,1.06,0,0,0,119.91,155.07Zm-5.85,1a1.07,1.07,0,0,0-1-1,1.12,1.12,0,0,0-1,1.05,1.06,1.06,0,0,0,1.06,1A1,1,0,0,0,114.07,156.07ZM81.21,179.52a1,1,0,0,0-2.09,0,1,1,0,1,0,2.09,0Zm23.34-19.74a1.07,1.07,0,0,0,1.07-1,1.1,1.1,0,0,0-1-1.06,1,1,0,0,0-1,1A1,1,0,0,0,104.55,159.78Zm40.52-2.11a1,1,0,0,0-1.07,1,1.08,1.08,0,0,0,1,1.06,1.05,1.05,0,0,0,1.06-1A1,1,0,0,0,145.07,157.67ZM78.7,183.15a1.08,1.08,0,0,0,1.07-1,1,1,0,1,0-1.07,1Zm69.07-22.23a1.05,1.05,0,0,0,1-1.12,1,1,0,0,0-1-1,1.06,1.06,0,0,0-1,1A1.13,1.13,0,0,0,147.77,160.93Zm3.69.31a1.09,1.09,0,0,0-1-1.06,1,1,0,0,0-1,1,1,1,0,0,0,1,1A1.06,1.06,0,0,0,151.47,161.24Zm4,4.15a1,1,0,1,0-1.07-1A1,1,0,0,0,155.47,165.4Zm-32.62-10.52a1,1,0,0,0-1-1.05,1,1,0,0,0-1.07,1,1.12,1.12,0,0,0,1,1.08A1,1,0,0,0,122.85,154.87Zm8.89.19a1,1,0,0,0-1-1,1,1,0,0,0-1,1,1.1,1.1,0,0,0,1.06,1A1,1,0,0,0,131.74,155.06Zm11.56,2.65a1,1,0,0,0-.95-1.1,1.06,1.06,0,0,0-1.13,1,1.13,1.13,0,0,0,1,1.06A1,1,0,0,0,143.3,157.72Zm18.92,11.36a1,1,0,1,0,0,2.07,1,1,0,1,0,0-2.07Zm-65.56-7.3a1,1,0,0,0-1,1,1.08,1.08,0,0,0,1,1,1,1,0,1,0,0-2.07Zm56.32-.09a1,1,0,0,0-1,1,1,1,0,0,0,1,1,1,1,0,0,0,1-1A1.09,1.09,0,0,0,153,161.68Zm-44.63-4a1.05,1.05,0,0,0-1-1,1.09,1.09,0,0,0-1,1,1.06,1.06,0,0,0,1,1A1,1,0,0,0,108.35,157.69Zm-23,15.67a1,1,0,0,0,1.07-1,1,1,0,0,0-1-1,1,1,0,0,0-1.06,1A1,1,0,0,0,85.38,173.36Zm84.12,5.05a1,1,0,1,0,0,2.07,1,1,0,0,0,1-1A1,1,0,0,0,169.51,178.41Zm1.42,4.64a1,1,0,0,0,1.1-1,1.13,1.13,0,0,0-1.07-1,1,1,0,0,0-1,1A1,1,0,0,0,170.93,183.05Zm-38.28-27.57a1,1,0,1,0,2,0,1,1,0,0,0-1-1A1,1,0,0,0,132.64,155.48ZM168.93,177a1,1,0,0,0-1-1.06,1,1,0,0,0-1,1,1,1,0,1,0,2,.05ZM81.78,178a1,1,0,1,0,0-2,1,1,0,1,0,0,2Zm76-10.87a1,1,0,0,0,1-1,1,1,0,0,0-1-1,1,1,0,1,0,0,2Zm-57-7.25a1,1,0,1,0,2,.06,1,1,0,0,0-1-1.08A1,1,0,0,0,100.84,159.91Zm9.3-4.13a1,1,0,1,0,1,1A1,1,0,0,0,110.14,155.78Zm57,18.77a1,1,0,0,0-1-1,.93.93,0,0,0-1,1,1,1,0,1,0,2,0Zm-76.59-6.41a1,1,0,0,0-2,0,1,1,0,0,0,1,1A1,1,0,0,0,90.58,168.14Z"/><path class="c" d="M84.08,185.14a2.47,2.47,0,0,1,.4-.89c6.54-11.52,16.33-18.78,29.09-22.12a43.19,43.19,0,0,1,12.49-1.38,46.27,46.27,0,0,1,29.7,11.65,43.28,43.28,0,0,1,9.65,12.15c.31.58.31.58-.32.58h-81Zm35.81-8a50.43,50.43,0,0,0-2.79-6.71c-.05-.12-.11-.26-.28-.26h-2.74c0,.14.06.2.09.25l5.26,10.49c.08.15.12.34.35.34s.29-.23.37-.4l4.21-8.47c.35-.71.7-1.42,1.08-2.22-.74,0-1.39,0-2,0a.79.79,0,0,0-.91.57C121.64,172.82,120.45,174.76,119.89,177.15Zm7.66-1.64c0,1.67,0,3.35,0,5,0,.32,0,.51.44.5.62,0,1.25,0,1.87,0,.3,0,.35-.14.35-.39q0-5.05,0-10.1c0-.28-.08-.38-.36-.37-.6,0-1.21,0-1.81,0-.41,0-.49.14-.48.5C127.56,172.28,127.56,173.9,127.56,175.51Zm-.39-9.53a1.67,1.67,0,0,0,1.69,1.76,1.7,1.7,0,0,0,1.77-1.69,1.73,1.73,0,0,0-1.71-1.77A1.7,1.7,0,0,0,127.16,166Z"/><path class="d" d="M150.24,108.38a4.63,4.63,0,0,1-1.91-2.08,4.23,4.23,0,0,1,2-5.57c.22-.12.42-.18.16-.49a6.86,6.86,0,0,1,3.68-11,11.39,11.39,0,0,1,5.83-.2,3.78,3.78,0,0,0,.81.08c2.22,0,4.44,0,6.66,0,.39,0,.55.08.54.51q0,1.72,0,3.45c0,.42-.13.53-.53.52-.64,0-1.29,0-1.93,0-.25,0-.41,0-.28.36a6.59,6.59,0,0,1-3.21,8.32,10.15,10.15,0,0,1-8.2.46c-.48-.17-.64,0-.78.37-.46,1.13.22,2.09,1.56,2.17,1.59.1,3.19.17,4.78.24a15.15,15.15,0,0,1,5.13,1c4.27,1.72,4.35,6.12,2.87,8.76a6.54,6.54,0,0,1-3.93,3,19.53,19.53,0,0,1-12.66-.2,5.92,5.92,0,0,1-3.53-3.06,4.44,4.44,0,0,1,2.05-6.23Zm7.17,6.14c.31,0,.62,0,.93,0a6.12,6.12,0,0,0,2.64-.64,1.65,1.65,0,0,0,.8-1.8c-.09-.68-.62-.89-1.18-1a4.23,4.23,0,0,0-.63-.12c-2-.25-4.11-.26-6.16-.46a.69.69,0,0,0-.76.47,2.22,2.22,0,0,0,1,3A7.08,7.08,0,0,0,157.41,114.52Zm2.84-18.42a2.61,2.61,0,0,0-2.84-2.71,2.66,2.66,0,0,0-3,2.63,2.69,2.69,0,0,0,2.91,2.79A2.66,2.66,0,0,0,160.25,96.1Z"/><path class="d" d="M73.65,96.82c.46-1.45.86-2.79,1.3-4.11,1-3.09,2.48-6,3.74-9,.79-1.88,1.64-3.74,2.44-5.62a.75.75,0,0,1,.83-.52c1.69,0,3.39,0,5.09,0,.4,0,.51.06.33.48q-5.05,11.58-10.08,23.18l-3.23,7.45c-.12.27-.2.54-.58.56s-.41-.32-.51-.54Q66.05,93.39,59.13,78.1c-.18-.4-.16-.54.33-.53q2.92,0,5.85,0A.61.61,0,0,1,66,78c1.81,4.09,3.65,8.17,5.45,12.27a50.1,50.1,0,0,1,1.85,5.34Z"/><path class="d" d="M176.41,101a4.49,4.49,0,0,0,4.26,3.27,8.68,8.68,0,0,0,5.51-1.33c.25-.16.38-.15.58.07,1,1.08,2,2.15,3,3.21.34.35.07.49-.15.67a11.09,11.09,0,0,1-5.81,2.39,14.5,14.5,0,0,1-7.51-.88,9.39,9.39,0,0,1-6.1-8.27,10.06,10.06,0,0,1,9-11.05,10.91,10.91,0,0,1,8.08,1.72,10,10,0,0,1,4,6.94,14,14,0,0,1,.17,2.73c0,.49-.22.55-.64.55H176.41Zm4.33-3.51h4c.21,0,.52.08.42-.33a3.82,3.82,0,0,0-1.54-2.51,4.86,4.86,0,0,0-3.52-.65,4.06,4.06,0,0,0-3.59,2.89c-.18.54,0,.62.47.61C178.21,97.45,179.47,97.46,180.74,97.46Z"/><path class="d" d="M137.2,106.41c-.17.21-.35.41-.52.62a6.42,6.42,0,0,1-5.82,2.32,8,8,0,0,1-3.37-.84,5.14,5.14,0,0,1-2.78-3.76,6,6,0,0,1,.89-5,6.19,6.19,0,0,1,4-2.15,42.11,42.11,0,0,1,6.87-.25c.78,0,.74.07.62-.73a2.86,2.86,0,0,0-3-2.65,6.2,6.2,0,0,0-4.47,1.52c-.29.26-.44.18-.66-.06-.93-1-1.87-2-2.83-3-.26-.27-.16-.4.06-.6A10.31,10.31,0,0,1,132.89,89a13.41,13.41,0,0,1,4.75.37,7.73,7.73,0,0,1,5.56,6.86c.08,1,.1,1.9.1,2.86,0,3.12,0,6.23,0,9.35,0,.44-.12.56-.56.55-1.69,0-3.39,0-5.08,0-.35,0-.49-.08-.46-.46.06-.67.08-1.35.11-2ZM134.61,101v0c-.76,0-1.52,0-2.28,0a1.74,1.74,0,0,0-1.77,1.6,1.69,1.69,0,0,0,1.42,1.85,5.59,5.59,0,0,0,3.22-.12,2.7,2.7,0,0,0,2-2.92c0-.33-.11-.45-.44-.44C136.06,101,135.33,101,134.61,101Z"/><path class="d" d="M143.25,127.71a12.73,12.73,0,0,1,1.83-2,7.17,7.17,0,0,1,11.19,3.73,11.23,11.23,0,0,1,.49,3.39c0,3.62,0,7.25,0,10.87,0,.75,0,.75-.74.7-1.6-.09-3.19-.06-4.79,0-.48,0-.6-.08-.59-.55,0-3.33,0-6.66,0-10a9.14,9.14,0,0,0-.12-1.45,2.83,2.83,0,0,0-2.62-2.42,4.83,4.83,0,0,0-2.58.34,3.26,3.26,0,0,0-2,3.15c0,3.39,0,6.78,0,10.17,0,.58-.13.76-.73.75-1.62,0-3.23,0-4.85,0-.43,0-.61-.08-.61-.57q0-9.26,0-18.52c0-.44.13-.59.57-.56,1.71.14,3.42,0,5.13,0,.41,0,.48.09.46.49C143.22,126.05,143.25,126.85,143.25,127.71Z"/><path class="d" d="M117.94,127.74a2.37,2.37,0,0,0,.69-.73,6.85,6.85,0,0,1,6.58-2.58,6.66,6.66,0,0,1,5.7,4.57,10.48,10.48,0,0,1,.69,3.83c0,3.64,0,7.29,0,10.93,0,.51-.12.67-.65.66q-2.45-.05-4.91,0c-.54,0-.64-.17-.64-.67,0-3.37,0-6.74,0-10.11a5.89,5.89,0,0,0-.06-1.11c-.37-1.92-1.94-2.87-4.06-2.51s-3.23,1.71-3.24,4c0,3.21,0,6.43,0,9.64,0,.62-.19.74-.75.73-1.62,0-3.23,0-4.85,0-.41,0-.53-.12-.53-.53q0-9.26,0-18.53c0-.44.13-.56.56-.55,1.68,0,3.35,0,5,0,.4,0,.56.09.52.52C118,126.08,118,126.86,117.94,127.74Z"/><path class="d" d="M120,93.39c0,5,0,9.93,0,14.9,0,.51-.12.67-.64.65q-2.42-.05-4.85,0c-.53,0-.68-.13-.68-.67,0-8.82,0-17.65,0-26.47a2.24,2.24,0,0,0-.81-1.92c-.59-.5-1.1-1.1-1.67-1.64-.25-.23-.22-.38,0-.6q1.92-1.89,3.8-3.8c.27-.28.44-.26.7,0q1.88,1.92,3.8,3.8a1.1,1.1,0,0,1,.29.9Q120,86,120,93.39Z"/><path class="d" d="M107.75,93.37c0,5,0,10,0,15,0,.48-.11.63-.61.62q-2.42,0-4.85,0c-.51,0-.65-.12-.65-.64,0-9,0-18,0-26.94a1.38,1.38,0,0,0-.46-1.12c-.7-.65-1.35-1.35-2-2-.21-.21-.23-.35,0-.57q2-1.93,3.88-3.88c.21-.22.36-.21.58,0q2,2,3.93,3.92c.23.23.19.49.19.76Q107.76,85.92,107.75,93.37Z"/><path class="d" d="M106.57,129.45c0,4.79,0,9.58,0,14.37,0,.55-.15.68-.68.67-1.65,0-3.31,0-5,0-.42,0-.53-.13-.52-.53.13-9.39,0-18.78.06-28.16,0-.39,0-.78,0-1.17s.1-.34.35-.34h5.43c.28,0,.39.11.37.38s0,.27,0,.41Q106.57,122.26,106.57,129.45Z"/><path class="d" d="M89.4,99.16c0-3.1,0-6.2,0-9.29,0-.46.12-.59.59-.58,1.69,0,3.39,0,5.08,0,.4,0,.53.1.53.52q0,9.29,0,18.59c0,.44-.12.56-.56.55q-2.54,0-5.08,0c-.43,0-.56-.11-.56-.55C89.41,105.32,89.4,102.24,89.4,99.16Z"/><path class="d" d="M95.95,83.39c0,.19-.14.26-.23.36-1,1-2,2-3,3-.22.23-.37.26-.61,0q-1.47-1.51-3-3c-.22-.22-.29-.36,0-.61,1-1,2-2,3-3,.17-.17.3-.27.52,0,1,1,2.07,2.06,3.11,3.09A2.39,2.39,0,0,1,95.95,83.39Z"/><path class="a" d="M163,142.23a2,2,0,0,1,2.06,1.93,2.05,2.05,0,0,1-2,2,2,2,0,0,1-2-2A2,2,0,0,1,163,142.23Zm1.6,2a1.55,1.55,0,0,0-1.62-1.61,1.57,1.57,0,0,0-1.54,1.58,1.63,1.63,0,0,0,1.6,1.66A1.61,1.61,0,0,0,164.58,144.2Z"/><path class="a" d="M100.25,161.3a1,1,0,0,1-2.09,0,1,1,0,0,1,2.09,0Z"/><path class="a" d="M127.77,153.81a1,1,0,0,1,1,1,1,1,0,0,1-1,1,1.11,1.11,0,0,1-1.05-1.05A1.05,1.05,0,0,1,127.77,153.81Z"/><path class="a" d="M165.29,172.26a1.06,1.06,0,0,1-1,1.07,1.12,1.12,0,0,1-1.07-1,1,1,0,0,1,1-1.05A1,1,0,0,1,165.29,172.26Z"/><path class="a" d="M94.22,165.49a1.06,1.06,0,0,1-1.07-1,1,1,0,0,1,2.08-.06A1.07,1.07,0,0,1,94.22,165.49Z"/><path class="a" d="M160.1,167a1,1,0,0,1,1,1,1.1,1.1,0,0,1-1.05,1,1.06,1.06,0,0,1-1-1.06A1,1,0,0,1,160.1,167Z"/><path class="a" d="M125.86,154.8a1.08,1.08,0,0,1-1.09,1,1,1,0,0,1,.08-2.09A1.07,1.07,0,0,1,125.86,154.8Z"/><path class="a" d="M140.48,156.73a1,1,0,1,1-1.07-1A1.06,1.06,0,0,1,140.48,156.73Z"/><path class="a" d="M115.93,156.52a1,1,0,0,1-1-1,1,1,0,1,1,2.09,0A1,1,0,0,1,115.93,156.52Z"/><path class="a" d="M88.46,170.19a1,1,0,0,1-1,1,1,1,0,1,1,0-2.08A1,1,0,0,1,88.46,170.19Z"/><path class="a" d="M91.85,167.27a1.05,1.05,0,0,1-1-1,1,1,0,0,1,1-1.05,1.07,1.07,0,0,1,1.06,1A1.08,1.08,0,0,1,91.85,167.27Z"/><path class="a" d="M137.58,156a1,1,0,0,1-1,1,1.09,1.09,0,0,1-1-1.06,1.08,1.08,0,0,1,1.06-1A1,1,0,0,1,137.58,156Z"/><path class="a" d="M83.55,173.6a1,1,0,0,1,1,1.06,1.06,1.06,0,0,1-1.07,1,1,1,0,0,1,.05-2.07Z"/><path class="a" d="M119.91,155.07a1.06,1.06,0,0,1-1,1.08,1.08,1.08,0,0,1-1.08-1,1.06,1.06,0,0,1,1-1.07A1,1,0,0,1,119.91,155.07Z"/><path class="a" d="M114.07,156.07a1,1,0,0,1-1,1,1.06,1.06,0,0,1-1.06-1,1.12,1.12,0,0,1,1-1.05A1.07,1.07,0,0,1,114.07,156.07Z"/><path class="a" d="M81.21,179.52a1,1,0,1,1-2.09,0,1,1,0,0,1,2.09,0Z"/><path class="a" d="M104.55,159.78a1,1,0,0,1-1-1.05,1,1,0,0,1,1-1,1.1,1.1,0,0,1,1,1.06A1.07,1.07,0,0,1,104.55,159.78Z"/><path class="a" d="M145.07,157.67a1,1,0,0,1,1,1,1.05,1.05,0,0,1-1.06,1,1.08,1.08,0,0,1-1-1.06A1,1,0,0,1,145.07,157.67Z"/><path class="a" d="M78.7,183.15a1,1,0,0,1-1-1.06,1,1,0,0,1,2.08,0A1.08,1.08,0,0,1,78.7,183.15Z"/><path class="a" d="M147.77,160.93a1.13,1.13,0,0,1-1.06-1,1.06,1.06,0,0,1,1-1,1,1,0,0,1,1,1A1.05,1.05,0,0,1,147.77,160.93Z"/><path class="a" d="M151.47,161.24a1.06,1.06,0,0,1-1.07,1,1,1,0,0,1-1-1,1,1,0,0,1,1-1A1.09,1.09,0,0,1,151.47,161.24Z"/><path class="a" d="M155.47,165.4a1,1,0,1,1,1-1.05A1,1,0,0,1,155.47,165.4Z"/><path class="a" d="M122.85,154.87a1,1,0,0,1-1,1,1.12,1.12,0,0,1-1-1.08,1,1,0,0,1,1.07-1A1,1,0,0,1,122.85,154.87Z"/><path class="a" d="M131.74,155.06a1,1,0,0,1-1,1.06,1.1,1.1,0,0,1-1.06-1,1,1,0,0,1,1-1A1,1,0,0,1,131.74,155.06Z"/><path class="a" d="M143.3,157.72a1,1,0,0,1-1,1,1.13,1.13,0,0,1-1-1.06,1.06,1.06,0,0,1,1.13-1A1,1,0,0,1,143.3,157.72Z"/><path class="a" d="M162.22,169.07a1,1,0,1,1,0,2.07,1,1,0,1,1,0-2.07Z"/><path class="a" d="M96.66,161.77a1,1,0,1,1,0,2.07,1.08,1.08,0,0,1-1-1A1,1,0,0,1,96.66,161.77Z"/><path class="a" d="M153,161.68a1.09,1.09,0,0,1,1,1,1,1,0,0,1-1,1,1,1,0,0,1-1-1A1,1,0,0,1,153,161.68Z"/><path class="a" d="M108.35,157.69a1,1,0,0,1-1,1,1.06,1.06,0,0,1-1-1,1.09,1.09,0,0,1,1-1A1.05,1.05,0,0,1,108.35,157.69Z"/><path class="a" d="M85.38,173.36a1,1,0,0,1-1-1,1,1,0,0,1,1.06-1,1,1,0,0,1,1,1A1,1,0,0,1,85.38,173.36Z"/><path class="a" d="M169.51,178.41a1,1,0,0,1,1,1,1,1,0,0,1-1,1,1,1,0,1,1,0-2.07Z"/><path class="a" d="M170.93,183.05a1,1,0,0,1-1-1.06,1,1,0,0,1,1-1,1.13,1.13,0,0,1,1.07,1A1,1,0,0,1,170.93,183.05Z"/><path class="a" d="M132.64,155.48a1,1,0,0,1,1-1.06,1,1,0,0,1,1,1,1,1,0,1,1-2,0Z"/><path class="a" d="M168.93,177a1,1,0,1,1-2-.05,1,1,0,0,1,1-1A1,1,0,0,1,168.93,177Z"/><path class="a" d="M81.78,178a1,1,0,1,1,0-2,1,1,0,1,1,0,2Z"/><path class="a" d="M157.81,167.16a1,1,0,1,1,0-2,1,1,0,0,1,1,1A1,1,0,0,1,157.81,167.16Z"/><path class="a" d="M100.84,159.91a1,1,0,0,1,1-1,1,1,0,0,1,1,1.08,1,1,0,1,1-2-.06Z"/><path class="a" d="M110.14,155.78a1,1,0,1,1-1,1A1,1,0,0,1,110.14,155.78Z"/><path class="a" d="M167.17,174.55a1,1,0,1,1-2,0,.93.93,0,0,1,1-1A1,1,0,0,1,167.17,174.55Z"/><path class="a" d="M90.58,168.14a1,1,0,0,1-1,1,1,1,0,0,1-1-1,1,1,0,0,1,2,0Z"/><path class="a" d="M119.89,177.15c.56-2.39,1.75-4.33,2.59-6.42a.79.79,0,0,1,.91-.57c.65,0,1.31,0,2,0-.39.79-.73,1.51-1.08,2.22l-4.21,8.47c-.08.17-.12.39-.37.4s-.27-.18-.35-.34l-5.26-10.49s0-.11-.09-.25h2.74c.17,0,.23.14.28.26A50.43,50.43,0,0,1,119.89,177.15Z"/><path class="a" d="M127.56,175.51c0-1.62,0-3.23,0-4.85,0-.37.08-.53.48-.5.6,0,1.21,0,1.81,0,.28,0,.37.1.36.37q0,5.05,0,10.1c0,.26,0,.4-.35.39-.62,0-1.25,0-1.87,0-.39,0-.44-.18-.44-.5C127.56,178.86,127.56,177.19,127.56,175.51Z"/><path class="a" d="M127.16,166a1.7,1.7,0,0,1,1.76-1.71,1.73,1.73,0,0,1,1.71,1.77,1.7,1.7,0,0,1-1.77,1.69A1.67,1.67,0,0,1,127.16,166Z"/><path class="b" d="M157.41,114.52a7.08,7.08,0,0,1-3.36-.56,2.22,2.22,0,0,1-1-3,.69.69,0,0,1,.76-.47c2,.19,4.11.2,6.16.46a4.23,4.23,0,0,1,.63.12c.56.16,1.09.37,1.18,1a1.65,1.65,0,0,1-.8,1.8,6.12,6.12,0,0,1-2.64.64C158,114.54,157.72,114.52,157.41,114.52Z"/><path class="b" d="M160.25,96.1a2.66,2.66,0,0,1-2.92,2.71A2.69,2.69,0,0,1,154.42,96a2.66,2.66,0,0,1,3-2.63A2.61,2.61,0,0,1,160.25,96.1Z"/><path class="b" d="M180.74,97.46c-1.26,0-2.53,0-3.79,0-.49,0-.65-.07-.47-.61A4.06,4.06,0,0,1,180.06,94a4.86,4.86,0,0,1,3.52.65,3.82,3.82,0,0,1,1.54,2.51c.09.41-.21.33-.42.33Z"/><path class="b" d="M134.61,101c.72,0,1.44,0,2.16,0,.33,0,.43.11.44.44a2.7,2.7,0,0,1-2,2.92,5.59,5.59,0,0,1-3.22.12,1.69,1.69,0,0,1-1.42-1.85,1.74,1.74,0,0,1,1.77-1.6c.76,0,1.52,0,2.28,0Z"/><path class="b" d="M164.58,144.2a1.61,1.61,0,0,1-1.56,1.63,1.63,1.63,0,0,1-1.6-1.66,1.57,1.57,0,0,1,1.54-1.58A1.55,1.55,0,0,1,164.58,144.2Zm-2.34,0h0c0,.29,0,.58,0,.87,0,.12,0,.25.17.25s.16-.12.19-.24-.15-.59.15-.67.38.36.57.55a.82.82,0,0,1,.09.15c.09.14.2.3.36.2s0-.28-.06-.39c-.17-.27-.4-.47,0-.78s.14-.92-.33-1c-.95-.24-1.19-.06-1.19.91Q162.24,144.08,162.24,144.17Z"/><path class="a" d="M162.24,144.17q0-.09,0-.17c0-1,.24-1.16,1.19-.91.47.12.71.77.33,1s-.2.5,0,.78c.07.11.27.26.06.39s-.28-.07-.36-.2a.82.82,0,0,0-.09-.15c-.19-.19-.19-.65-.57-.55s-.1.44-.15.67,0,.24-.19.24-.17-.13-.17-.25c0-.29,0-.58,0-.87ZM163,144c.22,0,.51,0,.5-.32s-.29-.32-.51-.36-.39.05-.4.35S162.77,144,163,144Z"/><path class="b" d="M163,144c-.24,0-.42,0-.41-.33s.15-.39.4-.35.5,0,.51.36S163.23,144,163,144Z"/></svg>