<svg xmlns="http://www.w3.org/2000/svg" viewBox="0 0 250 250"><title>Grocery</title><path d="M105.66,132.49c21.2,0,42.55,0,63.76,0a6.19,6.19,0,0,1,4.74,1.79,6.1,6.1,0,0,1,1.78,4.46q0,4.29,0,8.58a6.1,6.1,0,0,1-6.08,6.2c-42.68,0-85.64,0-128.32,0a6.05,6.05,0,0,1-6.21-6.2c.12-2.78.11-5.87,0-8.65a6,6,0,0,1,6.21-6.2C62.86,132.52,84.33,132.49,105.66,132.49ZM136,140.83h.1c.11,2.05.22,4.11.31,6.16,0,1.12,0,1.1,1.14,1.07.41,0,.52-.11.49-.55-.1-1.37-.12-2.76-.2-4.13-.12-2.08-.29-4.15-.39-6.23,0-.47-.21-.58-.62-.55a3.25,3.25,0,0,1-.65,0c-.45-.05-.61.14-.72.58-.52,2.16-1.09,4.31-1.65,6.46-.05.2.1.5-.25.6-.57-2.18-1.13-4.35-1.71-6.52-.32-1.2-.34-1.18-1.6-1.12-.37,0-.5.12-.52.5-.19,3.4-.4,6.81-.6,10.21,0,.37-.12.82.53.75.5-.05,1.08.18,1.08-.72,0-1.57.09-3.15.16-4.72,0-.55.08-1.1.12-1.65.67,2.12,1.22,4.24,1.77,6.36.1.41.24.62.75.64s.69-.36.8-.79Q135.18,144,136,140.83Zm-89.56,3.31c-.94-2.33-1.87-4.51-2.69-6.72a1.11,1.11,0,0,0-1.34-.83c-.38,0-.56.1-.56.53,0,3.49,0,7,0,10.46,0,.8.62.38,1,.46s.62,0,.59-.47c0-.7,0-1.4,0-2.1,0-1.63,0-3.26,0-5,.07.14.13.24.17.35.89,2.24,1.8,4.48,2.67,6.73.3.78.94.45,1.43.45s.28-.48.28-.74c0-3.32,0-6.64,0-10,0-.64-.21-.74-.79-.74s-.8.09-.79.74C46.49,139.55,46.46,141.77,46.46,144.14Zm18.2,3.53c.32,1.6-.51,2.44-2,2.09a2.76,2.76,0,0,1-.49-.13c-.22-.1-.47-.26-.52.14s-.64.86,0,1.18a3.71,3.71,0,0,0,3.83-.41,3.64,3.64,0,0,0,1-2.85c0-2.4,0-4.8,0-7.19,0-.26.25-.67-.12-.77a1.42,1.42,0,0,0-1.31.1c-.14.12-.16.21-.37.12a2.24,2.24,0,0,0-3.33,1.26,6.34,6.34,0,0,0,0,5.21,2.57,2.57,0,0,0,.94,1.26A2.37,2.37,0,0,0,64.66,147.67Zm57.22-7.78c-2-.64-3.12-.06-3.66,1.89a6.89,6.89,0,0,0,.4,5.15,2,2,0,0,0,3,.89c.22-.13.34-.34.61.06s.81.18,1.21.13.19-.44.19-.68c0-3.46,0-6.92,0-10.38,0-.5-.13-.72-.65-.65a1.76,1.76,0,0,1-.51,0c-.5-.08-.6.17-.59.62C121.9,137.9,121.88,138.89,121.88,139.89ZM78,140.1c0-1,0-1.86,0-2.73,0-.54.21-1.11-.79-1.1s-.83.48-.84,1.07c0,3.34.13,6.68-.1,10,0,.23-.19.63.18.67s1,.27,1.27-.18c.19-.27.24-.22.46-.08a2,2,0,0,0,3-.75,7.08,7.08,0,0,0,.49-5.54,2.58,2.58,0,0,0-1.26-1.7A2.35,2.35,0,0,0,78,140.1Zm19.88,0c0-1.1-.05-2.12,0-3.13.05-.8-.45-.63-.88-.63s-.88-.14-.87.64q.07,5.23,0,10.46c0,.93.6.57,1,.64s.74-.07.72-.65c0-1.6,0-3.2,0-4.79a1.74,1.74,0,0,1,.19-1c.23-.35.51-.7,1-.59a.93.93,0,0,1,.71.9,10.14,10.14,0,0,1,0,1c0,1.5,0,3,0,4.5,0,.43.12.64.57.6a6,6,0,0,1,.73,0c.3,0,.44-.09.44-.41,0-1.91.07-3.83,0-5.74S99.91,138.86,97.86,140.07Zm-27.46,0c0-1.08-.06-2.08,0-3.06.07-.78-.35-.71-.86-.72s-.93,0-.92.76c.05,3.29,0,6.59,0,9.88,0,1.28-.19,1.07,1.11,1.13.53,0,.64-.19.63-.67,0-1.55,0-3.1,0-4.65a2.23,2.23,0,0,1,.27-1.19.92.92,0,0,1,.95-.54.84.84,0,0,1,.68.76,7,7,0,0,1,.11,1.15c0,1.36,0,2.71,0,4.07,0,1.15,0,1.15,1.18,1.06.34,0,.47-.14.47-.48,0-2,0-3.92,0-5.88a2.11,2.11,0,0,0-1.67-2.12A2.7,2.7,0,0,0,70.4,140.09Zm83.5,4.56.2,0c.37.78.76,1.55,1.12,2.34.54,1.2.55,1.2,1.89,1.09.42,0,.43-.17.26-.49-.55-1.07-1-2.2-1.64-3.23a1.65,1.65,0,0,1,.1-2.19,25.46,25.46,0,0,0,1.59-2.48,6.18,6.18,0,0,1-.88,0,1.29,1.29,0,0,0-1.52.87,7.42,7.42,0,0,1-1.19,1.91c0-1.81,0-3.48,0-5.14,0-1.13.14-1-1-1-.1,0-.19,0-.29,0-.33,0-.4.14-.4.43q0,5.41,0,10.83c0,.16-.05.4.15.44a2.57,2.57,0,0,0,1.36,0c.36-.14.17-.56.19-.85A20.27,20.27,0,0,1,153.9,144.65Zm-37.54-.8a5.66,5.66,0,0,0-.38-2.55,2.57,2.57,0,0,0-2.36-1.75,2.47,2.47,0,0,0-2.4,1.59,6.3,6.3,0,0,0,.28,5.91,2.42,2.42,0,0,0,4,0A5,5,0,0,0,116.37,143.85Zm-7.23,0a6.35,6.35,0,0,0-.37-2.42,2.61,2.61,0,0,0-2.3-1.84,2.45,2.45,0,0,0-2.45,1.49,6.19,6.19,0,0,0,.25,6,2.42,2.42,0,0,0,4,0A5.56,5.56,0,0,0,109.13,143.81Zm-25.64.24a6,6,0,0,0,.83,3,2.44,2.44,0,0,0,4.12,0,6.43,6.43,0,0,0,.45-5.52,2.55,2.55,0,0,0-2.44-1.95,2.71,2.71,0,0,0-2.51,1.89A6.78,6.78,0,0,0,83.49,144.05Zm61.37.7c0-.89,0-1.63,0-2.38,0-2.84-2.33-3.34-4.29-2.37-.15.07-.4.11-.3.4s.15.7.37.92.45-.18.7-.23a4.73,4.73,0,0,1,.49-.11c.79-.07,1.16.24,1.28.93.15.85-.49.71-.94.8a2.93,2.93,0,0,0-2.37,3.67,2,2,0,0,0,3.22,1.4c.1-.06.25-.28.34-.07.3.69.88.22,1.31.33.25.06.29-.15.26-.38A27.79,27.79,0,0,1,144.86,144.75Zm17-.6h1.45c.2,0,.37,0,.44-.26a4.65,4.65,0,0,0-1.17-3.87,2.45,2.45,0,0,0-3.71,1.17,6.19,6.19,0,0,0-.34,4.45c.69,2.51,2.52,2.86,4.57,2.19.76-.25.17-.81.13-1.22s-.37-.18-.56-.12c-1.48.44-2.29,0-2.62-1.49-.16-.74-.09-.84.65-.85Zm-108.32,0c.46,0,.92,0,1.38,0s.49-.1.5-.45a6.56,6.56,0,0,0-.26-2.29A2.37,2.37,0,0,0,53,139.56a2.54,2.54,0,0,0-2.43,1.54,6,6,0,0,0-.47,4.24c.6,2.57,2.08,3.17,4.51,2.57.77-.19.37-.75.33-1.17s-.4-.3-.69-.23a2.83,2.83,0,0,1-1.29.11,1.89,1.89,0,0,1-1.28-2.12c.14-.73.84-.2,1.27-.34A2,2,0,0,1,53.53,144.15Zm114-6.31c-.28,0-.48.14-.71.2-.64.16-1.11.44-1,1.23.08.45-.3.41-.58.41-.44,0-.37.33-.33.57s-.24.75.29.72c.71,0,.63.38.64.83,0,1.5-.1,3,.07,4.5a1.94,1.94,0,0,0,2.71,1.74c.67-.22.26-.78.31-1.18s-.21-.34-.48-.3c-.7.11-.9-.34-.91-.91,0-1.14,0-2.28,0-3.41s0-1.16,1.14-1.23c.44,0,.47-.27.43-.57s.21-.73-.38-.76c-.38,0-.86.18-1.1-.12s-.06-.79-.09-1.2C167.54,138.18,167.53,138,167.51,137.84Zm-76.46,6h0c0,1.18,0,2.37,0,3.55,0,.8.43.68.92.7s.86,0,.83-.7c-.06-1.4,0-2.8,0-4.2a1.68,1.68,0,0,1,1.54-1.9c.15,0,.31,0,.31-.23,0-.47.22-1.07-.12-1.39s-.86,0-1.27.21A1.58,1.58,0,0,0,93,140c-.18.13-.26.26-.44-.09-.27-.55-.86-.21-1.3-.22s-.25.39-.25.63C91,141.49,91,142.65,91,143.81Zm57.64-3.48c-.05-1-.78-.6-1.24-.64s-.38.44-.38.73q0,3.45,0,6.91c0,.25-.14.62.21.69a2.65,2.65,0,0,0,1.29,0c.38-.13.16-.6.18-.91a37,37,0,0,1,.14-4.49,1.4,1.4,0,0,1,1.37-1.33c.16,0,.38,0,.38-.22,0-.48.23-1.09-.11-1.4s-.91,0-1.33.26A4.55,4.55,0,0,0,148.69,140.33Zm-89.77,3.51c0-1.19,0-2.37,0-3.56,0-.65-.33-.65-.77-.61s-1-.22-.95.58c0,2.4,0,4.79,0,7.19,0,.72.43.62.86.6s.89.17.86-.58C58.88,146.26,58.91,145,58.91,143.84Zm.14-6a1,1,0,0,0-1.95-.07,1,1,0,0,0,.93,1.08A1.05,1.05,0,0,0,59.06,137.88Z" style="fill:#73b745"/><path d="M44.73,121.18a11.17,11.17,0,0,0,.91-3.19c1.16-5,2.31-9.91,3.39-14.89.18-.81.52-1,1.25-.93,1.35.05,2.71,0,4.07,0,.4,0,.58.1.67.54.92,4.47,1.9,8.92,2.82,13.39.38,1.84.66,3.71,1,5.67.52-3.18,1.15-6.24,1.78-9.3.66-3.21,1.34-6.42,2-9.64.1-.5.28-.68.8-.66,1.36,0,2.71,0,4.07,0,.62,0,.68.18.54.7q-1.27,4.71-2.51,9.44c-1.29,4.88-2.57,9.75-3.83,14.63-.14.55-.37.81-.93.87a8.61,8.61,0,0,1-2.6,0A4,4,0,0,1,55,124.37q-1.35-6.15-2.64-12.31c-.23-1.11-.34-2.24-.54-3.58-.29,1.45-.51,2.7-.8,3.94-1,4.06-2,8.11-3,12.17-.22.89-.44,1.78-.65,2.67-.05.22-.08.42-.36.47a8.68,8.68,0,0,1-3.31.06A3.56,3.56,0,0,1,41,125c-.8-3-1.54-6-2.28-9q-1.57-6.39-3.12-12.79c-.23-1-.23-.95.73-.95,1.41,0,2.81,0,4.22,0,.43,0,.58.14.66.55.79,4.17,1.61,8.34,2.4,12.51C44,117.22,44.37,119.2,44.73,121.18Z" style="fill:#0073ac"/><path d="M100.64,111c2.38-3.79,8.84-4,10.91.5a10.22,10.22,0,0,1,2.21-2.18c2.94-2,6.89-1.44,8.81,1.17a7.88,7.88,0,0,1,1.48,4.26c.25,4.11.05,8.23.12,12.35,0,.45-.13.59-.58.58-1.33,0-2.67,0-4,0-.52,0-.64-.16-.64-.66,0-3.29,0-6.59,0-9.89a9.13,9.13,0,0,0-.28-2.23,2.84,2.84,0,0,0-2.58-2.45,3.2,3.2,0,0,0-3.3,2.1,5,5,0,0,0-.28,1.93c0,3.49,0,7,0,10.47,0,.58-.16.75-.73.73-1.28,0-2.57,0-3.85,0-.52,0-.64-.15-.64-.65,0-3.42,0-6.83,0-10.25a6.33,6.33,0,0,0-.47-2.62,2.79,2.79,0,0,0-4.25-1.19,3.71,3.71,0,0,0-1.69,3.13c0,3.61,0,7.22,0,10.83,0,.61-.18.77-.77.75-1.31,0-2.62,0-3.92,0-.39,0-.55-.09-.55-.52q0-9,0-18.1c0-.44.17-.52.55-.51,1.28,0,2.57,0,3.85,0,.48,0,.57.18.55.59C100.62,109.77,100.64,110.39,100.64,111Z" style="fill:#0073ac"/><path d="M142.73,120a58.14,58.14,0,0,0,.25,7.25c.05.37,0,.51-.41.58-1.95.38-3.57.13-4.51-1.76-.27-.54-.38-.2-.58,0a7.15,7.15,0,0,1-7.58,1.66,5.53,5.53,0,0,1-3.7-5.65c.06-3.35,2.33-5.18,4.86-6.08a16.53,16.53,0,0,1,5.71-.87c.64,0,.72-.23.63-.77a2.9,2.9,0,0,0-3.06-2.43,10,10,0,0,0-5.19,1.12c-.53.28-.68.16-.8-.36-.19-.8-.43-1.58-.68-2.36-.1-.31-.09-.47.24-.62a14.15,14.15,0,0,1,10.22-1,6.18,6.18,0,0,1,4.41,5.25A39,39,0,0,1,142.73,120Zm-5.15.25c0-1.84,0-1.87-1.48-1.75a6.46,6.46,0,0,0-3.67,1.15,2.76,2.76,0,0,0-.89,2.94,2.25,2.25,0,0,0,2.05,1.66,3.47,3.47,0,0,0,1.91-.29A3.36,3.36,0,0,0,137.58,120.22Z" style="fill:#0073ac"/><path d="M83.48,120.5a53.76,53.76,0,0,0,.29,6.53c.08.52-.1.76-.61.82-1.67.2-3.38.15-4.34-1.88-.28-.59-.45,0-.59.1a7.1,7.1,0,0,1-7.47,1.62c-3.94-1.28-5.12-6.67-2.21-9.69a10.19,10.19,0,0,1,6.33-2.75,18.93,18.93,0,0,1,2.75-.17c.65,0,.65-.31.57-.76a2.92,2.92,0,0,0-3.07-2.44A10,10,0,0,0,70,113c-.59.3-.76.17-.9-.41-.18-.77-.41-1.54-.66-2.29-.12-.34,0-.49.26-.62a13.91,13.91,0,0,1,10.44-.88c2.89,1,4.11,3.33,4.31,6.22C83.58,116.81,83.48,118.66,83.48,120.5Zm-5.09-.28c0-1.85,0-1.88-1.47-1.76a6.3,6.3,0,0,0-3.74,1.2,2.78,2.78,0,0,0-.76,3.11,2.35,2.35,0,0,0,2.44,1.47,3.47,3.47,0,0,0,1.54-.36A3.38,3.38,0,0,0,78.39,120.22Z" style="fill:#0073ac"/><path d="M159.43,112.14c0-3.1,0-6.2,0-9.3,0-.51.14-.67.65-.66q1.93,0,3.85,0c.48,0,.62.11.61.61,0,1.62,0,3.25,0,4.87,0,.47.14.63.62.62,1.11,0,2.23,0,3.34,0,.41,0,.54.12.54.54,0,1.26,0,2.52,0,3.78,0,.48-.17.56-.59.55-1.11,0-2.23,0-3.34,0-.39,0-.58.11-.57.53.05,2.52-.12,5,.09,7.56.17,2.08,1.23,2.82,3.31,2.42.94-.18.94-.18.94.75s0,1.79,0,2.69c0,.28,0,.52-.34.61a10,10,0,0,1-5.64.06,4.78,4.78,0,0,1-3.22-4.11,34.91,34.91,0,0,1-.24-5.87C159.42,115.87,159.43,114,159.43,112.14Z" style="fill:#0073ac"/><path d="M87,114.94c0-4,0-8,0-12,0-.66.19-.81.81-.78,1.26.05,2.52,0,3.78,0,.44,0,.58.13.58.57q0,12.17,0,24.33c0,.51-.19.6-.63.6-1.28,0-2.57,0-3.85,0-.55,0-.68-.15-.68-.69C87,123,87,119,87,114.94Z" style="fill:#0073ac"/><path d="M150.82,112a6.88,6.88,0,0,1,3.27-3.43,5.24,5.24,0,0,1,2.69-.44c.4,0,.59.14.58.61,0,1.31,0,2.62,0,3.92,0,.45-.16.54-.56.48a5.8,5.8,0,0,0-1.66,0,3.88,3.88,0,0,0-3.58,3.83c-.08,3.24,0,6.49-.05,9.73,0,1,0,1-1,1-1.26,0-2.52,0-3.78,0-.42,0-.59-.08-.59-.55q0-9,0-18c0-.39.08-.57.51-.56q1.82,0,3.63,0c.42,0,.54.14.53.54C150.8,110.08,150.82,111.06,150.82,112Z" style="fill:#0073ac"/><path d="M192.81,96.6a3.07,3.07,0,0,1,1.56.52,1.51,1.51,0,0,1,.69,1.49q-.4,4.58-.77,9.17a1.76,1.76,0,0,1-2.25,1.43c-.95-.27-1.16-.56-1.25-1.58-.26-2.89-.53-5.77-.82-8.65C189.82,97.48,190.72,96.62,192.81,96.6Z" style="fill:#efb541"/><path d="M209.14,123.08a3.71,3.71,0,0,1-1.62,2.76,1.66,1.66,0,0,1-2.08-.09c-2.33-1.82-4.78-3.47-7.21-5.16a1.48,1.48,0,0,1-.53-2.12c.61-1.08,1.27-1.37,2.22-.93,2.68,1.23,5.36,2.48,8,3.71A1.77,1.77,0,0,1,209.14,123.08Z" style="fill:#efb541"/><path d="M176,123a1.57,1.57,0,0,1,1.12-1.76l8-3.73a1.55,1.55,0,0,1,2.12.79c.53.89.45,1.68-.29,2.18-2.47,1.67-4.93,3.35-7.28,5.19a2,2,0,0,1-3-.51A3.06,3.06,0,0,1,176,123Z" style="fill:#efb541"/><path d="M192.48,134a2.8,2.8,0,0,1-1.75-.53,1.59,1.59,0,0,1-.78-1.59c.29-3.12.56-6.25.86-9.37.06-.65.55-.91,1.12-1.06a1.73,1.73,0,0,1,2.38,1.74c.18,2.67.33,5.35.7,8C195.28,133.2,194.14,133.94,192.48,134Z" style="fill:#efb541"/><path d="M178.53,104.48a2.11,2.11,0,0,1,1,.43l7.31,5.15c.84.59.95,1.2.4,2.19a1.51,1.51,0,0,1-2.07.81c-2.82-1.29-5.62-2.61-8.43-3.91-.9-.42-.84-1.2-.78-2A3.09,3.09,0,0,1,178.53,104.48Z" style="fill:#efb541"/><path d="M197.49,111.22a1.13,1.13,0,0,1,.56-1.11c2.36-1.64,4.7-3.29,7.05-4.92,1.58-1.09,3-.67,3.71,1.13a3,3,0,0,1,.31,1.4,1.59,1.59,0,0,1-.9,1.46c-2.77,1.29-5.53,2.59-8.32,3.85A1.76,1.76,0,0,1,197.49,111.22Z" style="fill:#efb541"/><path d="M136,140.83q-.83,3.18-1.66,6.36c-.11.43-.16.81-.8.79s-.65-.23-.75-.64c-.54-2.12-1.1-4.24-1.77-6.36,0,.55-.1,1.1-.12,1.65-.07,1.57-.16,3.15-.16,4.72,0,.9-.58.67-1.08.72-.65.07-.55-.38-.53-.75.2-3.4.41-6.81.6-10.21,0-.38.15-.48.52-.5,1.26-.05,1.28-.07,1.6,1.12.58,2.17,1.14,4.34,1.71,6.52.35-.1.2-.4.25-.6.56-2.15,1.13-4.3,1.65-6.46.11-.44.27-.63.72-.58a3.25,3.25,0,0,0,.65,0c.41,0,.59.07.62.55.1,2.08.27,4.15.39,6.23.08,1.38.1,2.76.2,4.13,0,.44-.08.54-.49.55-1.12,0-1.1,0-1.14-1.07-.09-2.06-.21-4.11-.31-6.16Z" style="fill:#f8fbf6"/><path d="M46.46,144.14c0-2.37,0-4.59,0-6.81,0-.65.23-.73.79-.74s.79.1.79.74c0,3.32,0,6.64,0,10,0,.26.22.74-.28.74s-1.13.33-1.43-.45c-.88-2.25-1.78-4.49-2.67-6.73,0-.11-.1-.2-.17-.35,0,1.7,0,3.33,0,5,0,.7,0,1.4,0,2.1,0,.48-.26.55-.59.47s-1,.34-1-.46c0-3.49,0-7,0-10.46,0-.43.17-.5.56-.53a1.11,1.11,0,0,1,1.34.83C44.59,139.63,45.52,141.81,46.46,144.14Z" style="fill:#f8fbf6"/><path d="M64.66,147.67a2.37,2.37,0,0,1-2.4,0,2.57,2.57,0,0,1-.94-1.26,6.34,6.34,0,0,1,0-5.21,2.24,2.24,0,0,1,3.33-1.26c.21.09.23,0,.37-.12a1.42,1.42,0,0,1,1.31-.1c.37.1.12.51.12.77,0,2.4,0,4.8,0,7.19a3.64,3.64,0,0,1-1,2.85,3.71,3.71,0,0,1-3.83.41c-.66-.33-.06-.79,0-1.18s.29-.24.52-.14a2.76,2.76,0,0,0,.49.13C64.15,150.1,65,149.27,64.66,147.67Zm.06-3.87a6.12,6.12,0,0,0-.07-1.94c-.13-.42-.37-.78-.82-.81a1,1,0,0,0-1,.73,5.76,5.76,0,0,0,0,3.89c.16.48.46.88,1,.82s.79-.54.85-1A14.65,14.65,0,0,0,64.72,143.8Z" style="fill:#f8fbf6"/><path d="M121.88,139.89c0-1,0-2,0-3,0-.45.08-.69.59-.62a1.76,1.76,0,0,0,.51,0c.52-.08.65.14.65.65,0,3.46,0,6.92,0,10.38,0,.24.18.63-.19.68s-1,.27-1.21-.13-.38-.18-.61-.06a2,2,0,0,1-3-.89,6.89,6.89,0,0,1-.4-5.15C118.76,139.83,119.92,139.25,121.88,139.89Zm0,3.94a7.7,7.7,0,0,0-.14-2,1.05,1.05,0,0,0-.86-.79.91.91,0,0,0-.91.71,6.34,6.34,0,0,0,0,4.19.86.86,0,0,0,.84.68c.43,0,.67-.33.85-.7A5.7,5.7,0,0,0,121.89,143.83Z" style="fill:#f8fbf6"/><path d="M78,140.1a2.35,2.35,0,0,1,2.42-.33,2.58,2.58,0,0,1,1.26,1.7,7.08,7.08,0,0,1-.49,5.54,2,2,0,0,1-3,.75c-.22-.15-.28-.2-.46.08-.31.45-.85.22-1.27.18s-.2-.44-.18-.67c.23-3.34.05-6.68.1-10,0-.59-.11-1.07.84-1.07s.79.56.79,1.1C78,138.24,78,139.11,78,140.1Zm0,3.69a5.54,5.54,0,0,0,.19,2c.18.42.39.82.89.82s.8-.38.94-.85a6.43,6.43,0,0,0,0-3.84c-.14-.47-.42-.87-.93-.88s-.73.41-.91.82A5.09,5.09,0,0,0,78,143.79Z" style="fill:#f8fbf6"/><path d="M97.86,140.07c2.05-1.21,3.52,0,3.63,1.83s0,3.82,0,5.74c0,.33-.14.43-.44.41a6,6,0,0,0-.73,0c-.45,0-.58-.17-.57-.6,0-1.5,0-3,0-4.5a10.14,10.14,0,0,0,0-1A.93.93,0,0,0,99,141c-.48-.1-.76.24-1,.59a1.74,1.74,0,0,0-.19,1c0,1.6,0,3.2,0,4.79,0,.58-.21.74-.72.65s-1,.29-1-.64q.06-5.23,0-10.46c0-.78.43-.64.87-.64s.93-.17.88.63C97.81,138,97.86,139,97.86,140.07Z" style="fill:#f8fbf6"/><path d="M70.4,140.09a2.7,2.7,0,0,1,1.95-.5A2.11,2.11,0,0,1,74,141.7c.07,2,0,3.92,0,5.88,0,.34-.13.45-.47.48-1.17.09-1.18.09-1.18-1.06,0-1.36,0-2.71,0-4.07a7,7,0,0,0-.11-1.15.84.84,0,0,0-.68-.76.92.92,0,0,0-.95.54,2.23,2.23,0,0,0-.27,1.19c0,1.55,0,3.1,0,4.65,0,.48-.1.69-.63.67-1.3-.05-1.11.16-1.11-1.13,0-3.29,0-6.59,0-9.88,0-.8.36-.77.92-.76s.93-.05.86.72C70.34,138,70.4,139,70.4,140.09Z" style="fill:#f8fbf6"/><path d="M153.9,144.65a20.27,20.27,0,0,0-.08,2.49c0,.29.17.72-.19.85a2.57,2.57,0,0,1-1.36,0c-.2,0-.15-.28-.15-.44q0-5.41,0-10.83c0-.3.07-.47.4-.43.1,0,.19,0,.29,0,1.16,0,1-.14,1,1,0,1.67,0,3.34,0,5.14a7.42,7.42,0,0,0,1.19-1.91,1.29,1.29,0,0,1,1.52-.87,6.18,6.18,0,0,0,.88,0,25.46,25.46,0,0,1-1.59,2.48,1.65,1.65,0,0,0-.1,2.19c.63,1,1.09,2.15,1.64,3.23.17.32.16.46-.26.49-1.33.11-1.34.1-1.89-1.09-.36-.79-.74-1.56-1.12-2.34Z" style="fill:#f8fbf6"/><path d="M116.37,143.85a5,5,0,0,1-.83,3.25,2.42,2.42,0,0,1-4,0,6.3,6.3,0,0,1-.28-5.91,2.47,2.47,0,0,1,2.4-1.59A2.57,2.57,0,0,1,116,141.3,5.66,5.66,0,0,1,116.37,143.85Zm-4,0a5.54,5.54,0,0,0,.33,2.13c.16.37.39.69.84.68a.88.88,0,0,0,.82-.71,6.61,6.61,0,0,0,0-4.19c-.13-.42-.37-.81-.91-.78s-.69.42-.83.8A6,6,0,0,0,112.38,143.84Z" style="fill:#f8fbf6"/><path d="M109.13,143.81a5.56,5.56,0,0,1-.83,3.25,2.42,2.42,0,0,1-4,0,6.19,6.19,0,0,1-.25-6,2.45,2.45,0,0,1,2.45-1.49,2.61,2.61,0,0,1,2.3,1.84A6.35,6.35,0,0,1,109.13,143.81Zm-1.66,0a5.86,5.86,0,0,0-.43-2.25.85.85,0,0,0-.75-.59.78.78,0,0,0-.77.55,6.27,6.27,0,0,0,0,4.58.8.8,0,0,0,.78.55.83.83,0,0,0,.76-.58A6,6,0,0,0,107.48,143.81Z" style="fill:#f8fbf6"/><path d="M83.49,144.05a6.78,6.78,0,0,1,.43-2.62,2.71,2.71,0,0,1,2.51-1.89,2.55,2.55,0,0,1,2.44,1.95,6.43,6.43,0,0,1-.45,5.52,2.44,2.44,0,0,1-4.12,0A6,6,0,0,1,83.49,144.05Zm1.75-.25a4.62,4.62,0,0,0,.31,2.19.92.92,0,0,0,.87.66.83.83,0,0,0,.79-.65,6.61,6.61,0,0,0,0-4.33.89.89,0,0,0-.83-.7c-.51,0-.7.36-.86.75A4.63,4.63,0,0,0,85.24,143.81Z" style="fill:#f8fbf6"/><path d="M144.86,144.75a27.79,27.79,0,0,0,.07,2.91c0,.23,0,.44-.26.38-.43-.11-1,.37-1.31-.33-.09-.21-.23,0-.34.07a2,2,0,0,1-3.22-1.4,2.93,2.93,0,0,1,2.37-3.67c.44-.09,1.09.05.94-.8-.12-.69-.49-1-1.28-.93a4.73,4.73,0,0,0-.49.11c-.25,0-.52.41-.7.23s-.25-.61-.37-.92.14-.33.3-.4c2-1,4.32-.47,4.29,2.37C144.86,143.12,144.86,143.87,144.86,144.75Zm-1.64.14c0-.23,0-.42,0-.62s-.14-.41-.45-.38a1.64,1.64,0,0,0-1.36,2.09c.12.35.3.7.73.71a.91.91,0,0,0,.89-.63A2.41,2.41,0,0,0,143.22,144.89Z" style="fill:#f8fbf6"/><path d="M161.85,144.15h-1.16c-.74,0-.82.1-.65.85.33,1.47,1.14,1.93,2.62,1.49.19-.06.51-.41.56.12s.63,1-.13,1.22c-2.05.67-3.88.32-4.57-2.19a6.19,6.19,0,0,1,.34-4.45,2.45,2.45,0,0,1,3.71-1.17,4.65,4.65,0,0,1,1.17,3.87c-.08.25-.25.26-.44.26h-1.45Zm-.84-1.33c1.09,0,1.09,0,1.08-.35,0-.82-.45-1.48-1-1.5s-1.14.77-1.08,1.5S160.74,142.63,161,142.82Z" style="fill:#f8fbf6"/><path d="M53.53,144.15a2,2,0,0,0-.58,0c-.43.14-1.13-.39-1.27.34A1.89,1.89,0,0,0,53,146.61a2.83,2.83,0,0,0,1.29-.11c.29-.07.64-.32.69.23s.44,1-.33,1.17c-2.43.6-3.92,0-4.51-2.57a6,6,0,0,1,.47-4.24A2.54,2.54,0,0,1,53,139.56a2.37,2.37,0,0,1,2.16,1.86,6.56,6.56,0,0,1,.26,2.29c0,.35-.17.46-.5.45S54,144.15,53.53,144.15Zm-1-1.34c1.18,0,1.18,0,1.2-.34,0-.73-.45-1.49-1-1.51s-1.12.78-1.08,1.51S52.33,142.64,52.55,142.82Z" style="fill:#f8fbf6"/><path d="M167.51,137.84c0,.17,0,.34,0,.5,0,.41-.16.89.09,1.2s.73.1,1.1.12c.59,0,.34.47.38.76s0,.54-.43.57c-1.15.07-1.14.1-1.14,1.23s0,2.28,0,3.41c0,.57.2,1,.91.91.27,0,.53-.06.48.3s.36,1-.31,1.18a1.94,1.94,0,0,1-2.71-1.74c-.17-1.5,0-3-.07-4.5,0-.45.07-.87-.64-.83-.53,0-.25-.47-.29-.72s-.11-.57.33-.57c.29,0,.66,0,.58-.41-.14-.8.33-1.07,1-1.23C167,138,167.23,137.8,167.51,137.84Z" style="fill:#f8fbf6"/><path d="M91,143.81c0-1.16,0-2.32,0-3.48,0-.23-.15-.64.25-.63s1-.33,1.3.22c.17.35.26.23.44.09a1.58,1.58,0,0,1,.24-.17c.41-.2.91-.56,1.27-.21s.13.91.12,1.39c0,.19-.16.19-.31.23a1.68,1.68,0,0,0-1.54,1.9c0,1.4,0,2.81,0,4.2,0,.7-.32.72-.83.7s-1,.09-.92-.7c.07-1.18,0-2.37,0-3.55Z" style="fill:#f8fbf6"/><path d="M148.69,140.33a4.55,4.55,0,0,1,.54-.43c.42-.23.93-.62,1.33-.26s.1.92.11,1.4c0,.25-.22.2-.38.22a1.4,1.4,0,0,0-1.37,1.33,37,37,0,0,0-.14,4.49c0,.31.2.79-.18.91a2.65,2.65,0,0,1-1.29,0c-.34-.07-.21-.44-.21-.69q0-3.45,0-6.91c0-.29-.21-.78.38-.73S148.63,139.3,148.69,140.33Z" style="fill:#f8fbf6"/><path d="M58.91,143.84c0,1.21,0,2.42,0,3.63,0,.76-.46.57-.86.58s-.87.12-.86-.6c0-2.4,0-4.79,0-7.19,0-.81.54-.55.95-.58s.79,0,.77.61C58.88,141.46,58.91,142.65,58.91,143.84Z" style="fill:#f8fbf6"/><path d="M59.06,137.88a1.05,1.05,0,0,1-1,1,1,1,0,0,1-.93-1.08,1,1,0,0,1,1.95.07Z" style="fill:#f8fbf6"/><path d="M64.72,143.8a14.65,14.65,0,0,1,0,1.66c-.06.49-.27,1-.85,1s-.88-.34-1-.82a5.76,5.76,0,0,1,0-3.89,1,1,0,0,1,1-.73c.45,0,.69.4.82.81A6.12,6.12,0,0,1,64.72,143.8Z" style="fill:#73b745"/><path d="M121.89,143.83a5.7,5.7,0,0,1-.21,2.08c-.18.37-.42.68-.85.7a.86.86,0,0,1-.84-.68,6.34,6.34,0,0,1,0-4.19.91.91,0,0,1,.91-.71,1.05,1.05,0,0,1,.86.79A7.7,7.7,0,0,1,121.89,143.83Z" style="fill:#73b745"/><path d="M78,143.79a5.07,5.07,0,0,1,.18-1.93c.18-.41.42-.83.91-.82s.79.4.93.88a6.43,6.43,0,0,1,0,3.84c-.15.47-.41.85-.94.85s-.72-.4-.89-.82A5.52,5.52,0,0,1,78,143.79Z" style="fill:#73b745"/><path d="M112.38,143.84a6,6,0,0,1,.29-2.07c.14-.38.33-.78.83-.8s.78.36.91.78a6.61,6.61,0,0,1,0,4.19.88.88,0,0,1-.82.71c-.46,0-.68-.32-.84-.68A5.54,5.54,0,0,1,112.38,143.84Z" style="fill:#73b745"/><path d="M107.48,143.81a6,6,0,0,1-.42,2.27.83.83,0,0,1-.76.58.8.8,0,0,1-.78-.55,6.27,6.27,0,0,1,0-4.58.78.78,0,0,1,.77-.55.85.85,0,0,1,.75.59A5.86,5.86,0,0,1,107.48,143.81Z" style="fill:#73b745"/><path d="M85.24,143.81a4.63,4.63,0,0,1,.28-2.08c.15-.39.35-.76.86-.75a.89.89,0,0,1,.83.7,6.61,6.61,0,0,1,0,4.33.83.83,0,0,1-.79.65.92.92,0,0,1-.87-.66A4.62,4.62,0,0,1,85.24,143.81Z" style="fill:#73b745"/><path d="M143.22,144.89a2.41,2.41,0,0,1-.18,1.17.91.91,0,0,1-.89.63c-.43,0-.61-.36-.73-.71a1.64,1.64,0,0,1,1.36-2.09c.3,0,.47,0,.45.38S143.22,144.66,143.22,144.89Z" style="fill:#73b745"/><path d="M161,142.82c-.27-.18-.91.36-1-.35s.58-1.52,1.08-1.5.94.67,1,1.5C162.1,142.82,162.1,142.82,161,142.82Z" style="fill:#73b745"/><path d="M52.55,142.82c-.22-.18-.81.36-.85-.34s.57-1.53,1.08-1.51,1,.77,1,1.51C53.73,142.83,53.73,142.83,52.55,142.82Z" style="fill:#73b745"/><path d="M213.52,128.38a1.8,1.8,0,1,1,1.8-1.8A1.8,1.8,0,0,1,213.52,128.38Zm0-3.31a1.51,1.51,0,1,0,1.51,1.51A1.51,1.51,0,0,0,213.52,125.07Z" style="fill:#efb541"/><path d="M212.74,127.45v-1.74h.74a1.26,1.26,0,0,1,.41,0,.4.4,0,0,1,.2.17.5.5,0,0,1,.08.27.46.46,0,0,1-.12.32.55.55,0,0,1-.34.16.82.82,0,0,1,.19.15,2,2,0,0,1,.2.28l.21.34h-.42l-.25-.38a2.46,2.46,0,0,0-.19-.26.27.27,0,0,0-.11-.07l-.18,0h-.07v.73Zm.35-1h.26a1.34,1.34,0,0,0,.32,0,.19.19,0,0,0,.1-.07.23.23,0,0,0,0-.13.21.21,0,0,0,0-.14.21.21,0,0,0-.13-.07h-.53Z" style="fill:#efb541"/></svg>