<svg xmlns="http://www.w3.org/2000/svg" viewBox="0 0 250 250"><title>Mass</title><path d="M35.86,134.3c.73-3.9,1.65-7.72,2.53-11.54.83-3.62,1.7-7.24,2.53-10.86.07-.32.19-.43.52-.43q2.83,0,5.67,0c.35,0,.48.09.55.44,1.18,5.66,2.46,11.29,3.54,17,.33,1.75.61,3.51.94,5.41.16-.91.29-1.69.43-2.46,1.09-6.09,2.43-12.13,3.67-18.19.12-.59.27-1.17.36-1.76.05-.34.2-.42.52-.42,1.77,0,3.53,0,5.3,0,.47,0,.55.09.43.54q-1.72,6.43-3.41,12.87-2,7.74-4.08,15.48a.78.78,0,0,1-.76.69,9,9,0,0,1-3.26,0,4.36,4.36,0,0,1-3.4-3.27c-.58-1.92-.91-3.91-1.34-5.87-.79-3.61-1.63-7.22-2.21-10.88-.12-.77-.22-1.55-.42-2.34-.11.61-.22,1.22-.33,1.83-.7,3.85-1.74,7.62-2.66,11.43-.68,2.81-1.38,5.61-2.05,8.42a.69.69,0,0,1-.69.62,17,17,0,0,1-2.32.2,4.31,4.31,0,0,1-4.32-3,42.78,42.78,0,0,1-1.47-5.51q-2.54-10.32-5-20.64c-.16-.65-.16-.64.49-.65,1.84,0,3.67,0,5.51,0,.34,0,.48.08.55.45,1.4,7.3,2.92,14.58,4.12,21.93C35.78,134,35.82,134.14,35.86,134.3Z" style="fill:#017dc6"/><path d="M100.67,121.73a7.28,7.28,0,0,1,6.56-3.41,6.35,6.35,0,0,1,6.09,4l.66-.83a8.22,8.22,0,0,1,8.73-2.84,6.92,6.92,0,0,1,4.65,4.88,14,14,0,0,1,.61,4.33c0,4.2,0,8.4,0,12.6,0,.42-.13.49-.51.49-1.68,0-3.35,0-5,0-.4,0-.49-.11-.49-.5,0-3.83,0-7.66,0-11.49a10.87,10.87,0,0,0-.31-2.78,3.31,3.31,0,0,0-3.27-2.84,3.78,3.78,0,0,0-3.71,2.83,7,7,0,0,0-.22,1.89c0,4.11,0,8.23,0,12.34,0,.43-.1.56-.54.56-1.66,0-3.32,0-5,0-.4,0-.5-.11-.5-.5,0-4,0-7.91,0-11.86a8.22,8.22,0,0,0-.44-3,3.32,3.32,0,0,0-5.48-1.29,4.55,4.55,0,0,0-1.54,3.47c0,4.2,0,8.4,0,12.6,0,.5-.14.61-.61.6-1.64,0-3.28,0-4.93,0-.38,0-.51-.07-.51-.48q0-10.59,0-21.18c0-.37.1-.47.47-.47,1.59,0,3.18,0,4.77,0,.41,0,.51.12.49.51C100.64,120.11,100.67,120.92,100.67,121.73Z" style="fill:#017dc6"/><path d="M144.08,138.26a7.55,7.55,0,0,1-4.46,2.9,7.85,7.85,0,0,1-6.4-.93,7,7,0,0,1-.35-11.07,12.41,12.41,0,0,1,5.89-2.44,22.36,22.36,0,0,1,4.16-.34c.37,0,.48-.11.47-.48a3.23,3.23,0,0,0-3.22-3.2,11.52,11.52,0,0,0-6.67,1.41c-.37.2-.44.12-.54-.24q-.42-1.55-.91-3.09c-.12-.36-.06-.55.3-.72a16.66,16.66,0,0,1,5.3-1.57,16.1,16.1,0,0,1,5.48.12,7.62,7.62,0,0,1,6.28,6.88,21.25,21.25,0,0,1,.17,2.69c0,3.18,0,6.35,0,9.53a19.1,19.1,0,0,0,.25,2.84c.05.34,0,.42-.34.49a4.32,4.32,0,0,1-4.78-1.79C144.51,138.92,144.31,138.59,144.08,138.26Zm-.5-6.18c0-.48,0-1,0-1.43,0-.31-.1-.38-.4-.38a17.18,17.18,0,0,0-2.37.16,6.63,6.63,0,0,0-3.27,1.25,3.11,3.11,0,0,0-1,3.2,2.44,2.44,0,0,0,1.91,2,4.09,4.09,0,0,0,5.15-3.83C143.57,132.75,143.58,132.41,143.58,132.08Z" style="fill:#017dc6"/><path d="M75.32,138.27a7.81,7.81,0,0,1-1.45,1.46,8.31,8.31,0,0,1-8.23,1.1c-4.7-1.85-5.53-8.43-1.52-11.71A12.4,12.4,0,0,1,70,126.71a22.71,22.71,0,0,1,4.21-.35c.34,0,.46-.08.45-.45a3.24,3.24,0,0,0-3.24-3.24,11.57,11.57,0,0,0-6.67,1.42c-.32.17-.42.16-.51-.21q-.43-1.61-.94-3.19c-.12-.36,0-.49.29-.64a17,17,0,0,1,6.66-1.71,15,15,0,0,1,4.31.29,7.5,7.5,0,0,1,6,6.28,15.87,15.87,0,0,1,.25,3.16c0,3.3-.06,6.6.07,9.9,0,.84.12,1.69.23,2.53,0,.34,0,.46-.36.53a4.29,4.29,0,0,1-4.64-1.65C75.83,139,75.59,138.66,75.32,138.27Zm-.5-6.21c0-.46,0-.92,0-1.38s-.07-.43-.41-.42a18.43,18.43,0,0,0-2.37.17,6.63,6.63,0,0,0-3.27,1.25,3.12,3.12,0,0,0-1,3.2,2.43,2.43,0,0,0,1.92,2,4.09,4.09,0,0,0,5.14-3.85C74.82,132.73,74.83,132.4,74.83,132.06Z" style="fill:#017dc6"/><path d="M169,123.13c0-3.71,0-7.41,0-11.12,0-.44.12-.56.56-.55q2.38,0,4.77,0c.46,0,.6.09.59.58,0,2,0,3.92,0,5.88,0,.46.14.55.56.54,1.39,0,2.79,0,4.18,0,.35,0,.49.06.49.46,0,1.59,0,3.18,0,4.77,0,.33-.1.42-.42.42-1.45,0-2.9,0-4.34,0-.27,0-.47,0-.46.37,0,3,0,6,.05,9a4.58,4.58,0,0,0,.28,1.39,2.14,2.14,0,0,0,2.07,1.52,7.5,7.5,0,0,0,2.21-.17c.32-.08.4,0,.4.32q0,2,0,4a.35.35,0,0,1-.3.42,12.48,12.48,0,0,1-6,.3,5.65,5.65,0,0,1-4.46-5A18.81,18.81,0,0,1,169,133Q169,128.06,169,123.13Z" style="fill:#017dc6"/><path d="M84.79,126.18c0-4.71,0-9.42,0-14.14,0-.46.1-.59.57-.59,1.64,0,3.28,0,4.92,0,.41,0,.5.12.5.51q0,14.22,0,28.43c0,.42-.12.53-.53.52q-2.49,0-5,0c-.41,0-.49-.12-.49-.5Q84.8,133.3,84.79,126.18Z" style="fill:#017dc6"/><path d="M159,123c.22-.09.21-.31.29-.48a6.52,6.52,0,0,1,4.9-4.09,6.67,6.67,0,0,1,1.9,0c.29,0,.41.15.41.47,0,1.64,0,3.28,0,4.92,0,.41-.15.47-.5.41a6.85,6.85,0,0,0-2.53,0,4.61,4.61,0,0,0-3.71,4.26c0,.56-.07,1.13-.07,1.69q0,5.13,0,10.27c0,.39-.09.51-.49.5-1.75,0-3.49,0-5.24,0-.34,0-.45-.08-.45-.44q0-10.61,0-21.23c0-.38.11-.47.48-.47,1.5,0,3,0,4.5,0,.34,0,.46.08.45.44,0,1.08,0,2.15,0,3.23C159,122.63,158.89,122.81,159,123Z" style="fill:#017dc6"/><path d="M205.65,120.72a3.08,3.08,0,0,1-1.52,2.44,1.47,1.47,0,0,1-1.46.09q-5.84-2.74-11.69-5.45a2,2,0,0,1-1.15-1.77,4.47,4.47,0,0,1,3.11-4.51,1.72,1.72,0,0,1,1.41.26L205,119.26A1.62,1.62,0,0,1,205.65,120.72Z" style="fill:#fec221"/><path d="M212.31,100.85a4.22,4.22,0,0,1,2.62.74,2.06,2.06,0,0,1,.92,2c-.39,4.2-.74,8.4-1.1,12.59a1.55,1.55,0,0,1-.82,1.33,3,3,0,0,1-3.12-.06,1.48,1.48,0,0,1-.72-1.22c-.33-3.81-.68-7.62-1-11.43,0-.33,0-.67-.08-1a2.15,2.15,0,0,1,1.17-2.39A4.07,4.07,0,0,1,212.31,100.85Z" style="fill:#fec221"/><path d="M212.52,134.5a2.88,2.88,0,0,1,1.37.37,1.56,1.56,0,0,1,.85,1.26q.33,3.82.66,7.64c.15,1.69.27,3.38.45,5.06a2.05,2.05,0,0,1-1,2,4.61,4.61,0,0,1-4.86,0,2.2,2.2,0,0,1-1-2.25c.24-2.15.4-4.32.59-6.48s.36-4.11.54-6.16a1.32,1.32,0,0,1,.54-.94A2.88,2.88,0,0,1,212.52,134.5Z" style="fill:#fec221"/><path d="M193.37,140.91a2.37,2.37,0,0,1-1.16-.28,4.57,4.57,0,0,1-2.35-4.5,1.94,1.94,0,0,1,1.14-1.55l11.65-5.41a1.5,1.5,0,0,1,1.42,0,3,3,0,0,1,1.56,2.43,1.63,1.63,0,0,1-.77,1.62q-5.19,3.61-10.36,7.25A1.72,1.72,0,0,1,193.37,140.91Z" style="fill:#fec221"/><path d="M235,115.72a2.22,2.22,0,0,1-1.39,2.21c-3.8,1.74-7.58,3.51-11.36,5.29a1.58,1.58,0,0,1-1.61-.08,3,3,0,0,1-1.42-2.07,1.8,1.8,0,0,1,.83-2c3.42-2.35,6.8-4.74,10.19-7.13a2.09,2.09,0,0,1,2.28-.19A4.63,4.63,0,0,1,235,115.72Z" style="fill:#fec221"/><path d="M235,137a4.48,4.48,0,0,1-2.44,3.6,2.07,2.07,0,0,1-2.33-.18q-5.07-3.6-10.18-7.13a1.81,1.81,0,0,1-.81-2,3,3,0,0,1,1.16-1.9,1.72,1.72,0,0,1,1.93-.21c3.75,1.76,7.5,3.51,11.26,5.23A2.39,2.39,0,0,1,235,137Z" style="fill:#fec221"/></svg>