<svg xmlns="http://www.w3.org/2000/svg" viewBox="0 0 250 250"><title>Grocery</title><path d="M117.42,119.58l0,0c-.16-.19-.32-.36-.48-.51a5,5,0,0,0-4.3-1.08c-2.86.42-5.42,2.4-7.25,4.19-1.37,1.34-2.94,3.13-3.92,4.18l-.93.89c-1.6,1.52-6.66,5.05-9.8,4.84a2.09,2.09,0,0,1-2.14-1.62v0h.06a15.08,15.08,0,0,0,4.21-1,14.73,14.73,0,0,0,7.25-4.93,8.84,8.84,0,0,0,1.22-2.46c.48-1.55.61-4.3-3.64-4.18a14.38,14.38,0,0,0-6.61,2c-3.56,1.88-7.14,5.61-8.28,9.49-.9,3.08-.53,6.59,3.58,7.39a7.46,7.46,0,0,0,1.8.12c4.06-.21,9.23-3.71,12.33-6.71a6.6,6.6,0,0,0,.44,5.1,3.52,3.52,0,0,0,1.41,1.34c2,1,4.78-.23,6.51-1.63l.6-.47-2.86,5.33c-1.77,3.3-5.52,9.36-10.34,11.21-3.21,1.23-5.87-.25-5.5-3.47a11.06,11.06,0,0,1,.35-1.79l-.09.05a6.14,6.14,0,0,0-2.95,5.79c.18,1.9,1.29,4,4.76,4.75,9.22,1.45,16.44-10.4,19.28-15.69l12.1-22.51h-6Zm-28.57,7.33v0A7.39,7.39,0,0,1,92,122c2.06-1.4,3.19-1,3.56-.19.64,1.37-1.48,2.91-2.39,3.49a9.71,9.71,0,0,1-3.93,1.52Zm24.46-5.72a3.14,3.14,0,0,1,.44-.05,1.79,1.79,0,0,1,1.81,1.87h0l-1.77,3.3-.08.15a11.79,11.79,0,0,1-4.69,5,2.92,2.92,0,0,1-1,.36c-1.32.14-2-.83-1.63-2.26.84-3.47,4.67-8.23,6.9-8.39m59.93,7.88L170.52,131c-.29-1.93,6.15-12.87,6.15-12.87h-6.07a8.59,8.59,0,0,1-.47.84c0-.05-2.36-2.06-6.57-.19a14,14,0,0,0-4.45,2.8c-5.25,4.53-2.52,2.72-7.74,6.71-1.41,1.07-2.54,1.92-2.54,1.92q1.07-2.26,1.91-4l.08-.17c1.24-2.5,2.31-5.06,2.18-6.58-.26-1.75-2.1-3.2-10.09,1.64l-1.32.91a6.81,6.81,0,0,0,.44-2.54c-.26-1.75-2.1-3.2-10.09,1.64l-.77.53L133,118.2l0-.05h-6l-9.51,17.69h6l.06-.1,5.63-10.46c1.17-.91,2-1.49,3.29-2.3,1-.62,1.91-1,2.29-.75a.81.81,0,0,1,.2.7,11.7,11.7,0,0,1-.76,1.75l-5.91,11.17h6.34l.05-.12,3.72-7c.6-1.12,1.25-2.35,1.82-3.56,1.13-.87,2-1.45,3.21-2.24,1-.62,1.91-1,2.29-.75a.81.81,0,0,1,.2.7,11.59,11.59,0,0,1-.76,1.75L144,126.86h0a54.11,54.11,0,0,0-2.83,5.84c-.58,1.55-.63,3.46,1.37,3.64s4.48-1.74,5.47-2.49c1.29-1,4-3.37,5.33-4.56a8.22,8.22,0,0,0-.25,5.43,3.16,3.16,0,0,0,.17.41c1.25,2.53,4.6,1.95,7.06.5a20.25,20.25,0,0,0,3.15-2.4s-.2,3.4,2.51,3.43c2.27,0,7.67-4.5,9.46-6.06l-2.82,5.25h6l.06-.1,5.63-10.46c1.17-.91,2-1.49,3.3-2.3,1-.62,1.91-1,2.29-.75a.82.82,0,0,1,.2.7,11.71,11.71,0,0,1-.76,1.75L188.12,127h0a52.7,52.7,0,0,0-2.76,5.71c-.55,1.44-.62,3.21,1,3.58,2.29.54,5.24-1.48,6.89-2.87.94-.68,1.66-1.26,2.11-1.63a5.83,5.83,0,0,0,1,2.45c2.89,4.25,9.43,3,11.8,2,3.53-1.52,6.73-5.12,1.51-13.2a3,3,0,0,1-.61-2.69,1.82,1.82,0,0,1,2.15-1.11c1.2.26.64,2.64,0,3.67,3,0,4.94-1.49,3.56-3.81-.5-.85-3.83-3.2-7.81.24-2.16,1.86-2.84,5.54-1.25,9.45a9.52,9.52,0,0,1,.85,3.45,2.31,2.31,0,0,1-2.56,2.46,3.83,3.83,0,0,1-3.64-4.42,7.3,7.3,0,0,1,3.3-4.55,6.57,6.57,0,0,0-5.41.7,6.45,6.45,0,0,0-2.46,2.68l-1.35,1c-1.41,1.07-2.54,1.92-2.54,1.92.45-.95,2-3.63,2.34-4.43.76-1.56,3.59-6.54,2.85-8.49-.49-1.54-2.62-2.43-10,2l-.77.53,1.87-3.47,0-.05h-6l-1.5,2.79c-1.57,2.73-1.88,4.18-7.43,8.14m-7.19-7.88a3.12,3.12,0,0,1,.44-.05,1.6,1.6,0,0,1,1.56,1.87h0l-1.77,3.3-.08.15a11.79,11.79,0,0,1-4.69,5,2.66,2.66,0,0,1-.86.37c-1.21.14-1.81-.62-1.6-1.83.6-3.5,4.66-8.65,7-8.82M46.54,123.88c-1.8,4-3.09,8-2.6,10.45.28,2,1.62,3.43,5.07,2.81a26.22,26.22,0,0,0,9.11-4.91,5.46,5.46,0,0,0,1.61,4.18,5.78,5.78,0,0,0,5,.73c10.69-2.37,22.1-14.59,25.08-26.39,1.14-4.49,1.41-11.49-2.62-14.85-2.69-2.25-6.67-2.38-10.08.78l0,0a4.64,4.64,0,0,1,3.42.7c1.5,1,2.47,3,2.87,5.8.63,8.74-3.85,18.59-9.69,24.38a18.13,18.13,0,0,1-4.38,3.25c-1.33.62-2.23.51-2.75,0-1.3-1.33-.17-4,.49-5.24l9.73-18.41H70.13l-9.79,18.18c-.74,1.18-1.86,2.22-4.36,4.13a11.69,11.69,0,0,1-1.86,1.28c-2.71,1.34-2.68-.65-2-2.93,1-3.33,7.45-15.84,10.05-19.68l.53-1H56l0,0q-1.24,1.74-2.35,3.47l-.52.88a27.22,27.22,0,0,1-3.83,5.29C45.18,121.08,41,122,35.2,122.29h0l.27.26c2.41,2.19,8.2,2.3,10.71,1.45l.37-.13" style="fill:#231f20;fill-rule:evenodd"/></svg>