<svg xmlns="http://www.w3.org/2000/svg" viewBox="0 0 250 250"><title>Grocery</title><ellipse cx="125.29" cy="125.72" rx="7.78" ry="5.8" style="fill:#fe0000"/><path d="M35.29,167.58V83.88c.32,0,.65,0,1,0H214.32c.32,0,.65,0,1,0v83.7l-1,0H36.26Zm47.91-55.92c-1.35.1-3.63.21-5.89.44a11,11,0,0,0-4.66,1.31c-1.85,1.12-1.94,3-.23,4.26.59.46,1.23.86,1.8,1.34a2.64,2.64,0,0,1,.78,3.42,13.4,13.4,0,0,1-1.37,2.31C72.73,126,72,126,71,124.84a49.63,49.63,0,0,1-2.77-4.34,2.65,2.65,0,0,1,.17-3.36,2.43,2.43,0,0,0-.53-3.48,6.74,6.74,0,0,0-1.82-1,18.68,18.68,0,0,0-6-.94,35.63,35.63,0,0,0-10.71,1,12.71,12.71,0,0,0-3.11,1.41,2.62,2.62,0,0,0-1.16,2.81c.15,1.1.94,1.52,1.87,1.8.24.07.47.17.71.24a5,5,0,0,1,2.79,2.26c4,6.56,8,13.13,12.09,19.66a26.86,26.86,0,0,0,3.17,4.33,3.22,3.22,0,0,0,4.91-.2,6.36,6.36,0,0,0,.87-1.12c2-3.36,3.91-6.74,5.87-10.11A10.63,10.63,0,0,1,78.57,132a1.53,1.53,0,0,1,2.65.11,8.38,8.38,0,0,1,.56.8c1.41,2.27,2.8,4.55,4.23,6.81a22.78,22.78,0,0,0,4.25,5.49c1.56,1.33,2.86,1.34,4.42,0a15.47,15.47,0,0,0,3.63-4.82q4.72-9.08,9.35-18.2a8.35,8.35,0,0,1,3.23-3.75,18.9,18.9,0,0,1,2.48-1.06,2.19,2.19,0,0,0,1.58-1.9,2.37,2.37,0,0,0-1.12-2.52,8,8,0,0,0-2.27-.91,25,25,0,0,0-8.13-.19,10.58,10.58,0,0,0-3,.79,2.78,2.78,0,0,0-1.1,4.43,7.31,7.31,0,0,1,.87,1.21,2.07,2.07,0,0,1,.21,1.34,15,15,0,0,1-3,5.34c-1,1.13-1.82,1.15-2.67-.12a40.72,40.72,0,0,1-2.37-4.31A2.17,2.17,0,0,1,93,117.8c2.11-2.09,1.56-4.36-1.24-5.36l-.36-.11C89,111.63,86.56,111.7,83.19,111.65Zm51.34,18.55h7.12a11.44,11.44,0,0,0,1.27-.08,2.77,2.77,0,0,0,2.6-2.14,10.73,10.73,0,0,0,.33-3.69,13.8,13.8,0,0,0-7.06-10.41,17.64,17.64,0,0,0-15-1.46c-7.13,2.34-11.61,7.18-12.63,14.77a16.74,16.74,0,0,0,11.7,18.29,21.42,21.42,0,0,0,16.56-1.76,10.47,10.47,0,0,0,4.4-3.74,3.92,3.92,0,0,0,.06-4.45c-.9-1.42-1.89-1.65-3.36-.83a29,29,0,0,1-2.84,1.51c-3.1,1.32-6.17,1.42-9.06-.58a6.05,6.05,0,0,1-2.86-4c-.19-1.13.1-1.47,1.25-1.47Zm52.8,16.19c4,0,7-.72,9.64-2.54a9.62,9.62,0,0,0,3.78-11.53,11.31,11.31,0,0,0-5-5.48c-2-1.21-4.13-2.23-6.17-3.39a9.84,9.84,0,0,1-2.1-1.54,2,2,0,0,1,.55-3.33,2.22,2.22,0,0,1,2.42,0c.89.59,1.68,1.33,2.52,2a28.35,28.35,0,0,0,3.13,2.41,3.42,3.42,0,0,0,4-.22,3.16,3.16,0,0,0,1.11-3.5,13.12,13.12,0,0,0-3.57-6.64,3.21,3.21,0,0,0-3.75-.91,6.09,6.09,0,0,1-4.24.31c-.38-.11-.79-.15-1.18-.22a16.24,16.24,0,0,0-8.79.54c-8.69,3.22-8.63,13.27-4,17.67a28.35,28.35,0,0,0,5.79,4,33.72,33.72,0,0,1,3.44,2.24,1.73,1.73,0,0,1,.6,2,2,2,0,0,1-1.63,1.38,3.14,3.14,0,0,1-2.78-.53c-1.14-.93-2.18-2-3.25-3a28.94,28.94,0,0,0-2.75-2.52,2.33,2.33,0,0,0-3.73,1.47,6.73,6.73,0,0,0,0,2.52,15.68,15.68,0,0,0,2.82,6.47,4,4,0,0,0,4,1.68,21.61,21.61,0,0,1,3.87,0C184,146,186.07,146.25,187.33,146.39Zm-20.95-22.06h0q0-4.91,0-9.82a6.76,6.76,0,0,0-.05-1A1.84,1.84,0,0,0,164,111.7a59.19,59.19,0,0,0-10.93,2.17,13.94,13.94,0,0,0-5.29,2.55c-1.64,1.43-1.42,3.35.47,4.42a6.45,6.45,0,0,0,.66.36,3.22,3.22,0,0,1,2,2.91,65.78,65.78,0,0,1,.07,10c-.12,2.45-.81,4.44-3,5.89a2.66,2.66,0,0,0,.35,4.56,9,9,0,0,0,2.71,1,42.35,42.35,0,0,0,13.65.28,8.68,8.68,0,0,0,4.43-1.69c1.45-1.15,1.77-3.87-.3-4.83a3.82,3.82,0,0,1-2.12-2.93,14.3,14.3,0,0,1-.3-2.45C166.37,130.73,166.39,127.54,166.39,124.34Zm-12.8-14.6c1.76-.25,3.2-.39,4.62-.67a13.09,13.09,0,0,0,6.08-2.54,4.19,4.19,0,0,0,1.66-4.23c-.33-1.67-1.58-2.47-3.07-3a12.62,12.62,0,0,0-6.22-.21,17.72,17.72,0,0,0-7.2,2.59,4,4,0,0,0-2,4,3.92,3.92,0,0,0,2.87,3.4A24.87,24.87,0,0,0,153.58,109.74Z" style="fill:#fe0000"/><path d="M83.19,111.65c3.37,0,5.82,0,8.21.68l.36.11c2.8,1,3.35,3.27,1.24,5.36a2.17,2.17,0,0,0-.57,2.76,40.72,40.72,0,0,0,2.37,4.31c.85,1.26,1.65,1.24,2.67.12a15,15,0,0,0,3-5.34,2.07,2.07,0,0,0-.21-1.34,7.31,7.31,0,0,0-.87-1.21,2.78,2.78,0,0,1,1.1-4.43,10.58,10.58,0,0,1,3-.79,25,25,0,0,1,8.13.19,8,8,0,0,1,2.27.91,2.37,2.37,0,0,1,1.12,2.52,2.19,2.19,0,0,1-1.58,1.9,18.9,18.9,0,0,0-2.48,1.06,8.35,8.35,0,0,0-3.23,3.75q-4.65,9.11-9.35,18.2a15.47,15.47,0,0,1-3.63,4.82c-1.56,1.32-2.86,1.31-4.42,0A22.78,22.78,0,0,1,86,139.7c-1.42-2.26-2.82-4.54-4.23-6.81a8.38,8.38,0,0,0-.56-.8,1.53,1.53,0,0,0-2.65-.11,10.63,10.63,0,0,0-1.23,1.78c-2,3.36-3.91,6.74-5.87,10.11A6.36,6.36,0,0,1,70.6,145a3.22,3.22,0,0,1-4.91.2,26.86,26.86,0,0,1-3.17-4.33c-4.06-6.54-8.07-13.11-12.09-19.66a5,5,0,0,0-2.79-2.26c-.24-.08-.47-.17-.71-.24-.93-.28-1.72-.69-1.87-1.8a2.62,2.62,0,0,1,1.16-2.81,12.71,12.71,0,0,1,3.11-1.41,35.63,35.63,0,0,1,10.71-1,18.68,18.68,0,0,1,6,.94,6.74,6.74,0,0,1,1.82,1,2.43,2.43,0,0,1,.53,3.48,2.65,2.65,0,0,0-.17,3.36A49.63,49.63,0,0,0,71,124.84c.91,1.2,1.68,1.11,2.58-.11A13.4,13.4,0,0,0,75,122.42a2.64,2.64,0,0,0-.78-3.42c-.57-.48-1.2-.89-1.8-1.34-1.71-1.31-1.62-3.14.23-4.26a11,11,0,0,1,4.66-1.31C79.57,111.86,81.84,111.75,83.19,111.65Z" style="fill:#fff"/><path d="M134.54,130.2H127c-1.14,0-1.44.35-1.25,1.47a6.05,6.05,0,0,0,2.86,4c2.9,2,6,1.9,9.06.58a29,29,0,0,0,2.84-1.51c1.46-.83,2.45-.59,3.36.83a3.92,3.92,0,0,1-.06,4.45,10.47,10.47,0,0,1-4.4,3.74,21.42,21.42,0,0,1-16.56,1.76,16.74,16.74,0,0,1-11.7-18.29c1-7.59,5.49-12.43,12.63-14.77a17.64,17.64,0,0,1,15,1.46,13.8,13.8,0,0,1,7.06,10.41,10.73,10.73,0,0,1-.33,3.69,2.77,2.77,0,0,1-2.6,2.14,11.44,11.44,0,0,1-1.27.08h-7.12Zm-5.39-6.44h0c.75,0,1.5,0,2.25,0a1.61,1.61,0,0,0,1.67-1.25,4.25,4.25,0,0,0-1.59-4.25,3.65,3.65,0,0,0-4.22,0,4.57,4.57,0,0,0-1.86,4.25,1.52,1.52,0,0,0,1.51,1.22C127.64,123.8,128.4,123.76,129.15,123.76Z" style="fill:#fff"/><path d="M187.33,146.39c-1.26-.15-3.29-.43-5.33-.6a21.61,21.61,0,0,0-3.87,0,4,4,0,0,1-4-1.68,15.68,15.68,0,0,1-2.82-6.47,6.73,6.73,0,0,1,0-2.52,2.33,2.33,0,0,1,3.73-1.47,28.94,28.94,0,0,1,2.75,2.52c1.08,1,2.12,2,3.25,3a3.14,3.14,0,0,0,2.78.53,2,2,0,0,0,1.63-1.38,1.73,1.73,0,0,0-.6-2A33.72,33.72,0,0,0,181.4,134a28.35,28.35,0,0,1-5.79-4c-4.62-4.4-4.68-14.45,4-17.67a16.24,16.24,0,0,1,8.79-.54c.39.07.8.11,1.18.22a6.09,6.09,0,0,0,4.24-.31,3.21,3.21,0,0,1,3.75.91,13.12,13.12,0,0,1,3.57,6.64,3.16,3.16,0,0,1-1.11,3.5,3.42,3.42,0,0,1-4,.22,28.35,28.35,0,0,1-3.13-2.41c-.84-.66-1.63-1.4-2.52-2a2.22,2.22,0,0,0-2.42,0,2,2,0,0,0-.55,3.33,9.84,9.84,0,0,0,2.1,1.54c2,1.16,4.16,2.18,6.17,3.39a11.31,11.31,0,0,1,5,5.48A9.62,9.62,0,0,1,197,143.85C194.29,145.68,191.32,146.42,187.33,146.39Z" style="fill:#fff"/><path d="M166.39,124.34c0,3.2,0,6.4,0,9.59a14.3,14.3,0,0,0,.3,2.45,3.82,3.82,0,0,0,2.12,2.93c2.07,1,1.74,3.67.3,4.83a8.68,8.68,0,0,1-4.43,1.69,42.35,42.35,0,0,1-13.65-.28,9,9,0,0,1-2.71-1A2.66,2.66,0,0,1,148,140c2.21-1.45,2.9-3.43,3-5.89a65.78,65.78,0,0,0-.07-10,3.22,3.22,0,0,0-2-2.91,6.45,6.45,0,0,1-.66-.36c-1.88-1.07-2.11-3-.47-4.42a13.94,13.94,0,0,1,5.29-2.55A59.19,59.19,0,0,1,164,111.7a1.84,1.84,0,0,1,2.29,1.77,6.76,6.76,0,0,1,.05,1q0,4.91,0,9.82Z" style="fill:#fff"/><path d="M153.58,109.74a24.87,24.87,0,0,1-3.28-.65,3.92,3.92,0,0,1-2.87-3.4,4,4,0,0,1,2-4,17.72,17.72,0,0,1,7.2-2.59,12.62,12.62,0,0,1,6.22.21c1.49.49,2.74,1.28,3.07,3a4.19,4.19,0,0,1-1.66,4.23,13.09,13.09,0,0,1-6.08,2.54C156.79,109.35,155.34,109.49,153.58,109.74Z" style="fill:#fff"/></svg>