<svg xmlns="http://www.w3.org/2000/svg" viewBox="0 0 250 250"><title>Grocery</title><path d="M69.42,112.66c-.12.06-.15.17-.2.26q-4.37,7.58-8.72,15.17a.67.67,0,0,1-.68.39H48.1c-.27,0-.28,0-.3-.29q-.06-.79-.1-1.59-.15-2.83-.29-5.65-.13-2.42-.26-4.84l-.33-6.17-.26-4.87q-.16-3.07-.33-6.14c-.05-.93-.11-1.86-.16-2.79,0-.28,0-.29.31-.29H60.87c.27,0,.28,0,.26.27-.07,1-.14,2-.21,3-.05.75-.11,1.49-.16,2.24l-.31,4.31q-.11,1.48-.21,3-.16,2.17-.31,4.35c0,.46-.06.93-.09,1.42.16-.06.18-.18.23-.28l3-5.93q3.08-6,6.16-12a.54.54,0,0,1,.56-.35c3.86,0,7.72,0,11.58,0h.1c.33,0,.33,0,.31.32q-.11,2.75-.23,5.49,0,1-.08,2c-.05,1.38-.1,2.75-.16,4.13q-.13,3.15-.26,6.31c0,.1,0,.21,0,.37a.93.93,0,0,0,.23-.36l6.9-14.36c.58-1.21,1.17-2.42,1.74-3.64a.37.37,0,0,1,.39-.25H101a.44.44,0,0,1,.24,0,1,1,0,0,1-.18.37l-6.27,10.88L82.65,128.17a.53.53,0,0,1-.53.32h-12c-.44,0-.39,0-.4-.41q-.09-5.74-.17-11.48c0-1.19,0-2.39,0-3.58A.54.54,0,0,0,69.42,112.66Z" style="fill:#c4232b"/><path d="M164.83,109.18c.07-.36.18-.73.23-1.1a6,6,0,0,0-.16-2.74,2.54,2.54,0,0,0-2-1.9,2.93,2.93,0,0,0-2.51.7A7.52,7.52,0,0,0,158.8,106a20.1,20.1,0,0,0-2,4.59,30,30,0,0,0-1.23,5.45,14.31,14.31,0,0,0-.14,2,4.81,4.81,0,0,0,.17,1.25,2.13,2.13,0,0,0,2.07,1.63,4.29,4.29,0,0,0,3.54-1.46,11.05,11.05,0,0,0,1.82-2.64c.24-.46.47-.93.67-1.41a.29.29,0,0,1,.34-.21l2.86.16,1.53.09,5.55.28,1.2.06c.3,0,.31,0,.22.3a18.57,18.57,0,0,1-3.38,6.37,18.14,18.14,0,0,1-7.59,5.53,18.69,18.69,0,0,1-4.46,1.13,20.46,20.46,0,0,1-3.31.17,17.75,17.75,0,0,1-6.3-1.27,13.12,13.12,0,0,1-8-9,15.94,15.94,0,0,1-.43-5.68,19.81,19.81,0,0,1,2.52-8,20.1,20.1,0,0,1,6.14-6.75,19.61,19.61,0,0,1,7.78-3.21,21,21,0,0,1,4.89-.3,19,19,0,0,1,4.66.8A13.6,13.6,0,0,1,173,98.66a11.16,11.16,0,0,1,3.68,6.57,9.81,9.81,0,0,1-.05,3.69c-.07.32-.06.32-.4.32h-11A.59.59,0,0,1,164.83,109.18Z" style="fill:#c4232b"/><path d="M109.47,128.4c-.05-.14,0-.26.05-.38q1.73-6.33,3.47-12.66c.42-1.53.87-3,1.23-4.58a23.86,23.86,0,0,0,.69-5.7,1.24,1.24,0,0,0,0-.13c0-.15.05-.21.2-.22l1.69-.11,2.86-.18,2.47-.15,2.76-.16c.26,0,.27,0,.29.24l.44,4.24c0,.06,0,.12,0,.21s.17-.18.22-.28a11.66,11.66,0,0,1,1.7-2.42,6.82,6.82,0,0,1,3.3-2,7.59,7.59,0,0,1,2.58-.21,7.88,7.88,0,0,1,2.49.58,6.29,6.29,0,0,1,3.81,4.7,10.06,10.06,0,0,1-.1,4.26c-.28,1.34-.73,2.63-1.11,3.94-.49,1.71-1,3.41-1.49,5.12a5.87,5.87,0,0,0-.15.8,1.55,1.55,0,0,0,0,.19,1.12,1.12,0,0,0,1.12,1.25c.39,0,.39,0,.37.43,0,.67-.06,1.34-.09,2a.56.56,0,0,1-.26.48,6.85,6.85,0,0,1-3.22,1.22,13.6,13.6,0,0,1-4.72-.26,6.65,6.65,0,0,1-2.48-1.1,4.64,4.64,0,0,1-1.85-3.3,9.91,9.91,0,0,1,.3-3.35c.43-2,1.08-3.88,1.7-5.8.23-.71.47-1.42.65-2.15a3.56,3.56,0,0,0,.1-1.64,1.64,1.64,0,0,0-.15-.43.76.76,0,0,0-.74-.44,2.15,2.15,0,0,0-1.75.91,5,5,0,0,0-.71,1.42c-.33,1-.57,2-.84,2.94q-1.7,6.21-3.4,12.41c0,.06,0,.12-.05.19a.18.18,0,0,1-.2.16H109.85A.92.92,0,0,1,109.47,128.4Z" style="fill:#c4232b"/><path d="M191.16,103.85a15.71,15.71,0,0,1,6.42,1.3,10.59,10.59,0,0,1,4.93,4.32,9.79,9.79,0,0,1,1.28,3.76,13.49,13.49,0,0,1-2.64,10.08,13.87,13.87,0,0,1-8.2,5.31,14.78,14.78,0,0,1-4.33.32,14.59,14.59,0,0,1-5.75-1.49,10.29,10.29,0,0,1-4.36-4,10,10,0,0,1-1.31-4.05,13.67,13.67,0,0,1,1.18-7.29,13.89,13.89,0,0,1,6.38-6.66,13.74,13.74,0,0,1,4.82-1.46C190.16,103.89,190.73,103.88,191.16,103.85Zm2.41,6.87a4,4,0,0,0-.16-1.23,1.2,1.2,0,0,0-.76-.79,1.15,1.15,0,0,0-1.18.23,4.19,4.19,0,0,0-.92,1.25,16.52,16.52,0,0,0-1.14,2.8,46.7,46.7,0,0,0-1.42,5.77,25.85,25.85,0,0,0-.48,3.47,3.55,3.55,0,0,0,.09,1.06,1.94,1.94,0,0,0,.17.45,1.17,1.17,0,0,0,1.82.37,4,4,0,0,0,.94-1.23,14.71,14.71,0,0,0,1-2.33,42.5,42.5,0,0,0,1.49-5.78A29.38,29.38,0,0,0,193.57,110.72Z" style="fill:#c4232b"/><path d="M137.06,154.48l.39-1.58,4.08-16.26c.12-.47,0-.39.51-.39h7.42a12.41,12.41,0,0,1,3.5.45,7.8,7.8,0,0,1,4.37,3,6.77,6.77,0,0,1,1.24,3.77,10.91,10.91,0,0,1-7.34,10.49,10.53,10.53,0,0,1-3.28.57H137.33A.45.45,0,0,1,137.06,154.48ZM151,143.1a3.42,3.42,0,0,0-.15-1.25,1.44,1.44,0,0,0-1.11-1,5.53,5.53,0,0,0-1.13,0,.15.15,0,0,0-.16.13l-.06.22q-1,4.14-2.08,8.28c0,.19-.19.41-.09.55s.38.06.58.07a2.67,2.67,0,0,0,2.14-.9,5.83,5.83,0,0,0,1.05-1.59A11.09,11.09,0,0,0,151,143.1Z" style="fill:#c4232b"/><path d="M111.76,104.35l-.31,1.13-4.56,16.61a5.32,5.32,0,0,0-.27,1.43,1.1,1.1,0,0,0,1.11,1.22h.1c.24,0,.24,0,.24.24,0,.78,0,1.56-.07,2.34a.33.33,0,0,1-.18.28,6.92,6.92,0,0,1-2.92,1.2,13.15,13.15,0,0,1-5.16-.19,6.42,6.42,0,0,1-2.06-.86,4.59,4.59,0,0,1-2.09-3.47,10.57,10.57,0,0,1,.42-4.08q2.1-7.75,4.21-15.49c.13-.48,0-.41.53-.41h10.6A.9.9,0,0,1,111.76,104.35Z" style="fill:#c4232b"/><path d="M121.36,155a9.53,9.53,0,0,1-4.11-.8,7.31,7.31,0,0,1-4.42-5.78,10.12,10.12,0,0,1,.92-6,11.18,11.18,0,0,1,9.48-6.53,10.27,10.27,0,0,1,4.35.54,7.34,7.34,0,0,1,5,6,9.91,9.91,0,0,1-.73,5.57,11.13,11.13,0,0,1-6.29,6.24A10.88,10.88,0,0,1,121.36,155Zm3.9-13a2.88,2.88,0,0,0-.13-1,.92.92,0,0,0-.68-.64,1.43,1.43,0,0,0-1.18.18,2.84,2.84,0,0,0-.51.45,6,6,0,0,0-.88,1.32,17.75,17.75,0,0,0-1.52,4.62,9.21,9.21,0,0,0-.2,2.23,2,2,0,0,0,.16.73.93.93,0,0,0,.71.55,1.52,1.52,0,0,0,1.4-.43,5.09,5.09,0,0,0,1-1.38,16.35,16.35,0,0,0,1.43-3.93A12.65,12.65,0,0,0,125.27,142Z" style="fill:#c4232b"/><path d="M95.83,155a9.49,9.49,0,0,1-4.29-.88,7.28,7.28,0,0,1-4.21-5.54,10.15,10.15,0,0,1,.9-6.21,11.39,11.39,0,0,1,13-6.24,7.56,7.56,0,0,1,5.94,7A11.23,11.23,0,0,1,95.83,155Zm3.92-13a3.28,3.28,0,0,0-.14-.95.93.93,0,0,0-.7-.66,1.44,1.44,0,0,0-1.21.2,3.12,3.12,0,0,0-.61.58,6.91,6.91,0,0,0-.92,1.53,17.58,17.58,0,0,0-1.55,5.9,3.07,3.07,0,0,0,.12,1.19,1,1,0,0,0,.82.68,1.53,1.53,0,0,0,1.36-.46,5,5,0,0,0,.95-1.27,15.65,15.65,0,0,0,1.38-3.63A14.32,14.32,0,0,0,99.74,142Z" style="fill:#c4232b"/><path d="M183.08,139.33a.78.78,0,0,1-.25.24l-3.28,2.62-.15.12a.13.13,0,0,1-.2,0l-.16-.16a9.1,9.1,0,0,0-3.73-2.1,3,3,0,0,0-1.54-.11.91.91,0,0,0-.49,1.56,3.07,3.07,0,0,0,.8.61c.52.3,1.06.54,1.6.79a24.94,24.94,0,0,1,2.5,1.25,7,7,0,0,1,2,1.65,4.59,4.59,0,0,1,.54,4.93,6,6,0,0,1-2.61,2.77,11,11,0,0,1-3.69,1.3,14.52,14.52,0,0,1-3.5.19,12.56,12.56,0,0,1-8.38-3.74l-.11-.12a.11.11,0,0,1,0-.19l.15-.12,3.3-2.64.13-.1c.08-.08.15-.05.22,0a4,4,0,0,0,.33.36,8.77,8.77,0,0,0,4.34,2.28,2.41,2.41,0,0,0,1.13,0,1,1,0,0,0,.46-1.69,3.47,3.47,0,0,0-.81-.6c-.84-.48-1.73-.85-2.58-1.3a11.29,11.29,0,0,1-2.44-1.59,4.23,4.23,0,0,1-1.49-2.67,4.78,4.78,0,0,1,.54-2.83,6.89,6.89,0,0,1,2.63-2.69,10.41,10.41,0,0,1,3.74-1.34,12.62,12.62,0,0,1,3.47-.12,12.3,12.3,0,0,1,7.44,3.35Z" style="fill:#c4232b"/><path d="M62.38,154.51a.63.63,0,0,1,0-.32l4.39-17.62c.08-.31.08-.31.41-.31h17c.08.09,0,.16,0,.23L83,141.34c-.07.28-.07.29-.4.29H73.68c-.12,0-.17.06-.2.16l-.5,2a.34.34,0,0,0,0,.09.66.66,0,0,0,.35,0H78.8c.15,0,.18.06.15.2-.15.58-.29,1.16-.43,1.73l-.44,1.77c-.07.28-.07.29-.37.29H72.24c-.29,0-.3,0-.37.29l-1.49,6c0,.06,0,.13,0,.19a.19.19,0,0,1-.23.17H62.73A1,1,0,0,1,62.38,154.51Z" style="fill:#c4232b"/><path d="M107.42,102.49a8.26,8.26,0,0,1-3.95-1,4.15,4.15,0,0,1-1.32-1.09,2.23,2.23,0,0,1,0-2.88,4.51,4.51,0,0,1,1.73-1.29,8.47,8.47,0,0,1,3.54-.73,8.55,8.55,0,0,1,3.66.73,4.94,4.94,0,0,1,1.52,1,2.31,2.31,0,0,1,0,3.37,5.64,5.64,0,0,1-2.48,1.42A9.5,9.5,0,0,1,107.42,102.49Z" style="fill:#c4232b"/></svg>