<svg xmlns="http://www.w3.org/2000/svg" xmlns:xlink="http://www.w3.org/1999/xlink" viewBox="0 0 269.29 269.29"><defs><style>.a{fill:#4b721d;}.b{fill:#b30838;}.c{fill:#ee3124;}.d{fill:#fff;}.e{fill:#e4e76d;}.f{fill:url(#a);}</style><linearGradient id="a" x1="92.28" y1="83.55" x2="79.23" y2="99.43" gradientTransform="matrix(1, 0.02, -0.02, 1, 3.32, -5.08)" gradientUnits="userSpaceOnUse"><stop offset="0" stop-color="#e4e76d"/><stop offset="1" stop-color="#4b721d"/></linearGradient></defs><title>applebees_Logo</title><path class="a" d="M126.45,156h0a15.63,15.63,0,0,0-4.31,11.36c0,7.91,5.59,13.43,13.6,13.43a17.16,17.16,0,0,0,10.13-3.17l.07-.05,0-.09c-.16-.39-1-2.33-2.42-1.88a11.09,11.09,0,0,1-4.92,1.14c-6.77,0-9.31-5.54-9.77-8.9a82.27,82.27,0,0,0,17.34-5.94l.14-.06.37-.18-.13-.55a13.66,13.66,0,0,0-2.54-5.68c-1.85-2.23-4.55-3.37-8.05-3.37a13.48,13.48,0,0,0-9.46,3.93m7.82-.94c4,0,5.32,3,6.1,6.34a101.42,101.42,0,0,1-12,3c0-1.43.5-9.38,5.93-9.38"/><path class="a" d="M126.45,156h0a15.63,15.63,0,0,0-4.31,11.36c0,7.91,5.59,13.43,13.6,13.43a17.16,17.16,0,0,0,10.13-3.17l.07-.05,0-.09c-.16-.39-1-2.33-2.42-1.88a11.09,11.09,0,0,1-4.92,1.14c-6.77,0-9.31-5.54-9.77-8.9a82.27,82.27,0,0,0,17.34-5.94l.14-.06.37-.18-.13-.55a13.66,13.66,0,0,0-2.54-5.68c-1.85-2.23-4.55-3.37-8.05-3.37a13.48,13.48,0,0,0-9.46,3.93m7.82-.94c4,0,5.32,3,6.1,6.34a101.42,101.42,0,0,1-12,3c0-1.43.5-9.38,5.93-9.38"/><path class="a" d="M182.25,156h0a15.63,15.63,0,0,0-4.31,11.36c0,7.91,5.59,13.43,13.6,13.43a17.16,17.16,0,0,0,10.13-3.17l.07-.05,0-.08c-.16-.39-1-2.33-2.42-1.88a11.07,11.07,0,0,1-4.92,1.14c-6.77,0-9.31-5.54-9.77-8.9a82.33,82.33,0,0,0,17.34-5.94l.14-.06.37-.18-.13-.55a13.65,13.65,0,0,0-2.54-5.68c-1.85-2.23-4.55-3.37-8.05-3.37a13.47,13.47,0,0,0-9.46,3.93m7.82-.94c4,0,5.32,3,6.1,6.34a101.35,101.35,0,0,1-12,3c0-1.43.49-9.38,5.93-9.38"/><path class="a" d="M182.25,156h0a15.63,15.63,0,0,0-4.31,11.36c0,7.91,5.59,13.43,13.6,13.43a17.16,17.16,0,0,0,10.13-3.17l.07-.05,0-.08c-.16-.39-1-2.33-2.42-1.88a11.07,11.07,0,0,1-4.92,1.14c-6.77,0-9.31-5.54-9.77-8.9a82.33,82.33,0,0,0,17.34-5.94l.14-.06.37-.18-.13-.55a13.65,13.65,0,0,0-2.54-5.68c-1.85-2.23-4.55-3.37-8.05-3.37a13.47,13.47,0,0,0-9.46,3.93m7.82-.94c4,0,5.32,3,6.1,6.34a101.35,101.35,0,0,1-12,3c0-1.43.49-9.38,5.93-9.38"/><path class="a" d="M207.88,156h0a15.63,15.63,0,0,0-4.31,11.36c0,7.91,5.59,13.43,13.6,13.43a17.15,17.15,0,0,0,10.13-3.17l.07-.05,0-.08c-.16-.39-1-2.33-2.42-1.88a11.08,11.08,0,0,1-4.92,1.14c-6.77,0-9.32-5.54-9.77-8.9a82.15,82.15,0,0,0,17.34-5.94l.14-.06.37-.18-.13-.55a13.64,13.64,0,0,0-2.54-5.68c-1.85-2.23-4.55-3.37-8.05-3.37a13.48,13.48,0,0,0-9.46,3.93m7.83-.94c4,0,5.32,3,6.1,6.34a101.21,101.21,0,0,1-12,3c0-1.43.49-9.38,5.93-9.38"/><path class="a" d="M207.88,156h0a15.63,15.63,0,0,0-4.31,11.36c0,7.91,5.59,13.43,13.6,13.43a17.15,17.15,0,0,0,10.13-3.17l.07-.05,0-.08c-.16-.39-1-2.33-2.42-1.88a11.08,11.08,0,0,1-4.92,1.14c-6.77,0-9.32-5.54-9.77-8.9a82.15,82.15,0,0,0,17.34-5.94l.14-.06.37-.18-.13-.55a13.64,13.64,0,0,0-2.54-5.68c-1.85-2.23-4.55-3.37-8.05-3.37a13.48,13.48,0,0,0-9.46,3.93m7.83-.94c4,0,5.32,3,6.1,6.34a101.21,101.21,0,0,1-12,3c0-1.43.49-9.38,5.93-9.38"/><path class="a" d="M145.91,140v1.55a1.65,1.65,0,0,0,1.71,1.84c.74.11,1.22.18,1.22,1.87v35.52h1.89l3.11-2.69a15.64,15.64,0,0,0,8.3,2.69c8,0,13.57-6.08,13.57-14.79,0-8.51-5.42-14.46-13.19-14.46a15.09,15.09,0,0,0-7.23,1.84V139.72Zm14.68,15.16c7.08,0,7.84,7.45,7.84,10.66,0,4.23-1,11.33-7.84,11.33a8.61,8.61,0,0,1-5.29-1.93V157.06a8.61,8.61,0,0,1,5.29-1.93"/><path class="a" d="M59.52,154.1v-2l-8.89.25V154c0,1.39,1,1.6,1.59,1.72l.23,0c.39.1.88.22.88,1.82v28.6c0,1.68-.49,1.74-1.24,1.84a1.67,1.67,0,0,0-1.75,1.87v1.57H63.07v-1.57c0-1.71-1.19-1.81-1.89-1.86s-1.37-.11-1.37-1.85v-11s0-18.08,0-18.18a8.62,8.62,0,0,1,5.29-1.93c7.08,0,7.84,7.45,7.84,10.66,0,4.23-1,11.33-7.84,11.33a8.06,8.06,0,0,1-2.28-.35l-.33-.11a1.14,1.14,0,0,0-1.12.17c-.54.51-.44,1.74-.25,2.68v0l0,0a16,16,0,0,0,5.45,1.17A13,13,0,0,0,76.05,177,15.4,15.4,0,0,0,80.22,166c0-8.51-5.42-14.46-13.19-14.46a11.93,11.93,0,0,0-7.51,2.6"/><path class="a" d="M59.52,154.1v-2l-8.89.25V154c0,1.39,1,1.6,1.59,1.72l.23,0c.39.1.88.22.88,1.82v28.6c0,1.68-.49,1.74-1.24,1.84a1.67,1.67,0,0,0-1.75,1.87v1.57H63.07v-1.57c0-1.71-1.19-1.81-1.89-1.86s-1.37-.11-1.37-1.85v-11s0-18.08,0-18.18a8.62,8.62,0,0,1,5.29-1.93c7.08,0,7.84,7.45,7.84,10.66,0,4.23-1,11.33-7.84,11.33a8.06,8.06,0,0,1-2.28-.35l-.33-.11a1.14,1.14,0,0,0-1.12.17c-.54.51-.44,1.74-.25,2.68v0l0,0a16,16,0,0,0,5.45,1.17A13,13,0,0,0,76.05,177,15.4,15.4,0,0,0,80.22,166c0-8.51-5.42-14.46-13.19-14.46a11.93,11.93,0,0,0-7.51,2.6"/><path class="a" d="M89.27,154.1v-2l-8.89.25V154c0,1.39,1,1.6,1.59,1.72l.23,0c.39.1.88.22.88,1.82v28.6c0,1.68-.49,1.74-1.24,1.84a1.67,1.67,0,0,0-1.75,1.87v1.57H92.81v-1.57c0-1.71-1.19-1.81-1.9-1.86s-1.37-.11-1.37-1.85v-11s0-18.08,0-18.18a8.61,8.61,0,0,1,5.29-1.93c7.08,0,7.84,7.45,7.84,10.66,0,4.23-1,11.33-7.84,11.33a8.06,8.06,0,0,1-2.28-.35l-.06,0-.27-.08a1.14,1.14,0,0,0-1.12.17c-.54.51-.44,1.74-.25,2.68v0l0,0a16,16,0,0,0,5.45,1.17A13,13,0,0,0,105.8,177,15.41,15.41,0,0,0,110,166c0-8.51-5.42-14.46-13.19-14.46a11.92,11.92,0,0,0-7.51,2.6"/><path class="a" d="M89.27,154.1v-2l-8.89.25V154c0,1.39,1,1.6,1.59,1.72l.23,0c.39.1.88.22.88,1.82v28.6c0,1.68-.49,1.74-1.24,1.84a1.67,1.67,0,0,0-1.75,1.87v1.57H92.81v-1.57c0-1.71-1.19-1.81-1.9-1.86s-1.37-.11-1.37-1.85v-11s0-18.08,0-18.18a8.61,8.61,0,0,1,5.29-1.93c7.08,0,7.84,7.45,7.84,10.66,0,4.23-1,11.33-7.84,11.33a8.06,8.06,0,0,1-2.28-.35l-.06,0-.27-.08a1.14,1.14,0,0,0-1.12.17c-.54.51-.44,1.74-.25,2.68v0l0,0a16,16,0,0,0,5.45,1.17A13,13,0,0,0,105.8,177,15.41,15.41,0,0,0,110,166c0-8.51-5.42-14.46-13.19-14.46a11.92,11.92,0,0,0-7.51,2.6"/><path class="a" d="M231.35,160.49c0,5.35,4.71,6.9,8.86,8.27,3.56,1.17,6.92,2.28,6.92,5.54s-3.82,4.53-6.38,4.53-3.89-.63-3.89-1.93a2.84,2.84,0,0,1,.14-.71,3.09,3.09,0,0,0,.15-.79c0-1.8-2.07-2.75-3.56-2.75a3.38,3.38,0,0,0-3.56,3.21c0,4.31,7.35,5.7,10.9,5.7,5.84,0,12.06-3.25,12.06-9.28,0-5.55-4.92-7.15-9.27-8.56-3.65-1.19-6.8-2.21-6.8-5.2,0-2.54,3-3.89,5.11-3.89.86,0,2.85.13,2.85,1.35l-.12,1.21c0,1.75,1.75,2.69,3.39,2.69s3.44-1,3.44-3c0-4-5.65-5-8.64-5-4.82,0-11.59,2.66-11.59,8.59"/><path class="a" d="M119.39,174.34c0,4.68,3.41,1.54,3.41,4.48v2H109.44v-2c0-3,3.54.26,3.54-4.48v-28c0-4.74-3.54-1.47-3.54-4.48v-2l10-.27Z"/><path class="a" d="M226.95,147a2.35,2.35,0,0,0,2.32,2.32l.49-.05a6,6,0,0,1-1.48,3.87l-.17.21.86.86.21-.21c1.94-1.94,2.92-3.92,2.92-5.88,0-1.67-.85-3.47-2.72-3.47a2.36,2.36,0,0,0-2.42,2.35"/><path class="a" d="M29.23,130.8h0l-.31.22-.31.21c-1.27.83-2.5,1.73-2.5,2.82a7,7,0,0,0,.52,2.07l.08.22-12,34c-1.6,4.48-3,5-3.87,5.26-.66.23-1.49.52-1.49,2.28v2h12v-2c0-1.87-.86-2.26-1.74-2.51s-1.16-.33-1.16-1.4a15.4,15.4,0,0,1,1-3.76l0-.1,1-3.09.36-1.08H37.08l1.14,3.1c5.84,13.27,18.5,11.42,18.64,11.4h.08l-.17-4.95c-8.38,0-10-5.61-14.57-18.22l-3.74-10.32-5.65-15.75c-.09-.26-.59-1.53-1.3-1.58-.3,0-.57,0-2.28,1.25m-.24,12,.06.17c1.27,3.75,3.76,11.05,6.26,18H22.58L29,142.81"/><path class="b" d="M88,143.45c-4,1.09-6.62-.19-9.47,0-3.16.23-4.34,1.43-9.79,1.6-5.72,0-10-3.42-12.64-8.78a38.81,38.81,0,0,1-3-26.22c1.8-7.63,5.75-11.49,12.87-10.22,4.15.74,7.65,3.4,12.46,4,2.38.3,5-.24,8-1a13.6,13.6,0,0,1,6.48-.15,9.33,9.33,0,0,1,7.17,5.79c3.27,7,3.17,16.48-3.25,26.92-2.27,3.7-5.43,7.09-8.79,8"/><path class="c" d="M100.11,104.83C98,99.88,94.68,97,90.26,96.29c-2.91-.44-4.61.64-7.51,1a11.57,11.57,0,0,1-5.51-.42C72.65,95.25,69.1,92,64.33,91.36c-6-.83-11,3.95-13.07,7-4.8,7.3-4.75,21.38.54,32.66,0,0,1.19,2.27,1.87,3.36A15.08,15.08,0,0,0,66.57,142c5.26-.15,8.06-1.74,10.15-2s4.74,1.26,9,.57c5.38-.86,11.55-9.93,11.55-9.93,4.53-6.85,6.7-16.55,2.8-25.82M85.63,136.16c-3.94.52-6.24-1.17-9-1-3,.2-4.33,1.18-9.58,1.34-5.52,0-9.68-2.39-12.18-7-5.25-9.77-4.62-18.81-3-23.21,1.94-5.14,4.87-8.31,9-9.08,6.69-1.25,9,2.08,15,3.6a14.42,14.42,0,0,0,7.42.13c3.62-.88,5.05-1,7.1-.66a9.49,9.49,0,0,1,6.93,5.64,23.87,23.87,0,0,1-2.48,23.69c-2.21,3.2-6,6.29-9.22,6.61"/><path class="d" d="M66.56,104.85a13.33,13.33,0,0,0-7.47,8.64c-2,6.84-4.5-7,7.47-8.64"/><path class="a" d="M254.31,155.24a.66.66,0,0,0,.12.33.71.71,0,0,0,.57.2,1.23,1.23,0,0,0,.39-.05.38.38,0,0,0,.29-.38.28.28,0,0,0-.14-.25,1.48,1.48,0,0,0-.45-.15l-.35-.08a2.16,2.16,0,0,1-.71-.25.79.79,0,0,1-.33-.7.94.94,0,0,1,.32-.72,1.36,1.36,0,0,1,.94-.29,1.44,1.44,0,0,1,.88.27,1,1,0,0,1,.38.79h-.64a.46.46,0,0,0-.26-.41.9.9,0,0,0-.4-.08.77.77,0,0,0-.43.11.33.33,0,0,0-.16.29.28.28,0,0,0,.16.26,2,2,0,0,0,.43.13l.57.13a1.45,1.45,0,0,1,.56.24.79.79,0,0,1,.29.66.93.93,0,0,1-.34.74,1.44,1.44,0,0,1-1,.29,1.59,1.59,0,0,1-1-.29,1,1,0,0,1-.37-.79Z"/><path class="a" d="M259,153h1v3.24h-.62V154c0-.06,0-.15,0-.26s0-.2,0-.26l-.62,2.72H258l-.61-2.72c0,.06,0,.15,0,.26s0,.2,0,.26v2.19h-.62V153h1l.59,2.55Z"/><path class="e" d="M77.27,92.72s.48-7.64,6.06-10.6,7.71-1.86,9-3,1.58-1.65,2-1.17-.55,7.16-1.93,9.71-3.1,5.44-8.13,5.85S77.27,92.72,77.27,92.72Z"/><path class="f" d="M77.31,92.79a12.11,12.11,0,0,0,14.26-3.07s2.4-2.58,2.68-8.48c.19-4.11.28-3.12,0-3.13s-1.61,4.06-4.64,7A40,40,0,0,1,77.31,92.79Z"/></svg>