<svg xmlns="http://www.w3.org/2000/svg" viewBox="0 0 15.63 30.11"><defs><style>.a{fill:#ed1c24;stroke:#434a54;stroke-miterlimit:10;}.b{fill:#f6d056;}.c{fill:#434a54;}.d{fill:#fff;}</style></defs><title>Dine</title><path class="a" d="M1.41,8.7s1,19.73,1,20.06a.91.91,0,0,0,.94.85h8.86a.91.91,0,0,0,.94-.85c0-.33,1-20.06,1-20.06ZM7.82,22.12a3,3,0,1,1,3-3A3,3,0,0,1,7.82,22.12Z"/><polygon class="b" points="15.47 8.7 0.16 8.7 1.2 6.96 14.62 6.96 15.47 8.7"/><path class="c" d="M15.47,8.86H.16A.16.16,0,0,1,0,8.62l1-1.75A.16.16,0,0,1,1.2,6.8H14.62a.16.16,0,0,1,.14.09l.85,1.75a.16.16,0,0,1-.14.23Zm-15-.32H15.22l-.69-1.43H1.29Z"/><polygon class="d" points="8.45 3.29 8.38 6.97 7.09 6.95 7.14 4.3 8.45 3.29"/><path class="c" d="M8.42,7.12H7.13A.16.16,0,0,1,7,7V4.31A.16.16,0,0,1,7,4.19l1.29-1a.16.16,0,0,1,.26.12V7A.16.16,0,0,1,8.42,7.12ZM7.29,6.8h1V3.61l-1,.78Z"/><polygon class="d" points="8.42 1.89 8.42 3.28 7.13 4.31 7.13 2.68 8.42 1.89"/><path class="c" d="M7.13,4.47l-.07,0A.16.16,0,0,1,7,4.31V2.68A.16.16,0,0,1,7,2.54l1.29-.79a.16.16,0,0,1,.24.14V3.28a.16.16,0,0,1-.06.12l-1.29,1A.16.16,0,0,1,7.13,4.47Zm.16-1.71V4l1-.78v-1Z"/><polygon class="d" points="8.42 1.89 7.13 2.68 3.58 1.29 4.08 0.16 8.42 1.89"/><path class="c" d="M7.13,2.84H7.07L3.52,1.44a.16.16,0,0,1-.09-.21L3.94.1A.16.16,0,0,1,4.14,0L8.48,1.74A.16.16,0,0,1,8.5,2l-1.29.79ZM3.79,1.2,7.11,2.5l.95-.58L4.17.37Z"/><ellipse class="b" cx="7.82" cy="19.16" rx="2.79" ry="2.79"/></svg>