<svg xmlns="http://www.w3.org/2000/svg" viewBox="0 0 52.84 33.46"><defs><style>.a{fill:none;stroke:#414042;stroke-linecap:round;stroke-miterlimit:10;stroke-width:3px;}.b{fill:#8dc63f;}.c{fill:#f15f2e;}.d{fill:#ed1c24;}.e{fill:#414042;}</style></defs><title>Dine</title><line class="a" x1="26.13" y1="11.36" x2="12.67" y2="11.36"/><line class="a" x1="24.89" y1="16.47" x2="7.02" y2="16.47"/><line class="a" x1="24.43" y1="21.57" x2="1.5" y2="21.57"/><rect class="b" x="33.64" y="0.7" width="9.18" height="1.53"/><path class="c" d="M38,4.41A14.45,14.45,0,1,0,52.48,18.86,14.45,14.45,0,0,0,38,4.41Zm0,25.85A11.62,11.62,0,1,1,49.65,18.64,11.62,11.62,0,0,1,38,30.26Z"/><path class="d" d="M38,33.46A14.61,14.61,0,1,1,52.64,18.86,14.62,14.62,0,0,1,38,33.46Zm0-28.9A14.29,14.29,0,1,0,52.32,18.86,14.31,14.31,0,0,0,38,4.57Zm0,25.85A11.78,11.78,0,1,1,49.81,18.64,11.79,11.79,0,0,1,38,30.42ZM38,7.18A11.46,11.46,0,1,0,49.49,18.64,11.47,11.47,0,0,0,38,7.18Z"/><path class="e" d="M45.95,18.65a.5.5,0,0,0,.5.49h2.35a.49.49,0,1,0,0-1H46.44A.49.49,0,0,0,45.95,18.65Z"/><path class="e" d="M38,26.56a.5.5,0,0,0-.5.5V29.4a.49.49,0,0,0,1,0V27.06A.49.49,0,0,0,38,26.56Z"/><path class="e" d="M51.72,13a15,15,0,0,0-.92-1.84l1.42-1.19a.5.5,0,0,0,.06-.7l-2.55-3a.49.49,0,0,0-.34-.17.48.48,0,0,0-.36.12L47.63,7.36A14.75,14.75,0,0,0,40.5,4V3h2.14a.5.5,0,0,0,.5-.5V.49a.49.49,0,0,0-.5-.49H33.42a.49.49,0,0,0-.49.49V2.55a.5.5,0,0,0,.49.5h2.14V4A14.81,14.81,0,1,0,51.72,13ZM42.15,1V2.05H33.92V1Zm8.13,9.31c-.29-.42-.59-.82-.89-1.18a13,13,0,0,0-1-1.09l.92-.78,1.91,2.27ZM39.52,3.9c-.5,0-1-.07-1.48-.07s-1,0-1.48.07V3h3ZM36,5h.15l.76-.09H37c.35,0,.7,0,1.07,0A14.66,14.66,0,0,1,39.94,5H40a13.74,13.74,0,0,1,7.23,3.4h0l0,0,.5.48A13.84,13.84,0,1,1,36,5Z"/><path class="e" d="M26.49,13.86a12.49,12.49,0,0,0,2.73,13.63A12.71,12.71,0,0,0,31.1,29a12.52,12.52,0,0,0,2.06,1.11l.09,0a12.39,12.39,0,0,0,2.34.71,12.51,12.51,0,0,0,14-7.49,12.37,12.37,0,0,0,.7-2.32,12.61,12.61,0,0,0,0-4.88,12.51,12.51,0,0,0-3.42-6.39A12.65,12.65,0,0,0,45,8.25h0a12.46,12.46,0,0,0-4.5-1.86,12.51,12.51,0,0,0-7.19.7h0A12.48,12.48,0,0,0,31.1,8.25a12.77,12.77,0,0,0-1.9,1.56,12.59,12.59,0,0,0-1.56,1.9A12.46,12.46,0,0,0,26.49,13.86Zm0,4.78a11.49,11.49,0,0,1,.22-2.25,11.49,11.49,0,0,1,1.71-4.14,11.76,11.76,0,0,1,1.44-1.75A11.56,11.56,0,0,1,33.63,8l.06,0a11.56,11.56,0,0,1,2.09-.63,11.7,11.7,0,0,1,4.5,0,11.5,11.5,0,0,1,9,9,11.68,11.68,0,0,1,0,4.5,11.53,11.53,0,0,1-6.88,8.38,11.36,11.36,0,0,1-2.15.65,11.8,11.8,0,0,1-4.5,0,11.38,11.38,0,0,1-2.11-.63l0,0a11.44,11.44,0,0,1-2-1.06,11.7,11.7,0,0,1-1.73-1.41l0,0A11.56,11.56,0,0,1,28.46,25a11.45,11.45,0,0,1-1.71-4.14A11.52,11.52,0,0,1,26.53,18.64Z"/><path class="e" d="M36.32,20.59h0a.49.49,0,0,0,.32-.12l9.43-8a.49.49,0,0,0-.28-.87.48.48,0,0,0-.36.12l-9.43,8a.49.49,0,0,0,.28.87Z"/><path class="e" d="M38,10.73a.49.49,0,0,0,.49-.49V7.89a.49.49,0,0,0-1,0v2.35A.5.5,0,0,0,38,10.73Z"/><path class="e" d="M27.28,19.14h2.35a.49.49,0,0,0,0-1H27.28a.49.49,0,1,0,0,1Z"/></svg>