<svg xmlns="http://www.w3.org/2000/svg" viewBox="0 0 63.69 31.85" preserveAspectRatio="xMidYMax">
  <defs>
    <style>.a{fill:#f6d056;}.b{fill:#414042;}.c{fill:#8dc63f;}.d{fill:#ed1c24;}</style>
  </defs>
  <title>Dine</title>
  <polygon class="a" points="5.69 11.61 5.63 18.32 11.96 16.03 5.69 11.61"/>
  <rect class="a" x="0.65" y="28.49" width="28.8" height="2.82"/>
  <path class="b" d="M29.09,31.85H1a.91.91,0,0,1-.91-.91V28.85A.91.91,0,0,1,1,27.95H29.09a.91.91,0,0,1,.91.91v2.09A.91.91,0,0,1,29.09,31.85ZM1.2,30.76H28.91V29H1.2Z"/>
  <path class="c" d="M20.72,12.86a7.78,7.78,0,0,0-5,1.81L5.63,18.32a5.09,5.09,0,0,0,0,10.18H20.72a7.81,7.81,0,0,0,0-15.63Z"/>
  <path class="b" d="M20.72,29H5.63a5.63,5.63,0,0,1-.1-11.27l9.91-3.58A8.36,8.36,0,1,1,20.72,29ZM5.63,18.86a4.54,4.54,0,0,0,0,9.09H20.72a7.27,7.27,0,1,0-4.65-12.86l-.07.06L5.73,18.86Z"/>
  <circle class="a" cx="20.05" cy="20.68" r="2.54"/>
  <path class="b" d="M20,23.77a3.09,3.09,0,1,1,3.09-3.09A3.09,3.09,0,0,1,20,23.77Zm0-5.09a2,2,0,1,0,2,2A2,2,0,0,0,20,18.68Z"/>
  <rect class="b" x="15.11" y="22.68" width="3.3" height="1.09" transform="translate(-11.45 18.26) rotate(-44.22)"/>
  <rect class="b" x="13.14" y="23.86" width="4.91" height="1.09" rx="0.36" ry="0.36"/>
  <rect class="b" x="19.34" y="10.08" width="5.02" height="1.09" transform="translate(2.48 25.3) rotate(-63.08)"/>
  <rect class="b" x="5.14" y="0.55" width="1.09" height="17.59"/>
  <circle class="a" cx="5.69" cy="23.34" r="1.66"/>
  <path class="b" d="M5.69,25.54a2.2,2.2,0,1,1,2.2-2.2A2.21,2.21,0,0,1,5.69,25.54Zm0-3.32A1.11,1.11,0,1,0,6.8,23.34,1.12,1.12,0,0,0,5.69,22.23Z"/>
  <rect class="c" x="18.65" y="5.46" width="7.52" height="2.69"/>
  <path class="b" d="M25.81,8.69H19a.91.91,0,0,1-.91-.91v-2A.91.91,0,0,1,19,4.91h6.79a.91.91,0,0,1,.91.91v2A.91.91,0,0,1,25.81,8.69ZM19.2,7.6h6.43V6H19.2Z"/>
  <rect class="b" x="8.28" y="9.98" width="1.09" height="7.67" transform="translate(-7.56 13.08) rotate(-54.85)"/>
  <path class="b" d="M11,1.09H4.94C4.43,1.09,4,.85,4,.55S4.43,0,4.94,0H11c.5,0,.91.24.91.55S11.51,1.09,11,1.09Z"/>
  <path class="c" d="M52.61,5.14h-.12a1,1,0,0,0-1,.91L50.35,30.4a.86.86,0,0,0,.86.91h2.67a.86.86,0,0,0,.86-.91L53.56,6A1,1,0,0,0,52.61,5.14Z"/>
  <path class="b" d="M53.88,31.85H51.21a1.4,1.4,0,0,1-1.41-1.48L51,6a1.52,1.52,0,0,1,1.5-1.43h.12A1.52,1.52,0,0,1,54.11,6l1.18,24.36a1.4,1.4,0,0,1-1.41,1.48ZM52.49,5.68a.42.42,0,0,0-.41.39L50.89,30.43a.31.31,0,0,0,.32.34h2.67a.31.31,0,0,0,.32-.34L53,6.07a.42.42,0,0,0-.41-.39Z"/>
  <rect class="d" x="56.67" y="11.26" width="2.33" height="6.78" rx="0.91" ry="0.91"/>
  <path class="b" d="M58.09,18.59h-.52a1.46,1.46,0,0,1-1.45-1.45v-5a1.46,1.46,0,0,1,1.45-1.45h.52a1.46,1.46,0,0,1,1.45,1.45v5A1.46,1.46,0,0,1,58.09,18.59Zm-.52-6.78a.36.36,0,0,0-.36.36v5a.36.36,0,0,0,.36.36h.52a.36.36,0,0,0,.36-.36v-5a.36.36,0,0,0-.36-.36Z"/>
  <rect class="d" x="59" y="12.83" width="2.33" height="3.63" rx="0.91" ry="0.91"/>
  <path class="b" d="M60.42,17h-.52a1.46,1.46,0,0,1-1.45-1.45V13.74a1.46,1.46,0,0,1,1.45-1.45h.52a1.46,1.46,0,0,1,1.45,1.45v1.82A1.46,1.46,0,0,1,60.42,17Zm-.52-3.63a.36.36,0,0,0-.36.36v1.82a.36.36,0,0,0,.36.36h.52a.36.36,0,0,0,.36-.36V13.74a.36.36,0,0,0-.36-.36Z"/>
  <rect class="d" x="46.1" y="11.26" width="2.33" height="6.78" rx="0.91" ry="0.91"/>
  <path class="b" d="M47.52,18.59H47a1.46,1.46,0,0,1-1.45-1.45v-5A1.46,1.46,0,0,1,47,10.71h.52A1.46,1.46,0,0,1,49,12.17v5A1.46,1.46,0,0,1,47.52,18.59ZM47,11.8a.36.36,0,0,0-.36.36v5a.36.36,0,0,0,.36.36h.52a.36.36,0,0,0,.36-.36v-5a.36.36,0,0,0-.36-.36Z"/>
  <rect class="d" x="43.76" y="12.83" width="2.33" height="3.63" rx="0.91" ry="0.91"/>
  <path class="b" d="M45.19,17h-.52a1.46,1.46,0,0,1-1.45-1.45V13.74a1.46,1.46,0,0,1,1.45-1.45h.52a1.46,1.46,0,0,1,1.45,1.45v1.82A1.46,1.46,0,0,1,45.19,17Zm-.52-3.63a.36.36,0,0,0-.36.36v1.82a.36.36,0,0,0,.36.36h.52a.36.36,0,0,0,.36-.36V13.74a.36.36,0,0,0-.36-.36Z"/>
  <rect class="b" x="48.43" y="14.11" width="8.24" height="1.09"/>
  <rect class="b" x="48.43" y="6.86" width="8.24" height="1.09"/>
  <rect class="d" x="56.67" y="5.59" width="2.33" height="3.63" rx="0.91" ry="0.91"/>
  <path class="b" d="M58.09,9.77h-.52a1.46,1.46,0,0,1-1.45-1.45V6.5A1.46,1.46,0,0,1,57.57,5h.52A1.46,1.46,0,0,1,59.54,6.5V8.32A1.46,1.46,0,0,1,58.09,9.77Zm-.52-3.63a.36.36,0,0,0-.36.36V8.32a.36.36,0,0,0,.36.36h.52a.36.36,0,0,0,.36-.36V6.5a.36.36,0,0,0-.36-.36Z"/>
  <rect class="d" x="46.1" y="5.59" width="2.33" height="3.63" rx="0.91" ry="0.91"/>
  <path class="b" d="M47.52,9.77H47a1.46,1.46,0,0,1-1.45-1.45V6.5A1.46,1.46,0,0,1,47,5h.52A1.46,1.46,0,0,1,49,6.5V8.32A1.46,1.46,0,0,1,47.52,9.77ZM47,6.14a.36.36,0,0,0-.36.36V8.32a.36.36,0,0,0,.36.36h.52a.36.36,0,0,0,.36-.36V6.5a.36.36,0,0,0-.36-.36Z"/>
  <rect class="d" x="56.6" y="20.34" width="2.33" height="6.78" rx="0.91" ry="0.91"/>
  <path class="b" d="M58,27.67h-.52a1.46,1.46,0,0,1-1.45-1.45v-5a1.46,1.46,0,0,1,1.45-1.45H58a1.46,1.46,0,0,1,1.45,1.45v5A1.46,1.46,0,0,1,58,27.67Zm-.52-6.78a.36.36,0,0,0-.36.36v5a.36.36,0,0,0,.36.36H58a.36.36,0,0,0,.36-.36v-5a.36.36,0,0,0-.36-.36Z"/>
  <rect class="d" x="58.94" y="21.04" width="2.33" height="5.4" rx="0.91" ry="0.91"/>
  <path class="b" d="M60.36,27h-.52a1.46,1.46,0,0,1-1.45-1.45V21.94a1.46,1.46,0,0,1,1.45-1.45h.52a1.46,1.46,0,0,1,1.45,1.45v3.58A1.46,1.46,0,0,1,60.36,27Zm-.52-5.4a.36.36,0,0,0-.36.36v3.58a.36.36,0,0,0,.36.36h.52a.36.36,0,0,0,.36-.36V21.94a.36.36,0,0,0-.36-.36Z"/>
  <rect class="d" x="46.04" y="20.34" width="2.33" height="6.78" rx="0.91" ry="0.91"/>
  <path class="b" d="M47.46,27.67h-.52a1.46,1.46,0,0,1-1.45-1.45v-5a1.46,1.46,0,0,1,1.45-1.45h.52a1.46,1.46,0,0,1,1.45,1.45v5A1.46,1.46,0,0,1,47.46,27.67Zm-.52-6.78a.36.36,0,0,0-.36.36v5a.36.36,0,0,0,.36.36h.52a.36.36,0,0,0,.36-.36v-5a.36.36,0,0,0-.36-.36Z"/>
  <rect class="d" x="43.7" y="21.04" width="2.33" height="5.4" rx="0.91" ry="0.91"/>
  <path class="b" d="M45.13,27h-.52a1.46,1.46,0,0,1-1.45-1.45V21.94a1.46,1.46,0,0,1,1.45-1.45h.52a1.46,1.46,0,0,1,1.45,1.45v3.58A1.46,1.46,0,0,1,45.13,27Zm-.52-5.4a.36.36,0,0,0-.36.36v3.58a.36.36,0,0,0,.36.36h.52a.36.36,0,0,0,.36-.36V21.94a.36.36,0,0,0-.36-.36Z"/>
  <rect class="b" x="48.37" y="23.19" width="8.24" height="1.09"/>
  <rect class="d" x="41.83" y="22.52" width="1.88" height="2.43" rx="0.91" ry="0.91"/>
  <path class="b" d="M42.79,25.5h-.06A1.46,1.46,0,0,1,41.28,24v-.61A1.46,1.46,0,0,1,42.74,22h.06a1.46,1.46,0,0,1,1.45,1.45V24A1.46,1.46,0,0,1,42.79,25.5Zm-.06-2.43a.36.36,0,0,0-.36.36V24a.36.36,0,0,0,.36.36h.06a.36.36,0,0,0,.36-.36v-.61a.36.36,0,0,0-.36-.36Z"/>
  <rect class="d" x="61.27" y="22.52" width="1.88" height="2.43" rx="0.91" ry="0.91"/>
  <path class="b" d="M62.24,25.5h-.06A1.46,1.46,0,0,1,60.73,24v-.61A1.46,1.46,0,0,1,62.18,22h.06a1.46,1.46,0,0,1,1.45,1.45V24A1.46,1.46,0,0,1,62.24,25.5Zm-.06-2.43a.36.36,0,0,0-.36.36V24a.36.36,0,0,0,.36.36h.06A.36.36,0,0,0,62.6,24v-.61a.36.36,0,0,0-.36-.36Z"/>
  <path class="a" d="M58,29.58H46.94a.87.87,0,1,0,0,1.73H58a.87.87,0,1,0,0-1.73Z"/>
  <path class="b" d="M58,31.85H46.94a1.41,1.41,0,1,1,0-2.82H58a1.41,1.41,0,1,1,0,2.82ZM46.94,30.12a.32.32,0,1,0,0,.64H58a.32.32,0,1,0,0-.64Z"/>
</svg>