<svg xmlns="http://www.w3.org/2000/svg" xmlns:xlink="http://www.w3.org/1999/xlink" viewBox="0 0 250 250"><defs><clipPath id="a"><ellipse cx="125" cy="36.79" rx="90" ry="68.29" style="fill:none"/></clipPath></defs><title>CR</title><path d="M126.14,193.29h-2.35a5.5,5.5,0,0,0-.63-.11l-4.51-.28a60,60,0,0,1-9.54-1.47A68.83,68.83,0,0,1,88.39,183a70.37,70.37,0,0,1-33.58-66.61,70.24,70.24,0,0,1,71.72-64,81.94,81.94,0,0,1,9.28.78,63,63,0,0,1,12.93,3.25,69.66,69.66,0,0,1,30.73,21.65,68.79,68.79,0,0,1,14.27,29.44c.59,2.72,1,5.5,1.32,8.26.23,1.8.21,3.63.31,5.45,0,.25.07.5.11.75v1.65a6.18,6.18,0,0,0-.11.8,66.24,66.24,0,0,1-1,10.61,68.07,68.07,0,0,1-5.94,18.46,69.68,69.68,0,0,1-35.11,33.83,68.39,68.39,0,0,1-25.84,5.86C127,193.16,126.58,193.24,126.14,193.29Zm-53-34.37c.42,0,.69.05,1,.05H92.82c4,0,8.07,0,12.11,0a1,1,0,0,0,1.16-.77c.55-1.55,1.17-3.07,1.77-4.6,2.44-6.27,4.86-12.54,7.84-18.59.07-.14.16-.28.25-.45.05.94.11,1.82.15,2.7a29.16,29.16,0,0,0,2.39,10.39,21.09,21.09,0,0,0,13,11.89,31.19,31.19,0,0,0,15.29,1.06,33,33,0,0,0,16-7.48,39.17,39.17,0,0,0,12.5-19.07,32.78,32.78,0,0,0,1.32-15.33,15.92,15.92,0,0,0-4-8.4,16.6,16.6,0,0,0-10.4-4.89c-.73-.09-1.46-.15-2.28-.24,4.45-8.48,9.81-16.25,15.26-24.11-.36,0-.57-.06-.78-.06H146.12a1.26,1.26,0,0,0-1.07.48c-2.35,2.81-4.73,5.59-7.07,8.41a1.46,1.46,0,0,1-1.27.61l-48.19,0a1,1,0,0,0-1,.54q-6.95,12.36-13.93,24.7c-.1.18-.18.37-.33.67H96.71Z" style="fill:#a92519"/><path d="M73.18,158.92l23.53-42.5H73.23c.15-.3.23-.49.33-.67q7-12.35,13.93-24.7a1,1,0,0,1,1-.54l48.19,0a1.46,1.46,0,0,0,1.27-.61c2.33-2.82,4.71-5.61,7.07-8.41a1.26,1.26,0,0,1,1.07-.48h28.27c.21,0,.42,0,.78.06-5.45,7.86-10.81,15.63-15.26,24.11.83.08,1.56.14,2.28.24a16.6,16.6,0,0,1,10.4,4.89,15.92,15.92,0,0,1,4,8.4,32.78,32.78,0,0,1-1.32,15.33,39.17,39.17,0,0,1-12.5,19.07,33,33,0,0,1-16,7.48,31.19,31.19,0,0,1-15.29-1.06,21.09,21.09,0,0,1-13-11.89,29.16,29.16,0,0,1-2.39-10.39c0-.88-.1-1.76-.15-2.7-.1.17-.18.31-.25.45-3,6-5.39,12.32-7.84,18.59-.6,1.53-1.22,3.05-1.77,4.6a1,1,0,0,1-1.16.77c-4,0-8.07,0-12.11,0H74.13C73.86,159,73.6,158.94,73.18,158.92ZM165.73,86l-.42,0c-5.76,0-11.52,0-17.28,0a1.18,1.18,0,0,0-.76.4,163.84,163.84,0,0,0-20.9,30.15,47.19,47.19,0,0,0-4.65,11,28.49,28.49,0,0,0,1.45,18.4,15.91,15.91,0,0,0,10.55,9.32,25.69,25.69,0,0,0,9.78.77,28.32,28.32,0,0,0,16.24-6.95,33.71,33.71,0,0,0,10.11-15.62A24,24,0,0,0,171,121.62a13.48,13.48,0,0,0-7.68-10.31,16.53,16.53,0,0,0-10.73-1c-.62.13-1.24.29-2,.46C154.86,101.92,160.27,94,165.73,86ZM82.18,111h23.61L81.57,154l.46,0c6.46,0,12.93,0,19.39,0,.48,0,.59-.24.72-.58,2.82-7.24,6-14.31,9.47-21.27,6.15-12.39,13.06-24.34,20.35-36.08.13-.21.24-.42.4-.7H91.25a.81.81,0,0,0-.81.49q-4,7.29-8,14.57C82.36,110.61,82.29,110.77,82.18,111Z" style="fill:#fff"/><path d="M165.73,86c-5.46,8-10.87,15.91-15.11,24.72.75-.18,1.37-.33,2-.46a16.53,16.53,0,0,1,10.73,1A13.48,13.48,0,0,1,171,121.62a24,24,0,0,1-1.18,11.85,33.71,33.71,0,0,1-10.11,15.62A28.32,28.32,0,0,1,143.5,156a25.69,25.69,0,0,1-9.78-.77A15.91,15.91,0,0,1,123.17,146a28.49,28.49,0,0,1-1.45-18.4,47.19,47.19,0,0,1,4.65-11,163.84,163.84,0,0,1,20.9-30.15A1.18,1.18,0,0,1,148,86c5.76,0,11.52,0,17.28,0Zm-27.61,48.51-.15,0a23.43,23.43,0,0,0,.75,3,4.2,4.2,0,0,0,4.63,2.73,5.73,5.73,0,0,0,3.33-1.74,24,24,0,0,0,5.59-9,11,11,0,0,0,.69-5.24,4.32,4.32,0,0,0-4.51-4,7.27,7.27,0,0,0-6,3.14,24.15,24.15,0,0,0-3.4,6.66A13,13,0,0,0,138.12,134.52Z" style="fill:#12236f"/><path d="M82.18,111c.12-.24.19-.39.27-.54q4-7.28,8-14.57a.81.81,0,0,1,.81-.49h41.13c-.16.28-.27.49-.4.7-7.29,11.74-14.2,23.7-20.35,36.08-3.45,7-6.64,14-9.47,21.27-.13.34-.25.58-.72.58C95,154,88.5,154,82,154l-.46,0,24.21-43Z" style="fill:#12236f"/><path d="M138.12,134.52a13,13,0,0,1,.92-4.46,24.15,24.15,0,0,1,3.4-6.66,7.27,7.27,0,0,1,6-3.14,4.32,4.32,0,0,1,4.51,4,11,11,0,0,1-.69,5.24,24,24,0,0,1-5.59,9,5.73,5.73,0,0,1-3.33,1.74,4.2,4.2,0,0,1-4.63-2.73,23.43,23.43,0,0,1-.75-3Z" style="fill:#fff"/><g style="opacity:0.15"><g style="clip-path:url(#a)"><ellipse cx="125" cy="122.77" rx="67.43" ry="68.29" style="fill:#fff"/></g></g></svg>