<svg xmlns="http://www.w3.org/2000/svg" viewBox="0 0 250 250"><title>Grocery</title><circle cx="125" cy="125" r="63.67" style="fill:#ec1c24"/><path d="M88,141.78h19.64l3.2,7.67a5.08,5.08,0,1,0,9.39-3.91L103.37,105A5.86,5.86,0,0,0,98,101.72c-2.85,0-5.29,1.24-6.29,3.83L81.17,131.61H75.51a5.08,5.08,0,0,0,0,10.17h1.55l-1.54,3.81a5.08,5.08,0,1,0,9.43,3.81Zm15.4-10.17H92.14l5.56-13.74Z" style="fill:#fff"/><path d="M145.92,102.45a4.84,4.84,0,1,0,0,9.67h1.21v35.33a5.1,5.1,0,0,0,10.17,0V135.85h7.55c9.56,0,17.34-7.49,17.34-16.7s-7.78-16.7-17.34-16.7Zm18.93,23.74h-7.55V112.12h7.55a7,7,0,1,1,0,14.07Z" style="fill:#fff"/><path d="M135.19,114.07s2.45-2,2.54-2.12c2.31-2.47,1-6.66.06-7.93a1.38,1.38,0,0,0-2.19,1.69c.16.22,1.18,3.51,0,4.51-1.45,1.19-8,6-8.94,7.28a7.48,7.48,0,0,0-1.28,6.3,1.38,1.38,0,1,0,2.67-.73,4.9,4.9,0,0,1,.77-3.82c.36-.48,4.12-3.32,4.12-3.32,3.73,2,5.63,4.58,5.63,7.61a9.8,9.8,0,0,1-10,9.78c-5.77,0-10.46-4.35-10.46-9.7a9.53,9.53,0,0,1,4.73-8.11c.38-.23,1.56-1.06,1.56-1.06l-1.37-1.16a4.38,4.38,0,1,1,6.36-6,1.38,1.38,0,1,0,2.2-1.68A7.14,7.14,0,0,0,120,114.09a12.14,12.14,0,0,0-4.71,9.53c0,6.87,5.93,12.46,13.23,12.46a12.54,12.54,0,0,0,12.8-12.55C141.28,119.77,139.17,116.52,135.19,114.07Z" style="fill:#fff"/></svg>