<svg xmlns="http://www.w3.org/2000/svg" viewBox="0 0 250 250"><title>Grocery</title><path d="M120.13,152.71c.16-.81.31-1.6.46-2.38l3.06-15.62,2.77-14.1,2.8-14.24c.6-3,1.21-6.1,1.8-9.15.05-.28.14-.38.43-.38h17l.3,0v20.66l.11,0c.07-.14.15-.28.21-.43q4.08-9.86,8.15-19.73a.78.78,0,0,1,.86-.56q8.85,0,17.7,0h.62l-10.75,55.86H152.22l4.15-21-.08,0c-.07.15-.14.3-.2.46q-3.57,10-7.14,20.06a.65.65,0,0,1-.73.53c-2.57,0-5.14,0-7.71,0H140V131.65l-.13,0c-.15.65-.31,1.31-.46,2q-2.14,9.38-4.27,18.76c-.06.27-.14.39-.43.39H120.4Z" style="fill:#ef3b39"/><path d="M79.87,97.91V152.7H65v-.53c0-2.24,0-4.47,0-6.71,0-.42-.09-.58-.55-.58q-4.9,0-9.81,0a.59.59,0,0,0-.66.46c-.87,2.33-1.76,4.65-2.63,7a.53.53,0,0,1-.59.4h-14l-.5,0c.31-.85.59-1.64.89-2.43q9.57-25.91,19.13-51.83a.7.7,0,0,1,.77-.55q11.11,0,22.21,0ZM59.52,128.69a2.34,2.34,0,0,0,.33.06h4.74c.34,0,.39-.16.39-.45q0-5.5,0-11a2.27,2.27,0,0,0,0-.32h-.09Z" style="fill:#ef3b39"/><path d="M212.93,96.87c-.17,1-.34,2-.5,3l-1.79,10.49c-.12.7-.25,1.4-.36,2.11,0,.25-.15.35-.39.33h-.41c-4.62,0-9.24,0-13.87,0-.47,0-.66.13-.77.59-.34,1.43-.73,2.84-1.12,4.35h15.2c-.21,1.12-.41,2.16-.61,3.2-.53,2.75-1.07,5.51-1.59,8.26-.07.4-.2.55-.63.55l-13.73,0c-.41,0-.58.12-.67.52-.39,1.62-.82,3.23-1.24,4.85,0,.11,0,.23-.08.42h15l-2.73,17.2h-29.9c.14-.81.27-1.58.41-2.35L175.37,138l2.16-11.9,2-11.32q1.06-5.89,2.13-11.77c.35-1.92.71-3.85,1-5.77.05-.32.17-.39.47-.39h29.37Z" style="fill:#ef3b39"/><path d="M116.85,136.78l-2.31,16H114q-10.88,0-21.76,0a6.76,6.76,0,0,1-5.65-2.79,11.42,11.42,0,0,1-2.12-4.84,4.76,4.76,0,0,1,.15-1.53q1.17-7.83,2.34-15.66c.67-4.5,1.34-9,2-13.5.39-2.49.71-5,1.29-7.44A13.25,13.25,0,0,1,98,97.45a7.07,7.07,0,0,1,3-.62c7.48,0,15,0,22.44,0H124c-.12.76-.23,1.49-.35,2.21q-.9,5.34-1.8,10.67c-.24,1.42-.49,2.84-.72,4.26,0,.31-.22.3-.45.3-4.33-.08-8.66-.17-13-.2a7.32,7.32,0,0,0-2.35.42,2.71,2.71,0,0,0-1.81,2.27c-.59,3.31-1.2,6.62-1.8,9.94q-.59,3.27-1.15,6.54a2.36,2.36,0,0,0,.68,2.13,3.48,3.48,0,0,0,2.56,1.18c4.09,0,8.18.11,12.27.18C116.34,136.74,116.58,136.76,116.85,136.78Z" style="fill:#ef3b39"/></svg>