<svg xmlns="http://www.w3.org/2000/svg" viewBox="0 0 250 250"><title>CR</title><path d="M125,200,50,125l75-75,75,75ZM53.66,125,125,196.34,196.34,125,125,53.66Z" style="fill:#cc210f"/><path d="M152.7,91s-5.39,6.54-12.5,6.54S125,91,125,91s-8.08,6.54-15.2,6.54S97.3,91,97.3,91c-17,6.54-18,20.26-18,20.26h91.48S169.66,97.55,152.7,91Z" style="fill:#cc210f"/><path d="M125,140.59H78.51s8.48,18,33.77,21.77c0,0,10.35.07,12.72,6,2.37-6,12.72-6,12.72-6,25.29-3.74,33.77-21.77,33.77-21.77Z" style="fill:#0a1d9d"/><path d="M70,134.46l3.63-20.06h2l3.62,20.06H77.84l-1.06-6.24H72.4l-1,6.24Zm2.74-8.1h3.71l-1.76-10.45h-.18Z" style="fill:#0a1d9d;stroke:#0a1d9d;stroke-miterlimit:10"/><path d="M88.16,134.46V114.41H91a5.55,5.55,0,0,1,2.2.37A3.93,3.93,0,0,1,94.68,116a9.07,9.07,0,0,1,1.51,3.45,21.4,21.4,0,0,1,.52,5q0,5-1.51,7.52a5,5,0,0,1-4.53,2.52Zm2.5-18.19H89.44V132.5h1a5.55,5.55,0,0,0,2.1-.33,3.09,3.09,0,0,0,1.32-1.07A7.18,7.18,0,0,0,95,128.41a17.71,17.71,0,0,0,.39-4,19.18,19.18,0,0,0-.39-4.14,7,7,0,0,0-1.15-2.74,3.07,3.07,0,0,0-1.22-1A5.26,5.26,0,0,0,90.67,116.27Z" style="fill:#0a1d9d;stroke:#0a1d9d;stroke-miterlimit:10"/><path d="M106.29,134.46V114.41h2l3.28,17,3.31-17h1.89v20.06h-1.26V116.79L112,134.46h-.87l-3.55-17.67v17.67Z" style="fill:#0a1d9d;stroke:#0a1d9d;stroke-miterlimit:10"/><path d="M127.09,134.46V114.41h1.32v20.06Z" style="fill:#0a1d9d;stroke:#0a1d9d;stroke-miterlimit:10"/><path d="M138.74,134.46V114.41H142a4.56,4.56,0,0,1,3.59,1.27,6,6,0,0,1,1.12,4,7.61,7.61,0,0,1-.61,3.25,3.86,3.86,0,0,1-1.83,1.88l2.77,9.63h-1.43l-2.59-9.1h-3v9.1Zm3.3-18.19h-2v7.23h2a3.49,3.49,0,0,0,2.63-.85,3.91,3.91,0,0,0,.81-2.75,4.27,4.27,0,0,0-.72-2.82A3.5,3.5,0,0,0,142,116.27Z" style="fill:#0a1d9d;stroke:#0a1d9d;stroke-miterlimit:10"/><path d="M155.17,134.46l3.63-20.06h2l3.62,20.06H163L162,128.22h-4.38l-1,6.24Zm2.74-8.1h3.71l-1.76-10.45h-.18Z" style="fill:#0a1d9d;stroke:#0a1d9d;stroke-miterlimit:10"/><path d="M173.43,134.46V114.41h1.34v18.15H180v1.91Z" style="fill:#0a1d9d;stroke:#0a1d9d;stroke-miterlimit:10"/></svg>