<svg xmlns="http://www.w3.org/2000/svg" viewBox="0 0 250 250"><title>CR</title><polygon points="59.64 116.07 59.63 116.08 59.64 116.07 59.64 116.07" style="fill:#fbcc1b"/><polygon points="59.64 116.07 59.64 116.07 59.64 116.07 59.64 116.07" style="fill:#f37b36"/><path d="M189.67,115.47q-3.57-2.72-7.32-5.19c-1.17-.77-2.38-1.48-3.6-2.16h0l-.13-.14-.12-.07,0,0h0l-.13-.09c-.44-.27-.87-.54-1.32-.8-2-1.13-3.93-2.22-6-3.19-.6-.3-1.19-.61-1.8-.89-1.68-.79-3.35-1.58-5.09-2.24-2-.9-4.1-1.62-6.19-2.33a.79.79,0,0,0-.43-.15l-.09,0A1,1,0,0,0,157,98a.11.11,0,0,0-.08,0c-.57-.19-1.13-.4-1.7-.57-1.48-.44-2.95-.92-4.46-1.24a.17.17,0,0,0-.2-.06.61.61,0,0,0-.35-.09,25.76,25.76,0,0,0-2.92-.7.89.89,0,0,0-.15-.06c-2.3-.5-4.62-.95-6.95-1.29-1.67-.25-3.33-.49-5-.61-1.66-.28-3.35-.22-5-.4-.85-.09-1.71-.08-2.57-.1q-3.65-.09-7.3.08a20.31,20.31,0,0,0-2.22.15l-.59,0-.26,0-.69.06h-.18a.21.21,0,0,0-.2,0H116a4.52,4.52,0,0,0-1.11.06,100.73,100.73,0,0,0-11.24,1.78A67.89,67.89,0,0,0,96.51,97a.19.19,0,0,0-.22.07h-.12a.24.24,0,0,0-.22.08h0a1.67,1.67,0,0,0-.25,0A107.09,107.09,0,0,0,82,102.37a111.06,111.06,0,0,0-15.54,8.73c-2.34,1.57-4.63,3.2-6.84,5a1.29,1.29,0,0,0,.24-.08q4.81-2.59,9.82-4.79c4-1.77,8.14-3.35,12.33-4.72q2.41-.79,4.84-1.49c3.35-1,6.74-1.8,10.15-2.5.12,0,.23,0,.26-.17a4,4,0,0,0,.68,0c3-.6,6.07-1.09,9.12-1.5,1.43-.19,2.85-.36,4.28-.52,1.77-.2,3.56-.27,5.34-.39h0c.7,0,1.4-.1,2.09-.12,3.69-.12,7.38-.19,11.07,0,1.86.08,3.71.18,5.57.28q0-.73,0-1.46,0,.73,0,1.46l.16,0c2.55.18,5.09.45,7.63.79l3.95.55.12,0,.27,0a10,10,0,0,0,1.46.25l.16,0a5.11,5.11,0,0,0,1.13.21l2.52.51,4.27.92a.58.58,0,0,0,.34.07.52.52,0,0,0,.35.08l6,1.62,2.36.74,4.19,1.34c.62.3,1.28.47,1.92.72l4.6,1.75a2.27,2.27,0,0,0,.67.27c0,.07.11.07.18.07l2.2,1c3.07,1.34,6.09,2.77,9.05,4.34l1.09.56A.88.88,0,0,0,189.67,115.47Z" style="fill:#f37b36"/><path d="M78.51,119.41c-5.14,0-10.28,0-15.42,0a12.56,12.56,0,0,0-8.18,3.09h0a12.26,12.26,0,0,0-3,3.52l-.1.17a.43.43,0,0,0-.15.27c-.08.13-.17.26-.24.4A12.53,12.53,0,0,0,50.07,132a4.32,4.32,0,0,0,0,1.6,9.45,9.45,0,0,0,1.1,3.74l.09.17h0l.07.1h0a7.3,7.3,0,0,0,6.12,4.22,6.86,6.86,0,0,0,5.76-2.68,2.65,2.65,0,0,1-2.47-2c0-.27,0-.54.06-.81.26-1.28.49-2.57.73-3.86.41-1.76.73-3.55,1.06-5.33.06-.25.13-.49.17-.74.19-1.1.38-2.2.57-3.3.15-.08.14-.24.18-.37a3.06,3.06,0,0,1,3.27-1.86,2.42,2.42,0,0,1,2.13,2.66h0c-.17.84-.35,1.67-.51,2.51s-.35,1.87-.53,2.81l0,.21a.33.33,0,0,0-.07.31c-.37,1.59-.68,3.19-1,4.8h0a.28.28,0,0,0-.06.26q-.41,1.8-.7,3.61l-.63,3H74.3c.15,0,.34.1.39-.19.16-.88.33-1.76.5-2.65l0-.09a.05.05,0,0,0,0-.07h0a.49.49,0,0,0,.08-.36c0-.11.07-.21.09-.32.14-.77.29-1.55.43-2.33.11-.1.08-.23.08-.36a.3.3,0,0,0,.06-.26L77,129l1.08-5.49c.25-1.26.49-2.52.76-3.78C78.91,119.44,78.8,119.41,78.51,119.41Z" style="fill:#f06036"/><path d="M123,124.06a5.08,5.08,0,0,0-.17-2.33,4,4,0,0,0-2.61-2.43,8.05,8.05,0,0,0-4.93-.17,22.52,22.52,0,0,0-6.11,2.68c-.34.2-.52.22-.78-.14a6.65,6.65,0,0,0-6.91-2.78,19,19,0,0,0-6.2,2.42L94,122c.16-.84.29-1.58.45-2.32.05-.24,0-.33-.24-.32H85.62c-.18,0-.29,0-.32.24-.27,1.42-.59,2.82-.81,4.25l0,0,.1,0-.1,0,0,0a3.3,3.3,0,0,0-.23,1c-.25,1.29-.49,2.58-.73,3.87l0,.21a.91.91,0,0,0-.12.48c-.37,1.77-.74,3.54-1,5.33q-.6,3-1.2,5.92c-.06.28.11.27.29.27H90c.23,0,.32-.08.36-.31.08-.51.2-1,.29-1.51.27-1.45.61-2.88.82-4.33a7.77,7.77,0,0,0,.31-1.41c.25-1.28.55-2.55.73-3.85.06-.23.12-.46.17-.7q.47-2.41.94-4.81a6.46,6.46,0,0,1,.33-.6,2.92,2.92,0,0,1,2.84-1.34A2.45,2.45,0,0,1,99,124.06a2.67,2.67,0,0,1-.05,1.1c-.17.87-.33,1.73-.49,2.6h0v.12l-.05.13c-.26,1.23-.53,2.46-.72,3.7s-.56,2.57-.76,3.87a.37.37,0,0,0-.07.11c-.32,1.64-.63,3.28-1,4.91-.07.33,0,.4.33.4,2.69,0,5.38,0,8.06,0,.72,0,.72,0,.85-.68q.44-2.31.88-4.62h0c.32-1.31.56-2.64.79-4l-.13-.06.13.06a2.1,2.1,0,0,0,.08-.24l.61-3.27,0-.08,0-.27c.24-1,.47-2.1.62-3.16.11-.1.07-.24.08-.36a.51.51,0,0,0,.1-.34l.11-.18a2.93,2.93,0,0,1,3-1.68,2.46,2.46,0,0,1,2.32,1.94l0,.78h0v.08c-.29,1.16-.49,2.34-.69,3.52h0q-.55,2.7-1.1,5.4c0,.06,0,.13.08.19a1.39,1.39,0,0,0-.22.5,7.1,7.1,0,0,0,.41,4.28,4,4,0,0,0,3.33,2.57,9.39,9.39,0,0,0,2.35-.13,8.22,8.22,0,0,0,4.39-1.86.86.86,0,0,0,.33-.41c-1.42-.14-1.93-.71-1.92-2.12a4.74,4.74,0,0,1,0-.69,15.63,15.63,0,0,1,.39-2.31q.54-2.44,1-4.89s0,0,0,0v0l0-.12.1-.52h0l.05-.27A40,40,0,0,0,123,124.06ZM84.78,124h0Zm14.08,3.75h0Zm14.36.77.06,0,.05,0-.05,0-.06,0-.11,0Z" style="fill:#f06036"/><path d="M156.74,134.23a9.68,9.68,0,0,0-9.66-7.49c-4.51,0-9,0-13.53,0-.39,0-.54.1-.61.49-.23,1.31-.5,2.61-.75,3.91h0c-.11.55-.22,1.09-.33,1.64l-1,5.33c0,.11-.05.22-.08.33l-1.07,5.52,0,0,0,0-.06.22,0,.17h0a3,3,0,0,0-.2,1.16h0c-.15.12-.07.31-.13.45a.08.08,0,0,0,0,.08,24.92,24.92,0,0,0-.52,2.67.28.28,0,0,0,0,.07c-.52,2.65-1,5.3-1.57,7.94-.06.3,0,.4.33.39q4.21,0,8.42,0c.27,0,.39-.05.45-.36.32-1.73.67-3.45,1-5.17.24-1.26.47-2.53.71-3.79h0c.09-.08.07-.19.07-.29a10.14,10.14,0,0,0,.33-1.63c.26-1.32.53-2.63.78-3.95.21-1.11.49-2.2.62-3.32a.2.2,0,0,0,.06-.2l0-.17a1.16,1.16,0,0,0,.07-.19c.26-1.32.53-2.63.77-4,.17-.94.42-1.87.52-2.82a2.33,2.33,0,0,0,.17-.7,3,3,0,0,1,3.41-2.47,2.35,2.35,0,0,1,2.1,2.65c-.18,1.21-.44,2.41-.67,3.62-.27,1.37-.56,2.74-.82,4.11-.19,1-.46,2.06-.58,3.11a17.1,17.1,0,0,0-.5,2.37,3,3,0,0,1-2.52,2.4,3.65,3.65,0,0,1-1.67-.2,5.3,5.3,0,0,0,1,1.34,6.83,6.83,0,0,0,7.5,1.67,11.83,11.83,0,0,0,6.21-5,1,1,0,0,0,.17-.43.52.52,0,0,0,.33-.45,9.25,9.25,0,0,0,.45-.86,1.32,1.32,0,0,0,.24-.52.06.06,0,0,0,0-.06,11.35,11.35,0,0,0,.83-6.81C156.85,134.79,156.81,134.5,156.74,134.23Z" style="fill:#596cb0"/><path d="M197.89,142.11c.35-1.7.71-3.4,1-5.1.18-.93.26-1.88.53-2.79a14.67,14.67,0,0,0,.47-2.55,5.74,5.74,0,0,0-.25-2.83,4.14,4.14,0,0,0-2.66-2.27,8.75,8.75,0,0,0-5.72.14,24.6,24.6,0,0,0-5.27,2.47c-.29.18-.43.17-.63-.12a6.63,6.63,0,0,0-6.87-2.88,17.73,17.73,0,0,0-5.8,2.17c-.59.32-1.17.65-1.81,1,.16-.81.28-1.55.45-2.29.06-.28,0-.35-.27-.35h-8.55a.32.32,0,0,0-.37.3q-.54,2.86-1.09,5.72a1.82,1.82,0,0,0,.83.15,1.82,1.82,0,0,1-.83-.15c-.25,1.21-.5,2.43-.74,3.64s-.47,2.14-.61,3.23a0,0,0,0,0,0,0,.19.19,0,0,0-.05.21l0,.16,0,.09c-.52,2.62-1,5.23-1.57,7.85-.07.33.08.34.33.34h8.46c.26,0,.37-.07.42-.34.23-1.26.47-2.53.74-3.78.17-.77.2-1.57.43-2.33l0,0a.29.29,0,0,0,0-.05l0-.2h0l.09-.42,0-.3,0-.13,0-.3a.83.83,0,0,0,.1-.49v0l.06-.13,0-.18c.22-.74.33-1.5.47-2.26.25-1.3.56-2.59.74-3.91a.29.29,0,0,0,.07-.28l0-.14,0-.12,0-.18a.52.52,0,0,0,.08-.35l0-.16,0,0a.28.28,0,0,0,0-.05l.05-.2v-.08a3.12,3.12,0,0,1,.82-1.57,3,3,0,0,1,3.44-.57c1.09.58,1.44,1.5,1.17,3a16.64,16.64,0,0,0-.35,1.93l0,.12a.21.21,0,0,0-.06.22c-.23,1.1-.46,2.21-.67,3.31-.27,1.42-.6,2.82-.81,4.25a.17.17,0,0,0-.05.18l0,.17a.08.08,0,0,0,0,.08.55.55,0,0,0-.07.35c-.18.22-.1.49-.15.74-.29,1.32-.53,2.65-.8,4,0,.24,0,.29.25.29h8.58c.21,0,.35-.06.35-.27a16.1,16.1,0,0,1,.38-2.19c.1-.7.28-1.38.43-2.08a.34.34,0,0,0,.07-.3l0-.16a.93.93,0,0,0,.07-.45.5.5,0,0,0,.07-.34,2.85,2.85,0,0,0,.09-.28q.4-2,.79-4.06c.2-1.06.47-2.11.6-3.19a.47.47,0,0,0,.08-.37,0,0,0,0,0,0,0,.19.19,0,0,0,.06-.21l0-.18a.28.28,0,0,0,.06-.25l0-.15c.12-.59.28-1.17.37-1.76a3,3,0,0,1,1.26-2.11s0,0,.06,0h0l.63-.32c.3,0,.59-.11.89-.14a2.43,2.43,0,0,1,2.66,2.94,6.44,6.44,0,0,0-.21,1.22c-.13.62-.27,1.24-.39,1.86q-.57,2.89-1.13,5.79l0,.3c-.09.09-.07.2-.08.31v0a.36.36,0,0,0-.06.3,2.68,2.68,0,0,0-.09.86v.09a2.52,2.52,0,0,0,0,.78.07.07,0,0,0,0,.08,1.43,1.43,0,0,0,.08.61.21.21,0,0,0,.05.22,2.31,2.31,0,0,0,.25,1,4.05,4.05,0,0,0,3.38,2.87,8,8,0,0,0,1.67,0,8.74,8.74,0,0,0,5-1.81,1.73,1.73,0,0,0,.5-.53c-1.1-.1-1.89-.51-1.94-1.72v-.17a.14.14,0,0,0-.06.06.06.06,0,0,0,0,0,.06.06,0,0,1,0,0,.14.14,0,0,1,.06-.06v-.6l0-.47c.12-.15.07-.32.08-.48A3,3,0,0,0,197.89,142.11Zm-27.56-9.87h0a.12.12,0,0,1,0,0A.12.12,0,0,0,170.33,132.23Z" style="fill:#596cb0"/></svg>