<svg xmlns="http://www.w3.org/2000/svg" viewBox="0 0 250 250"><title>Mass</title><path d="M35,158.3V91.65H215c0,.17,0,.35,0,.52q0,32.85,0,65.71v.46H35.71C35.47,158.34,35.24,158.32,35,158.3Zm47.53-34.42,0-.13-.67-.35a2.32,2.32,0,0,1-1.4-2.32c0-.3,0-.6,0-.9,0-2.49,0-5,0-7.47a5.47,5.47,0,0,0-4.25-5.36,7.24,7.24,0,0,0-7.11,2.4l-.42.42c0-.26,0-.4,0-.54q0-4.9,0-9.79c0-.86,0-.86-.87-.83-4.39.12-8.77.26-13.16.35-3,.06-6,0-9,0-.72,0-1.44-.09-2.16-.17-.45,0-.58,0-.6.47-.07,1.61-.12,3.22-.17,4.83a1.48,1.48,0,0,0,.07.33l.12,0c.18-.37.36-.75.55-1.12a4,4,0,0,1,2.89-2.31,22.16,22.16,0,0,1,3.06-.2c.3,0,.42.22.42.51q0,9.72,0,19.43a1.74,1.74,0,0,1-.62,1.43,16.62,16.62,0,0,1-1.44.93l-.36.24,0,.09H59.31l0-.1c-.12-.07-.23-.15-.35-.22-.4-.21-.82-.38-1.2-.62A2.08,2.08,0,0,1,56.74,121c0-4.24,0-8.48,0-12.72,0-2.19,0-4.38,0-6.57,0-.29.05-.5.4-.49.94,0,1.88,0,2.81,0a5,5,0,0,1,1.35.29,1.15,1.15,0,0,1,.82,1.21c0,1.09,0,2.18,0,3.26q0,6.32,0,12.64c0,.88,0,1.75,0,2.63a2.29,2.29,0,0,1-1.61,2.28c-.11,0-.2.1-.31.14v.11a2.31,2.31,0,0,0,.4.07h9.61a2.19,2.19,0,0,0,.4-.07v-.12c-.16-.08-.32-.17-.48-.23a2.22,2.22,0,0,1-1.5-2.17c0-2.85,0-5.7,0-8.55a2.73,2.73,0,0,1,2.79-2.66,2.31,2.31,0,0,1,2.48,2.43c0,.07,0,.15,0,.22,0,2.89,0,5.78,0,8.67a2.1,2.1,0,0,1-1.34,2.07,1.23,1.23,0,0,0-.27.12.67.67,0,0,0-.12.21,1,1,0,0,0,.19.1.7.7,0,0,0,.19,0h9.64A2.39,2.39,0,0,0,82.53,123.88ZM73.4,136.94l-.11,0a4.26,4.26,0,0,1-.05-.46c0-.55,0-1.1,0-1.65s0-.59-.57-.56c-1.6.09-3.2.18-4.79.28-.74,0-1.47.12-2.2.21-.15,0-.28.16-.42.25.1.11.19.27.31.32a1.21,1.21,0,0,1,.75.84,8.18,8.18,0,0,1,.38,2c0,3.26,0,6.53,0,9.79a7,7,0,0,1,0,.9c-.12.93-.81,1.21-1.55.63a3.07,3.07,0,0,1-1-1.48c-.75-2.13-1.49-4.27-2.26-6.4q-2.58-7.22-5.18-14.44c-.13-.37-.31-.59-.75-.58-1.31,0-2.63,0-3.94,0-.66,0-.66,0-.88.61-1.08,3.1-2.17,6.21-3.24,9.32-1.31,3.82-2.59,7.65-3.91,11.46a3.61,3.61,0,0,1-2.22,2.57c-.06,0-.11.08-.17.13a37.19,37.19,0,0,0,6.9,0l-.55-.2a2.32,2.32,0,0,1-1.73-2.77,4.24,4.24,0,0,1,.19-.76c.45-1.3.91-2.59,1.35-3.9a.47.47,0,0,1,.54-.38q3,0,6.08,0a.49.49,0,0,1,.56.4c.55,1.62,1.12,3.24,1.69,4.85a1.64,1.64,0,0,1-.86,2.23,7.59,7.59,0,0,1-.91.35l-.33.11v.14a4.54,4.54,0,0,0,.61.08h19.7a2.26,2.26,0,0,0,.4-.07l0-.12c-.17-.08-.34-.17-.51-.24a2.19,2.19,0,0,1-1.5-2.13c0-2.88,0-5.75,0-8.63a2.55,2.55,0,0,1,2-2.5,2.39,2.39,0,0,1,3.28,2.19c0,.19,0,.37,0,.56,0,2.74,0,5.48,0,8.22A2.25,2.25,0,0,1,77,150.43c-.1,0-.17.16-.25.24.1,0,.2.13.31.13h9.68a1.49,1.49,0,0,0,.36-.09v-.1l-.68-.35a2.33,2.33,0,0,1-1.4-2.29c0-.47,0-1,0-1.43,0-2.31,0-4.63,0-6.94a5.48,5.48,0,0,0-4.74-5.49,7.31,7.31,0,0,0-6.48,2.34Zm111.33,13.67,0,.14a3.93,3.93,0,0,0,.45.05c3,0,6.08,0,9.12,0a3.76,3.76,0,0,0,1.31-.26,2.66,2.66,0,0,1,1.72-.08c.86.23,1.72.45,2.59.6a6.92,6.92,0,0,0,4.81-.65,5,5,0,0,0,2.66-3.05,7.74,7.74,0,0,0,.11-2.76,4.65,4.65,0,0,0-2.6-3.83c-.74-.39-1.53-.69-2.27-1.07a18.81,18.81,0,0,1-2.5-1.42,1.59,1.59,0,0,1,.46-2.89,3.33,3.33,0,0,1,3.54.76,9.77,9.77,0,0,1,2.07,2.79c.07.13.24.2.37.3a1.24,1.24,0,0,0,.18-.41c0-1.36,0-2.73.06-4.09,0-.64-.12-.72-.66-.4a1.7,1.7,0,0,1-1.32.24c-.67-.17-1.34-.29-2-.41a9,9,0,0,0-5.79.63,4.6,4.6,0,0,0-2.61,5,4.9,4.9,0,0,0,2.84,3.76c.91.45,1.84.85,2.75,1.29a5.91,5.91,0,0,1,2.15,1.65,2.21,2.21,0,0,1,.16,2.37,2.3,2.3,0,0,1-3.38.88,5.88,5.88,0,0,1-2-1.88c-.58-.86-1.08-1.77-1.63-2.65a2,2,0,0,0-.43-.37,1.76,1.76,0,0,0-.2.52c0,.84,0,1.67,0,2.51,0,.6,0,1.2,0,1.8s-.28.6-.67.32a2.16,2.16,0,0,1-1-1.75c0-.7,0-1.4,0-2.1,0-2.23,0-4.45,0-6.68a5.49,5.49,0,0,0-4.23-5.23,7.28,7.28,0,0,0-7.17,2.44l-.37.36c0-.23-.05-.36-.05-.49,0-.56,0-1.13,0-1.69s0-.63-.61-.6c-1.21.07-2.42.11-3.63.2s-2.22.18-3.33.3c-.14,0-.28.17-.41.25l.31.33c.22.22.56.4.66.67a5.4,5.4,0,0,1,.46,1.8q.06,5.25,0,10.51a2.37,2.37,0,0,1-1.28,2.26l-.21.08.08.11a1.15,1.15,0,0,0,.24.05h9.34a1.19,1.19,0,0,0,.34-.11v-.11l-.45-.22a2.18,2.18,0,0,1-1.5-2.09q0-4.26,0-8.52a2.69,2.69,0,0,1,2.31-2.73,2.32,2.32,0,0,1,2.94,2.16,7.51,7.51,0,0,1,.05.86q0,4,0,7.92c0,.17,0,.35,0,.52a2.13,2.13,0,0,1-1.4,1.92A3.53,3.53,0,0,0,184.73,150.61ZM96.34,124.79v.16l.46.14a16.18,16.18,0,0,1,1.64.48,1.08,1.08,0,0,1,.68,1.14c0,.42,0,.85,0,1.27q0,3.39,0,6.79a3.92,3.92,0,0,1-.06.47c-.22-.11-.37-.2-.52-.27a9.16,9.16,0,0,0-8.11.14,8.18,8.18,0,0,0,1.74,15.4,14.4,14.4,0,0,0,3.43.3h11.74a2.33,2.33,0,0,0,.43-.09c-.06-.09-.07-.13-.1-.15l-.4-.2a2.57,2.57,0,0,1-1.63-2.57c0-7.43,0-14.86,0-22.28,0-.34,0-.68,0-1s-.12-.54-.58-.51l-2.17.18-6.09.51A2.74,2.74,0,0,0,96.34,124.79Zm112-11.05c0-.06,0-.09,0-.1l-.18,0a14.64,14.64,0,0,1-6.15-2.11c-1.56-1-3.06-2-4.59-3a10.94,10.94,0,0,0-10.77-1.1,18.26,18.26,0,0,0-4.12,2.65c-1.53,1.17-3.09,2.29-4.63,3.43l-.39.26c.89.62,1.76,1.2,2.6,1.83,1.52,1.14,3,2.34,4.54,3.45a11.3,11.3,0,0,0,6.37,2,10.29,10.29,0,0,0,5.88-1.71c1.34-.84,2.64-1.76,4-2.64a15.93,15.93,0,0,1,7.23-2.8A1.66,1.66,0,0,0,208.36,113.74Zm-44.77,19.72a11.78,11.78,0,0,0-7.1,2.19,8.33,8.33,0,0,0-3.58,5.6,8.09,8.09,0,0,0,3.55,8,11.31,11.31,0,0,0,7.44,2.2,11.18,11.18,0,0,0,7.31-2.88,8,8,0,0,0,.17-12.08A11.35,11.35,0,0,0,163.59,133.46Zm-21.95-20.82,0,.11h11.54a18.42,18.42,0,0,0,2.13-.11,10.16,10.16,0,0,0,5.49-2.28c3.44-2.91,6.85-5.84,10.26-8.77a2.5,2.5,0,0,0,.23-.27c-.13,0-.17,0-.2,0s-.17.11-.26.15a18.29,18.29,0,0,1-2.2.91,14.31,14.31,0,0,1-5.4.13c-1.4-.15-2.8-.34-4.21-.42a14,14,0,0,0-5.84.9,12.71,12.71,0,0,0-4.54,3.23c-1.51,1.55-3,3.12-4.51,4.66A5.22,5.22,0,0,1,141.64,112.64Zm-38.43,0,0,.1h11.54a18.32,18.32,0,0,0,2.13-.11,10,10,0,0,0,5.37-2.19c3.48-2.93,6.92-5.9,10.38-8.86a1.44,1.44,0,0,0,.18-.22.33.33,0,0,0-.29,0,8,8,0,0,1-3.84,1.25,22.34,22.34,0,0,1-5.11-.29,19.58,19.58,0,0,0-6.78,0,10.41,10.41,0,0,0-5.16,2.51c-1.71,1.63-3.32,3.36-5,5C105.61,111,104.73,112.21,103.21,112.66Zm57.66,0v.1l.35,0c3.9,0,7.8,0,11.7,0a13.35,13.35,0,0,0,2.31-.2,11,11,0,0,0,5.34-2.62c3.22-2.79,6.47-5.54,9.71-8.31a1.7,1.7,0,0,0,.2-.25.33.33,0,0,0-.29,0,8,8,0,0,1-3.87,1.26,23.06,23.06,0,0,1-5.11-.29,22.68,22.68,0,0,0-5.3-.19,11.84,11.84,0,0,0-7.55,3.58c-1.57,1.63-3.14,3.25-4.73,4.86A6,6,0,0,1,160.88,112.64Zm-8.82-11.26-.06-.08a1.16,1.16,0,0,0-.25.1,7.74,7.74,0,0,1-4.73,1.28c-1.78-.06-3.56-.27-5.33-.46a18.12,18.12,0,0,0-5.34.11,11.14,11.14,0,0,0-6,3c-1.31,1.31-2.58,2.65-3.89,3.95s-2.27,2.74-4,3.44h11.49a19.13,19.13,0,0,0,2.13-.1,10.34,10.34,0,0,0,5.68-2.39l10.09-8.62A2.63,2.63,0,0,0,152.06,101.38ZM190.43,126l.08-.11-.31-.29-5.44-4.66c-1.61-1.37-3.18-2.78-4.82-4.11a10.69,10.69,0,0,0-6.87-2.27c-3.9,0-7.8,0-11.71,0h-.58a11.21,11.21,0,0,1,1.3.67,7.73,7.73,0,0,1,1.06,1c1.59,1.62,3.17,3.26,4.76,4.88a13.65,13.65,0,0,0,3.32,2.66,15.64,15.64,0,0,0,9.45,1.3,49.32,49.32,0,0,1,5.15-.39,7.44,7.44,0,0,1,4.33,1.24A2.44,2.44,0,0,0,190.43,126Zm-19.2,0,.06-.09a2,2,0,0,0-.2-.23L161,117.08a10.29,10.29,0,0,0-6.67-2.5c-4.15-.08-8.3,0-12.45,0a1.52,1.52,0,0,0-.23,0,7,7,0,0,1,2.85,2.19c1.4,1.41,2.75,2.87,4.15,4.28a13.85,13.85,0,0,0,3.32,2.66,15.64,15.64,0,0,0,9.45,1.31,49.69,49.69,0,0,1,5.15-.4,7.4,7.4,0,0,1,4.33,1.23A2.09,2.09,0,0,0,171.23,126ZM152,126l.09-.11a3.39,3.39,0,0,0-.24-.25c-3.18-2.72-6.39-5.41-9.54-8.17a11,11,0,0,0-7.29-2.89c-4.15-.06-8.3,0-12.46,0,0,0-.08,0-.23.1a4.24,4.24,0,0,1,2.24,1.39l5.54,5.65a11.14,11.14,0,0,0,4,2.65,16.85,16.85,0,0,0,8.09.71c1.7-.19,3.4-.36,5.11-.41a7.59,7.59,0,0,1,3.9.92C151.45,125.68,151.71,125.85,152,126Zm-48.73-11.46,0,.12a4.86,4.86,0,0,1,2.4,1.65c1.62,1.65,3.22,3.32,4.84,5a12.46,12.46,0,0,0,3.68,2.73,16.21,16.21,0,0,0,8.85,1c1.7-.2,3.4-.37,5.11-.4a7.5,7.5,0,0,1,4.38,1.22,2.89,2.89,0,0,0,.3.16l.07-.09a2.5,2.5,0,0,0-.23-.25c-3.19-2.73-6.41-5.43-9.56-8.2a11.23,11.23,0,0,0-7.55-2.89c-3.83,0-7.65,0-11.48,0Zm15.34,26.71H124c.44,0,.5-.08.42-.51a8.14,8.14,0,0,0-1.88-3.83,9.4,9.4,0,0,0-11.88-1.67,8.27,8.27,0,0,0-4.15,8.24,8.84,8.84,0,0,0,8.39,7.84,10,10,0,0,0,7.46-2.86A5.39,5.39,0,0,0,124,146a2.18,2.18,0,0,0,0-.59,2,2,0,0,0-.5.37,6.88,6.88,0,0,1-2.27,2.1c-2.7,1.5-7.18.79-8.07-3.6-.17-.87-.21-1.76-.31-2.64,0-.33.08-.42.41-.42C115,141.26,116.8,141.25,118.58,141.25Zm-25.17-26.7h5.36c.5,0,.57-.09.46-.58a8.3,8.3,0,0,0-1.55-3.38,9.43,9.43,0,0,0-12.57-1.84,8.54,8.54,0,0,0-1.9,12.54,9.19,9.19,0,0,0,11,2.43A9.37,9.37,0,0,0,98,120.84a10.52,10.52,0,0,0,.9-1.79c0-.08,0-.2,0-.31a.9.9,0,0,0-.32.11,2.39,2.39,0,0,0-.29.39A5.9,5.9,0,0,1,93,121.89a5,5,0,0,1-4.91-4c-.22-.94-.25-1.93-.38-2.89,0-.34.06-.43.4-.43C89.86,114.56,91.63,114.55,93.41,114.55Zm40.3,36.06c-.2-.1-.36-.19-.54-.26a2.2,2.2,0,0,1-1.47-2.15q0-3.45,0-6.9a2.65,2.65,0,0,1,.86-2.15,2.9,2.9,0,0,1,3.7-.17c.44.32.84.71,1.27,1.05s.43.18.51-.19c.31-1.57.61-3.14.92-4.71.06-.31,0-.54-.3-.64a18.94,18.94,0,0,0-2.13-.69,2,2,0,0,0-1.6.39,5.46,5.46,0,0,0-1.07,1c-.61.79-1.16,1.63-1.74,2.44-.09.12-.2.22-.37.42,0-.28-.06-.43-.06-.59,0-.89,0-1.78,0-2.66,0-.52-.05-.57-.55-.55-1.62.09-3.25.18-4.87.29-.74,0-1.47.13-2.2.22-.13,0-.24.15-.35.23.08.11.15.28.26.32a1.27,1.27,0,0,1,.82.91,7.35,7.35,0,0,1,.36,1.83q.05,5,0,10.09a2.54,2.54,0,0,1-1.34,2.47s-.07.08-.1.14A85.25,85.25,0,0,0,133.71,150.61Zm5.77-2.69h0c0,.84,0,1.68,0,2.51,0,.15,0,.36.14.42s.31,0,.43-.1a2.13,2.13,0,0,1,1.68-.35c1,.21,2,.48,3,.66a6.94,6.94,0,0,0,4.77-.63,5,5,0,0,0,2.69-3,7.58,7.58,0,0,0,.11-2.94,4.6,4.6,0,0,0-2.51-3.65c-.68-.37-1.41-.65-2.1-1a23.06,23.06,0,0,1-2.74-1.53,1.59,1.59,0,0,1,.45-2.89,3.26,3.26,0,0,1,3.34.59,8.14,8.14,0,0,1,2,2.46c.12.21.21.43.35.62a.41.41,0,0,0,.3.16c.06,0,.13-.15.17-.24a.71.71,0,0,0,0-.26c0-1.34,0-2.68,0-4,0-.6-.14-.69-.66-.38a1.78,1.78,0,0,1-1.47.21c-.63-.17-1.27-.27-1.91-.39a9.17,9.17,0,0,0-5.62.57,4.75,4.75,0,0,0-.73,8.28,23.91,23.91,0,0,0,2.9,1.48,7.5,7.5,0,0,1,2.81,2,2.31,2.31,0,0,1-2.17,3.64,4,4,0,0,1-2.24-1.34,14.83,14.83,0,0,1-2.18-3.22A3.92,3.92,0,0,0,140,145c-.06-.08-.21-.18-.27-.15a.52.52,0,0,0-.2.28,1,1,0,0,0,0,.33C139.48,146.27,139.48,147.1,139.48,147.92Z"/><path d="M82.53,123.88a2.39,2.39,0,0,1-.31,0H72.57a.7.7,0,0,1-.19,0,1,1,0,0,1-.19-.1.67.67,0,0,1,.12-.21,1.23,1.23,0,0,1,.27-.12,2.1,2.1,0,0,0,1.34-2.07c0-2.89,0-5.78,0-8.67,0-.07,0-.15,0-.22a2.31,2.31,0,0,0-2.48-2.43,2.73,2.73,0,0,0-2.79,2.66c0,2.85,0,5.7,0,8.55a2.22,2.22,0,0,0,1.5,2.17c.16.07.32.16.48.23v.12a2.19,2.19,0,0,1-.4.07H60.61a2.31,2.31,0,0,1-.4-.07v-.11c.1,0,.2-.11.31-.14a2.29,2.29,0,0,0,1.61-2.28c0-.88,0-1.75,0-2.63q0-6.32,0-12.64c0-1.09,0-2.18,0-3.26a1.15,1.15,0,0,0-.82-1.21,5,5,0,0,0-1.35-.29c-.93-.05-1.87,0-2.81,0-.35,0-.4.2-.4.49,0,2.19,0,4.38,0,6.57,0,4.24,0,8.48,0,12.72A2.08,2.08,0,0,0,57.79,123c.38.23.8.41,1.2.62.12.06.23.14.35.22l0,.1H47.38l0-.09.36-.24a16.62,16.62,0,0,0,1.44-.93,1.74,1.74,0,0,0,.62-1.43q0-9.72,0-19.43c0-.3-.11-.52-.42-.51a22.16,22.16,0,0,0-3.06.2,4,4,0,0,0-2.89,2.31c-.19.37-.37.74-.55,1.12l-.12,0a1.48,1.48,0,0,1-.07-.33c.05-1.61.1-3.22.17-4.83,0-.45.15-.52.6-.47.72.07,1.44.16,2.16.17,3,0,6,0,9,0,4.39-.09,8.77-.22,13.16-.35.87,0,.87,0,.87.83q0,4.9,0,9.79c0,.14,0,.29,0,.54l.42-.42a7.24,7.24,0,0,1,7.11-2.4,5.47,5.47,0,0,1,4.25,5.36c0,2.49,0,5,0,7.47,0,.3,0,.6,0,.9a2.32,2.32,0,0,0,1.4,2.32l.67.35Z" style="fill:#fff"/><path d="M73.4,136.94l.45-.49a7.31,7.31,0,0,1,6.48-2.34,5.48,5.48,0,0,1,4.74,5.49c0,2.31,0,4.63,0,6.94,0,.48,0,1,0,1.43a2.33,2.33,0,0,0,1.4,2.29l.68.35v.1a1.49,1.49,0,0,1-.36.09H77.11c-.1,0-.2-.09-.31-.13.08-.08.15-.2.25-.24a2.25,2.25,0,0,0,1.49-2.35c0-2.74,0-5.48,0-8.22,0-.19,0-.38,0-.56a2.39,2.39,0,0,0-3.28-2.19,2.55,2.55,0,0,0-2,2.5c0,2.88,0,5.75,0,8.63a2.19,2.19,0,0,0,1.5,2.13c.17.07.34.16.51.24l0,.12a2.26,2.26,0,0,1-.4.07H55.13a4.54,4.54,0,0,1-.61-.08v-.14l.33-.11a7.59,7.59,0,0,0,.91-.35,1.64,1.64,0,0,0,.86-2.23c-.57-1.62-1.14-3.23-1.69-4.85a.49.49,0,0,0-.56-.4q-3,0-6.08,0a.47.47,0,0,0-.54.38c-.44,1.3-.91,2.6-1.35,3.9a4.24,4.24,0,0,0-.19.76,2.32,2.32,0,0,0,1.73,2.77l.55.2a37.19,37.19,0,0,1-6.9,0c.06,0,.1-.11.17-.13A3.61,3.61,0,0,0,44,147.95c1.32-3.82,2.6-7.64,3.91-11.46,1.07-3.11,2.16-6.21,3.24-9.32.21-.61.22-.61.88-.61,1.31,0,2.63,0,3.94,0,.44,0,.61.21.75.58q2.58,7.22,5.18,14.44c.76,2.13,1.5,4.27,2.26,6.4a3.07,3.07,0,0,0,1,1.48c.75.57,1.43.29,1.55-.63a7,7,0,0,0,0-.9c0-3.26,0-6.53,0-9.79a8.18,8.18,0,0,0-.38-2,1.21,1.21,0,0,0-.75-.84c-.13,0-.21-.21-.31-.32.14-.09.27-.23.42-.25.73-.09,1.47-.16,2.2-.21,1.6-.1,3.2-.19,4.79-.28.53,0,.57,0,.57.56s0,1.1,0,1.65a4.26,4.26,0,0,0,.05.46Zm-24.79,3.64H54l-2.68-7.46H51.2Z" style="fill:#fff"/><path d="M184.73,150.61a3.53,3.53,0,0,1,.37-.21,2.13,2.13,0,0,0,1.4-1.92c0-.17,0-.35,0-.52q0-4,0-7.92a7.51,7.51,0,0,0-.05-.86,2.32,2.32,0,0,0-2.94-2.16,2.69,2.69,0,0,0-2.31,2.73q0,4.26,0,8.52a2.18,2.18,0,0,0,1.5,2.09l.45.22v.11a1.19,1.19,0,0,1-.34.11h-9.34a1.15,1.15,0,0,1-.24-.05l-.08-.11.21-.08a2.37,2.37,0,0,0,1.28-2.26q.06-5.25,0-10.51a5.4,5.4,0,0,0-.46-1.8c-.1-.27-.44-.45-.66-.67l-.31-.33c.14-.09.27-.24.41-.25,1.11-.11,2.22-.22,3.33-.3s2.42-.13,3.63-.2c.57,0,.61,0,.61.6s0,1.13,0,1.69c0,.13,0,.26.05.49l.37-.36a7.28,7.28,0,0,1,7.17-2.44,5.49,5.49,0,0,1,4.23,5.23c0,2.23,0,4.45,0,6.68,0,.7,0,1.4,0,2.1a2.16,2.16,0,0,0,1,1.75c.39.28.65.16.67-.32s0-1.2,0-1.8c0-.84,0-1.68,0-2.51a1.76,1.76,0,0,1,.2-.52,2,2,0,0,1,.43.37c.55.88,1.06,1.79,1.63,2.65a5.88,5.88,0,0,0,2,1.88,2.3,2.3,0,0,0,3.38-.88,2.21,2.21,0,0,0-.16-2.37,5.91,5.91,0,0,0-2.15-1.65c-.91-.44-1.84-.84-2.75-1.29a4.9,4.9,0,0,1-2.84-3.76,4.6,4.6,0,0,1,2.61-5,9,9,0,0,1,5.79-.63c.68.13,1.35.25,2,.41a1.7,1.7,0,0,0,1.32-.24c.55-.31.67-.23.66.4,0,1.36,0,2.73-.06,4.09a1.24,1.24,0,0,1-.18.41c-.12-.1-.3-.17-.37-.3a9.77,9.77,0,0,0-2.07-2.79,3.33,3.33,0,0,0-3.54-.76,1.59,1.59,0,0,0-.46,2.89,18.81,18.81,0,0,0,2.5,1.42c.74.38,1.53.68,2.27,1.07a4.65,4.65,0,0,1,2.6,3.83,7.74,7.74,0,0,1-.11,2.76,5,5,0,0,1-2.66,3.05,6.92,6.92,0,0,1-4.81.65c-.87-.15-1.73-.38-2.59-.6a2.66,2.66,0,0,0-1.72.08,3.76,3.76,0,0,1-1.31.26c-3,0-6.08,0-9.12,0a3.93,3.93,0,0,1-.45-.05Z" style="fill:#fff"/><path d="M96.34,124.79a2.74,2.74,0,0,1,.47-.12l6.09-.51,2.17-.18c.46,0,.56.05.58.51s0,.67,0,1c0,7.43,0,14.86,0,22.28a2.57,2.57,0,0,0,1.63,2.57l.4.2s0,.06.1.15a2.33,2.33,0,0,1-.43.09H95.59a14.4,14.4,0,0,1-3.43-.3,8.18,8.18,0,0,1-1.74-15.4,9.16,9.16,0,0,1,8.11-.14c.16.07.31.16.52.27a3.92,3.92,0,0,0,.06-.47q0-3.39,0-6.79c0-.42,0-.85,0-1.27a1.08,1.08,0,0,0-.68-1.14,16.18,16.18,0,0,0-1.64-.48l-.46-.14Zm2.78,18.41c0-1.66,0-3.33,0-5a2,2,0,0,0-.47-1.31,3.24,3.24,0,0,0-5.68.8,10.32,10.32,0,0,0-.7,4.37,10.58,10.58,0,0,0,1.54,5.45,4.37,4.37,0,0,0,3.48,2.13A1.49,1.49,0,0,0,99.11,148Q99.11,145.58,99.11,143.2Z" style="fill:#fff"/><path d="M208.36,113.74a1.66,1.66,0,0,1-.3.09,15.93,15.93,0,0,0-7.23,2.8c-1.31.89-2.61,1.8-4,2.64A10.29,10.29,0,0,1,191,121a11.3,11.3,0,0,1-6.37-2c-1.54-1.1-3-2.31-4.54-3.45-.84-.63-1.71-1.21-2.6-1.83l.39-.26c1.55-1.14,3.11-2.27,4.63-3.43a18.26,18.26,0,0,1,4.12-2.65,10.94,10.94,0,0,1,10.77,1.1c1.53,1,3,2.08,4.59,3a14.64,14.64,0,0,0,6.15,2.11l.18,0S208.34,113.68,208.36,113.74Z" style="fill:#edb216"/><path d="M163.59,133.46a11.35,11.35,0,0,1,7.79,3.06,8,8,0,0,1-.17,12.08,11.18,11.18,0,0,1-7.31,2.88,11.31,11.31,0,0,1-7.44-2.2,8.09,8.09,0,0,1-3.55-8,8.33,8.33,0,0,1,3.58-5.6A11.78,11.78,0,0,1,163.59,133.46Zm-4.15,8.9a12.06,12.06,0,0,0,.66,4.1,5.86,5.86,0,0,0,1.69,2.62,2.34,2.34,0,0,0,3.32-.07,5.72,5.72,0,0,0,1.25-1.71,11.57,11.57,0,0,0,.11-9.43,4.81,4.81,0,0,0-1.52-2.06,2.31,2.31,0,0,0-3.07,0,5.18,5.18,0,0,0-1.08,1.23A10.15,10.15,0,0,0,159.44,142.36Z" style="fill:#fff"/><path d="M141.64,112.64a5.22,5.22,0,0,0,2.51-1.75c1.52-1.54,3-3.11,4.51-4.66a12.71,12.71,0,0,1,4.54-3.23,14,14,0,0,1,5.84-.9c1.41.08,2.81.27,4.21.42a14.31,14.31,0,0,0,5.4-.13,18.29,18.29,0,0,0,2.2-.91c.09,0,.17-.1.26-.15s.07,0,.2,0a2.5,2.5,0,0,1-.23.27c-3.42,2.93-6.83,5.86-10.26,8.77a10.16,10.16,0,0,1-5.49,2.28,18.42,18.42,0,0,1-2.13.11H141.67Z" style="fill:#edb216"/><path d="M103.21,112.74c1.54-.46,2.44-1.73,3.5-2.77,1.71-1.68,3.34-3.44,5.08-5.09a10.57,10.57,0,0,1,5.24-2.55,19.88,19.88,0,0,1,6.89,0,22.69,22.69,0,0,0,5.19.29,8.12,8.12,0,0,0,3.9-1.27.34.34,0,0,1,.29,0,1.46,1.46,0,0,1-.18.23c-3.51,3-7,6-10.54,9a10.15,10.15,0,0,1-5.45,2.23,18.61,18.61,0,0,1-2.16.11H103.24Z" style="fill:#edb216"/><path d="M160.88,112.64a6,6,0,0,0,2.77-2c1.59-1.61,3.16-3.23,4.73-4.86a11.84,11.84,0,0,1,7.55-3.58,22.68,22.68,0,0,1,5.3.19,23.06,23.06,0,0,0,5.11.29,8,8,0,0,0,3.87-1.26.33.33,0,0,1,.29,0,1.7,1.7,0,0,1-.2.25c-3.24,2.77-6.49,5.52-9.71,8.31a11,11,0,0,1-5.34,2.62,13.35,13.35,0,0,1-2.31.2c-3.9,0-7.8,0-11.7,0l-.35,0Z" style="fill:#edb216"/><path d="M152.81,101.29a2.67,2.67,0,0,1-.23.26l-10.25,8.75a10.5,10.5,0,0,1-5.76,2.43,19.43,19.43,0,0,1-2.16.1H122.74c1.78-.71,2.82-2.24,4.08-3.49s2.63-2.68,4-4a11.31,11.31,0,0,1,6.08-3.08,18.4,18.4,0,0,1,5.42-.12c1.8.19,3.61.4,5.41.46a7.86,7.86,0,0,0,4.81-1.29,1.17,1.17,0,0,1,.26-.1Z" style="fill:#edb216"/><path d="M190.43,126a2.44,2.44,0,0,1-.28-.14,7.44,7.44,0,0,0-4.33-1.24,49.32,49.32,0,0,0-5.15.39,15.64,15.64,0,0,1-9.45-1.3,13.65,13.65,0,0,1-3.32-2.66c-1.59-1.62-3.17-3.26-4.76-4.88a7.73,7.73,0,0,0-1.06-1,11.21,11.21,0,0,0-1.3-.67h.58c3.9,0,7.8,0,11.71,0a10.69,10.69,0,0,1,6.87,2.27c1.64,1.33,3.22,2.73,4.82,4.11l5.44,4.66.31.29Z" style="fill:#edb216"/><path d="M171.23,126a2.09,2.09,0,0,1-.31-.14,7.4,7.4,0,0,0-4.33-1.23,49.69,49.69,0,0,0-5.15.4,15.64,15.64,0,0,1-9.45-1.31,13.85,13.85,0,0,1-3.32-2.66c-1.4-1.41-2.75-2.87-4.15-4.28a7,7,0,0,0-2.85-2.19,1.52,1.52,0,0,1,.23,0c4.15,0,8.3,0,12.45,0a10.29,10.29,0,0,1,6.67,2.5l10.06,8.59a2,2,0,0,1,.2.23Z" style="fill:#edb216"/><path d="M152,126c-.26-.15-.52-.32-.79-.46a7.59,7.59,0,0,0-3.9-.92c-1.71,0-3.41.21-5.11.41a16.85,16.85,0,0,1-8.09-.71,11.14,11.14,0,0,1-4-2.65L124.55,116a4.24,4.24,0,0,0-2.24-1.39c.15-.06.19-.1.23-.1,4.15,0,8.31,0,12.46,0a11,11,0,0,1,7.29,2.89c3.14,2.77,6.35,5.45,9.54,8.17a3.39,3.39,0,0,1,.24.25Z" style="fill:#edb216"/><path d="M103.24,114.54H104c3.83,0,7.65,0,11.48,0a11.23,11.23,0,0,1,7.55,2.89c3.15,2.77,6.37,5.47,9.56,8.2a2.5,2.5,0,0,1,.23.25l-.07.09a2.89,2.89,0,0,1-.3-.16,7.5,7.5,0,0,0-4.38-1.22c-1.71,0-3.41.2-5.11.4a16.21,16.21,0,0,1-8.85-1,12.46,12.46,0,0,1-3.68-2.73c-1.62-1.65-3.22-3.32-4.84-5a4.86,4.86,0,0,0-2.4-1.65Z" style="fill:#edb216"/><path d="M118.58,141.25c-1.78,0-3.55,0-5.33,0-.33,0-.45.09-.41.42.11.88.14,1.77.31,2.64.88,4.39,5.37,5.1,8.07,3.6a6.88,6.88,0,0,0,2.27-2.1,2,2,0,0,1,.5-.37,2.18,2.18,0,0,1,0,.59,5.39,5.39,0,0,1-1.63,2.43,10,10,0,0,1-7.46,2.86,8.84,8.84,0,0,1-8.39-7.84,8.27,8.27,0,0,1,4.15-8.24,9.4,9.4,0,0,1,11.88,1.67,8.14,8.14,0,0,1,1.88,3.83c.09.43,0,.51-.42.51Zm-3-1.24h2.47c.18,0,.32,0,.32-.25a5.68,5.68,0,0,0-.94-3.41,2.12,2.12,0,0,0-3.68,0,5.56,5.56,0,0,0-1,3.4c0,.24.11.29.33.29Z" style="fill:#fff"/><path d="M93.41,114.55c-1.78,0-3.55,0-5.33,0-.34,0-.44.09-.4.43.13,1,.16,2,.38,2.89a5,5,0,0,0,4.91,4,5.9,5.9,0,0,0,5.25-2.65,2.39,2.39,0,0,1,.29-.39.9.9,0,0,1,.32-.11c0,.1.08.23,0,.31a10.52,10.52,0,0,1-.9,1.79,9.37,9.37,0,0,1-3.73,2.89,9.19,9.19,0,0,1-11-2.43,8.54,8.54,0,0,1,1.9-12.54,9.43,9.43,0,0,1,12.57,1.84A8.3,8.3,0,0,1,99.24,114c.11.49,0,.58-.46.58Zm-2.94-1.24h2.48c.22,0,.32-.06.31-.29a6.49,6.49,0,0,0-.56-2.73,3,3,0,0,0-1.35-1.51,2.07,2.07,0,0,0-2.67.78,5.48,5.48,0,0,0-1,3.5c0,.24.15.25.32.25Z" style="fill:#fff"/><path d="M133.71,150.61a85.25,85.25,0,0,1-10,.12c0-.05.06-.11.1-.14a2.54,2.54,0,0,0,1.34-2.47q0-5,0-10.09a7.35,7.35,0,0,0-.36-1.83,1.27,1.27,0,0,0-.82-.91c-.11,0-.17-.21-.26-.32.12-.08.23-.21.35-.23.73-.09,1.47-.17,2.2-.22,1.62-.11,3.24-.2,4.87-.29.5,0,.55,0,.55.55,0,.89,0,1.78,0,2.66,0,.16,0,.31.06.59.18-.2.29-.3.37-.42.58-.82,1.13-1.65,1.74-2.44a5.46,5.46,0,0,1,1.07-1,2,2,0,0,1,1.6-.39,18.94,18.94,0,0,1,2.13.69c.28.1.36.33.3.64-.32,1.57-.61,3.14-.92,4.71-.07.37-.21.43-.51.19s-.82-.73-1.27-1.05a2.9,2.9,0,0,0-3.7.17,2.65,2.65,0,0,0-.86,2.15q0,3.45,0,6.9a2.2,2.2,0,0,0,1.47,2.15C133.35,150.42,133.51,150.51,133.71,150.61Z" style="fill:#fff"/><path d="M139.48,147.92c0-.83,0-1.65,0-2.48a1,1,0,0,1,0-.33.52.52,0,0,1,.2-.28c.05,0,.21.07.27.15a3.92,3.92,0,0,1,.34.54,14.83,14.83,0,0,0,2.18,3.22,4,4,0,0,0,2.24,1.34,2.31,2.31,0,0,0,2.17-3.64,7.5,7.5,0,0,0-2.81-2,23.91,23.91,0,0,1-2.9-1.48,4.75,4.75,0,0,1,.73-8.28,9.17,9.17,0,0,1,5.62-.57c.64.12,1.28.22,1.91.39a1.78,1.78,0,0,0,1.47-.21c.52-.31.67-.22.66.38,0,1.34,0,2.68,0,4a.71.71,0,0,1,0,.26c0,.09-.11.24-.17.24a.41.41,0,0,1-.3-.16c-.14-.19-.23-.42-.35-.62a8.14,8.14,0,0,0-2-2.46,3.26,3.26,0,0,0-3.34-.59,1.59,1.59,0,0,0-.45,2.89,23.06,23.06,0,0,0,2.74,1.53c.69.36,1.41.64,2.1,1a4.6,4.6,0,0,1,2.51,3.65,7.58,7.58,0,0,1-.11,2.94,5,5,0,0,1-2.69,3,6.94,6.94,0,0,1-4.77.63c-1-.17-2-.44-3-.66a2.13,2.13,0,0,0-1.68.35c-.12.08-.34.15-.43.1s-.13-.27-.14-.42c0-.84,0-1.68,0-2.51Z" style="fill:#fff"/><path d="M48.61,140.58l2.59-7.45h.09L54,140.58Z"/><path d="M99.11,143.2q0,2.38,0,4.76a1.49,1.49,0,0,1-1.83,1.68,4.37,4.37,0,0,1-3.48-2.13,10.58,10.58,0,0,1-1.54-5.45,10.32,10.32,0,0,1,.7-4.37,3.24,3.24,0,0,1,5.68-.8,2,2,0,0,1,.47,1.31C99.11,139.87,99.11,141.53,99.11,143.2Z"/><path d="M159.44,142.36a10.15,10.15,0,0,1,1.37-5.3,5.18,5.18,0,0,1,1.08-1.23,2.31,2.31,0,0,1,3.07,0,4.81,4.81,0,0,1,1.52,2.06,11.57,11.57,0,0,1-.11,9.43,5.72,5.72,0,0,1-1.25,1.71,2.34,2.34,0,0,1-3.32.07,5.86,5.86,0,0,1-1.69-2.62A12.06,12.06,0,0,1,159.44,142.36Z"/><path d="M115.61,140h-2.47c-.21,0-.33,0-.33-.29a5.56,5.56,0,0,1,1-3.4,2.12,2.12,0,0,1,3.68,0,5.68,5.68,0,0,1,.94,3.41c0,.24-.14.25-.32.25Z"/><path d="M90.47,113.31H88c-.18,0-.32,0-.32-.25a5.48,5.48,0,0,1,1-3.5,2.07,2.07,0,0,1,2.67-.78,3,3,0,0,1,1.35,1.51,6.49,6.49,0,0,1,.56,2.73c0,.24-.09.29-.31.29Z"/></svg>