<svg xmlns="http://www.w3.org/2000/svg" viewBox="0 0 250 250"><title>Grocery</title><path d="M122.38,95.94c-.52-.09-1.05,0-1.59-.08s-.71-.27-.32-.76a5.28,5.28,0,0,0,.42-.75c-.5,0-.47.46-.74.57a1.78,1.78,0,0,1,1.5-2.22,13.57,13.57,0,0,1,2.32-.15c.39,0,.85.09,1.09-.38h.18a5.72,5.72,0,0,1-2.43,3.43c-.16.11-.43.08-.45.36ZM121,94.29l.92-.54C121.5,93.68,121.14,93.76,121,94.29Z" style="fill:#7ba444"/><path d="M46.76,124.27c2,0,4,0,6,0,.56,0,.82.09.77.73a21.83,21.83,0,0,0,0,2.34c0,.39-.12.56-.52.51h-.18c-.67.07-1.59-.32-1.93.18s.26,1.21.46,1.84c1.14,3.63,2.31,7.25,3.42,10.89a1.05,1.05,0,0,0,1.24.91c1.56-.06,1.56,0,1.56,1.51,0,2,0,2-2,2-2.52,0-5,0-7.56,0-.61,0-.8-.18-.72-.75a6.66,6.66,0,0,0,0-.72c0-.66-.2-1.5.12-1.92s1.23-.14,1.88-.15c.46,0,.66-.08.49-.61-.26-.8-.46-1.61-.67-2.43a.59.59,0,0,0-.67-.53c-1.44,0-2.88,0-4.32,0a.64.64,0,0,0-.74.57c-.22.81-.45,1.62-.74,2.4-.21.55,0,.59.47.59.68,0,1.6-.3,2,.13s.09,1.37.13,2.09c0,.21,0,.42,0,.63.09.56-.13.7-.69.7q-3.92,0-7.83,0c-.61,0-.81-.18-.72-.76a3.24,3.24,0,0,0,0-.45c0-.72-.25-1.6.08-2.11s1.32-.17,2-.21a.58.58,0,0,0,.62-.49q1.86-6.39,3.75-12.76c.13-.43,0-.62-.44-.56h-.18c-2,0-2,0-2-2.08,0-1.48,0-1.48,1.44-1.48Zm-.32,4.5c-.61,2-1.15,3.84-1.7,5.64-.12.4-.1.61.41.59.84,0,1.68,0,2.52,0,.32,0,.5,0,.38-.45C47.51,132.7,47,130.86,46.44,128.77Z" style="fill:#242122"/><path d="M87.22,132.17c0-1.46,0-2.74,0-4,0-.51-.26-.49-.62-.5-1.68-.05-1.68-.06-1.68-1.77s0-1.62,1.57-1.62,3,0,4.5,0c.71,0,.9.17.89.89,0,5.25,0,10.5,0,15.75,0,.76.19,1,.94.93,1.45-.06,1.45,0,1.45,1.44,0,1.91,0,1.91-1.89,1.91-1.38,0-2.76,0-4.14,0-.81,0-1.16-.17-1-1a4.47,4.47,0,0,0,0-.65c-.36.29-.6.49-.85.68a5.5,5.5,0,0,1-7.55-.69,8.83,8.83,0,0,1-.33-11A5.67,5.67,0,0,1,87.22,132.17Zm0,5.6A5.23,5.23,0,0,0,87,136,2.89,2.89,0,0,0,84.43,134a2.55,2.55,0,0,0-2.55,1.78,5.54,5.54,0,0,0,.09,4.3,2.43,2.43,0,0,0,2.46,1.62,2.69,2.69,0,0,0,2.49-1.76A5.2,5.2,0,0,0,87.25,137.77Z" style="fill:#242122"/><path d="M128.3,130.66H130a2.92,2.92,0,0,0,2.31,0h.39c.42.4.94.08,1.4.22v1a9.87,9.87,0,0,1,3.34-1.42c2.79-.45,4.73.89,5.15,3.68a46.52,46.52,0,0,1,.14,6.83c0,.69.2.91.85.82.29,0,.6,0,.9,0s.49.14.45.48c0,0,0,.06,0,.09,0,.9.29,2-.14,2.62s-1.62.14-2.48.17c-1.14,0-2.28,0-3.42,0-.62,0-.81-.14-.8-.78,0-2.55,0-5.1,0-7.66a9.78,9.78,0,0,0,0-1.08c-.11-1-.55-1.38-1.55-1.32a4,4,0,0,0-.88.17c-1.41.42-1.53.58-1.52,2.05s0,3,0,4.5c0,.58.13.76.74.75,1.5,0,1.5,0,1.5,1.49,0,1.86,0,1.86-1.85,1.86-2.13,0-4.26,0-6.39,0-.74,0-.92-.22-.86-.9a10.34,10.34,0,0,0,0-1.8c0-.57.16-.7.71-.7,1.51,0,1.51,0,1.51-1.56,0-1.83,0-3.66,0-5.49,0-.58-.14-.77-.74-.76-1.48,0-1.48,0-1.48-1.49,0-.54,0-1.08,0-1.62C127.58,130.76,128,131,128.3,130.66Z" style="fill:#242122"/><path d="M61.28,141.71c0-2.23,0-4.47,0-6.7,0-.78-.14-1.17-1-1a5.2,5.2,0,0,1-1,0c0-.78,0-1.56,0-2.34,0-.55.18-.74.73-.73,1.29,0,2.58,0,3.87,0,.8,0,1.74-.27,2,.92a13.91,13.91,0,0,1,3.2-1.33c3-.51,5,.95,5.35,4a55.81,55.81,0,0,1,.09,6.48c0,.72.21,1,.9.87.26,0,.54,0,.81,0s.52.15.51.53c0,.78,0,1.56,0,2.34,0,.4-.15.51-.53.51-1.92,0-3.84,0-5.76,0-.63,0-.56-.34-.56-.73,0-2.61,0-5.22,0-7.83,0-2.43-1-2.67-3-1.91a1.35,1.35,0,0,0-1,1.55c.09,1.62.05,3.24,0,4.86,0,.56.15.71.71.71,1.53,0,1.53,0,1.53,1.55,0,1.8,0,1.81-1.82,1.8l-7,0c0-.77,0-1.54,0-2.31,0-.6.22-.74.78-.76C60.48,142,61.05,142.4,61.28,141.71Z" style="fill:#242122"/><path d="M180.9,145.5a7.62,7.62,0,1,1,7.59-7.66A7.26,7.26,0,0,1,180.9,145.5ZM178,138a5,5,0,0,0,.5,2.48,2.58,2.58,0,0,0,4.54.2,5.59,5.59,0,0,0,0-5.58,2.38,2.38,0,0,0-2.44-1.2,2.43,2.43,0,0,0-2.23,1.67A6.6,6.6,0,0,0,178,138Z" style="fill:#242122"/><path d="M109.7,137.92a7.62,7.62,0,1,1,7.66,7.58A7.25,7.25,0,0,1,109.7,137.92Zm4.76-.09a5.57,5.57,0,0,0,.48,2.53,2.62,2.62,0,0,0,4.73.07,6,6,0,0,0,0-5,2.47,2.47,0,0,0-2.53-1.52,2.44,2.44,0,0,0-2.38,1.84A6.5,6.5,0,0,0,114.46,137.83Z" style="fill:#242122"/><path d="M123.79,130.93c-4.05-2.31-8.19-2.34-12.56-.24a4,4,0,0,1,1.43-1.31,3.74,3.74,0,0,0,2-3.11,11.64,11.64,0,0,1,.78-2.67,11.2,11.2,0,0,0,.32-6.37,2.2,2.2,0,0,0-1.92-1.81c-1.45-.3-2.92-.33-4.38-.5-3.53-.42-5-1-7.94-3.45a4.09,4.09,0,0,1,2.06.6c2.73,1.3,5.58,1.23,8.47.87a6.72,6.72,0,0,1,2.06-.05c.44.08.65,0,.65-.51a8.78,8.78,0,0,1,2.51-6.08,6.15,6.15,0,0,0,1.51-3.87c0-.5,0-1,0-1.61a1.31,1.31,0,0,1,.86,1.09,5.18,5.18,0,0,1-.31,3.85c-.53,1-1.11,2-1.59,3a6.4,6.4,0,0,0-.62,4.19c.37.08.57-.19.82-.31a5.85,5.85,0,0,1,3.66-.61,22,22,0,0,0,5.29.19c1.6-.13,3-.94,4.44-1.39a4,4,0,0,1,.92-.24,11,11,0,0,1-5.89,3.19c-1.92.39-3.88.38-5.81.69a6.05,6.05,0,0,0-2.1.76c-.33.19-.37.37-.18.71a21,21,0,0,1,2.29,9.26,5.47,5.47,0,0,0,2.36,4.69c.36.24.83.48.85,1ZM119,119.28l.77,5.4A9.08,9.08,0,0,0,119,119.28Zm-2.44,2.78a12.59,12.59,0,0,1-.85,2.77c-.59,1.18-.7,2.13-.3,2.75C115.1,125.54,116.94,124.16,116.53,122.06Zm-1.08-11.59a5.15,5.15,0,0,0-.27,2.3c0,.22.16.34.37.29s.12-.24.07-.37C115.4,112,115.62,111.35,115.45,110.47Z" style="fill:#7b4b21"/><path d="M197.17,142.64c0-.66,0-1.32,0-2,0-.4.14-.54.52-.52s.9,0,1.35,0c.8,0,1.48-.15,1.93,1,.56,1.41,3.57,1.73,4.74.72a1,1,0,0,0-.3-1.78,11.94,11.94,0,0,0-2.79-.66,15.15,15.15,0,0,1-3.11-.89c-2.06-.89-3-2.32-2.87-4.19a4.46,4.46,0,0,1,3.73-3.76,9.19,9.19,0,0,1,4.45.25,1.68,1.68,0,0,0,1-.07,10.52,10.52,0,0,1,2.94-.1c.3,0,.25.29.25.49,0,1.08,0,2.16,0,3.24,0,.41-.16.51-.53.5-.78,0-1.56,0-2.34,0a.68.68,0,0,1-.64-.35,4.21,4.21,0,0,0-4.44-.92.9.9,0,0,0-.54.86.76.76,0,0,0,.69.72c1.2.27,2.41.49,3.61.76.67.15,1.34.31,2,.52a4.17,4.17,0,0,1,3.13,3.75,4.41,4.41,0,0,1-2.51,4.59,7.26,7.26,0,0,1-6.43,0c-.19-.09-.43-.38-.43.14,0,.06-.09.18-.14.18-1,0-2,0-3.06,0-.29,0-.19-.33-.2-.51C197.16,144,197.17,143.3,197.17,142.64Z" style="fill:#242122"/><path d="M171.2,136.51c-.33,0-.66,0-1,0a2.69,2.69,0,0,1-2.92-1.24,3.11,3.11,0,0,0-3.65-1,3.06,3.06,0,0,0-2.24,2.66,5.49,5.49,0,0,0,.17,2.67,3.2,3.2,0,0,0,4.27,2,4,4,0,0,0,2.05-1.54c.35-.53.65-.53,1.15-.27a15.87,15.87,0,0,0,2.14.94c.64.22.75.45.39,1.06a6.93,6.93,0,0,1-5,3.54,10.33,10.33,0,0,1-4.81-.29c-5.17-1.63-5.94-6.64-4.64-10.18,1.42-3.86,6.23-5.61,10.08-3.75.35.17.68.36,1,.55.22-.26.05-.55.15-.79.65,0,1.31,0,2,0s1,.14.93.88C171.16,133.36,171.2,134.93,171.2,136.51Z" style="fill:#242122"/><path d="M102.56,130.69c.4,1,0,2,.21,3,.31-.07.3-.4.42-.6a5.24,5.24,0,0,1,4.68-2.69c.42,0,.67,0,.65.57,0,1.11,0,2.22,0,3.33,0,.44-.15.53-.56.57-3.48.29-4.84,1.8-4.85,5.32,0,1.62,0,1.62,1.65,1.62a2.92,2.92,0,0,0,.45,0c.62-.1.85.14.79.78-.07.83.26,1.93-.16,2.43s-1.57.15-2.4.16c-2.46,0-4.92,0-7.38,0,0-.75,0-1.5,0-2.24s.17-.83.81-.84,1.13.31,1.56-.27c0-2.4,0-4.79,0-7.19,0-.46-.12-.64-.61-.61s-1.08,0-1.61,0c0-.78,0-1.56,0-2.34,0-.56.19-.73.73-.72,1.56,0,3.12,0,4.68,0C102,130.9,102.32,131,102.56,130.69Z" style="fill:#242122"/><path d="M153.42,136.25c0,1.59,0,3.18,0,4.77,0,.63.17.82.8.8,1.35,0,1.35,0,1.35,1.36,0,2,0,2-2,2s-4.2,0-6.3,0c-.62,0-.8-.19-.73-.76a6.74,6.74,0,0,0,0-.81c0-1.7,0-1.72,1.65-1.8.41,0,.58-.13.58-.57q0-3.33,0-6.66c0-.48-.16-.59-.62-.61-1.6,0-1.6-.06-1.6-1.65s0-1.71,1.75-1.71c1.44,0,2.88,0,4.32,0,.61,0,.83.13.81.78C153.39,133,153.42,134.63,153.42,136.25Z" style="fill:#242122"/><path d="M195.16,124.31a.24.24,0,0,1,.2.26,51.53,51.53,0,0,1-.17,6.73,4,4,0,0,1-4.32,3.59c-.46,0-.58-.16-.54-.57a3,3,0,0,0,0-.63c-.08-.68,0-1.13.86-1.32a2.46,2.46,0,0,0,1.63-2.61c0-.42-.28-.36-.54-.4-.64-.08-1.51.33-1.85-.2s-.09-1.28-.09-1.93c0-.87,0-1.73,0-2.6a.44.44,0,0,0,.3-.32H195l.12.13Z" style="fill:#282526"/><path d="M115.38,100.59a4.8,4.8,0,0,1,1.31,5.07c-.27-.4.06-.91-.26-1.12a3.61,3.61,0,0,0-1.11-.25,4.37,4.37,0,0,1-3-2.43,11.42,11.42,0,0,1-1.21-5.26c1.52,1.3,3.43,1.53,5,2.42,1.78,1,2.3,2.72,1.24,4.69-.16-1.44-.56-2.65-1.87-3.3a.36.36,0,0,0-.51-.07Z" style="fill:#7ba444"/><path d="M105.84,100.64a11.78,11.78,0,0,1,.14,6,4.34,4.34,0,0,1-2.21,2.82c-1,.51-1,.51-.72,1.77a3.8,3.8,0,0,1-.86-1.84,3.61,3.61,0,0,1,0-2c.22-.6.47-1.2.63-1.82a3.42,3.42,0,0,0-1.18,3.67,3,3,0,0,1-.28-4.45,14.65,14.65,0,0,1,2.37-1.93A5.22,5.22,0,0,0,105.84,100.64Z" style="fill:#7ba444"/><path d="M139.58,118.7a11.85,11.85,0,0,1-5.54-1.5,4,4,0,0,1-2.16-3c-.09-.88-.34-1.36-1.35-1.16,1.62-.76,3.57-.38,5.33,1.58-.44-1.66-1.77-2.18-3.35-2.45,2.08-1,3.78-.42,4.68,1.56a24.92,24.92,0,0,1,1,2.6A5.1,5.1,0,0,0,139.58,118.7Z" style="fill:#7ba444"/><path d="M91.82,102.72a5.44,5.44,0,0,0,2.29.32,17.43,17.43,0,0,1,3,.06c2.17.27,3.18,1.47,3.08,3.93-.85-1.53-1.86-2.57-3.84-2.4,2.13.7,3.46,1.87,3.7,4.06-.36-.77-.92-.55-1.5-.42a4,4,0,0,1-3.46-.87,10.14,10.14,0,0,1-3.32-4.6Z" style="fill:#7ba444"/><path d="M91.25,114.39a4.9,4.9,0,0,1,4.63-1.29,2,2,0,0,1,.34.11s.07.09.22.29c-1.19-.4-1.31.29-1.49,1.11a3.94,3.94,0,0,1-2.08,2.59A11.9,11.9,0,0,1,87,118.43c1.52-1.37,1.77-3.24,2.69-4.76a3.21,3.21,0,0,1,4.5-1.48,3.66,3.66,0,0,1,.41.29,3.72,3.72,0,0,0-3.51,1.76l-.14.17-.2.23c.14.11.25,0,.36-.06Z" style="fill:#7ba444"/><path d="M127.62,99.8a4.19,4.19,0,0,0,1.73,2,18.9,18.9,0,0,1,2.54,2,3.11,3.11,0,0,1-.12,4.74,3.36,3.36,0,0,0-1.09-3.65,4.94,4.94,0,0,1-.18,5.29c.43-1-.07-1.29-.86-1.62a3.82,3.82,0,0,1-2.11-2.56A11.53,11.53,0,0,1,127.62,99.8Zm3,4.91a1.37,1.37,0,0,0-.21-.08s-.07.11-.06.11l.2.12Z" style="fill:#7ba444"/><path d="M100.93,112.94c-1.76.31-2.83.82-3.28,2.39,1.54-1.59,3.18-2.29,5.24-1.59-1.12-.23-1.2.4-1.32,1.25a4.41,4.41,0,0,1-2.66,3.29,12.92,12.92,0,0,1-5,1.23c1.38-1.47,1.49-3.41,2.31-5.05C97.19,112.57,98.81,112,100.93,112.94Zm-3.24,2.35s-.07-.1-.11-.1a.18.18,0,0,0-.15.07c0,.1,0,.16.12.13A.51.51,0,0,0,97.69,115.29Z" style="fill:#7ba444"/><path d="M139,111.58c2.16-1.08,3.74-.62,4.83,1.39.38.71.72,1.45,1,2.19a6,6,0,0,0,1.44,2.36,9.87,9.87,0,0,1-6.18-1.42,3.59,3.59,0,0,1-1.66-2.37c-.14-.9-.39-1.41-1.58-1,1.33-1,2.94-.72,5.37.81C142.12,112.58,141.37,112.11,139,111.58Z" style="fill:#7ba444"/><path d="M122.37,96a11.66,11.66,0,0,0,4.76-1.61c-.44,2.51-1,4.79-3,6.43a3.15,3.15,0,0,1-2.15.81c-.88,0-1.38.19-1.16,1.43a4.35,4.35,0,0,1,1.71-5.13c.19-.12.44-.16.53-.46a.83.83,0,0,0-.72.27,3.71,3.71,0,0,0-2.25,3.13,5.89,5.89,0,0,1-.38-2.54h0a5.13,5.13,0,0,1,2.72-2.36Z" style="fill:#7ba444"/><path d="M133.4,108.26c-.08-2,1.19-3.67,3.77-4.46-1.38-.25-2.06.14-3.87,2.25a3.15,3.15,0,0,1,3.08-3.77c.87-.06,1.74,0,2.61,0a5.28,5.28,0,0,0,2.65-.38c-.39,3.27-4.17,6.13-7.21,5.46C133.51,107.14,133.79,108,133.4,108.26Z" style="fill:#7ba444"/><path d="M148.63,126.39a2.54,2.54,0,1,1,2.5,2.63A2.54,2.54,0,0,1,148.63,126.39Z" style="fill:#242122"/><path d="M146.5,107.33a9.46,9.46,0,0,1-3.88,2.27c-1.48.41-2.68-.35-3.85-1.09.71-1.07,2-1.36,3.56-1.36a2.89,2.89,0,0,0-3.13.4,2.23,2.23,0,0,1,2.76-1.76,12,12,0,0,1,2.57,1.08A3.5,3.5,0,0,0,146.5,107.33Zm-3.89-.19-.16.08s.1.06.15.05a.74.74,0,0,0,.19-.07Z" style="fill:#7ba444"/><path d="M109.84,93.08c1.47.43,2.82.09,4.15.17A2.42,2.42,0,0,1,116.5,96c-1.47-1.54-1.52-1.57-2.67-1.45a3.89,3.89,0,0,1,2.26,1.69c.31.51.19.68-.36.86a3.44,3.44,0,0,1-3.37-.64A8.85,8.85,0,0,1,109.84,93.08Z" style="fill:#7ba444"/><path d="M87,108.24c1.56-.16,2.67-1.11,4-1.54a2.41,2.41,0,0,1,3.27,1.67,4.67,4.67,0,0,0-1.72-.73,4.25,4.25,0,0,0-1.77.32c1.6,0,3.13.07,4,1.77-.29-.16-.5-.4-.87-.06a3.45,3.45,0,0,1-3.79.51A10,10,0,0,1,87,108.24Z" style="fill:#7ba444"/><path d="M104.66,110.68a1.63,1.63,0,0,1,1.06-2.11,4.32,4.32,0,0,1,1.42-.16,8.88,8.88,0,0,0,2.69-.08,7.15,7.15,0,0,1-2.29,2.88,3,3,0,0,1-2.75.24c-.64-.21,0-.42,0-.64l.13-.22c.1-.12.34-.24.12-.4s-.22.13-.29.25Zm.86-1c-.13.08-.38.14-.24.33s.27,0,.39-.13.16-.15.15-.18S105.63,109.64,105.53,109.69Zm.6,0,.14-.08a.5.5,0,0,0-.13-.09c-.08,0-.15,0-.14.1S106.09,109.63,106.13,109.65Z" style="fill:#7ba444"/><path d="M123.59,107.52a17.24,17.24,0,0,0,3.44.13,1.9,1.9,0,0,1,1.9,1.59c.15.53-.44,1-.11,1.52.07.12-.15,0-.22,0a3.47,3.47,0,0,1-2.75-.37A7.41,7.41,0,0,1,123.59,107.52Zm4.85,2.19c.06,0,.15.15.18.14s0-.19,0-.28-.16-.33-.29-.24S128.34,109.59,128.44,109.71Zm-.39-.62c-.19-.38-.43-.37-.79-.27C127.53,109,127.7,109.16,128,109.08Z" style="fill:#7ba444"/><path d="M100.5,101.66a2.2,2.2,0,0,0-.55,1.57,1.77,1.77,0,0,1,.39-2.72c.64-.43,1.38-.72,2.06-1.09.33-.18.64-.41,1-.62a4,4,0,0,1-2.5,4.89c-.37.15-.23.43-.38.66a2.77,2.77,0,0,1,.18-2.54l0-.21Z" style="fill:#7ba444"/><path d="M114.93,105.74c.26.27.68.4.73.76-2.29,1.72-4.13.65-6.06-.93a26.38,26.38,0,0,0,3.21-1.22,2,2,0,0,1,2.5,1c.11.25,0,.33-.23.23l-.21-.13a2.1,2.1,0,0,0-1.9-.2l1.75.39Z" style="fill:#7ba444"/><path d="M139.79,110.46a8.91,8.91,0,0,1-2.46.88,3.32,3.32,0,0,1-3.47-1.32c-.24-.29,0-.34.15-.42a4,4,0,0,1,2.11-.37c-.57-.51-1.22-.24-1.87-.13a1.7,1.7,0,0,1,2.53-.71,15.39,15.39,0,0,1,1.79,1.35A6.84,6.84,0,0,0,139.79,110.46Z" style="fill:#7ba444"/><path d="M132.69,100.91a3.15,3.15,0,0,1,.48,1.7c0,.34-.06.46-.53.35-1.8-.42-2.38-1.75-2.63-3.35-.09-.55-.07-1.11-.11-1.82.95.93,2.1,1.16,3,1.79a1.89,1.89,0,0,1,.58,2.82c-.18-.61-.12-1.26-.66-1.64l-.19-.17c-.07-.15-.17-.2-.32-.1l.2.21Z" style="fill:#7ba444"/><path d="M130.78,119.75a7.22,7.22,0,0,1-2.14-2.94,3.37,3.37,0,0,1,.42-2.83c.21-.4.44-.07.61.1a3.53,3.53,0,0,1,.84,2.8,2.54,2.54,0,0,0-.45-2.82,1.67,1.67,0,0,1,1.58,1.94,8.72,8.72,0,0,1-.61,2.06A3.32,3.32,0,0,0,130.78,119.75Z" style="fill:#7ba444"/><path d="M120.67,106.12a3,3,0,0,1,1.79-2.32,2,2,0,0,0-1.8,1.32,1.72,1.72,0,0,1,1.52-2.3,23.81,23.81,0,0,0,3.32-.44,6.8,6.8,0,0,1-1.73,2.95C122.9,106.23,121.76,106,120.67,106.12Z" style="fill:#7ba444"/><path d="M93.6,111.24c1.23-.43,1.89-1.35,2.8-1.92a1.81,1.81,0,0,1,2.71.46c-1.6,0-1.6,0-2.18.37a6.62,6.62,0,0,1,2,.07c.72.2.75.37.29.94a3.22,3.22,0,0,1-3.44.94A7.16,7.16,0,0,1,93.6,111.24Z" style="fill:#7ba444"/><path d="M139.68,101.54c.19-.37.06-.77.17-1.31-1.56,1.06-3.08,2-4.78.43,0-.22.52-.2.46-.57h0a6.88,6.88,0,0,1,2-.19,2,2,0,0,0-2,0l-.11-.1c.6-.93,1.12-1.14,2.1-.76.82.32,1.61.71,2.42,1.07.07,0,.16.12.2.09a1.51,1.51,0,0,1,1.3-.07c.42.13.83.29,1.26.44a2.07,2.07,0,0,1-2.69.9.93.93,0,0,0-.34,0Z" style="fill:#7ba444"/><path d="M103.29,114.89c-.65,1-.66,1.08-.49,2.61a5.88,5.88,0,0,1,.71-2.35c.42-.57.71-.49,1,0a2.76,2.76,0,0,1,.23,2.42,7,7,0,0,1-2,2.87,14.66,14.66,0,0,0-.86-3.16,1.92,1.92,0,0,1,1.29-2.57Z" style="fill:#7ba444"/><path d="M110.8,100.16c.57.57.34.9-.31,1.17a3,3,0,0,1-2.44,0,7.22,7.22,0,0,1-2.67-2.11,10,10,0,0,0,3.07-.68,2,2,0,0,1,2.38.73c.16.26.42.55,0,.82-.61-1-1.58-.71-2.48-.64A6,6,0,0,1,110.8,100.16Z" style="fill:#7ba444"/><path d="M149.71,115.56c-2.19.61-3.28.17-4.58-1.73.45-.39,1-.1,1.55-.24-.29-.32-.65-.13-1-.23a1.43,1.43,0,0,1,2.25.11,12,12,0,0,1,.8,1.08A3.1,3.1,0,0,0,149.71,115.56Zm-2.82-1.91s-.06.08,0,.12a.47.47,0,0,0,.08.13l.1-.19Z" style="fill:#7ba444"/><path d="M147.41,112.35c-2,.58-3.14.14-4.43-1.76.44-.42,1-.07,1.53-.27-.26-.32-.63-.07-.92-.23a1.4,1.4,0,0,1,2.23.13C146.37,110.88,146.85,111.6,147.41,112.35Zm-2.54-1.8s0-.12-.07-.12-.17,0-.11.11a.86.86,0,0,0,.09.13Z" style="fill:#7ba444"/><path d="M86.38,109.35a2.37,2.37,0,0,1,1.35.14c-.76,2.19-2.53,2.11-4.49,1.91.64-.83,1.17-1.64,1.81-2.34s1.36-.61,2.17,0l-1,.18c-.09.07-.33,0-.23.23S86.27,109.43,86.38,109.35Zm-.66.27.06,0-.05-.05-.06.07Z" style="fill:#7ba444"/><path d="M88.3,111.44c1.63-.32,1.63-.32,2.37,0-.77.41-1,1.5-2,1.71a6,6,0,0,1-2.72,0c.56-.75,1.07-1.5,1.66-2.19s1.31-.78,2.19-.13c-.56.09-1.17,0-1.52.58-.05,0-.22,0-.06.13Z" style="fill:#7ba444"/><path d="M86.14,114.68a3.89,3.89,0,0,1,2.1-.13c-.45,1.81-2.2,2.38-4.49,1.86a17.34,17.34,0,0,0,1.67-2.11,1.42,1.42,0,0,1,2.26-.2c-.56.09-1.17,0-1.53.58l-.12.07.09,0Z" style="fill:#7ba444"/><path d="M150.18,110.47c-1.71.61-3.55.11-4.15-1.11-.37-.75-.31-.85.54-.81a10.31,10.31,0,0,1,1,.16c-.28-.53-.85-.33-1.22-.56a1.46,1.46,0,0,1,2.18.28A13.86,13.86,0,0,0,150.18,110.47Zm-2.28-1.62s0-.05-.05-.05,0,0-.06,0,0,0,.05.05S147.88,108.86,147.9,108.85Z" style="fill:#7ba444"/><path d="M143.71,103.68a2.09,2.09,0,0,0-2.08.14,1.44,1.44,0,0,1,2.07-1,14.44,14.44,0,0,0,2.39.95,3.33,3.33,0,0,1-4.77.7A2.56,2.56,0,0,1,143.71,103.68Z" style="fill:#7ba444"/><path d="M96.07,100.64a5.75,5.75,0,0,1,.89.07c.52.12,1.25.27,1.22.8,0,.34-.75.67-1.3.75a3.86,3.86,0,0,1-2.53-.71c-.25-.15-.41-.54-.82-.38h0c.63-1.32,3.59-1.75,4.42-.64l-.16.14a1.76,1.76,0,0,0-1.73,0l-.26.08Z" style="fill:#7ba444"/><path d="M91.73,104.57a1.86,1.86,0,0,0-2,0,3,3,0,0,1,1.72.21c.66.35.68.57.08,1a2.35,2.35,0,0,1-2.15.22,5.44,5.44,0,0,1-2.1-1.28,22.77,22.77,0,0,0,2.66-1A1.32,1.32,0,0,1,91.73,104.57Z" style="fill:#7ba444"/><path d="M131.59,95.81c.83.3,1.61.55,2.38.85s1.17.87.88,1.53c-.13.3-.23.92-.59,1a1.76,1.76,0,0,1-1.55-.56A4.59,4.59,0,0,1,131.59,95.81Zm2.29,1.77v-.12l-.1,0,.12.08.17.19.25.35s.1-.07.1-.1a.36.36,0,0,0-.26-.33C134.09,97.59,134,97.5,133.89,97.58Z" style="fill:#7ba444"/><path d="M99,98.76l-.33.62c-.32-1-.1-1.55.86-2a10.39,10.39,0,0,1,1.11-.37,3.19,3.19,0,0,0,1.07-.49A3.09,3.09,0,0,1,99.58,100c-.66.12-.79-.08-.55-.67a3.38,3.38,0,0,0,.12-.43l.22-.31.1-.18c-.1-.05-.14,0-.17.1Zm.7-.51,0,0h-.06Z" style="fill:#7ba444"/><path d="M106.84,96c.69-.12,1.38-.28,2.08-.37,1-.13,1.43.44,1.46,1.46,0,.39-.08.4-.34.5C108.84,98,107.7,97.49,106.84,96Z" style="fill:#7ba444"/><path d="M119.46,92.43c.15,1.64.05,3.05-1.72,3.64-1-1.85-1-1.85.88-3C118.88,92.88,119.11,92.69,119.46,92.43Zm-1.89,2.31a1.31,1.31,0,0,0-.08.25.23.23,0,0,0,.06.14c.14,0,.13-.14.12-.25S117.61,94.81,117.57,94.75Z" style="fill:#7ba444"/><path d="M119.68,98.28c-.2,0-.21.19-.27.31-.24.53-.86.66-1.15,1.13a2.44,2.44,0,0,1-.22-1.53c-.36.28-.09.64-.26.89-.82-.94-.75-1.08,1.66-3.23a6.23,6.23,0,0,1,.22,2.45Z" style="fill:#7ba444"/><path d="M112.54,103.45c-1.37,1-2.32.88-3.89-.4a20.12,20.12,0,0,1,2.35-1C112.17,101.77,112.16,102.84,112.54,103.45Z" style="fill:#7ba444"/><path d="M135,119.71c-1.21-.07-2.28-.08-2.72-1.35,0-.13-.32-.12,0-.33,1-.68,1.44-.6,2.06.48C134.5,118.87,134.69,119.23,135,119.71Z" style="fill:#7ba444"/><path d="M65.89,131.83c-.26-1.19-1.2-.91-2-.92-1.29,0-2.58,0-3.87,0-.55,0-.75.18-.73.73,0,.78,0,1.56,0,2.34-.35,0-.28-.23-.28-.42,0-.78,0-1.56,0-2.33,0-.5.18-.6.63-.6,1.71,0,3.41,0,5.12,0C66,130.62,66,130.62,65.89,131.83Z" style="fill:#282526"/><path d="M93.61,118.51c-.43,1.31-1.47,1.57-2.69,1.53C91.6,117.91,92.18,117.61,93.61,118.51Z" style="fill:#7ba444"/><path d="M142.64,119.18a2.62,2.62,0,0,1-2.21-.52c-.27-.27-.82-.61-.3-1.12s1.12-.55,1.55,0S142.29,118.58,142.64,119.18Z" style="fill:#7ba444"/><path d="M147.91,106.51a2.4,2.4,0,0,1-3.1-.64C146,104.55,146,104.55,147.91,106.51Z" style="fill:#7ba444"/><path d="M85.73,107.34a9.74,9.74,0,0,1,1-1.24,1.14,1.14,0,0,1,1.86.5c.08.2-.11.12-.17.18A2,2,0,0,1,85.73,107.34Z" style="fill:#7ba444"/><path d="M98.54,120.4c.3-.52.56-1.05.9-1.53a1.16,1.16,0,0,1,1.84,0c.12.17-.07.18-.1.27C100.78,120.22,100.05,120.57,98.54,120.4Z" style="fill:#7ba444"/><path d="M93.54,101.17c-.21.36.38.83-.18,1.16a1.69,1.69,0,0,1-1.86-.16,10.27,10.27,0,0,1-.93-.74c1.08-.22,2-1,3-.25Z" style="fill:#7ba444"/><path d="M102.56,130.69c-.24.33-.6.21-.92.21-1.56,0-3.12,0-4.68,0-.54,0-.76.17-.73.72,0,.78,0,1.56,0,2.34-.24,0-.31-.09-.31-.3,0-.86,0-1.73,0-2.59,0-.36.16-.46.49-.46C98.46,130.67,100.51,130.53,102.56,130.69Z" style="fill:#282526"/><path d="M171.2,136.51c0-1.58,0-3.15,0-4.73,0-.74-.25-.93-.93-.88s-1.31,0-2,0c0-.48.38-.28.59-.28.83,0,1.87-.35,2.41.14s.13,1.52.15,2.31c0,1,0,2,0,2.95C171.49,136.23,171.62,136.56,171.2,136.51Z" style="fill:#282526"/><path d="M98.42,141.79c-.43.58-1,.27-1.56.27s-.84.22-.81.84,0,1.49,0,2.24c-.25,0-.3-.11-.3-.32,0-.84,0-1.67,0-2.51,0-.48.22-.53.61-.52C97,141.81,97.73,141.79,98.42,141.79Z" style="fill:#282526"/><path d="M61.28,141.71c-.23.69-.8.34-1.21.35-.56,0-.81.16-.78.76,0,.77,0,1.54,0,2.31-.08,0-.21,0-.23-.08a.87.87,0,0,1,0-.35,7.31,7.31,0,0,1,.05-2.5C59.46,141.23,60.58,142.11,61.28,141.71Z" style="fill:#242122"/><path d="M135.53,100.09c-.17,0-.22-.11-.11-.26l.11.1a.79.79,0,0,0,0,.17Z" style="fill:#7ba444"/><path d="M123.77,131h.09l-.07,0Z" style="fill:#7b4b21"/><path d="M190.68,124.31a.44.44,0,0,1-.3.32C190.34,124.4,190.44,124.28,190.68,124.31Z" style="fill:#242122"/><path d="M195.16,124.31l-.06.13-.12-.13Z" style="fill:#242122"/><path d="M133.47,110.16l-.06,0,.06-.08.06.06Z" style="fill:#7ba444"/><path d="M91.73,102.81l-.1-.1.19,0Z" style="fill:#7ba444"/><polygon points="139.67 101.55 139.65 101.56 139.68 101.54 139.67 101.55" style="fill:#7ba444"/><path d="M98,100.55l0,.22-.2-.08Z" style="fill:#7ba444"/><path d="M103.18,114.77l.2,0-.09.15Z" style="fill:#7ba444"/><path d="M129,111.17l-.05.05s0,0,0-.06,0,0,0-.05Z" style="fill:#7ba444"/><path d="M121,94.29c.1-.53.47-.61.92-.54Z" style="fill:#fdfdfd"/><path d="M119,119.28a9.08,9.08,0,0,1,.77,5.4Z" style="fill:#fdfdfd"/><path d="M116.53,122.06c.41,2.1-1.43,3.48-1.16,5.51-.4-.61-.28-1.56.3-2.75A12.59,12.59,0,0,0,116.53,122.06Z" style="fill:#fdfdfd"/><path d="M115.45,110.47c.17.88-.05,1.57.17,2.22,0,.13.14.31-.07.37s-.34-.07-.37-.29A5.15,5.15,0,0,1,115.45,110.47Z" style="fill:#fdfdfd"/><path d="M115.38,100.59l-.33-.24a.36.36,0,0,1,.51.07Z" style="fill:#fdfdfd"/><path d="M91.07,114.57c-.1.11-.21.17-.36.06l.2-.23Z" style="fill:#fdfdfd"/><path d="M90.92,114.4l.14-.17.2.15-.18.18Z" style="fill:#fdfdfd"/><path d="M130.66,104.7l-.07.15-.2-.12s.05-.11.06-.11A1.37,1.37,0,0,1,130.66,104.7Z" style="fill:#fdfdfd"/><path d="M97.69,115.29a.51.51,0,0,1-.13.1c-.11,0-.16,0-.12-.13a.18.18,0,0,1,.15-.07S97.65,115.25,97.69,115.29Z" style="fill:#fdfdfd"/><path d="M122.31,97.69a.83.83,0,0,1,.72-.27c-.1.3-.35.34-.53.46Z" style="fill:#fdfdfd"/><path d="M142.6,107.13l.17.07a.74.74,0,0,1-.19.07s-.1,0-.15-.05Z" style="fill:#fdfdfd"/><path d="M104.77,110.46c.07-.12.16-.34.29-.25s0,.28-.12.4Z" style="fill:#fdfdfd"/><path d="M105.67,109.89c-.12.09-.26.31-.39.13s.11-.25.24-.33Z" style="fill:#fdfdfd"/><path d="M106.13,109.65s-.12,0-.12-.06.05-.13.14-.1a.5.5,0,0,1,.13.09Z" style="fill:#fdfdfd"/><path d="M104.94,110.6l-.13.22-.15-.14.11-.23Z" style="fill:#fdfdfd"/><path d="M105.53,109.69c.1-.05.21-.14.29,0s-.09.12-.15.18Z" style="fill:#fdfdfd"/><path d="M128,109.08c-.35.08-.52-.09-.79-.27C127.62,108.71,127.86,108.7,128,109.08Z" style="fill:#fdfdfd"/><path d="M128.44,109.71c-.09-.12-.34-.23-.12-.39s.22.13.29.24Z" style="fill:#fdfdfd"/><path d="M128.6,109.56c.05.1.14.2,0,.28s-.11-.09-.18-.14Z" style="fill:#fdfdfd"/><path d="M100.5,101.66l.19-.06,0,.21Z" style="fill:#fdfdfd"/><path d="M114.71,105.62l-1.75-.39a2.1,2.1,0,0,1,1.9.2Z" style="fill:#fdfdfd"/><path d="M114.93,105.74l-.22-.12.15-.18.21.13Z" style="fill:#fdfdfd"/><path d="M132.55,100.72l-.2-.21c.15-.09.25-.05.32.1Z" style="fill:#fdfdfd"/><path d="M132.69,100.91l-.14-.19.12-.11.19.17Z" style="fill:#fdfdfd"/><path d="M135.51,100.1a.79.79,0,0,1,0-.17,2,2,0,0,1,2,0A6.88,6.88,0,0,0,135.51,100.1Z" style="fill:#fdfdfd"/><path d="M110.8,100.16a6,6,0,0,0-2.44-.7c.9-.07,1.86-.37,2.48.64Z" style="fill:#fdfdfd"/><path d="M146.89,113.65l.13.06-.1.19a.47.47,0,0,1-.08-.13S146.87,113.69,146.89,113.65Z" style="fill:#fdfdfd"/><path d="M144.86,110.54l-.09.12a.87.87,0,0,1-.09-.13c-.06-.13,0-.13.11-.11S144.84,110.5,144.86,110.54Z" style="fill:#fdfdfd"/><path d="M86.38,109.35c-.11.09-.28.2-.36.07s.14-.16.23-.23Z" style="fill:#fdfdfd"/><path d="M85.72,109.61l-.05,0,.06-.07.05.05Z" style="fill:#fdfdfd"/><path d="M88.3,111.44l0,.15c-.16-.12,0-.1.06-.13Z" style="fill:#fdfdfd"/><path d="M86.14,114.68v.13l-.09,0,.12-.07Z" style="fill:#fdfdfd"/><path d="M147.9,108.85s0,0-.06,0,0,0-.05-.05,0,0,.06,0S147.88,108.83,147.9,108.85Z" style="fill:#fdfdfd"/><path d="M96.07,100.64l-.25.09.26-.08Z" style="fill:#fdfdfd"/><path d="M134.16,97.68a.37.37,0,0,1,.26.33s-.06.07-.1.1l-.25-.35Z" style="fill:#fdfdfd"/><path d="M134.07,97.76l-.17-.19h0c.13-.09.2,0,.27.1Z" style="fill:#fdfdfd"/><path d="M133.91,97.57l-.12-.08.1,0v.12Z" style="fill:#fdfdfd"/><path d="M99.37,98.55l-.22.31-.12-.1.27-.29Z" style="fill:#fdfdfd"/><path d="M99.3,98.47c0-.09.07-.15.17-.1l-.1.18Z" style="fill:#fdfdfd"/><polygon points="99.73 98.24 99.71 98.19 99.77 98.2 99.73 98.24" style="fill:#fdfdfd"/><path d="M117.57,94.75c0,.06.09.1.09.14s0,.22-.12.25a.23.23,0,0,1-.06-.14A1.31,1.31,0,0,1,117.57,94.75Z" style="fill:#fdfdfd"/><rect x="127.19" y="130.43" width="6.87" height="2.28" style="fill:#242122"/><path d="M50.05,157.83c-2.2-1-3-2.12-2.93-4.1a3.79,3.79,0,0,1,7.4-1,3.93,3.93,0,0,1-2,4.73c-.29.14-.6.26-.9.38ZM53.33,154a2.53,2.53,0,0,0-2.41-2.79A2.78,2.78,0,1,0,53.33,154Z" style="fill:#242122"/><path d="M102.31,157.83,98,153.05l-.19.07v4.49H96.55v-7.72l4.77,5v-4.68h1.34v7.6Z" style="fill:#242122"/><path d="M87.35,157.83c-1.66-.55-2.19-1.77-2.13-3.41.05-1.37,0-2.75,0-4.18h1.27c0,1.52,0,3,0,4.5,0,1.17.48,1.75,1.4,1.89a1.59,1.59,0,0,0,2-1.58c.07-1.25,0-2.51,0-3.77,0-.33,0-.65,0-1h1.17c0,1.84.07,3.66,0,5.47-.06,1.14-1,1.68-2,2.13Z" style="fill:#242122"/><path d="M36,153.15l.36-.81a4.15,4.15,0,0,1,6.1-1.55l-.37,1c-1.6-.55-3.2-1-4.33.77a2.83,2.83,0,0,0,.24,3.21c1.21,1.32,2.63,1,4.12.38l.42,1-1.49.73h-2A4.63,4.63,0,0,1,36,154.77Z" style="fill:#242122"/><path d="M206.82,157.83l-1.57-.7.38-1a17.24,17.24,0,0,0,1.83.52c.57.1,1.2-.08,1.24-.72a1.83,1.83,0,0,0-.63-1.22,7.22,7.22,0,0,0-1.34-.7,2,2,0,0,1-1.11-2.24,2.07,2.07,0,0,1,1.93-1.61,17.22,17.22,0,0,1,2.44.28l-.45,1.22a4.16,4.16,0,0,0-1.41-.39,1.74,1.74,0,0,0-1.18.68c-.11.19.29.81.59,1.09a6,6,0,0,0,1.26.67,2,2,0,0,1,1.26,1.91,2.16,2.16,0,0,1-1.28,2,3,3,0,0,0-.35.24Z" style="fill:#242122"/><path d="M73.75,153.53v4.11H72.46l.31-7.44.2-.1,3.32,5,3.24-4.94.2,0,.32,7.46H78.78v-4.08l-.23-.06-2.29,3.4L74,153.49Z" style="fill:#242122"/><path d="M67.31,157.65H66.05v-4.1l-.26-.08-2.29,3.4-2.29-3.39-.18,0v4.11H59.7l.3-7.44.2-.08L63.53,155l3.24-4.93.2.05Z" style="fill:#242122"/><path d="M148.64,150.18l.32,7.45h-1.3v-4.08l-.24,0-2.26,3.37-2.28-3.41-.2,0v4.15h-1.31l.29-7.44.21-.1,3.32,5,3.22-4.94Z" style="fill:#242122"/><path d="M168.6,154.73l1.83,2.86c-.92.23-1.59.13-2-.79-.14-.36-.42-.66-.58-1a1.12,1.12,0,0,0-1.61-.69v2.52h-1.23v-7.49c.77,0,1.54,0,2.3,0a2.52,2.52,0,0,1,2.57,1.73C170.23,153,169.86,153.8,168.6,154.73Zm-2.31-3.38v2.51c.83.11,1.66.23,2.12-.56a1.67,1.67,0,0,0,0-1.4C168,151.09,167.13,151.26,166.29,151.35Z" style="fill:#242122"/><path d="M175.19,157.63v-7.38h1.21v3.34l2.33-2.65c.77-.88.77-.88,2.09-.63l-3.16,3.49,3.32,3.78a1.7,1.7,0,0,1-2.08-.56c-.69-.94-1.5-1.79-2.42-2.88v3.5Z" style="fill:#242122"/><path d="M185.8,150.23h4.45v1.07h-3.18v2H190l.06,1.11h-2.95v2.13h3.18v1.09H185.8Z" style="fill:#242122"/><path d="M160.4,157.57c-1,.3-1.51,0-1.7-.85a.87.87,0,0,0-1.12-.74,3,3,0,0,1-.9,0,1.34,1.34,0,0,0-1.76,1.13c-.19.86-.86.5-1.56.61l3.55-7.83Zm-4.55-2.66h2.1l-1.05-2.47Z" style="fill:#242122"/><path d="M201,150.26v1.06h-2.3v6.32h-1.29v-6.27H195l-.06-1.12Z" style="fill:#242122"/><path d="M127.6,153.35a22,22,0,0,0,1.31-2.29c.38-.89,1-1,1.9-.8-.61,1-1.15,2-1.79,2.93a4.21,4.21,0,0,0-.8,2.95c0,.47,0,.95,0,1.49h-1.16c-.4-1.23.3-2.64-.57-3.86s-1.41-2.28-2.13-3.48c.89-.24,1.5-.15,1.89.73S127.11,152.51,127.6,153.35Z" style="fill:#242122"/><path d="M116.54,151.33h-2.34v-1.09h5.92v1.06h-2.28v6.31h-1.3Z" style="fill:#242122"/><path d="M108.08,150.23h1.18v7.38h-1.18Z" style="fill:#242122"/><path d="M213.57,135.44A2.4,2.4,0,1,1,216,133,2.4,2.4,0,0,1,213.57,135.44Zm0-4.24a1.84,1.84,0,1,0,1.84,1.84A1.84,1.84,0,0,0,213.57,131.2Z" style="fill:#282526"/><path d="M212.51,134.22v-2.35h1a1.71,1.71,0,0,1,.55.06.54.54,0,0,1,.27.23.68.68,0,0,1,.1.37.63.63,0,0,1-.16.44.75.75,0,0,1-.47.22,1.11,1.11,0,0,1,.25.2,2.69,2.69,0,0,1,.27.38l.29.46h-.57l-.34-.51a3.34,3.34,0,0,0-.25-.35.37.37,0,0,0-.14-.1.78.78,0,0,0-.24,0H213v1Zm.48-1.36h.35a1.81,1.81,0,0,0,.43,0,.26.26,0,0,0,.13-.1.31.31,0,0,0,0-.18.28.28,0,0,0-.06-.19.29.29,0,0,0-.18-.09H213Z" style="fill:#282526"/></svg>