<svg xmlns="http://www.w3.org/2000/svg" viewBox="0 0 250 250"><defs><style>.a{fill:#cc2229;}</style></defs><title>Fast Food</title><path class="a" d="M87.4,106c0-7.42,1.55-16.36,2.3-23.8,1.2-11.61,6-27.59,14.68-36.24,2.32-2.32,4.06-1.07,5.5.93,2.43,3.36,6.08,7.87,8.22,11.34,3,4.91,11,7,15.88,2.91,2.8-2.32,2.7-7.55,2.67-11s-4.38-8-5.63-11.23c-.56-1.47-2-3.66-.51-5.12,1.26-1.2,4.06-.59,5.28.13A33.24,33.24,0,0,1,148.43,47a92.82,92.82,0,0,1,9.37,31.81,220.86,220.86,0,0,1,1.82,24.44v11.1h7.79V103.15a170.45,170.45,0,0,0-1.63-24.82c-1.84-12.27-4.86-25.3-11.34-36-4.86-8-11.69-15.08-18.65-16.7-3.23-.75-7.55-.51-10.38,1.89-3.5,3-3.52,7.85-2.62,12.06.77,3.47,4.38,6.8,5.36,10.11,1.39,4.54-1.17,7.74-4,3.66-2.43-3.52-5.71-8.11-8.35-11.53-4.72-6.11-10.65-7.36-16.81-1.57-7.44,7-13,20.31-14.92,30.15a225.35,225.35,0,0,0-4.3,34.93l-.16,9H87.4V106Zm94.43,82.51a44.43,44.43,0,0,0-12.36-3.31,28.11,28.11,0,0,1-2.16,7.82c2.16-.27,7.87,1.49,9.93,2.24,3.31,1.23,3.34,6.54.75,8.38-14.41,10.3-33.2,13.13-50.75,13.08-15.26,0-36.1-1.68-49.13-10-2-1.31-8.51-5.82-6.27-9.53,1.68-2.75,8.08-3.58,9.71-3.6,19.56-.37,37.57,10.33,54.36,18.65a7.58,7.58,0,0,0,2,.51,4,4,0,0,0,4-4h0a5,5,0,0,0-2.05-3.5c-18.57-9.29-36.88-19.72-58.65-19.72-5.74,0-13.61,1.52-17.29,7.28-5.42,8.49,4,17.08,10.22,20.87,14.78,9.07,35.94,11.1,53.23,11.1,17.11,0,44.27-3.5,57.05-15.82,3.68-3.52,6.14-8.43,4.3-13.66a12.82,12.82,0,0,0-6.86-6.75ZM70.72,176.37v-6.14a.68.68,0,0,0-.56-.53l-.27,0a1.67,1.67,0,0,1-1.68-1.67s0,0,0,0a3,3,0,0,1,.16-.69l2.8-7.71h8v8.25a2.08,2.08,0,0,1-1.52,2l-1.15.21-.19.05a.52.52,0,0,0-.4.51v6.75a4.63,4.63,0,0,0,.59,1.89,4.54,4.54,0,0,0,3.76,2.21l5,0a4.05,4.05,0,0,0,3.87-3.84v-7.1a.81.81,0,0,0-.77-.64,1.36,1.36,0,0,1-1.33-1.2V118.12a1,1,0,0,0-.85-.83H73.82a3.63,3.63,0,0,0-3.6,3.58v7.07c0,.19.29.43.45.43H73a1.46,1.46,0,0,1,1.39,1.41,2.25,2.25,0,0,1-.08.48L60.64,167.73a3.84,3.84,0,0,1-4.4,2.24l-.16,0a.5.5,0,0,0-.48.51l.53,8.94c.08,1.58,2.64,2.16,4.22,2.16h5.84c2.72,0,4.54-2.88,4.54-5.18ZM76.54,145l2.67-7.26v14.52H73.87L76.54,145Zm33-1h2.22a.69.69,0,0,0,.64-.64V133a.66.66,0,0,0-.61-.61,8.75,8.75,0,0,0-4.43,1,7.11,7.11,0,0,0-2.72,2.75.3.3,0,0,1-.24.16.32.32,0,0,1-.29-.29v-2.83a.64.64,0,0,0-.61-.64H96a3.6,3.6,0,0,0-3.6,3.6v7c0,.21.32.45.43.45h1.84a1,1,0,0,1,1,1v23.51a1.85,1.85,0,0,1-1.52,1.76l-1.36.29a.49.49,0,0,0-.37.48v6.78a4.3,4.3,0,0,0,4.43,4.11H103a4,4,0,0,0,3.9-3.84v-7.1c0-.35-.43-.64-.8-.64H105a1.36,1.36,0,0,1-1.33-1.36V149.77A5.82,5.82,0,0,1,109.5,144Z"/><path class="a" d="M115.79,181.55h6a.45.45,0,0,0,.4-.4v-3c0-.16.24-.35.4-.4s.32.11.37.24a8.07,8.07,0,0,0,3.44,3.5,7.72,7.72,0,0,0,3.66.91c4.91,0,7.87-3.9,7.87-8.46V140.62c0-6.4-6.54-10.41-11.53-7.68a8.43,8.43,0,0,0-2.64,2.38.53.53,0,0,1-.35.16.43.43,0,0,1-.4-.43V114.87a.67.67,0,0,0-.64-.64H115a3.6,3.6,0,0,0-3.6,3.6v7.07a.44.44,0,0,0,.43.43h1.81a1,1,0,0,1,1,1v41.81a1.82,1.82,0,0,1-1.52,1.76l-1.33.29a.49.49,0,0,0-.4.48v6.78a4.32,4.32,0,0,0,4.45,4.11Zm7.18-34a3.27,3.27,0,0,1,3.39-3.42,3.3,3.3,0,0,1,3.41,3.42v20a3.42,3.42,0,0,1-3.39,3.42,0,0,0,0,1,0,0,3.39,3.39,0,0,1-3.39-3.39v-20Zm43.76-1.39a1.78,1.78,0,0,1,1.52-1.76l.72-.29a.52.52,0,0,0,.37-.51v-6.75a4.4,4.4,0,0,0-4.38-4.14h-4.22a4.53,4.53,0,0,0-4.48,4.14v6.72a.74.74,0,0,0,.4.51l.75.29a1.78,1.78,0,0,1,1.52,1.76v21.37a3.76,3.76,0,0,1-3.76,3.76,3.5,3.5,0,0,1-3.76-3.76l0-21.37a2,2,0,0,1,1.49-1.76l.72-.29a.56.56,0,0,0,.4-.51v-6.72a4.38,4.38,0,0,0-4.35-4.14h-4.27a4.4,4.4,0,0,0-4.46,4.14v6.75a.51.51,0,0,0,.4.51l.72.29a1.78,1.78,0,0,1,1.52,1.76v29.73a8.12,8.12,0,0,0,14.33,3.5v3.76a8.85,8.85,0,0,1-4.27,6.67,7.68,7.68,0,0,1-3.6.91h-.19l-5.26-.05a4.15,4.15,0,0,0,0,8.25,28.79,28.79,0,0,0,7.42,0,17.19,17.19,0,0,0,12.41-8.09,15.89,15.89,0,0,0,2.29-7.39V146.14Zm-7.18-27.64v10.27a.88.88,0,0,0,.85.88h7.53a2.72,2.72,0,0,1,2.32,1.31,7.55,7.55,0,0,1,1.07,2.88.28.28,0,0,0,.53.08,20.38,20.38,0,0,0,2.13-8.67,8.83,8.83,0,0,0-4-7.47.83.83,0,0,0-.45-.13h-9.1a.84.84,0,0,0-.85.83s0,0,0,0ZM191,162.26l-9.34-13.16a6,6,0,0,1-.83-4,1.69,1.69,0,0,1,3.28-.27c.24.85.27,1.87.43,2.64.05.35.48.88.91.88h2a3.82,3.82,0,0,0,3.84-3.8h0v-7.68a3.84,3.84,0,0,0-3.81-3.84h-2c-.29,0-.93.69-.93,1V136a.32.32,0,0,1-.32.29.3.3,0,0,1-.24-.11,16,16,0,0,0-2.77-2.94,5.25,5.25,0,0,0-7.61,1,10.63,10.63,0,0,0-2,6.16,12.46,12.46,0,0,0,.08,1.44,21.31,21.31,0,0,0,2.93,8.73l9.5,15.08a3.51,3.51,0,0,1,.45,1.89,4,4,0,0,1-2.13,3.52,3.41,3.41,0,0,1-5-3v-6a1,1,0,0,0-.93-1h-2.69a4.24,4.24,0,0,0-4.22,4.19V178a4.17,4.17,0,0,0,4.22,4.22h2.48a1,1,0,0,0,1-.83l.24-1.84a.37.37,0,0,1,.67-.19,8.66,8.66,0,0,0,12.51,1.6,10.16,10.16,0,0,0,3.63-7.31c0-.32,0-.61,0-.91A18.41,18.41,0,0,0,191,162.26Zm-27.16,34.1a2.47,2.47,0,1,0,0,4.94,0,0,0,0,0,0,0,2.52,2.52,0,0,0,2.48-2.51,2.49,2.49,0,0,0-2.48-2.46Zm2,2.46a2,2,0,0,1-2,2.06h0a2.06,2.06,0,0,1,0-4.11h0A2,2,0,0,1,165.85,198.81Z"/><path class="a" d="M162.89,197.43v2.8h.43V199h.51l0,0,.72,1.17h.51l-.83-1.25a.72.72,0,0,0,.75-.77c0-.56-.35-.77-1-.77h-1.1Zm1,.35c.32,0,.61.08.61.43s-.29.45-.64.45h-.56v-.88h.59Z"/></svg>