<svg xmlns="http://www.w3.org/2000/svg" viewBox="0 0 250 250"><defs><style>.a,.c{fill:#ee3124;}.b{fill:#fff;}.c{fill-rule:evenodd;}</style></defs><title>Fast Casual</title><path class="a" d="M22.69,122.17c-1.4.53-2.81,1.05-4.21,1.6a1.9,1.9,0,0,1-2.48-.52,1.27,1.27,0,0,1-.32-1.66,7,7,0,0,1,2.81-2.93A41.36,41.36,0,0,1,27.21,116a31.53,31.53,0,0,1,5.56-.68c.77,0,1.55-.25,2.31-.2a16.41,16.41,0,0,1,3.16.53,10.42,10.42,0,0,1,2.58,1.07,4.41,4.41,0,0,1,1.77,5.54,10.15,10.15,0,0,1-3.42,4.46c-2.86,2.21-5.82,4.3-8.76,6.4-1.42,1-2.89,2-4.49,3.06a4,4,0,0,0,1,.59c1.18.27,2.38.45,3.57.69a32.39,32.39,0,0,1,8.64,3.25,1.67,1.67,0,0,1,.55.61,5.8,5.8,0,0,1,1,3,4.33,4.33,0,0,1-2,3.65,26.65,26.65,0,0,1-8.42,4.33c-2.24.7-4.52,1.27-6.77,1.92a1,1,0,0,0-.49.44,3.76,3.76,0,0,1-2.9,2.07,1.59,1.59,0,0,1-1.62-.8.9.9,0,0,0-.87-.43,8.2,8.2,0,0,1-2.12-.23,1.44,1.44,0,0,1-.75-2,5.29,5.29,0,0,1,2.69-2.37,1,1,0,0,0,.67-1c.17-2.14.4-4.29.51-6.43a16,16,0,0,0-.23-2.79.73.73,0,0,0-.43-.45,3,3,0,0,1-2.09-3.53.67.67,0,0,1,.3-.39c.74-.44,1.5-.84,2.22-1.3a1.1,1.1,0,0,0,.45-.63c.45-2.26.87-4.52,1.3-6.79.17-.88.4-1.75.5-2.63a1.89,1.89,0,0,1,.85-1.34c.47-.38.91-.8,1.37-1.2Zm3,8.7c.39-.18.6-.26.78-.36,1.36-.75,2.75-1.45,4.08-2.25a13.13,13.13,0,0,0,4.56-4.14c1-1.52.73-2-1.05-2.48a16.12,16.12,0,0,0-5.45-.32,1.26,1.26,0,0,0-.78.36,6.4,6.4,0,0,0-1.62,3.22c-.17,1.26-.39,2.51-.52,3.78A20.86,20.86,0,0,0,25.71,130.87Zm-1.57,11.41c-.24,1.88-.46,3.79-.76,5.69-.08.55.08.6.52.5l.41-.1a31.35,31.35,0,0,0,7-3,20.1,20.1,0,0,0,1.9-1.34c.41-.29.35-.63,0-.86a3.67,3.67,0,0,0-1-.35L25.59,141c-1.14-.32-1.44-.09-1.47,1.1C24.12,142.13,24.13,142.19,24.14,142.28Z"/><path class="a" d="M217.62,150.87c-1.72-.6-3.38-1.28-5.11-1.75-2.36-.64-4.75-1.17-7.14-1.63-2-.38-3.93-.63-5.9-.89-1.22-.16-2.46-.24-3.69-.34l-5.47-.45c-.77-.06-1.55-.1-2.33-.13-1.82-.05-3.63-.1-5.45-.12q-6.39-.07-12.78-.1c-1.54,0-3.08.05-4.61.1-1.93.07-3.86.14-5.79.24q-4.21.21-8.41.46-3.91.24-7.82.53c-2,.16-4,.36-6.07.55-1.76.16-3.52.31-5.28.48s-3.33.35-5,.53c-1.84.19-3.68.36-5.52.58s-3.51.45-5.26.67c-2,.26-4,.49-6,.76s-3.94.55-5.9.84-3.87.54-5.79.85c-2.71.44-5.42.88-8.12,1.37-3.87.71-7.75,1.4-11.59,2.24-4.39,1-8.75,2.1-13.12,3.16-.17,0-.4.1-.52,0a1.57,1.57,0,0,1-.48-.54.89.89,0,0,1,.38-.34c3.16-1.13,6.29-2.32,9.48-3.35,2.93-1,5.91-1.79,8.89-2.58,3.36-.89,6.75-1.72,10.14-2.46,3.73-.82,7.47-1.55,11.22-2.25,3-.57,6.1-1.08,9.16-1.58,2.37-.39,4.75-.76,7.13-1.09,3-.41,6-.76,9-1.13,2.62-.32,5.25-.63,7.88-.9,1.74-.18,3.5-.29,5.24-.43,2.24-.19,4.48-.39,6.73-.55,1.53-.11,3.06-.18,4.6-.25,2.87-.12,5.74-.24,8.61-.34q2.76-.09,5.51-.1c3.23,0,6.47,0,9.7,0,2.41,0,4.82.13,7.22.34,3.86.34,7.73.69,11.57,1.23a56.66,56.66,0,0,1,13.28,3.34,20.07,20.07,0,0,1,5.89,3.49C216.66,149.83,217.13,150.37,217.62,150.87Z"/><path class="a" d="M103.44,129.19c-.15,0-.24-.07-.3,0a23.4,23.4,0,0,0-4,1.24c-2,1-4.16,1.8-6.25,2.7-.17.07-.4.22-.42.36-.26,1.67-1.19,3.07-1.8,4.6-.46,1.16-.84,2.36-1.23,3.54a4,4,0,0,0-.21,1.11A7.85,7.85,0,0,1,88,145.91c-.67,1.38-3.16,1.72-3.86.51a2.73,2.73,0,0,1-.3-1.58c.36-3.05,1.54-5.91,2.21-8.89.09-.41.15-.68-.33-.91a1.33,1.33,0,0,1-.73-1.6,1.72,1.72,0,0,0,.08-.7c-.4-1.53.37-2.75,1.14-3.88A4.37,4.37,0,0,1,88,127.67a1.64,1.64,0,0,0,1-.94c.47-1.29,1.06-2.53,1.48-3.82.71-2.16,1.24-4.38,2-6.51a20.39,20.39,0,0,1,2.6-5.49.72.72,0,0,0,0-.53c-.36-1.44,0-2.47,1-3.07a1.58,1.58,0,0,1,.61-.22c1.53-.14,1.8-1,1.94-1.94.71-.52,1.32-1,1.95-1.42a5.64,5.64,0,0,1,3-1.42c1.71-.06,2.27.8,2,2.36-.17.85-.5,1.68-.8,2.66a4.79,4.79,0,0,0,1.18.54c2.09.36,2.83,1.82,3.07,3.68a16.78,16.78,0,0,1,.3,3.73c-.12,1.15.5,2.09.44,3.2-.07,1.37,0,2.75.09,4.13a2.64,2.64,0,0,0,.27,1.07,2.44,2.44,0,0,1-.65,3.11.78.78,0,0,0-.32.44c-.17,1.9-.31,3.81-.48,5.71a41,41,0,0,1-1,7.07,5,5,0,0,1-1.92,2.84,1.39,1.39,0,0,1-1.61.27,1.53,1.53,0,0,1-.82-1.48q0-5.82,0-11.65C103.44,129.71,103.44,129.45,103.44,129.19Zm-9.49-2.38.41,0,5.73-1.18a7.45,7.45,0,0,0,.81-.18c.62-.2,1.21-.48,1.84-.63,1.27-.3,1.25-.27,1.29-1.61,0-1.69.08-3.39.23-5.08.09-1,.16-1.91-.81-2.53-.06,0-.08-.14-.13-.19-.72-.59-1.43-1.19-2.17-1.75a.6.6,0,0,0-.86.13,3.23,3.23,0,0,0-1,1.72,14.48,14.48,0,0,1-1.75,4.24c-1.05,2-2,4-3,6C94.34,126.08,94.16,126.4,93.95,126.82Z"/><path class="a" d="M59.61,137.45c-1.35.42-2.63.72-3.83,1.21-2,.84-4,1.94-6.07,2.65A2,2,0,0,0,48.28,143c-.21.72-.56,1.39-.82,2.1-.44,1.17-.79,2.38-1.33,3.5-.62,1.3-.66,2.73-1.17,4a14.14,14.14,0,0,1-1,2.08,2.45,2.45,0,0,1-3.63.29,2.62,2.62,0,0,1-.28-2.25c.33-1.49.8-2.94,1.2-4.42s.73-2.8,1.06-4.21c0-.13-.15-.38-.3-.48a1.6,1.6,0,0,1-.84-1.87,1.81,1.81,0,0,0,0-.6,4.89,4.89,0,0,1,1.24-3.87,5.13,5.13,0,0,1,1.89-1.17,1.45,1.45,0,0,0,.81-.78c1.5-3.44,2.34-7.09,3.62-10.6a20.32,20.32,0,0,1,2.48-5.22,1,1,0,0,0,.11-.75c-.37-1.64.19-3,2-3.31,1.08-.2,1.41-.58,1.55-1.64a.69.69,0,0,1,.25-.43c.95-.65,1.91-1.27,2.86-1.93a3.39,3.39,0,0,1,2.75-.65,1.42,1.42,0,0,1,1.21,1.49,7.56,7.56,0,0,1-.78,3.17l-.14.34a11.73,11.73,0,0,0,1.41.56,3.2,3.2,0,0,1,2.28,1.59,11.6,11.6,0,0,1,.67,2.58,18.43,18.43,0,0,1,.31,2.24c0,.51-.1,1,0,1.54.08.74.33,1.48.36,2.22.07,1.42,0,2.85,0,4.28a1.88,1.88,0,0,0,.14.89,2.46,2.46,0,0,1-.38,3.49,2,2,0,0,0-.41,1.13c-.21,2.16-.44,4.32-.55,6.49a31,31,0,0,1-1,6.16,3.88,3.88,0,0,1-2.09,2.5,1.4,1.4,0,0,1-2.08-1.29q0-5.91,0-11.83C59.61,138.1,59.61,137.84,59.61,137.45ZM50,135c.32,0,.49,0,.66-.08l4.55-1c.67-.15,1.34-.3,2-.47s1.43-.43,2.16-.58c.38-.08.58-.25.61-.6q.08-.86.12-1.73c.08-1.61.16-3.22.22-4.83a2.13,2.13,0,0,0-.11-1.18,10.28,10.28,0,0,0-1.62-1.75,10.65,10.65,0,0,0-1.59-1c-.11-.07-.36-.09-.43,0a3.79,3.79,0,0,0-1.21,1.65,19,19,0,0,1-1.05,3c-.61,1.34-1.34,2.63-2,3.94-.51,1-1,2-1.48,3.05C50.56,133.93,50.29,134.41,50,135Z"/><path class="a" d="M150.32,125.43c-.32,1.17-.62,2.24-.9,3.31s-.63,2.38-.92,3.58c-.09.36-.32.36-.61.42a3,3,0,0,1-3.26-1.2,2.47,2.47,0,0,1-.25-2.12c.27-2,.55-4.1.82-6.15a1.42,1.42,0,0,0-.41-1.24,3.41,3.41,0,0,1,1.05-5.2.8.8,0,0,0,.52-.77c.08-1.59.25-3.18.3-4.77.08-2.6.05-5.2.13-7.79a4.73,4.73,0,0,1,1.91-3.52,8.7,8.7,0,0,1,5.47-2.08,19.72,19.72,0,0,1,10.42,2.6,9.58,9.58,0,0,1,3.64,3.12,5.37,5.37,0,0,1,0,6.09,11.52,11.52,0,0,1-4.79,4.1l-9.59,4.92-.34.17a36.26,36.26,0,0,0,3.16,2.76c2.54,1.76,5.16,3.4,7.75,5.07.45.29,1,.46,1.45.7a7,7,0,0,1,2.87,2.55,2.6,2.6,0,0,1-.13,2.89c-.83,1.34-1.8,1.59-3.1.65a16.54,16.54,0,0,0-4.2-2,38.41,38.41,0,0,1-6.83-3.64C153.13,127.1,151.77,126.3,150.32,125.43Zm1.74-11.57a3.48,3.48,0,0,0,.65-.18l3.31-1.9a6.54,6.54,0,0,1,.79-.41,8.38,8.38,0,0,0,1.49-.57,37,37,0,0,0,3-2.22c.73-.59,1.61-1.09,1.87-2.09a1,1,0,0,0-.13-.84,5.36,5.36,0,0,0-1.35-1,21,21,0,0,0-5.6-1.86,11.08,11.08,0,0,0-4.33,0l.34.73a4.18,4.18,0,0,1,.73,2.3c-.19,1.48-.37,3-.53,4.45C152.23,111.47,152.16,112.6,152.06,113.86Z"/><path class="a" d="M225.57,112.19c-2,.56-3.88,1.09-5.78,1.67a13.7,13.7,0,0,0-2.44,1c-1.65.88-2,2.29-1.85,4.14,0,.48.13,1,.23,1.6l1.77-1.41c.3.8.58,1.54.83,2.29a.68.68,0,0,1,0,.4,11.3,11.3,0,0,1-3.28,4.92c-.85.75-2,.76-3.1.94-.1,0-.27-.23-.37-.38a9.22,9.22,0,0,1-1-4c-.24-1.71-.44-3.43-.67-5.14a.87.87,0,0,0-.26-.45,4.25,4.25,0,0,1-1.26-2.83,3.32,3.32,0,0,1,.56-2.06,6.1,6.1,0,0,0,1.19-3.53c.1-1.49.32-3,.48-4.44s.34-2.69.4-4,0-2.43-.09-3.64a1.15,1.15,0,0,1,.43-1,7.84,7.84,0,0,1,2.47-1.75,3,3,0,0,1,3.13.09A2.6,2.6,0,0,1,218,97.41c-.6,3.34-1.13,6.7-1.69,10.05l-.28,1.69,2.33-.43,6-1.14c.17,0,.35,0,.52,0,1.26-.11,1.62-.41,1.91-2,.23-1.21.32-2.45.46-3.67.12-1,.2-2.1.31-3.15a.73.73,0,0,0-.33-.82.61.61,0,0,1-.23-.52,10.49,10.49,0,0,1,4.3-6.12,1.74,1.74,0,0,1,.26-.1l.54.89.68-.86a3,3,0,0,1,1.42,2.2A20.53,20.53,0,0,1,234,96.9c-.21,2-.5,4-.74,6-.16,1.28-.22,2.57-.46,3.84-.42,2.18-1,4.34-1.43,6.51q-1.19,5.51-2.37,11c-.24,1.11-.53,2.21-.7,3.32a2.42,2.42,0,0,1-2.92,1.78,2.27,2.27,0,0,1-1.62-2.73c.42-2.38.9-4.76,1.27-7.16.24-1.55.33-3.13.48-4.7.06-.66.1-1.31.12-2A4.38,4.38,0,0,0,225.57,112.19Z"/><path class="a" d="M176.66,111.26c.57-.28,1.08-.54,1.6-.77a14.35,14.35,0,0,1,7.24-1.5,12.35,12.35,0,0,1,1.59.23.89.89,0,0,1,.49.38,4.38,4.38,0,0,1,.31,4.13,2.12,2.12,0,0,1-2.05,1.32c-1,0-1.92-.1-2.87-.1a13.31,13.31,0,0,0-7.63,2.21.82.82,0,0,0-.33.45c-.43,2.12-.84,4.25-1.25,6.38a1.87,1.87,0,0,0,0,.29l2.56-.22c3.67-.27,6.91-2,10.27-3.22.44-.17.67-.15,1,.26,1,1.39.78,2.66-.41,3.92a9.73,9.73,0,0,1-3.36,2.24c-1.58.67-3.12,1.44-4.68,2.14a15.93,15.93,0,0,1-5,1.2c-1,.11-2.1.08-3.15.11s-1.33-.65-1.74-1.33a1.58,1.58,0,0,0-.51-.49,1.93,1.93,0,0,1-.92-1.83c0-1.51.07-3,.23-4.53.24-2.35.44-4.72.91-7,.79-3.89,1.73-7.76,2.72-11.61a6.63,6.63,0,0,1,1.37-2.29c1.51-1.89,3.64-3.07,5.41-4.66a5,5,0,0,1,3.79-1.27c2.64.06,5.28,0,7.92-.07h.75c-.15,1.68.34,3.33-.5,4.88a2.16,2.16,0,0,1-2.48,1.09A12.17,12.17,0,0,0,180,102a2,2,0,0,0-1.4,1.58,46.84,46.84,0,0,1-2,7.38A1.67,1.67,0,0,0,176.66,111.26Z"/><path class="a" d="M131.76,114.84l1.88-.72a17.37,17.37,0,0,1,6.75-1.4,7.44,7.44,0,0,1,2.6.76c1.12.5,1.21,1.58,1.05,2.62s-.49,2.32-.74,3.48a2.54,2.54,0,0,1-.42-.07,11.59,11.59,0,0,0-6.52-.26c-1.65.29-3.3.57-4.95.85a1.8,1.8,0,0,0-1.42,1.66c-.35,2-.55,4-.79,6-.16,1.38-.3,2.76-.43,4.14,0,.46,0,.92,0,1.38a4.54,4.54,0,0,1-.84,2.63,2.43,2.43,0,0,1-2.86.72,2.19,2.19,0,0,1-1.44-2.15c0-1.75.06-3.51.15-5.26.08-1.53.23-3.06.36-4.59.06-.73.15-1.46.22-2.2a3.5,3.5,0,0,0,0-.52c-.56,0-1.11.43-1.48-.38-.48-1.06-.51-1.84.15-2.53s1.09-1.17,1.69-1.7a2.24,2.24,0,0,0,.68-1.41c.48-2.74.81-5.52,1.52-8.2a11.09,11.09,0,0,1,4.58-6.85,4.89,4.89,0,0,1,2.26-.65,39.06,39.06,0,0,1,8.77.17,15.86,15.86,0,0,0,1.67.12c.38,0,.52.2.6.59a5.79,5.79,0,0,1-1.5,4.8.53.53,0,0,1-.44.13,24.15,24.15,0,0,0-3-.61,7.87,7.87,0,0,0-5.09,1.13,2.73,2.73,0,0,0-1,1.35c-.67,2.17-1.23,4.36-1.83,6.55C131.82,114.51,131.81,114.61,131.76,114.84Z"/><path class="a" d="M209.06,94.4a1.25,1.25,0,0,1-.14.25,43.18,43.18,0,0,1-8.7,7,4.14,4.14,0,0,1-1.78.35c-.24,0-.5-.32-.75-.5a3.69,3.69,0,0,0,.06,4.83c1.8,1.92,3.63,3.83,5.5,5.69,1,.95,2,1.81,2.23,3.23a1,1,0,0,1,.05.29,1.57,1.57,0,0,0,.81,1.59c.12.09.31.25.3.34-.14.8.13,1.73-.61,2.34s-1.86,1.36-2.73,2.11c-.67.58-1.22,1.3-1.86,1.92a10.73,10.73,0,0,1-1.52,1.32c-1.74,1.16-3.5,2.3-5.29,3.38a4.12,4.12,0,0,1-4.64.11,3,3,0,0,1-.86-3.85.66.66,0,0,1,.21-.2c2.58-1.59,5.15-3.18,7.75-4.73.24-.14.66,0,1,0s.46.15.54.08a5.19,5.19,0,0,0,1-1.27,1.09,1.09,0,0,0-.25-.95c-.88-.91-1.81-1.79-2.75-2.64-1.62-1.45-3.34-2.78-4.87-4.32a6.45,6.45,0,0,1-1.73-5.33,11.26,11.26,0,0,1,3.72-7.22,32.18,32.18,0,0,1,8.45-6.11,10.1,10.1,0,0,1,2.75-1,2.58,2.58,0,0,1,2.78,2.44c0,.64.21.87.83.76A2,2,0,0,1,209.06,94.4Z"/><path class="a" d="M78.72,126.42c0-2.41,0-4.43,0-6.44,0-.42.09-.83.1-1.25,0-.73-.14-.85-.85-.7a1.41,1.41,0,0,1-1.79-.78,1.36,1.36,0,0,1,.18-1.47,7,7,0,0,1,3.37-3.09c.41-.14.72-.6,1.07-.92.52-.48,1-1,1.56-1.44a1,1,0,0,1,1.21-.13,3.44,3.44,0,0,1,1.73,1.91,12.29,12.29,0,0,1,.61,3.08,41.31,41.31,0,0,1-1,9.84c-.83,4.64-1.63,9.29-2.58,13.91-.54,2.65-1.32,5.24-2,7.85a1.23,1.23,0,0,1-.58.68A11.58,11.58,0,0,1,73.49,149a1.17,1.17,0,0,1-.75-.35,26.56,26.56,0,0,1-4.66-8.3,18.92,18.92,0,0,1-.86-6.18.58.58,0,0,1,.4-.63,8.32,8.32,0,0,1,3.88-.54.84.84,0,0,1,.45.24c1.73,1.53,2.63,3.63,3.75,5.58a.34.34,0,0,1,0,.27,9.13,9.13,0,0,1-.85,1.7.74.74,0,0,0,0,1.1c.81.9,1,1.06,1.53-.27a9.79,9.79,0,0,0,.42-2.34c.41-2.59.84-5.18,1.23-7.77C78.33,129.71,78.54,127.87,78.72,126.42Z"/><path class="b" d="M25.71,130.87a20.86,20.86,0,0,1,0-2.18c.13-1.26.34-2.52.52-3.78a6.4,6.4,0,0,1,1.62-3.22,1.26,1.26,0,0,1,.78-.36,16.12,16.12,0,0,1,5.45.32c1.78.44,2,1,1.05,2.48a13.13,13.13,0,0,1-4.56,4.14c-1.33.81-2.71,1.51-4.08,2.25C26.31,130.61,26.11,130.69,25.71,130.87Z"/><path class="b" d="M24.14,142.28c0-.09,0-.15,0-.21,0-1.2.33-1.42,1.47-1.1l6.6,1.88a3.67,3.67,0,0,1,1,.35c.37.23.43.57,0,.86a20.1,20.1,0,0,1-1.9,1.34,31.35,31.35,0,0,1-7,3l-.41.1c-.43.11-.6.05-.52-.5C23.67,146.07,23.89,144.16,24.14,142.28Z"/><path class="b" d="M93.95,126.82c.22-.42.39-.74.55-1.07,1-2,2-4,3-6a14.48,14.48,0,0,0,1.75-4.24,3.23,3.23,0,0,1,1-1.72.6.6,0,0,1,.86-.13c.74.56,1.45,1.16,2.17,1.75.06,0,.07.15.13.19,1,.63.9,1.54.81,2.53-.15,1.69-.18,3.39-.23,5.08,0,1.34,0,1.31-1.29,1.61-.63.15-1.22.43-1.84.63a7.45,7.45,0,0,1-.81.18l-5.73,1.18Z"/><path class="b" d="M50,135c.33-.61.59-1.09.84-1.59.5-1,1-2,1.48-3.05.66-1.32,1.4-2.6,2-3.94a19,19,0,0,0,1.05-3,3.79,3.79,0,0,1,1.21-1.65c.07-.07.32,0,.43,0a10.65,10.65,0,0,1,1.59,1,10.28,10.28,0,0,1,1.62,1.75,2.13,2.13,0,0,1,.11,1.18c-.06,1.61-.14,3.22-.22,4.83q0,.86-.12,1.73c0,.36-.23.53-.61.6-.73.15-1.44.4-2.16.58s-1.34.32-2,.47l-4.55,1C50.46,135,50.29,135,50,135Z"/><path class="b" d="M152.06,113.86c.1-1.27.17-2.39.29-3.52.16-1.48.34-3,.53-4.45a4.18,4.18,0,0,0-.73-2.3l-.34-.73a11.08,11.08,0,0,1,4.33,0,21,21,0,0,1,5.6,1.86,5.36,5.36,0,0,1,1.35,1,1,1,0,0,1,.13.84c-.26,1-1.14,1.5-1.87,2.09a37,37,0,0,1-3,2.22,8.38,8.38,0,0,1-1.49.57,6.54,6.54,0,0,0-.79.41l-3.31,1.9A3.48,3.48,0,0,1,152.06,113.86Z"/><path class="c" d="M233.1,129.91a2.39,2.39,0,1,0-2.39-2.39,2.39,2.39,0,0,0,2.39,2.39Zm0-.41a2,2,0,1,1,2-2,2,2,0,0,1-2,2Z"/><path class="c" d="M232.61,127.72h.47l.72,1.18h.46l-.77-1.2a.71.71,0,0,0,.7-.75c0-.54-.32-.77-1-.77h-1v2.72h.41v-1.18Zm0-.35v-.84h.56c.29,0,.59.06.59.4s-.31.44-.66.44Z"/></svg>