<svg xmlns="http://www.w3.org/2000/svg" viewBox="0 0 250 250"><defs><style>.a{fill:#e27eb1;}.b{fill:#005da9;}.c{fill:#085eaa;}</style></defs><title>Fast Food</title><path class="a" d="M34.14,156.92c0-1.22.09-2.44.14-3.65,0-.36,0-.71,0-1.07s0-.51.48-.6a31.6,31.6,0,0,0,4-1,21.94,21.94,0,0,0,6.71-3.37A9.13,9.13,0,0,0,48.13,144a6.63,6.63,0,0,0,.66-3.59A6.76,6.76,0,0,0,46.65,136a10.45,10.45,0,0,0-3.23-2,20.14,20.14,0,0,0-5.17-1.35,18.57,18.57,0,0,0-2.09-.19c-.37,0-.42-.06-.48-.44a1.23,1.23,0,0,1,0-.22c0-1-.09-1.9-.11-2.85s-.1-2-.15-2.94-.07-.87.76-1a18.29,18.29,0,0,0,6-1.92,9.05,9.05,0,0,0,3.6-3.18,7.15,7.15,0,0,0,.6-6.75,6.23,6.23,0,0,0-2.41-2.75,11.39,11.39,0,0,0-3.32-1.5,23.94,23.94,0,0,0-5.32-.86Q34.1,108,32.92,108c-.46,0-.53-.07-.56-.55s-.06-1.1-.08-1.65c0-.82-.09-1.63-.13-2.45-.06-1.35-.15-2.7-.24-4,0-.56,0-1.13-.08-1.69-.07-.74-.09-1.48-.11-2.23,0-.49,0-.52.53-.53,1.38,0,2.76.08,4.14.16a47.18,47.18,0,0,1,6.59.82,28.28,28.28,0,0,1,6.95,2.24A16.59,16.59,0,0,1,55,101.76a14,14,0,0,1,3.44,7,18.49,18.49,0,0,1,.35,3.9,13.59,13.59,0,0,1-1.26,5.44A16.2,16.2,0,0,1,54,123a19,19,0,0,1-4,3l-.18.11c0,.15.13.11.21.12a12.59,12.59,0,0,1,5.86,2.46,10.19,10.19,0,0,1,3.58,5.21,14.7,14.7,0,0,1-.09,9.21,13.48,13.48,0,0,1-2.81,4.67,22.89,22.89,0,0,1-7.66,5.36,47.79,47.79,0,0,1-12.7,3.64,3.81,3.81,0,0,0-.92.16Z"/><path class="b" d="M176.53,93.08a1.22,1.22,0,0,0,.57.07c1,0,1.93,0,2.9.09.39,0,.44.07.42.45,0,.13,0,.27,0,.4,0,1.71-.06,3.42-.12,5.13-.08,2.14-.11,4.28-.19,6.42,0,1.2,0,2.41-.12,3.61a.15.15,0,0,0,.08.17c.15,0,.24-.18.35-.29l4.69-4.65,4.58-4.5.19-.18a.25.25,0,0,1,.39,0l.26.25c.85.87,1.74,1.71,2.56,2.62.33.37.34.36,0,.7l-4.68,4.6c-.49.48-.45.42-.06.93l5.17,6.66c.45.59.45.58-.13,1l-2.76,2.19-.17.14c-.17.14-.31.12-.45-.06-.4-.52-.8-1-1.21-1.55l-4.09-5.24c-.25-.31-.25-.32-.54,0l-1.52,1.51-7.4,7.3c-.11.11-.2.33-.38.24s0-.27,0-.41,0-.12,0-.18c0-1.59.06-3.18.12-4.77.07-2.09.12-4.19.19-6.29.06-1.9.11-3.8.17-5.71s.13-4,.18-6.06c0-1.53.11-3.06.17-4.59Z"/><path class="b" d="M236.53,133.7a3.4,3.4,0,0,1-6.63-.12,3.39,3.39,0,0,1,3.32-4.05,3.31,3.31,0,0,1,3.22,2.31l.09.25Zm-5.81-.77a2.57,2.57,0,0,0,2.51,2.58,2.66,2.66,0,0,0,2.55-2.63,2.59,2.59,0,0,0-2.58-2.55A2.52,2.52,0,0,0,230.72,132.93Z"/><path class="c" d="M104.22,114.7a23.82,23.82,0,0,1-1.07,6.27A21.44,21.44,0,0,1,99,128.63a23.06,23.06,0,0,1-6.37,5.18,22.57,22.57,0,0,1-3.78,1.69c-.42.14-.44.19-.26.61l6.94,16.3c.22.51.43,1,.64,1.52.12.31.1.35-.23.41l-4.31.71c-.44.07-.88.13-1.32.22a.49.49,0,0,1-.59-.26c-.15-.24-.31-.47-.47-.71Q84,146.53,78.85,138.74a1.57,1.57,0,0,1-.28-1.2c.32-2.09.61-4.18.89-6.27a.7.7,0,0,1,.54-.65,27.63,27.63,0,0,0,6.6-3.21,13.91,13.91,0,0,0,3.68-3.47,7.3,7.3,0,0,0,1.43-4.16,6.48,6.48,0,0,0-1.5-4.25,11.44,11.44,0,0,0-3.53-2.82,20.85,20.85,0,0,0-4.81-1.86l-.17,0c-.41-.11-.44-.13-.42-.55s.06-.8.1-1.2c.14-1.44.28-2.87.41-4.31s.26-2.9.39-4.35c.09-1,.18-2,.28-3,0-.46.1-.5.57-.4a43.42,43.42,0,0,1,6.22,1.75,39.29,39.29,0,0,1,4.31,1.83,25.9,25.9,0,0,1,5.4,3.53,15.68,15.68,0,0,1,3.8,4.68,12.45,12.45,0,0,1,1.4,5.13C104.17,114.19,104.2,114.44,104.22,114.7Z"/><path class="a" d="M66.1,153.43c.12-4.7,0-9.4.11-14.1.07-3.87,0-7.74.08-11.6s0-7.8.09-11.69,0-7.74.09-11.6c.08-3,0-6,.07-9,0-.1,0-.21,0-.31a.24.24,0,0,1,.23-.23,2.69,2.69,0,0,1,.4,0c1.2.09,2.4.11,3.61.16l4.9.2c1.26,0,2.52.13,3.79.16h.22a.29.29,0,0,1,.31.34c0,.34-.06.68-.09,1-.14,1.27-.28,2.54-.41,3.81s-.26,2.6-.39,3.9c-.1,1-.21,2-.31,3s-.2,2-.31,3l-.41,3.9-.31,3-.32,3.1-.31,3-.4,3.86-.31,3-.32,3.1-.31,3-.4,3.86-.31,3-.32,3.1q-.15,1.46-.3,2.93c-.13,1.27-.26,2.54-.39,3.81-.11,1-.22,2-.32,3.06-.05.51-.08.52-.61.54-.73,0-1.46-.07-2.18-.07l-4.15,0h-.36c-.33,0-.39-.07-.39-.4,0-.51,0-1,0-1.52S66.1,153.83,66.1,153.43Z"/><path class="b" d="M28.63,155.6c-.82,0-1.64,0-2.45-.08-.41,0-.44,0-.53-.45L24.05,148l-1.95-8.66-2.91-13-2.28-10.1-3.39-15.06c0-.06,0-.12,0-.17-.06-.22,0-.34.25-.38l1.71-.33,9.47-1.77,3.42-.64.26,0c.19,0,.27.07.28.25,0,.42.06.83.07,1.25,0,1.41.06,2.83.12,4.24.07,1.74.12,3.48.18,5.22s.12,3.42.18,5.13.12,3.48.18,5.22.12,3.48.18,5.22.12,3.51.18,5.26.12,3.39.18,5.08.12,3.51.18,5.26.12,3.39.18,5.08.13,3.54.18,5.31c0,1.49.11,3,.16,4.46,0,.1,0,.21,0,.31,0,.39-.05.44-.44.44Z"/><path class="b" d="M120.16,103.54c.35-.21.65-.4,1-.58a10.46,10.46,0,0,1,6.44-1.34,10.33,10.33,0,0,1,6.08,2.74,8.78,8.78,0,0,1,2.92,5.85A8.88,8.88,0,0,1,133.3,118a10.3,10.3,0,0,1-7.69,2.49,9.71,9.71,0,0,1-3.24-.77c-.45-.19-.48-.15-.42.32q.15,1.22.28,2.44c0,.32,0,.4-.35.44l-3.19.36c-.27,0-.53.07-.8.08s-.37,0-.42-.33-.09-.68-.13-1q-.4-3.59-.8-7.18c-.25-2.27-.49-4.55-.75-6.83s-.52-4.55-.77-6.82q-.23-2-.45-4a1.7,1.7,0,0,1,0-.18c0-.31,0-.37.35-.4l2.39-.27,1.46-.17c.46,0,.51,0,.56.45.21,1.82.41,3.63.62,5.45A11.75,11.75,0,0,0,120.16,103.54Zm6.2,12.14a5.41,5.41,0,0,0,4.22-1.7,4.07,4.07,0,0,0,1-4.16,4.56,4.56,0,0,0-2.15-2.63,5.77,5.77,0,0,0-3.38-.8,5.39,5.39,0,0,0-4,2,4.19,4.19,0,0,0,.57,6A5.48,5.48,0,0,0,126.36,115.68Z"/><path class="b" d="M171.56,126.63h1.83c.52,0,.55,0,.55.56,0,1.09,0,2.17,0,3.26,0,.77.07,1.54.07,2.32,0,.34.05.37.37.21a10,10,0,0,1,10.59,1.2,8.6,8.6,0,0,1,3.29,5.69,7.73,7.73,0,0,1-.66,4.44,9.11,9.11,0,0,1-6.92,5.21,9.89,9.89,0,0,1-6.18-.82l-.12-.06c-.16-.07-.26,0-.27.15s0,.24,0,.36c0,.55,0,1.1,0,1.65,0,.36-.05.41-.41.42l-3.84.07c-.49,0-.5,0-.52-.55-.12-3.09,0-6.19-.1-9.28s0-6.37-.09-9.55c0-1.52,0-3-.06-4.55,0-.09,0-.18,0-.27,0-.39.06-.44.44-.45h2Zm7,10.19a4.64,4.64,0,0,0-2.84.89,3.71,3.71,0,0,0-1.59,3.05,3.46,3.46,0,0,0,1.31,2.78,5.19,5.19,0,0,0,5.71.88,3.87,3.87,0,0,0,2.14-2.17,3.79,3.79,0,0,0-1.22-4.22A5.23,5.23,0,0,0,178.61,136.82Z"/><path class="b" d="M151.79,130.66h1.92c.46,0,.52,0,.5.52-.05,1.65-.08,3.3-.08,5,0,.22,0,.45,0,.67s.06.38.37.25a11.14,11.14,0,0,1,1.56-.53,9.88,9.88,0,0,1,9,2,8.34,8.34,0,0,1,3.14,5.63,8,8,0,0,1-1.71,6.11,9.23,9.23,0,0,1-6.62,3.52,9.9,9.9,0,0,1-5.45-1l-.24-.12c-.15-.07-.22,0-.24.14a7.11,7.11,0,0,0-.06,1.11c0,.3,0,.6,0,.89s0,.47-.5.48a7.91,7.91,0,0,1-.85,0c-1-.09-1.93,0-2.9-.06-.55,0-.61-.06-.58-.58.12-2,0-3.93.09-5.89.08-2.35,0-4.7.1-7,.07-2,0-4.08.08-6.11,0-1.5.06-3,.07-4.51,0-.46,0-.48.48-.47h1.92Zm7.33,18.4a4.58,4.58,0,0,0,3.43-1.5,3.8,3.8,0,0,0,1-2.52,3.44,3.44,0,0,0-1-2.45,5.35,5.35,0,0,0-6.15-1.13,3.76,3.76,0,0,0-.7,6.45A5.4,5.4,0,0,0,159.11,149.06Z"/><path class="b" d="M148.49,104.42a10.11,10.11,0,0,1,5.32,1.4l.16.09c.15.07.22,0,.24-.14,0-.41.08-.83.09-1.25,0-.73,0-.76.77-.71l3.65.25c.4,0,.43.07.42.47,0,.76,0,1.52-.11,2.27s-.07,1.42-.13,2.14c-.1,1.42-.14,2.85-.22,4.27s-.16,2.55-.23,3.83c0,.59-.06,1.19-.09,1.78-.09,1.42-.14,2.85-.21,4.28,0,.24,0,.47-.07.71a.28.28,0,0,1-.32.29h-.49l-3.2-.19h-.13c-.62-.07-.62-.07-.61-.71,0-.3,0-.6,0-.89s-.06-.29-.3-.18a10.88,10.88,0,0,1-1.9.65,10.48,10.48,0,0,1-9.43-2.12,8.69,8.69,0,0,1-3.1-5.08,8.49,8.49,0,0,1,1.63-7.16,10,10,0,0,1,6.71-3.87,6.18,6.18,0,0,1,.66-.08C147.9,104.41,148.19,104.42,148.49,104.42Zm-.16,13.85a5.53,5.53,0,0,0,4.25-1.62,4.08,4.08,0,0,0-.37-6.11,5.94,5.94,0,0,0-7.28-.12,4.16,4.16,0,0,0-1.39,4.9,4.46,4.46,0,0,0,2,2.18A5.14,5.14,0,0,0,148.33,118.27Z"/><path class="b" d="M207.9,100l12.61,13c0-.56.09-1,.1-1.47,0-1.49,0-3,.13-4.46.07-1.11,0-2.23.13-3.34,0-.42.06-.47.5-.43,1,.09,2,0,3,.13.31,0,.62,0,.94,0s.39.08.39.41c0,1.16-.08,2.32-.12,3.48,0,.13,0,.27,0,.4,0,1.43-.06,2.85-.12,4.28-.07,1.83-.12,3.66-.19,5.48s-.13,3.39-.17,5.08c0,.58-.06,1.15-.1,1.71-.16.07-.22,0-.29-.11l-4.34-4.49-.18-.19-4.7-4.83-3.12-3.25-.1-.07c-.08,0-.08.09-.08.15q0,1.31-.1,2.63-.1,2.81-.2,5.62c0,.37,0,.74-.07,1.11s-.1.36-.37.33c-1.05-.1-2.11,0-3.16-.11-.31,0-.62,0-.94,0s-.34-.09-.33-.36q.1-2.58.2-5.17c0-.09,0-.18,0-.27,0-1.37.06-2.74.12-4.1.07-1.69.12-3.39.18-5.08s.13-3.21.17-4.81c0-.41.06-.83.09-1.24Z"/><path class="b" d="M211.42,141.14a1,1,0,0,0,.08-.56q0-3.7,0-7.41c0-.65,0-.65.64-.65h3.48c.66,0,.66,0,.66.68q0,9.28,0,18.56,0,.69,0,1.38c0,.1,0,.21,0,.31s0,.15-.11.17a.17.17,0,0,1-.15-.07l-.83-.93-3.09-3.51-3.74-4.25-3-3.34-.94-1.07a1.26,1.26,0,0,0-.4-.38c-.13.12-.08.27-.08.41q0,3.93,0,7.85c0,.15,0,.3,0,.45a.27.27,0,0,1-.28.28h-4c-.54,0-.57,0-.57-.59q0-4.8,0-9.59c0-1.49,0-3,0-4.46.06-2.19,0-4.37.05-6.56a.5.5,0,0,1,.11-.43c.71.71,1.34,1.49,2,2.24l2,2.31,2,2.27,2,2.27,2,2.31Z"/><path class="b" d="M147.64,144.18a8.47,8.47,0,0,1-4.34,7.39,9.13,9.13,0,0,1-4.21,1.35,9.76,9.76,0,0,1-8.3-3.34,8.36,8.36,0,0,1-.93-9.92,9.08,9.08,0,0,1,4-3.52,9.59,9.59,0,0,1,3.8-.9,10.17,10.17,0,0,1,7.6,3.18A8.42,8.42,0,0,1,147.64,144.18Zm-9.36,3.9a4.89,4.89,0,0,0,3.08-1,3.79,3.79,0,0,0,1.38-4,4,4,0,0,0-1.33-2,5.18,5.18,0,0,0-3.7-1.12,4.53,4.53,0,0,0-3.32,1.59,3.56,3.56,0,0,0-.88,2.85,3.89,3.89,0,0,0,2.09,2.94A5.15,5.15,0,0,0,138.28,148.09Z"/><path class="b" d="M129.79,134.86c0,.4,0,.8,0,1.2s0,.42-.4.48a10.26,10.26,0,0,0-2.7.76,4.86,4.86,0,0,0-2.92,3.28,8,8,0,0,0-.22,2.61c0,.24,0,.47,0,.71,0,1.62,0,3.24.13,4.86.07,1.32,0,2.65.14,4a3,3,0,0,1,0,.31c0,.42,0,.45-.45.48-1,.07-2,.08-3,.09-.31,0-.62,0-.93,0s-.42-.06-.45-.4a.88.88,0,0,1,0-.09c0-1-.08-2-.09-3,0-1.58-.09-3.15-.13-4.73,0-1.95-.11-3.89-.17-5.84s-.13-4.13-.18-6.2c0-.59-.07-1.19-.06-1.78,0-.39,0-.44.43-.45l3.88-.1c.46,0,.5,0,.51.51s0,1,0,1.47a2.91,2.91,0,0,0,0,.31c0,.31.09.34.36.18a12.13,12.13,0,0,1,1.67-.84,14.44,14.44,0,0,1,3.88-1c.41,0,.49,0,.48.42C129.67,133.08,129.8,134,129.79,134.86Z"/><path class="b" d="M170.22,99.1a.31.31,0,0,1,.31.21l.47.86c.3.55.6,1.1.89,1.65.19.36.18.39-.16.61-1,.67-2.07,1.34-3.12,2a4,4,0,0,0-.95.81,1.39,1.39,0,0,0-.21,1.69c1.33,2.48,2.54,5,3.82,7.52a6.77,6.77,0,0,1,.73,2.23,3.2,3.2,0,0,1-1.5,3.34c-1.6,1-3.23,2-4.85,3l-1.21.75c-.29.18-.33.17-.49-.1q-.75-1.24-1.49-2.49c-.2-.33-.18-.38.17-.59l3.38-2.09a1.92,1.92,0,0,0,.89-2.52,6.39,6.39,0,0,0-.27-.61q-1.62-3.31-3.36-6.55a5.92,5.92,0,0,1-.69-2.79,3.72,3.72,0,0,1,1.87-3.43l3.65-2.25,1.75-1.08Z"/><path class="b" d="M226.45,130.51c.15,0,.21.11.27.21.18.32.36.65.54,1,.28.52.57,1,.85,1.57.16.31.15.34-.15.54l-3,1.94a5,5,0,0,0-1,.75,1.5,1.5,0,0,0-.26,2q1.76,3.36,3.42,6.77a11,11,0,0,1,.84,1.87,4.83,4.83,0,0,1,.21,1.89,3.2,3.2,0,0,1-1.56,2.42l-5.87,3.65-.23.13a.24.24,0,0,1-.35-.08l-.15-.22-1.35-2.26c-.24-.41-.24-.43.18-.69l3.2-2a3,3,0,0,0,.75-.55,1.86,1.86,0,0,0,.35-2,7.23,7.23,0,0,0-.32-.74q-1.15-2.35-2.36-4.65c-.36-.68-.74-1.36-1.08-2.05a5.79,5.79,0,0,1-.57-3.25,3.54,3.54,0,0,1,1.66-2.67c1-.68,2.12-1.32,3.18-2l2.39-1.48A1.17,1.17,0,0,1,226.45,130.51Z"/><path class="b" d="M199.89,121.31H198c-.46,0-.5,0-.51-.52,0,0,0,0,0,0,0-2.51-.08-5-.11-7.54,0-2.23,0-4.46-.09-6.69,0-.94,0-1.87-.06-2.81,0-.12,0-.24,0-.36a.26.26,0,0,1,.28-.28h.13c1.28,0,2.56,0,3.84-.07.51,0,.55,0,.57.56v0c0,2.93,0,5.86.12,8.79.05,2.16.05,4.31.09,6.47,0,.56.06,1.13.06,1.69,0,.73,0,.73-.75.74h-1.7Z"/><path class="b" d="M193.5,149.17c-.92,0-1.84-.11-2.76-.11-.38,0-.48-.1-.44-.49.09-.89,0-1.78.07-2.68.09-2.36.13-4.73.2-7.09,0-1,0-2.05.08-3.08,0-.67.07-1.34.08-2,0-.33.07-.39.4-.39.82,0,1.64,0,2.45.06.49,0,1,0,1.47,0s.53.1.49.54c-.09.94,0,1.87-.08,2.81-.09,2.36-.13,4.73-.2,7.09,0,1,0,2-.07,3,0,.64-.07,1.28-.08,1.92,0,.33-.07.38-.4.39Z"/><path class="b" d="M193.23,131.77a2.73,2.73,0,0,1-2.31-1.12,2.32,2.32,0,0,1,.53-3.29,2.87,2.87,0,0,1,4.06.53,2.36,2.36,0,0,1-.14,2.93A2.73,2.73,0,0,1,193.23,131.77Z"/><path class="b" d="M199.32,101.41a2.69,2.69,0,0,1-2.17-1.19,2.31,2.31,0,0,1,.51-3.12,2.89,2.89,0,0,1,3.52-.18,2.38,2.38,0,0,1,0,3.94A3,3,0,0,1,199.32,101.41Z"/><path class="b" d="M233.06,131a3.36,3.36,0,0,1,.88.08.94.94,0,0,1,.78.81,1.17,1.17,0,0,1-.42,1.19l-.15.09c-.26.15-.26.15-.1.43l.48.8c.06.1.15.21.07.32s-.21.07-.33,0a.75.75,0,0,1-.52-.38c-.18-.29-.36-.58-.55-.86a.62.62,0,0,0-.2-.23.24.24,0,0,0-.37.17,2.29,2.29,0,0,0,0,.35c0,.19,0,.39,0,.58s-.06.33-.28.33a.41.41,0,0,1-.4-.34,2.43,2.43,0,0,1,0-.44q.08-1.27.16-2.53c0-.36.07-.4.43-.42h.58Zm0,1.59a3.82,3.82,0,0,0,.44,0,.47.47,0,0,0,.45-.45.46.46,0,0,0-.44-.47,7,7,0,0,0-.84,0c-.18,0-.25.12-.26.29C232.41,132.58,232.46,132.63,233.09,132.62Z"/></svg>