<svg xmlns="http://www.w3.org/2000/svg" viewBox="0 0 250 250"><title>CR</title><path d="M133.66,194.52h0a2,2,0,0,0-.18-.28q-1.68-1.84-3.24-3.78a57.59,57.59,0,0,1-5-7.29c-.08-.14-.11-.39-.3-.39s-.23.23-.31.38c-.79,1.43-1.68,2.79-2.6,4.14a65.73,65.73,0,0,1-5.2,6.53c-.57.64-.65.64-1-.13v0a20.09,20.09,0,0,0-1-2.83,60.5,60.5,0,0,1-2.62-10c-.06-.37-.18-.36-.39-.15a24,24,0,0,1-2.56,2.06c-1.06.79-2.1,1.63-3.22,2.33-1.87,1.16-3.77,2.3-5.72,3.32l-.4.11a8.54,8.54,0,0,0-.06-1.09c0-2.15,0-4.31.09-6.46.06-.87.16-1.73.24-2.59.14-1.4.37-2.79.63-4.17,0-.21,0-.28-.2-.2l-.36.13a52.16,52.16,0,0,1-7.55,2.21c-1.27.27-2.54.51-3.81.76l-.21.06-.74.07a3.16,3.16,0,0,0-1,.15l-.29,0c-.17-.15,0-.3,0-.43A60.13,60.13,0,0,1,92,164.76c.15-.26.48-.59.36-.77s-.57-.07-.88-.08l-2.38-.06a7.9,7.9,0,0,0-1.32-.06.7.7,0,0,0-.48,0l-.57,0a1.33,1.33,0,0,0-.57-.06l-.47,0a1,1,0,0,0-.57-.06l-2.76-.39L81.1,163l-2.73-.58c-.47-.1-.49-.13-.19-.51A60.4,60.4,0,0,1,87.64,152c.11-.09.29-.16.26-.31s-.24-.18-.39-.23q-2-.71-4-1.6l-2.58-1.17h0a8.49,8.49,0,0,0-1.62-.86h0c-.09-.15-.25-.19-.38-.27-1.22-.67-2.41-1.39-3.58-2.13-.44-.28-.44-.33,0-.59,1.31-.8,2.63-1.58,4-2.32a53.78,53.78,0,0,1,7.9-3.58c.84-.3.84-.3.18-.87l-.32-.28a59.07,59.07,0,0,1-6.55-6.52,32,32,0,0,0-2.63-3.09c-.09-.08,0-.17.08-.22a.64.64,0,0,0,.14,0,67.17,67.17,0,0,1,8.51-1.36.8.8,0,0,0,.57-.07,5.85,5.85,0,0,0,1.24-.06.13.13,0,0,0,.19,0l3.71,0c.16,0,.08-.12,0-.18a.05.05,0,0,0,0-.06.65.65,0,0,0-.27-.41.4.4,0,0,0-.19-.35.47.47,0,0,0-.19-.32,7.61,7.61,0,0,0-.74-1.39c0-.08-.05-.12-.12-.15l-.06-.25,0-.07-1.34-2.77a1.89,1.89,0,0,0-.37-.79,22.84,22.84,0,0,0-.87-2.16.29.29,0,0,0-.11-.28c-.15-.43-.31-.86-.44-1.3-.27-.85-.63-1.66-.85-2.53-.09-.34-.05-.47.34-.38s.81.13,1.22.19a56.86,56.86,0,0,1,9.65,2.2q1.24.4,2.46.87c.36.14.43,0,.37-.3,0-.08,0-.16,0-.23a51.73,51.73,0,0,1-.89-8.24,52.59,52.59,0,0,1,0-5.32c0-.38.17-.33.4-.21l1.54.84a58.63,58.63,0,0,1,8,5.24c.75.59,1.49,1.2,2.28,1.84.1-.6.19-1.16.3-1.71a56.25,56.25,0,0,1,1.9-7.29c.52-1.58,1.11-3.13,1.74-4.67.13-.3.23-.37.47-.08.39.48.81.93,1.22,1.39a56.49,56.49,0,0,1,6,8.2l1.13,1.89.2-.32a53.5,53.5,0,0,1,3.49-5.43,73.46,73.46,0,0,1,4.72-5.76c.27-.3.37-.15.48.12a60.06,60.06,0,0,1,3.86,13.33c0,.09,0,.21.09.26s.19-.08.27-.14c.48-.39.94-.8,1.42-1.18a59.71,59.71,0,0,1,7.33-5A31.2,31.2,0,0,1,150,101.8a.73.73,0,0,0,.07.48l0,.86v.47l0,4.57a.13.13,0,0,0,0,.19,1.59,1.59,0,0,0,0,.67v.28c-.1,1-.19,2.07-.31,3.11s-.25,1.91-.38,2.86l0,.1-.06.55-.06.13,0,.2c.09.16.18.09.28,0l3.33-1.14.14-.09.24,0a.22.22,0,0,0,.21-.08,1.61,1.61,0,0,0,.95-.33l.45-.06.29-.09c.13,0,.28,0,.38-.09a1.33,1.33,0,0,0,.57-.12l.38-.09a19.25,19.25,0,0,0,2.09-.46h.09l.58-.1.14-.07.54,0a.17.17,0,0,0,.19-.06c1-.13,1.94-.24,2.91-.41.46-.08.42.09.31.4-.2.55-.37,1.11-.56,1.67a55.62,55.62,0,0,1-5,11c-.22.37-.07.39.24.38a51.33,51.33,0,0,1,7.34.39c2.15.27,4.28.63,6.4,1.1.33.07.41.16.18.44-1.35,1.71-2.72,3.4-4.22,5a56.32,56.32,0,0,1-5.22,4.91c-.37.3-.34.41.1.58,1.19.46,2.39.87,3.55,1.41l3.09,1.42a.29.29,0,0,0,.29.16c1.05.59,2.11,1.18,3.16,1.78.79.45,1.56.93,2.34,1.39a.2.2,0,0,1,0,.28c-.13.18-.35.18-.52.29a59.72,59.72,0,0,1-6.17,3.47,53.39,53.39,0,0,1-5.82,2.43c-.13,0-.32.06-.36.19s.15.26.27.34a21.37,21.37,0,0,1,2.51,2.15,60.25,60.25,0,0,1,4.43,4.64c.85,1,1.71,2.07,2.53,3.13.22.28.18.39-.16.46a65.35,65.35,0,0,1-6.92,1.16,53.65,53.65,0,0,1-6.82.37c-.35,0-.41,0-.21.38a55,55,0,0,1,3.63,7.31c.72,1.76,1.36,3.54,1.92,5.36,0,.14.25.4-.16.35q-2.4-.3-4.77-.78a56,56,0,0,1-8.66-2.46c-.14-.05-.31-.2-.44-.09s0,.33,0,.5c.31,1.63.53,3.28.69,4.93a61.6,61.6,0,0,1,.22,7,15,15,0,0,1-.06,1.71c0,.33-.15.34-.42.2a68.68,68.68,0,0,1-6.4-3.81,51.51,51.51,0,0,1-5.16-3.94c-.19-.17-.28-.18-.32.11s-.13.81-.2,1.22a55.64,55.64,0,0,1-2,7.75C134.94,191.28,134.28,192.89,133.66,194.52ZM112.1,167.46a32.53,32.53,0,0,0-.46,4.48,43.13,43.13,0,0,0,.09,5c.08.94.19,1.88.31,2.82,0,.14,0,.36.15.42s.23-.13.33-.22a43.05,43.05,0,0,0,3.72-3.73,37.53,37.53,0,0,0,3-3.86l1.25-1.87c.24,1,.44,1.86.67,2.74a42.9,42.9,0,0,0,3.62,9c0,.08.06.2.17.21s.15-.14.2-.23c.34-.66.69-1.32,1-2a39.54,39.54,0,0,0,2.8-7.75l.47-1.93a3.8,3.8,0,0,1,.6.86,43.55,43.55,0,0,0,7.41,8.6c.31.28.4.14.43-.15.15-1.4.37-2.79.4-4.19a41.31,41.31,0,0,0-.36-7.81c0-.11-.06-.25,0-.31s.19.05.27.12a40.83,40.83,0,0,0,10.51,6c.33.13.32,0,.26-.26-.27-1.1-.51-2.22-.83-3.31a38.89,38.89,0,0,0-3.22-7.94c-.07-.13-.2-.25-.15-.42s.22,0,.32,0c.86.26,1.72.53,2.59.77a38.28,38.28,0,0,0,5.58,1c1.21.14,2.42.2,3.64.3.39,0,.46-.12.25-.43s-.34-.49-.5-.75a38.59,38.59,0,0,0-7-8.35.89.89,0,0,1-.36-.46,20.17,20.17,0,0,0,3.58-.21,42.25,42.25,0,0,0,8.67-2c.08,0,.23,0,.21-.13a.48.48,0,0,0-.19-.25,49,49,0,0,0-4.72-3.26,38.84,38.84,0,0,0-5.7-2.81c-.09,0-.25,0-.24-.18s.13-.12.22-.16a38.8,38.8,0,0,0,4.25-2,43.43,43.43,0,0,0,6.2-4.1c.25-.2.25-.29-.06-.39-.67-.19-1.33-.41-2-.6a41.07,41.07,0,0,0-6.59-1.3c-1.1-.12-2.21-.14-3.31-.26-.09,0-.21,0-.25-.09s.06-.17.13-.23c.22-.2.46-.39.68-.59a39.92,39.92,0,0,0,5.36-6.14,32.29,32.29,0,0,0,1.86-2.86,36,36,0,0,0-5.4.41,39.64,39.64,0,0,0-6.86,1.61c-.1,0-.21.13-.31,0s0-.21.07-.29a35.11,35.11,0,0,0,2.45-5.5,42.73,42.73,0,0,0,1.65-5.93c.06-.28,0-.32-.25-.21l-1.09.47a39.32,39.32,0,0,0-7.63,4.21c-.69.49-1.36,1-2.06,1.5a.89.89,0,0,1,0-.6,22.16,22.16,0,0,0,.33-3.2,43,43,0,0,0-.35-8.1c0-.27.07-.67-.2-.77s-.4.29-.6.47a40.79,40.79,0,0,0-5.83,6.48c-.64.88-1.21,1.8-1.83,2.75-.05-.16-.09-.26-.11-.37s0-.22,0-.33a41.45,41.45,0,0,0-3.84-10.47c-.14-.26-.21-.72-.46-.72s-.37.45-.52.72a41.05,41.05,0,0,0-3.86,10.67c0,.15,0,.34-.18.44l-.57-.9a39.56,39.56,0,0,0-4.37-5.65,40,40,0,0,0-3-2.92c-.19-.17-.35-.25-.4.12s-.12.84-.18,1.27c-.13.92-.17,1.85-.23,2.78a41.1,41.1,0,0,0,0,4.69c.06,1.09.18,2.17.32,3.25,0,.11.08.28-.07.34s-.21-.1-.31-.18q-1.57-1.23-3.25-2.3a42.36,42.36,0,0,0-7.15-3.62c-.1,0-.2-.15-.3-.06s0,.17,0,.26a42,42,0,0,0,3.57,10.42,4.42,4.42,0,0,1,.61,1.31.73.73,0,0,1-.18,0A40.84,40.84,0,0,0,99.12,127a42.69,42.69,0,0,0-6-.61c-.16,0-.39-.1-.48.07s.09.32.18.46a43.52,43.52,0,0,0,7.05,8.6c.25.23.58.38.75.74l-.2,0c-1.28.09-2.56.14-3.83.29a43.12,43.12,0,0,0-8.07,1.83c-.12,0-.33,0-.34.19s.16.22.27.31q1.7,1.33,3.52,2.5a37.55,37.55,0,0,0,6.21,3.26,2.87,2.87,0,0,1,.92.43c-.05,0-.07.08-.1.09a39,39,0,0,0-8.55,4.59c-.7.49-1.38,1-2.07,1.51-.1.07-.24.15-.23.28s.2.11.31.15c.49.17,1,.35,1.49.49a42.3,42.3,0,0,0,9,1.58c.55,0,1.11,0,1.77.11-.59.55-1.11,1-1.6,1.49A39.16,39.16,0,0,0,96,158.88a46.67,46.67,0,0,0-3.26,4.6c-.06.1-.17.22-.09.35s.24.08.35.06c.52-.09,1,0,1.56-.09,1.24-.12,2.48-.23,3.72-.41a39.18,39.18,0,0,0,6.58-1.58c.08,0,.18-.12.26,0s0,.17,0,.26a36.85,36.85,0,0,0-2.79,6.43,48.29,48.29,0,0,0-1.34,5c0,.09-.09.19,0,.27s.2,0,.3,0c.37-.14.74-.29,1.1-.44a40,40,0,0,0,7.2-3.93Z" style="fill:#98cb01"/><path d="M150,101.8a31.2,31.2,0,0,0-3.18,1.69,59.71,59.71,0,0,0-7.33,5c-.48.39-.95.79-1.42,1.18-.08.06-.13.21-.27.14s-.08-.16-.09-.26a60.06,60.06,0,0,0-3.86-13.33c-.11-.27-.2-.42-.48-.12a73.46,73.46,0,0,0-4.72,5.76,53.5,53.5,0,0,0-3.49,5.43l-.2.32-1.13-1.89a56.49,56.49,0,0,0-6-8.2c-.41-.46-.83-.91-1.22-1.39-.24-.29-.35-.22-.47.08-.64,1.54-1.22,3.09-1.74,4.67a56.25,56.25,0,0,0-1.9,7.29c-.1.55-.19,1.11-.3,1.71-.79-.64-1.53-1.25-2.28-1.84a58.63,58.63,0,0,0-8-5.24L100.3,102c-.23-.12-.37-.17-.4.21a52.59,52.59,0,0,0,0,5.32,51.73,51.73,0,0,0,.89,8.24c0,.08,0,.16,0,.23.06.32,0,.43-.37.3q-1.22-.47-2.46-.87a56.86,56.86,0,0,0-9.65-2.2c-.41-.06-.82-.1-1.22-.19s-.43,0-.34.38c.22.87.58,1.68.85,2.53.14.44.3.86.44,1.3-.14.16-.08.24.11.28a22.81,22.81,0,0,1,.87,2.16,1.52,1.52,0,0,0,.08.58c0,.17.06.31.28.21l1.34,2.77a.17.17,0,0,0,0,.07l.06.25a.14.14,0,0,0,.12.15,7.6,7.6,0,0,1,.74,1.39c0,.15,0,.31.19.32a.4.4,0,0,1,.19.35c0,.21-.06.43.27.41a.05.05,0,0,1,0,.06l0,.18-3.71,0c-.08-.12-.14-.09-.19,0a5.85,5.85,0,0,1-1.24.06c-.21-.1-.41-.21-.57.07A67.17,67.17,0,0,0,78.1,128a.64.64,0,0,1-.14,0c0-.26-.09-.4-.36-.38h0v0c0-.19,0-.31-.25-.34h0v0c0-.19,0-.31-.25-.34h0v0a.29.29,0,0,0-.16-.24v0a.13.13,0,0,0-.06-.07l-.13-.2c0-.08,0-.16-.12-.18a.29.29,0,0,1-.16-.21c0-.13,0-.26-.18-.28h0v0l-.1-.14h0c0-.12,0-.2-.15-.21a0,0,0,0,1,0-.06c0-.16,0-.27-.2-.3h0a.25.25,0,0,0-.21-.31l-.08-.11c0-.2,0-.33-.24-.36h0v0l-.09-.14h0l-.08-.1-.5-.8-.1-.15h0l-.07-.11h0v0l-.09-.14h0a.42.42,0,0,0-.3-.48c-.07,0-.09-.08-.09-.14s0-.28-.2-.33h0l-.08-.12h0v0l-.1-.15h0a.18.18,0,0,0-.1-.21l-.1-.13-.1-.15a.15.15,0,0,1-.09-.15l-.08-.14a1.31,1.31,0,0,1-.3-.51c0-.13,0-.23-.15-.25a0,0,0,0,1,0-.06c0-.23,0-.45-.28-.5h0c0-.09,0-.16-.11-.19h0a.54.54,0,0,0-.34-.59,0,0,0,0,1,0-.07.82.82,0,0,0-.36-.69l-.11-.17c0-.19,0-.36-.23-.41l-.06-.15a.85.85,0,0,0-.38-.7h0a.19.19,0,0,0-.08-.2,12.25,12.25,0,0,1-1.07-2,.7.7,0,0,0-.33-.63h0v0c0-.11,0-.27-.14-.32h0l-.06-.12c-.24-.26-.07-.3.17-.31l3.65-.2c2.85-.14,5.7-.09,8.54,0,.25,0,.5.05.75.08.09.13.18.13.29,0,1.32,0,2.62.2,3.93.34.34,0,.43,0,.32-.35a82.38,82.38,0,0,1-2.68-12.13c-.23-1.52-.37-3-.57-4.57-.05-.4,0-.5.43-.38,3,.89,6,1.87,9,3,2.34.92,4.64,1.93,6.89,3.08.37.19.39.06.41-.27a84.69,84.69,0,0,1,1.76-12.83c.28-1.33.63-2.65.91-4,.09-.42.2-.4.5-.18A91.4,91.4,0,0,1,115.9,95.43c.1.11.18.27.36.31.5-1.09,1-2.19,1.51-3.27a95.38,95.38,0,0,1,6.94-12c.19-.29.29-.29.48,0a91.74,91.74,0,0,1,8.28,14.94c.15.36.25.34.5.08a89.55,89.55,0,0,1,12.89-11.2c.25-.18.34-.21.42.14a97.86,97.86,0,0,1,2.45,13.83c.1,1,.16,2,.22,2.94,0,.58,0,.58.61.31l.15-.08,0,0h0c.18,0,.35,0,.43-.23a1.35,1.35,0,0,1,.53-.25c.11,0,.2,0,.23-.12.37,0,.6-.36,1-.43,0,.21,0,.38.29.37s.06-.24.13-.36a.66.66,0,0,0,0-.22h0c.16,0,.36.09.39-.18h0c.29-.11.75.14.86-.38.34-.29.83-.23,1.18-.49.14,0,.3.06.34-.15a1,1,0,0,1,.48-.2l.18.08,0,0,0,0,.17-.22h0c.14,0,.27.06.31-.14l.16,0a.5.5,0,0,0,.41-.17l.13,0c.45.24.65-.15.92-.36h0c.13,0,.27,0,.37-.08.29,0,.47-.36.79-.32l.16-.08a.19.19,0,0,1,.2-.07c.44.06.87.07,1.13-.4l.13,0a.52.52,0,0,0,.54-.19h0a.22.22,0,0,0,.26-.09l.11,0a.61.61,0,0,0,.75-.24v0h0c.16,0,.37.11.44-.16l.22,0,.17-.07h0c.36,0,.79.13,1-.31l.2-.05c.11.11.15,0,.18-.07l.26-.06c.43,0,.76,0,.54.6,0,.13,0,.2.13.26l0,.2c-.26.2-.16.43-.07.66l0,.2c-.25.2-.15.43-.07.66l0,.21,0,.18c-.1,1.42-.37,2.81-.6,4.2,0,.28-.11.55-.17.83-.3.27-.18.62-.19.95l0,.29c-.26,0-.4.15-.31.38a1.09,1.09,0,0,1,0,.72,1.35,1.35,0,0,0,0,.68,10.35,10.35,0,0,1-.38,1.73s-.13,0,0,.09l-.06.29c-.1,0-.13.09-.13.18v.2c-.21.23-.08.69-.56.74.14.12.3,0,.36.19s0,.2-.14.23v0c.18.17,0,.33,0,.47-.16.6-.34,1.19-.52,1.78-.07.25-.09.37.26.33a76.27,76.27,0,0,1,12.7-.5,18.33,18.33,0,0,1,3.34.18,6.45,6.45,0,0,0,1.2,0c.25,0,.29.09.18.32a9.29,9.29,0,0,1-.85,1.47c-.12.16-.07.42-.2.62a21.68,21.68,0,0,0-1.11,2c-.7,1.51-1.61,2.9-2.41,4.34a.93.93,0,0,1-.12.14l-.08.12h0c-.11,0-.12.1-.11.19h0c-.24.21-.55.37-.48.77h0c-.23,0-.21.15-.18.3h0c-.18,0-.22.16-.21.32v0h0c-.62.11-.63.14-.35.52v0l0,0-.08.12-.11.17-.08.11h0c-.09,0-.11.1-.12.18h0l-.1.16,0,0a.27.27,0,0,0-.24.34,15.45,15.45,0,0,1-1.46,2.08c-.22.26-.36.58-.6.83s0,.26.16.31l1.52.37c2.4.63,4.77,1.32,7.11,2.16,1.93.69,3.84,1.43,5.72,2.23.73.31,1.46.64,2.26,1a60.52,60.52,0,0,1-5.27,4.77c-.07,0-.11.05-.1.13h0a.1.1,0,0,0-.12.09h0l-.12.1-.09.08H183l0,0,0,0,0,.23,0,0h0a.1.1,0,0,0-.11.09h0c-.2,0-.29.07-.32.25l-.67.48-.09.1h0a.17.17,0,0,0-.2.19.36.36,0,0,1-.26.2l-.12.1h0c-.15,0-.44-.1-.42,0,.09.47-.47.46-.54.79h0a.44.44,0,0,0-.56.44,1.16,1.16,0,0,1-.46.33l-.12.09c-.06.11-.16.07-.25.08s-.35.11-.32.35l-.08,0a.18.18,0,0,0-.21.16h0c-.16,0-.31,0-.33.24h0a.11.11,0,0,0-.12.09h0c-.12,0-.2,0-.21.16l-.08,0-.11.07v0c-.24.05-.47.13-.55.4h0c-.25,0-.49,0-.5.35l-.17.13h0l-.19.11-.13.09h0c-.09,0-.16,0-.18.13h0a.42.42,0,0,0-.32.17h0l-.59.2c-.78-.46-1.55-.94-2.34-1.39-1-.6-2.11-1.19-3.16-1.78,0-.18-.16-.16-.29-.16L166,140.24c-1.16-.54-2.36-1-3.55-1.41-.44-.17-.47-.28-.1-.58a56.32,56.32,0,0,0,5.22-4.91c1.5-1.58,2.87-3.27,4.22-5,.22-.28.15-.37-.18-.44-2.12-.47-4.25-.83-6.4-1.1a51.33,51.33,0,0,0-7.34-.39c-.31,0-.46,0-.24-.38a55.62,55.62,0,0,0,5-11c.19-.55.36-1.11.56-1.67.11-.32.16-.48-.31-.4-1,.17-1.94.28-2.91.41l-.19.06-.54,0-.14.07-.58.1c0-.05-.07,0-.09,0a19.26,19.26,0,0,1-2.09.46c0-.1,0-.18-.17-.17s-.2.13-.21.26a1.33,1.33,0,0,1-.57.12c0-.15-.09-.22-.24-.2s-.14.17-.15.29l-.29.09c0-.17.12-.47-.22-.46s-.25.26-.24.47v0a1.61,1.61,0,0,1-.95.33.2.2,0,0,0-.21.08l-.24,0-.14.09-3.33,1.14h-.28l0-.2.06-.13.06-.55,0-.1c.13-1,.27-1.91.38-2.86s.21-2.07.31-3.11c.23-.09.23-.18,0-.28a1.59,1.59,0,0,1,0-.67c.12,0,.15-.11,0-.19l0-4.57c.25-.16.25-.32,0-.47l0-.86C150.19,102.1,150.24,101.93,150,101.8Zm5.44-2c0-.08-.05-.19-.17-.18a.17.17,0,0,0-.14.2c0,.12.11.14.2.13S155.45,99.93,155.43,99.83ZM166.29,96c0-.11-.07-.12-.13-.12s-.1.06-.1.13.05.12.12.09S166.26,96,166.29,96ZM78.13,127.52l0,.08s.06,0,.08,0,0,0,0-.07Zm79.11-28.58.07,0s0,0-.07,0,0,0-.07,0ZM176,121.71s0-.05,0-.07,0,0,0-.07,0,0,0,.07S176,121.68,176,121.71Z" style="fill:#019902"/><path d="M133.66,194.52c.61-1.63,1.28-3.24,1.82-4.89a55.64,55.64,0,0,0,2-7.75c.07-.4.15-.81.2-1.22s.13-.27.32-.11a51.51,51.51,0,0,0,5.16,3.94,68.68,68.68,0,0,0,6.4,3.81c.27.14.37.14.42-.2a15,15,0,0,0,.06-1.71,61.6,61.6,0,0,0-.22-7c-.15-1.65-.38-3.3-.69-4.93,0-.17-.14-.37,0-.5s.3,0,.44.09a56,56,0,0,0,8.66,2.46q2.37.48,4.77.78c.41.05.21-.2.16-.35-.56-1.82-1.2-3.6-1.92-5.36a55,55,0,0,0-3.63-7.31c-.2-.33-.14-.39.21-.38a53.65,53.65,0,0,0,6.82-.37,65.35,65.35,0,0,0,6.92-1.16c.34-.07.38-.18.16-.46-.82-1.06-1.68-2.09-2.53-3.13a60.25,60.25,0,0,0-4.43-4.64,21.37,21.37,0,0,0-2.51-2.15c-.11-.08-.32-.16-.27-.34s.23-.15.36-.19a53.39,53.39,0,0,0,5.82-2.43,59.72,59.72,0,0,0,6.17-3.47c.17-.11.4-.11.52-.29h.26l0,0v0l.1,0h0a.19.19,0,0,0,.2.09h0a.18.18,0,0,0,.17.11h0c0,.23.18.28.37.28h0c.05.23.27.19.42.25h0c0,.17.13.23.29.21h0c0,.1.1.12.18.12h0c0,.25.26.18.38.29.66.39,1.24.89,1.85,1.35s1.13.77,1.67,1.19a24.94,24.94,0,0,1,2.72,2.31h0l.16.11,0,0,.08.07h0c0,.32.23.42.51.44h0a.14.14,0,0,0,.13.11h0v0a.17.17,0,0,0,.19.17c.73.56,1.36,1.23,2,1.84q.66.59,1.29,1.21l.1.09h0a.17.17,0,0,0,.18.19l.3.33-.1.46a.21.21,0,0,1-.22.09c-.12,0-.22,0-.26.13l-.15.05c-.09,0-.18,0-.22.1a.17.17,0,0,1-.19.08.35.35,0,0,0-.39.18h0c-.1,0-.21,0-.27.11h0l-.1,0a.41.41,0,0,1-.3.12c-.06,0-.07,0-.08,0l-.19.08a1.48,1.48,0,0,0-1,.29,6,6,0,0,0-1.32.64h0c-.1,0-.2,0-.26.1a25.78,25.78,0,0,1-2.66,1c-.66.21-1.3.46-2,.68a66.54,66.54,0,0,1-6.45,1.81c-.41.09-.4.2-.17.5q2.3,3.06,4.27,6.33a2.65,2.65,0,0,1,.12.25c0,.09,0,.16.12.18a.13.13,0,0,1,.09.15c0,.11,0,.2.13.23l0,.08c0,.16,0,.34.24.38h0c0,.28.07.58.4.69l0,.09c0,.09,0,.17.11.2h0l.07.12c.72,1.14,1.32,2.34,1.94,3.53.42.8.8,1.62,1.21,2.42.14.27.13.37-.21.39-1.75.11-3.51.19-5.27.24a85.32,85.32,0,0,1-10.49-.38c-.46,0-.92-.07-1.37-.15s-.41,0-.31.35c.65,2.09,1.17,4.2,1.63,6.34a96.85,96.85,0,0,1,1.62,10.41c0,.34,0,.45-.37.34a90.83,90.83,0,0,1-15.59-5.94c-.74-.37-.73-.37-.78.47a88.72,88.72,0,0,1-2.2,14.54c-.15.65-.33,1.29-.46,1.94-.06.3-.13.38-.41.17-2.29-1.67-4.53-3.41-6.68-5.26S135.76,196.68,133.66,194.52Z" style="fill:#019902"/><path d="M100.31,188.34c2-1,3.85-2.16,5.72-3.32,1.12-.7,2.16-1.53,3.22-2.33a24,24,0,0,0,2.56-2.06c.22-.21.33-.22.39.15a60.5,60.5,0,0,0,2.62,10,20.09,20.09,0,0,1,1,2.83v0c.34.78.42.78,1,.13a65.73,65.73,0,0,0,5.2-6.53c.92-1.34,1.82-2.71,2.6-4.14.08-.15.13-.38.31-.38s.21.25.3.39a57.59,57.59,0,0,0,5,7.29q1.56,1.95,3.24,3.78a2,2,0,0,1,.18.28,91.93,91.93,0,0,1-8.41,15.22c-.24.36-.33.32-.55,0A90.71,90.71,0,0,1,116.46,195c-.06-.13-.12-.26-.22-.45-.46.53-1,.9-1.42,1.44a9.33,9.33,0,0,1-1,1c-1.08,1.06-2.16,2.13-3.33,3.09-.78.64-1.49,1.36-2.3,2l-.1.09h0l-.1.08a1.44,1.44,0,0,1-.47.39c-.29.07-.6.12-.64.51h0l-.13.06-1.7,1.38c-.24.19-.49.36-.74.54l-.12.09a.14.14,0,0,1-.14.1.32.32,0,0,0-.24.14l0,0h0c-.06,0-.11.06-.11.14h0a.7.7,0,0,0-.68.5,0,0,0,0,1-.06,0,.66.66,0,0,1-.24-.76c.15-.38-.11-.25-.26-.28l0-.19c.14-.17,0-.26-.1-.38-.46-1.64-.77-3.32-1.08-5a31.47,31.47,0,0,1-.54-3.46c0-.16.28-.38-.08-.48,0-.12-.08-.25.07-.34a12.59,12.59,0,0,0-.15-1.47c-.08-.35,0-.74-.27-1l0-.39c.11-.18.17-.34-.07-.47l0-.58c.17-.3,0-.57-.09-.85l0-.57c.13-.17.18-.34,0-.48l0-.19,0,0,0-.06,0-.38C100,188.53,100.3,188.6,100.31,188.34Zm2.63,17.17.13-.06s0-.07,0-.07a.3.3,0,0,0-.13,0A.36.36,0,0,0,102.94,205.52Z" style="fill:#019902"/><path d="M147,51.8a7.08,7.08,0,0,1,1.91-2.14,8,8,0,0,1,3.69-1.42,10.92,10.92,0,0,1,6.57,1A8.65,8.65,0,0,1,163.57,55a18.26,18.26,0,0,1-.08,9.81,9.39,9.39,0,0,1-8.88,7A8.92,8.92,0,0,1,148.44,70a7.17,7.17,0,0,1-1.7-1.9c0,.74-.06,1.35-.08,2,0,.36,0,.73,0,1.09s-.08.33-.33.33c-1.16,0-2.31,0-3.47,0-.32,0-.36-.13-.35-.39,0-1.17.09-2.34.09-3.52q0-13.48,0-27c0-.48.1-.62.59-.6,1,0,2.06,0,3.09,0,.46,0,.61.09.61.59,0,3.61,0,7.23,0,10.84q0,.16,0,.32Zm-.18,8a16.57,16.57,0,0,0,.17,2.78,7.91,7.91,0,0,0,1.85,4.34,6,6,0,0,0,9.79-1.79,13.53,13.53,0,0,0,.31-10,5.52,5.52,0,0,0-5-4.09,5.78,5.78,0,0,0-6.15,3.48A12.86,12.86,0,0,0,146.77,59.8Z" style="fill:#039904"/><path d="M171.69,69.13a.84.84,0,0,0-.05.48q0,5.06,0,10.13c0,.35-.06.49-.46.48q-1.66,0-3.33,0c-.42,0-.49-.14-.49-.51q0-13.79,0-27.58c0-1-.05-2-.11-3,0-.3.06-.38.36-.38,1.19,0,2.38,0,3.57,0,.32,0,.4.1.4.41,0,1,0,2.06,0,3,.25.1.27-.06.32-.13a8.57,8.57,0,0,1,7-3.67A8.74,8.74,0,0,1,186,51.11a10.33,10.33,0,0,1,2.56,5.32,17.62,17.62,0,0,1-.51,9.19,9.73,9.73,0,0,1-10.53,6.65A7.86,7.86,0,0,1,172.39,70C172.14,69.7,171.93,69.42,171.69,69.13Zm12.81-9.22a16,16,0,0,0-.32-3.27,6.93,6.93,0,0,0-2.05-3.82c-1.82-1.63-5.34-1.59-7.26-.46a6.39,6.39,0,0,0-2.9,4.12,17,17,0,0,0-.2,7.44c.59,3.23,2.4,5,5.45,5.21a5.71,5.71,0,0,0,6.21-3.53A14.71,14.71,0,0,0,184.5,59.92Z" style="fill:#039904"/><path d="M77.6,127.58c.27,0,.38.12.36.38-.1,0-.17.14-.08.22a32,32,0,0,1,2.63,3.09,59.07,59.07,0,0,0,6.55,6.52l.32.28c.66.57.66.57-.18.87a53.78,53.78,0,0,0-7.9,3.58c-1.34.74-2.66,1.52-4,2.32-.42.26-.42.31,0,.59,1.17.75,2.36,1.47,3.58,2.13.14.07.3.12.38.27-.52.3-1-.22-1.55,0-.09,0-.17-.13-.17-.24,0-.36-.23-.44-.52-.48a1.93,1.93,0,0,1-1.31-.67.64.64,0,0,0-.64-.28,7.51,7.51,0,0,0-.84.11c-.18,0-.43.11-.37.34s-.1.37-.37.41c-.53.07-1.12.07-1.27.77,0,0,0,.12-.07.12-.49,0-.7.25-1,.62s-.95.14-1,.79c0,0-.08.05-.12.07-.56.18-.86.81-1.49.87-.11,0-.11.14-.16.21a1.15,1.15,0,0,1-1.25.39,75.45,75.45,0,0,1,7.2-5.36c.5-.33.5-.32,0-.64a87.85,87.85,0,0,1-11.38-9c-.58-.54-1.14-1.1-1.73-1.62-.3-.27-.28-.36.09-.52a93.78,93.78,0,0,1,13.78-5,18.27,18.27,0,0,1,2.53-.59c.2,0,.15-.11.12-.2A2.5,2.5,0,0,0,77.6,127.58Z" style="fill:#039904"/><path d="M88.9,177c1.27-.25,2.54-.49,3.81-.76a52.16,52.16,0,0,0,7.55-2.21l.36-.13c.21-.07.24,0,.2.2-.26,1.38-.49,2.77-.63,4.17-.09.86-.19,1.73-.24,2.59-.14,2.15-.14,4.3-.09,6.46a8.56,8.56,0,0,1,.06,1.09c-.16.07-.4,0-.46.27a.39.39,0,0,1-.27.13c-.25-.2-.4-.18-.38.18h0l-.12.07,0,0h0a.2.2,0,0,0-.23.11h0c-.57-.07-.91.48-1.44.53l0,.14h0a.15.15,0,0,0-.17.08h0c-.23,0-.48,0-.58.27v0h0l-.15.06,0,0h0c-.21.07-.54-.11-.61.27-1.69.79-3.44,1.44-5.19,2.07-2.15.78-4.34,1.46-6.54,2.1-.4.12-.44,0-.4-.35a92.54,92.54,0,0,1,2.56-14.32c.06-.21.12-.42.18-.64l.06-.14.05-.24a.42.42,0,0,0,.18-.57.19.19,0,0,1,.05-.2.14.14,0,0,0,.07-.17v-.1a.22.22,0,0,0,.1-.27v0c.19-.1.09-.33.21-.46l.29,0a.72.72,0,0,0,1-.15l.74-.07c.12.16.27.2.53.17Z" style="fill:#019902"/><path d="M85.09,163.55a1,1,0,0,1,.57.06c.13.33.29.3.47,0a1.33,1.33,0,0,1,.57.06c0,.21.13.29.33.29s.25-.09.24-.25a.7.7,0,0,1,.48,0c-.11.21-.11.37.17.39a1.55,1.55,0,0,0,1.15-.33l2.38.06c0,.27,0,.54,0,.81s0,.67-.49.71a.24.24,0,0,0-.23.21c-.08.61-.47,1.12-.56,1.73-.18,0-.35-.29-.51,0-.27.47-.18,1.07-.5,1.53a.11.11,0,0,0,0,.09.63.63,0,0,1-.28.83.76.76,0,0,0-.38.69.57.57,0,0,1-.48.66c-.08,0-.18.08-.15.15.18.46-.15.9,0,1.35.06.23,0,.39-.32.38s-.39.17-.44.45a8.73,8.73,0,0,0-.09,1.65c0,.21,0,.33-.29.38s-.63.2-.5.71-.05.7-.61.7h-1c-.54,0-.63.11-.56.64l-.19,0c-.14-.32-.43-.28-.68-.27s-.16.19-.17.33a1,1,0,0,1-.47,0c-.07-.12-.13-.1-.19,0a1.58,1.58,0,0,1-.67,0h-.08a1.63,1.63,0,0,1-.67,0c-.28-.26-.7.09-1-.26-.12-.14-.25.13-.23.32a1.08,1.08,0,0,1-.51,0c0-.11.05-.28-.06-.3-.42-.09-.82-.37-1.27-.12-.12.07-.24.29-.29.27-.45-.17-.93.13-1.37-.13s-.94-.07-1.42,0a.22.22,0,0,0-.21.3,1.36,1.36,0,0,1-.58,0s-.06-.13-.11-.14a5.65,5.65,0,0,0-2.19.05,4.15,4.15,0,0,1-1.14-.06c-.15-.13-.29-.32-.47-.37s-.26-.17-.31-.38a1.34,1.34,0,0,1,.62-1.33c.09-.08.25-.13.23-.27-.06-.38.19-.68.24-1s.07-.61.5-.58c.08,0,.21-.07.2-.17,0-.36.3-.44.46-.65s.74-.41.18-.82c-.09-.06,0-.18,0-.25s.27-.49.6-.58a.51.51,0,0,0,.33-.61c-.08-.27.06-.67-.34-.81a0,0,0,0,1,0-.06.19.19,0,0,0,.13-.23l0-.09c.15,0,.3-.09.45,0a.28.28,0,0,0,.41-.05c.11-.14,0-.26-.08-.38l-.09-.15c.5-.17,0-.39,0-.58h0a.76.76,0,0,0,.62-.18c.45-.43.52-1.19,1.21-1.43,0,0,.05-.08.06-.12a1.35,1.35,0,0,1,.29-.54c.2-.28.36-.54,0-.81.9-.14,1.21-.7.84-1.39h0a1.68,1.68,0,0,0,1.61-.54c.32-.41.62-.44,1-.06.16.16.32.18.41,0,.18-.39.32-.17.46,0a.39.39,0,0,0,.68,0c.06-.11.15-.2.22-.3l1.23.2c0,.24,0,.4.33.37.09,0,.23,0,.26.05.21.37.56.25.84.2a.93.93,0,0,1,.75.11C84.89,164.13,85,164,85.09,163.55Z" style="fill:#019902"/><path d="M67.17,150.83a1.15,1.15,0,0,0,1.25-.39c.05-.07,0-.2.16-.21.63-.06.93-.68,1.49-.87,0,0,.12,0,.12-.07.06-.65.78-.5,1-.79s.5-.65,1-.62c0,0,.06-.07.07-.12.15-.71.74-.71,1.27-.77.27,0,.46,0,.37-.41s.2-.31.37-.34a7.51,7.51,0,0,1,.84-.11.64.64,0,0,1,.64.28,1.93,1.93,0,0,0,1.31.67c.29,0,.53.12.52.48,0,.12.08.28.17.24.53-.2,1,.33,1.55,0h0c0,.45.1.8.69.81l.93,0h0c0,.06,0,.13,0,.19,0,.22-.26.68.32.32.07,0,.19,0,.21,0,.14.6,1.08.21,1.13.92,0,0,.24,0,.35.06a3.4,3.4,0,0,1,1,.4,3.87,3.87,0,0,0,1.33.7,7.36,7.36,0,0,0,1.27.19c.22,0,.55.16.53.44s-.29.29-.56.22-.35.17-.33.4.12.36-.06.36c-.48,0-.63.36-.91.6s-.9.44-.94.79c-.07.66-.62.34-.86.58a.28.28,0,0,0-.09.2.64.64,0,0,1-.44.56c-.18.09-.34.2-.38.4-.06.36-.36.32-.6.44s-.09.58-.4.74a.88.88,0,0,1-.22.08.48.48,0,0,0-.43.57c0,.26-.12.33-.35.31s-.42,0-.36.37a.4.4,0,0,1-.41.47c-.36,0-.42.2-.4.49,0,.09,0,.26,0,.27-.47.16-.58.54-.76,1-.11.26-.67.31-.68.78,0,0-.08.07-.12.06-.39-.08-.65.2-1,.33l-.11,0c-.1-.16-.26-.1-.4-.1h0c-.24-.14-.49-.26-.46-.64s-.18-.39-.46-.3a2.09,2.09,0,0,1-.94,0,1.08,1.08,0,0,0-.88.16h0a.51.51,0,0,0-.7-.21l-.16,0c-.08-.2-.1-.37.17-.43s.31-.07.28-.26-.25-.12-.39-.14c-.5-.09-.94.35-1.45.16a.55.55,0,0,0-.54,0,.32.32,0,0,1-.26-.08.31.31,0,0,1,.24-.32c.11,0,.17-.1.13-.21a.47.47,0,0,0-.18-.21c-.12-.07-.15,0-.19.13s-.12.19-.25.17-.11-.14-.12-.23c-.06-.37-.25-.5-.6-.31a.42.42,0,0,1-.59-.11,1.06,1.06,0,0,0-.86-.4c-.33,0-.74,0-.94-.41-.09-.18-.25-.14-.34,0-.22.37-.49.27-.8.15-.1,0-.22-.16-.35,0a.21.21,0,0,1-.23-.1.67.67,0,0,0-.83-.9.59.59,0,0,1-.63-.16c-.44-.41-.8-1-1.53-.83a.1.1,0,0,1-.08,0c-.14-.25-.3-.15-.48,0,.13-.17-.05-.48.27-.49.67,0,.87-.16,1-.76a.45.45,0,0,1,.42-.39c.28,0,.32-.15.34-.39s.1-.51.51-.41.47-.19.36-.51l-.14-.35h0a1.9,1.9,0,0,1,.49.14.87.87,0,0,0,1.22-.8c0-.15,0-.22.15-.26.79-.17.81-.21.27-.8,0,0,0-.06,0-.09l.09-.07.11-.1L67,151c.09,0,.17,0,.15-.14ZM65.79,158l-.05.11a.75.75,0,0,0,.71.08Z" style="fill:#019902"/><path d="M76.75,161.95c.31-.13.57-.41,1-.33,0,0,.12,0,.12-.06,0-.48.57-.52.68-.78.18-.42.29-.8.76-1,0,0,0-.18,0-.27,0-.29,0-.5.4-.49a.4.4,0,0,0,.41-.47c-.05-.35.11-.39.36-.37s.37-.05.35-.31a.48.48,0,0,1,.43-.57.88.88,0,0,0,.22-.08c.31-.16.19-.63.4-.74s.53-.07.6-.44c0-.2.2-.31.38-.4a.64.64,0,0,0,.44-.56.28.28,0,0,1,.09-.2c.24-.24.79.08.86-.58,0-.35.63-.52.94-.79s.43-.62.91-.6c.18,0,.07-.22.06-.36s0-.49.33-.4.54.07.56-.22-.32-.44-.53-.44a7.36,7.36,0,0,1-1.27-.19,3.87,3.87,0,0,1-1.33-.7,3.4,3.4,0,0,0-1-.4c-.12,0-.35,0-.35-.06-.05-.71-1-.33-1.13-.92,0-.08-.15-.09-.21,0-.58.36-.32-.1-.32-.32,0-.06,0-.13,0-.19l2.58,1.17q2,.89,4,1.6c.15.05.36.06.39.23s-.16.22-.26.31a60.4,60.4,0,0,0-9.45,9.88c-.3.38-.28.41.19.51l2.73.58c-.07.1-.16.19-.22.3a.39.39,0,0,1-.68,0c-.14-.17-.29-.4-.46,0-.09.21-.25.19-.41,0-.37-.38-.67-.35-1,.06a1.68,1.68,0,0,1-1.61.54c.27-.39.53-.78.81-1.16s.35-.47-.2-.62A1.34,1.34,0,0,1,76.75,161.95Z" style="fill:#039904"/><path d="M84,177.58c-.08-.53,0-.63.56-.64h1c.56,0,.76-.17.61-.7s.15-.64.5-.71.29-.17.29-.38a8.73,8.73,0,0,1,.09-1.65c.05-.28.15-.46.44-.45s.38-.15.32-.38c-.11-.46.23-.89,0-1.35,0-.07.07-.14.15-.15a.57.57,0,0,0,.48-.66.76.76,0,0,1,.38-.69.63.63,0,0,0,.28-.83.11.11,0,0,1,0-.09c.32-.46.23-1.06.5-1.53.15-.27.32,0,.51,0,.09-.61.48-1.12.56-1.73a.24.24,0,0,1,.23-.21c.44,0,.52-.33.49-.71s0-.54,0-.81c.31,0,.73-.16.88.08s-.22.51-.36.77a60.13,60.13,0,0,0-5.25,12.14c0,.13-.2.28,0,.43-.13.13,0,.36-.21.46.1-.38,0-.5-.42-.41C85.41,177.51,84.72,177.52,84,177.58Z" style="fill:#039904"/><path d="M72.84,169.87c.4.14.25.54.34.81a.51.51,0,0,1-.33.61c-.33.09-.39.39-.6.58s-.12.19,0,.25c.56.41,0,.6-.18.82s-.49.29-.46.65c0,.1-.12.17-.2.17-.44,0-.46.29-.5.58s-.3.65-.24,1c0,.14-.14.19-.23.27a1.34,1.34,0,0,0-.62,1.33c0,.21.08.32.31.38s.31.24.47.37a11.61,11.61,0,0,1-1.6-.07c-.16,0-.28,0-.17-.25C70,174.85,71.32,172.3,72.84,169.87Z" style="fill:#039904"/><path d="M64.62,153l.14.35c.12.32,0,.59-.36.51s-.49.13-.51.41-.06.38-.34.39a.45.45,0,0,0-.42.39c-.17.61-.37.75-1,.76-.33,0-.14.32-.27.49.18-.14.34-.24.48,0a.1.1,0,0,0,.08,0c.74-.14,1.1.42,1.53.83a.59.59,0,0,0,.63.16.67.67,0,0,1,.83.9c-1.43-.49-2.8-1.14-4.19-1.74-.28-.12-.13-.23,0-.33C62.31,155.14,63.41,154,64.62,153Z" style="fill:#039904"/><path d="M65.6,158.37c.13-.13.25,0,.35,0,.31.12.58.22.8-.15.08-.14.25-.18.34,0,.2.42.61.39.94.41a1.06,1.06,0,0,1,.86.4.42.42,0,0,0,.59.11c.35-.19.54-.07.6.31,0,.09,0,.2.12.23s.21-.05.25-.17.06-.2.19-.13a.47.47,0,0,1,.18.21c0,.1,0,.18-.13.21a.31.31,0,0,0-.24.32A48.37,48.37,0,0,1,65.6,158.37Z" style="fill:#039904"/><path d="M76.72,163.9c.38.69.06,1.25-.84,1.39.41.27.25.53,0,.81a1.35,1.35,0,0,0-.29.54s0,.11-.06.12c-.69.24-.76,1-1.21,1.43a.76.76,0,0,1-.62.18A42.68,42.68,0,0,1,76.72,163.9Z" style="fill:#039904"/><path d="M66.73,151.23s0,.07,0,.09c.53.58.52.63-.27.8-.18,0-.16.11-.15.26a.87.87,0,0,1-1.22.8,1.9,1.9,0,0,0-.49-.14A18.69,18.69,0,0,1,66.73,151.23Z" style="fill:#039904"/><path d="M74.56,177.88a.22.22,0,0,1,.21-.3c.47-.06,1-.27,1.42,0s.92,0,1.37.13c.05,0,.17-.21.29-.27.44-.25.85,0,1.27.12.11,0,.07.19.06.3A33,33,0,0,1,74.56,177.88Z" style="fill:#039904"/><path d="M73.52,161.09a1.08,1.08,0,0,1,.88-.16,2.09,2.09,0,0,0,.94,0c.28-.09.48,0,.46.3s.21.49.46.64A17.11,17.11,0,0,1,73.52,161.09Z" style="fill:#039904"/><path d="M70.7,160.22a.55.55,0,0,1,.54,0c.51.19,1-.25,1.45-.16.14,0,.35-.09.39.14s-.14.22-.28.26-.25.24-.17.43a.34.34,0,0,1-.29-.09l0-.08,0,.07A8.85,8.85,0,0,1,70.7,160.22Z" style="fill:#039904"/><path d="M73.76,168.36c0,.19.47.41,0,.58l.09.15c.07.12.19.24.08.38a.28.28,0,0,1-.41.05c-.15-.11-.3,0-.45,0A6,6,0,0,1,73.76,168.36Z" style="fill:#039904"/><path d="M100.26,192.63c.26.3.19.69.27,1a12.59,12.59,0,0,1,.15,1.47c-.12,0-.16-.07-.17-.18Z" style="fill:#039904"/><path d="M71.69,177.79a5.65,5.65,0,0,1,2.19-.05s.07.09.11.14A13.28,13.28,0,0,1,71.69,177.79Z" style="fill:#039904"/><path d="M183.81,158.57a6,6,0,0,1,1.32-.64,1.48,1.48,0,0,1,1-.29A17,17,0,0,1,183.81,158.57Z" style="fill:#039904"/><path d="M164.92,106.64a1.35,1.35,0,0,1,0-.68,1.09,1.09,0,0,0,0-.72c-.09-.23,0-.38.31-.38A10.15,10.15,0,0,1,164.92,106.64Z" style="fill:#039904"/><path d="M166.58,96.47c-.1-.06-.18-.13-.13-.26.22-.56-.11-.63-.54-.6a2.15,2.15,0,0,1,.79-.23A4.53,4.53,0,0,1,166.58,96.47Z" style="fill:#039904"/><path d="M79.69,177.86c0-.19.11-.46.23-.32.3.35.72,0,1,.26A4.36,4.36,0,0,1,79.69,177.86Z" style="fill:#039904"/><path d="M102.44,205c.15,0,.4-.1.26.28a.66.66,0,0,0,.24.76c-.17.21-.24.09-.28-.1Z" style="fill:#039904"/><path d="M97,189.9l0-.14c.53-.05.87-.6,1.44-.53A5.55,5.55,0,0,1,97,189.9Z" style="fill:#039904"/><path d="M83,177.66c0-.13,0-.32.17-.33s.55-.05.68.27A3.18,3.18,0,0,1,83,177.66Z" style="fill:#039904"/><path d="M161.56,97c-.26.47-.69.46-1.13.4A4.53,4.53,0,0,1,161.56,97Z" style="fill:#039904"/><path d="M180.3,141.37c.06-.33.63-.32.54-.79,0-.06.27.07.42,0A4.38,4.38,0,0,1,180.3,141.37Z" style="fill:#039904"/><path d="M153.37,100.17a.66.66,0,0,1,0,.22c-.07.11.16.34-.13.36s-.3-.17-.29-.37A.92.92,0,0,1,153.37,100.17Z" style="fill:#039904"/><path d="M165.27,95.79c-.24.44-.67.27-1,.31A4.52,4.52,0,0,1,165.27,95.79Z" style="fill:#039904"/><path d="M188.48,156.62l.1-.46c.1.08.31.08.3.23S188.63,156.58,188.48,156.62Z" style="fill:#039904"/><path d="M164.11,110.06c-.06-.14-.22-.07-.36-.19.48-.05.35-.51.56-.74A2,2,0,0,1,164.11,110.06Z" style="fill:#039904"/><path d="M158.9,97.91c-.27.21-.47.6-.92.36A2.63,2.63,0,0,1,158.9,97.91Z" style="fill:#039904"/><path d="M175,123.73c-.29-.39-.27-.41.35-.52C175.22,123.38,175.17,123.6,175,123.73Z" style="fill:#039904"/><path d="M154.62,99.61c-.11.52-.57.27-.86.38A2.9,2.9,0,0,1,154.62,99.61Z" style="fill:#039904"/><path d="M175.75,122.56c-.06-.4.25-.56.48-.77A3.16,3.16,0,0,1,175.75,122.56Z" style="fill:#039904"/><path d="M99.45,188.72c.06-.25.29-.2.46-.27l.4-.11c0,.26-.26.19-.38.3C99.75,188.6,99.61,188.7,99.45,188.72Z" style="fill:#039904"/><path d="M165.36,104.56c0-.33-.11-.68.19-.95A2.73,2.73,0,0,1,165.36,104.56Z" style="fill:#039904"/><path d="M106.9,203c0-.39.35-.44.64-.51A2.42,2.42,0,0,1,106.9,203Z" style="fill:#039904"/><path d="M103,206a.7.7,0,0,1,.68-.5A3,3,0,0,1,103,206Z" style="fill:#039904"/><path d="M175.14,145.28h-.26a.2.2,0,0,0,0-.28l.59-.2C175.36,145,175.07,145,175.14,145.28Z" style="fill:#039904"/><path d="M163.37,96.39a.61.61,0,0,1-.75.24A1.62,1.62,0,0,1,163.37,96.39Z" style="fill:#039904"/><path d="M166.49,97.33c-.09-.23-.19-.46.07-.66A1.77,1.77,0,0,1,166.49,97.33Z" style="fill:#039904"/><path d="M71.31,117.69a.82.82,0,0,1,.36.69A1.66,1.66,0,0,1,71.31,117.69Z" style="fill:#039904"/><path d="M176.4,144.2c0-.34.24-.35.5-.35A1.13,1.13,0,0,1,176.4,144.2Z" style="fill:#039904"/><path d="M179.74,141.81a.44.44,0,0,1,.56-.44A1.94,1.94,0,0,1,179.74,141.81Z" style="fill:#039904"/><path d="M177.69,170.93c-.33-.12-.36-.41-.4-.69A2.2,2.2,0,0,1,177.69,170.93Z" style="fill:#039904"/><path d="M70.53,116.27a.85.85,0,0,1,.38.7A2,2,0,0,1,70.53,116.27Z" style="fill:#039904"/><path d="M100,190.35c.05.28.25.54.09.85A2.48,2.48,0,0,1,100,190.35Z" style="fill:#039904"/><path d="M166.39,98.19c-.08-.23-.18-.47.07-.66Z" style="fill:#039904"/><path d="M71.71,118.45A.54.54,0,0,1,72,119,1.78,1.78,0,0,1,71.71,118.45Z" style="fill:#039904"/><path d="M69.05,113.4a.7.7,0,0,1,.33.63A1.54,1.54,0,0,1,69.05,113.4Z" style="fill:#039904"/><path d="M184.32,152.19c-.28,0-.49-.12-.51-.44A1.79,1.79,0,0,1,184.32,152.19Z" style="fill:#039904"/><path d="M98.8,189c0-.36.13-.38.38-.18A.61.61,0,0,1,98.8,189Z" style="fill:#039904"/><path d="M72.15,119.21c.3.05.29.28.28.5A1.24,1.24,0,0,1,72.15,119.21Z" style="fill:#039904"/><path d="M72.8,160.88a.51.51,0,0,1,.7.21A1.48,1.48,0,0,1,72.8,160.88Z" style="fill:#039904"/><path d="M176.89,143.86c.08-.28.3-.35.55-.4A1.16,1.16,0,0,1,176.89,143.86Z" style="fill:#039904"/><path d="M96.22,190.25c.11-.28.35-.26.58-.27A1.27,1.27,0,0,1,96.22,190.25Z" style="fill:#039904"/><path d="M95.37,190.63c.07-.38.4-.2.61-.27A1.58,1.58,0,0,1,95.37,190.63Z" style="fill:#039904"/><path d="M178.58,142.66c0-.24.17-.28.32-.35C178.93,142.55,178.73,142.58,178.58,142.66Z" style="fill:#039904"/><path d="M86.26,178.56a.42.42,0,0,1-.18.57A1.21,1.21,0,0,1,86.26,178.56Z" style="fill:#039904"/><path d="M100,189.3c.23.14.18.3,0,.48A.81.81,0,0,1,100,189.3Z" style="fill:#039904"/><path d="M100.16,191.78c.24.13.18.29.07.47A.83.83,0,0,1,100.16,191.78Z" style="fill:#039904"/><path d="M73.86,122.07a.42.42,0,0,1,.3.48A1,1,0,0,1,73.86,122.07Z" style="fill:#039904"/><path d="M71,117.12c.23,0,.25.22.23.41A.77.77,0,0,1,71,117.12Z" style="fill:#039904"/><path d="M176,145.84c-.2,0-.35,0-.37-.28C175.78,145.62,175.94,145.67,176,145.84Z" style="fill:#039904"/><path d="M151.2,101.18c-.08.2-.25.23-.43.23A.73.73,0,0,1,151.2,101.18Z" style="fill:#039904"/><path d="M100.61,195.49c.37.1,0,.32.08.48A.75.75,0,0,1,100.61,195.49Z" style="fill:#039904"/><path d="M176.43,146.1c-.15-.06-.37,0-.42-.25C176.16,145.93,176.34,145.94,176.43,146.1Z" style="fill:#039904"/><path d="M77.31,127.2c.2,0,.28.14.25.34A.69.69,0,0,1,77.31,127.2Z" style="fill:#039904"/><path d="M177.25,146.7c-.12-.11-.37,0-.38-.29C177,146.47,177.19,146.52,177.25,146.7Z" style="fill:#039904"/><path d="M174.23,124.87a.27.27,0,0,1,.24-.34A.65.65,0,0,1,174.23,124.87Z" style="fill:#039904"/><path d="M75.12,124.06c.21,0,.28.16.24.36A.72.72,0,0,1,75.12,124.06Z" style="fill:#039904"/><path d="M162.23,96.75a.52.52,0,0,1-.54.19A.91.91,0,0,1,162.23,96.75Z" style="fill:#039904"/><path d="M182.58,139.55c0-.19.12-.29.32-.25A.52.52,0,0,1,182.58,139.55Z" style="fill:#039904"/><path d="M187,157.24a.35.35,0,0,1,.39-.18A.77.77,0,0,1,187,157.24Z" style="fill:#039904"/><path d="M177.95,143.12c0-.21.17-.22.33-.24A.54.54,0,0,1,177.95,143.12Z" style="fill:#039904"/><path d="M163.84,96.21c-.07.26-.28.15-.44.16A1,1,0,0,1,163.84,96.21Z" style="fill:#039904"/><path d="M183,139h.3a.48.48,0,0,1-.26.23l0-.23Z" style="fill:#039904"/><path d="M177.3,170.25c-.21,0-.21-.22-.24-.38A.67.67,0,0,1,177.3,170.25Z" style="fill:#039904"/><path d="M153.76,100c0,.27-.24.18-.39.18A.56.56,0,0,1,153.76,100Z" style="fill:#039904"/><path d="M77,126.82c.2,0,.28.15.25.34A.73.73,0,0,1,77,126.82Z" style="fill:#039904"/><path d="M156.81,98.86l-.18-.08c.09-.12.23-.11.36-.15l-.17.22Z" style="fill:#039904"/><path d="M102.32,204.43c.09.11.24.2.1.38A.51.51,0,0,1,102.32,204.43Z" style="fill:#039904"/><path d="M176.71,146.3c-.16,0-.27,0-.29-.21A.47.47,0,0,1,176.71,146.3Z" style="fill:#039904"/><path d="M157.28,98.5c0,.2-.18.16-.31.14Z" style="fill:#039904"/><path d="M157.85,98.3a.5.5,0,0,1-.41.17A.66.66,0,0,1,157.85,98.3Z" style="fill:#039904"/><path d="M175.57,122.85c0-.15,0-.3.18-.3A.44.44,0,0,1,175.57,122.85Z" style="fill:#039904"/><path d="M75.65,124.83c.17,0,.22.15.2.3A.52.52,0,0,1,75.65,124.83Z" style="fill:#039904"/><path d="M75.45,124.53a.25.25,0,0,1,.21.31A.51.51,0,0,1,75.45,124.53Z" style="fill:#039904"/><path d="M76.17,125.58c.18,0,.18.15.18.28A.46.46,0,0,1,76.17,125.58Z" style="fill:#039904"/><path d="M156.14,99c0,.21-.2.16-.34.15A.46.46,0,0,1,156.14,99Z" style="fill:#039904"/><path d="M175.37,123.16c0-.16,0-.29.21-.32A.51.51,0,0,1,175.37,123.16Z" style="fill:#039904"/><path d="M73.56,121.6c.17,0,.22.16.2.33A.55.55,0,0,1,73.56,121.6Z" style="fill:#039904"/><path d="M75.89,125.2c.13,0,.17.09.15.21A.25.25,0,0,1,75.89,125.2Z" style="fill:#039904"/><path d="M159.28,97.82c-.1.12-.24.07-.37.08A.32.32,0,0,1,159.28,97.82Z" style="fill:#039904"/><path d="M181.63,140.32a.17.17,0,0,1,.2-.19C181.82,140.26,181.73,140.3,181.63,140.32Z" style="fill:#039904"/><path d="M82.34,177.71c.06-.11.12-.13.19,0Z" style="fill:#039904"/><path d="M164.32,108.93c0-.09,0-.16.13-.18S164.35,108.86,164.32,108.93Z" style="fill:#039904"/><path d="M175.45,144.79a.42.42,0,0,1,.32-.17C175.68,144.72,175.6,144.82,175.45,144.79Z" style="fill:#039904"/><path d="M178.29,142.87a.18.18,0,0,1,.21-.16A.28.28,0,0,1,178.29,142.87Z" style="fill:#039904"/><path d="M165.65,95.67c0,.11-.07.18-.18.07A.17.17,0,0,1,165.65,95.67Z" style="fill:#039904"/><path d="M72.46,119.78c.15,0,.17.12.15.25A.32.32,0,0,1,72.46,119.78Z" style="fill:#039904"/><path d="M177.63,143.35c0-.13.09-.17.21-.16A.28.28,0,0,1,177.63,143.35Z" style="fill:#039904"/><path d="M68.89,113c.18,0,.11.2.14.32A.44.44,0,0,1,68.89,113Z" style="fill:#039904"/><path d="M188.27,155.83a.17.17,0,0,1-.18-.19C188.18,155.67,188.27,155.71,188.27,155.83Z" style="fill:#039904"/><path d="M188,156.83c0-.15.14-.15.26-.13A.34.34,0,0,1,188,156.83Z" style="fill:#039904"/><path d="M76.24,161.83c.14,0,.3-.06.4.1A.47.47,0,0,1,76.24,161.83Z" style="fill:#039904"/><path d="M152,100.81c0,.12-.12.14-.23.12A.26.26,0,0,1,152,100.81Z" style="fill:#039904"/><path d="M82.24,112.56c-.1.11-.2.11-.29,0Z" style="fill:#039904"/><path d="M184.67,152.5a.17.17,0,0,1-.19-.17A.26.26,0,0,1,184.67,152.5Z" style="fill:#039904"/><path d="M186.77,157.36c.06-.12.17-.1.27-.11A.36.36,0,0,1,186.77,157.36Z" style="fill:#039904"/><path d="M183.53,158.68c.06-.11.17-.09.26-.1A.29.29,0,0,1,183.53,158.68Z" style="fill:#039904"/><path d="M76.84,126.53a.29.29,0,0,1,.16.24A.34.34,0,0,1,76.84,126.53Z" style="fill:#039904"/><path d="M103.83,205.34a.32.32,0,0,1,.24-.14C104,205.28,104,205.38,103.83,205.34Z" style="fill:#039904"/><path d="M176.8,169.42c-.1,0-.12-.1-.12-.18A.2.2,0,0,1,176.8,169.42Z" style="fill:#039904"/><path d="M73,169.59a.19.19,0,0,1-.13.23Z" style="fill:#039904"/><path d="M177,169.79c-.13,0-.14-.12-.13-.23Z" style="fill:#039904"/><path d="M175.75,144.64c0-.11.09-.12.18-.13A.2.2,0,0,1,175.75,144.64Z" style="fill:#039904"/><path d="M166.32,98.58l0-.18Z" style="fill:#039904"/><path d="M162.51,96.66a.22.22,0,0,1-.26.09A.27.27,0,0,1,162.51,96.66Z" style="fill:#039904"/><path d="M177.85,171.22c-.11,0-.12-.11-.11-.2A.23.23,0,0,1,177.85,171.22Z" style="fill:#039904"/><path d="M175.62,145.56a.18.18,0,0,1-.17-.11A.19.19,0,0,1,175.62,145.56Z" style="fill:#039904"/><path d="M183.69,151.65l-.16-.11C183.63,151.52,183.66,151.58,183.69,151.65Z" style="fill:#039904"/><path d="M174.48,124.5l.1-.16A.17.17,0,0,1,174.48,124.5Z" style="fill:#039904"/><path d="M174.59,124.34c0-.08,0-.15.12-.18A.19.19,0,0,1,174.59,124.34Z" style="fill:#039904"/><path d="M174.7,124.17l.08-.11A.09.09,0,0,1,174.7,124.17Z" style="fill:#039904"/><path d="M183.56,138.74c0-.08,0-.12.1-.13S183.62,138.72,183.56,138.74Z" style="fill:#039904"/><path d="M175.46,145.45a.19.19,0,0,1-.2-.09C175.36,145.32,175.41,145.38,175.46,145.45Z" style="fill:#039904"/><path d="M86.5,177.82a.22.22,0,0,1-.1.27A.26.26,0,0,1,86.5,177.82Z" style="fill:#039904"/><path d="M176.88,146.41c-.09,0-.16,0-.18-.12A.2.2,0,0,1,176.88,146.41Z" style="fill:#039904"/><path d="M187.63,157c0-.11.13-.11.22-.1A.27.27,0,0,1,187.63,157Z" style="fill:#039904"/><path d="M73.29,121.11a.18.18,0,0,1,.1.21A.16.16,0,0,1,73.29,121.11Z" style="fill:#039904"/><path d="M98.41,189.23a.2.2,0,0,1,.23-.11A.24.24,0,0,1,98.41,189.23Z" style="fill:#039904"/><path d="M67.17,150.83c0,.12-.06.14-.15.14Z" style="fill:#039904"/><path d="M176.22,121.8c0-.09,0-.17.11-.19A.22.22,0,0,1,176.22,121.8Z" style="fill:#039904"/><path d="M72,119c.1,0,.12.1.11.19A.21.21,0,0,1,72,119Z" style="fill:#039904"/><path d="M70.46,116.07a.19.19,0,0,1,.08.2A.15.15,0,0,1,70.46,116.07Z" style="fill:#039904"/><path d="M76.51,126.07c.1,0,.12.09.12.18A.22.22,0,0,1,76.51,126.07Z" style="fill:#039904"/><path d="M164.5,108.46c-.08-.07,0-.08,0-.09Z" style="fill:#039904"/><path d="M183.53,151.55h0l0,0Z" style="fill:#039904"/><path d="M103.66,205.5c0-.08,0-.11.11-.14S103.73,205.48,103.66,205.5Z" style="fill:#039904"/><path d="M179.16,142.23l.12-.09Z" style="fill:#039904"/><path d="M177.84,143.2a.11.11,0,0,1,.12-.09Z" style="fill:#039904"/><path d="M177.44,143.44l.11-.07Z" style="fill:#039904"/><polygon points="176.25 144.32 176.23 144.33 176.24 144.33 176.25 144.32" style="fill:#039904"/><path d="M175.93,144.51l.13-.09Z" style="fill:#039904"/><path d="M183.35,138.91l.12-.1Z" style="fill:#039904"/><path d="M175.26,145.36l-.1,0Z" style="fill:#039904"/><path d="M76,125.4l.1.14Z" style="fill:#039904"/><path d="M181.26,140.62l.12-.1Z" style="fill:#039904"/><path d="M164.23,96.1l-.17.07A.14.14,0,0,1,164.23,96.1Z" style="fill:#039904"/><path d="M160.23,97.42l-.16.08Z" style="fill:#039904"/><path d="M183.45,138.83a.1.1,0,0,1,.12-.09Z" style="fill:#039904"/><path d="M150.72,101.42l-.15.08A.14.14,0,0,1,150.72,101.42Z" style="fill:#039904"/><path d="M66.93,151.06l-.11.1Z" style="fill:#039904"/><path d="M164,110.34v0Z" style="fill:#039904"/><path d="M177.91,171.33l-.07-.12Z" style="fill:#039904"/><path d="M68.84,112.93l.06.12Z" style="fill:#039904"/><path d="M183.8,151.74l-.08-.07Z" style="fill:#039904"/><path d="M184.44,152.29a.14.14,0,0,1-.13-.11Z" style="fill:#039904"/><path d="M188.1,155.63l-.1-.09A.09.09,0,0,1,188.1,155.63Z" style="fill:#039904"/><path d="M81.58,177.75h.08l0,0Z" style="fill:#039904"/><path d="M86,179.37l-.06.14Z" style="fill:#039904"/><path d="M75,123.87l.09.14Z" style="fill:#039904"/><path d="M182.89,139.31a.1.1,0,0,1,.11-.09Z" style="fill:#039904"/><path d="M72.92,120.54l.08.14Z" style="fill:#039904"/><path d="M98.7,189.1l.12-.07Z" style="fill:#039904"/><path d="M100,189l0,.06,0,0A.06.06,0,0,1,100,189Z" style="fill:#039904"/><path d="M73.1,120.83l.1.15Z" style="fill:#039904"/><path d="M174.88,123.89l.08-.12Z" style="fill:#039904"/><path d="M73.38,121.31l.1.15Z" style="fill:#039904"/><path d="M96.8,190a.15.15,0,0,1,.17-.08A.16.16,0,0,1,96.8,190Z" style="fill:#039904"/><path d="M186.68,157.4l.1,0Z" style="fill:#039904"/><path d="M96,190.33l.15-.06Z" style="fill:#039904"/><path d="M186.3,157.56c0-.05,0-.09.08,0Z" style="fill:#039904"/><path d="M73.5,121.49l.08.12Z" style="fill:#039904"/><path d="M176.33,121.62l.08-.12Z" style="fill:#039904"/><path d="M74.93,123.78l.08.1Z" style="fill:#039904"/><path d="M74.15,122.54l.09.14Z" style="fill:#039904"/><path d="M74.26,122.73l.07.11Z" style="fill:#039904"/><path d="M108.11,202l.1-.09Z" style="fill:#039904"/><path d="M108,202.13l.1-.08Z" style="fill:#039904"/><path d="M74.33,122.83l.1.15Z" style="fill:#039904"/><path d="M106.78,203.09l.13-.06C106.88,203.08,106.84,203.11,106.78,203.09Z" style="fill:#039904"/><path d="M181.82,140.14l.09-.1Z" style="fill:#039904"/><path d="M104.21,205.1l.12-.09Z" style="fill:#039904"/><path d="M72.27,160.73l0-.07,0,.08h0Z" style="fill:#019902"/><path d="M76.77,126.44a.13.13,0,0,1,.06.07Z" style="fill:#039904"/><path d="M86.39,178.19a.14.14,0,0,1-.07.17A.15.15,0,0,1,86.39,178.19Z" style="fill:#039904"/><path d="M112.1,167.46l-2.57,1.85a40,40,0,0,1-7.2,3.93c-.36.16-.73.3-1.1.44-.09,0-.19.16-.3,0s0-.18,0-.27a48.29,48.29,0,0,1,1.34-5,36.85,36.85,0,0,1,2.79-6.43c0-.08.12-.17,0-.26s-.18,0-.26,0a39.18,39.18,0,0,1-6.58,1.58c-1.23.18-2.48.3-3.72.41-.52,0-1,0-1.56.09-.11,0-.27.06-.35-.06s0-.24.09-.35a46.67,46.67,0,0,1,3.26-4.6,39.16,39.16,0,0,1,3.14-3.43c.5-.48,1-.94,1.6-1.49-.66-.08-1.22-.08-1.77-.11a42.3,42.3,0,0,1-9-1.58c-.5-.14-1-.32-1.49-.49-.11,0-.29,0-.31-.15s.13-.21.23-.28c.69-.51,1.37-1,2.07-1.51A39,39,0,0,1,99,145.23s0,0,.1-.09a2.87,2.87,0,0,0-.92-.43A37.55,37.55,0,0,1,92,141.46q-1.82-1.17-3.52-2.5c-.11-.09-.28-.16-.27-.31s.22-.15.34-.19a43.12,43.12,0,0,1,8.07-1.83c1.27-.16,2.55-.2,3.83-.29l.2,0c-.17-.36-.5-.5-.75-.74a43.52,43.52,0,0,1-7.05-8.6c-.09-.14-.26-.31-.18-.46s.32-.08.48-.07a42.69,42.69,0,0,1,6,.61,40.84,40.84,0,0,1,5.83,1.46.73.73,0,0,0,.18,0,4.42,4.42,0,0,0-.61-1.31,42,42,0,0,1-3.57-10.42c0-.09-.09-.19,0-.26s.2,0,.3.06a42.36,42.36,0,0,1,7.15,3.62q1.68,1.07,3.25,2.3c.09.07.17.23.31.18s.08-.23.07-.34c-.14-1.08-.26-2.16-.32-3.25a41.1,41.1,0,0,1,0-4.69c.05-.93.1-1.86.23-2.78.06-.42.13-.84.18-1.27s.2-.29.4-.12a40,40,0,0,1,3,2.92,39.56,39.56,0,0,1,4.37,5.65l.57.9c.17-.1.15-.28.18-.44a41.05,41.05,0,0,1,3.86-10.67c.14-.27.24-.72.52-.72s.32.46.46.72a41.45,41.45,0,0,1,3.84,10.47c0,.11,0,.22,0,.33s.06.21.11.37c.63-.95,1.19-1.87,1.83-2.75a40.79,40.79,0,0,1,5.83-6.48c.19-.17.37-.55.6-.47s.15.5.2.77a43,43,0,0,1,.35,8.1,22.16,22.16,0,0,1-.33,3.2.89.89,0,0,0,0,.6c.69-.51,1.37-1,2.06-1.5a39.32,39.32,0,0,1,7.63-4.21l1.09-.47c.25-.11.3-.07.25.21a42.73,42.73,0,0,1-1.65,5.93,35.11,35.11,0,0,1-2.45,5.5c0,.09-.17.19-.07.29s.21,0,.31,0a39.64,39.64,0,0,1,6.86-1.61,36,36,0,0,1,5.4-.41,32.29,32.29,0,0,1-1.86,2.86,39.92,39.92,0,0,1-5.36,6.14c-.22.21-.45.39-.68.59-.07.06-.17.12-.13.23s.16.08.25.09c1.1.11,2.21.13,3.31.26a41.07,41.07,0,0,1,6.59,1.3c.67.19,1.33.41,2,.6.32.09.31.19.06.39a43.43,43.43,0,0,1-6.2,4.1,38.8,38.8,0,0,1-4.25,2c-.09,0-.21.05-.22.16s.15.14.24.18a38.84,38.84,0,0,1,5.7,2.81,49,49,0,0,1,4.72,3.26.48.48,0,0,1,.19.25c0,.12-.13.1-.21.13a42.25,42.25,0,0,1-8.67,2,20.17,20.17,0,0,1-3.58.21.89.89,0,0,0,.36.46,38.59,38.59,0,0,1,7,8.35c.16.25.34.5.5.75s.14.46-.25.43c-1.21-.1-2.43-.15-3.64-.3a38.28,38.28,0,0,1-5.58-1c-.87-.24-1.73-.51-2.59-.77-.1,0-.2-.12-.32,0s.08.3.15.42a38.89,38.89,0,0,1,3.22,7.94c.32,1.09.55,2.2.83,3.31.06.23.07.39-.26.26a40.83,40.83,0,0,1-10.51-6c-.08-.06-.16-.2-.27-.12s-.05.21,0,.31a41.31,41.31,0,0,1,.36,7.81c0,1.41-.25,2.8-.4,4.19,0,.3-.12.43-.43.15a43.55,43.55,0,0,1-7.41-8.6,3.8,3.8,0,0,0-.6-.86l-.47,1.93a39.54,39.54,0,0,1-2.8,7.75c-.32.67-.67,1.33-1,2,0,.09-.06.24-.2.23s-.13-.13-.17-.21a42.9,42.9,0,0,1-3.62-9c-.23-.88-.43-1.77-.67-2.74l-1.25,1.87a37.53,37.53,0,0,1-3,3.86,43.05,43.05,0,0,1-3.72,3.73c-.1.09-.18.28-.33.22s-.14-.28-.15-.42c-.12-.94-.23-1.88-.31-2.82a43.13,43.13,0,0,1-.09-5A32.53,32.53,0,0,1,112.1,167.46Zm4.24-32.51c-.16-.12-.33-.24-.49-.37a35,35,0,0,0-9.09-5.36l-1.28-.48a.67.67,0,0,0,.17.48,33.41,33.41,0,0,0,5.43,7c.8.78,1.63,1.53,2.45,2.3h0c-.13.07-.24,0-.36,0a35.89,35.89,0,0,0-11.68-2.1c-.16,0-.34-.08-.5.11a37.49,37.49,0,0,0,5.19,3.66,44.65,44.65,0,0,0,5.74,2.71,36.15,36.15,0,0,0-12.57,2.3A36.21,36.21,0,0,0,112,147.42a41.64,41.64,0,0,0-5.77,2.72,29,29,0,0,0-5.13,3.7,30.79,30.79,0,0,0,6.33-.48,45,45,0,0,0,6.09-1.59,41.61,41.61,0,0,0-4.45,4.49,29.54,29.54,0,0,0-3.57,5.24,35.64,35.64,0,0,0,11-6.23,36.41,36.41,0,0,0-4.3,12,36.57,36.57,0,0,0,8.29-9.81,34.63,34.63,0,0,0,.09,12.67A35.12,35.12,0,0,0,125,158.35a40.86,40.86,0,0,0,1.67,6.13,33.4,33.4,0,0,0,2.77,5.84,36,36,0,0,0,.06-12.8,36.41,36.41,0,0,0,8.29,9.78,36.78,36.78,0,0,0-4.31-12,40.38,40.38,0,0,0,5.25,3.63,31.81,31.81,0,0,0,5.85,2.67,34.51,34.51,0,0,0-3.67-5.3,44.26,44.26,0,0,0-4.47-4.52,35.17,35.17,0,0,0,12.46,2.11,35.1,35.1,0,0,0-10.92-6.43,36.05,36.05,0,0,0,12.59-2.28,36.52,36.52,0,0,0-12.59-2.3,43.83,43.83,0,0,0,5.77-2.71c1.62-.91,4.83-3.17,5.16-3.76a37.19,37.19,0,0,0-12.47,2.15,34.59,34.59,0,0,0,8-9.71,35.29,35.29,0,0,0-11,6.18,43,43,0,0,0,2.64-5.75,32.38,32.38,0,0,0,1.64-6.26,36.38,36.38,0,0,0-8.28,9.78,40.18,40.18,0,0,0,.55-6.35,29.15,29.15,0,0,0-.64-6.32A35.22,35.22,0,0,0,125,131.94a40.93,40.93,0,0,0-1.67-6.12,34.27,34.27,0,0,0-2.78-5.88,35.63,35.63,0,0,0-.6,6.48,42,42,0,0,0,.55,6.39,35.81,35.81,0,0,0-8.24-9.77,1.09,1.09,0,0,0,0,.21,36.11,36.11,0,0,0,1.8,6.53,44.46,44.46,0,0,0,2.41,5.1Z" style="fill:#fdfd03"/><path d="M85.09,163.55c-.05.48-.2.58-.58.34a.93.93,0,0,0-.75-.11c-.28.05-.62.18-.84-.2,0-.05-.17-.06-.26-.05-.29,0-.35-.13-.33-.37Z" style="fill:#039904"/><path d="M80.92,148.69l-.93,0c-.59,0-.68-.36-.69-.81A8.49,8.49,0,0,1,80.92,148.69Z" style="fill:#039904"/><path d="M89.09,163.86a1.55,1.55,0,0,1-1.15.33c-.28,0-.29-.19-.17-.39A7.89,7.89,0,0,1,89.09,163.86Z" style="fill:#039904"/><path d="M154.26,114.61v0c0-.21-.06-.46.24-.47s.18.29.22.46Z" style="fill:#039904"/><path d="M87.95,177.16a.72.72,0,0,1-1,.15A3.16,3.16,0,0,1,87.95,177.16Z" style="fill:#039904"/><path d="M89.37,120.45c-.22.11-.26,0-.28-.21a1.52,1.52,0,0,1-.08-.58A1.89,1.89,0,0,1,89.37,120.45Z" style="fill:#039904"/><path d="M87.28,163.75c0,.17-.06.26-.24.25s-.32-.08-.33-.29Z" style="fill:#039904"/><path d="M86.62,126.6c.16-.28.36-.18.57-.07A.8.8,0,0,1,86.62,126.6Z" style="fill:#039904"/><path d="M155,114.47c0-.12,0-.26.15-.29s.23,0,.24.2S155.13,114.46,155,114.47Z" style="fill:#039904"/><path d="M86.14,163.65c-.18.26-.34.29-.47,0Z" style="fill:#039904"/><path d="M150.07,103.14c.26.16.25.31,0,.47Z" style="fill:#039904"/><path d="M156,114.25c0-.13.06-.24.21-.26s.16.07.17.17Z" style="fill:#039904"/><path d="M92.32,126.15c-.33,0-.29-.21-.27-.41A.65.65,0,0,1,92.32,126.15Z" style="fill:#039904"/><path d="M88.9,177l.32.23c-.26,0-.41,0-.53-.17Z" style="fill:#039904"/><path d="M150,101.8c.25.13.2.3.07.48A.73.73,0,0,1,150,101.8Z" style="fill:#039904"/><path d="M88.13,117.5c-.19,0-.24-.12-.11-.28A.29.29,0,0,1,88.13,117.5Z" style="fill:#039904"/><path d="M150,109c.22.1.22.2,0,.28Z" style="fill:#039904"/><path d="M169.07,141.66c.13,0,.27,0,.29.16A.29.29,0,0,1,169.07,141.66Z" style="fill:#039904"/><path d="M91.86,125.39c-.22,0-.2-.17-.19-.32A.46.46,0,0,1,91.86,125.39Z" style="fill:#039904"/><path d="M88.43,126.47c0-.12.1-.15.19,0A.13.13,0,0,1,88.43,126.47Z" style="fill:#039904"/><path d="M150.05,108.18c.12.08.09.14,0,.19A.14.14,0,0,1,150.05,108.18Z" style="fill:#039904"/><path d="M149.11,116.26h.28C149.29,116.35,149.2,116.42,149.11,116.26Z" style="fill:#039904"/><path d="M92.32,126.39l0-.18C92.4,126.28,92.49,126.35,92.32,126.39Z" style="fill:#039904"/><path d="M90.93,123.68a.14.14,0,0,1-.12-.15C90.88,123.56,90.93,123.59,90.93,123.68Z" style="fill:#039904"/><path d="M153.1,115a.2.2,0,0,1,.21-.08A.22.22,0,0,1,153.1,115Z" style="fill:#039904"/><path d="M159.76,113.47l.19-.06A.17.17,0,0,1,159.76,113.47Z" style="fill:#039904"/><path d="M159.09,113.59l.14-.07Z" style="fill:#039904"/><path d="M158.42,113.7c0-.06.05-.07.09,0h-.09Z" style="fill:#039904"/><path d="M152.72,115.12l.14-.09Z" style="fill:#039904"/><path d="M149.29,115.29l0,.1Z" style="fill:#039904"/><path d="M149.19,115.94l-.06.13Z" style="fill:#039904"/><path d="M90.75,123.28a.17.17,0,0,1,0-.07Z" style="fill:#039904"/><path d="M155.43,99.83c0,.1,0,.14-.12.15s-.19,0-.2-.13a.17.17,0,0,1,.14-.2C155.38,99.64,155.39,99.76,155.43,99.83Z" style="fill:#039904"/><path d="M166.29,96s-.07.08-.12.1S166,96,166,96s0-.12.1-.13S166.27,95.84,166.29,96Z" style="fill:#039904"/><path d="M78.13,127.52l.08,0s0,.07,0,.07-.05,0-.08,0Z" style="fill:#039904"/><path d="M157.23,98.95l-.07,0s0,0,.07,0,0,0,.07,0Z" style="fill:#039904"/><path d="M176,121.71s0,0,0-.07,0,0,0-.07,0,0,0,.07S176,121.68,176,121.71Z" style="fill:#039904"/><path d="M156.81,98.86l0,0,0,0Z" style="fill:#039904"/><path d="M183,139l0,0,0,0Z" style="fill:#039904"/><path d="M102.94,205.52a.36.36,0,0,1,0-.09.3.3,0,0,1,.13,0s.05,0,0,.07Z" style="fill:#039904"/><path d="M65.79,158l.65.19a.75.75,0,0,1-.71-.08Z" style="fill:#039904"/><path d="M113.53,138.52c-.82-.77-1.65-1.52-2.45-2.3a33.41,33.41,0,0,1-5.43-7,.67.67,0,0,1-.17-.48l1.28.48a35,35,0,0,1,9.09,5.36c.16.13.33.24.49.37s.08.06.1.05,0-.09,0-.12a44.46,44.46,0,0,1-2.41-5.1,36.11,36.11,0,0,1-1.8-6.53,1.09,1.09,0,0,1,0-.21,35.81,35.81,0,0,1,8.24,9.77,42,42,0,0,1-.55-6.39,35.63,35.63,0,0,1,.6-6.48,34.27,34.27,0,0,1,2.78,5.88,40.93,40.93,0,0,1,1.67,6.12,35.22,35.22,0,0,1,4.41-11.84,29.15,29.15,0,0,1,.64,6.32,40.18,40.18,0,0,1-.55,6.35,36.38,36.38,0,0,1,8.28-9.78,32.38,32.38,0,0,1-1.64,6.26,43,43,0,0,1-2.64,5.75,35.29,35.29,0,0,1,11-6.18,34.59,34.59,0,0,1-8,9.71,37.19,37.19,0,0,1,12.47-2.15c-.32.59-3.54,2.85-5.16,3.76a43.83,43.83,0,0,1-5.77,2.71,36.52,36.52,0,0,1,12.59,2.3,36.05,36.05,0,0,1-12.59,2.28,35.1,35.1,0,0,1,10.92,6.43,35.17,35.17,0,0,1-12.46-2.11,44.26,44.26,0,0,1,4.47,4.52,34.51,34.51,0,0,1,3.67,5.3,31.81,31.81,0,0,1-5.85-2.67,40.38,40.38,0,0,1-5.25-3.63,36.78,36.78,0,0,1,4.31,12,36.41,36.41,0,0,1-8.29-9.78,36,36,0,0,1-.06,12.8,33.4,33.4,0,0,1-2.77-5.84,40.86,40.86,0,0,1-1.67-6.13,35.12,35.12,0,0,1-4.42,11.82,34.63,34.63,0,0,1-.09-12.67,36.57,36.57,0,0,1-8.29,9.81,36.41,36.41,0,0,1,4.3-12,35.64,35.64,0,0,1-11,6.23,29.54,29.54,0,0,1,3.57-5.24,41.61,41.61,0,0,1,4.45-4.49,45,45,0,0,1-6.09,1.59,30.79,30.79,0,0,1-6.33.48,29,29,0,0,1,5.13-3.7,41.64,41.64,0,0,1,5.77-2.72,36.21,36.21,0,0,1-12.59-2.28,36.15,36.15,0,0,1,12.57-2.3,44.65,44.65,0,0,1-5.74-2.71,37.49,37.49,0,0,1-5.19-3.66c.15-.2.34-.11.5-.11a35.89,35.89,0,0,1,11.68,2.1c.12,0,.23.12.36,0l0,.06s0,0,0,0Z" style="fill:#fefefb"/><path d="M113.53,138.52l0,0s0,0,0,0l0-.06Z" style="fill:#fdfd03"/><path d="M116.41,134.87s.09.08,0,.12-.06,0-.1-.05Z" style="fill:#fdfd03"/></svg>