<svg xmlns="http://www.w3.org/2000/svg" viewBox="0 0 250 250"><defs><style>.a{fill:#7d7935;}.b{fill:#aaa76d;}.c{fill:#aca86e;}.d{fill:#d7d3b3;}.e{fill:#d5d1ae;}.f{fill:#474503;}.g{fill:#fdeea6;}.h{fill:#464403;}.i{fill:#c8730a;}.j{fill:#fdfcfc;}.k{fill:#fdfdfc;}.l{fill:#fcfcfc;}.m{fill:#fefefe;}.n{fill:#fdfdfd;}.o{fill:#fcfcfb;}.p{fill:#fcfbf9;}.q{fill:#484604;}.r{fill:#494705;}</style></defs><title>Fine Dining</title><path class="a" d="M122.12,58.64h6a.14.14,0,0,1-.06.19,1.12,1.12,0,0,1-.57.11h-4.73a1.13,1.13,0,0,1-.57-.11A.14.14,0,0,1,122.12,58.64Z"/><path class="b" d="M122.12,58.64v.1a1.46,1.46,0,0,1-1.35.09.13.13,0,0,1-.05-.18Z"/><path class="c" d="M128.13,58.74a1,1,0,0,1,0-.1h1.29a.13.13,0,0,1-.05.18A1.27,1.27,0,0,1,128.13,58.74Z"/><path class="d" d="M120.71,58.64v.1a.93.93,0,0,1-1.17,0,.3.3,0,0,0,0-.1Z"/><path class="e" d="M129.42,58.73a.53.53,0,0,0,0-.09h1.06s0,.06,0,.1A.77.77,0,0,1,129.42,58.73Z"/><path class="f" d="M129.42,58.73h1.06c4.23.13,8.45.41,12.65.87a162.72,162.72,0,0,1,16.11,2.54A140.35,140.35,0,0,1,184,69.68a103.9,103.9,0,0,1,24.54,14,67,67,0,0,1,16.07,17.45,45.85,45.85,0,0,1,6.6,17.55,42.76,42.76,0,0,1-4.26,25.86,60.58,60.58,0,0,1-14.54,18.41A97.67,97.67,0,0,1,186.47,179a140,140,0,0,1-30.46,9.2,167.14,167.14,0,0,1-24.9,2.71,172.06,172.06,0,0,1-19.72-.41,152.7,152.7,0,0,1-42.1-9.14,108.08,108.08,0,0,1-25.87-13.73A69.37,69.37,0,0,1,26.14,150a46.39,46.39,0,0,1-7.33-18.25,42.57,42.57,0,0,1,3.58-25.17A56.57,56.57,0,0,1,33.05,91.2,88.15,88.15,0,0,1,57,73.83a134.65,134.65,0,0,1,35.46-12,161.46,161.46,0,0,1,24.63-2.95l2.46-.11h9.89Z"/><path class="g" d="M121.17,189.24c-4.44-.06-10.37-.45-16.29-1.15a150.2,150.2,0,0,1-31-6.93,112,112,0,0,1-26.57-12.92A71.65,71.65,0,0,1,29,150.95a46,46,0,0,1-8.17-18.21,40.58,40.58,0,0,1,2.75-24.4A53.13,53.13,0,0,1,33.25,93.6,84.42,84.42,0,0,1,56.59,76,128.84,128.84,0,0,1,86.7,64.86a156.22,156.22,0,0,1,19.06-3.36c4.79-.55,9.59-.87,14.41-1q8-.24,16,.29C154.4,62,172,65.9,188.69,73.69a91.89,91.89,0,0,1,23.7,15.58,56.89,56.89,0,0,1,14,19,40.88,40.88,0,0,1,3.53,17.35,42.06,42.06,0,0,1-4.62,18.21,55.91,55.91,0,0,1-10,13.81,88.31,88.31,0,0,1-25.55,17.89,135.74,135.74,0,0,1-34.54,11A163.86,163.86,0,0,1,133.9,189C130.17,189.24,126.43,189.29,121.17,189.24Z"/><path class="h" d="M126.23,63.41a159.31,159.31,0,0,1,16.7,1,147.07,147.07,0,0,1,28.27,5.91,111,111,0,0,1,28.87,13.63,68.41,68.41,0,0,1,17.56,16.56,43.31,43.31,0,0,1,7.74,17.45,37.88,37.88,0,0,1-2.33,21.8,50.44,50.44,0,0,1-10.42,15.65A84.6,84.6,0,0,1,188,172.8,131.11,131.11,0,0,1,155,183.5a158,158,0,0,1-21.72,2.6c-4.17.21-8.34.29-12.51.17a151.71,151.71,0,0,1-44.71-7.7,109.79,109.79,0,0,1-25.53-12.25,68.9,68.9,0,0,1-18.31-17,43.15,43.15,0,0,1-7.62-16.94,38.18,38.18,0,0,1,3.07-24.15A52.09,52.09,0,0,1,37.7,94,84.94,84.94,0,0,1,61.18,77.33a128,128,0,0,1,28.3-10,150.84,150.84,0,0,1,18-3c4.87-.53,9.75-.85,14.65-.89C123.49,63.4,124.86,63.41,126.23,63.41Z"/><path class="g" d="M141.3,116.65q0-8.46,0-16.93c0-2.29-1-3.37-3.28-3.59A13.27,13.27,0,0,0,136,96c-.34,0-.48,0-.48-.44,0-1,0-1,1-1h16.63c.21,0,.54-.15.61.15a2.18,2.18,0,0,1,0,1.15c-.05.15-.28.08-.43.08a13.49,13.49,0,0,0-2.92.25,2.88,2.88,0,0,0-2.55,2.92c0,.33,0,.67,0,1q0,16.6,0,33.21a8.4,8.4,0,0,0,0,.88,2.84,2.84,0,0,0,2.46,2.8,10.47,10.47,0,0,0,3,.25c.7,0,.49.42.52.77s0,.64-.52.64q-12.37,0-24.74,0a.78.78,0,0,1-.77-.48c-2.35-4-4.75-8.06-7.43-11.9q-1.6-2.29-3.41-4.41a8.47,8.47,0,0,0-5.36-2.87c-.71-.11-1.44-.15-2.16-.25-.43-.06-.57.07-.56.52,0,1.51,0,3,0,4.53,0,3.29,0,6.58,0,9.87,0,2.52.88,3.42,3.41,3.54.51,0,1,.06,1.53,0s.56.14.51.54a1.24,1.24,0,0,0,0,.35c.07.43-.14.51-.53.51q-7.79,0-15.57,0c-.42,0-.59-.08-.57-.54,0-.84,0-.83.85-.85a10.19,10.19,0,0,0,2-.18,2.11,2.11,0,0,0,1.82-2.07c0-.25,0-.51,0-.76q0-17.13,0-34.27a8.66,8.66,0,0,0-.12-1.76,2.41,2.41,0,0,0-2.34-2.16,13.16,13.16,0,0,0-1.58-.1c-.33,0-.43-.1-.44-.43,0-1,0-1,1-1,5.68-.07,11.36-.21,17-.21A20,20,0,0,1,126.29,97a10.23,10.23,0,0,1,5.26,9.28,10.74,10.74,0,0,1-2.23,7.13,13.18,13.18,0,0,1-5.11,3.65c-.7.31-1.41.58-2.13.83-.37.13-.5.22-.17.59a69.88,69.88,0,0,1,8.29,11.15,44.65,44.65,0,0,1,2.18,4,5.64,5.64,0,0,0,4.69,3.55c2.68.24,4.23-1,4.22-3.39C141.29,128.1,141.3,122.37,141.3,116.65Z"/><path class="g" d="M84,109.79a19.67,19.67,0,0,1,3.38.81c5.26,1.93,8.63,5.55,9.47,11.16.69,4.58-.29,8.74-4,11.92a19,19,0,0,1-8.11,4.19A43.2,43.2,0,0,1,75.1,139c-6.4.07-12.8-.27-19.21-.3-.36,0-.46-.11-.47-.47,0-1.19,0-1.17,1.13-1.26a10.08,10.08,0,0,0,2.65-.45,2.65,2.65,0,0,0,1.94-2.64c0-.18,0-.35,0-.53q0-21.31,0-42.61c0-2.71-.79-3.54-3.53-3.73-.62,0-1.24-.15-1.87-.2-.25,0-.31-.13-.33-.37-.09-1.33-.07-1.36,1.35-1.37,4,0,8.07,0,12.1-.08,2.6,0,5.21-.13,7.81,0a29.45,29.45,0,0,1,9.48,1.76,10.8,10.8,0,0,1,7.06,8.15,12,12,0,0,1-2.61,11.1,12.77,12.77,0,0,1-6,3.62l-.45.14S84.11,109.71,84,109.79Z"/><path class="g" d="M198.3,117.22a24.16,24.16,0,0,1-5.34,15,19.11,19.11,0,0,1-10.32,6.46,26.68,26.68,0,0,1-14.21-.07,18.62,18.62,0,0,1-12.36-11,25.42,25.42,0,0,1,.42-22.08c2.55-5.22,6.91-8.48,12.37-10.23C177,92.7,184.45,94.22,191,99.69a20.38,20.38,0,0,1,6.83,12.39A34.33,34.33,0,0,1,198.3,117.22Z"/><path class="i" d="M126.58,146.32h69.59c.34,0,.8-.15.73.5,0,.25-.12.35-.36.33H57.13c-.33,0-.86.23-.83-.47,0-.24.09-.37.35-.35h69.94Z"/><path class="j" d="M133.83,164.95c-.6-.33-1.06-.49-1.3-.94s-.25-.62.15-.84a2.18,2.18,0,0,0,.32-.25c.68-.57.68-.57.08-1.16a2.11,2.11,0,0,1-.51-2.37,2.46,2.46,0,0,1,2.23-1.64,2.76,2.76,0,0,1,1.5.2,4.61,4.61,0,0,0,2.34.38c.22,0,.45,0,.42.31s-.15.36-.41.38c-.87.07-.87.08-.92,1a2.54,2.54,0,0,1-3,2.42.85.85,0,0,0-.75.18c-.22.21-.42.43-.34.76a.71.71,0,0,0,.65.51,14.38,14.38,0,0,0,2.11,0,6.39,6.39,0,0,1,1.11.08,1.63,1.63,0,0,1,1.41,2,2.71,2.71,0,0,1-1.09,1.82,4.7,4.7,0,0,1-4.27.78,1.85,1.85,0,0,1-1.17-.92,1.22,1.22,0,0,1,.24-1.63C133,165.63,133.38,165.32,133.83,164.95Z"/><path class="k" d="M125.16,161.44c0,.57,0,1.14,0,1.7s.15.8.69.81c.17,0,.32,0,.31.25s-.18.23-.34.21a11.09,11.09,0,0,0-2.58,0c-.14,0-.28,0-.31-.18s.07-.27.26-.28c.59,0,.73-.4.72-.93,0-1,0-2,0-3a1.31,1.31,0,0,0-.92-1.41,2,2,0,0,0-1.95.47,1,1,0,0,0-.21.66c0,1.17,0,2.35,0,3.52,0,.45.24.63.64.68.16,0,.32,0,.3.25s-.19.23-.34.21a11,11,0,0,0-2.52,0c-.16,0-.33,0-.35-.2s.13-.25.3-.26c.51,0,.71-.29.71-.8,0-1.19,0-2.39,0-3.58a.93.93,0,0,0-.47-.88c-.3-.18-.25-.35.07-.49a10.63,10.63,0,0,0,1.16-.55c.4-.23.45-.07.46.3,0,.64,0,.64.57.35a3.87,3.87,0,0,1,1.77-.57,1.79,1.79,0,0,1,2,1.88c0,.61,0,1.21,0,1.82Z"/><path class="k" d="M90.36,157.71c0,1.61,0,3.15,0,4.69,0,.22,0,.43,0,.65,0,.51.23.77.77.67.15,0,.37-.14.4.16s-.16.27-.34.31a9.85,9.85,0,0,0-1.69.46c-.32.13-.43,0-.41-.32s0-.34,0-.52c-.29,0-.44.15-.62.25a3.54,3.54,0,0,1-2.07.5,1.51,1.51,0,0,1-1.57-1.36,24.6,24.6,0,0,1-.08-3.28c0-.58.16-1.23-.61-1.55-.23-.1-.15-.37.13-.38a6.73,6.73,0,0,0,1.5-.24c.35-.1.24.2.24.36,0,1.21,0,2.43,0,3.64,0,.16,0,.31,0,.47,0,.61.12,1.2.77,1.46a1.91,1.91,0,0,0,1.93-.31,1,1,0,0,0,.38-.88c0-1.06,0-2.11,0-3.17a.77.77,0,0,0-.56-.85c-.14,0-.32-.1-.29-.31s.26-.19.42-.19A6.27,6.27,0,0,0,90.36,157.71Z"/><path class="j" d="M114.72,160.92a13,13,0,0,0,0,2.11c.13.75.39.93,1.11.72.1,0,.22-.14.3,0s0,.21-.12.3a1.53,1.53,0,0,1-2.24.07.44.44,0,0,0-.68-.1,2.58,2.58,0,0,1-1.64.54,1.5,1.5,0,0,1-1.41-1.2,1.2,1.2,0,0,1,.83-1.49c.73-.32,1.48-.59,2.24-.85a.56.56,0,0,0,.45-.64c0-.27,0-.55,0-.82a1.08,1.08,0,0,0-1-1.18c-.66,0-1,.22-1.16.93a1,1,0,0,1-1.1.64c-.29-.07-.24-.28-.17-.46a2.12,2.12,0,0,1,.79-.92,3.74,3.74,0,0,1,2.38-.84,1.43,1.43,0,0,1,1.49,1.47c0,.29,0,.59,0,.88S114.72,160.64,114.72,160.92Z"/><path class="l" d="M170.38,160.23h-1.76c-.26,0-.41.09-.41.37,0,1.67,1,3.12,2.74,3.05a1.79,1.79,0,0,0,1.21-.5c.13-.12.23-.41.45-.2s0,.36-.14.5a3.06,3.06,0,0,1-4.74,0,3.73,3.73,0,0,1,2-5.69,2.55,2.55,0,0,1,2.68.89,1.7,1.7,0,0,1,.3.75c.08.65,0,.76-.65.78s-1.1,0-1.64,0Z"/><path class="m" d="M157.17,158.13c0,1.61,0,3.21,0,4.82,0,.56.07,1,.79,1,.15,0,.27,0,.26.23a.23.23,0,0,1-.28.22,13.06,13.06,0,0,0-2.75,0c-.16,0-.27,0-.3-.2s.07-.26.23-.25c.75,0,.84-.48.84-1.05q0-4,0-7.93a1.14,1.14,0,0,0-.52-1.1c-.35-.21-.32-.39.09-.52a13,13,0,0,0,1.25-.49c.29-.13.42-.11.41.27,0,1.66,0,3.33,0,5Z"/><path class="n" d="M163.17,158.16c0,1.57,0,3.13,0,4.7,0,.6,0,1.12.84,1.11.14,0,.21.07.21.21s-.09.25-.25.24a14,14,0,0,0-2.81,0c-.17,0-.25-.08-.25-.25s.08-.21.22-.21c.8,0,.83-.54.83-1.12q0-3.93,0-7.87a1.16,1.16,0,0,0-.51-1.1c-.38-.24-.25-.41.12-.52a6.27,6.27,0,0,0,1.09-.42c.45-.23.56-.12.56.36,0,1.62,0,3.25,0,4.87Z"/><path class="j" d="M105.49,157.74a3,3,0,0,1,1.11.15.77.77,0,0,1,.49,1.11c-.15.29-.34.38-.59.12a2,2,0,0,0-2.59-.52,2.63,2.63,0,0,0-1.17,2.69,2.6,2.6,0,0,0,2.79,2.36,2,2,0,0,0,1.3-.6c.13-.12.22-.49.48-.27s0,.43-.14.6a3,3,0,0,1-3.11,1.16,2.81,2.81,0,0,1-2.38-2.15C101,159.88,102.72,157.74,105.49,157.74Z"/><path class="o" d="M96.05,164.57h-.41a1.47,1.47,0,0,1-1.48-2c0-.13.08-.22.21-.24s.21.07.25.19a2.91,2.91,0,0,0,.52,1,1.4,1.4,0,0,0,1.52.52.89.89,0,0,0,.67-.74,1.29,1.29,0,0,0-.69-1.37c-.4-.28-.84-.51-1.23-.8a1.82,1.82,0,0,1,.88-3.39,4.51,4.51,0,0,1,1,0c.87.1,1.2.54,1.11,1.42,0,.11,0,.24-.15.28s-.22,0-.29-.15a4.84,4.84,0,0,0-.41-.64,1.15,1.15,0,0,0-1.37-.38.92.92,0,0,0-.39,1.49,3.07,3.07,0,0,0,.89.65,5.64,5.64,0,0,1,1.07.72,1.93,1.93,0,0,1,.65,2.06,2,2,0,0,1-1.71,1.32,4.51,4.51,0,0,1-.64,0Z"/><path class="k" d="M77.82,161.06c0-.63,0-1.25,0-1.88,0-.36-.07-.56-.49-.51-.13,0-.34.07-.37-.17s.12-.26.28-.3a2.17,2.17,0,0,0,1.31-1.11c.07-.13.14-.3.34-.26s.21.27.18.43c-.09.57.12.77.7.7.37,0,.74,0,1.11,0s.41.09.41.36-.13.38-.4.37c-.47,0-.94,0-1.41,0-.28,0-.43.05-.43.38,0,1.21,0,2.43,0,3.64a1.09,1.09,0,0,0,1.67,1c.13-.06.28-.23.41-.06s0,.32-.17.43a2.36,2.36,0,0,1-2.32.37c-.69-.23-.83-.83-.86-1.46S77.82,161.7,77.82,161.06Z"/><path class="k" d="M143.77,158.68a5,5,0,0,1,1.5-.9.84.84,0,0,1,.88.18.72.72,0,0,1-.85,1.11c-1.06-.48-1.5-.2-1.52,1,0,1,0,2,0,2.93,0,.8.09.88.9,1,.15,0,.39-.07.38.22s-.21.25-.38.23a14,14,0,0,0-2.81,0c-.17,0-.32,0-.34-.23s.13-.22.27-.23c.6,0,.75-.41.75-.91,0-1.19,0-2.39,0-3.58a.86.86,0,0,0-.46-.76c-.3-.19-.24-.35.06-.49s.81-.38,1.21-.59.42-.08.4.26S143.77,158.35,143.77,158.68Z"/><path class="l" d="M151.16,160.56c0,.84,0,1.68,0,2.52,0,.5.13.85.7.87.18,0,.32.05.29.27s-.2.21-.36.2a10.74,10.74,0,0,0-2.51,0c-.15,0-.32,0-.35-.2s.12-.26.29-.26c.53,0,.71-.32.7-.8,0-1.25,0-2.5,0-3.75a.78.78,0,0,0-.39-.68c-.28-.19-.33-.37,0-.53s.85-.38,1.27-.6.36,0,.35.26c0,.9,0,1.8,0,2.7Z"/><path class="p" d="M150.44,153.61a.8.8,0,0,1,.83.86.77.77,0,0,1-.85.82.79.79,0,0,1-.85-.77A.86.86,0,0,1,150.44,153.61Z"/><path class="f" d="M113.57,95.77a12.84,12.84,0,0,1,5,.89,9.14,9.14,0,0,1,5.65,6.53,13.28,13.28,0,0,1-.14,7.08,9,9,0,0,1-7.27,6.55,41.07,41.07,0,0,1-7.65.59c-.29,0-.39-.1-.36-.37s0-.35,0-.53q0-8.46,0-16.92a8,8,0,0,1,.06-1.05,2.78,2.78,0,0,1,2.61-2.64A13.81,13.81,0,0,1,113.57,95.77Z"/><path class="f" d="M72.56,111.87a30.09,30.09,0,0,1,8.38.84,9.66,9.66,0,0,1,7.45,8.78,20.47,20.47,0,0,1-.3,7.23c-1.1,4.56-4,7.24-8.59,8.18a18,18,0,0,1-7,.15A3.82,3.82,0,0,1,69,132.89c0-6.81,0-13.63,0-20.44,0-.46.12-.6.59-.58C70.6,111.9,71.58,111.87,72.56,111.87Z"/><path class="f" d="M69,98.34c0-3.72,0-7.44,0-11.16,0-.47.1-.64.61-.63a38.86,38.86,0,0,1,8,.62A10,10,0,0,1,85.56,96a14.12,14.12,0,0,1-1,7.87,10.63,10.63,0,0,1-7.35,5.78,24.85,24.85,0,0,1-6.71.53c-1.48,0-1.48,0-1.48-1.49Q69,103.51,69,98.34Z"/><path class="f" d="M160.7,117.08a30.32,30.32,0,0,1,2.57-12.54,16.15,16.15,0,0,1,6.25-7.21,12,12,0,0,1,14.28,1,18.82,18.82,0,0,1,6.52,10.27,29,29,0,0,1-1.72,20.7,16.63,16.63,0,0,1-5.29,6.41,13,13,0,0,1-18.52-3.33A23.43,23.43,0,0,1,161,122.36,33.34,33.34,0,0,1,160.7,117.08Z"/><path class="f" d="M135.68,164.87a8.22,8.22,0,0,1,1.16.09,1.33,1.33,0,0,1,.7,2.3,3.06,3.06,0,0,1-3.58.29,1.48,1.48,0,0,1,.72-2.62c.33,0,.66,0,1,0Z"/><path class="f" d="M136.57,160.3a5,5,0,0,1-.14.71,1.19,1.19,0,0,1-1,.89,1.24,1.24,0,0,1-1.23-.51,2.38,2.38,0,0,1-.09-2.6,1.19,1.19,0,0,1,2,0A3,3,0,0,1,136.57,160.3Z"/><path class="q" d="M113.44,162.34c0,1-.19,1.28-.94,1.46a1,1,0,0,1-1.19-.6.84.84,0,0,1,.49-1.11c.37-.17.76-.31,1.14-.46s.6,0,.53.46A2.41,2.41,0,0,0,113.44,162.34Z"/><path class="r" d="M169.61,159.72c-.25,0-.51,0-.76,0-.46,0-.51-.14-.3-.5a1.94,1.94,0,0,1,2.05-.92,1,1,0,0,1,.75.59c.15.38.12.7-.4.74l-1.34.11Z"/></svg>