<svg xmlns="http://www.w3.org/2000/svg" viewBox="0 0 250 250"><title>Grocery</title><path d="M194.85,102.27c.08.11.21.11.32.14a13.09,13.09,0,0,1,3.17,1.44,6,6,0,0,1,2.09,2.19,4.8,4.8,0,0,1,.45,1.32c.07.34.06.35-.27.44a4.71,4.71,0,0,0-2.45,1.5,4.25,4.25,0,0,0-1,2.53,4.92,4.92,0,0,0,.12,1.54.24.24,0,0,1,0,.22,2,2,0,0,1-.53-.2,8.48,8.48,0,0,1-2.84-1.93,5,5,0,0,1-1.32-4.25,10.49,10.49,0,0,1,1.93-4.61c.07-.11.19-.19.19-.33Z" style="fill:#03a43c"/><path d="M156.3,147.31q0-1.82,0-3.64,0-2.53,0-5.05c0-.3,0-.3.29-.3h1.55c.26,0,.26,0,.27.25s0,.19,0,.29l0,0c.11,0,.15-.11.21-.17a2,2,0,0,1,1.15-.56,3,3,0,0,1,3.43,2.49,3.36,3.36,0,0,1-.59,2.7,2.94,2.94,0,0,1-3.08,1.09,2.4,2.4,0,0,1-.86-.43c-.08-.06-.14-.16-.3-.18v3.49Zm4.77-6a1.36,1.36,0,0,0-1.36-1.37,1.38,1.38,0,0,0-1.37,1.34,1.4,1.4,0,0,0,1.36,1.4A1.36,1.36,0,0,0,161.08,141.32Z" style="fill:#03a43c"/><path d="M208.2,147.31a.66.66,0,0,1,.14-.33c.56-1.06,1.12-2.12,1.7-3.18a.53.53,0,0,0,0-.59c-.85-1.51-1.69-3-2.54-4.53a.76.76,0,0,1-.15-.32c.06-.09.16,0,.23,0,.64,0,1.28,0,1.91,0a.37.37,0,0,1,.39.24c.42.82.85,1.64,1.28,2.46l.17.31c.13-.07.15-.19.21-.3.42-.81.84-1.62,1.24-2.44a.41.41,0,0,1,.44-.28c.68,0,1.37,0,2.05,0,.06.15-.05.24-.1.34l-4.42,8.27a.78.78,0,0,0-.17.39Z" style="fill:#03a43c"/><path d="M50,118.34a7,7,0,0,1,1.67,1,5.55,5.55,0,0,1,1.88,3.28,7.53,7.53,0,0,1-.64,4.78,7.75,7.75,0,0,1-4.19,3.78,12.14,12.14,0,0,1-3.47.79c-.94.09-1.87.09-2.81.09H35.69c-.44,0-.4,0-.4-.41q0-12.72,0-25.44c0-.52,0-.44.44-.44,2.77,0,5.53,0,8.3,0a11.67,11.67,0,0,1,3.8.56A7,7,0,0,1,52,109.87a6.82,6.82,0,0,1,.65,4.07,6.22,6.22,0,0,1-1.15,3,5.94,5.94,0,0,1-1.24,1.2C50.15,118.19,50.05,118.22,50,118.34Zm-10,6c0,1,0,2.09,0,3.14,0,.17,0,.26.23.26,1.49,0,3,.06,4.47-.09a6.89,6.89,0,0,0,2.06-.5,3,3,0,0,0,2-2.74,2.9,2.9,0,0,0-1.93-3.12,5.88,5.88,0,0,0-2-.34c-1.51,0-3,0-4.54,0-.27,0-.27,0-.27.28Q40,122.73,40,124.29Zm0-11q0,1.41,0,2.81c0,.3,0,.3.29.3h3.57a6.44,6.44,0,0,0,2-.24,2.57,2.57,0,0,0,1.81-1.8A3.71,3.71,0,0,0,47.8,113a2.59,2.59,0,0,0-2-2.47,5.35,5.35,0,0,0-1.24-.22c-1.43-.1-2.86,0-4.29,0-.27,0-.27,0-.27.29Q40,111.92,40,113.33Z" style="fill:#ff0101"/><path d="M119.87,121.85a9.16,9.16,0,0,1,1.82.64,5.3,5.3,0,0,1,2.73,2.89,12.15,12.15,0,0,1,.77,3.18,22.65,22.65,0,0,1,.09,3.06c0,.29,0,.3-.3.3h-4.22c-.27,0-.27,0-.27-.28a13.17,13.17,0,0,0-.35-3.26,5.23,5.23,0,0,0-1.45-2.65,5.67,5.67,0,0,0-2.59-1.29,8.38,8.38,0,0,0-1.9-.22c-.45,0-.4,0-.4.39q0,3.45,0,6.89c0,.53.07.46-.45.47H109.2c-.14,0-.2-.06-.19-.19s0-.17,0-.25q0-12.81,0-25.62c0-.46,0-.46.45-.46h4c.39,0,.37,0,.37.37q0,6.57,0,13.14c0,.52,0,.52.53.44a11.5,11.5,0,0,0,1.94-.41,4.7,4.7,0,0,0,3.14-3.27,11.35,11.35,0,0,0,.44-2.55c0-.18,0-.36,0-.54s0-.3.31-.3h4.22c.31,0,.32,0,.31.29a24.3,24.3,0,0,1-.18,3.17,9,9,0,0,1-1.5,3.94,5.19,5.19,0,0,1-3,2.05Z" style="fill:#ff0101"/><path d="M146.85,114.52c.13,0,.16-.08.2-.13a5.46,5.46,0,0,1,3.79-2,10.64,10.64,0,0,1,3.05.05,5.88,5.88,0,0,1,4.87,4.83,8.51,8.51,0,0,1,.14,1.51q0,6.5,0,13c0,.06,0,.12,0,.18s0,.15-.15.15h-4.51c-.12,0-.18,0-.17-.17s0-.19,0-.29q0-5.68,0-11.37a5.48,5.48,0,0,0-.24-1.78,2.63,2.63,0,0,0-2.44-2,4,4,0,0,0-3.16,1,4.39,4.39,0,0,0-1.31,2.67,7.64,7.64,0,0,0-.07,1.15q0,5.16,0,10.32c0,.45.06.4-.4.4h-4.26c-.12,0-.18,0-.17-.17s0-.17,0-.25q0-12.72,0-25.44c0-.5-.06-.43.45-.43h4.08c.31,0,.31,0,.31.32q0,3.93,0,7.87C146.85,114.16,146.85,114.33,146.85,114.52Z" style="fill:#ff0101"/><path d="M183.16,123.47a5.66,5.66,0,0,0,4.19,4.7,5.11,5.11,0,0,0,5.29-1.64,1.29,1.29,0,0,1,1.1-.49c1.13,0,2.26,0,3.39,0h.38a.2.2,0,0,1,0,.23,9.94,9.94,0,0,1-7.38,5.65,9.55,9.55,0,0,1-6.56-1,9.89,9.89,0,0,1-3.75-13.79,9.12,9.12,0,0,1,4.24-3.73,10,10,0,0,1,10.32,1,9.27,9.27,0,0,1,3.79,6,10.7,10.7,0,0,1,.15,2.87c0,.18-.07.26-.26.24H183.16Zm10.62-3.54a5.53,5.53,0,0,0-5.3-3.65c-2.14,0-4.57,1.83-5,3.65Z" style="fill:#ff0101"/><path d="M96.74,132.1a10.13,10.13,0,0,1-8.06-4.52,9.46,9.46,0,0,1,.81-11.82,10.38,10.38,0,0,1,6.33-3.37,10.51,10.51,0,0,1,10.51,4.92,9.15,9.15,0,0,1,1.26,6.06,9.67,9.67,0,0,1-5.12,7.39A10.93,10.93,0,0,1,96.74,132.1Zm.22-4.54a6.07,6.07,0,0,0,4.25-1.48,5.13,5.13,0,0,0,.39-7.39,5.81,5.81,0,0,0-8.1-.42,5.08,5.08,0,0,0-1.12,6.47A5.5,5.5,0,0,0,97,127.56Z" style="fill:#ff0101"/><path d="M75.79,132.12a10.37,10.37,0,0,1-9.17-5.36,9.42,9.42,0,0,1,1-10.66,10.44,10.44,0,0,1,6.44-3.67A10.56,10.56,0,0,1,84.58,117a9.53,9.53,0,0,1-1.28,12,10.49,10.49,0,0,1-6.23,3C76.64,132.08,76.22,132.08,75.79,132.12Zm-.35-4.56a6.07,6.07,0,0,0,4.21-1.47,5.13,5.13,0,0,0,.39-7.41,5.81,5.81,0,0,0-8.49,0,5,5,0,0,0-.81,5.91A5.51,5.51,0,0,0,75.45,127.56Z" style="fill:#ff0101"/><path d="M129,126.28l.38.36a5.25,5.25,0,0,0,2.86,1.51,4.12,4.12,0,0,0,2.07-.11,2.52,2.52,0,0,0,1.12-.76,1.47,1.47,0,0,0-.15-2.1,3.12,3.12,0,0,0-.85-.53,17.74,17.74,0,0,0-2.15-.72,16.67,16.67,0,0,1-2.61-.95,5.35,5.35,0,0,1-2.4-2.12,5.14,5.14,0,0,1-.63-2,5.33,5.33,0,0,1,3.17-5.76,9.16,9.16,0,0,1,10.38,2.16l.09.12-3,2.67a1,1,0,0,1-.34-.29,5.27,5.27,0,0,0-2.34-1.44,3.48,3.48,0,0,0-1.92,0,1.74,1.74,0,0,0-1.12,2.2,1.47,1.47,0,0,0,.66.78,5.81,5.81,0,0,0,1.53.63c1,.29,2,.52,3,.87a7.42,7.42,0,0,1,2.33,1.26,4.44,4.44,0,0,1,1.56,2.84,6.26,6.26,0,0,1-.2,2.89,5.54,5.54,0,0,1-2.82,3.23,9.57,9.57,0,0,1-5.2,1,9.27,9.27,0,0,1-5.14-1.86,7.67,7.67,0,0,1-1.06-1c-.07-.08-.11-.14,0-.24l2.76-2.7Z" style="fill:#ff0101"/><path d="M214.82,115.39l-3,2.69a13,13,0,0,0-1-.93,4.24,4.24,0,0,0-2.2-.91,3.43,3.43,0,0,0-1.39.14,1.62,1.62,0,0,0-1.13,1.52,1.44,1.44,0,0,0,.8,1.49,8,8,0,0,0,1.88.7,26.81,26.81,0,0,1,3,.94,7.5,7.5,0,0,1,1.49.8,4.53,4.53,0,0,1,1.94,3.43,6.21,6.21,0,0,1-.24,2.57,5.58,5.58,0,0,1-2.82,3.23,9.54,9.54,0,0,1-5,1,9.41,9.41,0,0,1-4.95-1.59,7.35,7.35,0,0,1-1.39-1.2c-.17-.19-.17-.2,0-.37l2.54-2.51c.13-.13.21-.15.34,0a6.28,6.28,0,0,0,1,.85,4.93,4.93,0,0,0,3.58.91,2.6,2.6,0,0,0,1.62-.8,1.48,1.48,0,0,0-.17-2.3,3.83,3.83,0,0,0-.94-.52c-.88-.36-1.81-.57-2.71-.87a10.79,10.79,0,0,1-2.6-1.15,4.82,4.82,0,0,1-2.25-3.68,6,6,0,0,1,.19-2.46,5.18,5.18,0,0,1,2.5-3,7.87,7.87,0,0,1,3.93-1,9,9,0,0,1,6.85,2.85Z" style="fill:#ff0101"/><path d="M55.34,125.61c0-1.67,0-3.34,0-5a10.23,10.23,0,0,1,.36-2.85,7,7,0,0,1,4-4.56,9.94,9.94,0,0,1,3.38-.81c.71-.05,1.42-.07,2.13-.07.18,0,.25,0,.25.24q0,2,0,4.08c0,.18-.06.22-.23.22a12.4,12.4,0,0,0-1.8.08,4.92,4.92,0,0,0-1.19.29A3.3,3.3,0,0,0,60.22,120a7.83,7.83,0,0,0-.08,1.22q0,5.29,0,10.57c0,.06,0,.12,0,.18s0,.18-.17.18H55.47a.12.12,0,0,1-.13-.14c0-.08,0-.17,0-.25q0-3,0-6.1Z" style="fill:#ff0101"/><path d="M168.06,125.7c0-1.9,0-3.8,0-5.7a7.67,7.67,0,0,1,1.2-4.17,7.38,7.38,0,0,1,4-3,11.93,11.93,0,0,1,3.4-.55c.43,0,.87,0,1.3,0,.27,0,.27,0,.28.28,0,1,0,1.95,0,2.92,0,.36,0,.72,0,1.08,0,.19-.06.25-.25.25a11.51,11.51,0,0,0-2.16.14,3.37,3.37,0,0,0-2.91,3.09,10.52,10.52,0,0,0-.07,1.22q0,5.14,0,10.28,0,.11,0,.22c0,.33,0,.31-.31.31h-4.15c-.36,0-.32,0-.32-.34q0-3,0-6.06Z" style="fill:#ff0101"/><path d="M165.88,122.23q0,4.67,0,9.34c0,.07,0,.14,0,.22,0,.31,0,.31-.32.31h-4.18c-.28,0-.28,0-.29-.27,0-.06,0-.12,0-.18q0-9.45,0-18.9c0-.51,0-.44.44-.44h3.86c.55,0,.49-.08.49.47Q165.88,117.5,165.88,122.23Z" style="fill:#ff0303"/><path d="M186.26,139a2.56,2.56,0,0,1,3.92.31c.11,0,.15-.14.21-.22a2.4,2.4,0,0,1,2.64-.73,1.73,1.73,0,0,1,1.15,1.41,3.36,3.36,0,0,1,.07.68c0,1.19,0,2.38,0,3.57,0,.32,0,.32-.31.32h-1.48c-.34,0-.34,0-.34-.33,0-.88,0-1.76,0-2.63,0-.19,0-.39,0-.58a.89.89,0,0,0-1.77-.2,2.75,2.75,0,0,0-.11.85q0,1.28,0,2.56c0,.32,0,.32-.31.33h-1.52c-.29,0-.29,0-.29-.3q0-1.44,0-2.89a2.44,2.44,0,0,0-.06-.61.91.91,0,0,0-.83-.69,1,1,0,0,0-.89.57,2.05,2.05,0,0,0-.11.82c0,.88,0,1.76,0,2.63,0,.54.05.47-.49.48H184.4c-.3,0-.31,0-.31-.29q0-2.72,0-5.45c0-.26,0-.27.25-.27H186c.18,0,.27.05.25.25A1.07,1.07,0,0,0,186.26,139Z" style="fill:#03a43c"/><path d="M145.58,138.85a1,1,0,0,0,0-.39c0-1.19,0-2.38,0-3.57,0-.28,0-.28.27-.28h1.55c.29,0,.3,0,.3.3q0,1.78,0,3.57,0,2.72,0,5.44c0,.07,0,.14,0,.22s0,.2-.19.19h-1.77c-.12,0-.17-.05-.17-.17a1.19,1.19,0,0,0,0-.39s-.06,0-.07,0a2.41,2.41,0,0,1-2.72.57,2.92,2.92,0,0,1-2-2.39,3.19,3.19,0,0,1,.64-2.72,2.89,2.89,0,0,1,3.07-1A2.37,2.37,0,0,1,145.58,138.85Zm-1.25,1.1a1.38,1.38,0,0,0-1.38,1.37,1.39,1.39,0,0,0,1.38,1.37,1.37,1.37,0,0,0,0-2.74Z" style="fill:#03a43c"/><path d="M166.22,139a2.12,2.12,0,0,1,1.17-.75,2.74,2.74,0,0,1,2.06.28,1.88,1.88,0,0,1,.93,1.66c0,1.3,0,2.6,0,3.9,0,.17-.06.23-.23.23-.55,0-1.11,0-1.66,0-.2,0-.24-.08-.24-.26,0-.9,0-1.8,0-2.71,0-.2,0-.41,0-.61a.88.88,0,0,0-.77-.87,1.07,1.07,0,0,0-1.17.58,1.82,1.82,0,0,0-.12.78c0,.84,0,1.68,0,2.53,0,.64.09.55-.55.56h-1.23c-.4,0-.36,0-.36-.35q0-1.95,0-3.9,0-2.53,0-5.05c0-.08,0-.17,0-.25s.05-.17.17-.17h1.73c.17,0,.24.05.23.23s0,.36,0,.54q0,1.62,0,3.25A.74.74,0,0,0,166.22,139Z" style="fill:#03a43c"/><path d="M175.68,143.74a2.1,2.1,0,0,1-1.07.68,2.89,2.89,0,0,1-3-1,3.39,3.39,0,0,1,0-4.29,2.89,2.89,0,0,1,3-.93,2.12,2.12,0,0,1,.83.41c.08.06.15.16.25.19a.09.09,0,0,0,.05-.1c0-.4,0-.4.41-.4h1.48c.18,0,.25.05.25.25q0,2.76,0,5.52c0,.19-.05.25-.24.25-.55,0-1.11,0-1.66,0-.2,0-.25-.08-.24-.26A.5.5,0,0,0,175.68,143.74Zm.12-2.42a1.36,1.36,0,0,0-1.36-1.38,1.39,1.39,0,0,0-1.38,1.34,1.4,1.4,0,0,0,1.4,1.4A1.36,1.36,0,0,0,175.8,141.33Z" style="fill:#03a43c"/><path d="M199.58,138.8l0,0c.06-.45.06-.45.53-.45h1.23c.44,0,.4,0,.4.38q0,2.52,0,5c0,.12,0,.24,0,.36s0,.22-.2.22h-1.73c-.16,0-.21-.08-.2-.22a.79.79,0,0,0,0-.31c-.06,0-.1,0-.13,0a2.34,2.34,0,0,1-2.3.61,3,3,0,0,1-2.42-2.75,3.25,3.25,0,0,1,1-2.81,2.88,2.88,0,0,1,3.31-.43C199.27,138.56,199.42,138.69,199.58,138.8Zm.12,2.53a1.36,1.36,0,0,0-1.36-1.38,1.38,1.38,0,0,0-1.38,1.37,1.4,1.4,0,0,0,1.39,1.37A1.36,1.36,0,0,0,199.7,141.33Z" style="fill:#03a43c"/><path d="M140.21,141.35a3.08,3.08,0,0,1-2.2,3,4.23,4.23,0,0,1-3.1-.12,3,3,0,0,1-1.91-2.77,2.92,2.92,0,0,1,1.71-2.9,4.13,4.13,0,0,1,3.75,0A3,3,0,0,1,140.21,141.35Zm-3.58-1.42a1.37,1.37,0,0,0-1.4,1.35,1.4,1.4,0,0,0,1.37,1.39,1.38,1.38,0,0,0,1.37-1.35A1.35,1.35,0,0,0,136.63,139.93Z" style="fill:#03a43c"/><path d="M128.9,144.55a4.16,4.16,0,0,1-2.21-.6,3.12,3.12,0,0,1,.21-5.37,4.12,4.12,0,0,1,3.79-.09,3,3,0,0,1,1.8,3.1,3.13,3.13,0,0,1-2.25,2.76A4.93,4.93,0,0,1,128.9,144.55Zm0-4.62a1.36,1.36,0,0,0-1.4,1.35,1.37,1.37,0,1,0,2.74.06A1.36,1.36,0,0,0,128.9,139.93Z" style="fill:#03a43c"/><path d="M125.06,136.52l-.43-.14a.76.76,0,0,0-1,.73c0,.32,0,.65,0,1s.09.24.26.24h1c.17,0,.23.05.23.23,0,.43,0,.87,0,1.3,0,.24,0,.24-.27.25h-.87c-.38,0-.36,0-.36.34q0,1.39,0,2.78c0,.26,0,.53,0,.79s0,.32-.31.32h-1.51c-.29,0-.3,0-.3-.3,0-1.18,0-2.36,0-3.53,0-.46.06-.4-.4-.41h-.22a.12.12,0,0,1-.13-.13c0-.5,0-1,0-1.51,0-.12.09-.12.18-.13s.44.09.54-.07,0-.37,0-.56a7.17,7.17,0,0,1,0-.94,2.65,2.65,0,0,1,2.16-2.22,2.28,2.28,0,0,1,1.17.07.3.3,0,0,1,.25.33C125,135.44,125.06,136,125.06,136.52Z" style="fill:#03a43c"/><path d="M163.52,105.8h2.09c.25,0,.26,0,.26.26q0,1.93,0,3.86c0,.25,0,.26-.27.26h-4.26c-.25,0-.26,0-.26-.26q0-1.93,0-3.86c0-.25,0-.25.27-.25Z" style="fill:#ff0303"/><path d="M202.72,110.73a3.54,3.54,0,0,1-2.58,3.37,5.91,5.91,0,0,1-1.45.27.22.22,0,0,1-.25-.15,4.09,4.09,0,0,1,.36-4.36,4,4,0,0,1,2.24-1.3c.3-.07.62-.09.93-.14a.27.27,0,0,1,.33.19A5.21,5.21,0,0,1,202.72,110.73Z" style="fill:#69b92e"/><path d="M207,142.4c0,.58,0,1.11,0,1.63,0,.16-.1.2-.22.24a3.46,3.46,0,0,1-2.23.11,3.17,3.17,0,0,1,.29-6.18,3.36,3.36,0,0,1,1.91.15.33.33,0,0,1,.25.37c0,.49,0,1,0,1.48a.76.76,0,0,1-.35-.14,1.63,1.63,0,0,0-1-.16,1.42,1.42,0,0,0-1.17,1.73,1.45,1.45,0,0,0,1.84,1.09A2.71,2.71,0,0,0,207,142.4Z" style="fill:#03a43c"/><path d="M150.53,141.36a.29.29,0,0,0-.1-.21,1.42,1.42,0,0,1,.88-2.33,1.83,1.83,0,0,1,1.74.45,1.3,1.3,0,0,1-.14,2l-.45.3.55.58a.15.15,0,0,0,.24,0,5,5,0,0,0,.56-.63,6.5,6.5,0,0,1,.72.66c.09.08,0,.15,0,.22s-.33.35-.5.52-.1.17,0,.27l.74.78.25.29c-.07.11-.16.07-.24.07-.36,0-.72,0-1.08,0a.67.67,0,0,1-.59-.26c-.21-.24-.22-.24-.49-.08a3.48,3.48,0,0,1-1.31.47,1.94,1.94,0,0,1-1.19-.21,1.41,1.41,0,0,1-.8-1.28,1.45,1.45,0,0,1,.74-1.35C150.19,141.52,150.37,141.45,150.53,141.36Zm1.56,1.6-.74-.8a.14.14,0,0,0-.22,0l-.19.16a.48.48,0,0,0-.16.55.53.53,0,0,0,.47.34A1.1,1.1,0,0,0,152.09,143Zm-.25-2.09a1.08,1.08,0,0,0,.33-.25.56.56,0,0,0,.15-.5.45.45,0,0,0-.34-.38.45.45,0,0,0-.53.63A1.59,1.59,0,0,0,151.84,140.87Z" style="fill:#03a43c"/><path d="M181,139.16a2.1,2.1,0,0,1,1.15-.83,3.5,3.5,0,0,1,1-.09c.1,0,.19,0,.19.16s0,.14,0,.22c0,.54,0,1.07,0,1.64a2.84,2.84,0,0,0-.95-.17,1.32,1.32,0,0,0-1.42,1.39c0,.62,0,1.25,0,1.87,0,.26,0,.53,0,.79s0,.2-.19.2H179c-.14,0-.19-.07-.18-.2s0-.34,0-.5q0-2.45,0-4.9c0-.08,0-.17,0-.25a.13.13,0,0,1,.15-.15h1.84c.13,0,.15.09.15.2s0,.42,0,.63Z" style="fill:#03a43c"/></svg>