<svg xmlns="http://www.w3.org/2000/svg" viewBox="0 0 250 250"><title>Grocery</title><path d="M47.8,121.29c0-14.92,12.34-27,27.54-27a26.32,26.32,0,0,1,26.42,26.22,27.47,27.47,0,0,1-27.59,27A26.28,26.28,0,0,1,47.8,121.29Zm26.46,24.15a25.21,25.21,0,0,0,25.37-25.07,24.15,24.15,0,0,0-24.29-24,25.2,25.2,0,0,0-25.45,25A24.1,24.1,0,0,0,74.26,145.44Z" style="fill:#c31231"/><path d="M212.26,106c1.94.78,2.31,2.32,2.24,4.15-.07,2.14-.1,4.28,0,6.41,0,1.2-.43,1.45-1.54,1.47-5.07.08-5.06.11-5.07-4.88,0-1.32,0-2.64,0-4a1.43,1.43,0,0,0-1.61-1.63c-1.37,0-.82,1-.83,1.64-.06,2.45-.08,4.91,0,7.36,0,1.18-.36,1.57-1.51,1.47-1.68-.14-3.84.67-4.93-.31s-.34-3.2-.36-4.87c-.05-5.35,0-10.69,0-16,0-1.33.2-1.88,1.7-1.81,3.08.14,6.16,0,9.25.05s4.44,1.1,5.1,3.53C215.58,102.12,214.91,104.32,212.26,106Zm-3.9-4.64c.09-1.49-.78-2.22-2.06-2-1.81.27-.56,1.8-.83,2.72s0,1.53,1.21,1.47C208.21,103.42,208.33,102.44,208.36,101.32Z" style="fill:#c31231"/><path d="M119.33,105.13c3.42,2,3.36,4.57,2.59,8.37-.58,2.88-2.38,4.2-6,4.4-2.95.17-5.91,0-8.86.1-1,0-1.15-.39-1.14-1.23q0-10.28,0-20.57c0-.86.2-1.23,1.14-1.21,3.14.06,6.3-.13,9.43.09,4.55.31,5.91,2.48,5.27,7.22C121.62,103.47,121,104,119.33,105.13Zm-6.88,5.35a11.5,11.5,0,0,0,0,1.69c.09.59-.47,1.54.64,1.65s2.19-.05,2.46-1.23a8.28,8.28,0,0,0-.07-4.27c-.34-1.1-1.36-1.2-2.33-1.13-1.15.09-.6,1-.69,1.6A11.42,11.42,0,0,0,112.45,110.48Zm0-9.48c0,.44,0,.88,0,1.31s-.23,1.1.46,1.26a2,2,0,0,0,1.94-.4c.52-.51.62-3.62.13-4.16a2.14,2.14,0,0,0-1.93-.48c-.75.06-.57.68-.6,1.15S112.45,100.57,112.45,101Z" style="fill:#c31231"/><path d="M196.47,106.36c0,1.76,0,3.53,0,5.29-.07,3.41-1.64,5.42-5,6.17a13.86,13.86,0,0,1-7.28-.21,5.6,5.6,0,0,1-4.12-5.49c-.07-3.84,0-7.68,0-11.52a5.06,5.06,0,0,1,3.53-5.07,13.11,13.11,0,0,1,9.42,0,5,5,0,0,1,3.42,4.94c0,2,0,3.9,0,5.86Zm-6.66.2h0c0-1.82,0-3.65,0-5.47,0-1-.4-1.78-1.52-1.79a1.53,1.53,0,0,0-1.63,1.7c0,3.59,0,7.17,0,10.76,0,.94.39,1.78,1.51,1.82,1.29,0,1.55-.93,1.58-1.91C189.85,110,189.8,108.27,189.8,106.57Z" style="fill:#c31231"/><path d="M140.38,104.23c0,2.52,0,5,0,7.56,0,3.43-1.66,5.45-5,6.1a15.08,15.08,0,0,1-6.75-.13c-2.83-.74-4.4-2.5-4.45-5.36-.09-5.42,0-10.83-.06-16.25,0-.93.33-1.12,1.2-1.16,5.31-.26,5.3-.28,5.31,5q0,5.76,0,11.53c0,.9,0,1.8,1.06,2.2,1.25.49,2.15-.36,2.17-2.18,0-4.85.08-9.7,0-14.55,0-1.54.31-2,1.93-2,4.61.11,4.62,0,4.62,4.55Q140.38,101.87,140.38,104.23Z" style="fill:#c31231"/><path d="M165.06,106.37c0-3.34,0-6.68,0-10,0-1.08.32-1.39,1.38-1.37q5.29.09,10.58,0c1,0,1.57.2,1.41,1.34a3.06,3.06,0,0,0,0,.94c.3,1.76-.3,2.58-2.19,2.27-.8-.13-1.65.09-2.45,0-1.77-.3-2.1.5-2,2.08.06,1.1.25,1.64,1.47,1.5.87-.1,1.78.09,2.64,0,1.82-.27,2.27.4,2.32,2.23.05,2-.6,2.38-2.43,2.31-3.95-.14-3.95,0-3.95,4,0,1.7,0,3.4,0,5.1,0,1-.24,1.29-1.26,1.34-5.5.27-5.5.3-5.5-5.21Q165.06,109.58,165.06,106.37Z" style="fill:#c31231"/><path d="M141.56,95c2.07,0,3.95,0,5.82,0,.75,0,.91.37,1.05,1a42.68,42.68,0,0,0,1.76,6c.44-1.87.91-3.73,1.29-5.61.2-1,.53-1.56,1.71-1.44A21.37,21.37,0,0,0,157,95c1.34-.11,1.45.36,1,1.49-1,2.71-1.79,5.51-2.88,8.19a23.91,23.91,0,0,0-1.9,11.58c.15,1.46-.41,1.78-1.79,1.77-4.57,0-4.63,0-4.55-4.63a16.11,16.11,0,0,0-1-5.9C144.43,103.41,143.05,99.3,141.56,95Z" style="fill:#c31231"/><path d="M92.85,128.74c0,2.75-1.82,5.82-4.67,8.36-.64.57-1.56,1-.69,2.08a.54.54,0,0,1-.35.88c-1.36.29-2.47,2.93-4.18.43-.35-.51-1.06,0-1.59.17a16,16,0,0,1-12.23-1.55,11.29,11.29,0,0,1-1.53-1.1c-3.59-3-3.5-3.69.64-5.56.4-.18.82-.33,1.2-.54,1.41-.78,2.42-1.18,4,.36,2.82,2.79,9,1.4,10.88-2.09a3.9,3.9,0,0,0-1.66-5.49,7.81,7.81,0,0,0-6.75-.36,17.81,17.81,0,0,1-9.66.82c-4.76-1-8.4-3.62-9.57-8.56s.93-8.94,4.63-12.21c.83-.73,2.28-.95,1.93-2.75-.12-.6,1.35-.93,2.12-1.34s1.57-.8,2.15.4c.33.69,1,.2,1.53.13,3.83-.46,7.56-.34,11,1.77a12.23,12.23,0,0,1,3.89,3.79c.45.69.36,1.09-.4,1.44-1.83.85-3.65,1.71-5.44,2.63-.73.38-1.07.08-1.57-.42a7.79,7.79,0,0,0-11.21.92,3.91,3.91,0,0,0,1.12,6c2.28,1.43,4.67,1.21,7.09.39a17.18,17.18,0,0,1,10.93-.4C89.54,118.57,92.83,122.7,92.85,128.74Z" style="fill:#c31231"/><path d="M84.84,105.63c5,2.8,7.44,7.28,8.25,12.76a30.91,30.91,0,0,1,0,4.33,3.8,3.8,0,0,1-1.32-2.85,16.2,16.2,0,0,0-5.5-11.62,3.46,3.46,0,0,1-1.43-2.67Z" style="fill:#c31231"/><path d="M64,136c-5.53-4.08-7.9-9.42-7.78-16.34a3.23,3.23,0,0,1,1.45,2.44,16.55,16.55,0,0,0,5.22,11.2C63.68,134,63.74,134.31,64,136Z" style="fill:#c31231"/><path d="M84.87,105.59l-.27,0,0-.17.2.23Z" style="fill:#c31231"/><polygon points="105.43 123.28 105.43 146.34 119.3 146.34 119.3 141.55 112.36 141.55 112.36 123.28 105.43 123.28" style="fill:#f5c300"/><polygon points="134.42 123.28 120.81 123.28 120.81 146.34 134.42 146.34 134.42 141.8 127.61 141.8 127.61 136.51 134.42 136.51 134.42 132.1 127.61 132.1 127.61 127.69 134.42 127.69 134.42 123.28" style="fill:#f5c300"/><path d="M145.95,129.89h7s.57-6.11-5.86-6.62V122h-4.79v1.26s-5.17.13-5.86,5.17c0,0-.25,4,4.28,6.36,0,0,4.54,2.14,5.67,5,0,0,.2,2.14-1.7,2.14a1.59,1.59,0,0,1-1.45-1.58V137.7h-6.49v3.84s.32,4.54,5.67,4.79v1.2H147v-1.2a5.54,5.54,0,0,0,5.94-4.66s.59-3.28-.26-4.73c0,0-1-2.17-5.86-4.91a41.28,41.28,0,0,1-3.37-2.55s-.63-1.89,1.26-1.76A1.72,1.72,0,0,1,145.95,129.89Z" style="fill:#f5c300"/><path d="M164,129.89h7s.57-6.11-5.86-6.62V122h-4.79v1.26s-5.17.13-5.86,5.17c0,0-.25,4,4.28,6.36,0,0,4.54,2.14,5.67,5,0,0,.2,2.14-1.7,2.14a1.59,1.59,0,0,1-1.45-1.58V137.7h-6.49v3.84s.32,4.54,5.67,4.79v1.2H165v-1.2a5.54,5.54,0,0,0,5.94-4.66s.59-3.28-.26-4.73c0,0-1-2.17-5.86-4.91a41.28,41.28,0,0,1-3.37-2.55s-.63-1.89,1.26-1.76A1.72,1.72,0,0,1,164,129.89Z" style="fill:#f5c300"/><path d="M170.55,147.6v-2.47h-.88v-.5H172v.5h-.88v2.47Z" style="fill:#c30e2e"/><path d="M172.48,147.6v-3h.9l.54,2,.53-2h.9v3h-.56v-2.34l-.59,2.34h-.58l-.59-2.34v2.34Z" style="fill:#c30e2e"/><text transform="matrix(0.92, 0.4, -0.44, 1, 81.99, 101.74)" style="font-size:4.158689975738525px;fill:#c31231;font-family:Roboto-Black, Roboto">L</text><text transform="translate(83.66 102.43) rotate(29.75) scale(1 1.09)" style="font-size:4.158689975738525px;fill:#c31231;font-family:Roboto-Black, Roboto">O</text><text transform="translate(85.75 103.6) rotate(36.33) scale(1 1.09)" style="font-size:4.158689975738525px;fill:#c31231;font-family:Roboto-Black, Roboto">C</text><text transform="matrix(0.74, 0.68, -0.74, 0.8, 87.51, 104.86)" style="font-size:4.158689975738525px;fill:#c31231;font-family:Roboto-Black, Roboto">A</text><text transform="matrix(0.66, 0.75, -0.82, 0.72, 89.14, 106.34)" style="font-size:4.158689975738525px;fill:#c31231;font-family:Roboto-Black, Roboto">L</text><text transform="translate(90.37 107.74) rotate(52.01) scale(1 1.09)" style="font-size:4.158689975738525px;fill:#c31231;font-family:Roboto-Black, Roboto"> </text><text transform="translate(90.76 108.18) rotate(55.61) scale(1 1.09)" style="font-size:4.158689975738525px;fill:#c31231;font-family:Roboto-Black, Roboto">L</text><text transform="matrix(0.47, 0.88, -0.96, 0.52, 91.82, 109.66)" style="font-size:4.158689975738525px;fill:#c31231;font-family:Roboto-Black, Roboto">O</text><text transform="matrix(0.34, 0.94, -1.02, 0.38, 93.01, 111.73)" style="font-size:4.158689975738525px;fill:#c31231;font-family:Roboto-Black, Roboto">W</text><text transform="translate(94.08 114.77) rotate(75.3) scale(1 1.09)" style="font-size:4.158689975738525px;fill:#c31231;font-family:Roboto-Black, Roboto"> </text><text transform="matrix(0.19, 0.98, -1.07, 0.2, 94.28, 115.33)" style="font-size:4.158689975738525px;fill:#c31231;font-family:Roboto-Black, Roboto">P</text><text transform="matrix(0.08, 1, -1.09, 0.08, 94.71, 117.49)" style="font-size:4.158689975738525px;fill:#c31231;font-family:Roboto-Black, Roboto">R</text><text transform="translate(94.87 119.67) rotate(89.93) scale(1 1.09)" style="font-size:4.158689975738525px;fill:#c31231;font-family:Roboto-Black, Roboto">I</text><text transform="translate(94.91 120.47) rotate(94.31) scale(1 1.09)" style="font-size:4.158689975738525px;fill:#c31231;font-family:Roboto-Black, Roboto">C</text><text transform="translate(94.76 122.66) rotate(100.23) scale(1 1.09)" style="font-size:4.158689975738525px;fill:#c31231;font-family:Roboto-Black, Roboto">E</text><text transform="matrix(-0.28, 0.96, -1.05, -0.3, 94.46, 124.48)" style="font-size:4.158689975738525px;fill:#c31231;font-family:Roboto-Black, Roboto">S</text><text transform="matrix(-0.85, -0.53, 0.57, -0.93, 65.3, 138.23)" style="font-size:4.536749839782715px;fill:#c31231;font-family:Roboto-Medium, Roboto">F</text><text transform="matrix(-0.79, -0.61, 0.67, -0.86, 63.69, 137.29)" style="font-size:4.536749839782715px;fill:#c31231;font-family:Roboto-Medium, Roboto">A</text><text transform="matrix(-0.69, -0.72, 0.78, -0.76, 61.79, 135.91)" style="font-size:4.536749839782715px;fill:#c31231;font-family:Roboto-Medium, Roboto">M</text><text transform="translate(59.43 133.41) rotate(-127.92) scale(1 1.09)" style="font-size:4.536749839782715px;fill:#c31231;font-family:Roboto-Medium, Roboto">I</text><text transform="translate(58.89 132.78) rotate(-123.77) scale(1 1.09)" style="font-size:4.536749839782715px;fill:#c31231;font-family:Roboto-Medium, Roboto">L</text><text transform="matrix(-0.49, -0.87, 0.95, -0.53, 58.07, 131.64)" style="font-size:4.536749839782715px;fill:#c31231;font-family:Roboto-Medium, Roboto">Y</text><text transform="matrix(-0.42, -0.91, 0.99, -0.46, 56.92, 129.56)" style="font-size:4.536749839782715px;fill:#c31231;font-family:Roboto-Medium, Roboto"> </text><text transform="matrix(-0.34, -0.94, 1.02, -0.37, 56.6, 128.99)" style="font-size:4.536749839782715px;fill:#c31231;font-family:Roboto-Medium, Roboto">O</text><text transform="matrix(-0.2, -0.98, 1.07, -0.21, 55.65, 126.59)" style="font-size:4.536749839782715px;fill:#c31231;font-family:Roboto-Medium, Roboto">W</text><text transform="translate(54.97 123.27) rotate(-92.66) scale(1 1.09)" style="font-size:4.536749839782715px;fill:#c31231;font-family:Roboto-Medium, Roboto">N</text><text transform="translate(54.84 120.58) rotate(-85.88) scale(1 1.09)" style="font-size:4.536749839782715px;fill:#c31231;font-family:Roboto-Medium, Roboto">E</text><text transform="matrix(0.19, -0.98, 1.07, 0.2, 54.93, 118.59)" style="font-size:4.536749839782715px;fill:#c31231;font-family:Roboto-Medium, Roboto">D</text><text></text></svg>