<svg xmlns="http://www.w3.org/2000/svg" viewBox="0 0 250 250"><title>Grocery</title><path d="M64.18,99.3c11.64.54,20.32,5.79,25.8,16.17.36.68.28.92-.48,1.12q-8.21,2.21-16.4,4.51a1.2,1.2,0,0,1-1.35-.42,10.3,10.3,0,0,0-11.38-2.17,10.13,10.13,0,0,0,1,18.95,10.07,10.07,0,0,0,12.61-6.69,2,2,0,0,1,1.61-1.58q8.06-2.17,16.09-4.48c.91-.26,1.14,0,1.21.85.62,7.91-1.43,15-6.62,21-7.62,8.79-17.37,12.14-28.65,9.44C45.94,153.26,38.66,145.62,36.07,134A28.54,28.54,0,0,1,62.82,99.38Z" style="fill:#fee800"/><path d="M64.94,157a31.9,31.9,0,0,1-7.42-.91C46,153.39,38.58,145.73,36,134a28.34,28.34,0,0,1,5.18-23.43A28.86,28.86,0,0,1,62.82,99.28l.92-.05.43,0h0a31.29,31.29,0,0,1,15.26,4.41,30.08,30.08,0,0,1,10.62,11.81,1,1,0,0,1,.18.83c-.08.19-.3.32-.73.44-4.92,1.33-10.13,2.76-16.4,4.51a1.31,1.31,0,0,1-1.46-.45,10.16,10.16,0,0,0-11.27-2.15,10,10,0,0,0,.94,18.75,9.6,9.6,0,0,0,7.49-.65,10.08,10.08,0,0,0,5-6,2.1,2.1,0,0,1,1.68-1.65c5.1-1.37,10.36-2.84,16.08-4.48a1.16,1.16,0,0,1,1,0c.21.15.31.42.35.93.64,8.18-1.59,15.28-6.65,21.11a29.69,29.69,0,0,1-13,9.06A26.26,26.26,0,0,1,64.94,157Zm-.77-57.64-.42,0-.93.05a28.65,28.65,0,0,0-21.52,11.21,28.13,28.13,0,0,0-5.14,23.25c2.59,11.65,10,19.25,21.4,22a31.34,31.34,0,0,0,7.29.89c8.11,0,15.36-3.49,21.26-10.3,5-5.79,7.23-12.84,6.6-21,0-.44-.11-.67-.26-.78s-.41-.1-.81,0c-5.72,1.64-11,3.11-16.09,4.48A1.9,1.9,0,0,0,74,130.8a10.29,10.29,0,0,1-5.09,6.09,9.81,9.81,0,0,1-7.65.66,10.27,10.27,0,1,1,10.54-17,1.11,1.11,0,0,0,1.25.39c6.27-1.75,11.49-3.18,16.41-4.51.35-.1.54-.19.59-.32s0-.32-.17-.65C84.53,105.37,75.88,99.95,64.18,99.41Z"/><path d="M163.64,114.21c-.24,3-.5,6.09-.71,9.14,0,.64-.18,1-.9,1.12-2.4.4-4.79.86-7.18,1.32-.5.1-.85.09-1.08-.46s-.54-1.05-.8-1.58l-9.7-19.08c2.58-.49,5.09-1,7.61-1.46.61-.12.69.38.86.71,1.28,2.51,2.53,5,3.8,7.55.15.29.17.67.65.87.3-3.12.63-6.18.87-9.25.06-.81.32-1.11,1.13-1.24,2.27-.37,4.52-.82,6.77-1.29.57-.12.8.05,1,.53,1.41,2.87,2.85,5.73,4.43,8.88.08-1.65.16-3,.22-4.35.07-1.77.15-3.55.19-5.32,0-.57.14-.85.78-1,2.09-.34,4.18-.75,6.26-1.17.62-.12.77,0,.72.67q-.84,11-1.61,22.08c0,.55-.21.78-.77.87-2.33.4-4.66.82-7,1.31-.71.15-1-.08-1.26-.67-1.16-2.42-2.36-4.81-3.55-7.21-.18-.37-.38-.72-.57-1.09Z" style="fill:#bf0d0d"/><path d="M154.44,125.94a.78.78,0,0,1-.77-.57,11.1,11.1,0,0,0-.52-1l-.28-.53L145.33,109l-2.23-4.38,2.21-.42,5.53-1.06c.59-.12.77.29.89.59l.08.18q1,2.06,2.08,4.12l1.72,3.42a2.35,2.35,0,0,1,.09.22,1,1,0,0,0,.37.53q.12-1.21.24-2.41c.22-2.2.44-4.46.62-6.69a1.23,1.23,0,0,1,1.22-1.34c2.42-.39,4.78-.87,6.76-1.29a.88.88,0,0,1,1.15.59c1,2.13,2.11,4.24,3.23,6.49l1,2,.06-1.1c.05-1,.1-1.93.14-2.85l0-.46c.07-1.59.14-3.24.17-4.86,0-.6.15-.94.87-1.06,2-.33,4-.73,6.26-1.17.35-.07.56,0,.69.07s.18.33.15.71c-.54,7.09-1.08,14.52-1.61,22.08,0,.62-.26.87-.85,1-2.22.38-4.59.8-7,1.31a1.05,1.05,0,0,1-1.37-.72c-.89-1.86-1.82-3.73-2.72-5.54l-.83-1.67c-.12-.25-.25-.49-.38-.74l-.14-.27-.06,0-.19,2.32c-.18,2.21-.36,4.5-.52,6.75,0,.69-.22,1.08-1,1.21-2.46.41-4.9.88-7.18,1.32A2.24,2.24,0,0,1,154.44,125.94Zm-11-21.19,2.1,4.13,7.53,14.82.28.52a11.21,11.21,0,0,1,.53,1.07c.19.46.45.49,1,.39,2.28-.45,4.73-.91,7.19-1.33.64-.11.77-.4.81-1,.16-2.25.34-4.54.52-6.75l.19-2.38v-.07l.36-.12,0,.08.18.34c.13.25.26.49.39.74l.83,1.67c.9,1.81,1.83,3.69,2.72,5.55.26.54.48.75,1.14.61,2.38-.5,4.76-.93,7-1.31.5-.09.64-.25.68-.78.53-7.56,1.07-15,1.61-22.08,0-.3,0-.47-.08-.54s-.24-.07-.51,0c-2.22.44-4.23.83-6.26,1.17-.58.1-.68.33-.69.86,0,1.62-.1,3.27-.17,4.86l0,.46c0,.92-.09,1.84-.14,2.85l-.08,1.5,0,.4-.18-.36-1.2-2.4c-1.12-2.24-2.18-4.36-3.23-6.49-.21-.43-.38-.59-.92-.47-2,.42-4.34.9-6.77,1.29-.75.12-1,.38-1,1.15-.17,2.23-.4,4.5-.62,6.69q-.13,1.27-.25,2.56v.14l-.13-.06a1.09,1.09,0,0,1-.61-.72c0-.07-.05-.14-.08-.2l-1.72-3.42q-1-2.06-2.08-4.12l-.09-.19c-.15-.34-.26-.55-.66-.47l-5.53,1.06Z"/><path d="M161,138.28c.3-3.11.6-6.22.88-9.34.05-.58.14-.94.84-1.06q3.5-.59,7-1.32c.65-.14.91.06,1.18.62,1.27,2.63,2.59,5.24,3.89,7.85.1.2.12.47.49.62.08-1.83.16-3.61.23-5.4.06-1.36.13-2.71.15-4.07,0-.55.18-.78.75-.87,2.09-.35,4.18-.74,6.26-1.18.75-.16.79.13.74.73-.31,4-.59,8.05-.89,12.08-.24,3.26-.5,6.52-.7,9.79,0,.68-.24.95-.93,1.06-2.37.4-4.72.85-7.07,1.33-.63.13-.78-.23-1-.65q-1.95-4-3.91-8c-.07-.14-.17-.27-.41-.66-.18,2.2-.35,4.12-.5,6-.1,1.18-.22,2.36-.25,3.54,0,.66-.26.89-.89,1-2.37.4-4.73.81-7.08,1.31a1,1,0,0,1-1.28-.6c-1.9-3.79-3.84-7.57-5.76-11.35l-4.66-9.14c2.63-.49,5.17-1,7.71-1.45.52-.1.56.31.7.59q1.93,3.82,3.85,7.64c.15.3.31.6.47.9Z" style="fill:#fdfcfc"/><path d="M159.36,151.89c-.44,0-.71-.21-1-.71-1.48-3-3-6-4.49-8.85l-1.27-2.5-3.11-6.1-1.62-3.17,2.21-.41,5.64-1.06c.51-.1.64.24.74.49l.07.16,2.62,5.2,1.23,2.45.32.61.11.22h.06l.23-2.36c.22-2.26.44-4.6.64-6.9.05-.57.15-1,.92-1.15,2.24-.38,4.59-.82,7-1.32a1,1,0,0,1,1.3.68c1,2.15,2.12,4.32,3.17,6.42l.72,1.44.06.15a.65.65,0,0,0,.24.35l.07-1.55c.05-1.24.11-2.46.16-3.69l0-.92c0-1,.09-2.1.11-3.14a.84.84,0,0,1,.84-1c2.26-.38,4.3-.76,6.25-1.18.36-.08.59-.06.73.06s.17.43.14.78c-.22,2.83-.42,5.7-.62,8.48l-.26,3.6q-.1,1.41-.21,2.83c-.17,2.28-.35,4.64-.49,7,0,.75-.3,1-1,1.16-2.16.36-4.47.8-7.07,1.33-.69.14-.88-.27-1.07-.66l0,0q-1.95-4-3.91-8a3.47,3.47,0,0,0-.18-.31l-.05-.08-.13,1.58c-.12,1.45-.24,2.8-.35,4.15,0,.29,0,.58-.07.87-.08.87-.16,1.78-.18,2.66,0,.68-.28,1-1,1.1-2.26.38-4.68.8-7.08,1.31A2.13,2.13,0,0,1,159.36,151.89Zm-11.13-21.17,1.49,2.92,3.11,6.1,1.27,2.5c1.48,2.9,3,5.89,4.49,8.85a.85.85,0,0,0,1.17.55c2.4-.51,4.82-.93,7.08-1.31.6-.1.79-.31.8-.89,0-.89.1-1.8.18-2.68,0-.29.05-.58.07-.87.11-1.35.22-2.7.35-4.15l.19-2.21.17.27.22.35a3.54,3.54,0,0,1,.19.33q2,4,3.91,8l0,0c.19.39.32.65.84.54,2.6-.53,4.91-1,7.08-1.33.62-.1.8-.31.84-1,.14-2.32.32-4.68.49-7q.11-1.41.21-2.82.13-1.8.26-3.6c.2-2.78.41-5.65.62-8.48,0-.32,0-.52-.07-.61s-.26-.08-.55,0c-1.95.41-4,.8-6.26,1.18-.51.09-.66.26-.66.77,0,1.05-.06,2.12-.11,3.15q0,.46,0,.92c-.05,1.22-.1,2.45-.16,3.69l-.08,1.86-.14-.05a.8.8,0,0,1-.49-.54l-.05-.13-.72-1.44c-1-2.1-2.14-4.27-3.17-6.42-.27-.55-.51-.68-1.07-.56-2.38.5-4.73.95-7,1.32-.61.1-.7.39-.75,1-.2,2.3-.43,4.64-.64,6.9l-.23,2.43v.08l-.36.08-.19-.36-.32-.61L159,135l-2.62-5.2-.08-.18c-.1-.25-.17-.43-.51-.36l-5.64,1.06Z"/><path d="M197.87,104.34c-.53-2.87-1-5.74-1.6-8.59-.17-.82,0-1.06.84-1.18,1.86-.28,3.7-.66,5.54-1,.53-.11.73,0,.83.56q1.94,10.57,3.94,21.13c.1.52,0,.74-.55.84-2.81.5-5.61,1-8.41,1.57-.57.11-.83-.17-1.13-.52l-6.5-7.49a1.32,1.32,0,0,0-.64-.46q.62,3.12,1.25,6.25a21.22,21.22,0,0,0,.46,2.14c.3.95.15,1.39-1,1.54-2.07.28-4.11.71-6.15,1.15-.65.14-.82,0-.94-.65q-1.93-10.47-3.93-20.92c-.13-.66,0-.9.7-1q4.73-.83,9.44-1.77a1.23,1.23,0,0,1,1.39.56c2.05,2.67,4.15,5.31,6.23,8Z" style="fill:#bf0d0d"/><path d="M184.41,120.38a.62.62,0,0,1-.36-.09,1,1,0,0,1-.33-.69c-1.26-6.8-2.58-13.84-3.93-20.92a.8.8,0,0,1,.78-1.14c3-.54,6.22-1.13,9.43-1.77a1.33,1.33,0,0,1,1.49.6c1.53,2,3.1,4,4.62,5.91l1.57,2,.06,0-.41-2.27c-.37-2-.75-4.16-1.17-6.22a1.17,1.17,0,0,1,.06-.93c.14-.2.39-.31.86-.38,1.82-.27,3.65-.65,5.43-1l.1,0a.67.67,0,0,1,1,.64c1.23,6.7,2.52,13.61,3.93,21.13a.91.91,0,0,1-.06.68.81.81,0,0,1-.57.29c-3.16.56-5.91,1.08-8.41,1.57a1.18,1.18,0,0,1-1.23-.56l-5.48-6.32-1-1.18a1.35,1.35,0,0,0-.42-.35l.32,1.63.88,4.43c0,.19.07.39.11.58a13.38,13.38,0,0,0,.35,1.55,1.08,1.08,0,0,1-1.06,1.68c-2,.27-4.1.71-6.09,1.13h-.05A1.87,1.87,0,0,1,184.41,120.38Zm6-24.45a1.78,1.78,0,0,0-.34,0c-3.21.64-6.39,1.23-9.44,1.77a.61.61,0,0,0-.61.89c1.35,7.09,2.68,14.12,3.93,20.92.06.32.13.48.24.56a.79.79,0,0,0,.58,0h.05c2-.42,4.06-.86,6.11-1.14.5-.07.8-.19.93-.4s.12-.51,0-1a13.53,13.53,0,0,1-.35-1.57c0-.19-.07-.39-.11-.58l-.88-4.43-.4-2,.17.06a1.42,1.42,0,0,1,.68.49l1,1.18,5.48,6.32c.29.33.51.59,1,.49,2.5-.5,5.26-1,8.41-1.57a.65.65,0,0,0,.44-.2.7.7,0,0,0,0-.52c-1.42-7.52-2.7-14.43-3.94-21.13,0-.25-.11-.39-.21-.46a.68.68,0,0,0-.5,0l-.1,0c-1.78.37-3.61.75-5.44,1-.41.06-.62.15-.72.29s-.11.37,0,.77c.42,2.07.8,4.18,1.17,6.23l.43,2.37,0,.1-.39.1,0-.05-1.61-2c-1.52-1.93-3.09-3.93-4.62-5.92A1.13,1.13,0,0,0,190.39,95.93Z"/><path d="M195,135.17c.59,2.89,1.15,5.79,1.79,8.67.17.77,0,1-.78,1.15-2.13.35-4.25.76-6.36,1.19-.65.13-.89,0-1-.69q-1.91-10.41-3.91-20.81c-.14-.74.06-.93.77-1.06,3.12-.55,6.22-1.15,9.33-1.77a1.23,1.23,0,0,1,1.41.53c1.86,2.43,3.76,4.83,5.66,7.24.2.26.33.61.82.75l-1.2-6.59c-.14-.79-.25-1.58-.45-2.36-.15-.57.07-.74.57-.83,1.92-.34,3.83-.69,5.75-1.07.6-.12.84,0,1,.66,1.14,6.3,2.33,12.58,3.5,18.87.13.72.24,1.44.41,2.15.13.55-.07.73-.59.83-2.81.51-5.61,1-8.41,1.58-.55.11-.76-.16-1-.47l-6.57-7.57-.45-.52Z" style="fill:#fdfcfc"/><path d="M189.28,146.33a.67.67,0,0,1-.39-.1,1,1,0,0,1-.35-.72c-1.25-6.8-2.57-13.81-3.91-20.81a1.05,1.05,0,0,1,.07-.82,1.13,1.13,0,0,1,.78-.36c3.38-.59,6.76-1.26,9.33-1.77a1.33,1.33,0,0,1,1.51.57c1.67,2.19,3.41,4.4,5.09,6.53l.56.71.13.18a1.15,1.15,0,0,0,.48.47l-.3-1.66-.87-4.76c0-.22-.08-.44-.11-.65-.09-.56-.19-1.14-.34-1.69a.79.79,0,0,1,0-.64.89.89,0,0,1,.62-.31c1.84-.33,3.81-.69,5.74-1.07a.76.76,0,0,1,1.08.74c.89,4.89,1.82,9.86,2.72,14.66l.79,4.21.11.64c.09.5.18,1,.3,1.51a.79.79,0,0,1,0,.64.87.87,0,0,1-.63.32c-3.12.56-5.71,1-8.4,1.58a1,1,0,0,1-1.09-.46l0,0L196,136.11l-.41-.48-.3-.34-.09-.1,0,0,.46,2.29c.42,2.07.85,4.21,1.31,6.31a.88.88,0,0,1-.86,1.27c-1.91.32-4,.71-6.35,1.19A2,2,0,0,1,189.28,146.33Zm5.93-24.43a1.91,1.91,0,0,0-.37,0c-2.57.51-5.95,1.18-9.33,1.77-.37.07-.56.14-.65.27a.9.9,0,0,0,0,.66c1.35,7,2.66,14,3.91,20.81.06.32.14.5.26.59a.85.85,0,0,0,.63,0c2.37-.49,4.45-.88,6.36-1.19.37-.06.57-.15.67-.29a1,1,0,0,0,0-.73c-.46-2.1-.89-4.24-1.31-6.31l-.48-2.36v-.07l.32-.2.21.24.3.35.41.48,6.16,7.09,0,0c.25.29.42.49.89.4,2.69-.55,5.29-1,8.41-1.58.27,0,.42-.12.49-.23a.62.62,0,0,0,0-.47c-.12-.5-.21-1-.3-1.52l-.11-.64-.79-4.21c-.9-4.8-1.83-9.77-2.72-14.66a.82.82,0,0,0-.25-.55.79.79,0,0,0-.59,0c-1.93.38-3.9.74-5.75,1.07-.27,0-.42.11-.48.22a.62.62,0,0,0,0,.48c.15.56.25,1.15.34,1.71,0,.22.07.43.11.65l.87,4.76.36,2-.16,0a1.26,1.26,0,0,1-.76-.61l-.12-.17-.56-.71c-1.68-2.13-3.42-4.34-5.1-6.53A1.1,1.1,0,0,0,195.21,121.9Z"/><path d="M147.13,118.76a12.7,12.7,0,1,1-12.34-12.82A12.72,12.72,0,0,1,147.13,118.76ZM129,118.44a5.44,5.44,0,0,0,5.42,5.37,5.39,5.39,0,1,0-.06-10.79A5.43,5.43,0,0,0,129,118.44Z" style="fill:#bf0d0d"/><path d="M134.42,131.48h-.16a12.83,12.83,0,0,1,.4-25.65h.14a12.83,12.83,0,0,1,8.58,22A12.72,12.72,0,0,1,134.42,131.48Zm.24-25.45A12.62,12.62,0,1,0,147,118.76h0A12.65,12.65,0,0,0,134.79,106Zm-.23,17.88a5.5,5.5,0,0,1-.05-11,5.6,5.6,0,0,1,4,1.64,5.43,5.43,0,0,1,1.64,3.88,5.6,5.6,0,0,1-5.54,5.47Zm-5.31-5.47a5.31,5.31,0,0,0,5.31,5.26h0a5.39,5.39,0,0,0,5.33-5.26,5.22,5.22,0,0,0-1.58-3.73,5.38,5.38,0,0,0-3.76-1.58h0A5.31,5.31,0,0,0,129.12,118.44Z"/><path d="M151.94,144.68a12.7,12.7,0,1,1-12.69-12.78A12.62,12.62,0,0,1,151.94,144.68ZM139.23,139a5.37,5.37,0,0,0,0,10.75,5.38,5.38,0,1,0,0-10.75Z" style="fill:#fdfcfc"/><path d="M139.16,157.42h0a12.57,12.57,0,0,1-8.94-3.73,12.83,12.83,0,0,1,9.07-21.89h.12a12.49,12.49,0,0,1,8.85,3.66,12.88,12.88,0,0,1,3.82,9.23,12.62,12.62,0,0,1-3.76,9A12.9,12.9,0,0,1,139.16,157.42Zm.22-25.41h-.12a12.62,12.62,0,0,0-8.92,21.53,12.36,12.36,0,0,0,8.8,3.67,12.73,12.73,0,0,0,9-3.63,12.41,12.41,0,0,0,3.7-8.9h0a12.67,12.67,0,0,0-3.76-9.08A12.28,12.28,0,0,0,139.38,132Zm-.13,17.86h0a5.48,5.48,0,0,1,0-11v0h0a5.51,5.51,0,0,1,3.92,1.65,5.43,5.43,0,0,1,1.62,3.89A5.52,5.52,0,0,1,139.25,149.86Zm0-10.75a5.27,5.27,0,0,0,0,10.54h0a5.31,5.31,0,0,0,5.34-5.22A5.22,5.22,0,0,0,143,140.7a5.33,5.33,0,0,0-3.8-1.58Z"/><path d="M121.29,116.87c.18.71-.22.7-.57.77-2.56.48-5.12,1-7.69,1.42-.76.13-.94.33-.78,1.13.82,4.09,1.54,8.2,2.34,12.3.14.71-.1.89-.74,1-2,.33-4,.64-5.95,1.11-1,.23-1.23,0-1.39-.92-.71-4-1.5-8.07-2.22-12.11-.13-.74-.36-.85-1.07-.7-2.52.53-5.06.94-7.58,1.45-.63.13-.86,0-1-.63-.38-2.33-.78-4.67-1.25-7-.17-.85.41-.74.83-.82q6.76-1.29,13.53-2.54c3.73-.7,7.45-1.38,11.17-2.11.69-.13,1,0,1.08.72C120.44,112.32,120.89,114.68,121.29,116.87Z" style="fill:#bf0d0d"/><path d="M107.34,134.78a.83.83,0,0,1-.47-.12c-.23-.15-.36-.43-.45-1-.36-2.05-.75-4.13-1.12-6.14s-.74-4-1.09-6c-.06-.34-.14-.52-.26-.61s-.32-.08-.69,0c-1.34.28-2.71.53-4,.78-1.16.21-2.36.44-3.54.67a1,1,0,0,1-.78-.05.92.92,0,0,1-.31-.66c-.36-2.22-.76-4.6-1.25-7a.83.83,0,0,1,.07-.67.84.84,0,0,1,.63-.25l.2,0,10.37-2,3.16-.59,2.79-.52c2.75-.51,5.59-1,8.38-1.59a1.08,1.08,0,0,1,.85.07,1,1,0,0,1,.35.74c.28,1.72.6,3.43.9,5.08l.33,1.83a.79.79,0,0,1,0,.63.7.7,0,0,1-.52.24l-.1,0-2.28.43c-1.77.34-3.6.69-5.41,1-.38.07-.58.15-.67.28s-.1.35,0,.73c.46,2.28.89,4.61,1.31,6.87.33,1.78.68,3.62,1,5.43a1,1,0,0,1-.07.78,1.09,1.09,0,0,1-.75.34l-.52.09c-1.79.29-3.63.6-5.42,1A2.63,2.63,0,0,1,107.34,134.78Zm-3.66-14.07a.66.66,0,0,1,.38.1c.17.12.27.33.35.74.35,2,.73,4,1.09,6s.76,4.09,1.12,6.15c.08.47.19.71.36.83a1.2,1.2,0,0,0,.9,0c1.79-.43,3.64-.73,5.43-1l.52-.09c.35-.06.53-.13.61-.26a.83.83,0,0,0,0-.62c-.35-1.81-.7-3.65-1-5.43-.42-2.25-.85-4.58-1.31-6.86a1.14,1.14,0,0,1,.06-.89A1.15,1.15,0,0,1,113,119c1.81-.31,3.64-.65,5.41-1l2.28-.43.1,0c.16,0,.31-.05.38-.15a.63.63,0,0,0,0-.47h0l-.34-1.83c-.3-1.65-.62-3.37-.9-5.09a.86.86,0,0,0-.27-.6.92.92,0,0,0-.69,0c-2.79.55-5.64,1.08-8.38,1.59l-2.79.52-3.16.59-10.37,2-.22,0c-.2,0-.4,0-.49.17a.66.66,0,0,0,0,.5c.48,2.38.89,4.76,1.25,7,0,.29.12.45.22.52s.3.08.62,0c1.18-.24,2.38-.46,3.55-.67,1.32-.24,2.69-.5,4-.78A2.35,2.35,0,0,1,103.68,120.71Z"/><path d="M115.11,157.8c-1.11,0-2.23,0-3.34,0-.56,0-.78-.16-.88-.73q-.8-4.57-1.69-9.12c-.29-1.5.05-1.31-1.55-1q-3.54.62-7.07,1.35c-.69.14-1,0-1.08-.72-.34-2.2-.72-4.39-1.17-6.57-.16-.76,0-1,.75-1.14,5.34-1,10.66-2,16-3q4.36-.82,8.71-1.66c.58-.11,1-.14,1.08.62q.58,3.5,1.28,7c.16.78-.34.78-.79.87-2.49.47-5,.95-7.49,1.38-.72.12-.95.3-.77,1.13.75,3.64,1.36,7.31,2.08,11,.13.66-.11.69-.61.68-1.15,0-2.3,0-3.44,0Z" style="fill:#fdfcfc"/><path d="M118.65,157.92h-.1c-.82,0-1.65,0-2.45,0h-2c-.77,0-1.57,0-2.36,0-.61,0-.88-.2-1-.82-.52-3-1.09-6.05-1.69-9.12,0-.25-.08-.45-.1-.61s-.07-.47-.14-.51-.27,0-.6.06l-.58.11c-2.33.41-4.71.86-7.07,1.34a1.08,1.08,0,0,1-.85-.06,1,1,0,0,1-.35-.75c-.39-2.54-.77-4.62-1.17-6.56a1.17,1.17,0,0,1,0-.89c.13-.19.35-.29.79-.37,4.39-.79,8.85-1.63,13.16-2.44l2.83-.53c2.79-.52,5.76-1.08,8.71-1.66a1.15,1.15,0,0,1,.88,0,.93.93,0,0,1,.33.66c.39,2.39.83,4.74,1.28,7a.84.84,0,0,1-.07.66,1,1,0,0,1-.69.31l-.27.05c-2.4.46-4.88.93-7.33,1.35-.33.06-.56.12-.67.28a1,1,0,0,0,0,.73c.42,2.06.81,4.17,1.18,6.2.29,1.56.58,3.18.89,4.76.06.32,0,.52-.06.65A.68.68,0,0,1,118.65,157.92Zm-1.56-.22h1.46c.23,0,.42,0,.49-.08s.06-.23,0-.47c-.31-1.59-.61-3.2-.89-4.76-.37-2-.76-4.14-1.18-6.2a.86.86,0,0,1,.86-1.25c2.45-.42,4.93-.89,7.33-1.35l.15,0,.12,0c.23,0,.45-.08.55-.22a.66.66,0,0,0,0-.5c-.46-2.24-.89-4.58-1.28-7a.76.76,0,0,0-.24-.52,1,1,0,0,0-.72,0c-2.95.58-5.92,1.14-8.71,1.66l-2.83.53c-4.31.81-8.77,1.65-13.16,2.44-.37.07-.56.15-.65.28s-.09.35,0,.73c.41,1.95.78,4,1.18,6.57.05.33.13.52.26.61s.34.1.69,0c2.36-.49,4.74-.94,7.07-1.35l.58-.11c.43-.09.62-.13.76,0s.17.28.22.65c0,.16.06.36.1.6.6,3.07,1.17,6.14,1.69,9.13.09.52.26.66.78.64.79,0,1.59,0,2.37,0h3Z"/><path d="M207.65,156.88c-.52-2.8-1-5.6-1.58-8.39-.19-.93-.11-1.35,1-1.49,1.79-.23,3.56-.62,5.33-1,.6-.13.8.07.9.62.61,3.39,1.23,6.77,1.88,10.15.13.67-.12.74-.68.74q-11.38,0-22.75.06c-.66,0-.9-.19-1-.84-.29-1.82-.64-3.63-1-5.43-.16-.73-.11-1.06.78-1.21,3.12-.52,6.22-1.14,9.33-1.75a1.16,1.16,0,0,1,1.32.49c1.88,2.46,3.8,4.88,5.71,7.32.21.27.43.53.65.79Z" style="fill:#bf0d0d"/><path d="M191.7,157.69c-.7,0-1-.24-1.09-.93-.28-1.72-.61-3.5-1-5.42a1.21,1.21,0,0,1,0-1,1.16,1.16,0,0,1,.82-.39c2.7-.45,5.43-1,8.07-1.51l1.25-.25a1.26,1.26,0,0,1,1.43.53c1.44,1.88,2.93,3.77,4.36,5.6l1.35,1.72.44.54.16.19h0l-.42-2.28c-.36-2-.73-4-1.15-6a1.49,1.49,0,0,1,.06-1.18,1.35,1.35,0,0,1,1-.43c1.59-.2,3.19-.54,4.75-.87l.57-.12a.9.9,0,0,1,.7.06.91.91,0,0,1,.32.65c.58,3.23,1.21,6.69,1.88,10.15a.79.79,0,0,1-.07.67.91.91,0,0,1-.71.19c-8.74,0-16,0-22.75.06Zm8.47-9.28a1.85,1.85,0,0,0-.35,0l-1.25.25c-2.64.52-5.38,1.06-8.08,1.51a1,1,0,0,0-.68.3c-.11.16-.09.42,0,.79.41,1.93.75,3.71,1,5.43.1.59.3.76.9.75,6.78,0,14-.06,22.75-.06.28,0,.47,0,.55-.11s.07-.24,0-.5c-.67-3.46-1.3-6.93-1.88-10.15a.74.74,0,0,0-.23-.51.72.72,0,0,0-.54,0l-.57.12c-1.55.33-3.16.67-4.76.87a1.2,1.2,0,0,0-.85.35,1.37,1.37,0,0,0,0,1c.42,2,.79,4,1.15,6q.22,1.18.43,2.36l0,.09-.32.12-.25-.31-.44-.54-1.35-1.72c-1.44-1.83-2.93-3.72-4.37-5.6A1,1,0,0,0,200.17,148.41Z"/><path d="M184.1,157.62c-1,0-2,0-3,0-.55,0-.72-.14-.68-.71.09-1.42.13-2.84.15-4.26,0-.51.2-.72.71-.81,2.15-.37,4.3-.78,6.44-1.19.52-.1.66,0,.62.58q-.24,2.75-.38,5.5c0,.65-.25.91-.93.86-1-.06-1.94,0-2.91,0Z" style="fill:#bf0d0d"/><path d="M181,157.73a.73.73,0,0,1-.56-.17.82.82,0,0,1-.15-.66c.1-1.51.13-3,.15-4.26a.81.81,0,0,1,.79-.91c2.23-.39,4.42-.8,6.44-1.19.31-.06.49,0,.61.07s.16.29.13.62c-.16,1.86-.29,3.71-.38,5.5a1.06,1.06,0,0,1-.27.78,1,1,0,0,1-.77.18c-.67,0-1.36,0-2,0h-.77v0h-1c-.7,0-1.42,0-2.12,0Zm7-7-.25,0c-2,.39-4.21.81-6.45,1.19-.47.08-.61.25-.62.71,0,1.26-.05,2.75-.15,4.27a.66.66,0,0,0,.09.5c.08.08.23.11.48.11.71,0,1.43,0,2.13,0H184v0h1c.67,0,1.37,0,2,0a.83.83,0,0,0,.62-.13.88.88,0,0,0,.2-.64c.09-1.79.22-3.64.38-5.51,0-.25,0-.39-.06-.45A.26.26,0,0,0,188,150.72Z"/><path d="M172.12,157.67c-1.53,0-3.05,0-4.58,0-.64,0-.91-.09-.85-.85.19-2.26.15-2.26,2.36-2.67,1.88-.35,3.75-.69,5.62-1.09.54-.12.81,0,1,.49.52,1.13,1.08,2.25,1.68,3.35.36.66.13.74-.49.73-1.6,0-3.19,0-4.79,0Z" style="fill:#bf0d0d"/><path d="M167.43,157.78a.9.9,0,0,1-.69-.2,1,1,0,0,1-.16-.77v-.11c.18-2.19.23-2.24,2.44-2.66l.77-.14c1.59-.3,3.24-.6,4.85-.95a.87.87,0,0,1,1.16.55c.54,1.17,1.1,2.29,1.68,3.34.19.34.23.55.14.69s-.34.2-.72.19c-1.14,0-2.3,0-3.42,0h-1.26v0H170.8c-1.07,0-2.17,0-3.26,0Zm7.59-4.66a1.61,1.61,0,0,0-.33,0c-1.61.34-3.26.65-4.85.95l-.77.14c-2.1.39-2.1.39-2.27,2.47v.11a.81.81,0,0,0,.1.61c.11.12.34.14.64.13,1.09,0,2.19,0,3.26,0H172v0h1.47c1.12,0,2.28,0,3.43,0,.14,0,.48,0,.54-.09s0-.17-.14-.49c-.58-1.05-1.15-2.18-1.68-3.35C175.47,153.26,175.31,153.12,175,153.12Z"/><path d="M162.09,157.71h-8.34c-.28,0-.62,0-.61-.38s.37-.24.58-.29c2.08-.4,4.17-.74,6.23-1.22.94-.22,1.43,0,1.7.91A9.87,9.87,0,0,0,162.09,157.71Z" style="fill:#bf0d0d"/><path d="M158.39,157.81h-4.63a.83.83,0,0,1-.6-.16.44.44,0,0,1-.11-.34c0-.35.32-.36.51-.37h.15l2.05-.38c1.37-.25,2.79-.51,4.18-.83,1-.23,1.54.05,1.82,1a4.17,4.17,0,0,0,.25.58l.18.39.07.15h-3.87Zm2.14-2a2.47,2.47,0,0,0-.55.07c-1.39.32-2.81.58-4.19.83l-2.05.38-.19,0c-.24,0-.3,0-.31.17a.24.24,0,0,0,.05.18c.09.09.3.09.45.09h8.17l-.11-.24a4.34,4.34,0,0,1-.26-.61C161.37,156.13,161.07,155.85,160.53,155.85Z"/></svg>