<svg xmlns="http://www.w3.org/2000/svg" viewBox="0 0 250 250"><title>Grocery</title><path d="M125.46,111.29c0-2.52.05-5,0-7.56a2.65,2.65,0,0,0-1.24-2.05c-.66-.44-.58-.86-.3-1.48s.73-.41,1.21-.27c3.73,1.1,7.58,1,11.41,1.09a13.11,13.11,0,0,0,5.12-.67c1.05-.4,1.32.57,1.3,1.2a31.4,31.4,0,0,0,.52,6.81,1.42,1.42,0,0,1-.5,1.36c-.49.39-.82-.22-1.11-.48-2.79-2.44-6.06-3-9.6-2.58-.45.05-.83.11-.83.67,0,.91,0,1.83,0,2.74a.69.69,0,0,0,.22.46c.39.33,3.64.1,4-.33a.83.83,0,0,1,.94-.33c.4.14.31.5.31.81q0,2.88,0,5.75c0,.69-.12,1.13-.93.58-1.33-.91-2.83-.29-4.25-.4-.3,0-.46.27-.46.57,0,1,0,2,0,3,0,.5.34.58.75.56a12.59,12.59,0,0,1,4.31.69,2.6,2.6,0,0,0,3.14-1c.9-1.37,2.44-2.6,1.26-4.64-.4-.7.66-1.65,1.48-1.42q2,.59,4.06,1.24c.64.21.91.08.89-.66-.1-3.47-.17-6.94-.26-10.4a1.67,1.67,0,0,0-.43-1.27c-.86-.75,0-1.33.17-1.93s.84-.32,1.29-.24a33,33,0,0,0,5.72.53c.74,0,1.18.22,1,1a3.6,3.6,0,0,0,.63,2.6c1.47,2.29,3,4.54,4.73,7.1a33.9,33.9,0,0,0,.54-6.11,2.12,2.12,0,0,0-.66-1.46,1.1,1.1,0,0,1-.34-1.12c.17-.46.69-.35,1.09-.36a15.34,15.34,0,0,1,3.76.69,3.3,3.3,0,0,0,2.27-.15c.3-.14.6-.8,1-.17.28.43.77.89.34,1.48-1.41,1.9-1.32,4.11-1.31,6.31q0,5.82,0,11.64c0,.27,0,.55,0,.82,0,.48-.06,1.13.59,1.22s.66-.52.84-.92c.41-1,.83-1.93,1.22-2.9,1.34-3.3,2.71-6.58,4-9.9.46-1.18,1-2.46-.45-3.45a.44.44,0,0,1-.13-.22c-.64-2.11,2.19-5,4.38-4.52a11.17,11.17,0,0,1,3.93,2.16c1.15.84,2.35,1.48,3.76.55.19-.13.45-.25.56.05.18.48.76,1,.32,1.5-1.48,1.76-1,3.62-.46,5.56,1.05,3.49,2,7,3,10.52a2.55,2.55,0,0,0,.67,1.42c.64-1.37,1.23-2.66,1.85-3.95.22-.46.28-1.09,1.1-.94a1.25,1.25,0,0,1,1.14,1.12c1,4,4.14,5.59,7.6,6.72,1.44.47,2.27-.6,1.82-2.07a4.54,4.54,0,0,0-2.08-2.45,21.16,21.16,0,0,1-5.44-4.74c-3.48-4.52-1.5-9.37,1.1-11.91,2-2,4.41-1.95,6.9-1.13,1,.33,1.94.76,3,0,.46-.32,1.27.58,1,1.26a64.55,64.55,0,0,0-2,7.12.86.86,0,0,1-.66.63c-.42.13-.53-.19-.69-.48a4.59,4.59,0,0,0-1.8-1.83c-.53-.29-1.12-.51-1.64,0a1.29,1.29,0,0,0-.11,1.65,7.55,7.55,0,0,0,2.08,2.33q2.18,1.77,4.34,3.56c3.49,2.9,3.79,9.32,1.83,12.5a7.41,7.41,0,0,1-6.75,3.7,14.39,14.39,0,0,1-10.12-4.49c-.3-.29-.54-1-1.06-.59s-.15.86.07,1.25a18.83,18.83,0,0,0,1.09,1.73,1.14,1.14,0,0,1,0,1.29c-.27.47-.65.07-1,0a23,23,0,0,0-6.32-1c-1.14,0-1.44-.54-.83-1.5.43-.68.12-1.29.05-2-.27-2.63-1.77-3.78-4.3-3.86a14.63,14.63,0,0,1-1.62-.25c-2-.29-3.21,1-2.85,3a5.88,5.88,0,0,0,.18.66c.66,2.25.45,2.49-1.82,2A83.51,83.51,0,0,0,162,130.59c-1.27-.1-1.62-.66-1.4-1.88a5.64,5.64,0,0,0-1-4.29,68.6,68.6,0,0,0-4.87-6c.23,3.41-.93,6.88.73,10.15a1.59,1.59,0,0,1,.08,1.56c-.36.63-.91.08-1.34,0-2.25-.56-4.44-1.48-6.84-.84-.61.16-.76-.36-1-.7a.77.77,0,0,1,0-1.08c1.16-1.61,1.17-3.45,1-5.37-.62.12-.68.64-.9,1-3.08,4.82-6.29,6.16-11.86,4.93-1.2-.27-2.4-.56-3.58-.91a8.63,8.63,0,0,0-7,.91c-.3.17-.7.7-1,0-.21-.46-.64-1.12,0-1.45,2.45-1.19,2.78-3.29,2.59-5.66,0-.45,0-.9,0-1.45-.2.11-.36.15-.39.23-1.56,4.38-5,6.59-9.17,7.89a18.91,18.91,0,0,1-8.66.69,11.35,11.35,0,0,0-7.32,1,6.94,6.94,0,0,0-3.73,4.49c-.11.42-.06,1.08-.77.72-.57-.29-1.71-.06-1.5-1.18.86-4.82-1.45-8.68-3.69-12.57-.24-.42-.54-.78-1.08-.64s-.48.69-.48,1.13c0,1.32,0,2.65,0,4s.22,2.83,1.61,3.68c.56.34.4.9.3,1.36s-.66.35-1,.32c-2.13-.22-4.26-.46-6.4-.7a21.5,21.5,0,0,0-7.75.5,1.33,1.33,0,0,1-1.5-.25c-.49-.51-.13-.91,0-1.36a4.7,4.7,0,0,0,.21-.79c.42-2.25.06-2.69-2.22-2.69H69.68c-2.86,0-4.24,2.08-3.23,4.8.15.41.87.76.32,1.3a2.1,2.1,0,0,1-2,.62,5.49,5.49,0,0,0-5,1.46c-1.49,1.44-2.13,4.15-.43,5.9a2.24,2.24,0,0,1-.09,3.19c-3.65,4.16-8.21,5.91-13.63,4.69-5.64-1.28-8.89-5.21-10-10.64-2.57-12.35.18-23.19,9.94-31.73A21.16,21.16,0,0,1,54,100.17c.57-.15,1.13-.36,1.69-.57,1.9-.69,2.78-.38,3.84,1.3.41.65,0,1.15-.2,1.67a18.37,18.37,0,0,0-1.27,10.71,8.15,8.15,0,0,0,.25.92A3.44,3.44,0,0,1,57,117.66c-.46.24-.53-.15-.72-.37-2.57-3.15-6.19-3.13-8.67.1a12.91,12.91,0,0,0-2.67,9.25A5.94,5.94,0,0,0,54,131.26a9.69,9.69,0,0,0,4.12-4.79c2.41-5.68,4.14-11.6,6-17.47.27-.88.21-1.65-.79-2-.59-.21-.52-.67-.51-1.12a4.93,4.93,0,0,1,5.78-4.41,11.16,11.16,0,0,1,3.13,1.35,3,3,0,0,0,3.77-.33c.46-.39,1-.88,1.43-.06.38.65,1.44,1.21.27,2.14a2.81,2.81,0,0,0-.9,3.23c1.45,4.52,2.85,9.05,4.61,13.46a8.44,8.44,0,0,0,.53,1.11c.13.22.26.54.59.48s.31-.41.3-.67c-.06-5.29.16-10.59-.12-15.88a5.29,5.29,0,0,0-1.06-2.93c-.41-.54-.19-.94.18-1.32s.68-1.2,1.5-.91c2.63.94,5.33.49,8,.36,2.05-.1,4.09-.32,6,.67a7.58,7.58,0,0,1,4.3,5.5,11.52,11.52,0,0,1-.49,6.2,4,4,0,0,1-2.62,2.6c-1.35.45-1.61,1-1,2.25a23.92,23.92,0,0,0,2.94,5.09c1.21,1.54,2.52,1.31,3.21-.54a2.2,2.2,0,0,0,.17-.8c-.12-5.34.31-10.68-.26-16a16.38,16.38,0,0,0-1.23-4.61,1.77,1.77,0,0,1,0-1.41c.31-.92.71-1.23,1.68-.72a7.68,7.68,0,0,0,3.87.72c1.32,0,2.64-.12,4-.19,6.56-.34,11.53,3.14,13.45,9.45l.51,1.64Zm-15.4,2.33c0,1.87,0,3.74,0,5.61,0,.54-.06,1.27.68,1.28,2.11,0,4.29.33,6.08-1.33,2.19-2,2.7-5.38,1.25-8.73a5.89,5.89,0,0,0-6.76-3.84c-.86.12-1.28.47-1.26,1.4C110.09,109.88,110.05,111.74,110.05,113.61Zm-39.43,6c.64,0,1.28,0,1.92,0,1,0,1.45-.39,1.1-1.43-.88-2.59-1.75-5.18-2.62-7.77-.1-.29-.13-.7-.54-.67s-.46.39-.55.7c-.74,2.44-1.51,4.88-2.19,7.34-.4,1.44-.06,1.82,1.4,1.83Zm18.16-9.84q0,1,0,2c0,.51.18,1,.73,1a13.86,13.86,0,0,0,3.93-.12,2.51,2.51,0,0,0,2-2.58c.06-2.47-.76-3.22-3.64-3.29C88.64,106.77,88.76,106.09,88.78,109.81ZM182.16,121c0-.18-.12-.44-.2-.7q-1.11-3.66-2.23-7.32c-.1-.33-.07-.82-.58-.77s-.38.48-.46.76c-.62,2.24-1.19,4.49-1.84,6.72-.24.82,0,1.21.79,1.37,1.21.24,2.41.49,3.61.76C181.89,121.93,182.24,121.76,182.16,121Z" style="fill:#af0c26"/><path d="M142.09,138.14c-.1-.54.37-.66.69-.86a25.2,25.2,0,0,1,15.34-3.46c6.51.46,12.51,2.77,18.52,5.08,5.14,2,10.38,3.49,16,3A80.15,80.15,0,0,0,204.35,140c1.27-.3,2.52-.49,3.63.46s1.15,1.66.38,2.87a7.69,7.69,0,0,1-2.86,2.49,19.91,19.91,0,0,1-17.15,1.36c-5.25-1.87-10.18-4.45-15.22-6.79-4.43-2.06-8.85-4.25-13.75-4.85a30.31,30.31,0,0,0-16.65,2.6C142.53,138.2,142.33,138.33,142.09,138.14Z" style="fill:#caa261"/><path d="M110.86,139.78c-.18.72-.74.85-1.25,1a26.66,26.66,0,0,1-18,.57,40.17,40.17,0,0,0-11.11-2.13A12.31,12.31,0,0,0,73.2,141a19.29,19.29,0,0,1-6,2.66c-1.75.42-3.11.14-3.72-.84a3.25,3.25,0,0,1,.82-4.21,16.42,16.42,0,0,1,12.78-4.47c5,.39,9.59,2.5,14.25,4.2a46.44,46.44,0,0,0,9.68,2.85,17.58,17.58,0,0,0,8.45-1.11C109.9,139.91,110.29,139.57,110.86,139.78Z" style="fill:#caa261"/><path d="M110,143.68a4.54,4.54,0,0,1-2.48,1.74c-4.47,2-9.09,2-13.79,1-3-.63-6-.85-8.93.69A8.9,8.9,0,0,0,82.49,149a9.4,9.4,0,0,1-3.22,2.49c-1.66.68-2.58.06-2.62-1.7a7.22,7.22,0,0,1,7.05-7.1,32,32,0,0,1,10.46,1.76A21.26,21.26,0,0,0,108.6,144a3.13,3.13,0,0,1,.53-.14Z" style="fill:#caa261"/><path d="M143.35,141.2a3.66,3.66,0,0,1,2.63-2c4.82-1.58,9.45-.64,14,1.13a28.32,28.32,0,0,1,4.32,2,15.79,15.79,0,0,0,7.7,2l.41,0c1.9.15,2.68.71,2.64,1.9a3.09,3.09,0,0,1-2.89,2.93,9.63,9.63,0,0,1-4.6-1.13c-3.16-1.45-5.92-3.58-8.86-5.39a18,18,0,0,0-7.84-3A11.34,11.34,0,0,0,143.35,141.2Z" style="fill:#caa261"/><path d="M143.8,143.22c2.73-1.18,7.91-.23,10.21,2.32,1.26,1.4,2.56,2.75,2.65,4.78,0,.69.1,1.45-.64,1.81a2.29,2.29,0,0,1-2.21-.11,4,4,0,0,1-1.89-2.58C150.87,145.31,148.14,143.44,143.8,143.22Z" style="fill:#caa261"/><path d="M124.22,140.61a11.9,11.9,0,0,1-5.66,1.85,3.83,3.83,0,0,1-3.78-2.6,2,2,0,0,1,1.35-2.82,4,4,0,0,1,3.86.67C121.35,138.65,122.48,139.92,124.22,140.61Z" style="fill:#af0c26"/><path d="M112.14,136.83a9.06,9.06,0,0,1-6.85,1.37,6.46,6.46,0,0,1-4.33-2.07c-.41-.51-.83-1-.57-1.72a1.82,1.82,0,0,1,1.66-1,5.22,5.22,0,0,1,3.89.93A10.66,10.66,0,0,0,112.14,136.83Z" style="fill:#caa261"/><path d="M131.09,141a12,12,0,0,1,4.38-1.75,4.08,4.08,0,0,1,4.5,1.85,2.21,2.21,0,0,1-1.71,3.53,4.16,4.16,0,0,1-3.21-.88A19.33,19.33,0,0,0,131.09,141Z" style="fill:#af0c26"/><path d="M130.12,138.52c1.1-1.45,1.41-3,2.28-4.26a5.32,5.32,0,0,1,2.1-1.9,2.18,2.18,0,0,1,2.84.5c.82.94.3,1.8-.3,2.57C135.36,137.57,133,138.17,130.12,138.52Z" style="fill:#af0c26"/><path d="M125.16,143.06c-.64,1.35-1.17,2.55-1.78,3.72a5.13,5.13,0,0,1-2.39,2.37,2.19,2.19,0,0,1-2.75-.48c-.78-.87-.3-1.72.25-2.48a6.7,6.7,0,0,1,3.69-2.46C123.12,143.46,124.09,143.3,125.16,143.06Z" style="fill:#af0c26"/><path d="M126.44,134.1c0-2,.28-3.4,1.47-4.46a2,2,0,0,1,2.26-.45c.86.38.91,1.16.86,2a4.53,4.53,0,0,1-1,2.34,9.33,9.33,0,0,0-1.79,3.48c0,.2,0,.53-.32.49a.86.86,0,0,1-.52-.38A5.3,5.3,0,0,1,126.44,134.1Z" style="fill:#af0c26"/><path d="M125.35,137.68c0,.52,0,1-.71.55-1.4-.84-2.85-1.61-4.21-2.51s-1.56-1.9-1-2.88a2.22,2.22,0,0,1,3.14-.49C124.64,133.53,125.16,135.52,125.35,137.68Z" style="fill:#af0c26"/><path d="M130.21,143.69c1.75,1,3.47,1.9,5.1,3a1.84,1.84,0,0,1,.67,2.63,2.1,2.1,0,0,1-2.78.75C131.11,149.28,129.8,146.56,130.21,143.69Z" style="fill:#af0c26"/><path d="M130.4,140.65a2.2,2.2,0,0,1-2.14,2.47c-1.66,0-3.3-1.34-3.3-2.67a2.92,2.92,0,0,1,2.47-2.35A2.89,2.89,0,0,1,130.4,140.65Z" style="fill:#af0c26"/><path d="M127.15,144.17a5.7,5.7,0,0,1,.45,6.74,1.87,1.87,0,0,1-2.49.77c-1-.54-.86-1.53-.48-2.41a11.82,11.82,0,0,1,1.05-1.74A8.49,8.49,0,0,0,127.15,144.17Z" style="fill:#af0c26"/><path d="M212.54,108.81a2.12,2.12,0,1,1,2.12-2.12A2.13,2.13,0,0,1,212.54,108.81Zm0-3.7a1.58,1.58,0,1,0,1.58,1.58A1.58,1.58,0,0,0,212.54,105.11Z" style="fill:#af0c26"/><path d="M211.65,107.66v-2h.83a1.42,1.42,0,0,1,.46.05.45.45,0,0,1,.23.19.57.57,0,0,1,.09.31.52.52,0,0,1-.13.36.62.62,0,0,1-.39.18.93.93,0,0,1,.21.16,2.21,2.21,0,0,1,.23.32l.24.38h-.47l-.29-.43a2.75,2.75,0,0,0-.21-.29.3.3,0,0,0-.12-.08.66.66,0,0,0-.2,0H212v.82Zm.4-1.13h.29a1.51,1.51,0,0,0,.36,0,.21.21,0,0,0,.11-.08.26.26,0,0,0,0-.15.24.24,0,0,0-.05-.16.24.24,0,0,0-.15-.08H212Z" style="fill:#af0c26"/></svg>