<svg xmlns="http://www.w3.org/2000/svg" viewBox="0 0 250 250"><title>Casual dining</title><path d="M83.26,183.61c0-1.09,0-2.18,0-3.27,0-.25.06-.35.33-.33.47,0,1,0,1.43,0,.31,0,.38.12.37.39s-.1.38.08.46.28-.14.41-.24c1.35-1,3.59-1.07,4.61.21.2.25.33.07.48-.05a3.65,3.65,0,0,1,4-.61,1.94,1.94,0,0,1,1.27,1.76c.14,1.69,0,3.38.07,5.07,0,.22-.07.29-.29.29-.55,0-1.09,0-1.64,0-.31,0-.41-.08-.4-.4,0-1.26,0-2.52,0-3.78,0-.14,0-.28,0-.42,0-.84-.32-1.27-.9-1.36a1.67,1.67,0,0,0-1.9,1,3.65,3.65,0,0,0-.2,1.36c0,1.06,0,2.13,0,3.19,0,.32-.06.49-.43.46a14.35,14.35,0,0,0-1.51,0c-.27,0-.36-.07-.36-.35,0-1.27,0-2.55,0-3.82a7,7,0,0,0-.08-1,.92.92,0,0,0-.95-.83c-1.35-.05-2,.54-2,1.91,0,1.22,0,2.43,0,3.65,0,.32-.08.41-.4.39a14.22,14.22,0,0,0-1.55,0c-.33,0-.39-.11-.39-.41C83.27,185.79,83.26,184.7,83.26,183.61Z" style="fill:#b6053b"/><path d="M184.77,187.28c-.68,0-1.31,0-1.93,0-.34,0-.38-.25-.44-.46s-.19-.31-.46-.13a4.08,4.08,0,0,1-3.86.51,2,2,0,0,1-1.49-2,2.19,2.19,0,0,1,1.72-1.88c1.06-.31,2.17-.37,3.23-.65.19-.05.46,0,.5-.27a.86.86,0,0,0-.31-.9A2.35,2.35,0,0,0,179,182a.29.29,0,0,1-.3.16l-1.57-.2c-.22,0-.26-.14-.16-.35A2.77,2.77,0,0,1,179,180a8.67,8.67,0,0,1,3.49,0c1.34.25,2,1.25,1.84,2.83a17.19,17.19,0,0,0,0,3.14A5.39,5.39,0,0,0,184.77,187.28ZM182,184.52c0-.2,0-.33,0-.45s-.05-.26-.24-.22a20.43,20.43,0,0,0-2.32.52.8.8,0,0,0-.57.66.84.84,0,0,0,.42.85,1.85,1.85,0,0,0,1.91,0A1.25,1.25,0,0,0,182,184.52Z" style="fill:#b6053b"/><path d="M156.34,184a14.47,14.47,0,0,0,.07,2.18,3.39,3.39,0,0,0,.29.83c.1.21,0,.26-.18.26-.52,0-1,0-1.55,0a.45.45,0,0,1-.53-.4c-.07-.34-.22-.35-.49-.18a4.15,4.15,0,0,1-3.87.49,1.92,1.92,0,0,1-1-3.06,3.1,3.1,0,0,1,2-.94c.85-.17,1.7-.31,2.54-.49.2,0,.52,0,.54-.33a.84.84,0,0,0-.44-.88,1.13,1.13,0,0,0-.43-.14,9.36,9.36,0,0,0-1.3,0,1,1,0,0,0-.8.54.47.47,0,0,1-.57.27l-1.37-.19c-.23,0-.3-.12-.19-.36a2.83,2.83,0,0,1,2.34-1.67,7.41,7.41,0,0,1,3.64.22,1.8,1.8,0,0,1,1.37,1.92C156.35,182.68,156.34,183.27,156.34,184Zm-2.25.31c-.15-.12.26-.57-.25-.49-.74.12-1.47.28-2.2.47a.84.84,0,0,0-.71.81,1,1,0,0,0,.69.9A1.8,1.8,0,0,0,154.09,184.33Z" style="fill:#b6053b"/><path d="M77.23,187.28h-2c-.31,0-.3-.25-.36-.43s-.19-.36-.48-.16a4.1,4.1,0,0,1-3.86.51,2,2,0,0,1-1.43-1.86,1.92,1.92,0,0,1,1.43-1.89,12.67,12.67,0,0,1,2.12-.48c.47-.08.93-.18,1.39-.28s.64-.27.43-.8a.8.8,0,0,0-.46-.46,2.28,2.28,0,0,0-2.55.62.28.28,0,0,1-.28.12L69.57,182c-.23,0-.25-.14-.15-.34a2.94,2.94,0,0,1,2.55-1.7,8,8,0,0,1,2.87.09c1.54.34,1.92,1,1.94,2.25q0,1.63,0,3.27A3.89,3.89,0,0,0,77.23,187.28Zm-2.7-3c-.09-.13.18-.53-.23-.45a18.93,18.93,0,0,0-2.25.47.88.88,0,0,0-.71.83,1,1,0,0,0,.79.92A1.79,1.79,0,0,0,74.52,184.28Z" style="fill:#b6053b"/><path d="M107.21,184.18c-.84,0-1.68,0-2.52,0-.35,0-.45.1-.39.43a1.77,1.77,0,0,0,1.48,1.41,1.56,1.56,0,0,0,1.76-.72.4.4,0,0,1,.5-.25c.55.09,1.1.17,1.65.24.23,0,.25.09.15.28a2.91,2.91,0,0,1-1.18,1.27,5.16,5.16,0,0,1-5.2-.07,3.14,3.14,0,0,1-1.52-2.74,3.58,3.58,0,0,1,1.82-3.63A4.68,4.68,0,0,1,107,180a3.62,3.62,0,0,1,3,3.94c0,.27-.13.28-.33.28h-2.56ZM106,183h0c.49,0,1,0,1.46,0,.25,0,.31-.07.29-.31a1.6,1.6,0,0,0-1.71-1.42,1.65,1.65,0,0,0-1.77,1.42c0,.24.08.32.31.31C105.09,183,105.57,183,106,183Z" style="fill:#b6053b"/><path d="M162.73,183.63c0-1.09,0-2.18,0-3.27,0-.27.07-.37.35-.36a11.58,11.58,0,0,0,1.34,0c.34,0,.44.1.41.42,0,.17-.11.42.07.5s.3-.16.44-.26a4,4,0,0,1,4.15-.44,1.9,1.9,0,0,1,1.19,1.82c0,1.63,0,3.27,0,4.91,0,.29-.12.35-.37.34-.5,0-1,0-1.51,0-.3,0-.39-.08-.38-.37,0-1.08,0-2.15,0-3.23a11.21,11.21,0,0,0-.09-1.34,1.13,1.13,0,0,0-.94-1,2.35,2.35,0,0,0-1.47.18,1.6,1.6,0,0,0-.88,1.46c-.1,1.26,0,2.51,0,3.77,0,.43-.11.57-.54.53a9.36,9.36,0,0,0-1.38,0c-.31,0-.37-.11-.37-.38C162.74,185.81,162.73,184.72,162.73,183.63Z" style="fill:#b6053b"/><path d="M135.26,183.67a3.57,3.57,0,0,1,3.42-3.76,6.16,6.16,0,0,1,2.84.28,3,3,0,0,1,1.73,1.6c.11.22.12.35-.19.39-.51.06-1,.16-1.53.23-.16,0-.34.1-.46-.14a1.66,1.66,0,0,0-2-.91,1.69,1.69,0,0,0-1.48,1.75,4,4,0,0,0,.16,1.69,1.69,1.69,0,0,0,1.53,1.1,1.6,1.6,0,0,0,1.9-1.18c.06-.22.22-.18.37-.16.54.07,1.07.18,1.61.23.3,0,.3.15.21.38a3.29,3.29,0,0,1-2.65,2.17,5.11,5.11,0,0,1-4.09-.69A3.29,3.29,0,0,1,135.26,183.67Z" style="fill:#b6053b"/><path d="M118.73,181c.23-.22.39-.35.53-.5a2.44,2.44,0,0,1,2.79-.36c.19.08.16.21.11.34-.16.38-.34.76-.51,1.15-.08.19-.18.22-.35.13a1.76,1.76,0,0,0-.89-.19c-.84,0-1.31.57-1.42,1.56a34.14,34.14,0,0,0-.07,3.73c0,.37-.09.49-.47.46a15,15,0,0,0-1.55,0c-.24,0-.31-.07-.31-.31q0-3.33,0-6.67c0-.24.08-.31.31-.31.47,0,1,0,1.43,0s.46.08.42.41A4.88,4.88,0,0,0,118.73,181Z" style="fill:#b6053b"/><path d="M129.85,183.6c0,1.08,0,2.15,0,3.23,0,.32-.06.49-.43.46a12.48,12.48,0,0,0-1.38,0c-.25,0-.31-.09-.31-.32q0-3.35,0-6.71c0-.16,0-.26.23-.26.54,0,1.09,0,1.63,0,.3,0,.25.2.25.37q0,1.61,0,3.23Z" style="fill:#b6053b"/><path d="M128.82,179c-1.09,0-1.09,0-1.08-1.08,0-.66,0-.66.66-.66h1.17c.2,0,.28.07.27.27,0,.39,0,.78,0,1.17,0,.24-.09.32-.32.31S129.05,179,128.82,179Z" style="fill:#b6053b"/><path d="M163.14,62.5a1.18,1.18,0,0,1,.65,1.27.93.93,0,0,1-.85.73A.8.8,0,0,1,162,64c.11.09.21.19.32.27a.86.86,0,0,0,1.23-.25.87.87,0,1,0-1.55-.77,1.39,1.39,0,0,0,0,.77.87.87,0,0,1,.19-1.24c.11-.08.26-.11.32-.25Z" style="fill:#b4063b"/><path d="M106.25,81.37a2.08,2.08,0,0,0,1.17-.61,1.11,1.11,0,0,1,1.42-.14.69.69,0,0,0,.91,0,22.71,22.71,0,0,0,2.55-1.83,3.1,3.1,0,0,1,2.16-.73c.49,0,.92.12,1.23-.59A2.88,2.88,0,0,1,117.85,76a4.57,4.57,0,0,1,1.29-.07,1.42,1.42,0,0,1,1.18.76,4,4,0,0,1,.5,1.84,17.63,17.63,0,0,1-.18,3.63,1.87,1.87,0,0,0,.64,1.76c.15.14.27.22.05.44s-.22.66.26.78.53.14.45.7a22.63,22.63,0,0,1-.72,3.93,6.31,6.31,0,0,0-.21,3.18c0,.25-.07.28-.26.32a4,4,0,0,0-1.2.47c-.19.11-.27.23-.17.47a1.21,1.21,0,0,1-.25,1.43.55.55,0,0,0-.16.37c-.11,1.62-.23,3.23-.33,4.85,0,.26-.05.32-.35.31a7.83,7.83,0,0,0-2.72.62c-3.23,1.13-6.32,2.6-9.42,4-.54.25-1.1.48-1.64.73a.48.48,0,0,1-.63-.15,5.45,5.45,0,0,1-.75-1.1c-.37-.69-.75-1.37-1.06-2.09a3.43,3.43,0,0,0-1.07-1.36.41.41,0,0,1-.15-.56.81.81,0,0,0-.24-.95,2.78,2.78,0,0,1-.92-1.87.39.39,0,0,1,.34-.48c.17,0,.4,0,.33-.32s-.27-.2-.45-.16c-.73.16-.76.15-1.18-.5a14.14,14.14,0,0,1-1.19-2.57c-.1-.25,0-.35.2-.48,1.07-.81,2.14-1.61,3.13-2.52.17-.16.49-.36.37-.54s-.45,0-.67.1c-1.21.53-2.37,1.18-3.53,1.83a.35.35,0,0,1-.55-.12,2.68,2.68,0,0,1-.55-1.51c0-.29,0-.59.39-.74s.35-.46.11-.72a1.44,1.44,0,0,0-.75-.43c-.34-.08-.34-.29-.24-.53a1.17,1.17,0,0,1,.94-.76,5.93,5.93,0,0,0,3.07-1.41l.9-.61a3.77,3.77,0,0,1,3.75-.28c.53.22.54.22.66-.34a2.4,2.4,0,0,0,0-1.24.5.5,0,0,1,.31-.61,2.22,2.22,0,0,1,1-.24,1.92,1.92,0,0,0,1.68-1.64c0-.51-.2-.65-.66-.45S106.63,81.62,106.25,81.37Z" style="fill:#095c7e"/><path d="M163.87,91.71a4.22,4.22,0,0,0-.63.38c-.23.2-.56.38-.38.79a.89.89,0,0,0,1,.49,3.79,3.79,0,0,0,.9-.34c.09,0,.21-.27.32,0s.19.36-.08.5c-.95.48-1.86,1-2.85,1.41a1,1,0,0,0-.69.9c0,.33,0,.41.35.34a.67.67,0,0,1,.4,0,1.51,1.51,0,0,1-.83.81,5.23,5.23,0,0,1-2.87.36,8.37,8.37,0,0,1-1.61-.26.6.6,0,0,0-.44.1c-.81.38-1.67.63-2.5,1a8.66,8.66,0,0,1-1.93.74c-.43.06-.51.29-.54.63a.26.26,0,0,0,.23.32,5.75,5.75,0,0,0,3.41,0,17.21,17.21,0,0,1,4-.62,2.59,2.59,0,0,1,1-.05,4.08,4.08,0,0,1-1.4.8,64.12,64.12,0,0,0-9.7,2.18c-2.21.77-4.38,1.66-6.57,2.49-.9.34-1.8.7-2.71,1a.67.67,0,0,0-.53.61v0c-.21.82-.21.82-1,.89a1.34,1.34,0,0,0-.82.35,5.32,5.32,0,0,1-2.51,1c-.41.09-.82.16-1.23.24a2,2,0,0,0-1,.56,3.77,3.77,0,0,1-1.63.72c-1.16.36-2.34.63-3.53.88a7.66,7.66,0,0,0-2.33,1.21c-3.87,2.35-7.68,4.78-11.48,7.22a.85.85,0,0,1-1,.05c-.56-.34-1.13-.66-1.68-1a.41.41,0,0,1-.18-.39,10.5,10.5,0,0,0-1.53-5c-.06-.09-.14-.16-.07-.29a2.52,2.52,0,0,0,.17-1.27.62.62,0,0,1,.24-.54,55,55,0,0,1,12.77-8.21,65.72,65.72,0,0,1,7.85-2.86c3.87-1.26,7.72-2.58,11.51-4.07a23.24,23.24,0,0,1,3.81-1c2.17-.45,4.35-.87,6.52-1.29,1.71-.33,3.43-.63,5.14-1,.18,0,.24,0,.33.16.26.33.44.31.68,0,.05-.08.1-.17.15-.25a.61.61,0,0,1,.92-.24c.22.13.37.16.53-.06a.26.26,0,0,1,.23-.08,29,29,0,0,0,3.63-.25Z" style="fill:#b4063b"/><path d="M163.21,84.08a18.69,18.69,0,0,0-3.7,2.27,6,6,0,0,1-2.83,1,11.25,11.25,0,0,0-2.2.65c-.15.07-.35.11-.44.23-.33.45-.77.39-1.24.39a4.74,4.74,0,0,0-2.23.63,6.19,6.19,0,0,1-2,.69,26.94,26.94,0,0,0-5.23,1.6,47.4,47.4,0,0,0-7.06,3c-1.87,1.06-3.95,1.58-5.86,2.5-1.26.6-2.56,1.11-3.83,1.69a.55.55,0,0,1-.8-.24,5.76,5.76,0,0,1-.71-2.21,11.16,11.16,0,0,0-.53-2.65,2.53,2.53,0,0,1-.16-2.05,1.35,1.35,0,0,0-.08-.82,2,2,0,0,1,1.12-2.53c1.44-.66,2.91-1.29,4.37-1.91,3.24-1.38,6.51-2.65,9.84-3.8a75.63,75.63,0,0,1,7.89-2.34,23,23,0,0,1,5.5-.73c.12,0,.26,0,.34-.1.36-.67,1-.61,1.57-.54a1.29,1.29,0,0,1,.36.09c.34.15.64.2.81-.24.06-.14.19-.14.32-.14A31.93,31.93,0,0,0,161,78a.81.81,0,0,1,.77.16.54.54,0,0,0,.84-.09c.32-.36.46-.36.72.06a.77.77,0,0,0,.69.42,2.35,2.35,0,0,1,1,.42c.21.12.18.33.16.52s-.23.17-.36.18a3.51,3.51,0,0,0-2.53,1.47c-.12.14-.24.3-.13.49a.45.45,0,0,0,.49.15c.37-.05.74-.13,1.11-.2.1,0,.22-.07.26.05a2.35,2.35,0,0,1,.14.69c0,.11-.19.06-.29,0a16.47,16.47,0,0,0-3.89.09,6.62,6.62,0,0,0-2.9.69,5.71,5.71,0,0,0-1.9,1.92c-.08.15-.19.32-.07.47s.28,0,.43,0c2.35-.55,4.72-.94,7.09-1.38Z" style="fill:#b4063b"/><path d="M161.59,65.79a5.61,5.61,0,0,0-.87.64c-.18.18-.27.35,0,.53.12.08.11.2,0,.32-.58.7-.55.83.28,1.21,0,0,0,0,.07.07a1.69,1.69,0,0,1-.69.51,23.33,23.33,0,0,1-3.87,1.31c-.17.05-.34.12-.52.16s-.32.29-.34.51.13.38.36.44a3.71,3.71,0,0,0,1.7,0L160,71c-.07.23-.25.31-.36.45a.93.93,0,0,0-.32.71c.08.45-.13.43-.47.46a12.48,12.48,0,0,0-4.42,1,5,5,0,0,0-1,.76c-.31.26-.82,0-1.18.29-.1.07-.23.11-.32.19-.31.26-.62.47-1,.13a.21.21,0,0,0-.3,0,5.59,5.59,0,0,1-3,1.36c-.81.2-1.65.32-2.44.55-1.71.51-3.36,1.2-5,1.86-3,1.21-6,2.6-9,3.74-.36.14-.69.37-1,.52a2,2,0,0,1-2.94-1.57,6.33,6.33,0,0,0-.25-1.44,9.53,9.53,0,0,1-.49-3.32,9,9,0,0,0-.39-1.88,1.6,1.6,0,0,1,1.49-2.06,4.56,4.56,0,0,0,1.75-.52,74.59,74.59,0,0,1,11.36-4c2.58-.68,5.18-1.32,7.82-1.8s5.08-.87,7.64-1.17c.75-.09,1.5-.12,2.25-.18a.41.41,0,0,1,.42.18.36.36,0,0,0,.64,0c.2-.44.4-.42.75-.15A6.54,6.54,0,0,0,161.59,65.79Z" style="fill:#b4063b"/><path d="M111.41,105.22a4.07,4.07,0,0,1,2.55-1.74c.77-.29,1.63-.15,2.41-.45Z" style="fill:#095c7e"/><path d="M94.4,89.93a2.28,2.28,0,0,1-.27.86c-.06.1-.14.24-.29.09a.92.92,0,0,1,.1-1.18.4.4,0,0,1,.36-.06C94.46,89.68,94.39,89.82,94.4,89.93Z" style="fill:#095c7e"/><path d="M104.86,82.11c0,.56,0,.61-.78.73A2.14,2.14,0,0,1,104.86,82.11Z" style="fill:#095c7e"/><path d="M163.41,66.24a1.13,1.13,0,0,1-.56.45.22.22,0,0,1-.31-.13c-.06-.16,0-.22.17-.27A1.23,1.23,0,0,1,163.41,66.24Z" style="fill:#b4063b"/><path d="M151.55,75.86a5,5,0,0,1,.55,0c.12,0,.34-.09.34.09a.34.34,0,0,1-.41.31C151.81,76.24,151.74,76.06,151.55,75.86Z" style="fill:#b4063b"/><path d="M100.07,85.12c0-.19.08-.32.14-.47s.14-.1.24-.06.08.16,0,.23S100.25,85.07,100.07,85.12Z" style="fill:#095c7e"/><path d="M162.4,64.06a5.82,5.82,0,0,1,0-.86c.05-.35.35-.16.54-.17s.35.21.24.33,0,.46,0,.75c-.26-.12-.27-.4-.47-.45C162.38,63.55,162.67,64,162.4,64.06Zm.65-.74c0-.18-.16-.17-.28-.18s-.22,0-.22.17.09.19.22.18S163,63.47,163,63.32Z" style="fill:#b4063b"/><path d="M131.51,159.55a13.9,13.9,0,0,0,.69-2.51q1.72-7.79,3.42-15.59,1.49-6.82,2.94-13.64c.05-.24.13-.33.37-.33H147c.23,0,.33.07.33.31,0,.48,0,1,0,1.43,0,.16,0,.23-.2.24a3,3,0,0,0-2.7,3.12c0,2.62,0,5.23,0,7.85-.11,7.75,0,15.5-.09,23.24,0,1.4-.05,2.8,0,4.19a12.46,12.46,0,0,0,.3,2.86,2.5,2.5,0,0,0,2.34,2.14c.18,0,.28.06.29.27,0,.39,0,.78.06,1.17s-.09.31-.31.3-.56,0-.84,0h-10c-.33,0-.46-.1-.41-.42a.9.9,0,0,0,0-.13c0-.36-.11-.79,0-1.07s.63-.12,1-.2a2.41,2.41,0,0,0,1.76-2.08,14,14,0,0,0,.21-3.75c0-.71,0-1.43,0-2.14,0-.25,0-.5,0-.76,0-9.87.1-19.75.07-29.62a.66.66,0,0,0-.1-.41c-.26,1.18-.52,2.35-.77,3.53q-.81,3.84-1.62,7.69-1,5-2.09,9.94-1,4.76-2,9.53t-2,9.57c-.06.28-.18.45-.5.41s-.61,0-.7-.41q-1-4.69-2-9.37c-.5-2.37-1-4.74-1.54-7.1q-1.16-5.37-2.3-10.74-1.25-5.82-2.51-11.64c0-.15-.08-.29-.15-.5a1.19,1.19,0,0,0-.11.56c0,1.09,0,2.18,0,3.27q0,12.38,0,24.76c0,1.48,0,3,0,4.45a7.75,7.75,0,0,0,.63,3.26,2.41,2.41,0,0,0,2.36,1.56c.3,0,.39.1.37.39s0,.75,0,1.13c0,.2,0,.29-.29.27a37.13,37.13,0,0,0-6.48,0c-1,.09-1.94-.07-2.92,0-.63,0-1.26,0-1.88,0-2.15,0-4.31,0-6.46.09-.19,0-.39,0-.58.06-.47,0-.53,0-.47-.49a.26.26,0,0,1,0,0c.1-.36-.07-.79.12-1.06s.66-.16,1-.3a2.59,2.59,0,0,0,1.57-2.88c-.41-2.53-.84-5.05-1.27-7.58-.06-.33-.13-.66-.17-1s-.15-.32-.39-.32h-1.85l-5.41-.09c-.31,0-.42.07-.47.41-.3,2.16-.64,4.32-1,6.49-.12.78-.24,1.57-.35,2.35a2.29,2.29,0,0,0,1.66,2.54,2.46,2.46,0,0,0,.72.21c.44,0,.49.25.45.6s.18,1-.1,1.2-.78.07-1.18.06c-5.87-.13-11.75-.08-17.62-.08-.34,0-.48-.08-.45-.44a7.41,7.41,0,0,0,0-1c0-.23.07-.34.3-.36a3.11,3.11,0,0,0,2.73-2.75,11.81,11.81,0,0,0,.11-2.83c-.05-1.07,0-2.15,0-3.23,0-2.8,0-5.6,0-8.39,0-1.13,0-2.26,0-3.39,0-.24-.06-.34-.33-.35q-3.69,0-7.38-.08c-.36,0-.41.15-.41.45,0,5.86,0,11.72,0,17.58a2.71,2.71,0,0,0,1.36,2.47,3.31,3.31,0,0,0,1.37.5c.31,0,.39.19.4.47s0,.67.08,1,0,.38-.33.36c-2.31-.1-4.61-.1-6.92-.08a41.08,41.08,0,0,0-4.15.07c-.21,0-.3-.06-.34-.26a9.79,9.79,0,0,0-.31-1c-.09-.25,0-.35.23-.4a3.51,3.51,0,0,0,1.57-.84A2.79,2.79,0,0,0,69,169.78c-.07-3,0-6,0-9-.11-7,0-14-.09-20.94,0-.85,0-1.7-.06-2.56A30.3,30.3,0,0,1,69,134a6.75,6.75,0,0,0-.41-3.08,2.23,2.23,0,0,0-2.12-1.56c-.21,0-.3-.08-.29-.3,0-.48,0-1,0-1.43,0-.28.1-.36.36-.35.6,0,1.2,0,1.8,0,3.06,0,6.13,0,9.19,0,.36,0,.51.08.47.46a6.63,6.63,0,0,0,0,1.09c0,.29-.1.37-.36.35a3,3,0,0,0-.63,0,1.93,1.93,0,0,0-1.64,1.42,11.35,11.35,0,0,0-.4,3.56c0,4.7,0,9.4,0,14.1,0,.37.07.5.47.49q3.63,0,7.26,0c.38,0,.47-.12.46-.48,0-4.78,0-9.57,0-14.35a12.45,12.45,0,0,0-.33-2.95,2.13,2.13,0,0,0-2.3-1.82c-.36,0-.5-.09-.47-.47a7.62,7.62,0,0,0,0-1.09c0-.24.05-.35.32-.35H91.65c.26,0,.35.09.33.34,0,.45,0,.89,0,1.34,0,.14,0,.27-.2.29-1.82.23-2.5,1.4-2.64,3.19-.25,3.29-.09,6.6-.1,9.9,0,7.32,0,14.63,0,21.95,0,1.51,0,3,0,4.53a6.11,6.11,0,0,0,.46,2.45,2.43,2.43,0,0,0,3.75.77,4.29,4.29,0,0,0,1.35-2.52c.6-3.15,1.25-6.28,1.89-9.42l2.14-10.61,2-10.16,1.83-9.09c.23-1.12.45-2.24.68-3.36a.42.42,0,0,1,.44-.4c.25,0,.5,0,.75-.07s.26.14.29.31q.53,2.6,1.07,5.19,1.21,5.85,2.42,11.7,1.14,5.5,2.26,11,1.17,5.67,2.35,11.33c.32,1.54.6,3.09,1,4.62a2.66,2.66,0,0,0,1.51,2,2.32,2.32,0,0,0,3.11-1.48,11.91,11.91,0,0,0,.43-3.65q0-15.84,0-31.68c0-1.16.1-2.31,0-3.47a3,3,0,0,0-2.69-3c-.23,0-.35-.14-.33-.38,0-.4.05-.81.06-1.21s.2-.22.35-.22h3.11c1.66,0,3.33,0,5,0,.3,0,.41.09.47.37.48,2.3,1,4.61,1.47,6.91q.64,3,1.27,6l2.42,11.32,1.51,7.07C131.43,159.28,131.47,159.41,131.51,159.55Zm-29.59-17.36h-.12c0,.12-.08.23-.11.35l-1.57,7.35q-.83,3.9-1.68,7.8c-.06.3,0,.42.33.42,2.1,0,4.19,0,6.29,0,.29,0,.39-.06.32-.38-.24-1-.45-2-.67-3l-2.49-11.18C102.13,143.09,102,142.64,101.92,142.18Z" style="fill:#095c7e"/><path d="M191.36,178.13c.08-4.46.1-8.92.08-13.38,0-.31.09-.45.4-.43H192c.83,0,.83,0,.94.78q.68,4.78,1.36,9.55a9.92,9.92,0,0,0,1.09,3,18,18,0,0,0,3.78,5.34,4.29,4.29,0,0,0,2.14,1.25,4,4,0,0,0,2.65-.58,8.87,8.87,0,0,0,4.54-6.5,11.67,11.67,0,0,0-1.45-7.79c-1.67-3.13-3.78-6-5.75-8.94-1.87-2.79-4.16-5.25-6.06-8a25.78,25.78,0,0,1-4.38-9.42,15,15,0,0,1-.26-4.12,38.12,38.12,0,0,1,.54-4.65,18.19,18.19,0,0,1,4-8.85,9.85,9.85,0,0,1,5.36-3.29,7.82,7.82,0,0,1,4.57.6,17.28,17.28,0,0,1,4.48,2.74,13.8,13.8,0,0,0,2.14,1.22.61.61,0,0,1,.4.68,57.77,57.77,0,0,0-.14,7.37c.05,2.24,0,4.47.07,6.71,0,.35-.07.5-.46.49-.63,0-.64,0-.79-.63-.7-2.91-1.32-5.85-2.12-8.73a15.7,15.7,0,0,0-3.36-6.26,8.18,8.18,0,0,0-.75-.72,2.85,2.85,0,0,0-4,0,7.54,7.54,0,0,0-2.24,3.38,22.89,22.89,0,0,0-1.3,5.94,10.36,10.36,0,0,0,.79,5.56,25,25,0,0,0,1.58,3,71.28,71.28,0,0,0,4.5,6.15c2.09,2.65,4.23,5.27,6.05,8.13a23.35,23.35,0,0,1,3.5,8.93,24,24,0,0,1,.24,6.05,20.35,20.35,0,0,1-3.14,9.68,10.56,10.56,0,0,1-5.86,4.5,9,9,0,0,1-7.07-.83,39.6,39.6,0,0,1-6-4.23.54.54,0,0,1-.19-.48C191.36,180.22,191.36,179.17,191.36,178.13Z" style="fill:#095c7e"/><path d="M63.33,171l1.37,2.23c.08.13,0,.24-.06.35A37.15,37.15,0,0,1,60.09,182a13.42,13.42,0,0,1-4.49,4,7.71,7.71,0,0,1-7,.1,12.51,12.51,0,0,1-4.52-3.58A30.7,30.7,0,0,1,38.61,172a49,49,0,0,1-1.82-8.66,68.65,68.65,0,0,1-.45-11.67c.1-2,.27-4,.49-6a64.14,64.14,0,0,1,1.37-7.94,33.62,33.62,0,0,1,3.4-9.28A19,19,0,0,1,46.06,123a10,10,0,0,1,4.75-2.16A7.19,7.19,0,0,1,56.32,122c2.44,1.77,4.95,3.46,7.43,5.17a.69.69,0,0,1,.34.64q0,7,0,14.1c0,.4-.1.53-.51.51-.88,0-.87,0-1.05-.87a52.57,52.57,0,0,0-3.71-11.95,13.46,13.46,0,0,0-3.21-4.56,4.29,4.29,0,0,0-3.81-1.18,5.16,5.16,0,0,0-2.87,1.85,12.94,12.94,0,0,0-2.63,5.63,66,66,0,0,0-1.18,7.17c-.31,2.69-.55,5.39-.68,8.09-.07,1.47-.11,2.93-.17,4.4-.09,2.11-.09,4.22,0,6.33.06,2.32.16,4.63.38,6.94a64.51,64.51,0,0,0,1.11,7.73A24.72,24.72,0,0,0,48,178.69a7.56,7.56,0,0,0,2.95,3.07,4.78,4.78,0,0,0,5.37-.28,15,15,0,0,0,4.32-4.94,33.39,33.39,0,0,0,2.6-5.34A2,2,0,0,1,63.33,171Z" style="fill:#095c7e"/><path d="M174.54,174.62c-1.75,0-3.5,0-5.24,0-.33,0-.4-.1-.43-.42a1.25,1.25,0,0,1,1-1.58,2.51,2.51,0,0,0,1.65-2.49c.31-8.81.12-17.61.15-26.42,0-.2,0-.39,0-.59q0-5.43-.07-10.86a2.85,2.85,0,0,0-2.29-2.89c-.28-.06-.41-.18-.39-.48a9.39,9.39,0,0,0,0-1.09c0-.26.09-.33.34-.33,2.24,0,4.48,0,6.71,0q2.6.07,5.2.05a6.8,6.8,0,0,1,5.87,3.13,12.61,12.61,0,0,1,2,5.49,23.58,23.58,0,0,1,.08,6.31,20.53,20.53,0,0,1-1.86,6.95,7,7,0,0,1-5.08,3.85,13.44,13.44,0,0,1-4.17.2c-.34,0-.47.06-.47.42,0,1.1,0,2.21,0,3.31-.11,2.67,0,5.34-.08,8,0,1.45,0,2.9,0,4.35a3.16,3.16,0,0,0,2.52,3.31c.25.07.38.17.35.45s.16.92-.08,1.18-.79.09-1.21.09C177.5,174.63,176,174.62,174.54,174.62Zm3-33.7h0q0,4.76,0,9.52c0,.1,0,.2,0,.29s.08.33.32.34a6.49,6.49,0,0,0,1.25,0,4,4,0,0,0,3.29-3.24,27.14,27.14,0,0,0,.68-6.1,40.72,40.72,0,0,0-.16-5.9,16.48,16.48,0,0,0-.76-3.8,3.35,3.35,0,0,0-3.1-2,1.73,1.73,0,0,0-1.51,1.72Q177.49,136.29,177.49,140.93Z" style="fill:#095c7e"/><path d="M154.33,174.62c-1.75,0-3.5,0-5.24,0-.35,0-.42-.11-.45-.45-.06-.75,0-1.23.91-1.53a2.7,2.7,0,0,0,1.71-2.72c.25-7.44.12-14.88.15-22.31,0-1.62,0-3.24,0-4.87-.06-3.45-.05-6.91-.07-10.36a2.89,2.89,0,0,0-2.35-3,.35.35,0,0,1-.33-.43c0-.38,0-.75,0-1.13,0-.23.06-.33.31-.32,2.4,0,4.81,0,7.21.05,1.62.05,3.24,0,4.87,0a6.66,6.66,0,0,1,5.54,2.87,12,12,0,0,1,2.1,5.36A20.67,20.67,0,0,1,169,140a24.12,24.12,0,0,1-1.82,9,7.12,7.12,0,0,1-5.35,4.29,13.13,13.13,0,0,1-4.12.18c-.3,0-.45.07-.44.38s0,.59,0,.88c-.05,2.85-.07,5.7-.11,8.55,0,1.41-.07,2.82,0,4.23a21.53,21.53,0,0,0,.12,2.76,3,3,0,0,0,2.36,2.58c.34.1.49.23.45.59a4,4,0,0,0,0,.8c0,.3-.09.38-.38.38Zm2.94-33.69q0,4.42,0,8.85c0,.32,0,.64,0,1s.07.31.29.32a4.35,4.35,0,0,0,2.51-.46,4.64,4.64,0,0,0,2.22-3.48,37.2,37.2,0,0,0,.52-6c0-1.3,0-2.6-.07-3.9a23.26,23.26,0,0,0-.74-4.82,3.5,3.5,0,0,0-1.9-2.21,2.13,2.13,0,0,0-1.38-.21,1.64,1.64,0,0,0-1.46,1.7Q157.26,136.29,157.27,140.93Z" style="fill:#095c7e"/><path d="M212.68,125.81a1.06,1.06,0,1,1,1.06-1.06A1.06,1.06,0,0,1,212.68,125.81Zm0-2a.89.89,0,1,0,.89.89A.89.89,0,0,0,212.68,123.86Z" style="fill:#095c7e"/><path d="M212.28,124.16l.3,0a.49.49,0,0,1,.35.1.3.3,0,0,1,.09.23.32.32,0,0,1-.23.31h0a.3.3,0,0,1,.18.24,1.91,1.91,0,0,0,.09.33h-.16a1.54,1.54,0,0,1-.08-.29c0-.17-.1-.23-.24-.23h-.15v.52h-.16Zm.16.55h.16c.17,0,.27-.09.27-.23s-.11-.22-.28-.23h-.15Z" style="fill:#095c7e"/></svg>