<svg xmlns="http://www.w3.org/2000/svg" viewBox="0 0 250 250"><defs><style>.a{fill:#e03a3e;}</style></defs><title>Fast Food</title><path class="a" d="M47.76,70.45a14.87,14.87,0,0,1,3.76,11c-.24,1.81-.78,4-2.81,4.61-2.3.79-4.2-.6-5.64-2.23-.11-.31-.45-.48-.64-.82-2.12-3.25-4-8.1-1.82-11.76A4.85,4.85,0,0,1,47.76,70.45Z"/><path class="a" d="M66.27,84.3c4-3.12,9.09-4.82,13.87-4.11a7.19,7.19,0,0,1,4.46,2.9,6.6,6.6,0,0,1-1.09,8A18.2,18.2,0,0,1,77,95.72a26.52,26.52,0,0,1-7.69,2.07c-3.36.25-6.69.31-8.47-3-1.74-4.33,2.35-8,5.44-10.54"/><path class="a" d="M40.68,82.87a5.48,5.48,0,0,1,.84,3.62,3.37,3.37,0,0,1-2.77,2.56c-2.6.57-5-1.53-6.31-3.33a4.93,4.93,0,0,1-.28-5.4A4.36,4.36,0,0,1,36,79.12,7,7,0,0,1,40.68,82.87Z"/><path class="a" d="M68,73.59c.75,5.35-3.66,11.17-8.48,14.17a5,5,0,0,1-5,.29c-3.57-3.24-1.75-8.73-.47-12.51,1.3-3.29,3.71-6.3,7.2-6.87,2.15-.53,5.7.24,6.75,4.93"/><path class="a" d="M142.08,147.77c-12.47-2.76-10.42,5.36-7.62,5.95C147.45,156.46,144.87,148.56,142.08,147.77Z"/><path class="a" d="M205.35,144.45c-12.47-2.76-10.42,5.36-7.62,5.95,13,2.73,10.69-5.13,7.62-5.95"/><path class="a" d="M215.92,146.28c-.71-6.19-1.63-14.11,3.68-18.48a5.55,5.55,0,0,1,7.46.31c5.76,5.13-4.09,18.47-4.09,20.2a28.17,28.17,0,0,0,3.56,8.24c1.55,0,8.8-1.54,11.57-2.25,1.44-.43,4.62.14,3.27,3.76-2.14,3.35-6.5,3.27-9.76,4.18,1.31,1.87,5.33,2.39,7.68,1.79,3.76-1.22,7,7.14-5.27,6.11-4.81-.59-9.1-4.87-10.83-6.9,0,0-10.21.82-11.75.82-2,1.62-9.59,11.1-15.53,11.91-4,.54-5.25-2-4.19-4,2.29-3.22,3.35-.22,11.27-8.26-6.7-.32-5.31-5.76-1.3-6.57,3.06-.49,3.92.49,6.73.31C208.4,157.42,215.82,147.8,215.92,146.28Zm4.61-4.66c.1.75,1.52-3.49,2.15-5.25C225.2,129.39,219.05,130,220.53,141.62Zm-1.93,12s-2.34,3.44-3.37,4c1.42-.13,3.37.07,5.18-.06C219.5,155.92,219.63,155.79,218.6,153.64Z"/><path class="a" d="M170.85,142a3.85,3.85,0,1,0-3.7-3.84A3.77,3.77,0,0,0,170.85,142Z"/><path class="a" d="M158.77,174.41c-5.77,2.18-6-10.42-6-10.53a44.39,44.39,0,0,0,4.5-1.55C159.4,164.29,161.92,173,158.77,174.41ZM164,160a2.72,2.72,0,0,0,1.43-.81c.72,1.42,5,6.42,12.88.91.61,1.93,9.2,15.16,20.35-2.38,1.82-3.8-2.27-7.85-6.23-1.07-4.7,7.51-8.71.71-9.11-.81,4-4.89,12.4-25.26,5.83-28.78C175.16,120.28,176,153.64,176,153.64c-1.46,2.45-4.23,2.77-4.9,2-1-2,1.64-8.82.84-11.34-1.49-2.08-4.45-1-5.17.53-1.33,2.84-2.46,8.71-7,10a15.16,15.16,0,0,1-2-1c2.89-3.5,15-26.94,1.43-26.4-11.78.7-12.57,23.86-13.09,28-3.76,3.59-2.45,6.19.11,7.41C143.93,185.79,174,190.54,164,160Zm-4.82-24.46c1.14,2.8-4.61,13.45-7,15.71C152.15,152.93,156.46,128.88,159.14,135.5Zm26.76-2.74c1.66,2.77-3.47,13.9-4.79,16.17C180.76,145.16,183.5,128.74,185.9,132.76Z"/><path class="a" d="M48.84,112.43c1.62,3,6.91-2.06,4.71-6.16C51.94,103.57,47.75,109.88,48.84,112.43Z"/><ellipse class="a" cx="88.38" cy="140.87" rx="3.7" ry="3.85"/><path class="a" d="M58,153.44c.1-4.4-1.46-21.2,10.12-22.62a6.68,6.68,0,0,1,3.61.84c4.85,2.69,3.47,10.17.74,14a24.92,24.92,0,0,1-3.4,4.94c5.33-1.71,6.54,1.57,5.62,9.85a2.17,2.17,0,0,0,1.3,2.42c1,.3,2-.83,2.78-2.16,2.47-4.23,2.46-13.29,6.86-14.81,3.55-.78,5.13,1.87,3.06,7.81-.31,2-1,7.32,1.64,6.29.82-.61,1.94-1.22,2-2.34-.52-5.89,4.66-20.26,14.81-13.5a10.15,10.15,0,0,1,2.15,10c-1.51,3.49-6.09,3.82-7.77.81-.92-1.22-.51-3.15-.72-4.37-6.68,7.21,3.78,16.22,9.91,7,.82-9.42,1-16.61,1.23-24.83-.24-4.32,7.6-5.05,6.54,2.66,0,2.44-.16,4.22-.4,7.39,2.65-1.73,6.64-2.34,9.3-.3,3.57,2.54,3.7,7,2.35,10.86a18.7,18.7,0,0,1-5,7.41c.41.81,5.18,2.12,6.75-1.83.54-1.38,3.47-5.28,6-1.64,1.69,2.38-2.92,10.11-8.6,10.68-4.5.91-9.06-2-11.81-5.52,0,1.38.41,6.9-2.19,8.77-1.09.57-5.5,2.11-4.43-5.2-6.7,3.09-10,2.56-13.55.22a8.37,8.37,0,0,1-2.07-2c-7.16,6.6-10.92.36-11.7-.24-2.17,6.39-13.86,8.56-14-.62.72-9.24-4-10.54-4.25,5.89-.08,5.32-6.44,4.32-6.54,1.71-.71-2.13-.51-8.24-.51-8.24-10.41,8.18-19.32,11.74-26.67,11.91a19.86,19.86,0,0,1-5.49-.78h0c-8.54-2.89-14.29-9.72-16.94-19.31a43,43,0,0,1-1.45-13.4h0A64.87,64.87,0,0,1,13,116.39c4.85-10.72,15.72-23.27,29.66-26.81S61.3,100,61.3,100c3.09,8.52-.06,20.86-3.41,28.53-3.76,8.61-7.35,12.93-11.8,15.8-14,9-31.43-5.85-13.42-32.7a2.13,2.13,0,0,1,.2-.28l.13-.18a3.27,3.27,0,0,1,5.81,2.06,2.52,2.52,0,0,1-.54,1.78,48.62,48.62,0,0,0-6.09,12.49c-1.32,5.44-.77,10.55,2.73,12.28,4.06,2,9.63-.56,14.06-8.1,7.7-13.4,7.08-24,7.08-24-.06-5.1-2.27-9.6-5.69-11.35-5.44-2.78-16.8,3-24,11.55C1.1,137.21,15.4,194.88,58,153.44Zm5.67-5.14c2.49-2.67,7.48-9.38,5.15-11.45C66.48,135.49,63.45,138.21,63.69,148.3Zm58.73-.41c-2.15.82-3.37,3.15-4.19,5.08.71-.41,2.84-.81,3.67,1.83C125.6,149.12,123.14,147.69,122.43,147.9Z"/><path class="a" d="M60.42,125.56a56,56,0,0,0,3.24-15.28c6.73,1.49,12.64,7.88,12.65,14.87-.08.21-1.31-2.57-4.3-2.77a6.92,6.92,0,0,1-6.41-3.19c-.41,0-1.32,4.19,4.78,5.3-4.09,3.08-9.61,1.48-10,1.07"/><path class="a" d="M236.06,130a2.39,2.39,0,1,1-2.39-2.33A2.34,2.34,0,0,1,236.06,130Zm-4.19,0a1.81,1.81,0,0,0,1.82,1.86,1.78,1.78,0,0,0,1.78-1.85,1.8,1.8,0,1,0-3.6,0Zm1.43,1.22h-.54v-2.33a4.69,4.69,0,0,1,.9-.07,1.46,1.46,0,0,1,.81.17.65.65,0,0,1,.23.51.6.6,0,0,1-.48.54v0a.69.69,0,0,1,.43.57,1.77,1.77,0,0,0,.17.58h-.58a2,2,0,0,1-.18-.57c0-.26-.18-.37-.48-.37h-.26Zm0-1.32h.26c.3,0,.54-.1.54-.34s-.16-.36-.5-.36a1.28,1.28,0,0,0-.3,0Z"/></svg>