<svg xmlns="http://www.w3.org/2000/svg" viewBox="0 0 250 250"><title>Casual dining</title><path d="M191.78,57.5c.22.35.66.36.94.63a1.39,1.39,0,0,1,.44,1.79c-1,2.2-2.07,4.42-3.12,6.62-2,4.23-4.14,8.4-6.24,12.59q-4,8-8.2,15.86c-1.71,3.23-3.45,6.45-5.15,9.69a2.41,2.41,0,0,0-.32.87c0,.41,0,.71.51.8s.87.18.85.77-.47.82-.92,1c-.71.23-1.4.49-2.09.76a1.61,1.61,0,0,0-.83.73c-2.24,3.73-4.49,7.45-6.82,11.13a186.25,186.25,0,0,1-12.09,17.08,87.32,87.32,0,0,1-15.07,15.06,65.62,65.62,0,0,1-10.34,6.43,54.61,54.61,0,0,1-10.95,4,16.14,16.14,0,0,1-7.11.54c-3.54-.67-6.1-3.18-6.12-7a15.48,15.48,0,0,1,2.83-8.59A57.19,57.19,0,0,1,112,136.85a121.31,121.31,0,0,1,18.26-13.49,174.35,174.35,0,0,1,20.83-10.91,127.15,127.15,0,0,1,12.6-4.78,2.21,2.21,0,0,0,1.44-1.16c2.22-4.34,4.49-8.65,6.7-13q3.43-6.74,6.79-13.52c2.52-5.08,5-10.2,7.24-15.39.34-.78.22-1-.67-.92a52.31,52.31,0,0,0-8.74,1.2,49.18,49.18,0,0,0-8.83,3,50.86,50.86,0,0,0-13.1,8.54,45.66,45.66,0,0,0-11.16,15.3,22.8,22.8,0,0,0-2.2,12.15,12.82,12.82,0,0,0,1.38,4.36c.23.46.32.9-.16,1.19s-.89,0-1.15-.43a15.91,15.91,0,0,1-1.7-3.94,25.74,25.74,0,0,1-.81-10.82,26.23,26.23,0,0,1,3.85-10.79,40.83,40.83,0,0,1,13.61-13.11,59.82,59.82,0,0,1,14-6.24c3.41-1.06,6.86-2,10.34-2.72,2.29-.5,4.58-1,6.86-1.54a7.46,7.46,0,0,0,3.45-2.29ZM107.63,161.79a13.71,13.71,0,0,0,3.76-.58,53.17,53.17,0,0,0,15.66-7.14c7.63-5,13.9-11.53,19.51-18.67,3.34-4.25,6.27-8.8,9.24-13.32,2.4-3.66,4.71-7.37,7-11.09.1-.17.36-.37.2-.56s-.44,0-.66,0c-4,1.41-7.95,3.06-11.81,4.84a142.57,142.57,0,0,0-14.13,7.47c-9.09,5.51-17.67,11.69-25.08,19.38a55.34,55.34,0,0,0-7.34,9.17,13.18,13.18,0,0,0-2.08,5.38,4.1,4.1,0,0,0,.92,3.48C104.14,161.63,105.87,161.76,107.63,161.79Z" style="fill:#99570e"/><path d="M38.65,179.69c.38-.88.44-1.85.81-2.74a8,8,0,0,1,6.17-5.21,7.39,7.39,0,0,1,4.21.61,3.55,3.55,0,0,0,3,.22c.62-.28,1,.38,1.46.7s-.08.55-.2.8c-.69,1.39-1.41,2.76-2.1,4.16-.2.41-.4.39-.71.16a2.36,2.36,0,0,1-1-1.41,3.79,3.79,0,0,0-3.49-2.63,2.67,2.67,0,0,0-2.52,2.13,14.29,14.29,0,0,0,.5,10.44,3.27,3.27,0,0,0,3.89,1.85,3,3,0,0,0,2-1.92,9.14,9.14,0,0,0,.72-2.55.64.64,0,0,1,.72-.62,1.67,1.67,0,0,1,1.78,1.84c-.35,2.94-1.66,5.15-4.68,6.05a7.51,7.51,0,0,1-7.78-2.39,12.31,12.31,0,0,1-2.61-5.67.82.82,0,0,0-.2-.52Z" style="fill:#b7171d"/><path d="M122.12,192.5c-.72-.38-1.53-.5-2.23-.95A4.65,4.65,0,0,1,118,189a7.81,7.81,0,0,1-.3-1,1.39,1.39,0,0,0-1.22-1.25,4.47,4.47,0,0,1,1.13-1q1.28-1,2.59-1.93c.24-.17.45-.37.84-.25,1,.32,1,.36.82,1.5a4.87,4.87,0,0,0,.25,3.23,2.63,2.63,0,0,0,.33.55c.43.51.87,1,1.61.85s.84-.87,1-1.5a9.44,9.44,0,0,0,.2-2.57c0-3.65,0-7.29,0-10.94a2.25,2.25,0,0,0-.89-2,5.89,5.89,0,0,1-.58-.53c-.09-.08-.17-.18-.11-.31s.2-.11.31-.11h5.54c.48,0,.66.34.85.67s-.14.52-.33.69a2.56,2.56,0,0,0-.87,2.2c.05,3.48,0,7,0,10.43a2,2,0,0,0,.74,1.78c.28.2.22.43.14.7a6,6,0,0,1-3.14,3.55c-.75.4-1.6.47-2.35.84Z" style="fill:#b7171d"/><path d="M211.35,179.83c-.42.38-.64.93-1.2,1.2a2.24,2.24,0,0,1-2.93-.86,2.12,2.12,0,0,1,.77-2.88,2.37,2.37,0,0,1,3,.62c.12.17.14.42.39.48Zm-2.24-2.4a1.61,1.61,0,0,0-1.64,1.7,1.72,1.72,0,0,0,1.73,1.73,1.7,1.7,0,0,0,1.6-1.77A1.65,1.65,0,0,0,209.11,177.44Z" style="fill:#b7171d"/><path d="M86.11,132.06A43.38,43.38,0,0,1,75.95,131a32.45,32.45,0,0,1-9.52-3.89,21,21,0,0,1-5.82-4.94A14,14,0,0,1,57.73,112a25.57,25.57,0,0,1,4.82-12.21A68.35,68.35,0,0,1,75,86.45,112,112,0,0,1,94.67,73.23a101.07,101.07,0,0,1,14.09-6.41,39.81,39.81,0,0,1,17.14-2.5,13,13,0,0,1,6.63,2.11.51.51,0,0,0,.76,0,4.29,4.29,0,0,0,.43-.48.91.91,0,0,1,1.36-.33.93.93,0,0,1,.19,1.45,1.94,1.94,0,0,0-.24,2.32,13.68,13.68,0,0,1,.42,6.32c-.39,4.08-2.34,7.41-4.94,10.46a37.54,37.54,0,0,1-8.2,7.32,4.48,4.48,0,0,1-3.63.54c-.84-.18-1.05-.54-1-1.39a18.86,18.86,0,0,1,2.13-7.32,69.67,69.67,0,0,1,10.06-15,.82.82,0,0,0,0-1.27,6,6,0,0,0-3.22-1.89,18.46,18.46,0,0,0-6.56-.49,45.93,45.93,0,0,0-13.48,3.58A95.28,95.28,0,0,0,86.9,81.36,98.2,98.2,0,0,0,73.72,92.51a52.34,52.34,0,0,0-9.07,12A27.84,27.84,0,0,0,62,110.91c-1.21,4.94-.09,9.81,4.15,13.35a20.79,20.79,0,0,0,8,3.95,42,42,0,0,0,14.06,1,72.28,72.28,0,0,0,13-2.11,87.73,87.73,0,0,0,13.53-4.51,73.15,73.15,0,0,0,18.81-11.16c.47-.4.92-.84,1.38-1.25a2.35,2.35,0,0,1,.51-.39c.39-.19.82-.28,1.12.1a.9.9,0,0,1,0,1.14,15.45,15.45,0,0,1-2.36,2.41,63.46,63.46,0,0,1-12.94,8.94,92.67,92.67,0,0,1-16.7,6.86A60.93,60.93,0,0,1,86.11,132.06Zm45.78-56.68a14,14,0,0,0-.24-2.33c-.07-.36-.1-.82-.41-.94s-.56.35-.78.6a43.5,43.5,0,0,0-6.25,9.66A57.73,57.73,0,0,0,121.4,89a9.89,9.89,0,0,0-.64,2.35c0,.16-.06.35.11.46s.31,0,.45-.1.25-.14.36-.23a25.74,25.74,0,0,0,7.75-8.32A17.21,17.21,0,0,0,131.89,75.38Z" style="fill:#99570e"/><path d="M103.27,191.34c-1.75,0-3.43,0-5.1,0-.51,0-.73-.35-.89-.71s.23-.49.46-.62a3.23,3.23,0,0,0,1.68-3.22c-.06-2.61,0-5.22.05-7.84a1.87,1.87,0,0,0-.7-1.62c-.27-.23-.51-.49-.75-.73.12-.26.31-.19.46-.2h4.82a1,1,0,0,1,.61.14c.73.49.77.71,0,1.19a.9.9,0,0,0-.38,1.26c.65,1.8,1.24,3.62,1.85,5.43.06.17,0,.43.29.43s.2-.24.25-.39q1.11-3.06,2.21-6.13c.17-.48-.25-.66-.46-1s-.67-.44-.52-.79.6-.14.92-.15c1.29,0,2.59,0,3.88-.06.72,0,1,.47,1.23.92.18.29-.21.47-.41.56a1.33,1.33,0,0,0-.77,1.45c0,2.64.08,5.28,0,7.91a3.64,3.64,0,0,0,1.15,3.07c.27.25.75.56.62.89s-.68.14-1,.14c-1.13,0-2.25,0-3.38,0-.71,0-1-.42-1.34-.9s.2-.67.4-1a1.66,1.66,0,0,0,.43-1c0-1.39-.06-2.78-.09-4.17,0-.18.1-.44-.14-.5s-.25.24-.31.39q-1,3.1-2,6.2c-.16.5-.25,1-1,1a.72.72,0,0,1-.73-.53c-.79-2.15-1.6-4.3-2.41-6.45-.12-.32-.18-.86-.54-.8s-.17.58-.15.89c0,.93,0,1.87.07,2.8a5.11,5.11,0,0,0,1.23,3.13A1.88,1.88,0,0,1,103.27,191.34Z" style="fill:#b7171d"/><path d="M155.1,185c.33-.87.65-1.71,1-2.56.4-1.1.74-2.22,1.18-3.31a1.37,1.37,0,0,0-.35-1.84c-.17-.13-.47-.31-.34-.57s.43-.1.66-.11c1.36,0,2.73.06,4.1-.07.59-.06.85.36,1.08.78s-.06.46-.28.56a1.4,1.4,0,0,0-.81,1.51q0,4.49,0,9c0,.77.61,1.09.94,1.62s.9.71.74,1-.86.15-1.32.16c-1.08,0-2.16,0-3.24,0-.73,0-1-.48-1.35-.91-.2-.24.06-.41.22-.52a2.24,2.24,0,0,0,.85-2.2c-.06-1.05,0-2.11,0-3.16,0-.24.14-.64-.18-.69s-.37.38-.46.63c-.57,1.67-1.11,3.36-1.66,5-.14.43-.32.85-.43,1.29s-.35.5-.73.52a.66.66,0,0,1-.76-.48q-1.18-3.2-2.39-6.38c-.11-.3-.13-.86-.53-.78s-.16.59-.17.9c0,.65.07,1.3,0,1.94a5.81,5.81,0,0,0,1.25,4.16c.1.14.33.27.21.49s-.34.13-.52.13h-4.24a.91.91,0,0,1-.67-.18c-.42-.38-.41-.69.06-1a9,9,0,0,0,1-.67,2.55,2.55,0,0,0,.89-2c0-2.68,0-5.37.05-8.05a2.13,2.13,0,0,0-.87-2,4,4,0,0,1-.53-.55,2.21,2.21,0,0,1,1-.16h4a1.66,1.66,0,0,1,.57,0,1.08,1.08,0,0,1,.7.67c.08.31-.28.43-.48.55-.56.31-.6.7-.4,1.26.62,1.75,1.2,3.52,1.8,5.29A1,1,0,0,0,155.1,185Z" style="fill:#b7171d"/><path d="M194.57,183.68c0-1.37,0-2.73,0-4.1,0-.66,0-1.23-.78-1.49-.37-.13-.47-.31,0-.55a10.71,10.71,0,0,1,8.61-.84,3.74,3.74,0,0,1,2.79,3.81,3.48,3.48,0,0,1-1.91,2.86c-.66.38-.72.7-.35,1.34a27.09,27.09,0,0,1,1.44,3,9.28,9.28,0,0,0,2.25,2.84c.16.16.46.31.32.57s-.4.07-.6.07c-1.39,0-2.78,0-4.17,0a1.27,1.27,0,0,1-1.05-.49c-.32-.38-.43-.74,0-1.11s.37-.75.13-1.21c-.53-1-1.05-2-1.5-3-.25-.58-.65-.37-1-.32s-.85.06-.85.66c0,1,0,2,0,2.95,0,.77.77,1.17,1.12,1.79.12.2.46.35.35.58s-.48.13-.73.14c-1.34,0-2.69,0-4,0-.68,0-.94-.41-1.2-.85s.21-.63.47-.82a2,2,0,0,0,.81-1.86c-.06-1.32,0-2.64,0-4Zm3.23-3h0c0,.57,0,1.15,0,1.72,0,.42.14.64.6.52a5.19,5.19,0,0,0,2.24-1.06,2,2,0,0,0,.85-2,2.79,2.79,0,0,0-3.5-1.42c-.23.13-.22.36-.22.57C197.79,179.56,197.79,180.13,197.79,180.71Z" style="fill:#b7171d"/><path d="M77,191.33c-1.89,0-3.74,0-5.58,0-.71,0-.89-.56-1.23-1-.11-.13,0-.27.14-.34,2.09-1,2.75-3.08,3.52-5s1.58-4.2,2.45-6.27A1.46,1.46,0,0,0,75.9,177c-.13-.15-.39-.3-.25-.54s.35-.09.54-.09h4.6a1.26,1.26,0,0,1,.95.4c.15.25-.28.51-.48.72a1.2,1.2,0,0,0-.3,1.45c1.2,3.15,2.37,6.31,3.54,9.47.37,1,1.29,1.51,1.89,2.3.12.16.43.27.34.5s-.38.11-.58.12c-1.58,0-3.17,0-4.75.06a1.84,1.84,0,0,1-1.54-.88c-.21-.24,0-.4.15-.52,1.1-.65,1.15-1.51.61-2.59-.37-.74-.34-1.82-.95-2.27s-1.63-.06-2.46-.15-1.08.26-1.19,1a7.86,7.86,0,0,1-.35,1.09,3.63,3.63,0,0,0,1,3.62A1,1,0,0,1,77,191.33ZM78,179.75c-.38,1-.69,1.83-1,2.65s-.21.85.63.85h1.15c.32,0,.56-.16.43-.48A16.75,16.75,0,0,0,78,179.75Z" style="fill:#b7171d"/><path d="M178.41,176.64h11a.79.79,0,0,1,.76.54.66.66,0,0,1-.14.79,7.39,7.39,0,0,0-1.25,2c-.25.63-.57.57-1,.15-.15-.16-.29-.32-.44-.48a4.39,4.39,0,0,0-3.75-1c-.38,0-.38.3-.39.57,0,.79,0,1.58,0,2.37,0,.32-.1.76.36.82s1,.23,1.32-.28c.2-.3.43-.58.62-.88s.29-.45.62-.34a.69.69,0,0,1,.56.66c0,1.15,0,2.3,0,3.45,0,.15,0,.35-.16.36a.6.6,0,0,1-.42-.23,2.34,2.34,0,0,0-2.26-.78c-.45,0-.66.16-.66.63q0,1.8,0,3.6c0,.48.16.65.67.67,1.61.06,3-.29,3.82-1.84.48-.88,1.1-.95,1.67-.1a22.33,22.33,0,0,0,2,2.68c.31.34-.13,1.17-.64,1.25a4.47,4.47,0,0,1-.72,0h-10a1.42,1.42,0,0,1-.77-.12c-1-.56-1-1.05-.1-1.68a1.59,1.59,0,0,0,.73-1.5c0-3,0-5.95,0-8.92a1.59,1.59,0,0,0-.8-1.61A1.23,1.23,0,0,1,178.41,176.64Z" style="fill:#b7171d"/><path d="M165,176.64h3.94c1.29,0,2.59,0,3.88,0a4.21,4.21,0,0,1,3.94,4.3,3.86,3.86,0,0,1-2.94,3.7,15.44,15.44,0,0,1-3.71.31c-.5,0-.69.15-.67.66,0,1,0,2,0,3,0,.74.63,1.1,1,1.63.17.28.63.5.51.79s-.64.17-1,.18c-1.25,0-2.5,0-3.74,0-.7,0-1-.41-1.41-.83-.21-.24,0-.41.18-.51,1.09-.58,1.23-1.51,1.2-2.65-.07-2.71-.05-5.42,0-8.13a2,2,0,0,0-.78-1.88A1.13,1.13,0,0,1,165,176.64Zm5.86,2.16c-1.4,0-1.4,0-1.4,1.1,0,.5,0,1,0,1.51.05,1.68-.4,1.67,1.71,1.43a2.07,2.07,0,0,0,1.62-3.19A2.26,2.26,0,0,0,170.87,178.8Z" style="fill:#b7171d"/><path d="M140.09,176.58a.55.55,0,0,1,.48-.13c1.22,0,2.44,0,3.67,0a.86.86,0,0,1,.87.59c.22.46-.17.58-.38.71a2.24,2.24,0,0,0-1,2.23c.07,2.3,0,4.6,0,6.9,0,2.69-1.07,4-3.72,4.39a5.66,5.66,0,0,1-4.85-1.19,4.37,4.37,0,0,1-1.28-3c-.18-1.65-.05-3.3-.08-5,0-.86-.05-1.73,0-2.59a2.33,2.33,0,0,0-1.07-2.51c-.13-.08-.21-.25-.31-.36.12-.28.35-.17.52-.17h4a1,1,0,0,1,1,.47c.22.43-.17.61-.4.81A1.55,1.55,0,0,0,137,179c0,2.52,0,5,0,7.55a2.57,2.57,0,0,0,1,2.22c1.42,1.06,3.22.17,3.53-1.74a7.78,7.78,0,0,0,.08-1.22c0-2.16-.06-4.32,0-6.47a2.28,2.28,0,0,0-1-2.13A1.2,1.2,0,0,1,140.09,176.58Z" style="fill:#b7171d"/><path d="M62.08,191.37c-1.68,0-3.36,0-5,0-.69,0-.91-.43-1.17-.88-.15-.26.1-.43.26-.52a2.48,2.48,0,0,0,1.11-2.57c-.06-2.85,0-5.71,0-8.56a1.71,1.71,0,0,0-.7-1.54,3.12,3.12,0,0,1-.47-.44c-.09-.1-.21-.25-.19-.36s.27-.16.43-.16l3.59,0c.19,0,.38,0,.57,0a.94.94,0,0,1,1.11.57c.21.51-.17.72-.43.95a1.42,1.42,0,0,0-.47,1.2c0,3.12,0,6.23,0,9.35,0,.87.14,1,1,.92,1.52-.19,2.65-.4,3.19-2.61.09-.37.2-.41.59-.27a3.5,3.5,0,0,1,1.78,1.95,4.53,4.53,0,0,0,.65,1,1.13,1.13,0,0,1,.2,1.47c-.27.56-.71.49-1.15.49H62.08Z" style="fill:#b7171d"/><path d="M88.43,176.41h4.93a1,1,0,0,1,.92.6c.23.4-.2.55-.41.72a1.68,1.68,0,0,0-.6,1.45q0,4.49,0,9a2,2,0,0,0,.56,1.55c.46.46.84,1,1.37,1.66-1.79,0-3.41,0-5,0a1.65,1.65,0,0,1-1.5-.74c-.21-.27-.24-.46.06-.63,1.25-.69,1.29-1.81,1.26-3.06-.07-2.63-.05-5.27,0-7.9a2,2,0,0,0-.87-1.82A1.75,1.75,0,0,1,88.43,176.41Z" style="fill:#b7171d"/><path d="M208.32,179.12c0-1.1.14-1.28,1.08-1.1.47.09.85.38.56.9-.19.34,0,.53.07.79s.12.35-.08.45-.29,0-.35-.23-.21-.55-.5-.54-.23.36-.29.58-.1.22-.24.23-.24-.14-.24-.29S208.32,179.38,208.32,179.12Z" style="fill:#b7171d"/></svg>