<?xml version="1.0" encoding="utf-8"?>
<!-- Generator: Adobe Illustrator 21.1.0, SVG Export Plug-In . SVG Version: 6.00 Build 0)  -->
<svg version="1.1" id="Layer_1" xmlns="http://www.w3.org/2000/svg" xmlns:xlink="http://www.w3.org/1999/xlink" x="0px" y="0px"
	 viewBox="0 0 33.1 27.5" style="enable-background:new 0 0 33.1 27.5;" xml:space="preserve">
<style type="text/css">
	.st0{fill:#F9E8A0;}
	.st1{fill:none;}
	.st2{fill:#414042;}
	.st3{fill:#FF0000;}
	.st4{fill:#CE593F;}
	.st5{fill:#EF8829;}
	.st6{clip-path:url(#SVGID_2_);}
	.st7{fill:#3F2D20;}
	.st8{fill:#F8E79F;}
	.st9{clip-path:url(#SVGID_4_);}
	.st10{clip-path:url(#SVGID_6_);}
	.st11{fill:#F7B239;}
	.st12{fill:#E09B2D;}
	.st13{fill:#9AD14B;}
	.st14{fill:#F95428;}
	.st15{fill:#E54728;}
	.st16{fill:#B27214;}
	.st17{fill:#F4DE3B;}
	.st18{fill:#90BC42;}
	.st19{fill:#FFFFFF;}
	.st20{clip-path:url(#SVGID_8_);fill:#FFFFFF;}
	.st21{clip-path:url(#SVGID_8_);fill:#333333;}
	.st22{fill:#CC722E;}
	.st23{fill:#B25719;}
	.st24{fill:#FFA91F;}
	.st25{fill:#8C5549;}
	.st26{opacity:0.15;}
	.st27{fill:#202020;}
	.st28{fill:#A4A4A5;}
	.st29{fill:#DCE0E2;}
	.st30{fill:#354251;}
	.st31{fill:#9DB6CA;}
	.st32{fill:#9ACFDF;}
	.st33{clip-path:url(#SVGID_10_);}
	.st34{clip-path:url(#SVGID_12_);}
	.st35{clip-path:url(#SVGID_14_);}
	.st36{fill:#FF7424;}
	.st37{fill:#FF4C1C;}
	.st38{fill:#DDA558;}
	.st39{fill:#D4F8F5;}
	.st40{opacity:0.1;fill:#54858D;enable-background:new    ;}
	.st41{fill:#FFD755;}
	.st42{fill:#FFF6C4;}
	.st43{fill:#6DA8D6;}
	.st44{fill:#FFDA44;}
	.st45{fill:#3FC378;}
	.st46{fill:#C9EEAE;}
	.st47{fill:#E21220;}
	.st48{fill:#FF505D;}
	.st49{fill:#FF7C80;}
	.st50{fill:#93298D;}
	.st51{fill:#FFF5CC;}
	.st52{fill:#0DD9DD;}
	.st53{fill:#02A6AA;}
	.st54{fill:#FDD44B;}
	.st55{fill:#84BD93;}
	.st56{clip-path:url(#SVGID_16_);fill:#EF8829;}
	.st57{clip-path:url(#SVGID_16_);fill:#3F2D20;}
	.st58{fill:none;stroke:#414042;stroke-width:0.75;stroke-miterlimit:10;}
	.st59{fill:#F6F6F6;}
	.st60{fill:#FF1D25;}
	.st61{fill:#FBB03B;}
	.st62{fill:#C7B299;}
	.st63{fill:#D2C1AD;}
	.st64{fill:#998675;}
	.st65{fill:#FF4A51;}
	.st66{fill:#B20209;}
	.st67{fill:#F0C891;}
	.st68{fill:none;stroke:#464646;stroke-width:16;stroke-linecap:round;stroke-linejoin:round;stroke-miterlimit:10;}
	.st69{clip-path:url(#SVGID_18_);}
	.st70{clip-path:url(#SVGID_20_);}
	.st71{clip-path:url(#SVGID_22_);}
	.st72{clip-path:url(#SVGID_24_);}
	.st73{clip-path:url(#SVGID_26_);}
	.st74{clip-path:url(#SVGID_28_);}
</style>
<g>
	<g>
		<path class="st0" d="M6.4,24.8c0,0-2.7,0.3-2.7-2.1v-2c0,0-0.7-0.3-0.7-1.3c0,0,0-0.8,0.6-1.1c-0.4-0.2-0.8-1.1,0-1.3
			c0-0.4,0.8-7.2,8.7-6.1h4c0,0,5.1,0.5,5.6,6.1c0,0,1.3,0.3,0.2,1.3c0.5,0.3,1.3,1.9-0.1,2.5c-0.1,0.6,0,1.9,0,1.9
			s-0.2,2.1-2.1,2.3L6.4,24.8z"/>
		<path class="st3" d="M3.9,20.8c0,0-0.9-0.6-0.9-1.7s1.4-0.9,1.8-0.6c0.4,0.2,1.9,0.9,3.4,0.1c1.5-0.7,2-0.7,3,0
			c1,0.7,2.5,0.2,3.3-0.2c0.8-0.4,1.8-0.4,2.7,0.1c0.8,0.5,2.3,0.5,3.3-0.1c1-0.6,1.9,0.4,1.9,0.7c0,0.3,0.2,1.5-0.7,1.7
			c-1,0-8.9,0.1-8.9,0.1L9.3,23l-3.8-2.2L3.9,20.8z"/>
		<g>
			<path class="st2" d="M22.5,18.3c0.2-0.2,0.4-0.4,0.4-0.7c0-0.4-0.3-0.7-0.6-0.8c-0.1-3.4-2.9-6.1-6.4-6.1H9.8
				c-3.4,0-6.2,2.7-6.4,6.1c-0.3,0.1-0.6,0.5-0.6,0.8c0,0.3,0.1,0.5,0.3,0.7c-0.3,0.3-0.5,0.7-0.5,1.2c0,0.6,0.3,1.1,0.8,1.4v1.9
				c0,1.3,1.1,2.4,2.4,2.4h14c1.3,0,2.4-1.1,2.4-2.4v-1.9c0.5-0.3,0.8-0.8,0.8-1.4C23.1,19,22.9,18.6,22.5,18.3L22.5,18.3z
				 M3.7,17.3h2.5v-0.6H4c0.2-3,2.7-5.5,5.7-5.5h6.2c3.1,0,5.6,2.4,5.7,5.5H7v0.6H22c0.2,0,0.3,0.1,0.3,0.3s-0.1,0.3-0.3,0.3
				c-0.1,0-0.2,0-0.3,0l0,0l0,0c-0.6,0-1,0.2-1.3,0.4c-0.4,0.2-0.7,0.3-1.4,0.3c-0.1,0-0.2,0-0.2,0c-0.5,0-0.8-0.2-1.1-0.3
				c-0.4-0.2-0.8-0.4-1.7-0.4c-0.2,0-0.3,0-0.4,0c-0.6,0.1-0.9,0.2-1.2,0.4c-0.1,0-0.2,0.1-0.3,0.1c-0.3,0.1-0.6,0.2-1.1,0.2
				c0,0,0,0,0,0l0,0l0,0c0,0,0,0-0.1,0c0,0,0,0-0.1,0c0,0,0,0,0,0c-0.3,0-0.5,0-0.7-0.1c-0.2-0.1-0.4-0.1-0.6-0.2
				c-0.4-0.2-0.8-0.4-1.7-0.4c-0.8,0-1.3,0.2-1.7,0.4c-0.3,0.2-0.6,0.3-1.1,0.3c-0.1,0-0.2,0-0.2,0c-0.7,0-1-0.2-1.4-0.3
				C5,18.1,4.7,17.9,4,17.9l0,0h0c-0.1,0-0.2,0-0.3,0c-0.2,0-0.3-0.1-0.3-0.3C3.4,17.4,3.5,17.3,3.7,17.3L3.7,17.3z M21.7,21.8h-6.5
				v0.6h6.5v0.3c0,1-0.8,1.8-1.8,1.8h-14c-1,0-1.8-0.8-1.8-1.8v-1.6h0.9l4.3,2.3l4.3-2.3h8.1V21.8z M6.2,21.1h6.1l-3,1.6L6.2,21.1z
				 M21.4,20.5h-6.7v0H4.3c-0.6,0-1-0.5-1-1c0-0.5,0.3-0.9,0.8-1c0.5,0,0.7,0.2,1,0.3c0.4,0.2,0.8,0.4,1.5,0.4c0,0,0.1,0,0.2,0
				c0.8,0,1.3-0.2,1.7-0.4c0.4-0.2,0.7-0.3,1.4-0.3c0.2,0,0.3,0,0.5,0c0.1,0,0.1,0,0.2,0c0,0,0.1,0,0.1,0c0.3,0.1,0.4,0.2,0.7,0.3
				c0.3,0.1,0.5,0.3,0.9,0.3c0.1,0,0.1,0,0.2,0c0,0,0.1,0,0.1,0c0.1,0,0.3,0,0.4,0h0c0.2,0,0.3,0,0.5,0c0.5-0.1,0.8-0.2,1.1-0.4
				c0,0,0,0,0,0c0.4-0.2,0.7-0.3,1.4-0.3c0.2,0,0.3,0,0.5,0c0.1,0,0.1,0,0.2,0c0,0,0.1,0,0.1,0c0.3,0.1,0.4,0.2,0.7,0.3
				c0.3,0.1,0.5,0.3,0.9,0.3c0.1,0,0.1,0,0.2,0c0,0,0.1,0,0.1,0c0.1,0,0.3,0,0.4,0c0.1,0,0.1,0,0.2,0c0.7,0,1.1-0.2,1.5-0.4
				c0.3-0.1,0.6-0.3,1-0.3c0.5,0.1,0.8,0.5,0.8,1C22.4,20,22,20.5,21.4,20.5L21.4,20.5z M21.4,20.5"/>
			<rect x="9.4" y="11.9" class="st2" width="0.9" height="0.6"/>
			<rect x="10.9" y="13.3" class="st2" width="0.9" height="0.6"/>
			<rect x="7.9" y="13.3" class="st2" width="0.9" height="0.6"/>
			<rect x="16.9" y="13.3" class="st2" width="0.9" height="0.6"/>
			<rect x="13.9" y="13.3" class="st2" width="0.9" height="0.6"/>
			<rect x="12.4" y="11.9" class="st2" width="0.9" height="0.6"/>
			<rect x="15.4" y="11.9" class="st2" width="0.9" height="0.6"/>
		</g>
	</g>
	<g>
		<defs>
			<path id="SVGID_27_" d="M30,3.9H17.1v4.4V10c3,0,6.2,3.5,6.4,6.8c0.3,0.1,0.5,0.4,0.5,0.8c0,0.3-0.1,0.5-0.3,0.7
				c0.3,0.3,0.5,0.7,0.5,1.2c0,0.1,0,0.2,0,0.3H30V3.9z"/>
		</defs>
		<clipPath id="SVGID_2_">
			<use xlink:href="#SVGID_27_"  style="overflow:visible;"/>
		</clipPath>
		<g class="st6">
			<g>
				<path class="st0" d="M23.4,6.1c-1.1,0-2.1,0.3-3,0.8h0.8c0.5,0,1,0.4,1,1c0,0.3-0.2,0.7-0.5,0.8c0.1,0,0.1,0.1,0.2,0.1
					c0.2,0.2,0.3,0.4,0.3,0.7c0,0.4-0.2,0.7-0.5,0.8c0.3,0.2,0.5,0.5,0.5,0.8c0,0.4-0.2,0.7-0.5,0.8c0.3,0.2,0.5,0.5,0.5,0.8
					c0,0.4-0.2,0.7-0.5,0.8c0.1,0,0.1,0.1,0.2,0.1c0.2,0.2,0.3,0.4,0.3,0.7c0,0.4-0.2,0.7-0.5,0.8c0.3,0.2,0.5,0.5,0.5,0.8
					c0,0.5-0.4,1-1,1H20c1,0.7,2.2,1.1,3.4,1.1c3.4,0,6.1-2.7,6.1-6.1S26.8,6.1,23.4,6.1z"/>
				<g>
					<polygon class="st3" points="24.7,4.7 22.1,4.7 22.1,5.3 22.9,5.3 22.9,6 23.9,6 23.9,5.3 24.7,5.3 					"/>
					
						<rect x="28.4" y="6.4" transform="matrix(0.7071 -0.7071 0.7071 0.7071 3.6855 22.3853)" class="st3" width="0.9" height="0.8"/>
					<path class="st3" d="M23,12.5c0,0-0.1-0.2,0.2-0.5s2.7-1.9,2.7-1.9l-2.1,3C23.8,13.1,23.1,13.2,23,12.5z"/>
				</g>
				<g>
					<path class="st2" d="M23.6,13.4c0.2,0,0.5-0.1,0.6-0.3l2.2-3.1c0.1-0.1,0.1-0.2,0-0.3c-0.1-0.1-0.2-0.1-0.3,0L23,11.8
						c-0.4,0.3-0.5,0.8-0.2,1.2C23,13.2,23.2,13.4,23.6,13.4L23.6,13.4z M23.2,12.5c0-0.1,0.1-0.2,0.2-0.3l1.9-1.4l-1.3,1.9
						c-0.1,0.2-0.3,0.2-0.5,0.1C23.2,12.8,23.1,12.6,23.2,12.5L23.2,12.5z"/>
					<path class="st2" d="M28.9,9L28.9,9L28.9,9c-0.2-0.4-0.5-0.8-0.8-1.1l0.5-0.5l0.3,0.3l1-1l-1-1l-1,1L28.2,7l-0.5,0.5
						c-0.3-0.3-0.7-0.6-1.1-0.8l0,0l0,0C25.8,6.3,25,6,24.1,5.9V5.6h0.4c0.3,0,0.6-0.3,0.6-0.6c0-0.3-0.3-0.6-0.6-0.6h-2.1
						c-0.3,0-0.6,0.3-0.6,0.6c0,0.3,0.3,0.6,0.6,0.6h0.4v0.3c-0.3,0-0.5,0.1-0.8,0.1c-0.1,0-0.2,0.2-0.2,0.3c0,0.1,0.2,0.2,0.3,0.2
						c0.2,0,0.4-0.1,0.7-0.1h0.3h0.2v0.4c0,0.1,0.1,0.2,0.2,0.2c0.1,0,0.2-0.1,0.2-0.2V6.3c0.9,0,1.7,0.3,2.5,0.7l-0.2,0.4
						c-0.1,0.1,0,0.3,0.1,0.3c0,0,0.1,0,0.1,0c0.1,0,0.2,0,0.2-0.1l0.2-0.4c0.7,0.5,1.4,1.1,1.8,1.8l-0.4,0.2
						c-0.1,0.1-0.2,0.2-0.1,0.3c0,0.1,0.1,0.1,0.2,0.1c0,0,0.1,0,0.1,0l0.4-0.2c0.4,0.8,0.6,1.6,0.7,2.5h-0.5
						c-0.1,0-0.2,0.1-0.2,0.2c0,0.1,0.1,0.2,0.2,0.2h0h0.5c0,0.9-0.3,1.7-0.7,2.5l-0.4-0.2c-0.1-0.1-0.3,0-0.3,0.1
						c-0.1,0.1,0,0.3,0.1,0.3l0,0l0.4,0.2c-0.5,0.7-1.1,1.4-1.8,1.8l-0.2-0.4c-0.1-0.1-0.2-0.2-0.3-0.1c-0.1,0.1-0.2,0.2-0.1,0.3
						l0.2,0.4c-0.8,0.4-1.6,0.6-2.5,0.7v-0.5c0-0.1-0.1-0.2-0.2-0.2c-0.1,0-0.2,0.1-0.2,0.2v0V18c-0.4,0-0.8-0.1-1.1-0.1
						c-0.1,0-0.3,0-0.3,0.2c0,0.1,0,0.3,0.2,0.3c0.5,0.1,0.9,0.2,1.4,0.2h0c1.1,0,2.2-0.3,3.1-0.8l0,0l0,0c0.9-0.6,1.7-1.3,2.3-2.3
						l0,0l0,0C29.9,13.4,29.9,11,28.9,9L28.9,9z M28.9,6.4l0.3,0.3L28.9,7l-0.3-0.3L28.9,6.4z M23.2,5.9V5.2h-0.8
						c-0.1,0-0.1-0.1-0.1-0.1c0-0.1,0.1-0.1,0.1-0.1h2.1c0.1,0,0.1,0.1,0.1,0.1c0,0.1-0.1,0.1-0.1,0.1h-0.8v0.7H23.2L23.2,5.9z
						 M21.3,7.7h-1.2c-0.1,0-0.2,0.1-0.2,0.2c0,0.1,0.1,0.2,0.2,0.2h1.2c0.1,0,0.2-0.1,0.2-0.2C21.5,7.8,21.4,7.7,21.3,7.7z
						 M21.3,9.3h-2.4c-0.1,0-0.2,0.1-0.2,0.2c0,0.1,0.1,0.2,0.2,0.2h0h2.4c0.1,0,0.2-0.1,0.2-0.2C21.5,9.5,21.4,9.4,21.3,9.3
						C21.3,9.3,21.3,9.3,21.3,9.3z M21.3,11h-3.5c-0.1,0-0.2,0.1-0.2,0.2s0.1,0.2,0.2,0.2h3.5c0.1,0,0.2-0.1,0.2-0.2
						S21.4,11,21.3,11z M21.3,12.7h-4.5c-0.1,0-0.2,0.1-0.2,0.2s0.1,0.2,0.2,0.2h4.5c0.1,0,0.2-0.1,0.2-0.2S21.4,12.7,21.3,12.7z
						 M21.3,14.3h-3.1c-0.1,0-0.2,0.1-0.2,0.2c0,0.1,0.1,0.2,0.2,0.2c0,0,0,0,0,0h3.1c0.1,0,0.2-0.1,0.2-0.2
						C21.5,14.4,21.4,14.3,21.3,14.3C21.3,14.3,21.3,14.3,21.3,14.3z M21.3,16h-1.6c-0.1,0-0.2,0.1-0.2,0.2c0,0.1,0.1,0.2,0.2,0.2
						h1.6c0.1,0,0.2-0.1,0.2-0.2C21.5,16.1,21.4,16,21.3,16z"/>
				</g>
			</g>
		</g>
	</g>
</g>
<g>
	<path class="st2" d="M0.4,27.5c-0.2,0-0.3-0.1-0.3-0.3v-25c0-0.2,0.1-0.3,0.3-0.3h16.5c0.2,0,0.3,0.1,0.3,0.3s-0.1,0.3-0.3,0.3H0.8
		l0,24.3l31.6,0l0-24.3l-10.5,0c-0.2,0-0.3-0.1-0.3-0.3s0.1-0.3,0.3-0.3h10.9C32.9,1.9,33,2,33,2.2v25c0,0.2-0.1,0.3-0.3,0.3H0.4z"
		/>
	<path class="st2" d="M14.5,4.3c-0.1,0-0.2-0.1-0.3-0.2c-0.1-0.2,0-0.4,0.1-0.4l2.6-1.5l-2.6-1.6c-0.2-0.1-0.2-0.3-0.1-0.4
		C14.3,0.1,14.4,0,14.5,0c0.1,0,0.1,0,0.2,0l3.1,1.8C17.9,2,18,2.1,18,2.2s-0.1,0.2-0.2,0.3l-3.1,1.8C14.6,4.3,14.6,4.3,14.5,4.3z"
		/>
</g>
</svg>
