<svg xmlns="http://www.w3.org/2000/svg" viewBox="0 0 250 250"><title>CR</title><path d="M208.67,92.5H176.55a60.95,60.95,0,0,0-103.1,0H41.33v65H73.45a60.95,60.95,0,0,0,103.1,0h32.12Z" style="fill:#f0ea94"/><path d="M125,187.27a62,62,0,0,1-52.28-28.43H40V91.16H72.72a62.28,62.28,0,0,1,104.56,0H210v67.67H177.28A62,62,0,0,1,125,187.27Zm-82.33-31.1H74.19l.39.62a59.61,59.61,0,0,0,100.84,0l.39-.62h31.52V93.83H175.81l-.39-.62a59.61,59.61,0,0,0-100.84,0l-.39.62H42.67Z" style="fill:#4835ae"/><circle cx="125" cy="125" r="39.76" style="fill:#f4cb35"/><polygon points="125.33 107.62 122.63 107.62 122.63 105.51 149.51 105.51 149.51 107.62 146.77 107.62 158.76 122.98 170.79 107.53 168.04 107.53 167.98 105.51 195.19 105.51 195.19 107.4 192.64 107.4 192.75 142.16 195.19 142.16 195.19 144.49 178.14 144.49 178.14 142.38 180 142.38 180.09 114.76 158.91 142.75 137.44 114.32 137.59 142.38 139.73 142.46 139.66 144.49 122.63 144.49 122.63 141.94 124.56 141.86 125.33 107.62" style="fill:#3774b5"/><path d="M195.69,145h-18v-3.11h1.86l.08-25.62-20.67,27.32-21-27.76.14,26.08,2.17.08-.11,3h-18v-3.54l1.94-.07.75-33.26h-2.69V105H150v3.11h-2.21l11,14,11-14.13h-2.21l-.08-3h28.22v2.89h-2.55l.11,33.76h2.45Zm-17-1h16v-1.33h-2.44l-.12-35.76h2.56V106H168.5l0,1h3.28l-13,16.76-13-16.68H149V106H123.13v1.11h2.71l-.8,35.23-1.91.07V144h16l0-1.05-2.13-.07-.16-30,22,29.11,21.68-28.65-.09,29.61h-1.86Z" style="fill:#443690"/><path d="M54.81,105.23h45.76s20.58-.07,20.58,18.07S102,144.21,102,144.21l-47.16.56a5,5,0,0,0,2.37-3.85c.07-2.52,0-33.84,0-33.84S57.1,106.19,54.81,105.23Zm19.88,8.33v21.21H96.46s8.33.22,8.44-9.77-7-11.44-7-11.44Z" style="fill:#db2210"/><path d="M90.29,97.65,81.8,89.79l.8-.82c.67-.68,6.55-6.65,7.28-7.3a5,5,0,0,1,3.35-.87A6.17,6.17,0,0,1,97.56,83c3.55,3.93,1.2,6.62,1.1,6.73l-.06.06ZM85,89.72l5.28,4.88L97,88.18c.14-.19.93-1.48-1.12-3.75a3.91,3.91,0,0,0-4.54-1.08C90.9,83.75,87.55,87.12,85,89.72Z" style="fill:#3774b5"/><path d="M106.5,86.35h-.1a1.11,1.11,0,0,1-1-1.2l1.11-12.81a1.11,1.11,0,0,1,1.88-.7l9.26,9a1.11,1.11,0,0,1-1.55,1.6l-7.58-7.34-.91,10.48A1.11,1.11,0,0,1,106.5,86.35Z" style="fill:#3774b5"/><rect x="106.39" y="78.24" width="7.03" height="2.22" transform="translate(-24.92 65.27) rotate(-29.87)" style="fill:#3774b5"/><path d="M126.71,82.35a1.11,1.11,0,0,1-1.11-1.11V70.14a1.11,1.11,0,0,1,2.22,0V81.24A1.11,1.11,0,0,1,126.71,82.35Z" style="fill:#3774b5"/><path d="M137.74,83.76a1.11,1.11,0,0,1-1-1.67l5.7-9.7a1.11,1.11,0,0,1,1.6-.34l6.81,4.85a4.09,4.09,0,0,1,1.59,2.73,3.49,3.49,0,0,1-1.12,2.75,3.45,3.45,0,0,1-2.67,1.16,4.37,4.37,0,0,1-2.85-1.47l-4.53-3.31-2.62,4.45A1.11,1.11,0,0,1,137.74,83.76Zm4.71-6.92,4.81,3.51a1.11,1.11,0,0,1,.2.19,2.27,2.27,0,0,0,1.34.77,1.24,1.24,0,0,0,1-.49c.53-.55.51-.91.5-1a1.91,1.91,0,0,0-.68-1.11l-5.8-4.13Z" style="fill:#3774b5"/><path d="M147,89.34a1.11,1.11,0,0,1-1.1-1l-.67-6.55a1.11,1.11,0,1,1,2.21-.22l.67,6.55a1.11,1.11,0,0,1-1,1.22Z" style="fill:#3774b5"/><path d="M167.09,92.09H167l-6.89-.81a1.11,1.11,0,0,1-1-1.1V82.65a1.11,1.11,0,0,1,2.22,0v6.54l5.9.69a1.11,1.11,0,0,1-.13,2.21Z" style="fill:#3774b5"/><path d="M155,96.59a1.11,1.11,0,0,1-.8-1.88l5-5.19a1.11,1.11,0,1,1,1.6,1.54l-5,5.19A1.11,1.11,0,0,1,155,96.59Z" style="fill:#3774b5"/><path d="M98.79,176.32a1.11,1.11,0,0,1-.94-1.7l3.05-4.9-5.61,2.09a1.11,1.11,0,0,1-1.49-1.13l.49-6.33-4.05,4.16A1.11,1.11,0,0,1,88.64,167l6.19-6.36a1.11,1.11,0,0,1,1.9.86l-.59,7.65,7-2.62a1.11,1.11,0,0,1,1.33,1.63l-4.78,7.66A1.11,1.11,0,0,1,98.79,176.32Z" style="fill:#3774b5"/><path d="M121.45,181.57a1.11,1.11,0,0,1-1.09-.91l-1.71-9.12-6.48,8a1.11,1.11,0,1,1-1.72-1.4l8-9.85a1.11,1.11,0,0,1,2,.5l2.15,11.48a1.11,1.11,0,0,1-.89,1.3Z" style="fill:#3774b5"/><path d="M120.56,176.79h-.18l-5.91-1a1.11,1.11,0,1,1,.36-2.19l5.91,1a1.11,1.11,0,0,1-.18,2.21Z" style="fill:#3774b5"/><path d="M136.56,181.2a1.11,1.11,0,0,1-1.05-.75l-3.33-9.77a1.11,1.11,0,0,1,.78-1.43l7.92-2c1.36-.31,4-.28,4.68,2.06a2.84,2.84,0,0,1-.27,2.28,3.59,3.59,0,0,1-2.13,1.47L136,175l1.6,4.68a1.11,1.11,0,0,1-1.05,1.47Zm-1.89-10.1.63,1.85,7.27-2.05.07,0a1.39,1.39,0,0,0,.75-.47.63.63,0,0,0,0-.54c-.23-.84-2-.49-2-.48Z" style="fill:#3774b5"/><path d="M146.3,178.37a1.11,1.11,0,0,1-.71-.26l-5.05-4.22a1.11,1.11,0,1,1,1.42-1.7l5.05,4.22a1.11,1.11,0,0,1-.71,2Z" style="fill:#3774b5"/><path d="M149.07,166.66a1.11,1.11,0,0,1-.77-1.91l9.69-9.33a1.11,1.11,0,1,1,1.54,1.6l-9.69,9.33A1.11,1.11,0,0,1,149.07,166.66Z" style="fill:#3774b5"/><path d="M160.57,168.6a1.11,1.11,0,0,1-.77-.31l-6.3-6.05a1.11,1.11,0,0,1,1.54-1.6l6.3,6.05a1.11,1.11,0,0,1-.77,1.91Z" style="fill:#3774b5"/></svg>