<svg xmlns="http://www.w3.org/2000/svg" xmlns:xlink="http://www.w3.org/1999/xlink" viewBox="0 0 250 250"><defs><linearGradient id="a" x1="81.98" y1="186.44" x2="168.02" y2="63.56" gradientUnits="userSpaceOnUse"><stop offset="0" stop-color="#174074"/><stop offset="0.09" stop-color="#174377"/><stop offset="1" stop-color="#2395ca"/></linearGradient><radialGradient id="b" cx="125" cy="125" r="60.01" gradientUnits="userSpaceOnUse"><stop offset="0" stop-color="#f8a61b"/><stop offset="1" stop-color="#b22118"/></radialGradient></defs><title>Casual dining</title><path d="M191,177.6c0,.29.05.56.1.83s0,.3-.25.33-.3,0-.34-.26c-.11-.7-.23-1.39-.33-2.08,0-.15-.1-.34.15-.41a.38.38,0,0,1,.48.16c.27.41.56.82.88,1.29.14-.52.28-1,.37-1.4.06-.26.18-.41.44-.41s.23.23.26.41c.11.66.22,1.32.32,2,0,.19.07.36-.22.4s-.35-.1-.37-.34-.09-.49-.14-.76c-.33.21-.09.74-.52.86S191.36,177.72,191,177.6Z" style="fill:#231f20"/><path d="M189.3,178.87c0,.1-.14.15-.34.19s-.28-.1-.31-.28c-.08-.51-.19-1-.25-1.53,0-.28-.12-.38-.41-.31s-.46.13-.5-.23.26-.29.45-.32l1.36-.22c.18,0,.37-.1.41.2s-.1.35-.31.34c-.46,0-.43.26-.37.58C189.12,177.76,189.2,178.23,189.3,178.87Z" style="fill:#231f20"/><circle cx="125" cy="125" r="75" style="fill:url(#a)"/><circle cx="125" cy="125" r="65.08" style="fill:#fff"/><circle cx="125" cy="125" r="60.01" style="fill:url(#b)"/><path d="M123.1,180.66a62.18,62.18,0,0,0,12.36-1.57c2-.39,3.87-.94,5.78-1.5a67.48,67.48,0,0,0,9.13-3.45A87.39,87.39,0,0,0,161.44,168a64.34,64.34,0,0,0,5.53-4,.61.61,0,0,1,.44-.18l0,0a7,7,0,0,1-1.33,1.55,44.64,44.64,0,0,1-5,4.53,52.7,52.7,0,0,1-8.54,5.59,62.34,62.34,0,0,1-12.6,5,66.24,66.24,0,0,1-7.7,1.62c-1.7.25-3.41.4-5.13.51-2,.12-3.93.11-5.89.07a57.4,57.4,0,0,1-17.67-3.32,7.32,7.32,0,0,1,1.82.22c1.36.22,2.74.36,4.11.54a90.17,90.17,0,0,0,13,.54C122.71,180.74,122.92,180.81,123.1,180.66Z" style="fill:#da7349"/><ellipse cx="117.87" cy="88.21" rx="26.54" ry="21.67" transform="translate(-21.16 39.79) rotate(-17.61)" style="fill:#f7a547;opacity:0.5"/><path d="M176.6,129.69a15.86,15.86,0,0,1,.77,3.12,24.38,24.38,0,0,1,.05,4.92,7.74,7.74,0,0,1-2.48,5.16l-.2.16-.12.09-.25.11c-2.18,1.21-3.95.53-4.73-1.84a14.33,14.33,0,0,1-.57-4,1,1,0,0,1,.56-.42l1.83-.74c.64-.26.75-.2.8.51a6.36,6.36,0,0,0,.24,1.69c.15.41.35.79.9.72a1.82,1.82,0,0,0,1.52-1.79,14.13,14.13,0,0,0-.14-2.66,2.43,2.43,0,0,0-2.11-2.37c-.31-.06-.6-.18-.91-.27a4.5,4.5,0,0,1-3.2-2.84c-1.3-3.53-2-7.1-.49-10.77h0c.08,0,.1-.06.1-.13h0l.13-.22a3.38,3.38,0,0,1,4.78-1,7.54,7.54,0,0,1,2.15,2.76,15.5,15.5,0,0,1,.92,3.74.54.54,0,0,1-.29.6l-1.65.49c-.6.18-.69.12-.8-.51a6.56,6.56,0,0,0-.61-2.18c-.33-.6-.74-.81-1.25-.68a1.22,1.22,0,0,0-.9,1.24,9.39,9.39,0,0,0,.47,3.49,1.28,1.28,0,0,0,.86.88l1.24.4C174.6,127.73,176,128.18,176.6,129.69Z" style="fill:#f7f7f7"/><path d="M90.75,165.66a23.06,23.06,0,0,1-4.46.33H84.51a.53.53,0,0,1-.45-.34c-.92-2.11-1.77-4.25-2.57-6.41-.74-2-1.49-4-2.11-6.06-.41-1.37-.82-2.74-1.22-4.12s-.82-2.9-1.23-4.35c-.24-1-.48-2.07-.72-3.1-.08-.36-.21-.77.06-1.06a9,9,0,0,1,1.32-1.41,3.15,3.15,0,0,0,.08.77,140.72,140.72,0,0,0,4.3,15q1.56,4.51,3.45,8.9c.14.33.29.66.74.63,2.46-.15,5,.16,7.37-.68A5.76,5.76,0,0,1,90.75,165.66Z" style="fill:#aa2431"/><path d="M169.07,137.37a14.33,14.33,0,0,0,.57,4c.78,2.37,2.55,3,4.73,1.84l.25-.11c0,.48-.46.67-.66,1-.26,0-.37.23-.56.34a3.39,3.39,0,0,1-3.34.46.75.75,0,0,0-.22,0,8.63,8.63,0,0,1-1-1.05,9.08,9.08,0,0,1-1.18-4.77.43.43,0,0,1,.09-.31C168.19,138.36,168.5,137.74,169.07,137.37Z" style="fill:#aa2431"/><path d="M174.74,143.05l.2-.16C174.93,143,174.85,143,174.74,143.05Z" style="fill:#aa2431"/><path d="M167.16,163.31l.06,0,0,.06Z" style="fill:#da7349"/><path d="M167.17,163.33l-.11.11,0,0,.12-.11Z" style="fill:#da7349"/><path d="M173.4,139.13a17.55,17.55,0,0,0-.22-3.8,1.7,1.7,0,0,0-1.37-1.48,7.72,7.72,0,0,1-2.61-1,.57.57,0,0,0-.22,0,8.33,8.33,0,0,1-2.64-4.39,26.14,26.14,0,0,1-.63-5h0c.12-.05.12-.15.1-.26a2.31,2.31,0,0,0,.25-1.84c.15-.35.28-.72.46-1.06a4.23,4.23,0,0,1,1.58-1.85c-1.49,3.66-.81,7.24.49,10.77a4.5,4.5,0,0,0,3.2,2.84c.3.08.6.2.91.27a2.43,2.43,0,0,1,2.11,2.37,14.13,14.13,0,0,1,.14,2.66A1.82,1.82,0,0,1,173.4,139.13Z" style="fill:#aa2431"/><path d="M175.85,124.19a4.91,4.91,0,0,1-3.41,2.11c-.36.08-.46-.21-.48-.52a7.4,7.4,0,0,0-.46-2.21,1.5,1.5,0,0,0-.85-1,1.22,1.22,0,0,1,.9-1.24c.51-.13.92.08,1.25.68a6.56,6.56,0,0,1,.61,2.18c.11.63.2.69.8.51Z" style="fill:#aa2431"/><path d="M168.16,118.32a.24.24,0,0,1,.13-.22Z" style="fill:#aa2431"/><path d="M168.06,118.44l.1-.13C168.15,118.38,168.14,118.44,168.06,118.44Z" style="fill:#aa2431"/><path d="M95,162.09a4.17,4.17,0,0,1-1.44,1.67c-2.4.83-4.91.53-7.37.68-.45,0-.6-.31-.74-.63q-1.88-4.39-3.45-8.9a140.72,140.72,0,0,1-4.3-15,3.15,3.15,0,0,1-.08-.77c0-.18.19-.19.33-.23,1.32-.35,2.65-.67,4-1.06a5.58,5.58,0,0,1,4.85.39,8.36,8.36,0,0,1,1.79,1.87,16.23,16.23,0,0,1,1.29,2.5c.29,1,.62,2.09.88,3.15.35,1.47.64,2.95-.16,4.38-.14.26.09.32.22.41a7.21,7.21,0,0,1,1.86,1.89,18.81,18.81,0,0,1,2.24,5.46A6.76,6.76,0,0,1,95,162.09ZM82.39,143.61c.28,1.38.71,2.72,1.1,4.07s.43,1.47,1.92,1c1.1-.07,1.6-.59,1.57-1.65a9.65,9.65,0,0,0-.83-3.44,2.19,2.19,0,0,0-3-1.5c-1.2.27-1.2.27-.83,1.43ZM89.19,160c1.46-.05,1.87-.55,1.52-2a20.3,20.3,0,0,0-1.18-3.39c-.73-1.64-1.45-2-3.21-1.84-1.2.14-1.21.14-.79,1.3,0,.09.08.17.12.25.46,1.52,1,3,1.59,4.49S87.74,160.24,89.19,160Z" style="fill:#fdfdfd"/><path d="M167.22,112.63a.05.05,0,0,0-.06.06.17.17,0,0,0-.12.17h0a1.75,1.75,0,0,0-.18.12,7,7,0,0,1-7.57,1.3c-3.93-1.47-7-6.18-7.08-10.59a12.66,12.66,0,0,1,.7-4h0c.13,0,.1-.16.15-.24a.89.89,0,0,0,.19-.45c.29-.47.55-1,.87-1.41s.2-.46-.1-.7a25,25,0,0,1-3.52-3.46c-1.63-2-3.16-4.06-2.6-6.89h0c.14,0,.1-.15.14-.24a12.07,12.07,0,0,1,1-1.43,10,10,0,0,1,2.11-.79,9.43,9.43,0,0,1,6.73,1.49C161.62,88,163,92,161.38,95.92c-.2.49-.73,1-.57,1.43s.72.77,1.1,1.15l3.69,3.69a2.77,2.77,0,0,0,.86.79l.71-3.39c.18-.45.47-.48.85-.23s.6.34.91.5c.52.35,1,.73,1.57,1a1.06,1.06,0,0,1,.56,1.26c-.18.81-.39,1.62-.6,2.42-.15.57-.32,1.14-.52,1.7a.69.69,0,0,0,.15.79c1.3,1.53,2.57,3.07,3.85,4.61.21.25.48.52.14.86-1,.17-2.08.32-3.11.52a1.18,1.18,0,0,1-1.31-.44c-.42-.55-.87-1.08-1.34-1.66A11.41,11.41,0,0,1,167.22,112.63ZM153.48,89.56a1.2,1.2,0,0,0,.24.61,14.61,14.61,0,0,0,2.86,3.33c.21.36.4.42.56,0,.09-.26.22-.51.3-.77a3.64,3.64,0,0,0-2.54-4.82,1.23,1.23,0,0,0-1.32.33A1.2,1.2,0,0,0,153.48,89.56ZM163.84,109a3.29,3.29,0,0,0,1-1.22.44.44,0,0,0-.08-.63q-2.84-3-5.82-5.82c-.16-.15-.27-.25-.39,0a5.69,5.69,0,0,0-.52,1.8,3.23,3.23,0,0,0,0,1.65,5.77,5.77,0,0,0,3.32,4.5A2.13,2.13,0,0,0,163.84,109Z" style="fill:#fdfdfd"/><path d="M167.22,112.63A11.41,11.41,0,0,0,168.3,111c.47.58.92,1.11,1.34,1.66a1.18,1.18,0,0,0,1.31.44c1-.2,2.07-.35,3.11-.52l-1.22,1.65a34.49,34.49,0,0,1-3.52.62c-.24,0-.45-.2-.61-.41C168.22,113.81,167.72,113.22,167.22,112.63Z" style="fill:#aa2431"/><path d="M157.25,141.83q.3,2.29.59,4.57c.13,1,.25,2.06.38,3.09a.87.87,0,0,1-.4.91c-.07,0-.16,0-.14.11v0c-1,.23-1.88.66-2.82,1-.56.19-.74.08-.82-.51-.26-1.85-.51-3.71-.79-5.56-1.15-7.64-2.69-15.21-4.52-22.71a2.11,2.11,0,0,1-.08-.88.73.73,0,0,1,.46-.28c2-.44,4-.93,6-1.31a5.07,5.07,0,0,1,5.1,2,12.78,12.78,0,0,1,1.58,2.85l.71,2.62c.1.74.23,1.49.3,2.23a8.57,8.57,0,0,1-1.25,5.68.52.52,0,0,0-.07.56q1.48,3.4,3,6.81c.43,1.12.86,2.23,1.3,3.34a.71.71,0,0,1-.38,1c-.87.36-1.75.7-2.62,1.08-.39.17-.58.07-.72-.31s-.37-1-.56-1.45c-1.07-2.7-2.22-5.37-3.38-8-.17-.38-.35-.47-.7-.29a1.72,1.72,0,0,1-.42.13c-.2,0-.28.13-.25.35C156.91,139.82,157.08,140.83,157.25,141.83Zm.33-8.57a1.63,1.63,0,0,0,1.31-1.47,11.06,11.06,0,0,0-1-5.5,1.64,1.64,0,0,0-1.85-.93,6.61,6.61,0,0,0-.76.16c-1.12.28-1.12.28-.76,1.39.36,1.75.71,3.51,1.08,5.26.11.53,0,1.33.4,1.52s1-.22,1.55-.36C157.53,133.32,157.55,133.28,157.58,133.26Z" style="fill:#f7f7f7"/><path d="M107.4,162.81a3.68,3.68,0,0,1-1.82,1.64,5.42,5.42,0,0,1-2.46.46,9.2,9.2,0,0,1-3.77-.81.42.42,0,0,0-.21-.24,7.52,7.52,0,0,1-3.33-4.16c-1.5-4-2.77-8.16-4-12.31-.43-1.52-.74-3.08-1.32-4.56a2.24,2.24,0,0,0,0-.33q-.52-2.24-1-4.47a.84.84,0,0,1,.13-.88l1.28-1.23a4.87,4.87,0,0,0,.06.55,190,190,0,0,0,6.2,21.38,8.58,8.58,0,0,0,2.45,3.85A7.24,7.24,0,0,0,107.4,162.81Z" style="fill:#aa2431"/><path d="M157.25,141.83c-.17-1-.34-2-.52-3,0-.22,0-.31.25-.35a1.72,1.72,0,0,0,.42-.13c.36-.18.54-.09.7.29,1.16,2.66,2.31,5.33,3.38,8,.19.48.39,1,.56,1.45s.33.48.72.31c.86-.38,1.74-.72,2.62-1.08a3.83,3.83,0,0,1-1.77,1.79c-.72.28-1.42.6-2.14.89s-.73.23-1-.41a1,1,0,0,0-.22-.43c-.36-1.2-.88-2.34-1.36-3.5S157.89,143.08,157.25,141.83Z" style="fill:#aa2431"/><path d="M165.7,123.43c-.47.7-.76,1.5-1.16,2.23a1.62,1.62,0,0,1-.4.58c-.44,0-.44-.39-.51-.68-.16-.66-.28-1.33-.43-2q-.57-2.53-1.15-5.06c.15-.36.49-.35.79-.44.53-.11,1.06-.18,1.57-.34s.75.1.86.56c.25,1,.52,2,.77,3.06a2.31,2.31,0,0,1-.25,1.84.26.26,0,0,0-.1.26Z" style="fill:#f7f7f7"/><path d="M165.7,123.44a.26.26,0,0,1,.1-.26C165.82,123.29,165.82,123.39,165.7,123.44Z" style="fill:#ea5622"/><path d="M162.7,116.22a7.82,7.82,0,0,1-6.86-1.5,12.16,12.16,0,0,1-4.79-8.18,9.45,9.45,0,0,1,1.72-6.74s.09-.05.14-.08a12.66,12.66,0,0,0-.7,4c.07,4.41,3.15,9.12,7.08,10.59a7,7,0,0,0,7.57-1.3,1.75,1.75,0,0,1,.18-.12,4,4,0,0,1-1.54,2A7.38,7.38,0,0,1,162.7,116.22Z" style="fill:#aa2431"/><path d="M167,112.86a.17.17,0,0,1,.12-.17Z" style="fill:#aa2431"/><path d="M85.64,154.41c0-.08-.08-.16-.12-.25-.41-1.15-.41-1.16.79-1.3,1.76-.21,2.48.2,3.21,1.84a20.3,20.3,0,0,1,1.18,3.39c.35,1.41-.06,1.91-1.52,2a12,12,0,0,0-1.41-4.17A2.51,2.51,0,0,0,85.64,154.41Z" style="fill:#aa2431"/><path d="M82.39,143.61l0,0c-.37-1.16-.37-1.16.83-1.43a2.19,2.19,0,0,1,3,1.5,9.65,9.65,0,0,1,.83,3.44c0,1.07-.48,1.58-1.57,1.65a7.76,7.76,0,0,0-1.19-4.16A2,2,0,0,0,82.39,143.61Z" style="fill:#aa2431"/><path d="M90.32,123.89a15.36,15.36,0,0,1-.68,3.91,9.06,9.06,0,0,1-2.33,3.54l-.13.12h0l-.12.12h0a11.2,11.2,0,0,1-3.14,1.62l-6.59,2c-.54.16-.74,0-.85-.53-.16-.84-.31-1.67-.45-2.51a134.56,134.56,0,0,1-1.72-15.4A110.88,110.88,0,0,1,74.26,105a1.9,1.9,0,0,1,.76-.7l4.71-2.66a20.11,20.11,0,0,1,3-1.33c2.75-.7,4.33.17,5.23,2.87,0,.09.07.17.11.26.12.87.27,1.74.33,2.62.22,3.14.57,6.26.94,9.39A74.44,74.44,0,0,1,90.32,123.89Zm-7.38,2.68a2.28,2.28,0,0,0,1.46-1.62,5.37,5.37,0,0,0,.08-2.21c-.63-4.54-1.1-9.09-1.36-13.66a6.23,6.23,0,0,0-.26-1.86,1,1,0,0,0-1.44-.74,7.68,7.68,0,0,0-1.27.55c-1.2.56-1.23.62-1,2a4.89,4.89,0,0,0,0,.5c.16,4.15.45,8.29,1,12.41.21,1.71.45,3.42.69,5.12,0,.19.06.38.34.26A17.42,17.42,0,0,0,82.95,126.56Z" style="fill:#fdfdfd"/><path d="M74.26,105a110.88,110.88,0,0,0,.07,11.78A134.56,134.56,0,0,0,76,132.13c.14.84.29,1.68.45,2.51.1.56.31.69.85.53l6.59-2a11.2,11.2,0,0,0,3.14-1.62,4.3,4.3,0,0,1-1.3,1.65c-.46.41-1,.76-1.49,1.13-2.79,1.29-5.8,1.88-8.7,2.82-.46.15-.68,0-.76-.45q-.54-2.63-.89-5.29c-.21-1.57-.44-3.14-.63-4.72q-.22-1.87-.37-3.75c-.16-2.17-.32-4.35-.43-6.53-.06-1.22,0-2.45,0-3.67,0-1.56,0-3.12,0-4.68a2.29,2.29,0,0,1,.64-1.87C73.52,105.83,73.88,105.38,74.26,105Z" style="fill:#aa2431"/><path d="M153.25,99c-.05-.38-.39-.52-.63-.73a24.36,24.36,0,0,1-4.7-5.29,7.62,7.62,0,0,1-1.2-3.19,3.73,3.73,0,0,1,1.19-3.25c-.56,2.83,1,4.89,2.6,6.89A25,25,0,0,0,154,96.93c.29.24.31.4.1.7S153.53,98.57,153.25,99Z" style="fill:#aa2431"/><path d="M158,103.17a5.69,5.69,0,0,1,.52-1.8c.12-.3.23-.19.39,0q3,2.83,5.82,5.82a.44.44,0,0,1,.08.63,3.29,3.29,0,0,1-1,1.22A81.83,81.83,0,0,0,158,103.17Z" style="fill:#aa2431"/><path d="M153.48,89.56a1.2,1.2,0,0,1,.1-1.35,1.23,1.23,0,0,1,1.32-.33,3.64,3.64,0,0,1,2.54,4.82c-.08.26-.21.51-.3.77-.16.45-.35.4-.56,0,0-.24,0-.48,0-.72A3.35,3.35,0,0,0,153.48,89.56Z" style="fill:#aa2431"/><path d="M165.6,102.18a5.43,5.43,0,0,1,1.57-2.6l-.71,3.39A2.77,2.77,0,0,1,165.6,102.18Z" style="fill:#aa2431"/><path d="M152.91,99.72a.19.19,0,0,1,.15-.24C153,99.57,153,99.69,152.91,99.72Z" style="fill:#aa2431"/><path d="M147.9,86.58a.21.21,0,0,1,.14-.24C148,86.43,148,86.55,147.9,86.58Z" style="fill:#aa2431"/><path d="M103.88,100.74c.83,2.16,1.65,4.32,2.51,6.47q3.35,8.42,6.93,16.74c.22.51.34,1-.17,1.4-.06,0-.13,0-.12.1h0a1.22,1.22,0,0,0-.54.08l-3.87,1c-.79.2-1.09.06-1.38-.68-.62-1.56-1.25-3.13-1.85-4.7-.12-.31-.23-.38-.56-.28-1.9.56-3.8,1.11-5.72,1.62-.55.14-.78.37-.67.94a6.85,6.85,0,0,1,0,.94c.06,1.3.11,2.6.17,3.9a1,1,0,0,1-.55,1l-3.81,1c-.65.17-1,0-1-.71-.08-1.67-.16-3.33-.18-5-.06-4.53,0-9.05.18-13.58.15-3.13.34-6.26.67-9.37.22-2.14.46-4.28.7-6.41a1.2,1.2,0,0,1,.74-.6c1.58-.57,3.16-1.13,4.74-1.73.49-.19.73-.06.92.43.85,2.3,1.73,4.6,2.61,6.89C103.71,100.41,103.8,100.57,103.88,100.74Zm-5.44,7.44c-.17,2.79-.08,5.58-.08,8.37,0,.28.1.3.33.23l2.42-.78c.5-.14,1-.31,1.49-.41s.39-.24.28-.57c-1.45-4.07-2.79-8.18-4.1-12.3,0-.12,0-.3-.22-.32C98.55,104.33,98.37,106.25,98.44,108.18Z" style="fill:#fdfdfd"/><path d="M123.72,90.66c0,1.91.26,3.8.38,5.7.14,2.29.34,4.58.51,6.87q.43,6,.85,12.08c.14,2,.25,4,.39,6a1.17,1.17,0,0,1-.38,1c-.05,0-.12,0-.09.09v0c-.18,0-.37,0-.54.08l-5.45,1.3c-.82.19-1.06.08-1.38-.68q-4.7-11-9.23-22.12c-1.25-3.07-2.48-6.14-3.72-9.21a.8.8,0,0,1,.64-.68l4.47-1.28a.71.71,0,0,1,1,.51c.77,2,1.56,3.92,2.34,5.87a1.15,1.15,0,0,0,.23.49c1,2.81,2.17,5.58,3.3,8.36l2.38,6.18c-.1-2.24-.3-4.45-.49-6.66q-.49-5.57-1-11.13l-.43-5a1,1,0,0,1,.79-.6c1.36-.26,2.71-.56,4.06-.83.78-.15,1,0,1.11.8,0,.18,0,.37.06.55A11.79,11.79,0,0,0,123.72,90.66Z" style="fill:#fdfdfd"/><path d="M144.11,111.55l3.52-.62a.8.8,0,0,1,1,.63c.43,1.49.85,3,1.28,4.46a.82.82,0,0,1-.28,1c-.06,0-.13,0-.12.09h0a1.23,1.23,0,0,0-.6.06c-4.55.95-9.1,1.91-13.63,2.94-.71.16-1-.06-1.23-.76-.26-1-.5-2-.76-3-2.57-9.87-5.4-19.67-8.61-29.35a.79.79,0,0,1,.72-.52c3.17-.49,6.34-1,9.53-1.26l3-.29c.86-.09,1.08,0,1.42.81s.8,1.84,1.21,2.75c.12.27.18.53-.07.76q-3.34.27-6.66.73c-.51.07-1.28-.07-1.45.34s.3,1,.48,1.48l0,0,2,5.89c.05.16.08.33.32.28l3.29-.53,3.08-.38c.75-.1,1,.06,1.3.79.42,1.17.83,2.34,1.25,3.5.12.35.21.69-.18.94-2.27.3-4.52.67-6.78,1-.42.07-.43.22-.31.54s.27.8.41,1.2.14.53.21.8q.9,3.09,1.8,6.18c.05.18,0,.46.39.38C141.18,112.14,142.65,111.85,144.11,111.55Z" style="fill:#fdfdfd"/><path d="M124.72,87c3.21,9.68,6,19.48,8.61,29.35.26,1,.5,2,.76,3,.18.7.52.92,1.23.76,4.53-1,9.08-2,13.63-2.94a1.23,1.23,0,0,1,.6-.06c-.55.78-.94,1.73-2,2-1.74.35-3.48.69-5.21,1.06-2.91.62-5.81,1.27-8.71,1.9a.81.81,0,0,1-1-.68c-.59-2.22-1.17-4.44-1.76-6.65q-2.36-8.88-5.07-17.66c-.6-1.95-1.22-3.88-1.84-5.82-.06-.19-.15-.37-.23-.56a11.8,11.8,0,0,1-.21-2.28Z" style="fill:#aa2431"/><path d="M105.06,91.8c1.24,3.07,2.47,6.14,3.72,9.21q4.52,11.1,9.23,22.12c.32.75.57.87,1.38.68l5.45-1.3c.18,0,.36-.05.54-.08l-1.24,1.63a.85.85,0,0,1-.52.29l-5.77,1.39a.92.92,0,0,1-1.19-.64c-1.4-3.31-2.78-6.63-4.19-9.93-.85-2-1.71-4-2.52-6-1.21-3-2.49-6-3.66-9a2.49,2.49,0,0,0-.16-.29c-.75-1.86-1.48-3.74-2.25-5.59a1,1,0,0,1,.13-1.26C104.39,92.66,104.58,92.11,105.06,91.8Z" style="fill:#aa2431"/><path d="M94.65,95.25c-.23,2.14-.47,4.27-.7,6.41-.33,3.12-.51,6.24-.67,9.37-.22,4.52-.24,9-.18,13.58,0,1.67.11,3.34.18,5,0,.68.34.88,1,.71l3.81-1c-.14.58-.69.88-.93,1.39a2.18,2.18,0,0,1-1.27.7c-1.2.3-2.39.65-3.58,1-.53.15-.81,0-.92-.54a19.91,19.91,0,0,1-.11-2.55c-.12-1.46-.09-2.92-.1-4.39a2.63,2.63,0,0,0-.08-.43c0-.85,0-1.71,0-2.56,0-4.66.17-9.3.5-13.95.11-1.48.26-2.95.39-4.42.12-1.31.25-2.62.37-3.92a7.79,7.79,0,0,0,.18-1.26,2.89,2.89,0,0,1,1.14-2.23C94,95.84,94.35,95.54,94.65,95.25Z" style="fill:#aa2431"/><path d="M117.49,88.46l.43,5q.48,5.57,1,11.13c.19,2.21.4,4.42.49,6.66L117,105.07a.93.93,0,0,0,0-.16q-.39-4.37-.78-8.75c-.13-1.56-.27-3.13-.4-4.69a1.87,1.87,0,0,1,.48-1.82C116.73,89.29,117.05,88.81,117.49,88.46Z" style="fill:#aa2431"/><path d="M140.22,89.69a2,2,0,0,0-.32.37,2.52,2.52,0,0,1-2.41,1.29c-1.52.1-3,.32-4.55.48l0,0c-.18-.5-.63-1.1-.48-1.48s.94-.27,1.45-.34q3.32-.46,6.66-.73Z" style="fill:#aa2431"/><path d="M134.76,125.09a1.13,1.13,0,0,1,.78-.45c3.25-.74,6.5-1.5,9.74-2.26.41-.09.83-.29,1.16.16.34,1.4.67,2.8,1,4.19a.68.68,0,0,1-.24.83l-5.32,1.29c-1.13.28-1.13.28-.78,1.42.44,2,.9,4.09,1.32,6.13.08.4.31.34.57.27l4.5-1.23c.68-.19.88-.08,1,.6q.36,1.77.69,3.55c.06.35.12.72-.3.92-.06,0-.12,0-.13.08h0l-4.16,1.15c-1.08.3-1.08.31-.76,1.44l.93,5c.14,1.44.15,1.44,1.5,1,1.52-.48,3-1,4.54-1.47.49-.17.67,0,.73.44.19,1.2.35,2.41.53,3.62a.77.77,0,0,1-.41.83l-.32.09c-3.06,1-6.16,2-9.26,2.93-.63.19-.78.1-.91-.56q-2.45-12.85-5.44-25.59C135.41,128,135,126.57,134.76,125.09Z" style="fill:#f7f7f7"/><path d="M148.65,121.8a2.11,2.11,0,0,0,.08.88c1.84,7.5,3.38,15.07,4.52,22.71.28,1.85.52,3.71.79,5.56.08.59.26.7.82.51.94-.31,1.85-.75,2.82-1a4,4,0,0,1-2.22,1.87c-.79.25-1.57.56-2.35.84-.44.16-.59-.14-.64-.46-.17-1.2-.29-2.41-.47-3.61s-.34-2.58-.65-3.85c-.2-1.84-.57-3.65-.88-5.47-.78-4.56-1.75-9.08-2.81-13.58-.17-.72-.34-1.44-.52-2.16a1,1,0,0,1,.29-1C147.87,122.64,148.25,122.21,148.65,121.8Z" style="fill:#aa2431"/><path d="M162,118.5q.58,2.53,1.15,5.06c.15.66.27,1.34.43,2,.07.28.07.66.51.68l-1,1.2a.55.55,0,0,1-.58.21l-.71-2.62a16,16,0,0,0-.47-2.39c-.15-.76-.35-1.51-.56-2.26a.61.61,0,0,1,.11-.62A9.49,9.49,0,0,1,162,118.5Z" style="fill:#aa2431"/><path d="M143.2,103.5c-.4.84-1.17.92-2,1-1.31.16-2.61.38-3.92.58-.14-.4-.26-.8-.41-1.2s-.11-.47.31-.54c2.26-.37,4.51-.74,6.78-1Z" style="fill:#aa2431"/><path d="M141.11,130.28c-.35-1.14-.35-1.15.78-1.42l5.32-1.29c-.47.5-.94,1-1.41,1.49a.74.74,0,0,1-.33.18C144,129.61,142.58,130,141.11,130.28Z" style="fill:#aa2431"/><path d="M143.86,143.18c-.32-1.13-.32-1.14.76-1.44l4.16-1.15a3.61,3.61,0,0,1-1.9,1.71Z" style="fill:#aa2431"/><path d="M148.78,140.6c0-.08.07-.09.13-.08Z" style="fill:#aa2431"/><path d="M149.55,117.09c0-.1.06-.08.12-.09Z" style="fill:#aa2431"/><path d="M100,133.31l2.36-.58c.63-.15.82,0,1,.6l.24.91c1.05,4.64,2.27,9.23,3.57,13.8.58,2,1.13,4.06,1.83,6.05.21,1,.67,2,.82,3.05a5.35,5.35,0,0,1-2.13,5.48c-.07,0-.14,0-.13.12h0c-.08,0-.16,0-.12.12a0,0,0,0,0,0-.05,7.24,7.24,0,0,1-7.81-1.13,8.58,8.58,0,0,1-2.45-3.85,190,190,0,0,1-6.2-21.38,4.87,4.87,0,0,1-.06-.55.87.87,0,0,1,.62-.41l2.8-.7c.59-.15.77-.05.91.54.38,1.53.73,3.06,1.12,4.59.87,3.41,1.77,6.81,2.84,10.16.7,2.36,1.43,4.71,2.27,7a2.61,2.61,0,0,0,.52.85,1.74,1.74,0,0,0,1.39.68c1.13,0,1.67-.51,1.54-1.62a5.16,5.16,0,0,0-.25-1c-2.12-6.42-3.93-12.93-5.51-19.51a9.77,9.77,0,0,1-.49-2.55c.14-.37.49-.37.8-.45Z" style="fill:#f7f7f7"/><path d="M108.41,132.37a5.91,5.91,0,0,1,8.95-.77l.8.75h0l.09.13a12.38,12.38,0,0,1,1.6,3c.24,1,.48,1.9.72,2.85.1.41,0,.74-.4.9l-2.75.66c-.91.22-1,.14-1.26-.77a7.34,7.34,0,0,0-1-2.58,1.69,1.69,0,0,0-1.76-.81,1.55,1.55,0,0,0-1.37,1.4,6.83,6.83,0,0,0,.53,3.58,2.79,2.79,0,0,0,2.14,1.82c1,.23,2.09.49,3.13.74a7.82,7.82,0,0,1,5.75,4.88,24.23,24.23,0,0,1,1.49,5.5A10,10,0,0,1,125,157a5.1,5.1,0,0,1-1.64,2.76c-.11.09-.26.16-.28.33-.09,0-.2,0-.22.11h0l-.45.21a7.22,7.22,0,0,1-5.39.6c-3.26-1-5-4-5.63-7.37a.79.79,0,0,1,.59-.35c1.05-.18,2.11-.36,3.15-.58a.66.66,0,0,1,.88.51c.14.44.27.88.4,1.32.48,1.54,1.24,2,2.66,1.75,1.17-.25,1.65-.76,1.52-1.79a11.42,11.42,0,0,0-1.06-3.77,2.79,2.79,0,0,0-1.93-1.54l-2.81-.66a8.26,8.26,0,0,1-6.44-5.93,24.81,24.81,0,0,1-.72-2.56C107.08,137.38,106.93,134.79,108.41,132.37Z" style="fill:#f7f7f7"/><path d="M119.47,128.71a.9.9,0,0,1,.68-.43l12.22-2.92c.6-.14.87.09,1.06.87.28,1.17.57,2.34.84,3.51.09.38.17.77-.21,1.06a.09.09,0,0,0-.09,0l-2.57.61c-1.2.29-1.2.29-.81,1.49,0,.18.06.36.1.54.61,2.64,1.22,5.27,1.82,7.91q1.14,5,2.26,10c.35,1.64.7,3.28,1.05,4.92.1.48.15.92-.4,1.18a1.35,1.35,0,0,0-.54.08l-3.07.77c-.61.15-.83,0-1-.57q-1.79-7.45-3.57-14.89-1.13-4.74-2.25-9.48c-.08-.33-.18-.45-.55-.35-1,.27-2,.49-3,.73-.69.16-.89,0-1.06-.65l-.88-3.67A1.76,1.76,0,0,1,119.47,128.71Z" style="fill:#f7f7f7"/><path d="M138.34,150.51c-.28-1.94-.75-3.84-1.14-5.76-.93-4.51-1.94-9-3-13.47,0-.16-.09-.32-.13-.48.38-.29.3-.68.21-1.06-.28-1.17-.56-2.34-.84-3.51.48-.33.76-.9,1.33-1.14.23,1.48.65,2.92,1,4.38q3,12.73,5.44,25.59c.12.65.28.74.91.56,3.1-.92,6.2-1.88,9.26-2.93l.32-.09a5.32,5.32,0,0,1-2.65,2c-2.86.87-5.71,1.82-8.58,2.67-.53.16-.71.05-.82-.47l-1.22-6.13A1,1,0,0,0,138.34,150.51Z" style="fill:#aa2431"/><path d="M127.73,153.18c-.48-2.07-1-4.13-1.45-6.2q-1.38-5.82-2.77-11.64c-.17-.7-.16-.7-.86-.53l-2.8.66a12.38,12.38,0,0,0-1.6-3c0-.07,0-.12-.09-.13h0a4.82,4.82,0,0,0-.28-1.45.83.83,0,0,1,.2-.86c.46-.45.93-.89,1.4-1.33a1.76,1.76,0,0,0,.05.77l.88,3.67c.17.69.37.82,1.06.65,1-.24,2-.45,3-.73.38-.1.48,0,.55.35q1.12,4.74,2.25,9.48,1.78,7.45,3.57,14.89c.14.59.36.72,1,.57l3.07-.77a1.35,1.35,0,0,1,.54-.08,4.21,4.21,0,0,1-2.84,1.82,19.62,19.62,0,0,0-2.3.58c-.71.18-.95,0-1.11-.67q-.67-2.88-1.34-5.76A2.59,2.59,0,0,0,127.73,153.18Z" style="fill:#aa2431"/><path d="M110.7,154.2l.66-.57C112,157,113.73,160,117,161a7.22,7.22,0,0,0,5.39-.6l.45-.21a3.11,3.11,0,0,1-1.56,1.56,7.33,7.33,0,0,1-10.8-4.32c-.09-.24-.14-.5-.25-.74A1.79,1.79,0,0,1,110.7,154.2Z" style="fill:#aa2431"/><path d="M122.82,160.2c0-.13.13-.1.22-.11A.18.18,0,0,1,122.82,160.2Z" style="fill:#aa2431"/><path d="M157.68,150.5c0-.12.07-.1.14-.11Z" style="fill:#aa2431"/><path d="M107.56,162.76c0-.09.06-.11.13-.12Z" style="fill:#aa2431"/><path d="M107.44,162.86c0-.12,0-.12.12-.12Z" style="fill:#aa2431"/><path d="M154.47,126.91c-.36-1.11-.36-1.11.76-1.39a6.61,6.61,0,0,1,.76-.16,1.64,1.64,0,0,1,1.85.93,11.06,11.06,0,0,1,1,5.5,1.62,1.62,0,0,1-1.31,1.47,9,9,0,0,0-.12-1.88,13.16,13.16,0,0,0-1-3.84,1.36,1.36,0,0,0-1.44-.72Z" style="fill:#aa2431"/><path d="M98.64,133.92a9.77,9.77,0,0,0,.49,2.55c1.58,6.57,3.39,13.08,5.51,19.51a5.16,5.16,0,0,1,.25,1c.13,1.11-.41,1.67-1.54,1.62a4.6,4.6,0,0,0-.34-1.45L101,151c-.92-3.39-1.86-6.77-2.76-10.17-.42-1.6-.72-3.23-1.15-4.83a.69.69,0,0,1,.17-.72Z" style="fill:#aa2431"/><path d="M87.07,131.57l.12-.12A.11.11,0,0,1,87.07,131.57Z" style="fill:#aa2431"/><path d="M87.18,131.46l.13-.12Z" style="fill:#aa2431"/><path d="M82.95,126.56a47.47,47.47,0,0,0-.49-4.85c-.16-1.55-.36-3.09-.5-4.63-.21-2.41-.38-4.83-.57-7.25a2.11,2.11,0,0,0-.09-.43c-.24-.79-.52-.93-1.32-.69a2.56,2.56,0,0,1-.84.27c-.21-1.35-.19-1.41,1-2a7.68,7.68,0,0,1,1.27-.55,1,1,0,0,1,1.44.74,6.23,6.23,0,0,1,.26,1.86c.26,4.57.73,9.12,1.36,13.66a5.37,5.37,0,0,1-.08,2.21A2.28,2.28,0,0,1,82.95,126.56Z" style="fill:#aa2431"/><path d="M118.71,154.41a11.34,11.34,0,0,0-.65-2.18,2.42,2.42,0,0,0-1.87-1.5,33.68,33.68,0,0,1-4-1.09,8.7,8.7,0,0,1-4.76-4.12,16.82,16.82,0,0,1-1.7-5.87,10.76,10.76,0,0,1,.39-4.5,7.2,7.2,0,0,1,1.92-2.6c.1-.09.17-.19.32-.19-1.48,2.42-1.33,5-.79,7.64a24.81,24.81,0,0,0,.72,2.56,8.26,8.26,0,0,0,6.44,5.93l2.81.66a2.79,2.79,0,0,1,1.93,1.54,11.42,11.42,0,0,1,1.06,3.77c.12,1-.36,1.55-1.52,1.79A5.38,5.38,0,0,0,118.71,154.41Z" style="fill:#aa2431"/><path d="M98.48,124.34a6.85,6.85,0,0,0,0-.94c-.11-.57.12-.8.67-.94,1.91-.51,3.82-1.06,5.72-1.62.33-.1.44,0,.56.28.6,1.57,1.23,3.13,1.85,4.7.3.74.59.88,1.38.68l3.87-1a1.22,1.22,0,0,1,.54-.08c-.63.94-1.17,1.93-2.49,2.14-1.13.17-2.23.55-3.34.83-.82.21-1.13.06-1.45-.75-.57-1.43-1.15-2.85-1.68-4.29-.15-.4-.28-.5-.71-.37C101.73,123.47,100.1,123.89,98.48,124.34Z" style="fill:#aa2431"/><path d="M125.38,122.44c0-.09,0-.08.09-.09Z" style="fill:#aa2431"/><path d="M113,125.45c0-.09.06-.09.12-.1Z" style="fill:#aa2431"/><path d="M98.44,108.18c-.07-1.93.11-3.85.13-5.78.21,0,.18.19.22.32,1.3,4.12,2.64,8.23,4.1,12.3.12.33.12.49-.28.57s-1,.27-1.49.41c-.63-1.86-1.26-3.71-1.9-5.56A21.9,21.9,0,0,0,98.44,108.18Z" style="fill:#aa2431"/><path d="M120.17,139.22a3.48,3.48,0,0,1-2.36,1.74,15.66,15.66,0,0,0-2.26.54c-.5.13-.73-.1-.84-.54a10.18,10.18,0,0,0-.85-2.63,2,2,0,0,0-1.79-1.21,1.55,1.55,0,0,1,1.37-1.4,1.69,1.69,0,0,1,1.76.81,7.34,7.34,0,0,1,1,2.58c.22.91.36,1,1.26.77Z" style="fill:#aa2431"/><path d="M118.15,132.35c.08,0,.1.07.09.13Z" style="fill:#f6a11c"/><path d="M134,130.81c-.68.87-1.33,1.79-2.58,1.9a5,5,0,0,0-.81.21c-.39-1.2-.39-1.2.81-1.49Z" style="fill:#aa2431"/></svg>