<svg id="Layer_1" data-name="Layer 1" xmlns="http://www.w3.org/2000/svg" viewBox="0 0 250 250"><title>Coke_Dine</title><path d="M114.89,129.5a2,2,0,0,1-2.87-.68,1,1,0,0,1-.05-1,4.77,4.77,0,0,1,1.36-1.66c.43-.36.89-.75,1.56-.1,0-.83,0-1.48,0-2.13s0-1.34,0-2a11.36,11.36,0,0,0-4.4,4,4.79,4.79,0,0,0-2.22-1.94c.2-.11.33-.18.46-.24,1.84-.78,1.91-3.7.74-4.88-1.94-2-6.32-2-8.21,0a3,3,0,0,0,.28,4.42c.11.07.31.1.26.35-.31.18-.65.35-1,.55a4.47,4.47,0,0,0,.77,7.93,9.79,9.79,0,0,0,4.56.51,5.14,5.14,0,0,0,3.27-1.52c.17-.17.26-.43.54-.5a1.62,1.62,0,0,1,.22.16,6.22,6.22,0,0,0,4.19,1.69c.32,0,.55,0,.54-.43C114.87,131.22,114.89,130.38,114.89,129.5Zm-10.66-9.91a4.26,4.26,0,0,1,2.32,0,1.47,1.47,0,0,1,1.17,1.68,1.54,1.54,0,0,1-1.33,1.58,8.63,8.63,0,0,1-1.07.1,8.26,8.26,0,0,1-1-.1,1.62,1.62,0,0,1-1.33-1.61A1.52,1.52,0,0,1,104.22,119.58Zm3.18,10.25a6.28,6.28,0,0,1-2.61.6,3.79,3.79,0,0,1-1.85-.43,2.45,2.45,0,0,1-1.33-2.23,2.36,2.36,0,0,1,1.34-2.22,3.81,3.81,0,0,1,5.36,2.36A1.45,1.45,0,0,1,107.4,129.83Z"/><path d="M22.89,118.11a7.36,7.36,0,0,0-2.39-.51c-3.3,0-6.61,0-9.91,0a.52.52,0,0,0-.17.06c.48.54.49.54.49,1.38q0,6,0,12a1.52,1.52,0,0,1-.51,1.45c.18,0,.33,0,.47,0,3,0,6,0,9.07,0a8.73,8.73,0,0,0,1.78-.19,5.84,5.84,0,0,0,4.68-4.17,10.7,10.7,0,0,0,0-6.41A5.33,5.33,0,0,0,22.89,118.11Zm.87,8.78A3.7,3.7,0,0,1,20,130.07c-.91,0-1.82,0-2.73,0H14.62c-.77,0-.74,0-.73-.7,0-1.35,0-2.7,0-4.06,0-1.57,0-3.14,0-4.72,0-.68,0-.69.66-.69h4.62a8.52,8.52,0,0,1,1,.09,3.86,3.86,0,0,1,3.58,3.33A8.44,8.44,0,0,1,23.76,126.9Z"/><path d="M138.37,117.94a9.69,9.69,0,0,0-2.7-.38h-8.78c-.16,0-.38-.1-.49.21.52.18.51.62.51,1.07q0,6.18,0,12.37c0,.45,0,.88-.56,1.09l.11.16c3.39,0,6.78.14,10.16,0a6,6,0,0,0,6-5.09,11,11,0,0,0-.11-5.14A5.59,5.59,0,0,0,138.37,117.94Zm1.27,9.33a3.45,3.45,0,0,1-3.31,2.76c-2,.1-4.09,0-6.14.06-.44,0-.41-.28-.41-.57q0-2.27,0-4.53c0-1.48,0-3,0-4.44,0-.5.15-.65.64-.64,1.6,0,3.21,0,4.82,0a6.9,6.9,0,0,1,.75.07,4,4,0,0,1,3.85,3.82A8.36,8.36,0,0,1,139.64,127.27Z"/><path d="M87.37,117.61H83.58a1.31,1.31,0,0,1,.53,1.26c0,2.71,0,5.42,0,8.12,0,.2.12.44-.18.61q-4.27-4.52-8.53-9.05c-.38-.4-.35-.43.2-1H73.36l-2.09,0c.53.41.44.91.44,1.37q0,6,0,12.09a1.61,1.61,0,0,1-.42,1.4h3.42c-.52-.35-.47-.83-.47-1.31,0-2.9,0-5.79,0-8.69,0-.2-.08-.43.08-.62.07,0,.15,0,.18,0,3,3.24,6.06,6.49,9.11,9.72.34.36,0,.57-.06.84h3.65c-.56-.35-.51-.85-.51-1.36q0-6,0-11.9C86.7,118.59,86.62,118,87.37,117.61Z"/><path d="M44.35,130.09H41.9c-2.17,0-4.34,0-6.52,0-.45,0-.61-.13-.6-.59,0-.94,0-1.89,0-2.83,0-.64,0-.66.71-.66,1.79,0,3.59,0,5.38,0a1.48,1.48,0,0,1,1.26.46v-3.54c-.34.49-.62.72-1.06.71q-2.88,0-5.76,0c-.42,0-.54-.17-.54-.56,0-.76,0-1.51,0-2.27s0-.89.86-.89h8.41c.55,0,1.12-.07,1.53.62V117a1.53,1.53,0,0,1-1.56.59H32.32a1.77,1.77,0,0,0-1,.14c.64.27.56.79.56,1.28q0,6,0,11.9a1.86,1.86,0,0,1-.42,1.54,2.08,2.08,0,0,0,.92.06h11.9c.52,0,1.06-.09,1.51.53V129.7A1.65,1.65,0,0,1,44.35,130.09Z"/><path d="M161.18,129.56a1.13,1.13,0,0,1-.92.53q-4.72,0-9.44,0c-.41,0-.55-.14-.54-.55,0-.88,0-1.76,0-2.64s0-.89.86-.89H156c.56,0,1.15-.11,1.61.58v-3.38a1.41,1.41,0,0,1-1,.42c-2,0-3.9,0-5.86,0-.38,0-.49-.16-.48-.51,0-.76,0-1.51,0-2.27,0-1,0-.94.91-.94,2.49,0,5,0,7.46,0,.84,0,1.72-.22,2.5.56,0-.7,0-1.24,0-1.77a5.23,5.23,0,0,0-.12-1.66,1.61,1.61,0,0,1-1.45.51H147.86c-.32,0-.64,0-1,0,.53.38.45.87.45,1.33q0,5.86,0,11.71a2.08,2.08,0,0,1-.57,1.84H159.5a2.14,2.14,0,0,1,1.8.48c0-.7,0-1.23,0-1.77A4.8,4.8,0,0,0,161.18,129.56Z"/><path d="M195.23,117.67c.64.21.58.68.58,1.12q0,4.06,0,8.12a5.49,5.49,0,0,1-.07,1,2.2,2.2,0,0,1-1.48,1.91,10.63,10.63,0,0,1-6,0,2.12,2.12,0,0,1-1.5-1.88,9.73,9.73,0,0,1-.11-1.5c0-2.49,0-5,0-7.46a1.44,1.44,0,0,1,.58-1.43h-4c.55.37.48.91.48,1.43,0,2.77,0,5.54,0,8.31s1.55,4.37,4,5a15.63,15.63,0,0,0,5.16.33,9,9,0,0,0,3.45-.89,4.32,4.32,0,0,0,2.41-3.18,8,8,0,0,0,.13-1.5c0-2.68,0-5.35,0-8,0-.54-.08-1.1.55-1.45A32.77,32.77,0,0,0,195.23,117.67Z"/><path d="M60.46,119.2c-.24-.51-.63-1,0-1.58H56c.7.36.36.79.17,1.22L51,130.31a4.55,4.55,0,0,1-1.36,2.13h3.76c-.12-.36-.31-.62-.11-1,.43-.8.79-1.64,1.14-2.48a.6.6,0,0,1,.65-.41c2,0,4,0,6,0a.66.66,0,0,1,.71.46q.52,1.21,1.07,2.41c.16.34.29.66-.09,1h4.07a5.2,5.2,0,0,1-.73-.93C64.31,127.4,62.38,123.31,60.46,119.2Zm-4.85,7L58,120.83l2.48,5.39Z"/><path d="M235.61,132.43h4a5.06,5.06,0,0,1-1-1.73L233.13,119c-.22-.47-.53-.93.06-1.38h-4.46c.55.35.38.72.19,1.15-1.62,3.68-3.22,7.37-4.84,11a5.89,5.89,0,0,1-1.6,2.62h3.71a1,1,0,0,1,0-1.19c.35-.7.68-1.42,1-2.15a.83.83,0,0,1,.92-.58c1.92,0,3.84,0,5.76,0a.77.77,0,0,1,.85.53c.31.79.67,1.56,1,2.33C235.88,131.75,236,132.08,235.61,132.43Zm-7.17-6.22,2.34-5.38,2.44,5.38Z"/><path d="M217.2,129.05a5.45,5.45,0,0,1-1.25.65,9.32,9.32,0,0,1-5.11.38c-2.8-.52-4.93-2.62-4.21-6.42a4.1,4.1,0,0,1,1.26-2.27,6,6,0,0,1,3.28-1.54,13,13,0,0,1,5.11.65,2,2,0,0,1,1.64,1.68L220,118.9c-.8.25-1.36-.19-1.95-.43a13.37,13.37,0,0,0-7.67-.86,9.28,9.28,0,0,0-4.78,2.31,7.28,7.28,0,0,0,2,11.73,11.58,11.58,0,0,0,11-.53l1.63-1-2-2.75A2.17,2.17,0,0,1,217.2,129.05Z"/><path d="M178.87,130.09q-4.06,0-8.13,0c-.79,0-.73,0-.73-.71,0-3.53,0-7.05,0-10.58a1.23,1.23,0,0,1,.56-1.18h-3.88c.49.37.37.87.37,1.33q0,6,0,12.09a1.73,1.73,0,0,1-.37,1.47h12.15c.55,0,1.13-.11,1.62.51v-3.53A1.6,1.6,0,0,1,178.87,130.09Z"/></svg>