<svg xmlns="http://www.w3.org/2000/svg" viewBox="0 0 250 250"><defs><style>.a{fill:#b5bc34;}.a,.b,.d,.e{fill-rule:evenodd;}.b{fill:#f79936;}.c{fill:#fbd320;}.d{fill:#ed313f;}.e{fill:#fff;}</style></defs><title>Fast Food</title><path class="a" d="M209.77,124.75c-.91-.43-1.74-.76-2.49-1.2-3.8-2.23-7.5-4.64-11.37-6.72-5.82-3.12-12-2.72-18.26-1.55-1.73.33-3.46.65-5.18,1a15.41,15.41,0,0,0-1.62.52c1.72,1.81,3.43,3.36,4.85,5.15a48.08,48.08,0,0,1,3.86,5.93c.29.51,0,1.38-.06,2.08a7.31,7.31,0,0,1-2.19-.42c-5.34-2.93-10.56-6.09-16-8.88-5.83-3-12.1-3-18.48-2.12A501.15,501.15,0,0,0,89.73,129.5c-7.15,1.82-14.26,3.83-21.38,5.75-.33.09-.66.33-1,.28-.74-.11-1.46-.34-2.19-.52.37-.64.59-1.54,1.14-1.86,5.15-3,10.28-6.06,15.56-8.83a270.28,270.28,0,0,1,40.76-17.76c3.85-1.27,7.81-2.22,11.74-3.24,6.37-1.65,12.2.36,17.93,2.81a40.37,40.37,0,0,1,4.54,2.26,5,5,0,0,0,4.94.07c4.18-1.74,8.45-3.28,12.74-4.74a14,14,0,0,1,9.2.23c9,3.1,17,7.68,23.56,14.71C209.3,120.81,210,122.64,209.77,124.75Z"/><path class="b" d="M74.8,121.75c-3.41,1.81-6.64,3.54-9.88,5.23-1.77.92-3.51.65-4.44-1.07a61.19,61.19,0,0,1-3-7.21c-.12-.31.26-.82.41-1.23a5.45,5.45,0,0,1,1.24.51c2.27,1.67,4.65,2.64,7.32,1a19.3,19.3,0,0,0,2.35-2.13c-1.33-.57-2.22-1-3.13-1.34-7.55-2.89-9.27-9.82-7.3-16.54.12-.41.86-1,1-1a3,3,0,0,1,1.43,1.24c.75,1.61,1.36,3.23,3.26,3.92a5.26,5.26,0,0,0,5.09-.5c-.62-1-1.2-2-1.79-2.91-3.62-5.7-3.12-11.85,1.34-16.2a6.57,6.57,0,0,1,1.6-1.23,4.38,4.38,0,0,1,1.5-.16,7.4,7.4,0,0,1,0,1.31c-.54,3.26.85,6.15,3.42,7.08,1.92.7,2.36.27,2.4-1.76,0-2.74-.1-5.6.59-8.2,1.23-4.63,7.54-8.45,12.16-7.83.3,0,.57.31,1,.59-1.93,2-3.65,4.1-3.22,7,.17,1.15,1,2.21,1.78,3.84,1-1.67,1.78-2.69,2.33-3.82,3.27-6.59,9-7.71,15.93-5.9.57.15,1,.74,1.52,1.12a6.38,6.38,0,0,1-1.39,1.31c-2.19,1.06-4.06,2.36-4,5.09a10.49,10.49,0,0,0,.78,2.66,9.08,9.08,0,0,0,2.3-.92c6.61-5.07,13.07-3.09,17.1.53A7.22,7.22,0,0,1,126,85.94a4.13,4.13,0,0,1,.22,1.48,6.35,6.35,0,0,1-1.31.08c-2.09-.3-4.08-.23-5.76,1.27A4.13,4.13,0,0,0,117.54,93c1.58,0,3.18-.06,4.78,0,3.2.14,6.17,1,8.48,3.35,1.44,1.47,1.18,2.32-.75,2.81-3.34.85-6.73,1.55-10,2.59-1.75.55-2.53,0-3.36-1.41A22.49,22.49,0,0,0,99.68,89,23.31,23.31,0,0,0,76.87,99.35C72.21,106.4,72.08,113.81,74.8,121.75Z"/><path class="c" d="M116.67,100.31A22.49,22.49,0,0,0,99.68,89,23.31,23.31,0,0,0,76.87,99.35c-4.64,7-4.78,14.42-2.09,22.34a260.32,260.32,0,0,1,46.16-20.24h0l-.91.27C118.28,102.28,117.5,101.74,116.67,100.31Z"/><path class="d" d="M29.89,142.25a9.19,9.19,0,0,1-7.45-2.88c-1.18-1.25-.9-2.25.65-2.74,5.16-1.64,10.27-3.43,15.49-4.86a51.46,51.46,0,0,1,11.14-2.11c8.17-.36,12.61,4.17,12.65,12.43,0,6.85-2.6,12.85-6.48,18.31C51.21,167,45.57,172.62,37.78,175.3a38.25,38.25,0,0,1-10.94,1.83c-4.8.17-7.08-2.55-5.91-7.15,1.54-6,3.66-11.9,5.58-17.82C27.55,149,28.69,145.77,29.89,142.25ZM32.5,167.9c1.39-.71,2.39-1.13,3.29-1.7A34.2,34.2,0,0,0,50.31,147a16.66,16.66,0,0,0,.7-5.39c-.07-2.42-1.45-3.74-3.83-3.41-2.89.39-5.7,1.3-9,2.09,2.14,2.51,1.42,4.62.78,6.7-1.93,6.22-3.9,12.42-5.84,18.63C32.88,166.19,32.76,166.83,32.5,167.9Z"/><path class="d" d="M146.78,135.72a23.41,23.41,0,0,1-.42,4.2c-2.94,10.36-6,20.69-8.94,31.06a16.31,16.31,0,0,0-.51,4.62c0,1.47-.68,2-1.84,1.56a37.68,37.68,0,0,1-6.58-3.08c-1.7-1.07-1.93-3.11-1.54-5,.66-3.11,1.39-6.22,2.32-9.26,2.28-7.45,4.68-14.86,7.1-22.48-2.41.44-4.86.74-7.24,1.35-4.78,1.22-8.37-2.28-10.74-5.4a1.56,1.56,0,0,1,.72-2.53,12.37,12.37,0,0,1,3-1.09c8.94-1.61,17.86-3.43,26.86-4.63,6.36-.85,11.92,1.91,16.91,5.71.39.3.47,1,.7,1.53a6.4,6.4,0,0,1-1.43.54c-6.25.76-12.5,1.48-18.75,2.21Z"/><path class="d" d="M75.61,150.8c2.43-.48,4.68-1,6.94-1.36a5.32,5.32,0,0,1,6.19,2.77c1,1.6.73,2.27-1.14,2.71-3.89.91-7.77,2-11.71,2.55-3,.42-3.57,2.24-4,4.8,3.09-.75,6-1.53,9-2.16a6.18,6.18,0,0,1,7.65,5.32,2.32,2.32,0,0,1-1.21,1.89c-6.33,1.49-12.68,2.84-19,4.18a7.32,7.32,0,0,1-2.23,0c-4-.43-5.88-2.8-4.85-6.73,1.57-6,3.41-11.85,5.09-17.78a7,7,0,0,0,.29-2.78c-.37-2.67-.07-3.38,2.6-4,4-.92,7.95-1.7,11.94-2.46A38.81,38.81,0,0,1,86.9,137c2.66-.09,5.38,2.48,5.81,5.11.26,1.62-.89,1.82-1.93,2-3.72.75-7.45,1.43-11.18,2.14l-.4.06C75.87,146.92,75.87,146.93,75.61,150.8Z"/><path class="d" d="M161.13,156.2c-2.57.46-4.86.74-7.06,1.33-.61.16-1.24,1.18-1.41,1.91a21.47,21.47,0,0,0-.6,4.83,39.17,39.17,0,0,0,.54,4.79c-4.14,1.79-9.12-1.17-8.85-5.55.58-9.45,4.28-17.57,11.85-23.38,4.7-3.61,10.35-3.23,15.8-1.68,2.33.66,3.17,2.14,2.85,4.54a59.39,59.39,0,0,1-1.56,6.5c-1,4-2.1,8-3,12a6.89,6.89,0,0,0,.17,3.18c.29,1.09,0,1.72-1,1.66a33.85,33.85,0,0,1-6.76-.84c-1.87-.51-2-2.4-1.85-4.09S160.77,158.24,161.13,156.2Zm-6.15-4,.44.46a14.46,14.46,0,0,1,2.93-.62c3.58,0,5.21-1.93,5.76-5.3.3-1.85-.37-2.74-2.2-2.14a5.22,5.22,0,0,0-2.33,1.52C158,148.1,156.51,150.19,155,152.22Z"/><path class="d" d="M229.38,138.47c-.07,9.29-6.72,17.61-15.39,19.27-7.1,1.36-11.68-2.31-11.93-9.53-.29-8.3,6.81-18,14.8-20.21C224.49,125.88,229.44,130,229.38,138.47Zm-9-.41a23,23,0,0,0-.41-2.48c-.48-1.78-1.7-2.2-3.23-1.17-3.21,2.16-5.82,9.09-4.64,12.75.3.92,1.13,2.18,1.88,2.3a3.8,3.8,0,0,0,2.88-1.28C219.35,145.36,220.07,141.83,220.39,138.05Z"/><path class="d" d="M102.64,155.18c3.19-.75,6-1.47,8.86-2.07,2.61-.55,4.19.12,5.45,2.43a24.86,24.86,0,0,1,1.8,4.5c.32,1,0,1.79-1.29,2.06-4.77,1-9.5,2.21-14.29,3a26.7,26.7,0,0,1-8,.27c-3.16-.43-4.67-2.92-3.87-6,1.57-6,3.43-12,5.08-18a9.1,9.1,0,0,0,.24-3.76c-.23-1.39.09-2.52,1.32-2.79a39.94,39.94,0,0,1,7.74-1.07c.68,0,1.86,1.4,2,2.3a10.07,10.07,0,0,1-.39,4.38c-1.28,4.35-2.74,8.64-4.13,13C103,153.94,102.86,154.44,102.64,155.18Z"/><path class="d" d="M192.53,137.88c-4,2.08-7.38,8.51-6.85,12.46.38,2.85,2.71,4.48,5.45,3.49a21.77,21.77,0,0,0,4.29-2.63c.82-.54,1.59-1.17,2.61-1.94a9.32,9.32,0,0,1-1.71,8.65c-3.46,4.35-10.78,6.26-15.93,4.19-3.43-1.37-5.18-4.47-5.15-9.09.07-9.23,8.4-19.21,17.45-20.72a10.69,10.69,0,0,1,4.39.34c2.57.69,3.74,2.45,3.77,5.13,0,.61-.06,1.22-.11,1.83-.41,4.72-2.3,5.88-6.76,4.26-1.78-.65-2.54-1.67-2-3.56C192.23,139.6,192.33,138.87,192.53,137.88Z"/><path class="e" d="M32.5,167.9c.26-1.07.38-1.71.57-2.32C35,159.37,37,153.17,38.91,147c.64-2.08,1.36-4.2-.78-6.7,3.34-.8,6.15-1.7,9-2.09,2.37-.32,3.76,1,3.83,3.41a16.66,16.66,0,0,1-.7,5.39A34.2,34.2,0,0,1,35.79,166.2C34.89,166.78,33.89,167.19,32.5,167.9Z"/></svg>