<svg xmlns="http://www.w3.org/2000/svg" viewBox="0 0 250 250"><defs><style>.a,.p{fill:#243444;}.b{fill:#040404;}.c{fill:#050505;}.d{fill:#080808;}.e{fill:#020202;}.f{fill:#060606;}.g{fill:#030303;}.h{fill:#070707;}.i{fill:#0d0d0d;}.j{fill:#fefefe;}.k{fill:#fbfbfb;}.l{fill:#f2f3f4;}.m{fill:#fcfcfc;}.n{fill:#fdfdfd;}.o{fill:#f4f4f4;}.p{fill-rule:evenodd;}</style></defs><title>Fine Dining</title><path class="a" d="M88.7,126a29.8,29.8,0,0,0,15.1-3.36c1.39-.71,1.86-.34,1.78,1.17a4.77,4.77,0,0,1-3.59,4.58c-4.86,1.38-6.77,5.58-9.31,9.19-.43.61-.83,1.46-.13,2.18s1.47.43,2.22.15a25.66,25.66,0,0,0,7.44-4.67c4.77-4,9.79-7.76,14.1-12.31,1.07-1.13,2.21-1.8,3.83-.84a5.32,5.32,0,0,0,2.86.27,7.18,7.18,0,0,1,1.3.06,1.12,1.12,0,0,1,.95.81c.15.52-.35.62-.62.88-4.54,4.27-9.31,8.32-13.26,13.19a19.79,19.79,0,0,0-1.7,2.66,1.49,1.49,0,0,0,0,1.85,1.44,1.44,0,0,0,1.72.22,22.44,22.44,0,0,0,2.29-1,52.54,52.54,0,0,0,13.52-10.61,65.12,65.12,0,0,0,9.9-12.45c.88-1.53,1.46-1.54,2.84-.52,1,.7,2,1.33,2.92,2a1.85,1.85,0,0,1,.28,3.1c-.43.44-.9.85-1.28,1.32a6.74,6.74,0,0,0-1.55,6.38c.29,1,.51,2,.81,3.05a1.8,1.8,0,0,0,1.55,1.43c.76.09,1.4-.15,1.31-1-.22-2.11,1-3.53,2.34-4.78A75.16,75.16,0,0,1,157,120.82c4.44-2.79,9.15-2.49,13.85-1.2a2.3,2.3,0,0,0,2.94-1c.27-.38.41-.94,1-.85s1.31,0,1.65.63-.19,1.08-.54,1.49c-3.09,3.61-6.28,7.13-9.7,10.43a13.07,13.07,0,0,1-1.9,1.41c-.44.29-1,.6-1.43.11a1.11,1.11,0,0,1,.23-1.63,4,4,0,0,0,1.22-1.69,1.68,1.68,0,0,0-.31-1.84c-.53-.53-1.06-.09-1.57.12a21.42,21.42,0,0,0-9.51,7.45,6.08,6.08,0,0,0-.3,6.92c1.25,2.35,3.43,3,5.91,2.87a11.25,11.25,0,0,0,7.84-3.55,33.78,33.78,0,0,0,6.4-9.29c2.33-5,5.86-8.74,11.14-10.58a14,14,0,0,1,10.88.82c3.33,1.58,5.49,6.74,3.82,10.09-3.44,6.88-7.72,13.21-14.8,17a22.31,22.31,0,0,1-5.18,1.88,8.31,8.31,0,0,1-8.64-2.82,4.39,4.39,0,0,1-1.23-2.42c-.13-1-.67-1.18-1.42-.49s-1.25,1.24-1.9,1.83c-3.39,3.13-7.11,5.7-11.91,5.87-4.16.15-8.19-.37-11.21-3.79a7.91,7.91,0,0,0-1.73-1.41,1.94,1.94,0,0,0-2.36,0c-3.19,2.58-7,2.85-10.84,2.92a12.15,12.15,0,0,1-6.24-1.83c-.54-.3-1.12-.67-1.13-1.36s.7-.86,1.19-1.07a4.6,4.6,0,0,0,2.38-2.17,2.19,2.19,0,0,1,2.52-1.2,18.81,18.81,0,0,0,2.23.17,4.73,4.73,0,0,0,5.14-4.05,8.92,8.92,0,0,0,.14-3c-.19-1.52-.9-1.86-2.12-1s-2.5,1.94-3.71,3a119.7,119.7,0,0,1-15.5,10.92,19.34,19.34,0,0,1-10.06,3.14c-3.28,0-4.83-1.33-5.43-4.55-.38-2-1.37-2.61-3.28-1.78-1.48.65-2.88,1.49-4.33,2.23A12,12,0,0,1,85,148.81c-3.15.31-5.56-3.19-4.42-6.56.64-1.91,1.56-3.72,2.32-5.59a14.24,14.24,0,0,0,.82-2.35,1.61,1.61,0,0,0-2.08-1.86c-2.47.71-4.62,2.12-6.88,3.27a4.71,4.71,0,0,1-3.92.5c-.56-.21-1.29-.34-1.34-1.09s.6-1.17,1.22-1.38c1.37-.47,2.77-.84,4.16-1.24a11.87,11.87,0,0,0,3.82-1.71,3.94,3.94,0,0,0,1.65-2.45c.37-1.87.94-2.32,2.91-2.3C84.89,126.06,86.52,126,88.7,126Z"/><path class="a" d="M70.23,105.12c-1.8-2.4-3.55-4.72-3-7.68.84-4.61,2.49-8.9,6.31-12,2.3-1.84,4.7-3.55,7-5.35,2-1.54,4.32-1.64,6.66-1.39a2.81,2.81,0,0,1,2.61,2.58c.31,2.65-.15,5-2.41,6.86a86.21,86.21,0,0,1-8.21,6.6,11.17,11.17,0,0,1-4.71,1.89c-2.35.29-3.37,1.41-3,3.12.48,2.57,2.11,4.79,4.56,4.43,8.44-1.22,16.93-2.13,25.44-2.55,7-.34,14-.65,20.93-1.06a5.87,5.87,0,0,1,1.05,0c.78.1,1.05.49.76,1.28A11,11,0,0,1,114,109c-8,.05-16,.21-24,.75A13.93,13.93,0,0,0,79.11,116c-.82,1.16-.6,1.66.86,1.68,2.46,0,4.92-.09,7.38-.16.39,0,.79-.07,1.18-.06a1.88,1.88,0,0,1,1.68.86,1.51,1.51,0,0,1-.34,1.82,10,10,0,0,1-7.33,4.15c-3.25.21-6.48.54-9.7,1a5.33,5.33,0,0,0-3.6,2.15c-3.87,5-7.37,10.19-11.18,15.19A36.07,36.07,0,0,1,54.21,147a12.08,12.08,0,0,1-5.66,3.21,12.1,12.1,0,0,0-3.87,1.6c-1.71,1.09-3.65.74-5.52.71-.66,0-.92-.53-.63-1.13a6.47,6.47,0,0,1,.95-1.41,147.68,147.68,0,0,0,11.77-15.21c1.17-1.74,2.66-3.27,4-4.92.31-.39.85-.89.52-1.38s-1-.17-1.47-.09c-4.53.79-8.67.16-12.08-3.24a8.86,8.86,0,0,1-.73-.75c-.88-1.12-.66-1.82.68-2.21a16.77,16.77,0,0,1,3.79-.44c4.78-.29,9.56-.68,14.36-.63A4.38,4.38,0,0,0,64.5,119a53.38,53.38,0,0,1,3.5-4.45c.32-.4.84-.82.47-1.38s-.91-.29-1.35-.18c-3.81.95-7.69.65-11.55.8a7.06,7.06,0,0,1-3.68-.85c-1.21-.66-1.23-1.38-.1-2.14,2.37-1.59,5.12-2.28,7.79-3.12A98.9,98.9,0,0,1,70.23,105.12Z"/><path class="a" d="M39.68,83.4c1.66.14,3.95-.25,6.22.23a7.77,7.77,0,0,1,5.35,3.7c1.59,2.66,2.65,5.44,2,8.63a7.23,7.23,0,0,1-.9,2.46,28.44,28.44,0,0,1-6.87,7.21,6.06,6.06,0,0,1-2.69,1,10.82,10.82,0,0,0-2.7.57c-4.85,2.27-10.3,2.53-15.21,4.61a7.28,7.28,0,0,1-4.52.38c-1.32-.29-1.62-1-.74-2a9.84,9.84,0,0,1,5.27-3.27,8.71,8.71,0,0,0,6.37-5.17,99.28,99.28,0,0,1,4.57-9.33c.43-.79.9-1.61.36-2.46s-1.53-.67-2.41-.61c-2.62.18-5.24.62-7.88.22a4.77,4.77,0,0,1-2.17-.87c-1.25-.93-1.21-2,.22-2.57,3.28-1.36,6.61-2.63,10.24-2.67C35.81,83.38,37.43,83.4,39.68,83.4Z"/><path class="a" d="M206.32,152.9a9.83,9.83,0,0,1-6.63-2.49,2.61,2.61,0,0,1-.89-3.06,21.29,21.29,0,0,1,2.69-5c.58-.87,1.31-.73,2.18-.28,3.41,1.76,6.8,1.88,10.09-.33a3.49,3.49,0,0,0,1.78-3.18,17.58,17.58,0,0,0-.93-5.29c-.79-2.08-1.74-2.33-3.41-.9s-3.41,2.91-5.08,4.4a28.46,28.46,0,0,1-5,3.14,2.66,2.66,0,0,1-3-.71c-.62-1,0-1.68.59-2.34a8.8,8.8,0,0,1,1.56-1.4c1.79-1.28,3.53-2.63,5.42-3.74A24.09,24.09,0,0,0,215,121.16a6.85,6.85,0,0,1,2.38-2.75,4.73,4.73,0,0,1,6,1.15,1.3,1.3,0,0,1,0,1.69A14.18,14.18,0,0,0,221,134a19.31,19.31,0,0,1,.72,8.34,9.51,9.51,0,0,1-4.19,6.58A22,22,0,0,1,206.32,152.9Z"/><path class="a" d="M60.59,105.09c-4.87,0-7.76-3.85-6.43-8.54A8.17,8.17,0,0,1,58,91.43a22.11,22.11,0,0,1,4-1.94,3.68,3.68,0,0,1,4.15.72A4.52,4.52,0,0,1,66.82,95,8,8,0,0,1,63,98.54c-.58.28-1.42.49-1,1.35s1.14.61,1.82.32a6.47,6.47,0,0,1,1-.41,1.58,1.58,0,0,1,1.58.42,1.34,1.34,0,0,1,.1,1.49C65.68,103.9,63.63,105.09,60.59,105.09Z"/><path class="a" d="M223.35,110.94a3.54,3.54,0,0,1-1.74,3.09q-6.14,4-12.38,7.78c-.89.54-2.16.93-3,.09s0-1.88.52-2.75a8.35,8.35,0,0,1,2-2.39c2.66-2.23,5.39-4.39,6.86-7.7.42-.94,1.22-1.33,2.1-.47a1.16,1.16,0,0,0,1.17.27,12.62,12.62,0,0,1,2.23-.14C222.7,108.74,223.33,109.42,223.35,110.94Z"/><path class="a" d="M131,107.16a3.14,3.14,0,0,1,3.21,2,2.4,2.4,0,0,1-1.31,2.77,43.34,43.34,0,0,0-6.23,5.05,2.57,2.57,0,0,1-3.67.06c-1.05-.84-1.15-1.82-.28-3.28a16,16,0,0,1,4.85-5.47A7.18,7.18,0,0,1,131,107.16Z"/><path class="b" d="M64.83,167c1.22.63,1.9,1.44,1.48,2.72a2.47,2.47,0,0,1-2.61,1.61c-1.1,0-2.2,0-3.29,0-.58,0-.75-.19-.75-.75,0-2.28,0-4.57,0-6.85,0-.48.12-.75.66-.73,1.18,0,2.37,0,3.55.1a2,2,0,0,1,2,1.45A2,2,0,0,1,64.83,167Z"/><path class="c" d="M32.7,171.32c-2.07,0-2.07,0-2.07-2,0-1.8,0-3.6,0-5.4,0-.69.18-1,.89-.9s1.58,0,2.37,0a4,4,0,0,1,4,4.53c-.11,2.2-1.91,3.74-4.4,3.76Z"/><path class="d" d="M217.29,166.91c.14-1.12-.59-2.86.27-3.7s2.51-.16,3.82-.22c.44,0,.88,0,1.32,0s.59.09.59.51-.33.43-.63.43c-1.19,0-2.38.06-3.56,0s-.9.62-.81,1.18-.57,1.64.82,1.6c1,0,1.93,0,2.9,0,.34,0,.73-.07.75.48s-.41.45-.73.45c-1,0-2,0-3,0-.58,0-.72.19-.75.75-.09,2-.12,2,1.88,2h2.63c.36,0,.59.1.6.51s-.33.43-.63.43c-1.58,0-3.16,0-4.74,0-.6,0-.74-.23-.73-.78C217.31,169.42,217.29,168.27,217.29,166.91Z"/><path class="d" d="M150.23,166.9c.14-1.11-.59-2.85.27-3.69s2.51-.16,3.82-.22c.44,0,.88,0,1.32,0s.59.09.59.51-.33.43-.63.43c-1.19,0-2.38.06-3.56,0s-.9.62-.81,1.18-.57,1.64.82,1.6c1,0,1.93,0,2.9,0,.34,0,.73-.07.75.48s-.41.45-.73.45c-1,0-2,0-3,0-.58,0-.72.19-.75.76-.09,2-.12,2,1.89,2h2.63c.36,0,.59.1.6.51s-.33.43-.63.43c-1.58,0-3.16,0-4.74,0-.6,0-.74-.23-.72-.78C150.25,169.42,150.23,168.27,150.23,166.9Z"/><path class="e" d="M193.81,171.32c-2.68.39-4.31-2-4.31-4.17a4.23,4.23,0,0,1,4.24-4.28,4.17,4.17,0,0,1,4.3,4.32C198,169.62,196,171.72,193.81,171.32Z"/><path class="f" d="M88.09,167.18c0-1.1,0-2.2,0-3.3,0-.7.22-.91.9-.9,1.45,0,2.9,0,4.35,0,.39,0,.84-.09.8.55s-.51.36-.79.37c-1.14,0-2.29,0-3.43,0-.64,0-.8.18-.81.81,0,2-.08,2,1.89,2h2c.31,0,.61,0,.64.44s-.36.48-.69.49c-1,0-1.94,0-2.9,0-.62,0-.92.07-.92.83,0,1.94-.06,1.94,1.92,1.94.84,0,1.67,0,2.51,0,.41,0,.69.09.65.58s-.43.35-.7.35c-1.54,0-3.08,0-4.62,0-.68,0-.8-.27-.78-.86C88.12,169.38,88.09,168.28,88.09,167.18Z"/><path class="g" d="M112.66,168.59c0,2.16-.68,2.66-3.26,2.75a3.67,3.67,0,0,1-3.81-2,4.5,4.5,0,0,1,.21-4.63,4.35,4.35,0,0,1,5.83-1.26c.26.16.86.23.55.8s-.62.34-1,.1a3.15,3.15,0,0,0-3.79.16,3.48,3.48,0,0,0-1,3.83,3.29,3.29,0,0,0,4.95,1.71c.72-.5.39-1.19.41-1.8s-.61-.44-1-.48a9.3,9.3,0,0,0-1.05,0c-.35,0-.42-.21-.44-.51s.21-.42.5-.42h1.19C112.66,166.83,112.66,166.83,112.66,168.59Z"/><path class="h" d="M76.21,167.09c0-1.31-.52-3.09.14-3.82s2.56-.27,3.91-.24c.62,0,1.8-.56,1.77.52,0,.81-1.15.26-1.77.36a6.19,6.19,0,0,1-1.84,0c-1.14-.17-1.33.31-1.35,1.36s.29,1.58,1.46,1.44a21.6,21.6,0,0,1,2.37,0c.39,0,.7,0,.7.54s-.39.38-.66.39c-1,0-2,0-3,0-.66,0-.79.21-.8.82,0,2-.08,2,1.81,2h2.64c.39,0,.7.06.67.56s-.42.36-.68.36c-1.58,0-3.16,0-4.74,0-.53,0-.68-.18-.66-.68,0-1.19,0-2.37,0-3.56Z"/><path class="h" d="M122.6,167.22c0-1.1,0-2.2,0-3.29,0-.63.08-1,.84-.94,1.45.05,2.9,0,4.35,0,.41,0,.85,0,.8.56s-.52.35-.81.36c-1.05,0-2.11.05-3.16,0-.75,0-1.09.08-1.05,1,.1,2.18-.21,1.76,1.83,1.8.66,0,1.32,0,2,0,.39,0,.7,0,.69.55s-.4.38-.67.38c-1,0-2,0-3,0-.66,0-.78.22-.8.83,0,2-.08,2,1.82,2H128c.39,0,.7.06.67.57s-.43.35-.69.36c-1.58,0-3.16,0-4.74,0-.53,0-.67-.19-.66-.69C122.62,169.5,122.6,168.36,122.6,167.22Z"/><path class="e" d="M44,171.32a3.93,3.93,0,0,1-4.27-4.2A4.22,4.22,0,0,1,44,162.87a4.14,4.14,0,0,1,4.24,4.34A3.9,3.9,0,0,1,44,171.32Z"/><path class="c" d="M187.34,167.16c0,1.14,0,2.28,0,3.43,0,.31.15.72-.44.74s-.55-.37-.58-.78c-.06-.95.44-2.28-.2-2.74s-1.94-.07-2.93-.2c-1.3-.18-1.72.31-1.53,1.56a11.61,11.61,0,0,1,0,1.71c0,.34-.18.44-.5.45s-.47-.13-.47-.46q0-3.69,0-7.38c0-.31.11-.49.46-.48s.52.23.51.6c0,.7,0,1.41,0,2.11s.13,1.05.93,1a22.12,22.12,0,0,1,2.9,0c.75,0,.88-.29.84-.93a12.5,12.5,0,0,1,0-1.71c0-.42-.28-1.07.55-1.06s.43.64.44,1C187.36,165.05,187.34,166.11,187.34,167.16Z"/><path class="g" d="M175.06,171.2a1.36,1.36,0,0,1-1.78-.59c-.64-.89-1.4-1.69-2-2.59-.4-.57-.62-.47-1.08-.06a2.65,2.65,0,0,0-1.11,2.61c.08.41,0,.79-.57.77s-.43-.44-.43-.74q0-3.42,0-6.85c0-.32-.13-.74.46-.74s.56.41.56.81c0,1.22,0,2.45,0,3.81,2-1.44,3.17-3.84,5.45-4.79l.35.38c-.94.94-1.86,1.91-2.83,2.82-.47.44-.52.73-.08,1.25C173,168.52,174,169.82,175.06,171.2Z"/><path class="g" d="M157.74,171.19l3.44-7.6c.14-.31.23-.66.68-.69s.63.21.78.56l3.49,7.74c-1,.41-1.29-.16-1.47-.85a1.44,1.44,0,0,0-1.81-1.2,5.57,5.57,0,0,1-1.58,0,1.69,1.69,0,0,0-2.2,1.39C158.92,171.17,158.54,171.53,157.74,171.19Z"/><path class="g" d="M104,171.19c-.9.39-1.28-.08-1.42-.73-.25-1.14-.95-1.43-2-1.3a5.42,5.42,0,0,1-1.44,0c-1.16-.17-1.93.17-2.19,1.41-.14.65-.57.94-1.34.63,1.18-2.59,2.35-5.17,3.51-7.75a.75.75,0,0,1,.78-.55c.48,0,.54.39.68.69C101.74,166.1,102.87,168.6,104,171.19Z"/><path class="g" d="M212,171.32a3.54,3.54,0,0,1-2.69-.83c-.25-.19-.52-.36-.2-.73s.43-.36.75-.1a3.67,3.67,0,0,0,2.82.85,1.44,1.44,0,0,0,1.41-1.17c.14-.8-.42-1.21-1.08-1.43s-1.53-.38-2.27-.65a2,2,0,0,1-1.55-2,2.15,2.15,0,0,1,1.62-2.14,4.12,4.12,0,0,1,3.54.46c.27.15.56.3.33.71s-.48.41-.84.16a3.06,3.06,0,0,0-2.5-.52,1.26,1.26,0,0,0-1.12,1.12,1.16,1.16,0,0,0,.91,1.28c.54.19,1.09.34,1.64.49,1.85.52,2.54,1.29,2.32,2.63S214.07,171.32,212,171.32Z"/><path class="c" d="M57.21,166.11q0,.66,0,1.32c0,3-1,3.93-3.93,3.9a2.75,2.75,0,0,1-2.9-2.63c-.16-1.7-.06-3.42-.09-5.14,0-.36.09-.58.51-.56s.51.36.51.73c0,1.45,0,2.9,0,4.35a2.42,2.42,0,0,0,3.41,2.29A2.33,2.33,0,0,0,56.23,168c0-1.36,0-2.73,0-4.09,0-.37-.13-.85.5-.86s.45.52.47.86C57.23,164.61,57.21,165.36,57.21,166.11Z"/><path class="c" d="M207,166.09a23,23,0,0,1,0,2.5,2.88,2.88,0,0,1-2.68,2.74c-3.08.26-3.78-1-4.08-2.49a33.76,33.76,0,0,1-.15-5.26c0-.38.14-.56.53-.58.56,0,.49.36.49.71,0,1.32,0,2.64,0,4,0,1.87.94,2.88,2.53,2.86s2.41-1,2.43-2.93c0-1.19,0-2.37,0-3.56,0-.36-.3-1,.43-1s.51.57.52,1c0,.7,0,1.41,0,2.11Z"/><path class="g" d="M137.19,171.32a3.2,3.2,0,0,1-2.36-.62c-.28-.21-1-.33-.48-1s.67-.11,1,.1a3.5,3.5,0,0,0,2.48.67,1.44,1.44,0,0,0,1.49-1.23c.12-.83-.47-1.17-1.13-1.39s-1.6-.46-2.38-.72a1.92,1.92,0,0,1-1.38-2,2.09,2.09,0,0,1,1.44-2,4,4,0,0,1,3.66.37c.25.14.72.26.37.77s-.5.35-.85.11a3.12,3.12,0,0,0-2.37-.53,1.36,1.36,0,0,0-1.23,1.19,1.19,1.19,0,0,0,1,1.25c.5.17,1,.31,1.51.45,1.93.52,2.66,1.32,2.44,2.69S139.19,171.32,137.19,171.32Z"/><path class="i" d="M144.51,167.62q0-.72,0-1.45c0-2.11,0-2.1-2.13-2.24-.31,0-.73.15-.73-.45s.38-.49.73-.49h5.14c.33,0,.72-.1.75.46s-.37.46-.7.48c-2.07.15-2.07.15-2.07,2.3,0,1.32,0,2.64,0,4,0,.39.36,1.1-.45,1.12s-.45-.77-.5-1.18A24.81,24.81,0,0,1,144.51,167.62Z"/><path class="d" d="M115,167.13c0-1.05,0-2.1,0-3.15,0-.35-.31-1,.46-1s.54.54.54.94c0,1.84,0,3.68,0,5.52,0,.77.23,1,1,.93,1-.06,2,0,3,0,.39,0,.7.05.69.55s-.39.38-.66.38c-1.45,0-2.89,0-4.34,0-.64,0-.7-.27-.69-.78C115,169.41,115,168.27,115,167.13Z"/><path class="d" d="M68.52,167.17c0-1.14,0-2.29,0-3.43,0-.32-.14-.74.45-.75s.58.39.57.8c0,1.85,0,3.7,0,5.54,0,.9.27,1.13,1.11,1.07s1.76,0,2.64,0c.37,0,.86-.13.84.51s-.57.4-.89.41c-1.27,0-2.55,0-3.83,0-.67,0-.93-.15-.89-.86C68.56,169.38,68.52,168.27,68.52,167.17Z"/><path class="j" d="M181.18,141.89c-2.28,0-3.28-1.22-2.68-3.37a17.13,17.13,0,0,1,5.06-8.33,18.11,18.11,0,0,1,5.26-3.68c.46-.18,1-.52,1.48,0s.11.88,0,1.34c-.24.95-.51,2,1.14,1.62.39-.09.44.19.45.46a1.9,1.9,0,0,1-.07.65c-1.52,4.68-4.17,8.48-8.6,10.85a4.68,4.68,0,0,1-1.12.36C181.74,141.83,181.39,141.85,181.18,141.89Z"/><path class="k" d="M76.28,91.53c-.5,0-.56-.33-.4-.72A4.11,4.11,0,0,1,77.13,89a19.54,19.54,0,0,1,4-2.5c.55-.24,1-.27.84.55C81.72,88.45,77.72,91.61,76.28,91.53Z"/><path class="j" d="M46.76,93.33a7,7,0,0,1-.9,3.1,19.88,19.88,0,0,1-4.2,5,3.69,3.69,0,0,1-.88.57,1.61,1.61,0,0,1-1.85,0c-.57-.49-.32-1.16-.07-1.7,1.2-2.57,2.45-5.12,3.68-7.68a2.26,2.26,0,0,1,.21-.33c.65-.89,1.47-1.68,2.61-1.39S46.61,92.39,46.76,93.33Z"/><path class="l" d="M61.8,93.71c.53,0,1.07,0,.94.58s-.39,1.6-1.22,1.68a1.17,1.17,0,0,1-1.16-1.2C60.38,93.79,61.37,94,61.8,93.71Z"/><path class="k" d="M62.76,167.57a9,9,0,0,1,1.49.14A1.26,1.26,0,0,1,65.38,169a1.3,1.3,0,0,1-1.07,1.31,11.66,11.66,0,0,1-3.14.19c-.39,0-.55-.19-.53-.57,0-.18,0-.35,0-.53C60.68,167.2,60.35,167.64,62.76,167.57Z"/><path class="m" d="M62.26,166.75c-1.52-.05-2.12-.95-1.6-2.46a.67.67,0,0,1,.18-.32,7.61,7.61,0,0,1,3.71.39,1.28,1.28,0,0,1-.6,2.18A9.92,9.92,0,0,1,62.26,166.75Z"/><path class="n" d="M31.6,167.22q0-.72,0-1.45c0-2,0-2,2-1.84a3.22,3.22,0,0,1,3.27,3.24,3.14,3.14,0,0,1-3.26,3.22c-.35,0-.71,0-1.05,0-.72.08-1-.17-1-.94S31.6,168,31.6,167.22Z"/><path class="n" d="M197,167.16a3.2,3.2,0,0,1-3.11,3.36,3.36,3.36,0,0,1,0-6.73A3.31,3.31,0,0,1,197,167.16Z"/><path class="j" d="M47.17,167.23a3.15,3.15,0,0,1-3.15,3.3,3.37,3.37,0,1,1,3.15-3.3Z"/><path class="o" d="M161.91,164.21c.59,1.28,1.1,2.38,1.6,3.48.23.5-.06.6-.49.6H160.1Z"/><path class="o" d="M99.83,164.19c.55,1.25,1,2.34,1.51,3.38.34.68,0,.69-.52.73-2.93.18-2.93.19-1.74-2.46Z"/><path class="p" d="M227.44,132.29a3.44,3.44,0,1,0-3.44-3.44,3.44,3.44,0,0,0,3.44,3.44Zm0-.59a2.86,2.86,0,1,1,2.86-2.86,2.86,2.86,0,0,1-2.86,2.86Z"/><path class="p" d="M226.73,129.14h.68l1,1.7h.67L228,129.11a1,1,0,0,0,1-1.08c0-.78-.46-1.12-1.39-1.12h-1.5v3.93h.59v-1.7Zm0-.5v-1.22h.81c.41,0,.86.09.86.58s-.45.64-1,.64Z"/></svg>