<svg xmlns="http://www.w3.org/2000/svg" viewBox="0 0 250 250"><defs><style>.a,.b{fill:#0074ac;}.a,.c{fill-rule:evenodd;}.c{fill:#e61e29;}</style></defs><title>Fast Food</title><path class="a" d="M164.62,114.59a4.25,4.25,0,1,1-4.25,4.25,4.25,4.25,0,0,1,4.25-4.25ZM221.9,130.2c.22-7.13,11.67-7.78,18.3-3.76l-2.45,4.82a9.77,9.77,0,0,0-6.78-2.12c-2.39.2-2.65,2.79,1.23,2.7,6-.15,9.31,3,9,7.11-.52,6.6-10.91,9.29-20,3.51l3.35-4.9c2.53,1.46,5.06,2.76,7.6,2.45s4-2.44-.74-2.94c-6.41-.68-9.6-2.72-9.48-6.86Zm-50,15.43V125.31h7.39v2.85c2.87-4.76,14-4.83,14,2.6v14.86H186l-.08-10.21c0-4.08-1.52-4.47-3.52-4.24-1.66.19-3.15.79-3.15,4.24v10.21Zm-11.17-20.67h7.68v20.67h-7.68V124.95Zm-37.46,20.67V125.31h7.39v2.85c2.21-3.7,10.75-5.5,13.21.23,3.49-5.21,13.68-5,13.68,2.11v15.12h-7.84V134.51c0-3-.51-3.27-3-3.16-2.05.09-2.52,1.79-2.53,3.73l0,10.54h-7.37l-.08-10.21c0-4.08-.93-4.43-2.94-4.24s-2.86.46-2.86,4.24v10.21ZM110,123.8a10.91,10.91,0,1,1-10.91,10.91A10.91,10.91,0,0,1,110,123.8Zm0,7a3.88,3.88,0,1,1-3.88,3.88,3.88,3.88,0,0,1,3.88-3.88ZM69.11,145.62V116.86h8.55a46.67,46.67,0,0,1,7,.44,15.53,15.53,0,0,1,4.69,1.37,14.63,14.63,0,0,1,5.86,5.2,14.37,14.37,0,0,1,0,14.73,14.66,14.66,0,0,1-5.87,5.2,15.69,15.69,0,0,1-4.73,1.38,54.12,54.12,0,0,1-7.69.43Zm8.54-7.6V124.46h3.49a16.55,16.55,0,0,1,2.84.21,5.73,5.73,0,0,1,1.91.65,6.36,6.36,0,0,1,2.39,2.45,7.69,7.69,0,0,1,0,6.95,6.38,6.38,0,0,1-2.4,2.45,5.78,5.78,0,0,1-1.93.65,19.17,19.17,0,0,1-3.14.2ZM206.31,123.8a10.91,10.91,0,1,1-10.91,10.91,10.91,10.91,0,0,1,10.91-10.91Zm0,7a3.88,3.88,0,1,1-3.88,3.88,3.88,3.88,0,0,1,3.88-3.88Zm13.18-16.2a4.13,4.13,0,0,1,3.77,2.45,5.92,5.92,0,0,1,.23,3.71c-.46,1.82-2,3.6-5.23,5.28l-.89-1.21a9.3,9.3,0,0,0,1.55-1.47c.47-.71-.14-.54-.66-.7a4.13,4.13,0,0,1,1.23-8.07Z"/><path class="b" d="M243.78,124.75a1.84,1.84,0,0,1,.88.23,1.65,1.65,0,0,1,.67.66,1.8,1.8,0,0,1,0,1.79,1.66,1.66,0,0,1-.66.66,1.8,1.8,0,0,1-1.78,0,1.67,1.67,0,0,1-.66-.66,1.79,1.79,0,0,1,0-1.79,1.65,1.65,0,0,1,.67-.66,1.84,1.84,0,0,1,.88-.23Zm0,.3a1.53,1.53,0,0,0-.74.19,1.39,1.39,0,0,0-.56.55,1.49,1.49,0,0,0,0,1.49,1.41,1.41,0,0,0,.55.55,1.49,1.49,0,0,0,1.49,0,1.4,1.4,0,0,0,.55-.55,1.5,1.5,0,0,0,0-1.49,1.38,1.38,0,0,0-.56-.55,1.53,1.53,0,0,0-.73-.19Zm-.79,2.49v-1.93h.66a1.63,1.63,0,0,1,.49.05.48.48,0,0,1,.24.19.5.5,0,0,1,.09.28.51.51,0,0,1-.15.37.6.6,0,0,1-.4.18.52.52,0,0,1,.16.1,2.2,2.2,0,0,1,.29.38l.24.38h-.38l-.17-.3a1.55,1.55,0,0,0-.33-.45.4.4,0,0,0-.25-.07h-.18v.82Zm.31-1.09h.38a.61.61,0,0,0,.37-.08.28.28,0,0,0,.05-.37.28.28,0,0,0-.13-.1,1,1,0,0,0-.31,0h-.35v.58Z"/><path class="c" d="M21.95,115.67,37.82,99.85a1.71,1.71,0,0,1,2.41,0l15,15a1.71,1.71,0,0,1,0,2.41L39.33,133.11,21.95,115.67Zm14.22-2.81a4.26,4.26,0,1,1,0,6,4.26,4.26,0,0,1,0-6Z"/><path class="a" d="M24.18,131a4.26,4.26,0,1,1,0,6,4.26,4.26,0,0,1,0-6Zm-12.47,0a4.26,4.26,0,1,1,0,6,4.26,4.26,0,0,1,0-6Zm-6.78,1.58L20.8,116.81l17.38,17.44L22.31,150.07a1.71,1.71,0,0,1-2.41,0l-15-15a1.71,1.71,0,0,1,0-2.41Z"/><path class="b" d="M27.83,150.64v-2.13H27v-.37h2v.37h-.82v2.13Zm1.51,0v-2.5H30l.63,2,.61-2h.6v2.5h-.38v-2.1l-.64,2.1h-.38l-.67-2.13v2.13Z"/></svg>