<svg xmlns="http://www.w3.org/2000/svg" viewBox="0 0 250 250"><title>CR</title><circle cx="89.01" cy="121.18" r="51.18" style="fill:#fff"/><path d="M128.67,153.07a13.78,13.78,0,0,1-2.12,2.63,47.66,47.66,0,0,1-6.4,5.88,54.31,54.31,0,0,1-8.44,5.31,43.44,43.44,0,0,1-5.57,2.37A53.16,53.16,0,0,1,94.7,171.9a52.27,52.27,0,0,1-10.94.09,48.88,48.88,0,0,1-8.48-1.61,62.75,62.75,0,0,1-6.09-2.07,2.51,2.51,0,0,1-1.23-.66c.27,0,.48-.2.73-.24,1.44-.26,2.85-.67,4.27-1l7.48-1.84,6-1.53c1-.26,2.12-.45,3.14-.77.85-.27,1.71-.44,2.57-.66a14.25,14.25,0,0,1,2.35-.55c.25,0,.32-.28.25-.53q-.28-1.11-.57-2.22c-.31-1.19-.64-2.37-.94-3.56s-.52-2.26-.82-3.38-.66-2.43-.89-3.66c-.11-.58-.33-.74-.87-.53-.13,0-.28,0-.41.08a5.92,5.92,0,0,0-1.45.43c-.34-1.35-.69-2.69-1-4s-.72-2.86-1.07-4.29c-.06-.24-.14-.39-.39-.32-1.43.37-2.85.79-4.29,1.11s-2.79.68-4.18,1L71,142.86l-5.91,1.47a8.12,8.12,0,0,1-2,.46c.23-.19,0-.62.49-.72,1.76-.41,3.51-.88,5.27-1.31l4.5-1.11L80.07,140c.34-.09.52-.19.43-.61-.29-1.37-.66-2.72-1-4.07-.77-3-1.53-6-2.28-9-.09-.35-.23-.36-.5-.29l-2.45.63c-.44-1.23-.65-2.53-1-3.79q-.42-1.55-.79-3.11c-.1-.41-.26-.49-.68-.38-3.14.81-6.27,1.63-9.43,2.38a46.79,46.79,0,0,1-4.66,1.08,5.79,5.79,0,0,0-.12-1.08c-.1-.27.05-.42.3-.49l5-1.24c2.36-.59,4.71-1.18,7.07-1.76l2.36-.58c.72-.17,1.46-.33,2.17-.52a16.54,16.54,0,0,1,2.44-.63,26,26,0,0,0,2.59-.6c1.09-.24,2.17-.56,3.26-.83.64-.16.63-.53.46-.84a5.28,5.28,0,0,1-.38-1.36q-.68-2.61-1.35-5.22c-.18-.7-.34-1.4-.51-2.1-.29-1.18-.56-2.37-.89-3.55-.09-.31,0-.71-.3-.95s-.65.12-1,.18a4.1,4.1,0,0,0-1.57.44c-.32-1.27-.62-2.55-1-3.82-.19-.68-.38-1.37-.5-2.06-.08-.48-.32-.46-.62-.37-1.62.47-3.27.83-4.91,1.23-2.56.63-5.11,1.3-7.67,1.95-1.56.39-3.14.73-4.69,1.16s-2.94.7-4.39,1.14c-1.13.34-2.32.52-3.47.8s-2.26.68-3.42.9-2.31.57-3.47.82c-.52.11-1,.28-1.55.41-.17,0-.38.14-.52,0s-.05-.36,0-.51A62.43,62.43,0,0,1,44.58,96a58.92,58.92,0,0,1,4-6.1A42.05,42.05,0,0,1,54,84a53.8,53.8,0,0,1,11.55-8.07,49.33,49.33,0,0,1,6.19-2.67c1.65-.57,3.32-1.05,5-1.47a54.28,54.28,0,0,1,7.43-1.26,64.64,64.64,0,0,1,8.77-.12,25.13,25.13,0,0,1,4,.47c1.69.33,3.38.66,5.05,1.11,1.23.34,2.46.68,3.67,1.08a43.33,43.33,0,0,1,4.51,1.82,53,53,0,0,1,9.54,5.69c1,.76,2,1.61,3,2.43.13.11.33.29.32.41s-.32.18-.5.23c-1.87.5-3.75.92-5.62,1.44-1.47.41-3,.69-4.46,1.06-1.13.28-2.23.67-3.36.89-.86.17-1.7.38-2.55.57-1.14.25-2.25.58-3.38.87l-3.15.8-5.74,1.42c-1.68.42-3.36.84-5,1.24-.49.12-.67.31-.53.84.49,1.87,1,3.75,1.42,5.63.42,1.73.94,3.43,1.27,5.18.05.29.08.83.66.73a2.35,2.35,0,0,0,.09,1.23c.4,1.12.57,2.3.9,3.44s.58,2.25.85,3.38c.07.28.26.39.49.29a9.41,9.41,0,0,1,1-.26c1.65-.51,3.35-.85,5-1.28,1.13-.29,2.25-.67,3.4-.91.75-.16,1.48-.41,2.24-.53,1-.15,1.85-.53,2.8-.67a5.85,5.85,0,0,1,1.68-.32c-.32,1.41-.82,2.77-1.23,4.15q-.85,2.86-1.76,5.7c-.46,1.44-1,2.87-1.4,4.32s-.83,2.94-1.29,4.4c-1.2,3.86-2.44,7.72-3.65,11.58-.57,1.82-1.1,3.66-1.68,5.49-.44,1.41-.92,2.82-1.38,4.22a.5.5,0,0,0,0,.47c.13.17.3,0,.44,0l4.78-1.21a5.14,5.14,0,0,1,.78-.07c-.33,1.16-.77,2.29-1.09,3.45s-.76,2.39-1.13,3.59c-.49,1.57-1,3.15-1.46,4.73-.12.39,0,.52.4.4,1-.28,2-.51,3-.75,1.91-.47,3.82-.92,5.73-1.4s3.59-.94,5.39-1.38,3.86-.86,5.76-1.39c1.61-.45,3.25-.78,4.86-1.22a11.23,11.23,0,0,0,1.48-.37A2.58,2.58,0,0,1,128.67,153.07ZM97.83,121.16a2.52,2.52,0,0,1,.05-.53c.45-1.42.93-2.83,1.37-4.26.38-1.24.7-2.5,1.08-3.75.05-.17.22-.33,0-.47s-.34-.06-.52,0c-.39.13-.78.28-1.17.38-1.13.28-2.28.51-3.41.8s-2.2.62-3.31.9-2.27.5-3.4.79c-1.45.37-2.87.81-4.33,1.14s-2.68.65-4,1c-.34.08-.39.26-.31.51.21.66.33,1.34.5,2,.43,1.74,1,3.45,1.36,5.2.31,1.47.86,2.88,1,4.38,0,.28.24.26.44.3.44.09.78-.29,1.21-.24a14,14,0,0,0,.73,3.34c.48,1.86.91,3.72,1.35,5.59.06.24.2.27.39.28a6,6,0,0,0,1.1-.21c1.3-.16,2.55-.57,3.83-.82,1.92-.38,3.81-.93,5.74-1.3a.84.84,0,0,0,.69-.73,22.18,22.18,0,0,1,.83-2.89c.54-1.7,1-3.42,1.61-5.11.45-1.34.87-2.69,1.29-4,.29-.95.56-1.91.84-2.86.08-.28.07-.52-.32-.43-.72.15-1.43.34-2.15.5Z" style="fill:#50fd02"/><path d="M108.23,70.14c.18-.22.41-.1.62-.07,2,.33,3.91.71,5.85,1.16,1.43.33,2.86.68,4.27,1.08a80.2,80.2,0,0,1,11.12,4,48.88,48.88,0,0,1,11.69,7.33,52.83,52.83,0,0,1,7.64,8.07,57.56,57.56,0,0,1,5.49,8.71,54.3,54.3,0,0,1,2.65,6.1c.68,1.86,1.29,3.74,1.78,5.67a50.51,50.51,0,0,1,1.31,7c0,.4.1.8.14,1.2s-.09.5-.44.59c-2,.49-4,1-6,1.5-1.53.37-3.08.63-4.59,1.06s-3,.64-4.46,1.13a6.45,6.45,0,0,0-1,.23c-.24.12-.3-.09-.3-.3,0-.36,0-.73,0-1.09a51.85,51.85,0,0,0-.27-7.08,42.58,42.58,0,0,0-.62-4.22c-.2-1-.36-2-.58-2.92-.27-1.13-.58-2.24-.9-3.36a49.64,49.64,0,0,0-1.73-4.89,57.81,57.81,0,0,0-4-8,53.52,53.52,0,0,0-8.56-10.74,55.11,55.11,0,0,0-12.52-9.16,50.21,50.21,0,0,0-6.39-2.89S108.25,70.18,108.23,70.14Z" style="fill:#fd7903"/><path d="M157.21,145.28a54.85,54.85,0,0,1-28.13,29c-13,6-26.48,7.64-40.41,3.22a.77.77,0,0,1,.61-.13,43.37,43.37,0,0,0,5.07-.31,40.38,40.38,0,0,0,4.92-.73,56.05,56.05,0,0,0,19-7.63A55.12,55.12,0,0,0,133,155a44.32,44.32,0,0,0,2.65-4,1.23,1.23,0,0,1,.83-.61l6.69-1.68c1.51-.38,3-.84,4.53-1.16,1.14-.24,2.26-.57,3.4-.82s2.36-.62,3.54-.91C155.45,145.64,156.26,145.48,157.21,145.28Z" style="fill:#fd7903"/><path d="M88.79,147.67a5.92,5.92,0,0,1,1.45-.43c.13,0,.28,0,.41-.08.53-.21.76-.05.87.53.23,1.24.57,2.45.89,3.66s.53,2.26.82,3.38.63,2.37.94,3.56q.29,1.11.57,2.22c.06.25,0,.51-.25.53a14.25,14.25,0,0,0-2.35.55c-.85.22-1.72.39-2.57.66-1,.32-2.1.51-3.14.77l-6,1.53-7.48,1.84c-1.42.34-2.82.76-4.27,1-.24,0-.45.25-.73.24a11.52,11.52,0,0,1-3-1.37,51.27,51.27,0,0,1-8.83-5.94l-.32-.26c-.25-.22-.18-.38.12-.45l5.33-1.32,6.66-1.66c1.54-.38,3.08-.75,4.62-1.14s3-.84,4.51-1.17c1.2-.26,2.37-.61,3.57-.84s2.4-.62,3.6-.92c1.59-.4,3.19-.79,4.78-1.19.68-.17.67-.27.48-1A20.63,20.63,0,0,1,88.79,147.67Z" style="fill:#03c21d"/><path d="M128.67,153.07a2.58,2.58,0,0,0-1.62.31,11.23,11.23,0,0,1-1.48.37c-1.61.44-3.24.78-4.86,1.22-1.9.53-3.85.92-5.76,1.39s-3.59.93-5.39,1.38-3.82.93-5.73,1.4c-1,.24-2,.48-3,.75-.45.12-.52,0-.4-.4.49-1.58,1-3.15,1.46-4.73.37-1.2.8-2.38,1.13-3.59s.76-2.29,1.09-3.45c.26-.38.71-.23,1.05-.33,1.17-.34,2.38-.56,3.56-.9s2.33-.5,3.46-.91a2.59,2.59,0,0,1,.66-.06,1.7,1.7,0,0,0,.54,0c1.08-.43,2.24-.58,3.35-.91,1.47-.43,3-.68,4.49-1,1.77-.42,3.53-.87,5.29-1.32l8.91-2.28c.22-.06.48-.28.67,0s0,.48-.14.7a.94.94,0,0,0,0,.36,12.33,12.33,0,0,1-1.06,2.53,49.63,49.63,0,0,1-4.71,7.82A6.49,6.49,0,0,1,128.67,153.07Z" style="fill:#03c21d"/><path d="M146.56,135.09c-.21,1.34-.4,2.51-.57,3.68q-.35,2.39-.68,4.79a12.73,12.73,0,0,0-.14,1.32,1.06,1.06,0,0,1-1,1.1c-1.18.18-2.3.56-3.46.82-.52.12-.54-.08-.48-.46.12-.74.23-1.47.35-2.21.22-1.37.4-2.74.68-4.1s.39-2.56.64-3.83c.14-.69.23-1.41.34-2.12.21-1.33.35-2.68.66-4,.13-.56.16-1.15.24-1.72a.89.89,0,0,1,.8-.86c1.21-.3,2.43-.57,3.63-.88a.48.48,0,0,1,.69.34c1.06,2.54,2.13,5.07,3.2,7.61.06.14,0,.35.28.33s.22-.2.27-.36c1.11-3.08,2.26-6.14,3.32-9.23.3-.89,1-.9,1.64-1.08.91-.26,1.85-.41,2.75-.72.56-.19.75-.06.84.54.48,2.94,1,5.88,1.45,8.83.21,1.31.36,2.63.57,3.94s.42,2.48.65,3.71c.06.34,0,.6-.35.7l-3.86,1c-.55.14-.72,0-.77-.58-.11-1.56-.41-3.1-.57-4.65-.12-1.22-.39-2.44-.46-3.67,0-.16.06-.39-.21-.43s-.23.2-.29.35q-1.75,4.6-3.51,9.19a7,7,0,0,0-.29.79c-.16.65-.71.74-1.25.84-1.07.2-1,.19-1.46-.82-1.11-2.58-2.27-5.13-3.41-7.7A5.07,5.07,0,0,0,146.56,135.09Z" style="fill:#06c221"/><path d="M127.44,128.75a13.36,13.36,0,0,1-2.53.72c-1.24.35-2.51.61-3.75,1-.66.19-1.34.28-2,.51-.23.08-.45.09-.32-.35.49-1.62,1-3.23,1.5-4.86,1-3.68,2.28-7.3,3.35-11,.67-2.31,1.44-4.6,2.16-6.9.46-1.5.89-3,1.36-4.52.54-1.74,1.11-3.46,1.65-5.2s1.07-3.56,1.61-5.34a1.28,1.28,0,0,1,.1-.28c.07-.12.07-.31.22-.33s.25.18.33.31c1,1.56,2,3.11,2.86,4.75.69,1.31,1.29,2.65,1.91,4a1.35,1.35,0,0,1,0,.42c-.46,1-.58,2.19-1,3.25-.27.69-.44,1.42-.67,2.12a24.11,24.11,0,0,0-.77,2.41c-.21,1-.58,2-.87,3-.62,2.11-1.3,4.2-2,6.3-.49,1.57-1,3.13-1.46,4.71-.36,1.23-.8,2.44-1.11,3.69A3.32,3.32,0,0,1,127.44,128.75Z" style="fill:#03c21d"/><path d="M77.25,101.62a4.1,4.1,0,0,1,1.57-.44c.31-.06.59-.42,1-.18s.22.63.3.95c.33,1.17.6,2.36.89,3.55.17.7.33,1.4.51,2.1q.67,2.61,1.35,5.22a5.28,5.28,0,0,0,.38,1.36c.17.3.18.68-.46.84-1.08.28-2.17.6-3.26.83a26,26,0,0,1-2.59.6,16.54,16.54,0,0,0-2.44.63c-.72.2-1.45.35-2.17.52l-2.36.58c-2.36.58-4.72,1.17-7.07,1.76l-5,1.24c-.25.06-.41.22-.3.49a5.79,5.79,0,0,1,.12,1.08,4.6,4.6,0,0,1-1.57.44.21.21,0,0,1-.26-.19c-.16-.71-.33-1.43-.51-2.14s-.48-1.66-.65-2.5-.35-1.57-.56-2.35c-.15-.53-.27-1.07-.42-1.6s-.12-.66.45-.79c1.86-.41,3.7-.92,5.55-1.38,1.54-.39,3.09-.75,4.63-1.14s3-.79,4.5-1.16c.84-.21,1.71-.34,2.54-.58s1.63-.41,2.44-.63,1.56-.41,2.36-.57,1.49-.43,2.26-.54c.33,0,.23-.34.18-.54-.44-1.66-.89-3.31-1.21-5C77.39,101.92,77.16,101.83,77.25,101.62Z" style="fill:#03c21d"/><path d="M74.26,126.57l2.45-.63c.28-.07.42-.06.5.29.74,3,1.51,6,2.28,9,.35,1.35.72,2.7,1,4.07.09.42-.09.53-.43.61l-6.67,1.68-4.5,1.11c-1.76.44-3.5.9-5.27,1.31-.45.1-.25.53-.49.72-.41.35-1,.16-1.42.43-.17.11-.28-.06-.33-.24l-1-3.81c-.4-1.56-.77-3.12-1.2-4.66-.25-.89-.15-1.07.72-1.27,1.57-.35,3.12-.76,4.68-1.15,1.23-.3,2.46-.6,3.69-.91s2.29-.66,3.45-.91c.81-.17,1.61-.42,2.43-.55.34-.05.61-.28,1-.27s.14-.23.11-.36c-.31-1.31-.63-2.62-1-3.92A1.23,1.23,0,0,1,74.26,126.57Z" style="fill:#03c21d"/><path d="M189.13,128q0,.56,0,1.13,0,2.12,0,4.24c0,1.28,0,1.32-1.27,1.58-1,.2-2,.45-2.92.73-.67.19-.77.12-.77-.57,0-5.7,0-11.39,0-17.09,0-.57.23-.75.74-.85.88-.18,1.75-.44,2.62-.66s1.49-.38,2.24-.55c1-.22,1.94-.47,2.93-.62a4.22,4.22,0,0,1,4.28,1.33,4.5,4.5,0,0,1,.85,3.07,6.78,6.78,0,0,1-1.61,4.35,7.13,7.13,0,0,1-1.82,1.51c-.45.26-.37.47-.07.78q2.55,2.66,5.09,5.33a1,1,0,0,1,.1.16,5.59,5.59,0,0,1-1.76.55c-1.17.33-2.38.54-3.55.89a.8.8,0,0,1-1-.33c-1.15-1.54-2.32-3.06-3.49-4.59-.12-.15-.25-.29-.37-.44ZM189,122.1h0c0,.52,0,1.05,0,1.57s.1.67.64.55a5.3,5.3,0,0,0,.83-.29c1.4-.55,2.41-1.35,2.18-3.19a1.16,1.16,0,0,0-1-1.1,5.44,5.44,0,0,0-2.16.12.59.59,0,0,0-.5.7C189.07,121,189,121.55,189,122.1Z" style="fill:#06c221"/><path d="M127.44,128.75a3.32,3.32,0,0,0,.67-1.66c.31-1.25.75-2.46,1.11-3.69.46-1.58,1-3.14,1.46-4.71.66-2.1,1.34-4.19,2-6.3.29-1,.66-1.94.87-3a24.11,24.11,0,0,1,.77-2.41c.23-.71.4-1.43.67-2.12.41-1.06.53-2.21,1-3.25a12.4,12.4,0,0,1,1.18,2.85,47.6,47.6,0,0,1,2,7.7,49.08,49.08,0,0,1,.77,11.68c0,.46-.12.92-.12,1.38a.54.54,0,0,1-.46.6c-3.24.81-6.48,1.62-9.73,2.41A9.94,9.94,0,0,1,127.44,128.75Z" style="fill:#50fd02"/><path d="M110.5,108.66a5.85,5.85,0,0,0-1.68.32c-.95.13-1.84.51-2.8.67-.76.12-1.49.37-2.24.53-1.14.24-2.26.61-3.4.91-1.67.43-3.37.77-5,1.28a9.41,9.41,0,0,0-1,.26c-.23.1-.42,0-.49-.29-.28-1.13-.53-2.26-.85-3.38s-.5-2.32-.9-3.44a2.35,2.35,0,0,1-.09-1.23,21.51,21.51,0,0,1,2.42-.67c1.23-.34,2.47-.62,3.7-.94.82-.21,1.65-.41,2.48-.59,1.15-.24,2.27-.59,3.41-.88l2.24-.55L111,99.51c.74-.18,1.48-.39,2.22-.59.12,0,.26-.06.34,0s0,.22,0,.34c-.39,1.25-.76,2.5-1.15,3.75q-.66,2.1-1.35,4.2A5.42,5.42,0,0,1,110.5,108.66Z" style="fill:#03c21d"/><path d="M39.36,112.59l10.07,39.72-.23.08a50.71,50.71,0,0,1-9.13-18.65,51.75,51.75,0,0,1-.9-21.12Z" style="fill:#06c221"/><path d="M212.17,110.87c0-.48-.23-.54-.62-.44-1.16.31-2.32.62-3.48.92l-8.3,2.08a.41.41,0,0,0-.35.47c0,1.13,0,2.26,0,3.4,0,.27.12.41.36.31.77-.33,1.62-.34,2.4-.65s1.12-.16,1.12.8q0,3.06,0,6.12c0,2,0,4,0,6,0,.34-.13.75.1,1s.58-.13.89-.14h.06c1.14-.27,2.29-.52,3.43-.81.32-.08.45-.31.44-.67,0-1.54,0-3.07,0-4.61q0-4.34,0-8.67c0-.33,0-.51.44-.6,1-.18,1.94-.48,2.9-.74.34-.09.63-.22.62-.68C212.14,112.94,212.15,111.91,212.17,110.87Z" style="fill:#06c221"/><path d="M135.92,141a.94.94,0,0,1,0-.36c.13-.23.35-.46.14-.7s-.46,0-.67,0l-8.91,2.28c-1.76.45-3.52.9-5.29,1.32-1.49.36-3,.61-4.49,1-1.11.33-2.27.47-3.35.91a1.7,1.7,0,0,1-.54,0c.36-.36.86-.31,1.29-.43,2.88-.75,5.77-1.43,8.66-2.14l7.06-1.75q3.13-.79,6.26-1.62c.38-.1.34.16.3.31A2.08,2.08,0,0,1,135.92,141Z" style="fill:#50fd02"/><path d="M182.72,135.77c-.75-1.73-1.44-3.48-2.19-5.2a9,9,0,0,0-.94-2,1.41,1.41,0,0,0-.06-.35c-.61-1.35-1.15-2.73-1.7-4.11s-1.17-2.74-1.74-4.12c-.15-.37-.32-.46-.73-.35-1.18.32-2.39.55-3.57.88-.58.16-1.28.15-1.47,1a21.87,21.87,0,0,1-.87,2.54q-1.46,4.17-2.93,8.34c-.63,1.78-1.3,3.55-1.9,5.34a20.45,20.45,0,0,0-.83,2.57.46.46,0,0,0-.18.62c.12.18.37.08.56,0,1-.29,2-.51,3-.79.41-.12.92,0,1.26-.42l.15,0a.17.17,0,0,0,.23-.13c.17-.51.36-1,.52-1.53.33-1.07.65-2.15,2.1-2.1.05,0,.11-.05.17-.07l4.31-1.1a.56.56,0,0,1,.77.45,18.39,18.39,0,0,0,.72,1.79c.17.4.39.6.88.38a9.21,9.21,0,0,1,1.45-.37l2.79-.72C182.84,136.2,182.86,136.08,182.72,135.77Zm-11.35-4c.61-1.54,1-3.16,1.56-4.72.09-.24.15-.49.26-.84a7.19,7.19,0,0,1,.84,1.92c.37.89.67,1.8,1,2.71.07.19.16.35-.18.43-1.07.27-2.13.56-3.22.77C171.29,132.08,171.32,131.89,171.37,131.76Z" style="fill:#06c221"/><path d="M84.46,129.3c-.43-.06-.77.33-1.21.24-.2,0-.4,0-.44-.3-.18-1.5-.73-2.91-1-4.38-.37-1.75-.93-3.46-1.36-5.2-.16-.67-.29-1.35-.5-2-.08-.25,0-.43.31-.51,1.34-.33,2.67-.67,4-1s2.88-.78,4.33-1.14c1.13-.29,2.27-.51,3.4-.79s2.2-.62,3.31-.9,2.28-.52,3.41-.8c.4-.1.78-.25,1.17-.38.18-.06.38-.12.52,0s0,.31,0,.47c-.37,1.24-.7,2.5-1.08,3.75-.44,1.43-.92,2.84-1.37,4.26a2.52,2.52,0,0,0-.05.53c-.05.13-.19.17-.24.33-.33,1.21-.71,2.41-1,3.64a1.78,1.78,0,0,1-1.5,1.5c-1.46.29-2.91.65-4.36,1C88.63,128.17,86.55,128.75,84.46,129.3Z" style="fill:#fb7900"/><path d="M84.46,129.3c2.09-.56,4.17-1.13,6.26-1.66,1.44-.37,2.9-.72,4.36-1a1.78,1.78,0,0,0,1.5-1.5c.3-1.22.69-2.42,1-3.64,0-.16.19-.2.24-.33l2.57-.57c.72-.16,1.43-.35,2.15-.5.38-.08.4.15.32.43-.28,1-.55,1.91-.84,2.86-.42,1.35-.83,2.7-1.29,4-.57,1.69-1.07,3.41-1.61,5.11a22.18,22.18,0,0,0-.83,2.89.84.84,0,0,1-.69.73c-1.93.37-3.82.92-5.74,1.3-1.28.26-2.53.66-3.83.82a6,6,0,0,1-1.1.21c-.19,0-.33,0-.39-.28-.44-1.87-.87-3.73-1.35-5.59A14,14,0,0,1,84.46,129.3Z" style="fill:#03c21d"/></svg>