<svg xmlns="http://www.w3.org/2000/svg" viewBox="0 0 250 250"><title>Grocery</title><path d="M129.67,113.94c.57,2.68-1.16,3.91-3.07,5.05a9.61,9.61,0,0,1,7.9,1.71,9.17,9.17,0,0,1,3.48,5.45,9.36,9.36,0,0,1-17,7.07,9.52,9.52,0,0,1,2.88-13.07c-1.86-.25-3.64-.59-4.58-2.42a4.07,4.07,0,0,1-.34-2.61c.54,1.13,1.62,1,2.56,1.16a4.84,4.84,0,0,1,2.87,1.14C125.17,114.76,127.46,114.49,129.67,113.94Z" style="fill:#016239"/><path d="M194.92,116.52h3.51c0,.31,0,.61,0,.9,0,3.92,0,7.85,0,11.77a8.11,8.11,0,0,1-6.15,8,8,8,0,1,1-1.82-15.82,7.87,7.87,0,0,1,3.91,1.11l.57.33ZM190.38,134a4.52,4.52,0,1,0,0-9,4.52,4.52,0,0,0,0,9Z" style="fill:#016239"/><path d="M51.16,131.6a8.11,8.11,0,0,1-12,4.66,7.72,7.72,0,0,1-3.88-7.37,8.1,8.1,0,1,1,16.16,1.22c0,.41-.12.61-.61.61q-5.25,0-10.49,0c-.45,0-.67-.15-.68-.57a15.33,15.33,0,0,1,0-1.55c0-.4.23-.58.69-.57,2.24,0,4.48,0,6.72,0h.68a4.41,4.41,0,0,0-2.7-2.92,4.62,4.62,0,0,0-5.79,2.27A4.57,4.57,0,0,0,47.1,132a.9.9,0,0,1,.86-.44C49,131.62,50.05,131.6,51.16,131.6Z" style="fill:#016239"/><path d="M164.13,129.4a8.09,8.09,0,1,1-8.1-8.07A8.09,8.09,0,0,1,164.13,129.4ZM156,134a4.57,4.57,0,1,0-4.6-4.62A4.56,4.56,0,0,0,156,134Z" style="fill:#016239"/><path d="M77.7,121.33a8.07,8.07,0,1,1-8.12,7.94A8.12,8.12,0,0,1,77.7,121.33Zm0,12.64a4.57,4.57,0,1,0-4.61-4.56A4.57,4.57,0,0,0,77.68,134Z" style="fill:#016239"/><path d="M110.14,121.33a8.08,8.08,0,1,1-8.12,8.06A8.13,8.13,0,0,1,110.14,121.33Zm0,12.65a4.58,4.58,0,1,0,0-9.15,4.58,4.58,0,1,0,0,9.15Z" style="fill:#016239"/><path d="M181.38,129.44a8.1,8.1,0,1,1-8.11-8.11A8.08,8.08,0,0,1,181.38,129.44ZM173.25,134a4.57,4.57,0,1,0-4.57-4.55A4.59,4.59,0,0,0,173.25,134Z" style="fill:#016239"/><path d="M68.27,131.61a8,8,0,0,1-8.81,5.76,8.06,8.06,0,1,1,9.11-8.86,16,16,0,0,0-1.74,0,1.87,1.87,0,0,1-2.31-1.31A4.29,4.29,0,0,0,59.46,125a4.53,4.53,0,0,0-3.39,4.47A4.52,4.52,0,0,0,64.3,132a.83.83,0,0,1,.77-.39C66.12,131.62,67.17,131.61,68.27,131.61Z" style="fill:#016239"/><path d="M97.25,137c0-.28,0-.52,0-.76,0-2.67,0-5.33,0-8A3.36,3.36,0,0,0,92,125.45a3,3,0,0,0-1.4,2.63c0,2.76,0,5.52,0,8.27,0,.49-.1.69-.64.67-.94,0-1.88,0-2.85,0,0-.24,0-.42,0-.6,0-2.7,0-5.4,0-8.11A6.84,6.84,0,0,1,100.64,127a5.63,5.63,0,0,1,.08,1q0,4.19,0,8.38c0,.16,0,.32,0,.52Z" style="fill:#016239"/><path d="M199.81,132.5c1.11,0,2.14,0,3.18,0,.14,0,.32.2.41.35a2.4,2.4,0,0,0,3,1.07,1.44,1.44,0,0,0,1-1.35c0-.65-.48-.94-1-1.1-.74-.22-1.52-.34-2.25-.59a9.75,9.75,0,0,1-2.23-1,4.36,4.36,0,0,1-.91-6.43,5.59,5.59,0,0,1,5.8-2.06,5.13,5.13,0,0,1,4.2,4c.06.23.09.47.14.78-1.1,0-2.15,0-3.19,0-.13,0-.28-.25-.37-.41a2.33,2.33,0,0,0-3.44-.73,1.23,1.23,0,0,0,.24,2.17,15.74,15.74,0,0,0,2.11.67c.44.13.9.22,1.34.35a4.24,4.24,0,0,1,2.67,6.19,5.55,5.55,0,0,1-5.92,2.89,5.49,5.49,0,0,1-4.68-4.28C199.84,132.92,199.84,132.75,199.81,132.5Z" style="fill:#016239"/><path d="M139.65,121.85h1.69a5.19,5.19,0,0,1,2.32-4.9,5,5,0,0,1,3.9-.7v3.33a2.5,2.5,0,0,0-2.19,1,9.12,9.12,0,0,0-.63,1.32H147v3.49h-2.15V137h-3.48v-11.6h-1.72Z" style="fill:#016239"/><path d="M213,121.28a2.2,2.2,0,1,1,2.21-2.17A2.18,2.18,0,0,1,213,121.28Zm-.06-.21a2,2,0,0,0,2.06-1.95,2,2,0,0,0-4-.11A2,2,0,0,0,213,121.06Z" style="fill:#016239"/><path d="M213,121.32a2.25,2.25,0,1,1,2.25-2.25A2.25,2.25,0,0,1,213,121.32Zm0-4.25a2,2,0,1,0,2,2A2,2,0,0,0,213,117.07Z"/><path d="M211.87,120.38v-2.61H213a1.9,1.9,0,0,1,.61.07.6.6,0,0,1,.3.25.75.75,0,0,1,.11.41.7.7,0,0,1-.17.48.83.83,0,0,1-.52.24,1.23,1.23,0,0,1,.28.22,3,3,0,0,1,.3.42l.32.51h-.63l-.38-.57a3.7,3.7,0,0,0-.28-.38.4.4,0,0,0-.16-.11.86.86,0,0,0-.26,0h-.11v1.09Zm.53-1.5h.39a2,2,0,0,0,.47,0,.28.28,0,0,0,.15-.11.34.34,0,0,0,.05-.2.31.31,0,0,0-.07-.21.32.32,0,0,0-.2-.1h-.79Z"/><circle cx="128.82" cy="128.16" r="9.33" style="fill:#ee3135"/></svg>