<svg xmlns="http://www.w3.org/2000/svg" viewBox="0 0 250 250"><defs><style>.a{fill:#efb310;}.a,.c,.d{fill-rule:evenodd;}.b,.c{fill:#231f20;}.d{fill:#fff;}</style></defs><title>Fast Casual</title><path class="a" d="M125,212.79A87.79,87.79,0,1,0,37.21,125,87.83,87.83,0,0,0,125,212.79Z"/><path class="b" d="M125,211.57h0A86.62,86.62,0,0,0,211.58,125h0A86.59,86.59,0,0,0,125,38.42h0A86.56,86.56,0,0,0,38.42,125h0A86.6,86.6,0,0,0,125,211.58h0Zm0,2.42h0a89,89,0,0,1-89-89h0a89,89,0,0,1,89-89h0a89,89,0,0,1,89,89h0a89,89,0,0,1-89,89Z"/><path class="c" d="M92.56,171.16l4.86,3.15c3.51,2.3,3.94,5.12,1.81,8.37-1.05,1.64-2.86,2.92-4.86,2.49,1.18,1.84,1.31,3.81-.3,6.27-2,3.15-5,4.63-8.73,2.2l-5.19-3.38,12.41-19.11Zm-7.35,18.55,1.35.92c1.77,1.12,3.05.53,4.3-1.41s1.18-3.41-.79-4.7L89,183.83l-3.81,5.88Zm5.55-8.57,1.21.79a2.58,2.58,0,0,0,3.74-1c1.15-1.77,1.08-3.15-.36-4.1L94.07,176l-3.32,5.15Z"/><path class="c" d="M98.74,199.52l-3.61-1.18L106.25,178l4.6,1.51-3.15,22.95-3.58-1.18.92-5L101,194.93l-2.23,4.6Zm3.84-7.65,3,1,1.61-9.75-.07,0-4.53,8.8Z"/><polygon class="c" points="133.14 204.05 128.87 181.66 139.15 179.73 139.81 183.07 133.34 184.29 134.46 190.07 139.41 189.12 140.07 192.46 135.11 193.42 136.36 199.98 143.22 198.67 143.88 202.02 133.14 204.05 133.14 204.05"/><polygon class="c" points="151.2 199.95 142.43 178.91 146.04 177.4 153.5 195.29 159.18 192.92 160.49 196.07 151.2 199.95 151.2 199.95"/><path class="c" d="M160.09,176.54c-1.25-1.51-2.43-1.41-3.15-.92-1.05.72-1.15,1.81-.36,3,2.2,3.19,9.82.23,13.3,5.32,2.13,3.09,1.21,6.24-1.81,8.31s-6.34.85-8.4-1.87l2.79-2.56c1.41,1.81,2.82,2.23,3.87,1.51a2,2,0,0,0,.69-3c-2.56-3.71-9.78-.2-13.49-5.61-2-3-1.38-5.94,1.77-8.11,2.63-1.81,5.52-1,7.62,1.48l-2.82,2.46Z"/><path class="c" d="M119.81,192.43l6.07.56-.56,6c-.33,3.68-2.63,5.61-6.5,5.25s-5.58-2.73-5.25-6.37l1.08-11.69c.3-3.18,2.43-5.61,6.24-5.29s5.58,3.38,5.29,6.76l-.13,1.44-3.71-.33c.3-3.41-.3-4.33-1.84-4.5-1-.07-1.81.53-2,2.33l-1.05,11.66c-.13,1.44.56,2.49,1.9,2.59s2.23-.69,2.43-3l.2-2.2-2.46-.23.26-3.05Z"/><polygon class="c" points="78.28 91.94 59.67 77.4 74.38 78.28 74.41 78.22 65.55 71.29 67.71 68.5 86.33 83.04 70.67 81.44 70.6 81.5 80.45 89.15 78.28 91.94 78.28 91.94"/><polygon class="c" points="128.45 68.17 132.03 45.03 138.39 58.19 138.46 58.19 140.17 47.16 143.62 47.69 140.03 70.83 133.83 56.52 133.8 56.49 131.89 68.7 128.45 68.17 128.45 68.17"/><polygon class="c" points="69.36 110.92 47.95 103.14 51.56 93.29 54.75 94.44 52.51 100.61 58.03 102.61 59.74 97.88 62.95 99.03 61.21 103.79 67.52 106.06 69.91 99.49 73.1 100.67 69.36 110.92 69.36 110.92"/><polygon class="c" points="74.28 98.31 54.55 86.95 56.49 83.54 76.25 94.93 74.28 98.31 74.28 98.31"/><path class="c" d="M83.14,63.35c-1.31-1.44-2.5-1.25-3.18-.72a1.93,1.93,0,0,0-.16,3c2.4,3.05,9.82-.36,13.62,4.5,2.3,3,1.58,6.17-1.28,8.44s-6.3,1.21-8.5-1.38l2.59-2.72c1.54,1.74,3,2.07,3.94,1.28a2,2,0,0,0,.53-3.05c-2.79-3.55-9.78.43-13.82-4.73-2.23-2.89-1.74-5.84,1.28-8.24,2.53-1.94,5.42-1.31,7.68,1l-2.69,2.63Z"/><polygon class="c" points="92.17 56.13 88.69 57.6 87.38 54.45 97.92 49.98 99.26 53.1 95.78 54.58 103.33 72.41 99.75 73.95 92.17 56.13 92.17 56.13"/><polygon class="c" points="107.44 70.83 103.1 48.48 113.38 46.47 114 49.79 107.57 51.07 108.68 56.81 113.64 55.83 114.3 59.21 109.34 60.16 110.62 66.73 117.52 65.42 118.14 68.73 107.44 70.83 107.44 70.83"/><polygon class="c" points="121.09 68.14 121.09 45.36 125 45.36 125 68.14 121.09 68.14 121.09 68.14"/><path class="c" d="M161.9,53.3l5,3c3.58,2.2,4.07,5,2,8.31a4.91,4.91,0,0,1-4.79,2.66c1.21,1.77,1.38,3.74-.13,6.24-2,3.22-4.89,4.76-8.67,2.43L150,72.74,161.9,53.3ZM155,72l1.41.89c1.77,1.08,3,.43,4.24-1.51s1.08-3.45-.92-4.66L158.68,66,155,72Zm5.32-8.7,1.21.72c1.28.79,2.76.53,3.78-1.08,1.08-1.81,1-3.18-.53-4.07l-1.25-.79-3.22,5.22Z"/><path class="c" d="M164.43,82.78l-2.82-2.72,15.82-16.38,4,3.81c3.12,3.05,3.45,5.94.1,9.45-2.56,2.63-4.6,2.73-6,2.23l-4.79,9.72-2.86-2.79,4.56-8.7a16.7,16.7,0,0,1-1.54-1.35l-6.47,6.73Zm8.73-9,1,1c1.51,1.48,2.66,1.48,4.53-.49s1.87-3.05.33-4.53l-1-1-4.83,5.06Z"/><path class="c" d="M185.14,80.68c2.66-1.81,5.91-1.71,8.21,1.71s1.18,6.43-1.51,8.24l-9.72,6.57c-2.66,1.81-5.91,1.71-8.21-1.71s-1.18-6.43,1.51-8.24l9.72-6.57Zm-7.45,9.78c-1.41,1-1.81,1.81-1,3.12s1.87,1.25,3.28.33l9.55-6.5c1.41-.92,1.84-1.81,1-3.12S188.66,83,187.24,84l-9.55,6.5Z"/><path class="c" d="M197,103.56c1.84-.72,2.07-1.87,1.81-2.72a1.9,1.9,0,0,0-2.69-1.21c-3.71,1.12-3.18,9.29-9.09,11.1-3.58,1.08-6.34-.72-7.39-4.2s1.12-6.34,4.3-7.48l1.61,3.41c-2.13.82-3,2-2.59,3.25a2,2,0,0,0,2.66,1.58c4.3-1.35,3.12-9.29,9.39-11.19,3.45-1.05,6.07.43,7.19,4.14,1,3.05-.72,5.52-3.68,6.8L197,103.56Z"/><path class="d" d="M125,174.21a48.77,48.77,0,1,0-48.75-48.78A48.76,48.76,0,0,0,125,174.21Z"/><path class="b" d="M125,172.37h0a47.56,47.56,0,0,0,47.54-47.57h0A47.56,47.56,0,0,0,125,77.26h0A47.53,47.53,0,0,0,77.46,124.8h0A47.54,47.54,0,0,0,125,172.38h0Zm0,2.42h0a50,50,0,0,1-50-50h0a49.94,49.94,0,0,1,50-50h0a50,50,0,0,1,50,50h0a50,50,0,0,1-50,50Z"/><path class="c" d="M169.06,102.41A13,13,0,0,0,161.9,100c-.89-.43-1.25-.36-3.48-.85a22.81,22.81,0,0,0-10.14-2.82A15.47,15.47,0,0,0,138,100s-.1-1-2.46-1c-3.87,0-4.2,4.1-4.2,4.1a3.26,3.26,0,0,0-3.15,3.41c0,3.35,1.38,3.94,1.38,3.94s-3.61,2.1-3.71,5.15c-.13,5.19,4.63,6.7,6.86,7.12l-7.94,5.12a23.44,23.44,0,0,0-3.91-2.5V122.7s3.15-2.49,3.09-5.55c-.13-3.81-3.87-5.06-3.87-5.06l-.13-1.67s5.65-1.71,4.86-4.86c-.53-2.17-3.64-1.84-3.64-1.84s4.23-14-6.76-16.87C104.55,84.29,100,94.37,98,99.43c0,0-1-.76-1.71-1.48-2.92-2.92-6.89-.3-5.06,2.89a65.61,65.61,0,0,0-9.32,4.79c-11.82,10-16,18.19-17.79,25.47-.92,3.81.07,13.36,7.71,17.07,4.56,2.2,7.81,2.53,10.08,3.18l1.81,1.08c8.31,10,12.47,12.87,12.47,12.87,10.14,6.34,15.89,8.57,26.82,8.9,1.84.33,5.84.89,6.47-.16a3.62,3.62,0,0,0,.26-1.18c17.4-.69,33.12-16.87,39.33-25.57,0,0,14.35-3.12,18-14.48,3.09-9.68-10.37-21.6-18-30.4ZM119,125c-1.12,15-4.73,16.51-8.17,19.14s-2.27,7.12-6.5,7.06c-5.88-.13-8.73-5-9.59-6.63-1.9-3.45-6.73-13.66-5.12-24.72.23-1.61-7.26-12.18-7.26-12.18a80.43,80.43,0,0,1,9.85-5.58c3.18,3.32,12.31,9.13,25.38,8.73l.1,2.79s4-.3,4,3.78c0,3.12-2.4,4.63-3,4.63-.82,0,.46,1.08.33,3Z"/><path class="c" d="M95.59,120.83c1.64-.13,1.84-.59,4.5-.79s4.24,2.23,4.24,2.23a6.74,6.74,0,0,1,2.89-1.21c2.66-.23,3.64,2.3,6.17,2.07.72-.07,1.18-.92,1.9-1s1-.72,1.21,2.07-1.54,6.14-6.17,6.53-6.37-5.35-6.37-5.35-1.31,2.79-5.81,3.18c-3.61.33-6.73-3.25-7-6.86-.1-1.12.36-2,1.05-2,1.61-.13.26,1.41,3.41,1.15Z"/><path class="d" d="M111,105.7c-6.66,0-11.82-4.92-11.82-4.92s1-2.17,7.29-2.17,11.29,5.91,11.29,5.91-.1,1.18-6.76,1.18Z"/><path class="c" d="M108.68,113.64a2.08,2.08,0,0,1,.66-1.54,2.22,2.22,0,0,1,3.15,0,2.08,2.08,0,0,1,.66,1.54,2.23,2.23,0,0,1-2.23,2.23,2.36,2.36,0,0,1-1.58-.66,2.21,2.21,0,0,1-.66-1.58Z"/><path class="c" d="M100.21,111.41a2.13,2.13,0,0,1,2.2-2.2,2.18,2.18,0,0,1,1.54.62,2.21,2.21,0,1,1-3.12,3.12,2.18,2.18,0,0,1-.62-1.54Z"/><path class="c" d="M98.93,118a9.14,9.14,0,0,0,9.19-9.16,9.19,9.19,0,1,0-15.69,6.5,9.22,9.22,0,0,0,6.5,2.66Z"/><path class="a" d="M92.07,108.88a6.86,6.86,0,1,1,6.86,6.86,6.89,6.89,0,0,1-6.86-6.86Z"/><path class="c" d="M98.93,113.41a4.52,4.52,0,0,0,3.22-1.31,4.57,4.57,0,0,0,1.31-3.22,4.53,4.53,0,1,0-9.06,0,4.57,4.57,0,0,0,1.31,3.22,4.52,4.52,0,0,0,3.22,1.31Z"/><path class="d" d="M96.73,108.88a2.18,2.18,0,0,1,.62-1.58,2.22,2.22,0,1,1,0,3.12,2.11,2.11,0,0,1-.62-1.54Z"/><path class="d" d="M142.17,113.58a2.21,2.21,0,0,0,1.58-3.78,2.16,2.16,0,0,0-1.58-.66,2.09,2.09,0,0,0-1.54.66,2.22,2.22,0,0,0,0,3.15,2.19,2.19,0,0,0,1.54.62Z"/><path class="d" d="M148.6,130.38c8,.1,11.82-8.14,11.85-6.63.36,15.46-3.22,31.75-13.2,31.91-7.29.13-11.62-11.75-11.49-31.68a16.85,16.85,0,0,0,12.84,6.4Z"/><path class="d" d="M154.15,113.84a2.36,2.36,0,1,0-2.4-2.36,2.37,2.37,0,0,0,2.4,2.36Z"/><path class="d" d="M163.15,104.38c-1-5.32-4.73-2.27-4.73-2.27s-5.12-3.45-10.54-3.45c-4.86,0-9.91,3.45-9.91,3.45s-.1-.75-2.27-.75-2.46,3-2.46,3-3,1-3,2.59a5.66,5.66,0,0,0,.76,2.79s3-.13,4-.13a13.5,13.5,0,0,1,2.86.66,4.49,4.49,0,0,1,7.58-2.13,3.9,3.9,0,0,1,.49.59,7.16,7.16,0,0,1,2.17-.49,10.86,10.86,0,0,1,2.46.49h0a4.49,4.49,0,0,1,3.61-1.81,4.54,4.54,0,0,1,4.33,3.32l.1,0a36.09,36.09,0,0,1,6.83-.53c2.43-4.43-2.27-5.38-2.27-5.38Z"/><path class="d" d="M158.65,112.23h-.07a4.49,4.49,0,0,1-4.43,3.78,4.55,4.55,0,0,1-4.56-4.53,4.4,4.4,0,0,1,.2-1.15,5,5,0,0,0-1.41-.16s-1,.07-1.77.16a5.41,5.41,0,0,1,.13,1.05,4.61,4.61,0,0,1-1.35,3.22,4.56,4.56,0,0,1-6.4,0,4.79,4.79,0,0,1-1.28-2.36,10.93,10.93,0,0,0-6.14-.43C130,112,128,114.4,128,115.51a5.71,5.71,0,0,0,4.53,5.19c2.72.66,2.43.2,3,.2a5.06,5.06,0,0,1,3,1.87,11.9,11.9,0,0,0,10,5.06c6.24,0,10.11-5.71,10.11-5.71l1.61-2.33a10.89,10.89,0,0,0,4,1.05c3.38,0,4.37-3.68,4.37-5.15,0-6.4-9.88-3.45-9.88-3.45Z"/><path class="c" d="M148.6,123.85a1.43,1.43,0,0,0,1.41-1.44,1.41,1.41,0,0,0-2.82,0,1.43,1.43,0,0,0,1.41,1.44Z"/><polygon class="c" points="172.08 114.04 171.16 110.23 160.56 120.9 165.28 125.62 172.08 114.04 172.08 114.04"/><path class="d" d="M156.68,101a14,14,0,0,1,4.07,1.15c1-.76,1.94-.72,3.87-.26,2.92.62,6.89,5.68,7.19,8,.13.85-5.91,7.32-8.14,9.78-1.41,1.51-7,.56-7-2.27,0-2.17,0-16.45,0-16.45Z"/><path class="b" d="M156.62,114.92c0,.24,0,.44,0,.62a4.93,4.93,0,0,0,2.23,3.79c1.5,1,3.81,1.61,7.09,1.61q1.4,0,2.95-.14l.17,1.83q-1.71.16-3.11.15c-3.67,0-6.31-.72-8.11-1.92a6.7,6.7,0,0,1-3-5.15q0-.43,0-.79Z"/><path class="c" d="M142.76,132.42s.13-1.21,5.15-1.31c4.07-.13,4.37.56,4.79,1.18.62.85-.13,2.89-2.76,5.71-.49.53,3.64,8.11,2.53,11-1.21,3.15-2.56,5.42-4.66,5.71-.43.07-4.33-2.76-4.2-6.24,0-.72,1.41-7.85,2.63-10.24.26-.49-3.32-2-3.48-5.81Z"/><path class="c" d="M163.34,101.2a9,9,0,0,0-6.47-2.69,9.19,9.19,0,0,0-6.5,15.69,8.65,8.65,0,0,0,.82.72v0a2.64,2.64,0,0,1-.92,1.77,3.42,3.42,0,0,1-.75.56,3.71,3.71,0,0,1-1.15.16,2.71,2.71,0,0,1-1.9-.66h0a.93.93,0,0,0-1.28-.13,1,1,0,0,0-.13,1.28,4.31,4.31,0,0,0,2.79,1.28.68.68,0,0,0,.36.13,5.36,5.36,0,0,0,3.38-1.28.73.73,0,0,0,.16-.36,5.09,5.09,0,0,0,1.05-1.74,8.82,8.82,0,0,0,4,1,9.19,9.19,0,0,0,6.47-15.69Z"/><path class="a" d="M150,107.7a6.84,6.84,0,0,1,6.86-6.86,6.84,6.84,0,0,1,6.83,6.86,6.85,6.85,0,1,1-13.69,0Z"/><path class="c" d="M156.88,112.23a4.48,4.48,0,1,0-3.22-1.31,4.52,4.52,0,0,0,3.22,1.31Z"/><path class="d" d="M154.64,107.7a2.24,2.24,0,0,1,2.23-2.23,2.08,2.08,0,0,1,1.54.66,2.22,2.22,0,1,1-3.78,1.58Z"/><path class="b" d="M95.11,115.84,95,116a6,6,0,0,1-4.6,3.52,11.05,11.05,0,0,1-5.68-.29h0l-.3-.11.66-1.71.24.08h0a9.13,9.13,0,0,0,4.69.24,4.27,4.27,0,0,0,3.28-2.39l0-.13,1.74.6Z"/><path class="c" d="M201,107a3,3,0,1,1-1.61,4,3,3,0,0,1,1.61-4Zm-1.15,3.78a2.5,2.5,0,1,0,1.41-3.22,2.4,2.4,0,0,0-1.41,3.22Zm.46-.89-.2-.46,3.22-1.31.49,1.22c.33.76.2,1.25-.46,1.51a.9.9,0,0,1-1.21-.49l-1.05,1.51-.23-.56L202,109.9l-.23-.56-1.38.56Zm2-.13c.2.39.36.76.85.56s.33-.56.16-.89l-.23-.66-1,.39.23.59Z"/><path class="c" d="M172.44,153h-.56v-2.79h1.05c.72,0,1.08.23,1.08.82a.67.67,0,0,1-.66.75L174,153h-.62l-.59-1.18h-.36V153Zm0-1.64h.49c.39,0,.53-.1.53-.39s-.16-.33-.56-.33h-.46v.72Zm-2.13.23a2.56,2.56,0,1,1,2.56,2.53,2.48,2.48,0,0,1-2.56-2.53Zm2.56-1.94a1.87,1.87,0,0,0-1.87,1.94,1.88,1.88,0,0,0,1.87,2,2,2,0,0,0,0-3.94Z"/></svg>