<svg xmlns="http://www.w3.org/2000/svg" viewBox="0 0 250 250"><title>CR</title><path d="M94.46,133c0,.19,0,.38,0,.58q0,22.44,0,44.88c0,.55,0,.55-.57.55h-8.4c-.55,0-.55,0-.55-.54q0-15.69,0-31.38c0-.2.12-.54-.1-.58s-.21.32-.26.51q-4.47,15.77-8.92,31.54a.52.52,0,0,1-.6.45q-3.93,0-7.86,0a.45.45,0,0,1-.53-.39q-4.42-15.86-8.86-31.72c0-.15,0-.44-.24-.4s-.1.29-.1.44q0,15.67,0,31.34c0,.85.11.72-.74.72H48.43c-.53,0-.53,0-.53-.52q0-22.48,0-45c0-.18,0-.36,0-.54H62.76l.1.33,7.38,24.74.9,3c0,.1,0,.22.16.23s.13-.14.17-.22a.85.85,0,0,0,0-.15l6.84-22.53c.54-1.79,1.07-3.58,1.6-5.37Z" style="fill:#006bb6"/><path d="M147.36,133c0,.14,0,.28,0,.42q0,7,0,14a.62.62,0,0,0,0,.08c0,.11-.05.27.06.32s.22-.09.32-.16a13.87,13.87,0,0,1,1.51-1.07,13.49,13.49,0,0,1,6-2,16.84,16.84,0,0,1,17.16,11.09,18,18,0,0,1,1.13,8,17.31,17.31,0,0,1-12.57,15.48,15.13,15.13,0,0,1-9.24-.25,10.42,10.42,0,0,1-3.9-2.55,3.52,3.52,0,0,1-.27-.35c-.21.13-.15.28-.15.39,0,.73,0,1.47,0,2.2,0,.29-.1.37-.38.37-2.92,0-5.83,0-8.75,0-.4,0-.38-.21-.38-.48q0-11.43,0-22.86,0-11,0-22.09c0-.19,0-.38,0-.58Zm8.28,21a8.23,8.23,0,1,0,8.24,8.22A8.25,8.25,0,0,0,155.64,154Z" style="fill:#006bb6"/><path d="M202.11,179c-.15,0-.31,0-.46,0h-8.52c-.57,0-.57,0-.57-.56q0-22.42,0-44.83c0-.21,0-.41,0-.62h9.25c.26,0,.32.05.32.32Q202.11,156.18,202.11,179Z" style="fill:#006bb6"/><path d="M187.15,133q0,3.14,0,6.28c0,.8,0,1.59,0,2.39,0,.27-.09.36-.35.36H178c-.31,0-.35-.14-.35-.4q0-4.08,0-8.16c0-.15,0-.31,0-.46Z" style="fill:#006bb6"/><path d="M98,162.18A17.83,17.83,0,1,1,115.87,180,17.86,17.86,0,0,1,98,162.18Zm9.61,0a8.21,8.21,0,1,0,8.24-8.19A8.24,8.24,0,0,0,107.65,162.17Z" style="fill:#ed1b2d"/><path d="M177.62,162.16q0-8.15,0-16.31c0-.38.07-.51.48-.5q4.3,0,8.6,0c.35,0,.45.1.45.45q0,16.38,0,32.76c0,.36-.11.45-.46.45q-4.32,0-8.63,0c-.34,0-.43-.1-.43-.43Q177.63,170.37,177.62,162.16Z" style="fill:#006bb6"/><path d="M47.88,75.78H75.8v7.54H58.27V88H75.8v7.55H58.27v4.67H75.8v7.55H47.88a27.07,27.07,0,0,0,.45-6.29V81.74A26.76,26.76,0,0,0,47.88,75.78ZM78.39,107.7c1-1.27,14.28-18.49,14.28-18.49S79,76,78.45,75.76H92l6.31,6.08L107.17,70h11c-.69.64-13.94,17.72-13.94,17.72l5.48,5.42,12.42-16.49h11C132.08,77.56,115.68,99,115.68,99s25.42,24.3,26,24.65h-13.6L110.2,106.23l-10,13.18H89.35c1-.89,14.85-19,14.85-19L98.72,95,89,107.7H78.39ZM171,75.8h10.42l12.27,16.87,0-12.13a38.36,38.36,0,0,0-.28-4.73h8.78c-.1,1.38-.32,3.35-.27,4.73v27.23h-10l-12.27-17v11.67a28.47,28.47,0,0,0,.44,5.31h-9a39.53,39.53,0,0,0,.34-5.31V81.16A52.85,52.85,0,0,0,171,75.8Z" style="fill:#ed1b2d"/><path d="M148.45,101.66c-4.66-.17-8.67-4.52-8.67-9.76s3.88-9.68,8.67-9.68,8.67,4.33,8.67,9.68-3.88,9.76-8.67,9.76Zm0-27c-10,0-18.15,7.75-18.15,17.32s8.13,17.32,18.15,17.32,18.15-7.75,18.15-17.32S158.48,74.63,148.45,74.63Z" style="fill:#ed1b2d"/></svg>