<svg xmlns="http://www.w3.org/2000/svg" viewBox="0 0 250 250"><defs><style>.a{fill:#fff;}.b,.c{fill:#ffc423;}.c{fill-rule:evenodd;}</style></defs><title>Fast Casual</title><path class="a" d="M195.3,108.37c0,.14,0,.28.08.42.72,3.17,1.54,6.33,2.14,9.53,1.81,9.57,4,19,6.45,28.48a6.61,6.61,0,0,1,0,4,3.7,3.7,0,0,1-1.8,2.29,6,6,0,0,1-5.09.26,46.88,46.88,0,0,1-4.22-2.11c-5.49-3.06-11-6.09-16.68-8.78a166.29,166.29,0,0,0-26.26-10,109.94,109.94,0,0,0-21.05-3.83,95.07,95.07,0,0,0-13.14-.13,93.32,93.32,0,0,0-12.81,1.66,112.44,112.44,0,0,0-29.75,10.76,165.22,165.22,0,0,0-19,11.62l-1.31.94,1.84.74,16.22,6.49c.24.09.41.15.62-.1a61.52,61.52,0,0,1,10.09-9.14,73.7,73.7,0,0,1,37.91-14.24,79.6,79.6,0,0,1,16.6.42,100.19,100.19,0,0,1,13.36,2.73,125.78,125.78,0,0,1,20.32,7.44c5.3,2.46,10.41,5.28,15.53,8.08a75.42,75.42,0,0,0,9.41,4.59,16.83,16.83,0,0,0,6,1.3,7.6,7.6,0,0,0,7-3.9,17.54,17.54,0,0,0,2.28-5.63c.8-4.31,1.48-8.63,2.15-13,.44-2.88.77-5.77,1.15-8.66a32.57,32.57,0,0,0,.38-6.62,12.56,12.56,0,0,0-1.65-5.86,5.19,5.19,0,0,0-3.29-2.61,2.5,2.5,0,0,0-2,.31.65.65,0,0,0-.31.85,49,49,0,0,1,1.62,19.76c-.12.85-.3,1.69-.45,2.53h-.13c0-.18-.11-.36-.15-.54-.33-1.45-.69-2.89-1-4.35-1.73-8.29-3-16.65-4.15-25,0-.35-.15-.48-.51-.49-1.38,0-2.76-.1-4.14-.14C196.86,108.35,196.1,108.37,195.3,108.37Z"/><path class="a" d="M47.49,88.58l-.25.13L21.85,104.45a2.42,2.42,0,0,0-1,1.12,9.31,9.31,0,0,0-.76,2.26c-.28,2.24.46,3.94,2.35,4.85a13.11,13.11,0,0,0,2.41.76c.61.16.62.11.62.74q0,21.88,0,43.76c0,.14,0,.28,0,.48l.21-.1q4.35-2.71,8.7-5.43a.74.74,0,0,0,.27-.54c0-1.26,0-2.53,0-3.79,0-2.6-.05-5.2-.07-7.8q-.05-7.29-.1-14.58a.46.46,0,0,1,.32-.5c.64-.27,1.29-.54,1.91-.86.32-.16.5-.08.64.21a3.07,3.07,0,0,1,.22.54c.17.7.32,1.41.48,2.15,1-.33,2-.66,3-1a.45.45,0,0,0,.2-.33c0-.41.05-.83.07-1.25.12-2.84.25-5.67.35-8.51,0-1,0-2,0-3,0,0,0,0-.05,0-1.23.44-2.47.87-3.69,1.33a.63.63,0,0,0-.29.42c-.16.81-.26,1.64-.46,2.45a2,2,0,0,1-.56,1.11,18.27,18.27,0,0,1-2.14,1.21c0-.32,0-.46,0-.61,0-5.4,0-10.79,0-16.19a1.24,1.24,0,0,1,.49-1.08,15.09,15.09,0,0,1,4.46-2.56,4.17,4.17,0,0,1,5.27,2.14,10.54,10.54,0,0,1,.83,2.11c.25.87.38,1.76.57,2.69a9.46,9.46,0,0,1,2.83-1.91.53.53,0,0,0,.35-.64q-.78-6.84-1.54-13.69C47.64,89.78,47.56,89.2,47.49,88.58Z"/><path class="a" d="M83.69,128.18l.47-.13c2-.64,4-1.3,6.07-1.92a.48.48,0,0,0,.41-.55c0-2,0-4,0-6q0-10.37,0-20.74a4.76,4.76,0,0,1,0-.85,7.89,7.89,0,0,1,.4-1.68,1.23,1.23,0,0,1,2-.41,2.77,2.77,0,0,1,.64.94,7,7,0,0,1,.46,2.84q0,12.42,0,24.84c0,.16,0,.32,0,.54l6.68-1.55c0-.3,0-.57,0-.83q0-13.4,0-26.81a4.75,4.75,0,0,1,0-.67c.1-.7.22-1.41,1-1.67a1.49,1.49,0,0,1,2,1.15,12,12,0,0,1,.52,3c.08,2.47,0,4.94,0,7.4q0,8.76,0,17.53v.54l6.59-.91c0-.25,0-.45,0-.66q0-8.9,0-17.8c0-3,0-6,0-9a11.53,11.53,0,0,0-.88-4.75,4.45,4.45,0,0,0-4.65-2.75,6.25,6.25,0,0,0-4.41,2.5c-.44.57-.78,1.21-1.18,1.84l-.17-.4a3.43,3.43,0,0,0-2.54-2.09,4.67,4.67,0,0,0-3.6.79,8.93,8.93,0,0,0-3.23,4l-.16.33a8.13,8.13,0,0,0-.86-3.71l-7.37,5a.41.41,0,0,0-.18.27c0,1.08,0,2.15,0,3.27l.22-.08c.82-.35,1.23-.15,1.41.73a7.1,7.1,0,0,1,.15,1.41c0,2.85,0,5.71,0,8.56q0,9,0,18C83.69,127.84,83.69,128,83.69,128.18Z"/><path class="a" d="M55.22,143l.71-.58q3.27-2.59,6.54-5.17a.79.79,0,0,0,.33-.72c0-.89,0-1.78,0-2.68,0-.53,0-1.06,0-1.61l-1.65-.11a1.37,1.37,0,0,1,0-.19c0-3.73-.08-7.46-.11-11.19a82.45,82.45,0,0,1,1-12.65.49.49,0,0,0-.35-.63c-1.69-.76-3.38-1.54-5.07-2.31l-.84-.37-.47,1.49c-.64-.11-1.22-.25-1.81-.29a6.21,6.21,0,0,0-6.33,3.44,16.92,16.92,0,0,0-1.16,2.5A49.65,49.65,0,0,0,43,125.68a44.57,44.57,0,0,0,.25,10.14,33.22,33.22,0,0,0,1.68,6.6,8.35,8.35,0,0,0,1.94,3.17,2.31,2.31,0,0,0,2.54.58,7.85,7.85,0,0,0,2.76-1.76,10.4,10.4,0,0,0,2.17-3.55c.12-.29.26-.57.39-.85l.12,0Z"/><path class="a" d="M174.8,114.91a42.39,42.39,0,0,0,1,8.75,26.06,26.06,0,0,0,4,9.78,15,15,0,0,0,5.19,4.8,5.44,5.44,0,0,0,6.6-1,9.42,9.42,0,0,0,2.28-4,29,29,0,0,0,1.14-7.65,37.28,37.28,0,0,0-1.4-11.86,27.86,27.86,0,0,0-4.05-8.87,14.6,14.6,0,0,0-4.27-4.12,5.1,5.1,0,0,0-6.54.68,9,9,0,0,0-2.27,3.53A28.35,28.35,0,0,0,174.8,114.91Z"/><path class="a" d="M129.25,108.91c-.15.37-.28.7-.43,1a9.14,9.14,0,0,1-2,3,2.36,2.36,0,0,1-3.75-.23,11.17,11.17,0,0,1-2.38-5.87.58.58,0,0,1,.39-.68c3.21-1.59,6.4-3.2,9.61-4.79a.72.72,0,0,0,.47-.74,28.78,28.78,0,0,0-1.27-9.09,14.53,14.53,0,0,0-3.71-6.31,4.66,4.66,0,0,0-4.9-1.16A7.51,7.51,0,0,0,117,87.54a31.24,31.24,0,0,0-4,15.22,38,38,0,0,0,1.43,10.88,12.48,12.48,0,0,0,2.77,5.37c2.45,2.65,6.51,3.77,10,.62a13.74,13.74,0,0,0,3.84-6.32.74.74,0,0,0-.07-.46c-.52-1.21-1.05-2.43-1.58-3.64C129.38,109.11,129.32,109,129.25,108.91Z"/><path class="a" d="M215.38,144.62a2.51,2.51,0,0,0-.09.27c-.26,1.4-.6,2.79-.75,4.2a12.33,12.33,0,0,0,.61,5.36,10,10,0,0,0,6.51,6.26,8.28,8.28,0,0,0,4.11.53,5.22,5.22,0,0,0,4.3-3.92,14.45,14.45,0,0,0-.89-11.21,43.56,43.56,0,0,0-4.56-7c-1.11-1.46-2.25-2.89-3.27-4.4a6.29,6.29,0,0,1-1.09-4.45,2.25,2.25,0,0,1,2.31-2,3.07,3.07,0,0,1,2.46,1.57,4.62,4.62,0,0,1,.4,4.11c-.08.27-.06.42.2.58,1,.62,2,1.26,3,1.9.11.07.22.12.36.19,0-.11.08-.18.1-.25s.11-.31.15-.47a13.05,13.05,0,0,0,.36-4.68,9.37,9.37,0,0,0-7-8,5.06,5.06,0,0,0-5.64,2.25,11.62,11.62,0,0,0-1.5,7.89,18.75,18.75,0,0,0,2.75,7.19c1.32,2.12,2.78,4.15,4.18,6.21a13.44,13.44,0,0,1,2.28,4.6,3.64,3.64,0,0,1-.69,3.36,1.76,1.76,0,0,1-2.27.49A4.67,4.67,0,0,1,219,151.6a9.83,9.83,0,0,1,.14-3.89c0-.16,0-.43-.08-.5C217.89,146.34,216.66,145.5,215.38,144.62Z"/><path class="a" d="M138.41,84.76c-2.23,1.1-4.38,2.16-6.53,3.25a.57.57,0,0,0-.19.43c0,1.23,0,2.47,0,3.7a1.61,1.61,0,0,0,.05.28c1-.06,1.35.17,1.66,1.12a6.58,6.58,0,0,1,.25.95,60.9,60.9,0,0,1,.73,10c0,5.62,0,11.24,0,16.86v.6l7.18,1c0-.27,0-.46,0-.65q0-6.47-.05-12.93,0-5.22,0-10.44c0-1.54,0-3.1.09-4.63a3.46,3.46,0,0,1,4.11-3.42c1,.08,1.94.34,2.94.52a2.64,2.64,0,0,0,0-.32c.06-1.28.13-2.55.16-3.83a3.31,3.31,0,0,0-4.51-3.05,8.28,8.28,0,0,0-1.73,1.16,10.6,10.6,0,0,0-2.51,2.79Z"/><path class="a" d="M66.71,135.26l.21-.06,6.32-2.9a.48.48,0,0,0,.31-.52c0-2.88,0-5.77,0-8.65,0-4.39,0-8.77,0-13.16a14.15,14.15,0,0,1,.82-5.21,3.83,3.83,0,0,1,2.75-2.68A11.32,11.32,0,0,1,79.6,102c.35,0,.47-.06.47-.43,0-1.71.05-3.42.07-5.13a1.59,1.59,0,0,0-1.6-1.74,3.21,3.21,0,0,0-2.55,1A28.62,28.62,0,0,0,73.73,98c-.61.72-1.13,1.52-1.69,2.29l-1.15-2.51-.22.18q-3.25,3.49-6.5,7a.83.83,0,0,0-.18.51c0,1.06,0,2.11,0,3.17,0,.18,0,.36,0,.62l.34-.3a.77.77,0,0,1,1.3.23,1.79,1.79,0,0,1,.24.52,15.2,15.2,0,0,1,.43,2.22c.17,2.74.36,5.49.41,8.23.07,4.19,0,8.38,0,12.58C66.71,133.56,66.71,134.39,66.71,135.26Z"/><path class="a" d="M142.79,162.48a1.78,1.78,0,0,0-.1-.27c-.27-.45-.52-.9-.81-1.33a6.56,6.56,0,0,0-8.08-2.47,7.6,7.6,0,0,0-3.77,3.83,13.35,13.35,0,0,0-.74,9.51,9.8,9.8,0,0,0,2.8,4.78,6.75,6.75,0,0,0,10.11-1.72,13.49,13.49,0,0,0,1.59-6.42c0-.59,0-1.17,0-1.84h-7.6v3.93l.39,0c1,0,2,0,3,0,.32,0,.46.11.36.42a7.58,7.58,0,0,1-.43,1.26,3.34,3.34,0,0,1-3,1.91,3.13,3.13,0,0,1-2.93-1.77,5.29,5.29,0,0,1-.43-1,10.78,10.78,0,0,1-.14-5.93,4.62,4.62,0,0,1,1.35-2.37,3.06,3.06,0,0,1,4.62.69c.18.25.34.51.53.78Z"/><path class="a" d="M115.51,177.62c1.14,0,2.17,0,3.21,0,.36,0,.45-.13.44-.47,0-2,0-4,0-6,0-.23,0-.45,0-.68a.43.43,0,0,1,.19.21c1,2.17,2,4.33,2.91,6.5a.55.55,0,0,0,.59.4c1.19,0,2.38,0,3.57,0,.11,0,.22,0,.39,0L122.91,170l.31-.15a3.86,3.86,0,0,0,2.24-2.23,8.23,8.23,0,0,0,0-6.21,3.71,3.71,0,0,0-3.72-2.61c-2,0-4,.21-6,.31-.27,0-.34.15-.34.4,0,1.08,0,2.17,0,3.25q0,6.86.06,13.73C115.51,176.85,115.51,177.22,115.51,177.62Z"/><path class="a" d="M103,160.58c-1.22.19-2.33.38-3.44.53-.35,0-.46.19-.46.54,0,2.33,0,4.67.08,7a44.31,44.31,0,0,0,.3,5A4.68,4.68,0,0,0,103,177.8a9.61,9.61,0,0,0,4.37.16,4.64,4.64,0,0,0,4-3.69,15.56,15.56,0,0,0,.43-3.44c0-3.24,0-6.48,0-9.72,0-.53,0-1.06,0-1.64l-3.23.37c-.63.07-.63.07-.63.72,0,3.17.06,6.33,0,9.5a10.66,10.66,0,0,1-.4,2.8c-.27.92-1.18,1.33-2.37,1.26a1.88,1.88,0,0,1-1.83-1.49,8.17,8.17,0,0,1-.26-1.76c-.05-2.11-.07-4.22-.09-6.33C103,163.26,103,162,103,160.58Z"/><path class="a" d="M159.35,159.79v17.85h3.56v-6.55a.54.54,0,0,1,.26.27c.81,1.74,1.68,3.45,2.42,5.22a1.51,1.51,0,0,0,1.77,1.12,31.19,31.19,0,0,1,3.12,0L166.73,171c.06-.06.08-.09.11-.1l.34-.11a3.27,3.27,0,0,0,2.35-2.24,8.39,8.39,0,0,0,.34-2.5,5.24,5.24,0,0,0-4.23-5.3c-1.4-.27-2.81-.46-4.22-.67C160.75,159.95,160.09,159.88,159.35,159.79Z"/><path class="a" d="M150.7,173.49V170.3l4.6.15v-3.91l-4.6-.26c0-.94,0-1.84,0-2.74,0-.4.11-.52.51-.48,1.33.11,2.67.2,4,.29h.44v-4l-8.73-.69v19H148c2.36,0,4.73,0,7.09,0,.42,0,.53-.13.51-.53,0-.89,0-1.78,0-2.68,0-.29,0-.58,0-1Z"/><path class="a" d="M93.13,169.4a3,3,0,0,1,.28-.18,3.48,3.48,0,0,0,2.1-3.55,2.74,2.74,0,0,0-2.06-2.91,5.4,5.4,0,0,0-2-.06c-2,.34-3.9.79-5.86,1.17-.44.08-.53.28-.53.68,0,4.24,0,8.48,0,12.71,0,.16,0,.31,0,.58,2.49-.09,4.94-.13,7.38-.3A3.65,3.65,0,0,0,95.39,176,5.13,5.13,0,0,0,96,171.7a2.75,2.75,0,0,0-2.07-2.17C93.7,169.46,93.46,169.45,93.13,169.4Z"/><path class="a" d="M174.41,172.88c-.42.74-.9,1.64-1.43,2.51a.52.52,0,0,0,.11.76,6.46,6.46,0,0,0,6.09,1.85,4.62,4.62,0,0,0,4-4.06,4.14,4.14,0,0,0-2.18-4.49c-.79-.41-1.62-.75-2.41-1.15a5.5,5.5,0,0,1-1.09-.69,1.2,1.2,0,0,1-.31-1.39,1,1,0,0,1,1.15-.59,3.56,3.56,0,0,1,1.23.33c.63.34,1.21.79,1.84,1.21.35-.72.72-1.48,1.06-2.25a.46.46,0,0,0-.15-.39,8.71,8.71,0,0,0-4.29-2,3.87,3.87,0,0,0-2.48.31,3.72,3.72,0,0,0-2,3.14,4.23,4.23,0,0,0,1.19,4,11.84,11.84,0,0,0,2.15,1.31c.63.33,1.32.55,1.94.89a1.5,1.5,0,0,1-.7,2.84,3.3,3.3,0,0,1-2.36-.9Z"/><path class="a" d="M216.15,169.12c-.69,0-1.33,0-2,0-.3,0-.41.11-.49.38-.23.8-.48,1.59-.72,2.39l-.73,2.42-.09-.3c-.45-1.49-.89-3-1.36-4.47,0-.15-.2-.38-.32-.39-.69,0-1.39,0-2.13,0L207,177.47c.64,0,1.19,0,1.73,0,.34,0,.47-.1.51-.43.11-.94.26-1.88.39-2.82.08-.6.16-1.21.24-1.81.46,1.32.85,2.64,1.24,4,.33,1.12.34,1.11,1.49,1.11a.46.46,0,0,0,.52-.4c.34-1.2.71-2.39,1.07-3.58l.35-1.16c0,.17.07.23.08.28.19,1.49.38,3,.59,4.46,0,.14.19.37.29.38.62,0,1.24,0,1.94,0Z"/><path class="a" d="M224.09,177.71c.34,0,.68-.06,1-.13a4.36,4.36,0,0,0,3.18-6.13,4.66,4.66,0,0,0-4.91-2.46,4.52,4.52,0,0,0-3.78,3.44A4.47,4.47,0,0,0,224.09,177.71Z"/><path class="a" d="M233.53,174.41l.1,0,.27.44c.47.78.93,1.56,1.41,2.33.08.13.22.3.34.3.79,0,1.59,0,2.49,0l-2.31-3.34.55-.21a2,2,0,0,0,1.18-1.21,2.5,2.5,0,0,0-2.16-3.5c-1.3-.1-2.61-.06-3.92-.08,0,0-.08,0-.11.05v8.29c.61,0,1.18,0,1.76,0,.29,0,.39-.09.39-.38,0-.76,0-1.52,0-2.27C233.51,174.69,233.52,174.55,233.53,174.41Z"/><path class="a" d="M199.48,176.58c.4,1,1.25.92,2.07.9h1.11l0-.13c-.3-.29-.59-.58-.9-.86s-.63-.53-.94-.79v-.23l1.22-1-1.23-1.25-1.15,1.09-1-1a11.09,11.09,0,0,0,.92-.87,1.93,1.93,0,0,0-.69-3.06,3.22,3.22,0,0,0-2.4-.08,1.86,1.86,0,0,0-1,2.85c.12.22.28.41.41.62-.39.28-.79.52-1.13.81a2.18,2.18,0,0,0-.72,2.33,2.14,2.14,0,0,0,1.72,1.62A4,4,0,0,0,199.48,176.58Z"/><path class="a" d="M44.31,170.36c-.78,0-1.45,0-2.12,0a.86.86,0,0,0-.57.29c-.65.85-1.26,1.73-1.89,2.6-.09.12-.19.23-.28.35l-.11,0V170.4H37.27v7.5h2.1V174.6c.17.2.26.31.35.42.54.71,1.12,1.4,1.59,2.15a1.48,1.48,0,0,0,1.61.78,14,14,0,0,1,1.66,0l-2.68-3.32c-.47-.58-.47-.58,0-1.15Z"/><path class="a" d="M15,175.17l.11,0,.25.4c.43.71.86,1.43,1.3,2.13.07.11.2.25.31.26.72,0,1.44,0,2.25,0l-2.1-3,.32-.14a2.05,2.05,0,0,0,1.39-2.24,2,2,0,0,0-1.68-2c-1.35-.16-2.71-.14-4.08-.2v7.6H15Z"/><path class="a" d="M29.52,177.92c.1-.34.22-.68.3-1a.37.37,0,0,1,.43-.33c.52,0,1,0,1.56,0,.36,0,.81-.12,1,.06s.28.64.41,1c0,0,0,.1,0,.12s.17.18.25.18c.62,0,1.23,0,1.88,0a2.23,2.23,0,0,0-.05-.27c-.83-2.35-1.67-4.69-2.52-7a.5.5,0,0,0-.37-.26c-.7,0-1.4,0-2.09,0-.26,0-.35.11-.43.33-.46,1.33-.94,2.66-1.41,4l-1.15,3.25Z"/><path class="a" d="M52.11,177.93H53c.37,0,.83.12,1.08-.06s.3-.64.4-1a.38.38,0,0,1,.45-.31c.5,0,1,0,1.51,0,1.14,0,1.14,0,1.48,1.06,0,0,0,.07,0,.08s.19.2.28.2c.61,0,1.21,0,1.85,0a1.94,1.94,0,0,0-.05-.29c-.83-2.33-1.66-4.67-2.51-7a.55.55,0,0,0-.41-.27c-.67,0-1.34,0-2,0a.44.44,0,0,0-.5.36c-.61,1.75-1.23,3.5-1.86,5.24Z"/><path class="a" d="M21.1,170.38v7.53h4.73v-1.67H23.19V175h2.48v-1.64H23.19V172h.51c.59,0,1.19,0,1.78,0,.13,0,.35-.12.35-.2,0-.47,0-.93,0-1.41Z"/><path class="a" d="M66.76,170.85a4,4,0,0,0-3-.61,2.32,2.32,0,0,0-2,2.1c-.08,1.24.38,1.86,1.71,2.29.41.13.83.24,1.23.4a.74.74,0,0,1,.43.92.94.94,0,0,1-1.17.55,15.61,15.61,0,0,1-1.72-.88L61.37,177a3.83,3.83,0,0,0,4.39.77,2.9,2.9,0,0,0,1-1,2.23,2.23,0,0,0-1.24-3.43c-.28-.1-.57-.16-.85-.25a3.15,3.15,0,0,1-.66-.27.55.55,0,0,1,0-1,1.13,1.13,0,0,1,.68-.11,14.66,14.66,0,0,1,1.39.47Z"/><path class="a" d="M46.25,170.38v7.53h2.05v-3h2.52V173.3H48.29c0-.34,0-.62,0-.9s.09-.42.4-.41c.65,0,1.31,0,2,0,.13,0,.36-.12.36-.19,0-.47,0-.94,0-1.42Z"/><path class="a" d="M72.62,177.91c0-.18,0-.34,0-.5,0-1.62,0-3.24,0-4.86,0-.33.1-.45.43-.43a5.94,5.94,0,0,0,1,0c.11,0,.3-.15.31-.25,0-.48,0-1,0-1.49H68.74c0,.52,0,1,0,1.52,0,.08.18.21.29.22a4.9,4.9,0,0,0,.93,0c.4,0,.54.09.53.51,0,1.6,0,3.21,0,4.81,0,.16,0,.31,0,.46Z"/><path class="b" d="M149.27,70.17l1.33.46c4.08,1.33,8.14,2.69,12.23,4a11.05,11.05,0,0,1,6.64,5.78,22.07,22.07,0,0,1,2.71,9.39,14.19,14.19,0,0,1-1.42,7.31,5.43,5.43,0,0,1-4.72,3.09c-.33,0-.67,0-1,0,.54.45,1.08.86,1.56,1.33a21.17,21.17,0,0,1,6.16,11.19,22.16,22.16,0,0,1,.09,9.65,8.75,8.75,0,0,1-2.37,4.7,4.85,4.85,0,0,1-4.79,1.31q-7.25-1.86-14.49-3.7c-.39-.1-.46-.28-.46-.64q0-8.09.07-16.19,0-9.55,0-19.09c0-2.53,0-5.06,0-7.58a.63.63,0,0,0-.49-.73A5.82,5.82,0,0,1,147,77.9a5.45,5.45,0,0,1,.08-5.33,8.39,8.39,0,0,1,1.9-2.39ZM159,100.38v.6q0,7,0,14.1c0,1.8,0,3.6,0,5.4a.63.63,0,0,0,.16.46c1.53,1,3.38,1.23,4.4-1a10,10,0,0,0,.73-2.33,26.7,26.7,0,0,0,0-9.14,14.12,14.12,0,0,0-1.73-5.26A6.46,6.46,0,0,0,159,100.38Zm-.06-21.69v.6q0,3.46,0,6.91,0,4.06,0,8.12c0,.18,0,.46.12.53,1.22.76,2.45,1.1,3.52-.14a3.3,3.3,0,0,0,.72-1.41,28.11,28.11,0,0,0,.51-3.43,16.52,16.52,0,0,0-.76-7.43A5.82,5.82,0,0,0,158.92,78.7Z"/><path class="b" d="M4.55,170.37c1.39,0,2.8,0,4.18.12a1.72,1.72,0,0,1,1.52,2.32,1.68,1.68,0,0,1-1.08,1s.05.07.08.08A1.85,1.85,0,0,1,10.68,176a2,2,0,0,1-2,1.81c-1,.08-2,.07-3.07.1l-1.07,0Q4.55,174.16,4.55,170.37Zm2,6.05c.57,0,1.08-.06,1.57-.14a.76.76,0,0,0,0-1.48,10.58,10.58,0,0,0-1.28-.06.33.33,0,0,0-.24.22C6.52,175.41,6.53,175.87,6.53,176.42Zm.05-4.6c-.2,1.51,0,1.77,1.2,1.48l.09,0a.64.64,0,0,0,.47-.67c0-.33-.12-.6-.47-.66S7,171.86,6.58,171.82Z"/><path class="b" d="M245.45,177.51l-4.68,0h-.55v-8.35h5.23V171h-3v1.43h2.75v1.78H242.5v1.34h2.95Z"/><path class="a" d="M245.45,175.54H242.5V174.2h2.74v-1.78h-2.75V171h3Z"/><path class="b" d="M74.68,179.83c.34-1,.68-1.9,1-2.86.09-.26.21-.39.5-.37.5,0,1,0,1.6,0l-1.59,3.23Z"/><path class="b" d="M195.3,108.37c.8,0,1.56,0,2.33,0,1.38,0,2.76.11,4.14.14.36,0,.47.14.51.49,1.15,8.38,2.42,16.74,4.15,25,.3,1.45.66,2.9,1,4.35,0,.18.1.36.15.54h.13c.15-.84.33-1.68.45-2.53a49,49,0,0,0-1.62-19.76.65.65,0,0,1,.31-.85,2.5,2.5,0,0,1,2-.31,5.19,5.19,0,0,1,3.29,2.61,12.56,12.56,0,0,1,1.65,5.86,32.57,32.57,0,0,1-.38,6.62c-.38,2.89-.71,5.78-1.15,8.66-.66,4.33-1.35,8.66-2.15,13a17.54,17.54,0,0,1-2.28,5.63,7.6,7.6,0,0,1-7,3.9,16.83,16.83,0,0,1-6-1.3,75.42,75.42,0,0,1-9.41-4.59c-5.12-2.8-10.23-5.62-15.53-8.08a125.78,125.78,0,0,0-20.32-7.44,100.19,100.19,0,0,0-13.36-2.73,79.6,79.6,0,0,0-16.6-.42A73.7,73.7,0,0,0,81.63,151.4a61.52,61.52,0,0,0-10.09,9.14c-.21.24-.38.19-.62.1L54.7,154.15l-1.84-.74,1.31-.94a165.22,165.22,0,0,1,19-11.62,112.44,112.44,0,0,1,29.75-10.76,93.32,93.32,0,0,1,12.81-1.66,95.07,95.07,0,0,1,13.14.13,109.94,109.94,0,0,1,21.05,3.83,166.29,166.29,0,0,1,26.26,10c5.69,2.69,11.19,5.72,16.68,8.78A46.88,46.88,0,0,0,197,153.3a6,6,0,0,0,5.09-.26,3.7,3.7,0,0,0,1.8-2.29,6.61,6.61,0,0,0,0-4c-2.42-9.43-4.64-18.91-6.45-28.48-.6-3.2-1.42-6.35-2.14-9.53C195.35,108.65,195.32,108.51,195.3,108.37Z"/><path class="b" d="M47.49,88.58c.07.62.15,1.2.21,1.79q.77,6.84,1.54,13.69a.53.53,0,0,1-.35.64,9.46,9.46,0,0,0-2.83,1.91c-.19-.93-.32-1.82-.57-2.69a10.54,10.54,0,0,0-.83-2.11,4.17,4.17,0,0,0-5.27-2.14,15.09,15.09,0,0,0-4.46,2.56,1.24,1.24,0,0,0-.49,1.08c0,5.4,0,10.79,0,16.19,0,.15,0,.29,0,.61a18.27,18.27,0,0,0,2.14-1.21,2,2,0,0,0,.56-1.11c.19-.81.29-1.64.46-2.45a.63.63,0,0,1,.29-.42c1.22-.46,2.46-.89,3.69-1.33,0,0,.09,0,.05,0,0,1,0,2,0,3-.1,2.84-.23,5.67-.35,8.51,0,.42,0,.83-.07,1.25a.45.45,0,0,1-.2.33c-1,.36-2,.69-3,1-.16-.73-.32-1.44-.48-2.15a3.07,3.07,0,0,0-.22-.54c-.13-.3-.31-.38-.64-.21-.62.31-1.26.59-1.91.86a.46.46,0,0,0-.32.5q.06,7.29.1,14.58c0,2.6,0,5.2.07,7.8,0,1.26,0,2.53,0,3.79a.74.74,0,0,1-.27.54q-4.34,2.73-8.7,5.43l-.21.1c0-.19,0-.34,0-.48q0-21.88,0-43.76c0-.63,0-.59-.62-.74a13.11,13.11,0,0,1-2.41-.76c-1.89-.9-2.63-2.61-2.35-4.85a9.31,9.31,0,0,1,.76-2.26,2.42,2.42,0,0,1,1-1.12L47.24,88.71Z"/><path class="b" d="M83.69,128.18c0-.2,0-.34,0-.49q0-9,0-18c0-2.85,0-5.71,0-8.56a7.1,7.1,0,0,0-.15-1.41c-.19-.88-.59-1.07-1.41-.73l-.22.08c0-1.12,0-2.2,0-3.27a.41.41,0,0,1,.18-.27l7.37-5a8.13,8.13,0,0,1,.86,3.71l.16-.33a8.93,8.93,0,0,1,3.23-4,4.67,4.67,0,0,1,3.6-.79,3.43,3.43,0,0,1,2.54,2.09l.17.4c.4-.63.74-1.27,1.18-1.84a6.25,6.25,0,0,1,4.41-2.5,4.45,4.45,0,0,1,4.65,2.75,11.53,11.53,0,0,1,.88,4.75c0,3,0,6,0,9q0,8.9,0,17.8c0,.21,0,.41,0,.66l-6.59.91v-.54q0-8.76,0-17.53c0-2.47,0-4.94,0-7.4a12,12,0,0,0-.52-3,1.49,1.49,0,0,0-2-1.15c-.81.26-.93,1-1,1.67a4.75,4.75,0,0,0,0,.67q0,13.4,0,26.81c0,.27,0,.53,0,.83l-6.68,1.55c0-.22,0-.38,0-.54q0-12.42,0-24.84a7,7,0,0,0-.46-2.84,2.77,2.77,0,0,0-.64-.94,1.23,1.23,0,0,0-2,.41,7.89,7.89,0,0,0-.4,1.68,4.76,4.76,0,0,0,0,.85q0,10.37,0,20.74c0,2,0,4,0,6a.48.48,0,0,1-.41.55c-2,.63-4,1.28-6.07,1.92Z"/><path class="b" d="M55.22,143,54.89,140l-.12,0c-.13.28-.27.57-.39.85a10.4,10.4,0,0,1-2.17,3.55,7.85,7.85,0,0,1-2.76,1.76,2.31,2.31,0,0,1-2.54-.58A8.35,8.35,0,0,1,45,142.41a33.22,33.22,0,0,1-1.68-6.6A44.57,44.57,0,0,1,43,125.68,49.65,49.65,0,0,1,46,111.91a16.92,16.92,0,0,1,1.16-2.5A6.21,6.21,0,0,1,53.48,106c.59,0,1.17.19,1.81.29l.47-1.49.84.37c1.69.77,3.38,1.55,5.07,2.31a.49.49,0,0,1,.35.63,82.45,82.45,0,0,0-1,12.65c0,3.73.07,7.46.11,11.19a1.37,1.37,0,0,0,0,.19l1.65.11c0,.55,0,1.08,0,1.61,0,.89,0,1.78,0,2.68a.79.79,0,0,1-.33.72q-3.28,2.57-6.54,5.17Zm-1.1-20.5h0c.07-3.37.14-6.74.23-10.11,0-.45-.18-.62-.56-.57a2.34,2.34,0,0,0-1,.32,4.31,4.31,0,0,0-1,1.09,11.09,11.09,0,0,0-1.36,3.52,44.2,44.2,0,0,0-1.14,8.83c-.08,2.18-.06,4.36,0,6.55a6.82,6.82,0,0,0,.83,3.17,1.64,1.64,0,0,0,2.84.4,2.88,2.88,0,0,0,.72-1.21,10.81,10.81,0,0,0,.44-2.57C54.15,128.73,54.12,125.59,54.12,122.46Z"/><path class="b" d="M174.8,114.91a28.35,28.35,0,0,1,1.67-9.93,9,9,0,0,1,2.27-3.53,5.1,5.1,0,0,1,6.54-.68,14.6,14.6,0,0,1,4.27,4.12,27.86,27.86,0,0,1,4.05,8.87,37.28,37.28,0,0,1,1.4,11.86,29,29,0,0,1-1.14,7.65,9.42,9.42,0,0,1-2.28,4,5.44,5.44,0,0,1-6.6,1,15,15,0,0,1-5.19-4.8,26.06,26.06,0,0,1-4-9.78A42.39,42.39,0,0,1,174.8,114.91Zm7.94,3.9h.1c0,1.69,0,3.39,0,5.08s.09,3.53.23,5.29a7.67,7.67,0,0,0,1.21,3.78,1.37,1.37,0,0,0,1.27.76c.58-.06.81-.56.91-1a17.11,17.11,0,0,0,.51-3.2q.08-6.75,0-13.51c0-2.31-.19-4.63-.33-6.94a4.57,4.57,0,0,0-1-2.67,1.44,1.44,0,0,0-1.43-.54,1.14,1.14,0,0,0-.87,1,15,15,0,0,0-.37,2.46C182.88,112.48,182.82,115.65,182.74,118.81Z"/><path class="b" d="M129.25,108.91c.07.12.13.2.17.29.53,1.21,1.06,2.42,1.58,3.64a.74.74,0,0,1,.07.46,13.74,13.74,0,0,1-3.84,6.32c-3.54,3.15-7.6,2-10-.62a12.48,12.48,0,0,1-2.77-5.37A38,38,0,0,1,113,102.75a31.24,31.24,0,0,1,4-15.22,7.51,7.51,0,0,1,4.28-3.45,4.66,4.66,0,0,1,4.9,1.16,14.53,14.53,0,0,1,3.71,6.31,28.78,28.78,0,0,1,1.27,9.09.72.72,0,0,1-.47.74c-3.21,1.59-6.4,3.2-9.61,4.79a.58.58,0,0,0-.39.68,11.17,11.17,0,0,0,2.38,5.87,2.36,2.36,0,0,0,3.75.23,9.14,9.14,0,0,0,2-3C129,109.61,129.09,109.28,129.25,108.91Zm-9.2-8.23.18.07c.68-.34,1.36-.65,2-1a3.36,3.36,0,0,0,1.88-2.7,23.63,23.63,0,0,0,0-3.55,6.87,6.87,0,0,0-1-3.16.88.88,0,0,0-1.17-.45,1.9,1.9,0,0,0-.94.73,7,7,0,0,0-.63,1.88,31.06,31.06,0,0,0-.4,6.08C120.06,99.27,120.05,100,120.05,100.68Z"/><path class="b" d="M215.38,144.62c1.28.89,2.5,1.73,3.71,2.59.1.07.12.34.08.5a9.83,9.83,0,0,0-.14,3.89,4.67,4.67,0,0,0,2.66,3.62,1.76,1.76,0,0,0,2.27-.49,3.64,3.64,0,0,0,.69-3.36,13.44,13.44,0,0,0-2.28-4.6c-1.4-2.07-2.86-4.1-4.18-6.21a18.75,18.75,0,0,1-2.75-7.19,11.62,11.62,0,0,1,1.5-7.89,5.06,5.06,0,0,1,5.64-2.25,9.37,9.37,0,0,1,7,8,13.05,13.05,0,0,1-.36,4.68c0,.16-.1.31-.15.47s-.05.13-.1.25c-.13-.07-.25-.12-.36-.19-1-.63-2-1.28-3-1.9-.25-.16-.28-.31-.2-.58a4.62,4.62,0,0,0-.4-4.11,3.07,3.07,0,0,0-2.46-1.57,2.25,2.25,0,0,0-2.31,2,6.29,6.29,0,0,0,1.09,4.45c1,1.51,2.16,2.95,3.27,4.4a43.56,43.56,0,0,1,4.56,7,14.45,14.45,0,0,1,.89,11.21,5.22,5.22,0,0,1-4.3,3.92,8.28,8.28,0,0,1-4.11-.53,10,10,0,0,1-6.51-6.26,12.33,12.33,0,0,1-.61-5.36c.15-1.41.49-2.8.75-4.2A2.51,2.51,0,0,1,215.38,144.62Z"/><path class="b" d="M138.41,84.76l1.7,3.45a10.6,10.6,0,0,1,2.51-2.79,8.28,8.28,0,0,1,1.73-1.16,3.31,3.31,0,0,1,4.51,3.05c0,1.28-.1,2.55-.16,3.83a2.64,2.64,0,0,1,0,.32c-1-.18-2-.44-2.94-.52a3.46,3.46,0,0,0-4.11,3.42c-.13,1.54-.08,3.09-.09,4.63q0,5.22,0,10.44,0,6.47.05,12.93c0,.19,0,.38,0,.65l-7.18-1v-.6c0-5.62,0-11.24,0-16.86a60.9,60.9,0,0,0-.73-10,6.58,6.58,0,0,0-.25-.95c-.31-.95-.66-1.18-1.66-1.12a1.61,1.61,0,0,1-.05-.28c0-1.23,0-2.47,0-3.7a.57.57,0,0,1,.19-.43C134,86.92,136.18,85.86,138.41,84.76Z"/><path class="b" d="M66.71,135.26c0-.87,0-1.7,0-2.53,0-4.19.05-8.38,0-12.58,0-2.75-.23-5.49-.41-8.23a15.2,15.2,0,0,0-.43-2.22,1.79,1.79,0,0,0-.24-.52.77.77,0,0,0-1.3-.23l-.34.3c0-.25,0-.44,0-.62,0-1.06,0-2.11,0-3.17a.83.83,0,0,1,.18-.51q3.24-3.5,6.5-7l.22-.18L72,100.29c.56-.77,1.08-1.57,1.69-2.29A28.62,28.62,0,0,1,76,95.67a3.21,3.21,0,0,1,2.55-1,1.59,1.59,0,0,1,1.6,1.74c0,1.71-.06,3.42-.07,5.13,0,.37-.12.43-.47.43a11.32,11.32,0,0,0-2.43.07,3.83,3.83,0,0,0-2.75,2.68,14.15,14.15,0,0,0-.82,5.21c0,4.39,0,8.77,0,13.16,0,2.88,0,5.77,0,8.65a.48.48,0,0,1-.31.52l-6.32,2.9Z"/><path class="b" d="M142.79,162.48l-3.33,2.06c-.18-.27-.35-.53-.53-.78a3.06,3.06,0,0,0-4.62-.69,4.62,4.62,0,0,0-1.35,2.37,10.78,10.78,0,0,0,.14,5.93,5.29,5.29,0,0,0,.43,1,3.13,3.13,0,0,0,2.93,1.77,3.34,3.34,0,0,0,3-1.91,7.58,7.58,0,0,0,.43-1.26c.1-.32,0-.42-.36-.42-1,0-2,0-3,0l-.39,0v-3.93h7.6c0,.67,0,1.25,0,1.84a13.49,13.49,0,0,1-1.59,6.42,6.75,6.75,0,0,1-10.11,1.72,9.8,9.8,0,0,1-2.8-4.78,13.35,13.35,0,0,1,.74-9.51,7.6,7.6,0,0,1,3.77-3.83,6.56,6.56,0,0,1,8.08,2.47c.3.43.55.88.81,1.33A1.78,1.78,0,0,1,142.79,162.48Z"/><path class="b" d="M115.51,177.62c0-.4,0-.77,0-1.14q0-6.86-.06-13.73c0-1.08,0-2.17,0-3.25,0-.25.06-.39.34-.4,2-.11,4-.27,6-.31a3.71,3.71,0,0,1,3.72,2.61,8.23,8.23,0,0,1,0,6.21,3.86,3.86,0,0,1-2.24,2.23l-.31.15,3.86,7.59c-.17,0-.28,0-.39,0-1.19,0-2.38,0-3.57,0a.55.55,0,0,1-.59-.4c-1-2.17-1.94-4.34-2.91-6.5a.43.43,0,0,0-.19-.21c0,.23,0,.45,0,.68,0,2,0,4,0,6,0,.34-.08.47-.44.47C117.68,177.6,116.65,177.62,115.51,177.62Zm3.58-14.86c0,.24,0,.4,0,.55,0,1.1,0,2.2,0,3.3s.06,1.26,1.3,1a1.83,1.83,0,0,0,1.71-1.51,6.55,6.55,0,0,0-.05-2.07,1.47,1.47,0,0,0-1.52-1.31C120.09,162.72,119.63,162.76,119.09,162.76Z"/><path class="b" d="M103,160.58c0,1.39,0,2.68,0,4,0,2.11,0,4.22.09,6.33a8.17,8.17,0,0,0,.26,1.76,1.88,1.88,0,0,0,1.83,1.49c1.18.07,2.1-.33,2.37-1.26a10.66,10.66,0,0,0,.4-2.8c0-3.17,0-6.33,0-9.5,0-.65,0-.65.63-.72l3.23-.37c0,.58,0,1.11,0,1.64,0,3.24.06,6.48,0,9.72a15.56,15.56,0,0,1-.43,3.44,4.64,4.64,0,0,1-4,3.69,9.61,9.61,0,0,1-4.37-.16,4.68,4.68,0,0,1-3.56-4.13,44.31,44.31,0,0,1-.3-5c-.06-2.33,0-4.67-.08-7,0-.36.1-.49.46-.54C100.64,161,101.75,160.77,103,160.58Z"/><path class="b" d="M159.35,159.79c.75.09,1.41.16,2.07.25,1.41.21,2.83.4,4.22.67a5.24,5.24,0,0,1,4.23,5.3,8.39,8.39,0,0,1-.34,2.5,3.27,3.27,0,0,1-2.35,2.24l-.34.11s0,0-.11.1l3.76,6.72a31.19,31.19,0,0,0-3.12,0,1.51,1.51,0,0,1-1.77-1.12c-.74-1.77-1.6-3.48-2.42-5.22a.54.54,0,0,0-.26-.27v6.55h-3.56Zm3.6,4.14c0,1.23,0,2.38,0,3.54s0,1,1,1.09a1.78,1.78,0,0,0,2.11-2,2.55,2.55,0,0,0-.14-1,2.84,2.84,0,0,0-.78-1.09A3.68,3.68,0,0,0,162.94,163.93Z"/><path class="b" d="M150.7,173.49h4.88c0,.38,0,.67,0,1,0,.89,0,1.78,0,2.68,0,.4-.09.54-.51.53-2.36,0-4.73,0-7.09,0h-1.06v-19l8.73.69v4h-.44c-1.33-.09-2.67-.18-4-.29-.4,0-.52.09-.51.48,0,.9,0,1.81,0,2.74l4.6.26v3.91l-4.6-.15Z"/><path class="b" d="M93.13,169.4c.33,0,.57.07.81.13A2.75,2.75,0,0,1,96,171.7a5.13,5.13,0,0,1-.62,4.28,3.65,3.65,0,0,1-2.89,1.57c-2.44.16-4.89.2-7.38.3,0-.27,0-.43,0-.58,0-4.24,0-8.48,0-12.71,0-.41.09-.6.53-.68,2-.37,3.9-.82,5.86-1.17a5.4,5.4,0,0,1,2,.06,2.74,2.74,0,0,1,2.06,2.91,3.48,3.48,0,0,1-2.1,3.55A3,3,0,0,0,93.13,169.4Zm-4.44,5.45c1-.13,1.91-.19,2.81-.39a1.43,1.43,0,0,0,1-1.74,1.22,1.22,0,0,0-1.38-1.25c-.81,0-1.62.07-2.45.11Zm0-5.86a4.33,4.33,0,0,0,.59-.05,12.9,12.9,0,0,0,1.93-.5,1.48,1.48,0,0,0,.67-1.85c-.16-.57-.53-.81-1.33-.76a14.06,14.06,0,0,0-1.59.21.39.39,0,0,0-.26.27C88.64,167.17,88.64,168,88.64,169Z"/><path class="b" d="M174.41,172.88l1.4,1.17a3.3,3.3,0,0,0,2.36.9,1.5,1.5,0,0,0,.7-2.84c-.63-.34-1.32-.55-1.94-.89a11.84,11.84,0,0,1-2.15-1.31,4.23,4.23,0,0,1-1.19-4,3.72,3.72,0,0,1,2-3.14,3.87,3.87,0,0,1,2.48-.31,8.71,8.71,0,0,1,4.29,2,.46.46,0,0,1,.15.39c-.34.77-.71,1.53-1.06,2.25-.63-.42-1.2-.86-1.84-1.21a3.56,3.56,0,0,0-1.23-.33,1,1,0,0,0-1.15.59,1.2,1.2,0,0,0,.31,1.39,5.5,5.5,0,0,0,1.09.69c.8.4,1.62.74,2.41,1.15a4.14,4.14,0,0,1,2.18,4.49,4.62,4.62,0,0,1-4,4.06,6.46,6.46,0,0,1-6.09-1.85.52.52,0,0,1-.11-.76C173.51,174.52,174,173.62,174.41,172.88Z"/><path class="b" d="M216.15,169.12l1.32,8.35c-.7,0-1.32,0-1.94,0-.11,0-.27-.23-.29-.38-.21-1.48-.39-3-.59-4.46,0-.06,0-.11-.08-.28l-.35,1.16c-.36,1.19-.72,2.39-1.07,3.58a.46.46,0,0,1-.52.4c-1.16,0-1.16,0-1.49-1.11-.39-1.32-.78-2.64-1.24-4-.08.6-.15,1.21-.24,1.81-.13.94-.27,1.88-.39,2.82,0,.33-.17.45-.51.43-.55,0-1.09,0-1.73,0l1.32-8.35c.73,0,1.43,0,2.13,0,.12,0,.27.24.32.39.46,1.49.91,3,1.36,4.47l.09.3.73-2.42c.24-.79.49-1.59.72-2.39.08-.27.19-.39.49-.38C214.82,169.14,215.45,169.12,216.15,169.12Z"/><path class="b" d="M224.09,177.71a4.47,4.47,0,0,1-4.5-5.28,4.52,4.52,0,0,1,3.78-3.44,4.66,4.66,0,0,1,4.91,2.46,4.36,4.36,0,0,1-3.18,6.13C224.77,177.64,224.43,177.67,224.09,177.71Zm-2.23-4.4a2.27,2.27,0,0,0,2,2.44,2.22,2.22,0,0,0,2.43-2,2.35,2.35,0,0,0-2.33-2.89A2.28,2.28,0,0,0,221.86,173.31Z"/><path class="b" d="M233.53,174.41c0,.14,0,.28,0,.41,0,.76,0,1.52,0,2.27,0,.29-.1.39-.39.38-.58,0-1.15,0-1.76,0v-8.29s.07-.05.11-.05c1.31,0,2.62,0,3.92.08a2.5,2.5,0,0,1,2.16,3.5,2,2,0,0,1-1.18,1.21l-.55.21,2.31,3.34c-.9,0-1.7,0-2.49,0-.12,0-.26-.17-.34-.3-.48-.77-.94-1.55-1.41-2.33l-.27-.44Zm0-1.33a9.31,9.31,0,0,0,1.15-.11.89.89,0,0,0,.75-1,.93.93,0,0,0-.78-1,3.78,3.78,0,0,0-.84-.07c-.1,0-.27.12-.27.19C233.5,171.71,233.51,172.36,233.51,173.08Z"/><path class="b" d="M199.48,176.58a4,4,0,0,1-3.67,1,2.14,2.14,0,0,1-1.72-1.62,2.18,2.18,0,0,1,.72-2.33c.34-.3.74-.54,1.13-.81-.14-.21-.29-.41-.41-.62a1.86,1.86,0,0,1,1-2.85,3.22,3.22,0,0,1,2.4.08,1.93,1.93,0,0,1,.69,3.06,11.09,11.09,0,0,1-.92.87l1,1,1.15-1.09,1.23,1.25-1.22,1v.23c.31.26.64.52.94.79s.6.57.9.86l0,.13h-1.11C200.73,177.5,199.88,177.62,199.48,176.58Zm-1.24-1.1L196.86,174c-.44.41-.91.77-.73,1.37a1.11,1.11,0,0,0,.65.63C197.34,176.2,197.78,175.85,198.23,175.47Zm-.67-3.19.22.12c.19-.26.4-.51.58-.77a.67.67,0,0,0,0-.93.86.86,0,0,0-1-.06.65.65,0,0,0-.22.87A6.3,6.3,0,0,0,197.56,172.28Z"/><path class="b" d="M44.31,170.36l-2.42,3.1c-.45.58-.45.57,0,1.15l2.68,3.32a14,14,0,0,0-1.66,0,1.48,1.48,0,0,1-1.61-.78c-.47-.75-1.06-1.44-1.59-2.15-.08-.11-.18-.21-.35-.42v3.31h-2.1v-7.5h2.07v3.17l.11,0c.09-.12.19-.23.28-.35.63-.87,1.24-1.75,1.89-2.6a.86.86,0,0,1,.57-.29C42.86,170.34,43.53,170.36,44.31,170.36Z"/><path class="b" d="M15,175.17v2.73H13.07v-7.6c1.37.06,2.74,0,4.08.2a2,2,0,0,1,1.68,2,2.05,2.05,0,0,1-1.39,2.24l-.32.14,2.1,3c-.81,0-1.53,0-2.25,0-.11,0-.24-.15-.31-.26-.44-.71-.87-1.42-1.3-2.13l-.25-.4Zm0-1.29a1.56,1.56,0,0,0,1.58-.39,1.13,1.13,0,0,0,0-1.18c-.42-.48-1-.37-1.53-.35Z"/><path class="b" d="M29.52,177.92H27.4l1.15-3.25c.47-1.33,1-2.65,1.41-4,.08-.23.17-.34.43-.33.7,0,1.4,0,2.09,0a.5.5,0,0,1,.37.26c.85,2.34,1.68,4.69,2.52,7a2.23,2.23,0,0,1,.05.27c-.65,0-1.26,0-1.88,0-.09,0-.18-.11-.25-.18s0-.08,0-.12c-.13-.34-.16-.8-.41-1s-.68-.05-1-.06c-.52,0-1,0-1.56,0a.37.37,0,0,0-.43.33C29.73,177.24,29.62,177.58,29.52,177.92Zm.88-2.84h2.09l-1-3.38Z"/><path class="b" d="M52.11,177.93l.7-2c.62-1.75,1.25-3.49,1.86-5.24a.44.44,0,0,1,.5-.36c.67,0,1.34,0,2,0a.55.55,0,0,1,.41.27c.85,2.33,1.68,4.66,2.51,7a1.94,1.94,0,0,1,.05.29c-.63,0-1.24,0-1.85,0-.1,0-.19-.13-.28-.2s0-.06,0-.08c-.35-1.06-.35-1.06-1.48-1.06-.5,0-1,0-1.51,0a.38.38,0,0,0-.45.31c-.1.35-.15.82-.4,1s-.71.05-1.08.06Zm5.09-2.86-1.05-3.38-1,3.38Z"/><path class="b" d="M21.1,170.38h4.75c0,.48,0,.95,0,1.41,0,.08-.23.2-.35.2-.59,0-1.19,0-1.78,0h-.51v1.31h2.48V175H23.19v1.28h2.64v1.67H21.1Z"/><path class="b" d="M66.76,170.85l-.62,1.37a14.66,14.66,0,0,0-1.39-.47,1.13,1.13,0,0,0-.68.11.55.55,0,0,0,0,1,3.15,3.15,0,0,0,.66.27c.28.09.57.15.85.25a2.23,2.23,0,0,1,1.24,3.43,2.9,2.9,0,0,1-1,1,3.83,3.83,0,0,1-4.39-.77l.86-1.38a15.61,15.61,0,0,0,1.72.88.94.94,0,0,0,1.17-.55.74.74,0,0,0-.43-.92c-.4-.16-.82-.27-1.23-.4-1.33-.43-1.79-1-1.71-2.29a2.32,2.32,0,0,1,2-2.1A4,4,0,0,1,66.76,170.85Z"/><path class="b" d="M46.25,170.38H51c0,.48,0,1,0,1.42,0,.08-.23.19-.36.19-.65,0-1.31,0-2,0-.31,0-.43.1-.4.41s0,.56,0,.9h2.54v1.64H48.31v3H46.25Z"/><path class="b" d="M72.62,177.91h-2.1c0-.15,0-.3,0-.46,0-1.6,0-3.21,0-4.81,0-.42-.13-.55-.53-.51a4.9,4.9,0,0,1-.93,0c-.11,0-.28-.14-.29-.22,0-.5,0-1,0-1.52h5.65c0,.51,0,1,0,1.49,0,.09-.19.24-.31.25a5.94,5.94,0,0,1-1,0c-.33,0-.43.09-.43.43,0,1.62,0,3.24,0,4.86C72.62,177.57,72.62,177.73,72.62,177.91Z"/><path class="a" d="M159,100.38a6.46,6.46,0,0,1,3.52,2.86,14.12,14.12,0,0,1,1.73,5.26,26.7,26.7,0,0,1,0,9.14,10,10,0,0,1-.73,2.33c-1,2.2-2.87,2-4.4,1a.63.63,0,0,1-.16-.46c0-1.8,0-3.6,0-5.4q0-7,0-14.1Z"/><path class="a" d="M158.92,78.7A5.82,5.82,0,0,1,163,82.45a16.52,16.52,0,0,1,.76,7.43,28.11,28.11,0,0,1-.51,3.43,3.3,3.3,0,0,1-.72,1.41c-1.07,1.24-2.3.9-3.52.14-.11-.07-.12-.35-.12-.53q0-4.06,0-8.12,0-3.46,0-6.91Z"/><path class="a" d="M6.53,176.42c0-.55,0-1,0-1.46a.33.33,0,0,1,.24-.22,10.58,10.58,0,0,1,1.28.06.76.76,0,0,1,0,1.48C7.61,176.36,7.1,176.37,6.53,176.42Z"/><path class="a" d="M6.58,171.82c.44,0,.86.06,1.28.13s.47.33.47.66a.64.64,0,0,1-.47.67l-.09,0C6.61,173.59,6.38,173.33,6.58,171.82Z"/><path class="a" d="M54.12,122.46c0,3.14,0,6.27,0,9.41a10.81,10.81,0,0,1-.44,2.57,2.88,2.88,0,0,1-.72,1.21,1.64,1.64,0,0,1-2.84-.4,6.82,6.82,0,0,1-.83-3.17c-.06-2.18-.08-4.37,0-6.55a44.2,44.2,0,0,1,1.14-8.83,11.09,11.09,0,0,1,1.36-3.52,4.31,4.31,0,0,1,1-1.09,2.34,2.34,0,0,1,1-.32c.38-.05.58.12.56.57-.09,3.37-.16,6.74-.23,10.11Z"/><path class="a" d="M182.74,118.81c.08-3.16.14-6.33.25-9.49a15,15,0,0,1,.37-2.46,1.14,1.14,0,0,1,.87-1,1.44,1.44,0,0,1,1.43.54,4.57,4.57,0,0,1,1,2.67c.14,2.31.3,4.62.33,6.94q.08,6.75,0,13.51a17.11,17.11,0,0,1-.51,3.2c-.1.48-.33,1-.91,1a1.37,1.37,0,0,1-1.27-.76,7.67,7.67,0,0,1-1.21-3.78c-.14-1.76-.2-3.53-.23-5.29s0-3.39,0-5.08Z"/><path class="a" d="M120.05,100.68c0-.71,0-1.41,0-2.12a31.06,31.06,0,0,1,.4-6.08,7,7,0,0,1,.63-1.88,1.9,1.9,0,0,1,.94-.73.88.88,0,0,1,1.17.45,6.87,6.87,0,0,1,1,3.16,23.63,23.63,0,0,1,0,3.55,3.36,3.36,0,0,1-1.88,2.7c-.66.36-1.35.68-2,1Z"/><path class="a" d="M119.09,162.76c.54,0,1,0,1.46,0a1.47,1.47,0,0,1,1.52,1.31,6.55,6.55,0,0,1,.05,2.07,1.83,1.83,0,0,1-1.71,1.51c-1.24.23-1.29.2-1.3-1s0-2.2,0-3.3C119.09,163.15,119.09,163,119.09,162.76Z"/><path class="a" d="M162.94,163.93a3.68,3.68,0,0,1,2.22.51,2.84,2.84,0,0,1,.78,1.09,2.55,2.55,0,0,1,.14,1,1.78,1.78,0,0,1-2.11,2c-1,0-1,0-1-1.09S162.94,165.16,162.94,163.93Z"/><path class="a" d="M88.69,174.84v-3.28c.83,0,1.64-.13,2.45-.11a1.22,1.22,0,0,1,1.38,1.25,1.43,1.43,0,0,1-1,1.74C90.59,174.65,89.66,174.71,88.69,174.84Z"/><path class="a" d="M88.64,169c0-.93,0-1.81,0-2.68a.39.39,0,0,1,.26-.27,14.06,14.06,0,0,1,1.59-.21c.8,0,1.17.19,1.33.76a1.48,1.48,0,0,1-.67,1.85,12.9,12.9,0,0,1-1.93.5A4.33,4.33,0,0,1,88.64,169Z"/><path class="a" d="M221.86,173.31a2.28,2.28,0,0,1,2.14-2.44,2.35,2.35,0,0,1,2.33,2.89,2.22,2.22,0,0,1-2.43,2A2.27,2.27,0,0,1,221.86,173.31Z"/><path class="a" d="M233.51,173.08c0-.72,0-1.37,0-2,0-.07.17-.19.27-.19a3.78,3.78,0,0,1,.84.07.93.93,0,0,1,.78,1,.89.89,0,0,1-.75,1A9.31,9.31,0,0,1,233.51,173.08Z"/><path class="a" d="M198.23,175.47c-.45.38-.89.73-1.46.55a1.11,1.11,0,0,1-.65-.63c-.17-.61.29-1,.73-1.37Z"/><path class="a" d="M197.56,172.28a6.3,6.3,0,0,1-.5-.77.65.65,0,0,1,.22-.87.86.86,0,0,1,1,.06.67.67,0,0,1,0,.93c-.18.26-.39.51-.58.77Z"/><path class="a" d="M15,173.88V172c.56,0,1.12-.12,1.53.35a1.13,1.13,0,0,1,0,1.18A1.56,1.56,0,0,1,15,173.88Z"/><path class="a" d="M30.4,175.08l1-3.38,1,3.38Z"/><path class="a" d="M57.2,175.08h-2.1l1-3.38Z"/><path class="c" d="M235.42,159.47a2.63,2.63,0,1,0-2.63-2.63,2.63,2.63,0,0,0,2.63,2.63Zm0-.45a2.18,2.18,0,1,1,2.18-2.18,2.18,2.18,0,0,1-2.18,2.18Z"/><path class="c" d="M234.87,157.07h.52l.79,1.3h.51l-.85-1.32a.78.78,0,0,0,.78-.82c0-.59-.35-.85-1.06-.85h-1.14v3h.45v-1.3Zm0-.38v-.93h.62c.32,0,.65.07.65.44s-.34.49-.73.49Z"/></svg>