<?xml version="1.0" encoding="utf-8"?>
<!-- Generator: Adobe Illustrator 20.1.0, SVG Export Plug-In . SVG Version: 6.00 Build 0)  -->
<svg version="1.1" id="Layer_1" xmlns="http://www.w3.org/2000/svg" xmlns:xlink="http://www.w3.org/1999/xlink" x="0px" y="0px"
	 viewBox="0 0 21.4 21.4" style="enable-background:new 0 0 21.4 21.4;" xml:space="preserve">
<style type="text/css">
	.st0{fill:none;stroke:#000000;stroke-width:0.25;stroke-miterlimit:10;}
	.st1{fill:none;stroke:#000000;stroke-linecap:round;stroke-linejoin:round;stroke-miterlimit:10;}
	.st2{fill:none;stroke:#000000;stroke-width:0.75;stroke-linecap:round;stroke-linejoin:round;stroke-miterlimit:10;}
	.st3{fill:none;}
	.st4{clip-path:url(#SVGID_2_);}
	.st5{clip-path:url(#SVGID_4_);}
	.st6{clip-path:url(#SVGID_6_);}
	.st7{fill:#010002;stroke:#000000;stroke-width:0.7;stroke-miterlimit:10;}
	.st8{stroke:#231F20;stroke-width:0.1;stroke-miterlimit:10;}
	.st9{stroke:#231F20;stroke-width:0.25;stroke-miterlimit:10;}
	.st10{stroke:#000000;stroke-width:0.25;stroke-miterlimit:10;}
	.st11{fill:none;stroke:#000000;stroke-width:0.75;stroke-miterlimit:10;}
	.st12{clip-path:url(#SVGID_8_);}
	.st13{fill:none;stroke:#000000;stroke-width:0.5;stroke-miterlimit:10;}
</style>
<g>
	<g>
		<defs>
			<rect id="SVGID_3_" width="21.4" height="21.4"/>
		</defs>
		<clipPath id="SVGID_2_">
			<use xlink:href="#SVGID_3_"  style="overflow:visible;"/>
		</clipPath>
		<path class="st4" d="M21.1,19.5l-1.3-1.3c-0.6-0.6-0.9-1.4-1.2-2.2c-0.2-0.6-0.5-1.2-0.8-1.6c-1.1-1.3-2.1-1.6-3.5-1.7l-1-1
			c0-0.3,0.3-2.1-1.5-3.3C10.1,7.2,9.6,6.3,9,5.1c-0.9-1.6-2.4-2-3.6-2.3C4.8,2.7,4.3,2.6,4,2.4L1.9,0.3C1.6,0,1.1-0.1,0.7,0.1
			C0.3,0.3,0,0.7,0,1.1v19.2c0,0.6,0.5,1.1,1.1,1.1h19.2c0.5,0,0.9-0.3,1-0.7C21.5,20.3,21.4,19.8,21.1,19.5L21.1,19.5z M17.2,14.9
			c0.3,0.3,0.5,0.9,0.7,1.4c0,0,0,0.1,0,0.1l-2.8-2.8C16,13.7,16.6,14,17.2,14.9L17.2,14.9z M5.2,3.5c1.1,0.3,2.4,0.6,3.2,1.9
			C9,6.7,9.6,7.7,11.4,9c0.9,0.7,1.2,1.5,1.2,2L5.2,3.5C5.1,3.5,5.1,3.5,5.2,3.5L5.2,3.5z M20.7,20.4c0,0.1-0.1,0.3-0.4,0.3H1.1
			c-0.2,0-0.4-0.2-0.4-0.4V1.1c0-0.3,0.2-0.4,0.3-0.4c0,0,0.1,0,0.2,0c0.1,0,0.2,0,0.3,0.1l17.9,17.9h0l1.3,1.3
			C20.8,20.2,20.7,20.4,20.7,20.4L20.7,20.4z M20.7,20.4"/>
	</g>
	<path d="M9.8,11.6c-0.1-0.1-0.4-0.1-0.5,0l-6.9,6.9c-0.1,0.1-0.1,0.4,0,0.5c0.1,0.1,0.2,0.1,0.3,0.1c0.1,0,0.2,0,0.3-0.1l6.9-6.9
		C9.9,12,9.9,11.8,9.8,11.6L9.8,11.6z M9.8,11.6"/>
	<path d="M2.7,16.1c0.1,0,0.2,0,0.3-0.1l5.3-5.3c0.1-0.1,0.1-0.4,0-0.5c-0.1-0.1-0.4-0.1-0.5,0l-5.3,5.3c-0.1,0.1-0.1,0.4,0,0.5
		C2.5,16,2.6,16.1,2.7,16.1L2.7,16.1z M2.7,16.1"/>
	<path d="M11.3,13.2c-0.1-0.1-0.4-0.1-0.5,0l-5.3,5.3c-0.1,0.1-0.1,0.4,0,0.5c0.1,0.1,0.2,0.1,0.3,0.1c0.1,0,0.2,0,0.3-0.1l5.3-5.3
		C11.4,13.5,11.4,13.3,11.3,13.2L11.3,13.2z M11.3,13.2"/>
	<path d="M12.8,14.7c-0.1-0.1-0.4-0.1-0.5,0l-3.8,3.8c-0.1,0.1-0.1,0.4,0,0.5c0.1,0.1,0.2,0.1,0.3,0.1c0.1,0,0.2,0,0.3-0.1l3.8-3.8
		C13,15.1,13,14.8,12.8,14.7L12.8,14.7z M12.8,14.7"/>
	<path d="M13.9,16.2l-2.3,2.3c-0.1,0.1-0.1,0.4,0,0.5c0.1,0.1,0.2,0.1,0.3,0.1s0.2,0,0.3-0.1l2.3-2.3c0.1-0.1,0.1-0.4,0-0.5
		C14.2,16.1,14,16.1,13.9,16.2L13.9,16.2z M13.9,16.2"/>
	<path d="M2.7,13c0.1,0,0.2,0,0.3-0.1l3.8-3.8c0.1-0.1,0.1-0.4,0-0.5c-0.1-0.1-0.4-0.1-0.5,0l-3.8,3.8c-0.1,0.1-0.1,0.4,0,0.5
		C2.5,13,2.6,13,2.7,13L2.7,13z M2.7,13"/>
	<path d="M2.7,10c0.1,0,0.2,0,0.3-0.1l2.3-2.3c0.1-0.1,0.1-0.4,0-0.5C5.1,6.9,4.8,6.9,4.7,7L2.4,9.3c-0.1,0.1-0.1,0.4,0,0.5
		C2.5,9.9,2.6,10,2.7,10L2.7,10z M2.7,10"/>
	<path d="M2.7,6.9c0.1,0,0.2,0,0.3-0.1L3.7,6c0.1-0.1,0.1-0.4,0-0.5c-0.1-0.1-0.4-0.1-0.5,0L2.4,6.3c-0.1,0.1-0.1,0.4,0,0.5
		C2.5,6.9,2.6,6.9,2.7,6.9L2.7,6.9z M2.7,6.9"/>
	<path d="M15.4,17.7l-0.8,0.8c-0.1,0.1-0.1,0.4,0,0.5c0.1,0.1,0.2,0.1,0.3,0.1c0.1,0,0.2,0,0.3-0.1l0.8-0.8c0.1-0.1,0.1-0.4,0-0.5
		C15.8,17.6,15.5,17.6,15.4,17.7L15.4,17.7z M15.4,17.7"/>
</g>
</svg>
