<?xml version="1.0" encoding="utf-8"?>
<!-- Generator: Adobe Illustrator 20.1.0, SVG Export Plug-In . SVG Version: 6.00 Build 0)  -->
<svg version="1.1" id="Layer_1" xmlns="http://www.w3.org/2000/svg" xmlns:xlink="http://www.w3.org/1999/xlink" x="0px" y="0px"
	 viewBox="0 0 20.1 27.4" style="enable-background:new 0 0 20.1 27.4;" xml:space="preserve">
<style type="text/css">
	.st0{fill:none;stroke:#000000;stroke-width:0.25;stroke-miterlimit:10;}
	.st1{fill:none;stroke:#000000;stroke-linecap:round;stroke-linejoin:round;stroke-miterlimit:10;}
	.st2{fill:none;stroke:#000000;stroke-width:0.75;stroke-linecap:round;stroke-linejoin:round;stroke-miterlimit:10;}
	.st3{fill:none;}
	.st4{clip-path:url(#SVGID_2_);}
	.st5{clip-path:url(#SVGID_4_);}
	.st6{clip-path:url(#SVGID_6_);}
	.st7{fill:#010002;stroke:#000000;stroke-width:0.7;stroke-miterlimit:10;}
	.st8{stroke:#231F20;stroke-width:0.1;stroke-miterlimit:10;}
	.st9{stroke:#231F20;stroke-width:0.25;stroke-miterlimit:10;}
	.st10{stroke:#000000;stroke-width:0.25;stroke-miterlimit:10;}
	.st11{fill:none;stroke:#000000;stroke-width:0.75;stroke-miterlimit:10;}
	.st12{clip-path:url(#SVGID_8_);}
	.st13{fill:none;stroke:#000000;stroke-width:0.5;stroke-miterlimit:10;}
</style>
<g>
	<g>
		<g>
			<defs>
				<rect id="SVGID_5_" width="20.1" height="27.4"/>
			</defs>
			<clipPath id="SVGID_2_">
				<use xlink:href="#SVGID_5_"  style="overflow:visible;"/>
			</clipPath>
			<path class="st4" d="M18.3,22.8c0.1-0.3,0.2-0.6,0.3-0.9c0.1-0.3,0.1-0.6,0.2-0.8c0.1-0.2,0.1-0.5,0.2-0.7c0.1-0.3,0.1-0.7,0.2-1
				c0-0.2,0.1-0.4,0.1-0.5c0.1-0.4,0.1-0.8,0.2-1.1c0-0.1,0-0.1,0-0.2c0.3-2.2,0.5-4.4,0.5-6.6v-0.1c0-0.8-0.4-1.5-0.9-1.8V6.3h-2.4
				V4.8h-2.4v-2h-2.4V0.4H8.3v2.4H5.8v2H3.4v1.5H1v2.6c-0.6,0.3-1,1-1,1.8v0.1c0,2.2,0.2,4.4,0.5,6.5c0,0.1,0,0.2,0.1,0.3
				c0.1,0.4,0.1,0.7,0.2,1.1c0,0.2,0.1,0.4,0.1,0.6C0.9,19.6,1,20,1,20.3c0.1,0.3,0.1,0.5,0.2,0.8c0.1,0.3,0.1,0.5,0.2,0.8
				c0.1,0.3,0.2,0.6,0.3,1c0.1,0.2,0.1,0.4,0.2,0.6C2,24,2.2,24.5,2.4,25l0.1,0.4l0,0c0.3,0.8,1.2,1.4,2.1,1.4h10.8
				c1,0,1.9-0.7,2.2-1.7l0,0l0-0.2c0.2-0.5,0.4-1.1,0.5-1.6C18.2,23.2,18.2,23,18.3,22.8L18.3,22.8z M18.5,17.1c0,0.1,0,0.2,0,0.3
				c-0.1,0.4-0.1,0.7-0.2,1.1c0,0.2-0.1,0.4-0.1,0.5c-0.1,0.3-0.1,0.6-0.2,0.9c-0.1,0.2-0.1,0.5-0.2,0.7c-0.1,0.3-0.1,0.5-0.2,0.8
				c-0.1,0.5-0.3,1-0.4,1.5c0,0.1-0.1,0.2-0.1,0.3c-0.1,0.4-0.2,0.7-0.3,1.1c-0.2,0-0.4-0.1-0.6-0.1c-1.4-0.3-4.1-0.8-6.2-0.8
				c-2.4,0-5.7,0.6-6.8,0.9c-0.1-0.3-0.2-0.6-0.3-1c0-0.1-0.1-0.3-0.1-0.4c-0.2-0.5-0.3-1-0.4-1.5c-0.1-0.2-0.1-0.5-0.2-0.7
				C2.1,20.5,2,20.2,2,19.9c-0.1-0.3-0.1-0.6-0.2-0.9c0-0.2-0.1-0.4-0.1-0.6c-0.1-0.3-0.1-0.7-0.2-1c0-0.1,0-0.3-0.1-0.4
				c-0.2-1.3-0.3-2.6-0.4-4C1,13,1,13,1,13c0.1-0.2,0.3-0.7,0.8-0.7h1.4c0.6,0,1.3,0.3,1.6,0.8c1.1,1.5,3.5,2.5,5.2,2.5
				c1.6,0,4.1-1,5.2-2.5c0.4-0.5,1-0.8,1.6-0.8h1.4c0.5,0,0.7,0.5,0.8,0.7c0,0,0,0,0,0C18.9,14.4,18.7,15.8,18.5,17.1L18.5,17.1z
				 M1,10.8L1,10.8c0-0.5,0.2-1,0.6-1.1c0.1,0,0.1,0,0.2,0h1.4c0.2,0,0.4,0,0.6,0.1h0c0.4,0.1,0.8,0.4,1.1,0.8c0,0,0,0,0,0
				c0.3,0.4,0.6,0.7,1,1v0l0.2,0.1c0,0,0,0,0.1,0c0.7,0.4,1.4,0.8,2.2,1v0l0.4,0.1c0,0,0,0,0,0c0.2,0,0.4,0.1,0.6,0.1c0,0,0,0,0,0
				c0.2,0,0.4,0,0.6,0c0.2,0,0.4,0,0.6,0c0,0,0,0,0,0c0.2,0,0.5-0.1,0.7-0.1c0,0,0,0,0,0l0.4-0.1v0c0.7-0.2,1.5-0.6,2.2-1
				c0,0,0,0,0.1,0l0.2-0.1v0c0.4-0.3,0.7-0.6,1-1c0,0,0,0,0,0c0.3-0.4,0.7-0.6,1.1-0.8c0.2-0.1,0.4-0.1,0.5-0.1h1.4
				c0.1,0,0.1,0,0.2,0c0.4,0.1,0.6,0.6,0.6,1v0.1c0,0.2,0,0.5,0,0.7c-0.2-0.1-0.5-0.2-0.8-0.2h-1.4c-1,0-1.9,0.5-2.4,1.2
				c-0.9,1.3-3,2.1-4.4,2.1c-1.4,0-3.5-0.8-4.4-2.1c-0.6-0.8-1.5-1.2-2.4-1.2H1.8c-0.3,0-0.6,0.1-0.8,0.2C1,11.3,1,11.1,1,10.8
				L1,10.8z M18.1,7.3v1.4h-1.3c-0.1,0-0.1,0-0.2,0V7.3H18.1z M15.6,5.8v3.1c-0.5,0.2-0.9,0.6-1.3,1c0,0,0,0,0,0
				c-0.1,0.1-0.1,0.1-0.2,0.2V5.8H15.6z M13.2,3.9V11c-0.4,0.3-1,0.4-1.5,0.5V3.9H13.2z M9.3,1.4h1.5V12c-0.1,0-0.2,0-0.4,0
				c0,0,0,0,0,0c-0.2,0-0.5,0-0.7,0c0,0,0,0,0,0c-0.1,0-0.2,0-0.4,0V1.4z M6.8,3.9h1.5v7.7c-0.5-0.1-1-0.3-1.5-0.5V3.9z M4.4,5.8
				h1.5v4.4c-0.1-0.1-0.2-0.2-0.2-0.2c0,0,0,0,0,0C5.3,9.5,4.9,9.2,4.4,9V5.8z M1.9,7.3h1.5v1.4c-0.1,0-0.1,0-0.2,0H1.9V7.3z
				 M15.4,25.9H4.6c-0.4,0-0.9-0.3-1.1-0.6c1.2-0.3,4.3-0.8,6.5-0.8c2,0,4.6,0.5,6,0.8c0.2,0,0.3,0.1,0.4,0.1
				C16.2,25.6,15.8,25.9,15.4,25.9L15.4,25.9z M15.4,25.9"/>
		</g>
	</g>
	<g>
		<path class="st7" d="M10,23.7c-2.2,0-4-1.8-4-4c0-2.2,1.8-4,4-4c2.2,0,4,1.8,4,4C14,21.9,12.2,23.7,10,23.7L10,23.7z M10,16.2
			c-1.9,0-3.5,1.6-3.5,3.5c0,1.9,1.6,3.5,3.5,3.5c1.9,0,3.5-1.6,3.5-3.5C13.6,17.8,12,16.2,10,16.2L10,16.2z M10,16.2"/>
		<path class="st7" d="M11.6,19.9H8.5c-0.1,0-0.2-0.1-0.2-0.2c0-0.1,0.1-0.2,0.2-0.2h3.1c0.1,0,0.2,0.1,0.2,0.2
			C11.8,19.8,11.7,19.9,11.6,19.9L11.6,19.9z M11.6,19.9"/>
		<path class="st7" d="M10,21.5c-0.1,0-0.2-0.1-0.2-0.2v-3.1c0-0.1,0.1-0.2,0.2-0.2c0.1,0,0.2,0.1,0.2,0.2v3.1
			C10.3,21.4,10.2,21.5,10,21.5L10,21.5z M10,21.5"/>
	</g>
</g>
</svg>
