<?xml version="1.0" encoding="utf-8"?>
<!-- Generator: Adobe Illustrator 21.1.0, SVG Export Plug-In . SVG Version: 6.00 Build 0)  -->
<svg version="1.1" id="Layer_1" xmlns="http://www.w3.org/2000/svg" xmlns:xlink="http://www.w3.org/1999/xlink" x="0px" y="0px"
	 viewBox="0 0 32.6 26" style="enable-background:new 0 0 32.6 26;" xml:space="preserve">
<style type="text/css">
	.st0{fill:#F9E8A0;}
	.st1{fill:none;}
	.st2{fill:#414042;}
	.st3{fill:#FF0000;}
	.st4{fill:#CE593F;}
	.st5{fill:#EF8829;}
	.st6{clip-path:url(#SVGID_2_);}
	.st7{fill:#3F2D20;}
	.st8{fill:#F8E79F;}
	.st9{clip-path:url(#SVGID_4_);}
	.st10{clip-path:url(#SVGID_6_);}
	.st11{fill:#F7B239;}
	.st12{fill:#E09B2D;}
	.st13{fill:#9AD14B;}
	.st14{fill:#F95428;}
	.st15{fill:#E54728;}
	.st16{fill:#B27214;}
	.st17{fill:#F4DE3B;}
	.st18{fill:#90BC42;}
	.st19{fill:#FFFFFF;}
	.st20{clip-path:url(#SVGID_8_);fill:#FFFFFF;}
	.st21{clip-path:url(#SVGID_8_);fill:#333333;}
	.st22{fill:#CC722E;}
	.st23{fill:#B25719;}
	.st24{fill:#FFA91F;}
	.st25{fill:#8C5549;}
	.st26{opacity:0.15;}
	.st27{fill:#202020;}
	.st28{fill:#A4A4A5;}
	.st29{fill:#DCE0E2;}
	.st30{fill:#354251;}
	.st31{fill:#9DB6CA;}
	.st32{fill:#9ACFDF;}
	.st33{clip-path:url(#SVGID_10_);}
	.st34{clip-path:url(#SVGID_12_);}
	.st35{clip-path:url(#SVGID_14_);}
	.st36{fill:#FF7424;}
	.st37{fill:#FF4C1C;}
	.st38{fill:#DDA558;}
	.st39{fill:#D4F8F5;}
	.st40{opacity:0.1;fill:#54858D;enable-background:new    ;}
	.st41{fill:#FFD755;}
	.st42{fill:#FFF6C4;}
	.st43{fill:#6DA8D6;}
	.st44{fill:#FFDA44;}
	.st45{fill:#3FC378;}
	.st46{fill:#C9EEAE;}
	.st47{fill:#E21220;}
	.st48{fill:#FF505D;}
	.st49{fill:#FF7C80;}
	.st50{fill:#93298D;}
	.st51{fill:#FFF5CC;}
	.st52{fill:#0DD9DD;}
	.st53{fill:#02A6AA;}
	.st54{fill:#FDD44B;}
	.st55{fill:#84BD93;}
	.st56{clip-path:url(#SVGID_16_);fill:#EF8829;}
	.st57{clip-path:url(#SVGID_16_);fill:#3F2D20;}
	.st58{fill:none;stroke:#414042;stroke-width:0.75;stroke-miterlimit:10;}
	.st59{fill:#F6F6F6;}
	.st60{fill:#FF1D25;}
	.st61{fill:#FBB03B;}
	.st62{fill:#C7B299;}
	.st63{fill:#D2C1AD;}
	.st64{fill:#998675;}
	.st65{fill:#FF4A51;}
	.st66{fill:#B20209;}
	.st67{fill:#F0C891;}
	.st68{fill:none;stroke:#464646;stroke-width:16;stroke-linecap:round;stroke-linejoin:round;stroke-miterlimit:10;}
	.st69{clip-path:url(#SVGID_18_);}
	.st70{clip-path:url(#SVGID_20_);}
	.st71{clip-path:url(#SVGID_22_);}
	.st72{clip-path:url(#SVGID_24_);}
	.st73{clip-path:url(#SVGID_26_);}
	.st74{clip-path:url(#SVGID_28_);}
</style>
<g>
	<path class="st0" d="M23.6,14.1c0,6.3-5.1,11.4-11.3,11.4S1,20.4,1,14.1H23.6z M23.6,14.1"/>
	<path class="st0" d="M22.5,15.3c0.7-0.4,1.1-0.8,1.1-1.2c0-1.5-5.1-2.7-11.3-2.7S1,12.6,1,14.1c0,0.4,0.4,0.8,1.1,1.2
		c1.8-0.9,5.7-1.6,10.2-1.6S20.7,14.4,22.5,15.3L22.5,15.3z M22.5,15.3"/>
	<path class="st3" d="M22.5,15.3c-1.8-0.9-5.7-1.6-10.2-1.6s-8.4,0.6-10.2,1.6c1.8,0.9,5.7,1.6,10.2,1.6S20.7,16.2,22.5,15.3
		L22.5,15.3z M22.5,15.3"/>
	<path class="st2" d="M7.7,9.1c-0.1,0-0.2,0-0.2-0.1c-0.1-0.1-0.1-0.3,0-0.4c0.1-0.1,0.9-0.9,0-2C7.1,6.1,6.9,5.6,7,5.1
		C7,4.4,7.5,3.9,7.6,3.9c0.1,0,0.1-0.1,0.2-0.1c0.1,0,0.2,0,0.2,0.1c0.1,0.1,0.1,0.3,0,0.4c0,0-0.2,0.2-0.3,0.5
		C7.5,5.3,7.6,5.8,8,6.2C9,7.4,8.4,8.6,8,9C7.9,9.1,7.8,9.1,7.7,9.1z"/>
	<path class="st2" d="M10.8,7.9c-0.1,0-0.2,0-0.2-0.1c-0.1-0.1-0.1-0.1-0.1-0.2c0-0.1,0-0.2,0.1-0.2c0.1-0.1,0.9-0.9,0-2
		c-0.4-0.5-0.6-1-0.6-1.5c0.1-0.7,0.5-1.1,0.6-1.2c0.1,0,0.1-0.1,0.2-0.1c0.1,0,0.2,0,0.2,0.1c0.1,0.1,0.1,0.3,0,0.4l0,0
		c0,0-0.2,0.2-0.3,0.5c-0.1,0.4,0,0.9,0.4,1.3c1,1.2,0.4,2.4,0,2.8C10.9,7.9,10.9,7.9,10.8,7.9z"/>
	<path class="st2" d="M13.8,7.9c-0.1,0-0.2,0-0.2-0.1c-0.1-0.1-0.1-0.1-0.1-0.2c0-0.1,0-0.2,0.1-0.2c0.1-0.1,0.9-0.9,0-2
		c-0.4-0.5-0.6-1-0.6-1.5c0.1-0.7,0.5-1.1,0.6-1.2c0.1,0,0.1-0.1,0.2-0.1c0.1,0,0.2,0,0.2,0.1c0.1,0.1,0.1,0.3,0,0.4
		c0,0-0.2,0.2-0.3,0.5c-0.1,0.4,0,0.9,0.4,1.3c1,1.2,0.4,2.4,0,2.8C14,7.9,13.9,7.9,13.8,7.9z"/>
	<path class="st2" d="M16.9,9.1c-0.1,0-0.2,0-0.2-0.1c-0.1-0.1-0.1-0.3,0-0.4c0.1-0.1,0.9-0.9,0-2c-0.4-0.5-0.6-1-0.6-1.5
		c0.1-0.7,0.5-1.1,0.6-1.2c0.1,0,0.1-0.1,0.2-0.1c0.1,0,0.2,0,0.2,0.1c0.1,0.1,0.1,0.3,0,0.4c0,0-0.2,0.2-0.3,0.5
		c-0.1,0.4,0,0.9,0.4,1.3c1,1.2,0.4,2.4,0,2.8C17,9.1,17,9.1,16.9,9.1z"/>
	<g>
		<path class="st2" d="M12.3,25.8c-3.1,0-6-1.2-8.2-3.4c-2.2-2.2-3.4-5.1-3.4-8.3c0-0.9,1.2-1.6,3.5-2.2c2.2-0.5,5-0.8,8-0.8
			s5.9,0.3,8,0.8c2.3,0.6,3.5,1.3,3.5,2.2c0,3.1-1.2,6.1-3.4,8.3C18.3,24.6,15.4,25.8,12.3,25.8z M1.4,15.6
			c0.7,5.5,5.4,9.6,10.9,9.6s10.2-4.1,10.9-9.6l0.1-0.4l-0.4,0.2c-0.1,0-0.2,0.1-0.3,0.1c-1.9,1-5.9,1.6-10.3,1.6
			c-4.4,0-8.4-0.6-10.3-1.6c-0.1,0-0.2-0.1-0.3-0.1l-0.4-0.2L1.4,15.6z M12.3,14c-3.5,0-6.9,0.4-8.9,1.1l-0.6,0.2l0.6,0.2
			c2.1,0.7,5.4,1.1,8.9,1.1c3.5,0,6.9-0.4,8.9-1.1l0.6-0.2l-0.6-0.2C19.2,14.4,15.8,14,12.3,14z M12.3,13.4c4.2,0,8.1,0.6,10.1,1.5
			c0.6-0.3,0.9-0.5,0.9-0.8c0-0.4-0.8-1.1-3.1-1.6c-2.1-0.5-4.9-0.8-7.9-0.8c-3,0-5.8,0.3-7.9,0.8c-2.3,0.5-3.1,1.2-3.1,1.6
			c0,0.2,0.2,0.5,0.7,0.8C4.2,14,8.1,13.4,12.3,13.4z"/>
		<path class="st2" d="M8.9,23.4c0,0-0.1,0-0.1,0c-1.6-0.6-3.1-1.7-4.2-3.1c-0.1-0.1-0.1-0.3,0.1-0.4c0.1,0,0.1-0.1,0.2-0.1
			c0.1,0,0.2,0,0.2,0.1c1,1.3,2.4,2.3,3.9,2.9c0.1,0.1,0.2,0.2,0.2,0.4C9.1,23.3,9,23.4,8.9,23.4z"/>
		<path class="st2" d="M3.9,18.8c-0.1,0-0.2-0.1-0.3-0.2c-0.1-0.3-0.3-0.6-0.4-0.9c0-0.1,0-0.2,0-0.2c0-0.1,0.1-0.1,0.2-0.2
			c0,0,0.1,0,0.1,0c0.1,0,0.2,0.1,0.3,0.2c0.1,0.3,0.2,0.5,0.4,0.8c0,0.1,0,0.1,0,0.2c0,0.1-0.1,0.1-0.1,0.2
			C4,18.8,3.9,18.8,3.9,18.8z"/>
	</g>
</g>
<g>
	<defs>
		<path id="SVGID_25_" d="M32.6,3.8H20.3v6.7c4,1.3,4.6,1.9,4.4,5.2c-0.1,1.6-0.3,3-0.9,4.3h8.9V3.8z"/>
	</defs>
	<clipPath id="SVGID_2_">
		<use xlink:href="#SVGID_25_"  style="overflow:visible;"/>
	</clipPath>
	<g class="st6">
		<g>
			<path class="st0" d="M25.7,6c-1.2,0-2.2,0.3-3.2,0.8h0.9c0.6,0,1,0.5,1,1c0,0.4-0.2,0.7-0.5,0.9c0.1,0,0.1,0.1,0.2,0.1
				c0.2,0.2,0.3,0.5,0.3,0.7c0,0.4-0.2,0.7-0.5,0.9c0.3,0.2,0.5,0.5,0.5,0.9c0,0.4-0.2,0.7-0.5,0.9c0.3,0.2,0.5,0.5,0.5,0.9
				c0,0.4-0.2,0.7-0.5,0.9c0.1,0,0.1,0.1,0.2,0.2c0.2,0.2,0.3,0.5,0.3,0.7c0,0.4-0.2,0.7-0.5,0.9c0.3,0.2,0.5,0.5,0.5,0.9
				c0,0.6-0.5,1-1,1H22c1,0.7,2.3,1.1,3.7,1.1c3.6,0,6.5-2.9,6.5-6.5S29.3,6,25.7,6z"/>
			<g>
				<polygon class="st3" points="27.1,4.5 24.3,4.5 24.3,5.1 25.1,5.1 25.1,5.9 26.2,5.9 26.2,5.1 27.1,5.1 				"/>
				<rect x="31.1" y="6.3" transform="matrix(0.7071 -0.7071 0.7071 0.7071 4.523 24.2754)" class="st3" width="1" height="0.8"/>
				<path class="st3" d="M25.2,12.9c0,0-0.1-0.3,0.2-0.6c0.3-0.3,2.9-2.1,2.9-2.1l-2.3,3.3C26.1,13.5,25.4,13.6,25.2,12.9z"/>
			</g>
			<g>
				<path class="st2" d="M25.9,13.8c0.3,0,0.5-0.2,0.7-0.4l2.4-3.3c0.1-0.1,0.1-0.3,0-0.4c-0.1-0.1-0.2-0.1-0.3,0l-3.3,2.4
					c-0.4,0.3-0.5,0.8-0.2,1.3C25.2,13.7,25.5,13.8,25.9,13.8L25.9,13.8z M25.4,12.9c0-0.1,0.1-0.2,0.2-0.3l2-1.5l-1.4,2
					c-0.1,0.2-0.4,0.2-0.5,0.1C25.5,13.1,25.4,13,25.4,12.9L25.4,12.9z"/>
				<path class="st2" d="M31.6,9.1L31.6,9.1L31.6,9.1c-0.3-0.4-0.6-0.8-0.9-1.2l0.5-0.5l0.4,0.4l1.1-1.1l-1.1-1.1l-1.1,1.1L30.8,7
					l-0.5,0.5c-0.4-0.3-0.8-0.6-1.2-0.9l0,0l0,0c-0.8-0.5-1.7-0.8-2.6-0.9V5.5h0.4c0.3,0,0.6-0.3,0.6-0.6s-0.3-0.6-0.6-0.6h-2.3
					c-0.3,0-0.6,0.3-0.6,0.6s0.3,0.6,0.6,0.6h0.4v0.3c-0.3,0-0.5,0.1-0.8,0.1c-0.1,0-0.2,0.2-0.2,0.3c0,0.1,0.2,0.2,0.3,0.2
					c0.2-0.1,0.5-0.1,0.7-0.1h0.3h0.2v0.5c0,0.1,0.1,0.3,0.3,0.3c0.1,0,0.3-0.1,0.3-0.3V6.2c0.9,0,1.8,0.3,2.6,0.7l-0.3,0.4
					c-0.1,0.1,0,0.3,0.1,0.3c0,0,0.1,0,0.1,0c0.1,0,0.2,0,0.2-0.1L29,7.2c0.8,0.5,1.5,1.2,2,2l-0.4,0.2c-0.1,0.1-0.2,0.2-0.1,0.3
					c0,0.1,0.1,0.1,0.2,0.1c0,0,0.1,0,0.1,0l0.4-0.3c0.4,0.8,0.7,1.7,0.7,2.7h-0.5c-0.1,0-0.3,0.1-0.3,0.3c0,0.1,0.1,0.3,0.3,0.3h0
					h0.5c0,0.9-0.3,1.9-0.7,2.7l-0.4-0.3c-0.1-0.1-0.3,0-0.3,0.1c-0.1,0.1,0,0.3,0.1,0.3l0,0l0.4,0.2c-0.5,0.8-1.2,1.5-2,2l-0.2-0.4
					c-0.1-0.1-0.2-0.2-0.3-0.1c-0.1,0.1-0.2,0.2-0.1,0.3l0.3,0.4c-0.8,0.4-1.7,0.7-2.6,0.7v-0.5c0-0.1-0.1-0.3-0.3-0.3
					c-0.1,0-0.3,0.1-0.3,0.3v0v0.5c-0.4,0-0.8-0.1-1.2-0.2c-0.1,0-0.3,0.1-0.3,0.2c0,0.1,0.1,0.3,0.2,0.3c0.5,0.1,1,0.2,1.5,0.2h0
					c1.2,0,2.3-0.3,3.3-0.9l0,0l0,0c1-0.6,1.9-1.4,2.5-2.5l0,0l0,0C32.7,13.8,32.7,11.2,31.6,9.1L31.6,9.1z M31.6,6.3l0.4,0.4
					L31.6,7l-0.4-0.4L31.6,6.3z M25.5,5.7V5h-0.9c-0.1,0-0.1-0.1-0.1-0.1c0-0.1,0.1-0.1,0.1-0.1h2.3c0.1,0,0.1,0.1,0.1,0.1
					c0,0.1-0.1,0.1-0.1,0.1h-0.9v0.8H25.5L25.5,5.7z M23.4,7.7h-1.3c-0.1,0-0.3,0.1-0.3,0.3s0.1,0.3,0.3,0.3h1.3
					c0.1,0,0.3-0.1,0.3-0.3S23.6,7.7,23.4,7.7z M23.4,9.5h-2.5c-0.1,0-0.3,0.1-0.3,0.3c0,0.1,0.1,0.3,0.3,0.3h0h2.5
					c0.1,0,0.3-0.1,0.3-0.3C23.7,9.6,23.6,9.5,23.4,9.5C23.4,9.5,23.4,9.5,23.4,9.5z M23.4,11.3h-3.8c-0.1,0-0.3,0.1-0.3,0.3
					c0,0.1,0.1,0.3,0.3,0.3h3.8c0.1,0,0.3-0.1,0.3-0.3C23.7,11.4,23.6,11.3,23.4,11.3z M23.4,13h-4.8c-0.1,0-0.3,0.1-0.3,0.3
					s0.1,0.3,0.3,0.3h4.8c0.1,0,0.3-0.1,0.3-0.3S23.6,13,23.4,13z M23.4,14.8h-3.3c-0.1,0-0.3,0.1-0.3,0.3c0,0.1,0.1,0.3,0.3,0.3
					c0,0,0,0,0,0h3.3c0.1,0,0.3-0.1,0.3-0.3C23.7,14.9,23.6,14.8,23.4,14.8C23.4,14.8,23.4,14.8,23.4,14.8z M23.4,16.6h-1.8
					c-0.1,0-0.3,0.1-0.3,0.3s0.1,0.3,0.3,0.3h1.8c0.1,0,0.3-0.1,0.3-0.3S23.6,16.6,23.4,16.6z"/>
			</g>
		</g>
	</g>
</g>
</svg>
