<svg xmlns="http://www.w3.org/2000/svg" xmlns:xlink="http://www.w3.org/1999/xlink" viewBox="0 0 250 250"><defs><style>.a{fill:#f3a81d;}.b{fill:url(#a);}.c{fill:#231f20;}.d{fill:#fff;}.e{stroke:#000;stroke-linejoin:round;stroke-width:2.24px;}</style><linearGradient id="a" x1="8.94" y1="125" x2="241.08" y2="125" gradientUnits="userSpaceOnUse"><stop offset="0.01" stop-color="#7c131a"/><stop offset="0.2" stop-color="#be1e2d"/><stop offset="0.39" stop-color="#d1232a"/><stop offset="0.6" stop-color="#d1232a"/><stop offset="0.8" stop-color="#be1e2d"/><stop offset="1" stop-color="#7c131a"/></linearGradient></defs><title>Fast Casual</title><polygon class="a" points="236.55 97.05 143.89 97.05 106.12 97.05 13.47 97.05 8.94 101.08 8.94 124.75 13.71 129.53 52.75 129.53 52.49 138.34 55.52 143.12 125.01 152.94 194.5 143.12 197.52 138.34 197.27 129.53 236.3 129.53 241.08 124.75 241.08 101.08 236.55 97.05"/><path class="a" d="M54.05,145.35,50,139l0-.74.17-6.33H12.71l-6.2-6.2V100l6-5.36h224V97l-1.61,1.8,1.61-1.8V94.63h.92l6,5.35v25.76l-6.2,6.2H199.75l.2,7.06-4,6.35-71,10-70.94-10ZM11.35,102.15v21.59l3.36,3.37H55.22l-.3,10.54,2,3.22L125,150.5l68-9.63,2-3.22-.3-10.54,40.53,0,3.36-3.36V102.16l-3-2.7H14.38l-3,2.7Z"/><polygon class="b" points="236.55 97.05 143.89 97.05 106.12 97.05 13.47 97.05 8.94 101.08 8.94 124.75 13.71 129.53 52.75 129.53 52.49 138.34 55.52 143.12 125.01 152.94 194.5 143.12 197.52 138.34 197.27 129.53 236.3 129.53 241.08 124.75 241.08 101.08 236.55 97.05"/><path class="c" d="M38.93,111a3.37,3.37,0,0,0-.26-1.12.57.57,0,0,0-.53-.29H23.84v5.22l10-.6a.57.57,0,0,0,.52-.26,2.71,2.71,0,0,0,.27-1.09h.51v9.86h-.51a3.57,3.57,0,0,0-.27-1.29.57.57,0,0,0-.52-.29l-10,.6v9.81a1.13,1.13,0,0,0,.2.67,1.66,1.66,0,0,0,1,.38v.7L16,134.59v-.7a1.63,1.63,0,0,0,1-.38,1.13,1.13,0,0,0,.19-.67l0-28.68a1.13,1.13,0,0,0-.19-.67,1.58,1.58,0,0,0-1-.39v-.7H38.14a.57.57,0,0,0,.53-.33,4.22,4.22,0,0,0,.26-1.32h.52V111Z"/><path class="c" d="M15.31,135.39a1.08,1.08,0,0,1-.37-.81h0v-.69a1.06,1.06,0,0,1,.9-1.06h0l.31,0h0l0-28.61-.29-.05h0a1.05,1.05,0,0,1-.91-1h0v-.69a1,1,0,0,1,.31-.75h0a1,1,0,0,1,.75-.32H37.78a6.31,6.31,0,0,0,.09-.68h0a1.06,1.06,0,0,1,1.06-1h.51a1.06,1.06,0,0,1,.75.32h0a1,1,0,0,1,.31.75h0V111a1,1,0,0,1-.31.75h0a1,1,0,0,1-.75.31h-.51v0a1.06,1.06,0,0,1-1.06-.94h0c0-.2,0-.35-.06-.47H24.89v3l8.65-.51a2.74,2.74,0,0,0,.06-.44h0a1.06,1.06,0,0,1,1-.93h.53a1.06,1.06,0,0,1,.75.32h0a1.1,1.1,0,0,1,.31.75h0v9.86a1.05,1.05,0,0,1-.32.74h0a1,1,0,0,1-.74.32h-.53a1.05,1.05,0,0,1-1-1h0c0-.27,0-.47-.06-.61h0l-8.66.51v8.77a1.74,1.74,0,0,0,.32.06h0a1.06,1.06,0,0,1,.9,1.06h0v.7a1,1,0,0,1-.91,1h0l-9,1.31H16a1,1,0,0,1-.69-.25Zm2.92-31.26.05,28.7a2.24,2.24,0,0,1,0,.36h0l4.74-.68a2.4,2.4,0,0,1-.22-1h0V121.7a1,1,0,0,1,1-1.06h0l10.1-.6a.9.9,0,0,1,.25,0h0v-4.84h-.19l-10,.61a1.08,1.08,0,0,1-.79-.3h0a1,1,0,0,1-.33-.76h0v-5.22a1.06,1.06,0,0,1,.3-.75h0a1.06,1.06,0,0,1,.75-.3H38.38v-5.08l-.24,0h-20a2.38,2.38,0,0,1,.09.69ZM16.3,132.75h0Zm23.13-21.86.54-.07-.54.07Z"/><path class="d" d="M38.93,111a3.37,3.37,0,0,0-.26-1.12.57.57,0,0,0-.53-.29H23.84v5.22l10-.6a.57.57,0,0,0,.52-.26,2.71,2.71,0,0,0,.27-1.09h.51v9.86h-.51a3.57,3.57,0,0,0-.27-1.29.57.57,0,0,0-.52-.29l-10,.6v9.81a1.13,1.13,0,0,0,.2.67,1.66,1.66,0,0,0,1,.38v.7L16,134.59v-.7a1.63,1.63,0,0,0,1-.38,1.13,1.13,0,0,0,.19-.67l0-28.68a1.13,1.13,0,0,0-.19-.67,1.58,1.58,0,0,0-1-.39v-.7H38.14a.57.57,0,0,0,.53-.33,4.22,4.22,0,0,0,.26-1.32h.52V111Z"/><path class="c" d="M43.21,122.63a1.76,1.76,0,0,0,1-.48,1.23,1.23,0,0,0,.2-.71V103.19a1.11,1.11,0,0,0-.2-.69,1.55,1.55,0,0,0-1-.4v-.72h8.92v.7a1.57,1.57,0,0,0-1,.4,1.06,1.06,0,0,0-.2.68v17.78a1,1,0,0,0,.2.66c.13.17.47.27,1,.3v.7l-8.92.75Z"/><path class="c" d="M42.49,124.13a1.07,1.07,0,0,1-.35-.77h0v-.74a1.06,1.06,0,0,1,.81-1h0a3,3,0,0,0,.4-.11h0V103.21l-.31-.06h0a1,1,0,0,1-.9-1h0v-.72a1.08,1.08,0,0,1,.32-.75h0a1,1,0,0,1,.75-.3h8.92a1.15,1.15,0,0,1,.75.3h0a1.13,1.13,0,0,1,.3.75h0v.71a1.08,1.08,0,0,1-.92,1h0a1.53,1.53,0,0,0-.29.05h0v17.63l.23,0h0a1.05,1.05,0,0,1,1,1.06h0v.69a1.06,1.06,0,0,1-1,1.06h0l-8.92.76h-.09a1.12,1.12,0,0,1-.71-.27Zm3-20.93v18.24a2.18,2.18,0,0,1-.09.66h0l4.6-.39a2.49,2.49,0,0,1-.13-.78h0V103.15a2.54,2.54,0,0,1,.1-.71H45.36a2.44,2.44,0,0,1,.11.76Zm-2.05,18.27s0,0,0,0h0v0Z"/><path class="d" d="M43.21,122.63a1.76,1.76,0,0,0,1-.48,1.23,1.23,0,0,0,.2-.71V103.19a1.11,1.11,0,0,0-.2-.69,1.55,1.55,0,0,0-1-.4v-.72h8.92v.7a1.57,1.57,0,0,0-1,.4,1.06,1.06,0,0,0-.2.68v17.78a1,1,0,0,0,.2.66c.13.17.47.27,1,.3v.7l-8.92.75Z"/><path class="c" d="M63.66,120.75a1.65,1.65,0,0,0,.89.21v.45l-7.9.43v-.46a1.86,1.86,0,0,0,.91-.31.67.67,0,0,0,.17-.45L58,102.53a.59.59,0,0,0-.16-.44,1.5,1.5,0,0,0-.89-.25v-.46H70.82q4.2,0,6.09,1.49a5.47,5.47,0,0,1,1.89,4.59,5.27,5.27,0,0,1-1.54,4,9.51,9.51,0,0,1-3.92,2.2l4.5,5.94a1.26,1.26,0,0,0,1.11.6v.44l-8,.44v-.45c.57-.05.86-.3.86-.72a1.89,1.89,0,0,0-.32-.51c-.19-.28-.45-.64-.76-1s-.63-.85-1-1.33-.73-.92-1.07-1.37-.64-.83-.89-1.16a7,7,0,0,1-.48-.7l-3.74.13-.07,6.42A.54.54,0,0,0,63.66,120.75Zm6.34-11a3.34,3.34,0,0,0,2.31-.67,2,2,0,0,0,.64-1.45,1.86,1.86,0,0,0-.63-1.42,3.25,3.25,0,0,0-2.29-.58l-6.37.07,0,4.2Z"/><path class="c" d="M55.9,122.59a1,1,0,0,1-.32-.77h0v-.45a1.08,1.08,0,0,1,.88-1h0l.22,0h0l.25-17.39h-.09a1.07,1.07,0,0,1-.95-1.08h0v-.47a1.06,1.06,0,0,1,1.06-1H70.82c2.91,0,5.16.49,6.74,1.72h0a6.58,6.58,0,0,1,2.3,5.43h0A6.42,6.42,0,0,1,78,112.21h0A10,10,0,0,1,75,114.14h0L78.69,119c.13.16.16.16.17.16h0s0,0,0,0h0s0,0,.11,0h0a.66.66,0,0,1,.25,0h0a1.05,1.05,0,0,1,.77,1h0v.44a1.06,1.06,0,0,1-1,1.06h0l-8,.43a1,1,0,0,1-.78-.28h0a1,1,0,0,1-.34-.76h0v-.46a1.05,1.05,0,0,1,.52-.91h0l-.54-.74h0c-.29-.4-.61-.83-1-1.3h0l-1.07-1.37h0c-.35-.45-.65-.85-.9-1.19h0l-.2-.26h0l-2.14.09-.06,5h.09a1.06,1.06,0,0,1,1,1.06h0v.46a1,1,0,0,1-1,1h0l-7.91.43h0a1.09,1.09,0,0,1-.75-.3ZM59,102.5a.11.11,0,0,1,0,0h0l-.26,18.06a.12.12,0,0,1,0,.06h0l3.65-.2c0-.05,0-.11,0-.15h0l.07-6.43a1.07,1.07,0,0,1,1-1.05h0l3.73-.13a1.06,1.06,0,0,1,1,.57h0s.16.25.4.57h0c.24.33.53.71.88,1.15h0c.34.45.68.9,1.08,1.37h0l1,1.34h0c.29.42.57.76.75,1h0c.24.45.36.21.53,1.15h0l3.72-.2-4.1-5.41a1.09,1.09,0,0,1-.17-1h0a1,1,0,0,1,.69-.68h0a8.83,8.83,0,0,0,3.5-2h0a4.19,4.19,0,0,0,1.2-3.23h0a4.35,4.35,0,0,0-1.49-3.76h0c-.94-.77-2.74-1.28-5.42-1.27H59v.08ZM64,120.38H64l.07-.06h0l0,0v0h0l-.06.07Zm.22-.54Zm-1.34-9.25a1.09,1.09,0,0,1-.32-.76h0l.06-4.21a1,1,0,0,1,1-1h0l6.22-.06a.46.46,0,0,1,.23,0h0s0,0,0,0h0a4.2,4.2,0,0,1,2.94.89h0a2.94,2.94,0,0,1,.95,2h0s0,.09,0,.14h0a3.06,3.06,0,0,1-.95,2.18h0a4.26,4.26,0,0,1-3,1h0l-6.4.15a1.07,1.07,0,0,1-.76-.31ZM70,109.7l0-1.06a2.56,2.56,0,0,0,1.58-.37h0a.9.9,0,0,0,.33-.67h0v0a.82.82,0,0,0-.29-.64h0a2.46,2.46,0,0,0-1.48-.28H70l-5.34.06,0,2.06,5.29-.12,0,1.06Z"/><path class="d" d="M63.66,120.75a1.65,1.65,0,0,0,.89.21v.45l-7.9.43v-.46a1.86,1.86,0,0,0,.91-.31.67.67,0,0,0,.17-.45L58,102.53a.59.59,0,0,0-.16-.44,1.5,1.5,0,0,0-.89-.25v-.46H70.82q4.2,0,6.09,1.49a5.47,5.47,0,0,1,1.89,4.59,5.27,5.27,0,0,1-1.54,4,9.51,9.51,0,0,1-3.92,2.2l4.5,5.94a1.26,1.26,0,0,0,1.11.6v.44l-8,.44v-.45c.57-.05.86-.3.86-.72a1.89,1.89,0,0,0-.32-.51c-.19-.28-.45-.64-.76-1s-.63-.85-1-1.33-.73-.92-1.07-1.37-.64-.83-.89-1.16a7,7,0,0,1-.48-.7l-3.74.13-.07,6.42A.54.54,0,0,0,63.66,120.75Zm6.34-11a3.34,3.34,0,0,0,2.31-.67,2,2,0,0,0,.64-1.45,1.86,1.86,0,0,0-.63-1.42,3.25,3.25,0,0,0-2.29-.58l-6.37.07,0,4.2Z"/><path class="c" d="M131.43,118.59a1.78,1.78,0,0,0,.91.23v.41h-8v-.41a1.82,1.82,0,0,0,.91-.23.48.48,0,0,0,.18-.39v-6.33H115.37v6.33a.49.49,0,0,0,.17.39,1.85,1.85,0,0,0,.91.23v.41h-8v-.41a1.82,1.82,0,0,0,.9-.23.46.46,0,0,0,.18-.39v-16a.46.46,0,0,0-.18-.39,1.87,1.87,0,0,0-.9-.23v-.41h8v.41a1.91,1.91,0,0,0-.91.23.5.5,0,0,0-.17.39v5.44h10.06v-5.44a.49.49,0,0,0-.18-.39,1.87,1.87,0,0,0-.91-.23v-.41h8v.41a1.83,1.83,0,0,0-.91.23.48.48,0,0,0-.18.39v16A.47.47,0,0,0,131.43,118.59Z"/><path class="c" d="M124.36,120.27a1,1,0,0,1-.75-.31h0a1.06,1.06,0,0,1-.32-.75h0v-.4a1.06,1.06,0,0,1,1-1.06h.12v-4.82h-7.94v4.82h.12a1.06,1.06,0,0,1,.95,1.06h0v.4a1,1,0,0,1-.3.75h0a1.07,1.07,0,0,1-.75.31h-8a1.05,1.05,0,0,1-.75-.31h0a1.09,1.09,0,0,1-.31-.75h0v-.4a1.06,1.06,0,0,1,.95-1.06h.13V102.68h-.13a1.07,1.07,0,0,1-.95-1.06h0v-.41a1.07,1.07,0,0,1,.31-.75h0a1.05,1.05,0,0,1,.75-.3h8a1.13,1.13,0,0,1,.75.3h0a1.07,1.07,0,0,1,.3.75h0v.41a1.06,1.06,0,0,1-.95,1.06h-.12v3.93h8v-3.93h-.12a1.07,1.07,0,0,1-1-1.06h0v-.41a1.08,1.08,0,0,1,.32-.75h0a1,1,0,0,1,.75-.3h8a1.15,1.15,0,0,1,.75.3h0a1.12,1.12,0,0,1,.31.75h0v.41a1.07,1.07,0,0,1-1,1.06h-.12v15.06h.12a1.08,1.08,0,0,1,1,1.06h0v.4a1.06,1.06,0,0,1-.32.75h0a1.06,1.06,0,0,1-.74.31h-8Zm5.83-2.12V102.27h-3.7v5.4a1,1,0,0,1-.31.75h0a1.06,1.06,0,0,1-.75.31H115.37a1.09,1.09,0,0,1-.76-.31h0a1.13,1.13,0,0,1-.3-.75h0v-5.4h-3.7v15.88h3.7v-6.29a1.05,1.05,0,0,1,.3-.75h0a1.08,1.08,0,0,1,.76-.3h10.06a1.12,1.12,0,0,1,.75.3h0a1.06,1.06,0,0,1,.31.75h0v6.29Zm-5.5-.45h0Zm-15.88,0h0Zm23.18,0h0Zm0-14.95h0Zm-15.89,0h0Z"/><path class="d" d="M131.43,118.59a1.78,1.78,0,0,0,.91.23v.41h-8v-.41a1.82,1.82,0,0,0,.91-.23.48.48,0,0,0,.18-.39v-6.33H115.37v6.33a.49.49,0,0,0,.17.39,1.85,1.85,0,0,0,.91.23v.41h-8v-.41a1.82,1.82,0,0,0,.9-.23.46.46,0,0,0,.18-.39v-16a.46.46,0,0,0-.18-.39,1.87,1.87,0,0,0-.9-.23v-.41h8v.41a1.91,1.91,0,0,0-.91.23.5.5,0,0,0-.17.39v5.44h10.06v-5.44a.49.49,0,0,0-.18-.39,1.87,1.87,0,0,0-.91-.23v-.41h8v.41a1.83,1.83,0,0,0-.91.23.48.48,0,0,0-.18.39v16A.47.47,0,0,0,131.43,118.59Z"/><path class="c" d="M152.37,101.44a12.4,12.4,0,0,1,3.9,1.85,9.15,9.15,0,0,1,2.65,3,9.19,9.19,0,0,1,0,8.31,9.2,9.2,0,0,1-2.65,3,11.49,11.49,0,0,1-3.9,1.79,19.93,19.93,0,0,1-9.48,0,11.31,11.31,0,0,1-3.89-1.79,9.1,9.1,0,0,1-2.66-3,9.31,9.31,0,0,1,0-8.31,9.05,9.05,0,0,1,2.66-3,12.2,12.2,0,0,1,3.89-1.85,18.28,18.28,0,0,1,9.48,0Zm-7.2,4.11a6.57,6.57,0,0,0-2,1,4.84,4.84,0,0,0-1.42,1.65,4.63,4.63,0,0,0-.53,2.25,4.55,4.55,0,0,0,.53,2.24,4.85,4.85,0,0,0,1.42,1.65,6.69,6.69,0,0,0,2,1,8.52,8.52,0,0,0,4.92,0,6.6,6.6,0,0,0,2-1,4.89,4.89,0,0,0,1.43-1.65,4.66,4.66,0,0,0,.53-2.24,4.74,4.74,0,0,0-.53-2.25,4.88,4.88,0,0,0-1.43-1.65,6.49,6.49,0,0,0-2-1,8.64,8.64,0,0,0-4.92,0Z"/><path class="c" d="M142.61,120.44a12.62,12.62,0,0,1-4.26-2h0a10.38,10.38,0,0,1-3-3.36h0a9.54,9.54,0,0,1-1.12-4.66h0a9.54,9.54,0,0,1,1.12-4.68h0a10.14,10.14,0,0,1,3-3.35h0a12.78,12.78,0,0,1,4.24-2h0a18.42,18.42,0,0,1,5-.67h0a18.43,18.43,0,0,1,5,.67h0l-.27,1-.29,1a17,17,0,0,0-4.46-.58h0a16.85,16.85,0,0,0-4.45.58h0a11.3,11.3,0,0,0-3.56,1.69h0a8.22,8.22,0,0,0-2.35,2.68h0a7.27,7.27,0,0,0-.84,3.65h0a7.28,7.28,0,0,0,.84,3.63h0a7.86,7.86,0,0,0,2.36,2.67h0a9.89,9.89,0,0,0,3.52,1.63h0a17.8,17.8,0,0,0,4.48.54h0a17.57,17.57,0,0,0,4.47-.54h0a10.13,10.13,0,0,0,3.54-1.63h0A7.91,7.91,0,0,0,158,114.1h0a7.54,7.54,0,0,0,.86-3.63h0a7.66,7.66,0,0,0-.86-3.67h0a8.31,8.31,0,0,0-2.35-2.66h0a11.2,11.2,0,0,0-3.55-1.69h0l.29-1,.28-1a13.22,13.22,0,0,1,4.23,2h0a10.12,10.12,0,0,1,3,3.35h0a9.6,9.6,0,0,1,1.12,4.68h0a9.47,9.47,0,0,1-1.12,4.64h0a10.22,10.22,0,0,1-3,3.38h0a12.62,12.62,0,0,1-4.26,2h0a20.33,20.33,0,0,1-5,.6h0a20.31,20.31,0,0,1-5-.6Zm2.23-4a7.46,7.46,0,0,1-2.35-1.19h0a6,6,0,0,1-1.72-2h0a5.62,5.62,0,0,1-.66-2.75h0a5.67,5.67,0,0,1,.65-2.75h0a6,6,0,0,1,1.72-2h0a7.81,7.81,0,0,1,2.36-1.2h0l.32,1-.31-1a9.55,9.55,0,0,1,2.77-.4h0a9.73,9.73,0,0,1,2.77.4h0a7.9,7.9,0,0,1,2.35,1.18h0a6.12,6.12,0,0,1,1.74,2h0a6,6,0,0,1,.65,2.75h0a5.76,5.76,0,0,1-.67,2.75h0a6,6,0,0,1-1.7,2h0a7.51,7.51,0,0,1-2.38,1.2h0a9.87,9.87,0,0,1-2.76.41h0a10,10,0,0,1-2.78-.41Zm-1.09-9a3.73,3.73,0,0,0-1.13,1.32h0a3.62,3.62,0,0,0-.41,1.75h0a3.41,3.41,0,0,0,.42,1.74h0a3.62,3.62,0,0,0,1.12,1.32h0a5.59,5.59,0,0,0,1.72.86h0a7.34,7.34,0,0,0,2.15.31h0a7.46,7.46,0,0,0,2.14-.31h0a5.3,5.3,0,0,0,1.72-.89h0a3.76,3.76,0,0,0,1.13-1.29h0a3.66,3.66,0,0,0,.38-1.74h0a3.7,3.7,0,0,0-.38-1.75h0a3.78,3.78,0,0,0-1.14-1.32h0a5.37,5.37,0,0,0-1.71-.86h0a6.78,6.78,0,0,0-2.14-.31h0a6.74,6.74,0,0,0-2.15.31h0a5.9,5.9,0,0,0-1.71.87Z"/><path class="d" d="M152.37,101.44a12.4,12.4,0,0,1,3.9,1.85,9.15,9.15,0,0,1,2.65,3,9.19,9.19,0,0,1,0,8.31,9.2,9.2,0,0,1-2.65,3,11.49,11.49,0,0,1-3.9,1.79,19.93,19.93,0,0,1-9.48,0,11.31,11.31,0,0,1-3.89-1.79,9.1,9.1,0,0,1-2.66-3,9.31,9.31,0,0,1,0-8.31,9.05,9.05,0,0,1,2.66-3,12.2,12.2,0,0,1,3.89-1.85,18.28,18.28,0,0,1,9.48,0Zm-7.2,4.11a6.57,6.57,0,0,0-2,1,4.84,4.84,0,0,0-1.42,1.65,4.63,4.63,0,0,0-.53,2.25,4.55,4.55,0,0,0,.53,2.24,4.85,4.85,0,0,0,1.42,1.65,6.69,6.69,0,0,0,2,1,8.52,8.52,0,0,0,4.92,0,6.6,6.6,0,0,0,2-1,4.89,4.89,0,0,0,1.43-1.65,4.66,4.66,0,0,0,.53-2.24,4.74,4.74,0,0,0-.53-2.25,4.88,4.88,0,0,0-1.43-1.65,6.49,6.49,0,0,0-2-1,8.64,8.64,0,0,0-4.92,0Z"/><path class="c" d="M178.6,102.06a1.66,1.66,0,0,0-.91-.25v-.44h8v.44a1.73,1.73,0,0,0-.91.25.53.53,0,0,0-.17.43v10a9.2,9.2,0,0,1-.84,4.13,7,7,0,0,1-2.3,2.68,9.09,9.09,0,0,1-3.41,1.39,22.84,22.84,0,0,1-8.36,0,9.12,9.12,0,0,1-3.42-1.39,7.12,7.12,0,0,1-2.29-2.68,9.2,9.2,0,0,1-.84-4.13v-10a.55.55,0,0,0-.17-.43,1.77,1.77,0,0,0-.92-.25v-.44h8v.44a1.72,1.72,0,0,0-.92.25.57.57,0,0,0-.18.43v10a3.59,3.59,0,0,0,1.29,3.1,7.56,7.56,0,0,0,7.23,0,3.57,3.57,0,0,0,1.28-3.1v-10A.54.54,0,0,0,178.6,102.06Z"/><path class="c" d="M169.49,121.69a10,10,0,0,1-3.81-1.57h0a7.93,7.93,0,0,1-2.63-3.06h0a10.24,10.24,0,0,1-.95-4.61h0v-9.57H162a1.05,1.05,0,0,1-.95-1h0v-.44a1.08,1.08,0,0,1,.3-.76h0a1.07,1.07,0,0,1,.75-.31h8a1.14,1.14,0,0,1,.74.31h0a1.08,1.08,0,0,1,.31.76h0v.44a1.06,1.06,0,0,1-.95,1H170v9.57a2.53,2.53,0,0,0,.85,2.23h0a5.1,5.1,0,0,0,3,.72h0a5,5,0,0,0,3-.72h0a2.49,2.49,0,0,0,.84-2.23h0v-9.58h-.12a1.07,1.07,0,0,1-1-1h0v-.44a1.07,1.07,0,0,1,.32-.76h0a1,1,0,0,1,.75-.31h8a1.15,1.15,0,0,1,.75.31h0a1.13,1.13,0,0,1,.31.76h0v.44a1.07,1.07,0,0,1-1,1h-.12v9.58a10.45,10.45,0,0,1-.95,4.61h0a8.15,8.15,0,0,1-2.65,3.07h0a10,10,0,0,1-3.81,1.56h0a23,23,0,0,1-4.38.4h0a23,23,0,0,1-4.39-.4Zm-5.28-19.2v10a8.2,8.2,0,0,0,.72,3.65h0a6.07,6.07,0,0,0,1.94,2.28h0a8,8,0,0,0,3,1.23h0a21.28,21.28,0,0,0,4,.37h0a21.44,21.44,0,0,0,4-.37h0a8,8,0,0,0,3-1.23h0a6.1,6.1,0,0,0,2-2.28h0a8.2,8.2,0,0,0,.72-3.65h0v-10a.09.09,0,0,1,0-.05h-3.72v.05h0v10a4.65,4.65,0,0,1-1.72,4h0a7.19,7.19,0,0,1-4.23,1.12h0a7.08,7.08,0,0,1-4.24-1.13h0a4.62,4.62,0,0,1-1.72-3.93h0v-10h-3.71v.05Zm21.16.44v0Zm-15.63,0v0s0,0,0,0Zm-7.37,0s0,0,0,0h0Zm15.71-.31.17-.19h-.08l0,0h.09l-.13.15Z"/><path class="d" d="M178.6,102.06a1.66,1.66,0,0,0-.91-.25v-.44h8v.44a1.73,1.73,0,0,0-.91.25.53.53,0,0,0-.17.43v10a9.2,9.2,0,0,1-.84,4.13,7,7,0,0,1-2.3,2.68,9.09,9.09,0,0,1-3.41,1.39,22.84,22.84,0,0,1-8.36,0,9.12,9.12,0,0,1-3.42-1.39,7.12,7.12,0,0,1-2.29-2.68,9.2,9.2,0,0,1-.84-4.13v-10a.55.55,0,0,0-.17-.43,1.77,1.77,0,0,0-.92-.25v-.44h8v.44a1.72,1.72,0,0,0-.92.25.57.57,0,0,0-.18.43v10a3.59,3.59,0,0,0,1.29,3.1,7.56,7.56,0,0,0,7.23,0,3.57,3.57,0,0,0,1.28-3.1v-10A.54.54,0,0,0,178.6,102.06Z"/><path class="c" d="M190.29,114.6a3.55,3.55,0,0,0-.07.87c0,.26.22.6.72,1a9.2,9.2,0,0,0,1.85,1.1,15.46,15.46,0,0,0,2.63,1,14.91,14.91,0,0,0,3,.55,8.8,8.8,0,0,0,4.27-.46,2.23,2.23,0,0,0,1.35-2.12c0-.54-.38-.93-1.18-1.19a18.16,18.16,0,0,0-3-.69L196,114a18.52,18.52,0,0,1-3.84-1,8.11,8.11,0,0,1-3-1.88,4.26,4.26,0,0,1-1.19-3.16,5.85,5.85,0,0,1,.68-2.83,6.18,6.18,0,0,1,1.9-2.18,9.4,9.4,0,0,1,3-1.44,13.26,13.26,0,0,1,3.87-.53,22.6,22.6,0,0,1,3.7.29,29.13,29.13,0,0,1,3,.64c.88.23,1.62.45,2.21.65a5.07,5.07,0,0,0,1.29.3.93.93,0,0,0,.62-.2,2.22,2.22,0,0,0,.43-.48l.43.2-2.67,6.15-.48-.28v-.48c0-.27-.25-.54-.76-.84a8.63,8.63,0,0,0-1.92-.78,19.32,19.32,0,0,0-2.6-.59,17.6,17.6,0,0,0-2.8-.27,7.14,7.14,0,0,0-3.54.57c-.68.41-1,.86-1,1.33a1.21,1.21,0,0,0,.71,1.1,6.14,6.14,0,0,0,1.81.59c.76.14,1.62.25,2.57.36s1.95.24,3,.42a22.06,22.06,0,0,1,2.95.72,8.51,8.51,0,0,1,2.57,1.27,6.28,6.28,0,0,1,1.82,2.13,6.87,6.87,0,0,1,.7,3.25,8.29,8.29,0,0,1-.53,2.89,5.7,5.7,0,0,1-1.78,2.43,8.11,8.11,0,0,1-3.38,1.5,17.73,17.73,0,0,1-5.27.17,30.81,30.81,0,0,1-4.21-.64,25.28,25.28,0,0,1-3-.88c-.83-.31-1.48-.59-2-.81a3.49,3.49,0,0,0-1.08-.39.55.55,0,0,0-.41.14,3.85,3.85,0,0,0-.37.34l-.47-.16,2.88-7.16Z"/><path class="c" d="M198.43,125a32.69,32.69,0,0,1-4.35-.65h0a27.42,27.42,0,0,1-3.15-.92h0c-.85-.32-1.53-.61-2-.86h0c-.22-.1-.4-.18-.55-.24h0l-.1.11h0a1,1,0,0,1-1.08.27h0l-.47-.15a1.1,1.1,0,0,1-.63-.6h0a1.13,1.13,0,0,1,0-.9h0l2.88-7.15a1.15,1.15,0,0,1,.65-.64h0a1.06,1.06,0,0,1,.87.1h0l.38.24-.5.91.5-.91a1.13,1.13,0,0,1,.48,1.29h0s0,.13,0,.38h0a3.12,3.12,0,0,0,.3.26h0a7.91,7.91,0,0,0,1.66,1h0a13.75,13.75,0,0,0,2.46.9h0a13.91,13.91,0,0,0,2.78.53h0l1.24,0h0a6.24,6.24,0,0,0,2.51-.4h0c.6-.35.7-.53.75-1h0a2.06,2.06,0,0,0-.44-.2h0a17.53,17.53,0,0,0-2.8-.65h0l-3.84-.64h0a19.93,19.93,0,0,1-4-1.1h0a9.36,9.36,0,0,1-3.35-2.12h0a5.39,5.39,0,0,1-1.52-4h0a7.12,7.12,0,0,1,.81-3.36h0A7.39,7.39,0,0,1,190,102h0a10.79,10.79,0,0,1,3.29-1.6h0a14.6,14.6,0,0,1,4.18-.57h0a23.69,23.69,0,0,1,3.85.3h0a26.93,26.93,0,0,1,3.12.66h0c.89.23,1.66.45,2.27.66h0a4.37,4.37,0,0,0,1,.24h0v0a1.36,1.36,0,0,0,.16-.21h0a1,1,0,0,1,1.31-.39h0l.43.19a1.13,1.13,0,0,1,.58.63h0a1.21,1.21,0,0,1,0,.86h0l-2.67,6.15a1.09,1.09,0,0,1-.64.61h0a1,1,0,0,1-.85-.1h0l-.47-.28-.54-1v-.23l-.2-.13h0a7.76,7.76,0,0,0-1.72-.69h0a18.83,18.83,0,0,0-2.48-.57h0a18.63,18.63,0,0,0-2.66-.25h0c-.16,0-.25,0-.31,0h0a5.73,5.73,0,0,0-2.66.44h0c-.51.31-.48.35-.48.37h0s0,0,.16.11h0a5.06,5.06,0,0,0,1.49.48h0c.71.14,1.56.24,2.5.33h0c1,.12,2,.26,3,.44h0a23.47,23.47,0,0,1,3.06.75h0a9.5,9.5,0,0,1,2.89,1.43h0a7.47,7.47,0,0,1,2.14,2.49h0a8,8,0,0,1,.84,3.79h0a9.34,9.34,0,0,1-.61,3.31h0a6.81,6.81,0,0,1-2.11,2.9h0a9,9,0,0,1-3.82,1.71h0a15.6,15.6,0,0,1-3.2.3h0c-.76,0-1.55-.06-2.37-.11Zm-8.65-4.45c.44.21,1.08.48,1.87.79h0a24.85,24.85,0,0,0,2.89.83h0a33.65,33.65,0,0,0,4.05.63h0c.79,0,1.53.1,2.21.1h0a14.21,14.21,0,0,0,2.77-.25h0a7.11,7.11,0,0,0,2.95-1.29h0a4.59,4.59,0,0,0,1.45-1.95h0a7.52,7.52,0,0,0,.46-2.51h0a5.53,5.53,0,0,0-.57-2.69h0a5.23,5.23,0,0,0-1.51-1.77h0a7.74,7.74,0,0,0-2.27-1.12h0a21.4,21.4,0,0,0-2.82-.69h0c-1-.18-1.95-.31-2.91-.41h0c-.94-.11-1.81-.23-2.62-.37h0a7.19,7.19,0,0,1-2.12-.69h0a2.38,2.38,0,0,1-1.29-2.09h0a2.77,2.77,0,0,1,1.53-2.29h0a7.26,7.26,0,0,1,3.73-.73H198a18.17,18.17,0,0,1,2.94.28h0a21.07,21.07,0,0,1,2.73.62h0a10,10,0,0,1,2.15.87h0c.18.11.36.23.53.36h0l1-2.37a8.82,8.82,0,0,1-1.25-.32h0c-.57-.19-1.28-.4-2.17-.63h0a25.21,25.21,0,0,0-2.92-.62h0a21.71,21.71,0,0,0-3.53-.28h0a12.25,12.25,0,0,0-3.6.49h0a8.12,8.12,0,0,0-2.66,1.29h0a5.19,5.19,0,0,0-1.58,1.81h0a4.64,4.64,0,0,0-.54,2.27h0a3.14,3.14,0,0,0,.85,2.37h0a7.06,7.06,0,0,0,2.61,1.64h0a17,17,0,0,0,3.66,1h0c1.36.24,2.65.44,3.82.63h0a21.57,21.57,0,0,1,3.11.72h0a2.47,2.47,0,0,1,1.94,2.27h0a3.38,3.38,0,0,1-2,3.13h0a7.89,7.89,0,0,1-3.4.6h0c-.41,0-.87,0-1.37,0h0a14.6,14.6,0,0,1-3.19-.58h0a16.27,16.27,0,0,1-2.79-1h0a10.51,10.51,0,0,1-2-1.21h0l-.35-.3h0l-1.25,3.1a5.14,5.14,0,0,1,1.06.42Z"/><path class="d" d="M190.29,114.6a3.55,3.55,0,0,0-.07.87c0,.26.22.6.72,1a9.2,9.2,0,0,0,1.85,1.1,15.46,15.46,0,0,0,2.63,1,14.91,14.91,0,0,0,3,.55,8.8,8.8,0,0,0,4.27-.46,2.23,2.23,0,0,0,1.35-2.12c0-.54-.38-.93-1.18-1.19a18.16,18.16,0,0,0-3-.69L196,114a18.52,18.52,0,0,1-3.84-1,8.11,8.11,0,0,1-3-1.88,4.26,4.26,0,0,1-1.19-3.16,5.85,5.85,0,0,1,.68-2.83,6.18,6.18,0,0,1,1.9-2.18,9.4,9.4,0,0,1,3-1.44,13.26,13.26,0,0,1,3.87-.53,22.6,22.6,0,0,1,3.7.29,29.13,29.13,0,0,1,3,.64c.88.23,1.62.45,2.21.65a5.07,5.07,0,0,0,1.29.3.93.93,0,0,0,.62-.2,2.22,2.22,0,0,0,.43-.48l.43.2-2.67,6.15-.48-.28v-.48c0-.27-.25-.54-.76-.84a8.63,8.63,0,0,0-1.92-.78,19.32,19.32,0,0,0-2.6-.59,17.6,17.6,0,0,0-2.8-.27,7.14,7.14,0,0,0-3.54.57c-.68.41-1,.86-1,1.33a1.21,1.21,0,0,0,.71,1.1,6.14,6.14,0,0,0,1.81.59c.76.14,1.62.25,2.57.36s1.95.24,3,.42a22.06,22.06,0,0,1,2.95.72,8.51,8.51,0,0,1,2.57,1.27,6.28,6.28,0,0,1,1.82,2.13,6.87,6.87,0,0,1,.7,3.25,8.29,8.29,0,0,1-.53,2.89,5.7,5.7,0,0,1-1.78,2.43,8.11,8.11,0,0,1-3.38,1.5,17.73,17.73,0,0,1-5.27.17,30.81,30.81,0,0,1-4.21-.64,25.28,25.28,0,0,1-3-.88c-.83-.31-1.48-.59-2-.81a3.49,3.49,0,0,0-1.08-.39.55.55,0,0,0-.41.14,3.85,3.85,0,0,0-.37.34l-.47-.16,2.88-7.16Z"/><path class="c" d="M228.92,120a2.17,2.17,0,0,0-.37-1,1.16,1.16,0,0,0-.93-.45l-8.05-.6v5.15l13.9,1.32a.51.51,0,0,0,.52-.27,4.5,4.5,0,0,0,.25-1.41l.52,0v10l-.52-.06a2.14,2.14,0,0,0-.25-1,.8.8,0,0,0-.52-.24L211.85,129v-.64a1.53,1.53,0,0,0,1-.23.84.84,0,0,0,.19-.6V102.36a.91.91,0,0,0-.19-.62,1.64,1.64,0,0,0-1-.37v-.65l21.62.14a.57.57,0,0,0,.52-.32,4.14,4.14,0,0,0,.25-1.32h.52v10.22h-.52a4.23,4.23,0,0,0-.25-1.33.58.58,0,0,0-.52-.33l-13.9-.45v4.6l8.05.41a1,1,0,0,0,.93-.32,2,2,0,0,0,.37-.93l.51,0v9Z"/><path class="c" d="M234.62,133.93l-.52-.07a1,1,0,0,1-.92-.94h0c0-.12,0-.21,0-.29h0L211.71,130a1.06,1.06,0,0,1-.93-1h0v-.64a1,1,0,0,1,1-1.06H212V102.47l-.29,0h0a1.06,1.06,0,0,1-.92-1.05h0v-.63a1.14,1.14,0,0,1,.3-.76h0a1.06,1.06,0,0,1,.76-.3h0l21.25.14a5.6,5.6,0,0,0,.09-.67h0a1,1,0,0,1,1.05-1h.52a1.06,1.06,0,0,1,.75.31h0a1.1,1.1,0,0,1,.31.75h0v10.21a1,1,0,0,1-.34.77h0a1.12,1.12,0,0,1-.76.29h0l-.53,0a1,1,0,0,1-1-1h0a5.89,5.89,0,0,0-.08-.69h0l-12.5-.42v2.51l7,.36h.1s0,0,0,.08h0a.87.87,0,0,0,.16-.45h0a1.07,1.07,0,0,1,1.1-.9h0l.51,0a1.06,1.06,0,0,1,1,1.07h0v9a1.08,1.08,0,0,1-.33.78h0a1.11,1.11,0,0,1-.81.27h0l-.51,0,.07-1-.07,1a1.06,1.06,0,0,1-1-.9h0a1.21,1.21,0,0,0-.2-.54h-.14l-6.92-.51v3.05l12.51,1.19a6,6,0,0,0,.08-.67h0a1,1,0,0,1,.37-.74h0a1.05,1.05,0,0,1,.78-.24h0l.52,0a1.07,1.07,0,0,1,1,1.06h0v10a1,1,0,0,1-.36.79h0a1.07,1.07,0,0,1-.7.26h-.14Zm-1-3.37h.11v-5h-.34l-13.91-1.32a1.06,1.06,0,0,1-1-1h0V118a1.06,1.06,0,0,1,.33-.78h0a1,1,0,0,1,.81-.27h0l8.05.61a2.29,2.29,0,0,1,.67.12h0v-4.39a2,2,0,0,1-.65.09h-.16l-8.07-.4a1.07,1.07,0,0,1-1-1.05h0v-4.6a1.07,1.07,0,0,1,.32-.77h0a1.09,1.09,0,0,1,.76-.29h0l13.89.44.22,0h0v-4.81h-.24L214,101.8a2.41,2.41,0,0,1,.07.57h0v25.15a2.32,2.32,0,0,1-.1.68h0l19.57,2.38Zm-21.31-3.31h0Zm17.16-7.3.52-.08-.52.08ZM233,108.6h0Z"/><path class="d" d="M228.92,120a2.17,2.17,0,0,0-.37-1,1.16,1.16,0,0,0-.93-.45l-8.05-.6v5.15l13.9,1.32a.51.51,0,0,0,.52-.27,4.5,4.5,0,0,0,.25-1.41l.52,0v10l-.52-.06a2.14,2.14,0,0,0-.25-1,.8.8,0,0,0-.52-.24L211.85,129v-.64a1.53,1.53,0,0,0,1-.23.84.84,0,0,0,.19-.6V102.36a.91.91,0,0,0-.19-.62,1.64,1.64,0,0,0-1-.37v-.65l21.62.14a.57.57,0,0,0,.52-.32,4.14,4.14,0,0,0,.25-1.32h.52v10.22h-.52a4.23,4.23,0,0,0-.25-1.33.58.58,0,0,0-.52-.33l-13.9-.45v4.6l8.05.41a1,1,0,0,0,.93-.32,2,2,0,0,0,.37-.93l.51,0v9Z"/><ellipse cx="124.75" cy="134.4" rx="67.03" ry="12.67"/><path class="a" d="M100.14,128.19a11.18,11.18,0,0,0-4-.74c-2.6,0-4.21,1-4.21,2.25,0,.77.38,1.3,1.32,1.91l3.59,1.92c3.22,1.61,5.07,2.77,5.07,5.14s-3.12,4.58-8.38,4.58a14.68,14.68,0,0,1-5.2-.84v-2.35A13.05,13.05,0,0,0,93,141c2.93,0,4.17-1.13,4.17-2.44,0-3.49-10-4.18-10-8.78,0-2.47,2.65-4.49,8-4.49a18.18,18.18,0,0,1,5,.58Z"/><path class="a" d="M112.61,125.49v12.85c0,2.26,1.37,2.72,3.31,2.72,3.26,0,3.55-1,3.59-2.46V125.49h4.72v12.43c0,2.3,0,5.32-8.18,5.32-7.53,0-8.19-2.51-8.19-5.67V125.49Z"/><path class="a" d="M131.29,143V125.49h5.91c6.43,0,8.23,1.74,8.23,4.7,0,1.72-.71,3.38-4.49,3.87v0c4.06.63,5,2.16,5,4.11,0,3.23-2.42,4.79-9,4.79Zm5.3-15.55h-.81v5.74c4.4.09,5-1.25,5-3.11C140.79,128.72,139.85,127.44,136.59,127.47ZM135.78,141c4.12.1,5.16-.95,5.16-2.88s-.8-3.14-5.16-3.09Z"/><path class="a" d="M164.05,128.19a11.17,11.17,0,0,0-4-.74c-2.61,0-4.21,1-4.21,2.25,0,.77.38,1.3,1.32,1.91l3.59,1.92c3.22,1.61,5.07,2.77,5.07,5.14s-3.12,4.58-8.38,4.58a14.68,14.68,0,0,1-5.2-.84v-2.35a13,13,0,0,0,4.68.91c2.93,0,4.17-1.13,4.17-2.44,0-3.49-10-4.18-10-8.78,0-2.47,2.65-4.49,8-4.49a18.15,18.15,0,0,1,5,.58Z"/><path class="c" d="M201.56,135.63a2.56,2.56,0,1,1,2.57,2.57A2.55,2.55,0,0,1,201.56,135.63Zm4.7,0a2.14,2.14,0,1,0-2.13,2.14A2.11,2.11,0,0,0,206.26,135.64Zm-.93,1.42h-.46l-.82-1.29h-.55v1.29h-.4v-2.88h1.26a1.06,1.06,0,0,1,.69.16.68.68,0,0,1,.33.61c0,.59-.41.8-.9.81Zm-1.34-1.6c.4,0,1,.06,1-.51,0-.4-.34-.45-.69-.45h-.77v1Z"/><polygon class="a" points="67.51 136.26 64.57 137.94 61.66 136.23 61.68 132.86 64.61 131.18 67.53 132.89 67.51 136.26"/><polygon class="d" points="64.5 131.62 61.92 133.1 61.9 135.35 62.32 135.6 62.34 133.66 64.5 132.42 64.5 131.62"/><polygon class="a" points="187.74 136.26 184.79 137.94 181.88 136.23 181.9 132.86 184.83 131.18 187.76 132.89 187.74 136.26"/><polygon class="d" points="184.73 131.62 182.15 133.1 182.13 135.35 182.55 135.6 182.56 133.66 184.73 132.42 184.73 131.62"/><path class="e" d="M98.72,113.49a1,1,0,0,0-.34-.6,1.28,1.28,0,0,0-.88-.24H89.9V116H103a.59.59,0,0,0,.49-.2,2,2,0,0,0,.24-.9h.49v5.67h-.49a1.39,1.39,0,0,0-.24-.7.87.87,0,0,0-.49-.11l-20.37.67V120a2,2,0,0,0,1-.23.52.52,0,0,0,.19-.42v-17a.52.52,0,0,0-.19-.42,2,2,0,0,0-1-.24v-.44H103a.59.59,0,0,0,.49-.2,1.77,1.77,0,0,0,.24-.82h.49v6.34h-.49a1.8,1.8,0,0,0-.24-.83.6.6,0,0,0-.49-.2H89.9v3h7.61a1.28,1.28,0,0,0,.88-.24,1.07,1.07,0,0,0,.34-.6h.49v5.68Z"/><path class="d" d="M98.72,113.49a1,1,0,0,0-.34-.6,1.28,1.28,0,0,0-.88-.24H89.9V116H103a.59.59,0,0,0,.49-.2,2,2,0,0,0,.24-.9h.49v5.67h-.49a1.39,1.39,0,0,0-.24-.7.87.87,0,0,0-.49-.11l-20.37.67V120a2,2,0,0,0,1-.23.52.52,0,0,0,.19-.42v-17a.52.52,0,0,0-.19-.42,2,2,0,0,0-1-.24v-.44H103a.59.59,0,0,0,.49-.2,1.77,1.77,0,0,0,.24-.82h.49v6.34h-.49a1.8,1.8,0,0,0-.24-.83.6.6,0,0,0-.49-.2H89.9v3h7.61a1.28,1.28,0,0,0,.88-.24,1.07,1.07,0,0,0,.34-.6h.49v5.68Z"/></svg>