<svg xmlns="http://www.w3.org/2000/svg" viewBox="0 0 250 250"><title>Grocery</title><path d="M54.31,115.63l-1.24-.27c-2.17-1.39-4.6-.74-6.93-.9-.61,0-1.29.1-1.19.91.31,2.63-.78,5-1.22,7.53-.33,1.82.6,1.8,1.87,1.24,2.36.74,4.88-1,7.18.48-.67,2.25-2.31,3-4.51,3.08-5.9.21-5.9.24-6.93,6a8.22,8.22,0,0,0-.42,2.92c.63,2.91-.94,3.61-3.32,3.68-.77-.25-1.71-.2-2.32-.74v-4.78A78.65,78.65,0,0,0,40,116.48a1.82,1.82,0,0,0,0-.89c-1.37-3.62-1.2-3.91,2.76-4.12,3.58-.19,7.16-.31,10.74-.45a4.34,4.34,0,0,1,3.12.72A7.11,7.11,0,0,1,54.31,115.63Z" style="fill:#ec2d35"/><path d="M36,133.16s-2.81,6,0,6.75l1.56-.37,1.75-5.37Z" style="fill:#ec2d35"/><path d="M108.93,139.94c-1.72-.13-2.51-1.29-3-2.74,0-.9,0-1.81,0-3.43-2.56,3.27-4.79,5.75-8.27,6.53-3.31-1.17-4.21-2.56-4.39-6.77,1-1.11.59-2.69,1.29-3.9a51.66,51.66,0,0,1,3-4.75c2.56-3.3,5.59-5.77,10.19-4.4,1.07.32,1.5-.15,1.63-1.08.17-1.18.31-2.37.42-3.56.09-1-.63-2.27,1.06-2.63,1.49-.32,3.08-1.35,4.15.71.48,3.43-1,6.54-1.65,9.78-.72,3.46-2,6.81-2.14,10.39,0,.63-.28,1.54.67,1.7.62.11,1-.55,1.31-1,1,.14,1.5-3.09,2.87-.42l.07,0c-.45-.12-.43.27-.55.5C114,137.34,112.11,139.48,108.93,139.94Zm-7.76-4.27c3.28-2.49,4.69-6.23,6.47-9.71.55-1.07,0-1.89-1.05-2.39-1.34-1.32-2.64-.68-3.61.34a14.23,14.23,0,0,0-3.76,10.87C99.27,136,99.94,136.65,101.17,135.67Z" style="fill:#ec2d35"/><path d="M62,140.29c-2.31.95-6.22-.7-7.64-3.22-1.86-3.29-.81-8.87,2.4-12.8,3-3.7,7.54-5.24,11.4-4a8.36,8.36,0,0,1,2.49,1.52,10,10,0,0,1,.93,8C70.24,135,66.83,138.34,62,140.29Zm3.66-16.9c-1.62-1.9-2.92-.6-3.84.63a16.07,16.07,0,0,0-3,10.58c.05,1.32.42,2.85,2.4,2.69C65.33,136.07,67.89,128,65.62,123.39Z" style="fill:#ec2d35"/><path d="M82.3,140.29c-2.67,1-6.91-1.11-8-4.07-2.65-7.11,4.23-16.61,11.82-16.35a8.32,8.32,0,0,1,5.48,2.39c.09,1.66.85,3.19.71,4.92C91.79,133.74,88.19,137.87,82.3,140.29ZM86,123.41c-1.81-2-3.06-.44-4,.84a15.55,15.55,0,0,0-2.78,10.31c.06,1.28.26,2.91,2.32,2.69a2.07,2.07,0,0,0,1.9-.58C86.27,134.24,87.68,127,86,123.41Z" style="fill:#ec2d35"/><path d="M37.6,140.43c2.38-.07,3.94-.77,3.32-3.68a8.22,8.22,0,0,1,.42-2.92c1-5.74,1-5.77,6.93-6,2.2-.08,3.84-.83,4.51-3.08.62.18,1.81-.59,1.68.85a2.78,2.78,0,0,1-2.31,2.73,39.06,39.06,0,0,1-5.6.44c-1.38,0-2.19.32-2.4,1.87-.3,2.24-1,4.44-1.21,6.69C42.55,141.15,41.46,141.85,37.6,140.43Z" style="fill:#292627"/><path d="M113.12,134.74c-.33.49-.69,1.15-1.31,1-.95-.16-.69-1.07-.67-1.7.12-3.58,1.41-6.93,2.14-10.39.68-3.24,2.13-6.35,1.65-9.78,2.64-.28,2.38,1.5,2,3.07-.9,4.08-2,8.12-2.91,12.19A18.81,18.81,0,0,0,113.12,134.74Z" style="fill:#292627"/><path d="M82.3,140.29c5.89-2.42,9.49-6.55,10-13.11.13-1.73-.62-3.26-.71-4.92,2.67.75,2.6,3,2.63,5.08,0,.8-.7,1.62.3,2.29-.7,1.21-.28,2.79-1.29,3.9-2.44,2.88-4.44,6.28-8.61,7.09C83.74,140.79,83,141.32,82.3,140.29Z" style="fill:#292627"/><path d="M62,140.29c4.87-2,8.28-5.27,9.57-10.45a10,10,0,0,0-.93-8c2.71.4,3,2.63,3.26,4.64.7,6.17-4.15,12.93-10.12,14.36C63,141,62.38,141.08,62,140.29Z" style="fill:#292627"/><path d="M45.6,124.29c-1.27.56-2.2.59-1.87-1.24.45-2.5,1.53-4.89,1.22-7.53-.09-.81.58-.95,1.19-.91,2.33.15,4.76-.5,6.93.9-1.86.05-4.29-.58-5.43.36s-.93,3.43-1.33,5.24C46.08,122.17,45.84,123.23,45.6,124.29Z" style="fill:#292627"/><path d="M108.93,139.94c3.18-.46,5-2.6,6.59-5.15l.55-.5-.07,0c.51.14,1.59-1.47,1.5.42C117.32,138.27,112.2,141.34,108.93,139.94Z" style="fill:#292627"/><path d="M97.61,140.3c3.48-.78,5.71-3.26,8.27-6.53,0,1.62,0,2.53,0,3.43-1.67,1.29-3.07,3-5.25,3.53C99.61,141,98.51,141.2,97.61,140.3Z" style="fill:#292627"/><path d="M54.31,115.78a7.11,7.11,0,0,0,2.26-3.89c1.43.14,2.3.68,1.46,2.25S56.48,117.35,54.31,115.78Z" style="fill:#292627"/><path d="M106.59,123.58c-4.53,2.81-5.44,7.24-5.42,12.09-1.23,1-1.9.36-2-.88A14.23,14.23,0,0,1,103,123.92C103.95,122.9,105.25,122.26,106.59,123.58Z" style="fill:#292627"/><path d="M116.06,134.29l-.55.5C115.64,134.56,115.62,134.17,116.06,134.29Z" style="fill:#ec2d35"/><path d="M65.62,123.39c-3.76,2.31-5.65,8.28-4.4,13.9-2,.16-2.35-1.37-2.4-2.69a16.07,16.07,0,0,1,3-10.58C62.7,122.78,64,121.48,65.62,123.39Z" style="fill:#292627"/><path d="M86,123.41c-3.76,2.18-5.64,8-4.47,13.83-2.06.23-2.26-1.41-2.32-2.69A15.55,15.55,0,0,1,82,124.25C83,123,84.24,121.39,86,123.41Z" style="fill:#292627"/><path d="M131.63,125.3h9.49v15.43h-2.54l-.78-3.31a7.18,7.18,0,0,1-6.61,3.75,8.58,8.58,0,0,1-7.4-3.89q-2.73-3.89-2.73-10.46,0-7.14,2.69-11.31a8.87,8.87,0,0,1,8-4.16q8.39,0,9.41,9.92l-5.4.93q-.56-5.68-3.88-5.68a3.64,3.64,0,0,0-3.23,2.1q-1.21,2.1-1.21,7.95,0,5.19,1.18,7.31A3.76,3.76,0,0,0,132,136q3.66,0,3.68-5.74h-4.08Z"/><path d="M145.28,119.33h5.64v21.41h-5.64Zm6.62-4.75a3.59,3.59,0,1,1-3.59-3.59A3.59,3.59,0,0,1,151.9,114.57Z"/><rect x="137.55" y="135.5" width="3.59" height="5.38"/><rect x="143.53" y="139.09" width="8.97" height="1.79"/><path d="M162.15,112.1h6L176,141h-6.14l-1.36-6h-7.7l-1.34,6h-5.52Zm5.22,18-2.76-11.85L162,130.1Z"/><path d="M178.06,112.1h6.67l7,18v-18h4.64V141H191l-8.33-20.94V141h-4.64Z"/><path d="M198.25,112.1h17v5.43H209.7V141h-6v-23.5h-5.44Z"/><polygon points="149.43 122.5 152.57 122.5 153.47 121.15 153.47 124.29 150.33 124.29 149.43 124.29 149.43 122.5" style="fill:#fff;stroke:#000;stroke-miterlimit:10;stroke-width:0.25px"/><polygon points="149.21 131.24 152.8 131.24 153.69 123.62 149.58 123.62 149.21 123.62 149.21 131.24" style="fill:#fff;stroke:#000;stroke-miterlimit:10"/></svg>