<svg xmlns="http://www.w3.org/2000/svg" viewBox="0 0 250 250"><title>Grocery</title><path d="M166.85,155.94c.06-.2.1-.37.17-.52.8-2,1.62-4,2.41-6.07a.87.87,0,0,1,.68-.58c2-.5,4-1,6-1.51a1.31,1.31,0,0,0,.87-.65c1-1.68,2.08-3.34,3.13-5,.15-.24.27-.41,0-.67-3.05-2.75-6.09-5.52-9.17-8.32-.13.12-.25.23-.36.35a174.78,174.78,0,0,0-12.11,14.75,1.82,1.82,0,0,0-.29.84c-.29,2.45-.56,4.89-.84,7.38H133.67a14.8,14.8,0,0,1,.81-4.16c.8-2.4.8-2.4,3.19-3.18,1.38-.45,2.76-.89,4.13-1.36a1.12,1.12,0,0,0,.56-.42q4.65-7.53,9.27-15.08A92.52,92.52,0,0,0,157.94,120l.25-.57c-.23.07-.38.1-.52.16q-7.7,3.32-15.39,6.65c-2.31,1-4.6,2.06-6.91,3.07a2.33,2.33,0,0,1-.93.19q-9.4-.1-18.81-.24a1,1,0,0,0-1,.63q-2.74,5.1-5.53,10.17a1.24,1.24,0,0,0-.08,1.13,15.66,15.66,0,0,0,2.65,4.13c.85,1.08,1.75,2.13,2.49,3.29a5.42,5.42,0,0,1-.14,6.72.88.88,0,0,1-.8.41l-22.25.19H88.86l.81-2.29c.4-1.13.78-2.28,1.21-3.4a1.16,1.16,0,0,1,.59-.6,19.71,19.71,0,0,0,5.36-3.16c.2-.16.36-.28.21-.61q-2.81-6.15-5.58-12.3c0-.08-.09-.16-.15-.26s-.12,0-.15.07c-3.23,3.65-6.5,7.27-9.68,11-1.4,1.62-2.64,3.36-4,5a.92.92,0,0,0-.16.94c.51,1.68,1,3.37,1.47,5.06.05.18.09.36.15.58H57.29c.9-2.35,1.26-4.84,2.58-7a5.74,5.74,0,0,1,4.07-2.71,1,1,0,0,0,.6-.34,132.18,132.18,0,0,0,9-13.54,1.08,1.08,0,0,0,.1-.78c-1.27-3.68-2.58-7.34-3.86-11a.63.63,0,0,0-.82-.51,8.67,8.67,0,0,0-3.13,1.21L62.6,123.1l-.1-.1a3.33,3.33,0,0,1,.12-.4A245,245,0,0,0,73,93.87a.72.72,0,0,0-.16-.77c-1.2-1.46-2.41-2.92-3.56-4.42a13.08,13.08,0,0,1-1.1-1.94.75.75,0,0,1-.08-.58c.48-.91,1-1.8,1.51-2.68.24-.42.58-.41,1-.25a23,23,0,0,1,5.84,3.46L78.18,88,82.7,81.9a6.28,6.28,0,0,0-1.44-.35c-4.84,0-9.67,0-14.51,0-1.09,0-1.47.29-1.77,1.35a2.39,2.39,0,0,0-.09.5c-.05.94,0,1-1,1.08-1.29.08-2.59,0-3.93,0L60.84,78l9-.66a5.15,5.15,0,0,0-.39-2.62c-.44-1.1-1-2.14-1.44-3.24s-.79-2.38-1.17-3.57a3.31,3.31,0,0,1-.06-.62h.73c4.19,0,8.37,0,12.56,0a.87.87,0,0,0,.93-.57c.19-.46.39-.91.62-1.35a1.27,1.27,0,0,1,1.33-.77c3.4.11,6.8.28,10.2.21A45.71,45.71,0,0,0,109,62l1-.41a2.77,2.77,0,0,1,2.77,0l-1.64,5.16-1,3.17c-.19.6.14,1,.76.8a4.16,4.16,0,0,0,.95-.51c.29-.18.57-.39.86-.57a2.53,2.53,0,0,1,.36-.15c.15.77.3,1.5.43,2.24a87,87,0,0,1,1,11.87c.12,3.4.2,6.8.39,10.2.1,1.86.4,3.71.61,5.6l60,.25c0-1.87,0-3.68,0-5.49a16.58,16.58,0,0,0-.22-1.82c0-.29-.17-.45-.49-.41a3.41,3.41,0,0,1-.46,0H125.13c-2.82-9-2.26-18-.64-27H187.2V78.63l-3.54-2.95c-1.72-1.43-3.44-2.86-5.14-4.31a1.65,1.65,0,0,0-1.13-.43c-7,0-14-.11-20.93-.1-8,0-15.94.1-23.91.13a.86.86,0,0,0-.91.55,16.07,16.07,0,0,0-1.41,9.55c.09.7.2,1.4.35,2.09a1.38,1.38,0,0,0,.42.62,3.54,3.54,0,0,0,2.63.82c8,0,16,.06,24,.1q10.41.05,20.82.12a1.32,1.32,0,0,1,.8.32,10.82,10.82,0,0,0,3.21,1.73c1,.4,1.89.9,2.82,1.37a1.45,1.45,0,0,1,.78,1.35c.15,3.11.37,6.22.47,9.33.13,4.05.08,8.11.25,12.15a40,40,0,0,0,3,14.27,65.12,65.12,0,0,1,3.69,11,12.56,12.56,0,0,1-.42,7.82c-.44,1.06-.75,2.16-1.12,3.25q-1.38,4-2.75,8.07c-.11.31-.22.5-.62.5q-10.61,0-21.22,0ZM73.14,77.06l0,.28a48,48,0,0,0,8.61-.26c-.19-.45-.34-.84-.52-1.21a.86.86,0,0,0-1.09-.49c-.87.21-1.75.36-2.63.57C76.08,76.31,74.61,76.69,73.14,77.06Z"/><path d="M188.87,165.84v.66c0,7,0,14,0,21,0,.61-.19.74-.74.72-1.34,0-2.68,0-4,0a.66.66,0,0,1-.76-.55c-1.23-3.83-2.48-7.65-3.73-11.48,0-.14-.1-.28-.15-.42h-.16l.46,12.37c-.2,0-.36.05-.53.05-1.26,0-2.52,0-3.78,0-.44,0-.6-.12-.59-.58,0-1.24,0-2.48,0-3.73q0-8.66,0-17.32v-.79c.23,0,.42,0,.6,0,1.4,0,2.79,0,4.19,0a.63.63,0,0,1,.72.54q1.81,5.66,3.66,11.32c.07.23.16.45.24.67l.16,0-.5-12.45Z" style="fill:#005695"/><path d="M108.08,188.25v-22.4a3.15,3.15,0,0,1,.42-.05c2.5,0,5,0,7.51.1a7.57,7.57,0,0,1,3.57.93,4.51,4.51,0,0,1,2.28,4.06q.12,6.13,0,12.26a4.8,4.8,0,0,1-4.52,4.91c-1.7.18-3.43.15-5.15.18C110.85,188.27,109.5,188.25,108.08,188.25Zm5.16-18.47v.9q0,6.36,0,12.72c0,1-.22,1,1,1,1.73,0,2.46-.75,2.53-2.48,0-.76,0-1.53,0-2.29,0-2.46,0-4.93,0-7.39,0-1.22-.44-1.92-1.35-2.13A19.91,19.91,0,0,0,113.25,169.78Z" style="fill:#005695"/><path d="M157.26,176.78c0-1.7,0-3.4,0-5.1a6,6,0,0,1,6-6.35,10.58,10.58,0,0,1,4.19.42,5.38,5.38,0,0,1,3.81,4.82,37.67,37.67,0,0,1,.12,3.95c0,2.41,0,4.82,0,7.22a13.42,13.42,0,0,1-.4,2.88,5,5,0,0,1-4.26,4,11.93,11.93,0,0,1-5.06-.06c-2.55-.6-4-2.46-4.33-5.27,0-.32-.1-.64-.1-1,0-1.83,0-3.67,0-5.5Zm9,.12h0c0-1.6,0-3.21,0-4.81a6.81,6.81,0,0,0-.27-1.8,1.44,1.44,0,0,0-1.44-1,1.58,1.58,0,0,0-1.7.9,3.13,3.13,0,0,0-.32,1.2c0,3.5-.08,7-.05,10.49a6.21,6.21,0,0,0,.47,2.1,1.63,1.63,0,0,0,2.94-.11,6.21,6.21,0,0,0,.34-1.78C166.24,180.34,166.21,178.62,166.21,176.9Z" style="fill:#005695"/><path d="M86.9,176.83c0,1.87.06,3.75,0,5.62a10.67,10.67,0,0,1-.52,2.74,4.73,4.73,0,0,1-3.43,3.24,11.36,11.36,0,0,1-5.78.07A5.32,5.32,0,0,1,73,183.68a18.72,18.72,0,0,1-.22-2.74q0-4.36,0-8.71a11,11,0,0,1,.28-2.44,5.41,5.41,0,0,1,4.13-4.16,10.46,10.46,0,0,1,5.32-.05,5.58,5.58,0,0,1,4.41,5.51C86.95,173,86.9,174.92,86.9,176.83Zm-9,.06c0,1.66,0,3.33,0,5a6.18,6.18,0,0,0,.28,1.68,1.69,1.69,0,0,0,3.29-.13,10.14,10.14,0,0,0,.22-2q0-4.67,0-9.35a6.17,6.17,0,0,0-.22-1.58,1.52,1.52,0,0,0-1.6-1.21,1.57,1.57,0,0,0-1.72,1.13A5.58,5.58,0,0,0,78,172C77.93,173.61,77.95,175.25,77.95,176.9Z" style="fill:#005695"/><path d="M104.45,176.9c0,1.87.06,3.75,0,5.61a10.32,10.32,0,0,1-.52,2.68,4.74,4.74,0,0,1-3.44,3.23,11.22,11.22,0,0,1-5.78.07,5.31,5.31,0,0,1-4.18-4.87,24,24,0,0,1-.21-3c0-3.15-.06-6.31.08-9.45s1.87-5,4.95-5.65a10.42,10.42,0,0,1,4.71.1,5.57,5.57,0,0,1,4.39,5.46C104.5,173,104.45,174.95,104.45,176.9Zm-9,0c0,1.64,0,3.29,0,4.93a6.6,6.6,0,0,0,.3,1.79,1.57,1.57,0,0,0,1.71,1.22,1.59,1.59,0,0,0,1.55-1.36,9.1,9.1,0,0,0,.22-1.93q0-4.76,0-9.52a6,6,0,0,0-.25-1.63,1.49,1.49,0,0,0-1.49-1.12,1.53,1.53,0,0,0-1.74,1,5.68,5.68,0,0,0-.33,1.73C95.47,173.63,95.5,175.25,95.5,176.88Z" style="fill:#005695"/><path d="M69.43,165.85v4.34c-.23,0-.45,0-.67,0-1.95,0-3.9,0-5.85,0-.44,0-.6.11-.59.58,0,1.14,0,2.29,0,3.49.27,0,.49,0,.71,0h5c1,0,.84,0,.85.87,0,1.14,0,2.29,0,3.52H62.35v9.48H57.16V165.85Z" style="fill:#005695"/><path d="M133.78,165.8h1c1.15,0,2.29,0,3.44,0,.54,0,.67.16.67.68,0,5.41,0,10.82,0,16.22a4.21,4.21,0,0,1,0,.52c-.06.5.13.67.64.66,1.72,0,3.44,0,5.16,0,.57,0,.71.18.69.72,0,1,0,2.1,0,3.15,0,.39-.11.54-.52.54q-5.3,0-10.61,0c-.33,0-.52-.06-.52-.47q0-10.84,0-21.67A2.87,2.87,0,0,1,133.78,165.8Z" style="fill:#005695"/><path d="M153.51,165.81v22.4c-.28,0-.54,0-.8,0-1.3,0-2.6,0-3.9,0-.36,0-.5-.1-.5-.49q0-10.75,0-21.5c0-.15.17-.44.27-.44C150.23,165.8,151.85,165.81,153.51,165.81Z" style="fill:#005695"/></svg>