<svg xmlns="http://www.w3.org/2000/svg" viewBox="0 0 250 250"><title>Grocery</title><path d="M87.35,133.05c-2.32,6.6-4,7.82-12.75,7.79-8,0-9.68-1.54-7.3-7.79l3.31-9.86c2.17-6,5.65-6.87,12.12-6.85,9.48,0,9.49,2.2,7.92,6.85Zm-5.32-9c.43-1.33,1.25-2.91-.85-2.91s-2.1,1.59-2.53,2.91l-2.87,8.87c-.4,1.24-1.09,2.94.62,3.08,2.05.16,2-1.4,2.75-3.08Z" style="fill:#009d57"/><path d="M108.36,133.11c-2.32,6.59-4,7.82-12.74,7.79-8,0-9.68-1.54-7.29-7.8l3.31-9.86c2.17-6,5.65-6.87,12.12-6.85,9.48,0,9.48,2.2,7.92,6.85Zm-5.32-9c.43-1.33,1.25-2.91-.84-2.91s-2.1,1.58-2.53,2.91L96.8,133c-.4,1.24-1.09,2.95.62,3.08,2,.16,2-1.4,2.75-3.08Z" style="fill:#009d57"/><path d="M106.7,140.49,114.55,117l7.07,0c2.67,0,5.87.08,7.9,1.14,2.42,1.28,2.11,3.59,1.34,5.88l-3.16,10.41c-.84,2.67-2,4.54-4.94,5.55-2.3.79-4.68.53-6.94.52Zm9.15-4.13c3.71.27,3.74-1.28,4.65-4.52l2.47-7.93c.86-2.85.46-3-2.28-3.08Z" style="fill:#009d57"/><path d="M137.46,132.34l-.64,1.41c-.37,1.37-.46,2.09.91,2.1,1.68,0,1.67-.8,2.19-2,.88-2-.7-2.39-2.19-3.28-1.78-1-3.63-1.19-4.45-2.4a7,7,0,0,1-1-5.66c1.47-4.46,3.4-6.48,13.36-6.45,6.26,0,7.75,4.22,5.46,8.66l-7.52,0c.53-1.39,1.47-2.71-.4-3.29a2,2,0,0,0-2.6,1.22c-.55,1.46-.1,1.39,1,2.15,2.11,1.33,4.08,2.16,5.23,3.36s2.13,2.73,1.48,5.83c-1,4.85-3.67,6.83-13,6.8-6.59,0-8.82-2.82-7.44-5.94l1.11-2.52Z" style="fill:#009d57"/><path d="M206,132.78c-2.32,6.59-4,7.82-12.75,7.79-8,0-9.68-1.54-7.29-7.79l3.31-9.86c2.17-6,5.65-6.87,12.12-6.85,9.48,0,9.48,2.2,7.92,6.85Zm-5.32-9c.43-1.33,1.25-2.91-.84-2.91s-2.1,1.58-2.53,2.91l-2.87,8.87c-.4,1.24-1.09,2.94.63,3.08,2,.16,2-1.4,2.75-3.08Z" style="fill:#009d57"/><rect x="35" y="141.82" width="168.05" height="1.5" style="fill:#ef3e42"/><path d="M35.38,140.32l1.49-4.18h2.57a2.5,2.5,0,0,0,2.32-1.89L48.67,115c.42-1.19.09-1.9-1-1.91H45.09l1.49-4.17,28.07.17-4.31,12.05-3.93,0c2.44-6.83.45-7.89-5-7.92l-4.18,0L54,122.17h1.31A4.36,4.36,0,0,0,59.84,119l.66-1.85,3.5,0-5.12,14.33-3.5,0L56,129.6c.71-2,.23-3.23-2.18-3.25H52.56l-2.85,8c-.42,1.19-.09,1.9,1,1.91h2.61l-1.49,4.17Z" style="fill:#009d57"/><path d="M189.75,108l3.8,0-4.61,12.91-3.92,0c1.75-4.89.86-9-3.91-9.06s-8.57,3.75-11.59,12.2c-2.67,7.5-2.74,12.3,3.17,12.33,4.43,0,8.27-4.09,9.85-8.5l3.92,0c-3.25,8.73-9.35,12.92-17.16,12.88-8.74-.05-12.9-5.69-8.93-16.79,3.59-10.06,12.11-16.62,20.3-16.57,2.11,0,6.16,1.22,7.31,3.23Z" style="fill:#009d57"/><path d="M212,140.23a3.12,3.12,0,1,1,3-3.12A3,3,0,0,1,212,140.23Zm0-5.7a2.58,2.58,0,1,0,2.38,2.58A2.42,2.42,0,0,0,212,134.54Zm-.62,4.36h-.57v-3.45h1.31c.84,0,1.26.29,1.26,1a.88.88,0,0,1-.9.94l1,1.52h-.64l-.89-1.48h-.53Zm.63-2c.43,0,.8,0,.8-.54s-.41-.47-.75-.47h-.69v1Z"/></svg>