<svg xmlns="http://www.w3.org/2000/svg" viewBox="0 0 250 250"><title>Grocery</title><path d="M144,144.3c-.19.19,0,.37,0,.54.1.37.22.73.35,1.09s.07.42-.26.36H119.39a1,1,0,0,1-.76-.31c-1.29-1.31-2.59-2.6-3.92-3.93-.59,1.3-1.16,2.55-1.71,3.81a.58.58,0,0,1-.63.42q-6.1,0-12.2,0a.83.83,0,0,1-.61-.24c-.82-.75-1.65-1.48-2.56-2.29,0,.78,0,1.46,0,2.14,0,.27-.06.37-.35.37h-12a.72.72,0,0,1-.55-.26Q82,143.94,80,141.89a1,1,0,0,1-.31-.76q0-10.57,0-21.14c0-5,0-9.9,0-14.86,0-.43.12-.52.53-.52q5.66,0,11.33,0a1,1,0,0,1,.79.34q2.21,2.29,4.45,4.56a1,1,0,0,1,.31.76q0,13.32,0,26.64c0,.17,0,.34,0,.55a.72.72,0,0,0,.27-.42c3.43-7.76,6.83-15.54,10.32-23.27a50.33,50.33,0,0,1,3-6.31,7.42,7.42,0,0,1,7-3.71,7.61,7.61,0,0,1,5.17,2.47c1.79,1.85,3.55,3.71,5.33,5.56a2.93,2.93,0,0,1,.54.79L141,138.3a1.13,1.13,0,0,0,.27.38v-.43q0-11.83,0-23.66a18.4,18.4,0,0,1,.29-4.47,7.85,7.85,0,0,1,5.21-6,7.25,7.25,0,0,1,6.82,1.08,26.86,26.86,0,0,1,3,2.59c1.13,1.1,2.21,2.24,3.4,3.28a2,2,0,0,1,.34.42l5.22,8,.3.45a.9.9,0,0,0,.05-.5q0-7.13,0-14.26c0-.37.07-.48.46-.48q21.76,0,43.52,0a.83.83,0,0,1,.67.28q2.07,2.21,4.16,4.4a.86.86,0,0,1,.26.65q0,5.16,0,10.32c0,.37-.11.45-.46.45-3.27,0-6.54,0-9.81,0-.38,0-.48.09-.48.47q0,12.27,0,24.53c0,.43-.09.56-.54.55-3.74,0-7.49,0-11.23,0a.94.94,0,0,1-.76-.32q-2-2.07-4-4.12a1,1,0,0,1-.31-.76q0-10,0-20c0-.41-.1-.53-.52-.52-1.54,0-3.09,0-4.63,0-.38,0-.48.09-.47.47,0,8.24,0,16.48,0,24.72,0,.49-.14.56-.58.56q-6.05,0-12.11,0a.82.82,0,0,1-.73-.35c-1.27-1.62-2.59-3.21-3.84-4.85-1.45-1.89-2.66-3.95-4-5.92-1-1.52-2-3.05-3-4.58-.08-.12-.13-.27-.28-.35-.11.15-.06.33-.06.49q0,7.47,0,14.95c0,.37-.07.48-.46.48-3.47,0-6.94,0-10.41,0a.84.84,0,0,1-.65-.25c-.55-.54-1.19-1-1.7-1.58l-.06.08h0Zm7.77-23.68.42.62q6.22,9.43,12.43,18.86a.73.73,0,0,0,.7.38q5.3,0,10.59,0c.41,0,.53-.09.53-.52,0-8.21,0-16.42,0-24.62,0-.43.13-.49.52-.49,3.49,0,7,0,10.46,0,.69,0,.69,0,.69.67q0,12.24,0,24.49c0,.42.11.53.53.53q4.91,0,9.81,0c.46,0,.54-.14.54-.56q0-12.13,0-24.26c0-.39.08-.51.5-.51,3.27,0,6.54,0,9.81,0,.43,0,.57-.09.57-.54q0-4.42,0-8.85c0-.44-.14-.51-.54-.51q-21.09,0-42.19,0c-.43,0-.56.09-.56.54q0,9.24,0,18.48a.78.78,0,0,1-.06.47l-.08-.09q-5.64-8.44-11.28-16.88a8.21,8.21,0,0,0-1.86-2,6.77,6.77,0,0,0-9.24.79,9,9,0,0,0-2.13,5.92c0,9.17,0,18.34,0,27.51,0,.36.12.42.44.42q4.52,0,9,0c.38,0,.45-.12.45-.47q0-5.89,0-11.79C151.81,125.73,151.81,123.24,151.81,120.62Zm-34.72-3.56c.16.05.17.16.2.24q2.81,6.57,5.61,13.13c.18.41,0,.44-.32.44h-6.92c-.3,0-.43.06-.43.4q0,4.49,0,9c0,.29.07.39.38.39h22.33c.54,0,.55,0,.33-.5q-1.58-3.38-3.15-6.76c-4-8.43-7.82-16.89-11.83-25.29a5.58,5.58,0,0,0-.72-1.16,7.11,7.11,0,0,0-9.95-.9,9.31,9.31,0,0,0-2.35,3.45c-4.76,10.16-9.16,20.47-13.64,30.75-.16.38-.09.45.3.45q5.16,0,10.32,0a.51.51,0,0,0,.56-.39q3.19-8,6.41-16Zm-36.81,6.05q0,8.71,0,17.42c0,.36.09.46.46.46q5.07,0,10.13,0c.4,0,.51-.09.51-.5q0-17.35,0-34.7c0-.4-.09-.51-.5-.51q-5,0-10.08,0c-.4,0-.51.09-.51.5Q80.3,114.45,80.29,123.11Zm39.13,6.82h2.06c.15,0,.19-.05.12-.19l-1.11-2.27Z" style="fill:#020101"/><path d="M61.38,104.91H72.43a.91.91,0,0,1,.72.3q2.07,2.11,4.17,4.2a.82.82,0,0,1,.26.64c0,3.45,0,6.91,0,10.36,0,.39-.13.44-.47.44-6.59,0-13.17,0-19.76,0a4.33,4.33,0,0,0-3,1.08,7.68,7.68,0,0,0-2.81,7.59c0,.15.07.3.11.44a.78.78,0,0,0,.89.64q4.15,0,8.3,0c.46,0,.54-.13.53-.56,0-2.46,0-4.92,0-7.38,0-.37.1-.45.46-.45q5.23,0,10.45,0a.86.86,0,0,1,.68.28q2.1,2.14,4.24,4.26a.82.82,0,0,1,.25.64q0,9.19,0,18.39c0,.37-.08.49-.47.49H56.35a13.92,13.92,0,0,1-4.55-1.13A23.23,23.23,0,0,1,43,139.21a30.74,30.74,0,0,1-6.21-8.39,18.84,18.84,0,0,1,3.83-21.34,15.93,15.93,0,0,1,7.48-4.22,17.68,17.68,0,0,1,3.87-.36ZM61,140.8v0H71.56c.35,0,.46-.08.46-.45q0-8.51,0-17c0-.35-.07-.47-.45-.46q-4.54,0-9.08,0c-.36,0-.46.09-.46.46,0,2.41,0,4.83,0,7.24,0,.66,0,.66-.64.66-3,0-6.05,0-9.08,0A4.15,4.15,0,0,1,49.24,130a10.52,10.52,0,0,1-2.62-4.61,7.28,7.28,0,0,1-.4-3.16,9.21,9.21,0,0,1,3.44-5.86,5.1,5.1,0,0,1,3.45-1.21c6.17,0,12.35,0,18.52,0,.41,0,.5-.11.5-.51q0-4.36,0-8.71c0-.4-.09-.5-.5-.5q-9.22,0-18.43,0c-.82,0-1.65,0-2.47.05a15.13,15.13,0,0,0-11.28,6.12,18.61,18.61,0,0,0,4.87,26.94,13.16,13.16,0,0,0,7.53,2.2C54.9,140.75,58,140.8,61,140.8Z" style="fill:#020101"/><path d="M151.81,120.62c0,2.62,0,5.11,0,7.6q0,5.89,0,11.79c0,.34-.07.47-.45.47q-4.52,0-9,0c-.33,0-.44-.06-.44-.42,0-9.17,0-18.34,0-27.51a9,9,0,0,1,2.13-5.92,6.77,6.77,0,0,1,9.24-.79,8.21,8.21,0,0,1,1.86,2q5.63,8.45,11.28,16.88l.08.09a.78.78,0,0,0,.06-.47q0-9.24,0-18.48c0-.45.12-.54.56-.54q21.09,0,42.19,0c.4,0,.54.07.54.51q0,4.42,0,8.85c0,.46-.14.55-.57.54-3.27,0-6.54,0-9.81,0-.42,0-.5.12-.5.51q0,12.13,0,24.26c0,.43-.09.57-.54.56q-4.91,0-9.81,0c-.42,0-.53-.11-.53-.53q0-12.24,0-24.49c0-.67,0-.67-.69-.67-3.49,0-7,0-10.46,0-.38,0-.52.06-.52.49,0,8.21,0,16.42,0,24.62,0,.43-.12.52-.53.52q-5.3,0-10.59,0a.73.73,0,0,1-.7-.38q-6.21-9.44-12.43-18.86Z" style="fill:#e63137"/><path d="M117.1,117.06l-2.88,7.19q-3.21,8-6.41,16a.51.51,0,0,1-.56.39q-5.16,0-10.32,0c-.4,0-.47-.08-.3-.45,4.49-10.28,8.89-20.59,13.64-30.75a9.31,9.31,0,0,1,2.35-3.45,7.11,7.11,0,0,1,9.95.9,5.58,5.58,0,0,1,.72,1.16c4,8.4,7.88,16.86,11.83,25.29q1.58,3.38,3.15,6.76c.22.47.21.5-.33.5H115.62c-.31,0-.38-.1-.38-.39q0-4.49,0-9c0-.34.13-.4.43-.4h6.92c.36,0,.5,0,.32-.44q-2.82-6.56-5.61-13.13C117.26,117.22,117.26,117.11,117.1,117.06Z" style="fill:#e63137"/><path d="M80.29,123.11q0-8.66,0-17.33c0-.41.11-.5.51-.5q5,0,10.08,0c.41,0,.5.11.5.51q0,17.35,0,34.7c0,.41-.11.5-.51.5q-5.07,0-10.13,0c-.36,0-.46-.09-.46-.46Q80.3,131.82,80.29,123.11Z" style="fill:#e63137"/><path d="M144,144.3l0,.08h0l.06-.08Z" style="fill:#fdfdfd"/><path d="M61,140.8c-3.06,0-6.11,0-9.17,0a13.16,13.16,0,0,1-7.53-2.2,18.61,18.61,0,0,1-4.87-26.94,15.13,15.13,0,0,1,11.28-6.12c.83-.05,1.65-.05,2.47-.05q9.22,0,18.43,0c.41,0,.5.1.5.5q0,4.36,0,8.71c0,.4-.09.51-.5.51-6.17,0-12.35,0-18.52,0a5.1,5.1,0,0,0-3.45,1.21,9.21,9.21,0,0,0-3.44,5.86,7.28,7.28,0,0,0,.4,3.16A10.52,10.52,0,0,0,49.24,130a4.15,4.15,0,0,0,3.09,1.26c3,0,6.05,0,9.08,0,.64,0,.64,0,.64-.66,0-2.41,0-4.83,0-7.24,0-.37.1-.46.46-.46q4.54,0,9.08,0c.38,0,.45.12.45.46q0,8.51,0,17c0,.37-.11.45-.46.45H61Z" style="fill:#e63137"/><path d="M209.69,145.84a2.94,2.94,0,1,1,2.94-2.94A2.94,2.94,0,0,1,209.69,145.84Zm0-5.52a2.58,2.58,0,1,0,2.58,2.58A2.59,2.59,0,0,0,209.69,140.32Z"/><path d="M208.57,141.53a5.54,5.54,0,0,1,.85-.06,1.61,1.61,0,0,1,1,.23.66.66,0,0,1,.27.54.78.78,0,0,1-.65.72h0a.74.74,0,0,1,.5.57,4,4,0,0,0,.26.78h-.46a3.22,3.22,0,0,1-.23-.68.63.63,0,0,0-.69-.55H209v1.23h-.44Zm.44,1.29h.45c.47,0,.77-.21.77-.54s-.32-.53-.79-.53a2.18,2.18,0,0,0-.44,0Z"/></svg>