<svg xmlns="http://www.w3.org/2000/svg" viewBox="0 0 250 250"><defs><style>.a{fill:#fe0f01;}.b{fill:#fed166;}.c{fill:#fdfebb;}.d{fill:#fdfdbb;}.e{fill:#fdfdba;}.f{fill:#fefdba;}.g{fill:#fed066;}.h{fill:#fdfafa;}.i{fill:#fdfaf9;}.j{fill:#fcf9f8;}.k{fill:#fefdfd;}.l{fill:#f6bdb5;}</style></defs><title>Midscale</title><rect class="a" x="25" y="62.09" width="200" height="125.81" rx="45.2" ry="45.2"/><path class="b" d="M53.66,111.08c-.23-.05-.39.11-.57.2A13.08,13.08,0,1,1,45.26,86.6a11.75,11.75,0,0,1,8.59,1.78c.09.06.18.16.31.11s.08-.21.08-.32c0-.71-.07-.73.72-.73h8.85c.68,0,.69,0,.69.7q0,2.93,0,5.85c0,.69,0,.69-.69.7s-1.12,0-1.67,0c-.3,0-.42.12-.41.41s0,.42,0,.63q0,7.81,0,15.61a9.8,9.8,0,0,1-2.39,6.6,11.3,11.3,0,0,1-4.11,3,16.05,16.05,0,0,1-13.12.13A10.82,10.82,0,0,1,36,114.93a2.61,2.61,0,0,1-.29-1.19,1.29,1.29,0,0,1,.7-.08c2.46,0,4.93,0,7.39,0a1.51,1.51,0,0,1,1.21.51,5.23,5.23,0,0,0,7.35.16A4.06,4.06,0,0,0,53.66,111.08ZM42.49,99.51a5.85,5.85,0,0,0,6,6,6,6,0,0,0-.18-11.93A5.81,5.81,0,0,0,42.49,99.51Z"/><path class="b" d="M127.41,88.41a20.34,20.34,0,0,0,0-2.05c0-.25-.15-.31-.36-.31h-1.46c-.51,0-.53,0-.54-.49q0-2.82,0-5.64c0-.47,0-.49.54-.5.67,0,1.35,0,2,0h7.8c.27,0,.38.12.37.38s0,.42,0,.63q0,12,0,24c0,1-.1.9.89.91.46,0,.93,0,1.39,0s.46.11.46.44c0,.56,0,1.11,0,1.67,0,1.39,0,2.79,0,4.18,0,.66,0,.67-.64.67h-9.54c-.63,0-.63,0-.64-.67,0-.35,0-.7,0-1a.23.23,0,0,0,0-.07c-.19-.11-.3,0-.42.13a10.81,10.81,0,0,1-4.68,1.67c-6.52.9-12.11-3.62-14-8.49A12.14,12.14,0,0,1,109.89,92a12.43,12.43,0,0,1,10.64-5.62A11.36,11.36,0,0,1,127,88.28C127.11,88.35,127.2,88.48,127.41,88.41ZM122,105.33a5.66,5.66,0,0,0,5.81-5.83,6,6,0,0,0-6-6A5.71,5.71,0,0,0,116,99.33,6.21,6.21,0,0,0,122,105.33Z"/><path class="c" d="M182.33,143.93a.45.45,0,0,0-.41.07,11.93,11.93,0,0,1-11,.6,13.42,13.42,0,0,1-8.07-8.6,12.75,12.75,0,0,1,6.37-15.07,13.18,13.18,0,0,1,6.64-1.55,12.11,12.11,0,0,1,5.74,1.73,1.63,1.63,0,0,0,.65.33,1.93,1.93,0,0,0,.06-.86c0-.31.13-.42.42-.39.12,0,.23,0,.35,0h9.2a3.48,3.48,0,0,0,.35,0c.34,0,.44.12.44.45,0,1.3,0,2.6,0,3.9,0,.79,0,1.58,0,2.37,0,.33-.11.46-.44.45-.51,0-1,0-1.53,0s-.63,0-.63.66q0,3.69,0,7.39c0,.77,0,1.53,0,2.3,0,.36.12.49.48.48,1,0,2,0,3.07,0,.58,0,.59,0,.59.56q0,3,0,5.92c0,.52,0,.54-.55.54H182.83c-.48,0-.49,0-.5-.5C182.33,144.45,182.33,144.19,182.33,143.93Zm-5.7-5.69c.35,0,.7,0,1-.08a6.15,6.15,0,0,0,.94-.24,5.63,5.63,0,0,0,3.22-8.17,6.14,6.14,0,0,0-8.48-2.15,5.62,5.62,0,0,0-2.43,6.7A6.1,6.1,0,0,0,176.62,138.24Z"/><path class="b" d="M179,88.67c.36,0,.48-.23.65-.36a8.77,8.77,0,0,1,4.21-1.87,8.11,8.11,0,0,1,9.31,6.29,11.21,11.21,0,0,1,.27,2.56q0,4.49,0,9c0,.19,0,.37,0,.56s.11.38.37.37h1.74c.56,0,.57,0,.57.52,0,2,0,4,0,6.06,0,.36-.13.48-.49.48h-9.75c-.53,0-.54,0-.54-.55q0-3.31,0-6.62,0-3.83,0-7.66a3.84,3.84,0,0,0-.45-1.88,2.85,2.85,0,0,0-4.52-.68A4.26,4.26,0,0,0,179.18,98c0,2.21,0,4.41,0,6.62,0,.54,0,.55.54.56s1.07,0,1.6,0c.31,0,.47.08.47.43q0,3.1,0,6.2c0,.34-.14.44-.46.44-.88,0-1.76,0-2.65,0h-9.75c-.31,0-.41-.14-.4-.43s0-.37,0-.56c0-1.83,0-3.67,0-5.5,0-.62,0-.62.61-.62s.93,0,1.39,0c.3,0,.42-.13.41-.42,0-.12,0-.23,0-.35q0-4.81,0-9.61c0-.12,0-.23,0-.35s-.12-.38-.38-.37h-1.67c-.31,0-.46-.09-.46-.44q0-3.14,0-6.27c0-.39.19-.46.52-.46h9.68c.3,0,.42.11.41.41C179,87.75,179,88.2,179,88.67Z"/><path class="b" d="M147.52,102.76a5.27,5.27,0,0,0,2.23,2.56,7,7,0,0,0,7.81-.71,1,1,0,0,1,.69-.25h6.9c.54,0,.56,0,.36.57a11.16,11.16,0,0,1-6.25,6.67,14.58,14.58,0,0,1-12.29-.07,12.93,12.93,0,0,1-7.51-13.35,12.69,12.69,0,0,1,8.07-10.7c5.33-2.28,10.23-1.22,14.57,2.52a13,13,0,0,1,4.41,7.71,10.82,10.82,0,0,1-.09,4.35c-.14.62-.14.62-.77.62H148.39A2.48,2.48,0,0,0,147.52,102.76Zm11-5.87a5.74,5.74,0,0,0-6-3.64c-2.35.13-4.7,1.85-5,3.64Z"/><path class="d" d="M102.09,119.74c7-.06,12.52,4.35,13.81,10.63a12.72,12.72,0,0,1-5.75,13.48,13.79,13.79,0,0,1-20.8-8.56,12.6,12.6,0,0,1,8.09-14.68A14.39,14.39,0,0,1,102.09,119.74Zm.64,18.77a5.27,5.27,0,0,0,1.54-.19,5.68,5.68,0,0,0,3.11-9,5.75,5.75,0,0,0-5-2.32,5.68,5.68,0,0,0-5.51,6.53A5.83,5.83,0,0,0,102.73,138.51Z"/><path class="b" d="M78.41,112.59a13.29,13.29,0,0,1-11.31-5.9,13,13,0,0,1,3.6-18.06,13.82,13.82,0,0,1,20.15,5.76,12.86,12.86,0,0,1-7.72,17.46A14.15,14.15,0,0,1,78.41,112.59Zm.12-7.27a5.76,5.76,0,1,0-5.87-5.79A5.71,5.71,0,0,0,78.53,105.33Z"/><path class="e" d="M87.16,136.42a12.49,12.49,0,0,1-4,6.29A13.28,13.28,0,0,1,73.37,146,13.5,13.5,0,0,1,64,141.3a13.11,13.11,0,0,1-3.2-6.39A12.72,12.72,0,0,1,67.66,121,13.13,13.13,0,0,1,75,119.83a8.58,8.58,0,0,1,3.45,1.25l.79.48a1.7,1.7,0,0,0,.07-.8c0-.3.1-.43.4-.41s.7,0,1,0h4.74c.59,0,.6,0,.6.55q0,4.11,0,8.22c0,.55,0,.56-.6.56-2,0-3.9,0-5.85,0a1.1,1.1,0,0,1-.89-.42,6.14,6.14,0,0,0-6.24-2,5.41,5.41,0,0,0-4.18,4.75,5.62,5.62,0,0,0,2.78,5.59,6.09,6.09,0,0,0,7.28-.84,1.24,1.24,0,0,1,1-.39c2.35,0,4.69,0,7,0Z"/><path class="f" d="M208.68,125.36q0,6.13,0,12.26c0,.85-.07.75.74.76h1.67c.5,0,.51,0,.52.5,0,1,0,1.9,0,2.86s0,2.09,0,3.13c0,.37-.12.48-.48.48-1.39,0-2.79,0-4.18,0h-9.68c-.57,0-.58,0-.58-.57,0-1.42,0-2.83,0-4.25,0-.6,0-1.21,0-1.81,0-.31.12-.4.41-.4h2.72c.68,0,.69,0,.69-.68q0-6.62,0-13.24c0-1.53,0-3.07,0-4.6,0-.58,0-.58-.56-.59s-1.11,0-1.67,0c-.29,0-.42-.09-.42-.4q0-3.07,0-6.13c0-.31.14-.4.42-.39H208c.64,0,.65,0,.65.65Q208.68,119.16,208.68,125.36Z"/><path class="e" d="M129.48,122.94a9.8,9.8,0,0,1,2.36-1.76,11.37,11.37,0,0,1,4.85-1.36c.77,0,1.53,0,2.3,0,.51,0,.53,0,.53.48,0,2.3,0,4.6,0,6.9,0,.37-.12.48-.48.48a26.72,26.72,0,0,0-3.34.08,7.07,7.07,0,0,0-4.49,2,4.8,4.8,0,0,0-1.43,3.31c0,1.6,0,3.2,0,4.81,0,.48,0,.49.52.49s1.12,0,1.67,0c.3,0,.41.11.41.41q0,3.1,0,6.2c0,.29-.09.44-.4.42H119.83c-.6,0-.61,0-.61-.62q0-3,0-5.92c0-.56,0-.56.58-.57s.93,0,1.39,0,.5-.1.49-.47c0-.53,0-1.07,0-1.6q0-3.9,0-7.8c0-.16,0-.33,0-.49s-.11-.37-.37-.37H119.5c-.28,0-.42-.08-.42-.39q0-3.17,0-6.34c0-.26.1-.39.37-.38h9.13c.12,0,.23,0,.35,0,.35,0,.44.15.43.46,0,.58,0,1.16,0,1.74C129.35,122.7,129.31,122.83,129.48,122.94Z"/><path class="d" d="M151.93,122.9a12.16,12.16,0,0,1,5.81-2.9,20.91,20.91,0,0,1,4.09-.22c.24,0,.33.12.32.34,0,.07,0,.14,0,.21q0,3.38,0,6.76c0,.53,0,.54-.53.54a33.41,33.41,0,0,0-3.34.09,7.82,7.82,0,0,0-3.29,1,5.1,5.1,0,0,0-2.58,4.43c0,1.53,0,3.07,0,4.6,0,.5,0,.51.49.52s1.12,0,1.67,0c.34,0,.44.13.44.45q0,3.07,0,6.13c0,.34-.12.46-.44.44s-.56,0-.84,0H142.3c-.48,0-.49,0-.5-.52,0-1.11,0-2.23,0-3.34,0-.86,0-1.72,0-2.58,0-.66,0-.66.63-.67h1.32c.48,0,.5,0,.5-.52,0-1.81,0-3.62,0-5.43,0-1.3,0-2.6,0-3.9,0-1,.11-.87-.91-.87-.42,0-.84,0-1.25,0s-.44-.12-.44-.45q0-3.1,0-6.2c0-.38.15-.47.49-.47h9.27c.49,0,.5,0,.51.51C151.94,121.57,151.93,122.24,151.93,122.9Z"/><path class="g" d="M104.12,92.32q0,5.89,0,11.77c0,.16,0,.33,0,.49,0,.6,0,.6.63.61h1.39c.62,0,.63,0,.63.61,0,1.56,0,3.11,0,4.67,0,.37,0,.74,0,1.11,0,.56,0,.56-.6.57H93.77a.3.3,0,0,1-.33-.34c0-.09,0-.19,0-.28q0-2.89,0-5.78c0-.6,0-.61.62-.61h1.46c.29,0,.44-.1.42-.4,0-.12,0-.23,0-.35q0-8.71,0-17.42c0-.14,0-.28,0-.42s-.11-.37-.38-.37c-.56,0-1.11,0-1.67,0-.32,0-.46-.1-.46-.44q0-3,0-5.92c0-.29.11-.44.41-.43h10a.28.28,0,0,1,.31.3c0,.21,0,.42,0,.63Q104.12,86.33,104.12,92.32Z"/><path class="h" d="M151.64,166c-.11-.15-.29-.09-.44-.09h-2.3c-.59,0-.59,0-.59-.63s0-1,0-1.53,0-.58.56-.58h4.25c.63,0,1.25,0,1.88,0,.33,0,.44.12.44.45q0,3.13,0,6.27c0,.36-.15.43-.46.42-.58,0-1.16,0-1.74,0s-.52,0-.56-.53c0-.09,0-.18,0-.36a5.83,5.83,0,0,1-5.29.89A6.54,6.54,0,0,1,144,160a6.27,6.27,0,0,1,5.39-2.51,5.87,5.87,0,0,1,2.84.92c.17,0,.19,0,.19-.1.05-.64.05-.64.65-.64h1.6c.28,0,.42.08.42.4q0,1.74,0,3.48c0,.32-.15.39-.43.38-.91,0-1.81,0-2.72,0-.33,0-.5-.19-.71-.36a3.23,3.23,0,1,0-4.18,4.91,3.25,3.25,0,0,0,4.55-.42S151.65,166,151.64,166Z"/><path class="h" d="M70.28,163.39a3.32,3.32,0,0,1,1.79,1.85,3.65,3.65,0,0,1-3.25,5c-1.06.09-2.13,0-3.2,0s-2.23,0-3.34,0c-.36,0-.49-.12-.48-.48,0-.63,0-1.25,0-1.88,0-.29.09-.44.4-.41h.07c.92,0,.92,0,.92-1q0-2.78,0-5.57c0-.57,0-.57-.57-.58h-.28c-.52,0-.53,0-.53-.54s0-1.11,0-1.67,0-.5.51-.5H66.7c.74,0,1.48,0,2.23,0a3.09,3.09,0,0,1,2.56,4.49C71.28,162.64,71.1,162.81,70.28,163.39Zm-3.88,2.79h0c0,.35,0,.7,0,1,0,.12,0,.26.17.26a3,3,0,0,0,2-.28,1.18,1.18,0,0,0,.51-1.28A1.16,1.16,0,0,0,68,165c-.44,0-.88,0-1.32,0-.24,0-.33.11-.32.34S66.4,165.87,66.4,166.18Zm0-5c0,.35,0,.61,0,.86s0,.25.17.26a3.45,3.45,0,0,0,1.83-.19.82.82,0,0,0,.46-.79.87.87,0,0,0-.55-.81,2.24,2.24,0,0,0-.95-.16C66.24,160.37,66.41,160.25,66.4,161.2Z"/><path class="h" d="M126.6,163.41a4,4,0,0,1-1.07-2.2,3.46,3.46,0,0,1,6.68-1.66,3.07,3.07,0,0,1-.62,3c-.23.29-.5.54-.78.84a10.69,10.69,0,0,0,1.28,1.28,9.09,9.09,0,0,0,.78-1.59c.11-.22.2-.39.5-.38.77,0,1.53,0,2.3,0,.25,0,.38.08.38.36q0,1,0,2c0,.27-.11.42-.37.36-.6-.13-.83.24-1,.7-.1.28-.46.48-.35.78s.36.42.55.62.52.53.78.79.18.3,0,.46l-1.8,1.76c-.55-.37-.94-.94-1.47-1.33a5.46,5.46,0,0,1-5.42,1.13,3.53,3.53,0,0,1-1.39-6C125.9,164,126.23,163.72,126.6,163.41Zm2.19,4.34a2.15,2.15,0,0,0,1.21-.45c.18-.13.23-.28,0-.45l-1.41-1.34a.34.34,0,0,0-.49-.05,1.49,1.49,0,0,0-.57,1.53A1.18,1.18,0,0,0,128.79,167.75Zm.14-6a1.79,1.79,0,0,0,.52-.62,1,1,0,0,0,.1-.8.59.59,0,0,0-1.15-.08,1,1,0,0,0,.06.87A1.89,1.89,0,0,0,128.93,161.73Z"/><path class="i" d="M81.22,170.26c-.16-.23,0-.46-.14-.65s-.21,0-.3.08A3.5,3.5,0,0,1,77,170,3.38,3.38,0,0,1,75,166.88c0-1,0-1.9,0-2.86,0-.56,0-.58-.56-.66-.24,0-.31-.14-.31-.36,0-.65,0-1.3,0-1.95,0-.32.16-.38.43-.38,1,0,2,0,3,0,.3,0,.41.11.4.4,0,.81,0,1.62,0,2.44s0,1.62,0,2.44a3,3,0,0,0,.09.83,1.29,1.29,0,0,0,1.35,1,1.28,1.28,0,0,0,1.36-1,2.45,2.45,0,0,0,.09-.76c0-.74,0-1.49,0-2.23,0-.31-.07-.46-.42-.46-.66,0-.66,0-.66-.71s0-1.07,0-1.6c0-.26.11-.37.37-.37,1.09,0,2.18,0,3.27,0,.41,0,.36.27.36.52q0,2.23,0,4.46c0,.35,0,.7,0,1a1.67,1.67,0,0,0,0,.68c.12.24.42.1.64.12s.3.09.3.29c0,.72,0,1.44,0,2.16,0,.25-.13.32-.35.32Z"/><path class="h" d="M103.28,166.8a2,2,0,0,0,1.48,1.24,2.1,2.1,0,0,0,1.74-.27,1.87,1.87,0,0,1,1.18-.31c.73,0,1.47,0,2.28,0a4.39,4.39,0,0,1-1.71,2.23,5,5,0,0,1-5.23.3,4.79,4.79,0,0,1-2.73-4.31,5.09,5.09,0,0,1,3.62-5,5,5,0,0,1,5.68,2.19,5.23,5.23,0,0,1,.82,3.25c0,.57,0,.58-.62.58H104A1.64,1.64,0,0,0,103.28,166.8Zm.05-2.4s0,.06.05.06l3.73,0c.3,0,.33-.11.14-.4a2.37,2.37,0,0,0-3.71-.15C103.44,164.07,103.26,164.19,103.33,164.4Z"/><path class="i" d="M96,170.27c-.7,0-1.39,0-2.09,0-.33,0-.45-.11-.44-.44,0-.63,0-1.25,0-1.88,0-.32.08-.45.43-.46.51,0,.51,0,.51-.55,0-1,0-2.09,0-3.13,0-.33-.1-.48-.43-.44s-.54-.11-.52-.51c0-.58,0-1.16,0-1.74,0-.33.1-.44.44-.45.58,0,.57,0,.65-.6a3.29,3.29,0,0,1,3.67-2.93c.28,0,.35.13.35.39,0,.56,0,1.11,0,1.67,0,.32,0,.52-.44.53a.67.67,0,0,0-.68.59c0,.21,0,.37.26.36H98c.26,0,.38.1.37.36,0,.65,0,1.3,0,1.95,0,.27-.1.39-.36.37h-.28c-.29,0-.42.09-.42.4,0,1.11,0,2.23,0,3.34,0,.3.11.42.4.4h.35c.24,0,.33.1.33.33,0,.7,0,1.39,0,2.09,0,.29-.14.35-.39.35Z"/><path class="i" d="M90.6,160.62a1,1,0,0,0,.2.05c.78.06.78.05.78.8,0,.49,0,1,0,1.46s-.13.43-.45.44c-.61,0-.61,0-.61.67,0,1,0,2,0,2.93,0,.5,0,.5.48.52s.59,0,.59.63,0,1.16,0,1.74c0,.3-.11.4-.41.4-1.39,0-2.79,0-4.18,0-.35,0-.44-.13-.43-.45q0-.94,0-1.88c0-.33.1-.44.44-.45.52,0,.52,0,.53-.54q0-1.53,0-3.06c0-.48,0-.51-.49-.51s-.48-.13-.47-.49c0-.6,0-1.21,0-1.81,0-.3.11-.4.41-.41.61,0,.6,0,.69-.64a3.29,3.29,0,0,1,3.64-2.9c.28,0,.36.13.35.38,0,.6,0,1.21,0,1.81,0,.26-.1.33-.36.39C90.69,159.86,90.66,159.93,90.6,160.62Z"/><path class="j" d="M113.47,166.81c0-1,0-2,0-3,0-.33-.1-.44-.43-.46-.93,0-.93-.05-.93-1,0-.44,0-.88,0-1.32,0-.27.11-.36.38-.37s.66.14.86-.1.06-.58.07-.88q0-.83,0-1.67c0-.26.1-.38.36-.38H116c.28,0,.35.14.35.39,0,.72,0,1.44,0,2.16,0,.34.06.49.45.5,1,0,1,0,1,1,0,.42,0,.84,0,1.25s-.07.43-.38.43-.61-.13-.8.08-.07.58-.08.87c0,.88,0,1.76,0,2.64,0,.5,0,.5.47.53s.54,0,.54.54,0,1.21,0,1.81c0,.29-.08.42-.39.42q-1.64,0-3.27,0c-.3,0-.41-.1-.41-.4C113.48,168.85,113.47,167.83,113.47,166.81Z"/><path class="i" d="M183.16,162.62c0,1.44,0,2.88,0,4.32,0,.53,0,.55.51.55s.5.1.49.47c0,.63,0,1.25,0,1.88,0,.31-.07.46-.42.46-1.39,0-2.79,0-4.18,0-.29,0-.41-.1-.41-.4q0-1,0-2c0-.32.14-.41.42-.39a3.62,3.62,0,0,0,.42,0,.23.23,0,0,0,.25-.26c0-.12,0-.23,0-.35q0-2.93,0-5.85c0-.61,0-.63-.58-.63s-.5-.13-.5-.51c0-.6,0-1.21,0-1.81,0-.28.05-.44.38-.44h3.27c.33,0,.37.18.37.45,0,1.51,0,3,0,4.53Z"/><path class="i" d="M161.15,161.62c.24-.05.37-.26.55-.4a3.42,3.42,0,0,1,1.65-.7c.24,0,.4,0,.4.32q0,1.15,0,2.3c0,.24-.11.33-.33.35l-.34.06a2.2,2.2,0,0,0-1.79,2.11c0,.37,0,.74,0,1.11,0,.63,0,.65.62.72.25,0,.32.14.31.36q0,1,0,2.09c0,.23-.11.32-.34.32h-4.25c-.26,0-.38-.08-.38-.36,0-.67,0-1.35,0-2,0-.31.12-.39.41-.4.56,0,.56,0,.56-.57q0-1.5,0-3c0-.51,0-.53-.53-.55-.32,0-.46-.09-.45-.44,0-.63,0-1.25,0-1.88,0-.26.08-.38.36-.38h3.14c.24,0,.32.1.33.33S161,161.43,161.15,161.62Z"/><path class="k" d="M176.38,162.62q0,2.16,0,4.32c0,.53,0,.55.51.55s.5.11.48.47c0,.63,0,1.25,0,1.88,0,.31-.06.46-.42.46-1.39,0-2.79,0-4.18,0-.27,0-.37-.1-.36-.36,0-.7,0-1.39,0-2.09,0-.28.12-.37.38-.35H173c.38.05.46-.13.45-.48,0-2,0-4.09,0-6.13,0-.48,0-.48-.5-.51s-.53,0-.53-.53,0-1.21,0-1.81c0-.3.11-.41.41-.4,1,0,2.09,0,3.13,0,.35,0,.43.14.43.45,0,1.51,0,3,0,4.53Z"/><path class="j" d="M169.53,164.13c0,1,0,1.9,0,2.85,0,.49,0,.49.49.51s.58,0,.59.57,0,1.16,0,1.74c0,.31-.09.46-.43.46q-2.09,0-4.18,0c-.3,0-.41-.1-.41-.4,0-.65,0-1.3,0-1.95,0-.28.07-.41.39-.43.68,0,.68,0,.68-.74,0-1,0-1.9,0-2.85,0-.49,0-.49-.49-.53s-.57,0-.57-.59,0-1.16,0-1.74c0-.27.11-.37.37-.37,1,0,2.09,0,3.13,0,.36,0,.43.16.43.46C169.53,162.14,169.53,163.13,169.53,164.13Z"/><path class="j" d="M168.12,157.65c.32,0,.65,0,1,0s.34.08.34.32q0,1,0,2c0,.21-.11.28-.3.28H167c-.24,0-.32-.1-.32-.34,0-.65,0-1.29,0-1.94,0-.23.11-.33.34-.33h1.11Z"/><path class="l" d="M215.69,114.84a2,2,0,0,1-2.05,2.06,2.07,2.07,0,0,1-2.12-2.11,2.05,2.05,0,0,1,2.13-2A2,2,0,0,1,215.69,114.84Zm-2-1.73a1.68,1.68,0,0,0-1.78,1.72,1.75,1.75,0,0,0,1.76,1.77,1.73,1.73,0,0,0,1.7-1.75A1.66,1.66,0,0,0,213.67,113.11Z"/><path class="l" d="M213,114a.52.52,0,0,1-.36-.17,2.57,2.57,0,0,1,1.46,0,.42.42,0,0,1,.22.71c-.37.36-.13.66.08.85s.26.17.12.32a.32.32,0,0,1-.53,0c-.12-.15-.09-.35-.15-.53s-.28-.34-.54-.18v-.31c.57,0,.73-.11.67-.42s-.41-.23-.66-.22S213.11,113.84,213,114Z"/><path class="j" d="M213,114c.11-.13.22-.13.33,0v1c0,.28-.09.59.25.79a1.38,1.38,0,0,1-.77,0C213.2,115.18,212.94,114.56,213,114Z"/></svg>