<svg xmlns="http://www.w3.org/2000/svg" viewBox="0 0 250 250"><title>Grocery</title><path d="M37,150.34V100.27a2.2,2.2,0,0,0,.08-.27,6.46,6.46,0,0,1,3-4.46,7.52,7.52,0,0,1,2.64-1H211.31a1.47,1.47,0,0,0,.22.07A6.44,6.44,0,0,1,216,97.56a7.53,7.53,0,0,1,1,2.71v50.07a1.11,1.11,0,0,0-.08.21,6.47,6.47,0,0,1-6.42,5.4H43.54a6.38,6.38,0,0,1-5.38-2.76A7.61,7.61,0,0,1,37,150.34Zm125.29-19.17c-.06-.06-.09-.08-.09-.1a11.51,11.51,0,0,0-6-7.84,17.24,17.24,0,0,0-12.8-1.58c-5.29,1.3-8.92,4.52-10.47,9.86,0,.07-.06.1-.14.08s-.05-.3-.09-.45a11.77,11.77,0,0,0-6.72-8.3,17.69,17.69,0,0,0-10.33-1.53,14.37,14.37,0,0,0-9.1,4.56,13.08,13.08,0,0,0-3.22,12.21,11.47,11.47,0,0,0,6.86,8.06,17.63,17.63,0,0,0,12.52.79c4.92-1.4,8.35-4.43,9.77-9.47,0-.07,0-.15.14-.15.06.26.1.53.17.79a11.94,11.94,0,0,0,7.53,8.33,18.07,18.07,0,0,0,12.46.34,13.53,13.53,0,0,0,7.71-5.84,14,14,0,0,0,1.42-3.21,14.9,14.9,0,0,0,1.36,4,10,10,0,0,0,8.46,5.78,14.06,14.06,0,0,0,8.94-2.37c.69-.45,1.34-1,2-1.52,0,.36,0,.64,0,.92a11.29,11.29,0,0,0,.18,2.31.71.71,0,0,0,.82.6,5.55,5.55,0,0,0,1.25-.26,43.34,43.34,0,0,1,6.75-1.41c.12,0,.24-.11.33.06a1.92,1.92,0,0,0,1.28.82,25.41,25.41,0,0,0,6.43,1,16.65,16.65,0,0,0,7.73-1.19c3.91-1.7,5.36-4.78,4.89-8.61a6.67,6.67,0,0,0-3.43-5.06,30,30,0,0,0-5.93-2.44,23.83,23.83,0,0,1-4.17-1.63,2.88,2.88,0,0,1-1.43-1.63,2.83,2.83,0,0,1,2.06-3.75,7.71,7.71,0,0,1,6.37.87,9.28,9.28,0,0,1,2.73,2.92,3.81,3.81,0,0,0,.81,1,1,1,0,0,0,1,.06c.31-.14.24-.45.22-.71-.13-1.54-.28-3.08-.41-4.62a.66.66,0,0,0-.36-.57,4.33,4.33,0,0,0-1-.37,25.46,25.46,0,0,0-3-.53,18.07,18.07,0,0,0-7.33.34,9.59,9.59,0,0,0-3.9,2c-2,1.76-2.51,4.06-2.24,6.61a5.54,5.54,0,0,0,3.15,4.48,15.93,15.93,0,0,0,1.45.69c2,.83,4.05,1.57,6,2.48a12.63,12.63,0,0,1,3.13,1.84,2.67,2.67,0,0,1,1.09,2,3.92,3.92,0,0,1-2.57,3.83,6.93,6.93,0,0,1-5.64-.33,8.51,8.51,0,0,1-3.85-4.1c-.46-.91-.89-1.85-1.31-2.77a.77.77,0,0,0-1-.47.85.85,0,0,0-.74.8c0,.41-.06.82-.07,1.23,0,1.08-.07,2.16-.1,3.28a2.35,2.35,0,0,1-1.44-1.54,5.1,5.1,0,0,1-.21-1.64q0-16.29,0-32.57c0-1.41-.44-1.67-1.72-1a30.3,30.3,0,0,1-7.49,2.72,13.83,13.83,0,0,0-2.69.7.84.84,0,0,0-.57.89.81.81,0,0,0,.72.77,13.45,13.45,0,0,0,1.45.19,2.47,2.47,0,0,1,2.63,2.79q0,3.67,0,7.35c0,.16.05.34,0,.41a15.3,15.3,0,0,0-12.27-.15A14.64,14.64,0,0,0,162.29,131.17ZM78.89,106.32a1.63,1.63,0,0,1,.31-1.16,5.54,5.54,0,0,1,2.29-1.92c.31-.15.83-.1.89-.45s-.27-.65-.4-1-.19-.26-.42-.15a10.79,10.79,0,0,0-1.61.9,5.26,5.26,0,0,0-2.61,3.59c0,.35-.23.14-.36.07a6.43,6.43,0,0,0-4.07-.76,6.9,6.9,0,0,0-4.59,2.85,10.64,10.64,0,0,0-2,7.5A11.27,11.27,0,0,0,71.78,125a11.44,11.44,0,0,0,5.3,1.72c.18,0,.37.08.47-.18a6.58,6.58,0,0,1,3.29-3.32c1-.58,1-.56,1.49.54.1.25,0,.32-.19.39a5.27,5.27,0,0,0-1.72.87A4.25,4.25,0,0,0,79,126.71a2.18,2.18,0,0,0,.29,0,11.65,11.65,0,0,0,8.59-5.81,11.88,11.88,0,0,0,1.24-8.74,8.73,8.73,0,0,0-3.3-5.41C83.72,105.16,80.52,105.11,78.89,106.32Zm-25.52,0h-.07L53,106.2a6.55,6.55,0,0,0-4-.74A6.84,6.84,0,0,0,44.61,108a10,10,0,0,0-2.24,5.76,11.68,11.68,0,0,0,10.57,12.92c.41,0,.67,0,.79-.48a2.83,2.83,0,0,1,.65-1,8.68,8.68,0,0,1,2.47-2c1.07-.6,1.06-.6,1.54.52.09.22.08.33-.16.39a4.64,4.64,0,0,0-1.17.5,4.77,4.77,0,0,0-2,2.05,2,2,0,0,0,.27,0,11.79,11.79,0,0,0,10-13.51,9.65,9.65,0,0,0-2.19-5.25,6.69,6.69,0,0,0-3.9-2.34,5.58,5.58,0,0,0-4.32.72A1.9,1.9,0,0,1,55.4,105a5.53,5.53,0,0,1,2.78-2c.11,0,.37,0,.31-.19a7.58,7.58,0,0,0-.55-1.2c-.07-.12-.22,0-.33.06a9.94,9.94,0,0,0-2.5,1.6A4.55,4.55,0,0,0,53.38,106.35Zm12.08,29.94a11,11,0,0,0-.2-2.23,8.8,8.8,0,0,0-3.56-6,5.87,5.87,0,0,0-7,0,.73.73,0,0,1-1.1,0,2.31,2.31,0,0,0-.24-.16,5.9,5.9,0,0,0-4-1,6.77,6.77,0,0,0-5.12,3,11,11,0,0,0-1.86,8.28,11.57,11.57,0,0,0,23-1.9Zm23.95-.43c0-.49-.08-1-.15-1.46a9.32,9.32,0,0,0-2.74-5.62,6.05,6.05,0,0,0-7.9-.67c-.32.26-.62.33-.94,0a2.41,2.41,0,0,0-.27-.19,6,6,0,0,0-4.12-1.06,6.76,6.76,0,0,0-5.14,3.17,11.15,11.15,0,0,0-1.52,9.28,11.59,11.59,0,0,0,14.06,8.53A11.71,11.71,0,0,0,89.4,135.86Zm9.81-1.58h0c0-2.58,0-5.15,0-7.73,0-.93.27-1.18,1.19-1.18h4.88a.83.83,0,0,0,.86-.46q.71-1.57,1.39-3.15c.1-.22.15-.48-.11-.63a.61.61,0,0,0-.71.08.89.89,0,0,0-.25.28,1.64,1.64,0,0,1-1.63.82c-1.42,0-2.84,0-4.27,0h-.95c-.3,0-.45-.16-.45-.48,0-2.15,0-4.3,0-6.45a7.47,7.47,0,0,1,.26-1.87,2.78,2.78,0,0,1,2.1-2.25,3.16,3.16,0,0,1,3.31,1.11,11.84,11.84,0,0,1,1.39,2.41c.66,1.29,1.18,1.38,2.12.28a15.56,15.56,0,0,0,2.65-4.61,1.47,1.47,0,0,0-.16-1.45,5.15,5.15,0,0,0-4.36-2.25,8.6,8.6,0,0,0-3.47.85,20,20,0,0,0-8,6.51c-1.59,2.16-3,4.48-3.07,7.3,0,.54-.38.8-1.06.85s-1.36.07-2,.06a1.2,1.2,0,0,0-1,.42,3.13,3.13,0,0,0-.67,2.11c0,.38.11.54.51.53,1,0,2,0,3,0s1.41.46,1.41,1.4q0,8.2,0,16.4c0,1.33-.44,1.83-1.73,2.16a4.58,4.58,0,0,0-1.08.32.88.88,0,0,0-.45,1.08c.11.44.44.49.81.48s.57,0,.85,0a93,93,0,0,1,10-.1c1.1.06,2.21.15,3.31.1.71,0,1-.49.78-1.11a1,1,0,0,0-.64-.52,7.71,7.71,0,0,0-1.25-.27c-.31-.06-.62-.1-.93-.17a3,3,0,0,1-2.65-3.28C99.2,139.34,99.21,136.81,99.21,134.29Zm26.4-17.84c1.91,1.91,2.82,2.4,5.27,2.55a7.24,7.24,0,0,0,5.39-1.76c2.53-2.21,3-7.12-.48-9.42a7.74,7.74,0,0,0-6-1,6.39,6.39,0,0,0-5,7.42,1.57,1.57,0,0,1-.54,1.64,3.78,3.78,0,0,1-.39.34,8.66,8.66,0,0,1-6,1.26,1,1,0,0,1-1-1.05c0-.24,0-.47,0-.71q0-3.3,0-6.59c0-1.71,0-3.41,0-5.12a1.12,1.12,0,0,1,1-1.3,4.71,4.71,0,0,0,.54-.16.41.41,0,0,0,.26-.46c0-.24-.21-.25-.38-.27a2.62,2.62,0,0,0-.52,0,41.37,41.37,0,0,1-5.49,0,3.76,3.76,0,0,0-1.09,0c-.22.05-.47.11-.48.38s.24.35.45.41c.44.13.89.22,1.32.36a1.45,1.45,0,0,1,1.15,1.62q0,2.28,0,4.55c0,2.24,0,4.49,0,6.73,0,1.31-.43,1.9-1.49,2.07a.63.63,0,0,0-.18.06.46.46,0,0,0-.29.49c0,.23.24.23.41.25a4,4,0,0,0,.57,0c2.73-.14,5.46,0,8.19,0a9,9,0,0,0,2.17-.09A3.82,3.82,0,0,0,125.61,116.44Zm11.59-9.52h-.36c-.25,0-.49,0-.55.33a.5.5,0,0,0,.33.56l.35.14a1.56,1.56,0,0,1,1,.91c1.17,2.61,2.37,5.22,3.56,7.82.33.73.66,1.47,1,2.19a.58.58,0,0,0,.53.4c.27,0,.35-.23.46-.42.32-.6.64-1.2,1-1.79q1.23-2.21,2.48-4.41c.07-.12.12-.28.29-.28s.21.17.27.29c.14.28.26.57.39.86l2.37,5.2c.13.27.27.57.63.55s.4-.31.52-.55c1.12-2.34,2.19-4.71,3.4-7,.76-1.45,1-3.2,2.53-4.23.27-.19.13-.52-.21-.57a1.84,1.84,0,0,0-.47,0,8.87,8.87,0,0,1-1.89.08c-.49,0-1-.08-1.46-.08-.18,0-.39,0-.41.3a.43.43,0,0,0,.33.51,5.72,5.72,0,0,0,.6.11.89.89,0,0,1,.84,1.13,3,3,0,0,1-.15.69c-.68,1.68-1.49,3.3-2.24,4.94-.05.12-.11.29-.29.27s-.22-.17-.27-.3c-.22-.52-.43-1-.65-1.57-.53-1.28-1.08-2.55-1.59-3.84-.26-.64-.09-1,.54-1.23.22-.09.44-.18.65-.29a.37.37,0,0,0,.2-.4c0-.19-.15-.25-.32-.3a1.93,1.93,0,0,0-.71,0,19.64,19.64,0,0,1-3.07.09c-.61,0-1.23-.08-1.84-.09-.26,0-.57,0-.64.35s.18.47.45.57a3.47,3.47,0,0,1,1.82,3.15.93.93,0,0,1-.1.31c-.68,1.19-1.36,2.38-2.06,3.56-.23.39-.38.38-.55,0-.75-1.88-1.5-3.77-2.22-5.67-.32-.86-.22-1,.64-1.33.27-.1.57-.21.5-.58s-.41-.34-.69-.32A25.44,25.44,0,0,1,137.21,106.92Zm25.92,5h3.32c1,0,1.13-.18.93-1.17,0,0,0-.09,0-.13-1-3.89-6.41-5.4-9.35-2.59a7.14,7.14,0,0,0-2.11,6.17,4.87,4.87,0,0,0,2.58,4,7.35,7.35,0,0,0,8.56-1.29,2.85,2.85,0,0,0,.41-.57.37.37,0,0,0,0-.48c-.15-.16-.32-.1-.48,0-.45.26-.9.53-1.35.78a4.4,4.4,0,0,1-2.34.64,4.57,4.57,0,0,1-4.3-4.93c0-.31.14-.39.45-.39C160.63,111.94,161.88,111.93,163.13,111.93Zm4.86,4.51h0q0,.28,0,.57c0,.19,0,.38,0,.57,0,.7,0,.79.73,1a11.52,11.52,0,0,0,3.55.45,6.76,6.76,0,0,0,3.34-.88c2.16-1.26,2.31-4.89,0-6.13a14,14,0,0,0-1.63-.74,26.34,26.34,0,0,1-2.69-1,1.34,1.34,0,0,1-.88-1.51,1.42,1.42,0,0,1,1.31-1.17,3.41,3.41,0,0,1,3.54,1.48c.18.26.36.52.55.77a.42.42,0,0,0,.48.11c.2-.05.17-.23.15-.39-.06-.63-.13-1.26-.16-1.89,0-.41-.22-.57-.59-.66a11.27,11.27,0,0,0-2.52-.36,6.18,6.18,0,0,0-3.45.8,3.26,3.26,0,0,0-1.55,3.27,2.74,2.74,0,0,0,1.78,2.46c.67.3,1.37.57,2,.86a10,10,0,0,1,2.3,1.2,1.38,1.38,0,0,1,.46,1.88,1.81,1.81,0,0,1-1.14,1,3.31,3.31,0,0,1-3.82-1.55,12.17,12.17,0,0,1-.86-1.73c-.1-.23-.22-.42-.53-.34s-.32.26-.33.5C168,115.46,168,115.95,168,116.43Zm-24.69,36c0,.28,0,.57,0,.85s0,.24.2.24.19-.12.19-.25c0-.33,0-.66,0-1s.15-.58.5-.58.42.3.43.57,0,.63,0,.95c0,.13,0,.3.18.3s.2-.15.2-.29c0-.33,0-.66,0-1s.15-.53.46-.55.42.24.43.51,0,.73,0,1.09c0,.16.06.23.23.23s.18-.09.18-.22c0-.43,0-.85,0-1.28a.67.67,0,0,0-.58-.65c-.31-.05-.52.21-.76.27s-.44-.36-.78-.26-.45.24-.72,0c-.11-.09-.15.1-.15.21Q143.3,152,143.3,152.42Zm-30.86.42h-.1c-.12-.4-.25-.79-.38-1.19,0-.12,0-.29-.24-.29s-.22.15-.26.27c-.14.43-.28.86-.44,1.37-.15-.55-.28-1-.39-1.46,0-.2-.17-.21-.31-.18s-.09.19-.06.29q.22.77.46,1.53c0,.14.06.32.29.3s.22-.14.26-.28c.13-.41.28-.82.44-1.29l.41,1.3c0,.14.08.26.27.27s.23-.14.27-.27c.17-.51.34-1,.48-1.53,0-.08.25-.26,0-.33s-.29,0-.33.23C112.67,152,112.55,152.43,112.44,152.84Zm-3.24.17c-.16-.49-.27-.86-.4-1.23-.06-.16,0-.41-.29-.4s-.22.27-.28.42c-.14.36-.26.74-.42,1.21-.14-.55-.26-1-.36-1.41a.25.25,0,0,0-.34-.22c-.22.06-.06.2,0,.29.14.5.29,1,.44,1.49,0,.14,0,.32.26.34s.26-.18.32-.33a7.46,7.46,0,0,1,.44-1.16c.15.47.27.86.4,1.24,0,.11.05.25.23.25s.24-.09.29-.25c.16-.53.34-1,.5-1.57,0-.1.16-.24,0-.3s-.28,0-.33.22C109.48,152,109.35,152.46,109.19,153Zm13-1.07c.16.48.3.89.42,1.31,0,.15.09.26.27.26s.22-.15.26-.27c.16-.49.33-1,.48-1.48,0-.12.21-.29,0-.37s-.27.12-.32.3c-.11.42-.25.84-.39,1.33l-.43-1.38c0-.12-.06-.24-.23-.25s-.22.12-.27.27c-.13.42-.27.84-.4,1.26-.13-.06-.13-.18-.15-.29-.09-.35-.2-.7-.27-1.05s-.18-.2-.32-.18-.08.21-.06.29c.14.52.31,1,.46,1.54,0,.16.07.3.29.3s.22-.15.26-.28C121.91,152.82,122,152.41,122.19,151.94Zm-7.3,0c.16.49.3.91.43,1.34,0,.14.11.22.26.23s.2-.09.25-.22c.17-.52.35-1,.5-1.57,0-.09.23-.26,0-.33s-.28,0-.33.23c-.11.45-.26.89-.41,1.39-.16-.5-.3-.94-.43-1.37,0-.12-.05-.24-.22-.26s-.23.11-.27.26c-.13.42-.27.83-.45,1.37-.15-.57-.28-1-.38-1.44,0-.2-.17-.2-.31-.18s-.09.2-.06.28c.15.53.31,1.05.47,1.58,0,.13.08.27.27.27s.22-.15.27-.27C114.6,152.83,114.74,152.42,114.9,151.95Zm20.5-.4a3.09,3.09,0,0,0-.28-.13.91.91,0,0,0-1.22.57,1.17,1.17,0,0,0,.49,1.5.84.84,0,0,0,.68,0c.14-.06.29-.34.47,0,0,.07.27.06.27-.18,0-.88,0-1.76,0-2.64,0-.14,0-.24-.2-.25s-.21.09-.21.24S135.39,151.19,135.39,151.55Zm-14.93.9a1,1,0,0,0-1-1.09,1.07,1.07,0,0,0-1,1.12,1,1,0,1,0,2.07,0Zm13,0a1,1,0,0,0-1-1.08,1,1,0,0,0-1,1.11,1,1,0,0,0,1,1.11A1,1,0,0,0,133.49,152.43Zm-2.41,0a1,1,0,0,0-1-1.11,1,1,0,0,0-1,1.11,1,1,0,0,0,1,1.11A1,1,0,0,0,131.08,152.46Zm-6.06.07h0a.87.87,0,0,0,.24,0c.17-.05.43.15.51-.15a.87.87,0,0,0-.66-1,.91.91,0,0,0-1,.47,1.27,1.27,0,0,0,.16,1.45,1.32,1.32,0,0,0,1.3.18c.08,0,.14-.08.11-.17s-.12-.13-.22-.11a1.14,1.14,0,0,1-.75,0,.49.49,0,0,1-.33-.53c0-.24.29-.07.44-.11A1,1,0,0,1,125,152.53Zm17.82-.09a1,1,0,0,0-1-1.09,1.07,1.07,0,0,0-1.05,1.15,1,1,0,1,0,2.08-.05Zm-14.84.11c0,.26,0,.48,0,.7s0,.25.19.26.22-.12.21-.28c0-.38,0-.76,0-1.13,0-.21,0-.43.3-.39.13,0,.2,0,.2-.19s-.11-.13-.2-.13-.33,0-.29-.23.09-.4.34-.44.38.07.32-.19-.28-.17-.44-.14a.71.71,0,0,0-.54.41c-.11.23,0,.58-.36.67,0,0,0,.15,0,.17C128.18,151.86,127.91,152.27,128,152.55Zm8.82,1c.36,0,.7-.07.81-.47s-.1-.65-.47-.8l-.22-.1c-.13-.07-.24-.16-.2-.33s.19-.23.37-.22l.23,0c.07,0,.15.06.19-.05a.19.19,0,0,0,0-.22,1,1,0,0,0-1,.14.54.54,0,0,0,.12.85c.14.1.31.15.46.23a.32.32,0,0,1,.19.35c0,.19-.2.24-.35.26a1.11,1.11,0,0,1-.32-.07c-.1,0-.22-.1-.27.07s.08.21.2.25Zm-10.12,0c.36,0,.68-.1.77-.49a.62.62,0,0,0-.45-.77l-.26-.12c-.13-.07-.25-.16-.2-.33a.3.3,0,0,1,.33-.21,2.56,2.56,0,0,1,.32.07.11.11,0,0,0,.15-.08c0-.08,0-.17,0-.21a1,1,0,0,0-.78,0,.56.56,0,0,0-.38.5.57.57,0,0,0,.35.57c.14.08.29.13.42.2a.29.29,0,0,1,.16.31c0,.18-.16.23-.3.26a1.36,1.36,0,0,1-.32,0c-.12,0-.28-.18-.33.08s.16.2.27.24A1.17,1.17,0,0,0,126.69,153.57Zm12.16-1.1a1.05,1.05,0,0,0,1.42,1c.11,0,.26,0,.21-.24s-.17-.1-.26-.08a.72.72,0,0,1-.86-.33.81.81,0,0,1,0-.9.71.71,0,0,1,.83-.28c.1,0,.21.11.25-.08s-.07-.21-.21-.24A1.1,1.1,0,0,0,138.85,152.48Zm-20.91-.53c0-.41,0-.82,0-1.23,0-.14,0-.29-.2-.29s-.21.14-.21.29q0,1.25,0,2.5c0,.14,0,.29.2.29s.21-.14.21-.29C117.93,152.8,117.93,152.37,117.93,151.95Zm20.61,1.32c0-.15-.11-.27-.28-.26a.28.28,0,0,0,0,.56C138.47,153.55,138.52,153.41,138.54,153.27Zm-21.74.3a.26.26,0,0,0,.27-.27.24.24,0,0,0-.23-.29c-.19,0-.28.1-.28.29A.25.25,0,0,0,116.8,153.56Z" style="fill:#019a66"/><path d="M162.29,131.17a14.64,14.64,0,0,1,8.2-9,15.3,15.3,0,0,1,12.27.15c.05-.08,0-.25,0-.41q0-3.67,0-7.35a2.47,2.47,0,0,0-2.63-2.79,13.45,13.45,0,0,1-1.45-.19.81.81,0,0,1-.72-.77.84.84,0,0,1,.57-.89,13.83,13.83,0,0,1,2.69-.7,30.3,30.3,0,0,0,7.49-2.72c1.28-.67,1.72-.41,1.72,1q0,16.29,0,32.57a5.1,5.1,0,0,0,.21,1.64,2.35,2.35,0,0,0,1.44,1.54c0-1.12.06-2.2.1-3.28,0-.41,0-.82.07-1.23a.85.85,0,0,1,.74-.8.77.77,0,0,1,1,.47c.43.93.85,1.86,1.31,2.77a8.51,8.51,0,0,0,3.85,4.1,6.93,6.93,0,0,0,5.64.33,3.92,3.92,0,0,0,2.57-3.83,2.67,2.67,0,0,0-1.09-2,12.63,12.63,0,0,0-3.13-1.84c-2-.91-4-1.65-6-2.48a15.93,15.93,0,0,1-1.45-.69,5.54,5.54,0,0,1-3.15-4.48c-.27-2.55.21-4.85,2.24-6.61a9.59,9.59,0,0,1,3.9-2,18.07,18.07,0,0,1,7.33-.34,25.46,25.46,0,0,1,3,.53,4.33,4.33,0,0,1,1,.37.66.66,0,0,1,.36.57c.13,1.54.28,3.08.41,4.62,0,.26.09.57-.22.71a1,1,0,0,1-1-.06,3.81,3.81,0,0,1-.81-1,9.28,9.28,0,0,0-2.73-2.92,7.71,7.71,0,0,0-6.37-.87,2.83,2.83,0,0,0-2.06,3.75,2.88,2.88,0,0,0,1.43,1.63,23.83,23.83,0,0,0,4.17,1.63,30,30,0,0,1,5.93,2.44,6.67,6.67,0,0,1,3.43,5.06c.47,3.84-1,6.92-4.89,8.61a16.65,16.65,0,0,1-7.73,1.19,25.41,25.41,0,0,1-6.43-1,1.92,1.92,0,0,1-1.28-.82c-.09-.17-.21-.08-.33-.06a43.34,43.34,0,0,0-6.75,1.41,5.55,5.55,0,0,1-1.25.26.71.71,0,0,1-.82-.6,11.29,11.29,0,0,1-.18-2.31c0-.28,0-.56,0-.92-.71.55-1.36,1.07-2,1.52a14.06,14.06,0,0,1-8.94,2.37,10,10,0,0,1-8.46-5.78,14.9,14.9,0,0,1-1.36-4,14,14,0,0,1-1.42,3.21,13.53,13.53,0,0,1-7.71,5.84,18.07,18.07,0,0,1-12.46-.34,11.94,11.94,0,0,1-7.53-8.33c-.07-.26-.11-.52-.17-.79-.1,0-.12.09-.14.15-1.43,5-4.86,8.08-9.77,9.47a17.63,17.63,0,0,1-12.52-.79,11.47,11.47,0,0,1-6.86-8.06,13.08,13.08,0,0,1,3.22-12.21,14.37,14.37,0,0,1,9.1-4.56A17.69,17.69,0,0,1,126,122.84a11.77,11.77,0,0,1,6.72,8.3c0,.15.06.31.09.45s.12,0,.14-.08c1.55-5.35,5.18-8.56,10.47-9.86a17.24,17.24,0,0,1,12.8,1.58,11.51,11.51,0,0,1,6,7.84S162.23,131.11,162.29,131.17Zm-37.2,5.21a19.84,19.84,0,0,0-1.55-7.58,10,10,0,0,0-2.46-3.49,5.73,5.73,0,0,0-8.53,1.08,10.55,10.55,0,0,0-1.63,5.93,16.32,16.32,0,0,0,2.06,8,8.72,8.72,0,0,0,3,3.38c2.68,1.69,5.62,1.41,7.51-1.62A11.23,11.23,0,0,0,125.09,136.39Zm29.48-.46a23.38,23.38,0,0,0-.26-2.73,15.48,15.48,0,0,0-2.47-6.48,5.88,5.88,0,0,0-10.71,1.48,13.91,13.91,0,0,0,0,9.05,12.87,12.87,0,0,0,3.26,5.68,6.16,6.16,0,0,0,4.06,1.81,4.85,4.85,0,0,0,4.47-2.67A11.21,11.21,0,0,0,154.57,135.92Zm28.2-1.67h0c0-1.61,0-3.22,0-4.83a4.23,4.23,0,0,0-.16-1.12c-.76-2.84-4.55-5.73-7.84-5.48a4.44,4.44,0,0,0-4.53,4,24.48,24.48,0,0,0-.19,4.68A13.58,13.58,0,0,0,173,139.9a5.07,5.07,0,0,0,3.11,2.18,8.27,8.27,0,0,0,5.79-1.24,2,2,0,0,0,.93-1.81C182.76,137.44,182.78,135.85,182.78,134.25Z" style="fill:#fdfdfd"/><path d="M78.89,106.32c1.63-1.21,4.82-1.16,6.91.43a8.73,8.73,0,0,1,3.3,5.41,11.88,11.88,0,0,1-1.24,8.74,11.65,11.65,0,0,1-8.59,5.81,2.18,2.18,0,0,1-.29,0A4.25,4.25,0,0,1,80.42,125a5.27,5.27,0,0,1,1.72-.87c.22-.07.29-.14.19-.39-.45-1.1-.45-1.12-1.49-.54a6.58,6.58,0,0,0-3.29,3.32c-.1.26-.3.19-.47.18a11.44,11.44,0,0,1-5.3-1.72,11.27,11.27,0,0,1-5.49-9.21,10.64,10.64,0,0,1,2-7.5,6.9,6.9,0,0,1,4.59-2.85,6.43,6.43,0,0,1,4.07.76c.13.07.31.28.36-.07A5.26,5.26,0,0,1,80,102.55a10.79,10.79,0,0,1,1.61-.9c.23-.11.33-.09.42.15s.44.69.4,1-.58.3-.89.45a5.54,5.54,0,0,0-2.29,1.92A1.63,1.63,0,0,0,78.89,106.32Z" style="fill:#fddf1b"/><path d="M53.38,106.35a4.55,4.55,0,0,1,1.72-3.08,9.94,9.94,0,0,1,2.5-1.6c.11,0,.26-.19.33-.06a7.58,7.58,0,0,1,.55,1.2c.06.17-.2.16-.31.19a5.53,5.53,0,0,0-2.78,2,1.9,1.9,0,0,0-.46,1.36,5.58,5.58,0,0,1,4.32-.72,6.69,6.69,0,0,1,3.9,2.34,9.65,9.65,0,0,1,2.19,5.25,11.79,11.79,0,0,1-10,13.51,2,2,0,0,1-.27,0,4.77,4.77,0,0,1,2-2.05,4.64,4.64,0,0,1,1.17-.5c.24-.07.26-.17.16-.39-.48-1.12-.47-1.12-1.54-.52a8.68,8.68,0,0,0-2.47,2,2.83,2.83,0,0,0-.65,1c-.12.47-.38.52-.79.48A11.68,11.68,0,0,1,42.36,113.8,10,10,0,0,1,44.61,108,6.84,6.84,0,0,1,49,105.46a6.55,6.55,0,0,1,4,.74l.29.16Z" style="fill:#fefefe"/><path d="M65.45,136.29a11.57,11.57,0,0,1-23,1.9,11,11,0,0,1,1.86-8.28,6.77,6.77,0,0,1,5.12-3,5.9,5.9,0,0,1,4,1,2.31,2.31,0,0,1,.24.16.73.73,0,0,0,1.1,0,5.87,5.87,0,0,1,7,0,8.8,8.8,0,0,1,3.56,6A11,11,0,0,1,65.45,136.29Z" style="fill:#fddf1b"/><path d="M89.4,135.86a11.71,11.71,0,0,1-8.73,12,11.59,11.59,0,0,1-14.06-8.53,11.15,11.15,0,0,1,1.52-9.28,6.76,6.76,0,0,1,5.14-3.17,6,6,0,0,1,4.12,1.06,2.41,2.41,0,0,1,.27.19c.32.32.62.25.94,0a6.05,6.05,0,0,1,7.9.67,9.32,9.32,0,0,1,2.74,5.62C89.32,134.89,89.35,135.38,89.4,135.86Z" style="fill:#fefefe"/><path d="M99.21,134.29c0,2.53,0,5.06,0,7.59a3,3,0,0,0,2.65,3.28c.31.07.62.11.93.17a7.71,7.71,0,0,1,1.25.27,1,1,0,0,1,.64.52c.26.62-.06,1.08-.78,1.11-1.11,0-2.21,0-3.31-.1a93,93,0,0,0-10,.1c-.28,0-.57,0-.85,0s-.7,0-.81-.48a.88.88,0,0,1,.45-1.08,4.58,4.58,0,0,1,1.08-.32c1.29-.32,1.73-.82,1.73-2.16q0-8.2,0-16.4c0-.94-.37-1.45-1.41-1.4s-2,0-3,0c-.41,0-.53-.15-.51-.53a3.13,3.13,0,0,1,.67-2.11,1.2,1.2,0,0,1,1-.42c.68,0,1.36,0,2-.06s1-.31,1.06-.85c.12-2.82,1.48-5.14,3.07-7.3a20,20,0,0,1,8-6.51,8.6,8.6,0,0,1,3.47-.85,5.15,5.15,0,0,1,4.36,2.25,1.47,1.47,0,0,1,.16,1.45,15.56,15.56,0,0,1-2.65,4.61c-.94,1.1-1.46,1-2.12-.28a11.84,11.84,0,0,0-1.39-2.41,3.16,3.16,0,0,0-3.31-1.11,2.78,2.78,0,0,0-2.1,2.25,7.47,7.47,0,0,0-.26,1.87c0,2.15,0,4.3,0,6.45,0,.32.15.47.45.48h.95c1.42,0,2.85,0,4.27,0a1.64,1.64,0,0,0,1.63-.82.89.89,0,0,1,.25-.28.61.61,0,0,1,.71-.08c.26.16.21.41.11.63q-.69,1.58-1.39,3.15a.83.83,0,0,1-.86.46h-4.88c-.92,0-1.19.25-1.19,1.18,0,2.58,0,5.15,0,7.73Z" style="fill:#fdfdfd"/><path d="M125.61,116.44a3.82,3.82,0,0,1-2.61,2.27,9,9,0,0,1-2.17.09c-2.73,0-5.46-.15-8.19,0a4,4,0,0,1-.57,0c-.17,0-.37,0-.41-.25A.46.46,0,0,1,112,118a.63.63,0,0,1,.18-.06c1.06-.17,1.48-.77,1.49-2.07,0-2.24,0-4.49,0-6.73q0-2.28,0-4.55a1.45,1.45,0,0,0-1.15-1.62c-.43-.15-.88-.23-1.32-.36-.21-.06-.46-.15-.45-.41s.26-.33.48-.38a3.76,3.76,0,0,1,1.09,0,41.37,41.37,0,0,0,5.49,0,2.62,2.62,0,0,1,.52,0c.17,0,.36,0,.38.27a.41.41,0,0,1-.26.46,4.71,4.71,0,0,1-.54.16,1.12,1.12,0,0,0-1,1.3c0,1.71,0,3.41,0,5.12q0,3.3,0,6.59c0,.24,0,.47,0,.71a1,1,0,0,0,1,1.05,8.66,8.66,0,0,0,6-1.26,3.78,3.78,0,0,0,.39-.34,1.57,1.57,0,0,0,.54-1.64,6.39,6.39,0,0,1,5-7.42,7.74,7.74,0,0,1,6,1c3.5,2.3,3,7.21.48,9.42a7.24,7.24,0,0,1-5.39,1.76C128.43,118.85,127.53,118.36,125.61,116.44Zm9.57-1.62a9.87,9.87,0,0,0-.13-2.07,7.86,7.86,0,0,0-1.69-4.15,3.14,3.14,0,0,0-3.27-.95,2.6,2.6,0,0,0-2,2.18,8.53,8.53,0,0,0,.72,5.89,4.28,4.28,0,0,0,1.65,1.85,3.26,3.26,0,0,0,4-.5A3.54,3.54,0,0,0,135.18,114.82Z" style="fill:#fbfcfb"/><path d="M137.21,106.92a25.44,25.44,0,0,0,4.84,0c.28,0,.61-.07.69.32s-.23.48-.5.58c-.86.34-1,.47-.64,1.33.71,1.9,1.47,3.78,2.22,5.67.17.43.32.44.55,0,.7-1.18,1.38-2.37,2.06-3.56a.93.93,0,0,0,.1-.31,3.47,3.47,0,0,0-1.82-3.15c-.26-.1-.51-.23-.45-.57s.37-.35.64-.35c.61,0,1.23.05,1.84.09a19.64,19.64,0,0,0,3.07-.09,1.93,1.93,0,0,1,.71,0c.17,0,.3.11.32.3a.37.37,0,0,1-.2.4c-.21.11-.43.19-.65.29-.63.26-.8.59-.54,1.23.51,1.29,1.06,2.56,1.59,3.84.22.52.43,1,.65,1.57.05.13.11.28.27.3s.24-.15.29-.27c.76-1.64,1.56-3.27,2.24-4.94a3,3,0,0,0,.15-.69.89.89,0,0,0-.84-1.13,5.72,5.72,0,0,1-.6-.11.43.43,0,0,1-.33-.51c0-.26.23-.31.41-.3.49,0,1,0,1.46.08a8.87,8.87,0,0,0,1.89-.08,1.84,1.84,0,0,1,.47,0c.34,0,.49.38.21.57-1.5,1-1.77,2.78-2.53,4.23-1.21,2.3-2.28,4.67-3.4,7-.12.24-.2.54-.52.55s-.5-.28-.63-.55l-2.37-5.2c-.13-.29-.26-.57-.39-.86-.06-.12-.09-.29-.27-.29s-.22.17-.29.28q-1.24,2.2-2.48,4.41c-.33.59-.65,1.19-1,1.79-.1.2-.19.41-.46.42a.58.58,0,0,1-.53-.4c-.35-.72-.67-1.46-1-2.19-1.19-2.61-2.39-5.21-3.56-7.82a1.56,1.56,0,0,0-1-.91l-.35-.14a.5.5,0,0,1-.33-.56c.06-.3.3-.33.55-.33Z" style="fill:#fbfcfb"/><path d="M163.13,111.93c-1.25,0-2.5,0-3.74,0-.3,0-.42.08-.45.39a4.57,4.57,0,0,0,4.3,4.93,4.4,4.4,0,0,0,2.34-.64c.46-.25.9-.52,1.35-.78.16-.09.33-.14.48,0a.37.37,0,0,1,0,.48,2.85,2.85,0,0,1-.41.57,7.35,7.35,0,0,1-8.56,1.29,4.87,4.87,0,0,1-2.58-4A7.14,7.14,0,0,1,158,108c2.94-2.81,8.35-1.3,9.35,2.59,0,0,0,.09,0,.13.2,1,.06,1.17-.93,1.17h-3.32Zm-1.66-1c.69,0,1.39,0,2.08,0,.43,0,.55-.19.58-.55a2.77,2.77,0,0,0-3.37-2.83,2.87,2.87,0,0,0-1.85,3.15c.06.25.21.23.38.23Z" style="fill:#fbfcfb"/><path d="M168,116.43c0-.49,0-1,.06-1.47,0-.24.06-.43.33-.5s.43.12.53.34a12.17,12.17,0,0,0,.86,1.73,3.31,3.31,0,0,0,3.82,1.55,1.81,1.81,0,0,0,1.14-1,1.38,1.38,0,0,0-.46-1.88A10,10,0,0,0,172,114c-.68-.29-1.37-.56-2-.86a2.74,2.74,0,0,1-1.78-2.46,3.26,3.26,0,0,1,1.55-3.27,6.18,6.18,0,0,1,3.45-.8,11.27,11.27,0,0,1,2.52.36c.36.09.57.25.59.66,0,.63.1,1.26.16,1.89,0,.16.05.34-.15.39a.42.42,0,0,1-.48-.11c-.19-.25-.37-.51-.55-.77a3.41,3.41,0,0,0-3.54-1.48,1.42,1.42,0,0,0-1.31,1.17,1.34,1.34,0,0,0,.88,1.51,26.34,26.34,0,0,0,2.69,1,14,14,0,0,1,1.63.74c2.31,1.24,2.17,4.87,0,6.13a6.76,6.76,0,0,1-3.34.88,11.52,11.52,0,0,1-3.55-.45c-.69-.21-.74-.29-.73-1,0-.19,0-.38,0-.57s0-.38,0-.57Z" style="fill:#fbfcfb"/><path d="M143.3,152.42c0-.27,0-.54,0-.81,0-.11,0-.3.15-.21.27.21.49,0,.72,0s.57.3.78.26.45-.32.76-.27a.67.67,0,0,1,.58.65c0,.42,0,.85,0,1.28,0,.13,0,.21-.18.22s-.23-.07-.23-.23c0-.36,0-.73,0-1.09s-.11-.53-.43-.51-.46.23-.46.55,0,.66,0,1c0,.14,0,.29-.2.29s-.18-.17-.18-.3c0-.32,0-.63,0-.95s-.08-.57-.43-.57-.49.26-.5.58,0,.66,0,1c0,.13,0,.25-.19.25s-.2-.1-.2-.24S143.3,152.7,143.3,152.42Z" style="fill:#fbfcfb"/><path d="M112.44,152.84c.11-.41.24-.81.34-1.22,0-.19.15-.28.33-.23s0,.25,0,.33c-.14.52-.31,1-.48,1.53,0,.13-.07.27-.27.27s-.23-.13-.27-.27l-.41-1.3c-.16.47-.31.88-.44,1.29,0,.14-.07.27-.26.28s-.25-.16-.29-.3q-.24-.76-.46-1.53c0-.1-.17-.25.06-.29s.27,0,.31.18c.11.46.24.91.39,1.46.16-.51.3-.94.44-1.37,0-.13.06-.27.26-.27s.2.16.24.29c.13.39.25.79.38,1.19Z" style="fill:#fbfcfb"/><path d="M109.19,153c.16-.56.28-1,.39-1.4,0-.19.15-.28.33-.22s.06.2,0,.3c-.16.53-.34,1-.5,1.57,0,.15-.11.25-.29.25s-.2-.13-.23-.25c-.13-.39-.25-.78-.4-1.24a7.46,7.46,0,0,0-.44,1.16c-.06.15-.07.35-.32.33s-.22-.21-.26-.34c-.16-.49-.3-1-.44-1.49,0-.1-.18-.23,0-.29a.25.25,0,0,1,.34.22c.1.43.22.85.36,1.41.16-.47.27-.85.42-1.21.06-.15,0-.41.28-.42s.24.24.29.4C108.92,152.15,109,152.52,109.19,153Z" style="fill:#fbfcfb"/><path d="M122.19,151.94c-.15.46-.29.88-.43,1.29,0,.13-.06.28-.26.28s-.25-.15-.29-.3c-.15-.51-.32-1-.46-1.54,0-.08-.19-.25.06-.29s.27,0,.32.18.18.7.27,1.05c0,.11,0,.22.15.29.14-.42.28-.84.4-1.26,0-.14.07-.27.27-.27s.19.13.23.25l.43,1.38c.14-.48.28-.9.39-1.33,0-.18.08-.37.32-.3s.07.25,0,.37c-.15.5-.31,1-.48,1.48,0,.13-.06.28-.26.27s-.23-.11-.27-.26C122.49,152.83,122.35,152.42,122.19,151.94Z" style="fill:#fbfcfb"/><path d="M114.9,151.95c-.16.47-.29.88-.44,1.3,0,.13-.07.27-.27.27s-.23-.14-.27-.27c-.16-.53-.33-1-.47-1.58,0-.08-.19-.25.06-.28s.27,0,.31.18c.1.44.23.87.38,1.44.18-.54.32-1,.45-1.37,0-.14.08-.27.27-.26s.19.13.22.26c.13.44.27.87.43,1.37.15-.5.3-.94.41-1.39,0-.21.15-.28.33-.23s.05.24,0,.33c-.15.53-.34,1-.5,1.57,0,.13-.08.23-.25.22s-.22-.09-.26-.23C115.19,152.86,115.05,152.43,114.9,151.95Z" style="fill:#fbfcfb"/><path d="M135.39,151.55c0-.35,0-.62,0-.88s0-.24.21-.24.2.11.2.25c0,.88,0,1.76,0,2.64,0,.24-.23.24-.27.18-.18-.34-.33-.06-.47,0a.84.84,0,0,1-.68,0,1.17,1.17,0,0,1-.49-1.5.91.91,0,0,1,1.22-.57A3.09,3.09,0,0,1,135.39,151.55Zm0,.93c0-.51-.2-.81-.58-.81s-.6.32-.62.75.24.81.6.81S135.39,153,135.4,152.48Z" style="fill:#fbfcfb"/><path d="M120.46,152.44a1,1,0,1,1-2.07,0,1.07,1.07,0,0,1,1-1.12A1,1,0,0,1,120.46,152.44Zm-1.64,0c0,.46.29.82.63.8a.78.78,0,0,0,.61-.83c0-.46-.28-.78-.65-.77S118.81,152,118.82,152.47Z" style="fill:#fbfcfb"/><path d="M133.49,152.43a1,1,0,0,1-1.05,1.14,1,1,0,0,1-1-1.11,1,1,0,0,1,1-1.11A1,1,0,0,1,133.49,152.43Zm-.42,0c0-.48-.25-.79-.62-.79s-.61.32-.61.8.27.82.62.81A.74.74,0,0,0,133.06,152.45Z" style="fill:#fbfcfb"/><path d="M131.08,152.46a1,1,0,0,1-1,1.11,1,1,0,0,1-1-1.11,1,1,0,0,1,1-1.11A1,1,0,0,1,131.08,152.46Zm-1.64,0c0,.45.3.81.64.79a.77.77,0,0,0,.6-.84c0-.46-.28-.78-.65-.77S129.44,152,129.44,152.48Z" style="fill:#fbfcfb"/><path d="M125,152.53a1,1,0,0,0-.24,0c-.15,0-.39-.13-.44.11a.49.49,0,0,0,.33.53,1.14,1.14,0,0,0,.75,0c.1,0,.19,0,.22.11s0,.13-.11.17a1.32,1.32,0,0,1-1.3-.18,1.27,1.27,0,0,1-.16-1.45.91.91,0,0,1,1-.47.87.87,0,0,1,.66,1c-.08.31-.34.1-.51.15a.87.87,0,0,1-.24,0Zm-.15-.26c.15-.15.49.17.5-.21s-.2-.41-.49-.4-.52.19-.51.45S124.7,152.15,124.86,152.27Z" style="fill:#fbfcfb"/><path d="M142.83,152.44a1,1,0,1,1-2.08.05,1.07,1.07,0,0,1,1.05-1.15A1,1,0,0,1,142.83,152.44Zm-1.67,0a.75.75,0,0,0,.63.81c.33,0,.62-.38.62-.82s-.26-.79-.63-.79S141.16,152,141.17,152.46Z" style="fill:#fbfcfb"/><path d="M128,152.55c-.08-.28.19-.69-.25-.92,0,0,0-.17,0-.17.37-.09.26-.44.36-.67a.71.71,0,0,1,.54-.41c.16,0,.39-.08.44.14s-.19.17-.32.19-.31.23-.34.44.13.23.29.23.19,0,.2.13-.06.21-.2.19c-.32,0-.3.18-.3.39,0,.38,0,.76,0,1.13,0,.15,0,.29-.21.28s-.19-.12-.19-.26S128,152.81,128,152.55Z" style="fill:#fbfcfb"/><path d="M136.81,153.57l-.3-.06c-.13,0-.26-.07-.2-.25s.17-.09.27-.07a1.11,1.11,0,0,0,.32.07c.16,0,.32-.06.35-.26a.32.32,0,0,0-.19-.35c-.15-.09-.32-.14-.46-.23a.54.54,0,0,1-.12-.85,1,1,0,0,1,1-.14.19.19,0,0,1,0,.22c0,.11-.11.07-.19.05l-.23,0c-.17,0-.32,0-.37.22s.07.26.2.33l.22.1c.36.15.58.38.47.8S137.17,153.54,136.81,153.57Z" style="fill:#fbfcfb"/><path d="M126.69,153.57a1.17,1.17,0,0,1-.27,0c-.12,0-.32,0-.27-.24s.22-.08.33-.08a1.36,1.36,0,0,0,.32,0c.13,0,.27-.08.3-.26a.29.29,0,0,0-.16-.31c-.14-.07-.29-.13-.42-.2a.57.57,0,0,1-.35-.57.56.56,0,0,1,.38-.5,1,1,0,0,1,.78,0c.08,0,.08.13,0,.21a.11.11,0,0,1-.15.08,2.56,2.56,0,0,0-.32-.07.3.3,0,0,0-.33.21c-.06.17.07.26.2.33l.26.12a.62.62,0,0,1,.45.77C127.36,153.47,127,153.55,126.69,153.57Z" style="fill:#fbfcfb"/><path d="M138.85,152.48a1.1,1.1,0,0,1,1.41-1.1c.14,0,.24.06.21.24s-.14.1-.25.08a.71.71,0,0,0-.83.28.81.81,0,0,0,0,.9.72.72,0,0,0,.86.33c.09,0,.21-.1.26.08s-.1.2-.21.24A1.05,1.05,0,0,1,138.85,152.48Z" style="fill:#fbfcfb"/><path d="M117.93,151.95c0,.43,0,.85,0,1.28,0,.15,0,.29-.21.29s-.2-.15-.2-.29q0-1.25,0-2.5c0-.15,0-.29.21-.29s.2.15.2.29C117.94,151.13,117.93,151.54,117.93,151.95Z" style="fill:#fbfcfb"/><path d="M138.54,153.27c0,.14-.08.28-.25.29a.28.28,0,0,1,0-.56C138.44,153,138.5,153.11,138.54,153.27Z" style="fill:#fbfcfb"/><path d="M116.8,153.56a.25.25,0,0,1-.24-.27c0-.19.09-.3.28-.29a.24.24,0,0,1,.23.29A.26.26,0,0,1,116.8,153.56Z" style="fill:#fbfcfb"/><path d="M125.09,136.39a11.23,11.23,0,0,1-1.63,5.71c-1.89,3-4.82,3.31-7.51,1.62a8.72,8.72,0,0,1-3-3.38,16.32,16.32,0,0,1-2.06-8,10.55,10.55,0,0,1,1.63-5.93,5.73,5.73,0,0,1,8.53-1.08,10,10,0,0,1,2.46,3.49A19.84,19.84,0,0,1,125.09,136.39Z" style="fill:#019a66"/><path d="M154.57,135.92a11.21,11.21,0,0,1-1.61,6.14,4.85,4.85,0,0,1-4.47,2.67,6.16,6.16,0,0,1-4.06-1.81,12.87,12.87,0,0,1-3.26-5.68,13.91,13.91,0,0,1,0-9.05,5.88,5.88,0,0,1,10.71-1.48,15.48,15.48,0,0,1,2.47,6.48A23.38,23.38,0,0,1,154.57,135.92Z" style="fill:#019a66"/><path d="M182.78,134.25c0,1.6,0,3.19,0,4.79a2,2,0,0,1-.93,1.81,8.27,8.27,0,0,1-5.79,1.24A5.07,5.07,0,0,1,173,139.9a13.58,13.58,0,0,1-2.93-8.42,24.48,24.48,0,0,1,.19-4.68,4.44,4.44,0,0,1,4.53-4c3.28-.24,7.08,2.65,7.84,5.48a4.23,4.23,0,0,1,.16,1.12c0,1.61,0,3.22,0,4.83Z" style="fill:#019a66"/><path d="M135.18,114.82a3.54,3.54,0,0,1-.73,2.25,3.26,3.26,0,0,1-4,.5,4.28,4.28,0,0,1-1.65-1.85,8.53,8.53,0,0,1-.72-5.89,2.6,2.6,0,0,1,2-2.18,3.14,3.14,0,0,1,3.27.95,7.86,7.86,0,0,1,1.69,4.15A9.87,9.87,0,0,1,135.18,114.82Z" style="fill:#019a66"/><path d="M161.47,110.91h-2.18c-.17,0-.33,0-.38-.23a2.87,2.87,0,0,1,1.85-3.15,2.77,2.77,0,0,1,3.37,2.83c0,.37-.15.57-.58.55C162.86,110.88,162.16,110.91,161.47,110.91Z" style="fill:#019a66"/><path d="M135.4,152.48c0,.5-.22.76-.59.76s-.62-.35-.6-.81.27-.75.62-.75S135.41,152,135.4,152.48Z" style="fill:#019a66"/><path d="M118.82,152.47c0-.5.21-.8.59-.81s.65.31.65.77a.78.78,0,0,1-.61.83C119.11,153.29,118.83,152.93,118.82,152.47Z" style="fill:#019a66"/><path d="M133.06,152.45a.74.74,0,0,1-.61.82c-.34,0-.62-.35-.62-.81s.24-.8.61-.8S133.06,152,133.06,152.45Z" style="fill:#019a66"/><path d="M129.44,152.48c0-.49.22-.8.59-.82s.64.31.65.77a.77.77,0,0,1-.6.84C129.74,153.29,129.45,152.93,129.44,152.48Z" style="fill:#019a66"/><path d="M124.86,152.27c-.16-.12-.48.14-.5-.17s.21-.44.51-.45.49.15.49.4S125,152.12,124.86,152.27Z" style="fill:#019a66"/><path d="M141.17,152.46c0-.47.24-.79.62-.8s.63.32.63.79-.29.82-.62.82A.75.75,0,0,1,141.17,152.46Z" style="fill:#019a66"/></svg>