<svg xmlns="http://www.w3.org/2000/svg" viewBox="0 0 250 250"><title>Grocery</title><path d="M35.66,161.74V88.92c.16-.08.1-.24.13-.36a7.39,7.39,0,0,1,5.06-5.65,14.58,14.58,0,0,1,1.48-.35H209.2c0,.08.09.08.16.09a7.35,7.35,0,0,1,6.05,5.41,3.69,3.69,0,0,0,.25,1v72.72c-.19.13-.13.34-.17.51a7.4,7.4,0,0,1-5.34,5.6,4.1,4.1,0,0,0-1,.25H42c-.06-.15-.2-.09-.31-.12a7.42,7.42,0,0,1-5.8-5.38C35.82,162.32,35.85,162,35.66,161.74ZM125.71,87.5H47.82a7,7,0,0,0-7.22,7.22q0,30.62,0,61.23a7,7,0,0,0,7.22,7.22H203.46a7,7,0,0,0,7.27-7.22q0-30.62,0-61.23a7.57,7.57,0,0,0-.16-1.63,7,7,0,0,0-7-5.59Z" style="fill:#1c5630"/><path d="M125.71,87.5h77.85a7,7,0,0,1,7,5.59,7.57,7.57,0,0,1,.16,1.63q0,30.62,0,61.23a7,7,0,0,1-7.27,7.22H47.82a7,7,0,0,1-7.22-7.22q0-30.62,0-61.23a7,7,0,0,1,7.22-7.22Zm-.05.91H47.87a6.1,6.1,0,0,0-6.36,6.26q0,30.67,0,61.33a6.48,6.48,0,0,0,.17,1.52,6.09,6.09,0,0,0,6.09,4.73H203.56a6.09,6.09,0,0,0,6.25-6.25c0-2.44,0-4.89,0-7.33q0-26.9,0-53.79a7.14,7.14,0,0,0-.27-2.13,6.12,6.12,0,0,0-6.09-4.33Z" style="fill:#f8c255"/><path d="M125.66,88.41h77.79a6.12,6.12,0,0,1,6.09,4.33,7.14,7.14,0,0,1,.27,2.13q0,26.9,0,53.79c0,2.44,0,4.89,0,7.33a6.09,6.09,0,0,1-6.25,6.25H47.77a6.09,6.09,0,0,1-6.09-4.73,6.48,6.48,0,0,1-.17-1.52q0-30.67,0-61.33a6.1,6.1,0,0,1,6.36-6.26Zm-7.32,20.52c-.66.19-1.22.59-1.86.82a4.49,4.49,0,0,1-1.41-.29,1.43,1.43,0,0,1,.72-.24,8.28,8.28,0,0,0,3.91-1.65,3.69,3.69,0,0,0,1.49-3.35,5.31,5.31,0,0,0-.51-1.75c.51-.14.77,0,1,.57a165.68,165.68,0,0,0,6.88,16.74.7.7,0,0,0,.73.48c.79,0,1.57,0,2.36,0a.82.82,0,0,0,.9-.55c.18-.36.05-.39-.26-.38-.7,0-1.4,0-2.1,0a.66.66,0,0,1-.7-.45c-.29-.69-.63-1.36-.94-2-2.23-4.87-4.28-9.81-6-14.88a.56.56,0,0,0-.69-.46,2.21,2.21,0,0,1-1,0,.85.85,0,0,0-.78.12,7.29,7.29,0,0,0-3.19-1.42,17.74,17.74,0,0,0-3.3-.35,71.4,71.4,0,0,0-7.87.43c-.92.08-1.83.21-2.75.27-.65,0-.42.5-.42.82s.32.16.49.15a6.65,6.65,0,0,0,1-.13c.34-.07.49,0,.46.39-.06,1-.08,1.91-.11,2.87-.14,4.17-.08,8.33.09,12.49,0,.94,0,.94-.91.9q-.3-7.56,0-15.11c0-.7,0-.69-.69-.61a3.23,3.23,0,0,1-1.25.11c-.73-.21-1-.05-.94.67,0,.25.06.33.33.28s.81-.11,1.22-.17.46.07.45.44c-.2,4.8-.22,9.6,0,14.4-.32.73-.18,1,.56,1,1.71,0,3.41-.13,5.11-.25.78-.05,1.56-.15,2.34-.23.59-.06.27-.52.3-.79s-.26-.16-.41-.15c-.41,0-.81.07-1.22.13-.21,0-.31,0-.3-.26.07-1.82.13-3.64.19-5.47,2.89-.06,4.46,1.39,4.64,4.27a20.75,20.75,0,0,1,0,3.43c0,.28,0,.43.35.44,2.09.06,4.16,0,6.24-.16.41,0,.45-.21.45-.55s-.31-.32-.53-.31a50.62,50.62,0,0,1-5.12.11c-.39,0-.52-.11-.49-.52a17,17,0,0,0-.1-4.09,3.78,3.78,0,0,0-3.34-3.49,11.38,11.38,0,0,0-2.1,0c0-.79,0-.8.72-.86.53,0,1.06-.08,1.58-.08a3.77,3.77,0,0,1,4,3.21,17.5,17.5,0,0,1,.18,4.49c0,.34.08.42.41.44a56,56,0,0,0,6.29-.17c.11,0,.27,0,.29-.14a1.29,1.29,0,0,0,0-.8c-.1-.16-.34,0-.52,0s-.51,0-.77.05-.38-.06-.36-.36a14,14,0,0,0-.16-2.55,4.89,4.89,0,0,0-3.09-4.18l-.46-.21c.39-.35.9-.56,1.2-1l.06-.06h-.06Zm50.76,10.84c0-1.78-.11-3.55,0-5.33a1.34,1.34,0,0,0-.24-.86,88.8,88.8,0,0,1-5.2-8.81c-.48-1-1-1.61-2.17-1.41a3.48,3.48,0,0,1-.91-.09c0-.6-.07-1.19-.1-1.79,0-.75,0-.74-.76-.84-.27,0-.49-.07-.39.33.06.22-.06.25-.26.22-2.53-.4-5.08-.65-7.63-.83-2.39-.17-4.77-.28-7.17-.27-.13,0-.28-.06-.36.11a.57.57,0,0,0,.52.87c.32,0,.65,0,1,0s.49.09.47.49c-.24,5.09-.19,10.18,0,15.26,0,.92,0,.92-.89.8q-.16-4-.14-8c0-2.39,0-4.78.16-7.17,0-.22.11-.5-.3-.5a15,15,0,0,1-2.19-.07c-.12,0-.27-.05-.35.12a.57.57,0,0,0,.52.87c.29,0,.58,0,.87,0s.61.07.56.55c-.07.8-.08,1.6-.1,2.4-.1,3.89-.05,7.78,0,11.67-.27.59-.17,1,.26,1.06l9.35.73c1.89.14,3.78.26,5.68.38.2,0,.42,0,.38.31-.09.75.53.34.82.46s.35-.21.37-.41a43.54,43.54,0,0,0,.14-4.45c0-.11.05-.25-.11-.3a1.75,1.75,0,0,0-1.06-.06c-.18.06,0,.4-.06.62a3.3,3.3,0,0,0,0,.67.82.82,0,0,1-.65,1l-.24.09c-.07-.19.11-.45-.15-.59-.5-.26-.81,0-.78.51,0,.1,0,.2,0,.3a.78.78,0,0,1-.56.21,27.62,27.62,0,0,1-6.74-.11c-.24,0-.3-.14-.29-.37.07-2.13.12-4.27.18-6.4a11.73,11.73,0,0,1,3,.49c1.22.39,1.23.41,1.17,1.69,0,.7,0,.7.67.73.18,0,.44.11.51-.1s.16-.68,0-.77c-.41-.22-.24-.53-.24-.79,0-1.24,0-1.25-1.17-1.65l-.34-.1a19.8,19.8,0,0,0-3.6-.48c0-.2,0-.41,0-.61s.06-.34.31-.32a19.28,19.28,0,0,1,4.55.61c1.15.37,1.21.47,1.17,1.64,0,.73,0,.71.69.8.39,0,.5-.08.51-.46a29.54,29.54,0,0,0,0-3.43c-.06-.69-.05-.67-.74-.73-.33,0-.44.05-.39.38,0,.16,0,.34-.24.31-1.84-.18-3.68-.27-5.52-.28-.22,0-.3-.08-.3-.3,0-1.47,0-2.93-.06-4.4.43,0,.85.06,1.28.11a13.63,13.63,0,0,1,4.59,1.15c.83.42,1.4.95,1.16,2a1,1,0,0,0,0,.2c0,.73,0,.74.72.78.17,0,.42.14.48-.12s.15-.68,0-.77c-.41-.19-.24-.47-.25-.73a10,10,0,0,1,0-1,.72.72,0,0,0-.35-.68,7.1,7.1,0,0,0-2.58-1.21,27.23,27.23,0,0,0-5.07-.68,3.06,3.06,0,0,0,0-.41c-.09-.46.07-.58.54-.52,1,.12,2.11.16,3.16.28a12.78,12.78,0,0,1,4,1,1.82,1.82,0,0,1,1.23,2.19c-.14.74-.07.75.69.83h.15c.27,0,.36-.06.36-.33s0-.82.05-1.23c.36,0,.72,0,1.07,0a.56.56,0,0,1,.55.36A105.11,105.11,0,0,0,168,114.6a1,1,0,0,1,.17.62c-.06,1.45-.06,2.9,0,4.35-.43.13-.17.48-.2.72s.25.32.44.39a4.89,4.89,0,0,0,1.11.11c2.29.38,4.59.69,6.9.89.19,0,.43.08.36-.23s.29-.7-.31-.73-1-.09-1.43-.1c-.3,0-.36-.14-.35-.42.1-2,.09-4.1,0-6.15a.87.87,0,0,1,.23-.64c.58-.67,1.17-1.34,1.72-2s1.15-1.58,1.79-2.31.86-1.76,1.76-2.28c0,0,0-.1,0-.14a1.92,1.92,0,0,1,.35-1.1c.35-.71.35-.71,1.12-.54.11,0,.25.17.36,0a.73.73,0,0,0-.39-.95,31.49,31.49,0,0,0-4.64-.75c-.19,0-.52-.2-.5.25s-.15.71.46.73c1.26.05,1.26.08,1,1.35,0,.08,0,.17-.06.25a12,12,0,0,1-2.65,5c-.19-.12,0-.21,0-.28.24-.43.51-.84.74-1.28a10.88,10.88,0,0,0,1.16-3.53c0-.33,0-.5-.4-.52-.59,0-1.19-.12-1.78-.18-.11,0-.23-.06-.29.11a.57.57,0,0,0,.51.85c.24,0,.48.07.71.07s.38.14.34.42,0,.37-.07.56a12.16,12.16,0,0,1-2.12,4.82,59.79,59.79,0,0,1-4.42-7.94,2.3,2.3,0,0,1-.28-.83l1.51.26c.11,0,.22.11.31,0a.7.7,0,0,0-.45-.94,59.45,59.45,0,0,0-7.93-.94c-.63,0-.61-.06-.63.57,0,.32.09.41.4.4s.58,0,.87,0a.56.56,0,0,1,.54.37,106.22,106.22,0,0,0,5.81,9.93.94.94,0,0,1,.17.62,51.87,51.87,0,0,0,0,5.64C170,120,170,120,169.1,119.77ZM134,114.69a49.92,49.92,0,0,0,3-7.88,20.77,20.77,0,0,0,.83-4.67c0-.19.13-.48-.25-.49l-2,0c-.13,0-.25,0-.3.19-.13.6,0,.79.61.76h.31c.74,0,.75,0,.69.75a25.39,25.39,0,0,1-1.27,5.88,34.71,34.71,0,0,1-1.89,4.9c-.84-1.77-1.56-3.6-2.3-5.41-1-2.53-1.89-5.11-2.77-7.69-.12-.34-.05-.43.29-.4s.61,0,.92,0,.49.09.44-.29.19-.65-.39-.68a69.53,69.53,0,0,0-7.84,0c-.11,0-.27,0-.28.13a1.88,1.88,0,0,0,0,.8c.08.18.37,0,.56,0,.79-.07.79-.08,1.06.7A171.41,171.41,0,0,0,130.33,118a.65.65,0,0,0,.69.45c.82,0,1.64,0,2.46,0a.74.74,0,0,0,.78-.48,95.15,95.15,0,0,0,7.1-16.45c.24-.71.25-.71,1-.6.17,0,.47.2.4-.19s.3-.71-.33-.77a49.21,49.21,0,0,0-5-.2c-.32,0-.41.09-.4.4,0,.64,0,.63.63.58.2,0,.41,0,.61,0s.39.11.37.39a17.33,17.33,0,0,1-.21,2,41.48,41.48,0,0,1-2.73,8.72,32.57,32.57,0,0,1-1.57,3.31Zm-41.83,5.1c.17.18.39.08.58.07l2.56-.17c1.74-.11,3.47-.32,5.19-.54.22,0,.41,0,.41-.38,0-.62,0-.62-.63-.54-.83.11-.82.11-1.11-.67a145.24,145.24,0,0,0-7.08-16,.55.55,0,0,0-.66-.37c-1,.14-1.93.24-2.9.33a.63.63,0,0,0-.6.44,172.45,172.45,0,0,0-7.06,18,.61.61,0,0,1-.77.5l.17-.54c1.79-5.47,4-10.78,6.3-16a1,1,0,0,0,.17-.52c-.38-.1-.5.13-.63.41-1.83,4.1-3.58,8.22-5.13,12.44-.57,1.57-1.11,3.15-1.66,4.73-.06.18-.26.46.19.41,0,0,.08.08.13.07a30.15,30.15,0,0,0,4.9-.63c.12,0,.16-.1.18-.21.15-.63,0-.79-.62-.68-.18,0-.37,0-.55.09s-.3,0-.3-.25a8.33,8.33,0,0,1,.22-2.22c2.28-.3,4.57-.57,6.87-.77a.51.51,0,0,1,.63.4c.26.76.54,1.51.82,2.26C91.84,119.62,91.87,119.86,92.16,119.8Zm96.41-10.88a10.75,10.75,0,0,1,1.16-.2,10.5,10.5,0,0,1,7.72,2.82,3,3,0,0,1,1.21,2.82c-.14,1.38-.06,1.39,1.34,1.61l.2,0a.16.16,0,0,0,.17-.08.82.82,0,0,0-.44-1.07c-.38-.08-.47-.26-.44-.64.06-.64,0-1.3.07-1.94a.83.83,0,0,0-.25-.64,11.7,11.7,0,0,0-2.7-2.27c-2.34-1.35-4.79-2.07-7.49-1.19-.07,0-.13,0-.16-.07a1.57,1.57,0,0,1,.83-.71,4.66,4.66,0,0,1,2.12-.5,10.76,10.76,0,0,1,7.39,2.9,3,3,0,0,1,1.16,2.84c-.16,1.27-.09,1.27,1.18,1.52.4.08.57,0,.57-.45,0-1.57,0-3.14-.11-4.71s-.1-1.56-1.63-1.86h-.05c-.11.31.12.62,0,1a22.34,22.34,0,0,0-8.29-2.8,12.51,12.51,0,0,0-5.72.36,4.55,4.55,0,0,0-3.46,3.83,6,6,0,0,0,1.08,4.27,13.27,13.27,0,0,0,3.1,3.1c1.66,1.26,3.46,2.3,5.21,3.43a21.73,21.73,0,0,1,3.67,2.77,5.94,5.94,0,0,1,1.44,2.09,3,3,0,0,1-1,3.66,5.13,5.13,0,0,0,.29-1.29,4.71,4.71,0,0,0-1.56-3.45,18.63,18.63,0,0,0-3.35-2.61c-1.9-1.24-3.88-2.37-5.69-3.74a11.72,11.72,0,0,1-3.33-3.51,5.58,5.58,0,0,1-.38-5.25c0-.07.08-.15-.06-.23a4,4,0,0,0-1.23,2.34,6.37,6.37,0,0,0,1.69,5.33,17.3,17.3,0,0,0,3.79,3.2c1.67,1.1,3.37,2.15,5,3.26a12.92,12.92,0,0,1,3.23,2.82,4.13,4.13,0,0,1,.88,3.46,5.85,5.85,0,0,1-3.5.35,15.12,15.12,0,0,1-7.94-3.85,2.89,2.89,0,0,1-1.14-2.6c.1-1.38,0-1.38-1.37-1.52-.26,0-.36,0-.36.29,0,2.1.06,4.2.17,6.3,0,.51.2.74.69.74-.06.37.39.86-.3,1.11a31,31,0,0,0,12.26,3.24,9.47,9.47,0,0,0,4.3-.78,4.59,4.59,0,0,0,1.47-1,.18.18,0,0,0-.23,0,9,9,0,0,1-4.41,1,26.15,26.15,0,0,1-9.23-1.89A17.7,17.7,0,0,1,183,129c.23,0,.35-.11.3-.37s-.06-.49-.09-.79l.34.15a35.8,35.8,0,0,0,6.68,2.52,19.18,19.18,0,0,0,8.35.66,5.19,5.19,0,0,0,4.56-6.17,9,9,0,0,0-2.73-5.26,28,28,0,0,0-5-3.85,57.6,57.6,0,0,1-4.81-3.21,6.5,6.5,0,0,1-1.75-1.91A2.25,2.25,0,0,1,188.57,108.92Zm-130-.58c-.07-.71-.07-.72.62-.84l1.06-.18c.84-.15.83-.15.82-1,0-.29-.06-.38-.37-.33a64.27,64.27,0,0,0-9.83,2.15c-.84.25-.82.26-.83,1.13,0,.4.12.4.43.29a13.52,13.52,0,0,1,2-.58c0,1.24,0,2.45,0,3.66-.2,5.81-.12,11.61.1,17.42,0,.94.05.94-.89,1.11-.17-3.72-.23-7.45-.23-11.17,0-3.21.07-6.42.24-9.63,0-.48-.11-.54-.53-.4-.66.22-1.33.4-2,.59-.09-.58-.09-.58-.26-.57-.51,0-.7.24-.7.75a1.92,1.92,0,0,0,0,.72c.68-.2,1.35-.37,2-.59.4-.13.53-.07.51.38-.08,1.78-.15,3.55-.18,5.33q-.15,7.36.14,14.71c-.73,0-.77.49-.74,1.06,0,.31.05.39.4.33q4.84-.87,9.59-2.11c1.07-.28,1.07-.27,1-1.4a.31.31,0,0,0,0-.09c-.69.17-1.4.31-2.08.52-.39.12-.42,0-.41-.35,0-.9.05-1.81.07-2.72q.06-2.89.11-5.79l.75-.16c2.65-.59,5.32-1.08,8-1.5.32,0,.48,0,.48.37,0,2.75.1,5.5.16,8.25-.74.17-.72.17-.74.91,0,.38.1.46.46.41,3.26-.44,6.52-.93,9.74-1.62.84-.18.84-.17.82-1a.74.74,0,0,1,0-.1c0-.25-.09-.28-.3-.23-.52.12-1,.22-1.55.32-.68.13-.68.12-.65-.56.13-3.79.22-7.58.19-11.37,0-2.8-.08-5.6-.12-8.4.21-.1.57.14.62-.3s0-.61-.65-.51c-.12-.77-.13-.78.63-.88l1.07-.12c.77-.06.77-.06.76-.83a.61.61,0,0,1,0-.1c.06-.37-.12-.41-.44-.38a59.33,59.33,0,0,0-9.67,1.6c-.87.22-.86.22-.85,1.13,0,.33.1.35.39.27.57-.16,1.17-.24,1.74-.4.34-.09.4,0,.39.33-.12,2.95-.19,5.9-.21,8.85,0,.72,0,.72-.73.83h-.15c0-1.54,0-3.07.07-4.61q0-2.07.13-4.15c0-.37-.1-.44-.44-.36-.53.14-1.06.24-1.6.36-.25.06-.52.17-.5-.27,0-.09,0-.14-.16-.16a.61.61,0,0,0-.73.6,3.17,3.17,0,0,1,0,.36c0,.38,0,.53.47.39s1-.23,1.44-.34.6-.12.58.46c-.09,2.63-.19,5.25-.19,7.88a1,1,0,0,1-.19.08l-8,1.55c-1,.19-1,.18-1-.87,0-.12,0-.24,0-.36l-.08-7c.22-.1.58.09.66-.3S59.31,108.26,58.6,108.34Zm49.14,23.89c-.09-1.48-.61-2.68-2.38-2.85a7.69,7.69,0,0,1-1.12-.1,1.2,1.2,0,0,0-1.53.8c-.37.78-.81,1.54-1.22,2.3-.08.15-.16.38-.4.33s-.26-.24-.29-.43,0-.35-.18-.37-.31.16-.37.31a.77.77,0,0,0,.12.95c.35.32.3.61.09,1a46.06,46.06,0,0,0-2.32,4.39,1.17,1.17,0,0,0,.76,1.52c.17,0,.21-.08.26-.18l.61-1.13a31.63,31.63,0,0,1,2.12-3.68,1.49,1.49,0,0,1,1.42-.72,7.8,7.8,0,0,0,3.41-.56A1.43,1.43,0,0,0,107.74,132.24ZM132.1,132a6.13,6.13,0,0,0-.12-1.27c-.26-1-.87-1.23-1.69-.58a9.47,9.47,0,0,0-1,1c-.23.25-.37.23-.54-.05a12.16,12.16,0,0,0-.77-1.15.67.67,0,0,0-1-.22c-.39.29-.58.17-.72-.22a.61.61,0,0,0-.54-.41c-.26,0-.35.19-.43.37a33.65,33.65,0,0,1-2,4.07,1.16,1.16,0,0,0,.13,1.39c.61.83,1,.83,1.44-.09a10.72,10.72,0,0,1,2.53-3.25c.33-.31.63-.2.72.24a.66.66,0,0,1-.16.57c-.28.37-.58.72-.83,1.11-.36.57-.19,1,.5,1.49.51.34.74.28,1.18-.3a8.09,8.09,0,0,0,.72-1.24,8.15,8.15,0,0,1,.77-1.33c.09-.12.19-.28.37-.2s.13.27.09.41c-.14.55-.3,1.09-.44,1.63a1.32,1.32,0,0,0,0,1,.76.76,0,0,0,.68.47c.33,0,.45-.24.52-.48A8.94,8.94,0,0,0,132.1,132Zm23.18-1.27h.43c.56,0,.7-.2.54-.74A1.15,1.15,0,0,0,155,129a2.54,2.54,0,0,0-1.12.31,3.82,3.82,0,0,1-1,.37c-.5.08-.62,0-.43-.5s.43-1.08.69-1.6a1.51,1.51,0,0,0-.25-1.75c-.34-.44-.56-.44-.69.1-.35,1.49-1.34,2.69-1.77,4.14a.92.92,0,0,1-.13.22c-1,1.53-1.76,3.19-2.82,4.68a1.27,1.27,0,0,0-.15.27,1.38,1.38,0,0,0,.55,1.43c.58.27.71-.25.9-.57.54-.89,1-1.81,1.55-2.71s.66-.92,1.31-.11c.46.57.87,1.18,1.34,1.75.18.22.39.64.7.45s0-.59-.1-.87a21,21,0,0,0-1.54-2.36c-.42-.63-.38-.72.4-.78l.36,0a2.24,2.24,0,0,0,1.3-.39A1.47,1.47,0,0,1,155.28,130.7Zm-22,3.29a1.45,1.45,0,0,0,2.06,1.37,11.18,11.18,0,0,0,1.59-1c.24-.16.36-.16.47.14a2.68,2.68,0,0,0,.7,1.12.89.89,0,0,0,1,.22c.39-.19.19-.54.15-.82a2.81,2.81,0,0,1,.56-2.4,1.87,1.87,0,0,0,.42-.81,2.07,2.07,0,0,0-.92-2.12,1.53,1.53,0,0,0-2,0,30.24,30.24,0,0,0-3.47,3.1A1.79,1.79,0,0,0,133.3,134Zm-41.37-.21a1.6,1.6,0,0,0,1.88,1.74,3,3,0,0,0,.84-.2,10.31,10.31,0,0,0,4.49-3.76,2.29,2.29,0,0,0,.35-.9,1.09,1.09,0,0,0-.24-.91c-.3-.39-.45-.4-.74,0s-.45.65-.67,1a10.82,10.82,0,0,1-4,3.15c-.13.07-.3.17-.42,0s0-.33.07-.46c.38-.59.76-1.17,1.15-1.76A8.27,8.27,0,0,0,95.6,130c.16-.42.27-.88-.19-1.14s-.74.14-1,.44c-.65.87-1.29,1.77-1.9,2.67A3.36,3.36,0,0,0,91.93,133.78Zm66.84.3a1.8,1.8,0,0,1-1.39-.39c-.14-.13-.26-.31-.11-.5s.28,0,.4.06a2,2,0,0,0,1.68.18,3.91,3.91,0,0,0,2.2-1.74,1.36,1.36,0,0,0,0-1.63,1.51,1.51,0,0,0-1.79-.5,8.47,8.47,0,0,0-3.26,2.34,1.27,1.27,0,0,0-.34.89,3.83,3.83,0,0,0,2.1,2.67,3.78,3.78,0,0,0,3.42-1.08.55.55,0,0,0,.17-.7c-.16-.27-.42-.14-.65-.09A11.35,11.35,0,0,1,158.77,134.08Zm-47.21,0a1.8,1.8,0,0,1-1.43-.41.36.36,0,0,1-.09-.47c.13-.19.27,0,.39.05a2,2,0,0,0,1.68.18,4,4,0,0,0,2.16-1.64,1.43,1.43,0,0,0,.06-1.76,1.55,1.55,0,0,0-1.86-.43,8.83,8.83,0,0,0-3.07,2.18,1.42,1.42,0,0,0-.43.91,3.57,3.57,0,0,0,2.23,2.81,3.85,3.85,0,0,0,3.24-1.07c.2-.18.38-.44.22-.73s-.45-.15-.69-.09A11.31,11.31,0,0,1,111.56,134.08Zm30.53-14.3c-.1.41.07.54.49.58,3.74.35,7.49.62,11.24.88l3.63.22c.16,0,.43,0,.38.21-.11.58.28.56.63.57.18,0,.48.16.53-.11s.3-.64-.13-.85a.21.21,0,0,1-.11-.25c.1-.44-.18-.46-.49-.48l-5.22-.33c-3.51-.24-7-.5-10.52-.86C142.12,119.3,142,119.41,142.09,119.78Zm25.76,10.63c-.51,0-.56-.06-.31-.5s.6-1,.89-1.43a2.93,2.93,0,0,0,.51-1.05c.06-.39,0-.86-.37-1s-.53.3-.66.57c-.52,1.08-1.34,2-1.85,3.05a.9.9,0,0,1-1,.54c-.32,0-.65-.07-1-.08s-.62,0-.68.38a.63.63,0,0,0,.47.75l.49.15c.54.16.59.27.29.75-.44.67-.89,1.33-1.34,2a.57.57,0,0,0,.12.89.62.62,0,0,0,1-.17,17,17,0,0,0,1.14-1.88c.79-1.4.79-1.41,2.4-1.52.44,0,.67-.16.64-.63S168.34,130.4,167.85,130.41Zm-19.93,1c.19,0,.43-.13.51-.49a.61.61,0,0,0-.35-.76,2.32,2.32,0,0,0-.7-.15,4.51,4.51,0,0,0-2.61.55c-.14.07-.31.13-.44,0s0-.28,0-.43a5.34,5.34,0,0,0,.1-.55.58.58,0,0,0-.4-.69.61.61,0,0,0-.79.3,4.89,4.89,0,0,0-.31.7,18.84,18.84,0,0,1-1.49,3.36,4.51,4.51,0,0,0-.43,1,.84.84,0,0,0,.4,1.14c.5.26.82,0,1.08-.39s.54-.91.86-1.33C144.45,132.24,145.66,131,147.92,131.44Zm-31.86,3.33c0,.29.19.53.52.69a.69.69,0,0,0,.87-.23c.47-.53.72-1.21,1.16-1.74,1.09-1.31,2.24-2.54,4.22-2.06a.52.52,0,0,0,.62-.24.7.7,0,0,0,0-.73.93.93,0,0,0-.8-.39,3.79,3.79,0,0,0-2.38.37,2,2,0,0,1-.57.21c-.24.06-.41,0-.32-.31a4.24,4.24,0,0,0,.14-.75.56.56,0,0,0-.41-.63.59.59,0,0,0-.73.23,2.07,2.07,0,0,0-.26.5,21.69,21.69,0,0,1-1.74,3.92A2.47,2.47,0,0,0,116.06,134.78Zm-28.14.75a3.6,3.6,0,0,0,1.71-.2,1,1,0,0,0,.41-1.73,9.32,9.32,0,0,0-1.29-1.09c-.26-.22-.76-.38-.65-.76s.61-.29,1-.36a14.29,14.29,0,0,0,2.11-.4c.3-.11.59-.27.5-.66s-.45-.41-.75-.34a30.5,30.5,0,0,0-3.58.87c-1.08.38-1.16.87-.27,1.61.51.43,1.06.8,1.58,1.21.17.13.4.28.33.53s-.34.27-.56.29A7.74,7.74,0,0,1,84.6,134l-.94-.41c-.13-.06-.26-.14-.36,0a.31.31,0,0,0,.06.38,2.18,2.18,0,0,0,.73.55A8.06,8.06,0,0,0,87.92,135.52Zm63.83,18c-.1,1-.55,1.31-1.55,1-.14,0-.29-.15-.37.07s.15.23.27.27a2.11,2.11,0,0,0,2.89-1.92,5.8,5.8,0,0,0,0-.72,2,2,0,0,0-2.85-1.86,1.83,1.83,0,0,0-1,2.28,1.7,1.7,0,0,0,2,1.06C151.31,153.65,151.51,153.57,151.75,153.5ZM65.6,130.25c.15.14-.3.65.34.57,3.43-.43,6.85-1,10.24-1.69.39-.08.47-.28.41-.6s-.37-.13-.51-.1q-4.44.89-8.93,1.43c-.26,0-.62.28-.67-.26,0,0-.11-.05-.18-.06C65.75,129.46,65.6,129.61,65.6,130.25Zm58.63,24.67a3.18,3.18,0,0,0,1.37-.28,1.22,1.22,0,0,0,.25-2.08,3.55,3.55,0,0,0-.93-.53,5.59,5.59,0,0,1-1.06-.5c-.35-.25-.39-.55-.12-.81a1.32,1.32,0,0,1,2,.54c0,.09,0,.17.15.16s.16,0,.16-.08c0-.36,0-.72,0-1.07,0-.09-.17-.13-.21-.08-.21.27-.45.05-.65,0a3.75,3.75,0,0,0-1.67.09c-.49.15-.93.4-1,1a1.15,1.15,0,0,0,.76,1.21c.45.24.93.42,1.39.66s.65.39.58.82-.44.58-.82.65a1,1,0,0,1-.4,0c-.59-.15-1.35-.09-1.44-1,0-.11-.1-.12-.19-.11s-.16.11-.15.22c0,.31,0,.61,0,.92s.17.28.26.16.34-.08.49,0A6.72,6.72,0,0,0,124.23,154.92Zm50.26-31.43c.18,0,.52.15.48-.31,0-.3.12-.63-.44-.64a13.91,13.91,0,0,1-2-.25c-2-.33-4.06-.58-6.09-.86-.09,0-.23-.1-.28,0a1.61,1.61,0,0,0,0,.75c0,.2.18.17.31.19C169.1,122.87,171.77,123.23,174.48,123.48Zm-67.93,31.18c-.5,0-.46-.31-.45-.62,0-.85,0-1.71,0-2.56,0-1.07-.1-1.15-1.16-1-.1,0-.23,0-.25.12s.11.14.21.14.18.09.2.22c.07.58,0,.62-.58.6h-.36a1.47,1.47,0,0,0-1.37,1,1.67,1.67,0,0,0,.3,1.82,1.51,1.51,0,0,0,1.64.42,1.09,1.09,0,0,1,.57,0A2,2,0,0,0,106.56,154.67Zm-58.28-20.8c0,.66,0,.67.44.59,3.44-.62,6.85-1.38,10.23-2.26.35-.09.4-.29.33-.55s-.34-.12-.49-.08c-3,.77-6.07,1.44-9.15,2-.2,0-.5.21-.46-.25,0-.18-.13-.16-.25-.16C48.35,133.14,48.27,133.22,48.27,133.87Zm69.4,20.91c0,.83-.39,1.15-1.12,1-.11,0-.22-.08-.34-.12a.17.17,0,0,0-.24.12c-.05.14,0,.19.14.22a5,5,0,0,0,.75.14c1.16.07,1.68-.37,1.81-1.51.09-.82,0-1.64,0-2.46,0-.35,0-.59-.46-.34-.14.08-.26,0-.39-.06a2.31,2.31,0,0,0-1.11-.11,1.67,1.67,0,0,0-1.48,1.78,1.57,1.57,0,0,0,1.62,1.51A2,2,0,0,0,117.67,154.77Zm37.84-.78v-.11c.33-.24.66-.48,1-.74a3.41,3.41,0,0,0,.86-.94,1.24,1.24,0,0,0-.87-2,2.23,2.23,0,0,0-1.72.3c-.18.11-.59.22-.4.5s.37-.12.54-.2a1.15,1.15,0,0,1,1.21,0c.41.29.34.75.23,1.17a2.88,2.88,0,0,1-.67,1.14,9.05,9.05,0,0,1-1.29,1.16c-.12.09-.35.13-.28.36s.3.17.48.18a18.44,18.44,0,0,0,2.25,0c.1,0,.24-.05.3,0,.56.45.43-.11.49-.34a2.39,2.39,0,0,0,0-.56c0-.11.08-.26-.06-.32s-.18.11-.24.22-.17.11-.27.12Zm-43.47.68c-.57,0-.44-.35-.43-.63,0-.49,0-1,0-1.48a.44.44,0,0,1,.26-.45.62.62,0,0,1,1,.5,10.76,10.76,0,0,1,0,1.79c0,.12-.1.33.08.36a2.45,2.45,0,0,0,1.38-.1c-.43,0-.45-.28-.42-.59a6.87,6.87,0,0,0,0-1.53,1,1,0,0,0-1.11-1,1.76,1.76,0,0,0-.93.23c-.08,0-.15.18-.29,0a1.3,1.3,0,0,0-1.49,0c.56,0,.55.26.52.63s0,.92,0,1.38.16.82-.5.87A4.4,4.4,0,0,0,112,154.68Zm22.26,0c-.62.08-.46-.3-.46-.57,0-.49,0-1,0-1.48a1,1,0,0,0-1.16-1,1.77,1.77,0,0,0-.88.23c-.08,0-.14.19-.29,0a1.32,1.32,0,0,0-1.56,0c.79-.19.59.26.59.57s0,.89,0,1.33.19.85-.5.91a5.43,5.43,0,0,0,1.76.09.15.15,0,0,0,.1-.09s0-.11-.06-.11c-.44,0-.3-.32-.3-.54,0-.48,0-1,0-1.43a.48.48,0,0,1,.27-.5.63.63,0,0,1,1,.52,11.68,11.68,0,0,1,0,1.79c0,.13-.11.34.14.37A2.62,2.62,0,0,0,134.3,154.64Zm27.93-2.82h0c0-.32,0-.65,0-1s.11-.48-.13-.55a.81.81,0,0,0-.87.11,23.58,23.58,0,0,0-2.27,2.83c-.16.24-.12.42.22.43l1.59.06c.18,0,.42,0,.36.26s.23.56-.26.55c-.09,0-.18,0-.18.12s.1.12.19.13a9.62,9.62,0,0,0,1.64,0c.07,0,.14,0,.15-.11s0-.15-.11-.13c-.46.07-.3-.27-.33-.49s.13-.41.42-.4.2-.1.2-.24,0-.22-.17-.19c-.53.12-.43-.25-.43-.54S162.22,152.11,162.22,151.82Zm-70.15,2.84c-.59,0-.53-.35-.52-.72,0-1,0-2,0-3,0-.12-.07-.28.08-.37a1.36,1.36,0,0,1,1.46.69c0,.08,0,.18.1.21s.16,0,.17-.05a2.18,2.18,0,0,0,0-1.16c-.13-.33-.3.09-.49.07-1.23-.11-2.47.06-3.68-.07-.77-.09-.52.29-.57.61a1.21,1.21,0,0,0,0,.31c0,.12-.06.3.17.3s.15-.16.14-.27c0-.26.12-.36.33-.43a4,4,0,0,1,.84-.2c.31,0,.37.07.36.36,0,1.09,0,2.18,0,3.28,0,.26,0,.43-.34.38-.09,0-.18,0-.16.13s.08.1.15.1A5.37,5.37,0,0,0,92.07,154.67Zm87.61-27.81h.09c0,.41,0,.82,0,1.23s0,.85.07,1.28c.1,1.28.13,1.31,1.41,1.39a.37.37,0,0,0,.24,0c.19-.16,0-1-.28-1s-.4-.25-.42-.55c-.12-1.79-.19-3.58-.18-5.38,0-.56-.41-.4-.67-.45s-.24.25-.24.42C179.67,124.77,179.68,125.82,179.68,126.86ZM91.3,121.64h0l1.84-.12q2.81-.2,5.59-.58c.46-.06.31-.36.32-.59s-.24-.19-.4-.17c-1.07.11-2.13.24-3.2.32a33.25,33.25,0,0,1-4.58.22c-.16,0-.39-.09-.48.17-.18.5,0,.79.56.76Zm11.4-.83c2-.14,4-.27,6-.48.44,0,.35-.3.37-.56s-.26-.26-.46-.25c-1.26.09-2.52.2-3.78.27a20.74,20.74,0,0,1-3.83,0c-.46-.06-.38.26-.38.52s0,.51.37.48C101.54,120.79,102.12,120.81,102.7,120.81Zm-1,33.89c-.41-.08-.43-.31-.4-.61a8.49,8.49,0,0,0,0-1,1.59,1.59,0,0,0-2.48-1.36c-.09.05-.18.09-.11.23A.15.15,0,0,0,99,152a1.25,1.25,0,0,1,.74-.12.52.52,0,0,1,.5.43c.06.25,0,.38-.29.32a2.11,2.11,0,0,0-1.34.19,1,1,0,0,0-.58,1,.92.92,0,0,0,.71.9A13.59,13.59,0,0,0,101.75,154.71Zm39.77-1.29h0l1.07-.07c.12,0,.24,0,.22-.19a1.76,1.76,0,0,0-3.5-.08,1.52,1.52,0,0,0,1.24,1.74,2.84,2.84,0,0,0,1.62-.06c.14-.05.41-.07.34-.29s-.31-.05-.45,0c-.81.32-1.42.05-1.62-.7-.07-.26-.05-.39.26-.36S141.25,153.42,141.52,153.42Zm4.71-2.65c0,1.19,0,2.35,0,3.51,0,.29-.13.3-.34.28s-.18,0-.18.12.06.11.13.12a10.7,10.7,0,0,0,1.79,0c.07,0,.14,0,.15-.11s-.08-.15-.16-.13c-.43.08-.36-.21-.36-.46,0-1.2,0-2.39,0-3.59,0-.11.12-.37-.18-.3s-.85.24-1.28.37c-.1,0-.11.12-.1.21s.11.09.19.07Zm-51.95,3.9a5.4,5.4,0,0,0,1.9.11.13.13,0,0,0,.08-.1c0-.13-.1-.1-.18-.11s-.37.07-.36-.21a13.82,13.82,0,0,1,.07-1.53,1,1,0,0,1,.68-.83c0,.26,0,.49.26.61a.57.57,0,0,0,.63,0,.52.52,0,0,0,.21-.54.54.54,0,0,0-.48-.47,1.54,1.54,0,0,0-1.35.55.88.88,0,0,0-1.4-.33c.4.12.4.12.4.57s0,1.16,0,1.74C94.76,154.43,94.72,154.66,94.28,154.67Zm42.83-3.1a1.72,1.72,0,0,0-1.85,2.3,2,2,0,0,0,2.68.83c.14-.07.43-.09.3-.35s-.29,0-.41.06a1,1,0,0,1-1.55-.8,2.48,2.48,0,0,1,.11-1.26.77.77,0,0,1,.78-.54c.16,0,.31,0,.17.26a.41.41,0,0,0,.25.65.52.52,0,0,0,.7-.26.51.51,0,0,0-.24-.7A1.72,1.72,0,0,0,137.11,151.57ZM77.72,122.78c0,.32,0,.53.4.5,1.5-.13,3-.36,4.46-.62.41-.07.37-.34.33-.61s-.28-.14-.43-.12a17.55,17.55,0,0,1-4.16.36C78,122.25,77.57,122.21,77.72,122.78Zm31.56,31.89c-.55,0-.46-.32-.46-.63,0-.68,0-1.36,0-2,0-.12.06-.33-.11-.35a2.14,2.14,0,0,0-1.33.12c.51,0,.5.31.47.66s0,.92,0,1.38.21.82-.46.9A4.21,4.21,0,0,0,109.28,154.67Zm19.85,0c-.43-.2-.42-.2-.42-.69,0-.68,0-1.36,0-2,0-.11,0-.24-.08-.33a2,2,0,0,0-1.37.19c.52-.07.5.22.48.55s0,.92,0,1.38.21.84-.47.94A4.83,4.83,0,0,0,129.14,154.71Zm-20.79-3.43c.27-.06.56-.12.55-.48s-.27-.45-.57-.44-.55.13-.55.47S108.06,151.23,108.35,151.28Zm19.87-.94c-.27,0-.53.11-.55.45s.26.46.55.47.57-.1.57-.44S128.54,150.36,128.21,150.34Z" style="fill:#1c5630"/><path d="M58.63,109.12l.08,7c0,.12,0,.24,0,.36,0,1,0,1.06,1,.87l8-1.55a1,1,0,0,0,.19-.08,2.74,2.74,0,0,0,.91-.18H69c.72-.1.73-.1.73-.83,0-3,.09-5.9.21-8.85,0-.33-.05-.42-.39-.33-.57.16-1.17.24-1.74.4-.29.08-.38.06-.39-.27,0-.91,0-.91.85-1.13A59.33,59.33,0,0,1,78,102.9c.32,0,.5,0,.44.38a.61.61,0,0,0,0,.1c0,.77,0,.77-.76.83l-1.07.12c-.75.1-.75.11-.63.88l0,.81c0,2.8.09,5.6.12,8.4,0,3.79-.06,7.58-.19,11.37,0,.68,0,.68.65.56.52-.1,1-.2,1.55-.32.22,0,.33,0,.3.23a.74.74,0,0,0,0,.1c0,.86,0,.84-.82,1-3.22.69-6.47,1.18-9.74,1.62-.36,0-.47,0-.46-.41,0-.74,0-.74.74-.91a3.77,3.77,0,0,0,.94-.12c.34-.13.93.2.91-.58q-.13-4.66-.2-9.32c0-.42-.13-.47-.5-.42-3.35.53-6.68,1.2-10,1.93-.54.12-.67.35-.55.83v.71q-.05,2.9-.11,5.79c0,.91,0,1.81-.07,2.72,0,.33,0,.47.41.35.68-.2,1.39-.35,2.08-.52a.31.31,0,0,1,0,.09c0,1.13,0,1.12-1,1.4q-4.76,1.23-9.59,2.11c-.35.06-.38,0-.4-.33,0-.57,0-1,.74-1.06a2.65,2.65,0,0,0,.95-.12c.94-.17.92-.17.89-1.11-.22-5.8-.3-11.61-.1-17.42,0-1.21,0-2.42,0-3.66a13.52,13.52,0,0,0-2,.58c-.32.11-.44.11-.43-.29,0-.87,0-.87.83-1.13A64.27,64.27,0,0,1,60.74,106c.31,0,.37,0,.37.33,0,.88,0,.88-.82,1l-1.06.18c-.69.12-.69.13-.62.84A1.73,1.73,0,0,0,58.63,109.12Z" style="fill:#fcfdfc"/><path d="M196.51,128.81a3,3,0,0,0,1-3.66,5.94,5.94,0,0,0-1.44-2.09,21.73,21.73,0,0,0-3.67-2.77c-1.75-1.13-3.55-2.17-5.21-3.43a13.27,13.27,0,0,1-3.1-3.1,6,6,0,0,1-1.08-4.27,4.55,4.55,0,0,1,3.46-3.83,12.51,12.51,0,0,1,5.72-.36,22.34,22.34,0,0,1,8.29,2.8c.11-.34-.12-.65,0-1h.05c1.53.3,1.54.3,1.63,1.86s.12,3.14.11,4.71c0,.48-.18.52-.57.45-1.27-.25-1.34-.25-1.18-1.52a3,3,0,0,0-1.16-2.84,10.76,10.76,0,0,0-7.39-2.9,4.66,4.66,0,0,0-2.12.5,1.57,1.57,0,0,0-.83.71h0c-.09,0-.1,0-.12.1a1.1,1.1,0,0,0-.29.73,2.25,2.25,0,0,0,.3,1.86,6.5,6.5,0,0,0,1.75,1.91,57.6,57.6,0,0,0,4.81,3.21,28,28,0,0,1,5,3.85,9,9,0,0,1,2.73,5.26,5.19,5.19,0,0,1-4.56,6.17,19.18,19.18,0,0,1-8.35-.66A35.8,35.8,0,0,1,183.6,128l-.34-.15c0,.3,0,.55.09.79s-.07.35-.3.37h0c0-.15-.14-.07-.22-.09l-.49-.09c-.49,0-.66-.23-.69-.74-.11-2.1-.18-4.2-.17-6.3,0-.29.1-.31.36-.29,1.4.14,1.47.14,1.37,1.52a2.89,2.89,0,0,0,1.14,2.6,15.12,15.12,0,0,0,7.94,3.85,5.85,5.85,0,0,0,3.5-.35A1.4,1.4,0,0,0,196.51,128.81Z" style="fill:#fcfdfc"/><path d="M109.09,112c-.06,1.82-.12,3.64-.19,5.47,0,.24.09.29.3.26.41-.05.81-.1,1.22-.13.14,0,.44-.2.41.15s.29.73-.3.79c-.78.09-1.56.18-2.34.23-1.7.12-3.4.25-5.11.25-.74,0-.88-.25-.56-1h.94c.93,0,.94,0,.91-.9-.17-4.16-.23-8.33-.09-12.49,0-1,0-1.91.11-2.87,0-.4-.12-.46-.46-.39a6.65,6.65,0,0,1-1,.13c-.17,0-.49.26-.49-.15s-.23-.78.42-.82c.92-.06,1.83-.18,2.75-.27a71.4,71.4,0,0,1,7.87-.43,17.74,17.74,0,0,1,3.3.35,7.29,7.29,0,0,1,3.19,1.42l.72.87a5.31,5.31,0,0,1,.51,1.75,3.69,3.69,0,0,1-1.49,3.35,8.28,8.28,0,0,1-3.91,1.65,1.43,1.43,0,0,0-.72.24,4.49,4.49,0,0,0,1.41.29l.65.2.46.21a4.89,4.89,0,0,1,3.09,4.18,14,14,0,0,1,.16,2.55c0,.3.07.4.36.36s.51,0,.77-.05.43-.16.52,0a1.29,1.29,0,0,1,0,.8c0,.16-.18.13-.29.14a56,56,0,0,1-6.29.17c-.33,0-.42-.1-.41-.44a17.5,17.5,0,0,0-.18-4.49,3.77,3.77,0,0,0-4-3.21c-.53,0-1.06,0-1.58.08-.77.06-.77.07-.72.86Zm5.76-4.07h0a3.14,3.14,0,0,0,1.18-2.18,3.74,3.74,0,0,0-3.47-4.73,11.89,11.89,0,0,0-3.06.08c-.7.09-.69.11-.54.87l0,.81c0,2,.05,4,.07,6,0,.3.14.34.38.33a23.24,23.24,0,0,0,3-.2,4,4,0,0,0,1.56-.47,1.55,1.55,0,0,0,.73-.42Z" style="fill:#fcfcfc"/><path d="M145,117.61c.93.12.92.12.89-.8-.16-5.09-.21-10.18,0-15.26,0-.4-.1-.52-.47-.49s-.65,0-1,0a.57.57,0,0,1-.52-.87c.08-.17.24-.11.36-.11,2.39,0,4.78.1,7.17.27,2.55.18,5.1.44,7.63.83.2,0,.31,0,.26-.22-.1-.39.13-.36.39-.33.73.1.73.09.76.84,0,.6.07,1.19.1,1.79v1c0,.41-.05.82-.05,1.23s-.1.38-.36.33H160c-.76-.08-.83-.09-.69-.83a1.82,1.82,0,0,0-1.23-2.19,12.78,12.78,0,0,0-4-1c-1-.12-2.11-.16-3.16-.28-.47-.06-.63.06-.54.52a3,3,0,0,1,0,.41l0,1c0,1.47,0,2.93.06,4.4,0,.22.08.3.3.3,1.84,0,3.68.1,5.52.28.29,0,.27-.15.24-.31-.05-.32.06-.41.39-.38.69.06.68,0,.74.73a29.54,29.54,0,0,1,0,3.43c0,.38-.12.5-.51.46-.72-.09-.72-.07-.69-.8,0-1.17,0-1.28-1.17-1.64a19.28,19.28,0,0,0-4.55-.61c-.26,0-.33.08-.31.32s0,.41,0,.61v1c-.06,2.13-.12,4.27-.18,6.4,0,.23,0,.35.29.37a27.62,27.62,0,0,0,6.74.11.78.78,0,0,0,.56-.21c.35.08.62-.12.92-.22l.24-.09a.82.82,0,0,0,.65-1,3.3,3.3,0,0,1,0-.67c0-.22-.12-.56.06-.62a1.75,1.75,0,0,1,1.06.06c.16.05.11.2.11.3a43.54,43.54,0,0,1-.14,4.45c0,.2,0,.57-.37.41s-.9.29-.82-.46c0-.34-.18-.29-.38-.31-1.89-.13-3.78-.24-5.68-.38l-9.35-.73c-.44,0-.54-.46-.26-1.06Z" style="fill:#fcfcfc"/><path d="M83.46,117.55a8.33,8.33,0,0,0-.22,2.22c0,.23.08.3.3.25s.37-.06.55-.09c.62-.12.77,0,.62.68,0,.11-.06.18-.18.21a30.15,30.15,0,0,1-4.9.63s-.08,0-.13-.07c.11-.36-.2-1,.59-.89a.61.61,0,0,0,.77-.5,172.45,172.45,0,0,1,7.06-18,.63.63,0,0,1,.6-.44c1-.09,1.94-.19,2.9-.33a.55.55,0,0,1,.66.37,145.24,145.24,0,0,1,7.08,16c.29.78.28.78,1.11.67.65-.09.62-.08.63.54,0,.34-.19.35-.41.38-1.73.23-3.45.43-5.19.54l-2.56.17c-.19,0-.4.12-.58-.07,0-.45-.08-1,.63-.92.24,0,.48,0,.72,0s.45-.12.33-.48c-.32-1-.68-1.93-1-2.89A.65.65,0,0,0,92,115c-2.49.26-5,.52-7.47.88-.6.09-.95.26-.95.9A3.07,3.07,0,0,0,83.46,117.55Zm7.4-3.69a4.81,4.81,0,0,0,1.23-.15c-1.25-3-2.58-5.89-4.08-8.81l-.62,1.48-.63,1.5c-1,2.21-1.78,4.47-2.59,6.82l5.46-.66A6.28,6.28,0,0,0,90.85,113.85Z" style="fill:#fcfcfc"/><path d="M134,114.69l.19.5a32.57,32.57,0,0,0,1.57-3.31,41.48,41.48,0,0,0,2.73-8.72,17.33,17.33,0,0,0,.21-2c0-.28-.07-.42-.37-.39s-.41,0-.61,0c-.64.05-.62.06-.63-.58,0-.31.08-.4.4-.4a49.21,49.21,0,0,1,5,.2c.63.06.28.51.33.77s-.23.21-.4.19c-.76-.11-.77-.11-1,.6a95.15,95.15,0,0,1-7.1,16.45.74.74,0,0,1-.78.48c-.82,0-1.64,0-2.46,0a.65.65,0,0,1-.69-.45,171.41,171.41,0,0,1-6.88-16.68c-.27-.77-.27-.77-1.06-.7-.19,0-.48.17-.56,0a1.88,1.88,0,0,1,0-.8c0-.18.17-.13.28-.13a69.53,69.53,0,0,1,7.84,0c.58,0,.35.41.39.68s-.23.29-.44.29-.62,0-.92,0-.4.06-.29.4c.88,2.58,1.74,5.17,2.77,7.69.74,1.81,1.46,3.64,2.3,5.41Z" style="fill:#fcfcfc"/><path d="M175.27,110.9a12,12,0,0,0,2.65-5c0-.08,0-.17.06-.25.29-1.27.29-1.3-1-1.35-.61,0-.44-.41-.46-.73s.31-.27.5-.25a31.49,31.49,0,0,1,4.64.75.73.73,0,0,1,.39.95c-.11.18-.25,0-.36,0-.77-.16-.77-.17-1.12.54a1.92,1.92,0,0,0-.35,1.1s0,.12,0,.14c-.9.52-1.13,1.55-1.76,2.28s-1.18,1.55-1.79,2.31-1.14,1.37-1.72,2a.87.87,0,0,0-.23.64c.05,2,.06,4.1,0,6.15,0,.28,0,.41.35.42.48,0,1,.07,1.43.1s.25.48.31.73-.17.24-.36.23c-2.31-.2-4.61-.52-6.9-.89a4.89,4.89,0,0,1-1.11-.11c-.19-.08-.48-.1-.44-.39s-.22-.59.2-.72l.93.2c.94.22.95.22.92-.71a51.87,51.87,0,0,1,0-5.64.94.94,0,0,0-.17-.62,106.22,106.22,0,0,1-5.81-9.93.56.56,0,0,0-.54-.37c-.29,0-.58-.06-.87,0s-.41-.07-.4-.4c0-.63,0-.61.63-.57a59.45,59.45,0,0,1,7.93.94.7.7,0,0,1,.45.94c-.09.15-.21.06-.31,0l-1.51-.26a2.3,2.3,0,0,0,.28.83,59.78,59.78,0,0,0,4.42,7.94c.09.26.24.15.3,0s.31-.34.44-.52l.11-.14h0c.09,0,.2-.07.12-.21v0c.13.06.13,0,.11-.11h0c.11,0,.12,0,.11-.11Z" style="fill:#fcfcfc"/><path d="M107.74,132.24a1.43,1.43,0,0,1-1,1.58,7.8,7.8,0,0,1-3.41.56,1.49,1.49,0,0,0-1.42.72,31.63,31.63,0,0,0-2.12,3.68l-.61,1.13c-.05.1-.09.22-.26.18a1.17,1.17,0,0,1-.76-1.52,46.06,46.06,0,0,1,2.32-4.39c.21-.38.26-.67-.09-1a.77.77,0,0,1-.12-.95c.07-.15.19-.32.37-.31s.15.23.18.37.08.39.29.43.32-.18.4-.33c.42-.76.85-1.52,1.22-2.3a1.2,1.2,0,0,1,1.53-.8,7.69,7.69,0,0,0,1.12.1C107.13,129.56,107.65,130.76,107.74,132.24ZM105,131.06c-.69-.16-1.06.38-1.43.86-.18.23-.52.49-.36.78s.59.16.89.11a3.06,3.06,0,0,0,2.16-1.12c.2-.28.19-.45-.19-.52A5.48,5.48,0,0,0,105,131.06Z" style="fill:#f8c255"/><path d="M132.1,132a8.93,8.93,0,0,1-.59,2.94c-.07.24-.19.49-.52.48a.76.76,0,0,1-.68-.47,1.32,1.32,0,0,1,0-1c.14-.54.3-1.09.44-1.63,0-.14.09-.33-.09-.41s-.28.09-.37.2a8.15,8.15,0,0,0-.77,1.33,8.09,8.09,0,0,1-.72,1.24c-.44.58-.67.64-1.18.3-.7-.46-.86-.91-.5-1.49.24-.39.55-.74.83-1.11a.66.66,0,0,0,.16-.57c-.1-.44-.39-.55-.72-.24a10.72,10.72,0,0,0-2.53,3.25c-.43.92-.84.92-1.44.09a1.16,1.16,0,0,1-.13-1.39,33.65,33.65,0,0,0,2-4.07c.08-.18.17-.4.43-.37a.61.61,0,0,1,.54.41c.14.39.33.51.72.22a.67.67,0,0,1,1,.22,12.16,12.16,0,0,1,.77,1.15c.17.28.31.3.54.05a9.47,9.47,0,0,1,1-1c.82-.65,1.43-.42,1.69.58A6.1,6.1,0,0,1,132.1,132Z" style="fill:#f8c255"/><path d="M196.51,128.81a1.4,1.4,0,0,1-.7.32,4.13,4.13,0,0,0-.88-3.46,12.92,12.92,0,0,0-3.23-2.82c-1.67-1.1-3.36-2.16-5-3.26a17.3,17.3,0,0,1-3.79-3.2,6.37,6.37,0,0,1-1.69-5.33,4,4,0,0,1,1.23-2.34c.14.07.1.16.06.23a5.58,5.58,0,0,0,.38,5.25,11.72,11.72,0,0,0,3.33,3.51c1.81,1.38,3.79,2.5,5.69,3.74a18.63,18.63,0,0,1,3.35,2.61,4.71,4.71,0,0,1,1.56,3.45A5.13,5.13,0,0,1,196.51,128.81Z" style="fill:#f8c255"/><path d="M155.28,130.7a1.47,1.47,0,0,0-1.21.38,2.24,2.24,0,0,1-1.3.39l-.36,0c-.78.07-.82.16-.4.78a21,21,0,0,1,1.54,2.36c.14.27.44.65.1.87s-.52-.23-.7-.45c-.47-.57-.88-1.17-1.34-1.75-.65-.81-.77-.8-1.31.11s-1,1.82-1.55,2.71c-.19.32-.33.84-.9.57a1.38,1.38,0,0,1-.55-1.43,1.27,1.27,0,0,1,.15-.27c1.06-1.49,1.83-3.16,2.82-4.68a.92.92,0,0,0,.13-.22c.43-1.45,1.43-2.65,1.77-4.14.13-.54.35-.54.69-.1a1.51,1.51,0,0,1,.25,1.75c-.26.51-.48,1.06-.69,1.6s-.06.58.43.5a3.82,3.82,0,0,0,1-.37A2.54,2.54,0,0,1,155,129a1.15,1.15,0,0,1,1.27.95c.16.54,0,.72-.54.74Z" style="fill:#f8c255"/><path d="M120.67,102.47l-.72-.87a.85.85,0,0,1,.78-.12,2.21,2.21,0,0,0,1,0,.56.56,0,0,1,.69.46c1.74,5.07,3.78,10,6,14.88.31.68.65,1.35.94,2a.66.66,0,0,0,.7.45c.7,0,1.4,0,2.1,0,.31,0,.44,0,.26.38a.82.82,0,0,1-.9.55c-.78-.06-1.57-.06-2.36,0a.7.7,0,0,1-.73-.48A165.68,165.68,0,0,1,121.62,103C121.44,102.5,121.19,102.33,120.67,102.47Z" style="fill:#f8c255"/><path d="M133.3,134a1.79,1.79,0,0,1,.55-1.23,30.24,30.24,0,0,1,3.47-3.1,1.53,1.53,0,0,1,2,0,2.07,2.07,0,0,1,.92,2.12,1.87,1.87,0,0,1-.42.81,2.81,2.81,0,0,0-.56,2.4c0,.27.25.63-.15.82a.89.89,0,0,1-1-.22,2.68,2.68,0,0,1-.7-1.12c-.11-.3-.23-.3-.47-.14a11.18,11.18,0,0,1-1.59,1A1.45,1.45,0,0,1,133.3,134Zm2.22-.5a2.63,2.63,0,0,0,.4-.15,8.34,8.34,0,0,0,2.16-1.78c.11-.12.28-.28.16-.44s-.32,0-.47,0a7.79,7.79,0,0,0-2.32,1.74.88.88,0,0,0-.18.31C135.21,133.37,135.27,133.49,135.52,133.49Z" style="fill:#f8c255"/><path d="M91.93,133.78a3.36,3.36,0,0,1,.61-1.77c.61-.91,1.24-1.8,1.9-2.67.23-.3.51-.7,1-.44s.35.72.19,1.14a8.27,8.27,0,0,1-.93,1.65c-.39.58-.77,1.17-1.15,1.76-.09.14-.22.31-.07.46s.29,0,.42,0a10.82,10.82,0,0,0,4-3.15c.22-.32.44-.65.67-1s.44-.38.74,0a1.09,1.09,0,0,1,.24.91,2.29,2.29,0,0,1-.35.9,10.31,10.31,0,0,1-4.49,3.76,3,3,0,0,1-.84.2A1.6,1.6,0,0,1,91.93,133.78Z" style="fill:#f8c255"/><path d="M169.1,119.77l-.93-.2c0-1.45,0-2.9,0-4.35a1,1,0,0,0-.17-.62,105.11,105.11,0,0,1-5.81-9.93.56.56,0,0,0-.55-.36c-.36,0-.72,0-1.07,0q0-.5,0-1a3.47,3.47,0,0,0,.91.09c1.18-.2,1.69.45,2.17,1.41a88.8,88.8,0,0,0,5.2,8.81,1.34,1.34,0,0,1,.24.86C169,116.22,169.07,118,169.1,119.77Z" style="fill:#f8c255"/><path d="M51.76,131.15a2.65,2.65,0,0,1-.95.12q-.28-7.35-.14-14.71c0-1.78.1-3.55.18-5.33,0-.46-.11-.51-.51-.38-.66.22-1.34.4-2,.59a1.92,1.92,0,0,1,0-.72c0-.52.19-.72.7-.75.18,0,.18,0,.26.57.67-.2,1.34-.37,2-.59.42-.14.55-.07.53.4-.16,3.21-.23,6.42-.24,9.63C51.52,123.7,51.58,127.43,51.76,131.15Z" style="fill:#f8c255"/><path d="M158.77,134.08a11.35,11.35,0,0,0,2.46-.48c.23-.06.49-.18.65.09a.55.55,0,0,1-.17.7,3.78,3.78,0,0,1-3.42,1.08,3.83,3.83,0,0,1-2.1-2.67,1.27,1.27,0,0,1,.34-.89,8.47,8.47,0,0,1,3.26-2.34,1.51,1.51,0,0,1,1.79.5,1.36,1.36,0,0,1,0,1.63,3.91,3.91,0,0,1-2.2,1.74,2,2,0,0,1-1.68-.18c-.12-.07-.26-.25-.4-.06s0,.36.11.5A1.8,1.8,0,0,0,158.77,134.08Zm-.38-2.15a3,3,0,0,0,2-.73c.13-.14.3-.31.15-.48s-.36-.08-.5,0A6.66,6.66,0,0,1,158.39,131.93Z" style="fill:#f8c255"/><path d="M111.56,134.08a11.31,11.31,0,0,0,2.41-.47c.24-.06.52-.21.69.09s0,.54-.22.73a3.85,3.85,0,0,1-3.24,1.07,3.57,3.57,0,0,1-2.23-2.81,1.42,1.42,0,0,1,.43-.91,8.83,8.83,0,0,1,3.07-2.18,1.55,1.55,0,0,1,1.86.43,1.43,1.43,0,0,1-.06,1.76,4,4,0,0,1-2.16,1.64,2,2,0,0,1-1.68-.18c-.12-.07-.26-.25-.39-.05a.36.36,0,0,0,.09.47A1.8,1.8,0,0,0,111.56,134.08Zm-.4-2.15a2.91,2.91,0,0,0,2-.75c.11-.12.29-.27.16-.44s-.35-.12-.5,0A7.7,7.7,0,0,1,111.16,131.93Z" style="fill:#f8c255"/><path d="M109.09,112v-.87a11.38,11.38,0,0,1,2.1,0,3.78,3.78,0,0,1,3.34,3.49,17,17,0,0,1,.1,4.09c0,.41.09.51.49.52a50.62,50.62,0,0,0,5.12-.11c.22,0,.53-.15.53.31s0,.52-.45.55c-2.08.14-4.16.22-6.24.16-.36,0-.38-.16-.35-.44a20.75,20.75,0,0,0,0-3.43C113.54,113.36,112,111.91,109.09,112Z" style="fill:#f8c255"/><path d="M182.35,128.84l.49.09c0,.09.13.1.22.09h0a17.7,17.7,0,0,0,3.17,1.38,26.15,26.15,0,0,0,9.23,1.89,9,9,0,0,0,4.41-1,.18.18,0,0,1,.23,0,4.59,4.59,0,0,1-1.47,1,9.47,9.47,0,0,1-4.3.78A31,31,0,0,1,182.05,130C182.74,129.7,182.29,129.21,182.35,128.84Z" style="fill:#f8c255"/><path d="M142.09,119.78c-.07-.36,0-.47.43-.43,3.5.36,7,.62,10.52.86l5.22.33c.32,0,.59,0,.49.48a.21.21,0,0,0,.11.25c.43.21.17.58.13.85s-.34.12-.53.11c-.35,0-.74,0-.63-.57,0-.24-.23-.2-.38-.21l-3.63-.22c-3.75-.25-7.5-.53-11.24-.88C142.16,120.32,142,120.18,142.09,119.78Z" style="fill:#f8c255"/><path d="M167.85,130.41c.48,0,.69.23.73.78s-.19.6-.64.63c-1.61.11-1.61.12-2.4,1.52a17,17,0,0,1-1.14,1.88.62.62,0,0,1-1,.17.57.57,0,0,1-.12-.89c.45-.66.91-1.32,1.34-2,.31-.47.25-.58-.29-.75l-.49-.15a.63.63,0,0,1-.47-.75c.06-.36.38-.4.68-.38s.65,0,1,.08a.9.9,0,0,0,1-.54c.51-1.08,1.33-2,1.85-3.05.13-.27.26-.72.66-.57s.43.62.37,1a2.93,2.93,0,0,1-.51,1.05c-.3.48-.61.95-.89,1.43S167.34,130.42,167.85,130.41Z" style="fill:#f8c255"/><path d="M147.92,131.44c-2.26-.47-3.47.8-4.56,2.26-.32.42-.55.9-.86,1.33s-.58.65-1.08.39a.84.84,0,0,1-.4-1.14,4.51,4.51,0,0,1,.43-1,18.84,18.84,0,0,0,1.49-3.36,4.89,4.89,0,0,1,.31-.7.61.61,0,0,1,.79-.3.58.58,0,0,1,.4.69,5.34,5.34,0,0,1-.1.55c0,.15-.14.31,0,.43s.3,0,.44,0a4.51,4.51,0,0,1,2.61-.55,2.32,2.32,0,0,1,.7.15.61.61,0,0,1,.35.76C148.34,131.32,148.11,131.46,147.92,131.44Z" style="fill:#f8c255"/><path d="M116.06,134.78a2.47,2.47,0,0,1,.36-1.18,21.69,21.69,0,0,0,1.74-3.92,2.07,2.07,0,0,1,.26-.5.59.59,0,0,1,.73-.23.56.56,0,0,1,.41.63,4.24,4.24,0,0,1-.14.75c-.09.33.07.37.32.31a2,2,0,0,0,.57-.21,3.79,3.79,0,0,1,2.38-.37.93.93,0,0,1,.8.39.7.7,0,0,1,0,.73.52.52,0,0,1-.62.24c-2-.48-3.13.75-4.22,2.06-.45.54-.69,1.22-1.16,1.74a.69.69,0,0,1-.87.23C116.25,135.31,116,135.06,116.06,134.78Z" style="fill:#f8c255"/><path d="M188.57,108.92a1.1,1.1,0,0,1,.29-.73c.07,0,.18.05.12-.1h0c0,.08.08.09.16.07,2.7-.88,5.15-.15,7.49,1.19a11.7,11.7,0,0,1,2.7,2.27.83.83,0,0,1,.25.64c0,.65,0,1.3-.07,1.94,0,.38.06.56.44.64a.82.82,0,0,1,.44,1.07.16.16,0,0,1-.17.08l-.2,0c-1.39-.22-1.48-.23-1.34-1.61a3,3,0,0,0-1.21-2.82,10.5,10.5,0,0,0-7.72-2.82A10.75,10.75,0,0,0,188.57,108.92Z" style="fill:#f8c255"/><path d="M145,117.61l-1-.11c-.07-3.89-.13-7.78,0-11.67,0-.8,0-1.61.1-2.4,0-.48-.13-.6-.56-.55s-.58,0-.87,0a.57.57,0,0,1-.52-.87c.08-.17.23-.14.35-.12a15,15,0,0,0,2.19.07c.41,0,.31.28.3.5-.11,2.39-.15,4.78-.16,7.17Q144.81,113.62,145,117.61Z" style="fill:#f8c255"/><path d="M103.46,118h-.94c-.18-4.8-.16-9.6,0-14.4,0-.37-.08-.5-.45-.44s-.81.09-1.22.17-.32,0-.33-.28c0-.72.21-.88.94-.67a3.23,3.23,0,0,0,1.25-.11c.71-.08.72-.09.69.61Q103.16,110.46,103.46,118Z" style="fill:#f8c255"/><path d="M58.74,120.72V120l.2,0c3.09-.72,6.2-1.3,9.33-1.81.43-.07.62,0,.62.5,0,3,.09,5.93.19,8.9a3.77,3.77,0,0,1-.94.12c-.06-2.75-.13-5.5-.16-8.25,0-.42-.17-.42-.48-.37-2.68.42-5.35.91-8,1.5Z" style="fill:#f8c255"/><path d="M87.92,135.52a8.06,8.06,0,0,1-3.84-1,2.18,2.18,0,0,1-.73-.55.31.31,0,0,1-.06-.38c.1-.15.24-.07.36,0l.94.41a7.74,7.74,0,0,0,3.82.46c.22,0,.48,0,.56-.29s-.16-.4-.33-.53c-.52-.41-1.07-.79-1.58-1.21-.89-.74-.81-1.23.27-1.61a30.5,30.5,0,0,1,3.58-.87c.3-.07.65-.05.75.34s-.2.55-.5.66a14.29,14.29,0,0,1-2.11.4c-.34.07-.85,0-1,.36s.38.54.65.76A9.32,9.32,0,0,1,90,133.59a1,1,0,0,1-.41,1.73A3.6,3.6,0,0,1,87.92,135.52Z" style="fill:#f8c255"/><path d="M150.49,103.38l0-1a27.25,27.25,0,0,1,5.07.68,7.1,7.1,0,0,1,2.58,1.21.72.72,0,0,1,.35.68,10,10,0,0,0,0,1c0,.26-.16.54.25.73.19.09.1.52,0,.77s-.31.13-.48.12c-.74,0-.74-.05-.72-.78a1,1,0,0,1,0-.2c.25-1-.32-1.56-1.16-2a13.63,13.63,0,0,0-4.59-1.15C151.34,103.44,150.91,103.41,150.49,103.38Z" style="fill:#f8c255"/><path d="M68.89,115.51a2.74,2.74,0,0,1-.91.18c0-2.63.1-5.26.19-7.88,0-.59,0-.59-.58-.46s-1,.19-1.44.34-.52,0-.47-.39a3.17,3.17,0,0,0,0-.36.61.61,0,0,1,.73-.6c.11,0,.16.07.16.16,0,.45.24.33.5.27.53-.12,1.07-.23,1.6-.36.33-.09.45,0,.44.36Q69,108.83,69,110.9C68.92,112.44,68.91,114,68.89,115.51Z" style="fill:#f8c255"/><path d="M134,114.69l-.27-.6a34.69,34.69,0,0,0,1.89-4.9,25.39,25.39,0,0,0,1.27-5.88c.06-.76,0-.76-.69-.75h-.31c-.61,0-.75-.16-.61-.76,0-.2.16-.19.3-.19l2,0c.38,0,.26.3.25.49a20.77,20.77,0,0,1-.83,4.67A49.92,49.92,0,0,1,134,114.69Z" style="fill:#f8c255"/><path d="M80.09,120.47c-.79-.09-.48.54-.59.89-.45,0-.25-.24-.19-.42.55-1.58,1.08-3.16,1.66-4.73,1.54-4.21,3.3-8.34,5.13-12.44.13-.29.25-.52.63-.41a1,1,0,0,1-.17.52c-2.32,5.26-4.51,10.57-6.3,16Z" style="fill:#f8c255"/><path d="M83.46,117.55a3.07,3.07,0,0,1,.13-.8l.66-.07c2.33-.35,4.67-.59,7-.8a.46.46,0,0,1,.57.35c.31.89.63,1.77,1,2.65-.7,0-.62.48-.63.92-.3.06-.32-.18-.39-.36-.28-.75-.56-1.5-.82-2.26a.51.51,0,0,0-.63-.4C88,117,85.74,117.24,83.46,117.55Z" style="fill:#f8c255"/><path d="M151.75,153.5c-.24.07-.44.15-.66.19a1.7,1.7,0,0,1-2-1.06,1.83,1.83,0,0,1,1-2.28A2,2,0,0,1,153,152.2a5.8,5.8,0,0,1,0,.72,2.11,2.11,0,0,1-2.89,1.92c-.12,0-.35,0-.27-.27s.23-.12.37-.07C151.19,154.81,151.64,154.53,151.75,153.5Zm.11-1.21a3,3,0,0,0-.17-1.27.73.73,0,0,0-.66-.55.71.71,0,0,0-.7.51,2.34,2.34,0,0,0,0,1.89.86.86,0,0,0,1.33.32C152,152.92,151.79,152.54,151.86,152.28Z" style="fill:#f5f7f6"/><path d="M65.6,130.25c0-.64.15-.79.69-.71.06,0,.18,0,.18.06,0,.54.42.29.67.26q4.49-.54,8.93-1.43c.14,0,.44-.3.51.1s0,.52-.41.6c-3.39.7-6.8,1.26-10.24,1.69C65.31,130.9,65.76,130.39,65.6,130.25Z" style="fill:#f8c255"/><path d="M124.23,154.92a6.72,6.72,0,0,1-1.19-.14c-.15,0-.31-.18-.49,0s-.25,0-.26-.16,0-.61,0-.92c0-.11,0-.21.15-.22s.18,0,.19.11c.08.9.84.83,1.44,1a1,1,0,0,0,.4,0c.39-.07.75-.21.82-.65s-.25-.65-.58-.82-.93-.42-1.39-.66a1.15,1.15,0,0,1-.76-1.21c.08-.57.51-.82,1-1a3.75,3.75,0,0,1,1.67-.09c.2,0,.44.25.65,0,0-.05.2,0,.21.08,0,.36,0,.71,0,1.07,0,0-.1.07-.16.08s-.13-.07-.15-.16a1.32,1.32,0,0,0-2-.54c-.27.26-.24.56.12.81a5.59,5.59,0,0,0,1.06.5,3.55,3.55,0,0,1,.93.53,1.22,1.22,0,0,1-.25,2.08A3.18,3.18,0,0,1,124.23,154.92Z" style="fill:#f5f7f6"/><path d="M174.48,123.48c-2.72-.26-5.38-.62-8-1.11-.13,0-.3,0-.31-.19a1.61,1.61,0,0,1,0-.75c0-.1.19,0,.28,0,2,.28,4.07.53,6.09.86a13.91,13.91,0,0,0,2,.25c.55,0,.41.34.44.64C175,123.64,174.67,123.46,174.48,123.48Z" style="fill:#f8c255"/><path d="M106.56,154.67a2,2,0,0,1-1.25.11,1.09,1.09,0,0,0-.57,0,1.51,1.51,0,0,1-1.64-.42,1.67,1.67,0,0,1-.3-1.82,1.47,1.47,0,0,1,1.37-1h.36c.61,0,.64,0,.58-.6,0-.14,0-.23-.2-.22s-.23,0-.21-.14.15-.1.25-.12c1.06-.15,1.15-.08,1.16,1,0,.85,0,1.71,0,2.56C106.1,154.36,106.06,154.66,106.56,154.67Zm-1.46-1.49h0c0-.25,0-.51,0-.76s.13-.44-.16-.52a.79.79,0,0,0-.77.12,1.84,1.84,0,0,0,0,2.33.73.73,0,0,0,.73.08c.28-.09.16-.34.17-.52S105.09,153.42,105.09,153.18Z" style="fill:#f5f7f6"/><path d="M48.27,133.87c0-.64.07-.72.65-.73.12,0,.27,0,.25.16,0,.45.26.28.46.25,3.07-.54,6.12-1.21,9.15-2,.16,0,.4-.27.49.08s0,.46-.33.55c-3.38.88-6.79,1.65-10.23,2.26C48.27,134.53,48.27,134.52,48.27,133.87Z" style="fill:#f8c255"/><path d="M117.67,154.77a2,2,0,0,1-.8.11,1.57,1.57,0,0,1-1.62-1.51,1.67,1.67,0,0,1,1.48-1.78,2.31,2.31,0,0,1,1.11.11c.12,0,.25.14.39.06.43-.25.46,0,.46.34,0,.82.07,1.64,0,2.46-.12,1.14-.65,1.58-1.81,1.51a5,5,0,0,1-.75-.14c-.1,0-.19-.08-.14-.22a.17.17,0,0,1,.24-.12c.11,0,.22.09.34.12C117.28,155.92,117.67,155.61,117.67,154.77Zm0-1.55h0c0-.27,0-.55,0-.82s.11-.42-.18-.52a.71.71,0,0,0-.77.11,2,2,0,0,0,0,2.41.77.77,0,0,0,.77.15c.32-.08.17-.36.19-.56S117.69,153.48,117.69,153.22Z" style="fill:#f5f7f6"/><path d="M155.51,154l1.56-.09c.1,0,.21,0,.27-.12s0-.32.24-.22.06.21.06.32a2.39,2.39,0,0,1,0,.56c-.06.23.08.79-.49.34-.06,0-.2,0-.3,0a18.44,18.44,0,0,1-2.25,0c-.17,0-.4.07-.48-.18s.16-.27.28-.36a9.05,9.05,0,0,0,1.29-1.16,2.88,2.88,0,0,0,.67-1.14c.11-.42.18-.88-.23-1.17a1.15,1.15,0,0,0-1.21,0c-.18.08-.32.54-.54.2s.22-.39.4-.5a2.23,2.23,0,0,1,1.72-.3,1.24,1.24,0,0,1,.87,2,3.41,3.41,0,0,1-.86.94c-.32.25-.65.49-1,.74Z" style="fill:#f5f7f6"/><path d="M112,154.68a4.4,4.4,0,0,1-1.93,0c.66-.06.5-.51.5-.87s0-.92,0-1.38,0-.67-.52-.63a1.3,1.3,0,0,1,1.49,0c.15.14.21,0,.29,0a1.76,1.76,0,0,1,.93-.23,1,1,0,0,1,1.11,1,6.87,6.87,0,0,1,0,1.53c0,.31,0,.56.42.59a2.45,2.45,0,0,1-1.38.1c-.17,0-.08-.23-.08-.36a10.76,10.76,0,0,0,0-1.79.62.62,0,0,0-1-.5.44.44,0,0,0-.26.45c0,.49,0,1,0,1.48C111.6,154.33,111.48,154.68,112,154.68Z" style="fill:#f5f7f6"/><path d="M134.3,154.64a2.62,2.62,0,0,1-1.37.15c-.24,0-.14-.24-.14-.37a11.68,11.68,0,0,0,0-1.79.63.63,0,0,0-1-.52.48.48,0,0,0-.27.5c0,.48,0,1,0,1.43,0,.22-.14.55.3.54,0,0,.07.08.06.11a.15.15,0,0,1-.1.09,5.43,5.43,0,0,1-1.76-.09c.69-.07.51-.53.5-.91s0-.89,0-1.33.21-.76-.59-.57a1.32,1.32,0,0,1,1.56,0c.15.14.21,0,.29,0a1.77,1.77,0,0,1,.88-.23,1,1,0,0,1,1.16,1c0,.49,0,1,0,1.48C133.84,154.34,133.68,154.72,134.3,154.64Z" style="fill:#f5f7f6"/><path d="M162.22,151.82q0,.44,0,.87c0,.29-.11.66.43.54.13,0,.17.07.17.19s0,.24-.2.24-.46.06-.42.4-.13.56.33.49c.09,0,.12.06.11.13s-.08.1-.15.11a9.62,9.62,0,0,1-1.64,0c-.08,0-.18,0-.19-.13s.09-.13.18-.12c.49,0,.22-.35.26-.55s-.18-.25-.36-.26l-1.59-.06c-.34,0-.38-.19-.22-.43a23.58,23.58,0,0,1,2.27-2.83.81.81,0,0,1,.87-.11c.24.07.12.36.13.55s0,.65,0,1Zm-1.11-.81a23.8,23.8,0,0,0-1.76,2.3c.6,0,1,0,1.5,0,.26,0,.26-.15.26-.33C161.11,152.37,161.11,151.76,161.11,151Z" style="fill:#f5f7f6"/><path d="M92.07,154.67a5.37,5.37,0,0,1-2,.13c-.07,0-.14,0-.15-.1s.08-.14.16-.13c.32.06.35-.11.34-.38,0-1.09,0-2.18,0-3.28,0-.29-.06-.4-.36-.36a4,4,0,0,0-.84.2c-.21.08-.37.17-.33.43,0,.11,0,.26-.14.27s-.15-.18-.17-.3a1.21,1.21,0,0,1,0-.31c.05-.32-.19-.7.57-.61,1.21.14,2.45,0,3.68.07.19,0,.36-.4.49-.07a2.18,2.18,0,0,1,0,1.16c0,.09-.11.07-.17.05s-.09-.12-.1-.21a1.36,1.36,0,0,0-1.46-.69c-.16.09-.08.24-.08.37,0,1,0,2,0,3C91.54,154.32,91.48,154.68,92.07,154.67Z" style="fill:#f5f7f6"/><path d="M179.68,126.86c0-1,0-2.08,0-3.13,0-.17-.12-.49.24-.42s.67-.1.67.45c0,1.79.07,3.59.18,5.38,0,.3,0,.52.42.55s.47.87.28,1a.37.37,0,0,1-.24,0c-1.28-.08-1.31-.11-1.41-1.39,0-.43-.05-.85-.07-1.28s0-.82,0-1.23Z" style="fill:#f8c255"/><path d="M150.56,111.16v-1a19.81,19.81,0,0,1,3.6.48l.34.1c1.19.4,1.19.4,1.17,1.65,0,.26-.18.57.24.79.18.1.1.53,0,.77s-.33.11-.51.1c-.7,0-.7,0-.67-.73.06-1.28.05-1.3-1.17-1.69A11.73,11.73,0,0,0,150.56,111.16Z" style="fill:#f8c255"/><path d="M91.3,121.64l-.36,0c-.53,0-.74-.26-.56-.76.09-.26.32-.18.48-.17a33.25,33.25,0,0,0,4.58-.22c1.07-.08,2.14-.22,3.2-.32.16,0,.41-.17.4.17s.14.53-.32.59q-2.79.38-5.59.58l-1.84.12Z" style="fill:#f8c255"/><path d="M102.7,120.81c-.58,0-1.16,0-1.74,0-.42,0-.38-.22-.37-.48s-.07-.58.38-.52a20.74,20.74,0,0,0,3.83,0c1.26-.08,2.52-.19,3.78-.27.2,0,.48-.15.46.25s.08.51-.37.56C106.69,120.55,104.7,120.68,102.7,120.81Z" style="fill:#f8c255"/><path d="M101.75,154.71a13.59,13.59,0,0,1-3,0,.92.92,0,0,1-.71-.9,1,1,0,0,1,.58-1,2.11,2.11,0,0,1,1.34-.19c.32.06.35-.07.29-.32a.52.52,0,0,0-.5-.43A1.25,1.25,0,0,0,99,152a.15.15,0,0,1-.25-.07c-.08-.13,0-.18.11-.23a1.59,1.59,0,0,1,2.48,1.36,8.49,8.49,0,0,1,0,1C101.32,154.39,101.33,154.63,101.75,154.71Zm-1.4-.91c0-.9,0-.9-.44-.9a.74.74,0,0,0-.79.85.71.71,0,0,0,.71.76C100.44,154.51,100.39,154.1,100.35,153.8Z" style="fill:#f5f7f6"/><path d="M141.52,153.42c-.27,0-.55,0-.82,0s-.33.11-.26.36c.2.75.81,1,1.62.7.14-.05.34-.32.45,0s-.2.24-.34.29a2.84,2.84,0,0,1-1.62.06,1.52,1.52,0,0,1-1.24-1.74,1.76,1.76,0,0,1,3.5.08c0,.19-.1.18-.22.19l-1.07.07Zm-.5-.26c.21-.2.7.27.71-.35s-.25-1-.6-1-.75.5-.73,1.07S140.82,153,141,153.16Z" style="fill:#f5f7f6"/><path d="M174.84,111.43c-.13.19-.34.3-.44.52s-.21.25-.3,0a12.17,12.17,0,0,0,2.12-4.82c0-.18,0-.37.07-.56s0-.42-.34-.42-.47,0-.71-.07a.57.57,0,0,1-.51-.85c.06-.17.18-.12.29-.11.59.06,1.18.14,1.78.18.37,0,.44.19.4.52a10.88,10.88,0,0,1-1.16,3.53c-.23.44-.5.85-.74,1.28,0,.07-.22.17,0,.28v0c-.15-.08-.11,0-.11.11h0c-.11,0-.11,0-.11.11v0c-.11,0-.2.08-.12.21h0C174.83,111.26,174.84,111.34,174.84,111.43Z" style="fill:#f8c255"/><path d="M146.23,150.77l-.33.08c-.08,0-.17.05-.19-.07s0-.18.1-.21c.42-.13.85-.26,1.28-.37s.18.2.18.3c0,1.2,0,2.39,0,3.59,0,.25-.07.55.36.46.09,0,.18,0,.16.13s-.08.1-.15.11a10.7,10.7,0,0,1-1.79,0c-.07,0-.13,0-.13-.12s.1-.13.18-.12.35,0,.34-.28C146.22,153.12,146.23,152,146.23,150.77Z" style="fill:#fcfcfc"/><path d="M94.28,154.67c.44,0,.48-.24.47-.58,0-.58,0-1.16,0-1.74s0-.45-.4-.57a.88.88,0,0,1,1.4.33,1.54,1.54,0,0,1,1.35-.55.54.54,0,0,1,.48.47.52.52,0,0,1-.21.54.57.57,0,0,1-.63,0c-.23-.12-.23-.36-.26-.61a1,1,0,0,0-.68.83,13.82,13.82,0,0,0-.07,1.53c0,.28.21.2.36.21s.18,0,.18.11a.13.13,0,0,1-.08.1A5.4,5.4,0,0,1,94.28,154.67Z" style="fill:#f5f7f6"/><path d="M137.11,151.57a1.72,1.72,0,0,1,.94.21.51.51,0,0,1,.24.7.52.52,0,0,1-.7.26.41.41,0,0,1-.25-.65c.14-.26,0-.26-.17-.26a.77.77,0,0,0-.78.54,2.48,2.48,0,0,0-.11,1.26,1,1,0,0,0,1.55.8c.13-.07.28-.32.41-.06s-.16.28-.3.35a2,2,0,0,1-2.68-.83A1.72,1.72,0,0,1,137.11,151.57Z" style="fill:#f5f7f6"/><path d="M77.72,122.78c-.15-.57.29-.53.6-.49a17.55,17.55,0,0,0,4.16-.36c.15,0,.39-.22.43.12s.07.53-.33.61c-1.48.26-3,.49-4.46.62C77.68,123.31,77.68,123.09,77.72,122.78Z" style="fill:#f8c255"/><path d="M109.28,154.67a4.21,4.21,0,0,1-1.92,0c.68-.08.46-.55.46-.9s0-.92,0-1.38,0-.64-.47-.66a2.14,2.14,0,0,1,1.33-.12c.17,0,.11.23.11.35,0,.68,0,1.36,0,2C108.82,154.35,108.74,154.68,109.28,154.67Z" style="fill:#f5f7f6"/><path d="M129.14,154.71a4.83,4.83,0,0,1-1.88,0c.68-.1.46-.57.47-.94s0-.92,0-1.38,0-.62-.48-.55a2,2,0,0,1,1.37-.19c.12.09.08.22.08.33,0,.68,0,1.36,0,2C128.71,154.51,128.7,154.51,129.14,154.71Z" style="fill:#f5f7f6"/><path d="M108.35,151.28c-.28,0-.57-.11-.58-.46s.25-.46.55-.47.56.1.57.44S108.62,151.22,108.35,151.28Z" style="fill:#f5f7f6"/><path d="M128.21,150.34c.33,0,.58.14.58.48s-.29.45-.57.44-.56-.11-.55-.47S127.94,150.36,128.21,150.34Z" style="fill:#f5f7f6"/><path d="M158.89,117.61c-.3.11-.58.31-.92.22,0-.1,0-.2,0-.3,0-.55.29-.77.78-.51C159,117.15,158.82,117.42,158.89,117.61Z" style="fill:#f8c255"/><path d="M58.63,109.12a1.73,1.73,0,0,1,0-.78c.71-.08.8,0,.7.48S58.85,109,58.63,109.12Z" style="fill:#f8c255"/><path d="M117.13,109.95l-.65-.2c.64-.23,1.2-.63,1.86-.82h0C118,109.38,117.52,109.6,117.13,109.95Z" style="fill:#f8c255"/><path d="M76,106l0-.81c.66-.1.71-.05.65.51S76.18,105.92,76,106Z" style="fill:#f8c255"/><path d="M118.34,108.93l0-.07h.06l-.06.06Z" style="fill:#f8c255"/><path d="M69.08,127.57c-.1-3-.21-5.93-.19-8.9,0-.53-.19-.57-.62-.5-3.13.51-6.24,1.09-9.33,1.81l-.2,0c-.11-.47,0-.71.55-.83,3.31-.73,6.64-1.4,10-1.93.37-.06.5,0,.5.42q.07,4.66.2,9.32C70,127.78,69.42,127.44,69.08,127.57Z" style="fill:#1c5630"/><path d="M183.06,129c-.09,0-.17,0-.22-.09S183,128.87,183.06,129Z" style="fill:#1c5630"/><path d="M189,108.09c.07.16-.05.1-.12.1S188.9,108.07,189,108.09Z" style="fill:#1c5630"/><path d="M114,108.43a4,4,0,0,1-1.56.47,23.24,23.24,0,0,1-3,.2c-.24,0-.37,0-.38-.33,0-2,0-4-.07-6a9.75,9.75,0,0,1,2.14.11,3.53,3.53,0,0,1,3.14,3.43A6,6,0,0,1,114,108.43Z" style="fill:#1c5630"/><path d="M109,102c-.15-.76-.15-.78.54-.87a11.89,11.89,0,0,1,3.06-.08,3.74,3.74,0,0,1,3.47,4.73,3.14,3.14,0,0,1-1.18,2.18c-.12-.09,0-.19,0-.27a5.21,5.21,0,0,0,.32-2.26,3.37,3.37,0,0,0-2.47-3.23A8.22,8.22,0,0,0,109,102Z" style="fill:#1c5630"/><path d="M109,102a8.22,8.22,0,0,1,3.75.2,3.37,3.37,0,0,1,2.47,3.23,5.21,5.21,0,0,1-.32,2.26c0,.08-.13.18,0,.27h0c-.14-.06-.09,0-.1.11a1.55,1.55,0,0,1-.73.42,6,6,0,0,0,.26-2.12,3.53,3.53,0,0,0-3.14-3.43,9.75,9.75,0,0,0-2.14-.11Z" style="fill:#f8c255"/><path d="M114.75,108c0-.06,0-.17.1-.11Z" style="fill:#1c5630"/><path d="M89.63,114l-5.46.66c.81-2.35,1.62-4.61,2.59-6.82C87.82,109.87,88.75,111.94,89.63,114Z" style="fill:#1c5630"/><path d="M92.79,118.87c-.32-.88-.64-1.76-1-2.65a.46.46,0,0,0-.57-.35c-2.35.2-4.69.45-7,.8l-.66.07c0-.63.35-.81.95-.9,2.48-.36,5-.62,7.47-.88a.65.65,0,0,1,.8.52c.34,1,.7,1.92,1,2.89.12.36.06.5-.33.48S93,118.87,92.79,118.87Z" style="fill:#1c5630"/><path d="M87.38,106.37l.62-1.48c1.5,2.92,2.84,5.84,4.08,8.81a4.81,4.81,0,0,1-1.23.15C89.79,111.31,88.64,108.82,87.38,106.37Z" style="fill:#1c5630"/><path d="M87.38,106.37c1.27,2.44,2.41,4.94,3.47,7.48a6.27,6.27,0,0,1-1.22.18c-.88-2.09-1.81-4.16-2.88-6.16Z" style="fill:#f8c255"/><path d="M174.95,111.29c-.08-.14,0-.18.12-.21C175.15,111.22,175,111.25,174.95,111.29Z" style="fill:#1c5630"/><path d="M175.16,111c0-.08,0-.18.11-.11S175.27,111,175.16,111Z" style="fill:#1c5630"/><path d="M175.05,111.09c0-.08,0-.15.11-.11S175.18,111.15,175.05,111.09Z" style="fill:#1c5630"/><path d="M174.84,111.43c0-.08,0-.16.11-.14Z" style="fill:#1c5630"/><path d="M105,131.06a5.48,5.48,0,0,1,1.07.12c.38.07.39.24.19.52a3.06,3.06,0,0,1-2.16,1.12c-.3,0-.71.21-.89-.11s.18-.55.36-.78C103.93,131.43,104.3,130.9,105,131.06Z" style="fill:#1c5630"/><path d="M135.52,133.49c-.25,0-.31-.12-.25-.3a.88.88,0,0,1,.18-.31,7.79,7.79,0,0,1,2.32-1.74c.15-.08.36-.18.47,0s-.05.32-.16.44a8.34,8.34,0,0,1-2.16,1.78A2.63,2.63,0,0,1,135.52,133.49Z" style="fill:#1c5630"/><path d="M158.39,131.93a6.66,6.66,0,0,0,1.66-1.17c.14-.13.37-.21.5,0s0,.34-.15.48A3,3,0,0,1,158.39,131.93Z" style="fill:#1c5630"/><path d="M111.16,131.93a7.7,7.7,0,0,0,1.69-1.19c.15-.13.37-.19.5,0s-.05.31-.16.44A2.91,2.91,0,0,1,111.16,131.93Z" style="fill:#1c5630"/><path d="M151.86,152.28c-.07.26.13.64-.2.9a.86.86,0,0,1-1.33-.32,2.34,2.34,0,0,1,0-1.89.71.71,0,0,1,.7-.51.73.73,0,0,1,.66.55A3,3,0,0,1,151.86,152.28Z" style="fill:#1c5630"/><path d="M105.09,153.18c0,.24,0,.48,0,.71s.11.43-.17.52a.73.73,0,0,1-.73-.08,1.84,1.84,0,0,1,0-2.33.79.79,0,0,1,.77-.12c.29.08.14.34.16.52s0,.51,0,.76Z" style="fill:#1c5630"/><path d="M117.69,153.22c0,.26,0,.51,0,.77s.13.48-.19.56a.77.77,0,0,1-.77-.15,2,2,0,0,1,0-2.41.71.71,0,0,1,.77-.11c.29.1.17.34.18.52s0,.55,0,.82Z" style="fill:#1c5630"/><path d="M161.11,151c0,.75,0,1.36,0,2,0,.18,0,.34-.26.33-.45,0-.91,0-1.5,0A23.8,23.8,0,0,1,161.11,151Z" style="fill:#1c5630"/><path d="M100.35,153.8c0,.31.09.71-.51.71a.71.71,0,0,1-.71-.76.74.74,0,0,1,.79-.85C100.33,152.9,100.33,152.9,100.35,153.8Z" style="fill:#1c5630"/><path d="M141,153.16c-.19-.16-.59.2-.62-.28s.35-1.09.73-1.07.6.44.6,1S141.23,153,141,153.16Z" style="fill:#1c5630"/></svg>