<svg xmlns="http://www.w3.org/2000/svg" viewBox="0 0 250 250"><title>CR</title><path d="M126.31,178.7h-2.62c0-2.06,0-4.11,0-6.17,0-.33-.17-.31-.4-.32-2.59,0-5.18-.06-7.77-.16q-4.31-.16-8.62-.45-3.93-.26-7.85-.67c-2.72-.28-5.44-.59-8.15-1-3.29-.46-6.57-.93-9.84-1.53q-6.23-1.15-12.42-2.53c-5.4-1.2-10.75-2.6-16-4.25a28.82,28.82,0,0,1-6-2.47,6.89,6.89,0,0,1-3.51-4.67,24.64,24.64,0,0,1-.38-5.05q0-24.42,0-48.83A43.11,43.11,0,0,1,43,96.23,6.69,6.69,0,0,1,46.3,91a27,27,0,0,1,6.13-2.6c4.72-1.5,9.5-2.73,14.32-3.86,5.54-1.3,11.13-2.39,16.76-3.23,3.49-.52,7-1,10.5-1.36,2.84-.33,5.69-.58,8.55-.81,2.46-.2,4.92-.35,7.38-.45,3.38-.13,6.77-.2,10.16-.28,1.08,0,2.17,0,3.25,0,.25,0,.36-.06.36-.33,0-2.26,0-4.51,0-6.77h2.62q0,3.4,0,6.8c0,.27.14.29.36.29,1.56,0,3.11,0,4.67.06,1.92,0,3.84.07,5.75.15,2.94.13,5.87.26,8.8.45q4,.26,8,.67c2.86.29,5.71.6,8.56,1,3.38.48,6.76,1,10.12,1.62,5,.87,10,2,14.93,3.22,3.94,1,7.87,2,11.71,3.37A20.73,20.73,0,0,1,204,91.17a6.67,6.67,0,0,1,2.94,4.29,23.53,23.53,0,0,1,.39,5q0,24.51,0,49a39.29,39.29,0,0,1-.27,4.36,6.49,6.49,0,0,1-3.06,5,18.51,18.51,0,0,1-2.33,1.26,57.29,57.29,0,0,1-7.94,2.68c-6,1.71-12.13,3.22-18.29,4.44q-4.68.93-9.39,1.73c-2.78.47-5.58.87-8.37,1.25-2,.27-4,.49-6,.7s-4,.41-6.06.57-4,.29-6.07.39q-4.16.2-8.32.33c-1.49,0-3,0-4.49,0-.24,0-.37,0-.36.32C126.3,174.58,126.3,176.64,126.31,178.7Zm71.38-73.12h-.45q-13.07,0-26.14,0a19.27,19.27,0,0,0-2.86.23,3.93,3.93,0,0,0-3.43,3,16.51,16.51,0,0,0-.49,4.47c0,3.35,0,6.7,0,10.06a15.62,15.62,0,0,0,.4,3.74,3,3,0,0,0,2.71,2.51,15.88,15.88,0,0,0,2.08.15h19.22c0,1.48,0,2.9,0,4.32,0,.57,0,.57-.56.57H164.85l-.5,0v9.67h.43q13.4,0,26.81,0a22.46,22.46,0,0,0,3-.22,3.86,3.86,0,0,0,3.55-3.13,16.56,16.56,0,0,0,.44-3.32q.08-5.44,0-10.88a20.93,20.93,0,0,0-.38-3.66,3.22,3.22,0,0,0-3.26-2.88c-1-.08-1.91-.14-2.87-.14q-8.75,0-17.5,0c-.32,0-.43-.08-.43-.41,0-1.31,0-2.62,0-3.93,0-.5,0-.5.51-.5h23Zm-46.37,24.19c0,.21,0,.37,0,.53q0,1.91,0,3.81c0,.55,0,.55-.55.55H127.38c-.49,0-.49,0-.49.49q0,4.36,0,8.71c0,.49,0,.49.49.49q13.37,0,26.73,0a23.33,23.33,0,0,0,3-.22,4,4,0,0,0,3.64-3.29,18.21,18.21,0,0,0,.4-4.34c0-3.53,0-7.05,0-10.58a10.81,10.81,0,0,0-.55-3.49,3,3,0,0,0-2.56-2.11,24.26,24.26,0,0,0-3.09-.22c-5.9,0-11.79,0-17.69,0h-.48v-4.85h23.46v-9.66h-.43q-13,0-26.1,0a19.65,19.65,0,0,0-2.86.23,3.83,3.83,0,0,0-3.45,3.1,15.47,15.47,0,0,0-.43,3.13c-.05,3.74,0,7.48,0,11.22a15.65,15.65,0,0,0,.39,3.78,3,3,0,0,0,2.93,2.58,20.1,20.1,0,0,0,2.2.14h18.89Zm-28.27-24.19h-24a26.4,26.4,0,0,0-2.68.15,4.07,4.07,0,0,0-3.85,3.3,15.4,15.4,0,0,0-.43,4q0,11.93,0,23.85a21.58,21.58,0,0,0,.37,3.7,4,4,0,0,0,3.47,3.5,20,20,0,0,0,3,.24q11.83,0,23.67,0H123v-9.69H102.43c-.51,0-.51,0-.51-.52q0-1.94,0-3.89c0-.49,0-.49.49-.49H123v-9.68H102.37c-.36,0-.46-.1-.46-.46,0-1.28,0-2.57,0-3.85,0-.53,0-.53.52-.53h20.61ZM61.39,144.33v-.52q0-6.77,0-13.53c0-.52,0-.52.53-.52H78c0,.21,0,.4,0,.58q0,6.77,0,13.53c0,.37.09.48.48.48,3,0,6.08,0,9.12,0h.4V105.57H78.58c-.53,0-.53,0-.53.53q0,6.71,0,13.42c0,.18,0,.36,0,.56H61.9c-.52,0-.52,0-.52-.53q0-6.73,0-13.46c0-.17,0-.34,0-.49H51.42v38.73Z" style="fill:#fff"/><path d="M123.69,71.3c0,2.26,0,4.51,0,6.77,0,.27-.11.33-.36.33-1.08,0-2.17,0-3.25,0-3.39.08-6.77.15-10.16.28-2.46.1-4.92.25-7.38.45-2.85.23-5.7.48-8.55.81-3.51.4-7,.84-10.5,1.36-5.63.84-11.22,1.93-16.76,3.23-4.82,1.13-9.61,2.36-14.32,3.86A27,27,0,0,0,46.3,91,6.69,6.69,0,0,0,43,96.23a43.11,43.11,0,0,0-.26,4.39q0,24.42,0,48.83a24.64,24.64,0,0,0,.38,5.05,6.89,6.89,0,0,0,3.51,4.67,28.82,28.82,0,0,0,6,2.47c5.28,1.65,10.63,3.06,16,4.25q6.19,1.37,12.42,2.53c3.26.6,6.55,1.07,9.84,1.53,2.71.38,5.43.69,8.15,1s5.23.5,7.85.67q4.3.29,8.62.45c2.59.1,5.18.11,7.77.16.23,0,.41,0,.4.32,0,2.06,0,4.11,0,6.17H35V71.3Z" style="fill:#018a5e"/><path d="M126.31,178.7c0-2.06,0-4.11,0-6.17,0-.28.13-.32.36-.32,1.5,0,3,0,4.49,0q4.16-.13,8.32-.33,3-.15,6.07-.39c2-.16,4-.36,6.06-.57s4-.42,6-.7c2.79-.38,5.59-.78,8.37-1.25q4.7-.79,9.39-1.73c6.16-1.22,12.25-2.73,18.29-4.44a57.29,57.29,0,0,0,7.94-2.68,18.51,18.51,0,0,0,2.33-1.26,6.49,6.49,0,0,0,3.06-5,39.29,39.29,0,0,0,.27-4.36q0-24.51,0-49a23.53,23.53,0,0,0-.39-5A6.67,6.67,0,0,0,204,91.17a20.73,20.73,0,0,0-4.79-2.23c-3.84-1.33-7.77-2.37-11.71-3.37-4.94-1.25-9.91-2.36-14.93-3.22-3.37-.58-6.74-1.14-10.12-1.62-2.84-.4-5.7-.71-8.56-1q-4-.4-8-.67c-2.93-.19-5.87-.33-8.8-.45-1.92-.08-3.83-.11-5.75-.15-1.56,0-3.11,0-4.67-.06-.21,0-.36,0-.36-.29q0-3.4,0-6.8H215V178.7Z" style="fill:#018a5e"/><path d="M197.69,105.57v9.68h-23c-.51,0-.51,0-.51.5,0,1.31,0,2.62,0,3.93,0,.34.1.41.43.41q8.75,0,17.5,0c1,0,1.92.06,2.87.14a3.22,3.22,0,0,1,3.26,2.88,20.93,20.93,0,0,1,.38,3.66q.07,5.44,0,10.88a16.56,16.56,0,0,1-.44,3.32,3.86,3.86,0,0,1-3.55,3.13,22.46,22.46,0,0,1-3,.22q-13.4,0-26.81,0h-.43v-9.67l.5,0h23.37c.56,0,.56,0,.56-.57,0-1.42,0-2.84,0-4.32H169.56a15.88,15.88,0,0,1-2.08-.15,3,3,0,0,1-2.71-2.51,15.62,15.62,0,0,1-.4-3.74c0-3.35-.05-6.7,0-10.06a16.51,16.51,0,0,1,.49-4.47,3.93,3.93,0,0,1,3.43-3,19.27,19.27,0,0,1,2.86-.23q13.07,0,26.14,0Z" style="fill:#018a5e"/><path d="M151.32,129.76H132.43a20.1,20.1,0,0,1-2.2-.14,3,3,0,0,1-2.93-2.58,15.65,15.65,0,0,1-.39-3.78c0-3.74,0-7.48,0-11.22a15.47,15.47,0,0,1,.43-3.13,3.83,3.83,0,0,1,3.45-3.1,19.65,19.65,0,0,1,2.86-.23q13,0,26.1,0h.43v9.66H136.76v4.85h.48c5.9,0,11.79,0,17.69,0a24.26,24.26,0,0,1,3.09.22,3,3,0,0,1,2.56,2.11,10.81,10.81,0,0,1,.55,3.49c0,3.53,0,7.05,0,10.58a18.21,18.21,0,0,1-.4,4.34,4,4,0,0,1-3.64,3.29,23.33,23.33,0,0,1-3,.22q-13.37,0-26.73,0c-.48,0-.49,0-.49-.49q0-4.36,0-8.71c0-.49,0-.49.49-.49h23.41c.55,0,.55,0,.55-.55q0-1.91,0-3.81C151.34,130.13,151.33,130,151.32,129.76Z" style="fill:#018a5e"/><path d="M123.05,105.57v9.68H102.44c-.52,0-.52,0-.52.53,0,1.28,0,2.57,0,3.85,0,.36.1.46.46.46H123v9.68H102.41c-.49,0-.49,0-.49.49q0,1.94,0,3.89c0,.52,0,.52.51.52H123v9.69h-.39q-11.83,0-23.67,0a20,20,0,0,1-3-.24,4,4,0,0,1-3.47-3.5,21.58,21.58,0,0,1-.37-3.7q0-11.93,0-23.85a15.4,15.4,0,0,1,.43-4,4.07,4.07,0,0,1,3.85-3.3,26.4,26.4,0,0,1,2.68-.15h24Z" style="fill:#018a5e"/><path d="M61.39,144.33h-10V105.6h9.94c0,.16,0,.32,0,.49q0,6.73,0,13.46c0,.53,0,.53.52.53H78c0-.2,0-.38,0-.56q0-6.71,0-13.42c0-.53,0-.53.53-.53h9.47v38.77h-.4c-3,0-6.08,0-9.12,0-.39,0-.48-.11-.48-.48q0-6.77,0-13.53c0-.18,0-.37,0-.58H61.92c-.53,0-.53,0-.53.52q0,6.77,0,13.53Z" style="fill:#018a5e"/></svg>