<svg xmlns="http://www.w3.org/2000/svg" viewBox="0 0 250 250"><title>Grocery</title><path d="M56,135.07l-1.23,5.18a.63.63,0,0,1-.6.46c-.27,0-.49-.22-.39-.46v0a2.72,2.72,0,0,1-1.47.48,1.72,1.72,0,0,1-1.85-2.14l.42-1.81a2.83,2.83,0,0,1,2.85-2.13,1.76,1.76,0,0,1,1.24.47v0c0-.24.34-.44.6-.44A.37.37,0,0,1,56,135.07Zm-1.86,3.66.5-2.13c.15-.68-.36-1.08-1.1-1.08a1.58,1.58,0,0,0-1.65,1.23l-.42,1.81a1,1,0,0,0,1.06,1.27A1.59,1.59,0,0,0,54.18,138.74Z" style="fill:#006eb9"/><path d="M69.68,135.1a.6.6,0,0,1-.61.52H67.29l-1.09,4.64a.62.62,0,0,1-.59.46.37.37,0,0,1-.4-.46l1.09-4.64h-.87a.37.37,0,0,1-.4-.37.59.59,0,0,1,.61-.53h.87l.29-1.23a2.51,2.51,0,0,1,.89-1.37,2.63,2.63,0,0,1,1.62-.57H70a.38.38,0,0,1,.4.37.6.6,0,0,1-.61.53h-.71a1.38,1.38,0,0,0-1.31,1l-.29,1.23h1.77A.38.38,0,0,1,69.68,135.1Z" style="fill:#006eb9"/><path d="M78,136.19c-.06.56-1,.72-1,0,0-.53-.27-.72-.91-.72a1.65,1.65,0,0,0-1.63,1.15l-.85,3.63a.62.62,0,0,1-.6.46.37.37,0,0,1-.4-.46l1.21-5.17a.65.65,0,0,1,.61-.44.37.37,0,0,1,.39.44,1.64,1.64,0,0,1-.06.25,2,2,0,0,1,1.58-.72C77.52,134.62,78.12,135.3,78,136.19Z" style="fill:#006eb9"/><path d="M87,136.79l-.21.87a.63.63,0,0,1-.6.44H83l-.11.48c-.21.91.32,1.23,1.06,1.23a1.75,1.75,0,0,0,1.38-.67.64.64,0,0,1,.73-.23.43.43,0,0,1,.1.64,3,3,0,0,1-2.41,1.15,1.72,1.72,0,0,1-1.86-2.12l.42-1.82a3,3,0,0,1,2.86-2.12A1.73,1.73,0,0,1,87,136.79Zm-3.8.42h2.69l.1-.44c.17-.73-.1-1.23-1-1.23a1.74,1.74,0,0,0-1.65,1.23Z" style="fill:#006eb9"/><path d="M90.62,139.5a.48.48,0,0,1,.31-.59c.28-.11.61,0,.68.19.2.62.92.72,1.34.72s1.35-.09,1.35-.91c0-.38-.38-.59-1.19-.85s-1.77-.48-1.77-1.59,1.21-1.82,2.58-1.82c1,0,1.74.47,1.87,1.25a.57.57,0,0,1-.43.58c-.28.08-.53,0-.57-.28-.07-.42-.46-.67-1.07-.67s-1.35.28-1.35.89.89.7,1.34.85c.87.28,1.62.64,1.62,1.61,0,1.32-1.42,1.85-2.58,1.85A2,2,0,0,1,90.62,139.5Z" style="fill:#006eb9"/><path d="M105.17,136.77l-.82,3.49a.62.62,0,0,1-.6.46.37.37,0,0,1-.4-.46l.82-3.49c.21-.83-.36-1.23-1-1.23a1.55,1.55,0,0,0-1.61,1.07l-.87,3.64a.62.62,0,0,1-.6.46.36.36,0,0,1-.39-.46L101.6,132a.61.61,0,0,1,.59-.44.37.37,0,0,1,.4.44l-.73,3.11a2.66,2.66,0,0,1,1.47-.47A1.72,1.72,0,0,1,105.17,136.77Z" style="fill:#006eb9"/><path d="M121.08,136.79l-.21.87a.63.63,0,0,1-.6.44h-3.2l-.11.48c-.21.91.32,1.23,1.06,1.23a1.75,1.75,0,0,0,1.38-.67.64.64,0,0,1,.73-.23.43.43,0,0,1,.1.64,3,3,0,0,1-2.41,1.15,1.72,1.72,0,0,1-1.86-2.12l.42-1.82a3,3,0,0,1,2.86-2.12A1.73,1.73,0,0,1,121.08,136.79Zm-3.8.42H120l.1-.44c.17-.73-.1-1.23-1-1.23a1.74,1.74,0,0,0-1.65,1.23Z" style="fill:#006eb9"/><path d="M128.59,140.71a.38.38,0,0,1-.36-.21l-1-2-1.93,2a.68.68,0,0,1-.47.21.39.39,0,0,1-.25-.7l2.27-2.4-1.09-2.28a.56.56,0,0,1,.56-.7.42.42,0,0,1,.38.2l.92,1.93,1.84-1.93a.69.69,0,0,1,.47-.2.39.39,0,0,1,.25.7L128,137.61l1.14,2.4C129.31,140.3,129,140.71,128.59,140.71Z" style="fill:#006eb9"/><path d="M134.87,140.24l-.73,3.11a.63.63,0,0,1-.6.44.37.37,0,0,1-.39-.44l1.94-8.26a.62.62,0,0,1,.59-.46.39.39,0,0,1,.4.46v0a2.63,2.63,0,0,1,1.45-.48,1.73,1.73,0,0,1,1.86,2.14l-.43,1.81a3,3,0,0,1-2.85,2.12A1.76,1.76,0,0,1,134.87,140.24Zm3.53-3.47c.22-.91-.28-1.23-1.07-1.23a1.55,1.55,0,0,0-1.61,1.07l-.49,2.11c-.17.68.35,1.13,1.1,1.13a1.76,1.76,0,0,0,1.63-1.28Z" style="fill:#006eb9"/><path d="M148.78,136.79l-.21.87a.63.63,0,0,1-.6.44h-3.2l-.11.48c-.21.91.32,1.23,1.06,1.23a1.75,1.75,0,0,0,1.38-.67.64.64,0,0,1,.73-.23.43.43,0,0,1,.1.64,3,3,0,0,1-2.41,1.15,1.72,1.72,0,0,1-1.86-2.12l.42-1.82a3,3,0,0,1,2.86-2.12A1.73,1.73,0,0,1,148.78,136.79Zm-3.8.42h2.69l.1-.44c.17-.73-.1-1.23-1-1.23a1.74,1.74,0,0,0-1.65,1.23Z" style="fill:#006eb9"/><path d="M157.86,136.19c-.06.56-1,.72-1,0,0-.53-.27-.72-.91-.72a1.65,1.65,0,0,0-1.63,1.15l-.85,3.63a.62.62,0,0,1-.6.46.37.37,0,0,1-.4-.46l1.21-5.17a.65.65,0,0,1,.61-.44.37.37,0,0,1,.39.44,1.64,1.64,0,0,1-.06.25,2,2,0,0,1,1.58-.72C157.34,134.62,157.94,135.3,157.86,136.19Z" style="fill:#006eb9"/><path d="M164,135.1l-1.21,5.16a.62.62,0,0,1-.59.46.37.37,0,0,1-.4-.46L163,135.1a.64.64,0,0,1,.61-.46A.36.36,0,0,1,164,135.1Zm.8-2.1a1,1,0,0,1-1,.81.58.58,0,0,1-.63-.58,1,1,0,0,1,.95-.83A.61.61,0,0,1,164.78,133Z" style="fill:#006eb9"/><path d="M173.42,136.79l-.21.87a.63.63,0,0,1-.6.44h-3.2l-.11.48c-.21.91.32,1.23,1.06,1.23a1.75,1.75,0,0,0,1.38-.67.64.64,0,0,1,.73-.23.43.43,0,0,1,.1.64,3,3,0,0,1-2.41,1.15,1.72,1.72,0,0,1-1.86-2.12l.42-1.82a3,3,0,0,1,2.86-2.12A1.73,1.73,0,0,1,173.42,136.79Zm-3.8.42h2.69l.1-.44c.17-.73-.1-1.23-1-1.23a1.74,1.74,0,0,0-1.65,1.23Z" style="fill:#006eb9"/><path d="M182.72,136.77l-.82,3.5a.63.63,0,0,1-.59.44.37.37,0,0,1-.4-.44l.82-3.5a1,1,0,0,0-1.06-1.23,1.56,1.56,0,0,0-1.61,1.07l-.87,3.65a.63.63,0,0,1-.59.44.37.37,0,0,1-.4-.44l1.21-5.19a.65.65,0,0,1,.61-.44.37.37,0,0,1,.38.44v0a2.56,2.56,0,0,1,1.47-.47A1.71,1.71,0,0,1,182.72,136.77Z" style="fill:#006eb9"/><path d="M186.91,138.56l.42-1.77a2.85,2.85,0,0,1,2.85-2.15c1.34,0,1.87.76,1.87,1.71,0,.7-1,.75-1,.08s-.4-.94-1.1-.94a1.72,1.72,0,0,0-1.66,1.3l-.42,1.77c-.22.91.35,1.29,1.06,1.29a1.8,1.8,0,0,0,1.58-1.09.65.65,0,0,1,.67-.38.38.38,0,0,1,.29.53,2.93,2.93,0,0,1-2.75,1.8A1.72,1.72,0,0,1,186.91,138.56Z" style="fill:#006eb9"/><path d="M201.1,136.79l-.21.87a.63.63,0,0,1-.6.44h-3.2l-.11.48c-.21.91.32,1.23,1.06,1.23a1.75,1.75,0,0,0,1.38-.67.64.64,0,0,1,.73-.23.43.43,0,0,1,.1.64,3,3,0,0,1-2.41,1.15,1.72,1.72,0,0,1-1.86-2.12l.42-1.82a3,3,0,0,1,2.86-2.12A1.73,1.73,0,0,1,201.1,136.79Zm-3.8.42H200l.1-.44c.17-.73-.1-1.23-1-1.23a1.74,1.74,0,0,0-1.65,1.23Z" style="fill:#006eb9"/><path d="M170.11,128.26c-2.06,0-4,0-5.94,0a1.06,1.06,0,0,1-.72-.68,10.51,10.51,0,0,1-.22-2.07c0-.59-.3-.81-.85-.81-2.1,0-4.19,0-6.29,0-.29,0-.58.33-.85.53-.09.06-.11.21-.17.32-.46.88-.72,2.1-1.44,2.55s-1.94.16-2.94.16h-20c.24-1.36.45-2.66.69-3.95,1-5.41,2-10.82,3-16.24.12-.64.35-.88,1-.87q2.32,0,4.65,0c.72,0,.85.22.71.93-.93,4.84-1.81,9.7-2.71,14.55,0,.11,0,.23,0,.55h10.15l-.75,4.31.22.07c.15-.25.32-.49.46-.74q5.29-9.4,10.57-18.81a1.4,1.4,0,0,1,1.42-.86c1.76.05,3.52,0,5.28,0,.66,0,.9.26,1,.87q1.79,9.55,3.61,19.09C170,127.48,170.06,127.81,170.11,128.26Zm-12.46-7.9c1.69,0,3.08,0,4.46,0,.15,0,.44-.39.42-.58-.14-1.5-.33-3-.51-4.5-.1-.84-.22-1.67-.33-2.51l-.28,0Z" style="fill:#006eb9"/><path d="M104.82,112.41c-.15.27-.31.54-.43.83-2.08,4.68-4.17,9.36-6.22,14.06a1.32,1.32,0,0,1-1.48,1c-1-.08-2,0-3,0a.91.91,0,0,1-.63-.6c-.28-3.44-.51-6.89-.75-10.34-.11-1.6-.24-3.19-.36-4.79l-.25,0c-.18.85-.37,1.69-.53,2.55-.76,4.08-1.53,8.15-2.25,12.23-.14.76-.41,1.08-1.23,1-1.32-.08-2.66,0-4.11,0,.27-1.54.52-3,.78-4.37q1.43-7.68,2.87-15.35c.25-1.32.23-1.33,1.59-1.33,2,0,4.07,0,6.11,0,.8,0,1.08.2,1.13,1.06.19,3.69.48,7.38.74,11.07a4.35,4.35,0,0,0,.23.73c.26-.55.43-.88.59-1.23,1.59-3.58,3.18-7.15,4.74-10.74a1.25,1.25,0,0,1,1.35-.9c2.16.05,4.31,0,6.47,0,.3,0,.59,0,1,.06-.33,1.84-.64,3.58-1,5.33q-1.34,7.19-2.68,14.37c-.24,1.28-.22,1.29-1.52,1.29-1,0-1.95,0-2.92,0-.7,0-1-.09-.79-.92.94-4.81,1.81-9.64,2.7-14.46,0-.14,0-.28,0-.42Z" style="fill:#006eb9"/><path d="M179.47,116.78c-.22,1.11-.46,2.22-.67,3.33-.45,2.41-.9,4.82-1.31,7.23-.12.68-.4,1-1.13.93-1.33-.06-2.67-.05-4,0-.77,0-1-.16-.84-1q1.82-9.49,3.55-19c.15-.81.44-1.13,1.28-1.09a37.11,37.11,0,0,0,3.82,0,1.45,1.45,0,0,1,1.6,1c1.52,3.2,3.12,6.37,4.69,9.55a2.6,2.6,0,0,0,.78,1c.26-1.31.52-2.61.77-3.92.43-2.29.85-4.58,1.3-6.87,0-.25.29-.65.45-.66,1.84,0,3.67,0,5.61,0-.41,2.22-.79,4.29-1.17,6.37-.83,4.43-1.66,8.86-2.48,13.29-.25,1.35-.23,1.36-1.56,1.36s-2.61,0-3.92,0a1.1,1.1,0,0,1-1.18-.75c-1.61-3.3-3.25-6.58-4.88-9.87-.15-.29-.31-.58-.46-.87Z" style="fill:#006eb9"/><path d="M45.32,114.51a10,10,0,0,0,1.06.12c1.76,0,3.52,0,5.28,0,.86,0,1.14-.34,1.27-1.13.31-1.88.68-3.75,1.06-5.62,0-.24.29-.64.44-.64,2,0,3.93,0,6,0-.34,1.87-.65,3.62-1,5.36Q58.14,119.78,56.8,127c-.24,1.3-.22,1.3-1.51,1.31H50.18l1.56-8.55a7.51,7.51,0,0,0-.89-.12c-1.85,0-3.7,0-5.56,0-.71,0-1,.25-1.1,1-.37,2.3-.84,4.58-1.25,6.87-.11.59-.34.88-1,.85-1.55-.05-3.1,0-4.64,0-.69,0-.84-.26-.73-.87q1.82-9.72,3.63-19.45a.79.79,0,0,1,.93-.75q2.37,0,4.74,0c.7,0,.82.28.7.9C46.12,110.21,45.74,112.31,45.32,114.51Z" style="fill:#006eb9"/><path d="M194.94,128.15c.26-1.47.52-2.92.78-4.36,1-5.15,1.93-10.29,2.87-15.44.14-.79.38-1.18,1.31-1.16,3.25.08,6.5,0,9.75.06,4.33.08,6.86,2.67,6.85,7a16.2,16.2,0,0,1-2.52,9.33A9.56,9.56,0,0,1,206.4,128c-3.66.21-7.34.15-11,.21A2.32,2.32,0,0,1,194.94,128.15Zm7.17-4.45c1.23-.07,2.27-.15,3.31-.2a3.84,3.84,0,0,0,3.51-2.6,14.26,14.26,0,0,0,1.14-6.2,2.55,2.55,0,0,0-2.15-2.66,22.73,22.73,0,0,0-2.78-.3c-.61-.07-.87.25-1,.81-.16.92-.33,1.84-.5,2.76Z" style="fill:#006eb9"/><path d="M74,106.73c1.23.17,2.48.24,3.67.53a6.7,6.7,0,0,1,5.43,6.46c.25,4.32-.8,8.26-3.91,11.43a10.71,10.71,0,0,1-7.3,3.29,22.55,22.55,0,0,1-4.78-.17c-3.77-.63-6-2.84-6.24-6.63-.31-4.82,1.07-9.14,5-12.29A13.26,13.26,0,0,1,74,106.73Zm-6.78,12.53c0,2.86.83,4.13,2.63,4.53a5,5,0,0,0,5.49-2.5,13,13,0,0,0,1.47-5.86c.06-2.3-1.09-3.64-3.35-3.85a4.78,4.78,0,0,0-4.74,2.47A11.29,11.29,0,0,0,67.19,119.27Z" style="fill:#006eb9"/><path d="M117.63,123.64h11.32c-.28,1.49-.51,2.88-.84,4.24,0,.19-.57.37-.87.37-3.62,0-7.23,0-10.85,0h-6c.24-1.39.44-2.69.68-4,1-5.42,2-10.83,3-16.25.1-.53.25-.82.84-.82h16.23a2.38,2.38,0,0,1,.44.1c-.23,1.27-.42,2.52-.71,3.75,0,.19-.55.39-.85.39-3.07,0-6.14,0-9.21,0-.82,0-1.14.26-1.22,1s-.27,1.6-.44,2.52c.43,0,.75.05,1.07.05,2.7,0,5.41,0,8.11,0,.75,0,1.08.14.83,1a11,11,0,0,0-.42,2.23c-.06.72-.39.91-1.06.9-2.67,0-5.35,0-8,0-1.31,0-1.31,0-1.54,1.29C118,121.48,117.85,122.48,117.63,123.64Z" style="fill:#006eb9"/></svg>