<svg id="Layer_1" data-name="Layer 1" xmlns="http://www.w3.org/2000/svg" viewBox="0 0 100 100"><defs><style>.cls-1{fill:none;stroke:#040404;stroke-miterlimit:10;stroke-width:1.7px;}</style></defs><title>ICON_1-9</title><path class="cls-1" d="M32,53.77a157.25,157.25,0,0,0,34.8,0,1.43,1.43,0,0,1,1.62,1.52C68,61.12,67.06,75,66.77,79.19a1.48,1.48,0,0,1-1.27,1.37c-4.24.62-19,2.49-31.08.32a1.5,1.5,0,0,1-1.21-1.31L30.46,55.37A1.43,1.43,0,0,1,32,53.77Z"/><line class="cls-1" x1="32.8" y1="53.82" x2="31.92" y2="39.75"/><line class="cls-1" x1="67.2" y1="39.65" x2="66.84" y2="53.79"/><path class="cls-1" d="M69.84,38.92a30.82,30.82,0,0,0-1.12-4.79H31.28a30.81,30.81,0,0,0-1.12,4.79h0v0A140,140,0,0,0,50,40.1,140,140,0,0,0,69.84,39v0Z"/><path class="cls-1" d="M33.53,34.13l.56-6.31a1.6,1.6,0,0,1,1.6-1.46H64.16a1.6,1.6,0,0,1,1.6,1.47l.47,5.86"/><path class="cls-1" d="M39.57,54.43s9.68-12.39,19.57.07"/><path class="cls-1" d="M34.58,81.19l.52,7.65a2.61,2.61,0,0,0,2.19,2.4c4.3.71,14.73,2,25,.1a2.63,2.63,0,0,0,2.15-2.41l.53-8.18"/><line class="cls-1" x1="40.3" y1="23.5" x2="40.3" y2="15.73"/><line class="cls-1" x1="44.04" y1="19.03" x2="44.04" y2="7.67"/></svg>