<svg xmlns="http://www.w3.org/2000/svg" viewBox="0 0 250 250"><defs><style>.a{fill:#6a1931;}.b{fill:#6e1e37;}.c{fill:#ab202d;}.d{fill:#010101;}.e{fill:#020202;}.f{fill:#fcc358;}.g{fill:#fdfcfc;}.h{fill:#fbc158;}.i{fill:#030303;}.j{fill:#0d0909;}.k{fill:#a9212e;}.l{fill:#fcfcfc;}.m{fill:#fbfbfb;}</style></defs><title>Midscale</title><path class="a" d="M210,120.25v9.07c-.19.06-.13.22-.14.35a85,85,0,0,1-79.9,79.7,84.44,84.44,0,0,1-27.66-2.93,85.18,85.18,0,0,1-62.06-75.13A9.88,9.88,0,0,0,40,128.9v-9.21c.22-.08.13-.28.14-.42A83.23,83.23,0,0,1,42,105.9a85,85,0,0,1,76.16-66.16,11.6,11.6,0,0,0,2.56-.24h8.36c.06.14.19.11.3.12,1.32.09,2.64.17,3.95.29a81.88,81.88,0,0,1,18.82,4,85,85,0,0,1,57.57,73.77A11.37,11.37,0,0,0,210,120.25ZM56.59,89.35c-.59,0-1.18.05-1.77,0s-.79.2-.91.72c-.75,3.31-1.53,6.62-2.29,9.93-.66,2.87-1.33,5.74-2,8.62a.81.81,0,0,1-.8.73,5.93,5.93,0,0,0-2.16.6,2.11,2.11,0,0,0-.48,3.64c.69.53,1.28,1,1.34,1.91,0,.28.28.51.2.86-.26,1.09-.48,2.19-.73,3.29-.42,1.86-.43,1.86,1.21,2.72-.43.09-.28.43-.29.69,0,2.59,0,5.17.25,7.76a75.37,75.37,0,0,0,1,8,76.37,76.37,0,0,0,12.4,29.61,83.53,83.53,0,0,0,7.95,9.71c1.44,1.53,3,2.92,4.57,4.32A76.8,76.8,0,0,0,93.3,194.78a77.06,77.06,0,0,0,10.61,3.85A83,83,0,0,0,114,200.77a75.72,75.72,0,0,0,9.12.79,72.18,72.18,0,0,0,9.45-.37c2-.21,4.06-.45,6.07-.81a76.9,76.9,0,0,0,25.66-9.58A79.36,79.36,0,0,0,175,183.15a76,76,0,0,0,8.52-8.45,78.23,78.23,0,0,0,6.7-9.08,76.14,76.14,0,0,0,11.07-30.19,81.84,81.84,0,0,0,.79-9.33,74.39,74.39,0,0,0-.24-8c-.16-1.85-.36-3.69-.64-5.52a73.41,73.41,0,0,0-2.06-9.28A72.37,72.37,0,0,0,193,88.26a2.13,2.13,0,0,0,2.08-1.52,8.11,8.11,0,0,0,.61-2.29c.13-1-.17-1.57-.86-1.71-.84-.17-1.08-.68-1.13-1.46,0-.38.06-.9-.44-1.09a3.58,3.58,0,0,0-1.79-.29,28.52,28.52,0,0,1-3.57.26,1.44,1.44,0,0,0-.4-.73,79.31,79.31,0,0,0-7-8.45c-1.45-1.55-3-3-4.62-4.37a76.77,76.77,0,0,0-19.15-12.37,77.43,77.43,0,0,0-10.61-3.85A82.33,82.33,0,0,0,136,48.25a76.46,76.46,0,0,0-8.19-.77,72.6,72.6,0,0,0-9.1.22,78.25,78.25,0,0,0-7.95,1.05,77.24,77.24,0,0,0-20,6.71A75.39,75.39,0,0,0,80.6,61.51a77.6,77.6,0,0,0-8.24,6.74c-1.39,1.31-2.73,2.66-4,4.05-1.55,1.65-3,3.39-4.37,5.17A73.4,73.4,0,0,0,57.65,87,6.06,6.06,0,0,0,56.59,89.35Z"/><path class="b" d="M173.45,210.5a7.51,7.51,0,0,1-3.23-1.9,6,6,0,0,1-1.29-6.43,5.87,5.87,0,0,1,5.28-4,6.14,6.14,0,0,1,7,5.26,6.22,6.22,0,0,1-4.07,6.76c-.23.08-.51,0-.67.29Zm-3.31-6.08a4.74,4.74,0,1,0,4.46-5A4.77,4.77,0,0,0,170.14,204.42Z"/><path class="c" d="M193,88.26a72.37,72.37,0,0,1,6.12,15.09,73.41,73.41,0,0,1,2.06,9.28c.28,1.83.48,3.67.64,5.52a74.39,74.39,0,0,1,.24,8,81.84,81.84,0,0,1-.79,9.33,76.14,76.14,0,0,1-11.07,30.19,78.23,78.23,0,0,1-6.7,9.08,76,76,0,0,1-8.52,8.45,79.36,79.36,0,0,1-10.66,7.64,76.9,76.9,0,0,1-25.66,9.58c-2,.36-4,.6-6.07.81a72.18,72.18,0,0,1-9.45.37,75.72,75.72,0,0,1-9.12-.79,83,83,0,0,1-10.12-2.14,77.06,77.06,0,0,1-10.61-3.85,76.8,76.8,0,0,1-19.15-12.37c-1.56-1.4-3.13-2.79-4.57-4.32a83.53,83.53,0,0,1-7.95-9.71,76.37,76.37,0,0,1-12.4-29.61,75.37,75.37,0,0,1-1-8c-.21-2.59-.27-5.17-.25-7.76,0-.25-.14-.6.29-.69.52.07.73.32.55.86-.25.77.12,1.19.81,1.52a12.42,12.42,0,0,0,6.68,1c.31,0,.29-.24.37-.43a15.47,15.47,0,0,0,.65-3.31c.26-1.86.5-3.73.75-5.6a.77.77,0,0,1,.75-.76c1.23-.21,2.44-.51,3.65-.78.51-.11.76-.07.59.57-.26,1-.48,2.06-.65,3.1-.26,1.53-.11,1.79,1.3,2.34a.72.72,0,0,1,.55.87,1.5,1.5,0,0,0,1,1.68,14.06,14.06,0,0,0,5.89.89,1,1,0,0,0,1.11-.83,6.07,6.07,0,0,0,.17-.83c.27-2.86.74-5.68,1.19-8.52A1.63,1.63,0,0,1,75,112.64c.83-.21.81-.28.84.58A7.46,7.46,0,0,0,78,118.36a3.51,3.51,0,0,1,.62.85,6.34,6.34,0,0,0,4.62,3.5,10.67,10.67,0,0,0,8-1.89c.56-.37,1-1,1.74-.18.17.21.54.26.83.37a11,11,0,0,0,4,.68c1.92,0,2,0,2.07-1.91a58.1,58.1,0,0,1,1-8.41,141.29,141.29,0,0,1,4.31-16.64c.62-2,.55-1.64-1-2.55-.44-.25-.82-.51-.64-1.14a.92.92,0,0,0-.56-1.13,11.38,11.38,0,0,0-5.84-1.32c-.86,0-1,.39-1.14,1.09-.45,2.11-1,4.21-1.52,6.3a66.22,66.22,0,0,1-4.77,13.33A13.5,13.5,0,0,1,86,114.09c-.2.15-.41.44-.66.29s-.09-.44-.07-.67a30.82,30.82,0,0,1,1.51-7.45c1.17-3.8,2.39-7.58,3.62-11.36a.7.7,0,0,0-.34-1c-.43-.25-.85-.51-1.27-.77s-.6-.53-.34-1,.06-.63-.28-.87a10.08,10.08,0,0,0-6.38-1.65c-.32,0-.38.22-.45.45-.26.83-.52,1.66-.77,2.5-1.22,4.05-2.65,8-3.7,12.14-.24.94-.44,1.9-.66,2.85a2.36,2.36,0,0,1-.36-2.23Q77.63,99.7,79.37,94c.17-.56.57-1.19.44-1.67s-.94-.69-1.45-1c-.34-.23-.92-.43-.59-1.06s.08-.77-.38-1.05a10.78,10.78,0,0,0-6.64-1.45c-.55,0-.88.12-1,.75C69.4,90,69,91.48,68.61,93c-1,4.13-2,8.27-3,12.4-.06.27-.08.61-.42.68l-5.08,1c.09-.34.16-.58.23-.83,1.19-3.84,2.36-7.69,3.58-11.52.18-.55.09-.87-.41-1.13s-.78-.45-1.16-.68-.64-.54-.36-1,0-.62-.3-.86a9.78,9.78,0,0,0-5.11-1.63A6.06,6.06,0,0,1,57.65,87a73.4,73.4,0,0,1,6.3-9.53c1.39-1.78,2.82-3.52,4.37-5.17,1.31-1.39,2.64-2.74,4-4.05a77.6,77.6,0,0,1,8.24-6.74,75.39,75.39,0,0,1,10.11-6.05,77.24,77.24,0,0,1,20-6.71,78.25,78.25,0,0,1,7.95-1.05,72.6,72.6,0,0,1,9.1-.22,76.46,76.46,0,0,1,8.19.77,82.33,82.33,0,0,1,10.12,2.13,77.43,77.43,0,0,1,10.61,3.85A76.77,76.77,0,0,1,175.84,66.6C177.42,68,179,69.42,180.46,71a79.31,79.31,0,0,1,7,8.45,1.44,1.44,0,0,1,.4.73c-1.62.16-3.23.3-4.85.48q-3.4.38-6.8.81a22.88,22.88,0,0,0-4.1.69,1.81,1.81,0,0,0-1.29,2.49,6.63,6.63,0,0,0,.58,1.29,1.32,1.32,0,0,1,.14,1c-.73,3.2-1.48,6.41-2.2,9.61a1.11,1.11,0,0,1-.47.73,2.3,2.3,0,0,0-.84,3,1.51,1.51,0,0,1,.1,1c-.48,1.87-.94,3.73-1.43,5.6,0,.16,0,.46-.3.47,0,0,0,0,0-.07s0-.33,0-.49c0-1-.53-1.46-1.51-1.39a13.85,13.85,0,0,0-1.39.2l-5.06.91c-.3.05-.56.09-.43-.41.23-.86.37-1.75.55-2.62,1.07-5,2.44-10,3.8-15,.48-1.76.24-1.76-1-2.34-.51-.23-.89-.57-.73-1.23s-.15-.95-.69-1.21a11.89,11.89,0,0,0-6.27-1c-.45,0-.59.29-.66.66l-2,9.94-.51,2.48-.53,2.64a6.42,6.42,0,0,1-.2-.64,12.64,12.64,0,0,0-3-6.32,6.74,6.74,0,0,1-.65-.92,10.7,10.7,0,0,0-5.76-4.66,17.16,17.16,0,0,0-8.37-.48,12.28,12.28,0,0,0-2.79.72,1.85,1.85,0,0,0-.9,3,4.15,4.15,0,0,0,.54.65,1.19,1.19,0,0,1,.29,1.28c-.24,1-.46,1.92-.68,2.88l-1.3,5.6a4,4,0,0,1-.17-.43,12.72,12.72,0,0,0-3-5.7,3.77,3.77,0,0,1-.39-.59,10.82,10.82,0,0,0-6.45-5,17.58,17.58,0,0,0-7.35-.35,12.92,12.92,0,0,0-3.15.76,1.88,1.88,0,0,0-.88,3.17c.18.25.39.47.59.7a.93.93,0,0,1,.2.91c-1.49,6.41-2.94,12.82-4.44,19.23a4.19,4.19,0,0,0,1.46,4.61,1.63,1.63,0,0,1,.48.68,5,5,0,0,0,3.63,3.06,9.84,9.84,0,0,0,4.33-.31,19.69,19.69,0,0,0,10.29-5.4,32.66,32.66,0,0,0,2.24-2.74,4.47,4.47,0,0,0,1.58,2.48,2.2,2.2,0,0,1,.56.79,5,5,0,0,0,3.95,3.06,10.81,10.81,0,0,0,3.71-.31,19.26,19.26,0,0,0,11.64-6.68c.42-.52.8-1.06,1.3-1.73a2.56,2.56,0,0,0,.35,1.93c.95,1,1.55,2.24,2.42,3.24a4.75,4.75,0,0,0,4.84,1.46,70.64,70.64,0,0,1,9.53-1.91,3.34,3.34,0,0,0,2.74-1.84c.21-.37.39-.76.6-1.12.11-.18.08-.54.39-.49s.41.28.5.55a4.09,4.09,0,0,0,5.07,2.78c1.37-.31,2.75-.63,4.14-.84,3.07-.47,6.14-.87,9.21-1.32.42-.06.93,0,1.25-.4a6.42,6.42,0,0,0,1.54-5.18c-.07-.44-.23-.62-.7-.66-.91-.09-1.18-.44-1.2-1.34,0-1.39-.1-1.47-1.57-1.33-2.15.21-4.27.65-6.41.95a14.24,14.24,0,0,1-2.87.34.86.86,0,0,1,.68-.4c2.6-.39,5.21-.75,7.81-1.18.7-.12,1.56,0,2.08-.52a5.69,5.69,0,0,0,1.61-4.84c-.05-.48-.35-.63-.74-.71-.89-.18-1.13-.47-1.15-1.42s-.27-1.27-1.32-1.28a29.09,29.09,0,0,0-3.86.36l-2.66.36c.5-1.69,1-3.26,1.42-4.84.09-.31.26-.38.54-.43C185.29,89.13,189.13,88.64,193,88.26Zm-79.74,65.59-.24-.17-.52-.35a5.19,5.19,0,0,0-5.48-.12c-.41.26-.51.47-.24.94q3.67,6.36,7.28,12.76c2.2,3.89,4.39,7.8,6.6,11.68a.63.63,0,0,1-.12.95c-.5.46-.95,1-1.42,1.48l-8.62,9.07a3.57,3.57,0,0,1-.63-.05c-1.62-.43-3.25-.81-4.84-1.31A67.65,67.65,0,0,1,61.27,146,66,66,0,0,1,58,130.44c0-.48-.19-.62-.64-.55a19.66,19.66,0,0,1-2,.25c-.47,0-.6.2-.56.66.09,1.25.26,2.48.43,3.72a68.26,68.26,0,0,0,6.43,20.86A70.18,70.18,0,0,0,87,183.79a69.38,69.38,0,0,0,34.77,11.09,68.51,68.51,0,0,0,13.27-.64,70.36,70.36,0,0,0,60.27-65.37,73.83,73.83,0,0,0-.61-14.82c-.08-.54-.31-.65-.8-.56a10.41,10.41,0,0,1-1.82.23c-.63,0-.67.3-.59.8a66.58,66.58,0,0,1,.73,12.12,66.72,66.72,0,0,1-20.53,46.2,66.74,66.74,0,0,1-32.16,17.33,13.91,13.91,0,0,1-3.68.6q-3-4.76-6-9.52a.59.59,0,0,1,0-.81c.78-.94,1.55-1.9,2.31-2.86a1.31,1.31,0,0,1,.83-.48c1.24-.26,2.49-.49,3.73-.77a6.18,6.18,0,0,0,3.62-1.74q5.73-6.59,11.49-13.15a1.25,1.25,0,0,0,.31-1.36,1.12,1.12,0,0,0-1.2-.69c-.55-.82-.76-.89-1.92-.61.54-1.19.17-1.9-1-2-.55-.83-.81-.91-2-.59.62-1.13.23-1.91-1-2-.56-.82-.85-.92-1.9-.6.51-1.27.17-1.91-1-2-.66-1-1.43-1.08-2.21-.18l-11.44,13.09a4.17,4.17,0,0,0-1,2.07,37,37,0,0,0-.46,5.13,2.48,2.48,0,0,1-1.22,2c0-.56,0-1.13.11-1.69a2.15,2.15,0,0,0-.45-1.7c-.77-1-1.48-2.13-2.22-3.19q-4.23-6.06-8.46-12.11a3,3,0,0,0-1.59-1.33Zm-17.3-17c0-.16.05-.33.1-.48.69-2.47,1.37-4.94,2.09-7.4.13-.45.11-.77-.37-.87-.85-.19-.87-.67-.54-1.32.25-.48.07-.74-.37-1a9.29,9.29,0,0,0-5.78-1.18c-.75.06-.92.43-1,1-.93,4.32-1.9,8.63-2.81,13a.88.88,0,0,1-.79.8c-.92.19-1.85.36-2.75.61-.62.17-.68,0-.51-.54.83-2.89,1.61-5.8,2.46-8.69.18-.62.05-.95-.53-1.11s-.66-.34-.48-.89c.33-1,.28-1-.64-1.55l-.25-.13a9.52,9.52,0,0,0-5.36-.86c-.51,0-.71.2-.8.66-.9,4.49-1.83,9-2.71,13.48-.21,1.08-.37,2.1-1.8,2.09a.63.63,0,0,0-.2.07,2.22,2.22,0,0,0-1.63,2.08,2.13,2.13,0,0,0,1.64,2.14c.54.16.49.42.41.81-.27,1.31-.54,2.63-.73,4a1.21,1.21,0,0,0,.78,1.45,28.19,28.19,0,0,0,5,1.33,9.83,9.83,0,0,0,1.62.15c.67.06,1-.25,1-.92.17-1.76.41-3.51.57-5.27s.12-1.69,1.72-2.08a11.7,11.7,0,0,1,2.31-.5c-.24,1.29-.47,2.51-.71,3.74s.06,1.92,1.37,2.4c.8.3,1.67.31,2.46.6a10.39,10.39,0,0,0,3.83.48c.41,0,.61-.14.63-.56,0-.66.08-1.32.15-2,.22-2,.43-4,.82-5.94,0-.18,0-.36.22-.48.47-.26.63-.15.76.56.46,2.47,1.64,4.44,4.09,5.35a17.6,17.6,0,0,0,4,1,11.63,11.63,0,0,0,9.85-3.44,21.81,21.81,0,0,0,3.27-4.34c.08.3.12.51.18.71a5.66,5.66,0,0,0,3.85,4.17c1,.31,2.07.38,3.07.75a3.62,3.62,0,0,0,1.4.11,8.38,8.38,0,0,0,4.67-1.81.74.74,0,0,1,.64-.22c.53.12,1.07.17,1.59.34a9.31,9.31,0,0,0,3.12.5c.93,0,.95,0,.94-.93a27.4,27.4,0,0,1,.33-4.67c.17-.06.22,0,.28.1a7.72,7.72,0,0,0,3.82,2.44c3.09.9,6.21,1.58,9.45.92,2.43-.49,4.86-1,6.76-2.78.13-.12.25-.25.4-.06,1.17,1.44,3.09.91,4.52,1.68a1.8,1.8,0,0,0,1.18,0c1.09-.28,2.19-.56,3.3-.76,2.47-.45,5-.86,7.44-1.27.21,0,.43,0,.56-.24a4.72,4.72,0,0,0,.92-2.7c0-.41-.23-.58-.58-.48-.63.19-.74,0-.55-.58a.83.83,0,0,0,0-.28c-.06-2.22-.12-2.19-2.31-1.92s-4.16.74-6.25,1.12c-.18,0-.45.24-.5-.12s-.07-.59.24-.75a2,2,0,0,1,.54-.15l7.29-1.3a.9.9,0,0,0,.67-.34A4.52,4.52,0,0,0,174,132c0-.26-.08-.44-.37-.36-.88.27-.92-.19-.76-.84a1.94,1.94,0,0,0,.05-.35c.07-1.34-.53-1.87-1.88-1.69s-2.85.35-4.25.65c-.41.09-.68.08-.5-.52.35-1.17.65-2.36.91-3.55a1,1,0,0,1,.94-.84c3-.53,6.07-1.08,9.13-1.45.3,0,.66,0,.88-.35a3.48,3.48,0,0,0,.58-2.14c0-.2,0-.51-.32-.45-1,.17-.82-.41-.76-1,0-.3-.11-.61-.08-.91,0-.55-.26-.72-.72-.84a10.13,10.13,0,0,0-3.58.09c-2.83.32-5.65.71-8.46,1.09a32.73,32.73,0,0,0-4.51.8,1.79,1.79,0,0,0-1.3,2.72,3.55,3.55,0,0,1,.26,2.61c-.32,1.42-.58,2.84-.86,4.27a10.51,10.51,0,0,0-1.19-4.21,14,14,0,0,1-.94-1.73,5.52,5.52,0,0,0-5.64-3.45,11,11,0,0,0-5.54,2.12,19.65,19.65,0,0,0-6.1,7.22l-.12-.13a10.06,10.06,0,0,1,.58-2.1c.24-.64,0-1-.58-1.14-.42-.11-.58-.27-.46-.79.27-1.13.17-1.28-.89-1.79a9.62,9.62,0,0,0-4.82-.82c-.64,0-.82.34-.91.88a83.51,83.51,0,0,1-2.59,10.75,26.45,26.45,0,0,1-3.45,7.63A4.61,4.61,0,0,1,124,143a22.33,22.33,0,0,1,.65-4.94c.81-3.41,1.89-6.75,2.85-10.11.15-.51.27-1-.42-1.14s-.74-.58-.49-1.13a.79.79,0,0,0-.37-1.14,8.64,8.64,0,0,0-5.41-1.22c-.4,0-.49.27-.58.59q-.52,1.9-1.07,3.8c-.53,1.86-1.08,3.72-1.65,5.7a3.73,3.73,0,0,1-.21-.34c-.84-1.92-1.9-3.74-2.9-5.58a5.22,5.22,0,0,0-6.18-2.77,13.39,13.39,0,0,0-6.3,3.73,25.11,25.11,0,0,0-5.85,8.67C96,137,96,136.92,95.95,136.81Zm81.12-59.53.06-.22c-15.64-16.4-34.77-24.42-57.48-22.73C97.4,56,80,66.63,67,84.6c1.3-.09,2.55-.29,3.81-.46a1.11,1.11,0,0,0,.81-.47,59.77,59.77,0,0,1,3.86-4.61A67.6,67.6,0,0,1,101.79,61.4a65.27,65.27,0,0,1,27.72-3.95q3.51.23,7,.8a64.18,64.18,0,0,1,16.31,5,66.6,66.6,0,0,1,20.15,14.15c.18.19.35.38.66.34Z"/><path class="d" d="M193,88.26c-3.86.38-7.7.88-11.52,1.52-.29,0-.46.12-.54.43-.45,1.58-.92,3.15-1.42,4.84l2.66-.36a29.09,29.09,0,0,1,3.86-.36c1,0,1.29.25,1.32,1.28s.27,1.24,1.15,1.42c.39.08.69.23.74.71a5.69,5.69,0,0,1-1.61,4.84c-.52.53-1.38.4-2.08.52-2.6.43-5.2.79-7.81,1.18a.86.86,0,0,0-.68.4,14.24,14.24,0,0,0,2.87-.34c2.14-.29,4.26-.74,6.41-.95,1.46-.14,1.54-.06,1.57,1.33,0,.9.29,1.25,1.2,1.34.47,0,.63.22.7.66a6.42,6.42,0,0,1-1.54,5.18c-.31.4-.82.34-1.25.4-3.07.46-6.14.85-9.21,1.32-1.39.21-2.77.54-4.14.84a4.09,4.09,0,0,1-5.07-2.78c-.1-.26-.24-.51-.5-.55s-.28.31-.39.49c-.22.36-.4.75-.6,1.12a3.34,3.34,0,0,1-2.74,1.84,70.64,70.64,0,0,0-9.53,1.91A4.75,4.75,0,0,1,150,115c-.87-1-1.47-2.24-2.42-3.24a2.56,2.56,0,0,1-.35-1.93c-.5.67-.88,1.21-1.3,1.73a19.26,19.26,0,0,1-11.64,6.68,10.81,10.81,0,0,1-3.71.31,5,5,0,0,1-3.95-3.06,2.2,2.2,0,0,0-.56-.79,4.47,4.47,0,0,1-1.58-2.48,32.66,32.66,0,0,1-2.24,2.74,19.69,19.69,0,0,1-10.29,5.4,9.84,9.84,0,0,1-4.33.31,5,5,0,0,1-3.63-3.06,1.63,1.63,0,0,0-.48-.68,4.19,4.19,0,0,1-1.46-4.61c1.5-6.4,3-12.82,4.44-19.23a.93.93,0,0,0-.2-.91c-.2-.23-.41-.46-.59-.7a1.88,1.88,0,0,1,.88-3.17,12.92,12.92,0,0,1,3.15-.76,17.58,17.58,0,0,1,7.35.35,10.82,10.82,0,0,1,6.45,5,3.77,3.77,0,0,0,.39.59,12.72,12.72,0,0,1,3,5.7,4,4,0,0,0,.17.43l1.3-5.6c.22-1,.44-1.92.68-2.88a1.19,1.19,0,0,0-.29-1.28,4.15,4.15,0,0,1-.54-.65,1.85,1.85,0,0,1,.9-3,12.28,12.28,0,0,1,2.79-.72,17.16,17.16,0,0,1,8.37.48,10.7,10.7,0,0,1,5.76,4.66,6.74,6.74,0,0,0,.65.92,12.64,12.64,0,0,1,3,6.32,6.42,6.42,0,0,0,.2.64l.53-2.64.51-2.48,2-9.94c.07-.37.21-.63.66-.66a11.89,11.89,0,0,1,6.27,1c.54.26.83.61.69,1.21s.22,1,.73,1.23c1.27.57,1.51.57,1,2.34-1.35,5-2.73,9.92-3.8,15-.19.87-.32,1.76-.55,2.62-.13.5.13.46.43.41l5.06-.91a13.85,13.85,0,0,1,1.39-.2c1-.07,1.47.39,1.51,1.39,0,.16,0,.33,0,.49s0,0,0,.07c.31,0,.25-.31.3-.47.49-1.86,1-3.73,1.43-5.6a1.51,1.51,0,0,0-.1-1,2.3,2.3,0,0,1,.84-3,1.11,1.11,0,0,0,.47-.73c.72-3.21,1.47-6.41,2.2-9.61a1.32,1.32,0,0,0-.14-1,6.63,6.63,0,0,1-.58-1.29,1.81,1.81,0,0,1,1.29-2.49,22.88,22.88,0,0,1,4.1-.69q3.39-.44,6.8-.81c1.61-.18,3.23-.32,4.85-.48a28.52,28.52,0,0,0,3.57-.26,3.58,3.58,0,0,1,1.79.29c.5.19.42.71.44,1.09,0,.78.29,1.29,1.13,1.46.69.14,1,.75.86,1.71a8.11,8.11,0,0,1-.61,2.29A2.13,2.13,0,0,1,193,88.26Zm-17.39,8.36-.07-.07c.77-3.33,1.81-6.58,2.73-9.87.08-.3.31-.35.53-.38,2.32-.35,4.64-.71,7-1,1.88-.26,3.77-.47,5.66-.71.16,0,.34,0,.45-.14a4.71,4.71,0,0,0,.91-3.1c0-.37-.21-.44-.55-.45a32.58,32.58,0,0,0-3.88.22c-2.65.23-5.29.51-7.93.79-2.47.26-4.95.54-7.4,1-1.39.26-1.71.82-1,2.06a3.25,3.25,0,0,1,.32,2.86,5.6,5.6,0,0,0-.14.62c-.67,2.92-1.33,5.85-2,8.77,0,.21,0,.46-.34.62-1.13.58-1.33,1.22-.78,2.35a1.43,1.43,0,0,1,.08,1.08q-.81,3.05-1.56,6.12a3,3,0,0,0,3.58,3.62c1.46-.32,2.93-.67,4.41-.9,3.22-.51,6.45-1,9.68-1.42a.74.74,0,0,0,.6-.29A5.73,5.73,0,0,0,187,105c0-.81-.06-.89-.83-.76-2.25.35-4.49.72-6.74,1.08-1.85.3-3.71.59-5.56.87-.17,0-.51.18-.41-.3.3-1.52.56-3,.84-4.56a.56.56,0,0,1,.56-.54c2.95-.43,5.88-1,8.83-1.32a2.6,2.6,0,0,0,2.47-2.29,12.21,12.21,0,0,0,.26-1.24c.09-.54-.11-.78-.69-.73-1.71.15-3.41.34-5.11.61ZM135.08,86.11a10.93,10.93,0,0,0-2.34.17,12.74,12.74,0,0,0-3.33.81c-.8.35-.93.87-.43,1.57a10.93,10.93,0,0,0,.8,1,1.3,1.3,0,0,1,.27,1.3q-2.27,9.85-4.5,19.72A3.62,3.62,0,0,0,129,115a18.84,18.84,0,0,0,6.2-1.14c8.57-2.84,13.1-11.72,11.59-18.7a11.22,11.22,0,0,0-3.88-6.75A11.92,11.92,0,0,0,135.08,86.11Zm-21.93,2.15a20.55,20.55,0,0,0-3.74.31,11.68,11.68,0,0,0-2.45.62c-.94.38-1.1,1-.5,1.75.27.36.55.71.84,1a.92.92,0,0,1,.2.9q-2.24,9.61-4.42,19.23a3.88,3.88,0,0,0,0,2.88,4.35,4.35,0,0,0,4,2.22,24.41,24.41,0,0,0,5.29-1.08c8.28-2.64,13.2-11,11.9-18.4a11.2,11.2,0,0,0-4-7.17A11.75,11.75,0,0,0,113.15,88.25Zm41.1,20.11c0-.38,0-.66.09-.93.91-5.25,2.07-10.44,3.45-15.58q.84-3.15,1.73-6.29c.17-.61.11-1-.57-1.24a11.77,11.77,0,0,0-4.64-.69c-.33,0-.52.12-.58.54-.12.85-.36,1.69-.53,2.54-1.53,7.74-3.11,15.47-5,23.13a1.83,1.83,0,0,0,.57,2,4.42,4.42,0,0,0,4,1.09,76.63,76.63,0,0,1,8.37-1.78c.78-.11,1.71,0,2.32-.47a5.7,5.7,0,0,0,2-3.92c0-.28-.07-.55-.5-.46-.62.13-1.25.19-1.88.3C160.11,107.08,157.19,107.61,154.25,108.36Z"/><path class="d" d="M56.59,89.35A9.78,9.78,0,0,1,61.7,91c.34.24.53.46.3.86s0,.79.36,1,.76.48,1.16.68.59.57.41,1.13c-1.21,3.83-2.39,7.68-3.58,11.52-.08.24-.14.49-.23.83l5.08-1c.34-.07.36-.41.42-.68,1-4.13,2-8.27,3-12.4.36-1.48.79-3,1.12-4.44.14-.63.47-.71,1-.75a10.78,10.78,0,0,1,6.64,1.45c.46.29.64.56.38,1.05s.25.83.59,1.06c.5.34,1.3.49,1.45,1s-.27,1.11-.44,1.67q-1.74,5.66-3.5,11.32a2.36,2.36,0,0,0,.36,2.23c.22-1,.41-1.91.66-2.85,1-4.1,2.48-8.09,3.7-12.14.25-.83.51-1.66.77-2.5.07-.23.13-.44.45-.45a10.08,10.08,0,0,1,6.38,1.65c.33.24.5.47.28.87s0,.75.34,1,.84.52,1.27.77a.7.7,0,0,1,.34,1c-1.23,3.78-2.45,7.56-3.62,11.36a30.82,30.82,0,0,0-1.51,7.45c0,.23-.12.55.07.67s.46-.13.66-.29a13.5,13.5,0,0,0,3.59-4.77A66.22,66.22,0,0,0,94.39,96c.55-2.09,1.07-4.19,1.52-6.3.15-.7.28-1.09,1.14-1.09a11.38,11.38,0,0,1,5.84,1.32.92.92,0,0,1,.56,1.13c-.17.63.2.89.64,1.14,1.59.91,1.66.59,1,2.55a141.29,141.29,0,0,0-4.31,16.64,58.1,58.1,0,0,0-1,8.41c-.08,1.91-.15,1.89-2.07,1.91a11,11,0,0,1-4-.68c-.29-.11-.66-.16-.83-.37-.71-.87-1.18-.19-1.74.18a10.67,10.67,0,0,1-8,1.89,6.34,6.34,0,0,1-4.62-3.5,3.51,3.51,0,0,0-.62-.85,7.46,7.46,0,0,1-2.17-5.14c0-.85,0-.78-.84-.58a1.63,1.63,0,0,0-1.36,1.57c-.45,2.83-.92,5.66-1.19,8.52a6.07,6.07,0,0,1-.17.83,1,1,0,0,1-1.11.83,14.06,14.06,0,0,1-5.89-.89,1.5,1.5,0,0,1-1-1.68.72.72,0,0,0-.55-.87c-1.42-.55-1.56-.81-1.3-2.34.18-1,.39-2.08.65-3.1.16-.64-.09-.68-.59-.57-1.21.27-2.43.57-3.65.78a.77.77,0,0,0-.75.76c-.24,1.87-.48,3.73-.75,5.6a15.47,15.47,0,0,1-.65,3.31c-.07.19-.06.4-.37.43a12.42,12.42,0,0,1-6.68-1c-.68-.33-1.05-.75-.81-1.52.17-.54,0-.79-.55-.86-1.63-.86-1.63-.86-1.21-2.72.25-1.1.47-2.2.73-3.29.08-.35-.18-.58-.2-.86-.06-.93-.65-1.37-1.34-1.91a2.11,2.11,0,0,1,.48-3.64,5.93,5.93,0,0,1,2.16-.6.81.81,0,0,0,.8-.73c.65-2.88,1.31-5.75,2-8.62.76-3.31,1.54-6.62,2.29-9.93.12-.52.34-.76.91-.72S56,89.36,56.59,89.35ZM72.1,105.81c.05-.23.07-.37.11-.5,1.45-4.86,2.87-9.74,4.47-14.55.21-.64.06-.92-.51-1.18a11.14,11.14,0,0,0-4.73-.93c-.63,0-.84.23-1,.78-1.34,5.53-2.73,11-4,16.58a1.09,1.09,0,0,1-1,.94q-4.38.87-8.75,1.79c-.44.09-.56,0-.45-.42.21-.81.4-1.63.61-2.44,1.23-4.57,2.72-9.05,4.12-13.56.15-.49.07-.73-.38-1a10.56,10.56,0,0,0-5.25-1.09c-.37,0-.49.18-.57.54-.44,2-.92,4-1.39,6q-1.49,6.36-3,12.73c-.09.38-.21.57-.65.64a10.66,10.66,0,0,0-2.46.55,1.33,1.33,0,0,0-.91,1.29,1.35,1.35,0,0,0,.86,1.26,3.14,3.14,0,0,0,1.5.3c.67,0,.57.28.47.71-.46,2-.89,4-1.35,6a.94.94,0,0,0,.66,1.28,11.11,11.11,0,0,0,4.47.78c1,0,1,0,1.18-1q.59-4.15,1.15-8.3a.61.61,0,0,1,.58-.63c2.18-.43,4.35-.92,6.53-1.36.92-.19,1.86-.33,2.82-.49-.39,1.56-.77,3-1.12,4.46-.29,1.23-.56,2.46-.83,3.7-.21,1-.09,1.17.83,1.53a11.61,11.61,0,0,0,4.43.68c1,0,1,0,1.05-1,.29-3.28.83-6.51,1.44-9.74a.71.71,0,0,1,.63-.63,6.54,6.54,0,0,0,2.68-1.18,1.37,1.37,0,0,0-.64-2.48A4.25,4.25,0,0,0,72.1,105.81ZM91.42,115a7,7,0,0,1,0,1.54c-.13.52.12.67.5.82a12,12,0,0,0,4.63.72c.44,0,.4-.26.42-.55.09-1.41.12-2.83.29-4.22a96.68,96.68,0,0,1,2.32-12q1.25-4.94,2.83-9.77a.78.78,0,0,0-.48-1.15,10.94,10.94,0,0,0-4.52-.92c-.42,0-.53.13-.62.54a108.53,108.53,0,0,1-4.36,15.24,29.64,29.64,0,0,1-3.85,7.49,7.33,7.33,0,0,1-3.49,2.86,1.6,1.6,0,0,1-2.28-1.11,8,8,0,0,1-.43-3.19,30.16,30.16,0,0,1,1.22-6.62q1.87-6.07,3.79-12.13c.15-.47.1-.71-.33-1a10.23,10.23,0,0,0-4.55-1.07c-.26,0-.35.14-.42.37-1.46,5-3.29,9.81-4.48,14.85a22.43,22.43,0,0,0-.77,8.3,5.9,5.9,0,0,0,4.66,5,9.16,9.16,0,0,0,5.93-1A14.24,14.24,0,0,0,91.42,115Z"/><path class="e" d="M139,128.89a19.65,19.65,0,0,1,6.1-7.22,11,11,0,0,1,5.54-2.12,5.52,5.52,0,0,1,5.64,3.45,14,14,0,0,0,.94,1.73,10.51,10.51,0,0,1,1.19,4.21c.28-1.42.55-2.85.86-4.27a3.55,3.55,0,0,0-.26-2.61,1.79,1.79,0,0,1,1.3-2.72,32.73,32.73,0,0,1,4.51-.8c2.82-.38,5.64-.77,8.46-1.09a10.13,10.13,0,0,1,3.58-.09c.46.11.76.29.72.84,0,.3.11.61.08.91-.06.59-.21,1.18.76,1,.3-.05.3.26.32.45a3.48,3.48,0,0,1-.58,2.14c-.21.34-.58.31-.88.35-3.06.37-6.09.92-9.13,1.45a1,1,0,0,0-.94.84c-.26,1.19-.56,2.38-.91,3.55-.18.59.09.61.5.52,1.41-.29,2.83-.46,4.25-.65s2,.35,1.88,1.69a1.94,1.94,0,0,1-.05.35c-.16.65-.12,1.11.76.84.29-.09.37.1.37.36a4.52,4.52,0,0,1-.74,2.47.9.9,0,0,1-.67.34l-7.29,1.3a2,2,0,0,0-.54.15c-.31.16-.28.48-.24.75s.32.15.5.12c2.08-.38,4.15-.87,6.25-1.12s2.25-.3,2.31,1.92a.83.83,0,0,1,0,.28c-.19.56-.07.77.55.58.35-.11.59.07.58.48a4.72,4.72,0,0,1-.92,2.7c-.14.2-.35.2-.56.24-2.48.42-5,.82-7.44,1.27-1.11.2-2.2.48-3.3.76a1.8,1.8,0,0,1-1.18,0c-1.43-.77-3.35-.24-4.52-1.68-.15-.19-.27-.06-.4.06-1.9,1.79-4.33,2.28-6.76,2.78-3.25.66-6.36,0-9.45-.92a7.72,7.72,0,0,1-3.82-2.44c-.06-.07-.11-.16-.28-.1a27.4,27.4,0,0,0-.33,4.67c0,.93,0,.91-.94.93a9.31,9.31,0,0,1-3.12-.5c-.51-.17-1.06-.22-1.59-.34a.74.74,0,0,0-.64.22,8.38,8.38,0,0,1-4.67,1.81,3.62,3.62,0,0,1-1.4-.11c-1-.37-2.06-.44-3.07-.75a5.66,5.66,0,0,1-3.85-4.17c-.06-.2-.11-.41-.18-.71a21.81,21.81,0,0,1-3.27,4.34,11.63,11.63,0,0,1-9.85,3.44,17.6,17.6,0,0,1-4-1c-2.44-.91-3.63-2.88-4.09-5.35-.13-.7-.29-.82-.76-.56-.22.12-.19.3-.22.48-.39,2-.61,4-.82,5.94-.07.66-.11,1.31-.15,2,0,.42-.22.55-.63.56a10.39,10.39,0,0,1-3.83-.48c-.79-.29-1.66-.3-2.46-.6-1.31-.49-1.64-1-1.37-2.4s.46-2.45.71-3.74a11.7,11.7,0,0,0-2.31.5c-1.6.38-1.57.4-1.72,2.08s-.39,3.51-.57,5.27c-.07.66-.38,1-1,.92a9.83,9.83,0,0,1-1.62-.15,28.19,28.19,0,0,1-5-1.33,1.21,1.21,0,0,1-.78-1.45c.19-1.33.45-2.64.73-4,.08-.39.13-.65-.41-.81a2.13,2.13,0,0,1-1.64-2.14,2.22,2.22,0,0,1,1.63-2.08.63.63,0,0,1,.2-.07c1.43,0,1.59-1,1.8-2.09.88-4.5,1.81-9,2.71-13.48.09-.46.29-.63.8-.66a9.52,9.52,0,0,1,5.36.86l.25.13c.93.53,1,.54.64,1.55-.18.56,0,.76.48.89s.71.49.53,1.11c-.85,2.89-1.63,5.8-2.46,8.69-.16.57-.1.71.51.54.91-.25,1.83-.42,2.75-.61a.88.88,0,0,0,.79-.8c.91-4.32,1.88-8.64,2.81-13,.13-.6.3-1,1-1a9.29,9.29,0,0,1,5.78,1.18c.44.26.62.52.37,1-.33.64-.31,1.13.54,1.32.47.1.5.42.37.87-.72,2.46-1.4,4.93-2.09,7.4,0,.16-.07.32-.1.48a4.11,4.11,0,0,0-.41,1.92l.54-1.64a25.11,25.11,0,0,1,5.85-8.67,13.39,13.39,0,0,1,6.3-3.73,5.22,5.22,0,0,1,6.18,2.77c1,1.84,2.06,3.66,2.9,5.58a3.73,3.73,0,0,0,.21.34c.57-2,1.11-3.84,1.65-5.7q.54-1.9,1.07-3.8c.09-.32.18-.56.58-.59a8.64,8.64,0,0,1,5.41,1.22.79.79,0,0,1,.37,1.14c-.25.55-.24,1,.49,1.13s.57.63.42,1.14c-1,3.37-2,6.7-2.85,10.11A22.33,22.33,0,0,0,124,143a4.61,4.61,0,0,0,1.74-1.59,26.45,26.45,0,0,0,3.45-7.63A83.51,83.51,0,0,0,131.8,123c.09-.54.28-.85.91-.88a9.62,9.62,0,0,1,4.82.82c1.05.51,1.16.66.89,1.79-.12.52,0,.68.46.79.62.16.81.5.58,1.14a10.06,10.06,0,0,0-.58,2.1c-.84,2.54-1.34,5.16-1.93,7.76-.07.29.1.3.32.28,2.31-.22,3.53.5,4.47,2.63a.8.8,0,0,0,.69.51,12,12,0,0,0,3.91-.21,6.2,6.2,0,0,0,2.49-.86l-1.06-.34c-1.52-.47-3.07-.88-4.57-1.43-2.23-.81-4-2.16-4.53-4.62A6.63,6.63,0,0,1,139,128.89Zm-58.94,13a8.6,8.6,0,0,1,.37-2c.88-3.71,2-7.36,3-11,.14-.5.06-.75-.41-1a8.66,8.66,0,0,0-4.06-.7c-.32,0-.42.14-.48.46-.35,1.82-.74,3.63-1.12,5.44-.66,3.16-1.32,6.32-2,9.48-.07.36-.21.42-.53.5a7,7,0,0,0-2,.53,1.05,1.05,0,0,0-.65,1,1.11,1.11,0,0,0,.7,1,2.49,2.49,0,0,0,1.16.23c.41,0,.56,0,.45.53-.36,1.62-.61,3.27-1,4.9a.59.59,0,0,0,.4.81,9.27,9.27,0,0,0,4.15.63c.37,0,.41-.29.45-.52.12-.79.21-1.58.3-2.37.18-1.54.35-3.08.53-4.62,0-.2,0-.36.32-.44,2.45-.59,4.9-1.18,7.45-1.68-.15.69-.3,1.3-.42,1.91a45.65,45.65,0,0,0-.94,5,.66.66,0,0,0,.52.78,9.44,9.44,0,0,0,3.39.51c1,0,1.11-.1,1.18-1.15.15-2.44.51-4.86.88-7.27a.74.74,0,0,1,.62-.7,4.52,4.52,0,0,0,2-1,1.09,1.09,0,0,0-.48-1.94,2.45,2.45,0,0,0-.77-.05c-.47.06-.6,0-.45-.55,1-3.75,2-7.51,3.13-11.23.2-.67,0-.93-.58-1.18a9.57,9.57,0,0,0-3.88-.53c-.34,0-.38.23-.43.45-.39,1.73-.79,3.47-1.16,5.21-.58,2.73-1.15,5.45-1.72,8.18-.08.37-.19.66-.65.76C85,140.77,82.58,141.33,80.07,141.89Zm49,1.67a7.61,7.61,0,0,1,0,1.06c-.09.56.17.79.67.93a9,9,0,0,0,2.79.35c1,0,1,0,1-1a52.34,52.34,0,0,1,1.28-10.34,96.6,96.6,0,0,1,2.44-9.66c.18-.59.05-.87-.53-1.1a8.86,8.86,0,0,0-3.52-.55c-.37,0-.4.2-.45.48-.54,2.88-1.18,5.73-2,8.55a34.91,34.91,0,0,1-3.68,9.08,6.85,6.85,0,0,1-2.78,2.74c-1.15.54-1.83.21-2.18-1a6.68,6.68,0,0,1-.28-1.59,19.53,19.53,0,0,1,.79-5.92c.86-3.18,1.79-6.35,2.73-9.51.17-.57.05-.85-.48-1.06a9.61,9.61,0,0,0-2-.57c-1.49-.26-1.6-.19-2,1.27,0,.07-.06.13-.07.2-1.2,4.55-2.88,9-3.38,13.69a10.1,10.1,0,0,0,.25,4.34c.87,2.57,3.33,3.75,6.23,3A10,10,0,0,0,129.11,143.56ZM116,135a9,9,0,0,0-.09-1.41,20.67,20.67,0,0,0-2.87-6.38,3.3,3.3,0,0,0-2.16-1.46,6.65,6.65,0,0,0-5,1.06,21.19,21.19,0,0,0-7.86,8.87,14,14,0,0,0-1.83,8.24,5.64,5.64,0,0,0,4.86,5.24,11.67,11.67,0,0,0,4.73-.41,12.45,12.45,0,0,0,6.65-4.76C114.34,141.34,115.91,138.49,116,135Zm28.57,9a17.44,17.44,0,0,0,3.9-.44,12.06,12.06,0,0,0,5.45-2.29,3,3,0,0,0,1.17-2.09,3,3,0,0,0-1.85-3,25.61,25.61,0,0,0-4.29-1.54,16.49,16.49,0,0,1-3.72-1.45,1.5,1.5,0,0,1-.76-1.61,6.16,6.16,0,0,1,.54-1.81,14.11,14.11,0,0,1,4.23-5,4.74,4.74,0,0,1,2.32-.94.82.82,0,0,1,1,.68,2.47,2.47,0,0,1,0,1.45c-.23.72-.58,1.38-.87,2.07a2.26,2.26,0,0,0,.87,2.87,2.48,2.48,0,0,0,3.09-1.5,7.77,7.77,0,0,0,.11-5c-.55-1.8-1.51-3.36-3.51-3.78a6.5,6.5,0,0,0-3.94.46,15.89,15.89,0,0,0-8.26,8.3,4.19,4.19,0,0,0,.84,4.84,6.34,6.34,0,0,0,2.78,1.75c1.8.59,3.62,1.12,5.42,1.71.61.2,1.52.38,1.53,1s-.87.91-1.46,1.17a14.24,14.24,0,0,1-6.47,1.05,1.91,1.91,0,0,1-2-1.48,2.54,2.54,0,0,0-2.25-1.78,1.58,1.58,0,0,0-1.93,1.88,4.31,4.31,0,0,0,2.55,3.17A10.63,10.63,0,0,0,144.53,144.05Zm32-24.81c0-.93-.1-1-1-.93-.49.05-1,.09-1.47.15-2.91.36-5.83.71-8.74,1.1-1.51.2-3,.45-4.51.75-1,.2-1.22.65-.76,1.62.14.3.3.59.46.88a.6.6,0,0,1,.11.45c-.57,2.8-1.12,5.61-1.69,8.41a.86.86,0,0,1-.46.65,1.1,1.1,0,0,0-.47,1.67,1.38,1.38,0,0,1,.13,1.06c-.39,1.59-.72,3.2-1.07,4.8a2.36,2.36,0,0,0,2.85,2.81c3.28-.83,6.61-1.36,9.94-1.9.56-.09,1.27,0,1.65-.42a4,4,0,0,0,.94-2.87c0-.47-.25-.53-.63-.46-3.13.58-6.27,1.12-9.4,1.75-.7.14-.7-.11-.62-.62.18-1.06.38-2.13.53-3.2,0-.31.14-.35.42-.4,2.13-.36,4.24-.79,6.38-1.11,1.26-.19,2.32-.53,2.54-2,0-.07,0-.14,0-.21.29-1.39.18-1.49-1.25-1.28-2.27.33-4.54.7-6.78,1.21-.43.1-.56,0-.46-.45l1.87-7.27a.6.6,0,0,1,.55-.51c3.08-.61,6.19-1.1,9.31-1.49a1.45,1.45,0,0,0,1.36-1.07A2.4,2.4,0,0,0,176.57,119.24Zm-19.86,13.27a2.31,2.31,0,0,1-2.25,0,1.45,1.45,0,0,0-1-.3,2.87,2.87,0,0,1-3.16-3.12,7.42,7.42,0,0,1,.58-2.11,11.9,11.9,0,0,0-2.09,2.06,10.36,10.36,0,0,0-1.87,3c-.33.87-.32.89.54,1.16,1.5.48,3,.94,4.49,1.43a7.3,7.3,0,0,1,3.33,2,5.64,5.64,0,0,1,.91,1.94C156.82,136.48,157.34,134.54,156.71,132.51Z"/><path class="f" d="M135.84,190.77a13.89,13.89,0,0,0,3.68-.6,67.59,67.59,0,0,0,50.74-49.34,65.83,65.83,0,0,0,2-14.19,66.58,66.58,0,0,0-.73-12.12c-.08-.5,0-.8.59-.8a10.41,10.41,0,0,0,1.82-.23c.49-.09.72,0,.8.56a73.83,73.83,0,0,1,.61,14.82,70,70,0,0,1-17.77,42.53A70.42,70.42,0,0,1,135,194.23a68.51,68.51,0,0,1-13.27.64A69.38,69.38,0,0,1,87,183.79,70.18,70.18,0,0,1,61.7,155.38a68.26,68.26,0,0,1-6.43-20.86c-.17-1.24-.34-2.47-.43-3.72,0-.46.09-.63.56-.66a19.66,19.66,0,0,0,2-.25c.45-.07.6.07.64.55A66,66,0,0,0,61.27,146,67.65,67.65,0,0,0,105,188.72c1.59.5,3.23.89,4.84,1.31a3.56,3.56,0,0,0,.63.05.9.9,0,0,0,.24.14,59.4,59.4,0,0,0,8.48,1.27l.78.06a.41.41,0,0,0,.42,0l.53,0a42.86,42.86,0,0,0,5.86.16,1.94,1.94,0,0,0,1.11-.12,19.27,19.27,0,0,0,3.71-.19,18.28,18.28,0,0,0,3.53-.51C135.39,190.95,135.64,191,135.84,190.77Z"/><path class="g" d="M135.13,190.93a18.28,18.28,0,0,1-3.53.51,19.27,19.27,0,0,1-3.71.19c-.93-1.71-1.84-3.43-2.87-5.08a6.78,6.78,0,0,0-.8-1.39l-5,6.33a59.38,59.38,0,0,1-8.48-1.27.9.9,0,0,1-.24-.14L119.1,181c.47-.5.91-1,1.42-1.48a.63.63,0,0,0,.12-.95c-2.21-3.89-4.39-7.79-6.6-11.68q-3.62-6.39-7.28-12.76c-.27-.48-.17-.68.24-.94a5.19,5.19,0,0,1,5.48.12l.52.35c0,.11.09.21.24.17h0c0,.14.06.21.13.3,3.47,4.82,6.77,9.75,10.21,14.58a4.39,4.39,0,0,1,1,3.76c0,.09,0,.2,0,.28a1.78,1.78,0,0,0,.57,1.95l.72-.87a2.48,2.48,0,0,0,1.22-2,37,37,0,0,1,.46-5.13,4.17,4.17,0,0,1,1-2.07L140,151.51c.79-.9,1.55-.83,2.21.18a1.69,1.69,0,0,1-.49,1.41q-5,5.66-9.91,11.34c-1,1.09-.94,1.09.26,2l11.19-12.81c1-.32,1.34-.23,1.9.6a1.81,1.81,0,0,1-.54,1.47c-1.81,2-3.61,4.11-5.4,6.17s-3.34,3.85-5,5.75c-.28.32-.34.51,0,.75a1.65,1.65,0,0,1,.37.32c.28.32.45.29.74,0,1.75-2,3.53-4.06,5.3-6.08l5.5-6.36c1.15-.32,1.4-.24,2,.59a1.66,1.66,0,0,1-.49,1.41q-5.11,5.82-10.19,11.66c-.64.73-.62.71.1,1.39.36.34.51.27.8-.07,1-1.19,2-2.35,3.06-3.53l7.74-8.9c1.15-.28,1.37-.21,1.92.61a1.68,1.68,0,0,1-.53,1.46q-5.6,6.37-11.17,12.78a5.05,5.05,0,0,1-2.78,1.7q-2.34.53-4.69,1a1.53,1.53,0,0,0-1,.59c-.67.88-1.36,1.76-2.08,2.59a.77.77,0,0,0-.05,1.09C130.86,184.05,133,187.49,135.13,190.93Z"/><path class="h" d="M177.07,77.29l-3.48.46c-.31,0-.48-.15-.66-.34a66.6,66.6,0,0,0-20.15-14.15,64.18,64.18,0,0,0-16.31-5q-3.45-.57-7-.8a65.27,65.27,0,0,0-27.72,3.95A67.6,67.6,0,0,0,75.48,79.06a59.77,59.77,0,0,0-3.86,4.61,1.11,1.11,0,0,1-.81.47c-1.26.17-2.51.37-3.81.46C80,66.63,97.4,56,119.65,54.33c22.71-1.69,41.84,6.33,57.48,22.73Z"/><path class="i" d="M135.13,190.93c-2.14-3.44-4.27-6.88-6.43-10.31a.77.77,0,0,1,.05-1.09c.73-.84,1.41-1.71,2.08-2.59a1.53,1.53,0,0,1,1-.59q2.35-.49,4.69-1a5.05,5.05,0,0,0,2.78-1.7q5.56-6.41,11.17-12.78a1.68,1.68,0,0,0,.53-1.46,1.12,1.12,0,0,1,1.2.69,1.25,1.25,0,0,1-.31,1.36q-5.75,6.57-11.49,13.15a6.18,6.18,0,0,1-3.62,1.74c-1.24.27-2.49.51-3.73.77a1.31,1.31,0,0,0-.83.48c-.75,1-1.52,1.92-2.31,2.86a.59.59,0,0,0,0,.81q3,4.75,6,9.52C135.64,191,135.39,190.95,135.13,190.93Z"/><path class="j" d="M149.08,158.77l-7.74,8.9c-1,1.17-2.06,2.33-3.06,3.53-.29.35-.45.41-.8.07-.72-.68-.74-.66-.1-1.39q5.09-5.83,10.19-11.66a1.66,1.66,0,0,0,.49-1.41C149.25,156.88,149.62,157.59,149.08,158.77Z"/><path class="k" d="M139,128.89a6.63,6.63,0,0,0-.33,3.6c.56,2.46,2.3,3.81,4.53,4.62,1.5.54,3,1,4.57,1.43l1.06.34a6.2,6.2,0,0,1-2.49.86,12,12,0,0,1-3.91.21.8.8,0,0,1-.69-.51c-.94-2.13-2.16-2.85-4.47-2.63-.22,0-.39,0-.32-.28.59-2.6,1.09-5.22,1.93-7.76Z"/><path class="j" d="M143.22,153.65,132,166.46c-1.2-.93-1.21-.94-.26-2q4.95-5.67,9.91-11.34a1.69,1.69,0,0,0,.49-1.41C143.38,151.74,143.72,152.38,143.22,153.65Z"/><path class="j" d="M146.1,156.23l-5.5,6.36c-1.77,2-3.55,4-5.3,6.08-.29.34-.46.37-.74,0a1.65,1.65,0,0,0-.37-.32c-.38-.24-.32-.44,0-.75,1.69-1.9,3.36-3.83,5-5.75s3.59-4.13,5.4-6.17a1.81,1.81,0,0,0,.54-1.47C146.34,154.32,146.72,155.09,146.1,156.23Z"/><path class="j" d="M125.84,173.85l-.72.87a1.78,1.78,0,0,1-.57-1.95c0-.08,0-.19,0-.28a4.39,4.39,0,0,0-1-3.76c-3.44-4.84-6.74-9.77-10.21-14.58-.07-.09-.17-.17-.13-.3a3,3,0,0,1,1.59,1.33q4.24,6,8.46,12.11c.74,1.06,1.45,2.15,2.22,3.19a2.15,2.15,0,0,1,.45,1.7C125.86,172.72,125.87,173.28,125.84,173.85Z"/><path class="b" d="M96.08,137.1l-.54,1.64a4.11,4.11,0,0,1,.41-1.92C96,136.92,96,137,96.08,137.1Z"/><path class="j" d="M113.24,153.85c-.15,0-.2-.06-.24-.17Z"/><path class="l" d="M175.59,96.62l5.07-.78c1.7-.27,3.4-.45,5.11-.61.59-.05.79.19.69.73a12.21,12.21,0,0,1-.26,1.24,2.6,2.6,0,0,1-2.47,2.29c-3,.29-5.89.89-8.83,1.32a.56.56,0,0,0-.56.54c-.28,1.52-.54,3-.84,4.56-.09.48.24.33.41.3,1.86-.28,3.71-.58,5.56-.87,2.25-.36,4.49-.73,6.74-1.08.77-.12.84,0,.83.76a5.73,5.73,0,0,1-1.2,3.32.74.74,0,0,1-.6.29c-3.23.46-6.46.91-9.68,1.42-1.48.23-2.94.57-4.41.9a3,3,0,0,1-3.58-3.62q.75-3.07,1.56-6.12a1.43,1.43,0,0,0-.08-1.08c-.55-1.13-.36-1.77.78-2.35.32-.16.29-.42.34-.62.69-2.92,1.35-5.84,2-8.77a5.6,5.6,0,0,1,.14-.62,3.25,3.25,0,0,0-.32-2.86c-.7-1.24-.38-1.8,1-2.06,2.45-.46,4.92-.73,7.4-1,2.64-.28,5.28-.55,7.93-.79a32.58,32.58,0,0,1,3.88-.22c.33,0,.5.08.55.45a4.71,4.71,0,0,1-.91,3.1c-.11.18-.29.12-.45.14-1.89.23-3.78.45-5.66.71-2.32.32-4.64.67-7,1-.22,0-.44.08-.53.38-.92,3.29-2,6.54-2.73,9.87-.07,0-.08.1,0,.15Z"/><path class="l" d="M135.08,86.11a11.92,11.92,0,0,1,7.85,2.31,11.22,11.22,0,0,1,3.88,6.75c1.51,7-3,15.86-11.59,18.7A18.84,18.84,0,0,1,129,115a3.62,3.62,0,0,1-3.48-4.35q2.23-9.86,4.5-19.72a1.3,1.3,0,0,0-.27-1.3,10.93,10.93,0,0,1-.8-1c-.5-.7-.37-1.22.43-1.57a12.74,12.74,0,0,1,3.33-.81A10.93,10.93,0,0,1,135.08,86.11Zm-4.45,24.37a17.75,17.75,0,0,0,7.92-3.66c3.44-2.87,5.05-6.5,4.29-11a5.45,5.45,0,0,0-3.92-4.7,12.56,12.56,0,0,0-2.66-.23c-.78-.06-1.11.27-1.32,1A190.67,190.67,0,0,0,130.63,110.48Z"/><path class="l" d="M113.15,88.25a11.75,11.75,0,0,1,7.16,2.31,11.2,11.2,0,0,1,4,7.17c1.3,7.36-3.62,15.76-11.9,18.4a24.41,24.41,0,0,1-5.29,1.08,4.35,4.35,0,0,1-4-2.22,3.88,3.88,0,0,1,0-2.88q2.18-9.62,4.42-19.23a.92.92,0,0,0-.2-.9c-.29-.34-.57-.69-.84-1-.6-.79-.44-1.37.5-1.75a11.68,11.68,0,0,1,2.45-.62A20.55,20.55,0,0,1,113.15,88.25Zm1.14,4.8c-1.57,0-1.58,0-1.94,1.11-1,3.16-1.77,6.4-2.49,9.64-.61,2.72-1.14,5.45-1.69,8.18-.07.37-.19.71.51.54A17.59,17.59,0,0,0,115.9,109c3.35-2.77,5-6.28,4.42-10.69A5.65,5.65,0,0,0,114.29,93Z"/><path class="l" d="M154.25,108.36c2.94-.75,5.86-1.28,8.79-1.78.62-.11,1.26-.17,1.88-.3.43-.09.53.18.5.46a5.7,5.7,0,0,1-2,3.92c-.61.51-1.54.36-2.32.47a76.63,76.63,0,0,0-8.37,1.78,4.42,4.42,0,0,1-4-1.09,1.83,1.83,0,0,1-.57-2c1.91-7.66,3.49-15.39,5-23.13.17-.85.41-1.68.53-2.54.06-.41.25-.53.58-.54a11.77,11.77,0,0,1,4.64.69c.68.26.74.63.57,1.24q-.89,3.14-1.73,6.29c-1.37,5.14-2.54,10.33-3.45,15.58C154.29,107.7,154.29,108,154.25,108.36Z"/><path class="l" d="M72.1,105.81a4.25,4.25,0,0,1,1.61,0,1.37,1.37,0,0,1,.64,2.48,6.54,6.54,0,0,1-2.68,1.18.71.71,0,0,0-.63.63c-.61,3.23-1.15,6.47-1.44,9.74-.09,1-.1,1-1.05,1a11.61,11.61,0,0,1-4.43-.68c-.92-.35-1-.56-.83-1.53.27-1.23.53-2.47.83-3.7.35-1.45.73-2.9,1.12-4.46-1,.17-1.9.3-2.82.49-2.18.44-4.35.93-6.53,1.36a.61.61,0,0,0-.58.63q-.55,4.15-1.15,8.3c-.14,1-.17,1-1.18,1a11.11,11.11,0,0,1-4.47-.78.94.94,0,0,1-.66-1.28c.47-2,.9-4,1.35-6,.1-.43.19-.74-.47-.71a3.14,3.14,0,0,1-1.5-.3,1.35,1.35,0,0,1-.86-1.26,1.33,1.33,0,0,1,.91-1.29,10.66,10.66,0,0,1,2.46-.55c.44-.08.56-.26.65-.64q1.47-6.37,3-12.73c.46-2,.95-4,1.39-6,.08-.37.2-.54.57-.54a10.56,10.56,0,0,1,5.25,1.09c.46.24.54.48.38,1-1.4,4.51-2.9,9-4.12,13.56-.22.81-.4,1.63-.61,2.44-.11.44,0,.51.45.42q4.37-.92,8.75-1.79a1.09,1.09,0,0,0,1-.94c1.31-5.53,2.69-11.05,4-16.58.14-.56.34-.78,1-.78a11.14,11.14,0,0,1,4.73.93c.57.26.72.55.51,1.18-1.59,4.82-3,9.69-4.47,14.55C72.17,105.44,72.15,105.58,72.1,105.81Z"/><path class="l" d="M91.42,115a14.24,14.24,0,0,1-4,3.12,9.16,9.16,0,0,1-5.93,1,5.9,5.9,0,0,1-4.66-5,22.43,22.43,0,0,1,.77-8.3c1.19-5,3-9.89,4.48-14.85.07-.23.16-.39.42-.37A10.23,10.23,0,0,1,87,91.63c.43.24.48.48.33,1q-1.93,6.05-3.79,12.13a30.16,30.16,0,0,0-1.22,6.62,8,8,0,0,0,.43,3.19,1.6,1.6,0,0,0,2.28,1.11,7.33,7.33,0,0,0,3.49-2.86,29.64,29.64,0,0,0,3.85-7.49A108.53,108.53,0,0,0,96.78,90c.09-.41.2-.54.62-.54a10.94,10.94,0,0,1,4.52.92.78.78,0,0,1,.48,1.15q-1.59,4.84-2.83,9.77a96.68,96.68,0,0,0-2.32,12c-.17,1.4-.21,2.82-.29,4.22,0,.29,0,.54-.42.55a12,12,0,0,1-4.63-.72c-.38-.15-.63-.29-.5-.82A7,7,0,0,0,91.42,115Z"/><path class="b" d="M176.39,204.46c1.25.7,1,2,1.46,3-.05,0-.07.06-.09.06-1.49.17-1.53.15-1.88-1.31a1.33,1.33,0,0,0-.47-.92,1.55,1.55,0,0,0-1.36-.14c-.32.11-.11.54-.14.83a5.29,5.29,0,0,0,0,.64c0,.93-.3,1.15-1.21.94-.29-.07-.23-.25-.23-.42,0-1.79,0-3.58,0-5.38,0-.27.06-.44.37-.47a11.57,11.57,0,0,1,3,0c1.13.19,1.57.55,1.72,1.38S177.22,204.07,176.39,204.46ZM174,203.23c.15.18-.41.81.4.82,1,0,1.57-.31,1.58-.9s-.49-.89-1.32-.94S173.92,202.58,174,203.23Z"/><path class="l" d="M80.07,141.89c2.51-.56,5-1.12,7.43-1.65.46-.1.57-.39.65-.76.57-2.73,1.14-5.46,1.72-8.18.37-1.74.77-3.47,1.16-5.21,0-.22.09-.44.43-.45a9.57,9.57,0,0,1,3.88.53c.62.25.78.51.58,1.18-1.12,3.72-2.13,7.47-3.13,11.23-.15.55,0,.6.45.55a2.45,2.45,0,0,1,.77.05,1.09,1.09,0,0,1,.48,1.94,4.52,4.52,0,0,1-2,1,.74.74,0,0,0-.62.7c-.37,2.41-.73,4.83-.88,7.27-.06,1.05-.13,1.13-1.18,1.15a9.44,9.44,0,0,1-3.39-.51.66.66,0,0,1-.52-.78,45.65,45.65,0,0,1,.94-5c.13-.61.27-1.22.42-1.91-2.56.51-5,1.1-7.45,1.68-.31.07-.29.24-.32.44-.18,1.54-.35,3.08-.53,4.62-.09.79-.18,1.59-.3,2.37,0,.23-.08.5-.45.52a9.27,9.27,0,0,1-4.15-.63.59.59,0,0,1-.4-.81c.35-1.63.6-3.27,1-4.9.11-.52,0-.54-.45-.53A2.49,2.49,0,0,1,73,145.6a1.11,1.11,0,0,1-.7-1,1.05,1.05,0,0,1,.65-1,7,7,0,0,1,2-.53c.32-.07.46-.14.53-.5.63-3.17,1.3-6.32,2-9.48.38-1.81.77-3.62,1.12-5.44.06-.32.17-.45.48-.46a8.66,8.66,0,0,1,4.06.7c.48.22.56.47.41,1-1.06,3.66-2.16,7.31-3,11A8.6,8.6,0,0,0,80.07,141.89Z"/><path class="l" d="M129.11,143.56a10,10,0,0,1-5.2,3.38c-2.9.71-5.36-.47-6.23-3a10.1,10.1,0,0,1-.25-4.34c.5-4.72,2.18-9.14,3.38-13.69,0-.07.05-.13.07-.2.4-1.45.51-1.52,2-1.27a9.61,9.61,0,0,1,2,.57c.53.22.65.49.48,1.06-.94,3.16-1.87,6.33-2.73,9.51a19.53,19.53,0,0,0-.79,5.92,6.68,6.68,0,0,0,.28,1.59c.35,1.21,1,1.54,2.18,1a6.85,6.85,0,0,0,2.78-2.74,34.91,34.91,0,0,0,3.68-9.08c.82-2.81,1.46-5.67,2-8.55.05-.28.08-.47.45-.48a8.86,8.86,0,0,1,3.52.55c.58.23.71.51.53,1.1a96.6,96.6,0,0,0-2.44,9.66,52.34,52.34,0,0,0-1.28,10.34c0,1,0,1-1,1a9,9,0,0,1-2.79-.35c-.5-.15-.76-.38-.67-.93A7.61,7.61,0,0,0,129.11,143.56Z"/><path class="l" d="M116,135c0,3.47-1.61,6.32-3.62,9a12.45,12.45,0,0,1-6.65,4.76,11.67,11.67,0,0,1-4.73.41,5.64,5.64,0,0,1-4.86-5.24,14,14,0,0,1,1.83-8.24,21.19,21.19,0,0,1,7.86-8.87,6.65,6.65,0,0,1,5-1.06,3.3,3.3,0,0,1,2.16,1.46,20.67,20.67,0,0,1,2.87,6.38A9,9,0,0,1,116,135Zm-4.11-.75a8.07,8.07,0,0,0-.95-4.32c-.66-1-1-1-1.91-.68a5.27,5.27,0,0,0-1.68,1,21.32,21.32,0,0,0-6,8.18,14.23,14.23,0,0,0-1.24,5.52c0,1.73.79,2.55,2.16,2.34a7.16,7.16,0,0,0,2.74-.85A14.28,14.28,0,0,0,111.85,134.27Z"/><path class="l" d="M144.53,144.05a10.63,10.63,0,0,1-5.52-1.19,4.31,4.31,0,0,1-2.55-3.17,1.58,1.58,0,0,1,1.93-1.88,2.54,2.54,0,0,1,2.25,1.78,1.91,1.91,0,0,0,2,1.48,14.24,14.24,0,0,0,6.47-1.05c.59-.26,1.47-.54,1.46-1.17s-.92-.83-1.53-1c-1.8-.59-3.62-1.12-5.42-1.71a6.34,6.34,0,0,1-2.78-1.75,4.19,4.19,0,0,1-.84-4.84,15.89,15.89,0,0,1,8.26-8.3,6.5,6.5,0,0,1,3.94-.46c2,.42,3,2,3.51,3.78a7.77,7.77,0,0,1-.11,5,2.48,2.48,0,0,1-3.09,1.5,2.26,2.26,0,0,1-.87-2.87c.3-.69.64-1.35.87-2.07a2.47,2.47,0,0,0,0-1.45.82.82,0,0,0-1-.68,4.74,4.74,0,0,0-2.32.94,14.11,14.11,0,0,0-4.23,5,6.16,6.16,0,0,0-.54,1.81,1.5,1.5,0,0,0,.76,1.61,16.49,16.49,0,0,0,3.72,1.45,25.61,25.61,0,0,1,4.29,1.54,3,3,0,0,1,1.85,3,3,3,0,0,1-1.17,2.09,12.06,12.06,0,0,1-5.45,2.29A17.44,17.44,0,0,1,144.53,144.05Z"/><path class="m" d="M176.57,119.24a2.4,2.4,0,0,1-.23,1.11,1.45,1.45,0,0,1-1.36,1.07c-3.12.39-6.22.88-9.31,1.49a.6.6,0,0,0-.55.51l-1.87,7.27c-.11.41,0,.54.46.45,2.24-.51,4.51-.87,6.78-1.21,1.43-.21,1.54-.11,1.25,1.28,0,.07,0,.14,0,.21-.23,1.46-1.28,1.8-2.54,2-2.13.33-4.25.75-6.38,1.11-.28,0-.38.09-.42.4-.15,1.07-.35,2.13-.53,3.2-.09.5-.08.76.62.62,3.13-.62,6.27-1.17,9.4-1.75.38-.07.61,0,.63.46a4,4,0,0,1-.94,2.87c-.38.45-1.09.33-1.65.42-3.33.54-6.66,1.07-9.94,1.9a2.36,2.36,0,0,1-2.85-2.81c.35-1.6.68-3.21,1.07-4.8a1.38,1.38,0,0,0-.13-1.06,1.1,1.1,0,0,1,.47-1.67.86.86,0,0,0,.46-.65c.57-2.8,1.12-5.61,1.69-8.41a.6.6,0,0,0-.11-.45c-.16-.29-.31-.58-.46-.88-.46-1-.28-1.42.76-1.62,1.5-.29,3-.54,4.51-.75,2.91-.39,5.83-.74,8.74-1.1.49-.06,1-.1,1.47-.15C176.47,118.21,176.57,118.31,176.57,119.24Z"/><path class="k" d="M156.71,132.51c.63,2,.12,4-.48,6a5.64,5.64,0,0,0-.91-1.94,7.3,7.3,0,0,0-3.33-2c-1.49-.49-3-1-4.49-1.43-.86-.27-.87-.29-.54-1.16a10.36,10.36,0,0,1,1.87-3,11.9,11.9,0,0,1,2.09-2.06,7.42,7.42,0,0,0-.58,2.11,2.87,2.87,0,0,0,3.16,3.12,1.45,1.45,0,0,1,1,.3A2.31,2.31,0,0,0,156.71,132.51Z"/><path class="k" d="M125,186.55c1,1.65,1.94,3.37,2.87,5.08a1.94,1.94,0,0,1-1.11.12,42.87,42.87,0,0,1-5.86-.16Z"/><path class="i" d="M125,186.55l-4.09,5-.53,0a.4.4,0,0,0-.42,0l-.78-.06,5-6.33A6.78,6.78,0,0,1,125,186.55Z"/><path class="k" d="M120,191.55a.4.4,0,0,1,.42,0A.42.42,0,0,1,120,191.55Z"/><path class="d" d="M175.59,96.62l-.08.08c-.08-.05-.06-.1,0-.15Z"/><path class="d" d="M130.63,110.48a190.67,190.67,0,0,1,4.31-18.6c.21-.71.54-1,1.32-1a12.56,12.56,0,0,1,2.66.23,5.45,5.45,0,0,1,3.92,4.7c.76,4.49-.85,8.12-4.29,11A17.75,17.75,0,0,1,130.63,110.48Zm4.21-2.39A13.74,13.74,0,0,0,140,104a10,10,0,0,0,1.91-8.32,1.31,1.31,0,0,0-1.24-1.19,15.27,15.27,0,0,0-1.61-.17.88.88,0,0,0-1,.73c-.88,2.9-1.58,5.84-2.25,8.8C135.47,105.21,135.18,106.56,134.84,108.09Z"/><path class="i" d="M114.29,93a5.65,5.65,0,0,1,6,5.3c.6,4.4-1.08,7.92-4.42,10.69a17.59,17.59,0,0,1-7.23,3.48c-.7.17-.59-.17-.51-.54.55-2.73,1.08-5.46,1.69-8.18.73-3.24,1.47-6.48,2.49-9.64C112.71,93,112.71,93,114.29,93Zm-3.51,17.84a14.78,14.78,0,0,0,6.63-4.73,10.21,10.21,0,0,0,2.05-7.24,1.92,1.92,0,0,0-.57-1.3,5.5,5.5,0,0,0-4-1.27c-.37,0-.58.21-.7.62-1.07,3.63-1.95,7.31-2.75,11C111.2,108.91,111,109.85,110.78,110.89Z"/><path class="i" d="M111.85,134.27A14.28,14.28,0,0,1,105,145.46a7.16,7.16,0,0,1-2.74.85c-1.38.2-2.15-.62-2.16-2.34a14.23,14.23,0,0,1,1.24-5.52,21.32,21.32,0,0,1,6-8.18,5.27,5.27,0,0,1,1.68-1c.94-.33,1.25-.37,1.91.68A8.07,8.07,0,0,1,111.85,134.27Zm-1.18-.59c0-.35,0-.71,0-1.06s-.1-.41-.12-.62c-.06-.51-.24-.7-.7-.31-.28.25-.6.45-.88.71a21.1,21.1,0,0,0-6.6,11.45,9.56,9.56,0,0,0-.08,1.29,4.09,4.09,0,0,0,1.21-.26,5.11,5.11,0,0,0,.78-.31,9.82,9.82,0,0,0,3.5-3.07A12.34,12.34,0,0,0,110.67,133.68Z"/><path class="k" d="M134.84,108.09c.34-1.53.63-2.88.94-4.22.67-3,1.38-5.9,2.25-8.8a.88.88,0,0,1,1-.73,15.27,15.27,0,0,1,1.61.17,1.31,1.31,0,0,1,1.24,1.19A10,10,0,0,1,140,104,13.74,13.74,0,0,1,134.84,108.09Z"/><path class="k" d="M110.78,110.89c.22-1,.42-2,.62-2.91.8-3.7,1.68-7.38,2.75-11,.12-.41.33-.63.7-.62a5.5,5.5,0,0,1,4,1.27,1.92,1.92,0,0,1,.57,1.3,10.21,10.21,0,0,1-2.05,7.24A14.78,14.78,0,0,1,110.78,110.89Z"/><path class="k" d="M110.67,133.68a12.34,12.34,0,0,1-2.89,7.81,9.82,9.82,0,0,1-3.5,3.07,5.11,5.11,0,0,1-.78.31,4.09,4.09,0,0,1-1.21.26,9.56,9.56,0,0,1,.08-1.29A21.1,21.1,0,0,1,109,132.4c.27-.26.59-.46.88-.71.46-.4.64-.21.7.31,0,.21.11.41.12.62S110.67,133.33,110.67,133.68Z"/></svg>