<svg xmlns="http://www.w3.org/2000/svg" viewBox="0 0 250 250"><defs><style>.a{fill:#d91f42;}.b{fill:#fff46d;stroke:#d91f42;stroke-width:1.41px;}</style></defs><title>Fast Food</title><path class="a" d="M142.37,181.91V167h4.09a25.76,25.76,0,0,1,3.53.16,5.38,5.38,0,0,1,1.73.56A3.18,3.18,0,0,1,153,169a3.56,3.56,0,0,1,.43,1.78,3,3,0,0,1-.65,2,4.09,4.09,0,0,1-2.07,1.13,3.56,3.56,0,0,1,2.48,1.11,3.8,3.8,0,0,1,.9,2.65,4.24,4.24,0,0,1-.5,2.1,3.48,3.48,0,0,1-1.44,1.4,5.92,5.92,0,0,1-1.88.58,27.09,27.09,0,0,1-3.66.17Zm3.77-8.95H147a4.51,4.51,0,0,0,2.08-.33,1.21,1.21,0,0,0,.56-1.14,1.3,1.3,0,0,0-.53-1.18A4.19,4.19,0,0,0,147,170h-.88Zm0,5.91h1.43a4.21,4.21,0,0,0,2-.36,1.29,1.29,0,0,0,.6-1.2,1.46,1.46,0,0,0-.55-1.3,3.92,3.92,0,0,0-2-.37h-1.49Z"/><path class="a" d="M156.41,167h4.05v7.25a22.13,22.13,0,0,0,.08,2.3,4.4,4.4,0,0,0,.27,1.17,1.68,1.68,0,0,0,.82.87,3.06,3.06,0,0,0,1.42.3,3,3,0,0,0,1.41-.3,1.73,1.73,0,0,0,.82-.87,4.4,4.4,0,0,0,.27-1.17,22.13,22.13,0,0,0,.08-2.3V167h4v7.88a16,16,0,0,1-.3,3.62,4.85,4.85,0,0,1-1,2,4.6,4.6,0,0,1-2.1,1.36,11.83,11.83,0,0,1-6.48,0,4.67,4.67,0,0,1-2.1-1.36,5,5,0,0,1-1-2,15.78,15.78,0,0,1-.3-3.62V167Z"/><path class="a" d="M172.75,181.91V167H177a17.71,17.71,0,0,1,3.47.23,4.45,4.45,0,0,1,1.69.77,4,4,0,0,1,1.24,1.56,5,5,0,0,1,.43,2.08,4.42,4.42,0,0,1-.85,2.81,4.14,4.14,0,0,1-2.48,1.44l4.05,6H180l-3.41-5.84v5.84Zm3.81-7.87h.75a3.28,3.28,0,0,0,1.92-.45,1.62,1.62,0,0,0,.61-1.4,2,2,0,0,0-.57-1.59,3,3,0,0,0-1.9-.47h-.82Z"/><path class="a" d="M193.18,176.42v-3.13h8c0,.1,0,.21,0,.34s0,.3,0,.54a8.29,8.29,0,0,1-2,6,7.53,7.53,0,0,1-5.71,2.12,8.9,8.9,0,0,1-3.22-.54,7.14,7.14,0,0,1-2.52-1.66,7.52,7.52,0,0,1-1.64-2.53,8.13,8.13,0,0,1-.59-3.06,8,8,0,0,1,.57-3.07,7.53,7.53,0,0,1,4.27-4.16,8.62,8.62,0,0,1,3.13-.56,8.36,8.36,0,0,1,3.87.86,7.57,7.57,0,0,1,2.83,2.57l-3.53,1.68a4.27,4.27,0,0,0-1.42-1.28,3.69,3.69,0,0,0-1.76-.42,3.58,3.58,0,0,0-2.86,1.21,5.83,5.83,0,0,0,0,6.67,3.57,3.57,0,0,0,2.86,1.22,4.23,4.23,0,0,0,2.58-.76,2.9,2.9,0,0,0,1.2-2Z"/><path class="a" d="M203.67,181.91V167h9.12v3.26h-5.16v2.58h4.86V176h-4.86v2.53h5.16v3.33Z"/><path class="a" d="M215.48,181.91V167h4.25a17.71,17.71,0,0,1,3.47.23,4.45,4.45,0,0,1,1.69.77,4,4,0,0,1,1.24,1.56,5,5,0,0,1,.43,2.08,4.42,4.42,0,0,1-.85,2.81,4.14,4.14,0,0,1-2.48,1.44l4.05,6h-4.58l-3.41-5.84v5.84Zm3.81-7.87H220a3.28,3.28,0,0,0,1.92-.45,1.62,1.62,0,0,0,.61-1.4,2,2,0,0,0-.57-1.59,3,3,0,0,0-1.9-.47h-.82Z"/><path class="a" d="M16.35,160.86V126.57h9.43v34.29Z"/><path class="a" d="M56.42,160.86,40.6,140.39v20.47h-9V126.57h9l15.51,19.91V126.57h9v34.29Z"/><path class="a" d="M107.33,160.86,91.52,140.39v20.47h-9V126.57h9L107,146.49V126.57h9v34.29Z"/><path class="a" d="M169.74,143.76a17.42,17.42,0,0,1-5.32,12.71,18.71,18.71,0,0,1-6,3.9,18.7,18.7,0,0,1-14,0,17.93,17.93,0,0,1-5.92-3.9,17.35,17.35,0,0,1-4-5.81,18.12,18.12,0,0,1,0-13.82,17.4,17.4,0,0,1,4-5.8,17.93,17.93,0,0,1,5.92-3.9,18.77,18.77,0,0,1,14.08,0,18.15,18.15,0,0,1,6,3.9,17.53,17.53,0,0,1,5.32,12.71Zm-18.33,10a8.27,8.27,0,0,0,6.44-2.85,11.35,11.35,0,0,0,0-14.37,8.63,8.63,0,0,0-12.85,0,11.52,11.52,0,0,0,0,14.41A8.27,8.27,0,0,0,151.41,153.81Z"/><path class="a" d="M174.24,126.57h9.34v16.67a51.4,51.4,0,0,0,.19,5.28,10.11,10.11,0,0,0,.63,2.68,3.86,3.86,0,0,0,1.87,2,7,7,0,0,0,3.26.69,7,7,0,0,0,3.24-.69,4,4,0,0,0,1.89-2,10.22,10.22,0,0,0,.63-2.68,51.8,51.8,0,0,0,.19-5.28V126.57h9.26V144.7a37,37,0,0,1-.68,8.31,11.16,11.16,0,0,1-2.29,4.57,10.58,10.58,0,0,1-4.82,3.12,27.19,27.19,0,0,1-14.9,0,10.74,10.74,0,0,1-4.83-3.12,11.42,11.42,0,0,1-2.28-4.57,36.32,36.32,0,0,1-.69-8.31V126.57Z"/><path class="a" d="M216.64,160.86V134.68H209v-8.11h24.68v8.11H226v26.18Z"/><rect class="a" x="69.28" y="137.23" width="9.48" height="10.16"/><rect class="a" x="119.75" y="137.23" width="9.48" height="10.16"/><path class="a" d="M91.08,167.44a5.56,5.56,0,0,1,2.16.42,5.37,5.37,0,0,1,1.8,1.23,5.31,5.31,0,0,1,1.13,1.74,5.58,5.58,0,0,1,.39,2.09,5.5,5.5,0,0,1-.42,2.13,5.1,5.1,0,0,1-1.21,1.75,5.71,5.71,0,0,1-1.8,1.18,5.39,5.39,0,0,1-2.06.41A5.33,5.33,0,0,1,89,178a5.41,5.41,0,0,1-1.78-1.24A5.62,5.62,0,0,1,86,175a5.26,5.26,0,0,1-.41-2A5.38,5.38,0,0,1,86,170.8,5.57,5.57,0,0,1,87.28,169,5.27,5.27,0,0,1,89,167.83,5.46,5.46,0,0,1,91.08,167.44Zm0,1a4.49,4.49,0,0,0-1.71.32,4.4,4.4,0,0,0-1.43.94,4.58,4.58,0,0,0-1,1.49,4.5,4.5,0,0,0-.35,1.75A4.33,4.33,0,0,0,87.88,176a4.46,4.46,0,0,0,1.46,1,4.34,4.34,0,0,0,1.73.35,4.5,4.5,0,0,0,1.71-.33,4.59,4.59,0,0,0,1.47-1,4.23,4.23,0,0,0,1-1.44,4.67,4.67,0,0,0,0-3.46,4.28,4.28,0,0,0-.94-1.43,4.43,4.43,0,0,0-3.22-1.36Zm-2.33,1.38h2.43a3.57,3.57,0,0,1,2,.44,1.46,1.46,0,0,1,.67,1.3,1.59,1.59,0,0,1-.34,1,1.82,1.82,0,0,1-.94.6l1.34,2.63H92l-1.14-2.37h-.48v2.37H88.75Zm1.66,1v1.63H91a1.39,1.39,0,0,0,.82-.2.68.68,0,0,0,.27-.59.73.73,0,0,0-.28-.64,1.6,1.6,0,0,0-.91-.2Z"/><path class="b" d="M99.6,165.79,111.22,181h14.15l-8.54-15.2Z"/><path class="b" d="M206,102.6c-1.16-1.52-9-12-10-13.24s-2.24-1.3-2.39.87-.51,6.8-.51,6.8S52,70.33,45,68.89s-9.77.51-11.43,3.91S33,79.74,37.4,84.95c1.77,2.09,14,17.94,28,36.18H91.65c-6-10.55-10.61-18.7-11.57-20.25-3.13-5-1.22-5.85,4.08-5s107.32,12.79,107.32,12.79-.63,3.45-1.21,5.69.22,4.12,3.26,1.59,11.07-8.54,12.3-9.69S207.19,104.12,206,102.6Z"/></svg>