<svg xmlns="http://www.w3.org/2000/svg" viewBox="0 0 250 250"><defs><style>.a{fill:#fefefd;}.b{fill:#c50e48;}.c{fill:#f05c24;}.d{fill:#f7981f;}.e{fill:#fbc329;}.f{fill:#c1d634;}.g{fill:#e4e3e3;}.h{fill:#d0d0cf;}.i{fill:#4caa47;}.j{fill:#c7c6c5;}.k{fill:#faf9f7;}.l{fill:#b5b0b1;}.m{fill:#ada8a5;}.n{fill:#5a2a07;}.o{fill:#5a2a06;}.p{fill:#5e3111;}</style></defs><title>Fast Food</title><path class="a" d="M17.13,109.14c.06-.06.17-.13.07-.22s-.16,0-.22.07a.12.12,0,0,1-.08-.08c.23-.19.13-.41,0-.6a8.89,8.89,0,0,1-1.23-3.86,4.35,4.35,0,0,1,0-1,11.45,11.45,0,0,1,.86-3.19,10.8,10.8,0,0,1,1.68-2.8,13.38,13.38,0,0,1,5.25-3.86c.67-.27,1.31-.61,2-.84a12.48,12.48,0,0,1,2-.46,16.82,16.82,0,0,1,4.13-.54c1.19.1,2.39-.1,3.58.1a12.89,12.89,0,0,1,4.2,1.23,6.53,6.53,0,0,1,2,1.54,10.81,10.81,0,0,0,1,1.42,2.91,2.91,0,0,1-.1,1.45c-.19,0-.27.12-.05.26a4.59,4.59,0,0,1-.65,1.43,10.46,10.46,0,0,1-3.26,3.13c-3.17,2.05-6.55,2.9-10.27,1.77-.28-.48-.79-.73-1.13-1.17a1,1,0,0,1,0-1.4,2.78,2.78,0,0,1,2.17-.84,12.93,12.93,0,0,1,3.52.33c1,.24,1.89-.28,2.86-.27a1.5,1.5,0,0,0,.65-.1c1.83-.88,3.61-1.8,4.47-3.84.4-1,.29-1.36-.71-1.73l-.71.13a12.72,12.72,0,0,1-4.27-.41,13.91,13.91,0,0,0-9.29,1.1,5.49,5.49,0,0,0-3,6.85c-.15,0-.19.13-.13.27a7.21,7.21,0,0,0,1.26,2.22,8.29,8.29,0,0,0,3.65,2.08,18.48,18.48,0,0,0,3.42.6,16.49,16.49,0,0,0,6.22-.6,20.55,20.55,0,0,0,6.13-2.74,13.81,13.81,0,0,0,4.28-4.1,7.78,7.78,0,0,0,1.29-4.84,5.4,5.4,0,0,0-2.14-4,.69.69,0,0,0-.54-.23A11.16,11.16,0,0,0,44,90a21.28,21.28,0,0,0-8.8-2.35,27.42,27.42,0,0,0-9.5,1.06,28.2,28.2,0,0,0-14.12,8.4c-2.88,3.27-4.4,7-3.7,11.46a3.79,3.79,0,0,0,.52,2.5,9.78,9.78,0,0,0,1.94,2.84,9.64,9.64,0,0,0,3,2.1,23.41,23.41,0,0,0,3,1.08,16.91,16.91,0,0,0,4.52.73,33,33,0,0,0,6.1-.31,46.9,46.9,0,0,0,4.63-.86,35.15,35.15,0,0,0,4.67-1.55,28.25,28.25,0,0,0,4.14-2,31.38,31.38,0,0,0,6-4.74,35.78,35.78,0,0,0,3-3.55,13.13,13.13,0,0,0,2-3.73,1.33,1.33,0,0,0-.78-1.78c-.14,0-.23,0-.29.11-.68-.34-1-.25-1.38.43a13.9,13.9,0,0,1-1.78,2.54,26.84,26.84,0,0,1-7.83,6.1,29.1,29.1,0,0,1-13.07,3.4c-3,.07-5.92-.23-8.47-2,.11-.48-.18-.73-.68-.6A.12.12,0,0,1,17.13,109.14Z"/><path class="a" d="M25.22,131.62a3.58,3.58,0,0,0,1.83.48h.24a2.45,2.45,0,0,0,1.95.25h1c.19.37.57.34.89.35q2,0,4,0c.31,0,.69,0,.88-.35h.85a.83.83,0,0,0,1.1-.24h1.22a7.13,7.13,0,0,0,1.34-.24c.22,0,.44-.08.49-.36h.73A1.42,1.42,0,0,0,42.9,131c.36-.21.8-.15,1.16-.31a22.08,22.08,0,0,0,5.25-2.9,10.15,10.15,0,0,0,2-2,4.62,4.62,0,0,0,.64-3,1.62,1.62,0,0,0-1.4-1.59,1.68,1.68,0,0,0-2-.52,7.77,7.77,0,0,0-1.54.72c-2,1.16-3.92,2.53-5.89,3.77a23.17,23.17,0,0,1-12.82,3.56,38.53,38.53,0,0,1-5.49-.65c-1.08-.17-1.37.11-1.16,1.19-.08.87.63,1.07,1.19,1.41.25.52.81.41,1.22.61Z"/><path class="a" d="M30,160c-.44-.78-.67-.88-1.51-.62a4.51,4.51,0,0,1-1.64.35c-.77,0-1,.26-.63,1a1.92,1.92,0,0,0,1.77,1.6,2.6,2.6,0,0,0,2.61-.84,1,1,0,0,0,.19-1.08A.69.69,0,0,0,30,160Z"/><path class="a" d="M23.42,156a1.39,1.39,0,0,0,.62,1.46,6,6,0,0,0,2.77,1.09,2.82,2.82,0,0,0,2.41-.5,1.46,1.46,0,0,0,.62-1.36,1.16,1.16,0,0,0-1-.9c-.38-.89-1.16-.78-1.87-.69a7.6,7.6,0,0,1-2.76-.09C23.5,154.79,23.17,155.21,23.42,156Z"/><path class="a" d="M21.65,150.11c-.34.2-.21.42,0,.65a6.21,6.21,0,0,0,2,1.58,12.88,12.88,0,0,0,2.83,1.14c.56.13,1.08-.06,1.58.08a3.78,3.78,0,0,0,2.28-.4,1.66,1.66,0,0,0,1-1.05c.29-.81-.08-1.46-.89-1.49a1.42,1.42,0,0,0-1.38-1.07,7,7,0,0,0-1.7.06,7.25,7.25,0,0,1-4.68-.51,3.16,3.16,0,0,0-.75-.25.59.59,0,0,0-.61.19.49.49,0,0,0,0,.62C21.45,149.81,21.55,150,21.65,150.11Z"/><path class="a" d="M34.24,143.81A2.14,2.14,0,0,0,32.9,143a9.57,9.57,0,0,0-3.33.1,13.81,13.81,0,0,1-8.14-1c-.86-.4-1.34,0-1.31.92a1,1,0,0,0,.22.84,8.09,8.09,0,0,0,3,2.16,22.67,22.67,0,0,0,2.88,1.21,13.81,13.81,0,0,0,4.3.8,11.67,11.67,0,0,0,2.52-.28,3.23,3.23,0,0,0,2.12-1.29C35.84,145.46,35.23,143.89,34.24,143.81Z"/><path class="a" d="M43.62,133.82a1.73,1.73,0,0,0-1.83-.92,7.41,7.41,0,0,0-1.47.38c-1.94.73-3.8,1.65-5.77,2.29a15.92,15.92,0,0,1-7.72.82,27.85,27.85,0,0,1-4.63-1.26,1,1,0,0,0-1.19.13c-.34.35-.2.71,0,1.06a1.25,1.25,0,0,0,.63,1.34,6.31,6.31,0,0,0,.81.38,16.93,16.93,0,0,0,5.41,2.17,12.7,12.7,0,0,0,4.14.53.79.79,0,0,1,.24,0,16.46,16.46,0,0,0,5.18-.23,13.35,13.35,0,0,0,4.2-1.28,8.07,8.07,0,0,0,2.51-1.74,2.71,2.71,0,0,0,.66-2.73A1.14,1.14,0,0,0,43.62,133.82Z"/><path class="a" d="M18.54,122.31a.92.92,0,0,0,.26.95,3.22,3.22,0,0,0,1.36.65c1.73.24,3.41.71,5.15.92a49.27,49.27,0,0,0,6.66.07l.12,0c1.44-.31,2.89-.54,4.33-.8a30.85,30.85,0,0,0,6.73-2.2,22.06,22.06,0,0,0,4.8-2.76,27.54,27.54,0,0,0,3.16-2.81,14.32,14.32,0,0,0,1.79-2.55,5.46,5.46,0,0,0,.61-4.62,1.75,1.75,0,0,0-1.38-1,2.13,2.13,0,0,0-3.09-.36,9.76,9.76,0,0,0-1.22.9,48.08,48.08,0,0,0-4.06,4.29,23.92,23.92,0,0,1-11.56,7.46,32.65,32.65,0,0,1-12.68.67,1,1,0,0,0-1,.27A.83.83,0,0,0,18.54,122.31Z"/><path class="a" d="M33.95,161.31a1.65,1.65,0,0,0,1.67-1.58,1.63,1.63,0,1,0-1.67,1.58Z"/><path class="b" d="M42.26,97.48a2.91,2.91,0,0,0,.1-1.45,3.91,3.91,0,0,0-1.41-2.56c-.11-.39-.52-.46-.74-.73,0-.13-.12-.15-.22-.16h0a6.82,6.82,0,0,0-2.9-1.33.33.33,0,0,0-.3-.1.16.16,0,0,0-.11,0,.24.24,0,0,0-.25-.08.15.15,0,0,0-.11,0,.21.21,0,0,0-.27,0l-.23-.05a2.05,2.05,0,0,0-.34-.11,24.42,24.42,0,0,0-4.73-.17,20.62,20.62,0,0,0-9.52,2.59,12.67,12.67,0,0,0-6.42,8.17,6.75,6.75,0,0,0-.08,3.29,4.23,4.23,0,0,0,.59,2,3.34,3.34,0,0,0,.85,1.48h0a1.36,1.36,0,0,0,.53.65l.2.15A.12.12,0,0,0,17,109a.18.18,0,0,0,.16.15.12.12,0,0,0,.08.07,1.59,1.59,0,0,0,.68.6c2.55,1.8,5.49,2.1,8.47,2a29.1,29.1,0,0,0,13.07-3.4,26.84,26.84,0,0,0,7.83-6.1A13.9,13.9,0,0,0,49,99.8c.36-.68.7-.77,1.38-.43l.18.55c-.15.38-.28.76-.45,1.13a23.48,23.48,0,0,1-4.57,6.34A30.34,30.34,0,0,1,33.09,115a38.34,38.34,0,0,1-9.24,1.66A25.85,25.85,0,0,1,16,116a22.45,22.45,0,0,1-3.72-1.47h0c-.06-.15-.2-.17-.33-.19l-.25-.17a.27.27,0,0,0-.24-.18.1.1,0,0,0-.07,0c0-.08,0-.08-.09,0a8.08,8.08,0,0,1-2.73-3.37,17.3,17.3,0,0,1-.67-2c-.71-4.44.82-8.19,3.7-11.46a28.2,28.2,0,0,1,14.12-8.4,27.42,27.42,0,0,1,9.5-1.06A21.28,21.28,0,0,1,44,90a11.16,11.16,0,0,1,1.91,1.39,6.8,6.8,0,0,1,1.61,2.91,7.53,7.53,0,0,1-1.69,6.13,16,16,0,0,1-6.35,4.67,18.67,18.67,0,0,1-9.75,1.76c-.82-.1-1.64-.25-2.46-.38-2.06-.67-3.9-1.62-4.8-3.76a5.49,5.49,0,0,1,3-6.85,13.91,13.91,0,0,1,9.29-1.1,12.72,12.72,0,0,0,4.27.41l.71-.13c.13.2,0,.39,0,.58-1.72,3.57-5.44,4.82-9.28,4a7.45,7.45,0,0,0-2.63,0l-.24,0a2.18,2.18,0,0,0-1.3.41,1.45,1.45,0,0,0-.77,1.61,1.32,1.32,0,0,0,.49,1.09A3.11,3.11,0,0,0,28,104.06c3.72,1.13,7.1.28,10.27-1.77a10.46,10.46,0,0,0,3.26-3.13,4.59,4.59,0,0,0,.65-1.43A.23.23,0,0,0,42.26,97.48Z"/><path class="c" d="M18.54,122.31a.83.83,0,0,1,0-1,1,1,0,0,1,1-.27,32.65,32.65,0,0,0,12.68-.67,23.92,23.92,0,0,0,11.56-7.46,48.08,48.08,0,0,1,4.06-4.29,9.76,9.76,0,0,1,1.22-.9,2.13,2.13,0,0,1,3.09.36l.19.34.34.85a6.2,6.2,0,0,1-.85,3.79,14.85,14.85,0,0,1-2.9,3.48,28.14,28.14,0,0,1-11.58,6,36.21,36.21,0,0,1-6.57,1.14,28.75,28.75,0,0,1-6.47-.11c-1.32-.18-2.63-.48-3.95-.68l-.18,0a1,1,0,0,0-.67-.21l-.47-.16Z"/><path class="d" d="M21.6,129.23c-.21-1.08.08-1.36,1.16-1.19a38.53,38.53,0,0,0,5.49.65,23.17,23.17,0,0,0,12.82-3.56c2-1.24,3.87-2.61,5.89-3.77a7.77,7.77,0,0,1,1.54-.72,1.68,1.68,0,0,1,2,.52l.18.34c0,.1,0,.2.12.25h0a1.48,1.48,0,0,0,.15.72c-.06.36,0,.72-.11,1.08a5.3,5.3,0,0,1-1.69,2.62,20.57,20.57,0,0,1-9.25,4.47,30.38,30.38,0,0,1-5.15.78,37,37,0,0,1-4.67,0c-1.27-.07-2.52-.35-3.78-.49l-.23,0a4.35,4.35,0,0,0-1.47-.39l-.38-.11c-.08-.14-.22-.13-.35-.12l-1.71-.75A.91.91,0,0,0,21.6,129.23Z"/><path class="e" d="M21,136.33c-.18-.36-.32-.72,0-1.06a1,1,0,0,1,1.19-.13,27.85,27.85,0,0,0,4.63,1.26,15.92,15.92,0,0,0,7.72-.82c2-.63,3.83-1.56,5.77-2.29a7.41,7.41,0,0,1,1.47-.38,1.73,1.73,0,0,1,1.83.92,2.63,2.63,0,0,1-1,3.4,10.18,10.18,0,0,1-3.47,1.7,21.62,21.62,0,0,1-8.72.74A20.24,20.24,0,0,1,21,136.33Z"/><path class="f" d="M20.12,143c0-1,.45-1.33,1.31-.92a13.81,13.81,0,0,0,8.14,1,9.57,9.57,0,0,1,3.33-.1,2.14,2.14,0,0,1,1.34.76l.16.48a1.69,1.69,0,0,1-1.06,2.05,5.66,5.66,0,0,1-2,.51,14.44,14.44,0,0,1-8-1.81c-.86-.44-1.69-.93-2.54-1.4h0l-.12-.13A1.24,1.24,0,0,0,20.12,143Z"/><path class="g" d="M11.41,114a.1.1,0,0,1,.07,0c0,.12,0,.24.09.31s.12-.05.15-.12l.25.17c0,.23.18.19.33.19h0c0,.34.32.45.55.59a13.43,13.43,0,0,0,4,1.55,23.61,23.61,0,0,0,5.58.64c.92,0,1.85-.19,2.78-.21a28.27,28.27,0,0,0,6.33-1,31.2,31.2,0,0,0,3.52-1.1A34.31,34.31,0,0,0,39.54,113,32.42,32.42,0,0,0,44,109.87a28,28,0,0,0,6.31-7.42,4.55,4.55,0,0,0,.54-1.21c.12-.45.26-1-.26-1.32l-.18-.55c.06-.14.15-.15.29-.11a1.33,1.33,0,0,1,.78,1.78,13.13,13.13,0,0,1-2,3.73,35.78,35.78,0,0,1-3,3.55,31.38,31.38,0,0,1-6,4.74,28.25,28.25,0,0,1-4.14,2,35.15,35.15,0,0,1-4.67,1.55,46.9,46.9,0,0,1-4.63.86,33,33,0,0,1-6.1.31,16.91,16.91,0,0,1-4.52-.73,23.41,23.41,0,0,1-3-1.08,9.64,9.64,0,0,1-3-2.1,9.78,9.78,0,0,1-1.94-2.84,3.79,3.79,0,0,1-.52-2.5,17.3,17.3,0,0,0,.67,2,8.08,8.08,0,0,0,2.73,3.37l0,0Z"/><path class="h" d="M21,136.33a20.24,20.24,0,0,0,9.39,3.34,21.62,21.62,0,0,0,8.72-.74,10.18,10.18,0,0,0,3.47-1.7,2.63,2.63,0,0,0,1-3.4,1.14,1.14,0,0,1,1.17,1,2.71,2.71,0,0,1-.66,2.73,8.07,8.07,0,0,1-2.51,1.74,13.35,13.35,0,0,1-4.2,1.28,16.46,16.46,0,0,1-5.18.23.79.79,0,0,0-.24,0,12.7,12.7,0,0,1-4.14-.53A16.93,16.93,0,0,1,22.44,138a6.31,6.31,0,0,1-.81-.38A1.25,1.25,0,0,1,21,136.33Z"/><path class="h" d="M47.56,94.3a6.8,6.8,0,0,0-1.61-2.91.69.69,0,0,1,.54.23,5.4,5.4,0,0,1,2.14,4,7.78,7.78,0,0,1-1.29,4.84,13.81,13.81,0,0,1-4.28,4.1,20.55,20.55,0,0,1-6.13,2.74,16.49,16.49,0,0,1-6.22.6,18.48,18.48,0,0,1-3.42-.6,8.29,8.29,0,0,1-3.65-2.08A7.21,7.21,0,0,1,22.38,103c-.06-.14,0-.23.13-.27.91,2.14,2.74,3.1,4.8,3.76,0,.37.37.34.6.38.89.15,1.78.31,2.69.42a15.06,15.06,0,0,0,4.69-.29,23.32,23.32,0,0,0,5-1.64,15.26,15.26,0,0,0,6.23-4.75A7.1,7.1,0,0,0,48,95.43,1.48,1.48,0,0,0,47.56,94.3Z"/><path class="i" d="M21.65,150.11c-.1-.15-.2-.29-.29-.45a.49.49,0,0,1,0-.62.59.59,0,0,1,.61-.19,3.16,3.16,0,0,1,.75.25,7.25,7.25,0,0,0,4.68.51,7,7,0,0,1,1.7-.06,1.42,1.42,0,0,1,1.38,1.07l0,.36A1.68,1.68,0,0,1,29,152.41a6.72,6.72,0,0,1-4-.28,22.36,22.36,0,0,1-2.68-1.42Z"/><path class="g" d="M52.31,108.45l-.19-.34a1.75,1.75,0,0,1,1.38,1,5.46,5.46,0,0,1-.61,4.62,14.32,14.32,0,0,1-1.79,2.55,27.54,27.54,0,0,1-3.16,2.81,22.06,22.06,0,0,1-4.8,2.76,30.85,30.85,0,0,1-6.73,2.2c-1.44.27-2.89.49-4.33.8l-.12,0a49.27,49.27,0,0,1-6.66-.07c-1.74-.21-3.42-.68-5.15-.92a3.22,3.22,0,0,1-1.36-.65.92.92,0,0,1-.26-.95l.49.24c.05.48.39.67.78.81a22.22,22.22,0,0,0,3.54.8,22.36,22.36,0,0,0,2.76.36,28.8,28.8,0,0,0,4.3,0c1.57-.14,3.13-.32,4.68-.58,1.29-.22,2.54-.64,3.8-1a29.16,29.16,0,0,0,6.87-2.93A19.56,19.56,0,0,0,50.89,116a9.45,9.45,0,0,0,2.4-4.28C53.54,110.52,53.64,109.21,52.31,108.45Z"/><path class="g" d="M40.95,93.46A3.91,3.91,0,0,1,42.36,96a10.81,10.81,0,0,1-1-1.42,6.53,6.53,0,0,0-2-1.54,12.89,12.89,0,0,0-4.2-1.23c-1.19-.2-2.39,0-3.58-.1a16.82,16.82,0,0,0-4.13.54,12.48,12.48,0,0,0-2,.46c-.68.23-1.32.57-2,.84a13.38,13.38,0,0,0-5.25,3.86,10.8,10.8,0,0,0-1.68,2.8,11.45,11.45,0,0,0-.86,3.19,4.35,4.35,0,0,0,0,1,8.89,8.89,0,0,0,1.23,3.86c.12.19.22.41,0,.6l-.2-.15c0-.34-.09-.64-.53-.65h0a3.24,3.24,0,0,0-.71-1.85v-.12a.4.4,0,0,0-.23-.62v-.24a11.32,11.32,0,0,0,.1-2.56v-.24l.86-2.68.13-.48c.24,0,.24-.19.24-.37h0c.41-.43.92-.8,1-1.46a.34.34,0,0,0,.36-.37V97a3.64,3.64,0,0,0,1.46-1.46h.12a7,7,0,0,0,2-1.46h.12a15.6,15.6,0,0,0,1.7-.76c.29-.17.75-.13.86-.57h.24a7.27,7.27,0,0,0,2.2-.73h.24s.11.1.14.09a12.8,12.8,0,0,1,3.41-.57c.18,0,.33,0,.35-.24h.48c.33.24.7.12,1,.11a8.13,8.13,0,0,0,2.37-.11h.48c.14.42.49.17.74.23h.24a10.34,10.34,0,0,0,2,.57c.47.18.85.65,1.43.53h.24A1.46,1.46,0,0,0,40.95,93.46Z"/><path class="i" d="M23.42,156c-.24-.76.08-1.18.84-1a7.6,7.6,0,0,0,2.76.09c.71-.09,1.49-.2,1.87.69,0,1.21-.34,1.63-1.43,1.71A4.64,4.64,0,0,1,23.42,156Z"/><path class="g" d="M28,104.06a3.11,3.11,0,0,1-1.94-1.23c.21-.38-.17-.76,0-1.17a2.38,2.38,0,0,1,1.8-1.38,13.71,13.71,0,0,1,4.29,0,7.48,7.48,0,0,0,7.06-2.57c.5-.58,1.19-1.19.55-2.1,0-.19.14-.39,0-.58,1,.37,1.11.77.71,1.73-.85,2-2.63,3-4.47,3.84a1.5,1.5,0,0,1-.65.1c-1,0-1.9.51-2.86.27a12.93,12.93,0,0,0-3.52-.33,2.78,2.78,0,0,0-2.17.84,1,1,0,0,0,0,1.4C27.24,103.33,27.75,103.58,28,104.06Z"/><path class="g" d="M50.7,121.5l-.18-.34a1.62,1.62,0,0,1,1.4,1.59,4.62,4.62,0,0,1-.64,3,10.15,10.15,0,0,1-2,2,22.08,22.08,0,0,1-5.25,2.9c-.35.16-.8.1-1.16.31s-1-.12-1.22.48h-.73a10.21,10.21,0,0,0-1.21.27c-.21.07-.56,0-.62.33H37.9l-.62,0c0-.17.14-.22.3-.24.4-.05.8-.12,1.19-.19a25.27,25.27,0,0,0,5.4-1.53,15.57,15.57,0,0,0,6-3.71,4.55,4.55,0,0,0,1.35-3.72c0-.38-.15-.89-.71-1h0A.23.23,0,0,0,50.7,121.5Z"/><path class="h" d="M23.42,156a4.64,4.64,0,0,0,4,1.5c1.09-.08,1.43-.49,1.43-1.71a1.16,1.16,0,0,1,1,.9,1.46,1.46,0,0,1-.62,1.36,2.82,2.82,0,0,1-2.41.5A6,6,0,0,1,24,157.42,1.39,1.39,0,0,1,23.42,156Z"/><path class="g" d="M20.12,143a1.24,1.24,0,0,1,.49.47c0,.08,0,.13.12.13h0c-.09.37.22.52.43.67A18.7,18.7,0,0,0,26.57,147a13.68,13.68,0,0,0,5.12.61,5.86,5.86,0,0,0,2.49-.67c1.18-.68,1.28-2.18.22-2.63l-.16-.48c1,.08,1.6,1.66.93,2.68A3.23,3.23,0,0,1,33,147.77a11.67,11.67,0,0,1-2.52.28,13.81,13.81,0,0,1-4.3-.8A22.67,22.67,0,0,1,23.35,146a8.09,8.09,0,0,1-3-2.16A1,1,0,0,1,20.12,143Z"/><path class="i" d="M26.19,160.77c-.32-.74-.14-1.05.63-1a4.51,4.51,0,0,0,1.64-.35c.83-.26,1.07-.16,1.51.62a1.26,1.26,0,0,1-.95,1.26A2.66,2.66,0,0,1,26.19,160.77Z"/><path class="g" d="M21.65,150.11l.67.59A6.48,6.48,0,0,0,26,152.94a7,7,0,0,0,3.75,0,1.72,1.72,0,0,0,1.14-.93.71.71,0,0,0-.36-1l0-.36c.8,0,1.18.68.89,1.49a1.66,1.66,0,0,1-1,1.05,3.78,3.78,0,0,1-2.28.4c-.51-.14-1,0-1.58-.08a12.88,12.88,0,0,1-2.83-1.14,6.21,6.21,0,0,1-2-1.58C21.44,150.53,21.31,150.31,21.65,150.11Z"/><path class="j" d="M26.19,160.77a2.66,2.66,0,0,0,2.83.53A1.26,1.26,0,0,0,30,160a.69.69,0,0,1,.8.42,1,1,0,0,1-.19,1.08,2.6,2.6,0,0,1-2.61.84A1.92,1.92,0,0,1,26.19,160.77Z"/><path class="i" d="M33.95,161.31a1.63,1.63,0,1,1,1.67-1.58A1.65,1.65,0,0,1,33.95,161.31Zm1.34-1.64A1.3,1.3,0,0,0,34,158.32,1.37,1.37,0,0,0,34,161,1.3,1.3,0,0,0,35.29,159.68Z"/><path class="g" d="M30.22,132.35h-1c-.2-.19-.47-.16-.71-.24s-.54.14-.64-.24a4.14,4.14,0,0,1,.67,0,40.31,40.31,0,0,0,7.32.17c.38,0,.79-.25,1.16,0l-.24.26H36A33,33,0,0,1,30.22,132.35Z"/><path class="g" d="M21.6,129.23a.91.91,0,0,1,.58.3c0,.35.31.49.57.65a14.15,14.15,0,0,0,3.83,1.33c.36.1.84-.09,1.09.35l-.37.23h-.24a2.45,2.45,0,0,0-1.83-.48L24,131.25a1.81,1.81,0,0,0-1.22-.61C22.23,130.3,21.51,130.11,21.6,129.23Z"/><path class="k" d="M30.22,132.35a33,33,0,0,0,5.73,0c-.19.37-.57.34-.88.35q-2,0-4,0C30.79,132.69,30.41,132.72,30.22,132.35Z"/><path class="k" d="M27.29,132.1l.37-.23h.23c.11.37.43.16.64.24s.51,0,.71.24A2.45,2.45,0,0,1,27.29,132.1Z"/><path class="k" d="M25.22,131.62a2.45,2.45,0,0,1,1.83.48A3.58,3.58,0,0,1,25.22,131.62Z"/><path class="k" d="M39.12,132.1c.07-.36.41-.26.62-.33a10.21,10.21,0,0,1,1.21-.27c0,.28-.27.31-.49.36A7.13,7.13,0,0,1,39.12,132.1Z"/><path class="k" d="M41.68,131.49c.23-.6.78-.4,1.22-.48A1.42,1.42,0,0,1,41.68,131.49Z"/><path class="k" d="M36.8,132.35l.24-.26h.24l.62,0A.83.83,0,0,1,36.8,132.35Z"/><path class="k" d="M22.78,130.64a1.81,1.81,0,0,1,1.22.61C23.59,131.06,23,131.16,22.78,130.64Z"/><path class="g" d="M17.89,109.81a1.59,1.59,0,0,1-.68-.6C17.72,109.08,18,109.33,17.89,109.81Z"/><path class="g" d="M42.26,97.48a.23.23,0,0,1-.05.26C42,97.6,42.07,97.53,42.26,97.48Z"/><path class="g" d="M17.13,109.14A.18.18,0,0,1,17,109c.06-.07.12-.17.22-.07S17.2,109.07,17.13,109.14Z"/><path class="l" d="M50.61,99.92c.52.35.38.87.26,1.32a4.55,4.55,0,0,1-.54,1.21A28,28,0,0,1,44,109.87,32.42,32.42,0,0,1,39.54,113a34.31,34.31,0,0,1-4.47,2.08,31.2,31.2,0,0,1-3.52,1.1,28.27,28.27,0,0,1-6.33,1c-.93,0-1.85.22-2.78.21a23.61,23.61,0,0,1-5.58-.64,13.43,13.43,0,0,1-4-1.55c-.23-.14-.52-.26-.55-.59A22.45,22.45,0,0,0,16,116a25.85,25.85,0,0,0,7.83.65A38.34,38.34,0,0,0,33.09,115a30.34,30.34,0,0,0,12.49-7.62A23.48,23.48,0,0,0,50.15,101C50.33,100.68,50.46,100.29,50.61,99.92Z"/><path class="m" d="M47.56,94.3A1.48,1.48,0,0,1,48,95.43a7.1,7.1,0,0,1-1.49,5.16,15.26,15.26,0,0,1-6.23,4.75,23.32,23.32,0,0,1-5,1.64,15.06,15.06,0,0,1-4.69.29c-.9-.11-1.8-.26-2.69-.42-.23,0-.56,0-.6-.38.82.13,1.64.28,2.46.38a18.67,18.67,0,0,0,9.75-1.76,16,16,0,0,0,6.35-4.67A7.53,7.53,0,0,0,47.56,94.3Z"/><path class="m" d="M14.74,104.68a6.75,6.75,0,0,1,.08-3.29,12.67,12.67,0,0,1,6.42-8.17,20.62,20.62,0,0,1,9.52-2.59,24.42,24.42,0,0,1,4.73.17,2.05,2.05,0,0,1,.34.11c-.16.18-.38.12-.57.1a20.08,20.08,0,0,0-4.78-.06,20.47,20.47,0,0,0-7.09,1.71c-.5.24-1.22.23-1.47.92h-.23a2.47,2.47,0,0,0-1.1.73l-.12.12c-.26,0-.47.06-.49.36a.39.39,0,0,1-.36.24.52.52,0,0,0-.49.49l-.48.37a.22.22,0,0,0-.25.24h0a.22.22,0,0,0-.24.25l-.25.36c-.27,0-.39.1-.36.37l-.14.24c-.16.09-.49,0-.35.37-.07.13-.27.18-.24.37a.36.36,0,0,0-.24.37.25.25,0,0,0-.12.24c-.07,0-.18,0-.21.1a10.84,10.84,0,0,0-1.13,2.82C14.84,102.62,14.91,103.66,14.74,104.68Z"/><path class="l" d="M39.82,95.63c.64.91,0,1.52-.55,2.1a7.48,7.48,0,0,1-7.06,2.57,13.71,13.71,0,0,0-4.29,0,2.38,2.38,0,0,0-1.8,1.38c-.2.41.18.79,0,1.17a1.32,1.32,0,0,1-.49-1.09,2.22,2.22,0,0,1,.78-1.18c.42-.29.86-.56,1.29-.84l.24,0c.16.17.37.11.56.11a9,9,0,0,0,2.07-.11C34.38,100.46,38.1,99.21,39.82,95.63Z"/><path class="j" d="M21.92,93.57c.24-.69,1-.67,1.47-.92a20.47,20.47,0,0,1,7.09-1.71,20.08,20.08,0,0,1,4.78.06c.19,0,.41.09.57-.1l.23.05c.06.16.14.23.27.05a.15.15,0,0,1,.11,0v.23l-.36.23h-.24c-.14-.42-.49-.16-.74-.23h-.48a1.8,1.8,0,0,0-1.16-.11,7.2,7.2,0,0,0-2.25.11h-.48a16,16,0,0,0-3.45.4c-.17,0-.43,0-.45.31h-.24a3.39,3.39,0,0,0-2.2.73h-.24a6.23,6.23,0,0,0-.69.17A10.71,10.71,0,0,1,21.92,93.57Z"/><path class="j" d="M14.74,104.68c.17-1,.1-2.06.37-3.06a10.84,10.84,0,0,1,1.13-2.82c0-.05.14-.07.21-.1a.25.25,0,0,1,.12.24h0a.36.36,0,0,0-.24.37l-.13.48c-.28,0-.34.28-.4.47-.2.62-.38,1.26-.56,1.89a.29.29,0,0,0,.1.32v.24c-.07,0-.19.08-.19.12a7.08,7.08,0,0,0,.08,2.44v.24a.69.69,0,0,0,.23.62v.12c0,.14,0,.29-.14.37A4.23,4.23,0,0,1,14.74,104.68Z"/><path class="j" d="M39.72,92.61h-.24a5.21,5.21,0,0,0-2.16-1c-.21-.05-.57,0-.64-.33v-.16a.16.16,0,0,1,.11,0,.22.22,0,0,0,.3.1A6.82,6.82,0,0,1,40,92.56Z"/><path class="m" d="M27.66,99.73c-.43.28-.87.54-1.29.84a2.22,2.22,0,0,0-.78,1.18,1.45,1.45,0,0,1,.77-1.61A2.18,2.18,0,0,1,27.66,99.73Z"/><path class="h" d="M15.33,106.63c.15-.09.13-.23.14-.37a3.24,3.24,0,0,1,.71,1.85A3.34,3.34,0,0,1,15.33,106.63Z"/><path class="m" d="M30.54,99.68a9,9,0,0,1-2.07.11c-.19,0-.4.06-.56-.11A7.45,7.45,0,0,1,30.54,99.68Z"/><path class="h" d="M39.72,92.61l.27,0h0c0,.12.11.15.22.16.22.27.63.35.74.73A1.46,1.46,0,0,1,39.72,92.61Z"/><path class="h" d="M16.17,108.11c.44,0,.51.3.53.65A1.36,1.36,0,0,1,16.17,108.11Z"/><path class="l" d="M11.72,114.19c0,.07,0,.17-.15.12s-.12-.19-.09-.31A.27.27,0,0,1,11.72,114.19Z"/><path class="m" d="M36.32,91c-.13.18-.2.11-.27-.05A.21.21,0,0,1,36.32,91Z"/><path class="m" d="M36.69,91.11v.16h-.25V91A.24.24,0,0,1,36.69,91.11Z"/><path class="l" d="M12.3,114.55c-.15,0-.32,0-.33-.19C12.1,114.38,12.24,114.4,12.3,114.55Z"/><path class="j" d="M40.21,92.73c-.11,0-.2,0-.22-.16S40.19,92.6,40.21,92.73Z"/><path class="m" d="M37.1,91.23a.22.22,0,0,1-.3-.1A.33.33,0,0,1,37.1,91.23Z"/><path class="l" d="M11.41,114h0l0,0C11.37,113.88,11.4,113.88,11.41,114Z"/><path class="m" d="M20.33,123c1.32.2,2.62.5,3.95.68a28.75,28.75,0,0,0,6.47.11,36.21,36.21,0,0,0,6.57-1.14,28.14,28.14,0,0,0,11.58-6,14.85,14.85,0,0,0,2.9-3.48,6.2,6.2,0,0,0,.85-3.79.52.52,0,0,1,.25.39,4.42,4.42,0,0,1-.17,2.68,9.91,9.91,0,0,1-2.3,3.59A22.4,22.4,0,0,1,45,120.1a8.3,8.3,0,0,1-2.59,1.16.24.24,0,0,0-.25.12l-.36.12c-.22,0-.54-.16-.61.25a5.6,5.6,0,0,1-.52.3,25.83,25.83,0,0,1-4.88,1.46,35,35,0,0,1-6.72.78,29.88,29.88,0,0,1-7.48-.83C21.16,123.37,20.6,123.52,20.33,123Z"/><path class="h" d="M41.81,121.5l.36-.12c.19.18.22,0,.25-.12A8.3,8.3,0,0,0,45,120.1,22.4,22.4,0,0,0,50.43,116a9.91,9.91,0,0,0,2.3-3.59,4.42,4.42,0,0,0,.17-2.68.52.52,0,0,0-.25-.39l-.34-.85c1.33.76,1.23,2.07,1,3.27a9.45,9.45,0,0,1-2.4,4.28,19.56,19.56,0,0,1-5.15,4.09A29.16,29.16,0,0,1,38.88,123c-1.26.33-2.51.76-3.8,1-1.55.26-3.11.45-4.68.58a28.8,28.8,0,0,1-4.3,0,22.36,22.36,0,0,1-2.76-.36,22.22,22.22,0,0,1-3.54-.8c-.4-.15-.73-.34-.78-.81l.47.16a.61.61,0,0,0,.67.21l.18,0c.26.56.82.41,1.26.51a29.88,29.88,0,0,0,7.48.83,35,35,0,0,0,6.72-.78,25.83,25.83,0,0,0,4.88-1.46,5.57,5.57,0,0,0,.52-.3C41.41,121.7,41.72,121.87,41.81,121.5Z"/><path class="m" d="M20.16,122.92a.61.61,0,0,1-.67-.21A1,1,0,0,1,20.16,122.92Z"/><path class="m" d="M26.31,130.93c1.26.14,2.51.41,3.78.49a37,37,0,0,0,4.67,0,30.38,30.38,0,0,0,5.15-.78,20.57,20.57,0,0,0,9.25-4.47,5.3,5.3,0,0,0,1.69-2.62c.09-.36,0-.73.11-1.08a1,1,0,0,1,.22.67,4,4,0,0,1-1.18,3,11.83,11.83,0,0,1-3.18,2.37,17,17,0,0,1-2.71,1.32c-1.44.46-2.88.9-4.36,1.26a35.09,35.09,0,0,1-5.69.75,27.93,27.93,0,0,1-4.73-.14,12.58,12.58,0,0,1-1.78-.29A2.78,2.78,0,0,1,26.31,130.93Z"/><path class="j" d="M26.31,130.93a2.78,2.78,0,0,0,1.26.48,12.58,12.58,0,0,0,1.78.29,27.93,27.93,0,0,0,4.73.14,35.09,35.09,0,0,0,5.69-.75c1.48-.36,2.92-.8,4.36-1.26a17,17,0,0,0,2.71-1.32A11.83,11.83,0,0,0,50,126.15a4,4,0,0,0,1.18-3,1,1,0,0,0-.22-.67,1.49,1.49,0,0,1-.15-.72c.56.08.67.59.71,1a4.55,4.55,0,0,1-1.35,3.72,15.57,15.57,0,0,1-6,3.71,25.27,25.27,0,0,1-5.4,1.53c-.4.07-.79.14-1.19.19-.16,0-.27.06-.3.24H37c-.37-.3-.78-.06-1.16,0a40.31,40.31,0,0,1-7.32-.17,4.14,4.14,0,0,0-.67,0h-.23c-.25-.44-.73-.26-1.09-.35a14.15,14.15,0,0,1-3.83-1.33c-.26-.16-.53-.31-.57-.65l1.71.75c.09.13.22.12.35.12l.38.11a1.57,1.57,0,0,0,1.47.39Z"/><path class="m" d="M26.07,130.9a1.57,1.57,0,0,1-1.47-.39A4.35,4.35,0,0,1,26.07,130.9Z"/><path class="m" d="M24.23,130.4c-.13,0-.26,0-.35-.12C24,130.28,24.15,130.26,24.23,130.4Z"/><path class="j" d="M50.7,121.5a.23.23,0,0,1,.12.25C50.71,121.7,50.7,121.6,50.7,121.5Z"/><path class="j" d="M34.4,144.29c1.05.45,1,1.95-.22,2.63a5.86,5.86,0,0,1-2.49.67,13.68,13.68,0,0,1-5.12-.61,18.7,18.7,0,0,1-5.38-2.68c-.21-.15-.51-.3-.43-.67.85.47,1.68,1,2.54,1.4a14.44,14.44,0,0,0,8,1.81,5.66,5.66,0,0,0,2-.51A1.69,1.69,0,0,0,34.4,144.29Z"/><path class="j" d="M20.74,143.64c-.08,0-.12-.05-.12-.13Z"/><path class="j" d="M30.53,151a.71.71,0,0,1,.36,1,1.72,1.72,0,0,1-1.14.93,7,7,0,0,1-3.75,0,6.48,6.48,0,0,1-3.67-2.23A22.39,22.39,0,0,0,25,152.13a6.72,6.72,0,0,0,4,.28A1.68,1.68,0,0,0,30.53,151Z"/><path class="h" d="M26.81,92c0-.28.29-.29.45-.31a16,16,0,0,1,3.45-.4c0,.21-.18.24-.35.24a12.8,12.8,0,0,0-3.41.57S26.85,92,26.81,92Z"/><path class="h" d="M36.44,91.26h.25c.08.37.43.27.64.33a5.21,5.21,0,0,1,2.16,1c-.58.12-1-.35-1.43-.53a10.34,10.34,0,0,1-2-.57Z"/><path class="h" d="M31.19,91.26a7.2,7.2,0,0,1,2.25-.11,1.8,1.8,0,0,1,1.16.11,8.13,8.13,0,0,1-2.37.11C31.9,91.38,31.52,91.51,31.19,91.26Z"/><path class="h" d="M21.92,93.57a10.71,10.71,0,0,0,1.52-.67,6.23,6.23,0,0,1,.69-.17c-.11.44-.57.4-.86.57a15.62,15.62,0,0,1-1.7.76l.13-.47Z"/><path class="h" d="M19.61,95A.39.39,0,0,0,20,94.8a.56.56,0,0,0,.49-.36l.12-.12c.32,0,.55-.23.85-.25a7,7,0,0,1-2,1.46Z"/><path class="h" d="M15.34,102.48a.29.29,0,0,1-.1-.32c.18-.63.35-1.26.56-1.89.06-.19.12-.44.4-.47Z"/><path class="h" d="M15.23,105.28a7.08,7.08,0,0,1-.08-2.44s.12-.08.19-.12A11.33,11.33,0,0,1,15.23,105.28Z"/><path class="h" d="M17.9,96.74l.25-.36a.22.22,0,0,0,.24-.25h0a.22.22,0,0,0,.25-.24l.48-.37h.25A3.64,3.64,0,0,1,17.91,97Z"/><path class="h" d="M16.57,98.94a.25.25,0,0,0-.12-.24.25.25,0,0,1,.12-.24c.25,0,.24-.19.24-.37s.17-.24.24-.37.32-.17.48-.25h0C17.48,98.15,17,98.51,16.57,98.94Z"/><path class="h" d="M24.36,92.71a3.39,3.39,0,0,1,2.2-.73A7.27,7.27,0,0,1,24.36,92.71Z"/><path class="j" d="M21.44,94.06c-.3,0-.53.29-.85.25a2.47,2.47,0,0,1,1.1-.73l-.13.47Z"/><path class="h" d="M35.09,91.27c.25.07.6-.19.74.23C35.58,91.43,35.23,91.69,35.09,91.27Z"/><path class="j" d="M19.37,95.53h-.25a.52.52,0,0,1,.49-.49l-.12.48Z"/><path class="h" d="M15.46,106.13a.69.69,0,0,1-.23-.62A.4.4,0,0,1,15.46,106.13Z"/><path class="j" d="M17.9,96.74v.37h-.36C17.51,96.84,17.64,96.73,17.9,96.74Z"/><path class="h" d="M17.54,97.11h.36a.34.34,0,0,1-.36.37h0l-.13-.13Z"/><path class="h" d="M16.33,99.31a.36.36,0,0,1,.24-.37C16.57,99.12,16.57,99.29,16.33,99.31Z"/><path class="k" d="M35.29,159.68A1.3,1.3,0,0,1,34,161a1.37,1.37,0,0,1,0-2.73A1.3,1.3,0,0,1,35.29,159.68Zm-.66.88c-.31-.43-.42-.79-.08-1.22.14-.18-.06-.49-.34-.53s-.63-.18-.68.14a4.14,4.14,0,0,0,0,1.6c.35-.14.07-.48.29-.64C34.19,160,34.11,160.53,34.62,160.56Z"/><path class="j" d="M17.41,97.35l.13.13c-.17.07-.27.26-.48.25C16.92,97.36,17.25,97.44,17.41,97.35Z"/><path class="j" d="M20.47,94.43a.56.56,0,0,1-.49.36C20,94.49,20.2,94.42,20.47,94.43Z"/><path class="j" d="M16.81,98.09c0,.18,0,.35-.24.37A.36.36,0,0,1,16.81,98.09Z"/><path class="j" d="M18.64,95.9a.22.22,0,0,1-.25.24A.22.22,0,0,1,18.64,95.9Z"/><path class="j" d="M18.39,96.14a.22.22,0,0,1-.24.25A.22.22,0,0,1,18.39,96.14Z"/><path class="l" d="M41.81,121.5c-.09.37-.4.19-.61.25C41.27,121.34,41.59,121.55,41.81,121.5Z"/><path class="l" d="M42.42,121.26c0,.15-.06.31-.25.12A.24.24,0,0,1,42.42,121.26Z"/><path class="i" d="M34.62,160.56c-.51,0-.43-.59-.79-.65-.22.16.05.5-.29.64a4.14,4.14,0,0,1,0-1.6c.05-.32.45-.17.68-.14s.48.35.34.53C34.21,159.77,34.31,160.13,34.62,160.56Zm-.36-1.29A.23.23,0,0,0,34,159c-.16,0-.28,0-.28.22s0,.3.19.32S34.23,159.5,34.26,159.27Z"/><path class="k" d="M34.26,159.27c0,.23-.15.32-.34.3s-.19-.17-.19-.32.12-.24.28-.22A.23.23,0,0,1,34.26,159.27Z"/><path class="a" d="M96.92,125l-.13.1-.16.12v0h0l-.11.09a.58.58,0,0,0-.31.27l-.16,0-.12-.13h0a.37.37,0,0,0-.23-.28.26.26,0,0,0-.21-.2v0h0l-.23-.14-.19-.1,0,0h0a2.68,2.68,0,0,0-1.65-.31H91.92c-.31,0-.26.14-.22.33,0,.42,0,.85,0,1.27,0,1.11,0,1.11,1.11,1l.36,0,.09.13a5,5,0,0,0,0,1.35q-.09,1.82,0,3.64a1.45,1.45,0,0,0,0,.75v.23c-.08.3-.32.25-.54.25-2.15,0-4.31,0-6.46,0-.46,0-.53-.17-.52-.56,0-1.16,0-2.32,0-3.47,0-.51-.16-.62-.62-.6a15.6,15.6,0,0,1-2,0c-.53,0-.65.15-.63.64a5.06,5.06,0,0,1-.53,2.83,2.76,2.76,0,0,1-3,1.25,2.24,2.24,0,0,1-1.89-2,5.13,5.13,0,0,1,.05-2.12,2.88,2.88,0,0,1,2.13-2.2,7.65,7.65,0,0,1,3.08,0,9.87,9.87,0,0,1,3.16.95c0-.91,0-1.72,0-2.53a.59.59,0,0,0-.51-.68,15.18,15.18,0,0,0-4.94-.59,6.34,6.34,0,0,0-6.23,8,4.45,4.45,0,0,0,2.61,3.39,5.86,5.86,0,0,0,6.11-.58c.21-.16.34-.23.54,0a2.51,2.51,0,0,0,2.1.93c1.69,0,3.37,0,5.06,0A3,3,0,0,0,93,134.39c.06-.11.09-.31.28-.12v.17c0,.52-.25,1.07.15,1.56h4.39c.08,0,.18.06.19-.09a.47.47,0,0,0,0-.36v-.12a9.88,9.88,0,0,0,0-1.71c0-.11.09-.25-.09-.3a6.79,6.79,0,0,0-1.38,0l-.08-.26v-.23a1.86,1.86,0,0,0,0-.75v-.83s0,0,0,0a.62.62,0,0,0,0-.1v-1.33l.06-.37a3.5,3.5,0,0,1,1.05-2.16h0l1.07-.42.25,0,.06,0,.06,0,.86,0,.85.37h0l.13.11.23.26.11.19.08.17.2.6,0,.25a.43.43,0,0,0,.07.36l0,6.46c0,.16-.12.38.21.33h1c1,0,2,0,3,0,.63,0,.73-.22.59-.74,0-.55,0-1.09,0-1.64,0-.23-.07-.35-.33-.27h-.23l-.91,0-.1-.25,0-3.3a.21.21,0,0,0,0-.24l.1-.61,0-.12,0-.15.32-.71.23-.28a2.67,2.67,0,0,1,2.79-.74c1,.21,1.33,1,1.49,1.86a8.41,8.41,0,0,1,.1,1.52c0,1.71,0,3.41,0,5.12,0,.47.13.57.58.57,2.13,0,4.27,0,6.4,0,1.56,0,3-.25,3.77-1.82a9.08,9.08,0,0,1,.05,1.4c0,.32.11.42.42.42.77,0,1.54,0,2.32,0,.41,0,.51-.13.5-.52,0-1.62,0-3.25,0-4.87a4.64,4.64,0,0,1,.81-2.7,2.8,2.8,0,0,1,3-1,2.24,2.24,0,0,1,1.74,2.09,3.47,3.47,0,0,1-3.52,4.29c-.37,0-.5.1-.48.48,0,.59,0,1.18,0,1.77,0,.35.11.44.45.44,3.45,0,6.91,0,10.36,0a2.9,2.9,0,0,0,3-2,.19.19,0,0,1,.2-.15,4,4,0,0,0,1.7,1.67,5.92,5.92,0,0,0,6.43-.43c.22-.16.34-.23.53,0a2.29,2.29,0,0,0,1.79.9,15.84,15.84,0,0,0,2.55,0,2.86,2.86,0,0,0,2.66-2.14c.11-.38,0-.5-.37-.49-1.16,0-2.32,0-3.47,0-.39,0-.53-.1-.52-.51,0-1.2,0-2.4,0-3.59,0-.38-.08-.55-.5-.52a17.14,17.14,0,0,1-2.13,0c-.53,0-.64.16-.62.65a4.89,4.89,0,0,1-.59,2.94,2.71,2.71,0,0,1-2.88,1.15,2.18,2.18,0,0,1-1.91-1.86,5.12,5.12,0,0,1-.09-1.63,3,3,0,0,1,2.83-3,9.92,9.92,0,0,1,5.17.82c.44.2.51.1.49-.32a19.39,19.39,0,0,1,0-1.95c0-.46-.17-.64-.58-.76a14.62,14.62,0,0,0-5.54-.52,6.19,6.19,0,0,0-3.69,1.58c-2.07,1.91-2.38,4.3-1.71,6.88.16.61,0,.65-.51.65-2.21,0-4.43,0-6.64,0-.17,0-.36.07-.51-.07,1.75-2.61,1.87-5.47.29-7.38a4.86,4.86,0,0,0-3.76-1.7,5.37,5.37,0,0,0-4,1.3v-.88c0-1.93,0-3.86,0-5.79,0-.44-.13-.55-.55-.53-.83,0-1.67,0-2.5,0-.55,0-1.25-.23-1.59.09s-.11,1.07-.12,1.63c0,.91,0,.95.93.91.5,0,.6.16.6.63q0,5.61,0,11.21c0,.45-.11.59-.57.58-2.11,0-4.23,0-6.34,0-.54,0-.62-.17-.62-.65a37.25,37.25,0,0,0-.08-4.5,4.05,4.05,0,0,0-3.1-3.79,6.38,6.38,0,0,0-5.82,1.1c-.26.21-.42.29-.68,0a2,2,0,0,0-1-.7.31.31,0,0,0-.28-.13.34.34,0,0,0-.31-.12,2,2,0,0,0-1-.26,5.45,5.45,0,0,0-2.09,0,2.36,2.36,0,0,0-1.2.31.53.53,0,0,0-.39.17l-.32.19Zm124.84,8.7a5.88,5.88,0,0,0,4.14,2.27,66.2,66.2,0,0,0,9,0,2.64,2.64,0,0,0,2.47-2.11c.11-.39,0-.49-.37-.49-1.63,0-3.25,0-4.88,0s-3.29,0-4.94,0a3.23,3.23,0,0,1-2.92-1.33c-.13-.19-.34-.42-.2-.66s.38-.08.57-.08h7.44c.24,0,.57.13.6-.3a6,6,0,0,0-2.27-5.66c-2.69-2-8.35-1.52-9.53,3.26-.07.3-.2.4-.5.39-.47,0-.93,0-1.4,0-.31,0-.44.08-.43.41,0,.53,0,1.06,0,1.58,0,.33.12.42.42.41.47,0,.93,0,1.4,0,.21,0,.42,0,.47.27a9.57,9.57,0,0,0,.65,1.75h-1.57c-2.64,0-5.28,0-7.92,0s-4-1.65-3.59-4.08A2.66,2.66,0,0,1,211,127a6,6,0,0,1,3.81,1l.82.53c0-1,0-1.9,0-2.78a.67.67,0,0,0-.44-.7,8.31,8.31,0,0,0-4.68-.78c-4.07.44-6.26,3.67-5.2,7.62.13.5.36,1,.55,1.49-2.1,0-4.17,0-6.25,0-.5,0-.65-.11-.65-.63,0-2.62,0-5.24,0-7.86,0-.43-.11-.56-.54-.54-.85,0-1.71,0-2.56,0-.55,0-1.27-.18-1.59.09s-.1,1.07-.12,1.63c0,.94,0,1,1,.94.46,0,.59.13.58.59,0,1.71,0,3.41,0,5.12,0,.5-.1.65-.63.65q-3.14,0-6.28,0c-.5,0-.64-.12-.64-.63,0-2.6,0-5.2,0-7.8,0-.49-.14-.62-.62-.6-.87,0-1.75,0-2.62,0-.5,0-1.15-.22-1.47.09s-.11,1-.12,1.52c0,1,0,1.06,1,1.06.41,0,.51.16.5.54,0,.93,0,1.87,0,2.8a4.19,4.19,0,0,1-.37,1.77,2.59,2.59,0,0,1-3,1.33,2,2,0,0,1-1.79-1.93,9.41,9.41,0,0,1-.1-1.46c0-1.75,0-3.49,0-5.24,0-.28,0-.51-.4-.5-1.34,0-2.68,0-4,0-.33,0-.42.12-.41.43,0,.63,0,1.26,0,1.89,0,.3.1.41.39.38a3.48,3.48,0,0,1,.37,0c.77,0,.76,0,.77.8,0,1.4-.08,2.81.07,4.2a4,4,0,0,0,2.7,3.78,6,6,0,0,0,5.85-.73c.16-.12.29-.3.49,0a2.74,2.74,0,0,0,2.38,1c1.44,0,2.89,0,4.33,0a3.43,3.43,0,0,0,3.5-1.9,1.74,1.74,0,0,0,1.68,1.87,6.51,6.51,0,0,0,.79,0c1.4,0,2.8,0,4.21,0,1.79,0,3.24-.45,3.73-2.44a5.93,5.93,0,0,0,4.33,2.31A67.37,67.37,0,0,0,219,136a2.68,2.68,0,0,0,2.27-1.35A9.75,9.75,0,0,0,221.77,133.67Zm-49.5-8.6c0-2.07,0-4.14,0-6.22,0-.39-.1-.53-.51-.52-1.56,0-3.13,0-4.69,0-.32,0-.48.06-.47.43,0,.69,0,1.38,0,2.07,0,.37.14.44.47.43.49,0,1,0,1.46,0,.28,0,.4.08.4.38,0,3.13,0,6.26,0,9.39,0,1.81-1.05,2.59-2.84,2.36-1.14-.15-1.78-.87-1.94-2.23,0-.26,0-.46-.39-.45-.83,0-1.67,0-2.5,0-.28,0-.41.08-.4.38a4.94,4.94,0,0,0,5.2,5.12c3.79.19,6.34-1.76,6.25-5.77C172.23,128.64,172.27,126.86,172.27,125.07Zm8,27.4a1.26,1.26,0,0,0,0,.37c.19.6-.12.86-.64,1a8.09,8.09,0,0,1-2.27.38,2.87,2.87,0,0,1-1.82-.57,5.06,5.06,0,0,1-1.46-5.06.75.75,0,0,1,.15-.26,5,5,0,0,1,4.09-2.16,3.56,3.56,0,0,1,1.83.59c.4.23.18.67.29,1s.18.42.44.42.39-.21.41-.45a4.61,4.61,0,0,0-.27-2c-.07-.19-.23-.36-.41-.2s-.59.13-.89,0a4.18,4.18,0,0,0-1.43-.28,5.93,5.93,0,0,0-4.07,1.66,3.31,3.31,0,0,0-1.18,2.14,6.33,6.33,0,0,0,1,4.24,3.85,3.85,0,0,0,2.71,1.77,6,6,0,0,0,3-.4c.12,0,.37-.3.41.05s0,.62.47.63a1.72,1.72,0,0,0,1-.14c.23-.14.43-.46.05-.6s-.35-.37-.37-.65c-.05-1-.12-2.07-.18-3.1,0-.54-.25-.81-.84-.72a8,8,0,0,1-1.22.07c-.38,0-.76,0-1-.46-.11-.27-.37-.28-.46.05a3.11,3.11,0,0,0,0,1.63.36.36,0,0,0,.33.31c.2,0,.3-.14.31-.31,0-.42.29-.5.67-.47C180.27,151,180.27,151,180.31,152.47Zm-83.84,2.59h1.14a2.87,2.87,0,0,0,2.8-2,2.75,2.75,0,0,0-.84-2.78.81.81,0,0,1-.19-1.16,2.35,2.35,0,0,0-1.72-3.41,13.35,13.35,0,0,0-4.06-.19A.62.62,0,0,0,93,146c-.05.17-.15.37,0,.51s.48.08.73,0c.6-.3.86-.15.87.5,0,2.11,0,4.22,0,6.33,0,.85,0,.85-.81.91a1.65,1.65,0,0,0-.41.09c-.32.12-.23.38-.2.62s.16.42.4.33C94.51,154.88,95.5,155.32,96.47,155.06Zm62.43-2.25c0,.57,0,1.14,0,1.7,0,.18,0,.37.23.43a4,4,0,0,0,1.21.13.37.37,0,0,0,.38-.25.3.3,0,0,0-.21-.39c-.66-.15-.62-.62-.57-1.13s0-.93,0-1.4a6.6,6.6,0,0,0-.3-2.46,1.42,1.42,0,0,0-.8-1,3.83,3.83,0,0,0-3.32.32c-.37.21-.47.19-.52-.24a8.16,8.16,0,0,1,0-2c0-.26-.06-.57.16-.75.61-.5.09-.54-.25-.65a1.22,1.22,0,0,0-.78,0c-.45.16-.53.46-.19.8a.57.57,0,0,1,.18.43c0,2.48.11,5,0,7.43,0,.21,0,.41-.3.45s-.35,0-.36.23a.5.5,0,0,0,.31.49,1.68,1.68,0,0,0,1.3,0c.25-.08.34-.32.15-.47-.42-.35-.29-.76-.23-1.17a8.27,8.27,0,0,0,.06-2.31,1.42,1.42,0,0,1,.83-1.53,3.2,3.2,0,0,1,1.45-.41c1.08-.08,1.45.22,1.62,1.31A6.86,6.86,0,0,1,158.9,152.81Zm38.93-1.06c0,1,.12,1.55.47,1.9,1.28,1.3,2.93,2,4.63.9.22-.14.33-.1.36.16.08.64.56.63,1,.57a.37.37,0,0,0,.2-.67c-.48-.29-.46-.72-.48-1.16-.1-1.93.14-3.85.17-5.78,0-.43-.21-1,.38-1.22a.17.17,0,0,0,.06-.16,1,1,0,0,0-.93-.57c-.39,0-.43.29-.38.61a7.19,7.19,0,0,1,0,2.06c-.05.41-.13.57-.6.33A3.3,3.3,0,0,0,197.83,151.74Zm-77.24.14a2.65,2.65,0,0,0,.36,1.71c1,1.13,2.66,2.28,4.63,1.09.24-.15.4-.21.45.16.09.61.56.56,1,.51a.37.37,0,0,0,.2-.67c-.51-.31-.46-.77-.48-1.22-.08-2.11.2-4.22.15-6.33,0-.14,0-.28.16-.37s.42-.22.24-.45a1,1,0,0,0-1-.43c-.31.06-.33.32-.28.58a6.71,6.71,0,0,1,0,2c-.06.49-.15.63-.66.37A3.3,3.3,0,0,0,120.59,151.88Zm44.35-.11v0c.75,0,1.5,0,2.25,0s.82-.16.74-.85a2.9,2.9,0,0,0-3.63-2.71,3.52,3.52,0,0,0-2.76,3,3.74,3.74,0,0,0,2.1,3.5,2.78,2.78,0,0,0,3.09-.17,2.56,2.56,0,0,0,.84-1,.46.46,0,0,0-.14-.65c-.24-.14-.42,0-.57.2l-.16.19a2,2,0,0,1-2.13.83,2.91,2.91,0,0,1-2.07-1.8c-.13-.3,0-.49.36-.47C163.56,151.8,164.26,151.77,164.95,151.77Zm-56.58.11v.06c.81,0,1.62-.08,2.43-.11.42,0,.56-.22.55-.61a2.87,2.87,0,0,0-3.59-2.92,3.27,3.27,0,0,0-2.68,2.68,3.2,3.2,0,0,0,1.43,3.38,2.85,2.85,0,0,0,4.35-.54c.18-.28.38-.61.06-.87s-.57.06-.73.3c-1.11,1.69-3.46.9-4.21-.89-.12-.28-.1-.5.33-.49C107,151.9,107.68,151.88,108.37,151.88ZM138.69,149c.08-.59-.19-.77-.69-.7a1.51,1.51,0,0,1-.3,0c-.24,0-.53-.08-.62.23a.5.5,0,0,0,.35.62.53.53,0,0,1,.4.53c0,1.34,0,2.68,0,4a.64.64,0,0,1-.37.68.28.28,0,0,0,0,.53,1.23,1.23,0,0,0,1,.25c.28-.08.29-.45.32-.74s0-.61,0-.91c0-.91,0-1.83,0-2.74a.88.88,0,0,1,.09-.53,2.44,2.44,0,0,1,2.22-1,1.43,1.43,0,0,1,1.33,1.24,6.63,6.63,0,0,1,0,4.05c-.06.16-.2.36,0,.47a1.42,1.42,0,0,0,1.23.11c.19-.1.51-.3.17-.54s-.31-.54-.28-.86a10,10,0,0,0-.15-3.27,2.5,2.5,0,0,0-3.47-1.93C139.51,148.61,139.14,148.81,138.69,149Zm-24.51,3.54c0-.49,0-1,0-1.46-.06-1,.66-1.5,1.88-1.75a1.4,1.4,0,0,1,1.69,1,6.36,6.36,0,0,1,.08,4.17c-.06.16-.21.37,0,.49a1.58,1.58,0,0,0,1.18.16.45.45,0,0,0,.35-.38.24.24,0,0,0-.09-.2c-.39-.19-.3-.53-.28-.85a12,12,0,0,0-.07-2.85c-.41-2.25-2-3.06-4.1-2.08-.27.13-.7.63-.69-.22,0-.14-.17-.14-.29-.15l-.6-.05c-.26,0-.57-.09-.67.24s.13.49.39.6a.53.53,0,0,1,.39.54c0,1.34,0,2.68,0,4,0,.26,0,.47-.31.59s-.36.21-.23.42c.21.36.62.37,1,.43s.33-.25.39-.45A7.79,7.79,0,0,0,114.18,152.55Zm71.85-4.3a2.42,2.42,0,0,0-1.47.28,3.64,3.64,0,0,0-1.78,3.71,3.57,3.57,0,0,0,3.57,2.89,2.24,2.24,0,0,0,2.41-1.47,8.65,8.65,0,0,0,.41-1.27A3.49,3.49,0,0,0,186,148.25Zm7.51,0a2.36,2.36,0,0,0-1.47.27,3.52,3.52,0,0,0,1.72,6.61,2.3,2.3,0,0,0,2.47-1.47,8.43,8.43,0,0,0,.45-1.51A3.5,3.5,0,0,0,193.55,148.25Zm-25.71-33.89a2.24,2.24,0,1,0,2.25-2.22A2.19,2.19,0,0,0,167.84,114.36Zm-96.48,0a2.26,2.26,0,0,0-4.51,0,2.25,2.25,0,1,0,4.51,0Zm125.8,3.84a2.22,2.22,0,1,0,2.2,2.27A2.18,2.18,0,0,0,197.15,118.2Zm-47.23,33.34a10.85,10.85,0,0,0,.11,2.55,1.3,1.3,0,0,0,1.75.9.4.4,0,0,0,.29-.41c0-.19-.15-.27-.32-.32-1-.31-1.07-.4-1.1-1.45,0-.79,0-1.58,0-2.37,0-1-.06-1,.88-1.15.23,0,.39-.13.39-.38a.4.4,0,0,0-.34-.43,1.65,1.65,0,0,0-.42-.07c-.42,0-.51-.21-.52-.56,0-.65,0-1.3-.06-1.95,0-.18,0-.45-.26-.48s-.34.24-.39.45a8.79,8.79,0,0,0-.12,2c0,.33,0,.6-.47.54a.39.39,0,0,0-.48.42c0,.31.28.31.5.3.43,0,.57.2.56.6C149.91,150.31,149.92,150.92,149.92,151.53Zm-47.71-1.13h.06c0,1.26,0,2.52,0,3.78,0,.77.42,1.09,1.19,1,.22,0,.4-.11.44-.34s-.12-.34-.31-.37c-.39-.07-.43-.33-.46-.67-.11-1.54-.08-3.09-.11-4.63,0-1-.07-1.95-.11-2.92,0-.21,0-.47-.32-.47s-.37.25-.39.49c0,.08,0,.16,0,.24Q102.21,148.45,102.21,150.4Zm32.11-2v0h-.55c-.19,0-.39,0-.43.24a.34.34,0,0,0,.3.44c.39.05.33.34.34.6,0,1.36,0,2.72.06,4.07,0,.33,0,.55-.43.56a.32.32,0,0,0-.32.31c0,.2.13.28.29.34a2.82,2.82,0,0,0,1.67.07c.16,0,.33-.1.32-.31a.31.31,0,0,0-.31-.32c-.32,0-.41-.18-.41-.47,0-1.42-.09-2.84-.13-4.25,0-.2,0-.41.24-.5s.54-.12.44-.46-.4-.29-.67-.3Zm76.88-2a5,5,0,0,1-.05,1.76c0,.11-.05.2.08.23a.7.7,0,0,0,.3,0c.12,0,.13-.12.08-.23-.22-.56,0-1.16-.15-1.73-.06-.27.31-.63,0-.73s-.42.4-.59.63c-.48.65-.45.67-1,.08-.16-.18-.36-.32-.41-.58s-.24-.13-.36-.1,0,.17,0,.28a7,7,0,0,1,0,2.1c0,.1-.2.2,0,.27a.52.52,0,0,0,.35,0c.18-.07,0-.18,0-.28a6.69,6.69,0,0,1,0-1.74c.12.11.18.16.23.21C210.45,147.43,210.45,147.43,211.21,146.46Zm-2.51-.21c.05-.29.14-.55-.36-.51s-1,0-1.45,0-.45,0-.27.51c.36-.31.86-.33.86-.05a4.13,4.13,0,0,1-.1,2c0,.08-.09.15,0,.2a.57.57,0,0,0,.47,0c.09,0,.12-.09.06-.18-.35-.58-.06-1.21-.16-1.81s.28-.45.6-.41C208.48,146.07,208.47,146.32,208.7,146.25Zm-1.63,7.42c-.46,0-.74.23-.73.7s.13.69.58.68.81-.15.84-.66S207.49,153.72,207.07,153.67Zm-72.18-7.4c0-.2-.22-.34-.54-.33a.55.55,0,0,0-.57.63c0,.31.16.56.51.56S134.86,146.84,134.89,146.27Z"/><path class="n" d="M59.86,130.67c.91,0,1.83,0,2.74,0,.34,0,.5.05.54.44a2.31,2.31,0,0,0,3,2.24,1.92,1.92,0,0,0,1.6-1.33,4.38,4.38,0,0,0,.2-1.5c0-2.9,0-5.81,0-8.71,0-.5-.15-.62-.62-.6s-1.25.24-1.59-.09-.11-1.08-.12-1.64c0-1.17,0-1.17,1.18-1.16,1.34,0,2.68,0,4,0,.37,0,.48.09.48.47,0,4,0,8.08,0,12.12a5,5,0,0,1-5,5.25,7.64,7.64,0,0,1-3.13-.32,4.69,4.69,0,0,1-3.2-3.38c0-.11,0-.25-.13-.31Z"/><path class="o" d="M98.85,124.28a5.45,5.45,0,0,1,2.09,0c.25.48.69.2,1,.26a.34.34,0,0,1,.31.12c.05.12.16.14.28.13a2,2,0,0,1,1,.7c.25.31.42.24.68,0a6.38,6.38,0,0,1,5.82-1.1,4.05,4.05,0,0,1,3.1,3.79,37.25,37.25,0,0,1,.08,4.5c0,.48.08.66.62.65,2.11,0,4.22,0,6.34,0,.46,0,.58-.13.57-.58q0-5.61,0-11.21c0-.46-.1-.64-.6-.63-.94,0-1,0-.93-.91,0-.56-.26-1.28.12-1.63s1-.08,1.59-.09c.83,0,1.67,0,2.5,0,.42,0,.55.1.55.53,0,1.93,0,3.86,0,5.79v.88a5.37,5.37,0,0,1,4-1.3,4.86,4.86,0,0,1,3.76,1.7c1.57,1.91,1.45,4.77-.29,7.38.16.14.35.07.51.07,2.21,0,4.43,0,6.64,0,.53,0,.67,0,.51-.65-.67-2.58-.36-5,1.71-6.88a6.19,6.19,0,0,1,3.69-1.58,14.62,14.62,0,0,1,5.54.52c.41.12.61.3.58.76a19.39,19.39,0,0,0,0,1.95c0,.42,0,.53-.49.32A9.92,9.92,0,0,0,145,127a3,3,0,0,0-2.83,3,5.12,5.12,0,0,0,.09,1.63,2.18,2.18,0,0,0,1.91,1.86,2.71,2.71,0,0,0,2.88-1.15,4.89,4.89,0,0,0,.59-2.94c0-.49.09-.68.62-.65a17.14,17.14,0,0,0,2.13,0c.43,0,.51.14.5.52,0,1.2,0,2.4,0,3.59,0,.41.13.52.52.51,1.16,0,2.32,0,3.47,0,.41,0,.47.11.37.49a2.86,2.86,0,0,1-2.66,2.14,15.84,15.84,0,0,1-2.55,0,2.29,2.29,0,0,1-1.79-.9c-.19-.26-.31-.19-.53,0a5.92,5.92,0,0,1-6.43.43,4,4,0,0,1-1.7-1.67.19.19,0,0,0-.2.15,2.9,2.9,0,0,1-3,2c-3.45,0-6.91,0-10.36,0-.34,0-.47-.09-.45-.44,0-.59,0-1.18,0-1.77,0-.38.11-.47.48-.48a3.47,3.47,0,0,0,3.52-4.29,2.24,2.24,0,0,0-1.74-2.09,2.8,2.8,0,0,0-3,1,4.64,4.64,0,0,0-.81,2.7c0,1.62,0,3.25,0,4.87,0,.39-.09.54-.5.52-.77,0-1.54,0-2.32,0-.32,0-.44-.1-.42-.42a9.08,9.08,0,0,0-.05-1.4c-.82,1.57-2.22,1.84-3.77,1.82-2.13,0-4.27,0-6.4,0-.45,0-.59-.1-.58-.57,0-1.71,0-3.41,0-5.12a8.41,8.41,0,0,0-.1-1.52c-.16-.89-.51-1.65-1.49-1.86a2.67,2.67,0,0,0-2.79.74l-.23.28c-.36.12-.37.4-.32.71l0,.15,0,0a.49.49,0,0,0,0,.09l-.1.61c-.12.07-.14.15,0,.24l0,3.3c-.14.15,0,.2.1.25l.91,0c.08.1.15.1.23,0,.25-.08.33,0,.33.27,0,.55,0,1.09,0,1.64-.48.67-1.17.63-1.88.62a4.67,4.67,0,0,0-1.68.08h-1c0-.15,0-.31-.21-.33l0-6.46c.17-.16.16-.28-.07-.36l0-.25a.43.43,0,0,0-.2-.6l-.08-.17-.11-.19-.23-.26-.13-.11h0a.64.64,0,0,0-.85-.37l-.86,0c0-.05-.08,0-.11,0l-.25,0c-.44-.08-.9-.21-1.07.42h0a.43.43,0,0,0-.44.1,2.11,2.11,0,0,0-.61,2.06l-.06.37c-.2.12-.18.24,0,.37v2.92c-.19.15-.07.21.08.26a6.79,6.79,0,0,1,1.38,0c0,.11,0,.22.09.3a9.88,9.88,0,0,1,0,1.71l-.14.06.14.06a.47.47,0,0,1,0,.36l-.19.09h-.25c0-.26-.09-.42-.36-.25a.91.91,0,0,1-.57.16,15.72,15.72,0,0,1-2.72-.1c-.15,0-.22.05-.25.19h-.24a4.49,4.49,0,0,0-.15-1.56v-.17c0-.33,0-.66.19-1,.1-.13-.08-.18-.2-.2v-.23a.52.52,0,0,0,0-.75q-.09-1.82,0-3.64a1.4,1.4,0,0,0,0-1.35l-.09-.13a.21.21,0,0,0-.36,0c-1.11.09-1.12.09-1.11-1,0-.42,0-.85,0-1.27.21,0,.22-.17.22-.33h1.46c.49.41,1.12.11,1.65.31h0l0,0,.19.1.23.14h0a.26.26,0,0,1,.21.2c0,.17,0,.28.23.28h0l.12.13.16,0c.2,0,.32,0,.31-.27l.11-.09h0l.16-.12.13-.1h0c.13,0,.29,0,.32-.19a.53.53,0,0,1,.39-.17A1.27,1.27,0,0,0,98.85,124.28Z"/><path class="n" d="M221.77,133.67a9.75,9.75,0,0,1-.45,1A2.68,2.68,0,0,1,219,136a67.37,67.37,0,0,1-8.64-.07,5.93,5.93,0,0,1-4.33-2.31c-.49,2-1.94,2.47-3.73,2.44-1.4,0-2.8,0-4.21,0a6.51,6.51,0,0,1-.79,0,1.74,1.74,0,0,1-1.68-1.87,3.43,3.43,0,0,1-3.5,1.9c-1.44,0-2.88,0-4.33,0a2.74,2.74,0,0,1-2.38-1c-.2-.27-.33-.09-.49,0a6,6,0,0,1-5.85.73,4,4,0,0,1-2.7-3.78c-.16-1.4,0-2.8-.07-4.2,0-.8,0-.8-.77-.8a3.48,3.48,0,0,0-.37,0c-.29,0-.4-.08-.39-.38,0-.63,0-1.26,0-1.89,0-.31.08-.43.41-.43,1.34,0,2.68,0,4,0,.41,0,.4.22.4.5,0,1.75,0,3.49,0,5.24a9.41,9.41,0,0,0,.1,1.46,2,2,0,0,0,1.79,1.93,2.59,2.59,0,0,0,3-1.33,4.19,4.19,0,0,0,.37-1.77c0-.93,0-1.87,0-2.8,0-.38-.09-.54-.5-.54-1,0-1.05,0-1-1.06,0-.52-.23-1.19.12-1.52s1-.08,1.47-.09c.87,0,1.75,0,2.62,0,.48,0,.62.11.62.6,0,2.6,0,5.2,0,7.8,0,.51.13.64.64.63q3.14,0,6.28,0c.52,0,.64-.15.63-.65,0-1.71,0-3.41,0-5.12,0-.45-.12-.6-.58-.59-1,0-1,0-1-.94,0-.56-.26-1.31.12-1.63s1-.09,1.59-.09c.85,0,1.71,0,2.56,0,.43,0,.54.12.54.54,0,2.62,0,5.24,0,7.86,0,.52.15.63.65.63,2.07,0,4.14,0,6.25,0-.2-.52-.42-1-.55-1.49-1.06-3.95,1.13-7.18,5.2-7.62a8.31,8.31,0,0,1,4.68.78.67.67,0,0,1,.44.7c0,.89,0,1.77,0,2.78l-.82-.53a6,6,0,0,0-3.81-1,2.66,2.66,0,0,0-2.55,2.29c-.41,2.43,1,4,3.59,4.08s5.28,0,7.92,0h1.57a9.57,9.57,0,0,1-.65-1.75c0-.27-.25-.27-.47-.27-.47,0-.93,0-1.4,0-.31,0-.44-.08-.42-.41,0-.53,0-1.06,0-1.58,0-.33.12-.42.43-.41.47,0,.93,0,1.4,0,.3,0,.42-.09.5-.39,1.19-4.78,6.84-5.26,9.53-3.26A6,6,0,0,1,232.7,131c0,.43-.36.3-.6.3h-7.44c-.2,0-.46-.1-.57.08s.07.46.2.66a3.23,3.23,0,0,0,2.92,1.33c1.64,0,3.29,0,4.94,0s3.25,0,4.88,0c.4,0,.48.09.37.49a2.64,2.64,0,0,1-2.47,2.11,66.2,66.2,0,0,1-9,0A5.88,5.88,0,0,1,221.77,133.67Zm5-4.64c.77,0,1.54,0,2.31,0,.47,0,.49-.15.38-.53a2.52,2.52,0,0,0-2.72-1.79,2.61,2.61,0,0,0-2.69,1.86c-.12.37,0,.46.35.46C225.16,129,225.95,129,226.74,129Z"/><path class="n" d="M93.24,133.1c.12,0,.29.07.2.2-.23.3-.15.64-.19,1-.19-.19-.22,0-.28.12A3,3,0,0,1,90.22,136c-1.68,0-3.37,0-5.06,0a2.51,2.51,0,0,1-2.1-.93c-.19-.26-.33-.18-.54,0a5.86,5.86,0,0,1-6.11.58,4.45,4.45,0,0,1-2.61-3.39,6.34,6.34,0,0,1,6.23-8,15.18,15.18,0,0,1,4.94.59.59.59,0,0,1,.51.68c0,.81,0,1.62,0,2.53a9.87,9.87,0,0,0-3.16-.95,7.65,7.65,0,0,0-3.08,0,2.88,2.88,0,0,0-2.13,2.2,5.13,5.13,0,0,0-.05,2.12,2.24,2.24,0,0,0,1.89,2,2.76,2.76,0,0,0,3-1.25,5.06,5.06,0,0,0,.53-2.83c0-.5.1-.68.63-.64a15.6,15.6,0,0,0,2,0c.46,0,.64.09.62.6,0,1.16,0,2.32,0,3.47,0,.4.07.57.52.56,2.15,0,4.31,0,6.46,0C92.92,133.36,93.16,133.41,93.24,133.1Z"/><path class="o" d="M172.27,125.07c0,1.79,0,3.58,0,5.36.09,4-2.46,6-6.25,5.77a4.94,4.94,0,0,1-5.2-5.12c0-.3.12-.39.4-.38.83,0,1.67,0,2.5,0,.37,0,.36.19.39.45.16,1.36.79,2.08,1.94,2.23,1.79.23,2.81-.55,2.84-2.36.06-3.13,0-6.26,0-9.39,0-.3-.12-.39-.4-.38-.49,0-1,0-1.46,0-.32,0-.48-.06-.47-.43,0-.69,0-1.38,0-2.07,0-.37.15-.43.47-.43,1.56,0,3.13,0,4.69,0,.41,0,.51.13.51.52C172.26,120.92,172.27,123,172.27,125.07Z"/><path class="p" d="M180.31,152.47c0-1.43,0-1.42-1.35-1.49-.39,0-.62,0-.67.47,0,.17-.11.32-.31.31a.36.36,0,0,1-.33-.31,3.11,3.11,0,0,1,0-1.63c.09-.33.35-.32.46-.05.2.47.58.46,1,.46a8,8,0,0,0,1.22-.07c.59-.09.81.18.84.72.06,1,.13,2.07.18,3.1,0,.28,0,.51.37.65s.18.45-.05.6a1.72,1.72,0,0,1-1,.14c-.43,0-.43-.3-.47-.63s-.29-.09-.41-.05a6,6,0,0,1-3,.4,3.85,3.85,0,0,1-2.71-1.77,6.33,6.33,0,0,1-1-4.24,3.31,3.31,0,0,1,1.18-2.14,5.93,5.93,0,0,1,4.07-1.66,4.18,4.18,0,0,1,1.43.28c.3.12.57.28.89,0s.33,0,.41.2a4.61,4.61,0,0,1,.27,2c0,.24-.13.44-.41.45s-.36-.18-.44-.42.11-.77-.29-1a3.56,3.56,0,0,0-1.83-.59,5,5,0,0,0-4.09,2.16.75.75,0,0,0-.15.26,5.06,5.06,0,0,0,1.46,5.06,2.87,2.87,0,0,0,1.82.57,8.09,8.09,0,0,0,2.27-.38c.53-.13.83-.39.64-1A1.26,1.26,0,0,1,180.31,152.47Z"/><path class="p" d="M96.47,155.06c-1,.26-2-.18-2.92.16-.24.08-.37-.09-.4-.33s-.12-.5.2-.62a1.65,1.65,0,0,1,.41-.09c.82-.07.81-.06.81-.91,0-2.11,0-4.22,0-6.33,0-.66-.26-.81-.87-.5-.26.13-.49.23-.73,0s-.08-.33,0-.51a.62.62,0,0,1,.62-.47,13.35,13.35,0,0,1,4.06.19,2.35,2.35,0,0,1,1.72,3.41.81.81,0,0,0,.19,1.16,2.75,2.75,0,0,1,.84,2.78,2.87,2.87,0,0,1-2.8,2Zm.42-4.78v0c-.32,0-.65,0-1,0s-.41.09-.43.39a20.11,20.11,0,0,0,0,3.21c0,.23.09.38.37.36a9.63,9.63,0,0,0,2.92-.47,1,1,0,0,0,.57-.41,2.12,2.12,0,0,0-1.49-3.12A7,7,0,0,0,96.89,150.28Zm-1.45-2.52h0c0,.43,0,.85,0,1.28,0,.21,0,.39.35.37.65,0,1.3,0,1.95-.06a1,1,0,0,0,.94-.66,1.63,1.63,0,0,0-1.22-2.14,10.84,10.84,0,0,0-1.09-.14c-1-.07-1-.06-.94.87C95.45,147.43,95.44,147.6,95.44,147.76Z"/><path class="p" d="M158.9,152.81a6.86,6.86,0,0,0,.06-2.37c-.17-1.1-.53-1.4-1.62-1.31a3.2,3.2,0,0,0-1.45.41,1.42,1.42,0,0,0-.83,1.53,8.27,8.27,0,0,1-.06,2.31c-.06.42-.19.82.23,1.17.18.15.09.39-.15.47a1.68,1.68,0,0,1-1.3,0,.5.5,0,0,1-.31-.49c0-.23.21-.22.36-.23s.28-.23.3-.45c.14-2.48.06-5,0-7.43A.57.57,0,0,0,154,146c-.34-.34-.26-.64.19-.8a1.22,1.22,0,0,1,.78,0c.34.11.86.15.25.65-.22.18-.12.5-.16.75a8.16,8.16,0,0,0,0,2c0,.43.15.45.52.24a3.83,3.83,0,0,1,3.32-.32,1.42,1.42,0,0,1,.8,1,6.6,6.6,0,0,1,.3,2.46c0,.47,0,.94,0,1.4s-.09,1,.57,1.13a.3.3,0,0,1,.21.39.37.37,0,0,1-.38.25,4,4,0,0,1-1.21-.13c-.25-.06-.23-.25-.23-.43C158.9,153.95,158.9,153.38,158.9,152.81Z"/><path class="p" d="M197.83,151.74a3.3,3.3,0,0,1,4.9-3c.46.24.54.07.6-.33a7.19,7.19,0,0,0,0-2.06c-.05-.32,0-.62.38-.61a1,1,0,0,1,.93.57.17.17,0,0,1-.06.16c-.59.26-.38.79-.38,1.22,0,1.93-.26,3.85-.17,5.78,0,.44,0,.87.48,1.16a.37.37,0,0,1-.2.67c-.45.06-.93.07-1-.57,0-.26-.14-.3-.36-.16-1.7,1.11-3.34.4-4.63-.9C198,153.29,197.83,152.76,197.83,151.74Zm5.36-.23a4.45,4.45,0,0,1,0-.74,1.27,1.27,0,0,0-.82-1.4,2.41,2.41,0,0,0-2.87.36,3.4,3.4,0,0,0-.81,3,2.55,2.55,0,0,0,4.08.69C203.34,152.84,203.09,152.15,203.19,151.51Z"/><path class="p" d="M120.59,151.88a3.3,3.3,0,0,1,4.82-3.06c.52.27.6.12.66-.37a6.71,6.71,0,0,0,0-2c0-.26,0-.52.28-.58a1,1,0,0,1,1,.43c.18.23-.07.36-.24.45s-.16.22-.16.37c0,2.11-.24,4.22-.15,6.33,0,.45,0,.91.48,1.22a.37.37,0,0,1-.2.67c-.42,0-.89.1-1-.51-.05-.36-.21-.3-.45-.16-2,1.19-3.64,0-4.63-1.09A2.65,2.65,0,0,1,120.59,151.88Zm5.33-.22c0-.38,0-.72,0-1.07a.91.91,0,0,0-.36-.79,2.45,2.45,0,0,0-3-.19,3.16,3.16,0,0,0-1.06,3.27,2.52,2.52,0,0,0,4.09.59C126.07,152.9,125.81,152.25,125.92,151.66Z"/><path class="p" d="M164.95,151.77c-.69,0-1.38,0-2.07,0-.4,0-.49.17-.36.47a2.91,2.91,0,0,0,2.07,1.8,2,2,0,0,0,2.13-.83l.16-.19c.15-.18.33-.33.57-.2a.46.46,0,0,1,.14.65,2.56,2.56,0,0,1-.84,1,2.78,2.78,0,0,1-3.09.17,3.74,3.74,0,0,1-2.1-3.5,3.52,3.52,0,0,1,2.76-3,2.9,2.9,0,0,1,3.63,2.71c.08.7,0,.82-.74.85s-1.5,0-2.25,0Zm-.23-.77v-.07c.71,0,1.42,0,2.13,0,.15,0,.45,0,.31-.28a3,3,0,0,0-1-1.38,2.71,2.71,0,0,0-3.65,1.14c-.17.39,0,.5.34.51C163.5,150.93,164.1,151,164.71,151Z"/><path class="p" d="M108.37,151.88c-.69,0-1.38,0-2.07,0-.42,0-.44.21-.33.49.74,1.79,3.1,2.58,4.21.89.16-.24.4-.57.73-.3s.13.59-.06.87a2.85,2.85,0,0,1-4.35.54,3.2,3.2,0,0,1-1.43-3.38,3.27,3.27,0,0,1,2.68-2.68,2.87,2.87,0,0,1,3.59,2.92c0,.39-.13.6-.55.61-.81,0-1.62.07-2.43.11Zm.12-.76,1.78-.08c.24,0,.38-.07.28-.37a2.19,2.19,0,0,0-2-1.59,2.68,2.68,0,0,0-2.55,1.43c-.16.37-.08.51.33.51C107,151,107.62,151.08,108.49,151.12Z"/><path class="p" d="M138.69,149c.44-.2.82-.39,1.21-.53a2.5,2.5,0,0,1,3.47,1.93,10,10,0,0,1,.15,3.27c0,.32-.06.62.28.86s0,.44-.17.54a1.42,1.42,0,0,1-1.23-.11c-.25-.11-.11-.31,0-.47a6.63,6.63,0,0,0,0-4.05A1.43,1.43,0,0,0,141,149.2a2.44,2.44,0,0,0-2.22,1,.88.88,0,0,0-.09.53c0,.91,0,1.83,0,2.74,0,.3,0,.61,0,.91s0,.66-.32.74a1.23,1.23,0,0,1-1-.25.28.28,0,0,1,0-.53.64.64,0,0,0,.37-.68c0-1.34,0-2.68,0-4a.53.53,0,0,0-.4-.53.5.5,0,0,1-.35-.62c.09-.31.38-.25.62-.23a1.51,1.51,0,0,0,.3,0C138.5,148.24,138.77,148.42,138.69,149Z"/><path class="p" d="M114.18,152.55a7.79,7.79,0,0,1,0,2.24c-.05.2-.08.5-.39.45s-.76-.07-1-.43c-.12-.21.06-.35.23-.42s.31-.33.31-.59c0-1.34,0-2.68,0-4a.53.53,0,0,0-.39-.54c-.26-.11-.48-.29-.39-.6s.41-.26.67-.24l.6.05c.12,0,.29,0,.29.15,0,.85.42.35.69.22,2.06-1,3.69-.16,4.1,2.08a12,12,0,0,1,.07,2.85c0,.32-.11.66.28.85a.24.24,0,0,1,.09.2.45.45,0,0,1-.35.38,1.58,1.58,0,0,1-1.18-.16c-.22-.12-.07-.32,0-.49a6.36,6.36,0,0,0-.08-4.17,1.4,1.4,0,0,0-1.69-1c-1.22.25-1.94.71-1.88,1.75C114.2,151.57,114.18,152.06,114.18,152.55Z"/><path class="p" d="M186,148.25a3.49,3.49,0,0,1,3.14,4.14,8.65,8.65,0,0,1-.41,1.27,2.24,2.24,0,0,1-2.41,1.47,3.57,3.57,0,0,1-3.57-2.89,3.64,3.64,0,0,1,1.78-3.71A2.41,2.41,0,0,1,186,148.25Zm.39,6c1.21,0,1.89-.9,1.9-2.51a2.57,2.57,0,0,0-2.59-2.56,2.33,2.33,0,0,0-2.22,2.6A2.85,2.85,0,0,0,186.43,154.21Z"/><path class="p" d="M193.55,148.25a3.5,3.5,0,0,1,3.18,3.9,8.43,8.43,0,0,1-.45,1.51,2.3,2.3,0,0,1-2.47,1.47,3.52,3.52,0,0,1-1.72-6.61A2.35,2.35,0,0,1,193.55,148.25Zm.38,6c1.21,0,1.91-.91,1.91-2.5a2.56,2.56,0,0,0-2.58-2.57,2.31,2.31,0,0,0-2.22,2.59A2.83,2.83,0,0,0,193.93,154.21Z"/><path class="n" d="M167.84,114.36a2.24,2.24,0,1,1,2.2,2.27A2.19,2.19,0,0,1,167.84,114.36Z"/><path class="n" d="M71.35,114.36a2.26,2.26,0,1,1-2.23-2.24A2.19,2.19,0,0,1,71.35,114.36Z"/><path class="n" d="M197.15,118.2a2.22,2.22,0,1,1-2.27,2.2A2.18,2.18,0,0,1,197.15,118.2Z"/><path class="p" d="M149.92,151.53c0-.61,0-1.22,0-1.83,0-.4-.13-.61-.56-.6-.22,0-.48,0-.5-.3a.39.39,0,0,1,.48-.42c.48.06.47-.21.47-.54a8.79,8.79,0,0,1,.12-2c0-.21.07-.48.39-.45s.25.29.26.48c0,.65,0,1.3.06,1.95,0,.35.1.59.52.56a1.65,1.65,0,0,1,.42.07.4.4,0,0,1,.34.43c0,.26-.16.34-.39.38-.94.18-.92.18-.88,1.15,0,.79,0,1.58,0,2.37,0,1,.12,1.14,1.1,1.45.17.05.3.13.32.32a.4.4,0,0,1-.29.41,1.3,1.3,0,0,1-1.75-.9A10.85,10.85,0,0,1,149.92,151.53Z"/><path class="p" d="M102.21,150.4q0-1.95,0-3.9c0-.08,0-.16,0-.24,0-.25,0-.5.39-.49s.31.26.32.47c0,1,.09,1.95.11,2.92,0,1.54,0,3.09.11,4.63,0,.34.07.6.46.67.19,0,.35.14.31.37s-.22.32-.44.34c-.78.1-1.19-.23-1.19-1,0-1.26,0-2.52,0-3.78Z"/><path class="p" d="M134.33,148.44h.43c.26,0,.58,0,.67.3s-.22.38-.44.46-.25.29-.24.5c0,1.42.09,2.84.13,4.25,0,.29.09.46.41.47a.31.31,0,0,1,.31.32c0,.21-.16.27-.32.31a2.82,2.82,0,0,1-1.67-.07c-.16-.06-.31-.13-.29-.34a.32.32,0,0,1,.32-.31c.39,0,.44-.23.43-.56,0-1.36,0-2.71-.06-4.07,0-.26,0-.55-.34-.6a.34.34,0,0,1-.3-.44c0-.24.24-.24.43-.24h.55Z"/><path class="p" d="M211.21,146.46c-.76,1-.76,1-1.46.18,0-.06-.11-.1-.23-.21a6.69,6.69,0,0,0,0,1.74c0,.1.18.21,0,.28a.52.52,0,0,1-.35,0c-.2-.08,0-.18,0-.27a7,7,0,0,0,0-2.1c0-.11-.17-.22,0-.28s.32-.09.36.1.26.4.41.58c.51.59.48.57,1-.08.17-.23.17-.77.59-.63s-.07.46,0,.73c.12.57-.07,1.17.15,1.73,0,.11,0,.2-.08.23a.7.7,0,0,1-.3,0c-.13,0-.12-.12-.08-.23A5,5,0,0,0,211.21,146.46Z"/><path class="p" d="M208.7,146.25c-.22.07-.21-.18-.36-.2-.32,0-.69-.14-.6.41s-.19,1.24.16,1.81c.05.09,0,.16-.06.18a.57.57,0,0,1-.47,0c-.07,0,0-.12,0-.2a4.13,4.13,0,0,0,.1-2c0-.28-.5-.26-.86.05-.18-.5-.18-.51.27-.51s1,0,1.45,0S208.75,146,208.7,146.25Z"/><path class="p" d="M207.07,153.67c.42,0,.73.24.7.72s-.4.66-.84.66-.57-.32-.58-.68S206.6,153.69,207.07,153.67Z"/><path class="p" d="M134.89,146.27c0,.57-.17.86-.6.87s-.49-.25-.51-.56a.55.55,0,0,1,.57-.63C134.66,145.94,134.9,146.08,134.89,146.27Z"/><path class="n" d="M102.77,136a4.67,4.67,0,0,1,1.68-.08c.71,0,1.41,0,1.88-.62.14.52,0,.78-.59.74C104.76,136,103.77,136,102.77,136Z"/><path class="n" d="M93.63,136c0-.14.1-.22.25-.19a15.72,15.72,0,0,0,2.72.1.91.91,0,0,0,.57-.16c.27-.17.36,0,.36.25Z"/><path class="n" d="M96.51,129.45a2.11,2.11,0,0,1,.61-2.06.43.43,0,0,1,.44-.1A3.5,3.5,0,0,0,96.51,129.45Z"/><path class="n" d="M93.24,134.44a4.49,4.49,0,0,1,.15,1.56C93,135.51,93.26,135,93.24,134.44Z"/><path class="n" d="M95,124.68c-.53-.19-1.16.1-1.65-.31A2.68,2.68,0,0,1,95,124.68Z"/><path class="n" d="M93.23,127.14a1.4,1.4,0,0,1,0,1.35A5,5,0,0,1,93.23,127.14Z"/><path class="n" d="M97.55,127.29c.16-.63.63-.5,1.07-.42Z"/><path class="n" d="M98.85,124.28a1.27,1.27,0,0,1-1.2.31A2.36,2.36,0,0,1,98.85,124.28Z"/><path class="n" d="M102,124.56c-.36-.05-.79.22-1-.26A2,2,0,0,1,102,124.56Z"/><path class="n" d="M99.84,126.89a.64.64,0,0,1,.85.37Z"/><path class="n" d="M93.24,132.13a.52.52,0,0,1,0,.75A1.45,1.45,0,0,1,93.24,132.13Z"/><path class="n" d="M101.24,128a.43.43,0,0,1,.2.6Z"/><path class="n" d="M105,128.69c0-.31,0-.59.32-.71Z"/><path class="n" d="M101.59,135.67c.21,0,.21.18.21.33C101.47,136.05,101.57,135.83,101.59,135.67Z"/><path class="n" d="M91.92,124.37c0,.16,0,.31-.22.33C91.66,124.51,91.61,124.32,91.92,124.37Z"/><path class="n" d="M101.48,128.84c.23.08.24.2.07.36A.43.43,0,0,1,101.48,128.84Z"/><path class="n" d="M96.44,130.19c-.17-.13-.18-.25,0-.37Z"/><path class="n" d="M96.43,132.88v-.75A1.86,1.86,0,0,1,96.43,132.88Z"/><path class="n" d="M104.83,129.81c-.12-.09-.1-.17,0-.24A.21.21,0,0,1,104.83,129.81Z"/><path class="n" d="M96.51,133.36c-.14-.05-.26-.11-.08-.26Z"/><path class="n" d="M95.95,125.43c-.18,0-.25-.11-.23-.28A.37.37,0,0,1,95.95,125.43Z"/><path class="n" d="M96.54,125.26c0,.22-.1.29-.31.27A.58.58,0,0,1,96.54,125.26Z"/><path class="n" d="M97.27,124.76c0,.19-.19.17-.32.19Z"/><path class="n" d="M98,133.71c-.1-.08-.08-.2-.09-.3C98.07,133.47,98,133.6,98,133.71Z"/><path class="n" d="M104.91,133.37c-.13,0-.24-.1-.1-.25Z"/><path class="n" d="M92.78,127a.21.21,0,0,1,.36,0Z"/><path class="n" d="M98,135.55l-.14-.06.14-.06Z"/><path class="n" d="M106.06,133.39c-.08.1-.16.1-.23,0Z"/><path class="n" d="M97.78,136l.19-.09C98,136.06,97.86,136,97.78,136Z"/><path class="n" d="M102.56,124.81c-.12,0-.22,0-.28-.13A.31.31,0,0,1,102.56,124.81Z"/><polygon class="n" points="95.5 124.94 95.51 124.94 95.5 124.92 95.5 124.94"/><path class="n" d="M96.92,125l-.13.1Z"/><polygon class="n" points="96.64 125.18 96.65 125.17 96.64 125.16 96.64 125.18"/><path class="n" d="M101.05,127.63l.11.19Z"/><path class="n" d="M100.69,127.26l.13.11Z"/><path class="n" d="M98.87,126.86c0-.05.07-.06.11,0l-.06,0Z"/><path class="n" d="M104.94,129a.49.49,0,0,1,0-.09l0,0Z"/><path class="n" d="M96.07,125.55l-.12-.13Z"/><path class="n" d="M95.28,124.8l-.19-.1Z"/><path class="n" d="M96.43,131.29v-.14a.62.62,0,0,1,0,.1S96.44,131.28,96.43,131.29Z"/><path class="k" d="M226.74,129c-.79,0-1.58,0-2.37,0-.36,0-.47-.08-.35-.46a2.61,2.61,0,0,1,2.69-1.86,2.52,2.52,0,0,1,2.72,1.79c.12.38.09.55-.38.53C228.28,129,227.51,129,226.74,129Z"/><path class="k" d="M96.89,150.28a7,7,0,0,1,1,0,2.12,2.12,0,0,1,1.49,3.12,1,1,0,0,1-.57.41,9.63,9.63,0,0,1-2.92.47c-.28,0-.35-.13-.37-.36a20.11,20.11,0,0,1,0-3.21c0-.3.19-.38.43-.39s.65,0,1,0Z"/><path class="k" d="M95.44,147.76c0-.16,0-.32,0-.49,0-.93,0-.94.94-.87a10.84,10.84,0,0,1,1.09.14,1.63,1.63,0,0,1,1.22,2.14,1,1,0,0,1-.94.66c-.65,0-1.3,0-1.95.06-.3,0-.34-.16-.35-.37,0-.43,0-.85,0-1.28Z"/><path class="k" d="M203.19,151.51c-.1.64.15,1.33-.42,1.93a2.55,2.55,0,0,1-4.08-.69,3.4,3.4,0,0,1,.81-3,2.41,2.41,0,0,1,2.87-.36,1.27,1.27,0,0,1,.82,1.4A4.45,4.45,0,0,0,203.19,151.51Z"/><path class="k" d="M125.92,151.66c-.11.59.14,1.23-.37,1.81a2.52,2.52,0,0,1-4.09-.59,3.16,3.16,0,0,1,1.06-3.27,2.45,2.45,0,0,1,3,.19.91.91,0,0,1,.36.79C125.9,150.94,125.92,151.29,125.92,151.66Z"/><path class="k" d="M164.71,151c-.61,0-1.22-.07-1.82-.08-.39,0-.51-.11-.34-.51a2.71,2.71,0,0,1,3.65-1.14,3,3,0,0,1,1,1.38c.13.31-.16.27-.31.28-.71,0-1.42,0-2.13,0Z"/><path class="k" d="M108.49,151.12c-.87,0-1.51-.08-2.16-.09-.41,0-.49-.14-.33-.51a2.68,2.68,0,0,1,2.55-1.43,2.19,2.19,0,0,1,2,1.59c.1.3,0,.36-.28.37Z"/><path class="k" d="M186.43,154.21a2.85,2.85,0,0,1-2.91-2.47,2.33,2.33,0,0,1,2.22-2.6,2.57,2.57,0,0,1,2.59,2.56C188.32,153.31,187.64,154.21,186.43,154.21Z"/><path class="k" d="M193.93,154.21a2.83,2.83,0,0,1-2.89-2.48,2.31,2.31,0,0,1,2.22-2.59,2.56,2.56,0,0,1,2.58,2.57C195.84,153.3,195.14,154.21,193.93,154.21Z"/><path class="n" d="M240.56,132.87a1.74,1.74,0,0,1,.83.22,1.56,1.56,0,0,1,.63.63,1.7,1.7,0,0,1,0,1.69,1.57,1.57,0,0,1-.63.63,1.7,1.7,0,0,1-1.68,0,1.57,1.57,0,0,1-.63-.63,1.69,1.69,0,0,1,0-1.69,1.56,1.56,0,0,1,.63-.63,1.74,1.74,0,0,1,.83-.22Zm0,.28a1.44,1.44,0,0,0-.69.18,1.31,1.31,0,0,0-.53.52,1.41,1.41,0,0,0,0,1.41,1.33,1.33,0,0,0,.52.52,1.41,1.41,0,0,0,1.4,0,1.32,1.32,0,0,0,.52-.52,1.42,1.42,0,0,0,0-1.41,1.31,1.31,0,0,0-.53-.52,1.45,1.45,0,0,0-.69-.18Zm-.74,2.35v-1.82h.63a1.54,1.54,0,0,1,.46,0,.45.45,0,0,1,.23.18.47.47,0,0,1,.09.27.48.48,0,0,1-.14.35.56.56,0,0,1-.38.17.49.49,0,0,1,.15.1,2.08,2.08,0,0,1,.27.36l.22.36H241l-.16-.29a1.47,1.47,0,0,0-.31-.42.38.38,0,0,0-.24-.06h-.17v.77Zm.29-1h.36a.58.58,0,0,0,.35-.08.26.26,0,0,0,0-.35.27.27,0,0,0-.12-.09.91.91,0,0,0-.3,0h-.33v.55Z"/></svg>