<svg xmlns="http://www.w3.org/2000/svg" xmlns:xlink="http://www.w3.org/1999/xlink" viewBox="0 0 250 250"><defs><linearGradient id="a" x1="35.24" y1="2033.43" x2="189.02" y2="2033.43" gradientTransform="matrix(1, 0, 0, -1, 0, 2142)" gradientUnits="userSpaceOnUse"><stop offset="0" stop-color="#db2d28"/><stop offset="1" stop-color="#be292f"/></linearGradient><linearGradient id="b" x1="35.05" y1="2033.54" x2="73.51" y2="2033.54" xlink:href="#a"/><linearGradient id="c" x1="63.63" y1="2105.58" x2="183.92" y2="1985.29" gradientTransform="matrix(1, 0, 0, -1, 0, 2142)" gradientUnits="userSpaceOnUse"><stop offset="0.04" stop-color="#f69076"/><stop offset="0.08" stop-color="#ec2227"/><stop offset="0.26" stop-color="#f79b7d"/><stop offset="0.66" stop-color="#eb2227"/><stop offset="0.67" stop-color="#c61d21"/><stop offset="0.69" stop-color="#9d171a"/><stop offset="0.71" stop-color="#771114"/><stop offset="0.72" stop-color="#570d0e"/><stop offset="0.74" stop-color="#3b090a"/><stop offset="0.77" stop-color="#250506"/><stop offset="0.79" stop-color="#140303"/><stop offset="0.83" stop-color="#090101"/><stop offset="0.87" stop-color="#020000"/><stop offset="1"/></linearGradient></defs><title>Grocery</title><path d="M163.41,85.7c15.84,1.54,16.71,6.4,18.23,13S189,152.33,189,152.33l-116.52-.22s5.21-1.54-6.08-2.21S50.14,139.09,48,134.46,35.24,64.81,35.24,64.81,45.8,78.42,61.43,80,147.57,84.16,163.41,85.7Z" style="fill:url(#a)"/><path d="M73.35,151.75h-1s5.21-1.53-6.08-2.19S50,138.84,47.79,134.25,35.05,65.17,35.05,65.17s.66.84,1.9,2.13a64,64,0,0,1,4.25,13c1.08,6.14,6.14,39.38,7.95,46.61S53.48,142.48,60.7,145,71.9,146.21,73.35,151.75Z" style="fill:url(#b)"/><path d="M185.35,151.6H189s-5.86-46.61-7.38-53.17-2.39-11.38-18.23-12.91S77,81.37,61.43,79.84s-26.19-15-26.19-15-.19,2.17,2.34,5.06c0,0,4.95,10.89,21.68,11.92,23.48,1.44,86.26,5.41,95.38,6.14s20.23-1.08,23.12,8.31S185.35,151.6,185.35,151.6Z" style="fill:url(#c)"/><path d="M83.37,117.75c4.47.39,6.18-4.18,8.86-6.24a19.06,19.06,0,0,1,3.3-1.91c3.21-1.49,6.45-3,11.82-2.6-.27,1.23-.7,2.31-.87,3.64-5.12-.06-10,1.66-12.68,4.86a13.13,13.13,0,0,0-2.61,4.86c-.81,4.36,2.31,5.58,5.21,3.47s4.64-8.07,6.6-10.75a32.56,32.56,0,0,1,4.34-.52c-1.6,4.13-4.49,7-4.69,12.49,2.9,2.89,6.67-1.21,9.21-2.43,1.9-5.1,3.85-10.62,8-13.7a6.06,6.06,0,0,1,4.17-1c1.77,3.22-1.35,6.58-3.65,9.54a30.43,30.43,0,0,1-2.61,3.29c-1.16,1.12-2.86,1.66-3.13,2.78-.42,1.76.81,4,2.09,4.34,3.4.8,5.84-3.29,8.34-3.82a120.82,120.82,0,0,1,9.73-15.09,15.83,15.83,0,0,1,4,2.6c-5.84,8.67-12.31,16.74-15.64,27.92,1-.12,1.7-1.22,2.26-1.91,4.52-5.52,9.68-11,16-14.91A52.37,52.37,0,0,1,149.23,107c3.18-4.34,7.31-9.05,12-11.27s10.31-1.75,9.56,5.72a36.78,36.78,0,0,1-4.17,12.83,40,40,0,0,1-4.52,6.76c-1.68,1.84-4.92,3-5.39-.69-.43-3.35,1.65-6.34,2.78-8.15,2.9,7.93,10-8.43,5-11.79-4.79-.26-6.64,3-9,6.07a54.09,54.09,0,0,0-5.56,9.36,37.82,37.82,0,0,0-3.82,14c-.14,4.49,2.08,10.19,7.3,9.54s10.09-6.07,13-9.54c.75-.88,1.48-2.17,2.61-2.26-1.31,3.73-5.77,8.78-9.38,11.79-2.61,2.17-5.34,4.52-9.9,4.51a10.43,10.43,0,0,1-6.26-2.43c-3.35-2.92-3.8-8.45-3.82-14.57-2.48.83-4.41,2.78-6.43,4.51-4.65,4-8.4,9.28-12,14.57-1.26.11-1.84-.48-2.78-.69.49-6.62,2.85-11.37,4.69-16.65-2.57,0-5.75,3.28-8.69,1.73-1.79-.94-2.06-3.23-2.43-5.9-2.05.91-7.15,6.31-11.47,4.51-1.14-.47-1.16-1.95-2.43-2.6-2.31,1.38-5,3.89-8.17,2.95-3-.89-3.52-4.69-3-8.5-4.91-1.26-6,1.92-8,5.55-2.44,4.49-5.64,11.31-8.51,14.74-1.35,1.61-4.7,4.42-7.47,2.6-.92-1.43-.84-4.43-.17-6.42,1.17-3.49,4-7.21,6.6-10.23A68.31,68.31,0,0,1,78.16,119c2.65-4.53,6.22-14.93,6.78-21.33a5.63,5.63,0,0,0-1.74-4.16,4,4,0,0,0-3.65,1.21A32.46,32.46,0,0,0,72.77,106c-1.16,3.64-1.81,7.49,1.91,8.15-.6,2.35-2.83,3.07-5,3.81-2.42-.36-3.68-1.88-4.69-3.64a17.57,17.57,0,0,1,1-9.54c2.06-5.37,7.34-11.23,11.82-15.09,2.46-2.12,4.63-4.2,7.82-4.68,11.12-1.67,5.46,13.07,3.48,18.38-.81,2.16-1.62,4.27-2.43,6.24C85.43,112.62,84.18,114.58,83.37,117.75Z" style="fill:#83302e;stroke:#823434"/><path d="M86.67,109.6c.81-2,1.62-4.08,2.43-6.24,2-5.31,7.64-20.05-3.48-18.38-3.19.48-5.36,2.56-7.82,4.68-4.47,3.86-9.75,9.72-11.82,15.09a17.57,17.57,0,0,0-1,9.54c1,1.76,2.27,3.28,4.69,3.64,2.21-.74,4.44-1.47,5-3.81-3.72-.66-3.08-4.51-1.91-8.15a32.47,32.47,0,0,1,6.78-11.27,4,4,0,0,1,3.65-1.21,5.63,5.63,0,0,1,1.74,4.16c-.55,6.4-4.13,16.8-6.78,21.33a68.33,68.33,0,0,0-8.69,8.15c-2.57,3-5.44,6.74-6.6,10.23-.66,2-.75,5,.17,6.42,2.78,1.82,6.12-1,7.47-2.6,2.87-3.43,6.08-10.25,8.51-14.74,2-3.63,3.08-6.81,8-5.55-.56,3.81,0,7.61,3,8.5,3.18.94,5.86-1.57,8.17-2.95,1.28.65,1.3,2.13,2.43,2.6,4.31,1.8,9.41-3.6,11.47-4.51.37,2.66.65,5,2.43,5.9,2.94,1.55,6.12-1.69,8.69-1.73-1.84,5.28-4.2,10-4.69,16.65.94.22,1.52.8,2.78.69,3.59-5.29,7.34-10.59,12-14.57,2-1.72,4-3.68,6.43-4.51,0,6.11.48,11.65,3.82,14.57a10.43,10.43,0,0,0,6.26,2.43c4.57,0,7.3-2.34,9.9-4.51,3.62-3,8.07-8.07,9.38-11.79-1.13.09-1.86,1.37-2.61,2.26-2.94,3.47-7.83,8.88-13,9.54s-7.44-5-7.3-9.54a37.82,37.82,0,0,1,3.82-14,54.09,54.09,0,0,1,5.56-9.36c2.39-3.08,4.25-6.33,9-6.07,4.94,3.37-2.14,19.72-5,11.79-1.13,1.81-3.21,4.8-2.78,8.15.47,3.67,3.7,2.53,5.39.69a40.06,40.06,0,0,0,4.52-6.76,36.77,36.77,0,0,0,4.17-12.83c.75-7.48-4.74-8-9.56-5.72s-8.81,6.93-12,11.27a52.36,52.36,0,0,0-7.82,15.61c-6.3,3.92-11.47,9.4-16,14.91-.56.69-1.26,1.79-2.26,1.91,3.33-11.18,9.79-19.25,15.64-27.92a15.83,15.83,0,0,0-4-2.6A120.82,120.82,0,0,0,125.07,124c-2.5.53-4.94,4.62-8.34,3.82-1.28-.3-2.51-2.57-2.09-4.34.27-1.12,2-1.66,3.13-2.78a30.43,30.43,0,0,0,2.61-3.29c2.3-3,5.42-6.32,3.65-9.54a6.06,6.06,0,0,0-4.17,1c-4.14,3.08-6.09,8.6-8,13.7-2.54,1.22-6.31,5.32-9.21,2.43.2-5.52,3.1-8.36,4.69-12.49a32.47,32.47,0,0,0-4.34.52c-2,2.68-3.67,8.62-6.6,10.75s-6,.9-5.21-3.47a13.13,13.13,0,0,1,2.61-4.86c2.65-3.19,7.57-4.92,12.68-4.86.17-1.33.6-2.41.87-3.64-5.36-.44-8.61,1.11-11.82,2.6a19.07,19.07,0,0,0-3.3,1.91c-2.68,2.06-4.4,6.63-8.86,6.24C84.18,114.58,85.43,112.62,86.67,109.6Z" style="fill:#83302e;stroke:#823434"/><path d="M188.12,150.68s8.54.36,13.59,1.75c6.81,1.87,10.55,3.75,11,6.56s2.35,26.74,2.35,26.74-5.14-5.59-10.19-7.75c-2.71-1.16-8.63-2.44-14.79-3-20.26-2-77-1.29-106.2-1.21-8.35-.44-10.34-6.11-11.13-8.64s-2.2-14.76-2.2-14.76,17.14.23,38.23.23C131,150.55,130.11,150.91,188.12,150.68Z" style="fill:#010101;stroke:#010101"/><path d="M188.56,152.75c9.23.53,9.43.43,14.37,1.65,6.66,1.64,7.67,3.47,8.1,5.92s2.21,20.55,2.21,20.55-.72-1.36-5.39-3.75c-4.41-2.25-12.91-3.1-18.94-3.57-24.19-1.88-83.86-1.88-103.82-1.16-8.08,0-10.1-5.24-10.88-7.44s-2.59-14.4-2.59-14.4,14.38.68,52.84,1C173.71,152,179.75,152.24,188.56,152.75Z" style="fill:#fff"/><path d="M80.91,169.53V153.47L91,153.6l-1.52,2.93-5.19-.07v2.95l5.19.07-1.52,2.91-3.67,0v5.9Z" style="fill:#231f20"/><path d="M93.44,168.38l-1.75-1.56V155.11l1.68-1.45,7.57.1,1.74,1.55V167l-1.74,1.51Zm1.68-2.93,4.24.06v-8.83l-4.24-.06Z" style="fill:#231f20"/><path d="M106.95,168.56,105.2,167V155.28l1.68-1.45,7.57.1,1.74,1.55v11.66l-1.74,1.51Zm1.68-2.93,4.24.06v-8.83l-4.24-.06Z" style="fill:#231f20"/><path d="M118.78,168.71V154l9.19.12,1.74,1.55v11.59l-1.81,1.59Zm3.36-2.9,4.15.06V157l-4.15-.06Z" style="fill:#231f20"/><path d="M138.75,169V166l6.29.08v-2.95l-5-.07-1.26-1.49v-5.88l1.26-1.46,8.3.11v3l-6.29-.08v2.87l5.09.07,1.21,1.43v6l-1.26,1.46Z" style="fill:#231f20"/><path d="M152.75,169.15V157.38l-3.29,0v-2.95l10.07.13v2.89l-3.36,0V169.2Z" style="fill:#231f20"/><path d="M163.3,169.29l-1.75-1.56V156l1.68-1.45,7.58.1,1.75,1.56v11.66l-1.75,1.51Zm1.68-2.93,4.24.06v-8.83l-4.24-.06Z" style="fill:#231f20"/><path d="M174.57,169.44V154.72l7.51.1,2.33,1.56v5.79c0,1.73-2,2.2-2,2.2l2,5.21-3.08,0-1.93-4.23-1.81-.38v4.56Zm3-7.45,3.22,0a.58.58,0,0,0,.59-.35v-3.5s-.21-.43-.56-.44l-3.26,0Z" style="fill:#231f20"/><path d="M185.94,170l.27-14.72,7.21.22,1,.7-.05,2.95-1.73-.72-3.93-.12-.05,2.95,5.68.17-.05,2.93-5.68-.17-.05,2.95,5.68.17-1.57,2.9Z" style="fill:#231f20"/><path d="M195.47,170.84l.16-2.95,5.52.35.16-2.94L197,165l-1.18-1.55.32-5.87,1.34-1.39,6,.8-.16,2.95-4.75-.73-.16,2.87,4.32.27,1.13,1.49-.33,6-1.34,1.39Z" style="fill:#231f20"/><path d="M81.92,117c4.47.39,6.18-4.18,8.86-6.24a19.05,19.05,0,0,1,3.3-1.91c3.21-1.49,6.45-3,11.82-2.6-.27,1.24-.69,2.31-.87,3.64-5.12-.06-10,1.66-12.68,4.86a13.13,13.13,0,0,0-2.61,4.86C88.93,124,92,125.22,95,123.1s4.64-8.07,6.6-10.75a32.58,32.58,0,0,1,4.34-.52c-1.6,4.13-4.49,7-4.69,12.49,2.9,2.89,6.67-1.21,9.21-2.43,1.9-5.1,3.85-10.62,8-13.7a6.05,6.05,0,0,1,4.17-1c1.77,3.22-1.35,6.58-3.65,9.54a30.65,30.65,0,0,1-2.61,3.29c-1.16,1.12-2.86,1.66-3.13,2.78-.42,1.76.81,4,2.09,4.34,3.4.8,5.84-3.29,8.34-3.82a120.79,120.79,0,0,1,9.73-15.09,15.83,15.83,0,0,1,4,2.6c-5.84,8.68-12.31,16.74-15.64,27.92,1-.12,1.7-1.22,2.26-1.91,4.52-5.52,9.68-11,16-14.91a52.36,52.36,0,0,1,7.82-15.61c3.18-4.34,7.3-9.05,12-11.27s10.31-1.75,9.56,5.72a36.79,36.79,0,0,1-4.17,12.83,40.11,40.11,0,0,1-4.52,6.76c-1.69,1.84-4.92,3-5.39-.69-.43-3.35,1.65-6.34,2.78-8.15,2.9,7.93,10-8.43,5-11.79-4.79-.26-6.64,3-9,6.07a54.09,54.09,0,0,0-5.56,9.37,37.79,37.79,0,0,0-3.82,14c-.14,4.49,2.08,10.19,7.3,9.54s10.09-6.07,13-9.54c.75-.88,1.48-2.17,2.61-2.25-1.31,3.73-5.77,8.78-9.38,11.79-2.61,2.17-5.34,4.52-9.9,4.51a10.44,10.44,0,0,1-6.26-2.43c-3.35-2.92-3.8-8.45-3.82-14.57-2.47.83-4.41,2.78-6.43,4.51-4.65,4-8.4,9.28-12,14.57-1.26.11-1.84-.48-2.78-.69.49-6.62,2.85-11.37,4.69-16.65-2.57,0-5.75,3.28-8.69,1.73-1.79-.94-2.06-3.24-2.43-5.9-2.05.91-7.15,6.31-11.47,4.51-1.14-.47-1.16-1.95-2.43-2.6-2.31,1.37-5,3.89-8.17,2.95-3-.89-3.52-4.69-3-8.5-4.91-1.26-6,1.92-8,5.55-2.44,4.49-5.64,11.31-8.51,14.74-1.35,1.61-4.69,4.43-7.47,2.6-.92-1.43-.84-4.43-.17-6.42,1.17-3.49,4-7.21,6.6-10.23a68.29,68.29,0,0,1,8.69-8.15c2.65-4.53,6.22-14.93,6.78-21.33a5.63,5.63,0,0,0-1.74-4.16A4,4,0,0,0,78.1,94a32.47,32.47,0,0,0-6.78,11.27c-1.16,3.64-1.81,7.49,1.91,8.15-.6,2.35-2.83,3.07-5,3.81-2.42-.36-3.68-1.88-4.69-3.64a17.57,17.57,0,0,1,1-9.54c2.06-5.37,7.34-11.23,11.82-15.09,2.46-2.12,4.63-4.2,7.82-4.68,11.12-1.67,5.46,13.07,3.48,18.38-.81,2.16-1.62,4.27-2.43,6.24C84,111.9,82.74,113.85,81.92,117Z" style="fill:#fff"/><path d="M85.23,108.88c.81-2,1.62-4.08,2.43-6.24,2-5.31,7.64-20.05-3.48-18.38-3.19.48-5.36,2.56-7.82,4.68-4.47,3.86-9.75,9.72-11.82,15.09a17.57,17.57,0,0,0-1,9.54c1,1.76,2.27,3.28,4.69,3.64,2.21-.74,4.44-1.47,5-3.81-3.72-.66-3.07-4.51-1.91-8.15A32.47,32.47,0,0,1,78.1,94a4,4,0,0,1,3.65-1.21,5.63,5.63,0,0,1,1.74,4.16c-.55,6.4-4.13,16.8-6.78,21.33A68.32,68.32,0,0,0,68,126.4c-2.57,3-5.44,6.74-6.6,10.23-.66,2-.75,5,.17,6.42,2.78,1.82,6.12-1,7.47-2.6,2.87-3.43,6.08-10.25,8.51-14.74,2-3.63,3.08-6.81,8-5.55-.56,3.81,0,7.61,3,8.5,3.18.94,5.86-1.57,8.17-2.95,1.28.65,1.3,2.13,2.43,2.6,4.32,1.8,9.41-3.6,11.47-4.51.37,2.66.64,5,2.43,5.9,2.94,1.55,6.12-1.69,8.69-1.73-1.84,5.28-4.2,10-4.69,16.65.94.22,1.52.8,2.78.69,3.59-5.29,7.34-10.59,12-14.57,2-1.73,4-3.68,6.43-4.51,0,6.11.48,11.65,3.82,14.57a10.43,10.43,0,0,0,6.26,2.43c4.57,0,7.3-2.34,9.9-4.51,3.62-3,8.07-8.07,9.38-11.79-1.13.09-1.86,1.37-2.61,2.25-2.94,3.47-7.83,8.88-13,9.54s-7.44-5-7.3-9.54a37.79,37.79,0,0,1,3.82-14,54.1,54.1,0,0,1,5.56-9.37c2.39-3.08,4.25-6.33,9-6.07,4.94,3.37-2.14,19.72-5,11.79-1.13,1.81-3.21,4.8-2.78,8.15.47,3.67,3.7,2.53,5.39.69a40.11,40.11,0,0,0,4.52-6.76,36.79,36.79,0,0,0,4.17-12.83c.75-7.48-4.74-8-9.56-5.72s-8.81,6.93-12,11.27A52.35,52.35,0,0,0,140,121.89c-6.31,3.92-11.47,9.4-16,14.91-.56.69-1.26,1.79-2.26,1.91,3.33-11.18,9.79-19.24,15.64-27.92a15.83,15.83,0,0,0-4-2.6,120.72,120.72,0,0,0-9.73,15.09c-2.5.53-4.94,4.62-8.34,3.82-1.28-.3-2.51-2.57-2.09-4.34.27-1.12,2-1.66,3.13-2.78a30.65,30.65,0,0,0,2.61-3.29c2.3-3,5.42-6.32,3.65-9.54a6.05,6.05,0,0,0-4.17,1c-4.14,3.08-6.09,8.6-8,13.7-2.54,1.22-6.31,5.31-9.21,2.43.2-5.52,3.1-8.35,4.69-12.49a32.47,32.47,0,0,0-4.34.52c-2,2.68-3.67,8.62-6.6,10.75s-6,.89-5.21-3.47a13.12,13.12,0,0,1,2.61-4.86c2.65-3.19,7.57-4.92,12.68-4.86.17-1.33.6-2.41.87-3.64-5.36-.44-8.61,1.11-11.82,2.6a19.06,19.06,0,0,0-3.3,1.91c-2.68,2.06-4.4,6.63-8.86,6.24C82.74,113.85,84,111.9,85.23,108.88Z" style="fill:#fff"/></svg>