<svg xmlns="http://www.w3.org/2000/svg" viewBox="0 0 250 250"><title>Casual dining</title><path d="M84.9,68,81,67.44l-.11.39a9.31,9.31,0,0,0,1.86.65c5,.65,10,1.19,15,1.87,6.25.86,12.48,1.82,18.72,2.75,1.63.24,3.25.53,4.87.76a3.07,3.07,0,0,0,.92-.16l.08-.37a8.29,8.29,0,0,0-1.68-.65c-2.62-.41-5.24-.75-7.86-1.1L100,69.87a5.36,5.36,0,0,1-.74-.2l1.2-7.17,21.66,2.86.25.15c-2,1.21-1.09,3.15-1.33,4.8l-.38.09a8.58,8.58,0,0,1-.74-1.51c-.2-.74-.23-1.52-.38-2.27a6.42,6.42,0,0,0-.46-1.1,2.73,2.73,0,0,0-1.41,2c-.2.59-.2,1.26-.94,1.57-.16.07-.16.5-.24.77l.22.18a6.15,6.15,0,0,1,1-.68A8.42,8.42,0,0,1,119,69l-1.1-.81.71-1.45.28,0c.06.37.11.74.19,1.1.14.66.28,1.33.47,2s.49,1.05,1.34.86a5.08,5.08,0,0,1,1.73.17,1.49,1.49,0,0,0,1.83-1l-1.36.2c-.95.14-1.36-.13-1.41-1.07a4.94,4.94,0,0,1,.22-2c.46-1.19,1.5-1.27,2.26-.26a.8.8,0,0,0,.52.38l-.52-1.29c1.46.15,2.85.26,4.22.45,4.57.64,9.13,1.34,13.71,2,.7.1.88.4.8,1-.16,1.44-.32,2.88-.44,4.32-.06.7,0,1.4,0,2.29l-19-2.66-.06.28a3.42,3.42,0,0,0,2.3,1.06c5,.69,10.06,1.33,15.08,2,4.5.65,9,1.38,13.54,2.09v2.45a1.57,1.57,0,0,0,.84-1.79c-.05-.68-.1-1.38-1-1.52-2.4-.37-4.8-.76-7.2-1.14a3.6,3.6,0,0,1-1.25-.35c1.87.23,3.74.43,5.6.68,6.34.87,12.67,1.77,19,2.64,1.82.25,2,.08,2-1.75,0-1.35,0-2.69,0-4,1.11.31,18.49,15.65,20.51,18.13-1.1,2-2.18,4-3.23,5.93a11.29,11.29,0,0,1-4.31,4.2c-2.3,1.43-4.54,3-6.82,4.42a1.32,1.32,0,0,0-.7,1.43c.63,6.56,1.2,13.12,1.83,19.68.39,4,.87,8.08,1.26,12.12.07.68.4.82,1,.95,1.68.38,3.37.74,5,1.27,3.71,1.2,5.82,4,7.08,7.5,1.95,5.42.82,10.1-3.44,14-.23.21-.66.21-1,.3-.08,0-.18,0-.27,0l-5,1.65a2.9,2.9,0,0,0-.45.3c1.4.75,2.5-.56,3.79-.2-3.14,2.66-6.32,5.08-10.63,5.24-5,.19-9.91.3-14.86.58-8.39.47-16.78,1-25.17,1.59-1.75.11-3.5.31-5.25.39-.73,0-1,.29-.93,1,.22,4.09.42,8.18.62,12.27a1.23,1.23,0,0,1-.16.78c-.1-.4-.23-.8-.3-1.21-.24-1.38-.07-2.86-1-4.06a.49.49,0,0,1-.07-.44c.58-1-.17-1.65-.58-2.39-.28-.51-.55-1-.86-1.53a2.64,2.64,0,0,0-4.15-.49,3,3,0,0,0-1,3.4,1.34,1.34,0,0,1,0,.81c-.06.17-.34.27-.52.4-.1-.16-.28-.31-.3-.48-.37-2.45-.72-4.9-1.08-7.38-1.74,0-3.55-.06-5.35,0-6.09.25-12.19.5-18.28.83-7.69.42-15.37,1-23.06,1.38a42.41,42.41,0,0,1-6.53-.29A7.74,7.74,0,0,1,63,173.17c-2-2.47-4.13-4.91-5.92-7.56-3.45-5.11-2.24-11.84,2.62-16.05a13,13,0,0,1,7.3-3.23c.34,0,.67-.11,1.13-.2,0-1.62,0-3.24,0-4.86q-.3-12.29-.63-24.57c-.14-5.33-.32-10.65-.47-16,0-.41-.16-.89.49-1,.11,0,.26-.38.21-.51a16.4,16.4,0,0,0-1.17-2.85c-.5-.83-.52-1.29.27-1.84a1.14,1.14,0,0,0,.38-.76c.64-6.47,1.24-12.93,1.89-19.4.27-2.66.59-5.32.94-8,0-.23.45-.63.65-.6,4.66.63,9.32,1.31,14,2C84.65,67.75,84.67,67.79,84.9,68Zm104,25.39-.76.91.27.29,1.42-1.08-.17-.26-.78.17,2.4-2.26c-.2-.22-.32-.37-.45-.49-2.48-2.31-4.91-4.67-7.44-6.91-2.81-2.49-5.71-4.88-8.59-7.29-.63-.53-1.14-.33-1.29.49a6.53,6.53,0,0,0,0,1.11c0,.79,0,1.58,0,2.54l-17.92-2.5c-.1,1.9.49,3,1.84,3.17l-.91-2.06,4.1.58c3.22.47,6.44.95,9.67,1.39a25.84,25.84,0,0,0,3,.25c.77,0,1.26-.32,1.19-1.24s0-1.93,0-3c1.74,1.47,3.34,2.77,4.87,4.14a14.32,14.32,0,0,1,1.79,2,2.61,2.61,0,0,0,1.29,1.06c.49.16.84.73,1.25,1.12a9.7,9.7,0,0,0,1.56,1.49,19.73,19.73,0,0,1,4.87,4.4l-9.2,6-.89-1-.28.14v1.45l-1-.48v1.5l-4.45,2.87c0-1.34,0-2.38,0-3.42a1.28,1.28,0,0,0-1.42-1.47c-3.38-.13-6.77-.23-10.16-.36q-11-.44-22-.92a8.23,8.23,0,0,1-1.66-.42l.05-.32c-2.13,1.2-4.37.3-6.55.49L133,94c-1.12.27-1.52.8-1.61,2.16l11,.65.16.94h2l-.09-.87c.14,0,.27-.1.37-.07,1,.31,2,.66,2.94.95.29.09.85.12.9,0,.31-.72.89-.65,1.48-.63,2.74.11,5.47.23,8.21.31,4.74.14,9.48.27,14.22.36.75,0,1,.23.89,1a18,18,0,0,0-.09,2.58c0,.73.38,1.21,1.2.84a30.59,30.59,0,0,0,3.45-1.7c1.18-.73,2-2,3.49-2.27.22,0,.39-.3.59-.43Zm-120.37,8,1.13,43.49c.48,0,.78,0,1.08,0l13.38-.5c6.8-.26,13.6-.51,20.4-.81,8.49-.38,17-.81,25.47-1.22q12.09-.59,24.18-1.18c8-.4,16-.84,24-1.24.73,0,1-.25.91-1-.17-2.24-.25-4.49-.45-6.73q-1.05-11.64-2.17-23.27c-.16-1.64-.4-3.27-.65-5.22-1,.61-1.7,1.11-2.47,1.56a4.13,4.13,0,0,1-.91.28,6.7,6.7,0,0,1-.1-.86c0-1.29.07-2.59.07-3.88,0-.83-.28-1.37-1.27-1.39-1.23,0-2.45-.23-3.68-.29-3.94-.18-7.88-.34-11.81-.49s-7.63-.47-11.44-.4c-5.32.09-10.64.5-16,.72-9.36.38-18.71.71-28.07,1.07q-12.83.49-25.67,1C72.55,101.09,70.62,101.24,68.52,101.36Zm13,59.45c1.71-.52,2.11-.37,2.92,1a14.4,14.4,0,0,0,1.12,1.9,1.86,1.86,0,0,0,1.17.62,18.07,18.07,0,0,0,2.39-.08c1.15-.06,1.32-.37.67-1.36-.85-1.29-1.74-2.55-2.52-3.7a7.6,7.6,0,0,0,1.3-1.73,3.13,3.13,0,0,0-3-4.35c-2.55,0-5.1.16-7.65.26-.57,0-.82.28-.79.87q.26,4.88.5,9.77c0,.58.3.83.88.78.77-.07,1.53-.14,2.3-.14s.92-.31.87-1C81.65,162.75,81.61,161.77,81.57,160.81Zm56.56-6.39c-.05-1.13-.13-2.14-.14-3.15,0-.69-.34-.94-1-.89s-1.54.12-2.3.15c-.61,0-.79.34-.76.9q.26,4.84.51,9.69c0,.5.21.82.78.79.8,0,1.6-.08,2.4-.09s.89-.37.83-1c-.07-.89-.11-1.78-.09-2.68,0-.22.25-.63.4-.64.94-.06,1.89,0,2.94,0,.05,1.09.12,2.15.15,3.22,0,.62.28.9.91.86s1.48-.09,2.21-.09,1-.4.94-1.12c-.19-3.14-.36-6.27-.49-9.41,0-.7-.33-.94-1-.9s-1.47.13-2.21.14-.88.34-.85,1c0,1,0,2,0,3.07Zm-23,2.35a2.7,2.7,0,0,0,.82-3.46,3.16,3.16,0,0,0-3.26-1.66c-1.72.08-3.44.18-5.17.24-.72,0-1,.36-.93,1.05q.27,4.75.5,9.5c0,.6.27.92.9.88,2-.12,4-.16,6-.38a3.18,3.18,0,0,0,2.88-3.78A3,3,0,0,0,115.1,156.77Zm66.81-3.37c.17-.25.28-.43.41-.59.93-1.18,1.88-2.36,2.79-3.56a4,4,0,0,0,.39-1,4.56,4.56,0,0,0-1.07-.28,8.71,8.71,0,0,0-2,.13,2.45,2.45,0,0,0-1.27.69c-.87,1-1.65,2.09-2.61,3.32-.07-1.18-.14-2.1-.18-3,0-.58-.27-.84-.86-.79s-1.47.12-2.21.13-.93.29-.89,1q.28,4.84.52,9.68c0,.54.24.79.8.75.71,0,1.41-.09,2.12-.08s1.11-.32,1-1.12c-.09-1-.11-2-.18-3.19a21.66,21.66,0,0,1,2.22,2,4.71,4.71,0,0,0,5.17,1.84l1.41-.39a7.91,7.91,0,0,0-.88-1.21C185.06,156.27,183.49,154.86,181.91,153.41Zm-78.4,10.11c.38,0,.69,0,1,0,1.56-.08,1.67-.31.87-1.68-1.49-2.55-3.07-5.05-4.41-7.68-.74-1.44-1.62-2-3.23-1.78a1.54,1.54,0,0,0-1.38,1c-.73,1.63-1.55,3.21-2.32,4.82s-1.59,3.26-2.35,4.91c-.37.8-.21,1,.59,1,.55,0,1.11-.09,1.66-.06a1.49,1.49,0,0,0,1.72-1.16,1,1,0,0,1,.64-.61c1.41-.12,2.83-.18,4.24-.21a.84.84,0,0,1,.67.34A1.71,1.71,0,0,0,103.51,163.52Zm56-2.82,1.39-.08c1.08-.07,1.24-.37.69-1.32-1.54-2.66-3.19-5.26-4.61-8-.76-1.46-1.61-2.13-3.29-1.78a1.54,1.54,0,0,0-1.31.91c-.82,1.79-1.7,3.55-2.55,5.32-.7,1.44-1.4,2.87-2.09,4.31-.44.93-.22,1.26.78,1.19a12.86,12.86,0,0,1,1.66-.09,1.22,1.22,0,0,0,1.42-1,1,1,0,0,1,1.15-.81c1.26,0,2.52-.12,3.78-.14.25,0,.66.17.73.36A1.69,1.69,0,0,0,159.51,160.7Zm-33.16-6.43,0-.42a4.75,4.75,0,0,1,1.32-.16c1.09.17,2.16.42,3.23.69.81.21,1.06.07,1-.75a11.67,11.67,0,0,0-.35-1.9,1.08,1.08,0,0,0-.59-.7,10.25,10.25,0,0,0-5.91.14,3.19,3.19,0,0,0-2.12,3.34,3,3,0,0,0,2.24,3.13c1,.32,2,.45,3,.73a5,5,0,0,1,1,.58c-.36.17-.71.36-1.08.51a.8.8,0,0,1-.46,0c-1.13-.26-2.26-.55-3.39-.8a1.44,1.44,0,0,0-.93,0c-.39.24.13,3.23.54,3.45a.53.53,0,0,0,.17.06c2.2.3,4.41.59,6.55-.33a3.51,3.51,0,0,0,2.12-3.39,3.24,3.24,0,0,0-2.34-3.19c-.69-.24-1.43-.34-2.15-.51Zm-62,5.28c0,3,1.36,4.84,4,5.54a11.93,11.93,0,0,0,5.94-.17c1.82-.44,1.82-.47,1.76-2.35,0-1.3-.18-1.3-1.43-1a13.73,13.73,0,0,1-4,.63c-1.56-.06-2.38-1.3-2.33-2.9a2.72,2.72,0,0,1,2.52-2.8,9.65,9.65,0,0,1,2.56.16c2.23.43,2.19.47,1.87-1.79-.1-.66-.33-1-1-1.06-.36,0-.91-.07-1-.29-.49-.92-1.27-.64-1.94-.51s-1.58.56-2.39.76C65.78,154.56,64.3,156.41,64.31,159.55Zm103.59,1,0-.14c.58,0,1.17-.05,1.75-.12a16.67,16.67,0,0,0,1.72-.3c1.91-.44,2-.61,1.86-2.54-.09-1.12-.23-1.14-1.33-.85a17.66,17.66,0,0,1-3.94.71,2.48,2.48,0,0,1-2.51-2.54,2.78,2.78,0,0,1,2.84-3.23,14.17,14.17,0,0,1,3.26.43c.79.17,1-.07,1-.81a5.35,5.35,0,0,0-.19-1.36c-.13-.34-.44-.79-.75-.86a12,12,0,0,0-6.28.1c-2.44.77-3.64,2.43-3.82,5.27a5.14,5.14,0,0,0,3.18,5.5A19.88,19.88,0,0,0,167.9,160.58ZM130.69,93.85c-.13.14-.3.23-.31.34-.06.87-.56,1-1.32.93-6-.22-12.07-.43-18.1-.58-9.91-.25-19.83-.45-29.74-.71a4.45,4.45,0,0,1-1.35-.51L79.79,93l-.88,1.27c.43.07.64.12.84.12,7.32.29,14.65.6,22,.84q14,.47,28,.83a1.55,1.55,0,0,0,1.16-.42A1.34,1.34,0,0,0,130.69,93.85ZM78.5,93.26h-.58c-2.67-.05-5.35-.12-8-.15-.75,0-1-.26-.92-1,.68-7.51,1.33-15,2-22.53.08-.88.17-1.75.26-2.7,2.54.41,4.95.82,7.37,1.17a6.78,6.78,0,0,0,1.53-.12V67.6a9.78,9.78,0,0,0-.95-.25c-2-.34-4.06-.7-6.1-1-2.53-.36-2.83-.09-3,2.49,0,.12,0,.25,0,.37-.27,3-.56,6-.81,9-.41,5-.79,9.94-1.2,14.91,0,.6.19.85.76.9,1.1.09,2.2.24,3.31.29,1.51.06,3,.09,4.52.05C77.36,94.34,78.16,94.31,78.5,93.26Zm47.76,74.24c-2.24-.42-47.07,1.84-48.89,2.44C82.22,170.31,125.11,168.22,126.27,167.5Zm46.58-24.27v-.3c-6.25.2-12.5.37-18.74.61-4,.15-8,.42-12,.61-4.15.19-8.31.34-12.46.53-.89,0-1.78.22-2.66.34l0,.32C142.31,144.85,157.61,144.74,172.85,143.23Zm-47.72,2.44,0-.42c-.18-.08-.36-.24-.54-.24-.58,0-1.16.14-1.74.16-5.78.25-11.56.47-17.34.73-4.92.22-9.84.49-14.76.71-4.06.19-8.11.33-12.17.53-.75,0-1.49.21-2.23.31l.06.5Zm50.8,19.6-.06-.33a3.65,3.65,0,0,0-.52-.05c-4.52.18-9,.34-13.56.55-2.18.1-4.35.33-6.53.42-2.52.1-5,0-7.56.15-6.15.29-12.3.64-18.44,1a7.9,7.9,0,0,0-1.18.24l0,.24c.94,0,1.89,0,2.83,0,4.37-.15,8.74-.28,13.11-.47q15.18-.67,30.35-1.4A9.8,9.8,0,0,0,175.93,165.27Zm17.51-11.9-.4,0c-.05.66-.1,1.32-.17,2a9,9,0,0,1-3.9,7.1,12.49,12.49,0,0,1-7.46,2,21.93,21.93,0,0,0-2.66.15c-.24,0-.46.24-.68.36l.09.35c2-.1,4.06,0,6-.32,6-.86,9.44-4.86,9.31-10.67A5.69,5.69,0,0,0,193.44,153.36Zm-17.25-10.52,0,.53c1.73-.08,3.48-.07,5.2-.26a9.2,9.2,0,0,1,9.43,4.65,27,27,0,0,1,1.5,3.35l.8,1.78.24-.13c-.32-4.55-3.13-7.36-6.74-9.62a1,1,0,0,0-.44-.14c-2.48-.21-5-.46-7.44-.57A12.34,12.34,0,0,0,176.19,142.85ZM57,159.9l-.38.07a5.71,5.71,0,0,0,.08,1.2,19.07,19.07,0,0,0,1.8,4.58,9,9,0,0,0,6.14,4.3,28.69,28.69,0,0,0,8,.31,2.85,2.85,0,0,0,.82-.24,71.63,71.63,0,0,1-7.8-.58C61,168.71,58,165.87,57.3,161A8.87,8.87,0,0,0,57,159.9Zm72-74.21a1.67,1.67,0,0,0-1.55-1.82,1.73,1.73,0,0,0-1.86,1.73,1.94,1.94,0,0,0,1.67,2.07A1.84,1.84,0,0,0,129,85.69ZM56.7,158.59l.34.11a17.18,17.18,0,0,0,.42-1.89,8.66,8.66,0,0,1,4.4-6.66A16.83,16.83,0,0,1,68.57,148l1.74-.21,1.6-.18A15.8,15.8,0,0,0,62,149.44,10.23,10.23,0,0,0,56.7,158.59Zm50.63-74.73a1.52,1.52,0,0,0-1.59-1.64,1.69,1.69,0,0,0-1.82,1.57,1.81,1.81,0,0,0,1.78,1.76A1.53,1.53,0,0,0,107.33,83.86ZM85.13,82c0-1.1-.52-1.71-1.46-1.73A1.87,1.87,0,0,0,81.76,82a1.82,1.82,0,0,0,1.79,1.65A1.54,1.54,0,0,0,85.13,82Zm47.41-11.35-.27.05c-.13-.3-.27-.6-.39-.9-.32-.77-.61-1.54-.95-2.3-.09-.2-.3-.33-.46-.5a2.19,2.19,0,0,0-.38.63c-.08.42-.05.86-.11,1.28-.14,1-.31,2-.47,3.08.09,0,.46-.06.5-.18.29-1,.51-2,.79-3.09l1.7,3.58.41-.08c.09-.52.19-1,.25-1.57.08-.73.12-1.47.19-2.2,0-.15.19-.31.15-.42a3.63,3.63,0,0,0-.37-.67,6.4,6.4,0,0,0-.46,1,4.72,4.72,0,0,0,0,.91C132.63,69.74,132.58,70.19,132.54,70.64Zm18,16.66c-.07-.56-.32-1.09-1.1-1.1a2.29,2.29,0,0,0-1.9,2A1.44,1.44,0,0,0,149,89.4C149.5,89.39,150.61,88,150.59,87.3ZM136.93,69.59c.49-.84.42-1.29-.22-1.72-.88-.6-2.51-.44-2.59.3a13.07,13.07,0,0,0,0,3.46c.19,1.16,1.11,1.45,2.19,1a12.43,12.43,0,0,1,1.29-.44c-.45-.46-.87-.68-1.46-.06-.44.46-1,.31-1.3-.25a2.72,2.72,0,0,1-.13-2.64,2.23,2.23,0,0,1,1.21-.83c.12,0,.46.51.69.79C136.68,69.26,136.77,69.38,136.93,69.59Zm-11.56,1.65.36.21a1.38,1.38,0,0,1,1.48-1c1,0,.91.92,1.65,1.23-.36-1.83-.27-3.62-1.54-5.2ZM80.53,148.8c1.85.32,9.66-.19,10.21-.68C87.24,148.23,83.85,147.87,80.53,148.8ZM113.2,64.54c-.43,1.61.2,4.6,1.06,5.18l1.88-4.45-.47-.2-1.48,3.32C113.58,67.07,114,65.71,113.2,64.54ZM171,166.48v-.2a7.74,7.74,0,0,0-1.08-.11c-.67,0-1.35.12-2,.15-1.68.05-3.37.07-5,.12a1.91,1.91,0,0,0-1.82.93Zm-32-98.42-.48.15a8.57,8.57,0,0,0,.4,1.51c.54,1.16,1,2.31.25,3.55,0,0,.06.09.27.38.27-.49.62-.85.65-1.24a4.88,4.88,0,0,1,.92-2.73,3.43,3.43,0,0,0,.35-1l-.33-.18-1.13,1.82Zm-77.78,102c1.06,1.35,5.65,2.4,6.83,1.47Zm129.94-12.64c1.33-1.14,1.56-5,.4-6.13ZM172.52,88.74c-.22.25-.75.58-.82,1a1,1,0,0,0,1,1.15.93.93,0,0,0,1.12-.94C173.88,89.27,173.52,88.87,172.52,88.74Zm-52.61,2.45c1.45-1.06,1.57-1.77.4-3.13a12.36,12.36,0,0,0-1.1,2.11C119.14,90.42,119.67,90.85,119.92,91.19Zm67.21,57.92-.25.22c.17.26.28.64.53.76a4.65,4.65,0,0,0,1.55.48,3,3,0,0,0,1-.29c-.3-.29-.55-.73-.91-.85A11.13,11.13,0,0,0,187.12,149.11ZM70.73,92.53l.35-.14.14-2.52-.32-.15c-.42.52-1,1-1.2,1.59C69.62,91.6,70.36,92.12,70.73,92.53Zm107.92,73.62c1.27.16,2.57.58,4-.38C181.11,165.64,179.83,165.39,178.65,166.15ZM70.28,81.86c.3.9.68,1.1,1.72.74.23-.08.36-.41.54-.62-.25-.18-.51-.52-.75-.51A7.45,7.45,0,0,0,70.28,81.86Zm1-11.16.32.12c.26-.2.66-.35.75-.61a4.63,4.63,0,0,0,.18-1.51c0-.14-.27-.35-.44-.38a.55.55,0,0,0-.46.28C71.44,69.29,71.35,70,71.24,70.7Zm24.37,3.5a4.25,4.25,0,0,0,.65.81,3.56,3.56,0,0,0,.86.34c.06-.22.23-.5.15-.64a1.47,1.47,0,0,0-.68-.69C96.34,73.93,96,74.11,95.61,74.2Zm72.18,81.91.76-.87a5.69,5.69,0,0,0-1.08-.53c-.09,0-.48.45-.43.58S167.45,155.75,167.8,156.11Zm12.77,5.17-.71-1.74c-.17.21-.46.4-.49.63C179.29,160.78,179.36,161.37,180.57,161.28ZM122.05,73.81a11.69,11.69,0,0,0-.16,1.49c0,.09.33.18.51.26a5,5,0,0,0,.31-1.1C122.72,74.32,122.41,74.15,122.05,73.81ZM93.39,170.57l0,.41,2.52-.19,0-.22Zm77.17-15.51.28.5,1.21-.64a4.18,4.18,0,0,0-.33-.51C171.32,154.6,170.94,154.83,170.56,155.06Zm-59,15,0-.28h-2.18V170ZM79.42,69.63l.48.23a4.45,4.45,0,0,0,.47-.95c0-.1-.33-.29-.51-.44Zm34.7,14.27.14.26c1.28-.06,1.37-.12,1.31-1Zm.51,86,0-.24h-1.88v.24Zm1.09-81.76.4-.07c0-.55.37-1.2-.64-1.75Z" style="fill:#a72c27"/><path d="M68.52,101.36c2.1-.12,4-.27,6-.34q12.83-.51,25.67-1c9.36-.36,18.71-.69,28.07-1.07,5.32-.22,10.64-.63,16-.72,3.81-.07,7.63.25,11.44.4s7.88.31,11.81.49c1.23.06,2.45.26,3.68.29,1,0,1.27.56,1.27,1.39,0,1.29-.06,2.59-.07,3.88a6.7,6.7,0,0,0,.1.86,4.13,4.13,0,0,0,.91-.28c.77-.45,1.52-1,2.47-1.56.25,1.95.49,3.58.65,5.22q1.11,11.63,2.17,23.27c.2,2.24.28,4.49.45,6.73.06.73-.18.94-.91,1-8,.39-16,.83-24,1.24s-16.12.79-24.18,1.18c-8.49.41-17,.84-25.47,1.22-6.8.3-13.6.55-20.4.81l-13.38.5c-.3,0-.6,0-1.08,0ZM116,122.83a42.8,42.8,0,0,0-1-10.72,5.47,5.47,0,0,0-4.26-4.25,9,9,0,0,0-4.2-.06,5.42,5.42,0,0,0-4.61,4.77,36.45,36.45,0,0,0-.3,5.34c0,2.05.18,4.11.33,6.16a41.3,41.3,0,0,0,.5,4.67c.75,3.9,3.31,5.8,7.26,5.5,3.74-.28,5.68-1.91,6.2-5.6A42.3,42.3,0,0,0,116,122.83ZM155.18,118c-3.2-.76-4.45-6-2.64-10.12a6.72,6.72,0,0,0-1.14,1.79,7.09,7.09,0,0,0,1.16,7,41.75,41.75,0,0,0,3.61,3.81,14.63,14.63,0,0,0,1.55,1.27c.77.59,1.6,1.1,2.32,1.74a11.1,11.1,0,0,1,1.25,1.66,3.77,3.77,0,0,0-1.65-2.89c-.74-.55-1.54-1-2.26-1.6a10.92,10.92,0,0,1-1.2-1.34l.26-.24c1.48,1.13,3,2.2,4.44,3.43a3.74,3.74,0,0,1,1,4.07,2.16,2.16,0,0,1-3.43,1.27,4.74,4.74,0,0,1-1.41-2,6.5,6.5,0,0,1-.13-2c-1.23,0-2.46,0-3.68,0-.21,0-.54.45-.56.7-.27,4.82,3.35,8.25,8.11,7.59a6.32,6.32,0,0,0,5.49-4.71,6.21,6.21,0,0,0-1.77-6.82c-2.32-2.13-4.65-4.24-6.91-6.43a5.84,5.84,0,0,1-1.37-2.13,2.35,2.35,0,0,1,1.5-3,2.25,2.25,0,0,1,2.93,1.39,5,5,0,0,1,.47,1.49c.08.89.49,1.15,1.36,1.13,3-.08,3.17.08,2.31-3.11-1.14-4.24-7.09-5.59-10.58-2.54a6.2,6.2,0,0,0-.62,8.52C154.07,116.53,154.59,117.19,155.18,118Zm-19.69-.4c-.64,0-1.18,0-1.73,0-.86,0-1.72.15-2.58.21-2.47.17-3.35-.71-3.19-3.17a16.68,16.68,0,0,0,0-2.3c-.09-1.14.06-1.53,1.22-1.7a26.17,26.17,0,0,1,3.58-.16c1.71,0,1.71,0,1.76-1.66,0-.31,0-.62,0-.92,0-.79-.2-1.14-1.11-1.09q-4.38.23-8.77.28c-.89,0-1.25.28-1.16,1.16,0,.18,0,.37,0,.55.24,3.7.49,7.4.71,11.1.16,2.64.26,5.28.4,7.92.09,1.59.2,3.18.32,5,3.68-.19,7.26-.37,10.85-.6.18,0,.47-.47.47-.71,0-1-.12-2-.2-3.1l-2.08.18c-.7.06-1.41.16-2.11.19-2.39.1-2.85-.29-3-2.63-.09-1.27-.12-2.54-.18-3.82,1.33-.09,2.42-.19,3.53-.23s2.25,0,3.5,0Zm-50.29,7.7-3.45.24c-.58,0-.77.32-.71.91.11,1.1.13,2.21.21,3.32A4,4,0,0,0,82.78,133a7.4,7.4,0,0,0,5.11,1.49,6.08,6.08,0,0,0,5.92-6.3c0-2.85-.21-5.71-.33-8.56q-.12-2.86-.27-5.72c-.09-1.78-.2-3.55-.31-5.45l-4,.21a4.15,4.15,0,0,0-.06.51c.21,5.35.44,10.7.63,16.05a25,25,0,0,1-.13,3.85,1.6,1.6,0,0,1-1.66,1.44c-1.49.07-2.07-.46-2.22-2.14C85.35,127.36,85.29,126.39,85.2,125.27Zm56.34-11.4,1.85-.21c.34-2,.65-4,1-6a7.46,7.46,0,0,1,.61-1.46l-2.6.28c-.19,2.05-.36,4.07-.57,6.08,0,.29-.2.76-.38.81-1,.22-.69,1-.62,1.53,0,.17.71.28,1.1.36a3.48,3.48,0,0,0,.73-.06c.88,0,1.36-.43,1.29-1.38C143.19,114.23,142.44,114.82,141.54,113.87Zm10.51,13.64c.53,3.27,3.78,5.58,7.59,5.62,3.49,0,6.24-1.66,6.68-4.12C163.31,134.61,154.38,133.32,152.06,127.51Zm-72.43,3.26c.15,2.57,2.5,5,5.69,5.77s6.51-.17,7.86-2.35C89.52,138.08,81.36,136.66,79.63,130.77ZM160.47,114c3.47.24,4.24.17,4.89-.57l-3.37.15c-.75,0-1.1-.24-1.32-1a7.94,7.94,0,0,0-1.26-2.59c-.53-.72-1.17-.6-1.78.05C160.47,110,159.82,112.5,160.47,114ZM137,133l-.11-.2c-2,.15-3.9.36-5.85.43s-3.94,0-5.9,0l0,.22a20,20,0,0,0,2.61.26c2.79-.07,5.58-.22,8.37-.37A3,3,0,0,0,137,133Zm-7.2-21.75v.08h6.34l-.49-2.62h-.17l-.18,2.14-2.76.21ZM109.33,135c-2.92-.25-4.42-.72-6.75-3.47A6.48,6.48,0,0,0,109.33,135ZM89,128.29a2.22,2.22,0,0,1-3.09,0,1.34,1.34,0,0,0,1.57,1A1.43,1.43,0,0,0,89,128.29Zm28.17,5.23c.76-1.08,1.65-2.15,1.52-3.46Zm-4,.43.14.22,1.89-1.47-.14-.18Z" style="fill:#fff"/><path d="M188.9,93.39,182,97.83c-.21.13-.37.39-.59.43-1.47.31-2.32,1.54-3.49,2.27a30.59,30.59,0,0,1-3.45,1.7c-.82.37-1.17-.1-1.2-.84a18,18,0,0,1,.09-2.58c.08-.74-.15-1-.89-1-4.74-.09-9.48-.22-14.22-.36-2.74-.08-5.47-.2-8.21-.31-.59,0-1.17-.09-1.48.63,0,.11-.61.08-.9,0-1-.29-2-.64-2.94-.95-.1,0-.23,0-.37.07l.09.87h-2l-.16-.94-11-.65c.08-1.36.49-1.89,1.61-2.16l-.4,1.31c2.18-.2,4.41.71,6.55-.49l-.05.32a8.23,8.23,0,0,0,1.66.42q11,.49,22,.92c3.38.13,6.77.23,10.16.36a1.28,1.28,0,0,1,1.42,1.47c0,1,0,2.08,0,3.42l4.45-2.87v-1.5l1,.48V96.44l.28-.14.89,1,9.2-6a19.73,19.73,0,0,0-4.87-4.4,9.7,9.7,0,0,1-1.56-1.49c-.41-.39-.76-1-1.25-1.12a2.61,2.61,0,0,1-1.29-1.06,14.32,14.32,0,0,0-1.79-2c-1.54-1.36-3.13-2.66-4.87-4.14,0,1.11-.06,2.08,0,3s-.42,1.26-1.19,1.24a25.84,25.84,0,0,1-3-.25c-3.22-.45-6.44-.93-9.67-1.39l-4.1-.58.91,2.06c-1.35-.18-1.95-1.27-1.84-3.17l17.92,2.5c0-1,0-1.75,0-2.54a6.53,6.53,0,0,1,0-1.11c.15-.81.65-1,1.29-.49,2.88,2.42,5.77,4.81,8.59,7.29,2.54,2.24,5,4.6,7.44,6.91.13.12.25.27.45.49l-2.4,2.26Z" style="fill:#fff"/><path d="M81.57,160.81c0,1,.08,1.94.15,2.91,0,.66-.17,1-.87,1s-1.54.07-2.3.14c-.59.05-.86-.2-.88-.78q-.24-4.88-.5-9.77c0-.59.22-.85.79-.87,2.55-.09,5.1-.29,7.65-.26a3.13,3.13,0,0,1,3,4.35,7.6,7.6,0,0,1-1.3,1.73c.79,1.15,1.67,2.41,2.52,3.7.65,1,.48,1.3-.67,1.36a18.07,18.07,0,0,1-2.39.08,1.86,1.86,0,0,1-1.17-.62,14.4,14.4,0,0,1-1.12-1.9C83.67,160.44,83.27,160.29,81.57,160.81Zm-.2-2.8a16.75,16.75,0,0,0,2.58-.3c.37-.1.62-.62.92-.95-.33-.3-.62-.81-1-.86a18.56,18.56,0,0,0-2.69,0Z" style="fill:#fff"/><path d="M138.12,154.42l3.28-.2c0-1.06,0-2.07,0-3.07,0-.65.14-1,.85-1s1.47-.09,2.21-.14.94.2,1,.9c.14,3.14.31,6.27.49,9.41,0,.72-.15,1.12-.94,1.12s-1.48,0-2.21.09-.89-.23-.91-.86c0-1.07-.1-2.14-.15-3.22-1.06,0-2,0-2.94,0-.15,0-.4.41-.4.64,0,.89,0,1.79.09,2.68.05.64-.14,1-.83,1s-1.6.05-2.4.09c-.57,0-.75-.29-.78-.79q-.25-4.84-.51-9.69c0-.56.15-.88.76-.9.77,0,1.54-.09,2.3-.15s1,.2,1,.89C138,152.29,138.07,153.3,138.12,154.42Z" style="fill:#fff"/><path d="M115.1,156.77a3,3,0,0,1,1.74,2.4A3.18,3.18,0,0,1,114,163c-2,.22-4,.26-6,.38-.63,0-.87-.28-.9-.88q-.23-4.75-.5-9.5c0-.69.21-1,.93-1.05,1.72-.06,3.44-.16,5.17-.24a3.16,3.16,0,0,1,3.26,1.66A2.7,2.7,0,0,1,115.1,156.77Zm-4.37,3.62c1.55,0,2.25-.32,2.2-1.05a1.17,1.17,0,0,0-1.55-.91C110.07,158.7,111.11,159.71,110.73,160.39Zm-.27-5.81c.26.55-.37,1.49.8,1.51.61,0,1.11-.23,1.14-.91S111.75,154.36,110.46,154.58Z" style="fill:#fff"/><path d="M181.91,153.41c1.58,1.45,3.15,2.86,4.69,4.32a7.91,7.91,0,0,1,.88,1.21l-1.41.39a4.71,4.71,0,0,1-5.17-1.84,21.66,21.66,0,0,0-2.22-2c.06,1.21.08,2.21.18,3.19.08.8-.23,1.14-1,1.12s-1.41,0-2.12.08c-.55,0-.77-.22-.8-.75q-.24-4.84-.52-9.68c0-.68.21-1,.89-1s1.48-.07,2.21-.13.84.21.86.79c0,.91.1,1.83.18,3,1-1.24,1.74-2.32,2.61-3.32a2.45,2.45,0,0,1,1.27-.69,8.71,8.71,0,0,1,2-.13,4.56,4.56,0,0,1,1.07.28,4,4,0,0,1-.39,1c-.91,1.2-1.86,2.37-2.79,3.56C182.19,153,182.08,153.16,181.91,153.41Z" style="fill:#fff"/><path d="M103.51,163.52a1.71,1.71,0,0,1-2.3-1.11.84.84,0,0,0-.67-.34c-1.42,0-2.83.09-4.24.21a1,1,0,0,0-.64.61,1.49,1.49,0,0,1-1.72,1.16c-.55,0-1.11.06-1.66.06-.8,0-1-.24-.59-1,.76-1.65,1.56-3.28,2.35-4.91s1.59-3.19,2.32-4.82a1.54,1.54,0,0,1,1.38-1c1.61-.27,2.49.34,3.23,1.78,1.35,2.62,2.92,5.13,4.41,7.68.8,1.37.69,1.6-.87,1.68C104.2,163.53,103.89,163.52,103.51,163.52Zm-6.33-3.94,2.34-.2-1.24-2.16Z" style="fill:#fff"/><path d="M159.51,160.7a1.69,1.69,0,0,1-2.26-1.12c-.07-.19-.48-.36-.73-.36-1.26,0-2.52.14-3.78.14a1,1,0,0,0-1.15.81,1.22,1.22,0,0,1-1.42,1,12.86,12.86,0,0,0-1.66.09c-1,.07-1.22-.25-.78-1.19.69-1.44,1.4-2.87,2.09-4.31.86-1.77,1.73-3.53,2.55-5.32a1.54,1.54,0,0,1,1.31-.91c1.67-.35,2.53.32,3.29,1.78,1.41,2.72,3.06,5.32,4.61,8,.55.95.39,1.25-.69,1.32Zm-6.27-4,2.32-.11-1.25-2.25Z" style="fill:#fff"/><path d="M126.34,154.27l2,.5c.72.17,1.45.28,2.15.51a3.24,3.24,0,0,1,2.34,3.19,3.51,3.51,0,0,1-2.12,3.39c-2.14.92-4.35.63-6.55.33a.53.53,0,0,1-.17-.06c-.42-.22-.93-3.22-.54-3.45a1.44,1.44,0,0,1,.93,0c1.14.25,2.26.54,3.39.8a.8.8,0,0,0,.46,0c.37-.15.72-.34,1.08-.51a5,5,0,0,0-1-.58c-1-.28-2.06-.41-3-.73a3,3,0,0,1-2.24-3.13,3.19,3.19,0,0,1,2.12-3.34A10.25,10.25,0,0,1,131,151a1.08,1.08,0,0,1,.59.7,11.67,11.67,0,0,1,.35,1.9c.09.81-.16,1-1,.75-1.06-.28-2.14-.52-3.23-.69a4.75,4.75,0,0,0-1.32.16Z" style="fill:#fff"/><path d="M64.31,159.55c0-3.14,1.46-5,4.53-5.75.81-.2,1.58-.6,2.39-.76s1.45-.41,1.94.51c.12.22.67.25,1,.29.67.06.91.4,1,1.06.33,2.26.36,2.22-1.87,1.79a9.65,9.65,0,0,0-2.56-.16,2.72,2.72,0,0,0-2.52,2.8c-.05,1.6.77,2.84,2.33,2.9a13.73,13.73,0,0,0,4-.63c1.25-.34,1.39-.34,1.43,1,.06,1.88.06,1.91-1.76,2.35a11.93,11.93,0,0,1-5.94.17C65.67,164.39,64.32,162.51,64.31,159.55Z" style="fill:#fff"/><path d="M167.9,160.58a19.88,19.88,0,0,1-3.2-.75,5.14,5.14,0,0,1-3.18-5.5c.18-2.83,1.38-4.5,3.82-5.27a12,12,0,0,1,6.28-.1c.31.07.62.52.75.86a5.35,5.35,0,0,1,.19,1.36c.08.74-.18,1-1,.81a14.17,14.17,0,0,0-3.26-.43,2.78,2.78,0,0,0-2.84,3.23,2.48,2.48,0,0,0,2.51,2.54,17.66,17.66,0,0,0,3.94-.71c1.1-.29,1.23-.28,1.33.85.16,1.93,0,2.1-1.86,2.54a16.67,16.67,0,0,1-1.72.3c-.58.07-1.16.09-1.75.12Z" style="fill:#fff"/><path d="M130.69,93.85a1.34,1.34,0,0,1,.19,1.79,1.55,1.55,0,0,1-1.16.42q-14-.39-28-.83c-7.33-.25-14.65-.56-22-.84-.21,0-.41-.06-.84-.12L79.79,93l.07.33a4.45,4.45,0,0,0,1.35.51c9.91.26,19.83.46,29.74.71,6,.15,12.07.36,18.1.58.76,0,1.26-.06,1.32-.93C130.38,94.08,130.56,94,130.69,93.85Z" style="fill:#fff"/><path d="M78.5,93.26c-.34,1-1.14,1.08-1.84,1.1-1.51,0-3,0-4.52-.05-1.11,0-2.21-.2-3.31-.29-.57,0-.81-.3-.76-.9.41-5,.79-9.94,1.2-14.91.25-3,.54-6,.81-9,0-.12,0-.25,0-.37.16-2.57.45-2.84,3-2.49,2,.29,4.07.65,6.1,1a9.78,9.78,0,0,1,.95.25v.29a6.78,6.78,0,0,1-1.53.12c-2.42-.35-4.83-.76-7.37-1.17-.09.94-.18,1.82-.26,2.7-.66,7.51-1.3,15-2,22.53-.07.79.16,1,.92,1,2.67,0,5.35.1,8,.15Z" style="fill:#fff"/><path d="M126.27,167.5c-1.15.72-44,2.81-48.89,2.44C79.2,169.34,124,167.08,126.27,167.5Z" style="fill:#fff"/><path d="M172.85,143.23c-15.24,1.5-30.54,1.61-45.83,2.11l0-.32c.89-.12,1.77-.3,2.66-.34,4.15-.2,8.31-.34,12.46-.53,4-.19,8-.46,12-.61,6.25-.24,12.5-.41,18.74-.61Z" style="fill:#fff"/><path d="M125.13,145.67,76.45,148l-.06-.5c.74-.11,1.49-.28,2.23-.31,4.06-.19,8.11-.34,12.17-.53,4.92-.23,9.84-.49,14.76-.71,5.78-.26,11.56-.48,17.34-.73.58,0,1.16-.14,1.74-.16.18,0,.36.15.54.24Z" style="fill:#fff"/><path d="M175.93,165.27a9.8,9.8,0,0,1-1.54.32q-15.17.72-30.35,1.4c-4.37.19-8.74.33-13.11.47-.94,0-1.88,0-2.83,0l0-.24a7.9,7.9,0,0,1,1.18-.24c6.15-.34,12.29-.69,18.44-1,2.52-.12,5-.05,7.56-.15,2.18-.08,4.35-.32,6.53-.42,4.52-.21,9-.37,13.56-.55a3.65,3.65,0,0,1,.52.05Z" style="fill:#fff"/><path d="M193.44,153.36a5.69,5.69,0,0,1,.18,1c.12,5.8-3.32,9.81-9.31,10.67-2,.28-4,.22-6,.32l-.09-.35c.23-.13.45-.34.68-.36a21.93,21.93,0,0,1,2.66-.15,12.49,12.49,0,0,0,7.46-2,9,9,0,0,0,3.9-7.1c.06-.66.11-1.32.17-2Z" style="fill:#fff"/><path d="M176.19,142.85a12.34,12.34,0,0,1,2.58-.42c2.48.11,5,.37,7.44.57a1,1,0,0,1,.44.14c3.61,2.25,6.42,5.07,6.74,9.62l-.24.13-.8-1.78a27,27,0,0,0-1.5-3.35,9.2,9.2,0,0,0-9.43-4.65c-1.72.18-3.47.18-5.2.26Z" style="fill:#fff"/><path d="M57,159.9A8.87,8.87,0,0,1,57.3,161c.68,4.89,3.72,7.73,8.39,8.56a71.63,71.63,0,0,0,7.8.58,2.85,2.85,0,0,1-.82.24,28.69,28.69,0,0,1-8-.31,9,9,0,0,1-6.14-4.3,19.07,19.07,0,0,1-1.8-4.58,5.71,5.71,0,0,1-.08-1.2Z" style="fill:#fff"/><path d="M129,85.69a1.84,1.84,0,0,1-1.74,2,1.94,1.94,0,0,1-1.67-2.07,1.73,1.73,0,0,1,1.86-1.73A1.67,1.67,0,0,1,129,85.69Z" style="fill:#fff"/><path d="M56.7,158.59A10.23,10.23,0,0,1,62,149.44a15.8,15.8,0,0,1,9.91-1.81l-1.6.18-1.74.21a16.83,16.83,0,0,0-6.71,2.13,8.66,8.66,0,0,0-4.4,6.66A17.18,17.18,0,0,1,57,158.7Z" style="fill:#fff"/><path d="M107.33,83.86a1.53,1.53,0,0,1-1.63,1.69,1.81,1.81,0,0,1-1.78-1.76,1.69,1.69,0,0,1,1.82-1.57A1.52,1.52,0,0,1,107.33,83.86Z" style="fill:#fff"/><path d="M85.13,82a1.54,1.54,0,0,1-1.58,1.65A1.82,1.82,0,0,1,81.76,82a1.87,1.87,0,0,1,1.91-1.73C84.61,80.27,85.13,80.88,85.13,82Z" style="fill:#fff"/><path d="M132.54,70.64c0-.45.09-.89.11-1.34a4.72,4.72,0,0,1,0-.91,6.4,6.4,0,0,1,.46-1,3.63,3.63,0,0,1,.37.67c0,.11-.14.27-.15.42-.07.73-.11,1.47-.19,2.2-.06.53-.17,1-.25,1.57l-.41.08-1.7-3.58c-.28,1.14-.5,2.12-.79,3.09,0,.12-.4.15-.5.18.16-1.05.33-2.07.47-3.08.06-.43,0-.87.11-1.28a2.19,2.19,0,0,1,.38-.63c.16.16.37.3.46.5.34.76.63,1.53.95,2.3.12.3.26.6.39.9Z" style="fill:#fff"/><path d="M150.59,87.3c0,.75-1.08,2.09-1.63,2.1a1.44,1.44,0,0,1-1.36-1.25,2.29,2.29,0,0,1,1.9-2C150.27,86.2,150.51,86.73,150.59,87.3Z" style="fill:#fff"/><path d="M136.93,69.59c-.16-.21-.24-.33-.34-.44-.24-.28-.58-.84-.69-.79a2.23,2.23,0,0,0-1.21.83,2.72,2.72,0,0,0,.13,2.64c.32.56.86.72,1.3.25.59-.62,1-.4,1.46.06a12.43,12.43,0,0,0-1.29.44c-1.08.5-2,.2-2.19-1a13.07,13.07,0,0,1,0-3.46c.08-.74,1.7-.9,2.59-.3C137.34,68.3,137.42,68.75,136.93,69.59Z" style="fill:#fff"/><path d="M125.37,71.24l1.95-4.75c1.27,1.57,1.18,3.36,1.54,5.2-.74-.31-.7-1.24-1.65-1.23a1.38,1.38,0,0,0-1.48,1Zm2.56-1.34-.43-1.83h-.3l-.5,1.56Z" style="fill:#fff"/><path d="M80.53,148.8c3.31-.93,6.71-.58,10.21-.68C90.2,148.62,82.38,149.12,80.53,148.8Z" style="fill:#fff"/><path d="M113.2,64.54c.84,1.17.38,2.53,1,3.85l1.48-3.32.47.2-1.88,4.45C113.4,69.14,112.76,66.15,113.2,64.54Z" style="fill:#fff"/><path d="M171,166.48l-10,.89a1.91,1.91,0,0,1,1.82-.93c1.68-.05,3.37-.07,5-.12.67,0,1.35-.12,2-.15a7.74,7.74,0,0,1,1.08.11Z" style="fill:#fff"/><path d="M138.92,68.06l.9,2.31,1.13-1.82.33.18a3.43,3.43,0,0,1-.35,1,4.88,4.88,0,0,0-.92,2.73c0,.39-.38.75-.65,1.24-.2-.28-.28-.36-.27-.38.73-1.24.29-2.39-.25-3.55a8.57,8.57,0,0,1-.4-1.51Z" style="fill:#fff"/><path d="M61.14,170.1,68,171.57C66.79,172.5,62.2,171.46,61.14,170.1Z" style="fill:#fff"/><path d="M191.08,157.46l.4-6.13C192.64,152.47,192.41,156.32,191.08,157.46Z" style="fill:#fff"/><path d="M172.52,88.74c1,.13,1.36.53,1.31,1.22a.93.93,0,0,1-1.12.94,1,1,0,0,1-1-1.15C171.78,89.33,172.31,89,172.52,88.74Z" style="fill:#fff"/><path d="M119.92,91.19c-.25-.34-.78-.77-.7-1a12.36,12.36,0,0,1,1.1-2.11C121.48,89.42,121.37,90.13,119.92,91.19Z" style="fill:#fff"/><path d="M187.12,149.11a11.13,11.13,0,0,1,2,.31c.36.12.61.56.91.85a3,3,0,0,1-1,.29,4.65,4.65,0,0,1-1.55-.48c-.24-.12-.35-.5-.53-.76Z" style="fill:#fff"/><path d="M70.73,92.53c-.37-.41-1.11-.93-1-1.22.17-.59.77-1.07,1.2-1.59l.32.15-.14,2.52Z" style="fill:#fff"/><path d="M178.65,166.15c1.18-.76,2.46-.51,4-.38C181.22,166.73,179.92,166.31,178.65,166.15Z" style="fill:#fff"/><path d="M70.28,81.86a7.45,7.45,0,0,1,1.5-.39c.24,0,.5.33.75.51-.18.21-.31.55-.54.62C71,83,70.57,82.76,70.28,81.86Z" style="fill:#fff"/><path d="M71.24,70.7c.11-.7.2-1.41.35-2.1a.55.55,0,0,1,.46-.28c.17,0,.44.25.44.38a4.63,4.63,0,0,1-.18,1.51c-.09.26-.49.41-.75.61Z" style="fill:#fff"/><path d="M95.61,74.2c.39-.08.73-.27,1-.18a1.47,1.47,0,0,1,.68.69c.08.14-.09.42-.15.64a3.56,3.56,0,0,1-.86-.34A4.25,4.25,0,0,1,95.61,74.2Z" style="fill:#fff"/><path d="M167.8,156.11c-.34-.36-.65-.55-.75-.82s.33-.6.43-.58a5.69,5.69,0,0,1,1.08.53Z" style="fill:#fff"/><path d="M180.57,161.28c-1.21.09-1.28-.5-1.2-1.11,0-.23.32-.42.49-.63Z" style="fill:#fff"/><path d="M122.05,73.81c.35.33.67.5.66.65a5,5,0,0,1-.31,1.1c-.18-.09-.5-.17-.51-.26A11.69,11.69,0,0,1,122.05,73.81Z" style="fill:#fff"/><path d="M93.39,170.57h2.52l0,.22-2.52.19Z" style="fill:#fff"/><path d="M170.56,155.06c.38-.22.76-.46,1.16-.65a4.18,4.18,0,0,1,.33.51l-1.21.64Z" style="fill:#fff"/><path d="M111.53,170h-2.2v-.28h2.18Z" style="fill:#fff"/><path d="M188.87,93.42l.78-.17.17.26-1.42,1.08-.27-.29.77-.91Z" style="fill:#fff"/><path d="M79.42,69.63l.43-1.16c.18.15.54.34.51.44a4.45,4.45,0,0,1-.47.95Z" style="fill:#fff"/><path d="M114.11,83.9l1.45-.72c.06.87,0,.93-1.31,1Z" style="fill:#fff"/><path d="M114.62,169.88h-1.91v-.24h1.88Z" style="fill:#fff"/><path d="M115.72,88.12l-.24-1.82c1,.54.62,1.2.64,1.75Z" style="fill:#fff"/><path d="M116,122.83a42.3,42.3,0,0,1,0,5.8c-.52,3.69-2.46,5.32-6.2,5.6-4,.3-6.51-1.59-7.26-5.5a41.3,41.3,0,0,1-.5-4.67c-.15-2.05-.32-4.11-.33-6.16a36.45,36.45,0,0,1,.3-5.34,5.42,5.42,0,0,1,4.61-4.77,9,9,0,0,1,4.2.06,5.47,5.47,0,0,1,4.26,4.25A42.8,42.8,0,0,1,116,122.83ZM111.05,116l.19,0c-.08-1-.11-2.09-.26-3.12a2.76,2.76,0,0,0-2.28-2.25,2.21,2.21,0,0,0-2.46,1.53,5.06,5.06,0,0,0-.43,2c.1,3.49.22,7,.44,10.48a19.5,19.5,0,0,0,.76,4.24,2.26,2.26,0,0,0,2.48,1.51,2,2,0,0,0,2-1.79,23.06,23.06,0,0,0,.27-4.84C111.67,121.2,111.32,118.61,111.05,116Z" style="fill:#a72c27"/><path d="M155.18,118c-.59-.77-1.11-1.44-1.61-2.12a6.2,6.2,0,0,1,.62-8.52c3.49-3,9.44-1.69,10.58,2.54.86,3.19.68,3-2.31,3.11-.87,0-1.28-.24-1.36-1.13a5,5,0,0,0-.47-1.49,2.25,2.25,0,0,0-2.93-1.39,2.35,2.35,0,0,0-1.5,3,5.84,5.84,0,0,0,1.37,2.13c2.26,2.19,4.59,4.3,6.91,6.43a6.21,6.21,0,0,1,1.77,6.82,6.32,6.32,0,0,1-5.49,4.71c-4.76.66-8.38-2.77-8.11-7.59,0-.25.35-.69.56-.7,1.22-.07,2.45,0,3.68,0a6.5,6.5,0,0,0,.13,2,4.74,4.74,0,0,0,1.41,2,2.16,2.16,0,0,0,3.43-1.27,3.74,3.74,0,0,0-1-4.07c-1.4-1.23-3-2.29-4.44-3.43l-.26.24a10.92,10.92,0,0,0,1.2,1.34c.71.58,1.52,1,2.26,1.6a3.77,3.77,0,0,1,1.65,2.89,11.1,11.1,0,0,0-1.25-1.66c-.72-.64-1.55-1.16-2.32-1.74a14.63,14.63,0,0,1-1.55-1.27,41.75,41.75,0,0,1-3.61-3.81,7.09,7.09,0,0,1-1.16-7,6.72,6.72,0,0,1,1.14-1.79C150.73,112,152,117.21,155.18,118Z" style="fill:#a72c27"/><path d="M135.49,117.56l.27,4.49c-1.25,0-2.37,0-3.5,0s-2.2.14-3.53.23c.06,1.28.09,2.55.18,3.82.17,2.34.63,2.73,3,2.63.71,0,1.41-.13,2.11-.19l2.08-.18c.08,1.1.19,2.1.2,3.1,0,.24-.29.7-.47.71-3.58.23-7.17.41-10.85.6-.12-1.82-.24-3.41-.32-5-.14-2.64-.25-5.28-.4-7.92-.22-3.7-.47-7.4-.71-11.1,0-.18,0-.37,0-.55-.09-.87.27-1.15,1.16-1.16q4.38,0,8.77-.28c.9,0,1.15.3,1.11,1.09,0,.31,0,.62,0,.92,0,1.67,0,1.65-1.76,1.66a26.17,26.17,0,0,0-3.58.16c-1.16.17-1.3.56-1.22,1.7a16.68,16.68,0,0,1,0,2.3c-.16,2.46.72,3.34,3.19,3.17.86-.06,1.72-.16,2.58-.21C134.31,117.54,134.86,117.56,135.49,117.56Z" style="fill:#a72c27"/><path d="M85.2,125.27c.08,1.12.14,2.1.23,3.07.15,1.68.73,2.21,2.22,2.14A1.6,1.6,0,0,0,89.32,129a25,25,0,0,0,.13-3.85c-.19-5.35-.41-10.7-.63-16.05a4.15,4.15,0,0,1,.06-.51l4-.21c.11,1.9.22,3.68.31,5.45s.18,3.81.27,5.72c.12,2.85.3,5.71.33,8.56a6.08,6.08,0,0,1-5.92,6.3A7.4,7.4,0,0,1,82.78,133a4,4,0,0,1-1.53-3.21c-.08-1.11-.1-2.22-.21-3.32-.06-.59.13-.87.71-.91Z" style="fill:#a72c27"/><path d="M141.54,113.87c.89,1,1.64.36,2.44,0,.07,1-.4,1.35-1.29,1.38a3.48,3.48,0,0,1-.73.06c-.39-.08-1.08-.19-1.1-.36-.07-.55-.36-1.31.62-1.53.18,0,.35-.52.38-.81.21-2,.38-4,.57-6.08l2.6-.28a7.46,7.46,0,0,0-.61,1.46c-.38,2-.69,4-1,6Z" style="fill:#a72c27"/><path d="M152.06,127.51c2.32,5.81,11.25,7.1,14.27,1.5-.44,2.45-3.19,4.15-6.68,4.12C155.84,133.09,152.59,130.78,152.06,127.51Z" style="fill:#a72c27"/><path d="M79.63,130.77c1.73,5.89,9.89,7.31,13.54,3.42-1.35,2.19-4.63,3.17-7.86,2.35S79.78,133.35,79.63,130.77Z" style="fill:#a72c27"/><path d="M160.47,114c-.64-1.55,0-4-2.84-4,.61-.65,1.25-.77,1.78-.05a7.94,7.94,0,0,1,1.26,2.59c.21.79.57,1.07,1.32,1l3.37-.15C164.71,114.21,163.93,114.28,160.47,114Z" style="fill:#a72c27"/><path d="M137,133a3,3,0,0,1-.9.37c-2.79.15-5.58.29-8.37.37a20,20,0,0,1-2.61-.26l0-.22c2,0,3.94.06,5.9,0s3.9-.28,5.85-.43Z" style="fill:#a72c27"/><path d="M129.85,111.21l2.76-.19,2.76-.21.18-2.14h.17l.49,2.62h-6.34Z" style="fill:#a72c27"/><path d="M109.33,135a6.48,6.48,0,0,1-6.75-3.47C104.9,134.27,106.41,134.74,109.33,135Z" style="fill:#a72c27"/><path d="M89,128.29a1.43,1.43,0,0,1-1.52,1,1.34,1.34,0,0,1-1.57-1A2.22,2.22,0,0,0,89,128.29Z" style="fill:#a72c27"/><path d="M117.21,133.52l1.52-3.46C118.85,131.37,118,132.44,117.21,133.52Z" style="fill:#a72c27"/><path d="M113.17,134l1.88-1.43.14.18-1.89,1.47Z" style="fill:#a72c27"/><path d="M81.36,158.2,81.2,156a18.56,18.56,0,0,1,2.69,0c.36.05.66.56,1,.86-.3.33-.56.85-.92.95A16.75,16.75,0,0,1,81.36,158.2Z" style="fill:#a72c27"/><path d="M110.73,160.39c.38-.69-.67-1.69.66-2a1.17,1.17,0,0,1,1.55.91C113,160.07,112.28,160.44,110.73,160.39Z" style="fill:#a72c27"/><path d="M110.46,154.77c1.29-.23,2,0,1.94.61s-.53.92-1.14.91C110.09,156.25,110.73,155.32,110.46,154.77Z" style="fill:#a72c27"/><path d="M97.19,159.76l1.1-2.36,1.24,2.16Z" style="fill:#a72c27"/><path d="M153.24,156.69l1.08-2.36,1.25,2.25Z" style="fill:#a72c27"/><path d="M127.92,69.9l-1.24-.27.5-1.56h.3Z"/><path d="M111.05,116c.27,2.6.62,5.19.76,7.79a23.06,23.06,0,0,1-.27,4.84,2,2,0,0,1-2,1.79,2.26,2.26,0,0,1-2.48-1.51,19.5,19.5,0,0,1-.76-4.24c-.23-3.49-.35-7-.44-10.48a5.06,5.06,0,0,1,.43-2,2.21,2.21,0,0,1,2.46-1.53,2.76,2.76,0,0,1,2.28,2.25c.14,1,.17,2.08.26,3.12Zm-1.61-4.2a1.53,1.53,0,0,0-2.18.37Z" style="fill:#fff"/><path d="M109.44,111.81l-2.18.37A1.53,1.53,0,0,1,109.44,111.81Z" style="fill:#a72c27"/><polygon points="110.58 63.87 141.77 68.24 140.85 74.98 109.43 70.36 110.58 63.87" style="fill:#a72c27"/></svg>