<svg xmlns="http://www.w3.org/2000/svg" xmlns:xlink="http://www.w3.org/1999/xlink" viewBox="0 0 250 250"><defs><linearGradient id="a" x1="78.4" y1="63.27" x2="162.45" y2="185.41" gradientUnits="userSpaceOnUse"><stop offset="0" stop-color="#6a8cff"/><stop offset="0.72"/><stop offset="1" stop-color="#5855ff"/></linearGradient><linearGradient id="b" x1="57.82" y1="133.9" x2="203.94" y2="113.88" gradientUnits="userSpaceOnUse"><stop offset="0" stop-color="#114c9f"/><stop offset="1" stop-color="#11499b"/></linearGradient></defs><title>Grocery</title><ellipse cx="122.09" cy="126.77" rx="79.32" ry="78.08" style="fill:url(#a)"/><ellipse cx="130.93" cy="123.88" rx="75.9" ry="78.21" style="fill:url(#b)"/><path d="M172.8,70.09l-.68-1.22c-8.29-8.9-25-13.21-25-13.21C105.32,46,84.44,68.87,84.44,68.87c-24.1,21.54-21,51.94-21,51.94l29.8-14.15Z" style="fill:#e42c49"/><path d="M90.82,176.81,201,119.1s4.63,15.62-5.75,37.84c0,0-15.57,25.35-32.61,31.31,0,0-29.48,11.61-54.36-1.45Z" style="fill:#e42c49"/><path d="M124.77,165.3c-2-.83-4.57-1.81-6.79-2.73a36.24,36.24,0,0,1,4-2.08c17.54-9.4,35.43-19.07,52.94-27.77.61-.32,1.31-.82,1.94-.18s.05,1.35-.1,2c-3.73,17.09-16.89,29.34-33.61,31.89a47.32,47.32,0,0,1-7.69.76,16.92,16.92,0,0,1-4.24-.4Z" style="fill:#ecf3f3"/><path d="M91.71,107.54C94.22,94.77,105,83.48,116.6,79.41c10.7-3.77,21.14-3.53,31.79,1.69-9.83,4.61-19,9-28.29,13.27S101.37,103.06,91.71,107.54Z" style="fill:#ecf3f3"/><path d="M199.1,120.22c2.82-1.09,2.85-1.09,3,2,1.3,19.7-3.82,37.41-17.37,52.27-11.4,12.49-25.87,19.09-42.86,20.56-10.33.89-20.28-.92-29.91-4.27A70.38,70.38,0,0,1,91.55,179c-.51-.4-2.18-.81-1.19-1.73.77-.72,1.93-2.13,3.58-.79a60.9,60.9,0,0,0,13.39,8.35c24.48,11,47.83,9.66,69.18-7.18,12.17-9.6,19-22.59,21.82-37.65a24.75,24.75,0,0,0,.74-6.21A110.94,110.94,0,0,0,199.1,120.22Z" style="fill:#ecf3f3"/><path d="M65.32,119.53c-1,.72-2.31,1.86-3.26,1.43-1.16-.52-.51-2.23-.5-3.39a67.69,67.69,0,0,1,9.46-35c11.2-18.65,27.87-29.23,49.79-31.38C139.48,49.34,156,55.05,170.94,66c.77.56,1.46,1.22,2.26,1.73.58.37,1.73.56,1.1,1.38a2.38,2.38,0,0,1-2.7.94,6,6,0,0,1-1.21-.93,74,74,0,0,0-22.94-12,66.14,66.14,0,0,0-24.3-3C103.7,55.53,88.31,64.19,77,79.72a60.12,60.12,0,0,0-11.64,33.36A32.15,32.15,0,0,0,65.32,119.53Z" style="fill:#ecf3f3"/><path d="M89,144.78c-1.76,5.33,1.67,8.82,3.62,12.73a1.15,1.15,0,0,0,1.56.41c1.3-.51,1.89.22,2.26,1.23.43,1.21-.83.77-1.25,1.16-1.89,1.75-4.54,2.11-6.63,3.49-.72.48-1.78.8-2.38.06s-.05-1.61.73-2.19c1-.72.79-1.59.31-2.52L74.73,135c-.57-1.11-1.37-1.73-2.65-1-1,.54-1.39.12-1.83-.75s-.22-1.4.7-1.82c2.6-1.19,5.16-2.45,7.75-3.67.65-.31,1.35-.78,1.77.31.28.73,1.18,1.5-.23,2.07a1.37,1.37,0,0,0-.79,2.12q3.2,6.27,6.42,12.53l.69-.09c0-2.18,0-4.37,0-6.55,0-2.6.43-5.19.13-7.8-.19-1.65-.9-2.69-2.75-2-1.34.53-1.44-.48-1.86-1.18-.55-.92.22-1.12.79-1.39,2.18-1,4.38-2.06,6.55-3.12.67-.33,1.27-.51,1.68.26s.9,1.19.18,2.11c-2.76,3.57-1.89,7.87-2.27,11.92-.06.65.7,1.07,1.17,1.51q6.44,5.92,12.92,11.81c.89.81,1.7,1.78,3.21,1.57,1-.13,1,.91,1.34,1.48s-.12.91-.61,1.16c-2.55,1.29-5.08,2.6-7.65,3.84-.4.2-1,.79-1.37-.21-.26-.77-1.05-1.49.13-2.2s1-1.66.11-2.49C95.26,150.61,92.23,147.8,89,144.78Z" style="fill:#ecf3f3"/><path d="M138.65,119a7.76,7.76,0,0,1,5.48,3.25c1.32,1.64,2.46,3.42,3.74,5.09.5.65.94,1.91,1.85,1.5,1.11-.5-.12-1.47-.13-2.26a4.17,4.17,0,0,0-.4-1.21c-.11-.3-.48-.65.16-.8.38-.08.7-.05.88.39.69,1.69,1.76,3.26,1.66,5.21a3.54,3.54,0,0,1-2,3.35,3.69,3.69,0,0,1-3.93-.54c-2.07-1.55-3.09-3.82-4.35-5.93-.89-1.49-1.79-3-2.79-4.41a3.07,3.07,0,0,0-2.77-1.5c-2,.12-2.58,1-1.69,2.77,1.52,3,3.11,5.91,4.62,8.88.6,1.19,1.3,2,2.73,1.16,1-.55,1.3.1,1.69.75s.28,1.29-.58,1.71c-2.36,1.15-4.68,2.4-7,3.55-.63.31-1.38,1-2-.2-.5-.92-.63-1.56.5-2.07s1-1.29.53-2.18q-6.08-11.67-12.14-23.35c-.55-1.06-1.28-1.57-2.48-.95s-1.36-.41-1.74-1c-.48-.81.11-1.16.75-1.46,3.58-1.68,7.14-3.42,10.76-5a5.62,5.62,0,0,1,4.5,0C140.09,106,142.39,113.92,138.65,119Zm-2.57-4a12,12,0,0,0-3.85-7.42c-1.54-1.32-3.15-.84-4.64.18s-.49,2.19,0,3.22c1.26,2.52,2.59,5,3.89,7.5.34.64.64,1.38,1.63.84C134.74,118.39,136,117.29,136.08,114.95Z" style="fill:#ecf3f3"/><path d="M165.68,109.52c-2.29-4.33-4.45-8.51-6.7-12.64-.73-1.35-1.64-2.61-3.58-2.35-1.1.15-1.26-.89-1.54-1.55s.5-.89,1-1.13c1.38-.68,2.77-1.34,4.17-2,.48-.22,1-.79,1.5,0,.31.54,1.05,1.19.54,1.74-1.88,2-.7,3.83.18,5.59,2.84,5.63,5.8,11.21,8.73,16.8.94,1.8,1.93,3.58,2.83,5.4.28.56,1.11,1.13.29,1.89s-1.48.13-2.1-.36q-6-4.72-12.07-9.47l-8.44-6.64a1.26,1.26,0,0,0-1.41-.39c2.51,4.78,5,9.54,7.49,14.27a38.53,38.53,0,0,0,2.19,3.46c.64.94,1.46,1.72,2.73,1.44s1.5.74,1.82,1.44c.48,1.06-.64,1.09-1.2,1.4-1.35.74-2.72,1.43-4.1,2.12-.49.24-1.12.78-1.48,0-.28-.64-1.25-1.28-.33-2.1,1.41-1.25.94-2.69.28-4-3.49-6.83-7-13.63-10.6-20.42a2.89,2.89,0,0,0-2.93-1.38c-1.29.07-1.43-.83-1.74-1.57-.47-1.14.7-1.09,1.23-1.36,4.52-2.28,4.53-2.26,8.53.88L164.24,109A1.49,1.49,0,0,0,165.68,109.52Z" style="fill:#ecf3f3"/><path d="M111.55,140.75a16.61,16.61,0,0,0,1.59,4.44,2.56,2.56,0,0,0,2.9,1.49c1.34-.3,1.39.8,1.76,1.48.48.89-.4,1.1-.93,1.39-1.55.82-3.12,1.62-4.71,2.37-.47.22-1,.88-1.55.24s-1.1-1.29-.79-1.92c1.76-3.59.18-7-.59-10.36-1.76-7.75-3.67-15.47-5.58-23.18-.17-.7-.46-1.34.4-1.57a1.68,1.68,0,0,1,2.1.44c5.76,6.73,11.62,13.38,17.45,20,1,1.1,1.92,2.2,2.9,3.27.69.76,1.4,1.49,2.62,1.28s1.24.83,1.57,1.49-.36,1-.85,1.23q-3.31,1.73-6.64,3.43c-.44.22-1,.62-1.25-.14s-1.35-1.29-.32-2a1.38,1.38,0,0,0,.38-2.22c-1.19-1.56-2.16-3.53-3.75-4.48-2-1.19-3.56,1.23-5.41,1.81C112.08,139.47,111.2,139.79,111.55,140.75ZM107.61,126c.09-.12.33-.23,0-.35l0,.33c1.11,2.29,1.36,4.82,2,7.24,1,4,1,3.94,4.73,1.91,1-.52,1.37-.91.49-1.89-1.93-2.13-3.76-4.35-5.67-6.5C108.79,126.27,108.45,125.53,107.61,126Z" style="fill:#ecf3f3"/><path d="M176.86,94.64c5.49-1.09,10.49,3.26,11.85,7.88.45,1.54,1,3,1.51,4.58a5.74,5.74,0,0,1-6.76,7.43c-1.76-.41-2.5-.35-2.3,1.59,0,.37.2,1-.42,1.07s-.74-.38-.94-.75c-1.63-3.1-3.26-6.2-4.86-9.31-.23-.45-.91-1-.19-1.51s1.26.28,1.55.76c1.4,2.29,3.53,3.79,5.7,5.26a4,4,0,0,0,4.9-.13c1.44-1.09,1.41-2.65.85-4.31-1.35-4-2.46-4.78-6.73-4.37-7.79.75-15.23-7.38-13.76-15a5,5,0,0,1,6.48-4.2c1.29.31,1.78.15,1.77-1.16,0-.42.06-.93.61-1s.75.48.92.79c1.5,2.7,2.94,5.44,4.38,8.17.21.4.32.92-.1,1.17s-.82-.17-1.11-.49a18.33,18.33,0,0,0-5.32-4.48c-1.53-.73-3.13-1.2-4.5.16a3.63,3.63,0,0,0-.46,4.46C171.59,94.32,171.76,95.16,176.86,94.64Z" style="fill:#ecf3f3"/><path d="M79.93,92.61a14.39,14.39,0,0,1,8.64,3.61c.84.74,1.48,1.47,2.82.94.89-.36,1.56.43,1.78,1.22s-.69.77-1.16.92c-.81.27-1,.68-1.12,1.55-.46,4-2.44,5.62-6.49,5.32a14.68,14.68,0,0,1-9-3.64c-2.14-1.92-2.8-4.31-1.88-6.62S76.22,92.58,79.93,92.61ZM86.74,98a11.78,11.78,0,0,0-7.21-2.78,3,3,0,0,0-3.09,1.65,3,3,0,0,0,.75,3.6,10.46,10.46,0,0,0,7.79,3,2.74,2.74,0,0,0,2.66-1.61c.23-.56.59-1.34-.64-1.28a1.65,1.65,0,0,1-1.66-1.19C85,98.34,86.43,98.81,86.74,98Z" style="fill:#ecf3f3"/><path d="M152.54,180.47c0,4.59-2,6.88-5.77,6.79a4.83,4.83,0,0,1-4.06-2.27,14.44,14.44,0,0,1-2.32-11.36,4.93,4.93,0,0,1,4.24-4.15,5.22,5.22,0,0,1,5.5,2.35A14.88,14.88,0,0,1,152.54,180.47ZM142.72,177a10.32,10.32,0,0,0,1.85,5.92,2.83,2.83,0,0,0,3,1.35,2.72,2.72,0,0,0,2.17-2.2,9.48,9.48,0,0,0-1.73-8.39c-1.64-2.09-3.91-1.66-5,.76A7,7,0,0,0,142.72,177Z" style="fill:#ecf3f3"/><path d="M169.46,176.43a4.56,4.56,0,0,1-2.94,4.05,5,5,0,0,1-5.86-1.1,15.49,15.49,0,0,1-4.73-9.07,5.32,5.32,0,0,1,3.08-5.9c2.09-1,4.18-.46,6.17,1.46A15.71,15.71,0,0,1,169.46,176.43Zm-10.87-6.27a10.28,10.28,0,0,0,3.49,6.94c.91.79,1.93,1.34,3.19.72a2.84,2.84,0,0,0,1.55-2.87,10.22,10.22,0,0,0-3.29-7.07,2.76,2.76,0,0,0-3.16-.91A2.84,2.84,0,0,0,158.59,170.17Z" style="fill:#ecf3f3"/><path d="M183,164.75c0,1.37-3.47,6.06-4.51,6.4-.71.23-1.07-.25-1.46-.68-3-3.23-6-6.48-9.1-9.67-.78-.81-.85-1.42,0-2.16a9,9,0,0,0,.86-1c3.57-4.14,5.8-4.24,9.73-.32C180.68,159.49,182.82,161.7,183,164.75Zm-2.81-.71c0-2.08-3.84-6.4-6-6.62-1.67-.17-2.43,1.15-3.25,2.22s.48,1.34.92,1.84c1.63,1.84,3.36,3.59,5.06,5.36.36.37.67,1.17,1.35.45C179.15,166.36,180.27,165.53,180.18,164Z" style="fill:#ecf3f3"/><path d="M96.52,67.07c.31.2.76.45,1.15.75,3.72,2.91,7.45,5.82,11.14,8.77.45.36,1.59.67.7,1.61-.7.74-1.43,1.11-2.44.23s-1.94-2.38-3.84-.88c-1.43,1.13-2,2.06-1,3.68a3.07,3.07,0,0,1,.51,1.41c0,.76-.62,1.15-1.22,1.37-.81.29-1-.5-1.17-1q-3-6.85-5.85-13.73C94.07,68.29,95.22,67,96.52,67.07Zm1,3.55c.84,1.93,1.43,3.31,2,4.68.17.37.31,1,.88.71a5.11,5.11,0,0,0,1.61-1.1c.44-.46-.11-.75-.43-1C100.44,72.94,99.25,72,97.52,70.62Z" style="fill:#ecf3f3"/><path d="M93.14,92.27a6.14,6.14,0,0,1-3.67-1.32c-2.91-2.09-5.77-4.23-8.65-6.35-.62-.46-1.18-.88-.54-1.75s1.24-.79,2-.2c2.62,2,5.24,4,7.91,5.89,1.26.91,2.65,1.81,4.06.17s.42-3-.85-4.09c-2.48-2-5.1-3.9-7.64-5.86-.72-.55-1.77-1-.81-2.21s1.63-.2,2.32.32c2.46,1.84,4.92,3.67,7.34,5.55,2.83,2.19,3.77,4.33,3,6.62A4.76,4.76,0,0,1,93.14,92.27Z" style="fill:#ecf3f3"/><path d="M192.2,151.13c0,3.52-2.85,5.86-5.87,4.74-.7-.26-1.66-.48-1.34-1.61s.77-1.42,1.93-1c1.36.5,2-.53,2.47-1.55a2,2,0,0,0-.92-2.79c-1.23-.75-1.86.11-2.57.87-3.25,3.49-5.54,3.54-8.23.23a4.77,4.77,0,0,1,0-5.65,3.69,3.69,0,0,1,4.58-1.56c.58.21,1.4.37,1.22,1.26s-.52,1.51-1.61,1.35a2,2,0,0,0-2.5,2,1.82,1.82,0,0,0,1.18,1.89,1.49,1.49,0,0,0,1.94-.48c.24-.27.46-.56.68-.85,1.19-1.6,2.53-2.89,4.78-2.14A5.77,5.77,0,0,1,192.2,151.13Z" style="fill:#ecf3f3"/><path d="M125.4,184.47c.39-4.39.83-8.78,1.15-13.17.1-1.29.64-1.6,1.83-1.42,1.81.28,3.64.48,5.47.67,1.14.12,1.7.56,1.59,1.82s-.94,1.42-2,1.26a14.57,14.57,0,0,1-2.18-.32c-2.07-.65-2.55.38-2.59,2.13,0,1,.09,1.66,1.36,1.66,1,0,2,.31,3.06.34,1.41,0,1.43.89,1.39,1.91-.05,1.36-.86,1.15-1.83,1-4.29-.47-4.29-.44-4.58,3.75a1.42,1.42,0,0,1,0,.43c-.39.93.41,2.56-1.49,2.59C125.44,187.19,125.29,186.76,125.4,184.47Z" style="fill:#ecf3f3"/><path d="M146.6,66.95c1.26-1.71,2.17-2.84,2.95-4a1.74,1.74,0,0,1,2.8-.43c1.08.81-.17,1.33-.53,1.87a18.93,18.93,0,0,1-2.06,2.53,13,13,0,0,0-3.61,7.68c-.08.69-.2,1.48-1.37,1.15-1-.28-1.36-.79-1-1.74,1.6-4.13.1-8.1-.59-12.12-.13-.78-1-2.08.38-2.32,1.17-.2,2.13.59,2.2,2.11S146.25,64.74,146.6,66.95Z" style="fill:#ecf3f3"/><path d="M107.53,61.15c.85-.06.95.77,1.23,1.39,1.39,3.1,2.85,6.16,4.09,9.32.52,1.32,1.16,1.43,2.28,1,.81-.33,1.66-.57,2.48-.89,1.21-.48,1.73.14,2.12,1.16s-.31,1.38-1.12,1.65c-7.74,2.55-5.3,3.39-8.68-3.63-1.28-2.67-2.35-5.43-3.58-8.12C105.8,61.81,106.37,61.42,107.53,61.15Z" style="fill:#ecf3f3"/><path d="M135.22,60.55c-1.32-.2-1.66,0-1.47,1.58.4,3.28.31,6.62.42,9.94,0,.74-.14,1.28-1,1.3S132,73,132,72.18c-.15-3.39-.4-6.77-.47-10.16,0-1.37-.45-2-1.87-1.92-1.11.05-2.09-.14-2-1.6s1.25-1.08,2.11-1c1.9.13,3.8.37,5.7.5,1,.07,1.92,0,1.86,1.47C137.21,61,136.08,60.5,135.22,60.55Z" style="fill:#ecf3f3"/><path d="M120.9,58c.7-.09.93.27,1.07.85,1,4.43,2.11,8.86,3.16,13.3.16.67.21,1.31-.74,1.49a1.1,1.1,0,0,1-1.47-.9q-1.62-6.75-3.25-13.5C119.43,58.14,120.1,58,120.9,58Z" style="fill:#ecf3f3"/><path d="M107.64,126l0-.33c.32.12.09.23,0,.35Z" style="fill:#144a96"/></svg>