<svg xmlns="http://www.w3.org/2000/svg" viewBox="0 0 250 250"><defs><style>.a{fill:#c10a27;stroke:#fff;stroke-width:6.59px;}.b{fill:#c00a26;}.c{fill:#f8dcc2;}.d{fill:#1d1d1b;}.e{fill:#fff;}.f{fill:#fff4e9;}.g{fill:#c30226;}.h{fill:#99505a;}.i{fill:#fefdfe;}.j{fill:#b41735;}</style></defs><title>Fast Food</title><polygon class="a" points="16.09 90.09 89.69 90.09 79.74 161.48 25.46 161.45 16.09 90.09"/><path class="b" d="M64.79,92.48A19,19,0,0,1,68.22,100a1.64,1.64,0,0,0,.66,1.06c.08,0,.23,0,.36.43.57,1.72,0,4.31-.33,5.27a1.29,1.29,0,0,0,.38,1.57c.8.71,1.32,2,1.21,4a23.9,23.9,0,0,1-1.6,6.44,7,7,0,0,0-.36,3.72c.06.85-.8,1.22-.94,1.29a1,1,0,0,0-.47,1,23.41,23.41,0,0,1-.32,4.06c-.08.43,0,.64.08.72l.63.53a7.43,7.43,0,0,1,.82.83c.53.66.79,1,1.18,1.13,1.57.55,4.07,1.17,5.4,1.83.36.18.51.56.91.59l7.55.71h0l6.28-45-27.7,0,2.79,2.16"/><path class="b" d="M33,90.68c-.82.3-1.44.56-1.6.6s-.75.3-.77.66a2,2,0,0,0,.2.94,2.14,2.14,0,0,1,0,1.85,15.3,15.3,0,0,1-3.26,4.14c-.43.35-.9.58-1.17.83a1.6,1.6,0,0,0-.18,1.86c.42.89,1.2,1.66,1.58,2.46a6.84,6.84,0,0,1,.31,3.87,9.53,9.53,0,0,1-.5,2.24,1.52,1.52,0,0,0,0,1.54,7.14,7.14,0,0,0,1.74,1.77c.28.22.42.41.21.8a4.56,4.56,0,0,0,.07,2.95,17,17,0,0,0,1.58,3.26,17.35,17.35,0,0,0,2,2.58,2.38,2.38,0,0,1,.61,1.83,3,3,0,0,0,1.42,2.9c.74.45.81.34,1.08.56a1.46,1.46,0,0,1,.59.93,15.2,15.2,0,0,0,2.22,4.11,6.81,6.81,0,0,1,.57.79c0,.06.11.14,0,.49A45,45,0,0,0,38.39,139a1.48,1.48,0,0,1-.69,1.1c-.47.23-1.53.81-1.91,1a2.82,2.82,0,0,0-1,.88c-.2.25-.34.39-.46.54s-.11.14-.48.33a66,66,0,0,0-10.15,4.93L16.09,90.09l20.4,0-3.5.61"/><path class="b" d="M80,150.2c-1.48-3.58-5.16-13.23-5.7-14.4a2.13,2.13,0,0,0-1.7-.87c-.17,0-.51,0-.33.55s.41,1.38,1.25,4.12A95.56,95.56,0,0,1,75.89,150c.11.74.25.84.76.85h.49a6.49,6.49,0,0,1,1.26.16c.39.11.17.4-.34.42-.24,0-1.06.12-1.7.2h0s1.39,5.88,2.29,9.2l.17.66h.94L81,152.66l-1-2.46"/><path class="b" d="M64.78,153.21s0-.07,0-.07a145.75,145.75,0,0,0-18.79,4c-2.49.77-7.16,2.45-8.53,3-1.17.46-1.18-.62-1.23-1.38a54.67,54.67,0,0,1,.22-8.16c.47-4.87.78-6.37.85-6.73s-.12-.27-.2-.23-.22.12-.34.18c-.41.18-.58.71-.89,1.88-.43,1.6-2,8.68-2.22,10.58-.22,1.51-.55,4.18-.68,5.24H65.83l-.05-.36c-.15-1-.9-7.14-1-7.91"/><path class="b" d="M69.61,153.08c0-.21-.08-.4-.12-.58l-1.83.23-.85.12L68.19,161l.08.44h3l-.31-1.85c-.63-2.93-1-5.1-1.33-6.55"/><path class="b" d="M76.1,160.72c0-.13-.06-.29-.1-.45-.55-2.45-1.83-8.36-1.83-8.36l-1.85.23-.72.09S73.15,159,73.53,161l.09.48h2.65l-.12-.57,0-.18"/><path class="c" d="M39.2,113c.26-.2.55-.39.73-.54s.19-.55-.26-.48l-.79.17-.64.19a1.62,1.62,0,0,0-.95,1.18c-.09.54.49.7.84.41s.67-.6,1.06-.92"/><path class="c" d="M43,111.87A5.74,5.74,0,0,0,41,112.95c-.28.24-.46.36-.7.54s-.57.32-.66.43c-.35.37.16.44.3.42a2.49,2.49,0,0,0,1-.36,8.85,8.85,0,0,1,1.75-1,3.56,3.56,0,0,1,1.59-.21c.41,0,.27-.36-.08-.64a1.77,1.77,0,0,0-1.23-.3"/><path class="c" d="M47.23,119.35a1.63,1.63,0,0,0,.21,1.82c.55.61,1.07.33,1.08.18a1.14,1.14,0,0,0-.18-.59,1.84,1.84,0,0,1-.11-1.49c.07-.2-.64-.49-1,.08"/><path class="c" d="M59.11,110.73a2.28,2.28,0,0,0-1.34-.48,2.19,2.19,0,0,0-.55.08,3,3,0,0,0-1.22.94c-.08.12,0,.41.29.29s.59-.21.95-.32a1.93,1.93,0,0,1,1.49.17,5.66,5.66,0,0,0,1.2.6,1.45,1.45,0,0,0,.86.07c.38-.27,0-.33-.24-.4a10.54,10.54,0,0,1-1.44-.94"/><path class="c" d="M61.85,110.54a.9.9,0,0,0-.45-.94,2.79,2.79,0,0,0-1.93-.15c-.26,0-.32.27-.14.33a5.25,5.25,0,0,1,.95.54,3.78,3.78,0,0,0,1.1.53c.2,0,.35.09.47-.31"/><path class="c" d="M46.6,131.2c0,.16-.19.6-.27.94s-.35.38-.69,0c-1.37-1.42-2.38-5.71-2.43-6.23a.58.58,0,0,0-.76-.54,3.38,3.38,0,0,0-.61.26,2.65,2.65,0,0,0-.6,3.06c2.2,5.41,5.57,6.41,6.83,6.19.48-.07.58-.43.27-.94a27.33,27.33,0,0,1-1.21-2.79c-.18-.47-.52-.1-.54,0"/><path class="c" d="M73.68,150.6v0s0-.07,0-.12,0-.09,0-.13v0a1,1,0,0,0,0-.14s0,0,0,0,0-.26,0-.43-.09-.61-.14-.9c0,0,0-.06,0-.09l-.11-.75,0-.26c0-.17-.06-.35-.08-.52s0-.24-.06-.35l-.06-.4c0-.13,0-.25-.06-.38s0-.22-.05-.34,0-.25-.06-.37l-.06-.35,0-.3-.08-.46,0-.14-.1-.6c-.19-1.09-.36-2-.52-2.84l0-.08c-.07-.37-.14-.72-.2-1a.89.89,0,0,1,0-.12c0-.11,0-.22-.07-.33s0-.09,0-.14,0-.22-.07-.33l0-.18,0-.18c-.21-1-.37-1.63-.47-2.09-.31-1.4-.89-1.57-1-1.62l-.06,0H69.9l0,0,0,0,0,.05h0l0,.07v0a1.41,1.41,0,0,0,0,.15c0,.22,0,.46,0,.74h0c.39,1.48.72,3,1,4.3a1.58,1.58,0,0,0,0,.34c.11.59.34,2.47.78,6.74.1,1.41.2,2.89.25,4.14l.83-.07L73,151l.16,0h0l.13,0h0l.12,0h0l.08,0h0l.07,0h0a.25.25,0,0,0,.05-.07v0a.12.12,0,0,0,0-.07"/><path class="c" d="M37.82,110.41l.17,0,.23,0,.33-.06.18,0,.2,0,.17,0,.19,0,.3,0,.07,0a21.17,21.17,0,0,0,0-2.91,27.06,27.06,0,0,1,1.62-7.76,15.51,15.51,0,0,1,1-1.8.42.42,0,0,0,.05-.14s0-.24,0-.31h0l-.24.07-.08,0-.29.11,0,0-.24.11-.1,0-.2.12-.08.06a2.71,2.71,0,0,0-.28.21l0,0-.25.23-.08.09-.2.22-.08.09c-.09.11-.17.22-.26.35a14.14,14.14,0,0,0-2.2,7.81c0,.37,0,1-.27,1.28a5.1,5.1,0,0,0-.62.56,1.1,1.1,0,0,0-.18.56,4.51,4.51,0,0,0,.1,1,.4.4,0,0,0,.52.36l.43-.08.26-.05"/><path class="c" d="M62.48,123.71a2.1,2.1,0,0,0,.59-1,1.72,1.72,0,0,0-.23-1.35,3.4,3.4,0,0,0-1.13-1.07c-.51-.34-1.64-1.34-1.76-1.43s-.64-.6-.77-.7a5,5,0,0,0-.92-.58,2.82,2.82,0,0,0-2.42-.14,3.79,3.79,0,0,0-.43.36c-.19.17,0,.52,0,.64h0s0,0,0,0a.17.17,0,0,1,0-.06h0v-.07l0,0s0,0,0,0l0,0,0,0,0,0,0,0H56a4.19,4.19,0,0,1,2.32,1.15,15.92,15.92,0,0,0,1.92,1.9,7.81,7.81,0,0,0,1.46.67c.32.21.55.31.74,1.48,0,.12,0,.25.05.37h0"/><path class="c" d="M47,115.93a1.62,1.62,0,0,1,0,.19,2.79,2.79,0,0,1-.62,1.49,3.94,3.94,0,0,1-1.37.92,5.6,5.6,0,0,1-1,.3l-.26,0-.17,0-.23,0-.05,0a.13.13,0,0,0,0,.08h0a.24.24,0,0,0,0,.08.66.66,0,0,0,.12.23.59.59,0,0,0,.63.2,10.7,10.7,0,0,0,1.12-.31,4.27,4.27,0,0,0,.83-.35l.27-.21h0c.22-.2.42-.35.48-.43a4,4,0,0,0,1.16-2.67c0-.22-.06-.37-.18-.22a3,3,0,0,1-.44.43.33.33,0,0,1-.13.08h0a.21.21,0,0,1-.09,0h0"/><path class="c" d="M39.8,121.73l.29.31,0,.05.05,0,.3.29h0l.34.3.24.18h0l.15.08.12.05.16,0,.12,0h.28l.15,0h.14l.09,0,.17-.07.07,0,.18-.12.06,0a1.85,1.85,0,0,0,.23-.21c.11-.12.24-.24.36-.35l.06-.06.36-.3h0a.53.53,0,0,1-.62,0l-.5-.61c-.17-.21-.35-.45-.52-.68s-.2-.3-.26-.41a1.67,1.67,0,0,1-.19-.41v0a3,3,0,0,1-.09-.35,4.89,4.89,0,0,1-1-.24.32.32,0,0,1,.07.09v0a.28.28,0,0,1,0,.08.11.11,0,0,0,0,0,.42.42,0,0,1,0,.07.11.11,0,0,1,0,0,.59.59,0,0,1,0,.08s0,0,0,0a.42.42,0,0,0,0,.07v0a.38.38,0,0,1,0,.07.75.75,0,0,1,0,.1.41.41,0,0,1-.53.29A4.27,4.27,0,0,1,39,119.7c-.15-.09-.39,0-.25.33.05.13.11.26.17.38l0,.1.16.28,0,.08.2.3,0,0c.11.15.22.29.34.43l.08.09"/><path class="c" d="M60.17,116.4a.92.92,0,0,0-.43.22.09.09,0,0,0,0,0,.1.1,0,0,0,0,0v0l0,0v0l0,0,0,0,0,0h0l.06.06.27.19a.37.37,0,0,0,.2,0,3.07,3.07,0,0,0,1-.32h-.21l-.07,0h0a.28.28,0,0,1-.07-.08,3.51,3.51,0,0,1-.19-.43.31.31,0,0,1,0-.11v0a.35.35,0,0,1,0-.1h0a2.22,2.22,0,0,1-.7.34"/><path class="c" d="M50.49,120.53a7.11,7.11,0,0,1-.31-.68,2,2,0,0,1-.12-.59,2.31,2.31,0,0,1-.08-.81,14,14,0,0,1,.25-1.47,10,10,0,0,0-.07-1.86c0-.47-.05-1.64,0-2.81h0l-.18.07h0l-.17.08h0l-.12.08,0,0a.32.32,0,0,0-.1.09,3,3,0,0,0-.4,1.64c.07.61.16,1.51.17,2,0,1.05-.5,2.52-.29,3.15l.06.16,0,0,.09.16,0,0c0,.07.08.13.13.2l0,.05.14.18,0,0,.22.22,0,0,.22.18.07.05.32.2h0a2.35,2.35,0,0,0,.34.16l0,0h0a.45.45,0,0,1-.14-.27,4.12,4.12,0,0,0-.17-.43"/><path class="c" d="M53.69,146.29l-.07,0-.05,0h0l-.1.06,0,0a2.05,2.05,0,0,0-.27.18l0,0a3.8,3.8,0,0,0-.33.27l0,0-.18.17v0l-.21.21-.07.06-.17.18-.06.06,0,0,0,0h0a3,3,0,0,1,.67-.17c.06,0-.21.3-.38.6a42.31,42.31,0,0,1-2,4.75,5.26,5.26,0,0,0-.35.83h0l.2,0h.09l.1,0,.65-.11.07,0h0l.07,0h0l0,0h0l.06,0h0l.07-.06h0l.06-.06h0l.07-.08h0l.06-.07h0l.06-.09h0l.06-.09,0,0,0-.08,0-.08,0,0,.05-.1.06-.12v0h0l.13-.27h0s.05-.11.08-.17a1.46,1.46,0,0,0,.07-.18h0l0-.07.19-.43a23.7,23.7,0,0,0,1.56-4.4c.1-.52,0-.74-.32-.58"/><path class="c" d="M60.16,148.67a10.07,10.07,0,0,0,2.21,1.16,1.45,1.45,0,0,0,1.51-.56h0a.14.14,0,0,1-.09,0h-.12l-.09,0h0l-.08,0c-.15-.12-.31-.27-1-.73a22.44,22.44,0,0,0-4.94-2.84c-.23-.08-.47.09-.31.33s.29.43.42.65l0,.06c.85.67,1.94,1.55,2.44,2"/><path class="c" d="M45.85,143.36c-1.15.65-.47,2-.36,2.93s.5,2.16,1.53,2.29a16.43,16.43,0,0,0,3.51-.59l.33-.58.08-.15c.2-.37-.12-.31-.26-.31s-.52.1-1.65.32-1.65.07-2-.22-.29-.89-.35-1.57-.15-1-.2-1.54c0-.09,0-.17,0-.25s0-.11,0-.16,0,0,0,0a.51.51,0,0,1,0-.15v0a.46.46,0,0,1,.06-.16h0a2.67,2.67,0,0,0-.66.2"/><path class="c" d="M43.94,140.89c.1.1,1.11.83,1.19.88s1.16.65,1.83,1h0l.21-.1a9.77,9.77,0,0,1,2.12-.47c.3-.07.15-.29.06-.39a8.47,8.47,0,0,0-1.23-.57,20.09,20.09,0,0,1-5.57-3.57c-.23-.24-.44-.31-.69.4,0,.05,0,.12-.05.19s0,.05,0,.07,0,.11,0,.17,0,.05,0,.08,0,.17,0,.26,0,.06,0,.09,0,.13,0,.2,0,0,0,.07h0a19.54,19.54,0,0,0,1.69,1.28,4.78,4.78,0,0,1,.52.38"/><path class="c" d="M40.39,147.47c.32.59,1.24,1.84,1.28,1.91s.24.28.48.54l.49.55.6.62c.11.1.25.32.34.41.33.3,1.52,1.33,1.63,1.41a4.51,4.51,0,0,0,.79.48,1.63,1.63,0,0,0,1.63-.59.46.46,0,0,0,.06-.48.1.1,0,0,1,0,0v0s0,0,0,0v0l0,0,0,0h0l0,0h-.18l-.06,0,0,0-.11-.06a17.26,17.26,0,0,1-3.15-3.1,40.88,40.88,0,0,1-3.65-6.12c-.11-.21-.36-.15-.45-.13a5.8,5.8,0,0,0-.55.32c-.19.12-.23.42-.33,1.45h0c.26.54,1,2.1,1.32,2.61"/><path class="c" d="M32.09,148.81c.17-.56,0-1.17-.32-1.28l-.14,0h0l-1.07-.25c-.69,1.1-1.41,4.87-1.79,6.63-.28.86-1,4-1.66,7.59h1.85c.1-.62.22-1.25.33-1.87.49-2.57,2.64-10.22,2.81-10.78"/><path class="d" d="M74.17,151.91l2.17-.28h0c.65-.08,1.46-.18,1.7-.2.51,0,.73-.31.34-.42a6.49,6.49,0,0,0-1.26-.16h-.49c-.5,0-.65-.11-.76-.85a95.56,95.56,0,0,0-2.39-10.39c-.84-2.74-1-3.52-1.25-4.12s.17-.55.33-.55a2.13,2.13,0,0,1,1.7.87c.54,1.16,4.22,10.81,5.7,14.4l1,2.46.58-4.19-2.11-4.68c-1.09-2.42-2.13-4.69-2.92-6.37a5.45,5.45,0,0,1-.25-.62.45.45,0,0,1,0-.14c0-.3.41-.35.6-.33.51.05,3.63.26,6.33.46l.21-1.51h0l-7.55-.71c-.4,0-.54-.41-.91-.59-1.33-.66-3.83-1.28-5.4-1.83-.39-.14-.65-.47-1.18-1.13a7.43,7.43,0,0,0-.82-.83l-.63-.53c-.1-.08-.16-.3-.08-.72a23.41,23.41,0,0,0,.32-4.06,1,1,0,0,1,.47-1c.13-.07,1-.44.94-1.29a7,7,0,0,1,.36-3.72,23.9,23.9,0,0,0,1.6-6.44c.11-2-.4-3.34-1.21-4a1.29,1.29,0,0,1-.38-1.57c.32-1,.91-3.56.33-5.27-.13-.38-.28-.39-.36-.43a1.64,1.64,0,0,1-.66-1.06,19,19,0,0,0-3.43-7.56,16.21,16.21,0,0,0-3.37-3.25c-.4-.25-1.09-.74-1.92-1.18a21.11,21.11,0,0,0-4-1.72,23.6,23.6,0,0,0-4.44-1,24.32,24.32,0,0,0-3.17-.14,24.85,24.85,0,0,0-2.84.35,20.8,20.8,0,0,0-2.83.81c-.47.17-1.11.39-1.9.72s-1.52.67-2.3,1.06c-.25.12-1.33.75-1.56.89l-1,.55A21.54,21.54,0,0,1,33,90.68c-.82.3-1.44.56-1.6.6s-.75.3-.77.66a2,2,0,0,0,.2.94,2.14,2.14,0,0,1,0,1.85,15.3,15.3,0,0,1-3.26,4.14c-.43.35-.9.58-1.17.83a1.6,1.6,0,0,0-.18,1.86c.42.89,1.2,1.66,1.58,2.46a6.84,6.84,0,0,1,.31,3.87,9.53,9.53,0,0,1-.5,2.24,1.52,1.52,0,0,0,0,1.54,7.14,7.14,0,0,0,1.74,1.77c.28.22.42.41.21.8a4.56,4.56,0,0,0,.07,2.95,17,17,0,0,0,1.58,3.26,17.35,17.35,0,0,0,2,2.58,2.38,2.38,0,0,1,.61,1.83,3,3,0,0,0,1.42,2.9c.74.45.81.34,1.08.56a1.48,1.48,0,0,1,.58.93,15.2,15.2,0,0,0,2.22,4.11,6.81,6.81,0,0,1,.57.79c0,.06.11.14,0,.49A45,45,0,0,0,38.39,139a1.48,1.48,0,0,1-.69,1.1c-.47.23-1.53.81-1.91,1a2.82,2.82,0,0,0-1,.88c-.2.25-.34.39-.46.54s-.11.14-.48.33a66.19,66.19,0,0,0-10.15,4.93l.23,1.79,4.53-2.29a2.61,2.61,0,0,1,1.11-.24,1.94,1.94,0,0,1,.5,0l.5.12,1.08.25h0l.14,0c.32.1.5.71.32,1.28s-2.32,8.21-2.81,10.78c-.12.62-.23,1.25-.33,1.87h4c.13-1.06.46-3.73.68-5.24.27-1.9,1.78-9,2.22-10.58.31-1.17.47-1.71.89-1.88.12-.06.26-.14.34-.18s.26-.09.2.23-.38,1.86-.85,6.73a54.67,54.67,0,0,0-.22,8.16c.05.76.07,1.84,1.23,1.38,1.37-.55,6-2.22,8.53-3a145.75,145.75,0,0,1,18.79-4l2-.29L68.19,161l.07.44h0l-.08-.44-1.39-8.18.85-.12,1.83-.23,2.11-.27.72-.09,1.85-.23h0s1.28,5.91,1.83,8.36c0,.16.08.32.1.45l0,.18.12.57h0l-.13-.57c-.41-1.8-2-9-2-9M32.88,112.63c-.2.09-.37.11-.51-.16a9.47,9.47,0,0,1-.67-2.55,35,35,0,0,1-.2-4.21,3.57,3.57,0,0,0-.62-2.49,13.5,13.5,0,0,1-.83-1.19c-.14-.24,0-.41.21-.6s.38,0,.58-.07A8.08,8.08,0,0,0,33.53,100a33.8,33.8,0,0,1,3.58-2.81,6.27,6.27,0,0,1,2.74-1c.22,0,.54.09.18.37a7.87,7.87,0,0,0-2.93,2.78A11.93,11.93,0,0,0,35.84,102a4.11,4.11,0,0,1-1,1.19,3,3,0,0,0-.78,1.35,19.27,19.27,0,0,0-.4,6.62c0,.42.22,1-.17,1.17C33.29,112.45,33.08,112.55,32.88,112.63Zm1.69,4.83a7.23,7.23,0,0,1-1.47-2.59c0-.13-.1-.47.13-.57s.43-.22.56-.28.45-.14.49.31a7.62,7.62,0,0,0,.61,2.38,2.24,2.24,0,0,1,.14.42A.31.31,0,0,1,34.57,117.46Zm1.73-4.35c-.06,0-.65.07-1,.13s-.4.11-.42-.08-.09-.49-.11-.57a.15.15,0,0,1,.12-.18c.23-.05,1.13-.2,1.21-.2s.18,0,.21.2.08.38.09.45S36.48,113.08,36.31,113.12Zm.31-2.93a4.51,4.51,0,0,1-.1-1,1.1,1.1,0,0,1,.18-.56,5.1,5.1,0,0,1,.62-.56c.31-.25.25-.91.27-1.28a14.14,14.14,0,0,1,2.2-7.81c.09-.13.17-.24.26-.35l.08-.09.2-.22.08-.09.25-.23,0,0a2.71,2.71,0,0,1,.28-.21l.08-.06.2-.12.1,0,.24-.11,0,0,.29-.11.08,0,.24-.07h0c.46-.12.92-.19,1.39-.27a8.87,8.87,0,0,1,3.67.24c.63.2,1,.35,1.17.15s.77-.83,1-1l.08-.11v0l0-.07s0,0,0,0a.32.32,0,0,0,0-.08.18.18,0,0,0,0,0l0-.1a.67.67,0,0,0-.23-.22A12.37,12.37,0,0,0,43,93.42a18.26,18.26,0,0,0-6.92,1.39,1.2,1.2,0,0,1-.31.07c-.09,0-.38-.1-.27-.31a3.91,3.91,0,0,1,.74-.87,15,15,0,0,1,3.54-2.52c.3-.13.37-.18.56-.26s.38-.63-.15-.64a4.72,4.72,0,0,0-1.05.11c-.29,0-.45-.08-.27-.33A3.57,3.57,0,0,1,40,89.19a24.21,24.21,0,0,1,5.16-1.83A13,13,0,0,1,48,86.92a18.91,18.91,0,0,1,2.13,0,19.43,19.43,0,0,1,9.54,3c2.66,1.95,6.48,5.21,7.24,13.26a7,7,0,0,1,0,1.75c0,.24-.31.68-.55.18A48.1,48.1,0,0,0,63,99.24a.39.39,0,0,0-.23-.19h-.09l0,0v0a.2.2,0,0,0,0,.06.33.33,0,0,0,0,.05.63.63,0,0,0,0,.13c0,.15.48,2.33.49,2.63a3.26,3.26,0,0,0,1,2.42,4.54,4.54,0,0,1,1.08,1.88,11.18,11.18,0,0,1,.28,1.27c0,.09.1.33-.3.33s-1.91-.11-2.56-.09-5.13.45-6.8.81a5.86,5.86,0,0,0-3.42,1.67,2.3,2.3,0,0,1-.56.44,3.88,3.88,0,0,1-.71,0,3.79,3.79,0,0,0-1.54.25,1.24,1.24,0,0,1-1.13.14,7.41,7.41,0,0,0-4.79-1.36,34.79,34.79,0,0,0-4,.33l-.3,0-.19,0-.17,0-.2,0-.18,0-.33.06-.23,0-.17,0-.26.05-.43.08A.4.4,0,0,1,36.62,110.19Zm27.4-.76c0,.09-.12.19-.23.21l-1,.1a.23.23,0,0,1-.26-.18c0-.11,0-.39,0-.46s0-.17.15-.18l1.24-.12c.12,0,.19.09.19.19Zm-3.74.9a5.25,5.25,0,0,0-.95-.54c-.18-.06-.12-.29.14-.33a2.79,2.79,0,0,1,1.93.15.9.9,0,0,1,.45.94c-.12.4-.27.31-.47.31A3.78,3.78,0,0,1,60.27,110.32Zm.52,1.76a1.45,1.45,0,0,1-.86-.07,5.66,5.66,0,0,1-1.2-.6,1.93,1.93,0,0,0-1.49-.17c-.35.11-.64.2-.95.32s-.37-.17-.29-.29a3,3,0,0,1,1.22-.94,2.19,2.19,0,0,1,.55-.08,2.28,2.28,0,0,1,1.34.48,10.54,10.54,0,0,0,1.44.94C60.75,111.75,61.17,111.81,60.79,112.08Zm-13,14c-1.57.54-2,0-2.15-.17s0-.32.2-.4a5.29,5.29,0,0,0,1.13-.8c.25-.25.75-1.11,1.1-1.41a2.09,2.09,0,0,1,1.77-.13,5.86,5.86,0,0,0,2.87.33,1.61,1.61,0,0,0,1.25-1,1.4,1.4,0,0,1,.8-.55,5.84,5.84,0,0,0,1.48-1.15c.08-.09.33-.21.72,0a7.35,7.35,0,0,1,1.74,1.73,2.58,2.58,0,0,0,1.69.89c.23,0,.37.28.38.35s-.18.33-.33.44-.22.3-1.5.33C52.6,124.71,49.73,125.42,47.83,126.08Zm8.66.77a11.25,11.25,0,0,1-2.07.73c-.56.11-2.35.47-2.65.5a2.22,2.22,0,0,1-1.36-.4c-.09-.07-.22-.31.12-.36a23.31,23.31,0,0,1,5.24-.74l.67,0C56.54,126.54,56.87,126.65,56.49,126.85Zm-8.41,8.05c-1.26.22-4.64-.78-6.83-6.19a2.65,2.65,0,0,1,.6-3.06,3.38,3.38,0,0,1,.61-.26.58.58,0,0,1,.76.54c0,.53,1.06,4.82,2.43,6.23.34.35.6.33.69,0s.22-.77.27-.94.36-.49.54,0A27.33,27.33,0,0,0,48.35,134C48.66,134.47,48.56,134.83,48.08,134.9Zm.25-14.15a1.14,1.14,0,0,1,.18.59c0,.15-.53.43-1.08-.18a1.63,1.63,0,0,1-.21-1.82c.36-.57,1.07-.28,1-.08A1.84,1.84,0,0,0,48.33,120.75Zm-4-7.94a3.56,3.56,0,0,0-1.59.21,8.85,8.85,0,0,0-1.75,1,2.49,2.49,0,0,1-1,.36c-.14,0-.65-.05-.3-.42.09-.1.32-.18.66-.43s.42-.3.7-.54A5.74,5.74,0,0,1,43,111.87a1.77,1.77,0,0,1,1.23.3C44.56,112.45,44.7,112.83,44.29,112.82Zm-7,.73a1.62,1.62,0,0,1,.95-1.18l.64-.19.79-.17c.44-.07.54.26.26.48s-.47.34-.73.54-.77.68-1.06.92S37.2,114.08,37.29,113.54Zm2.1,7.66,0,0-.2-.3,0-.08-.16-.28,0-.1c-.06-.12-.12-.25-.17-.38-.14-.36.09-.42.25-.33a4.27,4.27,0,0,0,1.08.44.41.41,0,0,0,.53-.29.75.75,0,0,0,0-.1l0-.07v0a.42.42,0,0,1,0-.07s0,0,0,0a.59.59,0,0,0,0-.08.11.11,0,0,0,0,0,.42.42,0,0,0,0-.07.11.11,0,0,1,0,0,.28.28,0,0,0,0-.08v0a.38.38,0,0,0-.2-.16A4.38,4.38,0,0,1,38,116.86a.4.4,0,0,1,.08-.5c.09-.07.4-.27.55-.36a.49.49,0,0,1,.56.07,1.81,1.81,0,0,0,1,.43c.33,0,.36-.16.42-.24a2.89,2.89,0,0,1,2.51-1.59c.68,0,1.32.06,1.55,0a3.52,3.52,0,0,0,1.5-.41c.47-.32.67-.09.39.26l-.12.16,0,0-.11.16h0a.39.39,0,0,0,.09.52,4,4,0,0,0,.47.45.31.31,0,0,0,.16,0,.21.21,0,0,0,.09,0h0a.33.33,0,0,0,.13-.08,3,3,0,0,0,.44-.43c.11-.15.2,0,.18.22a4,4,0,0,1-1.16,2.67c-.06.07-.26.22-.48.43h0l-.1.1a.71.71,0,0,0-.09.09l-.07.07-.12.14,0,0a2.47,2.47,0,0,0-.28.45,2.86,2.86,0,0,0-.33,1.22c0,.27-.23.38-.46.48a6.12,6.12,0,0,0-.91.58l-.36.3-.06.06c-.12.11-.25.23-.36.35a1.85,1.85,0,0,1-.23.21l-.06,0-.18.12-.07,0-.17.07-.09,0h-.14l-.15,0h-.28l-.12,0-.16,0-.12-.05-.15-.08h0l-.24-.18-.34-.3h0l-.3-.29-.05,0,0-.05-.29-.31-.08-.09C39.61,121.49,39.49,121.36,39.39,121.21ZM54,146.87a23.7,23.7,0,0,1-1.56,4.4l-.19.43,0,.07h0a1,1,0,0,1-.06.14l-.09.21h0l-.13.27h0v0l-.06.12-.05.1h0s0,0,0,0l0,.08,0,.08,0,0h0l-.06.09h0l-.06.09h0l-.06.07h0l-.06.08h0l-.06.06h0l-.07.06h0l-.06,0h0l0,0h0l-.07,0h0l-.07,0-.65.11H50.1l-.2,0h0c-1.75.29-6.51,1.11-8.72,1.55-1.47.29-1.32-.45-1.69-1.78a42.25,42.25,0,0,1-.41-8.62c.09-1,.14-1.33.33-1.45a5.8,5.8,0,0,1,.55-.32c.09,0,.33-.08.45.13a40.88,40.88,0,0,0,3.65,6.12,17.26,17.26,0,0,0,3.15,3.1l.11.06,0,0,.06,0h.18l0,0h0l0,0,0,0v0s0,0,0,0v0a.75.75,0,0,0-.21-.56,26.08,26.08,0,0,1-2.44-3A25.23,25.23,0,0,1,42,142a10.88,10.88,0,0,1-.28-2.74h0s0,0,0-.07,0-.13,0-.2,0-.06,0-.09,0-.18,0-.26,0-.06,0-.08,0-.12,0-.17,0,0,0-.07,0-.14.05-.19c.25-.72.46-.64.69-.4a20.09,20.09,0,0,0,5.57,3.57,8.47,8.47,0,0,1,1.23.57c.09.1.25.32-.06.39a9.77,9.77,0,0,0-2.12.47l-.21.1a1,1,0,0,0-.47.38.46.46,0,0,0-.06.16v0a.51.51,0,0,0,0,.15s0,0,0,0,0,.11,0,.16,0,.15,0,.25c.05.51.14.87.2,1.54s0,1.29.35,1.57.78.45,2,.22,1.52-.32,1.65-.32.45-.06.26.31l-.08.15a13.94,13.94,0,0,0-1.11,2.21,8.21,8.21,0,0,0-.31,1.12c0,.13.07.39.31.1a20.9,20.9,0,0,1,1.87-2.72l.39-.43h0l0,0,0,0,.06-.06.17-.18.07-.06.21-.21v0l.18-.17,0,0a3.8,3.8,0,0,1,.33-.27l0,0a2.05,2.05,0,0,1,.27-.18l0,0,.1-.06h0l.05,0,.07,0C54,146.13,54.11,146.35,54,146.87Zm1.94,6-1.12.17c-.12,0-.22-.12-.17-.2a6.29,6.29,0,0,0,.92-2.09c0-.2.18-.35.26,0s.31,1.28.37,1.69C56.22,152.43,56.26,152.75,56,152.83Zm.34-10.33c-.54.2-1.12-.4-1.61-.72a13.1,13.1,0,0,1-2.89-2.44c-1.25-1.52-1.13-2.59-.77-4.56a5.4,5.4,0,0,0-.3-2.89c-.1-.19,0-.38.31-.24a3.56,3.56,0,0,1,.88.94c.3.37.37.1.39-.15a3.48,3.48,0,0,0-.16-1.35c0-.17-.19-.52-.5-.58a3.18,3.18,0,0,1-1.06-.29c-.11-.09-.22-.23-.11-.35a2.65,2.65,0,0,1,.82-.58,3.67,3.67,0,0,1,1.3-.34,10.44,10.44,0,0,0,5.68-1.33.81.81,0,0,1,.64-.09c.22.07.82.29,1,.56s.18,1.38.47,2.19.78,0,.89-.38a7.35,7.35,0,0,0,.15-1.38,2.85,2.85,0,0,1,.34-1.38,3.26,3.26,0,0,0,.75-1.56,7.06,7.06,0,0,0-.07-2.25c-.18-1.17-.42-1.27-.74-1.48a7.81,7.81,0,0,1-1.46-.67,15.92,15.92,0,0,1-1.92-1.9A4.19,4.19,0,0,0,56,118.14h-.32l0,0,0,0,0,0,0,0s0,0,0,0l0,0v.07h0a.17.17,0,0,0,0,.06,2.18,2.18,0,0,0,.22.62c.06.15.2.62-.05.89a5.33,5.33,0,0,1-3.2,1.6,4.28,4.28,0,0,1-1.63-.33h0l0,0a2.35,2.35,0,0,1-.34-.16h0l-.32-.2-.07-.05-.22-.18,0,0-.22-.22,0,0-.14-.18,0-.05c0-.07-.09-.13-.13-.2l0,0-.09-.16,0,0-.06-.16c-.2-.63.31-2.1.29-3.15,0-.47-.1-1.36-.17-2a3,3,0,0,1,.4-1.64.32.32,0,0,1,.1-.09l0,0,.12-.08h0l.17-.08h0l.18-.07h0a4.27,4.27,0,0,1,.43-.12,1.12,1.12,0,0,1,1.25.56c.53,1.46,1.12,1.77,1.31,1.86s.51-.19.64-.29.42-.5.29-.67a2.23,2.23,0,0,1-.37-.58c-.1-.28.26-.28.35-.24a5.22,5.22,0,0,0,2.65.52,15.13,15.13,0,0,0,2.88-.73.88.88,0,0,1,.61.27c.06.09.16.25.27.38h0l.05.05,0,0,0,0,0,0h0a5.25,5.25,0,0,0,.72,0c.27,0,.73-.08.72.41A3.09,3.09,0,0,1,60.9,116l0,.05a.35.35,0,0,0,0,.1v0a.31.31,0,0,0,0,.11,3.51,3.51,0,0,0,.19.43.28.28,0,0,0,.07.08h0l.07,0h.16l.12,0A3.93,3.93,0,0,0,63,114.94a16,16,0,0,0,.6-3.73,1.07,1.07,0,0,1,.36-.84,9.64,9.64,0,0,1,1.37-.86c.14,0,.31,0,.48.33s.53,2.72.6,3.08.27.34.37.27a2.14,2.14,0,0,0,.57-.69.92.92,0,0,0-.15-1c-.19-.22-.49-.56-.36-.91a1,1,0,0,1,1.08-.7c.16,0,.79.31.9,2a14.66,14.66,0,0,1-1.09,5.74,14.1,14.1,0,0,0-.74,2.93c-.08.47-.44.39-.53.31s-.2-.45-.25-.5-.2,0-.29.38a5.39,5.39,0,0,1-.58,1.26,1.15,1.15,0,0,0-.07.7,22.9,22.9,0,0,1,.21,3.9,11.25,11.25,0,0,1-2,6.45,15.53,15.53,0,0,1-4,3.77,1.23,1.23,0,0,1-.91.12c-.16,0-.3-.22-.6-.43s-.34.17-.33.26.15.44.23.77a2.87,2.87,0,0,1-.55,2,4.54,4.54,0,0,0-1,2.79C56.37,142.41,56.37,142.48,56.3,142.51Zm17.3,8.25h0l-.07,0h0l-.08,0h0l-.12,0h0l-.13,0h0L73,151l-.41.06c-2.22.19-7.84.75-12.25,1.31l-.23,0c-.31,0-.49,0-.52-.31a15.93,15.93,0,0,0-1.89-5.41c-.13-.22-.27-.44-.42-.65s.08-.41.31-.33a22.44,22.44,0,0,1,4.94,2.84c.65.46.81.61,1,.73l.08,0h0l.09,0h.12a.14.14,0,0,0,.09,0c.06,0,.08-.11,0-.23-.16-.45-1-1.32-3.17-3.33-.3-.29-.31-.4,0-.44s1.19,0,1.65,0,1.5,0,1.3-1.4c-.16-1-.28-2.13-.3-2.45a.92.92,0,0,0-.83-1,8.08,8.08,0,0,0-3.15.49c-.31.11-.42,0-.19-.25a24,24,0,0,0,3.9-3.44,14.48,14.48,0,0,0,3.13-5.13c.09-.25.2-.17.3-.11a3.05,3.05,0,0,1,1,2c.24,1.39.73,3.31-.12,8.38a29.13,29.13,0,0,1-1.16,4.8c-.13.39.09.61.35.26a21.53,21.53,0,0,0,2.05-5.68,35,35,0,0,0,1-6.16h0c0-.28,0-.53,0-.74a1.41,1.41,0,0,1,0-.15v0l0-.07h0l0-.05,0,0,0,0h.21l.06,0c.13.06.71.22,1,1.62.1.46.26,1.11.47,2.09l0,.18,0,.18c0,.1,0,.22.07.33s0,.1,0,.14,0,.22.07.33a.89.89,0,0,0,0,.12c.06.32.13.66.2,1l0,.08c.18,1,.39,2.09.62,3.45l0,.14.08.46,0,.3c0,.11,0,.23.06.35s0,.24.06.37,0,.22.05.34,0,.26.06.38l.06.4c0,.12,0,.23.06.35s.05.35.08.52l0,.26.11.75s0,.06,0,.09c0,.29.09.6.14.9s0,.32,0,.43,0,0,0,0a1,1,0,0,1,0,.14v0a1.51,1.51,0,0,1,0,.25v0a.12.12,0,0,1,0,.07v0A.25.25,0,0,1,73.59,150.76Z"/><path class="e" d="M52.3,148.12c.16-.29.44-.58.38-.6a3,3,0,0,0-.67.17l-.39.43a20.9,20.9,0,0,0-1.87,2.72c-.23.29-.33,0-.31-.1a8.21,8.21,0,0,1,.31-1.12,13.94,13.94,0,0,1,1.11-2.21l-.33.58a16.43,16.43,0,0,1-3.51.59c-1-.13-1.3-1.5-1.53-2.29s-.79-2.28.36-2.93a2.67,2.67,0,0,1,.66-.2h0a1,1,0,0,1,.47-.38h0c-.66-.35-1.76-1-1.83-1s-1.09-.78-1.19-.88a4.78,4.78,0,0,0-.52-.38h0s0,0,0,0a19.54,19.54,0,0,1-1.69-1.28A10.88,10.88,0,0,0,42,142a25.23,25.23,0,0,0,3,6.81,26.08,26.08,0,0,0,2.44,3,.75.75,0,0,1,.21.56.1.1,0,0,0,0,0,.46.46,0,0,1-.06.48,1.63,1.63,0,0,1-1.63.59,4.51,4.51,0,0,1-.79-.48c-.12-.08-1.31-1.12-1.63-1.41-.09-.08-.23-.3-.34-.41l-.6-.62-.49-.55c-.23-.26-.43-.48-.48-.54s-1-1.32-1.28-1.91-1.06-2.07-1.32-2.61h0a42.25,42.25,0,0,0,.41,8.62c.37,1.33.22,2.07,1.69,1.78,2.21-.44,7-1.27,8.72-1.55a5.26,5.26,0,0,1,.35-.83,42.31,42.31,0,0,0,2-4.75"/><path class="e" d="M55.84,150.67c-.08-.3-.22-.16-.26,0a6.29,6.29,0,0,1-.92,2.09c0,.08,0,.2.17.2l1.12-.17c.31-.08.27-.4.26-.47-.06-.41-.31-1.48-.37-1.69"/><path class="e" d="M33.7,111.15a19.27,19.27,0,0,1,.4-6.62,3,3,0,0,1,.78-1.35,4.11,4.11,0,0,0,1-1.19,11.93,11.93,0,0,1,1.25-2.58A7.87,7.87,0,0,1,40,96.62c.36-.28,0-.4-.18-.37a6.27,6.27,0,0,0-2.74,1A33.8,33.8,0,0,0,33.53,100a8.08,8.08,0,0,1-2.67,1.33c-.2,0-.46,0-.58.07s-.35.36-.21.6a13.5,13.5,0,0,0,.83,1.19,3.55,3.55,0,0,1,.62,2.49,35,35,0,0,0,.2,4.21,9.47,9.47,0,0,0,.67,2.55c.13.27.31.25.51.16s.4-.19.64-.31c.39-.2.22-.76.17-1.17"/><path class="e" d="M34.89,116.71a7.62,7.62,0,0,1-.61-2.38c0-.46-.37-.38-.49-.31s-.37.2-.56.28-.17.44-.13.57a7.23,7.23,0,0,0,1.47,2.59.31.31,0,0,0,.45-.33,2.24,2.24,0,0,0-.14-.42"/><path class="e" d="M45.12,115.58a.46.46,0,0,0-.28.5c.05.28.13.36.15.57a2,2,0,0,1-.32,1,2.47,2.47,0,0,1-.84.87,3.84,3.84,0,0,1-.47.22s-.05.08-.08.22h0l.05,0,.23,0,.17,0,.26,0a5.6,5.6,0,0,0,1-.3,3.94,3.94,0,0,0,1.37-.92,2.79,2.79,0,0,0,.62-1.49,1.62,1.62,0,0,0,0-.19h0a.31.31,0,0,1-.16,0,4,4,0,0,1-.47-.45.39.39,0,0,1-.09-.52,2.61,2.61,0,0,1-.54.41c-.28.16-.48.19-.62.26"/><path class="e" d="M57.34,139.53a2.87,2.87,0,0,0,.55-2c-.08-.34-.23-.67-.23-.77s0-.48.33-.26l-.07,0a4.41,4.41,0,0,0-.25-.93,10.51,10.51,0,0,0-.85-1.76c-.09-.18-.38-.58-.39-.63a5.85,5.85,0,0,1-.18-.77,6.55,6.55,0,0,1-.07-1.57c0-.06,0-.22,0-.25a.08.08,0,0,0,0-.1.27.27,0,0,0-.28.09c-.25.26-.26.31-.27.35s0,.12,0,.21a1.56,1.56,0,0,1-.21.71c-.13.21-.21.28-.39.27s-.33-.17-.36-.54a1,1,0,0,0-.17-.61.5.5,0,0,0-.31-.12c-.06,0-.11.05-.5.15a7.2,7.2,0,0,1-1.11.14l-.44,0a.11.11,0,0,0,0,0,3.48,3.48,0,0,1,.16,1.35c0,.25-.09.52-.39.15a3.56,3.56,0,0,0-.88-.94c-.3-.14-.41.06-.31.24a5.4,5.4,0,0,1,.3,2.89c-.36,2-.48,3,.77,4.56a13.1,13.1,0,0,0,2.89,2.44c.48.33,1.07.93,1.61.72.08,0,.08-.09.08-.19a4.54,4.54,0,0,1,1-2.79"/><path class="e" d="M60.6,113.41a1.39,1.39,0,0,0-.22,0,.37.37,0,0,0-.18.13.29.29,0,0,0,0,.37,1.07,1.07,0,0,1,.27.66,1.75,1.75,0,0,1-.1.68,3.58,3.58,0,0,1-.37.67,1.84,1.84,0,0,0-.35.57.2.2,0,0,0,0,.13h0a.09.09,0,0,1,0,0,.92.92,0,0,1,.43-.22,2.22,2.22,0,0,0,.7-.34h0l0-.05a3.09,3.09,0,0,0,1.15-2.19c0-.49-.45-.4-.72-.41a5.25,5.25,0,0,1-.72,0h0"/><path class="e" d="M60.48,124.22c.14-.11.34-.36.33-.44s-.15-.34-.38-.35a2.58,2.58,0,0,1-1.69-.89A7.35,7.35,0,0,0,57,120.81c-.4-.24-.64-.11-.72,0a5.84,5.84,0,0,1-1.48,1.15,1.4,1.4,0,0,0-.8.55,1.61,1.61,0,0,1-1.25,1,5.86,5.86,0,0,1-2.87-.33,2.09,2.09,0,0,0-1.77.13c-.36.3-.85,1.16-1.1,1.41a5.29,5.29,0,0,1-1.13.8c-.16.08-.34.24-.2.4s.59.72,2.15.17c1.9-.66,4.77-1.38,11.16-1.53,1.28,0,1.35-.22,1.5-.33"/><path class="e" d="M55.78,126.57a23.31,23.31,0,0,0-5.24.74c-.33,0-.21.29-.12.36a2.22,2.22,0,0,0,1.36.4c.3,0,2.09-.39,2.65-.5a11.25,11.25,0,0,0,2.07-.73c.38-.2,0-.31,0-.3l-.67,0"/><path class="e" d="M49.56,95.78c.61-.54,2-2,3.32-1.9s4.92.51,7,1.94A7.75,7.75,0,0,1,62.73,99h0a.39.39,0,0,1,.23.19,48.1,48.1,0,0,1,3.4,5.89c.24.51.51.06.55-.18a7,7,0,0,0,0-1.75c-.76-8-4.58-11.31-7.24-13.26a19.43,19.43,0,0,0-9.54-3,18.91,18.91,0,0,0-2.13,0,13,13,0,0,0-2.82.44A24.21,24.21,0,0,0,40,89.19a3.57,3.57,0,0,0-1.18.87c-.18.25,0,.38.27.33a4.72,4.72,0,0,1,1.05-.11c.53,0,.39.55.15.64s-.26.13-.56.26a15,15,0,0,0-3.54,2.52,3.91,3.91,0,0,0-.74.87c-.11.21.18.32.27.31a1.2,1.2,0,0,0,.31-.07A18.26,18.26,0,0,1,43,93.42a12.37,12.37,0,0,1,6.35,2.15.67.67,0,0,1,.23.22h0"/><path class="e" d="M36.36,112.42c0-.17-.13-.21-.21-.2s-1,.15-1.21.2a.15.15,0,0,0-.12.18c0,.08.08.36.11.57s.22.12.42.08.89-.13,1-.13.15-.17.14-.25-.05-.27-.09-.45"/><path class="e" d="M63.82,108.78l-1.24.12c-.17,0-.16.12-.15.18s0,.35,0,.46a.23.23,0,0,0,.26.18l1-.1c.12,0,.23-.12.23-.21V109c0-.1-.08-.21-.19-.19"/><path class="e" d="M30.53,147.24l-.5-.12a1.94,1.94,0,0,0-.5,0,2.61,2.61,0,0,0-1.11.24l-4.53,2.29,1.56,11.84h1.63c.7-3.63,1.38-6.73,1.66-7.59.37-1.76,1.1-5.53,1.78-6.63"/><path class="e" d="M76.26,136.65a.45.45,0,0,0,0,.14,5.45,5.45,0,0,0,.25.62c.79,1.68,1.82,4,2.92,6.37l2.11,4.68,1.64-11.69c-2.7-.2-5.83-.41-6.33-.46-.2,0-.6,0-.6.33"/><path class="e" d="M66.8,152.85l-2,.29s0,0,0,.07c.09.77.83,6.92,1,7.91l.05.36h2.44l-.07-.44-1.39-8.18"/><path class="e" d="M71.6,152.23l-2.11.27c0,.18.08.37.12.58.3,1.45.7,3.61,1.33,6.55l.31,1.85h2.38l-.09-.48c-.38-2-1.92-8.76-1.92-8.76"/><path class="e" d="M76.35,151.62h0l-2.17.28s1.56,7.2,2,9l.13.57H78.8l-.17-.66c-.89-3.32-2.29-9.2-2.29-9.2"/><path class="f" d="M42.26,97.61a15.51,15.51,0,0,0-1,1.8,27.06,27.06,0,0,0-1.62,7.76,21.17,21.17,0,0,1,0,2.91l-.07,0a34.79,34.79,0,0,1,4-.33,7.41,7.41,0,0,1,4.79,1.36,1.24,1.24,0,0,0,1.13-.14,3.79,3.79,0,0,1,1.54-.25,3.88,3.88,0,0,0,.71,0,2.3,2.3,0,0,0,.56-.44,5.86,5.86,0,0,1,3.42-1.67c1.67-.35,6.15-.79,6.8-.81s2.17.09,2.56.09.3-.25.3-.33a11.18,11.18,0,0,0-.28-1.27,4.54,4.54,0,0,0-1.08-1.88,3.26,3.26,0,0,1-1-2.42c0-.3-.46-2.48-.49-2.63a.63.63,0,0,1,0-.13.33.33,0,0,1,0-.05.2.2,0,0,1,0-.06v0l0,0h.1a7.75,7.75,0,0,0-2.87-3.23c-2.06-1.43-5.71-1.89-7-1.94s-2.71,1.36-3.32,1.9h0l0,.1a.18.18,0,0,1,0,0,.32.32,0,0,1,0,.08s0,0,0,0l0,.07v0l-.08.11c-.23.21-.79.85-1,1s-.54.05-1.17-.15a8.87,8.87,0,0,0-3.67-.24c-.47.08-.93.15-1.39.27,0,.07,0,.28,0,.31a.42.42,0,0,1-.05.14"/><path class="f" d="M41.64,119.38a3,3,0,0,0,.09.35v0a1.67,1.67,0,0,0,.19.41c.06.1.14.24.26.41s.35.47.52.68l.5.61a.53.53,0,0,0,.62,0h0a6.12,6.12,0,0,1,.91-.58c.23-.1.43-.21.46-.48a2.86,2.86,0,0,1,.33-1.22,2.47,2.47,0,0,1,.28-.45l0,0,.12-.14.07-.07a.71.71,0,0,1,.09-.09l.1-.1h0l-.27.21a4.27,4.27,0,0,1-.83.35,10.7,10.7,0,0,1-1.12.31.59.59,0,0,1-.63-.2.66.66,0,0,1-.12-.23.24.24,0,0,1,0-.08h0a.13.13,0,0,1,0-.08h0c0-.13.05-.2.08-.22a3.84,3.84,0,0,0,.47-.22,2.47,2.47,0,0,0,.84-.87,2,2,0,0,0,.32-1c0-.21-.1-.3-.15-.57a.46.46,0,0,1,.28-.5c.13-.07.34-.11.62-.26a2.61,2.61,0,0,0,.54-.41h0l.11-.16,0,0,.12-.16c.27-.35.07-.58-.39-.26a3.52,3.52,0,0,1-1.5.41c-.23,0-.87-.06-1.55,0a2.89,2.89,0,0,0-2.51,1.59c-.06.08-.09.22-.42.24a1.81,1.81,0,0,1-1-.43.49.49,0,0,0-.56-.07c-.15.09-.46.29-.55.36a.4.4,0,0,0-.08.5,4.38,4.38,0,0,0,2.49,2.19.38.38,0,0,1,.2.16.32.32,0,0,0-.07-.09,4.89,4.89,0,0,0,1,.24"/><path class="f" d="M52.6,131.1a7.2,7.2,0,0,0,1.11-.14c.39-.1.44-.15.5-.15a.5.5,0,0,1,.31.12,1,1,0,0,1,.17.61c0,.37.18.52.36.54s.26-.06.39-.27a1.56,1.56,0,0,0,.21-.71c0-.09,0-.17,0-.21s0-.09.27-.35a.27.27,0,0,1,.28-.09.08.08,0,0,1,0,.1s0,.19,0,.25a6.55,6.55,0,0,0,.07,1.57,5.85,5.85,0,0,0,.18.77s.29.45.39.63a10.51,10.51,0,0,1,.85,1.76,4.41,4.41,0,0,1,.25.93l.07,0c.3.21.44.38.6.43a1.23,1.23,0,0,0,.91-.12,15.53,15.53,0,0,0,4-3.77,11.25,11.25,0,0,0,2-6.45,22.9,22.9,0,0,0-.21-3.9,1.15,1.15,0,0,1,.07-.7,5.39,5.39,0,0,0,.58-1.26c.09-.4.23-.43.29-.38s.16.42.25.5.44.15.53-.31a14.1,14.1,0,0,1,.74-2.93,14.66,14.66,0,0,0,1.09-5.74c-.11-1.69-.74-2-.9-2a1,1,0,0,0-1.08.7c-.13.35.17.69.36.91a.92.92,0,0,1,.15,1,2.14,2.14,0,0,1-.57.69c-.1.08-.3.12-.37-.27s-.43-2.7-.6-3.08-.33-.37-.48-.33a9.64,9.64,0,0,0-1.37.86,1.07,1.07,0,0,0-.36.84,16,16,0,0,1-.6,3.73,3.93,3.93,0,0,1-1.61,1.91l-.06,0h0a3.07,3.07,0,0,1-1,.32.37.37,0,0,1-.2,0l-.27-.19-.06-.06h0l0,0,0,0,0,0v0l0,0v0a.1.1,0,0,1,0,0h0a.2.2,0,0,1,0-.13,1.84,1.84,0,0,1,.35-.57,3.58,3.58,0,0,0,.37-.67,1.75,1.75,0,0,0,.1-.68,1.07,1.07,0,0,0-.27-.66.29.29,0,0,1,0-.37.37.37,0,0,1,.18-.13,1.39,1.39,0,0,1,.22,0h0l0,0,0,0,0,0-.05-.05h0c-.11-.12-.2-.29-.27-.38a.88.88,0,0,0-.61-.27,15.13,15.13,0,0,1-2.88.73,5.22,5.22,0,0,1-2.65-.52c-.08,0-.44,0-.35.24a2.23,2.23,0,0,0,.37.58c.13.17-.17.56-.29.67s-.44.4-.64.29-.78-.4-1.31-1.86a1.12,1.12,0,0,0-1.25-.56,4.27,4.27,0,0,0-.43.12c0,1.18,0,2.34,0,2.81a10,10,0,0,1,.07,1.86,14,14,0,0,0-.25,1.47,2.31,2.31,0,0,0,.08.81,2,2,0,0,0,.12.59,7.11,7.11,0,0,0,.31.68,4.12,4.12,0,0,1,.17.43.45.45,0,0,0,.14.27,4.28,4.28,0,0,0,1.63.33,5.33,5.33,0,0,0,3.2-1.6c.26-.27.11-.74.05-.89a2.18,2.18,0,0,1-.22-.62s0,0,0,0h0c-.07-.12-.21-.47,0-.64a3.79,3.79,0,0,1,.43-.36,2.82,2.82,0,0,1,2.42.14,5,5,0,0,1,.92.58c.13.1.66.61.77.7s1.25,1.1,1.76,1.43a3.4,3.4,0,0,1,1.13,1.07,1.72,1.72,0,0,1,.23,1.35,2.1,2.1,0,0,1-.59,1h0c0-.12,0-.25-.05-.37a7.06,7.06,0,0,1,.07,2.25,3.26,3.26,0,0,1-.75,1.56,2.85,2.85,0,0,0-.34,1.38,7.35,7.35,0,0,1-.15,1.38c-.11.35-.6,1.19-.89.38s-.32-1.92-.47-2.19-.76-.49-1-.56a.81.81,0,0,0-.64.09A10.44,10.44,0,0,1,52.6,129a3.67,3.67,0,0,0-1.3.34,2.65,2.65,0,0,0-.82.58c-.12.11,0,.26.11.35a3.18,3.18,0,0,0,1.06.29c.32.06.46.42.5.58a.11.11,0,0,1,0,0l.44,0"/><path class="e" d="M71.75,151.1c-.06-1.24-.15-2.72-.25-4.14-.44-4.27-.67-6.15-.78-6.74a1.58,1.58,0,0,1,0-.34c-.25-1.34-.58-2.82-1-4.3a35,35,0,0,1-1,6.16,21.53,21.53,0,0,1-2.05,5.68c-.25.35-.48.13-.35-.26a29.13,29.13,0,0,0,1.16-4.8c.85-5.06.37-7,.12-8.38a3.05,3.05,0,0,0-1-2c-.1-.06-.21-.14-.3.11a14.48,14.48,0,0,1-3.13,5.13,24,24,0,0,1-3.9,3.44c-.23.21-.12.36.19.25a8.08,8.08,0,0,1,3.15-.49.92.92,0,0,1,.83,1c0,.32.14,1.4.3,2.45.2,1.36-.83,1.39-1.3,1.4s-1.33,0-1.65,0-.31.15,0,.44c2.16,2,3,2.88,3.17,3.33,0,.12,0,.19,0,.23h0a1.45,1.45,0,0,1-1.51.56,10.07,10.07,0,0,1-2.21-1.16c-.5-.41-1.58-1.3-2.44-2l0-.06A15.93,15.93,0,0,1,59.58,152c0,.31.21.35.52.31l.23,0c4.41-.55,10-1.11,12.25-1.31l-.83.07m-9.3-5.26h-.29v.73H62v-.73H61.7v-.15h.75Zm1.1.73h-.17v-.71l-.24.71H63l-.24-.71v.71h-.16v-.88h.25l.22.63.22-.63h.26Z"/><polyline class="d" points="61.7 145.84 61.98 145.84 61.98 146.57 62.16 146.57 62.16 145.84 62.45 145.84 62.45 145.69 61.7 145.69 61.7 145.84"/><polyline class="d" points="63.07 146.32 62.85 145.69 62.59 145.69 62.59 146.57 62.76 146.57 62.76 145.86 63 146.57 63.14 146.57 63.38 145.86 63.38 146.57 63.55 146.57 63.55 145.69 63.29 145.69 63.07 146.32"/><path class="g" d="M114.85,144.3l.06.08a2.89,2.89,0,0,0,1.52,1.08h0a2,2,0,0,0,.87.28h0l.05.06h0a.67.67,0,0,0-.07.35h0a12.49,12.49,0,0,0-.42,1.66.07.07,0,0,0,0,.07c0,.09-.07.18-.09.27-.15.56-.15.56-.72.56H96.12a5.68,5.68,0,0,1-1.15,0v-.14a1.05,1.05,0,0,0,.14-.5.07.07,0,0,0,0-.07,3.85,3.85,0,0,0,.23-.93h0c.06,0,.06-.1,0-.15v-.07a5.18,5.18,0,0,0,.16-.58c.05-.32.18-.44.54-.45a3.51,3.51,0,0,0,2.26-.76h0a3.93,3.93,0,0,0,1.22-1.23A9.41,9.41,0,0,0,101,141c1-2.78,1.65-5.65,2.44-8.49,1.15-4.14,2.27-8.29,3.41-12.43.27-1,.57-1.93.78-2.91a.13.13,0,0,0,0-.14l0-.14a15.51,15.51,0,0,0,.7-2.66,2.89,2.89,0,0,0-2.21-3.56c-.24-.08-.57-.08-.69-.24s.08-.49.1-.74c0,0,0,0,0-.07h0c.14-.52.29-1,.41-1.56.06-.25.17-.32.42-.32h20c.3,0,.41.05.31.38s-.18.74-.26,1.12a3.68,3.68,0,0,0-.17.62c0,.44-.26.61-.7.73a3.85,3.85,0,0,0-3,2.69c-1.18,4.17-2.32,8.35-3.46,12.53a3.14,3.14,0,0,0-.2.88l.32-.24,12.79-9.79c1.39-1.06,2.78-2.13,4.16-3.2a1.31,1.31,0,0,0,.37-2,2.49,2.49,0,0,0-1.46-.85s-.08-.07-.14,0l0,0h0c-.5-.16-.5-.16-.37-.7,0-.06,0-.12,0-.17l0-.07.37-1.37c.17-.22.29-.44.67-.44q10.26,0,20.52,0a1,1,0,0,1,.56.16,9.87,9.87,0,0,0-.29,1.29v.07c-.08.29-.17.57-.24.86s-.1.26-.32.27A7.24,7.24,0,0,0,152,112l-.09.06c-.95.68-1.84,1.41-2.72,2.17l-.08.07c-1,.73-1.94,1.51-2.88,2.3s-1.95,1.51-2.88,2.31h0a2,2,0,0,0-.53.43l-.06,0a5.79,5.79,0,0,0-.91.72,14.74,14.74,0,0,0-1.39,1.11h0a2.62,2.62,0,0,0-.59.47,9.2,9.2,0,0,0-1.21,1l-.08.06a7.26,7.26,0,0,0-1,.8h0c-1,.74-2,1.53-2.91,2.33h0a2.52,2.52,0,0,0-.55.45h0c-.13.14-.51.15-.32.46a12.22,12.22,0,0,0,.9,1.37,1.19,1.19,0,0,1,.24.42c.63,1,1.25,2,1.93,2.94h0a7.42,7.42,0,0,0,.71,1.09l0,.07s0,.06,0,.05h0c.47.79,1,1.56,1.5,2.3h0a7.08,7.08,0,0,0,.71,1.09l0,.08c.35.58.73,1.15,1.12,1.7h0c.35.58.72,1.14,1.13,1.69a0,0,0,0,0,0,0,2.37,2.37,0,0,0,.36.53l0,.05a14.6,14.6,0,0,0,1.16,1.67l.05.07a3.94,3.94,0,0,0,.74,1,9.8,9.8,0,0,0,2.24,1.92h0a3.36,3.36,0,0,0,1.15.58h0a.69.69,0,0,0,.43.15h0a3,3,0,0,0,1.19.23c.27,0,.38.08.29.39s-.21.88-.31,1.33a.07.07,0,0,0,0,.06c-.07.24-.13.48-.21.71s0,.37-.22.45H138a15.68,15.68,0,0,0-1.69-.13h-.09l-1.68-.27-.14,0-1.87-.56-.07,0a.53.53,0,0,0-.29-.13l-.07,0a14.45,14.45,0,0,1-2.73-1.7c-.61-.49-1.14-1.05-1.72-1.56h0l-2-2.38a1.17,1.17,0,0,0-.3-.4l-.05-.07a13.7,13.7,0,0,0-.94-1.26h0l-1.46-2.17-2-3h0a2.47,2.47,0,0,0-.43-.66h0a7,7,0,0,0-.73-1.15h0a14.18,14.18,0,0,0-1-1.6l0-.07a10.34,10.34,0,0,0-.75-1.2,1.41,1.41,0,0,0-.07.16c-.29,1-.58,2.09-.87,3.14s-.58,2.16-.87,3.25a0,0,0,0,0,0,.05,10.08,10.08,0,0,0-.42,1.53,0,0,0,0,0,0,0l-1.18,4.23s0-.19-.09-.13a.91.91,0,0,0-.1.89c.05.07.14.19.16,0l.05,0,0,.14A1.14,1.14,0,0,0,114.85,144.3Z"/><path class="g" d="M210.29,137.68a11.83,11.83,0,0,0,2.91,2,18.44,18.44,0,0,0,4.93,1.61c.4.08.79.07,1.18.14a.37.37,0,0,0,.29.12h1.56a37.5,37.5,0,0,0,11.43-2.05c-.14.62-.26,1.19-.4,1.76-.5,2.16-1,4.31-1.5,6.47a.44.44,0,0,1-.4.4c-2.28.44-4.57.82-6.89,1.07-1.12.12-2.24.25-3.37.28a12.18,12.18,0,0,0-2.53.13h-4.61a13.29,13.29,0,0,0-2.09-.28h-.21l-2.45-.41-.15,0a8.14,8.14,0,0,0-1.29-.29h0a5.75,5.75,0,0,0-1.08-.29h0l-.16-.07a27.81,27.81,0,0,1-3.23-1.18,6.37,6.37,0,0,0-1.23-.54h-.07a.31.31,0,0,0-.16-.18,21.91,21.91,0,0,1-3.6-2.44l-.05,0a.2.2,0,0,0-.15-.14h0l-.1-.1h0a2.17,2.17,0,0,0-.45-.43l-.06-.06a1.82,1.82,0,0,0-.43-.44l0,0,0,0a.13.13,0,0,0-.1-.11h0a1.08,1.08,0,0,0-.29-.32,0,0,0,0,0,0,0l-.13-.15a24,24,0,0,1-1.71-2.44c-.33-.66-.67-1.32-.94-2a20.57,20.57,0,0,1-.92-3.27v-.14a4.25,4.25,0,0,0-.13-.87l0-.35a23.53,23.53,0,0,1,0-2.52v-.14l0-.43.29-1.87h0c.06-.23.13-.46.19-.69.2-.9.55-1.75.83-2.62h0l1.13-2.31a0,0,0,0,0,0,0,7.94,7.94,0,0,0,.65-1.09h0c.7-1,1.43-2,2.21-2.9a34.09,34.09,0,0,1,2.68-2.6,32.15,32.15,0,0,1,8.38-5.1,40.35,40.35,0,0,1,8.77-2.55c1.48-.26,3-.43,4.45-.57a11.28,11.28,0,0,0,1.73-.13h5.11a.91.91,0,0,0,.49.14,37.57,37.57,0,0,1,8.82,1.56c.26.08.3.17.23.43Q236.3,114.28,235,119c-.07.26-.2.3-.45.33a1.75,1.75,0,0,1-1.69-.69,9.1,9.1,0,0,0-5.41-3,22,22,0,0,0-7.76,0,18.71,18.71,0,0,0-6.51,2.17,12.53,12.53,0,0,0-6.68,9.36,11.42,11.42,0,0,0,1.86,8.39,1.47,1.47,0,0,0,.12.13,8,8,0,0,0,1.42,1.68h0l.09.05h0a.35.35,0,0,0,.22.21h0Z"/><path class="h" d="M217.5,149.63a12.18,12.18,0,0,1,2.53-.13v0a9.74,9.74,0,0,0-1.43.09Z"/><path class="i" d="M95,146.82c.14-.08.29-.18.43,0v.07a.13.13,0,0,0,0,.15h0l-.16.13H95Z"/><path class="g" d="M171.11,145.44a.06.06,0,0,0,.06,0,2.32,2.32,0,0,0,.87.36,1.07,1.07,0,0,1,0,.39c-.18.73-.37,1.46-.52,2.19-.06.28-.18.38-.45.37H161a.88.88,0,0,0-.39,0h-7.33c-.3,0-.4,0-.3-.38.29-1,.54-2,.81-3a.07.07,0,0,0,0-.07,1.3,1.3,0,0,0,.14-.5q.32-1,.54-2l0-.14c.18-.63.37-1.25.54-1.89.25-1,.56-1.9.76-2.86h0c.42-1.34.78-2.7,1.12-4.06l0-.12a5,5,0,0,0,.28-1,0,0,0,0,0,0,0,1.25,1.25,0,0,0,.14-.53h0c.43-1.36.79-2.73,1.14-4.11V128c.34-1.19.68-2.38,1-3.57.25-.9.48-1.79.72-2.69a1.33,1.33,0,0,0,.14-.51,0,0,0,0,0,0,0,11,11,0,0,0,.42-1.53h0a2.61,2.61,0,0,0,.2-.72c.46-1.57.93-3.13,1.28-4.73a2.66,2.66,0,0,0-.33-2.1h0a.06.06,0,0,0-.06-.08h0a3,3,0,0,0-1.72-1.3c-.28-.1-.69-.08-.82-.27s.13-.57.14-.87v-.08c.12-.43.25-.85.34-1.28s.19-.44.54-.44h36.3a1,1,0,0,1,.43,0v0a2.88,2.88,0,0,0-.16.72c-.35,1.39-.71,2.77-1.06,4.16-.23.91-.44,1.83-.67,2.75a4.65,4.65,0,0,0-.27,1v.08l-.5,1.89c0,.14,0,.29-.22.33a6.91,6.91,0,0,1-1.3-.07,1.87,1.87,0,0,0-.7-1.35l-.07-.07c0-.12-.16-.17-.25-.24a4.83,4.83,0,0,0-2.17-.92c0-.14-.18-.05-.26-.09-.06-.23-.26-.13-.39-.13H176.92c-.39,0-.52.14-.55.52a1.12,1.12,0,0,1,0,.46,2,2,0,0,0-.23,1.19l-.07.42-.07.21-.28,1,0,.15-.93,3.33c-.23.81-.22.81.64.76h13.46l-.35,1.58h0a1.07,1.07,0,0,0-.12.43l0,.14a1.46,1.46,0,0,0-.14.58,0,0,0,0,0,0,.06,4.63,4.63,0,0,0-.26,1l0,.15c-.3.91-.48,1.85-.71,2.78s-.53,2.15-.81,3.28a4.71,4.71,0,0,0-1.5-1.22,0,0,0,0,0,0,0,5.31,5.31,0,0,0-1.83-.69h-.08a4.2,4.2,0,0,0-1.3-.22c-3.05-.13-6.11,0-9.16,0-.11,0-.26,0-.24.16v.08l-1.14,4.17v.07c-.42,1.36-.77,2.73-1.13,4.11l0,.15a11.86,11.86,0,0,0-.47,1.72,2.83,2.83,0,0,0,1.61,3.1h0S171.07,145.45,171.11,145.44Z"/><path class="h" d="M156.87,107.85l-.08.15a1,1,0,0,0-.56-.16q-10.26,0-20.52,0c-.38,0-.5.22-.67.44,0-.38.17-.51.57-.51H156.4C156.55,107.77,156.73,107.69,156.87,107.85Z"/><path class="j" d="M114.53,142.81l0,.73c0,.21-.11.09-.16,0a.91.91,0,0,1,.1-.89C114.53,142.62,114.49,142.77,114.53,142.81Z"/><path class="h" d="M221.16,141.56H219.6a.37.37,0,0,1-.29-.12Z"/><path class="g" d="M176.73,116.13c-.19.12-.15.34-.21.51l0,.12a4.63,4.63,0,0,0-.28,1h0l-.13.3a2,2,0,0,1,.23-1.19,1.12,1.12,0,0,0,0-.46c0-.39.16-.52.55-.52h12.17c.13,0,.33-.1.39.13H177.14C177,116.06,176.85,116,176.73,116.13Z"/></svg>