<svg xmlns="http://www.w3.org/2000/svg" viewBox="0 0 250 250"><title>Grocery</title><path d="M210,177.7V73.56H40V177.7H210Z" style="fill:#fff;stroke:#fff;stroke-miterlimit:2.61299991607666;stroke-width:6px"/><path d="M40,92.88H210v7.64H40V92.88Zm0-9.67H210v7.64H40Zm0-9.67H210v7.64H40Zm0,29H210v7.64H40Zm0,9.65H210v7.64H40Zm0,9.65H210v7.64H40Zm0,9.65H210v7.64H40Zm0,9.65H210v7.64H40Zm0,9.65H210v7.64H40v-7.64Zm0,9.65H210v7.64H40Zm0,9.65H210v7.64H40Z" style="fill:#c3242b"/><path d="M179.1,162.13l4.16-4.17-.08,4.57Zm-11-10.38,2.49-3.72h1.65l-2,3.72Zm-7-3.22-1.2,2.71,2.17.05,2.37-3.12-3.34.35Z" style="fill:#c3242b"/><path d="M91.86,110.42v15.07s-14.76.1-14.76,0v-7.83c0-4.07-7.18-4.07-7.18-.1v8H54.77V85.32H70V97.25l8.79-11.92H94.57l-12,16.74A8.39,8.39,0,0,1,91.86,110.42Z" style="fill:none;stroke:#c3242b;stroke-miterlimit:2.61299991607666;stroke-width:2.35199999809265px"/><path d="M91.86,110.42v15.07s-14.76.1-14.76,0v-7.83c0-4.07-7.18-4.07-7.18-.1v8H54.77V85.32H70V97.25l8.79-11.92H94.57l-12,16.74A8.39,8.39,0,0,1,91.86,110.42Z" style="fill:#fff"/><path d="M97.15,85.34v40.15H112V85.34Z" style="fill:none;stroke:#c3242b;stroke-miterlimit:2.61299991607666;stroke-width:2.35199999809265px"/><path d="M97.15,85.34v40.14H112V85.34Z" style="fill:#fff"/><path d="M117.79,85.3v40.2h15.16V113.23l8.58,12.2h13.76V85.29H139.53V95.94L131.15,85.3Z" style="fill:none;stroke:#c3242b;stroke-miterlimit:2.61299991607666;stroke-width:2.35199999809265px"/><path d="M117.79,85.3v40.2h15.16V113.23l8.58,12.2h13.76V85.29H139.53V95.94L131.15,85.3Z" style="fill:#fff"/><path d="M165.61,125.46h23.23c4.37,0,6.93-2.63,6.93-6.39V104.19H181.41v6.13c0,3.22-5.78,3.12-5.78-.05V99a1.51,1.51,0,0,1,1.43-1.46h14.44V85.29h-25a6,6,0,0,0-6.18,6v28c0,3.22,2.41,6.09,5.33,6.09Z" style="fill:none;stroke:#c3242b;stroke-miterlimit:2.61299991607666;stroke-width:2.35199999809265px"/><path d="M165.61,125.46h23.23c4.37,0,6.93-2.63,6.93-6.39V104.19H181.41v6.13c0,3.22-5.78,3.12-5.78-.05V99a1.51,1.51,0,0,1,1.43-1.46h14.44V85.29h-25a6,6,0,0,0-6.18,6v28c0,3.22,2.41,6.09,5.33,6.09Z" style="fill:#fff"/><path d="M73.26,127.41c14.7-1.69,11.65,8.87,11.65,8.87l-3.39,8H74.94l3-7.64c2-5.43-5.78-4.62-11.37.2-2,1.71-7.58,7.24-1.2,9.65a39.16,39.16,0,0,1,8.58,4C79.33,156,73.15,163,68.16,163H50.41l2.7-6.23H67.59c1.77,0,1.4-1.61.6-2s-2.42-1.21-5.61-2.61c-9.29-3.64-7.18-9.85-7.18-9.85A22.15,22.15,0,0,1,73.26,127.41ZM176.65,157l14.16-15.08h8.38L194.4,158.2c-2.39,4.42-5.39,4.48-5.39,4.48h-5.78l.07-4.83-4.89,4.91-7.3-.05c-5.58-.3-3.19-5.63-3.19-5.63l4.43-9.13h-1.8L160.3,162.82H148.14c-7.08,0-5.58-8.24-5.58-8.24h-2c-5.38,9.45-11.77,9.25-11.77,9.25l-4-3L120,173.88h-6.38l7.33-19.3h-2.28c-2,4.52-5.39,8.64-11.17,9.25s-7.15-5.16-7.38-6a9.5,9.5,0,0,1,0-3.23H97.88c-2.09,4.52-5.39,8.64-11.17,9.25s-7.15-5.16-7.38-6c-.6-2.21.44-13.46,10.37-15.28,8.78-1.61,9.17,7.24,9.17,7.24h2.6a12,12,0,0,1,9-7.23c8.78-1.61,9.17,6.83,9.17,6.83H123l5.39-13.07h6l-3,7.64,3.79-1.61c5.68-2.11,6.38,7,6.38,7h2.59c.2-.2,3.39-8.24,10.57-8.24,8,0,6.38,6.94,6.38,6.94l-2.79,6.33h-7.58c-2,0-1.6,3,.2,3h7.18l7-9.85c-3.39-1-1.6-4.42-1.6-4.42l2.19-4.82h6c-1.6,3.82.4,3.62.4,3.62h9l-6.18,13.47C173.86,157.19,175.46,157.9,176.65,157Z" style="fill:none;stroke:#c3242b;stroke-miterlimit:2.61299991607666;stroke-width:2.0789999961853px"/><path d="M73.26,127.41c14.7-1.69,11.65,8.87,11.65,8.87l-3.39,8H74.94l3-7.64c2-5.43-5.78-4.62-11.37.2-2,1.71-7.58,7.24-1.2,9.65a39.14,39.14,0,0,1,8.58,4C79.33,156,73.15,163,68.16,163H50.41l2.7-6.23H67.59c1.77,0,1.4-1.61.6-2s-2.42-1.21-5.61-2.61c-9.29-3.64-7.18-9.85-7.18-9.85A22.15,22.15,0,0,1,73.26,127.41ZM176.65,157l14.16-15.08h8.38L194.4,158.2c-2.39,4.42-5.39,4.48-5.39,4.48h-5.78l.07-4.83-4.89,4.91-7.3-.05c-5.58-.3-3.19-5.63-3.19-5.63l4.43-9.13h-1.8L160.3,162.82H148.14c-7.08,0-5.58-8.24-5.58-8.24h-2c-5.38,9.45-11.77,9.25-11.77,9.25l-4-3L120,173.88h-6.38l7.33-19.3h-2.28c-2,4.52-5.38,8.64-11.17,9.25s-7.15-5.16-7.38-6a9.5,9.5,0,0,1,0-3.23H97.88c-2.09,4.52-5.39,8.64-11.17,9.25s-7.15-5.16-7.38-6c-.6-2.21.44-13.46,10.37-15.28,8.78-1.61,9.17,7.24,9.17,7.24h2.6a12,12,0,0,1,9-7.23c8.78-1.61,9.17,6.83,9.17,6.83H123l5.39-13.07h6l-3,7.64,3.79-1.61c5.68-2.11,6.38,7,6.38,7h2.59c.2-.2,3.39-8.24,10.57-8.24,8,0,6.38,6.94,6.38,6.94l-2.79,6.33h-7.58c-2,0-1.6,3,.2,3h7.18l7-9.85c-3.39-1-1.6-4.42-1.6-4.42l2.19-4.82h6c-1.6,3.82.4,3.62.4,3.62h9l-6.18,13.47C173.86,157.19,175.46,157.9,176.65,157Z" style="fill:#fff22d"/><path d="M93,149.74s-1.71-6.23-6.7.2c0,0-3.49,6.13-.6,8.24,0,0,3.29,1.41,5.87-3.62H88.7l1.6-4.82Zm20.8,0s-1.37-6.23-6.7.2c0,0-3.49,6.13-.6,8.24,0,0,3.29,1.41,5.87-3.62H109.5l1.6-4.82Zm20.57,2.41c-2.31,4.36-8.28,6.23-8.28,6.23a18.73,18.73,0,0,1,5.28-8.84C133.68,147.63,136,149.14,134.37,152.15Zm17.05-2.81h3.49s1.3-1.48,0-2.61C153.42,145.42,151.13,149.34,151.43,149.34Zm33.21,7,6.58-7.44s-1.2,6.83-4.39,7.64S184.63,156.38,184.63,156.38Z" style="fill:#c3242b"/></svg>