<svg xmlns="http://www.w3.org/2000/svg" viewBox="0 0 250 250"><title>Grocery</title><path d="M85.26,162.5a3.84,3.84,0,0,0-1-.13,1,1,0,0,1-1.08-1.3c.26-1.92.51-3.85.66-5.78A72.29,72.29,0,0,0,84,146.9a45.53,45.53,0,0,0-.57-5.86c-.06-.38-.15-.76-.22-1.14a.65.65,0,0,1,.44-.88c.16-.07.18-.14.17-.3a110,110,0,0,0-2.29-13.57c-1.21-5.38-2.64-10.7-4.34-15.95a47.25,47.25,0,0,1-1.44-4.67,15.1,15.1,0,0,1,0-7.41A9.43,9.43,0,0,1,80,91.5c1.62-1,3.23-2,4.83-3.06a6,6,0,0,1,1-.4h1.13a5.83,5.83,0,0,1,2.15,1.09c1.44.88,2.88,1.75,4.29,2.68a9.07,9.07,0,0,1,3.51,4.52,13.27,13.27,0,0,1,.6,6.45,26.84,26.84,0,0,1-1.63,6.08c-.42,1.12-.72,2.28-1.07,3.42s-.62,2.05-.92,3.08c-.41,1.43-.82,2.86-1.19,4.29-.64,2.49-1.26,5-1.78,7.51q-.54,2.6-1,5.21c-.17.91-.29,1.83-.41,2.75-.16,1.2-.29,2.4-.44,3.6,0,.14,0,.24.14.32a.7.7,0,0,1,.43.92,37.16,37.16,0,0,0-.6,4.43,65.59,65.59,0,0,0-.12,8.38,81.34,81.34,0,0,0,.78,8.22,1.6,1.6,0,0,1-.07.82.87.87,0,0,1-.75.57,4.2,4.2,0,0,0-1,.12ZM77.13,95.84a10.61,10.61,0,0,0-.93,3.79,18.06,18.06,0,0,0,.33,5.1,20.85,20.85,0,0,0,.65,2.55,2.53,2.53,0,0,0,0-.29,43.46,43.46,0,0,1-.49-4.63,24.43,24.43,0,0,1,.16-5.08c.08-.48.18-1,.27-1.44l0,0s0,0,0,0ZM90.19,123.9c.12-.07.13-.2.17-.31a99.32,99.32,0,0,0,4.35-14.92,35.52,35.52,0,0,0,.82-9.81,11.2,11.2,0,0,0-.89-3.77,5.2,5.2,0,0,0-3.74-3.15,2.1,2.1,0,0,0-.85-.08,5.16,5.16,0,0,1,1.2.73,8,8,0,0,1,2.48,4.09,21.15,21.15,0,0,1,.45,8A55.72,55.72,0,0,1,92.81,112c-.8,3.36-1.54,6.74-2.29,10.12a9,9,0,0,0-.33,1.79c-.08,0-.08.09,0,.18Zm-2.3-20.5h0c0-.28,0-.55,0-.83,0-2.53.06-5.06,0-7.6a20.25,20.25,0,0,0-.18-2.85c0-.25-.14-.35-.41-.34-.52,0-1,0-1.57,0-.72,0-.72,0-.78.72v.07c-.1,1.26-.11,2.53-.12,3.79,0,2.38,0,4.75.09,7.13.05,2.63.11,5.26.2,7.89.09,2.82.18,5.64.28,8.45s.22,5.92.33,8.89c.13,3.32.28,6.63.41,9.95,0,.17,0,.32.25.32s.22-.16.23-.31q.22-5.41.45-10.81.18-4.41.33-8.82.14-4.13.26-8.25C87.78,108.32,87.83,105.86,87.89,103.4Zm-.18,24c.4-2.14.74-4.28,1-6.42.26-2,.54-3.91.77-5.86s.38-3.66.57-5.49c.25-2.48.4-5,.49-7.47a40.68,40.68,0,0,0-.18-5.92,10,10,0,0,0-.67-2.84,2.23,2.23,0,0,0-.84-1.09c-.22-.13-.3-.11-.3.17,0,3,0,6-.06,9.06,0,2.67-.08,5.33-.16,8-.1,3.37-.24,6.75-.36,10.12-.06,1.6-.13,3.2-.19,4.79C87.78,125.46,87.75,126.45,87.71,127.44Zm-2.64,0h.08c0-1.09-.1-2.17-.14-3.26-.11-2.87-.23-5.74-.33-8.62s-.19-5.66-.25-8.49c-.07-3.24-.1-6.48-.14-9.73,0-1.59,0-3.18,0-4.76,0-.1.06-.25-.05-.3s-.23,0-.33.12a2.35,2.35,0,0,0-.77,1.1,15.6,15.6,0,0,0-.79,5,54.3,54.3,0,0,0,.06,5.46c.07,1.25.12,2.51.23,3.76q.23,2.75.52,5.5c.16,1.56.35,3.13.55,4.69s.46,3.41.71,5.11C84.61,124.47,84.85,126,85.07,127.44Zm3.83-3.12c.06-.18.12-.36.17-.54.92-3.32,1.76-6.67,2.46-10.05.49-2.36.91-4.72,1.21-7.11.21-1.61.36-3.22.42-4.84a20.42,20.42,0,0,0-.43-5.62,5.44,5.44,0,0,0-1.52-2.86,2.35,2.35,0,0,0-.84-.51,1.17,1.17,0,0,0,0,.17,28.94,28.94,0,0,1,.93,7.17,76.05,76.05,0,0,1-.24,8.42c-.17,2.21-.41,4.42-.7,6.61C90,118.23,89.46,121.28,88.9,124.32Zm-5.09-.45h.06c0-.1,0-.19,0-.29q-.7-3.81-1.23-7.65-.43-3.13-.7-6.28c-.17-2-.28-3.94-.34-5.92a52.71,52.71,0,0,1,.11-5.46,25.26,25.26,0,0,1,.79-5.15c0-.08.13-.2,0-.27s-.19,0-.27.09a4,4,0,0,0-1.64,2,13.06,13.06,0,0,0-.82,4.56,44.09,44.09,0,0,0,.44,7.27c.31,2.41.74,4.8,1.23,7.18s1.09,4.94,1.73,7.38C83.36,122.19,83.58,123,83.81,123.87Zm-1.08-32-.33,0A5.17,5.17,0,0,0,78.31,95a12.29,12.29,0,0,0-1,4.53,34.37,34.37,0,0,0,.54,7.32c.39,2.37.93,4.71,1.55,7,.78,2.92,1.69,5.79,2.7,8.63.17.48.35,1,.53,1.44a.37.37,0,0,0,0-.24c-.77-3.85-1.64-7.68-2.53-11.5a56.92,56.92,0,0,1-1.45-8.11,22,22,0,0,1,.24-6.4C79.45,95.3,80.39,93.12,82.73,91.83Zm13,15.36c0-.11.09-.22.12-.34a19.74,19.74,0,0,0,.83-7.56,12.12,12.12,0,0,0-.63-2.82c-.05-.15-.06-.15-.19-.2C96.63,99.91,96.24,103.54,95.77,107.19ZM87.16,89.5a.82.82,0,1,0-1.64,0,.81.81,0,0,0,.8.83A.82.82,0,0,0,87.16,89.5ZM83.9,124.11a.22.22,0,0,0,0-.06.21.21,0,0,0,0-.06.19.19,0,0,0,0,.06A.22.22,0,0,0,83.9,124.11Z" style="fill:#f69321"/><path d="M35.66,102a1,1,0,0,1,.73-.27c1.69,0,3.38.08,5.06.17.77,0,1.53,0,2.3-.06,1,0,2-.07,3-.11a1.77,1.77,0,0,1,.5,0,.42.42,0,0,1,.36.48c0,.27-.2.34-.43.36a7.37,7.37,0,0,0-1.25.2,2,2,0,0,0-1.53,1.51,12,12,0,0,0-.32,3.1C44,112.58,44,117.77,44,123c0,.11-.07.27.09.31s.18-.11.25-.19q5.4-6.87,10.79-13.75a44.91,44.91,0,0,0,2.8-3.77,4.11,4.11,0,0,0,.59-1.3,1.38,1.38,0,0,0-.72-1.68c-.2-.12-.4-.26-.31-.55s.34-.34.59-.33c.88,0,1.75.07,2.63.14a25.12,25.12,0,0,0,3,0l2.93-.1a1.55,1.55,0,0,1,.49.07c.23.07.28.26.26.48a.33.33,0,0,1-.36.32,7.91,7.91,0,0,0-5.23,2.63c-1.65,1.66-3.08,3.53-4.58,5.33-2.84,3.41-5.67,6.84-8.43,10.31l-.76,1c-.33.43-.33.43,0,.85,1.14,1.48,2.28,3,3.43,4.43,3,3.78,5.9,7.56,8.94,11.27q2.4,2.94,5,5.69a11.2,11.2,0,0,0,4.65,3.07,6.79,6.79,0,0,0,1.9.33l.23,0c.22,0,.44.09.45.36s-.21.4-.45.44a3.59,3.59,0,0,1-.63.06c-1.77,0-3.53,0-5.3-.05A8,8,0,0,1,61,146a49.45,49.45,0,0,1-5.38-6.17q-5-6.41-9.75-13c-.51-.71-1-1.44-1.51-2.16-.07-.11-.13-.26-.3-.2s-.08.21-.08.32c0,3.56,0,7.11,0,10.67,0,2.23,0,4.47.13,6.7a20.57,20.57,0,0,0,.31,3.11,2.18,2.18,0,0,0,2.16,2.06,11.8,11.8,0,0,0,1.49.17c.23,0,.42.07.45.34a.44.44,0,0,1-.39.5,6.73,6.73,0,0,1-1.73,0,67.62,67.62,0,0,0-7.72,0c-.48,0-1,0-1.43,0a2.71,2.71,0,0,1-.5,0,.42.42,0,0,1-.38-.47c0-.26.18-.37.42-.37a7.74,7.74,0,0,0,1.28-.19,1.5,1.5,0,0,0,1.15-1,8.43,8.43,0,0,0,.47-2.31c.19-1.81.21-3.64.23-5.46.09-9.25,0-18.51,0-27.76,0-1.67,0-3.33-.13-5a6.59,6.59,0,0,0-.12-.89,2.47,2.47,0,0,0-2.29-2.16,12,12,0,0,0-1.23-.12,1.24,1.24,0,0,1-.56-.15Z" style="fill:#689149"/><path d="M215.66,137.3c-.09.61-.15,1.23-.27,1.84a13.29,13.29,0,0,1-3,6.52,10.24,10.24,0,0,1-6.29,3.37,15.51,15.51,0,0,1-5.59-.17,11.59,11.59,0,0,1-2-.62,5.59,5.59,0,0,1-1.78-1,.7.7,0,0,1-.23-.49,51.23,51.23,0,0,1,0-5.33c.05-1.09.09-2.17.21-3.26,0-.23,0-.46.35-.46s.34.25.35.46c0,.68,0,1.35.08,2A8.32,8.32,0,0,0,199,144.1a6.17,6.17,0,0,0,2.12,1.87,7.91,7.91,0,0,0,5,.85,6.46,6.46,0,0,0,4.87-3.54,9.71,9.71,0,0,0,1.1-5.35,11.08,11.08,0,0,0-1.26-4.74,20,20,0,0,0-3-4c-.58-.63-1.21-1.22-1.8-1.85-.91-1-1.86-1.89-2.77-2.87a25.63,25.63,0,0,1-4.07-5.58,13.75,13.75,0,0,1-1.27-3.61,17.38,17.38,0,0,1-.17-5.48,11.71,11.71,0,0,1,.64-2.59,9.07,9.07,0,0,1,.82-1.74,10,10,0,0,1,2.83-3,9.33,9.33,0,0,1,1.27-.71,10,10,0,0,1,3.56-.89,16.52,16.52,0,0,1,6,.62,5.73,5.73,0,0,0,1.54.25c.38,0,.49.2.46.58-.09,1.12-.15,2.24-.16,3.36s0,2.35-.06,3.53a3.74,3.74,0,0,1-.06.53c0,.19-.06.4-.32.39s-.29-.22-.32-.4c-.07-.43-.09-.86-.17-1.29a7.43,7.43,0,0,0-.77-2.64,5.54,5.54,0,0,0-3.61-2.53,7.47,7.47,0,0,0-4.55.11,5.78,5.78,0,0,0-3.59,4.06,9.3,9.3,0,0,0,1.77,8.68,53.79,53.79,0,0,0,5,5.39,32.55,32.55,0,0,1,5.41,6.42,14.68,14.68,0,0,1,2.15,6.72c0,.07,0,.16.06.22Z" style="fill:#689149"/><path d="M138.53,140c0-1,0-2,0-3q-.07-4.6-.15-9.2-.1-5.9-.21-11.79,0-1.92-.07-3.83c0-1.35,0-2.71-.07-4.06a19.24,19.24,0,0,0-.23-2.88,2.6,2.6,0,0,0-2.59-2.5,15,15,0,0,0-1.59-.13.4.4,0,0,1-.43-.35c-.07-.25.13-.31.26-.39a1.19,1.19,0,0,1,.68-.13c1.53,0,3.06.07,4.59.16,1.28.08,2.55-.13,3.83-.15h1.37a1.7,1.7,0,0,1,.33,0c.24,0,.39.18.36.44a.41.41,0,0,1-.43.38c-.19,0-.38,0-.56,0-1.64.3-2.22.71-2.47,2.55a30.1,30.1,0,0,0-.13,4c0,3.74,0,7.49,0,11.23q0,9-.05,18c0,3,0,6.07-.06,9.1a4.37,4.37,0,0,1-.12,1c-.09.34-.29.42-.56.21a8.08,8.08,0,0,1-1.24-1.24c-.64-.73-1.25-1.49-1.87-2.24s-1.11-1.37-1.65-2.07c-.79-1-1.59-2-2.38-3-.57-.72-1.12-1.45-1.7-2.15-1.25-1.53-2.39-3.16-3.65-4.68-.91-1.11-1.7-2.3-2.6-3.42-.58-.72-1.16-1.44-1.7-2.19-.4-.56-.83-1.09-1.22-1.65-.56-.79-1.16-1.56-1.73-2.36-.36-.51-.75-1-1.12-1.52l-1.68-2.28-6.59-9-.27-.36a5.9,5.9,0,0,0,0,1.16c0,2,.09,4,.13,5.93q.1,4.61.2,9.23c0,1.92.09,3.84.13,5.76s0,3.82.12,5.73,0,3.55.26,5.32a12.76,12.76,0,0,0,.36,1.82,2.42,2.42,0,0,0,2.18,1.86,14.65,14.65,0,0,0,1.62.16c.24,0,.45,0,.47.34s-.14.45-.46.5a14.47,14.47,0,0,1-2.09,0c-1.36,0-2.71-.23-4.06-.12s-2.61.07-3.91.16a7,7,0,0,1-.9,0c-.34,0-.35-.24-.36-.48s.15-.35.4-.36a6.39,6.39,0,0,0,2-.34,1.65,1.65,0,0,0,1-1.08,11.93,11.93,0,0,0,.48-3.52c.09-2.38.06-4.75.06-7.13q0-8.63,0-17.27,0-6.15,0-12.3c0-1.2,0-2.4,0-3.6a3.72,3.72,0,0,1,.14-1c.13-.45.38-.52.72-.2a7.21,7.21,0,0,1,.86,1l8.39,11.22q2.84,3.79,5.7,7.57,2.44,3.24,4.88,6.49c1.27,1.7,2.51,3.41,3.77,5.11l3.91,5.26Z" style="fill:#689149"/><path d="M181.05,136.12c0-1.85,0-4-.05-6.18a9.84,9.84,0,0,0-.28-2,2.13,2.13,0,0,0-1.23-1.45,5.3,5.3,0,0,0-2.3-.45c-.42,0-.62-.32-.42-.64a.51.51,0,0,1,.46-.23c.82,0,1.64,0,2.46,0,1.43,0,2.86.17,4.29.11l3.63-.14a4,4,0,0,1,.89,0,.39.39,0,0,1,.35.43.36.36,0,0,1-.37.39,9.29,9.29,0,0,0-1.12.16,2.06,2.06,0,0,0-1.74,1.58,10.41,10.41,0,0,0-.29,2.54c-.14,4.33,0,8.66-.07,13,0,.63,0,1.27-.05,1.9a1.51,1.51,0,0,1-.77,1.31,16.88,16.88,0,0,1-5,2,25.51,25.51,0,0,1-9.89.3,22.78,22.78,0,0,1-2.42-.53,19.89,19.89,0,0,1-8.48-4.68,17.92,17.92,0,0,1-3.1-3.81c-.42-.68-.76-1.39-1.11-2.1a30.34,30.34,0,0,1-1.68-4.53,24.9,24.9,0,0,1-.65-3,32.32,32.32,0,0,1-.16-9.67c.06-.47.05-.94.15-1.4a39.28,39.28,0,0,1,1.87-6.27,20.19,20.19,0,0,1,1.27-2.55,20.78,20.78,0,0,1,3.46-4.48,16.14,16.14,0,0,1,2.14-1.74,17.15,17.15,0,0,1,2.36-1.34,14.69,14.69,0,0,1,2-.82,22.53,22.53,0,0,1,3.79-.84,29.25,29.25,0,0,1,9.69.3c1.66.28,3.26.84,5,1,.51,0,1,.09,1.51.17s.49.22.47.61-.06,1-.11,1.49c-.11,1.28-.15,2.57-.2,3.86s0,2.48,0,3.72a3,3,0,0,1-.07.56c0,.18-.14.33-.36.32s-.27-.19-.29-.35c-.08-.56-.12-1.13-.21-1.68a7.87,7.87,0,0,0-1.59-3.93,9.67,9.67,0,0,0-3.07-2.31,16.44,16.44,0,0,0-2.76-1,19.57,19.57,0,0,0-7.59-.57,11.9,11.9,0,0,0-3.77.89,16.32,16.32,0,0,0-3.12,1.81,14.14,14.14,0,0,0-4.69,6.6,22.75,22.75,0,0,0-1,3.7c-.18.94-.33,1.88-.43,2.84a34.77,34.77,0,0,0-.1,6.18,30.61,30.61,0,0,0,1.53,7.57,26,26,0,0,0,2.72,5.79,17.84,17.84,0,0,0,3,3.42,17.15,17.15,0,0,0,4.09,2.87,15.54,15.54,0,0,0,9.86,1.33,8.9,8.9,0,0,0,2-.6,2.72,2.72,0,0,0,1.76-2.7C181,140.79,181.05,138.61,181.05,136.12Z" style="fill:#689149"/><path d="M100.73,157.14q0,.9,0,1.81c0,1,0,2,0,3,0,.18,0,.25-.23.25-.86,0-.86,0-.86-.83,0-1.91,0-3.82,0-5.73,0-.28.07-.34.36-.38a1.5,1.5,0,0,1,1.73,1c.51,1,1.13,1.91,1.72,2.84a9.85,9.85,0,0,1,.69,1.33c.1-.08.06-.17.06-.25,0-1.52,0-3-.07-4.56,0-.27.08-.33.34-.33.78,0,.78,0,.78.78,0,1.92,0,3.84,0,5.76,0,.33-.1.44-.41.39a1,1,0,0,0-.33,0,1,1,0,0,1-1.12-.61c-.82-1.5-1.79-2.91-2.58-4.43l0-.09Z" style="fill:#689149"/><path d="M161.55,157c.05,1.61,0,3.22,0,4.83,0,.3-.08.37-.37.36-.75,0-.75,0-.75-.77,0-1.94,0-3.89,0-5.83,0-.25.06-.31.32-.35a1.48,1.48,0,0,1,1.75.93,21.32,21.32,0,0,0,1.53,2.57c.36.54.6,1.14.93,1.68,0-.54,0-1.07,0-1.61,0-1.08,0-2.15,0-3.23,0-.25.06-.32.31-.32.79,0,.79,0,.79.78,0,1.93,0,3.86,0,5.8,0,.28-.09.31-.35.36a1.47,1.47,0,0,1-1.72-1C163.27,159.83,162.32,158.5,161.55,157Z" style="fill:#689149"/><path d="M157.72,158.64a3.61,3.61,0,0,1-1.35,3.1,2.72,2.72,0,0,1-1,.46,3.7,3.7,0,0,1-2.39-.09,2.56,2.56,0,0,1-1.4-1.48,4.51,4.51,0,0,1-.12-3.17,3.14,3.14,0,0,1,3.83-2.18,2.85,2.85,0,0,1,2.39,2.83C157.74,158.28,157.72,158.46,157.72,158.64Zm-1.19.14a3.56,3.56,0,0,0-.07-.88,1.89,1.89,0,0,0-1.67-1.68,1.91,1.91,0,0,0-2.09,1.38,3.7,3.7,0,0,0,0,2.45,1.7,1.7,0,0,0,1.52,1.25,1.87,1.87,0,0,0,1.94-1A2.7,2.7,0,0,0,156.54,158.79Z" style="fill:#689149"/><path d="M127.05,159.24c0,.59,0,1.1,0,1.6s0,.76,0,1.13c0,.21-.07.26-.27.26-.87,0-.87,0-.87-.85,0-1.92,0-3.84,0-5.77,0-.23,0-.34.3-.33a14.26,14.26,0,0,1,2.39.05,1.68,1.68,0,0,1,1.58,1.57,1.87,1.87,0,0,1-1.38,2.05c-.51.17-.51.17-.17.6l1,1.29,1,1.36h-1.37c-.11,0-.15-.12-.2-.2l-1.77-2.46C127.25,159.47,127.18,159.4,127.05,159.24Zm0-1.95h0c0,.3,0,.6,0,.9,0,.1,0,.21.14.22a2.16,2.16,0,0,0,1.35-.25A1,1,0,0,0,129,157a.89.89,0,0,0-.76-.74,4.26,4.26,0,0,0-1-.05c-.15,0-.22.06-.21.22S127.05,157,127.05,157.3Z" style="fill:#689149"/><path d="M187.45,159.34v2.05c0,.87,0,.86-.88.85-.2,0-.26-.06-.26-.26,0-.83,0-1.67,0-2.5,0-1.28,0-2.55,0-3.83,0-.28.08-.36.35-.35a10.89,10.89,0,0,1,2.61.12,1.69,1.69,0,0,1,1.29,2A1.87,1.87,0,0,1,189,159c-.26.05-.29.1-.12.32.64.82,1.27,1.65,1.9,2.48a1,1,0,0,1,.24.4h-1.26c-.15,0-.19-.13-.26-.23l-1.81-2.51C187.61,159.44,187.58,159.35,187.45,159.34Zm0-2c0,.3,0,.6,0,.9,0,.12,0,.2.17.21a2.46,2.46,0,0,0,1.11-.15,1.08,1.08,0,0,0,.66-1.21,1,1,0,0,0-.91-.82c-.24,0-.49,0-.73,0s-.32.07-.3.31S187.45,157,187.45,157.3Z" style="fill:#689149"/><path d="M135.79,155.31c.73,0,.76,0,1,.79.31,1.09.76,2.13,1.12,3.19.31.9.64,1.79,1,2.68.07.2.07.27-.18.27-1,0-1,0-1.31-.91-.22-.63-.22-.63-.88-.63s-1.24,0-1.87,0a.28.28,0,0,0-.33.23c-.11.37-.26.73-.38,1.1,0,.16-.13.23-.29.2s-.48.07-.74,0-.2-.15-.14-.27c.41-.84.62-1.76,1-2.63s.68-1.91,1-2.85c.11-.29.14-.61.26-.9a.4.4,0,0,1,.49-.29Zm0,1.32c-.27,1-.66,2-1,2.9-.06.18-.09.28.17.28.55,0,1.11,0,1.67,0,.18,0,.24,0,.17-.23C136.45,158.63,136.07,157.69,135.78,156.63Z" style="fill:#689149"/><path d="M198.82,158.48c.68-.77,1.19-1.57,1.78-2.3.21-.26.43-.5.64-.75a.3.3,0,0,1,.26-.12h1.12c.06.12,0,.18-.08.24-.78,1-1.55,1.91-2.35,2.85-.18.22-.15.33,0,.52.87,1.08,1.73,2.16,2.64,3.31H201.4c-.12,0-.15-.11-.21-.19l-2.1-2.83-.18-.24c-.13.08-.08.19-.08.28,0,.89,0,1.78,0,2.66,0,.23,0,.33-.3.33-.81,0-.81,0-.81-.81,0-1.93,0-3.86,0-5.8,0-.27.08-.33.34-.33.78,0,.78,0,.78.79S198.82,157.64,198.82,158.48Z" style="fill:#689149"/><path d="M114.87,158.8q0-1.58,0-3.17c0-.15,0-.33.21-.33a12.58,12.58,0,0,1,2.42.05,1.92,1.92,0,0,1,1.67,1.55,2.29,2.29,0,0,1-1,2.33,3,3,0,0,1-1.9.46c-.24,0-.33.05-.32.31,0,.65,0,1.31,0,2,0,.19,0,.29-.25.27a3.77,3.77,0,0,0-.63,0c-.22,0-.26-.08-.25-.27C114.87,160.91,114.87,159.85,114.87,158.8Zm1.13-1.35c0,.34,0,.69,0,1s.07.27.27.28a2.08,2.08,0,0,0,1.15-.24,1.23,1.23,0,0,0,.6-1.24,1.08,1.08,0,0,0-.88-1,3.16,3.16,0,0,0-.89-.07c-.18,0-.26.07-.25.26S116,157.12,116,157.45Z" style="fill:#689149"/><path d="M205.25,158.8c0-1.07,0-2.13,0-3.2,0-.24.07-.3.3-.3q1.53,0,3.07,0c.22,0,.32,0,.31.29,0,.81.09.67-.66.68h-1.63c-.16,0-.25,0-.25.21,0,.51,0,1,0,1.53,0,.2.11.18.24.18.61,0,1.22,0,1.83,0,.25,0,.35.06.34.33,0,.59,0,.59-.61.59h-1.57c-.17,0-.24,0-.24.22,0,.57,0,1.13,0,1.7,0,.22.11.23.27.23.64,0,1.29,0,1.93,0,.26,0,.35.08.34.34,0,.63,0,.63-.63.63-.9,0-1.8,0-2.7,0-.27,0-.36-.06-.35-.34C205.26,160.87,205.25,159.83,205.25,158.8Z" style="fill:#689149"/><path d="M212.77,162.34a8,8,0,0,1-1-.11c-.15,0-.24-.09-.22-.26s0-.58.08-.75.44,0,.67.07a2.46,2.46,0,0,0,1.68-.18.92.92,0,0,0,.38-1,.71.71,0,0,0-.49-.62c-.47-.19-.92-.4-1.38-.6a1.87,1.87,0,0,1-.42-3.16,2.45,2.45,0,0,1,1.47-.51,5.85,5.85,0,0,1,1.42.07s.08,0,.1,0c.23.26,0,.56.07.84s-.16.15-.26.13a4.55,4.55,0,0,0-1.17-.14,1.08,1.08,0,0,0-1.09.71,1,1,0,0,0,.78,1.18,8.2,8.2,0,0,1,1.36.55,1.84,1.84,0,0,1,.76,2.12,2.25,2.25,0,0,1-2,1.58C213.24,162.32,213,162.32,212.77,162.34Z" style="fill:#689149"/><path d="M109.41,162.33a6.09,6.09,0,0,1-1-.1c-.08,0-.22,0-.22-.11a5,5,0,0,1,0-.93c0-.13.19,0,.28,0a3.52,3.52,0,0,0,1.68.11,1,1,0,0,0,.83-.91.88.88,0,0,0-.46-.86,14.81,14.81,0,0,0-1.45-.61,1.82,1.82,0,0,1-1.09-1.86,2.05,2.05,0,0,1,2-1.82,6,6,0,0,1,1.62.06c.07,0,.18,0,.18.1a5.79,5.79,0,0,1-.06.83c0,.14-.17.06-.25,0a3.75,3.75,0,0,0-1.19-.11,1.27,1.27,0,0,0-.74.25.81.81,0,0,0-.06,1.29,2.59,2.59,0,0,0,.78.44l.86.37a1.91,1.91,0,0,1,.21,3.36A3.22,3.22,0,0,1,109.41,162.33Z" style="fill:#689149"/><path d="M174.17,162.33a7.12,7.12,0,0,1-1.11-.1.25.25,0,0,1-.25-.26s0-.07,0-.1c-.07-.77-.07-.77.66-.62a3,3,0,0,0,1.42,0,1,1,0,0,0,.79-.8.9.9,0,0,0-.57-1c-.39-.21-.82-.34-1.22-.51a1.86,1.86,0,0,1-1.07-.93,1.89,1.89,0,0,1,.22-1.92,2.24,2.24,0,0,1,1.72-.86,6.32,6.32,0,0,1,1.52.06c.16,0,.21.08.2.23s0,.55-.09.71-.42,0-.64-.06a3.15,3.15,0,0,0-1.19.05.89.89,0,0,0-.66.72.82.82,0,0,0,.39.85,3.79,3.79,0,0,0,.68.34l.85.37a1.91,1.91,0,0,1,.23,3.31A3.17,3.17,0,0,1,174.17,162.33Z" style="fill:#689149"/><path d="M143.12,159.25c0,.9,0,1.8,0,2.7,0,.21-.05.29-.28.29-.86,0-.86,0-.86-.86,0-1.57,0-3.13,0-4.7,0-.36-.11-.43-.43-.41s-.82,0-1.23,0c-.17,0-.23-.05-.23-.23,0-.74,0-.74.7-.74,1.3,0,2.6,0,3.9,0,.26,0,.32.08.31.32,0,.64,0,.64-.62.64-.3,0-.6,0-.9,0s-.38.06-.38.36C143.13,157.5,143.12,158.38,143.12,159.25Z" style="fill:#689149"/><path d="M180.85,159.27c0-.89,0-1.78,0-2.67,0-.27-.09-.34-.34-.33-.45,0-.91,0-1.37,0-.16,0-.21,0-.22-.2,0-.76-.05-.76.7-.76h3.9c.25,0,.35,0,.34.32,0,.65,0,.65-.64.65-.3,0-.6,0-.9,0s-.39.06-.39.37c0,1.74,0,3.49,0,5.23,0,.29-.07.38-.37.37-.75,0-.75,0-.75-.74Z" style="fill:#689149"/><path d="M95.42,158.78c0-1.06,0-2.13,0-3.19,0-.22.06-.28.28-.28.88,0,.88,0,.88.85,0,1.92,0,3.84,0,5.76,0,.26-.07.33-.33.33-.82,0-.82,0-.82-.83v-2.63Z" style="fill:#689149"/><path d="M147.45,158.8c0-1.06,0-2.11,0-3.17,0-.27.08-.35.34-.33s.42,0,.63,0,.27,0,.18.23a.8.8,0,0,0,0,.3c0,2,0,4,0,6.07,0,.26-.06.34-.33.34-.81,0-.81,0-.81-.81S147.45,159.68,147.45,158.8Z" style="fill:#689149"/><path d="M122.82,158.8c0,1,0,2.07,0,3.1,0,.24,0,.35-.32.34-.81,0-.81,0-.81-.82,0-1.91,0-3.82,0-5.73,0-.31.1-.39.4-.39.74,0,.74,0,.74.73Q122.82,157.42,122.82,158.8Z" style="fill:#689149"/><path d="M193.5,158.76c0-1,0-2.09,0-3.13,0-.25.07-.32.32-.32.81,0,.81,0,.81.79,0,1.92,0,3.84,0,5.76,0,.27,0,.39-.35.38-.77,0-.77,0-.77-.79v-2.7Z" style="fill:#689149"/><path d="M39.17,160.72c.28-1.36.69-2.62,1-3.89.11-.43.24-.86.35-1.28a.27.27,0,0,1,.29-.24c1,0,1,0,1.27.92.39,1.43.86,2.84,1.18,4.3,0,0,0,0,.06,0l.58-2.38c.22-.87.44-1.74.64-2.62a.29.29,0,0,1,.33-.27c.89,0,.89,0,.66.84q-.76,2.9-1.5,5.8c-.05.21-.13.35-.37.3h-.13c-.32,0-.72.13-.93-.06s-.21-.57-.29-.86q-.49-1.78-1-3.56c-.08-.29-.13-.58-.2-.92-.36,1.74-.9,3.4-1.32,5.08-.06.24-.16.36-.42.33a4.41,4.41,0,0,0-.73,0,.28.28,0,0,1-.34-.25q-.81-3.19-1.65-6.38c-.07-.25,0-.3.23-.3.9,0,.91,0,1.12.87C38.42,157.67,38.85,159.14,39.17,160.72Z" style="fill:#689149"/><path d="M67.54,159.34c0,.35,0,.67,0,1,0,.56,0,1.11,0,1.67,0,.17-.05.22-.23.23-.91,0-.91,0-.91-.88,0-1.91,0-3.82,0-5.73,0-.27.08-.34.34-.34a13.82,13.82,0,0,1,2.36,0A1.67,1.67,0,0,1,70.68,157a1.85,1.85,0,0,1-1.41,2l-.49.14,2.36,3.12H69.83c-.16,0-.2-.12-.27-.22l-1.73-2.4C67.76,159.52,67.72,159.4,67.54,159.34Zm0-2h0c0,.29,0,.58,0,.87,0,.1,0,.21.13.22a1.92,1.92,0,0,0,1.48-.34,1,1,0,0,0,.31-1.12.9.9,0,0,0-.71-.67,3.8,3.8,0,0,0-1-.06c-.17,0-.2.1-.19.24S67.54,157,67.54,157.32Z" style="fill:#689149"/><path d="M49.27,158.76c0-1.05,0-2.11,0-3.16,0-.21,0-.29.27-.29.87,0,.87,0,.87.86,0,.58,0,1.15,0,1.73,0,.19,0,.28.25.28q1.38,0,2.76,0c.22,0,.25-.09.25-.28,0-.77,0-1.53,0-2.3,0-.2,0-.29.27-.29.85,0,.85,0,.85.84,0,1.92,0,3.84,0,5.76,0,.25-.05.34-.33.34-.8,0-.8,0-.8-.82s0-1.33,0-2c0-.21,0-.29-.27-.29-.91,0-1.82,0-2.73,0-.21,0-.26.08-.26.28,0,.84,0,1.69,0,2.53,0,.24-.07.3-.3.3-.84,0-.84,0-.84-.85S49.27,159.64,49.27,158.76Z" style="fill:#689149"/><path d="M58.87,158.77c0-1.06,0-2.11,0-3.17,0-.23.06-.31.3-.3q1.53,0,3.07,0c.22,0,.31,0,.31.29,0,.68,0,.68-.68.68h-1.6c-.2,0-.27.06-.27.26,0,.47,0,.93,0,1.4,0,.21.07.27.27.27.61,0,1.22,0,1.83,0,.23,0,.33,0,.32.3,0,.65,0,.65-.67.65-.49,0-1,0-1.47,0-.21,0-.29,0-.29.28,0,.51,0,1,0,1.53,0,.24.05.33.31.32.64,0,1.29,0,1.93,0,.23,0,.3.07.3.3,0,.68,0,.68-.67.68-.9,0-1.8,0-2.7,0-.24,0-.3-.07-.3-.3C58.88,160.88,58.87,159.83,58.87,158.77Z" style="fill:#689149"/><path d="M74.59,158.75c0-1.05,0-2.11,0-3.16,0-.22.06-.28.28-.28q1.55,0,3.1,0c.22,0,.28.07.28.28,0,.68,0,.68-.68.68H76c-.19,0-.25.06-.25.25,0,.48,0,1,0,1.43,0,.21.08.24.26.24h1.86c.21,0,.29.05.29.28,0,.67,0,.67-.65.67-.48,0-1,0-1.43,0-.29,0-.33.09-.32.34,0,.48,0,1,0,1.43,0,.32.11.37.38.36.62,0,1.24,0,1.86,0,.21,0,.29.06.29.28,0,.7,0,.7-.7.7-.88,0-1.75,0-2.63,0-.25,0-.34,0-.34-.32C74.6,160.86,74.59,159.81,74.59,158.75Z" style="fill:#689149"/><path d="M90.19,123.9v.18c-.06-.08-.07-.14,0-.18Z" style="fill:#fefefe"/><path d="M83.9,124.11a.22.22,0,0,1,0-.06.19.19,0,0,1,0-.06.21.21,0,0,1,0,.06A.22.22,0,0,1,83.9,124.11Z" style="fill:#fefefe"/><path d="M77.13,95.84l0-.07s0,0,0,0l0,0Z" style="fill:#fefefe"/></svg>