<svg xmlns="http://www.w3.org/2000/svg" viewBox="0 0 250 250"><title>CR</title><path d="M104.59,151c-.54-.06-1.09-.1-1.63-.17-1.82-.22-3.66-.41-5.47-.7a48,48,0,0,1-9.34-2.53,46.53,46.53,0,0,1-14-8.16A36.48,36.48,0,0,1,62.6,122.41a29.78,29.78,0,0,1-1.29-6.72c0-.6-.11-1.19-.16-1.79s0-1.13,0-1.69.12-1.22.16-1.83A31.55,31.55,0,0,1,64.5,98.86,38.81,38.81,0,0,1,77.38,84.12a49.11,49.11,0,0,1,18.34-7.87,52.11,52.11,0,0,1,8-1.08l1.8-.08A4.27,4.27,0,0,0,106,75h2.46a4.62,4.62,0,0,0,.56.08,52.6,52.6,0,0,1,19.86,4.39,44,44,0,0,1,16.46,12.18,34.1,34.1,0,0,1,7.28,14.75,28.32,28.32,0,0,1,.65,5.24c0,.24.06.48.09.72v1.38c-.05.63-.12,1.27-.16,1.9a31.31,31.31,0,0,1-2.83,10.8,38.41,38.41,0,0,1-12.51,15,51.48,51.48,0,0,1-26.3,9.42c-.55,0-1.09.11-1.63.16Zm2.69-74.77v.09l-3.26.14a47,47,0,0,0-6.69.8A49.49,49.49,0,0,0,81.83,82.9,40,40,0,0,0,67.52,96.22a31.36,31.36,0,0,0-4.93,14.84,29.77,29.77,0,0,0,.2,5.94,31.08,31.08,0,0,0,3.77,11.27,38.49,38.49,0,0,0,13.18,13.66,49.89,49.89,0,0,0,24,7.64c2.12.14,4.25.06,6.37,0a42.29,42.29,0,0,0,7-.79,49.42,49.42,0,0,0,15.85-5.75A39.9,39.9,0,0,0,147,129.9,31.37,31.37,0,0,0,152,115a29.5,29.5,0,0,0-.46-7.57,32.22,32.22,0,0,0-5.55-12.82,41,41,0,0,0-14.77-12.54,48.62,48.62,0,0,0-16.61-5.16C112.15,76.61,109.7,76.48,107.27,76.27Z" style="fill:#0468b3"/><path d="M107.27,76.27c2.43.21,4.87.34,7.3.64a48.62,48.62,0,0,1,16.61,5.16,41,41,0,0,1,14.77,12.54,32.22,32.22,0,0,1,5.55,12.82A29.5,29.5,0,0,1,152,115,31.37,31.37,0,0,1,147,129.9a39.9,39.9,0,0,1-14.05,13.16,49.42,49.42,0,0,1-15.85,5.75,42.29,42.29,0,0,1-7,.79c-2.12,0-4.26.11-6.37,0a49.89,49.89,0,0,1-24-7.64,38.49,38.49,0,0,1-13.18-13.66A31.08,31.08,0,0,1,62.8,117a29.77,29.77,0,0,1-.2-5.94,31.36,31.36,0,0,1,4.93-14.84A40,40,0,0,1,81.83,82.9a49.49,49.49,0,0,1,15.47-5.59,47,47,0,0,1,6.69-.8l3.26-.14Zm-.57,2.46-2.82.13a45.65,45.65,0,0,0-6.84.88,46.68,46.68,0,0,0-14.51,5.44A37.85,37.85,0,0,0,70.27,96.32,29.41,29.41,0,0,0,65,110.56a27.39,27.39,0,0,0,.23,6.78,29.5,29.5,0,0,0,4.45,11.51,37.27,37.27,0,0,0,12.66,11.88,48.26,48.26,0,0,0,23,6.51,51.82,51.82,0,0,0,8.62-.38,48.83,48.83,0,0,0,9-2,41.87,41.87,0,0,0,18.58-11.67,29.84,29.84,0,0,0,8.07-18.4,27.54,27.54,0,0,0-.43-7.07,29.9,29.9,0,0,0-5.39-12.17,38.4,38.4,0,0,0-13.09-11.14A50,50,0,0,0,106.71,78.73Z" style="fill:#fff"/><path d="M106.71,78.73a50,50,0,0,1,23.94,5.69,38.4,38.4,0,0,1,13.09,11.14,29.9,29.9,0,0,1,5.39,12.17,27.54,27.54,0,0,1,.43,7.07,29.84,29.84,0,0,1-8.07,18.4,41.87,41.87,0,0,1-18.58,11.67,48.83,48.83,0,0,1-9,2,51.82,51.82,0,0,1-8.62.38,48.26,48.26,0,0,1-23-6.51A37.27,37.27,0,0,1,69.7,128.84a29.5,29.5,0,0,1-4.45-11.51,27.39,27.39,0,0,1-.23-6.78,29.41,29.41,0,0,1,5.24-14.24A37.85,37.85,0,0,1,82.54,85.17a46.68,46.68,0,0,1,14.51-5.44,45.65,45.65,0,0,1,6.84-.88Zm-28.3,30.7c0-.72,0-1.37,0-2,0-2.64,0-5.28.06-7.92,0-.33-.09-.45-.44-.44-1.08,0-2.15,0-3.23,0-.53,0-.53,0-.53.52q0,11.67,0,23.33v.48c.18,0,.32,0,.45,0,1.09,0,2.18,0,3.27,0,.4,0,.49-.13.49-.51,0-3.1,0-6.2,0-9.3,0-.44.06-.49.49-.42a3.57,3.57,0,0,1,2.46,1.74,5.71,5.71,0,0,1,.84,3c0,1.68,0,3.36,0,5,0,.31.08.43.41.43q1.81,0,3.61,0c.31,0,.43-.1.42-.42-.09-1.78-.1-3.56-.25-5.33a9.52,9.52,0,0,0-1-3.67,3.69,3.69,0,0,0-3-2.24,1,1,0,0,1-.23-.1,8.16,8.16,0,0,0,3.58-4.38,12.41,12.41,0,0,0,.7-4.22,22.16,22.16,0,0,1,.24-3.94,11.23,11.23,0,0,1,1.93-4.67,5.41,5.41,0,0,1,8.56,0,10.83,10.83,0,0,1,1.76,4.09,24,24,0,0,1,.54,5.72c0,.31.08.43.41.43,1.17,0,2.33,0,3.5,0,.28,0,.38-.08.38-.37a22.52,22.52,0,0,0-1.24-7.84,11,11,0,0,0-3.4-5.07,9.63,9.63,0,0,0-7.62-1.81,9.75,9.75,0,0,0-7.49,5,12.2,12.2,0,0,0-1.65,5.65c-.06,1.29-.1,2.58-.28,3.86a7.64,7.64,0,0,1-1.68,4A3.83,3.83,0,0,1,78.4,109.43Zm38.95,13.41c0,.19,0,.35,0,.51a33.58,33.58,0,0,1-.22,5.1,15.46,15.46,0,0,1-1.25,4.6c-1.2,2.53-3.12,3.94-6,3.74a5.3,5.3,0,0,1-4-2.13,9.94,9.94,0,0,1-1.75-4.21,21.31,21.31,0,0,1-.38-4.5c0-.23,0-.39-.31-.39-1.2,0-2.41,0-3.61,0-.27,0-.37.11-.35.37,0,.42,0,.84.07,1.26a18.59,18.59,0,0,0,1.24,5.9,10.11,10.11,0,0,0,4,5.13,10.65,10.65,0,0,0,8.07,1.17,9.57,9.57,0,0,0,7.05-5.93,20.91,20.91,0,0,0,1.61-8.61c0-5.52,0-11,0-16.57,0-.38,0-.77,0-1.15s-.09-.35-.36-.35h-3.54a2.19,2.19,0,0,0-.27,0l0,.77a4.25,4.25,0,0,0-3.5-.68,5.82,5.82,0,0,0-4.23,3.62,10.59,10.59,0,0,0-.88,4.1,12.22,12.22,0,0,0,.82,5.07,5.66,5.66,0,0,0,7.55,3.22A2.48,2.48,0,0,1,117.35,122.84ZM135,115.32a1.72,1.72,0,0,0,0-.2,10.24,10.24,0,0,0-1-4.9,5.76,5.76,0,0,0-6.38-3.32,5.61,5.61,0,0,0-4.31,3.4,11.67,11.67,0,0,0-.26,9.25c1.24,3.32,4.26,4.42,7.3,3.66,2.54-.63,4.63-3.62,4.56-6.48l-.41,0c-1,0-1.95,0-2.92,0-.36,0-.46.11-.54.45a9.7,9.7,0,0,1-.58,1.85,2,2,0,0,1-3.6,0,9.32,9.32,0,0,1-.6-1.89,16.25,16.25,0,0,1-.19-1.8Zm-27.11-.3c0-.26,0-.66-.07-1.05a9.53,9.53,0,0,0-1.34-4.39,5.87,5.87,0,0,0-10.3.62,10.07,10.07,0,0,0-1,3.86,12.31,12.31,0,0,0,.64,5.29,5.85,5.85,0,0,0,6.91,4,5.58,5.58,0,0,0,4.19-3.32A11.78,11.78,0,0,0,107.91,115ZM91.1,107.84c-.09-.24-.19-.44-.26-.66a.46.46,0,0,0-.53-.37c-.79,0-1.59,0-2.38,0-.34,0-.43.11-.43.44q0,7.88,0,15.76c0,.33.12.4.42.4,1,0,2,0,3,0,.59,0,.59,0,.59-.57,0-3.13,0-6.25,0-9.38a2.09,2.09,0,0,1,1-1.9,5.08,5.08,0,0,1,1.26-.54,15.06,15.06,0,0,1,1.49-.28c0-1.16,0-2.33,0-3.49,0-.08-.15-.22-.24-.24a7.69,7.69,0,0,0-1.44-.15A4.45,4.45,0,0,0,91.1,107.84Zm48.34,0c-.1-.25-.19-.45-.25-.65a.47.47,0,0,0-.55-.39q-1.17,0-2.34,0c-.36,0-.45.12-.45.46q0,7.86,0,15.71c0,.13,0,.27,0,.42h3.35c.58,0,.58,0,.58-.58,0-3.11,0-6.22,0-9.33a2.21,2.21,0,0,1,1.28-2.1,4.13,4.13,0,0,1,1-.37c.49-.12,1-.19,1.5-.28,0,0,0,0,0-.07,0-1.13,0-2.25,0-3.38a.38.38,0,0,0-.24-.28,7.56,7.56,0,0,0-1.47-.15A4.34,4.34,0,0,0,139.43,107.85ZM123.9,124.34a1.6,1.6,0,0,0,0,3.2,1.6,1.6,0,0,0,0-3.2Z" style="fill:#0468b3"/><path d="M78.4,109.43a3.83,3.83,0,0,0,2-1.3,7.64,7.64,0,0,0,1.68-4c.18-1.27.22-2.57.28-3.86A12.2,12.2,0,0,1,84,94.64a9.75,9.75,0,0,1,7.49-5,9.63,9.63,0,0,1,7.62,1.81,11,11,0,0,1,3.4,5.07,22.52,22.52,0,0,1,1.24,7.84c0,.29-.1.37-.38.37-1.17,0-2.33,0-3.5,0-.33,0-.41-.12-.41-.43a24,24,0,0,0-.54-5.72,10.83,10.83,0,0,0-1.76-4.09,5.41,5.41,0,0,0-8.56,0,11.23,11.23,0,0,0-1.93,4.67,22.16,22.16,0,0,0-.24,3.94,12.41,12.41,0,0,1-.7,4.22,8.16,8.16,0,0,1-3.58,4.38,1,1,0,0,0,.23.1,3.69,3.69,0,0,1,3,2.24,9.52,9.52,0,0,1,1,3.67c.15,1.77.16,3.55.25,5.33,0,.32-.1.42-.42.42q-1.81,0-3.61,0c-.33,0-.41-.12-.41-.43,0-1.68,0-3.36,0-5a5.71,5.71,0,0,0-.84-3A3.57,3.57,0,0,0,79,113.2c-.43-.07-.49,0-.49.42,0,3.1,0,6.2,0,9.3,0,.38-.09.52-.49.51-1.09,0-2.18,0-3.27,0-.14,0-.28,0-.45,0v-.48q0-11.67,0-23.33c0-.52,0-.52.53-.52,1.08,0,2.15,0,3.23,0,.34,0,.44.11.44.44,0,2.64,0,5.28-.06,7.92C78.4,108.06,78.4,108.71,78.4,109.43Z" style="fill:#fff"/><path d="M117.35,122.84a2.48,2.48,0,0,0-.29.09,5.66,5.66,0,0,1-7.55-3.22,12.22,12.22,0,0,1-.82-5.07,10.59,10.59,0,0,1,.88-4.1,5.82,5.82,0,0,1,4.23-3.62,4.25,4.25,0,0,1,3.5.68l0-.77a2.19,2.19,0,0,1,.27,0h3.54c.27,0,.37.08.36.35s0,.77,0,1.15c0,5.52,0,11,0,16.57a20.91,20.91,0,0,1-1.61,8.61,9.57,9.57,0,0,1-7.05,5.93,10.65,10.65,0,0,1-8.07-1.17,10.11,10.11,0,0,1-4-5.13,18.59,18.59,0,0,1-1.24-5.9c0-.42,0-.84-.07-1.26,0-.26.07-.37.35-.37,1.2,0,2.41,0,3.61,0,.31,0,.32.16.31.39a21.31,21.31,0,0,0,.38,4.5,9.94,9.94,0,0,0,1.75,4.21,5.3,5.3,0,0,0,4,2.13c2.9.2,4.82-1.21,6-3.74a15.46,15.46,0,0,0,1.25-4.6,33.58,33.58,0,0,0,.22-5.1C117.39,123.19,117.37,123,117.35,122.84Zm.35-7.72c0-.66-.07-1.33-.15-2a4.9,4.9,0,0,0-.77-2.22,2,2,0,0,0-3.3,0,4.73,4.73,0,0,0-.63,1.46,12,12,0,0,0-.14,4.87,4.34,4.34,0,0,0,.9,2.25,1.93,1.93,0,0,0,3,0,4.15,4.15,0,0,0,.65-1.2A9.94,9.94,0,0,0,117.7,115.12Z" style="fill:#fff"/><path d="M135,115.32h-8.91a16.25,16.25,0,0,0,.19,1.8,9.32,9.32,0,0,0,.6,1.89,2,2,0,0,0,3.6,0,9.7,9.7,0,0,0,.58-1.85c.08-.34.18-.46.54-.45,1,0,1.95,0,2.92,0l.41,0c.07,2.86-2,5.85-4.56,6.48-3,.76-6.06-.34-7.3-3.66a11.67,11.67,0,0,1,.26-9.25,5.61,5.61,0,0,1,4.31-3.4,5.76,5.76,0,0,1,6.38,3.32,10.24,10.24,0,0,1,1,4.9A1.72,1.72,0,0,1,135,115.32Zm-4.35-2.85a2.24,2.24,0,1,0-4.46,0Z" style="fill:#fff"/><path d="M107.91,115a11.78,11.78,0,0,1-1,5,5.58,5.58,0,0,1-4.19,3.32,5.85,5.85,0,0,1-6.91-4,12.31,12.31,0,0,1-.64-5.29,10.07,10.07,0,0,1,1-3.86,5.87,5.87,0,0,1,10.3-.62,9.53,9.53,0,0,1,1.34,4.39C107.87,114.37,107.89,114.76,107.91,115Zm-3.89.09c0-.44,0-.87,0-1.3a6.67,6.67,0,0,0-.7-2.65,2,2,0,0,0-3.58,0,4.86,4.86,0,0,0-.42,1,12.7,12.7,0,0,0-.2,5,4.68,4.68,0,0,0,.75,2.11,2,2,0,0,0,3.3,0,4.36,4.36,0,0,0,.48-1A8.65,8.65,0,0,0,104,115.11Z" style="fill:#fff"/><path d="M91.1,107.84a4.45,4.45,0,0,1,2.45-1A7.69,7.69,0,0,1,95,107c.09,0,.24.15.24.24,0,1.16,0,2.33,0,3.49a15.06,15.06,0,0,0-1.49.28,5.08,5.08,0,0,0-1.26.54,2.09,2.09,0,0,0-1,1.9c0,3.13,0,6.25,0,9.38,0,.57,0,.57-.59.57-1,0-2,0-3,0-.3,0-.42-.06-.42-.4q0-7.88,0-15.76c0-.33.09-.45.43-.44.79,0,1.59,0,2.38,0a.46.46,0,0,1,.53.37C90.9,107.39,91,107.6,91.1,107.84Z" style="fill:#fff"/><path d="M139.43,107.85a4.34,4.34,0,0,1,2.43-1,7.56,7.56,0,0,1,1.47.15.38.38,0,0,1,.24.28c0,1.13,0,2.25,0,3.38,0,0,0,0,0,.07-.5.09-1,.16-1.5.28a4.13,4.13,0,0,0-1,.37,2.21,2.21,0,0,0-1.28,2.1c0,3.11,0,6.22,0,9.33,0,.58,0,.58-.58.58h-3.35c0-.16,0-.29,0-.42q0-7.86,0-15.71c0-.34.08-.47.45-.46q1.17,0,2.34,0a.47.47,0,0,1,.55.39C139.25,107.4,139.34,107.6,139.43,107.85Z" style="fill:#fff"/><path d="M117.7,115.12a9.94,9.94,0,0,1-.45,3.18,4.15,4.15,0,0,1-.65,1.2,1.93,1.93,0,0,1-3,0,4.34,4.34,0,0,1-.9-2.25,12,12,0,0,1,.14-4.87,4.73,4.73,0,0,1,.63-1.46,2,2,0,0,1,3.3,0,4.9,4.9,0,0,1,.77,2.22C117.63,113.79,117.65,114.46,117.7,115.12Z" style="fill:#0468b3"/><path d="M130.67,112.47h-4.46a2.24,2.24,0,1,1,4.46,0Z" style="fill:#0468b3"/><path d="M104,115.11a8.65,8.65,0,0,1-.38,3.18,4.36,4.36,0,0,1-.48,1,2,2,0,0,1-3.3,0,4.68,4.68,0,0,1-.75-2.11,12.7,12.7,0,0,1,.2-5,4.86,4.86,0,0,1,.42-1,2,2,0,0,1,3.58,0,6.67,6.67,0,0,1,.7,2.65C104.05,114.24,104,114.68,104,115.11Z" style="fill:#0468b3"/><circle cx="123.88" cy="125.98" r="1.67" style="fill:#fff"/><circle cx="123.88" cy="125.98" r="1.29" style="fill:#0468b3"/><path d="M123.2,125.12a3.56,3.56,0,0,1,.54,0,.91.91,0,0,1,.58.14.45.45,0,0,1,.16.37.47.47,0,0,1-.32.44h0a.45.45,0,0,1,.24.33c.06.2.11.44.15.5h-.41a2.23,2.23,0,0,1-.12-.42c0-.22-.12-.28-.29-.29h-.12v.7h-.4Zm.4.77h.16c.2,0,.32-.1.32-.26s-.11-.25-.3-.25h-.18Z" style="fill:#fff"/><path d="M131.93,132.88h8q-1.43,5.76-2.88,11.57c-1.36,5.5-2.7,11-4.11,16.5a2,2,0,0,1-1.16,1.34c-5.35,1-10.74,1.69-16.2.94a16.5,16.5,0,0,1-3.21-.78c-3.79-1.34-5.34-3.89-4.28-7.75a38.35,38.35,0,0,1,3.26-8.27c2.12-3.87,4.67-7.5,7-11.25a2.28,2.28,0,0,1,2.27-1.17c1.87.07,3.74,0,5.79,0-.37.55-.78,1.1-1.13,1.69-2.61,4.43-5.26,8.83-7.75,13.32a14.14,14.14,0,0,0-1.33,4.23,3.21,3.21,0,0,0,2.51,3.94,11.06,11.06,0,0,0,7.19-.62c.38-.14.65-.89.77-1.4,1.65-7,3.27-13.94,4.9-20.91C131.66,133.87,131.78,133.46,131.93,132.88Z" style="fill:#ff050c"/><path d="M165.52,134.81c-3.82.25-7.55.51-11.28.73-2.46.14-2.46.12-3.06,2.54l-.85,3.5,12.46-.57c-1,1.77-1.76,3.35-2.71,4.82a2.17,2.17,0,0,1-1.51.57c-2.78.2-5.56.37-8.35.45a1.46,1.46,0,0,0-1.62,1.38c-.36,1.68-.81,3.34-1.27,5.2l15-1c-1.2,2.32-2.26,4.38-3.37,6.43-.1.18-.47.29-.72.31q-9.7.74-19.41,1.45a3.48,3.48,0,0,1-.59-.09c.31-1.4.6-2.78.93-4.15q2.73-11.71,5.47-23.43c.21-.92.52-1.41,1.64-1.54,6.15-.74,12.29-1.61,18.43-2.43a7.14,7.14,0,0,1,.83,0Z" style="fill:#ff050c"/><path d="M105.95,148.5c-.93,1.71-1.72,3.29-2.64,4.8a1.8,1.8,0,0,1-1.3.6c-2.11.1-4.23.18-6.35.13-1.46,0-2,.48-2.27,2-.53,3.42-1.28,6.8-2,10.19a2,2,0,0,1-.78,1.24c-2.9,1.61-5.84,3.14-8.78,4.69a2,2,0,0,1-.58,0c.44-2,.86-4,1.3-5.94q3.05-13.5,6.12-27c.17-.75.23-1.44,1.34-1.48,6.2-.26,12.39-.6,18.59-.9a2.86,2.86,0,0,1,.55.11c-.09,1.32-.18,2.65-.25,4,0,.89-.67.89-1.32.93-3.36.21-6.72.46-10.08.62-1.06.05-1.65.33-1.77,1.52-.15,1.47-.52,2.93-.82,4.52Z" style="fill:#ff050c"/><path d="M179,127.08l-5.26,22.84L186,148.79c-1.15,2.26-2.17,4.31-3.25,6.32a1.32,1.32,0,0,1-.92.54c-5.5.52-11,1-16.52,1.5a2.87,2.87,0,0,1-.59-.12c.35-1.7.67-3.37,1-5,1.63-7.56,3.3-15.11,4.88-22.68.25-1.18.7-1.7,1.93-1.75C174.61,127.49,176.66,127.27,179,127.08Z" style="fill:#ff050c"/><path d="M142.67,135.4a10.22,10.22,0,0,1-.15,1.2c-2.18,8.86-4.39,17.71-6.53,26.58a2.05,2.05,0,0,1-1.94,1.85c-5.81.9-11.63,1.69-17.47.36a15.56,15.56,0,0,1-4.12-1.88c6.6,1.31,13.08.56,19.55-.58a1.56,1.56,0,0,0,1.45-1.31q3.22-13.22,6.48-26.43" style="fill:#0023d1"/><path d="M164,155.24c.11,2.35-1,4.24-2.09,6.06-.24.39-1.08.52-1.66.56-4.41.35-8.82.65-13.23,1-.61,0-1.21.12-2,.19l.92,2c-1.22.37-2.32,1.17-3.25-.3a1.24,1.24,0,0,0-.9-.38,2,2,0,0,0-2.09,1.76c-.41,1.83,0,3.39,1.17,3.78a1.82,1.82,0,0,0,2.5-1.25,2.37,2.37,0,0,1,.28-.4c.36.09.73.16,1.09.27s.8.28,1.19.42c-.45,2.38-1.91,3.38-4.62,3.25s-4.37-1.58-4.62-4c-.35-3.46.86-4.48,4-6.1,3.73-1.91,7.61-1,11.37-1.69,2-.37,4-.27,6-.55a3.23,3.23,0,0,0,1.61-1.09,3.85,3.85,0,0,0,.81-1.51C161.06,155.53,162.22,155,164,155.24Z" style="fill:#0023d1"/><path d="M94.38,154.56c2.51,0,4.91-.08,7.3,0a2.36,2.36,0,0,0,2.54-1.56c1.06-2.15,1.13-2.12,4-1.81-.74,1.68-1.4,3.28-2.18,4.82-.14.28-.8.4-1.23.42-2.3.1-4.61.18-6.91.19a1.29,1.29,0,0,0-1.51,1.27c-.61,3.5-1.34,7-2,10.46a2.42,2.42,0,0,1-1.4,2c-2.91,1.45-5.77,3-8.87,4.66a16.18,16.18,0,0,1,.62-2.72,3.73,3.73,0,0,1,1.3-1.68c1.55-1,3.24-1.68,4.8-2.62a2.56,2.56,0,0,0,1.07-1.49C92.78,162.65,93.53,158.8,94.38,154.56Z" style="fill:#0023d1"/><path d="M129.22,136.63l-.69,1.25,1.37-.29c-.34,1.46-.58,2.87-1,4.22a1.78,1.78,0,0,1-1.16,1c-2.72.43-4.21,2.17-5.24,4.53-1.26,2.89-2.6,5.74-4,8.72-1.29-.15-2.2-1.48-1.61-3.38a35,35,0,0,1,2.4-6c1.55-2.93,3.32-5.73,5.05-8.56C125.59,136.14,126.63,135.83,129.22,136.63Z" style="fill:#0023d1"/><path d="M167.86,159.69c-.11-1.69.67-2.13,2.23-2.22,4-.24,8-.69,12-1.11a2.56,2.56,0,0,0,1.22-.77,2,2,0,0,0,.47-.88c.74-2.39,2.26-3.54,5-2.94-1,2-2.1,4.1-3.19,6.15a1,1,0,0,1-.69.39q-8.4.76-16.8,1.48A1.08,1.08,0,0,1,167.86,159.69Z" style="fill:#0023d1"/><path d="M174.71,149c1.42-6.09,2.79-12.08,4.21-18,.38-1.59,1.81-.71,3.06-1.28-.54,2.43-1,4.55-1.49,6.67-.8,3.46-1.62,6.92-2.42,10.38C177.51,149.06,177.48,149.09,174.71,149Z" style="fill:#0023d1"/><path d="M165.68,143.75c-.88,1.61-1.68,3.18-2.61,4.67-.21.33-.87.48-1.34.51-2.92.22-5.85.36-8.76.61a1.67,1.67,0,0,0-1.2.83c-.84,2.22-.8,2.24-3.38,1.93.33-1.34.59-2.69,1-4a1.53,1.53,0,0,1,1.14-.73c2.82-.23,5.66-.34,8.47-.6.61-.06,1.55-.44,1.71-.89C161.55,143.62,163.41,143.52,165.68,143.75Z" style="fill:#0023d1"/><path d="M151.23,140.58a35.69,35.69,0,0,1,.91-3.54,1.57,1.57,0,0,1,1.17-.71c3.82-.32,7.65-.63,11.47-.8,1.36-.06,1.83-.44,1.53-1.79a9.25,9.25,0,0,1,0-1.92l2-.15v5.71l-8.61.61c-1.05.07-2.11.19-3.16.19-1.23,0-2.14.24-2.25,1.71,0,.26-.52.62-.84.67A14.11,14.11,0,0,1,151.23,140.58Z" style="fill:#0023d1"/><path d="M95.73,147.63a23.85,23.85,0,0,1,.7-3.5,2,2,0,0,1,1.43-1c3.44-.31,6.88-.53,10.33-.72.85,0,1.31-.25,1.37-1.21.13-2.06.29-2.14,2.6-1.83-.14,1.39-.2,2.81-.48,4.19-.07.34-.82.72-1.28.76-3.49.31-7,.52-10.47.83a1.52,1.52,0,0,0-1.11.76C98.13,148,98.1,148,95.73,147.63Z" style="fill:#0023d1"/><path d="M164.29,172h-2.76a29.73,29.73,0,0,0,0-3.53c-.06-.54-.59-1-.91-1.53-.39.51-1,1-1.11,1.55a23,23,0,0,0-.05,3.5h-2.54V165c.86.11,1.92-.72,2.38.55a9.46,9.46,0,0,1,3-.59A2.46,2.46,0,0,1,164,166.5,44.15,44.15,0,0,1,164.29,172Z" style="fill:#0023d1"/><path d="M155.28,169.21H150c.29,1.34.91,1.67,2.1,1.31a20.91,20.91,0,0,1,3.07-.45,4.73,4.73,0,0,1-5.92,1.77,3.69,3.69,0,0,1-1.81-4.52c.53-1.88,2.53-2.81,5.09-2.36C154.4,165.31,155.37,166.69,155.28,169.21Zm-5.42-1.75.22.3h2.47l.17-.46c-.5-.3-1-.85-1.49-.82S150.31,167.1,149.86,167.45Z" style="fill:#0023d1"/><path d="M179.79,169.2h-5.35c.35,1.34.95,1.68,2.14,1.31a19.22,19.22,0,0,1,3.08-.43,4.89,4.89,0,0,1-6,1.73,3.73,3.73,0,0,1-1.72-4.56c.59-1.88,2.58-2.76,5.14-2.28C178.94,165.33,179.87,166.71,179.79,169.2Zm-5.42-1.85.23.46H177l.2-.4c-.47-.34-.93-.94-1.41-.94S174.85,167,174.36,167.34Z" style="fill:#0023d1"/><path d="M169.07,162.62l.15,2.24,1.36.19v1.66l-1.43.35c0,.81-.05,1.62,0,2.41,0,.31.35.83.56.84,1.19.09.89.88.88,1.69-.53,0-1,.12-1.56.13-1.93,0-2.42-.48-2.61-2.42-.11-1.08.62-2.39-.83-3.18a1.3,1.3,0,0,1,0-1.21C166.61,164.32,167.09,162.64,169.07,162.62Z" style="fill:#0023d1"/><path d="M186.45,164.85c-.07,1.22,0,2.09-1.32,2.15-.41,0-1,1.07-1.11,1.71a18.6,18.6,0,0,0,0,3.24h-2.6v-7.06l2.58.32-.1.19Z" style="fill:#0023d1"/></svg>