<svg xmlns="http://www.w3.org/2000/svg" viewBox="0 0 250 250"><defs><style>.a{fill:#fcb827;}.a,.b{fill-rule:evenodd;}.b{fill:#4e2400;}</style></defs><title>Fast Casual</title><path class="a" d="M103.81,90.41c0,2.17-1.18,3.62-2.14,5.26-.6-.24-.86-1.09-1-1.69,0-1.32-.88-2.93.1-4.49a2.1,2.1,0,0,1,3,.92Z"/><path class="a" d="M22.1,76.79a62.39,62.39,0,0,1,7.33.66c1.93.22,3.78.23,5.74.43l4.46.48,8.63.08a127.3,127.3,0,0,1,12.81.74,134.83,134.83,0,0,0,15.79,1.27l1.4-.09,1-.18,1-.09.78-.09,1-.09,1-.09,4.62-.17h1.66l2,0,4.63.24h3.4a5.67,5.67,0,0,1,1.74,0c1.29-.43,3.36.09,4.71.09l2.18.07c2.06.16,5.24.19,5.94,2.36a8.93,8.93,0,0,1-.07,4.21c-.66,3.57-2,6.71-3,10.14l-1.38,8.35.33,4.54-.16,4q0,2,0,3.92l-.44,3.4c-.13,2,.13,4-.11,5.92a39,39,0,0,0-.72,4.88c0,1.46-.22,2.85-.2,4.29.05,3.4.28,7,.28,10.29h-.09v.09c-.4.08-.52.49-.79.77a3,3,0,0,1-1.85.78c-.13,0-.33-.06-.33.09-.21-.49.31-1.28.38-1.82q0-1.16,0-2.33a95.77,95.77,0,0,1-.09-10.39l.49-4.63q.23-4.14.45-8.29.09-3.88.18-7.76l-.23-6.19a50.56,50.56,0,0,1,1-7c.55-3,1.46-5.63,2.26-8.46.61-2.2,1.56-4.82.86-7.25a2.25,2.25,0,0,0-.57-1c-2.13-2.2-11.46-1.41-14.88-1.35l-9.94-.3c-4.18.06-8,.66-12.3.66a6.34,6.34,0,0,1-2.54-.08L68,82l-12.3-1.17c-5.51-.44-10.78-.3-16.39-.47l-8.47-.83-6.6-.59c-.84-.16-3.64.09-3.58-1,0-.47.76-.67.76-1l.09.09h.26l.35-.26Z"/><path class="a" d="M23.94,84.36c.66.34.33,2,.33,2.7l-.16,2.27q.09,2.92.18,5.84c.1,2.11.45,4.2.42,6.54,0,2.17-.37,4.27-.6,6.37-.31,2.79-1.48,5.07-2.24,7.6a27,27,0,0,0-.86,6.62c0,2.93,1.1,5.23,2,7.7a23.41,23.41,0,0,1,1.18,5.48c.1.87.14,6.39.35,6.64.41.46,1.17.53,1.74.71a22,22,0,0,0,6.73.85v.09h-.09v.09c-.69.46-1.23,1.17-2,1.4-1.4.4-7.17-.43-7.95-1.35l-.17-.48c-.39-2.89,0-5.95-.64-8.71-.55-2.56-1.81-4.67-2.57-7.07a15.57,15.57,0,0,1-.47-4.46c0-.09,0-.17,0-.26.2-4.13,1.65-7.62,2.61-11.35a41.64,41.64,0,0,0,.84-10.1c0-2.46-.4-4.79-.58-7.15q.07-2.53.14-5.06a9.46,9.46,0,0,1,.11-3.13,1.54,1.54,0,0,1,1.56-1.05l.17-.7Z"/><path class="a" d="M87.16,85.66c.12,0,.26-.06.26.09-1.33.88-.73,3.45-.8,5-.23,4.92.65,26.22-2.3,28.27a4.75,4.75,0,0,1-2.48.89c-.13,0-.26,0-.26-.11a3.21,3.21,0,0,0,1.31-1.61c.63-1.66.48-3.85.63-5.72.51-6.34,0-13,.15-19.45,0-1.68-.58-4.86.26-6.13.66-1,2.15-.89,3.23-1.19Z"/><path class="a" d="M51.67,86.1h2.27q-.61,7.15-1.21,14.3c-.12,2.54.16,5.13,0,7.76l-.48,1.93c-.12.94-.11,1.89-.18,2.87l-.16.4-.26.06a.61.61,0,0,1-.58-.48c-.6-1.72-.34-4-.4-5.92-.13-4,.18-8.11.29-12,.08-3-.08-6.25.68-9Z"/><path class="a" d="M66.46,102.8a14.8,14.8,0,0,1,4,.9c3.71,1.75,5.34,6.85,5.34,11H75.7C74.94,108.58,69,103.9,63,107.48a11.69,11.69,0,0,0-2.62,2.5c-.76.85-2,3.07-2,4.24l-.26-.09c-.44-1.27.09-2,.09-3.05,0-3.32,3.86-6.89,6.66-8l1.63-.24Z"/><path class="a" d="M51.93,135.2l2.35.11a11.29,11.29,0,0,1,6.24,2,2.75,2.75,0,0,1,1.08,1.22c.26.89-.33,1.53-.33,2.32a30.73,30.73,0,0,0-3-1.68,15.89,15.89,0,0,0-8.17-.34,17.48,17.48,0,0,0-2.76,1.1l-1.07.66-.09.09c0-.12-.06-.18.09-.18l.7-.7v-.09h-.09v-.09c-5.18,1.45-17.44,14.28-17.44,19.54a8.43,8.43,0,0,0-2.09,4h-.09v-.09h-.09a17.06,17.06,0,0,1,1-5.43c2.72-8.16,8.61-16.4,16.68-20.34a13.08,13.08,0,0,1,5.7-1.79l1.13-.09v-.09l.26-.17Z"/><path class="a" d="M64.84,139.65c.88,1.32.39,3.72,0,5.14-.11.39-.56,1.06-.39,1.49l.06.09,0,0c.61.5,2.33.23,3.19.23l5.32.17,1-.09,1.48-.09.61-.09,1-.18.79-.09.52-.09,1.31-.17.78-.09.61-.09,1-.09,1-.09.7-.09.7-.09a4.48,4.48,0,0,1,1.66-.17l1-.09.78-.09,1.22-.17a6.92,6.92,0,0,1,2.53-.44l.79-.09.61-.09.61-.09L95,144.1l1-.09.87-.09,1-.18,1.66-.09,1-.09.52-.09.87-.09v.17c-.23.3-.32.47-.71.58l-3.73.5-1.84.3c-1.86.23-3.65.47-5.58.66l-4.1.64c-5.13.58-10.22,1.25-15.43,1.66a67.31,67.31,0,0,1-7.41.1l-1.83-.25c1-2.82,3.07-4.89,3.49-8.11Z"/><path class="a" d="M45.74,145.61h.09c0,.08.16.17,0,.17l-2.93,2.83-3.57,3.32-2.73,2.76L31,159.43l-2,2c-.12.1-.46.26-.46.41h-.17a8.61,8.61,0,0,1,1.14-3.09c0-.09.15-.22,0-.22L34,155.18l6.78-5.41,3.12-2.55a9.86,9.86,0,0,0,1.8-1.61Z"/><path class="a" d="M59.29,152.5c.14,0,1.12-.5,1.12-.35,0,0-.63.43-.6.43-.41,1.32-2.07,2.57-3,3.6l-1.93,2.08-3.8,3.18-1.31,1.38-5.06,3.74-5.51,3.33c-2.47,1.53-5.3,3.47-8.58,3.31a7.68,7.68,0,0,1-7.2-7.88c0-.24.22-2.13.31-.67,0,.32.59.86.69,1.1a7.38,7.38,0,0,0,5.5,4.24,19.91,19.91,0,0,0,3-.05c.25-.12,1.57-.33,1.57-.61,1.09-.13,3.48-1.85,4.47-2.49A107.39,107.39,0,0,0,48,161c2.26-1.8,4.33-3.82,6.5-5.79.87-.8,1.69-2,2.73-2.46l2-.21Z"/><path class="a" d="M43.12,88.21a12,12,0,0,1,1.47,4.36c-.79-.16-1.72-.57-2.62-.79-.93-.71-2.24-.84-2.78-2.1a2.4,2.4,0,0,1,1.39-2.53c1.12-.3,1.8.44,2.53,1.06Z"/><path class="a" d="M34.12,94.1c.09,1.33.61,2.54.34,4A6.53,6.53,0,0,1,29,94.55a3,3,0,0,1,1.36-3.24c.6-.18,1.54-.51,2.09,0l.4.32,1.22,2.5Z"/><path class="a" d="M93.57,93.94c0,.08.1.78-.26,1.06-.13,1.57-.34,3.48-1.8,4.27a3,3,0,0,1-2.47-1c-.49-1.49,1.08-2.59,2-3.44.81-.4,1.79-1.09,2.63-.92Z"/><path class="a" d="M99.88,102.61l.25-.08a5.31,5.31,0,0,1,.87,4.09,4.11,4.11,0,0,1-1.74,1.31v-.08a10.68,10.68,0,0,1-5.83.79c.44-2.81,2.62-4.9,4.88-6.46.46-.24,1.55-.35,1.58.44Z"/><path class="a" d="M46,102.71a3.76,3.76,0,0,1-.19,2.1c-.55.82-1.8.6-2.7.52a15.41,15.41,0,0,1-4.44-2.89c1.64-.55,3.35-.3,4.88-.87A2.8,2.8,0,0,1,46,102.71Z"/><path class="a" d="M32.78,111.67a1.81,1.81,0,0,1,.16,2.26c-.57,1.83-2.34,2.75-3.05,4.44l-.87.79c-.27-2.59-1-5.15-.16-7.77.87-1.61,2.83-.33,3.92.27Z"/><path class="a" d="M94.27,121.47l2.28,3.76a2.43,2.43,0,0,1-2.16-.46c-2.08,0-4.56-1-5.45-3a3.1,3.1,0,0,1,1.06-2.3c1.91-1.68,3.24.64,4.27,1.95Z"/><path class="a" d="M42.06,123.39c.05,1.9.5,3.68-.21,5.52a8.53,8.53,0,0,1-4.49-4.48,2,2,0,0,1,1-1.91c1.1-.91,3.6-.73,3.68.87Z"/><path class="a" d="M70.72,126.7a18.92,18.92,0,0,1,4.52,3.05l-.79.44c-2.7.35-5.67.82-8.09.24-.52-.24-.49-1.34-.35-2a3.77,3.77,0,0,1,2.34-2.81c1.09-.14,1.42.93,2.37,1.06Z"/><path class="a" d="M31.24,129.88a2.23,2.23,0,0,1,.44,2,11.29,11.29,0,0,0-2,2.26c-1.44.9-1.69,2.34-2.89,3.41A21.18,21.18,0,0,1,28,130.15c.27-.57.9-.68,1.39-1a3.16,3.16,0,0,1,1.83.71Z"/><path class="a" d="M99.17,133.91c-.35.87-1.83,1-2.7,1.12A6.71,6.71,0,0,1,92,133.8c-.22-1.09.6-1.85,1.31-2.51a11.06,11.06,0,0,1,5.83,2.62Z"/><path class="a" d="M79,140.16a1.66,1.66,0,0,1,.3,2.16,28.31,28.31,0,0,1-6.37,3.39,15.8,15.8,0,0,1,2.35-6.08c1-1.23,2.92-.41,3.72.53Z"/><path class="b" d="M45.81,80.51c.38-.22.93,0,1.39,0,6.65.16,12.32.6,19.27,1.31a62.78,62.78,0,0,0,14.14-.27l5.4-.35.16.19c4.58.33,10.47.11,15.37.16a25.45,25.45,0,0,1,7.66.63A2.77,2.77,0,0,1,111,84.35c.11,4.69-1.8,8.91-2.94,13.41l-1.5,8.72c.84,7.82-.19,15.86-.35,23.9-1,2.92-.33,7.06-.6,10.11-.22,2.59.87,4.93-.27,7.25A17.53,17.53,0,0,1,94.57,150c-.46-.16-1,.33-1.42-.08-.68.35-2.07.05-3.05.27-3.9.3-7.09.74-11,1.31,0-.08.05-.14.08-.19-.38.08-1.14.19-1.74.27-6.79,2-13.38-.25-20.39,1.23C51.48,159,44.17,164.09,37.33,168c-2.81,2.13-6.35,3.19-9.67,1.58a8,8,0,0,1-4-7.93c.16-3.68,1.85-7.17,3.41-10.47l-.52-.52c-3-.46-5.61-.14-8.48-1.23a7.35,7.35,0,0,1-.44-3.41c-.11-3,1.33-5.59.44-8.56-1.36-5.89-4.31-12-2.53-18.31l2.53-15.86.08-16.49c.05-2.32-.16-5,.54-7.41,1-1.14,2.1-.71,3.49-.68,7.52.76,14.2,1.31,21.69,1.74l1.94.08ZM30.52,151.69c-1.72,3.76-3.84,8-3.22,12.54a4.46,4.46,0,0,0,2.1,2.37c3.87.52,7.11-1,10.11-3.13,9-5.53,18.94-13.3,22.24-23.66v-1.2c-1-1.83-3.11-2-4.55-3C46.35,133,35.64,142.4,30.52,151.69Zm.27-67.35c-3.05-.3-6.79-1.25-8.53,1.47.14,4.09-.79,8.91.24,13.08A56.51,56.51,0,0,1,22,110.59c-1.33,4.93-3.08,9.87-2.86,14.63l.16.19c.06,2.07,1.17,3.82,1.74,5.59,1.83,4.06,1.53,8.56,1.91,13a23.46,23.46,0,0,0,8,1.42c2.94-1.47,4.66-4.93,7.22-7.09A19.07,19.07,0,0,1,53.58,132c4.12.9,8.69,1.09,11.23,4.8.74,4.17-1.64,7.47-3.38,10.82l.16.16c10.11.9,21.2-1.36,31.12-2.43,3.05-.68,6.57-.52,9.43-1.42.71-3.54.76-8.23,1-12.46a74.37,74.37,0,0,0,.79-13.16l.08.08-.08-.35c-.14-.25-.14-.9,0-.87a71,71,0,0,1,1.47-22.84,50.51,50.51,0,0,0,2-7.6A2.71,2.71,0,0,0,106,85.47a106.43,106.43,0,0,0-18.4,0c-1.42.44-3.62,0-3.84,1.94l.16,20.3c-.22,3.11-.16,7.39-1,10.74-.68,1.31-2.34,1.77-3.84,1.91-8.26-.25-16.79-.27-24.69-.87-2-.65-6.27,1.28-6.87-2-.9-9.1,1-17.69.08-26.79-.22-1.85-.16-4.06-1.06-5.75a83.48,83.48,0,0,0-9.76-.87c-2.1.08-4-.22-5.94.27Zm35.95,18.4c-3.05,0-6,2.64-7.69,5.59-.84,1.93-1.69,3.73-1,6.11,5.61.46,11.61.52,17.17.6l.71-.27a18.4,18.4,0,0,0-2.53-8.61,8.83,8.83,0,0,0-6.7-3.41ZM51.83,85.9A148,148,0,0,0,51,111.63c0,.93.08,2.4,1.39,1.94-.41-4.28,1.64-8.39,4.44-11.45,3.49-4.14,9.29-4.5,14-3.05,6.9,2.34,7.17,9.92,8.56,16.05.19.22.55,0,.6-.16L79.2,95.33c-.33-1.58,0-3-.25-4.72-.41-1.17.49-2.75-.44-3.84-9-1.06-18.18-.44-26.68-.87Z"/><path class="b" d="M101.43,88.52c.3,2.15-.74,3.73-1.5,5.48-.63-.16-1-1-1.2-1.55-.16-1.31-1.23-2.81-.44-4.47a2.1,2.1,0,0,1,3.13.55Z"/><path class="b" d="M69.49,126.43A18.9,18.9,0,0,1,74,129.48l-.79.44c-2.7.35-5.67.82-8.09.25-.52-.25-.49-1.34-.35-2a3.77,3.77,0,0,1,2.34-2.81c1.09-.14,1.42.93,2.37,1.06Z"/><path class="b" d="M46.65,139.53c-2.81,2.7-5.7,4.85-7.14,8.45.22.38.57,0,.87,0l7.85-4.52.16.16c-6.65,5.31-12.1,10-18.91,15a19.45,19.45,0,0,1,2.43-5,45.1,45.1,0,0,1,14.74-14Z"/><path class="b" d="M92.44,120.35,94.89,124a2.43,2.43,0,0,1-2.18-.35c-2.07.14-4.61-.79-5.59-2.7a3.11,3.11,0,0,1,1-2.34c1.83-1.77,3.27.49,4.36,1.74Z"/><path class="b" d="M98.38,101l.25-.08A5.31,5.31,0,0,1,99.5,105a4.11,4.11,0,0,1-1.74,1.31v-.08a10.69,10.69,0,0,1-5.83.79c.44-2.81,2.62-4.91,4.88-6.46.46-.24,1.55-.35,1.58.44Z"/><path class="b" d="M92.19,92.44c0,.08,0,.79-.35,1-.27,1.55-.65,3.43-2.18,4.09a3,3,0,0,1-2.37-1.2c-.35-1.53,1.31-2.48,2.29-3.24.84-.33,1.88-.93,2.7-.68Z"/><path class="b" d="M98,133c-.35.87-1.83,1-2.7,1.12a6.71,6.71,0,0,1-4.44-1.23c-.22-1.09.6-1.85,1.31-2.51A11.06,11.06,0,0,1,98,133Z"/><path class="b" d="M77.45,138.31a1.66,1.66,0,0,1,.6,2.1,28.3,28.3,0,0,1-5.83,4.25,15.79,15.79,0,0,1,1.47-6.35c.85-1.36,2.83-.82,3.76,0Z"/><path class="b" d="M31,129.23a2.24,2.24,0,0,1,.44,2,11.26,11.26,0,0,0-2,2.26c-1.44.9-1.69,2.34-2.89,3.41a21.17,21.17,0,0,1,1.23-7.41c.27-.57.9-.68,1.39-1a3.16,3.16,0,0,1,1.83.71Z"/><path class="b" d="M41.18,123.56c.27,1.88.93,3.6.44,5.51a8.53,8.53,0,0,1-5-3.92,2,2,0,0,1,.79-2c1-1,3.49-1.15,3.76.44Z"/><path class="b" d="M32.18,111.79a1.81,1.81,0,0,1,.16,2.26c-.57,1.83-2.34,2.75-3.05,4.44l-.87.79c-.27-2.59-1-5.15-.16-7.77.87-1.61,2.83-.33,3.92.27Z"/><path class="b" d="M33.41,93.91c.24,1.31.9,2.45.79,3.92a6.53,6.53,0,0,1-5.78-2.89,3,3,0,0,1,1-3.38c.57-.24,1.47-.68,2.07-.27l.44.27,1.5,2.34Z"/><path class="b" d="M45.62,103.07a3.75,3.75,0,0,1-.19,2.1c-.55.82-1.8.6-2.7.52a15.42,15.42,0,0,1-4.44-2.89c1.63-.55,3.35-.3,4.88-.87a2.8,2.8,0,0,1,2.45,1.14Z"/><path class="b" d="M43,88.6A12,12,0,0,1,44.47,93c-.79-.16-1.72-.57-2.62-.79-.93-.71-2.24-.84-2.78-2.1a2.4,2.4,0,0,1,1.39-2.54c1.12-.3,1.8.44,2.53,1.06Z"/><path class="a" d="M205.32,118.29c.34,0,1.66,0,1.66.52h-.09v.09l-3.76,1A46,46,0,0,0,189.48,126c-1.13.73-2.18,1.59-3.25,2.4a6.84,6.84,0,0,1-1.47,1.06,4.13,4.13,0,0,1-3.43-.36c-.83-.68-.29-1.52.34-2a36.51,36.51,0,0,1,11.87-6.46,8,8,0,0,1,2.46-.66,7.42,7.42,0,0,1,2.79-.61,5,5,0,0,1,1.92-.35l.52-.09a3.1,3.1,0,0,1,1.4-.26l.87-.09,1-.09.87-.17Z"/><path class="b" d="M184.09,88.68c1.2,3.68-1.09,7.17-3.57,9.95a34.15,34.15,0,0,1-13.44,6.9c-2,.6-3.9.93-5.67,1.39-1.2.9-1,2.56-1.23,3.92-.41,4.42-.63,9.46,3.33,12.13a1.3,1.3,0,0,1-.63,1.58,2.48,2.48,0,0,1-2.53-.63c-3.43-3.82-3.05-9.81-2.78-14.47l.16-.16a1.53,1.53,0,0,0-1-1.06,4.79,4.79,0,0,1-3.57-.68,7.89,7.89,0,0,1,.6-5.23c1.53-.76,3,.3,4.55.08l.52-.71c.63-2.7-.05-5.48,2.26-7.33a1.36,1.36,0,0,1,1.5.54c.35,3.35-1,6.54-1.23,9.4.93.79,2.21,0,3.3,0,6.13-1.66,12.56-4.47,16.41-9.76.55-1.34,1.61-3.08.44-4.44-1.91-1.66-4.11-.84-6.27-1.06-.55.38-1.47,0-1.93.35-9.48.74-19.19,5.1-27.47,9.87-3.6,1.83-5.72,5.18-7.66,8.61-.49.38-1,1-1.66.63-1.09-1.64.46-3,.87-4.44,1-1.55,2.21-3.49,4.17-3.92l6-5.15a.61.61,0,0,1,.63.25c0,.22-.11.52.16.63,10.17-5.07,21.18-10.71,33-9a4,4,0,0,1,2.7,1.83Z"/><path class="b" d="M189.92,99.77a3.39,3.39,0,0,1-.08,2.53,2.77,2.77,0,0,1-2.45.25c-.79-1-.3-2.21-.08-3.3.71-.74,2.37-.63,2.62.52Z"/><path class="b" d="M212.87,105.44a7.57,7.57,0,0,1,2,4.36c-.11.65-.35,1.5-1.12,1.66-2.34.52-2.32-3.24-4.55-3-2.81,1.85-5.4,6.13-9.16,4.36-1.36-2.4-2.53.76-4,1a4.07,4.07,0,0,1-3.05.6c-.9-.22-.93-2-2-1.2-2.4,2.51-5.83,5.29-9.35,4-2.07-2.45-3.68,1.44-5.67,1.83-3,1.25-7.28,3.65-10.27,1a3.39,3.39,0,0,1-.87-3c1-4.14,5.26-6.68,8.45-9,2.73-1.5,6.38-2.34,9.32-1,2.4,2,.46,4.33.19,6.7.52.85,1.5.25,2.18.16,2.86-1.06,4.47-4.12,6.11-6.54.35-.24.9-.54,1.31-.16,1.15.9.35,3.92,2.7,3.22,2.1-1.28,3.22-4.06,5.31-5.23,1.69.84.65,3.08,1.58,4.36,1.34.16,2.1-1.06,3.22-1.47,1.85-2,4.91-4.66,7.69-2.7ZM178.5,110a16,16,0,0,0-9.51,6.11c-.27.49-.27,1.42.35,1.66,2.83.19,5.1-1.44,7.33-3,1.25-1.28,3.41-2.4,3.13-4.36-.27-.54-.82-.41-1.31-.44Z"/><path class="b" d="M124,107.94c1,0,1.83-.07,2.61-.15a1.79,1.79,0,0,0,0,.89h-4.32v-7.05c.29,0,.57.05.85.05s.57,0,.85-.05v6.31Z"/><path class="b" d="M126.58,114a1.79,1.79,0,0,0,0,.89,17.57,17.57,0,0,0-2.63-.15V117h1.19a11.56,11.56,0,0,0,1.4-.09,1.76,1.76,0,0,0,0,.89,11.33,11.33,0,0,0-1.4-.09h-1.19v2.63a23.17,23.17,0,0,0,2.63-.14,1.79,1.79,0,0,0,0,.89h-4.34V114Z"/><path class="b" d="M125.24,138.36c-2.52,0-4.2-1.33-4.2-3.7s2-3.73,4.49-3.73,4.21,1.48,4.21,3.69a3.72,3.72,0,0,1-2.89,3.55c.93.54,1.89,1,3,1.57a5.32,5.32,0,0,0-1.59.57c-.57-.4-1.14-.81-1.73-1.18l-1.23-.78Zm-2.31-3.4c0,1.35.67,2.78,2.38,2.78s2.54-1.37,2.54-3.31c0-1.34-.68-2.87-2.39-2.87-1.89,0-2.53,1.48-2.53,3.41Z"/><path class="b" d="M137.49,131.12c.29,0,.57.05.85.05s.57,0,.85-.05v2.94a12.38,12.38,0,0,0,.08,2,1.81,1.81,0,0,0,.6,1.19,2.21,2.21,0,0,0,3.33-.81,7.44,7.44,0,0,0,.2-2.14v-3.14l.46,0,.46,0v3.69c0,1.18,0,2.26-1.21,3a4,4,0,0,1-2.15.55c-1.38,0-2.87-.39-3.29-1.74a4.41,4.41,0,0,1-.18-1.27v-4.22Z"/><path class="b" d="M156.28,138.36c-2.52,0-4.21-1.35-4.21-3.7,0-2.06,1.65-3.73,4.49-3.73,3.25,0,4.2,2.08,4.21,3.69,0,2-1.7,3.74-4.49,3.74ZM154,135c0,1.35.67,2.78,2.38,2.78s2.54-1.59,2.54-3.31c0-1.34-.68-2.87-2.39-2.87S154,132.64,154,135Z"/><path class="b" d="M171.53,138.22c-.28,0-.57-.05-.86-.05s-.57,0-.85.05v-6.37a17.37,17.37,0,0,0-2.12.15,1.69,1.69,0,0,0,0-.88h5.87a1.71,1.71,0,0,0,0,.88,19.07,19.07,0,0,0-2-.15v6.37Z"/><path class="b" d="M181.17,131.12c.28,0,.57.05.85.05s.57,0,.85-.05v7.1c-.29,0-.57-.05-.85-.05s-.57,0-.85.05v-7.1Z"/><path class="b" d="M194.88,131.12a3.19,3.19,0,0,1,3.44,3.32c0,2.34-1.81,3.73-4.15,3.73H191v-7.05Zm-2.19,6.45h1c1.57,0,2.77-.72,2.77-3.14,0-1.95-1-2.71-2.62-2.71h-1.12v5.85Z"/><path class="b" d="M206,131.12c.28,0,.57.05.85.05s.57,0,.85-.05v7.1c-.28,0-.57-.05-.85-.05s-.57,0-.85.05v-7.1Z"/><path class="b" d="M220.31,131.12a1.76,1.76,0,0,0,0,.89,17.82,17.82,0,0,0-2.63-.14v2.23h1.19a11.44,11.44,0,0,0,1.4-.09,1.79,1.79,0,0,0,0,.89,11.25,11.25,0,0,0-1.4-.09h-1.19v2.63a23.14,23.14,0,0,0,2.63-.15,1.77,1.77,0,0,0,0,.89H216v-7.05Z"/><path class="b" d="M228.06,131.12h1.13c1.62,1.6,3.31,3.18,4.92,4.85v-4.85l.46,0,.46,0v7.1h-1c-1.32-1.34-2.55-2.61-3.84-3.84L229,133.19v5c-.15,0-.31,0-.46,0s-.31,0-.46,0v-7.08Z"/></svg>