<svg xmlns="http://www.w3.org/2000/svg" viewBox="0 0 250 250"><title>CR</title><path d="M215,152.79c0,5.55,0,11.1,0,16.65,0,1.09-.19,1.4-1.36,1.4q-58.44-.06-116.88,0H90.9a8.73,8.73,0,0,0,4.52-4.07c1.11-2.18.47-4-.86-5.64a5.09,5.09,0,0,0-5.14-1.81c-2.07.35-3.83,1.59-5.76,2.35-.31.12-.67.65-1,.13-.91-1.55-2.61-1.43-4-2,.39-.55.93-.25,1.4-.33a.55.55,0,0,0,.63.16l1.05.4c.73.45,1.15,1.58,2.38.88a16.09,16.09,0,0,1,5.63-2.27c.43-.06.85-.16.77-.84-.13-1.13,0-2.3-.23-3.42-.29-1.66-.23-3.48-1.74-4.7a16.22,16.22,0,0,0-3.27-5.15c-.7-.88-1.44-1.53-1-2.89.19-.59.76-1.34.27-2.1l1.06-3.85c1,.26,1.82,1.07,2.9.78,1.29.61,2.58,1,3.9.08a5.85,5.85,0,0,0,4.88-3c1.47-2.25,3.7-3.17,5.86-4.31.25-.13.53-.42.77,0,.55.84,1.05.21,1.5-.06,4.05-2.44,8.07-4.92,12.14-7.34.87-.52,1-1,.48-1.85-.88-1.5-1.62-3.09-2.47-4.73.75,0,.84.45,1,.78.74,1.24,1.48,2.47,2.2,3.73.32.57.61.78,1.28.37,2.28-1.43,4.58-2.81,6.91-4.16.84-.49.87-1,.39-1.78q-4.42-7.35-8.76-14.74c-.31-.53-1-1-.65-1.82a.36.36,0,0,0,.5.07h1.33a1.51,1.51,0,0,0,1.1,0l3.14,0,.07.05v-.09a2.79,2.79,0,0,0,.09-1.6c.54-2.76-.08-5.59.43-8.66.72,1.23,1.29,2.17,1.83,3.12,3.23,5.67,6.69,11.21,9.78,17,1.27,2.37,1.31,2.35,3.56,1,.13-.08.27-.13.4-.21l10.61-6.73c.45-.28,1-.47.58-1.25-1.09-2.07-2.12-4.18-3.15-6.29-.28-.58-.55-.65-1.14-.31-1.16.68-2.44,1.17-3.59,1.85-.88.52-1.31.38-1.86-.49-2.57-4.1-5.25-8.13-7.84-12.21-.52-.83-.86-.88-1.71-.33-2.42,1.57-4.94,3-7.48,4.5a18.32,18.32,0,0,1,0-4c.06-.93-.17-1.34-1.22-1.29-2.69.12-5.39.16-8.09.15-1,0-1.15.47-.92,1.19,1.29,4.14,1.71,8.47,2.87,12.63a1.55,1.55,0,0,1-.58,1.83c-2.11,1.72-4.49,3-6.74,4.54-.9.59-1.23,1-.54,2.05,1.91,3,3.66,6.13,5.46,9.2a24,24,0,0,0-4.62,2.35c-1,.61-1.56.57-2.23-.54-2.46-4.09-5.06-8.09-7.58-12.15-.51-.83-.89-1-1.84-.42a26.06,26.06,0,0,1-5.51,3.26c-.33.12-.79.38-.87,0-.2-1-.75-.65-1.32-.53-1.3.28-2.39.39-3.14-1.21a3.24,3.24,0,0,0-4-1.59c-.82.2-1-.08-1.27-.68a13.33,13.33,0,0,0-2.47-4.05,38.65,38.65,0,0,0-2.41-4.31c-.82-1.13-1.13-2.8-2.88-3.15-.9-.18-1.75-.59-2.64-.76A3.68,3.68,0,0,0,68.06,91h0c-1.16.16-1.67,1.18-2.42,1.87l-1.11.52-2.16.16c.94-1.19.94-1.19-.58-3.24-.78.4-1,1.46-2,1.78l.49-.95c1.23-.9,1.27-1.88.49-3.18-1.41-2.35-2.68-4.77-3.94-7.21-.34-.67-.76-.93-1.4-.73a29.1,29.1,0,0,0-8.94,4.09c-3.48,2.65-6.75,5.56-8.88,9.58a15.31,15.31,0,0,0-2,6.81,5.43,5.43,0,0,1-.52,3c0-7.65,0-15.31,0-23,0-1.09.19-1.4,1.36-1.4q39.32.06,78.64,0h80.14a.74.74,0,0,1-.39.58c-2,1.38-3.94,2.82-6,4.15-.73.48-.77.79-.33,1.52,1.06,1.74,2,3.55,3.09,5.5l-.78-.2c-4.2-1.25-8-.7-11.15,2.56-1,1-1.76,2.13-3.37,2.68-2,.7-3.75,2.28-5.63,3.45s-4.1,1.72-4.15,4.86c-1.31-1.86-2.33-3.28-3.32-4.73-.45-.66-.84-.74-1.58-.28-2.24,1.38-4.56,2.65-6.84,4-.79.45-1,1-.45,1.82a17,17,0,0,1,1.56,2.33c.93,1.95,2.48,3.58,3,5.75-.34.07-.5-.05-.69-.37-.73-1.24-1.52-2.44-2.29-3.66a2.52,2.52,0,0,0-3.5-.71,13.78,13.78,0,0,0-6.35,8.24c-1.25,4.43,1.05,10.83,5,12.94,4.33,2.33,8.69,2.57,13.07,0,2-1.15,2.5-2,1.77-3.31-1.31-2.35-2.66-4.68-3.93-7-.39-.73-.76-.79-1.34-.26a4.12,4.12,0,0,1-2.4,1.09c-.89.1-1.27-.4-1.59-1.07s0-1.1.58-1.49a5.39,5.39,0,0,1,2-1c1.1-.23.95-.7.45-1.44s-1.22-1.07-.79-2c.88.2,1,1,1.34,1.65,2.25,3.82,4.46,7.67,6.71,11.49.26.44.36,1.19,1.27.6,2.46-1.6,5-3.1,7.49-4.66.7-.44.88-.93.24-1.67a24.8,24.8,0,0,1-1.69-2.46,1.71,1.71,0,0,1,1.52.25c2.63,1.33,5.09,1.29,7.39-.71a3.15,3.15,0,0,1,.61-.39c2.38-1.24,4.43-3.12,7-3.87,4.22-1.22,6.77-3.85,7.6-8.15a24.86,24.86,0,0,0,.32-2.53c.08-1,.46-.84,1-.33,2,1.89,4.31,2,6.76,1a35.08,35.08,0,0,0,6.93-4.14c.48-.35.86-1.06,1.66-.78v36.35c-1.55-2.8-4.06-3.34-7-3-.66.07-1,.17-1,.92,0,2.65,0,5.3,0,8,0,.44-.06.83.63.94,3.54.58,5.51-.32,7.32-3.47v11.72a8.25,8.25,0,0,0-3.05-1.93c-.78-.21-.76-.8-.27-1.37l.6-.25c.06,1,.93.69,1.32.62.59-.1.79-.82,1-1.37s-.43-.6-.73-.76c-1.82-.95-4-.44-4.73,1.07-1,1.95-.39,3.34,1.88,4.41.61.29,1.31.74,1,1.39a1.14,1.14,0,0,1-1.87.23c-.32-.26-.84-.9-1.08,0-.15.59-1.28,1.22.09,1.91C211.2,154.8,212.82,154.62,215,152.79Zm-33.72-17.42.09-1.48,1.78-.05c1-.16,1.15-.52.6-2l-.6,0h-3.59c-.86-.19-.85.37-.85,1,0,2.59,0,5.18,0,7.76,0,.36-.16.85.48.89a2.79,2.79,0,0,0,1.8-.05l0,0a6.18,6.18,0,0,0,.15-3.22c.14-.36.49-.33.78-.4,1.92.12,1.92.12,1.73-1.73.09-.51-.18-.57-.58-.44l-1.77-.1Zm23,16.47-.05-1.14c.53-.41,1.18-.12,1.75-.31.32.09.59.05.7-.32.46-1.47-.06-2-1.9-1.78-.78-.25-.39-1-.55-1.44l.43-.31a3.31,3.31,0,0,0,1.64,0c1.23-.14.47-1.06.57-1.6s-.47-.51-.85-.52c-1.05,0-2.1,0-3.15,0-.84,0-1.14.25-1.12,1.11q.07,3.82,0,7.65c0,.89.35,1.13,1.16,1.08a19.58,19.58,0,0,1,2.85,0c1.09.1,1.14-.42,1.19-1.32.07-1.11-.49-1.11-1.26-1.06-.4,0-.8,0-1.2,0A.16.16,0,0,0,204.27,151.83Zm-10.6-11.93a4.9,4.9,0,0,0,.81-5.44,4.91,4.91,0,0,0-9.05-.12,5.49,5.49,0,0,0,1.88,6.76,4.75,4.75,0,0,0,6.36-1.21Zm-4.72,13.88a5.06,5.06,0,0,0,2.8-5.08c-.32-2.18-2.22-4.24-4.06-4.48a5.2,5.2,0,0,0-2.77,9.92,3.53,3.53,0,0,0,4-.35Zm-77.66-63c-.28-.17-.51,0-.74.13l-.48.2-.5.09A8.45,8.45,0,0,0,105,94.71c-1.27,1.81-.44,4.52,1.49,4.95,2.28.51,6.46-1.17,7.57-3.19.67-1.22,1.49-2.66.74-4A2.87,2.87,0,0,0,111.29,90.8Zm12.84,48.85a15.57,15.57,0,0,1-2.29,2.25,1.25,1.25,0,0,1-1.73-.06,1.3,1.3,0,0,1-.15-1.88,7.23,7.23,0,0,1,2.41-2c.69-.38.79-.67.35-1.34q-2.08-3.15-4-6.37c-.44-.71-.9-.86-1.57-.38-2.06,1.49-4.24,2.74-5.79,4.94-2.36,3.36-3.62,8.42-.67,13,1.72,2.71,4,5,7,5.68,4.1,1,7.84-.46,10.93-3.33a1.82,1.82,0,0,0,.52-2.42C127.47,145.13,125.85,142.46,124.13,139.65Zm3.39-14.24c-.33-.3-.58-.15-.9.07-1.92,1.32-3.85,2.63-5.81,3.9-.65.42-.68.83-.31,1.46q4.9,8.44,9.75,16.91c.47.82.83,1.08,1.7.5,2.16-1.43,4.38-2.77,6.56-4.19.62-.4.87-.81.3-1.64a73.48,73.48,0,0,1-4.92-8c-1-1.9-.2-3.9,1.91-4.31,1.18-.23,1.1-.63.6-1.44-1.27-2.09-2.53-4.2-3.74-6.32-.34-.59-.59-.65-1.12-.22a14.2,14.2,0,0,0-2.84,2.62C128.45,125.11,128.18,125.67,127.51,125.41Zm13-9-.66.4c-2,1.24-3.93,2.55-6,3.68-1,.55-1,1-.48,1.85,1.74,3,3.44,6,5.15,9,1.63,2.86,3.23,5.74,4.89,8.58.26.44.42,1.19,1.31.6,2.33-1.53,4.7-3,7.07-4.46.5-.31.67-.62.33-1.18q-5.47-8.92-10.93-17.85C141.09,116.85,141,116.43,140.55,116.46Zm60.11,37.64c-.74-1-1.37-2-2-2.86-.38-.53-.82-.89.16-1.44s1.19-1.91,1-3.07a2.47,2.47,0,0,0-2.33-2.15c-1.05-.14-2.09-.06-3.13-.14s-1.09.34-1.08,1.14c0,2.55,0,5.1,0,7.64,0,.74.18,1,1,1.08,1.42.13,1.57-.59,1.48-1.69,0-.31-.18-.8.23-.93s.61.38.8.69C198,154.46,198,154.46,200.66,154.09Zm5.05-17.37c0-3.08-2.12-5.4-5-5.33a5.24,5.24,0,0,0,0,10.45C203.32,141.84,206,139.64,205.71,136.72Zm-35.23,17.73a3.38,3.38,0,0,0,3.32-2.34c.43-2-.12-3-2.06-3.9a1.19,1.19,0,0,0-.27-.13c-.71-.1-1.13-.52-1-1.22.22-.86.93-.38,1.33-.23.62.24,1.06.3,1.26-.43.11-.4.74-.75.06-1.28a3.74,3.74,0,0,0-4.79.39c-1.39,1.73-1,4.47,1.38,4.84.73.11,1.61.6,1.27,1.44-.26.65-1.38.49-1.86.18-1.44-.94-1.35.51-1.64,1-.45.8.39,1.1.92,1.3A10.75,10.75,0,0,0,170.48,154.45Zm6.13-4.05c0,.8.05,1.6,0,2.39-.09,1,.14,1.52,1.35,1.51s1.3-.49,1.27-1.44c-.06-1.65,0-3.29,0-4.94,0-.76,0-1.4,1.05-1.27s.73-.67.78-1.23-.13-1-.9-1c-1.5,0-3,.06-4.49,0-.89,0-.81.46-1,1.09-.21.8.17,1.32.72,1.25,1.64-.21,1.2.88,1.22,1.7C176.63,149.1,176.61,149.75,176.61,150.4Z" style="fill:#fcfc04"/><path d="M84.29,170.81q-24.08,0-48.15,0c-1,0-1.14-.25-1.14-1.16q0-31.58,0-63.15c1.71.29,3.14,1.38,4.81,1.78a.61.61,0,0,0,.59.32h0c.3.39.77.41,1.2.51l.27.1a2.33,2.33,0,0,0,1.5.63h0a1.54,1.54,0,0,0,1.25.55h0a43.7,43.7,0,0,0,5.89,2.68c.29-.48,0-.77,0-1.1-.41-2-1.26-4.19.11-6.07a14.52,14.52,0,0,0,3.19-8,.7.7,0,0,0,.31.9c-.25.25-.11.53-.07.8l-.23,2.08-.36,1.55-.14.29-.25.29,0,0a5,5,0,0,0-1.29,1.69l.08,0-.09,0c-1.63,2.49-1.26,5-.25,7.62l.17.89.18.31a3.18,3.18,0,0,0,.51,1.52l.1.24.06.34.16.47a.86.86,0,0,0,.32.71,2.33,2.33,0,0,0,1.23,1.6c1.78,1.32,3.68,2.37,6,1.71a5.12,5.12,0,0,1,2.14-.14v0a9,9,0,0,1-2.46,2.68c-1.81,1.62-3.87,3-5,5.23-.88,1-.67,2.19-.5,3.36-.23,1.27.6,2.69-.67,3.84-.33.29.3.74.53,1.11.68,1.07,1.95,1.76,2.15,3.11.3,2,.81,2.78,2.69,3.05,1.21.18,1.07.62.63,1.43q-3.93,7.23-7.82,14.49a15.8,15.8,0,0,1-2.4,3.51c-.67.71-.31,2.14-1.35,2.86-.23.16-.1.36.11.59,1.18,1.22,1.49,1.25,2.6.07a1.26,1.26,0,0,1,.44-.38,2.36,2.36,0,0,0,1.64-2.42,3.56,3.56,0,0,1,.59-1.51q4.18-7.25,8.35-14.51c.77-1.34,1.59-2.67,2.44-4.09.63,1.11.26,2.14.55,3.17.63,2.24,1,4.69-.84,6.78-1,1.21-.72,1.87.89,2.14a2.84,2.84,0,0,0,2.1-.6c.47-.31,1.07-.94,1.59-.54,1.3,1,3.38,1.52,2.93,3.78a11.07,11.07,0,0,0,.23,3,.3.3,0,0,0-.06.26,3.53,3.53,0,0,0-.82,2.15l-.13.57a4,4,0,0,0,.09,3.92,4.26,4.26,0,0,0,2.69,2.11c.16.12.1.47.41.43.05,0,.08-.21.11-.32l.39.19c0,.18.08.29.28.24h.6c2.61.13,5.18-.71,7.8-.27l0,0c.19.51.56.12.85.17Z" style="fill:#fcfc04"/><path d="M39.84,108.31c-1.68-.4-3.1-1.49-4.81-1.78v-3a5.43,5.43,0,0,0,.52-3,15.31,15.31,0,0,1,2-6.81c2.13-4,5.4-6.93,8.88-9.58a29.1,29.1,0,0,1,8.94-4.09c.64-.2,1.06.06,1.4.73C58,83.25,59.33,85.68,60.73,88c.78,1.3.74,2.28-.49,3.18-1.77-.07-1.08,1.67-1.77,2.39l0,0a1.51,1.51,0,0,0-1.78,1.22l-.6.3c-.88-.23-1.51,0-1.76,1l-.25.28c-1.23-.07-1.55.9-1.55,1.73a12.37,12.37,0,0,1-2.34,7.23,9.51,9.51,0,0,0-.78,1.89c-.47,1.17.26,2.17.09,3.26-.1.6.15,1.11-.95.72s-2.46-1.09-3.85-.78h0c-.16-.76-.75-.55-1.25-.55h0c-.17-1-1-.53-1.5-.63l-.27-.1c-.18-.69-.74-.48-1.2-.51h0C40.37,108.26,40.31,107.91,39.84,108.31Z" style="fill:#020302"/><path d="M215,98.41c-.8-.28-1.18.42-1.66.78a35.08,35.08,0,0,1-6.93,4.14c-2.45,1-4.73.91-6.76-1-.54-.51-.92-.62-1,.33a24.86,24.86,0,0,1-.32,2.53c-.83,4.3-3.38,6.93-7.6,8.15-2.6.75-4.66,2.63-7,3.87a3.15,3.15,0,0,0-.61.39c-2.3,2-4.76,2-7.39.71a1.71,1.71,0,0,0-1.52-.25,24.8,24.8,0,0,0,1.69,2.46c.64.73.46,1.23-.24,1.67-2.49,1.56-5,3.06-7.49,4.66-.91.59-1-.16-1.27-.6-2.25-3.82-4.46-7.67-6.71-11.49-.36-.61-.46-1.46-1.34-1.65l0,0c-.49-2.17-2-3.8-3-5.75a17,17,0,0,0-1.56-2.33c-.56-.79-.34-1.37.45-1.82,2.29-1.31,4.6-2.57,6.84-4,.74-.45,1.12-.38,1.58.28,1,1.45,2,2.87,3.32,4.73,0-3.15,2.36-3.74,4.15-4.86s3.6-2.75,5.63-3.45c1.61-.55,2.36-1.65,3.37-2.68,3.17-3.25,7-3.8,11.15-2.56l.78.2c-1.09-2-2-3.77-3.09-5.5-.44-.73-.4-1,.33-1.52,2-1.33,4-2.76,6-4.15a.74.74,0,0,0,.39-.58h.9c.37,1.07,1.29,1.74,1.88,2.64.37.56.76.5,1.25.15.81-.58,1.64-1.13,2.47-1.68.36-.24.67-.6,1.09,0q2.47,3.74,5,7.42c.39.56.31.84-.25,1.18-.94.57-1.8,1.25-2.75,1.8s-.86,1.11-.38,1.93,1,1.16,1.94.68a13.21,13.21,0,0,0,3.46-2c.65-.66,1-.56,1.45.2,1.21,2,2.48,4,3.73,6ZM170.73,115.3a3.87,3.87,0,0,1,.82.07c1.94.64,3.88,1.27,5.79,2a3.42,3.42,0,0,0,3,0,61.37,61.37,0,0,1,6-3.52,1.08,1.08,0,0,0,.59-.64c.06-.39-.38-.35-.65-.45-3.63-1.33-7.28-2.59-11-3.66-.84-.24-1.44-.82-1.27-1.59.47-2.06.14-4.2.77-6.24a8.65,8.65,0,0,0,.23-2.08c0-.6,0-1-.8-.47a45.17,45.17,0,0,1-4.2,2.57,3.92,3.92,0,0,0-2.25,3.7,5,5,0,0,1-1,2.7c-1.31-1.95-2.61-3.7-3.7-5.59-.68-1.18-1.32-1.37-2.44-.67s-2.24,1.26-3.38,1.83-1.37,1.3-.64,2.37c1.72,2.53,3,5.3,4.51,8,2,3.49,4,7,6,10.4.36.62.89,1.07,1.72.52,1.34-.9,2.71-1.76,4.08-2.6,1-.61,1.17-1.13.38-2.2C172.46,118.38,171.18,117.15,170.73,115.3Zm7.21-13.74a17.07,17.07,0,0,0,.69,4c.54,2.08,1.39,3.8,3.81,4.13a13.72,13.72,0,0,1,3.63,1.31,7.42,7.42,0,0,0,10.64-5.72c.16-.9,1-2.07.21-2.63s-1.62.63-2.44,1-1.73.68-2,1.6c-.85,2.68-2.15,3.47-4.84,2.66a2.74,2.74,0,0,1-2-1.88c-.21-.92.86-1.1,1.43-1.49,2.68-1.81,5.4-3.55,8.09-5.34.47-.31,1.29-.71.77-1.36-1.41-1.76-2-4.11-4.39-5.16a9.76,9.76,0,0,0-7.14-.76A9.42,9.42,0,0,0,177.94,101.57Zm25.74.83a10.72,10.72,0,0,0,2.53-.63c2.31-1,4.25-2.54,6.4-3.79.67-.39.6-.78.18-1.31A8,8,0,0,1,211.55,95c-1-2.16-1.35-2.22-3.35-.87-.17.11-.32.25-.49.34-2,1.13-3.65.67-4.74-1.36a14.64,14.64,0,0,0-.57-1.36c-.47-.7-.11-1.14.38-1.51a8.92,8.92,0,0,1,2.09-1.36c1.14-.44,1-1.12.53-1.87-.62-1.07-1.26-2.14-2-3.15-1.32-1.86-1.84-1.92-3.51-.58-1.46,1.18-2.18,1.1-3.13-.5-.71-1.19-1.49-1.44-2.66-.64a26.17,26.17,0,0,1-3.35,2.15c-.41.2-.93.62-.49,1.34,1.62,2.7,3,5.52,4.9,8.09a26.71,26.71,0,0,1,2.25,3.3,18.49,18.49,0,0,0,3.68,4.44A3.75,3.75,0,0,0,203.68,102.39Zm-28,3.18a7,7,0,0,1-.09,1,.82.82,0,0,0,.64,1.13c.43.12.93.5,1.27.2s.07-1-.17-1.35-.14-.86-.33-1.24c-.38-.76-.07-2.32-.83-2.22S175.69,104.69,175.68,105.57Zm14.86-1.29a11.39,11.39,0,0,0-2.8,2c1,.63,2,.93,2.84.22S190.9,105,190.54,104.28Z" style="fill:#201004"/><path d="M73.48,169.91a4.26,4.26,0,0,1-2.69-2.11,5.1,5.1,0,0,0-.09-3.92l.13-.57c1.51-.25.59-1.42.82-2.15a.3.3,0,0,1,.06-.26c.49-.09.84-1.22,1.53-.2.05.08.2-.44.25-.7l1.5,0c.59.86,1.34.53,2.09.29s.62-.76.53-1.3h0c1.15-.5.89-1.11.12-1.74-.46-.89-1.26,0-1.82-.34.36-.21.72-.43,1.09-.62a.94.94,0,0,0,.45-1.12c-.08-.51-.23-1-.93-.76,0-.37.33-.63.37-.91.15-1,.81-2.06-.4-2.85-.38-.74-.77-1.48-1.13-2.24-.22-.46-.23-.92.4-1A2.12,2.12,0,0,0,77.82,145c0-.29.31-.6.48-.9a21.71,21.71,0,0,1,3.21-1.31c1-.22,2.2-.7,2.23-2.18,0-.47.42-.76.81-1,.5.76-.08,1.51-.27,2.1-.44,1.36.3,2,1,2.89a16.21,16.21,0,0,1,3.27,5.15c.31,1.55.56,3.13,1,4.66a5.59,5.59,0,0,1,.07,3.07c-.27.88-1.31.33-2,.45a7.3,7.3,0,0,0-1,.34c-1.67.51-2.86,2.31-4.89,1.83l-1.05-.4c-.11-.47-.28-.67-.63-.16-.46.08-1-.22-1.4.33,1.41.52,3.11.4,4,2,.31.52.67,0,1-.13,1.93-.76,3.69-2,5.76-2.35a5.09,5.09,0,0,1,5.14,1.81c1.33,1.69,2,3.46.86,5.64a8.73,8.73,0,0,1-4.52,4.07H84.29l-.35-.42c-.24-.28-.55-.18-.85-.17l0,0c-.16-.09-.33-.27-.5-.27-2.18,0-4.36,0-6.54,0-.39,0-.68.12-.76.54h-.6l-.28-.24L74,170Zm5.69-16.23.56-.59c.14.86.79.81,1.36.66s.23-.65.2-1a27.46,27.46,0,0,0-.83-4.51c-.14-.55-.37-.63-.82-.53s-.7.22-.56.79a19.18,19.18,0,0,1,.31,2.19H79a6.6,6.6,0,0,0-.79-2.06c-.26-.65-.69-.51-1.21-.38-.92.22-.25.75-.16,1a9.71,9.71,0,0,1,1.09,3.51C77.87,153.88,78.42,153.82,79.18,153.68Zm11.41,11.59A10.1,10.1,0,0,1,84.77,168C88.32,170.09,90.38,169.16,90.58,165.27Zm-5.2-14.94c.26.6.52,1.11.7,1.64s.32,1.24.51,1.84c.12.39.37.79.82.68s.37-.54.42-.88A3.33,3.33,0,0,0,85.38,150.33Z" style="fill:#020302"/><path d="M215,97.51c-1.25-2-2.52-4-3.73-6-.45-.76-.8-.86-1.45-.2a13.21,13.21,0,0,1-3.46,2c-.91.49-1.44.17-1.94-.68s-.54-1.4.38-1.93,1.81-1.23,2.75-1.8c.56-.34.63-.62.25-1.18q-2.56-3.68-5-7.42c-.42-.63-.73-.27-1.09,0-.83.55-1.66,1.1-2.47,1.68-.49.35-.88.41-1.25-.15-.59-.9-1.51-1.58-1.88-2.64,6,0,12,0,18,0,.75,0,.93.17.92.92C215,85.9,215,91.71,215,97.51Z" style="fill:#fcfc04"/><path d="M215,138.07c-1.81,3.14-3.78,4-7.32,3.47-.68-.11-.63-.5-.63-.94,0-2.65,0-5.3,0-8,0-.75.33-.86,1-.92,2.92-.3,5.43.25,7,3Zm-5.5-1.63a7.41,7.41,0,0,0,0,1.2c.09.53-.37,1.36.4,1.54a2,2,0,0,0,2-.78A2.82,2.82,0,0,0,212,135a2.12,2.12,0,0,0-2.18-1c-.75.19-.28,1.11-.38,1.7A4.64,4.64,0,0,0,209.47,136.44Zm-.07,3.78c-1.12-.82-1.45-1.5-.85-2.72a2,2,0,0,0-1.09-3c0,1.64.05,3.12,0,4.59C207.38,140.4,207.9,140.71,209.4,140.22Zm3.68-2.87a4.72,4.72,0,0,1-2.44,2.94c.73.1,1.62.55,2-.1S213.92,138.7,213.08,137.35Zm-1.54-3.91a6.91,6.91,0,0,1,1.7,2.21C213.59,133.9,213.27,133.44,211.54,133.44Z" style="fill:#201004"/><path d="M215,152.79c-2.15,1.83-3.77,2-5.9.95-1.37-.68-.24-1.32-.09-1.91.24-.91.76-.28,1.08,0a1.14,1.14,0,0,0,1.87-.23c.33-.66-.38-1.11-1-1.39-2.27-1.07-2.86-2.46-1.88-4.41.76-1.51,2.91-2,4.73-1.07.3.16.89.2.73.76s-.37,1.26-1,1.37c-.4.07-1.26.37-1.32-.62.21-.77,1.16.76,1.16-.33s-.87-.54-1.39-.62a1.78,1.78,0,0,0-.89,0c-.95.38-1.8,1-1.83,2.08s.71,1.55,1.76,1.52c.2,1,1.15,1.09,1.83,1.5.18.11.4.16.49-.06a.77.77,0,0,0,0-.56c-.48-1-1.38-.95-2.28-.9-.12-.27-.23-.54-.35-.8-.46-1-.42-1.66.92-1.59-.49.57-.51,1.16.27,1.37a8.25,8.25,0,0,1,3.05,1.93Zm-1.69-1.38c-.94.88-1.56,2.27-3.1,1.17a.52.52,0,0,0-.68.05c-.24.28,0,.43.21.59a2.73,2.73,0,0,0,2.92.29C213.43,153.23,213.71,152.42,213.28,151.41Z" style="fill:#201004"/><path d="M76.48,150.69c1.21.79.55,1.88.4,2.85,0,.28-.38.54-.37.91a30.84,30.84,0,0,1-3.07,1c-1.71.3-2,1.23-.8,2.71l1.38.81c-.24.32-1.39.22-.54,1.05,0,.26-.2.78-.25.7-.69-1-1,.11-1.53.2a11.07,11.07,0,0,1-.23-3c.44-2.26-1.64-2.79-2.93-3.78-.52-.4-1.12.23-1.59.54a2.84,2.84,0,0,1-2.1.6c-1.61-.27-1.93-.93-.89-2.14,1.79-2.09,1.47-4.54.84-6.78-.29-1,.08-2.05-.55-3.17-.85,1.42-1.66,2.74-2.44,4.09q-4.18,7.25-8.35,14.51a3.56,3.56,0,0,0-.59,1.51,2.36,2.36,0,0,1-1.64,2.42,1.26,1.26,0,0,0-.44.38c-1.11,1.18-1.43,1.16-2.6-.07-.21-.22-.35-.43-.11-.59,1-.71.68-2.15,1.35-2.86a15.8,15.8,0,0,0,2.4-3.51q3.89-7.26,7.82-14.49c.44-.81.58-1.25-.63-1.43-1.89-.27-2.39-1-2.69-3.05-.2-1.35-1.47-2-2.15-3.11-.23-.37-.86-.81-.53-1.11,1.27-1.15.44-2.57.67-3.84,1.11-1,.29-2.24.5-3.36,1.18-2.23,3.24-3.61,5-5.23a9,9,0,0,0,2.46-2.68,1.53,1.53,0,0,0,1.74.19,7.09,7.09,0,0,1,3.65-.74c-.76-1.65-1.48-3.17-2.16-4.71-.41-.91-.78-1.22-1.66-.35s-2,2-3.66,1.41l0-1.3a1.65,1.65,0,0,0,2.34-.15c.55-.47,1.26-.76,1.82-1.21s.7-.23,1.1.12c.75.66.59,1.79,1.37,2.4h0a12.46,12.46,0,0,0,1.69,3.73,1,1,0,0,0,1.16.44c3.54-.5,7.22.08,10.62-1.75,1.76-1,4.07-.9,5.15-3,.58.87-.87,1.32-.49,2.05,1,2,.29,4.09.5,6.12.07.65-.31.89-.94.77,1.17-1.9.36-3.86.11-5.8.26,1.94-.63,3.84-.11,5.79.19.39-.56,1.24.28,1.18,1.32-.1,2.08.72,3,1.29a5.3,5.3,0,0,1,0,1c-.31,1.4-.6,2.8-1,4.18-.54,1.86-.14,2.75,1.76,3.1,2.78.52,5.31.12,7.39-2.11.95-1,1-1.67-.26-2.21a4.26,4.26,0,0,1-2.55-3.41c-.11-.6-.33-1.11-1-.47-1,.94-1.5.35-1.93-.67a7,7,0,0,0-2.67-3.63c-.52.29-.42,1.08-1.07,1.2a13.28,13.28,0,0,1-.33-2.23c0-1-.41-2.13.6-2.94.64.63-.3,1.65.64,2.28a10.13,10.13,0,0,1,3.74,4.11c.18.39.44.82.87.48,1.15-.9,2.74-1.42,3.26-2.88a3.75,3.75,0,0,1,1.52-2.1c1.44-.84,1.24-1.81.55-3-1.31-2.18-2.57-4.39-3.92-6.55-.45-.72-.69-2-1.67-1.87-.74.09-.85,1.32-1.23,2a15.62,15.62,0,0,1-3.68,5.06c-.1-.8-.67-.91-1.32-.88a4.61,4.61,0,0,1,.37-1.59,29.56,29.56,0,0,0,1.81-7.63A3,3,0,0,0,86,103.66c-1-.56-1.93-.06-2.94.36-1.36.56-2.18,1.74-3.38,2.45-.57.33-1,.45-1.34-.23-.86-1.63-1.76-3.24-2.58-4.89-1.26-2.53-1.08-3.6.84-5.55-.25-.55-.94-.54-1.28-1a1.56,1.56,0,0,1,2.07,1.49h0l-.65.45.37.17A2.42,2.42,0,0,0,76,100.26a31.14,31.14,0,0,0,2.64,5c.12.2.22.65.64.34s.79-.48.59-1a6.52,6.52,0,0,0-.36-.65,2.71,2.71,0,0,1-.37-2.55c.42-.91,1.31-.61,2.19-.7l-1.63-2.53.35-.49a13.33,13.33,0,0,1,2.47,4.05c.29.6.45.88,1.27.68a3.24,3.24,0,0,1,4,1.59c.75,1.6,1.84,1.49,3.14,1.21.57-.12,1.13-.45,1.32.53.08.41.54.15.87,0a26.06,26.06,0,0,0,5.51-3.26c.95-.62,1.32-.41,1.84.42,2.52,4.05,5.12,8.06,7.58,12.15.67,1.11,1.23,1.15,2.23.54a24,24,0,0,1,4.62-2.35c-1.8-3.07-3.55-6.19-5.46-9.2-.69-1.09-.36-1.46.54-2.05,2.26-1.5,4.63-2.82,6.74-4.54a1.55,1.55,0,0,0,.58-1.83c-1.16-4.16-1.58-8.5-2.87-12.63-.22-.72,0-1.19.92-1.19,2.7,0,5.4,0,8.09-.15,1,0,1.28.36,1.22,1.29a18.32,18.32,0,0,0,0,4c2.54-1.52,5.06-2.93,7.48-4.5.85-.55,1.18-.5,1.71.33,2.59,4.09,5.26,8.12,7.84,12.21.55.88,1,1,1.86.49,1.16-.69,2.43-1.18,3.59-1.85.59-.34.86-.27,1.14.31,1,2.11,2.06,4.22,3.15,6.29.41.78-.13,1-.58,1.25l-10.61,6.73c-.13.08-.27.13-.4.21-2.25,1.39-2.29,1.42-3.56-1-3.08-5.76-6.55-11.3-9.78-17-.54-.95-1.11-1.88-1.83-3.12-.51,3.07.11,5.91-.43,8.66h-1.48c.11-3.74.15-7.48.35-11.21.07-1.36-.44-1.63-1.63-1.53a22.54,22.54,0,0,1-3.44.05c-1.13-.08-1.46.31-1.39,1.44.18,2.75,1.18,5.32,1.67,8,.63,3.47.8,3.44,4.43,3.23-1.15,1.27-2.71.78-3.88.43-1.59-.47-1.06.26-.89,1a.22.22,0,0,0,0,.19c-.33.8.34,1.29.65,1.82q4.32,7.41,8.76,14.74c.48.79.45,1.29-.39,1.78-2.32,1.35-4.63,2.74-6.91,4.16-.67.42-1,.2-1.28-.37-.71-1.25-1.46-2.49-2.2-3.73-.2-.33-.28-.77-1-.78.85,1.64,1.59,3.23,2.47,4.73.52.88.39,1.33-.48,1.85-4.06,2.42-8.08,4.9-12.14,7.34-.45.27-1,.9-1.5.06-.24-.37-.52-.09-.77,0-2.16,1.15-4.39,2.06-5.86,4.31a5.85,5.85,0,0,1-4.88,3,5.71,5.71,0,0,0-3.9-.08c-1.08.29-1.86-.52-2.9-.78l-1.06,3.85c-.38.24-.8.52-.81,1,0,1.48-1.22,2-2.23,2.18a21.71,21.71,0,0,0-3.21,1.31c-.12-1.13.83-1,1.47-1.31s2-.49,1.93-1.35-1.3-1.26-2.18-1.55a7.3,7.3,0,0,0-1.94-.11,1,1,0,0,0-1,.74,3.33,3.33,0,0,1-3.12,1.93c-2.23.15-4.46.1-6.7.43-1.16.17-1.14.6-1,1.44.67,3,1.33,6-.49,8.88-.14.23-.36.52-.12.81s.55.22.84.15a1.88,1.88,0,0,0,1.38-1.05c.83-1.82.82-1.82,2.05-.23.06.08.14.15.2.23,1.5,2,2.26,2,5.22,1C76.81,153.48,76.66,152.17,76.48,150.69Zm-3.6-22.81c.39,0,.78,0,1.17,0s.84.45,1.2,0a.42.42,0,0,0,0-.4,1.16,1.16,0,0,0-1.34-.32c-.51.24-1.38-.27-1.55.69-.39.15-1-.15-1.16.4s.47.68.79.92a5.22,5.22,0,0,0,1.2.53c-.24.42-.72.51-1.09.76a.9.9,0,0,0-.28,1.42c2.14,2.13,2.08,4.7,1.73,7.39-.06.48-.4,1.23.23,1.47.79.29,1-.58,1.41-1.05.12-.14.11-.38.17-.57A15.8,15.8,0,0,0,76,131c-.43-2.37-.35-2.49-2.46-1.62C73.65,128.74,73,128.44,72.88,127.88Zm-2.8-.69c-.47-1.66.1-3.51-.78-5.43-.45,1.09,0,1.93-.48,2.65-.29-.54,0-1.26-.56-1.73,0,1.93-.64,3.88.4,5.73-1.13.3-.77-.63-.81-1.08-.14-1.59-.19-3.19-.27-4.78,0-.48-.07-1-.66-1a6.49,6.49,0,0,0-3.6.95,43.14,43.14,0,0,0-5.71,4.94c-.86.9-2.22,1.64-2.17,3.22,0,.48-.24,1.08.31,1.35a1.41,1.41,0,0,0,1.55-.21,4.63,4.63,0,0,1,2.55-1.12c1.33-.18,2.65-.45,4-.67,1.61-.28,2.17.18,2.8,1.72.52,1.28.07,2.88.83,3.85a5.78,5.78,0,0,1,1.23,4.4c-.08.88.34,1.12,1.14,1.09,1.3,0,2.27-1.34,2.45-3.21.23-2.52-1.08-4.27-2.85-5.75-1-.88-1.1-1.29.08-1.86a4.1,4.1,0,0,0,1.39-1c-.43-.54-1.12-.44-1.62-.78,0-.41.29-.53.65-.6S70.44,127.5,70.08,127.19Zm17.21-11.9a16.94,16.94,0,0,0,4-8.09c.21-1,.31-1.75-1.12-1.32a4.53,4.53,0,0,1-1.19.07c-.47,0-.75.15-.72.7.15,2.8-.89,5.38-1.42,8.06-.05.26-.57.75.21.83Zm16.82,5.08c0-.89.71-1.4,1.1-2.08a.89.89,0,0,0,0-1.11c-.28-.32-.61,0-.92,0-1.51.05-2.23,1.18-3.21,2.09.74.45,1.79.18,2.16,1.14a4,4,0,0,0-4,.45c-.14.11-.38.07-.57.12a2.9,2.9,0,0,0-2.33,3.68,6.93,6.93,0,0,0,1.51,3.21c.86.92,1.88,2.14,3.42,1.57a12.9,12.9,0,0,0,4-3c.29-.27.4-.91,0-.87-1.49.12-.35-.56-.36-.92q-.06-2-.23-4C104.74,120.55,104.34,120.47,104.12,120.37ZM132.2,83.75s-.22,0-.3.12c-1.11,1.5-2.92,2-4.35,3-.8.57-.72,1.11-.26,1.89,1.75,2.94,3.41,5.94,5.14,8.89s3.5,5.83,5.25,8.75c.37.61.66,1.23,1.59.63,3.13-2,6.3-4,9.46-5.92a1.14,1.14,0,0,0,.5-1.74c-.54-1-1-2.05-1.51-3.08-.33-.67-.75-1-1.52-.53-1,.56-2.07,1-3.06,1.55-1.2.7-2,.43-2.41-.85a3.21,3.21,0,0,0-.35-.63C137.93,92,135.46,88.16,133,84.3,132.83,84,132.75,83.68,132.2,83.75Zm-25.64,43c3.13-1.86,6-3.64,9-5.32.86-.49,1-.94.56-1.77-.63-1.11-1.23-2.25-1.81-3.39-.37-.72-.89-.71-1.49-.38-.87.48-1.73,1-2.58,1.48a2,2,0,0,1-3.13-1.17,2.22,2.22,0,0,0-.24-.7c-2.59-3.25-4.53-6.95-6.87-10.36a1.28,1.28,0,0,0-2-.48c-1.33.79-2.61,1.64-3.9,2.49-.65.43-.94.84-.41,1.7,1.79,2.9,3.44,5.89,5.19,8.82.9,1.51.93,1.46,2.36.23a16,16,0,0,1,1.39-1.08,2.66,2.66,0,0,1,3.1-.13c.82.63.28,1.66,0,2.5-.13.34-.45.53-.34,1C105.8,122.3,106.14,124.39,106.56,126.71Zm19.11-12.25c-.09-.15-.23-.35-.35-.57-1.18-2.1-2.51-4.11-3.7-6.19-1.38-2.41-2.81-4.78-4.21-7.18-.47-.8-1-1.1-1.89-.39s-2.11,1.31-3.11,2-1.75,1.32-.68,2.7a21.16,21.16,0,0,1,1.45,2.4c1.94,3.4,3.94,6.76,5.94,10.12.31.52.64,1.2,1.5.65,1.51-1,3-1.89,4.56-2.82A.78.78,0,0,0,125.67,114.46ZM79.61,135.88a2.47,2.47,0,0,1,0,1.5c-.05.4-.48,1,.12,1.17s.67-.54.78-1c.9-3.53,1.76-7.06,1.44-10.76-.13-1.51-.6-2-1.86-1.2-.66.4-1.85-.08-2.07,1.21-.06.33-.54.05-.76-.28a.62.62,0,0,0-.92-.15c-.3.23,0,.53.06.8.72,3.57,1.51,7.14.41,10.78-.11.35-.07.52.32.64,1.19.38,1.92,0,1.83-1.24C78.9,136.7,79.24,136.42,79.61,135.88Zm-15.32,5.22c.75,0,1.35,0,1.95,0a.83.83,0,0,0,.9-.61c.83-2.12-1.68-5.63-3.95-5.5-2.44.14-3.8,1.71-4.93,3.64-.52.89-1.09,1.82-.25,2.7a2.45,2.45,0,0,0,3.17.42A5.29,5.29,0,0,1,64.29,141.09Zm22-13.4c.12-.78-.28-1-.95-1a2.47,2.47,0,0,1-.88-.16c-1.28-.6-1.47,0-1.46,1.15a21,21,0,0,1-.51,6.4c-.39,1.29-.67,2.61-1,3.9-.33,1.12.36,1.62,1.2,1.88s1-.59,1.13-1.19q.49-1.88.92-3.78C85.23,132.46,85.75,130.07,86.28,127.69ZM60.65,132c-1.86,0-4.76,1.82-5.38,3.43-.39,1,.43,1.43.94,2s.95.1,1.21-.27a8.79,8.79,0,0,1,3.78-3.41c.54-.21.52-.81.4-1.31S61,132.09,60.65,132Zm-3.14,18.71c-.4,0-.41.47-.55.74-1.05,2-2,4.06-3.16,5.94s-1.54,4.4-3.72,5.69c-.27.16-.52.64-.12.88s.8,1.06,1.51.69c.38-.2.75-.73.42-1.12-.71-.82-.09-1.33.27-1.93,2-3.23,3.94-6.47,6-9.66C58.74,151.07,58,151.05,57.51,150.76Zm37.67-25c-.63.16-.7.58-.71,1.06a4.68,4.68,0,0,0,3.5,4,.7.7,0,0,0,.76-.36c.18-.35,0-.55-.22-.77-1.07-1-2.3-1.93-2.83-3.43C95.62,126,95.34,125.9,95.18,125.76Zm-29.15,9a15.39,15.39,0,0,0-.23-2.54,1.48,1.48,0,0,0-1.73-1.26c-1.12.24-1.19,1.31-1.36,2.22-.22,1.13.77.59,1.19.81A16.59,16.59,0,0,0,66,134.74ZM75.33,121c.37,1.42.65,2.46.9,3.5a1.52,1.52,0,0,0,3-.36,8.07,8.07,0,0,0-1-3.65c-.13,1.18.47,2.5-.68,2.76S76.31,122,75.33,121Zm.07,4.4c-.07-1.67-.92-1.86-2.22-1.29a10.6,10.6,0,0,1-1.41.47.86.86,0,0,0-.7,1.1c.11.69.61.54,1,.46C73.22,125.9,74.32,125.64,75.41,125.39Zm6.33-6.24c-.65.36-2-.3-2.15,1.19,0,.36-.26,1.32.79,1.27s2.49-.94,2.51-1.73S82.4,119.13,81.74,119.15ZM83.22,122c-.8.29-1.59.59-2.38.87s-.51.79-.46,1.25.5.27.8.26C83.31,124.34,83.33,124.31,83.22,122ZM62.75,142.48c-2.37,1.21-3,2.93-1.76,4.24Zm9.79-21c-.78.19-2.28-.52-1.59,1.31.44,1.18,1.19.17,1.71.09s1.75,0,1.7-.76C74.28,121,73.13,121.73,72.54,121.48Zm13.84,10.76a3.5,3.5,0,0,0,0-2.78A3.64,3.64,0,0,0,86.38,132.25ZM59,148.31a.57.57,0,0,0,0,1.13c.42,0,.65-.17.64-.6S59.4,148.32,59,148.31Z" style="fill:#201004"/><path d="M77.39,96.31a1.56,1.56,0,0,0-2.07-1.49l0,0c-.23-.79-.67-.68-1.18-.28a3.66,3.66,0,0,0-2.7.68,16.7,16.7,0,0,1-4.22,2.13c-2.54,1.16-4.89,2.58-6,5.49-1.53,4.1-2.62,8.17-.93,12.48l0,1.3-.56-.11c-.07,0-.18-.15-.19-.14s-.11.24,0,.36a34.29,34.29,0,0,1,2.83,4.09,5.12,5.12,0,0,0-2.14.14c-2.29.67-4.19-.39-6-1.71.12-.94.1-1.77-1.23-1.6a.86.86,0,0,1-.32-.71l-.16-.47-.06-.34a.24.24,0,0,0-.1-.24,3.18,3.18,0,0,1-.51-1.52l-.18-.31-.17-.89a.87.87,0,0,0,.34-.78q0-3.42-.1-6.84l.09,0-.08,0c1.23,0,1.32-.78,1.29-1.69l0,0,.25-.29.14-.29c1.24-.25.94-.87.36-1.55L54,99.6a.65.65,0,0,0,.07-.8.7.7,0,0,1-.31-.9c.42-.09.75-.26.68-.77,1.15-1.61,2.94-2,4.69-2.41.44.07.65-.61,1.21-.29.95.53,1.54,0,2-.81l2.16-.16c.53.17,1,.27,1.11-.52.75-.7,1.26-1.71,2.42-1.87.1.39-.19.91.37,1.17.46-.6.07-.9-.37-1.18a3.68,3.68,0,0,1,4.09-1.62c.9.17,1.75.58,2.64.76,1.74.35,2.05,2,2.88,3.15a38.65,38.65,0,0,1,2.41,4.31l-.35.49c-.79-.58-1.52-1.31-2.63-1.2l-.37-.17.65-.45c.11.09.16.37.37.1ZM66.92,93c-.2,0-.43,0-.46.25s.23.29.42.27.35-.08.38-.17C67.33,93.14,67.12,93.08,66.92,93Z" style="fill:#020302"/><path d="M158.79,113.12c-.43.94.39,1.42.79,2s.66,1.2-.45,1.44a5.39,5.39,0,0,0-2,1c-.54.39-.91.79-.58,1.49s.7,1.17,1.59,1.07a4.12,4.12,0,0,0,2.4-1.09c.58-.53.94-.47,1.34.26,1.28,2.37,2.63,4.69,3.93,7,.73,1.31.2,2.15-1.77,3.31-4.38,2.57-8.74,2.32-13.07,0-3.92-2.11-6.22-8.5-5-12.94a13.78,13.78,0,0,1,6.35-8.24,2.52,2.52,0,0,1,3.5.71c.77,1.22,1.56,2.42,2.29,3.66.19.32.35.45.69.37ZM157.55,130a10.19,10.19,0,0,0,5.33-1.54c.84-.6,1.87-1,.93-2.52-.71-1.11-1.29-2.33-1.94-3.5s-1.14-1.64-2.64-1.15c-2.79.92-4.47-.64-4.1-3.42.14-1.08,1-1.47,1.7-1.94s.87-.94.36-1.69a34.88,34.88,0,0,1-1.83-3.08c-.86-1.61-1.65-1.94-3.17-.84-3.34,2.42-5.37,5.89-5.18,9.9C147.26,125.2,152,129.83,157.55,130Z" style="fill:#201004"/><path d="M124.13,139.65c1.72,2.81,3.34,5.48,5,8.14a1.82,1.82,0,0,1-.52,2.42c-3.08,2.88-6.83,4.31-10.93,3.33-3-.72-5.3-3-7-5.68-2.94-4.62-1.69-9.68.67-13,1.54-2.2,3.73-3.45,5.79-4.94.66-.48,1.13-.33,1.57.38q2,3.22,4,6.37c.44.67.35,1-.35,1.34a7.23,7.23,0,0,0-2.41,2,1.3,1.3,0,0,0,.15,1.88,1.25,1.25,0,0,0,1.73.06A15.57,15.57,0,0,0,124.13,139.65Zm-3.41,12.55a11.29,11.29,0,0,0,6.27-2.6,1.33,1.33,0,0,0,.35-2c-.83-1.35-1.69-2.69-2.49-4.05a1.29,1.29,0,0,0-2.09-.5c-1.54,1-3.15.77-4-.38a3.16,3.16,0,0,1,.52-4.28c1.79-1.68,1.79-1.68.51-3.7-.13-.21-.28-.41-.42-.62-1.92-2.89-1.93-2.91-4.6-.66a11.18,11.18,0,0,0-4.18,7.14A10.17,10.17,0,0,0,120.71,152.2Z" style="fill:#201004"/><path d="M127.51,125.41c.66.26.93-.31,1.19-.66a14.2,14.2,0,0,1,2.84-2.62c.54-.44.79-.37,1.12.22,1.22,2.12,2.47,4.23,3.74,6.32.49.81.58,1.21-.6,1.44-2.11.41-2.89,2.42-1.91,4.31a73.48,73.48,0,0,0,4.92,8c.57.83.31,1.24-.3,1.64-2.18,1.41-4.4,2.75-6.56,4.19-.87.58-1.24.32-1.7-.5q-4.83-8.48-9.75-16.91c-.37-.63-.35-1,.31-1.46,2-1.27,3.89-2.58,5.81-3.9C126.93,125.26,127.19,125.11,127.51,125.41Zm4,21.1a1.78,1.78,0,0,0,.47-.07c1.69-1,3.38-2.06,5.06-3.12.48-.3.2-.58,0-1-1.38-2.38-3.09-4.54-4.26-7.07s-1.17-3.82,1-5.9c.44-.42.76-.88.53-1.43a12.31,12.31,0,0,0-1.81-3.33c-.44-.52-.81-.62-1.48-.08a4.81,4.81,0,0,0-1.62,3.09c-.15.74-.56,1.08-1.08.45-1-1.19-1.8-.82-2.77,0a11.33,11.33,0,0,1-2,1.26c-1.26.65-1.33,1.5-.57,2.6a49.56,49.56,0,0,1,3.2,5.32c1.51,2.9,3.11,5.73,4.78,8.53C131.12,146.06,131.14,146.58,131.54,146.51Z" style="fill:#201004"/><path d="M140.55,116.46c.45,0,.54.39.7.65Q146.72,126,152.18,135c.34.56.18.87-.33,1.18-2.37,1.47-4.74,2.93-7.07,4.46-.89.59-1.06-.16-1.31-.6-1.65-2.85-3.26-5.72-4.89-8.58-1.71-3-3.41-6-5.15-9-.48-.84-.51-1.31.48-1.85,2-1.12,4-2.44,6-3.68ZM150.61,135c-.5-.8-1.1-1.73-1.69-2.61-2.81-4.22-5.28-8.66-8-12.95-.54-.86-1-.86-1.66-.5-1.2.68-2.34,1.48-3.52,2.2-.75.46-.84.88-.32,1.69,1.08,1.71,2,3.53,3,5.3,1.8,3.2,3.63,6.39,5.43,9.6.51.91,1,1.06,2,.45,1.47-.89,2.78-2.07,4.48-2.58C150.53,135.5,150.63,135.34,150.61,135Z" style="fill:#201004"/><path d="M110.08,91.13l.48-.2.74-.13a2.87,2.87,0,0,1,3.47,1.66c.75,1.36-.07,2.79-.74,4-1.11,2-5.29,3.69-7.57,3.19-1.94-.43-2.76-3.14-1.49-4.95a8.45,8.45,0,0,1,4.62-3.49Z" style="fill:#020302"/><path d="M188.93,153.8a3.53,3.53,0,0,1-4,.35,5.2,5.2,0,0,1,2.77-9.92c1.84.24,3.74,2.3,4.06,4.48a5.06,5.06,0,0,1-2.8,5.08c0-1-.45-1.35-1.49-1.34s-2.52.59-3.16-1c-.05-.13-.56-.09-.85-.12-.1-1.12.2-2.29-.39-3.36,0,1.14-.86,2.36.36,3.39a3.4,3.4,0,0,0,3.91,2.41A11.18,11.18,0,0,1,188.93,153.8Zm.19-4.66a2.63,2.63,0,0,0-2.44-2.41,2.73,2.73,0,0,0-2.35,2.5,2.54,2.54,0,0,0,2.33,2.65A2.57,2.57,0,0,0,189.12,149.14Zm.87.35c.21.55-.3,1.48.43,1.53s.85-.79.84-1.51-.17-1.58-.79-1.55C189.55,148,190.28,149,190,149.49Zm-5.12-3.92a6.27,6.27,0,0,0,3.76,0A6.24,6.24,0,0,0,184.86,145.57Z" style="fill:#201004"/><path d="M200.66,154.09c-2.7.37-2.7.37-3.94-1.73-.19-.31-.3-.86-.8-.69s-.25.61-.23.93c.1,1.1-.06,1.82-1.48,1.69-.81-.07-1-.34-1-1.08,0-2.55,0-5.1,0-7.64,0-.81.19-1.22,1.08-1.14s2.08,0,3.13.14a2.47,2.47,0,0,1,2.33,2.15c.22,1.17.15,2.44-1,3.07s-.53.91-.16,1.44C199.29,152.14,199.92,153,200.66,154.09Zm-2.22-8.2a6.19,6.19,0,0,0-.54,1.17c-.11.45.32.69.61.94s.46.14.46-.1c0-.71.57-1.59-.5-2-.78-.78-3.57-.88-4.85,0Zm-2.8,1.65c.25.36-.37,1.16.58,1.14a1,1,0,0,0,1.06-1c0-.81-.45-1-1.09-1.09C195.31,146.51,195.85,147.22,195.64,147.54Zm-1,.66c-.57.61-1.22.85-.9,1.61a.46.46,0,0,0,.63.22C195.14,149.66,194.83,149.06,194.67,148.19Z" style="fill:#201004"/><path d="M205.71,136.72c.34,2.91-2.39,5.11-5.05,5.12a5.24,5.24,0,0,1,0-10.45C203.59,131.32,205.71,133.64,205.71,136.72Zm-3.76,2.44c.27.46-.63.8-.18,1.18a1.06,1.06,0,0,0,1.27,0,4.29,4.29,0,0,0,2-3.33,5.19,5.19,0,0,0-1.88-3.79c-.22-.21-.62-.73-1-.21s0,.75.35,1a4.86,4.86,0,0,0,.42.43,2.56,2.56,0,0,1,.81,3.1c-.21.69-.28,2.1-1.77,1.59,0-.58.63-.7.85-1.13a2.61,2.61,0,0,0,0-2.81,2.35,2.35,0,0,0-2.36-1.23,2.49,2.49,0,0,0-2,1.83C197.8,137.78,199.45,139.37,201.95,139.16Zm-2.66-6.53c-2.46,1.41-3.12,3.13-2.18,5.69C198,136.36,198.21,134.55,199.29,132.64Zm.33,7.24c0-.82-.91-.54-1.29-1-.23-.27-.47,0-.46.29a1.33,1.33,0,0,0,1.12,1.22C199.31,140.5,199.57,140.31,199.62,139.88Z" style="fill:#201004"/><path d="M193.67,139.89a4.75,4.75,0,0,1-6.36,1.21,5.49,5.49,0,0,1-1.88-6.76,4.91,4.91,0,0,1,9.05.12,4.9,4.9,0,0,1-.81,5.44c0-1.22.92-2.29.59-3.58-.11-.4.15-.93-.4-1.17a.5.5,0,0,0-.66.17,1.14,1.14,0,0,0,0,1.28c.77.88.24,1.41-.35,2-.38.38-.89.66-1,1.26h-1.94a3.5,3.5,0,0,1-3.39-3.52c-.07-1.05,1.41-2.77,2.64-3.07.29-.07.86.1.64-.48-.14-.36-.43-.69-1.06-.37-1.27.65-2.53,1.39-2.83,2.81a4.71,4.71,0,0,0,1.85,5c1.79,1.33,3.16,1.17,4.13-.34Zm-3.84-.63a2.69,2.69,0,1,0-2.35-2.81A2.71,2.71,0,0,0,189.83,139.26Zm3-4.64c.28-1.2-.22-1.62-.89-1.89a.46.46,0,0,0-.67.38C191.24,134.24,192.46,133.7,192.87,134.62Z" style="fill:#201004"/><path d="M170.48,154.45a10.75,10.75,0,0,1-2-.34c-.53-.2-1.37-.5-.92-1.3.29-.53.2-2,1.64-1,.47.31,1.59.46,1.86-.18.34-.84-.54-1.33-1.27-1.44-2.37-.37-2.77-3.11-1.38-4.84a3.74,3.74,0,0,1,4.79-.39c.68.53,0,.87-.06,1.28-.19.73-.64.67-1.26.43-.4-.16-1.1-.64-1.33.23-.18.7.24,1.12,1,1.22a1.19,1.19,0,0,1,.27.13c1.94.86,2.49,1.89,2.06,3.9A3.38,3.38,0,0,1,170.48,154.45Zm-.49-.76a2.9,2.9,0,0,0,3-3.35.91.91,0,0,0-1.1-.78c-.73.23,0,.6,0,.89a1.74,1.74,0,0,1-1.23,2.39c-.55.14-.84-.48-1.38-.36-.39.08-.85,0-.88.56s.37.63.79.65Zm.47-4.19.35-.51-1.64-1.43c-.18-.16-.37-.4-.61-.2a.72.72,0,0,0-.14.54C168.54,149.27,169.67,149.13,170.47,149.5Z" style="fill:#201004"/><path d="M181.94,137.71c-.29.07-.64,0-.78.4a12.77,12.77,0,0,0-.15,3.22l0,0-1.8.05c-.63,0-.48-.53-.48-.89,0-2.59,0-5.18,0-7.76,0-.59,0-1.15.85-1,.1.14.19.14.29,0h.61c.2.27.39.27.59,0h.92a.79.79,0,0,0,1.18,0l.6,0a2.86,2.86,0,0,1-.6,2l-1.78.05a1,1,0,0,0-.09,1.48l.07.07a1.8,1.8,0,0,0,1.77.1c.4-.12.67-.07.58.44A1.83,1.83,0,0,1,181.94,137.71Z" style="fill:#020302"/><path d="M176.61,150.4c0-.65,0-1.3,0-1.95,0-.82.41-1.91-1.22-1.7-.55.07-.92-.45-.72-1.25.16-.62.08-1.12,1-1.09,1.49.06,3,0,4.49,0,.77,0,1,.34.9,1s.22,1.34-.78,1.23-1.06.52-1.05,1.27c0,1.65,0,3.3,0,4.94,0,.95-.12,1.43-1.27,1.44s-1.44-.48-1.35-1.51C176.67,152,176.61,151.2,176.61,150.4Zm1.37-3.72h-.54c0,2.14,0,4.29,0,6.43,0,.43.34.61.74.49a.55.55,0,0,0,.26-.95,1.55,1.55,0,0,1-.33-1.8C179.29,149.29,177.53,148.11,178,146.68Z" style="fill:#201004"/><path d="M204.21,146.85c.16.49-.23,1.19.55,1.44,0,.94,1.65.92,1.2,2.1-.57.19-1.22-.1-1.75.31-.43,0-.93,0-.9.61s.53.54,1,.53a.16.16,0,0,1,.19.09c.11.64.62.53,1,.56s.71.12.71.58-.41.61-.83.62c-.7,0-1.4,0-2.09,0-1,.09-1.28-.39-1.25-1.32.05-1.54.08-3.09,0-4.63-.08-1.36.1-2.24,1.68-2.75,2-.63,2.51-.48,2.55,1.54a3.31,3.31,0,0,1-1.64,0A.38.38,0,0,0,204.21,146.85Z" style="fill:#020302"/><path d="M81.74,160.07c2,.47,3.22-1.32,4.89-1.83a7.3,7.3,0,0,1,1-.34c.69-.12,1.72.43,2-.45a5.59,5.59,0,0,0-.07-3.07c-.41-1.53-.65-3.1-1-4.66,1.51,1.22,1.45,3,1.74,4.7.2,1.12.1,2.29.23,3.42.08.68-.34.78-.77.84a16.09,16.09,0,0,0-5.63,2.27C82.9,161.65,82.47,160.51,81.74,160.07Z" style="fill:#201004"/><path d="M62.37,93.61c-.44.81-1,1.35-2,.81-.56-.32-.77.36-1.21.29-.77,0-.2-.91-.7-1.12.69-.72,0-2.46,1.77-2.39l-.49.95c1-.33,1.24-1.39,2-1.78C63.31,92.42,63.31,92.42,62.37,93.61Z" style="fill:#201004"/><path d="M206.28,146.55c0-2-.58-2.17-2.55-1.54-1.58.5-1.76,1.39-1.68,2.75.09,1.54.06,3.09,0,4.63,0,.93.22,1.41,1.25,1.32.69-.06,1.39,0,2.09,0,.42,0,.83-.06.83-.62s-.33-.55-.71-.58-.94.08-1-.56c.4,0,.8,0,1.2,0,.77-.05,1.33,0,1.26,1.06-.05.89-.1,1.42-1.19,1.32a19.58,19.58,0,0,0-2.85,0c-.81,0-1.17-.19-1.16-1.08q.07-3.82,0-7.65c0-.86.28-1.15,1.12-1.11,1,.05,2.1,0,3.15,0,.38,0,1-.07.85.52S207.51,146.41,206.28,146.55Z" style="fill:#201004"/><path d="M118,97.43c-.17-.74-.7-1.46.89-1,1.17.34,2.72.84,3.88-.43h1.48a2.79,2.79,0,0,1-.09,1.6l-.07,0v.07l-3.14,0a.87.87,0,0,0-1.1,0h-1.33Z" style="fill:#020302"/><path d="M211.65,146.48c-1.35-.07-1.38.61-.92,1.59.12.26.23.54.35.8l0,0c-1.06,0-1.79-.41-1.76-1.52s.89-1.7,1.83-2.08a1.78,1.78,0,0,1,.89,0c.52.08,1.39-.33,1.39.62s-.94-.44-1.16.33Z" style="fill:#020302"/><path d="M88.51,136.52a5.71,5.71,0,0,1,3.9.08C91.1,137.49,89.8,137.12,88.51,136.52Z" style="fill:#020302"/><path d="M206,150.39c.44-1.18-1.22-1.16-1.2-2.1,1.84-.17,2.36.32,1.9,1.78C206.55,150.44,206.28,150.48,206,150.39Z" style="fill:#201004"/><path d="M204.27,151.83c-.43,0-.93.12-1-.53s.47-.6.9-.61Z" style="fill:#201004"/><path d="M181,141.33a12.77,12.77,0,0,1,.15-3.22A6.18,6.18,0,0,1,181,141.33Z" style="fill:#201004"/><path d="M181.94,137.71a1.83,1.83,0,0,0,1.73-1.73C183.86,137.82,183.86,137.82,181.94,137.71Z" style="fill:#201004"/><path d="M183.12,133.83a2.86,2.86,0,0,0,.6-2C184.27,133.3,184.16,133.67,183.12,133.83Z" style="fill:#201004"/><path d="M183.09,135.54a1.8,1.8,0,0,1-1.77-.1Z" style="fill:#201004"/><path d="M179.17,141.41l1.8-.05A2.79,2.79,0,0,1,179.17,141.41Z" style="fill:#201004"/><path d="M65.63,92.92c-.08.79-.57.69-1.11.52Z" style="fill:#201004"/><path d="M181.25,135.36a1,1,0,0,1,.09-1.48Z" style="fill:#201004"/><path d="M183.12,131.8a.79.79,0,0,1-1.18,0Z" style="fill:#201004"/><path d="M80.06,159.5c.35-.51.53-.31.63.16A.55.55,0,0,1,80.06,159.5Z" style="fill:#201004"/><path d="M119.8,97.68a.87.87,0,0,1,1.1,0A1.51,1.51,0,0,1,119.8,97.68Z" style="fill:#067c07"/><path d="M111.29,90.8l-.74.13C110.78,90.79,111,90.63,111.29,90.8Z" style="fill:#201004"/><path d="M110.08,91.13l-.5.09Z" style="fill:#201004"/><path d="M181,131.8c-.2.26-.39.27-.59,0Z" style="fill:#201004"/><path d="M118,97.43l.5.26a.36.36,0,0,1-.51-.07A.22.22,0,0,1,118,97.43Z" style="fill:#067c07"/><path d="M179.82,131.8c-.1.14-.19.14-.29,0Z" style="fill:#201004"/><path d="M204.21,146.85a.38.38,0,0,1,.43-.31Z" style="fill:#201004"/><polygon points="124.04 97.65 124.05 97.57 124.12 97.61 124.11 97.7 124.04 97.65" style="fill:#067c07"/><path d="M59.67,116.48l.56.11c1.62.57,2.69-.45,3.66-1.41s1.26-.57,1.66.35c.69,1.53,1.4,3.06,2.16,4.71a7.09,7.09,0,0,0-3.65.74,1.53,1.53,0,0,1-1.74-.19v0a34.33,34.33,0,0,0-2.83-4.09A.28.28,0,0,0,59.67,116.48Z" style="fill:#f2f1f1"/><path d="M54.49,97.13c.07.52-.26.69-.68.77a14.52,14.52,0,0,1-3.19,8c-1.36,1.88-.52,4-.11,6.07.07.33.33.62,0,1.1a43.7,43.7,0,0,1-5.89-2.68c1.39-.3,2.64.36,3.85.78s.85-.12.95-.72c.18-1.09-.56-2.09-.09-3.26a9.51,9.51,0,0,1,.78-1.89A12.37,12.37,0,0,0,52.5,98.1c0-.83.33-1.79,1.55-1.73l-.27.76Z" style="fill:#201004"/><path d="M51.74,105.53q0,3.42.1,6.84a.87.87,0,0,1-.34.78C50.48,110.58,50.11,108,51.74,105.53Z" style="fill:#201004"/><path d="M75.28,170.46c.08-.42.37-.54.76-.54,2.18,0,4.36,0,6.54,0,.17,0,.33.18.5.27C80.46,169.75,77.89,170.59,75.28,170.46Z" style="fill:#201004"/><path d="M70.7,163.88a5.1,5.1,0,0,1,.09,3.92A4,4,0,0,1,70.7,163.88Z" style="fill:#201004"/><path d="M54.82,128.69c-.2,1.11.61,2.38-.5,3.36C54.16,130.88,53.94,129.7,54.82,128.69Z" style="fill:#020302"/><path d="M53,117.62c1.33-.17,1.35.66,1.23,1.6A2.33,2.33,0,0,1,53,117.62Z" style="fill:#201004"/><path d="M71.65,161.16c-.23.73.7,1.9-.82,2.15A3.53,3.53,0,0,1,71.65,161.16Z" style="fill:#201004"/><path d="M53,103.83c0,.91-.06,1.74-1.29,1.69A5,5,0,0,1,53,103.83Z" style="fill:#201004"/><path d="M53.82,101.68c.58.68.88,1.29-.36,1.55Z" style="fill:#201004"/><path d="M41.92,109.24c.55.1,1.32-.36,1.5.63A2.33,2.33,0,0,1,41.92,109.24Z" style="fill:#201004"/><path d="M43.4,109.86c.49,0,1.09-.22,1.25.55A1.54,1.54,0,0,1,43.4,109.86Z" style="fill:#201004"/><path d="M40.44,108.63c.46,0,1-.18,1.2.51C41.22,109,40.75,109,40.44,108.63Z" style="fill:#201004"/><path d="M39.84,108.31c.47-.4.53,0,.59.32A.61.61,0,0,1,39.84,108.31Z" style="fill:#201004"/><path d="M73.48,169.91,74,170c0,.11-.06.31-.11.32C73.59,170.38,73.65,170,73.48,169.91Z" style="fill:#201004"/><path d="M83.1,170.22c.3,0,.61-.11.85.17C83.66,170.34,83.29,170.73,83.1,170.22Z" style="fill:#201004"/><path d="M54.12,98.8a.65.65,0,0,1-.07.8C54,99.33,53.87,99,54.12,98.8Z" style="fill:#201004"/><path d="M52.52,116.45l.16.47Z" style="fill:#201004"/><path d="M53.31,103.52l-.25.29Z" style="fill:#201004"/><path d="M52.35,115.87a.24.24,0,0,1,.1.24Z" style="fill:#201004"/><path d="M51.66,114l.18.31Z" style="fill:#201004"/><path d="M74.39,170.21l.28.24C74.47,170.5,74.4,170.39,74.39,170.21Z" style="fill:#201004"/><path d="M54.49,97.13h-.7l.27-.76.25-.28a5.45,5.45,0,0,0,1.76-1l.6-.3a2.23,2.23,0,0,0,1.78-1.22l0,0c.5.21-.06,1.08.7,1.12C57.42,95.14,55.64,95.52,54.49,97.13Z" style="fill:#fcfc04"/><path d="M58.45,93.63a2.23,2.23,0,0,1-1.78,1.22A1.51,1.51,0,0,1,58.45,93.63Z" style="fill:#201004"/><path d="M56.06,95.15a5.45,5.45,0,0,1-1.76,1C54.55,95.15,55.18,94.92,56.06,95.15Z" style="fill:#201004"/><path d="M170.73,115.3c.45,1.84,1.73,3.08,2.71,4.43.79,1.08.61,1.59-.38,2.2-1.38.84-2.74,1.71-4.08,2.6-.83.56-1.36.1-1.72-.52-2-3.45-4.07-6.91-6-10.4-1.5-2.65-2.79-5.42-4.51-8-.73-1.07-.48-1.81.64-2.37s2.3-1.16,3.38-1.83,1.76-.51,2.44.67c1.09,1.88,2.4,3.64,3.7,5.59a5,5,0,0,0,1-2.7,3.92,3.92,0,0,1,2.25-3.7,45.17,45.17,0,0,0,4.2-2.57c.77-.52.83-.13.8.47a8.65,8.65,0,0,1-.23,2.08c-.63,2-.3,4.18-.77,6.24-.17.76.43,1.34,1.27,1.59,3.71,1.07,7.36,2.33,11,3.66.26.1.71.06.65.45a1.08,1.08,0,0,1-.59.64,61.37,61.37,0,0,0-6,3.52,3.42,3.42,0,0,1-3,0c-1.92-.7-3.86-1.33-5.79-2A3.87,3.87,0,0,0,170.73,115.3Z" style="fill:#f10405"/><path d="M177.94,101.57A9.42,9.42,0,0,1,184.41,92a9.76,9.76,0,0,1,7.14.76c2.34,1.05,3,3.4,4.39,5.16.53.66-.3,1.05-.77,1.36-2.69,1.79-5.41,3.53-8.09,5.34-.57.39-1.64.57-1.43,1.49a2.74,2.74,0,0,0,2,1.88c2.69.81,4,0,4.84-2.66.29-.92,1.24-1.21,2-1.6s1.72-1.54,2.44-1-.05,1.73-.21,2.63A7.42,7.42,0,0,1,186.07,111a13.72,13.72,0,0,0-3.63-1.31c-2.42-.33-3.27-2-3.81-4.13A17.07,17.07,0,0,1,177.94,101.57ZM187.61,96a3.82,3.82,0,0,0-3.64,5.66c.32.66.59.93,1.33.44,1.35-.9,2.79-1.69,4.16-2.56s1.44-1.67.18-2.75A2.41,2.41,0,0,0,187.61,96Z" style="fill:#f10405"/><path d="M203.68,102.39a3.75,3.75,0,0,1-2.55-.93A18.49,18.49,0,0,1,197.45,97a26.71,26.71,0,0,0-2.25-3.3c-1.86-2.57-3.28-5.39-4.9-8.09-.43-.72.09-1.14.49-1.34a26.17,26.17,0,0,0,3.35-2.15c1.17-.8,2-.56,2.66.64.95,1.6,1.67,1.68,3.13.5,1.67-1.34,2.18-1.28,3.51.58.72,1,1.36,2.07,2,3.15.43.75.62,1.43-.53,1.87a8.92,8.92,0,0,0-2.09,1.36c-.49.37-.85.82-.38,1.51a14.64,14.64,0,0,1,.57,1.36c1.08,2,2.71,2.49,4.74,1.36.17-.1.32-.23.49-.34,2-1.36,2.39-1.29,3.35.87a8,8,0,0,0,1.23,1.66c.42.54.49.92-.18,1.31-2.14,1.24-4.08,2.83-6.4,3.79A10.72,10.72,0,0,1,203.68,102.39Z" style="fill:#f10405"/><path d="M175.69,105.57c0-.89-.35-2.32.49-2.43s.46,1.46.83,2.22c.19.38.07.83.33,1.24s.65.95.17,1.35-.85-.09-1.27-.2a.82.82,0,0,1-.64-1.13A7.23,7.23,0,0,0,175.69,105.57Z" style="fill:#fcfc04"/><path d="M190.54,104.28c.36.76.79,1.57,0,2.18s-1.84.41-2.84-.22A11.39,11.39,0,0,1,190.54,104.28Z" style="fill:#fcfc04"/><path d="M76.48,150.69c.18,1.48.33,2.79-1.62,3.43-3,1-3.72.93-5.22-1-.06-.08-.14-.15-.2-.23-1.23-1.59-1.22-1.58-2.05.23A1.88,1.88,0,0,1,66,154.15c-.29.07-.62.12-.84-.15s0-.58.12-.81c1.82-2.87,1.16-5.88.49-8.88-.19-.85-.21-1.27,1-1.44,2.24-.33,4.47-.28,6.7-.43a3.33,3.33,0,0,0,3.12-1.93,1,1,0,0,1,1-.74,7.3,7.3,0,0,1,1.94.11c.88.28,2.09.66,2.18,1.55s-1.2,1-1.93,1.35-1.59.18-1.47,1.31c-.17.3-.5.61-.48.9a2.12,2.12,0,0,1-2.07,2.46c-.63.1-.62.56-.4,1C75.7,149.21,76.1,149.95,76.48,150.69Z" style="fill:#f10405"/><path d="M73.49,160c-.85-.83.3-.73.54-1.05l-1.38-.81c.89-.95,2.14-.89,3.26-1.19.56.36,1.36-.54,1.82.34A3.37,3.37,0,0,0,77.6,159h0c-.53,1.23-1.69.84-2.63,1Z" style="fill:#fcfc04"/><path d="M75.9,156.95c-1.12.3-2.38.24-3.26,1.19-1.16-1.47-.91-2.41.8-2.71a30.84,30.84,0,0,0,3.07-1c.7-.22.84.25.93.76a.94.94,0,0,1-.45,1.12C76.62,156.52,76.26,156.74,75.9,156.95Z" style="fill:#f2f1f1"/><path d="M90.58,165.27c-.2,3.89-2.26,4.82-5.82,2.72A10.1,10.1,0,0,0,90.58,165.27Z" style="fill:#f2f1f1"/><path d="M79.4,150.69a19.18,19.18,0,0,0-.31-2.19c-.14-.57.14-.7.56-.79s.67,0,.82.53a27.46,27.46,0,0,1,.83,4.51c0,.35.37.86-.2,1s-1.22.2-1.36-.66A6.29,6.29,0,0,0,79.4,150.69Z" style="fill:#f2f1f1"/><path d="M79.18,153.68c-.76.15-1.31.2-1.28-.93a9.71,9.71,0,0,0-1.09-3.51c-.09-.25-.76-.78.16-1,.52-.12.95-.26,1.21.38a6.6,6.6,0,0,1,.79,2.06A14.1,14.1,0,0,1,79.18,153.68Z" style="fill:#f2f1f1"/><path d="M85.38,150.33a3.33,3.33,0,0,1,2.45,3.29c-.05.34-.07.79-.42.88s-.7-.29-.82-.68c-.19-.61-.3-1.24-.51-1.84S85.64,150.93,85.38,150.33Z" style="fill:#f2f1f1"/><path d="M75,160c.94-.17,2.09.22,2.63-1,.09.54.2,1.07-.53,1.3S75.58,160.9,75,160Z" style="fill:#201004"/><path d="M79.18,153.68a14.1,14.1,0,0,0-.21-3h.44a6.29,6.29,0,0,1,.34,2.41Z" style="fill:#201004"/><path d="M77.6,159a3.37,3.37,0,0,1,.12-1.74C78.49,157.93,78.75,158.53,77.6,159Z" style="fill:#201004"/><path d="M209.47,136.44a4.48,4.48,0,0,1,0-.75c.11-.59-.37-1.51.38-1.7a2.12,2.12,0,0,1,2.18,1,2.82,2.82,0,0,1-.16,3.37,2,2,0,0,1-2,.78c-.77-.18-.31-1-.4-1.54A7.25,7.25,0,0,1,209.47,136.44Z" style="fill:#fcfc04"/><path d="M209.4,140.22c-1.5.49-2,.17-2-1.11.07-1.47,0-2.94,0-4.59a2,2,0,0,1,1.09,3C207.94,138.73,208.28,139.4,209.4,140.22Z" style="fill:#020302"/><path d="M213.08,137.35c.85,1.35,0,2.15-.4,2.83s-1.32.21-2,.1A4.72,4.72,0,0,0,213.08,137.35Z" style="fill:#020302"/><path d="M211.54,133.44c1.73,0,2.05.46,1.7,2.21A6.91,6.91,0,0,0,211.54,133.44Z" style="fill:#020302"/><path d="M213.28,151.41c.43,1,.15,1.82-.65,2.1a2.73,2.73,0,0,1-2.92-.29c-.17-.15-.46-.31-.21-.59a.52.52,0,0,1,.68-.05C211.72,153.67,212.34,152.29,213.28,151.41Z" style="fill:#020302"/><path d="M211.08,148.87c.9,0,1.8-.07,2.28.9a.77.77,0,0,1,0,.56c-.09.23-.3.18-.49.06-.68-.42-1.63-.51-1.83-1.5Z" style="fill:#020302"/><path d="M60.25,115.29c-1.69-4.31-.6-8.38.93-12.48,1.09-2.91,3.44-4.33,6-5.49a16.7,16.7,0,0,0,4.22-2.13,3.66,3.66,0,0,1,2.7-.68c.31.44.77.26,1.18.28l0,0c.33.45,1,.43,1.28,1-1.92,1.95-2.1,3-.84,5.55.82,1.65,1.72,3.26,2.58,4.89.36.68.77.57,1.34.23,1.2-.7,2-1.89,3.38-2.45,1-.41,2-.92,2.94-.36a3,3,0,0,1,1.68,2.94,29.56,29.56,0,0,1-1.81,7.63,4.61,4.61,0,0,0-.37,1.59v0c-1.08,2.12-3.39,2.07-5.15,3-3.39,1.84-7.07,1.25-10.62,1.75a1,1,0,0,1-1.16-.44,12.46,12.46,0,0,1-1.69-3.73c.7-1.79,1.74-1.3,3.09-.66A15.88,15.88,0,0,0,78.29,117c.24,0,.6,0,.59-.49-.37,0-.71,0-1.05,0a17.06,17.06,0,0,1-8.15-1.36c-.77-.31-1.56-.72-.79-1.91a3.08,3.08,0,0,0-2,3.21c-.77-.61-.62-1.75-1.37-2.4-.4-.35-.62-.51-1.1-.12s-1.27.74-1.82,1.21A1.65,1.65,0,0,1,60.25,115.29Zm16.53-6.06.3-.3.3-.3.3-.3c.1-.07.37.12.29-.2l-.29.21-.3.3-.3.3-.3.3-.3.3c-1,.13-1.93.87-3,.83a2.23,2.23,0,0,0,3-.84ZM83.7,111l-.3.6c-.32.22-.29.57-.3.9a.6.6,0,0,0-.3.61c-1,.25-1.22,1.16-1.6,1.92a3,3,0,0,0,1.59-1.93l.3-.6c.34-.22.28-.57.3-.9a.62.62,0,0,0,.3-.6l.3-.3c.48-.51.93-1.19,1.64,0a2.75,2.75,0,0,0-3.81-2c1.41,0,2.42.4,2.18,2ZM71.3,108.9c.57-.67-.24-1.17-.24-1.8,0-3-1.62-5.2-4-6.93a1.85,1.85,0,0,0-3.06.78,7.76,7.76,0,0,0-.75,4.36c.07.4.07.8.52,1a8.75,8.75,0,0,0,.79,4.06c.4.84.74,1.22,1.45.36a3.25,3.25,0,0,1,3.81-1.29C70.28,109.56,71.11,109.84,71.3,108.9Z" style="fill:#067c07"/><path d="M132.2,83.75c.56-.08.63.23.83.55,2.43,3.86,4.9,7.69,7.36,11.54a3.21,3.21,0,0,1,.35.63c.45,1.29,1.21,1.55,2.41.85,1-.58,2.06-1,3.06-1.55.78-.44,1.19-.14,1.52.53.5,1,1,2.07,1.51,3.08a1.14,1.14,0,0,1-.5,1.74c-3.16,2-6.33,3.92-9.46,5.92-.94.6-1.23,0-1.59-.63-1.75-2.91-3.53-5.82-5.25-8.75s-3.39-5.95-5.14-8.89c-.47-.79-.54-1.32.26-1.89,1.44-1,3.25-1.52,4.35-3C132,83.77,132.17,83.76,132.2,83.75Z" style="fill:#f10405"/><path d="M106.56,126.71c-.42-2.32-.76-4.41-1.21-6.48-.11-.52.21-.71.34-1,.32-.84.86-1.87,0-2.5a2.66,2.66,0,0,0-3.1.13,16,16,0,0,0-1.39,1.08c-1.44,1.22-1.46,1.28-2.36-.23-1.75-2.93-3.4-5.92-5.19-8.82-.53-.86-.24-1.28.41-1.7,1.29-.85,2.57-1.71,3.9-2.49a1.28,1.28,0,0,1,2,.48c2.35,3.42,4.28,7.11,6.87,10.36a2.22,2.22,0,0,1,.24.7,2,2,0,0,0,3.13,1.17c.85-.51,1.71-1,2.58-1.48.6-.33,1.12-.34,1.49.38.58,1.14,1.18,2.28,1.81,3.39.47.82.3,1.28-.56,1.77C112.59,123.07,109.68,124.85,106.56,126.71Z" style="fill:#f10405"/><path d="M125.67,114.46a.78.78,0,0,1-.49.76c-1.52.94-3.05,1.86-4.56,2.82-.86.55-1.19-.13-1.5-.65-2-3.36-4-6.73-5.94-10.12a21.16,21.16,0,0,0-1.45-2.4c-1.07-1.38-.24-2,.68-2.7s2.14-1.27,3.11-2,1.43-.41,1.89.39c1.4,2.4,2.83,4.77,4.21,7.18,1.19,2.08,2.52,4.09,3.7,6.19C125.44,114.11,125.58,114.31,125.67,114.46Z" style="fill:#f10405"/><path d="M69.28,128.43c.49.34,1.19.24,1.62.78a4.1,4.1,0,0,1-1.39,1c-1.18.58-1.13,1-.08,1.86,1.77,1.48,3.09,3.23,2.85,5.75-.17,1.88-1.15,3.18-2.45,3.21-.81,0-1.22-.21-1.14-1.09a5.78,5.78,0,0,0-1.23-4.4c-.77-1-.31-2.57-.83-3.85-.62-1.53-1.19-2-2.8-1.72-1.32.23-2.64.49-4,.67a4.63,4.63,0,0,0-2.55,1.12,1.41,1.41,0,0,1-1.55.21c-.56-.27-.3-.87-.31-1.35-.05-1.58,1.31-2.32,2.17-3.22a43.14,43.14,0,0,1,5.71-4.94,6.49,6.49,0,0,1,3.6-.95c.59,0,.64.5.66,1,.07,1.59.13,3.19.27,4.78,0,.45-.33,1.38.81,1.08Z" style="fill:#f10405"/><path d="M86.82,116.7a15.62,15.62,0,0,0,3.68-5.06c.37-.73.49-2,1.23-2,1-.12,1.22,1.15,1.67,1.87,1.35,2.16,2.61,4.37,3.92,6.55.69,1.15.89,2.12-.55,3a3.75,3.75,0,0,0-1.52,2.1c-.52,1.47-2.11,2-3.26,2.88-.44.34-.69-.09-.87-.48a10.13,10.13,0,0,0-3.74-4.11c-.95-.63,0-1.65-.64-2.28l-.21-1.19s.08-.09.07-.11a1.51,1.51,0,0,0-.16-.2C86.38,117.22,86.67,117,86.82,116.7Z" style="fill:#fcfc04"/><path d="M86.46,124.27c.65-.12.55-.91,1.07-1.2a7,7,0,0,1,2.67,3.63c.43,1,.88,1.61,1.93.67.71-.64.93-.13,1,.47a4.26,4.26,0,0,0,2.55,3.41c1.21.54,1.21,1.19.26,2.21-2.08,2.23-4.6,2.64-7.39,2.11-1.9-.36-2.3-1.24-1.76-3.1.4-1.37.69-2.78,1-4.18a5.3,5.3,0,0,0,0-1c.09-.82.41-1.7-.9-1.91C86.46,125.26,86.34,124.77,86.46,124.27Z" style="fill:#f10405"/><path d="M122.74,96c-3.63.21-3.8.24-4.43-3.23-.49-2.69-1.49-5.26-1.67-8-.08-1.14.25-1.52,1.39-1.44a22.54,22.54,0,0,0,3.44-.05c1.19-.1,1.7.17,1.63,1.53-.2,3.73-.24,7.47-.35,11.21Z" style="fill:#f10405"/><path d="M104.12,120.37c.22.1.63.19.64.3q.17,2,.23,4c0,.36-1.14,1,.36.92.42,0,.32.6,0,.87a12.9,12.9,0,0,1-4,3c-1.54.57-2.57-.65-3.42-1.57a6.93,6.93,0,0,1-1.51-3.21,2.9,2.9,0,0,1,2.33-3.68c.19,0,.43,0,.57-.12a4,4,0,0,1,4-.45l0-.05c-.27.63.35,1.25,0,1.88-1.18.33-2.25,1-3.89.84a6.14,6.14,0,0,0,3.3,1.37c-.78-.67-1.15-1.17,0-1.43.35-.08.47-.48.57-.82.86-.32.66-1.2.93-1.82Zm-.24,5.51a.53.53,0,0,0,.87,0,.26.26,0,0,0-.07-.24C104.36,125.52,104.13,125.74,103.87,125.87Z" style="fill:#f2f1f1"/><path d="M79.61,135.88c-.37.54-.7.83-.65,1.49.1,1.22-.64,1.62-1.83,1.24-.39-.13-.43-.3-.32-.64,1.1-3.64.31-7.21-.41-10.78-.06-.27-.36-.57-.06-.8a.62.62,0,0,1,.92.15c.22.34.71.62.76.28.22-1.29,1.41-.8,2.07-1.21,1.26-.77,1.72-.3,1.86,1.2.33,3.7-.54,7.23-1.44,10.76-.11.44,0,1.2-.78,1s-.17-.77-.12-1.17A2.47,2.47,0,0,0,79.61,135.88Zm.29-4.18c-.93,1.25-.09,2.58-.24,3.87a11.15,11.15,0,0,0,.65-3.71v-3.24C79.67,129.86,80,130.8,79.9,131.69Z" style="fill:#f2f1f1"/><path d="M64.29,141.09a5.29,5.29,0,0,0-3.11.66,2.45,2.45,0,0,1-3.17-.42c-.84-.88-.28-1.82.25-2.7,1.13-1.92,2.5-3.5,4.93-3.64,2.27-.13,4.78,3.38,3.95,5.5a.83.83,0,0,1-.9.61C65.63,141.07,65,141.09,64.29,141.09Z" style="fill:#f2f1f1"/><path d="M86.28,127.69c-.53,2.38-1.05,4.77-1.59,7.14q-.43,1.9-.92,3.78c-.15.59-.16,1.48-1.13,1.19s-1.53-.75-1.2-1.88c.38-1.29.66-2.61,1-3.9a21,21,0,0,0,.51-6.4c0-1.12.18-1.75,1.46-1.15a2.47,2.47,0,0,0,.88.16C86,126.68,86.41,126.91,86.28,127.69Z" style="fill:#f10405"/><path d="M73.5,129.39c2.11-.86,2-.75,2.46,1.62a15.8,15.8,0,0,1-.61,8.06c-.06.19-.06.43-.17.57-.39.47-.62,1.35-1.41,1.05-.63-.23-.3-1-.23-1.47.35-2.69.41-5.27-1.73-7.39a.9.9,0,0,1,.28-1.42c.37-.25.85-.33,1.09-.76A.29.29,0,0,0,73.5,129.39Z" style="fill:#f10405"/><path d="M77.1,96.93c1.11-.11,1.84.62,2.63,1.2l1.63,2.53c-.88.09-1.77-.2-2.19.7a2.71,2.71,0,0,0,.37,2.55,6.52,6.52,0,0,1,.36.65c.21.56-.24.79-.59,1s-.52-.14-.64-.34a31.14,31.14,0,0,1-2.64-5A2.42,2.42,0,0,1,77.1,96.93Z" style="fill:#f2f1f1"/><path d="M87,115.54c-.78-.09-.26-.57-.21-.83.53-2.68,1.57-5.27,1.42-8.06,0-.55.25-.69.72-.7a4.53,4.53,0,0,0,1.19-.07c1.44-.43,1.33.36,1.12,1.32a16.94,16.94,0,0,1-4,8.09C87.08,115.24,87,115.36,87,115.54Z" style="fill:#f2f1f1"/><path d="M60.65,132c.34.05.82-.11,1,.43s.14,1.1-.4,1.31a8.79,8.79,0,0,0-3.78,3.41c-.27.37-.68.85-1.21.27s-1.33-1-.94-2C55.89,133.87,58.79,132,60.65,132Z" style="fill:#f10405"/><path d="M57.51,150.76c.53.29,1.22.31.63,1.23-2,3.19-4,6.43-6,9.66-.37.59-1,1.11-.27,1.93.34.39,0,.92-.42,1.12-.7.37-1-.41-1.51-.69s-.15-.72.12-.88c2.18-1.29,2.51-3.78,3.72-5.69s2.11-4,3.16-5.94C57.11,151.22,57.12,150.81,57.51,150.76Z" style="fill:#f2f1f1"/><path d="M86.46,124.27c-.12.49,0,1,.5,1.07,1.3.21,1,1.09.9,1.91-.95-.56-1.71-1.39-3-1.29-.84.07-.09-.79-.28-1.18h0c.63.12,1-.12.94-.77-.21-2,.53-4.14-.5-6.12-.38-.73,1.06-1.18.49-2.05v0c.65,0,1.22.08,1.32.88-.15.29-.44.52-.39.89l.09.31.21,1.19c-1,.81-.59,1.94-.6,2.94A13.28,13.28,0,0,0,86.46,124.27Z" style="fill:#020302"/><path d="M95.18,125.76c.16.13.44.26.5.45.52,1.5,1.75,2.4,2.83,3.43.23.22.41.42.22.77a.7.7,0,0,1-.76.36,4.68,4.68,0,0,1-3.5-4C94.48,126.35,94.55,125.92,95.18,125.76Z" style="fill:#f10405"/><path d="M66,134.74A16.59,16.59,0,0,1,63.9,134c-.41-.22-1.4.32-1.19-.81.18-.91.24-2,1.36-2.22a1.48,1.48,0,0,1,1.73,1.26A15.39,15.39,0,0,1,66,134.74Z" style="fill:#f2f1f1"/><path d="M75.33,121c1,1,1,2.53,2.24,2.25s.55-1.59.68-2.76a8.07,8.07,0,0,1,1,3.65,1.52,1.52,0,0,1-3,.36C76,123.44,75.7,122.41,75.33,121Z" style="fill:#f2f1f1"/><path d="M103.26,120.37c-.37-1-1.42-.69-2.16-1.14,1-.9,1.7-2,3.21-2.09.31,0,.64-.28.92,0a.89.89,0,0,1,0,1.11c-.39.68-1.09,1.2-1.1,2.08l0,0c-.31-.09-.62.31-.92,0Z" style="fill:#f2f1f1"/><path d="M75.41,125.39c-1.08.24-2.19.51-3.3.74-.42.09-.92.24-1-.46a.86.86,0,0,1,.7-1.1,10.6,10.6,0,0,0,1.41-.47C74.48,123.54,75.34,123.72,75.41,125.39Z" style="fill:#f2f1f1"/><path d="M81.74,119.15c.67,0,1.18,0,1.16.72s-1.33,1.67-2.51,1.73-.82-.91-.79-1.27C79.7,118.85,81.09,119.51,81.74,119.15Z" style="fill:#f2f1f1"/><path d="M83.22,122c.12,2.27.09,2.3-2,2.37-.3,0-.74.33-.8-.26s-.21-1,.46-1.25S82.42,122.33,83.22,122Z" style="fill:#f2f1f1"/><path d="M62.75,142.48,61,146.72C59.73,145.41,60.38,143.69,62.75,142.48Z" style="fill:#f2f1f1"/><path d="M72.54,121.48c.59.25,1.74-.46,1.81.64.05.79-1.11.66-1.7.76s-1.27,1.1-1.71-.09C70.26,121,71.75,121.68,72.54,121.48Z" style="fill:#f2f1f1"/><path d="M69.28,128.43l-.62,0c-1-1.85-.4-3.81-.4-5.73.6.48.27,1.2.55,1.73a.19.19,0,0,1,0,.25c0,.52-.08,1-.11,1.57,0,.7.19,1.12,1,1l.42,0c.36.31.35.55-.15.64S69.3,128,69.28,128.43Z" style="fill:#020302"/><path d="M84.55,124.78c-.51-1.95.37-3.85.11-5.79.26,1.94,1.07,3.9-.11,5.8Z" style="fill:#f10405"/><path d="M68.78,124.66a.19.19,0,0,0,0-.25c.43-.72,0-1.56.48-2.65.88,1.92.32,3.77.78,5.43l-.43,0C68.88,126.53,69.77,125.27,68.78,124.66Z" style="fill:#f10405"/><path d="M73.5,129.39a.29.29,0,0,1-.32.27,5.22,5.22,0,0,1-1.2-.53c-.31-.24-1-.36-.79-.92s.77-.25,1.16-.4l.53.08C73,128.44,73.65,128.74,73.5,129.39Z" style="fill:#020302"/><path d="M72.88,127.88l-.53-.08c.17-1,1-.45,1.55-.69a1.16,1.16,0,0,1,1.34.32.42.42,0,0,1,0,.4c-.37.49-.8,0-1.2,0S73.27,127.88,72.88,127.88Z" style="fill:#f10405"/><path d="M86.38,132.25a3.64,3.64,0,0,1,0-2.78A3.5,3.5,0,0,1,86.38,132.25Z" style="fill:#020302"/><path d="M59,148.31c.44,0,.65.17.66.53s-.22.63-.64.6a.57.57,0,0,1,0-1.13Z" style="fill:#020302"/><path d="M87,115.54c0-.19.07-.3.28-.25Z" style="fill:#020302"/><path d="M75.27,94.79c-.41,0-.87.16-1.18-.28C74.6,94.11,75,94,75.27,94.79Z" style="fill:#201004"/><path d="M66.92,93c.2,0,.42.1.34.35,0,.09-.24.15-.38.17s-.44,0-.42-.27S66.72,93,66.92,93Z" style="fill:#201004"/><path d="M68.06,91c.45.28.83.58.37,1.18-.56-.27-.27-.78-.37-1.17Z" style="fill:#201004"/><path d="M77.39,96.31l.36.11c-.21.26-.26,0-.37-.1Z" style="fill:#201004"/><path d="M59.67,116.48a.28.28,0,0,1-.18.22c-.12-.12-.15-.24,0-.36S59.61,116.43,59.67,116.48Z" style="fill:#201004"/><path d="M157.55,130c-5.58-.16-10.29-4.79-10.54-9.79-.2-4,1.83-7.48,5.18-9.9,1.52-1.1,2.31-.77,3.17.84a34.88,34.88,0,0,0,1.83,3.08c.51.75.4,1.2-.36,1.69s-1.55.86-1.7,1.94c-.37,2.77,1.32,4.33,4.1,3.42,1.5-.49,2,0,2.64,1.15s1.23,2.39,1.94,3.5c.94,1.48-.09,1.92-.93,2.52A10.19,10.19,0,0,1,157.55,130Z" style="fill:#f10405"/><path d="M120.71,152.2a10.17,10.17,0,0,1-10.14-11.62,11.18,11.18,0,0,1,4.18-7.14c2.67-2.25,2.68-2.23,4.6.66.14.21.29.41.42.62,1.27,2,1.27,2-.51,3.7a3.16,3.16,0,0,0-.52,4.28c.87,1.15,2.48,1.33,4,.38a1.29,1.29,0,0,1,2.09.5c.8,1.37,1.66,2.7,2.49,4.05a1.33,1.33,0,0,1-.35,2A11.29,11.29,0,0,1,120.71,152.2Z" style="fill:#f10405"/><path d="M131.54,146.51c-.4.07-.42-.45-.6-.76-1.68-2.8-3.28-5.63-4.78-8.53a49.56,49.56,0,0,0-3.2-5.32c-.76-1.1-.69-1.94.57-2.6a11.33,11.33,0,0,0,2-1.26c1-.8,1.79-1.17,2.77,0,.52.63.93.29,1.08-.45a4.81,4.81,0,0,1,1.62-3.09c.67-.54,1-.44,1.48.08a12.31,12.31,0,0,1,1.81,3.33c.23.55-.09,1-.53,1.43-2.15,2.07-2.18,3.3-1,5.9s2.88,4.69,4.26,7.07c.22.39.51.67,0,1-1.68,1.06-3.37,2.09-5.06,3.12A1.78,1.78,0,0,1,131.54,146.51Z" style="fill:#f10405"/><path d="M150.61,135c0,.37-.08.54-.29.6-1.69.5-3,1.69-4.48,2.58-1,.61-1.47.46-2-.45-1.8-3.2-3.62-6.39-5.43-9.6-1-1.77-1.9-3.59-3-5.3-.51-.81-.42-1.23.32-1.69,1.18-.72,2.32-1.52,3.52-2.2.63-.36,1.11-.36,1.66.5,2.69,4.29,5.16,8.73,8,12.95C149.51,133.23,150.11,134.16,150.61,135Z" style="fill:#f10405"/><path d="M189.12,149.14a2.57,2.57,0,0,1-2.47,2.75,2.54,2.54,0,0,1-2.33-2.65,2.73,2.73,0,0,1,2.35-2.5A2.63,2.63,0,0,1,189.12,149.14Z" style="fill:#fcfc04"/><path d="M188.93,153.8a11.18,11.18,0,0,0-1.61-.09,3.4,3.4,0,0,1-3.91-2.41l0,0c.29,0,.8,0,.85.12.64,1.63,2,1.06,3.16,1s1.48.35,1.49,1.34Z" style="fill:#020302"/><path d="M190,149.49c.29-.48-.44-1.47.49-1.53.62,0,.79.84.79,1.55s-.22,1.55-.84,1.51S190.19,150,190,149.49Z" style="fill:#020302"/><path d="M184.86,145.57a6.24,6.24,0,0,1,3.76,0A6.27,6.27,0,0,1,184.86,145.57Z" style="fill:#020302"/><path d="M183.41,151.3c-1.21-1-.36-2.25-.36-3.39.59,1.08.28,2.24.39,3.36Z" style="fill:#020302"/><path d="M195.64,147.54c.22-.32-.33-1,.54-.93.65.07,1.13.28,1.09,1.09a1,1,0,0,1-1.06,1C195.27,148.7,195.89,147.89,195.64,147.54Z" style="fill:#fcfc04"/><path d="M198.44,145.89h-4.83c1.28-.9,4.08-.8,4.85,0Z" style="fill:#020302"/><path d="M198.46,145.87c1.08.45.49,1.33.5,2,0,.24-.3.23-.46.1s-.71-.49-.61-.94a6.19,6.19,0,0,1,.54-1.17Z" style="fill:#020302"/><path d="M194.67,148.19c.16.87.47,1.47-.26,1.83a.46.46,0,0,1-.63-.22C193.45,149,194.1,148.81,194.67,148.19Z" style="fill:#020302"/><path d="M201.95,139.16c-2.5.21-4.15-1.38-3.45-3.36a2.49,2.49,0,0,1,2-1.83,2.35,2.35,0,0,1,2.36,1.23,2.61,2.61,0,0,1,0,2.81c-.22.43-.84.55-.85,1.13Z" style="fill:#fcfc04"/><path d="M202,139.14c1.49.5,1.56-.91,1.77-1.59a2.56,2.56,0,0,0-.81-3.1,4.86,4.86,0,0,1-.42-.43c-.32-.28-.62-.66-.35-1s.77,0,1,.21A5.19,5.19,0,0,1,205,137a4.29,4.29,0,0,1-2,3.33,1.06,1.06,0,0,1-1.27,0c-.46-.38.45-.73.17-1.18Z" style="fill:#020302"/><path d="M199.29,132.64c-1.08,1.91-1.32,3.72-2.18,5.69C196.17,135.77,196.83,134,199.29,132.64Z" style="fill:#020302"/><path d="M199.62,139.88c-.05.43-.3.63-.63.54a1.33,1.33,0,0,1-1.12-1.22c0-.26.23-.56.46-.29C198.7,139.34,199.64,139.06,199.62,139.88Z" style="fill:#020302"/><path d="M189.83,139.26a2.69,2.69,0,0,1,0-5.33,2.67,2.67,0,0,1,0,5.33Z" style="fill:#fcfc04"/><path d="M191.85,139.89c-1,1.51-2.34,1.67-4.13.34a4.71,4.71,0,0,1-1.85-5c.3-1.42,1.56-2.16,2.83-2.81.62-.32.92,0,1.06.37.22.58-.35.41-.64.48-1.23.3-2.71,2-2.64,3.07a3.5,3.5,0,0,0,3.39,3.52h1.94Z" style="fill:#020302"/><path d="M191.83,139.86c.1-.6.62-.88,1-1.26.59-.6,1.12-1.13.35-2a1.14,1.14,0,0,1,0-1.28.5.5,0,0,1,.66-.17c.55.24.3.77.4,1.17.34,1.29-.56,2.36-.59,3.58h-1.81Z" style="fill:#020302"/><path d="M192.87,134.62c-.4-.92-1.63-.38-1.56-1.51a.46.46,0,0,1,.67-.38C192.64,133,193.14,133.42,192.87,134.62Z" style="fill:#020302"/><path d="M170,153.69h-.75c-.43,0-.83-.1-.79-.65s.5-.48.88-.56c.54-.12.83.5,1.38.36a1.74,1.74,0,0,0,1.23-2.39c-.08-.29-.77-.66,0-.89a.91.91,0,0,1,1.1.78A2.9,2.9,0,0,1,170,153.69Z" style="fill:#020302"/><path d="M170.47,149.5c-.8-.37-1.93-.23-2.05-1.6a.72.72,0,0,1,.14-.54c.24-.2.43,0,.61.2l1.64,1.43Z" style="fill:#020302"/><path d="M178,146.68c-.45,1.43,1.3,2.61.14,4.19a1.55,1.55,0,0,0,.33,1.8.55.55,0,0,1-.26.95c-.4.12-.73-.06-.74-.49,0-2.14,0-4.29,0-6.43Z" style="fill:#020302"/><path d="M187.61,96a2.41,2.41,0,0,1,2,.78c1.25,1.08,1.2,1.87-.18,2.75s-2.81,1.66-4.16,2.56c-.74.49-1,.23-1.33-.44A3.82,3.82,0,0,1,187.61,96Zm1.13,2.2a2.48,2.48,0,0,0-3.77.92c-.14.4-.19.9.09,1.13s.76-.08,1-.36A5.27,5.27,0,0,1,188.74,98.23Z" style="fill:#201004"/><path d="M71.3,108.9c-.19.94-1,.66-1.44.52a3.25,3.25,0,0,0-3.81,1.29c-.72.86-1.05.48-1.45-.36a8.74,8.74,0,0,1-.79-4.06l.07-.41c2.21-1.91,3.14-1.7,3.64,1.17.29,1.67,1.32,1.51,2.38,1.67.31.27.6.32.86-.07l0-.05Z" style="fill:#020302"/><path d="M71.3,108.9l-.52-.29c-.48-2.89-1.33-5.59-3.76-7.5-1.16-.91-1.83-.81-2.47.43a7.91,7.91,0,0,0-.67,4.35l-.07.41c-.45-.19-.45-.59-.52-1a7.76,7.76,0,0,1,.75-4.36,1.85,1.85,0,0,1,3.06-.78c2.34,1.73,3.94,3.91,4,6.93C71.07,107.74,71.87,108.23,71.3,108.9Z" style="fill:#201004"/><path d="M66.88,116.45a3.08,3.08,0,0,1,2-3.21c-.76,1.19,0,1.6.79,1.91a17.06,17.06,0,0,0,8.15,1.36c.34,0,.69,0,1.05,0,0,.48-.35.47-.59.49A15.88,15.88,0,0,1,70,115.78c-1.35-.64-2.38-1.13-3.09.66Z" style="fill:#201004"/><path d="M84,110.74c.23-1.6-.77-2-2.18-2a2.75,2.75,0,0,1,3.81,2c-.72-1.15-1.17-.47-1.64,0Z" style="fill:#201004"/><path d="M76.48,109.53a2.23,2.23,0,0,1-3,.84c1.09,0,2-.7,3-.83Z" style="fill:#201004"/><path d="M82.79,113.13a3,3,0,0,1-1.59,1.93c.38-.77.59-1.67,1.6-1.92Z" style="fill:#201004"/><path d="M83.1,112.54c0-.33,0-.67.3-.9h0c0,.33,0,.68-.3.9Z" style="fill:#201004"/><path d="M82.8,113.14a.6.6,0,0,1,.3-.61h0l-.3.6Z" style="fill:#201004"/><path d="M83.69,111a.62.62,0,0,1-.3.6h0l.3-.6Z" style="fill:#201004"/><path d="M77.69,108.33l.29-.21c.07.32-.2.13-.29.2Z" style="fill:#201004"/><path d="M83.7,111l.3-.3h0l-.3.3Z" style="fill:#201004"/><path d="M77.39,108.63l.3-.3h0l-.3.3Z" style="fill:#201004"/><path d="M77.08,108.92l-.3.3h0l.3-.3Z" style="fill:#201004"/><path d="M77.38,108.62l-.3.3h0l.3-.3Z" style="fill:#201004"/><path d="M76.78,109.22l-.3.3h0l.3-.3Z" style="fill:#201004"/><path d="M86.52,117.9l-.09-.31a1.52,1.52,0,0,1,.16.2S86.54,117.87,86.52,117.9Z" style="fill:#201004"/><path d="M103.2,122.15c-.1.34-.22.74-.57.82-1.13.26-.75.76,0,1.43a6.14,6.14,0,0,1-3.3-1.37c1.63.18,2.71-.5,3.88-.84Z" style="fill:#201004"/><path d="M103.22,120.32c.3.32.62-.08.92,0-.28.63-.07,1.5-.93,1.82l0,0C103.56,121.56,102.95,120.95,103.22,120.32Z" style="fill:#201004"/><path d="M103.87,125.87c.26-.13.49-.36.8-.23a.26.26,0,0,1,.07.24A.53.53,0,0,1,103.87,125.87Z" style="fill:#201004"/><path d="M80.3,131.86a11.15,11.15,0,0,1-.65,3.71c.15-1.29-.68-2.62.24-3.87Z" style="fill:#201004"/><path d="M80.3,131.86l-.41-.16c.13-.89-.22-1.83.41-3.08Z" style="fill:#067c07"/><path d="M68.78,124.66c1,.61.1,1.87.87,2.55-.79.14-1-.28-1-1C68.7,125.71,68.74,125.19,68.78,124.66Z" style="fill:#201004"/><path d="M188.74,98.23a5.27,5.27,0,0,0-2.67,1.69c-.24.27-.66.64-1,.36s-.23-.73-.09-1.13A2.48,2.48,0,0,1,188.74,98.23Z" style="fill:#fcfc04"/><path d="M63.88,105.89a7.91,7.91,0,0,1,.67-4.35c.64-1.24,1.31-1.34,2.47-.43,2.43,1.91,3.28,4.62,3.76,7.5l0,.05-.86.07c-1.06-.16-2.09,0-2.38-1.67C67,104.19,66.09,104,63.88,105.89Z" style="fill:#f2f1f1"/><path d="M69.89,108.73l.86-.07C70.49,109.06,70.2,109,69.89,108.73Z" style="fill:#201004"/></svg>