<svg xmlns="http://www.w3.org/2000/svg" viewBox="0 0 250 250"><defs><style>.a{fill:#8f0119;}</style></defs><title>Midscale</title><path class="a" d="M96.46,76.71l-1.64,6.74-4.62,19c-.09.39-.21.77-.31,1.16-.51,1.79-1.22,2.32-3.51,1.92-.83-.14-1.16-.87-1.36-1.58q-1-3.61-1.94-7.23-2.46-9.58-4.89-19.16c0-.05-.08-.09-.15-.16-.26.3-.11.64-.11.94q0,12.35,0,24.69c0,.76.05,1.53.12,2.29a2.79,2.79,0,0,0,1.39,2.29,2.55,2.55,0,0,1,1,3.14,1.65,1.65,0,0,1-1.75,1.05H74a1.74,1.74,0,0,1-1.87-1c-.37-.93-.17-2.45.58-2.85,1.76-.93,1.93-2.52,1.93-4.18q0-15.5,0-31c0-1.65-.44-3.06-2.14-3.85-.91-.42-1.18-1.71-.83-2.93.29-1,1-1.18,1.95-1.18,2.37,0,4.73,0,7.1,0,1.63,0,2.13.31,2.56,1.92.57,2.15,1,4.34,1.55,6.51L89,91.13c.07.29.16.56.32,1.13l2.12-8.56c1.36-5.53,2.72-11.06,4.1-16.58.53-2.12.81-2.31,3-2.31,2,0,4.07,0,6.1,0a1.39,1.39,0,0,1,1.51,1.15,2.76,2.76,0,0,1-1.36,3.55,2,2,0,0,0-1,1.61c-.05.63-.11,1.26-.11,1.89q0,15.75,0,31.49a3.74,3.74,0,0,0,1.3,3.28,2.4,2.4,0,0,1,.7,2.56,1.65,1.65,0,0,1-1.73,1.48c-2.5,0-5,0-7.5,0-1.63,0-2.43-2.06-1.44-3.58a3,3,0,0,1,.67-.74,2.58,2.58,0,0,0,1-2.19q0-2.1,0-4.2,0-11.65,0-23.29,0-.54,0-1.08Z"/><path class="a" d="M152.12,160.07l-.66,1.28a5.54,5.54,0,0,1-9,1.73,11.77,11.77,0,0,1-3.46-5.4,26.34,26.34,0,0,1,.51-18.56,11.31,11.31,0,0,1,3.68-5,6.08,6.08,0,0,1,8.06.08l.39.29c.07-.08.15-.13.15-.17.06-3.4.1-6.79,0-10.19a3.59,3.59,0,0,0-1.2-2.54c-1.45-1.39-1.15-3,.69-3.79a42.14,42.14,0,0,1,4.15-1.95c1.5-.48,2.09-.16,2.45,1.38a13.55,13.55,0,0,1,.28,3.08q0,17.79,0,35.57c0,.57,0,1.13,0,1.7a2.7,2.7,0,0,0,1,2.17,2.47,2.47,0,0,1,.84,2.6,1.44,1.44,0,0,1-1.5,1.33c-1.53,0-3.06,0-4.6,0a1.51,1.51,0,0,1-1.62-1.44C152.27,161.63,152.22,161,152.12,160.07Zm-.28-11.8h0q0-2.74,0-5.49c0-.13,0-.27,0-.4A7.32,7.32,0,0,0,151,139c-1.27-2.27-3.49-2.33-4.86-.13a9.55,9.55,0,0,0-1.14,3,32.19,32.19,0,0,0-.47,11.11A11.84,11.84,0,0,0,146,158.1c1.23,1.93,3.22,2,4.56.11a7,7,0,0,0,1.23-4C151.88,152.2,151.84,150.24,151.84,148.27Z"/><path class="a" d="M32.47,139.56a44.29,44.29,0,0,0,1.93,13,10.82,10.82,0,0,0,2.88,4.72,5.69,5.69,0,0,0,7.89.26,13.17,13.17,0,0,0,3.21-4,7.44,7.44,0,0,1,1.22-1.82,1,1,0,0,1,1.8.25,3.51,3.51,0,0,1,.36,2.33c-.76,5.87-6.9,10.88-12.78,10.35a11.69,11.69,0,0,1-7.72-4.19,23.67,23.67,0,0,1-5.52-11.9,37.35,37.35,0,0,1,2.51-23,19.58,19.58,0,0,1,6.23-7.93,10.58,10.58,0,0,1,12.44-.35,16,16,0,0,1,3.27,2.91,4.42,4.42,0,0,1,.93,2.89c.1,1.93.15,3.86.2,5.79a3.49,3.49,0,0,1-.36,1.74,1.34,1.34,0,0,1-1.17.81,1.16,1.16,0,0,1-1.08-.75,12.27,12.27,0,0,1-.92-2.63,15.79,15.79,0,0,0-2.18-5.22c-2.54-3.45-6-3.59-8.77-.29a18.42,18.42,0,0,0-3.49,8A44.57,44.57,0,0,0,32.47,139.56Z"/><path class="a" d="M123,137c.4-.61.65-1,.93-1.41a6,6,0,0,1,5.56-2.92,6.16,6.16,0,0,1,5.29,3.87c1.24,2.67,1.35,5.54,1.38,8.41,0,4,0,8.06,0,12.09a4.19,4.19,0,0,0,1.07,3.3,2.29,2.29,0,0,1,.27,2.54c-.31.85-1.1.83-1.86.83q-2.65,0-5.3,0c-.72,0-1.45,0-1.78-.79a2.17,2.17,0,0,1,.18-2.46,4.77,4.77,0,0,0,1.17-3.77c0-4.4,0-8.79,0-13.19a11.6,11.6,0,0,0-.46-3.45,2.48,2.48,0,0,0-2.07-2,2.67,2.67,0,0,0-2.66,1.43,7.1,7.1,0,0,0-1.05,3.6c-.18,5-.14,10.06,0,15.09a2.74,2.74,0,0,0,.85,2,2.34,2.34,0,0,1,.64,2c-.12,1.16-.57,1.6-1.73,1.6-1.87,0-3.73,0-5.6,0-.72,0-1.45,0-1.79-.79a2.18,2.18,0,0,1,.17-2.46c1.12-1.13,1.16-2.45,1.16-3.88q0-7.29,0-14.59a3.64,3.64,0,0,0-1.31-3.09,2,2,0,0,1-.3-2.64,9,9,0,0,1,5.35-3.6c.58-.17.93.26,1.17.73a7.59,7.59,0,0,1,.62,2.4Z"/><path class="a" d="M119.37,108.25c-.34.62-.57,1.09-.84,1.53a5.74,5.74,0,0,1-9.89.41c-2.16-3-2.34-6.45-1.8-10a9.6,9.6,0,0,1,6.72-8.07,12.15,12.15,0,0,1,4.51-.71c.83,0,1-.26.95-1a12.77,12.77,0,0,0-.81-3.69c-.93-2.09-3.34-3-4.92-.49a11.82,11.82,0,0,1-1.23,1.7,2.17,2.17,0,0,1-3.85-.8,4.36,4.36,0,0,1,1.63-5A9.55,9.55,0,0,1,125,88a23.45,23.45,0,0,1,.41,4.47q0,5.95,0,11.89c0,1.46.12,2.81,1.42,3.86.86.7.73,1.82.36,2.79s-1.11.83-1.86.83c-1.23,0-2.46,0-3.7,0-1.45,0-1.83-.34-2-1.76C119.51,109.52,119.45,109,119.37,108.25Zm-.15-9.81a7.85,7.85,0,0,0,0-.8c-.07-.68.34-1.65-.21-2a2.86,2.86,0,0,0-2.57.33,5,5,0,0,0-1,.64c-2.37,1.95-3.2,7.29-1.55,9.86a1.82,1.82,0,0,0,3,.42,5.86,5.86,0,0,0,1.42-2.14A15.58,15.58,0,0,0,119.21,98.43Z"/><path class="a" d="M65.61,160.17c-.44.75-.73,1.32-1.08,1.83a5.76,5.76,0,0,1-9.34.5,8.47,8.47,0,0,1-1.71-3.14,15,15,0,0,1-.35-7.6c1-4.81,4.82-7.9,9.92-8.16,2.35-.12,2.36-.12,2-2.51a6.73,6.73,0,0,0-1-2.8,2.48,2.48,0,0,0-4.35-.14c-.5.66-.93,1.39-1.49,2a2.17,2.17,0,0,1-3.82-.9,4.33,4.33,0,0,1,2.09-5.12,9.55,9.55,0,0,1,14.91,7,31.07,31.07,0,0,1,.23,3.89q0,5.8,0,11.59A3.85,3.85,0,0,0,73,160a2.36,2.36,0,0,1,.5,2.77c-.3,1-1.17,1-2,1-1.17,0-2.33,0-3.5,0-1.59,0-2-.38-2.18-2C65.74,161.28,65.68,160.82,65.61,160.17Zm-.16-9.64c0-.7-.05-1.4,0-2.09s-.3-.94-1-.88a5.1,5.1,0,0,0-4.37,3.17,9.5,9.5,0,0,0-.59,6.14c.24,1.11.61,2.3,1.94,2.51s2.06-.87,2.64-1.89a10.07,10.07,0,0,0,.77-1.83A16.27,16.27,0,0,0,65.45,150.54Z"/><path class="a" d="M154.05,98.05c.07-4.86.82-9.58,4-13.59a9.57,9.57,0,0,1,7-4c4.41-.32,8,3,8.41,7.7.54,5.56-2,9.5-7.27,11.28-1.38.47-2.81.8-4.24,1.14-.61.14-.83.37-.69,1A10.45,10.45,0,0,0,163,106a3.77,3.77,0,0,0,5.7.7,12.9,12.9,0,0,0,2.64-3.1c.4-.59.76-1.44,1.67-1.08s.86,1.18.83,2a1.49,1.49,0,0,1,0,.3,10.21,10.21,0,0,1-6.49,7.55,7.93,7.93,0,0,1-8.8-2.13c-2.67-2.66-3.8-6-4.27-9.68C154.15,99.71,154.12,98.9,154.05,98.05Zm13.41-9a5.69,5.69,0,0,0-.61-3.09,1.89,1.89,0,0,0-2.89-.67,5,5,0,0,0-1.77,2.36,20.83,20.83,0,0,0-1.48,8.09c0,.65.26.69.79.59A7.07,7.07,0,0,0,167.47,89.08Z"/><path class="a" d="M160.45,149c.12-4.18,1-8.58,3.89-12.33a10,10,0,0,1,5.9-3.86,7.79,7.79,0,0,1,9.36,6.53c1.06,5.64-1.43,10-6.82,12a34.14,34.14,0,0,1-4.53,1.21c-.7.15-.83.43-.68,1.09a10.09,10.09,0,0,0,1.87,4.36,3.73,3.73,0,0,0,5.41.73,10.76,10.76,0,0,0,2.55-2.79,9.41,9.41,0,0,1,.89-1.2.94.94,0,0,1,1.64.24,2.6,2.6,0,0,1,.25,1.65c-.57,5.2-6.88,9.28-11.81,7.61a10.63,10.63,0,0,1-6.1-5.87A20.58,20.58,0,0,1,160.45,149Zm6.68-2.77c-.16,2.45-.11,2.49,1.83,1.81l.19-.06a7.16,7.16,0,0,0,4.44-9c-.26-.85-.64-1.65-1.63-1.85a2.43,2.43,0,0,0-2.43,1.06,7.08,7.08,0,0,0-1.09,1.9A19.38,19.38,0,0,0,167.13,146.26Z"/><path class="a" d="M95,149.87a23,23,0,0,1,2.46-11,12.24,12.24,0,0,1,4.73-5,7.88,7.88,0,0,1,12,5.64c1,5.69-1.56,10.06-7,11.95a41,41,0,0,1-4.44,1.17c-.58.13-.74.37-.61,1a11,11,0,0,0,1.65,4.14,3.83,3.83,0,0,0,5.9.86,11.86,11.86,0,0,0,2.42-2.77,8.74,8.74,0,0,1,.7-1,1,1,0,0,1,1.77.26,2.36,2.36,0,0,1,.16,1.76c-1.07,3.7-3.27,6.45-7,7.51s-6.82-.37-9.18-3.34C95.83,157.66,95.06,153.71,95,149.87Zm13.41-8.62a6.46,6.46,0,0,0-.54-2.92,2,2,0,0,0-3.17-.71,5.23,5.23,0,0,0-1.52,2.07,20.74,20.74,0,0,0-1.57,8.08c0,.75.37.7.88.6A7,7,0,0,0,108.42,141.25Z"/><path class="a" d="M218.43,138.89c0,.79,0,1.39-.11,2s-.12,1.35-.91,1.5-1.06-.55-1.35-1.1-.38-.85-.58-1.27a13.84,13.84,0,0,0-.64-1.24,3.13,3.13,0,0,0-3.3-1.76,2.89,2.89,0,0,0-2.34,2.32,3.4,3.4,0,0,0,1.17,3.85,12.48,12.48,0,0,0,2.51,1.21c5.27,2.25,7.14,5.67,6.21,11.35a12.49,12.49,0,0,1-2,5.28,8.07,8.07,0,0,1-7.87,3.57,7.81,7.81,0,0,1-6.51-4.52,5.14,5.14,0,0,1-.21-4.35,1.42,1.42,0,0,1,1.19-1.07c.67,0,1,.41,1.32.91.52.89,1,1.81,1.54,2.69.76,1.23,1.75,2.13,3.34,1.86a3.1,3.1,0,0,0,2.66-2.52,3.79,3.79,0,0,0-1.2-4.16,6,6,0,0,0-1.58-.84c-.68-.26-1.37-.53-2.05-.78a6.85,6.85,0,0,1-4.79-6c-.39-3.16-.24-6.27,1.46-9.1a8.51,8.51,0,0,1,12.53-2.29,3.15,3.15,0,0,1,1.31,2.26C218.31,137.48,218.38,138.28,218.43,138.89Z"/><path class="a" d="M82.19,138.29q0,9,0,18c0,1.45.06,2.81,1.38,3.87a2.23,2.23,0,0,1,.35,2.7c-.34.84-1.13.84-1.87.84-2,0-4,0-6,0-.75,0-1.54,0-1.84-.87a2.3,2.3,0,0,1,.37-2.7,4,4,0,0,0,1.34-3.47q0-15.7,0-31.4a4.87,4.87,0,0,0-1.57-4,1.9,1.9,0,0,1,.39-3.08,26.09,26.09,0,0,1,5.15-2.4c1.1-.31,1.61,0,2,1.08a10.72,10.72,0,0,1,.38,3.26Q82.19,129.19,82.19,138.29Z"/><path class="a" d="M93.19,138.4q0,9.29,0,18.58a3.48,3.48,0,0,0,1.22,3,2.36,2.36,0,0,1,.52,2.77c-.31,1-1.19.94-2,.94H87c-.74,0-1.55,0-1.86-.85a2.31,2.31,0,0,1,.35-2.7,4.07,4.07,0,0,0,1.35-3.47q0-15.74,0-31.47a4.74,4.74,0,0,0-1.54-3.93,1.91,1.91,0,0,1,.38-3.15,26.73,26.73,0,0,1,5.05-2.36c1.19-.34,1.72,0,2.07,1.17a11.53,11.53,0,0,1,.35,3.17q0,9.14,0,18.28Z"/><path class="a" d="M135.38,86.45c.66-1.21,1.11-2.42,1.8-3.52A6.39,6.39,0,0,1,139,80.86a2.23,2.23,0,0,1,3.19.52c1.34,1.69,1.42,5.77.16,7.52a1.55,1.55,0,0,1-2.12.46c-2-.84-2.5-.62-3.24,1.5a15.32,15.32,0,0,0-.77,4.82c-.05,3.13,0,6.26,0,9.4a3.53,3.53,0,0,0,1.22,3,2.46,2.46,0,0,1,.52,2.86,1.37,1.37,0,0,1-1.35.86h-7.1a1.28,1.28,0,0,1-1.32-.88c-.3-.89-.46-1.94.27-2.54,1.56-1.27,1.5-2.94,1.48-4.63,0-4.33.13-8.66-.09-13A4.57,4.57,0,0,0,128.1,87a2.62,2.62,0,0,1,0-3.84,11.75,11.75,0,0,1,4.72-2.71c.79-.27,1.25.27,1.55.92a11.43,11.43,0,0,1,.81,3.49C135.26,85.41,135.32,85.93,135.38,86.45Z"/><path class="a" d="M188.86,138.62c.39-.87.75-1.74,1.17-2.6a7.76,7.76,0,0,1,2-2.7,2.28,2.28,0,0,1,3.72.62,7.16,7.16,0,0,1,0,6.9,1.37,1.37,0,0,1-2.19.62c-2-1.2-2.67-.17-3.27,1.53a13.93,13.93,0,0,0-.75,4.42c0,3.33,0,6.66,0,10a2.84,2.84,0,0,0,1.08,2.45,2.48,2.48,0,0,1,.67,2.83,1.36,1.36,0,0,1-1.45,1c-2.3,0-4.6,0-6.9,0a1.38,1.38,0,0,1-1.49-.94c-.25-.88-.41-1.93.36-2.53,1.36-1.07,1.41-2.46,1.4-4,0-4.3,0-8.6,0-12.89a4.83,4.83,0,0,0-1.83-4.21,2.59,2.59,0,0,1,.15-3.9,12.73,12.73,0,0,1,4.6-2.54c.81-.27,1.26.27,1.55.91a12.76,12.76,0,0,1,.87,4c0,.33.06.66.09,1Z"/><path class="a" d="M152.79,95c0,3.6,0,7.19,0,10.79a3.21,3.21,0,0,0,.9,2.45,2.33,2.33,0,0,1,.62,2.12c-.17,1.11-.59,1.49-1.72,1.5H147c-.71,0-1.46.05-1.79-.76a2.24,2.24,0,0,1,.14-2.47c1.19-1.22,1.2-2.67,1.19-4.17,0-4.89-.07-9.79-.07-14.68A4.4,4.4,0,0,0,145,86.2a2,2,0,0,1,.31-3.24,26.54,26.54,0,0,1,5-2.4c1.21-.36,1.71-.07,2.08,1.15a9.76,9.76,0,0,1,.35,2.86q0,5.19,0,10.39Z"/><path class="a" d="M54.72,169.07c.87,0,1.73,0,2.6,0a2.81,2.81,0,0,1,2.87,1.77,3.06,3.06,0,0,1-.68,3.6c-1.09.9-.91,1.57-.29,2.57a12.36,12.36,0,0,1,.95,2.41,2.59,2.59,0,0,0,.78,1.36.54.54,0,0,1-.36,1c-1,0-1.93,0-2.9,0-.71,0-.91-.46-.44-1a1.15,1.15,0,0,0,.19-1.28,20,20,0,0,0-1.2-2.74c-.28-.58-.69-.47-1.17-.4s-.56.47-.56.89c0,.73,0,1.47,0,2.2a1.57,1.57,0,0,0,.45,1.26c.51.5.29,1-.42,1.06a22,22,0,0,1-2.6,0c-.72,0-.91-.54-.39-1.07a1.59,1.59,0,0,0,.44-1.26q0-4,0-8.1a1.22,1.22,0,0,0-.44-1.15.59.59,0,0,1-.26-.7c.11-.35.42-.41.72-.42.9,0,1.8,0,2.7,0Zm1,1.26c-.77,0-1.2.36-1.18,1.24,0,.66,0,1.33,0,2s-.27,1.27.18,1.48,1.27-.13,1.85-.47a2.4,2.4,0,0,0,.88-.93A2.12,2.12,0,0,0,55.7,170.34Z"/><path class="a" d="M154.13,174.77c2.07,1.33,2.75,2.85,2.07,4.76a3,3,0,0,1-2.79,2.22c-1.93.09-3.86,0-5.79,0-.31,0-.62,0-.74-.38a.64.64,0,0,1,.29-.78,1.15,1.15,0,0,0,.39-1.07c0-2.76,0-5.53,0-8.29a1.45,1.45,0,0,0-.48-1.14c-.47-.46-.28-1,.37-1a29.33,29.33,0,0,1,6.38.15c1.84.39,2.53,2.75,1.35,4.37A14.48,14.48,0,0,1,154.13,174.77Zm-4.06,3.35h0c0,.4,0,.8,0,1.2,0,1,.36,1.3,1.35,1.22a2.35,2.35,0,0,0,2.22-3c-.18-1-1-1.85-1.71-1.8-1.45.1-1.87.54-1.87,2Q150.07,177.92,150.07,178.12Zm0-5.44h0c0,.53,0,1.06,0,1.59,0,.26,0,.53.42.46a3.45,3.45,0,0,0,2.6-2.71c.08-1.14-.52-1.73-1.76-1.76-1,0-1.25.24-1.26,1.52C150.07,172.08,150.07,172.38,150.07,172.68Z"/><path class="a" d="M137.89,178.18c1.06-1.22,1.11-1.72.3-2.84-.34-.47-.15-.8.36-.84a22,22,0,0,1,2.3,0,.52.52,0,0,1,.52.4.54.54,0,0,1-.27.59c-1.19.87-1.48,2.33-2.27,3.47-.19.27,0,.5.17.7a2.13,2.13,0,0,0,2,.71c.31-.07.62-.16.77.2s-.08.63-.35.86a3,3,0,0,1-3.47.11,1.48,1.48,0,0,0-2,0,3.78,3.78,0,0,1-4.81-.76,3.69,3.69,0,0,1,.52-4.91c1-.8.92-1.39.54-2.45a3.25,3.25,0,0,1,3.37-4.6,2.67,2.67,0,0,1,2.25,4.06,3.07,3.07,0,0,1-1.28,1.37c-.88.43-.71.89-.24,1.52S137.35,177.37,137.89,178.18Zm-3.57,2.43a2.34,2.34,0,0,0,1.31-.37c.35-.21.45-.42.19-.79-.68-1-1.34-2-2-3-.13-.19-.24-.4-.55-.18a3,3,0,0,0-.6,2.9A1.86,1.86,0,0,0,134.32,180.62Zm-.2-9.28c0,1,.61,2.21,1,2.17s1.3-1.3,1.26-2-.33-1.38-1.14-1.39S134.14,170.73,134.12,171.33Z"/><path class="a" d="M206.19,123.31c-.05,3-1.69,6.46-4.23,9.52-.41.49-.69.24-.94-.07s-1-.39-.43-1a11.32,11.32,0,0,0,2.36-6.16c.07-.6.15-1-.74-.9a2.19,2.19,0,0,1-2.12-1.25,5.3,5.3,0,0,1,1.35-6.74,2.52,2.52,0,0,1,3.76.89C205.85,118.61,206.19,120.24,206.19,123.31Z"/><path class="a" d="M190.91,181.66c-1.66.09-2.42-.86-2.84-2.22a27.88,27.88,0,0,1-.78-4c0-.31,0-.68-.37-1-.18,1-.49,1.65-1.67,1.2-.45-.18-.72.37-.77.74-.2,1.54-.76,3.12.34,4.58.27.36.16.78-.33.81a19.61,19.61,0,0,1-2.69,0c-.55,0-.69-.55-.34-.85.65-.56.54-1.24.55-1.92s0-1.53,0-2.3a1.75,1.75,0,0,0-.65-1.58c-.52-.38-.38-.84.1-1.13a4.92,4.92,0,0,1,1.37-.58c1-.26.85.76,1.18,1.32.33-.39.61-.73.92-1.06s.55-.43.81-.31c1.16.55,2.32-.11,3.49.06.9.13,1.1.31.67,1.1a4,4,0,0,0-.06,2.54,7.31,7.31,0,0,0,.83,2.76c.37.67.75.68,1,0a12.12,12.12,0,0,0,.78-4.7c0-.33-.24-.52-.41-.77-.38-.55-.21-.87.46-.91.27,0,.53,0,.8,0,1,0,1.12.17.71,1.11a9.55,9.55,0,0,0-.43,2.35,18.36,18.36,0,0,1-2,6,4.59,4.59,0,0,1-1.89,2,1.62,1.62,0,0,1-1.88-.09.92.92,0,0,1-.25-1.17.78.78,0,0,1,.9-.46C190,183.44,190.27,183.29,190.91,181.66Z"/><path class="a" d="M145.4,72a6.48,6.48,0,0,1,1-3.76,3.16,3.16,0,0,1,5.63.11,6.39,6.39,0,0,1,0,6.5,3.33,3.33,0,0,1-3.15,1.94,3.45,3.45,0,0,1-3-2.21A5.23,5.23,0,0,1,145.4,72Z"/><path class="a" d="M167.84,177a5.17,5.17,0,0,0,1.94-1.78c.18-.26.26-.55,0-.8a.77.77,0,0,1-.13-.15.42.42,0,0,1,.13-.67,3.76,3.76,0,0,1,2.49.12c.24.33,0,.58-.2.77a4.66,4.66,0,0,0-1.67,1.94c-.24.79.77,1.42,1.16,2.16a9.61,9.61,0,0,0,1.31,2.34c.35.37.12.82-.39.86a20.58,20.58,0,0,1-2.5,0c-.54,0-.65-.35-.45-.84a3.33,3.33,0,0,0-1-2.85.42.42,0,0,0-.6.44c0,.78-.23,1.58.34,2.31.44.57.23.93-.49,1s-1.33,0-2,0-.9-.38-.46-.9a2,2,0,0,0,.38-1.4c0-2.4,0-4.8,0-7.2,0-.78.15-1.61-.64-2.19-.26-.19-.17-.49.08-.68a2,2,0,0,1,.44-.22c2.17-.94,2.34-.83,2.34,1.52C167.84,172.75,167.84,174.78,167.84,177Z"/><path class="a" d="M114.73,174.44a2.71,2.71,0,0,1,2.93-1,2.37,2.37,0,0,1,1.74,2.41c.06,1,0,2.06,0,3.09a2.86,2.86,0,0,0,.46,2.08c.33.39.06.77-.47.79-.73,0-1.46,0-2.19,0-.52,0-.8-.41-.45-.8a2.75,2.75,0,0,0,.44-2.08c0-1,0-2-.05-3,0-.59-.25-1.15-1-1.14a1.08,1.08,0,0,0-1.13,1.06c0,1.72-.53,3.49.33,5.16.2.39.08.76-.42.78-.76,0-1.53,0-2.29,0-.49,0-.71-.42-.43-.75.61-.71.41-1.5.43-2.27s0-1.73,0-2.59a1.23,1.23,0,0,0-.38-1.08c-.48-.39-.32-.75.08-1.07a3.65,3.65,0,0,1,1.34-.64C114.46,173.18,114.58,173.75,114.73,174.44Z"/><path class="a" d="M96.6,177c0,.8,0,1.6,0,2.4a1.78,1.78,0,0,0,.46,1.45c.49.48.27,1-.41,1s-1.62.5-2.09-.58c-.17-.39-.37,0-.51.13a2.93,2.93,0,0,1-1.51.71A2.12,2.12,0,0,1,90,180.18a27.67,27.67,0,0,1-.13-4.08,1.93,1.93,0,0,0-.3-1.32c-.38-.45-.19-.8.31-1a5.89,5.89,0,0,1,.57-.19c1.43-.45,1.69-.26,1.71,1.27s0,2.86,0,4.29c0,.63,0,1.34.86,1.46.66.09,1.24-.58,1.27-1.49,0-1.16,0-2.33,0-3.49a1.17,1.17,0,0,0-.13-.58c-.24-.39-.69-.83,0-1.16a2.45,2.45,0,0,1,2.27-.35c.26.13.17.48.18.74C96.6,175.17,96.6,176.06,96.6,177Z"/><path class="a" d="M85.92,181a2.48,2.48,0,0,1-3.2.74,2.46,2.46,0,0,1-1.3-2.59,2.69,2.69,0,0,1,1.94-2.52c.49-.18,1-.2,1.55-.36.34-.1,1,.24.91-.54s-.38-1.22-1.17-1.27a1.14,1.14,0,0,0-.93.5,1.42,1.42,0,0,1-.81.55.85.85,0,0,1-.68-1.51,4.45,4.45,0,0,1,4.1-.46,2.63,2.63,0,0,1,1.85,2.68c0,.93,0,1.86,0,2.79,0,.65-.13,1.33.53,1.82a.5.5,0,0,1,0,.79A2.56,2.56,0,0,1,85.92,181Zm0-2.77c0-.76,0-.85-.48-.86a1.87,1.87,0,0,0-1.72,2c0,.58.11,1.18.85,1.25S85.92,179.62,85.94,178.26Z"/><path class="a" d="M108.52,181.1a2.47,2.47,0,0,1-3.06.71,2.43,2.43,0,0,1-1.4-2.54,2.67,2.67,0,0,1,1.87-2.57c.52-.2,1.1-.23,1.64-.4.32-.1.91.23.88-.47a1.28,1.28,0,0,0-.81-1.26,1,1,0,0,0-1.1.24,6.15,6.15,0,0,1-.57.55.81.81,0,0,1-1.17,0,.8.8,0,0,1,.07-1.24,4.3,4.3,0,0,1,4-.54,2.5,2.5,0,0,1,1.92,2.41c.07.9,0,1.8,0,2.7s-.21,1.67.58,2.31c.26.2.16.57-.14.77A2.86,2.86,0,0,1,108.52,181.1Zm.08-2.8c0-1-.21-1.12-1.09-.74a2,2,0,0,0-1,2.42.8.8,0,0,0,1.42.33A2.72,2.72,0,0,0,108.6,178.3Z"/><path class="a" d="M163.84,178.06c.17.88-.38,2,.63,2.95.35.32,0,.83-.49.77-.78-.09-1.75.53-2.3-.57-.1-.21-.27,0-.37.14a2.41,2.41,0,0,1-2.94.42,2.44,2.44,0,0,1-1.29-2.42,2.68,2.68,0,0,1,1.63-2.54,7.79,7.79,0,0,1,1.82-.5c.33-.07.9.22,1-.37a1.29,1.29,0,0,0-.63-1.28,1,1,0,0,0-1.21.09c-.15.13-.28.28-.42.42-.46.46-1,.65-1.46.08a.89.89,0,0,1,.41-1.41,4.64,4.64,0,0,1,4.23-.08c1.27.61,1.46,1.79,1.43,3.05C163.84,177.18,163.84,177.54,163.84,178.06Zm-2.22.23c0-1-.22-1.1-1.11-.71a2,2,0,0,0-1,2.33.84.84,0,0,0,1.53.33A2.73,2.73,0,0,0,161.63,178.29Z"/><path class="a" d="M173.32,178c0-2.72,1.83-4.7,4.29-4.63a2.55,2.55,0,0,1,2.62,1.89,2.45,2.45,0,0,1-1.59,2.88,6.86,6.86,0,0,1-2.11.58c-.74.1-.68.44-.42.94a1.71,1.71,0,0,0,2.53.74c.2-.12.36-.3.55-.43.35-.22.56-1,1.08-.51s0,1-.37,1.38a3.7,3.7,0,0,1-4.1,1A4,4,0,0,1,173.32,178Zm2.43-1c0,.24-.22.61.3.66a2.11,2.11,0,0,0,2.07-2.2.86.86,0,0,0-.51-.79.93.93,0,0,0-1,.24A3.23,3.23,0,0,0,175.75,176.93Z"/><path class="a" d="M61.44,177.93c0-2.79,2-4.8,4.51-4.58a2.56,2.56,0,0,1,2.42,1.89A2.43,2.43,0,0,1,66.95,178a6.42,6.42,0,0,1-2.29.66c-.72.09-.69.42-.44.93a1.72,1.72,0,0,0,2.6.72c.19-.13.35-.3.54-.44s.52-.9,1-.48,0,.92-.25,1.3A3.72,3.72,0,0,1,64,181.85,4,4,0,0,1,61.44,177.93Zm4.82-2.31a1,1,0,0,0-.51-1,1,1,0,0,0-1.15.36,3.8,3.8,0,0,0-.77,2.22c0,.29.1.4.41.39A2.16,2.16,0,0,0,66.27,175.62Z"/><path class="a" d="M72.25,182a3.41,3.41,0,0,1-2.39-.73,1.56,1.56,0,0,1-.63-1.09c0-.35,0-.68.4-.83s.56.1.75.35a3,3,0,0,0,.8.88,1.2,1.2,0,0,0,1.72-.43c.33-.75-.12-1.12-.73-1.37-.24-.1-.51-.16-.76-.24-1.52-.47-2-1.08-2-2.46a2.7,2.7,0,0,1,2.12-2.68,4.16,4.16,0,0,1,2.46.12,1.48,1.48,0,0,1,1,2c-.16.54-.45.54-.77.16s-.4-.7-.73-.94a1.23,1.23,0,0,0-1.32-.11.84.84,0,0,0-.49.81c0,.52.41.73.83.88l.76.25c1.59.55,2.21,1.37,2.06,2.75A2.93,2.93,0,0,1,72.68,182Z"/><path class="a" d="M76.89,178.09c0-.7,0-1.4,0-2.1s.19-1.19-.76-1.29c-.45,0-.45-1,0-1.08,1.18-.26,1.35-1.14,1.48-2.09.07-.52.14-1,.85-1s.57.66.61,1.11a5.91,5.91,0,0,1,0,.9c0,.58.07,1,.8.89.49-.06.88.13.87.7s-.45.7-.92.65c-.62-.06-.72.26-.71.78,0,1.27,0,2.53,0,3.8,0,.66.19,1.11,1,1.09.48,0,.76.21.72.73s-.37.59-.77.6c-.67,0-1.33,0-2,0-.88,0-1.19-.42-1.18-1.22S76.89,178.92,76.89,178.09Z"/><path class="a" d="M123.43,181.8c-.3,0-.6,0-.9,0-.8,0-1.15-.34-1.15-1.13,0-1.7,0-3.39,0-5.09,0-.42,0-.81-.59-.8-.36,0-.51-.27-.52-.6a.53.53,0,0,1,.41-.6c1.11-.18,1.25-1,1.39-1.91a3.38,3.38,0,0,1,.19-.77c.16-.38.52-.36.85-.32s.45.26.45.55a10.46,10.46,0,0,1,0,1.1c-.07.77,0,1.4,1,1.24.37-.05.6.24.61.64s-.24.73-.66.68c-1-.12-1,.45-.95,1.15,0,1.1,0,2.2,0,3.29,0,.71.11,1.27,1,1.23a.6.6,0,0,1,.7.66.64.64,0,0,1-.71.67c-.4,0-.8,0-1.2,0Z"/><path class="a" d="M100.88,174.77c.27-.36.44-.6.63-.83a1.23,1.23,0,0,1,1.58-.48c.6.3.62.9.53,1.49s-.43,1-1.1.75a.76.76,0,0,0-1.16.67c-.19,1.54-.74,3.12.33,4.58.27.37.14.78-.33.81a18.77,18.77,0,0,1-2.69,0,.47.47,0,0,1-.31-.86c.58-.51.49-1.12.5-1.74,0-.83,0-1.66,0-2.5a1.57,1.57,0,0,0-.64-1.57.51.51,0,0,1-.24-.69,2.42,2.42,0,0,1,1.95-1c.65-.11.66.51.81.93C100.77,174.43,100.81,174.55,100.88,174.77Z"/><path class="a" d="M225,163.25a3.19,3.19,0,1,1-3.16-3.18A3.12,3.12,0,0,1,225,163.25Zm-5.84,0a2.65,2.65,0,1,0,2.64-2.7A2.69,2.69,0,0,0,219.16,163.3Z"/><path class="a" d="M223.2,164.9a.53.53,0,0,1-.81-.26A6,6,0,0,0,222,164a.7.7,0,0,0-.76-.36c-.35.11-.16.45-.21.69s.13.63-.25.65-.28-.43-.3-.68c0-.43,0-.86,0-1.3,0-1.34.78-1.84,2-1.28.61.27.85.94.42,1.28-.77.61-.27,1,0,1.43C223,164.55,223.09,164.7,223.2,164.9Zm-1.51-1.81c.26-.05.73,0,.75-.48s-.49-.51-.86-.57-.59.11-.6.54S221.23,163.14,221.69,163.1Z"/></svg>