<?xml version="1.0" encoding="utf-8"?>
<!-- Generator: Adobe Illustrator 20.1.0, SVG Export Plug-In . SVG Version: 6.00 Build 0)  -->
<svg version="1.1" id="Layer_1" xmlns="http://www.w3.org/2000/svg" xmlns:xlink="http://www.w3.org/1999/xlink" x="0px" y="0px"
	 viewBox="0 0 24.8 17.9" style="enable-background:new 0 0 24.8 17.9;" xml:space="preserve">
<style type="text/css">
	.st0{fill:#F9E8A0;}
	.st1{fill:#FF0000;}
	.st2{fill:#414042;}
	.st3{fill:#F8E79F;}
	.st4{fill:#F6D056;}
	.st5{fill:none;stroke:#000000;stroke-linecap:round;stroke-linejoin:round;stroke-miterlimit:10;}
	.st6{fill:none;}
	.st7{fill:#A7A9AC;}
	.st8{fill:#FFFFFF;}
	.st9{fill:#FBECBB;}
	.st10{fill:#F15F2E;}
	.st11{fill:#45A5DA;}
	.st12{fill:#ED1C24;}
	.st13{fill:#231F20;}
</style>
<g>
	<path class="st3" d="M18.7,8.5l0,0.4L18.7,8.5c-0.1,0-0.1,0-0.1-0.1c0-0.4,0-0.9,0-1.3V6.4c0-0.6-0.2-0.8-0.8-0.8l-8.6,0
		c-1.8,0-3.5,0-5.3,0c-0.1,0-0.4,0-0.5,0.2C3.3,6,3.3,6.3,3.3,6.3c0,0.4,0,0.7,0,1.1l0,0.5c0,0.2,0,0.5,0,0.5C3.2,8.5,3,8.5,2.8,8.5
		C1.9,8.6,1.2,9.1,0.8,10c-0.3,0.6-0.4,1.3-0.3,2.2c0.2,1.6,1.1,2.6,2.7,2.6c0,0,0,0,0,0.1c0,0.4,0,0.8,0,1.2l0,0.4
		c0,0.3,0,0.5,0.2,0.7c0.2,0.2,0.4,0.2,0.7,0.2l13.7,0c0.6,0,0.8-0.2,0.8-0.8c0-0.6,0-1.1,0-1.7c0-0.1,0-0.1,0.1-0.2
		c0,0,0.1,0,0.2,0l0.1,0c1-0.1,1.8-0.6,2.2-1.6c0.2-0.6,0.3-1.2,0.2-2C21.2,9.4,20.3,8.5,18.7,8.5z M11.5,11.3
		c-0.6,0-1.2-0.6-1.2-1.2c0-0.6,0.6-1.2,1.2-1.2c0.6,0,1.2,0.6,1.2,1.2C12.7,10.6,12.1,11.2,11.5,11.3z M14.7,14.4
		c-0.6,0-1.3-0.6-1.3-1.2c0-0.6,0.6-1.2,1.2-1.2c0.6,0,1.2,0.6,1.2,1.2C15.9,13.8,15.3,14.4,14.7,14.4z"/>
	<path class="st2" d="M14.7,11.9c-0.6,0-1.2,0.6-1.2,1.2c0,0.6,0.6,1.2,1.3,1.2c0.6,0,1.2-0.6,1.2-1.2
		C15.9,12.6,15.3,11.9,14.7,11.9z M14.7,13.5c-0.2,0-0.3-0.1-0.3-0.3c0-0.2,0.1-0.3,0.3-0.3c0.2,0,0.3,0.1,0.3,0.3
		C15,13.4,14.9,13.5,14.7,13.5z"/>
	<path class="st2" d="M11.5,8.8c-0.6,0-1.2,0.6-1.2,1.2c0,0.6,0.6,1.2,1.2,1.2c0.6,0,1.2-0.6,1.2-1.2C12.7,9.4,12.1,8.8,11.5,8.8z
		 M11.5,10.3c-0.2,0-0.3-0.1-0.3-0.3c0-0.2,0.1-0.3,0.3-0.3c0.2,0,0.3,0.1,0.3,0.3C11.8,10.2,11.7,10.3,11.5,10.3z"/>
</g>
<path class="st1" d="M22.5,9.1c1.5-0.5,2-1.3,1.8-2.8c-0.1-0.8-0.3-1.4-0.7-2c-0.6-0.8-1.3-1.2-2.3-1l-0.1,0c-0.2,0-0.4,0.1-0.4-0.2
	l-0.1-0.5c-0.1-0.4-0.2-0.9-0.3-1.3c0-0.1-0.1-0.3-0.2-0.4c-0.2-0.1-0.3-0.1-0.5,0C15.1,1.9,5.1,4,5,4.1L4.7,4.1L5,5.4l13.7,0
	c0.4,0,0.4,0,0.4,0.5l0,0.6c0,0.5,0,0.9,0,1.4c0,0.1,0,0.2,0.1,0.3c0.1,0.1,0.2,0.2,0.3,0.2c1,0.2,1.6,0.8,2,1.7
	c0.1,0.1,0.1,0.3,0.1,0.4c0,0.2,0.1,0.3,0.1,0.5c0,0.2,0.1,0.4,0.1,0.6c0,0.2,0,0.5-0.1,0.8l1.1-0.2c0,0,0,0,0-0.1
	c-0.1-0.3-0.2-0.7-0.3-1l-0.1-0.6c-0.1-0.3-0.2-0.7-0.2-1C22.3,9.2,22.3,9.2,22.5,9.1z"/>
<path class="st2" d="M11,5.1c2.5,0,5,0,7.5,0c0.6,0,0.7,0.1,0.7,0.7c0,0.6,0,1.3,0,1.9c0,0.2,0,0.3,0.2,0.3c1.5,0.4,2.2,1.4,2.5,2.8
	c0.2,0.9,0.1,1.7-0.3,2.5c-0.4,0.9-1.1,1.6-2.1,1.8c-0.2,0-0.3,0.1-0.3,0.3c0,0.6,0,1.2,0,1.8c0,0.4-0.2,0.6-0.6,0.6
	c-5.1,0-10.2,0-15.3,0c-0.4,0-0.6-0.2-0.6-0.6c0-0.6,0-1.2,0-1.8c0-0.2,0-0.3-0.2-0.3c-1.5-0.3-2.2-1.3-2.4-2.7
	c-0.2-1.1,0-2.2,0.6-3.2c0.4-0.6,1-1.1,1.8-1.2C2.7,8,2.8,7.9,2.8,7.7c0-0.7,0-1.3,0-2c0-0.5,0.2-0.6,0.6-0.6
	C5.9,5.1,8.4,5.1,11,5.1L11,5.1z M11,6C8.6,6,6.3,6,4,6C3.7,6,3.6,6.1,3.7,6.3c0,0.5,0,1.1,0,1.6c0,0.8,0,0.8-0.8,0.9
	C2.1,9,1.5,9.4,1.2,10.1c-0.3,0.6-0.3,1.3-0.2,2c0.1,1.3,0.8,2.2,2.2,2.3c0.3,0,0.5,0.2,0.5,0.5c0,0.5,0,1.1,0,1.6
	c0,0.5,0,0.5,0.5,0.5c1.7,0,3.4,0,5,0c2.9,0,5.8,0,8.7,0c0.4,0,0.4,0,0.4-0.4c0-0.6,0-1.1,0-1.7c0-0.2,0.1-0.4,0.3-0.5
	c0.1-0.1,0.3-0.1,0.4-0.1c0.9-0.1,1.5-0.5,1.8-1.4c0.2-0.6,0.3-1.2,0.2-1.8c-0.1-1.5-0.9-2.3-2.3-2.3c-0.3,0-0.5-0.2-0.5-0.5
	c0-0.6,0-1.3,0-1.9c0-0.4,0-0.4-0.4-0.4C15.6,6,13.3,6,11,6z"/>
<path class="st2" d="M11,5.1c2.5,0,5,0,7.5,0c0.6,0,0.7,0.1,0.7,0.7c0,0.6,0,1.3,0,1.9c0,0.2,0,0.3,0.2,0.3c1.5,0.4,2.2,1.4,2.5,2.8
	c0.2,0.9,0.1,1.7-0.3,2.5c-0.4,0.9-1.1,1.6-2.1,1.8c-0.2,0-0.3,0.1-0.3,0.3c0,0.6,0,1.2,0,1.8c0,0.4-0.2,0.6-0.6,0.6
	c-5.1,0-10.2,0-15.3,0c-0.4,0-0.6-0.2-0.6-0.6c0-0.6,0-1.2,0-1.8c0-0.2,0-0.3-0.2-0.3c-1.5-0.3-2.2-1.3-2.4-2.7
	c-0.2-1.1,0-2.2,0.6-3.2c0.4-0.6,1-1.1,1.8-1.2C2.7,8,2.8,7.9,2.8,7.7c0-0.7,0-1.3,0-2c0-0.5,0.2-0.6,0.6-0.6
	C5.9,5.1,8.4,5.1,11,5.1L11,5.1z M11,6C8.6,6,6.3,6,4,6C3.7,6,3.6,6.1,3.7,6.3c0,0.5,0,1.1,0,1.6c0,0.8,0,0.8-0.8,0.9
	C2.1,9,1.5,9.4,1.2,10.1c-0.3,0.6-0.3,1.3-0.2,2c0.1,1.3,0.8,2.2,2.2,2.3c0.3,0,0.5,0.2,0.5,0.5c0,0.5,0,1.1,0,1.6
	c0,0.5,0,0.5,0.5,0.5c1.7,0,3.4,0,5,0c2.9,0,5.8,0,8.7,0c0.4,0,0.4,0,0.4-0.4c0-0.6,0-1.1,0-1.7c0-0.2,0.1-0.4,0.3-0.5
	c0.1-0.1,0.3-0.1,0.4-0.1c0.9-0.1,1.5-0.5,1.8-1.4c0.2-0.6,0.3-1.2,0.2-1.8c-0.1-1.5-0.9-2.3-2.3-2.3c-0.3,0-0.5-0.2-0.5-0.5
	c0-0.6,0-1.3,0-1.9c0-0.4,0-0.4-0.4-0.4C15.6,6,13.3,6,11,6z"/>
<path class="st2" d="M24.8,6.7c0,1.1-0.5,2.2-1.8,2.8c-0.2,0.1-0.2,0.2-0.1,0.3c0.1,0.6,0.3,1.2,0.4,1.7c0,0.1,0,0.2,0.1,0.3
	c0,0.3-0.1,0.5-0.3,0.5c-0.2,0.1-0.5-0.1-0.5-0.3c-0.1-0.4-0.2-0.9-0.3-1.4c-0.1-0.4-0.2-0.8-0.3-1.3c-0.1-0.3,0.1-0.5,0.3-0.6
	c1.3-0.5,1.8-1.2,1.7-2.6c-0.1-0.7-0.2-1.3-0.6-1.8c-0.5-0.7-1.2-1.1-2.1-0.9c-0.1,0-0.2,0-0.3,0c-0.3,0-0.4-0.1-0.5-0.4
	c-0.1-0.6-0.3-1.2-0.4-1.8c-0.1-0.2-0.1-0.3-0.4-0.3c-4.6,1.1-9.2,2.2-13.8,3.3c-0.1,0-0.3,0.1-0.4,0.1c-0.4,0.1-0.6,0-0.7-0.3
	C4.6,3.8,4.7,3.6,5.1,3.5C5.8,3.3,6.6,3.2,7.3,3c4.2-1,8.4-2,12.5-3c0.6-0.1,0.7,0,0.8,0.5c0.1,0.6,0.3,1.1,0.4,1.7
	c0,0.2,0.1,0.3,0.3,0.3c1.6,0,2.5,0.9,3.1,2.3C24.7,5.4,24.8,5.9,24.8,6.7z"/>
<path class="st2" d="M24.8,6.7c0,1.1-0.5,2.2-1.8,2.8c-0.2,0.1-0.2,0.2-0.1,0.3c0.1,0.6,0.3,1.2,0.4,1.7c0,0.1,0,0.2,0.1,0.3
	c0,0.3-0.1,0.5-0.3,0.5c-0.2,0.1-0.5-0.1-0.5-0.3c-0.1-0.4-0.2-0.9-0.3-1.4c-0.1-0.4-0.2-0.8-0.3-1.3c-0.1-0.3,0.1-0.5,0.3-0.6
	c1.3-0.5,1.8-1.2,1.7-2.6c-0.1-0.7-0.2-1.3-0.6-1.8c-0.5-0.7-1.2-1.1-2.1-0.9c-0.1,0-0.2,0-0.3,0c-0.3,0-0.4-0.1-0.5-0.4
	c-0.1-0.6-0.3-1.2-0.4-1.8c-0.1-0.2-0.1-0.3-0.4-0.3c-4.6,1.1-9.2,2.2-13.8,3.3c-0.1,0-0.3,0.1-0.4,0.1c-0.4,0.1-0.6,0-0.7-0.3
	C4.6,3.8,4.7,3.6,5.1,3.5C5.8,3.3,6.6,3.2,7.3,3c4.2-1,8.4-2,12.5-3c0.6-0.1,0.7,0,0.8,0.5c0.1,0.6,0.3,1.1,0.4,1.7
	c0,0.2,0.1,0.3,0.3,0.3c1.6,0,2.5,0.9,3.1,2.3C24.7,5.4,24.8,5.9,24.8,6.7z"/>
<path class="st2" d="M15.4,9.7c0,0.1-0.1,0.2-0.2,0.3c-1.2,1.2-2.4,2.4-3.7,3.7c-0.2,0.2-0.5,0.2-0.7,0.1c-0.2-0.2-0.2-0.5,0-0.7
	c1.2-1.2,2.5-2.5,3.7-3.7c0.2-0.2,0.3-0.2,0.6-0.1C15.3,9.4,15.4,9.5,15.4,9.7z"/>
<path class="st2" d="M15.4,9.7c0,0.1-0.1,0.2-0.2,0.3c-1.2,1.2-2.4,2.4-3.7,3.7c-0.2,0.2-0.5,0.2-0.7,0.1c-0.2-0.2-0.2-0.5,0-0.7
	c1.2-1.2,2.5-2.5,3.7-3.7c0.2-0.2,0.3-0.2,0.6-0.1C15.3,9.4,15.4,9.5,15.4,9.7z"/>
<path class="st2" d="M15.9,13.2c0,0.6-0.6,1.2-1.2,1.2c-0.6,0-1.3-0.6-1.3-1.2c0-0.6,0.6-1.2,1.2-1.2C15.3,11.9,15.9,12.6,15.9,13.2
	z M14.7,13.5c0.2,0,0.3-0.1,0.3-0.3c0-0.2-0.1-0.3-0.3-0.3c-0.2,0-0.3,0.1-0.3,0.3C14.3,13.4,14.5,13.5,14.7,13.5z"/>
<path class="st2" d="M11.5,8.8c0.6,0,1.2,0.6,1.2,1.2c0,0.6-0.6,1.2-1.2,1.2c-0.6,0-1.2-0.6-1.2-1.2C10.3,9.4,10.9,8.8,11.5,8.8z
	 M11.8,10c0-0.2-0.1-0.3-0.3-0.3c-0.2,0-0.3,0.1-0.3,0.3c0,0.2,0.1,0.3,0.3,0.3C11.7,10.3,11.8,10.2,11.8,10z"/>
<path class="st2" d="M7.8,11.9c-0.4,0-0.9,0-1.3,0c-0.3,0-0.5-0.2-0.5-0.5C6,11.2,6.2,11,6.5,11c0.9,0,1.7,0,2.6,0
	c0.3,0,0.5,0.2,0.5,0.5c0,0.3-0.2,0.5-0.5,0.5C8.6,11.9,8.2,11.9,7.8,11.9z"/>
<path class="st2" d="M7.8,11.9c-0.4,0-0.9,0-1.3,0c-0.3,0-0.5-0.2-0.5-0.5C6,11.2,6.2,11,6.5,11c0.9,0,1.7,0,2.6,0
	c0.3,0,0.5,0.2,0.5,0.5c0,0.3-0.2,0.5-0.5,0.5C8.6,11.9,8.2,11.9,7.8,11.9z"/>
</svg>
