<svg xmlns="http://www.w3.org/2000/svg" viewBox="0 0 250 250"><title>Supercenters</title><path d="M45.26,112a1,1,0,0,0,.3-.46A10.7,10.7,0,0,1,48,108.35a8.8,8.8,0,0,1,4.29-2.06,12.44,12.44,0,0,1,5.39.13,6.87,6.87,0,0,1,5,4.43c.15.39.27.79.42,1.22.18-.1.2-.27.27-.4a10.51,10.51,0,0,1,1.91-2.79,8.68,8.68,0,0,1,4.47-2.48,13.77,13.77,0,0,1,7.42.32,7.39,7.39,0,0,1,5.2,6.1,31.21,31.21,0,0,1,.42,4.22c.15,4,.06,7.9.07,11.85,0,5.44,0,10.88,0,16.31,0,.58.07.52-.53.52h-10c-.31,0-.31,0-.32-.33,0-.12,0-.25,0-.37q0-12.2,0-24.41a20.52,20.52,0,0,0-.33-4c0-.08,0-.16-.05-.24a2.39,2.39,0,0,0-2.32-2,6,6,0,0,0-2.31.16,2.79,2.79,0,0,0-2,1.84,10.4,10.4,0,0,0-.48,2.52c-.13,1.41-.17,2.83-.17,4.25q0,11,0,22c0,.69.08.6-.62.6H53.85c-.4,0-.4,0-.4-.41q0-3.31,0-6.62,0-8.77,0-17.54c0-1.09,0-2.18-.1-3.27a9.89,9.89,0,0,0-.31-1.81,2,2,0,0,0-1.37-1.44,5,5,0,0,0-3.67.21,3,3,0,0,0-1.55,1.82,10.54,10.54,0,0,0-.49,2.39,38.19,38.19,0,0,0-.18,4.37q0,10.88,0,21.75c0,.64,0,.55-.54.55H35.54c-.55,0-.54.09-.54-.52q0-18.95,0-37.9c0-.65,0-.56.58-.56h9.28c.35,0,.36,0,.36.37,0,1.47,0,2.94,0,4.42A1.41,1.41,0,0,0,45.26,112Z" style="fill:#e4302e"/><path d="M179.31,128h-9.65c-.54,0-.51,0-.51.5,0,1.14,0,2.29,0,3.43a13.57,13.57,0,0,0,.57,3.66,4.4,4.4,0,0,0,3.4,3.2,4.9,4.9,0,0,0,5.79-2.85,10.11,10.11,0,0,0,.73-2.5,3,3,0,0,0,.05-.32c0-.19.11-.26.3-.24h9c.42,0,.43,0,.35.39a21.63,21.63,0,0,1-2,5.88,12.94,12.94,0,0,1-9.35,6.92,19.66,19.66,0,0,1-8.47-.14,13.22,13.22,0,0,1-8.08-5.64,20,20,0,0,1-3-7.7,34,34,0,0,1-.47-7.57,30.86,30.86,0,0,1,1-7.14,17.21,17.21,0,0,1,4.35-7.75,13.79,13.79,0,0,1,7.69-3.92,17.85,17.85,0,0,1,3.7-.23,14.56,14.56,0,0,1,9.91,4.31,13.58,13.58,0,0,1,3.24,5.42,28.93,28.93,0,0,1,1.25,5.73c.26,2,.32,4,.38,6,0,.56,0,.56-.55.56Zm-5.1-6.26h4.66c.39,0,.38,0,.42-.38a14,14,0,0,0,0-2.24,9.82,9.82,0,0,0-.62-2.94,4.56,4.56,0,0,0-2.1-2.51,4.9,4.9,0,0,0-2.45-.52,4.06,4.06,0,0,0-3.45,1.86,6.58,6.58,0,0,0-.8,1.69,16.47,16.47,0,0,0-.64,4.72s0,.08,0,.12a.19.19,0,0,0,.2.2h4.82Z" style="fill:#e4302e"/><path d="M108.75,128H99.1c-.55,0-.51,0-.51.51,0,1.1,0,2.21,0,3.31a14.16,14.16,0,0,0,.57,3.74,4.4,4.4,0,0,0,3.41,3.24,4.89,4.89,0,0,0,5.77-2.82,10.2,10.2,0,0,0,.75-2.58c.1-.61,0-.52.59-.52h8.71c.47,0,.47,0,.38.47a20.33,20.33,0,0,1-2.68,6.93,12.58,12.58,0,0,1-7.61,5.54,19.19,19.19,0,0,1-10.13-.05,13,13,0,0,1-7.06-4.88,19,19,0,0,1-3.29-7.5,29.57,29.57,0,0,1-.6-4.49,39.29,39.29,0,0,1,.11-6,25.13,25.13,0,0,1,1.8-7.64,15.57,15.57,0,0,1,5.25-6.7,13.75,13.75,0,0,1,5.85-2.39,17.39,17.39,0,0,1,3.7-.23,14.38,14.38,0,0,1,11.18,5.73,14.05,14.05,0,0,1,2.18,4.5,28.4,28.4,0,0,1,1,4.42,53.5,53.5,0,0,1,.48,6.8c0,.1,0,.19,0,.29s-.08.28-.27.27h-9.93Zm-5.1-6.26h4.54c.52,0,.53,0,.57-.53a14.44,14.44,0,0,0-.06-2.2,9.66,9.66,0,0,0-.59-2.78,4.61,4.61,0,0,0-2-2.5,5,5,0,0,0-3-.55,3.92,3.92,0,0,0-2.64,1.39,6.09,6.09,0,0,0-1.12,2.11,16.41,16.41,0,0,0-.65,4.72c0,.31,0,.33.32.34h4.7Z" style="fill:#e4302e"/><path d="M152.8,127.78c0,6,0,11.91,0,17.86a52.34,52.34,0,0,1-.32,5.83,13.27,13.27,0,0,1-.67,3.23,7.63,7.63,0,0,1-3.55,4.07,10.22,10.22,0,0,1-4.09,1.19,23.48,23.48,0,0,1-4.85-.15c-.66-.08-1.32-.17-2-.26-.33,0-.34-.05-.34-.38,0-.71,0-1.42,0-2.13q0-2.94,0-5.89c0-.08,0-.16,0-.25,0-.32,0-.32.32-.28a7.62,7.62,0,0,0,2.44,0,3.12,3.12,0,0,0,1-.39,1.92,1.92,0,0,0,.84-1.12,8.5,8.5,0,0,0,.33-1.89c.06-.8.1-1.6.1-2.41q0-15,0-30,0-3.74,0-7.48c0-.1,0-.19,0-.29s.06-.28.26-.27h10c.52,0,.51-.06.51.51q0,10.26,0,20.52Z" style="fill:#e4302e"/><path d="M204.08,116a.92.92,0,0,0,.2-.48,20.94,20.94,0,0,1,2-4.83,9.39,9.39,0,0,1,3.13-3.39,6.87,6.87,0,0,1,3.48-1,9.57,9.57,0,0,1,1.67.08c.47.07.48.06.48.56q0,3.7,0,7.4c0,.8,0,1.61,0,2.41,0,.39,0,.39-.39.35a9,9,0,0,0-4.11.35A6.45,6.45,0,0,0,207,120.5a12.47,12.47,0,0,0-1.33,4,25.69,25.69,0,0,0-.34,4.39q0,8.14,0,16.27c0,.63.05.56-.54.56h-9.93c-.35,0-.35,0-.35-.37q0-3.86,0-7.73,0-15.15,0-30.29c0-.66-.09-.59.58-.59h8.46c.53,0,.5,0,.5.51q0,4.13,0,8.26A1,1,0,0,0,204.08,116Z" style="fill:#e4302e"/><path d="M135,126.24q0,9.46,0,18.92c0,.65.07.57-.56.57h-9.77c-.44,0-.49.12-.49-.48q0-19,0-38s0-.05,0-.08c0-.4,0-.41.41-.41h10.22c.14,0,.2.06.2.2s0,.27,0,.41Q135,116.8,135,126.24Z" style="fill:#e4302e"/><path d="M129.59,90a6.1,6.1,0,1,1-6.15,5.94A6.08,6.08,0,0,1,129.59,90Z" style="fill:#3f49a0"/><path d="M147.24,90a6.1,6.1,0,1,1-6.1,6.07A6.12,6.12,0,0,1,147.24,90Z" style="fill:#3f49a0"/><path d="M209.4,139.93a2.87,2.87,0,0,1-.05,5.74,2.84,2.84,0,0,1-2.86-2.89A2.87,2.87,0,0,1,209.4,139.93Zm2.27,2.87c0-.14,0-.27,0-.41a2.31,2.31,0,0,0-3.12-1.92,2.54,2.54,0,0,0-.82,4.13,2.29,2.29,0,0,0,3.37-.11A2.43,2.43,0,0,0,211.68,142.8Z" style="fill:#e4302e"/><path d="M209.92,142.93a.9.9,0,0,1,.49.79c0,.16.07.32.1.48s.1.22-.07.26-.28,0-.35-.11a1.56,1.56,0,0,1-.08-.27c0-.17-.07-.35-.12-.51a.61.61,0,0,0-.46-.46c-.51-.11-.6,0-.6.47,0,.23,0,.46,0,.69s-.09.21-.23.21-.24,0-.24-.2,0-.54,0-.82c0-.61,0-1.22,0-1.84,0-.34,0-.34.32-.39a3,3,0,0,1,1.09,0,.78.78,0,0,1,.7.64.76.76,0,0,1-.42.88A.2.2,0,0,0,209.92,142.93Zm-1.15-.81c0,.62.18.75.78.54l.08,0a.52.52,0,0,0,.3-.64.79.79,0,0,0-.91-.45c-.24,0-.25.06-.25.54Z" style="fill:#e4302e"/></svg>