<?xml version="1.0" encoding="utf-8"?>
<!-- Generator: Adobe Illustrator 21.1.0, SVG Export Plug-In . SVG Version: 6.00 Build 0)  -->
<svg version="1.1" id="Layer_1" xmlns="http://www.w3.org/2000/svg" xmlns:xlink="http://www.w3.org/1999/xlink" x="0px" y="0px"
	 viewBox="0 0 37.3 24.8" style="enable-background:new 0 0 37.3 24.8;" xml:space="preserve">
<style type="text/css">
	.st0{fill:#F9E8A0;}
	.st1{fill:none;}
	.st2{fill:#414042;}
	.st3{fill:#FF0000;}
	.st4{fill:#CE593F;}
	.st5{fill:#EF8829;}
	.st6{clip-path:url(#SVGID_2_);}
	.st7{fill:#3F2D20;}
	.st8{fill:#F8E79F;}
	.st9{clip-path:url(#SVGID_4_);}
	.st10{clip-path:url(#SVGID_6_);}
	.st11{fill:#F7B239;}
	.st12{fill:#E09B2D;}
	.st13{fill:#9AD14B;}
	.st14{fill:#F95428;}
	.st15{fill:#E54728;}
	.st16{fill:#B27214;}
	.st17{fill:#F4DE3B;}
	.st18{fill:#90BC42;}
	.st19{fill:#FFFFFF;}
	.st20{clip-path:url(#SVGID_8_);fill:#FFFFFF;}
	.st21{clip-path:url(#SVGID_8_);fill:#333333;}
	.st22{fill:#CC722E;}
	.st23{fill:#B25719;}
	.st24{fill:#FFA91F;}
	.st25{fill:#8C5549;}
	.st26{opacity:0.15;}
	.st27{fill:#202020;}
	.st28{fill:#A4A4A5;}
	.st29{fill:#DCE0E2;}
	.st30{fill:#354251;}
	.st31{fill:#9DB6CA;}
	.st32{fill:#9ACFDF;}
	.st33{clip-path:url(#SVGID_10_);}
	.st34{clip-path:url(#SVGID_12_);}
	.st35{clip-path:url(#SVGID_14_);}
	.st36{fill:#FF7424;}
	.st37{fill:#FF4C1C;}
	.st38{fill:#DDA558;}
	.st39{fill:#D4F8F5;}
	.st40{opacity:0.1;fill:#54858D;enable-background:new    ;}
	.st41{fill:#FFD755;}
	.st42{fill:#FFF6C4;}
	.st43{fill:#6DA8D6;}
	.st44{fill:#FFDA44;}
	.st45{fill:#3FC378;}
	.st46{fill:#C9EEAE;}
	.st47{fill:#E21220;}
	.st48{fill:#FF505D;}
	.st49{fill:#FF7C80;}
	.st50{fill:#93298D;}
	.st51{fill:#FFF5CC;}
	.st52{fill:#0DD9DD;}
	.st53{fill:#02A6AA;}
	.st54{fill:#FDD44B;}
	.st55{fill:#84BD93;}
	.st56{clip-path:url(#SVGID_16_);fill:#EF8829;}
	.st57{clip-path:url(#SVGID_16_);fill:#3F2D20;}
	.st58{fill:none;stroke:#414042;stroke-width:0.75;stroke-miterlimit:10;}
	.st59{fill:#F6F6F6;}
	.st60{fill:#FF1D25;}
	.st61{fill:#FBB03B;}
	.st62{fill:#C7B299;}
	.st63{fill:#D2C1AD;}
	.st64{fill:#998675;}
	.st65{fill:#FF4A51;}
	.st66{fill:#B20209;}
	.st67{fill:#F0C891;}
	.st68{fill:none;stroke:#464646;stroke-width:16;stroke-linecap:round;stroke-linejoin:round;stroke-miterlimit:10;}
	.st69{clip-path:url(#SVGID_18_);}
	.st70{clip-path:url(#SVGID_20_);}
	.st71{clip-path:url(#SVGID_22_);}
	.st72{clip-path:url(#SVGID_24_);}
	.st73{clip-path:url(#SVGID_26_);}
	.st74{clip-path:url(#SVGID_28_);}
</style>
<g>
	<g>
		<path class="st0" d="M2.7,0.4v21.7h31.7V0.4H2.7z M9.3,8.4C8.6,8.4,8,7.8,8,7.1c0-0.7,0.6-1.3,1.3-1.3c0.7,0,1.3,0.6,1.3,1.3
			C10.6,7.8,10,8.4,9.3,8.4z M27.8,8.4c-0.7,0-1.3-0.6-1.3-1.3c0-0.7,0.6-1.3,1.3-1.3c0.7,0,1.3,0.6,1.3,1.3
			C29.1,7.8,28.5,8.4,27.8,8.4z"/>
		<circle class="st1" cx="27.8" cy="7.1" r="1.3"/>
	</g>
	<g>
		<path class="st0" d="M27.7,9.6c-0.1,0-0.3,0-0.4,0.1l-1.6,1.1c-0.1,0.1-0.3,0.1-0.5,0.1h-2c-0.2,0-0.4,0.2-0.4,0.4
			c0,0.2,0.2,0.4,0.4,0.4h2.5c0.1,0,0.1,0,0.2-0.1l1.2-0.8v4.2h-2.5c-0.6,0-1.1,0.5-1.1,1.1v4.6h-1c-0.2,0-0.4,0.2-0.4,0.4v0
			c0,0.2,0.2,0.4,0.4,0.4h2.2c0.2,0,0.4-0.2,0.4-0.4l0-4.5h3.1c0.6,0,1.1-0.5,1.1-1.1v-5.2c0-0.5-0.4-1-1-1H27.7z"/>
		<path class="st0" d="M29.2,21.3l0-2.6h1.7c0.2,0,0.4-0.2,0.4-0.4v-7.8c0-0.3-0.2-0.5-0.5-0.5c-0.3,0-0.5,0.2-0.5,0.5v7.3h-3.8
			c-0.2,0-0.4,0.2-0.4,0.4v0.1c0,0.2,0.2,0.4,0.4,0.4h1.7v2.7H27c-0.1,0-0.1,0-0.1,0.1c0,0.1,0,0.1,0.1,0.1h3.6c0.1,0,0.1,0,0.1-0.1
			v0c0-0.1,0-0.1-0.1-0.1H29.2z"/>
		<path class="st2" d="M27,22.1c-0.3,0-0.6-0.3-0.6-0.6c0-0.3,0.3-0.6,0.6-0.6h0.8v-1.6h-1.2c-0.5,0-0.9-0.4-0.9-0.9v-0.1
			c0-0.5,0.4-0.9,0.9-0.9h3.3v-6.8c0-0.5,0.4-1,1-1c0.5,0,1,0.4,1,1v7.8c0,0.5-0.4,0.9-0.9,0.9h-1.2l0,1.6h0.8
			c0.3,0,0.6,0.3,0.6,0.6v0c0,0.3-0.3,0.6-0.6,0.6H27 M29.2,21.3l0-2.6h1.7c0.2,0,0.4-0.2,0.4-0.4v-7.8c0-0.3-0.2-0.5-0.5-0.5
			c-0.3,0-0.5,0.2-0.5,0.5v7.3h-3.8c-0.2,0-0.4,0.2-0.4,0.4v0.1c0,0.2,0.2,0.4,0.4,0.4h1.7v2.7H27c-0.1,0-0.1,0-0.1,0.1
			c0,0.1,0,0.1,0.1,0.1h3.6c0.1,0,0.1,0,0.1-0.1v0c0-0.1,0-0.1-0.1-0.1H29.2z"/>
		<path class="st2" d="M22.5,22.1c-0.5,0-0.9-0.4-0.9-0.9v0c0-0.5,0.4-0.9,0.9-0.9H23v-4.1c0-0.9,0.7-1.6,1.6-1.6h1.9v-2.7l-0.4,0.3
			c-0.1,0.1-0.3,0.1-0.5,0.1h-2.5c-0.5,0-0.9-0.4-0.9-0.9s0.4-0.9,0.9-0.9h2c0.1,0,0.1,0,0.2-0.1L27,9.3C27.2,9.1,27.4,9,27.7,9h0.7
			c0.8,0,1.5,0.7,1.5,1.5v5.2c0,0.9-0.7,1.6-1.6,1.6h-2.6l0,4c0,0.5-0.4,0.9-0.9,0.9H22.5 M27.7,9.6c-0.1,0-0.3,0-0.4,0.1l-1.6,1.1
			c-0.1,0.1-0.3,0.1-0.5,0.1h-2c-0.2,0-0.4,0.2-0.4,0.4c0,0.2,0.2,0.4,0.4,0.4h2.5c0.1,0,0.1,0,0.2-0.1l1.2-0.8v4.2h-2.5
			c-0.6,0-1.1,0.5-1.1,1.1v4.6h-1c-0.2,0-0.4,0.2-0.4,0.4v0c0,0.2,0.2,0.4,0.4,0.4h2.2c0.2,0,0.4-0.2,0.4-0.4l0-4.5h3.1
			c0.6,0,1.1-0.5,1.1-1.1v-5.2c0-0.5-0.4-1-1-1H27.7z"/>
		<path class="st2" d="M27.8,8.9c-1,0-1.7-0.8-1.7-1.7s0.8-1.7,1.7-1.7c1,0,1.7,0.8,1.7,1.7S28.8,8.9,27.8,8.9 M27.8,5.8
			c-0.7,0-1.3,0.6-1.3,1.3s0.6,1.3,1.3,1.3c0.7,0,1.3-0.6,1.3-1.3S28.5,5.8,27.8,5.8"/>
	</g>
	<path class="st3" d="M18.7,4.2h-0.1c-0.9,0-1.6-0.7-1.6-1.6v0h3.3v0C20.3,3.5,19.6,4.2,18.7,4.2z"/>
	<polygon class="st3" points="35.9,22.1 1.2,22.1 1.2,24.3 2.7,24.3 35,24.3 35.9,24.3 	"/>
	<rect x="2.2" y="0.5" class="st2" width="1" height="21.8"/>
	<rect x="34" y="0.7" class="st2" width="1" height="21.6"/>
	<path class="st2" d="M36.5,24.8H0.8v-3h35.7V24.8z M1.9,23.8h33.6v-1H1.9V23.8z"/>
	<g>
		<path class="st2" d="M18.6,4.7c-1.1,0-2.1-0.9-2.1-2.1V2.4h4.1v0.3C20.7,3.8,19.8,4.7,18.6,4.7z M17.1,2.9
			c0.1,0.7,0.8,1.3,1.5,1.3c0.8,0,1.4-0.6,1.5-1.3H17.1z"/>
		<rect x="18.4" y="0.7" class="st2" width="0.5" height="1.9"/>
	</g>
	<path class="st2" d="M37.3,0H0c0,0,0,0.7,0,1h37.3C37.3,0.7,37.3,0,37.3,0z"/>
	<path class="st0" d="M8.8,9.6c-0.5,0-1,0.4-1,1v5.2c0,0.6,0.5,1.1,1.1,1.1H12l0,4.5c0,0.2,0.2,0.4,0.4,0.4h2.2
		c0.2,0,0.4-0.2,0.4-0.4v0c0-0.2-0.2-0.4-0.4-0.4h-1v-4.6c0-0.6-0.5-1.1-1.1-1.1h-2.5v-4.2l1.2,0.8c0.1,0,0.1,0.1,0.2,0.1h2.5
		c0.2,0,0.4-0.2,0.4-0.4c0-0.2-0.2-0.4-0.4-0.4h-2c-0.2,0-0.3-0.1-0.5-0.1L9.9,9.7C9.7,9.6,9.6,9.6,9.5,9.6H8.8z"/>
	<path class="st0" d="M6.6,21.3C6.5,21.3,6.5,21.4,6.6,21.3l-0.1,0.1c0,0.1,0,0.1,0.1,0.1h3.6c0.1,0,0.1,0,0.1-0.1
		c0-0.1,0-0.1-0.1-0.1H8.8v-2.7h1.7c0.2,0,0.4-0.2,0.4-0.4v-0.1c0-0.2-0.2-0.4-0.4-0.4H6.8v-7.3c0-0.3-0.2-0.5-0.5-0.5
		c-0.3,0-0.5,0.2-0.5,0.5v7.8c0,0.2,0.2,0.4,0.4,0.4h1.7l0,2.6H6.6z"/>
	<path class="st2" d="M10.2,22.1H6.6c-0.3,0-0.6-0.3-0.6-0.6v0c0-0.3,0.3-0.6,0.6-0.6h0.8l0-1.6H6.2c-0.5,0-0.9-0.4-0.9-0.9v-7.8
		c0-0.5,0.4-1,1-1c0.5,0,1,0.4,1,1v6.8h3.3c0.5,0,0.9,0.4,0.9,0.9v0.1c0,0.5-0.4,0.9-0.9,0.9H9.3v1.6h0.8c0.3,0,0.6,0.3,0.6,0.6
		C10.8,21.8,10.5,22.1,10.2,22.1 M6.6,21.3C6.5,21.3,6.5,21.4,6.6,21.3l-0.1,0.1c0,0.1,0,0.1,0.1,0.1h3.6c0.1,0,0.1,0,0.1-0.1
		c0-0.1,0-0.1-0.1-0.1H8.8v-2.7h1.7c0.2,0,0.4-0.2,0.4-0.4v-0.1c0-0.2-0.2-0.4-0.4-0.4H6.8v-7.3c0-0.3-0.2-0.5-0.5-0.5
		c-0.3,0-0.5,0.2-0.5,0.5v7.8c0,0.2,0.2,0.4,0.4,0.4h1.7l0,2.6H6.6z"/>
	<path class="st2" d="M14.6,22.1h-2.2c-0.5,0-0.9-0.4-0.9-0.9l0-4H8.9c-0.9,0-1.6-0.7-1.6-1.6v-5.2C7.3,9.7,8,9,8.8,9h0.7
		c0.2,0,0.5,0.1,0.7,0.2l1.6,1.1c0.1,0,0.1,0.1,0.2,0.1h2c0.5,0,0.9,0.4,0.9,0.9s-0.4,0.9-0.9,0.9h-2.5c-0.2,0-0.3,0-0.5-0.1
		l-0.4-0.3v2.7h1.9c0.9,0,1.6,0.7,1.6,1.6v4.1h0.5c0.5,0,0.9,0.4,0.9,0.9v0C15.6,21.7,15.2,22.1,14.6,22.1 M8.8,9.6
		c-0.5,0-1,0.4-1,1v5.2c0,0.6,0.5,1.1,1.1,1.1H12l0,4.5c0,0.2,0.2,0.4,0.4,0.4h2.2c0.2,0,0.4-0.2,0.4-0.4v0c0-0.2-0.2-0.4-0.4-0.4
		h-1v-4.6c0-0.6-0.5-1.1-1.1-1.1h-2.5v-4.2l1.2,0.8c0.1,0,0.1,0.1,0.2,0.1h2.5c0.2,0,0.4-0.2,0.4-0.4c0-0.2-0.2-0.4-0.4-0.4h-2
		c-0.2,0-0.3-0.1-0.5-0.1L9.9,9.7C9.7,9.6,9.6,9.6,9.5,9.6H8.8z"/>
	<path class="st2" d="M9.3,8.9c-1,0-1.7-0.8-1.7-1.7s0.8-1.7,1.7-1.7c1,0,1.7,0.8,1.7,1.7S10.3,8.9,9.3,8.9 M9.3,5.8
		C8.6,5.8,8,6.4,8,7.1s0.6,1.3,1.3,1.3c0.7,0,1.3-0.6,1.3-1.3S10,5.8,9.3,5.8"/>
	<g>
		<rect x="13" y="12.4" class="st0" width="11.1" height="1.3"/>
		<rect x="17.9" y="19.8" class="st3" width="1.3" height="1.9"/>
		<g>
			<path class="st2" d="M16.6,22.1c-0.2,0-0.3-0.1-0.3-0.3c0-0.2,0.1-0.3,0.3-0.3h0.8l0-0.8c0-0.5,0.3-0.9,0.7-1l0-5.4l-5,0
				c-0.4,0-0.7-0.3-0.7-0.7V13l-0.5,0c-0.2,0-0.3-0.1-0.3-0.3c0-0.2,0.1-0.3,0.3-0.3h5.3c0.1-0.1,0.1-0.1,0.1-0.2
				c0.1-0.1,0.1-0.1,0.2-0.1h0.4l0-0.5c0-0.5-0.4-0.8-0.8-0.8c-0.2,0-0.3-0.1-0.3-0.3c0-0.2,0.1-0.3,0.3-0.3c0.3,0,0.5,0.1,0.8,0.2
				l0.1-0.4c-0.5-0.2-0.8-0.6-0.8-1.1c0-0.6,0.5-1.1,1.1-1.1c0.6,0,1.1,0.5,1.1,1.1c0,0.5-0.3,0.9-0.7,1l0,1c0.2,0,0.3,0,0.5,0
				c0.2,0,0.3,0.1,0.3,0.3c0,0.2-0.1,0.3-0.3,0.3c-0.2,0-0.5,0.2-0.5,0.5l0.5,0.1c0.1,0,0.2,0,0.2,0.1c0,0,0.1,0.1,0.1,0.1l3.9,0
				l0.1,0v0l1.4,0c0.2,0,0.3,0.1,0.3,0.3c0,0.2-0.1,0.3-0.3,0.3h-0.4l0,0.5c0,0.4-0.3,0.7-0.7,0.7l-4.9,0l0,5.4
				c0.5,0.2,0.8,0.6,0.8,1.1v0.8l0.8,0c0.2,0,0.3,0.1,0.3,0.3c0,0.2-0.1,0.3-0.3,0.3H16.6z M18.6,20.1c-0.2,0-0.5,0.2-0.5,0.5v0.8
				l0.9,0l0-0.8C19,20.4,18.8,20.1,18.6,20.1z M13.2,13v0.5l0.1,0h10.7l0-0.1V13H13.2L13.2,13z M18.6,8.5c-0.2,0-0.5,0.2-0.5,0.5
				c0,0.2,0.2,0.5,0.5,0.5c0.2,0,0.5-0.2,0.5-0.5C19,8.7,18.8,8.5,18.6,8.5z"/>
		</g>
	</g>
</g>
</svg>
