<svg xmlns="http://www.w3.org/2000/svg" viewBox="0 0 250 250"><defs><style>.a{fill:#fff;}.b{fill:#939393;}</style></defs><title>Fine Dining</title><path class="a" d="M34.26,115.06l.26.06c.11.4.23.81.33,1.21,1,3.82,2,7.65,3,11.48a.88.88,0,0,0,1,.8c3.36,0,6.72,0,10.09.06a5.54,5.54,0,0,0,.8-.13L42,101.72,31.69,116.45,21.32,101.71c-.13.35-.23.58-.3.81l-2.51,7.92q-2.69,8.45-5.36,16.91c-.11.34-.12.9.08,1.08a1.23,1.23,0,0,0,1.11.14,1.52,1.52,0,0,0,.62-.94c1-3.69,2-7.4,2.93-11.1.08-.3.2-.59.37-1.08l8.06,11Zm156.44.81-.34.25L166.74,103c0,.68,0,1.3,0,1.91q-.17,10.27-.34,20.54c0,1.12-.08,2.24-.12,3.36a.75.75,0,0,0,.84.88c.59,0,.84-.33.85-.88,0-.25,0-.5,0-.75q-.05-5-.1-10a7.31,7.31,0,0,1,.1-.84c8.12,4.07,15.9,8.53,23.81,13.21,0-.58,0-.94,0-1.29q.2-11.34.39-22.68a13.77,13.77,0,0,0,0-2.14,1.06,1.06,0,0,0-.75-.7c-.28,0-.67.33-.85.62s0,.6,0,.92q.08,4.85.16,9.71C190.7,115.22,190.69,115.55,190.69,115.88Zm-92.65,9,.07-.23c.83-.2,1.67-.36,2.5-.59,4.4-1.23,7.15-4.28,7.62-8.56s-.63-7.78-4.37-10.19a12.35,12.35,0,0,0-6.34-2c-4.85-.15-9.7-.14-14.55-.25-.86,0-1,.25-1,1q0,11.85-.16,23.7c0,.81.15,1.08,1,1.08,3.24,0,6.47,0,9.71,0,.24,0,.48,0,.84-.08V123c.4.28.62.42.83.58a36.84,36.84,0,0,0,9.25,5.36,8.77,8.77,0,0,0,2.53.52c.32,0,.66-.49,1-.75-.27-.23-.51-.56-.83-.67-1.53-.52-3.11-.9-4.61-1.47C100.3,126.11,99.19,125.45,98,124.89Zm122.65,5.72.05.25a41.49,41.49,0,0,0,5.41-1.26c3-1.1,4.91-3.17,5-6.52a8,8,0,0,0-1.71-5.14c-1.37-1.8-2.91-3.48-4.41-5.18s-3-3.25-4.41-4.94c-.57-.67-1.16-1.5-.64-2.46s1.47-1,2.38-.95a8.24,8.24,0,0,1,5.4,2,3.67,3.67,0,0,0,.9.65.84.84,0,0,0,.72-.15.67.67,0,0,0,0-.65,5.15,5.15,0,0,0-1.18-1,14.28,14.28,0,0,0-12.76-1,7,7,0,0,0-4.91,7,8.74,8.74,0,0,0,2.17,5.36c1.92,2.37,4,4.63,5.94,6.95a29.19,29.19,0,0,1,2.37,3,1.63,1.63,0,0,1-1.25,2.73,6.45,6.45,0,0,1-3.27-.37,45.65,45.65,0,0,1-4.84-2.94c-.5-.32-1-1-1.59-.34s.22,1.12.66,1.49A14.28,14.28,0,0,0,220.69,130.61Zm-71.52-27.87c-7.79.37-13.77,6.63-13.45,14.08a13.78,13.78,0,1,0,13.45-14.08ZM51,116a13.77,13.77,0,1,0,13.56-13.88C56.84,102.4,50.72,108.67,51,116Zm76.68,13.16c0-.57,0-1,0-1.37q.09-11.15.16-22.31c0-.69.18-.91.91-.85,1.77.14,3.54.19,5.31.27.55,0,1.14,0,1.14-.73s-.63-.71-1.15-.71L110,103.34c-.51,0-1.09,0-1.11.66s.56.79,1.12.77c1.71,0,3.42-.06,5.13-.19.95-.07,1.21.21,1.2,1.17-.09,7.34-.13,14.69-.17,22,0,1.33,0,1.33,1.28,1.34l9.15.07ZM206,110.09a4.17,4.17,0,0,1-2.82,3.46,35.62,35.62,0,0,1-4.29.66c-.25,0-.47.31-.7.48.21.17.41.47.63.47a11.25,11.25,0,0,0,5.11-.84,5.83,5.83,0,0,0,1.59-9.84,7.43,7.43,0,0,0-7.91-.48,3.9,3.9,0,0,0-1.84,4.08,4.3,4.3,0,0,0,3.93,3.54A7.25,7.25,0,0,0,206,110.09Zm-56.68,38.07a4.22,4.22,0,0,0,4.35-4.46c0-2.74-1.77-4.57-4.36-4.56s-4.23,1.85-4.22,4.56A4.12,4.12,0,0,0,149.35,148.16Zm-11.12-.42c0-.9,0-1.77,0-2.64,0-.71.24-.9.92-.9,2.22,0,2.22,0,2.21,2.2,0,1.59.07,1.67,1.62,1.44a.79.79,0,0,0,.53-.54q.08-3.69.06-7.38a.75.75,0,0,0-.42-.56c-1.34-.35-1.74,0-1.74,1.33a3.11,3.11,0,0,1,0,1c-.1.27-.4.62-.65.65-2.43.27-2.43.25-2.44-2.14a.57.57,0,0,1,0-.09c.13-.78-.33-.88-.94-.84s-1.27-.2-1.24.85c0,2,0,3.92,0,5.88S136.05,148,138.24,147.74Zm-56-.32c0-.33,0-.63,0-.93,0-2.11,0-4.23,0-6.34,0-1.25,0-1.17-1.18-1.25s-.9.8-.92,1.43c0,1.81.16,1.65-1.67,1.64-1.54,0-1.54,0-1.52-1.5,0-.28,0-.56,0-.84.08-1-.7-.69-1.22-.75s-.92,0-.91.76c0,2.33,0,4.66,0,7a5.89,5.89,0,0,0,.07.69c2,.23,2,.23,2-1.32,0-2.3,0-2.28,2.37-2.22.6,0,.83.21.81.82,0,.92,0,1.84,0,2.8Zm81.24-.93a5.12,5.12,0,0,0,5.88,1.41,2.75,2.75,0,0,0,1.8-2.86c-.1-1.12-.75-1.74-2.19-2-.73-.15-1.48-.22-2.2-.42-.28-.08-.69-.43-.67-.63s.36-.78.58-.79a4.41,4.41,0,0,1,2,.25c1.21.54,1.39.57,2.33-.5a4.86,4.86,0,0,0-5.52-1.24,2.51,2.51,0,0,0-1.55,2.35c0,1.38.71,2.14,2.48,2.5.64.13,1.3.16,1.92.34.28.08.68.43.67.64a1.2,1.2,0,0,1-.59.83,2.23,2.23,0,0,1-2.48-.23C164.91,145.26,164.29,145.84,163.52,146.5ZM95,146c1.3,2.19,5.2,2.16,6.57,1.11a2.7,2.7,0,0,0,1.09-2.79,2.19,2.19,0,0,0-2-1.72c-.73-.16-1.49-.2-2.19-.42-.34-.11-.58-.52-.87-.79.3-.27.64-.79.9-.76a15.56,15.56,0,0,1,2.17.63,1.42,1.42,0,0,0,.86,0,5.78,5.78,0,0,0,1-.73,4.83,4.83,0,0,0-5.33-1.41,2.59,2.59,0,0,0-1.82,2.63,2.25,2.25,0,0,0,2,2.17c.78.19,1.6.26,2.37.47.3.09.77.48.74.66a1.32,1.32,0,0,1-.69.85,2.73,2.73,0,0,1-2.8-.51c-.4-.3-.67-.34-1.06,0S95.34,145.76,95,146Zm32.26,1.68c2,.33,2,.32,2-1.42,0-1.08.62-1.59,1.39-2.2l1.54,2.62a2.08,2.08,0,0,0,3,1c-.84-1.42-1.64-2.86-2.55-4.23a1.11,1.11,0,0,1,.18-1.72c.76-.68,1.44-1.46,2.23-2.28-1.57-.26-2.8-.2-3.7,1.14a18.9,18.9,0,0,1-2,2.14c0-1.07,0-1.86,0-2.65s-.36-.81-.91-.78-1.15-.21-1.13.74c0,1.86,0,3.73,0,5.59C127.25,146.27,127.26,147,127.26,147.66Zm-36.18-.19c.29-1.55.25-1.61-1.21-1.61-.81,0-1.62,0-2.42,0s-.8-.45-.79-1-.06-1.15.84-1.07c.65.06,1.3,0,2,0s1.17.15,1.17-.83-.56-.79-1.11-.79c-.71,0-1.43,0-2.14,0s-.67-.34-.68-.83.12-.75.67-.73c.9,0,1.8,0,2.7,0,.58,0,.85-.13.84-.77s-.09-.93-.8-.91q-2.38.05-4.75,0c-.69,0-.83.26-.83.88,0,2.33,0,4.66,0,7a5.23,5.23,0,0,0,.08.66Zm19.75-4.06h-.05c0,1.18,0,2.36,0,3.55,0,.53.18.72.7.72,1.77,0,3.55,0,5.32,0,.73,0,.67-.42.71-.9s-.14-.8-.72-.78c-1,0-2-.05-3,0-.77,0-.87-.33-.84-1s-.06-1.21.89-1.11c.74.07,1.49,0,2.24,0s.81-.17.83-.79-.21-.89-.86-.85-1.56,0-2.33,0c-.58,0-.75-.23-.75-.78s.14-.81.74-.79c.9,0,1.81,0,2.71,0,.64,0,.78-.25.78-.84s-.11-.86-.76-.85q-2.43,0-4.85,0c-.64,0-.79.25-.77.83C110.86,141.11,110.83,142.26,110.83,143.41Zm62.21.37H173c0,1.18,0,2.36,0,3.54,0,.55.16.78.74.78,1.74,0,3.48,0,5.22,0,.65,0,.79-.27.78-.84s-.14-.87-.79-.84c-1,0-1.93-.05-2.89,0s-.94-.36-.95-1.06.2-1.08,1-1,1.43,0,2.14,0,.8-.28.83-.88-.32-.77-.86-.76c-.78,0-1.55,0-2.33,0-.59,0-.74-.26-.74-.79s.17-.8.75-.78c.93,0,1.87,0,2.8,0,.65,0,.67-.36.67-.84s0-.85-.65-.84c-1.65,0-3.29,0-4.94,0-.52,0-.73.17-.72.7C173.06,141.42,173,142.6,173,143.78Zm-15.88-4.29c-.39,0-.73,0-1.06-.07-.83-.12-1.16.16-1.11,1.06.07,1.43,0,2.86,0,4.29a3.19,3.19,0,0,0,3.38,3.41c2.21.1,3.75-1.1,3.87-3.12.09-1.58,0-3.17.11-4.76,0-.79-.34-.88-.94-.84s-1.29-.22-1.25.84c.05,1.43,0,2.86,0,4.29s-.46,1.82-1.47,1.82-1.51-.48-1.51-1.83C157.16,142.91,157.16,141.24,157.16,139.49Zm-31,8.26a1.35,1.35,0,0,0,0-.34c-.92-2.58-1.83-5.15-2.77-7.72-.33-.9-1.13-.43-1.71-.47a1.12,1.12,0,0,0-.88.53c-.59,1.37-1.1,2.77-1.62,4.17-.46,1.21-.9,2.42-1.41,3.79.57,0,1,0,1.36,0,.64.06,1-.1,1.22-.81.06-.24.49-.5.79-.54.55-.08,1.12,0,1.68,0s.91.15,1,.72.47.73,1,.69S125.71,147.75,126.17,147.75Zm-18.71-.13a1.51,1.51,0,0,0,.13-.36c0-1.68,0-3.35.06-5s-.07-1.47,1.4-1.4c.68,0,.83-.25.85-.87s-.21-.87-.86-.86c-1.58,0-3.17,0-4.75,0-1,0-1.11.14-1,1.13s.77.57,1.21.56c.75,0,1,.19,1,1-.07,1.58,0,3.17-.07,4.75-.05.93.28,1.22,1.15,1.11A6.51,6.51,0,0,1,107.46,147.62ZM69.62,144h0c0,.87.06,1.75,0,2.61s.51.8,1.07.81,1.09.06,1.06-.83c0-1.68,0-3.36,0-5,0-.71.2-1.06,1-.95.18,0,.37,0,.56,0,.74.09.77-.37.8-.92s-.2-.82-.8-.81c-1.68,0-3.36,0-5,0-.57,0-.83.12-.84.77s.14,1,.92,1c1.35-.05,1.35,0,1.34,1.36C69.62,142.6,69.62,143.28,69.62,144Zm165.06-36.66a2.25,2.25,0,0,0,2.25-2.24,2.27,2.27,0,0,0-4.53,0A2.26,2.26,0,0,0,234.69,107.31Z"/><path d="M34.26,115.06l-7.95,11.42-8.06-11c-.17.48-.29.77-.37,1.08-1,3.7-1.94,7.4-2.93,11.1a1.52,1.52,0,0,1-.62.94,1.23,1.23,0,0,1-1.11-.14c-.2-.19-.18-.75-.08-1.08q2.65-8.46,5.36-16.91L21,102.52c.07-.23.17-.46.3-.81l10.37,14.74L42,101.72l7.7,26.82a5.54,5.54,0,0,1-.8.13c-3.36,0-6.72-.06-10.09-.06a.88.88,0,0,1-1-.8c-1-3.83-2-7.65-3-11.48-.11-.4-.22-.81-.33-1.21Z"/><path d="M190.69,115.88c0-.33,0-.66,0-1q-.08-4.85-.16-9.71c0-.31-.1-.69,0-.92s.57-.64.85-.62a1.06,1.06,0,0,1,.75.7,13.77,13.77,0,0,1,0,2.14q-.2,11.34-.39,22.68c0,.36,0,.72,0,1.29-7.92-4.68-15.69-9.14-23.81-13.21a7.31,7.31,0,0,0-.1.84q0,5,.1,10c0,.25,0,.5,0,.75,0,.55-.26.88-.85.88a.75.75,0,0,1-.84-.88c0-1.12.1-2.24.12-3.36q.18-10.27.34-20.54c0-.61,0-1.23,0-1.91l23.61,13.11Z"/><path d="M98,124.89c1.15.57,2.26,1.22,3.46,1.67,1.51.57,3.08,1,4.61,1.47.32.11.55.44.83.67-.33.27-.68.77-1,.75a8.77,8.77,0,0,1-2.53-.52,36.84,36.84,0,0,1-9.25-5.36c-.21-.16-.43-.3-.83-.58v5.89c-.36,0-.6.08-.84.08-3.24,0-6.47-.07-9.71,0-.85,0-1-.27-1-1.08q.13-11.85.16-23.7c0-.79.15-1.07,1-1,4.85.11,9.7.1,14.55.25a12.35,12.35,0,0,1,6.34,2c3.74,2.41,4.83,6,4.37,10.19s-3.21,7.33-7.62,8.56c-.82.23-1.66.4-2.5.59Zm-4.58-12h-.11c0,2.55,0,5.11,0,7.66a2.19,2.19,0,0,0,.56,1.27A4.32,4.32,0,0,0,99,123.28a2,2,0,0,1,.28,0c4.15-.86,6.95-3.59,7.65-7.45a8.83,8.83,0,0,0-4.44-9.83c-2.66-1.45-5.58-1.62-8.53-1.56-.18,0-.48.56-.49.86C93.44,107.79,93.46,110.35,93.46,112.9Z"/><path d="M220.69,130.61a14.28,14.28,0,0,1-10-3.53c-.44-.38-1.21-.81-.66-1.49s1.09,0,1.59.34a45.65,45.65,0,0,0,4.84,2.94,6.45,6.45,0,0,0,3.27.37,1.63,1.63,0,0,0,1.25-2.73,29.19,29.19,0,0,0-2.37-3c-2-2.32-4-4.58-5.94-6.95a8.74,8.74,0,0,1-2.17-5.36,7,7,0,0,1,4.91-7,14.28,14.28,0,0,1,12.76,1,5.15,5.15,0,0,1,1.18,1,.67.67,0,0,1,0,.65.84.84,0,0,1-.72.15,3.67,3.67,0,0,1-.9-.65,8.24,8.24,0,0,0-5.4-2c-.91,0-1.88,0-2.38.95s.07,1.79.64,2.46c1.42,1.69,3,3.28,4.41,4.94s3,3.38,4.41,5.18a8,8,0,0,1,1.71,5.14c-.11,3.36-2.06,5.43-5,6.52a41.49,41.49,0,0,1-5.41,1.26Z"/><path d="M149.17,102.74a13.71,13.71,0,1,1-13.45,14.08C135.4,109.37,141.38,103.1,149.17,102.74Zm-.87,13.62h-.15c0,3.89,0,7.78,0,11.67,0,.63.15.94.83.89s1.37,0,2.05-.08A12.48,12.48,0,0,0,149.29,104c-.79,0-1,.24-1,1C148.32,108.76,148.31,112.56,148.31,116.36Z"/><path d="M51,116c-.28-7.37,5.84-13.63,13.56-13.88A13.71,13.71,0,1,1,51,116Zm12.59-.17h-.16c0,3.8,0,7.59,0,11.39,0,.89.28,1.19,1.11,1.07a25,25,0,0,0,4-.59,12.41,12.41,0,0,0,8.57-14,12.55,12.55,0,0,0-12.55-10.38c-.78,0-1,.25-1,1C63.6,108.22,63.59,112,63.59,115.87Z"/><path d="M127.68,129.2h-1.13l-9.15-.07c-1.28,0-1.29,0-1.28-1.34,0-7.34.08-14.69.17-22,0-1-.25-1.24-1.2-1.17-1.71.12-3.42.14-5.13.19-.55,0-1.14,0-1.12-.77s.61-.67,1.11-.66l24.09.16c.52,0,1.16-.09,1.15.71s-.59.76-1.14.73c-1.77-.08-3.55-.12-5.31-.27-.73-.06-.9.16-.91.85q-.06,11.15-.16,22.31C127.68,128.24,127.68,128.64,127.68,129.2Z"/><path d="M206,110.09a7.25,7.25,0,0,1-6.31,1.53,4.3,4.3,0,0,1-3.93-3.54,3.9,3.9,0,0,1,1.84-4.08,7.43,7.43,0,0,1,7.91.48,5.83,5.83,0,0,1-1.59,9.84,11.25,11.25,0,0,1-5.11.84c-.21,0-.42-.31-.63-.47.23-.16.45-.43.7-.48a35.62,35.62,0,0,0,4.29-.66A4.17,4.17,0,0,0,206,110.09Z"/><path d="M149.35,148.16a4.12,4.12,0,0,1-4.22-4.45c0-2.71,1.69-4.56,4.22-4.56s4.33,1.82,4.36,4.56A4.22,4.22,0,0,1,149.35,148.16Zm2.25-4.49a12.19,12.19,0,0,0-.26-1.2,2,2,0,0,0-2-1.55,1.93,1.93,0,0,0-1.89,1.53,6.24,6.24,0,0,0,0,2.46,1.82,1.82,0,0,0,1.85,1.44,2,2,0,0,0,2-1.42A11.15,11.15,0,0,0,151.61,143.67Z"/><path d="M138.24,147.74c-2.18.27-2.18.27-2.16-1.71s.07-3.92,0-5.88c0-1.06.65-.81,1.24-.85s1.07.06.94.84a.57.57,0,0,0,0,.09c0,2.39,0,2.4,2.44,2.14.25,0,.55-.38.65-.65a3.11,3.11,0,0,0,0-1c0-1.36.4-1.68,1.74-1.33a.75.75,0,0,1,.42.56q0,3.69-.06,7.38a.79.79,0,0,1-.53.54c-1.55.23-1.62.15-1.62-1.44,0-2.22,0-2.2-2.21-2.2-.68,0-1,.18-.92.9C138.27,146,138.24,146.84,138.24,147.74Z"/><path d="M82.28,147.42H80.23c0-1,0-1.88,0-2.8,0-.61-.21-.8-.81-.82-2.36-.07-2.36-.09-2.37,2.22,0,1.55,0,1.55-2,1.32a5.89,5.89,0,0,1-.07-.69c0-2.33.06-4.66,0-7,0-.74.34-.84.91-.76s1.3-.29,1.22.75c0,.28,0,.56,0,.84,0,1.49,0,1.49,1.52,1.5,1.83,0,1.62.17,1.67-1.64,0-.62-.36-1.51.92-1.43s1.2,0,1.18,1.25c0,2.11,0,4.23,0,6.34C82.32,146.8,82.3,147.1,82.28,147.42Z"/><path d="M163.52,146.5c.77-.65,1.39-1.23,2.42-.38a2.23,2.23,0,0,0,2.48.23,1.2,1.2,0,0,0,.59-.83c0-.21-.39-.56-.67-.64-.62-.18-1.29-.22-1.92-.34-1.77-.36-2.52-1.12-2.48-2.5a2.51,2.51,0,0,1,1.55-2.35,4.86,4.86,0,0,1,5.52,1.24c-.93,1.07-1.12,1-2.33.5a4.41,4.41,0,0,0-2-.25c-.22,0-.56.5-.58.79s.4.55.67.63c.72.2,1.47.27,2.2.42,1.45.31,2.09.92,2.19,2a2.75,2.75,0,0,1-1.8,2.86A5.12,5.12,0,0,1,163.52,146.5Z"/><path d="M95,146c.35-.22.68-.4,1-.62s.66-.25,1.06,0a2.73,2.73,0,0,0,2.8.51,1.32,1.32,0,0,0,.69-.85c0-.18-.44-.57-.74-.66-.77-.22-1.59-.28-2.37-.47a2.25,2.25,0,0,1-2-2.17,2.59,2.59,0,0,1,1.82-2.63,4.83,4.83,0,0,1,5.33,1.41,5.78,5.78,0,0,1-1,.73,1.42,1.42,0,0,1-.86,0,15.56,15.56,0,0,0-2.17-.63c-.27,0-.6.49-.9.76.29.27.53.68.87.79.71.22,1.47.26,2.19.42a2.19,2.19,0,0,1,2,1.72,2.7,2.7,0,0,1-1.09,2.79C100.19,148.14,96.29,148.17,95,146Z"/><path d="M127.26,147.66c0-.68,0-1.39,0-2.09,0-1.86.06-3.73,0-5.59,0-1,.61-.71,1.13-.74s1,0,.91.78,0,1.58,0,2.65a18.9,18.9,0,0,0,2-2.14c.9-1.34,2.13-1.39,3.7-1.14-.79.82-1.47,1.6-2.23,2.28a1.11,1.11,0,0,0-.18,1.72c.91,1.37,1.7,2.81,2.55,4.23a2.08,2.08,0,0,1-3-1L130.63,144c-.77.61-1.42,1.12-1.39,2.2C129.29,148,129.22,148,127.26,147.66Z"/><path d="M91.08,147.47H84.57a5.23,5.23,0,0,1-.08-.66c0-2.33,0-4.66,0-7,0-.62.14-.9.83-.88q2.37.07,4.75,0c.71,0,.8.32.8.91s-.26.8-.84.77c-.9,0-1.8,0-2.7,0-.56,0-.68.24-.67.73s0,.86.68.83,1.43,0,2.14,0c.55,0,1.1-.13,1.11.79s-.58.83-1.17.83-1.31,0-2,0c-.89-.09-.83.49-.84,1.07s0,1.06.79,1,1.61,0,2.42,0C91.33,145.86,91.38,145.92,91.08,147.47Z"/><path d="M110.83,143.41c0-1.15,0-2.3,0-3.45,0-.58.13-.85.77-.83q2.43.06,4.85,0c.65,0,.76.27.76.85s-.15.86-.78.84c-.9,0-1.8,0-2.71,0-.59,0-.74.25-.74.79s.17.8.75.78c.78,0,1.56,0,2.33,0s.87.19.86.85-.23.82-.83.79-1.5,0-2.24,0c-1-.1-.86.5-.89,1.11s.06,1,.84,1c1-.06,2,0,3,0,.59,0,.77.23.72.78s0,.92-.71.9c-1.77,0-3.55,0-5.32,0-.52,0-.71-.19-.7-.72,0-1.18,0-2.36,0-3.55Z"/><path d="M173,143.78c0-1.18,0-2.36,0-3.54,0-.52.2-.71.72-.7,1.65,0,3.29,0,4.94,0,.67,0,.65.37.65.84s0,.87-.67.84c-.93,0-1.86,0-2.8,0-.58,0-.75.24-.75.78s.16.81.74.79c.78,0,1.55,0,2.33,0,.53,0,.89.07.86.76s-.12.94-.83.88-1.43,0-2.14,0-1,.25-1,1,.1,1.12.95,1.06,1.93,0,2.89,0c.65,0,.78.28.79.84s-.14.86-.78.84c-1.74,0-3.48,0-5.22,0-.58,0-.75-.22-.74-.78,0-1.18,0-2.36,0-3.54Z"/><path d="M157.16,139.49c0,1.75,0,3.42,0,5.1,0,1.35.39,1.83,1.51,1.83s1.45-.51,1.47-1.82.06-2.86,0-4.29c0-1.06.67-.8,1.25-.84s1,0,.94.84c-.09,1.58,0,3.17-.11,4.76-.11,2-1.65,3.22-3.87,3.12a3.19,3.19,0,0,1-3.38-3.41c0-1.43.07-2.87,0-4.29,0-.9.28-1.18,1.11-1.06C156.43,139.47,156.77,139.47,157.16,139.49Z"/><path d="M126.17,147.75c-.46,0-.89,0-1.32,0s-.91-.1-1-.69-.45-.75-1-.72-1.13-.06-1.68,0c-.29,0-.73.3-.79.54-.17.71-.58.87-1.22.81-.39,0-.79,0-1.36,0,.51-1.37,1-2.58,1.41-3.79.53-1.4,1-2.8,1.62-4.17a1.12,1.12,0,0,1,.88-.53c.58,0,1.38-.43,1.71.47.94,2.57,1.85,5.15,2.77,7.72A1.35,1.35,0,0,1,126.17,147.75Zm-3-3-.92-3.06-.23,0-.93,3Z"/><path d="M107.46,147.62a6.51,6.51,0,0,0-.88,0c-.87.12-1.2-.18-1.15-1.11.09-1.58,0-3.17.07-4.75,0-.81-.26-1-1-1-.44,0-1.12.34-1.21-.56s0-1.13,1-1.13c1.58,0,3.17,0,4.75,0,.65,0,.87.21.86.86s-.17.9-.85.87c-1.47-.06-1.39-.15-1.4,1.4s0,3.35-.06,5A1.51,1.51,0,0,1,107.46,147.62Z"/><path d="M69.62,144c0-.68,0-1.37,0-2.05,0-1.36,0-1.41-1.34-1.36-.78,0-.92-.27-.92-1s.27-.78.84-.77c1.68,0,3.36,0,5,0,.6,0,.84.19.8.81s-.06,1-.8.92c-.18,0-.38,0-.56,0-.76-.12-1,.24-1,.95,0,1.68-.06,3.36,0,5,0,.89-.47.85-1.06.83s-1.15.12-1.07-.81,0-1.74,0-2.61Z"/><path d="M234.69,107.31a2.26,2.26,0,0,1-2.29-2.21,2.27,2.27,0,0,1,4.53,0A2.25,2.25,0,0,1,234.69,107.31Zm0-4a1.74,1.74,0,0,0,.06,3.48,1.72,1.72,0,0,0,1.66-1.76A1.76,1.76,0,0,0,234.64,103.33Z"/><path class="a" d="M93.46,112.9c0-2.55,0-5.1,0-7.66,0-.3.31-.85.49-.86,2.94-.06,5.87.11,8.53,1.56a8.83,8.83,0,0,1,4.44,9.83c-.7,3.86-3.51,6.59-7.65,7.45a2,2,0,0,0-.28,0,4.32,4.32,0,0,1-5.08-1.45,2.19,2.19,0,0,1-.56-1.27c-.05-2.55,0-5.1,0-7.66Z"/><path class="a" d="M148.31,116.36c0-3.8,0-7.59,0-11.39,0-.77.21-1,1-1A12.48,12.48,0,0,1,151,128.84c-.68.09-1.37,0-2.05.08s-.83-.26-.83-.89c0-3.89,0-7.78,0-11.67Z"/><path class="a" d="M63.59,115.87c0-3.83,0-7.65,0-11.48,0-.76.22-1,1-1a12.55,12.55,0,0,1,12.55,10.38,12.41,12.41,0,0,1-8.57,14,25,25,0,0,1-4,.59c-.83.12-1.13-.18-1.11-1.07.05-3.8,0-7.59,0-11.39Z"/><path class="a" d="M151.61,143.67a11.15,11.15,0,0,1-.28,1.26,2,2,0,0,1-2,1.42,1.82,1.82,0,0,1-1.85-1.44,6.24,6.24,0,0,1,0-2.46,1.93,1.93,0,0,1,1.89-1.53,2,2,0,0,1,2,1.55A12.19,12.19,0,0,1,151.61,143.67Z"/><path class="a" d="M123.14,144.79h-2.08l.93-3,.23,0Z"/><path class="a" d="M234.64,103.33a1.76,1.76,0,0,1,1.72,1.72,1.69,1.69,0,1,1-3.38.05A1.74,1.74,0,0,1,234.64,103.33Zm.69,2.85h.25a16.29,16.29,0,0,0,0-1.8c0-.15-.35-.35-.57-.39a5.16,5.16,0,0,0-1,0v2.15h.21l.39-.95Z"/><path d="M235.33,106.19l-.76-1-.39.95H234V104a5.16,5.16,0,0,1,1,0c.21,0,.55.23.57.39a16.29,16.29,0,0,1,0,1.8Z"/><rect class="b" x="13.8" y="139.65" width="50.96" height="1.5"/><rect class="b" x="13.8" y="143.1" width="50.96" height="1.5"/><rect class="b" x="13.8" y="146.54" width="50.96" height="1.5"/><rect class="b" x="182.12" y="139.65" width="50.96" height="1.5"/><rect class="b" x="182.12" y="143.1" width="50.96" height="1.5"/><rect class="b" x="182.12" y="146.54" width="50.96" height="1.5"/></svg>