<svg xmlns="http://www.w3.org/2000/svg" viewBox="0 0 250 250"><title>Club</title><rect x="39.21" y="123.3" width="167.88" height="38.04" style="fill:#fe0000"/><polyline points="39.54 124.99 39.54 124.54 35 124.54 35 110.83 124.58 66.92 215 110.36 215 125 207.5 125" style="fill:#fe0000"/><rect x="39.21" y="158.75" width="167.88" height="24.33" style="fill:#000104"/><polygon points="35 115.46 125.43 79.39 215 115.46 215 110.36 124.58 66.92 35 110.83 35 115.46" style="fill:#000104"/><polygon points="162.92 79.2 181.94 79.2 181.94 121.45 203.06 121.45 203.06 134.66 162.92 134.66 162.92 79.2" style="fill:#feffff;stroke:#000;stroke-miterlimit:10;stroke-width:2px"/><polygon points="89.8 98.35 106.97 98.35 114.75 133.18 124.01 98.35 136.36 98.35 144.76 133.18 153.16 98.35 170.46 98.35 153.78 154.68 138.71 154.68 130.13 119.22 121.05 154.68 105.98 154.68 89.8 98.35" style="fill:#feffff;stroke:#000;stroke-miterlimit:10;stroke-width:2px"/><polygon points="43.23 119.22 43.23 177.16 59.53 177.16 59.53 143.06 86.09 177.16 101.9 177.16 101.9 119.22 83.5 119.22 83.87 153.69 57.8 119.22 43.23 119.22" style="fill:#feffff;stroke:#000;stroke-miterlimit:10;stroke-width:2px"/><path d="M109.88,163.53h-2.24v-1.4h6.42v1.4h-2.28v6h-1.9Z" style="fill:#feffff"/><path d="M117,162.13V165h3.11v-2.84H122v7.39h-1.88v-3.09H117v3.09h-1.9v-7.39Z" style="fill:#feffff"/><path d="M128.57,166.39H125.5v1.76h3.43v1.37H123.6v-7.39h5.16v1.37H125.5V165h3.07Z" style="fill:#feffff"/><path d="M134.62,162.13V165h3.11v-2.84h1.88v7.39h-1.88v-3.09h-3.11v3.09h-1.9v-7.39Z" style="fill:#feffff"/><path d="M148.91,165.75c0,2.42-1.66,3.89-4.1,3.89a3.65,3.65,0,0,1-3.93-3.76,3.8,3.8,0,0,1,4.07-3.87A3.65,3.65,0,0,1,148.91,165.75Zm-6,.1c0,1.45.77,2.47,2,2.47s2-1.08,2-2.51-.72-2.47-2-2.47S142.87,164.41,142.87,165.85Z" style="fill:#feffff"/><path d="M152,162.13v4.26c0,1.27.55,1.92,1.51,1.92s1.54-.61,1.54-1.92v-4.26H157v4.15c0,2.28-1.3,3.37-3.48,3.37s-3.35-1-3.35-3.39v-4.12Z" style="fill:#feffff"/><path d="M158.67,167.8a5.33,5.33,0,0,0,2.09.46c.87,0,1.33-.32,1.33-.8s-.4-.72-1.4-1c-1.39-.43-2.29-1.11-2.29-2.18,0-1.26,1.19-2.23,3.16-2.23a5.69,5.69,0,0,1,2.13.37l-.42,1.35a4.39,4.39,0,0,0-1.75-.35c-.82,0-1.22.33-1.22.71s.47.68,1.55,1c1.48.48,2.17,1.16,2.17,2.2,0,1.24-1.08,2.29-3.37,2.29a6.06,6.06,0,0,1-2.37-.45Z" style="fill:#feffff"/><path d="M170.27,166.39h-3.07v1.76h3.43v1.37H165.3v-7.39h5.16v1.37h-3.26V165h3.07Z" style="fill:#feffff"/><path d="M173.81,162.13V165h3.11v-2.84h1.88v7.39h-1.88v-3.09h-3.11v3.09h-1.9v-7.39Z" style="fill:#feffff"/><path d="M188.1,165.75c0,2.42-1.66,3.89-4.1,3.89a3.65,3.65,0,0,1-3.93-3.76,3.8,3.8,0,0,1,4.07-3.87A3.65,3.65,0,0,1,188.1,165.75Zm-6,.1c0,1.45.77,2.47,2,2.47s2-1.08,2-2.51-.72-2.47-2-2.47S182.07,164.41,182.07,165.85Z" style="fill:#feffff"/><path d="M189.34,162.13h1.9v6h3.32v1.4h-5.22Z" style="fill:#feffff"/><path d="M195.68,162.23a19,19,0,0,1,2.55-.15,5.9,5.9,0,0,1,3.42.79,3.14,3.14,0,0,1,1.41,2.79,3.56,3.56,0,0,1-1.39,3,6.57,6.57,0,0,1-3.85,1,18.43,18.43,0,0,1-2.14-.11Zm1.9,6a3.93,3.93,0,0,0,.66,0c1.71,0,2.83-.82,2.83-2.59,0-1.54-1-2.35-2.63-2.35a4.43,4.43,0,0,0-.86.07Z" style="fill:#feffff"/><path d="M123.51,179.71l-2-7.39h2l.63,3c.19.88.36,1.83.5,2.58h0c.14-.8.33-1.69.54-2.6l.71-3h2l.67,3.12c.19.87.32,1.66.45,2.48h0c.12-.82.31-1.69.48-2.57l.68-3h1.92L130,179.71h-2l-.71-3.18a22.83,22.83,0,0,1-.4-2.28h0c-.15.83-.29,1.54-.48,2.28l-.79,3.18Z" style="fill:#feffff"/><path d="M134.45,177.81l-.59,1.9h-2l2.55-7.39h2.48l2.59,7.39h-2l-.64-1.9Zm2.12-1.25L136,175c-.15-.44-.3-1-.42-1.43h0c-.12.44-.25,1-.38,1.43l-.5,1.57Z" style="fill:#feffff"/><path d="M140.63,172.42a18.76,18.76,0,0,1,2.52-.15,4.7,4.7,0,0,1,2.7.58,1.79,1.79,0,0,1,.77,1.55,2,2,0,0,1-1.48,1.82v0a1.9,1.9,0,0,1,1.12,1.38,20.31,20.31,0,0,0,.68,2.08H145a8.52,8.52,0,0,1-.58-1.72c-.22-.92-.58-1.17-1.35-1.18h-.57v2.91h-1.87Zm1.87,3.18h.74c.94,0,1.5-.42,1.5-1.06s-.52-1-1.39-1a5.33,5.33,0,0,0-.86.06Z" style="fill:#feffff"/><path d="M153,176.58h-3.07v1.76h3.43v1.37H148v-7.39h5.16v1.37h-3.26v1.54H153Z" style="fill:#feffff"/><path d="M156.5,172.32v2.84h3.11v-2.84h1.88v7.39h-1.88v-3.09H156.5v3.09h-1.9v-7.39Z" style="fill:#feffff"/><path d="M170.79,175.94c0,2.42-1.66,3.89-4.1,3.89a3.65,3.65,0,0,1-3.93-3.76,3.8,3.8,0,0,1,4.07-3.87A3.65,3.65,0,0,1,170.79,175.94Zm-6,.1c0,1.45.77,2.47,2,2.47s2-1.08,2-2.51-.72-2.47-2-2.47S164.75,174.6,164.75,176Z" style="fill:#feffff"/><path d="M173.91,172.32v4.26c0,1.27.55,1.92,1.51,1.92s1.54-.61,1.54-1.92v-4.26h1.88v4.15c0,2.28-1.3,3.37-3.48,3.37s-3.35-1-3.35-3.39v-4.12Z" style="fill:#feffff"/><path d="M180.54,178a5.33,5.33,0,0,0,2.09.46c.87,0,1.33-.32,1.33-.8s-.4-.72-1.4-1c-1.39-.43-2.29-1.11-2.29-2.18,0-1.26,1.19-2.23,3.16-2.23a5.69,5.69,0,0,1,2.13.37l-.42,1.35a4.39,4.39,0,0,0-1.75-.35c-.82,0-1.22.33-1.22.71s.47.68,1.55,1c1.48.48,2.17,1.16,2.17,2.2,0,1.24-1.08,2.29-3.37,2.29a6.06,6.06,0,0,1-2.37-.45Z" style="fill:#feffff"/><path d="M192.15,176.58h-3.07v1.76h3.43v1.37h-5.33v-7.39h5.16v1.37h-3.26v1.54h3.07Z" style="fill:#feffff"/></svg>