<svg xmlns="http://www.w3.org/2000/svg" viewBox="0 0 250 250"><title>Grocery</title><path d="M44.88,104.8l12.44,15.64V109.6a5.13,5.13,0,0,0-.65-3.07,3.6,3.6,0,0,0-3-1v-.69H62v.69a6.35,6.35,0,0,0-2.15.53,2.13,2.13,0,0,0-.86,1.06,7.23,7.23,0,0,0-.31,2.52v21h-.63l-17-21v16a3.54,3.54,0,0,0,1,2.94,3.64,3.64,0,0,0,2.28.76h.59V130H35.94v-.69a4,4,0,0,0,2.9-.86,4,4,0,0,0,.82-2.84V107.83l-.54-.67a4.91,4.91,0,0,0-1.41-1.32,4.26,4.26,0,0,0-1.77-.35v-.69Z" style="fill:#eb2027"/><path d="M76.31,104.45a12.51,12.51,0,0,1,13.55,12.87,13.44,13.44,0,0,1-2.81,8.44q-3.72,4.83-10.5,4.83T66,126a13.35,13.35,0,0,1-2.94-8.64A12.57,12.57,0,0,1,66.91,108,12.16,12.16,0,0,1,76.31,104.45Zm.22,1.19q-3.46,0-5.26,3.53-1.47,2.9-1.47,8.33,0,6.45,2.27,9.54a5.17,5.17,0,0,0,4.42,2.16,5.31,5.31,0,0,0,3.2-.93,7.63,7.63,0,0,0,2.55-3.8,21.13,21.13,0,0,0,.91-6.81,22.64,22.64,0,0,0-.93-7.48,7.29,7.29,0,0,0-2.37-3.5A5.59,5.59,0,0,0,76.53,105.64Z" style="fill:#eb2027"/><path d="M106.86,116.64a12.87,12.87,0,0,1,5,2,5.39,5.39,0,0,1,2.08,4.39,5.81,5.81,0,0,1-2.29,4.7q-2.81,2.25-8.16,2.25H90.72v-.69a5.79,5.79,0,0,0,2.37-.33,1.9,1.9,0,0,0,.87-.85,7.7,7.7,0,0,0,.25-2.57V109.23a7.8,7.8,0,0,0-.25-2.57,1.84,1.84,0,0,0-.88-.85,6,6,0,0,0-2.36-.32v-.69h12.08a17.16,17.16,0,0,1,6.14.77,6.39,6.39,0,0,1,2.84,2.31,5.71,5.71,0,0,1,1,3.26,4.64,4.64,0,0,1-1.32,3.24A9.48,9.48,0,0,1,106.86,116.64Zm-6.77.95v8.09l0,.93a1.8,1.8,0,0,0,2,2,5.8,5.8,0,0,0,2.74-.66,4.52,4.52,0,0,0,1.92-1.91,5.85,5.85,0,0,0,.67-2.8,6.18,6.18,0,0,0-.82-3.17,4.41,4.41,0,0,0-2.25-2A12.21,12.21,0,0,0,100.09,117.59Zm0-1.45a9.58,9.58,0,0,0,3.89-.59,4.43,4.43,0,0,0,1.92-1.67,6,6,0,0,0,0-5.49,4.19,4.19,0,0,0-1.89-1.63,10,10,0,0,0-3.94-.54Z" style="fill:#eb2027"/><path d="M133.85,117.89v7.81a7.94,7.94,0,0,0,.21,2.42,1.91,1.91,0,0,0,.84.85,3.34,3.34,0,0,0,1.68.36h.84V130H124.24v-.69h.84a3.49,3.49,0,0,0,1.77-.39,1.69,1.69,0,0,0,.74-.89,7.66,7.66,0,0,0,.2-2.34V109.12a8.29,8.29,0,0,0-.2-2.42,1.86,1.86,0,0,0-.83-.85,3.34,3.34,0,0,0-1.68-.36h-.84v-.69h13.18v.69h-.84a3.48,3.48,0,0,0-1.77.39,1.78,1.78,0,0,0-.76.89,7.65,7.65,0,0,0-.2,2.34v7.14h8.91v-7.14a8.3,8.3,0,0,0-.2-2.42,1.86,1.86,0,0,0-.84-.85,3.4,3.4,0,0,0-1.69-.36h-.82v-.69h13.16v.69h-.82a3.42,3.42,0,0,0-1.77.39,1.78,1.78,0,0,0-.76.89,7.65,7.65,0,0,0-.2,2.34V125.7a8.28,8.28,0,0,0,.2,2.42,1.85,1.85,0,0,0,.84.85,3.39,3.39,0,0,0,1.69.36h.82V130H139.21v-.69H140a3.42,3.42,0,0,0,1.77-.39,1.78,1.78,0,0,0,.76-.89,7.66,7.66,0,0,0,.2-2.34v-7.81Z" style="fill:#eb2027"/><path d="M166.54,129.32V130H153.36v-.69h.84a3.49,3.49,0,0,0,1.77-.39,1.69,1.69,0,0,0,.74-.89,7.66,7.66,0,0,0,.2-2.34V109.12a8.29,8.29,0,0,0-.2-2.42,1.86,1.86,0,0,0-.83-.85,3.34,3.34,0,0,0-1.68-.36h-.84v-.69h13.18v.69h-.84a3.48,3.48,0,0,0-1.77.39,1.78,1.78,0,0,0-.76.89,7.65,7.65,0,0,0-.2,2.34V125.7a7.94,7.94,0,0,0,.21,2.42,1.91,1.91,0,0,0,.84.85,3.34,3.34,0,0,0,1.68.36Z" style="fill:#eb2027"/><path d="M191,121.16l-.95,8.85H167.67v-.69h.84a3.49,3.49,0,0,0,1.77-.39A1.69,1.69,0,0,0,171,128a7.66,7.66,0,0,0,.2-2.34V109.12a8.3,8.3,0,0,0-.2-2.42,1.86,1.86,0,0,0-.83-.85,3.34,3.34,0,0,0-1.68-.36h-.84v-.69h13.44v.69H180a3.48,3.48,0,0,0-1.77.39,1.78,1.78,0,0,0-.76.89,7.65,7.65,0,0,0-.2,2.34v16.06a8.14,8.14,0,0,0,.22,2.46,1.48,1.48,0,0,0,.87.79,8.84,8.84,0,0,0,2.25.17h2.1a7.12,7.12,0,0,0,3.35-.71,6.24,6.24,0,0,0,2.31-2.23,18.08,18.08,0,0,0,1.85-4.5Z" style="fill:#eb2027"/><path d="M215.94,121.16,215,130H192.61v-.69h.84a3.49,3.49,0,0,0,1.77-.39A1.69,1.69,0,0,0,196,128a7.66,7.66,0,0,0,.2-2.34V109.12a8.3,8.3,0,0,0-.2-2.42,1.86,1.86,0,0,0-.83-.85,3.34,3.34,0,0,0-1.68-.36h-.84v-.69H206v.69H205a3.48,3.48,0,0,0-1.77.39,1.78,1.78,0,0,0-.76.89,7.65,7.65,0,0,0-.2,2.34v16.06a8.14,8.14,0,0,0,.22,2.46,1.48,1.48,0,0,0,.87.79,8.84,8.84,0,0,0,2.25.17h2.1a7.12,7.12,0,0,0,3.35-.71,6.24,6.24,0,0,0,2.31-2.23,18.08,18.08,0,0,0,1.85-4.5Z" style="fill:#eb2027"/><text transform="translate(98.36 143.62)" style="font-size:10.399660110473633px;fill:#231f20;font-family:ArialMT, Arial;letter-spacing:0.38401758339466696em">FOODS</text><rect x="43.18" y="139.03" width="49.4" height="1.42" style="fill:#231f20"/><rect x="155.45" y="139.03" width="49.4" height="1.42" style="fill:#231f20"/></svg>