<svg xmlns="http://www.w3.org/2000/svg" viewBox="0 0 250 250"><defs><style>.a{fill:#553023;}.b{fill:#fec401;}.c{fill:#b02a27;}.d{fill:#fff;}</style></defs><title>Fast Casual</title><path class="a" d="M44.72,146.89H203.64v32.77H44.72Z"/><path class="a" d="M221.66,156.69s-36.29-3.28-96.54-3.33-95.42,3.33-95.42,3.33V71.79s35.26,2.08,95.42,2.08,96.54-2.08,96.54-2.08Z"/><path class="b" d="M220.11,154.84s-36-3.14-95.88-3.19-95.88,3.19-95.88,3.19V70.34s36.13,2,95.88,2,95.88-2,95.88-2Z"/><path class="c" d="M218.78,153.9s-35.53-3.09-94.53-3.14-94.53,3.14-94.53,3.14V71.33s35.62,2,94.53,2,94.53-2,94.53-2Z"/><path class="d" d="M64.39,172a23.36,23.36,0,0,1,.53-3.16l2.31-9.24h2.47l2.21,9.28a23.78,23.78,0,0,1,.44,3h.18a17.82,17.82,0,0,1,.55-3.08l1.31-5a15,15,0,0,1,.89-2.45,7.43,7.43,0,0,1-1.38-.18,7,7,0,0,1-.2-1.48h4.65a6.45,6.45,0,0,1-.24,1.54,7.93,7.93,0,0,1-1.05.14l-3.86,12.77H70.94l-2.16-9.16a23.52,23.52,0,0,1-.49-3.3h-.18a25.3,25.3,0,0,1-.53,3.36l-2.31,9.1H62.79L59.23,161.5a7.49,7.49,0,0,1-1.05-.2,7.15,7.15,0,0,1-.28-1.48h5.54a5.19,5.19,0,0,1-.3,1.54c-.36.06-1.11.12-1.56.14a13,13,0,0,1,.87,2.43l1.24,5A21.09,21.09,0,0,1,64.2,172h.18ZM87,169c0,3.42-1.9,5.36-4.83,5.36-3.09,0-4.83-1.84-4.83-5.36a4.7,4.7,0,0,1,4.84-5.06c2.89,0,4.84,1.8,4.84,5.06m-4.83,3.82c1.64,0,2.43-1.48,2.43-3.82,0-2-1-3.54-2.43-3.54s-2.45,1.42-2.45,3.54c0,2.31.93,3.82,2.45,3.82m10-6.66a2.73,2.73,0,0,1,2.61-2.23,2.5,2.5,0,0,1,1,.16,3,3,0,0,1,.32,1.5,2.65,2.65,0,0,1-.08.73,3.36,3.36,0,0,0-1.46-.34,2.54,2.54,0,0,0-2.29,1.52v4.88a9.29,9.29,0,0,1,2,.41,3.09,3.09,0,0,1,.08,1.23H88.32a4,4,0,0,1,.3-1.17,6.82,6.82,0,0,1,1.24-.49v-6.49H88.42a2.94,2.94,0,0,1,.41-1.44,5,5,0,0,1,1.86-.34,3.87,3.87,0,0,1,1.15.16v1.92h.26Zm4.55-5.2a3.5,3.5,0,0,1,.42-1.46,5.8,5.8,0,0,1,2-.34,4.25,4.25,0,0,1,1.29.18v13.09a7.55,7.55,0,0,1,1.56.32,3.44,3.44,0,0,1,.08.79,2.81,2.81,0,0,1,0,.46H96.55a4,4,0,0,1,.3-1.17,6.19,6.19,0,0,1,1.23-.49V161H96.66Zm13.29,0h-1.44a3.48,3.48,0,0,1,.42-1.46,5.91,5.91,0,0,1,2-.34,4.23,4.23,0,0,1,1.29.18v11.61a5.88,5.88,0,0,0,.18,1.52h1.46a1.61,1.61,0,0,1,0,.3,2.68,2.68,0,0,1-.24,1.07,12.9,12.9,0,0,1-3.05.41,3.92,3.92,0,0,1-.47-1.52H110a3.26,3.26,0,0,1-3.05,1.62c-1.76,0-3.78-1.21-3.78-4.86,0-3.36,2-5.56,4.9-5.56a3.26,3.26,0,0,1,1.86.51V161Zm0,4.83a3.67,3.67,0,0,0-1.46-.28c-2,0-2.91,1.46-2.91,3.64s1,3.46,2.33,3.46a2.5,2.5,0,0,0,2-1.07v-5.75Zm14.63.26,2.49-3.42a7,7,0,0,1,1-1.13c-.36,0-1-.1-1.25-.16a6.84,6.84,0,0,1-.18-1.52h5.14a5.45,5.45,0,0,1-.32,1.58,11.68,11.68,0,0,1-1.23.12l-3.92,5,4.69,5.83,1.31-.08A4.53,4.53,0,0,1,132,174a19.09,19.09,0,0,1-2.57.38l-5.18-6.86h-.91v4.77a11,11,0,0,1,1.54.22A4.58,4.58,0,0,1,125,174h-5.89a6.47,6.47,0,0,1,.32-1.44,10.8,10.8,0,0,1,1.5-.28V161.5c-.45,0-1.09-.12-1.44-.18a6.15,6.15,0,0,1,0-1.5h5.36a4,4,0,0,1,0,1.48,9.65,9.65,0,0,1-1.42.18v4.57h1.27Zm8.74-.2a3.39,3.39,0,0,1,.43-1.44,5.8,5.8,0,0,1,2-.34,5.09,5.09,0,0,1,1.32.16v8.19a6.94,6.94,0,0,1,1.52.32,3.44,3.44,0,0,1,.08.79,2.81,2.81,0,0,1,0,.46h-5.42a4,4,0,0,1,.3-1.17,6.22,6.22,0,0,1,1.23-.49v-6.5h-1.46Zm4.11-5.3a1.37,1.37,0,0,1-1.44,1.52,1.33,1.33,0,0,1-1.46-1.52,1.37,1.37,0,0,1,1.46-1.42,1.33,1.33,0,0,1,1.44,1.42m3.68,1.19a4.84,4.84,0,0,1,1.88-.41v2.93h2.87a6.32,6.32,0,0,1,.08,1.56h-3v5.06c0,1.21.32,1.68,1.29,1.68a9,9,0,0,0,1.88-.26,1.85,1.85,0,0,1,0,.3,2.43,2.43,0,0,1-.32,1.15,6.52,6.52,0,0,1-2.63.59c-1.74,0-2.61-.89-2.61-3.12,0-1.25,0-3.56.14-5.4h-1.46a4.42,4.42,0,0,1,.3-1.44,5.55,5.55,0,0,1,1.15-.41l.34-2.25Zm12.08,3.9a2.4,2.4,0,0,0-1-.22c-1.56,0-2.69,1.09-2.69,3.52s1.23,3.68,2.93,3.68a7.85,7.85,0,0,0,2.69-.55,2.79,2.79,0,0,1-.38,1.52,7.49,7.49,0,0,1-3.18.75c-2.79,0-4.55-2.1-4.55-5a5.08,5.08,0,0,1,5.22-5.4,5.91,5.91,0,0,1,2.91.73,4.94,4.94,0,0,1,.06.81,5.93,5.93,0,0,1-.34,2,4.4,4.4,0,0,1-1.72-.42v-1.36Zm7.08,6.78a6.47,6.47,0,0,1,1.4.32,3.63,3.63,0,0,1,.06,1.25h-5.32a4,4,0,0,1,.3-1.17,6.73,6.73,0,0,1,1.23-.48V161h-1.44a3.49,3.49,0,0,1,.42-1.46,6,6,0,0,1,2-.34,4.25,4.25,0,0,1,1.29.18v3.5c0,.89-.06,2-.14,2.93h.24a3.18,3.18,0,0,1,3.18-1.84c1.66,0,3.18.51,3.18,3.66,0,1.6,0,3.3-.14,4.83a7.17,7.17,0,0,1,1.54.32,3.5,3.5,0,0,1,.08.79,2.81,2.81,0,0,1,0,.47h-5.12a4.78,4.78,0,0,1,.26-1.17,5.7,5.7,0,0,1,1.07-.48V168c0-1.38-.47-2.29-1.76-2.29A3,3,0,0,0,160.3,167v5.38Zm11-2.87a2.9,2.9,0,0,0,3.05,3,10.22,10.22,0,0,0,3-.55,3,3,0,0,1-.38,1.54,7.21,7.21,0,0,1-3.32.81c-3,0-4.77-2.17-4.77-5,0-3.08,1.94-5.4,4.92-5.4,2.59,0,3.66,1.8,3.66,4.53a10.15,10.15,0,0,1-.06,1.09h-6.09Zm3.86-1.5c.12-1.24-.26-2.71-1.72-2.71-1.23,0-2.06,1.11-2.19,2.71h3.9Zm7.59,4.37a6.46,6.46,0,0,1,1.39.32,3.64,3.64,0,0,1,.06,1.25h-5.32a4,4,0,0,1,.3-1.17,6.77,6.77,0,0,1,1.23-.48v-6.5H179a3.4,3.4,0,0,1,.43-1.44,4.84,4.84,0,0,1,1.86-.34,3.87,3.87,0,0,1,1.15.16v1.54h.26a3.51,3.51,0,0,1,3.28-1.84c1.64,0,3.16.51,3.16,3.66,0,1.6-.06,3.28-.14,4.83a7.14,7.14,0,0,1,1.54.32,3.5,3.5,0,0,1,.08.79,2.8,2.8,0,0,1,0,.46h-5.14a4,4,0,0,1,.28-1.17,5.53,5.53,0,0,1,1.05-.48V168c0-1.38-.44-2.29-1.74-2.29a3,3,0,0,0-2.25,1.21v5.5Z"/><path class="a" d="M43.34,87h7.84l3.77,10.47q1.68,4.67,2.58,8.08h.4L57.74,100V87h7.39V120H57.32l-3.77-10.47q-1.68-4.67-2.58-8.1h-.42l.19,5.59v13H43.34V87Z"/><path class="d" d="M41.82,85.6h7.84l3.77,10.51q1.68,4.68,2.58,8.11h.4l-.19-5.61v-13h7.39v33.16H55.8L52,108.25q-1.68-4.68-2.58-8.13H49l.19,5.61v13H41.82Z"/><path class="a" d="M80.55,87A11.4,11.4,0,0,1,90,91.42q3.46,4.37,3.46,11.95T90,115.48A10.89,10.89,0,0,1,81,120,10.12,10.12,0,0,1,72,115.31a20.52,20.52,0,0,1-3.15-11.69,23.32,23.32,0,0,1,1.54-8.71,12.89,12.89,0,0,1,4.31-5.86,9.78,9.78,0,0,1,5.81-2m.83,6.73a3.86,3.86,0,0,0-3.55,2.59,16.71,16.71,0,0,0-1.23,7.07,17.4,17.4,0,0,0,1.2,7.15q1.2,2.6,3.3,2.6t3.34-2.68a17,17,0,0,0,1.26-7.14,16,16,0,0,0-1.27-7.11q-1.27-2.48-3-2.48"/><path class="d" d="M79.24,85.62A11.38,11.38,0,0,1,88.69,90q3.46,4.4,3.46,12t-3.48,12.19a10.86,10.86,0,0,1-9,4.55,10.1,10.1,0,0,1-8.91-4.72,20.74,20.74,0,0,1-3.15-11.77,23.59,23.59,0,0,1,1.54-8.76,13,13,0,0,1,4.31-5.9,9.73,9.73,0,0,1,5.81-2m.83,6.77q-2.32,0-3.55,2.6a16.93,16.93,0,0,0-1.23,7.12,17.64,17.64,0,0,0,1.2,7.2q1.2,2.62,3.3,2.61t3.34-2.69A17.21,17.21,0,0,0,84.38,102a16.19,16.19,0,0,0-1.27-7.15q-1.27-2.5-3-2.5"/><path class="a" d="M107.64,87a11.4,11.4,0,0,1,9.45,4.37q3.46,4.37,3.46,11.95t-3.48,12.12a10.88,10.88,0,0,1-9,4.52,10.11,10.11,0,0,1-8.91-4.69A20.51,20.51,0,0,1,96,103.62a23.32,23.32,0,0,1,1.54-8.71,12.9,12.9,0,0,1,4.31-5.86,9.78,9.78,0,0,1,5.8-2m.83,6.73a3.86,3.86,0,0,0-3.55,2.59,16.73,16.73,0,0,0-1.23,7.07,17.41,17.41,0,0,0,1.2,7.15q1.2,2.6,3.31,2.6t3.34-2.68a17,17,0,0,0,1.26-7.14,16,16,0,0,0-1.27-7.11q-1.27-2.48-3-2.48"/><path class="d" d="M106.39,85.62a11.38,11.38,0,0,1,9.46,4.4q3.46,4.4,3.46,12t-3.48,12.19a10.86,10.86,0,0,1-9,4.55,10.1,10.1,0,0,1-8.91-4.72,20.74,20.74,0,0,1-3.15-11.77,23.61,23.61,0,0,1,1.54-8.76,13,13,0,0,1,4.31-5.9,9.74,9.74,0,0,1,5.8-2m.83,6.77q-2.32,0-3.55,2.6a16.91,16.91,0,0,0-1.23,7.12,17.61,17.61,0,0,0,1.2,7.2q1.2,2.62,3.3,2.61t3.34-2.69a17.21,17.21,0,0,0,1.26-7.18,16.19,16.19,0,0,0-1.27-7.15q-1.27-2.5-3-2.5"/><path class="a" d="M124,87h9.64a12.12,12.12,0,0,1,7.2,2,11.06,11.06,0,0,1,4.09,5.8,26.9,26.9,0,0,1,1.22,8.32q0,7.65-3.45,12.27T132.61,120H124V87Zm7.7,6.42v20.16h.54q6,0,6-10.85A15.08,15.08,0,0,0,137,96a4.4,4.4,0,0,0-4.23-2.56Z"/><path class="d" d="M122.56,85.63h9.65a12.1,12.1,0,0,1,7.2,2,11.08,11.08,0,0,1,4.09,5.82,27,27,0,0,1,1.22,8.33q0,7.67-3.45,12.3t-10.11,4.63h-8.6Zm7.7,6.44v20.21h.54q6,0,6-10.88a15.13,15.13,0,0,0-1.29-6.77,4.4,4.4,0,0,0-4.23-2.56h-1Z"/><path class="a" d="M149.53,87.06h7.72v26.3h10.61v6.75H149.53"/><path class="d" d="M148.09,85.64h7.72V112h10.61v6.75H148.09"/><path class="a" d="M170.33,87h18.84v6.66H178v6.09h10.38v6.44H178v7.11h11.14V120H170.33"/><path class="d" d="M169,85.62h18.84V92.3H176.71v6.11h10.38v6.47H176.71V112h11.14v6.77H169"/><path class="a" d="M191.86,109.94q3.82,3.44,7.2,3.44a4.35,4.35,0,0,0,3-1.08,3.35,3.35,0,0,0,1.23-2.62,3.17,3.17,0,0,0-.88-2.2c-.6-.64-.22-2.79-1.86-3.59-2.32-1.11-5.14-2.13-6.36-3.49s-2.3-1.87-2.3-4a8.89,8.89,0,0,1,2.89-6.72A10.68,10.68,0,0,1,202.4,87a15.69,15.69,0,0,1,6.8,1.7v7.63q-3.13-2.91-6-2.91a3.85,3.85,0,0,0-2.47.83,2.47,2.47,0,0,0-1,2,2.65,2.65,0,0,0,.85,2,10.46,10.46,0,0,0,3.08,1.79,16.6,16.6,0,0,1,5.64,3.67,8,8,0,0,1,1.92,5.62,10.08,10.08,0,0,1-3.3,7.59,11.28,11.28,0,0,1-8.07,3.14,17.78,17.78,0,0,1-8-2.15Z"/><path class="d" d="M190.67,108.7q3.82,3.46,7.2,3.46a4.33,4.33,0,0,0,3-1.08,3.38,3.38,0,0,0,1.23-2.63,3.21,3.21,0,0,0-.88-2.21,12,12,0,0,0-3.36-2.18,16.72,16.72,0,0,1-5.31-3.72,7.46,7.46,0,0,1-1.85-5.2,9,9,0,0,1,2.89-6.76,10.64,10.64,0,0,1,7.65-2.75,15.61,15.61,0,0,1,6.8,1.71V95q-3.13-2.93-6-2.93a3.84,3.84,0,0,0-2.46.83,2.49,2.49,0,0,0-1,2,2.67,2.67,0,0,0,.85,2,10.39,10.39,0,0,0,3.08,1.8,16.65,16.65,0,0,1,5.64,3.69A8.05,8.05,0,0,1,210,108a10.17,10.17,0,0,1-3.3,7.63,11.25,11.25,0,0,1-8.07,3.16,17.7,17.7,0,0,1-8-2.17v-8Z"/><path class="a" d="M115.69,125.11a5.91,5.91,0,0,1,4.9,2.27,9.71,9.71,0,0,1,1.8,6.19,10,10,0,0,1-1.81,6.28,5.64,5.64,0,0,1-4.68,2.34,5.25,5.25,0,0,1-4.62-2.43,10.65,10.65,0,0,1-1.63-6.06,12.11,12.11,0,0,1,.8-4.52,6.67,6.67,0,0,1,2.24-3,5.06,5.06,0,0,1,3-1m.43,3.49a2,2,0,0,0-1.84,1.34,8.69,8.69,0,0,0-.64,3.67,9,9,0,0,0,.62,3.71,1.91,1.91,0,0,0,1.71,1.35q1.08,0,1.73-1.39a8.82,8.82,0,0,0,.65-3.7,8.32,8.32,0,0,0-.66-3.69q-.66-1.29-1.58-1.29"/><path class="d" d="M115.14,124.37a5.86,5.86,0,0,1,4.87,2.27,9.76,9.76,0,0,1,1.78,6.19A10.07,10.07,0,0,1,120,139.1a5.59,5.59,0,0,1-4.65,2.34,5.2,5.2,0,0,1-4.59-2.43,10.68,10.68,0,0,1-1.62-6.06,12.15,12.15,0,0,1,.79-4.51,6.68,6.68,0,0,1,2.22-3,5,5,0,0,1,3-1m.43,3.49a2,2,0,0,0-1.83,1.34,8.74,8.74,0,0,0-.63,3.67,9.09,9.09,0,0,0,.62,3.71,1.89,1.89,0,0,0,1.7,1.34q1.08,0,1.72-1.39a8.85,8.85,0,0,0,.65-3.7,8.33,8.33,0,0,0-.65-3.68q-.66-1.29-1.57-1.29"/><path class="a" d="M108.69,141.55a6.78,6.78,0,0,1-2.83.68,5.33,5.33,0,0,1-4.6-2.45,10.37,10.37,0,0,1-1.71-6.08,12.28,12.28,0,0,1,.73-4.25,7,7,0,0,1,2.27-3.2,5.55,5.55,0,0,1,3.51-1.2,6.58,6.58,0,0,1,2.62.61v4.08a3.41,3.41,0,0,0-2.09-1.21,2.45,2.45,0,0,0-2.19,1.36,7.82,7.82,0,0,0-.8,3.94,6.78,6.78,0,0,0,.8,3.54,2.42,2.42,0,0,0,2.13,1.33,3.7,3.7,0,0,0,2.15-.9v3.75Z"/><path class="d" d="M108.07,140.77a6.75,6.75,0,0,1-2.81.67A5.29,5.29,0,0,1,100.7,139a10.27,10.27,0,0,1-1.7-6,12.2,12.2,0,0,1,.73-4.22,6.93,6.93,0,0,1,2.25-3.18,5.51,5.51,0,0,1,3.49-1.19,6.56,6.56,0,0,1,2.6.6v3.78a3,3,0,0,0-2.07-.92,2.44,2.44,0,0,0-2.18,1.35,7.77,7.77,0,0,0-.8,3.91,6.74,6.74,0,0,0,.8,3.51,2.4,2.4,0,0,0,2.12,1.32,3.66,3.66,0,0,0,2.14-.89v3.72Z"/><path class="a" d="M124.18,125.11h4.37l2.39,6.56,2.4-6.56h4.39v17.14h-3.91v-6.41q0-2.43.2-4.94h-.29a28.67,28.67,0,0,1-1,3.42l-1.76,5-1.74-5a29.77,29.77,0,0,1-1-3.42h-.31q.21,2.32.21,4.94v6.41h-3.91V125.11Z"/><path class="d" d="M123.45,124.41h4.34l2.38,6.52,2.38-6.52h4.36v17H133v-6.37q0-2.42.2-4.91h-.29a28.66,28.66,0,0,1-1,3.39l-1.75,5-1.73-5a29.41,29.41,0,0,1-1-3.39h-.3q.21,2.31.21,4.91v6.37h-3.88v-17Z"/><path class="a" d="M139.94,125.11H146a5,5,0,0,1,3.67,1.27A4.81,4.81,0,0,1,151,130a7.32,7.32,0,0,1-.43,2.44,4.27,4.27,0,0,1-1.81,2.13,6.21,6.21,0,0,1-3.46.9H144v6.8h-4V125.11Zm4,3.3v3.67h.88a2.28,2.28,0,0,0,1.56-.51,1.8,1.8,0,0,0,.58-1.43,1.73,1.73,0,0,0-.45-1.3,1.86,1.86,0,0,0-1.34-.43H144Z"/><path class="d" d="M139.09,124.41h6.07a5,5,0,0,1,3.65,1.26,4.78,4.78,0,0,1,1.29,3.58,7.27,7.27,0,0,1-.43,2.42,4.25,4.25,0,0,1-1.8,2.11,6.17,6.17,0,0,1-3.44.9h-1.34v6.75h-4Zm4,3.28v3.65H144a2.26,2.26,0,0,0,1.55-.51,1.79,1.79,0,0,0,.58-1.42,1.72,1.72,0,0,0-.44-1.29,1.85,1.85,0,0,0-1.33-.43Z"/><path class="a" d="M154.15,125.11h4.12l4.51,17.14h-4.5l-.61-3.4h-3.29l-.63,3.4h-4.09l4.48-17.14Zm1.9,4.68-1.1,6h2.17l-1.07-6Z"/><path class="d" d="M153.19,124.41h3.94l4.48,17H157.3l-.6-3.38h-3.26l-.62,3.38h-4.06l4.45-17Zm1.89,4.65L154,135h2.16Z"/><path class="a" d="M163.74,125.11h4.07l2,5.43q.87,2.42,1.34,4.19h.21l-.1-2.9v-6.72H175v17.14H171l-2-5.43q-.87-2.42-1.34-4.2h-.22l.1,2.9v6.73h-3.83V125.11Z"/><path class="d" d="M162.71,124.41h4l1.94,5.39q.87,2.4,1.33,4.16h.21l-.1-2.88v-6.68h3.81v17h-4L168,136q-.87-2.4-1.33-4.17h-.22l.1,2.88v6.69h-3.81v-17Z"/><path class="a" d="M176.4,125.11h4.51l1.46,5.43,1.44-5.43h4.57l-4,9.29v7.85h-4V134.4"/><path class="d" d="M175.28,124.41h4.48l1.45,5.39,1.43-5.39h4.54l-4,9.22v7.8h-4v-7.8"/><path class="a" d="M96.28,134.3A10.27,10.27,0,1,1,86,124,10.26,10.26,0,0,1,96.28,134.3"/><path class="b" d="M95.63,133a10.27,10.27,0,1,1-10.26-10.27A10.27,10.27,0,0,1,95.63,133"/><path class="a" d="M88.11,137.68c-.22-.58.11-1.67-.46-1.45a1.12,1.12,0,0,0-.65,1.45l.15.36a2.55,2.55,0,0,1-1.32.42,2.58,2.58,0,1,1,0-5.16h.88v-2.24h-.91a1.47,1.47,0,1,1,0-2.95,1.42,1.42,0,0,1,1.43,1.21h0a1.1,1.1,0,0,0,2.06.54h0l0-.09a1.19,1.19,0,0,0,.09-.53,3.6,3.6,0,0,0-.73-2.1,3.48,3.48,0,0,0-2.91-1.29,3.71,3.71,0,0,0-3.71,3.71,3.66,3.66,0,0,0,.8,2.28l.1.12-.13.1a4.8,4.8,0,0,0,2.94,8.6A4.74,4.74,0,0,0,88.3,140c-.18-.88.75.16-.19-2.29"/><path class="d" d="M88.42,136.36a1.12,1.12,0,1,0-2.1.8l.15.36a2.52,2.52,0,0,1-3.91-2.15,2.6,2.6,0,0,1,2.59-2.59H86v-2.24h-.91a1.47,1.47,0,1,1,0-2.95,1.43,1.43,0,0,1,1.43,1.21h0a1.1,1.1,0,0,0,2.06.54h0l0-.09a1.19,1.19,0,0,0,.09-.53,3.6,3.6,0,0,0-.73-2.1,3.47,3.47,0,0,0-2.91-1.28,3.71,3.71,0,0,0-3.71,3.71,3.67,3.67,0,0,0,.8,2.29l.1.12-.13.1a4.8,4.8,0,0,0,2.94,8.6,4.74,4.74,0,0,0,2.49-.72,8.5,8.5,0,0,0,3,2.3,10.28,10.28,0,0,0,2-1.62,6.94,6.94,0,0,1-4.29-3.77"/><path class="a" d="M190.41,125.12a1.33,1.33,0,0,1,1,.41,1.34,1.34,0,0,1,.39,1,1.36,1.36,0,0,1-2.72,0,1.33,1.33,0,0,1,.2-.71,1.3,1.3,0,0,1,.52-.49,1.34,1.34,0,0,1,.61-.16m.07.27a1.1,1.1,0,0,0-1.12,1.1,1.09,1.09,0,0,0,2.19,0,1.1,1.1,0,0,0-1.07-1.1m-.65,1.82v-1.44h.69a.5.5,0,0,1,.37.12.4.4,0,0,1,.11.29.37.37,0,0,1-.1.27.53.53,0,0,1-.29.14.36.36,0,0,1,.14.09,1.66,1.66,0,0,1,.17.25l.17.29h-.36l-.12-.23a1.11,1.11,0,0,0-.19-.28.3.3,0,0,0-.21-.08h-.08v.59h-.29Zm.29-.82h.24a.51.51,0,0,0,.25,0,.17.17,0,0,0,.08-.16.16.16,0,0,0-.07-.14.43.43,0,0,0-.23,0h-.27v.39Z"/></svg>