<svg xmlns="http://www.w3.org/2000/svg" viewBox="0 0 250 250"><title>Grocery</title><path d="M148.44,126.53h59.12a7,7,0,0,1,5.76,2.57,6.33,6.33,0,0,1,1.47,4.2,14,14,0,0,1-.19,3.4,6.78,6.78,0,0,1-6.51,5.09H89.1A6.82,6.82,0,0,1,82,134.63a9,9,0,0,1,.59-4,6.74,6.74,0,0,1,6.56-4.1h59.32ZM99,137.88a.91.91,0,0,1-.48-.92c0-1.76,0-3.52,0-5.28,0-.42-.09-.86.36-1.23H96.27c.23.55-1.1,3.55-2,4.47l-1.65-3.36c-.17-.36-.46-.71,0-1.1H89.91c.4.27.32.65.32,1,0,1.78,0,3.57,0,5.35a1,1,0,0,1-.47,1.05,12.78,12.78,0,0,0,2.22,0c-.42-.58-.55-2.93-.3-5.16l2.59,5.14,2.66-5.05a35.76,35.76,0,0,1,.12,3.66c0,.49.1,1-.42,1.4Zm36.84,0a4.81,4.81,0,0,1-1.21-1.21,15.41,15.41,0,0,0-.9-1.33c-.26-.34-.36-.54.19-.72a1.89,1.89,0,0,0,1.31-1.4,2.15,2.15,0,0,0-2.13-2.73c-1.16-.12-2.31-.05-3.47-.07h-1.77a1.43,1.43,0,0,1,.27,1.05q0,2.71,0,5.42a.94.94,0,0,1-.42,1h2.5c-.28-.24-.49-.36-.48-.65,0-.67,0-1.34,0-2,0-.28.12-.31.36-.34,1-.1,1.89,0,2.32,1.1a5.19,5.19,0,0,0,.62.95c.2.3.41.6,0,.94Zm35.71-8c-.28.56-.63.51-1,.5h-6a1.44,1.44,0,0,1,.29,1.18c0,1.61,0,3.21,0,4.82a1.83,1.83,0,0,1-.38,1.52h5.94c.42,0,.86-.09,1.18.35V136a.72.72,0,0,1-.82.51h-3.41c-1,0-.88.15-.89-.88s0-1,1-1h1.4a.93.93,0,0,1,1,.41v-2.13a.88.88,0,0,1-1,.49c-.6,0-1.21,0-1.81,0s-.68-.17-.62-.65a.92.92,0,0,0,0-.27c-.09-.54.09-.74.67-.71,1.14,0,2.27,0,3.41,0a1,1,0,0,1,1,.38Zm35.21,1.28,0-.18c-.52.32-.86-.06-1.25-.22a5.41,5.41,0,0,0-4.16-.11,2.23,2.23,0,0,0-1.46,2.44c.12.89.75,1.47,1.93,1.64.9.13,1.82.17,2.72.27.35,0,.67.17.73.57a.77.77,0,0,1-.45.76,3.8,3.8,0,0,1-4.28-.86,10.21,10.21,0,0,0-.78,1.91.88.88,0,0,1,.95.08,5.11,5.11,0,0,0,1.33.43,5,5,0,0,0,4-.68,2,2,0,0,0-.37-3.53,5,5,0,0,0-1.74-.42c-.64,0-1.29-.11-1.93-.19a.56.56,0,0,1-.55-.5.63.63,0,0,1,.37-.66,2.13,2.13,0,0,1,.68-.25,3.36,3.36,0,0,1,3.42,1.22Zm-52.64-.72h-3.06c0,.25.44.38.16.61-.94.8-1.89,1.58-2.83,2.36,0-1-.39-2,.17-3h-2.21c.38.28.31.66.31,1,0,1.78,0,3.57,0,5.35a1,1,0,0,1-.49,1,14.91,14.91,0,0,0,2.43,0,2.6,2.6,0,0,1,.38-3.17c.28-.23.43-.18.63.08.59.75,1.21,1.49,1.81,2.23.15.18.37.35,0,.59-.11.08,0,.21.12.21h2.81a31.18,31.18,0,0,1-3.55-4c-.28-.3-.27-.47.07-.73.78-.6,1.53-1.23,2.27-1.87C153.51,131,153.93,130.89,154.15,130.47Zm-42.08,0c.42.33.31.65.14,1-.66,1.41-1.3,2.83-2,4.23a4.84,4.84,0,0,1-1.32,2.18h2.42c-.7-.59-.11-1,0-1.53s.51-.33.82-.34c.71,0,1.43,0,2.14,0,.22,0,.46,0,.55.25.19.53.76,1,.15,1.63h2.73a3,3,0,0,1-1-1.43q-1.14-2.41-2.29-4.82c-.19-.4-.4-.78.13-1.18Zm77.25-.33c-.28.4-.68.29-1,.29h-5.09c-.37,0-.75.06-1-.42v2.28a.8.8,0,0,1,.87-.47,8.46,8.46,0,0,0,1.2,0c.54-.06.73.09.71.67,0,1.4,0,2.81,0,4.21,0,.42.08.86-.44,1.2h2.37c-.13-.26-.33-.39-.33-.67,0-1.67,0-3.35,0-5,0-.16-.06-.41.23-.38.85.07,1.74-.24,2.55.27Z" style="fill:#687818"/><path d="M44.83,93.93c0,.4,0,.61,0,.83q0,11.85,0,23.7c0,1.92.07,3.83.25,5.74.21,2.35,1,3.13,3.36,3.31.89.07,1.77.18,2.66.24.32,0,.47.12.46.48,0,.69,0,1.38,0,2.07,0,.36-.12.45-.46.44q-7.87,0-15.73,0c-.4,0-.49-.14-.47-.5,0-.76-.23-1.66.1-2.23s1.33-.28,2-.43c2.19-.46,2.56-.8,2.88-3a53.55,53.55,0,0,0,.39-7.61q0-12.32,0-24.64a16,16,0,0,0,0-1.94c-.13-1.05-.39-1.39-1.42-1.67a13.81,13.81,0,0,0-3.58-.42c-.42,0-.54-.13-.52-.53,0-.65,0-1.29,0-1.94,0-.36.11-.45.46-.45H49.66a.68.68,0,0,1,.58.26c7.66,8.93,15.1,18,21.12,28.17.54.91,1,1.86,1.64,2.79,0-.23,0-.46,0-.68,0-4,0-7.94-.06-11.92s-.1-7.67-.38-11.49a14.26,14.26,0,0,0-.23-1.65,2.41,2.41,0,0,0-2.47-2.26c-1.06-.11-2.13-.22-3.2-.28-.47,0-.69-.15-.64-.66A9.8,9.8,0,0,0,66,86c0-.52.14-.62.63-.62,3.66,0,7.32,0,11,0,1.5,0,3,0,4.49,0,.55,0,.67.17.64.67a17.32,17.32,0,0,0,0,1.81c0,.33-.08.47-.44.49-.76.05-1.5.2-2.26.24A2.2,2.2,0,0,0,78,90a8.28,8.28,0,0,0-.55,3c-.46,12.31-.15,24.63-.23,36.94,0,.56-.1.76-.72.75-1.83,0-3.66,0-5.49,0a1,1,0,0,1-.95-.53c-5.61-9.06-11.44-18-17.72-26.6-2.25-3.08-4.56-6.11-7-9C45.26,94.4,45.1,94.24,44.83,93.93Z" style="fill:#687819"/><path d="M118.43,112.45a8.34,8.34,0,0,1-3.38-2.07,9.14,9.14,0,0,1,.74-12.81A12.62,12.62,0,0,1,123,94.62a16.6,16.6,0,0,1,8.15.91,1,1,0,0,1,.24.11c1,.77,2,.52,3,.09,1.55-.62,3.14-1.13,4.71-1.7.27-.1.5-.19.7.11s.64.44.46,1c-.39,1.18-.7,2.39-1,3.59a.66.66,0,0,1-.62.56c-.77.1-1.53.29-2.3.39-.52.06-.53.22-.33.66,1.45,3.21,1.39,6.32-.79,9.21a10,10,0,0,1-6,3.52,19.74,19.74,0,0,1-6.18.41,3,3,0,0,0-2.5,1.16,1.33,1.33,0,0,0,.39,2,6.68,6.68,0,0,0,3.46,1.09c2.7.26,5.43.3,8.13.67a26.3,26.3,0,0,1,6.43,1.45c.41.17,1,.3,1.06.71s-.55.49-.87.7c-1.1.76-2.23,1.48-3.33,2.24a1.09,1.09,0,0,1-1,.14,15,15,0,0,0-12.08,1.08.76.76,0,0,1-.57.11,13,13,0,0,1-6.69-3.27c-2.7-2.7-2.24-6.26,1-8.21A17.37,17.37,0,0,1,118.43,112.45Zm11-7.75c0-2.73-.56-4.5-1.7-5.84a3.17,3.17,0,0,0-5.13,0,8.82,8.82,0,0,0-.12,10.34,3.24,3.24,0,0,0,5.4-.08A7.52,7.52,0,0,0,129.41,104.7Z" style="fill:#687819"/><path d="M146.09,112.46a7.78,7.78,0,0,1-3.75-2.47,9.14,9.14,0,0,1,2.81-13.66,15.55,15.55,0,0,1,8.78-1.81,13.7,13.7,0,0,1,6.14,1.65.81.81,0,0,0,.75,0l5.84-2.1c.27-.1.53-.25.77.07s.62.53.45,1.08c-.38,1.16-.71,2.34-1,3.53a.66.66,0,0,1-.63.56c-.94.14-1.88.33-2.86.51a10,10,0,0,1,1.2,4.27,8.41,8.41,0,0,1-5.26,8.18,16.66,16.66,0,0,1-8,1.25,3.75,3.75,0,0,0-2.85.81,1.35,1.35,0,0,0,0,2.27,5,5,0,0,0,2.43,1c2.4.47,4.83.82,7.22,1.36A23.9,23.9,0,0,1,169,124.44l.34.32a1.37,1.37,0,0,1,.12.17.93.93,0,0,1-.58.07h-7.7a1.76,1.76,0,0,1-.84-.16,17.54,17.54,0,0,0-12.31-1.17,2.4,2.4,0,0,1-1.3,0,8.15,8.15,0,0,1-4.41-2.85,4.75,4.75,0,0,1,.91-6.88A10.32,10.32,0,0,1,146.09,112.46Zm10.7-8.34a8.35,8.35,0,0,0-1.46-4.92c-1.61-2.2-4.06-2.2-5.68,0a9,9,0,0,0,0,9.72c1.67,2.29,4.18,2.27,5.81,0A8.38,8.38,0,0,0,156.8,104.12Z" style="fill:#687819"/><path d="M101.23,119.48a18,18,0,0,1-6.18,3,10.08,10.08,0,0,1-5.92-.25c-2.4-.85-3.51-2.75-4-5.13a16.14,16.14,0,0,1-.25-3c0-4.33,0-8.66,0-13,0-1.36-.32-1.67-1.66-1.85-1.54-.21-1.53-.21-1.54-1.8,0-.44.11-.6.57-.67,3-.45,5.9-.94,8.85-1.4.71-.11,1,.2,1,1q0,8.7,0,17.41a6.21,6.21,0,0,0,.2,1.59,4,4,0,0,0,4.36,3.14,4.35,4.35,0,0,0,4.27-3.55,6.84,6.84,0,0,0,.17-1.52q0-6.19,0-12.39a2.82,2.82,0,0,0-.1-.93,1,1,0,0,0-.9-.78c-.55-.06-1.1-.19-1.65-.26-.34,0-.45-.2-.44-.53a9.25,9.25,0,0,0,0-1.27c0-.38.14-.48.48-.54,2.11-.33,4.23-.67,6.34-1l2.24-.37c1-.16,1.26.06,1.26,1.06q0,10.41,0,20.82c0,.2,0,.4,0,.6a1.71,1.71,0,0,0,1.76,1.73c.55,0,1.27-.06,1.6.24s0,1.06.12,1.6-.1.75-.71.74c-2.95,0-5.89,0-8.84,0-.47,0-.67-.1-.71-.6C101.52,120.92,101.36,120.25,101.23,119.48Z" style="fill:#687819"/><path d="M182.38,108.86c-2.19,0-4.37,0-6.56,0-.42,0-.6.11-.6.55a12.59,12.59,0,0,0,1.83,6.75c1.47,2.36,3.69,3.12,6.57,2.33a7.13,7.13,0,0,0,4.95-4.4c.17-.41.3-.55.67-.24a3,3,0,0,0,.4.25c1.4.84,1.41.85.72,2.31-1.49,3.16-3.71,5.58-7.27,6.23-4.73.85-9.07.05-12.46-3.71a11.92,11.92,0,0,1-2.75-6.07,19.49,19.49,0,0,1,.27-8.75c1.38-4.95,4.77-7.67,9.72-8.57a13.73,13.73,0,0,1,6.28.37,9.14,9.14,0,0,1,6.93,7.81,15.2,15.2,0,0,1,.25,2.66,2.19,2.19,0,0,1-2.4,2.48c-.38,0-.76,0-1.14,0Zm-3.12-2.91c1.14,0,2.27,0,3.41,0a.81.81,0,0,0,.93-.74,7.89,7.89,0,0,0-1.09-5.64,3.05,3.05,0,0,0-4.5-.8,4.74,4.74,0,0,0-1.33,1.49,12.62,12.62,0,0,0-1.37,5.32c0,.38.2.37.46.37Z" style="fill:#687819"/><path d="M132.44,144c1,0,1.92,0,2.88,0,.51,0,.61.15.64.63a17.4,17.4,0,0,0,8.71,14.64,16.27,16.27,0,0,0,20.83-3.58,17.69,17.69,0,0,0,4.42-11.21c0-.39.13-.48.49-.47,2,0,3.93,0,5.89,0,.53,0,.63.15.57.64a23,23,0,0,1-5.35,12.81,24.24,24.24,0,0,1-42.26-10.38,20.68,20.68,0,0,1-.37-2.65c0-.35.07-.42.39-.42C130.34,144,131.39,144,132.44,144Z" style="fill:#687819"/><path d="M196.31,108.11c0-2.81,0-5.62,0-8.43,0-.58-.16-.72-.7-.68s-1.34,0-2,0c-.36,0-.56-.07-.5-.47a.88.88,0,0,0,0-.13,5.44,5.44,0,0,1,.06-2.12c.32-.67,1.27-.3,1.92-.5a7.74,7.74,0,0,0,5.08-5.1c.49-1.3.47-1.3,1.9-1.3s1.46,0,1.46,1.45,0,3,0,4.55c0,.53.16.62.64.61,1.49,0,3,0,4.48,0,.41,0,.54.11.52.53a18,18,0,0,0,0,2c0,.44-.15.51-.53.5-1.52,0-3,0-4.55,0-.43,0-.56.1-.56.55,0,5,0,10,0,15.06a6.81,6.81,0,0,0,.17,1.46,3,3,0,0,0,3.82,2.59,11.73,11.73,0,0,0,1.81-.45c.35-.11.48,0,.58.3.56,1.83.9,1.32-.8,2.33a13.13,13.13,0,0,1-6.65,2,5.68,5.68,0,0,1-6-5.15,10.08,10.08,0,0,1-.13-1.66C196.32,113.37,196.31,110.74,196.31,108.11Z" style="fill:#687819"/><path d="M139.86,164a21.08,21.08,0,0,1-5.82,1.74,23.91,23.91,0,0,1-20.52-6.14,23,23,0,0,1-7.45-15.12c0-.38,0-.55.46-.54q2.94,0,5.89,0c.48,0,.51.19.54.58.55,7.59,4.26,13,11.21,16.16a15.26,15.26,0,0,0,10.73.49,1,1,0,0,1,.94.09C137.13,162.22,138.45,163.09,139.86,164Z" style="fill:#687819"/><path d="M99,137.88H96.64c.52-.41.42-.92.42-1.4a35.76,35.76,0,0,0-.12-3.66l-2.66,5.05-2.59-5.14c-.25,2.23-.13,4.57.3,5.16a12.78,12.78,0,0,1-2.22,0,1,1,0,0,0,.47-1.05c0-1.78,0-3.57,0-5.35,0-.35.09-.73-.32-1h2.71c-.43.4-.14.75,0,1.1l1.65,3.36c.86-.93,2.19-3.92,2-4.47h2.64c-.45.37-.36.81-.36,1.23,0,1.76,0,3.52,0,5.28A.91.91,0,0,0,99,137.88Z" style="fill:#fefefe"/><path d="M135.86,137.86h-2.8c.4-.35.2-.64,0-.94a5.19,5.19,0,0,1-.62-.95c-.44-1.12-1.32-1.2-2.32-1.1-.24,0-.37.06-.36.34,0,.67,0,1.34,0,2,0,.29.2.41.48.65h-2.5a.94.94,0,0,0,.42-1q0-2.71,0-5.42a1.43,1.43,0,0,0-.27-1.05h1.77c1.16,0,2.32-.05,3.47.07a2.15,2.15,0,0,1,2.13,2.73,1.89,1.89,0,0,1-1.31,1.4c-.54.18-.44.38-.19.72a15.41,15.41,0,0,1,.9,1.33A4.81,4.81,0,0,0,135.86,137.86Zm-4.54-4.11v0c.51,0,1,0,1.52-.11s.92-.34.92-1a.87.87,0,0,0-.95-.9c-.91,0-1.82,0-2.73-.06-.26,0-.32.1-.35.35-.16,1.65-.17,1.65,1.45,1.65Z" style="fill:#fefefe"/><path d="M171.58,129.9v2.26a1,1,0,0,0-1-.38c-1.14,0-2.28,0-3.41,0-.58,0-.76.18-.67.71a.92.92,0,0,1,0,.27c-.06.47.09.69.62.65s1.2,0,1.81,0a.88.88,0,0,0,1-.49V135a.93.93,0,0,0-1-.41h-1.4c-1,0-1,0-1,1s-.13.87.89.88h3.41a.72.72,0,0,0,.82-.51v2.25c-.32-.45-.76-.35-1.18-.35h-5.94a1.83,1.83,0,0,0,.38-1.52c0-1.61,0-3.21,0-4.82a1.44,1.44,0,0,0-.29-1.18h6C170.94,130.41,171.3,130.47,171.58,129.9Z" style="fill:#fefefe"/><path d="M206.79,131.18l-.87,1.74a3.36,3.36,0,0,0-3.42-1.22,2.13,2.13,0,0,0-.68.25.63.63,0,0,0-.37.66.56.56,0,0,0,.55.5c.64.08,1.28.14,1.93.19a5,5,0,0,1,1.74.42,2,2,0,0,1,.37,3.53,5,5,0,0,1-4,.68,5.11,5.11,0,0,1-1.33-.43.88.88,0,0,0-.95-.08,10.21,10.21,0,0,1,.78-1.91,3.8,3.8,0,0,0,4.28.86.77.77,0,0,0,.45-.76c-.06-.4-.38-.53-.73-.57-.91-.1-1.82-.13-2.72-.27-1.17-.17-1.81-.75-1.93-1.64a2.23,2.23,0,0,1,1.46-2.44,5.41,5.41,0,0,1,4.16.11c.39.15.74.53,1.25.22Z" style="fill:#fefefe"/><path d="M154.15,130.47c-.22.43-.64.53-.93.78-.74.64-1.49,1.27-2.27,1.87-.33.26-.34.43-.07.73a31.18,31.18,0,0,0,3.55,4h-2.81c-.14,0-.23-.13-.12-.21.33-.24.11-.41,0-.59-.6-.74-1.22-1.48-1.81-2.23-.2-.26-.35-.3-.63-.08a2.6,2.6,0,0,0-.38,3.17,14.91,14.91,0,0,1-2.43,0,1,1,0,0,0,.49-1c0-1.78,0-3.57,0-5.35,0-.35.07-.72-.31-1h2.21c-.56.93-.15,1.93-.17,3,.95-.79,1.9-1.56,2.83-2.36.28-.24-.12-.36-.16-.61Z" style="fill:#fefefe"/><path d="M112.07,130.45h2.48c-.53.4-.32.77-.13,1.18q1.16,2.4,2.29,4.82a3,3,0,0,0,1,1.43H115c.61-.61,0-1.1-.15-1.63-.1-.28-.33-.25-.55-.25-.71,0-1.43,0-2.14,0-.31,0-.7-.14-.82.34s-.72.94,0,1.53h-2.42a4.84,4.84,0,0,0,1.32-2.18c.68-1.4,1.31-2.82,2-4.23C112.38,131.1,112.49,130.78,112.07,130.45Zm1.12,2-1.06,2.24c-.12.24,0,.32.22.32h1.54c.31,0,.41-.08.26-.39C113.83,133.9,113.54,133.21,113.19,132.41Z" style="fill:#fefefe"/><path d="M189.32,130.11v2c-.82-.51-1.7-.2-2.55-.27-.28,0-.23.22-.23.38,0,1.67,0,3.35,0,5,0,.28.2.41.33.67h-2.37c.52-.34.44-.77.44-1.2,0-1.41,0-2.81,0-4.21,0-.59-.17-.73-.71-.67a8.46,8.46,0,0,1-1.2,0,.8.8,0,0,0-.87.47V130c.28.48.66.42,1,.42h5.09C188.64,130.4,189,130.51,189.32,130.11Z" style="fill:#fefefe"/><path d="M131.33,133.75h-.13c-1.61,0-1.61,0-1.45-1.65,0-.25.09-.36.35-.35.91,0,1.82,0,2.73.06a.87.87,0,0,1,.95.9c0,.61-.39.87-.92,1s-1,.08-1.52.11Z" style="fill:#687819"/><path d="M113.19,132.41c.35.79.64,1.49,1,2.17.15.31,0,.4-.26.39h-1.54c-.24,0-.34-.08-.22-.32Z" style="fill:#687819"/></svg>