<svg xmlns="http://www.w3.org/2000/svg" viewBox="0 0 250 250"><title>Casual dining</title><path d="M25,117.31c.15-.85.26-1.72.44-2.56,1.25-5.71,4.14-10.28,9.45-13a17.25,17.25,0,0,1,13.61-1.16,12.72,12.72,0,0,1,9,10.66,20,20,0,0,1-4.22,16.46,16.61,16.61,0,0,1-11.62,6.21,16.52,16.52,0,0,1-8.33-1.05,13.13,13.13,0,0,1-7.92-9.51c-.18-.75-.3-1.52-.45-2.29Q25,119.17,25,117.31Zm9.1,1.11a10.49,10.49,0,0,0,1.22,5.38,5.58,5.58,0,0,0,4.59,3,6.79,6.79,0,0,0,6.06-2.9,13.56,13.56,0,0,0,2.73-7.22,11.65,11.65,0,0,0-.77-6A5.77,5.77,0,0,0,42,107a6.9,6.9,0,0,0-5.2,3A14.22,14.22,0,0,0,34.1,118.42Z" style="fill:#6eb43f"/><path d="M136.35,154.39l-4.38-5.1-1.53-1.75c0,.3,0,.47,0,.64,0,1.88,0,3.76,0,5.64,0,.24,0,.34-.3.35-1.12,0-1.13.06-1.07-1.05.13-2.63.14-5.25.11-7.88,0-.16-.11-.37.15-.47s.32.12.43.25l5.34,6.17.32.36c.18-.12.1-.28.1-.41,0-1.93.07-3.87-.08-5.8,0-.33.07-.39.38-.39,1.06,0,1.06,0,1,1-.11,2.7-.13,5.4-.12,8.1a1.53,1.53,0,0,1-.09.36Z" style="fill:#010101"/><path d="M101.25,154.39c0-.08-.09-.1-.16-.12a3.14,3.14,0,0,1-2.41-3.3c0-1.9,0-3.8-.07-5.69,0-.27.07-.32.33-.33,1.09,0,1.06,0,1.06,1,0,1.72,0,3.43,0,5.15a2.37,2.37,0,0,0,4.73-.21c0-1.9.07-3.8-.07-5.69,0-.42.29-.31.42-.26.33.13,1-.39,1,.23.06,1.88,0,3.76,0,5.64a3.3,3.3,0,0,1-2.91,3.47s0,.06,0,.09Z" style="fill:#010101"/><path d="M73.71,154.39c-.4-.15-.8-.31-1.2-.44a.7.7,0,0,1-.56-.89c0-.23,0-.46.06-.77a4.94,4.94,0,0,0,2.44.93c1.11.06,1.82-.52,1.8-1.49a1.29,1.29,0,0,0-.48-.95,7.41,7.41,0,0,0-1.37-.9c-.33-.19-.66-.39-1-.6a2.18,2.18,0,0,1-1.1-2.31,2.56,2.56,0,0,1,2-2.11,3.58,3.58,0,0,1,2.55.26c.41.19.51.37.32.82s-.27.65-.78.33a2.11,2.11,0,0,0-1.94-.22,1.18,1.18,0,0,0-.39,2.06,6.75,6.75,0,0,0,1.19.76c.38.22.76.43,1.13.67a2.38,2.38,0,0,1,1.15,2.58,2.64,2.64,0,0,1-2,2.16c-.1,0-.23,0-.28.11Z" style="fill:#010101"/><path d="M225,132.45a2.77,2.77,0,0,1-1.48,1.42,2.2,2.2,0,0,1-1.57-4.09,2.21,2.21,0,0,1,2.85,1c.06.12,0,.29.21.34Zm-2.11-2.52a1.8,1.8,0,0,0-1.88,1.79,1.82,1.82,0,1,0,1.88-1.79Z" style="fill:#010101"/><path d="M97.36,102.64c-.93,5.23-1.59,10.45-2.45,15.69.28-.12.35-.33.46-.5a13.66,13.66,0,0,1,5.35-4.89,6.62,6.62,0,0,1,4.1-.6,3.33,3.33,0,0,1,2.91,3,14.93,14.93,0,0,1-.26,4.46c-.38,2.49-.78,5-1.15,7.47-.21,1.42.16,1.75,1.55,1.4l.49-.12a2.82,2.82,0,0,1-.08,1.09c-.11,1-.24,1.92-.38,2.88,0,.21,0,.41-.32.5a14.67,14.67,0,0,1-6.9.7,2.56,2.56,0,0,1-2.29-2.59,21.2,21.2,0,0,1,.5-4.94c.31-2,.65-4,.95-6.06.07-.5.18-1.07-.32-1.41a1.49,1.49,0,0,0-1.56.13A6,6,0,0,0,96,120.55a10,10,0,0,0-2.22,5.21c-.3,2.41-.79,4.79-1,7.21,0,.25-.12.3-.34.3H85.32c-.29,0-.32-.08-.26-.35.93-4.71,1.53-9.47,2.26-14.22q.92-6,1.79-12c.16-1.07.27-2.14.39-3.21,0-.23.05-.36.33-.37A67.93,67.93,0,0,0,97.36,102.64Z" style="fill:#010101"/><path d="M83.53,124.35l-.75,4.6-.41,2.48c0,.27-.08.52-.39.66-5.15,2.42-10.34,2.81-15.46.07a11.59,11.59,0,0,1-6-8.86,17.16,17.16,0,0,1,4.31-14.76,15.85,15.85,0,0,1,12-5.27,16.41,16.41,0,0,1,8.8,2.21.58.58,0,0,1,.31.85c-.71,1.89-1.38,3.8-2.06,5.7,0,.08-.07.16-.13.27a10.42,10.42,0,0,0-4.44-2,8.68,8.68,0,0,0-10.45,7,10.29,10.29,0,0,0,.08,5,6.72,6.72,0,0,0,5.83,4.84,11.81,11.81,0,0,0,8.15-2.24Z" style="fill:#010101"/><path d="M132,128.58c-.19,1.44-.37,2.79-.55,4.15a.38.38,0,0,1-.29.34,12.16,12.16,0,0,1-6.29.7,2.73,2.73,0,0,1-2.38-2.55,14.48,14.48,0,0,1,.06-2.73,1.4,1.4,0,0,0-.38.54,9.58,9.58,0,0,1-4.88,4.6A5.21,5.21,0,0,1,110,129.3a15.23,15.23,0,0,1,6.1-15.29,8,8,0,0,1,8.87-.86,2.5,2.5,0,0,1,.74.46,1,1,0,0,0,1.29.16c1.18-.57,2.39-1.07,3.6-1.6a2.16,2.16,0,0,1,1.49.42c.09.14,0,.29,0,.43q-.85,5.69-1.7,11.37-.23,1.52-.45,3a2.84,2.84,0,0,0,0,.33c0,1,.28,1.25,1.26,1.05C131.41,128.75,131.67,128.67,132,128.58Zm-14.7-3.37a5,5,0,0,0,.28,1.74,1.54,1.54,0,0,0,2.07.88,3,3,0,0,0,1-.63,7.64,7.64,0,0,0,1.68-2.53,20,20,0,0,0,1.27-5.46c.15-1,0-1.29-1.09-1.46a2.89,2.89,0,0,0-2.13.47,5.25,5.25,0,0,0-1.47,1.53A10.1,10.1,0,0,0,117.33,125.21Z" style="fill:#010101"/><path d="M180.52,142.4l.9-1.6q2.35-4.17,4.72-8.33a1.28,1.28,0,0,0,.15-1.08c-1.62-5.79-3.19-11.59-5-17.32-.33-1-.33-1,.76-1.06,2-.12,4-.25,6.06-.42.48,0,.65.09.74.55.73,3.59,1.47,7.18,2.22,10.77a2,2,0,0,0,.12.3c1-2.33,2-4.61,2.91-6.89.57-1.36,1.13-2.72,1.7-4.09.07-.16.08-.34.35-.34,2.55,0,5.1,0,7.67-.2a2.07,2.07,0,0,1-.34.76q-6,11.58-12.1,23.15c-.88,1.68-1.83,3.32-2.64,5a.43.43,0,0,1-.43.32q-3.8.12-7.59.49S180.59,142.45,180.52,142.4Z" style="fill:#010101"/><path d="M179.71,125.49l-.74,3.87a10.74,10.74,0,0,0-.26,1.4,1.46,1.46,0,0,1-1,1.34,16.66,16.66,0,0,1-8.29,1.88c-2.9-.18-5.44-1.12-7.09-3.69a9.12,9.12,0,0,1-1.29-6,12.81,12.81,0,0,1,7.83-11,10.37,10.37,0,0,1,7.64-.51,5.37,5.37,0,0,1,3.94,4.28,5,5,0,0,1-1.6,4.76,14.13,14.13,0,0,1-5.71,2.89,34.89,34.89,0,0,1-4.09,1c-.39.07-.52.15-.39.58a2.88,2.88,0,0,0,3.3,2.23,11.82,11.82,0,0,0,3.68-1c.69-.29,1.37-.6,2-.93S179,125.86,179.71,125.49Zm-11-3.09a13.38,13.38,0,0,0,3.86-1.59,2.72,2.72,0,0,0,1.3-1.93,1.34,1.34,0,0,0-1.31-1.59,2.38,2.38,0,0,0-1.87.73A8,8,0,0,0,168.68,122.4Z" style="fill:#010101"/><path d="M211.15,134a16.49,16.49,0,0,1-7.68-2.06.66.66,0,0,1-.38-.83c.3-1.43.59-2.86.83-4.3.08-.48.21-.4.53-.21a18,18,0,0,0,5.35,2.17,4.86,4.86,0,0,0,2.33.06,1.31,1.31,0,0,0,1-1,1.19,1.19,0,0,0-.52-1.24,11,11,0,0,0-2.29-1.27,26.32,26.32,0,0,1-2.4-1.3c-4-2.51-3.28-7.94-.17-10.11a9.54,9.54,0,0,1,4.92-1.65,14.65,14.65,0,0,1,7.58,1.55c.39.19.53.35.31.81-.6,1.25-1.14,2.52-1.68,3.8-.15.36-.24.47-.64.23a9.25,9.25,0,0,0-3.34-1.32,3.61,3.61,0,0,0-1.95.1,1.35,1.35,0,0,0-.93,1.06,1.21,1.21,0,0,0,.61,1.2,12.73,12.73,0,0,0,2.21,1.2,17.71,17.71,0,0,1,2.67,1.49,5.73,5.73,0,0,1,1.33,8.33,8.18,8.18,0,0,1-5.22,3A11.87,11.87,0,0,1,211.15,134Z" style="fill:#010101"/><path d="M160.27,128.6c-.18,1.4-.37,2.77-.54,4.14a.37.37,0,0,1-.31.33,14.33,14.33,0,0,1-6.79.7,2.57,2.57,0,0,1-2.34-2.66,19.36,19.36,0,0,1,.38-4.3q.9-6.06,1.82-12.12c.42-2.83.85-5.67,1.26-8.5.12-.85.21-1.7.28-2.56,0-.33.11-.47.48-.47a60.93,60.93,0,0,0,7.1-.5c.31,0,.33,0,.27.31-.88,4.61-1.44,9.26-2.15,13.9-.54,3.55-1.05,7.11-1.57,10.66,0,.09,0,.18,0,.27-.06.79.22,1.1,1,1A10.5,10.5,0,0,0,160.27,128.6Z" style="fill:#010101"/><path d="M143.06,118.2a20.64,20.64,0,0,1,2.43-3.42,7.59,7.59,0,0,1,4.51-2.49c.65-.09.65-.09.56.54-.32,2.15-.64,4.3-.92,6.45-.07.54-.22.71-.79.66a6.2,6.2,0,0,0-6.57,4,12.89,12.89,0,0,0-.51,3c-.27,2-.68,4-.8,6,0,.23-.09.32-.33.32h-7.18c-.28,0-.27-.11-.23-.34.94-4.86,1.61-9.75,2.31-14.65a29,29,0,0,0,.21-4.65c0-.37,0-.52.49-.54a45.72,45.72,0,0,0,6.37-.58c.48-.08.61,0,.63.48a24.14,24.14,0,0,1-.26,5.13c0,.08-.06.16,0,.24Z" style="fill:#010101"/><path d="M59.12,109.78c.43-3.4.62-6.83,1.2-10.22a8.21,8.21,0,0,1,.51-1.78,3.29,3.29,0,0,1,3.08-2.16,4,4,0,0,1,3.75,1.81,2.11,2.11,0,0,1,.14,1.85,10.26,10.26,0,0,1-1.72,3q-3,4.07-6.07,8.11c-.13.17-.22.54-.47.43a.69.69,0,0,1-.45-.79A1.62,1.62,0,0,0,59.12,109.78Z" style="fill:#6eb43f"/><path d="M169.5,149.21a2.47,2.47,0,0,1-.59,4.85,23.84,23.84,0,0,1-3.6.12c-.24,0-.25-.1-.24-.3.1-2.86.09-5.73,0-8.59,0-.14-.09-.33.15-.32,1.32,0,2.66-.28,4,.2a2.23,2.23,0,0,1,1.63,2.32A2.16,2.16,0,0,1,169.5,149.21Zm-3.08,2.24c0,.4,0,.8,0,1.21,0,.14,0,.31.18.32a5.69,5.69,0,0,0,2.33-.14,1.45,1.45,0,0,0,1-1.39,1.43,1.43,0,0,0-1-1.32,4.19,4.19,0,0,0-1.45-.24c-1.05,0-1.05,0-1.05,1Q166.42,151.17,166.42,151.45Zm0-4.05c0,.38,0,.76,0,1.15,0,.16,0,.27.23.27a5.7,5.7,0,0,0,1.68-.09,1.36,1.36,0,0,0,1.17-1.31c0-.66-.38-1.08-1.18-1.28a3.07,3.07,0,0,0-.54-.08c-1.35-.08-1.35-.08-1.35,1.24Z" style="fill:#010101"/><path d="M116.07,154.09c-.48.06-.89.1-1.3.16-.25,0-.3-.15-.4-.3l-1.94-3a1.87,1.87,0,0,0-1.57-.35c-.15.1-.08.27-.08.4,0,.95,0,1.9,0,2.85,0,.3-.08.36-.36.36-1.09,0-1.06,0-1-1,.09-2.57.11-5.15,0-7.72,0-.37,0-.51.44-.49.89,0,1.79-.12,2.68,0a4.37,4.37,0,0,1,.75.14,2.53,2.53,0,0,1,2,2.06,2.59,2.59,0,0,1-1.36,2.82c-.44.25-.49.39-.18.8C114.53,151.83,115.27,152.93,116.07,154.09Zm-5.3-6.34V148c0,1.61,0,1.63,1.63,1.42a1.71,1.71,0,0,0,1.57-1.67,1.55,1.55,0,0,0-1.44-1.68,12.64,12.64,0,0,0-1.52,0c-.25,0-.24.16-.24.33C110.78,146.84,110.77,147.29,110.77,147.75Z" style="fill:#010101"/><path d="M58.9,150.27c.85,1.28,1.72,2.54,2.68,3.81l-1.36.17c-.25,0-.3-.17-.39-.31l-2-3.09a2,2,0,0,0-1.54-.27c-.12.1-.06.24-.06.36,0,1,0,1.94,0,2.9,0,.26-.06.33-.32.34-1.13,0-1.09,0-1.06-1,.09-2.57.1-5.15,0-7.72,0-.34,0-.49.4-.47.93,0,1.86-.11,2.79,0a3.74,3.74,0,0,1,1,.25,2.45,2.45,0,0,1,1.69,2,2.64,2.64,0,0,1-1.15,2.67C59.38,150,59.14,150.12,58.9,150.27Zm-2.65-2.53V148c0,1.62,0,1.62,1.62,1.43a1.72,1.72,0,0,0,1.58-1.66,1.56,1.56,0,0,0-1.48-1.7,14.14,14.14,0,0,0-1.47,0c-.24,0-.25.15-.25.32C56.25,146.83,56.25,147.28,56.25,147.74Z" style="fill:#010101"/><path d="M188.18,150.27c.85,1.28,1.71,2.53,2.68,3.81l-1.37.18c-.24,0-.29-.19-.38-.33l-2-3.09a2,2,0,0,0-1.55-.24c-.11.1-.05.24-.05.36,0,.95,0,1.9,0,2.85,0,.29-.07.37-.36.37-1,0-1,0-1-1,0-2.63.06-5.26,0-7.89,0-.14-.07-.31.17-.31a16.41,16.41,0,0,1,3.49.08,2.63,2.63,0,0,1,2.22,2.13,2.75,2.75,0,0,1-1.52,2.9Zm-2.66-2.53c0,.48,0,1,0,1.43,0,.21.05.3.27.29.46,0,.92,0,1.37,0a1.64,1.64,0,0,0,1.54-1.68,1.53,1.53,0,0,0-1.5-1.68c-.47-.05-.95,0-1.42,0-.24,0-.26.13-.26.32C185.53,146.82,185.52,147.28,185.52,147.74Z" style="fill:#010101"/><path d="M181.67,154.12l0,0c-1.29.2-1.29.2-1.82-1-.18-.4-.39-.79-.53-1.2a.58.58,0,0,0-.67-.46c-1,0-1.94,0-2.91,0a.57.57,0,0,0-.65.47c-.22.6-.51,1.17-.71,1.77a.52.52,0,0,1-.64.41c-.3,0-.61,0-1,0l1.37-3c.92-2,1.91-4,2.75-6.07.07-.18.16-.34.37-.36s.21.18.27.3q2.1,4.48,4.19,9A.3.3,0,0,1,181.67,154.12Zm-3.1-3.68-1.42-3.2-1.42,3.2Z" style="fill:#010101"/><path d="M117.74,154.17l2.3-5c.63-1.35,1.28-2.69,1.83-4.08.06-.17.14-.29.33-.33s.24.19.3.31q2.09,4.45,4.17,8.9a.61.61,0,0,1,0,.16c-1.36.21-1.34.21-1.9-1-.24-.53-.32-1.26-.78-1.52s-1.1-.07-1.67-.07-1.17,0-1.75,0a.42.42,0,0,0-.48.32c-.23.61-.52,1.21-.73,1.83-.13.4-.33.55-.75.5A7.74,7.74,0,0,0,117.74,154.17Zm5.85-3.74-1.42-3.19-1.41,3.19Z" style="fill:#010101"/><path d="M87.76,154.17c.56-1.2,1.09-2.33,1.6-3.47q1.27-2.78,2.52-5.57c.08-.18.16-.33.36-.36s.21.17.27.29l4.22,9.05s0,.06-.07.06c-1.31.13-1.31.13-1.84-1.05-.23-.51-.35-1.19-.75-1.49s-1.09-.07-1.65-.09a11.61,11.61,0,0,1-1.37,0c-.63-.09-.92.18-1.09.74s-.4,1-.57,1.48c-.11.32-.27.47-.63.43A9,9,0,0,0,87.76,154.17Zm5.86-3.73-1.43-3.19-1.41,3.19Z" style="fill:#010101"/><path d="M64.28,150c0-1.59,0-3.18-.1-4.76,0-.27,0-.37.35-.35a35.74,35.74,0,0,0,4.44,0c.33,0,.39.08.36.39-.06.76,0,.76-.78.75s-1.72,0-2.58,0c-.32,0-.41.1-.4.4,0,.66,0,1.32,0,2,0,.33.12.39.42.38.77,0,1.53,0,2.3,0,.22,0,.58-.08.45.31s.33.89-.45.85-1.53,0-2.3,0c-.28,0-.43,0-.42.37,0,.8,0,1.61,0,2.41,0,.31.07.44.42.43,1.06,0,2.12,0,3.18,0,.32,0,.54,0,.41.43a.81.81,0,0,0,0,.33c0,.34-.11.4-.44.39-1.52,0-3,0-4.55,0-.28,0-.43,0-.4-.36C64.31,152.57,64.26,151.29,64.28,150Z" style="fill:#010101"/><path d="M144,150.15c0,1.22,0,2.45,0,3.67,0,.32-.1.35-.37.35-1.08,0-1,0-1-1,0-2.19,0-4.38,0-6.57,0-.4-.11-.57-.55-.54-.73,0-1.46,0-2.19,0-.33,0-.39-.1-.36-.4.08-.79.06-.8.78-.77,2.12.08,4.23.07,6.35,0,.4,0,.47.1.39.44a1.12,1.12,0,0,0,0,.38c0,.3-.1.37-.38.36-.73,0-1.46,0-2.19,0-.46,0-.52.15-.52.55,0,1.19,0,2.37,0,3.56Z" style="fill:#010101"/><path d="M84,150.19c0,1.19,0,2.37,0,3.56,0,.32,0,.43-.4.43-1,0-1,0-1-1q.09-3.36,0-6.73c0-.31-.09-.4-.4-.39-.77,0-1.53,0-2.3,0-.29,0-.46,0-.39-.37a1.62,1.62,0,0,0,0-.44c0-.31.09-.39.41-.38q3.36.14,6.73,0c.36,0,.42.09.38.42-.09.76-.07.75-.85.75-.57,0-1.13,0-1.7,0s-.63.1-.62.59c0,1.19,0,2.37,0,3.56Z" style="fill:#010101"/><path d="M207.17,110.86a4.38,4.38,0,0,1-.76,2.36,10,10,0,0,1-1.61,2c-.1.1-.22.4-.4.11s-.57-.33-.25-.7a7.78,7.78,0,0,0,.89-1.25c.58-1.06.42-1.64-.61-2.24-.11-.07-.2-.12-.22-.28a2,2,0,0,1,1-1.77,1.29,1.29,0,0,1,1.7.56A2.33,2.33,0,0,1,207.17,110.86Z" style="fill:#010101"/><path d="M155.9,151.28c0,.15,0,.29,0,.44,0,.67-.25.85-.92.7-.23-.05-.16-.19-.15-.32,0-.56,0-1.13.07-1.69,0-.32-.1-.4-.4-.39-.51,0-1,0-1.53,0-.28,0-.39-.09-.28-.35s-.29-.68.32-.65,1,0,1.53,0c.28,0,.39-.06.37-.36,0-.54,0-1.09-.08-1.64,0-.3,0-.4.33-.37a1.25,1.25,0,0,0,.38,0c.31-.07.42,0,.39.36-.05.56,0,1.13,0,1.69,0,.27.07.35.34.34.53,0,1.06,0,1.58,0,.28,0,.33,0,.33.34,0,.53-.16.76-.7.66a3.4,3.4,0,0,0-.6,0c-1,0-1,0-.92.93C155.9,151.06,155.9,151.17,155.9,151.28Z" style="fill:#010101"/><path d="M143.06,118.2l-.07.18c-.07-.08,0-.16,0-.24Z" style="fill:#fdfefd"/><path d="M223.8,132.73c-.25.14-.43.12-.57-.12a3.68,3.68,0,0,0-.29-.39c-.08-.1-.13-.24-.29-.2s-.1.2-.12.32a2.29,2.29,0,0,0,0,.27c0,.14-.08.18-.21.19s-.19-.07-.19-.2c0-.58,0-1.16,0-1.75a.22.22,0,0,1,.05-.15,1.49,1.49,0,0,1,1.29.18.58.58,0,0,1-.05.91c-.2.17-.15.26,0,.42S223.66,132.55,223.8,132.73Zm-1-1.75c-.27,0-.29.14-.28.34s-.07.39.24.37.49-.09.48-.4S223,131,222.81,131Z" style="fill:#010101"/></svg>