<svg xmlns="http://www.w3.org/2000/svg" viewBox="0 0 250 250"><title>Casual dining</title><rect width="250" height="250" style="fill:#54311a"/><rect x="35" y="59.7" width="180" height="130.61" style="fill:#54311a"/><path d="M96.62,175h1.29v6.12H96.62Z" style="fill:#a1b22a"/><path d="M105.87,175v1.14h-2.16v5h-1.3v-5h-2.16V175Z" style="fill:#a1b22a"/><path d="M107.86,181.14l2.59-6.12h1.3l2.59,6.11H113l-.39-.94h-2.94l-.39.94Zm3.28-4.49-1,2.32h1.95Z" style="fill:#a1b22a"/><path d="M118,175v5h3.46v1.14h-4.76V175Z" style="fill:#a1b22a"/><path d="M123.87,175h1.29v6.12h-1.29Z" style="fill:#a1b22a"/><path d="M127.48,181.14l2.59-6.12h1.3l2.59,6.11h-1.38l-.39-.94h-2.94l-.39.94Zm3.28-4.49-1,2.32h1.95Z" style="fill:#a1b22a"/><path d="M136.29,181.14V175h.43l4.06,3.83V175h1.3v6.12h-.48l-4-3.79v3.79Z" style="fill:#a1b22a"/><path d="M149.2,175h1.3v2.45l2.16-2.45h1.46l-2.54,2.85,3.07,3.26H153l-2.46-2.64v2.64h-1.3Z" style="fill:#a1b22a"/><path d="M156.79,175h1.29v6.12h-1.29Z" style="fill:#a1b22a"/><path d="M166,175v1.14h-2.16v5h-1.3v-5h-2.16V175Z" style="fill:#a1b22a"/><path d="M169,180.26a3,3,0,0,1,0-4.36,3.22,3.22,0,0,1,2.3-.88,3.64,3.64,0,0,1,2.38.82l-.86.89a2.48,2.48,0,0,0-1.52-.49,2,2,0,0,0-1.41.51,1.73,1.73,0,0,0-.53,1.3,1.78,1.78,0,0,0,.54,1.35,2,2,0,0,0,1.41.5,2.41,2.41,0,0,0,1.51-.49l.86.89a3.63,3.63,0,0,1-2.38.82A3.26,3.26,0,0,1,169,180.26Z" style="fill:#a1b22a"/><path d="M176.42,181.14V175h1.3v2.45h3V175H182v6.12h-1.3v-2.53h-3v2.53Z" style="fill:#a1b22a"/><path d="M184.79,181.14V175h4.76v1.14h-3.47v1.3h2.6v1.14h-2.6V180h3.46v1.14Z" style="fill:#a1b22a"/><path d="M192.22,181.14V175h.43l4.06,3.83V175H198v6.12h-.48l-4-3.79v3.79Z" style="fill:#a1b22a"/><path d="M180,141.78a9,9,0,0,1,2.83-.15c.65,0,.8.39.77.94-.06,1.21.38,1,1.11.45a8.43,8.43,0,0,1,7.66-1.26c2.94.88,4.71,3.17,4.93,6.55.15,2.39.08,4.79.11,7.19,0,.53,0,1.05.07,1.58.07,1.09.25,2.18,1.4,2.62a3.1,3.1,0,0,0,3.21-.7,2.26,2.26,0,0,1,.57-.44c.72-.27,1-1.86,2-1.06,1.3,1.05,1.35,3.61.34,4.47a7.56,7.56,0,0,1-5.82,2c-3.43-.33-5.56-2.79-5.75-6.75-.12-2.49,0-5-.07-7.48,0-1.55,0-3.23-1.76-3.92a4.62,4.62,0,0,0-5.17,1.1,9.37,9.37,0,0,0-2.76,7.16c0,2.69,0,5.37,0,8.06,0,1-.22,1.46-1.35,1.42-3.22-.13-2.69.4-2.75-2.75,0-.52,0-1,0-1.52-.57-.21-.66.23-.86.44-4.45,4.87-10.8,5.68-16.19,2-.81-.55-1.06-.08-1.52.3-2.64,2.2-5.65,2.42-7.89.6a18,18,0,0,1-1.92-2.26,9.75,9.75,0,0,1-5.29,3.45,9,9,0,0,1-10.77-6,14.52,14.52,0,0,1,.56-11.74,8.19,8.19,0,0,1,8-4.82,9.49,9.49,0,0,1,5.52,1.53c.79.54.73,0,.73-.56,0-3.26.06-6.53,0-9.79,0-1.37.35-1.83,1.76-1.77,2.88.12,2.34-.14,2.35,2.42,0,7.2,0,14.39,0,21.59a6.17,6.17,0,0,0,1.15,4.31,1.9,1.9,0,0,0,2.7.36c.87-.54,1.85-1,1.36-2.58-1.37-4.26-1-8.37,1.87-12a9.44,9.44,0,0,1,9.06-3.6,6.77,6.77,0,0,1,6.13,5.91,7,7,0,0,1-5,7.32,12.45,12.45,0,0,1-6.82,0c-.5-.12-1-.27-1.51-.41a5.5,5.5,0,0,0,4.63,5.72c4.27.71,7.59-.95,10.15-4.29.69-.9,1.23-1.92,1.84-2.89.72-.3.51-.94.51-1.48C180,148,180,144.87,180,141.78Zm-30.38,10.78A9.16,9.16,0,0,0,149,149a5.42,5.42,0,0,0-5.14-3.89,5,5,0,0,0-5,3.73,11,11,0,0,0,.06,7.48,4.93,4.93,0,0,0,4.75,3.53,5.14,5.14,0,0,0,5-3.14A9.58,9.58,0,0,0,149.61,152.56ZM168,150.78a5.37,5.37,0,0,0,1.84-.25,2.89,2.89,0,0,0,2.26-3.07c-.14-1.27-1.23-2.13-2.89-2.28a5.85,5.85,0,0,0-5.9,3.48c-.29.67-.24,1,.51,1.28A13,13,0,0,0,168,150.78Z" style="fill:#e2ddd7"/><path d="M108.46,160.33c-3.56,3.63-7,4.53-10.92,2.94a8.38,8.38,0,0,1-4.71-4.61,14.53,14.53,0,0,1,.09-12.41,9.18,9.18,0,0,1,13-4c.37.21.72.44,1.23.75-.19-1.83,1-1.41,2-1.42,2.17,0,2.17,0,2.17,2.15q0,5.4,0,10.8a9.6,9.6,0,0,0,.64,3.66,2.22,2.22,0,0,0,2,1.66c1.08,0,1.62-.71,2-1.57a13.14,13.14,0,0,0,1-5.06,35.05,35.05,0,0,0-1.11-11.41c-.26-.87-.11-1.37.85-1.54a6.05,6.05,0,0,0,1.37-.43,1.37,1.37,0,0,1,2,.57,3.62,3.62,0,0,0,3,1.4c1,.08,2,0,3,.06a5.16,5.16,0,0,1,5.39,5.48c.07,3.12-.17,6.24.18,9.35s1.3,6,3.75,8.17c2.67,2.35,5.89,2.66,9.21,2.23a1.45,1.45,0,0,1,1.89,1.13c1,2.75,1.09,2.74-1.93,3-6.42.6-11.67-1.35-14.95-7.2a19.6,19.6,0,0,1-2.23-9.43c0-2.35-.06-4.7,0-7.05,0-1.2-.52-1.65-1.64-1.61a14.1,14.1,0,0,1-4.15-.3c-1-.26-.79.35-.76,1,.23,3.93.46,7.88-.6,11.73-.71,2.6-1.94,4.84-4.88,5.48C112.66,164.42,110.79,163.47,108.46,160.33ZM107,152.8a9.32,9.32,0,0,0-1.27-5.11,5.1,5.1,0,0,0-5.12-2.49,4.75,4.75,0,0,0-4.2,3.22,11,11,0,0,0-.34,7.32c.77,2.65,2.51,4.05,4.88,4.13a5.38,5.38,0,0,0,5.44-3.86A10.14,10.14,0,0,0,107,152.8Z" style="fill:#e2ddd7"/><path d="M85.22,158.4A21.94,21.94,0,0,1,81.5,162c-8.57,5.64-19.46,1.43-21.67-8.58-1.6-7.27-.42-14.09,5.49-19.17,4.51-3.88,9.89-4.5,15.38-2.15a8.14,8.14,0,0,1,5.06,7.74,8.79,8.79,0,0,1-4.52,8.13c-.93.58-1.47.46-1.75-.63A5.9,5.9,0,0,0,79,146c-.46-.83-.26-1.32.55-1.86A4.86,4.86,0,0,0,78,135.34,10.81,10.81,0,0,0,65.64,140a15.93,15.93,0,0,0-1.6,13.3,9.18,9.18,0,0,0,7.59,6.84,10.43,10.43,0,0,0,10.14-3.44,14.22,14.22,0,0,0,3.38-8.83c.07-1.06.27-1.5,1.46-1.46,2.66.08,2.67,0,2.67,2.64,0,4.61,0,9.21,0,13.82a16.21,16.21,0,0,1-1.77,7.91,8.92,8.92,0,0,1-12.2,2.88c-.53-.36-.71-.73-.42-1.31.09-.17.14-.36.22-.53.33-.74.47-1.74,1-2.15s1.25.58,1.95.83c2.79,1,5.27,0,6.31-2.77S85.16,161.8,85.22,158.4Z" style="fill:#e2ddd7"/><path d="M113.81,124.76c3.33-5,5.82-9.88,4.08-15.84-.21-.72,0-1,.71-1.25,2.75-.94,2.72-.94,4.62,1.23.82.94,1.77,1.75,2.62,2.66.66.71,1,.52,1.45-.26a9.55,9.55,0,0,1,9.23-5.2c3.65.16,6.52,2.51,6.93,5.71.46,3.59-1.47,6.43-5.19,7.55a11.56,11.56,0,0,1-7.62-.36c-1.11-.43-1.19-.06-1.06.92.67,4.85,5.39,7.22,10.19,5.1a10.61,10.61,0,0,0,3.6-2.57c.68-.75,1-.59,1.4.28,1.34,3,1.21,3.49-1.63,5.17-4.75,2.81-10.66,2.53-14.25-.71-2.79-2.51-3.66-5.79-3.46-9.37a2.37,2.37,0,0,0-1.08-2.5,18.54,18.54,0,0,1-1.79-1.51,26.78,26.78,0,0,1-3.86,10.56,53,53,0,0,1-3.07,4.51,1.69,1.69,0,0,1-1.46.71c-2.9.08-2.9.1-3.83-2.66a105.22,105.22,0,0,0-7.66-17.64c-.75-1.34-.64-1.29.92-1.5,2.3-.3,3.47.6,4.4,2.7C110,115.07,112,119.68,113.81,124.76Zm21.11-9a6.82,6.82,0,0,0,2.71-.49,2.55,2.55,0,0,0,1.78-2.66c-.12-1.39-1.07-2-2.26-2.25a5.88,5.88,0,0,0-6.65,3.58c-.22.57,0,.76.42.95A10.32,10.32,0,0,0,134.93,115.73Z" style="fill:#e2ddd7"/><path d="M75,112c0,5-.84,9.13-3.54,12.68a15,15,0,0,1-24.22-1c-4.45-6.83-3.65-17.57,1.77-23.67,1.07-1.2,1.16-1.19,1.76.23a4.06,4.06,0,0,0,.22.53c.82,1.36.61,2.47-.22,3.89A15.8,15.8,0,0,0,50,120a10,10,0,0,0,9.95,6.27c4.63-.11,8-2.27,9.71-6.6a18.78,18.78,0,0,0-1.26-16.88,7.5,7.5,0,0,0-6.95-3.86,5.37,5.37,0,0,0-2.1.43A3.15,3.15,0,0,0,57.43,103a2.83,2.83,0,0,0,2.91,2.28,6.6,6.6,0,0,0,3.2-.71c.69-.33,1-.12,1.32.54,1.38,2.92,1.24,3.23-2,4-5.63,1.3-10.06-2.24-9.54-7.61A7.39,7.39,0,0,1,59.54,95c5.82-1.08,11.16,2.07,13.68,8.09A23.27,23.27,0,0,1,75,112Z" style="fill:#e2ddd7"/><path d="M77.57,109.36a73.37,73.37,0,0,1,.2-8.43,10.64,10.64,0,0,1,1.45-4.33,5,5,0,0,1,8.59-.06,11.17,11.17,0,0,1,1.57,6.19c0,6.88-2.19,13.08-5.66,18.91-1,1.69-.65,2.82,1.16,3.69a5.66,5.66,0,0,0,3.53.27,8,8,0,0,0,3.73-1.77,4.2,4.2,0,0,0,1.8-3.91c-.26-3.63-.11-7.29-.16-10.93,0-.84.28-1.17,1.16-1.19,3-.08,2.91-.11,3,2.8.07,3.64-.29,7.29.26,10.92a7.55,7.55,0,0,0,.3,1.26c1.06,3.19,4.07,3.94,6.55,1.65,1.57-1.44,1.57-1.44,2.31.64.86,2.39.84,2.44-1.35,3.68a7.56,7.56,0,0,1-9.75-1.65c-.59-.69-.89-.69-1.55-.13a11.38,11.38,0,0,1-7.36,2.82c-4.24.08-7.14-1.86-8.6-5.83a19.73,19.73,0,0,1-1.15-6.48C77.54,115.12,77.57,112.76,77.57,109.36Zm4.14-6.48c-.28,4.29-.17,8.58-.06,12.87a4.25,4.25,0,0,0,.21,2,36.78,36.78,0,0,0,2.23-6.23c.53-2,.66-4.06,1.06-6.09a10.25,10.25,0,0,0-.42-5.94c-.23-.56-.45-1.28-1.2-1.26s-1,.72-1.21,1.28A9.23,9.23,0,0,0,81.71,102.88Z" style="fill:#e2ddd7"/><path d="M98.21,102A2.34,2.34,0,0,1,96,104.38,2.33,2.33,0,1,1,98.21,102Z" style="fill:#e2ddd7"/><path d="M201.63,166.87a1.39,1.39,0,0,1,.43.32l-.4.42a.67.67,0,0,0-.56-.25q-.36,0-.46.18a.26.26,0,0,0,0,.31.76.76,0,0,0,.46.19,1.42,1.42,0,0,1,.68.26.81.81,0,0,1,.31.71.83.83,0,0,1-.33.65,1.16,1.16,0,0,1-.76.27,1.67,1.67,0,0,1-.69-.13,1.49,1.49,0,0,1-.48-.34l.4-.42a.92.92,0,0,0,.67.3q.4,0,.49-.18a.35.35,0,0,0,0-.36q-.1-.18-.49-.22a1.53,1.53,0,0,1-.65-.23.72.72,0,0,1-.3-.65.8.8,0,0,1,.34-.67,1.14,1.14,0,0,1,.69-.25A1.57,1.57,0,0,1,201.63,166.87Z" style="fill:#a1b22a"/><path d="M202.67,169.93v-3.16h.2l1.29,1.56,1.29-1.56h.2v3.16H205v-1.84l-.89,1.05-.89-1.05v1.84Z" style="fill:#a1b22a"/><path d="M153.37,98.79l2.17.22c1.8.2,3.6.39,5.39.71.61.11.61.12.64-.53,0-.14,0-.27,0-.4a6.49,6.49,0,0,0,.15-2A18.57,18.57,0,0,0,160,92.38a.42.42,0,0,0-.35-.24,8.75,8.75,0,0,1-5-2.6,24.25,24.25,0,0,1-3.71-4.8c-2-3.27-3.71-6.73-5.53-10.11,0-.08-.14-.15-.08-.25s.19,0,.29,0A22.53,22.53,0,0,1,157.78,82a14.43,14.43,0,0,1,2.57,4.8,11.2,11.2,0,0,1,.55,4.4,1.22,1.22,0,0,0,.15.7c.22.43.46.85.69,1.27.14.25.3.49.61.47s.41-.31.49-.58a33,33,0,0,1,1.8-4.6,2.83,2.83,0,0,0,.37-.87,17.17,17.17,0,0,0-.65-7.17c-.09-.29-.22-.39-.51-.33a3.62,3.62,0,0,1-1.83-.13,4.83,4.83,0,0,1-2.93-5.44,3.79,3.79,0,0,1,2.47-2.94,4,4,0,0,1,3.49.11,4.5,4.5,0,0,1,2,2.14,4.15,4.15,0,0,1-1.17,5.46.6.6,0,0,0-.28.8,13.27,13.27,0,0,1,.6,2.65c.08.61.14,1.23.22,1.84,0,.12,0,.3.19.33s.25-.1.32-.22a23.75,23.75,0,0,1,2.6-3.08,28,28,0,0,1,4.13-3.6,1.2,1.2,0,0,0,.36-.4A23.82,23.82,0,0,1,180.7,70a25.13,25.13,0,0,1,7.74-3.88,23.16,23.16,0,0,1,5.26-.94,23.48,23.48,0,0,1,4.71.14c.11,0,.28,0,.33.09s-.12.22-.21.3c-2.5,2.23-5,4.46-7.64,6.51a38.2,38.2,0,0,1-9,5.52,12.7,12.7,0,0,1-7.17,1,.63.63,0,0,0-.56.09,27.22,27.22,0,0,0-3,2.64,26.39,26.39,0,0,0-3.21,4,28.79,28.79,0,0,0-2.21,4.26c-.16.37,0,.42.29.37s.92-.19,1.38-.26A7.5,7.5,0,0,0,171.7,88a17.72,17.72,0,0,1,7.51-4.25,57.3,57.3,0,0,1,9.65-1.54c1.43-.15,2.86-.25,4.29-.38.29,0,.7-.22.85.05s-.24.54-.44.76a22.79,22.79,0,0,1-4.07,3.47,30.47,30.47,0,0,1-6.71,3.49A24.29,24.29,0,0,1,176.87,91a19.39,19.39,0,0,1-6.77-.33,1.11,1.11,0,0,0-.49,0c-1.17.24-2.34.47-3.51.69a1.49,1.49,0,0,0-1.27,1.13,31.56,31.56,0,0,0-1.29,7.8,43.52,43.52,0,0,0,.32,8.25,22.94,22.94,0,0,0,2.9,8.2,24.36,24.36,0,0,0,6.24,7,31.27,31.27,0,0,0,3.75,2.48c.24.14.51.27.76.05s.15-.46.07-.72a28.55,28.55,0,0,1-.76-2.9,6,6,0,0,0-1-2.51,10.4,10.4,0,0,1-.83-1.55,23.27,23.27,0,0,1-1.76-4.92,20.62,20.62,0,0,1-.59-4.07c0-1.06,0-2.12,0-3.18,0-.21,0-.36-.24-.47-1.18-.52-2.36-1-3.57-1.45s-2.56-.84-3.86-1.19c-.37-.1-.56-.25-.52-.68s0-1.09,0-1.64.06-.72.73-.57a48.65,48.65,0,0,1,7.07,2.13c.94.36.91.36,1.18-.65a22.52,22.52,0,0,1,3.16-6.89c.07-.1.11-.23.26-.22s.18.19.21.31c.16.58.29,1.17.45,1.75.77,2.74,1.46,5.49,2,8.29a33.44,33.44,0,0,1,.71,10.09,12,12,0,0,1-2.21,6,.58.58,0,0,0-.14.5,25.75,25.75,0,0,0,1.71,5.63,1.09,1.09,0,0,0,.6.58c1,.42,2,.81,3.06,1.15a43.56,43.56,0,0,0,8.48,1.87c1.23.15,2.47.24,3.71.3,1.47.07,2.93.06,4.4,0,1.23,0,2.44-.23,3.67-.24a1,1,0,0,1,1,.63c.37.86.72,1.73,1,2.61.23.67,0,1-.74,1.07a54.32,54.32,0,0,1-5.89.22,50.94,50.94,0,0,1-8.93-.86,45.34,45.34,0,0,1-9.34-2.73,34.45,34.45,0,0,1-11.19-7.2,1.37,1.37,0,0,0-1-.44c-.5,0-1-.1-1.49-.13a11.17,11.17,0,0,0-3.29.3c-.17,0-.3.05-.22.32a3.5,3.5,0,0,1-.56,3.22,4.83,4.83,0,0,1-4.24,1.94,4.09,4.09,0,0,1-3.9-5.05,4.34,4.34,0,0,1,3.54-3.32,3.87,3.87,0,0,1,4.31,1.36.74.74,0,0,0,.83.31,12.87,12.87,0,0,1,3.38-.33c.17,0,.4.07.49-.14s-.09-.34-.19-.48a31.36,31.36,0,0,1-1.87-2.62,4.17,4.17,0,0,0-1.82-1.59,45.21,45.21,0,0,1-6.2-3.41,1.19,1.19,0,0,0-.51-.18,12.88,12.88,0,0,1-8-4.53,21.11,21.11,0,0,1-4.43-9.42c-.1-.47-.27-.7-.79-.78a37.44,37.44,0,0,1-8.81-2.26A45.92,45.92,0,0,0,126,95a4.53,4.53,0,0,0-3.19.26,2.58,2.58,0,0,1-.38.16,36,36,0,0,1-10.51,2.26,24.21,24.21,0,0,1-4.12-.19,20.9,20.9,0,0,1-5.95-1.72,26,26,0,0,1-3.72-2.08c-.21-.14-.41-.3-.36-.58s.28-.38.5-.48.39-.16.59-.23a44.55,44.55,0,0,1,10.64-2.56,26.32,26.32,0,0,1,6,.05A22,22,0,0,1,124.34,93a5.29,5.29,0,0,0,2,.81c.55.08,1.09.23,1.64.33.15,0,.31.13.46,0,0-.05,0-.09,0-.11l-.2-.18a22.48,22.48,0,0,1-3.88-4,32.89,32.89,0,0,1-3-4.67,1.68,1.68,0,0,0-1.32-1c-1.1-.12-2.19-.28-3.28-.45A22.69,22.69,0,0,1,105.93,79a78.27,78.27,0,0,1-7.76-7.51c-.07-.07-.2-.15-.15-.26s.21-.08.33-.08a35.23,35.23,0,0,1,4,.16A30.63,30.63,0,0,1,109.59,73,25.73,25.73,0,0,1,116,76.36a16.28,16.28,0,0,1,5.65,6.83,19.18,19.18,0,0,0,1.28,2.48,25.64,25.64,0,0,0,5.48,6.49,22.46,22.46,0,0,0,5.47,3.28.65.65,0,0,0,.77,0c.21-.22.08-.48,0-.72-.26-.65-.5-1.3-.78-1.94a8.72,8.72,0,0,0-.65-1.64c-.82-1.2-1.56-2.45-2.3-3.7A36.13,36.13,0,0,1,128,81.28a20.9,20.9,0,0,1-1.21-9.68,27.19,27.19,0,0,1,2.48-8.35.11.11,0,0,1,.15-.07.92.92,0,0,1,.07.11,85.82,85.82,0,0,1,5.38,14.37,25.59,25.59,0,0,1,.95,8.61,12.3,12.3,0,0,1-1.11,4.27.81.81,0,0,0-.06.65A30,30,0,0,0,136.69,96a1.15,1.15,0,0,0,.78.61,52.4,52.4,0,0,0,5.92,1.13c.35,0,.41,0,.38-.34a33.3,33.3,0,0,1-.1-6.21c.07-.75.17-1.5.25-2.25,0-.09,0-.21.12-.21s.13.07.18.13c.2.24.39.5.6.74a79.43,79.43,0,0,1,6.82,9.17,47.54,47.54,0,0,1,3.63,6.84,33,33,0,0,1,2.18,7.13.92.92,0,0,0,.32.71,32.77,32.77,0,0,0,4.1,2.51c.34.17.71.46,1.08.12s.11-.71,0-1.06a25.83,25.83,0,0,1-1.52-6.56,40.31,40.31,0,0,1-.09-5.54c0-.35-.1-.49-.42-.54-1.66-.29-3.32-.64-5-.82-.69-.08-1.26-.25-1.48-1a1.2,1.2,0,0,0-.13-.24Z" style="fill:#a1b22a"/><path d="M181.38,108.18c0-.17-.07-.33.08-.42s.28.05.4.14c.45.36.9.72,1.33,1.09a29.77,29.77,0,0,1,3.79,4,30.26,30.26,0,0,1,4.8,7.81c.16.4,0,.55-.33.65-.7.18-1.4.38-2.1.56-1.06.26-1.21.19-1.69-.79l-.09-.21a36.2,36.2,0,0,0-2.25-4.09,27.76,27.76,0,0,0-3.43-4.36.41.41,0,0,1-.14-.28A36.81,36.81,0,0,0,181.38,108.18Z" style="fill:#a1b22a"/><path d="M145.93,94.52c.1.41.19.82.29,1.23a45,45,0,0,0,2.94,8.17,27.82,27.82,0,0,0,5.19,7.7,1.12,1.12,0,0,0,.2.19c.14.08.29.21.45.07s.1-.3,0-.45c-.43-.85-.84-1.71-1.3-2.54-1.46-2.64-3-5.27-4.42-7.91a63.67,63.67,0,0,1-3-6.32c0-.07-.05-.14-.08-.21s-.09-.22-.22-.18S145.91,94.4,145.93,94.52Z" style="fill:#54311a"/><path d="M103.24,73.7c0,.18.17.25.3.32,2.16,1.19,4.24,2.52,6.35,3.78s4,2.33,6.05,3.39c.83.43,1.7.79,2.55,1.17.15.07.35.24.48,0s-.09-.35-.23-.48a35.59,35.59,0,0,0-3.42-2.7,37.88,37.88,0,0,0-5-3,37.28,37.28,0,0,0-6.7-2.6C103.52,73.6,103.34,73.47,103.24,73.7Z" style="fill:#54311a"/><path d="M129.71,71.26a42.29,42.29,0,0,0,1.47,11.15A31.24,31.24,0,0,0,133,87.52c.07.16.11.47.35.39s.11-.34.09-.52c-.38-3-.94-5.9-1.55-8.83q-.76-3.61-1.49-7.23c-.12-.59-.2-1.19-.3-1.79,0-.14,0-.36-.19-.36s-.2.24-.2.39C129.7,70.14,129.71,70.7,129.71,71.26Z" style="fill:#54311a"/><path d="M189.17,70.61c1.26-.78,2.6-1.41,3.91-2.1.14-.07.43-.11.32-.35s-.33-.07-.49,0a37,37,0,0,0-4.75,1.63,43.39,43.39,0,0,0-8.81,4.91,22.64,22.64,0,0,0-2.06,1.55,2.23,2.23,0,0,0-.23.22.27.27,0,0,0,0,.37c.1.11.22.08.33,0,.33-.18.66-.34,1-.52q5.15-2.78,10.32-5.52c.16-.08.33-.14.5-.21Z" style="fill:#54311a"/><path d="M175.78,109.11a39.43,39.43,0,0,0,1,9c.05.2.05.47.34.45s.26-.29.27-.5a68.45,68.45,0,0,0-.06-7.08c-.17-2.78-.45-5.55-.51-8.33,0-.63-.06-1.27-.07-1.91,0-.13.07-.35-.16-.36s-.16.19-.18.32c-.2,1.32-.34,2.64-.43,4S175.77,107.64,175.78,109.11Z" style="fill:#54311a"/><path d="M111.13,93.39c-2.71-.1-5.32.16-7.94.2-.23,0-.65-.09-.66.19s.42.21.63.24c1.56.22,3.12.39,4.68.52,2.48.21,5,.19,7.44.15a41.54,41.54,0,0,0,5.33-.43c.14,0,.31,0,.32-.18s-.19-.17-.31-.18c-1.11-.11-2.22-.25-3.34-.32A60.67,60.67,0,0,0,111.13,93.39Z" style="fill:#54311a"/><path d="M159.51,90.42c.2-.08.14-.24.09-.38a12.72,12.72,0,0,0-.82-1.92,28,28,0,0,0-8.6-9.59,7.56,7.56,0,0,0-.66-.48c-.14-.08-.29-.32-.46-.11s.1.28.21.39a47.29,47.29,0,0,1,3.38,3.59c1,1.18,1.94,2.36,2.86,3.58,1.2,1.59,2.48,3.12,3.73,4.68C159.31,90.28,159.37,90.4,159.51,90.42Z" style="fill:#54311a"/><path d="M174.79,89.62A35.93,35.93,0,0,0,181,88.29a38.77,38.77,0,0,0,7.35-3.09,2.8,2.8,0,0,0,.7-.39c.08-.08.23-.13.16-.28s-.21-.08-.32,0l-2.93,1c-3.25,1.06-6.44,2.28-9.75,3.16-.55.15-1.1.32-1.64.5-.18.06-.5.08-.43.36s.33.14.51.15Z" style="fill:#54311a"/><path d="M159.67,123.38a3.66,3.66,0,0,0-2.92,1.6.35.35,0,0,0,.09.57c.68.52.66.52,1.29,0a4.4,4.4,0,0,1,2.79-1.15c.16,0,.37,0,.42-.17s-.15-.31-.31-.39A3.13,3.13,0,0,0,159.67,123.38Z" style="fill:#54311a"/><path d="M160.85,74.61a2.74,2.74,0,0,0,.74.67c.22.17.34-.1.47-.22a3.24,3.24,0,0,1,3-1c.1,0,.22.05.28-.07a.2.2,0,0,0-.08-.24,2.75,2.75,0,0,0-2.43-.71,2.65,2.65,0,0,0-1.93,1.43A.9.9,0,0,0,160.85,74.61Z" style="fill:#54311a"/></svg>