<svg xmlns="http://www.w3.org/2000/svg" viewBox="0 0 250 250"><title>Casual dining</title><path d="M69.94,175c-1.18-.21-2.39-.28-3.56-.6-4-1.12-7.09-3.35-8.63-7.38a12.1,12.1,0,0,1-.72-4.37c0-9.47.06-18.95,0-28.42a11.76,11.76,0,0,1,9-11.91,17.5,17.5,0,0,1,12.41.85,11.54,11.54,0,0,1,6.76,10.53c0,9.63,0,19.27,0,28.9a11.64,11.64,0,0,1-8.46,11.53,15.06,15.06,0,0,1-3.83.75,3.94,3.94,0,0,0-.58.12Zm-3.47-26.68q0,7.57,0,15.13a3.88,3.88,0,0,0,1.33,3.06,4.56,4.56,0,0,0,2.72,1.06c2.48.21,5.25-.82,5.25-4.43q0-14.87,0-29.73a4.38,4.38,0,0,0-.68-2.54A4.6,4.6,0,0,0,70.66,129a4.08,4.08,0,0,0-4.19,4.47Q66.47,140.9,66.47,148.32Z" style="fill:#443135"/><path d="M225,171.66c-.12.07-.1.2-.14.31a2.89,2.89,0,0,1-3.43,2,3,3,0,0,1-2.26-3.2,2.91,2.91,0,0,1,2.89-2.61,2.85,2.85,0,0,1,2.78,2c0,.12,0,.29.15.36Zm-.52-.53a2.4,2.4,0,1,0-4.8,0,2.53,2.53,0,0,0,2.44,2.56A2.49,2.49,0,0,0,224.48,171.13Z" style="fill:#443135"/><path d="M45.82,144a10.62,10.62,0,0,1,3.13,1.72,7.92,7.92,0,0,1,2.63,5,15.4,15.4,0,0,1,.12,2.49c0,3.57.11,7.15,0,10.72-.22,5.3-3.1,9.23-9,10a18.66,18.66,0,0,1-2.49.15c-4.83,0-9.65,0-14.48,0-.55,0-.74-.11-.74-.71q0-28.84,0-57.67c0-.51.1-.67.65-.66,5,0,10,0,15.07,0a12.1,12.1,0,0,1,5.72,1.36,9.27,9.27,0,0,1,4.88,7.26c.55,3.79.15,7.61.25,11.42a12.14,12.14,0,0,1-.35,3.12,7.31,7.31,0,0,1-4.63,5.41l-.61.24A1.34,1.34,0,0,0,45.82,144Zm-3.15,13.17h0c0-1.83,0-3.65,0-5.48a3.58,3.58,0,0,0-4-3.87c-1.21,0-2.42,0-3.63,0-.51,0-.63.16-.63.65,0,3.51,0,7,0,10.54,0,2.18,0,4.37,0,6.55,0,.29,0,.54.41.53,1.65,0,3.3,0,4.94,0a2.67,2.67,0,0,0,2.67-2.13,6.9,6.9,0,0,0,.23-1.94C42.66,160.39,42.66,158.78,42.66,157.17Zm-8.24-25.32c0,2.74,0,5.48,0,8.22,0,.48.11.65.62.64,1.29,0,2.58,0,3.87,0a3.31,3.31,0,0,0,3.62-3.46c.05-3.65.06-7.3,0-11a2.93,2.93,0,0,0-2.94-3.16c-1.49-.08-3,0-4.46-.06-.53,0-.72.12-.71.69C34.44,126.45,34.43,129.15,34.43,131.85Z" style="fill:#443135"/><path d="M208,145.5a9.42,9.42,0,0,1,3.14,1.89,8.38,8.38,0,0,1,2.58,6.36c0,3.75,0,7.51,0,11.26a10.72,10.72,0,0,0,1.64,6.57c.27.38.1.85.1,1.28s.22,1.12-.09,1.43-.94.09-1.43.1c-1.37,0-2.74,0-4.11,0a4.19,4.19,0,0,1-3.92-2.32,9.63,9.63,0,0,1-1.12-4.57c0-4.57,0-9.14,0-13.7a6.62,6.62,0,0,0-.21-1.7,3.58,3.58,0,0,0-3.75-2.91c-1.29,0-2.58,0-3.87,0-.52,0-.66.13-.66.66,0,6.2,0,12.39,0,18.59,0,1.69,0,3.38,0,5.06,0,.45-.09.62-.58.62q-4.11,0-8.22,0c-.46,0-.6-.12-.6-.6q0-28.93,0-57.86c0-.48.14-.58.6-.58,4.91,0,9.81,0,14.72,0a12.33,12.33,0,0,1,6.88,1.92,9.91,9.91,0,0,1,4.24,6.81,17.72,17.72,0,0,1,.25,3.31c0,3.52,0,7,0,10.55a8.09,8.09,0,0,1-2.12,5.59,8.5,8.5,0,0,1-2.76,1.92Zm-11.74-13q0,4.44,0,8.87c0,.28-.05.54.4.54,1.51,0,3,0,4.52,0a3,3,0,0,0,3-2.44,6.91,6.91,0,0,0,.23-1.76c0-3.49,0-7,0-10.48a9.35,9.35,0,0,0-.13-1.54,2.78,2.78,0,0,0-3-2.5c-1.49,0-3,0-4.46,0-.48,0-.59.15-.58.6C196.27,126.65,196.26,129.56,196.26,132.48Z" style="fill:#443135"/><path d="M124.3,148.24q0-12.51,0-25c0-.52.12-.66.65-.66,4.77,0,9.53,0,14.3,0a13.9,13.9,0,0,1,8.92,2.9,10.68,10.68,0,0,1,3.77,6.87,25,25,0,0,1,.24,4c0,2.78,0,5.56,0,8.34-.11,6,0,12-.06,17.93a10.87,10.87,0,0,1-3.26,8.15,11.93,11.93,0,0,1-5.95,2.91,27.76,27.76,0,0,1-6,.38c-3.91,0-7.83,0-11.74,0-.93,0-.8.1-.8-.78Q124.3,160.76,124.3,148.24Zm9.39.12v4.41q0,6.73,0,13.46c0,.31-.09.64.44.63,1.67-.05,3.34.1,5-.09a3.65,3.65,0,0,0,3.29-2.52,7.58,7.58,0,0,0,.36-2.51q0-13.32,0-26.63a11.81,11.81,0,0,0-.12-1.78,3.89,3.89,0,0,0-3.83-3.4c-1.49-.07-3,0-4.46-.07-.55,0-.69.15-.69.69C133.7,136.49,133.69,142.43,133.69,148.37Z" style="fill:#443135"/><path d="M112.43,149.09a13.75,13.75,0,0,1,2.31,1.09,6.81,6.81,0,0,1,3.35,6q0,5.09,0,10.19a8.22,8.22,0,0,0,1.64,5.46c.3.36.13.8.14,1.21,0,1.26,0,1.26-1.27,1.26s-2.7-.05-4.05,0c-3.43.15-4.65-2.1-5.14-4.24a11.45,11.45,0,0,1-.26-2.59c0-3.65,0-7.31,0-11a5.9,5.9,0,0,0-.22-1.64,3.38,3.38,0,0,0-3.3-2.51c-1.45,0-2.9,0-4.35,0-.49,0-.63.11-.63.62,0,4.29,0,8.58,0,12.87,0,2.56,0,5.12,0,7.69,0,.45-.13.56-.57.56q-4.14,0-8.28,0c-.45,0-.56-.13-.56-.57q0-25.17,0-50.34c0-.48.14-.59.6-.59,5.06,0,10.13,0,15.19,0a11.71,11.71,0,0,1,8,2.86,8.29,8.29,0,0,1,2.72,5.59,107.34,107.34,0,0,1,.09,11.37c-.07,3.13-1.85,5.21-4.73,6.37Zm-11.76-11.36c0,2.56,0,5.12,0,7.69,0,.42.12.54.53.53,1.31,0,2.62,0,3.93,0,2.37,0,3.6-1.11,3.65-3.49q.09-4.85,0-9.71c0-2.18-1.12-3.16-3.3-3.16-1.43,0-2.86,0-4.29,0-.42,0-.53.12-.53.53C100.69,132.64,100.68,135.19,100.68,137.73Z" style="fill:#443135"/><path d="M158.22,148.31q0-12.48,0-25c0-.76,0-.76.77-.76q11.05,0,22.11,0c.54,0,.66.14.65.66q0,3,0,6c0,.52-.12.67-.65.66-4.29,0-8.58,0-12.87,0-.56,0-.69.17-.68.7q0,6.46,0,12.93c0,.6.2.71.75.71,2.86,0,5.72,0,8.58,0,.42,0,.58.08.58.55,0,1.91,0,3.81,0,5.72,0,.42-.12.53-.53.53-2.92,0-5.84,0-8.76,0-.46,0-.61.11-.61.59q0,7.27,0,14.54c0,.56.2.64.69.64,4.25,0,8.5,0,12.75,0,.85,0,.75-.1.75.77,0,2,0,4.05,0,6.08,0,.43-.1.58-.56.58q-11.2,0-22.4,0c-.58,0-.57-.3-.57-.71Q158.22,160.85,158.22,148.31Z" style="fill:#443135"/><path d="M83.44,92.07a1.59,1.59,0,0,0-.11.83q0,11.47,0,22.94c0,.76,0,.76-.78.76-1.55,0-3.1,0-4.65,0-.53,0-.7-.12-.69-.68,0-6.77,0-13.55,0-20.32,0-6.38,0-12.75,0-19.13,0-.54.13-.71.69-.7,1.59,0,3.18,0,4.77,0a.67.67,0,0,1,.75.54c2.79,7.9,5.66,15.77,8.38,23.7.06.16.06.36.26.51a1.32,1.32,0,0,0,.06-.67q0-11.68,0-23.36c0-.58.15-.74.72-.72,1.59,0,3.18,0,4.77,0,.42,0,.59.08.59.55q0,19.87,0,39.74c0,.44-.15.52-.55.52-1.37,0-2.74,0-4.11,0a.72.72,0,0,1-.81-.56q-4.51-11.71-9-23.4Z" style="fill:#443135"/><path d="M136.34,96.21c0-6.57,0-13.15,0-19.72,0-.55.15-.7.69-.69,1.81,0,3.62,0,5.42,0,.57,0,.68.18.68.71,0,5.52,0,11,0,16.57,0,.55.14.69.69.68q3,0,6,0c.52,0,.67-.12.67-.65,0-5.52,0-11,0-16.57,0-.56.11-.75.71-.74,1.81,0,3.62,0,5.42,0,.5,0,.67.11.67.65,0,5.1,0,10.21,0,15.31-.1,8,0,16-.05,24,0,.83,0,.83-.83.83-1.77,0-3.54,0-5.3,0-.48,0-.59-.14-.59-.6,0-5.2,0-10.41,0-15.61,0-.62-.17-.76-.76-.75-2,0-4,0-6,0-.48,0-.59.14-.59.6,0,5.22,0,10.45,0,15.67,0,.54-.13.7-.68.69-1.83,0-3.65,0-5.48,0-.49,0-.63-.12-.63-.62q0-9.89,0-19.78Z" style="fill:#443135"/><path d="M51.19,96.1q0-5.63,0-11.26a9.7,9.7,0,0,1,1.93-6.17,9.34,9.34,0,0,1,6.21-3.5,11.63,11.63,0,0,1,7,.92,8.89,8.89,0,0,1,5.15,7.34A20.3,20.3,0,0,1,71.6,86c0,7.25,0,14.49,0,21.74a9.59,9.59,0,0,1-1.7,5.65,9.16,9.16,0,0,1-6.3,3.77,11.69,11.69,0,0,1-7.52-1.05,8.49,8.49,0,0,1-4.8-7.55c-.14-4.14,0-8.3,0-12.45Zm13.52.12q0-6.08,0-12.15a3.43,3.43,0,0,0-.07-.77A3.16,3.16,0,0,0,61,80.87a3.07,3.07,0,0,0-3,3.22c0,1.21,0,2.42,0,3.63q0,10.19,0,20.38a3.36,3.36,0,1,0,6.72,0C64.68,104.16,64.72,100.19,64.72,96.22Z" style="fill:#443135"/><path d="M171.8,75.8c2.62,0,5.24,0,7.86,0,.49,0,.65.12.64.62q-.05,2.38,0,4.77c0,.52-.12.68-.65.67-3,0-6,0-9-.07-.57,0-.69.18-.69.71q0,5,0,10c0,.54.17.66.68.65,1.91,0,3.81,0,5.72,0,.55,0,.76.15.74.74,0,1.33,0,2.66,0,4,0,.51-.11.69-.65.67-1.94,0-3.89,0-5.84-.06-.49,0-.65.13-.64.63q0,5.66,0,11.32c0,.47.14.6.61.6,3,0,6.08,0,9.12,0,.51,0,.62.15.61.63,0,1.47,0,2.94,0,4.41,0,.44-.11.57-.56.57q-8,0-16,0c-.47,0-.56-.16-.56-.58,0-2.28,0-4.57,0-6.85q0-16.27,0-32.53c0-.84,0-.84.83-.84Z" style="fill:#443135"/><path d="M125.59,99.27c0,5.56,0,11.12,0,16.68,0,.51-.1.68-.65.66q-2.74-.06-5.48,0c-.57,0-.67-.18-.67-.7q0-16.62,0-33.25c0-.86.15-.82-.84-.83-1.77,0-3.53,0-5.3,0-.4,0-.55-.09-.54-.52,0-1.65,0-3.3,0-4.95,0-.41.11-.55.53-.55q9.41,0,18.83,0c.41,0,.55.11.54.54q0,2.53,0,5.06c0,.44-.15.52-.55.52-1.77,0-3.53,0-5.3-.08-.5,0-.63.15-.63.63Q125.6,90.86,125.59,99.27Z" style="fill:#443135"/><path d="M221,171.22a5.1,5.1,0,0,1,0-.65c0-.34-.17-.74.16-1a2.69,2.69,0,0,1,1.78.22.84.84,0,0,1,0,1.21c-.18.17-.29.25-.05.49s.22.78.36,1.17c0,.13,0,.18-.14.19s-.33,0-.38-.19-.09-.42-.13-.64a.66.66,0,0,0-.52-.58c-.34-.07-.64-.06-.58.44a6.1,6.1,0,0,1,0,.71c0,.16-.05.26-.24.25s-.25-.1-.25-.26c0-.46,0-.91,0-1.37Zm.87-1.36c-.61,0-.32.45-.37.72s0,.55.42.49.8-.15.77-.63S222.31,169.87,221.9,169.86Z" style="fill:#443135"/></svg>