<?xml version="1.0" encoding="utf-8"?>
<!-- Generator: Adobe Illustrator 20.1.0, SVG Export Plug-In . SVG Version: 6.00 Build 0)  -->
<svg version="1.1" id="Layer_1" xmlns="http://www.w3.org/2000/svg" xmlns:xlink="http://www.w3.org/1999/xlink" x="0px" y="0px"
	 viewBox="0 0 22.2 22.2" style="enable-background:new 0 0 22.2 22.2;" xml:space="preserve">
<style type="text/css">
	.st0{fill:#F9E8A0;}
	.st1{fill:#FF0000;}
	.st2{fill:#414042;}
	.st3{fill:#F8E79F;}
	.st4{fill:#F6D056;}
	.st5{fill:none;stroke:#000000;stroke-linecap:round;stroke-linejoin:round;stroke-miterlimit:10;}
	.st6{fill:none;}
	.st7{fill:#A7A9AC;}
	.st8{fill:#FFFFFF;}
	.st9{fill:#FBECBB;}
	.st10{fill:#F15F2E;}
	.st11{fill:#45A5DA;}
	.st12{fill:#ED1C24;}
	.st13{fill:#231F20;}
</style>
<g>
	<circle class="st0" cx="11.1" cy="11.1" r="10.7"/>
	<g>
		<rect x="9" y="7.8" class="st1" width="1.5" height="3"/>
		<rect x="11.7" y="11.5" class="st1" width="1.5" height="3"/>
	</g>
	<g>
		<path class="st2" d="M19,3.3C16.9,1.2,14.1,0,11.1,0S5.4,1.2,3.3,3.3C1.2,5.4,0,8.1,0,11.1s1.2,5.8,3.3,7.9
			c2.1,2.1,4.9,3.3,7.9,3.3s5.8-1.2,7.9-3.3c2.1-2.1,3.3-4.9,3.3-7.9S21.1,5.4,19,3.3L19,3.3z M11.1,21.1c-5.5,0-10-4.5-10-10
			s4.5-10,10-10s10,4.5,10,10S16.6,21.1,11.1,21.1L11.1,21.1z M11.1,21.1"/>
		<path class="st2" d="M13.2,8.1c0.3,0,0.6-0.3,0.6-0.6c0-0.3-0.3-0.6-0.6-0.6h-1.5V5.8c0-0.3-0.3-0.6-0.6-0.6
			c-0.3,0-0.6,0.3-0.6,0.6v1.2h-0.3C9,6.9,7.9,8,7.9,9.3c0,1.3,1.1,2.4,2.4,2.4h1.7c0.7,0,1.2,0.6,1.2,1.2c0,0.7-0.6,1.2-1.2,1.2H9
			c-0.3,0-0.6,0.3-0.6,0.6c0,0.3,0.3,0.6,0.6,0.6h1.6v1.2c0,0.3,0.3,0.6,0.6,0.6c0.3,0,0.6-0.3,0.6-0.6v-1.2H12
			c1.3,0,2.3-1.1,2.3-2.4c0-1.3-1.1-2.4-2.4-2.4l0,0h-1.7C9.6,10.5,9,10,9,9.3c0-0.7,0.6-1.2,1.2-1.2"/>
	</g>
</g>
</svg>
