<svg xmlns="http://www.w3.org/2000/svg" viewBox="0 0 250 250"><title>CR</title><path d="M51,149.78H35V100.3c.6,0,1.18-.08,1.76-.08H71.17c4.13,0,6.53,2.41,6.53,6.53q0,10.6,0,21.19c0,4.06-2.27,6.33-6.32,6.33-6.26,0-12.52,0-18.79,0-1.24,0-1.63.33-1.61,1.59C51.06,140.44,51,145,51,149.78Zm.08-20.63a2.57,2.57,0,0,0,.45.12l6.31,0c2.86,0,3.62-.76,3.63-3.67q0-6.16,0-12.32c0-1.8,0-3.61,0-5.41a2.26,2.26,0,0,0-2-2.47c-2.77-.17-5.55-.05-8.38-.05Z"/><path d="M179,115.64h-5.34v-5.91H179v-5.6h16.25v5.54H215v5.9H195.3c0,1.28,0,2.36,0,3.45,0,3.56,0,7.12,0,10.67,0,1.58.75,2.5,2.05,2.69,1,.14,1.57-.1,1.54-1.33-.08-2.7,0-5.41,0-8.12,0-.54,0-1.07,0-1.72H215v17H185.57c-4.3,0-6.53-2.26-6.53-6.61q0-7.07,0-14.13C179,116.9,179,116.36,179,115.64Z"/><path d="M149.31,138.18H134c-4.21,0-6.42-2.2-6.42-6.37q0-7.44,0-14.89c0-4.23,2.23-6.47,6.5-6.48q12.63,0,25.26,0c1.85,0,3.71,0,5.56,0,3.87.08,6.11,2.38,6.11,6.25q0,7.74,0,15.49a5.59,5.59,0,0,1-5.89,6C159.84,138.2,154.58,138.18,149.31,138.18Zm5.55-13.75h0c0-1.85,0-3.71,0-5.56,0-2.34-1-3.32-3.26-3.35-1.65,0-3.31,0-5,0a2.72,2.72,0,0,0-3,3q-.06,5.78,0,11.57a2.8,2.8,0,0,0,3.08,3.09c1.6,0,3.21,0,4.81,0,2.27,0,3.26-1,3.28-3.35C154.88,128,154.87,126.24,154.87,124.44Z"/><path d="M121.47,138.06h-15.8V102h2.09c4.16,0,8.31,0,12.47,0,.84,0,1.42.07,1.41,1.18,0,11.42,0,22.84,0,34.26A3.7,3.7,0,0,1,121.47,138.06Z"/><path d="M99.51,138.18H93c-2.75,0-5.51,0-8.26,0-.94,0-1.34-.23-1.34-1.25q0-12.61,0-25.22c0-1,.39-1.28,1.34-1.28q6.83,0,13.66,0c.86,0,1.26.23,1.25,1.18,0,8.61,0,17.22,0,25.82A5.63,5.63,0,0,1,99.51,138.18Z"/><path d="M99.42,102a3.59,3.59,0,0,1,.16.41c.52,4.66.51,4.66-4.11,4.66-3.51,0-7-.05-10.51,0-1.22,0-1.52-.39-1.53-1.54C83.4,102,83.36,102,87,102H99.42Z"/></svg>