<?xml version="1.0" encoding="utf-8"?>
<!-- Generator: Adobe Illustrator 20.1.0, SVG Export Plug-In . SVG Version: 6.00 Build 0)  -->
<svg version="1.1" id="Layer_1" xmlns="http://www.w3.org/2000/svg" xmlns:xlink="http://www.w3.org/1999/xlink" x="0px" y="0px"
	 viewBox="0 0 21.6 22.7" style="enable-background:new 0 0 21.6 22.7;" xml:space="preserve">
<style type="text/css">
	.st0{fill:none;stroke:#000000;stroke-width:0.25;stroke-miterlimit:10;}
	.st1{fill:none;stroke:#000000;stroke-linecap:round;stroke-linejoin:round;stroke-miterlimit:10;}
	.st2{fill:none;stroke:#000000;stroke-width:0.75;stroke-linecap:round;stroke-linejoin:round;stroke-miterlimit:10;}
	.st3{fill:none;}
	.st4{clip-path:url(#SVGID_2_);}
	.st5{clip-path:url(#SVGID_4_);}
	.st6{clip-path:url(#SVGID_6_);}
	.st7{fill:#010002;stroke:#000000;stroke-width:0.7;stroke-miterlimit:10;}
	.st8{stroke:#231F20;stroke-width:0.1;stroke-miterlimit:10;}
	.st9{stroke:#231F20;stroke-width:0.25;stroke-miterlimit:10;}
	.st10{stroke:#000000;stroke-width:0.25;stroke-miterlimit:10;}
	.st11{fill:none;stroke:#000000;stroke-width:0.75;stroke-miterlimit:10;}
	.st12{clip-path:url(#SVGID_8_);}
	.st13{fill:none;stroke:#000000;stroke-width:0.5;stroke-miterlimit:10;}
</style>
<g>
	<path d="M21.3,7.1c-0.3-2.3-0.8-4.3-1.2-5.5c-0.2-0.6-0.6-1.1-1.2-1.4c-0.6-0.3-1.3-0.3-1.9,0c-1,0.4-1.6,1.5-1.4,2.6L0,11.1l0.5,2
		l15.3,8.2c0.2,0.5,0.6,1,1.2,1.2c0.3,0.1,0.6,0.2,1,0.2c0.3,0,0.6-0.1,0.9-0.2c0.6-0.3,1.1-0.8,1.3-1.4c0.7-2,1.2-4.2,1.4-6.5
		C21.7,12.2,21.6,9.7,21.3,7.1z M15.8,19.6c-0.1,0.3-0.1,0.5-0.1,0.8L1.1,12.6l-0.3-1.1L15.8,19.6C15.8,19.5,15.8,19.6,15.8,19.6z
		 M16,18.9L1.5,11.1l14.3-7.6c0.3,1.1,0.7,2.6,0.9,4.4C17.1,10.7,17.3,14.8,16,18.9z M20.8,14.6c-0.2,2.2-0.6,4.3-1.3,6.3
		c-0.2,0.4-0.5,0.8-0.9,1c-0.4,0.2-0.9,0.2-1.3,0c-0.8-0.4-1.1-1.2-0.9-2c1.6-4.5,1.4-9,1-12c-0.2-1.6-0.5-3-0.8-4.1
		c0.1-0.3,0.6-1.1,1.5-1.3l-0.1-0.7c-0.8,0.2-1.3,0.7-1.6,1.1c0,0,0,0,0,0c-0.2-0.8,0.2-1.7,0.9-2c0.2-0.1,0.4-0.1,0.6-0.1
		c0.2,0,0.5,0.1,0.7,0.2c0.4,0.2,0.7,0.6,0.9,1c0.4,1.2,0.9,3.1,1.2,5.4C21,9.8,21,12.2,20.8,14.6z"/>
	<path d="M18,20.3l0.6,0.3c0.1-0.1,0.2-0.4,0.3-0.7l-0.6-0.2C18.1,20,18,20.2,18,20.3z"/>
	<path d="M19.4,11.2c0.2,3.2-0.4,5.9-0.9,7.6l0.6,0.2c0.5-1.7,1.1-4.5,0.9-7.8L19.4,11.2z"/>
	<path d="M14,9c1,0,1.8-0.8,1.8-1.8c0-1-0.8-1.8-1.8-1.8c-1,0-1.8,0.8-1.8,1.8C12.3,8.2,13.1,9,14,9z M14,6.1c0.6,0,1.1,0.5,1.1,1.1
		S14.6,8.3,14,8.3c-0.6,0-1.1-0.5-1.1-1.1S13.4,6.1,14,6.1z"/>
	<path d="M7.2,9.7c-1,0-1.8,0.8-1.8,1.8s0.8,1.8,1.8,1.8c1,0,1.8-0.8,1.8-1.8S8.2,9.7,7.2,9.7z M7.2,12.6c-0.6,0-1.1-0.5-1.1-1.1
		s0.5-1.1,1.1-1.1c0.6,0,1.1,0.5,1.1,1.1C8.3,12.1,7.8,12.6,7.2,12.6z"/>
	<path d="M13.2,11.6c-1,0-1.8,0.8-1.8,1.8c0,1,0.8,1.8,1.8,1.8c1,0,1.8-0.8,1.8-1.8S14.2,11.6,13.2,11.6z M13.2,14.4
		c-0.6,0-1.1-0.5-1.1-1.1s0.5-1.1,1.1-1.1c0.6,0,1.1,0.5,1.1,1.1S13.8,14.4,13.2,14.4z"/>
	<polygon points="10.6,8.2 11,8.2 11.3,8.2 11.3,7.2 10.6,7.2 	"/>
	<rect x="3.8" y="10.2" width="0.7" height="1"/>
	<rect x="11.9" y="9.5" width="0.7" height="1"/>
	<polygon points="10.2,10.7 10.2,9.7 9.5,9.7 9.5,10.7 9.8,10.7 	"/>
	<polygon points="14.7,10.3 14.7,11.3 15,11.3 15.4,11.3 15.4,10.3 15,10.3 	"/>
	<polygon points="14.7,15.9 14.7,17 15.4,17 15.4,15.9 15,15.9 	"/>
	<polygon points="15.7,13.5 16,13.5 16.3,13.5 16.3,12.5 15.7,12.5 	"/>
	<polygon points="9.7,14.4 10,14.4 10.3,14.4 10.3,13.3 9.7,13.3 	"/>
</g>
</svg>
