<svg xmlns="http://www.w3.org/2000/svg" viewBox="0 0 250 250"><title>CR</title><rect x="36.58" y="97.04" width="47.51" height="39.87" style="fill:#eec448"/><path d="M183.23,87.86c.35,1.91-.25,3.75-.48,5.6-.66,5.43-1.47,10.85-2.15,16.28-.11.91-.41,1.23-1.29,1.2-1.25,0-2.5-.07-3.74,0-1.4.09-2.53,0-2.05-2.08a21.73,21.73,0,0,1-3.55,2c-6.39,2-11.22-2.19-10-8.77,1.28-7.12,8.18-10.26,14.46-6.58a1.92,1.92,0,0,0,.45.09c.3-2.58.85-5.11.9-7.72ZM174,101.8a2.86,2.86,0,0,0-3.62-3,3.27,3.27,0,0,0-2.67,2.51c-.44,1.52-.79,3.06.3,4.47a2.33,2.33,0,0,0,1.88.79C172.35,106.68,174,104.7,174,101.8Z" style="fill:#a83642"/><path d="M124.91,87.86c.68,1.39.06,2.77-.1,4.13-.71,5.81-1.55,11.6-2.28,17.4-.15,1.22-.64,1.65-1.87,1.56a32.63,32.63,0,0,0-4.39,0c-1.16.07-1.56-.31-1.39-1.47.62-4.4,1.19-8.8,1.79-13.21.35-2.58.72-5.15,1.08-7.72a.8.8,0,0,0-.33-.7Z" style="fill:#a83642"/><path d="M63.67,162.14c.22-1.44.46-2.89.65-4.34.08-.63.25-1.37-.66-1.58a1.37,1.37,0,0,0-1.77,1c-.28,1.1-.37,2.24-.54,3.36s-1.06,1.53-3.11,1.19c-1.25-.21-.58-1.05-.52-1.62.15-1.56.37-3.12.6-4.67a2.06,2.06,0,0,1,3.45-1.33.81.81,0,0,0,1.18.09,4.76,4.76,0,0,1,3-.55,2.3,2.3,0,0,1,2.26,2.62c-.12,1.56-.44,3.11-.58,4.67-.07.8-.55.75-1.11.81-.83.1-1.73-.34-2.47.32Z" style="fill:#3b2c63"/><path d="M95.27,162.14c.22-1.39.46-2.77.64-4.16.09-.73.3-1.62-.82-1.78a1.5,1.5,0,0,0-1.72,1.37c-.23,1-.28,2-.43,3.05-.32,2.19-2,1-3.08,1.12-1.31.12-.56-1-.51-1.51.14-1.56.33-3.12.61-4.66.11-.57-.27-1.51.52-1.67s2.14-.51,2.8.18.93.32,1.42.08a5,5,0,0,1,2.68-.47,2.3,2.3,0,0,1,2.38,2.66c-.11,1.56-.43,3.1-.59,4.66-.08.8-.58.73-1.13.79-.82.1-1.72-.35-2.46.33Z" style="fill:#3b2c63"/><path d="M109.28,162.14c-.14-.08-.26-.22-.41-.24-1.79-.23-3-1.09-3.34-3a4.54,4.54,0,0,1,2.52-4.53c2.21-1.17,5.9-.92,7.38.44a3,3,0,0,1,1,1.8c.27,1.71,0,2-1.7,2-1.46,0-2.92,0-4.38,0-.37,0-1-.2-1,.48,0,.48.38.75.79.93a1.28,1.28,0,0,0,1.25,0c1-.71,2.06-.5,3.13-.44.39,0,1-.21,1.11.35s-.48.66-.79,1c-.83.78-2,.73-2.94,1.26Zm3.56-5.07c-.13-1.28-.9-1.64-2-1.42-.53.11-1.14.45-1.11,1,0,.71.75.37,1.16.4C111.5,157.1,112.14,157.07,112.83,157.07Z" style="fill:#3b2c63"/><path d="M196.26,162.14a1.79,1.79,0,0,0-.58-.25c-3.18-.11-4.57-3.89-2.06-6.53,2-2.09,6.7-2.27,8.76-.33a3.21,3.21,0,0,1,1,2.15c.11,1-.24,1.52-1.37,1.46-1.57-.08-3.14,0-4.71,0-.43,0-1.06-.2-1.08.6s.55.79,1,.87a2,2,0,0,0,1.25-.15c1.46-.82,2.9-.39,4.36-.06v0c-1.07,1.39-2.65,1.84-4.23,2.3Zm1.71-5c.5-.28,1.47.41,1.53-.61.05-.82-.78-.9-1.42-.93s-1.58.41-1.56,1.08C196.54,157.5,197.48,156.86,198,157.13Z" style="fill:#3b2c63"/><path d="M123,162.14c.18-1.45.34-2.9.55-4.35.1-.68.22-1.35-.68-1.54a1.35,1.35,0,0,0-1.78,1,24.21,24.21,0,0,0-.51,3.21c-.22,2.23-1.92,1.22-3,1.28-1.38.09-.71-1.07-.66-1.67.11-1.46.39-2.9.55-4.35.2-1.81,2-2.75,3.37-1.59.57.47.82.4,1.27.13a4.69,4.69,0,0,1,2.66-.58,2.43,2.43,0,0,1,2.58,3c0,.49-.11,1-.18,1.45a10,10,0,0,1-.56,3.18c-.6,1.13-2,.24-3,.56-.13,0-.23.19-.34.29Z" style="fill:#3b2c63"/><path d="M143.16,162.14a3.7,3.7,0,0,0-.76-.27,3.37,3.37,0,0,1-3.23-2.72,4.09,4.09,0,0,1,1.6-4.16c2.25-1.84,6.72-1.8,8.41,0a3.29,3.29,0,0,1,.86,2c.13,1.17-.25,1.69-1.52,1.6s-2.81,0-4.22,0c-.46,0-1-.2-1.35.29-.18.26,0,.51.21.72a1.26,1.26,0,0,0,1.6.43c1.22-.76,2.5-.51,3.78-.47a4.62,4.62,0,0,1,.71.15c-.82,1.93-2.69,1.81-4.14,2.4Zm-.05-5.29a6.89,6.89,0,0,0,2.53.23c.35,0,.78.25.79-.41,0-.41,0-.7-.5-.87A2,2,0,0,0,143.11,156.84Z" style="fill:#3b2c63"/><path d="M81.91,162.14c-.84-.5-1.92-.3-2.7-1a4,4,0,0,1-.65-5c1.71-2.72,7-3.33,9.4-1.14a3.06,3.06,0,0,1,.91,1.82c.25,1.23-.06,2-1.56,1.85s-3,0-4.54,0c-.38,0-1-.16-1,.51,0,.49.41.75.81.92A1.42,1.42,0,0,0,84,160a3.2,3.2,0,0,1,2.47-.41c.51.06,1.3-.26,1.46.32.22.78-.65,1-1.19,1.3a26.46,26.46,0,0,1-2.56,1Zm1.93-5c.42-.35,1.33.67,1.34-.52,0-.83-.73-1-1.4-1s-1.66.36-1.62,1C82.23,157.67,83.3,156.78,83.84,157.15Z" style="fill:#3b2c63"/><path d="M177.69,162.14l-1.22-.4a3.54,3.54,0,0,1-2.73-2.7,4,4,0,0,1,1.38-3.79,7.78,7.78,0,0,1,7.53-1.07,3.76,3.76,0,0,1,.83,6c-1,1.15-2.46,1.5-3.82,2Zm1.69-6.23a2.15,2.15,0,0,0-2,2.29c0,1,.47,1.67,1.55,1.68a2.26,2.26,0,0,0,2-2.34C180.91,156.55,180.5,155.87,179.38,155.9Z" style="fill:#3b2c63"/><path d="M50.31,162.14c-.46-.15-.92-.29-1.38-.45a3.63,3.63,0,0,1-1.5-6.12c1.7-1.85,5.67-2.57,7.87-1.36a3.31,3.31,0,0,1,1.92,3.16,4.37,4.37,0,0,1-2.54,3.87,19.64,19.64,0,0,1-2.41.9ZM52,155.9a2.13,2.13,0,0,0-2,2.27c0,1,.44,1.76,1.53,1.69,1.36-.09,1.93-1.06,2-2.31A1.38,1.38,0,0,0,52,155.9Z" style="fill:#3b2c63"/><path d="M159.12,162.14c-1.21-.58-2.84-.6-3.18-2.5,1.52,0,3.07-1,4.46.5.16.17.62.08.95.09.51,0,1.14-.13,1.21-.59.09-.62-.62-.63-1.07-.73-1.11-.25-2.25-.36-3.32-.71a1.91,1.91,0,0,1-.81-3.23c1.42-1.58,6.3-1.85,7.93-.43.33.28.76.58.67,1-.12.62-.71.29-1.08.36a5.84,5.84,0,0,0-1.87.39c.31.61.87.52,1.3.69.83.34,1.58.74,1.68,1.77a2.49,2.49,0,0,1-1.23,2.31c-.9.68-2.07.58-3,1Zm2.65-5.51c.36-.09.94.18.9-.4s-.64-.82-1.2-.86-1.18,0-1.11.59S161.3,156.42,161.77,156.63Z" style="fill:#3b2c63"/><path d="M202.78,159.88c1.56-.32,3.12-1.27,4.66.15.26.24.83.19,1.25.17s1.09-.13,1.09-.69-.64-.53-1-.59a13.74,13.74,0,0,1-3.62-.83,1.72,1.72,0,0,1-.76-2.79c1.59-2.4,7.45-2.19,9,.5-1.45,0-2.79.82-4.13-.29a1.2,1.2,0,0,0-1.51.11c-.1.08-.2.33-.15.42a1.28,1.28,0,0,0,1.27.52,7.53,7.53,0,0,1,2.85.52c1.85.75,2.07,2.49.58,3.79-.87.76-2,.72-2.95,1.26H207a5.76,5.76,0,0,1-4.24-2.3Z" style="fill:#3b2c63"/><path d="M35,157.58c1.73-3.52,5.09-4.85,8.92-3.54a2.51,2.51,0,0,1,1.18.79c.37.45,1,.84.78,1.46s-.87.26-1.32.31c-.87.09-1.68.53-2.57-.44a1.76,1.76,0,0,0-2.58.43,2.16,2.16,0,0,0-.26,2.7c.66.93,1.64.72,2.49.26,1.72-.92,1.7-.95,4.16-.44-.77,2-2.58,2.43-4.28,3H38.91A6.08,6.08,0,0,1,35,159.53Z" style="fill:#3b2c63"/><path d="M131.43,162.14c-.19-.34-.54-.3-.84-.39a3.56,3.56,0,0,1-2.23-5.42c1.47-2.82,7.43-3.69,9.64-1.42a2.14,2.14,0,0,1,.77,1.61c-1.44-.15-2.82.83-4.24-.46a1.72,1.72,0,0,0-2.49.79c-.49.89-.79,1.92.13,2.67a1.79,1.79,0,0,0,2.62-.23c1.09-1.22,2.33-.29,3.47-.26.59,0,.11.59-.07.84-1,1.47-2.58,1.85-4.15,2.27Z" style="fill:#3b2c63"/><path d="M169.22,162.14c-2.21-.88-1.67-2.7-1.52-4.39.06-.67.63-1.54-.74-1.65-.49,0-.31-.64-.21-1s0-1.34.69-1.25.79-.34.91-.88,3-2.09,3.54-1.82.22.87.22,1.31c0,.66-.2,1.33.85,1.34.7,0,.86.48.81,1.12s-.21,1.11-1,1.2-1.9,2.47-1.39,3.29,1.1,0,1.6.27c.32,1.31-.08,2.17-1.47,2.42Z" style="fill:#3b2c63"/><path d="M159.45,87.86c.42,1.29-.11,2.54-.22,3.8-.05.61-.55.71-1.09.7-1.79,0-3.58,0-5.36,0-1,0-1.2-.41-1.05-1.28a7.12,7.12,0,0,0,.22-3.24Z" style="fill:#a83642"/><path d="M60.22,142c-7.44,0-14.87,0-22.31,0-1.18,0-1.61-.23-1.54-1.49.11-2.11.07-4.23,0-6.35a1.83,1.83,0,0,1,1.25-2c14.83-6.39,29.67-7.11,44.61-.36a2.69,2.69,0,0,1,1.93,3,45.32,45.32,0,0,0,0,5.69c.06,1.17-.36,1.45-1.48,1.45C75.2,141.93,67.71,142,60.22,142Z" style="fill:#3b2c63"/><path d="M60.42,94.32c7.32,0,14.65,0,22,0,1.3,0,1.85.3,1.77,1.71-.12,2.06-.07,4.12,0,6.18A1.69,1.69,0,0,1,83,104.07c-15.17,6.56-30.33,7.17-45.49,0a1.6,1.6,0,0,1-1.1-1.72c.07-2.11.08-4.23,0-6.35,0-1.27.41-1.7,1.69-1.69C45.56,94.35,53,94.32,60.42,94.32Z" style="fill:#a83642"/><path d="M96.73,121.51a9.67,9.67,0,0,1,7.28-2.7,6.51,6.51,0,0,1,6.53,6.5c.34,7-4.1,11.33-10.87,10.73a9.81,9.81,0,0,1-4.08-1.67c-.32,2.23-.7,4.29-.89,6.36-.1,1.15-.61,1.42-1.64,1.39-1.73-.07-3.47-.07-5.2,0-.85,0-.94-.28-.84-1.05q1.42-10.38,2.75-20.77c.11-.86.49-1.1,1.26-1.08,1.3,0,2.6.05,3.9,0S97.26,119.22,96.73,121.51Zm6.32,5.16a2.78,2.78,0,0,0-1.27-2.78,3.29,3.29,0,0,0-3.25,0c-1.62.81-1.93,2.34-2.12,3.93a2.8,2.8,0,0,0,1.71,3.29A3.37,3.37,0,0,0,102,130,6.47,6.47,0,0,0,103,126.67Z" style="fill:#a83642"/><path d="M100.09,96.57A9.15,9.15,0,0,1,107.53,94c3.27.29,5.25,1.8,6,5a9.73,9.73,0,0,1-2.64,9.73c-2.68,2.57-6,3.07-9.53,2.13-.89-.23-1.64-1.49-2.49-.83-.66.51-.3,1.75-.48,2.65,0,.21-.11.42-.14.63-.2,1.26.18,3-.81,3.64s-2.52.22-3.82.23c-3.66,0-3.58,0-3-3.59.88-5.95,1.67-11.9,2.43-17.87.13-1,.53-1.42,1.53-1.38a31.37,31.37,0,0,0,3.58,0C99.48,94.23,100.45,94.46,100.09,96.57Zm2.39,9.93a3.16,3.16,0,0,0,3.19-2c.63-1.61,1.15-3.33-.07-4.92a2.46,2.46,0,0,0-2.17-.9,3.5,3.5,0,0,0-3.28,2.24c-.61,1.58-1,3.23.16,4.77A2.52,2.52,0,0,0,102.48,106.5Z" style="fill:#a83642"/><path d="M192.05,119.51c2.48-.7,5-.22,7.52-.27.8,0,.69.86.82,1.39a92.76,92.76,0,0,0,2.51,9c.69-1.43,1.4-2.86,2.08-4.3.79-1.66,1.6-3.31,2.35-5a1.64,1.64,0,0,1,1.72-1.16c1.68.06,3.36,0,5,0,.77,0,1.18.13.68,1-3.63,6.22-7.2,12.48-10.9,18.65-2,3.38-5.48,3.72-9,3.7a11.11,11.11,0,0,1-1.29-.13c-3-.37-2.94-.37-2.87-3.3,0-1.05.23-1.39,1.42-1.16,2,.37,4,.53,5.5-1.38a1.19,1.19,0,0,0,.33-1.3c-2-5.24-3.67-10.63-6-15.78Z" style="fill:#a83642"/><path d="M126.65,98.92a6.56,6.56,0,0,1,5.22-4.39,29.11,29.11,0,0,1,11.48-.13c3.2.57,4.53,2.8,4.18,6s-1.43,6.48-.74,9.82c.15.74-.33.67-.75.67h-5.37c-1.29,0-.93-1.09-1.31-1.9a13.38,13.38,0,0,1-8.55,2.22,12.31,12.31,0,0,1-2.24-.32c-1.76-.46-3.28-1.3-3.57-3.29a4.73,4.73,0,0,1,2.92-5,24.17,24.17,0,0,1,5.83-1.41,35.67,35.67,0,0,0,5.55-1.19c.45-.16,1-.15,1-.85a1.36,1.36,0,0,0-.87-1.26,5.58,5.58,0,0,0-5,.93,2,2,0,0,1-1.87.7c-1.78-.17-3.56-.3-5.35-.46A2,2,0,0,1,126.65,98.92Zm13.19,4.17-4.41,1a7.25,7.25,0,0,0-1.23.37c-.87.38-1.7.87-1.49,2s1.15,1.19,2,1.25C137.43,107.94,139.15,106.41,139.84,103.09Z" style="fill:#a83642"/><path d="M124.8,118.84a23.48,23.48,0,0,1,4.79.37c2.92.67,4.39,2.47,4.15,5.46-.2,2.43-.58,4.84-.9,7.25a5.33,5.33,0,0,0,0,2.73c.37.94-.06,1.11-.89,1.09-1.3,0-2.6,0-3.9,0-1.07,0-2.18.22-2.51-1.33-.17-.78-.69-.12-1,0-2.85,1.72-6,1.85-9.13,1.53-2.45-.25-4.13-1.81-4.3-3.74a4.92,4.92,0,0,1,3.46-4.94c2.4-.92,5-1,7.45-1.57,1.16-.26,2.32-.5,3.47-.8.47-.12.94-.34.84-1a1.25,1.25,0,0,0-.83-1.08,5.28,5.28,0,0,0-5.14,1,1.61,1.61,0,0,1-1.64.61c-1.66-.22-3.34-.35-5-.46-.8-.05-.91-.33-.58-1a6.68,6.68,0,0,1,4.46-3.49A22.79,22.79,0,0,1,124.8,118.84Zm-3.87,13.71c2.61,0,4.5-1.37,4.88-3.35.16-.82.07-1.28-.93-1-1.45.39-2.92.71-4.36,1.14-1,.29-1.83.87-1.6,2.07S120.21,132.48,120.93,132.55Z" style="fill:#a83642"/><path d="M144.48,121.26a2.8,2.8,0,0,0,1.49-.79,10,10,0,0,1,8.71-1.22,4.48,4.48,0,0,1,3,4.87c-.36,3.5-.9,7-1.33,10.47-.11.87-.51,1.18-1.38,1.15-1.63-.05-3.26-.06-4.88,0-1.1,0-1.45-.37-1.3-1.44q.54-3.78,1-7.57c.14-1.2.25-2.44-1.38-2.84a3.19,3.19,0,0,0-3.71,1.62c-.93,1.84-.91,3.89-1.16,5.87-.53,4.34-.48,4.35-4.89,4.35-3.23,0-3.25,0-2.83-3.26.52-4,1.09-8.05,1.59-12.09.11-.86.41-1.26,1.32-1.23,1.25,0,2.5,0,3.74,0C144.4,119.19,144.4,119.19,144.48,121.26Z" style="fill:#a83642"/><path d="M167.82,136.1a12.49,12.49,0,0,1-4.1-.45,3.28,3.28,0,0,1-2.32-3.18,36.94,36.94,0,0,1,.68-6.78c.19-1.26.06-2.17-1.57-1.9-.79.13-1.1-.18-.9-1a9.42,9.42,0,0,0,.24-1.77c.06-1.23.38-2.11,1.9-1.85,1,.17,1.37-.4,1.34-1.32a2.31,2.31,0,0,1,1.86-2.45c1.73-.61,3.42-1.35,5.11-2.07.82-.35,1.23-.27,1.09.74-.17,1.29-.28,2.58-.51,3.86-.16.94.14,1.23,1.08,1.27,3.08.14,3,.16,2.51,3.22-.18,1.08-.63,1.52-1.69,1.39-.27,0-.55,0-.81,0-1.42-.19-2.07.41-2.14,1.84s-.33,2.58-.44,3.87c-.17,2,.21,2.42,2.17,2,1.47-.33,1.44.31,1.44,1.36,0,3,0,3-3.08,3.17Z" style="fill:#a83642"/><path d="M192,119.46c-.41,1.67-1.67,2.86-2.47,4.31-.35.63-.88.21-1.3.13-2.09-.38-3.3.19-4.21,2.09-1.08,2.24-1.16,4.71-1.49,7.11-.35,2.63-.3,2.64-3,2.64h-5c.67-5.12,1.34-10.14,2-15.17.13-1,.52-1.52,1.65-1.41a23.9,23.9,0,0,0,3.57,0c1.41-.09,2.57,0,2,2.12,2.41-2.95,5.26-2.94,8.33-1.78Z" style="fill:#a83642"/><path d="M152.83,110.93c-3.72,0-3.71,0-3.19-3.8.5-3.65,1-7.29,1.41-10.95.15-1.38.65-2,2.12-1.85a37.53,37.53,0,0,0,4.39,0c.89,0,1.31.28,1.18,1.23-.67,4.88-1.33,9.76-2,14.64-.09.72-.54.7-1,.7Z" style="fill:#a83642"/><path d="M73.31,158.36a15.51,15.51,0,0,0,1.36-2.71c.54-2,1.95-2,3.51-1.84.73.06,1,.24.54,1-1.38,2.13-2.71,4.3-4.11,6.43-.76,1.16-2,.41-3,.56-.83.12-.86-.69-1-1.2-.72-1.92-1.36-3.88-2.09-5.79-.27-.71-.18-.93.63-1,2.57-.19,2.84,0,3.46,2.56A3.78,3.78,0,0,0,73.31,158.36Z" style="fill:#3b2c63"/><path d="M186.71,161.74c-1.7.42-2-.28-1.62-1.79a40.48,40.48,0,0,0,.52-4c.29-2,1.31-2.76,3.2-2,.71.28,1.16.44,1.77,0a1.22,1.22,0,0,1,.78-.16c.65,0,1.75-.18,1.69.62s-.51,2-1.67,1.83c-1.58-.16-2,.85-2.28,2a6.25,6.25,0,0,0-.29,1.76C188.84,161.41,188.31,162.2,186.71,161.74Z" style="fill:#3b2c63"/><path d="M102.25,161.75c-1.68.38-1.89-.39-1.62-1.76s.4-3,.6-4.49c.24-1.73.67-2,2.81-1.68,1.59.2.91,1.31.85,2.1-.1,1.29-.42,2.56-.5,3.85C104.3,161.22,104,162.26,102.25,161.75Z" style="fill:#3b2c63"/><path d="M101.59,153c.3-.79-.17-1.87.5-2.1a7.35,7.35,0,0,1,3,0c.66.07.3.68.27,1.05s.06,1.13-.78,1.1S102.69,153,101.59,153Z" style="fill:#3b2c63"/></svg>