<svg xmlns="http://www.w3.org/2000/svg" viewBox="0 0 250 250"><title>Grocery</title><path d="M41.51,139H38.42c-.94,0-1.88,0-2.82,0-.32,0-.45-.1-.41-.42a1.11,1.11,0,0,0,0-.15q0-11,0-22a13.26,13.26,0,0,1,2.23-7.57A13.43,13.43,0,0,1,46.63,103a13.84,13.84,0,1,1-4.76,25.58l-.17-.09-.19,0ZM49,109.26a7.36,7.36,0,1,0,7.36,7.37A7.39,7.39,0,0,0,49,109.26Z" style="fill:#3e902d"/><path d="M107.41,103.79h6.21v11c.24-.13.43-.23.61-.34a13.06,13.06,0,0,1,6-2.17,13.2,13.2,0,0,1,7.81,1.7,13.4,13.4,0,0,1,6.93,9.88,13.76,13.76,0,0,1-10.51,15.69,14.18,14.18,0,0,1-17.05-14q0-10.65,0-21.31C107.38,104.1,107.4,104,107.41,103.79Zm13.81,14.9A7.38,7.38,0,1,0,128.6,126,7.33,7.33,0,0,0,121.21,118.68Z" style="fill:#3e902d"/><path d="M96.43,112.88c0,.28,0,.47,0,.66q0,7.1,0,14.21a11.75,11.75,0,0,1-9.92,11.7,11.57,11.57,0,0,1-13.18-9.2,15.65,15.65,0,0,1-.29-2.89c0-4.61,0-9.21,0-13.82,0-.19,0-.38,0-.61.2,0,.36,0,.52,0,1.64,0,3.28,0,4.91,0,.43,0,.56.12.55.55,0,4.07-.07,8.14-.05,12.21a17.63,17.63,0,0,0,.28,3.72,5.7,5.7,0,0,0,10.66,1.12,5.86,5.86,0,0,0,.53-2.54q0-7.18,0-14.35c0-.69,0-.69.69-.69h5.32Z" style="fill:#3e902d"/><path d="M182.47,112.91c2.24,0,4.38,0,6.52,0a.7.7,0,0,1,.45.33c1.2,2,2.38,3.94,3.56,5.91.09.15.19.29.32.49.12-.22.21-.37.29-.53,1-1.92,1.95-3.84,2.91-5.77a.7.7,0,0,1,.73-.47c1.93,0,3.86,0,5.79,0h.49c-.1.22-.17.38-.25.53q-3,6-6,12a.83.83,0,0,0,0,.93q3.67,6.07,7.31,12.16l.3.52-.51,0c-1.83,0-3.67,0-5.5,0a.77.77,0,0,1-.76-.45c-1.24-2.05-2.5-4.09-3.76-6.14l-.39-.62c-.13.21-.23.36-.31.52-1.08,2-2.17,4.09-3.24,6.15a.87.87,0,0,1-.91.53c-1.94,0-3.89,0-5.92,0,.09-.21.16-.37.23-.51q3.07-6.07,6.16-12.13a1,1,0,0,0,0-1.18c-2.41-3.92-4.79-7.86-7.18-11.79Z" style="fill:#3e902d"/><path d="M152.64,138.93h-6.2V103.82h6.2Z" style="fill:#3e902d"/><path d="M165.69,139v-26c.17,0,.33,0,.48,0,1.75,0,3.5,0,5.25,0,.44,0,.54.14.54.56q0,12.5,0,25c0,.44-.13.55-.55.54-1.73,0-3.47,0-5.2,0Z" style="fill:#3e902d"/><path d="M165.24,106.16a3.89,3.89,0,0,1,7.77-.09,3.89,3.89,0,1,1-7.77.09Z" style="fill:#3e902d"/><path d="M212.53,139.13a2.66,2.66,0,1,1,2.66-2.66A2.66,2.66,0,0,1,212.53,139.13Zm0-5a2.31,2.31,0,1,0,2.31,2.31A2.31,2.31,0,0,0,212.53,134.16Z" style="fill:#3e902d"/><path d="M211.26,137.89v-2.82h1.2a2.05,2.05,0,0,1,.66.08.65.65,0,0,1,.33.27.81.81,0,0,1,.12.44.75.75,0,0,1-.19.52.9.9,0,0,1-.56.26,1.33,1.33,0,0,1,.31.24,3.22,3.22,0,0,1,.32.46l.34.55h-.68l-.41-.61a4,4,0,0,0-.3-.41.44.44,0,0,0-.17-.12.94.94,0,0,0-.29,0h-.12v1.18Zm.57-1.63h.42a2.17,2.17,0,0,0,.51,0,.31.31,0,0,0,.16-.12.37.37,0,0,0,.06-.21.34.34,0,0,0-.08-.23.35.35,0,0,0-.21-.11h-.86Z" style="fill:#3e902d"/></svg>