<?xml version="1.0" encoding="utf-8"?>
<!-- Generator: Adobe Illustrator 21.1.0, SVG Export Plug-In . SVG Version: 6.00 Build 0)  -->
<svg version="1.1" id="Layer_1" xmlns="http://www.w3.org/2000/svg" xmlns:xlink="http://www.w3.org/1999/xlink" x="0px" y="0px"
	 viewBox="0 0 32.6 26" style="enable-background:new 0 0 32.6 26;" xml:space="preserve">
<style type="text/css">
	.st0{fill:#F9E8A0;}
	.st1{fill:none;}
	.st2{fill:#414042;}
	.st3{fill:#FF0000;}
	.st4{fill:#CE593F;}
	.st5{fill:#EF8829;}
	.st6{clip-path:url(#SVGID_2_);}
	.st7{fill:#3F2D20;}
	.st8{fill:#F8E79F;}
	.st9{clip-path:url(#SVGID_4_);}
	.st10{clip-path:url(#SVGID_6_);}
	.st11{fill:#F7B239;}
	.st12{fill:#E09B2D;}
	.st13{fill:#9AD14B;}
	.st14{fill:#F95428;}
	.st15{fill:#E54728;}
	.st16{fill:#B27214;}
	.st17{fill:#F4DE3B;}
	.st18{fill:#90BC42;}
	.st19{fill:#FFFFFF;}
	.st20{clip-path:url(#SVGID_8_);fill:#FFFFFF;}
	.st21{clip-path:url(#SVGID_8_);fill:#333333;}
	.st22{fill:#CC722E;}
	.st23{fill:#B25719;}
	.st24{fill:#FFA91F;}
	.st25{fill:#8C5549;}
	.st26{opacity:0.15;}
	.st27{fill:#202020;}
	.st28{fill:#A4A4A5;}
	.st29{fill:#DCE0E2;}
	.st30{fill:#354251;}
	.st31{fill:#9DB6CA;}
	.st32{fill:#9ACFDF;}
	.st33{clip-path:url(#SVGID_10_);}
	.st34{clip-path:url(#SVGID_12_);}
	.st35{clip-path:url(#SVGID_14_);}
	.st36{fill:#FF7424;}
	.st37{fill:#FF4C1C;}
	.st38{fill:#DDA558;}
	.st39{fill:#D4F8F5;}
	.st40{opacity:0.1;fill:#54858D;enable-background:new    ;}
	.st41{fill:#FFD755;}
	.st42{fill:#FFF6C4;}
	.st43{fill:#6DA8D6;}
	.st44{fill:#FFDA44;}
	.st45{fill:#3FC378;}
	.st46{fill:#C9EEAE;}
	.st47{fill:#E21220;}
	.st48{fill:#FF505D;}
	.st49{fill:#FF7C80;}
	.st50{fill:#93298D;}
	.st51{fill:#FFF5CC;}
	.st52{fill:#0DD9DD;}
	.st53{fill:#02A6AA;}
	.st54{fill:#FDD44B;}
	.st55{fill:#84BD93;}
	.st56{clip-path:url(#SVGID_16_);fill:#EF8829;}
	.st57{clip-path:url(#SVGID_16_);fill:#3F2D20;}
	.st58{fill:none;stroke:#414042;stroke-width:0.75;stroke-miterlimit:10;}
	.st59{fill:#F6F6F6;}
	.st60{fill:#FF1D25;}
	.st61{fill:#FBB03B;}
	.st62{fill:#C7B299;}
	.st63{fill:#D2C1AD;}
	.st64{fill:#998675;}
	.st65{fill:#FF4A51;}
	.st66{fill:#B20209;}
	.st67{fill:#F0C891;}
	.st68{fill:none;stroke:#464646;stroke-width:16;stroke-linecap:round;stroke-linejoin:round;stroke-miterlimit:10;}
	.st69{clip-path:url(#SVGID_18_);}
	.st70{clip-path:url(#SVGID_20_);}
	.st71{clip-path:url(#SVGID_22_);}
	.st72{clip-path:url(#SVGID_24_);}
	.st73{clip-path:url(#SVGID_26_);}
	.st74{clip-path:url(#SVGID_28_);}
</style>
<g>
	<g>
		<path class="st3" d="M10.1,5.4c0,0,3.3,0.2,4.4,2.6s3.3,3,3.7,3.9c0.4,0.9,0.2,2.1,0.2,2.1L10.1,5.4z"/>
		<path class="st3" d="M19.9,15.5c0,0,3.4-0.3,4.4,4.2l-0.4-0.1L19.9,15.5z"/>
	</g>
	<path class="st8" d="M6,3.4c0,0,0.2-1,1.1-0.6l19.4,19.4c0,0,0.2,0.3,0.1,0.7c-0.1,0.4-0.6,0.4-0.6,0.4H6.7c0,0-0.6-0.1-0.6-0.9
		C6.1,21.6,6,3.4,6,3.4z"/>
	<g>
		<path class="st2" d="M26.7,21.8l-1.3-1.3c-0.6-0.6-0.9-1.4-1.2-2.2c-0.2-0.6-0.5-1.2-0.8-1.6c-1.1-1.3-2.1-1.6-3.5-1.7l-1-1
			c0-0.3,0.3-2.1-1.5-3.3c-1.7-1.2-2.2-2.1-2.9-3.3c-0.9-1.6-2.4-2-3.6-2.3C10.4,5,10,4.9,9.6,4.7L7.5,2.6C7.2,2.3,6.7,2.2,6.3,2.4
			C5.9,2.6,5.6,3,5.6,3.4v19.2c0,0.6,0.5,1.1,1.1,1.1h19.2c0.5,0,0.9-0.3,1-0.7C27.1,22.6,27,22.1,26.7,21.8L26.7,21.8z M22.8,17.2
			c0.3,0.3,0.5,0.9,0.7,1.4c0,0,0,0.1,0,0.1l-2.8-2.8C21.6,16,22.2,16.3,22.8,17.2L22.8,17.2z M10.8,5.9c1.1,0.3,2.4,0.6,3.2,1.9
			C14.6,9,15.2,10,17,11.3c0.9,0.7,1.2,1.5,1.2,2L10.8,5.9C10.8,5.8,10.8,5.8,10.8,5.9L10.8,5.9z M26.3,22.7c0,0.1-0.1,0.3-0.4,0.3
			H6.7c-0.2,0-0.4-0.2-0.4-0.4V3.4c0-0.3,0.2-0.4,0.3-0.4c0,0,0.1,0,0.2,0C6.8,3,6.9,3,7,3.1L24.9,21h0l1.3,1.3
			C26.4,22.5,26.3,22.7,26.3,22.7L26.3,22.7z M26.3,22.7"/>
		<path class="st2" d="M15.4,13.9c-0.1-0.1-0.4-0.1-0.5,0L8,20.8c-0.1,0.1-0.1,0.4,0,0.5c0.1,0.1,0.2,0.1,0.3,0.1
			c0.1,0,0.2,0,0.3-0.1l6.9-6.9C15.5,14.3,15.5,14.1,15.4,13.9L15.4,13.9z M15.4,13.9"/>
		<path class="st2" d="M8.3,18.4c0.1,0,0.2,0,0.3-0.1l5.3-5.3c0.1-0.1,0.1-0.4,0-0.5c-0.1-0.1-0.4-0.1-0.5,0L8,17.8
			c-0.1,0.1-0.1,0.4,0,0.5C8.1,18.3,8.2,18.4,8.3,18.4L8.3,18.4z M8.3,18.4"/>
		<path class="st2" d="M16.9,15.5c-0.1-0.1-0.4-0.1-0.5,0l-5.3,5.3c-0.1,0.1-0.1,0.4,0,0.5c0.1,0.1,0.2,0.1,0.3,0.1
			c0.1,0,0.2,0,0.3-0.1l5.3-5.3C17.1,15.8,17.1,15.6,16.9,15.5L16.9,15.5z M16.9,15.5"/>
		<path class="st2" d="M18.5,17c-0.1-0.1-0.4-0.1-0.5,0l-3.8,3.8c-0.1,0.1-0.1,0.4,0,0.5c0.1,0.1,0.2,0.1,0.3,0.1
			c0.1,0,0.2,0,0.3-0.1l3.8-3.8C18.6,17.4,18.6,17.1,18.5,17L18.5,17z M18.5,17"/>
		<path class="st2" d="M19.5,18.5l-2.3,2.3c-0.1,0.1-0.1,0.4,0,0.5c0.1,0.1,0.2,0.1,0.3,0.1c0.1,0,0.2,0,0.3-0.1L20,19
			c0.1-0.1,0.1-0.4,0-0.5C19.8,18.4,19.6,18.4,19.5,18.5L19.5,18.5z M19.5,18.5"/>
		<path class="st2" d="M8.3,15.3c0.1,0,0.2,0,0.3-0.1l3.8-3.8c0.1-0.1,0.1-0.4,0-0.5c-0.1-0.1-0.4-0.1-0.5,0L8,14.7
			c-0.1,0.1-0.1,0.4,0,0.5C8.1,15.3,8.2,15.3,8.3,15.3L8.3,15.3z M8.3,15.3"/>
		<path class="st2" d="M8.3,12.3c0.1,0,0.2,0,0.3-0.1l2.3-2.3c0.1-0.1,0.1-0.4,0-0.5c-0.1-0.1-0.4-0.1-0.5,0L8,11.6
			c-0.1,0.1-0.1,0.4,0,0.5C8.1,12.2,8.2,12.3,8.3,12.3L8.3,12.3z M8.3,12.3"/>
		<path class="st2" d="M8.3,9.2c0.1,0,0.2,0,0.3-0.1l0.8-0.8c0.1-0.1,0.1-0.4,0-0.5c-0.1-0.1-0.4-0.1-0.5,0L8,8.6
			C7.9,8.7,7.9,9,8,9.1C8.1,9.2,8.2,9.2,8.3,9.2L8.3,9.2z M8.3,9.2"/>
		<path class="st2" d="M21,20l-0.8,0.8c-0.1,0.1-0.1,0.4,0,0.5c0.1,0.1,0.2,0.1,0.3,0.1c0.1,0,0.2,0,0.3-0.1l0.8-0.8
			c0.1-0.1,0.1-0.4,0-0.5C21.4,19.9,21.1,19.9,21,20L21,20z M21,20"/>
	</g>
</g>
</svg>
