<?xml version="1.0" encoding="utf-8"?>
<!-- Generator: Adobe Illustrator 21.1.0, SVG Export Plug-In . SVG Version: 6.00 Build 0)  -->
<svg version="1.1" id="Layer_1" xmlns="http://www.w3.org/2000/svg" xmlns:xlink="http://www.w3.org/1999/xlink" x="0px" y="0px"
	 viewBox="0 0 20 26.4" style="enable-background:new 0 0 20 26.4;" xml:space="preserve">
<style type="text/css">
	.st0{fill:#F9E8A0;}
	.st1{fill:none;}
	.st2{fill:#414042;}
	.st3{fill:#FF0000;}
	.st4{fill:#CE593F;}
	.st5{fill:#EF8829;}
	.st6{clip-path:url(#SVGID_2_);}
	.st7{fill:#3F2D20;}
	.st8{fill:#F8E79F;}
	.st9{clip-path:url(#SVGID_4_);}
	.st10{clip-path:url(#SVGID_6_);}
	.st11{fill:#F7B239;}
	.st12{fill:#E09B2D;}
	.st13{fill:#9AD14B;}
	.st14{fill:#F95428;}
	.st15{fill:#E54728;}
	.st16{fill:#B27214;}
	.st17{fill:#F4DE3B;}
	.st18{fill:#90BC42;}
	.st19{fill:#FFFFFF;}
	.st20{clip-path:url(#SVGID_8_);fill:#FFFFFF;}
	.st21{clip-path:url(#SVGID_8_);fill:#333333;}
	.st22{fill:#CC722E;}
	.st23{fill:#B25719;}
	.st24{fill:#FFA91F;}
	.st25{fill:#8C5549;}
	.st26{opacity:0.15;}
	.st27{fill:#202020;}
	.st28{fill:#A4A4A5;}
	.st29{fill:#DCE0E2;}
	.st30{fill:#354251;}
	.st31{fill:#9DB6CA;}
	.st32{fill:#9ACFDF;}
	.st33{clip-path:url(#SVGID_10_);}
	.st34{clip-path:url(#SVGID_12_);}
	.st35{clip-path:url(#SVGID_14_);}
	.st36{fill:#FF7424;}
	.st37{fill:#FF4C1C;}
	.st38{fill:#DDA558;}
	.st39{fill:#D4F8F5;}
	.st40{opacity:0.1;fill:#54858D;enable-background:new    ;}
	.st41{fill:#FFD755;}
	.st42{fill:#FFF6C4;}
	.st43{fill:#6DA8D6;}
	.st44{fill:#FFDA44;}
	.st45{fill:#3FC378;}
	.st46{fill:#C9EEAE;}
	.st47{fill:#E21220;}
	.st48{fill:#FF505D;}
	.st49{fill:#FF7C80;}
	.st50{fill:#93298D;}
	.st51{fill:#FFF5CC;}
	.st52{fill:#0DD9DD;}
	.st53{fill:#02A6AA;}
	.st54{fill:#FDD44B;}
	.st55{fill:#84BD93;}
	.st56{clip-path:url(#SVGID_16_);fill:#EF8829;}
	.st57{clip-path:url(#SVGID_16_);fill:#3F2D20;}
	.st58{fill:none;stroke:#414042;stroke-width:0.75;stroke-miterlimit:10;}
	.st59{fill:#F6F6F6;}
	.st60{fill:#FF1D25;}
	.st61{fill:#FBB03B;}
	.st62{fill:#C7B299;}
	.st63{fill:#D2C1AD;}
	.st64{fill:#998675;}
	.st65{fill:#FF4A51;}
	.st66{fill:#B20209;}
	.st67{fill:#F0C891;}
	.st68{fill:none;stroke:#464646;stroke-width:16;stroke-linecap:round;stroke-linejoin:round;stroke-miterlimit:10;}
	.st69{clip-path:url(#SVGID_18_);}
	.st70{clip-path:url(#SVGID_20_);}
	.st71{clip-path:url(#SVGID_22_);}
	.st72{clip-path:url(#SVGID_24_);}
	.st73{clip-path:url(#SVGID_26_);}
	.st74{clip-path:url(#SVGID_28_);}
</style>
<g>
	<g>
		<path class="st3" d="M16,24.5c-1.4-0.3-4-0.8-6-0.8c-2.3,0-5.3,0.6-6.5,0.8l-0.4,0.1L3.2,25c0.3,0.4,0.8,0.8,1.3,0.8h10.8
			c0.5,0,1-0.3,1.3-0.7l0.2-0.3l-0.4-0.1C16.3,24.6,16.1,24.6,16,24.5z"/>
		<g>
			<path class="st8" d="M8.2,11.4l0.3,0.1V3.2h-2v7.6l0.1,0.1C7.1,11.1,7.7,11.3,8.2,11.4z"/>
			<path class="st8" d="M5.3,9.7l0.2-0.1L5.3,9.7C5.4,9.8,5.5,9.9,5.6,10L6,10.4V5.2h-2v3.6l0.1,0.1C4.7,9,5.1,9.3,5.3,9.7z"/>
			<path class="st8" d="M3.3,8.6l0.3,0V6.6h-2v1.9h1.5C3.2,8.6,3.3,8.6,3.3,8.6z"/>
			<path class="st8" d="M9.5,11.9L9.5,11.9c0.1,0,0.3,0,0.4,0c0.1,0,0.3,0,0.4,0l0.1,0c0.1,0,0.2,0,0.4,0l0.2,0v-11H9v11l0.2,0
				C9.3,11.8,9.4,11.9,9.5,11.9z"/>
			<path class="st8" d="M16.7,8.6h1.5V6.6h-2v1.9l0.3,0C16.6,8.6,16.7,8.6,16.7,8.6z"/>
			<path class="st8" d="M13.2,10.8l0.1-0.1V3.2h-2v8.3l0.3-0.1C12.2,11.3,12.8,11.1,13.2,10.8z"/>
			<path class="st8" d="M14.5,9.7L14.5,9.7c0.3-0.4,0.7-0.8,1.2-0.9l0.2-0.1V5.2h-2v5.2l0.4-0.4C14.3,9.9,14.4,9.8,14.5,9.7z"/>
		</g>
		<path class="st3" d="M18.4,9.1L18.4,9.1c-0.1,0-0.2-0.1-0.3-0.1h-1.4c-0.2,0-0.4,0-0.6,0.1c-0.5,0.1-0.9,0.5-1.2,0.9
			c-0.2,0.3-0.6,0.6-0.9,0.9l-0.2,0.1l0.1,0.2l-0.2-0.2c-0.6,0.4-1.3,0.8-2.1,1l-0.4,0.1c-0.2,0.1-0.4,0.1-0.7,0.1
			c-0.4,0.1-0.7,0.1-1.2,0c-0.2,0-0.4-0.1-0.6-0.1l-0.4-0.1c-0.8-0.2-1.5-0.6-2.1-1L5.9,11c-0.4-0.3-0.7-0.6-1-1
			C4.7,9.6,4.2,9.3,3.8,9.1l0,0C3.5,9.1,3.3,9,3.1,9H1.7c-0.1,0-0.2,0-0.3,0c-0.6,0.2-0.8,0.8-0.8,1.3v0.1c0,0.1,0,0.3,0,0.4l0,0.7
			L1,11.4c0.2-0.1,0.4-0.2,0.7-0.2h1.4c0.9,0,1.7,0.4,2.2,1.1c0.9,1.3,3.1,2.2,4.6,2.2c1.5,0,3.7-0.9,4.6-2.2
			c0.5-0.7,1.3-1.1,2.2-1.1h1.4c0.2,0,0.5,0.1,0.7,0.2l0.4,0.2l0-0.6c0-0.2,0-0.4,0-0.5v-0.1C19.2,9.7,18.9,9.2,18.4,9.1z"/>
		<path class="st8" d="M18.1,11.7h-1.4c-0.7,0-1.4,0.4-1.8,0.9c-1,1.5-3.4,2.4-5,2.4c-1.6,0-3.9-0.9-5-2.4c-0.4-0.6-1.1-0.9-1.8-0.9
			H1.7c-0.5,0-0.8,0.3-1,0.8l0,0l0,0.1c0.1,1.3,0.2,2.7,0.4,4l0.1,0.4c0,0.3,0.1,0.6,0.1,0.9l0.1,0.7c0.1,0.3,0.1,0.6,0.2,0.9
			c0.1,0.3,0.1,0.5,0.2,0.8C1.9,20.6,2,20.9,2,21.1c0.1,0.5,0.3,1,0.4,1.5c0,0.1,0.1,0.2,0.1,0.4c0.1,0.3,0.2,0.6,0.3,1l0.1,0.2
			l0.2,0c0.7-0.2,3.3-0.7,5.6-0.8c0.4,0,0.8,0,1.2,0c0.3,0,0.7,0,1.2,0.1c1.9,0.1,3.9,0.6,4.9,0.7l0.8,0.2L17,24
			c0.1-0.4,0.2-0.7,0.3-1.1l0.1-0.3c0.2-0.5,0.3-1,0.4-1.5c0.1-0.2,0.1-0.5,0.2-0.7l0-0.1c0.1-0.2,0.1-0.5,0.2-0.7
			c0.1-0.3,0.1-0.6,0.2-1l0.1-0.5c0.1-0.4,0.1-0.7,0.2-1.1l0-0.3c0.2-1.4,0.3-2.8,0.4-4.1l0-0.1C19,12,18.6,11.7,18.1,11.7z"/>
	</g>
	<g>
		<path class="st2" d="M18.3,22.3c0.1-0.3,0.2-0.6,0.3-0.9c0.1-0.3,0.1-0.6,0.2-0.8c0.1-0.2,0.1-0.5,0.2-0.7c0.1-0.3,0.1-0.7,0.2-1
			c0-0.2,0.1-0.4,0.1-0.5c0.1-0.4,0.1-0.8,0.2-1.1c0-0.1,0-0.1,0-0.2c0.3-2.2,0.5-4.4,0.5-6.6v-0.1c0-0.8-0.4-1.5-0.9-1.8V5.9h-2.4
			V4.4h-2.4v-2h-2.4V0H8.3v2.4H5.8v2H3.4v1.5H1v2.6c-0.6,0.3-1,1-1,1.8v0.1c0,2.2,0.2,4.4,0.5,6.5c0,0.1,0,0.2,0.1,0.3
			c0.1,0.4,0.1,0.7,0.2,1.1c0,0.2,0.1,0.4,0.1,0.6c0.1,0.3,0.1,0.6,0.2,1c0.1,0.3,0.1,0.5,0.2,0.8c0.1,0.3,0.1,0.5,0.2,0.8
			c0.1,0.3,0.2,0.6,0.3,1c0.1,0.2,0.1,0.4,0.2,0.6c0.2,0.5,0.3,1.1,0.5,1.6L2.5,25l0,0c0.3,0.8,1.2,1.4,2.1,1.4h10.8
			c1,0,1.9-0.7,2.2-1.7l0,0l0-0.2c0.2-0.5,0.4-1.1,0.5-1.6C18.2,22.8,18.2,22.5,18.3,22.3L18.3,22.3z M18.5,16.7c0,0.1,0,0.2,0,0.3
			c-0.1,0.4-0.1,0.7-0.2,1.1c0,0.2-0.1,0.4-0.1,0.5c-0.1,0.3-0.1,0.6-0.2,0.9c-0.1,0.2-0.1,0.5-0.2,0.7c-0.1,0.3-0.1,0.5-0.2,0.8
			c-0.1,0.5-0.3,1-0.4,1.5c0,0.1-0.1,0.2-0.1,0.3c-0.1,0.4-0.2,0.7-0.3,1.1c-0.2,0-0.4-0.1-0.6-0.1C14.8,23.5,12.1,23,10,23
			c-2.4,0-5.7,0.6-6.8,0.9c-0.1-0.3-0.2-0.6-0.3-1c0-0.1-0.1-0.3-0.1-0.4c-0.2-0.5-0.3-1-0.4-1.5c-0.1-0.2-0.1-0.5-0.2-0.7
			C2.1,20,2,19.8,2,19.5c-0.1-0.3-0.1-0.6-0.2-0.9c0-0.2-0.1-0.4-0.1-0.6c-0.1-0.3-0.1-0.7-0.2-1c0-0.1,0-0.3-0.1-0.4
			c-0.2-1.3-0.3-2.6-0.4-4c0,0,0-0.1,0-0.1c0.1-0.2,0.3-0.7,0.8-0.7h1.4c0.6,0,1.3,0.3,1.6,0.8c1.1,1.5,3.5,2.5,5.2,2.5
			c1.6,0,4.1-1,5.2-2.5c0.4-0.5,1-0.8,1.6-0.8h1.4c0.5,0,0.7,0.5,0.8,0.7c0,0,0,0,0,0C18.9,14,18.7,15.3,18.5,16.7L18.5,16.7z
			 M1,10.4L1,10.4c0-0.5,0.2-1,0.6-1.1c0.1,0,0.1,0,0.2,0h1.4c0.2,0,0.4,0,0.6,0.1h0c0.4,0.1,0.8,0.4,1.1,0.8c0,0,0,0,0,0
			c0.3,0.4,0.6,0.7,1,1v0l0.2,0.1c0,0,0,0,0.1,0c0.7,0.4,1.4,0.8,2.2,1v0l0.4,0.1c0,0,0,0,0,0c0.2,0,0.4,0.1,0.6,0.1c0,0,0,0,0,0
			c0.2,0,0.4,0,0.6,0c0.2,0,0.4,0,0.6,0c0,0,0,0,0,0c0.2,0,0.5-0.1,0.7-0.1c0,0,0,0,0,0l0.4-0.1v0c0.7-0.2,1.5-0.6,2.2-1
			c0,0,0,0,0.1,0l0.2-0.1v0c0.4-0.3,0.7-0.6,1-1c0,0,0,0,0,0c0.3-0.4,0.7-0.6,1.1-0.8c0.2-0.1,0.4-0.1,0.5-0.1h1.4
			c0.1,0,0.1,0,0.2,0c0.4,0.1,0.6,0.6,0.6,1v0.1c0,0.2,0,0.5,0,0.7c-0.2-0.1-0.5-0.2-0.8-0.2h-1.4c-1,0-1.9,0.5-2.4,1.2
			c-0.9,1.3-3,2.1-4.4,2.1c-1.4,0-3.5-0.8-4.4-2.1c-0.6-0.8-1.5-1.2-2.4-1.2H1.8c-0.3,0-0.6,0.1-0.8,0.2C1,10.9,1,10.6,1,10.4
			L1,10.4z M18.1,6.8v1.4h-1.3c-0.1,0-0.1,0-0.2,0V6.8H18.1z M15.6,5.4v3.1c-0.5,0.2-0.9,0.6-1.3,1c0,0,0,0,0,0
			c-0.1,0.1-0.1,0.1-0.2,0.2V5.4H15.6z M13.2,3.4v7.2c-0.4,0.3-1,0.4-1.5,0.5V3.4H13.2z M9.3,1h1.5v10.6c-0.1,0-0.2,0-0.4,0
			c0,0,0,0,0,0c-0.2,0-0.5,0-0.7,0c0,0,0,0,0,0c-0.1,0-0.2,0-0.4,0V1z M6.8,3.4h1.5v7.7c-0.5-0.1-1-0.3-1.5-0.5V3.4z M4.4,5.4h1.5
			v4.4C5.8,9.7,5.7,9.6,5.6,9.5c0,0,0,0,0,0c-0.3-0.4-0.7-0.8-1.2-1V5.4z M1.9,6.8h1.5v1.4c-0.1,0-0.1,0-0.2,0H1.9V6.8z M15.4,25.4
			H4.6c-0.4,0-0.9-0.3-1.1-0.6C4.8,24.5,7.8,24,10,24c2,0,4.6,0.5,6,0.8c0.2,0,0.3,0.1,0.4,0.1C16.2,25.2,15.8,25.4,15.4,25.4
			L15.4,25.4z M15.4,25.4"/>
		<g>
			<path class="st2" d="M10,15c-2.4,0-4.3,1.9-4.3,4.3c0,2.4,1.9,4.3,4.3,4.3c2.4,0,4.3-1.9,4.3-4.3C14.4,16.9,12.4,15,10,15z
				 M10,22.4c-1.7,0-3.2-1.4-3.2-3.2s1.4-3.2,3.2-3.2s3.2,1.4,3.2,3.2S11.8,22.4,10,22.4z"/>
			<path class="st2" d="M11.6,18.7h-1v-1c0-0.3-0.3-0.6-0.6-0.6c-0.3,0-0.6,0.3-0.6,0.6v1h-1c-0.3,0-0.6,0.3-0.6,0.6
				c0,0.3,0.3,0.6,0.6,0.6h1v1c0,0.3,0.3,0.6,0.6,0.6c0.3,0,0.6-0.3,0.6-0.6v-1h1c0.3,0,0.6-0.3,0.6-0.6
				C12.2,19,11.9,18.7,11.6,18.7z"/>
		</g>
	</g>
</g>
</svg>
