<?xml version="1.0" encoding="utf-8"?>
<!-- Generator: Adobe Illustrator 21.1.0, SVG Export Plug-In . SVG Version: 6.00 Build 0)  -->
<svg version="1.1" id="Layer_1" xmlns="http://www.w3.org/2000/svg" xmlns:xlink="http://www.w3.org/1999/xlink" x="0px" y="0px"
	 viewBox="0 0 32.6 26" style="enable-background:new 0 0 32.6 26;" xml:space="preserve">
<style type="text/css">
	.st0{fill:#F9E8A0;}
	.st1{fill:none;}
	.st2{fill:#414042;}
	.st3{fill:#FF0000;}
	.st4{fill:#CE593F;}
	.st5{fill:#EF8829;}
	.st6{clip-path:url(#SVGID_2_);}
	.st7{fill:#3F2D20;}
	.st8{fill:#F8E79F;}
	.st9{clip-path:url(#SVGID_4_);}
	.st10{clip-path:url(#SVGID_6_);}
	.st11{fill:#F7B239;}
	.st12{fill:#E09B2D;}
	.st13{fill:#9AD14B;}
	.st14{fill:#F95428;}
	.st15{fill:#E54728;}
	.st16{fill:#B27214;}
	.st17{fill:#F4DE3B;}
	.st18{fill:#90BC42;}
	.st19{fill:#FFFFFF;}
	.st20{clip-path:url(#SVGID_8_);fill:#FFFFFF;}
	.st21{clip-path:url(#SVGID_8_);fill:#333333;}
	.st22{fill:#CC722E;}
	.st23{fill:#B25719;}
	.st24{fill:#FFA91F;}
	.st25{fill:#8C5549;}
	.st26{opacity:0.15;}
	.st27{fill:#202020;}
	.st28{fill:#A4A4A5;}
	.st29{fill:#DCE0E2;}
	.st30{fill:#354251;}
	.st31{fill:#9DB6CA;}
	.st32{fill:#9ACFDF;}
	.st33{clip-path:url(#SVGID_10_);}
	.st34{clip-path:url(#SVGID_12_);}
	.st35{clip-path:url(#SVGID_14_);}
	.st36{fill:#FF7424;}
	.st37{fill:#FF4C1C;}
	.st38{fill:#DDA558;}
	.st39{fill:#D4F8F5;}
	.st40{opacity:0.1;fill:#54858D;enable-background:new    ;}
	.st41{fill:#FFD755;}
	.st42{fill:#FFF6C4;}
	.st43{fill:#6DA8D6;}
	.st44{fill:#FFDA44;}
	.st45{fill:#3FC378;}
	.st46{fill:#C9EEAE;}
	.st47{fill:#E21220;}
	.st48{fill:#FF505D;}
	.st49{fill:#FF7C80;}
	.st50{fill:#93298D;}
	.st51{fill:#FFF5CC;}
	.st52{fill:#0DD9DD;}
	.st53{fill:#02A6AA;}
	.st54{fill:#FDD44B;}
	.st55{fill:#84BD93;}
	.st56{clip-path:url(#SVGID_16_);fill:#EF8829;}
	.st57{clip-path:url(#SVGID_16_);fill:#3F2D20;}
	.st58{fill:none;stroke:#414042;stroke-width:0.75;stroke-miterlimit:10;}
	.st59{fill:#F6F6F6;}
	.st60{fill:#FF1D25;}
	.st61{fill:#FBB03B;}
	.st62{fill:#C7B299;}
	.st63{fill:#D2C1AD;}
	.st64{fill:#998675;}
	.st65{fill:#FF4A51;}
	.st66{fill:#B20209;}
	.st67{fill:#F0C891;}
	.st68{fill:none;stroke:#464646;stroke-width:16;stroke-linecap:round;stroke-linejoin:round;stroke-miterlimit:10;}
	.st69{clip-path:url(#SVGID_18_);}
	.st70{clip-path:url(#SVGID_20_);}
	.st71{clip-path:url(#SVGID_22_);}
	.st72{clip-path:url(#SVGID_24_);}
	.st73{clip-path:url(#SVGID_26_);}
	.st74{clip-path:url(#SVGID_28_);}
</style>
<g>
	<path class="st0" d="M8.7,21.3c0,0-3.3,0.3-3.3-2.5v-2.4c0,0-0.9-0.3-0.9-1.6c0,0,0-1,0.8-1.3c-0.5-0.3-1-1.3,0-1.6
		c0-0.5,1-8.5,10.4-7.3h4.8c0,0,6.1,0.6,6.6,7.3c0,0,1.5,0.3,0.2,1.5c0.5,0.4,1.5,2.2-0.1,2.9c-0.1,0.8,0,2.2,0,2.2S27,21,24.8,21.3
		L8.7,21.3z"/>
	<path class="st3" d="M5.7,16.6c0,0-1.1-0.7-1-2.1c0.1-1.4,1.7-1,2.1-0.7c0.4,0.3,2.3,1,4.1,0.1s2.4-0.9,3.6,0
		c1.2,0.9,3,0.2,3.9-0.3c1-0.5,2.2-0.4,3.2,0.2s2.7,0.6,4-0.2s2.3,0.4,2.3,0.8s0.2,1.8-0.9,2.1c-1.2,0-10.6,0.1-10.6,0.1l-4.4,2.6
		l-4.6-2.6L5.7,16.6z"/>
	<g>
		<path class="st2" d="M27.9,13.5c0.3-0.2,0.4-0.5,0.4-0.8c0-0.5-0.3-0.9-0.7-1c-0.2-4-3.5-7.3-7.6-7.3h-7.4c-4.1,0-7.4,3.2-7.6,7.3
			c-0.4,0.1-0.7,0.5-0.7,1c0,0.3,0.2,0.6,0.4,0.8c-0.4,0.4-0.6,0.9-0.6,1.4c0,0.7,0.4,1.3,0.9,1.6v2.2c0,1.6,1.3,2.9,2.9,2.9h16.7
			c1.6,0,2.9-1.3,2.9-2.9v-2.2c0.5-0.3,0.9-1,0.9-1.6C28.5,14.3,28.3,13.8,27.9,13.5L27.9,13.5z M5.4,12.3h2.9v-0.7H5.8
			C6,8,9,5.1,12.6,5.1H20c3.7,0,6.7,2.9,6.9,6.5H9.4v0.7h17.8c0.2,0,0.3,0.2,0.3,0.3S27.4,13,27.2,13c-0.1,0-0.3,0-0.4,0l0,0l0,0
			c-0.7,0.1-1.2,0.3-1.6,0.5c-0.4,0.2-0.8,0.4-1.7,0.4c-0.1,0-0.2,0-0.3,0c-0.6,0-1-0.2-1.4-0.4c-0.5-0.2-1-0.5-2-0.5
			c-0.2,0-0.4,0-0.5,0c-0.7,0.1-1.1,0.3-1.5,0.4c-0.1,0.1-0.2,0.1-0.3,0.1c-0.3,0.1-0.7,0.2-1.3,0.3c0,0,0,0,0,0l0,0l0,0
			c0,0,0,0-0.1,0c0,0-0.1,0-0.1,0c0,0,0,0,0,0c-0.3,0-0.6-0.1-0.8-0.1c-0.3-0.1-0.5-0.2-0.7-0.3c-0.5-0.2-1-0.5-2-0.5
			c-1,0-1.5,0.3-2,0.5c-0.4,0.2-0.7,0.4-1.4,0.4c-0.1,0-0.2,0-0.3,0c-0.8,0-1.2-0.2-1.7-0.4C7,13.3,6.6,13,5.8,13l0,0h0
			c-0.1,0-0.3,0-0.4,0c-0.2,0-0.3-0.2-0.3-0.3C5.1,12.4,5.2,12.3,5.4,12.3L5.4,12.3z M26.9,17.7h-7.7v0.7h7.7v0.4
			c0,1.2-1,2.2-2.2,2.2H8c-1.2,0-2.2-1-2.2-2.2v-1.9h1.1l5.1,2.8l5.1-2.8h9.6V17.7z M8.4,16.8h7.3l-3.6,2L8.4,16.8z M26.6,16.1h-8v0
			H6.1c-0.7,0-1.2-0.5-1.2-1.2c0-0.6,0.4-1.1,1-1.2c0.6,0.1,0.9,0.2,1.2,0.4c0.4,0.2,0.9,0.4,1.8,0.5c0.1,0,0.1,0,0.2,0
			c1,0,1.5-0.3,2-0.5c0.4-0.2,0.8-0.4,1.7-0.4c0.2,0,0.4,0,0.5,0c0.1,0,0.2,0,0.2,0c0,0,0.1,0,0.1,0c0.3,0.1,0.5,0.2,0.8,0.3
			c0.3,0.1,0.6,0.3,1.1,0.4c0.1,0,0.1,0,0.2,0c0,0,0.1,0,0.2,0c0.2,0,0.3,0,0.5,0h0c0.2,0,0.4,0,0.6,0c0.6-0.1,1-0.3,1.3-0.4
			c0,0,0,0,0,0c0.4-0.2,0.8-0.4,1.7-0.4c0.2,0,0.4,0,0.5,0c0.1,0,0.2,0,0.2,0c0,0,0.1,0,0.1,0c0.3,0.1,0.5,0.2,0.8,0.3
			c0.3,0.1,0.6,0.3,1.1,0.4c0.1,0,0.1,0,0.2,0c0,0,0.1,0,0.2,0c0.2,0,0.3,0,0.5,0c0.1,0,0.1,0,0.2,0c0.9,0,1.4-0.3,1.8-0.5
			c0.3-0.2,0.7-0.3,1.2-0.4c0.6,0.1,1,0.6,1,1.2C27.8,15.6,27.2,16.1,26.6,16.1L26.6,16.1z M26.6,16.1"/>
		<rect x="12.2" y="5.9" class="st2" width="1.1" height="0.7"/>
		<rect x="14" y="7.5" class="st2" width="1.1" height="0.7"/>
		<rect x="10.4" y="7.5" class="st2" width="1.1" height="0.7"/>
		<rect x="21.1" y="7.5" class="st2" width="1.1" height="0.7"/>
		<rect x="17.6" y="7.5" class="st2" width="1.1" height="0.7"/>
		<rect x="15.8" y="5.9" class="st2" width="1.1" height="0.7"/>
		<rect x="19.3" y="5.9" class="st2" width="1.1" height="0.7"/>
	</g>
</g>
</svg>
