<svg xmlns="http://www.w3.org/2000/svg" viewBox="0 0 250 250"><title>CR</title><path d="M144.71,144.62c-2.22,1-4.42,2.1-6.68,3-23.85,9.71-51.63-4.88-57.28-30.06a42.78,42.78,0,0,1,34.56-51.94c23.39-4.2,46.25,12.48,49.47,36.08a42.56,42.56,0,0,1-3.42,23.88,7,7,0,0,1-1.54,2.67,34.61,34.61,0,0,0-21.06-5c-1.61.11-1.8.74-1.66,2C137.88,132.45,139.79,139.13,144.71,144.62ZM122.4,89.75a18.12,18.12,0,1,0,.17,36.24,18.12,18.12,0,1,0-.17-36.24Z" style="fill:#8cc542"/><path d="M144.71,144.62c-4.93-5.49-6.83-12.17-7.61-19.3-.14-1.28.06-1.9,1.66-2a34.61,34.61,0,0,1,21.06,5c7,5.86,9.75,13.67,10.5,22.45.12,1.41-.3,1.78-1.66,1.82-7.42.22-14.53-.75-20.81-5.13A15.66,15.66,0,0,1,144.71,144.62Z" style="fill:#038855"/><path d="M58,179.71,64.12,185H58.81c-.31,0-.48-.25-.68-.43-1.19-1-2.39-2.07-3.55-3.15a1.85,1.85,0,0,0-1.55-.54,13.16,13.16,0,0,1-7.91-1.62,11.31,11.31,0,0,1-5.57-8.94c-.41-3.55,0-7,2.15-10,2.68-3.73,6.46-5,10.89-4.91,7.84.22,12.57,6.28,11.83,14.27a11.74,11.74,0,0,1-4.33,8.62C59.47,178.79,58.76,179.2,58,179.71Zm2-11.5a10.73,10.73,0,0,0-.4-3.25,7.51,7.51,0,0,0-7.15-5.84c-3.94-.11-6.74,1.77-7.92,5.41a11.58,11.58,0,0,0,.16,7.79,7.93,7.93,0,0,0,12.13,3.42C59.23,173.83,59.94,171.14,60,168.21Z" style="fill:#038855"/><path d="M126.95,162.27c-2.86,2.59-5.5,5-8.19,7.38-.68.6-.74.9-.05,1.57,2.89,2.83,5.71,5.73,8.56,8.6.17.17.32.35.64.7-1.4,0-2.64-.1-3.84,0a3.45,3.45,0,0,1-3.26-1.42c-2-2.36-4.16-4.59-6.26-6.88-.34.22-.2.52-.2.77,0,2.25,0,4.5,0,6.75,0,.6-.17.8-.77.76a17.74,17.74,0,0,0-2.46,0c-.72.06-.91-.18-.9-.9,0-7.18,0-14.36,0-21.53,0-.94,0-1.89,0-2.83,0-.72.22-.89.88-.84a14.58,14.58,0,0,0,2.37,0c.78-.07.89.26.89.93,0,4.14,0,8.27,0,12.41V169l3.22-3.07,3.29-3.16a1.17,1.17,0,0,1,.84-.47C123.35,162.28,125,162.27,126.95,162.27Z" style="fill:#038855"/><path d="M204,162.27l-1.57,1.43c-2.28,2.06-4.55,4.14-6.85,6.17-.48.43-.5.66,0,1.11,3.16,3,6.3,6.09,9.59,9.29a5.29,5.29,0,0,1-2.27.23c-1.22,0-2.58.33-3.61-.11s-1.72-1.66-2.54-2.56l-5.13-5.58c-.36.19-.2.5-.2.74,0,2.25,0,4.5,0,6.76,0,.58-.14.81-.76.77a17.52,17.52,0,0,0-2.46,0c-.71.05-.92-.16-.91-.89,0-6.39,0-12.78,0-19.17,0-1.73,0-3.47,0-5.2,0-.73.24-.88.89-.83a15.23,15.23,0,0,0,2.28,0c.75-.06,1,.17,1,.94,0,4.14,0,8.28,0,12.42V169c1.83-1.75,3.58-3.26,5.12-5a4.68,4.68,0,0,1,4.37-1.76A26.24,26.24,0,0,0,204,162.27Z" style="fill:#038855"/><path d="M152.38,164.09a7.69,7.69,0,0,1,6.14-2.21c4,.17,6.46,2.51,6.61,6.47s.06,7.73.09,11.59c0,.52-.21.6-.65.59-.91,0-1.83,0-2.74,0-.58,0-.71-.16-.7-.72,0-2.92,0-5.84,0-8.77a16.88,16.88,0,0,0-.17-2.36c-.46-3.28-3.36-4.62-6.2-2.84a5.55,5.55,0,0,0-2.4,4.5,90,90,0,0,0-.12,9.22c0,.83-.23,1-1,1a19.64,19.64,0,0,0-2.46,0c-.47,0-.66-.12-.62-.61s0-1,0-1.55c0-7.67,0-15.34,0-23,0-.76.19-1,1-.94a15.94,15.94,0,0,0,2.37,0c.61,0,.77.17.77.77,0,2.65,0,5.3,0,7.94A1.4,1.4,0,0,0,152.38,164.09Z" style="fill:#038855"/><path d="M183.49,175.61c0,1.37,0,2.55,0,3.73a.48.48,0,0,1-.39.52c-3.36,1.13-6.75,1.59-10.18.38a7.63,7.63,0,0,1-4.8-4.79,11.73,11.73,0,0,1-.31-7.35,8.69,8.69,0,0,1,9.91-6.16c4.07.59,6.35,2.92,7,7.13.11.78.11,1.58.22,2.36s-.1,1.08-1,1.06c-3.77-.06-7.54,0-11.32,0-.71,0-.95.09-.76.89.73,3.07,3.71,4.85,7.16,4.17A10.29,10.29,0,0,0,183.49,175.61Zm-7.29-6.22h3.46c1,0,1-.07.78-1a4,4,0,0,0-4.38-3.18,4.45,4.45,0,0,0-4.18,3.66c-.08.47.06.57.49.56C173.64,169.38,174.92,169.39,176.19,169.39Z" style="fill:#038855"/><path d="M145.82,176c.08,1.28.12,2.4.24,3.52.07.6-.34.64-.69.76a17.38,17.38,0,0,1-5.68.69,13.46,13.46,0,0,1-9.7-3.72,12.23,12.23,0,0,1-3.45-9.29c.06-7.22,5.69-11.6,11.73-12.11a16.81,16.81,0,0,1,7,.74c.54.19.8.41.71,1a20.4,20.4,0,0,0-.2,2.45c0,.67-.14.84-.82.49a10.06,10.06,0,0,0-8.88-.34,9,9,0,0,0,2.72,17A11.94,11.94,0,0,0,145.82,176Z" style="fill:#038855"/><path d="M80,178.4a7.9,7.9,0,0,1-6.91,2.5,6.2,6.2,0,0,1-6-5.65,22.36,22.36,0,0,1-.17-3.28c0-3,0-6,0-8.95,0-.6.15-.8.76-.76a18.83,18.83,0,0,0,2.46,0c.67,0,.89.15.88.85,0,2.65,0,5.3,0,7.94,0,.94,0,1.89.13,2.83.19,2.19,1.06,3.4,2.62,3.71a4.62,4.62,0,0,0,5.16-2.2,8.44,8.44,0,0,0,1-4c0-2.74,0-5.48,0-8.22,0-.66.12-.93.84-.87a21.87,21.87,0,0,0,2.55,0c.49,0,.7.1.7.65q0,8.49,0,17c0,.55-.2.66-.69.64a18.79,18.79,0,0,0-2.37,0c-.73.06-1-.19-.89-.9A10.63,10.63,0,0,0,80,178.4Z" style="fill:#038855"/><path d="M108,176.5c.09,1.09.16,2.1.27,3.09a.59.59,0,0,1-.37.71c-3.81,1.87-9.68.26-12.29-3.37a9.87,9.87,0,0,1,.86-12.2c2.38-2.44,5.35-3.06,8.62-2.78l.18,0c3,.44,3,.44,2.63,3.39-.07.56-.2.63-.71.44a8.48,8.48,0,0,0-4.11-.6,6,6,0,0,0-4.85,6.94c.56,4.72,4.87,6.95,9.1,4.69Z" style="fill:#038855"/><path d="M87.37,171.37c0-2.77,0-5.53,0-8.3,0-.63.15-.86.8-.81.88.06,1.76,0,2.64,0,.46,0,.65.12.64.61q0,8.53,0,17.05c0,.48-.15.63-.63.61-.94,0-1.89,0-2.83,0-.56,0-.64-.21-.64-.69C87.38,177,87.37,174.2,87.37,171.37Z" style="fill:#038855"/><path d="M91.93,157.69a2.42,2.42,0,1,1-4.85,0,2.42,2.42,0,0,1,4.85,0Z" style="fill:#038855"/><path d="M209.05,179.65a3.08,3.08,0,0,0,.54-1.31.52.52,0,0,1,.6-.4c.43,0,.38.3.38.57,0,.55,0,1.1,0,1.64,0,.2-.06.37-.31.35s-.19-.2-.19-.34c0-.4,0-.79,0-1.27-.43.36-.39.84-.56,1.23-.09.19-.13.41-.41.41s-.31-.25-.38-.43-.24-.67-.38-1.07c-.29.4-.13.77-.17,1.11,0,.18,0,.39-.27.38s-.22-.24-.22-.41c0-.55,0-1.1,0-1.64,0-.23-.06-.5.33-.5s.52,0,.62.39S208.89,179.18,209.05,179.65Z" style="fill:#038855"/><path d="M205.21,178.18a3.29,3.29,0,0,1,2.17-.06c-.89.18-.79.79-.8,1.41,0,.32.3,1-.27.94s-.14-.65-.24-1a.38.38,0,0,1,0-.09C206,178.87,206.34,178.15,205.21,178.18Z" style="fill:#038855"/></svg>