<svg xmlns="http://www.w3.org/2000/svg" viewBox="0 0 250 250"><title>CR</title><path d="M179.38,101.87a13.82,13.82,0,0,0-2.44-8,17,17,0,0,0-4.72-4.83c-7.55-5.15-15-10.49-22.54-15.61-4.73-3.2-9.1-6.93-14.26-9.49a22.64,22.64,0,0,0-7.32-1.88c-9.37-1.24-16.52,3-23.6,8.26-8.47,6.28-17.22,12.22-26,18A18.78,18.78,0,0,0,74.4,92a14.67,14.67,0,0,0-3.78,9.9,14.23,14.23,0,0,0,1.74,6.92,18,18,0,0,0,6.1,6.7c8.82,5.86,17.57,11.84,26,18.18,7.08,5.3,14.23,9.59,23.6,8.34a22.48,22.48,0,0,0,7.32-1.89c5.16-2.59,9.53-6.35,14.26-9.58,7.57-5.17,15-10.55,22.54-15.75a16.78,16.78,0,0,0,5.89-7A13.57,13.57,0,0,0,179.38,101.87ZM136,135.58a20,20,0,0,1-22.76-.27C102.79,128,92.31,120.8,81.89,113.48h.2a25.88,25.88,0,0,1-4.78-3.84,11.8,11.8,0,0,1-3.38-7.77A12,12,0,0,1,77.3,94a18,18,0,0,1,2.08-1.92l.4-.29,6.44-4.47,81.34,3c-7.42-5.13-14.85-10.27-22.22-15.47q11.15,7.68,22.22,15.47h0l.3.21,2,1.37.71.53.05,0,.43.36a12.18,12.18,0,0,1,4.61,8.81c0,.07,0,.15,0,.22s0,.14,0,.22c-.1,3.6-2.16,7.18-6.13,9.89l-31.2,1.25,29.84-.13Q152.17,124.47,136,135.58Z" style="fill:#bfbfbf"/><path d="M138.3,113.23l-56.22.25c.95.63,1.91,1.25,2.83,1.9Z" style="fill:#bfbfbf"/><path d="M125.06,64.93a22.66,22.66,0,0,1,12.6,4.46c10.52,7.56,21.19,14.91,31.84,22.28,8,5.52,8.25,14.59.32,20.24q-16.8,12-33.8,23.67a20,20,0,0,1-22.76-.27c-11.16-7.75-22.35-15.48-33.46-23.3C73.06,107.27,72,99.92,77.3,94c2.11-2.32,5-4,7.61-5.79,9.55-6.72,19.08-13.47,28.71-20.06A19.43,19.43,0,0,1,125.06,64.93ZM108,125.86c.29.29.64.92,1,.49s-.27-.69-.62-.91c-.38-.41-.73-.84-1.13-1.23-7.76-7.73-11.45-17-10.67-28a68.52,68.52,0,0,1,2.12-11.84c-6.12,4.34-11.94,8.16-17.38,12.46-3.83,3-3.46,7.89.66,10.87C90.57,113.87,99.32,119.82,108,125.86ZM99.35,84c8.51,3.56,16.69,6.93,25.6,8.07a27.15,27.15,0,0,0,23.22-7.53c1.16-1.1,1-1.58-.25-2.44-4.71-3.18-9.24-6.63-14-9.71-5.57-3.6-11.43-4-17.16-.36-4.39,2.77-8.6,5.82-12.88,8.76C102.44,81.8,101,82.83,99.35,84Zm71.79,17.76A7.34,7.34,0,0,0,168,96.13c-4.74-3.4-9.58-6.67-14.29-10.1-1.3-.95-1.87-.59-2.53.6-5.75,10.27-5.57,20.56-.18,30.9.64,1.23,1.24,1.4,2.38.58,4.75-3.39,9.56-6.7,14.31-10.08A7.7,7.7,0,0,0,171.15,101.78ZM149.7,120.55a17.73,17.73,0,0,0-5.72-3.29c-4.88-2-9.89-2.69-14.91-.68-6.67,2.67-9.25,8.38-10.67,14.89-.31,1.42.53,1.85,1.63,2.12,4.51,1.12,9,1.11,13-1.49C138.59,128.45,144,124.5,149.7,120.55Z" style="fill:#fdfdfd"/><path d="M99.35,84c1.68-1.2,3.08-2.23,4.51-3.21,4.28-2.94,8.49-6,12.88-8.76,5.72-3.61,11.59-3.24,17.16.36,4.77,3.09,9.3,6.53,14,9.71,1.27.86,1.41,1.34.25,2.44a27.15,27.15,0,0,1-23.22,7.53C116,91,107.86,87.59,99.35,84Z" style="fill:#e13929"/><path d="M171.15,101.78a7.7,7.7,0,0,1-3.5,6.25c-4.76,3.38-9.57,6.68-14.31,10.08-1.15.82-1.74.65-2.38-.58-5.39-10.34-5.57-20.63.18-30.9.67-1.19,1.23-1.55,2.53-.6,4.72,3.43,9.55,6.7,14.29,10.1A7.34,7.34,0,0,1,171.15,101.78Z" style="fill:#50a3da"/><path d="M108,125.86c-8.68-6-17.42-12-26-18.17-4.13-3-4.49-7.84-.66-10.87,5.44-4.3,11.26-8.11,17.38-12.46a68.52,68.52,0,0,0-2.12,11.84c-.77,11,2.91,20.27,10.67,28,.39.39.75.82,1.13,1.23Z" style="fill:#4d6bb0"/><path d="M149.7,120.55c-5.69,4-11.11,7.9-16.72,11.56-4,2.59-8.45,2.61-13,1.49-1.1-.27-1.94-.71-1.63-2.12,1.42-6.51,4-12.22,10.67-14.89,5-2,10-1.3,14.91.68A17.73,17.73,0,0,1,149.7,120.55Z" style="fill:#edb467"/><path d="M108.39,125.45c.36.22,1,.51.62.91s-.72-.2-1-.49Z" style="fill:#4d6bb0"/><path d="M62.18,187.7c-4.56.81-8.35.88-10.75-3.54a7.82,7.82,0,0,0-6.9-4.22c-4.93-.36-7.92-3.45-9-8.24a22.91,22.91,0,0,1,.07-10.48c1.54-6.12,5.69-8.65,13.25-8.26,5.77.3,9.76,3.65,10.44,9.35.64,5.32,1,10.75-3.22,15.09-1.14,1.18-.19,1.92.41,2.73C58.33,182.59,60.18,185,62.18,187.7Zm-9.33-21.2a30.77,30.77,0,0,0-.53-4.32,4.62,4.62,0,0,0-4.92-3.74c-2.62,0-4.34,1.2-5,3.68a18.24,18.24,0,0,0,0,8.9,4.64,4.64,0,0,0,4.9,3.78,4.77,4.77,0,0,0,5.06-4A31.1,31.1,0,0,0,52.85,166.5Z" style="fill:#ed1b2e"/><path d="M143.38,160.36c-2.69-.67-5.34-1.59-8.14-1.5-1.22,0-2.84,0-3.07,1.65-.2,1.48,1.22,1.81,2.31,2.22a50.31,50.31,0,0,1,7.73,3.09c2.86,1.64,4.38,4,4.05,7.37s-2.44,5.14-5.32,6.17c-5.13,1.84-10.14,1.12-14.91-1.25-3.07-1.52-1-4.37-1.6-6.6,1.49-.38,2.33.65,3.36,1.07,2.68,1.09,5.37,2.2,8.34,1.91,1.14-.11,2.44-.38,2.61-1.9s-.89-2.07-2-2.48c-2.41-.86-4.89-1.58-7.24-2.57-3.1-1.31-5.06-3.58-4.9-7.16.14-3.07,2.5-5.66,6.05-6.68a16.86,16.86,0,0,1,8.25-.28C144.13,154.52,144.32,154.73,143.38,160.36Z" style="fill:#ed1b2e"/><path d="M193.74,175.48c0-3.09,0-6.19,0-9.28,0-2.7,4.52-5.69,6.62-4.12a2.29,2.29,0,0,0,2.45.37c4.06-1.13,7.66-.46,10.44,2.82,2.12,2.5,2.33,8.07.54,10.92a8.76,8.76,0,0,1-9.75,4c-3.6-.77-3.56.76-3.49,3.33.11,4.57,0,4.38-3.72,4.6-2.7.16-3.26-1-3.14-3.32C193.85,181.68,193.74,178.58,193.74,175.48Zm6.85-4.68c0,3.72.6,4.51,3.23,4.56a3.93,3.93,0,0,0,4.33-4.37c-.06-2.58-1.67-4.06-4.3-4.05C200.92,167,200.21,168.61,200.59,170.8Z" style="fill:#ed1b2e"/><path d="M122.49,179.36c-5.26,1.49-8.86.17-11.17-4.3-.47-.9-1.15-2-2.47-1.55s-.72,1.64-.76,2.52c-.15,3.46-2.48,4.93-5.82,3.72-1.14-.41-1-1.27-1-2.08,0-6.74,0-13.48,0-20.22,0-1.57,4.66-4.3,6.14-3.64.88.39.64,1.27.65,2,0,3.1-.07,6.21.06,9.31,0,1.18-.86,3.13,1.46,3.2,2.15.07,4-.59,4.65-3,.22-.87-.72-2.28.47-2.54a10.6,10.6,0,0,1,5.08-.05c2.51.74,1.29,3,1.08,4.57a3.76,3.76,0,0,1-1.4,2.44c-2.88,1.86-1.93,3.57-.15,5.52C120.42,176.4,121.33,177.83,122.49,179.36Z" style="fill:#ed1b2e"/><path d="M63.49,169.67a20.06,20.06,0,0,0,0-3.2c-.53-3.26.76-4.23,4-4.08,2.49.11,3.13.91,2.95,3.2-.17,2.12,0,4.27,0,6.41s.93,3,2.92,2.91,3.74-.18,3.64-2.88c-.08-2.24.18-4.51-.06-6.73-.33-3.13,1.64-2.79,3.62-2.83s3.6,0,3.3,2.78a56.06,56.06,0,0,0,0,6.73c0,1.55-.37,3.27,2,3.69,1.27.22.88,1.52.91,2.42s-.5,1.51-1.47,1.78c-1.57.44-3.35,1-4.7.23-2.77-1.61-5.28-.62-8,0-3,.66-6.08.52-8.15-2.23-1.52-2-.76-4.55-.9-6.86C63.47,170.53,63.49,170.1,63.49,169.67Z" style="fill:#ed1b2e"/><path d="M179.1,162c8,0,12.05,4.27,10.79,11.39a8.53,8.53,0,0,1-.17.94c-1.53,5.15-9.13,7.63-15.95,5.21-4.86-1.73-7.07-7.06-5-12.11C170.23,163.8,173.72,162,179.1,162Zm.08,5a3.82,3.82,0,0,0-4.18,4.13c0,2.63,1.51,4.24,4.06,4.28a3.93,3.93,0,0,0,4.22-4.15A3.87,3.87,0,0,0,179.18,167Z" style="fill:#ed1b2e"/><path d="M160.68,180.34c-6.33.06-8.47-2-8.64-7.61,0-1-.07-1.92,0-2.88.06-1.49-.3-2.56-2.1-2.36s-2.12-.83-2.11-2.34,0-2.84,2.1-2.66c1.46.12,2-.61,2.14-2.09.13-1.95,4.18-4.62,6-4.07,1.34.4.85,1.65.75,2.45-.36,2.93.73,4.15,3.71,3.74,1.76-.24,3,0,2.95,2.45s-1,2.57-2.88,2.56c-4,0-4,0-3.71,4.15.19,3.09,1.19,3.93,4.26,3.68.86-.07,2.27-1.21,2.2.9,0,1.36.7,3.16-1.61,3.53C162.47,180,161.23,180.24,160.68,180.34Z" style="fill:#ed1b2e"/><path d="M96.57,171.1q0,2.24,0,4.48c0,4.1-1.62,5.28-5.62,4.21a1.41,1.41,0,0,1-1.19-1.58c0-4.37-.27-8.77.06-13.12.25-3.25,3.59-2.57,5.57-3s1,1.84,1.13,2.89C96.69,167,96.57,169.08,96.57,171.1Z" style="fill:#ed1b2e"/><path d="M93.39,153.57c1.86-.15,3.23-.15,3.26,2.51,0,3.42-2.23,2.29-3.91,2.49-2,.25-3.1-.2-3.09-2.67C89.66,152.72,91.82,153.77,93.39,153.57Z" style="fill:#ed1b2e"/></svg>