<svg xmlns="http://www.w3.org/2000/svg" viewBox="0 0 250 250"><title>CR</title><path d="M56.62,147.88V62.39s.06,0,.06-.05a14.69,14.69,0,0,1,1.26-4.42A13.31,13.31,0,0,1,62,52.86a13.77,13.77,0,0,1,6-2.68c.13,0,.25,0,.3-.18H181c.36.29.82.24,1.23.33a14.09,14.09,0,0,1,8.84,5.86,12,12,0,0,1,2,4.81c.1.63.19,1.26.28,1.9v84.46c-.06,0-.07.08-.08.14a15.15,15.15,0,0,1-.49,2.78,13.14,13.14,0,0,1-4.11,6.49,13.42,13.42,0,0,1-9,3.24H72.47c-1.17,0-2.35,0-3.52,0a12,12,0,0,1-4.74-1.21,12.77,12.77,0,0,1-5-4.21,14.91,14.91,0,0,1-2.1-4.43C56.91,149.37,56.9,148.6,56.62,147.88ZM169.45,67.39a4.44,4.44,0,0,0-.47,0H128.22c-.38,0-.48.1-.47.48,0,3,0,5.93,0,8.9,0,.28,0,.56,0,.91a1.6,1.6,0,0,1-.22-.18A33.65,33.65,0,0,0,124,73.67a27.35,27.35,0,0,0-3.05-2.42,30,30,0,0,0-15-5.46,31.66,31.66,0,0,0-8.8.42,28.65,28.65,0,0,0-11.28,4.85,29.74,29.74,0,0,0-5.28,4.8,35.31,35.31,0,0,0-5,7.58,36.72,36.72,0,0,0-2.62,7,44.46,44.46,0,0,0-1.22,6.43,43.83,43.83,0,0,0-.1,8.33c.1,1.28.31,2.55.53,3.81a27.22,27.22,0,0,0,1.38,5.28c.52,1.32.91,2.69,1.55,4a44.12,44.12,0,0,0,2.32,4.14,33.93,33.93,0,0,0,3.6,4.65,38.25,38.25,0,0,0,3.86,3.57c-.05.21.11.31.22.43,1.56,1.68,3.31,3.14,5,4.72.92.88,2,1.62,3,2.42a44.5,44.5,0,0,0,3.66,2.56,34.08,34.08,0,0,0,3.95,2.15,31.11,31.11,0,0,0,4.16,1.65,30.36,30.36,0,0,0,4.08.94,28.24,28.24,0,0,0,4.26.39,24,24,0,0,0,3.85-.22,30.27,30.27,0,0,0,3.23-.61,31.46,31.46,0,0,0,4.33-1.43,48.4,48.4,0,0,0,6.23-3.3,1.46,1.46,0,0,1,.21.14l2.32,2.22c1.25,1.22,2.47,2.47,3.74,3.67,1.83,1.73,3.57,3.54,5.45,5.21.41.36.51.4.86,0,.64-.73,1.35-1.39,2-2.08q3-3,5.87-6.06a.71.71,0,0,1,.61-.21h15.05c.2,0,.29-.07.29-.27,0-.46.06-.91.06-1.37q0-25.52,0-51c0-.4,0-.8-.06-1.2s.1-.4.38-.39h11.74c.31,0,.4-.1.39-.4,0-.7,0-1.4,0-2.11q0-4.9,0-9.8c0-.16.05-.34-.1-.48l-2.75-2.43-5-4.36C171,68.7,170.23,68.05,169.45,67.39Z" style="fill:#ef091d"/><path d="M162.76,200a.65.65,0,0,0,0-.38c0-3.43,0-6.85,0-10.28,0-4.52,0-9,0-13.57,0-.36.07-.48.46-.47,1.4,0,2.81,0,4.21,0,.3,0,.4.08.38.38s0,.77,0,1.28c.33-.35.57-.63.85-.88a7.18,7.18,0,0,1,10.56,1.32,11,11,0,0,1,1.94,4.52,11.88,11.88,0,0,1-.78,7.44,10.64,10.64,0,0,1-1.45,2.26,7.33,7.33,0,0,1-4.12,2.65,7,7,0,0,1-4.32-.36,5.18,5.18,0,0,1-2.49-2c-.06,2.77,0,5.42-.06,8.07Zm13.67-15.63a6.89,6.89,0,0,0-2-5.13,3.35,3.35,0,0,0-3.53-.75,5,5,0,0,0-3,3.57,7.7,7.7,0,0,0,.06,4.83,5.36,5.36,0,0,0,2,2.88c1.9,1.28,3.89.63,5.15-1.11A6.69,6.69,0,0,0,176.43,184.37Z" style="fill:#020101"/><path d="M133.23,142.69l-2.32-2.22a1.47,1.47,0,0,0-.21-.14c0-.13-.12-.19-.2-.26l-2.26-2.17c-2.35-2.26-4.7-4.52-7-6.79-.26-.25-.41-.23-.66,0a25.1,25.1,0,0,1-3.49,2.15,28,28,0,0,1-5.78,2.34,31.9,31.9,0,0,1-6.14,1.1,31.29,31.29,0,0,1-4.92,0,27.54,27.54,0,0,1-6.56-1.36,32.06,32.06,0,0,1-5.35-2.35c-1.21-.68-2.31-1.51-3.46-2.28A38.25,38.25,0,0,1,81,127.05a33.93,33.93,0,0,1-3.6-4.65A44.12,44.12,0,0,1,75,118.26c-.64-1.28-1-2.65-1.55-4A27.22,27.22,0,0,1,72.12,109c-.22-1.26-.43-2.53-.53-3.81a43.83,43.83,0,0,1,.1-8.33,44.46,44.46,0,0,1,1.22-6.43,36.72,36.72,0,0,1,2.62-7,35.31,35.31,0,0,1,5-7.58,29.74,29.74,0,0,1,5.28-4.8,28.65,28.65,0,0,1,11.28-4.85,31.66,31.66,0,0,1,8.8-.42,30,30,0,0,1,15,5.46A27.35,27.35,0,0,1,124,73.67a33.65,33.65,0,0,1,3.55,3.77,1.6,1.6,0,0,0,.22.18c0-.35,0-.63,0-.91,0-3,0-5.93,0-8.9,0-.38.1-.48.47-.48H169a4.46,4.46,0,0,1,.47,0c0,.16,0,.31,0,.47,0,3.77,0,7.54,0,11.31,0,.38-.09.48-.47.47l-11.56,0c-.35,0-.45.07-.45.44q0,26.67,0,53.35c0,.46-.13.54-.56.54-4.79,0-9.57,0-14.36,0a.8.8,0,0,0-.67.28c-.43.48-.9.92-1.34,1.39C137.78,138,135.5,140.33,133.23,142.69ZM99.62,124.23c0,.1.1.07.16.08a.42.42,0,0,0,.1.07,12.73,12.73,0,0,0,6.24.27,10.53,10.53,0,0,0,5.18-2.76c.16-.15.17-.24,0-.39-.47-.43-.93-.89-1.4-1.33-1.9-1.81-3.8-3.63-5.72-5.43-.26-.24-.28-.37,0-.62q2-2,3.88-3.94t4.11-4.25c.18-.18.29-.26.51,0,1.26,1.23,2.53,2.45,3.79,3.67l1.62,1.57a11.37,11.37,0,0,0,.57-2,22.48,22.48,0,0,0,.59-2.59c.17-1.37.29-2.74.34-4.12a34.36,34.36,0,0,0-1.37-11.2,24.29,24.29,0,0,0-2.37-5.45,24,24,0,0,0-2.44-3.45,15.38,15.38,0,0,0-4.73-3.74,12.26,12.26,0,0,0-5.75-1.31,11.24,11.24,0,0,0-6.61,2.36A16,16,0,0,0,92.22,84a26.26,26.26,0,0,0-2.56,4.85,32.53,32.53,0,0,0-1.51,4.73c-.17.82-.34,1.65-.48,2.48A33.25,33.25,0,0,0,87.3,100a30.77,30.77,0,0,0,.11,3.54,35.51,35.51,0,0,0,.59,4.27,31.4,31.4,0,0,0,1.52,5.23,25.58,25.58,0,0,0,2.21,4.42,19.86,19.86,0,0,0,2.88,3.64A13.76,13.76,0,0,0,98.93,124a1.62,1.62,0,0,0,.69.2Zm42,9.68c0-.24,0-.39,0-.54q0-26.66,0-53.31c0-.36-.1-.44-.45-.44H129.64c-.1,0-.23-.07-.32.07a44,44,0,0,1,2.33,4.41,40.19,40.19,0,0,1,2.84,8,34.28,34.28,0,0,1,.9,4.94c.09,1,.17,1.92.2,2.89,0,1.85,0,3.7-.14,5.55a38.44,38.44,0,0,1-.87,5.95,21.26,21.26,0,0,1-1.11,3.41,30.27,30.27,0,0,1-4.08,6.95c-.12.16-.14.24,0,.39.72.67,1.43,1.36,2.14,2l7.2,6.94Z" style="fill:#fefdfd"/><path d="M133.23,142.69c2.27-2.36,4.55-4.71,6.81-7.08.44-.47.91-.91,1.34-1.39a.8.8,0,0,1,.67-.28c4.79,0,9.57,0,14.36,0,.43,0,.56-.08.56-.54q0-26.67,0-53.35c0-.37.1-.44.45-.44l11.56,0c.38,0,.47-.09.47-.47,0-3.77,0-7.54,0-11.31,0-.16,0-.31,0-.47.78.66,1.57,1.31,2.34,2l5,4.36,2.75,2.43c.16.14.1.32.1.48q0,4.9,0,9.8c0,.7,0,1.4,0,2.11,0,.29-.09.4-.39.4H167.51c-.27,0-.39.13-.38.39s.06.8.06,1.2q0,25.52,0,51c0,.46,0,.91-.06,1.37,0,.2-.1.28-.29.27H151.78a.71.71,0,0,0-.61.21q-2.91,3-5.87,6.06c-.68.69-1.39,1.35-2,2.08-.34.39-.45.35-.86,0-1.88-1.67-3.62-3.49-5.45-5.21C135.7,145.16,134.47,143.91,133.23,142.69Z" style="fill:#020101"/><path d="M84.83,130.63c1.15.76,2.25,1.6,3.46,2.28a32.06,32.06,0,0,0,5.35,2.35,27.54,27.54,0,0,0,6.56,1.36,31.29,31.29,0,0,0,4.92,0,31.9,31.9,0,0,0,6.14-1.1,28,28,0,0,0,5.78-2.34,25.1,25.1,0,0,0,3.49-2.15c.25-.19.4-.22.66,0,2.33,2.28,4.69,4.53,7,6.79l2.26,2.17c.08.08.19.13.2.26a48.38,48.38,0,0,1-6.23,3.3,31.46,31.46,0,0,1-4.33,1.43,30.27,30.27,0,0,1-3.23.61,24,24,0,0,1-3.85.22,28.24,28.24,0,0,1-4.26-.39,30.36,30.36,0,0,1-4.08-.94,31.11,31.11,0,0,1-4.16-1.65,34.08,34.08,0,0,1-3.95-2.15A44.5,44.5,0,0,1,93,138.21c-1-.8-2-1.54-3-2.42-1.65-1.58-3.4-3-5-4.72C84.94,130.94,84.78,130.84,84.83,130.63Z" style="fill:#020101"/><path d="M68.23,180.53c.12-.76,0-1.81.25-2.86a15.13,15.13,0,0,1,2.62-6.07,12.08,12.08,0,0,1,5.69-4.36,11.34,11.34,0,0,1,6.62-.33,11.21,11.21,0,0,1,5.27,2.88,13,13,0,0,1,2.1,2.53,14.61,14.61,0,0,1,1.93,4.56,15.1,15.1,0,0,1,.15,6.19,17.46,17.46,0,0,1-1.56,4.55,11.15,11.15,0,0,1-1.3,1.9c-.15.18-.16.27,0,.44.76.75,1.5,1.53,2.27,2.28.2.2.19.3,0,.49-.8.76-1.59,1.53-2.35,2.32-.22.23-.34.24-.57,0-.77-.79-1.56-1.56-2.33-2.35a.39.39,0,0,0-.57-.08,10.93,10.93,0,0,1-9.79.87,11.28,11.28,0,0,1-3.7-2.27,13.2,13.2,0,0,1-3.72-5.34A15.2,15.2,0,0,1,68.23,180.53Zm19.55-.58a12.34,12.34,0,0,0-1.16-4.73,7.59,7.59,0,0,0-1.12-1.82,6.36,6.36,0,0,0-2.78-2.14,6,6,0,0,0-6.91,2.06,11.64,11.64,0,0,0-2.39,6.17,10.82,10.82,0,0,0,1.16,6.11,8.34,8.34,0,0,0,3.33,3.58,5.73,5.73,0,0,0,5.22.19c.28-.11.3-.24.07-.45-.58-.55-1.13-1.14-1.71-1.69-.18-.17-.17-.26,0-.43.82-.8,1.63-1.61,2.43-2.43.2-.21.3-.16.47,0,.46.49.92,1,1.4,1.45s.43.67.86-.14A12.15,12.15,0,0,0,87.78,179.95Z" style="fill:#020101"/><path d="M123.51,181.75c1.16-1.13,2.32-2.23,3.46-3.36,1-.94,1.91-1.9,2.86-2.86a.62.62,0,0,1,.47-.23h5.54c.06.1,0,.13-.07.18q-3.3,3.26-6.61,6.51c-.17.17-.19.24-.06.44,1.22,1.83,2.43,3.67,3.65,5.51l3.86,5.82c-.14.14-.27.08-.39.08-1.72,0-3.44,0-5.16,0a.62.62,0,0,1-.61-.35q-2.34-3.86-4.71-7.7c-.13-.21-.21-.33-.44-.07-.5.53-1,1-1.57,1.53a.69.69,0,0,0-.24.55c0,1.88,0,3.76,0,5.63,0,.33-.1.4-.41.4q-2,0-4.09,0c-.3,0-.38-.07-.38-.38q0-12.3,0-24.6c0-.31.08-.37.38-.37,1.36,0,2.72,0,4.09,0,.36,0,.41.11.41.43q0,6.32,0,12.64C123.5,181.65,123.48,181.73,123.51,181.75Z" style="fill:#020101"/><path d="M105.52,192.19a17.38,17.38,0,0,1-2.13,1.37,6.52,6.52,0,0,1-6.5-.28,5.8,5.8,0,0,1-3-5.37c0-4.07,0-8.14,0-12.21,0-.33.1-.39.41-.39,1.32,0,2.64,0,4,0,.4,0,.52.08.52.5,0,3.81,0,7.63,0,11.44a2.62,2.62,0,0,0,1.66,2.65,4,4,0,0,0,4.12-.77,3.5,3.5,0,0,0,1-2.49q0-5.44,0-10.88c0-.35.07-.45.44-.44,1.39,0,2.78,0,4.17,0,.28,0,.36.08.36.36q0,8.9,0,17.8c0,.24,0,.35-.32.35-1.4,0-2.81,0-4.21,0-.3,0-.4-.08-.38-.38S105.52,192.68,105.52,192.19Z" style="fill:#020101"/><path d="M140,168.52c3.38,0,6.76,0,10.15,0,.37,0,.45.1.44.45q0,1.68,0,3.35c0,.33-.07.43-.42.43-2.41,0-4.82,0-7.22,0-.33,0-.42.08-.42.41,0,6.75,0,13.5,0,20.25,0,.38-.08.47-.46.47-1.48,0-3,0-4.43,0-.38,0-.5-.07-.5-.48,0-6.71,0-13.41,0-20.12,0-.42-.13-.49-.5-.48-2.25,0-4.5,0-6.75,0-.43,0-.52-.13-.51-.52,0-1.12,0-2.24,0-3.35,0-.32.08-.4.4-.4C133.22,168.53,136.61,168.52,140,168.52Z" style="fill:#020101"/><path d="M149.73,177.2a8.62,8.62,0,0,1,2.61-2,7.48,7.48,0,0,1,2.82-.41c.18,0,.21.09.21.24,0,1.22,0,2.44,0,3.65,0,.19-.06.24-.25.25-.44,0-.88.06-1.32.09a3.85,3.85,0,0,0-2.33,1,5.1,5.1,0,0,0-1.66,2.28,3.19,3.19,0,0,0-.09,1c0,3.35,0,6.7,0,10.06,0,.29-.08.35-.36.35q-2.08,0-4.17,0c-.29,0-.35-.09-.35-.36q0-8.9,0-17.79c0-.27.06-.36.35-.36q2.08,0,4.17,0c.28,0,.37.07.36.36C149.71,176.14,149.73,176.63,149.73,177.2Z" style="fill:#020101"/><path d="M116.92,184.61c0,2.94,0,5.87,0,8.81,0,.37-.1.45-.45.44-1.33,0-2.66,0-4,0-.29,0-.39-.06-.39-.37q0-8.92,0-17.83c0-.3.1-.34.36-.34,1.36,0,2.72,0,4.08,0,.34,0,.39.11.38.41C116.91,178.68,116.92,181.64,116.92,184.61Z" style="fill:#020101"/><path d="M156.09,184.56c0-3,0-5.9,0-8.86,0-.32.08-.4.4-.4,1.35,0,2.69,0,4,0,.29,0,.35.09.35.36q0,8.9,0,17.8c0,.28-.07.35-.35.35-1.35,0-2.69,0-4,0-.33,0-.4-.08-.39-.4,0-3,0-5.9,0-8.86Z" style="fill:#020101"/><path d="M114.51,168.52c.7,0,1.4,0,2.11,0,.24,0,.31.06.31.31q0,1.68,0,3.35c0,.24-.06.31-.31.31q-2.11,0-4.21,0c-.24,0-.31-.06-.31-.31q0-1.68,0-3.35c0-.24.06-.31.31-.31C113.1,168.53,113.8,168.52,114.51,168.52Z" style="fill:#020101"/><path d="M158.5,168.52c.69,0,1.38,0,2.06,0,.24,0,.31.06.31.3q0,1.68,0,3.35c0,.23-.05.32-.3.31q-2.08,0-4.17,0c-.23,0-.32,0-.31-.3,0-1.12,0-2.23,0-3.35,0-.24.06-.32.31-.31C157.1,168.53,157.8,168.52,158.5,168.52Z" style="fill:#020101"/><path d="M184.3,192a1.86,1.86,0,0,1-1.85,1.89,1.91,1.91,0,1,1,0-3.82A1.83,1.83,0,0,1,184.3,192Zm-.35,0a1.57,1.57,0,1,0-3.13-.08,1.57,1.57,0,0,0,1.6,1.63A1.5,1.5,0,0,0,184,192Z" style="fill:#020101"/><path d="M115.83,85.79a24.29,24.29,0,0,1,2.37,5.45,34.36,34.36,0,0,1,1.37,11.2c-.05,1.38-.17,2.75-.34,4.12a22.48,22.48,0,0,1-.59,2.59,11.37,11.37,0,0,1-.57,2l-1.62-1.57c-1.26-1.22-2.54-2.44-3.79-3.67-.22-.22-.34-.14-.51,0q-2,2.13-4.11,4.25t-3.88,3.94c-.26.26-.23.38,0,.62,1.92,1.8,3.82,3.61,5.72,5.43.47.44.92.9,1.4,1.33.17.16.15.25,0,.39a10.53,10.53,0,0,1-5.18,2.76,12.73,12.73,0,0,1-6.24-.27.41.41,0,0,1-.1-.07c0-.07-.07-.12-.16-.08h0a.29.29,0,0,0,0-.29,29.11,29.11,0,0,1-1.3-3.22,25,25,0,0,1-.88-3.07c-.3-1.58-.59-3.16-.78-4.76a40.18,40.18,0,0,1-.07-5.27,22.36,22.36,0,0,1,.87-4.82,19.56,19.56,0,0,1,1.66-4.57c.34-.64.59-1.32,1-1.93a21.44,21.44,0,0,1,6.11-6.87,18.81,18.81,0,0,1,9-3.5A1.56,1.56,0,0,0,115.83,85.79Z" style="fill:#ef091d"/><path d="M115.83,85.79a1.56,1.56,0,0,1-.66.14,18.81,18.81,0,0,0-9,3.5,21.44,21.44,0,0,0-6.11,6.87c-.37.62-.62,1.3-1,1.93a19.56,19.56,0,0,0-1.66,4.57,22.36,22.36,0,0,0-.87,4.82,40.18,40.18,0,0,0,.07,5.27c.18,1.6.47,3.19.78,4.76a25,25,0,0,0,.88,3.07,29.11,29.11,0,0,0,1.3,3.22.29.29,0,0,1,0,.29,1.62,1.62,0,0,1-.69-.2,13.76,13.76,0,0,1-4.31-2.89,19.86,19.86,0,0,1-2.88-3.64,25.58,25.58,0,0,1-2.21-4.42A31.4,31.4,0,0,1,88,107.85a35.51,35.51,0,0,1-.59-4.27A30.77,30.77,0,0,1,87.3,100a33.25,33.25,0,0,1,.38-3.94c.13-.83.3-1.65.48-2.48a32.53,32.53,0,0,1,1.51-4.73A26.26,26.26,0,0,1,92.22,84a16,16,0,0,1,4.09-4.4,11.24,11.24,0,0,1,6.61-2.36,12.26,12.26,0,0,1,5.75,1.31,15.38,15.38,0,0,1,4.73,3.74A24,24,0,0,1,115.83,85.79Z" style="fill:#020101"/><path d="M141.64,133.92l-2.89-2.8-7.2-6.94c-.71-.68-1.42-1.37-2.14-2-.16-.15-.14-.23,0-.39a30.27,30.27,0,0,0,4.08-6.95,21.26,21.26,0,0,0,1.11-3.41,38.44,38.44,0,0,0,.87-5.95c.1-1.85.18-3.7.14-5.55,0-1-.11-1.93-.2-2.89a34.28,34.28,0,0,0-.9-4.94,40.19,40.19,0,0,0-2.84-8,44,44,0,0,0-2.33-4.41c.09-.14.21-.07.32-.07H141.2c.35,0,.45.08.45.44q0,26.66,0,53.31C141.64,133.53,141.64,133.68,141.64,133.92Z" style="fill:#020101"/><path d="M99.62,124.23c.09,0,.13,0,.16.08S99.63,124.34,99.62,124.23Z" style="fill:#020101"/><path d="M183.34,193c-.22.09-.37.06-.48-.14s-.27-.4-.39-.61a.31.31,0,0,0-.37-.14c-.18,0-.1.18-.11.27a3.78,3.78,0,0,0,0,.47c0,.11,0,.19-.16.2s-.19-.08-.19-.21c0-.62,0-1.23,0-1.85,0-.16.07-.2.21-.19.31,0,.63,0,.94.07a.56.56,0,0,1,.53.48.55.55,0,0,1-.35.66c-.2.07-.19.15-.08.31S183.18,192.75,183.34,193Zm-1-1.21c.31,0,.61,0,.59-.38s-.45-.22-.69-.3-.28.12-.29.32S182.09,191.84,182.37,191.78Z" style="fill:#020101"/></svg>