<svg xmlns="http://www.w3.org/2000/svg" viewBox="0 0 250 250"><title>Grocery</title><path d="M35,108.72a95.1,95.1,0,0,1,12.27.11,18.93,18.93,0,0,1,5.4,1.2,8,8,0,0,1,4.73,5.12,12.79,12.79,0,0,1,.31,7.35,6,6,0,0,1-4.26,4.65c-.18.05-.36.16-.54.2-.64.15-.71.42-.34,1,1.65,2.55,3.26,5.13,4.88,7.7.84,1.33,1.68,2.67,2.54,4,.27.41.18.54-.27.54H50.26a.79.79,0,0,1-.75-.54q-2.24-4.39-4.52-8.77c-.14-.28-.2-.79-.57-.7s-.26.6-.26.94c0,2.77,0,5.53,0,8.3,0,.65-.2.8-.8.8-2.79,0-5.59,0-8.38,0Zm9.16,11.18q0,1.29,0,2.57c0,.39.07.74.57.74a9.59,9.59,0,0,0,2.56-.13,3.63,3.63,0,0,0,2.5-2.91,3.49,3.49,0,0,0-2.23-3.2,8,8,0,0,0-2.62-.31c-.58,0-.78.3-.77.83C44.16,118.3,44.16,119.1,44.16,119.9Z" style="fill:#366649"/><path d="M159.35,141.43l-3-.33c-4.42-.5-8.6-4.84-9.3-9.17-.94-5.77,3.6-11.19,9-12.11,4.61-.8,8.7.16,11.79,3.77,4.25,5,2.73,12.67-3,16a10.34,10.34,0,0,1-4.17,1.51.71.71,0,0,0-.56.31Zm-1-7.84a3.18,3.18,0,1,0,.31-6.35,3.32,3.32,0,0,0-3.08,3A3,3,0,0,0,158.3,133.59Z" style="fill:#366649"/><path d="M122.18,124.66c0-5,0-10,0-14.94,0-.82.25-1,1-1,2.3,0,4.59,0,6.89,0,.7,0,.9.22.89.89,0,4,0,8,0,12,0,.31-.17.74.24.88s.49-.29.71-.49c4-3.62,9.17-2.77,12.09,1.84a12.35,12.35,0,0,1-.52,13.74c-2.36,3.14-6,3.93-9.79,2.07a9.87,9.87,0,0,1-2-1.28c-.15-.12-.29-.29-.51-.2s-.19.31-.2.5,0,.11,0,.17c-.05,1.7-.05,1.7-1.79,1.69-2,0-4.1,0-6.14,0-.72,0-.86-.23-.86-.9C122.19,134.67,122.18,129.66,122.18,124.66Zm14.62,5.75a3.17,3.17,0,0,0-3.14-3.19,3.31,3.31,0,0,0-3,3.19,2.94,2.94,0,0,0,2.85,3.21A3.2,3.2,0,0,0,136.8,130.41Z" style="fill:#366649"/><path d="M174.42,120.32c1.27,0,2.55,0,3.82,0a.8.8,0,0,1,.94.68c.65,2.28,1.35,4.55,2,6.82.08.26,0,.71.43.69s.33-.39.42-.65c.79-2.3,1.59-4.6,2.35-6.9a.77.77,0,0,1,.88-.64q2.12,0,4.23,0a.82.82,0,0,1,.94.68c.77,2.36,1.59,4.71,2.39,7.06.09.25.09.61.46.58s.37-.37.44-.63c.67-2.31,1.33-4.62,2-6.93.13-.44.27-.77.88-.76,2.66,0,5.31,0,8,0,.53,0,.73,0,.49.67q-3.47,9.41-6.86,18.85a1,1,0,0,1-1.08.74q-2.78-.05-5.56,0a.91.91,0,0,1-1-.71c-.9-2.38-1.84-4.74-2.78-7.11-.11-.28-.08-.77-.53-.73s-.38.5-.48.8c-.84,2.4-1.68,4.8-2.48,7.21a.63.63,0,0,1-.7.52c-2,0-4,0-6,0-.62,0-.71-.4-.86-.82L171,123.94c-.35-1-.66-1.94-1.05-2.88-.27-.65,0-.76.56-.75C171.82,120.34,173.12,120.32,174.42,120.32Z" style="fill:#366649"/><path d="M82.61,130.38c0,3.1,0,6.19,0,9.29,0,.66-.15.92-.87.91-2.29,0-4.59,0-6.88,0-.63,0-.91-.12-.87-.82,0-.5.29-1.22-.19-1.47s-.75.5-1.12.78c-4.72,3.51-9.39,1.77-12-2.84a12.38,12.38,0,0,1,1.53-13.82,6.7,6.7,0,0,1,7.66-2,11.52,11.52,0,0,1,3.39,1.88c.14.12.27.31.5.24s.23-.34.24-.56c.13-1.67.13-1.67,1.81-1.67h5.64c1.15,0,1.15,0,1.15,1.18Q82.61,125.94,82.61,130.38Zm-14.48.09A2.93,2.93,0,0,0,71,133.61a3.27,3.27,0,0,0,3.29-3.25,3.07,3.07,0,1,0-6.12.1Z" style="fill:#366649"/><path d="M97.38,130.42c0-3.1,0-6.2,0-9.29,0-.61.16-.83.79-.81,2.29.06,4.59.1,6.89.09.81,0,1.11.29,1,1.07a2.4,2.4,0,0,0,0,.5c0,.54.25.62.68.29.7-.53,1.41-1.08,2.15-1.56,2.4-1.55,6.93-1.09,8.94.84a4.9,4.9,0,0,1,1.38,3.7c0,4.92,0,9.85.06,14.77,0,.4-.14.56-.52.56-2.52,0-5,0-7.55,0-.52,0-.56-.26-.55-.69.06-1.49.06-3,.14-4.48a34.14,34.14,0,0,0-.31-7.11,2.09,2.09,0,0,0-2.32-2,2.21,2.21,0,0,0-2.11,2.22,64.5,64.5,0,0,0,0,11.18c0,.68-.15.86-.81.85q-3.53,0-7.05,0c-.65,0-.92-.13-.91-.87,0-3.1,0-6.19,0-9.29Z" style="fill:#366649"/><path d="M94.29,130.47c0,3.1,0,6.19,0,9.29,0,.6-.14.82-.78.81-2.35,0-4.7,0-7,0-.61,0-.81-.18-.8-.81q0-9.33,0-18.66c0-.62.18-.81.8-.8q3.52,0,7,0c.61,0,.8.17.79.8,0,3.12,0,6.25,0,9.37Z" style="fill:#366649"/><path d="M210.14,120.28a4.86,4.86,0,1,1,4.86-4.86A4.86,4.86,0,0,1,210.14,120.28Zm0-8.88a4,4,0,1,0,4,4A4,4,0,0,0,210.14,111.4Z" style="fill:#366649"/><path d="M208.44,112.9a7,7,0,0,1,1.29-.11,2.14,2.14,0,0,1,1.51.43,1.3,1.3,0,0,1,.41,1,1.37,1.37,0,0,1-1,1.33v0a1.3,1.3,0,0,1,.77,1.05,8.29,8.29,0,0,0,.4,1.43h-.7a6.7,6.7,0,0,1-.35-1.25c-.16-.72-.43-1-1-1h-.64v2.26h-.67Zm.67,2.38h.69c.72,0,1.18-.4,1.18-1s-.49-1-1.2-1a2.78,2.78,0,0,0-.67.06Z" style="fill:#366649"/></svg>