<svg xmlns="http://www.w3.org/2000/svg" viewBox="0 0 250 250"><title>Casual dining</title><path d="M168.75,125.22c-12.46-9.89-30.32-15.88-47.58-15.88s-35.72,6-48.18,15.88Z" style="fill:#bed0df;stroke:#231f20;stroke-miterlimit:2.61310005187988;stroke-width:0.866734206676483px;fill-rule:evenodd"/><path d="M65.48,132.27a78.92,78.92,0,0,1,110.63,0h16.66a91.4,91.4,0,0,0-143.95,0Z" style="fill:#005d7e;stroke:#231f20;stroke-miterlimit:2.61310005187988;stroke-width:0.866734206676483px;fill-rule:evenodd"/><path d="M170.86,132.27c-13.66-11.24-30.47-18.73-49.38-18.73-19.06,0-37.08,7.49-50.73,18.73Z" style="fill:#231f20;fill-rule:evenodd"/><path d="M28,172.13a8.93,8.93,0,0,1-6-2.4,8.9,8.9,0,0,1-2.4-6V130.17a8.82,8.82,0,0,1,2.4-5.84,8.94,8.94,0,0,1,6-2.4H211.68a8.19,8.19,0,0,1,8.26,8.24v33.57a8.35,8.35,0,0,1-8.26,8.39Z" style="fill:#bed0df;stroke:#231f20;stroke-miterlimit:2.61310005187988;stroke-width:0.866734206676483px;fill-rule:evenodd"/><path d="M211.68,168.53a4.71,4.71,0,0,0,4.65-4.8V130.17a4.67,4.67,0,0,0-4.65-4.65H28a4.8,4.8,0,0,0-4.8,4.65v33.57a4.83,4.83,0,0,0,4.8,4.8Z" style="fill:#005d7e;stroke:#231f20;stroke-miterlimit:2.61310005187988;stroke-width:0.866734206676483px;fill-rule:evenodd"/><path d="M45.22,136.76a9,9,0,0,1,.45,8.09A4.27,4.27,0,0,1,44,146.8a5.84,5.84,0,0,1-2.7.45h-.9v-12h1.8a3.18,3.18,0,0,1,3,1.5Zm3,24.42h6.9v-.75a2.09,2.09,0,0,1-1.5-.75,13,13,0,0,1-1.5-2.1l-5.25-9.29A6.67,6.67,0,0,0,50,146.35a7.85,7.85,0,0,0,1.65-4.94,7,7,0,0,0-1.2-4.35,5.46,5.46,0,0,0-3-2.55,12.6,12.6,0,0,0-5-.75H32.16v.75a5.57,5.57,0,0,1,2.1.3,1.73,1.73,0,0,1,.75,1,7.86,7.86,0,0,1,.3,2.7v17.83a9.83,9.83,0,0,1-.3,2.85,2,2,0,0,1-.75.9,5.58,5.58,0,0,1-2.1.3v.75H43.57v-.75a5.58,5.58,0,0,1-2.1-.3,2,2,0,0,1-.75-.9,9.82,9.82,0,0,1-.3-2.85v-7.64h1.5l6.3,12.44Z" style="fill:#231f20;fill-rule:evenodd"/><path d="M59.33,149a9.32,9.32,0,0,1,1.05-4.94,1.39,1.39,0,0,1,1.35-1,2.14,2.14,0,0,1,.9.3,3.38,3.38,0,0,1,.9,1.95,24.7,24.7,0,0,1,.3,4.35h-4.5V149Zm6.6-4.94a4.55,4.55,0,0,0-3.9-2.4c-2,0-3.45.9-5,2.85-1.35,1.8-2,4.35-2,7.49a13.67,13.67,0,0,0,1.35,6.44,5.46,5.46,0,0,0,5.1,3.3A4.76,4.76,0,0,0,65,160.44a10.82,10.82,0,0,0,2.7-4.35l-.45-.45a8.27,8.27,0,0,1-1.8,2.4,2.26,2.26,0,0,1-1.65.6,3,3,0,0,1-2.7-1.65,11.35,11.35,0,0,1-1.65-6h8.26c0-3-.6-5.39-1.8-6.89Z" style="fill:#231f20;fill-rule:evenodd"/><path d="M78.09,159.39a1.17,1.17,0,0,1-1.05-.45,5.93,5.93,0,0,1-1.2-2.4,23.94,23.94,0,0,1-.45-5.39,19.08,19.08,0,0,1,.45-4.79,8.56,8.56,0,0,1,.9-2.25,1.27,1.27,0,0,1,1.05-.3c1.2,0,2.1.9,3,2.85v9.89c-.9,1.8-1.8,2.85-2.7,2.85Zm.45-24.72c.75,0,1.2,0,1.5.3a1.38,1.38,0,0,1,.6.9,23.07,23.07,0,0,1,.15,2.55v5.69a9.87,9.87,0,0,0-1.8-1.8,3,3,0,0,0-2-.6,4.85,4.85,0,0,0-3.15,1.2,8.54,8.54,0,0,0-2.4,3.75,15.15,15.15,0,0,0-.75,5.39,13.67,13.67,0,0,0,1.35,6.44c1.05,2.25,2.55,3.3,4.5,3.3a4.89,4.89,0,0,0,2.1-.6,8.75,8.75,0,0,0,2.1-2.4v3l6.3-1.65v-.6a1.48,1.48,0,0,1-1.2-.45.91.91,0,0,1-.45-.9,10.07,10.07,0,0,1-.15-2.7V133.77H78.54v.9Z" style="fill:#231f20;fill-rule:evenodd"/><path d="M115.47,151.6h.75l-.9,9.59H96.56v-.75h.75a2.24,2.24,0,0,0,1.5-.45,1.53,1.53,0,0,0,.75-.9c0-.3.15-1.2.15-2.55V138.41c0-1.35-.15-2.25-.15-2.55a4,4,0,0,0-.75-.9,2.54,2.54,0,0,0-1.5-.45h-.75v-.75h11.71v.75h-.9a2.24,2.24,0,0,0-1.5.45,1.54,1.54,0,0,0-.75.9c0,.45-.15,1.2-.15,2.55v17.53c0,1.35.15,2.25.15,2.7a2.55,2.55,0,0,0,.9.9,16.35,16.35,0,0,0,2,.15h1.8a3,3,0,0,0,2.1-.75,6.26,6.26,0,0,0,2-2.4,21,21,0,0,0,1.65-4.94Z" style="fill:#231f20;fill-rule:evenodd"/><path d="M126.43,143.66a5.18,5.18,0,0,1,1.05,1.8,29.14,29.14,0,0,1,.3,4.65,71,71,0,0,1-.3,7.64,3.38,3.38,0,0,1-.9,1.95,2.1,2.1,0,0,1-1.35.45,1.59,1.59,0,0,1-1.35-.75,3.85,3.85,0,0,1-.75-2.1,31.88,31.88,0,0,1-.3-4c0-2.55.15-4.65.15-6.14a6,6,0,0,1,.9-3.15,2.09,2.09,0,0,1,1.5-.75,1.36,1.36,0,0,1,1.05.45Zm-6.6,1.2a13.15,13.15,0,0,0,0,13.79,6.24,6.24,0,0,0,5.55,3c2.4,0,4.2-1.2,5.7-3.3a13,13,0,0,0,1.65-6.59,13.42,13.42,0,0,0-.9-5.09,8.18,8.18,0,0,0-2.7-3.6,7.45,7.45,0,0,0-3.9-1.2,6,6,0,0,0-5.4,3Z" style="fill:#231f20;fill-rule:evenodd"/><path d="M144,144.11a1.62,1.62,0,0,1,1.65,1c.6,1.2.9,3.15.9,6a53.61,53.61,0,0,1-.3,6.29c-.3,1.2-.6,1.95-1.05,2.25a1.83,1.83,0,0,1-1.35.6,1.76,1.76,0,0,1-1.65-.75,3.29,3.29,0,0,1-.75-1.8,17.39,17.39,0,0,1-.15-3.3v-8.39c.9-1.35,1.8-1.95,2.7-1.95Zm-9-9.59a2.33,2.33,0,0,1,1.2.3.91.91,0,0,1,.45.9,5.69,5.69,0,0,1,.15,1.95v24.12h.6l2.55-2.1a9,9,0,0,0,1.8,1.65,5,5,0,0,0,2.25.45,5.77,5.77,0,0,0,3.75-1.35,9.94,9.94,0,0,0,2.7-3.9,15.91,15.91,0,0,0,.9-5.54,13.16,13.16,0,0,0-.75-4.94,6.86,6.86,0,0,0-2.1-3.15,4.77,4.77,0,0,0-3-1.2c-1.5,0-2.85.9-4.2,2.55V133.77H135v.75Z" style="fill:#231f20;fill-rule:evenodd"/><path d="M164.1,141.86h.6l.3,6.29h-.6c-.75-1.8-1.35-3.15-2.1-3.75a3.13,3.13,0,0,0-2.25-1,1.71,1.71,0,0,0-1.2.45,2.41,2.41,0,0,0-.45,1.35,1.42,1.42,0,0,0,.3,1,14.55,14.55,0,0,0,3,2.7,13.31,13.31,0,0,1,3.3,3.45,5.45,5.45,0,0,1,.75,3.15,7.61,7.61,0,0,1-.6,3,4.16,4.16,0,0,1-2,2.25,4.08,4.08,0,0,1-2.55.9,7.29,7.29,0,0,1-3-.9c-.45-.15-.6-.3-.75-.3-.45,0-.75.45-.9,1h-.6l-.3-6.74h.6a8.59,8.59,0,0,0,2.1,4,3.6,3.6,0,0,0,2.55,1.35,2.7,2.7,0,0,0,1.35-.6,2.53,2.53,0,0,0,.45-1.5,3,3,0,0,0-.45-1.65c-.45-.45-1.2-1.2-2.25-2.1A18.48,18.48,0,0,1,156,151a6,6,0,0,1-1.05-3.6,6.29,6.29,0,0,1,1.2-3.9,4.57,4.57,0,0,1,3.6-1.65,3.93,3.93,0,0,1,2.55.75,2.54,2.54,0,0,0,.75.3c.15,0,.3-.15.45-.15a8.87,8.87,0,0,0,.6-.9Z" style="fill:#231f20;fill-rule:evenodd"/><path d="M174.46,135.56h.6v6.74h3.75v2.1h-3.75v11.39a6.24,6.24,0,0,0,.15,2.1.82.82,0,0,0,.45.75c.15.3.3.3.6.3.6,0,1.35-.6,2-1.95l.6.45c-.9,2.55-2.4,3.9-4.5,3.9a3.92,3.92,0,0,1-2.55-1,4.34,4.34,0,0,1-1.35-2.25,18.38,18.38,0,0,1-.15-3.6v-10h-2.1v-.75a22.14,22.14,0,0,0,3.75-3.75,30.08,30.08,0,0,0,2.55-4.35Z" style="fill:#231f20;fill-rule:evenodd"/><path d="M185.42,149a11.2,11.2,0,0,1,.9-4.94,1.39,1.39,0,0,1,1.35-1,1.27,1.27,0,0,1,.9.3,3.39,3.39,0,0,1,.9,1.95,24.7,24.7,0,0,1,.3,4.35h-4.35V149Zm6.45-4.94a4.55,4.55,0,0,0-3.9-2.4c-2,0-3.45.9-4.8,2.85s-2.1,4.35-2.1,7.49a13.67,13.67,0,0,0,1.35,6.44,5.46,5.46,0,0,0,5.1,3.3,4.76,4.76,0,0,0,3.45-1.35,12.81,12.81,0,0,0,2.85-4.35l-.6-.45a12.8,12.8,0,0,1-1.65,2.4,2.89,2.89,0,0,1-1.8.6,3,3,0,0,1-2.7-1.65,11.35,11.35,0,0,1-1.65-6h8.41c-.15-3-.75-5.39-2-6.89Z" style="fill:#231f20;fill-rule:evenodd"/><path d="M196.22,142.31h6.45v4.35a13.59,13.59,0,0,1,2.85-3.9,3.61,3.61,0,0,1,2.25-.9,1.74,1.74,0,0,1,1.5.6,2.76,2.76,0,0,1,.6,1.95,2.93,2.93,0,0,1-.6,2.1,1.58,1.58,0,0,1-1.35.75,2.15,2.15,0,0,1-1.5-.6c-.45-.6-.75-.75-.75-.9h-.45a1.3,1.3,0,0,0-.9.45,5.18,5.18,0,0,0-1.05,1.8,20.24,20.24,0,0,0-.6,4.35v4.35l.15,1v1.5a3.27,3.27,0,0,0,.6.75,3,3,0,0,0,1.35.3V161h-8.56v-.75a2,2,0,0,0,1.5-.6,11.19,11.19,0,0,0,.3-3V146.35a6.8,6.8,0,0,0-.15-2.1,3.27,3.27,0,0,0-.45-.75,5.08,5.08,0,0,0-1.2-.45v-.75Z" style="fill:#231f20;fill-rule:evenodd"/><path d="M44.32,135c.9.9,1.2,2.55,1.2,4.65a7.89,7.89,0,0,1-.6,3.45,4.56,4.56,0,0,1-1.8,1.95,5.14,5.14,0,0,1-2.55.45h-.9v-12h1.8a2.81,2.81,0,0,1,2.85,1.5Zm3.15,24.42h6.9v-.75a2.09,2.09,0,0,1-1.5-.75,9.19,9.19,0,0,1-1.5-2.25L46,146.35a6.49,6.49,0,0,0,3.15-1.8,7.29,7.29,0,0,0,1.8-5.09,7.66,7.66,0,0,0-1.2-4.2,5.46,5.46,0,0,0-3-2.55,13,13,0,0,0-5.1-.75H31.41v.75a6.23,6.23,0,0,1,2.1.3,4,4,0,0,1,.75.9,9.83,9.83,0,0,1,.3,2.85v17.83a7.86,7.86,0,0,1-.3,2.7,2.69,2.69,0,0,1-.75,1,5.57,5.57,0,0,1-2.1.3v.75H42.67v-.75a5.22,5.22,0,0,1-2-.3,2,2,0,0,1-.9-1,10.07,10.07,0,0,1-.15-2.7V147h1.5l6.3,12.44Z" style="fill:#fff;fill-rule:evenodd"/><path d="M58.58,147.25a9.32,9.32,0,0,1,1.05-4.94,1.39,1.39,0,0,1,1.35-1,2.14,2.14,0,0,1,.9.3,10,10,0,0,1,.9,1.8,28.37,28.37,0,0,1,.3,4.5h-4.5v-.6Zm6.6-4.94a4.6,4.6,0,0,0-4.05-2.4,5.78,5.78,0,0,0-4.8,2.85c-1.35,1.8-2,4.35-2,7.49a13.67,13.67,0,0,0,1.35,6.44,5.71,5.71,0,0,0,5.1,3.3,5,5,0,0,0,3.45-1.35,10.49,10.49,0,0,0,2.7-4.5l-.45-.45a7.42,7.42,0,0,1-1.8,2.55,2.39,2.39,0,0,1-1.8.6,3.36,3.36,0,0,1-2.7-1.65,11.39,11.39,0,0,1-1.5-6H67c0-3-.6-5.39-1.8-6.89Z" style="fill:#fff;fill-rule:evenodd"/><path d="M77.19,157.44c-.3,0-.75,0-.9-.3a4.49,4.49,0,0,1-1.2-2.55,21.57,21.57,0,0,1-.45-5.24,19.06,19.06,0,0,1,.45-4.79,5.33,5.33,0,0,1,.9-2.25,1.36,1.36,0,0,1,1.05-.45c1.2,0,2.1,1,2.85,3v9.89c-.75,1.8-1.65,2.85-2.7,2.7Zm.6-24.57c.75,0,1.2,0,1.5.3a1.27,1.27,0,0,1,.45.75,10.07,10.07,0,0,1,.15,2.7v5.69a5.09,5.09,0,0,0-1.8-1.8,2.63,2.63,0,0,0-1.8-.6,5.58,5.58,0,0,0-3.3,1.2,10,10,0,0,0-2.25,3.75,15.06,15.06,0,0,0-.9,5.39,14.1,14.1,0,0,0,1.35,6.44c1.2,2.1,2.7,3.3,4.65,3.3a4.89,4.89,0,0,0,2.1-.6,12,12,0,0,0,2-2.4v3l6.45-1.65v-.6c-.6-.15-1.05-.15-1.2-.45a1.38,1.38,0,0,1-.6-.9V132H77.79v.9Z" style="fill:#fff;fill-rule:evenodd"/><path d="M114.72,149.8h.75l-.9,9.59H95.81v-.75h.75a2.54,2.54,0,0,0,1.5-.45,1.38,1.38,0,0,0,.6-.9,8.12,8.12,0,0,0,.3-2.55V136.61a7.41,7.41,0,0,0-.3-2.55,1,1,0,0,0-.6-.9,2.54,2.54,0,0,0-1.5-.45h-.75V132h11.71v.75h-.9a2.24,2.24,0,0,0-1.5.45,1.53,1.53,0,0,0-.75.9,9.36,9.36,0,0,0-.15,2.55v17.53a11.48,11.48,0,0,0,.15,2.7,1.81,1.81,0,0,0,.75.75,4.65,4.65,0,0,0,2,.3h2a3.26,3.26,0,0,0,2.1-.75,7.13,7.13,0,0,0,2-2.55,17.48,17.48,0,0,0,1.65-4.79Z" style="fill:#fff;fill-rule:evenodd"/><path d="M125.68,141.86a3.35,3.35,0,0,1,1.05,1.8,29.17,29.17,0,0,1,.3,4.65,39.78,39.78,0,0,1-.45,7.64,4.79,4.79,0,0,1-.75,1.95,2.42,2.42,0,0,1-1.35.45,1.59,1.59,0,0,1-1.35-.75,3.89,3.89,0,0,1-.9-2.1,33.87,33.87,0,0,1-.15-4c0-2.7,0-4.8.15-6.29a5.88,5.88,0,0,1,.9-3,1.85,1.85,0,0,1,1.5-.75,1.36,1.36,0,0,1,1.05.45Zm-6.6,1a12.45,12.45,0,0,0-2,7,12,12,0,0,0,2,6.89,6,6,0,0,0,5.4,2.85,6.3,6.3,0,0,0,5.7-3.15,11.72,11.72,0,0,0,1.8-6.59,13.42,13.42,0,0,0-.9-5.09,7.42,7.42,0,0,0-2.7-3.6,6.32,6.32,0,0,0-3.9-1.2,6.2,6.2,0,0,0-5.4,2.85Z" style="fill:#fff;fill-rule:evenodd"/><path d="M143.24,142.16c.75,0,1.2.45,1.65,1.2.6,1,.9,3.15.9,6a29.75,29.75,0,0,1-.45,6.29,4,4,0,0,1-.9,2.25,1.93,1.93,0,0,1-1.5.6,1.66,1.66,0,0,1-1.5-.75,2.59,2.59,0,0,1-.75-1.95,14.75,14.75,0,0,1-.15-3.15v-8.54c.9-1.2,1.8-1.95,2.7-1.95Zm-9-9.44a2.33,2.33,0,0,1,1.2.3,2.44,2.44,0,0,1,.45.9,5.2,5.2,0,0,1,.15,1.95V160h.6l2.4-2.1a7.55,7.55,0,0,0,2,1.5,3.62,3.62,0,0,0,2.25.6,6.07,6.07,0,0,0,3.75-1.35,11.2,11.2,0,0,0,2.7-3.9,16.52,16.52,0,0,0,.9-5.54,16.31,16.31,0,0,0-.75-4.95,8.27,8.27,0,0,0-2.1-3.15,5.12,5.12,0,0,0-3-1.2,5.62,5.62,0,0,0-4.2,2.4V132h-6.3v.75Z" style="fill:#fff;fill-rule:evenodd"/><path d="M163.35,140.06h.6l.3,6.29h-.6a12.68,12.68,0,0,0-2.25-3.9,3,3,0,0,0-2.1-.9,1.71,1.71,0,0,0-1.2.45,2.09,2.09,0,0,0-.45,1.35,1.61,1.61,0,0,0,.3,1,21.17,21.17,0,0,0,3,2.7,16.59,16.59,0,0,1,3.3,3.45,6.81,6.81,0,0,1,.75,3,7.81,7.81,0,0,1-.6,3.15,4.77,4.77,0,0,1-2,2.25,3.93,3.93,0,0,1-2.55.75,7.27,7.27,0,0,1-3.15-.75c-.3-.15-.45-.3-.6-.3-.45,0-.75.45-1.05,1h-.45l-.3-6.74h.6a8.58,8.58,0,0,0,2.1,4,4,4,0,0,0,2.55,1.2,1.37,1.37,0,0,0,1.2-.6,1.46,1.46,0,0,0,.6-1.35,2.25,2.25,0,0,0-.6-1.65,10.53,10.53,0,0,0-2.25-2.1,21.76,21.76,0,0,1-3.3-3.3,6.09,6.09,0,0,1-1.2-3.6,6.46,6.46,0,0,1,1.35-3.9,4.15,4.15,0,0,1,3.6-1.65,4.2,4.2,0,0,1,2.55.75,1.63,1.63,0,0,0,.75.15h.45a8.9,8.9,0,0,0,.6-.9Z" style="fill:#fff;fill-rule:evenodd"/><path d="M173.71,133.77h.6v6.74h3.75v1.95h-3.75v13.64a3.25,3.25,0,0,0,.45.75c.3.15.45.3.6.3.75,0,1.5-.6,2.1-1.95l.6.45c-1.05,2.55-2.4,3.75-4.5,3.75a3.79,3.79,0,0,1-2.55-.9,4,4,0,0,1-1.35-2.25,18.42,18.42,0,0,1-.15-3.6V142.46h-2.1v-.6a16.85,16.85,0,0,0,3.6-3.75,21.21,21.21,0,0,0,2.7-4.35Z" style="fill:#fff;fill-rule:evenodd"/><path d="M184.52,147.25a9.32,9.32,0,0,1,1.05-4.94,1.39,1.39,0,0,1,1.35-1,2.14,2.14,0,0,1,.9.3,3.42,3.42,0,0,1,.9,1.8,28.38,28.38,0,0,1,.3,4.5h-4.5v-.6Zm6.6-4.94a4.55,4.55,0,0,0-3.9-2.4c-2,0-3.45.9-5,2.85s-2,4.35-2,7.49a13.67,13.67,0,0,0,1.35,6.44,5.71,5.71,0,0,0,5.1,3.3,4.76,4.76,0,0,0,3.45-1.35,10.49,10.49,0,0,0,2.7-4.5l-.45-.45a7.42,7.42,0,0,1-1.8,2.55,2.26,2.26,0,0,1-1.65.6,3.36,3.36,0,0,1-2.7-1.65,10.14,10.14,0,0,1-1.65-6h8.26c0-3-.6-5.39-1.8-6.89Z" style="fill:#fff;fill-rule:evenodd"/><path d="M195.47,140.51h6.45v4.2a12,12,0,0,1,2.85-3.75,3.61,3.61,0,0,1,2.25-.9,1.74,1.74,0,0,1,1.5.6,2.76,2.76,0,0,1,.6,1.95,2.93,2.93,0,0,1-.6,2.1,1.58,1.58,0,0,1-1.35.75,2.08,2.08,0,0,1-1.5-.75c-.45-.45-.75-.6-.75-.75h-.45a1.1,1.1,0,0,0-.9.3,4.09,4.09,0,0,0-1.05,1.95,13.24,13.24,0,0,0-.6,4.35v5.39c0,.75.15,1.2.15,1.5a1.5,1.5,0,0,0,.6.75,3,3,0,0,0,1.35.3v.75h-8.56v-.75c.75-.15,1.2-.3,1.35-.75.3-.3.45-1.35.45-3V144.55a6.8,6.8,0,0,0-.15-2.1,3.28,3.28,0,0,0-.45-.75c-.3-.3-.6-.3-1.2-.45v-.75Z" style="fill:#fff;fill-rule:evenodd"/><path d="M228.5,165.53a3.69,3.69,0,0,1,1.2,2.55,3.75,3.75,0,0,1-1.2,2.7,3.09,3.09,0,0,1-2.55,1,3.62,3.62,0,0,1-2.7-1,4.3,4.3,0,0,1-1.05-2.7,4.25,4.25,0,0,1,1.05-2.55,3.62,3.62,0,0,1,2.7-1,3.09,3.09,0,0,1,2.55,1Zm.6-.6a4.36,4.36,0,0,0-6.3,0,4.08,4.08,0,0,0-1.35,3.15,4.4,4.4,0,0,0,1.35,3.3,4,4,0,0,0,3.15,1.2,4.18,4.18,0,0,0,3.15-1.2,4.4,4.4,0,0,0,1.35-3.3,4.31,4.31,0,0,0-1.35-3.15Zm-2.55,2.85a1.13,1.13,0,0,1-.75.15h-.45v-1.35h1.05a.78.78,0,0,1,.3.6c0,.3,0,.45-.15.6Zm-1.2,1h.45a1.17,1.17,0,0,0,.45.15c.15,0,.3.15.45.3V170c0,.3,0,.45.15.6H228v-.3c-.15,0-.15,0-.15-.15v-.45a1.75,1.75,0,0,0-.3-1c-.3-.15-.45-.3-.75-.3a1.06,1.06,0,0,0,1.2-1.2,1.19,1.19,0,0,0-.75-1.2,1.27,1.27,0,0,0-.9-.3H224v4.94h1.35v-1.8Z" style="fill:#231f20;fill-rule:evenodd"/><polygon points="93.25 100.8 94.9 100.8 97.61 100.05 98.51 99.75 100.16 99.6 99.86 98.55 98.81 94.06 98.36 95.11 97.91 96.75 97.91 98.25 96.56 98.85 93.85 99.45 92.35 98.85 92.5 100.95 93.25 100.8 93.25 100.8" style="fill:#e03a3e;fill-rule:evenodd"/><polygon points="84.7 101.55 85.75 102 85.6 103.8 86.05 106.19 84.85 106.64 84.55 107.99 84.4 111.29 83.05 113.54 82.45 115.19 81.39 114.44 80.34 111.44 79.74 109.64 78.84 109.04 79.59 107.54 81.09 104.7 82.15 104.1 84.1 101.85 84.7 101.55 84.7 101.55" style="fill:#e03a3e;fill-rule:evenodd"/><path d="M175.66,119.23c-3-.45-.15-3.15-1.35-4.79a5.29,5.29,0,0,0-2,1.2,21,21,0,0,0-10.21-4c-3.9-2.25-7.81-4.65-11.56-7.19-4.65-3.45-9.91-5.39-15-7.49.15-2.1,2.55-1,3.75-1.95-.45-.9-1.65-1.2-2.25-1.95,1.05-.15,2.25.3,3.6,0,1.8,1.2,2.85,3,4.35,4.35,1.2,1.8,3.75.75,4.65,3,2.85,4.35,7.51,5.69,11.26,8.39,2.85.9,6.75,2.25,9.61.45l-1.2-.75c-2.25-.15-3.45-3-5.25-3.9-2.85.45-2.4-3.45-5.1-3.6-.6-.6-.45-1.5-.9-2.1-2-.9-2-3.45-4.2-3.75-.75-.45-2.1-.3-2.25-1.35.3-.45.75-.3,1.05-.45l.3.45a43.6,43.6,0,0,1,5,3c.6.15,1.5,0,1.65,1a2.85,2.85,0,0,1,2.85,1.65c1.65.3,1.5,2.55,3.45,2.55.9,1.8,2.7,2.7,3.9,4,1.05,1.95,2.25,3.9,2.4,6.14.6-.15,1.05-.75,1.5-1.2,3.6-5.24,1.65-12.89-1.5-17.68l.9-.45c-.75-1-2-1-3-1.65-6.45-9-16.81-10.64-27.17-10-.15-.6-.15-1.35-.6-1.65-.75-.45-1.5,0-2.1,0,.15-.45-.15-.6-.15-.9-.45-.6-1.2-.6-2-.6-1.05,1-1.5-.45-2.4-.6a8.46,8.46,0,0,0-4.35,2.1c-.45-.15-.15-.75-.45-.9-3.15-.15-6,1.2-9,1.95-2.25,3.75-6.45.6-9.61.6-3.45.15-7.21-1.8-10.36.15a1.5,1.5,0,0,0-.75-.6c-1.8-.3-4.65-.9-5.85,1-.3-.3-.9-.3-1.35-.45-2,.3-4.8-.3-5.7,1.95a5.72,5.72,0,0,0-5,.9c-2,0-1.2,2.7-3,2.55-2,2.1-5.1,4-4.35,7.49l-.6.3c-.45,2.1-2,4.35-.75,6.59a7.49,7.49,0,0,0,2,6.14c0,1.2,0,2.55,1.35,3.3.45,4,.15,8.69.6,12.89l1.05-1a11.59,11.59,0,0,0,2.85-4.2c0-1,.6-2.25,0-3-.45-.3-.3-1.2-.45-1.2s-.15.3-.3.15A28.89,28.89,0,0,1,80,109c-.3,0-.6,0-.75-.3s0-.6.3-.75a.55.55,0,0,1,.15.45H80a34.21,34.21,0,0,0,1.5-3.45c2,.15,2.25-1.95,3.3-3,.75.6.15,1.95.45,2.85,0,.45.6,1,.15,1.35a19,19,0,0,1-.9-2.7c-.45,1,.3,2.1.15,3.15-.3-.75-.6-1.8-1.35-1.8.15,1,1.05,1.8.75,2.85-.6-.75-.6-1.8-1.35-2.25.15,1.8,1.35,3.3,1.35,5.09a28.22,28.22,0,0,1-2-4.94c-.45-.15-.45.3-.45.6a16.74,16.74,0,0,1,1.8,5.69,48.93,48.93,0,0,0-2.1-4.94c-.3,2.25,1.65,4,1.5,6.29-.75-1.65-1.2-3.3-2-4.95H80.8c.45,2.1,1.5,4,2,6.14,2.25-1,2.55-4.2,2.25-6.29-.9-1.5,1.5-.9,2-1.8.45-2.55,1.8.3,3.15-.75,1.8-.75,2.55-2.55,3-4.35l2.1-.9c-.6.15-1.65.45-2.1,0,1.5-.15,3-1,4.5-.3-1.35,1.65-3.3,3-3,5.39,1.8,4,1.65,8.69,4.35,12.29a1.17,1.17,0,0,0,1.5-.3c.15-1.65-.9-3.3-1.8-4.8.3-3.45-1.65-6.14-.75-9.59.3-1,2.4-2.1,1.35-3-1.5-.15-.3-1.95-1.05-2.7.6-.6-.15-1.35.45-1.65.6,2.1.6,4.65,2.7,5.84.75,1,2.1-.15,2.55.9l-.3.3a1.58,1.58,0,0,0-1.8,0,7.3,7.3,0,0,0,.15,2.55c3.45,3.45,2.25,8.69,4.35,12.74.6.75.6,2.4,2,2.4.9-.75.45-1.8.45-2.7.15-3-1.2-5.69-1.5-8.24.15-2.55-3.45-3.15-2.7-5.84-.3-.9-1.2-1.95-.75-2.85.75.3.45,1.2.75,1.65,1.05,1.35,3.15.6,4.65,1.2.45.9,1.2.3,1.65-.3a1,1,0,0,1,1.35.45l5.55.15c-.15.15-.3.15-.45.3-.3,2.7,1.05,4.95,3.3,6.59l.15,4.94c1.35,3,4.5,5.24,6.6,7.94,5.55,3.3,11.26,6.44,17.86,7,10.36.15,21.16-1.5,28.22-10.49.9-.3,1.8.6,2.4-.3-.15-.3.15-.6-.15-.75Zm-43.08-10.64c-1.65-2.85-6.75-2.25-6.45-6.44a6.37,6.37,0,0,1,2.1.9l4.2.15c.9.75,1.65,2.25,2.85,2.25,1.5-.3,3.15-.3,4.35-1.2-.6-1.35-2.25-1.35-3.3-2.25-.3-.6-1.05-.6-1.05-1.35l21,10.49c-2.7-.9-6.3,0-8.86-1.35a35.22,35.22,0,0,0-14.86-1.2ZM151.19,118c.75,0,1.5-.3,2.1.3.6-.3,2,.3,2.4-.6.75.3,1.5.9,2.4,1.2a14.63,14.63,0,0,1-6.9-.9Zm8.71,1c-1.05-.3-1.8-1.35-2.85-1.5a31.92,31.92,0,0,0,6.45-.45c1.35.15,2.7-.15,4.05.3-1.8,1.8-5.4.45-7.66,1.65Z" style="fill:#231f20;fill-rule:evenodd"/><path d="M136.78,79.37c.75,0,1.65-1.2,2.4-.15-.15,1.8,1.5.45,2.55,1,.6,1.35-1.2,2.4-1.35,3.6-.45-.9.45-2.1.3-3-1.05,1.2-1.2,2.85-1.5,4.5-.45-1.5.15-3.3.15-4.65a2.69,2.69,0,0,0-.75,1c.15,1.5-.6,2.7-.3,3.9H138c0-1.8,0-3.15.15-4.95-.15-.15-.15-.3-.45-.3a10.09,10.09,0,0,0-.3,5.24l-.3.15c-.75-1.95-.15-4.2-.6-6a11.65,11.65,0,0,0-.6,3.15l.3,3c-.45-.15-.45-.75-.6-1a34,34,0,0,0-.3-3.9c-1.05,0-.15,1-.6,1.65,0,1.2.45,2.55.6,3.9H135A25.18,25.18,0,0,1,133.93,80c-1.05,1.2-.15,3-.45,4.65a4.3,4.3,0,0,1,.45,2.25c-1.35-1.35-1.05-3.75-1.2-5.84-.3-.15-.3.15-.45.3a11.24,11.24,0,0,0,.6,6.29c-1.35-1.5-1.35-3.9-1.5-6.14-.45.15-.45.9-.6,1.35a9.52,9.52,0,0,0,.75,4.2c-1.35-1.2-1.35-3.3-1.05-5.24.3-.3.3-1,.9-1.2l.15.15a24,24,0,0,1,3.45-2.4c1.2-.45.9.9,1.8,1Z" style="fill:#e03a3e;fill-rule:evenodd"/><path d="M130.18,79.37a7.61,7.61,0,0,0-.75,6.29c-.75.3-.75-1-.9-1.5-.3-1,.3-2.1,0-2.7a4.83,4.83,0,0,0-.6,4c-1.05-1.2-.45-3.45-.45-4.8-1.05,1-.75,2.4-.9,4-.3,0-.3-.45-.45-.6-.3-1.2.45-2.4-.3-3.15a5.65,5.65,0,0,0-.6,3.15c-.45,0-.45-.45-.6-.6-.15-.9.45-1.5,0-2.25-.9.45-.6,1.65-.9,2.55-.75-.3-.15-1.5-.45-1.8-.6.15-.45,1-.9,1.35l-.45-.9a.83.83,0,0,1-.75.45c-.45-.75.75-1,1.2-1.5,2.4-.9,5.1-1.35,7.35-2.25l.45.15Z" style="fill:#e03a3e;fill-rule:evenodd"/><path d="M100.76,81.62c.3,1.5-1.2,2.55-1.5,4C97.61,89,98.51,93,97.91,96.75c-.9-3.15-.3-6.14,0-9.29-.9.45-.75,1.8-1.05,2.7a23.62,23.62,0,0,0,.45,7.94l-.15.6c-.9-1.65-.45-3.9-.9-5.69,0-1.65.15-3.3.3-4.94a.52.52,0,0,0,.3-.15c0-.15.15-.45-.15-.6-2.1,3.3-.6,6.89-.75,10.64,0,.3.3.6.3.9l-.15.15a22.54,22.54,0,0,1-.9-9.59c-.15-.75,1.05-1.5,0-1.95a9,9,0,0,0-.9,3.45,34.78,34.78,0,0,0,.6,7.94c-2.25-5.39-.9-12.29,1.65-17.08,1.2-1,2.85-.15,4.2-.15Z" style="fill:#e03a3e;fill-rule:evenodd"/><path d="M129.28,87.16a29.78,29.78,0,0,0,5.1,4.65c0,.3-.45.45-.3.75l.3.3.6-.75c.3.3-.45.75.3.9l.45-.45c.3.3-.45.45,0,.75.3,0,.45-.3.6-.3,0,.6,1.2.9,1.65,1.5-4.5-.9-8.26-2.85-13.06-1.65l-.6.45c-.6-2.1.9-4,1.8-5.84v-.15c-3.9,3.15-2.4,9-1.5,13-1.65-2.4-1.5-6.29-1.65-9.14-1.05,1-.45,3-.6,4.2.45,1.95.3,3.9,1.2,5.39-1.65-2.55-2-5.24-2.1-8.54l-.45.6c-.45,2.85.45,5.69,1.35,8.24h-.3a28.28,28.28,0,0,1-2-7.79c-.15-.15-.3.15-.45.3a37,37,0,0,0,.75,5.69l.9,2.1c-.45,0-.6-.6-.9-1-1.35-1.8-.6-4.65-1.8-6.44-.6,2.85.75,5.39,1.5,7.94a5.08,5.08,0,0,1-1.35-2.1c-.9-1.95-.75-3.75-1.2-5.69-1.05,1.2.15,3.3,0,4.8.45,1.2,1.2,2.4,1.2,3.6-.3-.15-.45-.6-.6-.9a20.22,20.22,0,0,1-1.65-6.74c-.3-.15-.15-.45-.45-.45-.45,3,.6,5.84,1.5,8.39-1.65-2.55-2.1-5.54-2.55-8.54l-.45.45c.45,2.7.75,5.69,2.1,8.09-.75.3-.9-1.2-1.35-1.8a44.73,44.73,0,0,1-1.5-6.44h-.3c-.3,2.85.9,5.84,1.8,8.39-1.65-2.55-2.1-6-2.85-8.84-.15,0-.15.15-.3.3-.3,3.3,1.35,5.69,2.1,8.39-1.5-1.95-1.8-4.65-2.55-7,.15-.45-.45-1.35-.6-1.8-.6.75,0,1.8,0,2.55.45,2.25,1.35,4.2,2,6.29a2.3,2.3,0,0,1-1.05-1.5c-.6-2.55-1.8-5.24-1.8-7.94-.6-.15-.45.45-.6.6,0,1.95.9,3.9.9,6a29.76,29.76,0,0,0,1.65,3c-1.35-.3-1.35-1.95-2-3a23.12,23.12,0,0,1-1.2-7c-.3-.15-.45-.45-.75,0-.3,3.45.9,6.74,2.25,9.89-1.05-.3-.75-1.35-1.35-1.95-.6-3-1.8-5.84-1.65-8.84-.3,0-.45.3-.6.45a24.31,24.31,0,0,0,2.4,10.34H109a35.12,35.12,0,0,1-3.3-11.09h-.15c-.45,4.2,1.2,7.34,2.55,10.79l-.3.3c-2.25-3.15-2.55-7.34-3.3-11.24-.75,3.45.6,6.74,1.5,9.89.15.3.45.45.3.75-2-3-2.55-6.89-2.85-10.64-.6.6-.45,1.8-.3,2.55.6,2.7.75,5.69,2.1,8.09-2.25-2.55-2.1-6.14-3-9.14,0-.45.45-1,.15-1.65-1.05,1.35-.3,3.3-.3,4.95.6,1.5.6,3.15,1.05,4.65-.45-.45-.45-1.2-.75-1.8a46.2,46.2,0,0,1-1.35-7.94c-.6.15-.15,1-.6,1.5a38.73,38.73,0,0,0,1.65,8.09,20.78,20.78,0,0,1-1.65-11.39c-.15-.15-.3-.3-.45-.3a5.81,5.81,0,0,0-.3,2.25,19.63,19.63,0,0,0,1.05,8.39c-2.55-5.09-2-12.74,1.8-17.68.6-.9,1.65-.45,2.55-.75,8.41.9,16.66,2.25,24.17,5.84Z" style="fill:#e03a3e;fill-rule:evenodd"/><path d="M160,84.47a25.29,25.29,0,0,1,8.56,6.44c-1.05.15-2.4-.3-3.75-.15,0-.3-.3-.3-.3-.45-.45.75-1.35.3-2.1.45.15-.3,1.05-.6.6-1-.9.3-1.35,1.2-2.4.9-.15-.75,2.1-1.2.45-1.5-.75.75-1.65,1.8-2.85,1.35l1.8-1.95c-.3-.15-.3-.45-.6-.3-1.2.75-1.8,2.7-3.45,2.25a13,13,0,0,0,2.25-3c0-.15-.15-.15-.3-.15-1.5,1.2-2.4,3-4.05,3.3v-.15c1.35-1,1.65-2.55,2.85-3.75l-.3-.15c-1.8.9-2.4,3.3-4.5,4l-.15-.15c1.5-1.35,2.1-3,3.45-4.35h-.6c-1.35,1.35-2.55,3.15-4.2,4.35.6-1.8,2.4-3,3.15-4.79,0-.15-.3-.15-.3-.15l-4.35,4.8c0-1.5,2.1-2.7,2.55-4.2,0-.3,1.05-.6.45-1.2-2.1,1.35-3.15,3.9-5,5.39a10,10,0,0,1,1.65-2.7c.3-1.2,1.5-1.95,2.1-3.15-1.35.3-2.55,2.1-3.45,3.3-.15.9-1.35,1.5-1.65,2.4a26.29,26.29,0,0,1,3.6-6.29c0-.3-.3-.15-.3-.15a31.83,31.83,0,0,0-4.8,6.29l-.15-.15a17.12,17.12,0,0,1,2.25-4.35,7.54,7.54,0,0,1,1.2-1.8l-.3-.3a29.36,29.36,0,0,0-4.5,6.14c.15-1.5,1.5-2.85,2.1-4.5.15-.45.75-.9.9-1.5-1.2,0-2.1,1.8-2.7,3-.9.6-1.05,1.65-1.5,2.55-.3-2.1,1.65-3.9,2.55-5.69l-.15-.15a11.18,11.18,0,0,0-3.15,4.35c-.15-1.8,1.35-3.45,2.1-5.09,6.15-1,12.16-.75,17.26,1.95Z" style="fill:#e03a3e;fill-rule:evenodd"/><path d="M94.45,82.82c-1.5,4.35-3,10.49-.9,15.28v.3H93.4a22.75,22.75,0,0,1-1.5-10,5.58,5.58,0,0,0-.75,3.6,34.85,34.85,0,0,0,1.2,6.89c-1.2-1.5-.75-3.45-1.65-5.09l-.15-5.09c-.6.6,0,1.2-.45,2.1-.3,2.85.6,6,1.5,8.84h-.3c-1.65-3.3-1.8-6.89-1.8-10.49-.3,0-.3.15-.45.3a19.25,19.25,0,0,0,1.5,10.64c-.9-.6-1.05-1.8-1.35-2.7-1.2-4-.9-8.69-.3-12.59.3-.75.3-1.8,1.35-2.25,1.35,0,2.4-.3,3.75-.3l.45.6Z" style="fill:#e03a3e;fill-rule:evenodd"/><path d="M87.55,84.47c-.75,5.09-.9,10.49,1.2,15.28h-.3c-1.2-2.7-1.65-5.69-2.4-8.54l-.45.3c.3,3.15,1.5,6.29,2.25,9.14-.6-1.5-1.05-3-1.65-4.5A19,19,0,0,1,85,88.51c-.6-.3-.3.9-.6,1.35-.15,1.95.75,3.15.45,4.94.45,2.25,2.1,4.2,2.1,6.59-.45-.45-.45-1.2-.6-1.8C85,96,83.2,92.26,83.5,88.36c-.6,0,0,.6-.45.9-.6,4.5,2.1,8.24,3,12.44H85.9c-2.1-5.09-4.65-10.19-3.15-16a6.69,6.69,0,0,1,4.35-1.8l.45.6Z" style="fill:#e03a3e;fill-rule:evenodd"/><path d="M139.78,89c-.9.45-2,0-2.85-.15l-.15-.75-2.25.15c.15,0,1.8-1.2,2.85-1.2.9.3,1.5-.6,2,.45-.45.6.15,1,.45,1.5Z" style="fill:#fff;fill-rule:evenodd"/><path d="M82,94.51a52,52,0,0,0,2.4,6.14l-.15.15c-1.5-3.15-3.6-6.14-3.6-9.89l-.3-.15c-.75,4.2,2.1,7.49,3.45,11.24a45.8,45.8,0,0,1-3.9-7.64l-.45.45c.75,2.85,2.55,5.24,3.6,7.94-1.5-2.4-3.15-5.24-4.5-7.79a1.12,1.12,0,0,0-.15.75,32.1,32.1,0,0,0,1.5,3.3c.9,1.5,2.1,2.85,2.55,4.5v.15c-2.1-3.15-4.8-6.14-5.25-10-.9-2.85,2.25-4.35,3.75-6.14.3,2.25-.15,5.09,1.05,7Z" style="fill:#e03a3e;fill-rule:evenodd"/><path d="M126.88,88.21a9.73,9.73,0,0,0-2,4.2h-.45a6.66,6.66,0,0,1,2.4-4.2Z" style="fill:#231f20;fill-rule:evenodd"/><path d="M127.93,88.66c-1.35,1-1.35,3-2.25,3.6a5.65,5.65,0,0,1,2.1-3.6Z" style="fill:#231f20;fill-rule:evenodd"/><path d="M129,88.81c-.3,1.2-1.5,2.1-1.8,3.3-.6-.45.6-1.2.6-1.8.45-.45.75-1.2,1.2-1.5Z" style="fill:#231f20;fill-rule:evenodd"/><path d="M135.28,89.41c-.3.6.15,1.2.3,1.8-.45-.6-1.8-.9-2.55-1.65a3.87,3.87,0,0,1,2.25-.15Z" style="fill:#e03a3e;fill-rule:evenodd"/><path d="M130.33,89.56a9.15,9.15,0,0,0-1.8,2.4h-.3a3.11,3.11,0,0,1,2.1-2.4Z" style="fill:#231f20;fill-rule:evenodd"/><path d="M164.85,91.51c2.4.45,4.65.15,7.05.9-5.55-.3-12.91-.75-18.61-.15a.76.76,0,0,0-.15.75l-.6-.45c-5.1-.3-10.66.15-15.46-1-.45-.3-1.05-.75-.75-1.5,9.46,1.65,19.06,1.65,28.52,1.5Z" style="fill:#e03a3e;fill-rule:evenodd"/><path d="M130.78,90.46c-.3.6-.9.9-1.05,1.65a2,2,0,0,1,.9-1.8l.15.15Z" style="fill:#231f20;fill-rule:evenodd"/><path d="M130.78,92.26c-.15-.3.3-.9.75-1.35.3.45-.3,1-.75,1.35Z" style="fill:#231f20;fill-rule:evenodd"/><path d="M132,92.56c-.15-.15.15-.75.6-1,.15.45-.45.75-.6,1Z" style="fill:#231f20;fill-rule:evenodd"/><path d="M133.33,92.26c.15.3-.15.3-.3.45v-.45Z" style="fill:#231f20;fill-rule:evenodd"/><path d="M154.95,93c-.45.3-.45,1-1.05.9.15-.45.45-1,1.05-.9Z" style="fill:#e03a3e;fill-rule:evenodd"/><path d="M156.75,93c-.45.45-.6,1-1.35,1.35,0-.6.75-1,1.35-1.35Z" style="fill:#e03a3e;fill-rule:evenodd"/><path d="M158.85,93c-.6.6-1.5,1.5-2.25,2.1.15-1,1.2-2.25,2.25-2.1Z" style="fill:#e03a3e;fill-rule:evenodd"/><path d="M160.8,93a16.85,16.85,0,0,0-2.7,3l-.3-.3c.9-1,1.5-2.7,3-2.7Z" style="fill:#e03a3e;fill-rule:evenodd"/><path d="M162.45,93c-1.05.9-1.5,2.4-2.85,3.15h-.3A7.8,7.8,0,0,1,162,93Z" style="fill:#e03a3e;fill-rule:evenodd"/><path d="M164.55,93c-1.5,1.2-2.55,2.7-3.9,3.9.6-1.35,2.1-3.6,3.9-3.9Z" style="fill:#e03a3e;fill-rule:evenodd"/><path d="M166.5,93c-1.5,1.5-3,2.55-4.2,4.35h-.45A20.57,20.57,0,0,1,165.6,93Z" style="fill:#e03a3e;fill-rule:evenodd"/><path d="M162.75,97.8c2.25-1.5,3-4.2,5.55-4.8l-5.55,5.39v-.6Z" style="fill:#e03a3e;fill-rule:evenodd"/><path d="M132.13,93.61a8.68,8.68,0,0,1-2.1.45c-.45.9-.9,1.95-2.1,2.1-.9,0-2.25.3-2.7-.75a1.61,1.61,0,0,1,.6-2.1c2-.3,4.2.15,6.3.3Z" style="fill:#e03a3e;fill-rule:evenodd"/><path d="M142.79,93.31s0,.3-.15.3-.15,0-.3,0c0-.3.3-.3.45-.3Z" style="fill:#e03a3e;fill-rule:evenodd"/><path d="M144.44,93.31l-.6.9c-.3-.15,0-.75.3-.9,0-.15.15,0,.3,0Z" style="fill:#e03a3e;fill-rule:evenodd"/><path d="M173.26,97.05a14.38,14.38,0,0,0,1.05,3,38.21,38.21,0,0,0-5.85,3.6c.45-1,1.8-1.8,2.7-2.7a14.34,14.34,0,0,0,2.4-1.8c-2.25.15-4.05,2.1-6,3.6l.3-.9A30.73,30.73,0,0,1,173,98l-.45-.45a26.24,26.24,0,0,0-5.85,4.2l-.15-.15c1.65-2.1,3.75-3.45,5.7-5.24-.15-.3-.45,0-.6-.15-2.25.9-4.05,3.15-6.15,4.65,1.35-2.4,3.9-3.9,5.85-5.54-.9-.45-1.8.75-2.7,1l-3.75,3.75V99.6a61.79,61.79,0,0,1,5.25-5.54c-.15-.15-.3-.15-.6-.15A36.18,36.18,0,0,0,164,99.15a18.65,18.65,0,0,1,5.1-5.84c2.25-.45,3.3,2.25,4.2,3.75Z" style="fill:#e03a3e;fill-rule:evenodd"/><path d="M145.79,93.61c-.45.45-.6,1.2-1.05,1.8-.15-.75.15-1.8,1.05-1.8Z" style="fill:#e03a3e;fill-rule:evenodd"/><path d="M128.53,94.51c-.15.45-.45,1.2-1.05,1.2a1.58,1.58,0,0,1-1.35-.75,1.56,1.56,0,0,1,.6-1.2,1.45,1.45,0,0,1,1.8.75Z" style="fill:#231f20;fill-rule:evenodd"/><path d="M147.44,93.61c-.3,1-1.5,1.65-1.65,2.7a2.39,2.39,0,0,1,1.65-2.7Z" style="fill:#e03a3e;fill-rule:evenodd"/><path d="M146.84,97.05c0-1.2,1.05-2.55,2.1-3.45-.15,1.2-1.5,2.25-2.1,3.45Z" style="fill:#e03a3e;fill-rule:evenodd"/><path d="M147.89,97.8a9.94,9.94,0,0,1,3-4.2c-.3,1.5-2,3-3,4.2Z" style="fill:#e03a3e;fill-rule:evenodd"/><path d="M132.13,95.71c.15-.15.6-.9.9-.9,0,.15.15.6-.15.6.6.9,1.05-.6,1.65-.6-.15.3-.15,1.35-.75,1.65a14.57,14.57,0,0,0-3.45-.45c.15-.15.3-.6.15-.6h.15c0,.15.3.3.3.3.6,0,.45-.6.9-.9,0,.3-.15.75.3.9Z" style="fill:#e03a3e;fill-rule:evenodd"/><path d="M80.64,102.75a7.06,7.06,0,0,0,.9,1.35c-.75-.3-1.2-1.35-2-1.95a27.1,27.1,0,0,1-2.7-3.45c-.3,1.65,1.65,2.7,2.1,4.2.75.75,2,1.35,1.65,2.55-1.2-1.95-3-3.45-4.35-5.39v.75c1.05,2.1,3.15,3.75,3.75,5.84-.9-1.95-3-3.9-4.65-5.69-.75-2.25.3-4,.9-5.84a18.72,18.72,0,0,0,4.35,7.64Z" style="fill:#e03a3e;fill-rule:evenodd"/><path d="M152.54,95.26c-.15.75-.9.9-1.35,1.35l-1.65,2.25c-.15-1.65,1.35-3,2.55-3.75.15,0,.45-.15.45.15Z" style="fill:#e03a3e;fill-rule:evenodd"/><path d="M154.19,95.86c-1.05,1.5-2.85,2.7-3.6,4.2a5.38,5.38,0,0,1,3.3-4.35l.3.15Z" style="fill:#e03a3e;fill-rule:evenodd"/><path d="M124.62,97.5l-.15-1.2c.6.3,0,.75.15,1.2Z" style="fill:#e03a3e;fill-rule:evenodd"/><path d="M155.4,96.75c-1.05,1.35-3,2.7-3.75,4.35h-.15a8.83,8.83,0,0,1,3.6-4.5l.3.15Z" style="fill:#e03a3e;fill-rule:evenodd"/><path d="M130.48,99.45c.3-.75-.15-1.65.3-2.4.15.45-.15,1.65.3,2.1,1.05,0,.45-1.5,1.05-1.95.6.15-.6,1.5.45,1.95.75-.3.3-1.35.75-1.8,1.35,2.7-2,1.5-3.15,2.4-.75,0-.75-.9-1.05-1.35l.3-1.5c.3.9-.15,2.1,1.05,2.55Z" style="fill:#e03a3e;fill-rule:evenodd"/><path d="M125.83,97.05c-.15.9.6,1.65.6,2.7a4.83,4.83,0,0,1-.9-2.7Z" style="fill:#e03a3e;fill-rule:evenodd"/><path d="M128.53,97.05a3.22,3.22,0,0,0,.3,2.85,3,3,0,0,1-1.65.45h.15c.15-1-.9-2.25-.15-3.15,0,.9,0,2.25.75,2.7.6-.9-.45-2.25.6-2.85Z" style="fill:#e03a3e;fill-rule:evenodd"/><polygon points="124.92 98.4 124.78 97.8 124.92 97.95 124.92 98.4 124.92 98.4" style="fill:#e03a3e;fill-rule:evenodd"/><path d="M156.3,98c-1.2,1.2-3,2.55-3.6,4.2a5,5,0,0,1,3.45-4.2Z" style="fill:#e03a3e;fill-rule:evenodd"/><path d="M141.74,100.65c11.41,5.24,21.31,13.94,32.87,18.73-4.8-1.5-9.61-4.35-14.26-7-3.75-2.1-7.51-4.65-11.41-7-4.5-2.4-9.16-4.94-14.26-6.29-.3-.3,0-.6.15-1,2.25,1.2,4.65,1.2,6.9,2.7Z" style="fill:#e03a3e;fill-rule:evenodd"/><path d="M157.2,98.85c-1.2,1.5-2.7,2.7-3.6,4.2.45-1.5,1.65-3.75,3.6-4.2Z" style="fill:#e03a3e;fill-rule:evenodd"/><path d="M133.63,100.05l-1.8.9c.15-.75,1.2-.9,1.8-.9Z" style="fill:#e03a3e;fill-rule:evenodd"/><path d="M157.95,100.05c-1.2,1.35-2.1,2.7-3.15,3.9.15-1.65,1.5-3.6,3.15-3.9Z" style="fill:#e03a3e;fill-rule:evenodd"/><path d="M98.66,100.35h-.6c0-.45.6-.3.6,0Z" style="fill:#e03a3e;fill-rule:evenodd"/><path d="M90.4,104.55h-.15l-.3-2.1c-1.05.15-.15,1.65-.75,2.4a11.22,11.22,0,0,1-.3-3.3c-1.35.6-.6,1.8-.6,3-.75-.3.15-2.7-1.2-1.8v1.8c-.6-.15.15-1.5-.9-1.35-.45.75,0,1.5.15,2.25-.6-.45-.3-1.5-.6-2.25a8.52,8.52,0,0,0,3.3-2.4c.45.15.6,1,1.2.6l1.35-.75c.15,1.2.15,3.15-1.2,3.9Z" style="fill:#e03a3e;fill-rule:evenodd"/><path d="M130.78,102.15a2.7,2.7,0,0,1,.15-1.5c.15.45.6,1.5-.15,1.5Z" style="fill:#e03a3e;fill-rule:evenodd"/><path d="M129.73,102.45a1.78,1.78,0,0,1,.45-1.65c-.3.45,0,1.2-.45,1.65Z" style="fill:#e03a3e;fill-rule:evenodd"/><path d="M132.73,101.85c-.3-.3.45-.9.75-1h.15l-.9,1Z" style="fill:#e03a3e;fill-rule:evenodd"/><path d="M98.21,101.25h-.9c0-.6.6-.15.9,0Z" style="fill:#e03a3e;fill-rule:evenodd"/><path d="M128.68,102.15c-.3-.3,0-1,.3-1.2.3.45-.3.75-.3,1.2Z" style="fill:#e03a3e;fill-rule:evenodd"/><path d="M174.46,101.1v.3c-1.35,1-3,1.5-4.35,2.7l-.75.15a17.85,17.85,0,0,1,5-3.3l.15.15Z" style="fill:#e03a3e;fill-rule:evenodd"/><path d="M127.78,101.55c-.3,0-.45,0-.45-.3h.45v.3Z" style="fill:#e03a3e;fill-rule:evenodd"/><path d="M158.7,101.25a20.49,20.49,0,0,0-2.7,3.6,4.78,4.78,0,0,1,2.7-3.6Z" style="fill:#e03a3e;fill-rule:evenodd"/><path d="M125.83,101.55c-.6-.3-.75.45-1.35.3a2,2,0,0,1,1.35-.3Z" style="fill:#e03a3e;fill-rule:evenodd"/><path d="M137.08,103.8c-.15,0-.3-.3-.45-.45,0,.45-.45.6-.75.9l-.15-.15.6-.75a.78.78,0,0,0-.6-.3,1.35,1.35,0,0,1-.9.9,4.14,4.14,0,0,0,.75-1.2l-.3-.3a6.09,6.09,0,0,1-1.35.75c.15-.15.75-.45.75-1-.45-.3-.9.15-1.35.3l.75-.9,3,1.95v.3Z" style="fill:#e03a3e;fill-rule:evenodd"/><path d="M97.46,102.15h-.9V102c.3,0,.75-.15.9.15Z" style="fill:#e03a3e;fill-rule:evenodd"/><path d="M124,102c-.15.15-.3,0-.45.15,0-.3.3-.15.45-.15Z" style="fill:#e03a3e;fill-rule:evenodd"/><path d="M160,102a30,30,0,0,1-2.85,3.3c.6-1.2,1.2-3,2.85-3.3Z" style="fill:#e03a3e;fill-rule:evenodd"/><polygon points="122.52 102.45 122.67 102.15 123.12 102.45 122.52 102.45 122.52 102.45" style="fill:#e03a3e;fill-rule:evenodd"/><path d="M124.92,102.75a11.61,11.61,0,0,0-5.4,2.1c-.45.75-1.2.75-1.8,1.35.3-1.2,1.65-1.5,2.4-2.25a15,15,0,0,0,2.1-1.2l-.6-.3c1.2.9,2.1-.45,3.3.3Z" style="fill:#e03a3e;fill-rule:evenodd"/><path d="M174.76,102.75c-1.2,1.35-2.85,1.65-4.2,2.4a11.43,11.43,0,0,1,3.9-2.7l.3.3Z" style="fill:#e03a3e;fill-rule:evenodd"/><path d="M79.14,107.24c-.75-.75-1.5-1.8-2.55-2.7-.3.15,0,.45-.15.6.75.9,2.25,1.8,2.1,3.15-.45,0-.15-.6-.45-.75-1.2-1.35-2.7-2.7-2.7-4.8,1.35,1.35,3.15,2.85,3.75,4.5Z" style="fill:#e03a3e;fill-rule:evenodd"/><path d="M96.71,103c-.15,0-.45,0-.45.15l-.15-.15c.15,0,.45-.45.6,0Z" style="fill:#e03a3e;fill-rule:evenodd"/><path d="M121.32,102.75c-.15.3-.45.15-.6.15,0-.15.3,0,.6-.15Z" style="fill:#e03a3e;fill-rule:evenodd"/><path d="M103.46,103.2c0,.3-.75,0-.9.3.15-.3.6-.6.9-.3Z" style="fill:#e03a3e;fill-rule:evenodd"/><path d="M120.27,103c-.6,0-.9.75-1.5.45a4.41,4.41,0,0,1,1.5-.45Z" style="fill:#e03a3e;fill-rule:evenodd"/><path d="M160.65,103a24.89,24.89,0,0,1-2.4,3.15,5.62,5.62,0,0,1,2.4-3.15Z" style="fill:#e03a3e;fill-rule:evenodd"/><path d="M125.23,103.5v.15a15.28,15.28,0,0,0-6.45,3.6c.6-1.35,2.55-2.55,4.05-3.3a4.59,4.59,0,0,1,2.4-.45Z" style="fill:#e03a3e;fill-rule:evenodd"/><polygon points="97.61 103.5 97.76 103.5 97.76 103.2 97.61 103.2 97.61 103.5 97.61 103.5" style="fill:#e03a3e;fill-rule:evenodd"/><path d="M118.47,103.65c-.15.3-.45.15-.6.15.15-.3.45-.15.6-.15Z" style="fill:#e03a3e;fill-rule:evenodd"/><path d="M103.76,104.1v.3c-.45-.3-.9,0-1.35.15.3-.45.9-.9,1.35-.45Z" style="fill:#e03a3e;fill-rule:evenodd"/><path d="M159.6,106.79c-.3-1,.75-2.1,1.65-2.85,0,.9-1.05,1.8-1.65,2.85Z" style="fill:#e03a3e;fill-rule:evenodd"/><path d="M174.76,104.1c0,1.2-1.35.9-2,1.65-.6.15-1.35.9-2,.75a17,17,0,0,1,3.9-2.4Z" style="fill:#e03a3e;fill-rule:evenodd"/><path d="M109.91,104.55c.45-.6,1.5-.3,2.1-.15-.45,3.75,4.05,5.39,3.6,9.14,1.65,1.8,3,3.75,3.15,6.29-.3.45-1.05.3-1.35.15-1.8-1.95-2.4-4.5-4.35-6.44-.6-.75,0-1.8-.45-2.55a15.89,15.89,0,0,1-3.75-6.74c.45.15.75.6,1.05.3Z" style="fill:#231f20;fill-rule:evenodd"/><path d="M125.53,104.55a16.55,16.55,0,0,0-6,3.9,2.92,2.92,0,0,1,1.5-1.8,7.42,7.42,0,0,1,4.5-2.1Z" style="fill:#e03a3e;fill-rule:evenodd"/><path d="M97.61,109.19a5.4,5.4,0,0,0,.45,2.7c-1.05.15-.75-1-1.05-1.95a14.2,14.2,0,0,1-1.35-5.09c.45-.15.75-.3.9.3a9,9,0,0,0,1.05,4Z" style="fill:#e03a3e;fill-rule:evenodd"/><path d="M160.65,107.39c0-.9,1.05-1.95,1.8-2.85a11.4,11.4,0,0,1-1.8,2.85Z" style="fill:#e03a3e;fill-rule:evenodd"/><path d="M104.06,105c-.15.75-.75-.15-.9.6l-.3-.3c.3-.15.75-.9,1.2-.3Z" style="fill:#e03a3e;fill-rule:evenodd"/><path d="M111.42,105l-1.2.3c0-.75.75-.45,1.2-.3Z" style="fill:#e03a3e;fill-rule:evenodd"/><path d="M162,107.84a3.12,3.12,0,0,1,1.65-2.55L162,107.84Z" style="fill:#e03a3e;fill-rule:evenodd"/><path d="M127.48,106.34a14.28,14.28,0,0,0-6.3,4c1.05-1.8,3.15-3,5-4,0-.3-.15-.45-.3-.45a6.71,6.71,0,0,0-2.55,1.2l-2.4,2.4-.15-.3c1.65-1.8,4.05-4.8,6.75-2.85Z" style="fill:#e03a3e;fill-rule:evenodd"/><path d="M111.87,106.19c0,.45,0,.9.45,1a4.41,4.41,0,0,1-1.5.45c0-.75,1.8-.45.75-1.35l-1.2.15c.15-.45.45-.45.75-.6a.83.83,0,0,1,.75.3Z" style="fill:#e03a3e;fill-rule:evenodd"/><path d="M174.76,105.89c-.75,1-2.1,1.35-3.3,1.8v-.3a22.1,22.1,0,0,1,3.3-1.5Z" style="fill:#e03a3e;fill-rule:evenodd"/><path d="M163.05,108.44a5,5,0,0,1,1.5-2.4,7,7,0,0,1-1.5,2.4Z" style="fill:#e03a3e;fill-rule:evenodd"/><path d="M164.4,108.59c-.3-.6.75-1.5,1.05-1.95a4.93,4.93,0,0,1-1.05,1.95Z" style="fill:#e03a3e;fill-rule:evenodd"/><path d="M106,108.14c.9,1.8.6,3.75,1.5,5.39-.6,0-.9-.15-1.5.15l.6-.75-1.05-.15c.45-.15.9-.15.9-.75-.3-.3-.6.3-1.05-.15,0-.45.9-.3.75-.9l-1.05-.15c.3-.3.75-.45.75-1l-.75-.15c.15-.3.75-.15.45-.6-.15-.3-.45-.15-.75-.15l.6-.75c-.3-.3-.75-.15-1.05-.15l.6-.75c-.3-.6-.6.15-1.05-.15.9-1,1.65.3,2.1,1Z" style="fill:#e03a3e;fill-rule:evenodd"/><path d="M129,107.09c0,.3.15.3.3.45.3-.3.6-.3,1.05,0a19.89,19.89,0,0,0-9.16,6.89,10.73,10.73,0,0,1,6.15-5.84c.3-.75,1.2-.3,1.2-1.2-2.85.45-5.1,2.7-7.36,4.65,1.65-2.7,4.65-5.09,7.81-4.94Z" style="fill:#e03a3e;fill-rule:evenodd"/><path d="M174.61,107.39a3.36,3.36,0,0,1-2.7,1.5,24.35,24.35,0,0,1,2.7-1.5Z" style="fill:#e03a3e;fill-rule:evenodd"/><path d="M166.35,107.54a4.25,4.25,0,0,1-1.2,1.65c.15-.6.3-1.5,1.2-1.65Z" style="fill:#e03a3e;fill-rule:evenodd"/><path d="M112.62,108.29c0,.3-.6.3-.9.45l-.15-.15.75-.75.3.45Z" style="fill:#e03a3e;fill-rule:evenodd"/><path d="M77.94,109.49c-.15-.45-.75-.75-.45-1.35a2.09,2.09,0,0,1,.45,1.35Z" style="fill:#e03a3e;fill-rule:evenodd"/><path d="M167.25,108.14c.15.45-.45.9-.75,1.35h-.15a2.18,2.18,0,0,1,.9-1.35Z" style="fill:#e03a3e;fill-rule:evenodd"/><path d="M131.23,108.44c-.45.75-1.8.9-2.7,1.5a21.32,21.32,0,0,0-6.45,5.69h.15v.15h-.15c-.15-1.5,1.65-2.55,2.4-3.75a29.9,29.9,0,0,1,5.85-3.75l.9.15Z" style="fill:#e03a3e;fill-rule:evenodd"/><path d="M167.85,109.49h-.3l.6-.9c.15.15-.15.6-.3.9Z" style="fill:#e03a3e;fill-rule:evenodd"/><path d="M113.07,109.19c-.3,0-.45.6-.75.3a.45.45,0,0,1,.75-.3Z" style="fill:#e03a3e;fill-rule:evenodd"/><path d="M169.2,109a.15.15,0,0,1-.15.15V109Z" style="fill:#e03a3e;fill-rule:evenodd"/><path d="M133.78,111.59c1.05-.6,2-1.8,3.15-2.4h.15c-.3.75-2.1,1.35-1.5,2.4a15.08,15.08,0,0,1,2.85-2.4c-.45.9-1.8,1.65-1.5,2.7l2.85-2.7.15.3c-.45.75-1.8,1.5-1.5,2.55,1.05-.45,1.65-1.95,2.85-2.55-.3,1-1.8,1.8-1.5,2.85a15.94,15.94,0,0,0,2.25-2.25c.15-.3.45-.3.75-.3a32.12,32.12,0,0,1-2,2.85l.3.3a26.19,26.19,0,0,1,2.85-3c-.3,1.35-2,2.1-1.65,3.45.75-.45,1.2-1.5,1.8-2.25.3-.3.75-.9,1.2-.9a12,12,0,0,0-1.65,3.45c.75,0,1.05-1,1.2-1.65.6-.45.9-1.35,1.65-1.5-.6,1.35-1.8,2.7-1.8,4h.3a18,18,0,0,1,2.25-3.6c.6,1.2-.75,2.25-1.05,3.45s-1.2,2.85.3,3.9c2.25.75,4.35.45,6.45,1.35,2.85.3,6.6.6,9.16-.3a13.15,13.15,0,0,0,5.4-.75,6.77,6.77,0,0,1,.3,5.39c-.3-1.35-.45-3-.9-4.5h-.3c-.3,1.5.15,3.9-.15,5.54h-.3a8.5,8.5,0,0,0-1.05-5.24c-.15,1.8.15,4.2-.3,5.84l-.3-.3a14.47,14.47,0,0,0-.75-5.09h-.15c-.15,2.1.45,4.2-.45,6.14-.3-1.8-.45-4-.75-5.69h-.15c-.6,1.95.45,4.65-.75,6.29a20.16,20.16,0,0,1-.3-5.24c.3-.3.15-.6.15-1a.21.21,0,0,0-.3,0,3.33,3.33,0,0,0-.45,2.4c-.6,1.65.3,3.3-.75,4.35-.6-2.1.45-4.65-.3-6.44-.75.3-.15,1.35-.75,1.8-.45,1.5.45,4-.75,5.24,0-1.95.3-4.79.3-6.89-.15,0-.3.15-.45.3-.45,2.25-.3,4.65-1.2,6.74h-.3c.15-1.95.45-4.65.75-6.74-.15-.15-.15-.3-.45-.3a11.6,11.6,0,0,0-1.05,4.5c-.45.9,0,2.55-.9,3.15.15-1.65.3-4,.6-5.69l-.3-.3c-1.2,1.8-1.2,4.2-1.8,6.29l-.15-.3c-.15-2.7.75-5.24.75-7.49a.32.32,0,0,0-.3.3c-.45,2.4-1.5,4.35-1.65,6.74-.15.45-.15.9-.45,1.2-.15-3,.9-5.24.9-8.09-1.5,1.65-1.2,4-2,6-.6.6-.15,1.95-1.05,2.1.45-3,1.65-5.54,1.8-8.39-1.35,1.35-1.5,3.45-2.25,5.09-.45,1-.45,2.7-1.5,3.3.75-2.85,1.5-5.54,2.25-8.39-1.05-.15-.75,1.5-1.35,2.1.15.75-.6.9-.6,1.5-.75,1.5-.75,3.6-2.1,4.65.45-3,2.25-5.69,2.4-8.69-.15.45-.75.6-.9,1.2-1.05,2.55-1.65,5.09-3.15,7.49-.15-1.8.9-3.45,1.2-5.24a8.83,8.83,0,0,0,1.05-3.75,37.31,37.31,0,0,0-3.15,7c-.6.45,0,1.5-1.05,1.5.75-2.7,1.8-5.24,2.7-7.79.15-.3,1.05-.6.45-1-2,2.55-3,5.54-4.5,8.39a23.73,23.73,0,0,1,3-8.24l-.15-.15a27.73,27.73,0,0,0-4.2,8.09c.15-2.85,1.65-5.54,2.7-8.24v-.3h-.3a76.76,76.76,0,0,0-4.05,7.79c0-3.15,2.1-5.69,3.15-8.39a.52.52,0,0,0-.3-.15,44.57,44.57,0,0,0-4.35,7.79c-.15,0-.3-.15-.45-.3,1.2-2.7,2.1-5.54,3.75-7.79h-.3a78.71,78.71,0,0,0-5,7.34c.45-2.4,2.1-4.5,3.15-6.89.3-.3.75-.75.6-1.2l-.15-.15c-1.8,2.25-3.9,4.5-4.8,7.34l-.15.15a24.77,24.77,0,0,1,3.75-8.09c-.9,0-1.35,1.5-2,2.1a27.86,27.86,0,0,0-3.3,5.24h-.3c.9-3,2.7-5.39,4.2-8.09l-.3-.15c-2.1,2.1-3.6,5.09-5.1,7.64.45-2.85,2.7-5.54,4.2-8.09l-.15-.15a23.4,23.4,0,0,0-5.25,7.49h-.15a43.3,43.3,0,0,1,4.35-8.24l-.15-.3a45.09,45.09,0,0,0-5.1,7.19c.6-2.55,2.7-5.24,4.5-7.79-.15-.15-.45,0-.6,0a34.72,34.72,0,0,0-5.1,7.19c.75-3,2.85-5.54,4.8-8.09-.3-.45-.45.15-.6.15a44.51,44.51,0,0,0-5,6.89c-.3-1.35,1.5-2.25,1.5-3.75a70.23,70.23,0,0,1,6.3-6.89c-.3.6-1.05,1.35-.9,2.1,1.05-.6,1.5-2.1,2.7-2.4-.15.45-1.65,1.5-1.5,2.4Z" style="fill:#e03a3e;fill-rule:evenodd"/><path d="M172.81,110.54l-.3-.3c.15-.45.9-.45,1.2-.75.3.15-.45.75-.9,1Z" style="fill:#e03a3e;fill-rule:evenodd"/><path d="M124.47,119.08a11.35,11.35,0,0,0,.9-2.4c1.05-1.65,2.55-3,3.75-4.65h-.6c-1.8,1.95-4.05,3.3-4.8,5.69h-.3c.9-2.7,3.3-5.69,6-6.14l2.55-1.95a86.11,86.11,0,0,0-7.51,9.44Z" style="fill:#e03a3e;fill-rule:evenodd"/><path d="M115.47,114.59l-.15.15-.45-.45.15-.15c-.15-.45-.45-.15-.75-.45,0-.15.3-.45.3-.6-.9-.15.3-1-.75-1l.3-.45-.6-.3c.15-.3.45-.3.3-.6s-.45-.15-.6-.15c.15-.3,1.05-.75,1.2,0-.15,1.65.75,2.7,1.05,4Z" style="fill:#e03a3e;fill-rule:evenodd"/><path d="M80.34,112.94c.6,1.65,1.5,3.45.9,5.24-.6-2.55-1.05-5.39-1.8-7.94a14.23,14.23,0,0,1,.9,2.7Z" style="fill:#e03a3e;fill-rule:evenodd"/><path d="M158.25,112.34c1.05.9-.15,2.25,0,3.3-.15.3-.15.6-.45.75-.45-.9,0-2.25.15-3.3-.3-.15-.3-.45-.6-.3-.75,1.2-.3,3-1.35,3.75a31.52,31.52,0,0,1,.3-3.75c-.75.3-.9,1.35-.9,2.1-.6.6,0,2.1-1.2,2.1.3-1.2.6-3,.9-4.35a2.46,2.46,0,0,0-1.2,1.8,3.44,3.44,0,0,1-1.2,2.55c.15-1.35.9-3,.9-4.35-1.05.45-1.05,1.95-1.5,2.85a5.06,5.06,0,0,1-.9,1.8c-.3-1.5,1.05-3.3.75-4.95-1.2,1.35-1.35,3.3-2.25,4.95h-.3a16,16,0,0,1,1.65-4.95c-1.05-.15-1.05,1.2-1.65,1.8,0,1.2-.9,2.1-1.2,3.15-.15-1.95,1.35-3.45,1.2-5.24-1.2,1.2-1.5,3.15-2.4,4.65-.45-.3.15-1.65.45-2.4a15.6,15.6,0,0,1,1.5-2.7c2.85-.3,6.15.45,9.31.75Z" style="fill:#e03a3e;fill-rule:evenodd"/><path d="M80.34,120.13a72.69,72.69,0,0,0-1.5-8.24c.6,2.7,2,5.09,1.5,8.24Z" style="fill:#e03a3e;fill-rule:evenodd"/><path d="M167,114.59c-1.05-.15-.45-.75-.9-1.2l-.75.6c.15-1.65-1.35-.45-1.8-1.5,1.05.75,3.75.15,3.45,2.1Z" style="fill:#e03a3e;fill-rule:evenodd"/><path d="M99,115.48l.75,1a4.61,4.61,0,0,1-1.8-3.45c.75.45.75,1.5,1.05,2.4Z" style="fill:#e03a3e;fill-rule:evenodd"/><path d="M159.6,116.38c-.15.15-.3.45-.45.3a14.51,14.51,0,0,1,.45-3.45c1.2.6,0,2.1,0,3.15Z" style="fill:#e03a3e;fill-rule:evenodd"/><path d="M168.6,115.19c-.3.3-.6,0-.9-.3l-.15-1.2c.75.15.9.9,1.05,1.5Z" style="fill:#e03a3e;fill-rule:evenodd"/><path d="M161.55,114.44c-.3.75,0,1.8-.75,2.1-.3-.75.3-1.95.3-2.55l.45.45Z" style="fill:#e03a3e;fill-rule:evenodd"/><polygon points="78.99 115.93 78.54 114.44 78.99 115.78 78.99 115.93 78.99 115.93" style="fill:#e03a3e;fill-rule:evenodd"/><path d="M169.81,115.34v.45c-.6.3-.45-.75-.6-1.2.3.15.6.3.6.75Z" style="fill:#e03a3e;fill-rule:evenodd"/><path d="M107.81,117a2.89,2.89,0,0,0,0,1.95c-.9-.6-.9-2.85-1.2-4,1.05,0,.75,1.35,1.2,2.1Z" style="fill:#e03a3e;fill-rule:evenodd"/><path d="M162.75,116.23c-.15,0-.3.3-.45.15l.15-1.5c.75,0,.3.9.3,1.35Z" style="fill:#e03a3e;fill-rule:evenodd"/><path d="M171.31,115.78c-.3.15-.45.3-.75.3l-.15-.9.9.6Z" style="fill:#e03a3e;fill-rule:evenodd"/><path d="M164.1,115.93a.32.32,0,0,1-.3.3l-.15-.6c.15-.15.3.15.45.3Z" style="fill:#e03a3e;fill-rule:evenodd"/><path d="M117.72,118.78c-.6-1-1.65-2.1-1.8-3a5.26,5.26,0,0,1,1.8,3Z" style="fill:#e03a3e;fill-rule:evenodd"/><path d="M173.26,116.08c.3.3.15.9.15,1.35h-.6c.3-.6-.6-1.35.45-1.35Z" style="fill:#e03a3e;fill-rule:evenodd"/><polygon points="165.15 116.38 164.85 116.23 165.15 116.23 165.15 116.38 165.15 116.38" style="fill:#e03a3e;fill-rule:evenodd"/><path d="M172.21,116.53c0,.3-.3.3-.3.45-.3,0-.3,0-.3-.15s.3-.45.6-.3Z" style="fill:#e03a3e;fill-rule:evenodd"/><path d="M79.29,121l-.3-.3v-3.45a7.82,7.82,0,0,1,.3,3.75Z" style="fill:#e03a3e;fill-rule:evenodd"/><path d="M169.51,118.63c0,1.5.3,3.3-.3,4.5-.3-1.35,0-3.3-.9-4.5.3-.6.9-.3,1.2,0Z" style="fill:#e03a3e;fill-rule:evenodd"/><path d="M170.56,121.93l-.15.15-.45-3.45c1.35.6.6,2.4.6,3.3Z" style="fill:#e03a3e;fill-rule:evenodd"/><path d="M172.36,120l-.75,1-.15-1.5c.3.15.75,0,.9.45Z" style="fill:#e03a3e;fill-rule:evenodd"/><path d="M155.7,121.93c-.6.15-.15.75-.45.9l.15-1.5c.3,0,.15.45.3.6Z" style="fill:#231f20;fill-rule:evenodd"/></svg>