<svg xmlns="http://www.w3.org/2000/svg" viewBox="0 0 250 250"><defs><style>.a{fill:#423b3c;}.b{fill:#006a56;}.c{fill:#ff5635;}.d{fill:#fff;}.e{fill:#030000;}.f{fill:#050001;}.g{fill:#029dd6;}.h{fill:#b1dd48;}.i{fill:#f3a036;}</style></defs><title>Fast Food</title><path class="a" d="M240.82,144,11.64,147.47l-4.57-43.7,236.35-5.64Z"/><path class="b" d="M240.34,143,11.15,146.47l-4.57-43.7,236.35-5.64Z"/><path class="a" d="M105.2,139.89l4.33,13.83,56-4.12.38-13.6-60.73,3.88Z"/><path class="c" d="M104.51,139.11l4.33,13.83,56-4.12.38-13.6-60.73,3.88Z"/><path class="d" d="M112.35,141.35l3.54-.21a3.79,3.79,0,0,1,2.66.46,2.22,2.22,0,0,1,1,1.71,2.41,2.41,0,0,1-1.78,2.59,7.69,7.69,0,0,1-1.77.26l-.66,0,.16,2.78-2.66.15-.46-7.79Zm3.35,3.38c1-.06,1.35-.38,1.31-1.14s-.4-1-1.52-1l-.39,0,.12,2.1Zm6.47-4,2.73-.16.46,7.79-2.73.16-.46-7.79Zm10.5,1.24-4.07.24-.11-1.85,8.35-.49-3.64,6.16,3.84-.22.11,1.86-8.1.48,3.61-6.17Zm11.38-.67-4.07.24-.11-1.85,8.35-.49-3.64,6.16,3.84-.23.11,1.86-8.1.48,3.61-6.17Zm10.54-2.48,2.86-.17,4.06,7.58-2.71.16-.59-1.24-3.55.21-.44,1.3-2.67.16,3.05-8Zm3,5-1.43-3-1,3.16,2.44-.15Z"/><path class="e" d="M16.05,107.84h6.33c3.55,0,4.85.35,6.33,1.72a9.23,9.23,0,0,1,2.58,6.88c0,3.27-1.34,5.56-3.92,6.88a7.47,7.47,0,0,1,2,3.62c.34,1,.59,2,1.48,5.56l.48,1.85c.45,1.76.52,2.08.86,3.13l.17.49H26.76l-.24-1.19-1-4.46c-1.07-4.77-1.65-6.35-2.55-6.8a2.77,2.77,0,0,0-1.51-.26V138H16.05V107.84ZM22.25,120c2.82,0,3.72-.84,3.72-3.53s-.83-3.4-3.75-3.4h-.79V120ZM40,117c4.58,0,7.71,4.5,7.71,11.08,0,6.14-3.27,10.68-7.71,10.68s-7.71-4.54-7.71-10.68c0-6.57,3.17-11.08,7.71-11.08Zm0,17.12c1.69,0,2.55-2,2.55-6,0-4.5-.76-6.44-2.55-6.44s-2.51,1.94-2.51,6.44C37.49,132.07,38.31,134.1,40,134.1Zm19.17,1.32H59.1c-1.34,2.16-2.51,3-4.23,3-2.75,0-4.65-1.94-5.13-5.21a23.16,23.16,0,0,1-.21-4.1V117.59h5v10.24c0,4.94.31,5.82,1.93,5.82,1.38,0,2.34-1.1,2.75-3.22V117.59h5V138h-5v-2.56Zm7.6-17.83h5v2.87h.07c1.14-2.25,2.58-3.27,4.47-3.27a4.59,4.59,0,0,1,4.27,3,12.46,12.46,0,0,1,.76,5V138h-5V127.17c0-4.19-.38-5.25-1.93-5.25q-1.76,0-2.68,3.18V138h-5V117.59ZM93.61,136c-1.48,1.72-2.75,2.43-4.34,2.43-3.44,0-6.09-4.5-6.09-10.42,0-6.35,2.55-10.77,6.16-10.77,1.62,0,2.65.53,4.27,2.25V109.9h5V138h-5v-2Zm0-12.22c-1-1.23-1.58-1.68-2.51-1.68-1.76,0-2.75,2.07-2.75,5.87,0,3.62,1,5.69,2.62,5.69,1,0,1.82-.66,2.65-2.12v-7.77Zm76.08-10.63h-5.37v-5.25h16v5.25h-5.23V138h-5.37Zm23.47,23.35c-1.76,1.32-2.93,1.9-4.06,1.9-1.55,0-2.38-.88-2.62-2.82-1.69,2.08-2.93,2.87-4.61,2.87-2.27,0-4.06-2.25-4.06-5,0-3,1.58-5,5.44-7,1-.49,1.55-.75,3-1.37v-.71c0-1.94-.59-2.78-2-2.78-1.69,0-3.27.88-5.37,3.09V120a8.89,8.89,0,0,1,6.47-2.78c3.13,0,5.06,1.28,5.64,3.71a12.09,12.09,0,0,1,.24,3.27v7.19c0,1.94.07,2.21.48,2.21a2.74,2.74,0,0,0,1.44-.84v3.71h0Zm-6.88-8.61c-3.24,1.68-4,2.43-4,4.06,0,1.37.65,2.21,1.72,2.21.76,0,1.17-.26,2.27-1.37v-4.9h0Zm8.54-17.93h5v8.66a5.59,5.59,0,0,1,3.78-1.37c3.68,0,6.54,4.5,6.54,10.28,0,6.22-2.79,10.68-6.64,10.68a4.47,4.47,0,0,1-3.68-1.94V138h-5Zm5,21.68a3.07,3.07,0,0,0,2.44,1.85c1.76,0,2.68-2,2.68-5.82,0-3.62-1.1-5.87-2.86-5.87a3,3,0,0,0-2.27,1.32Zm12.35-21.68h5V138h-5Zm20.11,26.45a9.16,9.16,0,0,1-5.89,2c-4.48,0-7.3-3.93-7.3-10.15s3-11,7-11c3.1,0,5.44,2.43,6.19,6.49a22.58,22.58,0,0,1,.45,5.07h-8.6c.24,3.53,1.65,5.43,4.06,5.43a6.9,6.9,0,0,0,4.13-1.63v3.8Zm-4.17-10.5c0-3.31-.65-5-1.89-5s-2,1.54-2.1,5h4Z"/><path class="d" d="M17.44,106.45h6.33c3.55,0,4.85.35,6.33,1.72a9.22,9.22,0,0,1,2.58,6.88c0,3.27-1.34,5.56-3.92,6.88a7.45,7.45,0,0,1,2,3.62c.34,1,.59,2,1.48,5.56l.48,1.85c.45,1.76.52,2.08.86,3.13l.17.49H28.15l-.24-1.19-1-4.46c-1.07-4.77-1.65-6.35-2.55-6.8a2.77,2.77,0,0,0-1.51-.26v12.71H17.44V106.45Zm6.2,12.18c2.82,0,3.72-.84,3.72-3.53s-.83-3.4-3.75-3.4h-.79v6.93h.83Zm17.75-3c4.58,0,7.71,4.5,7.71,11.08,0,6.14-3.27,10.68-7.71,10.68s-7.71-4.54-7.71-10.68C33.68,120.09,36.85,115.59,41.39,115.59Zm0,17.12c1.69,0,2.55-2,2.55-6,0-4.5-.76-6.44-2.55-6.44s-2.51,1.94-2.51,6.44C38.88,130.68,39.7,132.71,41.39,132.71ZM60.56,134h-.07c-1.34,2.16-2.51,3-4.23,3-2.75,0-4.65-1.94-5.13-5.21a23.18,23.18,0,0,1-.21-4.1V116.2h5v10.24c0,4.94.31,5.83,1.93,5.83,1.38,0,2.34-1.1,2.75-3.22V116.2h5v20.39h-5V134Zm7.6-17.83h5v2.87h.07c1.14-2.25,2.58-3.27,4.47-3.27a4.58,4.58,0,0,1,4.27,3,12.45,12.45,0,0,1,.76,5v12.75h-5V125.78c0-4.19-.38-5.25-1.93-5.25q-1.76,0-2.68,3.18v12.89h-5V116.2h0ZM95,134.56c-1.48,1.72-2.75,2.43-4.34,2.43-3.44,0-6.09-4.5-6.09-10.42,0-6.35,2.55-10.77,6.16-10.77,1.62,0,2.65.53,4.27,2.25v-9.55h5v28.08H95Zm0-12.22c-1-1.23-1.58-1.68-2.51-1.68-1.76,0-2.75,2.07-2.75,5.87,0,3.62,1,5.69,2.62,5.69,1,0,1.82-.66,2.65-2.12v-7.77h0Zm76.08-10.64h-5.37v-5.25h16v5.25h-5.23v24.89h-5.37V111.7ZM194.56,135c-1.76,1.32-2.93,1.9-4.06,1.9-1.55,0-2.38-.88-2.62-2.82-1.69,2.07-2.93,2.87-4.61,2.87-2.27,0-4.06-2.25-4.06-5,0-3,1.58-5,5.44-7,1-.49,1.55-.75,3-1.37v-.71c0-1.94-.58-2.78-2-2.78-1.69,0-3.27.88-5.37,3.09v-4.63a8.89,8.89,0,0,1,6.47-2.78c3.13,0,5.06,1.28,5.64,3.71a12.09,12.09,0,0,1,.24,3.27V130c0,1.94.07,2.21.48,2.21a2.73,2.73,0,0,0,1.44-.84V135h0Zm-6.88-8.61c-3.23,1.68-4,2.43-4,4.06,0,1.37.65,2.21,1.72,2.21.76,0,1.17-.26,2.27-1.37v-4.9h0Zm8.54-17.93h5v8.66a5.58,5.58,0,0,1,3.78-1.37c3.68,0,6.54,4.5,6.54,10.28,0,6.22-2.79,10.68-6.64,10.68a4.47,4.47,0,0,1-3.68-1.94v1.77h-5Zm5,21.68a3.07,3.07,0,0,0,2.44,1.85c1.76,0,2.68-2,2.68-5.82,0-3.62-1.1-5.87-2.86-5.87a3,3,0,0,0-2.27,1.32Zm12.35-21.68h5v28.08h-5ZM233.67,135a9.15,9.15,0,0,1-5.89,2c-4.47,0-7.3-3.93-7.3-10.15s3-11,7-11c3.1,0,5.44,2.43,6.2,6.49a22.61,22.61,0,0,1,.45,5.08h-8.6c.24,3.53,1.65,5.43,4.06,5.43a6.9,6.9,0,0,0,4.13-1.63V135Zm-4.16-10.5c0-3.31-.65-5-1.89-5s-2,1.54-2.1,5h4Z"/><path class="f" d="M119.19,134l6.88-11.11-4.18-19.28-17.7,3.83,4.18,19.28L119.19,134Zm25.59-8.47,8.55,9.68L158.91,106l-19.18-3.73-5.78,29.7,10.84-6.37Z"/><path d="M121.63,97.94v20c.75,5.12,4.9,9.27,10,9.28a9.27,9.27,0,0,0,9.28-9.27h0v-20Z"/><path class="g" d="M120.58,132.64l-6.18-28.46-8.82,1.91,4.18,19.28,10.82,7.27Z"/><path class="h" d="M118.58,123.42l2,9.22,6.89-11.11-2-9.21Z"/><path class="i" d="M116.58,114.17l2,9.25,6.89-11.1-2-9.28Z"/><path class="c" d="M116.58,114.17,123.46,103l.12-.84-9.17,2,2.17,10Z"/><path class="h" d="M146.66,124.71,150.89,103l-9.53-1.86-5.88,30.18,11.17-6.59Z"/><path class="g" d="M156.8,124.73l-1.83,9.4-8.3-9.42,1.83-9.39,8.3,9.41Z"/><path class="i" d="M158.72,114.85l-1.92,9.88-8.3-9.41,1.93-9.93,8.3,9.46Z"/><path class="c" d="M160.55,104.86l-1.83,10-8.3-9.46.47-2.42,9.65,1.88Zm-27.83-8.58h-9.28v20a9.27,9.27,0,0,0,9.27,9.28h0Z"/><path class="i" d="M139.66,122.39a9.27,9.27,0,0,1-7,3.14V115.6l7,6.78Z"/><path class="g" d="M132.7,106.7v8.9l7,6.78a9.28,9.28,0,0,0,2.32-6.12v-.57l-9.28-9Z"/><path class="i" d="M142,106.38v9.31l-9.28-9V97.35Z"/><path class="g" d="M142,96.28v10.09l-9.28-9V96.28Z"/><path class="d" d="M236.67,136.48h-.29v-1.36h.51c.35,0,.56.1.56.41a.32.32,0,0,1-.33.36l.35.6h-.34l-.31-.57h-.14Zm.26-.8c.13,0,.21,0,.21-.18s-.15-.15-.26-.15h-.2v.33Zm0,1.39a1.27,1.27,0,1,1,1.27-1.27A1.23,1.23,0,0,1,236.88,137.07Zm0-2.24a1,1,0,0,0,0,1.94h0a1,1,0,0,0,0-2Z"/></svg>