<svg xmlns="http://www.w3.org/2000/svg" viewBox="0 0 250 250"><defs><style>.a{fill:#5baa46;}.b{fill:#ba664b;}</style></defs><title>Fast Casual</title><polyline class="a" points="204.86 95.55 203.89 95.36 203.31 95.36 202.74 95.75 202.34 95.94 201.76 96.13 201.18 96.13 200.61 96.51 200.02 96.51 198.86 96.9 197.7 96.9 196.74 98.06 196.16 98.44 196.35 99.02 196.93 99.21 196.74 99.79 196.74 100.17 196.54 100.56 197.12 101.33 197.12 102.48 197.51 102.87 197.7 103.06 198.28 103.83 198.48 104.22 198.48 104.41 199.25 104.98 199.63 105.37 200.02 105.95 200.41 106.33 200.61 106.91 200.99 107.29 201.38 107.87 201.38 108.06 201.57 108.64 201.38 109.02 200.99 109.41 200.99 109.8 200.79 110.18 200.61 110.56 200.22 110.95 200.61 112.1 201.18 112.68 201.38 113.26 201.96 113.65 202.74 113.65 203.31 113.26 204.28 113.07 204.86 112.49 205.63 111.91 206.21 111.53 206.4 111.14 206.6 110.76 206.79 110.37 206.98 109.99 206.98 109.6 207.18 109.22 207.57 108.83 207.76 108.45 208.15 108.26 208.15 107.68 208.53 107.29 208.34 106.72 208.73 106.33 208.53 105.95 208.53 104.8 208.34 104.41 208.34 104.02 208.53 103.64 208.53 102.68 207.96 102.29 207.96 101.91 207.57 101.52 207.57 100.75 207.38 100.17 206.79 99.4 206.6 98.63 206.21 98.06 206.02 97.29 205.63 96.51 205.44 95.75"/><path class="a" d="M160,142.13v.19l.2.39-.2.19v.19c0,.39-.19.58-.19.77l.19.77v1.73l.2.58c0,.39-.58.77,0,.77v.39c0,.77-.2,1.54-.2,2.12.2.19-2.13,0-2.7-.19-1.74.39-3.87,0-5,.19H147.4l-.57-.39-.2-.19a18.11,18.11,0,0,1,0-3.27,15.93,15.93,0,0,1,0-3.08c.38-.58,0-1,0-1.54v-6.16c-.2-.19-.2-.39-.2-.77,0-1.16.78-3.27.78-4l-.38-.19-.39-.38c0-1,.39-2.12.39-3.28v-.77L147,126s-.38-1-.19-1.35v-1.34h.77a4.19,4.19,0,0,0,1.16.19c.77,0,3.1.19,3.48.19h7.55l.19.2.2.38a3.64,3.64,0,0,1,.78,1.92c.19.58.19,1.35.38,2.31v1.34l.39,1.35c-.39,0-.2.77-.2.77v1.73l-.38.58-.39,1.35v.77a13,13,0,0,0-.38,2.5l-.58.77-.2.39a1.88,1.88,0,0,1,.39,1.15v.77"/><path class="a" d="M197.7,115.19l.38,1,.58,1,.39,1.16.39,1.15.77.77.39,1.16-.19,1.15.38,1.93v1.92l.39,1v1l.2.77L201,130.2v2.69l-.2,1.73.2,1-.78,1-.19,1.73v.58l.19,1.35-.58.77-.19,1.92-.2,1.73L197.7,146l-1.16.39-1.16.58-1.36.19-.77,1.15-1.16.58-1.36.19-1,.77h-1.35l-1.35.19h-1.36l-1.35.19-1.36.38-1.35-.58h-3.87l-1.35-.39-1.16-.58-1-1-1.16-.58-1-.77-.77-.77-1-1.16-.58-1.35v-3.85l-1-1.92v-.77l.39-1.16-.39-1v-.38l.2-.77V132.5l-.39-1.34.39-2.31.2-1.15.77-1.15V124l.39-2.51-.19-1,.38-.77L171,119l.2-.58-.2-1.16,1-1,1.16-.77,1.55-1.35.38-.19.78-1h1.55l1.35-.77,3.29-.2,1.74.39,1.55.19h3.29l1.55.77,1.55.19,1.55.19,1.55.58,1.55.19M188,121.53l-1.17.58h-1.36l-1.35-.19-2.71.77-1.35.77-.38,1-.2,1-.38,1v1.16l.58,1,.19.58v3.66l-.39.77.2,1-.2,1.34v1.35l.58,1,.58,1.35,1,1,1,.58,1,1.15,1.35-.38,1.16-.19,1.16.19,1-.58.78-.58-.2-1.35.2-1.16-.2-1.16.39-1.35.2-1.15.39-1.16-.58-1.16.78-1.35-.58-1.16.39-1.16-.19-2.5-.39-1.16-.57-1.35.19-1.15Z"/><path class="a" d="M219.76,144.82l.38-.19c.38.58,1.93.19,2.13.58l1.36-.39.58-1.15h.39c.38-.58.19-1.35.38-1.73l-.19-1.54c0-.38-.19-.77-.19-1.15,0-.19,0-.77-.39-.58,0-.39-.19-.77-.19-1.15a8.5,8.5,0,0,1-1.74-1.35l-.38-.77c-.39,0-.39-.58-.39-.58a5.9,5.9,0,0,0-1.36-1,8,8,0,0,0-1.35-1l-.38-.19-.78-.19a2.6,2.6,0,0,0-.58-.77l-.58-.58-.39-.39-.38-.58c-.58-.77-1.36-1.35-1.94-2.12l-1-1c-.58-.2-.39-.58-.58-.77-.19-.38-.77-1.16-1-1.16,0,0-.38-.58-.58-1v.2l-.38-.2V124c0-.2-.2-.2-.2-.58v-.39l-.19-.58-.58-1.15a9.38,9.38,0,0,0-.58-1.35v-.58a17.57,17.57,0,0,1-.19-3.08,2.56,2.56,0,0,1,.19-1c.2-.38.39,0,0-.38v-.38c0-.39.58-.77.78-1.35l-.2-.38a1.43,1.43,0,0,1,1-1.16,4.05,4.05,0,0,1,.78-1.15,7.18,7.18,0,0,1,2.13-2.11,8.2,8.2,0,0,1,1.74-1.16c0-.39.58-.39.78-.58l.77-.39.38-.19.39-.2.58-.39a1.45,1.45,0,0,1,1-.19h.39c.38,0,.58-.19,1-.19l.58-.2c.39.2.78,0,1.16,0a7.93,7.93,0,0,1,2.13,0c.39,0,.58.38,1,.38l.2-.38c.77.2,1.74.38,2.7.58a3.67,3.67,0,0,1,1.55.39l.39-.19.38.39c.38,0,1.93.38,1.93.58h.2l1.55.58a11.25,11.25,0,0,1,1.35.77h.39l.58.2v.58l-.38.77c.2,0-.38,2.12-.77,2.12.39,0,0,3.66.58,3.08a6.93,6.93,0,0,0-1.16,3.47l-.78-.39a4.38,4.38,0,0,0-1.55-.19,10.74,10.74,0,0,0-3.68-1.35l-.38-.19c-.77-.19-1.74-1.16-2.51-1.35-.58,0-1.74,1.16-1.93,1-.39.39-1,2.31-.39,2.12-.38,1,0,1.93,1,1.93a4.28,4.28,0,0,0,1.94,1.73c.58.58,1.74,2.12,2.51,1.93l.2.19a3.9,3.9,0,0,0,1.35,1.93,1.42,1.42,0,0,0,.2.77c.19.58.19,0,.58.2.39.38.78.58,1,.77.57.77,1.93,1.93,1.74,1.93a1,1,0,0,1,.39.77,12.61,12.61,0,0,0,.58,2.88l.39,1,.19.19v.58a7.54,7.54,0,0,1-.19,1.73,6.59,6.59,0,0,1,.19,1.92l.58,1a1.76,1.76,0,0,1-.19,1v.38a2.88,2.88,0,0,1,.19,1.35,2.11,2.11,0,0,1-.19,1v1.54c0,.38.19.77,0,1v.38a4.24,4.24,0,0,1,.19,1.15l.2.39v1l-.2.38c-.19.77-.19,1.54-.58,1.92a9.55,9.55,0,0,1-.39,2.31,2.06,2.06,0,0,1-.2,1c.58,0,.39.19.2.39l-.2,1.73c-.38.39-.19-.77-.38-.39-.19,0-.39.39-.58.77l.19.19-.19.19v.58l-.19.39c-.39.39-.39.77-1,1.16l-.77-.39-.39.19c-.2.38-.39.38-.58.58-.2,0-.38.19-.78.39-.19,0-.38.19-.77.39h-.78l-.38-.19-.2.19c-.38.19-.58.39-.77.39l-.38.39h-.78l-.39-.19H225l-.58.19-.77-.19H223c-.39.19-.78,0-1.16,0a12,12,0,0,0-2.71-.19v-.19h-.58l-.19.19L218,160l-.19.19-.58-.19-1.74-.19-.39.19-1.55-.19c-.39-.19-1-.19-1.55-.38l-.39.19-.57-.19-.58-.19a2.46,2.46,0,0,1-1.16-.19,16.81,16.81,0,0,1-3.1-1.73l-.38-.38-.39-1v-.77c0-.58.78-1.35.78-1.73.19-.19.77-.39.77-.77l-.19-.77c.39,0,.58-1.15.58-1.15a10.28,10.28,0,0,0,.58-1.35c0-.38.58.77.38,0v-1c.19-.38.38-.58.38-1l.39-.19h.39c-.2-.19-.58-.39-.58-.77s.38-.58.58-1l.19-.58c.39-.38.39-.58.39-.58l.2-.39c.38,0,.58-.38.78-.38h.38l.39.19-.2.19H212a1.17,1.17,0,0,0,.77-.19,8.64,8.64,0,0,1,2.51.58,2.67,2.67,0,0,1,1.74,0l.38.38,1.36.19.39.19.58-.39"/><path class="a" d="M68.09,148.86l-1.93-.58a4.36,4.36,0,0,0-1-.58,32.12,32.12,0,0,1-3.48-1c-.39-.19-1-.38-1.36-.58v-1c-.2-1-.38-1.73-.58-2.5a2.46,2.46,0,0,0-.19-1.15v-.77a6.1,6.1,0,0,0-.2-1.35v-.77l-.2-1.73c0-1.93.2-4.23.2-5l-.2-.19-.38-.39a14.83,14.83,0,0,0-.39-2.88,4.69,4.69,0,0,0,0-2.31V125l.19-.19-.19-.77a2.47,2.47,0,0,1-.19-1.16v-.39l-.19-.19v-.2l.19-.58-.19-.77-.2-.77v-1.34l.2-.2-.2-1.73v-.58c.2.19.2-.19-.2-.58,0,0,.2-1.92.2-2.5a22.87,22.87,0,0,1,0-3.66c.39.19,1.16-.2,1.93-.2h1.36l.58.2c.38,0,.77-.77,1.15-.77l1,.58.2.2c.39,0,.58.19,1,.19h4.84a2.93,2.93,0,0,1,1.16-.19c.58.38,1,1.73,1.16,2.3v.58a7.67,7.67,0,0,0,.57,4c-.77,0-.38,4.43-.77,4.24.39,1.54.77,1.54.77,2.12.2.77-.19,2.5.39,3.66a1.12,1.12,0,0,0,0,1.35,23.06,23.06,0,0,0-.2,3.27c0,1.35,0,2.31.58,3.08,0,.58,0,0,.58.2,1.16,1.35,3.68,1.54,3.68,1.54l1.55-.58v-.58l.39-.19.19-.39.39-.77c0-.39.2-.58.2-1a40.77,40.77,0,0,0-.58-4.43v-1c0-.38.19-.38.19-.58a6.64,6.64,0,0,0,.2-1.16c0-1.54-.2-3.27-.2-4.8L79.89,119a7.54,7.54,0,0,0,0-2.11V115l-.58-1.35V109h1.16l.38-.19-.19.38h.78l.19-.2c.2-.38,1.16,0,1.16-.19l.39-.19,1.35-.19.39.19a3.88,3.88,0,0,1,1.55-.19l.58-.2.2.2H88.8a44.51,44.51,0,0,1,4.64.38l.19.19h.2c0,.39.58.77.58,1.54,0,1-.58,2.31.39,3.66-1,.2-.77,3.27,0,3.08-.77,1.16-.19,1.35-.19,1.35.19,1-.58,1.73-.39,2.69,0,1,.78,1.73.78,2.7s-.2,1.92-.2,3.08v3.46A17.17,17.17,0,0,1,93.24,136c.2,1.35-.19,5.39.2,5.58a16.48,16.48,0,0,0-.78,2.12,6.25,6.25,0,0,1-1.16,1.15c-.38.39-1,1.16-1.15,1.16,0,.19-1.55.19-2.51.58a8.05,8.05,0,0,0-2.91,2.12l-.58.19a24,24,0,0,0-3.86.38c-.58.19-1.36,1-1.74,1a3.31,3.31,0,0,1-1.35.19,8.72,8.72,0,0,1-2.32-.19,7.88,7.88,0,0,0-2.13,0A8,8,0,0,1,71,150l-.39-.19-.77-.39-1-.19Z"/><polyline class="b" points="187.25 160.99 186.87 161.37 187.84 161.18 187.25 160.99"/><path class="a" d="M160.37,94.4a6,6,0,0,1,6.77-.2c-2.52.2-.78,2.88-1.36,5.39l.39.38c.57,1.34.38,2.12.77,3.46l.2.58c1.35,1.35,2.32,3.08,4.45,1.35a6.46,6.46,0,0,1-6,5l-.2.38c-.78,1.16-1.55,1.54-1.93,2.31,1.55,2.3,0,6.16-1.94,8.08.78-1.54-1.55-2.12-3.28-3.27l-1.16-1.15a4,4,0,0,1-2.51-.2,4,4,0,0,1-6.39,1.16c-2.32-2.31-4.06-.39-4.84.19-.19-3.08,1.36-5,2.71-5.38l-.2-.58A10.55,10.55,0,0,1,144.7,110c-1-.39-1.74-1.16-2.71-1.35-1.16,0-2.32,1.54-2.32,1.54-.58-4.23,1.74-7.5,5.22-7.31l.77-1.92c-.77-1.73.58-3.65-2.71-3.65,1.16-3.08,5.42-3.27,7.93-1.16v-.19l.19.19h1l.57.38.39-.19.19.19.2.19h.77l.2.2H155l.19.39c.39.19.39,0,.77.19l.38.19.2.19.2.2.19.19.39.2.39.39L158,99l.2.19h.19l.39.39H159V100l.39.38.77,1,.39.77a6.86,6.86,0,0,0,.58,1.16l-.19.19.19.19h.19V104l-.38.2v.19h.38a3.77,3.77,0,0,1-.19,2.5v.77H161l-.2.2-.2.58-.58.19v.19h-.19V109a2.62,2.62,0,0,1-.78.58l-.39.19v.2h-.2l-.58.38v-.2a2.7,2.7,0,0,1-1.15.39l-.39.19h-.38l-.38.2h-.2l-.38.19a3.37,3.37,0,0,1-1.35-.19,2.74,2.74,0,0,1-1.16-.39l-.38-.19h-.2c-.39-.2-.58-.58-1-.77a2.77,2.77,0,0,0-.78-.58l-.19-.57h-.2l-.2-1c-.39.2-.58-.38-.19-.19-.39-.19-.58-1.54-.78-1.35l.19-1.35.19-.19.2-.58.2-.38a4.08,4.08,0,0,1,1-.77v-.39h.2l.57-.19a3.29,3.29,0,0,1,1.36-.2l.58.58.19-.38.2.58.58.19c.19,0,.39.19.58.58,0,.19.19-.39,0,.19.19-.38.39,0,.39,0,0,.19.38.58.38,1a1.93,1.93,0,0,1-.19.77l.19.39-.19.19c0,.39,0,.2-.19.2h0l.19.19c0,.39-.78.57-1.16.39h-.2v-.19l-.38.19-.38.19h-.2l-.39.2.19-.38-.38-.19-.38-.58-.39-.19a1.38,1.38,0,0,1-.19-1.73l-.2.2-.19.38-.2.19V105c0,.38,0,.77-.19.77v.39a1,1,0,0,0,.38.77c-.2,0-.2.39.19,0-.39.58,0,.77,0,.39a.51.51,0,0,0,.58.58,3.89,3.89,0,0,0,1.55.77l-.19.19.58-.19a8.45,8.45,0,0,1,1,.19h1.16l.39.19h.19l.2-.19v-.19h.58l.39-.58.2-.19.38-.39.2-.19a3,3,0,0,0,.58-2.69v-.38c0-.39.19-.39,0-.77l-.39-.19a10.57,10.57,0,0,1-.58-1.35l-.38-.77-.19-.39-.2.19-.38-.58c-.39-.38-.58-.77-1-1l-.39-.2H155l-.39-.19s-1.36-.19-1.55-.58c.19.39-1.16,0-1.36.39l-.19-.2-.39.58c0-.58-1.16,0-.19.2h-1a9.21,9.21,0,0,0-1.55,1.35h-.2v-.19l-.2.19-.39.39c-.19.38-.38.57-.58,1l-.19.19H147l-.19.19h-.2l-.2.38-.19.19.19.2v.19a5.65,5.65,0,0,0-.38,1.73,1.26,1.26,0,0,0-.2,1.15l.2.39a.84.84,0,0,0-.2,1l.39.58-.19.2a4.64,4.64,0,0,0,1.35,2.3,8.48,8.48,0,0,0,1.16,1.35l.19.2-.19.38h.19l.39.39a3.51,3.51,0,0,0,1.36,1l.57-.19.2.38.38-.38h1l.58.38H154v.2l.58-.38h.19v.19h.39V114h.39c.77,0,1.55.38,2.13-.19v-.19h-.2l1.16-.58a2.45,2.45,0,0,0,1.16-.19l.19-.2,1-.77c.19-.2.38.19.57-.2a8.59,8.59,0,0,0,1.16-1.73l.58-.2-.2.2.39-.2c0-.19.19-.19.19-.58l.39-.77.19-.2H164l.19-.38h.2l.19-.39v-.38l-.19-.2h-.2v-1.73l.2-.2-.2-.19v-1.93a1.22,1.22,0,0,0,0-1.16,2.67,2.67,0,0,0-.58-.77c-.39-.38-.58-1-.39-1-.38-.2-.77-.38-.77-.78V99l-.19-.19a2.71,2.71,0,0,0-1.16-1.35l-.19-.19-.2-.2-.38-.19v-.2l-.2.2v-.2l-.38-.19-.58-.38h-.78l-.58-.19h-.77l-.2-.2-.19.2-.39-.2h-.19c-.2,0,0-.19-.39-.19h-1a3.93,3.93,0,0,1-1.16-.77c-1.36-1.35-.39-3.08,1-2.89-.78.39.19,2.12,1.55,2.31h1a5,5,0,0,1,2.32-.2c.39.2.58.2,1,.39"/><path class="a" d="M138.5,130.2v-1.74a2.16,2.16,0,0,0,0-1.16,23.5,23.5,0,0,0-.19-3.46c-.19-1.16-.38-2.31-.58-3.46a2.4,2.4,0,0,0-.2-1.16c.58,0-.19-1.35-.58-1.54a3.08,3.08,0,0,0-.38-1l.2-.2-.2-.19c0-.77-.19-.77-.19-.77a3.67,3.67,0,0,0-1.55-1l-.58-.39c-.2-.19-.58-.19-1-.38a4,4,0,0,1-1.16-.77c-.2,0-.58-.39-1-.39l-.39.2c-.19-.38-.38-.58-.77-.58l-.58-.2-1.16-.19a36.28,36.28,0,0,1-4.06-.77l-1.74-.19h-.19l-.2-.2c-.77-.58-.58.2-1.35,0-.58-.19-1.36-.19-1.94-.38l-2.32-.58c-.39-.19-.58-.19-1-.38a14.64,14.64,0,0,0,.38-3.85c0-.77-.2-1.34-.2-2.11a2.9,2.9,0,0,0-.19-1.54A14.5,14.5,0,0,1,115.1,99c.2-.58,0-1.35.2-1.93.2-.77.39-3.08.58-3.08,0,0,.19.2.19-.19a15.57,15.57,0,0,0,.39-2.51,3.71,3.71,0,0,0-1-2.3c-1.74-.2-3.29-.2-4.45-.38h-2.32a2.51,2.51,0,0,0-1.55.38l-.57-.2-1.16.2h-.58c0,.38-1,0-1.16.38-.39,0-.58.19-1,.58l-.38.38v.19a46.38,46.38,0,0,1,.19,5.2c0,1,.19,3.85-.19,4.62-.2.58.19,1.34.19,2.12v1.92c-.77,0,0,1.15,0,1.93v5.58l.19.77c0,1.93-.77,5.2-.77,6.16l.2.19a.86.86,0,0,1,.58.77c0,1.54-.38,3.27-.38,4.81v7.51a40.93,40.93,0,0,1,.38,4.81c0,.39-.19.77-.58.77v1.54a40.43,40.43,0,0,1,.58,4.81v.58a2.44,2.44,0,0,0,.39,1.15,13.56,13.56,0,0,0,3.87,1.54,10.36,10.36,0,0,0,2.51.19l1.55.58h1.16a4.29,4.29,0,0,0,1.55-.19,15.59,15.59,0,0,0,5,.39c.39.19.58.38,1,.38.39.19,1,0,1.36,0s.77.39,1.16.39l.77-.19.2-.77c.39-.19,1.93,0,2.32-.19.2-.19,1.16-.19,1.74-.39l.38-.19.78-.39.77-.58.2-.19.38-.19h.38l1.55-.77c.39-.19.58-.58,1-.77,0,.19.19,0,.19-.39l.78-.58c.58-.39.39-2.12,1.16-2.12A19.87,19.87,0,0,0,137,137.7l.2-.58.2-.39a7,7,0,0,0,.38-2.12c.2.2.77-1.54.77-1.92s.2-1,.2-1.35S138.5,130.58,138.5,130.2Zm-7.34-2.7v1h-.39V129l.2.2A8.82,8.82,0,0,1,129,132.7c-.2,0-.58.77-1,1.16a3.27,3.27,0,0,1-1.93.58,14.8,14.8,0,0,1-3.1.77v.19l-.38.38h-.2l-.58-.19-.39-.19H119c-.39,0-1.36-.19-1.16-.39,0,0-.77-.77-.58-1.15-.39.19.2-2.51.58-3.27-.39-.38,0-2.5.2-2.89-.2-.77-.39-3.08-.58-4.42.39-.58.58-2.5.77-2.31,0-.38.77-.38.77-.57a5.67,5.67,0,0,1,1.93-.58,13.48,13.48,0,0,0,1.36.39,1.74,1.74,0,0,1,1,.19h.19a2,2,0,0,1,1.16.38c.58.19,1.36.38,2.13.58a15.45,15.45,0,0,1,2.51,1.34l.58-.19.2.19a20.06,20.06,0,0,1,1.55,2.89,2.37,2.37,0,0,1-.2,1.15C131.73,126.73,131.35,127.12,131.16,127.5Z"/><path class="a" d="M53.39,156.94l-.78-.19c0-1,.39-.38-.19-1.54a8.17,8.17,0,0,1-.77-3.27c-.2-2.88-.39-4.62-.39-8.08a40.65,40.65,0,0,1,.39-6.93,19.53,19.53,0,0,1-.2-3.27c-.58-2.31-1.55-4.42-1.74-5.39-.39-1-.58-1.73-1-2.69a9.66,9.66,0,0,1-.39-2.51A16.88,16.88,0,0,0,46.43,120a5.11,5.11,0,0,1-1.55-1.34c-.58-.77-1.16-.77-1.55-1.54,1.36-.19,2.32-1.15,3.68-2.5.58-.58,2.51-4.62,2.9-4.62s.39-1.93.77-3.08v-2.11c.2,0,.2-.77,0-1.35a23.71,23.71,0,0,1-.39-3.85L50.1,99a6.12,6.12,0,0,1-1.74-3.08c-.39-.77-.58-.39-1.36-1l-.39-.38c.19-.19-.19-.38-.78-.77h-.19a3,3,0,0,0-1.16-.58c-.39-.2-1-1.35-2.13-1.74,0,0-.19-.58-2.13-.58.2-.19-.77-.39-1.94-.39-.77-.19-1.74-.38-2.9-.77L35,90l-.78-.2a3.63,3.63,0,0,1-1.55-.38h-.2l-.19.19h-.39a18.23,18.23,0,0,1-3.1-.19l-.39-.19h-.58c0,.38-3.87-.2-4.26-.2s-.77.2-1.16.2h-.19l-.2.19a15.4,15.4,0,0,0-1.74-.19,1.79,1.79,0,0,1-1,.19l-.77.38c-.19,0-1.93-.57-1.93,0,0,0-1.74.39-2.13.39s-.58.19-1,.38a6.22,6.22,0,0,0-2.71,1.54,1.66,1.66,0,0,1,.58,1.16c0,1,.19,5.19.19,6.35.2.77-.58,3.46-.58,4.42s1,1.73,1,2.7-.19,1.92-.19,3.08a20.5,20.5,0,0,0,0,3.46c0,.39-.39,1-.39,1.54V116c.19.58-.19,1.34-.19,1.92v5.58c0,.39-.2.58-.2,1.15l.2.58c0,1.93.58,4.43.58,5.39v.19l-.78.77v.2a3.29,3.29,0,0,1,.2,1c0,1.16.19,2.5.19,3.66v1.92c0,.58.19,1,0,1.35v.77l.19.39c0,.38-.19,1.54-.19,1.54v1.54c0,1.54-.39,3.27-.39,4.81l.58.77v.39a11.2,11.2,0,0,0,3.29,1h1.36a3.06,3.06,0,0,0,1.35,0h.19a8.35,8.35,0,0,0,2.32-.39c.39-.19,1.16-.39,1.36-.19l.77.19h.19a8,8,0,0,0,2.13-.19l.78-.19a2.78,2.78,0,0,1-.39-1.35,6.76,6.76,0,0,1-.39-1.93l-.19-1V145c0-.38-.39-.58-.39-1,0-.58.19-1.73.19-2.31a9.42,9.42,0,0,1,.58-3.85,36.74,36.74,0,0,1-1-6.16l.19-.58a4.45,4.45,0,0,0,.39-1.73l.19-.77a6.12,6.12,0,0,0,.19-1.35v-.39c1,0,1.94.2,2.71.2l1,.19.39-.19.58.38.19-.19a12.9,12.9,0,0,1,3.48,1.54c.19,0,.19-.19.39.19.77.2,1.16.77,1.74,1.54l.58.58.39.19c.19.39.39,1,.58,1.35s.39.58.58,1c.39,0,1,1.54.77,1.73l.19.38a7.37,7.37,0,0,1,.78,4.62v1.35c.58,0,.58,1.54.58,1.73,0,.38-.19,1.16-.19,1.92v1.54a6.31,6.31,0,0,1-.19,2.5v.39c.39,0,.19,4.43.39,5.39,0,.38.39.58.78,1.92,0,.58-.2.77-.2,1.73.39,0,.58.19,1,.19H46c.39,0,.58-.19,1-.19l.19-.19,1-.58h1.16a2.46,2.46,0,0,1,1.16-.19c1.36-.19,2.71.77,3.1-.19Zm-18-47.73v.2c-.39.58-.77,1.92-1.35,2.3l-1.74,1.35c-.78,0-.58,1-1.16,1.15l-1,.2h-.39l-.19.19a3.56,3.56,0,0,0-1.36.38h-1c-.77-.19-2.32-.19-2.51.2h-.19c-.77-.39-3.48-.2-4.25-.58l.19.19c-.58.39-.19-1.54-.19-2.12-.39-.77-.39-1.92-.77-2.69a6.6,6.6,0,0,0,.38-2.51,21.32,21.32,0,0,1,.39-2.69c-.2-.58.39-1.35.39-1.73v-.19l.39-.19a1.45,1.45,0,0,0,.77-.2,10.3,10.3,0,0,1,2.9-.19c.77.39,4.26.39,4.64.39l1.35.38a4,4,0,0,1,1.55.77c-.2.19,1.55,1,1.93,1.54A5,5,0,0,1,35.4,109.22Z"/><path class="a" d="M238.1,156.47a1.32,1.32,0,0,1,.52.51,1.43,1.43,0,0,1,.21.75,1.41,1.41,0,0,1-.41,1,1.34,1.34,0,0,1-2,0,1.41,1.41,0,0,1-.41-1,1.43,1.43,0,0,1,.39-1,1.34,1.34,0,0,1,1.64-.26m-1.44-.32a1.63,1.63,0,0,0-.66.63,1.79,1.79,0,0,0-.27,1,1.76,1.76,0,0,0,.5,1.26,1.68,1.68,0,0,0,2.43,0,1.83,1.83,0,0,0,0-2.51,1.65,1.65,0,0,0-1.26-.53,1.7,1.7,0,0,0-.75.2m.4,2.54v-.78h.1a.37.37,0,0,1,.27.1,1.47,1.47,0,0,1,.24.37l.15.31h.45l-.21-.38a2.23,2.23,0,0,0-.21-.33.46.46,0,0,0-.18-.12.64.64,0,0,0,.37-.18.49.49,0,0,0,.12-.35.56.56,0,0,0-.14-.38.63.63,0,0,0-.47-.15h-.86v1.89Zm0-1.59h.34a.48.48,0,0,1,.28.06.21.21,0,0,1,.1.19.22.22,0,0,1-.1.2.6.6,0,0,1-.32.06h-.3Z"/></svg>