<svg xmlns="http://www.w3.org/2000/svg" viewBox="0 0 250 250"><title>CR</title><path d="M126.25,50c-9.53,2.16-18,6.08-24.27,13.75a33.06,33.06,0,0,0-7.29,18.69c-1.08,12.91,3.68,23.44,13.17,32,3.76,3.39,7.59,6.71,11.29,10.16,4.7,4.39,8.26,9.5,8.53,16.19.39,9.84-3.92,18.19-15.1,20.69-2,.45-4-.09-5.95-.36A58.66,58.66,0,0,1,84,153.73a40.69,40.69,0,0,1-20-28.57A103.78,103.78,0,0,1,63.86,88c3.47-19.46,16-30.61,34.65-35.52C107.61,50,116.94,49.94,126.25,50Z" style="fill:#f01639"/><path d="M123.17,162.19a63.57,63.57,0,0,0,13.13-4,34.91,34.91,0,0,0,20.32-37.94c-1.62-10-7.11-17.46-14.38-24-4-3.6-8.22-7-11.93-10.94-8-8.49-7.83-19.1-3.45-26.54,2.74-4.66,7.16-7,12.28-8.2,1.69-.38,3.43.29,5.13.58,10.23,1.72,19.69,5.21,27.53,12.29a39.32,39.32,0,0,1,12.74,22.58c2.47,13.68,2.75,27.5-.32,41.1-3.39,15-13.08,24.82-27.27,30.31C146.06,161.7,134.65,162.18,123.17,162.19Z" style="fill:#f01639"/><path d="M143.29,175.2l5.49,14.2c1.35-4.2,2.54-7.88,3.7-11.56a3.32,3.32,0,0,1,4.34-2c.55.25.4.64.28,1-2.59,7.47-5.19,14.93-8.28,22.48L143,185.1,137,200l-8.27-23.85c.73-.46,1.41-.2,2.05-.3,1.56-.24,2.36.3,2.81,1.93,1.06,3.77,2.36,7.48,3.69,11.62l5.5-14.21Z"/><path d="M113.55,187.2c0-3.2.07-6.4,0-9.59,0-1.42.44-1.82,1.81-1.78,3.33.09,6.66.11,10,0,1.58-.05,1.7.69,1.69,1.93s-.15,1.88-1.61,1.8c-2.12-.12-4.26,0-6.39,0-1.16,0-1.49.37-1.46,1.48.12,4.77-.57,3.77,3.67,3.89a19.64,19.64,0,0,0,3,0c1.74-.22,2.16.53,2.08,2.14-.06,1.15-.41,1.5-1.52,1.45-1.93-.07-3.86,0-5.79,0-1,0-1.38.28-1.44,1.35-.29,5.3-.32,5.3,4.87,5.3a17.5,17.5,0,0,0,2.59,0c1.9-.29,2.26.63,2.13,2.28-.08,1-.31,1.43-1.38,1.42-3.6,0-7.19-.06-10.79,0-1.21,0-1.44-.5-1.43-1.55C113.58,193.86,113.55,190.53,113.55,187.2Z"/><path d="M85.22,175.16c1.44,3.11,2.89,6.21,4.32,9.33,1.93,4.23,3.79,8.49,5.79,12.69.61,1.29.37,1.47-1,1.58-2,.15-3.34-.31-3.79-2.42-.29-1.34-1.16-1.7-2.49-1.62a38.68,38.68,0,0,1-5.58,0c-1.71-.14-2.74.33-3.23,2.07-.19.69-.31,1.75-1.27,1.86-1.16.14-2.62.54-3.45-.2-.64-.57.43-1.65.8-2.46,2.91-6.49,5.87-13,8.82-19.42C84.37,176.09,84.44,175.53,85.22,175.16ZM85,183.28c-.61,1.39-1,2.34-1.45,3.3-2.22,5.28-2.21,5.28,3.53,4.84l.4,0c.61,0,.86-.24.59-.86C87.12,188.25,86.16,186,85,183.28Z"/><path d="M153.09,198.51,163.79,175c1.23,1.19,1.49,2.59,2.05,3.81,2.86,6.16,5.66,12.35,8.5,18.51.47,1,.33,1.34-.87,1.42-1.94.12-3.54,0-4-2.39-.23-1.29-1.1-1.74-2.48-1.66-2.19.14-4.4,0-6.6,0-.75,0-1.55-.06-1.74.91C158.11,198.78,156,199.19,153.09,198.51ZM164,183.27c-.63,1.44-1,2.39-1.47,3.34-2.33,5.23-2.33,5.21,3.51,4.84,1-.07,1.3-.29.85-1.29C165.94,188,165.08,185.89,164,183.27Z"/><path d="M72.58,180.31c-1.82-.53-3.28-1.61-5.08-1.6-1.31,0-2.64.09-3.17,1.54s.19,2.56,1.46,3.34c1.53.94,3.1,1.82,4.57,2.85,3.25,2.28,4.31,5.06,3.26,8.24-.91,2.76-3.66,4.47-7.29,4.54a13.93,13.93,0,0,1-5.48-.93c-.64-.25-1.24-.54-1.16-1.4.1-1-.49-2.4.28-3,.59-.49,1.59.58,2.43.91a7.93,7.93,0,0,0,4.47.72,3.09,3.09,0,0,0,2.73-2.3A3,3,0,0,0,68.42,190c-.92-.75-2-1.33-3-2A27.75,27.75,0,0,1,62,185.61a5.51,5.51,0,0,1-1.77-6,5.93,5.93,0,0,1,4.87-4.19,10.81,10.81,0,0,1,3.78,0C72.69,176,73,176.33,72.58,180.31Z"/><path d="M97.48,187.17c0-3.2,0-6.39,0-9.58,0-1.2.17-1.8,1.59-1.76,3.46.1,6.92.09,10.38,0,1.49,0,1.59.7,1.54,1.84s.09,2-1.5,1.89c-2.19-.12-4.39,0-6.59-.06-1,0-1.36.27-1.41,1.34-.17,4.22-.21,4.22,4,4.22a22.6,22.6,0,0,0,3,0c1.83-.25,2.3.54,2.19,2.25-.08,1.18-.52,1.46-1.59,1.43-1.93-.06-3.87.07-5.79-.05-1.45-.09-1.82.45-1.76,1.82.1,2.19-.08,4.4.06,6.59.12,1.81-1,1.64-2.13,1.67s-2,.07-2-1.59C97.57,193.83,97.48,190.5,97.48,187.17Z"/><path d="M180.06,184.71a49.21,49.21,0,0,0,3.75-6c1.35-3,3.59-3.3,6.61-2.67a73.22,73.22,0,0,1-4.72,6.92,14.1,14.1,0,0,0-3.51,11.58,12.13,12.13,0,0,1,0,1.6c0,2.52-.89,3.14-3.42,2.55-.86-.2-.8-.76-.8-1.35,0-2.33-.06-4.67,0-7a5.66,5.66,0,0,0-1.11-3.71c-2.18-3-4.23-6.15-6.33-9.24-.29-.42-.75-.78-.62-1.39,2.77-.65,5-.26,6.34,2.67A57,57,0,0,0,180.06,184.71Z"/></svg>