<svg xmlns="http://www.w3.org/2000/svg" viewBox="0 0 250 250"><title>Club</title><path d="M125.29,34.93h.09c0,.17.17.24.27.34l89,89c.1.1.17.25.34.27v1.62c-.17,0-.24.17-.34.27l-88.28,88.29c-.1.1-.25.17-.28.34h-1.62c0-.21-.22-.3-.36-.43q-44.43-44.44-88.88-88.87c-.3-.3-.36-.45,0-.79q37.51-37.48,75-75Zm0,67.71c1.82,1.81,3.64,3.62,5.45,5.44.3.31.46.31.77,0q12.5-12.53,25-25c.47-.47.45-.37,0-.82l-25-25c-.45-.45-.45-.45-.89,0l-5.36,5.34-.12,0-5.46-5.49c-.21-.21-.36-.19-.56,0-.65.67-1.31,1.32-2,2L94,82.28c-.2.2-.37.33-.07.63q12.64,12.61,25.24,25.24c.26.26.39.19.6,0,1-1,2.07-2.09,3.12-3.12Zm3.22,21.79c0-1.38,0-2.67,0-4,0-.38-.12-.43-.46-.41-2.51.18-5,.34-7.55.51-.9.06-.89.05-1,.93,0,.31,0,.42.36.43,1,0,2.07.1,3.1.12.34,0,.46.12.48.46.05,1.47.18,2.94.19,4.41,0,4.31,0,8.62,0,12.92,0,1.88-.1,3.75-.21,5.62,0,.29-.07.44-.43.46-.85,0-1.7.16-2.55.25s-.79.08-.82.9c0,.38.1.47.47.46,3.81,0,7.62,0,11.44,0,.9,0,.9,0,.9-.89,0-.27,0-.39-.36-.41-1-.08-2.09-.22-3.13-.32-.21,0-.28-.08-.29-.29,0-.84-.13-1.68-.14-2.52,0-5.61,0-11.23,0-16.84a.52.52,0,0,1,.29-.49,19.26,19.26,0,0,1,2.68-1.47,9.59,9.59,0,0,1,4.17-.94,4.19,4.19,0,0,1,4.4,3.37,19.52,19.52,0,0,1,.62,4.9c.08,2.31.07,4.62,0,6.93s0,4.53-.14,6.8c0,.39-.16.51-.52.54-.72.07-1.43.19-2.14.27s-.79.09-.83.9c0,.43.14.48.51.48,3.48,0,7,0,10.45,0,.95,0,.94,0,.92-1,0-.26-.09-.32-.33-.34-.88-.09-1.76-.22-2.64-.29-.38,0-.43-.18-.44-.53-.09-6.38.26-12.76-.27-19.13a.4.4,0,0,1,.24-.42,21.2,21.2,0,0,1,3.34-1.75,9.23,9.23,0,0,1,4-.74,4,4,0,0,1,3.94,2.93,14.62,14.62,0,0,1,.69,4.38,125.64,125.64,0,0,1-.25,14.76c0,.27-.11.4-.39.43-.84.09-1.67.2-2.5.29s-.77.08-.8.88c0,.39.09.5.49.5,3.51,0,7,0,10.54,0,.94,0,.94,0,.9-1,0-.22-.05-.31-.29-.33-.88-.09-1.76-.22-2.64-.31-.28,0-.33-.13-.32-.39.2-4.91.22-9.81.15-14.72a19.43,19.43,0,0,0-.92-6.25,5.64,5.64,0,0,0-4.5-4.06,9.71,9.71,0,0,0-4.54.3,26.18,26.18,0,0,0-7.19,3.63c-.32.22-.43.18-.6-.16a6.75,6.75,0,0,0-7.47-3.82,15,15,0,0,0-4.69,1.61A41,41,0,0,0,128.53,124.43ZM77.89,148.66a17.31,17.31,0,0,0,4.23-.51,12,12,0,0,0,8.53-7.08,14.39,14.39,0,0,0,1-7,10.54,10.54,0,0,0-4.06-7.77A27,27,0,0,0,82,123.12c-2.18-1-4.43-1.83-6.54-3a16.39,16.39,0,0,1-1.6-1,6.45,6.45,0,0,1-2.76-6.34,7.14,7.14,0,0,1,4.37-6.27,9.26,9.26,0,0,1,5-.65,7.75,7.75,0,0,1,5.82,3.71,12.87,12.87,0,0,1,1.79,5.28c.15,1.09.13,1.1,1.24,1.09.7,0,.61.11.61-.62a79,79,0,0,1,.31-9.62c0-.3,0-.4-.35-.38s-.72,0-1.08,0a.42.42,0,0,0-.38.17,1.84,1.84,0,0,1-2.26.57c-.58-.21-1.14-.44-1.71-.69a15.78,15.78,0,0,0-7.35-1.4,12.37,12.37,0,0,0-6.61,2.31,12.17,12.17,0,0,0-4.16,13.42,11.63,11.63,0,0,0,5,6.35,38.48,38.48,0,0,0,6.45,3.15,30.81,30.81,0,0,1,4.65,2.33c4.91,3.15,4.17,9.57,1.44,12.39a8.93,8.93,0,0,1-6.6,2.69,8.43,8.43,0,0,1-7.83-4.37,16.41,16.41,0,0,1-1.93-5.81c-.08-.45.07-1.09-.25-1.32s-.9,0-1.36-.08-.49.1-.49.49c0,3.62.11,7.23-.16,10.85,0,.37-.26.85,0,1.08s.74.06,1.13.07c.2,0,.4,0,.56-.18a1.72,1.72,0,0,1,1.81-.62,9.94,9.94,0,0,1,1.64.46A22.3,22.3,0,0,0,77.89,148.66Zm31.59-4c0,.86.11,1.64.13,2.43,0,.34.1.42.43.42,2.43,0,4.86,0,7.29,0,1,0,.94,0,.92-1,0-.25-.09-.32-.33-.34-1-.1-2.09-.22-3.13-.32-.25,0-.32-.11-.34-.35,0-.91-.12-1.83-.14-2.74-.08-3.68.13-7.35.22-11a24.12,24.12,0,0,0-.41-6.62A6.57,6.57,0,0,0,109,120a13.17,13.17,0,0,0-4-.29,11.26,11.26,0,0,0-6.14,2A6.63,6.63,0,0,0,96,127a2.13,2.13,0,1,0,4.25,0c0-.37,0-.75-.06-1.12s-.06-.87-.11-1.3a2.78,2.78,0,0,1,2-3.22,7.27,7.27,0,0,1,4.29-.31,3.8,3.8,0,0,1,3.09,2.8,7.87,7.87,0,0,1,.33,2.13c0,2-.13,4-.17,6,0,.29-.17.29-.37.32a42.5,42.5,0,0,0-7,1.44,15.23,15.23,0,0,0-5.8,3,6.55,6.55,0,0,0-1.73,7.58c1.11,2.47,3.22,3.41,5.77,3.48a13.28,13.28,0,0,0,6.95-1.87C108.14,145.61,108.78,145.17,109.48,144.69Zm66.43,3.82a14.2,14.2,0,0,0,1.56-.08,8,8,0,0,0,7.58-7.88,7.3,7.3,0,0,0-3.63-7.26,27.18,27.18,0,0,0-2.79-1.44,39.94,39.94,0,0,1-4.47-2.09,4.56,4.56,0,0,1-.84-7.17c1.71-1.67,5.6-1.92,7.51.39a7.75,7.75,0,0,1,1.56,3.77c.06.33-.06.79.21,1s.67,0,1,.05.35-.1.35-.36a50.44,50.44,0,0,1,.21-6.52c0-.08,0-.17-.06-.24a2.44,2.44,0,0,0-1.48.21,1,1,0,0,1-1.1.29c-.52-.19-1-.4-1.54-.61a9.61,9.61,0,0,0-5.64-.57c-6.58,1.41-7.44,8.82-4.57,12.3a11.52,11.52,0,0,0,4.31,3.08,40.92,40.92,0,0,1,4.52,2.08,5.06,5.06,0,0,1,1.51,7.4c-1.85,2.52-7.06,3.07-9.15-.57A10.49,10.49,0,0,1,169.7,140c0-.39-.13-.61-.58-.54a2.37,2.37,0,0,1-.67,0c-.35,0-.42.09-.42.42,0,2.55.09,5.1-.16,7.65,0,.08-.06.17.05.23a2.28,2.28,0,0,0,1.47-.24.88.88,0,0,1,.82-.26,5.07,5.07,0,0,1,1.08.28A14,14,0,0,0,175.91,148.51Zm-22.44,9.77.36-.12a2.74,2.74,0,0,0,2-2.62,2.88,2.88,0,0,0-1.81-3,4.44,4.44,0,0,0-1.66-.37c-1.58,0-3.15,0-4.73,0-.32,0-.4.08-.4.4q0,6,0,12c0,.29.07.39.37.38,1.38,0,2.76,0,4.14,0a5.89,5.89,0,0,0,2.74-.6,3.33,3.33,0,0,0,1.73-3.35,2.91,2.91,0,0,0-2.31-2.56A.85.85,0,0,1,153.47,158.28Zm-25.75-1.6h0c0,1.37,0,2.73,0,4.1A4,4,0,0,0,131,165a8.42,8.42,0,0,0,3.53.08,3.86,3.86,0,0,0,3.57-3.87c.23-2.92,0-5.85.08-8.77,0-.23-.12-.23-.29-.23-.62,0-1.23,0-1.84,0-.36,0-.45.11-.45.45,0,2.19,0,4.38,0,6.57a9.25,9.25,0,0,1-.13,1.79,2.41,2.41,0,0,1-2.54,2.19,2.39,2.39,0,0,1-2.51-2.16,7.72,7.72,0,0,1-.14-1.56c0-2.28,0-4.56,0-6.84,0-.36-.1-.46-.45-.44-.58,0-1.17,0-1.75,0-.31,0-.37.1-.37.38C127.73,153.92,127.72,155.31,127.72,156.69Zm-23.54,6a7.7,7.7,0,0,1-2.42.49,4.16,4.16,0,0,1-3.89-1.7,5.11,5.11,0,0,1-.77-3.74,4.14,4.14,0,0,1,4-3.73,5.56,5.56,0,0,1,3,.65c.05-.63.07-1.22.15-1.79,0-.31-.06-.41-.34-.5a8.74,8.74,0,0,0-5.27,0,5.68,5.68,0,0,0-4,4.18,8.65,8.65,0,0,0-.23,3.17,5.44,5.44,0,0,0,3.39,4.81,9.91,9.91,0,0,0,6.31.31c.19,0,.19-.15.19-.29C104.25,163.91,104.22,163.3,104.18,162.65Zm8.23-4.1q0,3,0,6c0,.19,0,.38.27.38q3.49,0,7,0c.25,0,.3-.1.3-.32a12.88,12.88,0,0,1,0-1.3c0-.36-.11-.42-.44-.41-1.27,0-2.55,0-3.82,0-.72,0-.72,0-.72-.7,0-3.21,0-6.42,0-9.63,0-.36-.1-.46-.45-.44a15.73,15.73,0,0,1-1.66,0c-.36,0-.48.06-.48.45C112.42,154.6,112.41,156.58,112.41,158.56Zm56.84-44.09h-3.72c-.19,0-.25.07-.27.25-.06.66-.14,1.31-.2,2q-.25,2.39-.49,4.79c0,.11-.07.24,0,.35s1.1,0,1.2-.2l1.13-2.35Z" style="fill:#004b8d"/><path d="M125.21,62.58l.12,0a1.41,1.41,0,0,0,.38.44q9.61,9.61,19.23,19.21c.31.31.3.45,0,.76q-9.67,9.64-19.32,19.31l-.29.28c-.15-.13-.3-.25-.43-.39q-9.6-9.59-19.2-19.18c-.32-.32-.32-.48,0-.8q9.58-9.55,19.13-19.12C125,62.95,125.17,62.82,125.21,62.58Z" style="fill:#0069a9"/><path d="M125.31,102.59l.29-.28q9.66-9.66,19.32-19.31c.31-.3.31-.45,0-.76Q135.3,72.66,125.7,63a1.41,1.41,0,0,1-.38-.44l5.36-5.34c.44-.44.44-.44.89,0l25,25c.44.44.47.34,0,.82q-12.51,12.52-25,25c-.31.31-.46.31-.77,0-1.8-1.83-3.63-3.63-5.45-5.44A.16.16,0,0,0,125.31,102.59Z" style="fill:#5c9632"/><path d="M125.31,102.59a.16.16,0,0,1,0,0L122.9,105c-1,1-2.09,2.07-3.12,3.12-.22.22-.34.29-.6,0Q106.58,95.52,93.94,82.91c-.3-.3-.14-.43.07-.63l23.21-23.2c.66-.66,1.32-1.31,2-2,.2-.2.35-.23.56,0l5.46,5.49c0,.25-.24.37-.4.53q-9.56,9.56-19.13,19.12c-.32.32-.32.48,0,.8q9.61,9.58,19.2,19.18C125,102.34,125.17,102.46,125.31,102.59Z" style="fill:#0080c5"/><path d="M128.53,124.43a41,41,0,0,1,4-2.35,15,15,0,0,1,4.69-1.61,6.75,6.75,0,0,1,7.47,3.82c.17.34.27.38.6.16a26.18,26.18,0,0,1,7.19-3.63,9.71,9.71,0,0,1,4.54-.3,5.64,5.64,0,0,1,4.5,4.06,19.43,19.43,0,0,1,.92,6.25c.06,4.91,0,9.82-.15,14.72,0,.26,0,.36.32.39.88.09,1.76.22,2.64.31.24,0,.29.11.29.33,0,1,0,1-.9,1-3.51,0-7,0-10.54,0-.4,0-.51-.1-.49-.5,0-.8,0-.79.8-.88s1.67-.21,2.5-.29c.28,0,.36-.15.39-.43a125.64,125.64,0,0,0,.25-14.76,14.62,14.62,0,0,0-.69-4.38,4,4,0,0,0-3.94-2.93,9.23,9.23,0,0,0-4,.74,21.2,21.2,0,0,0-3.34,1.75.4.4,0,0,0-.24.42c.53,6.37.18,12.75.27,19.13,0,.34.06.5.44.53.88.07,1.76.2,2.64.29.24,0,.33.09.33.34,0,1,0,1-.92,1-3.48,0-7,0-10.45,0-.37,0-.53,0-.51-.48,0-.81,0-.81.83-.9s1.43-.2,2.14-.27c.36,0,.5-.15.52-.54.1-2.26.12-4.53.14-6.8s0-4.62,0-6.93a19.52,19.52,0,0,0-.62-4.9,4.19,4.19,0,0,0-4.4-3.37,9.59,9.59,0,0,0-4.17.94,19.26,19.26,0,0,0-2.68,1.47.52.52,0,0,0-.29.49c0,5.61,0,11.23,0,16.84,0,.84.1,1.68.14,2.52,0,.21.09.27.29.29,1,.1,2.09.23,3.13.32.31,0,.36.15.36.41,0,.89,0,.89-.9.89-3.81,0-7.63,0-11.44,0-.37,0-.49-.08-.47-.46,0-.82,0-.82.82-.9s1.7-.2,2.55-.25c.35,0,.41-.18.43-.46.11-1.87.22-3.75.21-5.62,0-4.31,0-8.62,0-12.92,0-1.47-.14-2.94-.19-4.41,0-.34-.14-.46-.48-.46-1,0-2.07-.1-3.1-.12-.33,0-.4-.12-.36-.43.12-.87.11-.87,1-.93,2.52-.16,5-.33,7.55-.51.34,0,.47,0,.46.41C128.51,121.76,128.53,123,128.53,124.43Z" style="fill:#fdfdfd"/><path d="M77.89,148.66a22.3,22.3,0,0,1-7.47-1.45,9.94,9.94,0,0,0-1.64-.46,1.72,1.72,0,0,0-1.81.62c-.16.22-.36.19-.56.18-.39,0-.88.16-1.13-.07s0-.71,0-1.08c.26-3.61.15-7.23.16-10.85,0-.39.09-.53.49-.49s1-.14,1.36.08.18.86.25,1.32a16.41,16.41,0,0,0,1.93,5.81,8.43,8.43,0,0,0,7.83,4.37,8.93,8.93,0,0,0,6.6-2.69c2.73-2.82,3.47-9.24-1.44-12.39a30.81,30.81,0,0,0-4.65-2.33,38.48,38.48,0,0,1-6.45-3.15,11.63,11.63,0,0,1-5-6.35,12.17,12.17,0,0,1,4.16-13.42A12.37,12.37,0,0,1,77.12,104a15.78,15.78,0,0,1,7.35,1.4c.56.24,1.13.48,1.71.69a1.84,1.84,0,0,0,2.26-.57.42.42,0,0,1,.38-.17c.36,0,.72,0,1.08,0s.39.08.35.38a79,79,0,0,0-.31,9.62c0,.73.08.62-.61.62-1.11,0-1.09,0-1.24-1.09a12.87,12.87,0,0,0-1.79-5.28,7.75,7.75,0,0,0-5.82-3.71,9.26,9.26,0,0,0-5,.65,7.14,7.14,0,0,0-4.37,6.27,6.45,6.45,0,0,0,2.76,6.34,16.39,16.39,0,0,0,1.6,1c2.11,1.14,4.36,2,6.54,3a27,27,0,0,1,5.57,3.17,10.54,10.54,0,0,1,4.06,7.77,14.39,14.39,0,0,1-1,7,12,12,0,0,1-8.53,7.08A17.31,17.31,0,0,1,77.89,148.66Z" style="fill:#fdfdfd"/><path d="M109.48,144.69c-.7.48-1.34.92-2,1.3a13.28,13.28,0,0,1-6.95,1.87c-2.56-.07-4.66-1-5.77-3.48a6.55,6.55,0,0,1,1.73-7.58,15.23,15.23,0,0,1,5.8-3,42.5,42.5,0,0,1,7-1.44c.2,0,.37,0,.37-.32,0-2,.21-4,.17-6a7.87,7.87,0,0,0-.33-2.13,3.8,3.8,0,0,0-3.09-2.8,7.27,7.27,0,0,0-4.29.31,2.78,2.78,0,0,0-2,3.22c.05.43.08.87.11,1.3s.06.75.06,1.12A2.13,2.13,0,1,1,96,127a6.63,6.63,0,0,1,2.92-5.28,11.26,11.26,0,0,1,6.14-2,13.17,13.17,0,0,1,4,.29,6.57,6.57,0,0,1,5.08,5.2,24.12,24.12,0,0,1,.41,6.62c-.1,3.67-.3,7.35-.22,11,0,.91.1,1.83.14,2.74,0,.24.09.32.34.35,1,.09,2.09.22,3.13.32.24,0,.33.09.33.34,0,1,0,1-.92,1-2.43,0-4.86,0-7.29,0-.33,0-.43-.08-.43-.42C109.59,146.34,109.53,145.55,109.48,144.69Zm-.05-6c.06-1.81.12-3.38.18-5,0-.22,0-.41-.31-.35-1.26.22-2.51.42-3.75.73A14.2,14.2,0,0,0,101,136a5.68,5.68,0,0,0-2.11,6.69,4.56,4.56,0,0,0,4.87,2.84,12.21,12.21,0,0,0,5.3-1.84.59.59,0,0,0,.33-.61C109.42,141.53,109.43,140,109.43,138.7Z" style="fill:#fdfdfd"/><path d="M175.91,148.51a14,14,0,0,1-4.62-.93,5.07,5.07,0,0,0-1.08-.28.88.88,0,0,0-.82.26,2.28,2.28,0,0,1-1.47.24c-.12-.06-.06-.15-.05-.23.25-2.55.15-5.1.16-7.65,0-.33.07-.47.42-.42a2.37,2.37,0,0,0,.67,0c.44-.07.54.15.58.54a10.49,10.49,0,0,0,1.27,4.23c2.09,3.64,7.3,3.1,9.15.57a5.06,5.06,0,0,0-1.51-7.4,40.92,40.92,0,0,0-4.52-2.08,11.52,11.52,0,0,1-4.31-3.08c-2.86-3.48-2-10.9,4.57-12.3a9.61,9.61,0,0,1,5.64.57c.51.2,1,.42,1.54.61a1,1,0,0,0,1.1-.29,2.44,2.44,0,0,1,1.48-.21c.1.07.07.16.06.24a50.44,50.44,0,0,0-.21,6.52c0,.27-.06.39-.35.36s-.76.1-1-.05-.16-.62-.21-1a7.75,7.75,0,0,0-1.56-3.77c-1.91-2.32-5.79-2.06-7.51-.39a4.56,4.56,0,0,0,.84,7.17,39.94,39.94,0,0,0,4.47,2.09,27.18,27.18,0,0,1,2.79,1.44,7.3,7.3,0,0,1,3.63,7.26,8,8,0,0,1-7.58,7.88A14.2,14.2,0,0,1,175.91,148.51Z" style="fill:#fdfdfd"/><path d="M153.47,158.28a.85.85,0,0,0,.47.16,2.91,2.91,0,0,1,2.31,2.56,3.33,3.33,0,0,1-1.73,3.35,5.89,5.89,0,0,1-2.74.6c-1.38,0-2.76,0-4.14,0-.3,0-.37-.09-.37-.38q0-6,0-12c0-.31.08-.4.4-.4,1.58,0,3.15,0,4.73,0a4.44,4.44,0,0,1,1.66.37,2.88,2.88,0,0,1,1.81,3,2.74,2.74,0,0,1-2,2.62Zm-2.64,4.64a5,5,0,0,0,1.56-.17,1.57,1.57,0,0,0,1.28-1.66,1.62,1.62,0,0,0-1.3-1.71,8.86,8.86,0,0,0-2.19-.17c-.29,0-.35.1-.35.36,0,.78,0,1.56,0,2.34C149.84,162.93,149.84,162.93,150.83,162.93Zm-1-7.2q0,.65,0,1.3c0,.15,0,.3.22.3a7.86,7.86,0,0,0,2.05-.15,1.48,1.48,0,0,0-.13-2.92,12.51,12.51,0,0,0-1.88-.09c-.24,0-.27.1-.26.3C149.85,154.89,149.84,155.31,149.84,155.73Z" style="fill:#fdfdfd"/><path d="M127.72,156.69c0-1.38,0-2.76,0-4.14,0-.28.06-.4.37-.38.58,0,1.17,0,1.75,0,.35,0,.45.08.45.44,0,2.28,0,4.56,0,6.84a7.72,7.72,0,0,0,.14,1.56,2.39,2.39,0,0,0,2.51,2.16,2.41,2.41,0,0,0,2.54-2.19,9.25,9.25,0,0,0,.13-1.79c0-2.19,0-4.38,0-6.57,0-.35.08-.47.45-.45.61,0,1.23,0,1.84,0,.16,0,.29,0,.29.23,0,2.92.14,5.85-.08,8.77a3.86,3.86,0,0,1-3.57,3.87A8.42,8.42,0,0,1,131,165a4,4,0,0,1-3.25-4.18c0-1.36,0-2.73,0-4.1Z" style="fill:#fdfdfd"/><path d="M104.18,162.65c0,.65.07,1.26.11,1.87,0,.14,0,.25-.19.29a9.91,9.91,0,0,1-6.31-.31,5.44,5.44,0,0,1-3.39-4.81,8.65,8.65,0,0,1,.23-3.17,5.68,5.68,0,0,1,4-4.18,8.74,8.74,0,0,1,5.27,0c.28.08.38.19.34.5-.08.57-.1,1.15-.15,1.79a5.56,5.56,0,0,0-3-.65,4.14,4.14,0,0,0-4,3.73,5.11,5.11,0,0,0,.77,3.74,4.16,4.16,0,0,0,3.89,1.7A7.7,7.7,0,0,0,104.18,162.65Z" style="fill:#fdfdfd"/><path d="M112.41,158.56c0-2,0-4,0-5.94,0-.39.12-.47.48-.45a15.73,15.73,0,0,0,1.66,0c.35,0,.45.08.45.44,0,3.21,0,6.42,0,9.63,0,.7,0,.7.72.7,1.27,0,2.55,0,3.82,0,.32,0,.46.06.44.41a12.88,12.88,0,0,0,0,1.3c0,.22,0,.32-.3.32q-3.49,0-7,0c-.32,0-.27-.19-.27-.38Q112.41,161.57,112.41,158.56Z" style="fill:#fdfdfd"/><path d="M169.25,114.47l-2.33,4.8-1.13,2.35c-.1.22-1.06.38-1.2.2s0-.23,0-.35q.24-2.39.49-4.79c.07-.66.15-1.31.2-2,0-.19.08-.25.27-.25Z" style="fill:#fdfdfd"/><path d="M109.43,138.7c0,1.3,0,2.83,0,4.36a.59.59,0,0,1-.33.61,12.21,12.21,0,0,1-5.3,1.84,4.56,4.56,0,0,1-4.87-2.84A5.68,5.68,0,0,1,101,136a14.2,14.2,0,0,1,4.51-1.84c1.24-.31,2.49-.52,3.75-.73.35-.06.32.13.31.35C109.54,135.32,109.49,136.89,109.43,138.7Z" style="fill:#004b8d"/><path d="M150.83,162.93c-1,0-1,0-1-1,0-.78,0-1.56,0-2.34,0-.27.06-.37.35-.36a8.86,8.86,0,0,1,2.19.17,1.62,1.62,0,0,1,1.3,1.71,1.57,1.57,0,0,1-1.28,1.66A5,5,0,0,1,150.83,162.93Z" style="fill:#004b8d"/><path d="M149.84,155.73c0-.42,0-.84,0-1.26,0-.19,0-.3.26-.3a12.51,12.51,0,0,1,1.88.09,1.48,1.48,0,0,1,.13,2.92,7.86,7.86,0,0,1-2.05.15c-.24,0-.22-.15-.22-.3Q149.84,156.38,149.84,155.73Z" style="fill:#004b8d"/></svg>