<svg xmlns="http://www.w3.org/2000/svg" viewBox="0 0 250 250"><title>Grocery</title><path d="M44.72,104.1a2.34,2.34,0,0,0,.13-.78,11.5,11.5,0,0,1,1.36-4.6,11.26,11.26,0,0,1,3.7-3.94,18.78,18.78,0,0,1,5.65-2.43,35.32,35.32,0,0,1,6-1,55.61,55.61,0,0,1,6.67-.18q3.28.1,6.54.52c1.78.23,3.55.5,5.31.85.25.05.26.05.26.31q0,5.15,0,10.29s0,.09,0,.14-.21,0-.3,0a37.3,37.3,0,0,0-6.4-1.57,38.52,38.52,0,0,0-7.35-.42,12,12,0,0,0-3.19.46,3.88,3.88,0,0,0-1.33.66,2,2,0,0,0-.74,2.1,1.81,1.81,0,0,0,.7,1,5.44,5.44,0,0,0,1.67.83,27.12,27.12,0,0,0,3.44.83c2,.39,4,.75,6,1.32a19,19,0,0,1,5.36,2.32,10.27,10.27,0,0,1,4.66,7.37,14.63,14.63,0,0,1-.39,6.4,11.27,11.27,0,0,1-3.6,5.46,16.3,16.3,0,0,1-5.1,2.85,28,28,0,0,1-5.63,1.34,50.85,50.85,0,0,1-8.92.3q-1.89-.07-3.78-.24-2.06-.19-4.1-.5-2.87-.44-5.7-1.09l-.2,0c-.16,0-.22-.1-.2-.26a.8.8,0,0,0,0-.1q0-5.11,0-10.22c0-.09,0-.18,0-.27s.2,0,.28,0A36.42,36.42,0,0,0,53.35,124a37.61,37.61,0,0,0,7.27.5,14.2,14.2,0,0,0,4-.61,4.06,4.06,0,0,0,1.76-1,1.83,1.83,0,0,0,.15-2.36,2.62,2.62,0,0,0-.68-.63,6.2,6.2,0,0,0-1.41-.67,27.12,27.12,0,0,0-3.53-.9c-2-.42-4-.8-6-1.38a19,19,0,0,1-5.25-2.33A10.43,10.43,0,0,1,45,107.27c-.07-.41-.12-.82-.15-1.24a1,1,0,0,0-.12-.53Z" style="fill:#db2927"/><path d="M88,112.35V112q0-4,0-8a.87.87,0,0,0,0-.14c0-.17.06-.25.22-.29l1.48-.4a37.7,37.7,0,0,1,5.45-1.06,55.35,55.35,0,0,1,6.66-.28c1.43,0,2.85.07,4.27.21a25.79,25.79,0,0,1,6.24,1.31,13.35,13.35,0,0,1,4.43,2.54,10.24,10.24,0,0,1,3,4.89,14.51,14.51,0,0,1,.53,4.09q0,9.34,0,18.67c0,.06,0,.12,0,.17s0,.17-.16.17H106.38c-.13,0-.19,0-.18-.18s0-.16,0-.24q0-1.86,0-3.72a.73.73,0,0,0,0-.35c-.15,0-.19.15-.25.25a10,10,0,0,1-1.41,1.76,10.62,10.62,0,0,1-4.29,2.56,15.11,15.11,0,0,1-5.94.59,14.4,14.4,0,0,1-4.51-1.07,8.82,8.82,0,0,1-4.06-3.25,8.1,8.1,0,0,1-1.28-3.78,12.37,12.37,0,0,1,.47-4.74,9.17,9.17,0,0,1,3.75-5.06,14.93,14.93,0,0,1,5.28-2.14,28.07,28.07,0,0,1,4.4-.57,33.85,33.85,0,0,1,4.48,0c1.07.08,2.15.19,3.22.29l.14,0c.27,0,.28,0,.27-.25a3.68,3.68,0,0,0-2.11-3.27,8,8,0,0,0-2.55-.76,22,22,0,0,0-3.4-.21,22.27,22.27,0,0,0-6.22,1,27.08,27.08,0,0,0-3.88,1.51A.55.55,0,0,1,88,112.35Zm16.84,7.76a20.91,20.91,0,0,0-2.59.14,7.3,7.3,0,0,0-2.17.57,2.89,2.89,0,0,0-1.74,2,4,4,0,0,0,0,1.82,2.28,2.28,0,0,0,1.59,1.77,5.47,5.47,0,0,0,2.61.19,4.23,4.23,0,0,0,3.08-2.21,7.44,7.44,0,0,0,.86-4.09c0-.18-.1-.2-.25-.2Z" style="fill:#db2927"/><path d="M173.58,134.52c-1-.09-2-.19-3-.37a19.73,19.73,0,0,1-6.67-2.37,13.71,13.71,0,0,1-5.67-6.39,17.66,17.66,0,0,1-1.36-5.43,22.76,22.76,0,0,1-.05-4,15.8,15.8,0,0,1,1.76-6.42,12.46,12.46,0,0,1,3.89-4.33,17.47,17.47,0,0,1,6-2.57,28.73,28.73,0,0,1,4.63-.71,36.32,36.32,0,0,1,4-.11,19.46,19.46,0,0,1,6.55,1.25,12.63,12.63,0,0,1,6.7,6,18.89,18.89,0,0,1,1.86,5.72,32,32,0,0,1,.4,4.43c0,.08,0,.16,0,.24l-1.08,2.41H171.91c-.22,0-.23,0-.21.24a4.29,4.29,0,0,0,1.07,2.55A5.2,5.2,0,0,0,175,126a12.42,12.42,0,0,0,3.55.61,31.32,31.32,0,0,0,6.89-.4,17.36,17.36,0,0,0,4.73-1.45s.1-.07.17,0l0,.23c-.26.83-.62,1.62-.93,2.43,0,.12-.14.14-.25.14l-.83.06a6,6,0,0,0-1.85.44,2.29,2.29,0,0,0-1.42,1.76,3.73,3.73,0,0,0,0,1,1,1,0,0,0,.73.9,3,3,0,0,0,.93.09l1.46,0a1.41,1.41,0,0,1,.67.16.14.14,0,0,1,.08.19c-.15.4-.29.8-.44,1.2a43.93,43.93,0,0,1-4.8.86c-.53.07-1.06.11-1.59.16a1.62,1.62,0,0,0-.41.06l-.4-.34a3.83,3.83,0,0,0-2.22-.89,9.52,9.52,0,0,0-3.52.44A11.69,11.69,0,0,0,173.58,134.52Zm2-19.29h3.65c.31,0,.31,0,.31-.3a12.5,12.5,0,0,0-.09-1.56,7.36,7.36,0,0,0-.68-2.5,3.08,3.08,0,0,0-1.83-1.66,3.68,3.68,0,0,0-4.45,1.7,7.51,7.51,0,0,0-.84,4c0,.31,0,.29.32.29Z" style="fill:#db2927"/><path d="M128.55,132.5l-4.8-16.18-4-13.42c0-.11-.06-.22-.08-.32s.17-.06.24-.06h14.95c.3,0,.31,0,.37.32l1.06,5.6,1.49,7.85,1.22,6.45a1.07,1.07,0,0,0,.12.38.57.57,0,0,0,.14-.37q1.23-6.48,2.46-13l1.32-7c.06-.3.06-.3.35-.3h14.36c.08,0,.13,0,.11.13s0,.18-.08.27l-8.52,28.15c-.25.84-.5,1.69-.77,2.53-.11.35,0,.33-.45.33H135.59l-.22-.27a4.35,4.35,0,0,0-2.72-1.73,7.09,7.09,0,0,0-2.25.07A14,14,0,0,0,128.55,132.5Z" style="fill:#db2927"/><path d="M188.47,133.33c.15-.4.29-.8.44-1.2a.14.14,0,0,0-.08-.19,1.41,1.41,0,0,0-.67-.16l-1.46,0a3,3,0,0,1-.93-.09,1,1,0,0,1-.73-.9,3.73,3.73,0,0,1,0-1,2.29,2.29,0,0,1,1.42-1.76,6,6,0,0,1,1.85-.44l.83-.06c.11,0,.2,0,.25-.14.32-.81.68-1.6.93-2.43.44-1,.8-2.08,1.21-3.12l1.08-2.41c.22-.33.38-.68.62-1a5,5,0,0,1,.87-.94,2.78,2.78,0,0,1,3.59.43,2.22,2.22,0,0,1,.29,2.48,23,23,0,0,1-1.18,2.09l-2,3.2a4.25,4.25,0,0,0-.32.58c-.14.34,0,.57.38.58a6.76,6.76,0,0,0,1.11-.05,35.13,35.13,0,0,0,4.78-1.17,2.62,2.62,0,0,1,1.33-.11,1.88,1.88,0,0,1,1.48,1.85,3.22,3.22,0,0,1-1.17,2.35,1.65,1.65,0,0,1-1.15.4,5.91,5.91,0,0,1-.66,0,5.17,5.17,0,0,0-2,.16,41,41,0,0,0-4.62,1.39l-.36.14c-.85.38-.8.28-1.1,1.2a41,41,0,0,0-1.06,4.1c-.4,1.81-.77,3.62-1.08,5.45a14.34,14.34,0,0,0-.17,4,6.69,6.69,0,0,0,.34,1.52,3.13,3.13,0,0,0,.38.74,1.41,1.41,0,0,0,1.21.63,6.33,6.33,0,0,0,3-.72,24.43,24.43,0,0,0,4.84-3.3,6.71,6.71,0,0,0,.59-.59,1.65,1.65,0,0,1,1.38-.62,1.23,1.23,0,0,1,1.15,1.07,2.43,2.43,0,0,1-.71,2.23,32.32,32.32,0,0,1-5.61,4.48,11.24,11.24,0,0,1-3.85,1.45,6.83,6.83,0,0,1-2.93-.07,5.19,5.19,0,0,1-3.12-2.44,10.14,10.14,0,0,1-1.3-3.78,11.39,11.39,0,0,1-.14-1.35,11.63,11.63,0,0,1,.32-2.75,92.42,92.42,0,0,1,2.5-9.32C188.4,133.6,188.43,133.46,188.47,133.33Z" style="fill:#015599"/><path d="M128.55,132.5a14,14,0,0,1,1.85-.48,7.09,7.09,0,0,1,2.25-.07,4.35,4.35,0,0,1,2.72,1.73l.22.27c.15.31.34.6.46.93a4,4,0,0,1,.26,1.39,16.55,16.55,0,0,1-.53,4.26,3.73,3.73,0,0,0,0,1.78,4.6,4.6,0,0,0,.7,1.72,3.14,3.14,0,0,0,2.39,1.37,5.22,5.22,0,0,0,3.32-.78c.38-.24.75-.51,1.13-.75a6.22,6.22,0,0,1,.65-.4.88.88,0,0,1,1.13.23,2,2,0,0,1,.37,2.2,4.26,4.26,0,0,1-.87,1.25,9.53,9.53,0,0,1-3.29,2.15,8.58,8.58,0,0,1-2,.56,6.89,6.89,0,0,1-3-.32,7.76,7.76,0,0,1-2.18-1.05,3.26,3.26,0,0,1-1.07-1.16c-.11-.21-.24-.42-.37-.63a1.4,1.4,0,0,0-.35.4,11.65,11.65,0,0,1-3.33,3,8.46,8.46,0,0,1-3.57,1.27,6.43,6.43,0,0,1-4.24-1.13,6.34,6.34,0,0,1-1.5-1.33,5,5,0,0,1-1-2.76,7.8,7.8,0,0,1,.78-4.11,20.86,20.86,0,0,1,3.45-5.23,19.69,19.69,0,0,1,2.71-2.59,11.75,11.75,0,0,1,2.85-1.65Zm-3.61,14.72a3.77,3.77,0,0,0,1.67-.43,8.68,8.68,0,0,0,2.56-2,19.55,19.55,0,0,0,2.95-4.44A9.51,9.51,0,0,0,133,138a2.52,2.52,0,0,0,0-1.1.93.93,0,0,0-.81-.79,2.21,2.21,0,0,0-1.09.14,7.29,7.29,0,0,0-1.77.88,20.83,20.83,0,0,0-4.85,4.43,7.66,7.66,0,0,0-1.09,1.77,3.69,3.69,0,0,0-.35,2.13A2,2,0,0,0,124.94,147.22Z" style="fill:#015599"/><path d="M173.58,134.52a11.69,11.69,0,0,1,2-.89,9.52,9.52,0,0,1,3.52-.44,3.83,3.83,0,0,1,2.22.89l.4.34a6.24,6.24,0,0,1,1.1,1.64,6.06,6.06,0,0,1,.45,2.89,15.08,15.08,0,0,1-1.22,5,19.25,19.25,0,0,1-2.59,4.42,20.57,20.57,0,0,1-2.5,2.51,8.92,8.92,0,0,1-2.14,1.41,7.57,7.57,0,0,1-4.07.81,7.13,7.13,0,0,1-4.67-2.21,4.48,4.48,0,0,1-1.14-2.41,7.38,7.38,0,0,1,.57-4.11,16.41,16.41,0,0,1,2-3.7,31.19,31.19,0,0,1,4.76-5.15C172.68,135.13,173.14,134.84,173.58,134.52Zm-3.84,12a2.49,2.49,0,0,0,.08.69,2,2,0,0,0,2.38,1.52,4.68,4.68,0,0,0,1.08-.37,8.78,8.78,0,0,0,2.62-2,19,19,0,0,0,2.61-3.8,12.35,12.35,0,0,0,1.07-2.48,3.9,3.9,0,0,0,.2-1.37,1,1,0,0,0-1.09-1,2.81,2.81,0,0,0-.88.17,7.69,7.69,0,0,0-1.67.84,20.78,20.78,0,0,0-4.2,3.62,10.81,10.81,0,0,0-1.59,2.19A4.49,4.49,0,0,0,169.74,146.57Z" style="fill:#015599"/><path d="M153,159.74a5.38,5.38,0,0,1-5.41-4.33,5.47,5.47,0,0,1,0-2.41c1-4.15,1.87-8.31,2.67-12.49.31-1.59.59-3.19.77-4.8.08-.73.11-1.45.17-2.18a14.55,14.55,0,0,1,.55-3.49,4.23,4.23,0,0,1,.59-1.17,2.21,2.21,0,0,1,1.95-.94,3.61,3.61,0,0,1,3.05,1.71,2.48,2.48,0,0,1,.36,2c-.27,1.13-.64,2.22-1,3.33-1,3.14-2.23,6.18-3.19,9.33a45.94,45.94,0,0,0-1.39,5.48,17.9,17.9,0,0,0-.31,3.32,1.28,1.28,0,0,0,.4,1,3.4,3.4,0,0,0,1.88.9,5.6,5.6,0,0,0,2.95-.47,16.25,16.25,0,0,0,2.77-1.51c1-.63,1.9-1.33,2.85-2a8.45,8.45,0,0,1,.89-.54,1,1,0,0,1,1.45.63.81.81,0,0,1-.16.81c-.39.49-.79,1-1.22,1.42a27.7,27.7,0,0,1-5.73,4.71,12.45,12.45,0,0,1-3.52,1.54A5.39,5.39,0,0,1,153,159.74Z" style="fill:#015599"/><path d="M201.25,123.57a2,2,0,1,1,2-2A2,2,0,0,1,201.25,123.57Zm0-3.69a1.72,1.72,0,1,0,1.72,1.72A1.72,1.72,0,0,0,201.25,119.87Z" style="fill:#015599"/><path d="M200.31,122.64v-2.1h.89a1.53,1.53,0,0,1,.49.06.48.48,0,0,1,.24.2.61.61,0,0,1,.09.33.56.56,0,0,1-.14.39.67.67,0,0,1-.42.19,1,1,0,0,1,.23.18,2.39,2.39,0,0,1,.24.34l.26.41h-.51l-.31-.46a3,3,0,0,0-.22-.31.33.33,0,0,0-.13-.09.7.7,0,0,0-.21,0h-.09v.88Zm.42-1.21H201a1.62,1.62,0,0,0,.38,0,.23.23,0,0,0,.12-.09.27.27,0,0,0,0-.16.25.25,0,0,0-.06-.17.26.26,0,0,0-.16-.08h-.64Z" style="fill:#015599"/></svg>