<svg xmlns="http://www.w3.org/2000/svg" viewBox="0 0 250 250"><defs><style>.a{fill:#ee3425;}</style></defs><title>Midscale</title><path class="a" d="M217.5,135.2a20.35,20.35,0,0,1-2.16,9.27,11.14,11.14,0,0,1-3.57,3.94,21,21,0,0,1-14.45,4.1,18.91,18.91,0,0,1-8.88-2.81,15.22,15.22,0,0,1-5.87-17.21,12.26,12.26,0,0,1,9.82-8.12,9.1,9.1,0,0,1,6.76,1.3,6.9,6.9,0,0,1,2.48,2.59,3.84,3.84,0,0,1,.46,2.65A8.12,8.12,0,0,1,200.9,134a4.42,4.42,0,0,1-2.4,1.78.72.72,0,0,1-.88-.27,11,11,0,0,0-1.17-1.41,3.27,3.27,0,0,0-3-1,3.08,3.08,0,0,0-1.72,1.1,5.66,5.66,0,0,0-1.26,4.7,8.11,8.11,0,0,0,6.94,7.23,9.42,9.42,0,0,0,8.61-2.49,9.55,9.55,0,0,0,2.14-4.38c1.36-4.78,0-8.8-3.4-12.27-1.88-1.91-3.93-3.63-5.91-5.43a46,46,0,0,1-7.2-7.93,22.15,22.15,0,0,1-1.67-2.93,7.83,7.83,0,0,1,.42-7.84A9.81,9.81,0,0,1,198.66,98a10.79,10.79,0,0,1,3.35.39,6.89,6.89,0,0,0,3.2,0,7.89,7.89,0,0,1,1.05-.11,2.2,2.2,0,0,1,2.08,1,9.76,9.76,0,0,1,1.32,2.78,21.27,21.27,0,0,1,1.25,5.58,4.87,4.87,0,0,1-.12,1.53,2.22,2.22,0,0,1-.4.82c-.47.58-.78.65-1.41.26a5.88,5.88,0,0,1-2.11-2.22,13.23,13.23,0,0,0-2.27-3.11,5.91,5.91,0,0,0-5-1.89,3.34,3.34,0,0,0-2.81,4.48,8.37,8.37,0,0,0,1.7,2.84,38.07,38.07,0,0,0,5.49,5.09c1.73,1.37,3.45,2.75,5.2,4.09a21.72,21.72,0,0,1,6.95,8.64A17.14,17.14,0,0,1,217.5,135.2Z"/><path class="a" d="M48.41,152.71a16.36,16.36,0,0,1-8.85-2.85A15.4,15.4,0,0,1,33.18,142a13.31,13.31,0,0,1-.62-5.57,17.28,17.28,0,0,1,1.32-5.66,10.74,10.74,0,0,1,7.88-6.28,12.18,12.18,0,0,1,4-.39,7,7,0,0,1,5.2,3,5,5,0,0,1,.67,4,13.2,13.2,0,0,1-.66,2.51,2.92,2.92,0,0,1-3,2,.43.43,0,0,1-.4-.21c-.08-.12-.14-.25-.2-.38a2.66,2.66,0,0,0-3.07-1.62c-1.84.24-4,2.17-4.15,3.92a6.92,6.92,0,0,0,2.42,6.46,9.57,9.57,0,0,0,9.7,1.73,7.49,7.49,0,0,0,4.15-3.65,14.39,14.39,0,0,0,1.72-6.18A11.52,11.52,0,0,0,56,128.67a33.89,33.89,0,0,0-5.9-6.43c-1.26-1.16-2.59-2.23-3.82-3.41A18.79,18.79,0,0,1,40.76,110a9.34,9.34,0,0,1,3.08-10.07A9.53,9.53,0,0,1,51,97.82c1.21.09,2.39.31,3.58.51a6.64,6.64,0,0,0,2-.13,6.39,6.39,0,0,1,1.25,0,2.56,2.56,0,0,1,2,1.18,16.34,16.34,0,0,1,2.37,5.41,12,12,0,0,1,.49,4,2.67,2.67,0,0,1-.78,1.87,1,1,0,0,1-1.28.2,2.61,2.61,0,0,1-1.14-1.15,24.33,24.33,0,0,0-3.28-4.53,5.68,5.68,0,0,0-4.86-1.87,2.91,2.91,0,0,0-2.49,1.82,5.39,5.39,0,0,0,.25,5.27,14.18,14.18,0,0,0,3,3.43c2.32,2.05,4.76,4,7,6.1a35.62,35.62,0,0,1,6,7.58,15.68,15.68,0,0,1,1.05,14.07,17.4,17.4,0,0,1-3.47,5.92,15.49,15.49,0,0,1-7.88,4.35A30.68,30.68,0,0,1,48.41,152.71Z"/><path class="a" d="M82.28,109c0-1.92,0-3.58-.09-5.23a2.67,2.67,0,0,0-.83-2,3.69,3.69,0,0,1-.53-.62A1.41,1.41,0,0,1,81.36,99a6.77,6.77,0,0,1,2.46-.66,21.28,21.28,0,0,1,5.59,0,3.67,3.67,0,0,1,1.06.32,1.22,1.22,0,0,1,.59,1.81,5.55,5.55,0,0,1-.8,1.09,4.37,4.37,0,0,0-1.07,2.91c-.26,9-.19,18.05-.15,27.08a25.88,25.88,0,0,0,.25,4.29A5.55,5.55,0,0,0,91.06,139a1.56,1.56,0,0,1,.06,2.57A6,6,0,0,1,88,143.08a26.55,26.55,0,0,1-4.19.67,6.44,6.44,0,0,1-1.64-.1,2,2,0,0,1-1.44-2.82,8.18,8.18,0,0,0,.82-3.82q.16-4.42.55-8.82c.17-1.83.33-3.66.49-5.48a1.61,1.61,0,0,0-1.37-1.91,5.65,5.65,0,0,0-3.41.27,2.24,2.24,0,0,0-1.52,2.29c.08,3.69.1,7.38.31,11.07.09,1.57.25,3.15.38,4.72a2,2,0,0,0,.9,1.63,2.41,2.41,0,0,1,.46.43,1.39,1.39,0,0,1,0,2,4.76,4.76,0,0,1-1,.85,14.16,14.16,0,0,1-8.57,2.32,1.49,1.49,0,0,1-1.5-2.14,2.71,2.71,0,0,1,.51-1,7.18,7.18,0,0,0,1.47-4.07,144.44,144.44,0,0,0,.51-18.83c-.12-5.38-.27-10.76-.24-16.15a4.22,4.22,0,0,0-1-2.9,2.1,2.1,0,0,1-.38-.67,1.22,1.22,0,0,1,.65-1.69,7.4,7.4,0,0,1,3.24-.86,20.69,20.69,0,0,1,4.53.1,3.16,3.16,0,0,1,1.21.45,1.14,1.14,0,0,1,.14,1.92,2.5,2.5,0,0,0-.78,1.57,52.13,52.13,0,0,0-.82,11c0,.58.07,1.16.1,1.74a.85.85,0,0,0,.69.82,3.19,3.19,0,0,0,.75.16,16.69,16.69,0,0,0,3.18,0,1.31,1.31,0,0,0,1.24-1.21,5.61,5.61,0,0,0,.1-1C82.28,112,82.28,110.37,82.28,109Z"/><path class="a" d="M123.77,126.64c.06,2.11.1,4.22.17,6.33a3.44,3.44,0,0,0,1,2.48,6.88,6.88,0,0,1,.82,1,1.87,1.87,0,0,1-.52,2.87,5.28,5.28,0,0,1-2.41.79,14.23,14.23,0,0,1-5.23-.27,3.63,3.63,0,0,1-1.7-.88,1.58,1.58,0,0,1-.27-2.14,3.59,3.59,0,0,1,.43-.58,8.7,8.7,0,0,0,2.06-5.3c.51-4.39.24-8.79.27-13.19s0-8.67,0-13a4,4,0,0,0-1.3-3.29,5,5,0,0,1-.83-1,1,1,0,0,1,.13-1.4,2.65,2.65,0,0,1,1.32-.76,12.21,12.21,0,0,1,5.55-.13,3.29,3.29,0,0,1,2.76,3.23,36.76,36.76,0,0,0,1.32,6c.67,2.57,1.34,5.13,2.12,7.67.17.54.38,1.06.59,1.58.09.22.24.44.5.37s.15-.35.14-.54c-.24-2.54-.14-5.09-.2-7.63,0-1.77-.05-3.55-.15-5.32a.61.61,0,0,1,0-.19,2,2,0,0,0-.87-2.16,1.34,1.34,0,0,1,.25-2.35,5.7,5.7,0,0,1,2.7-.82,12.72,12.72,0,0,1,3.75.14,2.8,2.8,0,0,1,1.15.49,1.38,1.38,0,0,1,0,2.24,2.5,2.5,0,0,0-1,1.78,31.37,31.37,0,0,0-.37,4.23c-.27,6.54-.2,13.08-.12,19.63,0,3.87.07,7.74.1,11.6a6.54,6.54,0,0,1-.19,1.87,2,2,0,0,1-3.3,1,6,6,0,0,1-1.69-2.77c-1.52-4.46-3-8.92-4.54-13.38a42.47,42.47,0,0,0-1.54-4.16,9.74,9.74,0,0,0-.51-.93c-.07-.12-.17-.27-.34-.23s-.16.22-.19.36a6.2,6.2,0,0,0,0,1.5C123.76,123.07,123.73,124.85,123.77,126.64Z"/><path class="a" d="M114.87,118a47.11,47.11,0,0,1-1.12,10.84,31.16,31.16,0,0,1-2.79,7.54,9.55,9.55,0,0,1-5.68,4.87,7.93,7.93,0,0,1-9.22-2.94A18.74,18.74,0,0,1,93,131.77a40.46,40.46,0,0,1-1.77-12.33A49.19,49.19,0,0,1,93,106.86a15.12,15.12,0,0,1,5.07-7.55,8.71,8.71,0,0,1,6.23-1.7c2.44.15,4.1,1.57,5.64,3.27a17.59,17.59,0,0,1,3.88,8.2A39.64,39.64,0,0,1,114.87,118Zm-7.29.68a44.05,44.05,0,0,0-1.14-10.63,10.7,10.7,0,0,0-1.41-3.57c-1-1.55-2.24-1.61-3.43-.17a8.62,8.62,0,0,0-1.19,2,19,19,0,0,0-1.3,5.12,58.79,58.79,0,0,0-.73,8,54.79,54.79,0,0,0,.5,6.88,23.67,23.67,0,0,0,1.81,6.78,4.93,4.93,0,0,0,1.21,1.78,1.81,1.81,0,0,0,2.54,0,4,4,0,0,0,.95-1.27,12.59,12.59,0,0,0,1-3.1A59.81,59.81,0,0,0,107.58,118.71Z"/><path class="a" d="M148.2,98.06c1.82,0,3.64-.05,5.46,0a5.62,5.62,0,0,1,5.77,5.36,41.32,41.32,0,0,1,.27,4.43,8.4,8.4,0,0,1-.18,1.73,1.33,1.33,0,0,1-2.1.89,5.19,5.19,0,0,1-1.56-1.63c-.6-.9-1.08-1.87-1.62-2.8a6.11,6.11,0,0,0-1.73-2.17,1.35,1.35,0,0,0-2.29.93,22.44,22.44,0,0,0-.27,3.66c0,1.84-.05,3.67-.07,5.51a5.83,5.83,0,0,0,0,.67,1.06,1.06,0,0,0,.78,1.05,1.32,1.32,0,0,0,1.4-.43,4,4,0,0,0,.69-1.37,3,3,0,0,1,1-1.42,1,1,0,0,1,1.49.15,4.48,4.48,0,0,1,1,2.77,32,32,0,0,1-.08,6.8,4,4,0,0,1-.51,1.6,1.43,1.43,0,0,1-2.45.08,4.06,4.06,0,0,1-.56-1.38,3.54,3.54,0,0,0-.43-1.12,1.18,1.18,0,0,0-2.07,0,2.6,2.6,0,0,0-.44,1.46c0,3.06,0,6.12.11,9.19a6.23,6.23,0,0,0,.54,2.63,1.66,1.66,0,0,0,3,.41,8.49,8.49,0,0,0,1.08-1.71c1-1.81,1.77-3.69,2.81-5.45a5.76,5.76,0,0,1,2.14-2.18,1.69,1.69,0,0,1,2.74,1.45,14.66,14.66,0,0,1-.29,3.89,59.13,59.13,0,0,1-1.75,7.17,11.81,11.81,0,0,1-1.08,2.36,2.42,2.42,0,0,1-2.2,1.22,32.92,32.92,0,0,1-4.9-.42c-1.85-.21-3.71-.39-5.56-.67-1.59-.24-3.18-.15-4.77-.27a2.85,2.85,0,0,1-.57-.11,1.93,1.93,0,0,1-1-3.32c.38-.43.83-.8,1.26-1.2a3.24,3.24,0,0,0,1-2.35c.33-7.07.41-14.14.29-21.22-.05-2.84,0-5.67-.1-8.51a2.89,2.89,0,0,0-1.3-2.46l-.19-.14c-1.26-1-1.1-2.22.37-2.86a4.91,4.91,0,0,1,2-.3h4.79Z"/><path class="a" d="M179.59,97.67a11.81,11.81,0,0,1,3.78.38,3.15,3.15,0,0,1,1.16.57,1.34,1.34,0,0,1,0,2.13c-2.12,1.12-2.85,3.14-3.6,5.17-.92,2.49-1.49,5.09-2.16,7.65-.88,3.34-1.77,6.68-2.52,10.06a31.49,31.49,0,0,0-.56,6.87A72.83,72.83,0,0,0,176,138a15.94,15.94,0,0,0,.45,2.61,4.31,4.31,0,0,0,1.81,2.54,1.49,1.49,0,0,1-.15,2.5,5.29,5.29,0,0,1-3.08.37,30.69,30.69,0,0,1-6.57-1.52,5.68,5.68,0,0,1-2.14-1.28,1.42,1.42,0,0,1,0-2.24,3.42,3.42,0,0,1,.47-.41,2.57,2.57,0,0,0,1.11-2.33c0-3.13-.08-6.26.13-9.38a29.84,29.84,0,0,0-1.2-9c-1.17-4.94-2.33-9.89-3.67-14.79a6,6,0,0,0-2.34-3.66,3.21,3.21,0,0,1-.71-.72,1.17,1.17,0,0,1,.25-1.84,6.77,6.77,0,0,1,2.6-1.11,13.87,13.87,0,0,1,7,.29,3.73,3.73,0,0,1,1.09.51,1.84,1.84,0,0,1,.78,2.2.83.83,0,0,1-.51.61,1.94,1.94,0,0,0-1.09,2.45c.58,3.19,1.14,6.4,1.91,9.55.09.37.1,1,.5,1s.42-.58.54-.93a61.09,61.09,0,0,0,2.63-9.57,2.76,2.76,0,0,0-.74-2.7,1.89,1.89,0,0,1,.83-3.18,8.71,8.71,0,0,1,2.38-.33C178.68,97.66,179.14,97.67,179.59,97.67Z"/><path class="a" d="M189.16,97.29l.42.08c1.15.23,1.36.64.91,1.71q-2.77,6.58-5.53,13.17c-.29.7-.64,1.37-1,2a1.94,1.94,0,0,1-.5.64,1,1,0,0,1-1,.13.84.84,0,0,1-.54-.83,4.6,4.6,0,0,1,.32-1.55c1.43-4.34,3-8.61,4.56-12.92a8.08,8.08,0,0,1,.69-1.64A1.76,1.76,0,0,1,189.16,97.29Z"/></svg>