<svg xmlns="http://www.w3.org/2000/svg" viewBox="0 0 250 250"><title>Mass</title><path d="M128.85,119.94c.06,9.77-7.45,15.8-15.72,16.41a18,18,0,0,1-12-3.21c-4.74-3.34-6.84-9.8-5.48-15.84,1.7-7.57,8.61-12.35,16.09-12.77a16.53,16.53,0,0,1,11,2.9C126.89,110.48,128.78,114.78,128.85,119.94Zm-14.4,12.6a10.15,10.15,0,0,0,8.69-6c3.08-6.71-.54-14.85-7.48-17.44-5.86-2.19-12.33.22-14.85,5.45C97.3,121.82,102.78,132.72,114.46,132.54Z"/><path d="M198.73,104.23a15.18,15.18,0,0,1,16,16.14c-.43,7.24-4.58,12.84-11.54,14.87-6.33,1.84-12.41,1-17.44-3.53-3.92-3.54-5.2-8.26-4.34-13.4a16.5,16.5,0,0,1,16.48-14.07Zm11.44,17.16a13.42,13.42,0,0,0-9.46-12.93c-5.18-1.65-11.12.6-13.56,5.13-4.12,7.65,1.45,17.73,10.24,18.6C204.63,132.91,210.34,127.76,210.17,121.39Z"/><path d="M46.32,135.67A18.63,18.63,0,0,1,37,132.89a4.42,4.42,0,0,1-1.88-4.6c.2-.78.5-1.59,1.41-1.75a2.21,2.21,0,0,1,2.36.81,13.25,13.25,0,0,0,4.26,4.17,7.87,7.87,0,0,0,7.88-.16C53.46,130,55.17,128,54.88,125a9.31,9.31,0,0,0-3.24-5.86c-3-2.85-6.65-4.78-9.76-7.48s-4.4-6.29-3.19-9.85a9.73,9.73,0,0,1,8.67-6.25,20.79,20.79,0,0,1,7,1.11,3.88,3.88,0,0,1,2.55,3.93c-.07.75-.23,1.51-1,1.84a2.06,2.06,0,0,1-2.34-.42c-.64-.61-1.24-1.26-1.88-1.87a5.62,5.62,0,0,0-3.86-1.72c-3.41-.07-5.29,2.89-3.73,5.94a13.77,13.77,0,0,0,5,5.25c3.52,2.28,7,4.57,9.2,8.38A11.48,11.48,0,0,1,52,134.87,15.64,15.64,0,0,1,46.32,135.67Z"/><path d="M64.67,120c0-4.66,0-9.33,0-14,0-.76.09-1.11,1-1a8.57,8.57,0,0,0,2.65-.06c1.26-.26,1.39.31,1.38,1.34,0,3.4,0,6.81,0,10.21,0,1,.3,1.37,1.36,1.37,4.33,0,8.66-.12,13,.13.91.05,1.43-.17,1.41-1.31-.06-3.5,0-7,0-10.5,0-1,.26-1.37,1.28-1.23a6.5,6.5,0,0,0,2.23,0c1.42-.31,1.49.39,1.49,1.51q-.05,13.79,0,27.58c0,.93-.22,1.43-1.25,1.3-1.2-.15-2.73.47-3.52-.24s-.21-2.29-.23-3.48q-.08-4.55,0-9.1c0-.9-.17-1.24-1.13-1.24q-6.72.05-13.44,0c-1.07,0-1.21.53-1.2,1.4,0,3.73,0,7.46,0,11.19,0,1.19-.35,1.57-1.52,1.42s-2.62.46-3.35-.31-.19-2.14-.19-3.25c0-3.92,0-7.84,0-11.76Z"/><path d="M163.33,115.4c3.39-3.25,6.6-6.29,9.75-9.38a2.4,2.4,0,0,1,1.83-.81c1.37,0,2.75,0,4.35,0a23,23,0,0,1-3.34,3.4c-2.85,2.75-5.79,5.4-8.71,8.07a1.21,1.21,0,0,0-.15,1.9c2.94,4,5.83,8,8.75,12a10.81,10.81,0,0,0,1.82,1.91,2.88,2.88,0,0,0,3.08.7c.55-.22,1-.18,1.3.41s0,1-.6,1.35a7.19,7.19,0,0,1-9.13-2c-2.9-4-5.86-7.94-8.56-12.08,0-.05-.16,0-.49-.13,0,2,0,3.93,0,5.86,0,2.66-.06,5.32,0,8,0,.76-.17,1.11-1,1a18.31,18.31,0,0,0-3.06,0c-.84.07-.89-.33-.89-1q.07-14.07.09-28.14c0-.93.14-1.38,1.21-1.24a9.48,9.48,0,0,0,2.51,0c1-.14,1.28.28,1.25,1.24-.06,2.61,0,5.23,0,7.84C163.2,114.52,163.27,114.83,163.33,115.4Z"/><path d="M133.55,120.4c0-4.57,0-9.15,0-13.72,0-1.1.33-1.42,1.41-1.42,3.73,0,7.47-.38,11.15.53,2.68.67,5.14,1.71,6.65,4.22a8.49,8.49,0,0,1-4.58,12.26,10.61,10.61,0,0,1-6.2.26,3.73,3.73,0,0,1-1.39-.63,1.16,1.16,0,0,1-.43-1.59c.32-.58.93-.44,1.37-.18a5,5,0,0,0,6.92-2.51c1.44-3.55.25-6.74-3-8.22a12.17,12.17,0,0,0-6.16-.89c-.7.06-.92.31-.92,1,0,8.31,0,16.61,0,24.92,0,.8-.15,1.09-1,1a26.26,26.26,0,0,0-2.94,0c-.71,0-.93-.2-.93-1,0-4.71,0-9.42,0-14.13Z"/><path d="M71.48,144.72c-.64,1.28-1.1,2.22-1.59,3.14-.22.41-.5.86-1.07.69s-.55-.68-.54-1.16a5.16,5.16,0,0,0-.33-2.2c-.6,1.18-1.18,2.36-1.8,3.53-.21.4-.18,1.21-.93.95s-.34-.9-.29-1.37c.14-1.43.35-2.86.52-4.29,0-.21.13-.46-.16-.61-.56,0-.36.87-1.17.89a2.34,2.34,0,0,1,1.1-2.36c.62-.39,1.11,0,1.13.69s-.05,1.67-.1,2.51c0,.38-.33.77.08,1.22.6-1.07,1.17-2.1,1.77-3.12.27-.45.44-1.21,1.17-.91s.26.88.21,1.37c-.1.94-.2,1.88-.3,2.82l.38.09c.57-1.19,1.14-2.38,1.71-3.56.23-.48.32-1.3,1-1.17s.32.92.31,1.41a19.37,19.37,0,0,0,.18,3.62c.12.7.13,1.43,1.09,1.53a.41.41,0,0,1,.36.51c0,.27-.24.38-.47.45-.88.27-1.5,0-1.68-.93C71.83,147.34,71.7,146.24,71.48,144.72Z"/><path d="M115.52,144.08c-.66,1.05-1.2,1.89-1.73,2.74a1.19,1.19,0,0,1-1.4.66c-.68-.21-.41-.84-.46-1.32s.22-1.09-.11-1.77c-1.07.95-1.4,2.32-2.28,3.29-.29.32-.37,1-1,.81s-.38-.82-.31-1.31c.19-1.32.37-2.63.55-3.94a1.6,1.6,0,0,0-.38-.06c-.43.07-.41,1.12-1,.6s.08-.95.39-1.31a1.36,1.36,0,0,1,1.48-.58c.67.23.43.85.4,1.33-.05.86-.15,1.72-.26,2.9,1.06-1.18,1.39-2.51,2.42-3.33.37-.29.66-.77,1.17-.55.67.29.17.8.11,1.21a5.1,5.1,0,0,0,0,2.69c.87-1.37,1.64-2.55,2.37-3.75.2-.32.33-.76.78-.64s.33.67.34,1.06c0,.93,0,1.86.1,2.79s0,1.88,1.36,1.86a.31.31,0,0,1,.32.37.5.5,0,0,1-.46.45c-.94.13-1.71-.11-1.93-1.14S115.71,145.27,115.52,144.08Z"/><path d="M123.27,145.62c-.77,1-1.16,2-2,2.67-.41.31-.84.65-1.39.41s-.53-.75-.58-1.2c-.12-1.25-.2-2.5-.25-3.76,0-.53.16-1.19.76-1.14s.29.75.31,1.16c0,1,0,2,0,2.93,0,.25-.11.6.21.75s.49-.14.66-.35c1-1.21,1.95-2.4,1.73-4.12-.06-.47-.07-1,.56-1.08s.5.56.59.95a25.13,25.13,0,0,1,1,7.86c-.31,3.58-2.76,4.81-5.71,2.85a4.83,4.83,0,0,1-1.75-2c-.16-.34-.34-.81,0-1s.59.21.76.56a4.09,4.09,0,0,0,2.8,2.27c1.57.38,2.28,0,2.69-1.47A13,13,0,0,0,123.27,145.62Z"/><path d="M78.7,145.25a17.65,17.65,0,0,1-1.4,3.6c-.28.43-.51,1-1.16.78S75,149.19,75,148.44c-.14-1.53-.33-3.05-.46-4.58,0-.54.11-1.16.75-1.1s.29.66.31,1c.07,1.6-.16,3.25.88,5,.89-2,1.84-3.71,1.68-5.78,0-.44-.38-1,.29-1.16s.63.55.77,1a20,20,0,0,1,1,8c-.26,2.8-1.26,3.69-4.06,3.58A17.93,17.93,0,0,1,74,154.1c-.44-.07-.86-.21-.66-.81s.5-.47.89-.29a3.21,3.21,0,0,0,.52.21c3.43.88,4.57-.19,4.53-3.17A14.34,14.34,0,0,0,78.7,145.25Z"/><path d="M175.47,148.1a12.76,12.76,0,0,0,2.15-4.85c.08-.5,0-1.16.67-1.17s.52.67.63,1.09a21.62,21.62,0,0,1,.71,7.48c-.36,3.57-2.87,3.64-5.27,2.82a1.47,1.47,0,0,1-.89-1.18c-.07-.28-.08-.59.24-.72s.43.12.57.3a2.61,2.61,0,0,0,1,.92c1.61.74,2.8.27,3.23-1.43a14.84,14.84,0,0,0-.15-6.21c-.88.59-.83,1.6-1.33,2.26s-.74,2-1.91,1.75-.7-1.47-.79-2.25c-.16-1.38-.11-2.79-.14-4.19,0-.54.08-1.16.75-1.08s.28.67.26,1A17,17,0,0,0,175.47,148.1Z"/><path d="M145.55,145.56c-.68,1.33-1.17,2.32-1.7,3.29-.3.54-.73,1.08-1.42.93s-.75-.86-.79-1.48c-.07-1.16-.12-2.33-.18-3.49,0-.56.09-1.15.74-1.1s.31.66.31,1c0,1.07,0,2.14,0,3.22,0,.22-.06.5.22.61s.49-.2.59-.43a20.67,20.67,0,0,0,1.68-4.28c.08-.35,0-.78.57-.82s.6.35.69.72a18.71,18.71,0,0,1,.55,8c-.25,1.22-.73,2.33-2,2.57a4.83,4.83,0,0,1-4.45-1.07c-.37-.35-.63-1-.16-1.36s.59.34.8.65c.85,1.27,2.17,1.17,3.41,1s1.36-1.12,1.56-2.06A13.94,13.94,0,0,0,145.55,145.56Z"/><path d="M173.8,149.16c-1.3,1.15-1.9,1.07-2.37-.07a25.89,25.89,0,0,1-.88-3.81c-.47.82-.93,1.65-1.43,2.45-.27.44-.64.9-1.22.78s-.5-.81-.55-1.28a7.14,7.14,0,0,0-.27-2c-.71,1.22-1.43,2.43-2.12,3.66-.19.34-.35.71-.82.57s-.39-.6-.35-.94c.17-1.48.39-3,.57-4.43.05-.41.16-.8.64-.72s.31.5.28.8c-.09.78-.21,1.56-.34,2.51.81-.4.95-1.12,1.34-1.62s.8-1.14,1.24-1.68a.72.72,0,0,1,.86-.31c.4.18.24.55.19.86a8.34,8.34,0,0,0-.2,3.11,27.69,27.69,0,0,0,2.2-3.68c.22-.35.35-.88.87-.75s.34.65.34,1.05c0,1.21,0,2.42.08,3.63C171.94,148.32,172.13,149.33,173.8,149.16Z"/><path d="M95.18,153.32c-1,0-1.3-.74-1.59-1.47a17.92,17.92,0,0,1-.91-6c0-.78.46-2.36-1.37-1.2a.4.4,0,0,1-.59-.19.42.42,0,0,1,.28-.56c1.82-.44,1.65-1.86,1.74-3.26a3.63,3.63,0,0,1,1.34-2.81c.38-.28.93-.51,1.25,0s-.07.77-.56,1c-.7.33-1.47,2.78-1.19,3.5.19.48.5.25.8.17.58-.15,1.17-.3,1.76-.41.25,0,.63-.07.68.29s-.23.48-.51.58l-.13,0c-2.56.77-2.55.77-2.46,3.41a18.54,18.54,0,0,0,.69,5.1c.17.53.33,1.1,1.06,1.12.33,0,.74,0,.58.51S95.55,153.35,95.18,153.32Z"/><path d="M186.11,143.14a22.27,22.27,0,0,0,2.48,3.25c.63.73,1.56,1.5.94,2.54s-1.89.88-2.92.59-2.16-.69-2.47-2c-.09-.37-.12-.82.31-1s.5.34.61.67c.27.76,2.41,1.84,3.16,1.56s.3-.83,0-1.18c-.89-1.13-1.81-2.24-2.74-3.34-.44-.52-.87-1.1-.46-1.74s1.16-.5,1.79-.34a3.5,3.5,0,0,1,2,.94c.25.3.5.63.17,1s-.66,0-.92-.22C187.56,143.43,187.1,142.88,186.11,143.14Z"/><path d="M138.15,139.61c-.06.61-.09,1-.13,1.35-.17,1.93-.17,1.94,1.68,1.61.35-.06.7-.17.8.26s-.28.54-.59.66c-.64.25-1.56,0-1.9.67s-.06,1.74-.06,2.62a2.35,2.35,0,0,0,.05.56c.11.43,0,1,.58,1.16s.91-.26,1.18-.72c.13-.22.23-.59.59-.37s.22.49.1.76a2,2,0,0,1-2,1.26c-.89,0-1.12-.69-1.2-1.44-.06-.6-.19-1.2-.21-1.8,0-.83.11-1.8-1.21-.9a.39.39,0,0,1-.6-.14.41.41,0,0,1,.23-.58c2.11-.62,1.49-2.34,1.54-3.78,0-.33,0-.65,0-1a.75.75,0,0,1,.79-.8C138.32,139,138.15,139.5,138.15,139.61Z"/><path d="M198.55,143.41a2.69,2.69,0,0,1,2.81,3,3.49,3.49,0,0,1-3.26,3.68c-1.59,0-2.47-1-2.51-3C195.56,144.8,196.67,143.45,198.55,143.41Zm-2,3.24c0,1.46.71,2.46,1.85,2.45a2.39,2.39,0,0,0,2-2.27c0-1.31-.66-2.47-1.5-2.5A2.09,2.09,0,0,0,196.52,146.66Z"/><path d="M131.89,143.86c.75,1.43,2,2.13,2.93,3.14.48.53,1.24,1,.84,1.88s-1.24.91-2,.92a4.63,4.63,0,0,1-2.75-.84,1.5,1.5,0,0,1-.67-1.3c0-.29.06-.59.4-.64s.35.22.46.43a3,3,0,0,0,3.21,1.43c.73-.24.37-.62.07-.91-1-.94-2-1.84-2.93-2.79-.45-.44-1.1-.94-.73-1.64s1.16-.68,1.88-.55a5.54,5.54,0,0,1,1.71.58c.4.22.58.52.36.9s-.6.21-.9-.06A2.05,2.05,0,0,0,131.89,143.86Z"/><path d="M191.28,144.88H191c-.47,0-.85,1-1.25.37s.4-.92.88-1.08c.84-.29.78-1,.81-1.6s-.06-1.49,0-2.23a.76.76,0,0,1,.86-.74c.54.08.37.54.32.9,0,.18-.07.37-.1.55-.28,2-.28,2,1.67,1.57.33-.07.68-.25.77.23s-.27.53-.59.66c-2.13.85-2.13.86-2,3.15,0,.33,0,.65.07,1s.09.78.49.93.79-.13,1-.5.42-.8.81-.52,0,.77-.21,1.08a1.93,1.93,0,0,1-1.94.87c-.84-.15-.87-.91-1-1.52C191.48,147,191.4,145.94,191.28,144.88Z"/><path d="M151,146.68a8.41,8.41,0,0,1,1-3.94c.52-.78,1.24-1.35,2.08-1s.46,1.38.2,2.09a4.23,4.23,0,0,1-1.74,2.13,1,1,0,0,0-.4,1.43c.25.67.85.68,1.41.52a3.17,3.17,0,0,0,1.64-1c.22-.26.54-.44.82-.08s0,.6-.29.78a10.25,10.25,0,0,1-1.63,1.07C152.38,149.53,151,148.56,151,146.68Zm1.61-2c.69-.26.71-1,1-1.52.16-.26.08-.68-.25-.59-.73.19-.7,1-1,1.55A.36.36,0,0,0,152.63,144.71Z"/><path d="M207.56,146.17a6.35,6.35,0,0,1,1.09-3.27,1.55,1.55,0,0,1,2-.78c.85.45.47,1.34.18,2a4.85,4.85,0,0,1-1.74,2.15,1.06,1.06,0,0,0-.36,1.57c.38.67,1,.6,1.59.32a14.49,14.49,0,0,0,1.53-1c.23-.15.47-.37.72-.07s0,.43-.09.63a4.51,4.51,0,0,1-3.77,1.41C207.91,148.94,207.49,148,207.56,146.17Zm1.46-1a3.42,3.42,0,0,0,1.12-2c0-.06-.25-.21-.29-.18a2.49,2.49,0,0,0-1.06,1.95S208.86,145,209,145.21Z"/><path d="M98.19,149.21A1.39,1.39,0,0,1,96.47,148a6.68,6.68,0,0,1,1-5.18,1.53,1.53,0,0,1,2.08-.59c.76.45.35,1.24.09,1.88a5.06,5.06,0,0,1-1.8,2.24,1.14,1.14,0,0,0-.32,1.6c.3.62.87.41,1.35.33a4.63,4.63,0,0,0,1.66-1c.24-.16.52-.55.82-.14s-.07.61-.31.81A4,4,0,0,1,98.19,149.21Zm.67-6.55c-.84.92-1.36,1.54-1.26,2.69A3,3,0,0,0,98.85,142.67Z"/><path d="M85.16,143.44c0-1.07,0-2.15,0-3.21,0-.58.31-1.21,1-1.08s.32.78.26,1.17a25.21,25.21,0,0,0,0,8.22c.11.61.18,1.21.91,1.42.23.07.43.22.31.51s-.37.28-.6.26c-1.21-.1-1.46-1.07-1.6-2A24.87,24.87,0,0,1,85.16,143.44Z"/><path d="M203.65,146a7.85,7.85,0,0,1,2.07-3.3,1.94,1.94,0,0,1,1.4-.5c.54.05.66.5.59.93a.45.45,0,0,1-.73.34c-.66-.55-.92,0-1.22.38a4.69,4.69,0,0,0-1.19,4.39c.1.41.26.93-.24,1.1s-.74-.41-.86-.83a14.73,14.73,0,0,0-1.77-4.2.56.56,0,0,1,.08-.86.59.59,0,0,1,.93.26C203,144.38,203.26,145.08,203.65,146Z"/><path d="M148.23,142.67c0-.84,0-1.68,0-2.52,0-.49.11-1.16.8-1.09.87.08.45.78.37,1.2a26.16,26.16,0,0,0-.12,6.27c0,.76.09,1.61.93,2.07.2.11.41.29.21.55a.61.61,0,0,1-.63.19,1.42,1.42,0,0,1-1.14-1.25A22.17,22.17,0,0,1,148.23,142.67Z"/><path d="M88.16,145.34a18.67,18.67,0,0,1,.12-2c.07-.43.38-.82.88-.67s.3.6.2.95a8.54,8.54,0,0,0-.18,3.6,1.77,1.77,0,0,0,.44,1.15c.21.19.7.28.41.71a.93.93,0,0,1-.61.25.75.75,0,0,1-.84-.58A10.83,10.83,0,0,1,88.16,145.34Z"/><path d="M103,149.27c-.39,0-.74-.17-.72-.64s.26-.91.82-.88a.68.68,0,0,1,.66.74A.72.72,0,0,1,103,149.27Z"/><path d="M215,148.9c0,.35-.37.57-.84.52a.62.62,0,0,1-.61-.77c.07-.37.2-.75.69-.72S215,148.2,215,148.9Z"/><path d="M89.49,140.53c0,.41,0,.9-.58.88s-.49-.45-.48-.82,0-.92.53-.95S89.49,140.13,89.49,140.53Z"/><path d="M158.25,148.49c0,.7-.3,1-.79.93a.65.65,0,0,1-.63-.76c0-.47.28-.8.79-.76A.63.63,0,0,1,158.25,148.49Z"/></svg>