<svg xmlns="http://www.w3.org/2000/svg" xmlns:xlink="http://www.w3.org/1999/xlink" viewBox="0 0 250 250"><defs><style>.a{fill:#154846;}.b{fill:#d53032;}.c{fill:#fdfdfd;}.d{fill:#fdfefe;}.e{fill:#e9e7e5;}.f{fill:url(#a);}.g{fill:#fbfcfc;}</style><linearGradient id="a" x1="124.62" y1="132.75" x2="124.62" y2="90" gradientUnits="userSpaceOnUse"><stop offset="0" stop-color="#fff"/><stop offset="0.22" stop-color="#fdf5f5"/><stop offset="0.51" stop-color="#d73030"/></linearGradient></defs><title>Midscale</title><rect class="a" x="25" y="83.21" width="200" height="83.58" rx="41.79" ry="41.79"/><path class="b" d="M124.66,153.26h90.66c.87,0,.76-.11.77.76,0,1.8,0,3.6,0,5.4,0,.1,0,.2,0,.31s-.08.27-.26.27H33.38a.19.19,0,0,1-.22-.22c0-.09,0-.17,0-.26q0-2.88,0-5.75c0-.06,0-.12,0-.17,0-.31,0-.32.32-.33h91.18Z"/><path class="c" d="M33.16,143.87q0-3,0-5.93c0-.1,0-.2,0-.31s.08-.26.26-.26h2.92c.2,0,.26.07.3.27a5.18,5.18,0,0,0,.45,1.26c.23.43.48.86.67,1.31.07.15.18.26.24.39a11.15,11.15,0,0,0,.78,1.09,4.08,4.08,0,0,0,.6.87l1.54,1.53c.11.11.2.25.39.25s.16.12.23.18a3.24,3.24,0,0,0,.62.44c.6.33,1.18.7,1.79,1,.23.12.54,0,.7.27.32-.06.57.16.85.24a2.88,2.88,0,0,0,1,.17c.49.33,1,.15,1.56.19.14,0,.29,0,.4.12a.25.25,0,0,0,.24.07c.41,0,.82.11,1.22-.16.16-.11.45,0,.68,0a2.65,2.65,0,0,0,1.37-.35.71.71,0,0,1,.25,0c.07,0,.17,0,.21,0,.32-.35.83-.46,1.08-.89a3.54,3.54,0,0,0,.53-1.13s0-.09,0-.13c.38-.67.09-1.39.18-2.08-.23-.22-.11-.58-.33-.81a.37.37,0,0,1-.06-.25.44.44,0,0,0,0-.21,8.6,8.6,0,0,0-1.34-1.55c-.37,0-.5-.47-.87-.5A21.38,21.38,0,0,0,49,137.42a2.71,2.71,0,0,1-1.09-.43c-.41-.21-.9-.23-1.26-.55-.5,0-.82-.45-1.31-.42-.13,0-.18-.13-.29-.18a4.82,4.82,0,0,1-1.3-.56c-.5,0-.83-.38-1.31-.44-.33,0-.61-.33-.94-.46s-.71-.47-1.16-.48a.22.22,0,0,1-.15-.07c-.29-.36-.77-.41-1.11-.68-.05,0-.17,0-.2-.06a4.71,4.71,0,0,0-1-.71,12.72,12.72,0,0,0-1.12-.83,2.07,2.07,0,0,1-.9-1,1.55,1.55,0,0,0-.42-.49,5.51,5.51,0,0,1-.92-1.41,2.31,2.31,0,0,1-.21-.37,7.35,7.35,0,0,0-.42-1.22c-.19-.36,0-.79-.33-1.08,0,0,0-.17,0-.25q0-1.63,0-3.27c0-.16,0-.32.13-.44a.14.14,0,0,0,.05-.11c-.1-.37.13-.67.22-1a4.48,4.48,0,0,1,.44-1.17c.12-.19.21-.4.31-.6,0,0,0-.1,0-.12.33-.26.41-.71.76-1a.85.85,0,0,0,.4-.54c0-.11.16-.2.25-.29l.62-.61c.16-.16.28-.37.55-.39.07,0,.14-.1.19-.17.24-.34.64-.46.95-.71a3.44,3.44,0,0,1,.86-.43,1.22,1.22,0,0,0,.32-.2,1.34,1.34,0,0,1,.83-.38c.19,0,.26-.16.41-.21a5.23,5.23,0,0,1,1.23-.39c.21-.26.59-.09.81-.34,0,0,.16,0,.25,0s.35,0,.48-.14.19-.05.29-.06c.25,0,.52.06.74-.16.05-.05.19,0,.29,0h1a.8.8,0,0,0,.61-.14c.13-.12.34-.05.51,0s.61-.09.87.16c.06.05.19,0,.3,0H49.6c.23,0,.46-.06.65.15.05.06.19,0,.29,0s.49-.05.69.17c0,0,.14,0,.21,0,.27,0,.55-.06.78.17,0,0,.11,0,.17,0a1,1,0,0,1,.61.16c.15.1.41,0,.55.2.32,0,.55.21.85.23a2.82,2.82,0,0,1,.71.24,1.85,1.85,0,0,0,.61.14c.06,0,.13,0,.17,0,.31.29.7.17,1,.14a1,1,0,0,0,.67-.33c.21-.23.48-.4.57-.74a.43.43,0,0,1,.45-.27c.36,0,.73,0,1.09,0a1,1,0,0,0,.61-.14c.21-.14.51-.06.76,0,.08,0,.11.08.12.16s0,.2,0,.3q0,5.3,0,10.59s0,.06,0,.09c0,.43,0,.43-.44.43H58.28a.37.37,0,0,1-.39-.23c-.31-.55-.43-1.18-.75-1.73a5.51,5.51,0,0,0-.8-1.29,3.47,3.47,0,0,1-.52-.76,2,2,0,0,0-.29-.41c-.38-.39-.77-.79-1.17-1.17-.18-.17-.32-.42-.62-.44,0,0-.09-.07-.12-.12a3.34,3.34,0,0,0-1.28-.8c-.32-.15-.62-.33-.95-.46s-.65-.18-.94-.33-.83-.09-1.2-.21a11,11,0,0,0-2.78-.17c-.16,0-.32,0-.48,0s-.13,0-.17,0c-.34.23-.78.1-1.12.34-.17.12-.39.05-.6.19a5.73,5.73,0,0,0-1.35,1,2.19,2.19,0,0,0-.69,1.58c0,.23-.18.36-.19.55s.25.32.18.55.12.66.25,1a5.08,5.08,0,0,0,1.1,1.3c.11.12.26.12.39.17a9.32,9.32,0,0,1,.92.58c.26.14.56.05.79.29a2.43,2.43,0,0,0,.63.33c.22.12.48.1.71.25.39.26.91.26,1.29.58.32-.06.54.25.85.22s.24.15.37.2a6.11,6.11,0,0,0,1.23.39c.14,0,.21.14.33.19a4.74,4.74,0,0,1,1.26.55c.5,0,.82.45,1.31.42.14,0,.23.14.37.2a24.89,24.89,0,0,1,2.77,1.3,9.35,9.35,0,0,0,.95.45,7.35,7.35,0,0,1,.66.45,4.43,4.43,0,0,1,.6.39,16.18,16.18,0,0,1,1.92,1.7,6.31,6.31,0,0,1,.84,1.21,4,4,0,0,1,.45.66c.14.41.48.73.49,1.2,0,.12.13.16.16.25.07.28.32.52.23.85a.25.25,0,0,0,.09.23s.09.1.08.14c-.09.58.31,1.1.21,1.69a1.17,1.17,0,0,0,0,.73c.23.37.12.75.16,1.13,0,.07,0,.17,0,.21-.3.37-.13.81-.18,1.21,0,.18,0,.38-.14.52a.27.27,0,0,0-.05.25,1.76,1.76,0,0,1-.33,1.12c-.12.21-.11.49-.25.71-.24.39-.41.82-.68,1.21s-.52.6-.75.92a3.47,3.47,0,0,1-.53.71c-.22.18-.36.46-.68.5-.07,0-.13.11-.19.17a6.18,6.18,0,0,1-2,1.34c-.45.21-.88.43-1.31.67a.53.53,0,0,1-.28.09c-.31,0-.54.2-.84.27a5,5,0,0,0-1,.33c-.34.16-.72.08-1,.21s-.68,0-.95.18a4,4,0,0,1-1.61.18c-.07,0-.17,0-.21,0-.28.26-.63.16-1,.17-.54,0-1.08,0-1.61,0-.25,0-.52.07-.74-.16,0,0-.17,0-.25,0h-.83c-.22,0-.45,0-.65-.15s-.31,0-.46,0-.5.07-.69-.16a.14.14,0,0,0-.12,0c-.42.11-.77-.18-1.16-.2-.28-.33-.78,0-1.06-.36-.32.07-.56-.17-.84-.25a2,2,0,0,1-.82-.29.42.42,0,0,0-.29-.06.67.67,0,0,1-.52-.14c-.12-.11-.31,0-.46,0s-.35,0-.48-.14a.16.16,0,0,0-.2,0c-.32.21-.74.2-1,.42a1.14,1.14,0,0,0-.45.83c0,.24-.12.29-.33.29h-3c-.38,0-.38,0-.38-.4q0-2.16,0-4.31Q33.16,144.75,33.16,143.87Z"/><path class="c" d="M187.19,142.62a9.12,9.12,0,0,0,2.16,2.15c-.07.38-.38.6-.57.91a14.65,14.65,0,0,1-1.83,2,4.49,4.49,0,0,1-1.07.74,5.63,5.63,0,0,1-.7.47c-.46.2-.9.46-1.36.66-.14.06-.22.17-.37.21a10.37,10.37,0,0,0-1.22.42c-.36.16-.77,0-1.09.32-.09.08-.35,0-.46,0-.37.27-.78.15-1.17.18-.09,0-.2,0-.25,0-.22.22-.49.15-.74.16h-2c-.27,0-.54.06-.78-.16-.07-.07-.25,0-.38,0-.4,0-.83.12-1.21-.18-.08-.07-.25,0-.38,0s-.35,0-.48-.14a.14.14,0,0,0-.12,0c-.37.1-.67-.13-1-.23a3.63,3.63,0,0,1-.83-.28c-.22-.13-.51-.11-.75-.27s-.8-.4-1.17-.66-.5-.48-.85-.53a.13.13,0,0,1-.07,0c-.41-.48-1-.72-1.42-1.23a5.26,5.26,0,0,0-.61-.62,4.12,4.12,0,0,1-.7-1l-.1-.14a6.93,6.93,0,0,1-1.05-1.76c-.06-.16-.17-.29-.23-.45a9.26,9.26,0,0,0-.37-1.05c-.2-.35,0-.77-.33-1.08-.05-.06,0-.2,0-.3s0-.29-.12-.4a.28.28,0,0,1-.08-.24c0-.21,0-.43-.16-.61s0-.17,0-.25q0-2,0-3.92c0-.14,0-.29.12-.4a.15.15,0,0,0,.06-.11c-.1-.46.2-.85.21-1.29,0-.09,0-.19,0-.25a.49.49,0,0,0,.14-.48c0-.19.15-.32.16-.47a2.08,2.08,0,0,1,.23-.68,8,8,0,0,1,.59-1.38c.25-.36.42-.77.68-1.11s.4-.77.78-1c.34-.75,1.06-1.16,1.56-1.76.15-.19.43-.15.57-.36a.69.69,0,0,1,.54-.39,3.25,3.25,0,0,1,1.07-.67c.42-.22.87-.4,1.27-.65.32.08.57-.16.84-.24s.59-.08.82-.29.19-.05.29-.06a1.1,1.1,0,0,0,.74-.16c.11-.09.34,0,.51,0s.43,0,.61-.15.22,0,.34,0h2.66c.16,0,.32,0,.44.12s.21.07.33.07h.78c.16,0,.32,0,.44.13a.18.18,0,0,0,.12.05c.35,0,.73-.06,1,.2a1.61,1.61,0,0,1,1,.33,3.29,3.29,0,0,0,.71.23,3.79,3.79,0,0,1,1,.5c.28.16.53.37.81.53a4,4,0,0,1,.87.6l1.16,1.17c.11.11.25.2.25.39s.07.12.13.17a2.32,2.32,0,0,1,.55.75c.23.48.58.89.79,1.38.1.23.12.48.24.71a12.87,12.87,0,0,1,.43,1.22,2.62,2.62,0,0,1,.16.91.23.23,0,0,0,.08.2c.13.09.12.22.12.35s-.05.52.16.74c.06.06,0,.22,0,.34,0,.68,0,1.37,0,2,0,.24-.07.5.16.69a.15.15,0,0,1,0,.2.64.64,0,0,0-.17.52c0,.1-.08.15-.18.15H174.1c-.56,0-.55-.06-.55.54,0,1.37,0,2.73,0,4.1a2.42,2.42,0,0,0,.14.91c.13.34.28.67.42,1a1.15,1.15,0,0,0,.2.32c.08.1.21.16.21.32a.31.31,0,0,0,.2.27,9.19,9.19,0,0,0,1.12.66,2.43,2.43,0,0,1,.49.25,1.22,1.22,0,0,0,.65.16s.1,0,.13,0c.29.28.66.17,1,.17.73,0,1.45,0,2.18,0,.17,0,.35,0,.48-.13a.19.19,0,0,1,.16-.05c.32.07.57-.15.86-.2s.5-.29.76-.34a6.29,6.29,0,0,0,1.09-.43,1.33,1.33,0,0,0,.28-.19l.92-.59s.09,0,.11-.05c.4-.48,1-.7,1.4-1.19A11,11,0,0,1,187.19,142.62Zm-10.13-8.14h3.27c.4,0,.4,0,.4-.38,0-.91,0-1.83,0-2.74,0-.1,0-.23,0-.29s-.14-.45-.16-.69.06-.44-.14-.61a.21.21,0,0,1,0-.16,1.44,1.44,0,0,0-.18-.73c-.06-.15-.17-.25-.22-.41a8.7,8.7,0,0,0-.68-1.15.3.3,0,0,0-.19-.16c-.22,0-.33-.17-.46-.3s-.1-.11-.18-.11-.36-.13-.51-.15a4,4,0,0,0-1.76,0,2.75,2.75,0,0,0-1.39.95,1,1,0,0,1-.15.16,2.35,2.35,0,0,0-.64,1.13c-.1.3-.33.61-.23,1a.18.18,0,0,1-.07.19c-.14.1-.12.25-.12.4s0,.55,0,.83c0,.09,0,.21,0,.25-.23.21-.16.48-.16.74,0,.61,0,1.22,0,1.83,0,.43,0,.44.43.44Z"/><path class="d" d="M149.55,116.53a3.69,3.69,0,0,0-.81,0,.33.33,0,0,1,0-.39,1.66,1.66,0,0,0,0-1.11s-.07,0-.11,0h0c0-.26,0-.52,0-.78a3,3,0,0,0-.31-.9l0,0,0,0c0-.2-.22-.38-.11-.61h10.68c.54,0,.52,0,.52.52q0,16.06,0,32.12c0,.36,0,.73,0,1.09s0,.49.47.49h2.4c.42,0,.42,0,.42.4q0,1.33,0,2.66c0,.4,0,.41-.41.41H146.92c-.43,0-.43,0-.43-.43q0-1.29,0-2.57c0-.46,0-.47.49-.47h2.18c.42,0,.42,0,.42-.4,0,0,0,0,0,0q0-14.8,0-29.59c0-.09,0-.17,0-.26h0l0,0Z"/><path class="c" d="M204.8,128.43a1.36,1.36,0,0,1,.41-.55c.23-.22.45-.45.67-.68s.36-.28.39-.55c0-.09.14-.18.22-.26.38-.38.74-.77,1.14-1.13a4.79,4.79,0,0,1,1-.65s.09,0,.11-.06a2.18,2.18,0,0,1,1.08-.64,1.83,1.83,0,0,1,1-.26.24.24,0,0,0,.17,0c.31-.28.69-.15,1-.17s.44,0,.65,0,.47-.06.65.16a.14.14,0,0,0,.12,0c.36-.1.64.24,1,.2a.1.1,0,0,1,.08,0c.2.3.58.35.82.6s.56.58.85.87.38.34.36.65.14.34.24.49a.91.91,0,0,1,.13.53c0,.45,0,.9,0,1.35a3.12,3.12,0,0,1-.42,1.75,5.13,5.13,0,0,1-1.36,1.58,7.62,7.62,0,0,1-.94.47,1.16,1.16,0,0,1-.73.19.15.15,0,0,0-.09,0,3.14,3.14,0,0,1-1.86.16,2.45,2.45,0,0,1-1.09-.4c-.3-.17-.62-.33-.93-.48a2.4,2.4,0,0,1-.64-.48c-.31-.3-.61-.61-.93-.94-.25.32-.63.47-.71.89,0,.06-.09.11-.14.16a2.78,2.78,0,0,0-.8,1.5c-.26.21-.1.58-.33.81s0,.28,0,.42.06.55-.16.78c-.05.06,0,.19,0,.3q0,5.69,0,11.38c0,.41,0,.41.41.41h2.14c.34,0,.35,0,.35.34q0,1.39,0,2.79c0,.33,0,.34-.35.34H193.43c-.53,0-.53,0-.53-.51,0-.87,0-1.74,0-2.61,0-.33,0-.34.35-.34h2.27c.48,0,.48,0,.48-.47q0-3.38,0-6.76,0-5.69,0-11.38c0-.58,0-.55-.54-.55h-2.18c-.37,0-.38,0-.38-.36q0-1.39,0-2.79c0-.31,0-.32.32-.32h10.94c.52,0,.53-.07.53.51q0,1.63,0,3.27A.5.5,0,0,0,204.8,128.43Z"/><path class="c" d="M128.93,150.33H116.86c-.58,0-.54,0-.54-.55s0-1.37,0-2a2.3,2.3,0,0,1,.44-1.25c.22-.4.67-.63.76-1.11a3.91,3.91,0,0,0,.72-.95c.29-.37.59-.74.85-1.15a2.9,2.9,0,0,1,.67-.92A.47.47,0,0,0,120,142a.2.2,0,0,1,.09-.14,3.51,3.51,0,0,0,.78-1,6.21,6.21,0,0,0,.56-.74c.15-.29.43-.49.51-.82a.23.23,0,0,1,.06-.11c.25-.23.42-.55.64-.79a4.48,4.48,0,0,0,.72-1c.2-.41.67-.6.75-1.07,0,0,.05-.07.08-.1a4.49,4.49,0,0,0,.89-1.28s.06-.06.09-.09a4.43,4.43,0,0,0,.86-1.25l0,0c.42-.28.56-.78.91-1.13a4.93,4.93,0,0,0,.58-.87s0-.1,0-.12c.41-.27.55-.76.88-1.09a3.42,3.42,0,0,0,.62-.94.35.35,0,0,1,.09-.14c.37-.25.46-.72.8-1a.2.2,0,0,0,.06-.11c.07-.39.34-.45.67-.44h10.07c.1,0,.21,0,.26.1s0,.21-.1.3a4.26,4.26,0,0,0-.66,1,.54.54,0,0,1-.11.13,8.17,8.17,0,0,0-.91,1.26l-.57.84a3.25,3.25,0,0,0-.54.84.27.27,0,0,1-.1.14,3,3,0,0,0-.77,1,8.52,8.52,0,0,0-.89,1.42.32.32,0,0,1-.08.1,8.7,8.7,0,0,0-.91,1.26,3,3,0,0,1-.62.85c-.07.47-.64.62-.7,1.1a2.39,2.39,0,0,0-.59.82,4.63,4.63,0,0,0-.55.84c-.09.24-.39.38-.42.68a3.13,3.13,0,0,0-.76,1,5.18,5.18,0,0,0-.54.84s0,.07,0,.08c-.33.24-.42.66-.72.95a4.75,4.75,0,0,0-.6.9s0,.1-.05.12c-.32.2-.43.57-.63.85-.32.46-.68.9-1,1.36-.13.18,0,.35.18.35h2a2.07,2.07,0,0,1,1.21-.19c.29-.32.77,0,1.07-.35a.21.21,0,0,1,.17,0c.33.07.58-.14.84-.26a2,2,0,0,1,.85-.34c.17,0,.32-.14.45-.22a4.45,4.45,0,0,0,1.57-1.37,3.29,3.29,0,0,0,.67-1.53c.25-.21.14-.56.33-.81s0-.45,0-.68c0-.4,0-.41.42-.41h3.22c.4,0,.41,0,.41.42q0,4.4,0,8.8c0,.44,0,.44-.47.44H128.93Z"/><path class="c" d="M111.46,127.76c-.29.48-.57.9-.84,1.32-.17.26-.45.48-.51.82a.27.27,0,0,1-.13.17,3.88,3.88,0,0,0-.75,1,12.14,12.14,0,0,0-.77,1.15c-.16.28-.43.48-.55.74s-.43.52-.53.86-.37.32-.38.6c-.31.24-.4.64-.7.91a3.54,3.54,0,0,0-.63.94s0,.09-.05.11a2.38,2.38,0,0,0-.62.86c-.16.27-.47.47-.51.82a.17.17,0,0,1-.08.1c-.37.25-.47.72-.8,1,0,.37-.41.53-.52.87a1.64,1.64,0,0,1-.42.62,5.31,5.31,0,0,0-.76,1l-.55.84a4,4,0,0,1-.64.9,3.56,3.56,0,0,0-.68,1,1.55,1.55,0,0,1-.13.17,5.31,5.31,0,0,0-.66,1,.36.36,0,0,1-.11.13c-.36.28-.49.72-.79,1,.07.15.18.11.28.11h1.83a.47.47,0,0,0,.4-.12c.11-.12.27-.06.41-.07.35,0,.73.11,1-.17,0,0,.11,0,.17,0a1.21,1.21,0,0,0,.57-.14,2.24,2.24,0,0,1,.67-.23,5.69,5.69,0,0,0,1.16-.49,2.54,2.54,0,0,0,.59-.31c.36-.25.83-.39,1-.77s.68-.73.85-1.21a3.93,3.93,0,0,1,.21-.68,1.28,1.28,0,0,0,.19-.58c0-.42.3-.75.23-1.17,0-.2.11-.23.28-.23h3.27c.22,0,.33.07.31.3s0,.17,0,.26q0,4.27,0,8.54s0,.09,0,.13c0,.43,0,.43-.44.43H87.33c-.64,0-.6.08-.6-.62s0-1.66,0-2.48a.46.46,0,0,1,.19-.45c.22-.14.19-.44.39-.6s.4-.3.41-.58c.33-.23.37-.68.7-.9s.2-.38.34-.53a5,5,0,0,0,.92-1.31l0,0c.42-.29.6-.79.93-1.16a2.51,2.51,0,0,0,.54-.84.28.28,0,0,1,.09-.14,3.46,3.46,0,0,0,.78-1,3.62,3.62,0,0,0,.55-.74c.16-.44.66-.61.73-1.08.32-.24.38-.67.7-.91a.47.47,0,0,0,.25-.39c0-.08.07-.12.13-.17a4.25,4.25,0,0,0,.86-1.25.24.24,0,0,1,.06-.07,4.16,4.16,0,0,0,.92-1.31l0,0c.43-.29.59-.79.93-1.16a2.51,2.51,0,0,0,.55-.84s0-.09.06-.11c.42-.28.56-.78.91-1.13a5.14,5.14,0,0,0,.58-.87s0-.12.08-.15c.37-.25.5-.69.79-1s.22-.42.41-.59a.52.52,0,0,1,.42-.17h9.89A1.72,1.72,0,0,1,111.46,127.76Z"/><path class="c" d="M79.18,135.54q0,5.32,0,10.63c0,.06,0,.12,0,.17,0,.51,0,.51.53.51h2c.4,0,.4,0,.4.38q0,1.37,0,2.75c0,.34,0,.34-.34.35H67c-.56,0-.54.05-.54-.55,0-.83,0-1.66,0-2.48,0-.44,0-.44.43-.44h2.22c.44,0,.45,0,.45-.42q0-9.15,0-18.3c0-.42,0-.42-.44-.42H66.77c-.33,0-.34,0-.34-.35q0-1.39,0-2.79c0-.31,0-.32.31-.33h11.9c.57,0,.54-.05.54.54Q79.18,130.16,79.18,135.54Z"/><path class="e" d="M215.92,114.65c0,.42,0,.84,0,1.26a1.67,1.67,0,0,1-.61,1.48,2.21,2.21,0,0,1-.71.54,1.32,1.32,0,0,1-.44.12c-.9,0-1.8,0-2.7,0a1,1,0,0,1-.62-.23,2.52,2.52,0,0,1-1-1.14,5.53,5.53,0,0,1-.15-1.7c0-.58,0-1.16,0-1.74a1.61,1.61,0,0,1,.29-1c.1-.15.11-.34.26-.48a5.56,5.56,0,0,1,.78-.51,1.64,1.64,0,0,1,1.07-.2h1.65a2.28,2.28,0,0,1,1.64.76c.15.15.2.4.34.58a1.51,1.51,0,0,1,.19,1C215.92,113.81,215.92,114.23,215.92,114.65Zm-.59-.08c0-.32,0-.64,0-1a1.63,1.63,0,0,0-.19-1c-.17-.26-.26-.56-.6-.69a2.21,2.21,0,0,0-1-.27,9.27,9.27,0,0,1-1.44,0,1.53,1.53,0,0,0-1,.3c-.12.08-.32,0-.37.18a3.13,3.13,0,0,0-.43,1.36c.06.69,0,1.39,0,2.09a1.44,1.44,0,0,0,.21,1,3.42,3.42,0,0,1,.21.42.52.52,0,0,0,.28.26,2,2,0,0,0,.94.21c.52,0,1,0,1.57,0s.82.09,1.09-.33c.06-.09.25,0,.3-.14.16-.46.52-.85.43-1.4A6.28,6.28,0,0,1,215.33,114.57Z"/><path class="f" d="M215.4,102.79H168.5c-1.23,0-2.47,0-3.7,0a.8.8,0,0,1-.72-.31c-.32-.42-.87-.57-1.19-1a.23.23,0,0,0-.16-.07.36.36,0,0,1-.28-.18,2.82,2.82,0,0,0-1-.73c-.47-.31-.93-.65-1.42-.93s-.8-.55-1.21-.8c-.11-.07-.25-.06-.35-.16a5.53,5.53,0,0,0-1.56-.87,10.39,10.39,0,0,1-1.29-.67c-.42-.28-.88-.46-1.3-.72a6.2,6.2,0,0,0-1-.41c-.58-.23-1.09-.58-1.7-.77a11.78,11.78,0,0,1-1.54-.59c-.57-.27-1.18-.39-1.75-.65a3.87,3.87,0,0,0-.63-.24c-.38-.1-.75-.28-1.12-.35-.56-.11-1-.48-1.63-.46a.55.55,0,0,1-.16-.06,3.05,3.05,0,0,0-1.1-.31.37.37,0,0,1-.17,0,10.72,10.72,0,0,0-1.34-.35,3.45,3.45,0,0,0-1.17-.24l0,0c-.17-.19-.4-.14-.61-.14s-.27,0-.38-.06a.73.73,0,0,0-.45-.13,4.79,4.79,0,0,0-1.22-.2s-.08,0-.11-.06-.33-.13-.53-.12-.66.11-.95-.17c-.08-.08-.22,0-.34,0a1.89,1.89,0,0,1-.73,0,2.39,2.39,0,0,0-1.05-.16c-.07,0-.17,0-.21,0-.19-.2-.43-.14-.66-.15h-1c-.1,0-.24,0-.3,0-.22-.21-.49-.15-.74-.15H130.5a.57.57,0,0,1-.42-.08.74.74,0,0,0-.57-.14h-4c-.13,0-.29,0-.39,0-.4-.27-.85-.12-1.27-.16a.42.42,0,0,0-.34.05.78.78,0,0,1-.58.13h-4.23c-.13,0-.31,0-.38,0-.26.25-.57.18-.86.18h-1.22c-.11,0-.24,0-.33.06a.55.55,0,0,1-.45.12h-1c-.14,0-.33,0-.43,0-.32.24-.67.13-1,.16-.17,0-.39-.06-.51,0-.35.24-.73.13-1.09.16-.13,0-.27,0-.37.08a.6.6,0,0,1-.49.13c-.58-.06-1.1.34-1.69.21a.1.1,0,0,0-.08,0c-.16.16-.38.1-.57.16a3.39,3.39,0,0,1-1.13.19.12.12,0,0,0-.08,0c-.2.21-.47.15-.7.13s-.41.3-.68.23h0a1.71,1.71,0,0,0-.45.11,3.78,3.78,0,0,1-.85.26c-.38,0-.7.27-1.08.22,0,0-.05,0-.07,0a2.64,2.64,0,0,1-.84.3,1.75,1.75,0,0,1-.64.22,1.78,1.78,0,0,0-.8.25c-.41.21-.84.33-1.25.52-.12.05-.21.17-.34.18a2.42,2.42,0,0,0-1.14.46c-.76.45-1.6.75-2.34,1.26A13.08,13.08,0,0,0,94.29,97s-.09.09-.14.1c-.21,0-.33.18-.46.31-.36.36-.7.74-1.08,1.07a13.77,13.77,0,0,0-1.36,1.61,1.14,1.14,0,0,0-.3.65h0l-.07.13c-.19.06-.12.22-.15.35l0,0c-.25.11-.12.32-.12.49-.29.21-.21.57-.33.85a.4.4,0,0,0-.16.2H33.72a1.19,1.19,0,0,0-.47,0c-.21.08-.12.27-.12.41,0,1.32,0,2.64,0,4,0,.77,0,1.54,0,2.3,0,.13-.08.3.12.37a1.73,1.73,0,0,0,.73.07H92a.88.88,0,0,1,.78.28c.05.14.16.14.27.1a.9.9,0,0,0,.29.25.15.15,0,0,0,.09.14c.52.18.94.61,1.52.64.41.35,1,.32,1.43.51a2.21,2.21,0,0,0,1.19.26c.06,0,.14,0,.19.09a.5.5,0,0,0,.33.08,1,1,0,0,1,.74.16c.06.05.17,0,.25,0a7.46,7.46,0,0,0,1,.07c0,.1,0,.16.16.12s.51,0,.76.07h0a.72.72,0,0,0,.56.16c.13,0,.29,0,.38,0a.86.86,0,0,0,.69.18c.1,0,.22,0,.29,0a.74.74,0,0,0,.57.14.53.53,0,0,1,.25.06c.35.18.77.15,1.13.3,0,0,.05,0,.08,0a.42.42,0,0,0,.27,0,.19.19,0,0,0,.16.12c.07.11.17.09.27.06h.08l.21.11c.11.24.33.1.49.14.24.22.57.2.84.36.46.28,1,.45,1.42.73a1,1,0,0,1,.14-.24,1,1,0,0,0-.14.24.82.82,0,0,0,.35.35c.09.13.23.12.36.14s.12.15.2.2,0,.15.15.14l.25.39c-.08.18.07.2.18.25a.11.11,0,0,0,.1.1.2.2,0,0,0,.11.16.5.5,0,0,0,0,.29l.07.08.07.09c0,.23,0,.48.1.7a.07.07,0,0,0,.08.06c.05.15,0,.31.08.45a1.08,1.08,0,0,0,0,.41c-.08,0-.15.09-.16.19a.71.71,0,0,0,0,.44l-.08.25c-.06,0-.12,0-.11.1l-.14.32c-.17.06-.11.18-.09.3h0l-.09.08s-.07,0-.06.06l-.11.1h0a4.86,4.86,0,0,0-.62.62.15.15,0,0,0-.14.14l-.22,0h0v0l-.1.11c-.11,0-.23,0-.3.09s-.2.11-.3.17-.1,0-.12.11h0l-.06.05a.13.13,0,0,0-.13.12h0v0a1.74,1.74,0,0,0-.73.19c-.36.11-.71.25-1.07.35a3.31,3.31,0,0,1-.8.24c-.44,0-.84.3-1.29.21a.1.1,0,0,0-.08,0c-.15.19-.36.15-.56.16s-.55-.07-.78.16c0,0-.17,0-.25,0h-.83c-.1,0-.23,0-.29,0s-.4.14-.61.15h-1c-.11,0-.24,0-.33.07s-.29.12-.44.12h-2c-.13,0-.3-.08-.39.1l0,0h0a1,1,0,0,1-.55.09H91.29c-.15,0-.32-.08-.44.08h0a.74.74,0,0,1-.5.11h-2.7c-.1,0-.15.07-.12.18s0,.2,0,.3q0,3.54,0,7.08a1.78,1.78,0,0,0,0,.64c0,.12.11.12.19.12h3.8c.08,0,.18,0,.18-.13a.22.22,0,0,0,0-.17.23.23,0,0,0,.13-.14h0a2.56,2.56,0,0,0,.29-1.08h0v0s.08,0,.07-.06.08-.17.07-.27.14-.06.15-.16,0-.25.16-.34c.36-.2.4-.64.68-.89h0c.1,0,.17-.05.17-.17h0c.09,0,.17-.05.18-.17h0a.09.09,0,0,0,.09-.09h0c.12,0,.15-.08.17-.17a.41.41,0,0,0,.45-.24,8.19,8.19,0,0,0,.81-.42l0,0,0,0a.21.21,0,0,0,.14-.13.73.73,0,0,0,.35,0c.13,0,.16-.05.18-.15l.35,0s.08,0,.11,0h0a.72.72,0,0,1,.48-.13c.11,0,.25,0,.33,0s.37-.13.56-.14.42.07.55,0,.55-.12.82-.16.4.09.57-.08h0a.21.21,0,0,0,.14-.13,9.37,9.37,0,0,0,1.57,0c.12,0,.16-.14.26-.18a7.69,7.69,0,0,0,1.4,0c.13,0,.17,0,.18-.13h0c.46-.05.92,0,1.38,0,.13,0,.3.06.35-.15h0a11.89,11.89,0,0,1,1.22,0c.1,0,.24.05.29-.11l.24-.12a4,4,0,0,0,1,0,.07.07,0,0,0,.12,0h0a.19.19,0,0,0,.13-.14,5.06,5.06,0,0,0,1,0c.08,0,.11,0,.12-.11a0,0,0,0,0,0,0h.87c.12,0,.24,0,.26-.16h0l.54,0c.08,0,.17,0,.19-.11a.72.72,0,0,1,.46-.08.48.48,0,0,0,.47-.23,1.89,1.89,0,0,0,.62,0c.08,0,.15,0,.18-.06s.36-.07.52-.15a.78.78,0,0,1,.47-.14c.1,0,.2,0,.21-.15h0l.36,0c.08,0,.16,0,.18-.11a.26.26,0,0,0,.15-.12.53.53,0,0,0,.35,0c.12,0,.14-.08.18-.16l.17,0h0a12.52,12.52,0,0,0,2-1.05,3,3,0,0,0,.72-.63,3.49,3.49,0,0,0,.9-.62c.17-.17.2-.41.36-.57a1.34,1.34,0,0,0,.33-.59.29.29,0,0,0,0-.2.29.29,0,0,1,0,.2.34.34,0,0,0,.27-.24c0-.37.33-.67.25-1.05a.12.12,0,0,0,.1-.08s.08,0,.06-.09a4,4,0,0,0,0-.78.12.12,0,0,0,.09-.09.07.07,0,0,0,.07-.09.59.59,0,0,0,0-.35,5.52,5.52,0,0,0,0-.85.52.52,0,0,0-.12-.44c-.1-.1-.05-.25-.09-.37s0-.12,0-.17a4.64,4.64,0,0,0-.48-1.15c-.12-.14,0-.4-.28-.44,0-.11,0-.24-.08-.33a10.21,10.21,0,0,0-1.22-1.16,4.07,4.07,0,0,0-1.34-1.14s-.06,0-.08,0l-.19-.07a.26.26,0,0,0-.15-.12c-.41-.22-.84-.41-1.23-.65s-1.14-.4-1.66-.71a7,7,0,0,1-.88-.29c-.23-.06-.48-.08-.7-.16a2.88,2.88,0,0,1-.79-.29.47.47,0,0,0-.32-.1c-.39,0-.73-.27-1.13-.21a.11.11,0,0,1-.07,0c-.11-.13-.26-.11-.4-.12a.85.85,0,0,1-.3,0,3,3,0,0,0-1.22-.34.26.26,0,0,1-.12,0,2.81,2.81,0,0,0-1.2-.37.36.36,0,0,1-.24-.09.48.48,0,0,0-.37-.1.72.72,0,0,1-.34,0,3.27,3.27,0,0,0-1.18-.36.52.52,0,0,1-.17,0,2.81,2.81,0,0,0-1.21-.35.25.25,0,0,1-.13,0,5.62,5.62,0,0,0-1.54-.58.2.2,0,0,1-.11-.07,1.5,1.5,0,0,0-.73-.44,3.55,3.55,0,0,1-1.8-1.76,2.41,2.41,0,0,1-.4-1.51c0-.15-.16-.26-.08-.41a1.62,1.62,0,0,0,.08-.73c0-.12,0-.27,0-.34.23-.27.21-.63.37-.93a14.61,14.61,0,0,1,1.11-1.56c.18-.25.52-.27.68-.5a4.28,4.28,0,0,1,1.18-.93,8.19,8.19,0,0,1,1.25-.64c.75-.34,1.47-.74,2.25-1,.27-.1.56-.22.84-.3.57-.16,1.1-.42,1.67-.58a2.64,2.64,0,0,1,.77-.23c.4,0,.73-.28,1.13-.22,0,0,.08,0,.11-.06a.59.59,0,0,1,.44-.14.5.5,0,0,0,.41-.11.32.32,0,0,1,.24-.07c.44,0,.84-.29,1.3-.2a.15.15,0,0,0,.12,0c.14-.15.32-.12.49-.12s.45.05.6,0a1.58,1.58,0,0,1,.84-.15c.14,0,.3,0,.41-.08a.57.57,0,0,1,.48-.14c.25,0,.54.08.73,0a3.31,3.31,0,0,1,1.4-.16c.13,0,.3,0,.38,0,.27-.22.58-.14.87-.15h1c.28,0,.58.07.83-.16,0,0,.14,0,.21,0h1.35c.08,0,.18,0,.2.13a9.65,9.65,0,0,0-2.61,1.5,5.67,5.67,0,0,0-1.67,1.8,1.28,1.28,0,0,1-.23.26c-.07.07-.17.13-.2.22a4.79,4.79,0,0,0-.65,1.88.27.27,0,0,1-.08.2.47.47,0,0,0-.09.37c0,.48,0,1,0,1.44,0,.09,0,.2,0,.25a.67.67,0,0,1,.14.53.58.58,0,0,0,.09.33c.12.19.19.41.3.61a5.36,5.36,0,0,0,1,1.47,8.38,8.38,0,0,0,1.26,1.12c.28.17.57.39.85.57s.45.36.7.48c.67.34,1.36.66,2,1a8.45,8.45,0,0,1,1.32.56,2.94,2.94,0,0,0,.91.36,12,12,0,0,1,1.39.51,6,6,0,0,0,.79.28c.46.13.92.29,1.37.43a2.42,2.42,0,0,1,.65.19,7.48,7.48,0,0,0,1.69.53c.26.1.55.16.8.27s.45.06.65.2a3.39,3.39,0,0,0,1,.35.18.18,0,0,0,.18.16c.1,0,.23,0,.3,0a12.64,12.64,0,0,0,1.37.59,5.25,5.25,0,0,1,.89.5c.27.22.61.32.85.56,0,0,.14,0,.21,0a1.09,1.09,0,0,0,.24.3l1.23,1.26h0c0,.14,0,.24.15.27,0,.26.19.39.26.59a.11.11,0,0,0,.08.12l.05.07c0,.3-.07.61.18.86a.23.23,0,0,1,0,.17c-.05.53.16,1.1-.19,1.59a.12.12,0,0,0,0,.08c.07.4-.2.7-.33,1h0a.36.36,0,0,0-.06.27,7.54,7.54,0,0,0-1.05,1l-.35.31c-.14.13-.25.31-.41.37-.61.22-1.08.69-1.68.93a2.39,2.39,0,0,1-.28.07,1,1,0,0,0-.7.39c-.31,0-.54.27-.85.22-.3.29-.72.15-1.08.33a1.79,1.79,0,0,1-1.15.22.14.14,0,0,0-.12,0c-.16.21-.39.13-.6.15s-.4-.07-.55.05a.78.78,0,0,1-.57.14h-1.22c-.11,0-.26,0-.34,0s-.37.14-.57.14h-3.31c-.14,0-.31,0-.42.07s-.32.12-.49.12h-4.83c-.07,0-.09.05-.09.12a1.15,1.15,0,0,0,0,.43c0,.9,0,1.8,0,2.7,0,1.66,0,3.31,0,5,0,.14-.09.32.1.43h.09c1.16,0,2.32,0,3.48,0,0,0,.06,0,.08,0,.2-.13.07-.34.12-.5a.1.1,0,0,0,.1-.08c.17-.15,0-.39.16-.55a6.35,6.35,0,0,0,.34-.93s.06,0,0,0h0v0c.19-.05.1-.21.12-.33a.26.26,0,0,0,.16-.16.11.11,0,0,0,.12-.1l.14-.16a.08.08,0,0,0,.1-.08h0v-.09l-.07,0,.07,0,.07-.17h0a1.42,1.42,0,0,0,.35-.36c.11-.07.3,0,.36-.15l.09-.1,0,0v0a.24.24,0,0,0,.15-.16h0v0a3.51,3.51,0,0,0,.42-.25c.17-.09.42-.09.52-.3.12,0,.29.06.35-.14h0c.11-.09.31,0,.37-.18h0l.06-.08a.12.12,0,0,0,.13,0,10.57,10.57,0,0,0,1.17-.26s0,0,0,0a.21.21,0,0,0,.16-.09,6.61,6.61,0,0,0,1.05,0c.11.06.14,0,.13-.09h0v0c.33,0,.65,0,1,0a.53.53,0,0,0,.51-.24,2.28,2.28,0,0,0,1-.06.43.43,0,0,0,.2-.14,1.68,1.68,0,0,0,.76,0c.09,0,.14-.08.19-.15h.78c.1,0,.21,0,.25-.13l.54,0c.09,0,.21,0,.22-.13l0,0a3.9,3.9,0,0,1,.69,0c.09,0,.21,0,.24-.11l.05-.07.08,0c.21,0,.45.08.63-.06a.71.71,0,0,1,.48-.13c.14,0,.3,0,.36-.16a.07.07,0,0,0,.1-.05c.19,0,.39.07.5-.17h.51c.08,0,.17,0,.19-.11h0a.89.89,0,0,1,.37-.06c.08,0,.17,0,.19-.1a.41.41,0,0,1,.35-.12.26.26,0,0,0,.31-.17.09.09,0,0,0,.11,0c.15,0,.32.08.42-.1s.3,0,.36-.16l.06-.08a.2.2,0,0,1,.2-.12.2.2,0,0,0-.2.12c.17,0,.39.1.53-.11h0l.16-.12a.45.45,0,0,0,.28,0s.08,0,.1,0a.09.09,0,0,0,.08-.09l.13-.07a.1.1,0,0,0,.14,0c.12.1.11,0,.12-.08a0,0,0,0,0,0,0c.12,0,.28.08.33-.13v0a1.41,1.41,0,0,0,.71-.31h0l.22-.16c.11,0,.18,0,.21-.1a.16.16,0,0,0,.12-.09.14.14,0,0,0,.14,0,5.59,5.59,0,0,0,1.16-.64,3,3,0,0,0,.76-.66c.12,0,.26.06.32-.11a0,0,0,0,0,0,0h0v0a1.44,1.44,0,0,0,.41-.41s.05,0,0,0a2.35,2.35,0,0,0,.43-.44h0l.06-.07a1.3,1.3,0,0,0,.43-.42h0v0h0l.07-.07h0a.24.24,0,0,0,.17-.18h0a.23.23,0,0,0,.17-.18h0c.17-.07.1-.24.16-.36h0c.2-.05.12-.23.16-.35a.23.23,0,0,0,.18-.19c.1,0,.17,0,.13-.16a.66.66,0,0,0,0-.36.3.3,0,0,0,.21-.3c0-.1,0-.22,0-.29s.14-.38.14-.6-.08-.47.13-.64a.33.33,0,0,1,0-.39,1.66,1.66,0,0,0,0-1.11s-.07,0-.11,0h0c0-.26,0-.52,0-.78a3,3,0,0,0-.31-.9l0,0,0,0c0-.2-.22-.38-.11-.61-.07-.08-.17,0-.25-.07h0a1.93,1.93,0,0,0-.55-.8.42.42,0,0,1-.14-.16,2.26,2.26,0,0,0-.88-1c0-.15-.18-.22-.27-.34a8.47,8.47,0,0,0-1-.79c-.29-.29-.71-.39-1-.7-.31,0-.43-.31-.69-.43-.72-.32-1.39-.72-2.11-1a6.63,6.63,0,0,0-1.6-.71,2,2,0,0,1-.6-.18,6.7,6.7,0,0,0-1.55-.59,4.5,4.5,0,0,0-1.26-.34.25.25,0,0,1-.12,0,2.47,2.47,0,0,0-1.2-.37.33.33,0,0,1-.2-.06.61.61,0,0,0-.45-.12c-.11,0-.24,0-.33-.08s-.26-.1-.41-.11a.9.9,0,0,1-.26,0,4.28,4.28,0,0,0-1.33-.4c-.16,0-.28-.18-.48-.17a3.11,3.11,0,0,1-1.05-.29,5.1,5.1,0,0,0-.79-.27,10.18,10.18,0,0,1-1.56-.44,2.12,2.12,0,0,1-.65-.19,11.62,11.62,0,0,0-1.63-.73,7.33,7.33,0,0,1-1.84-1.15c-.34-.3-.49-.74-.82-1.05,0-.38-.2-.71-.23-1.08a1.61,1.61,0,0,1,.16-1.09.45.45,0,0,0,0-.21,2.25,2.25,0,0,1,.57-1.31,5.37,5.37,0,0,1,1.75-1.37,7.67,7.67,0,0,1,1.1-.45,2,2,0,0,1,1.12-.23.21.21,0,0,0,.17,0c.23-.22.52-.14.78-.16s.33,0,.46-.07a.6.6,0,0,1,.45-.11h4.18c.1,0,.23,0,.3,0,.31.24.67.14,1,.16.13,0,.28,0,.38,0a.84.84,0,0,0,.7.13c.27,0,.43.25.7.19a1.63,1.63,0,0,1,1.07.25c.38.19.8.15,1.18.32.17.07.34.24.55.2a1,1,0,0,1,.76.23c.28.22.66.09.9.36.48,0,.83.33,1.28.44s.87.53,1.41.58c.85.54,1.83.84,2.65,1.45.42.32,1,.48,1.41.79a11.5,11.5,0,0,1,1.46,1,.21.21,0,0,0,.12.05c.2,0,.3.16.42.29s.16.21.25.23c.35.07.53.35.74.57s.57.28.76.55a5.42,5.42,0,0,0,.46.47,34.32,34.32,0,0,1,3,3.15c.28.39.68.68.94,1.12a9.77,9.77,0,0,0,.59.89,4.43,4.43,0,0,1,.42.59,15.81,15.81,0,0,1,.76,1.53.68.68,0,0,0,.75.49h56.75c.57,0,.58,0,.58-.58q0-2.92,0-5.84C216.13,102.7,216.15,102.79,215.4,102.79ZM96.34,127.69a.28.28,0,0,1,.22-.11A.28.28,0,0,0,96.34,127.69Zm37-1.36.07-.06-.07.06Zm5.87-7.73,0,.13Zm1.18,5.73h0Z"/><path class="e" d="M79.19,116.16c.07-.37-.22-.54-.42-.75a.5.5,0,0,1-.18-.28.43.43,0,0,0-.34-.36.52.52,0,0,1-.32-.2c-.24-.33-.68-.41-.94-.73a.14.14,0,0,0-.12,0c-.29.07-.51-.13-.71-.25a1.19,1.19,0,0,0-.61-.15c-.13,0-.29,0-.38,0s-.4-.14-.61-.15H73.36c-.29,0-.61-.08-.86.17a.21.21,0,0,1-.17,0c-.6-.15-1,.44-1.57.42-.21.31-.6.37-.85.63s-.34.48-.67.52c-.08,0-.11.09-.11.17s-.07.15-.12.22a2.33,2.33,0,0,0-.65,1.6c0,.16-.13.27-.13.39s.17.25.13.43a1.54,1.54,0,0,0,.22.94c.15.35.47.6.59,1a.14.14,0,0,0,.1.07c.27,0,.39.24.54.4a2.41,2.41,0,0,0,.88.57c.34.15.64.42,1.05.4.17.2.41.18.64.18a.24.24,0,0,1,.2.06c.12.15.28.13.44.13h1.7c.13,0,.28,0,.37-.07s.28-.12.44-.13.21,0,.25,0c.25-.24.61-.17.89-.35.43-.28,1-.4,1.31-.84a.44.44,0,0,1,.25-.15,4.82,4.82,0,0,0,1-1.24,4.11,4.11,0,0,1,.29-.87.65.65,0,0,0,.06-.61C79.27,116.91,79.52,116.45,79.19,116.16Z"/><path class="e" d="M110.35,117.12c0,.06,0,.1.05.12h0l.08,0-.07-.09Z"/><path class="e" d="M149.55,116.53v0h.05l0,0Z"/><ellipse class="e" cx="122.19" cy="131.58" rx="0.01" ry="0.01" transform="translate(-41.7 58.2) rotate(-23)"/><path class="g" d="M211.27,114.54c0-.54,0-1.07,0-1.61,0-.23.09-.31.31-.3h1.48c.11,0,.24,0,.32.08a.33.33,0,0,0,.32.1.35.35,0,0,1,.36.19c.2.39.52.78.13,1.25,0,0,0,.16-.06.2s-.14.27,0,.38a.59.59,0,0,1,.2.54c0,.28-.08.58.16.82a.17.17,0,0,1-.06.26.92.92,0,0,1-.73-.13.4.4,0,0,1-.13-.35c0-.26,0-.52,0-.78s-.07-.27-.26-.26h-1c-.19,0-.26.08-.26.26s0,.64,0,1,0,.32-.32.33-.44,0-.45-.42S211.27,115.05,211.27,114.54Zm1.57-1.15h-.13c-.73,0-.75,0-.68.75,0,.17.09.23.24.23s.58,0,.87,0,.46-.24.45-.65,0-.32-.45-.33Z"/></svg>