<svg id="Layer_1" data-name="Layer 1" xmlns="http://www.w3.org/2000/svg" viewBox="0 0 250 250"><defs><style>.cls-1{fill:#d31245;}</style></defs><title>Coke_Dine</title><path class="cls-1" d="M98.4,119.8c7.92-7.7,19.17-1.34,19.17,6.41v21.47a5.64,5.64,0,0,0,1.67,4.42H106c1.2-.9,1.52-2.42,1.52-4.42V126.2a4.07,4.07,0,1,0-8.11,0v21.48a5.58,5.58,0,0,0,2,4.42H87.8a5.42,5.42,0,0,0,1.89-4.42V126.2c0-5.92-8-5.92-8,0v21.48c0,2,.27,3.53,1.14,4.42H69.75a5.06,5.06,0,0,0,1.89-4.42V128.41c0-3.93-.86-6-3.1-7.47l13.18-4,0,3.09c3.9-4.42,12-5.32,16.66-.19Z"/><path class="cls-1" d="M121.68,109.32c0-3.31,2.32-6,5.18-6s5.18,2.69,5.18,6-2.32,6-5.18,6-5.18-2.69-5.18-6Z"/><path class="cls-1" d="M153.72,147.53c-1.66,1.32-5.75.61-5.75-3.07v-24h5l1.67-3.51h-6.89v-8.6l-12.28,12.2h1.64c.86,0,1.24.51,1.24,2v22.11c0,4.3,3.94,8.16,8.86,8.16s6.21-2,7.43-3.51a12.84,12.84,0,0,0,.83-1.58l-1-.79s-.23.17-.76.61Z"/><path class="cls-1" d="M167.12,119.49V102.07l-12.88,5.27c2.27.88,2.8,2.2,2.8,5.27v35.08a5.17,5.17,0,0,1-1.89,4.42h13.11c-1-1-1.14-2.42-1.14-4.42V126.2c0-5.91,8-5.9,8,0v21.48a5.37,5.37,0,0,1-1.89,4.42h13.1a6,6,0,0,1-2-4.42V126.2c0-8.14-10.32-13.79-17.2-6.71Z"/><path class="cls-1" d="M185.18,116.6a4.72,4.72,0,0,1-4-5c0-2.9,2-5.22,4.5-5.22s4.51,2.32,4.51,5.22c-.28,3.87-1.5,6.77-4.23,9.15-.39.39-.83-.13-.11-1.09a3,3,0,0,0,.55-2.38c-.11-.39-.5-.52-1.22-.65Z"/><path class="cls-1" d="M210.45,150.27a2.29,2.29,0,1,1,2.28,2.55,2.4,2.4,0,0,1-2.28-2.55Zm2.28,2.12a2.14,2.14,0,1,0-1.83-2.12,1.95,1.95,0,0,0,1.83,2.12Zm-.48-.65h-.39v-2.93h1c.61,0,.92.26.92.83a.73.73,0,0,1-.67.81l.74,1.29h-.44l-.68-1.27h-.45v1.27Zm.47-1.64c.33,0,.63,0,.63-.48s-.29-.43-.56-.43h-.53v.91h.47Z"/><path class="cls-1" d="M57.3,140.37c0-12.49-19.23-15.46-21.59-27.82C33.24,99.61,47.27,94.66,54,98.32c4.44,2.41,6.12,1.09,8.41-.17v16.69a.56.56,0,0,1-1.1.15c-1.66-4.85-3.52-9.68-7.44-12.51-7.93-5.73-13.5,3.41-3.5,11.43,5.36,4.3,16.72,10.89,17.66,20.83,0,.46,1.57,10.44-6.69,15.85-2.69,1.76-7.39,2.73-12.1,2-6.1-.89-6.27-2.9-9.25-3.28-2.51-.32-4.49,2.41-5,2.74,0-.11,0-11.83,0-17.64a.89.89,0,0,1,1.17.3,20.39,20.39,0,0,0,7.64,11.8c2.91,2.13,13.48,3.5,13.48-6.19Z"/><path class="cls-1" d="M203,144.61c-.58-8.23-13.29-10.07-14.54-18.26-1.4-9.2,9.12-11.75,13.9-9.34,3.15,1.58,4.34.72,6-.12v11a.39.39,0,0,1-.78.1c-1.18-3.18-2.41-6.49-5.27-8.22-5.06-3-9.21,2.74-2.11,7.15,6,3.72,11,8.27,11.54,14,0,.31,1.11,6.85-4.75,10.4a14.12,14.12,0,0,1-8.58,1.34c-4.33-.58-4.45-1.9-6.56-2.15-1.78-.21-3.19,1.39-3.55,1.59,0-.08,0-7.56,0-11.38a.67.67,0,0,1,.83.2,13.4,13.4,0,0,0,5.42,7.75c2.07,1.4,8.94,2.29,8.49-4.06Z"/><path class="cls-1" d="M133.35,116.9l-13.18,4c2.27,1.47,3.11,3.58,3.11,7.47v19.26a5.15,5.15,0,0,1-1.89,4.42h14.24c-1.63-.84-2.27-2.42-2.27-4.48V116.9Z"/></svg>