<?xml version="1.0" encoding="utf-8"?>
<!-- Generator: Adobe Illustrator 20.1.0, SVG Export Plug-In . SVG Version: 6.00 Build 0)  -->
<svg version="1.1" id="Layer_1" xmlns="http://www.w3.org/2000/svg" xmlns:xlink="http://www.w3.org/1999/xlink" x="0px" y="0px"
	 viewBox="0 0 26.1 22.7" style="enable-background:new 0 0 26.1 22.7;" xml:space="preserve">
<style type="text/css">
	.st0{fill:none;stroke:#000000;stroke-width:0.25;stroke-miterlimit:10;}
	.st1{fill:none;stroke:#000000;stroke-linecap:round;stroke-linejoin:round;stroke-miterlimit:10;}
	.st2{fill:none;stroke:#000000;stroke-width:0.75;stroke-linecap:round;stroke-linejoin:round;stroke-miterlimit:10;}
	.st3{fill:none;}
	.st4{clip-path:url(#SVGID_2_);}
	.st5{clip-path:url(#SVGID_4_);}
	.st6{clip-path:url(#SVGID_6_);}
	.st7{fill:#010002;stroke:#000000;stroke-width:0.7;stroke-miterlimit:10;}
	.st8{stroke:#231F20;stroke-width:0.1;stroke-miterlimit:10;}
	.st9{stroke:#231F20;stroke-width:0.25;stroke-miterlimit:10;}
	.st10{stroke:#000000;stroke-width:0.25;stroke-miterlimit:10;}
	.st11{fill:none;stroke:#000000;stroke-width:0.75;stroke-miterlimit:10;}
	.st12{clip-path:url(#SVGID_8_);}
	.st13{fill:none;stroke:#000000;stroke-width:0.5;stroke-miterlimit:10;}
</style>
<g>
	<path class="st3" d="M22.7,1.9c-0.7,1-1.8,1.7-3.1,1.7c-1.3,0-2.4-0.7-3.1-1.7c-0.7,1-1.8,1.7-3.1,1.7c-1.3,0-2.4-0.7-3.1-1.7
		c-0.7,1-1.8,1.7-3.1,1.7c-0.1,0-0.2,0-0.2,0V14h1V4.4h13.4V14h4.8V3.6c-0.1,0-0.1,0-0.2,0C24.6,3.6,23.4,2.9,22.7,1.9z"/>
	<g>
		<g>
			<path class="st8" d="M2.6,22.7c-0.1,0-0.2-0.1-0.2-0.1c0,0,0-0.1,0-0.3l0-4c0-2.4,0-4.8,0-7.3c0-0.3-0.1-0.5-0.4-0.6
				c-0.9-0.4-1.4-1.1-1.7-2c0-0.1-0.1-0.3-0.1-0.5c0-0.1,0-0.1,0-0.2V7.2c0,0,0.1-0.1,0.1-0.1l0.9-1.6C2,3.7,3,2,4,0.3
				c0.1-0.1,0.1-0.2,0.2-0.3h17.7c0,0,0,0,0,0c0.1,0.1,0.2,0.1,0.2,0.2c0.9,1.5,1.7,3,2.5,4.4c0.4,0.6,0.7,1.2,1,1.9l0.4,0.7v0.2
				c0,0,0,0.1,0,0.1c-0.1,1.3-0.8,2.2-1.9,2.8c-0.3,0.1-0.4,0.4-0.4,0.7c0,3.7,0,7.5,0,11.2v0c0,0.1,0,0.1,0,0.2
				c0,0.1,0,0.2-0.3,0.2l-20.7,0C2.7,22.7,2.7,22.7,2.6,22.7L2.6,22.7z M2.9,22.2h20.4V10.7l-0.4,0c0,0-0.1,0-0.1,0
				c-1.2,0-2.2-0.5-3-1.5l-0.3-0.5l-0.3,0.5c-0.7,1-1.7,1.5-2.8,1.5c-1.2,0-2.1-0.5-2.9-1.5l-0.3-0.5l-0.3,0.5
				c-0.7,0.9-1.7,1.5-2.9,1.5c-1.1,0-2.2-0.5-2.9-1.5L6.7,8.8L6.3,9.3c-0.7,1-1.7,1.5-3,1.5c0,0-0.1,0-0.1,0l-0.4,0V22.2z M19.8,7.8
				c0.2,1.2,1.3,2.4,2.9,2.4h0c1.6,0,2.7-1.2,2.9-2.4l0.1-0.5h-5.9L19.8,7.8z M7,7.8c0.2,1.2,1.3,2.4,2.9,2.4c0.1,0,0.2,0,0.3,0
				c1.3-0.1,2.5-1.3,2.6-2.4l0-0.4H6.9L7,7.8z M13.4,7.8c0.1,1.2,1.3,2.4,2.9,2.4c0,0,0.1,0,0.1,0c1.5-0.1,2.6-1.3,2.8-2.4l0.1-0.5
				h-5.9L13.4,7.8z M0.6,7.8c0,0.5,0.2,1,0.6,1.5c0.6,0.6,1.5,1,2.3,1l0,0c1.6,0,2.7-1.4,2.8-2.4l0-0.4H0.6L0.6,7.8z M4.8,0.5
				c-0.3,0-0.5,0.1-0.6,0.3C3.5,2.2,2.7,3.5,2,4.8L1.3,6c0,0,0,0.1-0.1,0.1L0.9,6.8h24.3l-0.3-0.6c0,0,0-0.1,0-0.1l-0.3-0.6
				c-0.9-1.5-1.8-3.1-2.7-4.7c-0.1-0.2-0.4-0.3-0.6-0.3c-3.5,0-7,0-10.5,0L4.8,0.5z"/>
		</g>
	</g>
	<path d="M16.3,15h-0.4c-0.1-1.2-0.8-2.3-1.9-2.7l-0.1,0.3c1,0.4,1.6,1.3,1.7,2.4h-4.9c0.1-1.2,0.9-2.2,1.9-2.5v0.8h-0.4v0.4H14
		v-0.4h-0.4v-3h-1.1v1.9c-0.6,0.1-1.2,0.5-1.6,1c-0.4,0.5-0.7,1.2-0.7,1.8H9.9V16h0.6l0.5,6h4.2l0.5-6h0.6V15z M13.3,10.6v2.6h-0.4
		v-2.6H13.3z M11.3,21.7l-0.1-1.3h3.7l-0.1,1.3H11.3z M15.2,17.4h-3.9v0.4h3.9L15,20h-3.8l-0.3-4h4.4L15.2,17.4z M15.9,15.7h-5.7
		v-0.4h5.7V15.7z"/>
</g>
</svg>
