<svg xmlns="http://www.w3.org/2000/svg" viewBox="0 0 250 250"><title>CR</title><path d="M214.87,177.1c-2.53-4.92-6.83-7.45-11.61-9.36a57.53,57.53,0,0,0-11.9-3.13,137.05,137.05,0,0,0-22.15-1.71c-12.5,0-25,0-37.51,0q-18.31,0-36.62,0A83.76,83.76,0,0,1,72.38,160,53.61,53.61,0,0,1,52,149.6,46.39,46.39,0,0,1,36.8,125.22,55.79,55.79,0,0,1,35.15,107,66.8,66.8,0,0,1,47,73.29a1.16,1.16,0,0,1,.39-.38c-.08.18-.15.36-.23.54a67.21,67.21,0,0,0-5.75,17.43,43.24,43.24,0,0,0,1.45,22.31A37.43,37.43,0,0,0,58,132.08a59.53,59.53,0,0,0,18.22,7.84,97.74,97.74,0,0,0,15,2.58,170.6,170.6,0,0,0,17.76.56q12.24-.05,24.49-.07c10.47,0,20.95-.08,31.42,0,4.52,0,9.05.24,13.57.54a71.57,71.57,0,0,1,17.23,3,33.77,33.77,0,0,1,8.47,3.94,23.15,23.15,0,0,1,10.08,15.17A40.9,40.9,0,0,1,214.87,177.1ZM136.13,153.8a2.05,2.05,0,0,1-.11-.26c-.27-1.18-.43-1.32-1.6-1.46a.75.75,0,0,1-.21,0c-.92-.42-1.42-.38-2,.41s-.95,1.55-1.48,2.28a19.76,19.76,0,0,1-1.92,2.29.59.59,0,0,1-1-.22,2.82,2.82,0,0,1,.34-2.5,43.75,43.75,0,0,0,2.61-3.76c.85-1.48,1.54-3,2.27-4.6a1.15,1.15,0,0,0-.37-1.5,1.79,1.79,0,0,0-1.86-.41c-.65.23-.68.8-.87,1.3-1,2.77-2.11,5.53-3.13,8.3a1.07,1.07,0,0,1-.88.8.74.74,0,0,0-.48.28,6.26,6.26,0,0,1-3.22,3c-1.14.48-1.72,0-1.58-1.25a1,1,0,0,1,0-.11,8.89,8.89,0,0,1,2.26-4.23,2.85,2.85,0,0,1,.64-.39l.1.13c-.2.54-.4,1.08-.59,1.62-.13.38-.15.74.27,1a.73.73,0,0,0,1.07-.28,7.37,7.37,0,0,0,.76-1.94,1.34,1.34,0,0,0-.42-1.07,2.32,2.32,0,0,0-3.23.19,8.47,8.47,0,0,0-2.3,4.45,2.08,2.08,0,0,0,2.17,2.67,4.81,4.81,0,0,0,3.91-1.93c.32-.37.59-.77.88-1.16a2.33,2.33,0,0,0,1.21,2.67c1.2.58,2.09-.11,2.94-.93a1.89,1.89,0,0,0,1.94,1.35,2.56,2.56,0,0,0,2-.8,6.42,6.42,0,0,0,1.29-1.92A1.84,1.84,0,0,1,137,154.6c-.56.86-1.18,1.67-1.75,2.52a2.19,2.19,0,0,0-.16.79c.24,0,.47-.05.71-.06a2,2,0,0,1,.82,0c.49.22.93.54,1.4.8a1.23,1.23,0,0,0,1.41.08,1.43,1.43,0,0,0,.67-1.44,16.8,16.8,0,0,0-.42-1.79,5.12,5.12,0,0,1-.25-2.85,19.5,19.5,0,0,1,1-2.18,3.67,3.67,0,0,0-.45-.29c-.92-.46-1.29-.3-1.44.71a3.83,3.83,0,0,1-1.8,2.62A4.41,4.41,0,0,1,136.13,153.8Zm-55.46-5,.14.06c-.09.94-.21,1.89-.26,2.83s-.07,1.9,0,2.85a15,15,0,0,0,.3,2.66,1.33,1.33,0,0,0,2.31.64,2.7,2.7,0,0,0,.54-.77c.31-.62.57-1.25.86-1.88a110.57,110.57,0,0,1,5.62-10.54c.36-.6.22-.81-.49-.85A1.78,1.78,0,0,0,88,144.91a98.6,98.6,0,0,0-5.38,10.47c-.09.2-.19.4-.29.61l-.17,0c0-.74,0-1.49,0-2.23a30.67,30.67,0,0,1,.77-6.42.68.68,0,0,0-.46-.88,1,1,0,0,0-1.19.12,13.59,13.59,0,0,0-1.35,1.41,43.8,43.8,0,0,0-4.19,6.72l-.27.48-.15-.06c.37-1.69.73-3.38,1.13-5.06s.77-3.07,1.15-4.61c.18-.76-.19-1.11-1-.89a1.41,1.41,0,0,0-1.05,1.06c-.36,1.46-.78,2.92-1,4.4-.39,2.22-.68,4.45-1,6.68a1,1,0,0,0,.87,1.17,1.17,1.17,0,0,0,1.47-.7c.65-1.19,1.25-2.41,1.93-3.59C78.75,152,79.72,150.39,80.67,148.82ZM110.61,155c1,.38,1.63.34,2.27-.32a6.26,6.26,0,0,0,1.28-1.79c.6-1.36.36-1.77-1-2.24a1.56,1.56,0,0,0-2.16.64,9.22,9.22,0,0,0-1.76,3.7,2.85,2.85,0,0,1-1.1,1.68,2.73,2.73,0,0,1-.8.29,2.4,2.4,0,0,1-.21-.81,6.69,6.69,0,0,1,1.9-3.94c.43-.44.42-.81-.17-1a1.28,1.28,0,0,0-1,.11.86.86,0,0,1-1,.17c-.16-.45-.19-.89-.42-1.06-.43-.32-.93-.11-1.35.17a1.11,1.11,0,0,0-.45.47.73.73,0,0,0,.06.64c.26.23.19.43.12.69a8.66,8.66,0,0,1-2.61,3.94,2.7,2.7,0,0,1-.74.39,2.32,2.32,0,0,1,0-.84c.5-1.1,1-2.18,1.57-3.26.29-.6.21-1-.42-1a5.77,5.77,0,0,1-2.11-.56c-.64-.33-1.31.1-1.84.54A8.26,8.26,0,0,0,95.91,156a3.11,3.11,0,0,0-.09.72,1.28,1.28,0,0,0,1.51,1.42,5.17,5.17,0,0,0,1.71-.73,8,8,0,0,0,1.12-1c0,.07,0,.21,0,.35a1.18,1.18,0,0,0,1.63,1.08,1.89,1.89,0,0,0,.81-.47c1.16-1.29,2.5-2.46,3.1-4.17.16-.47.42-.57.85-.25a7.81,7.81,0,0,0-.4,1,18,18,0,0,0-.61,2.59A1.34,1.34,0,0,0,107,158a2.19,2.19,0,0,0,1.68-.62l.5-.46a1.85,1.85,0,0,0,1.95,1.19,6.17,6.17,0,0,0,4.74-3.6c0-.18-.12-.42-.19-.63a1.81,1.81,0,0,0-.51.29c-.67.76-1.28,1.6-2,2.3a4.12,4.12,0,0,1-1.52.78.7.7,0,0,1-1-.63A14.73,14.73,0,0,1,110.61,155Zm48.94,2.16a2,2,0,0,0,2.63,1.26,2.86,2.86,0,0,0,1.73-1.15c.42-.61.73-1.29,1.1-1.93.09-.16.21-.38.37-.42a4.07,4.07,0,0,0,1.93-1.38c.24-.28.73-.58.34-1s-.67.14-1,.36l-1.26,1c-.07-.25-.11-.34-.12-.43-.22-1.05-.49-1.3-1.54-1.39a.83.83,0,0,1-.31-.09,1.24,1.24,0,0,0-1.68.17,9.21,9.21,0,0,0-1.22,1.52c-.46.7-.82,1.46-1.29,2.15a4.79,4.79,0,0,1-1.08,1.11c-.5.37-.86.16-.87-.46a4.57,4.57,0,0,1,.09-.94,29.44,29.44,0,0,1,2.08-6.12.68.68,0,0,1,.49-.31c1.39-.1,2.79-.17,4.18-.27.18,0,.36-.18.53-.28a2.61,2.61,0,0,0-.41-.48.92.92,0,0,0-.48-.13q-1-.06-2.06-.08c-.53,0-1.06,0-1.64,0,.14-.32.27-.63.42-.92s0-.48-.25-.6a1,1,0,0,0-1.27.39,2.29,2.29,0,0,0-.33.65c-.14.55-.48.67-1,.7a24.31,24.31,0,0,0-2.66.31c-.17,0-.31.25-.47.39.15.15.27.39.44.44a4.19,4.19,0,0,0,1,.12c.58,0,1.16,0,1.78,0-.37,1.09-.75,2.12-1.07,3.17a11.63,11.63,0,0,0-.77,4,1.47,1.47,0,0,0,2,1.48A9.83,9.83,0,0,0,159.55,157.15Zm26.58-.83c0,.09,0,.19,0,.3A1.45,1.45,0,0,0,188,158.1a2.22,2.22,0,0,0,1.08-.63c.57-.7,1.05-1.48,1.56-2.23.21-.32.09-.56-.23-.72s-.51,0-.66.3c-.29.52-.57,1-.91,1.54a3.36,3.36,0,0,1-.74.75c-.3.23-.55.14-.55-.27a3.74,3.74,0,0,1,.12-1.27c.4-1.09.87-2.17,1.34-3.23.22-.51.18-.74-.3-1a.93.93,0,0,0-1.38.56q-1,2.13-2.06,4.2a3.77,3.77,0,0,1-.83,1,.6.6,0,0,1-.55.11.75.75,0,0,1-.27-.55,2.07,2.07,0,0,1,.15-.87c.53-1.21,1.06-2.42,1.66-3.58a.61.61,0,0,0-.22-.93,1,1,0,0,0-1.35.35,19.38,19.38,0,0,1-1.4,1.63,5.83,5.83,0,0,1-1,.66c-.06-.21-.09-.3-.11-.38-.22-1.05-.5-1.3-1.54-1.39a.63.63,0,0,1-.31-.1A1.15,1.15,0,0,0,178,152a6.6,6.6,0,0,0-2.37,4.7,1.58,1.58,0,0,0,1.3,1.66,2.7,2.7,0,0,0,2.87-.93,16.33,16.33,0,0,0,1.29-2.13c.08-.14.13-.34.26-.4.37-.18.77-.31,1.18-.47-.08.34-.16.64-.22.95a3.05,3.05,0,0,0-.11.94,2.32,2.32,0,0,0,.37,1.11,1.47,1.47,0,0,0,2.19.21A14.73,14.73,0,0,0,186.13,156.32ZM142,154.94a1.76,1.76,0,0,0,2.35-.33,5.92,5.92,0,0,0,1.28-2c.47-1.42.15-1.8-1-2l-.11,0a1.52,1.52,0,0,0-2.08.6,9.58,9.58,0,0,0-1.85,3.9,4.87,4.87,0,0,0-.1,1.38,1.64,1.64,0,0,0,1.7,1.65,3.76,3.76,0,0,0,2.84-.94,9.64,9.64,0,0,0,3.17-4c.18-.52.45-.48.74-.28a26.76,26.76,0,0,0-.9,3.27,1.57,1.57,0,0,0,2.45,1.65,6.57,6.57,0,0,0,2.53-3,.54.54,0,0,0-.21-.48.59.59,0,0,0-.51.11c-.15.12-.21.35-.33.51-.48.61-1,1.23-1.47,1.8a.75.75,0,0,1-.69.18c-.16-.08-.25-.45-.23-.67a6.68,6.68,0,0,1,1.92-4c.43-.44.41-.81-.18-1a1.27,1.27,0,0,0-1,.11,1,1,0,0,1-1.17.08.91.91,0,0,0,0-.33c-.08-.24-.13-.56-.31-.68a1.4,1.4,0,0,0-1.6.46,1.82,1.82,0,0,0-.21.75s.11.1.14.16.18.34.14.47a7.73,7.73,0,0,1-3,4.48,4.58,4.58,0,0,1-1.25.58.72.72,0,0,1-1-.67A16.07,16.07,0,0,1,142,154.94Zm31.16,1.48a1.16,1.16,0,0,1,0,.24c-.21.87-.4,1.74-.65,2.6-.56,1.89-1.08,2.15-3,1.55l-.11,0a.93.93,0,0,1-.75-.72c-.08-.4-.37-.64-.79-.41a.53.53,0,0,0-.12.87,6.65,6.65,0,0,0,1.77,1.4c1.4.62,4.41-.53,4.7-2.71a28.86,28.86,0,0,1,1.2-4.86,10.84,10.84,0,0,1,1.28-2.46c.3-.47.34-.78-.11-1.09a1.06,1.06,0,0,0-1.65.59,12.37,12.37,0,0,1-2.53,4.55,5.7,5.7,0,0,1-.65.57c-.06-.19-.13-.28-.12-.35a9.21,9.21,0,0,1,1.46-3.88c.31-.48.33-.63-.2-.87a.91.91,0,0,0-1.17.22,6.41,6.41,0,0,0-1.5,4.88,1.14,1.14,0,0,0,1.88.81A10.58,10.58,0,0,0,173.18,156.42ZM87.92,155a1.79,1.79,0,0,0,2.16-.18,4.18,4.18,0,0,0,1.58-2.55c.19-1,0-1.25-1-1.51a2.2,2.2,0,0,1-.42-.15,1.27,1.27,0,0,0-1.62.32,8.57,8.57,0,0,0-2.29,5.27,1.74,1.74,0,0,0,1.93,2,6.07,6.07,0,0,0,4.82-3.57c.06-.19-.13-.44-.2-.67-.17.1-.41.17-.5.32a7.28,7.28,0,0,1-2.27,2.5,4.77,4.77,0,0,1-1.26.57.69.69,0,0,1-.94-.6A14.94,14.94,0,0,1,87.92,155Z" style="fill:#a51e36"/><path d="M150.06,131.88V138h-4.41v-16.8c-.2.18-.32.27-.43.38a9.78,9.78,0,0,1-3.56,2.25.54.54,0,0,0-.43.69,11.6,11.6,0,0,1-.36,4.48,6.6,6.6,0,0,1-6.21,5.09,9.18,9.18,0,0,1-6.82-1.89,1.18,1.18,0,0,0-1.36-.08c-.56.3-1.08.66-1.62,1a6.11,6.11,0,0,1-5,.78,2.79,2.79,0,0,1-2.23-2.38c-.19-1.42-.22-2.85-.32-4.28-.07-1-.1-2-.27-2.94a2,2,0,0,0-1.51-1.89,2.29,2.29,0,0,0-2.33,1.12,4.36,4.36,0,0,0-.86,2.61c0,2.27,0,4.55-.06,6.82,0,1.12.09,1-.94,1h-3.23V129l-2.31.4a2.2,2.2,0,0,1,.45-2,7.53,7.53,0,0,0,1.84-5.25q0-3,.06-5.92c0-.3,0-.59,0-.94h4.15v5.56a2.05,2.05,0,0,0,.25-.23,4.34,4.34,0,0,1,5.15-1.85,4.41,4.41,0,0,1,3.31,4.16c.16,1.63.19,3.27.36,4.9a10.26,10.26,0,0,0,.54,2.6c.73,1.9,2.46,2.27,4,.92l.24-.23a1.14,1.14,0,0,0,.33-1.49,8.56,8.56,0,0,1-.28-5.32,6.87,6.87,0,0,1,5.38-5.37c3.2-.75,6.09-.15,8.24,2.45a2.16,2.16,0,0,0,2.76.61,4.84,4.84,0,0,0,2.78-2.75l.22-.54h4l.45,0v2.06c1.29-1.78,3.07-2.07,4.88-2.16a6.54,6.54,0,0,1,7,5.86,12.2,12.2,0,0,1-.43,5.19,5.75,5.75,0,0,1-4,4,6.66,6.66,0,0,1-6.46-.88A12.94,12.94,0,0,1,150.06,131.88Zm7.76-5.67a25.58,25.58,0,0,0-.49-2.76,3.11,3.11,0,0,0-3-2.39,3.22,3.22,0,0,0-3.06,2.34,8.59,8.59,0,0,0,.13,5.64,3.17,3.17,0,0,0,3.07,2.17,3.06,3.06,0,0,0,2.8-2.28A23.32,23.32,0,0,0,157.82,126.21Zm-20.8.14a26.77,26.77,0,0,0-.52-3,2.76,2.76,0,0,0-2.56-2.14,2.83,2.83,0,0,0-2.77,2,8.21,8.21,0,0,0-.42,2,8.6,8.6,0,0,0,.49,4.17,2.81,2.81,0,0,0,2.44,1.94,2.72,2.72,0,0,0,2.83-2.14A24.71,24.71,0,0,0,137,126.35Z" style="fill:#a51e36"/><path d="M82.79,86.23V82.37h4.82v3.88h7c-.45,1.06-.86,2.07-1.3,3.05,0,.1-.31.16-.47.16H87.7a1.57,1.57,0,0,0-.06.29c0,2.29.06,4.58.12,6.87A5.89,5.89,0,0,0,88,97.9,2.45,2.45,0,0,0,91.14,100a3.77,3.77,0,0,0,3.22-2.59,28.83,28.83,0,0,0,.8-3.81c.17-.91.25-1.84.42-2.76a5.28,5.28,0,0,1,4-4.28,6.93,6.93,0,0,1,5.67.54,4.8,4.8,0,0,1,2.36,5,4.36,4.36,0,0,1-3.67,4,24.17,24.17,0,0,1-3.82.34c-.5,0-.65.18-.66.64a2.42,2.42,0,0,0,.63,1.63,4.86,4.86,0,0,0,3.52,1.82,7.12,7.12,0,0,0,6.38-2.9,3.85,3.85,0,0,0,.86-2.48c0-2.22,0-4.43.06-6.65,0-.18,0-.36,0-.58h4.63c0,.34,0,.67,0,1,0,2.63,0,5.25,0,7.88a5,5,0,0,0,.68,2.67,1.77,1.77,0,0,0,3.3-.09,6,6,0,0,0,.63-2.92q0-3.69,0-7.38c0-.15,0-.29,0-.51H124c0,.2,0,.42,0,.64,0,2.46-.06,4.92,0,7.38a9.48,9.48,0,0,0,.58,2.7,1.77,1.77,0,0,0,3.33.1,6.7,6.7,0,0,0,.65-2.33c.06-2.25,0-4.5-.08-6.75a1.6,1.6,0,0,1,.59-1.49c1-.79,1.9-1.67,3-2.63.25,1,.53,1.91.69,2.83a26.16,26.16,0,0,1,.22,8.29c-.62,4.25-4.47,6-8.13,4.81a21.84,21.84,0,0,1-2.83-1.4c-4.48,3-8.19,2.28-10.62-2.23a10,10,0,0,1-7.81,3.95,9.34,9.34,0,0,1-7.93-4.08,3,3,0,0,1-.35.59,10.25,10.25,0,0,1-5.83,3.29,8.35,8.35,0,0,1-3,0c-2.31-.51-3.54-2.15-3.6-4.68s0-4.92-.07-7.38c0-.22,0-.44,0-.71H79.36c.29-1.06.55-2.06.85-3,0-.1.3-.18.45-.19C81.35,86.22,82,86.23,82.79,86.23Zm20.72,5.28a3.78,3.78,0,0,0-.7-2.25,1.61,1.61,0,0,0-2.6-.14A4.06,4.06,0,0,0,99.94,94a1.63,1.63,0,0,0,2.67.11A3.88,3.88,0,0,0,103.51,91.52Z" style="fill:#a51e36"/><path d="M62.18,105.32a25.69,25.69,0,0,1-9.67-1.77,7.09,7.09,0,0,1-4.45-4.75c-1-3.61,1.53-5.61,4-6a8.43,8.43,0,0,1,4.2.19,6.34,6.34,0,0,1,1.33.69.67.67,0,0,1,.29.53c0,.14-.3.28-.5.33a14.82,14.82,0,0,0-1.89.48,6.88,6.88,0,0,0-1.89,1.14,2.57,2.57,0,0,0-.31,3.54,5.34,5.34,0,0,0,3,2.1,22.55,22.55,0,0,0,13.84-.2,6.17,6.17,0,0,0,2.92-2,3.06,3.06,0,0,0-.62-4.39,11.59,11.59,0,0,0-4.59-1.8c-2.78-.53-5.57-1-8.35-1.48A18.11,18.11,0,0,1,53.62,90a16.63,16.63,0,0,1-3-2.21c-2.43-2.26-2.71-7.94,1-10.3a17,17,0,0,1,6.22-2.37,29.34,29.34,0,0,1,15.67,1.19A13.5,13.5,0,0,1,76.62,78a4.48,4.48,0,0,1,2,3.34,3.7,3.7,0,0,1-1.81,3.75A5.91,5.91,0,0,1,72.5,86c-.22,0-.54-.24-.56-.4s.2-.43.37-.61a3.33,3.33,0,0,1,.54-.39,2.88,2.88,0,0,0,.66-4.22,6.39,6.39,0,0,0-3.13-2.25,19.65,19.65,0,0,0-11.7-.51,7,7,0,0,0-3.35,1.93A2.92,2.92,0,0,0,55.7,84a13.48,13.48,0,0,0,5.81,2.3c3.09.58,6.2,1,9.29,1.6a14.15,14.15,0,0,1,5.79,2.22A6.65,6.65,0,0,1,78,99.82a11.81,11.81,0,0,1-3.5,2.75A21.49,21.49,0,0,1,66.41,105C65,105.16,63.59,105.21,62.18,105.32Z" style="fill:#a51e36"/><path d="M151,87.82c0,.25,0,.45,0,.65q0,4.61,0,9.22a2.46,2.46,0,0,0,1.93,2.75,2.87,2.87,0,0,0,3.43-1.62,10.54,10.54,0,0,0,.66-3.36c0-1.76-.18-3.53-.32-5.29a1.65,1.65,0,0,0-.4-.76,1.73,1.73,0,0,1-.11-2.21,2.11,2.11,0,0,1,2.35-.86,4.3,4.3,0,0,1,.89.79c.21.18.41.44.65.51a6.19,6.19,0,0,0,3.31,0c2.09-.54,3,.21,3.06,2.37,0,2,0,4,.12,6a11.62,11.62,0,0,0,.43,2.24,2.74,2.74,0,0,0,4.27,1.45,5.1,5.1,0,0,0,2-3.19,10.48,10.48,0,0,0,.19-2c0-1.43,0-2.87.05-4.3,0-.53-.17-.67-.66-.65-.91,0-1.82,0-2.81,0,.27-1,.51-2,.8-3,0-.12.3-.23.46-.24.69,0,1.37,0,2.15,0V82.48h4.84v3.85h7a20.07,20.07,0,0,0-.9,2.16,1.4,1.4,0,0,1-1.72,1.15c-1.22-.1-2.46,0-3.69,0h-.56c-.06.1-.09.13-.09.16a38.16,38.16,0,0,0,.32,7.57,4,4,0,0,0,1,2.19,3,3,0,0,0,3.14.75,5.69,5.69,0,0,0,2.91-2.34c.11-.15.17-.36.32-.45a3.2,3.2,0,0,1,.66-.27c0,.2.13.43.08.61a6.48,6.48,0,0,1-2.39,3.22,8.28,8.28,0,0,1-5.06,1.46,5.79,5.79,0,0,1-5.42-3.3c0-.08-.09-.15-.18-.29l-.33.55a6.11,6.11,0,0,1-6.67,2.83A5.13,5.13,0,0,1,163,97.45c-.1-1.5-.14-3-.23-4.52a7.32,7.32,0,0,0-.22-1.09,1.64,1.64,0,0,0-1.07-1.26c-.71-.26-1.43-.49-2.22-.75,0,.39,0,.64,0,.9a28.16,28.16,0,0,1-.33,6.46c-.52,2.28-1.58,4.2-4,4.93-2.94.91-5.64.49-7.81-1.91-.09-.1-.16-.21-.24-.32-.47.39-.86.76-1.29,1.07a7.45,7.45,0,0,1-4.52,1.53A5.88,5.88,0,0,1,136,99.34a9.52,9.52,0,0,1,.62-10.27,7.53,7.53,0,0,1,8.86-2.25,2.45,2.45,0,0,1,.82.46,2.15,2.15,0,0,0,1.83.56C149.06,87.8,150,87.82,151,87.82Zm-4.71,5.92c0-.38,0-.87-.1-1.35a8.68,8.68,0,0,0-.31-1.36,2.74,2.74,0,0,0-3.83-1.65c-3.48,1.66-3.68,7.12-1.45,9.21a3.15,3.15,0,0,0,5-.95A9.71,9.71,0,0,0,146.33,93.74Z" style="fill:#a51e36"/><path d="M88.76,134.42a18,18,0,0,0,6.93-1.21,6,6,0,0,0,2.44-1.72,2.9,2.9,0,0,0-.55-4.15,11.62,11.62,0,0,0-4.74-1.86c-2.81-.55-5.64-1-8.44-1.58a16.31,16.31,0,0,1-5.5-2.11,7.07,7.07,0,0,1-3.58-4.63,7.53,7.53,0,0,1,.27-4.07,5.19,5.19,0,0,1,1.78-2.45,13.87,13.87,0,0,1,6-2.51,28.61,28.61,0,0,1,15.29,1,9.35,9.35,0,0,1,3.87,2.47,4,4,0,0,1,1,3.76,3.32,3.32,0,0,1-1.56,2.22,6,6,0,0,1-4,1,3.09,3.09,0,0,1-.81-.38c.18-.26.34-.53.54-.77a2.14,2.14,0,0,1,.41-.29,2.73,2.73,0,0,0,.63-3.94,6.07,6.07,0,0,0-3-2.22,18.67,18.67,0,0,0-11-.58,6.89,6.89,0,0,0-3.29,1.81,2.79,2.79,0,0,0,.3,4.34,12.81,12.81,0,0,0,5.54,2.24c2.76.54,5.54.93,8.29,1.49a32.14,32.14,0,0,1,4.22,1.21,7.66,7.66,0,0,1,3,2c2.49,2.61,1.68,6.7-.16,8.54A15,15,0,0,1,95.19,136a28,28,0,0,1-15.32-.37,9,9,0,0,1-3.9-2.2,6.2,6.2,0,0,1-1.85-4.3,3.86,3.86,0,0,1,1.7-3.34,5.33,5.33,0,0,1,2.73-1,7.36,7.36,0,0,1,4.31.56c.34.18.81.56.81.86,0,.49-.6.34-1,.42a6.66,6.66,0,0,0-2.86,1.19,2.56,2.56,0,0,0-.47,3.76,6,6,0,0,0,3.33,2.12A23.53,23.53,0,0,0,88.76,134.42Z" style="fill:#a51e36"/><path d="M200.36,105.45a21.69,21.69,0,0,1-8.59-1.44,5.61,5.61,0,0,1-3.25-3.34,3.59,3.59,0,0,1,2.59-4.95,6.66,6.66,0,0,1,3.7.09,4.36,4.36,0,0,1,1,.55.49.49,0,0,1,.2.4c0,.12-.22.24-.36.28a9.44,9.44,0,0,0-1.25.28,6.38,6.38,0,0,0-1.64.9,2,2,0,0,0-.33,2.76,4.43,4.43,0,0,0,2.36,1.7,16.61,16.61,0,0,0,5.9.74,12.59,12.59,0,0,0,4.76-.84,8.12,8.12,0,0,0,1.91-1.12,2.32,2.32,0,0,0-.13-3.85A10.16,10.16,0,0,0,203,96.06c-2.48-.49-5-.91-7.44-1.47a10.93,10.93,0,0,1-5-2.62c-2.08-1.89-2.26-6.52.9-8.33a14.84,14.84,0,0,1,5.41-1.81,23,23,0,0,1,10,.65,15.64,15.64,0,0,1,3.25,1.44,4,4,0,0,1,2.07,2.85,3,3,0,0,1-1.39,3.06,5,5,0,0,1-2.87.76,2.59,2.59,0,0,1-.65-.12c-.37-.12-.42-.36-.15-.62a5.1,5.1,0,0,1,.58-.44,2.25,2.25,0,0,0,.48-3.34,5,5,0,0,0-2.42-1.73,15.48,15.48,0,0,0-9-.44,5.58,5.58,0,0,0-2.62,1.42,2.3,2.3,0,0,0,.19,3.53,9.44,9.44,0,0,0,4.12,1.76c2.46.49,5,.85,7.4,1.38a18.07,18.07,0,0,1,3.8,1.24,4.94,4.94,0,0,1,3,3.55,5.15,5.15,0,0,1-1.51,5,13,13,0,0,1-6.89,3.2C202.73,105.26,201.15,105.36,200.36,105.45Z" style="fill:#a51e36"/><path d="M174.72,135.3a13.26,13.26,0,0,0,5-.84,7.37,7.37,0,0,0,1.67-1,2.22,2.22,0,0,0,0-3.52,8.94,8.94,0,0,0-4-1.56c-2.38-.5-4.78-.93-7.15-1.48a9.63,9.63,0,0,1-4.11-2.06,5.31,5.31,0,0,1-1.42-6.24,4.26,4.26,0,0,1,1.64-1.86,12.2,12.2,0,0,1,5.45-1.83,21.51,21.51,0,0,1,9.76.87,11.72,11.72,0,0,1,3,1.52,3.25,3.25,0,0,1,1.46,3.55,2.49,2.49,0,0,1-1,1.55,4.51,4.51,0,0,1-3.17.81,2.64,2.64,0,0,1-.69-.3,2.55,2.55,0,0,1,.44-.58c1.52-1.1,1.64-2.47.31-3.8a6.9,6.9,0,0,0-3.74-1.73,14.22,14.22,0,0,0-6.58,0,5.24,5.24,0,0,0-2.55,1.43,2.1,2.1,0,0,0,.18,3.12,10.12,10.12,0,0,0,4.64,1.94c2.37.49,4.75.89,7.12,1.36a8.86,8.86,0,0,1,3.46,1.5,4.9,4.9,0,0,1,.27,7.85,13.17,13.17,0,0,1-5.91,2.62,22.17,22.17,0,0,1-10.93-.5,5.89,5.89,0,0,1-3.41-2.19,6.3,6.3,0,0,1-.94-2.11,3.31,3.31,0,0,1,2.81-4,6.06,6.06,0,0,1,3.36.19,1.16,1.16,0,0,1,.36.15c.26.22.5.45.76.68l-.86.36a11.66,11.66,0,0,0-2.08.88,1.91,1.91,0,0,0-.45,2.84,4.34,4.34,0,0,0,2.25,1.57A16.56,16.56,0,0,0,174.72,135.3Z" style="fill:#a51e36"/><path d="M187.26,83.32l1-4.9,1.8,1-2.72,3.94Z" style="fill:#a51e36"/><path d="M136.13,153.8a4.41,4.41,0,0,0,.6-.3,3.83,3.83,0,0,0,1.8-2.62c.15-1,.52-1.17,1.44-.71a3.67,3.67,0,0,1,.45.29,19.5,19.5,0,0,0-1,2.18,5.12,5.12,0,0,0,.25,2.85,16.8,16.8,0,0,1,.42,1.79,1.43,1.43,0,0,1-.67,1.44,1.23,1.23,0,0,1-1.41-.08c-.47-.26-.91-.59-1.4-.8a2,2,0,0,0-.82,0c-.24,0-.47,0-.71.06a2.19,2.19,0,0,1,.16-.79c.57-.85,1.19-1.66,1.75-2.52a1.84,1.84,0,0,0-1.55,1.16,6.42,6.42,0,0,1-1.29,1.92,2.56,2.56,0,0,1-2,.8,1.89,1.89,0,0,1-1.94-1.35c-.85.82-1.74,1.51-2.94.93a2.33,2.33,0,0,1-1.21-2.67c-.29.39-.57.8-.88,1.16a4.81,4.81,0,0,1-3.91,1.93,2.08,2.08,0,0,1-2.17-2.67,8.47,8.47,0,0,1,2.3-4.45,2.32,2.32,0,0,1,3.23-.19,1.34,1.34,0,0,1,.42,1.07,7.37,7.37,0,0,1-.76,1.94.73.73,0,0,1-1.07.28c-.42-.23-.4-.59-.27-1,.19-.54.39-1.08.59-1.62l-.1-.13a2.85,2.85,0,0,0-.64.39,8.89,8.89,0,0,0-2.26,4.23,1,1,0,0,0,0,.11c-.14,1.23.44,1.74,1.58,1.25a6.26,6.26,0,0,0,3.22-3,.74.74,0,0,1,.48-.28,1.07,1.07,0,0,0,.88-.8c1-2.77,2.09-5.53,3.13-8.3.19-.51.22-1.08.87-1.3a1.79,1.79,0,0,1,1.86.41,1.15,1.15,0,0,1,.37,1.5c-.72,1.55-1.41,3.12-2.27,4.6a43.75,43.75,0,0,1-2.61,3.76,2.82,2.82,0,0,0-.34,2.5.59.59,0,0,0,1,.22,19.76,19.76,0,0,0,1.92-2.29c.54-.73.92-1.58,1.48-2.28s1.11-.83,2-.41a.75.75,0,0,0,.21,0c1.17.14,1.33.29,1.6,1.46A2.05,2.05,0,0,0,136.13,153.8Zm-4.32,3c.08.14.16.51.35.59s.54-.08.81-.16a.66.66,0,0,0,.25-.21,5.13,5.13,0,0,0,1.43-3.12,1,1,0,0,0-.28-.76c-.14-.1-.56,0-.74.17A5.23,5.23,0,0,0,131.8,156.76Zm-3.6-4.14.16.06a34.64,34.64,0,0,0,3.33-6.67.83.83,0,0,0,.08-.32,3.21,3.21,0,0,0-.12-.49c-.13.1-.32.17-.39.31q-.44.87-.82,1.77C129.68,149.06,128.95,150.85,128.21,152.63Zm10.56,4.83-.61-2.63-1.26,2Z" style="fill:#fff"/><path d="M80.67,148.82c-.95,1.57-1.92,3.14-2.83,4.73-.68,1.18-1.28,2.4-1.93,3.59a1.17,1.17,0,0,1-1.47.7,1,1,0,0,1-.87-1.17c.29-2.23.58-4.47,1-6.68.26-1.48.68-2.93,1-4.4a1.41,1.41,0,0,1,1.05-1.06c.76-.22,1.14.13,1,.89-.37,1.54-.78,3.07-1.15,4.61s-.75,3.37-1.13,5.06l.15.06.27-.48a43.8,43.8,0,0,1,4.19-6.72,13.59,13.59,0,0,1,1.35-1.41,1,1,0,0,1,1.19-.12.68.68,0,0,1,.46.88,30.67,30.67,0,0,0-.77,6.42c0,.74,0,1.49,0,2.23l.17,0c.1-.2.2-.4.29-.61A98.6,98.6,0,0,1,88,144.91a1.78,1.78,0,0,1,1.66-1.11c.7,0,.84.25.49.85a110.57,110.57,0,0,0-5.62,10.54c-.29.63-.55,1.26-.86,1.88a2.7,2.7,0,0,1-.54.77,1.33,1.33,0,0,1-2.31-.64,15,15,0,0,1-.3-2.66c0-.95,0-1.9,0-2.85s.17-1.89.26-2.83Z" style="fill:#fff"/><path d="M110.61,155a14.73,14.73,0,0,0,0,1.67.7.7,0,0,0,1,.63,4.12,4.12,0,0,0,1.52-.78c.73-.7,1.33-1.53,2-2.3a1.81,1.81,0,0,1,.51-.29c.07.21.24.45.19.63a6.17,6.17,0,0,1-4.74,3.6,1.85,1.85,0,0,1-1.95-1.19l-.5.46A2.19,2.19,0,0,1,107,158a1.34,1.34,0,0,1-1.41-1.52,18,18,0,0,1,.61-2.59,7.81,7.81,0,0,1,.4-1c-.43-.32-.69-.22-.85.25-.6,1.71-1.94,2.88-3.1,4.17a1.89,1.89,0,0,1-.81.47,1.18,1.18,0,0,1-1.63-1.08c0-.14,0-.28,0-.35a8,8,0,0,1-1.12,1,5.17,5.17,0,0,1-1.71.73,1.28,1.28,0,0,1-1.51-1.42,3.11,3.11,0,0,1,.09-.72,8.26,8.26,0,0,1,2.79-4.41c.52-.44,1.2-.87,1.84-.54a5.77,5.77,0,0,0,2.11.56c.62.07.71.42.42,1-.53,1.08-1.08,2.16-1.57,3.26a2.32,2.32,0,0,0,0,.84,2.7,2.7,0,0,0,.74-.39,8.66,8.66,0,0,0,2.61-3.94c.06-.26.14-.46-.12-.69a.73.73,0,0,1-.06-.64,1.11,1.11,0,0,1,.45-.47c.42-.27.92-.49,1.35-.17.23.17.26.62.42,1.06a.86.86,0,0,0,1-.17,1.28,1.28,0,0,1,1-.11c.59.18.6.55.17,1a6.69,6.69,0,0,0-1.9,3.94,2.4,2.4,0,0,0,.21.81,2.73,2.73,0,0,0,.8-.29,2.85,2.85,0,0,0,1.1-1.68,9.22,9.22,0,0,1,1.76-3.7,1.56,1.56,0,0,1,2.16-.64c1.37.47,1.6.88,1,2.24a6.26,6.26,0,0,1-1.28,1.79C112.24,155.32,111.64,155.37,110.61,155Zm-13.36,2.29a2.51,2.51,0,0,0,.54-.19,9.61,9.61,0,0,0,3.16-4.37c.15-.36-.12-.57-.45-.45a2.75,2.75,0,0,0-1,.59,9,9,0,0,0-2.16,3.6A4.36,4.36,0,0,0,97.25,157.27ZM113,152.53a2,2,0,0,0-.29-.57.4.4,0,0,0-.39.06,17,17,0,0,0-1.14,1.79c-.07.14.11.54.28.63a.69.69,0,0,0,.65-.2C112.47,153.69,112.74,153.09,113,152.53Z" style="fill:#fff"/><path d="M159.55,157.15A9.83,9.83,0,0,1,158,158a1.47,1.47,0,0,1-2-1.48,11.63,11.63,0,0,1,.77-4c.32-1,.7-2.08,1.07-3.17-.61,0-1.2,0-1.78,0a4.19,4.19,0,0,1-1-.12c-.17-.05-.3-.29-.44-.44.16-.13.3-.36.47-.39a24.31,24.31,0,0,1,2.66-.31c.54,0,.88-.15,1-.7a2.29,2.29,0,0,1,.33-.65,1,1,0,0,1,1.27-.39c.29.12.42.28.25.6s-.28.6-.42.92c.58,0,1.11,0,1.64,0q1,0,2.06.08a.92.92,0,0,1,.48.13,2.61,2.61,0,0,1,.41.48c-.18.1-.35.27-.53.28-1.39.1-2.79.16-4.18.27a.68.68,0,0,0-.49.31,29.44,29.44,0,0,0-2.08,6.12,4.57,4.57,0,0,0-.09.94c0,.62.37.83.87.46a4.79,4.79,0,0,0,1.08-1.11c.47-.69.83-1.45,1.29-2.15a9.21,9.21,0,0,1,1.22-1.52,1.24,1.24,0,0,1,1.68-.17.83.83,0,0,0,.31.09c1.05.09,1.33.34,1.54,1.39,0,.09,0,.17.12.43l1.26-1c.29-.22.57-.75,1-.36s-.1.68-.34,1a4.07,4.07,0,0,1-1.93,1.38c-.15,0-.27.26-.37.42-.37.64-.68,1.32-1.1,1.93a2.86,2.86,0,0,1-1.73,1.15A2,2,0,0,1,159.55,157.15Zm1.55-.38c.08.14.16.5.36.58s.54-.08.81-.16a.67.67,0,0,0,.25-.21,5.13,5.13,0,0,0,1.42-3.13,1,1,0,0,0-.28-.75c-.14-.1-.56,0-.74.17A5.23,5.23,0,0,0,161.1,156.77Z" style="fill:#fff"/><path d="M186.13,156.32a14.73,14.73,0,0,1-1.35,1.36,1.47,1.47,0,0,1-2.19-.21,2.32,2.32,0,0,1-.37-1.11,3.05,3.05,0,0,1,.11-.94c.06-.31.14-.61.22-.95-.41.16-.81.28-1.18.47-.12.06-.17.27-.26.4a16.33,16.33,0,0,1-1.29,2.13,2.7,2.7,0,0,1-2.87.93,1.58,1.58,0,0,1-1.3-1.66A6.6,6.6,0,0,1,178,152a1.15,1.15,0,0,1,1.54-.06.63.63,0,0,0,.31.1c1,.09,1.33.34,1.54,1.39,0,.09,0,.17.11.38a5.83,5.83,0,0,0,1-.66,19.38,19.38,0,0,0,1.4-1.63,1,1,0,0,1,1.35-.35.61.61,0,0,1,.22.93c-.6,1.17-1.13,2.38-1.66,3.58a2.07,2.07,0,0,0-.15.87.75.75,0,0,0,.27.55.6.6,0,0,0,.55-.11,3.77,3.77,0,0,0,.83-1q1.08-2.08,2.06-4.2a.93.93,0,0,1,1.38-.56c.48.26.53.49.3,1-.47,1.07-.94,2.14-1.34,3.23a3.74,3.74,0,0,0-.12,1.27c0,.4.26.49.55.27a3.36,3.36,0,0,0,.74-.75c.33-.49.61-1,.91-1.54.15-.26.3-.48.66-.3s.45.4.23.72c-.5.75-1,1.53-1.56,2.23a2.22,2.22,0,0,1-1.08.63,1.45,1.45,0,0,1-1.92-1.48C186.13,156.51,186.13,156.41,186.13,156.32Zm-8.93.46c.08.14.16.5.36.58s.54-.08.81-.17a.67.67,0,0,0,.25-.21,5.16,5.16,0,0,0,1.42-3.13c0-.25-.08-.65-.23-.72a.91.91,0,0,0-.79.15A5.2,5.2,0,0,0,177.2,156.77Z" style="fill:#fff"/><path d="M142,154.94a16.07,16.07,0,0,0,0,1.68.72.72,0,0,0,1,.67,4.58,4.58,0,0,0,1.25-.58,7.73,7.73,0,0,0,3-4.48c0-.13-.08-.32-.14-.47s-.15-.12-.14-.16a1.82,1.82,0,0,1,.21-.75,1.4,1.4,0,0,1,1.6-.46c.18.12.23.44.31.68a.91.91,0,0,1,0,.33,1,1,0,0,0,1.17-.08,1.27,1.27,0,0,1,1-.11c.59.17.61.55.18,1a6.68,6.68,0,0,0-1.92,4c0,.23.07.59.23.67a.75.75,0,0,0,.69-.18c.52-.57,1-1.19,1.47-1.8.13-.16.18-.39.33-.51a.59.59,0,0,1,.51-.11.54.54,0,0,1,.21.48,6.57,6.57,0,0,1-2.53,3,1.57,1.57,0,0,1-2.45-1.65,26.76,26.76,0,0,1,.9-3.27c-.28-.2-.56-.23-.74.28a9.64,9.64,0,0,1-3.17,4,3.76,3.76,0,0,1-2.84.94,1.64,1.64,0,0,1-1.7-1.65,4.87,4.87,0,0,1,.1-1.38,9.58,9.58,0,0,1,1.85-3.9,1.52,1.52,0,0,1,2.08-.6l.11,0c1.16.17,1.48.56,1,2a5.92,5.92,0,0,1-1.28,2A1.76,1.76,0,0,1,142,154.94Zm2.41-2.41c-.12-.27-.15-.46-.26-.55a.42.42,0,0,0-.39,0,2.86,2.86,0,0,0-1.17,1.82.73.73,0,0,0,.3.63.7.7,0,0,0,.65-.23C143.9,153.67,144.16,153.07,144.43,152.53Z" style="fill:#fff"/><path d="M173.18,156.42a10.58,10.58,0,0,1-1,.89,1.14,1.14,0,0,1-1.88-.81,6.41,6.41,0,0,1,1.5-4.88.91.91,0,0,1,1.17-.22c.53.24.51.38.2.87a9.21,9.21,0,0,0-1.46,3.88c0,.08.05.17.12.35a5.7,5.7,0,0,0,.65-.57,12.37,12.37,0,0,0,2.53-4.55,1.06,1.06,0,0,1,1.65-.59c.45.31.41.62.11,1.09a10.84,10.84,0,0,0-1.28,2.46,28.86,28.86,0,0,0-1.2,4.86c-.29,2.18-3.3,3.33-4.7,2.71a6.65,6.65,0,0,1-1.77-1.4.53.53,0,0,1,.12-.87c.41-.23.7,0,.79.41a.93.93,0,0,0,.75.72l.11,0c1.89.6,2.42.34,3-1.55.25-.86.44-1.73.65-2.6A1.16,1.16,0,0,0,173.18,156.42Z" style="fill:#fff"/><path d="M87.92,155a14.94,14.94,0,0,0,0,1.74.69.69,0,0,0,.94.6,4.77,4.77,0,0,0,1.26-.57,7.28,7.28,0,0,0,2.27-2.5c.09-.15.33-.21.5-.32.07.22.25.48.2.67a6.07,6.07,0,0,1-4.82,3.57,1.74,1.74,0,0,1-1.93-2,8.57,8.57,0,0,1,2.29-5.27,1.27,1.27,0,0,1,1.62-.32,2.2,2.2,0,0,0,.42.15c1,.26,1.16.53,1,1.51a4.18,4.18,0,0,1-1.58,2.55A1.79,1.79,0,0,1,87.92,155Zm2.4-2.42c-.13-.28-.16-.46-.27-.55a.42.42,0,0,0-.39,0,2.87,2.87,0,0,0-1.16,1.83.77.77,0,0,0,.31.63.65.65,0,0,0,.6-.2C89.76,153.69,90,153.08,90.32,152.53Z" style="fill:#fff"/><path d="M131.8,156.76a5.23,5.23,0,0,1,1.83-3.5c.18-.15.6-.27.74-.17a1,1,0,0,1,.28.76,5.13,5.13,0,0,1-1.43,3.12.66.66,0,0,1-.25.21c-.27.08-.6.25-.81.16S131.88,156.9,131.8,156.76Z" style="fill:#a51e36"/><path d="M128.21,152.63c.74-1.78,1.48-3.56,2.23-5.34q.38-.9.82-1.77c.07-.13.26-.21.39-.31a3.21,3.21,0,0,1,.12.49.83.83,0,0,1-.08.32,34.64,34.64,0,0,1-3.33,6.67Z" style="fill:#a51e36"/><path d="M138.76,157.46l-1.87-.58,1.26-2Z" style="fill:#a51e36"/><path d="M97.25,157.27a4.36,4.36,0,0,1,.09-.81,9,9,0,0,1,2.16-3.6,2.75,2.75,0,0,1,1-.59c.33-.12.6.1.45.45a9.61,9.61,0,0,1-3.16,4.37A2.51,2.51,0,0,1,97.25,157.27Z" style="fill:#a51e36"/><path d="M113,152.53c-.28.56-.55,1.17-.9,1.72a.69.69,0,0,1-.65.2c-.17-.09-.35-.49-.28-.63a17,17,0,0,1,1.14-1.79.4.4,0,0,1,.39-.06A2,2,0,0,1,113,152.53Z" style="fill:#a51e36"/><path d="M161.1,156.77a5.23,5.23,0,0,1,1.82-3.5c.18-.15.59-.27.74-.17a1,1,0,0,1,.28.75,5.13,5.13,0,0,1-1.42,3.13.67.67,0,0,1-.25.21c-.27.08-.6.25-.81.16S161.18,156.91,161.1,156.77Z" style="fill:#a51e36"/><path d="M177.2,156.77a5.2,5.2,0,0,1,1.82-3.5.91.91,0,0,1,.79-.15c.16.07.25.47.23.72a5.16,5.16,0,0,1-1.42,3.13.67.67,0,0,1-.25.21c-.27.08-.6.25-.81.17S177.28,156.91,177.2,156.77Z" style="fill:#a51e36"/><path d="M144.43,152.53c-.27.54-.53,1.14-.87,1.7a.7.7,0,0,1-.65.23.73.73,0,0,1-.3-.63,2.86,2.86,0,0,1,1.17-1.82.42.42,0,0,1,.39,0C144.28,152.07,144.31,152.25,144.43,152.53Z" style="fill:#a51e36"/><path d="M90.32,152.53c-.28.55-.56,1.17-.91,1.74a.65.65,0,0,1-.6.2.77.77,0,0,1-.31-.63A2.87,2.87,0,0,1,89.66,152a.42.42,0,0,1,.39,0C90.16,152.06,90.19,152.25,90.32,152.53Z" style="fill:#a51e36"/></svg>