<svg id="svg" version="1.1" width="500" height="510" xmlns="http://www.w3.org/2000/svg" xmlns:xlink="http://www.w3.org/1999/xlink" style="display: block;"><g id="svgg"><path id="path0" d="M0.000 204.000 L 0.000 408.000 200.000 408.000 L 400.000 408.000 400.000 204.000 L 400.000 0.000 200.000 0.000 L 0.000 0.000 0.000 204.000 M204.193 34.268 C 214.137 44.258,217.600 48.237,217.600 49.674 C 217.600 51.171,205.514 63.684,164.347 104.806 C 135.059 134.063,110.721 158.676,110.265 159.502 C 108.856 162.050,110.880 162.406,125.600 162.198 L 139.600 162.000 140.000 153.333 C 140.523 142.006,139.964 142.400,155.515 142.400 L 167.523 142.400 202.782 107.200 C 229.568 80.459,238.500 72.000,239.952 72.000 C 242.935 72.000,268.800 98.025,268.800 101.026 C 268.800 102.868,263.925 108.113,239.647 132.392 L 210.493 161.545 213.447 162.086 C 215.071 162.384,217.110 163.116,217.978 163.714 C 218.846 164.311,220.137 164.800,220.848 164.800 C 222.191 164.800,229.705 169.890,233.354 173.273 C 235.706 175.452,234.910 175.789,241.529 169.804 C 243.108 168.376,244.770 167.206,245.222 167.204 C 245.674 167.202,246.624 166.570,247.333 165.800 C 261.084 150.860,290.501 123.052,292.122 123.460 C 294.814 124.138,320.800 150.492,320.800 152.544 C 320.800 153.474,319.088 155.782,316.834 157.891 C 314.653 159.931,313.303 161.637,313.834 161.683 C 314.365 161.728,319.120 161.702,324.400 161.625 C 329.680 161.548,335.791 161.890,337.979 162.386 C 341.484 163.180,342.080 163.121,342.979 161.891 C 343.921 160.603,344.000 160.599,344.000 161.847 C 344.000 162.591,344.358 163.200,344.796 163.200 C 348.342 163.200,359.934 175.741,362.912 182.800 C 366.241 190.690,367.855 217.914,365.307 223.200 C 362.694 228.620,359.403 233.520,356.440 236.400 C 351.415 241.284,351.342 241.638,355.395 241.485 C 362.842 241.203,367.597 246.575,365.201 252.564 C 362.231 259.987,351.720 259.375,348.915 251.616 C 348.132 249.451,348.079 248.401,348.719 247.761 C 352.001 244.479,344.347 242.823,335.778 244.960 C 332.156 245.864,328.257 249.601,261.014 316.624 C 194.382 383.037,189.932 387.306,187.784 386.877 C 184.782 386.276,159.200 360.754,159.200 358.360 C 159.200 357.260,177.282 338.636,214.306 301.601 C 244.615 271.284,269.215 246.282,268.973 246.040 C 268.731 245.798,266.703 245.595,264.467 245.590 C 259.062 245.576,246.464 241.466,244.800 239.174 C 244.580 238.871,243.183 237.999,241.695 237.237 L 238.991 235.851 233.451 241.325 C 230.404 244.336,208.221 266.445,184.155 290.456 C 160.090 314.466,139.421 334.751,138.224 335.532 L 136.047 336.953 121.624 322.511 C 113.691 314.569,107.200 307.774,107.200 307.413 C 107.200 305.931,110.729 302.185,134.312 278.637 C 159.828 253.158,160.800 252.041,160.800 248.213 C 160.800 244.168,160.110 244.000,143.483 244.000 L 128.085 244.000 107.467 264.400 C 95.309 276.429,86.236 284.800,85.355 284.800 C 84.489 284.800,78.162 279.121,70.330 271.315 C 54.765 255.803,54.538 255.334,60.000 250.000 C 64.732 245.380,64.428 245.150,54.030 245.480 C 47.093 245.700,43.941 245.458,41.087 244.485 C 37.027 243.102,32.000 242.770,32.000 243.886 C 32.000 245.126,19.762 233.902,17.200 230.312 C 12.776 224.113,10.934 217.232,11.530 209.129 C 11.786 205.648,12.138 199.010,12.312 194.378 C 12.832 180.594,19.370 169.702,30.600 163.914 C 32.250 163.063,33.600 162.012,33.600 161.577 C 33.600 161.102,34.185 161.152,35.066 161.702 C 36.027 162.302,38.105 162.421,41.095 162.048 L 45.658 161.478 115.615 91.610 C 154.091 53.183,186.028 21.559,186.586 21.335 C 189.655 20.099,191.266 21.282,204.193 34.268 M154.200 157.114 C 151.902 158.858,152.210 166.855,154.600 167.496 C 156.945 168.124,163.516 168.136,165.135 167.514 C 166.690 166.917,166.935 158.455,165.440 156.960 C 164.150 155.670,155.954 155.782,154.200 157.114 M83.535 161.881 C 82.228 165.288,83.646 217.261,85.121 220.000 C 88.982 227.169,94.340 230.662,101.600 230.742 L 106.800 230.800 106.800 224.800 L 106.800 218.800 103.843 218.554 C 101.637 218.371,100.259 217.596,98.423 215.504 L 95.960 212.699 96.180 200.149 L 96.400 187.600 101.600 187.200 L 106.800 186.800 107.053 183.264 C 107.514 176.813,106.964 176.000,102.145 176.000 C 96.660 176.000,96.000 175.217,96.000 168.705 C 96.000 160.843,95.964 160.800,89.489 160.800 C 85.573 160.800,83.828 161.117,83.535 161.881 M42.400 175.212 C 41.740 175.646,39.831 176.379,38.158 176.842 C 32.369 178.445,27.200 185.406,27.200 191.600 C 27.200 200.712,31.912 204.376,47.755 207.585 C 58.426 209.746,60.626 210.681,61.302 213.342 C 63.212 220.864,48.813 222.657,40.972 215.873 C 37.526 212.892,25.600 212.334,25.600 215.154 C 25.600 229.925,56.262 237.642,70.217 226.384 C 78.983 219.312,77.614 205.592,67.666 200.808 C 64.167 199.126,51.822 196.000,48.676 196.000 C 45.423 196.000,40.627 192.206,41.280 190.149 C 42.896 185.058,52.134 184.237,58.618 188.608 C 60.973 190.196,62.950 190.727,67.618 191.027 L 73.600 191.410 73.600 188.871 C 73.600 179.890,50.606 169.824,42.400 175.212 M134.411 176.471 C 131.026 178.405,130.701 178.450,128.688 177.261 C 125.968 175.654,117.377 175.541,116.087 177.095 C 115.439 177.876,115.239 185.750,115.389 204.495 L 115.600 230.800 122.000 230.800 L 128.400 230.800 128.800 213.200 C 129.294 191.467,131.091 187.693,141.254 187.050 L 145.200 186.800 145.749 181.241 C 146.051 178.184,146.120 175.394,145.902 175.041 C 144.992 173.569,137.957 174.444,134.411 176.471 M190.665 176.870 C 184.496 179.850,180.837 183.576,177.446 190.329 L 174.800 195.600 174.571 224.233 L 174.342 252.866 180.971 252.633 L 187.600 252.400 188.000 240.800 C 188.431 228.298,189.462 226.255,193.499 229.908 C 194.250 230.589,196.790 231.558,199.143 232.062 C 231.285 238.956,245.703 191.082,215.748 176.929 C 208.111 173.321,198.061 173.297,190.665 176.870 M257.744 176.088 C 250.115 178.864,244.850 183.497,241.678 190.227 C 240.700 192.302,239.562 194.625,239.150 195.389 C 235.590 201.985,240.261 218.040,247.845 225.274 C 254.636 231.752,271.568 234.033,280.224 229.635 C 287.222 226.080,294.218 217.342,292.410 214.416 C 291.179 212.424,280.511 213.480,277.582 215.883 C 269.580 222.451,261.616 222.203,255.726 215.204 C 250.854 209.414,251.406 209.228,274.117 208.986 L 294.233 208.773 294.712 206.864 C 296.004 201.717,293.990 193.562,289.290 184.907 C 284.961 176.934,268.253 172.263,257.744 176.088 M315.600 176.141 C 313.400 177.008,311.032 178.231,310.337 178.859 C 309.642 179.487,308.742 180.011,308.337 180.025 C 307.160 180.065,304.991 183.479,303.276 187.993 C 299.162 198.820,307.391 205.881,327.431 208.719 C 340.069 210.509,341.167 218.647,329.015 220.470 C 324.909 221.085,321.901 219.994,317.444 216.270 C 313.126 212.662,301.600 212.101,301.600 215.499 C 301.600 234.723,344.269 238.532,350.762 219.888 C 355.359 206.687,348.216 200.021,325.600 196.406 C 317.294 195.079,314.384 190.607,320.000 187.801 C 324.478 185.564,329.469 185.965,333.930 188.920 C 340.243 193.102,349.600 192.754,349.600 188.338 C 349.600 178.997,328.004 171.250,315.600 176.141 M154.200 176.864 C 152.912 177.615,152.800 179.778,152.800 204.025 L 152.800 230.370 154.633 230.830 C 155.642 231.083,158.612 231.180,161.233 231.045 L 166.000 230.800 166.211 204.495 C 166.361 185.750,166.161 177.876,165.513 177.095 C 164.435 175.796,156.318 175.630,154.200 176.864 M271.068 186.894 C 273.645 187.409,280.000 192.825,280.000 194.505 C 280.000 198.122,263.496 200.298,256.432 197.612 C 247.967 194.394,260.967 184.873,271.068 186.894 M211.338 189.837 C 217.310 194.385,220.910 206.521,217.200 209.600 C 216.540 210.148,216.000 211.095,216.000 211.705 C 216.000 213.229,212.142 217.099,209.040 218.689 C 199.689 223.478,188.277 215.214,188.061 203.498 C 187.827 190.831,201.843 182.606,211.338 189.837 " stroke="none" fill="#ffffff" fill-rule="evenodd"></path><path id="path1" d="M119.765 90.600 C 82.201 128.110,51.257 159.379,51.002 160.087 C 50.608 161.176,51.507 161.448,56.858 161.861 C 60.335 162.129,64.271 162.913,65.604 163.602 C 68.514 165.107,68.577 164.989,68.992 157.292 C 69.481 148.241,70.006 148.000,89.297 148.000 C 106.063 148.000,107.380 148.271,108.674 151.983 C 109.138 153.312,109.985 154.395,110.558 154.390 C 112.014 154.375,215.200 50.995,215.200 49.551 C 215.200 48.427,189.698 22.400,188.597 22.400 C 188.304 22.400,157.330 53.090,119.765 90.600 M206.198 107.009 C 188.267 124.934,173.597 140.020,173.598 140.533 C 173.599 141.047,173.150 141.648,172.600 141.870 C 172.050 142.092,172.770 142.302,174.200 142.337 C 179.284 142.460,180.000 144.206,180.000 156.486 C 180.000 164.886,180.228 167.275,181.000 166.949 C 190.709 162.855,192.893 162.217,198.367 161.876 C 201.685 161.670,205.210 161.337,206.199 161.136 C 208.031 160.763,267.200 102.585,267.200 101.156 C 267.200 99.880,241.280 74.399,239.991 74.409 C 239.336 74.413,224.129 89.083,206.198 107.009 M288.213 128.344 C 285.986 130.218,254.400 161.505,254.400 161.837 C 254.400 161.927,259.710 162.000,266.200 162.000 C 278.478 162.000,278.408 161.986,287.139 166.259 C 288.646 166.997,291.319 168.740,293.080 170.133 L 296.283 172.666 303.141 167.399 C 311.347 161.098,317.592 154.609,317.597 152.380 C 317.601 150.287,294.070 126.400,292.005 126.400 C 291.190 126.400,289.483 127.275,288.213 128.344 M231.218 234.784 C 223.175 241.928,217.185 244.605,207.200 245.522 L 202.000 246.000 201.769 253.982 C 201.419 266.067,202.249 265.600,181.106 265.600 C 162.259 265.600,161.600 265.408,161.600 259.908 C 161.600 254.754,159.465 256.441,134.910 281.005 C 109.113 306.812,108.932 307.027,111.183 309.312 C 111.989 310.131,116.193 314.305,120.524 318.590 C 124.856 322.874,130.002 328.004,131.959 329.990 C 136.177 334.268,137.646 334.451,140.594 331.067 C 141.807 329.674,144.376 327.064,146.303 325.267 C 148.230 323.470,150.750 320.957,151.903 319.682 C 153.056 318.407,155.427 316.067,157.171 314.482 C 158.915 312.897,161.255 310.548,162.371 309.262 C 163.487 307.975,165.842 305.570,167.605 303.916 C 176.482 295.587,236.696 235.024,237.071 234.047 C 238.312 230.814,235.255 231.199,231.218 234.784 M292.191 237.458 C 287.599 240.883,284.078 242.537,277.549 244.334 C 273.531 245.439,272.245 246.425,264.349 254.451 C 259.537 259.342,255.173 263.761,254.652 264.272 C 251.865 267.001,192.834 325.937,186.232 332.582 C 181.960 336.882,174.670 344.148,170.032 348.729 C 165.394 353.310,161.601 357.630,161.601 358.329 C 161.602 359.028,166.372 364.313,172.201 370.074 C 178.031 375.835,183.793 381.685,185.006 383.074 C 186.220 384.463,187.611 385.600,188.098 385.600 C 189.355 385.600,327.981 247.016,327.501 246.240 C 327.284 245.888,325.596 245.600,323.750 245.600 C 317.846 245.600,304.401 241.128,302.960 238.685 C 302.608 238.088,301.854 237.600,301.284 237.600 C 300.714 237.600,299.596 236.880,298.800 236.000 C 296.909 233.911,296.959 233.900,292.191 237.458 M75.200 239.224 C 70.935 242.060,58.400 254.225,58.400 255.527 C 58.400 256.426,80.896 279.369,83.200 280.820 C 85.725 282.410,87.374 281.111,104.504 264.025 C 124.974 243.610,124.708 244.353,111.444 244.682 C 99.328 244.983,91.034 243.367,85.053 239.540 C 79.869 236.224,79.717 236.219,75.200 239.224 " stroke="none" fill="#e51b24" fill-rule="evenodd"></path><path id="path2" d="M156.438 143.771 C 141.328 144.117,141.600 143.930,141.600 153.946 C 141.600 165.383,142.265 164.979,123.977 164.661 C 106.771 164.363,107.737 164.753,107.472 157.983 C 107.127 149.187,107.987 149.600,90.029 149.600 C 71.527 149.600,72.000 149.387,72.000 157.710 C 72.000 166.809,70.866 167.666,62.603 164.807 C 56.481 162.689,44.876 162.411,40.502 164.278 C 38.799 165.005,36.873 165.600,36.223 165.600 C 26.074 165.600,13.314 184.221,15.872 195.301 C 16.623 198.557,16.573 199.794,15.595 202.136 C 13.190 207.891,14.833 222.353,18.284 225.804 C 18.788 226.308,19.200 227.160,19.200 227.699 C 19.200 228.237,20.106 229.754,21.213 231.069 C 32.130 244.044,59.960 247.225,75.070 237.226 C 80.226 233.814,79.874 233.830,84.294 236.812 C 92.216 242.159,94.381 242.426,129.652 242.419 C 166.436 242.412,163.043 241.388,163.033 252.490 C 163.022 264.770,161.825 264.000,180.940 264.000 C 200.196 264.000,199.138 264.595,199.175 253.747 C 199.207 244.203,199.731 243.200,204.681 243.200 C 214.969 243.200,224.844 239.222,231.440 232.421 L 235.339 228.400 237.955 231.400 C 239.393 233.050,240.825 234.400,241.138 234.400 C 241.451 234.400,242.853 235.264,244.253 236.320 C 251.011 241.413,269.606 245.637,274.000 243.076 C 274.440 242.820,276.136 242.369,277.769 242.075 C 282.159 241.283,288.716 238.158,292.787 234.917 C 296.538 231.931,298.918 232.164,301.040 235.726 C 301.392 236.317,302.083 236.800,302.577 236.800 C 303.070 236.800,304.042 237.275,304.737 237.856 C 308.171 240.726,322.954 244.189,329.200 243.587 C 334.753 243.052,341.034 241.686,341.893 240.827 C 342.348 240.372,343.638 239.988,344.760 239.974 C 355.413 239.839,367.843 215.771,362.457 205.706 C 361.989 204.832,361.847 201.995,362.124 199.035 C 364.011 178.831,349.591 164.162,327.090 163.394 C 320.663 163.175,317.848 163.409,315.592 164.352 C 313.949 165.038,311.903 165.600,311.045 165.600 C 309.134 165.600,303.741 168.747,300.092 171.992 C 296.703 175.005,296.227 174.993,291.915 171.786 C 281.670 164.168,265.723 160.787,257.077 164.400 C 255.497 165.060,253.367 165.600,252.343 165.600 C 250.480 165.600,244.832 169.324,239.326 174.181 C 235.647 177.427,234.507 177.430,231.006 174.200 C 225.662 169.270,224.040 168.351,213.600 164.349 C 206.415 161.594,192.543 163.336,183.766 168.095 C 178.927 170.719,178.403 169.709,178.382 157.702 C 178.356 142.881,178.948 143.256,156.438 143.771 M168.017 155.200 C 168.434 155.860,168.781 158.990,168.788 162.155 C 168.803 169.391,167.728 170.400,160.000 170.400 C 152.316 170.400,151.200 169.373,151.200 162.302 C 151.200 153.703,151.524 153.391,160.099 153.723 C 165.366 153.927,167.460 154.317,168.017 155.200 M96.222 160.200 C 97.210 160.944,97.607 162.736,97.775 167.200 L 98.000 173.200 102.635 173.441 C 108.032 173.722,108.800 174.772,108.800 181.874 C 108.800 187.997,107.380 189.600,101.955 189.600 L 97.600 189.600 97.600 200.738 L 97.600 211.877 100.062 214.338 C 101.659 215.936,103.324 216.800,104.804 216.800 C 109.639 216.800,111.911 227.369,108.090 232.088 C 103.986 237.156,89.380 231.230,84.213 222.400 C 80.244 215.616,77.613 165.715,81.000 161.445 C 82.870 159.087,93.581 158.211,96.222 160.200 M147.855 173.856 C 149.244 174.951,148.306 186.240,146.670 188.104 C 145.964 188.909,143.793 189.552,141.001 189.783 C 136.879 190.125,136.206 190.463,133.438 193.582 L 130.400 197.006 130.400 213.251 C 130.400 234.290,130.682 233.600,122.077 233.600 C 112.058 233.600,112.800 235.977,112.800 203.890 C 112.800 186.674,113.104 176.127,113.628 175.147 C 114.770 173.014,127.432 172.838,129.737 174.924 C 131.076 176.136,131.319 176.140,132.607 174.975 C 135.392 172.454,145.165 171.737,147.855 173.856 M210.308 172.940 C 238.648 177.971,243.178 217.514,217.116 232.365 C 211.822 235.382,198.685 235.695,194.182 232.912 C 190.465 230.616,190.400 230.789,190.400 242.953 L 190.400 253.640 188.348 254.420 C 185.080 255.662,174.767 255.406,173.645 254.054 C 172.937 253.201,172.758 245.359,172.947 223.454 L 173.200 194.000 175.323 189.471 C 181.482 176.334,194.576 170.147,210.308 172.940 M64.400 174.995 C 71.126 178.512,77.254 187.579,75.679 191.684 C 74.724 194.171,60.234 193.171,57.078 190.400 C 53.473 187.235,46.471 186.887,44.450 189.771 C 42.644 192.350,45.448 193.636,56.400 195.252 C 74.032 197.853,82.526 209.608,76.007 222.386 C 66.319 241.376,24.715 236.223,24.448 216.000 L 24.400 212.400 31.809 212.170 C 39.128 211.943,39.259 211.972,42.477 214.558 C 47.869 218.891,60.000 218.714,60.000 214.302 C 60.000 213.086,54.538 211.082,48.800 210.194 C 22.963 206.192,15.860 186.804,36.000 175.253 C 41.199 172.271,58.884 172.110,64.400 174.995 M280.000 175.010 C 293.112 181.037,303.857 207.048,294.487 210.077 C 292.106 210.846,291.984 211.009,293.487 211.402 C 297.343 212.411,294.176 221.125,287.889 226.805 C 272.684 240.542,247.880 235.280,239.175 216.472 C 236.146 209.929,235.758 197.869,238.400 192.400 C 239.250 190.640,239.958 188.719,239.973 188.130 C 240.011 186.614,249.543 177.357,252.843 175.633 C 259.158 172.332,273.459 172.004,280.000 175.010 M341.218 175.653 C 347.019 179.053,353.719 188.450,352.538 191.530 C 351.686 193.748,335.871 194.316,334.488 192.177 C 332.465 189.051,325.511 188.008,320.991 190.153 L 318.140 191.506 321.596 192.974 C 323.497 193.781,327.606 194.785,330.726 195.204 C 353.071 198.209,361.604 213.985,348.031 227.200 C 333.298 241.545,300.883 233.676,299.786 215.488 L 299.600 212.400 307.430 212.171 L 315.259 211.941 318.791 214.836 C 323.705 218.862,334.417 219.080,335.439 215.174 C 336.049 212.839,336.248 212.915,322.000 210.038 C 300.257 205.648,293.435 191.275,307.082 178.605 C 313.902 172.274,332.681 170.650,341.218 175.653 M167.972 175.147 C 169.518 178.037,169.063 230.384,167.476 232.137 C 165.683 234.119,154.388 234.274,152.457 232.343 C 150.975 230.861,150.542 179.434,151.980 175.652 C 153.044 172.855,166.517 172.430,167.972 175.147 M261.800 189.971 C 259.490 191.046,257.546 192.303,257.480 192.763 C 257.414 193.223,257.324 194.002,257.280 194.494 C 257.203 195.357,276.653 195.614,277.505 194.761 C 278.691 193.576,270.032 187.985,267.044 188.008 C 266.470 188.012,264.110 188.896,261.800 189.971 M198.784 190.280 C 193.736 191.904,190.388 197.396,190.425 203.988 C 190.518 220.346,211.954 223.076,215.533 207.186 C 218.127 195.670,209.401 186.862,198.784 190.280 M283.000 210.979 C 284.430 211.156,286.770 211.156,288.200 210.979 C 289.630 210.801,288.460 210.656,285.600 210.656 C 282.740 210.656,281.570 210.801,283.000 210.979 M257.060 212.476 C 256.748 213.291,257.380 214.447,258.810 215.676 C 263.661 219.845,276.597 217.628,276.756 212.600 C 276.820 210.576,257.835 210.456,257.060 212.476 M353.896 246.567 C 353.513 247.188,355.186 250.498,356.289 251.302 C 357.981 252.536,362.703 248.036,361.245 246.578 C 360.653 245.986,354.261 245.977,353.896 246.567 " stroke="none" fill="#0077c0" fill-rule="evenodd"></path><path id="path3" d="M186.586 21.335 C 186.028 21.559,154.091 53.183,115.615 91.610 L 45.658 161.478 41.095 162.048 C 38.105 162.421,36.027 162.302,35.066 161.702 C 34.185 161.152,33.600 161.102,33.600 161.577 C 33.600 162.012,32.250 163.063,30.600 163.914 C 19.370 169.702,12.832 180.594,12.312 194.378 C 12.138 199.010,11.786 205.648,11.530 209.129 C 10.934 217.232,12.776 224.113,17.200 230.312 C 19.762 233.902,32.000 245.126,32.000 243.886 C 32.000 242.770,37.027 243.102,41.087 244.485 C 43.941 245.458,47.093 245.700,54.030 245.480 C 64.428 245.150,64.732 245.380,60.000 250.000 C 54.538 255.334,54.765 255.803,70.330 271.315 C 78.162 279.121,84.489 284.800,85.355 284.800 C 86.236 284.800,95.309 276.429,107.467 264.400 L 128.085 244.000 143.483 244.000 C 160.110 244.000,160.800 244.168,160.800 248.213 C 160.800 252.041,159.828 253.158,134.312 278.637 C 110.729 302.185,107.200 305.931,107.200 307.413 C 107.200 307.774,113.691 314.569,121.624 322.511 L 136.047 336.953 138.224 335.532 C 139.421 334.751,160.090 314.466,184.155 290.456 C 208.221 266.445,230.404 244.336,233.451 241.325 L 238.991 235.851 241.695 237.237 C 243.183 237.999,244.580 238.871,244.800 239.174 C 246.464 241.466,259.062 245.576,264.467 245.590 C 266.703 245.595,268.731 245.798,268.973 246.040 C 269.215 246.282,244.615 271.284,214.306 301.601 C 177.282 338.636,159.200 357.260,159.200 358.360 C 159.200 360.754,184.782 386.276,187.784 386.877 C 189.932 387.306,194.382 383.037,261.014 316.624 C 328.257 249.601,332.156 245.864,335.778 244.960 C 344.347 242.823,352.001 244.479,348.719 247.761 C 348.079 248.401,348.132 249.451,348.915 251.616 C 351.720 259.375,362.231 259.987,365.201 252.564 C 367.597 246.575,362.842 241.203,355.395 241.485 C 351.342 241.638,351.415 241.284,356.440 236.400 C 359.403 233.520,362.694 228.620,365.307 223.200 C 367.855 217.914,366.241 190.690,362.912 182.800 C 359.934 175.741,348.342 163.200,344.796 163.200 C 344.358 163.200,344.000 162.591,344.000 161.847 C 344.000 160.599,343.921 160.603,342.979 161.891 C 342.080 163.121,341.484 163.180,337.979 162.386 C 335.791 161.890,329.680 161.548,324.400 161.625 C 319.120 161.702,314.365 161.728,313.834 161.683 C 313.303 161.637,314.653 159.931,316.834 157.891 C 319.088 155.782,320.800 153.474,320.800 152.544 C 320.800 150.492,294.814 124.138,292.122 123.460 C 290.501 123.052,261.084 150.860,247.333 165.800 C 246.624 166.570,245.674 167.202,245.222 167.204 C 244.770 167.206,243.108 168.376,241.529 169.804 C 234.910 175.789,235.706 175.452,233.354 173.273 C 229.705 169.890,222.191 164.800,220.848 164.800 C 220.137 164.800,218.846 164.311,217.978 163.714 C 217.110 163.116,215.071 162.384,213.447 162.086 L 210.493 161.545 239.647 132.392 C 263.925 108.113,268.800 102.868,268.800 101.026 C 268.800 98.025,242.935 72.000,239.952 72.000 C 238.500 72.000,229.568 80.459,202.782 107.200 L 167.523 142.400 155.515 142.400 C 139.964 142.400,140.523 142.006,140.000 153.333 L 139.600 162.000 125.600 162.198 C 110.880 162.406,108.856 162.050,110.265 159.502 C 110.721 158.676,135.059 134.063,164.347 104.806 C 205.514 63.684,217.600 51.171,217.600 49.674 C 217.600 48.237,214.137 44.258,204.193 34.268 C 191.266 21.282,189.655 20.099,186.586 21.335 M202.889 34.600 C 212.672 44.326,215.970 48.097,215.983 49.573 C 215.998 51.281,119.180 149.175,109.347 157.395 C 107.121 159.255,106.679 161.136,107.982 163.200 C 108.602 164.182,111.493 164.447,123.881 164.661 C 142.280 164.978,141.600 165.389,141.600 153.946 C 141.600 143.923,141.202 144.182,157.058 143.858 C 168.761 143.619,169.779 143.479,170.553 142.000 C 172.653 137.988,238.017 73.619,240.000 73.610 C 242.296 73.600,268.000 98.851,268.000 101.118 C 268.000 101.822,254.677 115.619,238.393 131.779 C 222.110 147.939,208.904 161.512,209.048 161.943 C 209.191 162.373,211.084 163.404,213.254 164.235 C 224.119 168.390,225.626 169.236,231.006 174.200 C 234.445 177.373,235.708 177.433,238.800 174.571 C 240.120 173.349,242.349 171.541,243.754 170.553 C 245.158 169.565,256.138 158.865,268.154 146.774 C 281.745 133.098,290.583 124.793,291.544 124.796 C 293.236 124.800,318.094 148.976,318.848 151.350 C 319.431 153.189,318.849 154.135,313.800 159.547 C 308.044 165.716,308.622 167.264,315.592 164.352 C 325.232 160.324,345.126 165.137,353.360 173.489 C 359.640 179.860,363.000 189.653,362.124 199.035 C 361.847 201.995,361.989 204.832,362.457 205.706 C 367.738 215.575,355.453 239.818,345.091 239.974 C 344.152 239.988,342.352 240.538,341.091 241.195 C 339.831 241.852,337.792 242.392,336.560 242.395 C 333.890 242.401,329.600 244.469,329.600 245.751 C 329.600 247.854,189.414 386.449,187.804 385.938 C 185.278 385.136,160.800 360.059,160.800 358.273 C 160.800 357.251,180.145 337.323,215.673 301.747 C 279.208 238.126,274.787 243.210,266.600 243.180 C 257.930 243.149,250.211 240.804,244.400 236.435 C 241.539 234.284,238.400 233.161,238.400 234.289 C 238.400 234.727,237.902 235.561,237.294 236.143 C 236.685 236.724,214.205 259.070,187.338 285.800 C 152.893 320.070,137.979 334.400,136.757 334.400 C 135.236 334.400,108.800 309.004,108.800 307.543 C 108.800 307.296,109.157 306.428,109.593 305.612 C 110.448 304.015,158.603 255.738,161.113 253.962 C 163.009 252.620,163.907 245.415,162.403 243.604 C 161.571 242.601,158.569 242.400,144.436 242.400 L 127.468 242.400 107.169 262.800 C 94.731 275.300,86.276 283.200,85.338 283.200 C 83.406 283.200,58.533 258.706,57.879 256.160 C 57.495 254.665,58.473 253.220,63.103 248.446 C 68.534 242.845,70.219 240.084,67.592 241.092 C 60.501 243.813,43.160 243.653,36.400 240.803 C 27.590 237.090,21.234 232.430,19.574 228.468 C 19.006 227.110,18.270 225.731,17.940 225.402 C 14.799 222.282,13.318 207.586,15.595 202.136 C 16.573 199.794,16.623 198.557,15.872 195.301 C 13.262 183.995,23.510 168.834,35.948 165.600 C 46.739 162.794,40.652 168.314,116.428 92.612 C 155.055 54.021,187.052 22.285,187.530 22.086 C 188.009 21.888,188.718 21.698,189.107 21.663 C 189.495 21.628,195.697 27.450,202.889 34.600 M152.069 155.070 C 151.591 155.964,151.200 159.218,151.200 162.302 C 151.200 169.373,152.316 170.400,160.000 170.400 C 167.728 170.400,168.803 169.391,168.788 162.155 C 168.771 154.199,168.620 154.053,160.099 153.723 C 153.568 153.470,152.862 153.589,152.069 155.070 M165.440 156.960 C 166.935 158.455,166.690 166.917,165.135 167.514 C 163.516 168.136,156.945 168.124,154.600 167.496 C 152.210 166.855,151.902 158.858,154.200 157.114 C 155.954 155.782,164.150 155.670,165.440 156.960 M83.200 159.755 C 80.159 160.842,80.000 162.115,80.000 185.395 C 80.000 219.217,83.028 228.117,95.958 232.297 C 106.343 235.654,109.600 233.857,109.600 224.769 C 109.600 218.601,108.516 216.800,104.804 216.800 C 103.324 216.800,101.659 215.936,100.062 214.338 L 97.600 211.877 97.600 200.738 L 97.600 189.600 101.955 189.600 C 107.380 189.600,108.800 187.997,108.800 181.874 C 108.800 174.772,108.032 173.722,102.635 173.441 L 98.000 173.200 97.775 167.200 C 97.607 162.736,97.210 160.944,96.222 160.200 C 94.909 159.211,85.610 158.894,83.200 159.755 M95.514 162.065 C 95.781 162.761,96.000 165.749,96.000 168.705 C 96.000 175.217,96.660 176.000,102.145 176.000 C 106.964 176.000,107.514 176.813,107.053 183.264 L 106.800 186.800 101.600 187.200 L 96.400 187.600 96.180 200.149 L 95.960 212.699 98.423 215.504 C 100.259 217.596,101.637 218.371,103.843 218.554 L 106.800 218.800 106.800 224.800 L 106.800 230.800 101.600 230.742 C 94.340 230.662,88.982 227.169,85.121 220.000 C 83.646 217.261,82.228 165.288,83.535 161.881 C 84.176 160.211,94.866 160.375,95.514 162.065 M138.007 172.972 C 135.810 173.373,133.380 174.275,132.607 174.975 C 131.319 176.140,131.076 176.136,129.737 174.924 C 127.432 172.838,114.770 173.014,113.628 175.147 C 113.104 176.127,112.800 186.674,112.800 203.890 C 112.800 235.977,112.058 233.600,122.077 233.600 C 130.682 233.600,130.400 234.290,130.400 213.251 L 130.400 197.006 133.438 193.582 C 136.206 190.463,136.879 190.125,141.001 189.783 C 146.822 189.301,147.684 188.243,148.362 180.743 C 149.081 172.789,147.108 171.308,138.007 172.972 M195.200 173.110 C 186.907 174.949,179.130 181.350,175.323 189.471 L 173.200 194.000 172.947 223.454 C 172.758 245.359,172.937 253.201,173.645 254.054 C 174.767 255.406,185.080 255.662,188.348 254.420 L 190.400 253.640 190.400 242.953 C 190.400 230.789,190.465 230.616,194.182 232.912 C 198.685 235.695,211.822 235.382,217.116 232.365 C 250.331 213.437,232.368 164.868,195.200 173.110 M40.800 173.498 C 32.271 175.350,24.800 183.803,24.800 191.600 C 24.800 201.504,32.822 207.719,48.800 210.194 C 54.538 211.082,60.000 213.086,60.000 214.302 C 60.000 218.714,47.869 218.891,42.477 214.558 C 39.259 211.972,39.128 211.943,31.809 212.170 L 24.400 212.400 24.448 216.000 C 24.665 232.463,56.038 240.869,70.901 228.446 C 80.893 220.093,79.934 204.512,69.101 199.226 C 63.327 196.409,62.512 196.154,56.400 195.252 C 45.448 193.636,42.644 192.350,44.450 189.771 C 46.471 186.887,53.473 187.235,57.078 190.400 C 60.234 193.171,74.724 194.171,75.679 191.684 C 77.254 187.579,71.126 178.512,64.400 174.995 C 60.924 173.177,46.494 172.262,40.800 173.498 M258.400 173.539 C 252.677 174.873,240.056 184.867,239.973 188.130 C 239.958 188.719,239.250 190.640,238.400 192.400 C 235.758 197.869,236.146 209.929,239.175 216.472 C 247.880 235.280,272.684 240.542,287.889 226.805 C 294.176 221.125,297.343 212.411,293.487 211.402 C 291.984 211.009,292.106 210.846,294.487 210.077 C 301.222 207.900,296.381 188.516,286.908 179.733 C 280.621 173.903,268.310 171.228,258.400 173.539 M316.800 173.494 C 304.134 176.299,296.616 190.205,302.622 199.719 C 306.102 205.231,310.933 207.804,322.000 210.038 C 336.248 212.915,336.049 212.839,335.439 215.174 C 334.417 219.080,323.705 218.862,318.791 214.836 L 315.259 211.941 307.430 212.171 L 299.600 212.400 299.786 215.488 C 300.883 233.676,333.298 241.545,348.031 227.200 C 361.604 213.985,353.071 198.209,330.726 195.204 C 327.606 194.785,323.497 193.781,321.596 192.974 L 318.140 191.506 320.991 190.153 C 325.511 188.008,332.465 189.051,334.488 192.177 C 335.871 194.316,351.686 193.748,352.538 191.530 C 353.719 188.450,347.019 179.053,341.218 175.653 C 337.197 173.296,323.257 172.064,316.800 173.494 M151.980 175.652 C 150.542 179.434,150.975 230.861,152.457 232.343 C 154.388 234.274,165.683 234.119,167.476 232.137 C 169.063 230.384,169.518 178.037,167.972 175.147 C 166.517 172.430,153.044 172.855,151.980 175.652 M60.992 176.134 C 65.251 177.687,69.036 180.603,72.600 185.077 C 73.150 185.768,73.600 187.475,73.600 188.871 L 73.600 191.410 67.618 191.027 C 62.950 190.727,60.973 190.196,58.618 188.608 C 52.134 184.237,42.896 185.058,41.280 190.149 C 40.627 192.206,45.423 196.000,48.676 196.000 C 51.822 196.000,64.167 199.126,67.666 200.808 C 77.614 205.592,78.983 219.312,70.217 226.384 C 56.262 237.642,25.600 229.925,25.600 215.154 C 25.600 212.334,37.526 212.892,40.972 215.873 C 48.813 222.657,63.212 220.864,61.302 213.342 C 60.626 210.681,58.426 209.746,47.755 207.585 C 31.912 204.376,27.200 200.712,27.200 191.600 C 27.200 185.406,32.369 178.445,38.158 176.842 C 39.831 176.379,41.740 175.646,42.400 175.212 C 44.683 173.714,55.876 174.269,60.992 176.134 M145.902 175.041 C 146.120 175.394,146.051 178.184,145.749 181.241 L 145.200 186.800 141.254 187.050 C 131.091 187.693,129.294 191.467,128.800 213.200 L 128.400 230.800 122.000 230.800 L 115.600 230.800 115.389 204.495 C 115.239 185.750,115.439 177.876,116.087 177.095 C 117.377 175.541,125.968 175.654,128.688 177.261 C 130.701 178.450,131.026 178.405,134.411 176.471 C 137.957 174.444,144.992 173.569,145.902 175.041 M215.748 176.929 C 241.388 189.043,235.286 230.337,207.515 232.640 C 202.637 233.045,195.407 231.636,193.499 229.908 C 189.462 226.255,188.431 228.298,188.000 240.800 L 187.600 252.400 180.971 252.633 L 174.342 252.866 174.571 224.233 L 174.800 195.600 177.446 190.329 C 184.763 175.756,201.139 170.027,215.748 176.929 M276.377 176.060 C 281.073 177.710,287.935 182.412,289.290 184.907 C 293.990 193.562,296.004 201.717,294.712 206.864 L 294.233 208.773 274.117 208.986 C 251.406 209.228,250.854 209.414,255.726 215.204 C 261.616 222.203,269.580 222.451,277.582 215.883 C 280.511 213.480,291.179 212.424,292.410 214.416 C 294.218 217.342,287.222 226.080,280.224 229.635 C 271.568 234.033,254.636 231.752,247.845 225.274 C 240.261 218.040,235.590 201.985,239.150 195.389 C 239.562 194.625,240.700 192.302,241.678 190.227 C 247.632 177.597,262.953 171.341,276.377 176.060 M336.529 176.168 C 344.684 179.255,352.054 188.299,348.600 190.980 C 346.324 192.746,337.926 191.567,333.930 188.920 C 329.469 185.965,324.478 185.564,320.000 187.801 C 314.384 190.607,317.294 195.079,325.600 196.406 C 348.216 200.021,355.359 206.687,350.762 219.888 C 344.269 238.532,301.600 234.723,301.600 215.499 C 301.600 212.101,313.126 212.662,317.444 216.270 C 321.901 219.994,324.909 221.085,329.015 220.470 C 341.167 218.647,340.069 210.509,327.431 208.719 C 307.391 205.881,299.162 198.820,303.276 187.993 C 304.991 183.479,307.160 180.065,308.337 180.025 C 308.742 180.011,309.642 179.487,310.337 178.859 C 315.228 174.440,328.391 173.088,336.529 176.168 M165.513 177.095 C 166.161 177.876,166.361 185.750,166.211 204.495 L 166.000 230.800 161.233 231.045 C 158.612 231.180,155.642 231.083,154.633 230.830 L 152.800 230.370 152.800 204.025 C 152.800 173.976,152.255 176.067,160.102 176.024 C 162.963 176.009,164.936 176.399,165.513 177.095 M259.520 188.683 C 249.766 195.820,251.999 198.400,267.928 198.400 C 280.739 198.400,282.989 196.379,276.768 190.462 C 271.709 185.649,264.660 184.922,259.520 188.683 M196.471 188.805 C 182.464 197.759,187.359 220.000,203.337 220.000 C 208.274 220.000,216.000 214.939,216.000 211.705 C 216.000 211.095,216.540 210.148,217.200 209.600 C 219.053 208.063,218.686 200.373,216.553 196.037 C 212.695 188.193,202.930 184.677,196.471 188.805 M271.464 189.538 C 274.732 191.027,278.222 194.044,277.505 194.761 C 276.653 195.614,257.203 195.357,257.280 194.494 C 257.324 194.002,257.414 193.223,257.480 192.763 C 257.922 189.680,267.118 187.558,271.464 189.538 M207.658 190.302 C 213.845 192.076,217.278 199.437,215.533 207.186 C 211.954 223.076,190.518 220.346,190.425 203.988 C 190.366 193.604,198.009 187.534,207.658 190.302 M288.200 210.979 C 286.770 211.156,284.430 211.156,283.000 210.979 C 281.570 210.801,282.740 210.656,285.600 210.656 C 288.460 210.656,289.630 210.801,288.200 210.979 M276.756 212.600 C 276.597 217.628,263.661 219.845,258.810 215.676 C 254.624 212.080,256.268 211.200,267.175 211.200 C 275.825 211.200,276.796 211.342,276.756 212.600 M361.245 246.578 C 362.703 248.036,357.981 252.536,356.289 251.302 C 355.186 250.498,353.513 247.188,353.896 246.567 C 354.261 245.977,360.653 245.986,361.245 246.578 " stroke="none" fill="#91c2e2" fill-rule="evenodd"></path><path id="path4" d="M187.532 22.086 C 184.919 23.168,47.213 161.915,48.157 162.514 C 48.731 162.878,51.192 163.181,53.628 163.188 C 56.063 163.194,60.104 163.920,62.608 164.800 C 70.829 167.690,72.000 166.806,72.000 157.710 C 72.000 149.388,71.529 149.600,90.010 149.600 C 106.813 149.600,106.372 149.479,107.157 154.307 C 107.404 155.826,108.033 157.211,108.555 157.385 C 110.271 157.957,216.003 51.854,215.983 49.580 C 215.966 47.623,190.826 21.509,189.107 21.663 C 188.718 21.698,188.009 21.888,187.532 22.086 M202.165 35.388 C 209.334 42.532,215.200 48.905,215.200 49.551 C 215.200 50.995,112.014 154.375,110.558 154.390 C 109.985 154.395,109.138 153.312,108.674 151.983 C 107.380 148.271,106.063 148.000,89.297 148.000 C 70.006 148.000,69.481 148.241,68.992 157.292 C 68.577 164.989,68.514 165.107,65.604 163.602 C 64.271 162.913,60.335 162.129,56.858 161.861 C 51.507 161.448,50.608 161.176,51.002 160.087 C 51.502 158.700,187.712 22.400,188.597 22.400 C 188.890 22.400,194.995 28.245,202.165 35.388 M204.200 107.434 C 185.610 126.035,170.400 141.654,170.400 142.142 C 170.400 143.146,172.227 144.000,174.373 144.000 C 177.440 144.000,178.400 147.309,178.400 157.874 C 178.400 169.695,178.935 170.715,183.766 168.095 C 189.057 165.227,196.518 163.200,201.790 163.200 L 206.831 163.200 237.415 132.775 C 254.237 116.041,268.000 101.785,268.000 101.094 C 268.000 98.846,242.282 73.600,240.000 73.607 C 238.435 73.612,230.654 80.964,204.200 107.434 M254.191 87.391 C 261.346 94.536,267.200 100.730,267.200 101.156 C 267.200 102.585,208.031 160.763,206.199 161.136 C 205.210 161.337,201.685 161.670,198.367 161.876 C 192.893 162.217,190.709 162.855,181.000 166.949 C 180.228 167.275,180.000 164.886,180.000 156.486 C 180.000 144.206,179.284 142.460,174.200 142.337 C 172.770 142.302,172.050 142.092,172.600 141.870 C 173.150 141.648,173.599 141.047,173.598 140.533 C 173.595 139.155,238.594 74.419,239.991 74.409 C 240.646 74.404,247.036 80.246,254.191 87.391 M270.047 144.947 C 249.064 166.035,247.626 168.164,256.875 164.463 C 265.960 160.828,281.564 164.090,291.915 171.786 C 296.154 174.939,296.704 174.977,299.676 172.328 C 300.954 171.189,303.710 169.178,305.800 167.860 C 307.890 166.541,309.600 165.145,309.600 164.756 C 309.600 164.367,311.490 162.023,313.800 159.547 C 318.849 154.135,319.431 153.189,318.848 151.350 C 318.111 149.029,293.238 124.800,291.591 124.800 C 290.700 124.800,281.989 132.947,270.047 144.947 M305.543 138.580 C 313.125 146.239,317.599 151.361,317.597 152.380 C 317.592 154.609,311.347 161.098,303.141 167.399 L 296.283 172.666 293.080 170.133 C 291.319 168.740,288.646 166.997,287.139 166.259 C 278.408 161.986,278.478 162.000,266.200 162.000 C 259.710 162.000,254.400 161.927,254.400 161.837 C 254.400 161.505,285.986 130.218,288.213 128.344 C 291.947 125.201,292.797 125.703,305.543 138.580 M231.384 232.454 C 224.870 239.212,214.960 243.200,204.681 243.200 C 199.731 243.200,199.207 244.203,199.175 253.747 C 199.138 264.594,200.193 264.000,180.959 264.000 C 163.037 264.000,163.868 264.278,163.214 258.063 C 162.986 255.898,162.420 254.002,161.956 253.849 C 161.056 253.552,110.945 303.086,109.598 305.604 C 109.159 306.424,108.800 307.296,108.800 307.543 C 108.800 309.004,135.236 334.400,136.757 334.400 C 137.979 334.400,152.849 320.100,187.237 285.852 C 214.048 259.151,236.294 237.101,236.672 236.852 C 239.088 235.265,239.352 232.588,237.296 230.532 L 235.229 228.465 231.384 232.454 M237.071 234.047 C 236.696 235.024,176.482 295.587,167.605 303.916 C 165.842 305.570,163.487 307.975,162.371 309.262 C 161.255 310.548,158.915 312.897,157.171 314.482 C 155.427 316.067,153.056 318.407,151.903 319.682 C 150.750 320.957,148.230 323.470,146.303 325.267 C 144.376 327.064,141.807 329.674,140.594 331.067 C 137.646 334.451,136.177 334.268,131.959 329.990 C 130.002 328.004,124.856 322.874,120.524 318.590 C 116.193 314.305,111.989 310.131,111.183 309.312 C 108.932 307.027,109.113 306.812,134.910 281.005 C 159.465 256.441,161.600 254.754,161.600 259.908 C 161.600 265.408,162.259 265.600,181.106 265.600 C 202.249 265.600,201.419 266.067,201.769 253.982 L 202.000 246.000 207.200 245.522 C 217.185 244.605,223.175 241.928,231.218 234.784 C 235.255 231.199,238.312 230.814,237.071 234.047 M292.787 234.917 C 288.617 238.236,281.870 241.410,277.496 242.109 C 275.813 242.379,273.670 243.364,272.734 244.299 C 204.302 312.688,160.800 356.983,160.800 358.274 C 160.800 359.625,185.521 385.600,186.806 385.600 C 187.557 385.600,182.867 380.614,172.201 370.074 C 166.372 364.313,161.602 359.028,161.601 358.329 C 161.601 357.630,165.394 353.310,170.032 348.729 C 174.670 344.148,181.960 336.882,186.232 332.582 C 192.834 325.937,251.865 267.001,254.652 264.272 C 255.173 263.761,259.537 259.342,264.349 254.451 C 272.266 246.403,273.520 245.443,277.549 244.350 C 283.144 242.831,289.012 239.992,293.398 236.682 L 296.796 234.117 298.649 235.859 C 299.669 236.816,300.912 237.600,301.412 237.600 C 301.912 237.600,302.608 238.088,302.960 238.685 C 304.401 241.128,317.846 245.600,323.750 245.600 C 325.596 245.600,327.284 245.889,327.502 246.242 C 327.721 246.595,296.460 278.275,258.035 316.642 C 219.609 355.009,188.446 386.400,188.784 386.400 C 190.049 386.400,329.457 246.733,329.723 245.200 C 329.931 243.997,329.603 243.647,328.400 243.791 C 323.652 244.356,307.665 240.358,304.737 237.872 C 304.042 237.282,303.070 236.800,302.577 236.800 C 302.083 236.800,301.392 236.317,301.040 235.726 C 298.918 232.164,296.538 231.931,292.787 234.917 M74.800 237.198 C 72.600 238.651,70.369 240.326,69.842 240.920 C 69.315 241.514,66.301 244.772,63.145 248.160 C 58.509 253.138,57.497 254.674,57.879 256.160 C 58.524 258.674,83.405 283.200,85.309 283.200 C 86.973 283.200,125.600 245.039,125.600 243.394 C 125.600 242.640,122.243 242.400,111.704 242.400 C 96.163 242.400,91.020 241.352,84.294 236.812 C 79.957 233.885,79.805 233.892,74.800 237.198 M85.053 239.540 C 91.034 243.367,99.328 244.983,111.444 244.682 C 124.708 244.353,124.974 243.610,104.504 264.025 C 87.374 281.111,85.725 282.410,83.200 280.820 C 80.896 279.369,58.400 256.426,58.400 255.527 C 58.400 254.225,70.935 242.060,75.200 239.224 C 79.717 236.219,79.869 236.224,85.053 239.540 " stroke="none" fill="#884770" fill-rule="evenodd"></path></g></svg>