<svg xmlns="http://www.w3.org/2000/svg" viewBox="0 0 250 250"><title>CR</title><path d="M35,127.15l6-2.57,10.35-4.42a1.19,1.19,0,0,0,.69-.69c.76-1.8,1.52-3.59,2.32-5.37a8.34,8.34,0,0,1,7.91-5.19c4.49-.12,9,0,13.49,0a5.57,5.57,0,0,0,2.81-.59c.58-.31,1.2-.54,1.83-.82-.12-.36-.47-.49-.72-.68-1-.78-2.08-1.54-3.1-2.34a1,1,0,0,0-1.14-.24c-1.62.81-2.83.19-4.18-.83-6.78-5.12-13.63-10.14-20.46-15.2-.15-.11-.29-.24-.51-.43L55,85.85c2.38-1,4.75-1.92,7.13-2.84a1,1,0,0,0,.74-1c.36-4.23.77-8.45,1.18-12.79l2.52,1.85q10,7.39,20,14.77a1.23,1.23,0,0,1,.56,1.27c-.2,2.33-.18,2.33,1.7,3.73,3.5,2.61,7,5.21,10.5,7.85a1.08,1.08,0,0,0,1.24.15c7.55-3.24,15.1-6.46,22.65-9.7a2.13,2.13,0,0,1,1.85,0q23.24,9.8,46.5,19.56a2.47,2.47,0,0,0,1,.15h24a10.35,10.35,0,0,1,4.82,1,7.39,7.39,0,0,1,3.67,9.42c-.32.87-.72,1.71-1.13,2.54-.21.43-.14.61.31.79,3.29,1.36,6.57,2.74,9.85,4.12l1,.44c-.24.12-.39.21-.55.28q-7.73,3.3-15.47,6.59a1.72,1.72,0,0,0-1,1q-1.4,3.18-2.87,6.33a8.5,8.5,0,0,1-8.08,5.19c-5.35.08-10.7,0-16.05,0a5.23,5.23,0,0,0-2.4.5c-.81.39-1.64.72-2.56,1.11l7,5.17c1.28.94,1.28.94,2.22-.33l3.1-4.18,16.72,31.91-35.43-6.65,3.22-4.35c.61-.82.61-.82-.23-1.44q-7.71-5.71-15.41-11.43a1.09,1.09,0,0,0-1.25-.15q-10.72,4.59-21.45,9.15a1.34,1.34,0,0,1-1.17,0l-43.5-19a3.61,3.61,0,0,0-1.48-.31q-12.75,0-25.51,0a8,8,0,0,1-8.1-6.74,9.06,9.06,0,0,1,.56-4.82c.09-.23.18-.45.27-.68.25-.65.92-1.37.68-1.91s-1.14-.63-1.76-.92l-8.92-4.05C35.42,127.39,35.26,127.29,35,127.15Zm171.61.11-.82-.37c-2-.83-3.95-1.68-5.94-2.47-.51-.2-.6-.39-.36-.89.81-1.72,1.61-3.45,2.34-5.2a4.11,4.11,0,0,0-2.36-5.65,8.26,8.26,0,0,0-3.3-.53H132c-.28,0-.58.07-.84-.19l33-2.54c-.19-.41-.48-.44-.72-.53L124.8,92.64a1.61,1.61,0,0,0-1.38,0L78.59,111.89a3.63,3.63,0,0,1-1.48.31c-4.81,0-9.63,0-14.44,0a5.43,5.43,0,0,0-5.44,3.56c-.85,2.07-1.79,4.11-2.66,6.18a1.33,1.33,0,0,1-.79.77q-5,2.09-9.88,4.23c-.23.1-.51.13-.67.4,2.28,1,4.53,2.09,6.81,3.09.56.24.73.42.43,1-.75,1.59-1.46,3.2-2.07,4.84-.75,2-.68,4,1,5.63a5.32,5.32,0,0,0,4,1.41h64.87v.19l-31.77,2.65.7.34,36.4,15.85a1,1,0,0,0,.89,0l43.72-18.64a4.52,4.52,0,0,1,1.83-.38c5.67,0,11.34,0,17,0a5.36,5.36,0,0,0,5.18-3.3c1-2.17,2-4.33,2.93-6.54a3.85,3.85,0,0,1,2.36-2.33C200.49,129.93,203.49,128.59,206.61,127.26Zm-140-52.54a.86.86,0,0,0-.2.67c-.26,2.89-.52,5.78-.77,8.67a1,1,0,0,1-.71.95c-2.71,1-5.39,2.14-8.08,3.23-.19.08-.44.09-.57.36l.57.44C61.88,92.79,67,96.49,72,100.32c1.28,1,2.44,1.48,3.94.76a1.13,1.13,0,0,1,1.27.23c2,1.49,4,2.95,5.91,4.44a.88.88,0,0,0,1,.11c2.21-1,4.43-1.91,6.65-2.86l6-2.55c-.22-.18-.36-.31-.51-.42-3.8-2.83-7.58-5.68-11.4-8.47a1.5,1.5,0,0,1-.78-1.74,12.28,12.28,0,0,0,.07-1.39,1.12,1.12,0,0,0-.55-1.15c-4-3-8-6-12.06-8.93ZM189.72,176.8l-1.94-3.69q-4.75-9.08-9.5-18.16c-.28-.54-.43-.6-.8-.08-.69,1-1.46,1.9-2.11,2.9-.35.53-.59.52-1.06.16-3.58-2.68-7.18-5.32-10.75-8a1.16,1.16,0,0,0-1.33-.14c-2.62,1.14-5.25,2.25-7.87,3.37l-4.64,2,1,.77q8.07,6,16.14,11.92c.5.37.62.61.18,1.13-.69.82-1.28,1.73-1.93,2.58-.33.42-.39.58.26.7,5.63,1,11.26,2.11,16.89,3.17Z" style="fill:#175388"/><path d="M175.5,149.27a1.89,1.89,0,1,1-1.87-1.95A1.9,1.9,0,0,1,175.5,149.27Zm-1.85,1.59a1.54,1.54,0,0,0,1.49-1.64,1.59,1.59,0,0,0-1.57-1.59,1.61,1.61,0,0,0-1.5,1.66A1.56,1.56,0,0,0,173.65,150.86Z" style="fill:#175388"/><path d="M206.61,127.26c-3.12,1.33-6.12,2.67-9.18,3.87a3.85,3.85,0,0,0-2.36,2.33c-.9,2.21-1.93,4.37-2.93,6.54a5.36,5.36,0,0,1-5.18,3.3c-5.67,0-11.34,0-17,0a4.52,4.52,0,0,0-1.83.38l-43.72,18.64a1,1,0,0,1-.89,0l-36.4-15.85-.7-.34,31.77-2.65v-.19H53.32a5.32,5.32,0,0,1-4-1.41c-1.65-1.63-1.72-3.6-1-5.63.61-1.64,1.32-3.25,2.07-4.84.3-.63.12-.8-.43-1-2.28-1-4.53-2.05-6.81-3.09.16-.27.44-.3.67-.4q4.94-2.12,9.88-4.23a1.33,1.33,0,0,0,.79-.77c.87-2.07,1.81-4.11,2.66-6.18a5.43,5.43,0,0,1,5.44-3.56c4.81,0,9.63,0,14.44,0a3.63,3.63,0,0,0,1.48-.31l44.83-19.21a1.61,1.61,0,0,1,1.38,0l38.62,16.24c.23.1.53.13.72.53l-33,2.54c.26.26.56.19.84.19h64.21a8.26,8.26,0,0,1,3.3.53,4.11,4.11,0,0,1,2.36,5.65c-.73,1.76-1.53,3.48-2.34,5.2-.24.5-.15.69.36.89,2,.8,4,1.64,5.94,2.47ZM110,129.16c.68,3.63,1.34,7,1.95,10.44.09.53.29.66.8.65,2,0,4.06,0,6.08,0a1,1,0,0,0,1.06-.71q4.68-11.36,9.41-22.69l.55-1.32H116.7c0,.21.12.21.22.24,1.33.32,2.65.66,4,.93.57.12.61.31.39.81-1.19,2.8-2.35,5.62-3.52,8.43-.08.19-.09.44-.35.55-.6-3.49-1.2-7-1.77-10.46-.07-.46-.21-.61-.68-.6q-3.37,0-6.74,0a.69.69,0,0,0-.75.51q-4.93,11.85-9.89,23.69c-.25.6,0,.62.46.62,2.22,0,4.45,0,6.67,0a.82.82,0,0,0,.91-.61c1.12-2.75,2.27-5.5,3.42-8.24C109.33,130.71,109.63,130,110,129.16Zm33-13.72v0c-2.15,0-4.3-.07-6.45,0a4.73,4.73,0,0,0-4.62,3.2c-.77,2-1.65,4-2.49,6-1.67,4-3.35,8-5,12-.81,2,.11,3.5,2.14,3.51,4.25,0,8.5.07,12.75,0a4.62,4.62,0,0,0,4.54-3.08c1.7-4.23,3.49-8.42,5.23-12.63.81-2,1.66-3.9,2.41-5.88a2.18,2.18,0,0,0-2.15-3.16H143Zm36,24.8c2.1,0,4.2.07,6.3,0a4.68,4.68,0,0,0,4.55-3.05c2.42-5.93,4.92-11.84,7.38-17.75a8.49,8.49,0,0,0,.4-1.1,2.12,2.12,0,0,0-2.06-2.84c-4.4,0-8.79-.07-13.19,0a4.44,4.44,0,0,0-4.27,2.81q-3.84,9.21-7.66,18.43c-.85,2.06.15,3.48,2.39,3.49Zm-94.5-5.4,8.09-19.39c-2.46,0-4.83,0-7.2,0a.91.91,0,0,0-1,.67c-1.37,3.36-2.79,6.71-4.19,10.06-1.47,3.53-3,7.05-4.42,10.59-.79,1.94.12,3.46,2.12,3.47,4.25,0,8.5.07,12.75,0,1.79,0,3.5-.66,4.27-2.47C98,130.52,101,123.27,104,116c.22-.51.1-.6-.41-.6-2.1,0-4.2.05-6.3,0a1.21,1.21,0,0,0-1.36.92c-2.46,6-5,11.92-7.45,17.88-.13.31-.17.64-.66.62C86.78,134.81,85.71,134.83,84.53,134.83ZM70,123.57h7.58c.18,0,.33,0,.41-.23A44.4,44.4,0,0,0,80,118.12a2,2,0,0,0-2-2.64c-4.44,0-8.89-.07-13.33,0a4.53,4.53,0,0,0-4.37,3.1c-.87,2.22-1.84,4.41-2.75,6.61s-.31,3.23,1.81,3.91,4.4,1.43,6.61,2.13c.41.13.65.22.41.74-.38.81-.69,1.66-1,2.51a.45.45,0,0,1-.47.36H61.48c.34-.83.63-1.57,1-2.3.18-.39.11-.5-.32-.5-2.32,0-4.64,0-7,0-.25,0-.46,0-.58.31-.63,1.58-1.35,3.14-1.91,4.75a2.18,2.18,0,0,0,2.22,3.12c4.25,0,8.5.09,12.75,0A4.64,4.64,0,0,0,72.26,137c.74-2,1.66-4,2.49-6s.3-3.3-1.84-4-4.46-1.42-6.69-2.11c-.42-.13-.55-.25-.34-.7.43-.9.8-1.83,1.18-2.76a.55.55,0,0,1,.58-.42c1,0,2,0,2.93,0,.36,0,.42.12.29.44C70.57,122.15,70.31,122.8,70,123.57Zm95.67-2.5c-.3.74-.56,1.39-.84,2-.16.36-.08.47.31.47h7c.23,0,.44,0,.54-.27.68-1.67,1.44-3.32,2-5a2.07,2.07,0,0,0-2.08-2.81c-4.37,0-8.75-.07-13.12,0a4.65,4.65,0,0,0-4.49,3.17c-1.43,3.6-3,7.16-4.44,10.74-1,2.5-2.11,5-3.1,7.5-.72,1.82.21,3.28,2.12,3.3,4.32,0,8.65.07,13,0a4.29,4.29,0,0,0,4.1-2.48c.9-2,1.69-4.05,2.55-6.07.2-.47.05-.51-.37-.51-2.27,0-4.54,0-6.82,0a.67.67,0,0,0-.73.53c-.36.91-.76,1.8-1.11,2.71a.62.62,0,0,1-.7.47q-1.35,0-2.71,0c-.46,0-.54-.1-.35-.53q2.69-6.4,5.35-12.82a.6.6,0,0,1,.65-.43C163.42,121.08,164.47,121.07,165.66,121.07Z" style="fill:#fce401"/><path d="M66.59,74.72l4.93,3.64c4,3,8,6,12.06,8.93a1.12,1.12,0,0,1,.55,1.15,12.28,12.28,0,0,1-.07,1.39,1.5,1.5,0,0,0,.78,1.74c3.82,2.8,7.6,5.64,11.4,8.47.15.11.3.24.51.42l-6,2.55c-2.22.95-4.45,1.88-6.65,2.86a.88.88,0,0,1-1-.11c-2-1.5-3.95-3-5.91-4.44a1.13,1.13,0,0,0-1.27-.23c-1.5.72-2.66.22-3.94-.76C67,96.49,61.88,92.79,56.82,89l-.57-.44c.13-.27.37-.28.57-.36,2.69-1.09,5.38-2.18,8.08-3.23a1,1,0,0,0,.71-.95c.25-2.89.51-5.78.77-8.67A.86.86,0,0,1,66.59,74.72Z" style="fill:#e12e3d"/><path d="M189.72,176.8l-7.42-1.38c-5.63-1.06-11.25-2.14-16.89-3.17-.65-.12-.59-.28-.26-.7.66-.85,1.24-1.76,1.93-2.58.44-.52.32-.76-.18-1.13q-8.08-5.94-16.14-11.92l-1-.77,4.64-2c2.62-1.12,5.25-2.23,7.87-3.37a1.16,1.16,0,0,1,1.33.14c3.57,2.68,7.18,5.32,10.75,8,.47.35.71.37,1.06-.16.66-1,1.43-1.92,2.11-2.9.36-.52.52-.46.8.08q4.73,9.09,9.5,18.16Z" style="fill:#e12e3d"/><path d="M110,129.16c-.37.87-.66,1.55-1,2.24-1.14,2.75-2.29,5.49-3.42,8.24a.82.82,0,0,1-.91.61c-2.22,0-4.45,0-6.67,0-.49,0-.72,0-.46-.62q5-11.83,9.89-23.69a.69.69,0,0,1,.75-.51q3.37,0,6.74,0c.47,0,.61.15.68.6.57,3.48,1.18,7,1.77,10.46.27-.11.27-.36.35-.55,1.18-2.81,2.33-5.63,3.52-8.43.22-.51.18-.7-.39-.81-1.34-.28-2.66-.62-4-.93-.09,0-.2,0-.22-.24h13.15l-.55,1.32q-4.71,11.34-9.41,22.69a1,1,0,0,1-1.06.71c-2,0-4.06,0-6.08,0-.51,0-.71-.13-.8-.65C111.33,136.19,110.68,132.78,110,129.16Z" style="fill:#165288"/><path d="M143,115.44h6.37a2.18,2.18,0,0,1,2.15,3.16c-.75,2-1.6,3.93-2.41,5.88-1.75,4.21-3.54,8.4-5.23,12.63a4.62,4.62,0,0,1-4.54,3.08c-4.25.09-8.5,0-12.75,0-2,0-3-1.53-2.14-3.51,1.65-4,3.33-8,5-12,.83-2,1.72-4,2.49-6a4.73,4.73,0,0,1,4.62-3.2c2.15-.09,4.3,0,6.45,0Zm-9.86,19.41c1.14,0,2.18,0,3.22,0a.71.71,0,0,0,.79-.56c.4-1,.83-2,1.26-3,1.33-3.19,2.66-6.38,4-9.56.21-.5.18-.68-.42-.64a21.52,21.52,0,0,1-2.41,0,.84.84,0,0,0-1,.64c-1.13,2.77-2.29,5.53-3.45,8.29Z" style="fill:#165288"/><path d="M179,140.24h-6.16c-2.24,0-3.24-1.43-2.39-3.49q3.8-9.23,7.66-18.43a4.44,4.44,0,0,1,4.27-2.81c4.39-.1,8.79-.07,13.19,0a2.12,2.12,0,0,1,2.06,2.84,8.49,8.49,0,0,1-.4,1.1c-2.46,5.92-5,11.82-7.38,17.75a4.68,4.68,0,0,1-4.55,3.05C183.23,140.3,181.13,140.24,179,140.24Zm.14-5.39h1.29c.81,0,1.76.25,2.37-.1s.74-1.42,1.06-2.18c1.52-3.62,3-7.24,4.54-10.86.2-.49.2-.67-.41-.64a24,24,0,0,1-2.49,0,.76.76,0,0,0-.86.57c-.79,1.94-1.61,3.87-2.41,5.81Z" style="fill:#165288"/><path d="M84.53,134.83c1.18,0,2.26,0,3.33,0,.49,0,.54-.31.66-.62,2.49-6,5-11.91,7.45-17.88a1.21,1.21,0,0,1,1.36-.92c2.1.07,4.2,0,6.3,0,.51,0,.63.09.41.6-3,7.23-6,14.48-9.11,21.7-.77,1.81-2.48,2.43-4.27,2.47-4.25.09-8.5.06-12.75,0-2,0-2.91-1.53-2.12-3.47,1.45-3.54,2.94-7.06,4.42-10.59,1.4-3.35,2.81-6.7,4.19-10.06a.91.91,0,0,1,1-.67c2.37,0,4.73,0,7.2,0Z" style="fill:#165288"/><path d="M70,123.57c.32-.77.58-1.42.86-2.07.13-.31.07-.44-.29-.44-1,0-2,0-2.93,0a.55.55,0,0,0-.58.42c-.37.93-.75,1.85-1.18,2.76-.21.44-.07.57.34.7,2.23.69,4.46,1.42,6.69,2.11s2.71,1.88,1.84,4-1.75,4-2.49,6a4.64,4.64,0,0,1-4.62,3.18c-4.25.11-8.5.06-12.75,0a2.18,2.18,0,0,1-2.22-3.12c.56-1.61,1.28-3.16,1.91-4.75.12-.3.32-.31.58-.31,2.32,0,4.64,0,7,0,.44,0,.5.11.32.5-.33.73-.61,1.47-1,2.3h3.44a.45.45,0,0,0,.47-.36c.32-.84.63-1.69,1-2.51.24-.51,0-.61-.41-.74-2.21-.7-4.41-1.42-6.61-2.13s-2.67-1.84-1.81-3.91,1.87-4.39,2.75-6.61a4.53,4.53,0,0,1,4.37-3.1c4.44-.09,8.89-.06,13.33,0a2,2,0,0,1,2,2.64A44.4,44.4,0,0,1,78,123.34c-.08.2-.23.23-.41.23Z" style="fill:#165288"/><path d="M165.66,121.07c-1.19,0-2.24,0-3.29,0a.6.6,0,0,0-.65.43q-2.66,6.42-5.35,12.82c-.18.43-.11.54.35.53q1.35,0,2.71,0a.62.62,0,0,0,.7-.47c.35-.91.75-1.8,1.11-2.71a.67.67,0,0,1,.73-.53c2.27,0,4.54,0,6.82,0,.42,0,.57,0,.37.51-.86,2-1.65,4.07-2.55,6.07a4.29,4.29,0,0,1-4.1,2.48c-4.32.09-8.65.06-13,0-1.9,0-2.83-1.48-2.12-3.3,1-2.52,2.06-5,3.1-7.5,1.49-3.58,3-7.14,4.44-10.74a4.65,4.65,0,0,1,4.49-3.17c4.37-.1,8.75-.07,13.12,0a2.07,2.07,0,0,1,2.08,2.81c-.57,1.71-1.33,3.35-2,5-.1.26-.31.27-.54.27h-7c-.39,0-.47-.11-.31-.47C165.1,122.46,165.36,121.81,165.66,121.07Z" style="fill:#165288"/><path d="M133.17,134.84l2-4.86c1.15-2.76,2.32-5.52,3.45-8.29a.84.84,0,0,1,1-.64,21.52,21.52,0,0,0,2.41,0c.6,0,.63.15.42.64-1.35,3.18-2.67,6.37-4,9.56-.42,1-.86,2-1.26,3a.71.71,0,0,1-.79.56C135.35,134.82,134.31,134.84,133.17,134.84Z" style="fill:#fce401"/><path d="M179.17,134.84l3.09-7.41c.81-1.93,1.63-3.86,2.41-5.81a.76.76,0,0,1,.86-.57,24,24,0,0,0,2.49,0c.61,0,.61.15.41.64-1.52,3.62-3,7.24-4.54,10.86-.32.76-.4,1.81-1.06,2.18s-1.57.1-2.37.1Z" style="fill:#fce401"/><path d="M173,148.17a3,3,0,0,1,.56,0,.92.92,0,0,1,.65.18.56.56,0,0,1,.18.43.59.59,0,0,1-.42.57h0a.56.56,0,0,1,.33.45,3.56,3.56,0,0,0,.17.62h-.3a2.87,2.87,0,0,1-.15-.54c-.07-.31-.19-.43-.45-.44h-.27v1H173Zm.29,1h.3c.31,0,.51-.17.51-.43s-.21-.42-.52-.42a1.19,1.19,0,0,0-.29,0Z" style="fill:#175388"/></svg>