<?xml version="1.0" encoding="utf-8"?>
<!-- Generator: Adobe Illustrator 20.1.0, SVG Export Plug-In . SVG Version: 6.00 Build 0)  -->
<svg version="1.1" id="Layer_1" xmlns="http://www.w3.org/2000/svg" xmlns:xlink="http://www.w3.org/1999/xlink" x="0px" y="0px"
	 viewBox="0 0 25.4 22" style="enable-background:new 0 0 25.4 22;" xml:space="preserve">
<style type="text/css">
	.st0{fill:#F9E8A0;}
	.st1{fill:#FF0000;}
	.st2{fill:#414042;}
	.st3{fill:#F8E79F;}
	.st4{fill:#F6D056;}
	.st5{fill:none;stroke:#000000;stroke-linecap:round;stroke-linejoin:round;stroke-miterlimit:10;}
	.st6{fill:none;}
	.st7{fill:#A7A9AC;}
	.st8{fill:#FFFFFF;}
	.st9{fill:#FBECBB;}
	.st10{fill:#F15F2E;}
	.st11{fill:#45A5DA;}
	.st12{fill:#ED1C24;}
	.st13{fill:#231F20;}
</style>
<g>
	<path class="st0" d="M9.5,19.9v-7.6c0,0,1-1,2.9-0.9s3.1,0.8,3.1,0.8v7.6H9.5z"/>
	<g>
		<rect x="3" y="9" class="st1" width="2.5" height="10.7"/>
		<rect x="19.8" y="9.1" class="st1" width="2.5" height="10.7"/>
	</g>
	<g>
		<path class="st0" d="M2.9,0.4V9l19.4-0.2V0.4H2.9z M14,5.5c0,0.2-0.2,0.4-0.4,0.4h-1.7c-0.2,0-0.4-0.2-0.4-0.4V3
			c0-0.2,0.2-0.4,0.4-0.4h1.7C13.8,2.5,14,2.7,14,3V5.5z"/>
		<rect x="11.8" y="9.3" class="st2" width="1.7" height="10.1"/>
		<rect x="11.8" y="9.3" class="st2" width="1.7" height="10.1"/>
		<path class="st2" d="M11.8,2.5c-0.2,0-0.4,0.2-0.4,0.4v2.5c0,0.2,0.2,0.4,0.4,0.4h1.7c0.2,0,0.4-0.2,0.4-0.4V3
			c0-0.2-0.2-0.4-0.4-0.4H11.8z M13.1,5.1h-0.8V3.4h0.8V5.1z"/>
		<path class="st2" d="M3,7.6c0.2,0,0.4-0.2,0.4-0.4V0.8H22v6.3c0,0.2,0.2,0.4,0.4,0.4c0.2,0,0.4-0.2,0.4-0.4V0.4
			c0-0.2-0.2-0.4-0.4-0.4h-3.8h-5.9h-0.8H8.1H3C2.7,0,2.5,0.2,2.5,0.4v6.8C2.5,7.4,2.7,7.6,3,7.6z"/>
		<path class="st2" d="M11.8,2.5c-0.2,0-0.4,0.2-0.4,0.4v2.5c0,0.2,0.2,0.4,0.4,0.4h1.7c0.2,0,0.4-0.2,0.4-0.4V3
			c0-0.2-0.2-0.4-0.4-0.4H11.8z M13.1,5.1h-0.8V3.4h0.8V5.1z"/>
		<path class="st2" d="M24.9,21.1H0.4c-0.2,0-0.4,0.2-0.4,0.4C0,21.8,0.2,22,0.4,22h24.5c0.2,0,0.4-0.2,0.4-0.4
			C25.4,21.3,25.2,21.1,24.9,21.1z"/>
		<path class="st2" d="M15.6,18.6c0.2,0,0.4-0.2,0.4-0.4v-5.9c0-0.1,0-0.2-0.1-0.3c0,0-1-1-3.3-1s-3.2,0.9-3.3,1
			c-0.1,0.1-0.1,0.2-0.1,0.3v5.9c0,0.2,0.2,0.4,0.4,0.4c0.2,0,0.4-0.2,0.4-0.4v-5.7c0.3-0.2,0.9-0.5,2.1-0.6v4.2
			c-0.2,0-0.4,0.2-0.4,0.4c0,0.2,0.2,0.4,0.4,0.4v1.3c0,0.2,0.2,0.4,0.4,0.4c0.2,0,0.4-0.2,0.4-0.4v-1.3c0.2,0,0.4-0.2,0.4-0.4
			c0-0.2-0.2-0.4-0.4-0.4v-4.2c1.2,0.1,1.9,0.4,2.1,0.6v5.7C15.2,18.4,15.4,18.6,15.6,18.6z"/>
		<path class="st2" d="M7.6,19.9c0,0.2,0.2,0.4,0.4,0.4h9.3c0.2,0,0.4-0.2,0.4-0.4c0-0.2-0.2-0.4-0.4-0.4H8
			C7.8,19.4,7.6,19.6,7.6,19.9z"/>
		<path class="st2" d="M2.1,19.4c-0.2,0-0.4,0.2-0.4,0.4c0,0.2,0.2,0.4,0.4,0.4h4.2c0.2,0,0.4-0.2,0.4-0.4c0-0.2-0.2-0.4-0.4-0.4
			H5.9V9.3h13.5v10.1H19c-0.2,0-0.4,0.2-0.4,0.4c0,0.2,0.2,0.4,0.4,0.4h4.2c0.2,0,0.4-0.2,0.4-0.4c0-0.2-0.2-0.4-0.4-0.4h-0.4V9.3
			h0.4c0.2,0,0.4-0.2,0.4-0.4c0-0.2-0.2-0.4-0.4-0.4H2.1c-0.2,0-0.4,0.2-0.4,0.4c0,0.2,0.2,0.4,0.4,0.4h0.4v10.1H2.1z M20.3,9.3H22
			v10.1h-1.7V9.3z M3.4,9.3h1.7v10.1H3.4V9.3z"/>
		<path class="st2" d="M11.8,2.5c-0.2,0-0.4,0.2-0.4,0.4v2.5c0,0.2,0.2,0.4,0.4,0.4h1.7c0.2,0,0.4-0.2,0.4-0.4V3
			c0-0.2-0.2-0.4-0.4-0.4H11.8z M13.1,5.1h-0.8V3.4h0.8V5.1z"/>
		<path class="st2" d="M13.5,2.5h-1.7c-0.2,0-0.4,0.2-0.4,0.4v2.5c0,0.2,0.2,0.4,0.4,0.4h1.7c0.2,0,0.4-0.2,0.4-0.4V3
			C14,2.7,13.8,2.5,13.5,2.5z M13.1,5.1h-0.8V3.4h0.8V5.1z"/>
	</g>
</g>
</svg>
