<svg xmlns="http://www.w3.org/2000/svg" viewBox="0 0 250 250"><title>Grocery</title><path d="M127.32,90c3.25,1,6.63,1.32,10,1.95,3.08.59,5.89,1.51,7.18,4.78a22.67,22.67,0,0,1,1.31,12.89c-.56,2.89-1.29,5.74-4.14,7.37-.35.2-.44.4-.1.74,2,2,2.61,4.68,3.32,7.27,1,3.44,1.74,6.93,2.67,10.38.3,1.11.05,1.47-1.1,1.42a42.81,42.81,0,0,0-4.71,0c-1.1.07-1.49-.4-1.74-1.38-1.23-4.76-2.53-9.51-3.79-14.27a4.14,4.14,0,0,0-1.18-2.26,1.43,1.43,0,0,0-1.34-.41c-.51.18-.29.75-.29,1.16,0,5.19-.06,10.38,0,15.57,0,1.31-.37,1.7-1.63,1.58a16,16,0,0,0-3.25,0c-1.4.15-1.83-.27-1.82-1.75.07-10.08,0-20.17,0-30.25,0-4.93,0-9.86,0-14.8Zm6,15c0,1.19,0,2.37,0,3.56,0,.36-.08.74.31,1,1.09.79,4.36.26,5.11-.85,1-1.49.86-5.21-.27-6.66-.63-.81-4-2.08-4.72-1.54-.92.7-.3,1.89-.41,2.85A14.61,14.61,0,0,0,133.34,105Z" style="fill:#d5252d"/><path d="M123.74,90c0,3.09-.11,6.18,0,9.26,0,1.31-.29,1.79-1.69,1.77-2.48,0-5,.19-7.45.28-1.1,0-1.71.39-1.61,1.65s0,2.38,0,3.57c0,2,.24,2.18,2.13,2,2.1-.21,4.2-.34,6.29-.56,1.13-.12,1.67.13,1.6,1.44-.11,2.21-.07,4.43,0,6.65,0,.89-.2,1.22-1.15,1.24-2.43,0-4.86.26-7.29.33-1.18,0-1.61.51-1.57,1.69.07,1.95,0,3.9,0,5.85,0,1.09.44,1.39,1.46,1.38,2.71,0,5.42,0,8.13,0,1.11,0,1.56.28,1.53,1.44-.06,2.54,0,5.09,0,7.63,0,.91-.31,1.22-1.23,1.21q-7.56-.06-15.12,0c-1,0-1.15-.39-1.15-1.25q0-20.73,0-41.46c0-1,.35-1.29,1.28-1.44,4.7-.73,9.39-1.53,14.08-2.3.32-.05.66-.05.88-.35Z" style="fill:#d5252d"/><path d="M41.42,126.12c1.59-.29,3.18-.54,4.76-.87,1-.21,1.54,0,1.6,1.09a5.53,5.53,0,0,0,.28,1.26c.59,2,2,3.11,3.59,2.78s2.62-2.1,2.41-4.09c-.18-1.69-1.47-2.89-3.77-3.5a20.45,20.45,0,0,1-2.16-.65c-5.07-2-6.8-5.93-5.6-11.42a11.24,11.24,0,0,1,10.07-8.91c3-.31,4.91,1,6.12,3.95A7.69,7.69,0,0,1,59.5,110c-.34,1.63-2.29,1-3.47,1.59a14.6,14.6,0,0,1-2.34.65,11,11,0,0,0-.49-1.88c-.48-1.05-1.1-2.06-2.52-1.78a3,3,0,0,0-2.49,3,2.4,2.4,0,0,0,2.36,2.25c3.16.47,6.21,1.2,8.15,4,1.49,2.19,1.59,4.77,1.63,7.3a15.54,15.54,0,0,1-1.91,7.77c-1.74,3.2-5.05,4.69-9.1,4.13-3.81-.52-6.24-2.81-7.18-6.73a6.16,6.16,0,0,0-.72-2.6Z" style="fill:#d5252d"/><path d="M161.82,116.79a44.1,44.1,0,0,1,1.89-12.87c2.4-7.57,8.9-8.34,14.49-3.73a13.26,13.26,0,0,1,4,6,36.37,36.37,0,0,1,.64,22.47c-.78,2.71-2.07,5.28-4.57,6.88-4.9,3.13-10.8,1.37-13.35-4A32.43,32.43,0,0,1,162,120.07C161.93,118.84,161.87,117.6,161.82,116.79Zm16,.59c-.27-2.91-.33-5.8-1.78-8.38-.77-1.37-1.76-2.58-3.5-2.44S170,108,169.4,109.48a15.23,15.23,0,0,0-.71,4.28,28.58,28.58,0,0,0,1,11.36c.64,1.95,2.28,3.29,3.68,3.19s2.91-1.59,3.45-3.47C177.53,122.38,177.51,119.83,177.79,117.38Z" style="fill:#d5252d"/><path d="M202.15,122.34a8.93,8.93,0,0,1,3.18,4.56c1.1,2.88,2,5.83,3.09,8.72.37,1,.11,1.22-.86,1.17-1.13-.06-2.28,0-3.41,0-2.79,0-2.79,0-3.69-2.57-1-3-2.06-5.93-3.11-8.89a6,6,0,0,0-.71-1.45c-.49-.69-1.22-1.3-2-1s-.4,1.13-.4,1.75c0,3.62,0,7.25,0,10.87,0,.94-.22,1.39-1.28,1.33a39.76,39.76,0,0,0-4.23,0c-.88,0-1.08-.28-1.08-1.12q0-16.88,0-33.76c0-.57-.18-1.33.83-1.15,4.77.86,9.61,1.48,14,3.68a6.71,6.71,0,0,1,3.3,3.83,14.78,14.78,0,0,1,1.18,5.52C207,117.44,206.26,120.72,202.15,122.34Zm-5.09-5.91c3,0,4.32-2.43,2.9-5.08-.58-1.08-4-2.66-5.12-2.12-1.31.61-.44,2-.6,3a10.12,10.12,0,0,0,0,1.77c0,2.11.12,2.18,2.28,2.36Z" style="fill:#d5252d"/><path d="M83,111.15c-.12,3.8.29,8.74-.3,13.64-.44,3.67-1.07,7.3-3.77,10.11-3.61,3.76-11.16,2.67-13.62-1.91A20.89,20.89,0,0,1,63,123.33c-.12-7.15,0-14.3-.06-21.45,0-1.18.35-1.64,1.51-1.75a27.56,27.56,0,0,0,3.33-.62c1.12-.24,1.58,0,1.57,1.32-.08,6.72-.05,13.43,0,20.15a12.38,12.38,0,0,0,.93,5.53c1.17,2.41,3.56,2.61,5.06.38a9.2,9.2,0,0,0,1.21-5.28q.07-10.89,0-21.78c0-1.26.35-1.85,1.64-2,1.58-.14,3.6-1.35,4.58-.48.79.7.22,3,.23,4.52C83,104.61,83,107.32,83,111.15Z" style="fill:#d5252d"/><path d="M86.26,116.46c0-6.12,0-12.24,0-18.35,0-1.21.19-1.82,1.61-2,3.11-.35,6.18-1,9.28-1.45a4.33,4.33,0,0,1,5.08,2.8c1.78,3.87,1.64,8,1.42,12.09a21,21,0,0,1-1.37,6.62c-1.34,3.42-3.81,4.93-7.37,5-2.45,0-2.45.07-2.46,2.53,0,3.9,0,7.79,0,11.69,0,1-.23,1.5-1.35,1.41a20.57,20.57,0,0,0-3.41,0c-1.2.1-1.45-.43-1.44-1.5C86.28,129,86.26,122.74,86.26,116.46Zm6.17-8.32q0,1.29,0,2.58c0,2.27.53,2.61,2.66,1.79A3,3,0,0,0,96.87,111a7.08,7.08,0,0,0-.12-6.51c-.74-1.36-2-1.06-3.29-.89s-1,1.05-1,1.82S92.43,107.22,92.43,108.13Z" style="fill:#d5252d"/><path d="M150.69,115.43c0-6.45,0-12.9,0-19.35,0-1.32.09-2,1.74-1.54a18.8,18.8,0,0,0,4.15.7c1.56.11,2,.8,2,2.35-.08,8.17,0,16.35,0,24.52,0,4.39,0,8.77,0,13.16,0,1.18-.32,1.63-1.56,1.53a30.26,30.26,0,0,0-4.55,0c-1.34.1-1.76-.33-1.75-1.7.07-6.07,0-12.14,0-18.21Q150.69,116.16,150.69,115.43Z" style="fill:#d5252d"/><path d="M41.62,156.11l2.17-1.22a5.18,5.18,0,0,0,1.12,1.87,2.23,2.23,0,0,0,3,0,2,2,0,0,0,.55-1.49,1.9,1.9,0,0,0-.41-1.24,4.21,4.21,0,0,0-1.47-1l-.42-.19a13,13,0,0,1-2.6-1.46,3.74,3.74,0,0,1-1.11-1.49,5.19,5.19,0,0,1-.38-2,4.39,4.39,0,0,1,1.15-3.15,3.94,3.94,0,0,1,3-1.21,4.12,4.12,0,0,1,2.7.88A5.1,5.1,0,0,1,50.46,147l-2.17,1a3.92,3.92,0,0,0-.95-1.57A1.94,1.94,0,0,0,46,146a1.63,1.63,0,0,0-1.22.46,1.7,1.7,0,0,0-.45,1.24q0,1.22,2.19,2.3l1.06.54a6.63,6.63,0,0,1,2.49,2,4.85,4.85,0,0,1,.66,2.67,5,5,0,0,1-1.15,3.49,4.05,4.05,0,0,1-3.16,1.27,4.6,4.6,0,0,1-3-1A5.89,5.89,0,0,1,41.62,156.11Z"/><path d="M52.8,153.84V143.7h2.39V154a4.52,4.52,0,0,0,.57,2.58,2.11,2.11,0,0,0,1.84.8,2.25,2.25,0,0,0,1.92-.77,4.48,4.48,0,0,0,.58-2.61V143.7h2.32v10.62a6.31,6.31,0,0,1-1.25,4.2A4.42,4.42,0,0,1,57.6,160,4.3,4.3,0,0,1,54,158.48,7.47,7.47,0,0,1,52.8,153.84Z"/><path d="M65.24,159.73v-16h4.53a4.36,4.36,0,0,1,3.34,1.18,5.09,5.09,0,0,1,1.1,3.58A5.25,5.25,0,0,1,73.15,152,4,4,0,0,1,70,153.25H67.66v6.48Zm2.41-9h1.77a2.66,2.66,0,0,0,1.85-.52,3.06,3.06,0,0,0,0-3.48,2.66,2.66,0,0,0-1.85-.52H67.66Z"/><path d="M76.38,159.73v-16h8.24v2.6H78.75v3.79H83v2.56H78.75V157h6.12v2.73Z"/><path d="M86.82,159.73v-16h4.3a4.19,4.19,0,0,1,4.76,4.79,5.13,5.13,0,0,1-.61,2.6,3.16,3.16,0,0,1-1.74,1.44l2.81,7.19H93.78l-2.45-6.5H89.15v6.5Zm2.34-9h2.08a1.94,1.94,0,0,0,2.23-2.23,2.28,2.28,0,0,0-.54-1.68,2.32,2.32,0,0,0-1.69-.54H89.15Z"/><path d="M105.85,159.73l-3.26-16h2.34l1.82,9.21q.1.53.23,1.45t.27,2.13a21.68,21.68,0,0,1,.43-3l.09-.45,1.85-9.3h2l1.76,9.21q.1.53.23,1.45t.28,2.14q.05-.79.17-1.65t.32-1.86l1.85-9.3h2.34l-3.26,16h-2.64l-1.59-8q-.21-1.13-.34-2t-.18-1.59q-.12,1.11-.25,2t-.25,1.51l-1.62,8.07Z"/><path d="M118.58,159.73l3.83-16h3l3.82,16h-2.39l-.78-3.51h-4.38l-.81,3.51Zm3.65-6.06h3.23l-1.62-7.17Z"/><path d="M130.7,159.73v-16H135a4.19,4.19,0,0,1,4.76,4.79,5.13,5.13,0,0,1-.61,2.6,3.16,3.16,0,0,1-1.74,1.44l2.81,7.19h-2.57l-2.45-6.5H133v6.5Zm2.34-9h2.08a1.94,1.94,0,0,0,2.23-2.23,2.28,2.28,0,0,0-.54-1.68,2.32,2.32,0,0,0-1.69-.54H133Z"/><path d="M142.41,159.73v-16h8.24v2.6h-5.86v3.79h4.27v2.56h-4.27V157h6.12v2.73Z"/><path d="M152.85,159.73v-16h2.39v6.35h4.84V143.7h2.39v16h-2.39v-7h-4.84v7Z"/><path d="M164.53,151.75a11.19,11.19,0,0,1,1.4-6.07,4.53,4.53,0,0,1,7.74,0,13.78,13.78,0,0,1,0,12.12,4.51,4.51,0,0,1-7.73,0A11.15,11.15,0,0,1,164.53,151.75Zm2.42,0a9.27,9.27,0,0,0,.72,4.13,2.31,2.31,0,0,0,4.24,0,9.27,9.27,0,0,0,.72-4.13,9.44,9.44,0,0,0-.72-4.17,2.3,2.3,0,0,0-4.24,0A9.44,9.44,0,0,0,167,151.75Z"/><path d="M177.14,153.84V143.7h2.39V154a4.52,4.52,0,0,0,.57,2.58,2.11,2.11,0,0,0,1.84.8,2.25,2.25,0,0,0,1.92-.77,4.48,4.48,0,0,0,.58-2.61V143.7h2.32v10.62a6.31,6.31,0,0,1-1.25,4.2,4.42,4.42,0,0,1-3.57,1.47,4.3,4.3,0,0,1-3.61-1.52A7.47,7.47,0,0,1,177.14,153.84Z"/><path d="M188.63,156.11l2.17-1.22a5.18,5.18,0,0,0,1.12,1.87,2.23,2.23,0,0,0,3,0,2,2,0,0,0,.55-1.49,1.9,1.9,0,0,0-.41-1.24,4.21,4.21,0,0,0-1.47-1l-.42-.19a13,13,0,0,1-2.6-1.46,3.74,3.74,0,0,1-1.11-1.49,5.19,5.19,0,0,1-.38-2,4.39,4.39,0,0,1,1.15-3.15,3.94,3.94,0,0,1,3-1.21,4.12,4.12,0,0,1,2.7.88,5.1,5.1,0,0,1,1.58,2.62l-2.17,1a3.92,3.92,0,0,0-.95-1.57A1.94,1.94,0,0,0,193,146a1.63,1.63,0,0,0-1.22.46,1.7,1.7,0,0,0-.45,1.24q0,1.22,2.19,2.3l1.06.54a6.63,6.63,0,0,1,2.49,2,4.85,4.85,0,0,1,.66,2.67,5,5,0,0,1-1.15,3.49,4.05,4.05,0,0,1-3.16,1.27,4.6,4.6,0,0,1-3-1A5.89,5.89,0,0,1,188.63,156.11Z"/><path d="M199.88,159.73v-16h8.24v2.6h-5.86v3.79h4.27v2.56h-4.27V157h6.12v2.73Z"/></svg>