<svg xmlns="http://www.w3.org/2000/svg" viewBox="0 0 250 250"><title>Casual dining</title><polygon points="59.36 131.48 59.36 103.34 73.92 103.34 73.92 109.51 65.68 109.51 65.68 114.39 73.45 114.39 73.45 120.43 65.68 120.43 65.68 131.48 59.36 131.48"/><path d="M84.6,116.64h1.2a4.58,4.58,0,0,0,3.06-.85,3.35,3.35,0,0,0,1-2.65,4.13,4.13,0,0,0-.9-3,4.21,4.21,0,0,0-3-.89H84.6Zm-6.07,14.84V103.34H85.3a24,24,0,0,1,5.55.43,6.63,6.63,0,0,1,2.7,1.45,7.51,7.51,0,0,1,2,2.94,10.85,10.85,0,0,1,.69,3.94,9.46,9.46,0,0,1-1.36,5.31,6.5,6.5,0,0,1-4,2.72l6.48,11.34H90.05l-5.46-11v11Z"/><rect x="101.08" y="103.34" width="6.54" height="28.14"/><path d="M120.34,125.17h1.09q3.82,0,5.57-1.85t1.75-5.89q0-4-1.75-5.92t-5.57-1.88h-1.09Zm-6.41,6.3V103.34h5a34.3,34.3,0,0,1,7.84.61,10.47,10.47,0,0,1,4,2.06,11.74,11.74,0,0,1,3.43,4.78,19.44,19.44,0,0,1,0,13.28,11.74,11.74,0,0,1-3.43,4.78,10.42,10.42,0,0,1-3.93,2,28.19,28.19,0,0,1-6.85.61h-6Z"/><path d="M137.09,131.48l8.2-28.14h8.12l8.22,28.14h-6.45l-1.2-5h-9.21l-1.23,5ZM146.17,121h6.45l-2.42-9.28q-.11-.42-.31-1.36l-.5-2.42q-.21,1-.41,2t-.41,1.81Z"/><path d="M168,131.48V118.64l-8.31-15.3h7.44l3.2,7.25.1.21a9.85,9.85,0,0,1,.7,2.17,8.47,8.47,0,0,1,.7-2.09l.13-.29,3.17-7.25h7.45l-8.31,15.3v12.84Z"/><path d="M185.77,122.39a12.55,12.55,0,0,0,2.85,2.9,4.94,4.94,0,0,0,2.8,1,2.91,2.91,0,0,0,2.14-.83,2.82,2.82,0,0,0,.84-2.09,3,3,0,0,0-.72-2.16,8.46,8.46,0,0,0-3.27-1.57,10.19,10.19,0,0,1-4.94-2.9,7.58,7.58,0,0,1-1.45-4.9,9.49,9.49,0,0,1,2.28-6.58,7.58,7.58,0,0,1,5.92-2.55,11.07,11.07,0,0,1,3.73.62,11.36,11.36,0,0,1,3.34,1.89l-2,5.52A8.44,8.44,0,0,0,195,109a5.21,5.21,0,0,0-2.3-.57,2.72,2.72,0,0,0-1.9.66,2.19,2.19,0,0,0-.73,1.7,2.27,2.27,0,0,0,.64,1.69,6.43,6.43,0,0,0,2.48,1.21l.29.1q4,1.27,5.21,2.79a7.19,7.19,0,0,1,1.28,2.49,11.1,11.1,0,0,1,.44,3.22,10.26,10.26,0,0,1-2.48,7.2,8.54,8.54,0,0,1-6.63,2.72,10.13,10.13,0,0,1-4.52-1,12.9,12.9,0,0,1-3.92-3.13Z"/><path d="M32.77,112.39V94.67H49.54L31.29,76H12.63V91.75ZM92,138.19H57.95l19.8,20.29h34.07ZM81.73,94.67H116.3L98,76H63.48Zm77,43.53H124.21L144,158.49h34.57ZM148.49,94.67h32L162.25,76h-32ZM208.2,123v15.15H191l19.8,20.29h17V143.12ZM45.56,158.49,12.63,124.74v33.75ZM194.44,76l33.35,34.17V76Z" style="fill:#d21f3f"/><polygon points="53.29 128.04 42.48 128.04 42.48 131.9 40.28 131.9 40.28 121.56 42.48 121.56 42.48 125.41 53.29 125.41 53.29 128.04"/><path d="M48.51,113.82H46.32v-5.66H51.5a7.13,7.13,0,0,1,1.41,2.39,8.7,8.7,0,0,1,.61,3.17,7.12,7.12,0,0,1-.86,3.56,5.44,5.44,0,0,1-2.45,2.28,7.91,7.91,0,0,1-3.46.76,7.49,7.49,0,0,1-3.61-.85A5.74,5.74,0,0,1,40.71,117a6.73,6.73,0,0,1-.65-3.11,6.21,6.21,0,0,1,1-3.78,4.59,4.59,0,0,1,2.81-1.75l.49,2.61a2.75,2.75,0,0,0-1.51,1,3.12,3.12,0,0,0-.55,1.89,3.56,3.56,0,0,0,1.09,2.74,4.6,4.6,0,0,0,3.24,1,5.09,5.09,0,0,0,3.47-1,3.44,3.44,0,0,0,1.16-2.7,4.52,4.52,0,0,0-.32-1.65,5.67,5.67,0,0,0-.79-1.42H48.51Z"/><rect x="40.28" y="103.19" width="13.01" height="2.63"/><rect x="40.14" y="163.51" width="2.04" height="8.76"/><path d="M44.14,172.27v-8.76h1.95l2.8,4.51q.08.14.27.55t.41,1q-.06-.54-.09-1t0-.75v-4.33h1.94v8.76H49.44l-2.8-4.53a5.33,5.33,0,0,1-.27-.55q-.18-.42-.4-1,.06.55.09,1t0,.75v4.33Z"/><polygon points="56.88 172.27 56.88 163.51 58.9 163.51 58.9 166.91 61.59 166.91 61.59 163.51 63.61 163.51 63.61 172.27 61.59 172.27 61.59 168.71 58.9 168.71 58.9 172.27 56.88 172.27"/><polygon points="65.52 172.27 65.52 163.51 70.06 163.51 70.06 165.43 67.49 165.43 67.49 166.95 69.91 166.95 69.91 168.83 67.49 168.83 67.49 170.31 70.06 170.31 70.06 172.27 65.52 172.27"/><path d="M73.62,167.65H74a1.43,1.43,0,0,0,1-.26,1,1,0,0,0,.3-.83,1.29,1.29,0,0,0-.28-.94,1.31,1.31,0,0,0-.94-.28h-.4Zm-1.89,4.62v-8.76h2.11a7.46,7.46,0,0,1,1.73.13,2.06,2.06,0,0,1,.84.45A2.34,2.34,0,0,1,77,165a3.38,3.38,0,0,1,.21,1.23,3,3,0,0,1-.42,1.66,2,2,0,0,1-1.23.85l2,3.53H75.32l-1.7-3.43v3.43Z"/><polygon points="78.7 172.27 78.7 163.51 83.24 163.51 83.24 165.43 80.67 165.43 80.67 166.95 83.09 166.95 83.09 168.83 80.67 168.83 80.67 170.31 83.24 170.31 83.24 172.27 78.7 172.27"/><polygon points="85.53 170.28 87.42 170.28 85.85 174.04 84.45 174.04 85.53 170.28"/><rect x="92.3" y="163.51" width="2.04" height="8.76"/><polygon points="97.37 172.27 97.37 165.58 95.71 165.58 95.71 163.51 101.05 163.51 101.05 165.58 99.39 165.58 99.39 172.27 97.37 172.27"/><rect x="101.97" y="163.66" width="1.11" height="3.36"/><path d="M104.91,169.44a3.91,3.91,0,0,0,.89.9,1.54,1.54,0,0,0,.87.3.91.91,0,0,0,.67-.26.88.88,0,0,0,.26-.65.94.94,0,0,0-.23-.67,2.64,2.64,0,0,0-1-.49,3.17,3.17,0,0,1-1.54-.9,2.36,2.36,0,0,1-.45-1.53,3,3,0,0,1,.71-2.05,2.36,2.36,0,0,1,1.84-.79,3.45,3.45,0,0,1,1.16.19,3.54,3.54,0,0,1,1,.59l-.63,1.72a2.63,2.63,0,0,0-.71-.52,1.62,1.62,0,0,0-.72-.18.85.85,0,0,0-.59.21.68.68,0,0,0-.23.53.71.71,0,0,0,.2.53,2,2,0,0,0,.77.38l.09,0a3.56,3.56,0,0,1,1.62.87,2.24,2.24,0,0,1,.4.78,3.46,3.46,0,0,1,.14,1,3.19,3.19,0,0,1-.77,2.24,2.66,2.66,0,0,1-2.06.85,3.16,3.16,0,0,1-1.41-.31,4,4,0,0,1-1.22-1Z"/><path d="M113.64,172.27l2.55-8.76h2.53l2.56,8.76h-2l-.37-1.57H116l-.38,1.57Zm2.83-3.27h2l-.75-2.89q0-.13-.1-.43l-.16-.75-.13.62q-.06.29-.13.56Z"/><polygon points="122.33 172.27 122.33 163.51 124.35 163.51 124.35 170.22 126.86 170.22 126.86 172.27 122.33 172.27"/><path d="M132.85,163.51l.93,4.17q.07.28.12.59t.12.7q.08-.47.13-.77t.1-.52l.87-4.17h2l-2.09,8.76h-1.87l-.92-3.74q-.05-.2-.17-.77l-.08-.4-.07.35q-.12.58-.18.82l-.9,3.74H129l-2.09-8.76h2l.85,4.19.12.65q.06.32.11.66l.1-.53.16-.78.93-4.19Z"/><path d="M137.13,172.27l2.55-8.76h2.53l2.56,8.76h-2l-.37-1.57h-2.87l-.38,1.57ZM140,169h2l-.75-2.89q0-.13-.1-.43l-.16-.75-.13.62q-.06.29-.13.56Z"/><path d="M146.76,172.27v-4l-2.59-4.77h2.32l1,2.26,0,.07a3.07,3.07,0,0,1,.22.68,2.64,2.64,0,0,1,.22-.65l0-.09,1-2.26h2.32l-2.59,4.77v4Z"/><path d="M152.3,169.44a3.91,3.91,0,0,0,.89.9,1.54,1.54,0,0,0,.87.3.91.91,0,0,0,.67-.26.88.88,0,0,0,.26-.65.94.94,0,0,0-.23-.67,2.64,2.64,0,0,0-1-.49,3.17,3.17,0,0,1-1.54-.9,2.36,2.36,0,0,1-.45-1.53,3,3,0,0,1,.71-2.05,2.36,2.36,0,0,1,1.84-.79,3.45,3.45,0,0,1,1.16.19,3.54,3.54,0,0,1,1,.59l-.63,1.72a2.63,2.63,0,0,0-.71-.52,1.62,1.62,0,0,0-.72-.18.85.85,0,0,0-.59.21.68.68,0,0,0-.23.53.71.71,0,0,0,.2.53,2,2,0,0,0,.77.38l.09,0a3.56,3.56,0,0,1,1.62.87,2.24,2.24,0,0,1,.4.78,3.46,3.46,0,0,1,.14,1,3.19,3.19,0,0,1-.77,2.24,2.66,2.66,0,0,1-2.06.85,3.16,3.16,0,0,1-1.41-.31,4,4,0,0,1-1.22-1Z"/><polygon points="161.9 172.27 161.9 163.51 166.44 163.51 166.44 165.43 163.87 165.43 163.87 166.95 166.29 166.95 166.29 168.83 163.87 168.83 163.87 172.27 161.9 172.27"/><path d="M169.76,167.65h.37a1.43,1.43,0,0,0,1-.26,1,1,0,0,0,.3-.83,1.29,1.29,0,0,0-.28-.94,1.31,1.31,0,0,0-.94-.28h-.4Zm-1.89,4.62v-8.76H170a7.46,7.46,0,0,1,1.73.13,2.06,2.06,0,0,1,.84.45,2.34,2.34,0,0,1,.61.92,3.38,3.38,0,0,1,.21,1.23,3,3,0,0,1-.42,1.66,2,2,0,0,1-1.23.85l2,3.53h-2.28l-1.7-3.43v3.43Z"/><rect x="174.9" y="163.51" width="2.04" height="8.76"/><path d="M180.9,170.31h.34a2.29,2.29,0,0,0,1.73-.58,2.6,2.6,0,0,0,.55-1.83,2.64,2.64,0,0,0-.55-1.84,2.27,2.27,0,0,0-1.73-.59h-.34Zm-2,2v-8.76h1.54a10.68,10.68,0,0,1,2.44.19,3.26,3.26,0,0,1,1.26.64,3.66,3.66,0,0,1,1.07,1.49,6.05,6.05,0,0,1,0,4.14,3.66,3.66,0,0,1-1.07,1.49,3.25,3.25,0,0,1-1.22.63,8.78,8.78,0,0,1-2.13.19H178.9Z"/><path d="M186.11,172.27l2.55-8.76h2.53l2.56,8.76h-2l-.37-1.57H188.5l-.38,1.57Zm2.83-3.27h2l-.75-2.89q0-.13-.1-.43l-.16-.75-.13.62q-.06.29-.13.56Z"/><path d="M195.74,172.27v-4l-2.59-4.77h2.32l1,2.26,0,.07a3.06,3.06,0,0,1,.22.68,2.64,2.64,0,0,1,.22-.65l0-.09,1-2.26h2.32l-2.59,4.77v4Z"/><path d="M202.95,164.47a1,1,0,1,1-1-1A1,1,0,0,1,202.95,164.47Zm.15,0a1.17,1.17,0,1,0-1.17,1.17A1.17,1.17,0,0,0,203.09,164.47Zm-1.27,0h.07a.3.3,0,0,0,.17,0,.14.14,0,0,0,.05-.12.17.17,0,0,0-.05-.14.27.27,0,0,0-.17,0h-.07Zm-.34.7V163.8h.38l.31,0a.4.4,0,0,1,.15.07.36.36,0,0,1,.11.14.44.44,0,0,1,0,.19.39.39,0,0,1-.08.25.37.37,0,0,1-.22.13l.37.53h-.41l-.31-.52v.52Z"/><path d="M229.72,151.49l.77-.08a.94.94,0,0,0,.28.57.86.86,0,0,0,.58.18.88.88,0,0,0,.58-.16.48.48,0,0,0,.19-.38.36.36,0,0,0-.08-.24.65.65,0,0,0-.29-.17l-.64-.17a2.16,2.16,0,0,1-.9-.39,1,1,0,0,1-.36-.79,1,1,0,0,1,.17-.56,1.07,1.07,0,0,1,.49-.4,2,2,0,0,1,.77-.14,1.66,1.66,0,0,1,1.12.32,1.15,1.15,0,0,1,.39.87l-.79,0a.67.67,0,0,0-.22-.44.8.8,0,0,0-.5-.13.91.91,0,0,0-.54.14.29.29,0,0,0-.13.24.3.3,0,0,0,.12.24,2.09,2.09,0,0,0,.73.26,3.86,3.86,0,0,1,.86.28,1.11,1.11,0,0,1,.43.4,1.17,1.17,0,0,1,.16.63,1.16,1.16,0,0,1-.19.63,1.13,1.13,0,0,1-.53.44,2.23,2.23,0,0,1-.86.14,1.7,1.7,0,0,1-1.15-.34A1.5,1.5,0,0,1,229.72,151.49Z"/><polygon points="233.57 152.77 233.57 148.84 234.76 148.84 235.48 151.52 236.18 148.84 237.37 148.84 237.37 152.77 236.63 152.77 236.63 149.68 235.85 152.77 235.09 152.77 234.31 149.68 234.31 152.77 233.57 152.77"/></svg>