<svg xmlns="http://www.w3.org/2000/svg" viewBox="0 0 250 250"><defs><style>.a{fill:#231f20;}.b{fill:#fcb827;}</style></defs><title>Fast Casual</title><path d="M30.09,211.92c1-1.7,1.43-3.06,1.43-6.61v-13.4H27.44a18.92,18.92,0,0,0-5.59.49l1.21-3.59a8.45,8.45,0,0,1,1.24-2.68c.3-.26,1.28-.26,3.17-.26H41c2.83,0,5.29,0,8-.11l-1.09,3.55c-.75,2.45-.75,2.61-3.32,2.61H39.07v13.44c0,3.55.41,4.86,1.43,6.57Z"/><path d="M58.66,211.8a5.89,5.89,0,0,1-2.11.5c-.7,0-.87-.5-1.07-1.32a10.62,10.62,0,0,1-4.92,1.32c-4,0-6.61-2.32-6.61-6.07,0-5.91,6.08-6.78,10.29-7.11v-.66c0-1.74-1-1.74-1.9-1.74a12.16,12.16,0,0,0-6.65,2.36l-.83-2.81a5.12,5.12,0,0,1-.25-1.61c0-2.11,7.11-3.1,9.55-3.1,2.81,0,4.18.41,5.58,1.45s1.53,2.85,1.53,4.75v6.74c0,3.6.62,4.09,1.69,5.5Zm-4.42-8.35c-1.61.08-3.76.53-3.76,2.31a1.77,1.77,0,0,0,2,1.57,3.74,3.74,0,0,0,1.78-.5Z"/><path d="M81.71,208.45a2.8,2.8,0,0,1-.49,2c-.58.58-3,1.86-7.19,1.86-6.45,0-9.88-4-9.88-10.75,0-8.06,6.07-10,10.46-10,4.63,0,7.56,1.45,7.56,2.77a4.25,4.25,0,0,1-.41,1.53l-1.41,3.31a9.53,9.53,0,0,0-4.46-1.61,3.85,3.85,0,0,0-4.09,4.22c0,2.85,1.53,4.54,4,4.54s4.59-1.74,5.62-2.48Z"/><path d="M83.68,201.92c0-7.27,4.09-10.38,10.75-10.38s10.75,3.06,10.75,10.38-4.09,10.38-10.75,10.38-10.75-3.1-10.75-10.38m10.75,4.38c2.23,0,3.1-2,3.1-4.38s-.87-4.38-3.1-4.38-3.1,2-3.1,4.38.87,4.38,3.1,4.38"/><path d="M124.19,186.82a12.12,12.12,0,0,1,4.61-.94c4.68,0,6.91,3.58,6.91,7.05a6.61,6.61,0,0,1-2.38,5.1,6.21,6.21,0,0,1,3.2,5.93c0,4.91-3.81,8.08-10,8.08-1.51,0-3-.11-4.53-.11-2,0-3.59,0-5.66.11.87-1.66,1.32-2.49,1.32-6.26V191.65c0-3.62-.3-3.93-.87-5.29l6.95-.87Zm.64,9.09c.64,0,1.2.12,1.85.12,1.89,0,2.8-1.06,2.8-2.46,0-1.66-1.21-2.61-2.95-2.61-.56,0-1.13.08-1.7.12Zm0,10.72c.53,0,1,.11,1.51.11,2.19,0,3.4-1.25,3.4-3.17a2.75,2.75,0,0,0-3.1-3c-.61,0-1.21.07-1.81.11Z"/><path d="M152.17,210.44c-1,1-3.92,1.86-5.79,1.86s-4.34-.25-6-2c-1.08-1.2-1.08-2.81-1.08-4.84v-6.94a14.57,14.57,0,0,0-1-5.46l8.47-1.49v11.12c0,1.74,0,3,2.24,3a3.14,3.14,0,0,0,2.48-1v-6.16c0-3-.21-4.8-1-6.53h9.46c-.78,1.74-1,3.56-1,6.53v5.66a18.65,18.65,0,0,0,1.08,6.53L152.38,212Z"/><path d="M182,209.82a15.85,15.85,0,0,1-9.22,2.48c-7.19,0-10.83-4.34-10.83-10.83s4.05-9.93,10.5-9.93c7.31,0,9.22,5.66,9.22,9.55L170.22,205a3.8,3.8,0,0,0,3.51,1.69,11.77,11.77,0,0,0,5.74-2.07Zm-7.52-11a2.94,2.94,0,0,0-2.77-2.48,3,3,0,0,0-2.94,2.81,9.3,9.3,0,0,0,.17,1.45Z"/><path d="M183.91,211.88c.79-1.74,1-3.55,1-6.53v-5.66a18.78,18.78,0,0,0-1.07-6.53l7.65-1.32.21,1.49c1-.91,3.93-1.78,5.79-1.78s4.34.25,6,2c1.08,1.2,1.08,2.81,1.08,4.84v6.95c0,3,.21,4.79,1,6.53h-9.46c.78-1.74,1-3.55,1-6.53v-4.17c0-1.74,0-3-2.23-3a3.14,3.14,0,0,0-2.48,1v6.16c0,3,.21,4.79,1,6.53Z"/><path d="M207.32,201.92c0-7.27,4.09-10.38,10.74-10.38s10.75,3.06,10.75,10.38-4.1,10.38-10.75,10.38-10.74-3.1-10.74-10.38m10.74,4.38c2.23,0,3.1-2,3.1-4.38s-.87-4.38-3.1-4.38-3.1,2-3.1,4.38.86,4.38,3.1,4.38"/><path class="a" d="M40.25,118.7s1.7-.36,1.7-.36c-.41.14,3.11-3.73,3.13-1.73,0,.06,2.24-.38,2.61-.36l.26,0c0-.34.19-.64.43-.65a1.93,1.93,0,0,1,.81.12c0,.06.29.15.65.09l.29.1c.47.15-.58.51.32.31,0-.51,0-1,0-1a.81.81,0,0,1,.62-.22c.66-.24-.75-.38.31-.32a.49.49,0,0,0,.63.31c0-.35.05-.55.11-.46s.51.09.51,0a2.52,2.52,0,0,1,1.25.09l.06,0c.13-.34.39-.61.56-.61s.45-.28.61-.63c.32-.13.66.2.93,0s.09-.74.3-.94a7.9,7.9,0,0,1,.93-.32c0-.34.13-.63.3-.63s.31,0,.31-.11.16-.21.34-.21.59,0,.59.1.05.12.11,0a1.4,1.4,0,0,1,.82,0,1.39,1.39,0,0,0,.91.08l.34.11c1.06.35-1.16.31.31.31,0-.34.41-.39.92-.1l.94-.23c0-.34.14-.62.31-.63s.31,0,.31-.1.25-.22.56-.23a4.53,4.53,0,0,0,1.3-.41.37.37,0,0,1,.24-.26,2.29,2.29,0,0,0,.68-.37.33.33,0,0,1,.34-.18c.18,0,.59-.08.59-.14a1.68,1.68,0,0,1,.91-.31l.33.08c.34.17.54,0,.44-.28l.17-.35c.34,0,.62-.5.62-1.09l.3-.48a1.79,1.79,0,0,0,.62-.42.82.82,0,0,1,.62-.22c.28-.66-.26-1.52,0-2.18a2,2,0,0,0,.92-1.25l.11-.15c.28.25.46.13.39-.26l.11-.22h.62l.11,0c.45-.84,1.09-1.53,1.43-1.53.1-.23-.17-.79,0-.94l.18-.16c.42.09.76.11.76.05a.83.83,0,0,1,.21-.4c.11-.11.71-.49.71-.54s0-.21.1-.21.15-.12.08-.25.16-.45.58-.56l.16-.14c0-.34,0-.62.1-.63a1.28,1.28,0,0,0,.51-.47,1,1,0,0,1,.62-.47.59.59,0,0,0,.46-.32.59.59,0,0,1,.47-.32c.17,0,.31,0,.31-.1a.34.34,0,0,1,.31-.21c.17,0,.31,0,.31-.11a1.35,1.35,0,0,1,.31-.52,1.26,1.26,0,0,1,.41-.32.34.34,0,0,0,.2-.32c0-.17.41-.59.93-.94l.25-.42a3.26,3.26,0,0,1,.16-1.14.34.34,0,0,0,.2-.31c0-.17,0-.31.11-.31s.2-.28.2-.63c0-.07.58-.23.62-.32.09-.25-.16-.75,0-.94l.07-.09c.3-.12.55-.27.55-.32a.34.34,0,0,1,.31-.21c.17,0,.31-.05.31-.11a.82.82,0,0,1,.62-.22l1-.85c-.39.12-.71.18-.71.12a.83.83,0,0,1,.62-.22l.38-.42c.13-.63.51-1.15.85-1.15.11-.32-.22-1,0-1.24.34,0,.62-.05.62-.11a2.21,2.21,0,0,1,.48-.69c.26-.27,1.07-.83,1.07-.89a.79.79,0,0,1,.5-.31,1.9,1.9,0,0,0,.73-.32c0-.06.16-.18.37-.15a.79.79,0,0,0,.56-.18,3.22,3.22,0,0,1,.31-.77,13,13,0,0,1,1.23-1.12.34.34,0,0,1,.31-.21c.17,0,.31-.28.31-.63.32-.13,1,.17,1.25,0s.14-.81.3-.94h.62c.24-.09.11-.62.3-.94.51-.35.93-.77.93-.95s.41-.45.93-.63a10.72,10.72,0,0,0,.3-1.25c.35-.22,1.88-.13,2.18-.33,0-.35,0-.71,0-.82s0-.16,0-.22a1.5,1.5,0,0,1,.61-.51h0c.13-.33-.21-.65,0-.93l.07-.11c.31.22.66,0,.79-.44l.07-.09.62-.32.11-.35c-.07-.49.16-.9.5-.9.08-.22-.18-1.13,0-1.25l.11-.1a1.74,1.74,0,0,0,.83,0,1.54,1.54,0,0,1,1-.12l.29-.11.3-.63.8-.29c.59,0,1.06-.25,1.05-.51s.05-.47.11-.47.21,0,.21.1a11.13,11.13,0,0,1-2.39.85l2.71-1c.29-.11,1,.17,1.25,0l.08-.07c0-.47,0-.87,0-.87a.34.34,0,0,0,.2-.32.32.32,0,0,1,.31-.31.31.31,0,0,0,.31-.32c0-.17,0-.31.11-.31s.1-.23,0-.51.84-1.1.84-1.16,0-.11,0,0,.59,0,.59,0,0-.22.07-.24.51-.6.86-.61c.53.17-.67.58.32.31l.3-.94.41-.14a3.16,3.16,0,0,0,1.14,0c0-.06,0-.21.11-.21a.83.83,0,0,1,.34.51l.5-.2c.17-.52.44-.94.61-.94s.42-.28.56-.62h.06c.64-.18.59.51.94.3s.15-.69.3-.94h0a4.5,4.5,0,0,0,.93-.73c0-.06.25-.25.57-.3a7.1,7.1,0,0,0,1.29-.34c0-.06.32-.16.71-.09l.22-.12s.24-1.18.3-1.25c.51-.18.77-.63.58-1s.34-.29.34-.34-.05-.21-.1-.21-.21,0-.21-.1,0-.21.1-.21a.33.33,0,0,0,.2-.32,1.4,1.4,0,0,1,.56-.76,4.29,4.29,0,0,0,.67-.6c0-.06.29-.18.65-.14a8.63,8.63,0,0,1,1.53.32c0,.06-.25.14-.55.07l.87-.19c.9-.2-.17.14.32.31l.27.08c.37-.05.66-.26.65-.47a1.89,1.89,0,0,1,.15-.74c.09-.1.6-.76.77-.76s.32,0,.32.1-.16.16-.36.12l.67-.23c.34-.13.59.16.94,0,0-.34.13-.63.3-.63s.59-.42.92-.94l.51-.25c-.1.48-.14.87-.08.87a.33.33,0,0,0,.2-.31c0-.17.34-.28.76-.22l.18-.1v-.62l.3-.18a2.46,2.46,0,0,0,.94-.25.65.65,0,0,0-.11-.31c-.06-.06.11-.26.11-.32a.33.33,0,0,1,.34-.18c.18,0,.59-.08.59-.14a.89.89,0,0,1,.63-.26,3.9,3.9,0,0,1,1.23.14,1.75,1.75,0,0,0,.95.29l.3-.1c.48-.18-.6-.5.3-.32.68.14-.83.63.32.31l.3-.62.36-.15c.32.08.58.09.58,0a.87.87,0,0,1,.21-.4,8.38,8.38,0,0,0,.71-.54c0-.06,0-.21.11-.21a.41.41,0,0,0,.24-.31c0-.17.63-.49,1.08-.31l.12,0c.69-.16-.8-.38.31-.32a.45.45,0,0,0,.63.31c0-.34.38-.69.86-.78l.06-.17c0-.35.17-.44.38-.22l.24-.1c.07,0-.11-.89,0-.93.33-.21.61.2.94,0,.14-.11.06-.88.3-.94.93-.3-.19.14.32.31.34,0,.62,0,.62.1s.28.06.62-.12l.49-.13a2.84,2.84,0,0,1,1.07.22c0,.06.2,0,.44-.22l.49.1c.17.17.45.1.62-.16s.36-.47.41-.47a.4.4,0,0,0,.24-.31,1.55,1.55,0,0,1,1-.71,4.73,4.73,0,0,1,1.47.16c0,.06.15.19.33.17s.6.07.6.13.29.2.63.2l0,0c.33.16.61.25.6.19a.4.4,0,0,1,.38-.2c.21,0,.56-.06.56-.12a1.38,1.38,0,0,1,.89-.1l.35-.12.92-.34c-.34,0-.61.07-.61.13a1.61,1.61,0,0,0,.91.25l.34-.06a1.07,1.07,0,0,1,.74-.63,2.34,2.34,0,0,1,.81.1c0,.06.17.19.38.18s.56.06.56.12a.35.35,0,0,0,.32.2c.17,0,.31-.05.31-.11s0-.14,0,0l.59.14.8.18c.41-.28.75-.46.75-.4s.05.2.11.2,0-.09-.16-.2.66-.07.66,0a.36.36,0,0,0,.32.2c.17,0,.31,0,.31.1s-.22.19-.48.17l.79-.28c.81-.29.41.43,1.25.3,0,0-.49-.48.62-.32,0,0,0,.51.63.31s-.75-.38.31-.32c.34.17.63.26.63.2a.37.37,0,0,1,.3-.24,3.24,3.24,0,0,0,.94-.4c0-.05.14-.07.31.1a1.09,1.09,0,0,0,.63.3c.17,0,.37-.32.44-.71l.49.07c.06,0,.1.73.63.62l.3-.63c.36-.15.56.12.94,0,.93-.34-1.06-.32.31-.32H178c0,.51.12.69.31.39l.58.22.63.93c.39.08.5-.6,1.24-.32l.32.62.15.09a2,2,0,0,1,.79.32c0,.06,0,.06-.08-.12s1-.26,1-.2.17.19.38.18.56.06.56.12a1.58,1.58,0,0,0,.95.12,7.22,7.22,0,0,1,1.86.17c0,.06.2.19.45.17a1.94,1.94,0,0,1,.81.12c0,.06.24,0,.54-.27l.7.15c0,.34,0,.54,0,.44s.61-.09.61,0a2.26,2.26,0,0,0,1,.37l.21.13c.09.05.24.59.32.62l.32.14c.52-.08.93-.1.93,0a.34.34,0,0,0,.25.24,2.07,2.07,0,0,1,.69.37c0,.06.33.13.74,0l.2.15c0,.34.15.62.32.62s.31.41.3.92h0c.66.29.07-.23.31-.32l.23-.09c.38,0,.7.13.7.19s-.31.16-.69.11l1-.22c.89-.2-.18.14.31.31s.56-.15.93,0c.1,0,.23.59.32.62l.1,0a2.94,2.94,0,0,1,.63-.35.88.88,0,0,1,.29.6l.23.33c.35,0,.59.88.11.3s.74.4.63.51.26.16.69-.18l.15.29c.24.47,0,1.41.33,1.86s0-.43.93-.32l.27,0c-.32.5-.31.84,0,.76l.36.14.63.93c.23.08.76-.17.93,0,.43.37.38,1.27,1,1.54.29.14-.5.3-.31.63.69.16,1.07.5.83.74l.12.5a4.48,4.48,0,0,1,.92,2.59l.05.63.57.12.06.78.1.46,0,.42.34.36-.11.32.06.16.28.19-.1.32.51.57-.15.47.34.35.19.25,0,.81.45.46.12.24.1.52-.13.36.39.51c.17,0,.19.33.19.39s-.28.41-.24.54a4.15,4.15,0,0,0,.67.9c.06,0,.2.2.19.44a2,2,0,0,0,.14.8.34.34,0,0,1,.21.31c0,.17,0,.31-.1.31s-.18-.16-.14-.37l.25,1,.11.45a3.3,3.3,0,0,1-.2,1.11c-.06,0-.2.2-.18.45a2.12,2.12,0,0,1-.12.81.5.5,0,0,0-.2.44,1.88,1.88,0,0,0,.15.73c.07.13.13.38.07.38a2.29,2.29,0,0,0-.15,1.14c0,.63.25,2.59.2,2.59a.56.56,0,0,0-.24.45,1.83,1.83,0,0,0,.16.8,1.22,1.22,0,0,1,.25.76l0,.17c-.17.35-.25.63-.2.63s.21.28.22.62l.11.3a2.83,2.83,0,0,1,.43.94.41.41,0,0,0-.26.28,4.86,4.86,0,0,1-.35,1,.34.34,0,0,0-.21.32c0,.17,0,.31-.1.31a1.06,1.06,0,0,0-.23.71l-.27.85-.35,1c0-.39,0-.65,0-.6a10,10,0,0,0,.28,1.13,4.85,4.85,0,0,1,.27,1.25.34.34,0,0,0-.21.31c0,.17.05.31.11.31s.2,0,.21.1a1.34,1.34,0,0,1,0,.27s.34.42.32.62,0,.56-.08.56a.4.4,0,0,0-.2.38.69.69,0,0,1-.61.57c0,.24.59.79.33,1.55-.35,0-.64.2-.65.44a4.09,4.09,0,0,1-.38,1.13.34.34,0,0,0-.2.31c0,.17,0,.31-.1.31a1.29,1.29,0,0,0-.12.86l-.08.08c-.22.18-1.11,0-1.24.32l-.27.64a5.76,5.76,0,0,1,.2,1.54,1.5,1.5,0,0,0-.25.87l-.26.69-.62.32c-.14.34.2.63,0,.93-.35,0-.63.15-.62.32s-.26.42-.59.56l0,.07a.62.62,0,0,1-.62.63l-.21.53c.29-.12.5.33.48,1l-.24.64c-.34,0-.62.17-.62.36a1.17,1.17,0,0,1-.59.83l0,.07c-.14.35.18.59,0,.93-.51.35-.93.77-.92.94a.31.31,0,0,1-.31.32.31.31,0,0,0-.31.32c0,.17-.28.31-.62.32l-.12.3a2.17,2.17,0,0,1,0,.94c-.06,0-.21.05-.21.11s-.11,0-.25-.19l-.38.09c-.17.17,0,.63.44,1l-.43.23c-.84.43-.24,1.61-.59,2.5,0,0-.93.32-.93.32-.28.6.08,1.33-.29,1.88-.23.31-.58.08-.94.32h0a1.14,1.14,0,0,1-.91.63c-.28.47,0,1.9-.28,2.49a3.06,3.06,0,0,0-1.23,1.57l-.05,0c-.48.16-.87.42-.87.59s.25.22.56.11l-.24.51-1.24.64c-.25.55.2,1.29,0,1.87-.09.23-.64.1-.93.32-.54.39.89.32.32.62s0,.1-.31.63l-1.23.95c-.28.54,0,1.62-.29,2.19,0,0-1.44,1.16-1.54,1.27s-.22.56-.3.63-.84.13-.93.32l-.15.27a2.25,2.25,0,0,1,.06,1c-.06,0-.21.21-.2.45a2.37,2.37,0,0,1-.1.8.34.34,0,0,0-.2.31c0,.17,0,.31-.1.31a.6.6,0,0,0-.34.27,1.36,1.36,0,0,1-1,.3l-.06.07-.1.09c.23.29.35.57.26.61s-.46.29-.46.35a.33.33,0,0,1-.31.21c-.17,0-.3.2-.28.44s-.07.5-.12.5a1.25,1.25,0,0,0-.51.47c-.17.26-.35.47-.41.47s-.17-.22-.13-.48-.39-.09-.39,0,0,.41,0,.67-.14.47-.31.47a1,1,0,0,0-.61.47,1,1,0,0,1-.61.47c-.17,0-.31.28-.31.63l0,.06c-.33.14-.59.31-.59.37s0,.21-.1.21-.21,0-.21.11a.81.81,0,0,1-.22.39,6.36,6.36,0,0,0-.71.55c0,.06-.28.21-.62.21-.14.12.15.84,0,.94-.34.2-.59-.17-.93,0,0,0-.24,1.14-.3,1.25l-.1.14c-.29.1-.52.22-.52.28s-.14.21-.31.21-.31.05-.31.11a.33.33,0,0,1-.32.21c-.16,0-.45.43-.61.94l0,.07a4,4,0,0,0-.88.67.33.33,0,0,1-.31.21c-.17,0-.31.28-.3.63l-.22.13c-.39-.07-.71-.07-.71,0a.38.38,0,0,1-.3.24c-.17,0-1,0-1.18-.41l-.4.08a.66.66,0,0,1-.62.66c-.35,0,.32.33.33.39s0,.28,0,.36v.26c0,.06-.14.21-.31.21s-.45.42-.61.94c-.12.09-.78.16-.93.32s0,.72-.3.94-.61-.13-.93,0l-.31.62-.2.12c-.4.11-.73.25-.73.31s-.28.12-.61,0l-.32.2-.3.94c-.35.17-.58-.12-.93,0s.59.49-.31.31l-.67-.14c.19-.09.35-.12.35-.06a.34.34,0,0,1-.31.21c-.17,0-.31,0-.31.11s.06.1.13,0l-.44-.08c-.91-.18.16.14-.31.31s-.57-.14-.93,0c-.1,0-.23.6-.3.63-.86.29-1.52,0-2.18.34,0,.34-.13.62-.3.63s-.31.28-.3.63c-.75.32,0-.25-.31-.31-.66-.14.2.46-.3.94l-.62.32c-.25.45.09,1-.3,1.25h-.62c-.48.17.59.49-.31.31-.7-.15.78-.39-.32-.31a.44.44,0,0,1-.62.32c-.49-.17.58-.51-.31-.31l-1,.22c.36.05.66.05.66,0a1.82,1.82,0,0,0-1-.31l-.29.11-.61.95-.24.22c-.21,0-.38.14-.38.2a.34.34,0,0,1-.31.21c-.17,0-.31.05-.31.11a.79.79,0,0,1-.22.39,7.17,7.17,0,0,0-.71.55c0,.06-.13.17-.29.12a1,1,0,0,0-.64.2,13,13,0,0,1-2.76.46l-.67-.22c-.51-.18.63-.59-.32-.31-.28.08-.21,1.17-.3,1.25s-.71-.09-.94,0a1.72,1.72,0,0,1-.41.63.35.35,0,0,0-.2.32c0,.17,0,.31-.1.31s-.21.06-.21.11-.34.17-.76.13a4.12,4.12,0,0,0-1.42.21.34.34,0,0,1-.31.21c-.17,0-.31,0-.31.11a.35.35,0,0,1-.25.25,1.43,1.43,0,0,0-.67.9l-.51.11a11.12,11.12,0,0,0-2-.6.35.35,0,0,1-.31.21c-.17,0-.31.05-.31.11s.1,0,.24-.31l-.87.2a1.16,1.16,0,0,0-.31.43,1.87,1.87,0,0,1-1,0l-.53.17-.19.05c-.41.32-.73.54-.73.48s-.17-.2-.38-.19-.56-.15-.56-.32-.06-.32-.11-.32-.21,0-.21.11a2.15,2.15,0,0,1-1.14.08l-.42.14-.61.94c-.34.17-.58-.14-.93,0-.17.34-.47.61-.66.58s-.33.54,0,1.14l-.23.16a1.16,1.16,0,0,1-.9-.42l-.35.12-.3.62-.79.26c-.08-.31-.14-.51-.14-.46s-.15.19-.33.18-.6.08-.6.15a.35.35,0,0,1-.31.2c-.18,0-.31.05-.31.11s-.27.18-.61.15a3.78,3.78,0,0,0-1.26.18,3.67,3.67,0,0,1-1.49-.05s0,0-.07,0c-.8-.64-.94-.3-.94-.3-.76.19-.47-.28-.62-.3l-.36-.08a2,2,0,0,1-.89,0,2,2,0,0,0-1.09,0l-.47-.16-.87-.29c.3,0,.56,0,.56.09a.35.35,0,0,1-.31.21c-.17,0-.31.05-.31.11s.06,0,.13-.29l-.75.18-.31.63c-.4,0-.56-.61-1.25-.3l-.23.09c0,.47-.21.85-.39.85s-.31.05-.31.11-.37,0-.82-.29l-1.05.2a1.15,1.15,0,0,1-1.24.64l-.22,0c-.05-.5-.3-.92-.54-.93a1.76,1.76,0,0,0-.8.15c0,.06-.29.23-.65.27a3.69,3.69,0,0,1-1.22-.15.39.39,0,0,0-.38-.19c-.21,0-.56-.06-.56-.11s-.21-.19-.45-.16-.8-.32-.8-.66c-.61-.15-.62.32-.62.32-1.06.08.35-.09-.31-.31l-.93-.31a12.38,12.38,0,0,1-2.19.24.38.38,0,0,0-.19-.27,3.23,3.23,0,0,1-.75-.35,1,1,0,0,0-.74-.14,4.78,4.78,0,0,1-1.44-.15.4.4,0,0,0-.38-.19c-.21,0-.55-.06-.56-.11s-.11-.12-.25,0a1,1,0,0,1-.69,0,.34.34,0,0,0-.31-.21c-.17,0-.31,0-.31-.1s0-.13.08,0-.7.09-.7,0a1.79,1.79,0,0,0-1-.3l-.29.11-.67.23c.2,0,.36,0,.36,0a.35.35,0,0,0-.31-.2c-.17,0-.31.05-.31.11a.33.33,0,0,1-.31.21c-.17,0-.31.05-.31.11s-.28.07-.62-.1l-1-.22c-.67.3-1.14.21-1-.22l-.81-.47c-.44-.26.61-.2.3-.63a1.26,1.26,0,0,1-.94-.46,1,1,0,0,0-.63-.46c-.17,0-.31,0-.31-.1a.83.83,0,0,0-.63-.2c-.49-.17.58-.51-.31-.3-.51.11.62.51-.31.31L84,166l-.81-.17a7.11,7.11,0,0,1-1.68.1c0-.06-.21-.2-.45-.18a2,2,0,0,1-.8-.12,1.42,1.42,0,0,0-.92-.09l-.33-.1a.58.58,0,0,0-.55-.61,2,2,0,0,1-1.33-.61c-1-.17.25.1-.3.31-.35,0-.63.05-.62.12s-.21-.05-.47-.37l-.16,0-.35-.12a2.14,2.14,0,0,1-.9,0,.34.34,0,0,0-.32-.21c-.17,0-.31,0-.31-.1a.34.34,0,0,0-.32-.21.31.31,0,0,1-.31-.31.31.31,0,0,0-.32-.31c-.17,0-.3-.19-.29-.44s-.2-.31-.41-.08l-.25-.1c-.07,0,.06-.88,0-.93s-.71.09-.93,0-.32-.92-.32-.93c-.34,0-.62,0-.62-.09a1.38,1.38,0,0,0-.34-.53c-.19-.17-.92-.65-.92-.71s-.05-.21-.11-.21-.17-.22-.12-.49a1.18,1.18,0,0,0-.2-.76c-.05,0-.21,0-.21-.1s0-.21-.1-.21-.08.29.08.63l-.6-.31c-.22-.13-.16-.79-.32-.93h-.64a1.68,1.68,0,0,0-.41-.61,2.35,2.35,0,0,1-.43-1l-.1-.19a.47.47,0,0,1-.49-.58l-.14-.35-.94-.61c-.24-.86.22-2,0-2.8-.34-.17-.63-.45-.63-.62s0-.31-.11-.31a.59.59,0,0,1-.32-.36c-.06-.2-.52-.61-.52-.67s-.05-.21-.11-.21a8.81,8.81,0,0,1,0-2.34L62,145a.57.57,0,0,1-.22-.88l-.1-.06c-.08,0-.63-.3-.63-.3-.11-.43.4-.88.3-.94s-.62-.3-.62-.3l-.12-.81a6.79,6.79,0,0,1,.2-1.69.33.33,0,0,0,.2-.31c0-.17-.05-.31-.11-.31s-.16-.33-.09-.73S61,137.14,61,137s0-.37,0-.71,0-.64.07-.64a6,6,0,0,0,.77-.16c.31-.09-.89-.29-.89-.46s0-.31.1-.31.16-.32.1-.71l.09-.22c0-.11.59-.24.62-.32.21-.82-.85-.67-.32-.93l.51-.27c-.11-.37-.16-.67-.1-.67a3.87,3.87,0,0,0,0-1.56l.17-.63c0-.09.58-.22.62-.32l.08-.23a5.19,5.19,0,0,1-.07-.58c0,.07.21-.35.12-.23a2.27,2.27,0,0,1-1.08,0A1,1,0,0,0,61,128l-.18-.06c-.49-.17.58-.51-.31-.3l-.51.1c.11.12.2.17.2.11a.35.35,0,0,0-.31-.2.47.47,0,0,1-.41-.32c-.06-.18-.53-.24-.53-.19s-.15.19-.33.18-.6.08-.6.14a.33.33,0,0,1-.31.21c-.17,0-.31,0-.31.11s-.29.16-.65.1l-.28.11c-.64.22.72.37-.31.31l-.32-.62c-.62-.23-1.12,0-1.56-.29l-.32-.62-.57-.09a4.1,4.1,0,0,1-1,.63.34.34,0,0,0-.32-.21c-.17,0-.46-.41-.63-.93-.34-.18-.58.12-.93,0s.58-.51-.32-.31c-.45.09.57.62-.31.32l-.32-.62,0,0a2.63,2.63,0,0,1-.89-.37c0-.06,0-.13,0,0s-.61.09-.61,0a.5.5,0,0,0-.45-.18,2.1,2.1,0,0,1-.8-.11c0-.06,0-.21-.1-.21a.42.42,0,0,0-.28.23c0,.12-.55,0-.55,0a.33.33,0,0,0-.31-.21c-.18,0-.31,0-.31-.1a.39.39,0,0,0-.26-.26,21.76,21.76,0,0,1-2.15-1.37c0-.06-.49-1.34-.66-1.34s-3.07-1.59-1.93-2.88"/><path class="b" d="M204.85,65.57c-.06,0,0,.32,0,.53a2.29,2.29,0,0,1,.18.71.34.34,0,0,1-.2.31c-.06,0-.11.16-.11.21s.16.1.21.1a3.5,3.5,0,0,1,.14,1c0,.28.14.5.19.5a2.54,2.54,0,0,1,0,1c-.09.14,0,.25,0,.25a16.83,16.83,0,0,1,.13,2.08,1.91,1.91,0,0,0,.22,1c.05,0-.18.32-.51.71l-.62.56-.13.11a2.15,2.15,0,0,1-.06,1.14c-.06,0-.12-.28-.13-.62l.34.92.18.5a3.33,3.33,0,0,0,.36,1.36,1.66,1.66,0,0,1,.15.8c0,.25.11.45.17.45s.1.15.1.21a.34.34,0,0,0,.13.33c.16.14.46-.43.26.19a12.55,12.55,0,0,0-.37,1.35c0,.06-.2.17-.43.25l.13.48v0c.34.32.47.58.41.58a3.16,3.16,0,0,0,0,1.14l-.14.42a.68.68,0,0,0-.64.56.39.39,0,0,1-.18.38,30.24,30.24,0,0,0,.14,3.7l-.2.66s-.61.3-.62.32a.82.82,0,0,1-.19.63,5.84,5.84,0,0,0-.36,1.19.48.48,0,0,1-.25.38c-.06,0-.13.48,0,.42s.19.32.15.84l-.22.61c0,.09-.59.25-.62.32-.2.32-.11.93-.3,1.25l-.93.63c-.25.72.16,1.71,0,2.49-.34,0-.13.28-.19.29s-.12.16-.12.34-.28.31-.61.32c-.05.59.67.88.33,1.55-.34,0-.62.15-.62.32a.31.31,0,0,1-.31.31.34.34,0,0,0-.31.21,4.34,4.34,0,0,1-.93.73l-.1.17a1,1,0,0,1-.49,1V104c-.16.66.51.55.32.93a.81.81,0,0,0-.62.22,1.44,1.44,0,0,1-.6.35l0,.07c-.14.36.22,1.24,0,1.56-.06.08-1,.18-1.24.32s-.14.67-.3.94c0,.07-.58.22-.62.32l-.22.52a1.91,1.91,0,0,1,.54.62c0,.06-.54.58-.57.86a.65.65,0,0,1-.25.5c-.06,0-.11.15-.11.21s-1.35,1-1.75,1.47a5.05,5.05,0,0,0-.72,1.05c0,.06-.28.11-.62.11l-.28.47a.63.63,0,0,1,.76.41l-.16.37a.83.83,0,0,0-.68.75c0,.27-.21.5-.56.5-.18.15.3.31-.3.63l-.35.17c.36.25.52.45.46.45s-.11.16-.11.21-.46.47-.51.67a.57.57,0,0,1-.3.37c-.06,0-.1.28-.1.62,0,.07-.57.22-.62.32s-.08.79-.3.94l-.27.16c-.53.09-.83.44-.65.78-.14,0-.57-.43-.63-.3l-.09.15c0,.43,0,.78-.11.78s-.17.43-.15.61-.09.32-.15.32-.13.35-.12.56-.12.38-.18.38a2,2,0,0,0,0,.91l-.11.33-.63.31c-.28.84.13,1.81-.59,2.19-.34.17.49.26.31.62s-.71.12-.93.32a2,2,0,0,1-.92,1.26l-.3.46c.34-.08.61,0,.61.16s-.34.39-.55.37-.35.36-.31.85l-.05,0c-.53.29-1.19,0-1.56.33-.08.08-.19,1.07-.3,1.25-.35,0-.62.14-.62.32a.32.32,0,0,1-.31.32.35.35,0,0,0-.32.21c0,.06-.24.2-.55.32l-.07.1a2,2,0,0,1-.92,1.25c-.08.22.16.73,0,.94l-.06.06a1.64,1.64,0,0,0-1.15.67.32.32,0,0,1-.24.22c-.06,0-.11.14-.11.31a.34.34,0,0,1-.2.32c-.06,0-.1.14-.1.31a.37.37,0,0,1-.2.32c-.07,0-.11.15-.11.21a4,4,0,0,1-.85.7l-.39.35c-.12.1-.16.57-.3.63s-.78-.15-.94,0c0,.34-.14.63-.2.63s-.13.33-.15.74l-.26.2-.34.25c-.16-.3-.28-.4-.28-.34s-.14.1-.31.1-.31.29-.3.63c-.77.3,0-.2-.32-.31a.83.83,0,0,0-.62.22c0,.06-.28.1-.62.11l-.12.09a5.87,5.87,0,0,0-.49,1.06,3.78,3.78,0,0,1-1.25-.2c-.22.11-.14.79-.3.94a.83.83,0,0,0-.63.22c0,.06-.41.31-.49.35a1.2,1.2,0,0,0-.12.7c-.19.14-1.06.2-1.24.32,0,0-.3.63-.3.63-1,.27.22-.13-.32-.31a4.41,4.41,0,0,0-1.87.33,3.52,3.52,0,0,1-.5,1.26,1.57,1.57,0,0,0-.41.61h-.64c-.16.34-.43.62-.6.62s-.45.28-.61.63l-.35.12c-.49-.06-.84.7-.76,1.68l-.12.08-.62.41c-.51-.39-.93-.55-.93-.49a3.3,3.3,0,0,1-1.07.29l-.17.14c-.26.18-.2.85-.3.94-.34,0-.62.16-.61.21s-.51.21-.56.06-.07-.11-.07-.05-.35.13-.56.12a.4.4,0,0,0-.38.2,1.93,1.93,0,0,1-.8.14c-.24,0-.43.26-.43.6-.82.24-.39-.54-.94-.3,0,.34-.42.71-.6.69a.3.3,0,0,0-.33.16c0,.06-.14.11-.31.11s-.32.16-.31.21-.14.1-.32.11a.57.57,0,0,0-.46.31.59.59,0,0,1-.46.32.34.34,0,0,0-.31.21c0,.06-.41.15-.6.14s-.34.26-.33.6c-.34.12-1-.18-1.25,0l-.11.06c.23.31-.06.7-.11.77s-.08,0-.08-.09-.15-.11-.21-.11-.11.29-.1.63c-.38,0-.87-.67-1.56-.61l-.3.63-.4.16a1.5,1.5,0,0,0-1.46.48l-.49.11c-.24-.22-.44-.25-.44-.2s-.14.11-.31.11a.31.31,0,0,0-.3.31.31.31,0,0,1-.31.31c-.17,0-.32.16-.31.22a2.1,2.1,0,0,1-1,.19c-.31,0-.57.08-.57.14s-.15.11-.21.11.22-.28.61-.63l-1,.32-.31.63-.23.09a1.06,1.06,0,0,0-1,.53h0l-.61.2a2.66,2.66,0,0,0-1.26,0c0,.06-.35.13-.56.12s-.37.14-.37.2a3.85,3.85,0,0,1-1.24.17c-.35,0-.61.37-.58.87h0l-1.15.22c-1.09-.61-2-.87-2-.63s-.1.44-.27.45-.39.26-.49.56l-.12.07a6.21,6.21,0,0,1-2.81,0c-.62-.21.72-.49-.31-.31l-.31.63-.45.29a2.17,2.17,0,0,0-1.1.25c0,.06.22.08.5.06l-.81-.27a5.6,5.6,0,0,0-2.18,0c-.17.34-.44.63-.62.63a.34.34,0,0,0-.31.21c0,.06.22.08.48.06l-.79-.27-.55-.19a2.93,2.93,0,0,1-1.33,0c0-.06.24-.1.52-.1l-.82.3c-.73.26-.94-.3-.94-.3l-.53-.09a2,2,0,0,0-1,.32,4.87,4.87,0,0,1-1.29-.52l-.89.33-.64.22c.18.05.33-.05.33-.11s-.36-.13-.56-.12-.38-.12-.38-.18-.33.14-.73.45l-.2.08c-.34,0-.62.16-.62.21s.09,0,.2,0l-.52-.16-.43-.15a2.5,2.5,0,0,0-1.12.38c0,.06-.75.08-.71,0s.08,0,.08,0-.25,0-.38-.05a2.25,2.25,0,0,0-.93.08.19.19,0,0,1-.26-.11c0-.06-.14-.11-.31-.1a.34.34,0,0,1-.31-.2c0-.06-.69-.12-.78,0s-.15.06-.16,0a7,7,0,0,0-.72-.54c-.12-.1-.1-.45,0-.57a13.64,13.64,0,0,0-2.51,0,2.06,2.06,0,0,1-1.11-.14,7.25,7.25,0,0,0-1.42-.09,1.18,1.18,0,0,1-.77-.19c0-.06-.36-.14-.56-.12a.38.38,0,0,1-.38-.18c0-.06.2-.09.45-.08l-.75.28-.42.15a2.16,2.16,0,0,0-1.14.08c0,.06-.14.11-.2.11s-.11-.15-.11-.2a3.53,3.53,0,0,0-.61-.71h0l-.54-.26a1.88,1.88,0,0,1-1-.24,1.64,1.64,0,0,0-.81-.14c-.24,0-.44-.37-.44-.88h0l-.75-.28c-.1.33-.18.46-.18.4a9,9,0,0,0-1.61-.34.8.8,0,0,1-.58-.26,1.36,1.36,0,0,0-.77,0c-.09.09-.16,0-.16,0a3.86,3.86,0,0,0-.95-.35.45.45,0,0,1-.31-.26,3.55,3.55,0,0,0-1.24-.06l-.63-.34c0-.34-.15-.62-.32-.62a.34.34,0,0,1-.31-.2,6.69,6.69,0,0,0-.73-.54.79.79,0,0,1-.22-.38c0-.06,0,0,.11,0l-.42.16-.24.08a1.09,1.09,0,0,1-.69-.28c0-.06.24-.11.53-.1l-.84.31-.25.08a.93.93,0,0,1-.79-.68l-.21-.32a1.18,1.18,0,0,1-.63-.93c-.25-.18-1-.17-1.25-.29v-.62l-.32-.16a1.47,1.47,0,0,1-.93,0c0-.06-.14-.1-.31-.1a.33.33,0,0,1-.31-.2,3.46,3.46,0,0,0-.91-.34.51.51,0,0,1-.35-.28c0-.06-.28-.1-.62-.1-.17-.13.09-.73,0-.93H72l-.22-.08c-.05-.47-.24-.85-.41-.85a.31.31,0,0,1-.31-.31c0-.17-.29-.31-.63-.3l-.33-.61c.34-.35.49-.64.43-.64s-.32-.41-.36-.49a.43.43,0,0,0-.27-.13c-.06,0-.11-.14-.11-.31a.33.33,0,0,0-.21-.31c-.06,0-.16-.41-.15-.6s-.22-.13-.53.12l-.06-.14c-.25-.53.52-.74.3-.94a.9.9,0,0,1-.71-.78c0-.25-.07-.45-.13-.45s-.11-.14-.11-.21a7.26,7.26,0,0,0-.73-.53.79.79,0,0,1-.22-.39c0-.06-.15-.11-.21-.11s0-.41.09-.49-.37-.11-.31-.34a.52.52,0,0,1,.42-.42c.17,0,.17-.48.11-.53a.76.76,0,0,0-.32-.09,2.21,2.21,0,0,1-.08-1.23c.14-.35.11-.63.05-.63s-.11-.14-.11-.31-.27-.42-.6-.55l0-.07-.13-.26c.07-.37,0-.67-.08-.67a3.15,3.15,0,0,1-.36-.73c0-.11.25-.18.64-.15,0,0,.09.12.23-.07.36-.52.31-.68.31-.88a.4.4,0,0,1,.2-.37,2.81,2.81,0,0,0,.13-1c0-.3-.19-.54-.25-.54s-.1-.14-.11-.31a.34.34,0,0,1,.21-.31,6.42,6.42,0,0,0,.35-1.22.46.46,0,0,1,.26-.34,3.67,3.67,0,0,0,.16-1.24.78.78,0,0,1,.13-.63c.06,0,.11-.14.1-.32a.35.35,0,0,1,.2-.31c.06,0-.14-.23-.43-.52l.22-.73s.69-.25.62-.63c-.35-.17-.63-.44-.63-.62a.35.35,0,0,0-.21-.31c-.06,0-.32-.4-.35-.47s.41-.45.57-.45a.32.32,0,0,0,.28-.22c0-.06,1.09-1,1-1.34a1,1,0,0,0-.32-.64c-.06,0-.11-.14-.11-.31a.34.34,0,0,1,.21-.31c.06,0,.1-.28.09-.63l-.42-1.17c.06.3.1.49-.21.25-.34,0-.63-.14-.63-.2a2.57,2.57,0,0,0-1,.09l-.51-.18-.63-.93c-.82-.31.05.22-.31.32-.91.2.17-.15-.31-.31l-.38-.13c-.3.08-.56,0-.56-.06s-.14-.1-.31-.1a.35.35,0,0,1-.32-.2c0-.06-.14-.11-.31-.1a.34.34,0,0,1-.32-.2c0-.06-.28.18-.62.52l-.35.12a1.34,1.34,0,0,0-.89.1c0,.05-.28.1-.62.11,0,0,.13.45-.62.32a1.41,1.41,0,0,0-.69-.88.36.36,0,0,1-.25-.25,4.2,4.2,0,0,0-1.32.27l-.24,0c0-.34-.39-.69-.59-.67s-.44-.2-.55-.52l-.12,0c-.78-.3-.37.42-.93.32l-.32-.62-.14-.09a2.92,2.92,0,0,1-1.23,0c-.11-.1-.47.06-.59.2s-.22.1-.22-.07a.35.35,0,0,1,.2-.31c.06,0,.3-.42.34-.5a2.42,2.42,0,0,1,1.08,0l.23-.12c0-.34.14-.62.31-.62s.31-.28.3-.63l.31-.18a1.47,1.47,0,0,0,.94,0,2.88,2.88,0,0,1,.74-.62l.81.18s-.17.49.63.3l.61-.94c.81-.3-.08.17.32.31a.44.44,0,0,0,.62-.32c.59-.06.08.5.63.3.08,0,.14-.68.61-.63a4.3,4.3,0,0,0,1.57.4,2.94,2.94,0,0,1,1.07-.29l.17-.15.06-.06c0-.48.07-.88.24-.88a.34.34,0,0,0,.31-.21c0-.06.37-.12.57,0s.37.06.37,0,.31-.07.7,0l.23-.09.3-.63c1-.32-.27.19.32.31.9.18-.18-.14.31-.32h.63l.13-.08c-.25-.3-.3-.52-.24-.54,1.29-.58,0,.82,0,.27,0-.13.71-.28,1-.28l.06-.05c0-.49.8-1.19,1-1.2s.44-.29.43-.63l.71-.28a5.42,5.42,0,0,0,1.78-.26c0-.06,0-.3,0-.54l.25-.51L75,109.36c.16-.32.07-1.36.3-1.56l.21-.21a1.78,1.78,0,0,0,1,0c0-.06.73-.56.91-.74a1.31,1.31,0,0,0,.33-.53c0-.06.28-.11.62-.11.14-.17-.09-.71,0-.94s.64-.14.93-.32l.15-.1a.94.94,0,0,1,.37-.53,2.55,2.55,0,0,0-.14-.77,1.19,1.19,0,0,1-.08-.36c0-.06.15-.11.21-.11s.21-.28.34-.61l.06,0,.54-.21c0,.28.09.37.09.31s.28-.11.62-.11c.47-.18-.6-.5.31-.32.1,0-.24.72.31.31.15-.13-.1-.74,0-.94.34,0,.84-.68.86-1s.2-.57.26-.57a2.67,2.67,0,0,0,.56-.63,2.21,2.21,0,0,1,.67-.63c.06,0,.1-.14.1-.31a.59.59,0,0,1,.31-.47.59.59,0,0,0,.3-.47.32.32,0,0,1,.31-.32.33.33,0,0,0,.31-.21c0-.06.18.12.41.41l.22-.21a2.3,2.3,0,0,0,0-1.14c0-.06.1-.1.16-.1s.39-.68.4-.55a3.59,3.59,0,0,1-.13-.76l.12-.26c.51-.35.93-.77.92-.95A.34.34,0,0,1,88.1,93c.06,0,.1-.14.1-.31s.41-.46.93-.63c.3-.46-.12-.91.3-1.25l.36-.32c.32.34.69.1.81-.53l.07-.1a.82.82,0,0,0,.62-.21,2.86,2.86,0,0,1,.64-.6c.33-.25.59-.6.59-.77s.28-.32.62-.32l.16-.35c-.09-.32.12-.32.47,0l.3-.27a1.16,1.16,0,0,1,.6-.94h0c0-.34.13-.62.3-.63a.34.34,0,0,0,.31-.21c0-.06.71-.62.68-.77s.22-.28.55-.28c.26-.4-.06-.82.3-.94a.62.62,0,0,0,.62-.63l.35-.25a2.6,2.6,0,0,0,1.2-.29c0-.06.27-.28.5-.44a1.21,1.21,0,0,0,.42-.92c.41-.31.1.43.63.31l0,0c.14-.33.39-.61.57-.61a.31.31,0,0,0,.31-.32,1,1,0,0,1,.46-.63,1.23,1.23,0,0,0,.46-.94l.12-.11c.28.23.51.27.51.21a8.69,8.69,0,0,1,1.24-1.06c.08-.25-.16-.75,0-.93a1.26,1.26,0,0,0,.93-.48c.17-.26-.06-.41-.52-.35l.51-.43.3-.27a.91.91,0,0,0,.63-.26c0-.06.14-.11.31-.11a.33.33,0,0,0,.31-.21c0-.05.14-.11.31-.11a.34.34,0,0,0,.31-.21c0-.06,0-.38-.07-.7l.06,0,.17-.13a1.13,1.13,0,0,0,1-1.08l.07,0a1,1,0,0,0,.86-.61l.07,0c.34,0,.62-.15.62-.21s.27-.22.59-.37l0-.06c.08-.22-.16-.8,0-.93s1-.18,1.24-.33.14-.81.3-.94a1.17,1.17,0,0,0,.93-.63l.22-.14a1.32,1.32,0,0,0,.71-.38,1.27,1.27,0,0,1,.78,0c.26.1.47,0,.47,0s.25-.28.49-.45a1.19,1.19,0,0,0,.43-.92c.55-.26.15.25.31.31.34,0,.21.32.47.32a2.29,2.29,0,0,0,.93-.46.93.93,0,0,0,.15-.39c0-.06.29,0,.65.08l.29-.2a3.54,3.54,0,0,1,.82-.94c.06,0,.1-.14.1-.32a.33.33,0,0,1,.2-.31c.06,0-.24.34,0,.33a1.14,1.14,0,0,0,.73-.5,1,1,0,0,1,.62-.47.31.31,0,0,0,.31-.32.31.31,0,0,1,.31-.32.34.34,0,0,0,.31-.2c0-.06-.32.17-.32,0a.43.43,0,0,1,.21-.38,1.23,1.23,0,0,0,.41-.32,1.29,1.29,0,0,0,.3-.52c0-.06.27-.05.6,0l.34-.13.06,0a1,1,0,0,1,1-.51l.16-.1.2-.15c.06-.43.24-.79.41-.79s.31-.28.31-.63l.48-.26a6.81,6.81,0,0,0,2-.28c0-.06.27-.22.59-.37l0-.06V58c.2-.19,1-.14,1.24-.32a.84.84,0,0,1,.46-.78c.25-.09.27-.41,0-.72l.11-.06c.78-.52.4.74.94.61l.3-.94c.34-.15.9.11,1.25,0l.06,0c.14-.33.38-.6.56-.6s.31-.29.3-.63c.58-.19.63.3.63.3.68.15,1-.37,1.24-.32l.61.12c-.17.1-.3,0-.3,0a5.44,5.44,0,0,1,.69-.55.8.8,0,0,0,.24-.4c0-.06.22.07.48.3l.15-.1c.11-.08.53-1.22.61-1.25s.76.08.94,0l.61-.94.44-.21a2,2,0,0,0,1.12,0c0-.06.14-.11.31-.11s.31-.28.31-.62l.65-.27c.67,0,1.21-.34,1.21-.69.9-.29-.15.15.32.31l.26.08a5.23,5.23,0,0,0,1.6-.62c0-.06.4-.17.59-.15s.34-.12.34-.18a7.17,7.17,0,0,1,.71-.55.73.73,0,0,0,.22-.39c0-.06.14-.11.32-.11a.34.34,0,0,0,.31-.21V48l.31.06c.9.18-.17-.14.31-.31l.78-.29a1.15,1.15,0,0,0,.77-.24c0-.06,0,.12.1.41l.53-.21a.69.69,0,0,1,.54-.65c.21,0,.38-.13.38-.18s.5-.06.43.14,0,.26.1.19a.58.58,0,0,1,.4-.14.34.34,0,0,0,.31-.21c0-.06.7-.08.67,0s0,0,0,0,.14-.11.31-.11a.34.34,0,0,0,.31-.21,1.63,1.63,0,0,1,.79-.16c.25,0,.45-.1.45-.16a3.4,3.4,0,0,1,.74-.38c.1,0,0-.32-.2-.64l.07,0c.35,0,1,0,1.43.06l.14-.08a1.55,1.55,0,0,1,.51-.63c.06,0,.1.15.1.21a3.41,3.41,0,0,0,.8.06c.25,0,.45-.12.45-.18s.15-.11.21-.11.1.14.1.31a.35.35,0,0,0,.22.31c.06,0,.11.16.11.21a1.06,1.06,0,0,0,.61.14c.18,0,.33.1.33.16a5.16,5.16,0,0,0,1.28-.56l.28,0c0,.34.78.65,1.06.64s.51.12.51.18a1.14,1.14,0,0,0,.69-.25,1.32,1.32,0,0,0,.24-.49c0-.06.13-.11.31-.11a.34.34,0,0,0,.31-.21c0-.06.4-.32.48-.36a.38.38,0,0,0,.13-.27c0-.06.28,0,.63.2l.35.07a1.45,1.45,0,0,1,.9.12c0,.06.28,0,.62-.21l.77-.14c.26.24.48.29.48.23a10.78,10.78,0,0,1,2.08-.38l.73.25.06,0c-.2.34-.21.61-.15.61A8.84,8.84,0,0,1,174.93,46l.89.24c1-.32,2-1,2.07-1.48l.14,0,.25-.08a1.06,1.06,0,0,1,.68.28,3,3,0,0,0,1.28,0c.15-.12.29-.07.29,0s.14.1.31.1a.34.34,0,0,1,.31.2,1.76,1.76,0,0,0,.8.13c.24,0,.45.11.45.17s.69.05.66,0,0,0,0,0a3.23,3.23,0,0,0,.85.31.59.59,0,0,1,.4.3,3.91,3.91,0,0,0,1.21.21l.35-.12.55-.2a.17.17,0,0,0-.24.1c0,.05.15.1.21.1a1.48,1.48,0,0,1,.35.59l.07,0a.82.82,0,0,1,.63.2,7.61,7.61,0,0,0,2,.38,2.23,2.23,0,0,1,1.14.21,1.7,1.7,0,0,0,.61.4h0c0,.34.15.62.32.62a.34.34,0,0,1,.31.21A2.6,2.6,0,0,0,193,49c.37-.06.68,0,.68.1s.14.1.31.1.31.41.3.92h0c.41.21,1.13-.19,1.56,0a5.18,5.18,0,0,1,.33.93c.3.2.59-.17.93,0,0,.34.16.62.22.62s.24.27.3.4a.55.55,0,0,0,.33.22c.05,0,.24.21.42.46a1,1,0,0,0,.63.46c.16,0,.22-.31.1-.68l.52.36c0,.34.15.62.32.62s.23.26.14.57l.18.36a.44.44,0,0,1,.48.56l.15.37a1.37,1.37,0,0,1,.63.88.34.34,0,0,0,.32.36.32.32,0,0,1,.31.31.34.34,0,0,0,.21.31,2.93,2.93,0,0,1,.33.83.5.5,0,0,0,.41.41.34.34,0,0,0,.31-.21l-.13.79.35.76-.07,1.06.63,1.37-.17.29.38.8,0,.58.12.22v1Z"/><path class="a" d="M182.53,56.78a.51.51,0,0,1,.62.3c1.05.06-.36-.08.31-.31l.53-.2a.43.43,0,0,0,.54.36,1.21,1.21,0,0,1,1.11.44l.73.15c.28-.26.51-.43.51-.37a.34.34,0,0,0,.32.2.31.31,0,0,1,.31.31.31.31,0,0,0,.31.31c.17,0,.31,0,.31.1a.81.81,0,0,0,.33.39c.18.1.62.57.62.74s-.24.23-.55.12l.25.5c.35,0,.63.13.63.31a.32.32,0,0,0,.32.31c.17,0,.21.1.09.22s0,.4,0,.4.2,0,.2.11a2,2,0,0,0,.2.53c.11.18.75.64.75.7s.05.2.11.2.14.31,0,.7l.17.23c.52.17.94.44.94.61s.06.31.12.31a2.82,2.82,0,0,1,0,1.29l.23.57c.34,0,.63.13.63.3s0,.31.12.31.18.15.17.33.09.61.15.6a.34.34,0,0,1,.2.31c0,.17.06.31.12.31a.34.34,0,0,1,.21.31c0,.17,0,.31-.1.31h-.31a4.92,4.92,0,0,1-.54,0c-.18,0,.62,1.09.21,1.6h.76c0,.51-.13.94-.3.94a1.23,1.23,0,0,0-.63.26c-.17.14.63.2.64.39s-.09.49.18.36l-.18.56a3.69,3.69,0,0,0-.62.73c0,.06-.14.13-.31,0l.63.49.62.47c-.33.43-.56.78-.5.78a.4.4,0,0,1,.19.37c0,.21.07.56.13.56s.18.28.15.63a3.51,3.51,0,0,0,.18,1.23.41.41,0,0,1,.27.26,4.82,4.82,0,0,1,.16,1,.35.35,0,0,0-.21.32c0,.17.05.31.11.31s.17.26.12.57a6.46,6.46,0,0,1-.32,1.3,2.63,2.63,0,0,0-.1,1.23c.05.67.05,2.09-.18,2l.12.55s.69.18.63.62c-.34,0-.62.18-.61.38s0,.56-.1.57a3.69,3.69,0,0,0,0,1.51l-.23.67c-.34,0-.62.15-.61.32a.59.59,0,0,1-.31.47.59.59,0,0,0-.3.47c0,.17,0,.22,0,.11s-.18.46-.07.39.06.44,0,.44-.2.2-.19.45a2.1,2.1,0,0,1-.11.8c-.06,0-.2.23-.17.5a3.28,3.28,0,0,1-.13,1.06c-.06,0-.14.21,0,.47a3,3,0,0,1,.17.78c0,.17-.21.41-.47.52a.24.24,0,0,0,0,.41c.06,0,.21.28.22.63s.1,1.18.21,1.11.07.44,0,.44a1.39,1.39,0,0,0-.39.73l-.12.21-.62.32c-.12.34.14.89,0,1.24l-.62.32-.17.5c.1.75-.08,1.49-.42,1.63v.06l-.19.77c.28.09.46.16.4.16a.36.36,0,0,0-.2.32c0,.17-.27.31-.61.32-.13.32.18.94,0,1.25l-.07.1c-.3-.22-.56-.36-.56-.3s0,.21-.1.21-.18.2-.15.45a1.61,1.61,0,0,1-.15.8c-.06,0-.21.05-.21.11a1.31,1.31,0,0,1-.33.52c-.17.18-.91.68-.91.73a2.79,2.79,0,0,1-1.27.28l-.28.26c-.18.15.12,1,0,1.25a1.18,1.18,0,0,0-.93.62h0a.63.63,0,0,0-.61.63c-.26.12-.74-.16-.93,0a7.65,7.65,0,0,0-.3.94c-.28.27-.58.06-.93.32,0,.34-.13.62-.3.63a.31.31,0,0,0-.31.32c0,.17-.08.34-.18.37a3.23,3.23,0,0,0-.75.37c0,.06-.13.21-.31.21s-.31,0-.31.11-.25-.06-.56-.39l-.07,0c-.34,0-.62,0-.62-.09s-.08-.14-.18,0a1.33,1.33,0,0,1-.75.05.5.5,0,0,0-.45-.18,2.08,2.08,0,0,1-.8-.11c0-.06-.25-.2-.55-.17s-1-.31-1-.65c-.63-.19-.65.53-.93.32l-.07,0c0-.49-.08-.89-.26-.88s-.31-.28-.32-.62c-.36-.15-.61.63-.61.63l-.5.1a1.91,1.91,0,0,1-.53-.77c0-.2-.52-1.19-.87-1.18-.16-.34.21-.63,0-.93s-.6-.06-.94-.3-.08-.57-.32-.93a.69.69,0,0,1-.67-.64,3.75,3.75,0,0,0-.39-1.22c-.06,0-.14-.14-.06-.31a1.68,1.68,0,0,0,.15-.62,4.94,4.94,0,0,0-.27-1.09c-.15-.43.25-.83.24-.87a1.35,1.35,0,0,0-.44-.24c-.07,0,.43-.47.42-.67s.06-.56.12-.56.17-.23.14-.51-.1-1.05-.27-1.05-.31-.28-.32-.63.15-1.1.36-.94l-.07-.6-.63-.3c-.34-.84.41-.82.3-1.56l-.63-.31-.19-.47A2.65,2.65,0,0,0,167,95.9a.36.36,0,0,1-.21-.31c0-.17,0-.32-.1-.31s-.09-.21.05-.47l0-.16,0-.2c0-.41,0-.74.06-.74s.18-.15.16-.32.08-.61.14-.61.18-.15.15-.32-.07-.55-.2-.48,0-.44,0-.44a1,1,0,0,0,.38-.55,7.64,7.64,0,0,1,.54-1.33,1.36,1.36,0,0,0,0-.9,2.07,2.07,0,0,1-.05-1c.06,0,.19-.2.18-.45s.3-.8.63-.81l.25-.65a3.55,3.55,0,0,1,.16-1.22c.05,0,.2,0,.2-.1s-.06-.47-.12-.78a5.28,5.28,0,0,1-.1-1.29c.06,0,.18-.16.14-.35a6,6,0,0,0-.37-1.2c-.06,0-.19-.2-.17-.45a4.23,4.23,0,0,0-.46-1.5l.08-.23c.34,0,.53-.31.41-.69l.51-.26c.44-.23-.73-.37-.32-.62.07,0,.61-.32.62-.32l.11-.53a1.89,1.89,0,0,1-.58.22c-.09,0,.46-.45.46-.62a.31.31,0,0,1,.31-.32.35.35,0,0,0,.31-.38c0-.21,0-.56.1-.56s.1-.27,0-.6.51-1,.51-1.07a.78.78,0,0,0-.5-.31l.18-.52.93-.32.12-.24c-.07-.39-.09-.7,0-.7a.34.34,0,0,0,.2-.32c0-.17.27-.45.6-.62h0c.09-.18-.08-.76,0-.93v0a1.14,1.14,0,0,0,.61-.92l.13-.18c.27.26.49.34.49.17a.35.35,0,0,1,.28-.35.57.57,0,0,0,.18-.81l.14-.1.93-.32.14-.32c-.09-.51-.11-.93,0-.93a.34.34,0,0,0,.2-.31c0-.17,0-.31.1-.31s.2-.28.19-.62c0-.06.9-.6.93-.64l.18-.36a4,4,0,0,1,.22-1.2c.07,0,.21,0,.21-.1s.2-.2.45-.18.49-.08.48-.14a2.73,2.73,0,0,0-.1-.49,3.33,3.33,0,0,1-.12-1,.62.62,0,0,0,.36-.32.6.6,0,0,1,.46-.32c.17,0,.31,0,.31-.11a.81.81,0,0,1,.6-.23l.33-.3a4.47,4.47,0,0,1,.39-1.48l.22-.08c.51-.22,1,.16,1.55,0,1.33-.48-1.4-.09.32-.31"/><path class="a" d="M162.67,64.78c.86-.16-.08.48.32.62l.44.15c.27-.26.49-.43.49-.37a.33.33,0,0,0,.31.2,1,1,0,0,1,.63.46c.17.25.36.46.42.46a.33.33,0,0,1,.21.31c0,.17.28.3.63.3l.28.44a3,3,0,0,0,.15,1.11c.06,0,.14.12.07.27s-.1.42,0,.51.11.16.06.16-.11.13,0,.28.05.34,0,.34a2.72,2.72,0,0,0-.29,1.22,9.37,9.37,0,0,0,.23,2.21c.06,0,.21.16.22.37s-.05.57-.11.57a.47.47,0,0,0-.27.32,4.18,4.18,0,0,1-.34.92.36.36,0,0,0-.21.32c0,.17.06.34.14.38a2.34,2.34,0,0,1,.58,1.14l-.07.34s-.47-.3-.31.63c.17.34.28.62.22.62a.39.39,0,0,0-.26.25,2.34,2.34,0,0,1-.36.69.33.33,0,0,0-.21.31c0,.17,0,.31-.1.31a.42.42,0,0,0-.24.34,3,3,0,0,1-.37.91,4,4,0,0,0-.25,1.5l-.25.69c0,.11-.5.2-.62.32l-.3.26c.34.2.62.49.62.66s-.28.46-.62.63l-.05.62c.2-.17.39-.21.42-.1s-.36.47-.36.53a7.33,7.33,0,0,0,.4,1.11l-.07.65c-.34.18-.62.37-.62.42s0,.48,0,.83.12.56.26.49.37-.14.37-.08,0,.37,0,.57,0,.57-.1.57a.78.78,0,0,0-.15.63,4.24,4.24,0,0,1-.13,1.24,1.31,1.31,0,0,0-.12.89l-.08.36-.1.41c-.11.12-.16.22-.1.22s.21.13.21.3.05.31.11.31.16.32.12.72a4.59,4.59,0,0,0,.22,1.46.34.34,0,0,1,.2.31c0,.17.05.31.11.31s.21.17.22.37,0,.56-.1.57a1.62,1.62,0,0,0-.19,1,11,11,0,0,1-.09,1.84c-.06,0-.21.06-.21.11a.94.94,0,0,0,.14.39c.08.1.4,1,.28.94s-.14.43-.19.44-.22,0-.22.08.42.39.55.58l-.53.28c-.36.18.67.43.32.62-.69.35-.06.43-.3.94-.34.35-.57.63-.51.63s.21.28.21.62c.27.22.77,0,.94.3l.23.41a14.85,14.85,0,0,1-.3,2.39.59.59,0,0,0-.32.37c-.06.2-.51.63-.51.69s0,.2-.1.2a1,1,0,0,0-.13.75,4.39,4.39,0,0,1-.16,1.43.93.93,0,0,0-.12.7l-.08.24-.62.32c-.1.3.2,1,0,1.25l-.25.33c-.55,0-1,.14-1,.3s-.2.33-.45.35a1.88,1.88,0,0,1-.8-.12.55.55,0,0,0-.42-.26,5,5,0,0,1-1.14-.35.71.71,0,0,0-.12-.33c-.06-.06-.94-1.11-1.45-1.1h0c-.2-.41.24-1.19,0-1.56a4.14,4.14,0,0,0-.63-.3c-.56.12.68.51-.3.32a1,1,0,0,1-.28-.76c0-.25-.68-.83-.68-.89a4.62,4.62,0,0,1,.32-.87,1.66,1.66,0,0,0,.18-.89c-.06,0-.21,0-.21-.1a1.26,1.26,0,0,0-.22-.47,6.15,6.15,0,0,0-.52-.66c-.06,0,0-.41.36-.91l-.28-1,0-.11c-.31.23-.58.38-.58.33s0-.21-.1-.21a.91.91,0,0,1-.22-.66c0-.37-.3-1.2-.64-1.2l-.06,0a1.51,1.51,0,0,0-.35-.59.34.34,0,0,1-.19-.34c0-.19-.08-.59-.14-.59s-.21-.17-.2-.38-.07-.55-.13-.55-.18-.15-.16-.33a1,1,0,0,0-.17-.6c-.05,0-.21-.14-.21-.31s0-.31-.1-.31a.36.36,0,0,1-.22-.31c0-.17-.28-.45-.63-.62,0-.13.59-1,.3-1.56-.09-.16-.74-.19-.94-.3a4.54,4.54,0,0,0-.73-.93,1.5,1.5,0,0,1-.11-.93l-.12-.31a.63.63,0,0,1-.63-.62l0-.07a1.54,1.54,0,0,1-.6-.34.34.34,0,0,0-.31-.21.31.31,0,0,1-.31-.31c0-.17-.09-.33-.2-.35s-.46-.21-.49-.14-.11.55.05.61l.33.2.1.05c-.22.32-.33.64-.24.73s.11.16.06.16-.2,0-.19.09.3.36.3.53,0,.31-.07.3-.28.63-.34.63-.21.05-.21.11,0,.54,0,1,.69,1.16.69,1.22a.78.78,0,0,1-.22.39c-.13.11,0,.75,0,.75s.23.08.26.18a3.19,3.19,0,0,0,.38.74c.06,0,.21.2.21.44a2.29,2.29,0,0,1-.09.8c-.06,0-.13.23,0,.52s.12.73.06.73-.21.05-.21.11.11.09.24,0,0,.86,0,.86a.34.34,0,0,0-.2.31c0,.17,0,.31-.1.32a.39.39,0,0,0-.21.37c0,.2.06.57.12.57s.2.2.19.44-.18.71-.42.6l.14.52a.64.64,0,0,1,.58.74l.05.19c.17.34.27.62.22.62s-.21.2-.21.44a.75.75,0,0,1-.46.65,1,1,0,0,0-.59.6c-.08.24,0,.5.14.49a.31.31,0,0,1,.32.31,5.09,5.09,0,0,1-.15.94c-.08.35-.1.63,0,.62a.34.34,0,0,1,.21.31c0,.17.28.31.63.31l.25.63a8.44,8.44,0,0,0-.11,1.86.35.35,0,0,1,.21.31,2.1,2.1,0,0,1-.26.78c-.15.26.22,1.27.15,2.27l-.17.38c-.34,0-.59.13-.56.28s-.67.71-.67.77-.08.11-.16,0a1.18,1.18,0,0,0-.77,0c0,.06-.28.21-.62.21-.51.18.63.49-.31.32l-.32-.93-.28-.12-.84.11c.07,0-.4-.62-.35-1l-.09-.2c0-.08-.58-.22-.63-.31a3.36,3.36,0,0,0,0-.47c0,.08-.26-.46-.2-.46a1.14,1.14,0,0,0,.28,0c.05,0-.39-.47-.38-.72a3.12,3.12,0,0,1,.13-1c.08-.08.11-.16,0-.16a.63.63,0,0,1-.28-.44,6.85,6.85,0,0,1-.15-1.12c.06,0,.19,0,.18-.09s-.26-.39-.23-.6a5.93,5.93,0,0,1,.34-1.18c.06,0,0-.39-.26-.87l.15-.07c.19-.11.49.23.31-.32a1.71,1.71,0,0,1-.79-.77.49.49,0,0,1,.3-.63c.26-.09.45-.54.42-1s-.14-1.72-.32-1.8.33-.21.33-.26a.68.68,0,0,0-.24-.36c-.13-.08.15-.25,0-.37a2.15,2.15,0,0,1-.45-.86c0-.25.08-.74.19-.67s0-.37-.22-.29-.25-.45-.18-.46.19-.2.17-.45.15-.72.32-.62.32.08.32,0a.42.42,0,0,0-.21-.28,1,1,0,0,1-.36-.71,7.79,7.79,0,0,1,.33-1.39c.06,0-.05-.1-.36-.21l.25-.72.22-.67c.05.2,0,.36,0,.36a.53.53,0,0,1-.21-.46,1.63,1.63,0,0,0-.63-1.09l-.18-.7a5.37,5.37,0,0,0,.06-1.48c-.06,0-.21-.17-.2-.38s-.07-.55-.13-.55a1.4,1.4,0,0,1-.22-.86,9.74,9.74,0,0,0-.12-1.64c-.06,0-.23,0-.24-.06s.33-.43.31-.64.07-.55.13-.55a.15.15,0,0,0,.12-.2l-.24-.11-.67-.33c.54,0,1-.16,1-.36s-.07-.56-.13-.56a.45.45,0,0,1-.23-.37c0-.2.06-.56.12-.56s.19-.17.18-.38.06-.56.12-.56.15-.23.09-.51-.21-.39-.21-.74c0,0,.62-.32.62-.32l-.07-.6c-.31.16-.57.07-.57-.21a4.36,4.36,0,0,0-.12-1.05c-.06,0-.21-.24-.22-.55s.27-1,.62-1l0-.55c-.19.13-.34.09-.32-.1s-.09-.59-.14-.59-.22-.2-.22-.45a2.26,2.26,0,0,1,.1-.8c.06,0,.2-.17.18-.38s.06-.56.12-.56.21,0,.21-.08-.32-.37-.32-.54S140,80,140,80s-.19,0-.16-.1.27-.26.27-.32a1.86,1.86,0,0,0-.45-.61l.13-.53s.45-.06.31-.62h0a1.86,1.86,0,0,1-.62-.4,1.54,1.54,0,0,1,.62-.53c0-.09.3-1.25.3-1.25l.1-.1a1.77,1.77,0,0,0,.83,0,.33.33,0,0,1,.31-.21c.17,0,.31-.05.31-.1a.38.38,0,0,1,.24-.26,2.2,2.2,0,0,0,.68-.37.34.34,0,0,1,.31-.21,2.11,2.11,0,0,1,.86,1.32l.1.23a1.18,1.18,0,0,1,.64.93c.26.18,1.36.13,1.56.29a12.92,12.92,0,0,0,.33,1.55l.1.13c.29-.25.52-.31.52-.14s.27.41.58.53l0,.09.34.63c0,.85.28,1.55.62,1.54.17.73-.59.53-.3,1.24.34,0,.62.14.63.31s.05.31.11.31a1.39,1.39,0,0,1,.37.75,1.71,1.71,0,0,1,.07.8.61.61,0,0,0-.26.47,1.51,1.51,0,0,0,.16.78,2.8,2.8,0,0,1,.45,1.15l.08.1h.62c.25.08.17.8.32.93a2,2,0,0,1,1.25.91h0l.14.12c.27.1.45.64.41,1.21s.07,2.51.39,2.64l0,.07c.26.68-.31.93.33,1.24.26.12-.46.31-.3.63s.71.11.93.3a1,1,0,0,0,.6.86l0,.07c0,.34.06.62.12.62a.91.91,0,0,1,.42.26c.11.14.42.41.42.47a.34.34,0,0,0,.32.2.31.31,0,0,1,.31.31c0,.17,0,.31.11.31a1.64,1.64,0,0,0,.1-1,6.25,6.25,0,0,1,.18-1.83c.06,0,.2-.18.18-.38s.06-.55.12-.56.15-.3.09-.66l.1-.27a6,6,0,0,1,.62-.32c.15-.87-.78-.7-.32-.93.09-.05.71-.41.31-.63h-.62c-.09-.59,0-.17.3-.32.52-.28-.85-.35-.32-.62l.37-.2a1.6,1.6,0,0,0-.17-.74.91.91,0,0,1-.29-.61,3.68,3.68,0,0,1,.16-1.25c.06,0,.19-.18.18-.38s.06-.56.12-.56.11-.1,0-.23a1.23,1.23,0,0,1-.27-.86c.08-.26.12-.4.08-.32s-.06-.56.18-.68.82-.56.81-.73a.79.79,0,0,1,.13-.46c.07-.08,0-.17-.13-.16s-.18-.25,0-.57l0-.05c.12-.91-.32-.62-.32-.62l-.14-.52c.07-.57.26-1,.43-1s.31-.05.31-.11.19-.55.19-.55a2.11,2.11,0,0,0,0-.91,1.48,1.48,0,0,1-.26-.89l0-.36a.61.61,0,0,0,.55-.73,4.94,4.94,0,0,1,.15-1.46.33.33,0,0,0,.2-.31c0-.17,0-.31.11-.31s.17-.06.14-.12-.2-.5-.15-.5a1.54,1.54,0,0,0,.45-.74l-.88-.51-.23-.15a2.87,2.87,0,0,0,.68-.91c.07-.23-.15-.25-.15-.3a1.22,1.22,0,0,1,.41-.51,2.24,2.24,0,0,0,.51-.44.34.34,0,0,1,.31-.21c.17,0,0-.26-.3-.56l0-.06-.26-.73a10.18,10.18,0,0,1,.34-2.08c.06,0,.18-.2.15-.45a1.62,1.62,0,0,1,.15-.8.51.51,0,0,0,.3-.31,1.25,1.25,0,0,1,.82-.64c.15-.1.16-.55.62-.63"/><path class="b" d="M183.24,64.87c.65-.2.78-.67,1.56-.33,0,.34.16.62.22.62a1.42,1.42,0,0,1,.41.46,1.23,1.23,0,0,0,.94.46c.2.6-.31.63-.31.63a5.21,5.21,0,0,0,0,1.87c.18.34.17.62.12.62a2.46,2.46,0,0,0,.08,1l.14.2.63.3.14.53a3.2,3.2,0,0,1-.33,1.34c-.06,0,.09.39.13.47s-.19.27-.53.41v.06l-.18.76c.28.09.14.32.27.6s.1.51,0,.51-.11.15-.11.21.15.1.21.1,0,.17-.06.33.28.57.8.91l.06.24c-.2.55,1.09,1.13.69,1.19s-.6-.52-.53-.07a1.21,1.21,0,0,1-.08.82,5.3,5.3,0,0,0-.1,1.24.85.85,0,0,0,.22.63,20,20,0,0,1,.36,2.39,1.81,1.81,0,0,1-.11,1c-.06,0-.1.21-.1.47s.43.46,1,.44l-.65.34-.34.17c0,.25.18.45.25.45s.1.14.1.31.19.2.41.05l-.09.57-.62.32c-.34.51,0,.92-.61,1.25l-.33.16c.35.25.5.46.45.46s-.11.16-.11.21a1.73,1.73,0,0,1-.26.48l-.35.56-.11.16c-.28.09-.5.31-.5.48v.52c0,.06.45-.12.52.07s0,.34-.2.34a.35.35,0,0,0-.31.22c0,.06-.14.1-.2.1s-.1.28-.1.62c0,0,.44.08.32.93-.34,0-.44.2-.21.44l-.1.5-.62.32-.09.23a.93.93,0,0,1-.49,1l0,.07-.2.57a2.87,2.87,0,0,1,0,1.3c-.06,0-.11.14-.1.31a.34.34,0,0,1-.21.32,2.13,2.13,0,0,0,.05.93l-.15.31c-.34,0-.62.15-.61.32s-.28.45-.62.63c-.16.31.12.9,0,1.24l-.62.32a12.77,12.77,0,0,0-.29,1.56c-.4.34-.93-.1-1.24.33l-.17.2c.09.4,0,.73,0,.73s-.24.21-.41.47a1,1,0,0,1-.61.48.35.35,0,0,0-.31.22,2.51,2.51,0,0,1-1.34.11c-.3-.17-.48-.06-.5.19s-.17.45-.23.45-.1-.14-.11-.31-.41-.53-.49-.56-.14-.2-.14-.26-.28-.11-.62-.1l-.11-.18c.06-.42-.34-.74-.87-.73l.66-.33c.41-.22.41,0,.31-.63,0,0-.44,0-.32-.62.05-.35.89.17.61-.94-.34-.17-.63-.45-.63-.61s-.43-.59-.94-.93c-.11-.44.61-.62.62-.63l.15-.58a1.55,1.55,0,0,1-.48-.56c0-.06.51-.62.43-.88a2.91,2.91,0,0,0-1.08-1.09l-.06-.54c.2.13.36-.2.36-.38a.36.36,0,0,1,.21-.33,2,2,0,0,0,.12-.8c0-.25-.17-.45-.23-.44s-.11-.15-.11-.2.15-.11.21-.11.18-1.1.25-1.48.14-.85.14-.91.15-.11.2-.11.1-.28.1-.62l-.43.24a9.79,9.79,0,0,1,0-2.41,2.5,2.5,0,0,0,.37-.73.34.34,0,0,1,.25-.21c.06,0,.1-.14.1-.32a.35.35,0,0,1,.21-.31c.05,0,.1-.14.1-.31a.34.34,0,0,1,.2-.31,4,4,0,0,0,.14-1.23.92.92,0,0,0-.26-.64,2.93,2.93,0,0,1-.16-1c0-.3-.11-.55-.17-.55s-.11-.07-.11-.16l.31-.15.45-.24c-.42-.38-.62-.7-.57-.7s.1-.14.1-.31.28-.45.61-.63l.34-1.23a8.14,8.14,0,0,1,.14-2.2c.06,0-.11-.59-.15-.71s.21-.23.55-.23l.26-.82a2,2,0,0,1,.25-1.06,1.73,1.73,0,0,0,.4-.62h0c.34,0,.62-.15.62-.21s-.48.1-.43-.08-.41-.08-.33-.28a.84.84,0,0,1,.75-.36l0,0a3.84,3.84,0,0,0-.65-1.7l.9-.45.22-.12c-.3-.28-.39-.5-.34-.5a10.76,10.76,0,0,0,.71-1.88c.16-.13,1.42-.17,1.55-.33l.27-.36a2.55,2.55,0,0,1,.24-1.21c.05,0,.1-.14.1-.31a.35.35,0,0,1,.2-.31c.06,0,0-.36-.05-.8l.15-.14c.08-.08.87-.17.93-.32l.12-.36c-.07-.31-.49-.06.18-.26"/><path class="a" d="M130.45,81l.32.93.55.22c.21-.3.52-.27.69.07h0a.78.78,0,0,1,.75.53,1.85,1.85,0,0,0,.3.7c.06,0,.21,0,.21.11a.34.34,0,0,1-.31.21c-.17,0-.31.05-.31.11s0,.35,0,.51.26.23.58.13l-.26.49c-.34,0-.62.05-.62.11a1.13,1.13,0,0,1-.2.46,6.43,6.43,0,0,1-.51.68.81.81,0,0,0-.2.63c-.38.25-1.21,0-1.55.33l-.06.05c0,.49-.07.89-.23.89s-.43.28-.56.6l-.06,0c-.35,0-.32.4.06.9l-.36.36-.15.14c-.43-.07-.79-.08-.79,0s-.14.2-.31.21a.31.31,0,0,0-.31.31.31.31,0,0,1-.31.31c-.17,0-.31.05-.31.11s-.17.2-.38.18-.55.08-.55.14a.33.33,0,0,1-.31.21c-.17,0-.31.05-.31.11s0,.09,0,0-.67,0-.67.05a1.25,1.25,0,0,1-.85.12l-.09.09-.38.32a20,20,0,0,0,.52,2.8c.06,0,.19.16.18.37a.7.7,0,0,0,.66.56l0,.28a2.6,2.6,0,0,0-.22,1.21c.07.14-.15.37-.2.75l.08.25c.34,0,.63.16.63.37s.05.56.11.56.21,0,.21.07a3.29,3.29,0,0,0-.2,1.19s0,0-.09.3c-.15.89-.16.32,0,.32a.34.34,0,0,1,.33.33c0,.18.71.64,1.2.7l.35-.12.3-.62.27-.11c.37.05.67.05.67,0a.36.36,0,0,1,.3-.24,3.36,3.36,0,0,0,.94-.4c0-.06.28-.08.63.1,1.1.05-.39-.17.31-.32l.84-.19c-.12.27-.22.45-.22.39a1.24,1.24,0,0,1,.2-.48,5,5,0,0,1,.51-.67.81.81,0,0,1,.4.29c.11.16.68.24,1.37.13l.31.18a1.26,1.26,0,0,0,.45.92,1.74,1.74,0,0,1,.5.42.33.33,0,0,0,.31.2.31.31,0,0,1,.32.31c0,.17,0,.31-.1.31s-.16.22-.09.48a3.68,3.68,0,0,1,.08,1.18c-.07.23.14.57.14.63a3.35,3.35,0,0,1-.91.78l0,.06-.45.83a2.52,2.52,0,0,0-.16.53c0,.05,0,.14-.06.06a.69.69,0,0,0-.35-.17c-.05,0-.2.05-.2.11s-.23.19-.52.17a3,3,0,0,0-1,.16,1.61,1.61,0,0,1-1,.06l-.28.16a1.16,1.16,0,0,1-.61.93h0v.62l-.19.1c-.41,0-.74-.13-.74-.19s-.27.07-.59.4l0,0-.35.12c-.49-.06-.83-.24-.74-.41s-.57,0-.69.49l-.08.13-.62.32-.12.34a2,2,0,0,1,0,.9c-.05,0-.21.05-.21.11a.34.34,0,0,1-.31.21c-.17,0-.31.28-.3.63l-.06.17c-.14.25-.2.45-.14.45a3.2,3.2,0,0,1,.37,1.31l-.15.55c0,.15-.71.08-.61.94l.94.61.14.4a3.58,3.58,0,0,1-.22,1.16c-.06,0,0,.21.26.47a1.49,1.49,0,0,1,.47.77c0,.17,0,.31-.1.31s-.21.05-.21.11a.33.33,0,0,1-.32.2c-.17,0-.28.23-.24.51s.13.74.36.74.54.12.57.28a4.19,4.19,0,0,0,.38,1,1.22,1.22,0,0,0,.43-.59l.08,0c.41-.29,1.16-.08,1.56-.33,0-.34.13-.62.3-.63a1,1,0,0,0,.62-.48,2.81,2.81,0,0,1,1.24-.79l.32.06c0,.13,0,0,0-.38.89,0,.69.53.94.61a.62.62,0,0,1,.63.61c1.07.16-.34-.09.3-.31.37-.14.57.13.94,0l.31-.63,1-.14a2.68,2.68,0,0,1,.89,1.06c0,.17.05.31.11.31s.21,0,.21.1.06.2.12.2.18.15.16.35.2.58.37.58.12.44-.11,1,.43.31.43.37a1.45,1.45,0,0,1-.61.51h0l-.12.53c.24-.12.43-.08.43.09s0,.31-.1.31a1.32,1.32,0,0,0-.3.77l-.2.17-.07,0a2.4,2.4,0,0,0-.86.39.67.67,0,0,1-.44.31,2.56,2.56,0,0,0-.8.33.82.82,0,0,1-.62.21l-.1.09c.06.64,0,1.18-.07,1.21a3.29,3.29,0,0,0-.74.37.33.33,0,0,1-.31.21c-.18,0-.32.05-.32.11a3.61,3.61,0,0,1-1.5,0l-.68.21-.61.94-.2.09c-.23-.22-.57-.12-.73.23h0c-.73.17,0-.7-.63-.31l-.11.06c.24.31.32.6.19.64s-.66.57-1,.61-1.26.23-1.26.17,0-.21-.1-.21-.21,0-.21.11a.83.83,0,0,1-.27.43c-.15.12.28.14.28.2a.34.34,0,0,1-.31.21.32.32,0,0,0-.31.32.39.39,0,0,1-.36.36c-.2,0-.09-.36-.26-.35a.31.31,0,0,0-.31.32c0,.17-.21.32-.47.32s-.73.09-.67.19-.48.31-.58.14.11-.11.41.12l-1.18-.11a11,11,0,0,1-1.87-.29v-.62c-.34-.18-.58.13-.93,0,0-.34,0-.76,0-.92s-.08-.33-.14-.33-.2,0-.18-.08a1.45,1.45,0,0,0,.33-1.35s.16.67-.15-.46c-.17-.61,0-.45,0-.45-.2-.39.39-.13.39-.47h0a1.45,1.45,0,0,1-.7-1,4.67,4.67,0,0,1,.16-1.44c.06,0,.2-.17.2-.38s.15-.45.35-.32l0-.55c-.34,0-.68-.47-.75-1l.12-.51c.34-.18.62-.46.62-.63s0-.31.1-.31.18-.24.14-.54l.68-.41c.4-.26-.76-.4-.32-.62l.32-.17c0-.25-.06-.45-.12-.45a.34.34,0,0,1-.21-.31c0-.17-.43-.59-.95-.93l-.21-.36a3.88,3.88,0,0,0-.22-1.19c-.06,0-.11-.12,0-.27l.4-.36.06-.07c-.21-.47-.33-.87-.27-.87s.16-.32.1-.71l.09-.23a6,6,0,0,1,.62-.32l.12-.63c-.24,0-.44-.13-.44-.3s.43-.32,1-.32l-.66-.31-.43-.21a.42.42,0,0,1,.22-.1c.05,0,.2,0,.2-.11s0-.21.1-.21.21,0,.21-.1,0-.55,0-1S118,110.09,118,110s0-.21.11-.22a3.44,3.44,0,0,0,.63-1.16l-.14-1-.62-.3-.19-.47a3,3,0,0,0,.07-1.09c-.06,0-.2-.17-.2-.38s-.07-.55-.12-.55-.21-.2-.21-.44a2.46,2.46,0,0,1,.1-.8,5.54,5.54,0,0,0,.11-1.86c0-1,.16-3.12.69-3.12l-.65-.31-.4-.2a1.26,1.26,0,0,1,.39-.24,1.11,1.11,0,0,0,.38-.76c0-.31-.68-.24-.67-.49s0-.53.11-.57.47-.29.47-.34a1.36,1.36,0,0,1,.33-.53c.18-.17-.65-.35-.65-.41s0-.21.1-.21.2-.05.2-.11a.56.56,0,0,0-.25-.33.81.81,0,0,1-.38-.5c0-.17,0-.31-.1-.31s-.21-.23-.21-.51a4.19,4.19,0,0,1,.09-1c.06,0,0-.32-.24-.7l.12-.24h.62l.06,0c.13-.33.29-.6.35-.6a.43.43,0,0,0,.22-.38c0-.2-.07-.56-.12-.56s-.21-.2-.22-.45,0-.7-.08-.58-.19-.55-.12-.59a2.18,2.18,0,0,0,.49-.35c0-.06.22,0,.48.2l.15-.1a1.53,1.53,0,0,1,.55-1.07c.31-.25-1.41.46,1.3-.51l.27-.11a1.1,1.1,0,0,0,1.14-.95l.14-.2v0c.34-.16.61-.44.6-.61s.3-.28.67-.25l.27-.07s.15-.5.93-.32h0c.15.34.41.61.58.61a1,1,0,0,0,.61-.48,1.42,1.42,0,0,1,.41-.47c.06,0,.2-.28.2-.63l.24-.13c.38.24.69.39.69.33a.33.33,0,0,1,.33-.18c.19,0,.6-.08.6-.14a.84.84,0,0,1,.62-.22c.08,0,.2-.59.31-.62.35-.15.55.12.93,0,.84-.31-1-.34.31-.32"/><path class="a" d="M109.24,92.78c.25-.17.46-.27.46-.21s.22.17.49.13a1.32,1.32,0,0,1,.76.16,1.78,1.78,0,0,0,.25.56c.14.19.7.62.7.68s.28.2.63.2c.2.35-.63.44-.3.63l.62.3.27.68a8,8,0,0,0-.14,1.81c.06,0,.2.2.18.44A1.83,1.83,0,0,1,112,99.3l-.11.38c.41.13.8.24.87.24s-.42.51-.4.75a1.88,1.88,0,0,1-.12.8,1.62,1.62,0,0,0-.37.84l.17.09.18.1c.42-.06.76,0,.76.2a.55.55,0,0,0,.28.45.71.71,0,0,1,.36.48c0,.17.05.31.11.31s.2.14.2.31a.29.29,0,0,1-.35.28c-.2,0-.6.54-.62,1.14s-.18,2.65-.12,2.65.21,0,.21.1,0,.21-.1.21a1.43,1.43,0,0,0-.27.83,13.79,13.79,0,0,1-.32,2c-.06,0,0,.21.22.47l-.11.78c-.17.34-.26.63-.2.63s.2.2.19.44.31.8.65.8l.08.25c-.21.21-.34.37-.28.37s.19.14.18.32.09.61.15.61a.33.33,0,0,1,.21.31c0,.17.05.31.11.31a.34.34,0,0,1,.21.31c0,.17,0,.31-.1.31a.43.43,0,0,0-.28.27c0,.15-.08.6.09.53s.25.45.2.45a1.27,1.27,0,0,0-.2.82,11.85,11.85,0,0,1-.08,1.68c-.06,0-.21,0-.21.11s0,.2.11.2a.77.77,0,0,1,.26,0s-.39.43-.42.63.38.62.38.68a.81.81,0,0,1-.18.4,1.24,1.24,0,0,0,0,.74,1,1,0,0,1,.28.67c0,.37-.56.85.17.43.05,0-.35,1.7-.52,1.7s-.31.29-.31.63c-.2.13-1.18.23-1.24.33l-.36.5c.38-.1.68-.05.68.12s-.28.32-.62.32c-.11.05.06.83,0,.93s-1.18.26-1.24.32a1.18,1.18,0,0,1-.61.94c-.23.5,0,.92-.3,1.25A2,2,0,0,0,108,133l-.36.14a5.21,5.21,0,0,1-.89-.28c-.17-.09-.33-.07-.35,0s-.27.09-.27,0,0-.21-.1-.21-.21.06-.21.11-1.19-.61,0-.31c0,0,.52.39-.36.21-.57-.12-.54-.19-.54-.19a4.48,4.48,0,0,1-1.33.1c0-.06-.31-.15-.69-.08l-.25-.12a4.56,4.56,0,0,0-.73-.93c-.06,0-.21-.28-.22-.62-.2-.16-.83-.07-.93-.3l-.21-.45c.29.08.52-.07.51-.32s-.29-.79-.63-.78l-.1-.58c.22.15.43-.06.45-.47a5.17,5.17,0,0,0-.17-1.45.29.29,0,0,1-.19-.28,1.36,1.36,0,0,0-.14-.65.31.31,0,0,1-.18-.32.78.78,0,0,0-.67-.61l-.19-.58a4.11,4.11,0,0,0,.07-1.28.34.34,0,0,1-.21-.31c0-.17.09-.26.21-.2s.05-.42,0-.42a.35.35,0,0,1-.21-.31c0-.17,0-.31-.11-.31s-.2-.17-.18-.38-.08-.55-.14-.55-.2,0-.18-.1.27-.26.27-.32-.12-.77-.27-1.45a2.23,2.23,0,0,1,.24-1.35c0-.06,0-.21-.1-.21a2.67,2.67,0,0,1-.11-1.28,10.48,10.48,0,0,0-.25-2.45c-.06,0-.2-.17-.2-.38s-.07-.55-.12-.55-.16-.2-.1-.45.19-.31.19-.49S98,111,98,111a.54.54,0,0,1-.21-.46,1.63,1.63,0,0,0-.64-1.09L97,109a2.87,2.87,0,0,1,.16-1.1c.06,0,.19-.17.18-.37s.06-.57.12-.57a.34.34,0,0,0,.2-.31c0-.17,0-.34.11-.38a2.47,2.47,0,0,0,.5-.36,2,2,0,0,1,1.09-.07,1.28,1.28,0,0,0,1.36-.61l.34.12a4.28,4.28,0,0,0,.74.93.34.34,0,0,1,.21.31c0,.17.29.45.63.61l.24.67a5.18,5.18,0,0,0-.11,1.51,1.48,1.48,0,0,1,.43.73,5.62,5.62,0,0,1,0,1.76.37.37,0,0,0-.27.19,3.45,3.45,0,0,1-.34.75.35.35,0,0,0-.21.32c0,.17.05.31.11.31h.33c.07,0-.42.51-.4.75a2,2,0,0,1-.12.8c-.06,0-.21,0-.21.11s.05.2.11.2a.65.65,0,0,1,.27.49c0,.27.54,1.38.89,1.37l.14.58c-.07.71-.21,1.23-.31,1.15s-.07.46,0,.46.22.18.24.4a4.49,4.49,0,0,0,.4,1.16c.06,0,.12.25,0,.56a3.35,3.35,0,0,0,0,1.31c.06,0,.21.14.21.31s.05.31.1.31a1.32,1.32,0,0,1,.09.9l.13.35a4.56,4.56,0,0,1,.95.72.33.33,0,0,0,.31.2c.17,0,.14.27-.06.6l.07,0c.34,0,.63.13.63.3a.31.31,0,0,0,.32.31c.17,0,.48-.34.69-.74s-.29-.26-.17-.32,0-.82,0-.82a.37.37,0,0,1-.26-.25,2.26,2.26,0,0,0-.37-.68c-.06,0-.21,0-.2-.08s.28-.4.27-.61.07-.55.12-.55.1-.1,0-.21a2,2,0,0,1,0-1,.34.34,0,0,0,.2-.31c0-.17,0-.31.11-.31s.06-.28-.12-.62c-.17-.93.3-.63.3-.63l.11-.49c-.07-.58-.13-1.15-.12-1.26s0-.16,0-.22v-.84a1.07,1.07,0,0,1,.14-.61c.08-.18.07-.36,0-.41s-.38-.35-.3-.51a1,1,0,0,1,.26-.36c.06,0-.33-.37-.24-.48s.09-.43,0-.43-.09-.19,0-.42a.42.42,0,0,0-.05-.52,1.12,1.12,0,0,1-.25-.73,5.64,5.64,0,0,1,.12-1.44.33.33,0,0,0,.2-.31c0-.17,0-.31.1-.31s.2-.26.2-.57-.08-.62-.18-.55-.09-.43,0-.43.2-.2.2-.45.18-.69.41-.57l-.11-.54c-.35,0-.65-.13-.69-.3a3.93,3.93,0,0,0-.36-.93c-.06,0-.2,0-.19-.08a2.25,2.25,0,0,0,.25-.86,4.34,4.34,0,0,1,.13-1.23c.06,0,.17,0,.12-.1a3.47,3.47,0,0,1-.67-1.51,10.09,10.09,0,0,1,.2-2.43c.06,0,.2-.17.18-.38s.07-.56.13-.56.2,0,.2-.09a6.76,6.76,0,0,1-.59-1.23c-.15-.55.57-.91.57-1a.32.32,0,0,0-.27-.22c-.14,0,0-.61.05-.61a.34.34,0,0,0,.2-.31c0-.17.28-.31.62-.32a8.6,8.6,0,0,0,.3-.94c.16-.17.83-.23.93-.32a1.24,1.24,0,0,1,.46-.94"/><path class="a" d="M85.16,109.25a10.3,10.3,0,0,1,1,.3l.18,0c.41,0,.75,0,.75.06a.34.34,0,0,0,.32.2c.17,0,.31,0,.31.11s.28.2.62.2l.27.25a3.43,3.43,0,0,0,.17,1.24c.06,0,.38.06.21.45l.62-.1s.25-.87.93-.63c0,.34.14.62.32.62s.31,0,.31.1a.35.35,0,0,0,.19.26,3.27,3.27,0,0,1,.76.36.83.83,0,0,0,.62.2L93,113a2,2,0,0,0,.18.86c.06,0,.21,0,.21.1a4.69,4.69,0,0,0,1,1c.53.43.57,2.33.51,2.33a.39.39,0,0,0-.26.25,2.2,2.2,0,0,1-.36.69c-.06,0-.08.15.08.34a1.83,1.83,0,0,1,.25.91c-.05,0-.2.23-.18.51a3.51,3.51,0,0,1-.11,1.06c-.06,0-.13.06,0,.13a1.44,1.44,0,0,1,0,.8.5.5,0,0,0-.2.44c0,.24,0,.49-.1.49s-.21.05-.21.11,0,.47.1.79,0,.69-.22.73l.14.56.63.3c.14.36-.14.56,0,.93,0,.09.57.24.62.3,0,.34.06.62.11.62a.34.34,0,0,1,.25.24,2.17,2.17,0,0,0,.38.68.34.34,0,0,1,.21.31c0,.17.05.31.11.31a1.43,1.43,0,0,1,0,.93l.17.31a1.77,1.77,0,0,1,.63.41c0,.06.28.2.62.2l.26.56c0,.72,0,1.24-.13,1.17s-.06.45,0,.45.23.29.26.63a7.14,7.14,0,0,1,.1,1.6,3.26,3.26,0,0,0-.74.37c0,.06-.27.21-.62.21l-.22.36a4,4,0,0,1,.14,1.2.28.28,0,0,0-.18.28,1.42,1.42,0,0,1-.13.66,1.72,1.72,0,0,0,0,1l-.15.25c-.34,0-.62.15-.62.32s-.46.26-1,.18l-.23.14c-.33.51-.75.94-.92.95a.31.31,0,0,0-.31.31c0,.17-.28.32-.62.32-.12.25.17.72,0,.93l-.08.09c-.3.12-.54.28-.54.34a.34.34,0,0,1-.31.21c-.17,0-.32,0-.32.11s-.28.2-.62.21c-.67-.23.73-.4-.31-.31,0,0,0,.48-.62.32,0-.34-.15-.62-.32-.62s-.31.05-.31.11a3,3,0,0,1-1.36-.17l-.2.08c-.48.17.59.49-.3.31-.44-.09.55-.64-.32-.3l-.07,0c-.13.33-.38.61-.55.61s-.29.41-.25.9l0,0-.61.38c-1,0-1.88-.18-1.88-.35a.31.31,0,0,0-.32-.31c-.17,0-.39-.39-.49-.88l-.14,0c-.63-.22-.62.32-.62.32l-.5.12a3,3,0,0,1-1.05-.21.39.39,0,0,0-.38-.19c-.21,0-.56-.06-.56-.11a.35.35,0,0,0-.31-.21.31.31,0,0,1-.32-.31c0-.17,0-.31-.11-.31a.34.34,0,0,1-.21-.31c0-.17-.28-.31-.63-.31-.25-.75.36-.86.3-1.25a1.3,1.3,0,0,1-.64-1.07,7.3,7.3,0,0,1,.09-1.41c.06,0,.21,0,.21-.1a1.9,1.9,0,0,0-.57-.61l.57.09.28,0c-.33-.53-.68-1.11-.78-1.28s.47-.27.45-.61,0-.64-.08-.64a2.36,2.36,0,0,1-.12-1.2c.05-.66.19.06.17-.19s0-.48-.08-.48a6.11,6.11,0,0,1-.46-1.82l.23-.67c.34-.34.57-.63.51-.63s-.2-.16-.19-.38-.07-.56-.12-.56a.54.54,0,0,1-.27-.41c0-.23-.18-1.08-.06-1s.27-.42.47-.4-.11-.34-.17-.34-.21,0-.21-.1a5.46,5.46,0,0,0-.09-.63,4.93,4.93,0,0,1-.13-1.14c.06,0-.13,0-.53-.11s1-.55,1-1a11.39,11.39,0,0,0-.09-1.48c-.07,0-.5-.38-.5-.55s0-.31.1-.31a1,1,0,0,0,.1-.76,9.12,9.12,0,0,0-.38-1.73c-.09,0,1.09-.15,1.09-.32a.74.74,0,0,0-.16-.46c-.09-.09-.11-.16-.05-.16s.2-.05.2-.11a.78.78,0,0,0-.16-.36c-.09-.09-.11-.16,0-.16a.85.85,0,0,0,.26-.6,9.17,9.17,0,0,1,.34-1.59c.06,0,.11-.08,0-.18s-.06-.45,0-.45a3.3,3.3,0,0,0,.49-1.25h0v0a4.29,4.29,0,0,0,.92-.7c0-.06.14-.17.31-.12a.91.91,0,0,0,.62-.21.86.86,0,0,1,.21-.4,8,8,0,0,0,.71-.54,4,4,0,0,1,1.55-.23l.62-.32c.18-.1.17-.85.3-.94l.15-.11c.43.06.79,0,.79-.21a.35.35,0,0,1,.2-.32"/><path class="b" d="M85.34,115.79l.4,0c.12-.19.22-.06.23.29l.65.21a4.1,4.1,0,0,1,1.54.29c0,.06.27.21.59.34l0,.07v.62l.28.27c.53.19.95,1.63,1,2.17a4.41,4.41,0,0,1-.34,1.24s0,.21,0,.26.12.1-.23.1c-.23.56.07.88-.3,1.25a.81.81,0,0,0-.62.21c0,.06-.17.14-.38.19l-.24.24-.29.26c0,.37-.15.67-.32.67a.35.35,0,0,0-.31.22,1.25,1.25,0,0,1-.74.17.85.85,0,0,0-.76.55l0,0c-.78.19.31,0-.22.1l-.29-.12c0,.34-.65.26-.12.33,0,0,.66.13-.61-.29a.73.73,0,0,0-.94.32c-.64,0-.52-.4-.94-.3-.17.18-.59,0-.94-.3l-.17-.46a2,2,0,0,0-.05-1.09c-.06,0-.11-.43-.12-.61a.37.37,0,0,1,.21-.33c.06,0,.1-.14.1-.31a.34.34,0,0,1,.2-.31,2.72,2.72,0,0,0,0-1.18c-.12-.21-.05-.38,0-.38s.1-.14.1-.31-.43-.41.1-.41h0a.2.2,0,0,1-.07-.35c0-.27.11-.49.16-.49a1.4,1.4,0,0,0,.41-.47,1.35,1.35,0,0,1,.51-.47c.06,0,.1-.14.1-.31s0-.46.2-.23a.66.66,0,0,1,.08-.33c.22-.51.47,0,.23-.35l.11,0,.33-.11c.51.06.63-.24.6-.92a2.31,2.31,0,0,1,.31-.23c.35-.15.62.31.62.31"/><path class="b" d="M85.81,130.12l.54.12a1.7,1.7,0,0,1,1,.07c0,.05.25-.12.56-.4l.68.18a1.73,1.73,0,0,0,1.1.77c.43.08.78.29.78.46a.34.34,0,0,0,.22.31,10.56,10.56,0,0,1,.12,1.67,1.26,1.26,0,0,0,.22.82.23.23,0,0,1,.05.36c-.14.15-.1.27,0,.27s.1.14.11.31.31.49.31.54-.14.08-.2.08-.11.14-.1.31a.33.33,0,0,1-.2.32c-.06,0-.14.35-.13.56a.32.32,0,0,1-.28.38.35.35,0,0,0-.31.22,2.78,2.78,0,0,1-1.06.18c-.28,0-.5.1-.5.15s-.14.1-.31.1a.34.34,0,0,0-.31.21c0,.06-.33,0-.66,0s-.59,0-.59.05a4.92,4.92,0,0,1-1.24.14c-.35,0-.63.14-.63.2s-.28,0-.63-.2a4.9,4.9,0,0,0-1.87,0c-1,.36-.35.15-.35.15.39,0,0,0,0-.14a.33.33,0,0,0-.21-.31c-.06,0-.13-.7,0-.79s.06-.15,0-.15-.11-.14-.11-.31a.34.34,0,0,0-.21-.31c-.06,0,.13-.16.41-.36l-.22-.57-.94-.61c-.11-1,.53-.64.61-.94l.22-.88c-.3-.54-.27-1,.07-1,.18-.07.2-.86.3-.94a1.12,1.12,0,0,0,.91-.63h0c.34,0,.62-.15.62-.21a3.54,3.54,0,0,1,1-.12c.31,0,.55-.15.55-.21s.26,0,.57.18Z"/><path class="a" d="M206.39,107a2.79,2.79,0,1,1-2.78,2.78,2.79,2.79,0,0,1,2.78-2.78m0,5a2.17,2.17,0,1,0-2.17-2.17,2.17,2.17,0,0,0,2.17,2.17m-.15-1.92h-.39v1.29h-.62V108.2h1.18c.78,0,1.22.25,1.22.92a.8.8,0,0,1-.81.87l.81,1.32H207Zm.17-.45c.39,0,.61-.14.61-.45s-.26-.4-.52-.4h-.64v.85Z"/></svg>