<svg xmlns="http://www.w3.org/2000/svg" viewBox="0 0 250 250"><title>Casual dining</title><path d="M42.6,147.65a.4.4,0,0,1-.26-.22c2.06-1.22,1.7-3.93-.45-4.92a4.43,4.43,0,0,0-1.84-.43c-1.47,0-2.94,0-4.41,0-.39,0-.5.12-.49.5,0,2.15,0,4.31,0,6.46,0,1.25,0,2.5,0,3.75,0,.32,0,.49.43.48,1.71,0,3.43,0,5.14,0a3.92,3.92,0,0,0,2.13-.71C44.68,151.29,44.43,148.39,42.6,147.65Zm-4.16-3.47a12.48,12.48,0,0,1,1.76.06,1.75,1.75,0,0,1,.63.18.91.91,0,0,1,.47.92.89.89,0,0,1-.61.83,5.21,5.21,0,0,1-1.76.16c-.39,0-.92.17-1.19-.08s-.11-.83-.11-1.26C37.62,144.08,37.51,144.18,38.44,144.17ZM40.77,151a4,4,0,0,1-1.44.18,5.61,5.61,0,0,1-1.66-.09,8.8,8.8,0,0,1,0-1.6c0-1,0-1,1-1h.44v0a14.24,14.24,0,0,1,1.46.13,1.2,1.2,0,0,1,1.1.92A1.16,1.16,0,0,1,40.77,151Z" style="fill:#120c17"/><path d="M22,148.28A3,3,0,0,0,23.91,145a3,3,0,0,0-2.48-2.8,5.62,5.62,0,0,0-1.24-.16c-1.47,0-2.94,0-4.41,0-.4,0-.49.13-.49.5,0,1.4,0,2.79,0,4.19q0,3,0,6c0,.53,0,.54.5.54s1,0,1.47,0,.49-.15.48-.51c0-1.13,0-2.25,0-3.38,0-.56,0-.56.55-.57a1.23,1.23,0,0,0,.22,0c.61-.12.91.18,1.16.71.54,1.12,1.13,2.22,1.71,3.33.09.16.12.41.37.41h2.37l-2.42-4.79Zm-1.66-1.66c-.41,0-.83,0-1.24,0s-1,.24-1.33-.09-.07-.84-.07-1.28c0-1.08,0-1.09,1.07-1.08a9.75,9.75,0,0,1,1.61.06,1.09,1.09,0,0,1,1.05,1.24A1.07,1.07,0,0,1,20.39,146.61Z" style="fill:#120c17"/><path d="M147.88,142.06h-3.3c-.74,0-.68-.07-.68.66q0,2.42,0,4.85t0,5.07c0,.59-.09.61.58.61h3.45a6.81,6.81,0,0,0,1.53-.17A4.42,4.42,0,0,0,153,149.7a7.79,7.79,0,0,0,.24-2.69C153,143.76,151.14,142.08,147.88,142.06Zm2.81,7.16a2.1,2.1,0,0,1-1.81,1.77,9,9,0,0,1-2,.15c-.52,0-.53,0-.54-.52,0-1,0-2,0-3s0-1.91,0-2.86c0-.58,0-.6.62-.58a8.9,8.9,0,0,1,2.11.2,2,2,0,0,1,1.58,1.65A8,8,0,0,1,150.69,149.23Z" style="fill:#120c17"/><path d="M122.61,141.95a4.63,4.63,0,0,0-4.55,2.88,6.76,6.76,0,0,0,0,5.63,4.62,4.62,0,0,0,4.54,2.9,4.69,4.69,0,0,0,4.56-2.87,6.43,6.43,0,0,0,.58-2.58,7.24,7.24,0,0,0-.6-3.12A4.7,4.7,0,0,0,122.61,141.95Zm2.34,7.68a2.39,2.39,0,0,1-2.37,1.63,2.35,2.35,0,0,1-2.32-1.59,5.78,5.78,0,0,1,0-4,2.31,2.31,0,0,1,2.39-1.58,2.34,2.34,0,0,1,2.3,1.6,5.17,5.17,0,0,1,.31,2A5,5,0,0,1,124.95,149.63Z" style="fill:#120c17"/><path d="M135.6,141.94a4.85,4.85,0,0,0-5,3.63,7.23,7.23,0,0,0,.07,4.41,5,5,0,0,0,9.48.05,6.44,6.44,0,0,0,.37-2.39,6.31,6.31,0,0,0-.17-1.66A4.92,4.92,0,0,0,135.6,141.94Zm2.15,7.75a2.37,2.37,0,0,1-2.33,1.57,2.31,2.31,0,0,1-2.29-1.51,5.61,5.61,0,0,1,0-4.15,2.29,2.29,0,0,1,2.35-1.52,2.33,2.33,0,0,1,2.28,1.52,5.9,5.9,0,0,1,.36,2.08A6,6,0,0,1,137.75,149.69Z" style="fill:#120c17"/><path d="M221.65,147.11c-.37-.58-.36-.44.07-.91l3.23-3.61.44-.52c-.87,0-1.59,0-2.32,0a.94.94,0,0,0-.81.38c-.76.87-1.53,1.71-2.31,2.56-.32.35-.65.7-1.08,1.15,0-.25,0-.36,0-.47,0-1.05,0-2.1,0-3.16,0-.35-.1-.48-.46-.46s-1,0-1.47,0-.54,0-.54.58q0,2.64,0,5.29c0,1.59,0,3.18,0,4.77,0,.53,0,.53.5.54s1,0,1.47,0,.51-.08.5-.49c0-1,0-2,0-2.93a1.54,1.54,0,0,1,.86-1.46l.23.35,2.68,4.12c.13.2.22.43.54.42.77,0,1.55,0,2.35,0a1.41,1.41,0,0,0-.34-.7Z" style="fill:#120c17"/><path d="M176.06,146.79a16.07,16.07,0,0,0-2.33-.64,4.94,4.94,0,0,1-1.52-.51.87.87,0,0,1,0-1.51,1.47,1.47,0,0,1,.77-.22,4.08,4.08,0,0,1,2.46.58c.32.21.64.43,1,.67l1.18-2a8.54,8.54,0,0,0-3.5-1.22,5.29,5.29,0,0,0-3.45.7c-1.5,1-2.18,4,.36,5.09a8,8,0,0,0,1.1.41c.66.18,1.33.32,2,.5a5.71,5.71,0,0,1,1.1.38,1,1,0,0,1,.12,1.79,1.66,1.66,0,0,1-.67.29,5,5,0,0,1-3.42-.43c-.38-.2-.73-.45-1.12-.7-.28.58-.53,1.14-.82,1.67-.15.28-.11.42.17.57a8.62,8.62,0,0,0,3.25,1.09,6.32,6.32,0,0,0,3.5-.57,3.3,3.3,0,0,0,2-2.42A3,3,0,0,0,176.06,146.79Z" style="fill:#120c17"/><path d="M79.38,147a11.15,11.15,0,0,0-2.08-.69,12.09,12.09,0,0,1-2-.54c-.56-.24-.74-.52-.68-1a1,1,0,0,1,.9-.83,4.37,4.37,0,0,1,1.67.09,5.28,5.28,0,0,1,2.06,1.13l1.18-2a8.12,8.12,0,0,0-4.09-1.26,5.07,5.07,0,0,0-2.55.55,3.14,3.14,0,0,0-1.51,3.63,2.92,2.92,0,0,0,1.9,1.8,14.44,14.44,0,0,0,2.19.6,9.22,9.22,0,0,1,1.54.46,1,1,0,0,1,.71.93A1.12,1.12,0,0,1,78,151a2,2,0,0,1-.55.19,5.06,5.06,0,0,1-4-.83c-.15-.11-.27-.28-.51-.27-.27.57-.54,1.14-.83,1.71-.12.23-.07.34.15.46a7.66,7.66,0,0,0,5.72,1,4.38,4.38,0,0,0,2.37-1.38A3.07,3.07,0,0,0,79.38,147Z" style="fill:#120c17"/><path d="M235.52,147a8.9,8.9,0,0,0-1.38-.49l-1.78-.43a4.4,4.4,0,0,1-1-.37.8.8,0,0,1-.48-.76.91.91,0,0,1,.52-.83,2.09,2.09,0,0,1,1-.18,4.31,4.31,0,0,1,2.6.87c.17.12.3.32.57.34a22.3,22.3,0,0,0,1.13-1.94c-.34-.17-.61-.33-.9-.46a7.15,7.15,0,0,0-4.49-.65,3.32,3.32,0,0,0-2.56,1.86,2.73,2.73,0,0,0,1.28,3.79,7,7,0,0,0,1.44.52,24,24,0,0,1,2.62.7c.46.18.83.43.84,1A1.15,1.15,0,0,1,234,151a4.39,4.39,0,0,1-1.81.19,5.25,5.25,0,0,1-3-1.27c-.31.64-.57,1.19-.85,1.73-.12.24-.13.38.14.53a7.92,7.92,0,0,0,4.71,1.11,5.23,5.23,0,0,0,3.07-1.24A3.1,3.1,0,0,0,235.52,147Z" style="fill:#120c17"/><path d="M54.06,146.76a23.59,23.59,0,0,0-2.62-.7,4.26,4.26,0,0,1-1.1-.39.87.87,0,0,1,0-1.58,1.72,1.72,0,0,1,.85-.18,4.34,4.34,0,0,1,2.75.86c.17.13.3.31.56.37.33-.54.65-1.09,1-1.63.16-.26.08-.38-.16-.51a8,8,0,0,0-3.92-1.06,4.83,4.83,0,0,0-2.4.56,3.06,3.06,0,0,0-1.61,2.92,2.61,2.61,0,0,0,1.77,2.39,6.85,6.85,0,0,0,1.17.41l1.85.45a4.37,4.37,0,0,1,1.1.39,1,1,0,0,1,.12,1.76,1.81,1.81,0,0,1-.8.34,5.06,5.06,0,0,1-4-.85.94.94,0,0,0-.48-.27l-1,2a8.58,8.58,0,0,0,3.69,1.3,6,6,0,0,0,3.93-.89,3.25,3.25,0,0,0,1.32-3.8A3.19,3.19,0,0,0,54.06,146.76Z" style="fill:#120c17"/><path d="M102.67,147c-.51-1.5-1-3-1.54-4.5-.11-.33-.26-.47-.62-.44a7.81,7.81,0,0,1-1.32,0c-.41,0-.6.11-.73.51-.44,1.37-.92,2.73-1.39,4.09l-2.25,6.59c.68,0,1.26,0,1.85,0a.45.45,0,0,0,.51-.39c.2-.65.46-1.29.65-1.94a.5.5,0,0,1,.56-.43c.86,0,1.71,0,2.57,0a.51.51,0,0,1,.58.42c.22.67.48,1.33.71,2,.07.2.14.34.39.34h2.15l-.14-.42Zm-4.06,1.64,1-3.31.11,0,1,3.29Z" style="fill:#120c17"/><path d="M211.43,146.87c-.5-1.46-1-2.91-1.49-4.37a.53.53,0,0,0-.62-.44c-.41,0-.83,0-1.25,0-.74,0-.58-.1-.81.57q-1.64,4.75-3.24,9.5a3.76,3.76,0,0,0-.33,1.11c.64,0,1.27,0,1.9,0,.25,0,.32-.14.39-.34.21-.63.45-1.24.63-1.87.11-.39.27-.57.71-.55.81,0,1.62,0,2.42,0a.54.54,0,0,1,.63.45c.2.65.46,1.29.68,1.93.08.23.17.38.45.38.68,0,1.36,0,2,0a.57.57,0,0,0-.06-.48Zm-4,1.77,1.07-3.47,1.1,3.47Z" style="fill:#120c17"/><path d="M91.72,151.42c0-.18-.09-.27-.26-.27h-.51c-1.2,0-2.4,0-3.6,0-.39,0-.51-.13-.49-.5,0-.56,0-1.13,0-1.69,0-.33.13-.42.43-.41.61,0,1.22,0,1.84,0,.26,0,.41-.06.4-.37a12.85,12.85,0,0,1,0-1.32c0-.33-.11-.43-.42-.42-.61,0-1.22,0-1.84,0-.33,0-.42-.12-.41-.43,0-.49,0-1,0-1.47,0-.27.07-.42.37-.4.15,0,.29,0,.44,0,1.1,0,2.2,0,3.3,0,.33,0,.5-.06.47-.44a8.11,8.11,0,0,1,0-1.17c0-.36-.07-.51-.48-.51-2,0-4,0-6,0-.52,0-.53,0-.53.52,0,1.69,0,3.38,0,5.07s0,3.38,0,5.07c0,.51,0,.52.53.52,1.74,0,3.48,0,5.21,0,.51,0,1.18.23,1.47-.11s.07-1,.1-1.56C91.73,151.52,91.72,151.47,91.72,151.42Z" style="fill:#120c17"/><path d="M200.56,151.47c0-.21-.07-.32-.3-.32h-.51c-1.2,0-2.4,0-3.6,0-.33,0-.5-.08-.48-.45s0-.73,0-1.1c0-1,0-1,1-1.05a4.49,4.49,0,0,0,1.59-.09c0-.54,0-1.07,0-1.61,0-.34-.14-.41-.44-.4-.54,0-1.08,0-1.61,0s-.61,0-.62-.58c0-.34,0-.69,0-1,0-.67,0-.68.68-.68,1.15,0,2.3,0,3.45,0,.34,0,.5-.09.48-.45s0-.73,0-1.1c0-.55,0-.56-.56-.56h-5.87c-.62,0-.58,0-.58.61q0,2.5,0,5t0,5c0,.63,0,.58.6.58,1.71,0,3.43,0,5.14,0,.5,0,1.18.23,1.46-.12s.07-1,.09-1.57C200.56,151.52,200.56,151.49,200.56,151.47Z" style="fill:#120c17"/><path d="M114.23,142.05c-2,0-4,0-5.94,0-.51,0-.52,0-.52.53,0,1.69,0,3.38,0,5.06q0,1.32,0,2.64c0,.86,0,1.71,0,2.57,0,.22,0,.38.31.38h1.83c.21,0,.32-.08.31-.3s0-.34,0-.51c0-1.15,0-2.3,0-3.45,0-.31.1-.44.42-.43.51,0,1,0,1.54,0,1,0,1,0,1-1,0-1.13,0-1.12-1.17-1.14a8.89,8.89,0,0,1-1.67,0,8.13,8.13,0,0,1-.08-1.81c0-.3.07-.47.41-.43.15,0,.29,0,.44,0,1.05,0,2.1,0,3.16,0,.33,0,.5-.07.47-.44a8.77,8.77,0,0,1,0-1.25C114.73,142.12,114.56,142.05,114.23,142.05Z" style="fill:#120c17"/><path d="M188.89,142.78c0-.8.08-.72-.69-.72-1.64,0-3.28,0-4.92,0a4.34,4.34,0,0,0-1.58.09l0,1.61s0,0,0,.07c0,.26.11.34.35.33.51,0,1,0,1.54,0s.51.11.5.5c0,1.35,0,2.69,0,4s0,2.74,0,4.11c0,.31.07.44.41.43.54,0,1.08,0,1.62,0,.36,0,.45-.12.45-.47,0-1.4,0-2.79,0-4.19s0-2.64,0-4c0-.35.1-.48.46-.46s1,0,1.47,0c.33,0,.51-.06.47-.44S188.89,143.1,188.89,142.78Z" style="fill:#120c17"/><path d="M30.09,142.06c-.49,0-1,0-1.47,0-.27,0-.4.06-.4.36q0,5.24,0,10.49c0,.26.11.34.35.33h1.61c.5,0,.5,0,.51-.54,0-1.69,0-3.37,0-5.06s0-3.32,0-5C30.69,142.07,30.69,142.07,30.09,142.06Z" style="fill:#130c18"/><path d="M65.56,145.61H63.22c-.29,0-.46.08-.45.41,0,.81,0,1.61,0,2.42,0,.32.15.43.45.42h2.35c.3,0,.45-.09.45-.42q0-1.21,0-2.42C66,145.7,65.86,145.61,65.56,145.61Z" style="fill:#e1a062"/><path d="M162.05,145.61h-2.49c-.24,0-.36.11-.36.35,0,.85,0,1.71,0,2.56a.28.28,0,0,0,.31.32h2.56a.31.31,0,0,0,.36-.36c0-.42,0-.83,0-1.25h0c0-.42,0-.83,0-1.25S162.33,145.61,162.05,145.61Z" style="fill:#e1a062"/><path d="M240.65,104a2.39,2.39,0,1,0,0,4.77,2.38,2.38,0,0,0,0-4.77Zm0,4.38a1.92,1.92,0,0,1-1.94-2,1.92,1.92,0,1,1,3.85,0A1.94,1.94,0,0,1,240.62,108.38Z" style="fill:#a01d21"/><path d="M241.66,105.56c-.09-.42-.42-.5-.78-.53s-.59,0-.88,0-.3,0-.3.22q0,1.17,0,2.34a.17.17,0,0,0,.17.19.18.18,0,0,0,.2-.17c0-.24,0-.49,0-.73a.28.28,0,0,1,.46-.21,1.48,1.48,0,0,1,.26.35c.13.2.25.42.39.62s.23.22.37.11,0-.22,0-.31l-.51-.81.22-.13A.79.79,0,0,0,241.66,105.56Zm-1.15.65c-.26,0-.42,0-.41-.39s.07-.49.46-.46.62,0,.66.41S241,106.21,240.51,106.21Z" style="fill:#a31e23"/><path d="M109.11,97.85s0,.1,0,.15a.3.3,0,0,0,.29.35l.44.06a2.84,2.84,0,0,1,2.61,2.48,12.76,12.76,0,0,1,.26,2.7q0,10.55,0,21.09a11.86,11.86,0,0,1-.16,1.9,2.2,2.2,0,0,1-1.74,2.11.35.35,0,0,0-.32.41c0,.15,0,.29,0,.44,0,.67,0,.6.59.6h9c.1,0,.22,0,.22-.14a4.19,4.19,0,0,0,0-1c-.06-.28-.39-.22-.62-.29a1.7,1.7,0,0,1-1.28-1.28,10.54,10.54,0,0,1-.26-2.62c0-2.5,0-5,0-7.5,0-.49,0-1,0-1.47,0-.14,0-.33.17-.34a7.55,7.55,0,0,1,1.32,0c.31,0,.41.39.58.62q7.62,10.31,15.22,20.63a1.16,1.16,0,0,0,1.08.57c1.27,0,2.55,0,3.82,0l95.24,0c.45,0,1,.22,1.33-.13s.09-.85.08-1.28c0-1.17.18-1-1-1q-45.12,0-90.24,0a6.09,6.09,0,0,1-3.7-1.12c-.4-.28-.81-.56-1.19-.86a58.11,58.11,0,0,1-7.5-7.34c-2.48-2.81-4.79-5.76-7.18-8.65l-1.18-1.44c.82-.17,1.53-.24,2.21-.43a9.64,9.64,0,0,0,6-4.19,9.43,9.43,0,0,0,.88-7.93,8.14,8.14,0,0,0-5.57-5.68,13.52,13.52,0,0,0-4.34-.6c-4.65,0-9.31,0-14,0C108.89,96.65,109.13,96.35,109.11,97.85Zm9.08,13.92v-5.72q0-3.16,0-6.31c0-.59,0-.6.6-.59a32,32,0,0,1,3.88.11,6.22,6.22,0,0,1,5.53,5.51,8.74,8.74,0,0,1-.08,3.06,6.08,6.08,0,0,1-5.07,4.95,27.56,27.56,0,0,1-4.54.17c-.27,0-.33-.14-.32-.37S118.19,112,118.19,111.77Z" style="fill:#9e1d21"/><path d="M164.77,106.05a1.87,1.87,0,0,1,1.3,1.47,6.12,6.12,0,0,1,.2,1.52c.11,5.46.07,10.92,0,16.39a7.7,7.7,0,0,1-.2,2,1.63,1.63,0,0,1-1.08,1.2c-.67.24-.65.25-.65,1,0,.37.1.52.5.52,1.89,0,3.77,0,5.66,0,.3,0,.47-.07.44-.41a1.44,1.44,0,0,1,0-.37c.06-.41-.09-.6-.52-.69a1.74,1.74,0,0,1-1.36-1.39,6.54,6.54,0,0,1-.21-1.52c-.1-4.46,0-8.92,0-13.37,0-.11,0-.24.1-.34.21.15.25.4.33.61L175.35,127c.48,1.13,1,2.25,1.43,3.38a.6.6,0,0,0,.65.44c.74,0,.74,0,1-.71l5.1-12.1,2.39-5.66h.13c0,.14,0,.28,0,.43,0,1.74,0,3.48,0,5.22,0,2.52,0,5,0,7.57a7,7,0,0,1-.24,1.52,2,2,0,0,1-1.57,1.56c-.39.08-.52.24-.51.63,0,.82,0,.82.78.82h15.58c.81,0,.78,0,.8-.79,0-.4-.16-.52-.5-.55a4.12,4.12,0,0,1-.44-.06c-1.35-.28-1.76-.94-1.42-2.27,0,0,0-.1,0-.14.43-1.25.86-2.5,1.28-3.75a.51.51,0,0,1,.58-.41q4.26,0,8.52,0a.56.56,0,0,1,.62.46c.42,1.25.87,2.49,1.31,3.74a3.08,3.08,0,0,1,.14.57,1.32,1.32,0,0,1-1,1.69,1.19,1.19,0,0,1-.35.11c-.42,0-.52.22-.51.61,0,.81,0,.81.78.81h9.92c.1,0,.22,0,.23-.14a2.19,2.19,0,0,0,0-1c-.08-.23-.37-.18-.58-.22a3.33,3.33,0,0,1-2.36-1.59,12.2,12.2,0,0,1-.83-1.63c-2.94-6.83-5.91-13.65-8.8-20.49-.39-.91-.83-1.27-1.81-1.17a1,1,0,0,0-1,.69q-4.3,10.09-8.64,20.16-.52,1.21-1.1,2.4a2.74,2.74,0,0,1-1,1.16,1.41,1.41,0,0,1-2.21-.73,4.35,4.35,0,0,1-.27-1.51c-.14-5.51-.08-11,0-16.53a9.28,9.28,0,0,1,.16-1.83,1.88,1.88,0,0,1,1.53-1.66c.35-.07.44-.23.41-.55a2.11,2.11,0,0,1,0-.44c0-.31-.09-.43-.41-.43q-3,0-6.1,0a.52.52,0,0,0-.59.42,4.47,4.47,0,0,1-.2.47l-6.94,16.34c-.1.23-.12.51-.39.66l-.22-.5q-3.69-8.36-7.37-16.72a.93.93,0,0,0-1-.68c-1.74,0-3.48,0-5.22,0-.89,0-.76-.07-.77.8a.56.56,0,0,1,0,.07A.5.5,0,0,0,164.77,106.05Zm39.89,6a63.83,63.83,0,0,1,3.34,7.61h-6.08l-.46,0C202.49,117,203.61,114.56,204.66,112Z" style="fill:#9e1d21"/><path d="M56.64,106.05a1.42,1.42,0,0,1,1,1.09,5.92,5.92,0,0,1,.19,1.67q.1,8.49,0,17a6.78,6.78,0,0,1-.14,1.46,1.6,1.6,0,0,1-1.18,1.36.42.42,0,0,0-.36.52c0,.12,0,.24,0,.37,0,.55,0,.56.57.57H62c.63,0,.63,0,.64-.64,0-.12,0-.25,0-.37a.33.33,0,0,0-.3-.41,1.89,1.89,0,0,1-1.49-1.85,14.8,14.8,0,0,1-.13-2.05q0-7.13,0-14.26a1,1,0,0,1,.09-.59l.46.56L72.61,125l4.16,5.33c.16.21.28.46.61.47.49,0,1,0,1.47.06.26,0,.35-.1.34-.35s0-.34,0-.51q0-5.4,0-10.8,0-5.11,0-10.21a6.56,6.56,0,0,1,.18-1.6A1.85,1.85,0,0,1,81.74,106a4.63,4.63,0,0,1,2.11,1.13A10.35,10.35,0,0,1,85.43,109l6.21,9.45a1.28,1.28,0,0,1,.24.75c0,2,0,3.92,0,5.88a6.91,6.91,0,0,1-.33,2.17,2,2,0,0,1-1.29,1.3c-.58.19-.58.2-.57.87s0,.64.63.64h8.6c.65,0,.65,0,.65-.7s0-.56-.56-.71a1.76,1.76,0,0,1-1.37-1.37,6.34,6.34,0,0,1-.16-1c-.17-2.32,0-4.65-.1-7a1.93,1.93,0,0,1,.35-1.16c1.75-2.66,3.49-5.32,5.23-8,.56-.86,1.13-1.72,1.71-2.57a3.8,3.8,0,0,1,2.93-1.72c.63-.06.63-.08.63-.7,0,0,0,0,0-.07,0-.53,0-.53-.51-.54h-6.47c-.19,0-.44-.1-.54.1a2.48,2.48,0,0,0-.06,1c0,.27.22.28.39.37.72.34.84.64.58,1.4a5.86,5.86,0,0,1-.65,1.23l-4.35,6.72c-.09.14-.13.32-.33.36,0,0-.1,0-.12-.08l-4.66-7a3.4,3.4,0,0,1-.43-.93,1.15,1.15,0,0,1,.68-1.57.67.67,0,0,0,.51-.75c0-1,.07-.83-.82-.83H75.55c-1,0-.87-.21-.9,1,0,.28.06.45.36.54a1.87,1.87,0,0,1,1.31,1.53,10.45,10.45,0,0,1,.25,2.48q0,5.51,0,11c0,.13.07.29-.09.39a2.2,2.2,0,0,1-.52-.6q-6-7.9-12-15.81a1.13,1.13,0,0,0-1-.52c-2,0-4.07,0-6.1,0H56.5c-.24,0-.37.07-.35.33a2,2,0,0,1,0,.44A.57.57,0,0,0,56.64,106.05Z" style="fill:#9e1d21"/><path d="M149.27,130.8a14.31,14.31,0,0,0,2.72-.26,13.74,13.74,0,0,0,8.77-5.56,12.51,12.51,0,0,0,1.36-13,14.05,14.05,0,0,0-15.6-7.88,13.53,13.53,0,0,0-9.4,6.55,12.25,12.25,0,0,0-.64,12.08C139,128,143.48,130.55,149.27,130.8Zm-7-19a9.12,9.12,0,0,1,1.54-2.89,6.66,6.66,0,0,1,5.68-2.49c3.68.1,5.71,2.4,6.73,5.36a17.57,17.57,0,0,1,.84,5.46,16.61,16.61,0,0,1-1.14,6.34,7.29,7.29,0,0,1-3.22,3.78,7.15,7.15,0,0,1-10.11-3.69,13.85,13.85,0,0,1-1-3.6A18.05,18.05,0,0,1,142.28,111.81Z" style="fill:#9e1d21"/><path d="M28.6,110.55a12.33,12.33,0,0,0-.11,13.31c2.69,4.59,6.9,6.75,12.17,6.93a13.21,13.21,0,0,0,2.78-.26,14.16,14.16,0,0,0,8.64-5.39,12.93,12.93,0,0,0,.12-15.47A13.79,13.79,0,0,0,38.7,104,13.25,13.25,0,0,0,28.6,110.55ZM34,111a7.28,7.28,0,0,1,3.36-3.83,7.13,7.13,0,0,1,9.55,2.93,13.12,13.12,0,0,1,1.37,4.38,18.12,18.12,0,0,1-.64,8.33,8.29,8.29,0,0,1-2.69,4,7.16,7.16,0,0,1-10.53-2.36,14,14,0,0,1-1.48-5.33c-.06-.61-.07-1.22-.09-1.64A16.55,16.55,0,0,1,34,111Z" style="fill:#9e1d21"/><path d="M16.11,137.29H132.5c-.53-.72-1-1.26-1.36-1.86a1.3,1.3,0,0,0-1.27-.62H15.59c-.28,0-.4.09-.39.38s0,.78,0,1.18C15.22,137.39,15.11,137.29,16.11,137.29Z" style="fill:#9e1d21"/><path d="M17,99.49c.75,0,.72-.06.71.72,0,.07,0,.15,0,.22q0,11.49,0,23,0,1.1,0,2.2a6,6,0,0,1-.31,1.73,2,2,0,0,1-1.23,1.27c-.65.24-.64.24-.64.9s-.06.64.64.64H25c.3,0,.38-.13.37-.4a2,2,0,0,1,0-.44c.06-.37-.12-.53-.47-.59a1.78,1.78,0,0,1-1.52-1.57,11.77,11.77,0,0,1-.17-2.49q0-12.23,0-24.46a1.79,1.79,0,0,0,0-.22c0-.38.11-.52.5-.51,1.25,0,2.5,0,3.75,0a20.23,20.23,0,0,1,2.12.14,2.79,2.79,0,0,1,2.56,2.17c.27,1,.31.94,1.3.92.34,0,.48-.08.45-.45-.12-1.76-.22-3.52-.31-5.28,0-.29-.13-.39-.4-.37s-.29,0-.44,0H7.35c-.09,1.52-.19,3-.27,4.4,0,.44,0,.88-.07,1.32,0,.14-.05.32.16.35a2.86,2.86,0,0,0,1.23,0c.26-.09.23-.46.31-.7s.14-.37.2-.55a2.49,2.49,0,0,1,2-1.69,11.4,11.4,0,0,1,1.53-.18C14,99.45,15.46,99.49,17,99.49Z" style="fill:#9e1d21"/><path d="M235.88,117.57a13.9,13.9,0,0,0-3.25-2.25c-1.39-.72-2.79-1.43-4.15-2.19a5.73,5.73,0,0,1-2.62-2.88,3.27,3.27,0,0,1,2.74-4.52,5.09,5.09,0,0,1,5.17,2.64,7.94,7.94,0,0,1,.94,2.53c.08.4.26.54.65.5.12,0,.24,0,.37,0,.54,0,.55,0,.56-.59,0-1,0-2.06,0-3.09s0-1.86,0-2.79.19-.9-1-.91a.48.48,0,0,0-.51.32,2.88,2.88,0,0,1-.29.51c-.52.74-.55.75-1.31.25a8.17,8.17,0,0,0-9.47.45,5.69,5.69,0,0,0-2.22,3.77,7.52,7.52,0,0,0,3.34,7.57,25.3,25.3,0,0,0,2.52,1.49c1.38.73,2.77,1.45,4.14,2.21a5.41,5.41,0,0,1,2.46,2.73,4,4,0,0,1-2.78,5.44,5.58,5.58,0,0,1-2.41,0,8.14,8.14,0,0,1-5.56-4.51c-.58-1.12-.57-1.12-1.81-1-.29,0-.39.13-.37.4,0,0,0,.1,0,.15q0,2.87,0,5.73c0,.57,0,.55.55.59s1.07,0,1.3-.64c0-.09.12-.15.18-.23A.65.65,0,0,1,224,129c.61.31,1.24.58,1.86.86a9.06,9.06,0,0,0,8.47-.15,7.25,7.25,0,0,0,4-7A7.34,7.34,0,0,0,235.88,117.57Z" style="fill:#9e1d21"/><path d="M216.3,104.15c.54.11.53.11.44.66a7,7,0,0,1-1.47,3.31c-.32.4-.62.81-.95,1.23.34.29.67.55,1,.82s.36.15.57,0a10.85,10.85,0,0,0,4.55-7.33,5.35,5.35,0,0,0-.39-3.16,3.42,3.42,0,0,0-3.83-1.9,3.31,3.31,0,0,0-2.49,3.23A3.25,3.25,0,0,0,216.3,104.15Z" style="fill:#9e1d21"/></svg>