<svg xmlns="http://www.w3.org/2000/svg" viewBox="0 0 250 250"><title>Grocery</title><path d="M79,150.1c-.77.89-1.93,1.33-2.62,2.31a1,1,0,0,1-1,.43,1.48,1.48,0,0,0-1.5.73c-.4.63-1.13.32-1.69.27a24.75,24.75,0,0,0-3-.22,4.07,4.07,0,0,1-3.43-1.81A8.18,8.18,0,0,1,64,146.35c.06-2.13,0-4.26,0-6.39,0-1.93.13-3.85.18-5.77,0-1.18,0-2.37.1-3.56.18-2.76.16-5.53.29-8.29.09-2,0-3.94.09-5.91a14.63,14.63,0,0,0,.14-1.93c-.24-2.25,0-4.51-.16-6.75-.09-1.39,0-2.77-.11-4.15-.14-2.22-.19-4.44-.27-6.66-.08-2-.24-4-.25-6.08,0-.43-.19-.67-.71-.62a26,26,0,0,0-11.91,4c-.18.12-.33.27-.5.4-1.55,1.2-3.1.59-4.54-.26A8.21,8.21,0,0,1,43,90.09a.61.61,0,0,1,0-.26,27.33,27.33,0,0,0-.27-4.38,30.42,30.42,0,0,1-.26-3.27,8.35,8.35,0,0,1,1.11-4.59c.08-.13,0-.34.08-.5.15-.4.2-.95.87-.76.26.07.22-.19.32-.28.48-.4.79-.38,1.14.14a1.32,1.32,0,0,0,1.18.63,45.6,45.6,0,0,0,5.63-.52c1.36-.17,2.73-.27,4.09-.4,1.64-.17,3.27-.36,4.91-.51.92-.08,1.85-.09,2.77-.12,2.21-.06,4.42-.1,6.62-.19C76,74.91,80.87,75,85.71,75c1.51,0,3,0,4.54.11,1.83.13,3.66.12,5.49.27,2.09.17,4.19.26,6.29.47,1.19.12,2.39.25,3.59.29a2.34,2.34,0,0,1,1.38.39.59.59,0,0,0,.35.12c1.19-.08,1.84.86,2.69,1.42a.58.58,0,0,1,.22.3c.19.7.56.47.92.18a30.1,30.1,0,0,1,5.06-3.17,25.21,25.21,0,0,1,8.13-2.75,17,17,0,0,1,6.33.29c.62.15,1.22.33,1.84.46a2.14,2.14,0,0,0,1-.09c.68-.18.83-.07.74.59s.27.73.73.68.82.15.73.74c-.06.39,0,.64.51.47s.85.2,1.15.45,1,.51,1.3,1c0,.06.18.12.22.09.86-.55,1.43.16,2,.5A5.32,5.32,0,0,1,143.07,80a1.69,1.69,0,0,1,.19,1.08,9.6,9.6,0,0,0-.15,1.92,1.63,1.63,0,0,1-.82,1.37c-.18.14-.27.18-.24.46a1,1,0,0,1-.73,1.13c-.55.14-.53.41-.25.78.9,1.21,1.85,2.38,2.72,3.61a43.73,43.73,0,0,1,4.31,7.54,32.18,32.18,0,0,1,1.83,5.39,36.18,36.18,0,0,1,.65,4.36,27.22,27.22,0,0,1-.07,4.58,34,34,0,0,1-1.18,7,34.74,34.74,0,0,1-2.71,7.08,36.37,36.37,0,0,1-4.14,6.33,34.17,34.17,0,0,1-7.48,6.81,32.19,32.19,0,0,1-10.11,4.44c-1.25.32-2.54.44-3.81.66a46.16,46.16,0,0,1-6.13,0c-1.06-.17-2.13-.31-3.19-.5a25.53,25.53,0,0,1-14.2-7.78,28,28,0,0,1-4-5.67,29.11,29.11,0,0,1-2.59-7,29.49,29.49,0,0,1-.78-6.41,38.29,38.29,0,0,1,.35-5.2,47.75,47.75,0,0,1,1-5.51A54.84,54.84,0,0,1,93.91,99a46,46,0,0,1,3.15-6.71,16.74,16.74,0,0,0,1.18-1.88,29.6,29.6,0,0,1-3.07-.25c-1.48-.14-3-.24-4.44-.26-2.61,0-5.22,0-7.82,0a1.92,1.92,0,0,1-1-.15c-.14,2,0,3.9-.14,5.82-.18,2.2.05,4.41-.14,6.62-.16,1.81,0,3.63-.12,5.45-.17,2.63.11,5.29-.16,7.92a15,15,0,0,0,.14,1.86c.06,2.88-.11,5.76.1,8.64.15,2,.07,4.11.11,6.16.06,4,.26,7.93.17,11.9,0,.13,0,.26,0,.39a1,1,0,0,0-.15.54,6.76,6.76,0,0,1-.89,2.74C80.27,148.6,79.58,149.33,79,150.1Zm29.6-30.61c.08.87.06,1.67.12,2.47a21,21,0,0,0,1.34,6.26,9.51,9.51,0,0,0,3.4,4.67,8.27,8.27,0,0,0,6.05,1.19,10.15,10.15,0,0,0,5.52-2.8,20.26,20.26,0,0,0,4.67-7,33.92,33.92,0,0,0,2.61-11,30.83,30.83,0,0,0,.09-4.83,41,41,0,0,0-1.08-7.12,21.35,21.35,0,0,0-6.11-10.55c-.92-.85-1-.87-2.12-.29l-.18.07a22.36,22.36,0,0,0-4,2.69,25.28,25.28,0,0,0-5.21,6.77,41,41,0,0,0-4.06,10.89A46.84,46.84,0,0,0,108.55,119.49Z" style="fill:#dc0028"/><path d="M79,150.1c.63-.77,1.32-1.51,1.86-2.33a6.76,6.76,0,0,0,.89-2.74,1,1,0,0,1,.15-.54h31.47l1.63,0a46.16,46.16,0,0,0,6.13,0l1.82,0h29.84a44.35,44.35,0,0,0,.55,4.91,2.65,2.65,0,0,0,1.58,2.28,3.89,3.89,0,0,1,1.46,1.14,2.27,2.27,0,0,0,2.45.56,3,3,0,0,1,1.92,0c.41.16.69-.11.64-.37-.17-.78.34-.6.73-.61a4.54,4.54,0,0,0,3.6-1.75.69.69,0,0,1,.59-.34,2.32,2.32,0,0,0,1.35-.5,2.92,2.92,0,0,0,1.61-3,21.17,21.17,0,0,1,0-2.41q18.44,0,36.89,0c.6,0,.79.1.79.76q0,15.77,0,31.55c0,.55-.1.72-.69.72q-63.25,0-126.51,0c-.6,0-.74-.15-.74-.74q0-12.94,0-25.87C79,150.62,79,150.36,79,150.1Zm70.22,18.12c-.75-.8-1.39-1.5-2-2.18-.33-.34-.43-.6,0-1a7.62,7.62,0,0,0,2-3.22c-.83,0-1.63,0-2.43,0a.48.48,0,0,0-.49.3,6.49,6.49,0,0,1-1.11,1.5l-1.5-1.71a9.21,9.21,0,0,0,1.28-1.06,2.89,2.89,0,0,0-.51-4.54,4.38,4.38,0,0,0-2.61-.47,3.43,3.43,0,0,0-2.89,1.48,3.16,3.16,0,0,0,.07,3.6c.3.5.57.9-.23,1.17-.23.08-.4.32-.61.46a3,3,0,0,0-1.27,3.26,2.86,2.86,0,0,0,2.17,2.28,6.41,6.41,0,0,0,5.19-.58c.25-.14.32-.11.5,0s.43.67.9.66Zm42.09-.46a2.75,2.75,0,0,0-2.11,1.47,2.24,2.24,0,0,0,1.46,3,9.71,9.71,0,0,0,5,.37,3.55,3.55,0,0,0,2.51-1.23,2.7,2.7,0,0,0-1.74-4.36c-.92-.23-1.86-.19-2.78-.4-.2,0-.55-.11-.5-.39a.58.58,0,0,1,.53-.49c.44,0,.85-.14,1.28-.16a3.35,3.35,0,0,0,3.19-2.46,4.56,4.56,0,0,0-.29-2.08c1.12,0,1.12,0,1.12-1.12a2.17,2.17,0,0,1,0-.33c.06-.42-.09-.55-.53-.54-1.48,0-3,0-4.43,0a7,7,0,0,0-2.05.13,3.19,3.19,0,0,0-2.46,2.61,2.81,2.81,0,0,0,.95,2.77c.34.3.8.4,1.15.69-.56.22-1.14.37-1.23,1.07A1.17,1.17,0,0,0,191.27,167.77Zm-28.09-.16c.06.62.06.62.61.62s1.13,0,1.69,0,.61-.12.61-.6c0-3.65,0-7.3,0-10.95,0-.65.23-1.52-.1-1.89s-1.26-.11-1.93-.13c-.84,0-.84,0-.84.86,0,1.27,0,2.53,0,3.84l-1-.31a4.44,4.44,0,0,0-4.71,1.27,5.35,5.35,0,0,0-.92,4.74A4.18,4.18,0,0,0,163.17,167.6Zm-37.52-8.25c-3.36-1.23-5.38.09-6.22,1.78a5.46,5.46,0,0,0,.79,6.14,4.46,4.46,0,0,0,5.4.41c-.11.61.28.55.65.54.61,0,1.22,0,1.82,0,.36,0,.43-.12.43-.45q0-6.35,0-12.71c0-.36-.13-.43-.45-.42-.63,0-1.26,0-1.89,0-.41,0-.56.09-.55.53C125.67,156.55,125.66,157.92,125.66,159.35Zm-13.54,9a4.84,4.84,0,0,0,2.07-.3c3.27-1.08,4-5.39,1.72-7.66a5,5,0,0,0-4.62-1.42c-3.25.56-4.56,2.18-4.39,5.46a3.62,3.62,0,0,0,.93,2.18A4.87,4.87,0,0,0,112.11,168.35Zm-12.15,0a4.76,4.76,0,0,0,3.7-1.27,4.52,4.52,0,0,0,1.39-3.9,4.15,4.15,0,0,0-2.14-3.5,5.87,5.87,0,0,0-5.26-.35,4.7,4.7,0,0,0,2.31,9Zm84.24-1.21a3.17,3.17,0,0,1,0,.42c-.09.53.08.73.65.68a16.48,16.48,0,0,1,2,0c.31,0,.41-.08.41-.4q0-4.17,0-8.34c0-.31-.09-.41-.4-.4-.72,0-1.43,0-2.15,0-.39,0-.46.13-.46.48,0,1.63,0,3.26,0,4.89a2,2,0,0,1-1.85,1.83c-.82.08-1.29-.67-1.4-1.65a3.45,3.45,0,0,1,0-.39c0-1.56,0-3.13,0-4.69,0-.37-.1-.49-.47-.47a17.25,17.25,0,0,1-1.89,0c-.45,0-.53.14-.53.55,0,2,0,4,0,5.93a2.56,2.56,0,0,0,1,2C180.56,168.85,182.56,168.7,184.2,167.14ZM89.28,164.6c0,1.06,0,2.13,0,3.19,0,.34.09.45.44.44a16.79,16.79,0,0,1,1.89,0c.47,0,.57-.14.56-.58,0-2,0-4,0-6.06,0-.4.07-.63.52-.54.67.13.91-.15.79-.8a1,1,0,0,1,0-.32c.11-.65-.11-1-.82-.85-.17,0-.44.15-.5-.22A1.61,1.61,0,0,1,93.69,157a4.82,4.82,0,0,1,.82.14c.31,0,.54,0,.51-.42s0-1.13,0-1.69c0-.16,0-.32-.23-.37a7,7,0,0,0-2.19-.1,3.32,3.32,0,0,0-2.54,1.35,4.53,4.53,0,0,0-.77,2.71c0,.34,0,.5-.44.5-.87,0-.87,0-.87.9a1.86,1.86,0,0,1,0,.33c-.11.61.15.82.74.72s.6.08.58.55C89.25,162.61,89.28,163.61,89.28,164.6Zm82.53-3.25c0-.65,0-1.17,0-1.68s-.16-.62-.62-.59a14,14,0,0,1-1.82,0c-.45,0-.58.1-.58.56,0,2.37,0,4.73,0,7.1,0,1.48,0,1.48,1.47,1.48s1.5,0,1.54-1.54a7.87,7.87,0,0,1,.25-3.12,3.77,3.77,0,0,1,1.37-1.67,1.75,1.75,0,0,1,2,.29c.26.18.44.24.51-.11a19.24,19.24,0,0,1,.61-1.94c.07-.22.11-.41-.08-.59a2.67,2.67,0,0,0-3.12-.27C172.63,159.75,172.35,160.54,171.81,161.36Z" style="fill:#009156"/><path d="M169.23,144.5a21.17,21.17,0,0,0,0,2.41,2.92,2.92,0,0,1-1.61,3,2.32,2.32,0,0,1-1.35.5.69.69,0,0,0-.59.34,4.54,4.54,0,0,1-3.6,1.75c-.39,0-.9-.17-.73.61.06.25-.22.53-.64.37a3,3,0,0,0-1.92,0,2.27,2.27,0,0,1-2.45-.56,3.89,3.89,0,0,0-1.46-1.14,2.65,2.65,0,0,1-1.58-2.28,44.35,44.35,0,0,1-.55-4.91,38.94,38.94,0,0,1-.09-5.31c.08-1.56,0-3.12.14-4.66.09-1.08,0-2.16.11-3.23.15-1.69,0-3.38.15-5.06s0-3.51.12-5.25a50.55,50.55,0,0,0,.09-6.29c-.1-2.4,0-4.81-.14-7.21-.12-1.8,0-3.6-.12-5.38s0-3.72-.14-5.58c-.05-.8-.11-1.59-.1-2.39a.45.45,0,0,0-.34-.46,4.33,4.33,0,0,0-1.42-.31,4.64,4.64,0,0,1-2.5-1.29,10.73,10.73,0,0,1-2.75-3.1,4.68,4.68,0,0,1-.47-1.63,19.63,19.63,0,0,0-.49-2.23,5.51,5.51,0,0,1,.17-2.71,37.5,37.5,0,0,0,.88-5.73c0-.2,0-.46.29-.33.73.34.92-.23,1.13-.68s.19-.78.33-1.15c.2-.54.56-.65,1-.31a9.76,9.76,0,0,0,2.93,1.43,1.18,1.18,0,0,0,.76,0,2,2,0,0,1,1.4,0,17.85,17.85,0,0,0,5.84.2c.73-.07,1.46-.1,2.19-.12,2.58-.06,5.15-.3,7.73-.14,1.81.11,3.62.09,5.42.25A78.51,78.51,0,0,1,188,77.87,35.72,35.72,0,0,1,199.65,83a18.22,18.22,0,0,1,5.79,6.42,18.48,18.48,0,0,1,2,6.77,15.05,15.05,0,0,1-.68,6.63,14.74,14.74,0,0,1-3.23,5.21,29.35,29.35,0,0,1-7.45,5.57,74.27,74.27,0,0,1-14.39,5.73c-4,1.22-8,2.27-12.11,3.26-.46.11-.65.27-.64.79,0,2.35-.09,4.7,0,7,.17,2.93,0,5.86.13,8.77C169.22,141,169.12,142.72,169.23,144.5Zm-.41-43.8q0,2,0,3.91c0,.31-.08.6.45.4s1-.18,1.56-.31c4.89-1.25,9.8-2.42,14.55-4.15,3-1.11,6.09-2.23,8.64-4.31a2.7,2.7,0,0,0,1.26-2.32c-.08-.9-.91-1.11-1.58-1.38a17.72,17.72,0,0,0-4.45-1,57,57,0,0,0-7.06-.48c-2.86,0-5.72-.12-8.58.08-1.31.09-2.63.1-3.95.16-.2,0-.4-.07-.45.29-.23,1.86-.23,3.73-.37,5.59C168.75,98.34,168.81,99.52,168.81,100.69Z" style="fill:#dc0028"/><path d="M149.18,168.23h-3.64c-.47,0-.62-.43-.9-.66s-.25-.18-.5,0a6.41,6.41,0,0,1-5.19.58,2.86,2.86,0,0,1-2.17-2.28,3,3,0,0,1,1.27-3.26c.21-.14.38-.38.61-.46.8-.27.54-.68.23-1.17a3.16,3.16,0,0,1-.07-3.6,3.43,3.43,0,0,1,2.89-1.48,4.38,4.38,0,0,1,2.61.47,2.89,2.89,0,0,1,.51,4.54,9.21,9.21,0,0,1-1.28,1.06l1.5,1.71a6.49,6.49,0,0,0,1.11-1.5.48.48,0,0,1,.49-.3c.8,0,1.6,0,2.43,0a7.62,7.62,0,0,1-2,3.22c-.42.4-.32.65,0,1C147.79,166.73,148.43,167.43,149.18,168.23Zm-7.94-1.95a3.76,3.76,0,0,0,1.48-.52c.25-.12.13-.21,0-.33l-1.66-1.79c-.11-.11-.18-.24-.41-.12a1.73,1.73,0,0,0-.92,1.69A1.59,1.59,0,0,0,141.24,166.28Zm.85-8.35c-.43,0-1.05.51-1.05.86s.84,1.5,1.1,1.48a2.13,2.13,0,0,0,1.08-1.34A1.2,1.2,0,0,0,142.09,157.93Z" style="fill:#fdfdfd"/><path d="M191.27,167.77a1.17,1.17,0,0,1-.94-1.39c.1-.7.68-.86,1.23-1.07-.34-.29-.8-.39-1.15-.69a2.81,2.81,0,0,1-.95-2.77,3.19,3.19,0,0,1,2.46-2.61,7,7,0,0,1,2.05-.13c1.48,0,3,0,4.43,0,.43,0,.59.12.53.54a2.17,2.17,0,0,0,0,.33c0,1.08,0,1.08-1.12,1.12a4.56,4.56,0,0,1,.29,2.08,3.35,3.35,0,0,1-3.19,2.46c-.43,0-.84.18-1.28.16a.58.58,0,0,0-.53.49c0,.28.3.34.5.39.91.21,1.86.18,2.78.4a2.7,2.7,0,0,1,1.74,4.36,3.55,3.55,0,0,1-2.51,1.23,9.71,9.71,0,0,1-5-.37,2.24,2.24,0,0,1-1.46-3A2.75,2.75,0,0,1,191.27,167.77Zm1-5.28a1.67,1.67,0,0,0,1.47,1.57,1.82,1.82,0,0,0,1.65-1.66c.08-.72-.84-1.47-1.71-1.46A1.47,1.47,0,0,0,192.28,162.49Zm1.58,8.49a3.78,3.78,0,0,0,1.72-.41.7.7,0,0,0,0-1.29,4.15,4.15,0,0,0-3.16-.09.83.83,0,0,0-.62.76.79.79,0,0,0,.6.75A4.12,4.12,0,0,0,193.86,171Z" style="fill:#fdfdfd"/><path d="M163.17,167.6a4.18,4.18,0,0,1-6.6-2.53,5.35,5.35,0,0,1,.92-4.74,4.44,4.44,0,0,1,4.71-1.27l1,.31c0-1.31,0-2.57,0-3.84,0-.87,0-.88.84-.86.66,0,1.55-.29,1.93.13s.1,1.24.1,1.89c0,3.65,0,7.3,0,10.95,0,.49-.11.64-.61.6s-1.13,0-1.69,0S163.23,168.22,163.17,167.6Zm0-4.08q0-.85,0-1.69c0-.17,0-.36-.16-.46a2.27,2.27,0,0,0-2.78.07,2.77,2.77,0,0,0-.81,1.83A2.69,2.69,0,0,0,161,166.2a2.34,2.34,0,0,0,1.94-.39c.48-.28.24-.78.28-1.19S163.21,163.89,163.21,163.52Z" style="fill:#fdfdfd"/><path d="M125.66,159.35c0-1.43,0-2.8,0-4.17,0-.44.13-.55.55-.53.63,0,1.26,0,1.89,0,.32,0,.45.06.45.42q0,6.35,0,12.71c0,.33-.07.46-.43.45-.61,0-1.22,0-1.82,0-.37,0-.76.07-.65-.54a4.46,4.46,0,0,1-5.4-.41,5.46,5.46,0,0,1-.79-6.14C120.28,159.45,122.3,158.13,125.66,159.35Zm0,4.17c0-.56,0-1.13,0-1.69,0-.2,0-.41-.2-.51a2.52,2.52,0,0,0-2.07-.29c-1.23.45-1.43,1.56-1.47,2.61A2.42,2.42,0,0,0,123,166a2.1,2.1,0,0,0,2.18-.09c.63-.33.4-.83.44-1.29S125.66,163.89,125.66,163.52Z" style="fill:#fdfdfd"/><path d="M112.11,168.35a4.87,4.87,0,0,1-4.3-1.73,3.62,3.62,0,0,1-.93-2.18c-.16-3.28,1.14-4.91,4.39-5.46a5,5,0,0,1,4.62,1.42c2.23,2.27,1.55,6.58-1.72,7.66A4.84,4.84,0,0,1,112.11,168.35Zm-2.11-4.7a5,5,0,0,0,.12,1.21,1.94,1.94,0,0,0,1.88,1.68c.93,0,1.49-.52,1.8-1.62a6,6,0,0,0,.07-2.39,1.9,1.9,0,0,0-3.09-1.33A3.25,3.25,0,0,0,110,163.65Z" style="fill:#fdfdfd"/><path d="M100,168.35a4.7,4.7,0,0,1-2.31-9,5.87,5.87,0,0,1,5.26.35,4.15,4.15,0,0,1,2.14,3.5,4.52,4.52,0,0,1-1.39,3.9A4.76,4.76,0,0,1,100,168.35Zm2-4.8a3.78,3.78,0,0,0-.26-1.48,1.73,1.73,0,0,0-1.45-1.27,1.64,1.64,0,0,0-1.85.85,4.37,4.37,0,0,0-.22,3.51,1.84,1.84,0,0,0,1.71,1.37,1.71,1.71,0,0,0,1.8-1.33A4.41,4.41,0,0,0,101.92,163.55Z" style="fill:#fdfdfd"/><path d="M184.2,167.14c-1.64,1.56-3.64,1.71-5.14.46a2.56,2.56,0,0,1-1-2c0-2,0-4,0-5.93,0-.41.08-.58.53-.55a17.25,17.25,0,0,0,1.89,0c.37,0,.48.1.47.47,0,1.56,0,3.13,0,4.69a3.45,3.45,0,0,0,0,.39c.11,1,.58,1.73,1.4,1.65a2,2,0,0,0,1.85-1.83c0-1.63,0-3.26,0-4.89,0-.35.07-.5.46-.48.72,0,1.43,0,2.15,0,.31,0,.41.09.4.4q0,4.17,0,8.34c0,.32-.1.41-.41.4a16.48,16.48,0,0,0-2,0c-.56,0-.74-.15-.65-.68A3.17,3.17,0,0,0,184.2,167.14Z" style="fill:#fdfdfd"/><path d="M89.28,164.6c0-1,0-2,0-3,0-.47-.14-.63-.58-.55s-.84-.12-.74-.72a1.86,1.86,0,0,0,0-.33c0-.88,0-.9.87-.9.41,0,.45-.17.44-.5a4.53,4.53,0,0,1,.77-2.71,3.32,3.32,0,0,1,2.54-1.35,7,7,0,0,1,2.19.1c.27,0,.23.21.23.37,0,.56,0,1.13,0,1.69s-.2.45-.51.42a4.82,4.82,0,0,0-.82-.14,1.61,1.61,0,0,0-1.55,1.86c.06.37.33.25.5.22.7-.11.93.19.82.85a1,1,0,0,0,0,.32c.12.65-.13.93-.79.8-.45-.09-.53.14-.52.54,0,2,0,4,0,6.06,0,.44-.09.61-.56.58a16.79,16.79,0,0,0-1.89,0c-.34,0-.44-.09-.44-.44C89.29,166.73,89.28,165.67,89.28,164.6Z" style="fill:#fdfdfd"/><path d="M171.81,161.36c.54-.82.81-1.61,1.57-2.08a2.67,2.67,0,0,1,3.12.27c.19.18.15.37.08.59a19.24,19.24,0,0,0-.61,1.94c-.06.35-.25.29-.51.11a1.75,1.75,0,0,0-2-.29,3.77,3.77,0,0,0-1.37,1.67,7.87,7.87,0,0,0-.25,3.12c0,1.54,0,1.54-1.54,1.54s-1.47,0-1.47-1.48c0-2.37,0-4.73,0-7.1,0-.47.13-.59.58-.56a14,14,0,0,0,1.82,0c.46,0,.67.07.62.59S171.81,160.71,171.81,161.36Z" style="fill:#fdfdfd"/><path d="M141.24,166.28a1.59,1.59,0,0,1-1.5-1.07,1.73,1.73,0,0,1,.92-1.69c.23-.12.31,0,.41.12l1.66,1.79c.11.12.23.21,0,.33A3.76,3.76,0,0,1,141.24,166.28Z" style="fill:#009156"/><path d="M142.09,157.93a1.2,1.2,0,0,1,1.13,1,2.13,2.13,0,0,1-1.08,1.34c-.26,0-1.09-1.1-1.1-1.48S141.66,157.93,142.09,157.93Z" style="fill:#009156"/><path d="M192.28,162.49a1.47,1.47,0,0,1,1.4-1.56c.87,0,1.79.75,1.71,1.46a1.82,1.82,0,0,1-1.65,1.66A1.67,1.67,0,0,1,192.28,162.49Z" style="fill:#009156"/><path d="M193.86,171a4.12,4.12,0,0,1-1.5-.29.79.79,0,0,1-.6-.75.83.83,0,0,1,.62-.76,4.15,4.15,0,0,1,3.16.09.7.7,0,0,1,0,1.29A3.78,3.78,0,0,1,193.86,171Z" style="fill:#009156"/><path d="M163.21,163.52c0,.37,0,.74,0,1.11s.21.91-.28,1.19a2.34,2.34,0,0,1-1.94.39,2.69,2.69,0,0,1-1.53-2.94,2.77,2.77,0,0,1,.81-1.83,2.27,2.27,0,0,1,2.78-.07c.18.1.16.29.16.46Q163.21,162.67,163.21,163.52Z" style="fill:#009156"/><path d="M125.66,163.52c0,.37,0,.74,0,1.11s.19,1-.44,1.29A2.1,2.1,0,0,1,123,166a2.42,2.42,0,0,1-1.12-2.37c0-1,.25-2.16,1.47-2.61a2.52,2.52,0,0,1,2.07.29c.2.1.2.31.2.51C125.65,162.4,125.66,163,125.66,163.52Z" style="fill:#009156"/><path d="M110,163.65a3.25,3.25,0,0,1,.79-2.45,1.9,1.9,0,0,1,3.09,1.33,6,6,0,0,1-.07,2.39c-.31,1.1-.87,1.62-1.8,1.62a1.94,1.94,0,0,1-1.88-1.68A5,5,0,0,1,110,163.65Z" style="fill:#009156"/><path d="M101.92,163.55a4.41,4.41,0,0,1-.27,1.65,1.71,1.71,0,0,1-1.8,1.33,1.84,1.84,0,0,1-1.71-1.37,4.37,4.37,0,0,1,.22-3.51,1.64,1.64,0,0,1,1.85-.85,1.73,1.73,0,0,1,1.45,1.27A3.78,3.78,0,0,1,101.92,163.55Z" style="fill:#009156"/></svg>