<svg xmlns="http://www.w3.org/2000/svg" viewBox="0 0 250 250"><title>Grocery</title><path d="M156.93,134.69c-1,.81-1.79,1.44-2.59,2a15.25,15.25,0,0,1-11.13,3.22,7.37,7.37,0,0,1-6.46-4.82c-.6-1.58-1.1-1.19-1.93-.2a16.67,16.67,0,0,1-5.92,4.55c-6,2.77-10.81,1.24-14.06-4.5-.76.1-.91.84-1.29,1.31a10.2,10.2,0,0,1-6.46,3.89,4.9,4.9,0,0,1-5.74-3c-.45-1-.77-.86-1.34-.14a9.12,9.12,0,0,1-4.49,3.11c-3.74,1.16-5.91-.07-7.42-4.2-.77.09-.94.85-1.39,1.27-2.39,2.21-5.08,3.65-8.43,2.82a3.8,3.8,0,0,1-2.73-5.65c1.26-2.68,2.75-5.26,4.11-7.9.19-.37.7-.78.22-1.23s-1-.09-1.41.23a22.69,22.69,0,0,0-4,4.38,54,54,0,0,1-8.7,9.46c-.84.7-1.67,1.68-2.84.38s0-1.93.81-2.62a53.34,53.34,0,0,0,9.76-10.34A5.35,5.35,0,0,0,74.58,123a6.88,6.88,0,0,1,4.11-6.84c2.24-.87,3.62,0,3.67,2.37,0,1.07.5,1.35,1.37,1.52,1.21.24,2.35-.23,3.54-.25,2.35,0,2.8.64,1.68,2.68-1.27,2.31-2.6,4.59-3.83,6.92-.41.78-1.08,1.69-.21,2.53a2.55,2.55,0,0,0,2.8.27,7.52,7.52,0,0,0,3.22-2.55,36.52,36.52,0,0,0,5.74-9.44,1.83,1.83,0,0,1,2.19-1.39,28,28,0,0,0,4.16,0c1.34-.06,1.65.29.94,1.54-1.82,3.21-3.56,6.48-5.32,9.73-.46.86-1.21,1.82-.14,2.65s2,.07,2.83-.6a15.62,15.62,0,0,0,3.66-4.64c1.3-2.37,2.63-4.74,3.71-7.21a2.16,2.16,0,0,1,2.4-1.5c1.38.06,2.77,0,4.16.07,2.23,0,2.26.06,1.17,2.11-1.7,3.2-3.47,6.38-5.18,9.58-.36.67-.91,1.49,0,2.12s1.35-.15,1.93-.56c1.6-1.13,2.23-2.88,3-4.57a16.53,16.53,0,0,1,10.78-9.49,11.77,11.77,0,0,1,5.49-.24,5.09,5.09,0,0,1,4.24,3.44A8.13,8.13,0,0,1,136,128c-.31.58-.91.48-1.41.49-1.45,0-2.9,0-4.54,0,.51-1.41,1.56-2.4,1.68-3.81.16-1.94-.65-2.76-2.55-2.39a8.93,8.93,0,0,0-6.19,4.83,22.18,22.18,0,0,0-1.66,3.8c-1,2.89.72,5.08,3.78,4.8a14.6,14.6,0,0,0,9.64-4.94,52.35,52.35,0,0,0,4.75-6.34c2.76-4.15,6.75-6.2,11.54-6.87,5.95-.83,9.74,3.58,7.77,8.92-.47,1.28-1.09,2.17-2.7,2a30.66,30.66,0,0,0-3.74,0c.54-1.08,1-2,1.47-2.92a2.13,2.13,0,0,0-.18-2.42,2.52,2.52,0,0,0-2.68-.86,6.11,6.11,0,0,0-2,.89,13.25,13.25,0,0,0-5.28,7.66c-.84,3.34,1,5.4,4.44,5.16a14.07,14.07,0,0,0,8.77-4.13,35.69,35.69,0,0,0,7-9c2-3.59,4-7.16,5.84-10.8,1-1.95,2.14-3.21,4.58-2.76a25.83,25.83,0,0,0,4.29,0c-1.86,3.61-4.07,6.79-5.66,10.81a32.83,32.83,0,0,1,3.74-1.89c1.46-.43,2.92-.63,4.11.5A4.29,4.29,0,0,1,182,123c-.67,2.83-2.65,5-3.74,7.62-.26.63-1.06,1.26-.36,1.95s1.49,0,2.13-.36a13.39,13.39,0,0,0,5-5,38,38,0,0,0,3.06-5.76,3.66,3.66,0,0,1,4.22-2.64c1.36.12,3.53-.24,3.92.43.62,1.08-.93,2.37-1.58,3.55a82,82,0,0,0-4.83,9.31c-.16.39-.6.85-.19,1.27s1,0,1.42-.21a50.13,50.13,0,0,0,8.74-7.11c2-1.87,4-3.68,5.85-5.63a3.46,3.46,0,0,1,4.14-.77,8,8,0,0,1,5.16,8.65,15.2,15.2,0,0,1-14,12.71,8.38,8.38,0,0,1-4.93-1.18,2.56,2.56,0,0,1-1.5-2.75,2.5,2.5,0,0,1,2.34-2.08,18,18,0,0,1,3.15-.28c3.91,0,7.17-4.21,6.53-8.32-.1-.65-.12-1.49-.73-1.75-.76-.33-1.07.59-1.48,1a84.7,84.7,0,0,1-15,12.93c-3.76,2.49-6.22,1.91-8.3-2-.6-1.14-1.07-.39-1.46,0a13.63,13.63,0,0,1-3.43,2.94,7,7,0,0,1-4.21.75c-2.51-.29-3.66-2-3.2-4.45a16.45,16.45,0,0,1,2.22-5.26,17.61,17.61,0,0,0,2-4.28c.12-.46.3-.94-.15-1.28a1.11,1.11,0,0,0-1.45.13,18.19,18.19,0,0,0-3.41,3.58,50.91,50.91,0,0,0-5.18,9.11c-.57,1.22-1.23,1.85-2.67,1.71a19.8,19.8,0,0,0-4,.07c-1.66.17-1.44-.52-.88-1.55S156.75,136.32,156.93,134.69Z" style="fill:#d02348"/><path d="M54.19,118.87c-1.57,3.48-4.31,4.87-7.31,5.72-5.73,1.63-10.71-1.35-11.75-6.85a8.33,8.33,0,0,1,1.19-5.88c3.73-6.4,9.59-9.38,16.71-10.29a39.43,39.43,0,0,1,18.12,2.18,77.83,77.83,0,0,0,23.79,4.65c5.8.14,11.48-.33,17-2.89.09,1.46-.82,2.1-1.68,2.73-3.9,2.84-8.38,4.08-13.08,4.73-7.68,1.06-15.29.23-22.87-.91a2.4,2.4,0,0,0-2.9,1.52c-6,11-12.12,22-18.12,33-.87,1.59-1.84,2.33-3.68,2.12a41.63,41.63,0,0,0-4.67,0,8.62,8.62,0,0,1,1.29-2.94Q55,129.62,63.85,113.57c1.26-2.3,1.23-2.32-1.35-2.67a32.42,32.42,0,0,0-9.46-.34,8.8,8.8,0,0,0-6.44,3.8c-.75,1.15-1.66,2.39-.63,3.81A4.15,4.15,0,0,0,50.11,120,38.35,38.35,0,0,0,54.19,118.87Z" style="fill:#d02348"/><path d="M198.93,121.41c-1.69-2.68-3-5.36-5.07-7.88a19.06,19.06,0,0,0,2.66.26,4.7,4.7,0,0,0,4-5.53c-.44-2.1.31-3.09,2.45-3a4.7,4.7,0,0,1,4.57,2.86c.83,1.95.68,4-.87,5.31A63.59,63.59,0,0,0,198.93,121.41Z" style="fill:#146a4f"/><path d="M195.4,112.61a4.29,4.29,0,0,1-.24-8.57,4.28,4.28,0,0,1,4.39,4.37A4.35,4.35,0,0,1,195.4,112.61Z" style="fill:#d02348"/><path d="M59.23,146.2a6,6,0,0,1,4.41-1.82c8.5.07,17,0,25.51,0,.26,0,.53,0,.79,0,.61.05,1.42-.24,1.46.82s-.84,1-1.52,1H59.23Z" style="fill:#d02348"/><path d="M202.73,146.21H171.87c-.6,0-1.24.07-1.27-.82s.67-1,1.35-1h27.31C200.66,144.44,201.67,145.31,202.73,146.21Z" style="fill:#d02348"/><path d="M205.59,148.47H170.8c-.58,0-1.26.07-1.24-.84s.72-.8,1.28-.8q15.62,0,31.24,0A5.84,5.84,0,0,1,205.59,148.47Z" style="fill:#146a4f"/><path d="M54.26,148.45a6.55,6.55,0,0,1,4.27-1.68c10,0,19.93,0,29.9,0l1,0c.52,0,.89.17.9.79s-.28.83-.83.84H54.26Z" style="fill:#146a4f"/><path d="M92.18,147.57a6.56,6.56,0,0,0,1.81.27c.75,0,1.15-.18,1.15-.46s-.34-.42-1.21-.6c-1.2-.25-2-.64-2-1.26s1-1.29,2.73-1.29a7.11,7.11,0,0,1,1.84.22l-.36.78a5.43,5.43,0,0,0-1.51-.2c-.71,0-1,.19-1,.41s.41.39,1.34.6c1.27.28,1.87.67,1.87,1.28s-.93,1.33-2.91,1.33a7.54,7.54,0,0,1-2-.26Z" style="fill:#146a4f"/><path d="M99.54,144.29v2.46c0,.74.47,1.11,1.31,1.11s1.33-.36,1.33-1.11v-2.46h1.63v2.4c0,1.32-1.12,1.95-3,1.95s-2.89-.6-2.89-2v-2.39Z" style="fill:#146a4f"/><path d="M105.21,144.34c.5-.05,1.21-.09,2.21-.09a5.34,5.34,0,0,1,2.21.34,1.06,1.06,0,0,1,.11,2,5,5,0,0,1-2.34.45l-.56,0v1.53h-1.62Zm1.62,1.94a4.16,4.16,0,0,0,.55,0c.87,0,1.4-.26,1.4-.7s-.46-.63-1.27-.63a4.61,4.61,0,0,0-.67,0Z" style="fill:#146a4f"/><path d="M115.73,146.76h-2.66v1h3v.79h-4.6v-4.28h4.45v.79h-2.82V146h2.66Z" style="fill:#146a4f"/><path d="M117.15,144.34c.52-.05,1.31-.09,2.17-.09a5.73,5.73,0,0,1,2.33.34,1,1,0,0,1,.66.9c0,.55-.65.92-1.27,1.05v0a1.34,1.34,0,0,1,1,.8,9.3,9.3,0,0,0,.59,1.21h-1.67a4,4,0,0,1-.5-1c-.19-.53-.5-.68-1.17-.69h-.49v1.68h-1.62Zm1.62,1.84h.64c.81,0,1.3-.24,1.3-.62s-.45-.59-1.2-.6a6.83,6.83,0,0,0-.74,0Z" style="fill:#146a4f"/><path d="M129.6,146.93c0-.51-.06-1.14-.06-1.76h0a16.75,16.75,0,0,1-.8,1.66l-.88,1.67h-1.27l-.77-1.66a13.3,13.3,0,0,1-.65-1.67h0c0,.58-.08,1.24-.13,1.77l-.13,1.63h-1.51l.46-4.28H126l.71,1.43a14.62,14.62,0,0,1,.61,1.53h0c.2-.5.45-1.06.69-1.54l.77-1.42h2.13l.4,4.28h-1.6Z" style="fill:#146a4f"/><path d="M134.21,147.47l-.51,1.1H132l2.21-4.28h2.14l2.24,4.28h-1.76l-.56-1.1Zm1.83-.72-.45-.91c-.13-.25-.26-.57-.36-.83h0c-.11.25-.21.58-.33.83l-.43.91Z" style="fill:#146a4f"/><path d="M139.55,144.34c.52-.05,1.31-.09,2.17-.09a5.73,5.73,0,0,1,2.33.34,1,1,0,0,1,.66.9c0,.55-.65.92-1.27,1.05v0a1.34,1.34,0,0,1,1,.8,9.36,9.36,0,0,0,.59,1.21h-1.67a4,4,0,0,1-.5-1c-.19-.53-.5-.68-1.17-.69h-.49v1.68h-1.62Zm1.62,1.84h.64c.81,0,1.3-.24,1.3-.62s-.45-.59-1.2-.6a6.82,6.82,0,0,0-.74,0Z" style="fill:#146a4f"/><path d="M145.9,144.29h1.62v1.89h0c.16-.17.33-.32.49-.47l1.64-1.42h2l-2.39,1.82,2.52,2.46h-1.91l-1.77-1.85-.62.45v1.4H145.9Z" style="fill:#146a4f"/><path d="M156.77,146.76h-2.65v1h3v.79h-4.6v-4.28h4.45v.79h-2.82V146h2.65Z" style="fill:#146a4f"/><path d="M159.64,145.1h-1.94v-.81h5.55v.81h-2v3.47h-1.64Z" style="fill:#146a4f"/><path d="M164.08,147.57a6.56,6.56,0,0,0,1.81.27c.75,0,1.15-.18,1.15-.46s-.34-.42-1.21-.6c-1.2-.25-2-.64-2-1.26s1-1.29,2.73-1.29a7.11,7.11,0,0,1,1.84.22l-.36.78a5.42,5.42,0,0,0-1.51-.2c-.71,0-1,.19-1,.41s.41.39,1.34.6c1.27.28,1.87.67,1.87,1.28s-.93,1.33-2.91,1.33a7.53,7.53,0,0,1-2-.26Z" style="fill:#146a4f"/></svg>