<svg xmlns="http://www.w3.org/2000/svg" viewBox="0 0 250 250"><title>Drug Logos</title><path d="M71.33,103.91c2.72,1.35,3.09,3.79,2.87,6.43a24.89,24.89,0,0,1-3.8,11.13,41.44,41.44,0,0,1-7.25,9.27A15.49,15.49,0,0,1,55,135c-2.84.41-5.57.31-7.61-2.15-.3-.36-.52-.11-.76,0a13.62,13.62,0,0,1-5,2.3,6.52,6.52,0,0,1-5-1,5.32,5.32,0,0,1-2-3.82,14.52,14.52,0,0,1,.95-8.15,58.3,58.3,0,0,1,5.18-9.42l.54-.83c-.37-.19-.67,0-1,.06A19,19,0,0,1,35,112a19,19,0,0,0-3.26-.11,5.53,5.53,0,0,0-1.76.52,5.91,5.91,0,0,1,4-5.58,9,9,0,0,1,3.84,0A23.09,23.09,0,0,0,48,106.49a2.27,2.27,0,0,1,.45,0,2,2,0,0,1-.53.84,61.19,61.19,0,0,0-7.35,11.31,16.32,16.32,0,0,0-1.85,8,7.74,7.74,0,0,0,.32,1.75,3.16,3.16,0,0,0,3.81,2.25,7.38,7.38,0,0,0,2.6-1.22c.3-.2.31-.46.32-.76a25.34,25.34,0,0,1,8.12-17.75A11.22,11.22,0,0,1,59.39,108c2.41-.5,3.8.81,3.5,3.25a14.76,14.76,0,0,1-2.06,5.45,56.69,56.69,0,0,1-7.82,11,.65.65,0,0,0-.13.85,3.49,3.49,0,0,0,4.21,1.92,9.38,9.38,0,0,0,4.79-2.84,23.71,23.71,0,0,0,6.88-13.52c.32-2.29,0-4.47-1.77-6.17-.51-.48-.4-.77.06-1.23a11.29,11.29,0,0,1,3.39-2.82ZM50.19,125c.08,0,.14,0,.18,0a3.33,3.33,0,0,0,.42-.31,25.45,25.45,0,0,0,6.51-9,7.17,7.17,0,0,0,.5-1.86c0-.36.15-.8-.23-1s-.67.07-.94.27A10.19,10.19,0,0,0,53.92,116,31.68,31.68,0,0,0,50.56,123,4.45,4.45,0,0,0,50.19,125Z" style="fill:#e31836"/><path d="M220,128.23a9.37,9.37,0,0,1-3.2,4.79c-1.5,1.18-3.22,1-4.92.84s-3.1-.3-4.65-.51a15.66,15.66,0,0,0-5.13.62,8.1,8.1,0,0,1-2.37.09,1.06,1.06,0,0,1-1-1.58,4.19,4.19,0,0,1,2.3-2.21,17.25,17.25,0,0,1,3.24-1,1.21,1.21,0,0,0,.81-.47c1.06-1.73,1.76-3.55,1.17-5.63-.25-.88-.27-.88-.94-.29-3,2.63-6,5.35-9.13,7.85a15.82,15.82,0,0,1-6.83,3.61c-1.39.27-2.76.26-3.8-1a2.66,2.66,0,0,1-.55-2.49,9.76,9.76,0,0,1,1.31-2.89c.12-.19.36-.42.1-.66s-.48,0-.66.13q-1.28,1-2.53,2.06a34.18,34.18,0,0,1-5,3.65,12.15,12.15,0,0,1-3.51,1.38,1,1,0,0,1-1-.18c-.29-.3-.05-.62.06-.89a25.6,25.6,0,0,1,2.85-4.51c.13-.18.25-.37.39-.55s.39-.5.05-.83-.53,0-.75.12c-1.64,1.28-3.35,2.47-5.1,3.6a21.35,21.35,0,0,1-7.7,3.37,10.77,10.77,0,0,1-3.62.14,3.62,3.62,0,0,1-3-2.25c-.23-.55-.46-.54-.93-.32a31.54,31.54,0,0,1-8.21,2.74,11.48,11.48,0,0,1-6.49-.52,2.54,2.54,0,0,1-1.48-1.27c-.29-.66-.75-.77-1.39-.48a34.88,34.88,0,0,1-5,2,7.09,7.09,0,0,1-3.08.28c-2.22-.37-3-1.72-2.75-4a6.92,6.92,0,0,1,1.42-3.31c.66-.92,1.38-1.81,2.07-2.72.42-.54.32-.8-.35-.92a1.16,1.16,0,0,0-.52,0,4.51,4.51,0,0,0-2.7,1.43,30.83,30.83,0,0,1-5.81,5.93,7.85,7.85,0,0,1-2.6,1.42,13,13,0,0,1,1.87-2.38c1.7-1.81,3.41-3.59,4.93-5.56a6,6,0,0,0,1.5-3.72,2,2,0,0,1,.25-.84,8.43,8.43,0,0,1,3.61-3.73,2.14,2.14,0,0,1,.62-.22c.31-.06.65-.17.85.21a.74.74,0,0,1-.15.95c-.43.43-.94,1-.6,1.54s1.08.19,1.61.06c1.17-.3,2.32-.69,3.48-1a3.24,3.24,0,0,1,1.69,0c.66.16.74.58.58,1.13a2.07,2.07,0,0,1-.61.83,49.57,49.57,0,0,0-3.88,4,7.34,7.34,0,0,0-1.76,3.55c-.29,2.07.63,3.06,2.71,2.93a19.93,19.93,0,0,0,2.92-.49.93.93,0,0,0,.78-.74,18.11,18.11,0,0,1,10-11.58,9.21,9.21,0,0,1,5.28-.78c2.23.34,3.21,2,2.25,4a15.35,15.35,0,0,1-6.5,6.64c-1.39.81-2.82,1.54-4.25,2.28-.46.24-.46.42-.06.71a4.81,4.81,0,0,0,3.48.7,22.46,22.46,0,0,0,6.92-1.86,1.4,1.4,0,0,0,.68-.73c2.33-4.1,5.17-7.74,9.28-10.22a12.58,12.58,0,0,1,5.9-1.81,3.11,3.11,0,0,1,.52,0c2.18.25,2.87,1.28,2.16,3.37a11.89,11.89,0,0,1-4.57,5.7,36.1,36.1,0,0,1-6.92,3.71c-.71.31-.74.52-.1.95a3.57,3.57,0,0,0,3.35.08,34,34,0,0,0,7-3.67c3.16-2.05,5.74-4.78,8.57-7.22,1-.91,2.11-1.8,3.12-2.75.65-.6,1.11-.19,1.62.16s.54.75.23,1.31c-.95,1.72-2.07,3.32-3.06,5a3.64,3.64,0,0,0-.73,2.59c.31,0,.47-.24.67-.4,2.73-2.22,5.22-4.71,7.88-7a12.15,12.15,0,0,1,2.82-1.9c.93-.44,1.35-.3,2,.5a.62.62,0,0,1,0,.91,13.17,13.17,0,0,1-1.26,1.26,18.73,18.73,0,0,0-4.48,6,4.87,4.87,0,0,0-.53,1.92A1.72,1.72,0,0,0,193,129a8,8,0,0,0,2.9-1.07,41.61,41.61,0,0,0,6.91-5.61,51.59,51.59,0,0,0,5.56-6.08,7.74,7.74,0,0,1,1.62-1.62,3.36,3.36,0,0,1,2.39-.58c.6.06.75.38.59.91a.61.61,0,0,1-.08.21c-.88,1.1-.74,2.4-.76,3.69a25.82,25.82,0,0,1-1.59,8.57c-.25.67-.07.9.51,1.14a10.61,10.61,0,0,0,8,0l.75-.31ZM171.49,120c0-.73-.63-1.1-1.49-.8-3,1.05-4.76,3.34-6.19,6-.23.42-.57,1-.21,1.36s.87-.1,1.31-.24a4.32,4.32,0,0,0,.54-.24,17.14,17.14,0,0,0,5.66-4.92A1.88,1.88,0,0,0,171.49,120Zm-19.26-.37a2.23,2.23,0,0,0-.93.24c-2.87,1.26-4.58,3.6-5.88,6.32a.48.48,0,0,0-.06.21c0,.24-.22.52,0,.7s.42,0,.63-.12a13.57,13.57,0,0,0,4.06-2.42,14.36,14.36,0,0,0,3-3.23,1.14,1.14,0,0,0,.12-1.2A1,1,0,0,0,152.23,119.65Z" style="fill:#e31836"/><path d="M104.7,139l-.59,1.71a1.62,1.62,0,0,0,.07,1.3,1,1,0,0,0,1.34.56,4.08,4.08,0,0,0,1.53-1.15,24.48,24.48,0,0,0,4.84-9.1.37.37,0,0,0-.06-.4,22.39,22.39,0,0,1-3.23,1.92,8.3,8.3,0,0,1-3.2.87A2.1,2.1,0,0,1,103,133a8.39,8.39,0,0,0-.49-1.82c-.67.57-1.3,1.12-1.95,1.65a10.66,10.66,0,0,1-3.75,2,4.7,4.7,0,0,1-5.44-1.64c-.82-1-.85-1-2-.3a16.2,16.2,0,0,1-6.71,2.44,5.78,5.78,0,0,1-1.84-.13,2.3,2.3,0,0,1-2-2.53c0-.45,0-.89,0-1.34a5,5,0,0,0,.06-1.27c-.34,0-.46.26-.64.43a19.16,19.16,0,0,1-5.91,3.92,6.56,6.56,0,0,1-3,.54A1.87,1.87,0,0,1,67.47,133a9.35,9.35,0,0,1,.88-4.4c2.86-6.4,7.91-9.89,14.71-11a11,11,0,0,1,5.85.45c.67.26.81.57.43,1.2C88.2,121.16,87,123,84.86,124a.66.66,0,0,0-.28.23A9.56,9.56,0,0,0,83,127.76c-.28,2,.86,3.2,2.9,3a12.27,12.27,0,0,0,3.89-1.17.85.85,0,0,0,.55-.64,27.11,27.11,0,0,1,4.14-9.06,35.2,35.2,0,0,1,7.2-8.45,12.12,12.12,0,0,1,6.48-3.05,3.85,3.85,0,0,1,1.11,0,1.59,1.59,0,0,1,1.31,2.15,10.45,10.45,0,0,1-1.16,2.64,49.26,49.26,0,0,1-12.8,14.6c-.47.36-1.08.64-.87,1.38a1.93,1.93,0,0,0,1.57,1.43,5.9,5.9,0,0,0,3.89-.57,11.18,11.18,0,0,0,3-2.34c1.3-1.37,2.44-2.87,3.64-4.32a16.18,16.18,0,0,1,9.63-5.85,11.3,11.3,0,0,1,6.67.85c.76.32.76.52.14,1.05a11.73,11.73,0,0,0-1.9,2c-.2.28-.46.62-.26,1,.35.6,0,1-.23,1.51a119.54,119.54,0,0,1-5.93,11.05,29.48,29.48,0,0,1-7.4,8.35,15.13,15.13,0,0,1-6.58,2.76c-2,.31-2.81-.55-2.23-2.48A6.42,6.42,0,0,1,104.7,139Zm-33-11.11c0,1.08.35,1.54,1.22,1.8a3.5,3.5,0,0,0,2.51-.38,17.8,17.8,0,0,0,7.77-6.58c.22-.34.17-.51-.17-.69a7.12,7.12,0,0,0-4.3-.86c-3.64.46-5.56,2.91-6.9,6A2.49,2.49,0,0,0,71.74,127.9Zm43.49-6.65a5.65,5.65,0,0,0-3.11.87,14.27,14.27,0,0,0-4.25,4,3.41,3.41,0,0,0-.62,1.49,2,2,0,0,0,2.44,2.28,9,9,0,0,0,3.25-1.71c2-1.49,3.49-3.55,5.19-5.37.26-.28.09-.41-.11-.59A3.71,3.71,0,0,0,115.22,121.25Zm-20.11,4.91a1.39,1.39,0,0,0,.79-.44A39,39,0,0,0,105,115.17a7.19,7.19,0,0,0,.56-1.21c.16-.44.55-1,0-1.36s-.93.12-1.32.37a11.74,11.74,0,0,0-2.94,2.69,53.81,53.81,0,0,0-5.57,8A4.41,4.41,0,0,0,95.11,126.16Z" style="fill:#e31836"/></svg>