<svg xmlns="http://www.w3.org/2000/svg" viewBox="0 0 250 250"><defs><style>.a,.g{fill:#fccccf;}.b{fill:#e8423d;}.b,.c,.d,.e,.f,.g,.i,.j,.k{fill-rule:evenodd;}.d,.h{fill:#40ccf0;}.e{fill:#d1212e;}.f{fill:#fff;}.i{fill:#b51f24;}.j{fill:#45c4f2;}.k{fill:#ed2621;}</style></defs><title>Fast Food</title><path d="M203.33,155.17a31,31,0,1,1,21.91-9.07,30.88,30.88,0,0,1-21.91,9.07Zm-21.07-9.91a29.8,29.8,0,1,0-8.73-21.07,29.7,29.7,0,0,0,8.73,21.07Z"/><path class="a" d="M217.25,125.1c-.08,0-.15,0-.22.46l-.1.57c-1,5.79-2.81,7.85-7,11.44a18.18,18.18,0,0,1-4.87,2.92,6.92,6.92,0,0,1-3.37,0,18.73,18.73,0,0,1-5-2.92c-4.33-3.58-6.18-5.64-7.21-11.44l-.1-.57c-.09-.5-.17-.46-.26-.46h0c0-.16-.1-.31-.16-.46-.78.48-1.27,0-1.6-.71-.71-1.59-1.25-4.45.29-5.69.32-.26.7-.44,1-.22s.33.78.44,1.36a3.74,3.74,0,0,1,2.49-3.91c3.12-1.5,8.63-1.93,14.17-8a12.75,12.75,0,0,1-4.68,8.44c5.38-.26,8.46-4,11.18-8.67.5,4.59,4.72,6.85,5.49,11.27.47-.93,1.38-1.11,1.8.39a7.88,7.88,0,0,1-.1,3.89c-.3.91-1,2.18-2.08,1.94l0,.4Z"/><path class="b" d="M192.2,125.48a.47.47,0,1,1,.47-.47.47.47,0,0,1-.47.47Z"/><path class="b" d="M194.12,126.56a.47.47,0,1,1,.47-.47.47.47,0,0,1-.47.47Z"/><path class="b" d="M195.54,124.51A.47.47,0,1,1,196,124a.47.47,0,0,1-.47.47Z"/><path class="b" d="M197.42,126a.47.47,0,1,1,.47-.47.47.47,0,0,1-.47.47Z"/><path class="b" d="M199.14,124a.47.47,0,1,1,.47-.47.47.47,0,0,1-.47.47Z"/><path class="b" d="M207.67,124.2a.47.47,0,1,1,.47-.47.47.47,0,0,1-.47.47Z"/><path class="b" d="M210,124.65a.47.47,0,1,1,.47-.47.47.47,0,0,1-.47.47Z"/><path class="b" d="M211.36,126.2a.47.47,0,1,1,.47-.47.47.47,0,0,1-.47.47Z"/><path class="b" d="M213.3,124.48a.47.47,0,1,1,.47-.47.47.47,0,0,1-.47.47Z"/><path class="b" d="M213.86,126.31a.47.47,0,1,1,.47-.47.47.47,0,0,1-.47.47Z"/><path class="c" d="M213.28,115.86c-.38-.08-.83-.36-1.29-.48a4.66,4.66,0,0,0-2.82,0c-.47.17-1.25.74-1.73.57-.32-.11.85-1,1.05-1.11a3.54,3.54,0,0,1,2.45-.86,4.6,4.6,0,0,1,1.71.36c1.47.62,2.09,1.79.63,1.47Z"/><path class="c" d="M193.18,116c.39-.1.85-.39,1.32-.54a4.86,4.86,0,0,1,2.88-.08c.48.15,1.41.61,1.84.29s-2.08-1.7-3.64-1.61a4.93,4.93,0,0,0-1.75.44c-1.5.69-2.13,1.88-.64,1.5Z"/><path class="c" d="M199.68,120.23c.46.07.2.89,0,1.1a.72.72,0,0,1-1.08,0c-.31-.32-.6-1.13-1-1.59a1.42,1.42,0,0,0-.89-.55,1.31,1.31,0,0,1,.18,1.61c-.1.16-.11.11-.25,0a1.25,1.25,0,0,0-1.35.23c-.14.13-.12.2-.28.09a1.25,1.25,0,0,1-.38-.44c-.15-.28-.22-.8.16-.91s.65.32.87.27a.44.44,0,0,0,.28-.19.67.67,0,0,0,.09-.46.56.56,0,0,0-.36-.44,1.09,1.09,0,0,0-1,.2c-.62.47-1.4,1.39-1.2,2a.47.47,0,0,0,.42.3c.19,0,.39,0,.48.15a.23.23,0,0,1-.22.33,1.57,1.57,0,0,1-1.58-.72c-.16-.23,0-.68.07-1a3.71,3.71,0,0,1,1.44-1.94,4,4,0,0,1,2-.4c1.72.06,2.26.29,2.65,1.84a2.26,2.26,0,0,0,.15.44c.08.16.26.28.43.16a.34.34,0,0,1,.28-.08Z"/><path class="c" d="M205.72,127.34c.08,0,.22,0,.29,0,.38-.3-.27-.81-.64-.82-.65,0-.78.9-1.87.68s-1.34-1.11-2.33-.46c-.28.18-.73.57-.66,1a.36.36,0,0,0,.29.3.32.32,0,0,0,.32-.1c.23-.24.45-.62.93-.15s1,.89,1.57.87c1.63-.05,1.34-1.27,2.11-1.27Z"/><path class="c" d="M209.92,119c.45-.16.9,0,.92.52a.67.67,0,0,1-.17.44.44.44,0,0,1-.31.14c-.22,0-.51-.44-.81-.41s-.41.56-.32.87a1.25,1.25,0,0,0,.3.5c.13.14.13.06.29,0a1.25,1.25,0,0,1,1.37,0c.13.09.13.13.26,0a1.48,1.48,0,0,0,.16-2,1.87,1.87,0,0,1,.84.6,1.3,1.3,0,0,1-.07,1.45c-.14.17-.26.07-.39.17s-.12.15.15.22c.53.14,1.48,0,1.74-.58.92-2.14-3.18-4.59-5.09-1.83-.52.74-.72,1.54-1.24,1.67,0-.51-.54-.54-.75-.22a.67.67,0,0,0,.67,1c1-.06,1.12-2,2.45-2.49Z"/><path class="c" d="M208.48,131.1c-1.07.18-3.35-.28-4.74-.23-1.22,0-2.17.4-3.5.37a4.74,4.74,0,0,1-2.06-.36,2.64,2.64,0,0,1-.52-.38.68.68,0,0,0-.91,0,.61.61,0,0,0,0,.77,2.17,2.17,0,0,0,1,.72,8.14,8.14,0,0,0,2.57.24c1.29,0,2.61-.21,3.37-.3s2.19.19,3.2.16c.31,0,.89-.08.89-.08-.15.13-.91.94-1.53,1.46-1,.83-3.57.7-4.76.53a5.34,5.34,0,0,1-1.81-.81c-.7-.37-1,0-.73.34A7.65,7.65,0,0,0,201,135.2a3.9,3.9,0,0,0,2.54.47c2,0,2.62-.15,3.21-.69a20.23,20.23,0,0,0,1.62-2.07,4.35,4.35,0,0,1,1-1.08,7.52,7.52,0,0,1,1.09-.5,2.79,2.79,0,0,0,.71-.45c.27-.26.34-.6,0-.81a1.38,1.38,0,0,0-1,0c-.65.17-.63.5-1.08.84a1.69,1.69,0,0,1-.65.23Z"/><path d="M216.12,146.13c.31.26.82.59,1.05.32a.32.32,0,0,0,.06-.27c-.05-.3-.6-.87-.82-1.17a7.55,7.55,0,0,1-1.38-4.57c0-.05,0-.1,0-.15a.74.74,0,0,0-1.43-.11l0,.06a8.84,8.84,0,0,1-1.54,2.93c-.06,0-.22-.11-.53-.58h0a.74.74,0,0,0-1.34.22,5.15,5.15,0,0,1-1.22,2.22c-.25.17-.63,0-1.22-.78h0a.74.74,0,0,0-1.21,0c-1.12,1.42-2.1,2.15-2.95,2.14s-1.61-.73-2.42-2.24h0a.74.74,0,0,0-1.29,0c-.45.68-.78.9-1,.77a5.17,5.17,0,0,1-1.51-2.32h0a.74.74,0,0,0-1.33-.06c-.52.79-.74,1-.83,1a2.68,2.68,0,0,1-.71-2v-4.14c.46.42.94.84,1.42,1.23a28,28,0,0,0,3.11,2.27,8.71,8.71,0,0,0,2.25,1,8.21,8.21,0,0,0,4.15,0,8.41,8.41,0,0,0,2.2-1,27.4,27.4,0,0,0,3-2.27c.5-.42,1-.86,1.47-1.32v.15c0,1.92.26,3.48.57,3.48.52,0,.67-4,.62-4.81l.39-.41c3.2-3.4,3-5.78,3.71-10.13.08-.46,0-.48-.12-.49s-.17,0-.26.46l-.1.57c-1,5.79-2.81,7.85-7,11.44a18.18,18.18,0,0,1-4.87,2.92,6.92,6.92,0,0,1-3.37,0,18.73,18.73,0,0,1-5-2.92c-4.33-3.58-6.18-5.64-7.21-11.44l-.1-.57c-.09-.5-.17-.46-.26-.46s-.21,0-.12.49c.78,4.38.53,6.73,3.8,10.13.73.76.63,1,.63,2v2.55c-.45-.63-.94-1-1.44-.79-.66.32.91,4.3-2.26,6.41-.47.31-.09.9.38.53a5.07,5.07,0,0,0,2.89-4.11l.11.22a5.73,5.73,0,0,0,1.31,2.17c.64.42,1.34.22,2.15-.61a5.23,5.23,0,0,0,1.62,2.1,1.78,1.78,0,0,0,2.26-.41,5.5,5.5,0,0,0,1.55,1.59l0,0c-2.44,2.3-1.18,4.94,1.76,4.94s4.1-2.67,1.69-4.94l-.06-.05a7.68,7.68,0,0,0,1.84-1.58,1.89,1.89,0,0,0,2.64.4,4.61,4.61,0,0,0,1.29-2.14,1.19,1.19,0,0,0,1.75.31,6.16,6.16,0,0,0,1.22-1.86,5.89,5.89,0,0,0,2.06,3.59Z"/><path class="d" d="M203.68,151.26a1.69,1.69,0,0,0,1.63-.85,1.82,1.82,0,1,0-3.33,0,1.77,1.77,0,0,0,1.7.88Z"/><path class="e" d="M221.07,137.91l3.92.33a9.13,9.13,0,0,0,12.89.51c.44-.43.51-.56-.18-.33a3.7,3.7,0,0,1-1.44.19c-.52,0-.34-.21-.17-.27,2.47-1,3.44-2.57,3.44-4.24a8.92,8.92,0,0,0-.08-1.45c-.12-.69-.51-.72-.89-.17a2.93,2.93,0,0,1-2.79,1.58c-.55,0-.27-.29-.1-.51a6,6,0,0,0,1.25-3.26c0-.87,0-.6-.45-.07-2,2.55-3.55,4.4-9.69,3.95a16.59,16.59,0,0,1-3.4-3.27,3.56,3.56,0,0,0-2.13-1.73c-.25-.07-.4-.2-.38-.31a.12.12,0,0,1,0-.05c1.62-2.1,2.95-3.59,3.71-6.22a22.48,22.48,0,0,0,.38-9.44c-.5-3.95-1.69-6.07-3.26-9.67l-.88-2.18a31.63,31.63,0,0,0-3.17-6.13,8.41,8.41,0,0,0-2.27-2.32c-2-1.2-4.11-2-6.22-.76-.46-3.75-9.4-3-12.89-1.75a18.72,18.72,0,0,0-8.1,5.69,38.91,38.91,0,0,0-4,7.81,23.83,23.83,0,0,0-1.3,5.12,11.8,11.8,0,0,1-.57,3,19,19,0,0,0-1.27,5.79c-.14,4.67,1.79,7.24,4.59,10.93l.21.28c.08.12,0,.26-.29.34a3.54,3.54,0,0,0-2.12,1.73c-1,1.42-2.14,1.86-3.45,3-6.09.46-7.53-1.12-9.53-3.67-.42-.53-.49-.8-.45.07a6,6,0,0,0,1.24,3.26c.17.23.45.54-.09.51-1.84-.09-2.55-.7-3.05-1.69-.23-.45-.48-.33-.59.29a9,9,0,0,0-.08,1.45c0,1.67,1,3.25,3.41,4.24.17.07.35.26-.17.27a3.64,3.64,0,0,1-1.42-.19c-.68-.23-.62-.1-.18.33a9,9,0,0,0,12.78-.51l3.89-.33a7.76,7.76,0,0,0,7.12-2.3l-.06-.06c-3.27-3.4-3-5.75-3.8-10.13-.08-.45,0-.48.11-.49s-.1-.31-.16-.46c-.78.48-1.27,0-1.6-.71-.71-1.59-1.25-4.45.29-5.69.32-.26.7-.44,1-.22s.33.78.44,1.36a3.74,3.74,0,0,1,2.49-3.91c3.12-1.5,8.63-1.93,14.17-8a13.1,13.1,0,0,1-4,7.72c-1,1-1.14.92.56.62,4.54-.81,7.46-4.29,9.92-8.55.5,4.59,4.72,6.85,5.49,11.27.47-.93,1.38-1.11,1.8.39a7.88,7.88,0,0,1-.1,3.89c-.3.91-1,2.18-2.08,1.94l0,.4h0c.1,0,.2,0,.12.49-.7,4-.54,6.36-3.05,9.39,1.83,3.33,4.08,3.49,6.72,2.93Z"/><path class="f" d="M208.27,120.93c0,.24.29.4.73.49a8.58,8.58,0,0,0,3,0,.09.09,0,0,1,0-.14c.13-.1.26,0,.39-.17a1.3,1.3,0,0,0,.07-1.45,1.87,1.87,0,0,0-.84-.6,1.48,1.48,0,0,1-.16,2c-.13.13-.13.09-.26,0a1.25,1.25,0,0,0-1.37,0c-.16.1-.15.18-.29,0a1.25,1.25,0,0,1-.3-.5c-.1-.3-.08-.83.32-.87s.59.43.81.41a.44.44,0,0,0,.31-.14.67.67,0,0,0,.17-.44c0-.53-.47-.68-.92-.52-.87.31-1.23,1.25-1.64,1.89Z"/><path class="f" d="M198.24,120.78c0,.24-.29.41-.73.54a9.14,9.14,0,0,1-3.07.27c-.08-.2-.29-.12-.48-.15a.47.47,0,0,1-.42-.3c-.19-.59.58-1.52,1.2-2a1.09,1.09,0,0,1,1-.2.56.56,0,0,1,.36.44.67.67,0,0,1-.09.46.44.44,0,0,1-.28.19c-.22.05-.58-.35-.87-.27s-.31.63-.16.91a1.25,1.25,0,0,0,.38.44c.16.11.14,0,.28-.09a1.25,1.25,0,0,1,1.35-.23c.14.06.16.11.25,0a1.31,1.31,0,0,0-.18-1.61,1.42,1.42,0,0,1,.89.55,8.52,8.52,0,0,1,.62,1.09Z"/><path class="g" d="M213.05,140v1.39a4.63,4.63,0,0,1-1,1.72c-.06,0-.22-.11-.53-.58h0a.74.74,0,0,0-1.34.22,5.15,5.15,0,0,1-1.22,2.22c-.25.17-.63,0-1.22-.78h0a.74.74,0,0,0-1.21,0c-1.12,1.42-2.1,2.15-2.95,2.14s-1.61-.73-2.42-2.24h0a.74.74,0,0,0-1.29,0c-.45.68-.78.9-1,.77a5.17,5.17,0,0,1-1.51-2.32h0a.74.74,0,0,0-1.33-.06c-.52.79-.74,1-.83,1a2.68,2.68,0,0,1-.71-2v-4.14c.46.42.94.84,1.42,1.23a28,28,0,0,0,3.11,2.27,8.71,8.71,0,0,0,2.25,1,8.21,8.21,0,0,0,4.15,0,8.41,8.41,0,0,0,2.2-1,27.4,27.4,0,0,0,3-2.27c.5-.42,1-.86,1.47-1.32v.15c0,1.92.26,3.48.57,3.48.16,0,.28-.37.37-.9Z"/><path class="f" d="M199.05,133.09,198,132h0a8.63,8.63,0,0,0,2.44.21c1.29,0,2.61-.21,3.37-.3s2.19.19,3.2.16c.31,0,.89-.08.89-.08-.15.13-.91.94-1.53,1.46-1,.83-3.57.7-4.76.53a5.34,5.34,0,0,1-1.81-.81.78.78,0,0,0-.71-.1Z"/><path class="h" d="M192.21,147.24a1.07,1.07,0,0,0,1.44,1.58c1-.82,1.72-2.72,2.14-4.09a1.25,1.25,0,0,1-1.41,0,2.35,2.35,0,0,1-.7-.87,11.44,11.44,0,0,1-1.47,3.37Zm19.1,2.05a1.11,1.11,0,0,1-1.54,1.58c-1.1-.92-1.67-3.2-2-4.56a1.71,1.71,0,0,0,2-.09,1.78,1.78,0,0,0,.28-.25,10.58,10.58,0,0,0,1.24,3.32Zm3.7-2.14a1.1,1.1,0,0,1-1.43,1.65c-1.18-.87-1.91-3.15-2.31-4.49v-.06a1.15,1.15,0,0,0,1.58.13,2.5,2.5,0,0,0,.62-.77v.05a11.17,11.17,0,0,0,1.54,3.48Zm-18.67,2a1.11,1.11,0,0,0,1.54,1.58c1.08-.9,1.64-3.11,2-4.48a1.67,1.67,0,0,1-1.69,0,2.12,2.12,0,0,1-.56-.47,10.71,10.71,0,0,1-1.25,3.39Z"/><path class="i" d="M200.58,103c-4.43,2-7.15,5.2-10.57,7.06-1.6.87-.94.63.56.38,4.48-.74,5.91-3.84,10.23-7.14,1.4-1.07,1.51-1.1-.23-.31Zm22,2.5c-.28-.63-.58-1.29-.89-2l-.88-2.18a31.63,31.63,0,0,0-3.17-6.13,8.41,8.41,0,0,0-2.27-2.32c-2-1.2-4.11-2-6.22-.76-.46-3.75-9.4-3-12.89-1.75a18.72,18.72,0,0,0-8.1,5.69,38.91,38.91,0,0,0-4,7.81,23.83,23.83,0,0,0-1.3,5.12,11.8,11.8,0,0,1-.57,3,19,19,0,0,0-1.27,5.79c-.14,4.67,1.79,7.24,4.59,10.93l.21.28,0,0a6.62,6.62,0,0,1,1.65,3.57,4.17,4.17,0,0,1-3.05,2.08l-4.47,1.64c-3.2,4.36-8.47,4.37-11.25,2.21,0,.06.11.2.33.41a9,9,0,0,0,12.78-.51l3.89-.33a7.76,7.76,0,0,0,7.12-2.3l-.06-.06c-3.27-3.4-3-5.75-3.8-10.13-.08-.45,0-.48.11-.49s-.1-.31-.16-.46c-.78.48-1.27,0-1.6-.71-.71-1.59-1.25-4.45.29-5.69.32-.26.7-.44,1-.22s.33.78.44,1.36a3.74,3.74,0,0,1,2.49-3.91c3.12-1.5,8.63-1.93,14.17-8a7.64,7.64,0,0,0,1.29-5c0-.34-.09-.53-.33.08-4.11,10.21-19.86,10.33-23.22,15.22a13.28,13.28,0,0,1,1.68-9.83c.51-.92,1.1-1.85-.16-.36-.59.7-1.23,1.67-1.89,2.64,1-5.1,3.28-11.61,8.33-15.18,3.79-2.68,15.31-6.48,17.18-.17,2.75-3.57,7.69,0,9.44,3,1.37,2.32,2.75,5.37,4.63,7.62ZM225,120.66a25.26,25.26,0,0,0-.05-7.55l-.06-.41c-1.08-4.58-6.49-8.42-8.71-12.23a12.79,12.79,0,0,1-.91-2.05c-.25-.67-.32-.74-.14.92.91,8.11,10,10.63,9.87,21.32ZM236.13,140c-4.81,1.12-8.86-1.81-9.6-3.78L221.31,134c-3.06-.72-2.9-2.35-2-4.39,2-4.4,4.2-7.1,1.47-12.07-2-3.71-5.59-5.44-7.68-9.93-.8-1.72-1-3.84-1.83-5.15-.34-.56-.73-1-.82-.56-1.21,5.91-3.94,11.23-9.54,14,0,0,0,.06.14.06,4.95-.09,8.84-4.85,11.09-8.75.5,4.59,4.72,6.85,5.49,11.27.47-.93,1.38-1.11,1.8.39a7.88,7.88,0,0,1-.1,3.89c-.3.91-1,2.18-2.08,1.94l0,.4h0c.1,0,.2,0,.12.49-.7,4-.54,6.36-3.05,9.39,1.83,3.33,4.08,3.49,6.72,2.93l3.92.33a9.17,9.17,0,0,0,11.14,1.8Z"/><path class="j" d="M223.48,132.75a2.51,2.51,0,0,0-2,1,3.46,3.46,0,0,0-.76,1.44,1.62,1.62,0,0,0,.79,1.72c.86.55,2.92.94,3.78.39a2.64,2.64,0,0,0,1.3-2,2.4,2.4,0,0,0-1.21-1.82,4.1,4.1,0,0,0-1.92-.75Z"/><path class="d" d="M223.48,132.75a13.54,13.54,0,0,1,.64-3.81c.33-1.08.81-2.06,1.58-2.22,1.08-.23,4.66,1,5.07,2.24a1.76,1.76,0,0,1-.39,1.53A23.47,23.47,0,0,1,227,134a1.56,1.56,0,0,1-.77.27,3.83,3.83,0,0,0-.79-.73,4.1,4.1,0,0,0-1.92-.75Zm.67,9.42c-.29,1.12-.76,2.12-1.56,2.24-1.13.18-5-1.36-5.48-2.66a1.73,1.73,0,0,1,.34-1.59c.57-.83,3.15-3.08,4.08-3.22a5.47,5.47,0,0,0,2.61.65c.86.64.38,3.19,0,4.57Z"/><path class="f" d="M224.36,133.46a1.64,1.64,0,0,0-.94-.12c-.26.07-.28.25-.21.38a.55.55,0,0,0,.45.19,1.28,1.28,0,0,1,.89.42,1,1,0,0,0,.66.42.36.36,0,0,0,.33-.45c-.07-.38-.84-.72-1.16-.85Z"/><path class="c" d="M225.12,133.29l-.13,0-.12-.06-.21-.14c-.31-.35-.07-.65.2-1a6.93,6.93,0,0,1,.71-.72c1-.9,1.2-.67.76.58-.11.33-.74,1.6-1.22,1.37Zm-3.26,3.93a.6.6,0,0,0-.38.06c-.12.07-.22.21,0,.34.36.26.71.37.51,1a3.08,3.08,0,0,1-.3.57,2.52,2.52,0,0,0-.25.48c-.08.24-.09.43.1.49a.65.65,0,0,0,.79-.34c.2-.3.27-.63.44-.94s.39-.52.64-.54c.45,0,.51-.16.52-.54,0-.14-.1-.16-.11-.16h0a6.18,6.18,0,0,1-1.43-.28l-.49-.09Z"/><path class="d" d="M183.18,133a16.19,16.19,0,0,0-.23-4c-.21-1.11-.59-2.13-1.33-2.38-1-.34-4.74.52-5.28,1.68a1.76,1.76,0,0,0,.23,1.56,23.47,23.47,0,0,0,3,3.83,2,2,0,0,0,.38.25,3.26,3.26,0,0,1,.71-.56,3.58,3.58,0,0,1,1.82-.52,1.57,1.57,0,0,1,.67.17Zm2.4,11c1.29-.22,2.75-.68,3.16-1.49a1.73,1.73,0,0,0-.17-1.61c-.44-.83-2.77-3.91-3.8-4.47a1.64,1.64,0,0,1-.65.6,5.29,5.29,0,0,1-2.46.55,13.49,13.49,0,0,0,1,4.86c.68,1.75,1.09,1.87,2.9,1.56Z"/><path class="c" d="M184.16,136.86a.45.45,0,0,1,.33,0,.2.2,0,0,1,0,.34c-.32.3-.62.44-.44,1a3,3,0,0,0,.26.55,2.45,2.45,0,0,1,.22.47c.07.24.08.42-.08.5-.32.15-.54,0-.69-.28s-.24-.62-.39-.92-.34-.49-.56-.5c-.53,0-.73-.59-.14-.72a5.18,5.18,0,0,0,1-.35l.43-.14Z"/><path class="c" d="M181.24,133c.5-.15.55-.22.34-.65a5.44,5.44,0,0,1-.5-1.91c0-.76-.64-.48-.61.79,0,.4.23,2,.77,1.77Z"/><path class="j" d="M182.5,132.87a2.5,2.5,0,0,1,1.8,1.21,3.59,3.59,0,0,1,.64,1.45,1.48,1.48,0,0,1-.83,1.57c-.83.43-2.59.86-3.38.27a3.47,3.47,0,0,1-.77-.85,2.68,2.68,0,0,1-.5-1.5,2.21,2.21,0,0,1,1.22-1.62,3.58,3.58,0,0,1,1.82-.52Z"/><path class="f" d="M181.68,133.54a1.65,1.65,0,0,1,.95,0c.25.11.26.29.17.41a.53.53,0,0,1-.47.12,1.23,1.23,0,0,0-.93.29,1,1,0,0,1-.7.32.38.38,0,0,1-.28-.49c.11-.36.91-.59,1.25-.66Z"/><path class="k" d="M179.19,144.52a4.7,4.7,0,0,1,.24,2.3c-.19,1.24-1.33,1.77-.6,3.39A2,2,0,0,0,181,151.3c1.77-.12,2.7-1.72,3.19-3.51.57-2.09,1.07-4.91-1.35-6a3,3,0,0,0-2.31-.05,2.39,2.39,0,0,0-1.44,1.3,1.85,1.85,0,0,0,.1,1.49Z"/><path class="e" d="M145.86,138.45c-.31,0-.62,0-.89,0a5.4,5.4,0,0,1-2.28-.51c-1.18-.54-1.51-1.26-2.78-1.3a3.07,3.07,0,0,0-2.36,1,4,4,0,0,0-1,2.64,5.1,5.1,0,0,0,.76,2.92c1.19,1.83,3.64,2.51,6.26,2.49,5.15,0,12.34-3,12.37-9a4.24,4.24,0,0,0-1.44-3.18c-2.07-2.12-5.8-3.32-7.82-5.19a1.18,1.18,0,0,1-.4-1.13,3.19,3.19,0,0,1,1.15-1.53c.71-.64,3.33-2.09,3.75-.54.17.64,0,1.1.33,1.82a2.38,2.38,0,0,0,2.19,1.19c2.88.06,3.81-3.22,3.66-5.57a5.57,5.57,0,0,0-1.52-3.72,6,6,0,0,0-4.3-1.42c-5.29.16-13.35,5.69-13.23,11.55a5.08,5.08,0,0,0,1.73,3.56,13.89,13.89,0,0,0,4.59,2.69,16.06,16.06,0,0,1,1.77.9c.68.41,1.88,1.42.7,2.06a3.14,3.14,0,0,1-1.21.28ZM98.54,135c-.93.85-3.54,3.15-3.2,0a13.86,13.86,0,0,1,3.61-7.1c.79-.88,5.1-4.63,5.92-3.89.19.17.14.61-.07,1.3A22.69,22.69,0,0,1,98.54,135Zm9.86-30.11a61.68,61.68,0,0,0-2.13,10.82c0,.68-.09.86-.63,1a19.48,19.48,0,0,0-7.15,3.25,21.91,21.91,0,0,0-6,6,25.16,25.16,0,0,0-1.79,2.95,16.3,16.3,0,0,0-2.25,7.62c0,.81,0,1.67-.94.48a6.06,6.06,0,0,1-.88-3.61,64.1,64.1,0,0,1,.84-7.45c.18-1.49.21-4.3-.8-5.5a3.61,3.61,0,0,0-3.91-.86c-2.86.83-5.11,3.16-6.88,5.49-.36.48-.54.59-.4-.1a9.53,9.53,0,0,1,.84-2,10.06,10.06,0,0,0,.75-1.87,2.22,2.22,0,0,0-.78-2.68,3.32,3.32,0,0,0-2.73-.28c-2.27.72-3.83,3.23-5,6.74A54.79,54.79,0,0,0,66,140.67c-.06,1.77-.1,5.57,2.29,5.63s3.7-.88,4.53-3.21a43.26,43.26,0,0,0,1.38-5.46c.47-2.19,2.56-7.37,5.33-8.66.45-.21,1-.28.77.47a20.3,20.3,0,0,0-.39,3.22c-.07,1.27-.11,2.57-.07,3.48.15,1.57.44,4.91,2.09,6.89a3.68,3.68,0,0,0,5.32.67c.54-.43.94-1,1.6-1.6.22-.2.44-.14.54,0a2.85,2.85,0,0,0,.92,1.07,5.45,5.45,0,0,0,4,.43c5.25-1.13,8-4.84,9.51-6.12-.12,1.92-.16,4.93,1.36,7.08a3.87,3.87,0,0,0,7.18-2.55c-.2-1.24-1.21-2-1.52-3.09a23,23,0,0,1-.24-5.64,73.93,73.93,0,0,1,.86-9c.1-.53,0-.38.51-.45,2.88-.39,3.65-4.24,1.86-6a11.18,11.18,0,0,0-1-.73c-.27-.21-.26-.21-.2-.67,0-.14,0-.31.07-.54.4-3.65,2.27-9.88,3.22-13.53a2.94,2.94,0,0,0-.17-2.3,2.37,2.37,0,0,0-2.35-1c-3,.28-4.33,3.26-5,5.84ZM53.84,135c-.11-.05,0-.56.2-1.28a25.88,25.88,0,0,1,3.07-5.79,6.76,6.76,0,0,1,1.57-1.57c.4-.27,1.51-.85,1.92-.35s0,1.91-1,3.69a14,14,0,0,1-3.5,4.09c-.43.34-1.95,1.37-2.32,1.2ZM38,137.4a29.5,29.5,0,0,1-.6,3.17c-.15.77-.47,1.48-.76,1.49s-.68-.89-.71-1.67c-.32-7.2-.43-13.72-.42-20.92,0-3.88-.22-5.32-3.44-5.58a4.9,4.9,0,0,0-2.56.42c-1.23.61-1.58,1.65-2.13,2.82A57,57,0,0,0,25,123.39c-.73,2.16-1.52,4.53-2.3,6.9-1.51,4.63-2.78,9.26-4,14.07-.17.55-.77,1.37-.95-.14a15.46,15.46,0,0,1,0-1.75c0-8.59,1-16.92,1.75-25.43.2-2.13.32-4.32,0-4.94-.5-.86-1.65-1.29-3.27-1.18-2.67.18-4.33,1.06-5.46,2.49-.35.39,0,1.14.21,1.42.57.65.57,1.26.68,2.63.45,5.58-1,18-1,27.07,0,3.12.42,9.9,1.54,12.82,1.56,4.07,5.32,4.18,8.29,1.72,1.47-1.22,1.67-2.22,2.14-4.08q.24-1,.47-1.91c.91-3.73,1.75-7.49,2.68-11.14.73-2.87,1.51-5.68,2.41-8.36.35-1.31.78-1.33.91,0,.09,1,.19,2.68.28,4.47a90.3,90.3,0,0,0,1.54,12.81c.67,2.92,1.38,4.88,4.84,4.86,2.49,0,4.11-.73,5.06-3.46a45.6,45.6,0,0,0,1.18-4.45c.51-2.22,1-4.62,1.44-6.39.3-1,.75-.8,1.81-.62s1.64.09,1.68.78A8.65,8.65,0,0,0,49.64,148c3.49,3.14,8.77,1.48,11.8-1.5A6.09,6.09,0,0,0,63.6,142c-.12-1.78-1.8-2.13-3.15-1.37-1,.57-1.75,1.23-2.48,1.67a2.84,2.84,0,0,1-3.17.13,2,2,0,0,1-.8-1.71c0-.26,0-.45.25-.55a18,18,0,0,0,4.24-2.1c4.69-3.22,7.71-8.26,7.76-13.29,0-4-3.12-6-7.93-4.27-5.69,2.08-9,8.51-10.6,14-.12.42-.18.49-.72.45l-.78-.08a4.29,4.29,0,0,1-1-.23c-.39-.16-.42-.29-.33-.73s.28-1.11.42-1.66c1.59-6.21,3.37-12.58,5.48-18.59a19,19,0,0,0,1.31-5.17A3.42,3.42,0,0,0,51,106.31a2.65,2.65,0,0,0-3.13-.48c-1.86,1-3.23,4-4.22,7.12A157.26,157.26,0,0,0,38,137.4Zm76.31-1.06c.9,9.89,6.83,8.85,10.53,5.46a26.35,26.35,0,0,0,2-2.26c.21-.24.25-.1.24.34a26.8,26.8,0,0,1-.84,6.51c-1.17,4.35-4.12,7-8.75,6.68-1.11-.09-2.16-.32-3-.35a2.58,2.58,0,0,0-2.85,2.93c.21,2.7,2.87,4,5.25,4.24a16,16,0,0,0,8.37-1.45,14.21,14.21,0,0,0,6.65-7.2c1.36-3.14,1.82-7.24,2.06-10.66.16-4.6,1.35-9.79,2.36-14.2.41-1.8,1.44-5.38,1.16-7-.2-1.17-.9-2.58-2.47-2.6a4.48,4.48,0,0,0-3,1.28c-1.72,1.67-2.57,4.61-3.19,6.54-1,3-2,7-3.9,9.54-.91,1.21-2,2.11-2.79,2-2.75-.47-.29-8.84.27-10.54a23.37,23.37,0,0,1,1.25-3,11,11,0,0,0,1.05-2.48,3.42,3.42,0,0,0-.17-2c-.68-1.54-2.2-1.73-3.62-1.29a6,6,0,0,0-2.64,1.69c-3.49,3.76-4.4,13.06-4,17.81Z"/><path class="e" d="M157.75,144.59a1.62,1.62,0,1,0-1.62-1.62,1.62,1.62,0,0,0,1.62,1.62Zm0-.29a1.33,1.33,0,1,1,1.33-1.33,1.33,1.33,0,0,1-1.33,1.33Z"/><path class="e" d="M157.41,143.1h.32l.49.8h.31l-.53-.81a.48.48,0,0,0,.48-.51c0-.36-.22-.53-.65-.53h-.7v1.85h.28v-.8Zm0-.24v-.57h.38c.19,0,.4,0,.4.27s-.21.3-.45.3Z"/></svg>