<svg xmlns="http://www.w3.org/2000/svg" viewBox="0 0 250 250"><title>Grocery</title><path d="M195.84,161.34a2.1,2.1,0,1,1,2.1,2.13,2.05,2.05,0,0,1-2.1-2.13m-.58,0a2.68,2.68,0,1,0,2.68-2.69,2.68,2.68,0,0,0-2.68,2.69m1.67,1.48h.53v-1.26h.31l.91,1.26h.61l-.89-1.27a.84.84,0,0,0,.8-.92c0-.65-.35-.94-1.07-.94h-1.18Zm.53-2.63H198c.35,0,.7.08.7.44s-.38.42-.82.42h-.37v-.86" style="fill:#006f52;fill-rule:evenodd"/><path d="M119.47,104.89c0-11.91,7.13-15.46,13.85-19.24.27-.13.13-.74-.27-.66-3.36.47-5.38-1.83-7.8-1.83-2.62,0-3.77,2.42-4.78,2.42s-1.14-.53-1.14-1.2c0-2.29,3.83-6.33,8.54-6.33,4.16,0,8.07,3.3,10.28,3.3.55,0,1-.2,1-.47,0-.81-1.81-.86-4-2.69s-5.24-3.7-8.21-3.7c-3.89,0-6.72,2.63-7.33,4-.46,1.14-.94,1.88-1.67,1.88-.94,0-1.14-.94-1.14-1.94,0-2.56,3.82-9.41,10.35-9.41,4.57,0,8.41,3.56,11.71,7a4.71,4.71,0,0,0,3.56,1.62c1.27.07,3.22.4,3.22,2.22,0,3.7-6.39,5.59-11.76,9.63-5,3.7-7,7.41-7,15.26,0,6.8,3,14.35,10.15,14.35,6.6,0,9.22-7,9.22-13.35,0-8.93-1.6-12.15-6.32-15.47a1.22,1.22,0,0,1-.68-1.26,1.2,1.2,0,0,1,.88-1.15,3.81,3.81,0,0,1,.81-.06c7.33,0,12.77,8.2,12.77,17.08,0,10.28-5.71,17.95-17.61,17.95-11.43,0-16.6-8.81-16.6-17.95" style="fill:#006f52"/><path d="M77.23,133.52c-.57,0-.92-.3-1.44-1.07-1.44-2.16-2.07-2.35-7.42-2.35-3.75,0-4.06.08-4.06,2.09v7.67h6.38c1.49,0,2.21.57,2.21,1.76s-.77,1.74-2.21,1.74H65.44a1.61,1.61,0,0,0-.72.16c-.36.15-.41.47-.41,1.55v10.25a5,5,0,0,0,.15,2,1.25,1.25,0,0,0,1.08.67h1.19a1.38,1.38,0,0,1,1.34,1.43c0,1.14-.62,1.5-2.52,1.5H56.07c-1.75,0-2.37-.36-2.37-1.5A1.41,1.41,0,0,1,55,158h1a1,1,0,0,0,.88-.67,6.63,6.63,0,0,0,.15-2V132.18a7,7,0,0,0-.15-2,1,1,0,0,0-.88-.67H55a1.33,1.33,0,0,1-1.24-1.42c0-1.14.57-1.51,2.26-1.51H75c.83,0,1,.05,1.23.21A2.3,2.3,0,0,1,77,128l1.33,3.51a2.43,2.43,0,0,1,.21.84,1.27,1.27,0,0,1-1.34,1.22" style="fill:#006f52;fill-rule:evenodd"/><path d="M126.35,158c-5.81,0-9.26-5.25-9.26-14.05s3.45-14.42,9.16-14.42,9.31,5.52,9.31,14.36c0,8.65-3.56,14.12-9.22,14.12m-32.84,0c-5.81,0-9.27-5.25-9.27-14.05s3.45-14.42,9.17-14.42,9.31,5.52,9.31,14.36c0,8.65-3.55,14.12-9.21,14.12m32.8-32.13c-8.62,0-14.62,4.87-16.38,12.84-1.73-7.94-7.79-12.84-16.46-12.84-10.36,0-16.95,7-16.95,18,0,10.78,6.64,17.83,16.84,17.83,8.71,0,14.76-4.91,16.54-12.92,1.73,7.94,7.76,12.92,16.31,12.92,10.46,0,17.09-7.05,17.09-18.07,0-10.81-6.63-17.77-17-17.77" style="fill:#006f52;fill-rule:evenodd"/><path d="M157.54,129.25a6.55,6.55,0,0,0-3.86,1c-.67.51-.77,1.13-.77,4.06v19.36c0,2.05,0,2.46.36,3,.57.77,2.11,1.28,4.07,1.28,6.34,0,10-5.25,10-14.32s-3.65-14.41-9.79-14.41m11.59,28.89c-3,2.42-7,3.55-12.71,3.55-5.36,0-11.49-1.19-13.29-2.57a1.58,1.58,0,0,1-.62-1.14,1.38,1.38,0,0,1,1.41-1.39c1.58-.27,1.68-.37,1.73-1.54l.06-1.14V133.69l-.06-1.14c-.05-1.35-.21-1.55-1.59-1.65-1,0-1.55-.56-1.55-1.34a1.63,1.63,0,0,1,.67-1.24c1.8-1.39,7.82-2.47,13.64-2.47,6.18,0,10.41,1.39,13.54,4.59,3,3,4.69,7.72,4.69,13.28,0,6.22-2.11,11.38-5.92,14.42" style="fill:#006f52;fill-rule:evenodd"/><path d="M186,161.69a19,19,0,0,1-5.41-.73,3.52,3.52,0,0,0-1.12-.24,1.36,1.36,0,0,0-1.09.51,1.65,1.65,0,0,1-1.19.47c-.87,0-1.29-.47-1.59-1.7l-1.29-5.16a3.89,3.89,0,0,1-.16-1,1.63,1.63,0,0,1,2.93-.94l.72,1A9.53,9.53,0,0,0,185.4,158c3.35,0,5.61-1.85,5.61-4.58a5.7,5.7,0,0,0-1.65-3.87,32.15,32.15,0,0,0-5.47-4.42c-4.89-3.4-5.35-3.72-6.94-5.57a8.09,8.09,0,0,1-2-5.41c0-5,3.8-8.29,9.47-8.29a22.72,22.72,0,0,1,4.43.47,12.22,12.22,0,0,0,1.28.31,3.52,3.52,0,0,0,.73.11,2.14,2.14,0,0,0,1.17-.47,1.53,1.53,0,0,1,1.09-.41c.77,0,1.23.52,1.44,1.44l1.24,5.57a2,2,0,0,1,.1.7,1.37,1.37,0,0,1-1.49,1.25c-.56,0-.87-.23-1.34-.87a8.28,8.28,0,0,0-2.47-2.78,8,8,0,0,0-4.84-1.66c-2.36,0-3.92,1.35-3.92,3.46a3.58,3.58,0,0,0,.57,2.1,9.92,9.92,0,0,0,2.37,2.38c.62.46,1.44,1,2.53,1.81,4.07,2.82,5.4,3.86,7,5.56a10.11,10.11,0,0,1,2.78,7c0,6-4.43,9.89-11.22,9.89" style="fill:#006f52;fill-rule:evenodd"/><path d="M179.12,115.94l-.21.57-1.59,3.89c-.52,1.3-.93,1.55-2.52,1.55H155c-1.7,0-2.27-.36-2.27-1.49a1.33,1.33,0,0,1,1.28-1.39h1a1,1,0,0,0,.88-.67,4.29,4.29,0,0,0,.21-1.89V93.23a4.77,4.77,0,0,0-.21-2,.94.94,0,0,0-.88-.67h-1a1.4,1.4,0,0,1-1.39-1.44c0-1.13.62-1.5,2.37-1.5h9.53c1.85,0,2.46.36,2.46,1.5a1.39,1.39,0,0,1-1.33,1.44h-1.13a1.14,1.14,0,0,0-1.09.67,5.31,5.31,0,0,0-.15,2v21.61c0,2.27.1,2.8.71,3.15s1.5.4,5,.4c3.09,0,3.66,0,4.53-.36s1.54-1,2.78-2.78c.62-.87.93-1.08,1.54-1.08a1.28,1.28,0,0,1,1.39,1.13,1.4,1.4,0,0,1-.15.63" style="fill:#006f52;fill-rule:evenodd"/><path d="M205.19,117.32l-1.5,3.45c-.36.89-.62,1.09-1.43,1.13l-1,.05H181.1c-1.74,0-2.31-.36-2.31-1.49a1.33,1.33,0,0,1,1.28-1.39h1a.92.92,0,0,0,.82-.67,4.91,4.91,0,0,0,.21-2.05v-23a4.88,4.88,0,0,0-.21-2,1,1,0,0,0-.82-.77h-1a1.42,1.42,0,0,1-1.34-1.43c0-1.14.63-1.5,2.37-1.5H200.9c1.09,0,1.5.25,1.81,1l1.5,3.82a3.28,3.28,0,0,1,.25.86,1.31,1.31,0,0,1-1.39,1.18.93.93,0,0,1-.56-.17,2.44,2.44,0,0,1-.72-.51,5.46,5.46,0,0,0-.62-.86c-1-1.5-2-1.85-5.24-1.85h-3.46c-2.82,0-3.14.36-3.14,3.08v6.58h6.59c1.5,0,2,.48,2,1.71s-.67,1.8-2,1.8h-4c-1.49,0-1.84.06-2.11.21s-.47.72-.47,1.86v8.13c0,2.73.16,3.3,1,3.6s1.71.36,4.43.36a33.18,33.18,0,0,0,4.79-.2,5,5,0,0,0,3.19-2.47c.62-.94.88-1.14,1.54-1.14a1.22,1.22,0,0,1,1.35,1.24,4.2,4.2,0,0,1-.41,1.43" style="fill:#006f52;fill-rule:evenodd"/><path d="M119.21,119h-1a1,1,0,0,1-.88-.62,5,5,0,0,1-.21-2V93.17a4.76,4.76,0,0,1,.21-2,1,1,0,0,1,.88-.66h1a1.4,1.4,0,0,0,1.34-1.45c0-1.14-.62-1.5-2.36-1.5h-9.37c-1.76,0-2.38.36-2.38,1.5a1.41,1.41,0,0,0,1.39,1.45h1a1,1,0,0,1,.92.66,5.07,5.07,0,0,1,.16,2v7.61H98.72V93.17a6.9,6.9,0,0,1,.16-2,1.12,1.12,0,0,1,1-.66h1a1.36,1.36,0,0,0,1.29-1.45c0-1.14-.57-1.5-2.27-1.5h-17c-1.39,0-2,.41-2,1.45,0,.81.51,1.33,1.65,1.42s1.8.57,1.8,1.36A4.29,4.29,0,0,1,84.13,93l-6.07,19.71L71.94,93.89a6.9,6.9,0,0,1-.51-2.16c0-.93.35-1.22,1.74-1.39,1.14-.15,1.65-.57,1.65-1.39s-.56-1.39-1.75-1.39H63c-1.18,0-1.8.56-1.8,1.55,0,.77.4,1.13,1.5,1.4s1.59.55,1.9,1.32c.1.22.21.62.41,1.2l2.37,6.89-4.79,13.35L55.62,93.89l-.42-1.17a3.22,3.22,0,0,1-.2-1.14c0-.82.46-1.18,1.6-1.3,1.33-.09,1.84-.45,1.84-1.33s-.51-1.39-1.7-1.39H46.15c-1.19,0-1.75.46-1.75,1.34s.35,1.19,1.44,1.38c1.65.37,1.91.63,2.68,2.74L58.6,120.09c.71,1.94,1.44,2.57,2.93,2.57a3,3,0,0,0,1.75-.57,4.84,4.84,0,0,0,1-2l5-14.11,4.73,14.11c.63,1.89,1.4,2.57,2.94,2.57s2.21-.72,3-3.24L88.2,93c.57-1.81.94-2.3,2-2.52h.28a1,1,0,0,1,.87.66,5.06,5.06,0,0,1,.15,2v23.12a5.5,5.5,0,0,1-.15,2,1,1,0,0,1-.87.62h-1a1.42,1.42,0,0,0-1.34,1.43c0,1.12.62,1.49,2.37,1.49h9.36c1.65,0,2.22-.37,2.22-1.44a1.36,1.36,0,0,0-1.24-1.49h-1a1.09,1.09,0,0,1-1-.62,7.3,7.3,0,0,1-.16-2v-9.43c0-2.37.21-2.57,2.11-2.57h7c1,0,1.55.15,1.8.46s.26.52.26,2.43v9.11a5.57,5.57,0,0,1-.16,2,1.08,1.08,0,0,1-.92.62h-1a1.42,1.42,0,0,0-1.34,1.43c0,1.12.57,1.49,2.33,1.49h9.37c1.8,0,2.36-.37,2.36-1.49a1.38,1.38,0,0,0-1.34-1.43" style="fill:#006f52"/><path d="M195.46,165.06a7.94,7.94,0,1,1,0,15.88H55.71a7.94,7.94,0,1,1,0-15.88H195.46m-4.55,5.13a.64.64,0,0,0,0-.21l-.43-1.11a.6.6,0,0,0-.16-.28.44.44,0,0,0-.29-.06h-5.71c-.34,0-.38,0-.5.35l-.39,1a.8.8,0,0,0-.08.29.36.36,0,0,0,.37.31c.14,0,.23-.06.41-.32l.09-.14a1.12,1.12,0,0,1,1.18-.61c.78,0,.79,0,.82.61l0,.35v5.52a1.13,1.13,0,0,1-.06.52.27.27,0,0,1-.25.18h-.36a.35.35,0,0,0-.34.36c0,.29.14.38.62.38h2.62c.45,0,.62-.09.62-.38a.36.36,0,0,0-.36-.36h-.35a.27.27,0,0,1-.26-.18c0-.09,0-.18,0-.52v-5.86c0-.56.08-.63.7-.63a1.63,1.63,0,0,1,.84.11,1.36,1.36,0,0,1,.47.49,1.22,1.22,0,0,1,.12.18c.14.21.26.28.39.28a.34.34,0,0,0,.36-.29m-24,5.59a.31.31,0,0,0-.34-.31c-.18,0-.24.05-.4.29a1.29,1.29,0,0,1-.82.64,9.26,9.26,0,0,1-1.23,0,3.54,3.54,0,0,1-1.14-.09c-.22-.08-.25-.23-.25-.93v-2.07c0-.3,0-.43.11-.48a1.54,1.54,0,0,1,.55-.05h1c.35,0,.51-.17.51-.48s-.12-.43-.51-.43h-1.69v-1.68c0-.7.07-.8.8-.8h.88c.83,0,1.08.1,1.35.47.09.14.14.2.16.23a.45.45,0,0,0,.18.13.29.29,0,0,0,.14,0,.34.34,0,0,0,.36-.29,1.07,1.07,0,0,0-.06-.23l-.39-1c-.08-.21-.19-.27-.46-.27h-5.09c-.46,0-.61.1-.61.4a.36.36,0,0,0,.35.37h.26a.25.25,0,0,1,.21.2,1.3,1.3,0,0,1,.05.52v5.9a1.4,1.4,0,0,1-.05.53.28.28,0,0,1-.21.18h-.26a.33.33,0,0,0-.34.34c0,.29.14.38.6.38H166c.2,0,.27-.06.36-.29l.39-.88a1.16,1.16,0,0,0,.1-.38M143.49,177c0-.25-.12-.35-.42-.37s-.27,0-.35-.12a2.7,2.7,0,0,1-.47-.58l-2.53-3.8,1.58-2.05a3.58,3.58,0,0,1,.61-.63,1.31,1.31,0,0,1,.45-.17c.32-.08.42-.14.42-.36s-.15-.37-.42-.37h-2.18c-.29,0-.45.16-.45.4s.14.36.55.39c.2,0,.29.09.29.22a.26.26,0,0,1-.05.14l-.27.3-1.94,2.46a.62.62,0,0,0-.16.35.6.6,0,0,0,.16.35l2.55,3.82a.71.71,0,0,0,.69.38H143c.31,0,.48-.12.48-.37m-4.69,0a.36.36,0,0,0-.34-.37h-.26a.21.21,0,0,1-.21-.18c-.05-.09-.07-.16-.07-.52V170a1.08,1.08,0,0,1,.07-.53.2.2,0,0,1,.21-.16h.26a.34.34,0,0,0,.34-.37c0-.29-.13-.4-.6-.4h-2.4c-.44,0-.6.1-.6.4a.36.36,0,0,0,.35.37h.25a.27.27,0,0,1,.24.16,1.37,1.37,0,0,1,0,.53v5.93a1.29,1.29,0,0,1,0,.52.28.28,0,0,1-.24.18h-.25a.37.37,0,0,0-.35.36c0,.29.15.38.6.38h2.4c.44,0,.6-.09.6-.37m-20,0a.35.35,0,0,0-.16-.3,1.81,1.81,0,0,0-.37-.12c-.35-.07-.46-.16-.79-.7L115.74,173a2.17,2.17,0,0,0,1.8-2.2c0-1.64-1.18-2.5-3.4-2.5a7.28,7.28,0,0,0-3.32.65.44.44,0,0,0-.14.32c0,.22.14.33.4.33s.4.1.4.46v5.81c0,.34,0,.43,0,.52a.27.27,0,0,1-.24.18h-.25a.37.37,0,0,0-.34.36c0,.29.14.38.59.38h2.41c.45,0,.59-.09.59-.37a.35.35,0,0,0-.33-.37h-.26a.28.28,0,0,1-.24-.18,1.84,1.84,0,0,1,0-.52v-5.46c0-.55.06-.81.22-1a.92.92,0,0,1,.71-.26c.79,0,1.31.67,1.31,1.69s-.4,1.53-1.31,1.67c-.35,0-.49.13-.49.41a1.24,1.24,0,0,0,.23.6l2,3.37a.66.66,0,0,0,.69.38h1.52c.35,0,.54-.12.54-.39m-30-3.16h2l-1-3.1-1,3.1m5,3.54H90.94c-.26,0-.4-.14-.4-.35s.15-.38.5-.4.4-.12.4-.33a2,2,0,0,0-.06-.35l-.25-.76-.05-.19c-.07-.21-.17-.27-.48-.27H88.89a.69.69,0,0,0-.36.06.32.32,0,0,0-.12.15,2,2,0,0,1-.08.25l-.25.76a1.22,1.22,0,0,0-.07.35c0,.19.11.29.38.33s.46.12.46.36-.17.38-.44.38H86.54c-.32,0-.46-.1-.46-.34s.12-.34.37-.37a.44.44,0,0,0,.38-.18,3.43,3.43,0,0,0,.23-.54l2.25-6.73c.22-.68.4-.85.79-.85s.61.21.82.85l2.23,6.57c.21.63.29.7.58.81l.19.05a.32.32,0,0,1,.23.34c0,.27-.15.39-.46.39M69.65,177a.37.37,0,0,0-.35-.38h-.21a.26.26,0,0,1-.25-.16,1.21,1.21,0,0,1-.06-.52v-6a1.25,1.25,0,0,1,.06-.54.29.29,0,0,1,.25-.16h.21a.35.35,0,0,0,.33-.38c0-.27-.14-.38-.54-.38H67.58a.39.39,0,0,0-.41.21l-.11.16-2.27,3.57-2.39-3.57c-.18-.27-.21-.31-.32-.34s-.13,0-.22,0H60.51c-.45,0-.59.1-.59.38a.35.35,0,0,0,.34.38h.25a.29.29,0,0,1,.24.16,2,2,0,0,1,0,.54v6a2,2,0,0,1,0,.52.25.25,0,0,1-.24.16h-.25a.37.37,0,0,0-.34.38c0,.26.14.35.59.35h1.65c.47,0,.62-.09.62-.35a.38.38,0,0,0-.36-.38h-.25a.25.25,0,0,1-.24-.16,1.48,1.48,0,0,1,0-.52v-4.85l2.22,3.28c.17.26.24.31.4.31a.51.51,0,0,0,.43-.31l2-3.21v4.78c0,.35,0,.42-.05.52a.22.22,0,0,1-.22.16h-.24a.37.37,0,0,0-.34.38c0,.26.14.35.59.35h2.43c.4,0,.56-.09.56-.35" style="fill:#006f52;fill-rule:evenodd"/></svg>