<svg xmlns="http://www.w3.org/2000/svg" viewBox="0 0 250 250"><title>Grocery</title><path d="M102.61,126.55c.46-.38.83-.69,1.21-1a5.76,5.76,0,0,1,4.82-1.3A4.59,4.59,0,0,1,112.5,129c.06,2.36,0,4.72,0,7.08a13.91,13.91,0,0,0,.1,1.44,1.48,1.48,0,0,0,1.19,1.37,8.12,8.12,0,0,0,.93.2c.42.06.45.32.43.66s-.27.34-.52.33c-.95-.06-1.9-.19-2.85-.18-1.36,0-2.72.12-4.07.17-.27,0-.6.12-.64-.34s.13-.59.54-.66c1.18-.18,1.61-.58,1.65-1.78.08-2.22.07-4.44.08-6.66a14.27,14.27,0,0,0-.06-1.45c-.22-2.35-1.69-3.15-3.88-2.87a4.35,4.35,0,0,0-2.66,1.6.72.72,0,0,0-.14.45q0,4.17,0,8.35a4.79,4.79,0,0,0,0,.68c.17,1.15.51,1.49,1.66,1.7.24,0,.48.05.54.38s-.08.64-.51.62c-1.1-.06-2.2-.17-3.3-.19-.9,0-1.81.12-2.71.13-1.36,0-2.71-.06-4.07-.06s-2.62,0-3.94.06c-.41,0-.82,0-1.22.07-.25,0-.42-.07-.43-.34s0-.53.3-.61l.62-.13a1.47,1.47,0,0,0,1.24-1.38,9.06,9.06,0,0,0,.09-1.08c0-2.22,0-4.45,0-6.67a6.58,6.58,0,0,0-.18-1.43,2.6,2.6,0,0,0-2.42-2.16,4.32,4.32,0,0,0-4,1.65.68.68,0,0,0-.11.41q0,4.22,0,8.44a4,4,0,0,0,.05.59c.18,1.2.48,1.5,1.68,1.72.27,0,.5.11.52.45s-.1.57-.5.54c-1.1-.06-2.2-.17-3.3-.19-.9,0-1.81.12-2.71.13-1.36,0-2.71-.06-4.07-.07s-2.72,0-4.07.06c-.44,0-.88,0-1.31.07-.26,0-.41-.09-.42-.35s0-.53.32-.61.77-.15,1.15-.26a1.4,1.4,0,0,0,1.07-1.22,9,9,0,0,0,.13-1.22c0-2.48,0-5,0-7.44a5.06,5.06,0,0,0,0-.59,1.32,1.32,0,0,0-1.12-1.25c-.21,0-.41-.1-.62-.12s-.41-.15-.42-.43a.45.45,0,0,1,.38-.52c.94-.28,1.88-.56,2.79-.93.59-.24,1.11-.65,1.68-1a1,1,0,0,1,.65-.12c.09,0,.18.35.16.53A121.61,121.61,0,0,0,76,136.93c0,.17,0,.33,0,.5A1.7,1.7,0,0,0,77.48,139a4.19,4.19,0,0,0,2.19-.06,1.64,1.64,0,0,0,1.3-1.55c0-.44.09-.87.09-1.31q0-3.22,0-6.44c0-.39,0-.78-.08-1.18a1.3,1.3,0,0,0-1.13-1.28c-.21,0-.41-.1-.62-.13s-.44-.13-.45-.44.13-.43.43-.52c1-.34,2.09-.7,3.1-1.12a13.75,13.75,0,0,0,1.22-.76,1.07,1.07,0,0,1,.66-.1c.08,0,.15.32.14.5,0,.61-.06,1.22-.1,1.92.43-.35.78-.66,1.15-.94a5.81,5.81,0,0,1,4.86-1.35A4.61,4.61,0,0,1,94.1,129c0,2.45,0,4.9,0,7.35a5.29,5.29,0,0,0,.2,1.56,1.61,1.61,0,0,0,.7.87,3.85,3.85,0,0,0,3.53,0,1.62,1.62,0,0,0,.81-1.48,11.77,11.77,0,0,0,.07-1.36q0-3,0-6.08a12.6,12.6,0,0,0-.07-1.31,1.28,1.28,0,0,0-1.14-1.32,4.2,4.2,0,0,0-.71-.14c-.28,0-.35-.2-.36-.43a.44.44,0,0,1,.34-.5c1.07-.35,2.14-.72,3.19-1.14a13.12,13.12,0,0,0,1.22-.77,1.06,1.06,0,0,1,.66-.1c.08,0,.15.32.15.49C102.71,125.23,102.65,125.83,102.61,126.55Z"/><path d="M50.48,136c.1-.17.17-.27.24-.39,1.29-2.41,2.58-4.82,3.86-7.24a.79.79,0,0,0,0-.61q-2.07-4.38-4.19-8.74c-.22-.45-.49-.87-.74-1.3a3,3,0,0,0-2.29-1.44c-.16,0-.4,0-.46-.13a1.19,1.19,0,0,1-.15-.66c0-.08.27-.21.41-.2,1.43.05,2.87.18,4.3.18s2.75-.12,4.12-.19c.33,0,.56,0,.57.44s-.14.53-.52.57a5,5,0,0,0-1.23.28,1.1,1.1,0,0,0-.75,1.52,7.34,7.34,0,0,0,.44,1.14c.81,1.67,1.64,3.33,2.46,5,0,.08.09.15.16.27a1.22,1.22,0,0,0,.12-.15c.83-1.56,1.68-3.11,2.49-4.68a4.78,4.78,0,0,0,.47-1.5,1.44,1.44,0,0,0-1.07-1.68,4.59,4.59,0,0,0-1.06-.21c-.33,0-.45-.17-.43-.49s.15-.51.5-.49c1.07.07,2.14.19,3.21.18,1.39,0,2.78-.12,4.17-.18.23,0,.54-.13.58.3s-.09.64-.52.67a3.92,3.92,0,0,0-3.21,2c-1,1.64-1.89,3.3-2.82,5q-.74,1.32-1.44,2.67a.68.68,0,0,0,0,.53q2.18,4.5,4.4,9a1.76,1.76,0,0,0,.14.19l1.37-3.17q2.68-6.22,5.35-12.44a6.67,6.67,0,0,0,.41-1.34,1.81,1.81,0,0,0-1.69-2.38,2.45,2.45,0,0,0-.41,0c-.36,0-.46-.21-.45-.53s.18-.47.52-.45c1.4.08,2.81.18,4.21.19,1,0,2-.12,3-.18.23,0,.48-.05.51.29s-.07.57-.42.65c-.18,0-.36.05-.54.09A3.33,3.33,0,0,0,71.73,118c-.57,1-1.09,2.12-1.58,3.21Q66,130.63,61.8,140c-.13.29-.19.67-.64.67s-.55-.37-.7-.68l-4.67-9.77c-.07-.15-.15-.29-.26-.5-.11.18-.2.3-.27.44L49.92,140a.8.8,0,0,1-.13.23c-.21.17-.41.42-.64.47s-.47-.23-.59-.51q-1.62-3.74-3.26-7.47-2.73-6.27-5.47-12.54a19,19,0,0,0-.93-1.81,4.07,4.07,0,0,0-3.17-2,3.71,3.71,0,0,1-.4-.07c-.31-.08-.37-.32-.36-.6s.21-.36.47-.34c.91,0,1.81.12,2.72.12,1.68,0,3.35,0,5,0q1,0,2-.07c.31,0,.45.12.46.41s0,.54-.39.58a4.39,4.39,0,0,0-1,.23,1.79,1.79,0,0,0-1.14,2.57c.49,1.2,1,2.39,1.55,3.58l5.63,12.91C50.32,135.73,50.39,135.86,50.48,136Z"/><path d="M185.28,131.84c1.45,1.93,2.86,3.85,4.32,5.74a3.79,3.79,0,0,0,2.9,1.57,3.72,3.72,0,0,0,2.24-.58,1.79,1.79,0,0,0,.52-1,3.74,3.74,0,0,0,.12-1.08c0-2.46,0-4.93,0-7.39a3.74,3.74,0,0,0,0-.45c-.13-1.07-.45-1.39-1.53-1.58-.27,0-.64,0-.65-.45a.47.47,0,0,1,.39-.55c1.09-.35,2.18-.72,3.24-1.14a12.07,12.07,0,0,0,1.22-.76,1,1,0,0,1,.62-.11c.09,0,.19.32.17.48-.31,3.8-.29,7.61-.26,11.42a14.52,14.52,0,0,0,.15,1.71,1.35,1.35,0,0,0,1.05,1.17,7.91,7.91,0,0,0,1.06.23c.37.06.47.27.45.6s-.23.4-.53.39c-1.52-.07-3-.17-4.57-.18-1.25,0-2.51.11-3.76.14-.51,0-1-.07-1.54-.06l-5.84.1c-.28,0-.59.08-.63-.37s.13-.6.52-.63l.22,0c.91-.23,1.17-.69.7-1.48-.76-1.28-1.62-2.49-2.48-3.8l-.34.45-2,2.9-.2.3c-.62,1-.43,1.44.72,1.65.37.07.59.19.56.6s-.13.45-.45.42c-.5,0-1-.06-1.49-.11a21,21,0,0,0-3.93.06c-1.17.09-2.35-.06-3.53-.07-1.33,0-2.66,0-4,.05-.44,0-.88,0-1.31.07-.28,0-.44-.09-.45-.37s0-.53.33-.59l1-.21a1.54,1.54,0,0,0,1.27-1.46,11.51,11.51,0,0,0,.09-1.22q0-3.36,0-6.71c0-.38,0-.75-.08-1.13a1.27,1.27,0,0,0-1-1.21,4.85,4.85,0,0,0-.71-.15.39.39,0,0,1-.4-.45.44.44,0,0,1,.35-.49,26.14,26.14,0,0,0,2.66-.88c.66-.28,1.24-.72,1.88-1.06a.87.87,0,0,1,.62-.06c.1,0,.16.33.15.5-.34,3.8-.27,7.61-.26,11.42a12.55,12.55,0,0,0,.16,1.75,1.28,1.28,0,0,0,1,1.09,4.28,4.28,0,0,0,4.54-.94c1.44-1.51,2.74-3.14,4.09-4.73a.44.44,0,0,0,0-.41q-2-2.77-4-5.52a3.77,3.77,0,0,0-2.76-1.56c-.31,0-.56-.11-.55-.51s.12-.53.51-.5c1,.08,2,.2,3,.2,1.46,0,2.93-.12,4.39-.19.3,0,.55,0,.59.37a.5.5,0,0,1-.47.62c-1.36.26-1.58.7-.85,1.87s1.45,2.12,2.22,3.23c.38-.51.73-1,1.06-1.43.53-.75,1.07-1.5,1.55-2.29s.24-1.06-.55-1.3a2.21,2.21,0,0,0-.44-.1c-.41,0-.48-.29-.45-.64s.27-.37.56-.35c.72.07,1.45.17,2.17.16,1.19,0,2.38-.1,3.57-.16.49,0,.66.15.55.6a.61.61,0,0,1-.31.33,1.65,1.65,0,0,1-.49.1,4.75,4.75,0,0,0-2.58,1.2,29.1,29.1,0,0,0-3.31,4Z"/><path d="M146.76,140l-7,.16c-.28,0-.55.06-.58-.36s.11-.57.51-.63a13.36,13.36,0,0,0,1.86-.38,1.89,1.89,0,0,0,1.56-2.05c0-.85,0-1.69,0-2.54q0-7.21,0-14.42c0-.33,0-.67,0-1a1.88,1.88,0,0,0-1.48-1.93,17.17,17.17,0,0,0-2-.41c-.38-.06-.46-.26-.45-.59s.15-.4.46-.4c4.17,0,8.34,0,12.52,0a15,15,0,0,1,7.57,1.69A11.65,11.65,0,0,1,166,128a11.39,11.39,0,0,1-3.55,8.63,12.83,12.83,0,0,1-7.09,3.27,36.46,36.46,0,0,1-6,.15c-.86,0-1.72,0-2.58,0Zm0-12.2c0,3,0,6,0,9.07a1.8,1.8,0,0,0,2,2c1.06,0,2.12.07,3.17.11a8.92,8.92,0,0,0,6.73-2.51,10.87,10.87,0,0,0,3.39-7,12.83,12.83,0,0,0-1.41-7.77c-1.45-2.58-3.53-4.47-6.54-4.9a31.82,31.82,0,0,0-5.16-.1c-1.57,0-2.15.71-2.15,2.29Q146.75,123.35,146.75,127.75Z"/><path d="M115.62,133.32l4.26-5.44,3.34,3.48a2,2,0,0,0,.17-.28,44.67,44.67,0,0,1,8.73-13.67,71.68,71.68,0,0,1,10.19-9.34l-.3.31c-1.3,1.26-2.67,2.46-3.9,3.79a53,53,0,0,0-9.44,14.74,116.53,116.53,0,0,0-5.09,14.41,4.09,4.09,0,0,1-.28.59,3.51,3.51,0,0,1-.46-.45,52.67,52.67,0,0,0-6.59-7.58C116.08,133.72,115.89,133.56,115.62,133.32Z" style="fill:#e51636"/><path d="M204.51,130.49c-.14,2-.29,4,.79,5.81a4.67,4.67,0,0,0,4.61,2.21,5.93,5.93,0,0,0,4.17-2.13,1.74,1.74,0,0,1,.48-.27,6.08,6.08,0,0,1,.25.68c0,.08-.06.2-.12.28a8.19,8.19,0,0,1-4.87,3.47A7.26,7.26,0,0,1,202,137a9,9,0,0,1,2-11.37,7,7,0,0,1,9.91,1.34,5.35,5.35,0,0,1,1,2.72c.05.65-.1.82-.75.82h-9.7Zm.15-1,5.59-.19a3.78,3.78,0,0,0,.8-.12.76.76,0,0,0,.66-.88,2.88,2.88,0,0,0-1.77-2.73,3.09,3.09,0,0,0-3.48.42A5.81,5.81,0,0,0,204.66,129.53Z"/><path d="M74.28,122.78a1.84,1.84,0,0,1-1.85-1.84,1.81,1.81,0,0,1,1.83-1.85,1.84,1.84,0,0,1,1.86,1.83A1.86,1.86,0,0,1,74.28,122.78Z"/><path d="M171.12,122.78a1.85,1.85,0,0,1-1.87-1.82,1.82,1.82,0,0,1,1.83-1.86,1.84,1.84,0,1,1,0,3.68Z"/><path d="M198.74,120.94a1.84,1.84,0,1,1-3.67,0,1.84,1.84,0,1,1,3.67,0Z"/><path d="M129.88,141.41a1.89,1.89,0,1,1,1.89-1.89A1.89,1.89,0,0,1,129.88,141.41Zm0-3.51a1.62,1.62,0,1,0,1.62,1.62A1.62,1.62,0,0,0,129.88,137.9Z" style="fill:#020000"/><path d="M129.57,139.61v.59a.73.73,0,0,0,0,.21.14.14,0,0,0,.07.07.39.39,0,0,0,.17,0v.06h-1v-.06a.38.38,0,0,0,.18,0,.15.15,0,0,0,.06-.07.72.72,0,0,0,0-.21v-1.36a.73.73,0,0,0,0-.21.14.14,0,0,0-.07-.07.39.39,0,0,0-.17,0v-.06h.87a1.68,1.68,0,0,1,.49.05.5.5,0,0,1,.26.19.57.57,0,0,1,.1.33.53.53,0,0,1-.15.38.59.59,0,0,1-.27.14l.45.71a1.05,1.05,0,0,0,.13.17.22.22,0,0,0,.13.05v.06h-.59l-.6-1Zm0-1v.92h.08a.78.78,0,0,0,.29,0,.3.3,0,0,0,.15-.14.58.58,0,0,0,.05-.27.53.53,0,0,0-.1-.35.4.4,0,0,0-.32-.11Z"/></svg>