<svg xmlns="http://www.w3.org/2000/svg" viewBox="0 0 250 250"><title>Grocery</title><path d="M114.17,117.29a16.46,16.46,0,0,1-1.24,5.82,22.22,22.22,0,0,1-3.15,5.5,8.54,8.54,0,0,1-2.78,2.54,3.91,3.91,0,0,1-2.74.42c-.57-.13-1.11-.4-1.68-.51a1.76,1.76,0,0,0-1.08.08,4.48,4.48,0,0,1-5-.29A21.51,21.51,0,0,1,92,126.57,15.69,15.69,0,0,1,89,120.88a17,17,0,0,1-.35-2.31,10.57,10.57,0,0,1,.4-4.35A8.71,8.71,0,0,1,91,110.63,8.82,8.82,0,0,1,93,109a8.38,8.38,0,0,1,3-1,10.3,10.3,0,0,1,5,.69,1.16,1.16,0,0,0,.8-.08,6.58,6.58,0,0,1,3.51-.79,10.28,10.28,0,0,1,4.83,1.66,8.79,8.79,0,0,1,3.89,5.8A14.23,14.23,0,0,1,114.17,117.29Zm-7.5-3.56a8.11,8.11,0,0,1,1.83,5.1,6.07,6.07,0,0,0-.12-5.61.44.44,0,0,0-.4-.1C107.57,113.28,107.18,113.49,106.67,113.73Z" style="fill:#dd1f26"/><path d="M86.13,139.27v10.55h-1.7v-13.5c.55,0,1.11,0,1.66,0,.1,0,.2.17.28.28L89.86,142l3.37-5.37a.62.62,0,0,1,.64-.37c.43,0,.87,0,1.34,0v13.51H93.54V139.28l-.11,0-3.59,5.54-3.6-5.55Z" style="fill:#292973"/><path d="M101.64,144.85a11,11,0,0,0,1.18,5.06l-1.45,1c-.3-.78-.61-1.5-.85-2.25a11,11,0,0,1-.6-3.8,9.7,9.7,0,0,1,2-6,6.22,6.22,0,0,1,4.1-2.33c.87-.12,1.75-.13,2.63-.21.3,0,.43.09.48.39s.16.68.25,1.07c-2-.13-4,0-5.5,1.43a7.09,7.09,0,0,0-2,4.08h5.62v-3.42h1.7v10H107.5v-5Z" style="fill:#292973"/><path d="M141.7,142.22h4.81l-.42,1.42h-4.38v4.79h5.42c-.12.44-.22.82-.35,1.19a.41.41,0,0,1-.29.23H140V136.31h1.31c1.58,0,3.17,0,4.75,0,.29,0,.43.08.48.38s.16.68.25,1.05H141.7Z" style="fill:#292973"/><path d="M165.88,136.31l.38,1.43H163.2a1.34,1.34,0,0,0-1.32.68,1.23,1.23,0,0,0,.22,1.41c1.37,1.91,2.74,3.82,4.1,5.73a2.94,2.94,0,0,1,.51,2.63,2.08,2.08,0,0,1-1.78,1.55c-1.31.1-2.64.09-4,.11a.44.44,0,0,1-.34-.24c-.12-.38-.18-.77-.27-1.18h3.16a1.67,1.67,0,0,0,.43,0,1.15,1.15,0,0,0,.75-1.93c-.5-.82-1.11-1.58-1.67-2.37-.9-1.26-1.82-2.52-2.71-3.79a2.51,2.51,0,0,1,.91-3.68,4.61,4.61,0,0,1,1.52-.31C163.78,136.28,164.81,136.31,165.88,136.31Z" style="fill:#292973"/><path d="M123.83,150l-1.43,1a29.3,29.3,0,0,1-4.17-7.12.47.47,0,0,1,.12-.41c.72-.7,1.52-1.33,2.17-2.08a2.6,2.6,0,0,0,.63-2.52,1.3,1.3,0,0,0-1-.94,8.33,8.33,0,0,0-1.43-.11c-1.61,0-3.23,0-4.83,0,0,0,0-.08,0-.1.13-.43.14-1,.43-1.25s.87-.07,1.32-.07c1.37,0,2.74,0,4.12,0a5.07,5.07,0,0,1,1.74.24,2.54,2.54,0,0,1,1.55,2,4.11,4.11,0,0,1-.65,3.18,11.14,11.14,0,0,1-1.43,1.52c-.19.19-.45.3-.63.5a.47.47,0,0,0-.07.43q1.32,2.25,2.69,4.48C123.13,149.1,123.48,149.49,123.83,150Z" style="fill:#292973"/><path d="M154.47,149.83h-1.72V137.76h-3.54c.14-.49.24-.91.39-1.32,0-.07.21-.12.33-.12h7.69l.36,1.41h-3.5Z" style="fill:#292973"/><path d="M136.22,136.31l-2.16,2.89c-.72,1-1.45,1.93-2.18,2.89a.47.47,0,0,0,0,.66c1.62,2.33,3.22,4.67,4.83,7,0,0,0,0,0,.1-.63,0-1.26,0-1.9,0-.1,0-.23-.14-.3-.25l-4-5.89s0,0,0,0c-.27-.41-.76-.83-.76-1.24s.49-.81.78-1.21q1.72-2.34,3.46-4.67a.52.52,0,0,1,.32-.22C134.87,136.3,135.49,136.31,136.22,136.31Z" style="fill:#292973"/><path d="M111.58,99.29a7.69,7.69,0,0,1-2.25,3.67,7.23,7.23,0,0,1-4,1.81c-.39.05-.79.09-1.19.1s-.56-.17-.51-.59a4.63,4.63,0,0,1,1.11-2.48,7.74,7.74,0,0,1,4.21-2.57A4.79,4.79,0,0,1,111.58,99.29Z" style="fill:#0d6535"/><path d="M127.28,136.34h1.67v13.49h-1.67Z" style="fill:#292973"/><path d="M114,139.83h1.76v10l-.5,0H114Z" style="fill:#292973"/><path d="M48.45,111.89l-4.35,18.36h-3.2l-5.91-23c1,0,1.87,0,2.79,0a.47.47,0,0,1,.34.27c.53,2.28,1,4.56,1.57,6.84.42,1.84.85,3.67,1.27,5.5s.77,3.39,1.15,5.09a3.28,3.28,0,0,0,.13.36c.42.14.51,0,.59-.46.31-1.52.69-3,1-4.53l2-8.74,1-4.35h3.49l1.2,5.16q.41,1.76.81,3.51l1.9,8.32c.06.25.14.49.19.74s.22.44.57.35c.23-.94.48-1.9.7-2.86.3-1.29.59-2.59.88-3.89l1.94-8.41c.2-.85.39-1.7.58-2.55,0-.22.09-.39.37-.39h2.8c-.54,2.11-1.06,4.19-1.59,6.27q-1.48,5.81-3,11.61c-.42,1.62-.83,3.24-1.27,4.86a.52.52,0,0,1-.39.29c-.84,0-1.68,0-2.52,0a.56.56,0,0,1-.42-.31c-.73-3.08-1.44-6.16-2.16-9.24-.45-1.94-.92-3.88-1.39-5.82-.21-.88-.46-1.74-.62-2.63C49,111.89,48.83,111.81,48.45,111.89Z" style="fill:#292973"/><path d="M147.34,121.55,141,111.78v18.46h-3v-23c1,0,2,0,3,0,.11,0,.25.18.32.3l3.14,4.93c.94,1.47,1.89,2.94,2.88,4.47.32-.47.63-.9.91-1.34l3.75-6,1.32-2.09a.61.61,0,0,1,.61-.34c.85,0,1.71,0,2.61,0v23h-2.83V111.93l-.12,0Z" style="fill:#292973"/><path d="M74.91,106.75A11.95,11.95,0,1,1,63,119.56,11.84,11.84,0,0,1,74.91,106.75Zm9.3,11.92A9.31,9.31,0,1,0,74.68,128,9.29,9.29,0,0,0,84.22,118.67Z" style="fill:#292973"/><path d="M179,107.23c.94,0,1.85,0,2.75,0a.79.79,0,0,1,.51.27q1.78,2.13,3.52,4.28c1.22,1.5,2.43,3,3.66,4.52.63.78,1.29,1.54,2,2.39V107.26h2.87v23h-2.86v-.49c0-2.05,0-4.1,0-6.15a1.9,1.9,0,0,0-.43-1.35q-2.12-2.52-4.2-5.07c-1.64-2-3.28-4-5-6.12v19.19H179Z" style="fill:#292973"/><path d="M172.34,121.57h-9.92c0,.63,0,1.25,0,1.86a14.87,14.87,0,0,0,.39,2.59c.37,1.32.85,2.61,1.32,3.9.13.35.17.56-.21.79-.65.38-1.27.83-2,1.29a7.92,7.92,0,0,1-.37-.79c-.58-1.72-1.19-3.43-1.69-5.18a14.88,14.88,0,0,1-.36-2.54,13,13,0,0,1-.1-1.82,17.54,17.54,0,0,1,2.1-8.27,11.8,11.8,0,0,1,6.79-5.61,11.22,11.22,0,0,1,4-.56c.77,0,1.55,0,2.33,0,.24,0,.37.05.43.33.14.65.33,1.28.51,2h-2.19a11.75,11.75,0,0,0-3.87.51,8.6,8.6,0,0,0-2.74,1.51,11.47,11.47,0,0,0-3.86,6.5c-.08.35-.2.69-.31,1.08h9.74v-6.05h2.87v17.18h-2.85Z" style="fill:#292973"/><path d="M118.25,109.53l.63-2.3h7a10.64,10.64,0,0,1,5.41,1.26,6.74,6.74,0,0,1,2.78,3.06,12.46,12.46,0,0,1,1,4.91,13.43,13.43,0,0,1-1.74,7.25,12.53,12.53,0,0,1-6.57,5.69,13.57,13.57,0,0,1-5,.87h-3V113.08h2.83v14.85c.85-.06,1.66-.06,2.46-.2a9.1,9.1,0,0,0,5.4-3.28,11.61,11.61,0,0,0,2.76-6.06,10,10,0,0,0-.32-4.55,5.64,5.64,0,0,0-4.11-4,11.46,11.46,0,0,0-2.55-.3c-2.18,0-4.36,0-6.54,0Z" style="fill:#292973"/><path d="M214,109.53c-1.78,0-3.51,0-5.23,0a3.48,3.48,0,0,0-1.11.19,2.13,2.13,0,0,0-.8,3.45c1.54,2.09,3.06,4.21,4.58,6.32.89,1.23,1.79,2.46,2.65,3.71a4.73,4.73,0,0,1,.62,4.63,3.51,3.51,0,0,1-3.06,2.29c-2.28.17-4.57.1-6.86.13-.09,0-.26-.06-.27-.13-.19-.73-.37-1.46-.56-2.26h.59c1.68,0,3.36,0,5,0a2.22,2.22,0,0,0,2-.95,1.67,1.67,0,0,0,.1-1.83c-.63-1.08-1.33-2.12-2.05-3.14-1.41-2-2.88-3.94-4.3-5.93a24.47,24.47,0,0,1-1.8-2.74,4.3,4.3,0,0,1,.92-5,4.25,4.25,0,0,1,2.62-1c2,0,3.91,0,5.86,0,.33,0,.5.08.57.41C213.61,108.26,213.78,108.88,214,109.53Z" style="fill:#292973"/><path d="M198.48,107.25h2.35l-.55,7h-1.8Z" style="fill:#292973"/><path d="M100.49,106.3c-1.07.09-1.06.09-1.45-.94a5.6,5.6,0,0,0-2-2.54.84.84,0,0,0-.27-.08.71.71,0,0,1-.49-1,.62.62,0,0,1,.94-.22,6.45,6.45,0,0,1,3.19,4.21C100.42,105.91,100.45,106.1,100.49,106.3Z" style="fill:#302d12"/><path d="M177.6,145.4a1.35,1.35,0,0,1-1.39-1.37,1.44,1.44,0,0,1,1.35-1.33c.88.08,1.41.53,1.42,1.37A1.28,1.28,0,0,1,177.6,145.4Z" style="fill:#0d6535"/><path d="M74.2,144.06a1.34,1.34,0,1,1-1.32-1.34A1.23,1.23,0,0,1,74.2,144.06Z" style="fill:#0d6535"/><path d="M106.67,113.73c.5-.24.9-.45,1.31-.61a.44.44,0,0,1,.4.1,6.07,6.07,0,0,1,.12,5.61A8.11,8.11,0,0,0,106.67,113.73Z" style="fill:#fff"/></svg>