<svg xmlns="http://www.w3.org/2000/svg" viewBox="0 0 250 250"><defs><style>.a{fill:#d6d6d6;}.b{fill:#fefefe;}.c{fill:#0d2e72;}.d{fill:#fcfcfc;}.e{fill:#ac1e2c;}.f{fill:#fd335e;}</style></defs><title>Fast Casual</title><path class="a" d="M46.2,222s.08,0,.08.06a2.09,2.09,0,0,0,.85,1.15c-.43,0-.58-.33-.77-.58S46.05,222.28,46.2,222Z"/><path class="a" d="M47.34,223.31a1.05,1.05,0,0,1,.5.14A.33.33,0,0,1,47.34,223.31Z"/><path class="b" d="M220.68,135.13a7.11,7.11,0,0,0,1.78,1.5,13.51,13.51,0,0,0,2.9,1.28,12.86,12.86,0,0,0,6.82.48,4.77,4.77,0,0,0,3.9-3.71,9.16,9.16,0,0,0-1.47-7.63,23.56,23.56,0,0,0-5.58-5.5,23.32,23.32,0,0,1-3.51-2.93,5.71,5.71,0,0,1-1.7-4.15,2.68,2.68,0,0,1,2.41-2.86,4.28,4.28,0,0,1,4,1.6,7.5,7.5,0,0,1,1.36,2.84,17.87,17.87,0,0,1,.55,3.66c0,.39.21.6.52.53a7.79,7.79,0,0,1,1.5-.05c.22,0,.31,0,.3-.29q0-5.36,0-10.71c0-.22-.07-.28-.28-.28-.52,0-1,0-1.55,0s-.55,0-.62.56a2,2,0,0,1,0,.26c-.06.22-.18.29-.39.17a5.75,5.75,0,0,0-.55-.26,13.77,13.77,0,0,0-6.31-.85,6.91,6.91,0,0,0-6.35,8.33,8.53,8.53,0,0,0,3.23,5.26c1.46,1.19,3.06,2.18,4.61,3.24a16.62,16.62,0,0,1,3.52,3,7.08,7.08,0,0,1,1.77,5.23,2,2,0,0,1-1.9,2,7.9,7.9,0,0,1-2.52-.14,11,11,0,0,1-3.35-1.52,5.76,5.76,0,0,1-2.93-4.15,15,15,0,0,1-.23-3c0-.24,0-.45-.31-.53l-1.9-.48a.35.35,0,0,0,0,.09q0,4.83,0,9.65c0,.2.09.26.25.29l1.87.45c.42.09.56-.08.43-.5a3.56,3.56,0,0,1-.23-.8ZM135.17,111h.09l.22-.06a4.78,4.78,0,0,1,3.57.23,11.29,11.29,0,0,1,3.53,2.74c1.56,1.67,2.86,3.56,4.28,5.34.15.19.06.28,0,.41-.8,1-1.6,1.92-2.4,2.88-1.34,1.59-2.62,3.24-4.1,4.7a5,5,0,0,1-3.45,1.52.69.69,0,0,1-.7-.41c-.06-.12-.11-.25-.17-.38q-4.27-9.47-8.53-18.95a.39.39,0,0,0-.42-.27c-1,0-2,0-3,0a.43.43,0,0,0-.47.32c-.44,1-.9,2-1.34,3-2.28,5.13-4.41,10.33-6.8,15.41-.44.95-.91,1.88-1.37,2.82a2.48,2.48,0,0,1-2,1.43c-.29,0-.57.1-.86.14s-.35.11-.34.38c0,.5,0,1,0,1.51,0,.27,0,.37.35.31,2.23-.36,4.46-.69,6.69-1l3.51-.52c.26,0,.31-.11.18-.36A8.92,8.92,0,0,1,121,131c-.14-.39-.37-.45-.75-.38a4.71,4.71,0,0,1-1.73.05c-.44-.09-.58-.27-.5-.72a1.69,1.69,0,0,1,.11-.36q.73-1.72,1.47-3.44c.39-.89.39-.87,1.38-.95q3.11-.24,6.22-.51a.45.45,0,0,1,.52.29c.6,1.21,1.18,2.42,1.74,3.65.25.55.17.74-.41.9a5.82,5.82,0,0,1-1.69.15c-.24,0-.37,0-.37.31s-.08.88-.11,1.32c0,.62,0,.62.58.52,2.23-.35,4.47-.58,6.72-.79l5.16-.48c2.18-.2,4.36-.49,6.56-.51.34,0,.78.12,1-.09s.05-.65.06-1,0-.71,0-1.06c0-.14,0-.33-.29-.21a5.06,5.06,0,0,1-2.93.23c-.48-.09-.54-.28-.22-.66q2.4-2.87,4.9-5.66c.18-.2.24-.15.37,0,.4.56.83,1.11,1.24,1.67l2.9,3.88c.13.17.3.38.21.57s-.39.18-.62.18h-.08a11.38,11.38,0,0,1-1.93-.36c-.21,0-.3,0-.29.23,0,.55,0,1.11,0,1.67,0,.36.11.42.43.41,2,0,4-.09,6-.11,1.77,0,3.53,0,5.3,0,.27,0,.41,0,.36-.36a14.73,14.73,0,0,1-.11-1.51c0-.29-.16-.44-.43-.39a3.61,3.61,0,0,1-2.6-.67,9.09,9.09,0,0,1-2.12-2q-2.67-3.17-5.37-6.31c-.24-.27-.22-.43,0-.67.5-.5,1-1,1.44-1.55a35.11,35.11,0,0,1,4.33-4.22A5,5,0,0,1,161.9,111c.23.06.28,0,.29-.25,0-.45.07-.9.11-1.36s.05-.6-.56-.6H152.2c-.6,0-.6,0-.6.61s0,1.44,0,2.2A11.51,11.51,0,0,1,153,111a2.47,2.47,0,0,1,1.45.14.46.46,0,0,1,0,.12l-4.4,4.95c-.15.17-.23.11-.35,0q-2.06-2.4-4.12-4.79c-.18-.21-.08-.26.11-.3a2.84,2.84,0,0,1,2.56.39s.1.09.16.05c0-.78,0-1.56,0-2.35,0-.33-.07-.42-.41-.42-4.13,0-8.25,0-12.38,0h-.19c-.15,0-.2.06-.2.2C135.17,109.67,135.17,110.35,135.17,111Zm28.4.31a2.4,2.4,0,0,1,1.18-.41,10.76,10.76,0,0,1,1.32.07c.86.09,1.2.45,1.2,1.32q0,7,0,13.93a5,5,0,0,1-.06.68,1,1,0,0,1-.78.86,2.73,2.73,0,0,1-.94.07,11.38,11.38,0,0,1-1.57-.25c-.22-.06-.28,0-.29.23,0,.55,0,1.11-.05,1.66s0,.49.49.5q3.67,0,7.34.13c1.85.05,3.7.13,5.55.22a47.74,47.74,0,0,0,5.51.18,4.53,4.53,0,0,0,3.2-1.5,6.32,6.32,0,0,0,.44-7.47,7.37,7.37,0,0,0-2.1-2.14l.31-.28a4.73,4.73,0,0,0,1.75-3.59,5.15,5.15,0,0,0-2.55-4.79,9.77,9.77,0,0,0-2.65-1,36.32,36.32,0,0,0-7.35-.8c-3.14-.1-6.28,0-9.42,0-.14,0-.23,0-.25.19C163.76,109.85,163.67,110.56,163.57,111.34Zm36.11,8.54-.35-.47c-1.35-1.89-2.59-3.85-3.88-5.77a11.86,11.86,0,0,1-1-1.59c-.31-.67-.13-1.05.58-1.25a5.23,5.23,0,0,1,1.35-.18c.39,0,.92.13,1.13-.06s0-.76.07-1.16-.07-.44-.43-.44c-3.65,0-7.29,0-10.94,0-.34,0-.78-.11-1,.06s-.07.66-.08,1c0,.73,0,.76.71.71a1.63,1.63,0,0,1,1.66.88c.16.27.32.54.5.8l7.46,11a.75.75,0,0,1,.18.44c0,1.54,0,3.08,0,4.62a.88.88,0,0,1-.86,1,7.11,7.11,0,0,1-2-.07c-.24,0-.34,0-.33.28,0,.53,0,1.06,0,1.59,0,.25.09.31.32.33,1.68.14,3.36.32,5,.55l6.89,1c.25,0,.33,0,.32-.26q0-.91,0-1.82c0-.23-.08-.3-.29-.33-.54-.07-1.07-.17-1.61-.24a1.7,1.7,0,0,1-1.44-1.13,5.56,5.56,0,0,1-.37-2c0-1.13,0-2.27.06-3.4a.85.85,0,0,1,.18-.52c.51-.66,1-1.32,1.5-2,2.27-3.12,4.41-6.33,6.81-9.36a3.08,3.08,0,0,1,2.86-1.41c.21,0,.25-.09.25-.27,0-.38,0-.76,0-1.13s-.08-.38-.38-.38h-11c-.18,0-.27,0-.27.24,0,.38,0,.76,0,1.13s.08.3.31.27a11.39,11.39,0,0,1,1.85,0,3.18,3.18,0,0,1,1.24.28,1,1,0,0,1,.62,1,2.92,2.92,0,0,1-.59,1.49c-.73,1-1.47,2-2.22,3C201.57,117.49,200.63,118.66,199.67,119.88Zm37.06,17.83a2.18,2.18,0,0,0,0,4.35,2.17,2.17,0,0,0,2.18-2.23A2.15,2.15,0,0,0,236.74,137.71Z"/><path class="c" d="M135.17,111c0-.68,0-1.36,0-2,0-.14,0-.21.2-.2h.19c4.13,0,8.25,0,12.38,0,.34,0,.42.09.41.42,0,.78,0,1.56,0,2.35-.07,0-.12,0-.16-.05a2.84,2.84,0,0,0-2.56-.39c-.19,0-.3.09-.11.3q2.07,2.39,4.12,4.79c.11.13.2.2.35,0l4.4-4.95a.46.46,0,0,0,0-.12A2.47,2.47,0,0,0,153,111a11.51,11.51,0,0,0-1.37.61c0-.76,0-1.48,0-2.2s0-.61.6-.61h9.54c.61,0,.61,0,.56.6s-.09.9-.11,1.36c0,.21-.06.31-.29.25a5,5,0,0,0-4.44,1.16,35.11,35.11,0,0,0-4.33,4.22c-.48.52-.94,1.05-1.44,1.55-.24.24-.26.4,0,.67q2.7,3.14,5.37,6.31a9.09,9.09,0,0,0,2.12,2,3.61,3.61,0,0,0,2.6.67c.27-.05.42.1.43.39a14.73,14.73,0,0,0,.11,1.51c.05.35-.1.36-.36.36-1.77,0-3.53,0-5.3,0-2,0-4,.06-6,.11-.32,0-.45-.05-.43-.41,0-.55,0-1.11,0-1.67,0-.24.08-.27.29-.23a11.38,11.38,0,0,0,1.93.36h.08c.23,0,.51,0,.62-.18s-.08-.4-.21-.57l-2.9-3.88c-.41-.56-.84-1.11-1.24-1.67-.13-.18-.2-.23-.37,0q-2.49,2.79-4.9,5.66c-.32.38-.26.58.22.66a5.06,5.06,0,0,0,2.93-.23c.29-.12.28.08.29.21,0,.35,0,.71,0,1.06s.14.78-.06,1-.64.09-1,.09c-2.2,0-4.37.31-6.56.51l-5.16.48c-2.25.21-4.49.45-6.72.79-.63.1-.63.11-.58-.52,0-.44.1-.88.11-1.32s.13-.32.37-.31a5.82,5.82,0,0,0,1.69-.15c.58-.16.67-.35.41-.9-.56-1.22-1.14-2.44-1.74-3.65a.45.45,0,0,0-.52-.29q-3.11.27-6.22.51c-1,.08-1,.05-1.38.95q-.74,1.72-1.47,3.44a1.69,1.69,0,0,0-.11.36c-.08.44.06.63.5.72a4.71,4.71,0,0,0,1.73-.05c.38-.06.6,0,.75.38a8.92,8.92,0,0,0,.57,1.19c.13.24.07.32-.18.36l-3.51.52c-2.23.34-4.46.66-6.69,1-.33.05-.36,0-.35-.31,0-.5,0-1,0-1.51,0-.27.1-.35.34-.38s.57-.1.86-.14a2.48,2.48,0,0,0,2-1.43c.47-.93.93-1.87,1.37-2.82,2.39-5.08,4.52-10.28,6.8-15.41.44-1,.9-2,1.34-3a.43.43,0,0,1,.47-.32c1,0,2,0,3,0a.39.39,0,0,1,.42.27q4.26,9.48,8.53,18.95c.06.13.11.26.17.38a.69.69,0,0,0,.7.41,5,5,0,0,0,3.45-1.52c1.49-1.46,2.76-3.12,4.1-4.7.81-1,1.6-1.92,2.4-2.88.11-.13.2-.22,0-.41-1.42-1.78-2.72-3.67-4.28-5.34a11.29,11.29,0,0,0-3.53-2.74,4.78,4.78,0,0,0-3.57-.23l-.22.06Zm-13.54,11c1.51,0,3-.21,4.58-.32l-2.41-4.78-2.21,5.06V122Z"/><path class="c" d="M97.93,134c2.89-.54,5.78-1,8.28-2.75a5.29,5.29,0,0,0,2.49-3.41,5.87,5.87,0,0,0,.11-1c0-.33.16-.45.45-.37.56.16,1.1.36,1.67.46.18,0,.15.17.13.29l-.9,5.71c-.07.42-.15.84-.2,1.27a.36.36,0,0,1-.34.36c-2.88.61-5.77,1.19-8.62,1.93a93,93,0,0,0-12.76,4.16c-.35.15-.39,0-.4-.27,0-.53-.07-1.06-.1-1.58l0-.75L90,134.23c3.08-5.27,6.37-10.4,9.55-15.61q2-3.32,4-6.69c.06-.11.12-.22.19-.35a4.1,4.1,0,0,0-1,0c-1.41,0-2.82-.2-4.23-.16a9,9,0,0,0-1.84.22A4,4,0,0,0,93.52,115c-.16.75-.27,1.51-.38,2.27,0,.28-.13.37-.43.32-.46-.08-.92-.11-1.39-.15-.23,0-.32-.09-.32-.35q0-3.94,0-7.87c0-.26.07-.37.34-.33a3.28,3.28,0,0,0,.42,0h19.87c.49,0,.59.16.35.61-1.23,2.37-2.6,4.67-4,7-3.31,5.64-6.65,11.26-9.82,17a1.86,1.86,0,0,0-.28.57l0,0S97.91,134.07,97.93,134Z"/><path class="c" d="M163.57,111.34c.1-.78.19-1.49.28-2.2,0-.18.11-.19.25-.19,3.14,0,6.28-.06,9.42,0a36.32,36.32,0,0,1,7.35.8,9.77,9.77,0,0,1,2.65,1,5.15,5.15,0,0,1,2.55,4.79,4.73,4.73,0,0,1-1.75,3.59l-.31.28a7.37,7.37,0,0,1,2.1,2.14,6.32,6.32,0,0,1-.44,7.47,4.53,4.53,0,0,1-3.2,1.5,47.74,47.74,0,0,1-5.51-.18c-1.85-.08-3.7-.16-5.55-.22q-3.67-.11-7.34-.13c-.5,0-.5,0-.49-.5s0-1.11.05-1.66c0-.22.06-.29.29-.23a11.38,11.38,0,0,0,1.57.25,2.73,2.73,0,0,0,.94-.07,1,1,0,0,0,.78-.86,5,5,0,0,0,.06-.68q0-7,0-13.93c0-.88-.33-1.23-1.2-1.32a10.76,10.76,0,0,0-1.32-.07A2.4,2.4,0,0,0,163.57,111.34Zm9,12.52h0c0,.92,0,1.84,0,2.76a.42.42,0,0,0,.43.5,17.27,17.27,0,0,0,4.67.16,5.44,5.44,0,0,0,2.62-.9,2.38,2.38,0,0,0,.69-3.18,4.14,4.14,0,0,0-2.73-2,40.68,40.68,0,0,0-5.49-.46c-.27,0-.2.17-.2.31C172.55,122,172.55,122.93,172.55,123.86Zm.08-8.93c0,.79,0,1.59,0,2.38,0,.23.06.29.3.31,1.22.07,2.44.19,3.66.24a5.42,5.42,0,0,0,2.76-.46,1.4,1.4,0,0,0,.82-1.06,3,3,0,0,0-1.18-3,4.63,4.63,0,0,0-1.7-.8,16.13,16.13,0,0,0-4.36-.3c-.26,0-.3.15-.3.37C172.63,113.36,172.62,114.15,172.62,114.93Z"/><path class="c" d="M220.62,135.19a3.56,3.56,0,0,0,.23.8c.14.42,0,.59-.43.5l-1.87-.45c-.16,0-.26-.09-.25-.29q0-4.83,0-9.65a.35.35,0,0,1,0-.09l1.9.48c.29.07.32.28.31.53a15,15,0,0,0,.23,3,5.76,5.76,0,0,0,2.93,4.15,11,11,0,0,0,3.35,1.52,7.9,7.9,0,0,0,2.52.14,2,2,0,0,0,1.9-2,7.08,7.08,0,0,0-1.77-5.23,16.62,16.62,0,0,0-3.52-3c-1.55-1.06-3.15-2-4.61-3.24a8.53,8.53,0,0,1-3.23-5.26,6.91,6.91,0,0,1,6.35-8.33,13.77,13.77,0,0,1,6.31.85,5.75,5.75,0,0,1,.55.26c.21.12.33,0,.39-.17a2,2,0,0,0,0-.26c.07-.56.07-.56.62-.56s1,0,1.55,0c.21,0,.28.06.28.28q0,5.36,0,10.71c0,.25-.09.28-.3.29a7.79,7.79,0,0,0-1.5.05c-.32.07-.5-.14-.52-.53a17.87,17.87,0,0,0-.55-3.66,7.5,7.5,0,0,0-1.36-2.84,4.28,4.28,0,0,0-4-1.6,2.68,2.68,0,0,0-2.41,2.86,5.71,5.71,0,0,0,1.7,4.15,23.32,23.32,0,0,0,3.51,2.93,23.56,23.56,0,0,1,5.58,5.5,9.16,9.16,0,0,1,1.47,7.63,4.77,4.77,0,0,1-3.9,3.71,12.86,12.86,0,0,1-6.82-.48,13.51,13.51,0,0,1-2.9-1.28,7.11,7.11,0,0,1-1.78-1.5s0-.11-.07-.08S220.62,135.14,220.62,135.19Z"/><path class="c" d="M199.67,119.88c1-1.22,1.89-2.39,2.81-3.58.75-1,1.49-2,2.22-3a2.92,2.92,0,0,0,.59-1.49,1,1,0,0,0-.62-1,3.18,3.18,0,0,0-1.24-.28,11.39,11.39,0,0,0-1.85,0c-.23,0-.33,0-.31-.27s.05-.75,0-1.13c0-.22.09-.25.27-.24h11c.3,0,.4.07.38.38s0,.76,0,1.13c0,.18,0,.29-.25.27a3.08,3.08,0,0,0-2.86,1.41c-2.4,3-4.54,6.24-6.81,9.36-.49.67-1,1.33-1.5,2a.85.85,0,0,0-.18.52c0,1.13-.1,2.27-.06,3.4a5.56,5.56,0,0,0,.37,2,1.7,1.7,0,0,0,1.44,1.13c.54.07,1.07.17,1.61.24.21,0,.3.1.29.33q0,.91,0,1.82c0,.27-.08.3-.32.26l-6.89-1c-1.67-.23-3.35-.4-5-.55-.23,0-.33-.07-.32-.33,0-.53,0-1.06,0-1.59,0-.27.09-.31.33-.28a7.11,7.11,0,0,0,2,.07.88.88,0,0,0,.86-1c0-1.54,0-3.08,0-4.62a.75.75,0,0,0-.18-.44l-7.46-11c-.18-.26-.35-.53-.5-.8a1.63,1.63,0,0,0-1.66-.88c-.71,0-.73,0-.71-.71,0-.35-.16-.81.08-1s.65-.06,1-.06c3.65,0,7.29,0,10.94,0,.36,0,.47.1.43.44s.17.93-.07,1.16-.74.06-1.13.06a5.23,5.23,0,0,0-1.35.18c-.71.2-.88.58-.58,1.25a11.86,11.86,0,0,0,1,1.59c1.29,1.93,2.54,3.88,3.88,5.77Z"/><path class="c" d="M215.82,108.48a1.93,1.93,0,0,1,.9,0,2.31,2.31,0,0,1,1.49,2.78,23.21,23.21,0,0,1-1.7,5.11c-.46,1.08-.94,2.14-1.4,3.22-.1.24-.21.28-.45.21-.49-.15-1-.27-1.5-.38-.16,0-.25-.09-.23-.27.28-2.5.19-5,.68-7.52a5.14,5.14,0,0,1,.93-2.24A2.31,2.31,0,0,1,215.82,108.48Z"/><path class="c" d="M236.74,137.71a2.15,2.15,0,0,1,2.19,2.13,2.18,2.18,0,1,1-4.35.07A2.15,2.15,0,0,1,236.74,137.71Zm0,.31a1.86,1.86,0,1,0,1.84,1.86A1.86,1.86,0,0,0,236.77,138Z"/><path class="d" d="M121.57,121.94l2.21-5.06,2.41,4.78c-1.57.11-3.07.27-4.58.32Z"/><path class="d" d="M121.62,122l0,0v-.08Z"/><path class="b" d="M97.93,134s0,.05-.07,0l0,0Z"/><path class="b" d="M172.55,123.86c0-.93,0-1.87,0-2.8,0-.13-.07-.33.2-.31a40.68,40.68,0,0,1,5.49.46,4.14,4.14,0,0,1,2.73,2,2.38,2.38,0,0,1-.69,3.18,5.44,5.44,0,0,1-2.62.9,17.27,17.27,0,0,1-4.67-.16.42.42,0,0,1-.43-.5c0-.92,0-1.84,0-2.76Z"/><path class="b" d="M172.62,114.93c0-.78,0-1.56,0-2.35,0-.22,0-.36.3-.37a16.13,16.13,0,0,1,4.36.3,4.63,4.63,0,0,1,1.7.8,3,3,0,0,1,1.18,3,1.4,1.4,0,0,1-.82,1.06,5.42,5.42,0,0,1-2.76.46c-1.22-.05-2.44-.17-3.66-.24-.23,0-.3-.08-.3-.31C172.63,116.52,172.62,115.72,172.62,114.93Z"/><path class="b" d="M220.62,135.19s0-.13,0-.13.05,0,.07.08Z"/><path class="d" d="M236.77,138a1.86,1.86,0,1,1-1.87,1.84A1.87,1.87,0,0,1,236.77,138Zm.54,1.94a.63.63,0,0,0,.42-.75.61.61,0,0,0-.64-.52l-1,0c-.15,0-.23,0-.23.21q0,1,0,2c0,.16.07.19.21.19s.24,0,.23-.2,0-.33,0-.49,0-.17.09-.22a.64.64,0,0,1,.9.51c0,.09,0,.18,0,.26s.11.14.21.14.18,0,.18-.12C237.71,140.57,237.74,140.19,237.3,140Z"/><path class="c" d="M237.3,140c.44.23.4.61.4,1,0,.14-.09.12-.18.12s-.21,0-.21-.14,0-.18,0-.26a.64.64,0,0,0-.9-.51c-.11,0-.09.14-.09.22s0,.33,0,.49-.09.2-.23.2-.21,0-.21-.19q0-1,0-2c0-.17.08-.22.23-.21l1,0a.61.61,0,0,1,.64.52A.63.63,0,0,1,237.3,140Zm-.66-.16c.47,0,.68-.14.66-.42s-.37-.36-.65-.4-.32.21-.34.45S236.37,139.87,236.65,139.8Z"/><path class="d" d="M236.65,139.8c-.28.06-.37-.08-.34-.37s-.05-.5.34-.45.62,0,.65.4S237.12,139.8,236.65,139.8Z"/><path class="e" d="M46.76,162.51A37.59,37.59,0,0,1,12,133.16a35.89,35.89,0,0,1-.87-6.85,37.29,37.29,0,0,1,4-18.25A36.69,36.69,0,0,1,21.52,99,37.3,37.3,0,0,1,39.18,88.63a36.39,36.39,0,0,1,7.7-1.15A37.6,37.6,0,0,1,85.09,116a35.91,35.91,0,0,1,1,6.77,37.58,37.58,0,0,1-31.6,39.37,35.49,35.49,0,0,1-4,.41C49.27,162.57,48,162.58,46.76,162.51Zm4.64-42.82.22.08s0,.06,0,0h0c0-.1,0-.18-.06-.26-.45-1.05-.89-2.11-1.36-3.16a4.32,4.32,0,0,1-.34-1.56,19.89,19.89,0,0,1,.74-6.35c.48-1.76,1.46-3,3.43-3.21a1.69,1.69,0,0,0,1.46-1.31,2.6,2.6,0,0,1-2.1.18c.06-.11.18-.14.27-.2a2.51,2.51,0,0,0,1.06-1.33c.13-.46.13-.46-.32-.39l-.09,0a5.79,5.79,0,0,0,.64-2.11c-.18.12-.28.19-.39.24s-.32.32-.57.3h0a4.71,4.71,0,0,0,.32-2.34l-.78,1.05a2.43,2.43,0,0,1-.11-.66,10.25,10.25,0,0,0-2-4.5,5.27,5.27,0,0,0-2.82-2.06,2.37,2.37,0,0,0-1.32,0c-.36.1-.43.39-.19.66a2.16,2.16,0,0,1,.59,1h0A10.5,10.5,0,0,1,46.58,93a6.72,6.72,0,0,0-4.94-.9A6.43,6.43,0,0,0,38,94.47a1.88,1.88,0,0,0-.43.56c1.46-.36,2.88-.64,4.32.19-4.32-.36-5.22,2.62-4.61,5.25l.14-.12A6.83,6.83,0,0,1,39.06,99a3.09,3.09,0,0,1,2.43-.35,1.64,1.64,0,0,1,1.16,1.58,5.27,5.27,0,0,1-.67,1.81c0,.09-.13.08-.21.08a8.16,8.16,0,0,0-1.48.18,9,9,0,0,0-6.82,5.82.58.58,0,0,0-.07.36,2.43,2.43,0,0,1,1.23-.64,5.29,5.29,0,0,1,3.33.41,22.32,22.32,0,0,0,2.67,1.11c.28.08.27.15.12.36a26.72,26.72,0,0,1-4.84,4.75s-.1.12-.15.06-.25,0-.32.1a7.19,7.19,0,0,1-1.73,1.52,2,2,0,0,0-.81.91c-.28.61-.61,1.21-.94,1.85l.67-.05-.1.2a13.79,13.79,0,0,0-2,8.86,17,17,0,0,0,2.8,7.74A19,19,0,0,0,42,142.63a.48.48,0,0,1,.36.55c0,.2-.1.44.08.61a1.32,1.32,0,0,1,.38,1,1.25,1.25,0,0,0,.68,1.17c.16.09.18.16.12.33a3.71,3.71,0,0,1-1.88,2.14,7.24,7.24,0,0,1-2.75.72,9,9,0,0,1-3.79-.36,10.55,10.55,0,0,0-3.16-.7,3.08,3.08,0,0,0-2.06.46.4.4,0,0,1-.23.06,1.79,1.79,0,0,0-1.23.65,5,5,0,0,0-.92,2.13c-.07.25,0,.29.21.19.36-.2.72,0,1.07,0,.14,0,.09.11.09.18,0,.23,0,.47,0,.7s.05.25.24.21a2.91,2.91,0,0,0,1.28-.53c.17-.13.26-.15.4.05a2.28,2.28,0,0,0,1.46.92,3.6,3.6,0,0,0,2.63-.51,3.26,3.26,0,0,1,2.9-.28,6.32,6.32,0,0,0,4.24,0c.86-.28,1.69-.64,2.57-.84.11,0,.24-.1.31,0,.21.29.43.13.63,0a.25.25,0,0,1,.34,0,4.66,4.66,0,0,0,.67.57c.3.18.32.35.19.68a2.66,2.66,0,0,0,.9,3.35.57.57,0,0,1,.29.45,1.52,1.52,0,0,0,.37.82,1.45,1.45,0,0,1,.23.35.61.61,0,0,0,.69.42.59.59,0,0,0,.55-.53,7.2,7.2,0,0,1,.32-.92c0-.09.06-.18.18-.22a5.3,5.3,0,0,0,1.34-.65.17.17,0,0,1,.26,0A4.58,4.58,0,0,0,54.09,157a.58.58,0,0,1,.34.23,4.53,4.53,0,0,0,1.78,1.22c0-.52.09-1,.14-1.49,0-.13,0-.27.17-.36A2.2,2.2,0,0,0,57.75,154h.07l.25.11a4.68,4.68,0,0,0,3,.35,3.17,3.17,0,0,1,1.81-.16h0a3.7,3.7,0,0,1,1.34.23l.63.17c0-.07,0-.1,0-.13a2.1,2.1,0,0,0-1.53-2.4c-.11,0-.12-.12-.14-.21a1.79,1.79,0,0,0-.89-1.18,2.71,2.71,0,0,0-1.58-.34,10.57,10.57,0,0,1-3.47-.35,5.46,5.46,0,0,1-3.54-2.67.28.28,0,0,1,.06-.41,2,2,0,0,1,1.09-.62,4.58,4.58,0,0,0,.84-.26,9.36,9.36,0,0,0,5.63-5,1.26,1.26,0,0,1,1-.81,9.24,9.24,0,0,0,2.28-.64,13.15,13.15,0,0,0,3.21-2.4,18.73,18.73,0,0,0,3.82-5,4.16,4.16,0,0,0,.48-1.26h0l0,0-.48.17a1,1,0,0,1-.51.12,14.55,14.55,0,0,0,3.45-8.38,3.64,3.64,0,0,0-.6-2.41c-.31.28-.5.66-.82.92h0a.9.9,0,0,1,.1-.41,5.21,5.21,0,0,0-1-5.27s-.05,0-.08,0l-.09.39a8.4,8.4,0,0,1-8.55,6.82c-1.71.07-3.41-.08-5.12-.18a19,19,0,0,0-3.47.07,2.26,2.26,0,0,1-2-.73,9.18,9.18,0,0,1-1.51-2.38Zm18.47,31.65A1.7,1.7,0,1,0,68.16,153,1.69,1.69,0,0,0,69.88,151.34Z"/><path class="b" d="M47.72,93.71a2.16,2.16,0,0,0-.59-1c-.24-.28-.17-.56.19-.66a2.37,2.37,0,0,1,1.32,0,5.27,5.27,0,0,1,2.82,2.06,10.25,10.25,0,0,1,2,4.5,2.43,2.43,0,0,0,.11.66l.78-1.05a4.72,4.72,0,0,1-.32,2.34h0c.25,0,.38-.21.57-.3s.2-.13.39-.24a5.79,5.79,0,0,1-.64,2.11l.09,0c.45-.07.45-.07.32.39a2.51,2.51,0,0,1-1.06,1.33c-.09.06-.21.09-.27.2a2.6,2.6,0,0,0,2.1-.18A1.69,1.69,0,0,1,54,105.24c-2,.18-3,1.45-3.43,3.21a19.89,19.89,0,0,0-.74,6.35,4.32,4.32,0,0,0,.34,1.56c.47,1,.91,2.1,1.36,3.16,0,.08.1.16.06.26h0l-.22-.08-.06,0,0,0a9.18,9.18,0,0,0,1.51,2.38,2.26,2.26,0,0,0,2,.73,19,19,0,0,1,3.47-.07c1.7.09,3.41.25,5.12.18a8.4,8.4,0,0,0,8.55-6.82l.09-.39s.07,0,.08,0a5.21,5.21,0,0,1,1,5.27.9.9,0,0,0-.1.41l0,0,0,0,0,0c.32-.26.51-.65.82-.92a3.64,3.64,0,0,1,.6,2.41,14.55,14.55,0,0,1-3.45,8.38,1,1,0,0,0,.51-.12l.48-.17h0a4.16,4.16,0,0,1-.48,1.27,18.73,18.73,0,0,1-3.82,5,13.15,13.15,0,0,1-3.21,2.4,9.24,9.24,0,0,1-2.28.64,1.26,1.26,0,0,0-1,.81,9.36,9.36,0,0,1-5.63,5,4.58,4.58,0,0,1-.84.26,2,2,0,0,0-1.09.62.28.28,0,0,0-.06.41,5.46,5.46,0,0,0,3.54,2.67,10.57,10.57,0,0,0,3.47.35,2.71,2.71,0,0,1,1.58.34A1.79,1.79,0,0,1,63.2,152c0,.09,0,.16.14.21a2.1,2.1,0,0,1,1.53,2.4s0,.06,0,.13l-.63-.17a3.7,3.7,0,0,0-1.34-.23h0a3.17,3.17,0,0,0-1.81.16,4.68,4.68,0,0,1-3-.35l-.25-.11h-.07a2.2,2.2,0,0,1-1.23,2.53c-.16.09-.16.22-.17.36-.05.48-.09,1-.14,1.49a4.53,4.53,0,0,1-1.78-1.22.58.58,0,0,0-.34-.23,4.58,4.58,0,0,1-2.16-1.13.17.17,0,0,0-.26,0,5.3,5.3,0,0,1-1.34.65c-.12,0-.15.13-.18.22a7.2,7.2,0,0,0-.32.92.59.59,0,0,1-.55.53.61.61,0,0,1-.69-.42,1.45,1.45,0,0,0-.23-.35,1.52,1.52,0,0,1-.37-.82.57.57,0,0,0-.29-.45,2.66,2.66,0,0,1-.9-3.35c.13-.32.11-.49-.19-.68a4.66,4.66,0,0,1-.67-.57.25.25,0,0,0-.34,0c-.19.12-.41.28-.63,0-.07-.1-.21,0-.31,0-.88.2-1.71.56-2.57.84a6.32,6.32,0,0,1-4.24,0,3.26,3.26,0,0,0-2.9.28,3.6,3.6,0,0,1-2.63.51,2.28,2.28,0,0,1-1.46-.92c-.14-.2-.24-.18-.4-.05a2.91,2.91,0,0,1-1.28.53c-.19,0-.26,0-.24-.21s0-.47,0-.7c0-.07.05-.18-.09-.18-.36,0-.71-.17-1.07,0-.18.1-.27.06-.21-.19a5,5,0,0,1,.92-2.13,1.79,1.79,0,0,1,1.23-.65.4.4,0,0,0,.23-.06,3.08,3.08,0,0,1,2.06-.46,10.55,10.55,0,0,1,3.16.7,9,9,0,0,0,3.79.36,7.24,7.24,0,0,0,2.75-.72,3.71,3.71,0,0,0,1.88-2.14c.06-.17,0-.25-.12-.33a1.25,1.25,0,0,1-.68-1.17,1.32,1.32,0,0,0-.38-1c-.18-.17-.09-.41-.08-.61a.48.48,0,0,0-.36-.55,19,19,0,0,1-8.71-6.95,17,17,0,0,1-2.8-7.74,13.79,13.79,0,0,1,2-8.86l.1-.2-.67.05c.33-.64.66-1.23.94-1.85a2,2,0,0,1,.81-.91,7.19,7.19,0,0,0,1.73-1.52c.07-.08.13-.3.32-.1s.11,0,.15-.06a26.72,26.72,0,0,0,4.84-4.75c.15-.21.17-.28-.12-.36A22.32,22.32,0,0,1,38,108.28a5.29,5.29,0,0,0-3.33-.41,2.43,2.43,0,0,0-1.23.64.58.58,0,0,1,.07-.36,9,9,0,0,1,6.82-5.82,8.16,8.16,0,0,1,1.48-.18c.08,0,.17,0,.21-.08a5.27,5.27,0,0,0,.67-1.81,1.64,1.64,0,0,0-1.16-1.58,3.09,3.09,0,0,0-2.43.35,6.83,6.83,0,0,0-1.65,1.34l-.14.12c-.61-2.63.29-5.6,4.61-5.25-1.44-.83-2.86-.55-4.32-.19a1.88,1.88,0,0,1,.43-.56,6.43,6.43,0,0,1,3.64-2.34,6.72,6.72,0,0,1,4.94.9,10.5,10.5,0,0,0,1.14.69l0,0v0Zm-.53,51.89a.86.86,0,0,1-.37.88s0,0,0,.05a1.62,1.62,0,0,0,1.38,2.36c.49,0,1-.08,1.45-.11a1,1,0,0,0,.93-.67l0-.06c.14-.21.14-.35-.17-.34a.25.25,0,0,1-.19-.09,3.32,3.32,0,0,1-.9-1.21.22.22,0,0,0-.28-.18A2,2,0,0,1,47.19,145.6Z"/><path class="d" d="M69.88,151.34a1.7,1.7,0,1,1-1.7-1.71A1.69,1.69,0,0,1,69.88,151.34Zm-.3,0a1.4,1.4,0,0,0-1.4-1.42,1.41,1.41,0,0,0,0,2.81A1.39,1.39,0,0,0,69.58,151.34Z"/><path class="b" d="M51.62,119.78h0s0,0,0,0Z"/><path class="b" d="M72.13,131l0,0h0Z"/><path class="e" d="M47.19,145.6a2,2,0,0,0,1.86.65.22.22,0,0,1,.28.18,3.32,3.32,0,0,0,.9,1.21.25.25,0,0,0,.19.09c.31,0,.31.12.17.34l0,.06a1,1,0,0,1-.93.67c-.48,0-1,.13-1.45.11a1.62,1.62,0,0,1-1.38-2.36s0,0,0-.05A.86.86,0,0,0,47.19,145.6Z"/><path class="f" d="M51.37,119.72l0,0,.06,0Z"/><path class="f" d="M73.17,121.42l0,0,0,0,0,0Z"/><path class="f" d="M54,100.61h0Z"/><path class="f" d="M47.72,93.71l0,0v0l0,0Z"/><path class="e" d="M69.58,151.34a1.39,1.39,0,0,1-1.42,1.4,1.41,1.41,0,0,1,0-2.81A1.4,1.4,0,0,1,69.58,151.34Zm-.62.91-.36-.63c-.07-.12-.1-.2.08-.26s.32-.34.28-.6a.43.43,0,0,0-.46-.36c-.27,0-.55,0-.82,0s-.18,0-.18.17c0,.53,0,1.05,0,1.58,0,.09,0,.15.13.16s.14-.08.14-.18,0-.3,0-.46-.05-.22.11-.23.24,0,.31.12.21.35.3.53A.29.29,0,0,0,69,152.25Z"/><path class="d" d="M69,152.25a.29.29,0,0,1-.43-.16c-.09-.18-.21-.35-.3-.53s-.19-.13-.31-.12-.11.15-.11.23,0,.3,0,.46,0,.18-.14.18-.13-.06-.13-.16c0-.53,0-1.05,0-1.58,0-.13.05-.18.18-.17s.55,0,.82,0a.43.43,0,0,1,.46.36c0,.26,0,.51-.28.6s-.16.14-.08.26Zm-.82-1.12h.28c.14,0,.28,0,.28-.22s-.12-.23-.27-.24-.24,0-.36,0-.27.07-.26.28S68,151.09,68.13,151.13Z"/><path class="e" d="M68.13,151.13c-.1,0-.33.13-.34-.19s0-.3.26-.28.24,0,.36,0,.27.08.27.24-.14.2-.28.22Z"/></svg>