<svg xmlns="http://www.w3.org/2000/svg" viewBox="0 0 23.09 24.5"><title>Dine</title><path d="M23,6.63,16.71.14A.47.47,0,0,0,16.38,0H7.07A1.89,1.89,0,0,0,5.18,1.89V8.48H1.41A1.41,1.41,0,0,0,0,9.89V17a1.41,1.41,0,0,0,1.41,1.41H5.18v4.24A1.89,1.89,0,0,0,7.07,24.5H21.2a1.89,1.89,0,0,0,1.89-1.88V7A.47.47,0,0,0,23,6.63ZM16.49,1.27,21.62,6.6H16.49ZM1.41,17.43A.47.47,0,0,1,.94,17V9.89a.47.47,0,0,1,.47-.47H14.14a.47.47,0,0,1,.47.47V17a.47.47,0,0,1-.47.47Zm20.73,5.19a.94.94,0,0,1-.95.94H7.07a1,1,0,0,1-.95-.94V18.38h8A1.41,1.41,0,0,0,15.55,17V9.89a1.41,1.41,0,0,0-1.41-1.41h-8V1.89A1,1,0,0,1,7.07.94h8.48V7.07a.47.47,0,0,0,.47.47h6.13Zm0,0" style="fill:#969696"/><path d="M10,11.5v.68h1.2v3.36H12V12.19h1.2V11.5Zm0,0" style="fill:#969696"/><path d="M9.4,12a1.06,1.06,0,0,0-.58-.4,4.74,4.74,0,0,0-1-.06H6.54v4h.82V14h.53A4.65,4.65,0,0,0,8.74,14a1.18,1.18,0,0,0,.42-.19,1.11,1.11,0,0,0,.34-.4,1.32,1.32,0,0,0,.14-.63A1.26,1.26,0,0,0,9.4,12Zm-.7,1.11a.54.54,0,0,1-.26.2,2.12,2.12,0,0,1-.65.06H7.36V12.19h.39a3.91,3.91,0,0,1,.59,0,.57.57,0,0,1,.33.18.52.52,0,0,1,.13.36.54.54,0,0,1-.09.31Zm0,0" style="fill:#969696"/><path d="M5.63,12a1.06,1.06,0,0,0-.58-.4,4.74,4.74,0,0,0-1-.06H2.77v4h.82V14h.53A4.65,4.65,0,0,0,5,14a1.19,1.19,0,0,0,.42-.19,1.11,1.11,0,0,0,.34-.4,1.32,1.32,0,0,0,.14-.63A1.26,1.26,0,0,0,5.63,12Zm-.7,1.11a.54.54,0,0,1-.26.2,2.12,2.12,0,0,1-.65.06H3.58V12.19H4a3.92,3.92,0,0,1,.59,0,.57.57,0,0,1,.33.18.52.52,0,0,1,.13.36.54.54,0,0,1-.09.31Zm0,0" style="fill:#969696"/></svg>