<svg xmlns="http://www.w3.org/2000/svg" viewBox="0 0 40.47 27.88"><defs><style>.a{fill:#414042;}</style></defs><title>Dine</title><path class="a" d="M8.32,25.28a.37.37,0,1,1,0,.74,24.29,24.29,0,0,1-5.76-1.15C1.11,24.38,0,23.73,0,22.95a.37.37,0,0,1,.37-.37H40.1a.37.37,0,0,1,.37.37h0c0,.78-1.12,1.43-2.56,1.92A24.29,24.29,0,0,1,32.15,26a.37.37,0,0,1,0-.74,23.35,23.35,0,0,0,5.52-1.11,6.37,6.37,0,0,0,1.82-.85H1a6.37,6.37,0,0,0,1.82.85,23.35,23.35,0,0,0,5.52,1.11Z"/><path class="a" d="M17.25,20.8a.37.37,0,1,1-.68-.3A10.77,10.77,0,0,1,37,22.88a.37.37,0,0,1-.73.14,10,10,0,0,0-19-2.21Z"/><path class="a" d="M18.6,22.61a.37.37,0,1,1-.72-.17,8.48,8.48,0,0,1,3-4.84,8.82,8.82,0,0,1,5.49-1.81A9,9,0,0,1,32,17.6a8.12,8.12,0,0,1,3,4.82.37.37,0,1,1-.73.15,7.39,7.39,0,0,0-2.7-4.38,8.23,8.23,0,0,0-5.1-1.66,8.1,8.1,0,0,0-5,1.65,7.74,7.74,0,0,0-2.76,4.43Z"/><path class="a" d="M3.39,22.83a.37.37,0,0,1-.65-.36A10,10,0,0,1,6.2,18.81a8.75,8.75,0,0,1,4.63-1.29,8.29,8.29,0,0,1,4.46,1.31,10.23,10.23,0,0,1,3.41,3.64.37.37,0,0,1-.65.36,9.49,9.49,0,0,0-3.15-3.37,7.56,7.56,0,0,0-4.07-1.19,8,8,0,0,0-4.24,1.18,9.28,9.28,0,0,0-3.2,3.39Z"/><path class="a" d="M10.89,18.07a.37.37,0,1,1-.65-.35,5.57,5.57,0,0,1,9.37-.64.37.37,0,0,1-.59.44,4.82,4.82,0,0,0-3.89-2,4.83,4.83,0,0,0-4.24,2.51Z"/><path class="a" d="M12.94,18.31a.37.37,0,0,1-.61-.42,3.35,3.35,0,0,1,1.3-1.11,4.16,4.16,0,0,1,3.64.09,3.47,3.47,0,0,1,1.35,1.31.37.37,0,1,1-.64.37,2.73,2.73,0,0,0-1.07-1,3.44,3.44,0,0,0-3-.07,2.62,2.62,0,0,0-1,.86Z"/><path class="a" d="M23.62,22.56a.37.37,0,0,1-.72-.17,3.65,3.65,0,0,1,1.3-2.09,3.79,3.79,0,0,1,2.36-.78,3.86,3.86,0,0,1,2.38.78,3.51,3.51,0,0,1,1.28,2.08.37.37,0,1,1-.73.15,2.77,2.77,0,0,0-1-1.65,3.12,3.12,0,0,0-1.93-.63,3.07,3.07,0,0,0-1.9.62,2.92,2.92,0,0,0-1,1.67Z"/><path class="a" d="M21.13,22.69a.37.37,0,1,1-.73-.14,6.29,6.29,0,0,1,11.76-1.71A8.55,8.55,0,0,1,32.63,22a3.4,3.4,0,0,1,.17.94.37.37,0,1,1-.74,0,2.67,2.67,0,0,0-.14-.73,7.64,7.64,0,0,0-.41-1,5.55,5.55,0,0,0-10.38,1.51Z"/><path class="a" d="M7.56,23.16a.37.37,0,0,1-.61-.42,4.64,4.64,0,0,1,7.65,0,.37.37,0,0,1-.61.42,3.92,3.92,0,0,0-1.4-1.24,3.91,3.91,0,0,0-3.62,0,3.92,3.92,0,0,0-1.4,1.24Z"/><path class="a" d="M5.17,23.15a.37.37,0,0,1-.61-.41A9.43,9.43,0,0,1,7.39,20a6.44,6.44,0,0,1,3.37-1,6.73,6.73,0,0,1,3.48,1,9,9,0,0,1,2.83,2.77.37.37,0,1,1-.62.41,8.28,8.28,0,0,0-2.6-2.55,6,6,0,0,0-3.1-.87,5.71,5.71,0,0,0-3,.87,8.68,8.68,0,0,0-2.6,2.55Z"/><path class="a" d="M31.78,25.65a.37.37,0,1,1,.74,0,2.23,2.23,0,0,1-2.22,2.22H10.17a2.21,2.21,0,0,1-1.57-.65l0,0a2.21,2.21,0,0,1-.63-1.55.37.37,0,0,1,.74,0,1.48,1.48,0,0,0,.42,1l0,0a1.47,1.47,0,0,0,1,.43H30.3a1.48,1.48,0,0,0,1.48-1.48Z"/><path class="a" d="M21,9.78a.31.31,0,0,1,0,.47.4.4,0,0,1-.52,0A2.71,2.71,0,0,1,19.35,8a2.57,2.57,0,0,1,.57-1.48v0a2,2,0,0,0,.44-1.09,1.55,1.55,0,0,0-.44-1A2.08,2.08,0,0,1,19.35,3a2.69,2.69,0,0,1,.55-1.48A2.3,2.3,0,0,0,20.38.33a.37.37,0,0,1,.74,0,2.8,2.8,0,0,1-.57,1.55A2.2,2.2,0,0,0,20.1,3a1.58,1.58,0,0,0,.45,1,2.07,2.07,0,0,1,.58,1.36,2.5,2.5,0,0,1-.55,1.43v0A2.07,2.07,0,0,0,20.1,8a2.29,2.29,0,0,0,.25,1.12,2.21,2.21,0,0,0,.64.7Z"/><path class="a" d="M17.54,10.77a.37.37,0,0,1-.74,0,1.55,1.55,0,0,0-.44-1,2.08,2.08,0,0,1-.58-1.37,2.69,2.69,0,0,1,.55-1.48,2.3,2.3,0,0,0,.47-1.22.37.37,0,0,1,.74,0A2.8,2.8,0,0,1,17,7.27a2.2,2.2,0,0,0-.45,1.15,1.58,1.58,0,0,0,.45,1,2.07,2.07,0,0,1,.58,1.36Z"/><path class="a" d="M24.7,10.77a.37.37,0,0,1-.74,0,1.55,1.55,0,0,0-.44-1,2.09,2.09,0,0,1-.58-1.37,2.69,2.69,0,0,1,.55-1.48A2.3,2.3,0,0,0,24,5.72a.37.37,0,0,1,.74,0,2.8,2.8,0,0,1-.57,1.55,2.2,2.2,0,0,0-.45,1.15,1.58,1.58,0,0,0,.45,1,2.06,2.06,0,0,1,.58,1.35Z"/><path class="a" d="M8.32,26a.37.37,0,1,1,0-.74H32.15a.37.37,0,0,1,0,.74Z"/></svg>