<svg id="Layer_1" data-name="Layer 1" xmlns="http://www.w3.org/2000/svg" viewBox="0 0 57.3 85.5"><defs><style>.cls-1{fill:none;stroke:#040404;stroke-linecap:round;stroke-miterlimit:10;stroke-width:1.7px;}</style></defs><title>icons</title><path class="cls-1" d="M3.05,28.55h44.8a2.22,2.22,0,0,1,2.2,2.2v3.1a2.22,2.22,0,0,1-2.2,2.2H3.05a2.22,2.22,0,0,1-2.2-2.2v-3.1A2.1,2.1,0,0,1,3.05,28.55Z"/><path class="cls-1" d="M3.85,28.25s2-20.6,20.8-21.2c19.6-.6,21.9,15.5,22.4,21.2"/><polyline class="cls-1" points="44.05 16.95 47.05 4.75 56.45 0.85"/><path class="cls-1" d="M25.55,12.35s10.3-.3,14.5,9.3"/><path class="cls-1" d="M4.65,36.15,12,81.85a3.22,3.22,0,0,0,3.2,2.7l20.3.1a3.15,3.15,0,0,0,3.2-2.7l7.6-45.8"/><path class="cls-1" d="M40,41.45,34,76.25a3.22,3.22,0,0,1-3.2,2.7H17.35"/></svg>