<svg id="Layer_1" data-name="Layer 1" xmlns="http://www.w3.org/2000/svg" viewBox="0 0 100 100"><defs><style>.cls-1{fill:#040404;}</style></defs><title>ICON_1-9</title><path class="cls-1" d="M59.16,23.5l-.91,10.07H17.49l-.85-9.34h-1.8l5.43,59.71A4.44,4.44,0,0,0,24.71,88H51.08a4.43,4.43,0,0,0,4.44-4.05L61,23.5ZM53.73,83.78a2.64,2.64,0,0,1-2.64,2.41H24.71a2.64,2.64,0,0,1-2.64-2.41L17.66,35.38H58.09Z"/><path class="cls-1" d="M57.75,14A16.87,16.87,0,0,0,40.89,30.86a17.49,17.49,0,0,0,.11,2H42.8a19.07,19.07,0,0,1-.1-2A15.05,15.05,0,1,1,60.46,45.67v1.78A17.13,17.13,0,0,0,74.61,30.86,16.87,16.87,0,0,0,57.75,14"/><path class="cls-1" d="M28.78,63a3.81,3.81,0,0,0,1.81-.46l5.35-2.88a3.83,3.83,0,0,0,1.56-5.2l-2.88-5.35a3.84,3.84,0,0,0-5.2-1.56l-5.35,2.88a3.84,3.84,0,0,0-1.56,5.2L25.4,61a3.84,3.84,0,0,0,3.38,2M23.94,53.2a2,2,0,0,1,1-1.21l5.35-2.88A2,2,0,0,1,31.82,49a2,2,0,0,1,1.2,1l2.88,5.35A2,2,0,0,1,35.09,58l-5.35,2.88A2,2,0,0,1,27,60.1L24.1,54.75a2,2,0,0,1-.16-1.55"/><path class="cls-1" d="M27.19,55.32a1.55,1.55,0,0,1,.63-2.1l2-1.07-.86-1.59-2,1.07a3.36,3.36,0,0,0-1.36,4.55l1.27,2.36,1.59-.86Z"/><path class="cls-1" d="M51,59.09a3.84,3.84,0,0,0-4.49-3l-6,1.15a3.84,3.84,0,0,0-3,4.49l1.15,6a3.84,3.84,0,0,0,3.77,3.11,3.73,3.73,0,0,0,.73-.07l6-1.15a3.84,3.84,0,0,0,3-4.49Zm-2.23,8.69-6,1.15a2,2,0,0,1-2.38-1.61l-1.15-6A2,2,0,0,1,40.93,59l6-1.15a2,2,0,0,1,2.38,1.61l1.15,6a2,2,0,0,1-1.61,2.38"/><path class="cls-1" d="M48.83,61l-1.77.34.43,2.22a1.55,1.55,0,0,1-1.23,1.81l-2.63.51L44,67.63l2.63-.5a3.36,3.36,0,0,0,2.66-3.93Z"/><path class="cls-1" d="M21.71,21.8A2.71,2.71,0,0,0,23,21.47l3.8-2a2.72,2.72,0,0,0,1.11-3.69l-2-3.8a2.73,2.73,0,0,0-3.69-1.11l-3.8,2a2.72,2.72,0,0,0-1.11,3.69l2,3.8a2.73,2.73,0,0,0,2.4,1.43m-3.43-6.94A1.44,1.44,0,0,1,19,14l3.8-2a1.43,1.43,0,0,1,1.1-.11,1.42,1.42,0,0,1,.85.7l2,3.8a1.44,1.44,0,0,1-.59,2l-3.8,2a1.44,1.44,0,0,1-2-.59l-2-3.8a1.43,1.43,0,0,1-.11-1.1"/><path class="cls-1" d="M20.58,16.36A1.1,1.1,0,0,1,21,14.87l1.41-.76L21.83,13l-1.41.76a2.38,2.38,0,0,0-1,3.23l.9,1.67L21.48,18Z"/><path class="cls-1" d="M37.52,19a2.73,2.73,0,0,0-3.19-2.16l-4.24.82a2.73,2.73,0,0,0-2.16,3.19l.82,4.24a2.73,2.73,0,0,0,2.67,2.21,2.65,2.65,0,0,0,.52,0l4.24-.82a2.73,2.73,0,0,0,2.16-3.19Zm-1.59,6.17L31.7,26A1.45,1.45,0,0,1,30,24.88l-.82-4.24A1.45,1.45,0,0,1,30.34,19l4.24-.82.28,0a1.44,1.44,0,0,1,1.41,1.17l.82,4.24a1.44,1.44,0,0,1-1.14,1.69"/><path class="cls-1" d="M35.94,20.38l-1.26.24L35,22.2a1.1,1.1,0,0,1-.87,1.29l-1.87.36.24,1.26,1.87-.36A2.39,2.39,0,0,0,36.25,22Z"/><path class="cls-1" d="M35.52,67.35a3.76,3.76,0,0,0-2.65-1,3.68,3.68,0,0,0-2.59,1.15l-4,4.21a3.71,3.71,0,0,0,.13,5.24l4.21,4a3.72,3.72,0,0,0,5.24-.13l4-4.21a3.71,3.71,0,0,0-.13-5.24Zm3,8-4,4.21a1.91,1.91,0,0,1-2.69.07l-4.21-4a1.9,1.9,0,0,1-.07-2.69l4-4.21a1.89,1.89,0,0,1,1.33-.59h0a1.89,1.89,0,0,1,1.31.52l4.21,4a1.9,1.9,0,0,1,.07,2.69"/><path class="cls-1" d="M32.88,69.45a3.23,3.23,0,0,0-2.27,1L29.12,72l1.31,1.24,1.49-1.56a1.45,1.45,0,0,1,2-.05l1.86,1.76,1.24-1.31L35.2,70.34a3.22,3.22,0,0,0-2.32-.89"/><path class="cls-1" d="M70.68,84.43l-.47-.11-.13-.11c-.07-.06-7.28-6.55-.68-15.35.13-.19,3.73-5.37,13.95-6.35l1.8-.17-1.25,1.31c-.72.76-2.4,2.52-2.7,8s-.62,11.46-10.4,12.75ZM81.85,64.05c-8.3,1.27-11.32,5.54-11.35,5.59-5.42,7.24-.65,12.47.32,13.41,8.48-1.2,8.75-6.18,9-11.46.22-4,1.15-6.24,2-7.53"/><path class="cls-1" d="M68.75,83.17a5.1,5.1,0,0,1-5.15-4.56c-.73-3.89-2.42-4.55-3.05-4.8l-2.25-.88,2.38-.41a13.76,13.76,0,0,1,7.22.57l-.53,1.24a12.17,12.17,0,0,0-4.6-.67,8.6,8.6,0,0,1,2.16,4.71c.72,3.87,4,3.47,4.34,3.42l.21,1.33a4.7,4.7,0,0,1-.72.05"/><path class="cls-1" d="M69.62,86.7a29.55,29.55,0,0,1,.53-3.61c.21-1.07.51-2.3.9-3.6a35.74,35.74,0,0,1,1.46-4,28.5,28.5,0,0,1,2-3.75,16.19,16.19,0,0,1,1.08-1.62,15.23,15.23,0,0,1,1.07-1.37l1-1.11.82-.78.71-.68-.67.72-.77.82-.89,1.15a15.3,15.3,0,0,0-1,1.42,15.94,15.94,0,0,0-1,1.65,27.94,27.94,0,0,0-1.7,3.79,34.7,34.7,0,0,0-1.19,4c-.3,1.29-.53,2.5-.67,3.55A28.09,28.09,0,0,0,71,86.76Z"/></svg>