<svg id="Layer_1" data-name="Layer 1" xmlns="http://www.w3.org/2000/svg" viewBox="0 0 500 500"><title>Icon</title><path d="M203.22,234.74a9.28,9.28,0,0,0,9.28-9.28V187.34l2.76,2.76a9.28,9.28,0,0,0,13.12.17l.17-.17,3-3v38.62a9.28,9.28,0,0,0,9.28,9.28h34.11a59.19,59.19,0,0,0,58.19-59.44V141.45a9.28,9.28,0,0,0-9.28-9.28H289.75a59.19,59.19,0,0,0-21.82,4.26,58.94,58.94,0,0,0-15.8-53.92L227,57.43a9.28,9.28,0,0,0-13.12-.17l-.17.17L188.68,82.51a58.94,58.94,0,0,0-16.05,53.92,59.19,59.19,0,0,0-21.57-4H117a9.28,9.28,0,0,0-9.28,9.28v33.86a58.94,58.94,0,0,0,58.94,58.94h34.11ZM314.83,151v25.08a40.38,40.38,0,0,1-40.38,40.38H249.37V191.36A40.38,40.38,0,0,1,289.75,151ZM204.22,95.8l17.55-17.56L239.33,95.8a40.63,40.63,0,0,1,0,57.18l-17.55,17.56L204.22,153a40.38,40.38,0,0,1-.08-57.1Zm-75.24,80V150.73h25.08a40.38,40.38,0,0,1,40.38,40.38v25.08H169.36A40.38,40.38,0,0,1,129,175.81Z"/><path d="M249.87,307A28.09,28.09,0,0,0,222,334.81h18.56a9.28,9.28,0,0,1,18.56-.1v.1h18.56A27.84,27.84,0,0,0,249.87,307Z"/><path d="M324.11,316.25a27.84,27.84,0,0,0-27.84,27.84h18.56a9.28,9.28,0,0,1,18.56-.1v.1h18.56A28.09,28.09,0,0,0,324.11,316.25Z"/><path d="M394.08,280.89l32.1-120.38a8.7,8.7,0,0,0,0-2.26,18.56,18.56,0,0,0-18.56-18.56H389.07a18.31,18.31,0,0,0-9.28,2.51V9.28A9.28,9.28,0,0,0,370.51,0H16.89A9.28,9.28,0,0,0,7.61,9.28V437.39a9.28,9.28,0,0,0,5.52,8.53l65,27.84a9.28,9.28,0,0,0,3.76,0h142.7A175.56,175.56,0,0,0,492.39,326h0c0-27.84-57.43-39.88-98.56-44.89ZM389.32,158h18.31L373.27,286.41h0l-5.52,21.32A9.28,9.28,0,0,0,374.47,319h2.31a9.28,9.28,0,0,0,9-7l3.51-13.54c63.45,7.52,84.52,22.32,84.52,26.58,0,9-53.17,30.6-156.25,30.6S161.34,334.06,161.34,325s53.17-30.6,156.25-30.6h16.3l-1.75,7a9.28,9.28,0,0,0,6.72,11.27h2.31a9.28,9.28,0,0,0,9-7l4.52-18.06,34.11-128.41a8.2,8.2,0,0,0,0-2.26ZM72.81,451.43l-46.4-19.81V18.56h46.4Zm127.4,4.77H91.62V18.56H361.48v173.3l-22.57,85H317.84c-60.44,0-175.56,10.28-175.56,50.16h0a170.8,170.8,0,0,0,0,18.06v5.27c0,1.76,0,8.28,2,12.29s0,4.51,1.75,6.77,1.75,6.77,2.76,10.28,2,5.27,2.76,7.77a73.2,73.2,0,0,0,3.26,8.53c1.26,2.76,2.76,5.52,4,8.28l3.76,7.27,5,8.28,4.26,6.52,5.77,7.52,5,6.27,6,6.52,6.27,6.52,2.76,2.76Zm117.62,27.09a155,155,0,0,1-86-25.08l-3.51-2.51-7.78-5.77-2.76-2.26q-5-4.26-9.53-8.78l-1.75-1.76q-4.52-4.51-8.78-9.53h0a93.2,93.2,0,0,1-8.28-11.29v-1.5a152.35,152.35,0,0,1-13.29-25.08v-2c-1.75-4.26-3.26-8.53-4.76-12.79v-1.76c0-4-2.26-8-3.26-12v-9c35.61,18.56,109.6,25.08,154,25.08s118.37-5.52,154.24-25.08a156.25,156.25,0,0,1-154,132.17Z"/></svg>