<svg id="Layer_1" data-name="Layer 1" xmlns="http://www.w3.org/2000/svg" viewBox="0 0 42.22 88.37"><defs><style>.cls-1,.cls-2{fill:none;stroke:#040404;stroke-miterlimit:10;stroke-width:1.7px;}.cls-2{stroke-linecap:round;}</style></defs><title>icons</title><path class="cls-1" d="M32.28,17.58c.68.23,2.49.93,3.26,1.18a7.32,7.32,0,0,1,4.91,9.12q-.1.33-.23.64a1.78,1.78,0,0,0,.12,1.77,7.42,7.42,0,0,1-.61,8.43,2.76,2.76,0,0,0-.55,1.3q-1.52,14.26-3,28.52Q35.33,76.75,34.51,85c-.21,2.12-.67,2.56-2.77,2.56H10.2c-1.7,0-2.26-.47-2.44-2.15-.65-6.15-1.27-12.3-1.91-18.45S4.57,54.7,3.93,48.58c-.28-2.72-.53-5.44-.86-8.15a4,4,0,0,0-.69-1.83A7.52,7.52,0,0,1,3.83,28.07L3.94,28a1.61,1.61,0,0,0,.69-1.87,8.93,8.93,0,0,1,2.7-8.3A11,11,0,0,1,10.78,16a2.74,2.74,0,0,0,1.62-1.15A5,5,0,0,1,17,12.23"/><path d="M20.39,10.3c-4-.16-6.66-2.31-9.12-4.86A1.49,1.49,0,0,1,11.19,4C13.35,1.85,15.77.11,19,0c2.57-.06,4.35,1.33,5.77,3.29.44.61.83,1.26,1.2,1.82,1.11-.9,2.21-1.83,3.35-2.7.54-.42,1.2-.7,1.67.05s-.12,1.16-.7,1.52A11.56,11.56,0,0,0,25.63,9.7a7.62,7.62,0,0,1,5,3.92,7.26,7.26,0,0,1,.69,4.64A7.46,7.46,0,0,1,17,19.83C15.63,16.42,16.73,13.2,20.39,10.3Zm4.77,1.31.12.31-1.49,1.29-1.16-1.58c-2.33.18-4.36,2.64-4.3,5.6a5.61,5.61,0,0,0,5.3,5.36,5.67,5.67,0,0,0,5.85-5.08,5.48,5.48,0,0,0-4.32-5.89ZM12.91,4.51c1.83,1.76,3.54,3.11,5.76,3.62A5.29,5.29,0,0,0,23.8,6.7a1.1,1.1,0,0,0,.29-.92,5.6,5.6,0,0,0-6.93-3.44A32.09,32.09,0,0,0,12.91,4.51Z"/><line class="cls-1" x1="2.63" y1="39.5" x2="39.63" y2="39.5"/><path class="cls-1" d="M7.63,35.58S7,31.91,9.13,30.16c-.58-3.5.83-5.5,4.33-5.92"/><polyline class="cls-2" points="8.13 46.83 11.88 81.58 22.63 81.58"/></svg>