<svg id="Layer_1" data-name="Layer 1" xmlns="http://www.w3.org/2000/svg" viewBox="0 0 52.83 79.7"><defs><style>.cls-1{fill:none;stroke:#040404;stroke-miterlimit:10;stroke-width:1.7px;}</style></defs><title>icons</title><path class="cls-1" d="M.85,78.36V19A.49.49,0,0,1,1,18.64l9-9.26A.49.49,0,0,0,10.13,9V1.34a.49.49,0,0,1,.49-.49h31a.49.49,0,0,1,.49.49V9a.49.49,0,0,0,.16.36l9.55,9a.49.49,0,0,1,.16.36V78.36a.49.49,0,0,1-.49.49H1.34A.49.49,0,0,1,.85,78.36Z"/><path class="cls-1" d="M10,9.23H41.08a.49.49,0,0,1,.35.84l-8.58,8.56a.49.49,0,0,0-.14.35V78.8"/><line class="cls-1" x1="0.85" y1="18.78" x2="32.71" y2="18.78"/><line class="cls-1" x1="15.95" y1="13.74" x2="23.75" y2="13.74"/><line class="cls-1" x1="6.6" y1="31.17" x2="26.9" y2="31.17"/><line class="cls-1" x1="6.6" y1="37.72" x2="27.12" y2="37.72"/><line class="cls-1" x1="6.5" y1="44.01" x2="26.8" y2="44.01"/></svg>