<svg id="Layer_1" data-name="Layer 1" xmlns="http://www.w3.org/2000/svg" viewBox="0 0 500 500"><title>Icon</title><path d="M265.23,183.34a7.75,7.75,0,0,1-11,.29l-.29-.29a89.8,89.8,0,1,0-.67,127l.67-.67a7.87,7.87,0,0,1,11.26,11,105.55,105.55,0,1,1-.7-149.27l.7.7a7.75,7.75,0,0,1,.29,11ZM431.56,461.73A395.19,395.19,0,0,0,331.51,500a38.27,38.27,0,0,1-38.27-38.27V308.65a7.75,7.75,0,0,1,6.63-8.74l.13,0a22.51,22.51,0,0,0,0-44h-4a7.75,7.75,0,0,1-2-5.25h0V198.1a47.77,47.77,0,0,1,30.52-44.52v-38a7.75,7.75,0,0,1,7.75-7.75H393a7.75,7.75,0,0,1,7.75,7.75v38a47.77,47.77,0,0,1,30.52,44.52v51.78a7.75,7.75,0,0,1-6,7.75,22.51,22.51,0,0,0,0,44,7.75,7.75,0,0,1,6,7.75v19a7.88,7.88,0,0,1-15.76,0V315.16a38.27,38.27,0,0,1,0-70.54V197.85a32,32,0,0,0-31.77-31.77H341.52a32,32,0,0,0-31.77,31.77v44.52h61a7.88,7.88,0,1,1,0,15.76H326.51a38,38,0,0,1,7,21.76A38.77,38.77,0,0,1,310,315.16v38.77h79a7.88,7.88,0,1,1,0,15.76H310v92.8a22.51,22.51,0,0,0,44.27,6,8,8,0,0,1,7.5-5.75H364a7.75,7.75,0,0,1,7.5,5.75,22.51,22.51,0,0,0,44.27-6,7.88,7.88,0,0,1,15.76,0Zm-91.3-311.91h45v-27H370.53v5.75a7.88,7.88,0,1,1-15.76,0h0v-5.75H340Zm-66.78,295.9a7.75,7.75,0,0,1-7.75,7.75H48.37a7.75,7.75,0,0,1-7.75-7.75V47.52a7.75,7.75,0,0,1,7.75-7.75h50v-32A7.75,7.75,0,0,1,106.15,0h56.78a7.75,7.75,0,0,1,7.75,7.75v32H333.26A7.75,7.75,0,0,1,341,47.52V77.79a7.88,7.88,0,0,1-15.76,0V55.53H56.12V437.47H265.73a7.75,7.75,0,0,1,7.75,7.75ZM112.9,40h41V15H141.16v4.75a7.88,7.88,0,0,1-15.76,0V15H112.65Zm78.54,200.1h-2.25a7.88,7.88,0,1,0,0,15.76h2.25a7.88,7.88,0,1,0,0-15.76Zm198.35-5.25a7.75,7.75,0,0,0,7.75-7.75V205.85a25,25,0,0,0-25-25,7.88,7.88,0,1,0,0,15.76,8.25,8.25,0,0,1,8.25,8.25v20a7.75,7.75,0,0,0,7.75,7.75Zm66.28,185.34a36.27,36.27,0,0,1-64,0c-12-21.26,2.25-37.77,14.76-52.53,3.5-4.25,7.25-8.5,10.51-13a7.75,7.75,0,0,1,12.76,0,159.51,159.51,0,0,0,10.51,13c12.26,14.26,25,30.27,15.51,50Zm-27.51-41-5-5.75-5,5.75c-12.51,14.51-19.26,23.26-13,34.52a20.51,20.51,0,0,0,36.27,0c5.5-11,0-19.51-13.26-33.77ZM253.47,212.36a72.29,72.29,0,0,1,0,71.79h0a72.54,72.54,0,0,1-125.06,0h0a72.29,72.29,0,0,1,0-71.54h0a72.54,72.54,0,0,1,125.06,0h0Zm-6.25,35.77A56.52,56.52,0,0,0,243,226.86L216.7,242.12a7.9,7.9,0,0,1-7.75-13.76l26.26-15.26a56.78,56.78,0,0,0-36.77-21.26v30.27a7.88,7.88,0,1,1-15.76,0V191.85a56.78,56.78,0,0,0-36.77,21.26l26.26,15.26a7.9,7.9,0,0,1-7.75,13.76l-26.26-15.26a56.78,56.78,0,0,0,0,42.52l26.26-15.26a7.9,7.9,0,0,1,7.75,13.76l-26.26,15.26a56.78,56.78,0,0,0,36.77,21.26v-32a7.88,7.88,0,1,1,15.76,0v30.27a56.78,56.78,0,0,0,36.77-21.26l-26.26-15.26a7.9,7.9,0,0,1,7.75-13.76L243,267.63a56.52,56.52,0,0,0,4.25-21.26Z"/></svg>