<svg id="Layer_1" data-name="Layer 1" xmlns="http://www.w3.org/2000/svg" viewBox="0 0 24.62 89.88"><title>icons</title><path d="M18.66,23.66a1.91,1.91,0,0,1-1.15-1.9V2.64A2.31,2.31,0,0,0,15,0H9.8A2.63,2.63,0,0,0,8,.66a3.12,3.12,0,0,0-.84,2.39c.07,4.43,0,8.94,0,13.3V22a1.47,1.47,0,0,1-.8,1.53A11.25,11.25,0,0,0,0,34.09v52a3.67,3.67,0,0,0,3.54,3.8H20.77a3.64,3.64,0,0,0,3.85-3.81V33.38A10.82,10.82,0,0,0,18.66,23.66ZM9.11,1.93h6.5V5.59H9.11ZM15.6,7.59v9.34H9.12V7.6ZM2.15,31.93a8.37,8.37,0,0,1,5.85-7,1.31,1.31,0,0,0,1-1.39V18.93h6.66v4.5a1.28,1.28,0,0,0,1,1.4A8.21,8.21,0,0,1,22.58,32a34.21,34.21,0,0,1,.1,4.93v2.72H2.18L2,39.24a1.09,1.09,0,0,1-.1-.43V36.72A32.3,32.3,0,0,1,2.15,31.93ZM20.5,88H4.26C2.58,88,2,87.4,2,85.72V72.93H22.67l0,.76v.69q0,5.67,0,11.35C22.76,87.37,22.14,88,20.5,88Zm2.26-27.8v7.2a3.26,3.26,0,0,1-3.5,3.53H5.38a3.28,3.28,0,0,1-3.46-3.58V45.22a3.26,3.26,0,0,1,3.52-3.61H19.33a3.24,3.24,0,0,1,3.42,3.52q0,3.63,0,7.26Z"/></svg>