<svg xmlns="http://www.w3.org/2000/svg" viewBox="0 0 27.64 30.95"><defs><style>.a{fill:#414042;}</style></defs><title>Dine</title><path class="a" d="M24.25.07A1.8,1.8,0,0,0,22,1.33l-2.08,8.76a37.78,37.78,0,0,0-6.12-.48C7.4,9.6.58,11.16.23,14.05A12,12,0,0,0,0,16.34v2.74A11.89,11.89,0,0,0,11.88,31h3.88A11.89,11.89,0,0,0,27.64,19.07V16.34A12,12,0,0,0,27.41,14c-.18-1.35-1.84-2.52-4.72-3.35l2.8-8.4A1.8,1.8,0,0,0,24.25.07ZM13.82,10.54a36.94,36.94,0,0,1,5.91.46l-1.41,5.93-.07.23a4.7,4.7,0,0,0-.15.56l0,.1q-1,.11-2,.17H16l-1,0H13.82c-7.47,0-12.67-2-12.67-3.75S6.35,10.54,13.82,10.54Zm12.87,5.37q0,.22,0,.43v2.74A11,11,0,0,1,15.76,30H11.88A11,11,0,0,1,.94,19.07V16.34q0-.21,0-.43l.17.16,0,0,.25.2.09.06.19.14.11.07.2.13.11.06.27.15.06,0,.35.17.11.05.26.12.14.06.26.1.14.05L4,17.6l.1,0,.43.14.13,0,.33.1.17,0,.31.08.17,0,.35.08.13,0,.49.11.13,0,.39.07.18,0,.35.06.19,0,.38.06.16,0,.54.07H9l.44.05.19,0,.37,0,.2,0,.39,0h.17l.56,0h.06l.51,0h.19l.39,0H15a37.31,37.31,0,0,0,4-.33h0l.51-.08a.47.47,0,0,0,.17,0l.13,0a.46.46,0,0,0,.17-.09l.92-.15,0,0C23.5,17.81,25.63,17,26.69,15.91Zm-.2-1.61a.92.92,0,0,1,0,.14v0l0,.11,0,.1h0a2.54,2.54,0,0,1-.91,1l-.15.1,0,0a13.58,13.58,0,0,1-4.14,1.51l-.25.05-.12,0-.35.07.38-1.15,1.58-4.74C24.94,12.3,26.49,13.33,26.49,14.29ZM24.6,2l-2.81,8.43h0l-2.27,6.82-.05.19-.15,0-.15,0,.06-.21,1.65-6.91h0l2.07-8.68A.86.86,0,0,1,24.6,2Z"/><path class="a" d="M3.25,15.22h.07a.23.23,0,0,0,.22-.16s.28-.86.88-1a1.5,1.5,0,0,1,1.32.51.23.23,0,0,0,.31-.35,1.91,1.91,0,0,0-1.76-.61,2.11,2.11,0,0,0-1.2,1.34A.23.23,0,0,0,3.25,15.22Z"/><path class="a" d="M16.08,14.6h.07a.23.23,0,0,0,.22-.17s.28-.86.88-1a1.5,1.5,0,0,1,1.32.51.23.23,0,1,0,.31-.35A1.91,1.91,0,0,0,17.12,13a2.11,2.11,0,0,0-1.2,1.34A.23.23,0,0,0,16.08,14.6Z"/><path class="a" d="M22.41,15.38h.07a.23.23,0,0,0,.22-.16s.28-.86.88-1a1.5,1.5,0,0,1,1.32.51.23.23,0,1,0,.31-.35,1.91,1.91,0,0,0-1.76-.61,2.11,2.11,0,0,0-1.2,1.34A.23.23,0,0,0,22.41,15.38Z"/><path class="a" d="M9.58,14.47a2.73,2.73,0,0,0-1.92,1.34.23.23,0,0,0,.41.24S8.7,15,9.6,14.94c.58,0,1.16.38,1.74,1.21a.23.23,0,0,0,.38-.27A2.64,2.64,0,0,0,9.58,14.47Z"/><path class="a" d="M11.06,13.28a.23.23,0,0,0,.19-.1s.69-1,1.52-1h0a1.68,1.68,0,0,1,1.3.89.23.23,0,0,0,.39-.27,2.11,2.11,0,0,0-1.68-1.09h0a2.73,2.73,0,0,0-1.91,1.17.23.23,0,0,0,.19.37Z"/><path class="a" d="M7,13.09a.23.23,0,0,0,.19-.1s.54-.76,1.19-.76h0a1.31,1.31,0,0,1,1,.69.23.23,0,1,0,.39-.27,1.74,1.74,0,0,0-1.39-.9h0a2.25,2.25,0,0,0-1.57,1,.23.23,0,0,0,.19.37Z"/><path class="a" d="M13.84,16.74a.23.23,0,1,0,.38.27s.69-1,1.52-1h0a1.68,1.68,0,0,1,1.3.89.23.23,0,1,0,.39-.27,2.11,2.11,0,0,0-1.68-1.09h0A2.73,2.73,0,0,0,13.84,16.74Z"/></svg>