<svg xmlns="http://www.w3.org/2000/svg" viewBox="0 0 27.38 25.67"><defs><style>.a{fill:#414042;}</style></defs><title>Dine</title><path class="a" d="M16.2,9.18a.92.92,0,1,0-.92-.92A.93.93,0,0,0,16.2,9.18Zm0-1.39a.47.47,0,1,1-.47.47A.47.47,0,0,1,16.2,7.79Z"/><path class="a" d="M11.41,7.87a.72.72,0,1,0,.72.72A.72.72,0,0,0,11.41,7.87Zm0,1a.26.26,0,1,1,.26-.26A.26.26,0,0,1,11.41,8.85Z"/><path class="a" d="M19.8,10.55a.69.69,0,1,0-.69-.69A.69.69,0,0,0,19.8,10.55Zm0-.92a.23.23,0,1,1-.23.23A.23.23,0,0,1,19.8,9.63Z"/><path class="a" d="M7.61,9.21a.61.61,0,1,0,.61.61A.61.61,0,0,0,7.61,9.21Zm0,.77a.16.16,0,1,1,.16-.16A.16.16,0,0,1,7.61,10Z"/><circle class="a" cx="9.72" cy="2.5" r="0.42"/><circle class="a" cx="12.19" cy="1.77" r="0.42"/><circle class="a" cx="19.17" cy="5.66" r="0.42"/><circle class="a" cx="5.2" cy="7.31" r="0.42"/><circle class="a" cx="11.77" cy="4.38" r="0.42"/><path class="a" d="M16.11,10.24a.63.63,0,1,0,.63.63A.63.63,0,0,0,16.11,10.24Zm0,.8a.17.17,0,1,1,.17-.17A.17.17,0,0,1,16.11,11Z"/><path class="a" d="M26.31,10.74h-.74a.23.23,0,0,0,0,0A2.3,2.3,0,0,0,22.09,9.1a2.13,2.13,0,0,0-1.37-1.54l.51-3.39A.23.23,0,0,0,21,3.9l-6.46.82a.23.23,0,0,0-.17.34l.87,1.44a3.18,3.18,0,0,0-1.35,1A2.88,2.88,0,0,0,13.42,7L15.07.28A.23.23,0,0,0,14.84,0L5.91.36a.23.23,0,0,0-.18.36L9.87,6.78a2.9,2.9,0,0,0-.75.74L7.4,4.62a.23.23,0,0,0-.31-.08l-4,2.2A.23.23,0,0,0,3,7.07L4.3,9.12,4,9.1A2.65,2.65,0,0,0,1.6,10.65a.23.23,0,0,0,0,.1H1.07a1.07,1.07,0,0,0,0,2.15h0a18,18,0,0,0,.75,5.21,8.17,8.17,0,0,0,4.41,5.39c.4.17,1.71.83,1.71,1.94a.23.23,0,0,0,.23.23H19.15a.23.23,0,0,0,.23-.23c0-1.11,1.31-1.77,1.71-1.94a8.17,8.17,0,0,0,4.41-5.39,18,18,0,0,0,.75-5.21h0a1.07,1.07,0,0,0,0-2.15ZM14.91,5.13l5.81-.74-.46,3.06-.26,0a2.11,2.11,0,0,0-1,.25,3.17,3.17,0,0,0-2.63-1.4,3.14,3.14,0,0,0-.72.08ZM6.34.8,14.55.47,13,6.73a2.88,2.88,0,0,0-2.76-.17ZM3.52,7l3.6-2L8.86,8a2.85,2.85,0,0,0-.13.33,2.65,2.65,0,0,0-3.32,1.2,2.65,2.65,0,0,0-.49-.24ZM4,9.56a2.18,2.18,0,0,1,.69.11h0a2.17,2.17,0,0,1,.65.36.23.23,0,0,0,.35-.09,2.19,2.19,0,0,1,3.06-1.1.23.23,0,0,0,.33-.16,2.4,2.4,0,0,1,.2-.59l0,0A2.42,2.42,0,0,1,13,7.27l0,0a2.43,2.43,0,0,1,.6.76.23.23,0,0,0,.4,0,2.71,2.71,0,0,1,4.69,0,.23.23,0,0,0,.33.08A1.66,1.66,0,0,1,20,7.89a1.7,1.7,0,0,1,.37,0h.06a1.66,1.66,0,0,1,1.24,1.57.23.23,0,0,0,.38.16,1.84,1.84,0,0,1,3,1.06H22.48a1,1,0,0,0-1,1v3.15a.48.48,0,0,1-1,0V12.67h0v-.13a.94.94,0,0,0-1.88,0h0s0,.06,0,.11h0c0,.21,0,.69,0,1.82v1a.48.48,0,0,1-1,0V13.13a.94.94,0,0,0-1.88,0v1a.48.48,0,0,1-1,0V11.78a1,1,0,0,0-1-1H2.06A2.2,2.2,0,0,1,4,9.56Zm16,2.88h-.94a.49.49,0,0,1,.48-.37A.47.47,0,0,1,20,12.44ZM.46,11.82a.62.62,0,0,1,.62-.62H13.82a.59.59,0,0,1,.54.58v.65H1.07A.62.62,0,0,1,.46,11.82ZM20.91,23.07c-.44.19-1.82.89-2,2.14H8.44c-.15-1.25-1.53-1.94-2-2.14-4.46-1.94-4.89-8-4.89-10.18H14.36v1.27a.93.93,0,0,0,1.87,0v-1a.49.49,0,0,1,.49-.47.47.47,0,0,1,.47.47v2.39a.93.93,0,0,0,1.87,0v-1c0-.5,0-1.19,0-1.6h1v2a.93.93,0,0,0,1.87,0v-2h3.9C25.8,15.06,25.37,21.13,20.91,23.07Zm5.4-10.64H21.9v-.66a.59.59,0,0,1,.59-.59h3.83a.62.62,0,0,1,0,1.24Z"/><path class="a" d="M11.94,15.15a.23.23,0,0,0-.32,0L7.46,20.47a.23.23,0,1,0,.36.28L12,15.47A.23.23,0,0,0,11.94,15.15Z"/><path class="a" d="M12.61,18.08a.23.23,0,0,0-.32,0l-1.4,1.77a.23.23,0,1,0,.36.28l1.4-1.77A.23.23,0,0,0,12.61,18.08Z"/><path class="a" d="M7.47,17.64l1.4-1.77a.23.23,0,1,0-.36-.28l-1.4,1.77a.23.23,0,1,0,.36.28Z"/></svg>