<svg xmlns="http://www.w3.org/2000/svg" viewBox="0 0 23.15 28.98"><defs><style>.a{fill:#414042;fill-rule:evenodd;}</style></defs><title>Dine</title><path class="a" d="M14.81,29a6.88,6.88,0,0,1-1.63-.23,9.17,9.17,0,0,0-1.63-.23,9.17,9.17,0,0,0-1.63.23A6.93,6.93,0,0,1,8.25,29h0A3.5,3.5,0,0,1,7,28.75,11.56,11.56,0,0,1,7.13,7.43,1.83,1.83,0,0,1,8,7.25a5.76,5.76,0,0,1,1.82.42,5.27,5.27,0,0,0,1.77.47,5.78,5.78,0,0,0,1.77-.42,5.23,5.23,0,0,1,1.86-.47,2.73,2.73,0,0,1,.89.19A11.57,11.57,0,0,1,16,28.8a2.92,2.92,0,0,1-1.16.19Zm-3.26-1.21a12.13,12.13,0,0,1,1.82.23,5.48,5.48,0,0,0,1.44.23,2.71,2.71,0,0,0,.89-.14,10.83,10.83,0,0,0,0-20A2.34,2.34,0,0,0,15.19,8a5.2,5.2,0,0,0-1.58.37,6.25,6.25,0,0,1-2,.47,6,6,0,0,1-2-.47A5.35,5.35,0,0,0,8,8a1.24,1.24,0,0,0-.56.14,10.79,10.79,0,0,0,0,19.92,2.73,2.73,0,0,0,.89.19A9,9,0,0,0,9.74,28a12.13,12.13,0,0,1,1.82-.23Z"/><path class="a" d="M2.27,19.77a8.86,8.86,0,0,1,2.65-8l.52.55a8.18,8.18,0,0,0-2.5,5.91c0,.46,0,1,.09,1.43l-.76.14Z"/><path class="a" d="M6.63,11.34l-.41-.69a9.76,9.76,0,0,1,1.54-.89H7.9v.44l0,0L8,10.5a8.29,8.29,0,0,0-1.4.84Z"/><path class="a" d="M12.13,6.14h-.61a.51.51,0,0,1-.37-.38c0-.09-.28-2.86,1.31-4.45A5.6,5.6,0,0,1,16.3,0a3.41,3.41,0,0,1,.61,0,.4.4,0,0,1,.37.33c0,.09.28,2.91-1.31,4.45a5.31,5.31,0,0,1-3.84,1.31Zm-.23-.75h.23a4.85,4.85,0,0,0,3.32-1.08A5.17,5.17,0,0,0,16.53.8,4.8,4.8,0,0,0,13,1.88,5.1,5.1,0,0,0,11.9,5.39Z"/><polygon class="a" points="11.18 5.2 11.89 5.2 11.89 8.58 11.18 8.58 11.18 5.2 11.18 5.2"/></svg>