<svg xmlns="http://www.w3.org/2000/svg" viewBox="0 0 21.66 21.66"><defs><style>.a{fill:#414042;}</style></defs><title>Dine</title><path class="a" d="M10.83,5a.26.26,0,0,1-.26-.26V3.55a.26.26,0,0,1,.52,0V4.76A.26.26,0,0,1,10.83,5Z"/><path class="a" d="M7.79,5.83a.26.26,0,0,1-.23-.13L7,4.65a.26.26,0,1,1,.45-.26l.61,1a.26.26,0,0,1-.23.39Z"/><path class="a" d="M5.57,8.05a.26.26,0,0,1-.13,0l-1-.61A.26.26,0,0,1,4.65,7l1,.61a.26.26,0,0,1-.13.49Z"/><path class="a" d="M4.76,11.09H3.55a.26.26,0,0,1,0-.52H4.76a.26.26,0,0,1,0,.52Z"/><path class="a" d="M18.11,11.09H16.9a.26.26,0,0,1,0-.52h1.21a.26.26,0,1,1,0,.52Z"/><path class="a" d="M16.09,8.05A.26.26,0,0,1,16,7.57L17,7a.26.26,0,0,1,.26.45l-1,.61A.26.26,0,0,1,16.09,8.05Z"/><path class="a" d="M13.87,5.83a.26.26,0,0,1-.23-.39l.61-1a.26.26,0,0,1,.45.26l-.61,1A.26.26,0,0,1,13.87,5.83Z"/><path class="a" d="M10.83,21.66A10.83,10.83,0,1,1,21.66,10.83,10.84,10.84,0,0,1,10.83,21.66Zm0-21.14A10.31,10.31,0,1,0,21.14,10.83,10.32,10.32,0,0,0,10.83.52Z"/><path class="a" d="M10.83,14.73a3.9,3.9,0,1,1,3.9-3.9A3.91,3.91,0,0,1,10.83,14.73Zm0-7.28a3.38,3.38,0,1,0,3.38,3.38A3.38,3.38,0,0,0,10.83,7.45Z"/><path class="a" d="M12.57,9.81a.26.26,0,0,1-.22-.12,1.83,1.83,0,0,0-3.08,0,.26.26,0,0,1-.44-.28,2.33,2.33,0,0,1,2-1.09h0a2.34,2.34,0,0,1,1.95,1.09.26.26,0,0,1-.22.4Z"/><path class="a" d="M10.26,19a1.1,1.1,0,0,1-.48-.11A1.63,1.63,0,0,1,9,17.56c0-.1,0-.21,0-.32-.08-.85-.2-1.25-.67-1.21-.23,0-.44.27-.58.45l-.05.07a1.86,1.86,0,0,1-.74.68A1.34,1.34,0,0,1,5.61,17a3.42,3.42,0,0,1-.77-.91,3,3,0,0,0-.64-.78.84.84,0,0,0-.66-.19,1.21,1.21,0,0,0-.38.23,2.6,2.6,0,0,1-.29.21,1.5,1.5,0,0,1-1.15.15,1.62,1.62,0,0,1-1-1.07.26.26,0,0,1,.47-.22c.19.41.34.69.7.79a1,1,0,0,0,.75-.1A2.2,2.2,0,0,0,2.85,15a1.63,1.63,0,0,1,.56-.32,1.32,1.32,0,0,1,1.11.28,3.48,3.48,0,0,1,.76.91,3,3,0,0,0,.64.78.83.83,0,0,0,.78.16,1.43,1.43,0,0,0,.52-.51l.06-.08a1.44,1.44,0,0,1,.95-.66c1.06-.1,1.17,1.05,1.23,1.67,0,.11,0,.21,0,.3a1.21,1.21,0,0,0,.51.93.91.91,0,0,0,1-.3,2.3,2.3,0,0,0,.37-.7,3.28,3.28,0,0,1,.34-.71c.26-.38.87-.9,2-.11.53.37,1.59.74,2.14.17a1.77,1.77,0,0,0,.38-1,3.9,3.9,0,0,1,.17-.7,2.66,2.66,0,0,1,.37-.71.89.89,0,0,1,1.33-.15,3.07,3.07,0,0,1,.37.37c.27.3.42.46.75.41a1.76,1.76,0,0,0,.85-.46A3.1,3.1,0,0,0,20.92,13a.26.26,0,1,1,.5.13,3.61,3.61,0,0,1-.95,1.78,2.26,2.26,0,0,1-1.16.61,1.29,1.29,0,0,1-1.21-.58,2.66,2.66,0,0,0-.31-.31.38.38,0,0,0-.6.07,2.19,2.19,0,0,0-.29.57,3.49,3.49,0,0,0-.14.61,2.21,2.21,0,0,1-.52,1.26c-.79.79-2.11.37-2.81-.11s-1.11-.3-1.3,0a2.84,2.84,0,0,0-.29.6,2.72,2.72,0,0,1-.46.86A1.57,1.57,0,0,1,10.26,19Z"/></svg>