<svg xmlns="http://www.w3.org/2000/svg" viewBox="0 0 28.49 22.42"><defs><style>.a{fill:#414042;}</style></defs><title>Dine</title><path class="a" d="M13.13,22.42a17.9,17.9,0,0,0,9.44-2.6,12.23,12.23,0,0,0,5.6-7.6,9.57,9.57,0,0,0-1.68-8.47A10,10,0,0,0,18.82,0a6.83,6.83,0,0,0-5,2c-2.13,2.24-4.55,2.73-6.88,3.2C3.63,5.87.55,6.49,0,12.24a7.78,7.78,0,0,0,2,6.18C4.36,20.93,8.49,22.42,13.13,22.42ZM1,12.32c.45-5,2.82-5.53,6.1-6.19,2.37-.48,5-1,7.38-3.48A5.9,5.9,0,0,1,18.82.94a9.06,9.06,0,0,1,6.94,3.4A8.67,8.67,0,0,1,27.25,12c-1.53,6.51-8.4,9.48-14.13,9.48-4.37,0-8.25-1.38-10.36-3.69A6.88,6.88,0,0,1,1,12.32Z"/><path class="a" d="M11.39,17.63c3,0,5.51-2,5.51-4.36s-2.47-4.36-5.51-4.36-5.51,2-5.51,4.36S8.35,17.63,11.39,17.63Zm0-8.24c2.78,0,5,1.74,5,3.89s-2.26,3.89-5,3.89-5-1.74-5-3.89S8.61,9.39,11.39,9.39Z"/><path class="a" d="M14.52,14.93l.35.31a2.92,2.92,0,0,0,.8-2,2.79,2.79,0,0,0-.36-1.37l-.41.23a2.33,2.33,0,0,1,.3,1.14A2.46,2.46,0,0,1,14.52,14.93Z"/><path class="a" d="M14.67,11.1a4.78,4.78,0,0,0-3.28-1.21v.47a4.31,4.31,0,0,1,3,1.09Z"/></svg>