<svg xmlns="http://www.w3.org/2000/svg" viewBox="0 0 28.78 30.45"><defs><style>.a{fill:#414042;}</style></defs><title>Dine</title><path class="a" d="M28.44,23a.34.34,0,0,1-.34-.34A27.55,27.55,0,0,0,16.91.61a.34.34,0,0,1,.4-.55A28.23,28.23,0,0,1,28.78,22.71.34.34,0,0,1,28.44,23Z"/><path class="a" d="M17.11,30.45a2.21,2.21,0,0,1-.42,0A2.13,2.13,0,0,1,15,28.7a2.16,2.16,0,0,1,.1-1.14,9.36,9.36,0,0,0,.68-3.29A1.22,1.22,0,0,0,14.58,23H12.94a.54.54,0,0,0-.54.54,2.25,2.25,0,0,0,.44,1.28,2.13,2.13,0,0,1-.4,2.86,2.15,2.15,0,0,1-1.78.45,2.13,2.13,0,0,1-1.3-3.36,1.92,1.92,0,0,0,.4-1.13A.64.64,0,0,0,9.13,23H8.27a1.39,1.39,0,0,0-1.39,1.39v1.05a1.76,1.76,0,0,0,.37,1.08,2.13,2.13,0,0,1-.33,3A2.15,2.15,0,0,1,5.14,30a2.13,2.13,0,0,1-1.3-3.36,1.92,1.92,0,0,0,.4-1.13V24.43A1.39,1.39,0,0,0,2.86,23H0L15.53,1.92l.27.2A25.67,25.67,0,0,1,26.22,22.71V23h-7a.79.79,0,0,0-.79.79,9.87,9.87,0,0,0,.67,3.68,2.13,2.13,0,0,1-2,2.93Zm-4.17-8.08h1.64a1.9,1.9,0,0,1,1.9,1.9,10,10,0,0,1-.72,3.53,1.46,1.46,0,0,0-.07.78,1.46,1.46,0,1,0,2.78-.81,10.54,10.54,0,0,1-.71-3.93,1.47,1.47,0,0,1,1.47-1.47h6.32a25,25,0,0,0-9.87-19.5L1.34,22.37H2.86a2.07,2.07,0,0,1,2.07,2.06v1.05A2.59,2.59,0,0,1,4.39,27,1.46,1.46,0,1,0,7,27.88,1.44,1.44,0,0,0,6.71,27a2.44,2.44,0,0,1-.51-1.5V24.43a2.07,2.07,0,0,1,2.06-2.06h.86a1.32,1.32,0,0,1,1.32,1.32,2.59,2.59,0,0,1-.54,1.53,1.46,1.46,0,0,0-.26,1.13,1.46,1.46,0,1,0,2.63-1.09,3,3,0,0,1-.56-1.67A1.22,1.22,0,0,1,12.94,22.37Z"/><path class="a" d="M16.71,20.46A2.48,2.48,0,1,1,19.19,18,2.48,2.48,0,0,1,16.71,20.46Zm0-4.28a1.8,1.8,0,1,0,1.8,1.8A1.8,1.8,0,0,0,16.71,16.19Z"/><path class="a" d="M12.35,13.72a1.27,1.27,0,1,1,1.27-1.27A1.27,1.27,0,0,1,12.35,13.72Zm0-1.86a.59.59,0,1,0,.59.59A.59.59,0,0,0,12.35,11.86Z"/><path class="a" d="M22.77,20.57A1.27,1.27,0,1,1,24,19.3,1.27,1.27,0,0,1,22.77,20.57Zm0-1.86a.59.59,0,1,0,.59.59A.59.59,0,0,0,22.77,18.71Z"/><path class="a" d="M8.16,19.92A1.63,1.63,0,1,1,9.8,18.28,1.64,1.64,0,0,1,8.16,19.92Zm0-2.59a1,1,0,1,0,1,1A1,1,0,0,0,8.16,17.33Z"/><path class="a" d="M17.34,13.27,15.4,11.1l1.38-1.24A1.41,1.41,0,0,1,18.55,8.3a2.55,2.55,0,0,1,1.92,2.14A1.48,1.48,0,0,1,20,11.72h0a1.47,1.47,0,0,1-1.3.31Zm-1-2.12,1,1.16,1.15-1,.18.05a.86.86,0,0,0,.84-.12h0a.82.82,0,0,0,.23-.71A1.88,1.88,0,0,0,18.41,9a.81.81,0,0,0-.73.15.86.86,0,0,0-.21.82l0,.19Zm3.44.31h0Z"/></svg>