<svg xmlns="http://www.w3.org/2000/svg" viewBox="0 0 16.61 21.43"><defs><style>.a{fill:#414042;}</style></defs><title>Dine</title><path class="a" d="M2.94,2.59H2.35a.25.25,0,0,1,0-.49h.59a.25.25,0,0,1,0,.49Z"/><path class="a" d="M4.56,2.57H4a.25.25,0,0,1,0-.49h.59a.25.25,0,0,1,0,.49Z"/><path class="a" d="M6.18,2.55H5.59a.25.25,0,1,1,0-.49h.59a.25.25,0,1,1,0,.49Z"/><path class="a" d="M7.79,2.54H7.2A.25.25,0,0,1,7.2,2h.59a.25.25,0,1,1,0,.49Z"/><path class="a" d="M9.41,2.52H8.82a.25.25,0,0,1,0-.49h.59a.25.25,0,1,1,0,.49Z"/><path class="a" d="M11,2.51h-.59a.25.25,0,0,1,0-.49H11a.25.25,0,1,1,0,.49Z"/><path class="a" d="M12.65,2.49h-.59a.25.25,0,0,1,0-.49h.59a.25.25,0,1,1,0,.49Z"/><path class="a" d="M14.26,2.47h-.59a.25.25,0,1,1,0-.49h.59a.25.25,0,0,1,0,.49Z"/><path class="a" d="M2.94,19.33H2.35a.25.25,0,1,1,0-.49h.59a.25.25,0,1,1,0,.49Z"/><path class="a" d="M4.56,19.35H4a.25.25,0,0,1,0-.49h.59a.25.25,0,0,1,0,.49Z"/><path class="a" d="M6.18,19.37H5.59a.25.25,0,1,1,0-.49h.59a.25.25,0,1,1,0,.49Z"/><path class="a" d="M7.79,19.38H7.2a.25.25,0,1,1,0-.49h.59a.25.25,0,1,1,0,.49Z"/><path class="a" d="M9.41,19.4H8.82a.25.25,0,0,1,0-.49h.59a.25.25,0,0,1,0,.49Z"/><path class="a" d="M11,19.42h-.59a.25.25,0,0,1,0-.49H11a.25.25,0,1,1,0,.49Z"/><path class="a" d="M12.65,19.43h-.59a.25.25,0,0,1,0-.49h.59a.25.25,0,1,1,0,.49Z"/><path class="a" d="M14.26,19.45h-.59a.25.25,0,1,1,0-.49h.59a.25.25,0,0,1,0,.49Z"/><path class="a" d="M5.1,13.95a1.75,1.75,0,0,1-.39,0,1.25,1.25,0,0,1-1-1.07,1.91,1.91,0,0,1,.69-1.76l.51-.43h0l3.45-2.9a2.8,2.8,0,0,1,2.4-.6A2.7,2.7,0,0,1,12.62,8.6l0,.05a3.26,3.26,0,0,1,.12,2.46,3.62,3.62,0,0,1-1.95,2.16,2.91,2.91,0,0,1-3.17-.5,12.07,12.07,0,0,0-2.56-1.66l-.39.33a1.42,1.42,0,0,0-.52,1.3.76.76,0,0,0,.65.67A1.41,1.41,0,0,0,6,13.15L6.23,13a.25.25,0,0,1,.3.39l-.25.19A2,2,0,0,1,5.1,13.95Zm.39-3.17A12.18,12.18,0,0,1,8,12.41a2.42,2.42,0,0,0,2.63.42A3.14,3.14,0,0,0,12.3,11a2.77,2.77,0,0,0-.1-2.09l0,0a2.21,2.21,0,0,0-1.54-1.2,2.31,2.31,0,0,0-2,.49Z"/><path class="a" d="M15.66,21.43H1V19.14A37.55,37.55,0,0,1,1,2.31V0h14.7V2.31a37.55,37.55,0,0,1,0,16.83ZM1.45,20.94H15.17V19.09h.15l-.14,0a37.05,37.05,0,0,0,0-16.66V.49H1.45V2.4a37.05,37.05,0,0,0,0,16.66l-.14,0h.15Z"/></svg>