<svg xmlns="http://www.w3.org/2000/svg" viewBox="0 0 242.19 147.59"><defs><style>.a{fill:#f15f2e;}.b{fill:#45a5da;}.c{fill:#414042;}.d{fill:#fff;}</style></defs><title>Dine</title><path class="a" d="M51.12,35.64c0-10.82-10.13-20.26-22.59-19.59-18.71,1-22.59,8.77-22.59,19.59a17.16,17.16,0,0,0,.46,3.94L1,48.45v1.62l3.16.86,1.22.43-.86,2.73-.36,1.58L5.94,57,4.8,58.61,8,60.47l.67,1.66v4.72l3.06,1.87,5.31-.65,1.44.35v9.05H44.91L41.66,61C44.3,58.85,47.3,53.89,49,50.12a18.68,18.68,0,0,0,1.72-10.78A17.14,17.14,0,0,0,51.12,35.64Z"/><path class="b" d="M47.6,33.43a5.83,5.83,0,0,0-2.39-4.63,6.46,6.46,0,0,0-6.64-5.73,7,7,0,0,0-5.39-2.44,7.48,7.48,0,0,0-1.21.1,7.29,7.29,0,0,0-8.37.36A7.36,7.36,0,0,0,21,20.63a7,7,0,0,0-5.6,2.7,6.19,6.19,0,0,0-4.8,5.81,5.51,5.51,0,0,0,.15,1.27A5.65,5.65,0,0,0,9.46,34a6.2,6.2,0,0,0,4.87,5.83A6.54,6.54,0,0,0,21,45.09h.1a7.18,7.18,0,0,0,4.15,1.3,7.32,7.32,0,0,0,2.86-.58,7.28,7.28,0,0,0,8.57.3l.43,0a7,7,0,0,0,5.17-2.18,6.23,6.23,0,0,0,4.85-6.12,5.5,5.5,0,0,0-.32-1.58A5.56,5.56,0,0,0,47.6,33.43Z"/><path class="c" d="M48.46,32.59a5,5,0,0,0-2.63-3.71,5.31,5.31,0,0,0,0-1.42A5.37,5.37,0,0,0,39.69,23l-.34.06a5.77,5.77,0,0,0-1.89-2.18,5.68,5.68,0,0,0-4.09-1,5.74,5.74,0,0,0-.8.18,5.39,5.39,0,0,0-1.68-1.14,6.72,6.72,0,0,0-3.68-.45,6.6,6.6,0,0,0-3.92,2A4.8,4.8,0,0,0,22,19.95a6,6,0,0,0-2.76,0,5.92,5.92,0,0,0-2.88,1.5,4.4,4.4,0,0,0-.94,1.32c-.32,0-.69.07-.88.1a5.36,5.36,0,0,0-3.72,2.34,6.2,6.2,0,0,0-.91,4.37l0,.16a7,7,0,0,0-1.11,5.19,7.41,7.41,0,0,0,1.84,4,4.1,4.1,0,0,0,3,1.41h0q0,.14,0,.28a5.89,5.89,0,0,0,5.79,5,5.78,5.78,0,0,0,1.64-.24,5.87,5.87,0,0,0,4.39,2,5.8,5.8,0,0,0,3-.84,5.92,5.92,0,0,0,4.38,2A5.85,5.85,0,0,0,36.68,47a5.93,5.93,0,0,0,.67-.69,4.14,4.14,0,0,0,1.74.38,4.2,4.2,0,0,0,.62,0,4.14,4.14,0,0,0,3.34-2.83l.46,0a4.43,4.43,0,0,0,3.14-2.2,6.27,6.27,0,0,0,.76-4.15,6.86,6.86,0,0,0-.16-.77A5,5,0,0,0,48.46,32.59Zm-3,4a.61.61,0,0,0-.26,0,4.72,4.72,0,0,1-2.87.13c-.75-.19-3.17-1-2.69-3.37A3.05,3.05,0,0,1,41,31.19a2.05,2.05,0,0,1,1.8.06.61.61,0,1,0,.48-1.12A3.45,3.45,0,0,0,41,29.88a3,3,0,0,0-.8-1.48,2.4,2.4,0,0,0-1.83-.7c-1.28.07-2.54,1.2-2.46,3.22a.61.61,0,0,0,.61.59h0a.61.61,0,0,0,.59-.64c-.05-1.28.64-1.91,1.3-1.95s1.29.44,1.43,1.56a4.62,4.62,0,0,0-1.39,2.64,3.63,3.63,0,0,0,.75,3.14A5.36,5.36,0,0,0,42,37.92a6.3,6.3,0,0,0,1.57.2,5.7,5.7,0,0,0,1.86-.3h.11a.61.61,0,0,0,.29-.07l.33-.19v0c.36,2.44-.93,4.67-2.88,5A2.93,2.93,0,0,1,42,42.46a.61.61,0,1,0-.37,1.17l.17,0A2.95,2.95,0,0,1,38,45.28a6,6,0,0,0,.4-1A.61.61,0,1,0,37.27,44a4.65,4.65,0,0,1-7.84,1.8l.28-.28.1-.08a3.66,3.66,0,0,0,1-2.73,3.68,3.68,0,0,1,2.56-1.13.8.8,0,0,1,.66.53.61.61,0,1,0,1.12-.49,2,2,0,0,0-1.6-1.24,4.48,4.48,0,0,0-3,1,8.07,8.07,0,0,0-3-3.75.61.61,0,1,0-.67,1,6.27,6.27,0,0,1,2.72,3.94,2.46,2.46,0,0,1-.65,2l-.1.09a4.55,4.55,0,0,1-2.71,1.44,4.63,4.63,0,0,1-3.85-1.22,5.75,5.75,0,0,0,.67-.44.61.61,0,0,0-.74-1,4.56,4.56,0,0,1-1.09.61l-.12,0a4.58,4.58,0,0,1-.89.22,4.65,4.65,0,0,1-5.26-3.94,4.73,4.73,0,0,1,0-1.38.61.61,0,0,0-1.21-.18q0,.12,0,.24a2.91,2.91,0,0,1-2.08-1A6.18,6.18,0,0,1,10,34.69a6.37,6.37,0,0,1,.4-3.45,6.13,6.13,0,0,0,2.19,2.5,5.44,5.44,0,0,0,3,1h.18a3.56,3.56,0,0,0,2.8-1.58,4.63,4.63,0,0,0,1-2.82,1.47,1.47,0,0,1,2.08,0c.44.52.46,1.47-.52,2.31a.61.61,0,1,0,.8.93,2.82,2.82,0,0,0,.66-4,2.4,2.4,0,0,0-1.75-.87,3,3,0,0,0-1.6.41,3.49,3.49,0,0,0-1.72-1.52.61.61,0,0,0-.51,1.11A2.1,2.1,0,0,1,18.21,30a3.08,3.08,0,0,1-.69,2.45c-1.39,1.95-3.61.71-4.26.28a4.83,4.83,0,0,1-1.86-2.23v0a4.8,4.8,0,0,1-.31-1.11,5,5,0,0,1,.72-3.51A4.15,4.15,0,0,1,14.68,24l.39,0v0a.61.61,0,0,0,.58.64h0a.61.61,0,0,0,.61-.58,2.73,2.73,0,0,1,.89-1.78,4.69,4.69,0,0,1,2.28-1.18,4,4,0,0,1,3.75.92.61.61,0,0,0,1-.7,5.37,5.37,0,0,1,3.18-1.62,4.66,4.66,0,0,1,4.9,2h0l0,.09a2.36,2.36,0,0,1,0,2.48,3.05,3.05,0,0,1-2.81,1.36.61.61,0,1,0-.08,1.22h.29A4.25,4.25,0,0,0,33.33,25a3.57,3.57,0,0,0,.07-3.72l0-.07,0,0,.2,0a4.54,4.54,0,0,1,5.06,3.49.61.61,0,0,0,.6.48l.14,0a.61.61,0,0,0,.46-.73l0-.13.1,0a4.15,4.15,0,0,1,4.73,3.46,4.08,4.08,0,0,1,0,1.38.61.61,0,0,0,0,.17,4.05,4.05,0,0,1-.19.6.61.61,0,1,0,1.13.47l.06-.14a3.81,3.81,0,0,1,0,6.45Z"/><path class="c" d="M51.52,35.09a28.25,28.25,0,0,0-1.67-7.82,16.06,16.06,0,0,0-2-3.6,18.78,18.78,0,0,0-3.27-3.37A21.38,21.38,0,0,0,36,16.4a37.35,37.35,0,0,0-8.46-1h-.36a31,31,0,0,0-4.85.5,29.81,29.81,0,0,0-7,2.08,18.22,18.22,0,0,0-6.53,4.71,14.54,14.54,0,0,0-3.4,8.37,40.39,40.39,0,0,0-.1,4.84c.07,2.79.12,4.48-1.95,7.41-.49.7-1,1.38-1.51,2l-1,1.33A4.8,4.8,0,0,0,.1,48.14,2.07,2.07,0,0,0,.41,50c.6.82,1.83,1,3,1.23a10.35,10.35,0,0,1,1.39.3,2.08,2.08,0,0,1-.1.26,9.41,9.41,0,0,1-.54,1A3.81,3.81,0,0,0,3.36,55a2.69,2.69,0,0,0,1.56,1.88L5,57,5,57l-.21.34a3.59,3.59,0,0,0-.69,1.5c0,.63.65,1,1.42,1.27.6.24,1.31.47,1.74.61l.2.06a6.27,6.27,0,0,1,.7,4,4.46,4.46,0,0,0,.48,3c.64.82,2.08,1.17,4.8,1.17.67,0,1.34,0,2,0L17,69a6,6,0,0,1,1.11.07,27.11,27.11,0,0,1,.37,3.91c.1,1.84.15,3.75.14,4.26v.75h27.2l-1.33-5.78c-.25-.71-1.5-8.5-1.68-9.28a4.21,4.21,0,0,1,.52-3.6,18.88,18.88,0,0,1,2.06-2.37,24.63,24.63,0,0,0,1.82-2,21.75,21.75,0,0,0,4.06-9.5A36.65,36.65,0,0,0,51.52,35.09ZM46.19,54.14a23.37,23.37,0,0,1-1.73,1.92,20.08,20.08,0,0,0-2.19,2.53,5.42,5.42,0,0,0-.7,4.58c.17.72,1.94,11.22,2.59,13.29H19.79c0-.9-.07-2.34-.15-3.73-.21-3.9-.44-4.26-.57-4.45-.29-.46-.95-.54-2.13-.54l-1.54,0c-.63,0-1.29,0-1.95,0-2.72,0-3.59-.38-3.84-.7a3.79,3.79,0,0,1-.23-2.21,7.12,7.12,0,0,0-1-5,.74.74,0,0,0-.41-.26l-.29-.09c-.37-.12-.92-.3-1.43-.49a7.06,7.06,0,0,1-.81-.35c.11-.23.31-.54.42-.71a4.07,4.07,0,0,0,.41-.73c.21-.6-.35-1.19-.64-1.37l-.06,0c-.57-.35-.92-.58-1-1a3.8,3.8,0,0,1,.66-1.46A3.57,3.57,0,0,0,6,51L6,50.75l-.24-.13A6.94,6.94,0,0,0,3.63,50c-.86-.15-1.92-.33-2.23-.75s-.2-1,.47-1.89l1-1.32c.51-.67,1-1.37,1.53-2.08a11.14,11.14,0,0,0,2-4.21,16.74,16.74,0,0,0,.2-3.94,39.36,39.36,0,0,1,.09-4.7c.47-5.48,3.57-9.54,9.21-12.06a31.43,31.43,0,0,1,11.33-2.47h.35c4.88,0,12.07,1.21,16.26,4.62,5.14,4.19,6,8.8,6.51,14C50.86,40.71,50.6,48.47,46.19,54.14Z"/><path class="c" d="M201.11,77.24H3.65c-.25,0-.46-.38-.46-.85s.2-.85.46-.85H201.11c.25,0,.46.38.46.85S201.37,77.24,201.11,77.24Z"/><path class="d" d="M231.34.88H109.25a10,10,0,0,0-10,10v7a9.34,9.34,0,1,0,0,18.3V136.74a10,10,0,0,0,10,10H231.34a10,10,0,0,0,10-10V10.85A10,10,0,0,0,231.34.88Z"/><path class="c" d="M231.34,147.59H109.25A10.86,10.86,0,0,1,98.4,136.74V37.19a10.22,10.22,0,1,1,0-20.35v-6A10.86,10.86,0,0,1,109.25,0H231.34a10.86,10.86,0,0,1,10.85,10.85V136.74A10.86,10.86,0,0,1,231.34,147.59ZM100.17,35.08V136.74a9.09,9.09,0,0,0,9.08,9.08H231.34a9.09,9.09,0,0,0,9.08-9.08V10.85a9.09,9.09,0,0,0-9.08-9.08H109.25a9.09,9.09,0,0,0-9.08,9.08V19l-1.06-.22a8.45,8.45,0,1,0,0,16.56Z"/><circle class="d" cx="75.55" cy="31.66" r="7.01" transform="translate(18.24 90.19) rotate(-68.34)"/><path class="c" d="M75.55,39.56a7.91,7.91,0,1,1,3.13-.65A7.89,7.89,0,0,1,75.55,39.56Zm0-14a6.12,6.12,0,1,0,2.25.43A6.13,6.13,0,0,0,75.56,25.54Z"/><circle class="d" cx="59.38" cy="36.94" r="4.67" transform="translate(3.13 78.5) rotate(-68.34)"/><path class="c" d="M59.38,42.5a5.57,5.57,0,1,1,2.2-.46A5.56,5.56,0,0,1,59.38,42.5Zm0-9.35a3.79,3.79,0,1,0,3.52,5.19h0a3.79,3.79,0,0,0-3.52-5.19Z"/><rect class="c" x="104.66" y="16.69" width="130.87" height="1.7"/><rect class="c" x="104.66" y="65.78" width="121.21" height="1.7"/><rect class="c" x="104.66" y="115.77" width="121.21" height="1.7"/></svg>