<svg xmlns="http://www.w3.org/2000/svg" viewBox="0 0 21.03 25.69"><defs><style>.a{fill:#f6d056;}.b{fill:#f15f2e;}.c{fill:#231f20;}</style></defs><title>Dine</title><path class="a" d="M12.06,3.84S9.81,6.21,9.22,6.26s-3.59.38-3.92,0-.67.88-.67.88l.29,2.38.46.67s.08,1.67.63,2.13.69,1.4,1.2,2.12.6.21.6.21l-.71,2.56-.58-.25-3.3,1.38a13.72,13.72,0,0,1-1-3.55c-.07-1.42,0-6.67,0-6.67L3.59,4.25,6,1.79A7.15,7.15,0,0,1,8.47.5c1.34-.34,4-.26,4.88.29A10.76,10.76,0,0,1,17.07,4a11.25,11.25,0,0,1,1.59,6.89c-.29,3,.08,6.05-.42,6.89s-.42.5-.42.5l-3.21-1.5-.21.13-.29.38-.83-2.48a6.78,6.78,0,0,0,1.67-2,10.23,10.23,0,0,0,.79-2.46c.38-1-1-.91-1.71-2.08A42.28,42.28,0,0,1,12.06,3.84Z"/><path class="b" d="M14.4,16.94s3.38.94,4.22,1.76,2.58,5.7,2.17,5.84-7.3,1.18-9.77.93S.25,24.83.25,24.83s-.13-2.76.67-4a10.42,10.42,0,0,1,3.34-3c.83-.38,2.25-.92,2.25-.92s.83,2,2.21,2.32,2,.64,3.09.23S14.4,16.94,14.4,16.94Z"/><path class="c" d="M21,24.06a7.29,7.29,0,0,0-2.8-5.69c.63-1.48.71-5.49.71-8.46C18.91,4.26,15.3,0,10.51,0S2.12,4.26,2.12,9.93c0,2.93.08,6.93.71,8.42C1.1,19.63.24,21.44,0,24.06l0,.46a.58.58,0,0,0,.59.61,74.62,74.62,0,0,0,8,.54l.07,0,.07,0,1.62,0h.35a79.31,79.31,0,0,0,9.75-.56A.58.58,0,0,0,21,24.5ZM2.57,9.91C2.57,4.52,6,.45,10.51.45s7.95,4.07,7.95,9.48c0,1.65,0,6.52-.64,8.17a11.54,11.54,0,0,0-3.43-1.44.22.22,0,0,0-.27.14l0,.1a8.29,8.29,0,0,1-.6-2.14A8.73,8.73,0,0,0,15.93,10a.22.22,0,0,0-.12-.24c-2.06-1-3.38-4.85-3.53-6.15a.22.22,0,0,0-.2-.2.23.23,0,0,0-.24.14c0,.11-1,2.66-4.67,2.81A4.52,4.52,0,0,1,5.5,6.07H5.42l-.24,0c-.63.16-.91,1-.75,2.26a2.46,2.46,0,0,0,.69,1.72,8.71,8.71,0,0,0,2.42,4.71A8.09,8.09,0,0,1,6.88,17l-.08-.2a.23.23,0,0,0-.27-.14,11.78,11.78,0,0,0-3.33,1.4C2.57,16.43,2.57,11.58,2.57,9.91Zm7.94,9.51A3.84,3.84,0,0,1,7.13,17.5l0,0a7.83,7.83,0,0,0,.78-2.37,4.23,4.23,0,0,0,2.58.93,4.23,4.23,0,0,0,2.57-.93,7.91,7.91,0,0,0,.74,2.3A3.83,3.83,0,0,1,10.51,19.42Zm0-3.84c-2.29,0-4.34-2.35-5-5.71a.22.22,0,0,0-.11-.15c-.35-.19-.48-.84-.55-1.44-.12-1,0-1.68.37-1.77H5.4a5,5,0,0,0,1.79.28A5.67,5.67,0,0,0,12,4.27C12.35,6,13.58,9,15.46,10.05,14.79,13.32,12.77,15.58,10.52,15.58ZM.45,24.53l0-.44c.3-3.78,2-5.8,6-6.91a4.44,4.44,0,0,0,4.05,2.69,4,4,0,0,0,1.59-.31L8.55,25.21a74.06,74.06,0,0,1-7.9-.53C.45,24.66.45,24.61.45,24.53Zm19.94.15a79.39,79.39,0,0,1-9.87.56H9.07l3.86-6.15a5.12,5.12,0,0,0,1.54-1.93c4,1.1,5.78,3.13,6.08,6.94l0,.42C20.58,24.61,20.58,24.66,20.38,24.68Z"/></svg>