<svg xmlns="http://www.w3.org/2000/svg" viewBox="0 0 25.14 25.34"><defs><style>.a{fill:#414042;}</style></defs><title>Dine</title><path class="a" d="M5.72,18.82a.3.3,0,0,1,.3-.3H8.1a.3.3,0,0,1,0,.61H6A.3.3,0,0,1,5.72,18.82Zm7.61-.3H11.26a.3.3,0,0,0,0,.61h2.07a.3.3,0,0,0,0-.61ZM24.89,2.63,18.26,9.49l1,.73h0l0,0v0l0,.08v0a.29.29,0,0,1,0,.1s0,0,0,0v0h0c-.13.83-1.54,9.92-2.19,14.22a.3.3,0,0,1-.27.26c-2.39.22-4.81.33-7.21.33S4.85,25.23,2.47,25a.3.3,0,0,1-.27-.26C1.52,20.24.06,10.87,0,10.51a.3.3,0,0,1,0-.08v0a.31.31,0,0,1,0-.08v0l0-.06,0,0h0L7.6,4.64a3.69,3.69,0,0,1,4.16,0l3.4,2.54L20.47.34A.92.92,0,0,1,21.73.18a.9.9,0,0,1,.16,1.25L16.6,8.25l.21.16,6.79-7a.92.92,0,0,1,1.27,0,.89.89,0,0,1,0,1.27ZM15.65,7.54l.46.34,5.3-6.82a.29.29,0,0,0-.05-.4A.28.28,0,0,0,21.18.6a.29.29,0,0,0-.23.11ZM1,10.29A44.47,44.47,0,0,0,9,11H9a66.68,66.68,0,0,0,9.26-.76l-.73-.55-.88-.66h0L15.27,8,15,7.85h0L11.39,5.12A3.09,3.09,0,0,0,8,5.12Zm10,6.05c1.55-1.05,5.29-4.06,7-5.42a66,66,0,0,1-9,.72H9A44.53,44.53,0,0,1,1.4,11c1.71,1.39,5.37,4.33,6.91,5.37a3.26,3.26,0,0,1,1.37,1.79A3.27,3.27,0,0,1,11,16.34ZM2.72,24.19c1.15-.76,4.51-3,5.68-4a1.85,1.85,0,0,0,.76-1.53A2.47,2.47,0,0,0,8,16.84C6.3,15.71,2.27,12.46.73,11.2,1.08,13.51,2.14,20.29,2.72,24.19ZM16,24.48c-1.38-.91-4.29-2.87-5.39-3.77a2.62,2.62,0,0,1-.89-1.29,2.62,2.62,0,0,1-.89,1.29c-1.1.9-4,2.85-5.39,3.77A78.67,78.67,0,0,0,16,24.48ZM18.63,11.2c-1.55,1.26-5.57,4.51-7.24,5.64a2.47,2.47,0,0,0-1.19,1.86,1.85,1.85,0,0,0,.76,1.53c1.17,1,4.53,3.19,5.68,4C17.2,20.36,18.26,13.55,18.63,11.2ZM24.53,2a.29.29,0,0,0-.49-.2l-6.74,7,.36.27.11.08,6.69-6.92A.28.28,0,0,0,24.53,2Z"/></svg>