<svg xmlns="http://www.w3.org/2000/svg" viewBox="0 0 22.11 22.11"><defs><style>.a{fill:#414042;}</style></defs><title>Dine</title><path class="a" d="M11.05,0A11.05,11.05,0,1,0,22.11,11.05,11.07,11.07,0,0,0,11.05,0Zm0,.73a10.27,10.27,0,0,1,6.38,2.22,8.45,8.45,0,0,0-.93-.58A12.43,12.43,0,0,0,11,.73Zm5.28,2A9.41,9.41,0,0,1,21,9.28a7.4,7.4,0,0,1-1.64,6.39c-3.18,3.54-4.53,4.57-6,4.57a9.18,9.18,0,0,1-2.41-.5,30,30,0,0,0-4.67-1,4.76,4.76,0,0,1-3.67-3c-1.3-3-1-7.51.7-9.93C5.47,2.61,7.92,1.1,10.79,1.1A11.91,11.91,0,0,1,16.33,2.69ZM11.05,21.38A10.32,10.32,0,0,1,8.75,1,10.41,10.41,0,0,0,3,5.52C1.26,8,.92,12.73,2.27,15.8a5,5,0,0,0,4,3.26,29.67,29.67,0,0,1,4.62,1,9.4,9.4,0,0,0,2.51.51h0c1.62,0,3-1.05,6.3-4.69a7.22,7.22,0,0,0,1.46-2.51A10.34,10.34,0,0,1,11.05,21.38Z"/><path class="a" d="M7.38,14.43A5,5,0,0,0,13,15.63a5.31,5.31,0,0,0,2.63-2.17C17.22,11,17.44,9,14.06,5.95a3.59,3.59,0,0,0-2.37-.68c-1.83,0-4.29.79-5.36,2.51a5,5,0,0,0-.52,4.06A5.87,5.87,0,0,0,7.38,14.43Zm3.67.89a4.26,4.26,0,1,1,4.26-4.26A4.27,4.27,0,0,1,11.05,15.32ZM6.64,8c1-1.61,3.32-2.34,5.05-2.34a3.29,3.29,0,0,1,2.13.59c2.8,2.5,3,4.21,2,6.17a5,5,0,1,0-9.8-1.33c0,.11,0,.22,0,.33A4.59,4.59,0,0,1,6.64,8Z"/></svg>