<svg xmlns="http://www.w3.org/2000/svg" viewBox="0 0 21.38 23.27"><defs><style>.a{fill:#414042;}</style></defs><title>Dine</title><path class="a" d="M5,23.27H16.36A2.29,2.29,0,0,0,18.64,21V13c1.61-1.35,2.74-2.54,2.74-5a8,8,0,0,0-8-8H8A8,8,0,0,0,0,8c0,2.47,1.13,3.66,2.74,5v8A2.29,2.29,0,0,0,5,23.27ZM.8,8A7.16,7.16,0,0,1,8,.8h5.48A7.16,7.16,0,0,1,20.58,8c0,2.2-1,3.21-2.59,4.51l-.14.12V21a1.49,1.49,0,0,1-1.49,1.49H5A1.49,1.49,0,0,1,3.54,21v-8.4l-.15-.12C1.83,11.17.8,10.15.8,8Z"/><path class="a" d="M3.94,12.4V21A1.09,1.09,0,0,0,5,22.07H16.36A1.09,1.09,0,0,0,17.44,21V12.4l.29-.24C19.26,10.89,20.18,10,20.18,8A6.76,6.76,0,0,0,13.43,1.2H8A6.76,6.76,0,0,0,1.2,8c0,2,.92,2.94,2.45,4.2ZM1.6,8A6.36,6.36,0,0,1,8,1.6h5.48A6.36,6.36,0,0,1,19.78,8c0,1.8-.7,2.57-2.3,3.89l-.44.36V21a.69.69,0,0,1-.69.69H5A.69.69,0,0,1,4.34,21V12.21l-.44-.36C2.3,10.52,1.6,9.75,1.6,8Z"/></svg>