<svg xmlns="http://www.w3.org/2000/svg" viewBox="0 0 20.17 18.37"><defs><style>.a{fill:#414042;}</style></defs><title>Dine</title><circle class="a" cx="13.86" cy="3.88" r="0.48"/><circle class="a" cx="7.05" cy="4.1" r="0.48"/><circle class="a" cx="10.69" cy="5.95" r="0.48"/><circle class="a" cx="5.13" cy="6.99" r="0.48"/><circle class="a" cx="15.46" cy="8.26" r="0.48"/><path class="a" d="M20.17,7.94a3.32,3.32,0,0,0-2.12-3.12C17.19,2,13.88,0,10.09,0S3,2,2.13,4.81A3.17,3.17,0,0,0,0,7.94a3.5,3.5,0,0,0,2.36,2.94.32.32,0,0,0,0,.19l1.88,7.06a.32.32,0,0,0,.31.24H15.63a.32.32,0,0,0,.31-.24l1.88-7.06a.32.32,0,0,0,0-.12A3.2,3.2,0,0,0,20.17,7.94Zm-4.79,9.79H13.61l.6-4.28a.32.32,0,1,0-.63-.09L13,17.73H10.4V13.41a.32.32,0,1,0-.64,0v4.33H7.31L6.5,13.35a.32.32,0,1,0-.63.12l.79,4.27H4.79L3,11a2.09,2.09,0,0,1,.76.26,2.66,2.66,0,0,0,1.38.35,2.66,2.66,0,0,0,1.38-.35A2,2,0,0,1,7.61,11a2,2,0,0,1,1.09.28,2.66,2.66,0,0,0,1.38.35,2.66,2.66,0,0,0,1.38-.35,2.25,2.25,0,0,1,2.18,0,2.88,2.88,0,0,0,2.77,0,2.09,2.09,0,0,1,.76-.26Zm2.19-7.37h-.07a2.66,2.66,0,0,0-1.38.35,2.25,2.25,0,0,1-2.18,0,2.88,2.88,0,0,0-2.77,0,2,2,0,0,1-1.09.28A2,2,0,0,1,9,10.71a2.66,2.66,0,0,0-1.38-.35,2.66,2.66,0,0,0-1.38.35A2,2,0,0,1,5.14,11,2,2,0,0,1,4,10.71a2.66,2.66,0,0,0-1.28-.35C1.82,10,.64,9.11.64,7.94A2.51,2.51,0,0,1,2.43,5.4a.32.32,0,0,0,.26-.23C3.39,2.54,6.5.64,10.09.64s6.7,1.91,7.4,4.53a.32.32,0,0,0,.23.23,2.62,2.62,0,0,1,1.82,2.55A2.57,2.57,0,0,1,17.58,10.36Z"/></svg>