<svg xmlns="http://www.w3.org/2000/svg" viewBox="0 0 22.41 19.05"><defs><style>.a{fill:#414042;}</style></defs><title>Dine</title><path class="a" d="M10.22,16C5.7,16,2.55,14.79.84,12.3A.28.28,0,0,1,1.3,12c1.6,2.32,4.6,3.5,8.91,3.5a26.43,26.43,0,0,0,4.07-.34h.18c2.93-.58,6-2,6.54-3.06a.28.28,0,0,1,.49.27c-.73,1.36-4.14,2.78-6.89,3.34l-.06,0h-.07l-.13,0A27,27,0,0,1,10.22,16Z"/><path class="a" d="M11.18,10c-5.58,0-10-2.2-10-5s4.37-5,10-5,10,2.2,10,5S16.76,10,11.18,10Zm0-9.48C6,.56,1.78,2.56,1.78,5S6,9.48,11.18,9.48s9.4-2,9.4-4.46S16.36.56,11.18.56Z"/><path class="a" d="M7.2,3.06a.28.28,0,0,1,0-.56c.62-.12,1.51-.2,1.51-.2a.28.28,0,0,1,0,.56s-.87.08-1.43.19Z"/><path class="a" d="M15.19,3.13H15.1S14.24,3,13.66,3a.28.28,0,1,1,0-.56c.61,0,1.49.14,1.5.14a.28.28,0,0,1,.28.28A.28.28,0,0,1,15.19,3.13Z"/><path class="a" d="M11.78,7.25h0s-.88,0-1.45,0a.28.28,0,0,1,0-.56c.62,0,1.5,0,1.51,0a.29.29,0,0,1,.27.29A.27.27,0,0,1,11.78,7.25Z"/><path class="a" d="M4.6,5.86a.28.28,0,0,1,0-.56C5.16,5.16,5.95,5,6.1,5a.28.28,0,0,1,.32.24.28.28,0,0,1-.24.32h0c-.09,0-.89.12-1.42.25Z"/><path class="a" d="M17.07,5.81H17s-.86-.13-1.44-.16a.28.28,0,0,1-.27-.29.28.28,0,0,1,.29-.27c.6,0,1.49.17,1.5.17a.29.29,0,0,1,.29.28A.28.28,0,0,1,17.07,5.81Z"/><path class="a" d="M10.9,19.05a17.59,17.59,0,0,1-5.73-1C4,17.69,1.29,16.56.56,14.62a2.88,2.88,0,0,1,.27-2.54.28.28,0,0,1,.49.28,2.35,2.35,0,0,0-.23,2.06c.65,1.71,3.2,2.75,4.27,3.12a17,17,0,0,0,5.55.94c.44,0,1.36,0,1.93-.06a17.23,17.23,0,0,0,4.63-.92c1.07-.37,3.62-1.41,4.27-3.12a2.76,2.76,0,0,0-.32-2.23.28.28,0,0,1,.49-.28,3.28,3.28,0,0,1,.36,2.71c-.73,1.94-3.47,3.06-4.61,3.46a17.74,17.74,0,0,1-4.77.95C12.29,19.05,11.35,19.05,10.9,19.05Z"/><path class="a" d="M11,14.46a2.49,2.49,0,0,1-.5-.05,1.82,1.82,0,0,1-1.26-.84l-.09-.12H9.07a2.69,2.69,0,0,0-.79.27c-.71.31-1.9.83-2.71-.34a1.79,1.79,0,0,0-1.84-1,8.24,8.24,0,0,1-2.41.1,1.57,1.57,0,0,1-.67-.26,1.53,1.53,0,0,1-.59-1.71v0A5.14,5.14,0,0,0,.3,9.58L.45,8.23A.28.28,0,0,1,1,8.29L.86,9.64a5.57,5.57,0,0,1-.24,1v0A1,1,0,0,0,1,11.78a1,1,0,0,0,.42.16,7.81,7.81,0,0,0,2.2-.09c.62-.16,1.55-.09,2.44,1.2.51.73,1.19.51,2,.14a2.93,2.93,0,0,1,1-.31.67.67,0,0,1,.68.37,1.27,1.27,0,0,0,.91.61,1.93,1.93,0,0,0,.39,0,2.36,2.36,0,0,0,1.52-.63l0,0a1.8,1.8,0,0,1,1.29-.66,6.46,6.46,0,0,1,.83.06h0a3.15,3.15,0,0,1,.54.16,3,3,0,0,0,1,.24,1.15,1.15,0,0,0,.5-.11c.48-.23.54-.37.62-.58a1.41,1.41,0,0,1,.16-.31.75.75,0,0,1,1-.25l.2.07a3.57,3.57,0,0,0,1.75.16l.47-.07a1,1,0,0,0,.69-.48,1,1,0,0,0,.07-.79,5.58,5.58,0,0,1-.24-1l-.13-1.23a.28.28,0,0,1,.56-.06l.13,1.23a5.14,5.14,0,0,0,.22.92,1.56,1.56,0,0,1-.12,1.23,1.53,1.53,0,0,1-1.1.76l-.47.07a4.14,4.14,0,0,1-2-.19l-.2-.07c-.25-.09-.28,0-.34,0a.84.84,0,0,0-.1.2,1.46,1.46,0,0,1-.9.88,1.72,1.72,0,0,1-.74.16,3.45,3.45,0,0,1-1.18-.27,3,3,0,0,0-.43-.14h0a6.92,6.92,0,0,0-.74-.06,1.26,1.26,0,0,0-.91.49h0l-.06.06A2.9,2.9,0,0,1,11,14.46Z"/><path class="a" d="M11.14,12.47h-.25c-6,0-10.59-2.18-10.59-5a3.24,3.24,0,0,1,1-2.22.28.28,0,0,1,.4.39A2.72,2.72,0,0,0,.86,7.45c0,2.47,4.42,4.43,10.05,4.46h0a26.25,26.25,0,0,0,2.94-.15h.05c4.52-.55,7.55-2.27,7.55-4.3a2.53,2.53,0,0,0-.77-1.81.28.28,0,1,1,.4-.39,3.08,3.08,0,0,1,.93,2.2c0,2.36-3.15,4.26-8,4.85l-.06,0A25.94,25.94,0,0,1,11.14,12.47Z"/></svg>