<svg xmlns="http://www.w3.org/2000/svg" xmlns:xlink="http://www.w3.org/1999/xlink" viewBox="0 0 160.49 9.1"><defs><style>.cls-1,.cls-3,.cls-5{fill:none;}.cls-2{opacity:0.15;}.cls-3{stroke:#636363;stroke-width:5px;}.cls-3,.cls-5{stroke-miterlimit:10;}.cls-4{fill:#636363;}.cls-5{stroke:#fff;stroke-linecap:round;stroke-width:0.5px;}.cls-6{opacity:0.12;}.cls-7{clip-path:url(#clip-path);}.cls-8{fill:#fff;}</style><clipPath id="clip-path"><rect class="cls-1" y="1.55" width="159.96" height="6"/></clipPath></defs><title>P2P Dashboard elements</title><g id="Layer_4" data-name="Layer 4"><line class="line-fill" max-width = "159.4" x1="0.06" y1="4.55" x2="0.06" y2="4.55" style="stroke:#FBCF51;stroke-width: 5px;"/><g class="cls-2"><line class="cls-3" x1="0.06" y1="4.55" x2="159.54" y2="4.55"/><rect class="cls-4" x="158.84" width="1.4" height="9.1"/></g><line class="cls-5" x1="1.31" y1="2.67" x2="160.24" y2="2.67"/><g class="cls-6"><g class="cls-7"><path class="cls-8" d="M4.8.17C3.61.34,2.45.55,1.31.78l12.53,36Z"/><path class="cls-8" d="M11.87.17C10.68.34,9.52.55,8.38.78l12.53,36Z"/><path class="cls-8" d="M18.94.17c-1.19.17-2.35.38-3.49.61L28,36.74Z"/><path class="cls-8" d="M26,.17c-1.19.17-2.35.38-3.49.61l12.53,36Z"/><path class="cls-8" d="M33.09.17c-1.19.17-2.35.38-3.49.61l12.53,36Z"/><path class="cls-8" d="M40.16.17C39,.34,37.81.55,36.66.78l12.53,36Z"/><path class="cls-8" d="M47.23.17C46,.34,44.88.55,43.74.78l12.53,36Z"/><path class="cls-8" d="M54.3.17C53.11.34,52,.55,50.81.78l12.53,36Z"/><path class="cls-8" d="M61.37.17C60.18.34,59,.55,57.88.78l12.53,36Z"/><path class="cls-8" d="M68.44.17c-1.19.17-2.35.38-3.49.61l12.53,36Z"/><path class="cls-8" d="M75.51.17C74.33.34,73.17.55,72,.78l12.53,36Z"/><path class="cls-8" d="M82.59.17c-1.19.17-2.35.38-3.49.61l12.53,36Z"/><path class="cls-8" d="M89.66.17c-1.19.17-2.35.38-3.49.61l12.53,36Z"/><path class="cls-8" d="M96.73.17c-1.19.17-2.35.38-3.49.61l12.53,36Z"/><path class="cls-8" d="M103.8.17c-1.19.17-2.35.38-3.49.61l12.53,36Z"/><path class="cls-8" d="M110.87.17c-1.19.17-2.35.38-3.49.61l12.53,36Z"/><path class="cls-8" d="M117.94.17c-1.19.17-2.35.38-3.49.61l12.53,36Z"/><path class="cls-8" d="M125,.17c-1.19.17-2.35.38-3.49.61l12.53,36Z"/><path class="cls-8" d="M132.09.17c-1.19.17-2.35.38-3.49.61l12.53,36Z"/><path class="cls-8" d="M139.16.17c-1.19.17-2.35.38-3.49.61l12.53,36Z"/><path class="cls-8" d="M146.23.17c-1.19.17-2.35.38-3.49.61l12.53,36Z"/><path class="cls-8" d="M153.3.17c-1.19.17-2.35.38-3.49.61l12.53,36Z"/><path class="cls-8" d="M160.37.17c-1.19.17-2.35.38-3.49.61l12.53,36Z"/></g></g></g></svg>