<svg xmlns="http://www.w3.org/2000/svg" viewBox="0 0 46.65 40.75"><defs><style>.cls-1{fill:#fbcf51;}.cls-2{fill:#fff;}.cls-3{fill:#333e48;stroke-width:0.75px;}.cls-3,.cls-5{stroke:#000;stroke-miterlimit:10;}.cls-4{opacity:0.1;}</style></defs><title>P2P Dashboard elements</title><g id="Layer_4" data-name="Layer 4"><path class="cls-1" d="M13.82,12.57c0,.54-.3,1-.66,1H8.44c-.36,0-.66-.44-.66-1V2.49c0-.54.3-1,.66-1h4.72c.36,0,.66.44.66,1Z"/><path d="M13.16,13.92H8.44c-.58,0-1-.59-1-1.35V2.49c0-.76.46-1.35,1-1.35h4.72c.58,0,1,.59,1,1.35V12.57C14.2,13.33,13.74,13.92,13.16,13.92Zm-4.72-12c-.1,0-.29.23-.29.6V12.57c0,.37.18.6.29.6h4.72c.1,0,.29-.23.29-.6V2.49c0-.37-.18-.6-.29-.6Z"/><polygon class="cls-2" points="4.19 13.24 4.19 37.69 42.45 37.69 42.45 13.24 23.32 1.94 4.19 13.24"/><path d="M42.83,38.07h-39V13L23.32,1.5,42.83,13ZM4.57,37.32H42.08V13.45L23.32,2.37,4.57,13.45Z"/><path class="cls-1" d="M25.19,28.74a2.44,2.44,0,0,1-1.49.77l-.11,1.77h-1l-.15-.15.11-1.58a5.67,5.67,0,0,1-1.7-.39L21,27.58l.17-.12a3.67,3.67,0,0,0,1,.64,2.5,2.5,0,0,0,1,.24,1,1,0,0,0,.61-.19.58.58,0,0,0,.23-.47.55.55,0,0,0-.28-.48,5,5,0,0,0-.85-.41,8.9,8.9,0,0,1-1-.48,2.09,2.09,0,0,1-.66-.61,1.64,1.64,0,0,1-.27-1,1.91,1.91,0,0,1,.53-1.35A2.56,2.56,0,0,1,23,22.67l.11-1.85h1l.16.16-.11,1.65a4.8,4.8,0,0,1,1.38.31l-.25,1.5L25,24.5a2.74,2.74,0,0,0-1.57-.64.89.89,0,0,0-.59.18.55.55,0,0,0-.21.44.54.54,0,0,0,.27.46,5.16,5.16,0,0,0,.84.42,10,10,0,0,1,1,.47,2,2,0,0,1,.66.6,1.59,1.59,0,0,1,.28,1A2,2,0,0,1,25.19,28.74Z"/><path class="cls-1" d="M46.27,39.89a.5.5,0,0,1-.51.48H.88a.5.5,0,0,1-.51-.48V38.17a.5.5,0,0,1,.51-.48H45.76a.5.5,0,0,1,.51.48v1.72Z"/><path d="M45.76,40.75H.88A.87.87,0,0,1,0,39.9V38.17a.87.87,0,0,1,.88-.86H45.76a.87.87,0,0,1,.88.86V39.9A.87.87,0,0,1,45.76,40.75ZM.88,38.07a.13.13,0,0,0-.13.11V39.9A.13.13,0,0,0,.88,40H45.76a.13.13,0,0,0,.13-.11V38.17a.13.13,0,0,0-.13-.11Z"/><rect class="cls-3" x="15.71" y="37.69" width="15.23" height="2.68"/><g class="cls-4"><path class="cls-5" d="M2.84,16.1H8.9a.13.13,0,0,1,.13.13V19.1a2.77,2.77,0,0,1-2.77,2.77H5.47A2.77,2.77,0,0,1,2.71,19.1V16.23A.13.13,0,0,1,2.84,16.1Z"/><path class="cls-5" d="M38.5,16.1h6.06a.13.13,0,0,1,.13.13V19.1a2.77,2.77,0,0,1-2.77,2.77h-.79a2.77,2.77,0,0,1-2.77-2.77V16.23A.13.13,0,0,1,38.5,16.1Z"/><path class="cls-5" d="M32.43,13.11h6.06a.13.13,0,0,1,.13.13v2.87a2.77,2.77,0,0,1-2.77,2.77h-.79a2.77,2.77,0,0,1-2.77-2.77V13.25a.13.13,0,0,1,.13-.13Z"/><path class="cls-5" d="M26.36,9.94h6.06a.13.13,0,0,1,.13.13v2.87a2.77,2.77,0,0,1-2.77,2.77H29a2.77,2.77,0,0,1-2.77-2.77V10.08a.13.13,0,0,1,.13-.13Z"/><path class="cls-5" d="M8.65,13.11h6.06a.13.13,0,0,1,.13.13v2.87a2.77,2.77,0,0,1-2.77,2.77h-.79a2.77,2.77,0,0,1-2.77-2.77V13.25a.13.13,0,0,1,.13-.13Z"/><path class="cls-5" d="M14.47,9.94h6.06a.13.13,0,0,1,.13.13v2.87a2.77,2.77,0,0,1-2.77,2.77h-.79a2.77,2.77,0,0,1-2.77-2.77V10.08a.13.13,0,0,1,.13-.13Z"/><path class="cls-5" d="M20.29,7.46h6.06a.13.13,0,0,1,.13.13v2.87a2.77,2.77,0,0,1-2.77,2.77h-.79a2.77,2.77,0,0,1-2.77-2.77V7.59a.13.13,0,0,1,.13-.13Z"/></g><path class="cls-1" d="M2.84,13.65H8.9a.13.13,0,0,1,.13.13v2.87a2.77,2.77,0,0,1-2.77,2.77H5.47a2.77,2.77,0,0,1-2.77-2.77V13.78a.13.13,0,0,1,.13-.13Z"/><path d="M6.26,19.92H5.47a3.27,3.27,0,0,1-3.27-3.27V13.78a.63.63,0,0,1,.63-.63H8.9a.63.63,0,0,1,.63.63v2.87A3.27,3.27,0,0,1,6.26,19.92ZM3.21,14.15v2.5a2.27,2.27,0,0,0,2.27,2.27h.79a2.27,2.27,0,0,0,2.27-2.27v-2.5Z"/><path class="cls-1" d="M38.5,13.65h6.06a.13.13,0,0,1,.13.13v2.87a2.77,2.77,0,0,1-2.77,2.77h-.79a2.77,2.77,0,0,1-2.77-2.77V13.78A.13.13,0,0,1,38.5,13.65Z"/><path d="M41.92,19.92h-.79a3.27,3.27,0,0,1-3.27-3.27V13.78a.63.63,0,0,1,.63-.63h6.06a.63.63,0,0,1,.63.63v2.87A3.27,3.27,0,0,1,41.92,19.92Zm-3.06-5.77v2.5a2.27,2.27,0,0,0,2.27,2.27h.79a2.27,2.27,0,0,0,2.27-2.27v-2.5Z"/><path class="cls-1" d="M32.43,10.66h6.06a.13.13,0,0,1,.13.13v2.87a2.77,2.77,0,0,1-2.77,2.77h-.79a2.77,2.77,0,0,1-2.77-2.77V10.8A.13.13,0,0,1,32.43,10.66Z"/><path d="M35.85,16.94h-.79a3.27,3.27,0,0,1-3.27-3.27V10.8a.63.63,0,0,1,.63-.63h6.06a.63.63,0,0,1,.63.63v2.87A3.27,3.27,0,0,1,35.85,16.94Zm-3.06-5.77v2.5a2.27,2.27,0,0,0,2.27,2.27h.79a2.27,2.27,0,0,0,2.27-2.27v-2.5Z"/><path class="cls-1" d="M26.36,7.49h6.06a.13.13,0,0,1,.13.13V10.5a2.77,2.77,0,0,1-2.77,2.77H29a2.77,2.77,0,0,1-2.77-2.77V7.63a.13.13,0,0,1,.13-.13Z"/><path d="M29.78,13.77H29a3.27,3.27,0,0,1-3.27-3.27V7.63A.63.63,0,0,1,26.36,7h6.06a.63.63,0,0,1,.63.63V10.5A3.27,3.27,0,0,1,29.78,13.77ZM26.72,8v2.5A2.27,2.27,0,0,0,29,12.77h.79a2.27,2.27,0,0,0,2.27-2.27V8Z"/><path class="cls-1" d="M8.65,10.66h6.06a.13.13,0,0,1,.13.13v2.87a2.77,2.77,0,0,1-2.77,2.77h-.79a2.77,2.77,0,0,1-2.77-2.77V10.8a.13.13,0,0,1,.13-.13Z"/><path d="M12.08,16.94h-.79A3.27,3.27,0,0,1,8,13.67V10.8a.63.63,0,0,1,.63-.63h6.06a.63.63,0,0,1,.63.63v2.87A3.27,3.27,0,0,1,12.08,16.94ZM9,11.16v2.5a2.27,2.27,0,0,0,2.27,2.27h.79a2.27,2.27,0,0,0,2.27-2.27v-2.5Z"/><path class="cls-1" d="M14.47,7.49h6.06a.13.13,0,0,1,.13.13V10.5a2.77,2.77,0,0,1-2.77,2.77h-.79a2.77,2.77,0,0,1-2.77-2.77V7.63a.13.13,0,0,1,.13-.13Z"/><path d="M17.9,13.77h-.79a3.27,3.27,0,0,1-3.27-3.27V7.63A.63.63,0,0,1,14.47,7h6.06a.63.63,0,0,1,.63.63V10.5A3.27,3.27,0,0,1,17.9,13.77ZM14.84,8v2.5a2.27,2.27,0,0,0,2.27,2.27h.79a2.27,2.27,0,0,0,2.27-2.27V8Z"/><path class="cls-1" d="M20.29,5h6.06a.13.13,0,0,1,.13.13V8a2.77,2.77,0,0,1-2.77,2.77h-.79A2.77,2.77,0,0,1,20.16,8V5.14A.13.13,0,0,1,20.29,5Z"/><path d="M23.71,11.28h-.79A3.27,3.27,0,0,1,19.66,8V5.14a.63.63,0,0,1,.63-.63h6.06a.63.63,0,0,1,.63.63V8A3.27,3.27,0,0,1,23.71,11.28ZM20.66,5.51V8a2.27,2.27,0,0,0,2.27,2.27h.79A2.27,2.27,0,0,0,26,8V5.51Z"/><path class="cls-1" d="M44.27,17.76a1.71,1.71,0,0,1-.87-.24L23.32,5.69,3.24,17.53C2.47,18,1.45,15.85,1,15.11A1.51,1.51,0,0,1,1.5,13L22.45.61a1.73,1.73,0,0,1,1.74,0L45.15,13a1.51,1.51,0,0,1,.53,2.15S44.82,17.76,44.27,17.76Z"/><path d="M44.27,18.14a2.09,2.09,0,0,1-1.06-.29L23.32,6.12,3.43,17.85a.82.82,0,0,1-.64.09c-.65-.17-1.22-1.05-1.83-2.11-.12-.2-.22-.38-.31-.51A1.86,1.86,0,0,1,.4,13.87a1.93,1.93,0,0,1,.91-1.23L22.26.29a2.1,2.1,0,0,1,2.13,0l21,12.35a1.93,1.93,0,0,1,.91,1.23A1.85,1.85,0,0,1,46,15.27C45.09,18.14,44.48,18.14,44.27,18.14ZM23.32,5.25,43.59,17.2a1.34,1.34,0,0,0,.63.18A7.91,7.91,0,0,0,45.32,15l0-.09a1.11,1.11,0,0,0,.16-.87,1.19,1.19,0,0,0-.56-.75L24,.94a1.36,1.36,0,0,0-1.36,0l-21,12.35a1.19,1.19,0,0,0-.56.75,1.11,1.11,0,0,0,.16.87c.09.14.2.33.33.54C2,16,2.58,17.1,3,17.21Z"/></g></svg>