<svg xmlns="http://www.w3.org/2000/svg" viewBox="0 0 46.65 40.75"><defs><style>.cls-1{fill:#a8a8a5;}.cls-2{fill:#fff;}.cls-3{fill:#333e48;stroke-width:0.75px;}.cls-3,.cls-5{stroke:#000;stroke-miterlimit:10;}.cls-4{opacity:0.1;}</style></defs><title>P2P Dashboard elements</title><g id="Layer_4" data-name="Layer 4"><path class="cls-1" d="M13.82,12.57c0,.54-.3,1-.66,1H8.44c-.36,0-.66-.44-.66-1V2.49c0-.54.3-1,.66-1h4.72c.36,0,.66.44.66,1Z"/><path d="M13.16,13.92H8.44c-.58,0-1-.59-1-1.35V2.49c0-.76.46-1.35,1-1.35h4.72c.58,0,1,.59,1,1.35V12.57C14.2,13.33,13.74,13.92,13.16,13.92Zm-4.72-12c-.1,0-.29.23-.29.6V12.57c0,.37.18.6.29.6h4.72c.1,0,.29-.23.29-.6V2.49c0-.37-.18-.6-.29-.6Z"/><polygon class="cls-2" points="4.19 13.24 4.19 37.69 42.46 37.69 42.46 13.24 23.32 1.94 4.19 13.24"/><path d="M42.83,38.07h-39V13L23.32,1.5,42.83,13ZM4.57,37.32H42.08V13.45L23.32,2.37,4.57,13.45Z"/><path class="cls-1" d="M16.15,28.74a2.45,2.45,0,0,1-1.49.77l-.11,1.77h-1l-.15-.15.11-1.58a5.67,5.67,0,0,1-1.7-.39L12,27.58l.17-.12a3.67,3.67,0,0,0,1,.64,2.49,2.49,0,0,0,1,.24,1,1,0,0,0,.61-.19.58.58,0,0,0,.23-.47.55.55,0,0,0-.27-.48,5,5,0,0,0-.85-.41,9,9,0,0,1-1-.48,2.07,2.07,0,0,1-.66-.61,1.63,1.63,0,0,1-.27-1,1.91,1.91,0,0,1,.53-1.35,2.56,2.56,0,0,1,1.45-.74L14,20.82h1l.16.16-.11,1.65a4.8,4.8,0,0,1,1.38.31l-.25,1.5L16,24.5a2.74,2.74,0,0,0-1.57-.64.89.89,0,0,0-.59.18.55.55,0,0,0-.21.44.54.54,0,0,0,.27.46,5.13,5.13,0,0,0,.84.42,10.14,10.14,0,0,1,1,.47,2,2,0,0,1,.66.6,1.6,1.6,0,0,1,.27,1A2,2,0,0,1,16.15,28.74Z"/><path class="cls-1" d="M22.17,28.74a2.45,2.45,0,0,1-1.49.77l-.11,1.77h-1l-.15-.15.11-1.58a5.67,5.67,0,0,1-1.7-.39L18,27.58l.17-.12a3.67,3.67,0,0,0,1,.64,2.49,2.49,0,0,0,1,.24,1,1,0,0,0,.61-.19.58.58,0,0,0,.23-.47.55.55,0,0,0-.27-.48,5,5,0,0,0-.85-.41,9,9,0,0,1-1-.48,2.07,2.07,0,0,1-.66-.61,1.63,1.63,0,0,1-.27-1,1.91,1.91,0,0,1,.53-1.35A2.56,2.56,0,0,1,20,22.67l.11-1.85h1l.16.16-.11,1.65a4.8,4.8,0,0,1,1.38.31l-.25,1.5L22,24.5a2.74,2.74,0,0,0-1.57-.64.89.89,0,0,0-.59.18.55.55,0,0,0-.21.44.54.54,0,0,0,.27.46,5.13,5.13,0,0,0,.84.42,10.14,10.14,0,0,1,1,.47,2,2,0,0,1,.66.6,1.6,1.6,0,0,1,.27,1A2,2,0,0,1,22.17,28.74Z"/><path class="cls-1" d="M28.2,28.74a2.45,2.45,0,0,1-1.49.77l-.11,1.77h-1l-.15-.15.11-1.58a5.67,5.67,0,0,1-1.7-.39l.23-1.58.17-.12a3.67,3.67,0,0,0,1,.64,2.49,2.49,0,0,0,1,.24,1,1,0,0,0,.61-.19.58.58,0,0,0,.23-.47.55.55,0,0,0-.27-.48,5,5,0,0,0-.85-.41,9,9,0,0,1-1-.48,2.07,2.07,0,0,1-.66-.61,1.63,1.63,0,0,1-.27-1,1.91,1.91,0,0,1,.53-1.35A2.56,2.56,0,0,1,26,22.67l.11-1.85h1l.16.16-.11,1.65a4.8,4.8,0,0,1,1.38.31l-.25,1.5L28,24.5a2.74,2.74,0,0,0-1.57-.64.89.89,0,0,0-.59.18.55.55,0,0,0-.21.44.54.54,0,0,0,.27.46,5.13,5.13,0,0,0,.84.42,10.14,10.14,0,0,1,1,.47,2,2,0,0,1,.66.6,1.6,1.6,0,0,1,.27,1A2,2,0,0,1,28.2,28.74Z"/><path class="cls-1" d="M34.22,28.74a2.45,2.45,0,0,1-1.49.77l-.11,1.77h-1l-.15-.15.11-1.58a5.67,5.67,0,0,1-1.7-.39l.23-1.58.17-.12a3.67,3.67,0,0,0,1,.64,2.49,2.49,0,0,0,1,.24,1,1,0,0,0,.61-.19.58.58,0,0,0,.23-.47.55.55,0,0,0-.27-.48,5,5,0,0,0-.85-.41,9,9,0,0,1-1-.48,2.07,2.07,0,0,1-.66-.61,1.63,1.63,0,0,1-.27-1,1.91,1.91,0,0,1,.53-1.35A2.56,2.56,0,0,1,32,22.67l.11-1.85h1l.16.16-.11,1.65a4.8,4.8,0,0,1,1.38.31l-.25,1.5-.24.07a2.74,2.74,0,0,0-1.57-.64.89.89,0,0,0-.59.18.55.55,0,0,0-.21.44.54.54,0,0,0,.27.46,5.13,5.13,0,0,0,.84.42,10.14,10.14,0,0,1,1,.47,2,2,0,0,1,.66.6,1.6,1.6,0,0,1,.27,1A2,2,0,0,1,34.22,28.74Z"/><path class="cls-1" d="M46.27,39.9a.5.5,0,0,1-.51.48H.88a.5.5,0,0,1-.51-.48V38.17a.5.5,0,0,1,.51-.48H45.76a.5.5,0,0,1,.51.48V39.9Z"/><path d="M45.76,40.75H.88A.87.87,0,0,1,0,39.9V38.17a.87.87,0,0,1,.88-.86H45.76a.87.87,0,0,1,.88.86V39.9A.87.87,0,0,1,45.76,40.75ZM.88,38.07a.13.13,0,0,0-.13.11V39.9A.13.13,0,0,0,.88,40H45.76a.13.13,0,0,0,.13-.11V38.17a.13.13,0,0,0-.13-.11Z"/><rect class="cls-3" x="15.71" y="37.69" width="15.23" height="2.68"/><g class="cls-4"><path class="cls-5" d="M2.85,16.1h6a.14.14,0,0,1,.14.14v2.62a3,3,0,0,1-3,3H5.71a3,3,0,0,1-3-3V16.24a.14.14,0,0,1,.14-.14Z"/><path class="cls-5" d="M38.51,16.1h6a.14.14,0,0,1,.14.14v2.62a3,3,0,0,1-3,3h-.32a3,3,0,0,1-3-3V16.24A.14.14,0,0,1,38.51,16.1Z"/><path class="cls-5" d="M32.44,13.11h6a.14.14,0,0,1,.14.14v2.62a3,3,0,0,1-3,3H35.3a3,3,0,0,1-3-3V13.26a.14.14,0,0,1,.14-.14Z"/><path class="cls-5" d="M26.37,9.94h6a.14.14,0,0,1,.14.14v2.62a3,3,0,0,1-3,3h-.32a3,3,0,0,1-3-3V10.09a.14.14,0,0,1,.14-.14Z"/><path class="cls-5" d="M8.67,13.11h6a.14.14,0,0,1,.14.14v2.62a3,3,0,0,1-3,3h-.32a3,3,0,0,1-3-3V13.26a.14.14,0,0,1,.14-.14Z"/><path class="cls-5" d="M14.48,9.94h6a.14.14,0,0,1,.14.14v2.62a3,3,0,0,1-3,3h-.32a3,3,0,0,1-3-3V10.09a.14.14,0,0,1,.14-.14Z"/><path class="cls-5" d="M20.3,7.46h6a.14.14,0,0,1,.14.14v2.62a3,3,0,0,1-3,3h-.32a3,3,0,0,1-3-3V7.6a.14.14,0,0,1,.14-.14Z"/></g><path class="cls-2" d="M6,19.42H5.71a3,3,0,0,1-3-3V13.79a.14.14,0,0,1,.14-.14h6a.14.14,0,0,1,.14.14v2.62A3,3,0,0,1,6,19.42Z"/><path class="cls-1" d="M6,19.42H5.71a3,3,0,0,1-3-3V13.79a.14.14,0,0,1,.14-.14h6a.14.14,0,0,1,.14.14v2.62A3,3,0,0,1,6,19.42Z"/><path d="M6,19.92H5.71a3.51,3.51,0,0,1-3.5-3.5V13.79a.64.64,0,0,1,.64-.64h6a.64.64,0,0,1,.64.64v2.62A3.51,3.51,0,0,1,6,19.92ZM3.21,14.15v2.27a2.51,2.51,0,0,0,2.5,2.5H6a2.51,2.51,0,0,0,2.5-2.5V14.15Z"/><path d="M6,19.79H5.71a3.38,3.38,0,0,1-3.38-3.38V13.79a.52.52,0,0,1,.52-.52h6a.52.52,0,0,1,.52.52v2.62A3.38,3.38,0,0,1,6,19.79ZM3.08,14v2.39A2.63,2.63,0,0,0,5.71,19H6a2.63,2.63,0,0,0,2.63-2.63V14Z"/><path class="cls-2" d="M41.68,19.42h-.32a3,3,0,0,1-3-3V13.79a.14.14,0,0,1,.14-.14h6a.14.14,0,0,1,.14.14v2.62A3,3,0,0,1,41.68,19.42Z"/><path class="cls-1" d="M41.68,19.42h-.32a3,3,0,0,1-3-3V13.79a.14.14,0,0,1,.14-.14h6a.14.14,0,0,1,.14.14v2.62A3,3,0,0,1,41.68,19.42Z"/><path d="M41.68,19.92h-.32a3.51,3.51,0,0,1-3.5-3.5V13.79a.64.64,0,0,1,.64-.64h6a.64.64,0,0,1,.64.64v2.62A3.51,3.51,0,0,1,41.68,19.92Zm-2.82-5.77v2.27a2.51,2.51,0,0,0,2.5,2.5h.32a2.51,2.51,0,0,0,2.5-2.5V14.15Z"/><path d="M41.68,19.79h-.32A3.38,3.38,0,0,1,38,16.41V13.79a.52.52,0,0,1,.52-.52h6a.52.52,0,0,1,.52.52v2.62A3.38,3.38,0,0,1,41.68,19.79ZM38.74,14v2.39A2.63,2.63,0,0,0,41.37,19h.32a2.63,2.63,0,0,0,2.63-2.63V14Z"/><path class="cls-2" d="M35.62,16.44H35.3a3,3,0,0,1-3-3V10.81a.14.14,0,0,1,.14-.14h6a.14.14,0,0,1,.14.14v2.62A3,3,0,0,1,35.62,16.44Z"/><path class="cls-1" d="M35.62,16.44H35.3a3,3,0,0,1-3-3V10.81a.14.14,0,0,1,.14-.14h6a.14.14,0,0,1,.14.14v2.62A3,3,0,0,1,35.62,16.44Z"/><path d="M35.62,16.94H35.3a3.51,3.51,0,0,1-3.5-3.5V10.81a.64.64,0,0,1,.64-.64h6a.64.64,0,0,1,.64.64v2.62A3.51,3.51,0,0,1,35.62,16.94Zm-2.82-5.77v2.27a2.51,2.51,0,0,0,2.5,2.5h.32a2.51,2.51,0,0,0,2.51-2.5V11.16Z"/><path d="M35.62,16.81H35.3a3.38,3.38,0,0,1-3.38-3.38V10.81a.52.52,0,0,1,.52-.52h6a.52.52,0,0,1,.52.52v2.62A3.38,3.38,0,0,1,35.62,16.81ZM32.67,11v2.39a2.63,2.63,0,0,0,2.63,2.63h.32a2.63,2.63,0,0,0,2.63-2.63V11Z"/><path class="cls-2" d="M29.55,13.27h-.32a3,3,0,0,1-3-3V7.64a.14.14,0,0,1,.14-.14h6a.14.14,0,0,1,.14.14v2.62A3,3,0,0,1,29.55,13.27Z"/><path class="cls-1" d="M29.55,13.27h-.32a3,3,0,0,1-3-3V7.64a.14.14,0,0,1,.14-.14h6a.14.14,0,0,1,.14.14v2.62A3,3,0,0,1,29.55,13.27Z"/><path d="M29.55,13.77h-.32a3.51,3.51,0,0,1-3.51-3.5V7.64A.64.64,0,0,1,26.37,7h6a.64.64,0,0,1,.64.64v2.62A3.51,3.51,0,0,1,29.55,13.77ZM26.72,8v2.27a2.51,2.51,0,0,0,2.51,2.5h.32a2.51,2.51,0,0,0,2.5-2.5V8Z"/><path d="M29.55,13.64h-.32a3.38,3.38,0,0,1-3.38-3.38V7.64a.52.52,0,0,1,.52-.52h6a.52.52,0,0,1,.52.52v2.62A3.38,3.38,0,0,1,29.55,13.64ZM26.6,7.87v2.39a2.63,2.63,0,0,0,2.63,2.63h.32a2.63,2.63,0,0,0,2.63-2.63V7.87Z"/><path class="cls-1" d="M8.67,10.66h6a.14.14,0,0,1,.14.14v2.62a3,3,0,0,1-3,3h-.32a3,3,0,0,1-3-3V10.81A.14.14,0,0,1,8.67,10.66Z"/><path d="M11.84,16.81h-.32a3.38,3.38,0,0,1-3.38-3.38V10.81a.52.52,0,0,1,.52-.52h6a.52.52,0,0,1,.52.52v2.62A3.38,3.38,0,0,1,11.84,16.81ZM8.9,11v2.39a2.63,2.63,0,0,0,2.63,2.63h.32a2.63,2.63,0,0,0,2.63-2.63V11Z"/><path class="cls-1" d="M14.48,7.49h6a.14.14,0,0,1,.14.14v2.62a3,3,0,0,1-3,3h-.32a3,3,0,0,1-3-3V7.64a.14.14,0,0,1,.14-.14Z"/><path d="M17.66,13.64h-.32A3.38,3.38,0,0,1,14,10.26V7.64a.52.52,0,0,1,.52-.52h6a.52.52,0,0,1,.52.52v2.62A3.38,3.38,0,0,1,17.66,13.64ZM14.71,7.87v2.39a2.63,2.63,0,0,0,2.63,2.63h.32a2.63,2.63,0,0,0,2.63-2.63V7.87Z"/><path class="cls-2" d="M23.48,10.78h-.32a3,3,0,0,1-3-3V5.15A.14.14,0,0,1,20.3,5h6a.14.14,0,0,1,.14.14V7.78A3,3,0,0,1,23.48,10.78Z"/><path class="cls-1" d="M23.48,10.78h-.32a3,3,0,0,1-3-3V5.15A.14.14,0,0,1,20.3,5h6a.14.14,0,0,1,.14.14V7.78A3,3,0,0,1,23.48,10.78Z"/><path d="M23.48,11.28h-.32a3.51,3.51,0,0,1-3.5-3.5V5.15a.64.64,0,0,1,.64-.64h6a.64.64,0,0,1,.64.64V7.78A3.51,3.51,0,0,1,23.48,11.28ZM20.66,5.51V7.78a2.51,2.51,0,0,0,2.5,2.5h.32A2.51,2.51,0,0,0,26,7.78V5.51Z"/><path d="M23.48,11.16h-.32a3.38,3.38,0,0,1-3.38-3.38V5.15a.52.52,0,0,1,.52-.52h6a.52.52,0,0,1,.52.52V7.78A3.38,3.38,0,0,1,23.48,11.16ZM20.53,5.39V7.78a2.63,2.63,0,0,0,2.63,2.63h.32a2.63,2.63,0,0,0,2.63-2.63V5.39Z"/><path class="cls-1" d="M44.27,17.76a1.71,1.71,0,0,1-.87-.24L23.32,5.69,3.24,17.53C2.47,18,1.45,15.85,1,15.11A1.51,1.51,0,0,1,1.5,13L22.45.61a1.73,1.73,0,0,1,1.74,0L45.15,13a1.51,1.51,0,0,1,.53,2.15S44.82,17.76,44.27,17.76Z"/><path d="M44.27,18.14a2.09,2.09,0,0,1-1.06-.29L23.32,6.13,3.44,17.85a.82.82,0,0,1-.64.09c-.65-.17-1.22-1.06-1.84-2.11-.12-.2-.22-.37-.3-.5A1.86,1.86,0,0,1,.4,13.87a1.93,1.93,0,0,1,.91-1.23L22.26.29a2.1,2.1,0,0,1,2.13,0l21,12.35a1.93,1.93,0,0,1,.91,1.23A1.85,1.85,0,0,1,46,15.28C45.09,18.14,44.48,18.14,44.27,18.14Zm-21-12.88L43.59,17.2a1.34,1.34,0,0,0,.63.18A7.89,7.89,0,0,0,45.32,15l0-.09a1.11,1.11,0,0,0,.16-.87,1.18,1.18,0,0,0-.56-.75L24,.94a1.36,1.36,0,0,0-1.36,0l-21,12.35a1.18,1.18,0,0,0-.56.75,1.11,1.11,0,0,0,.16.87c.09.14.2.33.33.54C2,16,2.58,17.1,3,17.21Z"/></g></svg>