<svg xmlns="http://www.w3.org/2000/svg" viewBox="0 0 40.46 40.46" preserveAspectRatio="xMidYMid meet"><defs><style>.cls-1{fill:#e8930b;}.cls-2{fill:#bb2c2b;}.cls-3{fill:#96555f;}.cls-4{fill:#658781;}.cls-5{fill:#53514f;}.cls-6{fill:#8a867d;}.cls-7{fill:#ffd15c;}</style></defs><title>P2P Dashboard elements</title><g id="Layer_4" data-name="Layer 4"><path d="M20.23,40.46a20.24,20.24,0,0,1-19.08-27,.5.5,0,0,1,.94.33A19.24,19.24,0,1,0,8,5.36a.5.5,0,0,1-.63-.77A20.23,20.23,0,1,1,20.23,40.46Z"/><rect class="cls-1" x="24.62" y="18.65" width="3" height="3.07"/><rect class="cls-2" x="18.47" y="18.65" width="3" height="3.07"/><rect class="cls-3" x="12.32" y="18.65" width="3" height="3.07"/><rect class="cls-4" x="24.62" y="24.61" width="3" height="3.07"/><rect class="cls-5" x="18.47" y="24.61" width="3" height="3.07"/><rect class="cls-6" x="12.32" y="24.61" width="3" height="3.07"/><polyline class="cls-7" points="14.58 13.3 14.58 11.39 25.88 11.39 25.88 13.3"/><path class="cls-7" d="M27.15,11.39h3.31c.33,0,.6.38.6.84v3.25H9.41V12.23c0-.46.27-.84.6-.84h3.31"/><path d="M10.56,31.39a1.67,1.67,0,0,1-1.67-1.66v-17A1.67,1.67,0,0,1,10.56,11h3.23V9.57a.5.5,0,0,1,1,0V11H25.67V9.57a.5.5,0,0,1,1,0V11H29.9a1.67,1.67,0,0,1,1.67,1.66v17a1.67,1.67,0,0,1-1.67,1.66ZM30.57,16H9.89V29.73a.67.67,0,0,0,.67.67H29.9a.67.67,0,0,0,.67-.67Zm-3.89-4v1.39a.5.5,0,0,1-1,0V12H14.79v1.39a.5.5,0,0,1-1,0V12H10.56a.67.67,0,0,0-.67.67V15H30.57v-2.3A.67.67,0,0,0,29.9,12Z"/><path d="M24.48,22.35a.5.5,0,0,1-.5-.5V18.53a.5.5,0,0,1,.5-.5h3.28a.5.5,0,0,1,.5.5v3.32a.5.5,0,0,1-.5.5ZM27.26,19H25v2.32h2.28Z"/><path d="M24.48,28.3a.5.5,0,0,1-.5-.5V24.48a.5.5,0,0,1,.5-.5h3.28a.5.5,0,0,1,.5.5V27.8a.5.5,0,0,1-.5.5ZM27.26,25H25V27.3h2.28Z"/><path d="M18.33,28.3a.5.5,0,0,1-.5-.5V24.48a.5.5,0,0,1,.5-.5h3.28a.5.5,0,0,1,.5.5V27.8a.5.5,0,0,1-.5.5ZM21.11,25H18.83V27.3h2.28Z"/><path d="M18.33,22.35a.5.5,0,0,1-.5-.5V18.53a.5.5,0,0,1,.5-.5h3.28a.5.5,0,0,1,.5.5v3.32a.5.5,0,0,1-.5.5ZM21.11,19H18.83v2.32h2.28Z"/><path d="M12.18,28.3a.5.5,0,0,1-.5-.5V24.48a.5.5,0,0,1,.5-.5h3.28a.5.5,0,0,1,.5.5V27.8a.5.5,0,0,1-.5.5ZM15,25H12.68V27.3H15Z"/><path d="M12.18,22.35a.5.5,0,0,1-.5-.5V18.53a.5.5,0,0,1,.5-.5h3.28a.5.5,0,0,1,.5.5v3.32a.5.5,0,0,1-.5.5ZM15,19H12.68v2.32H15Z"/><path d="M7,8.44H4.72V6.13a.63.63,0,0,0-1.25,0V8.44H1.16a.63.63,0,1,0,0,1.25H3.47V12a.63.63,0,0,0,1.25,0V9.69H7A.63.63,0,0,0,7,8.44Z"/></g></svg>