<svg xmlns="http://www.w3.org/2000/svg" viewBox="0 0 45.5 42.54"><defs><style>.cls-1{fill:#ededed);}.cls-2{fill:#231f20;}</style></defs><title>P2P Dashboard elements</title><g id="Layer_4" data-name="Layer 4"><path class="cls-1" d="M45.5,42.54H0V0H45.5ZM19.37,8.42c.41,1.69,3,4.25,5.5,2s.91-5.53.91-5.53A3.18,3.18,0,0,0,26,1a3.73,3.73,0,0,1-3,.75c-2.09-.22-2.44,0-4.09,1.28s0,3.31,0,3.31S19,6.73,19.37,8.42ZM29.5,16.76c.09-3.78-2.66-4.31-3.16-4.66s-2.72,1.06-3.75,1.16-3.06-1.16-3.06-1.16C17.31,12,16,16,16,16s.11,9.27,0,10.67,2.4,1,2.4,1,.16,11.4.13,11.82-.41.58-.65,1.58,1.09,1,1.09,1h7.25c.79,0,1.18-.08,1.21-.82A2.36,2.36,0,0,0,27.06,40l0-12.17a3,3,0,0,0,2.31-.73S29.41,20.54,29.5,16.76Z"/><path class="cls-2" d="M22.77,11.71a4.32,4.32,0,0,1-4.06-4.31,4.29,4.29,0,0,1-.77-3.54A4.07,4.07,0,0,1,20,1.38a2.71,2.71,0,0,1,1.17-.26,7.1,7.1,0,0,1,.78.06,9.2,9.2,0,0,0,1,.07,6,6,0,0,0,.85-.06A7.07,7.07,0,0,0,25.94.55a.43.43,0,0,1,.19,0l.15,0c.12,0,.31.27.46.78a3.93,3.93,0,0,1-.41,3.27l0,0,0,.06a5.21,5.21,0,0,1-.21,5A3.9,3.9,0,0,1,22.77,11.71ZM20.4,4.37a3.39,3.39,0,0,0-.58.92,4.56,4.56,0,0,0,.44,4.13,3,3,0,0,0,2.51,1.44A3,3,0,0,0,25.3,9.4a4.37,4.37,0,0,0,.37-4.07l0-.1-.1.06a3.51,3.51,0,0,1-1.76.45,4.67,4.67,0,0,1-3.22-1.37l-.08-.07ZM21.2,2a1.94,1.94,0,0,0-.84.18,3,3,0,0,0-1.65,3.1l.19,0c.27-.82,1.08-2,1.63-2a.37.37,0,0,1,.29.15,3.92,3.92,0,0,0,3,1.48,2.25,2.25,0,0,0,1.86-.83,2.66,2.66,0,0,0,.27-2.43l0-.11-.1,0A7.17,7.17,0,0,1,23,2.11,10,10,0,0,1,21.89,2,6.24,6.24,0,0,0,21.2,2Z"/><path class="cls-2" d="M18.72,42.54a1.25,1.25,0,0,1-1.25-1.25v-.45A1.6,1.6,0,0,1,18,39.62l0-11.46h-1a1.39,1.39,0,0,1-1.44-1.34V16.16a4.74,4.74,0,0,1,4-4.54.49.49,0,0,1,.28.07,4.57,4.57,0,0,0,5.51.14l0,0v-.08h0a.13.13,0,0,0,.08,0,.38.38,0,0,1,.19-.06h.11l.26,0A4.87,4.87,0,0,1,28.49,13l.08.11a4.43,4.43,0,0,1,1.29,3.09V26.81a1.39,1.39,0,0,1-1.44,1.34h-1V39.54a1.79,1.79,0,0,1,.61,1.3v.45a1.25,1.25,0,0,1-1.25,1.25Zm.35-2.44a.74.74,0,0,0-.74.74v.45a.31.31,0,0,0,.06.25c.13.13.45.16,2,.16h6c.65,0,.78-.09.77-.36v-.47a.74.74,0,0,0-.74-.74H23.2v.1a.44.44,0,1,1-.86,0v-.1Zm-.13-.86h3.4V28.94a.43.43,0,0,1,.86,0v10.3h3.35V25.72H18.94Zm8.52-12H28c.42,0,.68,0,.83-.16s.15-.41.14-.92v-.5H27.47Zm-11-1.06c0,.5,0,.75.14.91s.41.16.83.16h.61V25.72H16.51Zm11-1.37H29v-8.7a3.78,3.78,0,0,0-2.3-3.39l-.28-.11-.4-.14a5.86,5.86,0,0,1-3.25,1,5.48,5.48,0,0,1-3.18-1,3.85,3.85,0,0,0-3.09,3.64v8.7h1.58v-8.1a.43.43,0,0,1,.86,0v8.1h7.62v-8.1a.43.43,0,0,1,.86,0v6.51h0Z"/></g></svg>