<svg xmlns="http://www.w3.org/2000/svg" viewBox="0 0 39 43"><defs><style>.cls-1{fill:#fbcf51;}.cls-2{fill:#658781;}.cls-3{fill:#231f20;}</style></defs><title>P2P Dashboard elements</title><g id="Layer_4" data-name="Layer 4"><path class="cls-1" d="M28.6,39.58a4.82,4.82,0,0,1-.92,1.09l-.11.09.13.05a9.33,9.33,0,0,0,3.31.59c3.31,0,6.09-1.6,6.2-3.57v-.21l-.16.15-.08.06-.36.29-.19.14-.39.25-.19.12-.63.32-.69.27-.24.08-.5.15-.29.07-.51.1-.3.05-.5.06-.33,0c-.28,0-.57,0-.86,0A10.3,10.3,0,0,1,30,39.72l-.19,0c-.37,0-.71-.09-1-.16h-.06Z"/><path class="cls-1" d="M15.47,37.84c0,.08,0,.15,0,.23l0,.11a2.56,2.56,0,0,0,.12.4l.05.1a3,3,0,0,0,.15.28l.08.12.18.25.15.17.12.12.24.22.16.12c.15.11.31.22.48.33l.18.11.3.16.21.1a9.11,9.11,0,0,0,3.73.76,8.79,8.79,0,0,0,4.27-1l.12-.07a5.26,5.26,0,0,0,.5-.34,3.43,3.43,0,0,0,1.14-1.39,2.35,2.35,0,0,0,.13-.42,2,2,0,0,0,0-.23l0-.21-.15.08-.1.08-.33.27-.19.14-.39.25-.19.12c-.2.11-.41.22-.63.32l-.69.27-.24.08-.5.15-.29.07-.51.1-.3.05-.52.06-.31,0c-.29,0-.57,0-.86,0s-.58,0-.86,0l-.19,0L20,39.65l-.3,0-.51-.1-.29-.07-.5-.15-.24-.07q-.35-.12-.67-.26c-.24-.11-.45-.22-.66-.33l-.19-.11-.39-.25-.2-.14-.32-.27-.15-.14Z"/><path class="cls-1" d="M29.14,36.84v.86a4,4,0,0,1,0,.53v.09l.18,0,.69.1.23,0c.28,0,.56,0,.84,0l.61,0,.2,0,.4,0,.23,0,.35-.05.56-.12.54-.15.23-.08.28-.1.47-.21.44-.24.4-.26L36,37l.14-.11.11-.1.2-.19.13-.15.14-.17.11-.15.11-.18L37,35.8l.08-.18,0-.12a2.44,2.44,0,0,0,.07-.25,1.59,1.59,0,0,0,0-.18l0-.23-.16,0L37,35l-.33.27-.2.14-.39.25-.19.12c-.2.11-.41.22-.63.31s-.46.19-.69.27l-.16.05-.58.17-.29.07-.43.09-.37.06-.57.07-.27,0c-.28,0-.57,0-.86,0s-.54,0-.81,0l-.24,0-.58-.07-.19,0Z"/><path class="cls-1" d="M15.46,35a.75.75,0,0,0,0,.13c0,.05,0,.12,0,.17a1.24,1.24,0,0,0,0,.15,2.09,2.09,0,0,0,.07.22l.07.16.09.19.11.18.11.16.14.17.13.15.14.14.18.16.16.12.2.15.4.26.44.24.22.1.26.11.28.1.23.08.53.15.56.12.35.06.23,0,.4,0,.2,0,.62,0,.61,0,.2,0,.4,0,.23,0,.35-.05.56-.12.54-.15.51-.18.17-.07.09,0,.21-.09.44-.23.4-.26.17-.13.19-.15.15-.14.17-.15.1-.11.17-.21.08-.11.14-.22.08-.17.08-.19a1.81,1.81,0,0,0,.06-.18,1.85,1.85,0,0,0,.05-.18l0-.15a1,1,0,0,0,0-.16v-.2l-.14.14-.1.08-.33.27-.19.14-.39.25-.19.12c-.2.11-.41.22-.63.32s-.46.19-.69.27l-.16.05-.58.17-.29.07-.44.09-.37.06-.57.07-.27,0c-.29,0-.57,0-.86,0s-.58,0-.87,0l-.23,0-.6-.07-.3,0-.5-.11-.28-.07-.5-.15-.24-.07c-.23-.08-.45-.17-.66-.26a6.94,6.94,0,0,1-.65-.33l-.16-.09-.12-.07-.31-.2L16,35.23,15.71,35l-.14-.12Z"/><path class="cls-1" d="M29.14,34v1.47l.21,0,.27,0,.3,0a9.82,9.82,0,0,0,1.11.07l.61,0,.2,0,.41,0,.23,0,.35-.05.56-.12.33-.09.21-.06.51-.18.47-.21.44-.24.4-.26.15-.12.21-.17.11-.1.21-.2.13-.15.14-.17.11-.16.11-.17.08-.17.08-.18,0-.12a2.37,2.37,0,0,0,.07-.25,1.54,1.54,0,0,0,0-.18l0-.34-.16.14-.1.08-.33.26-.2.14-.34.22-.24.14a7,7,0,0,1-.63.32c-.24.1-.46.19-.69.27l-.24.07-.5.15-.28.07-.52.11-.3,0-.56.07-.27,0c-.28,0-.57,0-.86,0s-.54,0-.81,0H30l-.65-.08h-.1Z"/><path class="cls-1" d="M15.46,32.07a.66.66,0,0,0,0,.14c0,.05,0,.11,0,.17a1.13,1.13,0,0,0,0,.15,1.74,1.74,0,0,0,.07.21c0,.06.05.12.08.18l.08.16.09.15,0,.07.08.12.14.17.13.15.15.14.18.16.36.28.22.14.19.12.24.13.21.11.47.21.51.18.21.06.33.09.56.12.35.05.23,0,.36,0,.24,0,.62,0,.61,0,.35,0,.26,0,.58-.09.56-.12.54-.15.51-.18.16-.07.31-.14.16-.08.29-.15.19-.12.21-.14.36-.28.32-.3.1-.11.17-.21.08-.12.05-.08.09-.14.06-.13a1.73,1.73,0,0,0,.1-.22,1.36,1.36,0,0,0,.06-.17,1.77,1.77,0,0,0,.05-.18l0-.16a.88.88,0,0,0,0-.15v-.2l-.14.14-.1.08-.33.26-.15.11-.41.26-.22.13a6.85,6.85,0,0,1-.63.32l-.69.27L25,33.5l-.56.16-.29.07-.51.1-.3,0-.57.07-.27,0c-.29,0-.57,0-.86,0s-.58,0-.87,0l-.27,0L20,33.89l-.3-.05-.51-.1-.26-.06-.52-.15-.24-.08c-.23-.08-.45-.17-.67-.26a7,7,0,0,1-.65-.33l-.19-.11-.39-.25L16,32.35l-.33-.27-.15-.14Z"/><path class="cls-1" d="M29.14,32.55l.22,0,.27,0,.32,0a9.81,9.81,0,0,0,1.09.06l.61,0,.36,0,.24,0,.58-.09.56-.12.54-.15.23-.08.28-.1.22-.1.25-.11.44-.23.19-.12.21-.13.36-.28.11-.1.2-.19.11-.13.16-.19.11-.16.11-.17L37,30l.08-.18,0-.12a2.47,2.47,0,0,0,.06-.24,1.63,1.63,0,0,0,0-.18l0-.34-.16.14-.1.08-.33.26-.19.14-.39.26-.18.11c-.2.11-.41.22-.63.32s-.46.19-.69.27l-.31.1-.42.12-.29.07L33,31l-.3,0-.56.07-.27,0c-.28,0-.57,0-.86,0s-.54,0-.81,0l-.24,0L29.39,31l-.14,0-.1,0Z"/><path class="cls-1" d="M15.46,29.19a.66.66,0,0,0,0,.14c0,.05,0,.11,0,.17a1.19,1.19,0,0,0,0,.15,1.79,1.79,0,0,0,.07.21,1.69,1.69,0,0,0,.08.18l.08.17.11.18.11.16.14.17.13.15.32.3.19.15.17.13.4.26.24.13.21.11.47.21.28.1.23.08.54.15.38.08.19,0,.35.05.18,0,.29,0,.34,0,.64,0,.61,0h.11l.49,0,.23,0,.35-.05.56-.12.54-.15.17-.06.33-.12.17-.07.1,0,.21-.09.44-.23.4-.26.17-.13.19-.15L26.9,31l.16-.15.09-.1.18-.21.08-.11.15-.22.08-.17a2,2,0,0,0,.08-.19,1.81,1.81,0,0,0,.06-.18c0-.1,0-.14.05-.18a1,1,0,0,0,0-.13,1.25,1.25,0,0,0,0-.18V29l-.14.14-.1.08-.33.26-.19.15-.32.21-.26.16c-.2.12-.41.22-.63.32s-.46.19-.69.27l-.17.06-.57.17-.29.07-.51.11-.3,0-.57.07-.27,0c-.29,0-.57,0-.86,0s-.58,0-.86,0l-.28,0-.14,0L20,31l-.3-.05-.5-.1-.29-.07-.5-.15-.24-.08c-.23-.08-.45-.16-.66-.26a7.16,7.16,0,0,1-.65-.33l-.13-.08-.45-.29-.14-.1-.39-.31-.14-.12Z"/><path class="cls-1" d="M29.14,28.2v1.47h.07l.41.08.32,0a9.9,9.9,0,0,0,1.08.07l.61,0,.6-.05.58-.09.24-.05.32-.07.54-.15.23-.08.28-.1L34.9,29l.44-.23.15-.09.26-.16.17-.13.19-.15.32-.3.27-.32.11-.16.11-.17a1.5,1.5,0,0,0,.08-.17l.08-.18,0-.12a2.22,2.22,0,0,0,.06-.25,1.46,1.46,0,0,0,0-.18l0-.23-.16,0-.1.08-.33.27-.2.14-.39.25-.19.11c-.2.12-.42.22-.64.32s-.46.19-.69.27l-.24.08-.5.14-.29.07-.51.1-.23,0-.64.08-.27,0c-.28,0-.57,0-.86,0s-.54,0-.81,0l-.24,0-.58-.07-.1,0Z"/><path class="cls-2" d="M1.77,40.67H15.63l-.15-.15A4.34,4.34,0,0,1,14.43,39l-.06-.17c0-.07,0-.14-.06-.21l-.06-.25H8.35l.06-.69a2.78,2.78,0,0,0,0-.31A3.33,3.33,0,0,0,5.1,34h-.3l-.69.06V26.3l0-.1c-.09-.15-.18-.31-.26-.48s-.22-.43-.31-.64l-.1-.25c-.08-.21-.16-.41-.23-.63l-.08-.27c-.06-.21-.11-.42-.16-.64s0-.19-.06-.28-.07-.44-.1-.67l0-.27c0-.31,0-.63,0-.95s0-.63,0-.95l0-.27c0-.23.06-.45.1-.67s0-.19.06-.28.11-.43.16-.64l.08-.27q.1-.32.23-.63l.1-.25c.09-.22.2-.43.31-.64s.18-.32.27-.48l0,0,0-.07V8.18l.69.06.3,0A3.33,3.33,0,0,0,8.42,4.93a2.84,2.84,0,0,0,0-.3l-.06-.69H17l-.06.69a2.78,2.78,0,0,0,0,.3,3.33,3.33,0,0,0,3.33,3.33l.31,0,.69-.06V16a10.14,10.14,0,0,1,1.44,5.17v.08l.07.06.72.09h.09l0-.08V1.61H1.77Z"/><path class="cls-1" d="M21.66,22.5a8.67,8.67,0,0,0-4.48,1.16,4.51,4.51,0,0,0-.41.28l-.09.07a3.44,3.44,0,0,0-1,1.22,2.23,2.23,0,0,0-.22.95c0,2,2.84,3.69,6.21,3.69s6.2-1.69,6.2-3.69a2,2,0,0,0,0-.4,3,3,0,0,0-.11-.39,3.82,3.82,0,0,0-.19-.39,3.41,3.41,0,0,0-.26-.38,4.52,4.52,0,0,0-1-.9l-.12-.08c-.18-.11-.37-.22-.57-.32l-.17-.08-.47-.19a8.72,8.72,0,0,0-.91-.29,10,10,0,0,0-1.13-.21A11,11,0,0,0,21.66,22.5Z"/><path class="cls-1" d="M29,25.32v.06c0,.15.05.24.07.33a3.55,3.55,0,0,1,0,.46v.6h.07l.41.08.32,0A9.9,9.9,0,0,0,31,27l.62,0,.6-.05.58-.09.25-.05.32-.07.22-.06.32-.09.51-.18.22-.09.25-.11.29-.15.15-.08.4-.25.11-.08.25-.2.13-.12.19-.18.13-.15.14-.16.11-.15.11-.18L37,24.3l.09-.2,0-.12a2.54,2.54,0,0,0,.06-.25,1.51,1.51,0,0,0,0-.18l0-.24-.16,0-.1.08-.33.27-.2.14-.39.25-.19.12-.63.32-.69.27-.24.08-.5.15-.29.07-.51.1-.3.05-.68.08h-.15c-.29,0-.57,0-.86,0s-.63,0-.94,0l-.29,0-.63-.08-.13,0Z"/><path class="cls-1" d="M24.82,20.54a2.43,2.43,0,0,0,.48,1.28,7,7,0,0,1,2.8,1.82,2.5,2.5,0,0,0,.36.12l.28.08.46.09.28.05L30,24l.26,0,.78,0,.61,0,.6-.05.58-.09.24-.05.32-.07.24-.07.3-.09.51-.18.47-.21.21-.11.24-.13.16-.1.24-.15.11-.08.26-.2.2-.18.12-.11.13-.15.14-.17.11-.16.11-.17L37,21.4l.09-.18,0-.12c0-.13.05-.18.06-.24a1.53,1.53,0,0,0,0-.18l0-.23-.16,0-.1.08-.33.27-.2.14-.39.25-.19.12c-.2.11-.41.22-.63.31s-.46.19-.69.27l-.16,0-.58.17-.29.07-.51.1-.3,0-.57.07-.27,0c-.28,0-.57,0-.86,0s-.58,0-.86,0l-.24,0-.59-.07-.3,0-.51-.11-.29-.07-.5-.15-.24-.07c-.23-.08-.45-.17-.66-.26s-.45-.22-.66-.33l-.26-.16-.31-.2-.15-.12c-.16-.11-.27-.2-.37-.29l-.15-.13Z"/><path class="cls-1" d="M30.69,13.87a9.65,9.65,0,0,0-1,.08,8.77,8.77,0,0,0-1,.18,7.46,7.46,0,0,0-1.05.33,6.92,6.92,0,0,0-1,.47,5.77,5.77,0,0,0-.78.56l-.08.07-.23.23-.15.18-.11.14-.12.19-.09.14a2.08,2.08,0,0,0-.11.24l0,.11a1.69,1.69,0,0,0-.07.26l0,.11a2.14,2.14,0,0,0,0,.37c0,2,2.84,3.69,6.21,3.69s6.21-1.69,6.21-3.69-2.84-3.68-6.2-3.69h-.34Z"/><path class="cls-3" d="M20.22,7.27a2.34,2.34,0,1,1,2.34-2.34A2.34,2.34,0,0,1,20.22,7.27Zm0-3.6a1.26,1.26,0,1,0,1.27,1.26A1.27,1.27,0,0,0,20.22,3.67Z"/><path class="cls-3" d="M5.1,7.27A2.34,2.34,0,1,1,7.43,4.93,2.34,2.34,0,0,1,5.1,7.27Zm0-3.6A1.26,1.26,0,1,0,6.36,4.93,1.27,1.27,0,0,0,5.1,3.67Z"/><path class="cls-3" d="M5.1,39.68a2.34,2.34,0,1,1,2.34-2.34A2.34,2.34,0,0,1,5.1,39.68Zm0-3.6a1.26,1.26,0,1,0,1.26,1.26A1.27,1.27,0,0,0,5.1,36.08Z"/><path class="cls-3" d="M31,42.56a10.1,10.1,0,0,1-4.58-1,11.19,11.19,0,0,1-4.78,1,10.53,10.53,0,0,1-3.87-.71H.6V.44H31.2V12.69h.1c4.09.13,7.11,2.21,7.11,4.85V37.71C38.4,40.43,35.16,42.56,31,42.56Zm-2.41-3.11-.07,0a5.21,5.21,0,0,1-.93,1.1l-.23.2.28.11a9.44,9.44,0,0,0,3.35.59c3.36,0,6.19-1.64,6.3-3.66l0-.46-.34.31-.42.35-.19.13-.39.25-.19.12-.62.31c-.23.1-.45.18-.68.26l-.24.08-.49.14-.29.07-.5.1-.3.05-.5.06-.32,0c-.29,0-.57,0-.86,0A10.1,10.1,0,0,1,30,39.63l-.2,0c-.37,0-.7-.09-1-.16h-.13ZM15.39,37.78a1.11,1.11,0,0,0,0,.3l0,.11a2.63,2.63,0,0,0,.13.42l.06.11a2.75,2.75,0,0,0,.15.28l.09.12.18.25.15.17.13.13.24.22.16.13c.15.12.32.23.49.33l.18.11.3.16.22.1a9.2,9.2,0,0,0,3.77.77A8.89,8.89,0,0,0,26,40.44l.13-.08a5.12,5.12,0,0,0,.51-.35,3.53,3.53,0,0,0,1.17-1.43,2.4,2.4,0,0,0,.13-.43,1.93,1.93,0,0,0,0-.24l0-.39-.32.16-.12.09-.33.27-.19.14-.39.25-.19.12c-.19.11-.4.21-.62.31l-.68.26-.24.08-.5.14-.29.07-.5.1-.3.05-.47.06-.34,0c-.29,0-.57,0-.86,0s-.58,0-.86,0l-.19,0L20,39.55l-.3,0-.5-.1-.29-.07-.5-.15-.23-.07c-.23-.08-.45-.17-.66-.26s-.45-.21-.65-.32l-.18-.11-.39-.25-.2-.14-.31-.26-.24-.21Zm-13.71,3H15.88l-.33-.32a4.24,4.24,0,0,1-1-1.53l-.06-.16c0-.07,0-.14-.06-.21l-.08-.32H8.46l0-.58a3,3,0,0,0,0-.32A3.43,3.43,0,0,0,5.1,33.92H4.78L4.2,34V26.3l-.06-.14-.06-.1c-.07-.12-.14-.24-.2-.37s-.22-.42-.31-.64l-.1-.24c-.08-.21-.16-.41-.23-.62l-.08-.27c-.06-.21-.11-.41-.16-.63s0-.18-.06-.28-.07-.44-.1-.66l0-.27c0-.31,0-.62,0-.93s0-.63,0-.94l0-.26c0-.23.06-.45.1-.66S3,19.09,3,19s.1-.42.16-.63l.08-.27q.1-.31.23-.62l.1-.25c.09-.21.2-.42.31-.63s.17-.32.27-.48L4.2,16V8.29l.59.05.31,0A3.43,3.43,0,0,0,8.52,4.93a3.12,3.12,0,0,0,0-.32l0-.58h8.41l-.05.58a3,3,0,0,0,0,.31,3.43,3.43,0,0,0,3.43,3.43l.32,0,.58-.05V16a10.28,10.28,0,0,1,1.44,5.17v0l0,.11,0,0,.11.07.71.09h.18l0-.18V1.51h-22Zm27.38-4,0,.92a4,4,0,0,1,0,.52v.1l.09.1.18,0,.7.1.23,0q.42,0,.85,0l.62,0,.2,0,.41,0,.22,0,.36-.05.56-.12.54-.16.22-.08.3-.1.48-.21.45-.24.41-.26.23-.17.15-.12.12-.1.21-.2.13-.15.14-.18.11-.16L37,36l.09-.18.08-.18,0-.13a2.44,2.44,0,0,0,.07-.26c0-.05,0-.12,0-.18l0-.37-.29.06-.14.1-.32.27-.2.14-.38.24-.19.12c-.19.11-.4.21-.62.31s-.46.19-.68.27l-.15,0-.58.17-.29.07-.38.08-.41.07-.57.07-.27,0c-.28,0-.56,0-.85,0s-.54,0-.8,0l-.24,0-.58-.07-.25,0ZM15.39,34.88a.49.49,0,0,0,0,.22l0,.17a1.61,1.61,0,0,0,0,.16,2.25,2.25,0,0,0,.07.22l.07.17.09.19.12.19.11.16.14.17.13.15.15.14.19.17.15.12.21.16.41.26.45.24.23.1.26.11.51.18.54.15.57.12.36.06.23,0,.41,0,.2,0,.62,0,.62,0,.2,0,.41,0,.23,0,.35-.05.56-.12.54-.15.51-.18.49-.21.45-.24.41-.26.18-.13.2-.16.16-.15.17-.15.11-.12.18-.21.08-.12.14-.22.08-.17c0-.07.06-.13.09-.19l.06-.19a1.73,1.73,0,0,0,.05-.19l0-.16A1,1,0,0,0,28,35v-.43l-.31.29-.09.07-.33.27L27,35.3l-.38.24-.19.12c-.19.11-.4.21-.62.31l-.68.27-.16,0-.58.17-.28.07-.43.09-.36.06-.56.07-.26,0c-.28,0-.57,0-.85,0s-.58,0-.86,0l-.2,0L20,36.67l-.3,0-.5-.1-.28-.07-.5-.14-.25-.08c-.22-.08-.44-.16-.65-.26a6.69,6.69,0,0,1-.64-.32l-.13-.08-.44-.28-.19-.14-.33-.26-.21-.19ZM5.27,28.18v4.67h.09A4.55,4.55,0,0,1,9.58,37v.09l.1.08h4.6V30.89l-.22,0h-.15l-.4,0-.33,0-.42,0h-.1l-.54,0-.45,0c-.35,0-.69-.09-1-.16l-.5-.13-.53-.15-.33-.12c-.3-.11-.48-.19-.66-.27l-.44-.21-.52-.29-.4-.25c-.19-.12-.37-.26-.55-.4l-.12-.09L6.4,28.8a9.83,9.83,0,0,1-.78-.71l-.29-.33Zm24,5.62-.2.11v1.61l.29.06.28,0,.27,0a10.11,10.11,0,0,0,1.15.07l.62,0,.2,0,.41,0,.24,0,.35-.05.56-.12.34-.1.21-.06.51-.18.48-.21.45-.24.41-.26.16-.12.22-.17.08-.07.24-.23.12-.13.16-.19.12-.17.11-.17.17-.35,0-.13a2.61,2.61,0,0,0,.07-.26c0-.05,0-.12,0-.18l0-.59-.35.31-.1.08-.32.26-.2.14-.33.21-.23.14a6.83,6.83,0,0,1-.63.32c-.24.1-.46.19-.68.27l-.23.07-.5.15-.27.06-.52.11-.3,0-.56.07-.27,0c-.28,0-.56,0-.85,0s-.54,0-.8,0h-.17l-.65-.08h-.16ZM15.39,32a.52.52,0,0,0,0,.22s0,.11,0,.17a1.45,1.45,0,0,0,0,.16,2.05,2.05,0,0,0,.07.22l.08.18.08.17.1.16.13.19.27.32.15.14.18.16.37.28.41.26.46.24.47.21.51.18.54.16.57.12.36.05.23,0,.35,0,.25,0,.63,0,.62,0,.35,0,.26,0,.58-.09.56-.12.55-.16.51-.18.48-.21.16-.08.28-.15.2-.13.22-.14.37-.28.33-.3.1-.12.18-.21.09-.12.14-.22.07-.13a2.17,2.17,0,0,0,.11-.24,1.59,1.59,0,0,0,.06-.18,1.91,1.91,0,0,0,.05-.19l0-.17a.88.88,0,0,0,0-.16v-.43l-.31.29-.09.08-.32.26-.15.11-.4.26-.21.13a6.64,6.64,0,0,1-.63.32l-.68.27-.18.05-.55.16-.25.06-.53.11-.29,0-.56.07-.27,0c-.28,0-.56,0-.85,0s-.58,0-.86,0l-.27,0L20,33.79l-.29-.05-.51-.1-.26-.06-.52-.15-.24-.08q-.34-.12-.66-.26a6.88,6.88,0,0,1-.64-.33l-.19-.11-.38-.25-.19-.14L15.77,32l-.22-.22ZM29,32.64l.57.1.32,0a10.07,10.07,0,0,0,1.1.06l.62,0,.36,0,.25,0,.58-.09.56-.12.54-.15.2-.07.31-.11.48-.21.45-.23.2-.13.21-.13.38-.29.12-.1.21-.2.11-.13.17-.2.11-.16.12-.18a1.55,1.55,0,0,0,.09-.18l.08-.18,0-.13a2.39,2.39,0,0,0,.07-.25c0-.06,0-.12,0-.19l0-.59L37,29l-.1.08-.32.26-.19.14-.38.25-.2.12c-.2.11-.41.22-.62.31s-.46.19-.68.27l-.31.1-.42.12-.29.07-.5.1-.29,0-.56.06-.27,0c-.28,0-.56,0-.85,0s-.54,0-.8,0L30,31l-.58-.07-.14,0L29,30.85Zm-10.81-.41.29.1.23.08.54.15.38.08.19,0,.35.05.18,0,.26,0,.37,0,.65,0,.62,0h.12l.49,0,.23,0,.35-.05.56-.12.54-.15.52-.19.17-.07.1,0,.21-.09.45-.24.41-.26.18-.13.2-.16.16-.15.16-.15.28-.32.08-.12.15-.23.08-.17.09-.19.06-.19c0-.1,0-.14.05-.19a.84.84,0,0,0,0-.14,1.28,1.28,0,0,0,0-.19v-.43l-.31.29-.09.07-.33.26-.2.15-.31.2-.26.16a6.93,6.93,0,0,1-.62.31c-.24.1-.46.19-.68.27l-.17.05-.56.17-.28.07-.5.1-.29,0-.56.06-.27,0c-.28,0-.57,0-.85,0s-.57,0-.85,0l-.41,0-.42,0-.3-.05-.5-.1-.29-.07-.49-.15-.24-.08c-.22-.08-.44-.16-.65-.26a7.17,7.17,0,0,1-.64-.32l-.12-.07-.45-.29-.14-.1-.38-.3-.21-.19-.17.18a.49.49,0,0,0,0,.23s0,.11,0,.17a1.58,1.58,0,0,0,0,.17,1.88,1.88,0,0,0,.07.22c0,.06.05.13.08.19l.08.17.12.19.11.16.15.17.12.15.33.31.2.16.17.13.41.26.46.24ZM29,28.14v1.61l.08,0,.48.09.33,0A9.92,9.92,0,0,0,31,30l.62,0,.6-.05.59-.09.25-.05.32-.07.54-.15.51-.18.48-.21.45-.23.15-.1.25-.16L36,28.5l.19-.15.33-.3.28-.32.12-.17.11-.18a1.49,1.49,0,0,0,.09-.18l.08-.18a1.21,1.21,0,0,0,0-.13,2.19,2.19,0,0,0,.07-.26,1.8,1.8,0,0,0,0-.18l0-.37-.3.07-.14.1-.32.27-.19.14L36,26.9l-.19.11c-.2.11-.41.22-.62.32s-.45.18-.68.26l-.24.08-.49.14-.29.07L33,28l-.23,0-.63.08-.27,0q-.42,0-.85,0c-.27,0-.54,0-.8,0l-.24,0L29.41,28l-.13,0ZM21.66,22.4a8.77,8.77,0,0,0-4.53,1.18,4.27,4.27,0,0,0-.42.29l-.08.06a3.56,3.56,0,0,0-1,1.27,2.31,2.31,0,0,0-.23,1c0,2.05,2.89,3.79,6.31,3.79S28,28.24,28,26.18a2.06,2.06,0,0,0,0-.42,3.07,3.07,0,0,0-.12-.41,4.18,4.18,0,0,0-.19-.4,3.53,3.53,0,0,0-.27-.39,4.61,4.61,0,0,0-1-.92l-.12-.08c-.19-.11-.38-.22-.58-.32l-.18-.08L24.95,23a9.35,9.35,0,0,0-.92-.29,10.37,10.37,0,0,0-1.14-.21A11.28,11.28,0,0,0,21.66,22.4ZM9.4,23.84a1.48,1.48,0,0,0-1.05.51L6,26.92l.06.07c.19.22.33.37.48.52l.21.19c.17.16.36.31.55.46l.29.21c.19.14.4.27.6.38l.24.15a9.24,9.24,0,0,0,.86.41l.33.12.63.2.37.09c.22.05.45.1.68.13l.32,0a9,9,0,0,0,1,.06,8.11,8.11,0,0,0,.88-.05l.34,0,.24,0,.13-.11,0-3.65-.25.09a3,3,0,0,1-1,.2,2.06,2.06,0,0,1-.56-.08,2.1,2.1,0,0,1-1.27-1.12c-.25-.2-.5-.41-.9-.78l-.51-.46,0,0-.11,0Zm19.52,1.47,0,.1c0,.14.05.23.06.32a3.44,3.44,0,0,1,0,.45v.69l.08,0,.49.09.33,0a10.17,10.17,0,0,0,1.1.07l.62,0,.6-.05.59-.09.25-.05.32-.07.22-.06.32-.09.51-.18.48-.21.3-.15.16-.09.41-.25.12-.09.26-.2.13-.12.19-.18.13-.16.14-.17.11-.16L37,24.5l.08-.16.1-.2,0-.13c0-.14.06-.2.07-.26s0-.12,0-.18l0-.38-.3.08-.13.1-.32.26-.2.14L36,24l-.19.12-.62.31c-.23.1-.45.18-.68.26l-.24.08-.49.14L33.5,25l-.5.1-.3.05-.82.09c-.29,0-.57,0-.86,0s-.62,0-.93,0l-.29,0-.62-.08-.24,0ZM5,16.74,4.85,17c-.1.2-.2.39-.28.6l-.09.21c-.08.19-.15.38-.21.57-.13.41-.2.67-.25.93l0,.11c0,.22-.08.45-.11.69l0,.2c0,.27,0,.54,0,.81s0,.54,0,.81v.14c0,.3.07.53.12.76l0,.1c.05.26.12.52.2.77s.19.55.26.73l.09.22c.08.19.18.38.27.57l.19.34.23.37h.1l2.21-2.32a2.5,2.5,0,0,1,1.83-.86,2.13,2.13,0,0,1,.38,0,2.06,2.06,0,0,1,.34.09,3.18,3.18,0,0,1,.89.69c.19.18.5.46.65.58l.32.06.07.28c.26.62.59.72.7.75a1,1,0,0,0,.28,0,3.17,3.17,0,0,0,1.59-.62l.11-.16.09-.17.17-.25.13-.17.11-.13.08-.1.15-.17.12-.11.29-.26L16,23l.31-.22.14-.1.07-.07a5.71,5.71,0,0,0,.11-4.46l0-.07-.1-.05a3.4,3.4,0,0,0-1.67.63l-.29.8L14,18.88a3.07,3.07,0,0,0-2.07-.81c-.51,0-.82.32-1.22.78a1.57,1.57,0,0,1-.63.54,2.3,2.3,0,0,1-.71.12,2.49,2.49,0,0,1-1.8-.84L5.45,16.33H5.26Zm24.46,7.35.51.06.25,0,.79,0,.62,0,.6-.05.58-.09.25-.05.32-.07.24-.07.3-.09.51-.18.48-.21.21-.11.24-.13.4-.25.11-.09.26-.2.2-.19.13-.12.13-.15.14-.17.12-.17.11-.17.09-.17.09-.18,0-.11c0-.16.06-.22.07-.28s0-.12,0-.18l0-.36-.29.06-.14.1-.32.27-.2.14-.38.24-.19.12c-.19.11-.4.21-.62.31s-.46.19-.68.27l-.12,0-.61.18-.29.07-.5.1-.29,0-.54.07-.29,0c-.28,0-.56,0-.85,0s-.58,0-.86,0l-.24,0-.59-.07-.3,0-.5-.1-.24-.06-.54-.16-.24-.07-.65-.26c-.24-.11-.45-.21-.65-.33L26,21.09l-.31-.2-.15-.11c-.16-.11-.26-.2-.36-.29l-.23-.2-.16.19a2.34,2.34,0,0,0,.48,1.4A7.18,7.18,0,0,1,28,23.71a2.07,2.07,0,0,0,.41.15l.28.08.47.09h0ZM16.7,17a1.54,1.54,0,0,1,.43.05l.3.08,0,.17A7.3,7.3,0,0,1,18,21.65l-.08.37.34-.16.31-.1.3-.08.42-.1.44-.08.27,0,.34,0,.39,0,.35,0h.32l.09-.1a8.86,8.86,0,0,0-1.38-4.81,9,9,0,0,0-1.34-1.65l-.2-.18c-.18-.16-.36-.32-.55-.46l-.29-.22c-.19-.13-.39-.26-.59-.38l-.25-.15A8.41,8.41,0,0,0,16,13l-.33-.12-.63-.21-.36-.09c-.23-.05-.46-.1-.69-.13l-.32-.05a8.71,8.71,0,0,0-1-.06,8.9,8.9,0,0,0-1,.06l-.22,0c-.33,0-.55.09-.78.15l-.34.09c-.24.07-.45.14-.65.21L9.3,13a8.88,8.88,0,0,0-.86.41l-.18.11c-.27.16-.47.29-.67.42l-.29.21c-.19.15-.38.3-.55.46l-.2.18c-.11.11-.22.23-.33.35L6,15.36,8.37,18a1.4,1.4,0,0,0,1,.49h0a1.17,1.17,0,0,0,.29,0,.87.87,0,0,0,.19-.17A2.77,2.77,0,0,1,11.94,17a4.08,4.08,0,0,1,2.25.68l.06,0h.1A4.54,4.54,0,0,1,16.7,17Zm14-3.21a9.4,9.4,0,0,0-1,.09,8.5,8.5,0,0,0-1,.19,7.83,7.83,0,0,0-1.06.34,7.19,7.19,0,0,0-1,.48,5.89,5.89,0,0,0-.8.57l-.08.08-.24.24-.15.18-.12.15a1.9,1.9,0,0,0-.12.19l-.1.16a2.1,2.1,0,0,0-.11.24l0,.11a1.82,1.82,0,0,0-.07.28.67.67,0,0,0,0,.11,2.15,2.15,0,0,0,0,.39c0,2.05,2.89,3.79,6.31,3.79s6.31-1.73,6.31-3.79-2.89-3.78-6.3-3.79h-.35Zm-6,1.21.31-.28a6.13,6.13,0,0,1,.7-.56l.08-12.62H24.72ZM9.58,5.28A4.53,4.53,0,0,1,5.44,9.42H5.35l-.08.1v5l.32-.35.33-.31L6,13.82l.34-.31a9.94,9.94,0,0,1,5.22-2.21,9.69,9.69,0,0,1,1.08-.06,9.87,9.87,0,0,1,6.16,2.17l.14.11.44.4.29.27.28.29.07-.37V9.43H20a4.55,4.55,0,0,1-4.22-4.14V5.19l-.1-.08h-6Zm17.3,8.23.26-.11c.23-.09.46-.18.7-.25l.07,0L28,13V1.51H26.88ZM29,12.86l.22,0,.71-.09h.09l.08-.1V1.51H29Z"/></g></svg>