<svg xmlns="http://www.w3.org/2000/svg" width="703.09" height="63.14" viewBox="0 0 703.09 63.14"><title>Coke</title><path d="M52.92,3.45a9.38,9.38,0,0,0-3.06,2.38c-1.65,1.82-2.6,3.86-1.89,4.4.27.21.9.24,2-.79a9.05,9.05,0,0,0,2.41-3.35,4.57,4.57,0,0,0,.5-2.64m9,3.26c-1.83-.94-3.17-2.08-4.56-2.8a5.2,5.2,0,0,0-3.26-.82,3.21,3.21,0,0,0-.44.11S54.23,5.09,52,8.26s-4.25,3.2-4.82,2.31S47.38,7.74,48.68,6a16.3,16.3,0,0,1,3.74-3.24s-.76-.46-2.63.6A26.3,26.3,0,0,0,41.92,11C39,15.18,38.43,17.46,38,19.26S38,23,40,23s4.3-3,5-4.09c1.21-2,2-5,.35-4.57a3.46,3.46,0,0,0-1.89,2,8.36,8.36,0,0,0-.6,1.74,6.88,6.88,0,0,0-1.61.94,12,12,0,0,0-1.53,1.35,9.57,9.57,0,0,1,1.15-3.76,6.12,6.12,0,0,1,4.43-3.48c1.07-.09,2.46.82,1.29,4.18s-4.66,7.43-8.32,7.48c-3.38,0-5.59-4.26-.89-11.79C42.5,4.64,48.61,2.08,50.59,1.8s2.63.59,2.63.59A8.52,8.52,0,0,1,57,1.76c2.42.16,4.3,1.88,6.76,3.08-.65.63-1.26,1.27-1.81,1.87M72.81,3.9a10.32,10.32,0,0,1-6.23,1.84c-.56.59-1.17,1.26-1.77,2,3.87.76,7.26-1.63,9.06-3.68a12.09,12.09,0,0,0,1.68-2.41A15,15,0,0,1,72.81,3.9m-5.14,10.9a.84.84,0,0,0,.07-.16.39.39,0,0,0-.35-.34c-.37,0-.87.05-2.19,1.51a19.75,19.75,0,0,0-2.8,4c-.75,1.38-1.06,2.41-.63,2.67a.64.64,0,0,0,.46,0c.29-.07.63-.34,1.13-.93.24-.27.5-.66.82-1.1.87-1.19,3.05-4.93,3.49-5.68M54,16.4c.22-.58.5-1.71-.09-2.15s-2.22.63-2.23,1.77a2,2,0,0,0,1.4,1.76c.15,0,.21,0,.28-.09A9.8,9.8,0,0,0,54,16.4m-1.2,2.11a5,5,0,0,1-1.1-.7,3.56,3.56,0,0,1-.83-1s0,0-.07,0-.12.12-1,1.37-2.15,3.83-1,4.27c.76.28,2-1,2.7-1.92a16.28,16.28,0,0,0,1.27-1.93c0-.07,0-.09,0-.11m13.41,3c-.32.51-.68,1.5.38.88,1.29-.75,3.13-3.54,3.13-3.54h.83A27.89,27.89,0,0,1,68,22.15c-1.31,1.45-2.9,2.77-4,2.64-1.31-.15-.9-1.88-.9-1.88s-1.88,2-3.18,1.86c-1.75-.19-1.22-2.36-1.22-2.36s-2,2.44-3.33,2.36c-2.12-.12-1.59-2.71-1-4.52.32-1,.61-1.74.61-1.74s-.21.06-.66.12c-.24,0-.67.06-.67.06A28.77,28.77,0,0,1,52,21.19c-.71.94-3.71,4.16-5.48,3.52s-1.09-3.1-.14-5.09c1.39-2.9,5.29-7.06,7.54-6.52s.05,4.82.05,4.82,0,0,0,0a1,1,0,0,0,.45,0,4.82,4.82,0,0,0,.85-.26,49.65,49.65,0,0,1,4.93-8.13C62.84,6.33,68,.8,70,2.14c.5.33.27,1.46-.4,2.84a9.4,9.4,0,0,1-.92.24,7.43,7.43,0,0,0,.83-2c.3-1.66-3.57,1.84-6.34,5.61A52.13,52.13,0,0,0,58.79,16a11.89,11.89,0,0,0,1.43-1,41.52,41.52,0,0,0,3.52-3.29,38.75,38.75,0,0,0,3-3.46,8.26,8.26,0,0,0,.88-.09,38.23,38.23,0,0,1-3.3,3.91c-1.1,1.12-2.3,2.32-3.34,3.2A27.65,27.65,0,0,1,58,17.46s-2.43,4.88-1.11,5.2c.77.18,2.3-2.17,2.3-2.17a54.23,54.23,0,0,1,3.2-4.42c1.64-1.87,3.05-2.95,4.47-3a1.68,1.68,0,0,1,1.31.86l.39-.6H71s-4.45,7.55-4.8,8.12M72.81,3.9a10.32,10.32,0,0,1-6.23,1.84c-.56.59-1.17,1.26-1.77,2,3.87.76,7.26-1.63,9.06-3.68a12.09,12.09,0,0,0,1.68-2.41A15,15,0,0,1,72.81,3.9M39.35,7.63H37.08L35.8,9.7h2.27ZM28.62,14.8c1-1.32,3.62-6,3.62-6a.39.39,0,0,0-.35-.34c-.37,0-1,.11-2.2,1.63a28.6,28.6,0,0,0-2.85,4c-.75,1.38-1.09,2.35-.65,2.62a.64.64,0,0,0,.46,0,2.73,2.73,0,0,0,1.16-.94c.24-.27.51-.64.82-1.07M16.45,8.54c-.62-.47-2.22.63-2.23,1.77s1.44,1.49,1.63,1.5a.2.2,0,0,0,.23-.09,10.24,10.24,0,0,0,.46-1c.22-.58.5-1.71-.09-2.15m-.94,4A5.35,5.35,0,0,1,14.28,12a2.62,2.62,0,0,1-.88-1s0,0-.07,0-.15.19-1,1.44-2.11,3.81-.93,4.25c.76.28,2-1,2.72-1.93a22.09,22.09,0,0,0,1.43-2.15c0-.07,0-.09,0-.11M34,13.3h.83s-4.16,6-6.51,5.74c-1.31-.15-.92-1.77-.92-1.77S25.58,19.43,23.89,19s-.55-2.95-.55-2.95c-.17.07-3.5,3.82-5.83,2.92s-1.18-4.08-.71-5,.83-1.57.83-1.57l-.61.16-.59.12s-1.16,1.88-1.86,2.82S10.87,19.64,9.1,19s-1.33-3.11-.34-5.08c1.61-3.19,5.43-7.11,7.73-6.52s.4,4.37.4,4.37.46.06,1.57-.7c1.6-1.09,3.7-4,6-3.68,1.07.16,2.07,1.26.71,3.35-.44.67-1.17,1.27-1.73.68-.35-.37,0-1,.32-1.5A1.44,1.44,0,0,1,25,9.35s.38-.87-.58-.85c-.78,0-2.74,1.82-3.85,3.65s-2.56,4.54-1,5.16,4.12-2.64,5.37-4.31S29,7.52,31.4,7.36a1.59,1.59,0,0,1,1.31.7L33,7.62h2.38s-4.5,7.51-4.85,8.08-.64,1.45.38.88A19.17,19.17,0,0,0,34,13.3m-1.3,12a9.91,9.91,0,0,0-6-1.75,3.68,3.68,0,0,0-2.93,1.59c-.91-1.59-2.72-2.57-5.5-2.54-4.5.05-9,2.13-12.5,2.13A5.41,5.41,0,0,1,0,18.85C.15,12.21,5.75,6.23,9.95,3.53c2.41-1.55,4.43-2,5.75-1.86a1.93,1.93,0,0,1,1.39,2.86c-1.07,2.4-2.55,2.2-2.5,1.05a1.9,1.9,0,0,1,.9-1.47,1.82,1.82,0,0,1,.87-.22c.21-.18.37-1.49-1.35-1.06S11.2,5,9.22,7.15,4.15,13.49,3.39,17.83c-.35,2-.12,5.69,4.66,5.65,4,0,10-2.7,15.52-2.66A10.47,10.47,0,0,1,29,22.31a15,15,0,0,1,3.73,3" style="fill:#e8222c"/><path d="M67.82,24.17c.07,0,.12,0,.12-.09s-.09-.08-.15-.08h-.15v.17Zm.22.35H67.9l-.14-.26h-.12v.26h-.12v-.62h.3a.34.34,0,0,1,.17,0,.18.18,0,0,1,.07.16c0,.11-.06.16-.17.17Zm.18-.31a.46.46,0,1,0-.46.47.46.46,0,0,0,.46-.47m-1,0a.57.57,0,1,1,.57.57.57.57,0,0,1-.57-.57" style="fill:#e8222c"/><path d="M117.44,12.14c-.15,2.06-.3,4-.43,5.9,0,.27-.13.32-.36.32-1.65,0-3.29,0-4.94,0-.41,0-.38-.28-.41-.52-.15-1.48-.28-3-.42-4.46-.06-.62-.07-1.26-.17-1.87-.07-.42.1-.58.44-.73a13.91,13.91,0,0,0,1.27-.66,5.44,5.44,0,0,1,1.82-.72A4.31,4.31,0,0,0,117,7.28c.09-.14.21-.35,0-.54s-.33,0-.48,0a18,18,0,0,0-3.08,1.47,20.48,20.48,0,0,1-4.67,2.21,6.73,6.73,0,0,1-1.73.23c-.59,0-1.15-.1-1.4-.72s.07-1.15.52-1.7c.06.41-.25.8.17,1.06a1.51,1.51,0,0,0,1.19.07,9.38,9.38,0,0,0,2.29-.87.89.89,0,0,0,.53-1.09,10.07,10.07,0,0,1-.11-2.65c0-.42.19-.6.65-.58.78,0,1.56,0,2.34,0,.38,0,.51-.13.46-.49,0-.09,0-.18,0-.26-.29-1.38.54-2.33,1.29-3.31.13-.18.24-.22.41-.06s.28.21.11.41a6.9,6.9,0,0,1-.42.58,3.14,3.14,0,0,0-.79,2.68c0,.34.12.45.45.44.87,0,1.73,0,2.6,0,.3,0,.44.05.51.4a17.65,17.65,0,0,1-.06,3.62c0,.1-.07.21.07.33a9.44,9.44,0,0,0,1.83-1.48c.34-.38.51-.78-.24-1,.66-.07,1.31-.24,1.63.32s-.15,1-.46,1.45a11.17,11.17,0,0,1-4.79,3.45.45.45,0,0,1-.37,0c-1.35-.51-2.35.35-3.44.87a.41.41,0,0,0-.18.57c.13.21.34,0,.51,0l1.4-.5c.17-.06.41-.2.52,0s-.15.31-.32.39c-.46.23-.94.44-1.39.7-.17.09-.58.06-.41.42s.42.07.62,0c.48-.13.95-.3,1.43-.42.19,0,.47-.21.55.1s-.23.27-.4.34l-1.55.65c-.09,0-.23.06-.22.19s.14.21.26.25h.06c.62.13,2.93-.84,3.13-1.45S116.86,12.56,117.44,12.14Z" style="fill:#fff"/><path d="M124.19,18.49V4.24h2.73a20.33,20.33,0,0,1,4.28.31,5.79,5.79,0,0,1,2.17,1A6,6,0,0,1,135.23,8a8.5,8.5,0,0,1,.63,3.39,8.49,8.49,0,0,1-.63,3.37,5.9,5.9,0,0,1-1.86,2.41,5.81,5.81,0,0,1-2.13,1,16.28,16.28,0,0,1-3.71.31h-3.35Zm1.71-1.6H127a19.23,19.23,0,0,0,3.64-.23,4,4,0,0,0,1.68-.78A4.62,4.62,0,0,0,133.63,14a7.13,7.13,0,0,0,.46-2.64,7.07,7.07,0,0,0-.45-2.63,4.63,4.63,0,0,0-1.34-1.87,4,4,0,0,0-1.71-.8A18.54,18.54,0,0,0,127,5.81H125.9Z" style="fill:#fff"/><path d="M138.66,18.49V4.24h1.69V18.49Z" style="fill:#fff"/><path d="M143.79,18.49V3.68l10.42,11.38V4.24h1.62V19L145.41,7.78v10.7Z" style="fill:#fff"/><path d="M159.23,18.49V4.24h7.51V5.79h-5.82V9.88h5.82v1.58h-5.82v5.46h5.82v1.58Z" style="fill:#fff"/><path d="M124.05,22.92V20.59h.45a3.33,3.33,0,0,1,.7.05,1,1,0,0,1,.36.17,1,1,0,0,1,.3.4,1.53,1.53,0,0,1,0,1.11,1,1,0,0,1-.31.39,1,1,0,0,1-.35.17,2.66,2.66,0,0,1-.61.05h-.55Zm.28-.26h.18a3.15,3.15,0,0,0,.6,0,.65.65,0,0,0,.28-.13.75.75,0,0,0,.22-.31,1.29,1.29,0,0,0,0-.86.76.76,0,0,0-.22-.31.66.66,0,0,0-.28-.13,3,3,0,0,0-.59,0h-.18Z" style="fill:#fff"/><path d="M126.49,22.92V20.59h.28v2.34Z" style="fill:#fff"/><path d="M127.4,22.92V20.49l1.71,1.87V20.59h.27V23l-1.71-1.85v1.76Z" style="fill:#fff"/><path d="M130,22.92V20.59h1.23v.25h-1v.67h1v.26h-1v.9h1v.26Z" style="fill:#fff"/><path d="M131.76,22.92V20.59h.55a1.61,1.61,0,0,1,.34,0,.5.5,0,0,1,.19.09.54.54,0,0,1,.16.22.78.78,0,0,1,.06.3.57.57,0,0,1-.16.44.67.67,0,0,1-.47.15h0l.89,1.11h-.35l-.85-1.11h0v1.11Zm.27-2.1v.78h.21a.78.78,0,0,0,.44-.08.35.35,0,0,0,.11-.29.38.38,0,0,0-.11-.32.74.74,0,0,0-.43-.09Z" style="fill:#fff"/><path d="M134.61,22.92V20.59h.28v2.34Z" style="fill:#fff"/><path d="M135.52,22.92V20.49l1.71,1.87V20.59h.27V23l-1.71-1.85v1.76Z" style="fill:#fff"/><path d="M139,21.63a.79.79,0,0,1,.34.26.64.64,0,0,1,.12.38.69.69,0,0,1-.21.52.84.84,0,0,1-1,.06.7.7,0,0,1-.25-.4l.25-.12a.63.63,0,0,0,.17.32.41.41,0,0,0,.29.11.48.48,0,0,0,.34-.12.41.41,0,0,0,.13-.31.43.43,0,0,0-.09-.27.68.68,0,0,0-.27-.2l-.28-.12a.8.8,0,0,1-.35-.25.6.6,0,0,1-.11-.37.52.52,0,0,1,.19-.41.69.69,0,0,1,.47-.16.71.71,0,0,1,.36.09.61.61,0,0,1,.24.26l-.23.15a.6.6,0,0,0-.18-.2.38.38,0,0,0-.22-.07.36.36,0,0,0-.26.1.35.35,0,0,0,0,.46.64.64,0,0,0,.24.16Z" style="fill:#fff"/><path d="M139.86,22.92V20.59h.28v2.34Z" style="fill:#fff"/><path d="M142.06,21.72h1v.08a1.19,1.19,0,0,1-.31.87,1.14,1.14,0,0,1-.85.32,1.36,1.36,0,0,1-.31,0,1.14,1.14,0,0,1-.28-.1,1.11,1.11,0,0,1-.44-.44,1.27,1.27,0,0,1-.16-.63,1.42,1.42,0,0,1,.09-.53,1.15,1.15,0,0,1,.28-.41,1.05,1.05,0,0,1,.37-.23,1.34,1.34,0,0,1,.46-.08,1.31,1.31,0,0,1,.58.12,1,1,0,0,1,.41.37l-.23.19a.86.86,0,0,0-.31-.32.88.88,0,0,0-.44-.11.86.86,0,0,0-.66.27,1,1,0,0,0-.25.72,1,1,0,0,0,.26.69.87.87,0,0,0,.66.27.83.83,0,0,0,.58-.21.8.8,0,0,0,.26-.55h-.67Z" style="fill:#fff"/><path d="M143.5,22.92V20.59h.28v.9H145v-.9h.28v2.34H145V21.75h-1.24v1.17Z" style="fill:#fff"/><path d="M146.33,22.92V20.85h-.66v-.26h1.6v.26h-.66v2.07Z" style="fill:#fff"/><path d="M148.49,21.63a.79.79,0,0,1,.34.26.64.64,0,0,1,.12.38.69.69,0,0,1-.21.52.84.84,0,0,1-1,.06.7.7,0,0,1-.25-.4l.25-.12a.63.63,0,0,0,.17.32.41.41,0,0,0,.29.11.48.48,0,0,0,.34-.12.41.41,0,0,0,.13-.31.43.43,0,0,0-.09-.27.68.68,0,0,0-.27-.2l-.28-.12a.8.8,0,0,1-.35-.25.6.6,0,0,1-.11-.37.52.52,0,0,1,.19-.41.69.69,0,0,1,.47-.16.71.71,0,0,1,.36.09.61.61,0,0,1,.24.26l-.23.15a.6.6,0,0,0-.18-.2.38.38,0,0,0-.22-.07.36.36,0,0,0-.26.1.35.35,0,0,0,0,.46.64.64,0,0,0,.24.16Z" style="fill:#fff"/><path d="M151.06,20.43v3.27h-.2V20.43Z" style="fill:#fff"/><path d="M153.15,22.92V20.49l1.71,1.87V20.59h.27V23l-1.71-1.85v1.76Z" style="fill:#fff"/><path d="M155.74,22.92V20.59H157v.25h-1v.67h1v.26h-1v.9h1v.26Z" style="fill:#fff"/><path d="M157.51,22.92V20.59h1.23v.25h-1v.67h1v.26h-1v.9h1v.26Z" style="fill:#fff"/><path d="M159.28,22.92V20.59h.45a3.33,3.33,0,0,1,.7.05,1,1,0,0,1,.36.17,1,1,0,0,1,.3.4,1.53,1.53,0,0,1,0,1.11,1,1,0,0,1-.31.39,1,1,0,0,1-.35.17,2.66,2.66,0,0,1-.61.05h-.55Zm.28-.26h.18a3.15,3.15,0,0,0,.6,0,.65.65,0,0,0,.28-.13.75.75,0,0,0,.22-.31,1.29,1.29,0,0,0,0-.86.76.76,0,0,0-.22-.31.66.66,0,0,0-.28-.13,3,3,0,0,0-.59,0h-.18Z" style="fill:#fff"/><path d="M163.38,20.43v3.27h-.2V20.43Z" style="fill:#fff"/><path d="M164.44,22.92V20.59h1.23v.25h-1v.67h1v.26h-1v.9h1v.26Z" style="fill:#fff"/><path d="M165.91,22.92l.72-1.24L166,20.59h.33l.5.89.48-.89h.32l-.66,1.12.75,1.22h-.33l-.58-1-.55,1Z" style="fill:#fff"/><path d="M168.28,21.87v1H168V20.59h.49a1.9,1.9,0,0,1,.38,0,.59.59,0,0,1,.21.09.53.53,0,0,1,.17.22.78.78,0,0,1,0,.62.53.53,0,0,1-.17.22.57.57,0,0,1-.21.09,1.9,1.9,0,0,1-.38,0h-.22Zm0-.25h.14a.94.94,0,0,0,.48-.08.33.33,0,0,0,.12-.29.36.36,0,0,0-.13-.31.88.88,0,0,0-.48-.09h-.14Z" style="fill:#fff"/><path d="M169.73,22.92V20.59H171v.25h-1v.67h1v.26h-1v.9h1v.26Z" style="fill:#fff"/><path d="M171.5,22.92V20.59H172a1.61,1.61,0,0,1,.34,0,.5.5,0,0,1,.19.09.54.54,0,0,1,.16.22.78.78,0,0,1,.06.3.57.57,0,0,1-.16.44.67.67,0,0,1-.47.15h0l.89,1.11h-.35l-.85-1.11h0v1.11Zm.27-2.1v.78H172a.78.78,0,0,0,.44-.08.35.35,0,0,0,.11-.29.38.38,0,0,0-.11-.32.74.74,0,0,0-.43-.09Z" style="fill:#fff"/><path d="M173.32,22.92V20.59h.28v2.34Z" style="fill:#fff"/><path d="M174.22,22.92V20.59h1.23v.25h-1v.67h1v.26h-1v.9h1v.26Z" style="fill:#fff"/><path d="M176,22.92V20.49l1.71,1.87V20.59H178V23l-1.71-1.85v1.76Z" style="fill:#fff"/><path d="M180.49,21.15a1.13,1.13,0,0,0-.36-.27,1,1,0,0,0-.42-.09.94.94,0,0,0-.67.28.94.94,0,0,0-.2.31,1,1,0,0,0-.07.38,1.06,1.06,0,0,0,0,.3.85.85,0,0,0,.12.25,1,1,0,0,0,.35.31,1,1,0,0,0,.86,0,1.09,1.09,0,0,0,.35-.28v.37a1.33,1.33,0,0,1-.79.26,1.2,1.2,0,0,1-.36-.06,1.23,1.23,0,0,1-.33-.16,1.19,1.19,0,0,1-.52-1,1.29,1.29,0,0,1,.09-.49,1.18,1.18,0,0,1,.28-.4,1.2,1.2,0,0,1,.4-.26,1.28,1.28,0,0,1,.47-.09,1.27,1.27,0,0,1,.39.06,1.42,1.42,0,0,1,.38.19Z" style="fill:#fff"/><path d="M181,22.92V20.59h1.23v.25h-1v.67h1v.26h-1v.9h1v.26Z" style="fill:#fff"/><path d="M169.21,17h.73V17a.93.93,0,0,0,.3.73,1.18,1.18,0,0,0,.82.27,1.3,1.3,0,0,0,.92-.3,1.11,1.11,0,0,0,.32-.86A1.12,1.12,0,0,0,172,16a1.42,1.42,0,0,0-1-.3h-.21v-.59H171a1.4,1.4,0,0,0,.94-.27,1.15,1.15,0,0,0,0-1.55,1.08,1.08,0,0,0-.78-.28,1.2,1.2,0,0,0-.82.26A1,1,0,0,0,170,14h-.71a1.61,1.61,0,0,1,.52-1.19,2,2,0,0,1,1.34-.41,1.9,1.9,0,0,1,1.31.43A1.48,1.48,0,0,1,173,14a1.45,1.45,0,0,1-.28.9,1.39,1.39,0,0,1-.79.5,1.29,1.29,0,0,1,.84.48,1.59,1.59,0,0,1,.3,1,1.61,1.61,0,0,1-.54,1.28,2.19,2.19,0,0,1-1.48.47,2,2,0,0,1-1.33-.43,1.44,1.44,0,0,1-.49-1.14Z" style="fill:#fff"/><path d="M175.07,15.09a1.72,1.72,0,0,1,.45-.22,1.6,1.6,0,0,1,.48-.07,1.75,1.75,0,0,1,1.31.51,1.84,1.84,0,0,1,.5,1.34,1.89,1.89,0,0,1-.57,1.44,2.16,2.16,0,0,1-1.55.54,1.74,1.74,0,0,1-1.33-.54,2,2,0,0,1-.51-1.42A5,5,0,0,1,175,14.23l0-.05,1.37-1.94.62.33Zm-.48,1.65a1.33,1.33,0,0,0,.34,1,1.19,1.19,0,0,0,.91.35,1.17,1.17,0,0,0,.9-.36,1.54,1.54,0,0,0,0-1.93,1.23,1.23,0,0,0-.94-.36,1.11,1.11,0,0,0-.87.37A1.4,1.4,0,0,0,174.59,16.74Z" style="fill:#fff"/><path d="M180.47,18.65a1.76,1.76,0,0,1-1.53-.83,4,4,0,0,1-.56-2.29,4.06,4.06,0,0,1,.56-2.28,1.83,1.83,0,0,1,3.06,0,4.06,4.06,0,0,1,.55,2.29,4.1,4.1,0,0,1-.55,2.29A1.74,1.74,0,0,1,180.47,18.65Zm0-.59a1.08,1.08,0,0,0,1-.64,4.1,4.1,0,0,0,.34-1.88,4.14,4.14,0,0,0-.34-1.89,1.09,1.09,0,0,0-2,0,4,4,0,0,0-.35,1.86,4,4,0,0,0,.35,1.87A1.09,1.09,0,0,0,180.46,18.06Z" style="fill:#fff"/></svg>