<svg xmlns="http://www.w3.org/2000/svg" viewBox="0 0 54.67 43.09"><defs><style>.a{fill:#8dc63f;}.b{fill:#414042;}.c{fill:#fff;}.d{fill:#45a5da;}</style></defs><title>Dine</title><path class="a" d="M44.63,24h0q0,.2-.06.41v0h0v0h0v.08h0l-.07.43h0v.1h0v.06l4.34-3.64L44.45,17.9V18h0v.1l.05.29,0,.14h0l0,.16q0,.2.06.41h0l0,.14h0v.06q0,.24,0,.47v.08h0q0,.23,0,.46v.17c0,.12,0,.23,0,.35v0h0V21h0v.07c0,.16,0,.32,0,.47h0c0,.16,0,.31,0,.47v.07h0v.17q0,.2,0,.39v.17q0,.23,0,.46v.08q0,.24,0,.47V24h0Z"/><path class="b" d="M45.27,19.78h0v0Z"/><path class="a" d="M31.55,4.7h.07L27.87.53,24.12,4.71h.15l.31-.05.15,0,.15,0,.34,0h.09l.14,0h.06l.49,0h.08l.43,0h2.81l.32,0h.08l.49,0h.2l.16,0,.27,0h0l.15,0h0l.22,0,.24,0Z"/><path class="b" d="M28.06.13a.4.4,0,0,0-.59,0L23,5l.39-.11.41-.11.44-.1.31-.06h0l.29-.31,2.74-3,.2-.22.2.22,2.74,3,.29.31.75.17.8.22Z"/><path class="a" d="M24.09,38.43H24l3.75,3.75,3.75-3.75-.63.09h-.12l-.34,0h-.09l-.16,0-.49,0h-.28l-.29,0H26.41l-.3,0-.23,0h0l-.52,0H25.2l-.26,0-.18,0h-.11l-.55-.08Z"/><path class="b" d="M31.2,38.54,28,41.74l-.24.24-.24-.24-3.2-3.2L24,38.2l-.36-.07L23.11,38l4.65,4.65L32.42,38l-.87.18Z"/><path class="a" d="M11.08,19.12h0l0-.25,0-.15h0l0-.14h0q0-.22.07-.43h0v0h0V18L7.33,21.54l3.92,3.56V25h0V25h0q0-.22-.07-.44h0l0-.12v0h0l0-.15,0-.25h0v-.1h0c0-.17,0-.34-.05-.51v-.1h0c0-.12,0-.23,0-.35v-.27c0-.07,0-.13,0-.2s0-.12,0-.18h0v-.16h0s0-.06,0-.09,0-.29,0-.44h0s0-.07,0-.1,0-.28,0-.42,0-.11,0-.16,0-.26,0-.38v-.25c0-.12,0-.25,0-.37h0v0h0v0h0v0c0-.17,0-.34.05-.51h0v-.12h0Z"/><path class="b" d="M10.89,24.78l-.32-.29-3-2.74-.22-.2.22-.2,3-2.74.32-.29c.05-.25.11-.5.17-.75s.14-.53.23-.8L6.35,21.25a.39.39,0,0,0,0,.59l4.94,4.48q-.12-.39-.23-.8C11,25.28,10.94,25,10.89,24.78Z"/><polygon class="b" points="10.31 19.25 10.31 19.24 10.31 19.25 10.31 19.25"/><path class="b" d="M10.37,18.85v0Z"/><path class="c" d="M43.83,23.45h0q0,.21-.06.43h0Q43.81,23.66,43.83,23.45Z"/><path class="c" d="M43.68,18.6c0,.16.06.33.08.49h0c0-.12,0-.24-.06-.36l0-.13h0Z"/><path class="c" d="M43.78,19.21h0q0,.22.06.43h0Q43.81,19.42,43.78,19.21Z"/><path class="c" d="M43.57,18.07h0l.07.35h0Z"/><path class="c" d="M43.64,18.42l0-.13,0-.21Z"/><path class="c" d="M43.57,25l0-.21,0-.13Z"/><path class="c" d="M24.24,5.75l.48-.1h0l-.21,0-.27.06Z"/><path class="c" d="M27.76,5.36h0Z"/><path class="c" d="M24.77,5.64a16.38,16.38,0,0,1,2.75-.27,16.37,16.37,0,0,0-2.75.27Z"/><path class="c" d="M24.12,5.77h0l-.44.11h0Z"/><path class="c" d="M28.42,5.38h0Z"/><path class="c" d="M30.37,5.57h0L30,5.52h0l-.18,0Z"/><path class="c" d="M30.76,5.64h0Z"/><path class="c" d="M30.8,5.65h0l.5.1h0Z"/><path class="c" d="M23.39,6l-.12,0h0l.12,0Z"/><path class="c" d="M30.22,5.55l-.19,0,.34.05Z"/><path class="c" d="M27.52,5.37H28.6l.42,0,.21,0,.39,0h0a16,16,0,0,0-4.77.14l-.13,0A16.37,16.37,0,0,1,27.52,5.37Z"/><path class="c" d="M30,5.52l-.2,0h0Z"/><path class="c" d="M29.85,5.5h0l-.16,0h0Z"/><path class="c" d="M24.11,5.77l-.43.11.44-.11Z"/><path class="c" d="M12.18,25.93v0l0,.06Z"/><path class="c" d="M11.95,18.1l0,.19,0,.12Z"/><path class="c" d="M12.1,17.48v0l-.06.23Z"/><path class="c" d="M12.19,17.12v0l0-.1Z"/><path class="c" d="M11.77,19.08v0c0-.16.05-.32.08-.49C11.82,18.77,11.79,18.92,11.77,19.08Z"/><path class="b" d="M43.74,15.87l-.06,0h0Z"/><circle class="b" cx="45.07" cy="21.54"/><circle class="b" cx="43.57" cy="18.07" transform="translate(-2.79 9.36) rotate(-11.89)"/><path class="b" d="M43.76,19.1l0,.11h0V19.1Z"/><circle class="b" cx="43.83" cy="23.45" transform="translate(14.71 63.73) rotate(-82.28)"/><circle class="b" cx="43.78" cy="23.87" transform="translate(14.46 64.21) rotate(-82.59)"/><polygon class="b" points="43.76 23.99 43.76 23.99 43.76 23.99 43.76 23.99"/><path class="b" d="M44.35,24.75q-.11.59-.27,1.17Q44.23,25.34,44.35,24.75Z"/><path class="b" d="M44.54,23.52q-.07.59-.18,1.16Q44.47,24.11,44.54,23.52Z"/><path class="b" d="M44.65,21.54c0,.19,0,.39,0,.58C44.65,21.93,44.65,21.74,44.65,21.54Z"/><path class="b" d="M44.64,22.26q0,.58-.09,1.15Q44.61,22.84,44.64,22.26Z"/><path class="b" d="M44.64,21c0,.19,0,.38,0,.58C44.65,21.35,44.65,21.16,44.64,21Z"/><path class="b" d="M44.55,19.67q.06.57.09,1.15Q44.61,20.24,44.55,19.67Z"/><path class="b" d="M44.36,18.4q.11.58.18,1.16Q44.47,19,44.36,18.4Z"/><polygon class="b" points="43.68 15.89 43.68 15.89 43.67 15.89 43.68 15.89"/><circle class="b" cx="43.83" cy="19.64" transform="translate(-2.19 5.91) rotate(-7.52)"/><path class="b" d="M43.86,19.85v-.06h0Z"/><polygon class="b" points="43.85 19.79 43.85 19.79 43.85 19.79 43.85 19.79"/><polygon class="b" points="43.85 19.79 43.85 19.79 43.85 19.79 43.85 19.79"/><path class="b" d="M43.67,15.89h0l-.1,0a.7.7,0,0,0-.21.2q.13.36.24.73l-.06-.21a.42.42,0,0,1,.18-.48l.09,0-.09-.27Z"/><path class="b" d="M43.29,26.11v0Z"/><path class="b" d="M43.68,24.48v0Z"/><polygon class="b" points="43.76 23.99 43.76 23.99 43.76 23.99 43.76 23.99"/><path class="b" d="M30.89,4.94q-.57-.11-1.15-.17Q30.33,4.84,30.89,4.94Z"/><path class="b" d="M29.63,4.76q-.57-.06-1.15-.09Q29.06,4.69,29.63,4.76Z"/><path class="b" d="M24.54,5q-.58.11-1.14.26Q24,5.07,24.54,5Z"/><path class="b" d="M25.78,4.77q-.58.07-1.15.17Q25.2,4.84,25.78,4.77Z"/><path class="b" d="M28.34,4.66h0Z"/><path class="b" d="M27.76,4.65h0Z"/><path class="b" d="M22.34,6l0,0h0Z"/><path class="b" d="M12.2,16.16l0,0,0,0Z"/><path class="b" d="M12.08,16,12,16h0Z"/><path class="b" d="M11.91,27.17l.07,0,.1-.07-.1.07Z"/><path class="b" d="M12.16,27l0,0h0Z"/><path class="b" d="M11,23.53q.07.58.17,1.15Q11.06,24.11,11,23.53Z"/><path class="b" d="M10.89,22.26q0,.58.09,1.15Q10.91,22.84,10.89,22.26Z"/><path class="b" d="M11.18,24.76q.11.57.26,1.14Q11.29,25.33,11.18,24.76Z"/><path class="b" d="M11,19.67q-.06.57-.09,1.15Q10.91,20.24,11,19.67Z"/><path class="b" d="M11.44,17.19q-.15.56-.26,1.14Q11.29,17.75,11.44,17.19Z"/><path class="b" d="M10.88,21c0,.19,0,.38,0,.58C10.87,21.35,10.88,21.16,10.88,21Z"/><path class="b" d="M10.87,21.54c0,.19,0,.39,0,.58C10.88,21.93,10.87,21.74,10.87,21.54Z"/><path class="b" d="M11.16,18.41q-.11.57-.18,1.15Q11.06,19,11.16,18.41Z"/><path class="b" d="M49.3,21.54a.41.41,0,0,0-.13-.3l-4.76-4.42c0-.17-.1-.33-.15-.5l-.15-.44h0a17.39,17.39,0,0,0-10.7-10.7L33,5l-.83-.24a17.17,17.17,0,0,0-1.73-.36h-.06l-.33,0H29.9l-.29,0h-.12l-.38,0H29l-.29,0h-1.9l-.29,0h-.11l-.38,0h-.12l-.29,0h-.12l-.33,0h-.06a17.17,17.17,0,0,0-1.73.36L22.55,5l-.44.15h0a17.39,17.39,0,0,0-10.7,10.7h0l-.15.44q-.13.41-.24.83a17.17,17.17,0,0,0-.36,1.73V19l0,.33v.12l0,.29v.12q0,.19,0,.38v.1q0,.15,0,.29v.15q0,.14,0,.27v.13c0,.13,0,.27,0,.4s0,.27,0,.4v.13q0,.14,0,.27v.15q0,.15,0,.29v.1q0,.19,0,.38v.12l0,.29v.12l0,.33v.06A17.17,17.17,0,0,0,11,25.92q.11.42.24.83l.15.44a17.39,17.39,0,0,0,10.7,10.7h0l.42.14L27.44,43a.46.46,0,0,0,.65,0L33,38l.42-.14a17.39,17.39,0,0,0,10.7-10.7l.15-.45.15-.5,4.76-4.42A.41.41,0,0,0,49.3,21.54Zm-5,3.21q-.11.59-.27,1.17Q44.23,25.34,44.35,24.75ZM30.89,4.94q-.57-.11-1.15-.17Q30.33,4.84,30.89,4.94Zm-1.26-.19q-.57-.06-1.15-.09Q29.06,4.69,29.63,4.76Zm-1.87-.1h0Zm-2,.12q-.58.07-1.15.17Q25.2,4.84,25.78,4.77ZM24.54,5q-.58.11-1.14.26Q24,5.07,24.54,5ZM12,16l.1.07L12,16h0Zm-1.1,6.17c0-.19,0-.38,0-.58s0-.39,0-.58c0,.19,0,.38,0,.58S10.88,21.93,10.88,22.12Zm0,.14q0,.58.09,1.15Q10.91,22.84,10.89,22.26Zm0-1.44q0-.58.09-1.15Q10.91,20.24,10.89,20.82Zm.1,2.7q.07.58.17,1.15Q11.06,24.11,11,23.53Zm0-4q.07-.58.18-1.15Q11.06,19,11,19.56Zm.45-2.37q-.15.56-.26,1.14Q11.29,17.75,11.44,17.19Zm-.26,7.57q.11.57.26,1.14Q11.29,25.33,11.18,24.76Zm.8,2.37-.07,0,.07,0,.1-.07ZM27.76,42.63,23.44,38.3a17.18,17.18,0,0,0,2.08.4h.09l.31,0H26l.33,0,.23,0h2.33l.26,0,.31,0h.13l.3,0H30a17.18,17.18,0,0,0,2.08-.4Zm5.39-5.52h0l-.82.26-.1,0-.33.09-.31.08-.29.07-.39.08-.13,0a16.52,16.52,0,0,1-6,0l-.15,0-.36-.08-.36-.08-.25-.06-.33-.09-.09,0-.82-.26h0A16.55,16.55,0,0,1,12.2,26.93l0,0,0,0q-.14-.4-.26-.81l0-.11-.09-.32-.07-.28L11.67,25l-.07-.32,0-.21c0-.16-.06-.33-.08-.49l0-.12q0-.22-.06-.44l0-.15c0-.18,0-.36-.05-.54v-.06q0-.25,0-.49v-.14c0-.18,0-.37,0-.55s0-.37,0-.55v-.14q0-.25,0-.5v-.06c0-.18,0-.36.05-.54l0-.15q0-.22.06-.44l0-.11c0-.17.05-.33.08-.5l0-.2.07-.32.08-.34.07-.29.09-.32,0-.11q.12-.41.26-.82l0,0,0,0A16.55,16.55,0,0,1,22.37,6l0,0,0,0,.81-.26.12,0,.31-.08L24,5.49l.15,0,.44-.09.1,0a16.51,16.51,0,0,1,6.08,0l.08,0,.45.09.14,0,.44.11.31.08.12,0,.81.26A16.55,16.55,0,0,1,43.33,16.15a.7.7,0,0,1,.21-.2l.1,0h0l.06,0-.06,0,.09.27-.09,0a.42.42,0,0,0-.18.48l.06.21.07.24.07.25.11.44,0,.19.07.36,0,.19c0,.17.06.33.09.5l0,.11q0,.22.06.44l0,.15c0,.18,0,.36.05.54v.06q0,.25,0,.5V21c0,.18,0,.37,0,.55s0,.37,0,.55v.14q0,.25,0,.49v.06c0,.18,0,.36,0,.54l0,.15q0,.22-.06.44L44,24c0,.17-.05.33-.08.5l0,.19-.07.35,0,.21-.1.42-.07.25-.07.24q-.11.37-.24.73A16.55,16.55,0,0,1,33.15,37.11ZM44.36,24.68q.11-.57.18-1.16Q44.47,24.11,44.36,24.68Zm0-6.28q.11.58.18,1.16Q44.47,19,44.36,18.4Zm.19,5q.06-.57.09-1.15Q44.61,22.84,44.55,23.41Zm0-3.74q.06.57.09,1.15Q44.61,20.24,44.55,19.67Zm.09,2.45c0-.19,0-.38,0-.58s0-.39,0-.58c0,.19,0,.38,0,.58S44.65,21.93,44.64,22.12ZM48,21.75l-3,2.74-.28.26c0-.18.07-.37.1-.55v-.07l0-.32,0-.12,0-.28v-.13q0-.19,0-.38v-.11q0-.15,0-.29v-.15q0-.13,0-.27v-.13c0-.13,0-.26,0-.4h0c0-.13,0-.27,0-.4V21q0-.14,0-.27v-.15q0-.15,0-.29v-.11q0-.19,0-.38v-.12l0-.28,0-.12,0-.32v-.07c0-.18-.06-.37-.1-.55l.28.26,3,2.74.22.2Z"/><path class="b" d="M12.19,26l0,.06h0Z"/><path class="d" d="M2.09,37.82a1,1,0,0,0,.15.16,2.11,2.11,0,0,0,1.36.43,2.7,2.7,0,0,0,.49,0l.29-.07.26-.1.12-.06L5,38a1,1,0,0,0,.15-.16l.06-.09a.64.64,0,0,0,.06-.18.58.58,0,0,0,0-.11V25a.6.6,0,0,0-.05-.24A.8.8,0,0,0,5,24.5L5,24.42l-.2-.14-.12-.06-.26-.1L4.09,24a2.69,2.69,0,0,0-.49,0,2,2,0,0,0-1.44.51.8.8,0,0,0-.15.22A.6.6,0,0,0,2,25V37.45a.59.59,0,0,0,0,.19A.71.71,0,0,0,2.09,37.82Z"/><path class="b" d="M4.49,10.53l-.18.06h0Z"/><path class="b" d="M6.16,4.3V8.21A2.84,2.84,0,0,1,4,10.77v-.12H4V4.3H3.18v6.36h0v.12A2.84,2.84,0,0,1,1,8.21V4.3H0V8.21a3.81,3.81,0,0,0,3.18,3.45v.42h0v10.8h0v.29l-.29.08h0a2.06,2.06,0,0,0-1.35,1.93v12a2.06,2.06,0,1,0,4.11,0v-12a2.06,2.06,0,0,0-1.35-1.93h0L4,23.17v-.29H4V11.66l.29-.08h0A3.73,3.73,0,0,0,7.2,8.21V4.3ZM4.82,25.19v12a1.22,1.22,0,1,1-2.44,0v-12a1.22,1.22,0,1,1,2.44,0Z"/><path class="c" d="M50.31,17.45a2.69,2.69,0,0,0,.42.33,2.93,2.93,0,0,0,.75.34,4.05,4.05,0,0,0,.9.16V2.77a4.23,4.23,0,0,0-1,1.42C49.18,9,48,15.24,50.31,17.45Z"/><path class="b" d="M52.62,2.76s-1.22-.18-2,2.13c-1.76,4.95-3.25,14,2,13.45ZM52.2,3.87V18l-.31,0a2.22,2.22,0,0,1-1.61-.85c-1-1.22-1-3.52-.84-5.24A28.73,28.73,0,0,1,51,5a4.24,4.24,0,0,1,.73-1.35l.51-.59Z"/><path class="d" d="M51.33,37.93a1,1,0,0,0,.13.17,1.78,1.78,0,0,0,2.33,0,1,1,0,0,0,.13-.17.78.78,0,0,0,.08-.18.7.7,0,0,0,0-.2V24.86a.7.7,0,0,0,0-.25.83.83,0,0,0-.13-.22,1.74,1.74,0,0,0-2.47,0,.83.83,0,0,0-.13.22.71.71,0,0,0,0,.25v12.7a.7.7,0,0,0,0,.2A.78.78,0,0,0,51.33,37.93Z"/><path class="b" d="M53.33,23.26,53,23.17V2.76a.42.42,0,0,0-.36-.41h-.13c-.46,0-1.6.24-2.37,2.41a30.73,30.73,0,0,0-1.56,6.74c-.29,2.8.06,4.91,1,6.11a3.08,3.08,0,0,0,2.31,1.17l.27,0v4.38l-.29.08a2.06,2.06,0,0,0-1.35,1.93v12a2.06,2.06,0,0,0,4.11,0v-12A2.06,2.06,0,0,0,53.33,23.26Zm.51,14a1.22,1.22,0,0,1-2.44,0v-12a1.22,1.22,0,1,1,2.44,0ZM50.57,4.89c.82-2.31,2-2.13,2-2.13V18.34C47.33,18.9,48.81,9.84,50.57,4.89Z"/><circle class="c" cx="27.86" cy="21.64" r="16.35"/><path class="b" d="M38.52,19.06v-1c0-1.46-1-2.8-2.62-3.78a12.7,12.7,0,0,0-6.47-1.62h-4.1a12.7,12.7,0,0,0-6.47,1.62c-1.62,1-2.62,2.32-2.62,3.78v1Zm.48-1V19.3a.24.24,0,0,1-.24.24H16a.24.24,0,0,1-.24-.24V18.06c0-1.64,1.1-3.13,2.86-4.19a13.19,13.19,0,0,1,6.72-1.69h4.1a13.19,13.19,0,0,1,6.72,1.69C37.91,14.94,39,16.42,39,18.06Z"/><path class="b" d="M16,19.73a.41.41,0,0,1-.41-.41V18.06c0-1.65,1-3.19,2.94-4.34A13.33,13.33,0,0,1,25.33,12h4.1a13.33,13.33,0,0,1,6.81,1.72c1.9,1.15,2.94,2.69,2.94,4.34V19.3a.41.41,0,0,1-.41.41Zm9.33-7.38A13,13,0,0,0,18.7,14c-1.79,1.08-2.78,2.52-2.78,4v1.25a.07.07,0,0,0,.07.07H38.77a.07.07,0,0,0,.07-.07V18.06c0-1.53-1-3-2.78-4a13,13,0,0,0-6.63-1.67Zm-9.26,6.9V18.06c0-1.48,1-2.87,2.71-3.93a12.84,12.84,0,0,1,6.56-1.65h4.1A12.84,12.84,0,0,1,36,14.14c1.75,1.06,2.71,2.45,2.71,3.93v1.17Zm9.26-6.41A12.5,12.5,0,0,0,19,14.43c-1.64,1-2.54,2.28-2.54,3.63v.84H38.35v-.83c0-1.35-.9-2.64-2.54-3.63a12.5,12.5,0,0,0-6.38-1.6Z"/><path class="b" d="M38.52,25.38a.25.25,0,0,1,.49,0v.75c0,1-1.11,2-2.9,2.63a20.21,20.21,0,0,1-6.68,1h-4.1a20.21,20.21,0,0,1-6.68-1c-1.79-.65-2.9-1.58-2.9-2.63v-.74a.25.25,0,0,1,.49,0v.74c0,.82,1,1.6,2.58,2.18a19.71,19.71,0,0,0,6.51,1h4.1a19.71,19.71,0,0,0,6.51-1c1.59-.58,2.58-1.35,2.58-2.18v-.75Z"/><path class="b" d="M29.43,29.94h-4.1a20.35,20.35,0,0,1-6.74-1c-1.94-.71-3-1.7-3-2.79v-.74a.42.42,0,0,1,.83,0v.74c0,.71.9,1.45,2.47,2a19.5,19.5,0,0,0,6.45,1h4.1a19.5,19.5,0,0,0,6.45-1c1.57-.57,2.47-1.31,2.47-2v-.75a.42.42,0,0,1,.83,0v.75c0,1.09-1.07,2.08-3,2.79A20.35,20.35,0,0,1,29.43,29.94ZM16,25.31a.07.07,0,0,0-.08.07v.74c0,.93,1,1.83,2.79,2.47a20,20,0,0,0,6.62,1h4.1a20,20,0,0,0,6.62-1c1.77-.65,2.79-1.55,2.79-2.47v-.75c0-.08-.15-.08-.15,0v.75c0,.87-1,1.71-2.69,2.34a19.85,19.85,0,0,1-6.57,1h-4.1a19.85,19.85,0,0,1-6.57-1C17,27.83,16.07,27,16.07,26.12v-.74A.07.07,0,0,0,16,25.31Z"/><path class="b" d="M39.21,20a.24.24,0,0,1,.45.17,2.23,2.23,0,0,1-.9,1.09,2.64,2.64,0,0,1-1.42.42,3.42,3.42,0,0,1-1.21-.18,2,2,0,0,1-.8-.55,2,2,0,0,1-.8.54,4,4,0,0,1-2.4,0,2,2,0,0,1-.8-.54,2,2,0,0,1-.8.54,4,4,0,0,1-2.4,0,2,2,0,0,1-.8-.54,2,2,0,0,1-.8.54,3.37,3.37,0,0,1-1.2.19,3.58,3.58,0,0,1-1.21-.17,2,2,0,0,1-.81-.53,2,2,0,0,1-.79.53,3.45,3.45,0,0,1-1.19.17,3.37,3.37,0,0,1-1.2-.19,2,2,0,0,1-.8-.54,2,2,0,0,1-.8.54,3.37,3.37,0,0,1-1.2.19,2.42,2.42,0,0,1-1.27-.36h0a3.14,3.14,0,0,1-1-1,.24.24,0,0,1,.41-.26,2.66,2.66,0,0,0,.83.84h0a1.94,1.94,0,0,0,1,.29,2.92,2.92,0,0,0,1-.15,1.6,1.6,0,0,0,.77-.61l.06-.07a.24.24,0,0,1,.34.06,1.6,1.6,0,0,0,.77.61,2.92,2.92,0,0,0,1,.15,3,3,0,0,0,1-.14,1.54,1.54,0,0,0,.76-.6l.07-.07a.24.24,0,0,1,.34.06,1.54,1.54,0,0,0,.77.6,3.12,3.12,0,0,0,1,.14,2.92,2.92,0,0,0,1-.15,1.6,1.6,0,0,0,.77-.61l.06-.07a.24.24,0,0,1,.34.06,1.6,1.6,0,0,0,.77.61,3.56,3.56,0,0,0,2.06,0,1.6,1.6,0,0,0,.77-.61l.06-.07a.24.24,0,0,1,.34.06,1.6,1.6,0,0,0,.77.61,3.56,3.56,0,0,0,2.06,0,1.6,1.6,0,0,0,.77-.61l.07-.07a.24.24,0,0,1,.33.07,1.54,1.54,0,0,0,.76.62,3,3,0,0,0,1,.14,2.15,2.15,0,0,0,1.16-.35,1.75,1.75,0,0,0,.7-.85Z"/><path class="b" d="M37.35,21.86a3.53,3.53,0,0,1-1.27-.19,2.12,2.12,0,0,1-.74-.46,2.2,2.2,0,0,1-.73.45,4.15,4.15,0,0,1-2.52,0,2.2,2.2,0,0,1-.74-.46,2.21,2.21,0,0,1-.74.46,4.16,4.16,0,0,1-2.52,0,2.21,2.21,0,0,1-.74-.46,2.21,2.21,0,0,1-.74.46,3.49,3.49,0,0,1-1.26.2,3.71,3.71,0,0,1-1.26-.18,2.17,2.17,0,0,1-.75-.45,2.13,2.13,0,0,1-.74.45,3.55,3.55,0,0,1-1.25.18,3.49,3.49,0,0,1-1.26-.2,2.21,2.21,0,0,1-.74-.46,2.21,2.21,0,0,1-.74.46,3.49,3.49,0,0,1-1.26.2A2.57,2.57,0,0,1,16,21.47a3.36,3.36,0,0,1-1.06-1.06.41.41,0,1,1,.69-.44,2.51,2.51,0,0,0,.78.79,1.78,1.78,0,0,0,.94.27,2.73,2.73,0,0,0,1-.14,1.43,1.43,0,0,0,.69-.55.41.41,0,0,1,.68,0,1.43,1.43,0,0,0,.69.55,2.72,2.72,0,0,0,1,.14,2.78,2.78,0,0,0,1-.13,1.37,1.37,0,0,0,.68-.53.4.4,0,0,1,.11-.11.41.41,0,0,1,.57.11,1.37,1.37,0,0,0,.69.53,2.93,2.93,0,0,0,1,.13,2.72,2.72,0,0,0,1-.14,1.43,1.43,0,0,0,.69-.55.4.4,0,0,1,.11-.11.41.41,0,0,1,.57.11,1.43,1.43,0,0,0,.69.55,3.4,3.4,0,0,0,1.94,0,1.43,1.43,0,0,0,.69-.55.41.41,0,0,1,.11-.11.41.41,0,0,1,.57.11,1.43,1.43,0,0,0,.69.55,3.4,3.4,0,0,0,1.94,0,1.43,1.43,0,0,0,.69-.55.41.41,0,0,1,.69,0,1.38,1.38,0,0,0,.68.55,2.77,2.77,0,0,0,1,.13,2,2,0,0,0,1.06-.32,1.58,1.58,0,0,0,.64-.77h0a.41.41,0,0,1,.53-.25.41.41,0,0,1,.24.53,2.39,2.39,0,0,1-1,1.17A2.81,2.81,0,0,1,37.35,21.86Zm-2-1.15.13.14a1.79,1.79,0,0,0,.73.5,3.2,3.2,0,0,0,1.15.17,2.47,2.47,0,0,0,1.33-.4,2.05,2.05,0,0,0,.83-1,.07.07,0,0,0,0-.09.08.08,0,0,0-.09,0h0a1.91,1.91,0,0,1-.77.94,2.32,2.32,0,0,1-1.25.37,3.09,3.09,0,0,1-1.1-.16,1.7,1.7,0,0,1-.84-.68.07.07,0,0,0-.1,0l0,0a1.76,1.76,0,0,1-.85.67,3.73,3.73,0,0,1-2.18,0,1.76,1.76,0,0,1-.85-.68.07.07,0,0,0-.1,0,1.83,1.83,0,0,1-.87.69,3.73,3.73,0,0,1-2.18,0,1.76,1.76,0,0,1-.85-.68.07.07,0,0,0,0,0,.07.07,0,0,0-.05,0,1.83,1.83,0,0,1-.87.69,3,3,0,0,1-1.09.16,3.25,3.25,0,0,1-1.1-.15,1.7,1.7,0,0,1-.86-.66.07.07,0,0,0-.1,0,1.76,1.76,0,0,1-.86.68,3.1,3.1,0,0,1-1.08.15,3,3,0,0,1-1.09-.16,1.76,1.76,0,0,1-.85-.68.07.07,0,0,0-.1,0,1.82,1.82,0,0,1-.87.69,3,3,0,0,1-1.09.16,2.1,2.1,0,0,1-1.1-.32,2.85,2.85,0,0,1-.9-.9.07.07,0,1,0-.12.08,3,3,0,0,0,.93.94,2.25,2.25,0,0,0,1.19.35,3.16,3.16,0,0,0,1.14-.17,1.87,1.87,0,0,0,.73-.5l.13-.14.13.14a1.86,1.86,0,0,0,.73.5,3.16,3.16,0,0,0,1.14.17,3.23,3.23,0,0,0,1.13-.16,1.8,1.8,0,0,0,.73-.48l.12-.14.13.14a1.82,1.82,0,0,0,.74.49,3.39,3.39,0,0,0,1.15.16,3.16,3.16,0,0,0,1.14-.17,1.87,1.87,0,0,0,.73-.5l.13-.14.13.14a1.87,1.87,0,0,0,.73.5,3.82,3.82,0,0,0,2.28,0,1.86,1.86,0,0,0,.73-.5l.13-.14.13.14a1.87,1.87,0,0,0,.73.5,3.83,3.83,0,0,0,2.28,0,1.86,1.86,0,0,0,.73-.49Z"/><path class="b" d="M15.5,20.09a.24.24,0,1,1-.44.2.68.68,0,0,1,.2-1,2.81,2.81,0,0,1,1.45-.26.24.24,0,0,1,0,.49,2.46,2.46,0,0,0-1.18.18c-.1.07-.1.19,0,.36Z"/><path class="b" d="M15.28,20.6a.41.41,0,0,1-.38-.24.84.84,0,0,1,.26-1.17,2.91,2.91,0,0,1,1.54-.29.41.41,0,1,1,0,.83,2.28,2.28,0,0,0-1.09.15s0,0,0,.15h0a.41.41,0,0,1-.38.58Zm1.43-1.36a2.73,2.73,0,0,0-1.35.23c-.18.12-.34.3-.14.75a.07.07,0,0,0,0,0h.06a.07.07,0,0,0,0,0,.07.07,0,0,0,0-.06h0c-.15-.34,0-.5.09-.57a2.55,2.55,0,0,1,1.28-.21.07.07,0,1,0,0-.15Z"/><path class="b" d="M39.62,20.29a.24.24,0,1,1-.44-.2c.08-.17.08-.29,0-.36A2.46,2.46,0,0,0,38,19.56a.24.24,0,0,1,0-.49,2.81,2.81,0,0,1,1.45.26.68.68,0,0,1,.2,1Z"/><path class="b" d="M39.4,20.6A.41.41,0,0,1,39,20c0-.11,0-.14,0-.14A2.29,2.29,0,0,0,38,19.73a.41.41,0,0,1,0-.83,2.91,2.91,0,0,1,1.54.29.84.84,0,0,1,.26,1.17h0a.41.41,0,0,1-.23.22ZM38,19.24a.07.07,0,0,0,0,.15,2.55,2.55,0,0,1,1.28.21c.1.07.24.23.09.57a.07.07,0,0,0,0,.06.07.07,0,0,0,0,0,.08.08,0,0,0,.1,0h0c.2-.45,0-.63-.14-.75A2.73,2.73,0,0,0,38,19.24Z"/><path class="b" d="M39.21,24.5a1.75,1.75,0,0,0-.7-.84,2.15,2.15,0,0,0-1.16-.34,3,3,0,0,0-1,.14,1.54,1.54,0,0,0-.76.62.24.24,0,0,1-.34.07l-.07-.07a1.6,1.6,0,0,0-.77-.61,3.56,3.56,0,0,0-2.06,0,1.6,1.6,0,0,0-.77.61.24.24,0,0,1-.34.06l-.06-.06a1.6,1.6,0,0,0-.77-.61,3.56,3.56,0,0,0-2.06,0,1.6,1.6,0,0,0-.77.61.24.24,0,0,1-.34.06l-.06-.06a1.6,1.6,0,0,0-.77-.61,2.92,2.92,0,0,0-1-.15,3.12,3.12,0,0,0-1,.14,1.54,1.54,0,0,0-.77.6.24.24,0,0,1-.34.06l-.06-.06a1.54,1.54,0,0,0-.76-.6,3,3,0,0,0-1-.14,1.93,1.93,0,0,0-1,.27,2.59,2.59,0,0,0-.83.79.24.24,0,0,1-.34.06l-.06-.06a2.59,2.59,0,0,0-.83-.79,1.91,1.91,0,0,0-2,0,2.64,2.64,0,0,0-.83.83c-.07.16-.07.28,0,.34A2.46,2.46,0,0,0,16.7,25a.24.24,0,1,1,0,.49,2.81,2.81,0,0,1-1.45-.26.68.68,0,0,1-.2-1l0,0a3.13,3.13,0,0,1,1-1,2.39,2.39,0,0,1,2.49,0,3,3,0,0,1,.78.67,3,3,0,0,1,.78-.67,2.42,2.42,0,0,1,1.22-.34,3.45,3.45,0,0,1,1.19.17,2,2,0,0,1,.79.53,2,2,0,0,1,.81-.53,3.58,3.58,0,0,1,1.21-.17,3.37,3.37,0,0,1,1.2.19,2,2,0,0,1,.8.54,2,2,0,0,1,.8-.54,4,4,0,0,1,2.4,0,2,2,0,0,1,.8.54,2,2,0,0,1,.8-.54,4,4,0,0,1,2.4,0,2,2,0,0,1,.8.54,2,2,0,0,1,.8-.54,3.43,3.43,0,0,1,1.21-.18,2.64,2.64,0,0,1,1.42.42,2.26,2.26,0,0,1,.84,1h0a.68.68,0,0,1-.2,1,2.81,2.81,0,0,1-1.45.26A.24.24,0,0,1,38,25a2.46,2.46,0,0,0,1.18-.18c.09-.06.1-.15.05-.29Z"/><path class="b" d="M38,25.62a.41.41,0,1,1,0-.83,2.27,2.27,0,0,0,1.09-.15.15.15,0,0,0,0-.09,1.58,1.58,0,0,0-.63-.75,2,2,0,0,0-1.06-.32,2.77,2.77,0,0,0-1,.13,1.38,1.38,0,0,0-.68.55.41.41,0,0,1-.68,0,1.43,1.43,0,0,0-.69-.55,3.39,3.39,0,0,0-1.94,0,1.43,1.43,0,0,0-.69.55.41.41,0,0,1-.57.11.4.4,0,0,1-.11-.11,1.42,1.42,0,0,0-.69-.55,3.39,3.39,0,0,0-1.94,0,1.43,1.43,0,0,0-.69.55.41.41,0,0,1-.57.11.4.4,0,0,1-.11-.11,1.43,1.43,0,0,0-.69-.55,2.72,2.72,0,0,0-1-.14,2.93,2.93,0,0,0-1,.13,1.37,1.37,0,0,0-.69.53.41.41,0,0,1-.68,0,1.37,1.37,0,0,0-.68-.53,2.78,2.78,0,0,0-1-.13,1.76,1.76,0,0,0-.89.25,2.44,2.44,0,0,0-.77.73.41.41,0,0,1-.57.11.4.4,0,0,1-.11-.11,2.44,2.44,0,0,0-.77-.73,1.75,1.75,0,0,0-1.82,0,2.48,2.48,0,0,0-.78.78.19.19,0,0,0,0,.11,2.29,2.29,0,0,0,1.09.15.41.41,0,1,1,0,.83,2.92,2.92,0,0,1-1.54-.29.84.84,0,0,1-.26-1.17l0-.08a3.3,3.3,0,0,1,1-1,2.57,2.57,0,0,1,2.66,0,3.08,3.08,0,0,1,.7.56A3.09,3.09,0,0,1,20,23a2.58,2.58,0,0,1,1.3-.36,3.54,3.54,0,0,1,1.25.18,2.13,2.13,0,0,1,.74.45,2.16,2.16,0,0,1,.75-.45,3.71,3.71,0,0,1,1.26-.18,3.5,3.5,0,0,1,1.26.2,2.21,2.21,0,0,1,.74.46,2.21,2.21,0,0,1,.74-.46,4.17,4.17,0,0,1,2.53,0,2.21,2.21,0,0,1,.74.46,2.21,2.21,0,0,1,.74-.46,4.17,4.17,0,0,1,2.53,0,2.21,2.21,0,0,1,.73.45,2.12,2.12,0,0,1,.74-.46,3.53,3.53,0,0,1,1.27-.19,2.81,2.81,0,0,1,1.51.45,2.43,2.43,0,0,1,.91,1,.84.84,0,0,1-.26,1.18A2.91,2.91,0,0,1,38,25.62Zm-.62-2.47a2.32,2.32,0,0,1,1.25.37,1.92,1.92,0,0,1,.77.92h0a.37.37,0,0,1-.12.48,2.55,2.55,0,0,1-1.28.21.07.07,0,0,0,0,.15A2.73,2.73,0,0,0,39.33,25c.18-.12.34-.3.14-.75a2.1,2.1,0,0,0-.79-.9,2.47,2.47,0,0,0-1.33-.4,3.21,3.21,0,0,0-1.15.17,1.8,1.8,0,0,0-.73.5l-.12.14-.13-.14a1.87,1.87,0,0,0-.73-.49,3.83,3.83,0,0,0-2.28,0,1.87,1.87,0,0,0-.73.5l-.13.14-.13-.14a1.87,1.87,0,0,0-.73-.5,3.83,3.83,0,0,0-2.28,0,1.87,1.87,0,0,0-.73.5l-.13.14-.13-.14a1.87,1.87,0,0,0-.73-.5A3.16,3.16,0,0,0,25.34,23a3.39,3.39,0,0,0-1.15.16,1.82,1.82,0,0,0-.74.49l-.13.14-.12-.14a1.8,1.8,0,0,0-.73-.48A3.22,3.22,0,0,0,21.34,23a2.24,2.24,0,0,0-1.13.31,2.8,2.8,0,0,0-.74.63l-.13.16-.13-.16a2.8,2.8,0,0,0-.74-.63,2.23,2.23,0,0,0-2.31,0,3,3,0,0,0-.94.94c-.22.47-.06.65.13.77a2.73,2.73,0,0,0,1.36.23.07.07,0,0,0,0-.15,2.55,2.55,0,0,1-1.28-.21c-.1-.06-.24-.22-.09-.55a2.82,2.82,0,0,1,.9-.91,2.09,2.09,0,0,1,2.16,0,2.79,2.79,0,0,1,.88.84s.06,0,.07,0a.07.07,0,0,0,0,0,2.79,2.79,0,0,1,.88-.84,2.1,2.1,0,0,1,1.06-.29,3.1,3.1,0,0,1,1.08.15,1.71,1.71,0,0,1,.84.66s.06,0,.07,0a.07.07,0,0,0,0,0,1.7,1.7,0,0,1,.86-.66,3.25,3.25,0,0,1,1.1-.15,3,3,0,0,1,1.09.16,1.76,1.76,0,0,1,.85.67c.05,0,.1,0,.12,0a1.76,1.76,0,0,1,.85-.68,3.72,3.72,0,0,1,2.18,0,1.76,1.76,0,0,1,.85.67s.06,0,.07,0a.07.07,0,0,0,0,0,1.76,1.76,0,0,1,.85-.68,3.72,3.72,0,0,1,2.18,0,1.76,1.76,0,0,1,.85.67c.05,0,.1,0,.12,0a1.71,1.71,0,0,1,.84-.68A3.09,3.09,0,0,1,37.35,23.14Z"/><path class="b" d="M16.7,25.45a.24.24,0,1,1,0-.48H38.06a.24.24,0,0,1,0,.48Z"/><path class="b" d="M16.7,25.62h0a.41.41,0,1,1,0-.82H38.06a.41.41,0,1,1,0,.82Zm21.35-.48H16.7a.07.07,0,0,0,0,.14H38.06a.07.07,0,1,0,0-.14Z"/><path class="b" d="M16.46,23a.24.24,0,1,1-.39.29,1.59,1.59,0,0,1,.08-2,.24.24,0,0,1,.36.32,1.12,1.12,0,0,0-.2.34,1.11,1.11,0,0,0,0,.73,1.11,1.11,0,0,0,.16.31Zm21.71-1.38a.24.24,0,1,1,.36-.32,1.59,1.59,0,0,1,.08,2,.24.24,0,0,1-.39-.29,1.1,1.1,0,0,0-.06-1.38Z"/><path class="b" d="M16.26,23.52H16.2a.41.41,0,0,1-.27-.16,1.76,1.76,0,0,1,.09-2.2.41.41,0,0,1,.58,0,.41.41,0,0,1,0,.58.94.94,0,0,0-.17.29.92.92,0,0,0-.06.33.93.93,0,0,0,.18.56.41.41,0,0,1-.33.66Zm.07-2.17-.05,0a1.41,1.41,0,0,0-.07,1.77.07.07,0,0,0,0,0,.07.07,0,0,0,.05,0,.08.08,0,0,0,0-.1h0a1.27,1.27,0,0,1,.07-1.6.07.07,0,0,0,0-.05.07.07,0,0,0,0,0Zm22.08,2.16a.41.41,0,0,1-.24-.08.41.41,0,0,1-.09-.57.94.94,0,0,0,.12-.88.94.94,0,0,0-.17-.29h0a.41.41,0,0,1,.62-.54,1.76,1.76,0,0,1,.43,1.15,1.75,1.75,0,0,1-.09.55,1.77,1.77,0,0,1-.25.49.41.41,0,0,1-.27.16Zm-.07-2.16,0,0a.07.07,0,0,0,0,.1h0a1.28,1.28,0,0,1,.23.39,1.28,1.28,0,0,1-.17,1.2.07.07,0,0,0,0,.1h.05a.07.07,0,0,0,0,0,1.43,1.43,0,0,0,.2-.4,1.41,1.41,0,0,0,0-.93,1.42,1.42,0,0,0-.26-.43Z"/><path class="b" d="M27.89,17.15l-.33.33a.24.24,0,0,1-.34,0l-.36-.36a.74.74,0,0,1,0-1l0,0a.71.71,0,0,1,1,0,.77.77,0,0,1,0,1.08Zm-.5-.19.16-.16a.28.28,0,0,0,0-.39h0a.22.22,0,0,0-.3,0l0,0a.25.25,0,0,0,0,.35l.19.19Z"/><path class="b" d="M27.39,17.72a.41.41,0,0,1-.29-.12l-.36-.36a.91.91,0,0,1,0-1.26.88.88,0,0,1,1.26,0,.94.94,0,0,1,0,1.32l-.33.33A.41.41,0,0,1,27.39,17.72Zm0-1.69a.53.53,0,0,0-.38.16.58.58,0,0,0-.19.42A.56.56,0,0,0,27,17l.36.36a.06.06,0,0,0,.1,0l.33-.33a.6.6,0,0,0,0-.84A.53.53,0,0,0,27.39,16Zm0,1.17-.31-.31a.42.42,0,0,1,0-.59.39.39,0,0,1,.56,0,.47.47,0,0,1,.15.34.45.45,0,0,1-.13.32Zm0-.69h0s0,.06,0,.08a.08.08,0,0,0,0,.05l.06.06,0,0a.11.11,0,0,0,0-.08.11.11,0,0,0,0-.08Z"/><path class="b" d="M31.13,15.14l-.32.32a.24.24,0,0,1-.34,0l-.36-.36a.74.74,0,0,1,0-1l0,0a.7.7,0,0,1,1,0l0,0a.77.77,0,0,1,0,1.08Zm-.48-.2.16-.16a.28.28,0,0,0,0-.39h0a.22.22,0,0,0-.16-.06.22.22,0,0,0-.15.06l0,0a.25.25,0,0,0,0,.35l.19.19Z"/><path class="b" d="M30.64,15.69a.41.41,0,0,1-.29-.12L30,15.21a.91.91,0,0,1,0-1.26l0,0a.9.9,0,0,1,1.2,0l0,0a.94.94,0,0,1,0,1.32l-.33.33A.41.41,0,0,1,30.64,15.69Zm0-1.69a.53.53,0,0,0-.37.15l0,0a.57.57,0,0,0,0,.79l.36.36a.07.07,0,0,0,.1,0L31,15a.6.6,0,0,0,0-.83A.55.55,0,0,0,30.64,14Zm0,1.17-.31-.31a.43.43,0,0,1-.11-.29.42.42,0,0,1,.12-.3l0,0a.4.4,0,0,1,.55,0,.45.45,0,0,1,0,.64Zm0-.69h0l0,0a.08.08,0,0,0,0,.06.08.08,0,0,0,0,.06l.06.06,0,0a.11.11,0,0,0,0-.16Z"/><path class="b" d="M34.39,17.15l-.33.33a.24.24,0,0,1-.34,0l-.36-.36a.74.74,0,0,1,0-1l0,0a.71.71,0,0,1,1,0l0,0a.76.76,0,0,1,0,1.06Zm-.5-.19.16-.16a.28.28,0,0,0,.08-.2.28.28,0,0,0-.07-.19l0,0a.22.22,0,0,0-.3,0l0,0a.25.25,0,0,0,0,.35l.19.19Z"/><path class="b" d="M33.89,17.72a.41.41,0,0,1-.29-.12l-.36-.36a.91.91,0,0,1,0-1.26.88.88,0,0,1,1.26,0,1,1,0,0,1,.27.66.93.93,0,0,1-.24.62h0l-.36.36A.41.41,0,0,1,33.89,17.72Zm0-1.69a.53.53,0,0,0-.38.16.58.58,0,0,0-.19.42.56.56,0,0,0,.15.39l.36.36a.06.06,0,0,0,.1,0l.33-.33a.59.59,0,0,0,0-.83A.54.54,0,0,0,33.89,16Zm0,1.17-.31-.31a.42.42,0,0,1,0-.59.39.39,0,0,1,.56,0l0,0a.46.46,0,0,1,.12.31.44.44,0,0,1-.13.32Zm0-.69h0s0,.06,0,.08a.08.08,0,0,0,0,.05l.06.06,0,0a.11.11,0,0,0,0-.08.11.11,0,0,0,0-.08Z"/><path class="b" d="M21.38,17.15l-.33.33a.24.24,0,0,1-.34,0l-.35-.35a.74.74,0,0,1,0-1l0,0a.71.71,0,0,1,1,0,.77.77,0,0,1,0,1.08Zm-.5-.19L21,16.8a.28.28,0,0,0,0-.4.22.22,0,0,0-.31,0l0,0a.25.25,0,0,0,0,.36l.18.18Z"/><path class="b" d="M20.88,17.72a.41.41,0,0,1-.29-.12l-.35-.35a.91.91,0,0,1,0-1.28.88.88,0,0,1,1.26,0,.94.94,0,0,1,0,1.32l-.33.33A.41.41,0,0,1,20.88,17.72Zm0-1.69a.53.53,0,0,0-.38.16.58.58,0,0,0-.19.42.56.56,0,0,0,.17.4l.35.35a.06.06,0,0,0,.1,0l.33-.33a.6.6,0,0,0,0-.84A.53.53,0,0,0,20.88,16Zm0,1.17-.3-.3a.42.42,0,0,1-.12-.3.42.42,0,0,1,.12-.3.39.39,0,0,1,.57,0,.45.45,0,0,1,0,.64Zm0-.69h0s0,.07,0,.08a.08.08,0,0,0,0,.06l.06.06,0,0a.11.11,0,0,0,0-.16Z"/><path class="b" d="M24.63,15.12l-.33.33a.24.24,0,0,1-.34,0l-.36-.36a.74.74,0,0,1,0-1l0,0a.71.71,0,0,1,1,0,.77.77,0,0,1,0,1.08Zm-.5-.19.16-.16a.28.28,0,0,0,0-.39h0a.22.22,0,0,0-.3,0l0,0a.25.25,0,0,0,0,.35l.19.19Z"/><path class="b" d="M24.14,15.69a.41.41,0,0,1-.29-.12l-.36-.37a.91.91,0,0,1,0-1.26.88.88,0,0,1,1.26,0,.93.93,0,0,1,0,1.32l-.33.33A.41.41,0,0,1,24.14,15.69Zm0-1.69a.53.53,0,0,0-.38.16.58.58,0,0,0-.19.42.56.56,0,0,0,.15.39l.36.36a.07.07,0,0,0,.1,0l.33-.33a.59.59,0,0,0,0-.84A.53.53,0,0,0,24.14,14Zm0,1.17-.31-.31a.43.43,0,0,1-.11-.29.42.42,0,0,1,.12-.3.39.39,0,0,1,.56,0,.47.47,0,0,1,.15.34.45.45,0,0,1-.13.32Zm0-.69h0s0,.07,0,.08a.08.08,0,0,0,0,.06l.06.06,0,0a.11.11,0,0,0,0-.16Z"/></svg>