<svg xmlns="http://www.w3.org/2000/svg" viewBox="0 0 27 27"><title>Coke</title><polygon points="18.46 23.43 6.72 23.43 6.72 14.96 7.33 14.96 7.33 22.82 18.2 22.82 22.89 18.04 22.89 4.17 7.33 4.17 7.33 7.85 6.72 7.85 6.72 3.57 23.5 3.57 23.5 18.29 18.46 23.43"/><path d="M17.68,15.17H3.5V7.66H17.68ZM4.11,14.56h13V8.27h-13Z"/><polygon points="18.64 23.13 18.03 23.13 18.03 17.86 23.2 17.86 23.2 18.47 18.64 18.47 18.64 23.13"/><path d="M6.87,13.06V9.76h.55a1.21,1.21,0,0,1,.8.22.83.83,0,0,1,.26.67.83.83,0,0,1-.26.67,1.22,1.22,0,0,1-.8.22H7.21v1.51Zm.34-1.79h.29a.74.74,0,0,0,.5-.15.57.57,0,0,0,.17-.45A.58.58,0,0,0,8,10.22a.73.73,0,0,0-.5-.15H7.21Z"/><path d="M9.82,13.06V9.76h.61a.93.93,0,0,1,.83.39,2.32,2.32,0,0,1,.26,1.25,2.35,2.35,0,0,1-.26,1.26.93.93,0,0,1-.83.39Zm.34-3v2.69h.18a.71.71,0,0,0,.66-.3,2.15,2.15,0,0,0,.19-1.07A2.12,2.12,0,0,0,11,10.34a.71.71,0,0,0-.65-.3h-.19Z"/><path d="M12.93,13.06V9.76h1.38v.31h-1V11.2h.8v.3h-.8v1.55Z"/></svg>