<svg xmlns="http://www.w3.org/2000/svg" viewBox="0 0 56.63 76.73" preserveAspectRatio="xMidYMax"><defs><style>.a{fill:#45a5da;}.b{fill:#f6d056;}.c{fill:#fff;}.d{fill:#f15f2e;}.e{fill:#18252f;}</style></defs><title>Dine</title><rect class="a" x="42.22" y="56.73" width="3.08" height="5.5"/><path class="a" d="M46.72,70.21v5.63h-6V70.21a3,3,0,0,1,6,0Z"/><path class="a" d="M31,25.55v5H25.64v-5a2.67,2.67,0,0,1,5.34,0Z"/><rect class="a" x="26.78" y="41.86" width="3.08" height="5.5"/><rect class="a" x="26.78" y="53.18" width="3.08" height="5.5"/><rect class="a" x="11.33" y="56.73" width="3.08" height="5.5"/><path class="a" d="M15.95,70.21v5.63h-6V70.21a3,3,0,0,1,6,0Z"/><path class="a" d="M31.33,67.23v8.61h-6V67.23a3,3,0,0,1,6,0Z"/><path class="b" d="M34.51,19.07V30.53H31v-5a2.67,2.67,0,0,0-5.34,0v5H22.12V19.07Z"/><path class="c" d="M36.44,43.66V75.83H31.33V67.23a3,3,0,0,0-6,0v8.61H20.2V30.53H36.44Zm-6.59,15v-5.5H26.78v5.5Zm0-11.33v-5.5H26.78v5.5Z"/><path class="b" d="M51,54.54V75.83H46.72V70.21a3,3,0,0,0-6,0v5.63H36.44V43.66ZM45.3,62.23v-5.5H42.22v5.5Z"/><path class="b" d="M20.2,43.66V75.83H15.95V70.21a3,3,0,0,0-6,0v5.63H5.66V54.54ZM14.41,62.23v-5.5H11.33v5.5Z"/><polygon class="d" points="31.41 13.48 34.51 19.07 22.12 19.07 25.21 13.49 28.31 0.89 31.41 13.48"/><path class="e" d="M6.56,75.83H4.77V54.54a.89.89,0,0,1,.36-.72L19.66,42.95l1.07,1.43L6.56,55Z"/><path class="e" d="M51.86,75.83H50.07V55L35.9,44.38,37,42.95,51.5,53.83a.89.89,0,0,1,.36.72Z"/><path class="e" d="M31.88,30.53H30.09v-5a1.78,1.78,0,0,0-3.55,0v5H24.75v-5a3.56,3.56,0,0,1,7.13,0Z"/><path class="e" d="M16.84,75.83H15.05V70.21a2.12,2.12,0,0,0-4.24,0v5.63H9V70.21a3.91,3.91,0,0,1,7.82,0Z"/><path class="e" d="M32.22,75.83H30.44V67.23a2.12,2.12,0,0,0-4.24,0v8.61H24.4V67.23a3.91,3.91,0,0,1,7.82,0Z"/><path class="e" d="M47.62,75.83H45.83V70.21a2.13,2.13,0,0,0-4.25,0v5.63H39.79V70.21a3.91,3.91,0,0,1,7.83,0Z"/><path class="e" d="M37.33,75.83H35.54V31.43h-1V29.64h1.93a.89.89,0,0,1,.89.89Z"/><path class="e" d="M21.09,75.83H19.3V30.53a.89.89,0,0,1,.89-.89h1.93v1.79h-1Z"/><path class="e" d="M34.51,31.43H22.12a.89.89,0,0,1-.89-.89V19.07H23V29.64h10.6V19.07H35.4V30.53A.89.89,0,0,1,34.51,31.43Z"/><path class="e" d="M22.9,19.51l-1.56-.87,3-5.48L27.45.68a.89.89,0,0,1,1.74,0l3.07,12.47,3,5.49-1.56.87-3.09-5.59a.87.87,0,0,1-.09-.22L28.31,4.63,26.08,13.7a.9.9,0,0,1-.09.22Z"/><path class="e" d="M14.41,63.12H11.33a.89.89,0,0,1-.89-.89v-5.5a.89.89,0,0,1,.89-.89h3.08a.89.89,0,0,1,.89.89v5.5A.89.89,0,0,1,14.41,63.12Zm-2.19-1.79h1.29V57.62H12.22Z"/><path class="e" d="M45.3,63.12H42.22a.89.89,0,0,1-.89-.89v-5.5a.89.89,0,0,1,.89-.89H45.3a.89.89,0,0,1,.89.89v5.5A.89.89,0,0,1,45.3,63.12Zm-2.19-1.79h1.29V57.62H43.11Z"/><path class="e" d="M29.85,59.57H26.78a.89.89,0,0,1-.89-.89v-5.5a.89.89,0,0,1,.89-.89h3.08a.89.89,0,0,1,.89.89v5.5A.89.89,0,0,1,29.85,59.57Zm-2.18-1.79H29V54.08H27.67Z"/><path class="e" d="M29.85,48.25H26.78a.89.89,0,0,1-.89-.89v-5.5a.89.89,0,0,1,.89-.89h3.08a.89.89,0,0,1,.89.89v5.5A.89.89,0,0,1,29.85,48.25Zm-2.18-1.79H29V42.75H27.67Z"/><rect class="e" x="25.04" y="34.38" width="1.79" height="3.48"/><rect class="e" x="29.8" y="34.38" width="1.79" height="3.48"/><rect class="e" x="19.67" y="18.18" width="17.29" height="1.79"/><rect class="e" y="74.94" width="56.63" height="1.79"/></svg>