<svg xmlns="http://www.w3.org/2000/svg" viewBox="0 0 71.18 62.52" preserveAspectRatio="xMidYMax"><defs><style>.a{fill:#f6d056;}.b{fill:#414042;}.c{fill:#fff;}.d{fill:#f15f2e;}.e{fill:#45a5da;}.f{fill:#8dc63f;}.g{fill:#383838;}</style></defs><title>Dine</title><rect class="a" x="14.9" y="18.12" width="41.55" height="43.37"/><path class="b" d="M56.61,61.65H14.74V18H56.61Zm-41.55-.32H56.29V18.28H15.06Z"/><rect class="c" x="14.9" y="42.77" width="20.82" height="18.73"/><path class="b" d="M35.88,61.65H14.74v-19H35.88Zm-20.82-.32h20.5V42.92H15.06Z"/><path class="a" d="M29.79,61.85H20.25s-1.08-9.27,1.15-11.51c1.69-1.69,5.28-1.51,7,.17C30.59,52.75,29.79,61.85,29.79,61.85Z"/><path class="b" d="M29.94,62H20.11l0-.14c0-.38-1.07-9.38,1.19-11.64,1.7-1.7,5.4-1.61,7.19.17C30.73,52.67,30,61.49,30,61.87Zm-9.55-.32h9.26c.09-1.17.6-9.06-1.4-11.06-1.68-1.68-5.15-1.77-6.74-.17C19.5,52.46,20.27,60.53,20.39,61.69Z"/><rect class="c" x="21.19" y="26.4" width="7.98" height="5.47"/><path class="b" d="M29.33,32H21V26.24h8.29Zm-8-.32H29V26.56H21.35Z"/><rect class="c" x="42.06" y="26.4" width="7.98" height="5.47"/><path class="b" d="M50.2,32H41.91V26.24H50.2Zm-8-.32h7.66V26.56H42.22Z"/><rect class="c" x="42.06" y="47.83" width="7.98" height="5.47"/><path class="b" d="M50.2,53.46H41.91V47.67H50.2Zm-8-.32h7.66V48H42.22Z"/><rect class="d" x="17.84" y="5.06" width="4.88" height="6.99"/><path class="b" d="M22.89,12.22h-5.2V4.91h5.2ZM18,11.9h4.57V5.22H18Z"/><rect class="e" x="21.06" y="22.89" width="8.11" height="2.95"/><path class="b" d="M29.33,26H20.9V22.73h8.43Zm-8.11-.32H29V23.05h-7.8Z"/><rect class="e" x="42.15" y="22.89" width="8.11" height="5.13"/><path class="b" d="M50.42,28.18H42V22.73h8.43Zm-8.11-.32h7.8V23.05h-7.8Z"/><rect class="e" x="42.15" y="44.1" width="8.11" height="5.13"/><path class="b" d="M50.42,49.38H42V43.94h8.43Zm-8.11-.32h7.8V44.26h-7.8Z"/><path class="f" d="M15,41.26c.33-1-.48-2.87-.4-4,.4-6.5-1.93-9.2-6.21-9.2S.71,31,.71,36.16a8.65,8.65,0,0,0,1,3.64A13.77,13.77,0,0,0,.64,44.38,5.93,5.93,0,0,0,6.8,50.05a6.65,6.65,0,0,0,1.8-.25,6.4,6.4,0,0,0,4.52,1.82c3.4,0,1.47-2.54,1.47-5.67C14.59,43.65,15,42.89,15,41.26Z"/><path class="b" d="M13.12,51.79A6.61,6.61,0,0,1,8.55,50a6.81,6.81,0,0,1-1.75.23A6.1,6.1,0,0,1,.48,44.38a14.16,14.16,0,0,1,1.1-4.59l-.25-.58a7,7,0,0,1-.78-3.05c0-5,3.15-8.3,7.83-8.3a6,6,0,0,1,4.55,1.7c1.43,1.52,2,4.1,1.81,7.67A7.25,7.25,0,0,0,15,39a5.25,5.25,0,0,1,.17,2.32,10.19,10.19,0,0,1-.17,2A15.49,15.49,0,0,0,14.75,46a13.28,13.28,0,0,0,.32,2.55c.23,1.17.41,2.09-.08,2.69A2.3,2.3,0,0,1,13.12,51.79ZM8.64,49.63l.07.07a6.28,6.28,0,0,0,4.41,1.78A2.06,2.06,0,0,0,14.74,51c.39-.48.23-1.34,0-2.42A13.55,13.55,0,0,1,14.43,46a15.79,15.79,0,0,1,.24-2.72,9.69,9.69,0,0,0,.17-2v-.05A5,5,0,0,0,14.67,39a7.44,7.44,0,0,1-.24-1.83c.22-3.48-.37-6-1.73-7.43a5.67,5.67,0,0,0-4.32-1.6c-4.5,0-7.52,3.21-7.52,8a6.74,6.74,0,0,0,.75,2.93l.28.66,0,.07,0,.07a13.59,13.59,0,0,0-1.09,4.5,5.78,5.78,0,0,0,6,5.51,6.49,6.49,0,0,0,1.75-.24Z"/><path class="f" d="M70.51,46a5.87,5.87,0,0,0-4-5.56,5.87,5.87,0,0,0-5.15-3c-3.24,0-4.47,1.83-4.47,5.07,0,1-.43,2.71,0,3.53a5,5,0,0,0-.47,2.54c0,2.81,1.34,5.09,4.15,5.09a5.12,5.12,0,0,0,.66,0,5.08,5.08,0,0,0,8.46-3.8,5.12,5.12,0,0,0-.05-.73A5.84,5.84,0,0,0,70.51,46Z"/><path class="b" d="M64.63,55A5.24,5.24,0,0,1,61.2,53.7a5.19,5.19,0,0,1-.61,0c-2.66,0-4.31-2-4.31-5.24A5.27,5.27,0,0,1,56.73,46a5.38,5.38,0,0,1-.07-2.44,10.66,10.66,0,0,0,.09-1.08c0-3.57,1.47-5.23,4.63-5.23a6,6,0,0,1,5.26,3.08A6,6,0,0,1,69.82,49a5.3,5.3,0,0,1,0,.7A5.25,5.25,0,0,1,64.63,55ZM61.3,53.37l.05,0a4.93,4.93,0,0,0,8.2-3.68A5,5,0,0,0,69.5,49V49l0,0a5.71,5.71,0,0,0-3-8.37l-.06,0,0-.05a5.72,5.72,0,0,0-5-3c-3,0-4.31,1.52-4.31,4.92A10.87,10.87,0,0,1,57,43.54a4.85,4.85,0,0,0,.07,2.34l0,.08L57,46a4.86,4.86,0,0,0-.44,2.46c0,2.38,1,4.93,4,4.93a5,5,0,0,0,.64,0Z"/><rect class="d" x="13.12" y="14.52" width="44.79" height="3.18"/><path class="b" d="M58.06,17.86H13V14.36h45.1Zm-44.79-.32H57.74V14.68H13.27Z"/><polygon class="d" points="25.11 34.91 13.05 42.08 37.17 42.08 25.11 34.91"/><path class="b" d="M37.75,42.24H12.48l12.64-7.52Zm-24.12-.32h23L25.11,35.09Z"/><path class="b" d="M63.27,55.06a4.92,4.92,0,0,0,6.43-6l-.05-.18.12-.14A5.28,5.28,0,0,0,67,40.23l-.16,0L66.78,40a6,6,0,0,0-9-2.34l-.54.39V18.55h1.15a.47.47,0,0,0,.47-.47v-.2c0-2.49,0-3.09,0-3.22a.48.48,0,0,0-.18-.23l0,0L35.91.23a.48.48,0,0,0-.5,0L23.15,7.89V5.09a.47.47,0,0,0-.47-.47H17.81a.47.47,0,0,0-.47.47v6.43l-.16.1-2,1.24c-2.7,1.67-2.7,1.7-2.71,1.95,0,0,0,.53,0,3.13v.13a.47.47,0,0,0,.47.47h1.15V30.42l-.58-.6A7.72,7.72,0,0,0,.75,32.4a7.69,7.69,0,0,0,.85,7.2l.15.21-.16.2a6.17,6.17,0,0,0-.37,7.4A6.15,6.15,0,0,0,8.13,50L8.32,50l.14.13a6.24,6.24,0,0,0,.71.57l.14.1V61.41H3.21a.47.47,0,0,0,0,.95h64.9a.47.47,0,0,0,0-.95H62.82V54.89ZM14.09,61.41H10.26V51.3l.45.16a6,6,0,0,0,3,.27l.39-.06Zm0-20.27-1.4.87a.48.48,0,0,0,.25.88h1.15v7.81l-.27.06a5.26,5.26,0,0,1-1.06.11,5.35,5.35,0,0,1-2.32-.53l-.19-.09V38a.45.45,0,0,0-.47-.47.44.44,0,0,0-.47.47v7.62l-.35,0a2.57,2.57,0,0,1-2.23-1.5A2.62,2.62,0,0,1,7,41.37a.47.47,0,0,0-.09-.66c-.08-.06-.3-.23-.64.08A3.54,3.54,0,0,0,9,46.51h.33v3l-.55-.47A.46.46,0,0,0,8.28,49a5.24,5.24,0,0,1-4.35-.3,5.32,5.32,0,0,1-1.22-8.5.48.48,0,0,0,0-.64,6.79,6.79,0,0,1,3.72-11,6.81,6.81,0,0,1,7.59,3.68l0,.07ZM18.29,5.57h3.92V8.48l-3.92,2.45Zm17.37-4L55.55,14H15.77ZM13.76,17.26V15.64H57.56v1.62ZM29.51,61.41H20.72V53.77a4.39,4.39,0,0,1,8.79,0Zm5.68,0H30.46V53.77a5.34,5.34,0,0,0-10.68,0v7.64H15V42.89H35.19ZM14.6,41.94l10.52-6.57,10.52,6.57ZM56.28,61.41H36.13V42.89h.61c.71,0,.9,0,1-.35a.48.48,0,0,0-.21-.53L25.37,34.4a.48.48,0,0,0-.5,0L15,40.54v-22H56.28Zm5.59,0H57.23V53.25l.5.29a4.92,4.92,0,0,0,3.65.49l.18,0,.15.14,0,0,.12.1Zm.47-17.48a.44.44,0,0,0-.47.47v8.52L61.6,53l-.16,0a3.89,3.89,0,0,1-4-.9l-.1-.1V46.54l.09-.1a.5.5,0,0,0,0-.69l-.07-.09V39.47l.07-.09a5.07,5.07,0,0,1,8.69,1.41.47.47,0,0,0,.37.3,4.33,4.33,0,0,1,2.34,7.37.47.47,0,0,0-.11.52A4,4,0,0,1,65,54.43a4,4,0,0,1-2-.55l-.17-.1v-3l.31,0a3.13,3.13,0,0,0,2.42-1.49,3.07,3.07,0,0,0-.24-3.51c-.33-.3-.54-.13-.63-.07a.47.47,0,0,0-.09.66,2.17,2.17,0,0,1,.29,2.13,2.14,2.14,0,0,1-1.67,1.32l-.39.06V44.4A.45.45,0,0,0,62.34,43.93Z"/><path class="b" d="M68.11,62.52H3.21a.63.63,0,0,1,0-1.27H9.15V50.85l-.08-.05a6.48,6.48,0,0,1-.73-.58l-.07-.07-.1,0a6.31,6.31,0,0,1-7.09-2.68,6.32,6.32,0,0,1,.38-7.59l.09-.1-.08-.11A7.9,7.9,0,0,1,6.23,27.49a7.93,7.93,0,0,1,7.4,2.22l.31.32V18.71h-1a.63.63,0,0,1-.63-.63v-.13c0-2.82,0-3.1,0-3.13,0-.35,0-.36,2.78-2.08l2-1.24.08-.05V5.09a.63.63,0,0,1,.63-.63h4.87a.63.63,0,0,1,.63.63V7.6L35.32.1a.64.64,0,0,1,.67,0L58.72,14.3a.64.64,0,0,1,.24.3v0c0,.28,0,1.92,0,3.24v.2a.63.63,0,0,1-.63.63h-1V37.79l.28-.21A6.18,6.18,0,0,1,66.93,40l0,.08.08,0a5.44,5.44,0,0,1,2.84,8.79l-.06.07,0,.09a5.07,5.07,0,0,1-6.64,6.17L63,55.12v6.13h5.14a.63.63,0,1,1,0,1.27Zm-64.9-.95a.32.32,0,1,0,0,.63h64.9a.32.32,0,1,0,0-.63H62.66v-6.9l.67.25a4.76,4.76,0,0,0,6.22-5.78l-.08-.26.17-.21A5.12,5.12,0,0,0,67,40.39l-.23-.06-.1-.22a5.86,5.86,0,0,0-8.78-2.28l-.79.58v-20h1.31a.32.32,0,0,0,.32-.32v-.2c0-2.47,0-3,0-3.17a.32.32,0,0,0-.12-.14l0,0L35.83.36a.32.32,0,0,0-.34,0L23,8.17V5.09a.32.32,0,0,0-.32-.32H17.81a.32.32,0,0,0-.32.32v6.52l-.23.15-2,1.24c-2.48,1.54-2.63,1.65-2.63,1.82s0,.31,0,3.12v.13a.32.32,0,0,0,.32.32h1.31V30.82l-.85-.88A7.56,7.56,0,0,0,.9,32.45a7.53,7.53,0,0,0,.83,7.05l.21.31-.24.29a6,6,0,0,0-.36,7.22,6,6,0,0,0,6.74,2.55l.27-.08.2.19a6.14,6.14,0,0,0,.69.55l.21.15V61.57Zm58.82,0h-5V53l.74.42a4.76,4.76,0,0,0,3.53.48l.26-.07.22.19,0,0,.17.15Zm-4.64-.32h4.32V54.33l-.2-.17-.09,0a5.07,5.07,0,0,1-3.77-.51l-.27-.15Zm-.95.32H36V42.73h.77c.73,0,.78,0,.84-.23a.32.32,0,0,0-.14-.36L25.28,34.54a.32.32,0,0,0-.34,0L14.88,40.83V18.39H56.44Zm-20.14-.32H56.12V18.71H15.2V40.26l9.58-6a.64.64,0,0,1,.67,0l12.17,7.61a.64.64,0,0,1,.27.71c-.13.46-.48.47-1.15.46h-.45Zm-.95.32h-5v-7.8a5.18,5.18,0,0,0-10.37,0v7.8h-5V42.73H35.34Zm-4.73-.32H35V43H15.2V61.25h4.41V53.77a5.5,5.5,0,0,1,11,0Zm-.95.32h-9.1v-7.8a4.55,4.55,0,0,1,9.1,0Zm-8.79-.32h8.47V53.77a4.23,4.23,0,0,0-8.47,0Zm-6.63.32H10.1V51.08l.66.23a5.85,5.85,0,0,0,2.93.27l.57-.09Zm-3.84-.32h3.52v-9.4l-.21,0a6.17,6.17,0,0,1-3.08-.28l-.24-.08ZM65,54.59A4.14,4.14,0,0,1,62.9,54l-.24-.14V50.68l.45,0a3,3,0,0,0,2.3-1.42,2.9,2.9,0,0,0-.21-3.31c-.23-.21-.35-.12-.42-.06a.32.32,0,0,0-.06.44A2.32,2.32,0,0,1,65,48.58,2.3,2.3,0,0,1,63.23,50l-.57.09V44.4a.32.32,0,0,0-.63,0V53l-.4.08-.13,0a4,4,0,0,1-4.21-.94l-.15-.15v-5.6l.14-.14c.05-.05.19-.19,0-.49l-.1-.13v-6.3l.11-.14a5.23,5.23,0,0,1,9,1.45.31.31,0,0,0,.24.2,4.49,4.49,0,0,1,2.42,7.64.32.32,0,0,0-.07.34,4.07,4.07,0,0,1-1.12,4.66A4.12,4.12,0,0,1,65,54.59Zm-2-.9.09.05a3.76,3.76,0,0,0,4.41-.41,3.75,3.75,0,0,0,1-4.3.63.63,0,0,1,.14-.69,4.17,4.17,0,0,0-2.25-7.11.63.63,0,0,1-.49-.4,4.92,4.92,0,0,0-8.42-1.36l0,0V45.6l0,0a.65.65,0,0,1,0,.9l0,.05v5.34l.05.05a3.74,3.74,0,0,0,3.89.86l.17,0,.14,0V44.4a.63.63,0,0,1,1.27,0v5.31l.21,0a2,2,0,0,0,1.55-1.22,2,2,0,0,0-.26-2,.63.63,0,0,1,.12-.89.59.59,0,0,1,.83.08,3.24,3.24,0,0,1,.27,3.71A3.29,3.29,0,0,1,63.14,51H63ZM12.76,51a5.52,5.52,0,0,1-2.39-.54l-.28-.13V38a.32.32,0,0,0-.63,0v7.79l-.52,0a2.73,2.73,0,0,1-2.37-1.59,2.78,2.78,0,0,1,.31-2.86.32.32,0,0,0-.06-.44c-.07-.06-.2-.15-.44.07A3.39,3.39,0,0,0,9,46.35l.48,0v3.49l-.81-.68a.3.3,0,0,0-.31-.06,5.4,5.4,0,0,1-4.48-.31A5.48,5.48,0,0,1,2.6,40.06a.32.32,0,0,0,0-.43A6.94,6.94,0,0,1,6.43,28.42a7,7,0,0,1,7.77,3.77l0,.14v8.9l-1.47.92a.32.32,0,0,0,.17.58h1.31v8.09l-.4.08A5.4,5.4,0,0,1,12.76,51Zm-2.35-.88.1,0a5.24,5.24,0,0,0,3.28.41l.14,0V43h-1a.63.63,0,0,1-.34-1.17L13.93,41V32.36l0,0a6.65,6.65,0,0,0-7.41-3.6,6.63,6.63,0,0,0-3.64,10.7.64.64,0,0,1,0,.86A5.16,5.16,0,0,0,4,48.53a5.09,5.09,0,0,0,4.21.29.62.62,0,0,1,.63.11l.29.25v-2.5H9a3.7,3.7,0,0,1-2.8-6A.6.6,0,0,1,7,40.58a.63.63,0,0,1,.12.89A2.47,2.47,0,0,0,6.86,44,2.41,2.41,0,0,0,9,45.4h.19V38a.63.63,0,0,1,1.27,0Zm25.77-8H14l11.07-6.92.08.05Zm-21-.32H35.08l-10-6.23ZM57.72,17.42H13.6V15.48H57.72ZM13.91,17.1H57.41V15.8H13.91ZM56.1,14.18H15.22L35.66,1.4l.08.05Zm-39.77-.32H55L35.66,1.78Zm1.8-2.64V5.41h4.24V8.57Zm.32-5.49v4.92L22,8.39V5.73Z"/><path class="g" d="M51.89,52.48H50.74V44a.47.47,0,0,0-.47-.47H42.15a.47.47,0,0,0-.47.47v8.45H40.53a.47.47,0,0,0,0,.95H51.89a.45.45,0,0,0,.47-.47A.44.44,0,0,0,51.89,52.48Zm-2.1,0H42.63V49.38h7.16Zm0-4.06H42.63V44.51h7.16Z"/><path class="b" d="M51.89,53.59H40.53a.63.63,0,0,1,0-1.27h1V44a.63.63,0,0,1,.63-.63h8.11a.63.63,0,0,1,.63.63v8.29h1a.63.63,0,0,1,0,1.27Zm-11.36-.95a.32.32,0,0,0,0,.63H51.89a.32.32,0,0,0,0-.63H50.58V44a.32.32,0,0,0-.32-.32H42.15a.32.32,0,0,0-.32.32v8.61Zm9.42,0H42.47V49.22h7.48Zm-7.16-.32h6.85V49.54H42.78Zm7.16-3.74H42.47V44.35h7.48Zm-7.16-.32h6.85v-3.6H42.78Z"/><path class="g" d="M30.79,31.39H29.64V22.94a.47.47,0,0,0-.47-.47H21.06a.47.47,0,0,0-.47.47v8.45H19.44a.47.47,0,0,0,0,.95H30.79a.47.47,0,0,0,0-.95Zm-2.1,0H21.53V26.66H28.7Zm0-5.68H21.53v-2.3H28.7Z"/><path class="b" d="M30.79,32.5H19.44a.63.63,0,1,1,0-1.27h1V22.94a.63.63,0,0,1,.63-.63h8.11a.63.63,0,0,1,.63.63v8.29h1a.63.63,0,1,1,0,1.27Zm-11.36-.95a.32.32,0,1,0,0,.63H30.79a.32.32,0,0,0,0-.63H29.49V22.94a.32.32,0,0,0-.32-.32H21.06a.32.32,0,0,0-.32.32v8.61Zm9.42,0H21.37v-5h7.48Zm-7.16-.32h6.85V26.82H21.69Zm7.16-5.36H21.37V23.26h7.48Zm-7.16-.32h6.85v-2H21.69Z"/><path class="g" d="M51.89,31.39H50.74V22.94a.47.47,0,0,0-.47-.47H42.15a.47.47,0,0,0-.47.47v8.45H40.53a.47.47,0,0,0,0,.95H51.89a.45.45,0,0,0,.47-.47A.44.44,0,0,0,51.89,31.39Zm-2.1,0H42.63V28.28h7.16Zm0-4.06H42.63V23.42h7.16Z"/><path class="b" d="M51.89,32.5H40.53a.63.63,0,0,1,0-1.27h1V22.94a.63.63,0,0,1,.63-.63h8.11a.63.63,0,0,1,.63.63v8.29h1a.63.63,0,0,1,0,1.27Zm-11.36-.95a.32.32,0,0,0,0,.63H51.89a.32.32,0,0,0,0-.63H50.58V22.94a.32.32,0,0,0-.32-.32H42.15a.32.32,0,0,0-.32.32v8.61Zm9.42,0H42.47V28.13h7.48Zm-7.16-.32h6.85V28.44H42.78Zm7.16-3.74H42.47V23.26h7.48Zm-7.16-.32h6.85v-3.6H42.78Z"/><polygon class="c" points="35.72 1.59 14.99 14.52 56.45 14.52 35.72 1.59"/><path class="b" d="M57,14.68H14.44L35.72,1.4Zm-41.45-.32H55.89L35.72,1.78Z"/><circle class="e" cx="35.68" cy="9.07" r="2.4"/><path class="b" d="M35.68,11.62a2.56,2.56,0,1,1,2.56-2.56A2.56,2.56,0,0,1,35.68,11.62Zm0-4.79a2.24,2.24,0,1,0,2.24,2.24A2.24,2.24,0,0,0,35.68,6.83Z"/><path class="g" d="M35.66,6.24a2.91,2.91,0,1,0,2.91,2.91A2.91,2.91,0,0,0,35.66,6.24Zm0,4.87a2,2,0,1,1,2-2A2,2,0,0,1,35.66,11.11Z"/><path class="b" d="M35.66,12.22a3.07,3.07,0,1,1,3.07-3.07A3.07,3.07,0,0,1,35.66,12.22Zm0-5.82a2.75,2.75,0,1,0,2.75,2.75A2.75,2.75,0,0,0,35.66,6.4Zm0,4.87a2.12,2.12,0,1,1,2.12-2.12A2.12,2.12,0,0,1,35.66,11.27Zm0-3.92a1.8,1.8,0,1,0,1.8,1.8A1.8,1.8,0,0,0,35.66,7.35Z"/></svg>