<svg xmlns="http://www.w3.org/2000/svg" viewBox="0 0 93.6 80.46" preserveAspectRatio="xMidYMax"><defs><style>.a{fill:#f15f2e;}.b{fill:#fff;}.c{fill:#45a5da;}.d{fill:#8dc63f;}.e{fill:#414042;}</style></defs><title>Dine</title><polygon class="a" points="53.85 0.84 53.85 6.63 51.64 6.63 20.51 6.63 18.3 6.63 18.3 0.84 53.85 0.84"/><path class="b" d="M51.64,6.63v13H46.86V11.84H38.31v7.84h4.83v5.55H38.31v7.84h4.83V38.6H38.31v7.84h4.83V52H38.31v7.84h4.83v8h-12V79.52H25.72c0-.09.07-.18.1-.27a3.51,3.51,0,0,0,.1-.4,1.43,1.43,0,0,0,0-.26A3.68,3.68,0,0,0,26,78a4,4,0,0,0-3.48-3.95,4.29,4.29,0,0,0-.07-.44c0-.07,0-.14,0-.22s0,0,0-.07a6.77,6.77,0,0,0-.31-1,5,5,0,0,0-.24-.55,6.85,6.85,0,0,0-1.35-1.91V6.63ZM33.85,59.81V52H25.29v7.84Zm0-13.37V38.6H25.29v7.84Zm0-13.38V25.22H25.29v7.84Zm0-13.38V11.84H25.29v7.84Z"/><path class="c" d="M69.91,67.84H54.53V79.52H43.14V19.68H81.28V70.12A6,6,0,0,0,78.46,73a3.76,3.76,0,0,0-.58,0,4.31,4.31,0,0,0-4.31,4.31v.1a4.23,4.23,0,0,0,.62,2.2H69.91Zm5-6.26V56.39H49.53v5.19Zm0-10V46.4H49.53v5.19Zm0-10V36.41H49.53v5.19Zm0-10V26.41H49.53V31.6Z"/><rect class="b" x="38.31" y="51.97" width="4.83" height="7.84"/><path class="d" d="M92.76,78.17a3.37,3.37,0,0,1-.29,1.35H74.24A4.22,4.22,0,0,1,77.88,73a3.77,3.77,0,0,1,.58,0,6,6,0,0,1,2.82-2.83v-.1a5.86,5.86,0,0,1,2.59-.59,6,6,0,0,1,6,5.32A3.35,3.35,0,0,1,92.76,78.17Z"/><rect class="b" x="49.53" y="56.39" width="25.35" height="5.19"/><rect class="b" x="49.53" y="46.4" width="25.35" height="5.19"/><rect class="b" x="49.53" y="36.41" width="25.35" height="5.19"/><rect class="b" x="49.53" y="26.41" width="25.35" height="5.19"/><rect class="d" x="54.53" y="67.84" width="15.38" height="11.68"/><polygon class="b" points="46.86 11.84 46.86 19.68 43.14 19.68 38.31 19.68 38.31 11.84 46.86 11.84"/><rect class="d" x="31.18" y="67.84" width="11.96" height="11.68"/><rect class="b" x="38.31" y="38.6" width="4.83" height="7.84"/><rect class="b" x="38.31" y="25.22" width="4.83" height="7.84"/><rect class="b" x="25.29" y="51.97" width="8.56" height="7.84"/><rect class="b" x="25.29" y="38.6" width="8.56" height="7.84"/><rect class="b" x="25.29" y="25.22" width="8.56" height="7.84"/><rect class="b" x="25.29" y="11.84" width="8.56" height="7.84"/><path class="d" d="M26,78a3.68,3.68,0,0,1,0,.58,1.43,1.43,0,0,1,0,.26,2.37,2.37,0,0,1-.1.4c0,.09-.06.18-.1.27l0,.11H4a5.11,5.11,0,0,1,4.32-7.87,5.47,5.47,0,0,1,.7.05,7.12,7.12,0,0,1,11.5-2h0a7.24,7.24,0,0,1,1.35,1.91c.09.18.17.36.24.55a6.77,6.77,0,0,1,.31,1s0,0,0,.07,0,.14,0,.22a4.29,4.29,0,0,1,.07.44A4,4,0,0,1,26,78Z"/><ellipse class="d" cx="9.06" cy="51.69" rx="8.23" ry="10.38"/><path class="e" d="M25.29,60.65h8.56a.84.84,0,0,0,.84-.84V52a.84.84,0,0,0-.84-.84H25.29a.84.84,0,0,0-.84.84v7.84A.84.84,0,0,0,25.29,60.65Zm.84-7.84H33V59H26.13Z"/><path class="e" d="M25.29,47.27h8.56a.84.84,0,0,0,.84-.84V38.6a.84.84,0,0,0-.84-.84H25.29a.84.84,0,0,0-.84.84v7.84A.84.84,0,0,0,25.29,47.27Zm.84-7.84H33V45.6H26.13Z"/><path class="e" d="M25.29,33.9h8.56a.84.84,0,0,0,.84-.84V25.22a.84.84,0,0,0-.84-.84H25.29a.84.84,0,0,0-.84.84v7.84A.84.84,0,0,0,25.29,33.9Zm.84-7.84H33v6.16H26.13Z"/><path class="e" d="M25.29,20.52h8.56a.84.84,0,0,0,.84-.84V11.84a.84.84,0,0,0-.84-.84H25.29a.84.84,0,0,0-.84.84v7.84A.84.84,0,0,0,25.29,20.52Zm.84-7.84H33v6.16H26.13Z"/><path class="e" d="M46.86,11H38.31a.84.84,0,0,0-.84.84v7.84a.84.84,0,0,0,.84.84h5.23v-.84a1.4,1.4,0,0,1,.28-.84H39.14V12.68H46V19.4H47.7V11.84A.84.84,0,0,0,46.86,11Z"/><path class="e" d="M37.47,25.22v7.84a.84.84,0,0,0,.84.84h4.28V32.22H39.14V26.06h3.44V24.39H38.31A.84.84,0,0,0,37.47,25.22Z"/><path class="e" d="M37.47,52v7.84a.84.84,0,0,0,.84.84h4.41V59H39.14V52.81h3.58V51.14H38.31A.84.84,0,0,0,37.47,52Z"/><path class="e" d="M37.47,38.6v7.84a.84.84,0,0,0,.84.84h4.41V45.6H39.14V39.44h3.58V37.76H38.31A.84.84,0,0,0,37.47,38.6Z"/><path class="e" d="M74.89,25.57H49.53a.84.84,0,0,0-.84.84V31.6a.84.84,0,0,0,.84.84H74.89a.84.84,0,0,0,.84-.84V26.41A.84.84,0,0,0,74.89,25.57Zm-.84,5.19H50.37V27.25H74.05Z"/><path class="e" d="M74.89,35.57H49.53a.84.84,0,0,0-.84.84v5.19a.84.84,0,0,0,.84.84H74.89a.84.84,0,0,0,.84-.84V36.41A.84.84,0,0,0,74.89,35.57Zm-.84,5.19H50.37V37.25H74.05Z"/><path class="e" d="M74.89,45.56H49.53a.84.84,0,0,0-.84.84v5.19a.84.84,0,0,0,.84.84H74.89a.84.84,0,0,0,.84-.84V46.4A.84.84,0,0,0,74.89,45.56Zm-.84,5.19H50.37V47.24H74.05Z"/><path class="e" d="M74.89,55.55H49.53a.84.84,0,0,0-.84.84v5.19a.84.84,0,0,0,.84.84H74.89a.84.84,0,0,0,.84-.84V56.39A.84.84,0,0,0,74.89,55.55Zm-.84,5.19H50.37V57.23H74.05Z"/><rect class="e" x="69.07" y="67.55" width="1.68" height="12.22"/><rect class="e" x="53.69" y="67.55" width="1.68" height="12.22"/><path class="e" d="M30.35,67.84V79.23H32V68.68H42.85V67H31.18A.84.84,0,0,0,30.35,67.84Z"/><path class="e" d="M21.48,5.79H19.14V1.68H53V5.79h-1.8a1.4,1.4,0,0,1,.28.84v.84h2.35a.84.84,0,0,0,.84-.84V.84A.84.84,0,0,0,53.85,0H18.3a.84.84,0,0,0-.84.84V6.63a.84.84,0,0,0,.84.84H21.2V6.63A1.4,1.4,0,0,1,21.48,5.79Z"/><polygon class="e" points="55.94 67.55 55.94 68.68 68.49 68.68 68.49 67.55 71.32 67.55 71.32 68.68 72.48 68.68 72.48 67 51.95 67 51.95 68.68 53.11 68.68 53.11 67.55 55.94 67.55"/><rect class="e" x="69.07" y="68.13" width="1.68" height="0.55"/><polygon class="e" points="68.49 67.55 68.49 68.68 68.78 68.68 68.78 67.84 71.03 67.84 71.03 68.68 71.32 68.68 71.32 67.55 68.49 67.55"/><polygon class="e" points="68.78 67.84 68.78 68.68 69.07 68.68 69.07 68.13 70.74 68.13 70.74 68.68 71.03 68.68 71.03 67.84 68.78 67.84"/><rect class="e" x="53.69" y="68.13" width="1.68" height="0.55"/><polygon class="e" points="55.65 67.84 55.65 68.68 55.94 68.68 55.94 67.55 53.11 67.55 53.11 68.68 53.4 68.68 53.4 67.84 55.65 67.84"/><polygon class="e" points="55.37 68.13 55.37 68.68 55.65 68.68 55.65 67.84 53.4 67.84 53.4 68.68 53.69 68.68 53.69 68.13 55.37 68.13"/><path class="e" d="M8.23,55.89v4.69a5,5,0,0,0,1.68,0V55.89Z"/><path class="e" d="M9.9,69.82V59.29a7.44,7.44,0,0,1-1.68,0V71.75A8.56,8.56,0,0,1,9.9,69.82Z"/><path class="e" d="M1.68,51.69c0-5.26,3.31-9.54,7.39-9.54s7.39,4.28,7.39,9.54c0,4.64-2.57,8.51-6,9.36v1.72c4.33-.84,7.65-5.49,7.65-11.08,0-6.19-4.07-11.22-9.06-11.22S0,45.5,0,51.69c0,5.59,3.32,10.24,7.65,11.08V61.05C4.25,60.2,1.68,56.33,1.68,51.69Z"/><path class="e" d="M9.9,62.86V61.17a5.59,5.59,0,0,1-1.68,0v1.69a7.08,7.08,0,0,0,1.68,0Z"/><path class="e" d="M10.19,61.12v1.7l.29,0V61.05Z"/><path class="e" d="M7.65,61.05v1.72l.29,0v-1.7Z"/><path class="e" d="M7.94,61.12v1.7l.29,0V61.17Z"/><path class="e" d="M9.9,61.17v1.69l.29,0v-1.7Z"/><path class="e" d="M81.72,70.64a16.2,16.2,0,0,1,2.15-.27A5.15,5.15,0,0,1,89,74.94a.84.84,0,0,0,.73.74,2.5,2.5,0,0,1,2.18,2.74l0,.26H74.19l.05.11a1.42,1.42,0,0,1,0,1.43l-.09.14h18.3a.84.84,0,0,0,.77-.5,4.18,4.18,0,0,0-2.52-5.66l-.15-.05,0-.16a6.8,6.8,0,0,0-6.66-5.3c-.4,0-1.73.16-2.12.23v1.44A1.39,1.39,0,0,1,81.72,70.64Z"/><path class="e" d="M51.36,20.52H80.45V69l.23-.12a7.06,7.06,0,0,1,1.45-.52V19.68a.84.84,0,0,0-.84-.84H51.64v.84A1.4,1.4,0,0,1,51.36,20.52Z"/><path class="e" d="M72.35,78.68h-1v1.13H68.49V78.68H55.94v1.13H53.11V78.68H43v.84a1.4,1.4,0,0,1-.28.84H73.11L73,80.27A5.79,5.79,0,0,1,72.35,78.68Z"/><rect class="e" x="69.07" y="78.68" width="1.68" height="0.55"/><polygon class="e" points="71.03 79.52 68.78 79.52 68.78 78.68 68.49 78.68 68.49 79.81 71.32 79.81 71.32 78.68 71.03 78.68 71.03 79.52"/><polygon class="e" points="70.74 79.23 69.07 79.23 69.07 78.68 68.78 78.68 68.78 79.52 71.03 79.52 71.03 78.68 70.74 78.68 70.74 79.23"/><rect class="e" x="53.69" y="78.68" width="1.68" height="0.55"/><polygon class="e" points="55.65 79.52 53.4 79.52 53.4 78.68 53.11 78.68 53.11 79.81 55.94 79.81 55.94 78.68 55.65 78.68 55.65 79.52"/><polygon class="e" points="55.37 79.23 53.69 79.23 53.69 78.68 53.4 78.68 53.4 79.52 55.65 79.52 55.65 78.68 55.37 78.68 55.37 79.23"/><path class="e" d="M74.92,79.93a.84.84,0,0,0,0-.85,3.43,3.43,0,0,1-.5-1.8v-.06a3.47,3.47,0,0,1,3.47-3.47,2.93,2.93,0,0,1,.46,0,.85.85,0,0,0,.88-.47,5.19,5.19,0,0,1,2.44-2.44l.28-.12a.84.84,0,0,0,.19-.53V68.92a6.51,6.51,0,0,0-1.2.44l-.48.26v.1l-.14.08A6.94,6.94,0,0,0,78.07,72l-.08.13h-.16a5.21,5.21,0,0,0-5.09,5.13q0,.15,0,.3v0A5.15,5.15,0,0,0,73.53,80a.8.8,0,0,0,1.39,0Z"/><path class="e" d="M80.45,69v.32l.36-.19a6.8,6.8,0,0,1,1.32-.48v-.3a7.06,7.06,0,0,0-1.45.52Z"/><path class="e" d="M72.65,78.68h-.3a5.79,5.79,0,0,0,.7,1.59l.06.08h.38a1.12,1.12,0,0,1-.2-.24A5.52,5.52,0,0,1,72.65,78.68Z"/><path class="e" d="M79.22,73.31a.85.85,0,0,1-.88.47,2.93,2.93,0,0,0-.46,0,3.47,3.47,0,0,0-3.47,3.47v0a3.48,3.48,0,0,1,3.47-3.4,2.91,2.91,0,0,1,.46,0,.84.84,0,0,0,.88-.47A5.21,5.21,0,0,1,81.65,71a.83.83,0,0,0,.28-.22l-.28.12A5.19,5.19,0,0,0,79.22,73.31Z"/><path class="e" d="M73.53,80a5.15,5.15,0,0,1-.79-2.33,5,5,0,0,0,.09.7l.07.35h-.26a5.52,5.52,0,0,0,.64,1.44,1.12,1.12,0,0,0,.2.24h.72A.83.83,0,0,1,73.53,80Z"/><path class="e" d="M80.45,69.29v.33l.48-.26a6.51,6.51,0,0,1,1.2-.44v-.3a6.8,6.8,0,0,0-1.32.48Z"/><path class="e" d="M72.74,77.6q0-.15,0-.3v0C72.73,77.42,72.74,77.51,72.74,77.6Z"/><path class="e" d="M15.44,68.57a9.45,9.45,0,0,1,4.44,1.66v-2a12,12,0,0,0-4.44-1.37,8,8,0,0,0-5,1.76V71A6.32,6.32,0,0,1,15.44,68.57Z"/><path class="e" d="M25.6,79s1.08-.06-.09-.06l.15-.12H4.48l-.08-.17A4.24,4.24,0,0,1,4,76.88,4.29,4.29,0,0,1,8.31,72.6a4.69,4.69,0,0,1,.59,0,.82.82,0,0,0,.86-.47c.07-.14.14-.28.22-.42H7.65V71A6,6,0,0,0,4.1,72.68a5.89,5.89,0,0,0-1.75,4.2,6,6,0,0,0,.93,3.19.83.83,0,0,0,.71.39H25.86l-.13-.16A1.41,1.41,0,0,1,25.6,79Z"/><path class="e" d="M9.9,71.18v-2a8,8,0,0,0-1.29,1.62l-.08.14h-.3v.25Z"/><path class="e" d="M10.48,71V68.66l-.29.24v2.53C10.28,71.29,10.38,71.15,10.48,71Z"/><path class="e" d="M10,71.75l.18-.29H7.94v-.53l-.29,0v.79Z"/><path class="e" d="M10.17,71.47l0,0V68.9l-.29.26v2H8.23v-.25H7.94v.53Z"/><path class="e" d="M44,78.11V20.52h7.38V18.26h1.13V8H51.36V5.79H20.8V8H19.67v59.4a8.57,8.57,0,0,1,1.68,1.26V7.47H50.81V18.84H48.28V20H45.45V18.84h-2v2.25H42.3v2.72h1.13v2.83H42.3v5h1.13v2.83H42.3v2.71h1.13V40H42.3v5h1.13v2.83H42.3v2.71h1.13v2.83H42.3v5h1.13v2.83H42.3v5.2h1.13v2.83H42.3v9.43H32.6v1.13H29.77V78.68H27.38v0a2.88,2.88,0,0,1-.07.44,3.73,3.73,0,0,1-.15.56l0,.06h0l-.09.2h0l-.07.16a1.48,1.48,0,0,1-.12.21h16V78.11Z"/><path class="e" d="M21.67,74c0,.05,0,.1,0,.15a.83.83,0,0,0,.73.75A3.15,3.15,0,0,1,25.17,78c0,.07,0,.13,0,.19H26v.13l.87.06v0q0-.18,0-.35a4.86,4.86,0,0,0-3-4.45l0,.19Z"/><path class="e" d="M42.3,19.68v.84h.55V18.89A.84.84,0,0,0,42.3,19.68Z"/><rect class="e" x="46.02" y="18.84" width="1.68" height="0.55"/><polygon class="e" points="47.99 19.68 45.74 19.68 45.74 18.84 45.45 18.84 45.45 19.96 48.28 19.96 48.28 18.84 47.99 18.84 47.99 19.68"/><polygon class="e" points="43.14 20.8 42.3 20.8 42.3 21.09 43.43 21.09 43.43 18.84 43.14 18.84 43.14 20.8"/><polygon class="e" points="47.7 19.39 46.02 19.39 46.02 18.84 45.74 18.84 45.74 19.68 47.99 19.68 47.99 18.84 47.7 18.84 47.7 19.39"/><path class="e" d="M42.85,20.52H42.3v.29h.84v-2a.83.83,0,0,0-.29.05Z"/><rect class="e" x="42.3" y="24.39" width="0.55" height="1.68"/><rect class="e" x="42.3" y="32.22" width="0.55" height="1.68"/><polygon class="e" points="43.14 24.1 43.14 26.35 42.3 26.35 42.3 26.64 43.43 26.64 43.43 23.81 42.3 23.81 42.3 24.1 43.14 24.1"/><polygon class="e" points="43.14 31.93 43.14 34.19 42.3 34.19 42.3 34.47 43.43 34.47 43.43 31.65 42.3 31.65 42.3 31.93 43.14 31.93"/><polygon class="e" points="42.85 24.39 42.85 26.06 42.3 26.06 42.3 26.35 43.14 26.35 43.14 24.1 42.3 24.1 42.3 24.39 42.85 24.39"/><polygon class="e" points="42.85 32.22 42.85 33.9 42.3 33.9 42.3 34.19 43.14 34.19 43.14 31.93 42.3 31.93 42.3 32.22 42.85 32.22"/><rect class="e" x="42.3" y="51.14" width="0.55" height="1.68"/><rect class="e" x="42.3" y="58.97" width="0.55" height="1.68"/><polygon class="e" points="43.14 50.85 43.14 53.1 42.3 53.1 42.3 53.39 43.43 53.39 43.43 50.56 42.3 50.56 42.3 50.85 43.14 50.85"/><polygon class="e" points="43.14 58.68 43.14 60.94 42.3 60.94 42.3 61.22 43.43 61.22 43.43 58.4 42.3 58.4 42.3 58.68 43.14 58.68"/><polygon class="e" points="42.85 58.97 42.85 60.65 42.3 60.65 42.3 60.94 43.14 60.94 43.14 58.68 42.3 58.68 42.3 58.97 42.85 58.97"/><polygon class="e" points="42.85 51.14 42.85 52.81 42.3 52.81 42.3 53.1 43.14 53.1 43.14 50.85 42.3 50.85 42.3 51.14 42.85 51.14"/><rect class="e" x="42.3" y="45.6" width="0.55" height="1.68"/><rect class="e" x="42.3" y="37.76" width="0.55" height="1.68"/><polygon class="e" points="43.14 37.47 43.14 39.73 42.3 39.73 42.3 40.01 43.43 40.01 43.43 37.19 42.3 37.19 42.3 37.47 43.14 37.47"/><polygon class="e" points="43.14 45.31 43.14 47.56 42.3 47.56 42.3 47.85 43.43 47.85 43.43 45.02 42.3 45.02 42.3 45.31 43.14 45.31"/><polygon class="e" points="42.85 37.76 42.85 39.44 42.3 39.44 42.3 39.73 43.14 39.73 43.14 37.47 42.3 37.47 42.3 37.76 42.85 37.76"/><polygon class="e" points="42.85 45.6 42.85 47.27 42.3 47.27 42.3 47.56 43.14 47.56 43.14 45.31 42.3 45.31 42.3 45.6 42.85 45.6"/><rect class="e" x="42.3" y="67" width="0.55" height="1.68"/><rect class="e" x="30.35" y="78.68" width="1.68" height="0.55"/><polygon class="e" points="43.14 66.72 43.14 68.97 42.3 68.97 42.3 69.25 43.43 69.25 43.43 66.43 42.3 66.43 42.3 66.72 43.14 66.72"/><polygon class="e" points="32.31 79.52 30.06 79.52 30.06 78.68 29.77 78.68 29.77 79.81 32.6 79.81 32.6 78.68 32.31 78.68 32.31 79.52"/><polygon class="e" points="32.02 79.23 30.35 79.23 30.35 78.68 30.06 78.68 30.06 79.52 32.31 79.52 32.31 78.68 32.02 78.68 32.02 79.23"/><polygon class="e" points="42.85 67 42.85 68.68 42.3 68.68 42.3 68.97 43.14 68.97 43.14 66.72 42.3 66.72 42.3 67 42.85 67"/><path class="e" d="M20.22,5.85a.84.84,0,0,0-.55.78v.84h.55Z"/><path class="e" d="M51.93,5.85V7.47h.55V6.63A.84.84,0,0,0,51.93,5.85Z"/><polygon class="e" points="51.64 5.79 51.64 5.79 51.36 5.79 51.36 8.05 52.48 8.05 52.48 7.76 51.64 7.76 51.64 5.79"/><polygon class="e" points="20.8 5.79 20.51 5.79 20.51 5.79 20.51 7.76 19.67 7.76 19.67 8.05 20.8 8.05 20.8 5.79"/><path class="e" d="M51.93,5.85a.83.83,0,0,0-.29-.05v2h.84V7.47h-.55Z"/><path class="e" d="M20.51,5.79a.83.83,0,0,0-.29.05V7.47h-.55v.29h.84Z"/><path class="e" d="M51.93,20.46a.84.84,0,0,0,.55-.78v-.84h-.55Z"/><path class="e" d="M44,79.52v-.84h-.55V80.3A.84.84,0,0,0,44,79.52Z"/><polygon class="e" points="43.98 78.39 43.98 78.11 42.85 78.11 42.85 80.36 43.14 80.36 43.14 78.39 43.98 78.39"/><polygon class="e" points="51.36 20.52 51.64 20.52 51.64 20.52 51.64 18.55 52.48 18.55 52.48 18.26 51.36 18.26 51.36 20.52"/><path class="e" d="M44,78.68v-.29h-.84v2a.83.83,0,0,0,.29-.05V78.68Z"/><path class="e" d="M51.64,20.52a.83.83,0,0,0,.29-.05V18.84h.55v-.29h-.84Z"/><path class="e" d="M19.89,70.42l0,0a6.08,6.08,0,0,1,1.19,1.69h0a4.44,4.44,0,0,1,.19.44v0h0c.05.13.1.27.14.4l0,.1,0,.12,1.64-.35-.06-.22,0-.13c-.05-.18-.11-.35-.18-.53l0-.1-.12-.28-.1-.21-.09-.18a8.1,8.1,0,0,0-1-1.54l-.14-.16-.25-.27a8,8,0,0,0-1.44-1.15v1.75A.83.83,0,0,0,19.89,70.42Z"/><path class="e" d="M26.36,80.09l-1-.38V79.4l-.45-.16a.83.83,0,0,0,.79,1.11h.33A1,1,0,0,0,26.36,80.09Z"/><path class="e" d="M26,78.34v-.13h-.8v.08Z"/><path class="e" d="M21.35,69.1v-.4a8.57,8.57,0,0,0-1.68-1.26v.33a8.31,8.31,0,0,1,1.64,1.29Z"/><path class="e" d="M27.06,80l-1.38-.48h0l1.09.43,0,.09a1.22,1.22,0,0,1-.22.33h.36a1.48,1.48,0,0,0,.12-.21Z"/><polygon class="e" points="27.14 79.78 27.13 79.78 27.06 79.99 27.14 79.78"/><path class="e" d="M22.53,71.24l.09.18.1.21-.11-.23Z"/><path class="e" d="M22.84,71.91l0,.1h0Z"/><path class="e" d="M26.76,79.94l-1.09-.43h0l-.29-.1v.31l1,.38a1,1,0,0,1-.31.27h.45a1.22,1.22,0,0,0,.22-.33Z"/><path class="e" d="M21.12,72.15h0c.08.15.14.3.19.44A4.44,4.44,0,0,0,21.12,72.15Z"/><path class="e" d="M23.18,73l0-.07-1.64.35,0-.12,0,.19Z"/><path class="e" d="M21.11,72.14a6.08,6.08,0,0,0-1.19-1.69l0,0,0,0A6.42,6.42,0,0,1,21.11,72.14Z"/><path class="e" d="M21.32,72.62h0c.05.13.1.27.14.41C21.42,72.89,21.37,72.76,21.32,72.62Z"/><path class="e" d="M21.36,69.54h0V69.1l0,0a8.31,8.31,0,0,0-1.64-1.29v.34a8,8,0,0,1,1.44,1.15Z"/><path class="e" d="M23.58,73.51l-1.14.12-.8.17h0c0,.06,0,.13,0,.2l2.23-.24,0-.19-.3-.11Z"/><path class="e" d="M21.64,73.8l.8-.17-.81.09Z"/><polygon class="e" points="21.61 73.59 23.25 73.24 23.23 73.17 21.59 73.52 21.61 73.59"/><path class="e" d="M21.59,73.52l1.64-.35h0c0-.07,0-.13-.05-.2l-1.64.35c0,.07,0,.14.05.2Z"/><path class="e" d="M22.44,73.63l1.14-.12v0l-.12,0Z"/><path class="e" d="M21.61,73.62a.93.93,0,0,1,0,.1h0l.81-.09,1-.22h0l-.16,0,0-.12-1.64.35Z"/><path class="e" d="M26.69,79.25c0-.07,0-.14,0-.21l0-.07-.8-.05V79Z"/><polygon class="e" points="25.96 79 25.96 78.91 25.68 78.89 25.96 79"/><polygon class="e" points="27.06 79.99 27.06 79.99 27.06 79.99 27.06 79.99"/><polygon class="e" points="25.96 78.63 26.81 78.68 26.84 78.39 25.96 78.34 25.96 78.63"/><path class="e" d="M27.09,78.7a2.56,2.56,0,0,1-.07.39,3.55,3.55,0,0,1-.14.53L26,79.3v0l1.17.46,0-.06a3.73,3.73,0,0,0,.15-.56,2.88,2.88,0,0,0,.07-.44v0h-.54Z"/><path class="e" d="M25,79v0l-.07.18v0l.45.16v-.3Z"/><path class="e" d="M25.14,78.46v0h.54v.11l.29,0v-.29l-.8-.05C25.16,78.35,25.15,78.41,25.14,78.46Z"/><polygon class="e" points="25.96 79.3 25.68 79.2 25.68 79.5 27.06 79.99 27.06 79.99 27.13 79.78 25.96 79.32 25.96 79.3"/><polygon class="e" points="25.39 79.1 25.39 79.4 25.68 79.5 25.68 79.2 25.39 79.1"/><path class="e" d="M25.13,78.5v.07l.55,0V78.5Z"/><path class="e" d="M26,78.91l.8.05,0,.07c0,.07,0,.14,0,.21L26,79v.3l.92.32a3.55,3.55,0,0,0,.14-.53,2.56,2.56,0,0,0,.07-.39l-.25,0h0L26,78.63Z"/><path class="e" d="M25.08,78.79c0,.06,0,.12-.05.19l.36.13v-.31Z"/><polygon class="e" points="25.68 78.89 25.96 78.91 25.96 78.63 25.68 78.61 25.68 79.2 25.96 79.3 25.96 79 25.68 78.89"/><path class="e" d="M25.12,78.57v.15l0,.07h.31v.31l.29.1v-.59Z"/></svg>