<svg xmlns="http://www.w3.org/2000/svg" xmlns:xlink="http://www.w3.org/1999/xlink" viewBox="0 0 1219.31 586.85"><defs><style>.a{fill:url(#a);}.b{fill:#595558;}.c{fill:#fbecbb;}.d{fill:#f15f2e;}.e,.k{fill:#45a5da;}.f,.m{fill:#414042;}.g{fill:#a7a9ac;}.h,.l{fill:#fff;}.i{fill:#bcbec0;}.j,.n,.o{fill:#f6d056;}.k,.l,.m,.n{fill-rule:evenodd;}.o,.p,.r{stroke:#414042;stroke-miterlimit:10;}.o,.p{stroke-width:1.5px;}.p,.t{fill:#8dc63f;}.q{fill:#ed1c24;}.r{fill:#48443e;stroke-width:2px;}.s{fill:#231f20;}.u{fill:#424242;}</style><linearGradient id="a" x1="610.02" y1="1.45" x2="610.02" y2="586.4" gradientUnits="userSpaceOnUse"><stop offset="0" stop-color="#fff"/><stop offset="1" stop-color="#e6e7e8"/></linearGradient></defs><title>Dine</title><rect class="a" x="0.72" y="1.45" width="1218.59" height="584.96"/><rect class="b" x="-293.06" y="293.06" width="586.85" height="0.72" transform="translate(293.78 293.06) rotate(90)"/><path class="c" d="M628.62,125c0-41,30.94-74.26,69.1-74.26,34.14,0,55,26.61,60.6,61.58.66,4.12,0,8.36,0,12.68"/><path class="d" d="M672.25,81.24c0-10.82-10.13-20.26-22.59-19.59-18.71,1-22.59,8.77-22.59,19.59a17.16,17.16,0,0,0,.46,3.94L622.12,94v1.62l3.16.86,1.22.43-.86,2.73-.36,1.58,1.79,1.29-1.14,1.65,3.23,1.87.67,1.66v4.72l3.06,1.87,5.31-.65,1.44.35v9.05H666l-3.25-16.45c2.64-2.18,5.64-7.14,7.33-10.91a18.68,18.68,0,0,0,1.72-10.78A17.14,17.14,0,0,0,672.25,81.24Z"/><path class="e" d="M668.72,79a5.83,5.83,0,0,0-2.39-4.63,6.46,6.46,0,0,0-6.64-5.73,7,7,0,0,0-5.39-2.44,7.48,7.48,0,0,0-1.21.1,7.29,7.29,0,0,0-8.37.36,7.36,7.36,0,0,0-2.59-.47,7,7,0,0,0-5.6,2.7,6.19,6.19,0,0,0-4.8,5.81,5.51,5.51,0,0,0,.15,1.27,5.65,5.65,0,0,0-1.3,3.57,6.2,6.2,0,0,0,4.87,5.83,6.54,6.54,0,0,0,6.68,5.28h.1a7.18,7.18,0,0,0,4.15,1.3,7.32,7.32,0,0,0,2.86-.58,7.28,7.28,0,0,0,8.57.3l.43,0a7,7,0,0,0,5.17-2.18,6.23,6.23,0,0,0,4.85-6.12,5.5,5.5,0,0,0-.32-1.58A5.56,5.56,0,0,0,668.72,79Z"/><path class="f" d="M669.58,78.19A5,5,0,0,0,667,74.48a5.31,5.31,0,0,0,0-1.42,5.37,5.37,0,0,0-6.12-4.49l-.34.06a5.77,5.77,0,0,0-1.89-2.18,5.68,5.68,0,0,0-4.09-1,5.74,5.74,0,0,0-.8.18A5.39,5.39,0,0,0,652,64.54a6.72,6.72,0,0,0-3.68-.45,6.6,6.6,0,0,0-3.92,2,4.8,4.8,0,0,0-1.32-.56,6,6,0,0,0-2.76,0,5.92,5.92,0,0,0-2.88,1.5,4.4,4.4,0,0,0-.94,1.32c-.32,0-.69.07-.88.1a5.36,5.36,0,0,0-3.72,2.34,6.2,6.2,0,0,0-.91,4.37l0,.16a7,7,0,0,0-1.11,5.19,7.41,7.41,0,0,0,1.84,4,4.1,4.1,0,0,0,3,1.41h0q0,.14,0,.28a5.89,5.89,0,0,0,5.79,5,5.78,5.78,0,0,0,1.64-.24,5.87,5.87,0,0,0,4.39,2,5.8,5.8,0,0,0,3-.84A5.92,5.92,0,0,0,654,94a5.85,5.85,0,0,0,3.84-1.44,5.93,5.93,0,0,0,.67-.69,4.14,4.14,0,0,0,1.74.38,4.2,4.2,0,0,0,.62,0,4.14,4.14,0,0,0,3.34-2.83l.46,0a4.43,4.43,0,0,0,3.14-2.2,6.27,6.27,0,0,0,.76-4.15,6.86,6.86,0,0,0-.16-.77A5,5,0,0,0,669.58,78.19Zm-3,4a.61.61,0,0,0-.26,0,4.72,4.72,0,0,1-2.87.13c-.75-.19-3.17-1-2.69-3.37a3.05,3.05,0,0,1,1.31-2.17,2.05,2.05,0,0,1,1.8.06.61.61,0,1,0,.48-1.12,3.45,3.45,0,0,0-2.27-.25,3,3,0,0,0-.8-1.48,2.4,2.4,0,0,0-1.83-.7c-1.28.07-2.54,1.2-2.46,3.22a.61.61,0,0,0,.61.59h0a.61.61,0,0,0,.59-.64c-.05-1.28.64-1.91,1.3-1.95s1.29.44,1.43,1.56a4.62,4.62,0,0,0-1.39,2.64,3.63,3.63,0,0,0,.75,3.14,5.36,5.36,0,0,0,2.83,1.66,6.3,6.3,0,0,0,1.57.2,5.7,5.7,0,0,0,1.86-.3h.11a.61.61,0,0,0,.29-.07l.33-.19v0c.36,2.44-.93,4.67-2.88,5a2.93,2.93,0,0,1-1.33-.11.61.61,0,1,0-.37,1.17l.17,0a2.95,2.95,0,0,1-3.77,1.6,6,6,0,0,0,.4-1,.61.61,0,1,0-1.17-.37,4.65,4.65,0,0,1-7.84,1.8l.28-.28.1-.08a3.66,3.66,0,0,0,1-2.73,3.68,3.68,0,0,1,2.56-1.13.8.8,0,0,1,.66.53.61.61,0,1,0,1.12-.49,2,2,0,0,0-1.6-1.24,4.48,4.48,0,0,0-3,1,8.07,8.07,0,0,0-3-3.75.61.61,0,1,0-.67,1,6.27,6.27,0,0,1,2.72,3.94,2.46,2.46,0,0,1-.65,2l-.1.09a4.55,4.55,0,0,1-2.71,1.44,4.63,4.63,0,0,1-3.85-1.22,5.75,5.75,0,0,0,.67-.44.61.61,0,0,0-.74-1,4.56,4.56,0,0,1-1.09.61l-.12,0a4.58,4.58,0,0,1-.89.22A4.65,4.65,0,0,1,636,86a4.73,4.73,0,0,1,0-1.38.61.61,0,0,0-1.21-.18q0,.12,0,.24a2.91,2.91,0,0,1-2.08-1,6.18,6.18,0,0,1-1.52-3.33,6.37,6.37,0,0,1,.4-3.45,6.13,6.13,0,0,0,2.19,2.5,5.44,5.44,0,0,0,3,1h.18a3.56,3.56,0,0,0,2.8-1.58,4.63,4.63,0,0,0,1-2.82,1.47,1.47,0,0,1,2.08,0c.44.52.46,1.47-.52,2.31a.61.61,0,1,0,.8.93,2.82,2.82,0,0,0,.66-4,2.4,2.4,0,0,0-1.75-.87,3,3,0,0,0-1.6.41,3.49,3.49,0,0,0-1.72-1.52.61.61,0,0,0-.51,1.11,2.1,2.1,0,0,1,1.27,1.31,3.08,3.08,0,0,1-.69,2.45c-1.39,1.95-3.61.71-4.26.28a4.83,4.83,0,0,1-1.86-2.23v0a4.8,4.8,0,0,1-.31-1.11,5,5,0,0,1,.72-3.51,4.15,4.15,0,0,1,2.89-1.81l.39,0v0a.61.61,0,0,0,.58.64h0a.61.61,0,0,0,.61-.58,2.73,2.73,0,0,1,.89-1.78,4.69,4.69,0,0,1,2.28-1.18,4,4,0,0,1,3.75.92.61.61,0,0,0,1-.7,5.37,5.37,0,0,1,3.18-1.62,4.66,4.66,0,0,1,4.9,2h0l0,.09a2.36,2.36,0,0,1,0,2.48,3.05,3.05,0,0,1-2.81,1.36.61.61,0,1,0-.08,1.22h.29a4.25,4.25,0,0,0,3.63-1.94,3.57,3.57,0,0,0,.07-3.72l0-.07,0,0,.2,0a4.54,4.54,0,0,1,5.06,3.49.61.61,0,0,0,.6.48l.14,0a.61.61,0,0,0,.46-.73l0-.13.1,0a4.15,4.15,0,0,1,4.73,3.46,4.08,4.08,0,0,1,0,1.38.61.61,0,0,0,0,.17,4.05,4.05,0,0,1-.19.6.61.61,0,1,0,1.13.47l.06-.14a3.81,3.81,0,0,1,0,6.45Z"/><path class="f" d="M672.65,80.69A28.25,28.25,0,0,0,671,72.87a16.06,16.06,0,0,0-2-3.6,18.78,18.78,0,0,0-3.27-3.37A21.38,21.38,0,0,0,657.12,62a37.35,37.35,0,0,0-8.46-1h-.36a31,31,0,0,0-4.85.5,29.81,29.81,0,0,0-7,2.08A18.22,18.22,0,0,0,630,68.29a14.54,14.54,0,0,0-3.4,8.37,40.39,40.39,0,0,0-.1,4.84c.07,2.79.12,4.48-1.95,7.41-.49.7-1,1.38-1.51,2l-1,1.33a4.8,4.8,0,0,0-.79,1.46,2.07,2.07,0,0,0,.32,1.89c.6.82,1.83,1,3,1.23a10.35,10.35,0,0,1,1.39.3,2.08,2.08,0,0,1-.1.26,9.41,9.41,0,0,1-.54,1,3.81,3.81,0,0,0-.82,2.26,2.69,2.69,0,0,0,1.56,1.88l.05,0,.05.05-.21.34a3.59,3.59,0,0,0-.69,1.5c0,.63.65,1,1.42,1.27.6.24,1.31.47,1.74.61l.2.06a6.27,6.27,0,0,1,.7,4,4.46,4.46,0,0,0,.48,3c.64.82,2.08,1.17,4.8,1.17.67,0,1.34,0,2,0l1.51,0a6,6,0,0,1,1.11.07,27.11,27.11,0,0,1,.37,3.91c.1,1.84.15,3.75.14,4.26v.75h27.2l-1.33-5.78c-.25-.71-1.5-8.5-1.68-9.28a4.21,4.21,0,0,1,.52-3.6,18.88,18.88,0,0,1,2.06-2.37,24.63,24.63,0,0,0,1.82-2,21.75,21.75,0,0,0,4.06-9.5A36.65,36.65,0,0,0,672.65,80.69Zm-5.34,19.05a23.37,23.37,0,0,1-1.73,1.92,20.08,20.08,0,0,0-2.19,2.53,5.42,5.42,0,0,0-.7,4.58c.17.72,1.94,11.22,2.59,13.29H640.91c0-.9-.07-2.34-.15-3.73-.21-3.9-.44-4.26-.57-4.45-.29-.46-.95-.54-2.13-.54l-1.54,0c-.63,0-1.29,0-1.95,0-2.72,0-3.59-.38-3.84-.7a3.79,3.79,0,0,1-.23-2.21,7.12,7.12,0,0,0-1-5,.74.74,0,0,0-.41-.26l-.29-.09c-.37-.12-.92-.3-1.43-.49a7.06,7.06,0,0,1-.81-.35c.11-.23.31-.54.42-.71a4.07,4.07,0,0,0,.41-.73c.21-.6-.35-1.19-.64-1.37l-.06,0c-.57-.35-.92-.58-1-1a3.8,3.8,0,0,1,.66-1.46,3.57,3.57,0,0,0,.8-2.4l-.06-.26-.24-.13a6.94,6.94,0,0,0-2.11-.57c-.86-.15-1.92-.33-2.23-.75s-.2-1,.47-1.89l1-1.32c.51-.67,1-1.37,1.53-2.08a11.14,11.14,0,0,0,2-4.21,16.74,16.74,0,0,0,.2-3.94,39.36,39.36,0,0,1,.09-4.7c.47-5.48,3.57-9.54,9.21-12.06a31.43,31.43,0,0,1,11.33-2.47h.35c4.88,0,12.07,1.21,16.26,4.62,5.14,4.19,6,8.8,6.51,14C672,86.31,671.72,94.06,667.31,99.74Z"/><path class="g" d="M979.28,331.75l-2.33-8c0-.13-4-13.62-9.88-28-7.83-19.08-13.54-26.41-16.38-29.15H538.61V244.35H957.28l2.55,1.44c6,3.42,15.52,11.46,27.9,41.69,3.44,8.41,8.82,24.72,10.67,30.34"/><path class="g" d="M1199.8,516.75H104.46l-1.91-.72c-8.47-3.22-18.1-13.48-28.6-30.51-6.87-11.13-15.15-27.31-17.81-39.33-2.87-13-1.73-73.55-1.47-85.56l22.24.48c-.73,34-.57,73.38,1,80.29,1.65,7.46,7.6,20.37,14.82,32.12,8,13.09,14,19,16.61,21H1199.8Z"/><path class="h" d="M1203.42,506.48h-1.86v-1.71h1.86Zm-15.55,0H1181v-1.71h6.84Zm-20.53,0h-6.84v-1.71h6.84Zm-20.53,0H1140v-1.71h6.84Zm-20.53,0h-6.84v-1.71h6.84Zm-20.53,0h-6.84v-1.71h6.84Zm-20.53,0h-6.84v-1.71h6.84Zm-20.53,0h-6.84v-1.71h6.84Zm-20.53,0h-6.84v-1.71h6.84Zm-20.53,0h-6.84v-1.71h6.84Zm-20.53,0h-6.84v-1.71h6.84Zm-20.53,0h-6.84v-1.71h6.84Zm-20.53,0h-6.84v-1.71H962Zm-20.53,0h-6.84v-1.71h6.84Zm-20.53,0h-6.84v-1.71h6.84Zm-20.53,0h-6.84v-1.71h6.84Zm-20.53,0H873v-1.71h6.84Zm-20.53,0h-6.84v-1.71h6.84Zm-20.53,0H832v-1.71h6.84Zm-20.53,0h-6.84v-1.71h6.84Zm-20.53,0h-6.84v-1.71h6.84Zm-20.53,0h-6.84v-1.71h6.84Zm-20.53,0h-6.84v-1.71h6.84Zm-20.53,0h-6.84v-1.71h6.84Zm-20.53,0h-6.84v-1.71h6.84Zm-20.53,0h-6.84v-1.71h6.84Zm-20.53,0h-6.84v-1.71h6.84Zm-20.53,0h-6.84v-1.71H654Zm-20.53,0h-6.84v-1.71h6.84Zm-20.53,0h-6.84v-1.71h6.84Zm-20.53,0h-6.84v-1.71h6.84Zm-20.53,0H565v-1.71h6.84Zm-20.53,0h-6.84v-1.71h6.84Zm-20.53,0h-6.84v-1.71h6.84Zm-20.53,0h-6.84v-1.71h6.84Zm-20.53,0h-6.84v-1.71h6.84Zm-20.53,0h-6.84v-1.71h6.84Zm-20.53,0h-6.84v-1.71h6.84Zm-20.53,0h-6.84v-1.71h6.84Zm-20.53,0h-6.84v-1.71h6.84Zm-20.53,0H380.2v-1.71H387Zm-20.53,0h-6.84v-1.71h6.84Zm-20.53,0h-6.84v-1.71H346Zm-20.53,0H318.6v-1.71h6.84Zm-20.53,0h-6.84v-1.71h6.84Zm-20.53,0h-6.84v-1.71h6.84Zm-20.53,0H257v-1.71h6.84Zm-20.53,0h-6.84v-1.71h6.84Zm-20.53,0h-6.84v-1.71h6.84Zm-20.53,0H195.4v-1.71h6.84Zm-20.53,0h-6.84v-1.71h6.84Zm-20.53,0h-6.84v-1.71h6.84Zm-20.53,0h-6.84v-1.71h6.84Zm-20.53,0h-6.84v-1.71h6.84Zm-19.9-4.11a56.1,56.1,0,0,1-4.89-4.95l1.28-1.13a54.35,54.35,0,0,0,4.74,4.8Zm-13.3-15.9c-1.25-1.83-2.52-3.77-3.77-5.77l1.45-.91c1.23,2,2.49,3.89,3.73,5.71Zm-10.63-17.7c-1.09-2.07-2.13-4.14-3.1-6.15l1.54-.74c1,2,2,4,3.07,6.09Zm-8.4-18.89a56.6,56.6,0,0,1-1.7-5.9q-.08-.38-.16-.82l1.69-.3q.07.41.15.75a54.8,54.8,0,0,0,1.65,5.72Zm-2.94-20.49c-.08-2.09-.15-4.39-.21-6.86l1.71,0c.06,2.46.13,4.75.2,6.83Zm-.39-20.57c0-2.27,0-4.56,0-6.85h1.71c0,2.29,0,4.58,0,6.84Zm1.74-20.54H64.56c0-2.37,0-4.66.06-6.85l1.71,0C66.31,383.62,66.29,385.91,66.27,388.28Zm.25-20.54-1.71,0c.07-4.27.13-6.86.13-6.86l1.71,0S66.59,363.47,66.52,367.74Z"/><path class="g" d="M954.19,404.15h-759V381.9H948c3.4-2.93,10.11-11.07,18.77-33.22a314.93,314.93,0,0,0,10.15-30.86l21.52,5.62a333.55,333.55,0,0,1-11,33.34c-9.8,25.07-19.86,40.13-30.78,46Z"/><path class="h" d="M947.26,393.9l0-1.71a41,41,0,0,0,6.66-.61l.34,1.68A41.91,41.91,0,0,1,947.26,393.9Zm-13.74-.2c-2.3-.08-4-.13-5.3-.13-.64,0-1.12,0-1.43,0l-.16-1.7c.37,0,.89-.05,1.59-.05,1.3,0,3,.06,5.36.14Zm31-9.88-1.39-1a60.53,60.53,0,0,0,3.58-5.71l1.5.83A62.13,62.13,0,0,1,964.57,383.82Zm9.4-18.43-1.6-.61c.72-1.89,1.46-3.92,2.32-6.41l1.62.56C975.44,361.43,974.69,363.48,974,365.39Zm7.26-19.17-1.62-.54c.64-1.93,1.39-4.2,2.1-6.5l1.63.51C982.62,342,981.87,344.29,981.22,346.22Zm6-19.62-1.64-.48c.36-1.23.62-2.56.86-3.84l.18-.94a.89.89,0,0,1-.15-.5,1.12,1.12,0,0,1,1-1l1.31-.29-.29,1.31c-.12.56-.24,1.16-.36,1.79C987.86,323.92,987.59,325.29,987.21,326.6Zm.43-6,.52.31a.83.83,0,0,0,0-.12.81.81,0,0,0-.81-.81.64.64,0,0,0-.47.18Z"/><path class="h" d="M427.82,393.9H421v-1.71h6.84Zm20.52,0H441.5v-1.71h6.84Zm-41,0h-6.84v-1.71h6.84Zm-20.53,0h-6.84v-1.71h6.84Zm75.25,0v-1.71h6.84v1.71Zm-95.78,0H359.4v-1.71h6.84Zm116.3,0v-1.71h6.84v1.71Zm-136.83,0h-6.84v-1.71h6.84Zm157.36,0v-1.71h6.84v1.71Zm-177.88,0h-6.84v-1.71h6.84Zm198.42,0v-1.71h6.85v1.71Zm-218.94,0h-6.84v-1.71h6.84Zm239.48,0v-1.71H551v1.71Zm-260,0h-6.83v-1.71h6.83Zm280.56,0v-1.71h6.85v1.71Zm-301.08,0h-6.83v-1.71h6.83Zm-20.52,0h-6.82v-1.71h6.82Zm342.15,0v-1.71h6.85v1.71Zm-362.68,0h-6.82v-1.71h6.82Zm383.24,0v-1.71h6.85v1.71Zm-403.76,0h-6.81l0-.86,0-.86h6.81Zm424.32,0v-1.71h6.86v1.71Zm20.57,0v-1.71h6.86v1.71Zm20.57,0v-1.71h6.86v1.71Zm20.6,0,0-.86,0-.86H695v1.71Zm20.56,0v-1.71h6.87v1.71Zm20.59,0v-1.71h6.85v1.71Zm20.54,0v-1.71h6.85v1.71Zm20.58,0h0v-1.71h6.85v1.71Zm20.49,0V392.1h6.85v1.71Zm20.54,0v-1.71h6.85v1.71Zm20.61,0h-.07v-1.71h6.85v1.71ZM236.26,393v0Zm-20.52,0v0Zm-20.52,0v0Z"/><rect class="g" x="806.12" y="284.78" width="165.2" height="22.25"/><path class="h" d="M971.32,298.12h-5.11v-1.71h5.11Zm-18.8,0h-6.84v-1.71h6.84Zm-20.53,0h-6.84v-1.71H932Z"/><path class="h" d="M845.16,256.32h-6.84v-1.71h6.84Zm-20.53,0h-6.84v-1.71h6.84Zm-20.53,0h-6.84v-1.71h6.84Zm-20.53,0h-6.84v-1.71h6.84Zm-20.53,0h-6.84v-1.71H763Zm-20.53,0h-6.84v-1.71h6.84Zm-20.53,0h-6.84v-1.71H722Zm-20.53,0h-6.84v-1.71h6.84Zm-20.53,0H674v-1.71h6.84Zm-20.53,0h-6.84v-1.71h6.84Zm-20.53,0H633v-1.71h6.84Zm-20.53,0h-6.84v-1.71h6.84Zm-20.53,0h-6.84v-1.71h6.84Zm-20.53,0h-6.84v-1.71h6.84Zm-20.53,0h-6.84v-1.71h6.84Zm-20.53,0H530.3v-1.71h6.84Zm-20.53,0h-6.84v-1.71h6.84Z"/><path class="h" d="M845.16,296.76h-6.84V295h6.84Zm-20.53,0h-6.84V295h6.84Zm-20.53,0h-6.84V295h6.84Zm-20.53,0h-6.84V295h6.84Zm-20.53,0h-6.84V295H763Zm-20.53,0h-6.84V295h6.84Zm-20.53,0h-6.84V295H722Zm-20.53,0h-6.84V295h6.84Zm-20.53,0H674V295h6.84Zm-20.53,0h-6.84V295h6.84Zm-20.53,0H633V295h6.84Zm-20.53,0h-6.84V295h6.84Zm-20.53,0h-6.84V295h6.84Zm-20.53,0h-6.84V295h6.84Zm-20.53,0h-6.84V295h6.84Zm-20.53,0H530.3V295h6.84Zm-20.53,0h-6.84V295h6.84Z"/><rect class="i" x="50.03" y="239.66" width="153.01" height="242.75"/><path class="h" d="M185.61,255.72V425.08l-15.34,10-15.36-10-15.33,10-15.34-10-15.34,10-15.33-10-15.33,10-15.34-10V255.72Z"/><path class="h" d="M174.32,399.19c-.62.19-1.3,20.15-2,20.19V390.72c.71.19,1.39.39,2,.62a6.13,6.13,0,0,1,1.63.82,3.83,3.83,0,0,1,1.07,1.17,3.31,3.31,0,0,1,.4,1.71A4.68,4.68,0,0,1,177,397a3.63,3.63,0,0,1-1.07,1.37A5,5,0,0,1,174.32,399.19Z"/><path class="h" d="M166.86,380.11a6.09,6.09,0,0,1,3.24-1.22v8.22a17.25,17.25,0,0,1-1.83-.56,6.41,6.41,0,0,1-1.45-.75,2.94,2.94,0,0,1-1-1.09,3.3,3.3,0,0,1-.34-1.56A3.6,3.6,0,0,1,166.86,380.11Z"/><path class="h" d="M170.1,422.15a10.58,10.58,0,0,1-6.32-2.44c-1.56-1.39-2.45-23.16-2.66-25.62h3.38a4.91,4.91,0,0,0,1.65,3.73c1,.91,2.36,21.33,4,21.56V390.23a30.86,30.86,0,0,1-3.63-1,9.65,9.65,0,0,1-2.54-1.3,4.51,4.51,0,0,1-1.49-1.84,6.39,6.39,0,0,1-.48-2.63,6.53,6.53,0,0,1,.63-2.9,7.2,7.2,0,0,1,1.72-2.28,8.27,8.27,0,0,1,2.58-1.52,10.85,10.85,0,0,1,3.2-.67v-2.31h2.19v2.35a8.73,8.73,0,0,1,5.12,2.11,9.73,9.73,0,0,1,2.7,4.85h-3.38a5,5,0,0,0-4.45-4.08v8.64l2.38.56a11.68,11.68,0,0,1,1.87.62,8.45,8.45,0,0,1,2.06,1.21,6.93,6.93,0,0,1,1.69,1.93,5.28,5.28,0,0,1,.69,2.77,6.88,6.88,0,0,1-.65,3.05c-.44.88-1,21.49-1.8,22.13a8.78,8.78,0,0,1-2.74,1.53,13.15,13.15,0,0,1-3.5.7V425H170.1Zm2.19-2.77c.74,0,1.42-20,2-20.19a5,5,0,0,0,1.63-.82A3.63,3.63,0,0,0,177,397a4.68,4.68,0,0,0,.38-1.94,3.31,3.31,0,0,0-.4-1.71,3.83,3.83,0,0,0-1.07-1.17,6.13,6.13,0,0,0-1.63-.82c-.63-.23-1.31-.43-2-.62Zm-2.19-32.27v-8.22a6.09,6.09,0,0,0-3.24,1.22,3.6,3.6,0,0,0-1.33,3,3.3,3.3,0,0,0,.34,1.56,2.94,2.94,0,0,0,1,1.09,6.41,6.41,0,0,0,1.45.75A17.25,17.25,0,0,0,170.1,387.11Z"/><path class="f" d="M188,425.08a1.23,1.23,0,0,1-.59,1l-15.44,10a1.61,1.61,0,0,1-1.72,0L156.1,427l-.48-.31-.48.31-14.09,9.13a1.61,1.61,0,0,1-1.72,0L125.23,427l-.48-.31-.48.31-14.1,9.13a1.61,1.61,0,0,1-1.72,0L94.37,427l-.48-.31-.48.31L79.33,436.1a1.61,1.61,0,0,1-1.72,0l-15.44-10a1.23,1.23,0,0,1-.59-1V256.43h2.9v168l.33.21L78,433.19l.48.31.48-.31L93,424.06a1.61,1.61,0,0,1,1.72,0l14.08,9.13.48.31.48-.31,14.1-9.13a1.61,1.61,0,0,1,1.72,0l14.1,9.13.48.31.48-.31,14.08-9.13a1.62,1.62,0,0,1,1.72,0l14.12,9.13.48.31.48-.31,13.18-8.54.33-.21v-168H188Z"/><path class="g" d="M1112.23,335.49h0c-34,0-123.21-.65-124.11-.65l.16-22c.9,0,90,.65,124,.65h0c27.2,0,34.41-10.9,43.07-28.85,11.73-24.31,11.25-53-1.42-85.18-9.6-24.42-38.6-24-38.88-24h-.42c-1.41,0-141.54-1.93-177.17-1-18.89.53-28.69-6.1-38.17-12.51-11.17-7.55-23.83-16.11-60.81-16.11-5.31,0-17.87-.23-35.25-.55-47.1-.87-125.93-2.33-197.79-1.89-116.72.71-139.48,6.1-143.86,8.38-19.1,10-31.7,24.52-41.83,36.2-6.22,7.18-11.14,12.85-16.53,16.22-3.43,2.14-9.81,6.13-59.47,7.66-23.29.72-45.44.53-45.66.53H2.42v-22H298.14c39.06.34,85.72-1.57,93.56-5,2.61-1.74,6.87-6.65,11.38-11.85,10.75-12.4,25.46-29.38,48.27-41.29,20.35-10.63,122.4-13.23,352.24-9,17.27.32,29.74.55,34.85.55,43.71,0,60,11,73.12,19.88,8.37,5.66,13.42,9.08,25.25,8.75,35.81-1,170.24.84,177.93.94,4.07-.06,44.91.49,59.63,37.92,15,38.15,15.26,72.74.76,102.79C1165,315.09,1151.88,335.49,1112.23,335.49Z"/><path class="h" d="M1112.32,325h-4v-1h3.86c.72,0,1.43,0,2.13,0l0,1Zm-19,0-6,0v-1l6,0Zm-21-.09-6,0v-1l6,0Zm-21-.11-6,0v-1l6,0Zm-21-.13-6,0v-1l6,0Zm-21-.14-6,0v-1l6,0Zm120.18-1.19-.22-1a53.42,53.42,0,0,0,5.71-1.6l.33.95A54.45,54.45,0,0,1,1129.32,323.29Zm19-8.88-.63-.78a42.4,42.4,0,0,0,4.31-4.05l.73.68A43.29,43.29,0,0,1,1148.37,314.42Zm13.07-16.5-.87-.48c.87-1.57,1.77-3.3,2.77-5.3l.9.45C1163.22,294.59,1162.31,296.34,1161.44,297.92Zm8.69-19.19-.95-.32c.63-1.87,1.22-3.79,1.73-5.71l1,.26C1171.36,274.89,1170.77,276.83,1170.13,278.73Zm4.53-20.57-1-.11c.21-2,.37-4,.47-6l1,.05C1175,254.16,1174.87,256.18,1174.66,258.15Zm-.79-21c-.17-2-.38-4-.65-5.94l1-.13c.27,2,.49,4,.65,6Zm-3.46-20.61c-.47-1.91-1-3.85-1.55-5.77l1-.28c.56,1.94,1.09,3.89,1.56,5.81ZM302.42,202l-4.28,0h-1.72v-1h1.72l4.28,0Zm-21,0h-6v-1h6Zm-21,0h-6v-1h6Zm-21,0h-6v-1h6Zm-21,0h-6v-1h6Zm-21,0h-6v-1h6Zm-21,0h-6v-1h6Zm-21,0h-6v-1h6Zm-21,0h-6v-1h6Zm-21,0h-6v-1h6Zm-21,0h-6v-1h6Zm-21,0h-6v-1h6Zm-21,0h-6v-1h6Zm-21,0h-6v-1h6Zm-21,0h-6v-1h6Zm309,0v-1l6-.07v1Zm21-.36,0-1,6-.17,0,1Zm21-.79-.05-1c2-.11,4-.22,6-.35l.06,1C363.56,200.55,361.55,200.67,359.52,200.78Zm21-1.62-.11-1c2.16-.24,4.16-.51,5.94-.78l.15,1C384.71,198.65,382.7,198.91,380.52,199.16Zm783.54-2.53-.4-1c-.6-1.52-1.27-3-2-4.42l.89-.46c.74,1.44,1.43,3,2,4.51l.4,1Zm-763.47-3.51-.65-.76a58,58,0,0,0,4.25-4.16l.73.68A58.89,58.89,0,0,1,400.58,193.12Zm752.26-13.75a45.56,45.56,0,0,0-4.55-3.8l.59-.81a46.52,46.52,0,0,1,4.65,3.88Zm-738-1.75-.75-.66q1.91-2.19,4-4.49l.74.67C417.45,174.68,416.12,176.17,414.85,177.63Zm720.33-8.93c-1.83-.66-3.75-1.25-5.69-1.74l.25-1c2,.5,3.92,1.1,5.79,1.77ZM1114.74,165l-6-.08v-1l6,.08Zm-21.07-.27-6-.07v-1l6,.07Zm-21-.24-6-.07v-1l6,.07Zm-21-.22-6-.06v-1l6,.06Zm-21-.19-6,0v-1l6,0Zm-90.07-.1,0-1,6-.09v1Zm69-.06-6,0v-1l6,0Zm-21-.11-6,0v-1l6,0Zm-27,0v-1h6v1Zm-36-.63a39.23,39.23,0,0,1-5.82-1.65l.35-.94a38.21,38.21,0,0,0,5.67,1.61Zm-496.23-.71-.69-.73c1.48-1.4,3-2.76,4.46-4l.66.75C432.22,159.68,430.73,161,429.26,162.42Zm477.22-8.18-1.41-1c-1.16-.78-2.34-1.58-3.56-2.38l.55-.84c1.23.8,2.41,1.6,3.57,2.39l1.41,1Zm-461-5-.56-.83c1.67-1.14,3.37-2.24,5.06-3.26l.52.85C448.83,147,447.14,148.13,445.49,149.25Zm443-5.54c-1.79-.78-3.65-1.52-5.53-2.18l.33-.94c1.91.67,3.79,1.41,5.61,2.2ZM464,140.16l-.22-1c1.74-.39,3.73-.77,5.93-1.13l.16,1C467.73,139.4,465.76,139.77,464,140.16Zm404.53-2.36c-1.89-.35-3.87-.66-5.89-.93l.13-1c2,.27,4,.59,5.94.94Zm-383.8-.63-.1-1q2.88-.28,6-.54l.08,1Q487.65,136.89,484.77,137.17Zm363-1.57c-1.93-.08-3.94-.14-6-.17v-1c2,0,4.06.09,6,.17Zm-342.11,0-.06-1,6-.34.05,1Zm321.12-.28-6-.1,0-1,6,.1Zm-21-.37-6-.11,0-1,6,.11Zm-279.11-.37,0-1,6-.23,0,1Zm258.1,0-6-.11,0-1,6,.11Zm-21-.37-6-.1,0-1,6,.1Zm-216.1-.31,0-1,6-.15,0,1Zm195.09,0-6-.09v-1l6,.09Zm-21-.29-6-.08v-1l6,.08Zm-153.07-.14,0-1,6-.1,0,1Zm132.06-.1-6-.06v-1l6,.06Zm-111.06-.19v-1l6-.06v1Zm90,0-6,0v-1l6,0Zm-21-.13-6,0v-1l6,0Zm-48,0v-1l6,0v1Zm27,0h-6v-1h6Z"/><path class="h" d="M983.68,309.69s-.54-2.29-1.52-5.83l1-.27c1,3.56,1.52,5.84,1.53,5.87Zm-6-20.13c-.69-1.94-1.4-3.82-2.11-5.61l.93-.37c.71,1.8,1.43,3.69,2.12,5.64Zm-8.49-19.13a55.92,55.92,0,0,0-3.22-5l.81-.59a56.58,56.58,0,0,1,3.28,5.1ZM954.59,257a8.76,8.76,0,0,0-1-.05h-5v-1h5a9.77,9.77,0,0,1,1.07.06Zm-20.93-.05H931v-1h2.63Z"/><path class="f" d="M822.24,122.84H624.77c-.25,0-.46-.38-.46-.85s.2-.85.46-.85H822.24c.25,0,.46.38.46.85S822.49,122.84,822.24,122.84Z"/><path class="c" d="M361.1,379.38c0-74.27,58.48-134.48,130.61-134.48,64.53,0,104,48.19,114.54,111.52,1.25,7.46,0,15.13,0,23"/><rect class="f" x="253.37" y="339.89" width="218.61" height="1.7"/><rect class="f" x="253.37" y="307.88" width="218.61" height="1.7"/><rect class="f" x="253.37" y="368.5" width="195.41" height="1.7"/><rect class="h" x="475.5" y="446.52" width="357.12" height="92.94" rx="11.08" ry="11.08"/><path class="f" d="M823.44,540.48H484.68a10.21,10.21,0,0,1-10.2-10.2V455.7a10.21,10.21,0,0,1,10.2-10.2H823.44a10.21,10.21,0,0,1,10.2,10.2v74.58A10.21,10.21,0,0,1,823.44,540.48ZM484.68,447.54a8.17,8.17,0,0,0-8.16,8.16v74.58a8.17,8.17,0,0,0,8.16,8.16H823.44a8.17,8.17,0,0,0,8.16-8.16V455.7a8.17,8.17,0,0,0-8.16-8.16Z"/><path class="h" d="M452.22,539.46H321a10,10,0,0,1-10-10V476.27a9.34,9.34,0,1,1,0-18.3v-1.48a10,10,0,0,1,10-10H452.22a10,10,0,0,1,10,10v73A10,10,0,0,1,452.22,539.46Z"/><path class="f" d="M463.07,456.49v73a10.86,10.86,0,0,1-10.85,10.85H321a10.86,10.86,0,0,1-10.85-10.85v-52.2a10.26,10.26,0,1,1,0-20.45v-.36A10.86,10.86,0,0,1,321,445.64H452.22A10.86,10.86,0,0,1,463.07,456.49Zm-152.26,2.35a8.45,8.45,0,1,0,0,16.56l1.06-.22v54.31a9.09,9.09,0,0,0,9.08,9.08H452.22a9.09,9.09,0,0,0,9.08-9.08v-73a9.09,9.09,0,0,0-9.08-9.08H321a9.09,9.09,0,0,0-9.08,9.08v2.57Z"/><circle class="h" cx="278.01" cy="458.54" r="7.01" transform="translate(-166.96 159.29) rotate(-24.85)"/><path class="f" d="M280.73,451.14a7.84,7.84,0,1,1-3.16-.48A7.84,7.84,0,0,1,280.73,451.14Zm-.15,13a6.12,6.12,0,1,0-2.22.56A6.13,6.13,0,0,0,280.58,464.1Z"/><circle class="h" cx="258.57" cy="443.87" r="4.67" transform="translate(-162.59 149.76) rotate(-24.85)"/><path class="f" d="M260.48,438.65a5.52,5.52,0,1,1-2.22-.33A5.52,5.52,0,0,1,260.48,438.65Zm-.32,8.65a3.79,3.79,0,0,0,1.85-5h0a3.79,3.79,0,1,0-1.84,5Z"/><rect class="f" x="58.77" y="91.25" width="218.61" height="1.7"/><rect class="f" x="52.89" y="79.14" width="40.92" height="18.2"/><rect class="f" x="58.77" y="113.21" width="218.61" height="1.7"/><rect class="f" x="52.89" y="101.1" width="40.92" height="18.2"/><rect class="f" x="58.77" y="135.16" width="218.61" height="1.7"/><rect class="f" x="52.89" y="123.06" width="40.92" height="18.2"/><rect class="f" x="58.77" y="157.12" width="218.61" height="1.7"/><rect class="f" x="52.89" y="145.01" width="40.92" height="18.2"/><rect class="f" x="58.77" y="179.08" width="218.61" height="1.7"/><rect class="f" x="52.89" y="166.97" width="40.92" height="18.2"/><rect class="f" x="253.37" y="275.86" width="218.61" height="1.7"/><path class="f" d="M461.54,379.14a1.27,1.27,0,0,1-1.39,1.11H440a1.28,1.28,0,0,1-1.39-1.11v-1.66a1.27,1.27,0,0,1,1.39-1.11h20.11a1.27,1.27,0,0,1,1.39,1.11Z"/><path class="f" d="M453,377.77a1.22,1.22,0,0,1-1.32,1.07h-3.14a1.22,1.22,0,0,1-1.33-1.07V239.2a1.22,1.22,0,0,1,1.33-1.06h3.14A1.22,1.22,0,0,1,453,239.2Z"/><path class="h" d="M384.57,241.45a3.75,3.75,0,0,0-3.51,4V358a3.75,3.75,0,0,0,3.51,4h126a3.75,3.75,0,0,0,3.52-4V245.4a3.75,3.75,0,0,0-3.52-4Z"/><path class="f" d="M510.54,363.19h-126a5,5,0,0,1-4.75-5.19V245.4a5,5,0,0,1,4.75-5.19h126a5,5,0,0,1,4.75,5.19V358A5,5,0,0,1,510.54,363.19Zm-126-120.51a2.53,2.53,0,0,0-2.28,2.72V358a2.53,2.53,0,0,0,2.28,2.72h126a2.53,2.53,0,0,0,2.28-2.72V245.4a2.53,2.53,0,0,0-2.28-2.72Z"/><rect class="f" x="247.48" y="265.66" width="40.92" height="18.2"/><rect class="f" x="247.48" y="296.84" width="40.92" height="18.2"/><rect class="f" x="247.48" y="329.29" width="40.92" height="18.2"/><rect class="f" x="247.48" y="358.06" width="40.92" height="18.2"/><rect class="f" x="523.24" y="81.69" width="80.56" height="1.7"/><path class="f" d="M947.57,382.36H249.1c-.89,0-1.62-.39-1.62-.86s.72-.86,1.62-.86H947.57c.89,0,1.62.39,1.62.86S948.46,382.36,947.57,382.36Z"/><path class="c" d="M186,189.65c0-66,34.9-119.45,77.95-119.45,38.51,0,62,42.8,68.36,99.05.74,6.63,0,13.44,0,20.39"/><path class="j" d="M334.39,189.65h-4.08c0-58.59-28.81-106.25-64.23-106.25s-64.23,47.66-64.23,106.25h-4.08c0-29.3,7-56.87,19.71-77.64,12.9-21.08,30.16-32.69,48.6-32.69s35.7,11.61,48.6,32.69C327.39,132.78,334.39,160.35,334.39,189.65Z"/><path class="k" d="M239.45,90.9c0,1.16-2.47,3.92-6.65,4.69s-8-3.56-8-8,2.14-5.9,5.94-7.07c.09,0-2.81,5.1.12,8.47C234,92.61,239.45,90.9,239.45,90.9Z"/><path class="f" d="M231.79,95.85a6.26,6.26,0,0,1-4-1.53,8.91,8.91,0,0,1-3.1-6.69c0-4.49,2.22-6.05,6.06-7.24l.1,0,.07.08c.08.09.05.15,0,.37-1.51,3.36-1.45,6.23.17,8.1,3,3.46,8.31,1.83,8.36,1.82l.22-.07v.23c0,1.27-2.58,4.09-6.78,4.86A5.77,5.77,0,0,1,231.79,95.85Zm-1.3-15C226.94,82,225,83.47,225,87.63a8.56,8.56,0,0,0,3,6.43,5.78,5.78,0,0,0,4.78,1.36c3.93-.72,6.17-3.17,6.47-4.29-1.13.28-5.71,1.19-8.47-2C229.09,87.19,229,84.25,230.49,80.83Z"/><path class="l" d="M233.38,94.69a4.14,4.14,0,0,0-5.52-2.46,6.47,6.47,0,0,0-5.4-3A6.73,6.73,0,0,0,216,94.92c-2.19.92-4.12,2.55-4.12,4.32,0,3.59,3.57,5.57,8.69,5a32.52,32.52,0,0,0,5-.58,12.33,12.33,0,0,0,3.79.58c7.38,0,8.22-2.29,8.22-5.12C237.62,97.24,235.91,95.56,233.38,94.69Z"/><path class="f" d="M219,104.54a8.47,8.47,0,0,1-5.74-1.79,4.6,4.6,0,0,1-1.53-3.51c0-2,2.21-3.62,4.14-4.44a6.9,6.9,0,0,1,6.62-5.74,6.65,6.65,0,0,1,5.46,3,4.31,4.31,0,0,1,5.59,2.53c2.64.93,4.28,2.7,4.28,4.62,0,2.68-.65,5.29-8.39,5.29a12.45,12.45,0,0,1-3.79-.57,15.19,15.19,0,0,1-3.06.41c-.59,0-1.25.09-2,.16A15.93,15.93,0,0,1,219,104.54Zm3.48-15.15a6.56,6.56,0,0,0-6.3,5.55l0,.09-.08,0c-1.85.78-4,2.33-4,4.17a4.22,4.22,0,0,0,1.42,3.26c1.5,1.36,4,1.93,7.09,1.62.72-.07,1.39-.12,2-.16a14.53,14.53,0,0,0,3-.41l.05,0,.05,0a12.26,12.26,0,0,0,3.74.57c7.43,0,8-2.34,8-5,0-1.79-1.58-3.44-4.13-4.32l-.08,0,0-.08a4,4,0,0,0-5.3-2.36l-.13.06-.08-.12A6.32,6.32,0,0,0,222.46,89.4Z"/><path class="m" d="M216.56,104.29a4.91,4.91,0,0,1-.94-9.73,6.88,6.88,0,0,1,9.23-5.34c0-.15-.05-.3-.07-.45a8,8,0,0,1,6.72-8.93.28.28,0,0,1,.23.49A6.36,6.36,0,0,0,239.86,90a.28.28,0,0,1,.39.08.28.28,0,0,1,0,.25h0a8,8,0,0,1-4.7,4.88,4.91,4.91,0,0,1-2.6,9.08Zm22.68-18.24a.28.28,0,0,0-.54,0l-.31,1-1,.31h0a.28.28,0,0,0,0,.54l1,.31.31,1h0a.28.28,0,0,0,.54,0l.31-1,1-.31h0a.28.28,0,0,0,0-.54l-1-.31-.31-1Zm-.18,1.32-.09-.28-.09.28h0a.28.28,0,0,1-.19.19l-.28.09.28.09h0a.28.28,0,0,1,.19.19l.09.28.09-.28h0a.28.28,0,0,1,.19-.19l.28-.09-.28-.08h0a.28.28,0,0,1-.19-.19Zm-2.79-6.76a.28.28,0,0,0-.54,0l-.63,2.06L233,83.3h0a.28.28,0,0,0-.19.19.28.28,0,0,0,.19.35l2.06.63.63,2.06h0a.28.28,0,0,0,.54,0l.63-2.06,2.06-.63h0a.28.28,0,0,0,0-.54l-2.06-.63-.63-2.06Zm.14,2.37L236,81.65,235.59,83h0a.28.28,0,0,1-.19.19l-1.32.41,1.32.41h0a.28.28,0,0,1,.19.19l.41,1.32.41-1.32h0a.28.28,0,0,1,.19-.19l1.32-.41-1.32-.41h0a.28.28,0,0,1-.19-.19ZM226,89.8h.22l0,0h0a6.71,6.71,0,0,1,.6.47l0,0,0,0,0,0h0l.05,0h0l0,0h0l0,0h0l0,0h0l0,0h0l0,0h0l0,0h0a7.13,7.13,0,0,1,.63.73h.5a5,5,0,0,1,.71-.05,4.88,4.88,0,0,1,2.85.91l0,0,0,0,0,0,0,0,0,0,0,0,0,0,0,0,0,0,0,0,0,0,0,0,0,0,0,0,0,0,0,0,0,0,0,0,0,0,0,0,0,0,0,0,0,0,0,0,0,0,0,0,0,0h0l0,0h0l0,0h0l0,0h0l0,0,0,0h0l0,0,0,0,0,0,0,0h0l0,0,0,0h0l0,0,0,0,0,0,0,0,0,0,0,0,0,0,0,0,0,0,0,0,0,0,0,0,0,0h0l0,0h0l0,0,0,0,0,0,0,0,0,0,0,0,0,0h0l0,0,0,0,0,0,0,0,0,0h.38l.19,0,.06,0h.24l.33.12a7.44,7.44,0,0,0,4.55-4,6.72,6.72,0,0,1-1.11.45,6.93,6.93,0,0,1-7.55-10.79,7.44,7.44,0,0,0-5.51,7.19,7.53,7.53,0,0,0,.06.95,7.64,7.64,0,0,0,.15.8q.28.14.55.31Zm8.35,5.46-.25-.08-.13,0h-.53l-.09,0h0a.29.29,0,0,1-.12-.15,4.35,4.35,0,0,0-4.11-2.94,4.31,4.31,0,0,0-1.24.18.28.28,0,0,1-.32-.12,6.45,6.45,0,0,0-.63-.75h0l0,0,0,0h0l0,0h0l0,0h0l0,0h0l0,0h0l0,0h0l0,0,0,0h0l0,0h0q-.24-.22-.51-.41h0l-.06,0h-.27a6.29,6.29,0,0,0-.64-.35h0a6.32,6.32,0,0,0-9,4.88.28.28,0,0,1-.24.26,4.35,4.35,0,0,0,.65,8.64H233a4.35,4.35,0,0,0,1.61-8.38h-.23Z"/><path class="f" d="M233,104.63H216.56a5.25,5.25,0,0,1-4-8.67,5.28,5.28,0,0,1,2.75-1.68,7.22,7.22,0,0,1,9.1-5.56,8.34,8.34,0,0,1,7-9.22.62.62,0,0,1,.71.52.62.62,0,0,1-.19.55,6,6,0,0,0,7.71,9.16.62.62,0,0,1,.86.17l.05.1h.17l-.15.45a8.38,8.38,0,0,1-4.33,4.84,5.3,5.3,0,0,1,.62.59,5.25,5.25,0,0,1-3.91,8.76Zm-10.59-15a6,6,0,0,0-5.92,5.19.62.62,0,0,1-.53.56,4,4,0,0,0,.6,8H233a4,4,0,0,0,1.53-7.71h0l-.22-.09h0l-.23-.07-.55-.11h-.05a.61.61,0,0,1-.19,0l-.08,0a.62.62,0,0,1-.26-.33A4,4,0,0,0,228,92.44a.62.62,0,0,1-.7-.26,6.11,6.11,0,0,0-.58-.7l-.33-.32c-.14-.12-.29-.24-.44-.35l-.27-.19.16-.3-.2.28a6,6,0,0,0-.64-.35l0,0A5.93,5.93,0,0,0,222.41,89.68Zm12,5.6-.06.17,0-.06Zm-.49-.23v.09l0-.12Zm0-.51v0Zm-.07-.1v.11l0-.12Zm.74,0h0l.23.08a7.11,7.11,0,0,0,3.76-2.9l-.24.08A7.27,7.27,0,0,1,229.59,82a7.08,7.08,0,0,1,.39-.81,7.11,7.11,0,0,0-4.36,6.55,7.2,7.2,0,0,0,.06.9c0,.21.06.42.11.61l.42.24.1.06h0l.33.23c.18.13.35.27.52.41l-.19.29.22-.26.1.09-.19.29.22-.26,0,0-.21.27.24-.24-.21.27.24-.24.1.1a7.67,7.67,0,0,1,.54.6l.2,0h.09a5.29,5.29,0,0,1,.78-.06,5.21,5.21,0,0,1,3,1l1,.9.62.91.23.41.18,0,.2.05ZM227,91l-.14.18L227,91Zm-.07-.07-.13.18.22-.25h0l0,0,.13-.18-.24.24Zm0-.17,0,0,.13-.18Zm-.14-.12,0,0,.12-.19Zm-.62-.75-.07.1h0Zm0,0,0,.07h0ZM239,89.78l-.18,0a.62.62,0,0,1-.4-.37l0,0-.26-.84-.84-.26a.62.62,0,0,1-.08-1.16h0l.91-.28.26-.84a.62.62,0,0,1,1.16-.08h0l.28.91.84.26a.62.62,0,0,1,0,1.18h0l-.84.26-.26.84A.62.62,0,0,1,239,89.78Zm-3-2.71-.18,0a.62.62,0,0,1-.41-.41l-.58-1.89-1.89-.58a.62.62,0,0,1-.11-1.14v0l2-.61.58-1.89a.62.62,0,0,1,1.19,0l.58,1.89,1.89.58a.62.62,0,0,1,0,1.19l-1.89.58-.58,1.89a.62.62,0,0,1-.59.44Zm-.54-3.43.05,0a.62.62,0,0,1,.41.41l.08.27.08-.27a.62.62,0,0,1,.41-.41l.27-.08-.27-.08a.62.62,0,0,1-.41-.41l-.08-.27-.08.27a.63.63,0,0,1-.41.41l-.27.08Z"/><circle class="j" cx="206.41" cy="136.32" r="12.29"/><path class="f" d="M206.41,148.95A12.63,12.63,0,1,1,219,136.32,12.64,12.64,0,0,1,206.41,148.95Zm0-24.57a11.95,11.95,0,1,0,11.95,11.95A12,12,0,0,0,206.41,124.38Z"/><path class="m" d="M206.49,124.09a11.92,11.92,0,1,0,8.43,3.49,11.88,11.88,0,0,0-8.43-3.49Zm-7.65,24.3a.44.44,0,0,1,.76.44l-2.15,3.72a.44.44,0,1,1-.76-.44l2.15-3.72Zm-5.17-5.49a.44.44,0,1,1,.44.76l-3.72,2.15a.44.44,0,0,1-.44-.76l3.72-2.15Zm-1.73-7.33a.44.44,0,0,1,0,.88h-4.3a.44.44,0,1,1,0-.88Zm2.16-7.21a.44.44,0,1,1-.43.76L190,127a.44.44,0,0,1,.43-.76l3.72,2.15Zm5.49-5.16a.44.44,0,0,1-.76.44l-2.15-3.72a.44.44,0,0,1,.76-.44l2.15,3.72Zm6.46,27.37a.44.44,0,1,1,.88,0v4.3a.44.44,0,0,1-.88,0v-4.3Zm7.33-1.73a.44.44,0,0,1,.76-.44l2.15,3.72a.44.44,0,1,1-.76.44l-2.15-3.72Zm5.48-5.17a.44.44,0,0,1,.44-.76l3.72,2.15a.44.44,0,1,1-.44.76l-3.72-2.15Zm2.17-7.22a.44.44,0,0,1,0-.88h4.3a.44.44,0,0,1,0,.88Zm-1.73-7.33a.44.44,0,0,1-.44-.76l3.72-2.15a.44.44,0,1,1,.44.76l-3.72,2.15Zm-5.16-5.49a.44.44,0,0,1-.76-.44l2.15-3.72a.44.44,0,1,1,.76.44l-2.15,3.72Zm-7.22-2.17a.44.44,0,0,1-.88,0v-4.3a.44.44,0,0,1,.88,0v4.3Zm-9.49,5.5A12.8,12.8,0,1,1,193.7,136,12.76,12.76,0,0,1,197.44,127Z"/><path class="f" d="M206.49,155.64a.78.78,0,0,1-.78-.78v-4.3a.78.78,0,1,1,1.56,0v4.3A.78.78,0,0,1,206.49,155.64Zm0-5.17a.1.1,0,0,0-.1.1v4.3a.1.1,0,0,0,.1.1.1.1,0,0,0,.1-.1v-4.3A.1.1,0,0,0,206.49,150.46Zm9.43,2.65-.2,0a.77.77,0,0,1-.47-.36L213.1,149a.78.78,0,0,1,.29-1.06.78.78,0,0,1,1.06.28l2.15,3.72a.77.77,0,0,1,.08.59.78.78,0,0,1-.75.58Zm-2.23-4.45,2.15,3.72a.1.1,0,0,0,.06,0,.1.1,0,0,0,.12-.07.09.09,0,0,0,0-.07l-2.15-3.72a.1.1,0,0,0-.13,0A.1.1,0,0,0,213.69,148.67Zm-16.62,4.45a.77.77,0,0,1-.39-.1.78.78,0,0,1-.29-1.06l2.15-3.72a.77.77,0,0,1,.48-.36.77.77,0,0,1,.59.08.78.78,0,0,1,.28,1.06l-2.15,3.72A.78.78,0,0,1,197.07,153.11Zm2.07-4.55L197,152.29a.1.1,0,0,0,0,.14.1.1,0,0,0,.13,0l2.15-3.72a.1.1,0,0,0,0-.13.09.09,0,0,0-.07,0,.1.1,0,0,0-.06,0Zm7.36.59a13.14,13.14,0,0,1-9.29-22.43h0a13.14,13.14,0,1,1,9.29,22.43Zm0-25.6a12.37,12.37,0,0,0-8.81,3.65h0a12.46,12.46,0,1,0,8.81-3.65Zm0,24.72a12.26,12.26,0,1,1,8.67-3.59A12.18,12.18,0,0,1,206.49,148.27Zm0-23.84a11.58,11.58,0,1,0,8.19,3.39A11.5,11.5,0,0,0,206.49,124.43Zm-16.32,21.78-.21,0a.78.78,0,0,1-.55-1,.78.78,0,0,1,.36-.47l3.72-2.15a.78.78,0,0,1,.78,1.35l-3.72,2.15A.77.77,0,0,1,190.17,146.22Zm3.67-3-3.72,2.15a.1.1,0,0,0,0,.06.09.09,0,0,0,0,.07.09.09,0,0,0,.06,0,.1.1,0,0,0,.08,0l3.72-2.15a.1.1,0,0,0,0-.13A.1.1,0,0,0,193.84,143.2Zm29,3a.77.77,0,0,1-.39-.1L218.7,144a.78.78,0,0,1,.19-1.43.77.77,0,0,1,.59.08l3.72,2.15a.78.78,0,0,1-.39,1.45ZM219,143.37l3.72,2.15a.1.1,0,0,0,.14,0,.1.1,0,0,0,0-.13l-3.72-2.15a.09.09,0,0,0-.07,0,.1.1,0,0,0,0,.18Zm6.29-6.58H221a.78.78,0,0,1,0-1.56h4.3a.78.78,0,0,1,0,1.56Zm-4.3-.88a.1.1,0,0,0,0,.2h4.3a.1.1,0,0,0,0-.2Zm-29.1.88h-4.3a.78.78,0,1,1,0-1.56h4.3a.78.78,0,0,1,0,1.56Zm-4.3-.88a.1.1,0,1,0,0,.2h4.3a.1.1,0,0,0,0-.2Zm31.45-6.4a.78.78,0,0,1-.39-1.45l3.72-2.15a.78.78,0,0,1,.78,1.35l-3.72,2.15A.77.77,0,0,1,219.1,129.52Zm3.72-3h0L219,128.65a.1.1,0,0,0,0,.13.1.1,0,0,0,.13,0l3.72-2.15a.1.1,0,0,0-.05-.18Zm-28.92,3a.77.77,0,0,1-.38-.1l-3.72-2.15a.78.78,0,1,1,.77-1.35l3.72,2.15a.78.78,0,0,1,.29,1.06A.78.78,0,0,1,193.89,129.52Zm-3.72-3h0a.09.09,0,0,0-.06,0,.1.1,0,0,0,0,.08.1.1,0,0,0,0,.06l3.72,2.15a.1.1,0,0,0,.13,0,.1.1,0,0,0,0-.07.09.09,0,0,0,0-.06h0l-3.72-2.15Zm9-2.3-.2,0a.77.77,0,0,1-.47-.36l-2.15-3.72a.78.78,0,0,1,1.35-.78l2.15,3.72a.78.78,0,0,1-.29,1.06A.77.77,0,0,1,199.22,124.19Zm-2.15-4.6h0a.1.1,0,0,0,0,.06.1.1,0,0,0,0,.07l2.15,3.72a.1.1,0,0,0,.06,0,.1.1,0,0,0,.11-.15l-2.15-3.72A.1.1,0,0,0,197.07,119.59Zm16.7,4.6a.78.78,0,0,1-.67-1.17l2.15-3.72a.78.78,0,1,1,1.35.78l-2.15,3.72a.77.77,0,0,1-.47.36Zm2.15-4.6h0a.1.1,0,0,0-.06,0l-2.15,3.72a.1.1,0,0,0,0,.07.09.09,0,0,0,0,.06.1.1,0,0,0,.14,0l2.15-3.72a.09.09,0,0,0,0-.07.1.1,0,0,0,0-.06Zm-9.42,2.65a.78.78,0,0,1-.78-.78v-4.3a.78.78,0,1,1,1.56,0v4.3A.78.78,0,0,1,206.49,122.25Zm0-5.17a.1.1,0,0,0-.1.1v4.3a.1.1,0,0,0,.1.1.1.1,0,0,0,.1-.1v-4.3A.1.1,0,0,0,206.49,117.07Z"/><path class="l" d="M204.65,174.4a4.59,4.59,0,0,0-6.12-2.72,7.17,7.17,0,0,0-6-3.32,7.45,7.45,0,0,0-7.16,6.3c-2.43,1-4,2.75-4,4.71,0,4,4.07,5.67,9.1,5.67a19.35,19.35,0,0,0,5.59-.64,13.66,13.66,0,0,0,4.2.64c8.17,0,9.1-2.54,9.1-5.67C209.35,177.23,207.45,175.37,204.65,174.4Z"/><path class="f" d="M200.25,185.21a13.75,13.75,0,0,1-4.2-.63,19.69,19.69,0,0,1-5.58.63c-5.8,0-9.27-2.18-9.27-5.84,0-1.94,1.51-3.74,4-4.83a7.62,7.62,0,0,1,7.31-6.35,7.34,7.34,0,0,1,6,3.28,4.76,4.76,0,0,1,6.18,2.8c2.92,1,4.73,3,4.73,5.1C209.52,182.32,208.8,185.21,200.25,185.21Zm-4.2-1,.05,0a13.59,13.59,0,0,0,4.15.63c8.25,0,8.93-2.6,8.93-5.5,0-2-1.76-3.83-4.58-4.8l-.08,0,0-.08a4.42,4.42,0,0,0-5.89-2.62l-.13.06-.08-.12a7,7,0,0,0-5.83-3.25,7.29,7.29,0,0,0-7,6.16l0,.09-.08,0c-2.46,1-3.93,2.73-3.93,4.55,0,3.44,3.34,5.5,8.93,5.5a19.2,19.2,0,0,0,5.54-.63Z"/><path class="n" d="M209.38,171.65c0,3.77-1.82,4.52-1.82,4.52-1.35-.6-2.5-2.19-4.87-3.86s-4.19-.64-7-2.93a7.06,7.06,0,0,1,13.65,2.28Z"/><path class="f" d="M207.56,176.36l-.07,0a9.23,9.23,0,0,1-2.24-1.69,26.58,26.58,0,0,0-2.66-2.19,7.14,7.14,0,0,0-2.86-1.1,8.43,8.43,0,0,1-4.1-1.85l-.1-.08,0-.12a7.08,7.08,0,0,1,7-4.66,7,7,0,0,1,7,7c0,3.84-1.85,4.64-1.93,4.67Zm-11.62-7a8.16,8.16,0,0,0,3.86,1.7,7.41,7.41,0,0,1,3,1.15,26.89,26.89,0,0,1,2.69,2.21,9.5,9.5,0,0,0,2.08,1.6c.31-.17,1.66-1.12,1.66-4.33a6.67,6.67,0,0,0-6.66-6.66A6.74,6.74,0,0,0,195.94,169.32Z"/><path class="m" d="M207.56,176.17h0l-.34-.28a4.8,4.8,0,0,0-.47-.3,5,5,0,0,0-.5-.24,4.63,4.63,0,0,0-1.31-.34.32.32,0,0,1-.28-.22c0-.1-.07-.18-.1-.27l-.12-.27a4.74,4.74,0,0,0-1.74-1.94,4.68,4.68,0,0,0-2.5-.72h-.41l-.47.06-.45.11a.32.32,0,0,1-.36-.12,6.83,6.83,0,0,0-.79-.93,6.9,6.9,0,0,0-.94-.77c-.16-.11-.33-.22-.5-.31l-.5-.26,0,0a6.86,6.86,0,0,0-9.63,5.34.32.32,0,0,1-.27.3,4.72,4.72,0,0,0,.7,9.38h17.89a4.72,4.72,0,0,0,3.15-8.23Zm.17-.7-.14-.11a5.34,5.34,0,0,0-.53-.34,5.54,5.54,0,0,0-.56-.28,5.26,5.26,0,0,0-1.3-.36l0-.12L205,174a5.39,5.39,0,0,0-2-2.2,5.33,5.33,0,0,0-2.83-.81h-.46l-.54.07-.31.07a7.55,7.55,0,0,0-1.75-1.68c-.17-.12-.35-.23-.54-.34l-.3-.16a6.64,6.64,0,1,1,11.43,6.54Zm1.56-1.53a7.34,7.34,0,0,1-1.08,2,5.36,5.36,0,0,1-3.79,9.14H186.53a5.36,5.36,0,0,1-1-10.61,7.49,7.49,0,0,1,10.21-5.75,7.28,7.28,0,0,1,13.58,5.27Zm-13.78-6.87-2.1-1.21a.32.32,0,1,0-.32.55l2.1,1.21a.32.32,0,0,0,.44-.12.32.32,0,0,0-.11-.44Zm3.11-2.88-1.21-2.1a.32.32,0,0,0-.55.32l1.21,2.1a.32.32,0,1,0,.55-.32Zm10.76,11.63,2.1,1.21a.32.32,0,0,0,.32-.55l-2.1-1.21a.32.32,0,0,0-.32.55Zm1.26-4.05a.32.32,0,0,1,0-.64h2.42a.32.32,0,0,1,0,.64Zm-.94-4.14,2.1-1.21a.32.32,0,0,0-.32-.55l-2.1,1.21a.32.32,0,1,0,.32.55Zm-2.88-3.12,1.21-2.1a.32.32,0,0,0-.55-.32l-1.21,2.1a.32.32,0,1,0,.55.32Zm-4.05-1.26a.32.32,0,1,1-.64,0v-2.42a.32.32,0,1,1,.64,0Z"/><path class="f" d="M204.41,185.38H186.53a5.7,5.7,0,0,1-4.32-9.41,5.74,5.74,0,0,1,3-1.83,7.83,7.83,0,0,1,7.69-6.35h0a7.74,7.74,0,0,1,2.63.45l.16-.33-.17.07a.65.65,0,0,1-.5-.07l-2.09-1.21a.66.66,0,0,1,.66-1.14l2.1,1.21a.66.66,0,0,1,.33.58,7.65,7.65,0,0,1,2.06-2.15l.3-.2-.18,0a.65.65,0,0,1-.4-.31l-1.21-2.09a.66.66,0,0,1,1.14-.66l1.21,2.1a.66.66,0,0,1,0,.67,7.57,7.57,0,0,1,3.21-.86.66.66,0,0,1-.34-.58v-2.42a.66.66,0,1,1,1.32,0v2.42a.66.66,0,0,1-.34.58,7.57,7.57,0,0,1,3.21.86.66.66,0,0,1,0-.67l1.21-2.09a.66.66,0,0,1,1.14.66l-1.21,2.1a.66.66,0,0,1-.4.31l-.18,0a7.73,7.73,0,0,1,2.35,2.35.67.67,0,0,1,0-.18.66.66,0,0,1,.31-.4l2.1-1.21a.66.66,0,0,1,.66,1.14l-2.1,1.21a.66.66,0,0,1-.5.07l-.17-.07a7.57,7.57,0,0,1,.85,3.21.66.66,0,0,1,.58-.34h2.42a.66.66,0,0,1,0,1.32h-2.42a.66.66,0,0,1-.58-.34,7.65,7.65,0,0,1-.45,2.29h0a7.65,7.65,0,0,1-.41.92l.17-.07a.65.65,0,0,1,.5.06l2.1,1.21a.66.66,0,0,1-.66,1.14l-2.1-1.21a.66.66,0,0,1-.33-.59l-.24.35a5.7,5.7,0,0,1-4.23,9.51ZM192.9,169.1a6.52,6.52,0,0,0-6.46,5.66.65.65,0,0,1-.56.59,4.38,4.38,0,0,0,.65,8.7h17.89a4.38,4.38,0,0,0,2.92-7.64h0l-.32-.26a4.52,4.52,0,0,0-.43-.28,4.66,4.66,0,0,0-.46-.23,4.31,4.31,0,0,0-1.21-.31.65.65,0,0,1-.57-.45c0-.09-.06-.17-.09-.25l-.11-.25a4.39,4.39,0,0,0-1.62-1.8,4.35,4.35,0,0,0-2.22-.66h-.47l-.44.06-.42.1a.66.66,0,0,1-.74-.25,6.55,6.55,0,0,0-1.64-1.61l-.47-.29-.47-.25-.06,0a6.55,6.55,0,0,0-2.68-.57Zm18.75,7.63h0l.15-.26Zm-6.22-2.65.41.09a6,6,0,0,1,.79.27,5.89,5.89,0,0,1,.6.29l.43.27a6.25,6.25,0,0,0,1.1-3.56,6.3,6.3,0,0,0-12-2.66l0,0c.2.11.39.23.57.35a7.89,7.89,0,0,1,1.7,1.58l.11,0,.57-.08h.83a5.71,5.71,0,0,1,4.78,3.19Zm-7.07-9.75h0Zm-1.25-2.08-.26.15.26-.15Z"/><rect class="g" x="767.68" y="332.85" width="206.37" height="22.1"/><path class="h" d="M832.27,345.66H829V344h3.29Zm-16.89,0h-6.8V344h6.8Zm-20.4,0h-6.8V344H795Zm-20.4,0h-6.8V344h6.8Z"/><polygon class="h" points="620.96 289.58 522.74 289.58 537.9 251.57 620.96 249.79 620.96 289.58"/><rect class="o" x="1120.22" y="125.36" width="3.36" height="27.33"/><circle class="p" cx="1121.7" cy="103.51" r="2.4"/><circle class="j" cx="1028.42" cy="386.73" r="9.19"/><path class="f" d="M1028.42,396.26a9.53,9.53,0,1,1,9.53-9.53A9.54,9.54,0,0,1,1028.42,396.26Zm0-18.37a8.85,8.85,0,1,0,8.85,8.85A8.86,8.86,0,0,0,1028.42,377.88Z"/><path class="m" d="M1028.48,377.59a8.91,8.91,0,1,0,6.3,2.61,8.88,8.88,0,0,0-6.3-2.61Zm-5.72,18.17a.33.33,0,0,1,.57.33l-1.61,2.78a.33.33,0,1,1-.57-.33l1.61-2.78Zm-3.86-4.1a.33.33,0,1,1,.33.57l-2.78,1.61a.33.33,0,0,1-.33-.57l2.78-1.61Zm-1.29-5.48a.33.33,0,0,1,0,.66h-3.21a.33.33,0,1,1,0-.66Zm1.62-5.39a.33.33,0,1,1-.32.57l-2.78-1.61a.33.33,0,0,1,.32-.57l2.78,1.61Zm4.1-3.86a.33.33,0,0,1-.57.33l-1.61-2.78a.33.33,0,0,1,.57-.33l1.61,2.78Zm4.83,20.46a.33.33,0,1,1,.66,0v3.21a.33.33,0,0,1-.66,0v-3.21Zm5.48-1.29a.33.33,0,0,1,.57-.33l1.61,2.78a.33.33,0,1,1-.57.33l-1.61-2.78Zm4.1-3.86a.33.33,0,0,1,.33-.57l2.78,1.61a.33.33,0,1,1-.33.57l-2.78-1.61Zm1.62-5.39a.33.33,0,0,1,0-.66h3.21a.33.33,0,0,1,0,.66Zm-1.29-5.48a.33.33,0,0,1-.33-.57l2.78-1.61a.33.33,0,1,1,.33.57l-2.78,1.61Zm-3.86-4.1a.33.33,0,0,1-.57-.33l1.61-2.78a.33.33,0,1,1,.57.33l-1.61,2.78Zm-5.4-1.62a.33.33,0,0,1-.66,0v-3.21a.33.33,0,0,1,.66,0v3.21Zm-7.09,4.11a9.57,9.57,0,1,1-2.8,6.77A9.54,9.54,0,0,1,1021.72,379.73Z"/><path class="f" d="M1028.48,401.26a.67.67,0,0,1-.67-.67v-3.21a.67.67,0,1,1,1.34,0v3.21A.67.67,0,0,1,1028.48,401.26Zm7-1.89-.17,0a.66.66,0,0,1-.41-.31l-1.61-2.78a.67.67,0,0,1,.25-.91.65.65,0,0,1,.5-.07.66.66,0,0,1,.41.31l1.61,2.78a.66.66,0,0,1,.07.51.67.67,0,0,1-.64.5Zm-1.62-3.44-.27.16.27-.16Zm-12.48,3.44a.66.66,0,0,1-.33-.09.67.67,0,0,1-.25-.91l1.61-2.78a.67.67,0,0,1,1.16.67L1022,399A.67.67,0,0,1,1021.43,399.37Zm7-3a9.91,9.91,0,1,1,7-2.9A9.84,9.84,0,0,1,1028.48,396.41Zm0-18.48a8.57,8.57,0,1,0,6.06,2.51A8.51,8.51,0,0,0,1028.48,377.93Zm-6.77,1.81.22.22h0Zm-5.44,14.48-.18,0a.66.66,0,0,1-.4-.31.67.67,0,0,1,.24-.91l2.78-1.61a.67.67,0,0,1,.67,1.16l-2.78,1.61A.66.66,0,0,1,1016.28,394.21Zm2.62-2.56.16.27Zm21.79,2.56a.66.66,0,0,1-.33-.09l-2.78-1.61a.67.67,0,0,1,.67-1.16L1041,393a.67.67,0,0,1-.34,1.25Zm1.89-7h-3.21a.67.67,0,0,1,0-1.34h3.21a.67.67,0,0,1,0,1.34Zm-25,0h-3.21a.67.67,0,1,1,0-1.34h3.21a.67.67,0,0,1,0,1.34Zm20.3-5.44a.67.67,0,0,1-.34-1.24l2.78-1.61A.67.67,0,1,1,1041,380l-2.78,1.61A.66.66,0,0,1,1037.9,381.73Zm-18.85,0a.66.66,0,0,1-.33-.09l-2.78-1.61a.67.67,0,1,1,.67-1.16l2.78,1.6a.67.67,0,0,1-.33,1.24Zm0-.68h0Zm4-3.3-.18,0a.66.66,0,0,1-.4-.31l-1.61-2.78A.67.67,0,0,1,1022,374l1.61,2.79a.67.67,0,0,1-.25.91A.66.66,0,0,1,1023,377.75Zm0-.67h0l.27-.16Zm10.87.67a.67.67,0,0,1-.58-1l1.61-2.78a.67.67,0,1,1,1.15.67l-1.6,2.78a.66.66,0,0,1-.41.31Zm-5.44-1.46a.67.67,0,0,1-.67-.67v-3.21a.67.67,0,1,1,1.34,0v3.21A.67.67,0,0,1,1028.48,376.29Z"/><path class="h" d="M852.47,46.48H730.37a10,10,0,0,0-10,10v7a9.34,9.34,0,1,0,0,18.3V182.34a10,10,0,0,0,10,10H852.47a10,10,0,0,0,10-10V56.45A10,10,0,0,0,852.47,46.48Z"/><path class="f" d="M852.47,193.19H730.37a10.86,10.86,0,0,1-10.85-10.85V82.79a10.22,10.22,0,1,1,0-20.35v-6A10.86,10.86,0,0,1,730.37,45.6H852.47a10.86,10.86,0,0,1,10.85,10.85V182.34A10.86,10.86,0,0,1,852.47,193.19ZM721.29,80.68V182.34a9.09,9.09,0,0,0,9.08,9.08H852.47a9.09,9.09,0,0,0,9.08-9.08V56.45a9.09,9.09,0,0,0-9.08-9.08H730.37a9.09,9.09,0,0,0-9.08,9.08v8.1l-1.06-.22a8.45,8.45,0,1,0,0,16.56Z"/><circle class="h" cx="696.67" cy="77.26" r="7.01" transform="translate(367.73 696.23) rotate(-68.34)"/><path class="f" d="M696.67,85.16a7.91,7.91,0,1,1,3.13-.65A7.89,7.89,0,0,1,696.67,85.16Zm0-14a6.12,6.12,0,1,0,2.25.43A6.13,6.13,0,0,0,696.68,71.14Z"/><circle class="h" cx="680.5" cy="82.54" r="4.67" transform="translate(352.62 684.53) rotate(-68.34)"/><path class="f" d="M680.51,88.1a5.57,5.57,0,1,1,2.2-.46A5.56,5.56,0,0,1,680.51,88.1Zm0-9.35A3.79,3.79,0,1,0,684,83.94h0a3.79,3.79,0,0,0-3.52-5.19Z"/><path class="f" d="M1125.67,153h-2.09V124.8a.42.42,0,0,0-.42-.42h-1V108.65h1.51a2.35,2.35,0,0,0,2.35-2.35V86.88a2.35,2.35,0,0,0-2.35-2.35h-3.89a2.35,2.35,0,0,0-2.35,2.35V106.3a2.35,2.35,0,0,0,2.35,2.35h1.55v15.73h-1a.41.41,0,0,0-.42.42V153h-2.09a.41.41,0,1,0,0,.83h7.9a.41.41,0,1,0,0-.83Zm-7.44-46.72V86.88a1.52,1.52,0,0,1,1.52-1.52h3.89a1.52,1.52,0,0,1,1.52,1.52V106.3a1.52,1.52,0,0,1-1.52,1.52h-3.89A1.52,1.52,0,0,1,1118.24,106.3ZM1120.7,153V125.21h2.06V153Z"/><path class="f" d="M1125.67,154.1h-7.9a.67.67,0,1,1,0-1.34h1.84v-28a.67.67,0,0,1,.67-.67h.77V108.91h-1.29a2.61,2.61,0,0,1-2.61-2.61V86.88a2.61,2.61,0,0,1,2.61-2.61h3.89a2.61,2.61,0,0,1,2.61,2.61V106.3a2.61,2.61,0,0,1-2.61,2.61h-1.26v15.22h.77a.67.67,0,0,1,.67.67v28h1.84a.67.67,0,1,1,0,1.34Zm-7.9-.83a.16.16,0,1,0,0,.32h7.9a.16.16,0,1,0,0-.32h-2.35V124.8a.16.16,0,0,0-.16-.16h-1.28V108.4h1.77a2.1,2.1,0,0,0,2.1-2.1V86.88a2.1,2.1,0,0,0-2.1-2.1h-3.89a2.1,2.1,0,0,0-2.1,2.1V106.3a2.1,2.1,0,0,0,2.1,2.1h1.8v16.24h-1.28a.16.16,0,0,0-.16.16v28.48Zm5.23,0h-2.57V125H1123Zm-2.06-.51h1.55v-27.3H1121Zm2.7-44.69h-3.89a1.78,1.78,0,0,1-1.78-1.78V86.88a1.78,1.78,0,0,1,1.78-1.78h3.89a1.78,1.78,0,0,1,1.78,1.78V106.3A1.78,1.78,0,0,1,1123.65,108.08Zm-3.89-22.46a1.27,1.27,0,0,0-1.27,1.27V106.3a1.27,1.27,0,0,0,1.27,1.27h3.89a1.27,1.27,0,0,0,1.27-1.27V86.88a1.27,1.27,0,0,0-1.27-1.27Z"/><path class="f" d="M1121.7,92.37a2.75,2.75,0,1,0-2.75-2.75A2.75,2.75,0,0,0,1121.7,92.37Zm0-4.72a2,2,0,1,1-2,2A2,2,0,0,1,1121.7,87.66Z"/><path class="f" d="M1121.7,92.63a3,3,0,1,1,3-3A3,3,0,0,1,1121.7,92.63Zm0-5.5a2.5,2.5,0,1,0,2.5,2.49A2.5,2.5,0,0,0,1121.7,87.13Zm0,4.72a2.22,2.22,0,1,1,2.22-2.22A2.23,2.23,0,0,1,1121.7,91.84Zm0-3.93a1.71,1.71,0,1,0,1.71,1.71A1.71,1.71,0,0,0,1121.7,87.91Z"/><path class="f" d="M1121.7,99.31a2.75,2.75,0,1,0-2.75-2.75A2.75,2.75,0,0,0,1121.7,99.31Zm0-4.72a2,2,0,1,1-2,2A2,2,0,0,1,1121.7,94.6Z"/><path class="f" d="M1121.7,99.57a3,3,0,1,1,3-3A3,3,0,0,1,1121.7,99.57Zm0-5.5a2.5,2.5,0,1,0,2.5,2.49A2.5,2.5,0,0,0,1121.7,94.07Zm0,4.72a2.22,2.22,0,1,1,2.22-2.22A2.22,2.22,0,0,1,1121.7,98.79Zm0-3.93a1.71,1.71,0,1,0,1.71,1.71A1.71,1.71,0,0,0,1121.7,94.85Z"/><path class="f" d="M1124.46,103.51a2.75,2.75,0,1,0-2.75,2.75A2.75,2.75,0,0,0,1124.46,103.51Zm-2.75,2a2,2,0,1,1,2-2A2,2,0,0,1,1121.7,105.47Z"/><path class="f" d="M1121.7,106.51a3,3,0,1,1,3-3A3,3,0,0,1,1121.7,106.51Zm0-5.5a2.5,2.5,0,1,0,2.5,2.5A2.5,2.5,0,0,0,1121.7,101Zm0,4.72a2.22,2.22,0,1,1,2.22-2.22A2.22,2.22,0,0,1,1121.7,105.73Zm0-3.93a1.71,1.71,0,1,0,1.71,1.71A1.71,1.71,0,0,0,1121.7,101.8Z"/><path class="f" d="M1089.66,87.14h-30.39a3,3,0,1,1,.33-5.93,3.09,3.09,0,0,1,0-.47,3.19,3.19,0,0,1,5.34-2.36,4.5,4.5,0,0,1,3-1.72,4.39,4.39,0,0,1,0-.54,4.5,4.5,0,0,1,8.63-1.79,3,3,0,0,1,5.09.87,3.68,3.68,0,0,1,1.24-.21,3.74,3.74,0,0,1,2.54,6.48,3,3,0,0,1,1,.71,3.58,3.58,0,1,1,3.29,5Zm-30.39-5.34a2.36,2.36,0,1,0,0,4.72h30.39a3,3,0,1,0-2.89-3.62.3.3,0,0,1-.25.24.31.31,0,0,1-.31-.15,2.37,2.37,0,0,0-1.51-1.12.31.31,0,0,1-.23-.24.31.31,0,0,1,.13-.31,3.13,3.13,0,0,0-3-5.43.3.3,0,0,1-.26,0,.31.31,0,0,1-.16-.2,2.36,2.36,0,0,0-4.4-.53.31.31,0,0,1-.57-.06,3.89,3.89,0,0,0-7.56,1.78.31.31,0,0,1-.06.25.32.32,0,0,1-.23.12A3.88,3.88,0,0,0,1065.2,79a.31.31,0,0,1-.24.14.32.32,0,0,1-.26-.11,2.58,2.58,0,0,0-4.53,1.68,2.54,2.54,0,0,0,.12.77.31.31,0,0,1-.38.39A2.36,2.36,0,0,0,1059.27,81.8Z"/><path class="f" d="M1089.66,87.48h-30.39a3.32,3.32,0,0,1,0-6.63s0-.08,0-.12a3.53,3.53,0,0,1,5.64-2.84,4.88,4.88,0,0,1,2.7-1.53c0-.09,0-.17,0-.26a4.84,4.84,0,0,1,9.06-2.37,3.32,3.32,0,0,1,5.19,1,4.08,4.08,0,0,1,4.14,6.6l.32.23a3.92,3.92,0,1,1,3.39,5.88Zm-30.39-5.34a2,2,0,1,0,0,4h30.39A2.62,2.62,0,1,0,1087.1,83a.65.65,0,0,1-1.19.18,2,2,0,0,0-1.29-1,.65.65,0,0,1-.49-.51.65.65,0,0,1,.28-.66,2.79,2.79,0,0,0-2.72-4.84.63.63,0,0,1-.56,0,.64.64,0,0,1-.34-.42,2,2,0,0,0-3.77-.46.65.65,0,0,1-1.2-.13,3.55,3.55,0,0,0-7,.93,3.59,3.59,0,0,0,.07.69.65.65,0,0,1-.12.52.66.66,0,0,1-.49.25,3.54,3.54,0,0,0-2.82,1.63.65.65,0,0,1-.5.3.67.67,0,0,1-.53-.22,2.24,2.24,0,0,0-3.94,1.45,2.19,2.19,0,0,0,.1.67.65.65,0,0,1-.15.65.65.65,0,0,1-.64.17A2,2,0,0,0,1059.27,82.14Zm27.17.69h0Zm-1.65-1.24h0Zm-8.37-6.6h0Z"/><path class="f" d="M1126.48,154.39H929c-.25,0-.46-.38-.46-.85s.2-.85.46-.85h197.47c.25,0,.46.38.46.85S1126.74,154.39,1126.48,154.39Z"/><rect class="f" x="333.41" y="105.82" width="86.71" height="1.7"/><rect class="f" x="725.78" y="62.29" width="130.87" height="1.7"/><rect class="f" x="524.77" y="159.42" width="80.56" height="1.7"/><rect class="f" x="725.78" y="111.38" width="121.21" height="1.7"/><polygon class="h" points="801.44 288.4 535.88 287.8 535.88 233.4 797.71 233.4 801.44 288.4"/><polygon class="j" points="809.55 383.45 675.39 383.45 669.92 381.49 627.5 381.49 623.02 383.45 522.21 383.45 522.21 287.68 809.55 287.68 809.55 383.45"/><rect class="d" x="627.89" y="292.4" width="42.05" height="89.09"/><rect class="h" x="631.29" y="296.77" width="34.6" height="80.65"/><circle class="e" cx="656.28" cy="336.19" r="2.5"/><rect class="h" x="528.92" y="296.21" width="85.86" height="81.21"/><rect class="d" x="688.37" y="296.21" width="112.15" height="82.2"/><rect class="h" x="693.72" y="304.66" width="28.12" height="66.84"/><rect class="h" x="730.38" y="304.66" width="28.12" height="66.84"/><rect class="h" x="766.86" y="304.66" width="28.12" height="66.84"/><rect class="q" x="522.49" y="278.62" width="7.07" height="9.78"/><rect class="q" x="539.08" y="278.62" width="7.79" height="9.78"/><rect class="q" x="557.17" y="278.62" width="7.99" height="9.78"/><rect class="q" x="592.18" y="278.62" width="7.99" height="9.78"/><rect class="q" x="575.23" y="278.62" width="7.99" height="9.78"/><rect class="q" x="627.75" y="278.62" width="7.99" height="9.78"/><rect class="q" x="609.67" y="278.62" width="7.99" height="9.78"/><rect class="q" x="644.91" y="278.62" width="7.49" height="9.78"/><rect class="q" x="661.93" y="278.62" width="7.79" height="9.78"/><rect class="q" x="678.42" y="278.62" width="7.99" height="9.78"/><rect class="q" x="713.4" y="278.62" width="7.99" height="9.78"/><rect class="q" x="696.27" y="278.62" width="7.99" height="9.78"/><rect class="q" x="748.63" y="278.62" width="7.99" height="9.78"/><rect class="q" x="730.82" y="278.62" width="7.99" height="9.78"/><rect class="q" x="766.21" y="278.62" width="7.99" height="9.78"/><rect class="q" x="801.44" y="278.62" width="7.99" height="9.78"/><rect class="q" x="784.71" y="278.62" width="7.99" height="9.78"/><polygon class="q" points="535.88 253.26 542.84 253.26 529.61 277.88 521.47 277.98 535.88 253.26"/><polygon class="q" points="550.98 252.53 559.35 253.22 547.87 278.22 539.08 278.23 550.98 252.53"/><polygon class="q" points="566.24 252.57 573.83 252.59 565.16 278.03 557.12 278.21 566.24 252.57"/><polygon class="q" points="582.12 252.88 589.37 252.63 583.95 278.17 575.52 278.18 582.12 252.88"/><polygon class="q" points="597.77 252.8 606.65 252.87 599.97 278 592.55 278.17 597.77 252.8"/><polygon class="q" points="613.16 252.68 621.7 252.61 617.54 278.03 610.13 278.15 613.16 252.68"/><polygon class="q" points="635.41 277.98 627.17 277.98 629.72 252.57 637.96 252.57 635.41 277.98"/><rect class="q" x="645.12" y="252.79" width="8.24" height="25.19"/><rect class="q" x="661.44" y="252.79" width="8.24" height="25.19"/><polygon class="q" points="687.63 277.98 679.39 277.98 677.3 252.79 685.54 252.79 687.63 277.98"/><polygon class="q" points="704.38 277.98 696.15 277.98 693.62 252.79 701.86 252.79 704.38 277.98"/><polygon class="q" points="721.52 277.98 713.28 277.98 710.4 252.79 718.63 252.79 721.52 277.98"/><polygon class="q" points="738.94 277.98 730.7 277.98 726.26 253.03 734.5 253.03 738.94 277.98"/><polygon class="q" points="756.75 277.98 748.51 277.98 742.25 252.99 750.48 252.99 756.75 277.98"/><polygon class="q" points="774.04 278.3 765.8 278.3 757.46 252.79 765.7 252.79 774.04 278.3"/><polygon class="q" points="792.82 277.98 784.59 277.98 771.8 252.75 780.03 252.75 792.82 277.98"/><polygon class="q" points="809.56 277.98 801.32 277.98 788.35 252.79 796.58 252.79 809.56 277.98"/><path class="f" d="M810.67,276.94l-12.4-24.45V231.81h-264v20.67l-13.52,25.2-.08.15V384.66H621.47l.06.16.45-.16h1v-.35l4.5-1.61h42.15l5,1.79v.17h.47l1.4.5v-.5H810.62v-.51h.51V276.94ZM628.44,293.1h40.19v87.22H628.44Zm-2.38-2.38v89.95l-3.1,1.11V289.61h51.11v92.17l-3.07-1.1v-90Zm-103-1.11h97.54v92.67H523Zm272.85-55.42v17.4H536.64v-17.4ZM671,287.23v-7.91h6.56v7.91Zm-51.91,0v-7.91h7v7.91Zm171.82-10.29h-6.1L774,254h5.26Zm-8.73,0h-6.57l-9.16-23h4.9Zm-9.13,0h-6.46l-7.83-23h5.13Zm-9,0h-6.76l-6-23h4.93Zm-9.22,0h-6l-5.83-23h5.79Zm-8.41,0h-6.13L735,254h5.63Zm-8.57,0h-6l-5.15-23h5.81Zm-8.41,0h-6.66l-3.66-23h5.16Zm-9.06,0h-6l-3.49-23h5.84Zm-8.41,0h-6.85l-1.66-23h5Zm-9.24,0h-6l-1.5-23h5.86Zm-8.41,0h-6.2l-1-23h5.7Zm-8.58,0H679.9l-.83-23h5.72Zm-8.26,0H671V254h5.68Zm-8.89,0h-6V254h6Zm-8.33,0h-6.37l.83-23h5.53Zm-8.75,0h-6l1-23h5.87Zm-8.41,0h-6.2l1.5-23h5.7Zm-8.58,0h-6l1.66-23h5.86Zm-8.41,0H619.3l3.5-23h5Zm-9.26,0h-6l3.66-23h5.84Zm-8.41,0h-6.66L607,254h5.16Zm-9.09,0h-6l5.33-23h5.81Zm-8.41,0h-6.13l5.83-23h5.63Zm-8.59,0h-6l6-23h5.79Zm-8.42,0h-6.76L575,254H580Zm-9.27,0h-6.46l9.16-23h5.13Zm-9,0h-6.57l10.82-23h4.9Zm-9.2,0h-6.1L552,254h5.27Zm-8.76,0H531.9l12-23h5.49Zm-.46,2.38v7.91h-6.13v-7.91Zm2.38,0H546v7.91h-6.41Zm8.79,0h6.87v7.91h-6.87Zm9.25,0h6.69v7.91h-6.69Zm9.06,0h7v7.91h-7Zm9.34,0h6v7.91h-6Zm8.42,0h6.23v7.91H584.5Zm8.61,0h6.07l0,7.91h-6Zm8.42,0h6.79v7.91h-6.78Zm9.16,0h6.05v7.91h-6Zm17.76,0h6v7.91h-6Zm8.42,0h6.23v7.91h-6.23Zm8.6,0h6v7.91h-6Zm8.42,0h6.41v7.91h-6.41Zm8.79,0h6v7.91h-6Zm17.26,0h5.9v7.91h-5.9Zm8.27,0h6.23v7.91h-6.23Zm8.61,0h6v7.91h-6Zm8.42,0h7v7.91h-7Zm9.34,0h6v7.91h-6Zm8.42,0h6.78v7.91H723Zm9.16,0h6v7.91h-6Zm8.42,0h6.23v7.91h-6.23Zm8.61,0h6v7.91h-6Zm8.42,0h7v7.91h-7Zm9.34,0h6.69v7.91H767Zm9.06,0h6.87v7.91H776Zm9.25,0h6.41v7.91h-6.41Zm8.79,0h6.13v7.91h-6.13Zm-.46-2.38-11.66-23h5.49l12,23Zm-3.48-23h6.24l11.65,23h-5.9ZM541.2,254l-12,23h-5.38l12.32-23Zm-12.46,33.27H523v-7.91h5.71Zm147.71,2.38H808.75v92.67H676.45Zm132.29-3v.59h-6.18v-7.91h6.18Z"/><path class="f" d="M631.17,295.65v83.08h35.28V295.65Zm2.49,80.6V298.13H664v78.11Z"/><path class="f" d="M656.52,332.31a4.08,4.08,0,1,0,4.08,4.08A4.08,4.08,0,0,0,656.52,332.31Zm0,5.67a1.59,1.59,0,1,1,1.59-1.59A1.59,1.59,0,0,1,656.52,338Z"/><path class="f" d="M687.27,295.62v84.7h115v-84.7Zm2.58,82.13V298.2H799.72v79.55Z"/><path class="f" d="M692,373.4h31.58V302.78H692Zm29-68v65.46H694.61V305.36Z"/><path class="f" d="M728.26,373.4h31.58V302.78H728.26Zm29-68v65.46H730.84V305.36Z"/><path class="f" d="M764.49,373.4h31.58V302.78H764.49Zm29-68v65.46H767.07V305.36Z"/><path class="f" d="M527.5,378.73h88.44V294.94H527.5Zm85.86-81.21v78.63H530.08V297.52Z"/><rect class="f" x="1012.41" y="242.18" width="119.62" height="1.7"/><rect class="f" x="1012.41" y="190.73" width="119.62" height="1.7"/><rect class="f" x="1052.43" y="453.57" width="87.83" height="1.7"/><rect class="f" x="385.49" y="266.76" width="119.42" height="1.7"/><path class="h" d="M961.23,345.66h-6.8V344h6.8Zm-20.4,0H934V344h6.8Z"/><path class="f" d="M972.95,333H848.49c-.16,0-.29-.39-.29-.88s.13-.88.29-.88H972.95c.16,0,.29.39.29.88S973.11,333,972.95,333Z"/><path class="f" d="M962.25,285.34H849.46c-.14,0-.26-.38-.26-.85s.12-.85.26-.85H962.25c.14,0,.26.38.26.85S962.39,285.34,962.25,285.34Z"/><path class="f" d="M957.44,245h-108c-.14,0-.25-.38-.25-.85s.11-.85.25-.85h108c.14,0,.25.38.25.85S957.58,245,957.44,245Z"/><path class="f" d="M919.08,168a3.58,3.58,0,0,1-2.24,1.59l-23.31,5.3a3.68,3.68,0,0,1-4.19-2,3.59,3.59,0,0,1,2.47-5l19.94-4.54-4.53-19.94a3.59,3.59,0,0,1,3.44-4.39,3.68,3.68,0,0,1,3.59,2.93l5.3,23.31A3.58,3.58,0,0,1,919.08,168Z"/><path class="f" d="M905.64,159.73a3.58,3.58,0,0,1-2.24,1.59l-23.31,5.3a3.68,3.68,0,0,1-4.19-2,3.59,3.59,0,0,1,2.47-5l19.94-4.54-4.53-19.94a3.59,3.59,0,0,1,3.44-4.39,3.68,3.68,0,0,1,3.59,2.93l5.3,23.31A3.58,3.58,0,0,1,905.64,159.73Z"/><path class="f" d="M464.93,137.51a3.58,3.58,0,0,1,.69,2.66l-3.29,23.68a3.68,3.68,0,0,1-3.33,3.22,3.59,3.59,0,0,1-3.8-4.08L458,142.74l-20.26-2.82a3.59,3.59,0,0,1-2.89-4.77,3.68,3.68,0,0,1,4-2.32l23.68,3.3A3.58,3.58,0,0,1,464.93,137.51Z"/><path class="f" d="M452.43,147.15a3.58,3.58,0,0,1,.69,2.66l-3.29,23.68a3.68,3.68,0,0,1-3.33,3.22,3.59,3.59,0,0,1-3.8-4.08l2.82-20.26-20.26-2.82a3.59,3.59,0,0,1-2.89-4.77,3.68,3.68,0,0,1,4-2.32l23.68,3.3A3.58,3.58,0,0,1,452.43,147.15Z"/><path class="f" d="M968.38,321.3a3.58,3.58,0,0,1,1.05-2.54l16.9-16.91a3.68,3.68,0,0,1,4.6-.57,3.59,3.59,0,0,1,.58,5.55L977.05,321.3l14.47,14.46a3.59,3.59,0,0,1-.57,5.55,3.68,3.68,0,0,1-4.6-.57l-16.91-16.9A3.58,3.58,0,0,1,968.38,321.3Z"/><path class="f" d="M984.17,321.13a3.58,3.58,0,0,1,1.05-2.54l16.9-16.91a3.68,3.68,0,0,1,4.6-.57,3.59,3.59,0,0,1,.58,5.55l-14.45,14.47,14.47,14.46a3.59,3.59,0,0,1-.57,5.55,3.68,3.68,0,0,1-4.6-.57l-16.91-16.9A3.58,3.58,0,0,1,984.17,321.13Z"/><path class="f" d="M198,394.23a3.58,3.58,0,0,1,1.05-2.54L216,374.77a3.68,3.68,0,0,1,4.6-.57,3.59,3.59,0,0,1,.58,5.55L206.7,394.22l14.47,14.46a3.59,3.59,0,0,1-.57,5.55,3.68,3.68,0,0,1-4.6-.57l-16.91-16.9A3.58,3.58,0,0,1,198,394.23Z"/><path class="f" d="M213.82,394.06a3.58,3.58,0,0,1,1.05-2.54l16.9-16.91a3.68,3.68,0,0,1,4.6-.57,3.59,3.59,0,0,1,.58,5.55l-14.45,14.47L237,408.51a3.59,3.59,0,0,1-.57,5.55,3.68,3.68,0,0,1-4.6-.57l-16.91-16.9A3.58,3.58,0,0,1,213.82,394.06Z"/><path class="r" d="M36.92,190.24c0,.28.36.51.81.51l320-.05c.45,0,.81-.23.81-.51s-.36-.51-.81-.51l-320,.05c-.45,0-.81.23-.81.51"/><rect class="f" x="725.78" y="161.36" width="121.21" height="1.7"/><rect class="f" x="319.3" y="465.32" width="132.2" height="1.7"/><rect class="f" x="485.13" y="465.57" width="336.6" height="1.7"/><path class="r" d="M900,492.83c0,.28.35.51.78.51l306.72-.05c.43,0,.78-.23.78-.51s-.35-.51-.78-.51l-306.72.05c-.43,0-.78.23-.78.51"/><path class="s" d="M979.54,87.22h.84a.35.35,0,0,1,.35.35v12.59a.35.35,0,0,1-.35.35h-.84a.35.35,0,0,1-.35-.35V87.57A.36.36,0,0,1,979.54,87.22Z" transform="translate(220.54 720.3) rotate(-44.99)"/><path class="s" d="M973.66,93.1h12.59a.35.35,0,0,1,.35.35v.84a.35.35,0,0,1-.35.35H973.66a.35.35,0,0,1-.35-.35v-.84a.36.36,0,0,1,.36-.36Z" transform="translate(220.87 720.7) rotate(-45.02)"/><path class="s" d="M990.38,87.22h.84a.36.36,0,0,1,.36.36v12.59a.35.35,0,0,1-.35.35h-.84a.35.35,0,0,1-.35-.35V87.57a.36.36,0,0,1,.36-.36Z" transform="translate(223.71 727.96) rotate(-44.99)"/><path class="s" d="M984.5,93.1h12.59a.36.36,0,0,1,.36.36v.84a.35.35,0,0,1-.35.35H984.5a.35.35,0,0,1-.35-.35v-.84A.36.36,0,0,1,984.5,93.1Z" transform="translate(223.93 728.23) rotate(-45.01)"/><rect class="f" x="962.97" y="87.34" width="34.27" height="1.55" rx="0.35" ry="0.35"/><path class="f" d="M996.88,89.14H963.32a.61.61,0,0,1-.61-.61v-.84a.61.61,0,0,1,.61-.61h33.56a.61.61,0,0,1,.61.61v.84A.61.61,0,0,1,996.88,89.14ZM963.32,87.6a.1.1,0,0,0-.1.1v.84a.1.1,0,0,0,.1.1h33.56a.1.1,0,0,0,.1-.1v-.84a.1.1,0,0,0-.1-.1Z"/><rect class="f" x="959.14" y="151.44" width="7.66" height="1.55" rx="0.35" ry="0.35"/><path class="f" d="M966.44,153.24h-6.95a.61.61,0,0,1-.61-.61v-.84a.61.61,0,0,1,.61-.61h6.95a.61.61,0,0,1,.61.61v.84A.61.61,0,0,1,966.44,153.24Zm-6.95-1.55a.1.1,0,0,0-.1.1v.84a.1.1,0,0,0,.1.1h6.95a.1.1,0,0,0,.1-.1v-.84a.1.1,0,0,0-.1-.1Z"/><rect class="f" x="962.97" y="99.36" width="34.27" height="1.55" rx="0.35" ry="0.35"/><path class="f" d="M996.88,101.16H963.32a.61.61,0,0,1-.61-.61v-.84a.61.61,0,0,1,.61-.61h33.56a.61.61,0,0,1,.61.61v.84A.61.61,0,0,1,996.88,101.16Zm-33.56-1.55a.1.1,0,0,0-.1.1v.84a.1.1,0,0,0,.1.1h33.56a.1.1,0,0,0,.1-.1v-.84a.1.1,0,0,0-.1-.1Z"/><path class="t" d="M1033.85,107.28a1.27,1.27,0,0,1-1.31,1.24H968.33a1.27,1.27,0,0,1-1.31-1.24V85.93a1.27,1.27,0,0,1,1.31-1.24h64.22a1.27,1.27,0,0,1,1.31,1.24Z"/><path class="f" d="M1032.54,108.77H968.33a1.53,1.53,0,0,1-1.56-1.49V85.93a1.53,1.53,0,0,1,1.56-1.49h64.22a1.53,1.53,0,0,1,1.56,1.49v21.35A1.53,1.53,0,0,1,1032.54,108.77ZM968.33,84.95a1,1,0,0,0-1.05,1v21.35a1,1,0,0,0,1.05,1h64.22a1,1,0,0,0,1.05-1V85.93a1,1,0,0,0-1.05-1Z"/><path class="f" d="M1032.54,109.2H968.33a2,2,0,0,1-2-1.92V85.93a2,2,0,0,1,2-1.92h64.22a2,2,0,0,1,2,1.92v21.35A2,2,0,0,1,1032.54,109.2ZM968.33,85.37a.6.6,0,0,0-.63.56v21.35a.6.6,0,0,0,.63.56h64.22a.6.6,0,0,0,.63-.56V85.93a.6.6,0,0,0-.63-.56Z"/><path class="f" d="M1032.54,109.45H968.33a2.21,2.21,0,0,1-2.24-2.17V85.93a2.21,2.21,0,0,1,2.24-2.17h64.22a2.21,2.21,0,0,1,2.24,2.17v21.35A2.21,2.21,0,0,1,1032.54,109.45ZM968.33,84.27a1.7,1.7,0,0,0-1.73,1.66v21.35a1.7,1.7,0,0,0,1.73,1.66h64.22a1.7,1.7,0,0,0,1.73-1.66V85.93a1.7,1.7,0,0,0-1.73-1.66Zm64.22,23.83H968.33a.85.85,0,0,1-.88-.81V85.93a.85.85,0,0,1,.88-.81h64.22a.85.85,0,0,1,.88.81v21.35A.85.85,0,0,1,1032.54,108.09ZM968.33,85.63a.35.35,0,0,0-.37.3v21.35a.35.35,0,0,0,.37.3h64.22a.35.35,0,0,0,.37-.3V85.93a.35.35,0,0,0-.37-.3Z"/><path class="f" d="M964,151.82c0,.44-.24.8-.54.8H963c-.3,0-.55-.36-.55-.8V85c0-.44.24-.8.55-.8h.44c.3,0,.54.36.54.8Z"/><path class="f" d="M963.43,152.88H963c-.45,0-.8-.47-.8-1.06V85c0-.59.35-1.06.8-1.06h.44c.45,0,.8.47.8,1.06v66.79C964.23,152.42,963.88,152.88,963.43,152.88ZM963,84.48c-.13,0-.29.24-.29.55v66.79c0,.31.16.55.29.55h.44c.13,0,.29-.24.29-.55V85c0-.31-.16-.55-.29-.55Z"/><path class="j" d="M952.38,108.06a3.92,3.92,0,1,1-6.93,0Z"/><path class="f" d="M948.91,114.07a4.17,4.17,0,0,1-3.69-6.13l.07-.14h7.23l.07.14a4.17,4.17,0,0,1-3.69,6.13Zm-3.31-5.75a3.61,3.61,0,0,0-.36,1.58,3.67,3.67,0,1,0,7.33,0,3.62,3.62,0,0,0-.36-1.58Z"/><path class="j" d="M930.57,108.06a3.92,3.92,0,1,1-6.93,0Z"/><path class="f" d="M927.1,114.07a4.17,4.17,0,0,1-3.69-6.13l.07-.14h7.23l.07.14a4.17,4.17,0,0,1-3.69,6.13Zm-3.31-5.75a3.62,3.62,0,0,0-.36,1.58,3.67,3.67,0,0,0,7.33,0,3.62,3.62,0,0,0-.36-1.58Z"/><path class="f" d="M922.78,110a4.45,4.45,0,1,0,4.92-4.43v-1.11h4.25l5.68,5.29v30.84h-1a1,1,0,0,0-1.06.9v10.84a1,1,0,0,0,1.06.9h3a1,1,0,0,0,1.06-.9V141.47a1,1,0,0,0-1.06-.9h-1V109.74l5.68-5.29h4.25v1.11a4.45,4.45,0,1,0,.9,0v-1.61a.45.45,0,0,0-.45-.45.45.45,0,0,0-.2.05H944a.45.45,0,0,0-.33.15h0l-5.6,5.22-5.6-5.22h0a.45.45,0,0,0-.33-.15h-4.68a.45.45,0,0,0-.2-.05.45.45,0,0,0-.45.45v1.61A4.46,4.46,0,0,0,922.78,110Zm13.82,31.5h3a.29.29,0,0,1,.16,0v10.75a.29.29,0,0,1-.16,0h-3a.29.29,0,0,1-.16,0V141.52A.29.29,0,0,1,936.6,141.48Zm8.77-31.5a3.53,3.53,0,0,1,.14-1h6.82a3.55,3.55,0,1,1-7,1Zm3.55-3.55a3.55,3.55,0,0,1,3,1.68h-6A3.55,3.55,0,0,1,948.92,106.43Zm-18.69,1.68h-6a3.54,3.54,0,0,1,6,0ZM923.68,110a3.53,3.53,0,0,1,.14-1h6.82a3.55,3.55,0,1,1-7,1Z"/><path class="f" d="M939.55,153.47h-3a1.23,1.23,0,0,1-1.31-1.15V141.47a1.23,1.23,0,0,1,1.31-1.15h.77V109.85l-5.52-5.15h-3.9v.63a4.71,4.71,0,1,1-1.41,0v-1.38a.71.71,0,0,1,.7-.7.69.69,0,0,1,.26.05h4.62a.7.7,0,0,1,.48.2l0,0,5.42,5.05,5.46-5.09a.69.69,0,0,1,.49-.2h4.62a.69.69,0,0,1,.26-.05.71.71,0,0,1,.7.7v1.38a4.7,4.7,0,1,1-1.41,0v-.63h-3.9l-5.52,5.15v30.47h.77a1.23,1.23,0,0,1,1.31,1.15v10.84A1.23,1.23,0,0,1,939.55,153.47Zm-3-12.63a.73.73,0,0,0-.8.64v10.84a.73.73,0,0,0,.8.64h3a.73.73,0,0,0,.8-.64V141.47a.73.73,0,0,0-.8-.64h-1.28V109.63l5.83-5.43h4.61v1.59l-.23,0a4.2,4.2,0,1,0,.85,0l-.23,0v-1.84a.19.19,0,0,0-.28-.17l-.05,0H944a.2.2,0,0,0-.14.07l-.05,0-5.75,5.36-5.81-5.41a.19.19,0,0,0-.14-.07h-4.74l-.05,0a.19.19,0,0,0-.28.17v1.84l-.23,0a4.19,4.19,0,1,0,.85,0l-.23,0v-1.59H932l.07.07,5.76,5.37v31.2Zm3,11.73h-3a.54.54,0,0,1-.3-.08l-.11-.08v-11l.11-.08a.54.54,0,0,1,.3-.08h3a.55.55,0,0,1,.3.09l.11.08v11l-.11.08A.55.55,0,0,1,939.55,152.57Zm-2.86-10.83v10.33h2.76V141.73Zm12.23-27.95a3.8,3.8,0,0,1-3.66-4.85l.05-.18h7.21l.05.18a3.8,3.8,0,0,1-3.66,4.85Zm-3.21-4.52a3.26,3.26,0,0,0-.08.72,3.3,3.3,0,0,0,6.59,0,3.25,3.25,0,0,0-.08-.72Zm-18.48,4.52a3.8,3.8,0,0,1-3.66-4.85l.05-.18h7.21l.05.18a3.8,3.8,0,0,1-3.66,4.85ZM924,109.26a3.25,3.25,0,0,0-.08.72,3.3,3.3,0,0,0,6.59,0,3.25,3.25,0,0,0-.08-.72Zm28.38-.9h-6.94l.24-.39a3.79,3.79,0,0,1,6.45,0Zm-6-.51h5a3.28,3.28,0,0,0-5,0Zm-15.72.51h-6.94L924,108a3.8,3.8,0,0,1,6.45,0Zm-6-.51h5a3.28,3.28,0,0,0-5,0Z"/><path class="f" d="M909.82,502.81a3.58,3.58,0,0,1-1.11,2.51L891.4,521.81a3.68,3.68,0,0,1-4.61.45,3.59,3.59,0,0,1-.44-5.56l14.81-14.11L887,487.79a3.59,3.59,0,0,1,.71-5.53,3.68,3.68,0,0,1,4.58.68l16.49,17.31A3.58,3.58,0,0,1,909.82,502.81Z"/><path class="f" d="M894,502.59a3.58,3.58,0,0,1-1.11,2.51l-17.31,16.49A3.68,3.68,0,0,1,871,522a3.59,3.59,0,0,1-.44-5.56l14.81-14.11-14.11-14.81A3.59,3.59,0,0,1,872,482a3.68,3.68,0,0,1,4.58.68L893,500A3.58,3.58,0,0,1,894,502.59Z"/><path class="f" d="M468.74,500.32a2.51,2.51,0,0,1-.78,1.76l-12.13,11.56a2.58,2.58,0,0,1-3.23.32,2.52,2.52,0,0,1-.31-3.9l10.38-9.89-9.89-10.38a2.52,2.52,0,0,1,.5-3.88,2.58,2.58,0,0,1,3.21.48L468,498.52A2.51,2.51,0,0,1,468.74,500.32Z"/><path class="f" d="M457.68,500.16a2.51,2.51,0,0,1-.78,1.76l-12.13,11.56a2.58,2.58,0,0,1-3.23.32,2.52,2.52,0,0,1-.31-3.9L451.61,500l-9.89-10.38a2.52,2.52,0,0,1,.5-3.88,2.58,2.58,0,0,1,3.21.48L457,498.36A2.51,2.51,0,0,1,457.68,500.16Z"/><path class="f" d="M37.89,200a3.58,3.58,0,0,1-1.08,2.53L19.74,219.25a3.68,3.68,0,0,1-4.6.52,3.59,3.59,0,0,1-.52-5.55L29.22,199.9,14.91,185.29a3.59,3.59,0,0,1,.63-5.54,3.68,3.68,0,0,1,4.59.61l16.73,17.07A3.58,3.58,0,0,1,37.89,200Z"/><path class="f" d="M53.67,200a3.58,3.58,0,0,1-1.08,2.53L35.52,219.25a3.68,3.68,0,0,1-4.6.52,3.59,3.59,0,0,1-.52-5.55L45,199.9,30.69,185.29a3.59,3.59,0,0,1,.63-5.54,3.68,3.68,0,0,1,4.59.61l16.73,17.07A3.58,3.58,0,0,1,53.67,200Z"/><rect class="f" x="104.52" y="460.73" width="85.34" height="1.7"/><rect class="f" x="55.18" y="254.26" width="327.1" height="1.7"/><rect class="f" x="67.98" y="289.6" width="118.09" height="1.36"/><rect class="f" x="67.98" y="320.5" width="118.09" height="1.36"/><path class="d" d="M69.5,495.78l1.18,7.63c.05.33.1.69.14,1a1.92,1.92,0,0,0,2,1.62H99.51a1.92,1.92,0,0,0,2-1.62c0-.34.09-.68.14-1l1.18-7.63Z"/><path class="d" d="M102.78,454l-1.17-7.13c-.06-.35-.11-.71-.16-1.07a1.9,1.9,0,0,0-2-1.58H72.77a1.9,1.9,0,0,0-2,1.58c0,.35-.1.72-.16,1.08L69.5,454Z"/><path class="j" d="M109.23,472.15h2.35a1.5,1.5,0,0,0,1.49-1.56v-3.74a1.45,1.45,0,0,0-1.49-1.5h-2.35Z"/><path class="j" d="M63.19,478.58H61A1.61,1.61,0,0,1,59.36,477v-3.74a1.56,1.56,0,0,1,1.61-1.5h2.22Z"/><path class="j" d="M109.23,484.4h2.35a1.49,1.49,0,0,0,1.49-1.54v-3.74a1.47,1.47,0,0,0-1.49-1.52h-2.35Z"/><path class="e" d="M109.23,457.85a3.77,3.77,0,0,0-3.77-3.77H67.09a3.77,3.77,0,0,0-3.77,3.77v34a3.77,3.77,0,0,0,3.77,3.77h38.36a3.77,3.77,0,0,0,3.77-3.77Zm-5.07,31.65a1.41,1.41,0,0,1-1.51,1.33H69.9a1.4,1.4,0,0,1-1.51-1.33v-29.2a1.46,1.46,0,0,1,1.51-1.4h32.75a1.47,1.47,0,0,1,1.51,1.4Z"/><path class="u" d="M99.51,506.8H72.77a2.66,2.66,0,0,1-2.69-2.28c0-.35-.09-.69-.14-1l-1.18-7.64,1.47-.23,1.18,7.64c.05.33.1.69.14,1.05a1.19,1.19,0,0,0,1.22,1H99.51a1.19,1.19,0,0,0,1.22-1c0-.39.09-.75.14-1.06l1.18-7.64,1.47.23-1.18,7.64c0,.29-.09.64-.14,1A2.66,2.66,0,0,1,99.51,506.8Z"/><path class="u" d="M102,454.06l-1.17-7.11c-.06-.38-.12-.75-.16-1.1a1.17,1.17,0,0,0-1.22-.93H72.77a1.17,1.17,0,0,0-1.22.93c0,.33-.09.69-.16,1.09l-1.17,7.12-1.47-.24,1.17-7.12c.06-.38.11-.72.15-1a2.65,2.65,0,0,1,2.69-2.23H99.51a2.65,2.65,0,0,1,2.69,2.23c0,.33.09.68.15,1l1.17,7.11Z"/><path class="u" d="M105.45,496.4H67.09a4.52,4.52,0,0,1-4.52-4.52v-34a4.52,4.52,0,0,1,4.52-4.52h38.36a4.52,4.52,0,0,1,4.52,4.52v34A4.52,4.52,0,0,1,105.45,496.4ZM67.09,454.82a3,3,0,0,0-3,3v34a3,3,0,0,0,3,3h38.36a3,3,0,0,0,3-3v-34a3,3,0,0,0-3-3Z"/><path class="u" d="M111.51,472.89h-2.28V471.4h2.28a.82.82,0,0,0,.81-.82v-3.74a.76.76,0,0,0-.81-.76h-2.28V464.6h2.28a2.25,2.25,0,0,1,2.3,2.24v3.74A2.3,2.3,0,0,1,111.51,472.89Z"/><path class="u" d="M63.19,479.32H61a2.36,2.36,0,0,1-2.36-2.3v-3.74A2.3,2.3,0,0,1,61,471h2.22v1.49H61a.83.83,0,0,0-.87.76V477a.87.87,0,0,0,.87.82h2.22Z"/><path class="u" d="M111.51,485.14h-2.28v-1.49h2.28a.8.8,0,0,0,.81-.8v-3.74a.78.78,0,0,0-.81-.78h-2.28v-1.49h2.28a2.25,2.25,0,0,1,2.3,2.26v3.74A2.29,2.29,0,0,1,111.51,485.14Z"/><rect class="h" x="67.24" y="457.83" width="38.03" height="34.26"/><path class="h" d="M105.44,492.26H67.07v-34.6h38.37Zm-38-.34H105.1V458H67.41Z"/><path class="u" d="M104.17,493.13H68.37a2.34,2.34,0,0,1-2.46-2.26V458.95a2.41,2.41,0,0,1,2.46-2.34h35.8a2.41,2.41,0,0,1,2.46,2.34v31.92A2.34,2.34,0,0,1,104.17,493.13Zm-35.8-34.9a.79.79,0,0,0-.83.72v31.92c0,.41.43.64.83.64h35.8c.41,0,.84-.22.84-.64V458.95a.8.8,0,0,0-.84-.72Z"/><rect class="f" x="67.98" y="402.92" width="104.95" height="1.7"/><polygon class="t" points="194.49 375.45 140.66 375.45 140.66 381.91 135.67 381.91 135.67 405.82 189.5 405.82 189.5 399.36 194.49 399.36 194.49 375.45"/><rect class="h" x="130.59" y="386.67" width="54.15" height="24.44"/><circle class="t" cx="157.67" cy="398.74" r="12.01"/><path class="f" d="M139.25,374.65v5.47h-5v5h-5v26.77h56.75v-5h5v-5.47h5V374.65Zm-7.93,19.41v-7h7.09a11.24,11.24,0,0,1-2.12,3.64,11.21,11.21,0,0,1-2,1.83,11.19,11.19,0,0,1-3,1.5Zm6.22,15.79h-6.22v-7.29a11.19,11.19,0,0,1,5,3.33,11.19,11.19,0,0,1,2.21,4Zm3.07,0a13.23,13.23,0,0,0-1.17-3c-.19-.35-.4-.68-.61-1s-.48-.68-.74-1a13.19,13.19,0,0,0-1.79-1.82q-.49-.4-1-.76c-.33-.22-.66-.44-1-.63a13.27,13.27,0,0,0-2.91-1.2l0,0v-4.27h0a13.18,13.18,0,0,0,2.93-1.21c.35-.19.68-.41,1-.63s.68-.49,1-.76a13.31,13.31,0,0,0,3-3.51,13.17,13.17,0,0,0,1-2.16c.09-.26.18-.52.26-.79h10.34a13.27,13.27,0,0,0-6.44,11.37c0,.31,0,.62,0,.92s.06.68.11,1,.11.68.19,1a13.16,13.16,0,0,0,1.32,3.46c.19.35.4.68.62,1s.49.68.75,1a13.38,13.38,0,0,0,3.43,3Zm9.61-3a11.44,11.44,0,0,1-1-1,11.23,11.23,0,0,1-2.4-4.46q-.13-.5-.22-1t-.13-1c0-.31,0-.61,0-.92a11.25,11.25,0,1,1,22.5,0c0,.31,0,.62,0,.92s-.07.68-.13,1-.13.68-.22,1a11.25,11.25,0,0,1-2.4,4.46,11.52,11.52,0,0,1-1,1,11.22,11.22,0,0,1-14.92,0ZM184,402.55v7.31h-7.3a11.2,11.2,0,0,1,7.3-7.33Zm0-3.14v1h0a13.26,13.26,0,0,0-6.84,4.44q-.39.49-.74,1c-.22.33-.42.66-.61,1a13.25,13.25,0,0,0-1.17,3H164.5a13.36,13.36,0,0,0,3.43-3c.27-.32.52-.66.75-1s.42-.66.62-1a13.16,13.16,0,0,0,1.32-3.46c.08-.33.14-.67.19-1s.08-.67.11-1,0-.61,0-.92a13.27,13.27,0,0,0-6.44-11.37h10.24A13.26,13.26,0,0,0,184,396.2h0Zm0-5.31v0a11.25,11.25,0,0,1-7.19-7H184Zm5,5.31v5.47h-3V385.1H136.29v-3H189Zm5,0h-3V380.12H141.27v-3.46H194Z"/><path class="f" d="M186.23,412H129.13V384.93h5v-5h5v-5.47h57.09v27.11h-5v5.47h-5Zm-56.75-.34h56.41v-5h5v-5.47h5V374.82H139.42v5.47h-5v5h-5ZM184.21,410h-7.7l.07-.22a11.37,11.37,0,0,1,7.41-7.44l.22-.07Zm-7.23-.34h6.89v-6.92a11,11,0,0,0-6.89,6.92Zm-2.19.34H163.89l.52-.32a13.14,13.14,0,0,0,3.38-2.92c.27-.33.52-.66.74-1s.42-.65.61-1a13,13,0,0,0,1.3-3.41c.08-.35.14-.67.19-1s.08-.65.11-1,0-.64,0-.91a13.18,13.18,0,0,0-6.36-11.23l-.52-.32h11l0,.12a13.15,13.15,0,0,0,9.15,9l.13,0,0,.14v4.33l-.13.05a13.28,13.28,0,0,0-2.55,1,12.93,12.93,0,0,0-4.23,3.41c-.26.33-.51.66-.73,1s-.43.68-.6,1a13.11,13.11,0,0,0-1.15,2.92Zm-9.7-.34h9.44a13.44,13.44,0,0,1,1.15-2.87c.18-.32.38-.66.62-1s.48-.69.75-1a13.28,13.28,0,0,1,4.34-3.5,13.49,13.49,0,0,1,2.49-1v-4a13.5,13.5,0,0,1-9.25-9.06h-9.53a13.53,13.53,0,0,1,6,11.2c0,.28,0,.58,0,.94s-.06.7-.11,1-.11.66-.19,1a13.34,13.34,0,0,1-1.33,3.5c-.2.36-.41.7-.62,1s-.49.69-.76,1A13.49,13.49,0,0,1,165.09,409.68Zm-13.62.34h-11l0-.13a13.11,13.11,0,0,0-1.16-2.92c-.17-.31-.37-.64-.6-1s-.47-.68-.73-1a13.06,13.06,0,0,0-1.77-1.79c-.32-.26-.65-.52-1-.75s-.67-.44-1-.62a13.11,13.11,0,0,0-2.87-1.18l-.15,0,0-.13v-4.4l.12,0a13.15,13.15,0,0,0,2.92-1.21c.33-.18.66-.39,1-.62s.69-.5,1-.75a13.1,13.1,0,0,0,3.92-5.6c.1-.28.19-.54.26-.78l0-.12h11.08l-.52.32a13.18,13.18,0,0,0-6.36,11.23c0,.28,0,.57,0,.91s.06.68.1,1,.11.65.19,1a13,13,0,0,0,1.3,3.41c.19.35.4.68.61,1s.47.67.74,1a13.16,13.16,0,0,0,3.38,2.92Zm-10.73-.34h9.53a13.5,13.5,0,0,1-3-2.68c-.27-.34-.53-.68-.76-1s-.42-.66-.62-1a13.33,13.33,0,0,1-1.33-3.5c-.08-.35-.14-.68-.19-1s-.08-.67-.11-1,0-.65,0-.94a13.53,13.53,0,0,1,6-11.2h-9.62c-.06.21-.14.43-.23.68a13.45,13.45,0,0,1-4,5.74c-.31.26-.64.51-1,.77s-.69.45-1,.64a13.37,13.37,0,0,1-2.87,1.2v4a13.46,13.46,0,0,1,2.87,1.19c.33.18.66.39,1,.64s.7.5,1,.77a13.4,13.4,0,0,1,1.82,1.84c.27.33.52.67.75,1s.44.7.62,1A13.43,13.43,0,0,1,140.74,409.68Zm-9.37-9.23v0Zm7.38,9.57h-7.6v-7.68l.22.05a11.36,11.36,0,0,1,5.06,3.38,11.18,11.18,0,0,1,.79,1,11.35,11.35,0,0,1,1.46,3Zm-7.26-.34h6.8a11,11,0,0,0-1.34-2.69,11.14,11.14,0,0,0-1.77-2,11,11,0,0,0-3.68-2.18Zm26.19.22a11.4,11.4,0,0,1-7.57-2.88h0a11.62,11.62,0,0,1-1-1,11.48,11.48,0,0,1-.8-1,11.35,11.35,0,0,1-1.63-3.51c-.09-.33-.17-.67-.23-1s-.1-.69-.13-1,0-.64,0-.94a11.42,11.42,0,1,1,22.84,0c0,.29,0,.6,0,.94s-.07.69-.13,1-.14.69-.23,1a11.35,11.35,0,0,1-1.63,3.51,11.6,11.6,0,0,1-1.81,2A11.4,11.4,0,0,1,157.68,409.9Zm-7.35-3.14a11.05,11.05,0,0,0,14.7,0,11.36,11.36,0,0,0,1-1,11.08,11.08,0,0,0,2.36-4.4c.09-.32.16-.65.22-1s.1-.66.13-1,0-.63,0-.91a11.08,11.08,0,1,0-22.16,0c0,.29,0,.58,0,.91s.07.66.13,1,.13.67.22,1a11.06,11.06,0,0,0,2.36,4.4,11.21,11.21,0,0,0,1,1ZM189.19,405h-3.3V385.27H136.12V382h53.06Zm-3-.34h2.62v-22.4H136.46v2.62h49.77Zm7.93-5.13h-3.3V380.29H141.1v-3.8h53.06Zm-3-.34h2.62v-22.4H141.44V380H191.2Zm-7-4.89-.22-.07a11.46,11.46,0,0,1-7.3-7.11l-.08-.23h7.6Zm-7.11-7.07a11.13,11.13,0,0,0,6.77,6.6v-6.6Zm-46,7v-7.38h7.5l-.08.23a11.36,11.36,0,0,1-2.15,3.7,11.39,11.39,0,0,1-2,1.86,11.35,11.35,0,0,1-3,1.52Zm.34-7v6.56a11,11,0,0,0,2.69-1.4,11,11,0,0,0,2-1.8,11,11,0,0,0,2-3.36Z"/><rect class="f" x="67.98" y="355.79" width="118.09" height="1.36"/></svg>