<svg xmlns="http://www.w3.org/2000/svg" viewBox="0 0 77.63 38.49"><defs><style>.a{fill:#45a5da;}.b{fill:#f6d056;}.c{fill:#fff;}.d{fill:#f15f2e;}.e{fill:#414042;}</style></defs><title>Dine</title><path class="a" d="M76.77,3V6.3a2.1,2.1,0,1,1-4.2,0V3a2.1,2.1,0,1,1,4.2,0Z"/><path class="b" d="M73.72,24.37v3.58a4,4,0,0,1-4,4H64.4A5.67,5.67,0,0,0,53,32H46.79V24.37H26.17V32H19.91A5.67,5.67,0,0,0,8.57,32H4.87a4,4,0,0,1-4-4V14.88H53.28l16.09,5.43h4.35Z"/><path class="c" d="M73.72,20.31H69.37L53.28,14.88V.86h9C68.18.86,73.72,20.31,73.72,20.31Z"/><path class="a" d="M58.72,26.29A5.67,5.67,0,1,1,53,32,5.67,5.67,0,0,1,58.72,26.29Zm2,5.67a2,2,0,1,0-2,2A2,2,0,0,0,60.72,32Z"/><circle class="a" cx="58.72" cy="31.96" r="2"/><rect class="c" x="36.48" y="0.86" width="16.8" height="14.02"/><rect class="d" x="26.17" y="24.37" width="20.63" height="7.59"/><path class="d" d="M46.92,32.09H26V24.23H46.92ZM26.3,31.82H46.66V24.5H26.3Z"/><rect class="c" x="17.66" y="0.86" width="18.81" height="14.02"/><path class="a" d="M14.24,26.29A5.67,5.67,0,1,1,8.57,32,5.67,5.67,0,0,1,14.24,26.29Zm2,5.67a2,2,0,1,0-2,2A2,2,0,0,0,16.24,32Z"/><path class="c" d="M17.66.86v14H.86v-10a4,4,0,0,1,4-4Z"/><circle class="a" cx="14.24" cy="31.96" r="2"/><path class="e" d="M47.65,32H45.93V25.23H27V32H25.31V24.37a.86.86,0,0,1,.86-.86H46.79a.86.86,0,0,1,.86.86Z"/><path class="e" d="M72.89,20.55C70.82,13.27,66.1,1.72,62.26,1.72V0C65.13,0,68,3.35,71,10.24a89.13,89.13,0,0,1,3.55,9.83Z"/><path class="e" d="M54.14,14.88H52.42V1.72H4.87A3.15,3.15,0,0,0,1.72,4.87v10H0v-10A4.88,4.88,0,0,1,4.87,0H53.28a.86.86,0,0,1,.86.86Z"/><rect class="e" x="35.62" y="0.86" width="1.72" height="14.02"/><rect class="e" x="16.8" y="0.86" width="1.72" height="14.02"/><path class="e" d="M14.24,38.49A6.54,6.54,0,0,1,7.71,32H9.42a4.82,4.82,0,0,0,9.63,0h1.72A6.54,6.54,0,0,1,14.24,38.49Z"/><path class="e" d="M14.24,34.82A2.86,2.86,0,1,1,17.1,32,2.87,2.87,0,0,1,14.24,34.82Zm0-4A1.14,1.14,0,1,0,15.38,32,1.14,1.14,0,0,0,14.24,30.82Z"/><path class="e" d="M58.72,38.49A6.54,6.54,0,0,1,52.19,32h1.72a4.82,4.82,0,0,0,9.63,0h1.72A6.54,6.54,0,0,1,58.72,38.49Z"/><path class="e" d="M69.71,32.82H64.4a.86.86,0,0,1-.86-.86,4.82,4.82,0,0,0-9.63,0,.86.86,0,0,1-.86.86H19.91a.86.86,0,0,1-.86-.86,4.82,4.82,0,0,0-9.63,0,.86.86,0,0,1-.86.86H4.87A4.88,4.88,0,0,1,0,27.95V14.88A.86.86,0,0,1,.86,14H53.28a.86.86,0,0,1,.27,0l16,5.38h4.21a.86.86,0,0,1,.86.86v7.64A4.88,4.88,0,0,1,69.71,32.82ZM65.2,31.1h4.51a3.15,3.15,0,0,0,3.15-3.15V21.17H69.37a.86.86,0,0,1-.27,0l-16-5.38H1.72v12.2A3.15,3.15,0,0,0,4.87,31.1H7.76a6.54,6.54,0,0,1,13,0H52.24a6.54,6.54,0,0,1,13,0Z"/><path class="e" d="M58.72,34.82A2.86,2.86,0,1,1,61.58,32,2.86,2.86,0,0,1,58.72,34.82Zm0-4A1.14,1.14,0,1,0,59.86,32,1.14,1.14,0,0,0,58.72,30.82Z"/><rect class="e" x="69.61" y="23.51" width="4.11" height="1.72"/><path class="e" d="M74.67,9.26a2.94,2.94,0,0,1-2.09-.86,3,3,0,0,1-.86-2.1V3a3,3,0,1,1,5.92,0V6.3A3,3,0,0,1,74.67,9.26Zm0-7.55A1.24,1.24,0,0,0,73.43,3V6.3a1.26,1.26,0,0,0,.37.89,1.23,1.23,0,0,0,.87.36A1.24,1.24,0,0,0,75.91,6.3V3a1.23,1.23,0,0,0-1.24-1.24Z"/><rect class="e" x="53.28" width="21.39" height="1.72"/><rect class="e" x="32.85" y="26.51" width="7.26" height="1.72"/></svg>