<svg xmlns="http://www.w3.org/2000/svg" xmlns:xlink="http://www.w3.org/1999/xlink" viewBox="0 0 330 242"><defs><linearGradient id="a" x1="4.23" y1="109.87" x2="69.48" y2="109.87" gradientUnits="userSpaceOnUse"><stop offset="0" stop-color="#e72127"/><stop offset="1" stop-color="#b32024"/></linearGradient></defs><title>Coke</title><path d="M53.89,122.21c-.64,8.62-1.25,16.63-1.79,24.65-.07,1.13-.53,1.34-1.5,1.34-6.88,0-13.75,0-20.63,0-1.7,0-1.6-1.16-1.7-2.18-.61-6.2-1.19-12.4-1.76-18.61-.24-2.61-.28-5.25-.72-7.82-.3-1.75.41-2.42,1.82-3a58.07,58.07,0,0,0,5.28-2.75,22.7,22.7,0,0,1,7.58-3c5.06-.89,8.66-4.6,11.46-8.87.39-.6.89-1.48.14-2.24s-1.38-.14-2,.06c-4.58,1.44-8.66,3.9-12.85,6.16-6.34,3.41-12.37,7.47-19.5,9.24a28.08,28.08,0,0,1-7.22.95c-2.48,0-4.79-.42-5.85-3-1.12-2.72.28-4.81,2.18-7.1.25,1.71-1,3.34.69,4.42s3.25.64,5,.28A39.17,39.17,0,0,0,22,107.05c2.1-1,2.53-2.44,2.22-4.54a42,42,0,0,1-.48-11.06c.2-1.74.78-2.51,2.69-2.42,3.25.16,6.51,0,9.77.08,1.59.05,2.13-.53,1.94-2,0-.36.06-.74,0-1.08-1.21-5.78,2.27-9.71,5.37-13.81.55-.73,1-.92,1.73-.26.54.49,1.17.86.45,1.72A28.82,28.82,0,0,1,44,76.07c-3.25,3.13-3.56,7-3.3,11.2.09,1.42.49,1.86,1.88,1.83,3.62-.07,7.24,0,10.86,0,1.25,0,1.82.23,2.13,1.67,1.07,5.09-.3,10.08-.27,15.12,0,.42-.29.86.29,1.37a39.42,39.42,0,0,0,7.66-6.17c1.43-1.58,2.14-3.25-1-4.36,2.76-.31,5.45-1,6.82,1.34s-.61,4.31-1.93,6.06c-5.15,6.87-12.24,11.1-20,14.4a1.86,1.86,0,0,1-1.54,0c-5.62-2.15-9.83,1.46-14.36,3.65a1.71,1.71,0,0,0-.74,2.36c.55.86,1.43,0,2.12-.21,2-.66,3.9-1.42,5.86-2.09.72-.25,1.71-.83,2.16.13S40,123.61,39.29,124c-1.94,1-3.92,1.85-5.81,2.9-.7.39-2.42.25-1.7,1.76.61,1.29,1.75.27,2.61,0,2-.54,4-1.24,6-1.76.78-.2,2-.86,2.29.44.25,1-1,1.12-1.65,1.42-2.16.92-4.34,1.78-6.49,2.71-.36.16-1,.24-.94.79s.57.87,1.1,1.06a2,2,0,0,0,.27,0c2.61.53,12.22-3.5,13.07-6C49,124.4,51.46,124,53.89,122.21Z" style="fill:url(#a)"/><path d="M82.07,148.73V89.25H93.49q12.68,0,17.86,1.28a24.18,24.18,0,0,1,9.08,4.29,24.91,24.91,0,0,1,7.76,10.08A35.51,35.51,0,0,1,130.83,119a35.45,35.45,0,0,1-2.62,14.08,24.63,24.63,0,0,1-7.78,10.06,24.26,24.26,0,0,1-8.88,4.29q-5,1.28-15.5,1.28h-14Zm7.15-6.66h4.51q11,0,15.2-1a16.59,16.59,0,0,0,7-3.27,19.26,19.26,0,0,0,5.57-7.86,32.86,32.86,0,0,0,0-22,19.33,19.33,0,0,0-5.59-7.82,16.72,16.72,0,0,0-7.13-3.35q-4.33-1-15.09-1H89.23Z" style="fill:#4d4d4d"/><path d="M142.49,148.73V89.25h7.07v59.48Z" style="fill:#4d4d4d"/><path d="M163.95,148.73V86.89l43.52,47.54V89.25h6.75V151l-43.52-47v44.7Z" style="fill:#4d4d4d"/><path d="M228.43,148.73V89.25H259.8v6.46H235.5v17.07h24.3v6.58H235.5v22.79h24.3v6.58Z" style="fill:#4d4d4d"/><path d="M81.5,167.25V157.5h1.87a13.94,13.94,0,0,1,2.93.21,4,4,0,0,1,1.49.7,4.1,4.1,0,0,1,1.27,1.65,6.43,6.43,0,0,1,0,4.63,4,4,0,0,1-1.28,1.65,4,4,0,0,1-1.46.7,11.16,11.16,0,0,1-2.54.21H81.5Zm1.17-1.09h.74a13.19,13.19,0,0,0,2.49-.16,2.72,2.72,0,0,0,1.15-.54,3.16,3.16,0,0,0,.91-1.29,5.4,5.4,0,0,0,0-3.61,3.18,3.18,0,0,0-.92-1.28,2.74,2.74,0,0,0-1.17-.55,12.72,12.72,0,0,0-2.48-.16h-.74Z" style="fill:#4d4d4d"/><path d="M91.68,167.25V157.5h1.16v9.76Z" style="fill:#4d4d4d"/><path d="M95.47,167.25V157.11l7.14,7.8V157.5h1.11v10.14l-7.14-7.71v7.33Z" style="fill:#4d4d4d"/><path d="M106.32,167.25V157.5h5.14v1.06h-4v2.8h4v1.08h-4v3.74h4v1.08Z" style="fill:#4d4d4d"/><path d="M113.71,167.25V157.5H116a6.74,6.74,0,0,1,1.44.11,2.12,2.12,0,0,1,.8.38,2.22,2.22,0,0,1,.67.91,3.22,3.22,0,0,1,.24,1.26,2.37,2.37,0,0,1-.67,1.82,2.78,2.78,0,0,1-2,.62h-.21l3.72,4.65h-1.47L115,162.6h-.17v4.65Zm1.13-8.78v3.27h.89a3.25,3.25,0,0,0,1.82-.35,1.45,1.45,0,0,0,.46-1.22,1.59,1.59,0,0,0-.47-1.32,3.07,3.07,0,0,0-1.81-.38Z" style="fill:#4d4d4d"/><path d="M125.59,167.25V157.5h1.16v9.76Z" style="fill:#4d4d4d"/><path d="M129.38,167.25V157.11l7.14,7.8V157.5h1.11v10.14l-7.14-7.71v7.33Z" style="fill:#4d4d4d"/><path d="M143.78,161.84a3.31,3.31,0,0,1,1.44,1.08,2.66,2.66,0,0,1,.48,1.59,2.87,2.87,0,0,1-.86,2.17,3.51,3.51,0,0,1-4.2.23,2.91,2.91,0,0,1-1.05-1.68l1.05-.52a2.63,2.63,0,0,0,.7,1.34,1.73,1.73,0,0,0,1.23.46A2,2,0,0,0,144,166a1.7,1.7,0,0,0,.54-1.31,1.8,1.8,0,0,0-.38-1.14,2.87,2.87,0,0,0-1.14-.82l-1.19-.51a3.38,3.38,0,0,1-1.45-1,2.49,2.49,0,0,1-.48-1.53,2.19,2.19,0,0,1,.77-1.72,2.88,2.88,0,0,1,2-.68,3,3,0,0,1,1.52.37,2.53,2.53,0,0,1,1,1.1l-1,.61a2.52,2.52,0,0,0-.73-.84,1.6,1.6,0,0,0-.92-.28,1.48,1.48,0,0,0-1.07.4,1.44,1.44,0,0,0-.1,1.92,2.67,2.67,0,0,0,1,.67Z" style="fill:#4d4d4d"/><path d="M147.53,167.25V157.5h1.16v9.76Z" style="fill:#4d4d4d"/><path d="M156.69,162.21h4v.33a5,5,0,0,1-1.31,3.64,4.76,4.76,0,0,1-3.57,1.33,5.71,5.71,0,0,1-1.31-.15,4.77,4.77,0,0,1-1.15-.43,4.65,4.65,0,0,1-1.85-1.82,5.31,5.31,0,0,1-.65-2.64,5.93,5.93,0,0,1,.39-2.2,4.79,4.79,0,0,1,1.18-1.73,4.39,4.39,0,0,1,1.53-.95,5.56,5.56,0,0,1,1.93-.32,5.45,5.45,0,0,1,2.44.51,4.35,4.35,0,0,1,1.71,1.54l-1,.78a3.57,3.57,0,0,0-1.31-1.33,3.66,3.66,0,0,0-1.83-.44,3.59,3.59,0,0,0-2.76,1.15,4.24,4.24,0,0,0-1.06,3,4,4,0,0,0,1.08,2.87,3.64,3.64,0,0,0,2.74,1.12,3.49,3.49,0,0,0,2.44-.89,3.34,3.34,0,0,0,1.08-2.32h-2.79Z" style="fill:#4d4d4d"/><path d="M162.71,167.25V157.5h1.16v3.75h5.18V157.5h1.18v9.76h-1.18v-4.9h-5.18v4.9Z" style="fill:#4d4d4d"/><path d="M174.54,167.25V158.6h-2.76V157.5h6.68v1.11h-2.75v8.65Z" style="fill:#4d4d4d"/><path d="M183.58,161.84a3.31,3.31,0,0,1,1.44,1.08,2.66,2.66,0,0,1,.48,1.59,2.87,2.87,0,0,1-.86,2.17,3.51,3.51,0,0,1-4.2.23,2.91,2.91,0,0,1-1.05-1.68l1.05-.52a2.63,2.63,0,0,0,.7,1.34,1.73,1.73,0,0,0,1.23.46,2,2,0,0,0,1.41-.5,1.7,1.7,0,0,0,.54-1.31,1.8,1.8,0,0,0-.38-1.14,2.87,2.87,0,0,0-1.14-.82l-1.19-.51a3.38,3.38,0,0,1-1.45-1,2.49,2.49,0,0,1-.48-1.53,2.19,2.19,0,0,1,.77-1.72,2.88,2.88,0,0,1,2-.68,3,3,0,0,1,1.52.37,2.53,2.53,0,0,1,1,1.1l-1,.61a2.52,2.52,0,0,0-.73-.84,1.6,1.6,0,0,0-.92-.28,1.48,1.48,0,0,0-1.07.4,1.44,1.44,0,0,0-.1,1.92,2.67,2.67,0,0,0,1,.67Z" style="fill:#4d4d4d"/><path d="M194.28,156.82v13.65h-.85V156.82Z" style="fill:#4d4d4d"/><path d="M203,167.25V157.11l7.14,7.8V157.5h1.11v10.14l-7.14-7.71v7.33Z" style="fill:#4d4d4d"/><path d="M213.85,167.25V157.5H219v1.06h-4v2.8h4v1.08h-4v3.74h4v1.08Z" style="fill:#4d4d4d"/><path d="M221.24,167.25V157.5h5.14v1.06h-4v2.8h4v1.08h-4v3.74h4v1.08Z" style="fill:#4d4d4d"/><path d="M228.62,167.25V157.5h1.87a13.94,13.94,0,0,1,2.93.21,4,4,0,0,1,1.49.7,4.1,4.1,0,0,1,1.27,1.65,6.43,6.43,0,0,1,0,4.63,4,4,0,0,1-1.28,1.65,4,4,0,0,1-1.46.7,11.16,11.16,0,0,1-2.54.21h-2.29Zm1.17-1.09h.74A13.19,13.19,0,0,0,233,166a2.72,2.72,0,0,0,1.15-.54,3.16,3.16,0,0,0,.91-1.29,5.4,5.4,0,0,0,0-3.61,3.18,3.18,0,0,0-.92-1.28,2.74,2.74,0,0,0-1.17-.55,12.72,12.72,0,0,0-2.48-.16h-.74Z" style="fill:#4d4d4d"/><path d="M245.75,156.82v13.65h-.85V156.82Z" style="fill:#4d4d4d"/><path d="M250.18,167.25V157.5h5.14v1.06h-4v2.8h4v1.08h-4v3.74h4v1.08Z" style="fill:#4d4d4d"/><path d="M256.31,167.25l3-5.18-2.8-4.57h1.39l2.09,3.71,2-3.71h1.32l-2.77,4.68,3.11,5.08h-1.37L259.91,163l-2.28,4.21Z" style="fill:#4d4d4d"/><path d="M266.19,162.87v4.38h-1.13V157.5h2a8,8,0,0,1,1.58.11,2.47,2.47,0,0,1,.88.37,2.23,2.23,0,0,1,.73.91,3.28,3.28,0,0,1,0,2.57,2.22,2.22,0,0,1-.73.91,2.39,2.39,0,0,1-.88.38,7.94,7.94,0,0,1-1.58.11h-.91Zm0-1.05h.59a4,4,0,0,0,2-.35,1.37,1.37,0,0,0,.52-1.22,1.51,1.51,0,0,0-.53-1.31,3.68,3.68,0,0,0-2-.38h-.59Z" style="fill:#4d4d4d"/><path d="M272.26,167.25V157.5h5.14v1.06h-4v2.8h4v1.08h-4v3.74h4v1.08Z" style="fill:#4d4d4d"/><path d="M279.64,167.25V157.5h2.29a6.74,6.74,0,0,1,1.44.11,2.12,2.12,0,0,1,.8.38,2.22,2.22,0,0,1,.67.91,3.22,3.22,0,0,1,.24,1.26,2.37,2.37,0,0,1-.67,1.82,2.78,2.78,0,0,1-2,.62h-.21l3.72,4.65H284.5l-3.56-4.65h-.17v4.65Zm1.13-8.78v3.27h.89a3.25,3.25,0,0,0,1.82-.35,1.45,1.45,0,0,0,.46-1.22,1.59,1.59,0,0,0-.47-1.32,3.07,3.07,0,0,0-1.81-.38Z" style="fill:#4d4d4d"/><path d="M287.23,167.25V157.5h1.16v9.76Z" style="fill:#4d4d4d"/><path d="M291,167.25V157.5h5.14v1.06h-4v2.8h4v1.08h-4v3.74h4v1.08Z" style="fill:#4d4d4d"/><path d="M298.4,167.25V157.11l7.14,7.8V157.5h1.11v10.14l-7.14-7.71v7.33Z" style="fill:#4d4d4d"/><path d="M317.17,159.83a4.71,4.71,0,0,0-1.49-1.12,4.16,4.16,0,0,0-1.75-.36,3.93,3.93,0,0,0-2.79,1.19,3.89,3.89,0,0,0-.84,1.3,4.31,4.31,0,0,0-.28,1.58,4.46,4.46,0,0,0,.17,1.25,3.58,3.58,0,0,0,.5,1.05,4.06,4.06,0,0,0,1.44,1.28,4.06,4.06,0,0,0,3.58.06,4.54,4.54,0,0,0,1.46-1.15v1.54a5.54,5.54,0,0,1-1.56.8,5.6,5.6,0,0,1-1.73.27,5,5,0,0,1-1.51-.23,5.11,5.11,0,0,1-1.37-.67,5,5,0,0,1-2.19-4.19,5.38,5.38,0,0,1,.38-2,4.94,4.94,0,0,1,1.15-1.68,5,5,0,0,1,1.65-1.08,5.54,5.54,0,0,1,3.62-.1,6,6,0,0,1,1.57.8Z" style="fill:#4d4d4d"/><path d="M319.42,167.25V157.5h5.14v1.06h-4v2.8h4v1.08h-4v3.74h4v1.08Z" style="fill:#4d4d4d"/><path d="M270.06,142.37h3v.29a3.88,3.88,0,0,0,1.25,3,4.92,4.92,0,0,0,3.41,1.12,5.43,5.43,0,0,0,3.84-1.26A4.64,4.64,0,0,0,283,142a4.69,4.69,0,0,0-1.38-3.67,5.93,5.93,0,0,0-4.09-1.24H277l-.35,0v-2.45l.4,0,.4,0a5.86,5.86,0,0,0,3.91-1.13,4.81,4.81,0,0,0,.12-6.49,4.49,4.49,0,0,0-3.26-1.16,5,5,0,0,0-3.42,1.07,4.21,4.21,0,0,0-1.33,3.11l-2.95,0a6.72,6.72,0,0,1,2.17-5,8.27,8.27,0,0,1,5.59-1.73,8,8,0,0,1,5.48,1.8,6.19,6.19,0,0,1,2,4.87,6,6,0,0,1-1.17,3.77,5.82,5.82,0,0,1-3.28,2.09,5.38,5.38,0,0,1,3.51,2,6.61,6.61,0,0,1,1.27,4.17,6.72,6.72,0,0,1-2.24,5.35,9.13,9.13,0,0,1-6.19,1.94,8.19,8.19,0,0,1-5.54-1.78,6,6,0,0,1-2.06-4.78Z" style="fill:#ea2127"/><path d="M294.55,134.56a7.22,7.22,0,0,1,1.87-.91,6.71,6.71,0,0,1,2-.29,7.31,7.31,0,0,1,5.47,2.15,7.69,7.69,0,0,1,2.1,5.61,7.89,7.89,0,0,1-2.38,6,9,9,0,0,1-6.46,2.24,7.26,7.26,0,0,1-5.56-2.26,8.35,8.35,0,0,1-2.12-5.95q0-3.55,4.71-10.23l.15-.22,5.72-8.09,2.6,1.37Zm-2,6.87a5.57,5.57,0,0,0,1.41,4,5,5,0,0,0,3.79,1.47,4.88,4.88,0,0,0,3.74-1.52,6.44,6.44,0,0,0,0-8.06,5.14,5.14,0,0,0-3.91-1.49,4.64,4.64,0,0,0-3.63,1.55A5.82,5.82,0,0,0,292.54,141.43Z" style="fill:#ea2127"/><path d="M317.1,149.4a7.33,7.33,0,0,1-6.4-3.47q-2.34-3.47-2.34-9.55t2.32-9.52a7.26,7.26,0,0,1,6.35-3.47,7.34,7.34,0,0,1,6.43,3.43q2.31,3.43,2.31,9.56t-2.3,9.57A7.25,7.25,0,0,1,317.1,149.4Zm0-2.45a4.53,4.53,0,0,0,4.19-2.68q1.43-2.68,1.43-7.86t-1.43-7.89a4.54,4.54,0,0,0-8.33.07,16.65,16.65,0,0,0-1.48,7.75,16.9,16.9,0,0,0,1.48,7.81A4.55,4.55,0,0,0,317.07,147Z" style="fill:#ea2127"/></svg>