<svg id="Layer_1" data-name="Layer 1" xmlns="http://www.w3.org/2000/svg" viewBox="0 0 145.33 141"><defs><style>.cls-1{fill:#fff;}.cls-2{fill:#008061;}.cls-3{fill:#ed1b2d;}.cls-4{fill:#f5821f;}</style></defs><title>7-Eleven</title><rect class="cls-1" x="7.39" y="4.69" width="130.54" height="134"/><path class="cls-2" d="M.5,140.5V.83C.5.56.56.5.83.5h144V139.88c0,.72.05.6-.59.6H1.07ZM71.75,8.41H18.58a5,5,0,0,0-2.84.91,6.06,6.06,0,0,0-2.6,6.18c.21,1.58.33,3.18.48,4.77q.2,2,.39,4,.24,2.38.47,4.77c.13,1.33.26,2.65.39,4l.48,4.77c.13,1.33.26,2.65.39,4l.48,4.84q.19,2,.38,3.91l.48,4.84.46,4.66L18,64.9l.39,3.95q.24,2.38.47,4.77t.46,4.7l.48,4.8q.2,2,.39,4l.47,4.77q.2,2,.39,4l.48,4.77c.13,1.33.26,2.65.39,4l.48,4.8q.2,2,.39,4l.47,4.77c.13,1.35.27,2.7.4,4.05.11,1.11.24,2.22.31,3.34a7.26,7.26,0,0,0,.76,3.05,4.62,4.62,0,0,0,4.4,2.75H54.42c.32,0,.43.07.43.41v4.84c0,.29.06.39.37.39h34c.29,0,.36-.09.36-.37v-4.58c0-.67,0-.67.66-.67h24.4a4.15,4.15,0,0,0,2.83-1,6.08,6.08,0,0,0,2.07-4c.14-1.18.21-2.37.32-3.55.15-1.61.32-3.23.48-4.84.13-1.34.26-2.68.39-4l.48-4.88q.19-2,.39-4l.48-4.88c.13-1.33.26-2.65.39-4l.48-4.84c.16-1.61.3-3.16.46-4.74s.32-3.3.49-4.95l.39-3.95.48-4.84c.13-1.34.26-2.68.39-4l.48-4.84c.13-1.33.25-2.66.38-4q.24-2.47.49-4.95l.39-3.95.48-4.88q.19-2,.39-4l.48-4.88c.13-1.33.26-2.65.39-4l.48-4.88c.13-1.33.25-2.65.38-4l.48-4.88c.13-1.36.26-2.73.41-4.09a7.57,7.57,0,0,0-.08-2.68,5.93,5.93,0,0,0-5.84-4.48Q98.06,8.5,71.75,8.41Z"/><path class="cls-3" d="M112.9,38V52.33a.46.46,0,0,1-.37.53,28.1,28.1,0,0,0-8,4.52A40.57,40.57,0,0,0,94.47,68.65a20.18,20.18,0,0,0-2.58,6.27,7.19,7.19,0,0,0-.13.85c0,.27-.14.35-.41.35H63.42c-.27,0-.38,0-.32-.36a54.84,54.84,0,0,1,9.2-21.19A76.76,76.76,0,0,1,86.78,39.2a111.45,111.45,0,0,1,21-13.39c1.59-.79,3.2-1.54,4.82-2.29.3-.14.35-.07.35.23Q112.9,30.85,112.9,38Z"/><path class="cls-4" d="M102.89,24.72A71.53,71.53,0,0,0,92.22,30.8,121.2,121.2,0,0,0,78.73,41.05a53.67,53.67,0,0,0-7.5,7.84,16.41,16.41,0,0,0-1.35,2,.63.63,0,0,1-.65.37H32.92c-.33,0-.43-.09-.44-.43-.09-8.59,0-17.18-.06-25.77,0-.29.08-.43.39-.39h70.08Z"/><path class="cls-3" d="M72.43,134.85H57.56c-.46,0-.45,0-.46-.47q0-5.92.17-11.84.14-5,.43-10,.28-4.77.72-9.53c.05-.56.12-1.12.18-1.69q0-.27.27-.24H88.32c.49,0,.5,0,.46.49q-.29,2.93-.47,5.86c-.1,1.64-.19,3.29-.25,4.94-.28,7.36-.3,14.72-.28,22.09,0,.34-.11.39-.41.39Z"/><path class="cls-2" d="M105,81.62V80.39a.43.43,0,0,1,.21-.42,8.34,8.34,0,0,1,5.33-1.54,4.32,4.32,0,0,1,3.12,1.45,3,3,0,0,1,.72,1.81V98.4c0,.49,0,.49-.48.49h-4.55c-1,0-1,0-1-1v-13c0-1-.59-1.59-1.72-1.59a1.65,1.65,0,0,0-1.76,1.54s0,.08,0,.11V98.34c0,.55,0,.48-.49.48H99.26c-.26,0-.37,0-.37-.35V79.27c0-.29.08-.37.36-.37h5.31c.29,0,.37.1.36.37v2.27Z"/><path class="cls-2" d="M76.54,92.33l.27-1.43,2.1-11.62A.3.3,0,0,1,79.2,79h4.07c.28,0,.31.1.26.35Q82,87.43,80.45,95.52c-.19,1-.39,2-.58,3,0,.23-.12.34-.39.34h-7.4c-.29,0-.36-.1-.4-.36-.44-2.87-.9-5.74-1.35-8.61s-.93-6-1.4-9c-.08-.53-.17-1.07-.27-1.6,0-.26,0-.39.31-.39h4.76c.26,0,.34.08.39.34q.84,4.84,1.71,9.68l.6,3.33Z"/><path class="cls-2" d="M30.11,88.91V79.38c0-.32.08-.41.4-.41H40.9c.3,0,.39.08.39.38V83c0,.27-.06.37-.36.37H36.74c-.31,0-.39.09-.38.39v3.07c0,.27.08.35.35.35h4.22c.31,0,.35.11.35.37v2.89c0,.33-.08.44-.42.43h-4c-.36,0-.48.09-.47.46v3c0,.31.08.42.41.41h4.15c.28,0,.37.07.37.36v3.54c0,.27-.07.35-.34.35H30.48c-.28,0-.33-.09-.33-.35Q30.12,93.73,30.11,88.91Z"/><path class="cls-2" d="M56.25,88.92V79.39c0-.34.1-.42.42-.42H67c.32,0,.43.07.43.41V83c0,.28-.08.34-.35.34H62.88c-.31,0-.39.09-.38.39v3.07c0,.27.08.35.35.35h4.22c.28,0,.34.08.34.35v3c0,.28-.09.35-.35.35H62.95c-.34,0-.46.09-.45.44v3c0,.33.08.44.42.43H67c.3,0,.38.09.38.39v3.54c0,.26-.07.32-.32.32H56.59c-.32,0-.34-.13-.34-.38Q56.26,93.72,56.25,88.92Z"/><path class="cls-2" d="M85,89V79.47c0-.48,0-.48.47-.48H95.75c.36,0,.47.08.46.46V83c0,.28-.07.37-.36.37H91.66c-.3,0-.39.09-.38.38v3c0,.32.07.43.41.43h4.15c.29,0,.37.08.36.36v3c0,.3-.1.37-.38.37H91.71c-.35,0-.45.1-.44.45v3c0,.27.08.35.35.35h4.19c.29,0,.4.07.39.38v3.54c0,.25-.07.33-.32.33H85.38c-.34,0-.36-.15-.36-.41V90.34Q85,89.61,85,89Z"/><path class="cls-2" d="M43.46,88.93V79.4c0-.33.09-.42.42-.42h5.45c.32,0,.4.09.4.41V94.15c0,.52,0,.52.53.52h4c.27,0,.35.08.34.35v3.57c0,.25-.07.32-.32.32H43.78c-.3,0-.35-.11-.35-.37Q43.47,93.73,43.46,88.93Z"/></svg>