<svg id="Layer_1" data-name="Layer 1" xmlns="http://www.w3.org/2000/svg" viewBox="0 0 139.4 132.8"><defs><style>.cls-1{fill:#04a551;}.cls-2{fill:#ea1b26;}</style></defs><title>99 Ranch Market</title><path class="cls-1" d="M.5,73.3a1,1,0,0,1,.66.12A59,59,0,0,1,16,84.2a31.91,31.91,0,0,1,3.26,4c.13.19.2.47.47.44s.24-.36.28-.56a36.55,36.55,0,0,1,2.31-8.45,33.39,33.39,0,0,1,4.65-8c.12-.15.21-.43.44-.36s.17.3.23.47A50.32,50.32,0,0,1,30,97.42a12.66,12.66,0,0,0,1.11,7c.24.57.14.69-.45.71a12.18,12.18,0,0,1-4-.86,45,45,0,0,1-7.44-2.74c-5.66-3-10.52-6.85-13.7-12.47A38.83,38.83,0,0,1,.82,76.42C.74,76,.61,75.52.5,75.07Z"/><path class="cls-1" d="M138.9,73c-.48.5-.4,1.19-.53,1.79a38.24,38.24,0,0,1-8.54,17.42,30.87,30.87,0,0,1-11.31,8.5c-2.85,1.2-5.63,2.67-8.73,3.2-1.71.29-1.72.29-1.33-1.36a23.2,23.2,0,0,0,.21-7.78,53.63,53.63,0,0,1-.55-7.93,47.48,47.48,0,0,1,1.79-10.33c.58-2.09,1.14-4.18,1.72-6.26.05-.19,0-.46.28-.51s.36.22.47.41a43.87,43.87,0,0,1,5.38,12.44,32,32,0,0,1,.66,3.74,6.39,6.39,0,0,0,.12.83,1,1,0,0,0,.77-.58c1.19-2.48,3.31-4.09,5.41-5.7,2.74-2.11,5.78-3.78,8.66-5.67a29.87,29.87,0,0,0,4.35-3.16,3.52,3.52,0,0,1,1.17-.71Z"/><path class="cls-1" d="M63.33.5a1.1,1.1,0,0,1-.88,1.28l-.12,0c-2,.4-3.13,1.92-4.34,3.33a55.73,55.73,0,0,1-4.07,4.78,21.5,21.5,0,0,1-4.79,3,34.84,34.84,0,0,1-9,3.57c-.49.1-1.15.46-1.44.15s.13-.94.32-1.39A19.72,19.72,0,0,1,53.08,3.09c2.37-.58,4.81-.86,7.18-1.45A8.62,8.62,0,0,0,63.19.51Z"/><path class="cls-2" d="M66.7,64.36c0,8.21-.1,16.42,0,24.63a9.47,9.47,0,0,1-6.46,9.59,16.74,16.74,0,0,1-13.64-.4,10,10,0,0,1-6-9.61v-8.3c0-.52.15-.66.66-.65h8.79c.49,0,.61.15.61.63v7.82a2.46,2.46,0,0,0,2,2.56,3.1,3.1,0,0,0,3.4-1.06,2.19,2.19,0,0,0,.37-1.24V73.52c0-.52-.17-.5-.56-.33a13.85,13.85,0,0,1-6.28,1.41,9.4,9.4,0,0,1-8-4.84,7.5,7.5,0,0,1-1-3.78c0-9-.07-18,0-27a9.42,9.42,0,0,1,5.65-8.69,15.69,15.69,0,0,1,15.9.58A9,9,0,0,1,66.7,39ZM56.41,51.26h0V39.78a2.46,2.46,0,0,0-.91-2,2.79,2.79,0,0,0-3.09-.55,2.91,2.91,0,0,0-1.71,2.94V62.29a6.78,6.78,0,0,0,.1,1.24,2.2,2.2,0,0,0,1.06,1.62,3,3,0,0,0,3.1,0,2.75,2.75,0,0,0,1.51-2.59c0-3.74,0-7.52,0-11.29Z"/><path class="cls-2" d="M100,64.34c0,8.21-.06,16.42,0,24.63,0,4.44-1.91,7.57-5.9,9.26A16.71,16.71,0,0,1,79.62,98a10.47,10.47,0,0,1-5.44-6.48,7.51,7.51,0,0,1-.32-2.25V80.17c0-.52.15-.66.66-.66h8.79c.5,0,.61.16.61.63v7.54a2.92,2.92,0,0,0,4.28,2.74A2.4,2.4,0,0,0,89.68,88V74.72c0-.55.25-1.33-.11-1.59s-1,.28-1.5.46a12.79,12.79,0,0,1-6.37.83A10,10,0,0,1,76,71.28a8.32,8.32,0,0,1-2.13-6.13V39.83a10,10,0,0,1,6.62-10,15.58,15.58,0,0,1,15.37,1.29A8.92,8.92,0,0,1,100,39Q100,51.65,100,64.34ZM84,51.21h0V62.48a2.77,2.77,0,0,0,.94,2.42,3,3,0,0,0,3.21.24,2.69,2.69,0,0,0,1.62-2.59V39.73a2.67,2.67,0,0,0-1.05-2.17A2.88,2.88,0,0,0,84,39.86q-.07,5.68-.08,11.35Z"/><path class="cls-1" d="M127.83,99.16a20.5,20.5,0,0,1-1.77,4.87,30.07,30.07,0,0,1-19.14,14.87,32.49,32.49,0,0,1-5,.77c-4,.44-8-.12-12-.34-3.52-.2-7-.47-10.56-.71-.26,0-.51,0-.66.33,1.53.83,3,1.71,4.51,2.65,3.54,2.26,6.82,4.87,10.12,7.46.17.13.34.28.3.51s-.32.23-.5.28c-2.26.55-4.53,1.08-6.78,1.65a.89.89,0,0,1-.81-.21A58.69,58.69,0,0,1,80.45,127a25.64,25.64,0,0,0-6.35-4.63,10.24,10.24,0,0,0-5.8-.87,6.4,6.4,0,0,0-2,.87A66.38,66.38,0,0,0,56.07,129a40.13,40.13,0,0,0-3.56,3c-.21.21-.39.41-.77.32-2.35-.59-4.71-1.13-7-1.91a.32.32,0,0,1-.36-.26c1.1-1,2.29-2,3.51-2.94a48.25,48.25,0,0,1,14.76-8c.16-.05.45,0,.37-.3s-.39-.2-.6-.22a36.76,36.76,0,0,0-7.94.16c-3.64.46-7.21,1.3-10.83,1.87-3.4.54-6.8,1-10.24.35a27,27,0,0,1-11-5,41,41,0,0,1-12.36-14.9c-.09-.17-.29-.38-.09-.55s.34.05.49.14A69.18,69.18,0,0,0,34.27,109a119.19,119.19,0,0,0,17.2,1.68,39.67,39.67,0,0,1,13.13,3c1.1.42,2.19.86,3.26,1.34a5,5,0,0,0,4,.05c1.33-.52,2.59-1.21,3.94-1.67A86.22,86.22,0,0,1,89.7,110c5-.86,10.09-1.68,15.13-2.56a65.34,65.34,0,0,0,19.23-6.3A40.79,40.79,0,0,0,127.83,99.16Z"/><path class="cls-1" d="M123,60.71a1.39,1.39,0,0,0,.42-.94c.53-3.87,2.6-6.93,5.07-9.79,2.08-2.41,4.4-4.58,6.53-6.94.4-.45.91-.28,1.07.4a25.21,25.21,0,0,1,.48,2.86,50,50,0,0,1,.08,11.52,20.25,20.25,0,0,1-3.56,8.6,90,90,0,0,1-9.74,11.64l-.57.61c-.6.64-.79.7-1.12-.09-1-2.26-3-3.56-4.48-5.34a30.57,30.57,0,0,1-3.83-5.72,34.13,34.13,0,0,1-3.43-16v-3c0-.31.08-.6.46-.24,2.39,2.28,5.14,4.11,7.64,6.26a18.38,18.38,0,0,1,4.76,5.85A2.66,2.66,0,0,0,123,60.71Z"/><path class="cls-1" d="M3.92,43.58c.69.77,1.32,1.45,1.93,2.16a46.94,46.94,0,0,1,7.79,11.75,28.69,28.69,0,0,1,1.7,4.88c0,.2,0,.51.32.56s.35-.26.46-.44c2.33-3.78,5.61-6.69,8.86-9.61,1-.88,2-1.74,2.95-2.61.16-.14.3-.31.54-.22s.18.31.2.48a31.06,31.06,0,0,1-1.44,14,37.28,37.28,0,0,1-9.82,14.58,4.16,4.16,0,0,0-.89,1.37c-.24.54-.47.5-.87.1a66.36,66.36,0,0,1-5.74-6.63c-1.66-2.15-3.25-4.36-4.73-6.64A16.69,16.69,0,0,1,3.1,61.85a35.16,35.16,0,0,1,.6-17.7C3.75,44,3.82,43.87,3.92,43.58Z"/><path class="cls-1" d="M20.87,36.67a27.31,27.31,0,0,1-.17,2.95c0,.18-.08.39.09.52s.39,0,.56-.13a14.89,14.89,0,0,0,2.15-1.83,36.5,36.5,0,0,1,9.89-5.56l1-.4c.23-.09.49-.3.71-.13s.07.47,0,.71a23.55,23.55,0,0,1-2.65,6.94A36.73,36.73,0,0,1,20.81,51.9a45.11,45.11,0,0,1-4.52,2.65c-.4.21-.59.12-.85-.2a28.46,28.46,0,0,1-2.72-5.18A25.68,25.68,0,0,1,10,37.58a19.78,19.78,0,0,1,2.06-8.8,44.51,44.51,0,0,1,4.47-7.52c.42-.56.69-.55,1,.08A9.5,9.5,0,0,1,18,22.42,40.82,40.82,0,0,1,20.87,36.67Z"/><path class="cls-1" d="M128.33,35.51a29.33,29.33,0,0,1-5.08,16.9,1,1,0,0,1-1.32.5l-.13-.07a22.27,22.27,0,0,1-4-2.1,33.15,33.15,0,0,1-14-18.5c-.34-1.1-.33-1.1.78-1.06,4.26.17,7.7,2.13,10.76,4.92.68.62,1.28,1.32,1.94,2,.15.14.3.41.57.26s.19-.36.18-.57c-.48-5.77,1.56-11,3.45-16.27.14-.39.4-.56.7-.18C125.5,25.51,128.29,29.91,128.33,35.51Z"/><path class="cls-1" d="M116.06,26a28.45,28.45,0,0,1-.14,5c-.06.38-.1.66-.63.47-4.28-1.49-8.64-2.76-12.65-4.95a29,29,0,0,1-7.11-5.75c-1.42-1.51-2.88-3-4.42-4.38-.15-.13-.37-.25-.31-.5s.32-.22.51-.24a24.33,24.33,0,0,1,13.28,2c.2.09.42.32.62.14s0-.43-.1-.63L99.7,4.4a1.81,1.81,0,0,1-.11-.25c0-.15-.19-.3-.07-.45s.33-.08.51,0A19.17,19.17,0,0,1,105.1,6a23.84,23.84,0,0,1,10.72,16.15A27.13,27.13,0,0,1,116.06,26Z"/><path class="cls-1" d="M40.17,3.86,38.5,7.69c-1.15,2.66-2.31,5.32-3.45,8a18,18,0,0,1-1.7,2.68,2.87,2.87,0,0,0-.6,1.83c.9-.4,1.72-.81,2.57-1.14a41.81,41.81,0,0,1,8.12-1.91c1.65-.29,3.29-.62,5-1a1.19,1.19,0,0,1-.67.79,5.6,5.6,0,0,0-1.46,1.48,35.42,35.42,0,0,1-17.1,12.89c-1.88.66-3.61,1.61-5.46,2.29-.36.13-.65.23-.58-.33a27.36,27.36,0,0,0-.15-6.9,15.1,15.1,0,0,1,2.41-9.95A30.48,30.48,0,0,1,39.89,3.92Z"/><path class="cls-1" d="M72.63,2.42a5,5,0,0,1,2.16.34A7.26,7.26,0,0,0,77.51,3,33.9,33.9,0,0,1,89.6,4.37a17.86,17.86,0,0,1,9.29,6.7,20,20,0,0,1,1,1.82c.25.45.15.6-.36.6a39.34,39.34,0,0,1-4.69-.15A26.65,26.65,0,0,1,78,5a3.65,3.65,0,0,0-1.25-.83C75.36,3.62,74,3,72.63,2.42Z"/><path class="cls-1" d="M33.4,95.53a48.18,48.18,0,0,1,11,13.82C39.12,109.89,32.31,101.42,33.4,95.53Z"/><path class="cls-1" d="M94.89,108.54a27.83,27.83,0,0,1,3.23-4.94,37.24,37.24,0,0,1,8.74-8c.17-.11.35-.35.54-.23s.05.42,0,.62a24.85,24.85,0,0,1-3.22,6.69,16,16,0,0,1-7,4.9Z"/><path class="cls-1" d="M120,131.23a5.49,5.49,0,1,1,5.49-5.49A5.49,5.49,0,0,1,120,131.23Zm0-10.2a4.7,4.7,0,1,0,4.7,4.7h0A4.71,4.71,0,0,0,120,121Z"/><path class="cls-1" d="M117.47,128.54v-5.62h2.39a4.09,4.09,0,0,1,1.31.15,1.29,1.29,0,0,1,.65.54,1.62,1.62,0,0,1,.25.89,1.5,1.5,0,0,1-.37,1,1.79,1.79,0,0,1-1.11.52,2.65,2.65,0,0,1,.61.47,6.42,6.42,0,0,1,.65.91l.69,1.1h-1.36l-.82-1.22a8,8,0,0,0-.6-.83.87.87,0,0,0-.34-.23,1.87,1.87,0,0,0-.57-.06h-.23v2.35Zm1.13-3.24h.84a4.34,4.34,0,0,0,1-.07.61.61,0,0,0,.32-.24.73.73,0,0,0,.12-.42.67.67,0,0,0-.15-.46.69.69,0,0,0-.43-.22h-1.72Z"/></svg>