<svg id="Layer_1" data-name="Layer 1" xmlns="http://www.w3.org/2000/svg" viewBox="0 0 177.67 57.03"><defs><style>.cls-1{fill:#ef3b39;}</style></defs><title>Acme</title><path class="cls-1" d="M84.37,56.44c.16-.81.31-1.6.46-2.38l3.06-15.62,2.77-14.1,2.8-14.24c.6-3,1.21-6.1,1.8-9.15.05-.28.14-.38.43-.38H113V21.23h.11c.07-.14.15-.28.21-.43q4.08-9.86,8.15-19.73a.78.78,0,0,1,.86-.56h18.32L129.89,56.37H116.46l4.15-21h-.08c-.07.15-.14.3-.2.46q-3.57,10-7.14,20.06a.65.65,0,0,1-.73.53h-8.22v-21h-.13c-.15.65-.31,1.31-.46,2q-2.14,9.38-4.27,18.76c-.06.27-.14.39-.43.39H84.64Z"/><path class="cls-1" d="M44.11,1.64V56.43H29.24V49.19c0-.42-.09-.58-.55-.58H18.88a.59.59,0,0,0-.66.46c-.87,2.33-1.76,4.65-2.63,7a.53.53,0,0,1-.59.4H.5c.31-.85.59-1.64.89-2.43Q11,28.13,20.52,2.21a.7.7,0,0,1,.77-.55H43.5ZM23.76,32.42l.33.06h4.74c.34,0,.39-.16.39-.45V21a2.27,2.27,0,0,0,0-.32h-.09Z"/><path class="cls-1" d="M177.17.6c-.17,1-.34,2-.5,3l-1.79,10.49c-.12.7-.25,1.4-.36,2.11,0,.25-.15.35-.39.33H159.85c-.47,0-.66.13-.77.59-.34,1.43-.73,2.84-1.12,4.35h15.2c-.21,1.12-.41,2.16-.61,3.2-.53,2.75-1.07,5.51-1.59,8.26-.07.4-.2.55-.63.55H156.6c-.41,0-.58.12-.67.52-.39,1.62-.82,3.23-1.24,4.85a.94.94,0,0,1-.08.42h15l-2.73,17.2H137c.14-.81.27-1.58.41-2.35l2.22-12.39,2.16-11.9,2-11.32q1.06-5.89,2.13-11.77c.35-1.92.71-3.85,1-5.77.05-.32.17-.39.47-.39h29.37Z"/><path class="cls-1" d="M81.09,40.51l-2.31,16H56.48a6.76,6.76,0,0,1-5.65-2.79,11.42,11.42,0,0,1-2.12-4.84,4.76,4.76,0,0,1,.15-1.53L51.2,31.69q1-6.75,2-13.5c.39-2.49.71-5,1.29-7.44a13.25,13.25,0,0,1,7.75-9.57,7.07,7.07,0,0,1,3-.62h23c-.12.76-.23,1.49-.35,2.21l-1.8,10.67c-.24,1.42-.49,2.84-.72,4.26,0,.31-.22.3-.45.3-4.33-.08-8.66-.17-13-.2a7.32,7.32,0,0,0-2.35.42,2.71,2.71,0,0,0-1.81,2.27c-.59,3.31-1.2,6.62-1.8,9.94Q65.37,33.7,64.81,37a2.36,2.36,0,0,0,.68,2.13,3.48,3.48,0,0,0,2.56,1.18c4.09,0,8.18.11,12.27.18Z"/></svg>