<svg id="Layer_1" data-name="Layer 1" xmlns="http://www.w3.org/2000/svg" viewBox="0 0 156.86 150.2"><defs><style>.cls-1{fill:#026a41;}.cls-2{fill:#070519;}.cls-3{fill:#fefefe;}</style></defs><title>AJ&amp;apos;s Fine Foods</title><path class="cls-1" d="M108.67,8.6A3.62,3.62,0,0,0,110,8.31a52.53,52.53,0,0,1,7.74-2.38,7.59,7.59,0,0,1,1.87-.18c1.51.06,2,1,1.27,2.33a13.61,13.61,0,0,1-1.16,1.59,9.87,9.87,0,0,0-2.09,4.2A4.29,4.29,0,0,0,117,15.6a5.13,5.13,0,0,0-.83,2.2,48,48,0,0,0-1.77,5.26,12.55,12.55,0,0,0-.67,2.76,2.24,2.24,0,0,0-.27.5c-.51,2.12-1,4.24-1.52,6.36a1.37,1.37,0,0,0,.09.72,5.22,5.22,0,0,0-.62,2.61c-.18.1-.15.27-.18.43-1,5.4-1.71,10.85-2.22,16.32-.75,7.89-1.09,15.81-1.4,23.73,0,.58.13.67.69.54a69,69,0,0,0,14-4.69,24.22,24.22,0,0,0,5.21-3.07,8.85,8.85,0,0,0,.74-.5c.73-.61,1.45-1.24,2.17-1.86.22-.19.45-.35.74-.21a.71.71,0,0,1,.3.78,2.56,2.56,0,0,1-.53,1.09,16.47,16.47,0,0,1-3.29,3c-.19.1-.39.18-.57.29a53.66,53.66,0,0,1-6.58,3.5,78.88,78.88,0,0,1-12.33,3.89c-.42.1-.71.17-.74.75a127.15,127.15,0,0,1-1.55,14.26,89.24,89.24,0,0,1-8.1,25.62,6.33,6.33,0,0,0-.82,1.77c-.82,1.11-1.41,2.36-2.12,3.54a4.23,4.23,0,0,0-.94,1.49l-4.16,5.47a15.2,15.2,0,0,0-2.38,2.66l-5.53,4.91a4.59,4.59,0,0,0-1.42,1l-3.3,2.34-4.26,2.14A33.28,33.28,0,0,1,69,146.86a46.1,46.1,0,0,1-9.81,2.56,24.26,24.26,0,0,1-13.32-1.71A15.26,15.26,0,0,1,37.07,137l-.21-.79a16.18,16.18,0,0,1-.31-2.39,8.1,8.1,0,0,0-.06-1c-.11-.62.18-1.3-.24-1.88a11.89,11.89,0,0,0,.36-3c.18-1.7.58-3.36.92-5a68.81,68.81,0,0,1,3.1-6.94,14.48,14.48,0,0,0,1-1.87.75.75,0,0,0,.2-.15,41.49,41.49,0,0,1,4-5.18c.24-.26.16-.47.06-.74-.31-.88-.61-1.76-.88-2.64a60.42,60.42,0,0,1-2.19-12.57,81.82,81.82,0,0,1,0-13c.08-1,.11-1-.84-.8a110.89,110.89,0,0,0-12.31,3.43,1,1,0,0,0-.66.66c-.56,1.28-1.19,2.52-1.71,3.81a27.08,27.08,0,0,0-1.59,4,7.26,7.26,0,0,0-.89,1.72,74.94,74.94,0,0,1-6.54,11.5c-1,1.36-2.16,2.51-3.18,3.82a4.65,4.65,0,0,0-1.72,1.55,4.08,4.08,0,0,0-1.55.93,2.39,2.39,0,0,0-1,.43A10.71,10.71,0,0,1,6.34,112,5.29,5.29,0,0,1,.7,107.56a11.82,11.82,0,0,1,1.47-8.2,21.85,21.85,0,0,1,2.44-3.68c.2-.25.37-.54.55-.81l1.46-1.6a10.87,10.87,0,0,0,1.82-1.81,2.27,2.27,0,0,0,.42-.24,49.94,49.94,0,0,1,14.75-9c.79-.31,1.57-.64,2.37-.9a1.51,1.51,0,0,0,1-1c1.92-4.56,4-9,6.21-13.48A294.45,294.45,0,0,1,56.73,27.46a30.5,30.5,0,0,0,2.12-3.09h0l.18-.16c1.37-2,3.14-3.67,4.62-5.59a7.82,7.82,0,0,0,1.8-2c.72-.67,1.42-1.36,2.16-2,1.25-1.1,2.51-2.18,3.77-3.27.46-.07.73-.44,1.11-.65s.83-.71,1.31-.27.29,1,.07,1.52a2.41,2.41,0,0,1-.18.37c-1.32,2-1.91,4.44-3.29,6.44a4.3,4.3,0,0,0-.36.9l-1.12,2.26A139.62,139.62,0,0,0,62.3,38.86a126.62,126.62,0,0,0-5.37,25.39c-.35,3.35-.57,6.7-.64,10.07,0,.37-.17.81.53.83q4.55.16,9.1.42a84.33,84.33,0,0,1,13,1.66c.47.1,1,.2.91.83s-.56.83-1.14.78-1-.1-1.47-.17a120.25,120.25,0,0,0-20.54-1.13c-.52,0-.62.18-.63.67a113.17,113.17,0,0,0,1.27,18.24c.23,1.59.26,1.6,1.49.64a84,84,0,0,1,22-12.33c4.68-1.79,9.42-3.37,14.25-4.69.38-.1.77-.1.76-.72-.1-7.58,0-15.16.47-22.73.33-5.24.84-10.47,1.59-15.67.64-4.38,1.49-8.73,2.48-13,.68-2.81,1.43-5.6,2.35-8.34.73-2.2,1.52-4.38,2.28-6.56H105l-.06.07a2.92,2.92,0,0,0-.64.1A46.8,46.8,0,0,0,98.43,16a3.79,3.79,0,0,0-1.55,1,8.69,8.69,0,0,0-2.73,1.65,21.18,21.18,0,0,0-3,2.23,1.68,1.68,0,0,0-.88.72,9,9,0,0,0-1.93,1.64,5.08,5.08,0,0,0-.53.38,50.29,50.29,0,0,0-9.29,11.21C75.45,40,73.37,45.43,73.46,51.59a22.73,22.73,0,0,0,16.8,21.69,19.83,19.83,0,0,0,3.3.6c.28,0,.57.09.61.43a.61.61,0,0,1-.47.68,4.32,4.32,0,0,1-.8.17,18.8,18.8,0,0,1-3.69.18C80.54,74.82,74,71,70.34,62.93c-2.92-6.41-2.74-13-.57-19.62,2.62-8,7.36-14.6,13.36-20.38.19-.18.48-.29.5-.62a10.82,10.82,0,0,0,2.45-2.08,1.86,1.86,0,0,0,1.1-.71l1.16-.83a3.27,3.27,0,0,0,1.18-.82,23.4,23.4,0,0,0,2.8-1.76A9.43,9.43,0,0,0,95,14.6a19.2,19.2,0,0,0,2.64-1.2,3.5,3.5,0,0,0,1.1-.62l4.93-2.13a14.31,14.31,0,0,0,2.92-1.14A5.86,5.86,0,0,0,108.67,8.6Zm-19.28,118,.17-.15A8.19,8.19,0,0,0,90.72,124a1.33,1.33,0,0,0,.52-.71,52.38,52.38,0,0,0,4.22-17.2c.61-6.36.47-12.74.49-19.11V82.62a6.17,6.17,0,0,0-.66.11A119.64,119.64,0,0,0,73.1,91.06a88.46,88.46,0,0,0-14.19,9.14c-.26.21-.49.35-.36.79a21.38,21.38,0,0,0,2.73,6.29,9.06,9.06,0,0,0,5.43,4c1.32.31,1.59.84.92,2.06a15,15,0,0,1-9,7.46,4.56,4.56,0,0,1-3.43-.26A12.06,12.06,0,0,1,50.88,117a33.25,33.25,0,0,1-3.38-5.43c-.36-.69-.58-.58-.95,0-.83,1.19-1.68,2.36-2.51,3.55-.15.22-.38.42-.32.73a4.91,4.91,0,0,0-1.14,1.81,1.35,1.35,0,0,0-.45.77A25.36,25.36,0,0,0,39,129.95a1.2,1.2,0,0,0,0,.88v2.08a14,14,0,0,0,.48,2.82l1,2.84a13.09,13.09,0,0,0,7,6.63,25.67,25.67,0,0,0,14.64,1,22.79,22.79,0,0,0,4.27-1.33A16.45,16.45,0,0,0,70.89,143a39.34,39.34,0,0,0,7.28-4.61,11.84,11.84,0,0,0,2.58-2.18,4.07,4.07,0,0,0,1.56-1.45,8.58,8.58,0,0,0,2.29-2.16,23.19,23.19,0,0,0,2.32-2.33,17.25,17.25,0,0,0,2.44-3.61ZM11.55,106.06a4,4,0,0,0,1.81-1.47,11.79,11.79,0,0,0,2.74-2.85c3.73-4.63,6.13-10,8.26-15.47l1.13-2.41a6.39,6.39,0,0,0-1.54.67,42.92,42.92,0,0,0-6.6,3.23,33.7,33.7,0,0,0-8.19,6.46,7.8,7.8,0,0,0-1.79,2L5.92,98a10.42,10.42,0,0,0-.79,1.14c-1.2,2.31-1.65,4.68-.29,7.08a3.45,3.45,0,0,0,4.75,1.13l.33-.23A2.82,2.82,0,0,0,11.55,106.06ZM30.62,79.49l.51-.14a81.52,81.52,0,0,1,11-2.86,1,1,0,0,0,1-1,186.6,186.6,0,0,1,12-41.54,1,1,0,0,0,.12-1A224.9,224.9,0,0,0,30.63,79.49Z"/><path class="cls-1" d="M147.63,60.78l.15.61c.18.33,0,.65-.07.94A13,13,0,0,1,146.43,65a8.63,8.63,0,0,0-1.32,3c-.56,2.24-.26,4.51-.3,6.77A14.27,14.27,0,0,0,146,80.39c.11.28.23.58.64.48a18.89,18.89,0,0,0,2.07-.18,20.75,20.75,0,0,0,6.33-3.2c.33-.22.74-.71,1.13-.2s.07,1-.34,1.37a15.26,15.26,0,0,1-6.3,3.37l-1.18.33a3.4,3.4,0,0,1-.72.15c-.75,0-.87.29-.73,1a13,13,0,0,1,.24,4.05,14.9,14.9,0,0,1-3.65,8.15,18.22,18.22,0,0,1-3.27,2.7c-.86.27-1.7.59-2.57.8a10.54,10.54,0,0,1-9-1.59,6.24,6.24,0,0,1-1.8-8.64l.12-.17a11.9,11.9,0,0,1,4.47-4,29.22,29.22,0,0,1,8.55-3c.77-.15,1.07-.42,1-1.26a32.08,32.08,0,0,1,.08-4.09,15.63,15.63,0,0,0,.18-3l-.63.8a37.51,37.51,0,0,1-6.21,6.5,80.22,80.22,0,0,1-8.4,6l-5.56,3.44a3.67,3.67,0,0,1-2.17.61.79.79,0,0,1-.85-.51.94.94,0,0,1,.32-1,6.72,6.72,0,0,1,1.55-.9,64.33,64.33,0,0,0,7.45-4.58,62,62,0,0,0,7.21-5.5,32.11,32.11,0,0,0,6.74-8.26c1.6-2.84,2.09-6,2.79-9.09.74-.29,1.27-1,2.08-1.12A1.76,1.76,0,0,1,147.63,60.78Zm-6.94,25.88V85.1c0-.56-.1-.56-.58-.48A29.06,29.06,0,0,0,134,86.29a11,11,0,0,0-5.54,4.66c-1.52,2.6-.66,5,2.2,5.88a7.41,7.41,0,0,0,9-4.41,14.5,14.5,0,0,0,1.06-5.77Z"/><path class="cls-2" d="M108.67,8.6a5.85,5.85,0,0,1-2,.86A71.11,71.11,0,0,0,71,2.46a67.37,67.37,0,0,0-19.61,4q-30.18,11.29-42.46,41A69.23,69.23,0,0,0,4,78.26a66.84,66.84,0,0,0,2.56,15L5.1,94.87A70.9,70.9,0,0,1,2.21,79c-.13-2-.26-4-.22-6.05A74,74,0,0,1,7.92,45,72.42,72.42,0,0,1,19.79,26.06,73.35,73.35,0,0,1,108,8.14C108.27,8.26,108.56,8.31,108.67,8.6Z"/><path class="cls-2" d="M143.48,95.77a14.9,14.9,0,0,0,3.65-8.15,13,13,0,0,0-.24-4.05c-.14-.73,0-1,.73-1a3.4,3.4,0,0,0,.72-.15,73.34,73.34,0,0,1-61.09,63.8,75.47,75.47,0,0,1-14.92.91,19.52,19.52,0,0,1-3.33-.28,33.24,33.24,0,0,0,3.81-1.66,22.46,22.46,0,0,0,4.23.12,67.48,67.48,0,0,0,22-4q30-10.9,42.57-40.23A28.53,28.53,0,0,0,143.48,95.77Z"/><path class="cls-2" d="M147.63,60.78c-.41-.88-1.18-.94-2-.9l-.15-.72a69.49,69.49,0,0,0-8.22-21.38A71.84,71.84,0,0,0,117,15.6a4.29,4.29,0,0,1,.65-1.73,70.35,70.35,0,0,1,8.17,6.67,73.13,73.13,0,0,1,21.84,40.08A.48.48,0,0,1,147.63,60.78Z"/><path class="cls-2" d="M36.51,133.74a16.19,16.19,0,0,0,.31,2.39,65,65,0,0,1-9.11-6.64,72.89,72.89,0,0,1-14-16.07c-.63-1-1.23-2-1.84-3a4.08,4.08,0,0,1,1.55-.93,72,72,0,0,0,16.85,19.75A50,50,0,0,0,36.51,133.74Z"/><path class="cls-2" d="M148.71,80.72a18.92,18.92,0,0,1-2.07.18A67.61,67.61,0,0,0,146.42,65a13,13,0,0,0,1.28-2.65c.08-.29.25-.62.07-.94a76.62,76.62,0,0,1,1,10.87c.07,2.59-.08,5.16-.22,7.74C148.58,80.23,148.35,80.53,148.71,80.72Z"/><path class="cls-3" d="M100.39,27.95c-1,4.32-1.84,8.66-2.48,13-.76,5.2-1.26,10.43-1.59,15.67-.48,7.57-.57,15.15-.47,22.73,0,.62-.38.62-.76.72-4.83,1.32-9.57,2.9-14.25,4.69a84,84,0,0,0-22,12.33c-1.23,1-1.26.95-1.49-.64a113.17,113.17,0,0,1-1.27-18.24c0-.49.12-.65.63-.67a120.25,120.25,0,0,1,20.54,1.13c.49.07,1,.13,1.47.17a1,1,0,0,0,1.14-.78c.07-.64-.44-.72-.91-.83a84.33,84.33,0,0,0-13-1.66q-4.54-.26-9.1-.42c-.71,0-.54-.46-.53-.83.07-3.37.28-6.72.64-10.07a126.62,126.62,0,0,1,5.37-25.39,139.63,139.63,0,0,1,6.62-16.94,54.35,54.35,0,0,1,14.81.29c0,.32-.31.43-.5.62-6,5.78-10.74,12.4-13.36,20.38-2.16,6.59-2.34,13.21.57,19.62,3.66,8,10.2,11.9,18.87,12.41A18.8,18.8,0,0,0,93,75.06a4.32,4.32,0,0,0,.8-.17.61.61,0,0,0,.47-.68c0-.34-.33-.4-.61-.43a19.83,19.83,0,0,1-3.3-.6,22.73,22.73,0,0,1-16.8-21.69c-.09-6.15,2-11.58,5.06-16.73a50.29,50.29,0,0,1,9.29-11.21,5.06,5.06,0,0,1,.53-.38A55.5,55.5,0,0,1,100.39,27.95Z"/><path class="cls-2" d="M83.7,22.26A54.35,54.35,0,0,0,68.89,22L70,19.71a6.13,6.13,0,0,0,4.8-6.91,6.23,6.23,0,0,0-4.3-5.71,7.4,7.4,0,0,0-7.64,2.07,7,7,0,0,0,.76,9.49c-1.47,1.92-3.24,3.59-4.62,5.59-.08,0-.24,0-.18.16h0c-.22-.19-.42,0-.6.07-14.34,5.19-24.74,14.69-31,28.62a51.59,51.59,0,0,0-3.71,29.13,49.94,49.94,0,0,0-14.75,9,2.25,2.25,0,0,1-.42.24A69.29,69.29,0,0,1,70.48,4.76,67.51,67.51,0,0,1,91.57,6.49a62.76,62.76,0,0,1,12.07,4.14l-4.93,2.13.16-1.21a.61.61,0,0,0-.3-.67A8,8,0,0,0,95,9.48a3.49,3.49,0,0,0-4.09,4.22,6.12,6.12,0,0,0,1.46,2.36,23.39,23.39,0,0,1-2.8,1.76c-.07-.33,0-.78-.47-.81s-.44.45-.53.76a7.4,7.4,0,0,0-.17.87l-1.16.83a3.69,3.69,0,0,1-1.64-1.77,35,35,0,0,1-1.46-3.39c-.2-.48-.15-.72.37-.92a2.77,2.77,0,0,0,1.77-1.81c.6-1.94-.41-3.66-2.59-4.29A28.27,28.27,0,0,0,77,6.57c-.24,0-.44,0-.48.32s.2.43.45.46c.74.11.92.57.85,1.23-.29,2.83-.57,5.65-.86,8.48-.07.72-.39,1.19-1.19,1.16-.31,0-.57.07-.57.43s.35.34.6.37l4.49.43c.27,0,.62.27.73-.22s-.28-.49-.55-.55a1,1,0,0,1-.86-1.26c.1-.92.25-1.84.27-2.77,0-.69.34-.76.88-.67a1,1,0,0,1,.78.75q.44,1.23.9,2.46a4.16,4.16,0,0,0,3.76,3A10.82,10.82,0,0,1,83.7,22.26ZM34.63,34.81a25,25,0,0,1-4.33-.59c-.53-.09-.74-.26-.64-.91a3,3,0,0,0-3.33-3.55,4.12,4.12,0,0,0-2.64,1.36A35.74,35.74,0,0,0,19.84,36c-.13.18-.29.36-.08.58a.4.4,0,0,0,.56.08l.08-.08c.62-.74,1.17-.41,1.75.06l6.43,5.1c.59.46.9.95.39,1.66-.17.23-.26.49.06.7s.48-.08.64-.29c.94-1.18,1.88-2.35,2.8-3.54.16-.2.55-.38.19-.74s-.56-.07-.76.15a1,1,0,0,1-1.41.1l-.1-.1c-.73-.58-1.45-1.17-2.21-1.7-.61-.42-.44-.76,0-1.16a1,1,0,0,1,1-.2,20.53,20.53,0,0,0,3.21.66,4.35,4.35,0,0,0,4.51-2.6c.08-.17.22-.34.05-.52s-.4-.1-.58.05A2.56,2.56,0,0,1,34.63,34.81ZM48.3,25.06a1,1,0,0,1-.94-.56c-.43-.67-.83-1.35-1.22-2-.76-1.34-.73-1.31.59-2.1.8-.47,1.46-.58,2,.28a.41.41,0,0,0,.55.19l.08-.05c.35-.23.15-.45,0-.69q-.77-1.35-1.53-2.72c-.13-.23-.2-.56-.58-.4s-.31.46-.18.76a1.07,1.07,0,0,1-.42,1.45l-.2.09a11.27,11.27,0,0,0-1.14.64c-.36.23-.57.17-.78-.21-.54-1-1.11-2-1.67-3-.12-.22-.27-.45.05-.63a8.66,8.66,0,0,1,2.72-1.29,2.25,2.25,0,0,1,1.87.85.43.43,0,0,0,.61,0l0,0c.24-.2.09-.39,0-.57-.41-.61-.84-1.22-1.23-1.84-.18-.29-.33-.33-.64-.15q-3.67,2.17-7.45,4.14c-.23.12-.46.23-.31.55A.4.4,0,0,0,39,18l.1-.05c.83-.44,1.26,0,1.63.68,1.23,2.22,2.49,4.44,3.73,6.66.8,1.44.8,1.45-.35,2.59-.21.21-.3.38-.1.63s.36.12.57,0C47.3,27,50,25.45,52.78,24c.24-.13.39-.26.35-.56a11.56,11.56,0,0,0-.68-2.53c-.08-.21-.22-.32-.44-.26s-.36.16-.37.39,0,.44,0,.66A3.76,3.76,0,0,1,48.3,25.06ZM18.18,56.18a3.51,3.51,0,0,0-6.54-2c-1.33,2.18-1.6,4.68-2.12,7.11a.4.4,0,0,0,.26.5h0c.29.09.41-.14.46-.35.21-.78.69-.95,1.43-.75,2.74.73,5.5,1.42,8.25,2.13.69.18,1.13.52,1,1.33,0,.24-.13.58.29.64s.42-.23.49-.51c.39-1.56.8-3.12,1.21-4.68.07-.26.25-.55-.12-.7s-.52.17-.62.46c-.26.78-.75.95-1.53.74-2.72-.73-5.45-1.4-8.17-2.1-1.22-.31-1.39-.88-.58-1.88a2.14,2.14,0,0,1,1.09-.7,3.34,3.34,0,0,1,4.2,2.16l.05.18c.06.21.11.38.33.39s.3-.18.36-.38A6.83,6.83,0,0,0,18.18,56.18ZM23,52.67a3.55,3.55,0,0,0,2.64-1.13,7.28,7.28,0,0,0,1.55-2.39c1.1-2.56.51-4.5-1.84-6a14,14,0,0,0-1.58-.86c-1.38-.71-2.81-1.34-4.14-2.17-.61-.38-1-.82-.72-1.61.1-.26.13-.55-.24-.67s-.42.26-.53.47c-.55,1.07-1.08,2.15-1.61,3.23-.11.22-.4.47,0,.71s.56,0,.72-.29A1.33,1.33,0,0,1,19,41.37l.11.06a47.66,47.66,0,0,1,5.41,2.62,5.89,5.89,0,0,1,1.16.9,2.72,2.72,0,0,1,.47,3.65,2.67,2.67,0,0,1-3.3,1.28,6.17,6.17,0,0,1-1.08-.38c-1.87-.9-3.74-1.82-5.6-2.73-.64-.31-1-.74-.69-1.5.13-.3.07-.55-.26-.65s-.35.16-.45.36l-2.1,4.27c-.11.21-.3.42,0,.64s.52.05.66-.2c.42-.77,1-.69,1.66-.36q2.53,1.26,5.08,2.49a7.1,7.1,0,0,0,2.9.84Zm15.56-24c-2.37-1.28-4.52-2.45-6.69-3.6-.58-.31-.82-.61-.27-1.15a.37.37,0,0,0,.06-.52l-.06-.06c-.25-.27-.42-.09-.62.08l-3.57,3c-.19.16-.4.33-.21.61a.4.4,0,0,0,.55.14l.09-.07a1.8,1.8,0,0,1,2.13.1l9.52,5.13a.84.84,0,0,0,1.27-1,6.51,6.51,0,0,1-.22-.62c-1.14-3.28-2.25-6.56-3.1-9.92a2,2,0,0,1,.31-2.08c.2-.2.28-.42.06-.64s-.43-.06-.63.11c-.81.7-1.63,1.38-2.43,2.08-.2.17-.61.28-.35.69s.53.14.78,0,.64-.22.81.25c.91,2.38,1.74,4.79,2.58,7.44ZM56.81,15.74c-1.18-1.29-2.2-2.43-3.26-3.54-.45-.47-.62-.81.12-1.12.25-.1.42-.28.3-.58s-.35-.26-.61-.17c-1.48.55-3,1.08-4.5,1.5-.25.07-.48.16-.42.49s.35.33.58.27a1.85,1.85,0,0,1,1.86.75A37.25,37.25,0,0,0,53.7,16.2a8.39,8.39,0,0,1,2.5,4.41c.2.72.1,1.23-.66,1.5-.28.1-.61.23-.42.64s.51.16.77.08c1.55-.52,3.11-1,4.65-1.57.24-.08.68,0,.57-.51s-.5-.31-.8-.26-.94.28-1.17-.24c-.63-1.44-1.42-2.88-1.19-4.53s.6-3.55,1-5.31a2,2,0,0,1,1-1.49c.26-.13.48-.29.31-.63s-.4-.18-.63-.1l-3,1c-.22.07-.54.07-.47.43s.27.44.61.33c.73-.23.84.15.75.75-.2,1.61-.42,3.2-.71,5Z"/><path class="cls-3" d="M43.7,115.73c-.06-.31.17-.51.32-.73.83-1.19,1.69-2.36,2.51-3.55.37-.53.59-.64.95,0a33.25,33.25,0,0,0,3.38,5.43,12.06,12.06,0,0,0,4.32,3.58,4.56,4.56,0,0,0,3.43.26,15,15,0,0,0,9-7.46c.66-1.22.4-1.75-.92-2.06a9.06,9.06,0,0,1-5.43-4,21.38,21.38,0,0,1-2.73-6.29c-.13-.44.09-.58.36-.79A88.46,88.46,0,0,1,73.1,91.06a119.64,119.64,0,0,1,22.24-8.33,5.08,5.08,0,0,0,.66-.11V87c0,6.37.12,12.76-.49,19.11a52.38,52.38,0,0,1-4.22,17.2,1.33,1.33,0,0,1-.52.71l-.79.2a52.47,52.47,0,0,1-33.52-1.46A53.63,53.63,0,0,1,43.7,115.73Z"/><path class="cls-2" d="M143.55,61c-.7,3.1-1.19,6.26-2.79,9.09A32.11,32.11,0,0,1,134,78.35a62,62,0,0,1-7.21,5.5,55.37,55.37,0,0,0,.84-12.28,16.47,16.47,0,0,0,3.29-3,2.56,2.56,0,0,0,.53-1.09c0-.3,0-.63-.3-.78s-.52,0-.74.21c-.72.62-1.44,1.25-2.17,1.86a8.84,8.84,0,0,1-.74.5c-.21-1.49-.37-3-.64-4.45A51.76,51.76,0,0,0,111.39,36a5.21,5.21,0,0,1,.62-2.61,10.79,10.79,0,0,0,1,1.43c2.33,2.88,5.71,3.64,8.59,2a6.53,6.53,0,0,0,1-11,6.61,6.61,0,0,0-8.84,0,12.55,12.55,0,0,1,.64-2.78,48,48,0,0,1,1.77-5.24c.18.12.37.23.54.36A69.17,69.17,0,0,1,138.9,45.94,64,64,0,0,1,143.55,61Zm-5.83-5c-.1-.67-.18-1.58-.39-2.44-.57-2.3-2.55-3-4.57-1.78a4.46,4.46,0,0,0-2,3.5c-.3,2.55,0,5.23,2.89,6.26.47.17.5.43.24.8-.41.58-.84,1.14-1.24,1.73a.92.92,0,0,0,0,1.21c.35.32.77,0,1.06-.28a12.52,12.52,0,0,0,4-9Zm-9.13-21.61c.08.45-.27.7-.61.93l-7.34,4.82a1,1,0,0,1-1.55-.24c-.16-.22-.35-.56-.72-.28s0,.58.12.81q1.26,2,2.57,3.91c.16.23.19.74.66.53s.22-.6.05-.89a1,1,0,0,1,.27-1.39l.12-.07,1.94-1.28c1.41-.92,1.39-.9,2.33.48.5.73.78,1.39-.08,2a.43.43,0,0,0-.06.71c.24.25.44.06.64-.08l2.61-1.7c.24-.16.49-.3.32-.64s-.44-.28-.7-.14c-.82.45-1.33.09-1.73-.63a5.61,5.61,0,0,0-.58-.89c-.39-.47-.35-.77.2-1.09.89-.53,1.77-1.1,2.61-1.7.53-.38.87-.34,1.14.25a2.46,2.46,0,0,0,.27.41c.86,1.17,1.52,2.35.11,3.6-.2.17-.14.39,0,.59s.42.13.63,0c.57-.38,1.12-.79,1.71-1.13s.43-.45.15-.87c-1.44-2.13-2.82-4.3-4.25-6.43-.2-.3-.24-.94-.77-.77s-.08.67-.07,1a1,1,0,0,0,0,.18Z"/><path class="cls-3" d="M127.66,71.57a55.37,55.37,0,0,1-.84,12.28,64.33,64.33,0,0,1-7.45,4.58,6.72,6.72,0,0,0-1.55.9.94.94,0,0,0-.32,1c.12.42.5.49.85.51a3.67,3.67,0,0,0,2.17-.61l5.56-3.44a42.68,42.68,0,0,1-3.39,9.54A52.27,52.27,0,0,1,97,121.61a6.33,6.33,0,0,1,.82-1.77,89.24,89.24,0,0,0,8.1-25.62A127.15,127.15,0,0,0,107.44,80c0-.58.33-.64.74-.75a78.88,78.88,0,0,0,12.33-3.89,53.66,53.66,0,0,0,6.58-3.5A5.51,5.51,0,0,0,127.66,71.57Z"/><path class="cls-2" d="M97,121.64a52.27,52.27,0,0,0,25.72-25.28,42.68,42.68,0,0,0,3.39-9.54,80.23,80.23,0,0,0,8.4-6,37.51,37.51,0,0,0,6.21-6.5c.18-.24.36-.46.63-.8a15.63,15.63,0,0,1-.18,3,32.08,32.08,0,0,0-.08,4.09c0,.84-.27,1.11-1,1.26a29.22,29.22,0,0,0-8.55,3,11.9,11.9,0,0,0-4.47,4,6.24,6.24,0,0,0,1.51,8.69l.17.12a10.54,10.54,0,0,0,9,1.59c.87-.2,1.72-.53,2.57-.79a3.32,3.32,0,0,1-.1.39,69.53,69.53,0,0,1-47.08,42,64.29,64.29,0,0,1-16,2.19l3.35-2.33a10.66,10.66,0,0,0,1.37-.11c.4-.08,1.1.27,1.13-.38s-.74-.27-1.09-.49l5.53-4.91a6,6,0,0,0,5.06,3.65,7.87,7.87,0,0,0,4-.8,6.12,6.12,0,0,0,3.75-6.38c-.41-3.32-2.4-5.58-5.37-6.09A33.77,33.77,0,0,1,97,121.64Zm27.9-5.9a6.09,6.09,0,0,0-3.15-5.08,5.56,5.56,0,0,0-6.07.06c-2.56,1.53-4.36,3.87-6.33,6a.33.33,0,0,0,0,.47l0,0c.18.19.37.25.56.06.7-.7,1.21-.25,1.73.26l5.57,5.45c1,1,1,1,.36,2.17a.41.41,0,0,0,.07.57c.22.2.38.11.55-.09,1.45-1.71,3.27-3.07,4.72-4.79a7.73,7.73,0,0,0,2-5.11Zm-11.28,10c0-3.62-3-6.86-6.45-6.88a7.2,7.2,0,0,0-7.15,6.82c0,3.57,3,6.77,6.34,6.78,3.78,0,7.26-3.2,7.26-6.69ZM132,108.51a3.73,3.73,0,0,0-2.52-3.79,4.7,4.7,0,0,0-3.78.53,11.24,11.24,0,0,1-2.35,1.14,1.79,1.79,0,0,1-2.32-1l0-.12a2,2,0,0,1,1.42-2.36,3.85,3.85,0,0,1,1.95,0,.46.46,0,0,0,.6-.26h0c.12-.29,0-.47-.27-.59-.56-.29-1.11-.58-1.68-.86a.63.63,0,0,0-.75.08,7.3,7.3,0,0,0-2.52,3.66,3.45,3.45,0,0,0,3.23,4.47,5.8,5.8,0,0,0,2.94-.91,6.25,6.25,0,0,1,2-.81,2.2,2.2,0,0,1,2.71,1.4,2.29,2.29,0,0,1-1.62,2.59,4.7,4.7,0,0,1-2.67.17c-.31-.06-.55,0-.67.27s.11.43.33.57a7.9,7.9,0,0,0,2,.91,1,1,0,0,0,.87-.07,6.91,6.91,0,0,0,3.14-5Z"/><path class="cls-3" d="M23.58,82.2a51.59,51.59,0,0,1,3.71-29.14c6.22-13.93,16.62-23.44,31-28.62.18-.06.37-.27.6-.07a30.5,30.5,0,0,1-2.12,3.09A294.45,294.45,0,0,0,33.21,66.85C31,71.28,28.92,75.77,27,80.33a1.51,1.51,0,0,1-1,1A21,21,0,0,0,23.58,82.2Z"/><path class="cls-2" d="M43.7,115.73a53.63,53.63,0,0,0,12.71,7,52.47,52.47,0,0,0,33.52,1.46l.79-.2a8.19,8.19,0,0,1-1.16,2.42l-.17.15h0a5.09,5.09,0,0,0-2.44,3.61,23.17,23.17,0,0,1-2.32,2.33c-.1-.28.09-.73-.4-.77a.4.4,0,0,0-.47.43c0,1.08-.65,1.39-1.59,1.41a7.36,7.36,0,0,0-1.06.08c-.48.08-.63-.13-.66-.57-.05-.79-.16-1.58-.22-2.37-.15-1.68-.14-1.68,1.52-1.84,1.83-.17,2-.07,2.81,1.51.15.29.3.45.62.36s.26-.37.24-.61c-.08-.71-.2-1.41-.24-2.12,0-.43-.19-.47-.56-.42-2.74.36-5.49.58-8.24.8-.26,0-.6-.06-.61.36s.33.44.64.44a.87.87,0,0,1,.92.85c.08.51.12.92.16,1.39l.7,6.85a39.34,39.34,0,0,1-7.28,4.61,67.78,67.78,0,0,1-27.36-7.58c-1.55-.8-3.06-1.67-4.6-2.51v-2.08L42,132.3c.24.12.49.43.75,0s-.07-.49-.29-.63a1.36,1.36,0,0,1-.52-2c.75-1.73,1.67-3.38,2.53-5.05a5.65,5.65,0,0,1,.86-1.44c.07.26.14.44.17.62.75,3.66,1.59,7.31,2.19,11,.07.42.05.85.67,1s.79-.26,1-.69c1.48-2.83,2.83-5.74,4.5-8.46a1.26,1.26,0,0,1,1.64-.69c.29.1.55.12.66-.24s-.18-.39-.4-.5c-1.07-.55-2.13-1.12-3.2-1.66-.23-.11-.48-.5-.77-.09s.06.58.33.77a1.15,1.15,0,0,1,.56,1.47,39.71,39.71,0,0,1-2.74,5.49h-.18c-.27-1.17-.56-2.33-.8-3.51a30.37,30.37,0,0,1-1.12-6.35c0-.31-.21-.34-.39-.44-.94-.5-1.88-1-2.83-1.48-.26-.13-.55-.5-.83,0s.14.52.36.69a1.17,1.17,0,0,1,.5,1.58l0,.05c-1.25,2.4-2.44,4.83-3.79,7.18a1.64,1.64,0,0,1-1.91,1,25.36,25.36,0,0,1,3.17-11.61l.36.18c.12.07.49.21.69-.08s-.1-.46-.28-.62-.21-.17-.31-.25A4.91,4.91,0,0,1,43.7,115.73Zm11.07,21.33c-.37.08-.91-.29-1,.33s.53.42.85.5c2.33.58,4.67,1.13,7,1.71s2.34.6,3.3-1.63c.12-.27.44-.59.06-.87s-.63.08-.86.34a2.64,2.64,0,0,1-2.31,1.18,10.86,10.86,0,0,1-2.06-.51,1.16,1.16,0,0,1-.89-1.38l0-.07c.15-.8.34-1.6.54-2.4.32-1.3.33-1.3,1.67-1s1.32.32,1.48,1.69c0,.25.09.41.37.44s.39-.19.45-.45q.36-1.56.74-3.11c.06-.23.23-.48-.1-.63s-.57,0-.69.36c-.31.85-.9,1-1.7.72a7.66,7.66,0,0,0-1.11-.28c-.42-.08-.52-.28-.41-.69.3-1.11.56-2.22.83-3.34.06-.25.11-.46.46-.45a3.41,3.41,0,0,1,3.67,2.83.48.48,0,0,0,.5.44c.28,0,.3-.24.34-.46.1-.67.18-1.36.34-2,.12-.46,0-.6-.45-.71-2.71-.65-5.41-1.34-8.11-2-.27-.07-.56-.16-.68.21s.1.46.36.54c.82.25.91.81.72,1.55l-2,8.19C55.93,136.9,55.58,137.35,54.77,137.06Z"/><path class="cls-3" d="M111.41,36a51.76,51.76,0,0,1,15.49,28.8c.27,1.48.43,3,.64,4.45a24.22,24.22,0,0,1-5.21,3.07,69,69,0,0,1-14,4.69c-.56.13-.71,0-.69-.54.31-7.92.66-15.84,1.4-23.73.52-5.47,1.18-10.92,2.22-16.32C111.26,36.27,111.23,36.06,111.41,36Z"/><path class="cls-3" d="M25.74,90.91a27.08,27.08,0,0,1,1.59-4c.52-1.29,1.15-2.54,1.71-3.81a1,1,0,0,1,.66-.66A110.89,110.89,0,0,1,42,79c.95-.18.92-.18.84.8a81.82,81.82,0,0,0,0,13A60.42,60.42,0,0,0,45,105.38c.27.89.57,1.77.88,2.64.09.27.18.48-.06.74a41.49,41.49,0,0,0-4,5.18.74.74,0,0,1-.2.15c-1.24-1.16-2.51-2.27-3.7-3.48A52.28,52.28,0,0,1,25.74,90.91Z"/><path class="cls-2" d="M25.74,90.91a52.28,52.28,0,0,0,12.2,19.7c1.19,1.21,2.46,2.32,3.7,3.48a14.44,14.44,0,0,1-1,1.87l-1.54-1.19c-.2-.16-.37-.45-.67-.13s-.09.52.12.7c.61.54.51,1.08,0,1.65q-2.72,3.34-5.43,6.7a1,1,0,0,1-1.55.29c-.24-.17-.53-.35-.77,0s.12.47.31.63q1.81,1.48,3.64,2.94c.21.16.39.55.74.19s.06-.55-.15-.75a1,1,0,0,1-.15-1.41l.1-.1,2.13-2.6c-.34,1.67-.75,3.33-.92,5a11.86,11.86,0,0,1-.36,3,68.58,68.58,0,0,1-21-22.93c1-1.31,2.21-2.46,3.18-3.82a74.94,74.94,0,0,0,6.54-11.5A7.26,7.26,0,0,1,25.74,90.91Zm11.93,22.77-.18-.22-5.75-6.52c-.17-.19-.33-.27-.56-.08a.37.37,0,0,0,0,.52l0,0c.54.69.22,1.19-.33,1.67l-6.33,5.6c-.6.54-1.15.68-1.74,0-.19-.21-.41-.38-.7-.11s0,.47.13.67c1.09,1.23,2.17,2.46,3.27,3.68.18.2.3.61.7.36s.14-.59-.05-.83c-.54-.67-.31-1.19.27-1.68.79-.68,1.58-1.35,2.32-2.08.41-.4.68-.32,1,.09a3.65,3.65,0,0,0,.38.43c.73.73,1.42,1.45.39,2.47-.21.2,0,.41.13.56s.38.08.56-.08c.83-.75,1.68-1.49,2.52-2.23.17-.15.35-.28.17-.54a.43.43,0,0,0-.57-.21l-.12.08c-.8.61-1.4.31-1.94-.4-.26-.35-.57-.67-.86-1s-.23-.4,0-.62l2.83-2.49c.17-.15.37-.31.56-.09a8.53,8.53,0,0,1,1.89,2.45c.26.72-.24,1.25-.58,1.8a.45.45,0,0,0,.1.63h0c.23.2.39.06.56-.09l1.7-1.54a2.66,2.66,0,0,1,.21-.26Z"/><path class="cls-3" d="M103.71,10.61A62.76,62.76,0,0,0,91.64,6.47a69.32,69.32,0,0,0-83.25,85,10.86,10.86,0,0,1-1.82,1.81A66.84,66.84,0,0,1,4,78.26a69.23,69.23,0,0,1,4.9-30.77c8.15-19.83,22.34-33.5,42.43-41a67.37,67.37,0,0,1,19.61-4,71.11,71.11,0,0,1,35.66,7A14.3,14.3,0,0,1,103.71,10.61Z"/><path class="cls-3" d="M30.63,79.49A224.9,224.9,0,0,1,55.26,32.9a1,1,0,0,1-.12,1,186.6,186.6,0,0,0-12,41.6,1,1,0,0,1-1,1,81.52,81.52,0,0,0-11,2.85Z"/><path class="cls-3" d="M77.1,143.06a64.29,64.29,0,0,0,16-2.19,69.53,69.53,0,0,0,47.08-42,3.32,3.32,0,0,0,.1-.39,18.23,18.23,0,0,0,3.27-2.7,28.53,28.53,0,0,1-1.87,5.32q-12.61,29.28-42.57,40.23a67.48,67.48,0,0,1-22,4,22.46,22.46,0,0,1-4.23-.12Z"/><path class="cls-2" d="M9.2,94.22a33.7,33.7,0,0,1,8.19-6.46A42.92,42.92,0,0,1,24,84.53l.41,1.74c-2.13,5.48-4.53,10.79-8.3,15.47a11.78,11.78,0,0,1-2.77,2.86A61,61,0,0,1,9.2,94.22Z"/><path class="cls-3" d="M143.55,61a64,64,0,0,0-4.64-15.08,69.17,69.17,0,0,0-22.19-27.76c-.17-.13-.36-.24-.54-.36a5.13,5.13,0,0,1,.83-2.2,71.84,71.84,0,0,1,20.25,22.18,69.49,69.49,0,0,1,8.22,21.38,3.69,3.69,0,0,0,.15.72C144.82,60.06,144.29,60.71,143.55,61Z"/><path class="cls-2" d="M100.39,27.95a55.5,55.5,0,0,0-12-4.73,9,9,0,0,1,1.93-1.64,7.77,7.77,0,0,0,1.87.59c3.72.74,5.86-2.27,4.72-5.19a3.79,3.79,0,0,1,1.55-1,46.8,46.8,0,0,1,5.91-2.81,2.92,2.92,0,0,1,.64-.1h0c-.76,2.19-1.54,4.37-2.28,6.56C101.83,22.35,101.1,25.14,100.39,27.95Z"/><path class="cls-3" d="M86.15,20.18a4.16,4.16,0,0,1-3.76-3q-.46-1.23-.9-2.46a1,1,0,0,0-.78-.75c-.55-.1-.86,0-.88.67a26,26,0,0,1-.27,2.77,1,1,0,0,0,.7,1.23l.16,0c.27.06.65.1.55.55s-.47.24-.73.22l-4.48-.38c-.26,0-.6,0-.6-.37s.26-.44.57-.43c.81,0,1.12-.44,1.19-1.16.29-2.83.57-5.66.86-8.48.07-.67-.11-1.13-.85-1.23-.25,0-.5-.12-.45-.46s.24-.33.48-.32a28.27,28.27,0,0,1,6.75.72c2.18.63,3.19,2.35,2.59,4.29a2.77,2.77,0,0,1-1.77,1.81c-.52.2-.57.44-.37.92.47,1.13.88,2.3,1.46,3.39a3.69,3.69,0,0,0,1.64,1.77A1.86,1.86,0,0,1,86.15,20.18Zm-2.63-9.69a2.49,2.49,0,0,0-2-2.68c-.56-.1-.95,0-1,.68-.1,1.31-.26,2.61-.4,3.91,0,.27,0,.55.31.59a3.49,3.49,0,0,0,1.45.11,2.48,2.48,0,0,0,1.64-2.6Z"/><path class="cls-3" d="M15.1,107.95a68.58,68.58,0,0,0,21.08,22.94c.42.58.14,1.26.25,1.88a8.1,8.1,0,0,1,.06,1,50,50,0,0,1-6.25-4.49,72,72,0,0,1-16.85-19.75A4.65,4.65,0,0,1,15.1,107.95Z"/><path class="cls-3" d="M39,129.87a1.64,1.64,0,0,0,1.91-1c1.35-2.35,2.54-4.78,3.79-7.18a1.17,1.17,0,0,0-.42-1.6l-.05,0c-.22-.17-.6-.28-.36-.69s.58-.09.83,0c1,.48,1.89,1,2.83,1.48.19.1.4.13.39.44A30.37,30.37,0,0,0,49,127.64c.24,1.18.54,2.34.8,3.51H50a39.71,39.71,0,0,0,2.74-5.49,1.15,1.15,0,0,0-.56-1.47c-.27-.18-.62-.36-.33-.77s.54,0,.77.09c1.07.54,2.13,1.11,3.2,1.66.22.11.5.16.4.5s-.37.34-.66.24a1.26,1.26,0,0,0-1.64.69c-1.68,2.73-3,5.63-4.5,8.46-.23.44-.4.79-1,.69s-.6-.54-.67-1c-.6-3.69-1.44-7.34-2.19-11a2.94,2.94,0,0,0-.17-.62,5.65,5.65,0,0,0-.86,1.44c-.87,1.67-1.78,3.32-2.53,5.05a1.36,1.36,0,0,0,.34,1.89l.18.11c.22.13.51.25.29.63s-.51.14-.75,0L39,130.67A1.2,1.2,0,0,1,39,129.87Z"/><path class="cls-3" d="M113.73,25.81a6.61,6.61,0,0,1,8.84,0,6.53,6.53,0,0,1-1,11c-2.88,1.69-6.26.93-8.59-2-.36-.44-.64-.95-1-1.43a1.37,1.37,0,0,1-.09-.72c.51-2.12,1-4.24,1.52-6.36A2.24,2.24,0,0,1,113.73,25.81Zm-.21,6.62c0,2.39,1.89,4,3.84,3.26A8.31,8.31,0,0,0,123,29.58,3,3,0,0,0,119,26a7.25,7.25,0,0,0-3,2A7.34,7.34,0,0,0,113.52,32.43Z"/><path class="cls-3" d="M39,132.83c1.53.84,3,1.7,4.6,2.51a67.78,67.78,0,0,0,27.36,7.58,16.45,16.45,0,0,1-4.51,1.89c-2.19-.4-4.4-.72-6.58-1.2a72.38,72.38,0,0,1-20.38-8A14,14,0,0,1,39,132.83Z"/><path class="cls-3" d="M63.63,18.64a7,7,0,0,1-.76-9.49,7.4,7.4,0,0,1,7.64-2.09,6.23,6.23,0,0,1,4.3,5.71A6.13,6.13,0,0,1,70,19.68a4.3,4.3,0,0,1,.36-.9c1.38-2,2-4.41,3.29-6.44a2.41,2.41,0,0,0,.18-.37c.22-.52.4-1.09-.07-1.52s-.9,0-1.31.27-.65.58-1.11.65a5.74,5.74,0,0,0-1-2.12,3.12,3.12,0,0,0-5.77,1.21,9.12,9.12,0,0,0,.85,6.19A7.82,7.82,0,0,1,63.63,18.64Z"/><path class="cls-3" d="M94.84,125.18c3,.51,5,2.78,5.37,6.09a6.12,6.12,0,0,1-3.75,6.38,7.87,7.87,0,0,1-4,.8,6,6,0,0,1-5.06-3.65,15.19,15.19,0,0,1,2.38-2.66,8.76,8.76,0,0,0,2.44,4.2,3.09,3.09,0,0,0,3.5.62,2.94,2.94,0,0,0,1.8-2.88,9.75,9.75,0,0,0-1.86-5.92,4.13,4.13,0,0,0-1.71-1.49A4.23,4.23,0,0,1,94.84,125.18Z"/><path class="cls-2" d="M93.89,126.68a4.13,4.13,0,0,1,1.71,1.49,9.75,9.75,0,0,1,1.86,5.92,2.94,2.94,0,0,1-1.8,2.88,3.09,3.09,0,0,1-3.5-.62,8.76,8.76,0,0,1-2.44-4.2Z"/><path class="cls-3" d="M78.23,138.3l-.7-6.85a9.4,9.4,0,0,0-.16-1.39.89.89,0,0,0-.92-.85c-.31,0-.65,0-.64-.44s.35-.33.61-.36c2.75-.22,5.5-.44,8.24-.8.37,0,.54,0,.56.42a19.1,19.1,0,0,0,.24,2.12c0,.24.1.52-.24.61s-.48-.06-.62-.36c-.78-1.58-1-1.68-2.81-1.51s-1.67.16-1.52,1.84c.07.79.17,1.58.22,2.37,0,.44.18.65.66.57a7.36,7.36,0,0,1,1.06-.08c.94,0,1.6-.34,1.59-1.41a.4.4,0,0,1,.36-.43h.11c.49,0,.3.49.4.77a8.57,8.57,0,0,1-2.29,2.16c-1.83.05-1.85.07-1.56,1.45A11.84,11.84,0,0,1,78.23,138.3Z"/><path class="cls-2" d="M65.43,16.69a9.12,9.12,0,0,1-.85-6.19,3.12,3.12,0,0,1,5.77-1.21,5.74,5.74,0,0,1,1,2.12c-1.26,1.09-2.52,2.17-3.77,3.27C66.85,15.33,66.1,16.06,65.43,16.69Z"/><path class="cls-3" d="M37.49,122.9l-2.13,2.6a1,1,0,0,0-.05,1.41l.1.1c.21.2.48.43.15.75s-.53,0-.74-.19q-1.83-1.46-3.64-2.94c-.19-.16-.54-.26-.31-.63s.53-.2.77,0a1,1,0,0,0,1.55-.29q2.7-3.36,5.43-6.7a1.08,1.08,0,0,0,0-1.65c-.21-.18-.38-.41-.12-.7s.47,0,.67.13L40.63,116A68.8,68.8,0,0,0,37.49,122.9Z"/><path class="cls-3" d="M9.2,94.22a61,61,0,0,0,4.17,10.37,4,4,0,0,1-1.82,1.47,90.45,90.45,0,0,1-4.14-9.87A7.8,7.8,0,0,1,9.2,94.22Z"/><path class="cls-3" d="M92.39,16.06A6.12,6.12,0,0,1,91,13.67,3.49,3.49,0,0,1,95.1,9.45a8,8,0,0,1,3.55,1.4.61.61,0,0,1,.3.67l-.16,1.21a3.5,3.5,0,0,1-1.1.62,3.59,3.59,0,0,0-.92-2.29,1.92,1.92,0,0,0-2.39-.28,1.76,1.76,0,0,0-.5,2.33A4.26,4.26,0,0,0,95,14.55,9.43,9.43,0,0,1,92.39,16.06Z"/><path class="cls-2" d="M7.41,96.19a90.45,90.45,0,0,0,4.14,9.87,2.82,2.82,0,0,1-1.59,1,93.74,93.74,0,0,1-3.8-9C6.16,98,6,98,6,97.92Z"/><path class="cls-3" d="M96.93,17c1.14,2.92-1,5.92-4.72,5.19a7.77,7.77,0,0,1-1.87-.59,1.68,1.68,0,0,1,.88-.72,1.94,1.94,0,0,0,3-2.23A8.69,8.69,0,0,1,96.93,17Z"/><path class="cls-2" d="M95,14.55a4.26,4.26,0,0,1-1.17-1.49,1.76,1.76,0,0,1,.5-2.33,1.92,1.92,0,0,1,2.39.28,3.59,3.59,0,0,1,.92,2.29A19.22,19.22,0,0,1,95,14.55Z"/><path class="cls-2" d="M94.19,18.63a1.94,1.94,0,0,1-3,2.23A21.16,21.16,0,0,1,94.19,18.63Z"/><path class="cls-3" d="M87,130.18a5.09,5.09,0,0,1,2.44-3.61A17.25,17.25,0,0,1,87,130.18Z"/><path class="cls-3" d="M24.4,86.27,24,84.53a6.39,6.39,0,0,1,1.54-.67Z"/><path class="cls-3" d="M81.83,139.72c.35.22,1.13-.23,1.09.49s-.74.3-1.13.38a10.66,10.66,0,0,1-1.37.11A4.59,4.59,0,0,1,81.83,139.72Z"/><path class="cls-2" d="M80.81,136.13c-.29-1.38-.27-1.39,1.56-1.45A4.07,4.07,0,0,1,80.81,136.13Z"/><path class="cls-3" d="M88.41,18.64c.06-.29.09-.59.17-.87s0-.79.53-.76.41.48.47.81A3.27,3.27,0,0,1,88.41,18.64Z"/><path class="cls-3" d="M42.57,117.54l.31.25c.1.09.52.27.28.62s-.44.23-.69.08a2.21,2.21,0,0,0-.36-.18A1.35,1.35,0,0,1,42.57,117.54Z"/><path class="cls-3" d="M58.83,24.39c-.06-.18.1-.13.18-.16Z"/><path class="cls-2" d="M105,13.06l.06-.07H105Z"/><path class="cls-3" d="M89.4,126.59l.17-.15Z"/><path class="cls-2" d="M140.69,86.65a14.52,14.52,0,0,1-1,5.77,7.41,7.41,0,0,1-9,4.41c-2.86-.91-3.72-3.28-2.2-5.88A11,11,0,0,1,134,86.29a29.06,29.06,0,0,1,6.14-1.67c.48-.09.59.06.58.48S140.69,86.13,140.69,86.65Z"/><path class="cls-3" d="M146.42,65a67.61,67.61,0,0,1,.22,15.93c-.41.11-.52-.2-.64-.48a14.27,14.27,0,0,1-1.21-5.64c0-2.26-.26-4.53.3-6.77A8.63,8.63,0,0,1,146.42,65Z"/><path class="cls-3" d="M34.63,34.81a2.56,2.56,0,0,0,1.72-.56c.18-.15.38-.26.58-.05s0,.35-.05.52a4.35,4.35,0,0,1-4.51,2.6,20.53,20.53,0,0,1-3.21-.66,1,1,0,0,0-1,.2c-.42.4-.6.74,0,1.16.76.53,1.48,1.12,2.21,1.7a1,1,0,0,0,1.41.1l.1-.1c.2-.21.43-.47.76-.15s0,.54-.19.74c-.92,1.19-1.86,2.36-2.8,3.54-.16.21-.28.52-.64.29s-.23-.47-.06-.7c.52-.71.2-1.2-.39-1.66l-6.43-5.1c-.58-.46-1.13-.8-1.75-.06a.4.4,0,0,1-.56.08l-.08-.08c-.21-.22,0-.4.08-.58a35.74,35.74,0,0,1,3.85-4.89,4.12,4.12,0,0,1,2.64-1.36,3,3,0,0,1,3.33,3.55c-.11.65.11.82.64.91A25,25,0,0,0,34.63,34.81ZM25,32.12a2.56,2.56,0,0,0-1.92,1.1.5.5,0,0,0,0,.71l.09.07,3.27,2.6a.48.48,0,0,0,.6.08A2.28,2.28,0,0,0,28,34.24a3.65,3.65,0,0,0-3-2.13Z"/><path class="cls-3" d="M48.3,25.06a3.76,3.76,0,0,0,3.34-3.42V21c0-.22.18-.33.37-.39s.36,0,.44.26a11.56,11.56,0,0,1,.68,2.53.54.54,0,0,1-.35.56c-2.76,1.45-5.48,3-8.17,4.54-.2.12-.37.24-.57,0s-.11-.42.1-.63c1.15-1.14,1.16-1.15.35-2.59L40.76,18.6c-.37-.67-.81-1.12-1.63-.68a.4.4,0,0,1-.61-.19c-.15-.32.08-.43.31-.55q3.78-2,7.45-4.14c.31-.18.46-.14.64.15.4.62.82,1.23,1.23,1.84.12.18.27.36,0,.57a.43.43,0,0,1-.61,0l0,0a2.25,2.25,0,0,0-1.87-.85A8.66,8.66,0,0,0,43,16.06c-.32.17-.17.4-.05.63.56,1,1.13,2,1.67,3,.2.38.42.44.78.21a11.27,11.27,0,0,1,1.14-.64,1.07,1.07,0,0,0,.65-1.36l-.05-.13c-.13-.3-.21-.6.18-.76s.45.17.58.4l1.53,2.72c.14.24.34.46,0,.69a.41.41,0,0,1-.58-.06l-.05-.08c-.58-.85-1.24-.75-2-.28-1.33.79-1.35.76-.59,2.1.39.69.79,1.37,1.22,2A1,1,0,0,0,48.3,25.06Z"/><path class="cls-3" d="M18.18,56.18a6.79,6.79,0,0,1-.25,1.62c-.06.19-.13.39-.36.38s-.28-.18-.33-.39a3.34,3.34,0,0,0-4.07-2.39l-.18.05a2.14,2.14,0,0,0-1.09.7c-.81,1-.64,1.56.58,1.88,2.72.7,5.45,1.38,8.17,2.1a1.09,1.09,0,0,0,1.53-.74c.1-.28.2-.63.62-.46s.19.44.12.7c-.41,1.56-.81,3.12-1.21,4.68-.07.28-.1.56-.49.51s-.34-.4-.29-.64c.17-.82-.27-1.16-1-1.33-2.75-.71-5.5-1.4-8.25-2.13-.75-.2-1.22,0-1.43.75-.06.21-.17.43-.46.35a.4.4,0,0,1-.3-.48v0c.52-2.43.79-4.93,2.12-7.11a3.51,3.51,0,0,1,6.54,2Z"/><path class="cls-3" d="M23,52.67a7.1,7.1,0,0,1-2.89-.82L15,49.36c-.66-.33-1.24-.41-1.66.36-.14.26-.35.44-.66.2s-.1-.43,0-.64l2.1-4.22c.09-.19.14-.45.45-.36s.39.35.26.65c-.33.76,0,1.19.69,1.5,1.87.91,3.73,1.83,5.6,2.73a6.17,6.17,0,0,0,1.08.38,2.67,2.67,0,0,0,3.3-1.28A2.72,2.72,0,0,0,25.69,45a5.89,5.89,0,0,0-1.16-.9,47.66,47.66,0,0,0-5.43-2.69,1.33,1.33,0,0,0-1.84.41L17.2,42c-.16.27-.37.52-.72.29s-.06-.49,0-.71c.53-1.08,1.06-2.16,1.61-3.23.11-.21.1-.6.53-.47s.34.41.24.67c-.3.79.11,1.23.72,1.61,1.32.83,2.75,1.45,4.14,2.17.53.28,1.08.54,1.58.86,2.35,1.49,2.94,3.43,1.84,6a7.28,7.28,0,0,1-1.55,2.39A3.55,3.55,0,0,1,23,52.67Z"/><path class="cls-3" d="M38.53,28.64C37.69,26,36.86,23.58,36,21.19c-.18-.47-.43-.47-.81-.25s-.53.38-.78,0,.15-.52.35-.69c.8-.7,1.63-1.38,2.43-2.08.2-.17.38-.35.63-.11s.14.44-.06.64a2,2,0,0,0-.31,2.08c.85,3.36,2,6.65,3.1,9.92a6.5,6.5,0,0,0,.22.62.79.79,0,0,1-.27,1c-.34.29-.62.18-1,0l-9.52-5.13a1.8,1.8,0,0,0-2.13-.1.4.4,0,0,1-.57,0L27.17,27c-.19-.29,0-.45.21-.61l3.57-3c.2-.17.37-.35.62-.08a.37.37,0,0,1,.06.52l-.06.06c-.56.54-.32.84.27,1.15C34,26.18,36.16,27.36,38.53,28.64Z"/><path class="cls-3" d="M56.81,15.71c.27-1.81.5-3.39.74-5,.09-.61,0-1-.75-.75-.33.11-.54,0-.61-.33s.25-.36.47-.43l3-1c.23-.08.47-.23.63.1s-.05.51-.31.63a2,2,0,0,0-1,1.49,51.15,51.15,0,0,0-1,5.31c-.23,1.78.55,3.09,1.19,4.53.23.52.73.32,1.17.24s.68-.24.8.26-.33.42-.57.51l-4.65,1.57c-.26.09-.57.35-.77-.08s.14-.54.42-.64c.76-.28.86-.79.66-1.5a8.39,8.39,0,0,0-2.5-4.41,37.25,37.25,0,0,1-2.82-2.86A1.85,1.85,0,0,0,49,12.6c-.23,0-.51.08-.58-.27s.17-.42.42-.49c1.53-.42,3-1,4.5-1.5.26-.1.48-.15.61.17s-.05.48-.3.58c-.73.31-.56.65-.12,1.12C54.61,13.27,55.63,14.41,56.81,15.71Z"/><path class="cls-1" d="M137.71,56a12.52,12.52,0,0,1-4,9c-.3.28-.71.61-1.06.28a.92.92,0,0,1,0-1.21c.4-.59.82-1.15,1.24-1.73.26-.36.23-.63-.24-.8-2.87-1-3.19-3.71-2.89-6.26a4.46,4.46,0,0,1,2-3.5c2-1.26,4-.52,4.57,1.78C137.54,54.42,137.61,55.33,137.71,56Z"/><path class="cls-3" d="M128.58,34.39a1,1,0,0,1,0-.13c0-.35-.59-.81.07-1s.57.47.77.77c1.43,2.14,2.81,4.3,4.25,6.43.28.42.31.61-.15.87s-1.14.75-1.71,1.13c-.21.14-.41.29-.63,0s-.21-.41,0-.59c1.41-1.25.76-2.42-.11-3.6a2.46,2.46,0,0,1-.27-.41c-.27-.59-.61-.64-1.14-.25a29.92,29.92,0,0,1-2.61,1.7c-.55.32-.59.63-.2,1.09a5.61,5.61,0,0,1,.58.89c.4.72.91,1.08,1.73.63.26-.14.53-.19.7.14s-.08.48-.32.64l-2.61,1.7c-.21.14-.4.33-.64.08a.43.43,0,0,1,.06-.71c.86-.66.58-1.32.08-2-.94-1.38-.92-1.4-2.33-.48l-1.91,1.27a1,1,0,0,0-.46,1.34l.07.12c.16.29.46.66-.05.89s-.51-.3-.66-.53q-1.31-1.94-2.57-3.91c-.15-.23-.58-.47-.12-.81s.56.05.72.28a1,1,0,0,0,1.55.24L128,35.36C128.31,35.06,128.65,34.84,128.58,34.39Z"/><path class="cls-3" d="M124.86,115.74a7.73,7.73,0,0,1-2,5.15c-1.45,1.72-3.27,3.07-4.72,4.79-.17.19-.33.29-.55.09a.41.41,0,0,1-.07-.57c.62-1.19.62-1.2-.36-2.17q-2.77-2.74-5.57-5.45c-.51-.5-1-1-1.73-.26-.19.19-.39.14-.56-.06a.33.33,0,0,1,0-.47l0,0c2-2.16,3.77-4.5,6.33-6a5.56,5.56,0,0,1,6.07-.06A6.09,6.09,0,0,1,124.86,115.74Zm-7.92-3.68a5.33,5.33,0,0,0-3.92,2.11c-.32.38-.18.69.13,1,2,1.95,4,3.92,6,5.84a1.49,1.49,0,0,0,2.38-.05,3.87,3.87,0,0,0,1.1-4.31C121.75,114.18,119.1,112.06,116.94,112.06Z"/><path class="cls-3" d="M113.58,125.77c0,3.5-3.49,6.73-7.26,6.71-3.35,0-6.34-3.2-6.34-6.78a7.2,7.2,0,0,1,7.15-6.82C110.54,118.91,113.58,122.14,113.58,125.77Zm-2.27,2a5.28,5.28,0,0,0-.48-2.14c-.91-2.07-2.1-3.92-4.27-4.87a3,3,0,0,0-4.34,2.77c-.06,2.59,2.59,6.33,5.05,7.13a3,3,0,0,0,4-2.86Z"/><path class="cls-3" d="M132,108.53a6.91,6.91,0,0,1-3.18,5,1,1,0,0,1-.87.07,7.9,7.9,0,0,1-2-.91c-.22-.13-.45-.26-.33-.57s.36-.33.67-.27a4.7,4.7,0,0,0,2.67-.17,2.29,2.29,0,0,0,1.62-2.59,2.2,2.2,0,0,0-2.71-1.4,6.25,6.25,0,0,0-2,.81,5.8,5.8,0,0,1-2.94.91,3.45,3.45,0,0,1-3.23-4.47,7.3,7.3,0,0,1,2.52-3.66.63.63,0,0,1,.75-.08c.57.27,1.12.57,1.68.86.25.13.39.31.27.59a.46.46,0,0,1-.59.27h0a3.85,3.85,0,0,0-1.95,0,2,2,0,0,0-1.42,2.36,1.79,1.79,0,0,0,2.24,1.17l.12,0a11.24,11.24,0,0,0,2.35-1.14,4.7,4.7,0,0,1,3.78-.53A3.73,3.73,0,0,1,132,108.53Z"/><path class="cls-3" d="M54.77,137.06c.81.25,1.16-.21,1.34-1l2-8.19c.19-.74.1-1.3-.72-1.55-.25-.08-.46-.23-.36-.54s.41-.27.68-.21c2.7.68,5.4,1.36,8.11,2,.45.11.57.24.45.71a19.89,19.89,0,0,0-.34,2c0,.22,0,.47-.34.46s-.42-.14-.5-.44a3.41,3.41,0,0,0-3.67-2.83c-.35,0-.4.2-.46.45-.27,1.11-.53,2.23-.83,3.34-.11.41,0,.61.41.69a7.66,7.66,0,0,1,1.11.28c.8.28,1.39.13,1.7-.72.12-.32.32-.52.69-.36s.16.4.1.63q-.38,1.55-.74,3.11c-.06.26-.11.48-.45.45s-.34-.19-.37-.44c-.16-1.38-.17-1.38-1.48-1.69s-1.34-.33-1.67,1c-.2.79-.39,1.59-.54,2.4a1.16,1.16,0,0,0,.8,1.43l.07,0a10.86,10.86,0,0,0,2.06.51,2.64,2.64,0,0,0,2.31-1.18c.24-.26.45-.64.86-.34s.05.6-.06.87c-1,2.23-1,2.21-3.3,1.63s-4.67-1.13-7-1.71c-.32-.08-.9.07-.85-.5S54.4,137.18,54.77,137.06Z"/><path class="cls-3" d="M37.67,113.68c-.09.1-.17.2-.26.29l-1.7,1.54c-.17.15-.33.3-.56.09A.45.45,0,0,1,35,115v0c.34-.55.84-1.08.58-1.8a8.53,8.53,0,0,0-1.89-2.45c-.19-.22-.39-.06-.56.09-.94.83-1.88,1.67-2.83,2.49-.25.22-.22.4,0,.62a9.47,9.47,0,0,1,.86,1c.54.71,1.14,1,1.94.4a.43.43,0,0,1,.69.13c.18.26,0,.4-.17.54l-2.52,2.23c-.18.16-.34.29-.56.08s-.33-.36-.13-.56c1-1,.34-1.74-.39-2.47a3.65,3.65,0,0,1-.38-.43c-.3-.41-.56-.49-1-.09-.74.72-1.54,1.4-2.32,2.08-.58.5-.8,1-.27,1.68.19.24.49.55.05.83s-.52-.16-.7-.36c-1.1-1.22-2.18-2.45-3.27-3.68-.18-.2-.45-.37-.13-.67s.51-.1.7.11c.59.67,1.14.53,1.74,0q3.15-2.82,6.33-5.6c.55-.49.87-1,.33-1.67a.37.37,0,0,1,0-.52l0,0c.22-.19.39-.11.56.08l5.75,6.52Z"/><path class="cls-2" d="M83.52,10.5a2.48,2.48,0,0,1-1.68,2.61A3.49,3.49,0,0,1,80.39,13c-.28,0-.34-.32-.31-.59.14-1.3.3-2.6.4-3.91.05-.71.44-.78,1-.68A2.49,2.49,0,0,1,83.52,10.5Z"/><path class="cls-2" d="M113.52,32.43a7.34,7.34,0,0,1,2.41-4.37,7.25,7.25,0,0,1,3-2,3,3,0,0,1,4,3.53,8.31,8.31,0,0,1-5.63,6.11C115.42,36.38,113.53,34.82,113.52,32.43Z"/><path class="cls-2" d="M25,32.11a3.65,3.65,0,0,1,3,2.13,2.28,2.28,0,0,1-.93,2.44.48.48,0,0,1-.6-.08L23.22,34a.5.5,0,0,1-.17-.69l.07-.09A2.56,2.56,0,0,1,25,32.11Z"/><path class="cls-2" d="M116.94,112.06c2.16,0,4.81,2.12,5.67,4.58a3.87,3.87,0,0,1-1.1,4.31,1.49,1.49,0,0,1-2.38.05c-2-1.92-4-3.89-6-5.84-.31-.3-.45-.62-.13-1A5.33,5.33,0,0,1,116.94,112.06Z"/><path class="cls-2" d="M111.31,127.8a3,3,0,0,1-4,2.89c-2.46-.8-5.11-4.54-5.05-7.13a3,3,0,0,1,4.34-2.77c2.17.95,3.36,2.8,4.27,4.87A5.28,5.28,0,0,1,111.31,127.8Z"/></svg>