<svg id="Layer_1" data-name="Layer 1" xmlns="http://www.w3.org/2000/svg" viewBox="0 0 151.38 111.2"><defs><style>.cls-1{fill:#0055a5;}.cls-2{fill:#0292d0;}.cls-3{fill:#fefefe;}</style></defs><title>Albertsons</title><path class="cls-1" d="M89.44.5,86.28,4.25,62,33Q51.61,45.3,41.24,57.54a34.72,34.72,0,0,0-3.87,4.86A17.45,17.45,0,0,0,35.2,72.81a16.53,16.53,0,0,0,3.7,9.13,1.24,1.24,0,0,1,.34.54H10.57a1,1,0,0,1-.85-.4,22.83,22.83,0,0,1-5-9.92A14.23,14.23,0,0,1,7.45,60.48c2.2-3,4.7-5.73,7.09-8.56Q24.9,39.66,35.25,27.51,44.79,16.32,54.37,5.17L58.07.85A.84.84,0,0,1,58.78.5Z"/><path class="cls-2" d="M110.46,82.67a17.15,17.15,0,0,0,4-13.51,17.83,17.83,0,0,0-4.39-9.68c-1.8-2.2-3.75-4.28-5.56-6.48-7.27-8.85-14.7-17.57-22.06-26.35l-5.66-6.74c-.25-.3-.28-.5,0-.81C81.95,13.27,86.93,7.29,91.85,1.26c.3-.37.47-.41.79,0q11.27,13.53,22.55,27L132.8,49.33c3.19,3.81,6.41,7.61,9.57,11.44A13.56,13.56,0,0,1,145.08,67a16.3,16.3,0,0,1-2,11.77,14.4,14.4,0,0,1-3.22,3.66,1,1,0,0,1-.67.25H110.83Z"/><path class="cls-1" d="M74.78,82.44A10.78,10.78,0,0,0,70,75.39,10.23,10.23,0,0,0,65.13,74c-2.17-.17-4.36-.14-6.51-.46a15.27,15.27,0,0,1-8.36-4.36,15.75,15.75,0,0,1-5-11.66c0-.91.11-1.82.14-2.73,0-.31.16-.32.4-.32h4.69a59.28,59.28,0,0,1,8.83.4,17.49,17.49,0,0,1,9.59,4.81,21.52,21.52,0,0,1,6,10c.22-.69.4-1.33.64-1.95,2.85-7.4,8.2-11.77,16-13a28.83,28.83,0,0,1,4.26-.15h8c.35,0,.51,0,.56.45a16.1,16.1,0,0,1-3.66,13,15.82,15.82,0,0,1-11.14,5.76c-2,.2-4.07.26-6.1.31a6.51,6.51,0,0,0-2.71.77,10.06,10.06,0,0,0-5.66,6.62C75,81.81,74.92,82,74.78,82.44Z"/><path class="cls-1" d="M74.93,26.33c2.49,3.71,5.14,7.22,7.45,11a14.74,14.74,0,0,1,2,9.21A18.6,18.6,0,0,1,80.52,56a67.41,67.41,0,0,0-4.81,7.42c-.28.53-.54,1.06-.81,1.6-.08,0-.11-.06-.13-.11a41.56,41.56,0,0,0-4.42-7.52,35.2,35.2,0,0,1-4-7,14.23,14.23,0,0,1,.39-11.16,37.3,37.3,0,0,1,4.27-7A68.33,68.33,0,0,0,74.93,26.33Z"/><path class="cls-2" d="M83.77,96.81a4.15,4.15,0,0,1-2,.62c-.77.15-1,.44-1,1.1a48.26,48.26,0,0,0,.16,8.1,1.5,1.5,0,0,0,.64,1.1c.27.19.56.36.83.56a.93.93,0,0,1-.14,1.68,2.74,2.74,0,0,1-1.21.34,12.74,12.74,0,0,1-4.33-.23,3.66,3.66,0,0,1-1.08-.54,2.54,2.54,0,0,1-.91-2.1,25.38,25.38,0,0,1,.08-3.05c.14-1.91,0-3.83.06-5.74a.91.91,0,0,0-.93-.89h0a11.13,11.13,0,0,0-4,.17,2.63,2.63,0,0,0-1.81,2.22,30.54,30.54,0,0,0,0,6.57,3.23,3.23,0,0,0,.76,1.86.77.77,0,0,1-.22,1.23,3.43,3.43,0,0,1-2,.68c-1.25.06-2.49-.23-3.73-.16a2.36,2.36,0,0,1-1.21-.26c-.64-.31-.86-1-.35-1.46a3.85,3.85,0,0,0,.9-2.77c.21-2.76,0-5.51,0-8.27a1.5,1.5,0,0,0-.41-1,8.44,8.44,0,0,1-.73-.9.83.83,0,0,1,.48-1.26,13.15,13.15,0,0,1,5-.4c.7.12.93.37,1,1.08a4.73,4.73,0,0,0,.06.94c.07.27.15.4.39.13s.44-.4.65-.62a4.29,4.29,0,0,1,3.65-1.27,10.61,10.61,0,0,0,1.47,0,3.14,3.14,0,0,0,1.86-.76c1.32-1.08,2.68-2.1,4-3.13a.85.85,0,0,1,1.46.6,3.53,3.53,0,0,1,0,.94,9.49,9.49,0,0,0,0,1.11c0,1,.15,1.09,1.08,1.1,1.7,0,1.87.21,1.68,1.92a1.23,1.23,0,0,0,0,.18s.11,0,.12-.07a4.11,4.11,0,0,1,3.26-2.31,16.87,16.87,0,0,1,6.75,0,3.8,3.8,0,0,1,1.26.52c1.18.79,1.19.88,1,2.37a4.58,4.58,0,0,1-1.52,2.59,2,2,0,0,1-2.35.23c-.32-.19-.45-.41-.27-.78a7.71,7.71,0,0,0,.46-1.06,1.06,1.06,0,0,0-.79-1.5,3.73,3.73,0,0,0-2.13,0,1.43,1.43,0,0,0-.65,2.11,3.12,3.12,0,0,0,1.66,1.23c1.14.46,2.32.79,3.43,1.33a4.26,4.26,0,0,1,2.69,3,6.62,6.62,0,0,1-.65,4.44A3.75,3.75,0,0,1,94.13,110a10.57,10.57,0,0,1-4.25.6,24.28,24.28,0,0,1-4.17-.54,2.27,2.27,0,0,1-2.08-2.27,11.31,11.31,0,0,1,0-2.42.91.91,0,0,1,1.44-.65,2,2,0,0,1,.88.94,2.73,2.73,0,0,0,1.3,1.4,6.8,6.8,0,0,0,3.39.81c1.07,0,1.45-.5,1.42-1.54a.87.87,0,0,0-.28-.6,6.1,6.1,0,0,0-2.35-1.46c-1-.41-2.1-.79-3.13-1.24a4,4,0,0,1-2.47-3.77A18.16,18.16,0,0,1,83.77,96.81Z"/><path class="cls-2" d="M120.43,101.91c0,1.93.09,3.6.25,5.26a1.88,1.88,0,0,0,.61,1.07,1.19,1.19,0,0,1-.64,2.11,1.94,1.94,0,0,1-.57.08,31.59,31.59,0,0,1-4.57-.23,2.25,2.25,0,0,1-.5-.16c-.79-.35-1-.85-.52-1.53a4.68,4.68,0,0,0,.65-2.86c.11-2.62-.11-5.23-.15-7.85a1.33,1.33,0,0,0-.25-.73c-.25-.36-.52-.71-.75-1.08-.4-.62-.33-1.14.34-1.38a8.94,8.94,0,0,1,5.36-.56.79.79,0,0,1,.69.88h0c0,.63.17.71.73.41.81-.42,1.59-.9,2.43-1.25a4.5,4.5,0,0,1,2.82-.38A2.26,2.26,0,0,1,128,95.15a35.63,35.63,0,0,1,1.42,4.56c.63,2.37,1.28,4.74,1.9,7.12a2.21,2.21,0,0,0,1.21,1.44c.19.1.28.06.31-.15a3.69,3.69,0,0,0,0-.84,7.75,7.75,0,0,1-.06-1.16,1,1,0,0,1,1.69-.87,1.72,1.72,0,0,1,.66.67,4,4,0,0,0,3.29,1.95,5,5,0,0,0,2.13-.09,1.36,1.36,0,0,0,.47-2.22,5.49,5.49,0,0,0-2.08-1,12.62,12.62,0,0,1-3.4-1.24,7.85,7.85,0,0,1-1.44-1,2.87,2.87,0,0,1-.95-1.66,10.33,10.33,0,0,1-.09-3.92,3.17,3.17,0,0,1,1.74-2.29,9.06,9.06,0,0,1,3.9-1,15,15,0,0,1,5,.49,4.93,4.93,0,0,1,1.07.44,1.49,1.49,0,0,1,.79,1.29,6.46,6.46,0,0,1-.44,2.58,3.16,3.16,0,0,1-3.43,1.56.46.46,0,0,1-.35-.46,3.17,3.17,0,0,1,.16-1.14,5.69,5.69,0,0,0,.21-.92,1,1,0,0,0-.42-1,2.12,2.12,0,0,0-2.11,0,1.49,1.49,0,0,0-.78,1.45,1.07,1.07,0,0,0,.28.72,5.71,5.71,0,0,0,2.59,1.66c.76.28,1.53.52,2.29.79,2.86,1,3.32,2.7,3,5.2a5.15,5.15,0,0,1-.68,2,3.46,3.46,0,0,1-2,1.65,15.67,15.67,0,0,1-9.68.12.53.53,0,0,1-.39-.15c-.42-.56-.79-.29-1.24,0a4.78,4.78,0,0,1-2.59.56c-.93,0-1.86,0-2.79-.09a1.79,1.79,0,0,1-1.56-1.39c-.41-1.47-.86-2.92-1.18-4.42a25.19,25.19,0,0,0-1.57-5.28,1.36,1.36,0,0,0-.58-.79c-1-.46-1.78-.11-1.88,1.21A21.56,21.56,0,0,0,120.43,101.91Z"/><path class="cls-2" d="M28,97.53c0,3.25-.11,6.5.16,9.74a1.29,1.29,0,0,0,.33.71c.19.23.4.45.58.68a.81.81,0,0,1-.36,1.39,4.54,4.54,0,0,1-1.8.34c-4,0-8,0-12-.12-1.33,0-1.69-.81-1.13-1.85.12-.23.26-.46.38-.69a1.23,1.23,0,0,0,.08-1.06,11.69,11.69,0,0,1-.4-1.85,2.87,2.87,0,0,0-.11-.57c-.29-1.25-.51-1.43-1.79-1.45a14.35,14.35,0,0,1-2.47-.18,3.1,3.1,0,0,1-2.13-1.32c-.12-.19-.27-.36-.37,0-.49,1.68-1.31,3.26-1.64,5a9.35,9.35,0,0,0-.13,1.26,1.28,1.28,0,0,0,.35,1,.94.94,0,0,1-.48,1.67,2.17,2.17,0,0,1-.67.12,12.71,12.71,0,0,1-2.87-.24c-1.07-.25-1.25-.85-.88-1.85,2-5.59,4.1-11.16,6.18-16.73a2.13,2.13,0,0,0,0-1.82A1.74,1.74,0,0,1,6.63,89a.76.76,0,0,1,.64-.87h0a19.19,19.19,0,0,1,6.86.2,1.85,1.85,0,0,1,1.33,1.42q1.5,5.05,2.84,10.18c.56,2.1,1.1,4.21,1.64,6.31a6,6,0,0,0,.59,1.46,1,1,0,0,0,1,.61c.39,0,.53-.42.68-.73a2.91,2.91,0,0,0,.21-1.13,93.7,93.7,0,0,0-.09-13.11,2.2,2.2,0,0,0-.57-1.38,4,4,0,0,1-.46-.58.88.88,0,0,1,.4-1.39c1.61-.75,3.26-1.4,4.91-2a1.74,1.74,0,0,1,1,0,.76.76,0,0,1,.66.77c.05,1.39,0,2.77,0,4.16C28.14,94.37,28.09,96,28,97.53Zm-17.75,2h1.53c.53,0,.74-.3.61-.86-.38-1.62-.77-3.24-1.17-4.85a.88.88,0,0,0-.83-.69.79.79,0,0,0-.89.5c-.19.43-.39.86-.56,1.3-.44,1.18-.66,2.43-1,3.64-.17.6-.11.71.49.9a6.36,6.36,0,0,0,1.83,0Z"/><path class="cls-2" d="M35.24,110.39H31.67c-1.24,0-1.79-.88-1.16-1.95a4.31,4.31,0,0,0,.39-1.94A76.82,76.82,0,0,0,31,95.92c0-.75-.1-1.51-.11-2.26a1.21,1.21,0,0,0-.56-1.06c-.78-.56-.77-1,0-1.53a18.72,18.72,0,0,1,4.6-2.52c1-.36,1.39-.1,1.5.94.14,1.42,0,2.84,0,4.26,0,.42.06.84.06,1.26s.1.31.35.23a12.48,12.48,0,0,0,1.74-.86,3.33,3.33,0,0,1,3-.21,2,2,0,0,1,.88.72A15.21,15.21,0,0,1,45,102a24.46,24.46,0,0,1,.14,3.47,4.39,4.39,0,0,1-4.26,4.76A49.66,49.66,0,0,1,35.24,110.39Zm.84-7.57v1.68a6,6,0,0,0,.45,2.78.89.89,0,0,0,.37.49A2.08,2.08,0,0,0,40,106.28a14.68,14.68,0,0,0-1.58-7.84.92.92,0,0,0-.79-.53c-.82-.08-1.25.33-1.42,1.32a25,25,0,0,0-.12,3.58Z"/><path class="cls-2" d="M106.36,110.61c-1.39,0-2.78.09-4.16,0a4.31,4.31,0,0,1-3.47-2.36,9.4,9.4,0,0,1-.89-3.39,18.78,18.78,0,0,1-.05-6.44,11,11,0,0,1,.58-1.86c.71-1.85,2.29-2.47,4-2.79a18.45,18.45,0,0,1,6.53.34,3.93,3.93,0,0,1,3.34,3.06,25.47,25.47,0,0,1,1,9.57,4.26,4.26,0,0,1-3.72,3.79A10.27,10.27,0,0,1,106.36,110.61Zm-3.19-9.55v1.07a13,13,0,0,0,.9,4.88,1.59,1.59,0,0,0,1.34,1,4.4,4.4,0,0,0,.74,0,1.65,1.65,0,0,0,1.81-1.75A30.73,30.73,0,0,0,107,97.4a1.18,1.18,0,0,0-.42-.71,2.79,2.79,0,0,0-2.63-.16c-.7.23-.74.95-.82,1.58A12.38,12.38,0,0,0,103.17,101.06Z"/><path class="cls-2" d="M52.93,110.51a12.09,12.09,0,0,1-3.81-.71A3.41,3.41,0,0,1,47,107.07a19.17,19.17,0,0,1,.51-10.63A3.78,3.78,0,0,1,50.42,94a16.36,16.36,0,0,1,6.12,0,3.48,3.48,0,0,1,2.33,1.51,8,8,0,0,1,1.6,5.64,1.72,1.72,0,0,1-1.15,1.54l-.59.23c-.19.08-.51.1-.52.29s.28.4.51.47c1.5.48,1.69,1,1.53,2.77A4.81,4.81,0,0,1,57,110.11,17.59,17.59,0,0,1,52.93,110.51ZM51.81,99.94a7.32,7.32,0,0,0,.15,1.5.55.55,0,0,0,.56.51,4,4,0,0,0,2.73-.76c.16-.1.16-.27.19-.41a6.16,6.16,0,0,0-.25-3.67c-.3-.77-.7-1-1.66-.95a1.54,1.54,0,0,0-1.38,1.11A9.71,9.71,0,0,0,51.81,99.94Zm2.4,8.25A3.53,3.53,0,0,0,55.6,108a3.11,3.11,0,0,0,1.51-3.58.8.8,0,0,0-.92-.66l-.08,0a25.2,25.2,0,0,0-2.77.61c-1.61.42-1.72.54-1.14,2.34a1.94,1.94,0,0,0,2,1.48Z"/><path class="cls-2" d="M148.8,95.55a2.08,2.08,0,0,1,0-4.16h0a2.08,2.08,0,1,1,0,4.16Zm0-.29A1.78,1.78,0,1,0,147,93.47s0,0,0,0a1.76,1.76,0,0,0,1.74,1.77Z"/><path class="cls-3" d="M148.77,95.26a1.78,1.78,0,1,1,1.8-1.8,1.75,1.75,0,0,1-1.7,1.8Zm1-.68c-.13-.19-.24-.38-.37-.56s-.32-.42.12-.55a.51.51,0,0,0,.3-.61.52.52,0,0,0-.46-.51h-1.2c-.21,0-.19.16-.19.3v1.74c0,.11,0,.27.14.28s.17-.14.17-.26a1.66,1.66,0,0,1,0-.31c0-.16-.14-.41.18-.46a.44.44,0,0,1,.5.29c.1.18.22.36.33.54a.31.31,0,0,0,.51.11Z"/><path class="cls-2" d="M149.8,94.58a.31.31,0,0,1-.43-.08l0-.08c-.11-.18-.23-.35-.33-.54a.44.44,0,0,0-.5-.29c-.31.06-.14.3-.18.46a1.66,1.66,0,0,0,0,.31c0,.12,0,.27-.17.26s-.14-.17-.14-.28V92.6c0-.14,0-.3.19-.3h1.2a.52.52,0,0,1,.46.51.51.51,0,0,1-.3.61c-.44.13-.29.32-.12.55S149.67,94.38,149.8,94.58Zm-1-1.26c.36,0,.78.06.77-.38s-.47-.36-.78-.4-.45,0-.45.36.14.47.42.42Z"/><path class="cls-3" d="M148.76,93.32c-.28.05-.47,0-.46-.41s.19-.39.45-.36.77-.08.78.4S149.12,93.32,148.76,93.32Z"/></svg>