<svg id="Layer_1" data-name="Layer 1" xmlns="http://www.w3.org/2000/svg" viewBox="0 0 115.38 138.3"><defs><style>.cls-1{fill:#febd46;}.cls-2{fill:#f96e0c;}.cls-3{fill:#ed3c14;}.cls-4{fill:#001e78;}.cls-5{fill:#01b2db;}.cls-6{fill:#fefefe;}</style></defs><title>ALDI</title><path class="cls-1" d="M114.88,69.19v63.86a4.54,4.54,0,0,1-3.82,4.65,6.73,6.73,0,0,1-1.25.09H5.5a4.71,4.71,0,0,1-4.41-2.4,4.83,4.83,0,0,1-.58-2.2V5.6a5.12,5.12,0,0,1,1-3.33A4.42,4.42,0,0,1,5.11.5h105.1a4.52,4.52,0,0,1,3.4,1.42A4.34,4.34,0,0,1,114.88,5V69.2Zm-10.27,0V11.64a2.56,2.56,0,0,0-.24-1.21A2.45,2.45,0,0,0,102,9.09H13.15a2.58,2.58,0,0,0-1.7.72A2.89,2.89,0,0,0,10.78,12V126.64a2.45,2.45,0,0,0,2.3,2.59h89.11a2.38,2.38,0,0,0,2.43-2.33s0-.07,0-.11Q104.6,98,104.61,69.19Z"/><path class="cls-2" d="M104.61,69.19v57.59a2.38,2.38,0,0,1-2.35,2.41H13.4a2.45,2.45,0,0,1-2.62-2.59V12a2.89,2.89,0,0,1,.67-2.21,2.58,2.58,0,0,1,1.7-.72H102a2.45,2.45,0,0,1,2.39,1.34,2.56,2.56,0,0,1,.24,1.21V69.19Zm-5.17,0V13.9c0-.95-.39-1.34-1.35-1.34H17.3a1.41,1.41,0,0,0-.63.07A1.28,1.28,0,0,0,15.94,14v110.5A1.22,1.22,0,0,0,17,125.81H98.06a1.27,1.27,0,0,0,1.39-1.38Q99.43,96.82,99.44,69.19Z"/><path class="cls-3" d="M99.44,69.19v55.25a1.27,1.27,0,0,1-1.15,1.38H17.23a1.22,1.22,0,0,1-1.29-1.36V14a1.28,1.28,0,0,1,.75-1.31,1.41,1.41,0,0,1,.63-.07H98.09c1,0,1.35.39,1.35,1.34Zm-80.61,0V123c0,1.05,0,1.07,1.06,1.07H95.83c.61,0,.76-.17.76-.86v-108c0-.83-.13-1-1-1H19.69c-.8,0-.9.11-.9.91Q18.83,42.19,18.83,69.19Z"/><path class="cls-4" d="M18.83,69.19q0-27,0-54c0-.8.11-.91.9-.91h75.9c.83,0,1,.13,1,1v108c0,.69-.15.86-.76.86h-76c-1,0-1.06,0-1.06-1.07Q18.83,96.09,18.83,69.19ZM57.69,82.91H89.86c.34,0,.46-.06.46-.43V18.18c0-.37-.1-.47-.47-.47H25.63c-.43,0-.5.13-.5.52V82.37c0,.53,0,.53.55.53Zm5.21,18.91v9.94c0,.31.06.41.39.4,2.95,0,5.9,0,8.84-.06a16.78,16.78,0,0,0,3.2-.36,5.41,5.41,0,0,0,4.22-4.33,24,24,0,0,0,.56-6.45,19.31,19.31,0,0,0-.64-5,5.36,5.36,0,0,0-4.32-4.08,18.92,18.92,0,0,0-3.65-.35H63.3c-.34,0-.41.09-.41.42C62.91,95.19,62.9,98.5,62.9,101.82ZM25.32,112.19h6.89c.2,0,.27-.07.31-.27.13-.62.28-1.23.42-1.85,0-.18.09-.3.33-.3h4.44A.27.27,0,0,1,38,110c.14.6.31,1.2.44,1.8.06.29.18.35.46.35H45.8c.35,0,.39-.07.29-.4L40.33,91.86a.42.42,0,0,0-.46-.37H31.76a.42.42,0,0,0-.49.34v0Q29,99.77,26.62,107.69Zm22.55-10.33v9.94c0,.22,0,.4.31.4H60.46c.27,0,.34-.06.3-.34q-.32-2.48-.6-5c0-.28-.13-.35-.39-.35H55.41c-.34,0-.42-.09-.42-.42V91.91c0-.33,0-.45-.42-.45h-6.3c-.34,0-.42.08-.41.42q0,5,0,9.94Zm41.89,0v-10c0-.27,0-.37-.34-.37H82.95c-.27,0-.33.08-.33.33v20c0,.29.08.35.36.35h6.39c.33,0,.39-.1.39-.41q0-5,0-10Z"/><path class="cls-5" d="M57.69,82.91h-32c-.55,0-.55,0-.55-.53q0-32.07,0-64.14c0-.39.08-.52.5-.52H89.86c.37,0,.47.09.47.47v64.3c0,.37-.12.43-.46.43ZM28,50.29V80.68c0,.39.07.52.5.52h58.4c.6,0,.54.07.54-.54V20c0-.39-.08-.52-.5-.52H28.48c-.41,0-.5.11-.5.51Q28,35.12,28,50.29Z"/><path class="cls-6" d="M62.9,101.82V91.88c0-.33.07-.42.41-.42h8.2a18.92,18.92,0,0,1,3.65.35,5.36,5.36,0,0,1,4.32,4.08,19.31,19.31,0,0,1,.64,5,24,24,0,0,1-.56,6.45,5.41,5.41,0,0,1-4.22,4.33,16.78,16.78,0,0,1-3.2.36c-2.95.09-5.9,0-8.84.06-.33,0-.39-.1-.39-.4C62.91,108.44,62.9,105.13,62.9,101.82Zm7.1,0v5.45c0,.11-.09.27.12.33a2.17,2.17,0,0,0,2.35-1.09,3.12,3.12,0,0,0,.28-1,33.46,33.46,0,0,0,0-7.21c-.18-1.82-.86-2.39-2.45-2.4-.33,0-.36.12-.36.39.07,1.9.06,3.68.06,5.49Z"/><path class="cls-6" d="M25.32,112.19l1.31-4.48Q29,99.79,31.28,91.87a.42.42,0,0,1,.47-.36h8.1a.42.42,0,0,1,.49.34v0q2.87,10,5.76,19.92c.1.33.05.4-.29.4H38.94c-.28,0-.4-.06-.46-.35-.12-.6-.3-1.2-.44-1.8,0-.19-.12-.26-.32-.26H33.28c-.24,0-.29.12-.33.3-.14.62-.3,1.23-.42,1.85,0,.2-.11.27-.31.27Zm8.57-6.78h3.05c.28,0,.16-.17.14-.3q-.3-1.56-.61-3.13l-.92-4.7h-.07Z"/><path class="cls-6" d="M47.87,101.82V91.88c0-.34.08-.42.41-.42h6.3c.38,0,.42.12.42.45v14.18c0,.33.08.43.42.42h4.36c.27,0,.36.07.39.35q.28,2.49.6,5c0,.28,0,.34-.3.34H48.19c-.35,0-.31-.18-.31-.4Q47.87,106.79,47.87,101.82Z"/><path class="cls-6" d="M89.75,101.81v9.94c0,.31-.07.41-.39.41H83c-.28,0-.36-.06-.36-.35v-20c0-.26.06-.34.33-.33h6.47c.3,0,.34.1.34.37Q89.74,96.82,89.75,101.81Z"/><path class="cls-4" d="M28,50.29V19.94c0-.4.09-.51.5-.51H86.92c.42,0,.5.12.5.52v60.7c0,.61.07.54-.54.54H28.47c-.43,0-.5-.13-.5-.52Q28,65.49,28,50.29Zm7.27,29.2h1.5a.4.4,0,0,0,.47-.35c.7-2.53,1.42-5,2.13-7.57l5.27-18.75L50.9,30.46q1.25-4.45,2.51-8.89c.1-.37,0-.46-.35-.45H50.23c-.36,0-.48.13-.57.45Q47,31.24,44.24,40.9l-4.3,15.29L35.08,73.5c-.53,1.88-1.05,3.75-1.59,5.63-.09.33,0,.42.31.4S34.77,79.49,35.25,79.49ZM64,21.19H62.62c-.45,0-.52.12-.62.48q-1.89,6.78-3.8,13.55L53.77,51,48.08,71.19c-.75,2.67-1.49,5.33-2.25,8-.09.31,0,.37.28.36h2.22c.36,0,.8.11,1.07-.06s.25-.68.37-1q.06-.17.11-.35l5-17.82,5-17.93,4.31-15.33c.52-1.84,1-3.68,1.55-5.51.08-.28,0-.34-.26-.33C65,21.19,64.5,21.19,64,21.19Zm-6.2,0H56.34c-.3,0-.41.09-.49.38l-3,10.79L48.36,48.19l-5.61,20L39.67,79.13c-.08.3,0,.41.29.4h2.83c.4,0,.54-.13.65-.5Q45.21,72.66,47,66.3l5-17.69,5.2-18.51q1.21-4.31,2.43-8.61c.07-.26,0-.33-.24-.32C58.84,21.19,58.32,21.19,57.79,21.19Zm12,45.19H83.52c.51,0,.51,0,.51-.53V64c0-1,0-1-1-1H57c-.24,0-.46,0-.54.31-.23.9-.49,1.79-.74,2.68-.13.48-.13.48.37.48Zm.83-5.73h13c.35,0,.47-.08.45-.45V58.14c0-.93,0-.93-.9-.93H58.54c-.29,0-.42.07-.5.37-.22.87-.48,1.73-.72,2.6-.13.46-.12.46.35.46ZM71.44,55H83.59c.34,0,.44-.09.43-.43V51.94c0-.38-.1-.47-.47-.47H60.15a.42.42,0,0,0-.49.34v0c-.22.87-.48,1.74-.72,2.6-.13.49-.13.49.37.49Z"/><path class="cls-4" d="M70,101.78V96.37c0-.28,0-.39.36-.39,1.59,0,2.28.58,2.45,2.4a33.46,33.46,0,0,1,0,7.21,3.12,3.12,0,0,1-.28,1,2.17,2.17,0,0,1-2.35,1.09c-.21-.06-.12-.22-.12-.33v-4.08Q70,102.5,70,101.78Z"/><path class="cls-4" d="M33.88,105.37l1.59-8.13h.07l.92,4.7q.31,1.56.61,3.13c0,.13.14.3-.14.3Z"/><path class="cls-5" d="M35.25,79.49H33.8c-.45,0-.4-.07-.31-.4.54-1.87,1.06-3.75,1.59-5.63l4.86-17.27,4.29-15.25q2.72-9.67,5.42-19.33c.09-.32.2-.46.57-.45h2.83c.38,0,.45.09.35.45q-1.27,4.44-2.51,8.89L44.61,52.86,39.34,71.61c-.71,2.52-1.43,5-2.13,7.57-.08.28-.19.37-.47.35A14.74,14.74,0,0,0,35.25,79.49Z"/><path class="cls-5" d="M64,21.19h1.54c.28,0,.34.05.26.33-.53,1.83-1,3.67-1.55,5.51L59.93,42.36l-5,17.93-5,17.82a.67.67,0,0,1-.11.35c-.12.35-.07.85-.37,1a2.52,2.52,0,0,1-1.07.06H46.16c-.3,0-.36-.06-.28-.36.76-2.66,1.5-5.33,2.25-8l5.68-20.22L58.2,35.19,62,21.64c.1-.35.22-.51.62-.48S63.53,21.19,64,21.19Z"/><path class="cls-5" d="M57.79,21.19h1.58c.27,0,.31.06.24.32q-1.22,4.3-2.43,8.61L52,48.63,47,66.32q-1.79,6.36-3.57,12.73c-.1.37-.25.52-.65.5H39.93c-.34,0-.38-.11-.29-.4q1.55-5.47,3.08-10.94l5.61-20L52.8,32.34q1.52-5.39,3-10.79c.08-.29.18-.4.49-.38C56.82,21.19,57.31,21.19,57.79,21.19Z"/><path class="cls-5" d="M69.77,66.33H56.07c-.49,0-.5,0-.37-.48.25-.89.51-1.78.74-2.68.09-.34.3-.31.54-.31H83c1,0,1,0,1,1v1.9c0,.53,0,.53-.51.53Z"/><path class="cls-5" d="M70.6,60.6H57.69c-.48,0-.48,0-.35-.46.24-.87.5-1.73.72-2.6.08-.3.21-.37.5-.37H83.12c.9,0,.9,0,.9.93v2.06c0,.36-.1.45-.45.45Z"/><path class="cls-5" d="M71.42,54.91H59.3c-.5,0-.5,0-.37-.49.24-.87.5-1.73.72-2.6a.42.42,0,0,1,.45-.38H83.54c.37,0,.48.09.47.47V54.5c0,.34-.09.43-.43.43Z"/></svg>