<svg xmlns="http://www.w3.org/2000/svg" viewBox="0 0 426.81 426.81"><defs><style>.cls-1{fill:#e75625;}.cls-2{fill:#fff;fill-rule:evenodd;}</style></defs><title>Amazon go</title><g id="Layer_2" data-name="Layer 2"><g id="Layer_1-2" data-name="Layer 1"><rect class="cls-1" width="426.81" height="426.81" rx="93.12"/><path class="cls-2" d="M254.35,119.6c-16.46,12.14-40.32,18.6-60.87,18.6a110.12,110.12,0,0,1-74.34-28.36c-1.54-1.39-.17-3.29,1.68-2.22a149.63,149.63,0,0,0,74.39,19.74A147.91,147.91,0,0,0,252,115.75c2.79-1.18,5.12,1.83,2.4,3.85Z"/><path class="cls-2" d="M261.19,111.78c-2.1-2.7-13.91-1.28-19.22-.64-1.6.19-1.85-1.22-.4-2.23,9.42-6.62,24.85-4.71,26.65-2.49s-.48,17.71-9.3,25.09c-1.36,1.14-2.66.53-2.05-1,2-5,6.43-16.07,4.32-18.76Z"/><path class="cls-2" d="M242.35,62.16V55.74A1.59,1.59,0,0,1,244,54.11H272.8a1.61,1.61,0,0,1,1.66,1.63v5.51c0,.93-.79,2.13-2.17,4.05L257.36,86.6c5.54-.13,11.4.7,16.44,3.53a3,3,0,0,1,1.53,2.51V99.5c0,.94-1,2-2.13,1.47a33.16,33.16,0,0,0-30.44.06c-1,.53-2-.55-2-1.49V93a7.8,7.8,0,0,1,1.07-4.42l17.29-24.81H244a1.6,1.6,0,0,1-1.66-1.62Z"/><path class="cls-2" d="M137.24,102.32h-8.77a1.65,1.65,0,0,1-1.57-1.48v-45a1.64,1.64,0,0,1,1.69-1.61h8.16a1.66,1.66,0,0,1,1.6,1.52v5.87h.16c2.13-5.68,6.14-8.33,11.54-8.33s8.92,2.65,11.37,8.33a13,13,0,0,1,22.26-3.41c2.78,3.79,2.21,9.28,2.21,14.11V100.7a1.66,1.66,0,0,1-1.7,1.62h-8.75a1.64,1.64,0,0,1-1.57-1.61V76.85c0-1.89.17-6.62-.24-8.42-.66-3-2.62-3.89-5.16-3.89a5.81,5.81,0,0,0-5.24,3.69c-.9,2.28-.81,6.06-.81,8.62V100.7a1.65,1.65,0,0,1-1.69,1.62H152a1.65,1.65,0,0,1-1.58-1.61V76.85c0-5,.81-12.4-5.4-12.4s-6.06,7.19-6.06,12.4V100.7a1.65,1.65,0,0,1-1.69,1.62Z"/><path class="cls-2" d="M299.34,62.46c-6.46,0-6.87,8.8-6.87,14.3S292.39,94,299.26,94s7.12-9.47,7.12-15.24c0-3.79-.16-8.34-1.31-11.93-1-3.13-2.94-4.36-5.73-4.36Zm-.08-9.18c13,0,20.05,11.17,20.05,25.37,0,13.73-7.77,24.62-20.05,24.62-12.76,0-19.72-11.18-19.72-25.09s7-24.9,19.72-24.9Z"/><path class="cls-2" d="M336.19,102.32h-8.74a1.64,1.64,0,0,1-1.57-1.61l0-45a1.67,1.67,0,0,1,1.69-1.46h8.13a1.66,1.66,0,0,1,1.56,1.26v6.88h.16c2.46-6.15,5.89-9.08,12-9.08a11.48,11.48,0,0,1,10.23,5.3c2.29,3.6,2.29,9.65,2.29,14V100.9a1.66,1.66,0,0,1-1.68,1.42H351.4a1.66,1.66,0,0,1-1.56-1.42V76.48c0-4.93.58-12.13-5.48-12.13a5.73,5.73,0,0,0-5.07,3.6,20,20,0,0,0-1.4,8.53V100.7a1.67,1.67,0,0,1-1.7,1.62Z"/><path class="cls-2" d="M228.21,102.21a1.8,1.8,0,0,1-2.06.2,21.3,21.3,0,0,1-5-5.84c-4.81,4.9-8.22,6.37-14.45,6.37-7.38,0-13.13-4.55-13.13-13.66A14.89,14.89,0,0,1,202.89,75c4.76-2.09,11.4-2.47,16.49-3V70.78c0-2.09.16-4.56-1.07-6.36a5.84,5.84,0,0,0-4.92-2.28c-3.34,0-6.31,1.71-7,5.26A1.85,1.85,0,0,1,204.82,69l-8.49-.92A1.55,1.55,0,0,1,195,66.26c1.92-10.16,11-13.33,19.25-13.42h.65c4.23,0,9.62,1.21,12.9,4.37,4.27,4,3.86,9.3,3.86,15.09V86c0,4.11,1.71,5.91,3.31,8.12a1.67,1.67,0,0,1,0,2.34c-1.79,1.5-5,4.26-6.72,5.82l0,0Zm-8.83-21.38c0,3.42.08,6.27-1.64,9.3a7.13,7.13,0,0,1-6.07,4c-3.36,0-5.33-2.56-5.33-6.36,0-7.47,6.7-8.82,13-8.82v1.89Z"/><path class="cls-2" d="M113.29,102.21a1.82,1.82,0,0,1-2.07.2,21.41,21.41,0,0,1-5-5.84c-4.82,4.9-8.22,6.37-14.46,6.37-7.38,0-13.12-4.55-13.12-13.66A14.88,14.88,0,0,1,88,75c4.76-2.09,11.4-2.47,16.48-3V70.78c0-2.09.17-4.56-1.06-6.36a5.85,5.85,0,0,0-4.92-2.28c-3.35,0-6.32,1.71-7,5.26A1.86,1.86,0,0,1,89.9,69l-8.5-.92a1.56,1.56,0,0,1-1.31-1.84C82,56.1,91.1,52.93,99.35,52.84H100c4.22,0,9.62,1.21,12.9,4.37,4.26,4,3.86,9.3,3.86,15.09V86c0,4.11,1.7,5.91,3.3,8.12a1.67,1.67,0,0,1,0,2.34c-1.79,1.5-5,4.26-6.73,5.82l0,0Zm-8.84-21.38c0,3.42.09,6.27-1.64,9.3a7.1,7.1,0,0,1-6.07,4c-3.36,0-5.33-2.56-5.33-6.36,0-7.47,6.7-8.82,13-8.82v1.89Z"/><path class="cls-2" d="M290.08,191c29.63,0,49,23.4,49,53.5S319.93,298,290.08,298s-48.68-23.39-48.68-53.49,19-53.5,48.68-53.5Zm0-17.74c42.25,0,69.81,32.45,69.81,72.12s-29.27,71.83-69.81,71.83-69.8-32.16-69.8-71.83,27.56-72.12,69.8-72.12Z"/><path class="cls-2" d="M134.82,190.2c27.76,0,51.41,20.86,51.41,51.33,0,31.44-22.8,52.7-52.14,52.7s-47.84-22-47.84-50.24c0-28.37,20.82-53.79,48.57-53.79ZM91.34,330.47c5,12.27,15.21,25.68,44.15,25.68,17.3,0,30.47-6.19,38.7-17.33,6.48-8.76,9.92-19.07,9.92-33.54V293.79c-11.48,15.69-29.28,22.51-53,22.51-39.85,0-66.15-34.59-66.15-71.76s27.82-71.3,69.33-71.3c22,0,38.63,7.93,49.84,22.36V175.27h20V307.19c0,41.06-27,66.78-67.93,66.78-36.54,0-63.74-20.35-65.46-43.5Z"/></g></g></svg>