<svg id="Layer_1" data-name="Layer 1" xmlns="http://www.w3.org/2000/svg" viewBox="0 0 150.97 65.26"><defs><style>.cls-1{fill:#fbcc1b;}.cls-2{fill:#f37b36;}.cls-3{fill:#f06036;}.cls-4{fill:#596cb0;}</style></defs><title>ampm</title><polygon class="cls-1" points="10.14 23.72 10.13 23.73 10.14 23.72 10.14 23.72"/><path class="cls-2" d="M140.17,23.12q-3.57-2.72-7.32-5.19c-1.17-.77-2.38-1.48-3.6-2.16h0l-.13-.14-.12-.07h0l-.13-.09c-.44-.27-.87-.54-1.32-.8-2-1.13-3.93-2.22-6-3.19-.6-.3-1.19-.61-1.8-.89-1.68-.79-3.35-1.58-5.09-2.24-2-.9-4.1-1.62-6.19-2.33a.79.79,0,0,0-.43-.15H108a1,1,0,0,0-.45-.22.11.11,0,0,0-.08,0c-.57-.19-1.13-.4-1.7-.57-1.48-.44-2.95-.92-4.46-1.24a.17.17,0,0,0-.2-.06.61.61,0,0,0-.35-.09A25.76,25.76,0,0,0,97.79,3l-.15-.06C95.34,2.43,93,2,90.69,1.64c-1.67-.25-3.33-.49-5-.61-1.66-.28-3.35-.22-5-.4C79.84.54,79,.55,78.12.53q-3.65-.09-7.3.08A20.31,20.31,0,0,0,68.6.76h-.85l-.69.06h-.18a.21.21,0,0,0-.2,0H66.5a4.52,4.52,0,0,0-1.11.06A100.73,100.73,0,0,0,54.15,2.66a67.89,67.89,0,0,0-7.14,2,.19.19,0,0,0-.22.07h-.12a.24.24,0,0,0-.22.08H46.2A107.09,107.09,0,0,0,32.5,10,111.06,111.06,0,0,0,17,18.75c-2.34,1.57-4.63,3.2-6.84,5l.24-.08q4.81-2.59,9.82-4.79a131.69,131.69,0,0,1,12.33-4.72q2.41-.79,4.84-1.49c3.35-1,6.74-1.8,10.15-2.5.12,0,.23,0,.26-.17a4,4,0,0,0,.68,0c3-.6,6.07-1.09,9.12-1.5C59,8.31,60.41,8.14,61.84,8c1.77-.2,3.56-.27,5.34-.39h0c.7,0,1.4-.1,2.09-.12,3.69-.12,7.38-.19,11.07,0,1.86.08,3.71.18,5.57.28v0h.16c2.55.18,5.09.45,7.63.79l3.95.55H98a10,10,0,0,0,1.46.25h.16a5.11,5.11,0,0,0,1.13.21l2.52.51,4.27.92a.58.58,0,0,0,.34.07.52.52,0,0,0,.35.08l6,1.62,2.36.74,4.19,1.34c.62.3,1.28.47,1.92.72l4.6,1.75a2.27,2.27,0,0,0,.67.27c0,.07.11.07.18.07l2.2,1c3.07,1.34,6.09,2.77,9.05,4.34l1.09.56A.88.88,0,0,0,140.17,23.12Z"/><path class="cls-3" d="M29,27.06H13.59a12.56,12.56,0,0,0-8.18,3.09h0a12.26,12.26,0,0,0-3,3.52l-.1.17a.43.43,0,0,0-.15.27c-.08.13-.17.26-.24.4A12.53,12.53,0,0,0,.57,39.65a4.32,4.32,0,0,0,0,1.6A9.45,9.45,0,0,0,1.67,45l.09.17h0l.07.1h0A7.3,7.3,0,0,0,8,49.48a6.86,6.86,0,0,0,5.76-2.68,2.65,2.65,0,0,1-2.47-2A3.69,3.69,0,0,1,11.3,44c.26-1.28.49-2.57.73-3.86.41-1.76.73-3.55,1.06-5.33.06-.25.13-.49.17-.74l.57-3.3c.15-.08.14-.24.18-.37a3.06,3.06,0,0,1,3.27-1.86,2.42,2.42,0,0,1,2.13,2.66h0c-.17.84-.35,1.67-.51,2.51s-.35,1.87-.53,2.81v.21a.33.33,0,0,0-.07.31c-.37,1.59-.68,3.19-1,4.8h0a.28.28,0,0,0-.06.26q-.41,1.8-.7,3.61l-.63,3H24.8c.15,0,.34.1.39-.19.16-.88.33-1.76.5-2.65v-.09a.05.05,0,0,0,0-.07h0a.49.49,0,0,0,.08-.36,1.92,1.92,0,0,1,.09-.32c.14-.77.29-1.55.43-2.33.11-.1.08-.23.08-.36a.3.3,0,0,0,.06-.26l1.07-5.42,1.08-5.49c.25-1.26.49-2.52.76-3.78C29.41,27.09,29.3,27.06,29,27.06Z"/><path class="cls-3" d="M73.5,31.71a5.08,5.08,0,0,0-.17-2.33A4,4,0,0,0,70.72,27a8.05,8.05,0,0,0-4.93-.17,22.52,22.52,0,0,0-6.11,2.68c-.34.2-.52.22-.78-.14A6.65,6.65,0,0,0,52,26.54,19,19,0,0,0,45.79,29l-1.29.69c.16-.84.29-1.58.45-2.32.05-.24,0-.33-.24-.32H36.12c-.18,0-.29,0-.32.24-.27,1.42-.59,2.82-.81,4.25h0a3.3,3.3,0,0,0-.23,1c-.25,1.29-.49,2.58-.73,3.87v.21a.91.91,0,0,0-.12.48c-.37,1.77-.74,3.54-1,5.33q-.6,3-1.2,5.92c-.06.28.11.27.29.27h8.5c.23,0,.32-.08.36-.31.08-.51.2-1,.29-1.51.27-1.45.61-2.88.82-4.33A7.77,7.77,0,0,0,42.28,41c.25-1.28.55-2.55.73-3.85.06-.23.12-.46.17-.7l.94-4.81a6.46,6.46,0,0,1,.33-.6,2.92,2.92,0,0,1,2.84-1.34,2.45,2.45,0,0,1,2.21,2,2.67,2.67,0,0,1-.05,1.1c-.17.87-.33,1.73-.49,2.6h0v.12l-.05.13c-.26,1.23-.53,2.46-.72,3.7s-.56,2.57-.76,3.87a.37.37,0,0,0-.07.11c-.32,1.64-.63,3.28-1,4.91-.07.33,0,.4.33.4h8.06c.72,0,.72,0,.85-.68l.88-4.62h0c.32-1.31.56-2.64.79-4l-.13-.06.13.06a2.1,2.1,0,0,0,.08-.24L58,35.84v-.35c.24-1,.47-2.1.62-3.16.11-.1.07-.24.08-.36a.51.51,0,0,0,.1-.34l.11-.18a2.93,2.93,0,0,1,3-1.68,2.46,2.46,0,0,1,2.32,1.94v.78h0v.08c-.29,1.16-.49,2.34-.69,3.52h0l-1.1,5.4a.2.2,0,0,0,.08.19,1.39,1.39,0,0,0-.22.5,7.1,7.1,0,0,0,.41,4.28A4,4,0,0,0,66,49a9.39,9.39,0,0,0,2.35-.13A8.22,8.22,0,0,0,72.74,47a.86.86,0,0,0,.33-.41c-1.42-.14-1.93-.71-1.92-2.12a4.74,4.74,0,0,1,0-.69,15.63,15.63,0,0,1,.39-2.31q.54-2.44,1-4.89h0V36.5l.1-.52h0l.05-.27A40,40,0,0,0,73.5,31.71Zm-38.22-.06ZM49.36,35.4Zm14.36.77h0Z"/><path class="cls-4" d="M107.24,41.88a9.68,9.68,0,0,0-9.66-7.49H84.05c-.39,0-.54.1-.61.49-.23,1.31-.5,2.61-.75,3.91h0l-.33,1.64-1,5.33a1.32,1.32,0,0,1-.08.33l-1.07,5.52h0l-.06.22V52h0a3,3,0,0,0-.2,1.16h0c-.15.12-.07.31-.13.45a.08.08,0,0,0,0,.08,24.92,24.92,0,0,0-.52,2.67.28.28,0,0,0,0,.07c-.52,2.65-1,5.3-1.57,7.94-.06.3,0,.4.33.39h8.42c.27,0,.39-.05.45-.36.32-1.73.67-3.45,1-5.17.24-1.26.47-2.53.71-3.79h0c.09-.08.07-.19.07-.29A10.14,10.14,0,0,0,89,53.52c.26-1.32.53-2.63.78-3.95.21-1.11.49-2.2.62-3.32a.2.2,0,0,0,.06-.2v-.17a1.16,1.16,0,0,0,.07-.19c.26-1.32.53-2.63.77-4,.17-.94.42-1.87.52-2.82a2.33,2.33,0,0,0,.17-.7,3,3,0,0,1,3.41-2.47,2.35,2.35,0,0,1,2.11,2.57v.08c-.18,1.21-.44,2.41-.67,3.62-.27,1.37-.56,2.74-.82,4.11-.19,1-.46,2.06-.58,3.11a17.1,17.1,0,0,0-.5,2.37A3,3,0,0,1,92.45,54a3.65,3.65,0,0,1-1.67-.2,5.3,5.3,0,0,0,1,1.34,6.83,6.83,0,0,0,7.5,1.67,11.83,11.83,0,0,0,6.21-5,1,1,0,0,0,.17-.43.52.52,0,0,0,.33-.45,9.25,9.25,0,0,0,.45-.86,1.32,1.32,0,0,0,.24-.52.06.06,0,0,0,0-.06,11.35,11.35,0,0,0,.83-6.81A2,2,0,0,1,107.24,41.88Z"/><path class="cls-4" d="M148.39,49.76c.35-1.7.71-3.4,1-5.1.18-.93.26-1.88.53-2.79a14.67,14.67,0,0,0,.47-2.55,5.74,5.74,0,0,0-.25-2.83,4.14,4.14,0,0,0-2.66-2.27,8.75,8.75,0,0,0-5.72.14,24.6,24.6,0,0,0-5.27,2.47c-.29.18-.43.17-.63-.12A6.63,6.63,0,0,0,129,33.83a17.73,17.73,0,0,0-5.8,2.17l-1.81,1c.16-.81.28-1.55.45-2.29.06-.28,0-.35-.27-.35H113a.32.32,0,0,0-.37.27v0q-.54,2.86-1.09,5.72a1.82,1.82,0,0,0,.83.15,1.82,1.82,0,0,1-.83-.15c-.25,1.21-.5,2.43-.74,3.64s-.47,2.14-.61,3.23h0a.19.19,0,0,0-.05.21v.25c-.52,2.62-1,5.23-1.57,7.85-.07.33.08.34.33.34h8.46c.26,0,.37-.07.42-.34.23-1.26.47-2.53.74-3.78.17-.77.2-1.57.43-2.33h0a.29.29,0,0,0,0-.05v-.2h0l.09-.42v-.73a.83.83,0,0,0,.1-.49h0l.06-.13v-.18a21.57,21.57,0,0,0,.47-2.26c.25-1.3.56-2.59.74-3.91a.29.29,0,0,0,.07-.28v-.44a.52.52,0,0,0,.08-.35v-.16h0a.28.28,0,0,0,0-.05l.05-.2v-.08a3.12,3.12,0,0,1,.82-1.57,3,3,0,0,1,3.44-.57c1.09.58,1.44,1.5,1.17,3a16.64,16.64,0,0,0-.35,1.93v.12a.21.21,0,0,0-.06.22c-.23,1.1-.46,2.21-.67,3.31-.27,1.42-.6,2.82-.81,4.25a.17.17,0,0,0-.05.18v.17a.08.08,0,0,0,0,.08A.55.55,0,0,0,124,51c-.18.22-.1.49-.15.74-.29,1.32-.53,2.65-.8,4,0,.24,0,.29.25.29h8.58c.21,0,.35-.06.35-.27a16.1,16.1,0,0,1,.38-2.19c.1-.7.28-1.38.43-2.08a.34.34,0,0,0,.07-.3V51a.93.93,0,0,0,.07-.45.5.5,0,0,0,.07-.34,2.85,2.85,0,0,0,.09-.28q.4-2,.79-4.06c.2-1.06.47-2.11.6-3.19a.47.47,0,0,0,.08-.37h0a.19.19,0,0,0,.06-.21v-.18a.28.28,0,0,0,.06-.25v-.15c.12-.59.28-1.17.37-1.76a3,3,0,0,1,1.26-2.11h.06l.63-.32c.3,0,.59-.11.89-.14a2.43,2.43,0,0,1,2.66,2.94,6.44,6.44,0,0,0-.21,1.22c-.13.62-.27,1.24-.39,1.86q-.57,2.89-1.13,5.79v.3c-.09.09-.07.2-.08.31h0a.36.36,0,0,0-.06.3,2.68,2.68,0,0,0-.09.86v.09a2.52,2.52,0,0,0,0,.78.07.07,0,0,0,0,.08,1.43,1.43,0,0,0,.08.61.21.21,0,0,0,.05.22,2.31,2.31,0,0,0,.25,1,4,4,0,0,0,3.38,2.87,8,8,0,0,0,1.67,0,8.74,8.74,0,0,0,5-1.81,1.73,1.73,0,0,0,.5-.53c-1.1-.1-1.89-.51-1.94-1.72v-.17a.14.14,0,0,0-.06.06h0a.14.14,0,0,1,.06-.06V51.14c.12-.15.07-.32.08-.48A3,3,0,0,0,148.39,49.76Zm-27.56-9.87Z"/></svg>