<svg id="Layer_1" data-name="Layer 1" xmlns="http://www.w3.org/2000/svg" viewBox="0 0 181 67.65"><defs><style>.cls-1{fill:#fff;}.cls-2{fill:#edb216;}</style></defs><title>Andersons</title><path class="cls-1" d="M48,32.73H37.88l-.19-.1a.67.67,0,0,1,.12-.21,1.23,1.23,0,0,1,.27-.12,2.1,2.1,0,0,0,1.34-2.07V21.34a2.31,2.31,0,0,0-2.18-2.43h-.3a2.73,2.73,0,0,0-2.79,2.66v8.55a2.22,2.22,0,0,0,1.5,2.17l.48.23v.12a2.19,2.19,0,0,1-.4.07H26.11a2.31,2.31,0,0,1-.4-.07v-.11c.1,0,.2-.11.31-.14a2.29,2.29,0,0,0,1.61-2.28V11.58a1.15,1.15,0,0,0-.82-1.21,5,5,0,0,0-1.35-.29c-.93-.05-1.87,0-2.81,0-.35,0-.4.2-.4.49V29.85a2.08,2.08,0,0,0,1,2c.38.23.8.41,1.2.62l.35.22v.1h-12V32.7l.36-.24a16.62,16.62,0,0,0,1.44-.93,1.74,1.74,0,0,0,.62-1.43V10.67c0-.3-.11-.52-.42-.51a22.16,22.16,0,0,0-3.06.2,4,4,0,0,0-2.89,2.31c-.19.37-.37.74-.55,1.12H8.18a1.48,1.48,0,0,1-.07-.33c0-1.61.1-3.22.17-4.83,0-.45.15-.52.6-.47.72.07,1.44.16,2.16.17h9c4.39-.09,8.77-.22,13.16-.35.87,0,.87,0,.87.83V19.14l.42-.42a7.24,7.24,0,0,1,7.11-2.4,5.47,5.47,0,0,1,4.25,5.36V30a2.32,2.32,0,0,0,1.4,2.32l.67.35Z"/><path class="cls-1" d="M38.9,45.79l.45-.49A7.31,7.31,0,0,1,45.83,43a5.48,5.48,0,0,1,4.74,5.49v8.4A2.33,2.33,0,0,0,52,59.14l.68.35v.1a1.49,1.49,0,0,1-.36.09H42.61c-.1,0-.2-.09-.31-.13.08-.08.15-.2.25-.24A2.25,2.25,0,0,0,44,57V48.15A2.39,2.39,0,0,0,40.76,46a2.55,2.55,0,0,0-2,2.5v8.63a2.19,2.19,0,0,0,1.5,2.13l.51.24v.12a2.26,2.26,0,0,1-.4.07H20.63a4.54,4.54,0,0,1-.61-.08v-.14l.33-.11a7.59,7.59,0,0,0,.91-.35,1.64,1.64,0,0,0,.9-2.14h0v-.09c-.57-1.62-1.14-3.23-1.69-4.85a.49.49,0,0,0-.56-.4H13.79a.47.47,0,0,0-.54.38c-.44,1.3-.91,2.6-1.35,3.9a4.24,4.24,0,0,0-.19.76,2.32,2.32,0,0,0,1.73,2.77l.55.2a37.19,37.19,0,0,1-6.9,0c.06,0,.1-.11.17-.13A3.61,3.61,0,0,0,9.5,56.85c1.32-3.82,2.6-7.64,3.91-11.46,1.07-3.11,2.16-6.21,3.24-9.32.21-.61.22-.61.88-.61h4c.44,0,.61.21.75.58q2.58,7.22,5.18,14.44c.76,2.13,1.5,4.27,2.26,6.4a3.07,3.07,0,0,0,1,1.48c.75.57,1.43.29,1.55-.63a7,7,0,0,0,0-.9V47a8.18,8.18,0,0,0-.38-2,1.21,1.21,0,0,0-.75-.84c-.13,0-.21-.21-.31-.32.14-.09.27-.23.42-.25.73-.09,1.47-.16,2.2-.21l4.79-.28c.53,0,.57,0,.57.56v1.65a4.26,4.26,0,0,0,.05.46ZM14.11,49.43H19.5L16.82,42H16.7Z"/><path class="cls-1" d="M150.23,59.46l.37-.21a2.13,2.13,0,0,0,1.4-1.92V48.85a7.51,7.51,0,0,0-.05-.86A2.32,2.32,0,0,0,149,45.83a2.69,2.69,0,0,0-2.31,2.73q0,4.26,0,8.52a2.18,2.18,0,0,0,1.5,2.09l.45.22v.11a1.19,1.19,0,0,1-.34.11H139l-.24-.05-.08-.11.21-.08a2.37,2.37,0,0,0,1.28-2.26q.06-5.25,0-10.51a5.4,5.4,0,0,0-.46-1.8c-.1-.27-.44-.45-.66-.67l-.31-.33c.14-.09.27-.24.41-.25,1.11-.11,2.22-.22,3.33-.3s2.42-.13,3.63-.2c.57,0,.61,0,.61.6v1.69a2,2,0,0,0,.05.49l.37-.36A7.28,7.28,0,0,1,154.28,43a5.49,5.49,0,0,1,4.23,5.23V57a2.16,2.16,0,0,0,1,1.75c.39.28.65.16.67-.32s0-1.2,0-1.8V54.16a1.76,1.76,0,0,1,.2-.52,2,2,0,0,1,.43.37c.55.88,1.06,1.79,1.63,2.65a5.88,5.88,0,0,0,2,1.88,2.3,2.3,0,0,0,3.38-.88,2.21,2.21,0,0,0-.16-2.37,5.91,5.91,0,0,0-2.15-1.65c-.91-.44-1.84-.84-2.75-1.29a4.9,4.9,0,0,1-2.84-3.76,4.6,4.6,0,0,1,2.61-5,9,9,0,0,1,5.79-.63c.68.13,1.35.25,2,.41a1.7,1.7,0,0,0,1.32-.24c.55-.31.67-.23.66.4,0,1.36,0,2.73-.06,4.09a1.24,1.24,0,0,1-.18.41c-.12-.1-.3-.17-.37-.3a9.77,9.77,0,0,0-2.07-2.79,3.33,3.33,0,0,0-3.54-.76,1.59,1.59,0,0,0-.46,2.89,18.81,18.81,0,0,0,2.5,1.42c.74.38,1.53.68,2.27,1.07a4.65,4.65,0,0,1,2.6,3.83,7.74,7.74,0,0,1-.11,2.76,5,5,0,0,1-2.66,3.05,6.92,6.92,0,0,1-4.81.65c-.87-.15-1.73-.38-2.59-.6a2.66,2.66,0,0,0-1.72.08,3.76,3.76,0,0,1-1.31.26h-9.12l-.45-.05Z"/><path class="cls-1" d="M61.84,33.64a2.74,2.74,0,0,1,.47-.12L68.4,33l2.17-.18c.46,0,.56.05.58.51s0,.67,0,1V56.62a2.57,2.57,0,0,0,1.63,2.57l.4.2s0,.06.1.15a2.33,2.33,0,0,1-.43.09H61.09a14.4,14.4,0,0,1-3.43-.3,8.18,8.18,0,0,1-1.74-15.4A9.16,9.16,0,0,1,64,43.79c.16.07.31.16.52.27a3.92,3.92,0,0,0,.06-.47V35.53a1.08,1.08,0,0,0-.68-1.14,16.18,16.18,0,0,0-1.64-.48l-.46-.14ZM64.62,52V47a2,2,0,0,0-.47-1.31,3.24,3.24,0,0,0-5.68.8,10.32,10.32,0,0,0-.7,4.37,10.58,10.58,0,0,0,1.54,5.45,4.37,4.37,0,0,0,3.48,2.13,1.49,1.49,0,0,0,1.82-1.64q0-2.42,0-4.8Z"/><path class="cls-1" d="M129.09,42.31a11.35,11.35,0,0,1,7.79,3.06,8,8,0,0,1-.17,12.08,11.18,11.18,0,0,1-7.31,2.88,11.31,11.31,0,0,1-7.44-2.2,8.09,8.09,0,0,1-3.55-8,8.33,8.33,0,0,1,3.58-5.6A11.78,11.78,0,0,1,129.09,42.31Zm-4.15,8.9a12.06,12.06,0,0,0,.66,4.1,5.86,5.86,0,0,0,1.69,2.62,2.34,2.34,0,0,0,3.31-.06h0a5.72,5.72,0,0,0,1.25-1.71,11.57,11.57,0,0,0,.11-9.43,4.81,4.81,0,0,0-1.52-2.06,2.31,2.31,0,0,0-3.07,0,5.18,5.18,0,0,0-1.07,1.18A10.15,10.15,0,0,0,124.94,51.21Z"/><path class="cls-1" d="M84.08,50.1H78.75c-.33,0-.45.09-.41.42.11.88.14,1.77.31,2.64.88,4.39,5.37,5.1,8.07,3.6A6.88,6.88,0,0,0,89,54.66a2,2,0,0,1,.5-.37,2.18,2.18,0,0,1,0,.59,5.39,5.39,0,0,1-1.63,2.43,10,10,0,0,1-7.46,2.86A8.84,8.84,0,0,1,72,52.33a8.27,8.27,0,0,1,4.15-8.24A9.4,9.4,0,0,1,88,45.76a8.14,8.14,0,0,1,1.88,3.83c.09.43,0,.51-.42.51Zm-3-1.24h2.47c.18,0,.32,0,.32-.25a5.68,5.68,0,0,0-.94-3.41,2.12,2.12,0,0,0-3.68,0,5.56,5.56,0,0,0-1,3.4c0,.24.11.29.33.29Z"/><path class="cls-1" d="M58.91,23.4H53.58c-.34,0-.44.09-.4.43a27.35,27.35,0,0,0,.38,2.89,5,5,0,0,0,4.91,4,5.9,5.9,0,0,0,5.25-2.65,2.39,2.39,0,0,1,.29-.39.9.9,0,0,1,.32-.11c0,.1.08.23,0,.31a10.52,10.52,0,0,1-.9,1.79,9.37,9.37,0,0,1-3.73,2.89,9.19,9.19,0,0,1-11-2.43,8.54,8.54,0,0,1,1.9-12.54,9.43,9.43,0,0,1,12.57,1.84,8.3,8.3,0,0,1,1.57,3.42c.11.49,0,.58-.46.58ZM56,22.16H58.5c.22,0,.32-.06.31-.29a6.49,6.49,0,0,0-.56-2.73,3,3,0,0,0-1.35-1.51,2.07,2.07,0,0,0-2.67.78,5.48,5.48,0,0,0-1,3.5c0,.24.15.25.32.25Z"/><path class="cls-1" d="M99.21,59.46a85.25,85.25,0,0,1-10,.12c0-.05.06-.11.1-.14A2.54,2.54,0,0,0,90.65,57V46.85A7.35,7.35,0,0,0,90.29,45a1.27,1.27,0,0,0-.82-.91c-.11,0-.17-.21-.26-.32.12-.08.23-.21.35-.23.73-.09,1.47-.17,2.2-.22,1.62-.11,3.24-.2,4.87-.29.5,0,.55,0,.55.55v2.66a2.41,2.41,0,0,0,.06.59,4.59,4.59,0,0,0,.37-.42c.58-.82,1.13-1.65,1.74-2.44a5.46,5.46,0,0,1,1.07-1,2,2,0,0,1,1.6-.39,18.94,18.94,0,0,1,2.13.69c.28.1.36.33.3.64-.32,1.57-.61,3.14-.92,4.71-.07.37-.21.43-.51.19s-.82-.73-1.27-1.05a2.9,2.9,0,0,0-3.7.17,2.65,2.65,0,0,0-.86,2.15V57a2.2,2.2,0,0,0,1.47,2.15Z"/><path class="cls-1" d="M105,56.77V54.29a1,1,0,0,1,0-.33.52.52,0,0,1,.2-.28.49.49,0,0,1,.27.15,3.92,3.92,0,0,1,.34.54A14.83,14.83,0,0,0,108,57.59a4,4,0,0,0,2.24,1.34,2.31,2.31,0,0,0,2.17-3.64,7.5,7.5,0,0,0-2.81-2,23.91,23.91,0,0,1-2.9-1.48,4.75,4.75,0,0,1,.73-8.28A9.17,9.17,0,0,1,113,43c.64.12,1.28.22,1.91.39a1.78,1.78,0,0,0,1.47-.21c.52-.31.67-.22.66.38v4a.71.71,0,0,1,0,.26c0,.09-.11.24-.17.24a.41.41,0,0,1-.3-.16c-.14-.19-.23-.42-.35-.62a8.14,8.14,0,0,0-2-2.46,3.26,3.26,0,0,0-3.34-.59,1.59,1.59,0,0,0-.45,2.89,23.06,23.06,0,0,0,2.74,1.53c.69.36,1.41.64,2.1,1a4.6,4.6,0,0,1,2.51,3.65,7.58,7.58,0,0,1-.11,2.94,5,5,0,0,1-2.69,3,6.94,6.94,0,0,1-4.77.63c-1-.17-2-.44-3-.66a2.13,2.13,0,0,0-1.68.35.56.56,0,0,1-.43.1c-.09,0-.13-.27-.14-.42V56.77Z"/><path d="M14.11,49.43,16.7,42h.09l2.71,7.45Z"/><path d="M64.61,52q0,2.38,0,4.76a1.49,1.49,0,0,1-1.83,1.68,4.37,4.37,0,0,1-3.48-2.13,10.58,10.58,0,0,1-1.54-5.45,10.32,10.32,0,0,1,.7-4.37,3.24,3.24,0,0,1,5.68-.8A2,2,0,0,1,64.61,47C64.61,48.72,64.61,50.38,64.61,52Z"/><path d="M124.94,51.21a10.15,10.15,0,0,1,1.37-5.3,5.18,5.18,0,0,1,1.08-1.23,2.31,2.31,0,0,1,3.07,0A4.81,4.81,0,0,1,132,46.74a11.57,11.57,0,0,1-.11,9.43,5.72,5.72,0,0,1-1.25,1.71,2.34,2.34,0,0,1-3.31.08h0a5.86,5.86,0,0,1-1.69-2.62A12.06,12.06,0,0,1,124.94,51.21Z"/><path d="M81.11,48.85H78.64c-.21,0-.33,0-.33-.29a5.56,5.56,0,0,1,1-3.4,2.12,2.12,0,0,1,3.68,0,5.68,5.68,0,0,1,.94,3.41c0,.24-.14.25-.32.25Z"/><path d="M56,22.16H53.5c-.18,0-.32,0-.32-.25a5.48,5.48,0,0,1,1-3.5,2.07,2.07,0,0,1,2.67-.78,3,3,0,0,1,1.35,1.51,6.49,6.49,0,0,1,.56,2.73c0,.24-.09.29-.31.29Z"/><path d="M.5.5V67.15h180V.5ZM50.64,17.6a9.43,9.43,0,0,1,12.57,1.84,8.3,8.3,0,0,1,1.55,3.41c.11.49,0,.58-.46.58H53.61c-.34,0-.4.09-.4.43a27.35,27.35,0,0,0,.38,2.89,5,5,0,0,0,4.91,4,5.9,5.9,0,0,0,5.29-2.65,2.39,2.39,0,0,1,.29-.39.9.9,0,0,1,.32-.11v.31a10.52,10.52,0,0,1-.9,1.79,9.37,9.37,0,0,1-3.76,2.88,9.19,9.19,0,0,1-11-2.43,8.54,8.54,0,0,1,1.9-12.54ZM8.39,8.51C8.39,8,8.54,8,9,8a19.63,19.63,0,0,0,2.16.17c3,0,6,.06,9,0,4.39-.09,8.77-.23,13.16-.35.87,0,.87,0,.87.83V19l.42-.42a7.24,7.24,0,0,1,7.11-2.4A5.47,5.47,0,0,1,46,21.56v8.37a2.32,2.32,0,0,0,1.4,2.32l.67.35v.13H37.86l-.19-.1a.67.67,0,0,1,.12-.21,1.23,1.23,0,0,1,.27-.12,2.1,2.1,0,0,0,1.34-2.07V21.34a2.31,2.31,0,0,0-2.18-2.43h-.3a2.73,2.73,0,0,0-2.79,2.66v8.55a2.22,2.22,0,0,0,1.5,2.17l.48.23v.12a2.18,2.18,0,0,1-.4.07H26.1a2.31,2.31,0,0,1-.4-.07v-.11c.11,0,.2-.14.31-.14a2.29,2.29,0,0,0,1.61-2.28V11.57a1.15,1.15,0,0,0-.82-1.21,5,5,0,0,0-1.35-.29H22.64c-.35,0-.4.2-.4.49V29.85a2.08,2.08,0,0,0,1,1.88c.38.24.8.41,1.2.62l.35.22v.1H12.91v-.09l.36-.24a16.62,16.62,0,0,0,1.44-.93A1.74,1.74,0,0,0,15.33,30V10.55c0-.29-.12-.51-.42-.51a22.15,22.15,0,0,0-3.06.2A4,4,0,0,0,9,12.55c-.19.37-.37.75-.55,1.12H8.29a1.48,1.48,0,0,1-.07-.33C8.27,11.73,8.32,10.12,8.39,8.51ZM52.6,59.56a1.49,1.49,0,0,1-.36.09H42.56c-.11,0-.21-.13-.31-.13.08-.08.15-.24.25-.24A2.25,2.25,0,0,0,44,57V48.18A2.39,2.39,0,0,0,40.73,46a2.55,2.55,0,0,0-2,2.5v8.63a2.19,2.19,0,0,0,1.5,2.13l.51.24v.12a2.26,2.26,0,0,1-.4.07H20.64A4.54,4.54,0,0,1,20,59.6v-.14l.33-.11a7.59,7.59,0,0,0,.91-.35h.09a1.64,1.64,0,0,0,.77-2.19h0C21.56,55.2,21,53.58,20.44,52a.49.49,0,0,0-.56-.4H13.8a.47.47,0,0,0-.54.38c-.44,1.31-.9,2.6-1.35,3.9a4.25,4.25,0,0,0-.19.76,2.32,2.32,0,0,0,1.78,2.74l.55.2a37.19,37.19,0,0,1-6.9,0c.06-.05.11-.13.17-.13A3.61,3.61,0,0,0,9.5,56.85c1.32-3.81,2.6-7.64,3.91-11.46,1.07-3.11,2.16-6.22,3.24-9.32.22-.61.22-.61.88-.61h4a.71.71,0,0,1,.75.58q2.6,7.22,5.18,14.44c.77,2.13,1.51,4.27,2.26,6.4a3.07,3.07,0,0,0,1,1.48c.74.58,1.43.3,1.55-.63a7,7,0,0,0,0-.9V47a8.18,8.18,0,0,0-.38-2,1.21,1.21,0,0,0-.75-.84c-.12,0-.21-.21-.31-.32.14-.09.27-.25.42-.25a18,18,0,0,1,2.2-.21l4.79-.28c.57,0,.57,0,.57.56v1.65a4.28,4.28,0,0,0,0,.46h.11l.4-.49A7.31,7.31,0,0,1,45.77,43a5.48,5.48,0,0,1,4.73,5.47v8.4a2.33,2.33,0,0,0,1.4,2.29l.68.35Zm20.24.1H61.1a14.4,14.4,0,0,1-3.43-.3A8.18,8.18,0,0,1,55.93,44,9.16,9.16,0,0,1,64,43.82l.52.27a3.91,3.91,0,0,0,.06-.47V35.56a1.08,1.08,0,0,0-.68-1.14,16.17,16.17,0,0,0-1.64-.48l-.46-.14v-.16a2.74,2.74,0,0,1,.46-.09L68.39,33l2.17-.18c.46,0,.58.19.58.51V56.65a2.57,2.57,0,0,0,1.63,2.57l.4.2s0,.06.1.15a2.33,2.33,0,0,1-.43.09Zm15-2.35a10,10,0,0,1-7.46,2.86A8.84,8.84,0,0,1,72,52.33a8.27,8.27,0,0,1,4.15-8.24A9.4,9.4,0,0,1,88,45.76a8.14,8.14,0,0,1,1.88,3.83c.08.43,0,.51-.42.51H78.74c-.33,0-.41.09-.41.42.1.88.14,1.77.31,2.64.89,4.39,5.37,5.1,8.07,3.6A6.88,6.88,0,0,0,89,54.66a2,2,0,0,1,.5-.37,2.18,2.18,0,0,1,0,.59,5.39,5.39,0,0,1-1.62,2.43ZM104.5,44c-.31,1.57-.61,3.14-.92,4.71-.08.37-.08.53-.51.19a14.24,14.24,0,0,0-1.27-1,2.9,2.9,0,0,0-3.7.17,2.65,2.65,0,0,0-.86,2.15v6.9a2.2,2.2,0,0,0,1.47,2.15c.18.07.34.16.54.26h0a85.24,85.24,0,0,1-10,.14l.1-.14A2.54,2.54,0,0,0,90.69,57V46.95a7.35,7.35,0,0,0-.36-1.83,1.27,1.27,0,0,0-.82-.91c-.11,0-.18-.21-.26-.32.11-.08.22-.23.35-.23a18,18,0,0,1,2.2-.22c1.62-.11,3.25-.2,4.87-.29.5,0,.55,0,.55.55v2.66c0,.16.06.31.06.59.17-.2.28-.3.37-.42.58-.81,1.13-1.65,1.74-2.44a5.46,5.46,0,0,1,1.07-1,2,2,0,0,1,1.6-.39,18.94,18.94,0,0,1,2.13.69C104.5,43.45,104.5,43.67,104.5,44Zm13.23,12.3a5,5,0,0,1-2.69,3,6.94,6.94,0,0,1-4.77.63c-1-.18-2-.45-3-.66a2.13,2.13,0,0,0-1.68.35.43.43,0,0,1-.43.1c-.14-.06-.14-.27-.14-.42V56.77h0c0-.82,0-1.65.05-2.46a1,1,0,0,1,0-.33.52.52,0,0,1,.2-.28.46.46,0,0,1,.27.15,3.92,3.92,0,0,1,.32.6A14.83,14.83,0,0,0,108,57.67,4,4,0,0,0,110.28,59a2.31,2.31,0,0,0,2.17-3.64,7.5,7.5,0,0,0-2.81-2,23.9,23.9,0,0,1-2.9-1.48,4.75,4.75,0,0,1,.73-8.28,9.17,9.17,0,0,1,5.62-.57c.64.12,1.28.22,1.91.39a1.78,1.78,0,0,0,1.47-.21c.52-.31.66-.22.66.38v4a.71.71,0,0,1,0,.26c0,.09-.11.24-.17.24a.41.41,0,0,1-.3-.16,6.2,6.2,0,0,1-.35-.62,8.14,8.14,0,0,0-2-2.46,3.26,3.26,0,0,0-3.34-.59,1.59,1.59,0,0,0-.45,2.89,23.07,23.07,0,0,0,2.74,1.53c.69.35,1.42.63,2.1,1a4.6,4.6,0,0,1,2.51,3.65,7.58,7.58,0,0,1-.15,2.94Zm19,1.14a11.18,11.18,0,0,1-7.31,2.88A11.31,11.31,0,0,1,122,58.1a8.09,8.09,0,0,1-3.55-8A8.33,8.33,0,0,1,122,44.5a11.78,11.78,0,0,1,7.1-2.19h0a11.35,11.35,0,0,1,7.77,3,8,8,0,0,1-.17,12.08Zm36.2-1.21a5,5,0,0,1-2.66,3.05,6.92,6.92,0,0,1-4.81.65c-.87-.15-1.73-.37-2.59-.6a2.66,2.66,0,0,0-1.72.08,3.76,3.76,0,0,1-1.31.26h-9.57v-.14h0l.38-.19a2.13,2.13,0,0,0,1.4-1.92V48.93a7.51,7.51,0,0,0-.05-.86,2.32,2.32,0,0,0-2.94-2.16,2.69,2.69,0,0,0-2.31,2.73v8.52a2.18,2.18,0,0,0,1.5,2.09l.45.22v.11a1.19,1.19,0,0,1-.34.11h-9.58l-.08-.11.21-.08a2.37,2.37,0,0,0,1.28-2.26q.06-5.26,0-10.51a5.4,5.4,0,0,0-.46-1.8c-.1-.27-.44-.45-.66-.67l-.31-.33c.13-.08.27-.25.41-.25,1.11-.12,2.12-.21,3.33-.3s2.42-.13,3.63-.2c.61,0,.61,0,.61.6V46l.37-.36a7.28,7.28,0,0,1,7.17-2.44,5.49,5.49,0,0,1,4.23,5.23v8.78a2.16,2.16,0,0,0,1,1.75c.39.28.67.28.67-.32V54.29a1.76,1.76,0,0,1,.2-.52,2,2,0,0,1,.43.37c.55.88,1.05,1.79,1.63,2.65a5.88,5.88,0,0,0,2,1.88,2.3,2.3,0,0,0,3.38-.88,2.21,2.21,0,0,0-.16-2.37,5.91,5.91,0,0,0-2.15-1.65c-.91-.44-1.84-.84-2.75-1.29a4.9,4.9,0,0,1-2.84-3.76,4.6,4.6,0,0,1,2.61-5,9,9,0,0,1,5.79-.63c.66.12,1.33.24,2,.41a1.7,1.7,0,0,0,1.32-.24c.54-.32.66-.24.66.4-.06,1.36-.06,2.73-.06,4.09a1.24,1.24,0,0,1-.18.41c-.13-.1-.3-.17-.37-.3a9.77,9.77,0,0,0-2.07-2.79,3.33,3.33,0,0,0-3.54-.76,1.59,1.59,0,0,0-.46,2.89,18.82,18.82,0,0,0,2.5,1.42c.74.38,1.53.68,2.27,1.07a4.65,4.65,0,0,1,2.6,3.83,7.74,7.74,0,0,1-.1,2.69Z"/><path class="cls-2" d="M173.82,22.44h-.18a14.64,14.64,0,0,1-6.15-2.11c-1.59-.92-3.06-2-4.59-3a10.94,10.94,0,0,0-10.77-1.1A18.26,18.26,0,0,0,148,18.88c-1.52,1.16-3.08,2.29-4.63,3.43l-.39.26c.89.62,1.76,1.2,2.6,1.83,1.54,1.14,3,2.35,4.54,3.45a11.3,11.3,0,0,0,6.37,2,10.29,10.29,0,0,0,5.83-1.73c1.39-.84,2.69-1.75,4-2.64a15.93,15.93,0,0,1,7.23-2.8,1.66,1.66,0,0,0,.3-.09C173.84,22.53,173.82,22.44,173.82,22.44Z"/><path class="cls-2" d="M109.65,19.7a5.22,5.22,0,0,1-2.51,1.75v.12H118.7a18.42,18.42,0,0,0,2.13-.11,10.16,10.16,0,0,0,5.49-2.28q5.14-4.36,10.26-8.77a2.5,2.5,0,0,0,.23-.27h-.2c-.09,0-.17.15-.26.15a18.28,18.28,0,0,1-2.2.91,14.31,14.31,0,0,1-5.4.13c-1.4-.15-2.8-.34-4.21-.42a14,14,0,0,0-5.84.9A12.71,12.71,0,0,0,114.16,15C112.65,16.59,111.17,18.16,109.65,19.7Z"/><path class="cls-2" d="M80.5,21.73a18.61,18.61,0,0,0,2.16-.11,10.15,10.15,0,0,0,5.45-2.23c3.54-3,7-6,10.54-9a1.46,1.46,0,0,0,.18-.23.34.34,0,0,0-.29,0,8.12,8.12,0,0,1-3.9,1.27,22.69,22.69,0,0,1-5.19-.29,19.88,19.88,0,0,0-6.89,0,10.57,10.57,0,0,0-5.24,2.55c-1.74,1.65-3.37,3.41-5.08,5.09-1.06,1-2,2.31-3.5,2.77v.18Z"/><path class="cls-2" d="M129.15,19.49a6,6,0,0,1-2.77,2v.16h12a13.35,13.35,0,0,0,2.31-.2A11,11,0,0,0,146,18.83c3.22-2.79,6.47-5.54,9.71-8.31a1.7,1.7,0,0,0,.2-.25.33.33,0,0,0-.29,0,8,8,0,0,1-3.87,1.26,23.06,23.06,0,0,1-5.11-.29,22.68,22.68,0,0,0-5.3-.19,11.84,11.84,0,0,0-7.55,3.58C132.31,16.26,130.74,17.85,129.15,19.49Z"/><path class="cls-2" d="M92.32,18.15c-1.26,1.25-2.3,2.78-4.08,3.49H99.91a19.41,19.41,0,0,0,2.16-.1,10.5,10.5,0,0,0,5.76-2.43l10.25-8.75a2.67,2.67,0,0,0,.23-.26V10a1.17,1.17,0,0,0-.26.1,7.86,7.86,0,0,1-4.81,1.29c-1.8-.06-3.61-.27-5.41-.46a18.4,18.4,0,0,0-5.42.12,11.31,11.31,0,0,0-6.08,3.08C94.95,15.47,93.58,16.9,92.32,18.15Z"/><path class="cls-2" d="M150.26,29.73c-1.6-1.38-3.18-2.78-4.82-4.11a10.69,10.69,0,0,0-6.87-2.27H126.28a11.2,11.2,0,0,1,1.3.67,7.73,7.73,0,0,1,1.06,1c1.59,1.62,3.17,3.26,4.76,4.88a13.65,13.65,0,0,0,3.32,2.66,15.64,15.64,0,0,0,9.45,1.3,49.33,49.33,0,0,1,5.15-.39,7.44,7.44,0,0,1,4.33,1.24l.28.14.08-.17-.31-.29Z"/><path class="cls-2" d="M126.5,25.94a10.29,10.29,0,0,0-6.67-2.5H107.17A7,7,0,0,1,110,25.63c1.4,1.41,2.75,2.87,4.15,4.28a13.85,13.85,0,0,0,3.32,2.66,15.64,15.64,0,0,0,9.45,1.31,49.69,49.69,0,0,1,5.15-.4,7.4,7.4,0,0,1,4.33,1.23,2.09,2.09,0,0,0,.31.14v-.09a2,2,0,0,0-.2-.23Z"/><path class="cls-2" d="M107.79,26.25a11,11,0,0,0-7.29-2.89H88a.48.48,0,0,0-.23.1A4.24,4.24,0,0,1,90,24.85l5.56,5.67a11.14,11.14,0,0,0,4,2.65,16.85,16.85,0,0,0,8.09.71,43.8,43.8,0,0,1,5.11-.41,7.59,7.59,0,0,1,3.9.92c.27.14.53.31.79.46l.07-.18-.24-.25C114.14,31.7,110.93,29,107.79,26.25Z"/><path class="cls-2" d="M88.5,26.28a11.23,11.23,0,0,0-7.55-2.89H68.74v.07a4.86,4.86,0,0,1,2.4,1.65c1.62,1.68,3.22,3.35,4.84,5a12.46,12.46,0,0,0,3.68,2.73,16.21,16.21,0,0,0,8.85,1,43.79,43.79,0,0,1,5.11-.4A7.5,7.5,0,0,1,98,34.66l.3.16.07-.09a2.5,2.5,0,0,0-.23-.25C94.9,31.75,91.68,29,88.5,26.28Z"/></svg>