<svg id="Layer_1" data-name="Layer 1" xmlns="http://www.w3.org/2000/svg" viewBox="0 0 200.98 91.9"><defs><style>.cls-1{fill:#4e6e16;}.cls-2{fill:#b10c35;}.cls-3{fill:#ddeb4e;}.cls-4{fill:#a3ba37;}.cls-5{fill:#fefefe;}.cls-6{fill:#ed2723;}</style></defs><title>Applebee&amp;apos;s</title><path class="cls-1" d="M40.6,61.48a9.86,9.86,0,0,1,3.9-1.84,10,10,0,0,1,11.83,6.71,13.18,13.18,0,0,1-1.39,12.07,9.7,9.7,0,0,1-7.13,4.3A11.78,11.78,0,0,1,42.22,82a.56.56,0,0,1-.44-.52,3.24,3.24,0,0,1,0-1.41.76.76,0,0,1,.89-.6h.11a10.41,10.41,0,0,0,1.94.35,5.26,5.26,0,0,0,5.53-3.55,14.12,14.12,0,0,0,.15-10.19C49,62.2,45.1,61.66,42.09,63a2,2,0,0,0-1.37,2.14c.07,7.19,0,14.39,0,21.58v.66c.08,1,.26,1.13,1.21,1.2A1.34,1.34,0,0,1,43.34,90c.1,1.34.1,1.34-1.23,1.34H33.59c-.36,0-.49-.09-.44-.45a7.85,7.85,0,0,0,0-.82,1.32,1.32,0,0,1,1.13-1.49h.21c.83-.11,1-.31,1-1.14V82.88c0-.32-.11-.38-.4-.42C29.3,81.63,25.5,78.32,23.3,73c-.24-.58-.45-1.17-.65-1.77a.39.39,0,0,0-.43-.32H10a.35.35,0,0,0-.4.28C9.06,73,8.36,74.68,7.92,76.48a4.23,4.23,0,0,0-.11.75c0,.75.1.95.82,1.18a1.73,1.73,0,0,1,1.48,1.95v.05h0c0,.52.18,1.21-.08,1.53S9,82,8.51,82H1c-.4,0-.53-.1-.5-.51s0-1.09.06-1.63a1.37,1.37,0,0,1,1-1.23,3.71,3.71,0,0,0,2.2-1.92,32.46,32.46,0,0,0,2-5.15Q10,59.68,14.2,47.75a1.12,1.12,0,0,0,0-1,3.35,3.35,0,0,1-.12-.34A1.94,1.94,0,0,1,14.79,44Q16.15,43,17.6,42c.55-.34.87-.23,1.24.31a4.65,4.65,0,0,1,.51,1.11c3,8.48,6.06,17,9.19,25.41A32.68,32.68,0,0,0,31,74.41,7.71,7.71,0,0,0,35,78c.56.2.56.2.56-.39V63.67a.92.92,0,0,0-.76-.93c-1.17-.27-1.37-.56-1.37-1.76,0-1,0-1,1-1,1.9,0,3.81-.08,5.71-.15.36,0,.44.09.42.41S40.6,61,40.6,61.48ZM11.09,67.06H20.7c.57,0,.57,0,.38-.54L17.49,56.33c-.43-1.22-.85-2.45-1.32-3.82Z"/><path class="cls-1" d="M64.36,61.46a10.13,10.13,0,0,1,3.94-1.83A10,10,0,0,1,80,66.11a13.22,13.22,0,0,1-1.22,12.18,9.69,9.69,0,0,1-7.27,4.42A11.75,11.75,0,0,1,65.9,82a.58.58,0,0,1-.45-.58,6.15,6.15,0,0,1,0-1.12c.09-.66.49-1,1.14-.78a7.09,7.09,0,0,0,3.71.17A5.29,5.29,0,0,0,74.13,76a14.62,14.62,0,0,0,.09-9.73,5.3,5.3,0,0,0-4.43-3.85,6.7,6.7,0,0,0-5.08,1.3c-.23.17-.17.39-.17.6q0,8.83,0,17.65v5.31c0,1,.19,1.24,1.22,1.33A1.3,1.3,0,0,1,67.12,90c.09,1.36.09,1.36-1.25,1.36H57.49c-.41,0-.53-.12-.49-.51A6.27,6.27,0,0,0,57,90a1.28,1.28,0,0,1,1.17-1.38h.09c.89-.12,1.1-.35,1.1-1.26V64.12c0-.89-.19-1.09-1.07-1.31a1.23,1.23,0,0,1-1.07-1.37h0c0-.42-.14-1,.07-1.24s.83-.11,1.27-.12c1.78-.05,3.57-.08,5.35-.15.38,0,.47.1.44.45S64.36,61,64.36,61.46Z"/><path class="cls-1" d="M117,60.89a13.35,13.35,0,0,1,3.81-1.29,10.22,10.22,0,0,1,12.06,7.86,13.79,13.79,0,0,1-.8,9.31,10.45,10.45,0,0,1-13.22,5.37,12,12,0,0,1-2.7-1.3.41.41,0,0,0-.58,0h0c-.62.56-1.27,1.08-1.88,1.64s-1.13.18-1.7.25c-.1,0-.11-.1-.11-.19V54.38c-.06-1.2-.19-1.42-1.28-1.55a1.13,1.13,0,0,1-1-1.19c-.11-1.44-.11-1.45,1.3-1.5,1.9-.06,3.81-.09,5.71-.16.39,0,.48.09.47.47v9.74Zm0,10.2V78a.64.64,0,0,0,.23.62c2.7,2,7.71,2.27,9.42-2.53a14.48,14.48,0,0,0,.11-9.65,5.36,5.36,0,0,0-3.94-3.84,6.66,6.66,0,0,0-5.48,1.08.75.75,0,0,0-.36.71v6.79Z"/><path class="cls-1" d="M185.37,83.44a15.22,15.22,0,0,1-5.85-1.17,5.91,5.91,0,0,1-1.87-1.21,2.79,2.79,0,0,1-.67-3.3,3,3,0,0,1,3.21-1.35,3.29,3.29,0,0,1,1.46.68,1.8,1.8,0,0,1,.64,2c-.31,1.21,0,1.77,1.22,2a7,7,0,0,0,5-.6,3.12,3.12,0,0,0,.31-5.55,12.45,12.45,0,0,0-3.14-1.42,33.87,33.87,0,0,1-4.38-1.65A5.72,5.72,0,0,1,178,68.23a5.64,5.64,0,0,1,2-6.11,10.68,10.68,0,0,1,5.64-2.26,11.38,11.38,0,0,1,5.65.7,4.84,4.84,0,0,1,1.82,1.18,2.77,2.77,0,0,1,.57,3.06,2.83,2.83,0,0,1-2.78,1.34A4.18,4.18,0,0,1,190,66a2,2,0,0,1-1.55-2.36v-.1a1.09,1.09,0,0,0-1-1.41,5,5,0,0,0-4.16.83,2.65,2.65,0,0,0-.22,4.23,7.53,7.53,0,0,0,2.53,1.38c1.62.61,3.3,1,4.89,1.73a12.25,12.25,0,0,1,2.05,1.12c3.17,2.15,2.94,6.44.92,8.77a9.82,9.82,0,0,1-5.62,3.06A11.62,11.62,0,0,1,185.37,83.44Z"/><path class="cls-1" d="M146,82.86c-5.12,0-9.22-2.75-10.41-7.37-1.28-5-.35-9.49,3.59-13A10.13,10.13,0,0,1,146.95,60c4.18.29,6.4,2.73,7.41,6.34.36,1.29.36,1.29-.87,1.88a65,65,0,0,1-12.55,4.25c-.28.07-.53.11-.44.5.62,2.78,2,5,4.71,6.14a8.38,8.38,0,0,0,6.49-.15,1.68,1.68,0,0,1,2.37,1.22c.06.23-.09.3-.23.39a13.93,13.93,0,0,1-5.78,2.22C147.37,82.81,146.67,82.79,146,82.86Zm-5.94-13.11.51-.11a79.87,79.87,0,0,0,8.68-2.19c.23-.07.4-.14.32-.44a10.91,10.91,0,0,0-1.12-2.82,4.13,4.13,0,0,0-6.58-.5c-1.39,1.79-1.65,3.88-1.82,6.06Z"/><path class="cls-1" d="M101.23,82.86c-4-.12-7.37-1.65-9.44-5.46a11.2,11.2,0,0,1-1.23-5.95,12.62,12.62,0,0,1,2.07-6.76,10.48,10.48,0,0,1,8-4.76,8.36,8.36,0,0,1,6.6,1.87,9.13,9.13,0,0,1,2.62,4.68c.29,1.07.29,1.07-.71,1.54A64.31,64.31,0,0,1,96.4,72.36c-.44.11-.56.22-.44.69.66,2.72,2,4.9,4.71,6a8.45,8.45,0,0,0,6.58-.21,1.72,1.72,0,0,1,2.27,1.35c0,.23-.18.27-.31.35a13.81,13.81,0,0,1-5.09,2.08A19.22,19.22,0,0,1,101.23,82.86ZM95.58,69.1c0,.65,0,.66.61.53l2.33-.5c2.09-.48,4.16-1,6.2-1.68.15,0,.42,0,.32-.36a12.74,12.74,0,0,0-1-2.69,4.12,4.12,0,0,0-7.2,0,11.76,11.76,0,0,0-1.26,4.7Z"/><path class="cls-1" d="M155.49,72A12.61,12.61,0,0,1,158,64.14a10.45,10.45,0,0,1,9.36-4.26c4.61.28,6.59,3.13,7.51,6.55.29,1.09.29,1.09-.74,1.58a64.2,64.2,0,0,1-12.74,4.33c-.43.1-.51.24-.41.67.72,3,2.29,5.32,5.41,6.23a8.42,8.42,0,0,0,5.81-.43,1.71,1.71,0,0,1,2.33,1.31c0,.24-.17.28-.29.36a12.89,12.89,0,0,1-4.39,1.92,12.5,12.5,0,0,1-8.68-.75A9.81,9.81,0,0,1,155.65,74c0-.23-.08-.47-.1-.71A7.61,7.61,0,0,0,155.49,72Zm5-2.24,2-.41q3.64-.77,7.19-1.9c.14,0,.4,0,.31-.33a11.17,11.17,0,0,0-1.17-3,4.11,4.11,0,0,0-6.91,0,7.84,7.84,0,0,0-.61,1.22,12.09,12.09,0,0,0-.73,4.45Z"/><path class="cls-1" d="M88.37,64.16V77.48a6.71,6.71,0,0,0,.06.91c.16,1.12.48,1.46,1.59,1.65.83.15,1.07.41,1.08,1.26,0,.51.17,1.17-.08,1.48s-1,.1-1.46.11H80.89c-.37,0-.52-.08-.48-.47s0-.89,0-1.33a1,1,0,0,1,.95-1h.05c1.45-.25,1.85-.69,1.86-2.16V55.12a4,4,0,0,0-.08-.71A1.48,1.48,0,0,0,81.76,53c-1.16-.19-1.33-.38-1.32-1.56,0-.42-.18-1,.08-1.23s.81-.1,1.22-.11c2-.07,4.08-.1,6.12-.19.48,0,.54.13.54.56C88.36,55.05,88.37,59.6,88.37,64.16Z"/><path class="cls-2" d="M39.07,49.42c.74.33,1.38.85,2.11,1.19a12.15,12.15,0,0,0,6.55,1.07A26.82,26.82,0,0,0,53,50.4a6.28,6.28,0,0,1,3.43,0,12.49,12.49,0,0,0,4.92.27,8.59,8.59,0,0,0,4.17-2.3A29.29,29.29,0,0,0,70.85,42a25.71,25.71,0,0,0,3.52-9.75c.09-.54.07-1.07.2-1.65a24.48,24.48,0,0,1-1.62,10.08,29.42,29.42,0,0,1-5.54,9.59,8.83,8.83,0,0,1-8.6,3,16.4,16.4,0,0,0-7.18.65,11.59,11.59,0,0,1-7.56-.23A10.88,10.88,0,0,1,39.07,49.42Z"/><path class="cls-3" d="M54.9,12.5A9.81,9.81,0,0,1,59,4.32a11.5,11.5,0,0,1,5.38-2.13,8.48,8.48,0,0,0,2.13-.6A3.93,3.93,0,0,0,67.62.73a.5.5,0,0,1,.56-.16.47.47,0,0,1,.27.51,21.39,21.39,0,0,1-1.09,6,6,6,0,0,1-1-1q-.33-.31-.69-.6c-.24-.19-.22-.09-.35,0a28,28,0,0,1-4.83,4.26A18.34,18.34,0,0,1,54.9,12.5Z"/><path class="cls-4" d="M54.9,12.5a18.34,18.34,0,0,0,5.59-2.76,28,28,0,0,0,4.78-4.16c.13-.14.18-.18.35,0s.46.39.69.6a6,6,0,0,0,1,1A10,10,0,0,1,66.16,10,8,8,0,0,1,60,13.67a8.62,8.62,0,0,1-4.76-.89C55.13,12.69,55,12.66,54.9,12.5Z"/><path class="cls-1" d="M178.35,56.85a6,6,0,0,1-1.4,3.47c-.21.27-.43.52-.66.78-.45.49-.44.48-.9,0-.21-.21-.18-.33,0-.54a4.71,4.71,0,0,0,1.1-2.61c0-.26,0-.35-.32-.35a1.85,1.85,0,0,1-.81-3.54,2,2,0,0,1,2.38.57A3.52,3.52,0,0,1,178.35,56.85Z"/><path class="cls-1" d="M199.26,62.53c.17-.5.32-.87.41-1.26s.36-.29.6-.29.21.26.21.42V63c0,.18,0,.29-.25.3S200,63.14,200,63a4.16,4.16,0,0,0-.08-1.06L199.52,63a.25.25,0,0,1-.23.27h0c-.19,0-.25-.12-.31-.27a4.05,4.05,0,0,0-.41-1,3.48,3.48,0,0,0-.06.94c0,.15,0,.31-.21.32s-.25-.17-.25-.34V61.27c0-.14,0-.35.2-.32s.45-.13.56.19S199.07,62,199.26,62.53Z"/><path class="cls-1" d="M196.64,61c.42,0,.71.06.9.36.06.1.16.24.07.32a.36.36,0,0,1-.43,0c-.08-.05-.11-.18-.19-.22a.52.52,0,0,0-.49,0,.19.19,0,0,0-.11.21c0,.19.22.19.35.24s.43.11.63.2a.61.61,0,0,1,.22.95A1.14,1.14,0,0,1,196,63V63c-.07-.12-.21-.29,0-.39a.28.28,0,0,1,.39,0v.06c.12.28.35.28.6.26s.27-.06.3-.22-.09-.25-.22-.29l-.44-.13c-.37-.11-.74-.26-.65-.75A.69.69,0,0,1,196.64,61Z"/><path class="cls-2" d="M39.19,49.53l.08.11Z"/><path class="cls-2" d="M70.17,21.47a15.46,15.46,0,0,1,2.32,6.07,17.38,17.38,0,0,1,.29,3.58,20.35,20.35,0,0,1-2.69,9.43,16.76,16.76,0,0,1-3.33,4.22A10.08,10.08,0,0,1,62,47.42a10.28,10.28,0,0,1-4.51-.31,8.6,8.6,0,0,0-3.88-.36c-.84.17-1.66.35-2.5.51a26.59,26.59,0,0,1-3.86.44A12.41,12.41,0,0,1,42.31,47a9.76,9.76,0,0,1-4.83-4,22.89,22.89,0,0,1-2.59-5.8c-.07-.24-.12-.5-.17-.75a6.72,6.72,0,0,1,0-1,30.63,30.63,0,0,1,.52-7.84,17.14,17.14,0,0,1,2.25-6.24,7.06,7.06,0,0,1,4.73-3.26,10.27,10.27,0,0,1,4.43.24,44.53,44.53,0,0,1,5.13,1.93,14,14,0,0,0,5.59,1.18,22.26,22.26,0,0,0,4.55-.76,11.94,11.94,0,0,1,5.39-.25,20,20,0,0,1,2.8.94h0ZM46,22.26l-.4.07c-3.19.67-5.49,2.36-6.47,5.6A4.43,4.43,0,0,0,39,30.21a.45.45,0,0,0,.33.48c.24.05.36-.16.46-.33A5.86,5.86,0,0,0,40.34,29,11,11,0,0,1,43,24.55,12.59,12.59,0,0,1,46,22.26Z"/><path class="cls-5" d="M69.86,21.44l-.08-.08Z"/><path class="cls-5" d="M45.94,22.22a12.48,12.48,0,0,0-3.05,2.26,10.83,10.83,0,0,0-2.59,4.38,5.79,5.79,0,0,1-.54,1.37c-.11.17-.22.38-.46.33s-.28-.28-.33-.47a4.37,4.37,0,0,1,.16-2.26,7.8,7.8,0,0,1,6.41-5.54Z"/><path class="cls-4" d="M67.23,7.6A22.67,22.67,0,0,0,68.4,2c.07-.74.2-1.19-.2-1.41s-.95.53-.95.53a8.36,8.36,0,0,1-2.5,5.06L65.85,8l1.3-.45"/><path class="cls-6" d="M39.19,49.53c-4-3.43-5.8-8.11-7-13a32,32,0,0,1-.92-9.66,19.12,19.12,0,0,1,2.66-9.61,12.44,12.44,0,0,1,7.56-5.71,9.71,9.71,0,0,1,6.38.91c1.4.62,2.71,1.41,4.07,2.11a13.45,13.45,0,0,0,4.47,1.64,11.26,11.26,0,0,0,4.74-.47c5.09-1.6,9.25,1.26,11.22,5.15a20.35,20.35,0,0,1,2.22,9.58V31.9a12.69,12.69,0,0,1-.2,1.55,23.27,23.27,0,0,1-3.5,9.15,27.92,27.92,0,0,1-5.3,6,8.7,8.7,0,0,1-4.1,2.16,13.14,13.14,0,0,1-4.89-.25,6.6,6.6,0,0,0-3.41,0,28,28,0,0,1-5.24,1.2,12.73,12.73,0,0,1-6.51-1c-.73-.31-1.37-.81-2.1-1.12h0ZM69.78,21.36h0a7.16,7.16,0,0,0-4.57-2.89,10.24,10.24,0,0,0-4.64.3,13.26,13.26,0,0,1-6.94.13,33.32,33.32,0,0,1-5.07-2,11.33,11.33,0,0,0-4.46-1.13,8.56,8.56,0,0,0-7.52,3.52,14.85,14.85,0,0,0-2.41,5,21.21,21.21,0,0,0,0,10.14,5.07,5.07,0,0,0,.54,1.82c.06.25.1.5.17.74a22.63,22.63,0,0,0,2.58,5.73,9.67,9.67,0,0,0,4.79,3.94,12.33,12.33,0,0,0,4.87.74A26.41,26.41,0,0,0,51,47c.83-.15,1.66-.33,2.48-.5a8.54,8.54,0,0,1,3.85.36,10.21,10.21,0,0,0,4.47.31,10,10,0,0,0,4.8-2.61,16.59,16.59,0,0,0,3.3-4.18A20.1,20.1,0,0,0,72.49,31a17.16,17.16,0,0,0-.29-3.54,15.28,15.28,0,0,0-2.27-6Z"/></svg>