<svg id="Layer_1" data-name="Layer 1" xmlns="http://www.w3.org/2000/svg" viewBox="0 0 129.83 129.84"><defs><style>.cls-1{fill:#fff;}.cls-2{fill:#a90e14;}</style></defs><title>Associated Food Store</title><path class="cls-1" d="M27.27,4.92h75.28A22.32,22.32,0,0,1,124.91,27.2s0,.05,0,.08v97.64H27.27A22.32,22.32,0,0,1,4.91,102.64s0-.05,0-.08V27.28A22.32,22.32,0,0,1,27.19,4.92Z"/><path class="cls-2" d="M127.68,127.83H21.57a2.52,2.52,0,0,0-.76-.39,17.88,17.88,0,0,1-5.9-1.92,23.06,23.06,0,0,1-8.34-6.9A21.3,21.3,0,0,1,3,111.82c-.34-1.18-.62-2.37-.93-3.56V21.72a1.94,1.94,0,0,1,.12-.39A41.48,41.48,0,0,1,3.62,16.4a22.61,22.61,0,0,1,7-9.28A22.12,22.12,0,0,1,21.3,2.38,3.69,3.69,0,0,0,22.18,2h85.33a2.91,2.91,0,0,0,.77.37,21.88,21.88,0,0,1,9.68,4,23,23,0,0,1,7.71,9.44,20.07,20.07,0,0,1,2,8.21V126.26C127.68,126.81,127.68,127.32,127.68,127.83Zm-36.92-25.3h12.51c.91,0,1,0,1-.93,0-10.34.08-20.69.08-31,0-6.43-.09-12.86-.08-19.29,0-4.65-.21-9.26-1.69-13.72a20,20,0,0,0-3.15-6c-3.8-4.9-8.93-7.76-14.81-9.37a50.08,50.08,0,0,0-12.78-1.54c-5.3-.06-10.61.07-15.91.23a50.47,50.47,0,0,0-6.31.64,33,33,0,0,0-12.36,4.37,21.12,21.12,0,0,0-9.35,12.15,31.19,31.19,0,0,0-1.36,9.57c0,1,0,1,1,1H52.32c.61,0,1-.18,1.08-.81a12,12,0,0,1,.53-1.8A8.81,8.81,0,0,1,59,40.68a15.78,15.78,0,0,1,8.31-.83,7.56,7.56,0,0,1,5.48,3.59,12,12,0,0,1,1.62,6.41c0,.44-.27.54-.63.58-.83.09-1.67.16-2.5.27-3,.38-6.05.73-9.07,1.16s-6,.85-9,1.43c-2.76.54-5.48,1.28-8.21,1.94A37.5,37.5,0,0,0,35.23,59,24.55,24.55,0,0,0,24.31,70.49a21.63,21.63,0,0,0-1.89,8.72,29.46,29.46,0,0,0,.71,6.15,21.25,21.25,0,0,0,5.39,10.09A25.6,25.6,0,0,0,38.24,102a31,31,0,0,0,8,1.94,43.8,43.8,0,0,0,7.93.06,31.63,31.63,0,0,0,10.38-2.48A22.16,22.16,0,0,0,72.2,96a5.21,5.21,0,0,0,1.05-1.53c.5-1.3.85-2.65,1.3-4,.31-.91.26-1-.66-1H48.59c-1.44,0-2.88-.09-4.32-.13A1.65,1.65,0,0,1,42.64,88c-.48-1.65-.9-3.32-1.31-5q-1-3.93-1.91-7.86c-.38-1.58-.79-3.16-1.08-4.76a1.52,1.52,0,0,1,1.6-2c2.95-.16,5.9-.29,8.85-.42l10.11-.42L69,67.13c3.91-.15,7.81-.3,11.72-.42,1.09,0,2-.15,2.23-1.5a5,5,0,0,1,.36-.9c.5-1.4,1.16-2.66,2.81-3l1.17-.2,5.71-1a1.68,1.68,0,0,1,1.91.81,1.19,1.19,0,0,1-.32,1.58,4.67,4.67,0,0,1-1.73.63c-1.64.31-3.3.56-5,.8A2,2,0,0,0,86.2,65.5c-.35,1.13-.68,2.27-1,3.39-.9,2.79-1.82,5.56-2.71,8.35S80.7,83,79.78,85.88s-1.84,5.7-2.74,8.56a5.21,5.21,0,0,0-.4,1.89c.16,1.85.45,3.69.69,5.54.06.46.27.67.79.66H90.76ZM71,111.7a4.77,4.77,0,0,0,9.53-.1h0a4.77,4.77,0,0,0-9.53-.33Q71,111.49,71,111.7Zm-22.32-4.46a4.6,4.6,0,0,0,0,9.2h0a4.48,4.48,0,0,0,4.56-4.4h0v-.18a4.54,4.54,0,0,0-4.47-4.61h-.09Z"/><path class="cls-2" d="M129.33,129.34H22.82A22.39,22.39,0,0,1,.5,107V22.83A22.39,22.39,0,0,1,22.82.5H107a22.39,22.39,0,0,1,22.32,22.32ZM12,82.25l6,31.67,39.33,7.67,38.33-2,17-10.33,3.33-59-8.32-38.34H22.78Z"/></svg>