<svg id="Layer_1" data-name="Layer 1" xmlns="http://www.w3.org/2000/svg" viewBox="0 0 226.03 115.84"><defs><style>.cls-1{fill:#fab700;}.cls-2{fill:#fff;}.cls-3{fill:#0056a3;}.cls-4{fill:#e38e00;}</style></defs><title>Auntie Anne&amp;apos;s</title><path class="cls-1" d="M209,115.33a16.34,16.34,0,0,0,6.43-1.13,9,9,0,0,0,3.6-2.83,9.81,9.81,0,0,0,1.84-5.65,9,9,0,0,0-.78-3.67,5.61,5.61,0,0,0,5.44-5.58A5.55,5.55,0,0,0,220,90.89h-.06a5.27,5.27,0,0,0-2.68.71,12.84,12.84,0,0,0-4-1.27A23.85,23.85,0,0,0,210,90a15.9,15.9,0,0,0-3.25.28,8.28,8.28,0,0,0-.64-1.7,7.42,7.42,0,0,0-1.41-1.91,6.3,6.3,0,0,0-4.24-1.7,7,7,0,0,0-2.47.42,5.74,5.74,0,0,0-2,1.34,6.27,6.27,0,0,0-1.48,4.1,15.93,15.93,0,0,0-5.53-.94c-4,0-6.92,1.06-9.18,3.25-.21.21-.35.42-.57.64a7.14,7.14,0,0,0-2.61-2.61,9.2,9.2,0,0,0-4.95-1.27,10.23,10.23,0,0,0-3.32.57,3.45,3.45,0,0,0-2.54-.64S156.08,91,155.3,91.15A7.33,7.33,0,0,0,152.69,90a9.08,9.08,0,0,0-3.39-.21,11.53,11.53,0,0,0-3.25.78,4.18,4.18,0,0,0-3-.57l-9.61,1.27c-.49.07-.64,0-.71-.07a1.75,1.75,0,0,1-.49-.64L131,88.34a5.45,5.45,0,0,0-1.2-1.91,3.26,3.26,0,0,0-2.33-.85h-6c-1.77-.07-3.11,1.13-3.74,3.25,0,0-1.55,4.52-2.61,7.63l-.21-.42a11.17,11.17,0,0,0-2.19-2.9,9.2,9.2,0,0,0-4.17-2.33,17.49,17.49,0,0,0-5.3-.71,16.17,16.17,0,0,0-8.05,1.84,9,9,0,0,0,.07-1.41v-.71a6.17,6.17,0,0,0-2.33-4.45,8.89,8.89,0,0,0-5.3-1.55,7.74,7.74,0,0,0-3.6.85,5.63,5.63,0,0,0-2.26,2.19,2.71,2.71,0,0,0-1.55-.49H75.66A4.08,4.08,0,0,0,73,87.5s-3,2.4-3.81,3.11a9.71,9.71,0,0,0-2.76-.92,13.68,13.68,0,0,0-4.17,0,11.66,11.66,0,0,0-3.25.85c-.57-.64-1.55-1.13-3.39-.85,0,0-7.49,1.13-8.48,1.34-.07-.07-.14-.21-.28-.28A2.6,2.6,0,0,0,44.72,90l-8.19.85L36,90.4a3.63,3.63,0,0,0-2.4-.35c-1.7.21-9.89,1.06-10,1.06a1,1,0,0,1-.49,0,.25.25,0,0,1-.07-.14l-.71-2.26L22,87.63a2.72,2.72,0,0,0-1.48-1.7,4.36,4.36,0,0,0-1.77-.35h-6a3.94,3.94,0,0,0-2.12.57,2.75,2.75,0,0,0-1.13,1.63C6.15,98,5.87,99,5.8,99.08V99c-.85,2.61-1.55,4.52-2.12,5.93,0,0-.14.42-.28.78l-1.2.07a2,2,0,0,0-1.27.57,1.79,1.79,0,0,0-.42,1.2v5.51a1.71,1.71,0,0,0,.42,1.27,2.08,2.08,0,0,0,1.62.57h100.6a14.94,14.94,0,0,0,6.5-1.06,1.27,1.27,0,0,0,.35.49,2.15,2.15,0,0,0,1.48.57h77.14c4.87.14,7.91-.57,9.89-2.33a9.66,9.66,0,0,0,4.73,2.33,28,28,0,0,0,5.72.42"/><path class="cls-2" d="M209,114.34c10,0,10.88-6.64,10.88-8.62a8.12,8.12,0,0,0-1.34-4.52l-.07-.07v-.28a4.68,4.68,0,1,0,1.48-9.11,4.5,4.5,0,0,0-2.68.85c-2.54-1.62-6.15-1.7-7.28-1.7a15.57,15.57,0,0,0-3.74.42l-.28.07-.07-.28A5.56,5.56,0,0,0,200.46,86c-3,0-5.37,1.84-5,5.79v.64l-.42-.21a13,13,0,0,0-6-1.2c-3.67,0-6.43,1-8.48,3a7.1,7.1,0,0,0-1.13,1.34l-.28.42-.21-.49c-1.13-2.76-3.67-4.31-7.14-4.31a8.68,8.68,0,0,0-3.32.64l-.21.07-.14-.14a2.63,2.63,0,0,0-2-.64l-10.88,1.27-.07-.07a7.79,7.79,0,0,0-5.51-1.34,12.56,12.56,0,0,0-3.39.85l-.14.07-.14-.14a3.06,3.06,0,0,0-2.61-.57l-9.61,1.27a1.77,1.77,0,0,1-2.12-1.2l-1.13-2.33c-.64-1.34-1.13-2.26-2.68-2.19h-6c-1.41-.07-2.33,1-2.76,2.61l-3.67,10.6a8.77,8.77,0,0,0-3-5.93c-1.91-1.91-5.16-2.76-8.76-2.76-4.17,0-7.84,1.2-9.61,3.46a13.1,13.1,0,0,0,.71-4.59C94.48,86.75,92,84.84,88,84.84c-2,0-4.59.92-5.37,3.46l-.21.64-.35-.71a1.57,1.57,0,0,0-1.48-.92H75.95a2.87,2.87,0,0,0-2,.92l-4.38,3.53-.21-.14c-1.41-1-3.67-1.34-6.71-1a14,14,0,0,0-3.46.92l-.21.07-.14-.21c-.28-.49-.92-1.2-2.76-.85L47,91.94a2.05,2.05,0,0,0-1.91-1.13l-8.69.92h-.21l-.07-.21c0-.07-.35-.92-2.12-.64L24,91.94a2.77,2.77,0,0,1-1.06-.07,1,1,0,0,1-.57-.71l-.68-2.22-.35-1.06A2.25,2.25,0,0,0,19,86.43H12.93a2.11,2.11,0,0,0-2.33,1.51L6.93,99.24c-.85,2.61-1.55,4.52-2.12,5.93l-.49,1.34-1.77.14a.69.69,0,0,0-.64.28c-.14.14-.14.35-.21.57v5.44a1.16,1.16,0,0,0,.14.71c.14.21.57.21.92.21h100.6c2.83,0,5.09-.21,6.85-1.41l.42-.28v.57a2,2,0,0,0,.21.92,1.19,1.19,0,0,0,.85.28h77.14c5,.14,7.91-.64,9.68-2.54l.21-.21.21.21c3.11,2.9,6.71,2.9,10,2.9"/><path class="cls-3" d="M177,107.7V98.87c0-3.25-1.7-5.37-5.3-5.37-2.33,0-3.53,1.06-5.51,2.33l-.42-2.33-8.05.92v1.41l.92.14c.57.07.71.49.71,1.41v10.31c0,1.63-.14,1.77-1.7,1.91V111h10V109.6c-1.06-.14-1.41-.35-1.41-1.27V99.85c0-2.4.85-3.18,1.91-3.18s1.77.78,1.77,3v8.69c0,.92-.35,1.13-1.41,1.27V111H178.8v-1.41c-1.62-.14-1.77-.21-1.77-2m23.38-19.14A2.35,2.35,0,0,0,197.87,91c0,1.55,1.27,2.26,1.27,3.6a4.4,4.4,0,0,1-1.27,3.18l1.06,1.13a16.34,16.34,0,0,0,2.83-2.61,6.23,6.23,0,0,0,1.55-4.1c.07-2.12-1.13-3.67-2.9-3.67M25,107.94c-.57-1.55-1.48-4.59-2.54-8l-3.39-11H13.5l-3.6,11c-1.13,3.39-2.12,6.43-2.76,8.05-.42,1.2-.71,1.34-2.4,1.48v1.41h7.91v-1.41l-1.84-.14c-.71-.07-.92-.42-.64-1.34l1.2-4.1h5.09l1.13,4c.28.92.21,1.48-.57,1.55l-1.41.07v1.41h11.8v-1.41c-1.77-.21-1.91-.28-2.4-1.62m-13.07-6,2.06-7h.21l1.79,7H11.9Zm76-9c2.19,0,3.46-1.27,3.46-3s-1.34-3-3.46-3-3.46,1.27-3.46,3,1.34,3,3.46,3m-7.06,15.68c-1.41,0-2.26-1-2.26-3.39V96H81.8V93.85H78.63v-4H76l-4.1,4H70V96h1.7v10.81c0,3.32,2.47,4.52,5.51,4.52A9.25,9.25,0,0,0,82,109.94l-.42-1.41a2.65,2.65,0,0,1-.71.07m-35.68-.92V93.78l-.35-.28-8.27.92v1.41l.92.14c.57.07.71.49.71,1.41v6.78c0,3.32-1.06,4.1-2,4.1s-1.55-.92-1.55-2.9V93.78l-.35-.28L26,94.42v1.41l.92.14c.57.07.71.49.71,1.41v8.69c0,4,2.12,5.37,5.58,5.37,2.54,0,5-2.33,5.58-2.76l.28,2.4H47v-1.41c-1.62-.14-1.77-.21-1.77-2m46.2,0V93.78l-.35-.28-8.27.92v1.41l.92.14c.57.07.71.49.71,1.41v10.31c0,1.77-.21,1.84-1.91,1.91V111H93.34V109.6c-1.7-.07-1.91-.14-1.91-1.91m63.37,0V98.86c0-3.25-1.7-5.37-5.3-5.37-2.33,0-3.53,1.06-5.51,2.33l-.42-2.33-8.05.92v1.41l.92.14c.57.07.71.49.71,1.41v10.31c0,1.34-.28,1.84-1.41,1.84a2,2,0,0,1-2.12-1.62c-.57-1.55-1.48-4.59-2.54-8l-3.39-11h-5.58l-3.6,11c-1.13,3.39-2.12,6.43-2.76,8.05-.42,1.2-.71,1.34-2.4,1.48v1.51h7.91v-1.41l-1.84-.14c-.71-.07-.92-.42-.64-1.34l1.22-4.11h5l1.13,4c.28.92.21,1.48-.57,1.55l-1.48.14V111h21.26v-1.41c-1.06-.14-1.41-.35-1.41-1.27V99.88c0-2.4.85-3.18,1.91-3.18s1.77.78,1.77,3v8.69c0,.92-.35,1.13-1.41,1.27v1.41h10v-1.41c-1.34-.14-1.48-.28-1.48-2m-34.2-5.72,2-7.06h.21l1.84,7.06Zm81.73,2.33h1.55c1.27,2.61,3,5.16,5.3,5.16A1.72,1.72,0,0,0,211,107.9v-.06c0-1.48-1.48-2.33-3.6-3.11-1.7-.64-5.23-2-5.23-5.44,0-3.81,2.83-5.72,7.7-5.72,1.7,0,4.31.28,5.86,1.34v4.73h-1.48c-1.06-2.83-2.83-4.24-4.24-4.24a1.64,1.64,0,0,0-1.83,1.43s0,.08,0,.12c0,1.2,1,1.7,3.81,2.9,3.11,1.27,5.09,2.76,5.09,5.86,0,4-3.18,5.65-8.12,5.65-1.7,0-4.73-.21-6.36-1.48l-.35-5.58ZM56.59,93.5,57,95.83c2-1.27,3.18-2.33,5.51-2.33,3.6,0,5.3,2.12,5.3,5.37v8.83c0,1.77.21,1.84,1.91,1.91V111H59.49v-1.41c1.06-.14,1.41-.35,1.41-1.27v-8.7c0-2.26-.85-3-1.77-3s-1.91.85-1.91,3.18v8.48c0,.92.35,1.13,1.41,1.27v1.37H48.4v-1.41c1.7-.07,1.91-.14,1.91-1.91V97.38c0-.92-.21-1.27-.71-1.41l-.92-.14V94.42Zm130.62,9c0,3.53,1.2,5.93,4,5.93,1.91,0,3.32-1,4.31-3.11l1.48.92c-1.27,4.1-4.38,5-8,5-2.83,0-5.16-.71-6.64-2.19a9,9,0,0,1-2.4-6.64,9.33,9.33,0,0,1,2.4-6.78c1.55-1.48,3.67-2.26,6.71-2.26,8.34,0,8.34,6,8.34,7.28a1.63,1.63,0,0,1-1.48,1.76h-8.77v.07Zm2.47-2c.64,0,.92-.35.92-1,0-1.13-.07-4.1-1.55-4.1s-1.77,2.19-1.77,5.16h2.4Zm-88,2c0,3.53,1.2,5.93,4,5.93,1.91,0,3.32-1,4.31-3.11l1.48.92c-1.27,4.1-4.38,5-8,5-2.83,0-5.16-.71-6.64-2.19a9,9,0,0,1-2.4-6.64,9.33,9.33,0,0,1,2.4-6.78c1.55-1.48,3.67-2.26,6.71-2.26,8.34,0,8.34,6,8.34,7.28a1.63,1.63,0,0,1-1.48,1.76h-8.76v.07Zm2.47-2c.64,0,.92-.35.92-1,0-1.13-.07-4.1-1.55-4.1s-1.77,2.19-1.77,5.16h2.4v-.07Z"/><path class="cls-1" d="M44,94.77c-1.06.14-3.32.35-5.3.57.14.14.21.28.35.42,1.7-.21,3.46-.35,4.38-.49v12.67a4.36,4.36,0,0,0,.35,1.77h.71a4,4,0,0,1-.42-2.12V94.77Zm-22.17,7.17-.49-1.63-3.18-10.1H14.28c-.07.07-.07.28-.14.49h3.53c.78,2.54,3.18,10.17,3.18,10.17l.49,1.62c.85,2.68,1.55,5,2,6.36a2.82,2.82,0,0,0,.49.92h.85a4.11,4.11,0,0,1-.78-1.48c-.57-1.34-1.27-3.67-2.12-6.36m11.66,3.39V94.72c-1.06.14-3.32.35-5.3.57.14.14.21.28.35.42,1.7-.21,3.46-.35,4.38-.49V105.6c0,2.4,1.27,3.67,2.26,4a2.87,2.87,0,0,0,.64-.35c-1.2-.14-2.33-1.27-2.33-4M75.9,91.47h.92v14c0,2.61,1.2,4,2.26,4.52a4,4,0,0,0,.85-.28c-1.13-.28-2.47-1.27-2.47-4.38V91h-1l-.56.57ZM214.9,97V95.35a8.1,8.1,0,0,0-2-.57,4.22,4.22,0,0,1,2,2.19M89.72,90.4a1.51,1.51,0,0,1-.21.85,1.55,1.55,0,0,0,.78-1.41c0-1.13-.92-1.77-2.33-1.77a2.42,2.42,0,0,0-2.12.92,3.37,3.37,0,0,1,1.55-.35c1.48,0,2.33.49,2.33,1.77m110.91,5.53a1.24,1.24,0,0,0,.28-.35,5.43,5.43,0,0,0,1.34-3.39c0-1.41-.78-2.47-1.77-2.47a1.32,1.32,0,0,0-1.27.71,2.09,2.09,0,0,1,.71-.14c1.06,0,1.77,1.06,1.77,2.47A5.69,5.69,0,0,1,200.63,95.94ZM90.28,94.74c-1.06.14-3.32.35-5.3.57.14.14.21.28.35.42,1.7-.21,3.39-.35,4.31-.42v12.63a3.44,3.44,0,0,0,.42,1.77h.71a3.8,3.8,0,0,1-.42-2.12V94.77h-.07Zm121.44,6.2c-2.61-1.13-4.59-1.91-4.59-4a2.9,2.9,0,0,1,.49-1.55,2.58,2.58,0,0,0-1.06,2c0,2,1.91,2.9,4.59,4,3.25,1.34,4.38,2.54,4.38,4.8a4,4,0,0,1-.85,2.54,3.69,3.69,0,0,0,1.34-3.11c.07-2.19-1.06-3.39-4.31-4.73m-8.12,6.29c.07.49.14,1.62.21,2a5.87,5.87,0,0,0,2.4.92,6.26,6.26,0,0,1-2.61-2.9m-136.91-8c0-2.9-1.34-4.52-4.1-4.52a5,5,0,0,0-2.9.85l.35.07a5.85,5.85,0,0,1,2.12-.49c2.47,0,4,1.06,4,4.24v8.48a4.37,4.37,0,0,0,.35,1.91h.71a4,4,0,0,1-.42-2.12V99.21h-.11Zm-11-4.45-5,.57c.14.14.21.28.35.42,1.55-.14,4-.42,4-.42a31,31,0,0,1,.28,4.95v8.05a3.06,3.06,0,0,0,.28,1.34h.78a2.32,2.32,0,0,1-.42-1.48V99.7a24.62,24.62,0,0,0-.35-4.94m97.91,4.45c0-2.9-1.34-4.52-4.1-4.52a5,5,0,0,0-2.9.85l.35.07a5.85,5.85,0,0,1,2.12-.49c2.47,0,4,1.06,4,4.24v8.48a4.37,4.37,0,0,0,.35,1.91h.71a4,4,0,0,1-.42-2.12V99.22h-.11Zm-11-4.45-4.95.57c.14.14.21.28.35.42,1.55-.14,4-.42,4-.42a31,31,0,0,1,.28,4.95v8.05a3.37,3.37,0,0,0,.28,1.41h.78a2.32,2.32,0,0,1-.42-1.48V99.78a20.5,20.5,0,0,0-.35-5m33.27,4.45c0-2.9-1.34-4.52-4.1-4.52a5,5,0,0,0-2.9.85l.35.07a5.85,5.85,0,0,1,2.12-.49c2.47,0,4,1.06,4,4.24v8.48a4.37,4.37,0,0,0,.35,1.91h.71a4,4,0,0,1-.42-2.12V99.24h-.11Zm-11-4.45-4.95.57c.14.14.21.28.35.42,1.55-.14,4-.42,4-.42a31,31,0,0,1,.28,4.95v8.05a3.37,3.37,0,0,0,.28,1.41h.78a2.32,2.32,0,0,1-.42-1.48V99.8a20.51,20.51,0,0,0-.35-5m25.64,0a2.2,2.2,0,0,1,.49.64,5,5,0,0,1,3.18,1.48,6,6,0,0,1,1.41,4.38v.07h.07c.28,0,.49-.07.49-.57a5.84,5.84,0,0,0-1.48-4.31,6.69,6.69,0,0,0-4.17-1.7m3,14.41a5.64,5.64,0,0,1-2.33.42c-1.55,0-5.09-1-5.09-7.49,0-2.61,0-5.37,1-6.85h-.07c-1.41,1.27-1.55,3.6-1.55,6.92,0,5.93,3,7.63,4.66,7.84a4.09,4.09,0,0,0,3.39-.85ZM105,94.77a2.2,2.2,0,0,1,.49.64,5.38,5.38,0,0,1,3.25,1.48,6,6,0,0,1,1.41,4.38v.07h.07c.28,0,.49-.07.49-.57a5.84,5.84,0,0,0-1.48-4.31,7.09,7.09,0,0,0-4.24-1.7m3,14.41a5.64,5.64,0,0,1-2.33.42c-1.55,0-5.09-1-5.09-7.49,0-2.61,0-5.37,1-6.85h-.07c-1.41,1.27-1.55,3.6-1.55,6.92,0,5.93,3,7.63,4.66,7.84a4,4,0,0,0,3.39-.85Zm22.49-7.23-.49-1.55-3.18-10.1h-3.89a3.21,3.21,0,0,0-.14.57h3.53c.78,2.54,3.18,10.1,3.18,10.1l.49,1.55c.85,2.76,1.55,5.09,2,6.43a3.8,3.8,0,0,0,.49.92h.85a4.1,4.1,0,0,1-.78-1.48c-.56-1.34-1.27-3.67-2.12-6.43"/><path class="cls-3" d="M219.92,94.2a2.26,2.26,0,1,1-2.26,2.26h0a2.23,2.23,0,0,1,2.2-2.26h.06m0,3.89a1.64,1.64,0,0,0,1.62-1.63A1.6,1.6,0,0,0,220,94.84h0a1.64,1.64,0,0,0-1.63,1.62,1.6,1.6,0,0,0,1.57,1.63h.06m-1-2.9h1c.64,0,1,.28,1,.78a.7.7,0,0,1-.57.71l.64,1h-.64l-.57-1h-.21v1H219V95.21h-.07Zm.57,1.06h.42c.21,0,.42-.07.42-.35s-.28-.28-.49-.28h-.35v.64Z"/><path class="cls-1" d="M100.81,1.85c-8.24,2.28-9.21,7.48-9.21,9.76a9.86,9.86,0,0,0,.87,4,16.78,16.78,0,0,0-5.2,4c-3.58,4.12-5.64,10.4-5.64,17.67l.11,2.49c.54,9.65,1.41,15.82,4,20.38a9.55,9.55,0,0,0-.33,2.28,15.77,15.77,0,0,0,.43,3.36c.87,2.93,4.34,8.56,11.06,8.78a11.78,11.78,0,0,0,6.61-1.63,43.3,43.3,0,0,0,17.13.11,12.34,12.34,0,0,0,8.67,2.17,11.76,11.76,0,0,0,10.41-9.86,9.32,9.32,0,0,0,.11-1.73,13.52,13.52,0,0,0-.54-3.47,30.82,30.82,0,0,0,3.25-8.89,84.58,84.58,0,0,0,1.73-13.55s.11-2.6.11-3.47c0-7-1.73-12.25-5.42-16a16.55,16.55,0,0,0-5-3.31,9.39,9.39,0,0,0,.65-3.47c0-2.17-.87-7.48-9.21-9.76A50,50,0,0,0,113.3.52a48.74,48.74,0,0,0-12.46,1.3"/><path class="cls-2" d="M101.13,3.15C94,5.15,93,9.22,93,11.5A7.58,7.58,0,0,0,94.41,16a14,14,0,0,0-6.07,4.34c-3.47,4-5.31,10-5.31,16.91l.11,2.38c.54,9.86,1.41,15.82,4.12,20.16a10,10,0,0,0-.43,2.49,8.7,8.7,0,0,0,.43,2.93c.76,2.6,3.79,7.59,9.86,7.8a11.4,11.4,0,0,0,6.39-1.73,41.61,41.61,0,0,0,17.56.11,11.18,11.18,0,0,0,8.24,2.28A10.52,10.52,0,0,0,138.52,65a6.66,6.66,0,0,0,.11-1.52,10.41,10.41,0,0,0-.63-3.59,30.52,30.52,0,0,0,3.47-9,92.38,92.38,0,0,0,1.63-13.22c0-.11.11-2.6.11-3.47,0-6.72-1.63-11.6-5-15.07a15.57,15.57,0,0,0-5.85-3.47,7.63,7.63,0,0,0,1.19-4.12c0-2.28-1.08-6.5-8.13-8.35A46.66,46.66,0,0,0,113.28,2a47.78,47.78,0,0,0-12.14,1.08"/><path class="cls-3" d="M134.62,22.66c-2.06-2.17-5.2-3.14-9.21-3a22.54,22.54,0,0,0-11.81,3.9,1.46,1.46,0,0,1-1.84,0c-1.63-1.52-5.31-3.69-10.95-3.69a11.43,11.43,0,0,0-8.56,3.47C89,26.7,87.59,32.55,87.91,39.27c.65,10.62,1.52,15.82,4.12,18.86A1.66,1.66,0,0,1,92.25,60L92,60.3a5.07,5.07,0,0,0-.22,3.58,6,6,0,0,0,5.31,4.23,5.87,5.87,0,0,0,4.55-1.73,1.58,1.58,0,0,1,1.63-.22c4.66,1.63,12.79,1.63,18.21.11a1.46,1.46,0,0,1,1.41.33,6.07,6.07,0,0,0,5.74,2.17,5.44,5.44,0,0,0,4.88-4.66,6.67,6.67,0,0,0-.54-3.36,2.13,2.13,0,0,1,.11-2.49c1.84-2.71,2.49-4.66,3.47-8.67a79.67,79.67,0,0,0,1.52-12.36v-.87c.43-6.29-.76-10.84-3.47-13.66"/><path class="cls-3" d="M105.47,33.5a10.38,10.38,0,0,0-1.73,6.18,16.2,16.2,0,0,0,1.63,7.26.83.83,0,0,1-.11,1.08c-.22.22-1.52,1.41-3,2.82l-.87.76a1.13,1.13,0,0,1-.87.43c-.33,0-.54-.22-.87-.54-1-1.3-2.17-4-2.6-9.75-.43-6,1.52-10.08,3.69-11.06a3.94,3.94,0,0,1,4.55,1.08,1.42,1.42,0,0,1,.22,1.73"/><path class="cls-3" d="M114.57,57.46a.35.35,0,0,1-.33.32,13.87,13.87,0,0,1-3.69,0c-.33,0-.43-.22-.43-.32a.45.45,0,0,1,.22-.54l1.41-1.41a.83.83,0,0,1,.54-.22,1.54,1.54,0,0,1,.65.22l1.41,1.41.11.11c.11.11.22.33.11.43"/><path class="cls-3" d="M125.3,51.71a.82.82,0,0,1-.76.43,2,2,0,0,1-1-.43c-.22-.22-3.79-3.25-4-3.47a1,1,0,0,1,.11-1.19A16,16,0,0,0,122,39a13.93,13.93,0,0,0-1.19-5.85l-.11-.33a.91.91,0,0,1,.11-1.08,3.81,3.81,0,0,1,3.9-1.41c1.84.43,3.79,4,3.79,10.84-.11,4.44-1.08,7.91-3.25,10.51"/><path class="cls-1" d="M115.22,24.18c.65-.76,3.79-1.84,4.44-2.06a18,18,0,0,1,5.86-1.18c8.35-.22,12.46,5.2,11.27,17.78-.43,2.28-.33,6.39-.76,7.48A11.9,11.9,0,0,0,134.84,50c-.22,1.52-.33,2.38-1.3,3.14a5.89,5.89,0,0,0-1.84,2.06c-.76,1.63-3,1.41-3.9.43a2.84,2.84,0,0,1-.33-3.79,17.83,17.83,0,0,0,2.71-8.67c.11-1.08.43-2.6.43-3.47,0-1.08-.43-2-.32-2.82a23.57,23.57,0,0,0,.11-2.71c-.22-1.3-1.19-2.06-1.84-2.93s-.43-2-1.73-2.82c-1.52-.76-2.93,0-4.55.76a3.58,3.58,0,0,1-3.69-.22,1.38,1.38,0,0,0-.76-.43.41.41,0,0,0-.33.65c2.38,3.14,3.79,5.64,3.79,9,0,2.17-.76,4.88-2,5.85a2.84,2.84,0,0,1-3.58-.76,9.44,9.44,0,0,1-.76-1.08.53.53,0,0,0-.65-.32c-.22.11-.22.43-.22.65a7.1,7.1,0,0,0,1.41,3.36c1.41,2,8.89,7.91,11.16,10.41,1.73,2,3.79,3.47,4.23,6.61.22,1.73-.54,3.47-2.49,3.69a3.38,3.38,0,0,1-3.47-1.73,13.25,13.25,0,0,0-3.25-3.47A12.66,12.66,0,0,1,119,58.89c-2.28-2.28-5.53-4.66-8.24-7.91-1.41-1.63-5.2-5.64-5.2-11.6,0-4.55,2.49-6.29,3.58-6a2.59,2.59,0,0,1,1.19,1.08,4.71,4.71,0,0,1,.43.76c.22.65.65.33.65.11a2.62,2.62,0,0,0-.22-1.73,7,7,0,0,0-4.23-4c-1.63-.65-2.38,0-4.23-.43-2.82-.65-4.23.11-5,1.3a9.44,9.44,0,0,0-1,4A32.29,32.29,0,0,1,96,38.16a19.94,19.94,0,0,0-.65,3.14c-.11,1.19.65,3.36.76,4.34.22,1.41,0,2.82.43,4.12.76,1.84,1.08,2.17,2.06,2.71A.92.92,0,0,1,99,53.94c-.76.76-2.6,2.49-3.36,3.25a1.14,1.14,0,0,1-1.41.11A5.51,5.51,0,0,1,93,56.11C91.2,53.94,90.11,49,89.57,39.53c-.65-7.59,1.84-18,11.27-18.32a15.66,15.66,0,0,1,12.68,5.2c.33.33.65.54,1,.43s.33-.43.22-.87a1.71,1.71,0,0,1,.54-1.84"/><path class="cls-1" d="M116.41,59.08c.54.54,3.9,4.12,4.23,4.55a1,1,0,0,1-.29,1.38l0,0a6.93,6.93,0,0,1-3.25.43c-1.3-.11-3-.87-4-.87s-2.38.43-3.58.11c-1.73-.33-3.79-3-.54-5.64a1,1,0,0,1,1-.22,15.78,15.78,0,0,0,5.53,0,.86.86,0,0,1,1,.22m-7-7.7c-.32-.32-1.52-1.73-1.84-2.17a1.32,1.32,0,0,0-1.73,0c-2.17,1.84-7.48,6.94-8.78,8.45-1.08,1.3-2.82,3.14-2.49,5.2a3.1,3.1,0,0,0,2.71,2.6,3,3,0,0,0,2.6-1.3,6.62,6.62,0,0,1,2.49-2.38,4.5,4.5,0,0,0,2.49-2.6c.54-1,1.63-3.14,3.14-3.79s2.6-2.82,1.41-4m3.9-35.12c8.35,0,15.28-.76,15.28-4.77a3,3,0,0,0-1.84-2.6h-.11c-2.7-1.4-7.7-2.05-13.43-2.05s-10.84.65-13.44,2.06A3,3,0,0,0,98,11.5c0,4.12,7.37,4.77,15.28,4.77m0-5.64c5.31,0,9.75.54,11.81,1.3l.22.22c0,1-5.42,1.52-12,1.52s-12-.65-12-1.52c0-.11,0-.11.11-.22,2-.76,6.61-1.3,11.92-1.3"/><path class="cls-2" d="M101.67,8.79c-.54.22-.43.32-.32.43a3.43,3.43,0,0,0,1.41-.11q2.05-.38,4.12-.65c1.41-.11,2.49-.22,3.25-.22,1.19-.11,2.17-.11,3.9-.11.76,0,1.3,0,1.41-.22s-.22-.43-1.19-.43h-4.12c-1.19.11-2.17.11-3.58.33a22.67,22.67,0,0,0-4.88,1"/><path class="cls-4" d="M113.27,9.66a52.81,52.81,0,0,0-10.84.87c-1.3.32-3,.76-3.36,0-.22-.33-.33-.87.87-1.63a3,3,0,0,0-1.84,2.6c0,4,7.37,4.77,15.28,4.77,8.35,0,15.28-.76,15.28-4.77a2.93,2.93,0,0,0-2-2.6c1.19.76,1.08,1.3.87,1.63-.43.76-2.06.32-3.47,0a46.15,46.15,0,0,0-10.84-.87m-9,4.88c-2.38-.43-3.9-1-3.9-1.63,0-1.19,5.85-2.28,12.9-2.28s12.9,1,12.9,2.28c0,.65-1.52,1.3-3.9,1.63a53.72,53.72,0,0,1-18,0"/></svg>