<?xml version="1.0" encoding="utf-8"?>
<!-- Generator: Adobe Illustrator 21.1.0, SVG Export Plug-In . SVG Version: 6.00 Build 0)  -->
<svg version="1.1" id="Layer_1" xmlns="http://www.w3.org/2000/svg" xmlns:xlink="http://www.w3.org/1999/xlink" x="0px" y="0px"
	 viewBox="0 0 250 250" style="enable-background:new 0 0 250 250;" xml:space="preserve">
<style type="text/css">
	.st0{fill:#FFFFFF;}
	.st1{fill:#ED1C24;}
	.st2{fill:#F6D056;}
	.st3{fill:#F15F2E;}
	.st4{stroke:#231F20;stroke-width:0.1;stroke-miterlimit:10;}
	.st5{stroke:#231F20;stroke-width:0.25;stroke-miterlimit:10;}
</style>
<g>
	<polygon class="st0" points="156.5,53.9 181.6,53.9 205.4,97.3 165.2,97.5 	"/>
	<polygon class="st1" points="125.1,53.9 123.8,97.9 166.8,97.5 156.5,53.9 	"/>
	<polygon class="st0" points="83.6,97.9 125,97.7 125.7,53.9 93.5,53.9 	"/>
	<polygon class="st1" points="69,53.9 43.8,98.2 83.6,97.9 93.5,53.9 	"/>
	<polygon class="st2" points="57,98.2 57.5,196.3 191.8,195.8 192.4,97.3 	"/>
	<circle class="st3" cx="125" cy="156.5" r="31.5"/>
	<circle class="st2" cx="125" cy="156.5" r="11.6"/>
	<path class="st1" d="M46.3,98.7c0,0-4.9,0.1-2.5,5.9c2.3,5.8,6.7,15.1,18.5,14.6c11.8-0.5,19.5-11.5,19.5-11.5s3.8-10.3-1-9.5
		C76,99.1,46.3,98.7,46.3,98.7z"/>
	<path class="st0" d="M87.3,98.7c0,0-4.9,0.1-2.5,5.9c2.3,5.8,6.7,15.1,18.5,14.6c11.8-0.5,19.5-11.5,19.5-11.5s3.8-10.3-1-9.5
		C117,99.1,87.3,98.7,87.3,98.7z"/>
	<path class="st1" d="M128.3,98.7c0,0-4.9,0.1-2.5,5.9c2.3,5.8,6.7,15.1,18.5,14.6c11.8-0.5,19.5-11.5,19.5-11.5s3.8-10.3-1-9.5
		C158,99.1,128.3,98.7,128.3,98.7z"/>
	<path class="st0" d="M169.3,98.7c0,0-4.9,0.1-2.5,5.9c2.3,5.8,6.7,15.1,18.5,14.6c11.8-0.5,19.5-11.5,19.5-11.5s3.8-10.3-1-9.5
		C199,99.1,169.3,98.7,169.3,98.7z"/>
	<g>
		<g>
			<g>
				<path class="st4" d="M57.6,197.9c-0.6,0-1.3-0.6-1.3-0.6s0-0.6,0-1.9v-25.7c0-15.4,0-30.8,0-46.9c0-1.9-0.6-3.2-2.6-3.9
					c-5.8-2.6-9-7.1-10.9-12.8c0-0.6-0.6-1.9-0.6-3.2c0-0.6,0-0.6,0-1.3v-3.2l0.6-0.6l5.8-10.3c5.1-11.6,11.6-22.5,18-33.4
					c0.6-0.6,0.6-1.3,1.3-1.9h113.7l0,0c0.6,0.6,1.3,0.6,1.3,1.3c5.8,9.6,10.9,19.3,16.1,28.3c2.6,3.9,4.5,7.7,6.4,12.2l2.6,4.5v1.3
					v0.6c-0.6,8.4-5.1,14.1-12.2,18c-1.9,0.6-2.6,2.6-2.6,4.5c0,23.8,0,48.2,0,71.9l0,0c0,0.6,0,0.6,0,1.3s0,1.3-1.9,1.3h-133
					C58.2,197.9,58.2,197.9,57.6,197.9L57.6,197.9z M59.5,194.7h131v-73.9H188h-0.6c-7.7,0-14.1-3.2-19.3-9.6l-1.9-3.2l-1.9,3.2
					c-4.5,6.4-10.9,9.6-18,9.6c-7.7,0-13.5-3.2-18.6-9.6l-1.9-3.2l-1.9,3.2c-4.5,5.8-10.9,9.6-18.6,9.6c-7.1,0-14.1-3.2-18.6-9.6
					l-2.6-2.6l-2.6,3.2c-4.5,6.4-10.9,9.6-19.3,9.6h-0.6h-2.6v73.2H59.5z M168.1,102.2c1.3,7.7,8.4,15.4,18.6,15.4l0,0
					c10.3,0,17.3-7.7,18.6-15.4L206,99h-37.9V102.2z M85.9,102.2c1.3,7.7,8.4,15.4,18.6,15.4c0.6,0,1.3,0,1.9,0
					c8.4-0.6,16.1-8.4,16.7-15.4v-2.6H85.2L85.9,102.2z M127,102.2c0.6,7.7,8.4,15.4,18.6,15.4h0.6c9.6-0.6,16.7-8.4,18-15.4
					l0.6-3.2H127V102.2z M44.8,102.2c0,3.2,1.3,6.4,3.9,9.6c3.9,3.9,9.6,6.4,14.8,6.4l0,0c10.3,0,17.3-9,18-15.4v-2.6H44.8V102.2z
					 M71.7,55.3c-1.9,0-3.2,0.6-3.9,1.9c-4.5,9-9.6,17.3-14.1,25.7l-4.5,7.7c0,0,0,0.6-0.6,0.6l-1.9,4.5h156.1l-1.9-3.9v-0.6
					l-1.9-3.9c-5.8-9.6-11.6-19.9-17.3-30.2c-0.6-1.3-2.6-1.9-3.9-1.9c-22.5,0-45,0-67.5,0L71.7,55.3z"/>
			</g>
		</g>
		<g>
			<path class="st5" d="M147.5,133.7c-6.4-6.4-14.1-9.6-23.1-9.6c-8.4,0-16.7,3.2-23.1,9.6s-9,14.1-9,22.5c0,8.4,3.2,16.7,9.6,23.1
				s14.1,9.6,23.1,9.6c8.4,0,16.7-3.2,23.1-9.6s9.6-14.1,9.6-23.1S154,139.5,147.5,133.7z M125,186.3c-8.4,0-16.1-3.2-21.2-9
				c0,0,0,0,0.6,0l0,0c1.9,0.6,3.2,0,4.5,0c0.6,0,1.9-0.6,3.2,0l0,0c1.3,0,1.9,0.6,2.6,1.3s1.9,1.3,3.9,1.3l0,0h0.6
				c1.9,0,2.6-0.6,3.2-0.6c0.6-0.6,1.3-0.6,3.2-0.6l0,0l0,0c1.3,0,1.9,0.6,2.6,0.6c0.6,0.6,1.9,1.3,3.9,0.6l0,0
				c1.9,0,3.2-0.6,3.9-1.3c0.6-0.6,1.3-0.6,2.6-1.3l0,0c1.3,0,1.9,0,3.2,0s1.9,0.6,3.9,0l0,0c0.6,0,0.6,0,1.3-0.6
				C141.1,183.1,133.4,186.3,125,186.3z M148.2,174.1c-0.6,0.6-1.3,1.3-2.6,1.3c-1.3,0.6-2.6,0-3.2,0c-0.6,0-1.9-0.6-3.9,0
				c-1.9,0-2.6,0.6-3.9,1.3c-0.6,0.6-1.3,1.3-3.2,1.3c-1.3,0-1.9,0-3.2-0.6c-0.6-0.6-1.9-0.6-3.9-0.6c-1.9,0-3.2,0.6-3.9,0.6
				c-0.6,0.6-1.3,0.6-3.2,0.6c-1.3,0-1.9-0.6-2.6-1.3c-0.6-0.6-1.9-1.3-3.9-1.3c-1.9-0.6-3.2,0-3.9,0.6c-0.6,0-1.9,0.6-3.2,0
				s-1.9-1.3-2.6-1.9c-0.6-0.6-1.3-1.3-2.6-1.9c-2.6-4.5-4.5-10.3-4.5-16.1c0-16.7,13.5-30.2,30.2-30.2s30.2,13.5,30.2,30.2
				c0,5.8-1.9,11.6-4.5,16.1C149.5,172.9,148.8,173.5,148.2,174.1z"/>
			<path class="st5" d="M131.5,128.5l-0.6,1.9c3.9,0.6,7.7,2.6,10.3,5.1l1.3-1.3C139.2,131.7,135.3,129.8,131.5,128.5z"/>
			<path class="st5" d="M150.7,158.7c0,1.9-0.6,4.5-1.3,6.4l1.9,0.6c0.6-1.9,1.3-4.5,1.3-6.4L150.7,158.7z"/>
			<path class="st5" d="M125,143.3c-7.1,0-12.8,5.8-12.8,12.8S118,169,125,169c7.1,0,12.8-5.8,12.8-12.8S132.1,143.3,125,143.3z
				 M125,167.1c-5.8,0-10.9-5.1-10.9-10.9c0-5.8,5.1-10.9,10.9-10.9s10.9,5.1,10.9,10.9S130.8,167.1,125,167.1z"/>
			<polygon class="st5" points="133.4,138.2 131.5,138.2 131.5,140.1 132.8,140.1 133.4,140.1 			"/>
			<polygon class="st5" points="125.7,133 125.7,131.1 123.8,131.1 123.8,133 124.4,133 			"/>
			<polygon class="st5" points="142.4,139.5 143.7,139.5 144.3,139.5 144.3,137.5 142.4,137.5 			"/>
			<polygon class="st5" points="152,151 150.7,151 150.1,151 150.1,152.9 152,152.9 			"/>
			<polygon class="st5" points="139.8,163.9 140.5,163.9 141.8,163.9 141.8,161.9 139.8,161.9 			"/>
			<polygon class="st5" points="110.9,167.1 110.9,169 112.8,169 112.8,167.1 112.2,167.1 			"/>
			<polygon class="st5" points="98.7,165.1 99.4,165.1 100.6,165.1 100.6,163.2 98.7,163.2 			"/>
			<polygon class="st5" points="107.1,155.5 107.1,157.4 109,157.4 109,155.5 108.3,155.5 			"/>
			<polygon class="st5" points="102.6,145.2 102.6,147.2 104.5,147.2 104.5,145.2 103.9,145.2 			"/>
			<polygon class="st5" points="117.3,142.7 117.3,140.7 115.4,140.7 115.4,142.7 116.1,142.7 			"/>
			<polygon class="st5" points="112.8,133.7 112.8,131.7 110.9,131.7 110.9,133.7 111.6,133.7 			"/>
			<polygon class="st5" points="131.5,173.5 132.8,173.5 133.4,173.5 133.4,170.9 131.5,170.9 			"/>
			<polygon class="st5" points="139.8,149.7 139.8,151.7 141.8,151.7 141.8,149.7 140.5,149.7 			"/>
			<rect x="146.2" y="169" class="st5" width="1.9" height="1.9"/>
		</g>
	</g>
</g>
</svg>
