<svg id="Layer_1" data-name="Layer 1" xmlns="http://www.w3.org/2000/svg" viewBox="0 0 173.1 121.1"><defs><style>.cls-1{fill:#02a9a2;}.cls-2{fill:#ceab7a;}.cls-3{fill:#ec028d;}.cls-4{fill:#704d1f;}.cls-5{fill:#fefefe;}</style></defs><title>Bahama Breeze</title><path class="cls-1" d="M33.46,8.28l-.11-.21c-.53-1.22-.53-1.22-1.62-.48-.54.37-1.06.77-1.6,1.13a9.52,9.52,0,0,1-6.92,1.5c-.61-.09-1.46-.18-1.61-.7s.66-.86,1.1-1.21a63.41,63.41,0,0,1,5.63-3.79,4.78,4.78,0,0,0,1-.85,9.77,9.77,0,0,1,3.92-3A3,3,0,0,1,35,.6c1,.28,2.11.19,3,.74a41.46,41.46,0,0,1,9.17,7.18,4.25,4.25,0,0,0,1.71,1.36.59.59,0,0,1,.42.44,30.68,30.68,0,0,0,1,3.26.74.74,0,0,1-.05.74,1.32,1.32,0,0,0-.23,1.45c.31.78-.13,1.33-.33,2a1.57,1.57,0,0,0,0,1.39,3,3,0,0,1-.13,2.31c-.35,1.08-.53,2.19-.86,3.27-.12.37-.42.61-.56,1a.59.59,0,0,0-.06.4c.07.16.24.05.37,0a4.47,4.47,0,0,0,2.12-.8c.16-.15.53-.07.81-.09A2,2,0,0,0,52.6,25c-.71-.14-1.08-.68-1.7-.82s-.41-.74-.7-1.06c-.44-.48-.18-.74.24-1s.47-.57.83-.74.14-.29,0-.45a.35.35,0,0,1,.17-.62.49.49,0,0,0,.31-.35,10.7,10.7,0,0,1,3.42-4.79c.38-.32.51-.79.85-1.14a3.19,3.19,0,0,1,2-1,8.57,8.57,0,0,1,1.33-.1,4.75,4.75,0,0,0,3.34-1.41c1.78-1.66,3.91-1.91,6.18-1.7a14.48,14.48,0,0,0,2.51-.16,3.93,3.93,0,0,1,2.74.56,1.74,1.74,0,0,0,1,.16,3.66,3.66,0,0,1,1.68.43c.24.14.68.27.5.62s-.33.76-.86.67h-.62c-1.34-.62-2.67.19-4,0a1.17,1.17,0,0,0-.72.39,11.48,11.48,0,0,1-1.52.76c-.78.51-1.76.83-2.28,1.7a4.17,4.17,0,0,1-.58.69,1.13,1.13,0,0,1-1.56.36l-.07,0c-.68-.39-1.57-.27-2.3-.74a.88.88,0,0,0-1.08.44A8.3,8.3,0,0,1,60,18.06a.51.51,0,0,1-.06.23,12.81,12.81,0,0,1,5.32,1.8A33.37,33.37,0,0,1,72.41,25a2.36,2.36,0,0,1,.54.64c.4.82,1.18,1.35,1.57,2.18a.84.84,0,0,0,1,.53c.45-.08.66.21.66.68a3.49,3.49,0,0,0,1.2,2.69c.74.68,1.48,1.36,2.25,2a.79.79,0,0,1,.28,1c-.25.55,0,1.07,0,1.61a13.27,13.27,0,0,0,1.16,3.46.67.67,0,0,1-.13.7,10.45,10.45,0,0,1-2.47,2.25c-.41.28-.68.15-.94-.21a6.1,6.1,0,0,1-.95-2.39A3.84,3.84,0,0,0,76.13,39a3.24,3.24,0,0,1-.58-1.41A1.25,1.25,0,0,0,75.2,37a13.43,13.43,0,0,0-2-1.84,6.4,6.4,0,0,0-2.93-1c-.56-.12-.89-.38-.95-.93-.13-1.23-.32-2.47.47-3.58.14-.21-.08-.29-.21-.36a3.46,3.46,0,0,0-1.76-.61,20.21,20.21,0,0,0-3.41.14,1.28,1.28,0,0,1-1.49-.65,8.18,8.18,0,0,1-.9-2.09c-.07-.31-.22-.29-.43-.3a9.24,9.24,0,0,0-4,1c.72.41,1.53.64,1.91,1.25a4,4,0,0,0,3.22,2c.74.08,1.28.77,1.75,1.38a3.33,3.33,0,0,0,.4.38c1.7,1.59,3.41,3.3,3.92,5.59.85,3.83,2.76,7.25,3.85,11,.19.63-.09,1.4.55,1.89-.43.61-.1,1.33-.3,2,0,.15-.22.28-.23.42-.1,1-.72.85-1.39.7C68.78,52.84,69.4,53.17,69,51c-.11-.69-.19-1.39-.3-2.08-.05-.35-.13-.53-.62-.43a6.41,6.41,0,0,1-3.61-.32c.51-.37.27-1,.6-1.36.05-.06,0-.23,0-.33a2.7,2.7,0,0,0-2.48-1.6,4.21,4.21,0,0,0-2,0c-.26.11-.53-.24-.71-.48a8.33,8.33,0,0,1-1.76-3.12c-.13-.52-.18-.94.41-1.24a2.89,2.89,0,0,0,.72-.65,8,8,0,0,1,1.5-1.45.71.71,0,0,0,.38-.89c-.2-.43-.61-.2-.93-.12a2.09,2.09,0,0,0-1.3,1c-.78,1.34-2.09,1.67-3.46,1.93-.64.12-.93-.42-1.23-.76a14,14,0,0,1-1.29-2,1.14,1.14,0,0,1,0-1.44A5.69,5.69,0,0,0,53.78,34a3.62,3.62,0,0,0-2.35,1.69,5,5,0,0,0-.41.73c-.76,1.42-1.63,1.52-2.68.3a1.92,1.92,0,0,1-.63-1c-.31.3-.35.63-.62.8a1,1,0,0,1-1.32-.22c-.79-.82-.89-2-1.65-2.87-.35-.39-.8-.48-1.12-.82a1,1,0,0,0-1.4-.14c-.32.17-.52-.06-.68-.31s-.15-.47-.39-.45c-1,.09-1.51-.75-2.25-1.14a.44.44,0,0,0-.56.06,4.48,4.48,0,0,0-1.33,1.64,18.6,18.6,0,0,1-1.32,2.28,26.94,26.94,0,0,1-2,3c-.45.57-.7.63-1.27.19a1,1,0,0,0-.9-.28,1.79,1.79,0,0,1-1.9-.91c-.27-.36-.55-.41-.81,0a8.06,8.06,0,0,0-.7,1.86,19.27,19.27,0,0,1-.88,2.75,3.77,3.77,0,0,0-.32,1.24c-.07.66-.54,1.18-.49,1.85,0,.42-.3.48-.64.42a2.25,2.25,0,0,1-1.36-.8c-.43-.52-.77-.3-1.08.09a3.24,3.24,0,0,0-.43,3.19,19.51,19.51,0,0,1,.48,3.23c0,.19-.14.23-.24.3a24.23,24.23,0,0,1-4.47,2.58,2.3,2.3,0,0,1-1.46.29c-.55-.14-.73.25-.89.59-.27.56-.59.65-1.09.29a.59.59,0,0,0-.83,0l0,0a1.13,1.13,0,0,1-1.08.09c-.23-.06-.42-.18-.32-.51a16.14,16.14,0,0,1,.55-2,3.52,3.52,0,0,0,.25-1.41A4.47,4.47,0,0,1,14,48a1.19,1.19,0,0,0,.26-.57c.1-1.68,1.2-3,1.84-4.41a17.25,17.25,0,0,1,3.6-5.32,27.53,27.53,0,0,0,2.13-3c1.48-1.9,2.66-4.06,4.45-5.68a16.08,16.08,0,0,1,10.33-4H37c.11,0,.25,0,.31-.1s0-.26-.11-.38a1.24,1.24,0,0,0-1.08-.38c-.93,0-1.86.09-2.8.1a1.51,1.51,0,0,1-1.69-1.16A8.34,8.34,0,0,1,31,20.42c0-.88-.46-1.1-1.18-.56a31.91,31.91,0,0,0-3,2c-.78.65-1,.58-1.79-.12a2.75,2.75,0,0,1-1-2.05,1,1,0,0,0-.2-.58c-.14-.19-.3-.25-.4,0-.26.76-.94,1.24-1.25,2-.66,1.58-2,2.63-3.11,3.83a11.77,11.77,0,0,0-2.09,2.78,15.61,15.61,0,0,1-1.69,2.22c-.28.37-.59.19-.87,0a3.81,3.81,0,0,1-1.88-3c-.08-.67-.58-1.21-.5-1.91,0-.12-.14-.08-.22-.08a1.48,1.48,0,0,0-1.55.69c-.5.81-1.07,1.58-1.56,2.41a3.06,3.06,0,0,0-.56,2.18.78.78,0,0,1-.42.86c-.89.6-1.75,1.24-2.61,1.88a1.08,1.08,0,0,1-1,.24c-1-.21-2.06-.4-3.1-.55-.62-.09-.57-.39-.28-.74a2.29,2.29,0,0,0,.4-1,7.43,7.43,0,0,1,1.23-2.53,26.56,26.56,0,0,1,4.32-4.14A12.52,12.52,0,0,0,8.3,22.52a19.5,19.5,0,0,1,2.78-2.8,20.74,20.74,0,0,0,2.86-2.62,6.63,6.63,0,0,1,4.17-2.21,30.25,30.25,0,0,1,5.41-.64c3.12,0,6.22-.48,9.34-.2.64.06,1.44-.09,1.87.18a17.35,17.35,0,0,1,2.71,1.65,50.84,50.84,0,0,1,3.42,3.79c.36.4.74.9,1.24,1,.66.12.59-.72.94-1.06a1.71,1.71,0,0,0,.45-2.24c-.45-.81,0-1.6.23-2.38s.19-1-.71-1.13c-.44-.07-.91,0-1.2-.55-.13-.25-.54-.21-.85-.24s-.73,0-.76-.45.39-.41.65-.52a1.45,1.45,0,0,1,1.24-.19c.1,0,.3.08.36-.09s-.09-.26-.19-.34a.71.71,0,0,0-.36-.21,13.76,13.76,0,0,1-2.23-.75c-.69-.15-.74-.9-1.1-1.36a6.23,6.23,0,0,1-.64-.9c-.09-.17-.26-.32-.46-.21-.8.48-1.13-.14-1.39-.65s-.55-.48-1-.35A4,4,0,0,0,33.46,8.28ZM21.39,41.45a.48.48,0,0,0,.47-.34c.43-1.11.85-2.22,1.31-3.32a.36.36,0,0,0-.07-.43c-.17-.19-.3,0-.4.08a15.93,15.93,0,0,0-2.27,3.41c-.14.27,0,.38.22.44Zm45.45,1.69c-.5-.79-.88-1.43-1.29-2-.12-.18-.16-.51-.45-.46s-.32.31-.43.52-.18.43-.28.64-.06.27.1.34A9.52,9.52,0,0,0,66.84,43.14Zm-37.7-9.89c.55-.43,1-.76,1.41-1.11s.11-.65.14-1-.14-.22-.29-.21a.74.74,0,0,0-.75.51C29.48,32,29.33,32.52,29.14,33.25ZM40.29,5.18a3.72,3.72,0,0,0-1.32-1c-.15-.09-.33-.25-.49,0a1.08,1.08,0,0,0-.09.81c0,.21.15.26.34.25Zm21.55,29c-.31-.17-.08-.81-.62-.7-.28.06-.53.43-.4.63s.66,0,1,0Z"/><path class="cls-2" d="M47.7,103.26a20,20,0,0,1-3.73-.35,21.73,21.73,0,0,1-3.15-.7,6.1,6.1,0,0,0-2.83.24,6.11,6.11,0,0,1-2.05.37.65.65,0,0,0-.46.13c-1.07,1-2.47,1-3.81,1.12-.58,0-1.08-.94-.84-1.51.08-.18.2-.16.34-.14,1.12.14,2.11-.5,3.21-.55.29,0,.46-.31.58-.56a1,1,0,0,1,1.27-.63l.16.07a4.44,4.44,0,0,0,.88.2.44.44,0,0,0,.48-.65c-.26-.5-.35-1.06-.58-1.55a2,2,0,0,1,.2-1.78.4.4,0,0,1,.51-.25h0a15.8,15.8,0,0,1,2.17.5c.64.26.94,0,.87-.63a6.41,6.41,0,0,0-2.27-4,7.66,7.66,0,0,1-2.24-3.52c-.31-1.13-.84-2.19-1.12-3.34a2.26,2.26,0,0,1-.1-1.1A4.3,4.3,0,0,0,35,82.37a8.52,8.52,0,0,0-1-1.85A12.94,12.94,0,0,1,32,72.72a42.64,42.64,0,0,0,.16-5.45,7.61,7.61,0,0,0-.3-2.81A1.69,1.69,0,0,1,32,63.1a2.37,2.37,0,0,0,0-2,4.3,4.3,0,0,1,.55-2.46,8.74,8.74,0,0,0,1-3c0-1.81.71-3.51.68-5.32a3.34,3.34,0,0,1,.65-1.92c.64-.88.74-2,1.39-2.88.17-.23-.06-.43-.27-.55a2.27,2.27,0,0,1-1-1.57,1,1,0,0,1,.25-1.1,9.26,9.26,0,0,0,1.35-1.78.7.7,0,0,0,0-1l-.1-.09a2.49,2.49,0,0,1,0-3.28c.36-.45.83-.8.75-1.53-.06-.53,1-1,1.58-.62.93.53,2.05.81,2.61,1.86.13.25.37.19.61.21.62,0,1.24.1,1.44.91.12.5.65.82.71,1.41A2.66,2.66,0,0,1,44.06,40a2.25,2.25,0,0,0-.32,1.45,6.33,6.33,0,0,1-.47,2.22c-.09.42-.6.53-1,.62-.74.15-.94.56-.61,1.21a2.43,2.43,0,0,1,.1,2.42c-1,1.69-.95,3.55-1,5.38a16.63,16.63,0,0,1-.82,3.67,6.2,6.2,0,0,0-.34,2.59,9.28,9.28,0,0,1-.36,2.65c-.24,2,.16,4,.06,5.92a1.93,1.93,0,0,0,.24,1,1.12,1.12,0,0,1,.11.86A1.75,1.75,0,0,0,40,71.64a3.15,3.15,0,0,1,.51,2.19A5,5,0,0,0,41.1,76c.48.93.93,1.87,1.42,2.8a1.53,1.53,0,0,0,.48.58,7.28,7.28,0,0,1,2.57,3.05,5.06,5.06,0,0,0,.54.72.89.89,0,0,1,.13.86A1.74,1.74,0,0,0,46.87,86a1.47,1.47,0,0,1,.72,1c.23.91.37,1.09,1.25.84a1.45,1.45,0,0,1,1.78.83,23.69,23.69,0,0,0,2.77,3,1.5,1.5,0,0,1,.46.74c.15.8,1,1.1,1.39,1.68.18.24.66.42.11.79-.21.14,0,.29.13.37a8.51,8.51,0,0,0,2.25,1.38c.5.14.85.68,1.41.81.15,0,.28.36.45.09s.58-.34.33-.74,0-.64.39-.83a2,2,0,0,1,1.23-.12c.49.07,1.27.1,1.42.33a2.79,2.79,0,0,0,1.69,1,.38.38,0,0,1,.18.21,3.27,3.27,0,0,0,2.64,1.82c.49.12.88.34.95.88,0,.32.3.46.47.66a.39.39,0,0,1,.07.45c-.1.2-.29.12-.43.07a15.69,15.69,0,0,0-2.29-.6,1.27,1.27,0,0,0-1.32.41.65.65,0,0,1-.26.22c-.5.16-.94.27-.37.93.25.29-.35,1-.79.88-2.49-.52-5.13-.66-7.13-2.53a5.66,5.66,0,0,0-5.91-1.21c-.74.22-1.47.43-2.2.67-.19.06-.48.12-.48.34s.27.37.48.46c.54.21,1.11.37,1.64.6.33.14.88.14.82.68a1.22,1.22,0,0,1-1.19,1.16Z"/><path class="cls-3" d="M55.37,73.39c-.46.36-.44.32.06.59a.37.37,0,0,1,0,.67c-.21.15-.36.2,0,.41s-.11.64-.38.84-.58.36-.57.82a12.93,12.93,0,0,0,.73,4.91c-.56-.07-.68.13-.51.63A11.49,11.49,0,0,1,55,83.8c-.74-.26-1.42-.39-2.06-.57a2.22,2.22,0,0,1-1.24-1.52,19.54,19.54,0,0,1-.7-4,19.11,19.11,0,0,1-.13-4.53A33.86,33.86,0,0,0,50.6,69a47.67,47.67,0,0,1,.31-9.56.69.69,0,0,0-.48.19,5.51,5.51,0,0,1-1.75,1,10.69,10.69,0,0,1-2.09.75c-.11,0-.24.07-.33,0a2.86,2.86,0,0,1-.94-2,2.75,2.75,0,0,1,.4-.81A18.66,18.66,0,0,1,55.19,52a10.44,10.44,0,0,1,4.56-.38,3.68,3.68,0,0,1,1.45.48c2.09,1.41,3.93,3,4.46,5.68A5,5,0,0,1,65.39,61a13.61,13.61,0,0,1-.8,2.2h2.1A11.47,11.47,0,0,1,73,65.68a5.13,5.13,0,0,1,1.38,2.15c.3.73.49,1.5.76,2.24a.37.37,0,0,1-.09.48c-.15.13-.52.34.06.37a.16.16,0,0,1,.12.06c-.42.4.27,1.07-.35,1.41-.15.08-.11.17-.13.31a.49.49,0,0,1-.83.21c-.17-.25-.28-.09-.37,0s-.43.41-.28.71.29.15.42,0,.49-.21.58.09-.21.31-.41.35-.48,0-.61.36-.46.2-.63.11c-.65-.33-1.09.09-1.55.39-.62.4-1.16.9-1.81,1.27s-.48.32-.94-.14c-.12-.12-.21-.08-.27,0-.22.45-.64.5-1.07.61s-.92.06-.93.86c0,.44-.85.68-1.43.77a4,4,0,0,1-.58,0c0,.24.33.12.39.38a7.57,7.57,0,0,1-2.08.83,6.56,6.56,0,0,0-2,.51c-.3.17-.24.31,0,.43a1.81,1.81,0,0,1,.45.22c-.61.09-1.21.2-1.82.26a2.39,2.39,0,0,1-1.77-1.41A9.2,9.2,0,0,0,56.66,78a2.85,2.85,0,0,1-.15-1.3.55.55,0,0,1,.32-.56c.49-.23.47-.27.39-.9,0-.05.05-.15.09-.16a2.25,2.25,0,0,1,.26,0c.61.74,1.35.42,2,.25a17.19,17.19,0,0,0,5.18-1.84,48.06,48.06,0,0,0,4.79-3.26,10.26,10.26,0,0,0,2.21-2.67c.26-.42-.07-.63-.37-.83a7.85,7.85,0,0,0-5.37-1c-1.6.19-3,1-4.53,1.4-.82.18-1.62.43-2.43.64a.91.91,0,0,1-.8,0c-.31-.2-.5.11-.72.27s-.5.52-.93,0-.85-.56-.85-1.21a3.15,3.15,0,0,0-.3,1.24c-.2,1.07.26,2.15-.15,3.19-.16.42.19.82.15,1.28a5.3,5.3,0,0,1-.13.73ZM55,58.22c.18,1.28.24,2.77.33,4.26,0,.16.06.54.34.38a8,8,0,0,0,2.1-1.17c.31-.33.32-.79.7-1.05a7.15,7.15,0,0,0,2.66-3.34c.68-1.72.48-1.87-1.31-1.83l-.55.07A14.53,14.53,0,0,0,56,56.68C55.24,57,55,57.36,55,58.22Zm18.89,14.6Z"/><path class="cls-3" d="M70.35,84.83c-.06-.33.23-.46.31-.69s.75-.48.14-.89a1,1,0,0,1,.16-.36A12.17,12.17,0,0,1,72,81.5a23.79,23.79,0,0,1,8.32-5.64,6,6,0,0,1,4.68.21A7.39,7.39,0,0,1,89.48,81c.12.4.35.77.45,1.17a2,2,0,0,1-.46,2,5.92,5.92,0,0,0-1.35,1.66,13.17,13.17,0,0,1,2.54.49A18.75,18.75,0,0,1,94,88a6.63,6.63,0,0,1,2.81,4.42,1.7,1.7,0,0,1-.65,1.92,6.24,6.24,0,0,0-1.37,1.62c-.45.61-1.14.86-1.58,1.42-.07.09-.13.15-.21.05-.28-.34-.41,0-.61.11a29.18,29.18,0,0,1-6.48,3.71h-.2c-.12-.76-.12-.76-.86-.38s-1.84.48-2.71.91-1,.8-.66,1.54a1.72,1.72,0,0,1-.11,1.83c-.21.28-1.7,0-2-.42a4.44,4.44,0,0,1-.44-1.17v-.27c-.79-.81-.68-2-1.09-2.91a4.35,4.35,0,0,1-.21-.59,28,28,0,0,0-1-3.35c-.23-.58,0-1.22-.14-1.84C76.12,93,75.61,91.5,75.18,90a42.28,42.28,0,0,1-.89-5.22c-.07-.48-.1-.65-.64-.43a2.18,2.18,0,0,1-2,.21C71.3,84.33,70.84,84.88,70.35,84.83Zm14.57-6a5.49,5.49,0,0,0-2,.57,12.71,12.71,0,0,0-3.6,1.65c-.78.56-1.3,1.17-.91,2.21a5.57,5.57,0,0,1,.14.9q.55,2.84,1.11,5.69A20.47,20.47,0,0,0,80,92a4.44,4.44,0,0,1,.19,1.83,5.61,5.61,0,0,0,0,2.16c.2.84-.1,1.79.61,2.55.19.2.18.18.34.08,2.21-1.35,4.52-2.54,6.65-4a8.5,8.5,0,0,0,1.91-1.47A25,25,0,0,1,92,90.47c.25-.23.61-.56.47-.87s-.62-.25-1-.23A31.84,31.84,0,0,0,86,90a7.77,7.77,0,0,0-2.52.74c-1.43.87-1.07,1-2.39-.25A5,5,0,0,1,80.7,90c-.57-.7-1.13-1.39-.69-2.39a.46.46,0,0,0,0-.33.66.66,0,0,1,.26-.85l2.62-2.31a12.85,12.85,0,0,0,3-3.94c.42-1,.16-1.37-1-1.37Z"/><path class="cls-3" d="M107.77,74.4h-.21A3.17,3.17,0,0,0,106,73.14c-2.19-1.23-2.79-3.38-3-5.67a22.77,22.77,0,0,1,0-2.87,1,1,0,0,0-.36-.93c-.34-.24-.48.13-.71.24s-.53.32-.32-.22c0-.08,0-.13-.12-.1s-.4.1-.42.32c-.06.77-.84,1-1.14,1.63a.21.21,0,0,1-.28.09h0c-.13-.09-.06-.18,0-.29a3.31,3.31,0,0,0,.13-.56c-.31.23-.64.25-.71.65a.28.28,0,0,1-.42.25c-.3-.16-.35.19-.34.24.15.58-.53.83-.5,1.36A8.52,8.52,0,0,1,97.41,69c-.1.65-.18,1.31-.24,1.95s0,1.45,0,2.19a32.84,32.84,0,0,0,.16,4.39c0,.16,0,.29-.15.34s-.2-.1-.26-.19a5,5,0,0,0-.37-.59c-.15-.17-.34-.45-.56,0-.06.11-.12.1-.23-.07a7.64,7.64,0,0,0-2.16-1.91,12.73,12.73,0,0,1-1.25-1,.57.57,0,0,1-.21-.55c.19-1.87.22-3.77.59-5.6.3-1.45-.06-2.94.43-4.35a.36.36,0,0,0-.12-.38c-.15-.15-.09-.35-.12-.53-.05-.39.4-.64.15-1.16-.14-.3.16-.94.2-1.43a4,4,0,0,1,.11-1.44,2.65,2.65,0,0,0,.32-1.39,9,9,0,0,1,.15-1.72c.1-1.44.18-2.88.38-4.31,0-.11.13-.29.09-.32-.42-.41,0-.89-.07-1.2-.27-1.14.22-2.22.09-3.34-.07-.58.36-1.22.24-1.9,0-.17.21-.13.33-.08,1.34.67,2.81,1.14,3.64,2.54a.67.67,0,0,1,.1.18,12.2,12.2,0,0,1,.42,4.68,5.94,5.94,0,0,0-.2,1.83,1.37,1.37,0,0,1-.32,1.08c-.29.34-.11.79-.14,1.18a32.67,32.67,0,0,1-.32,4.42c-.08.37.18.6.56.46,1.82-.66,3.51.14,5.16.61a5.13,5.13,0,0,1,2.6,2.31A10,10,0,0,1,108,68.48c.06.7-.18,1.47-.16,2.16,0,.95-.46,1.76-.43,2.69C107.4,73.79,107.65,74,107.77,74.4Z"/><path class="cls-3" d="M150.37,74.65a7.46,7.46,0,0,1-1.85-4.41,50,50,0,0,1,.28-5,.94.94,0,0,0-.62-1,.86.86,0,0,0-1,.09,4.67,4.67,0,0,0-2.09,2c-.27.58-1,1-1.49,1.43a.77.77,0,0,0-.28,1,1.55,1.55,0,0,1-.18,1.23A11.34,11.34,0,0,0,142,72.4a2.07,2.07,0,0,1-1.21,1.28,1.86,1.86,0,0,0-1.17,1.24A10.08,10.08,0,0,1,137.65,71a4.27,4.27,0,0,1,.39-3.45,1.67,1.67,0,0,0,.24-1.66.34.34,0,0,1,0-.27c.5-.93-.19-1.1-.83-1.32a4.28,4.28,0,0,0-3.12.08,6.18,6.18,0,0,0-2.14,1.21c-.25.24-.59.5-.38.88s.46-.25.79,0c-.76,1.11-.66,2.49-1.08,3.74-.18.54-.79.72-.88,1.37s-.48,1.3-.64,2.09a10.92,10.92,0,0,1-2.69-4.47,1.75,1.75,0,0,1,0-.9,5.72,5.72,0,0,0,.22-2.86.6.6,0,0,1,.19-.51c.09-.1.21-.2.15-.36-.49-1.33.38-2.56.32-3.87,0-.3.31-.7.37-1.17.13.85.82.51,1.25.63.59.17,1.25.13,1.74.6.21.2.4,0,.58,0a18.62,18.62,0,0,1,4.19-.69c1.91,0,3.25,1.06,4.53,2.28a1.31,1.31,0,0,1,.24.34c.28.53.48.49.85,0a5.52,5.52,0,0,1,4.39-2.22c.7,0,1.44.28,2.14-.13.12-.07.39.09.58.17a5.28,5.28,0,0,1,3.65,4,14.13,14.13,0,0,1,.5,3.77,7,7,0,0,1-2.11,4.91A2.43,2.43,0,0,0,150.37,74.65Z"/><path class="cls-3" d="M131,98.64a94.79,94.79,0,0,1,16.63-1.85c-.64.16-.61.89-1.12,1.19a3.9,3.9,0,0,1-1.09.53c-.84.14-1.49.75-2.32.83a15.33,15.33,0,0,0-1.88.63,4,4,0,0,1-1.83.28,1.54,1.54,0,0,0-1.54.74c-.17.23-.29.34-.55.16a.32.32,0,0,0-.45,0l0,0c-.16.19-.32.36-.39-.12,0-.27-.29-.06-.4.07-.28.3-.54.61-.82.93-.28-.06,0-.84-.55-.46a2.51,2.51,0,0,0-.49.74c-.26-.21-.19-.61-.53-.72a2.43,2.43,0,0,1-1.91,1.4c-1.46.09-2.87.52-4.33.62-.46,0-1.1.27-1.35,0-.56-.6-1.48-.9-1.65-1.84a1.08,1.08,0,0,0-.47-.72,1.55,1.55,0,0,1,.43-2.62,11.19,11.19,0,0,0,2.6-1.34,50.78,50.78,0,0,0,8.26-6.74c.68-.66,1.13-1.56,1.83-2.24a.49.49,0,0,0,0-.53c-.06-.21-.28-.08-.42,0-1.13.3-2.16-.2-3.22-.43-.28-.06-.55-.44-.7-.74a8.47,8.47,0,0,0-1.46-1.78,9.59,9.59,0,0,0,3.56-.57A48.67,48.67,0,0,1,141,82.79a1.91,1.91,0,0,1,1.41.27,7.56,7.56,0,0,1,2.29,1.79.9.9,0,0,1,0,1.25,30.1,30.1,0,0,1-2.41,2.63c-.43.39-.63,1-1.11,1.32-1,.73-1.65,1.82-2.77,2.42A1.09,1.09,0,0,0,138,93c-.21.62-1,.67-1.22,1.15-.36.69-1.5.6-1.51,1.59-.65-.09-.89.52-1.33.79-.78.47-1.54,1-2.29,1.48A.92.92,0,0,0,131,98.64Z"/><path class="cls-3" d="M168.77,70.42c-1,1.33-2.66,1.63-3.84,2.7a16.78,16.78,0,0,1-2.41,1.27,4.22,4.22,0,0,1-5-.24,1.46,1.46,0,0,1-.52-.55c-.36-.75-.7-1.51-1-2.28a5.06,5.06,0,0,1,.77-4.7,19.74,19.74,0,0,1,4.62-4.83,8.39,8.39,0,0,1,3.2-1.66,3.48,3.48,0,0,1,2.95.23c.49.35,1.07.58,1.55.94a3.07,3.07,0,0,1,1.41,2c.08.6-.17.88-.78.81a12.87,12.87,0,0,0-2.79-.08,7.76,7.76,0,0,0-3.68,1.57,17.52,17.52,0,0,0-5,4.92c-.2.31-.58.69-.32,1.06s.71.07,1,0a18.41,18.41,0,0,0,6.54-3.22,12.73,12.73,0,0,1,2.7-1.58,2,2,0,0,1,2.26.42,4.87,4.87,0,0,0,1.08.77,2.28,2.28,0,0,1,1,2,15.31,15.31,0,0,1-.47,5.06,1.71,1.71,0,0,1-1.11,1.4c-.42.13-.29.68-.4,1.2a6.76,6.76,0,0,1-2-4.61,22.26,22.26,0,0,1,.26-2.43v-.17Z"/><path class="cls-3" d="M85,66c-.74.31-1.09,1.08-1.79,1.5-.39.24-1,.42-1.25.93,0,.06-.16.09-.24.11-.67.18-1.36.27-2,.51a2.21,2.21,0,0,1-1.46-.3,4.05,4.05,0,0,1-2.24-1.67c-.55-1-1.25-1.9-1.74-2.95a4.18,4.18,0,0,1,0-3.71,6.19,6.19,0,0,1,1.34-2,9.53,9.53,0,0,1,2.28-1.83c1.42-.66,2.67-1.68,4.11-2.32A4.88,4.88,0,0,1,85,53.48h.27c.46-.64.78-.08,1.14.12.65.37,1.28.76,1.93,1.13a7.49,7.49,0,0,1,2.18,2.16,1.53,1.53,0,0,1-1.6.33,11.08,11.08,0,0,0-3.57-.37,1.19,1.19,0,0,0-.83.34c-.32.5-.87.5-1.29.75s-.94.9-1.68.7c.11.63-.48.66-.79.93s-.51.27-.85-.24c.17.73,0,1-.56,1.05a1.12,1.12,0,0,0-1.12,1c0,.35-.37.53-.59.75a9,9,0,0,0-.89,1.06c-.21.29-.43.53-.08.82s.48.83,1.16.61a17.9,17.9,0,0,0,5.11-3c.92-.68,1.79-1.43,2.74-2.06.28-.18.14-.8.81-.6,1.21.36,2.58.3,3.44,1.47,0,0,.07.1.06.12-.44.74-.06,1.54-.18,2.31a7.13,7.13,0,0,0,.34,3.85,4.76,4.76,0,0,1,.66,1.84,1.43,1.43,0,0,1-1.62-.79c-.7-1.17-1.85-2-2.23-3.42-.08-.3-.26-.24-.48-.11-.57.33-1.15.65-1.73,1a.36.36,0,0,0-.21.46c.1.28.34.28.57.25Z"/><path class="cls-3" d="M144.71,89c1,0,1.08-.06.95-1a3.09,3.09,0,0,1,.3-1.47A26.86,26.86,0,0,1,147,83.37a4.38,4.38,0,0,1,1.43-1.56,4.19,4.19,0,0,1,2.18-1.08c.38-1,1.64-.39,2.1-1.22.72.24,1.43-.31,2.08-.15a15.56,15.56,0,0,1,3.55,1.55c.15.08.35.15.34.32-.09,1,.54,2.15-.74,2.82.1.83-.81.85-1.1,1.37a1.86,1.86,0,0,0-.32.81.43.43,0,0,1-.39.49.45.45,0,0,0-.39.34c-.13.36-.1.92-.76.83,0,0-.11.23-.16.35s-.08.19-.43.24a.27.27,0,0,0-.16.11,6.3,6.3,0,0,1-2.71,2,26.41,26.41,0,0,1-2.39,1.17c-.4.16-.35.46,0,.67a2.15,2.15,0,0,0,1.29.23,26.58,26.58,0,0,0,7.62-1.95c.21-.08.39-.27.64-.14s.14.16.07.28-.25.53-.61.44c-.15,0-.26,0-.17.13.52,1-.56,1.2-.84,1.79-.18.38-.48,1-1.2.9-.33,0-.3.5-.51.75-.38.43-1.09.42-1.26,1,0,.06-.2.13-.21.12-.32-.41-.61,0-.9,0a3.35,3.35,0,0,1-2.11-.27,10.08,10.08,0,0,1-5-5.29A9.22,9.22,0,0,0,144.71,89Zm5.35-2.38c2.35-.28,4.18-1,5.2-3,.16-.32.44-.75.2-1a1.26,1.26,0,0,0-1.19-.07A9.21,9.21,0,0,0,150.32,85a2.6,2.6,0,0,0-.51,1C149.69,86.39,149.77,86.64,150.06,86.58Z"/><path class="cls-3" d="M121,70.87c-.63.15-1.08.65-1.69.85-.15,0-.18.18-.24.31-.35.76-1.12,1-1.73,1.48-.09.06-.27.06-.3.14-.42,1-1.34.64-2,.72a2.63,2.63,0,0,1-2.18-.84,9.61,9.61,0,0,1-2.48-4,5.42,5.42,0,0,1,1.24-5.33,34.12,34.12,0,0,1,2.52-2.83,10.86,10.86,0,0,1,1.31-1,14.4,14.4,0,0,0,1.94-1.55.61.61,0,0,1,.57-.24c.19.25-.34.26-.12.56.32-.28.87.18,1.21-.44.11-.2.41.23.66.33-.11,0-.3,0-.32.1s.16.27.24.26c.82-.13,1.28.53,1.91.81a7.2,7.2,0,0,1,1.74,1.27,1.19,1.19,0,0,1,.41,1.63l0,0c-.15.24,0,.49,0,.77a3.07,3.07,0,0,1-.68-.24c-1.76-1.15-3.4-.58-5,.28a15.11,15.11,0,0,0-3.56,2.66,4.78,4.78,0,0,0-1.49,2.48c-.14.71,0,.83.71.67a10.59,10.59,0,0,0,2.19-.91c.3-.14.57-.36,1-.17a.63.63,0,0,0,.72-.32c.19-.54.61-.46,1-.53a4.17,4.17,0,0,0,1.61-.81,10.54,10.54,0,0,1,.92-.64,1.31,1.31,0,0,1,2,.56,2.76,2.76,0,0,1,.29.63,24.73,24.73,0,0,0,2.08,4.64c.14.28.4.54,0,.92-.2.2-.07.61.16.89a1.37,1.37,0,0,1,.43,1.22,10.39,10.39,0,0,1-3.34-3.83c-.27-.57-.68-1-1.38-.72.15-.78-.4-.27-.75-.49C120.6,70.52,121.06,70.52,121,70.87Zm-1.4-.15c-.58.1-.87.64-1.39.73-.07,0-.15.16-.06.23s.26.13.3.09C118.83,71.43,119.44,71.38,119.6,70.72Z"/><path class="cls-3" d="M130.13,89.52a14.74,14.74,0,0,0-.59,2.49.9.9,0,0,1-.38.57,2.65,2.65,0,0,0-.9,1.13.68.68,0,0,1-.32.35c-1,.47-2,1-3,1.37a1.53,1.53,0,0,1-1.22-.14,8.78,8.78,0,0,1-4.93-6.06,4.75,4.75,0,0,1,.29-2.88,13.82,13.82,0,0,1,2.65-4.22,29.16,29.16,0,0,1,2.82-2.35,1,1,0,0,1,1-.2,26.78,26.78,0,0,1,3.7,1.79,1.56,1.56,0,0,1,.76,1.28c.06.55.07,1.12.08,1.67a.94.94,0,0,1-.29.76,19.45,19.45,0,0,1-3.31,2.73,2.61,2.61,0,0,1-3.14,0c-.29-.22-.6-.21-.75.16a6.73,6.73,0,0,0-.75,2.88c0,1,.34,1.21,1.31,1.11A18.22,18.22,0,0,0,130.13,89.52Zm-5.68-3.87A4.23,4.23,0,0,0,126.7,85a1.66,1.66,0,0,0,.08-2.77.52.52,0,0,0-.58-.06,4.36,4.36,0,0,0-2.48,2.4c-.38.92-.25,1.05.73,1Z"/><path class="cls-3" d="M109.3,85a.75.75,0,0,1-.64,0,4.27,4.27,0,0,0-3.79.85c-.86.61-.85,1.65-1.24,2.5-.81,1.75-.54,3.64-.85,5.44,0,.11.05.27,0,.34-.7.85-.12,1.72,0,2.56a8.78,8.78,0,0,1,.12,1.17c0,.3,0,.56-.45.67s-.66.37-.35.84c.19.29,0,.69.23,1,.05.07,0,.18-.13.19s-.33,0-.37-.14a1,1,0,0,0-.55-.6,4.32,4.32,0,0,1-2.37-3.84c-.12-1.7-.52-3.36-.66-5.05-.25-2.91-.06-5.83-.13-8.74a1,1,0,0,0-.33-.93c-.33-.24-.14-.63-.06-1,0-.11.16-.19.19-.15.37.5,1,.3,1.49.55a2.43,2.43,0,0,1,1.3,2.15c.08.54.33.57.75.32s1.13-.64,1.72-.93a2.56,2.56,0,0,1,2.42,0,1.24,1.24,0,0,0,.6.15c1.39,0,1.92.34,2.33,1.64C108.6,84.44,109.2,84.44,109.3,85Z"/><path class="cls-3" d="M116.42,94.26a3.28,3.28,0,0,1-.62,3.1A4.17,4.17,0,0,1,113.38,99a2.83,2.83,0,0,1-1.68,0A7.63,7.63,0,0,1,107,94.58a4.67,4.67,0,0,1-.1-2.83,12.09,12.09,0,0,1,2.95-6.14,9.26,9.26,0,0,1,2.28-1.6,1.16,1.16,0,0,1,1.2,0A11.39,11.39,0,0,0,116,85.07c1.51.39,1.73.85,1.38,2.35a3.48,3.48,0,0,1-2,2.55c-.88.41-1.64,1.05-2.54,1.46a4.74,4.74,0,0,1-1.46.44A1.37,1.37,0,0,0,110.09,93a9,9,0,0,0-.29,2.42c0,.35.15.51.5.51a5.18,5.18,0,0,0,1.39-.11A23.36,23.36,0,0,0,116.42,94.26Zm-2.76-7.7a4.94,4.94,0,0,0-3.32,2.26c-.12.19-.25.45-.07.65s.34-.05.51-.07a6.16,6.16,0,0,0,1-.09c1.18-.16,2.3-.41,2.91-1.6.4-.84.2-1.19-1-1.19Z"/><path class="cls-4" d="M118.6,116.06a25,25,0,0,0,.09,3.78c0,.35-.06.45-.39.49-1.2.15-1.64-.22-1.64-1.45,0-1.94.12-3.87,0-5.81a4.7,4.7,0,0,0-.19-1.38c-.12-.33-.07-.46.29-.51s.65-.18.89,0c.55.36,1,.12,1.55,0a3.74,3.74,0,0,1,2.2.13,2.06,2.06,0,0,1,1.51,1.83,2,2,0,0,1-1.24,2c-.56.25-.52.48-.26.9a17.09,17.09,0,0,0,2.47,3.46c.17.17.19.26,0,.44a1.43,1.43,0,0,1-2.21-.1,19.39,19.39,0,0,1-2.39-4.18c-.14-.34-.17-.54.29-.58a1.53,1.53,0,0,0,.82-.37,1.5,1.5,0,0,0-1.56-2.55c-.26.1-.27.25-.27.48C118.6,113.77,118.6,114.92,118.6,116.06Z"/><path class="cls-4" d="M91.44,116a16.46,16.46,0,0,0-.17-4.38c-.08-.29,0-.38.28-.41s.5-.14.69-.05a3.38,3.38,0,0,0,2.08-.07,3.2,3.2,0,0,1,3.93,2.75,6.61,6.61,0,0,1-.44,4.23,3.64,3.64,0,0,1-2.61,2.12,7.94,7.94,0,0,1-2.43.18c-1.1-.09-1.33-.34-1.32-1.43S91.44,117,91.44,116Zm2-.33h0v2.73c0,.36-.11.81.3,1a1.23,1.23,0,0,0,1.24-.26,2.59,2.59,0,0,0,.54-.54,5.87,5.87,0,0,0,.31-5.6,1.74,1.74,0,0,0-1.88-.92.55.55,0,0,0-.53.65c.07,1,0,2,0,2.95Z"/><path class="cls-4" d="M81.84,113.61a54.57,54.57,0,0,0,.14,6c0,.25.38.65-.26.71s-1.12-.14-1.15-.67a5.75,5.75,0,0,1,0-1c.2-1.93.16-3.87.18-5.8a1.24,1.24,0,0,0-.55-1.27A1.82,1.82,0,0,1,83,112c1,1.6,2.06,3.22,3.09,4.83a1.25,1.25,0,0,0,.5.58,53.92,53.92,0,0,0-.13-5.46c0-.27-.35-.72.32-.74s1.1.16,1.1.73-.06,1-.09,1.47a37.41,37.41,0,0,0,0,6.29.47.47,0,0,1-.33.52,1.39,1.39,0,0,1-1.88-.57l-.06-.13c-1-1.79-2.16-3.54-3.29-5.28Z"/><path class="cls-4" d="M112.13,113.21l-.28-.39a1.67,1.67,0,0,0-2.74,0,3.06,3.06,0,0,0-.58,1.26,8.11,8.11,0,0,0,0,4.21,1.37,1.37,0,0,0,1.45,1.15,1.6,1.6,0,0,0,1.35-1.69c0-.92-.26-1.32-1.17-1.43-.22,0-.28-.09-.26-.29a.76.76,0,0,1,.76-.84,9.38,9.38,0,0,0,3-.2c.22-.08.21.09.23.22.1.65-.25,1-1.12,1.13a2.47,2.47,0,0,1,0,2.44,3.15,3.15,0,0,1-1.88,1.57,3.24,3.24,0,0,1-4.23-1.76q-.06-.15-.11-.3a6.76,6.76,0,0,1,.33-5.17,3.76,3.76,0,0,1,5-1.74C112.89,111.82,113,112.46,112.13,113.21Z"/><path class="cls-4" d="M149.19,115.52v-3.43c0-.82.09-.92.93-.92a28.56,28.56,0,0,0,4.12-.07c.33,0,.41.07.39.37a.89.89,0,0,1-.83.95h-.17c-.46,0-.93-.1-1.39-.12-.85,0-.94.05-1,.87v.35c-.08,1.71-.08,1.71,1.61,1.56a2.55,2.55,0,0,1,.69-.09c.27.06.64-.47.79.1a.87.87,0,0,1-.58,1.09l-.18,0a6.7,6.7,0,0,1-1.67-.06c-.64-.12-.78.1-.72.68a9.91,9.91,0,0,1,0,1.47c0,.72.31.94,1,.91a6.71,6.71,0,0,0,2.2-.32c.36-.14.44,0,.44.33,0,.74-.24,1-1,1h-3.57c-.84,0-1.08-.26-1.08-1.1v-3.64Z"/><path class="cls-4" d="M56.38,120.52a3.49,3.49,0,0,1-2.39-.81,1,1,0,0,1,.17-1.81c.32-.14.51-.13.62.25a2.36,2.36,0,0,0,.34.68,1.52,1.52,0,0,0,1.59.65,1.16,1.16,0,0,0,1-.92A1.46,1.46,0,0,0,57,117c-.61-.42-1.27-.78-1.89-1.19A2.56,2.56,0,0,1,53.92,113a2.14,2.14,0,0,1,.91-1.43,4.18,4.18,0,0,1,4.06-.08,1.58,1.58,0,0,1,.49.49c.32.56,0,.93-.43,1.24s-.48-.23-.63-.41a1.9,1.9,0,0,0-1.67-.84,1,1,0,0,0-.78,1.75,2.3,2.3,0,0,0,.69.59c.47.29,1,.58,1.42.88,1.39.91,1.86,2,1.44,3.36A2.91,2.91,0,0,1,56.38,120.52Z"/><path class="cls-4" d="M71.86,119.52c-.09.21.24.57-.18.7a1.17,1.17,0,0,1-1.13-.17.76.76,0,0,1-.11-1c.86-2,1.57-4,2.27-6.08.17-.5.6-1,.2-1.58-.08-.12,0-.19.15-.24a1.48,1.48,0,0,1,2,.7l0,.07a72.88,72.88,0,0,0,2.56,7.9c.11.27,0,.3-.21.36a1.71,1.71,0,0,1-2.16-1c-.06-.17-.11-.36-.16-.54-.49-1.7-.62-1.78-2.39-1.55a.37.37,0,0,0-.41.3A7.52,7.52,0,0,0,71.86,119.52Zm1.74-6.2c-.22.67-.39,1.16-.55,1.66-.4,1.24-.28,1.36,1,1.18.26,0,.3-.1.22-.35-.19-.74-.4-1.51-.67-2.47Z"/><path class="cls-4" d="M146.21,118.82c.1,1.27-.09,1.47-1.27,1.47h-2.59c-1.09,0-1.41-.32-1.41-1.43s0-2.14.08-3.22a27.88,27.88,0,0,0-.15-4c0-.34.07-.39.35-.42,1.21-.15,1.77.33,1.77,1.63,0,1.72-.08,3.45-.1,5.17,0,1.24.07,1.29,1.31,1.27A5.59,5.59,0,0,0,146.21,118.82Z"/><path class="cls-4" d="M68.06,118.82c.12,1.24-.08,1.46-1.21,1.47H64.33c-1.26,0-1.56-.3-1.53-1.59,0-2.19.17-4.38,0-6.58,0-.29-.4-.76.17-.92a1.35,1.35,0,0,1,1.73.68,3.55,3.55,0,0,1,.15,1.31c0,1.7-.08,3.41-.1,5.11,0,.82.13.93.93.95A5.69,5.69,0,0,0,68.06,118.82Z"/><path class="cls-4" d="M137.92,118.83c.13,1.2-.1,1.45-1.25,1.45h-2.73c-.94,0-1.27-.33-1.27-1.26,0-2.08.1-4.15,0-6.23a3,3,0,0,1,0-.7c.06-.3-.39-.7.1-.89a1.49,1.49,0,0,1,1.73.55,2.21,2.21,0,0,1,.18,1.09c0,1.73-.07,3.45-.08,5.18,0,1.2.07,1.24,1.28,1.22A6.57,6.57,0,0,0,137.92,118.83Z"/><path class="cls-4" d="M50.33,116.11v3.64c0,.45-.14.56-.55.57-1.07,0-1.46-.32-1.46-1.39,0-2.45.13-4.9-.07-7.34,0-.15,0-.26.15-.35a1.31,1.31,0,0,1,1.88,1,6,6,0,0,1,0,.77v3.15Z"/><path class="cls-4" d="M126.93,115.32v-3.5c0-.53.15-.63.61-.64,1,0,1.39.29,1.39,1.29,0,2.47-.12,4.94.07,7.41,0,.17,0,.31-.19.39a1.32,1.32,0,0,1-1.84-1.11v-3.85Z"/><path class="cls-3" d="M162.82,97.87a2,2,0,1,1-2-2A2,2,0,0,1,162.82,97.87Zm-3.68,0a1.67,1.67,0,1,0,1.69-1.66,1.67,1.67,0,0,0-1.69,1.66v0Z"/><path class="cls-3" d="M63.67,79.71c.55-.31,1-.54,1.36-.79.21-.12.31,0,.37.15s-.12.2-.25.22C64.68,79.33,64.33,79.73,63.67,79.71Z"/><path class="cls-3" d="M85,66a2.28,2.28,0,0,1,1.2-.81A1.69,1.69,0,0,1,85,66Z"/><path class="cls-3" d="M61,80.63s.06-.07.09-.06l.15.06-.12.05Z"/><path class="cls-3" d="M55.35,73.4h.05v-.07Z"/><path class="cls-5" d="M73.94,72.81l-.09-.05h.09Z"/><path class="cls-5" d="M168.77,70.42l.1-.07v.17Z"/><path class="cls-3" d="M159.94,97.82v-.07c0-1,.37-1.25,1.33-.94.18.06.41.15.4.34a5.26,5.26,0,0,0,0,1.72c0,.09-.11.12-.21.13a.26.26,0,0,1-.28-.24h0c-.05-.25-.08-.54-.42-.54s-.2.34-.23.52-.16.25-.34.25-.24-.12-.24-.27v-.9Zm1.2-.36c0-.19-.12-.26-.3-.29s-.32,0-.31.24,0,.34.22.35.36,0,.39-.29Z"/></svg>