<svg id="Layer_1" data-name="Layer 1" xmlns="http://www.w3.org/2000/svg" viewBox="0 0 202 142"><defs><style>.cls-1{fill:#b20d35;}.cls-2{fill:#fff;}</style></defs><title>Bakers Square</title><rect class="cls-1" x="0.5" y="0.5" width="201" height="141"/><path class="cls-2" d="M13.81,52.13A13,13,0,0,0,23,56.33c7.62,0,14.47-5.94,14.47-18.53,0-14-6.22-19.72-14.12-19.72-3.85,0-6.92,1.82-9.58,4.27V4.58L6.68,8.29V55.55h7.13ZM13.74,29.4c1.89-2.38,4.89-4.69,8.32-4.69,5.31,0,8.25,4.05,8.25,13.29,0,7.76-2.8,11.67-8,11.67-3.63,0-7-2.65-8.6-4.82Z"/><path class="cls-2" d="M54.22,56.32a14.45,14.45,0,0,0,10.07-4.4v3.64h7.06V30.38c0-8.32-5.59-12.31-13.77-12.31A22.77,22.77,0,0,0,45,21.36l2.8,5.46a18.5,18.5,0,0,1,9.58-2.31c4.47,0,6.92,2.24,6.92,6.22v2.73a20.25,20.25,0,0,0-8.18-1.4c-8.32,0-14.61,3.7-14.61,11.88C41.5,53,48.28,56.32,54.22,56.32Zm1.68-18a18.13,18.13,0,0,1,8.39,1.61v5.24a11.55,11.55,0,0,1-8.88,4.69c-4.75,0-7.06-2.45-7.06-6.08,0-3.4,2.94-5.49,7.55-5.49Z"/><path class="cls-2" d="M85.55,44.71l5.59-7.41,8.11,18.25h7.83l-11-24.4,9.3-12.3H97.2l-7.62,10.7c-1.19,1.75-3.07,4.54-4.05,6,0-1.82.07-5.59.07-7.83V4.58L78.4,8.36V55.55h7.2Z"/><path class="cls-2" d="M123.65,18.08c-9.51,0-16.08,6.71-16.08,19.16,0,12.16,7.27,19.09,15.87,19.09,5.59,0,9.44-1.75,12.65-4.82l-4.27-4.62a12.86,12.86,0,0,1-8,2.94c-4.47,0-8.46-3-9.23-10.07h24.26c.07-.77.21-2,.21-3.28C139.11,26.54,134.07,18.08,123.65,18.08Zm-8.88,15.73c.63-5.87,3.56-9.23,8.39-9.23,5.94,0,8.32,4.2,8.67,9.23Z"/><path class="cls-2" d="M152.73,34.58c0-6.22,2.66-9.44,7.2-9.44a10.76,10.76,0,0,1,5.53,1.33l1.89-6.85a10.57,10.57,0,0,0-6.22-1.54,10.18,10.18,0,0,0-8.39,4.26V18.85h-7.2v36.7h7.2Z"/><path class="cls-2" d="M183.64,49.82a19.27,19.27,0,0,1-10.7-3.63l-3.29,5.45a25,25,0,0,0,14.05,4.69c7.2,0,13.77-2.73,13.77-10.84,0-6.92-4.2-9.16-12.38-12.3-5.53-2.17-6.78-3.5-6.78-5.31s1.54-3.36,5-3.36a16,16,0,0,1,9.51,3.14L196,22.13a21.86,21.86,0,0,0-12.45-4.06c-7.34,0-12.51,3.43-12.51,10,0,5.8,2.87,8.46,10.77,11.54,5.31,2,8.53,3.36,8.53,6.15C190.35,48.35,188.19,49.82,183.64,49.82Z"/><path class="cls-2" d="M18.5,101.05A19.27,19.27,0,0,1,7.8,97.42l-3.29,5.45a25,25,0,0,0,14,4.69c7.2,0,13.77-2.73,13.77-10.83,0-6.92-4.2-9.16-12.38-12.31-5.53-2.17-6.78-3.49-6.78-5.31s1.54-3.36,5-3.36a16,16,0,0,1,9.51,3.14l3.15-5.52a21.87,21.87,0,0,0-12.45-4.06c-7.34,0-12.51,3.43-12.51,10,0,5.8,2.87,8.46,10.77,11.54,5.31,2,8.53,3.36,8.53,6.15C25.21,99.59,23,101.05,18.5,101.05Z"/><path class="cls-2" d="M59.68,73.51a13,13,0,0,0-9.23-4.2c-7.62,0-14.48,6-14.48,18.53,0,14,6.22,19.72,14.13,19.72,3.85,0,6.92-1.82,9.58-4.27v17l7.13-3.71V70.08H59.68Zm.07,22.72c-1.89,2.38-4.9,4.69-8.32,4.69-5.32,0-8.25-4.05-8.25-13.29,0-7.76,2.8-11.67,8-11.67,3.64,0,7,2.66,8.6,4.82Z"/><path class="cls-2" d="M85.9,107.56c3.78,0,7.41-1.61,9.23-4.27v3.49h7.21V70.08H95.13V91.54c0,5.95-2.73,9.37-7.55,9.37S80,98.26,80,90.85V70.08H72.8v21C72.82,102,77.36,107.56,85.9,107.56Z"/><path class="cls-2" d="M130.22,103.15v3.64h7.06V81.61c0-8.32-5.59-12.31-13.77-12.31a22.77,22.77,0,0,0-12.59,3.29l2.8,5.46a18.5,18.5,0,0,1,9.58-2.31c4.47,0,6.92,2.24,6.92,6.22v2.73a20.25,20.25,0,0,0-8.18-1.4c-8.32,0-14.61,3.7-14.61,11.88,0,9,6.78,12.38,12.72,12.38A14.44,14.44,0,0,0,130.22,103.15ZM114.28,95c0-3.36,2.94-5.45,7.55-5.45a18.12,18.12,0,0,1,8.39,1.61V96.4a11.54,11.54,0,0,1-8.88,4.69C116.59,101.05,114.28,98.61,114.28,95Z"/><path class="cls-2" d="M158.61,76.37a10.76,10.76,0,0,1,5.53,1.33L166,70.85a10.57,10.57,0,0,0-6.22-1.54,10.18,10.18,0,0,0-8.39,4.26V70.08h-7.2v36.71h7.2v-21C151.41,79.59,154.07,76.37,158.61,76.37Z"/><path class="cls-2" d="M197.49,87.7c0-9.93-5-18.39-15.45-18.39C172.53,69.31,166,76,166,88.47c0,12.16,7.27,19.09,15.87,19.09,5.59,0,9.44-1.75,12.65-4.82l-4.27-4.62a12.86,12.86,0,0,1-8,2.94c-4.47,0-8.46-3-9.23-10.07h24.26A25.61,25.61,0,0,0,197.49,87.7ZM173.15,85c.63-5.87,3.56-9.23,8.39-9.23,5.94,0,8.32,4.2,8.67,9.23Z"/><path class="cls-2" d="M14.57,130c0-2.54-1.67-3.49-4.18-3.49H5.6v10.71H8.52v-3.61H9.71l1.74,3.61h3.32l-2.14-4.09A3.17,3.17,0,0,0,14.57,130Zm-4.3,1.27H8.52V129h1.79c.93,0,1.3.47,1.3,1.15s-.38,1.14-1.34,1.14Z"/><polygon class="cls-2" points="19.5 132.92 22.66 132.92 22.66 130.46 19.5 130.46 19.5 129.03 24.77 129.03 24.77 126.54 16.56 126.54 16.56 137.25 24.87 137.25 24.87 134.75 19.5 134.75 19.5 132.92"/><path class="cls-2" d="M31.18,130.48c-1.37-.32-1.76-.51-1.76-.91s.21-.66,1.1-.66a5.19,5.19,0,0,1,3,1L35,127.58a7,7,0,0,0-4.27-1.24c-2.59,0-4.22,1.36-4.22,3.38s1.24,2.85,3.82,3.44c1.44.34,1.82.58,1.82,1s-.34.69-1.39.69a6.43,6.43,0,0,1-3.14-1.07l-1.44,2.33a8.54,8.54,0,0,0,4.51,1.3c2.57,0,4.42-1,4.42-3.46C35.07,132,33.88,131.12,31.18,130.48Z"/><polygon class="cls-2" points="45.07 126.54 36.1 126.54 36.1 129.12 39.1 129.12 39.1 137.25 42.07 137.25 42.07 129.12 45.07 129.12 45.07 126.54"/><path class="cls-2" d="M47.52,126.53l-3.89,10.71h3.18l.58-1.88H50.6l.58,1.88h3.21L50.5,126.53Zm.6,6.48.2-.71c.38-1.36.55-2,.69-2.68.14.72.31,1.3.69,2.68l.2.71Z"/><path class="cls-2" d="M61.71,132.67c0,1.32-.49,2.13-1.66,2.13s-1.68-.81-1.68-2.13v-6.13h-3v6.13c0,3.4,2,4.75,4.67,4.75s4.73-1.35,4.73-4.75v-6.13h-3Z"/><path class="cls-2" d="M75.82,130c0-2.54-1.67-3.49-4.18-3.49H66.86v10.71h2.92v-3.61H71l1.74,3.61H76l-2.14-4.09A3.17,3.17,0,0,0,75.82,130Zm-4.3,1.27H69.78V129h1.79c.93,0,1.3.47,1.3,1.15s-.38,1.14-1.34,1.14Z"/><path class="cls-2" d="M80.83,126.53l-3.89,10.71h3.18l.58-1.88h3.21l.58,1.88H87.7l-3.89-10.71Zm.6,6.48.2-.71c.38-1.36.55-2,.69-2.68.14.72.31,1.3.69,2.68l.2.71Z"/><path class="cls-2" d="M95.81,129.46a24.61,24.61,0,0,0,.09,2.77,30.08,30.08,0,0,0-1.67-2.52l-2.36-3.17H89.26v10.71h2.85V134a24.61,24.61,0,0,0-.09-2.77c.28.48,1.19,1.86,1.67,2.51l2.56,3.54h2.42V126.54H95.82Z"/><polygon class="cls-2" points="100.39 129.12 103.39 129.12 103.39 137.25 106.35 137.25 106.35 129.12 109.36 129.12 109.36 126.54 100.39 126.54 100.39 129.12"/><path class="cls-2" d="M123.41,132.9l-1.92-1c-.3.57-.57,1-.82,1.45l-2-2.29a.88.88,0,0,1-.3-.64c0-.22.24-.4.64-.4a4,4,0,0,1,2.06.62l1-1.89a5.68,5.68,0,0,0-3.07-.84c-1.83,0-3.16.82-3.16,2.47a2.73,2.73,0,0,0,.83,1.8l.08.09a3.24,3.24,0,0,0-1.92,2.64c0,1.76,1.21,2.48,2.77,2.48a4.74,4.74,0,0,0,2.86-.9l.66.75H124l-2-2.3A21.52,21.52,0,0,0,123.41,132.9Zm-5.11,2.47c-.76,0-1-.32-1-.78s.21-.65.68-1l1.28,1.46A1.65,1.65,0,0,1,118.3,135.37Z"/><path class="cls-2" d="M137.33,131.42a2.19,2.19,0,0,0,1.28-2.1c0-1.79-1.08-2.79-3.75-2.79h-5.17v10.72h5.14c2.7,0,4-1.27,4-3.46A2.37,2.37,0,0,0,137.33,131.42Zm-4.79-2.54h2.23c.7,0,.93.37.93.84s-.24.84-.93.84h-2.23Zm2.34,6h-2.34V132.8h2.36a.94.94,0,0,1,1.06,1,1,1,0,0,1-.88,1.11h-.21Z"/><path class="cls-2" d="M143.24,126.53l-3.89,10.71h3.18l.58-1.88h3.21l.58,1.88h3.21l-3.89-10.71Zm.6,6.48.2-.71c.38-1.36.55-2,.69-2.68.14.72.31,1.3.69,2.68l.2.71Z"/><path class="cls-2" d="M161.18,126.54h-3.61l-.86,1.08c-.69.87-1.62,2.11-2.06,2.82v-3.91h-3v10.71h3V134l1.1-1.33,2.23,4.56h3.52l-3.5-6.91Z"/><polygon class="cls-2" points="165.84 132.92 169 132.92 169 130.46 165.84 130.46 165.84 129.03 171.1 129.03 171.1 126.54 162.9 126.54 162.9 137.25 171.21 137.25 171.21 134.75 165.84 134.75 165.84 132.92"/><path class="cls-2" d="M182.07,130c0-2.54-1.67-3.49-4.18-3.49H173.1v10.71H176v-3.61h1.19l1.75,3.61h3.32l-2.14-4.09A3.17,3.17,0,0,0,182.07,130Zm-4.3,1.27H176V129h1.79c.93,0,1.3.47,1.3,1.15s-.35,1.14-1.32,1.14Z"/><path class="cls-2" d="M189.23,128.16a21.68,21.68,0,0,0-1.22,2.77,21.68,21.68,0,0,0-1.22-2.77l-.83-1.62h-3.43l4,6.76v3.95h3v-4l4-6.72h-3.4Z"/></svg>