<svg id="Layer_1" data-name="Layer 1" xmlns="http://www.w3.org/2000/svg" viewBox="0 0 179.61 135.98"><defs><style>.cls-1{fill:#010101;}.cls-2{fill:#fafafa;}.cls-3{fill:#fcfcfc;}.cls-4{fill:#23201e;}.cls-5{fill:#1389c7;}</style></defs><title>Bar Louie</title><path class="cls-1" d="M104.44.5h3.12A11.34,11.34,0,0,1,109,.85a2.21,2.21,0,0,1,1.7,2.62l0,.13a5.63,5.63,0,0,1-.25.85L98.59,38.62c-.13.39-.14.52.34.55a159,159,0,0,1,18.77,2.1,134.36,134.36,0,0,1,23,6,88.68,88.68,0,0,1,21,10.64A49.12,49.12,0,0,1,173.3,69a29.84,29.84,0,0,1,5.45,12.26,12.84,12.84,0,0,0,.36,2.11v4.68c-.17.05-.1.2-.11.3a27.21,27.21,0,0,1-.78,4,33,33,0,0,1-7.77,13.38,58.61,58.61,0,0,1-13.18,10.54,98.4,98.4,0,0,1-21.07,9.35,138.3,138.3,0,0,1-22,5c-4.18.62-8.38,1.06-12.59,1.36-4.77.34-9.55.44-14.33.39a1.58,1.58,0,0,0-.69.16,37.8,37.8,0,0,1-7,2.68,8.09,8.09,0,0,1-3.45.15c-.92-.2-1.12-.75-.54-1.5a5.91,5.91,0,0,1,1.31-1.18l1-.7a161.57,161.57,0,0,1-18.07-2.32,127,127,0,0,1-26.25-7.74,76.66,76.66,0,0,1-19.89-11.83A40.35,40.35,0,0,1,3.69,98,25.25,25.25,0,0,1,2.1,76.85a36.27,36.27,0,0,1,9.74-14,67.23,67.23,0,0,1,14.8-10.27c.92-.49,1.86-1,2.88-1.47l-5.44-.78a8.44,8.44,0,0,1-2.84-.74,2.1,2.1,0,0,1-1.16-2.51,6,6,0,0,1,.91-2,25.82,25.82,0,0,1,4.19-4.73,121.59,121.59,0,0,1,11.34-9.1l.8-.59L37,30.43,24.71,23.37c-.73-.43-1.49-.81-2.18-1.3a3,3,0,0,1,.84-5.5,5.25,5.25,0,0,1,3.89.4q8.16,4.24,16.3,8.54a.65.65,0,0,0,.75,0q9-5.39,18.4-10A227.55,227.55,0,0,1,88.45,4.62,84.36,84.36,0,0,1,102.81.76,6,6,0,0,0,104.44.5ZM88.94,20.58c.11,0,.19,0,.12-.12h0c.21.08.28-.05.33-.22h0c.09,0,.17,0,.12-.12h0a.4.4,0,0,0,.43-.32h0c.1,0,.19,0,.12-.12h0c.21.07.28-.05.33-.22h0c.09,0,.18,0,.12-.12h0a.38.38,0,0,0,.43-.32h0a.38.38,0,0,0,.43-.32h0c.12.11.18,0,.25-.07,1.78-1.29,3.58-2.56,5.29-3.94a17.36,17.36,0,0,0,3.11-3h.22c-.66,2.08-1.43,4.11-2.17,6.16C92.35,33.62,86,49.13,79.16,64.44a11,11,0,0,1-1,2.06c-1.21,1.65-1,3.33-.34,5.07a1.33,1.33,0,0,0,2.36.31,16.9,16.9,0,0,0,1.1-1.57,4.64,4.64,0,0,1,.86-1.13c.5,1,1,2,1.46,3,.11.22.21.4.52.25a31,31,0,0,0-1.9-3.38c-.07-.11-.11-.27-.3-.19l-.12-.09c.15-.36.29-.29.47,0a30.61,30.61,0,0,1,1.95,3.41.42.42,0,0,0,.62.26l-.67-1.39.1-.12c.23.42.46.84.67,1.27.09.18.17.31.41.3H87.3L86.11,70l.1-.12c.35.78.71,1.56,1,2.35.13.31.28.45.61.31a31.65,31.65,0,0,0-2.25-4.73l.1-.12a25.1,25.1,0,0,1,2.25,4.53c.14.32.29.48.65.28-1.15-2.4-2.3-4.81-3.46-7.2a1,1,0,0,1,0-.91q1.19-2.62,2.34-5.26Q98.67,33.42,107.53,6.8a7.14,7.14,0,0,0,.57-2.41,2,2,0,0,0-2.53-2.07A5.41,5.41,0,0,0,102.69,4c-1.3,1.32-2.58,2.66-3.9,4A140.63,140.63,0,0,1,84.44,20.52,108.1,108.1,0,0,1,58.81,35.1c-.93.37-1.73.6-2.53-.17h-.05l-1.06-.69-6.56-4.1.58-.4A170.42,170.42,0,0,1,68.5,18.61c4.26-2.15,8.55-4.24,12.82-6.36a7.74,7.74,0,0,0,1.79-1.14c.24-.22.52-.47.42-.83s-.44-.4-.75-.46a7,7,0,0,0-3.42.4,130,130,0,0,0-13.55,5.47,48.52,48.52,0,0,0-4.39,2.19c-.13.07-.35,0-.4.2a4.75,4.75,0,0,0-1.57.84h0c-.09,0-.22-.07-.23.11h0c-.1,0-.22-.05-.23.12h0c-.1,0-.2,0-.23.12h0c-.1,0-.2,0-.23.12h0c-.1,0-.19,0-.23.12h0a1.23,1.23,0,0,0-.74.43h0c-.1,0-.22,0-.23.12h0c-.11,0-.2,0-.23.12h0c-.1,0-.2,0-.23.12h0c-.21.06-.44.08-.53.33h0c-.13-.08-.2,0-.23.11h0c-.2-.06-.32.1-.46.18-3.75,2-7.42,4.24-11,6.51a.59.59,0,0,1-.69.06L26.31,17.68a2.54,2.54,0,0,0-2.14-.28,2.28,2.28,0,0,0-1.43,1.11,1.49,1.49,0,0,0,0,2.41,9,9,0,0,0,.87.46c4.6,2.5,9.08,5.21,13.62,7.81l2.45,1.4a35.63,35.63,0,0,0-3.87,2.52,69.25,69.25,0,0,0-6.44,5.55c0,.09-.24.11-.11.27h0q-.19-.08-.11.11h0Q29,39,29,39.15h0q-.2-.08-.11.11h0q-.2-.08-.11.12h0q-.2-.09-.12.12h0q-.2-.09-.12.12h0c-.18,0-.28,0-.22.22h0q-.2-.09-.12.12h0q-.2-.09-.12.12h0q-.2-.09-.12.12h0q-.2-.09-.12.12h0q-.2-.09-.12.12h0c-.14-.06-.17,0-.12.12h0c-.15-.07-.13,0-.12.12h0q-.16,0-.12.12h0q-.16,0-.12.12h0c-.11,0-.15,0-.12.12h0c-.12,0-.12,0-.12.12h0q-.14,0-.12.12h0c-.09,0-.13,0-.12.12h0c-.09,0-.11,0-.12.12h0c-.17,0-.24.19-.33.32h0c-.07.06-.2.09-.11.23h0c-.15-.08-.13,0-.12.12h0c-.11,0-.15,0-.12.12h0c-.12,0-.12,0-.12.12h0c-.09,0-.13,0-.12.12h0a.58.58,0,0,0-.32.32h0c-.07.06-.18.09-.11.22h0a11.51,11.51,0,0,0-2.68,3.6A1.52,1.52,0,0,0,23.91,49c.85.16,1.72.19,2.57.36,7.34,1.43,14.58,3.26,21.74,5.39a114,114,0,0,1,17,6.3,3,3,0,0,0,1.55.32,24.58,24.58,0,0,0,5.1-.89,8.29,8.29,0,0,0,2.27-.88c.48-.3.48-.53,0-.82L69.51,56c-.11-.07-.21-.19-.37-.14h0c0-.13-.09-.19-.23-.11h0a.61.61,0,0,0-.53-.33h0c0-.14-.12-.14-.23-.12h0c0-.13-.09-.19-.23-.11h0c-.1-.23-.32-.28-.53-.33h0c0-.13-.12-.13-.22-.12h0c0-.13-.12-.14-.23-.12h0c0-.16-.12-.14-.23-.12h0c0-.13-.09-.19-.22-.12h0c0-.18-.17-.18-.27-.23a102.41,102.41,0,0,0-9.59-4.45,95.32,95.32,0,0,0-25-6.27L29.89,43c1.26-1.06,2.42-2,3.58-3a.5.5,0,0,1,.48-.09c.59.12,1.19.21,1.78.35A37.28,37.28,0,0,0,48.14,41l-.39-.08-.1-.17,1.24-.09v.29s-.14,0-.11.08l.11-.08c.22,0,.33-.07.32-.3l.93-.1v.18c.11.21.24.08.37,0h.13a1.57,1.57,0,0,0,.79-.09h0a1.48,1.48,0,0,0,.76-.09h0a1.31,1.31,0,0,0,.91-.18h-.24l-.05-.21,1.61-.25.26.11h-.15c-.08.2.09.12.15.12l3.25-.36a.9.9,0,0,1,.59.09l4.2,2.37a.38.38,0,0,1,.24.44,6.18,6.18,0,0,0,1.32,4.72A12,12,0,0,0,72.4,52a7.31,7.31,0,0,0,4.6-.59A3.43,3.43,0,0,0,78.71,47a7.69,7.69,0,0,0-1.38-2.36l-.15-.17a2.3,2.3,0,0,0-.48-.58l-.08-.08-.13-.14-.13-.12h0a11.2,11.2,0,0,0-2.41-2,9.78,9.78,0,0,0-8.67-1.28.38.38,0,0,1-.35,0l-2.8-1.68c-.23-.14,0-.16,0-.25h0a8.58,8.58,0,0,0,3-.33l6.43-2.48a113.5,113.5,0,0,0,10.77-4.46A13.08,13.08,0,0,0,86,28.69a1.51,1.51,0,0,0,0-2.46,1.56,1.56,0,0,1-.39-1.81,5.48,5.48,0,0,1,.92-1.49c.27-.35.67-.58.85-1h0c.09,0,.17,0,.12-.11h0c.12,0,.18,0,.11-.12h0c.13.06.18,0,.12-.12h0c.29,0,.42-.21.54-.43h0c.09,0,.15,0,.12-.12h0c.09,0,.19,0,.12-.12h0a.43.43,0,0,0,.43-.32h0c.09,0,.17,0,.12-.12Zm-.13,107.74c-.1,0-.2,0-.25.1h0c-.09,0-.17,0-.2.1h0a.25.25,0,0,0-.3.1.38.38,0,0,0-.33.11l.37.13-.62.27c-.08-.47-.34-.2-.52-.11s-.17.26-.32.32,0-.09-.07-.1-.13,0-.13.11h0a1.14,1.14,0,0,0-.75.32h0a1.12,1.12,0,0,0-.75.32h0a20.58,20.58,0,0,0-2.86,1.17,47.3,47.3,0,0,0-4.84,2.21,3.41,3.41,0,0,0-1,.75c-.24.3-.17.5.21.58a2,2,0,0,0,.87,0c.08,0,.2.08.2-.09h0a1.21,1.21,0,0,0,.79-.1c1.32-.34,2.57-.87,3.85-1.3a3.18,3.18,0,0,0,1.17-.47h0a.43.43,0,0,0,.37-.08v-.25l.53-.18c0,.15,0,.34.24.24s.8-.3,1.21-.43c.2-.06.22-.18.22-.34l5.91-2H92a.21.21,0,0,0,.29.06l.06-.06h0a.33.33,0,0,0,.3-.1h0a.33.33,0,0,0,.3-.1h0c.12,0,.23,0,.3-.1h0c.12,0,.23,0,.3-.1h0c.1,0,.21,0,.25-.1h0c.12,0,.24.06.3-.1h0a2.21,2.21,0,0,0,1.18-.41h0a1.87,1.87,0,0,0,.35,0c4.48-1.52,9-3,13.34-4.87a41.9,41.9,0,0,0,8.59-4.57c.14-.11.38-.15.38-.4h0a.54.54,0,0,0,.53-.42h0c.16.13.21-.05.28-.11a14.32,14.32,0,0,0,2.71-2.91,9.12,9.12,0,0,0,1.63-3.27,2.27,2.27,0,0,0-.57-2.25h0c.06-.12,0-.17-.11-.22h0c0-.07,0-.11-.12-.12-.08-.38-.28-.51-.64-.29l-.3-.19c.32-.12.33-.14.16-.26s-.33-.27-.57-.18c-.05-.24-.28-.24-.44-.3a8.06,8.06,0,0,0-3.88-.38c-.73.08-1.4.35-2.11.49-.23.09-.63,0-.5.47a7.9,7.9,0,0,1-2,.54c0-.13.2-.26,0-.37s-.26.19-.44.18a2.16,2.16,0,0,0-.36,0,8.43,8.43,0,0,1-5-1c-.22-.11-.42-.31-.7-.27v-.07l-.08.08a1.41,1.41,0,0,1-.85-1.06h.12v.17h.05s0-.18-.1-.12c.11-.28-.11-.47-.21-.67-1.51-3.16-3-6.32-4.53-9.49-.2-.43-.43-.59-.88-.43a1.35,1.35,0,0,0,.06.19,89.7,89.7,0,0,0,4.38,8.65c.07.12.23.21.15.39s-.21-.12-.26-.21c-.37-.62-.74-1.24-1.08-1.88C101.1,101.3,100,99,99,96.7c-.1-.21-.19-.44-.48-.35s.07.27,0,.4l-.11.13c-.18-.17-.1-.56-.5-.54h-1.8c0,.38.3.61.33.94l-.1.12c-.13-.26-.28-.51-.39-.77a.39.39,0,0,0-.59-.23,4.89,4.89,0,0,1,.22.51c.07.24.34.41.23.71-.35-.25-.37-.69-.59-1-.07-.11-.11-.31-.27-.25s0,.23,0,.33q2.38,4.87,4.77,9.72c0,.1,0,.28.23.25h0c-.07.13,0,.2.12.22h0c0,.1-.06.2.1.2h0c-.07.1,0,.17.06.22s0,.17.1.21,0,.17.11.21l.07.18h.07l-.1-.16-.21-.42V107l.09-.13.86,1.75c-.23.36,0,.6.21.85,0,.07,0,.13.1.15h0c0,.08,0,.17.11.17h0c0,.09,0,.2.12.23h0a18.21,18.21,0,0,0,1.25,2.31,3.26,3.26,0,0,0,2.61,1.74,13.4,13.4,0,0,0,1.5.13,26.57,26.57,0,0,0,8.58-1.28,3.33,3.33,0,0,0,1.07-.45,3.51,3.51,0,0,0-1,0v-.17a3.45,3.45,0,0,1,1-.06c.35.07.66.17.67.58a1.23,1.23,0,0,1-.54,1c.06-.43.56-.76.18-1.35a4.61,4.61,0,0,1-1,1.63,13.78,13.78,0,0,1-2.39,2,78.25,78.25,0,0,1-10.28,5.62,7.43,7.43,0,0,0-1.66.85h0a1.83,1.83,0,0,0-1,.43h0c-.1,0-.2,0-.22.12h0a1.33,1.33,0,0,0-.75.32c-.24,0-.18.16-.08.29l-.53.23c-.12-.06-.11-.38-.36-.19s-.19.25,0,.32l-.83.37c0-.12.16-.23,0-.32s-.2,0-.26.11a.18.18,0,0,0,.11.26l-.61.27c0-.21-.13-.32-.32-.18s.08.18.1.28l-.51.22c0-.1,0-.23-.14-.23s-.17.1-.25.16l.18.17-.59.24c-.13,0-.21-.29-.37-.1s0,.18.12.21l-.6.27c0-.22-.2-.25-.33-.15s.09.15.11.25l-.37.15c-.16-.07-.34-.23-.5-.05s.11.13.14.22l-2,.87c-.15-.07-.3-.28-.48-.09s.11.16.13.25l-.51.22c0-.21-.12-.32-.32-.18s.08.18.1.28l-.37.15c-.16-.07-.3-.29-.49-.09s.11.16.13.26l-.51.22c0-.25-.17-.24-.34-.13s-.2,0-.18.13h0c-.1,0-.21,0-.25.1h0c-.1,0-.21,0-.25.1Zm24.67-19.43c.08,0,.18,0,.16-.15s-.07,0-.08,0l-.11.15s-.16,0-.12.09.13,0,.17-.09Zm62.82-23.6a17.06,17.06,0,0,0-.24-2.9,26.09,26.09,0,0,0-3.64-9.82A42.4,42.4,0,0,0,161.09,60.7,79.16,79.16,0,0,0,143.28,51,125.61,125.61,0,0,0,121,44.53c-4.75-.94-9.53-1.64-14.34-2.14-3.17-.33-6.34-.57-9.52-.66-1,0-1,0-1,1,0,.31.11.36.39.37q3.58.13,7.15.44,4.06.33,8.1.87,5.85.8,11.62,2A119.21,119.21,0,0,1,144.5,53a70.86,70.86,0,0,1,19,11.34,35.17,35.17,0,0,1,9,11.22,21.8,21.8,0,0,1,1.36,16.75,30.41,30.41,0,0,1-7.6,12,60.33,60.33,0,0,1-15.83,11.23,99.92,99.92,0,0,1-15.69,6.34,131.9,131.9,0,0,1-16.06,3.93q-5.12.93-10.31,1.5c-2.6.29-5.2.51-7.8.69-1.15.08-1-.19-1,1.12,0,.26.09.33.33.31,3.5-.24,7-.54,10.48-1,4-.51,8.06-1.16,12.05-2a122.58,122.58,0,0,0,20.74-6.14A80,80,0,0,0,160.59,111a44.17,44.17,0,0,0,11.3-11.41,25.48,25.48,0,0,0,4.42-14.29ZM34.62,51.79h-.1a79.46,79.46,0,0,0-14.44,7.83A45.16,45.16,0,0,0,7.62,72,25.1,25.1,0,0,0,3.35,84.85,24,24,0,0,0,6.19,97a38.65,38.65,0,0,0,10.36,12.16,71.62,71.62,0,0,0,16,9.59c11.87,5.3,24.36,8.23,37.21,9.85,3.45.44,6.91.71,10.38.93.76,0,1.52.08,2.28.11.13,0,.35.1.35-.17a3,3,0,0,0-.06-1.12c-.08-.19-.53-.11-.82-.12q-6.43-.29-12.81-1.11-5.83-.74-11.59-1.94a119.21,119.21,0,0,1-23.3-7.21A70.18,70.18,0,0,1,16.4,107.25,35.66,35.66,0,0,1,7.09,95.76,22.27,22.27,0,0,1,4.81,83.62,23.94,23.94,0,0,1,8.37,73.35,40.94,40.94,0,0,1,18.81,62.29a73.85,73.85,0,0,1,14.74-8.56c1.18-.53,1.18-.53,1.13-1.83ZM20.39,74.38H18.92a2.3,2.3,0,0,0-1.5.46,1,1,0,0,0-.3,1.08.81.81,0,0,0,.79.63,5.13,5.13,0,0,1,.67.09.87.87,0,0,1,.8.7,2,2,0,0,1,0,1c-.27,1.1,0,2.28-.46,3.35a67.4,67.4,0,0,1-.23,7.86,3.91,3.91,0,0,1-.06.83c-.07.91-.35,1.64-1.44,1.74a.72.72,0,0,0-.66.85,1.4,1.4,0,0,0,1.33,1.4c2.43.3,4.89.17,7.33.34h1.94A10.19,10.19,0,0,0,31,93.53a4.24,4.24,0,0,0,2.63-3.35c.08-.53.12-1.06.16-1.6a3.15,3.15,0,0,0-.68-2.17,21,21,0,0,0-1.47-1.88,1.34,1.34,0,0,1-.13-1.83,3.59,3.59,0,0,0,.81-2.05,1.16,1.16,0,0,1,.3-.65,1,1,0,0,0,.07-1.12,12.83,12.83,0,0,1-1-2,2.42,2.42,0,0,0-1.58-1.72c-.5-.21-1.18-.1-1.51-.36-.75-.57-1.61-.36-2.38-.5a22.7,22.7,0,0,0-4.07,0A15,15,0,0,0,20.39,74.38Zm70,20.68c1.51,0,3-.15,4.4-.21,1,0,1.41-.41,1.47-1.45a16.19,16.19,0,0,1,.22-3.56A3.17,3.17,0,0,0,95.81,87a1.25,1.25,0,0,0-1.3-.58,1.34,1.34,0,0,0-1.09,1.05,3.26,3.26,0,0,0,0,2.18.84.84,0,0,1,0,.56,14.13,14.13,0,0,1-.56,1.88.53.53,0,0,1-.43.36,4,4,0,0,1-1.74-.08,8.6,8.6,0,0,0-3.42-.2c-1.3.29-2.24-.26-2.38-1.38-.16-1.31-.61-2.65,0-4a.27.27,0,0,0,0-.15A9.41,9.41,0,0,1,85,84a3.05,3.05,0,0,0-.19-1.59,3,3,0,0,1-.14-1.93,3.49,3.49,0,0,0-.11-2.06.63.63,0,0,1,.12-.73,2.06,2.06,0,0,1,1.77-.65,6.31,6.31,0,0,0,2.42.06,1.11,1.11,0,0,0,.89-1.65,1.37,1.37,0,0,0-1.22-.75,2.86,2.86,0,0,1-.82-.09,8,8,0,0,0-3-.23c-1,0-2,.53-3.05.07h-.15a3.27,3.27,0,0,1-1.69,0,1.33,1.33,0,0,0-1.55,1.07v0A1.2,1.2,0,0,0,79.52,77h1.3a.94.94,0,0,1,.9.49,1.82,1.82,0,0,1,.35,1,31.13,31.13,0,0,1,0,4.48,1.68,1.68,0,0,0,.07.72,3.65,3.65,0,0,1,.22,1.73,9.85,9.85,0,0,0-.11,1.91,2.57,2.57,0,0,1-.08.82,3.79,3.79,0,0,0,0,2.34,2.31,2.31,0,0,1,0,1.27.73.73,0,0,1-.82.62l-.11,0c-.39-.08-.79-.1-1.18-.18a1.88,1.88,0,0,0-2,.64,1,1,0,0,0,0,1.37,2,2,0,0,0,2.12.75,6,6,0,0,1,1.74-.18,7.29,7.29,0,0,0,2.26.13,5.13,5.13,0,0,1,1.74-.18,30.53,30.53,0,0,0,4.43.4Zm67.12-.33a23.19,23.19,0,0,0,2.49-.08c.69-.08,1.34-.35,2-.43a2.6,2.6,0,0,0,1.42-.56,3.23,3.23,0,0,1,1.13-.6.86.86,0,0,0,.7-1h0c-.07-.59-.52-.56-.93-.57a23.5,23.5,0,0,0-3.81.44,17.21,17.21,0,0,1-4.78.37,6.2,6.2,0,0,1-3.87-1.88,2.44,2.44,0,0,1-.79-1.59c0-.39.13-.58.56-.62a16.24,16.24,0,0,1,3.51-.1,19.18,19.18,0,0,0,2.58-.09c.57,0,1.12.25,1.69.2,1.45-.14,2.89-.31,4.34-.32,1,0,1.51-.79,1.32-1.82a16.31,16.31,0,0,1-.43-1.86,1.24,1.24,0,0,0-.67-1,1.28,1.28,0,0,1-.58-.58,4.89,4.89,0,0,0-2.6-2.33,3,3,0,0,0-1.1-.42c-.83-.07-1.66-.15-2.48-.2a2,2,0,0,0-1,.09,4.83,4.83,0,0,1-1.66.32,3.72,3.72,0,0,0-1.91.55,6.83,6.83,0,0,0-2,2.18,4.34,4.34,0,0,1-1.48,1.62.93.93,0,0,0-.53.73,8.57,8.57,0,0,0,.2,3.13,17.6,17.6,0,0,1,.55,1.78,3.54,3.54,0,0,0,.93,1.71c.63.6,1.27,1.18,1.91,1.76a4.17,4.17,0,0,0,1.44.79,11.08,11.08,0,0,0,3.81.38Zm-109,0a8.55,8.55,0,0,0,1.61-.06A1.16,1.16,0,0,0,51.2,93.6c.06-.5-.14-.78-.78-1.06a3.9,3.9,0,0,0-.68-.24,2,2,0,0,1-1.19-3,2.2,2.2,0,0,0,.18-1.9,2.11,2.11,0,0,1-.08-1.59.48.48,0,0,0-.07-.45,2.4,2.4,0,0,1-.22-1.25,3.94,3.94,0,0,0-2.84-3.58,17.76,17.76,0,0,0-7.2,0,1.43,1.43,0,0,0-1.13.66,1.25,1.25,0,0,0,.28,1.48c.38.41.74.85,1.41.58a6.11,6.11,0,0,1,2.42-.61,11.18,11.18,0,0,1,2.15-.2,6.85,6.85,0,0,1,2.23.92,1.35,1.35,0,0,1,.75,1.13,1.12,1.12,0,0,1-.54,1.12,1,1,0,0,1-1.24.06,1.62,1.62,0,0,0-.82-.27,17.36,17.36,0,0,0-5.28.57,2,2,0,0,0-1.36,1,1.43,1.43,0,0,1-.26.39,3.53,3.53,0,0,0-1.24,2.35,3.81,3.81,0,0,0,.9,3.33,6,6,0,0,0,5.65,1.64,26.21,26.21,0,0,0,2.61-.8.9.9,0,0,1,.89.07,3.74,3.74,0,0,0,2.69.73ZM107,80.11h-.73a5.09,5.09,0,0,0-3.63,1.09.65.65,0,0,1-.37.16,1.36,1.36,0,0,0-1.25.93,1.65,1.65,0,0,1-.66,1A2.46,2.46,0,0,0,99.32,85a6.7,6.7,0,0,0-.09,1.76,1.57,1.57,0,0,1-.22.83A1,1,0,0,0,99.16,89a1.11,1.11,0,0,1,.38.6,2.69,2.69,0,0,0,.94,1.93,1,1,0,0,1,.24.39c.11.29.1.71.3.86a16.4,16.4,0,0,0,2.35,1.49,5.19,5.19,0,0,1,1,.38,1.63,1.63,0,0,0,.74.36,10,10,0,0,0,5.74-.62,4.93,4.93,0,0,0,3.06-3,1,1,0,0,1,.38-.54,1.18,1.18,0,0,0,.45-.89c.16-1.1.28-2.19.35-3.3a2.22,2.22,0,0,0-.61-1.85,1.88,1.88,0,0,1-.57-1.17,4.72,4.72,0,0,0-.23-.9,1,1,0,0,0-.67-.67,4.75,4.75,0,0,1-1.59-.72,6.09,6.09,0,0,0-4.47-1.27Zm22.92,14.47H131A2.23,2.23,0,0,0,132.4,94c.54-.45.49-.89-.13-1.2a6.54,6.54,0,0,0-1.72-.55.46.46,0,0,1-.44-.24,4,4,0,0,1-.53-2.82,3.29,3.29,0,0,0,.06-1.73,4.86,4.86,0,0,1-.11-1.74c.11-1.38.2-2.76.26-4.14a1.17,1.17,0,0,0-1-1.35h-.24c-.91-.1-1.82-.19-2.74-.23a4.6,4.6,0,0,0-1.65.08.85.85,0,0,0-.64,1l0,.12a1.41,1.41,0,0,0,1.34,1h1.3c.66,0,1,.24.84.88-.16.93.4,1.75.32,2.67v1c0,.14-.09.29,0,.4a6.44,6.44,0,0,1,.22,1.79,1.57,1.57,0,0,1-.43,1.28,5.14,5.14,0,0,1-1,.78,5.6,5.6,0,0,1-5.23.64,1.72,1.72,0,0,1-1.28-2.07l0-.11a3.21,3.21,0,0,0,.13-1.07c-.17-.94-.07-1.91-.22-2.84a12.14,12.14,0,0,1,.19-3.86,1.14,1.14,0,0,0-.94-1.5,6.84,6.84,0,0,0-2.58-.05c-.74.11-1.11.46-1.12.9s.27.72,1.07.93c.37.1.84.19.9.6a23.18,23.18,0,0,0,.53,2.54.59.59,0,0,1,0,.31,2.64,2.64,0,0,0-.07.77,8.45,8.45,0,0,1-.29,3.13.3.3,0,0,0,0,.2c.38,1,.34,2,.64,3a1.82,1.82,0,0,0,1.28,1.36c.64.19,1.28.4,1.93.56a6.13,6.13,0,0,0,4.44-.27,6.32,6.32,0,0,1,.88-.31,1.11,1.11,0,0,1,1,.1,4.07,4.07,0,0,0,2.39.55ZM55.81,80.27h-1.2a1.18,1.18,0,0,0-1.23,1.13s0,0,0,.06a1.33,1.33,0,0,0,1.18,1.11h1.14a1,1,0,0,1,1.11,1.11,11.38,11.38,0,0,1-.08,1.45,4.61,4.61,0,0,0,.18,2.49,1.74,1.74,0,0,1,.12.82c-.07,1-.14,2-.26,2.94a1.16,1.16,0,0,1-1.16,1.16H54.1a1.68,1.68,0,0,0-1,.41,1,1,0,0,0,.14,1.75,4.48,4.48,0,0,0,2,.18,8,8,0,0,1,3.28,0,1.61,1.61,0,0,0,.77,0,8.4,8.4,0,0,1,3.19.09,2.27,2.27,0,0,0,2.16-.58,1.31,1.31,0,0,0,.29-1.48,1.17,1.17,0,0,0-1.12-.78,3.7,3.7,0,0,0-.93,0A9.54,9.54,0,0,1,60,92.06a1.38,1.38,0,0,1-.72-.26.61.61,0,0,1-.3-.72,6.65,6.65,0,0,0,.1-3.37A3.18,3.18,0,0,1,59.72,85a7.54,7.54,0,0,1,3.91-2.2,2.36,2.36,0,0,1,1.83.37,1.59,1.59,0,0,0,2.07,0,1.89,1.89,0,0,0,1-1.61c0-.7-.64-1-1.17-1.26a4.31,4.31,0,0,0-2-.32,6,6,0,0,0-3.7.7c-.48.31-.95.64-1.43.94-.74.46-1,.38-1.29-.45a1.23,1.23,0,0,0-1.07-.83A10.75,10.75,0,0,0,55.81,80.27Zm89.63,14.61a11.06,11.06,0,0,0,2-.13c.81-.2,1.18-.64,1.1-1.37s-.54-1-1.34-1a30.52,30.52,0,0,0-3.88.14c-.77.1-1.1-.22-1.11-1a8.93,8.93,0,0,1,.18-2.53,2.38,2.38,0,0,0,0-1.08,6.79,6.79,0,0,1,.05-2.72,5.87,5.87,0,0,0,0-2.95.65.65,0,0,1,.06-.45.58.58,0,0,0-.25-.78l-.12,0a2.37,2.37,0,0,0-.8-.2c-1.35-.1-2.69.09-4,.07a1.88,1.88,0,0,0-1.46.68.88.88,0,0,0-.12,1.05,1.27,1.27,0,0,0,1.24.6h1.71c.93,0,1.39.25,1.43.8a16.46,16.46,0,0,1-.06,4.08,3.94,3.94,0,0,0,0,2,1.53,1.53,0,0,1-1.19,2.12,7.23,7.23,0,0,1-2.22.13,5.81,5.81,0,0,0-1.6.08,1.18,1.18,0,0,0-1,1.17c0,.46.39.77,1,.92a12.33,12.33,0,0,0,2.32.18c2.74.16,5.52,0,8,.23Zm-4.06-17a8.18,8.18,0,0,0,.84,0c.38,0,.79-.29.68-.62-.22-.71-.06-1.44-.29-2.14a1.16,1.16,0,0,0-1-.88c-.63-.06-1.33-.13-1.71.55a2.57,2.57,0,0,0,0,2.43,1.35,1.35,0,0,0,1.46.68Zm-29,31.25a.78.78,0,0,0,.74-.19,1.07,1.07,0,0,0-.74.21Zm-58.73-69a.41.41,0,0,0,0,.12h.08l.05-.11Zm-3.77.65v-.07s0,0-.07,0,0,.06,0,.07,0,0,.07,0Zm43.48,85.59Zm-.73.31ZM54.33,40h0Zm37.28,90h0v0Zm-.31.1h0v0Zm-.32.13Zm-.35,0h0s0,.05.06,0h-.06Zm-.27.13Zm-.36.08Zm-.28.1Zm24.08-21.72Z"/><path class="cls-2" d="M48.89,40.57l-1.24.09c-1.52,0-3,.08-4.57,0a32.2,32.2,0,0,1-7.28-.93,3.88,3.88,0,0,0-2.39-.23,9.1,9.1,0,0,0-4.17,3.29c-.25.33,0,.39.26.47a34.17,34.17,0,0,0,4.18.93c2.41.44,4.83.8,7.23,1.29a109,109,0,0,1,14,3.91,83,83,0,0,1,14.17,6.24,12.72,12.72,0,0,1,2.71,1.81c.92.9.78,1.76-.37,2.34a6.08,6.08,0,0,1-2.19.58,7.88,7.88,0,0,1-5-.69,33.7,33.7,0,0,0-5.67-2.5,206.16,206.16,0,0,0-19.76-5.92c-4.51-1.15-9-2.23-13.61-3a1.42,1.42,0,0,1-1.34-1.17,2.72,2.72,0,0,1,.38-1.68,18.85,18.85,0,0,1,3.6-4.66,75.67,75.67,0,0,1,11.6-9.4l.92-.64a1.19,1.19,0,0,0-.84.32,85.4,85.4,0,0,0-9.71,7.5c-.12.11-.24.35-.47.14a69.25,69.25,0,0,1,6.47-5.55,35.63,35.63,0,0,1,3.89-2.52l-2.45-1.4c-4.54-2.6-9-5.31-13.62-7.81-.29-.16-.59-.29-.87-.46a1.49,1.49,0,0,1,0-2.41c-.38,1,.33,1.72,1.37,1.7a2.52,2.52,0,0,0,1.46-.6l.12.12a1.87,1.87,0,0,1-1.82.65c-.26,0-.38,0-.49.29-.18.46.22.45.42.56L44,32l7.6,4.06c.3.16.48.2.63-.16s-.2-.39-.37-.48L32,24.84,24.89,21a2.54,2.54,0,0,0,1.77-1.55c.16-.46.33-.38.66-.19L42.68,28.1l13,7.46c.4.23.57.15.68-.22s-.25-.23-.2-.42h0c.8.76,1.61.53,2.53.17A108.1,108.1,0,0,0,84.37,20.48,140.63,140.63,0,0,0,98.81,8c1.31-1.31,2.59-2.65,3.9-4a5.41,5.41,0,0,1,2.86-1.69,2,2,0,0,1,2.53,2.07,7.14,7.14,0,0,1-.57,2.41Q98.69,33.42,87.45,59.12q-1.15,2.64-2.34,5.26a1,1,0,0,0,0,.91c1.16,2.39,2.31,4.8,3.46,7.2-.36.2-.51,0-.65-.28a25.1,25.1,0,0,0-2.25-4.53c-.35-.71-.79-1.37-1.08-2.11a1.12,1.12,0,0,1,0-.89c1.87-4.76,3.87-9.47,5.83-14.19,4.06-9.76,8.13-19.51,11.75-29.44a109.75,109.75,0,0,0,4.67-15.14,7.38,7.38,0,0,0,.26-2.61.85.85,0,0,0-.9-.79h-.1a2.44,2.44,0,0,0-.93.28,11.83,11.83,0,0,0-2,1.33,66.43,66.43,0,0,0-5.55,5.24A122.61,122.61,0,0,1,78.88,25,87.11,87.11,0,0,1,59.18,35.31a45.22,45.22,0,0,1-14.37,2.63A52.75,52.75,0,0,1,39,37.72c-.85-.08-1.69-.22-2.69-.35a57.65,57.65,0,0,1,7.17-5.07.3.3,0,0,0-.38,0L43,32.22c0-.35-.2-.17-.33-.09a57.16,57.16,0,0,0-6.31,4.54,3.41,3.41,0,0,0-.68.78c-.2.33-.06.57.26.7a2.24,2.24,0,0,0,.56.11c1.44.2,2.88.35,4.33.44a45.89,45.89,0,0,0,13.24-1,63.38,63.38,0,0,0,13.71-5.12A105.78,105.78,0,0,0,86,21,123.11,123.11,0,0,0,98,10.33c1.58-1.6,3.14-3.23,4.84-4.7a12.52,12.52,0,0,1,2.94-2.1c.49-.22.59-.16.55.36a19.54,19.54,0,0,1-.59,3.36,114.15,114.15,0,0,1-3.75,12c-3,8.4-6.39,16.65-9.78,24.9-2.77,6.72-5.63,13.39-8.32,20.15a2.17,2.17,0,0,0,0,1.79,38.15,38.15,0,0,0,2.21,4l1.06,2.58H85.19c-.24,0-.32-.12-.41-.3-.22-.43-.45-.85-.67-1.27a16,16,0,0,0-1.4-2.41c-.81-1.2-.82-1.19-1.69,0l-1.5,2c-.2.25-.44.58-.81.43s-.21-.55-.19-.83a9.45,9.45,0,0,1,.78-2.78c3-7.64,6.44-15.11,9.69-22.66a268.07,268.07,0,0,0,10.3-26.44c.8-2.58,1.63-5.15,2.45-7.72.08-.24.16-.48-.06-.67s-.46-.08-.67,0a6.94,6.94,0,0,0-1,.64c-2.71,2-5.25,4.18-7.87,6.29-2,1.61-4.09,3.09-5.95,4.86a7.7,7.7,0,0,0-2.21,3c-.3.88-.26,1,.44,1.53s.73,1,.08,1.62c-.12.12-.26.23-.39.34A14.5,14.5,0,0,1,81.25,30a139.29,139.29,0,0,1-14.81,6.06,75.44,75.44,0,0,1-13.56,3.4,51.83,51.83,0,0,1-9.15.57,32.09,32.09,0,0,1-8.1-1,3.7,3.7,0,0,0-2.5-.12,10.07,10.07,0,0,0-4.52,4c-.24.37-.1.65.3.81a10.15,10.15,0,0,0,1.58.48c2.68.61,5.39,1,8.09,1.48a100.58,100.58,0,0,1,12.07,3,93.88,93.88,0,0,1,17.15,7,22.38,22.38,0,0,1,3.35,2.06c.89.71.83,1.28-.23,1.61A8,8,0,0,1,64.26,59a23.74,23.74,0,0,0-3.08-1.46,148.37,148.37,0,0,0-14.61-4.81c-5.95-1.69-11.94-3.22-18-4.46-1.06-.22-2.13-.41-3.2-.61-.75-.14-1-.45-.85-1.18a3.61,3.61,0,0,1,.44-1.1,22.3,22.3,0,0,1,4-4.83,74.5,74.5,0,0,1,10.18-8.19L41,31c-.26-.14-.38,0-.52.12a90.31,90.31,0,0,0-9,6.76,38,38,0,0,0-6,6.21,7.16,7.16,0,0,0-1.11,2c-.3,1,0,1.51,1,1.66,1.58.26,3.15.58,4.72.93a248.59,248.59,0,0,1,26.73,7.39,35.15,35.15,0,0,1,6.6,2.68A8.69,8.69,0,0,0,68.71,60a7.56,7.56,0,0,0,2.47-.54c1-.44,1.09-1,.31-1.77a6.15,6.15,0,0,0-.86-.66,41.28,41.28,0,0,0-4.28-2.43,110.1,110.1,0,0,0-32.18-9.9,28.9,28.9,0,0,1-4.94-1.1c-.56-.19-.61-.34-.28-.82A12.74,12.74,0,0,1,32,39.71a3.58,3.58,0,0,1,3.19-.58,23.84,23.84,0,0,0,2.36.57,46.25,46.25,0,0,0,8.42.54A55.22,55.22,0,0,0,56.92,39a114.24,114.24,0,0,0,24.82-9,11.39,11.39,0,0,0,2.91-1.88c.77-.71.74-1.31,0-1.94s-.66-.58-.38-1.4A5,5,0,0,1,85,23.39,14.25,14.25,0,0,1,87.39,21l10.83-8.74A26.83,26.83,0,0,1,101,10.2c.16-.09.34-.25.52-.11s.05.35,0,.52C100.23,14.67,99,18.76,97.6,22.8c-2.84,8.28-6.37,16.29-9.85,24.32C84.94,53.6,82,60,79.41,66.59a11,11,0,0,0-1.09,3.91c0,.28,0,.59.29.71a.77.77,0,0,0,.81-.2,8.43,8.43,0,0,0,1.15-1.4,16.94,16.94,0,0,1,1.34-1.73l.34.43c.7.88,1.17,1.91,1.78,2.85l.67,1.39c-.31.12-.48,0-.62-.26a30.61,30.61,0,0,0-1.95-3.41c-.18-.27-.33-.35-.47,0l-.61.83-.46.66-.38.49c-.06.06-.21.11-.09.21s.16,0,.21-.13l.35-.43.51-.69.6-.85c.19-.08.23.08.3.19A31,31,0,0,1,84,72.54c-.31.15-.41,0-.52-.25-.48-1-1-1.95-1.46-3a4.64,4.64,0,0,0-.86,1.13A16.9,16.9,0,0,1,80,72a1.33,1.33,0,0,1-2.36-.31c-.67-1.74-.87-3.42.34-5.07a11,11,0,0,0,1-2.06C85.81,49.28,92.18,33.76,97.91,18c.74-2,1.51-4.08,2.17-6.16.12-.25.17-.55.49-.64l.08.06c-1.42,4.39-2.73,8.82-4.29,13.16-2.59,7.16-5.6,14.14-8.63,21.12s-6.07,13.7-8.86,20.65A13.87,13.87,0,0,0,77.71,70a2.71,2.71,0,0,0,0,1,1,1,0,0,0,.91.91,1.09,1.09,0,0,0,1.22-.6l-.39.24a1,1,0,0,1-1.58-.84V70a14.76,14.76,0,0,1,.73-2.53c1.92-5,4.08-9.86,6.21-14.75C88,45.36,91.27,38,94.28,30.51c2.53-6.29,4.51-12.76,6.58-19.2.05-.17.25-.41.08-.52s-.35.13-.5.25l-7.71,6.24c-2,1.6-4,3.07-5.88,4.78a8.64,8.64,0,0,0-2.14,2.65c-.35.76-.34.78.3,1.3a1.3,1.3,0,0,1,.18,2.17,6.15,6.15,0,0,1-1.38,1.14,47.62,47.62,0,0,1-6.9,3.39,119.74,119.74,0,0,1-16.3,5.81c-2,.54-4.09.95-6.14,1.38l-1.66.24-2.71.32-.93.1Zm3.09-4-.18-.15L44.24,32.9a.56.56,0,0,0-.61.08l-6,3.69c-.11.07-.26.11-.31.29,4.89,1.23,9.72.19,14.65-.36Z"/><path class="cls-2" d="M176.31,85.3a25.48,25.48,0,0,1-4.42,14.26A44.17,44.17,0,0,1,160.59,111a80,80,0,0,1-17.41,9.36,122.58,122.58,0,0,1-20.74,6.14c-4,.83-8,1.48-12.05,2-3.48.44-7,.73-10.48,1-.25,0-.34-.06-.33-.31,0-1.3-.17-1,1-1.12,2.6-.18,5.21-.41,7.8-.69q5.18-.57,10.31-1.5A131.9,131.9,0,0,0,134.75,122a99.92,99.92,0,0,0,15.69-6.34,60.33,60.33,0,0,0,15.83-11.23,30.41,30.41,0,0,0,7.6-12,21.8,21.8,0,0,0-1.36-16.75,35.17,35.17,0,0,0-9-11.22,70.86,70.86,0,0,0-19-11.34,119.21,119.21,0,0,0-21.14-6.56q-5.77-1.26-11.62-2-4-.55-8.1-.87-3.57-.29-7.15-.44c-.28,0-.39-.06-.39-.37,0-1,0-1,1-1,3.18.09,6.36.34,9.52.66,4.81.5,9.59,1.2,14.34,2.14a125.61,125.61,0,0,1,22.3,6.47,79.16,79.16,0,0,1,17.83,9.66,42.4,42.4,0,0,1,11.32,11.87,26.09,26.09,0,0,1,3.64,9.82A17.06,17.06,0,0,1,176.31,85.3Z"/><path class="cls-2" d="M34.62,51.79a.65.65,0,0,1,0,.11c0,1.3,0,1.3-1.13,1.83a73.85,73.85,0,0,0-14.69,8.56A40.94,40.94,0,0,0,8.42,73.36,23.94,23.94,0,0,0,4.81,83.62,22.27,22.27,0,0,0,7.14,95.71a35.66,35.66,0,0,0,9.31,11.49,70.18,70.18,0,0,0,17.79,10.68,119.21,119.21,0,0,0,23.3,7.21q5.76,1.19,11.59,1.94,6.38.81,12.81,1.11c.29,0,.74-.07.82.12a3,3,0,0,1,.06,1.12c0,.27-.22.17-.35.17-.76,0-1.52-.06-2.28-.11-3.47-.22-6.94-.5-10.38-.93C57,126.9,44.47,124,32.61,118.67a71.62,71.62,0,0,1-16-9.59A38.65,38.65,0,0,1,6.25,96.92,24,24,0,0,1,3.4,84.81,25.1,25.1,0,0,1,7.62,72,45.16,45.16,0,0,1,20.08,59.65a79.46,79.46,0,0,1,14.44-7.83Z"/><path class="cls-3" d="M20.39,74.38a15,15,0,0,1,1.84-.1,22.7,22.7,0,0,1,4.07,0c.77.15,1.63-.07,2.38.5.34.26,1,.15,1.51.36a2.42,2.42,0,0,1,1.62,1.74,12.83,12.83,0,0,0,1,2A1,1,0,0,1,32.74,80a1.16,1.16,0,0,0-.3.65,3.59,3.59,0,0,1-.81,2.05,1.34,1.34,0,0,0,.13,1.83,21,21,0,0,1,1.47,1.88,3.15,3.15,0,0,1,.68,2.17,10.84,10.84,0,0,1-.16,1.6,4.24,4.24,0,0,1-2.63,3.35,10.19,10.19,0,0,1-3.87,1.18c-.64,0-1.3.05-1.94,0-2.44-.17-4.9,0-7.33-.34A1.4,1.4,0,0,1,16.64,93a.72.72,0,0,1,.58-.84h.08c1.09-.1,1.36-.83,1.44-1.74a3.87,3.87,0,0,1,.06-.83A67.4,67.4,0,0,0,19,81.69c.51-1.07.18-2.25.46-3.35a2,2,0,0,0,0-1,.87.87,0,0,0-.8-.7c-.22,0-.44-.07-.67-.09a.81.81,0,0,1-.79-.63,1,1,0,0,1,.3-1.08,2.3,2.3,0,0,1,1.5-.46Zm1,13.35a8.81,8.81,0,0,0,.16,1.63,5.31,5.31,0,0,1,.27,1.41.73.73,0,0,0,.56.81,4.53,4.53,0,0,0,2.4.19,5.79,5.79,0,0,1,2.11-.12,3.63,3.63,0,0,0,1.27.06c2.43-.31,2.62-.47,3.13-2.83v-.1a2.22,2.22,0,0,0-1.66-2.47,7.06,7.06,0,0,1-2.06-.43,2.2,2.2,0,0,0-1-.19,7.74,7.74,0,0,1-3-.32A1.82,1.82,0,0,0,21.33,87v.73Zm2.71-5A10.76,10.76,0,0,0,27,82.52c.71-.21,1.36-.59,2-.83a1.08,1.08,0,0,0,.8-1.07.35.35,0,0,1,.07-.25,2.46,2.46,0,0,0-1.1-2.89,5.55,5.55,0,0,0-3-.44A4.42,4.42,0,0,1,23,76.79c-.52-.25-1-.14-1.19.22a3.92,3.92,0,0,0-.13,2.83,2.08,2.08,0,0,1,.07,1.81c-.29.62.06,1.06.75,1.06Z"/><path class="cls-3" d="M96.64,97.2c0-.33-.34-.55-.33-.94h1.8c.41,0,.32.38.5.54.74,1.76,1.58,3.48,2.45,5.18a35.09,35.09,0,0,0,3.67,6.06,5.15,5.15,0,0,0,2.92,2.12,11.87,11.87,0,0,0,4.43-.09c1.4-.23,2.72-.77,4.13-.94a10.57,10.57,0,0,1,4.37.16,1.88,1.88,0,0,1,1.43,2.58,12.2,12.2,0,0,1-4.24,6,26.65,26.65,0,0,1-6.12,3.44c-9,3.93-18.27,7.24-27.63,10.26-.15,0-.3.11-.46,0l1.51-.67c7.55-3.36,15.21-6.49,22.7-10a34.47,34.47,0,0,0,8.68-5.39,5.39,5.39,0,0,0,1.72-2.3,1.14,1.14,0,0,0-.63-1.48l-.08,0a2.54,2.54,0,0,0-1-.12,21.82,21.82,0,0,0-2.89.54A24.31,24.31,0,0,1,108,113a5,5,0,0,1-4.43-2.21c-.33-.49-.67-1-1-1.47-1.41-2.4-2.38-5-3.64-7.48C98.14,100.3,97.47,98.71,96.64,97.2Z"/><path class="cls-3" d="M90.36,95.06a30.53,30.53,0,0,1-4.46-.29,5.13,5.13,0,0,0-1.74.18,7.29,7.29,0,0,1-2.26-.13,6,6,0,0,0-1.74.18A2,2,0,0,1,78,94.25a1,1,0,0,1,0-1.37,1.88,1.88,0,0,1,2-.64c.39.08.79.1,1.18.18a.73.73,0,0,0,.93-.6,2.31,2.31,0,0,0,0-1.27,3.79,3.79,0,0,1,0-2.34,2.57,2.57,0,0,0,.08-.82,9.85,9.85,0,0,1,.11-1.91,3.65,3.65,0,0,0-.22-1.73A1.68,1.68,0,0,1,82,83a31.13,31.13,0,0,0,0-4.48,1.82,1.82,0,0,0-.35-1,.94.94,0,0,0-.9-.49H79.5a1.2,1.2,0,0,1-1.29-1.39,1.33,1.33,0,0,1,1.53-1.09h0a3.27,3.27,0,0,0,1.69,0h.15c1,.46,2-.1,3.05-.07a8,8,0,0,1,3,.23,2.86,2.86,0,0,0,.82.09,1.37,1.37,0,0,1,1.22.75,1.11,1.11,0,0,1-.89,1.65,6.31,6.31,0,0,1-2.42-.06,2.06,2.06,0,0,0-1.77.65.63.63,0,0,0-.12.73,3.49,3.49,0,0,1,.11,2.06,3,3,0,0,0,.14,1.93,3.05,3.05,0,0,1,.19,1.59,9.41,9.41,0,0,0-.07,2.62.27.27,0,0,1,0,.15c-.61,1.32-.16,2.66,0,4,.14,1.12,1.07,1.66,2.38,1.38a8.6,8.6,0,0,1,3.42.2,4,4,0,0,0,1.74.08.53.53,0,0,0,.43-.36,14.13,14.13,0,0,0,.56-1.88.84.84,0,0,0,0-.56,3.26,3.26,0,0,1,0-2.18,1.34,1.34,0,0,1,1.09-1.05,1.25,1.25,0,0,1,1.3.58,3.17,3.17,0,0,1,.64,2.83,16.19,16.19,0,0,0-.22,3.56c-.06,1-.43,1.41-1.47,1.45C93.31,94.91,91.86,95.11,90.36,95.06Z"/><path class="cls-2" d="M61.36,17.87c1.41-.84,2.91-1.49,4.39-2.19A130,130,0,0,1,79.3,10.21a7,7,0,0,1,3.42-.4c.31.05.66.11.75.46s-.17.61-.42.83a7.74,7.74,0,0,1-1.79,1.14C77,14.36,72.7,16.45,68.44,18.6a170.42,170.42,0,0,0-19.3,11.13l-.58.4,6.56,4.1-.11.1c-.21-.11-.43-.21-.64-.33L26.76,18.18c-.15-.09-.28-.26-.51-.19a2.42,2.42,0,0,1-.56,1.73l-.12-.12c.77-1.2.36-2-1.1-2.12l-.29-.08a2.54,2.54,0,0,1,2.14.28L44.1,27.31a.59.59,0,0,0,.69-.06c3.62-2.27,7.29-4.46,11-6.51.14-.08.26-.24.46-.18,0,.18-.23.19-.35.27l-11,6.68c-.14.08-.32.12-.37.32.27.1.42-.12.6-.23,3.76-2.26,7.47-4.6,11.27-6.78a136.94,136.94,0,0,1,23-10.12A8.65,8.65,0,0,1,82,10.06c.19,0,.4,0,.49.22a.48.48,0,0,1-.17.56,4.89,4.89,0,0,1-1,.74c-1.6.93-3.26,1.71-4.92,2.52-3.58,1.74-7.29,3.2-10.78,5.13-5.95,3.29-11.86,6.65-17.69,10.15-.13.08-.32.1-.34.31.23.09.35-.07.49-.15C50.72,28,53.34,26.43,56,24.91a171.65,171.65,0,0,1,17.55-9.26,79.88,79.88,0,0,0,7.7-3.78A5.3,5.3,0,0,0,82.5,11a.66.66,0,0,0,.18-.76A.65.65,0,0,0,82,9.85a5.3,5.3,0,0,0-1.91.38A158.61,158.61,0,0,0,64,16.65,27.65,27.65,0,0,1,61.36,17.87ZM45.19,28.28c5.77-3.35,11.31-7.07,17.32-10a159.7,159.7,0,0,1,18.59-7.52.81.81,0,0,1-.48.45c-1.67.94-3.4,1.76-5.13,2.57-2.65,1.24-5.37,2.35-8,3.71C61.36,20.77,55.36,24.36,49.36,28L47.1,29.39c.27.17.41,0,.56-.1,3.57-2.2,7.17-4.36,10.8-6.44s7-4.16,10.7-5.88,7.52-3.36,11.15-5.3c.46-.24.89-.53,1.33-.8.09-.06.26-.12.2-.26s-.24-.08-.36-.05c-.42.1-.84.19-1.25.33A153.68,153.68,0,0,0,62,18.36c-5.77,2.8-11.18,6.33-16.65,9.64C45.26,28,45.12,28,45.19,28.28Z"/><path class="cls-3" d="M157.47,94.73a11.08,11.08,0,0,1-3.9-.42,4.17,4.17,0,0,1-1.44-.79c-.65-.57-1.29-1.16-1.91-1.76a3.54,3.54,0,0,1-.93-1.71,17.6,17.6,0,0,0-.55-1.78,8.57,8.57,0,0,1-.2-3.13.93.93,0,0,1,.53-.73,4.34,4.34,0,0,0,1.48-1.62,6.83,6.83,0,0,1,2-2.18,3.72,3.72,0,0,1,1.91-.55,4.83,4.83,0,0,0,1.66-.32,2,2,0,0,1,1-.09c.83.05,1.66.13,2.48.2a3,3,0,0,1,1.1.42,4.89,4.89,0,0,1,2.6,2.33,1.28,1.28,0,0,0,.58.58,1.24,1.24,0,0,1,.67,1A16.31,16.31,0,0,0,165,86c.19,1-.28,1.81-1.32,1.82-1.46,0-2.9.19-4.34.32-.58.05-1.12-.21-1.69-.2a19.18,19.18,0,0,1-2.58.09,16.24,16.24,0,0,0-3.51.1c-.44,0-.58.23-.56.62a2.44,2.44,0,0,0,.79,1.59,6.2,6.2,0,0,0,3.87,1.88,17.21,17.21,0,0,0,4.78-.37,23.5,23.5,0,0,1,3.81-.44c.41,0,.86,0,.93.57a.86.86,0,0,1-.69,1h0a3.23,3.23,0,0,0-1.13.6,2.6,2.6,0,0,1-1.42.56c-.68.08-1.33.35-2,.43A23.19,23.19,0,0,1,157.47,94.73Zm-.73-9a11.78,11.78,0,0,1,3.31,0,3.71,3.71,0,0,0,1.59-.15c.57-.17.72-.47.5-1a1.75,1.75,0,0,0-.45-.63,2.56,2.56,0,0,1-.61-.63A1.42,1.42,0,0,0,160,82.6c-.59-.14-1.18-.26-1.76-.42s-1.44.17-2.14,0a2.83,2.83,0,0,0-1.71.2,9,9,0,0,1-1,.33,2.46,2.46,0,0,0-1.63,1.47c-.47.95-.17,1.47.89,1.54a4,4,0,0,0,.78,0,6.73,6.73,0,0,1,2.46-.11,2.26,2.26,0,0,0,.89.16Z"/><path class="cls-3" d="M48.43,94.68a3.74,3.74,0,0,1-2.77-.77.9.9,0,0,0-.89-.07c-.87.28-1.73.61-2.61.8A6,6,0,0,1,36.5,93a3.81,3.81,0,0,1-.9-3.33,3.53,3.53,0,0,1,1.21-2.34,1.43,1.43,0,0,0,.26-.39,2,2,0,0,1,1.36-1,17.36,17.36,0,0,1,5.28-.57,1.62,1.62,0,0,1,.82.27,1,1,0,0,0,1.24-.06,1.12,1.12,0,0,0,.54-1.12,1.35,1.35,0,0,0-.75-1.13,6.85,6.85,0,0,0-2.23-.92,11.18,11.18,0,0,0-2.15.2,6.11,6.11,0,0,0-2.42.61c-.67.28-1-.17-1.41-.58a1.25,1.25,0,0,1-.28-1.48,1.43,1.43,0,0,1,1.13-.66,17.76,17.76,0,0,1,7.2,0A3.94,3.94,0,0,1,48.26,84a2.4,2.4,0,0,0,.22,1.25.48.48,0,0,1,.07.45,2.11,2.11,0,0,0,.08,1.59,2.2,2.2,0,0,1-.18,1.9,2,2,0,0,0,1.19,3,3.9,3.9,0,0,1,.68.24c.64.27.85.55.78,1.06A1.16,1.16,0,0,1,50,94.56,8.55,8.55,0,0,1,48.43,94.68Zm-7.78-2.37a9.22,9.22,0,0,0,4.11-1,2.82,2.82,0,0,0,1.49-1.39,2.69,2.69,0,0,0-.13-1.57c-.1-.4-.49-.39-.75-.56a.82.82,0,0,0-.59-.08,8.65,8.65,0,0,1-2.16,0c-1.5-.15-3-.25-4.15,1.1a2.08,2.08,0,0,0,0,2.84,2.45,2.45,0,0,0,2.18.67Z"/><path class="cls-3" d="M106.94,80.06a6.09,6.09,0,0,1,4.35,1.17,4.75,4.75,0,0,0,1.59.72,1,1,0,0,1,.67.67,4.72,4.72,0,0,1,.23.9,1.88,1.88,0,0,0,.57,1.17,2.22,2.22,0,0,1,.61,1.85c-.06,1.11-.19,2.2-.35,3.3a1.18,1.18,0,0,1-.45.89,1,1,0,0,0-.38.54,4.93,4.93,0,0,1-3.06,3,10,10,0,0,1-5.74.62,1.63,1.63,0,0,1-.74-.36,5.19,5.19,0,0,0-1-.38,16.4,16.4,0,0,1-2.35-1.49c-.2-.15-.19-.57-.3-.86a1,1,0,0,0-.24-.39,2.69,2.69,0,0,1-.94-1.93,1.11,1.11,0,0,0-.38-.6,1,1,0,0,1-.15-1.36,1.57,1.57,0,0,0,.22-.83,6.7,6.7,0,0,1,.09-1.76,2.46,2.46,0,0,1,1.07-1.74,1.65,1.65,0,0,0,.66-1,1.36,1.36,0,0,1,1.25-.93.65.65,0,0,0,.37-.16A5.09,5.09,0,0,1,106.17,80Zm-.81,2.49a10.51,10.51,0,0,0-2.05.39,4.15,4.15,0,0,0-1.26.66.28.28,0,0,0-.14.2,1.41,1.41,0,0,1-.39.82,3.05,3.05,0,0,0-.52,2.61c.18.62.21,1.24.35,1.84a5.49,5.49,0,0,0,.15.7c.2.51.36,1.1.88,1.36,1.26.63,2.45,1.42,4,1.1a14.31,14.31,0,0,0,3.12-.85,2,2,0,0,0,1.31-1.49,1.76,1.76,0,0,1,.51-.83,1.57,1.57,0,0,0,.29-1.87,21,21,0,0,0-1.4-3.1,1.81,1.81,0,0,0-.91-.8,15,15,0,0,0-3.95-.74Z"/><path class="cls-3" d="M129.86,94.54a4.07,4.07,0,0,1-2.58-.63,1.11,1.11,0,0,0-1-.1,6.32,6.32,0,0,0-.88.31,6.13,6.13,0,0,1-4.44.27c-.65-.16-1.29-.36-1.93-.56a1.82,1.82,0,0,1-1.28-1.36c-.29-1-.26-2-.64-3a.3.3,0,0,1,0-.2,8.45,8.45,0,0,0,.29-3.13,2.64,2.64,0,0,1,.07-.77.59.59,0,0,0,0-.31,23.18,23.18,0,0,1-.53-2.54c-.05-.41-.52-.5-.9-.6-.79-.21-1.07-.46-1.07-.93s.37-.79,1.12-.9a6.84,6.84,0,0,1,2.58.05c.81.19,1.06.66.94,1.5a12.14,12.14,0,0,0-.19,3.86c.15.92.06,1.89.22,2.84a3.21,3.21,0,0,1-.13,1.07,1.72,1.72,0,0,0,1.14,2.15l.16,0A5.6,5.6,0,0,0,126,91a5.14,5.14,0,0,0,1-.78,1.57,1.57,0,0,0,.43-1.28,6.44,6.44,0,0,0-.22-1.79v-1.4c.07-.92-.49-1.74-.32-2.67.11-.64-.18-.86-.84-.88h-1.3a1.41,1.41,0,0,1-1.34-1,.85.85,0,0,1,.49-1.1l.12,0a4.6,4.6,0,0,1,1.75,0,25.31,25.31,0,0,1,2.74.23,1.17,1.17,0,0,1,1.2,1.36c-.05,1.38-.15,2.76-.26,4.14a4.86,4.86,0,0,0,.11,1.74,3.29,3.29,0,0,1-.06,1.73,4,4,0,0,0,.53,2.82c.08.16.26.2.44.24a6.54,6.54,0,0,1,1.72.55c.62.31.66.75.13,1.2a2.23,2.23,0,0,1-1.37.55Z"/><path class="cls-3" d="M55.81,80.27a10.75,10.75,0,0,1,2,.1,1.23,1.23,0,0,1,1.07.83c.27.83.55.91,1.29.45.48-.3,1-.63,1.43-.94a6,6,0,0,1,3.7-.7,4.31,4.31,0,0,1,2,.32c.53.3,1.15.56,1.17,1.26a1.89,1.89,0,0,1-1,1.61,1.59,1.59,0,0,1-2.07,0,2.36,2.36,0,0,0-1.83-.37A7.54,7.54,0,0,0,59.65,85,3.18,3.18,0,0,0,59,87.79a6.65,6.65,0,0,1-.1,3.37.61.61,0,0,0,.3.72,1.38,1.38,0,0,0,.72.26,9.54,9.54,0,0,0,2.91.06,3.7,3.7,0,0,1,.93,0,1.17,1.17,0,0,1,1.12.78,1.31,1.31,0,0,1-.29,1.48A2.27,2.27,0,0,1,62.4,95,8.4,8.4,0,0,0,59.21,95a1.61,1.61,0,0,1-.77,0,8,8,0,0,0-3.28,0,4.48,4.48,0,0,1-2-.18A1,1,0,0,1,53,93a1.68,1.68,0,0,1,1-.41h1.35a1.16,1.16,0,0,0,1.43-1.24c.11-1,.18-2,.26-2.94a1.74,1.74,0,0,0-.12-.82,4.61,4.61,0,0,1-.18-2.49,11.38,11.38,0,0,0,.08-1.45,1,1,0,0,0-1.14-1.11H54.57a1.33,1.33,0,0,1-1.18-1.11,1.18,1.18,0,0,1,1.17-1.19h1.25Z"/><path class="cls-2" d="M99.44,124l.53-.23a119.62,119.62,0,0,0,11.22-5.26,24.24,24.24,0,0,0,5.48-4c.12-.12.3-.22.28-.44a.31.31,0,0,0-.28.14,16,16,0,0,1-2.27,2,44.81,44.81,0,0,1-8.4,4.68c-1.35.61-2.67,1.27-4.06,1.78a7.43,7.43,0,0,1,1.66-.85,78.25,78.25,0,0,0,10.28-5.62,13.78,13.78,0,0,0,2.39-2,4.61,4.61,0,0,0,1-1.63c.38.59-.12.92-.18,1.35a1.23,1.23,0,0,0,.54-1c0-.41-.32-.51-.67-.58a3.45,3.45,0,0,0-1,.06,3.22,3.22,0,0,0-.91.15,40,40,0,0,1-6.4,1.16c-2.22.11-4.17-.4-5.55-2.32-.62-.86-1.14-1.76-1.69-2.65l-.86-1.75c-.54-1.19-1.07-2.39-1.64-3.57-.83-1.7-1.59-3.43-2.49-5.1-.07-.19-.06-.44-.33-.5h0c.1-.14.08-.22-.11-.22h0c.11-.29-.15-.47-.23-.71a4.89,4.89,0,0,0-.22-.51c.3-.12.47-.05.59.23s.26.52.39.77.11.29.18.43c1.44,3,2.93,6,4.32,9.11a19.16,19.16,0,0,0,2.83,4.68,4.67,4.67,0,0,0,3.3,1.61,17.18,17.18,0,0,0,5.09-.47,29.67,29.67,0,0,1,4.31-.85,1.33,1.33,0,0,1,1.34.5,1.25,1.25,0,0,1-.12,1.36,5.78,5.78,0,0,1-1,1.3,24.46,24.46,0,0,1-5.15,3.73,125.23,125.23,0,0,1-11.8,5.49c-6.16,2.72-12.38,5.31-18.5,8.12-.17.08-.4.1-.49.32.17.17.31,0,.44,0,9.94-3.16,19.8-6.58,29.39-10.7a31,31,0,0,0,7.21-3.91,12.3,12.3,0,0,0,4.36-6.22,2,2,0,0,0-1.13-2.59l-.23-.08a4.28,4.28,0,0,0-.69-.2,12.34,12.34,0,0,0-5.59.28,24.34,24.34,0,0,1-4.93.88,5.24,5.24,0,0,1-4.76-2.2,42.74,42.74,0,0,1-4.12-7c-.7-1.42-1.38-2.85-2.07-4.27.09-.13-.3-.3,0-.4s.38.14.48.35c1,2.32,2.14,4.61,3.35,6.84.34.64.72,1.25,1.08,1.88.06.09.06.28.26.21h0a2.42,2.42,0,0,0,.91,1.4h0a1.41,1.41,0,0,0,.85,1.06h0c-.21.19.05.22.1.32a3.65,3.65,0,0,0,2.4,1.37,11.33,11.33,0,0,0,4.05-.24,7.89,7.89,0,0,0,2-.54h0a.14.14,0,0,0,.18,0c.56-.11,1.11-.24,1.67-.31a9.7,9.7,0,0,1,5.47.49l.3.19a2.66,2.66,0,0,1,.67,3.16,13.06,13.06,0,0,1-2.68,4.45c-.11.13-.29.23-.28.44.21,0,.26-.12.35-.21a13.56,13.56,0,0,0,2.58-4,4,4,0,0,0,.2-3.25,2.27,2.27,0,0,1,.57,2.25,9.12,9.12,0,0,1-1.63,3.27,14.32,14.32,0,0,1-2.71,2.91c-.07.06-.12.24-.28.11.11-.36.62-.44.69-.93l-.27.17a20,20,0,0,1-5.2,3.31c-5.36,2.5-10.87,4.62-16.41,6.65l-5.43,2-5.91,2a10.37,10.37,0,0,0-1.67.53l-.53.18a.55.55,0,0,0-.35.08l-5.7,1.8c-.14,0-.34.24-.47-.07s.11-.33.26-.4c1.2-.6,2.39-1.21,3.61-1.77,2.09-1,4.2-1.9,6.29-2.85l.62-.27a13.13,13.13,0,0,0,1.78-.77l.51-.22.36-.17.37-.15.22-.1.51-.22.35-.17,2-.87.36-.17.37-.15.22-.1.6-.27a.25.25,0,0,0,.26-.12l.59-.24.21-.1.51-.22.22-.1.61-.27h.12l.83-.37C99.25,124.06,99.36,124.07,99.44,124Z"/><path class="cls-4" d="M43.12,32.29a.3.3,0,0,1,.38,0,57.65,57.65,0,0,0-7.17,5.07c1,.13,1.84.28,2.69.35a52.75,52.75,0,0,0,5.81.22A45.22,45.22,0,0,0,59.17,35.3,87.11,87.11,0,0,0,79,25,122.61,122.61,0,0,0,97.69,9.38a66.43,66.43,0,0,1,5.55-5.24,11.83,11.83,0,0,1,2-1.33,2.44,2.44,0,0,1,.93-.28.85.85,0,0,1,1,.78,7.38,7.38,0,0,1-.26,2.61,109.75,109.75,0,0,1-4.67,15.14C98.63,31,94.56,40.74,90.5,50.5c-2,4.72-4,9.43-5.83,14.19a1.12,1.12,0,0,0,0,.89c.29.74.74,1.4,1.08,2.11l-.1.12a11.71,11.71,0,0,1-1.14-2.07,1.37,1.37,0,0,1,0-1.19c1.19-2.86,2.33-5.74,3.52-8.61,3.86-9.32,7.8-18.61,11.44-28,2.31-6,4.58-12,6.33-18.17A33.56,33.56,0,0,0,107,4c.1-1-.41-1.42-1.38-1a6.53,6.53,0,0,0-1.47.87A51.87,51.87,0,0,0,98.1,9.42,122.24,122.24,0,0,1,76.43,27a81.43,81.43,0,0,1-18.75,9,43.68,43.68,0,0,1-10.23,2,47.51,47.51,0,0,1-7.26,0c-1.2-.1-2.4-.26-3.6-.41-.17,0-.48,0-.32-.35v-.12s-.08,0-.09.06c-.19.13-.38.3-.32.54s.36.25.57.28a45.85,45.85,0,0,0,5.83.54,46.6,46.6,0,0,0,11.34-1,62.71,62.71,0,0,0,13.71-5,105.21,105.21,0,0,0,18.88-12A121,121,0,0,0,98.14,9.84a66.06,66.06,0,0,1,5.15-4.91,9.26,9.26,0,0,1,2.5-1.65c.58-.22.77-.07.74.54a16.09,16.09,0,0,1-.4,2.55A91.68,91.68,0,0,1,103,16.9c-3,8.61-6.42,17-9.88,25.48-3,7.22-6,14.39-8.94,21.62a2.54,2.54,0,0,0,.07,2.35l.24.46c.53,1,1.22,2,1.72,3.06l-.1.12a38.15,38.15,0,0,1-2.21-4,2.17,2.17,0,0,1,0-1.79c2.68-6.75,5.55-13.43,8.32-20.15,3.4-8.25,6.77-16.5,9.78-24.9a114.15,114.15,0,0,0,3.75-12,19.54,19.54,0,0,0,.59-3.36c0-.52-.06-.58-.55-.36a12.52,12.52,0,0,0-2.94,2.1c-1.7,1.48-3.26,3.1-4.84,4.7A123.11,123.11,0,0,1,86.06,20.85,105.78,105.78,0,0,1,67.81,32.58a63.38,63.38,0,0,1-13.68,5.08,45.89,45.89,0,0,1-13.24,1c-1.45-.09-2.89-.24-4.33-.44a2.24,2.24,0,0,1-.56-.11c-.32-.13-.46-.36-.26-.7a3.41,3.41,0,0,1,.68-.78,57.16,57.16,0,0,1,6.31-4.54c.13-.08.3-.26.33.09a.45.45,0,0,0-.31.21l-.14.06-.17.14c-.08,0-.16,0-.19.12a1.72,1.72,0,0,0-.62.42c-.06,0-.11,0-.13.08s-.17,0-.18.13-.13,0-.11.1a.15.15,0,0,0-.19.09v0c-.06,0-.14,0-.1.11a.15.15,0,0,0-.2.07v0c-.06,0-.14,0-.1.11a.16.16,0,0,0-.21.08v0l-.08.08h0c.05,0,.06-.06,0-.1.12.07.18,0,.22-.1s.17,0,.1-.11c.12.06.18,0,.22-.1s.16,0,.1-.11c.13.09.18,0,.22-.1s.16,0,.09-.11c.13.1.18,0,.22-.09s.17,0,.08-.12c.32.06.46-.23.69-.34l.19-.13.18-.13.14-.06Z"/><path class="cls-3" d="M145.42,94.87c-2.52-.24-5.31-.07-8.09-.16a12.33,12.33,0,0,1-2.32-.18c-.65-.15-1-.46-1-.92a1.18,1.18,0,0,1,1-1.17,5.81,5.81,0,0,1,1.6-.08,7.23,7.23,0,0,0,2.22-.13A1.53,1.53,0,0,0,140,90.11a3.94,3.94,0,0,1,0-2,16.46,16.46,0,0,0,.06-4.08c0-.55-.49-.77-1.43-.8h-1.71a1.27,1.27,0,0,1-1.24-.6.88.88,0,0,1,.12-1.05,1.88,1.88,0,0,1,1.46-.68c1.35,0,2.69-.17,4-.07a2.37,2.37,0,0,1,.8.2.58.58,0,0,1,.37.83.65.65,0,0,0-.06.45,5.87,5.87,0,0,1,0,2.95,6.79,6.79,0,0,0-.05,2.72,2.38,2.38,0,0,1,0,1.08,8.93,8.93,0,0,0-.18,2.53c0,.76.34,1.09,1.11,1a30.52,30.52,0,0,1,3.88-.14c.8,0,1.28.35,1.34,1a1.25,1.25,0,0,1-1.1,1.37A11.06,11.06,0,0,1,145.42,94.87Z"/><path class="cls-2" d="M36.26,37.27c-.16.36.15.32.32.35,1.2.15,2.4.32,3.6.41a47.51,47.51,0,0,0,7.26,0,43.68,43.68,0,0,0,10.23-2,81.43,81.43,0,0,0,18.76-9A122.24,122.24,0,0,0,98,9.39a51.87,51.87,0,0,1,6.07-5.59,6.53,6.53,0,0,1,1.47-.87c1-.38,1.48,0,1.38,1a33.56,33.56,0,0,1-1.23,5.81c-1.76,6.18-4,12.19-6.33,18.17-3.64,9.41-7.57,18.71-11.44,28-1.19,2.86-2.33,5.74-3.52,8.61a1.37,1.37,0,0,0,0,1.19,11.71,11.71,0,0,0,1.14,2.07,31.65,31.65,0,0,1,2.25,4.73c-.33.14-.48,0-.61-.31-.32-.79-.69-1.57-1-2.35-.49-1.07-1.18-2-1.72-3.06-.08-.15-.15-.31-.24-.46A2.54,2.54,0,0,1,84.2,64c2.91-7.24,6-14.4,8.94-21.62C96.58,33.93,100,25.49,103,16.88a91.68,91.68,0,0,0,3.13-10.53,16.09,16.09,0,0,0,.4-2.55c0-.61-.16-.76-.74-.54a9.26,9.26,0,0,0-2.5,1.65,66.06,66.06,0,0,0-5.15,4.91,121,121,0,0,1-11.95,10.7,105.21,105.21,0,0,1-18.88,12,62.71,62.71,0,0,1-13.71,5,46.6,46.6,0,0,1-11.34,1A45.85,45.85,0,0,1,36.44,38c-.21,0-.5,0-.57-.28s.13-.41.32-.54Z"/><path class="cls-4" d="M84,71.14a30.37,30.37,0,0,0-1.78-2.85l-.34-.43a16.94,16.94,0,0,0-1.34,1.73A8.43,8.43,0,0,1,79.43,71a.77.77,0,0,1-.81.2c-.31-.12-.3-.43-.29-.71a11,11,0,0,1,1.09-3.91C82,60,84.95,53.57,87.76,47.1c3.48-8,7-16,9.85-24.32,1.38-4,2.63-8.12,3.94-12.19.06-.17.2-.37,0-.52s-.37,0-.52.11a26.83,26.83,0,0,0-2.8,2.06L87.39,21A14.25,14.25,0,0,0,85,23.39a5,5,0,0,0-.78,1.39c-.28.82-.28.87.38,1.4a1.13,1.13,0,0,1,0,1.94A11.39,11.39,0,0,1,81.74,30a114.24,114.24,0,0,1-24.82,9A55.22,55.22,0,0,1,46,40.29a46.25,46.25,0,0,1-8.42-.54,23.84,23.84,0,0,1-2.36-.57,3.58,3.58,0,0,0-3.19.58,12.74,12.74,0,0,0-3.07,3.07c-.33.48-.28.63.28.82a28.9,28.9,0,0,0,4.94,1.1,110.1,110.1,0,0,1,32.18,9.9,41.28,41.28,0,0,1,4.28,2.43,6.15,6.15,0,0,1,.86.66c.78.74.68,1.33-.31,1.77a7.56,7.56,0,0,1-2.47.54,8.69,8.69,0,0,1-5.29-1.24,35.15,35.15,0,0,0-6.6-2.68A248.59,248.59,0,0,0,30.08,48.8c-1.57-.34-3.13-.67-4.72-.93-.94-.15-1.26-.7-1-1.66a7.16,7.16,0,0,1,1.11-2,38,38,0,0,1,6-6.21,90.31,90.31,0,0,1,9-6.76c.13-.09.26-.25.52-.12L39.15,32.4A74.5,74.5,0,0,0,29,40.5a22.3,22.3,0,0,0-4,4.83,3.61,3.61,0,0,0-.44,1.1c-.14.73.09,1,.85,1.18,1.07.2,2.14.39,3.2.61,6.06,1.24,12,2.77,18,4.46a148.37,148.37,0,0,1,14.61,4.81A23.74,23.74,0,0,1,64.28,59a8,8,0,0,0,6.66.35c1.06-.33,1.11-.91.23-1.61a22.38,22.38,0,0,0-3.35-2.06,93.88,93.88,0,0,0-17.15-7,100.58,100.58,0,0,0-12.07-3c-2.7-.48-5.41-.87-8.09-1.48a10.15,10.15,0,0,1-1.58-.48c-.4-.16-.55-.44-.3-.81a10.07,10.07,0,0,1,4.52-4,3.7,3.7,0,0,1,2.5.12,32.09,32.09,0,0,0,8.1,1,51.83,51.83,0,0,0,9.15-.57A75.44,75.44,0,0,0,66.46,36a139.29,139.29,0,0,0,14.8-6,14.5,14.5,0,0,0,2.88-1.74c.13-.11.27-.22.39-.34.64-.63.62-1.07-.08-1.62s-.74-.65-.44-1.53a7.7,7.7,0,0,1,2.21-3c1.86-1.77,4-3.26,5.95-4.86,2.61-2.11,5.16-4.3,7.87-6.29a10.57,10.57,0,0,1,1-.64c.34-.2.45-.23.67,0s.14.43.06.67c-.82,2.57-1.65,5.14-2.45,7.72A268.07,268.07,0,0,1,89,44.81c-3.25,7.54-6.67,15-9.69,22.66a9.45,9.45,0,0,0-.78,2.78c0,.28-.18.68.19.83s.61-.18.81-.43c.52-.65,1-1.32,1.5-2,.87-1.17.88-1.17,1.69,0a16,16,0,0,1,1.4,2.41Z"/><path class="cls-4" d="M98.72,96.67c.69,1.42,1.36,2.85,2.07,4.27a42.74,42.74,0,0,0,4.12,7,5.24,5.24,0,0,0,4.76,2.2,24.34,24.34,0,0,0,4.93-.88,12.34,12.34,0,0,1,5.59-.28,4.28,4.28,0,0,1,.69.2,2,2,0,0,1,1.36,2.67,12.3,12.3,0,0,1-4.36,6.22,31,31,0,0,1-7.21,3.91c-9.59,4.13-19.44,7.54-29.39,10.7-.13,0-.27.19-.44,0,.09-.22.32-.24.49-.32,6.12-2.81,12.34-5.4,18.5-8.12a125.23,125.23,0,0,0,11.77-5.55,24.46,24.46,0,0,0,5.2-3.69,5.78,5.78,0,0,0,1-1.3,1.25,1.25,0,0,0,.12-1.36,1.33,1.33,0,0,0-1.34-.5,29.67,29.67,0,0,0-4.31.85,17.18,17.18,0,0,1-5.09.47,4.67,4.67,0,0,1-3.3-1.61,19.16,19.16,0,0,1-2.83-4.68c-1.39-3.06-2.88-6.07-4.32-9.11-.07-.14-.12-.28-.18-.43l.1-.12c.83,1.51,1.5,3.1,2.27,4.63,1.25,2.47,2.23,5.08,3.64,7.48a16.52,16.52,0,0,0,1,1.47A5,5,0,0,0,108,113a24.31,24.31,0,0,0,5.62-.83,21.82,21.82,0,0,1,2.89-.54,2.54,2.54,0,0,1,1,.12,1.14,1.14,0,0,1,.74,1.43l0,.08a5.39,5.39,0,0,1-1.72,2.3,34.47,34.47,0,0,1-8.68,5.39c-7.49,3.49-15.15,6.63-22.7,10l-1.51.67c.16.11.3,0,.46,0a292.62,292.62,0,0,0,27.63-10.26,26.65,26.65,0,0,0,6.12-3.44,12.2,12.2,0,0,0,4.24-6,1.88,1.88,0,0,0-1.43-2.58,10.57,10.57,0,0,0-4.37-.16c-1.41.17-2.73.72-4.13.94a11.87,11.87,0,0,1-4.43.09,5.15,5.15,0,0,1-2.92-2.12,35.09,35.09,0,0,1-3.67-6.06c-.87-1.7-1.71-3.42-2.45-5.18Z"/><path class="cls-4" d="M29.36,38.66c.23.21.35,0,.47-.14A85.4,85.4,0,0,1,39.54,31a1.19,1.19,0,0,1,.84-.32l-.92.64a75.67,75.67,0,0,0-11.6,9.4,18.85,18.85,0,0,0-3.6,4.66,2.72,2.72,0,0,0-.38,1.68,1.42,1.42,0,0,0,1.34,1.17c4.59.8,9.11,1.88,13.61,3a206.16,206.16,0,0,1,19.77,5.92,33.7,33.7,0,0,1,5.67,2.5,7.88,7.88,0,0,0,5,.69,6.08,6.08,0,0,0,2.19-.58c1.15-.59,1.29-1.44.37-2.34a12.72,12.72,0,0,0-2.71-1.81A83,83,0,0,0,55,49.37a109,109,0,0,0-14-3.91c-2.4-.49-4.82-.86-7.23-1.29a34.17,34.17,0,0,1-4.18-.93c-.24-.08-.52-.14-.26-.47a9.1,9.1,0,0,1,4.17-3.29,3.88,3.88,0,0,1,2.39.23,32.2,32.2,0,0,0,7.28.94c1.52.08,3,0,4.57,0l.1.17a49.74,49.74,0,0,1-5.66,0,28.5,28.5,0,0,1-6.33-.88,3.69,3.69,0,0,0-2.43-.23,9.59,9.59,0,0,0-3.83,3c-.2.24-.05.32.16.37.62.15,1.23.32,1.86.46,3.19.69,6.43,1.09,9.62,1.76A113.21,113.21,0,0,1,62.36,52c1.56.67,3.1,1.42,4.64,2.14h0c0,.13.13.11.22.12h0c0,.13.13.11.23.12h0c0,.12.13.12.23.12h0c0,.15.13.12.22.12h0a.91.91,0,0,0,.53.33h0a.21.21,0,0,0,.23.11h0c0,.12.12.13.23.12h0a.84.84,0,0,0,.53.33h0c0,.12.12.13.23.11h0c0,.16.16.16.25.22a13.68,13.68,0,0,1,2.22,1.52c1.06,1,.89,2.19-.48,2.74a9.36,9.36,0,0,1-6.48.24c-1-.31-1.78-1-2.72-1.38a87.57,87.57,0,0,0-8.37-3.08,240.34,240.34,0,0,0-28.69-7.33,1.66,1.66,0,0,1-1.5-2.14,5.61,5.61,0,0,1,.78-1.79c.39-.61.81-1.19,1.21-1.79h0c.12,0,.21-.08.11-.22h0c.26,0,.27-.16.32-.32h0c.09,0,.13,0,.12-.12h0c.1,0,.11,0,.12-.12h0a.11.11,0,0,0,.12-.12h0l.12-.12h0c.08-.05.2-.09.11-.23h0c.21,0,.29-.14.33-.32h0c.09,0,.13,0,.12-.12h0c.09,0,.13,0,.12-.12h0q.14,0,.12-.12h0c.1,0,.11,0,.12-.12h0a.11.11,0,0,0,.12-.12h0a.11.11,0,0,0,.12-.12h0a.11.11,0,0,0,.12-.12h0a.11.11,0,0,0,.12-.12h0a.1.1,0,0,0,.12-.12h0a.1.1,0,0,0,.12-.12h0a.1.1,0,0,0,.12-.12h0a.17.17,0,1,0-.33.06h0a.1.1,0,0,0,.12-.12h0a.1.1,0,0,0,.12-.12h0a.26.26,0,0,0,.22-.22h0a.1.1,0,0,0,.12-.12h0a.1.1,0,0,0,.12-.12h0c.07,0,.13,0,.11-.12h0c.09,0,.14,0,.11-.11h0q.14,0,.11-.11h0q.14,0,.11-.11h0c.13-.05.34-.07.11-.27Z"/><path class="cls-4" d="M77.72,70a13.87,13.87,0,0,1,1.16-3.79c2.79-7,5.87-13.78,8.86-20.65s6-14,8.63-21.12c1.57-4.34,2.87-8.77,4.29-13.16v-.12l-.09.06c-.32.09-.38.39-.49.64h-.14l-.07-.08v.1h0c-.21-.06-.29.13-.41.22l-7.57,6.14c-.23.19-.53.31-.66.61h0a.5.5,0,0,0-.43.32h0a.54.54,0,0,0-.43.32h0c-.08,0-.14,0-.12.12h0a.36.36,0,0,0-.33.22h0c-.07,0-.12,0-.12.12h0a.66.66,0,0,0-.43.32h0c-.07,0-.13,0-.12.12h0c-.16,0-.24.12-.33.22h0l-.12.12h0c-.07,0-.13,0-.12.12h0a.73.73,0,0,0-.43.32h0c-.07,0-.12,0-.12.12h0c-.07,0-.14,0-.12.12h0a1,1,0,0,0-.54.43h0a.11.11,0,0,0-.12.12h0c-.07,0-.14,0-.11.12h0c-.09,0-.13,0-.12.11h0a3.82,3.82,0,0,0-1.07.93,6.52,6.52,0,0,0-1.24,1.79c-.14.35-.15.6.22.82a2.06,2.06,0,0,1,.55.54c.48.65.37,1.35-.33,2.09a12.14,12.14,0,0,1-3.66,2.4,135.26,135.26,0,0,1-16,6.46c-1.17.39-2.34.76-3.52,1.14h0c-.27.06-.54.11-.81.18A63.16,63.16,0,0,1,54.72,40l-.26-.11c2.05-.43,4.11-.84,6.14-1.38A119.74,119.74,0,0,0,76.86,32.7a47.62,47.62,0,0,0,6.9-3.39,6.15,6.15,0,0,0,1.44-1.18A1.3,1.3,0,0,0,85,26c-.63-.53-.65-.55-.3-1.3A8.64,8.64,0,0,1,86.86,22c1.86-1.72,3.92-3.19,5.88-4.78q3.84-3.13,7.71-6.24c.15-.12.31-.38.5-.25s0,.35-.08.52c-2.07,6.44-4,12.91-6.58,19.2-3,7.48-6.25,14.85-9.47,22.23-2.13,4.89-4.29,9.77-6.21,14.75A14.76,14.76,0,0,0,77.88,70Z"/><path class="cls-2" d="M54.72,40a63.16,63.16,0,0,0,6.64-1.48c.27-.07.54-.12.81-.18,0,.08-.26.11,0,.25L65,40.27a.38.38,0,0,0,.35,0A9.78,9.78,0,0,1,74,41.55a11.2,11.2,0,0,1,2.41,2h-.12c-.34-.27-.66-.55-1-.81A11.7,11.7,0,0,0,67,40.19c-3,.31-4.39,2.7-3.16,5.45a9.27,9.27,0,0,0,3.3,3.79,11.38,11.38,0,0,0,8.18,2.32,3.57,3.57,0,0,0,3.08-5.13,12.75,12.75,0,0,0-1.08-1.93l.07-.06A7.69,7.69,0,0,1,78.78,47a3.43,3.43,0,0,1-1.71,4.39,7.31,7.31,0,0,1-4.6.59,12,12,0,0,1-8.08-4.58,6.18,6.18,0,0,1-1.32-4.72.38.38,0,0,0-.24-.44l-4.2-2.37a.9.9,0,0,0-.59-.09l-3.25.36c-.06,0-.24.09-.15-.12C54.58,40,54.67,40,54.72,40Zm8.41,1.64s-.05-.1-.09-.12l-3.17-1.77c-.17-.09-.2.06-.27.15s0,.22.09.29l3,1.69c.33.12.34-.08.44-.23Zm1.36-1.06a.36.36,0,0,0-.18-.32L62.1,38.92a.25.25,0,0,0-.35,0h0c-.08.14,0,.27.14.35l2.25,1.36c.16.1.31.1.36-.1Z"/><path class="cls-2" d="M67,54.17c-1.55-.71-3.08-1.47-4.64-2.14a113.21,113.21,0,0,0-21.19-6.72c-3.19-.68-6.43-1.08-9.62-1.76-.62-.13-1.24-.3-1.86-.46-.21-.05-.36-.13-.16-.37a9.59,9.59,0,0,1,3.83-3,3.69,3.69,0,0,1,2.43.23,28.5,28.5,0,0,0,6.29.89,49.74,49.74,0,0,0,5.66,0l.39.08a37.28,37.28,0,0,1-12.41-.72c-.59-.14-1.19-.24-1.78-.35a.5.5,0,0,0-.48.09c-1.15,1-2.32,2-3.58,3l2.22.26a95.32,95.32,0,0,1,25,6.27,102.41,102.41,0,0,1,9.59,4.45C66.81,54,67,54,67,54.17Z"/><path class="cls-2" d="M25.71,42.72c-.4.6-.82,1.18-1.21,1.79a5.61,5.61,0,0,0-.78,1.79,1.66,1.66,0,0,0,1.5,2.14,240.34,240.34,0,0,1,28.69,7.33,87.57,87.57,0,0,1,8.37,3.08c.94.4,1.74,1.07,2.72,1.38A9.36,9.36,0,0,0,71.48,60c1.37-.55,1.54-1.72.48-2.74a13.68,13.68,0,0,0-2.22-1.52c-.09-.06-.24-.06-.25-.22.16-.05.26.07.37.14l4.68,2.78c.49.29.49.52,0,.82a8.29,8.29,0,0,1-2.27.88,24.58,24.58,0,0,1-5.1.89,3,3,0,0,1-1.55-.32,114,114,0,0,0-17-6.3A217,217,0,0,0,26.83,49c-.85-.16-1.72-.2-2.57-.36A1.52,1.52,0,0,1,23,46.32,11.51,11.51,0,0,1,25.71,42.72Z"/><path class="cls-4" d="M61.36,17.87c.92-.32,1.77-.82,2.65-1.22a158.61,158.61,0,0,1,16.11-6.42A5.3,5.3,0,0,1,82,9.85a.65.65,0,0,1,.64.35.66.66,0,0,1-.18.76,5.3,5.3,0,0,1-1.26.91,79.88,79.88,0,0,1-7.7,3.78A171.65,171.65,0,0,0,56,24.9c-2.65,1.52-5.27,3.09-7.91,4.63-.14.08-.26.24-.49.15,0-.21.21-.24.34-.31,5.83-3.5,11.74-6.86,17.69-10.15,3.49-1.93,7.2-3.39,10.78-5.13,1.66-.81,3.33-1.59,4.92-2.52a4.89,4.89,0,0,0,1-.74.48.48,0,0,0,.17-.56c-.09-.21-.3-.22-.49-.22a8.65,8.65,0,0,0-2.65.64A136.94,136.94,0,0,0,56.4,20.82c-3.8,2.18-7.51,4.52-11.27,6.78-.18.11-.33.32-.6.23.05-.2.24-.24.37-.32l11-6.68c.12-.07.3-.09.35-.27h0c.1,0,.19,0,.23-.11h0a.79.79,0,0,0,.53-.33h0c.1,0,.2,0,.23-.12h0c.09,0,.2,0,.23-.12h0a.21.21,0,0,0,.23-.12h0a1.86,1.86,0,0,0,.74-.43h0c.08,0,.2,0,.23-.12h0c.09,0,.19,0,.23-.12h0c.09,0,.19,0,.23-.12h0c.09,0,.18,0,.23-.12h0l.23-.11h0a10.44,10.44,0,0,0,1.57-.84C61,17.85,61.22,17.94,61.36,17.87Z"/><path class="cls-2" d="M62.14,38.36c1.17-.38,2.35-.75,3.52-1.14a135.26,135.26,0,0,0,16-6.46,12.14,12.14,0,0,0,3.66-2.4c.7-.74.81-1.44.33-2.09a2.06,2.06,0,0,0-.55-.54c-.37-.22-.36-.47-.22-.82a6.52,6.52,0,0,1,1.46-2.06,3.82,3.82,0,0,1,1.07-.93c-.18.42-.58.65-.85,1a5.48,5.48,0,0,0-.92,1.49A1.56,1.56,0,0,0,86,26.22a1.51,1.51,0,0,1,0,2.46,13.08,13.08,0,0,1-3.62,2.4,113.5,113.5,0,0,1-10.77,4.46L65.21,38A8.58,8.58,0,0,1,62.14,38.36Z"/><path class="cls-3" d="M141.36,77.9a1.35,1.35,0,0,1-1.54-.66,2.57,2.57,0,0,1,0-2.43c.38-.68,1.07-.61,1.71-.55a1.16,1.16,0,0,1,1,.88c.22.69.06,1.43.29,2.14.1.33-.31.58-.68.62S141.61,77.91,141.36,77.9Z"/><path class="cls-2" d="M116,112.49a3.51,3.51,0,0,1,1,0,3.33,3.33,0,0,1-1.07.45,26.57,26.57,0,0,1-8.58,1.28,13.4,13.4,0,0,1-1.5-.13,3.26,3.26,0,0,1-2.61-1.74A18.22,18.22,0,0,1,102,110c.38.53.75,1.07,1.15,1.58a5.29,5.29,0,0,0,3.43,2.12,12.44,12.44,0,0,0,4.22-.11C112.5,113.27,114.23,112.86,116,112.49Z"/><path class="cls-2" d="M118.17,118.75c0,.25-.24.3-.38.4a41.9,41.9,0,0,1-8.59,4.57c-4.37,1.83-8.85,3.35-13.34,4.87a1.88,1.88,0,0,1-.35,0c.05-.11.17-.1.26-.14,4.75-1.72,9.47-3.52,14.11-5.5a43.19,43.19,0,0,0,7.38-3.69A3,3,0,0,1,118.17,118.75Z"/><path class="cls-2" d="M105,106.89h-.1a5.49,5.49,0,0,0-.94-1.36h0c.07-.18-.08-.28-.15-.39a89.7,89.7,0,0,1-4.38-8.65,1.35,1.35,0,0,1-.06-.19c.46-.16.68,0,.88.43,1.49,3.17,3,6.32,4.53,9.49.1.21.31.4.21.67Z"/><path class="cls-4" d="M118.17,118.75a3,3,0,0,0-.9.57,43.19,43.19,0,0,1-7.38,3.69c-4.65,2-9.37,3.78-14.11,5.5-.09,0-.21,0-.26.14h0a2.58,2.58,0,0,0-1.18.41h0c-.11,0-.24,0-.3.1h0c-.1,0-.21,0-.25.1h0a.33.33,0,0,0-.3.1h0a.33.33,0,0,0-.3.1h0a.33.33,0,0,0-.3.1h0a.33.33,0,0,0-.3.1H92l5.43-2c5.55-2,11.06-4.15,16.41-6.65a20,20,0,0,0,5.32-3.46l.27-.17c-.07.49-.58.57-.69.93h0a.75.75,0,0,0-.53.42Z"/><path class="cls-5" d="M24.17,17.4l.29.08c1.46.13,1.87.92,1.1,2.12a2.52,2.52,0,0,1-1.46.6c-1,0-1.75-.74-1.37-1.7A2.28,2.28,0,0,1,24.17,17.4ZM24,19.49a1.49,1.49,0,0,0,1.16-.56c.27-.35.18-.62-.26-.72a1.4,1.4,0,0,0-1.24.35c-.18.15-.39.34-.31.61s.38.29.64.32Z"/><path class="cls-4" d="M101.94,122.61c1.39-.51,2.72-1.17,4.06-1.78a44.81,44.81,0,0,0,8.4-4.68,16,16,0,0,0,2.27-2c.07-.07.12-.17.28-.14,0,.22-.16.32-.28.44a24.24,24.24,0,0,1-5.48,4A119.62,119.62,0,0,1,100,123.71c-.1-.13-.15-.25.08-.29a1.82,1.82,0,0,0,.75-.32h0c.08,0,.2,0,.22-.12h0a2.32,2.32,0,0,0,1-.43Z"/><path class="cls-2" d="M91.22,18.81c.13-.3.43-.42.66-.61l7.57-6.14c.12-.1.2-.29.41-.22a17.36,17.36,0,0,1-3.11,3c-1.71,1.39-3.51,2.65-5.29,3.94C91.4,18.79,91.35,18.93,91.22,18.81Z"/><path class="cls-4" d="M87.47,129.14c-2.1.95-4.2,1.88-6.29,2.85-1.22.56-2.41,1.18-3.61,1.77-.15.08-.38.12-.26.4s.32.11.47.07l5.7-1.8a1.59,1.59,0,0,0,.35-.08v.25a.42.42,0,0,0-.37.08h0a4.34,4.34,0,0,0-1.19.39l-4.62,1.44h-.2c-.53-.48-.52-.7.07-1,1.29-.69,2.62-1.3,3.94-1.93s2.42-1,3.57-1.67h0a1.67,1.67,0,0,0,.75-.32h0a2,2,0,0,0,.75-.32h.18c.16-.06.19-.26.32-.32S87.4,128.67,87.47,129.14Z"/><path class="cls-4" d="M116,112.49c-1.75.37-3.49.78-5.25,1.11a12.44,12.44,0,0,1-4.22.11,5.29,5.29,0,0,1-3.43-2.12c-.4-.51-.77-1.05-1.15-1.58h0l-.12-.23h0l-.11-.17h0l-.1-.15c-.21-.25-.44-.5-.21-.85.56.89,1.08,1.8,1.69,2.65,1.39,1.93,3.33,2.43,5.55,2.32a40,40,0,0,0,6.4-1.16,3.22,3.22,0,0,1,.91-.15Z"/><path class="cls-2" d="M85,130c-1.15.65-2.38,1.1-3.57,1.67s-2.65,1.24-3.94,1.93c-.59.31-.6.54-.07,1h0a2,2,0,0,1-.87,0c-.38-.08-.46-.28-.21-.58a3.41,3.41,0,0,1,1-.75,47.3,47.3,0,0,1,4.84-2.21A20.58,20.58,0,0,1,85,130Z"/><path class="cls-2" d="M100.17,106.58c-.2,0-.18-.15-.23-.25l-4.77-9.72c0-.1-.23-.24,0-.33s.2.13.27.25c.21.33.24.77.59,1h0c-.08.13,0,.2.11.22h0c-.08.26.14.42.22.62l.87,1.87C98.19,102.35,99.28,104.42,100.17,106.58Z"/><path class="cls-2" d="M105.81,108a1.53,1.53,0,0,1,.7.27,8.43,8.43,0,0,0,5,1,2.16,2.16,0,0,1,.36,0,3,3,0,0,1-1.37.26c-1.69.18-3.31.08-4.55-1.31l-.1-.2Z"/><path class="cls-4" d="M122.72,109.8a4,4,0,0,1-.2,3.25,13.56,13.56,0,0,1-2.58,4c-.09.09-.14.25-.35.21,0-.21.17-.31.28-.44a13.06,13.06,0,0,0,2.68-4.45,2.66,2.66,0,0,0-.67-3.16c.36-.22.56-.09.64.29,0,.07,0,.15.12.12h0c0,.11,0,.2.11.22Z"/><path class="cls-4" d="M100.17,106.58c-.9-2.16-2-4.23-3-6.35l-.87-1.87.1-.12c.9,1.66,1.66,3.4,2.49,5.1.57,1.18,1.09,2.38,1.64,3.57l-.09.13h-.1a.16.16,0,0,0-.1-.2h0c0-.09,0-.18-.12-.22Z"/><path class="cls-2" d="M114.75,108.36c.71-.14,1.39-.41,2.11-.49a8.06,8.06,0,0,1,3.88.38c.16.06.39.07.44.3a12.19,12.19,0,0,0-5.31-.23C115.5,108.38,115.13,108.65,114.75,108.36Z"/><path class="cls-4" d="M114.75,108.36c.38.29.76,0,1.12,0a12.19,12.19,0,0,1,5.31.23c.24-.09.4.06.57.18s.16.13-.16.26a9.7,9.7,0,0,0-5.47-.49c-.56.07-1.11.21-1.67.31,0-.1-.11-.1-.18,0h0C114.11,108.36,114.52,108.45,114.75,108.36Z"/><path class="cls-4" d="M105.89,108.14c1.24,1.39,2.87,1.49,4.55,1.31a3,3,0,0,0,1.37-.26c.18,0,.25-.29.44-.18s-.06.24,0,.37a11.33,11.33,0,0,1-4.05.24,3.65,3.65,0,0,1-2.4-1.37Z"/><path class="cls-2" d="M77.61,134.53l4.62-1.44h0c-1.29.43-2.54,1-3.85,1.3a1.21,1.21,0,0,1-.79.1h0Z"/><path class="cls-4" d="M50.14,40.46l2.67-.32.12.15c-.21.12-.47,0-.67.15h0c-.25,0-.52-.08-.76.09h0c-.26,0-.54-.1-.79.09h-.5Z"/><path class="cls-4" d="M84.36,132.18a10.37,10.37,0,0,1,1.67-.53c0,.16,0,.28-.22.34-.41.12-.81.27-1.21.43S84.36,132.33,84.36,132.18Z"/><path class="cls-4" d="M89.87,128.1a13.13,13.13,0,0,1-1.78.77l-.37-.13c.09-.15.22-.09.33-.11s.23,0,.3-.1h0a.17.17,0,0,0,.2-.1h0c.1,0,.2,0,.25-.1h0c.1,0,.19,0,.25-.1h0a.28.28,0,0,0,.25-.1h0c.09,0,.17,0,.18-.13C89.71,127.86,89.81,127.85,89.87,128.1Z"/><path class="cls-2" d="M61,18.08a10.44,10.44,0,0,1-1.57.84A4.75,4.75,0,0,1,61,18.08Z"/><path class="cls-2" d="M55.11,34.24l1.06.69h0A2.75,2.75,0,0,1,55,34.34Z"/><path class="cls-2" d="M82.25,133.17h0a4.34,4.34,0,0,1,1.19-.4A3.18,3.18,0,0,1,82.25,133.17Z"/><path class="cls-3" d="M94.36,129.05a2.58,2.58,0,0,1,1.18-.41A2.21,2.21,0,0,1,94.36,129.05Z"/><path class="cls-2" d="M101.94,122.59a2.32,2.32,0,0,1-1,.43A1.83,1.83,0,0,1,101.94,122.59Z"/><path class="cls-2" d="M76.72,43.9a2.3,2.3,0,0,1,.48.58l-.08.07L76.65,44Z"/><path class="cls-4" d="M99.44,124c-.07.11-.2.11-.31.14s-.21-.19,0-.32S99.33,123.89,99.44,124Z"/><path class="cls-2" d="M58.36,19.42a1.86,1.86,0,0,1-.74.43A1.23,1.23,0,0,1,58.36,19.42Z"/><path class="cls-4" d="M112.38,109.15a1.07,1.07,0,0,1,.74-.19A.78.78,0,0,1,112.38,109.15Z"/><path class="cls-2" d="M85.72,129.67A1.67,1.67,0,0,1,85,130,1.12,1.12,0,0,1,85.72,129.67Z"/><path class="cls-5" d="M52.31,40.44c.19-.18.46,0,.67-.15h.24A1.31,1.31,0,0,1,52.31,40.44Z"/><path class="cls-2" d="M118.17,118.76a.75.75,0,0,1,.53-.42A.54.54,0,0,1,118.17,118.76Z"/><path class="cls-2" d="M87.68,21.62a1,1,0,0,1,.54-.43C88.11,21.41,88,21.62,87.68,21.62Z"/><path class="cls-2" d="M100.81,123.11a1.82,1.82,0,0,1-.75.32A1.33,1.33,0,0,1,100.81,123.11Z"/><path class="cls-4" d="M92.18,127.09l-.35.17c0-.1-.28-.09-.13-.25S92,127,92.18,127.09Z"/><path class="cls-4" d="M90.75,127.72l-.36.17c0-.1-.28-.1-.13-.26S90.58,127.65,90.75,127.72Z"/><path class="cls-2" d="M86.44,129.35a2,2,0,0,1-.75.32A1.14,1.14,0,0,1,86.44,129.35Z"/><path class="cls-4" d="M94.59,126.06l-.36.17c0-.09-.24-.12-.14-.22S94.42,126,94.59,126.06Z"/><path class="cls-4" d="M98.3,124.46h-.12c-.15,0-.21-.12-.11-.26s.18-.16.26-.11S98.27,124.34,98.3,124.46Z"/><path class="cls-4" d="M97.58,124.77l-.22.1c0-.1-.32-.12-.1-.28S97.56,124.56,97.58,124.77Z"/><path class="cls-4" d="M91.33,127.47l-.22.1c0-.1-.32-.11-.1-.28S91.32,127.26,91.33,127.47Z"/><path class="cls-4" d="M48.89,40.57h.32c0,.23-.1.32-.32.3h0Z"/><path class="cls-4" d="M96.81,125.09l-.21.1-.18-.17c.08-.06.17-.16.25-.16S96.81,125,96.81,125.09Z"/><path class="cls-2" d="M68.36,54.9a.91.91,0,0,1-.53-.33C68,54.62,68.25,54.66,68.36,54.9Z"/><path class="cls-4" d="M95.17,125.81l-.22.1c0-.09-.29-.11-.11-.25S95.14,125.59,95.17,125.81Z"/><path class="cls-2" d="M57,20.15a.79.79,0,0,1-.53.33C56.57,20.22,56.81,20.2,57,20.15Z"/><path class="cls-2" d="M69.29,55.42a.84.84,0,0,1-.53-.33A.61.61,0,0,1,69.29,55.42Z"/><path class="cls-2" d="M90.39,19.44a.54.54,0,0,1,.43-.32A.38.38,0,0,1,90.39,19.44Z"/><path class="cls-2" d="M90.81,19.13a.5.5,0,0,1,.43-.32A.38.38,0,0,1,90.81,19.13Z"/><path class="cls-4" d="M96,125.43c-.05.11-.17.09-.26.12a.13.13,0,0,1-.12-.21C95.75,125.24,95.91,125.42,96,125.43Z"/><path class="cls-2" d="M88.4,21a.73.73,0,0,1,.43-.32A.39.39,0,0,1,88.4,21Z"/><path class="cls-2" d="M89.44,20.16a.66.66,0,0,1,.43-.32A.4.4,0,0,1,89.44,20.16Z"/><path class="cls-2" d="M27,41.26a.3.3,0,0,1-.33.32A.73.73,0,0,1,27,41.26Z"/><path class="cls-5" d="M50.62,40.65c.25-.19.53,0,.79-.09A1.57,1.57,0,0,1,50.62,40.65Z"/><path class="cls-5" d="M51.49,40.54c.24-.17.51,0,.76-.09A1.48,1.48,0,0,1,51.49,40.54Z"/><path class="cls-2" d="M26.12,42.2c0,.16-.06.37-.32.32A.58.58,0,0,1,26.12,42.2Z"/><path class="cls-2" d="M89,20.47c.09-.1.17-.22.33-.22C89.32,20.42,89.24,20.55,89,20.47Z"/><path class="cls-2" d="M90,19.75c.08-.12.16-.23.33-.22C90.25,19.7,90.18,19.82,90,19.75Z"/><path class="cls-4" d="M113.47,108.85l.11-.15h.08a.33.33,0,0,1-.16.15Z"/><path class="cls-4" d="M53.64,40.15h.1l-.05.11h-.08A.41.41,0,0,1,53.64,40.15Z"/><path class="cls-5" d="M50.12,40.64h.37C50.36,40.72,50.24,40.85,50.12,40.64Z"/><path class="cls-2" d="M83.43,132.69a.42.42,0,0,1,.37-.08A.43.43,0,0,1,83.43,132.69Z"/><path class="cls-2" d="M77.39,134.66h.19C77.6,134.74,77.47,134.65,77.39,134.66Z"/><path class="cls-4" d="M49.87,40.8h-.08s0,0,0-.07.06,0,.07,0S49.86,40.77,49.87,40.8Z"/><path class="cls-3" d="M92.17,129.7h.35a.21.21,0,0,1-.29.06Z"/><path class="cls-2" d="M28.62,39.6a.26.26,0,0,1-.22.22C28.33,39.61,28.44,39.56,28.62,39.6Z"/><path class="cls-3" d="M94,129.16c.07-.14.19-.11.3-.1C94.28,129.22,94.16,129.17,94,129.16Z"/><path class="cls-2" d="M68.81,55.1c-.1,0-.19,0-.23-.12S68.75,55,68.81,55.1Z"/><path class="cls-2" d="M69.5,55.52c-.1,0-.19,0-.23-.11C69.4,55.33,69.47,55.39,69.5,55.52Z"/><path class="cls-2" d="M100.17,106.58c.1,0,.1.14.12.22S100.08,106.71,100.17,106.58Z"/><path class="cls-5" d="M100.27,106.8a.16.16,0,0,1,.1.2C100.2,107,100.22,106.9,100.27,106.8Z"/><path class="cls-2" d="M104.94,106.91c.15-.06.1.06.1.12s0,0-.05,0v-.17Z"/><path class="cls-5" d="M100.38,107h.1v.18h-.05C100.34,107.17,100.31,107.11,100.38,107Z"/><path class="cls-5" d="M100.53,107.44c-.09,0-.1-.13-.1-.21h.05a.2.2,0,0,1,.1.21Z"/><path class="cls-5" d="M100.58,107.42a.2.2,0,0,1,.1.21h0c-.1,0-.1-.13-.11-.21Z"/><path class="cls-5" d="M100.69,107.63l.1.16h-.07l-.07-.18Z"/><path class="cls-4" d="M113.5,108.89a.08.08,0,0,1-.15,0c0-.11.07-.06.12-.09Z"/><path class="cls-2" d="M122.75,109.81c-.13,0-.14-.12-.11-.22C122.72,109.64,122.81,109.69,122.75,109.81Z"/><path class="cls-2" d="M101.81,109.8l.12.23C101.81,110,101.81,109.89,101.81,109.8Z"/><path class="cls-2" d="M59.4,18.9l-.23.11C59.18,18.84,59.32,18.91,59.4,18.9Z"/><path class="cls-2" d="M59.19,19c0,.1-.14.11-.23.12S59.1,19,59.19,19Z"/><path class="cls-2" d="M101,123c0,.13-.14.1-.22.12S100.92,123,101,123Z"/><path class="cls-2" d="M59,19.11c0,.11-.14.1-.23.12C58.81,19.09,58.89,19.1,59,19.11Z"/><path class="cls-2" d="M58.81,19.21c0,.12-.14.11-.23.12S58.68,19.21,58.81,19.21Z"/><path class="cls-2" d="M58.57,19.32c0,.13-.14.1-.23.12S58.47,19.31,58.57,19.32Z"/><path class="cls-2" d="M57.64,19.84a.21.21,0,0,1-.23.12C57.43,19.79,57.54,19.83,57.64,19.84Z"/><path class="cls-2" d="M57.43,19.94c0,.13-.14.11-.23.12S57.32,19.91,57.43,19.94Z"/><path class="cls-2" d="M56.5,20.46c0,.12-.12.13-.23.11S56.36,20.38,56.5,20.46Z"/><path class="cls-2" d="M89.54,128c0,.12-.09.13-.18.13S89.47,128,89.54,128Z"/><path class="cls-2" d="M89.35,128.11a.28.28,0,0,1-.25.1C89.14,128.07,89.25,128.1,89.35,128.11Z"/><path class="cls-2" d="M89.08,128.22c-.06.1-.15.1-.25.1S89,128.2,89.08,128.22Z"/><path class="cls-2" d="M88.81,128.32c-.05.11-.15.1-.25.1S88.72,128.3,88.81,128.32Z"/><path class="cls-2" d="M88.36,128.53c-.07.13-.19.1-.3.1A.25.25,0,0,1,88.36,128.53Z"/><path class="cls-2" d="M57.22,20c0,.14-.13.12-.23.12S57.11,20,57.22,20Z"/><path class="cls-2" d="M29.33,38.71c.23.2,0,.22-.11.27C29.1,38.82,29.31,38.8,29.33,38.71Z"/><path class="cls-3" d="M93.81,129.26c0-.13.15-.1.25-.1S93.89,129.27,93.81,129.26Z"/><path class="cls-2" d="M86.64,129.36h-.2c0-.09.06-.11.13-.11S86.61,129.32,86.64,129.36Z"/><path class="cls-3" d="M93.47,129.36c.07-.13.19-.1.3-.1C93.69,129.38,93.58,129.37,93.47,129.36Z"/><path class="cls-4" d="M48.89,40.85l-.11.08C48.78,40.8,48.85,40.88,48.89,40.85Z"/><path class="cls-3" d="M93.16,129.47c.07-.13.19-.09.3-.1C93.39,129.48,93.28,129.48,93.16,129.47Z"/><path class="cls-3" d="M92.81,129.57c.08-.11.2-.09.3-.1S93,129.57,92.81,129.57Z"/><path class="cls-3" d="M92.53,129.67c.08-.11.2-.08.3-.1S92.64,129.68,92.53,129.67Z"/><path class="cls-2" d="M26.64,41.57c.09.14,0,.17-.11.23C26.44,41.66,26.56,41.63,26.64,41.57Z"/><path class="cls-2" d="M25.81,42.51c.1.14,0,.19-.11.22C25.62,42.6,25.72,42.56,25.81,42.51Z"/><path class="cls-2" d="M77.19,44.48l.15.17-.07.06-.16-.16Z"/><path class="cls-4" d="M91.31,130.09h0V130h0A.11.11,0,0,0,91.31,130.09Z"/><path class="cls-4" d="M90.64,130.26h-.06C90.52,130.26,90.64,130.28,90.64,130.26Z"/><path class="cls-4" d="M90,130.47H90C89.91,130.47,90,130.49,90,130.47Z"/><path class="cls-2" d="M67.21,54.27c-.09,0-.2,0-.22-.12C67.11,54.08,67.18,54.14,67.21,54.27Z"/><path class="cls-2" d="M67.42,54.38c-.09,0-.2,0-.23-.12S67.4,54.22,67.42,54.38Z"/><path class="cls-2" d="M67.62,54.48c-.1,0-.19,0-.23-.12S67.6,54.36,67.62,54.48Z"/><path class="cls-2" d="M67.81,54.59c-.09,0-.21,0-.22-.12S67.81,54.46,67.81,54.59Z"/><path class="cls-2" d="M68.57,55a.21.21,0,0,1-.23-.11C68.47,54.81,68.54,54.88,68.57,55Z"/><path class="cls-2" d="M101.72,109.65l.11.17C101.72,109.81,101.73,109.72,101.72,109.65Z"/><path class="cls-2" d="M89.35,20.27c0-.09,0-.11.12-.12S89.43,20.28,89.35,20.27Z"/><path class="cls-2" d="M89.86,19.85c0-.09,0-.11.12-.12C90.06,19.89,90,19.87,89.86,19.85Z"/><path class="cls-2" d="M90.29,19.54c0-.1,0-.12.12-.12S90.37,19.55,90.29,19.54Z"/><path class="cls-2" d="M99.86,11.85v-.1l.07.08Z"/><path class="cls-2" d="M27.26,41q0,.14-.12.12T27.26,41Z"/><path class="cls-2" d="M27.37,40.84c0,.07,0,.14-.12.12S27.26,40.8,27.37,40.84Z"/><path class="cls-2" d="M27.58,40.64a.11.11,0,0,1-.1.12h0Q27.41,40.59,27.58,40.64Z"/><path class="cls-2" d="M27.69,40.53a.11.11,0,0,1-.1.12h0Q27.51,40.49,27.69,40.53Z"/><path class="cls-2" d="M27.81,40.43a.11.11,0,0,1-.1.12h0C27.65,40.45,27.64,40.36,27.81,40.43Z"/><path class="cls-2" d="M27.89,40.32a.1.1,0,0,1-.07.12h0C27.72,40.31,27.76,40.26,27.89,40.32Z"/><path class="cls-2" d="M28,40.22a.1.1,0,0,1-.07.12h0Q27.81,40.13,28,40.22Z"/><path class="cls-2" d="M28.1,40.12a.1.1,0,0,1-.07.12h0Q27.9,40,28.1,40.12Z"/><path class="cls-2" d="M28.21,40a.1.1,0,0,1-.07.12h0Q28,39.93,28.21,40Z"/><path class="cls-2" d="M28.31,39.91a.1.1,0,0,1-.07.12h0Q28.1,39.82,28.31,39.91Z"/><path class="cls-2" d="M28.4,39.8a.1.1,0,0,1-.07.12h0Q28.2,39.72,28.4,39.8Z"/><path class="cls-2" d="M27.47,40.74a.11.11,0,0,1-.1.12h0Q27.31,40.7,27.47,40.74Z"/><path class="cls-2" d="M28.71,39.49a.1.1,0,0,1-.07.12h0Q28.51,39.41,28.71,39.49Z"/><path class="cls-2" d="M28.81,39.39a.1.1,0,0,1-.07.12h0Q28.62,39.3,28.81,39.39Z"/><path class="cls-2" d="M28.93,39.28c0,.09,0,.11-.11.12S28.81,39.23,28.93,39.28Z"/><path class="cls-2" d="M29,39.18c0,.1,0,.12-.11.11S28.89,39.13,29,39.18Z"/><path class="cls-2" d="M29.14,39.08q0,.14-.11.11Q28.93,39,29.14,39.08Z"/><path class="cls-2" d="M29.24,39q0,.14-.11.11Q29,38.89,29.24,39Z"/><path class="cls-2" d="M76.5,43.68l.13.14-.09.07-.11-.1Z"/><path class="cls-2" d="M88.57,128.42a.17.17,0,0,1-.2.1C88.39,128.42,88.47,128.41,88.57,128.42Z"/><path class="cls-2" d="M76.64,43.82l.08.08-.07.09-.1-.1Z"/><path class="cls-2" d="M76.37,43.56l.13.12-.07.11-.1-.1Z"/><path class="cls-2" d="M76.36,43.53h0v.12l-.1-.1Z"/><path class="cls-2" d="M26.22,42.09c0,.09,0,.13-.12.12S26.14,42.08,26.22,42.09Z"/><path class="cls-2" d="M26.33,42c0,.07,0,.14-.12.12S26.21,41.94,26.33,42Z"/><path class="cls-2" d="M26.44,41.88a.11.11,0,0,1-.1.12h0Q26.27,41.84,26.44,41.88Z"/><path class="cls-2" d="M26.55,41.78l-.12.12C26.42,41.81,26.39,41.71,26.55,41.78Z"/><path class="cls-2" d="M105.69,108l.08-.08v.07h-.08Z"/><polygon class="cls-4" points="113.83 108.82 113.86 108.81 113.84 108.83 113.83 108.82"/><path class="cls-2" d="M87.37,21.93c0-.09,0-.13.12-.11S87.47,22,87.37,21.93Z"/><path class="cls-2" d="M87.47,21.83c0-.1,0-.11.11-.12S87.61,21.87,87.47,21.83Z"/><path class="cls-2" d="M27.06,41.16c0,.09,0,.13-.12.12S27,41.14,27.06,41.16Z"/><path class="cls-2" d="M87.58,21.73a.11.11,0,0,1,.1-.12h0C87.81,21.75,87.72,21.78,87.58,21.73Z"/><path class="cls-2" d="M88.21,21.21c0-.1,0-.11.12-.12S88.31,21.22,88.21,21.21Z"/><path class="cls-2" d="M88.31,21.1c0-.08,0-.11.12-.12C88.5,21.13,88.4,21.12,88.31,21.1Z"/><path class="cls-2" d="M88.81,20.69c0-.09,0-.11.12-.12S88.92,20.69,88.81,20.69Z"/><path class="cls-2" d="M88.93,20.58l.12-.12C89.12,20.61,89,20.61,88.93,20.58Z"/><path class="cls-2" d="M122.64,109.6c-.11,0-.11,0-.12-.12S122.64,109.53,122.64,109.6Z"/><path class="cls-2" d="M27.17,41.05c0,.09,0,.13-.12.12S27.06,41,27.17,41.05Z"/><polygon class="cls-5" points="77.61 134.53 77.63 134.55 77.61 134.57 77.61 134.56 77.61 134.53"/><path class="cls-2" d="M101.63,109.51l.1.15C101.66,109.64,101.64,109.58,101.63,109.51Z"/><path class="cls-4" d="M171.81,53.1a3.65,3.65,0,1,1-.07,0Zm0,6.9a3.23,3.23,0,1,0-3.21-3.25A3.23,3.23,0,0,0,171.81,60Z"/><path class="cls-5" d="M55,34.33a2.75,2.75,0,0,0,1.17.59c-.05.19.27.18.2.42s-.29.44-.68.22l-13-7.46L27.31,19.29c-.33-.19-.5-.26-.66.19A2.54,2.54,0,0,1,24.89,21L32,24.81,51.89,35.46c.17.09.53.08.37.48s-.33.32-.63.16L44,32,23.81,21.22c-.2-.1-.59-.1-.42-.56.1-.27.23-.31.49-.29a1.87,1.87,0,0,0,1.82-.65A2.42,2.42,0,0,0,26.24,18c.22-.07.35.11.51.19L54.36,34C54.57,34.12,54.81,34.22,55,34.33Z"/><path class="cls-1" d="M52,36.6c-4.93.56-9.76,1.59-14.67.39,0-.19.2-.22.31-.29l6-3.69a.56.56,0,0,1,.61-.08c2.52,1.18,5,2.34,7.56,3.52Z"/><path class="cls-1" d="M77.72,70h.17v.67a1,1,0,0,0,1.58.84l.39-.24a1.09,1.09,0,0,1-1.22.6,1,1,0,0,1-.91-.91A2.71,2.71,0,0,1,77.72,70Z"/><path class="cls-1" d="M81.06,69.71l.61-.83.12.09-.6.85Z"/><path class="cls-1" d="M81.18,69.81l-.51.69-.09-.14L81,69.7Z"/><path class="cls-1" d="M80.68,70.5l-.35.43-.12-.08.38-.49Z"/><path class="cls-1" d="M80.32,70.93c0,.08-.11.2-.21.13s0-.15.09-.21Z"/><path class="cls-1" d="M21.33,87.73V87a1.82,1.82,0,0,1,2.25-1.67,7.74,7.74,0,0,0,3,.32,2.2,2.2,0,0,1,1,.19,7.06,7.06,0,0,0,2.06.43,2.22,2.22,0,0,1,1.66,2.47v.1c-.51,2.35-.7,2.52-3.13,2.83a3.63,3.63,0,0,1-1.27-.06,5.79,5.79,0,0,0-2.11.12,4.53,4.53,0,0,1-2.4-.19.73.73,0,0,1-.56-.81,5.31,5.31,0,0,0-.27-1.41A8.81,8.81,0,0,1,21.33,87.73Z"/><path class="cls-1" d="M24,82.77H22.49c-.69,0-1-.44-.75-1.06a2.08,2.08,0,0,0-.07-1.81,3.92,3.92,0,0,1,.13-2.83c.13-.36.67-.47,1.19-.22a4.42,4.42,0,0,0,2.76.25,5.55,5.55,0,0,1,3,.44,2.46,2.46,0,0,1,1.1,2.89,1.17,1.17,0,0,1-.07.25,1.08,1.08,0,0,1-.8,1.07c-.68.24-1.33.62-2,.83A10.73,10.73,0,0,1,24,82.77Z"/><path class="cls-4" d="M45.19,28.28c-.07-.23.07-.25.14-.29C50.85,24.7,56.21,21.17,62,18.33a153.68,153.68,0,0,1,18.24-7.47c.41-.14.83-.23,1.25-.33.12,0,.29-.12.36.05s-.11.2-.2.26c-.44.27-.88.56-1.33.8-3.63,1.94-7.42,3.57-11.15,5.3S62,20.79,58.47,22.82s-7.23,4.25-10.8,6.44c-.14.09-.29.27-.56.1L49.36,28c6-3.61,12-7.19,18.17-10.45,2.59-1.36,5.31-2.47,8-3.71C77.26,13,79,12.2,80.66,11.27a.81.81,0,0,0,.48-.45A159.7,159.7,0,0,0,62.51,18.3C56.5,21.2,51,24.93,45.19,28.28Zm36-17.39Z"/><path class="cls-1" d="M156.73,85.77a2.26,2.26,0,0,1-.87-.11,6.73,6.73,0,0,0-2.46.11,4,4,0,0,1-.78,0c-1.07-.07-1.36-.59-.89-1.54a2.46,2.46,0,0,1,1.63-1.47c.33-.08.65-.21,1-.33a2.83,2.83,0,0,1,1.71-.2c.7.18,1.42-.19,2.14,0s1.17.28,1.76.42a1.42,1.42,0,0,1,1.12.72,2.56,2.56,0,0,0,.61.63,1.75,1.75,0,0,1,.45.63c.22.55.07.85-.5,1a3.71,3.71,0,0,1-1.59.15A11.78,11.78,0,0,0,156.73,85.77Z"/><path class="cls-1" d="M40.64,92.32a2.45,2.45,0,0,1-2.16-.67,2.08,2.08,0,0,1,0-2.84c1.16-1.34,2.65-1.25,4.15-1.1a8.65,8.65,0,0,0,2.16,0,.82.82,0,0,1,.59.08c.27.16.66.16.75.56a2.69,2.69,0,0,1,.13,1.57,2.82,2.82,0,0,1-1.46,1.39A9.22,9.22,0,0,1,40.64,92.32Z"/><path class="cls-1" d="M106.13,82.55a15,15,0,0,1,4,.75,1.81,1.81,0,0,1,.91.8,21,21,0,0,1,1.4,3.1,1.57,1.57,0,0,1-.29,1.87,1.76,1.76,0,0,0-.51.83,2,2,0,0,1-1.31,1.49,14.31,14.31,0,0,1-3.12.85c-1.57.32-2.76-.47-4-1.1-.52-.26-.68-.85-.88-1.36a5.49,5.49,0,0,1-.15-.7c-.14-.61-.17-1.23-.35-1.84a3.05,3.05,0,0,1,.52-2.61c.17-.25.43-.46.39-.82a.28.28,0,0,1,.14-.2,4.15,4.15,0,0,1,1.26-.66A10.51,10.51,0,0,1,106.13,82.55Z"/><path class="cls-1" d="M103.92,105.54a5.49,5.49,0,0,1,.94,1.36h0A2.42,2.42,0,0,1,103.92,105.54Z"/><path class="cls-1" d="M96.44,98.24l-.1.12c-.08-.2-.31-.36-.22-.62C96.39,97.8,96.36,98,96.44,98.24Z"/><path class="cls-1" d="M105.67,107.93h.13l.1.2-.11.11C105.73,108.15,105.47,108.12,105.67,107.93Z"/><path class="cls-1" d="M96.11,97.75c-.15,0-.19-.09-.11-.22S96.22,97.61,96.11,97.75Z"/><path class="cls-1" d="M114.27,108.8c.07-.07.14-.07.18,0A.14.14,0,0,1,114.27,108.8Z"/><path class="cls-2" d="M41.61,33.16a1.72,1.72,0,0,1,.62-.42l.06.07c-.24.1-.38.4-.69.34Z"/><path class="cls-2" d="M43.12,32.29l-.32.2-.07-.07a.45.45,0,0,1,.31-.21Z"/><path class="cls-2" d="M42.67,32.55l-.18.13-.06-.07.17-.14Z"/><path class="cls-2" d="M42.49,32.68l-.19.13-.06-.07c0-.1.11-.11.19-.12Z"/><path class="cls-2" d="M41.31,33.37c0-.1.1-.12.18-.13h0a.12.12,0,0,1-.22.09Z"/><path class="cls-2" d="M41,33.58a.15.15,0,0,1,.18-.12h0c0,.11-.09.19-.22.1Z"/><path class="cls-2" d="M40.68,33.78a.15.15,0,0,1,.18-.11h0c0,.1-.1.16-.22.1Z"/><path class="cls-2" d="M40.57,33.88c0,.1-.1.17-.22.1h0a.16.16,0,0,1,.2-.11Z"/><path class="cls-2" d="M36.19,37.21s0-.1.09-.06,0,.08,0,.12Z"/><path class="cls-2" d="M40.35,34v.1h0l.08-.08Z"/><path class="cls-2" d="M40.58,33.89c0-.11,0-.1.1-.11h0C40.75,33.91,40.68,33.88,40.58,33.89Z"/><path class="cls-2" d="M40.89,33.68c0-.11,0-.1.1-.11h0C41.06,33.7,41,33.67,40.89,33.68Z"/><path class="cls-2" d="M41.29,33.36c.07.12,0,.1-.09.11h0c0-.09,0-.09.11-.1Z"/><path class="cls-2" d="M41.49,33.24c0-.07.06-.09.13-.08h0c.08.12,0,.1-.08.12Z"/><path class="cls-2" d="M42.61,32.47l.14-.06.07.07-.14.06Z"/><path class="cls-2" d="M100.58,11.2l.09-.06v.12Z"/><path class="cls-5" d="M76.22,43.58l.1.1.1.1.11.1.1.1.47.56.16.16a12.75,12.75,0,0,1,1.08,1.93,3.57,3.57,0,0,1-3.08,5.13,11.38,11.38,0,0,1-8.18-2.32,9.27,9.27,0,0,1-3.3-3.79c-1.23-2.75.15-5.14,3.16-5.45a11.7,11.7,0,0,1,8.26,2.55C75.57,43,75.89,43.31,76.22,43.58Zm-2.29,7.63A8.15,8.15,0,0,0,75.54,51a2.84,2.84,0,0,0,2.21-4,5.84,5.84,0,0,0-.89-1.63,11.83,11.83,0,0,0-6.47-4.23,7.26,7.26,0,0,0-4.44,0,2.66,2.66,0,0,0-1.86,3.26A4.54,4.54,0,0,0,64.81,46a11.76,11.76,0,0,0,9.14,5.21Z"/><path class="cls-5" d="M63.12,41.65c-.1.15-.12.4-.4.24l-3-1.69c-.12-.07-.18-.15-.09-.29s.1-.24.27-.15l3.17,1.77A.42.42,0,0,0,63.12,41.65Z"/><path class="cls-5" d="M64.49,40.59c-.05.2-.2.2-.35.12l-2.25-1.36c-.12-.07-.23-.2-.14-.35a.25.25,0,0,1,.35-.07h0l2.21,1.34A.36.36,0,0,1,64.49,40.59Z"/><path class="cls-2" d="M24,19.49c-.26,0-.56,0-.65-.32s.13-.45.31-.61a1.4,1.4,0,0,1,1.24-.35c.43.1.53.37.26.72A1.49,1.49,0,0,1,24,19.49Z"/><path class="cls-3" d="M73.94,51.21A11.76,11.76,0,0,1,64.81,46a4.54,4.54,0,0,1-.67-1.62A2.66,2.66,0,0,1,66,41.12a7.26,7.26,0,0,1,4.44,0,11.83,11.83,0,0,1,6.47,4.23,5.84,5.84,0,0,1,.9,1.65,2.84,2.84,0,0,1-2.21,4A8.15,8.15,0,0,1,73.94,51.21Zm.94-1.13a4.25,4.25,0,0,0,1.3-.16,1.4,1.4,0,0,0,1-1.85,3.93,3.93,0,0,0-.75-1.46,14.43,14.43,0,0,0-3.86-3.27c-.23-.14-.33-.06-.47.1s-.22.29,0,.48a4.22,4.22,0,0,1,.81,1.32,1.47,1.47,0,0,1-1.13,2.17,6,6,0,0,1-3-.18c-.22-.06-.43-.17-.58.18s0,.42.25.54.54.31.82.45a14.07,14.07,0,0,0,5.6,1.68Zm-7.61-8c-.64,0-1.2.07-1.47.63a1.32,1.32,0,0,0,.35,1.48,3.89,3.89,0,0,0,3,1.42A1.23,1.23,0,0,0,70.35,45a1.2,1.2,0,0,0-.19-1.32,3.87,3.87,0,0,0-2.89-1.56Z"/><path class="cls-4" d="M172.28,56.77a1.83,1.83,0,0,1,1,1.35c.05.17.06.43.3.42s.21-.23.24-.4,0-.32.22-.27.09.23.07.35a.79.79,0,0,1-.84.74h-.06c-.5,0-.71-.22-.77-.78a1.93,1.93,0,0,0-.08-.67.8.8,0,0,0-.9-.68l-.1,0c-.18,0-.17.12-.17.25V58c0,.29.08.64.52.63.09,0,.19,0,.2.11s-.12.14-.22.14h-1.76c-.09,0-.18,0-.19-.12s.08-.14.17-.14c.51,0,.52-.3.51-.68V55.42c0-.33,0-.59-.44-.58-.12,0-.26,0-.23-.19s.15-.11.25-.11h2.33a1.91,1.91,0,0,1,.59.16.94.94,0,0,1,.7.92,1,1,0,0,1-.69.88A1.53,1.53,0,0,1,172.28,56.77Zm-1.09-1c0,.88.09.95.92.72a.77.77,0,0,0,.58-.92l0-.08c-.09-.46-.45-.65-1-.62s-.42.43-.44.75c0,0,0,.09,0,.14Z"/><path class="cls-5" d="M74.87,50.08a14.07,14.07,0,0,1-5.64-1.68c-.28-.14-.54-.3-.82-.45s-.4-.2-.25-.54.36-.24.58-.18a6,6,0,0,0,3,.18,1.47,1.47,0,0,0,1.13-2.17,4.22,4.22,0,0,0-.81-1.32c-.18-.2-.1-.33,0-.48a.3.3,0,0,1,.47-.1,14.43,14.43,0,0,1,3.86,3.27,3.93,3.93,0,0,1,.75,1.46,1.4,1.4,0,0,1-.83,1.8l-.17.05A4.25,4.25,0,0,1,74.87,50.08Zm-1.33-5.17v-.07h0l.05.06a.56.56,0,0,0,.08.35A2.11,2.11,0,0,1,72.41,48L72.1,48a11.72,11.72,0,0,1-1.42.22,12.94,12.94,0,0,0,3.21,1,4.73,4.73,0,0,0,2,0c.68-.18.93-.56.66-1.19A6.92,6.92,0,0,0,73.54,44.91Z"/><path class="cls-4" d="M67.26,42.12a3.87,3.87,0,0,1,2.92,1.61,1.2,1.2,0,0,1,.19,1.32,1.23,1.23,0,0,1-1.19.61,3.89,3.89,0,0,1-3-1.42,1.32,1.32,0,0,1-.35-1.48C66.07,42.19,66.64,42.13,67.26,42.12ZM69,45.07c.31,0,.66,0,.82-.32s-.06-.58-.25-.8a3.38,3.38,0,0,0-2.47-1.25c-.31,0-.65,0-.81.33a.65.65,0,0,0,.23.8A3.4,3.4,0,0,0,69,45.06Z"/><path class="cls-3" d="M73.54,44.91a6.92,6.92,0,0,1,3,3.2c.27.63,0,1-.66,1.19a4.73,4.73,0,0,1-2,0,12.94,12.94,0,0,1-3.21-1,11.72,11.72,0,0,0,1.42-.22,2.11,2.11,0,0,0,1.58-2.79,1.47,1.47,0,0,0-.08-.35Z"/><path class="cls-3" d="M73.54,44.91l-.05-.06h0v.07Z"/><path class="cls-3" d="M69,45.06a3.4,3.4,0,0,1-2.47-1.25c-.19-.22-.38-.49-.23-.8s.5-.34.81-.33a3.38,3.38,0,0,1,2.47,1.25c.19.22.39.48.25.8S69.36,45,69,45.06Z"/></svg>