<svg id="Layer_1" data-name="Layer 1" xmlns="http://www.w3.org/2000/svg" viewBox="0 0 181.01 47.18"><defs><style>.cls-1{fill:#e14126;}</style></defs><title>Bashas&amp;apos; Market</title><path class="cls-1" d="M144.19,46.68c-.28-.2-.61-.09-.91-.14a6,6,0,0,1-3.43-1.85,6.87,6.87,0,0,1-1.51-2.54.3.3,0,0,0-.11-.18,11.88,11.88,0,0,1-2.68,2.69,8.6,8.6,0,0,1-4.05,1.54,7.09,7.09,0,0,1-4.18-.64,6.13,6.13,0,0,1-2.46-2.38A8.18,8.18,0,0,1,124,41a5.3,5.3,0,0,0-.71.75,19,19,0,0,1-5.09,3.74,8.29,8.29,0,0,1-4.4.83,6.17,6.17,0,0,1-3.4-1.48l-.68-.6a2.33,2.33,0,0,1-.69-2.18,17.17,17.17,0,0,1,1.68-5.31,62,62,0,0,1,3.12-5.92,3.91,3.91,0,0,0,.42-1.3,1.35,1.35,0,0,0-1.63-1.38,4.13,4.13,0,0,0-2.12,1.5,34.56,34.56,0,0,0-3.72,6.21c-.7,1.35-1.35,2.72-2.07,4.06a18.24,18.24,0,0,1-3,4.42A3.86,3.86,0,0,1,99,45.63c-.42,0-.85.06-1.27.05-1.93,0-3.86.15-5.8.08a4.13,4.13,0,0,1-.89-.13c-.47-.12-.47-.17-.27-.58A9.81,9.81,0,0,1,92,43.39c.54-.69,1.29-1.21,1.76-1.94.57-.89,1.08-1.82,1.59-2.74,1.28-2.34,2.55-4.68,3.77-7,.79-1.52,1.6-3,2.4-4.55l3-5.67c.88-1.69,1.76-3.39,2.66-5.07,1.25-2.37,2.5-4.74,3.78-7.09a36.19,36.19,0,0,1,2.32-4A5.44,5.44,0,0,1,116.87,3,6.85,6.85,0,0,1,118,2.92h5c.46,0,.92.1,1.39.08a3.29,3.29,0,0,1,.86-.08c.17,0,.4,0,.48.21a.54.54,0,0,1-.15.58,2.28,2.28,0,0,1-1.17.73,2.63,2.63,0,0,0-1.56,1.2c-1.26,1.91-2.41,3.88-3.5,5.89-1,1.84-2,3.69-2.93,5.54-1.21,2.32-2.35,4.68-3.54,7-.14.27-.24.56-.4.93a19.32,19.32,0,0,1,2.79-1.31,14.61,14.61,0,0,1,3.71-.93,6,6,0,0,1,2.86.35,3.45,3.45,0,0,1,2.23,2.77,5.33,5.33,0,0,1-.62,3.34c-.79,1.62-1.59,3.24-2.34,4.87a15.26,15.26,0,0,0-1.17,3.1.8.8,0,0,0,.23.89,1.09,1.09,0,0,0,1.12.27A3.65,3.65,0,0,0,123,36.9c1.13-1.62,2.28-3.22,3.52-4.76a39.87,39.87,0,0,1,4.09-4.4,17.66,17.66,0,0,1,4.49-3.14,10.35,10.35,0,0,1,3.41-1,9.6,9.6,0,0,1,3.63.32,4.48,4.48,0,0,1,2.35,1.76.15.15,0,0,0,.08.13c.47.6,1.08.5,1.36-.22a10,10,0,0,0,.32-1,.55.55,0,0,1,.62-.47h4.65c1.35.06,2.71,0,4.11.19l-1.1,2.34-3.38,7.2c-.49,1.05-1,2.11-1.47,3.16a1,1,0,0,0,.35,1.37h0a1.61,1.61,0,0,0,2-.24,5.66,5.66,0,0,0,1.81-2.48c.5-1.21,1.16-2.34,1.77-3.5.38-.73.79-1.44,1.19-2.16l3-5.39a.54.54,0,0,1,.52-.26,3.35,3.35,0,0,0,2.2-.92c.67-.62,1.33-1.25,2-1.85a1.75,1.75,0,0,1,3,.48,2.63,2.63,0,0,1,.33,1.4,13.16,13.16,0,0,0,.74,4.6c.8,2.69,1.82,5.3,2.83,7.91a9.53,9.53,0,0,1,.74,2.59,6.89,6.89,0,0,1-2,5.72,7.93,7.93,0,0,1-4,2,9.83,9.83,0,0,1-2.73.14,6.42,6.42,0,0,1-5.22-3.14,11.08,11.08,0,0,1-1.4-4.24,9.18,9.18,0,0,1-.16-1.53c0-.21,0-.3.28-.3a2,2,0,0,1,1.27.55,9.88,9.88,0,0,0,.9,1,1.71,1.71,0,0,0,1.79-.1c1.74-1,1.92-2.61,1.28-4.31-.46-1.22-1.18-2.33-1.62-3.57-.16-.44-.26-.9-.4-1.35-.07-.21-.13-.36-.4-.15a4.43,4.43,0,0,0-1,1.23,47.5,47.5,0,0,0-3,6.09A30.82,30.82,0,0,1,153,42a11,11,0,0,1-3.24,3.3,8.93,8.93,0,0,1-3.48,1.24,3.67,3.67,0,0,0-1.23.14Zm.09-17.41c.07-.44-.22-.73-.68-1a2.87,2.87,0,0,0-.81-.27,2.51,2.51,0,0,0-1.44,0,9.19,9.19,0,0,0-4.53,4.26,9.55,9.55,0,0,0-1,3.08,2.39,2.39,0,0,0,.38,2.16,2.14,2.14,0,0,0,2.84.72,6.83,6.83,0,0,0,2.3-2.13,19.15,19.15,0,0,0,2.28-4.32A6.69,6.69,0,0,0,144.28,29.27Z"/><path class="cls-1" d="M42.52.5a16.31,16.31,0,0,1,2.23.63,9.75,9.75,0,0,1,2.71,1.61,8.15,8.15,0,0,1,2.39,3.63,9.07,9.07,0,0,1,.52,2.93,21.59,21.59,0,0,1-.08,3,14.11,14.11,0,0,1-1,3.5,13,13,0,0,1-3.45,4.66,14.13,14.13,0,0,1-2.61,1.81,15.72,15.72,0,0,1-2.92,1.25c0,.2.21.3.34.42a16.58,16.58,0,0,1,3.16,3.57,11.52,11.52,0,0,1,1.87,4.81A11.23,11.23,0,0,1,45.84,34a13.68,13.68,0,0,1-1,4.93,14.27,14.27,0,0,1-1.7,3.34,10.66,10.66,0,0,1-3,2.67,12.87,12.87,0,0,1-3.78,1.58c-.13,0-.3-.06-.39.11H31c-.07-.15-.21-.06-.32-.08a10.65,10.65,0,0,1-4.51-2.49,13.57,13.57,0,0,1-3.29-4.49,6,6,0,0,1-.68-3,.92.92,0,0,1,1.22-.87,3,3,0,0,1,.56.36A13.71,13.71,0,0,0,26.82,38a5.09,5.09,0,0,0,3.24.5,4.42,4.42,0,0,0,3.08-2.72,9.19,9.19,0,0,0,.66-2.69,7,7,0,0,0-.2-2.58,4.78,4.78,0,0,0-1.32-2c-.84-.88-1.7-1.76-2.5-2.68A2.62,2.62,0,0,1,29.1,23a3.7,3.7,0,0,1,2.69-2.11,12.23,12.23,0,0,0,3.13-1.2,11.24,11.24,0,0,0,3.32-2.91,16.47,16.47,0,0,0,2.63-4.16,4.64,4.64,0,0,0,.37-2.84A2.31,2.31,0,0,0,38.93,8a3.34,3.34,0,0,0-1.75.64,13.57,13.57,0,0,0-3.64,3.7,31.12,31.12,0,0,0-1.84,3.36Q30,18.76,28.31,21.82c-.91,1.6-1.8,3.21-2.73,4.8-1.15,2-2.32,3.94-3.48,5.91C21.1,34.28,20,36,19,37.79,17.76,39.85,16.5,41.9,15.26,44a9.94,9.94,0,0,1-.79,1.38,2.93,2.93,0,0,1-2.33.87H1.8a1.48,1.48,0,0,1-1.3-.65V44.8A4.54,4.54,0,0,1,1.68,44a1.69,1.69,0,0,0,.46-.37,17.05,17.05,0,0,0,2.21-2.67A61.26,61.26,0,0,0,8,34.54c1.25-2.39,2.4-4.83,3.65-7.22.92-1.77,1.82-3.56,2.78-5.32q1.86-3.4,3.91-6.69A39.3,39.3,0,0,1,23.26,9c.58-.62,1.24-1.16,1.87-1.72a28.13,28.13,0,0,1,2.6-2,29.5,29.5,0,0,1,5.31-3,28.8,28.8,0,0,1,3.15-1.16C37,.89,37.8.76,38.59.51Z"/><path class="cls-1" d="M180.51,18.86a18.94,18.94,0,0,1-.56,1.81,12.35,12.35,0,0,1-1.9,3,6.67,6.67,0,0,1-1.22,1.24.53.53,0,0,1-.32.12h-4.69c.36-.54.69-1,1-1.52A16.78,16.78,0,0,1,174.11,22a3.43,3.43,0,0,0,.67-1.73c0-.15,0-.2-.19-.27a3.45,3.45,0,0,1-1.53-1.06,2.5,2.5,0,0,1-.22-2.46,2.47,2.47,0,0,1,1.62-1.74,6,6,0,0,1,2-.15,8.77,8.77,0,0,1,2.38.47,2.51,2.51,0,0,1,1.58,1.29Z"/><path class="cls-1" d="M66.31,25.8l1.4-2c.11-.16.22-.31.45-.16a.28.28,0,0,0,.16,0c.84-.06,1.67.07,2.51.08,1.57,0,3.13.16,4.7.17.32,0,.65.06,1,.08-.32.59-.63,1.15-.91,1.71-.7,1.38-1.41,2.75-2.07,4.15-.53,1.1-1,2.23-1.46,3.37a25.44,25.44,0,0,0-1.26,4.06.27.27,0,0,0,.15.33,1.63,1.63,0,0,0,2.5-.84c.38-.84.86-1.64,1.32-2.45.54-1,1.09-1.93,1.64-2.9l2.7-4.7c.42-.74.84-1.47,1.23-2.23a1,1,0,0,1,.86-.58A7,7,0,0,0,83.75,23,20.48,20.48,0,0,0,87,20.79c.17-.14.34-.22.52,0s.21.15.31.24a1.77,1.77,0,0,1,.77,1.62,9.31,9.31,0,0,0,.54,3.15c.79,2.89,1.83,5.71,2.79,8.55a11.94,11.94,0,0,1,.61,4.79,7.26,7.26,0,0,1-2.14,4.81A8.39,8.39,0,0,1,86.28,46a11.62,11.62,0,0,1-2.7.29A6.32,6.32,0,0,1,79.36,45a6.6,6.6,0,0,1-2.06-3.69,17.37,17.37,0,0,1-.23-4.08,2.47,2.47,0,0,1,.2-1c.17-.38.42-.42.74-.14a14.13,14.13,0,0,0,2.08,1.62,1.79,1.79,0,0,0,2.48-.27c1.12-.88,1-2.07.79-3.26a8.41,8.41,0,0,0-1.15-2.72,7.77,7.77,0,0,1-.81-2.6c0-.15,0-.32-.2-.37a.44.44,0,0,0-.52.18c-.33.47-.67.94-1,1.43-1,1.74-1.95,3.55-2.9,5.34a46.26,46.26,0,0,1-3.19,5.76,12.54,12.54,0,0,1-4.29,3.95,9.47,9.47,0,0,1-3.47,1,9.33,9.33,0,0,1-3.08-.08A5.81,5.81,0,0,1,59,43.22a3.12,3.12,0,0,1-.43-.83c-.05-.21-.15-.18-.3,0a15.48,15.48,0,0,1-4.07,2.72,8.28,8.28,0,0,1-4.2.83A4.61,4.61,0,0,1,45.66,42a10.85,10.85,0,0,1-.14-3.13,13.5,13.5,0,0,1,1.2-4.6A19,19,0,0,1,49,30.45a22.51,22.51,0,0,1,3.53-3.73,20.09,20.09,0,0,1,4-2.65,8.93,8.93,0,0,1,4.73-.94,8.18,8.18,0,0,1,2.31.42,6.61,6.61,0,0,1,2.3,1.9Zm-3.74,1.76c-.48,0-.48,0-.73.13a9.51,9.51,0,0,0-3,2.29A9.28,9.28,0,0,0,57,33a10.1,10.1,0,0,0-.49,2.21,2.13,2.13,0,0,0,.17,1.52c.79,1.21,1.75,1.71,3,1.11a6,6,0,0,0,2.28-2,18.18,18.18,0,0,0,2.91-6.33c.21-.9.13-1.23-.73-1.62a3.86,3.86,0,0,0-1.62-.33Z"/></svg>