<svg id="Layer_1" data-name="Layer 1" xmlns="http://www.w3.org/2000/svg" viewBox="0 0 224.03 64.86"><defs><style>.cls-1{fill:#e27eb1;}.cls-2{fill:#005da9;}.cls-3{fill:#085eaa;}</style></defs><title>Baskin-Robbins</title><path class="cls-1" d="M21.14,64.34c0-1.22.09-2.44.14-3.65V59.62c0-.36,0-.51.48-.6a31.6,31.6,0,0,0,4-1,21.94,21.94,0,0,0,6.71-3.37,9.13,9.13,0,0,0,2.66-3.23,6.63,6.63,0,0,0,.66-3.59,6.76,6.76,0,0,0-2.14-4.41,10.45,10.45,0,0,0-3.23-2,20.14,20.14,0,0,0-5.17-1.35,18.57,18.57,0,0,0-2.09-.19c-.37,0-.42-.06-.48-.44a1.23,1.23,0,0,1,0-.22c0-1-.09-1.9-.11-2.85s-.1-2-.15-2.94-.07-.87.76-1a18.29,18.29,0,0,0,6-1.92,9,9,0,0,0,3.6-3.18,7.15,7.15,0,0,0,.6-6.75A6.23,6.23,0,0,0,31,17.83a11.39,11.39,0,0,0-3.32-1.5,23.94,23.94,0,0,0-5.32-.86q-1.23,0-2.41,0c-.46,0-.53-.07-.56-.55s-.06-1.1-.08-1.65c0-.82-.09-1.63-.13-2.45-.06-1.35-.15-2.7-.24-4a12,12,0,0,0-.08-1.69c-.07-.74-.09-1.48-.11-2.23,0-.49,0-.52.53-.53,1.38,0,2.76.08,4.14.16A47.18,47.18,0,0,1,30,3.3a28.28,28.28,0,0,1,7,2.24A16.59,16.59,0,0,1,42,9.18a14,14,0,0,1,3.44,7,18.49,18.49,0,0,1,.35,3.9,13.59,13.59,0,0,1-1.26,5.44A16.2,16.2,0,0,1,41,30.42a19,19,0,0,1-4,3l-.18.11c0,.15.13.11.21.12a12.59,12.59,0,0,1,5.86,2.46,10.19,10.19,0,0,1,3.58,5.21,14.7,14.7,0,0,1-.09,9.21,13.48,13.48,0,0,1-2.81,4.67,22.89,22.89,0,0,1-7.66,5.36,47.79,47.79,0,0,1-12.7,3.64,3.81,3.81,0,0,0-.92.16Z"/><path class="cls-2" d="M163.53.5a1.22,1.22,0,0,0,.57.07c1,0,1.93,0,2.9.09.39,0,.44.07.42.45v.4c0,1.71-.06,3.42-.12,5.13-.08,2.14-.11,4.28-.19,6.42,0,1.2,0,2.41-.12,3.61a.15.15,0,0,0,.08.17c.15,0,.24-.18.35-.29l4.69-4.65,4.58-4.5.19-.18a.25.25,0,0,1,.35,0l0,0,.26.25c.85.87,1.74,1.71,2.56,2.62.33.37.34.36,0,.7l-4.68,4.6c-.49.48-.45.42-.06.93L180.52,23c.45.59.45.58-.13,1l-2.76,2.19-.17.14a.27.27,0,0,1-.45-.06c-.4-.52-.8-1-1.21-1.55l-4.09-5.24c-.25-.31-.25-.32-.54,0L169.65,21l-7.4,7.3c-.11.11-.2.33-.38.24s0-.27,0-.41v-.18c0-1.59.06-3.18.12-4.77.07-2.09.12-4.19.19-6.29.06-1.9.11-3.8.17-5.71s.13-4,.18-6.06c0-1.53.11-3.06.17-4.59Z"/><path class="cls-2" d="M223.53,41.12a3.39,3.39,0,1,1-3.31-4.17,3.31,3.31,0,0,1,3.22,2.31l.09.25Zm-5.81-.77a2.57,2.57,0,0,0,2.51,2.58,2.66,2.66,0,0,0,2.55-2.63,2.59,2.59,0,0,0-2.58-2.55,2.52,2.52,0,0,0-2.48,2.56Z"/><path class="cls-3" d="M91.22,22.12a23.82,23.82,0,0,1-1.07,6.27A21.44,21.44,0,0,1,86,36.05a23.06,23.06,0,0,1-6.37,5.18,22.57,22.57,0,0,1-3.78,1.69c-.42.14-.44.19-.26.61l6.94,16.3c.22.51.43,1,.64,1.52.12.31.1.35-.23.41l-4.31.71c-.44.07-.88.13-1.32.22a.49.49,0,0,1-.59-.26c-.15-.24-.31-.47-.47-.71Q71,54,65.85,46.16a1.57,1.57,0,0,1-.28-1.2c.32-2.09.61-4.18.89-6.27A.7.7,0,0,1,67,38a27.63,27.63,0,0,0,6.6-3.21,13.91,13.91,0,0,0,3.68-3.47,7.3,7.3,0,0,0,1.43-4.16A6.48,6.48,0,0,0,77.21,23a11.44,11.44,0,0,0-3.53-2.82,20.85,20.85,0,0,0-4.81-1.86H68.7c-.41-.11-.44-.13-.42-.55s.06-.8.1-1.2c.14-1.44.28-2.87.41-4.31s.26-2.9.39-4.35c.09-1,.18-2,.28-3,0-.46.1-.5.57-.4a43.42,43.42,0,0,1,6.22,1.75A39.29,39.29,0,0,1,80.56,8,25.9,25.9,0,0,1,86,11.57a15.68,15.68,0,0,1,3.8,4.68,12.45,12.45,0,0,1,1.4,5.13C91.17,21.61,91.2,21.86,91.22,22.12Z"/><path class="cls-1" d="M53.1,60.85c.12-4.7,0-9.4.11-14.1.07-3.87,0-7.74.08-11.6s0-7.8.09-11.69,0-7.74.09-11.6c.08-3,0-6,.07-9V2.55a.24.24,0,0,1,.23-.23h.4c1.2.09,2.4.11,3.61.16l4.9.2c1.26,0,2.52.13,3.79.16h.22a.29.29,0,0,1,.31.34c0,.34-.06.68-.09,1-.14,1.27-.28,2.54-.41,3.81s-.26,2.6-.39,3.9c-.1,1-.21,2-.31,3s-.2,2-.31,3l-.41,3.9-.31,3-.32,3.1-.31,3-.4,3.86-.31,3-.32,3.1-.31,3-.4,3.86-.31,3-.32,3.1-.3,2.93-.39,3.81c-.11,1-.22,2-.32,3.06-.05.51-.08.52-.61.54-.73,0-1.46-.07-2.18-.07H53.46c-.33,0-.39-.07-.39-.4V62.16C53.07,61.64,53.1,61.25,53.1,60.85Z"/><path class="cls-2" d="M15.63,63c-.82,0-1.64,0-2.45-.08-.41,0-.44,0-.53-.45l-1.6-7.07-2-8.66-2.91-13L3.91,23.66.52,8.6V8.43c-.06-.22,0-.34.25-.38l1.71-.33L12,6l3.42-.64h.26c.19,0,.27.07.28.25,0,.42.06.83.07,1.25,0,1.41.06,2.83.12,4.24.07,1.74.12,3.48.18,5.22s.12,3.42.18,5.13.12,3.48.18,5.22l.18,5.22c.06,1.74.12,3.51.18,5.26s.12,3.39.18,5.08.12,3.51.18,5.26.12,3.39.18,5.08.13,3.54.18,5.31c0,1.49.11,3,.16,4.46v.31c0,.39,0,.44-.44.44Z"/><path class="cls-2" d="M107.16,11c.35-.21.65-.4,1-.58A10.46,10.46,0,0,1,114.6,9a10.33,10.33,0,0,1,6.08,2.74,8.78,8.78,0,0,1,2.92,5.85,8.88,8.88,0,0,1-3.3,7.79,10.3,10.3,0,0,1-7.69,2.49,9.71,9.71,0,0,1-3.24-.77c-.45-.19-.48-.15-.42.32q.15,1.22.28,2.44c0,.32,0,.4-.35.44l-3.19.36c-.27,0-.53.07-.8.08s-.37,0-.42-.33-.09-.68-.13-1l-.8-7.18c-.25-2.27-.49-4.55-.75-6.83s-.52-4.55-.77-6.82q-.23-2-.45-4a1.7,1.7,0,0,1,0-.18c0-.31,0-.37.35-.4l2.39-.27,1.46-.17c.46,0,.51,0,.56.45.21,1.82.41,3.63.62,5.45A11.75,11.75,0,0,0,107.16,11Zm6.2,12.14a5.41,5.41,0,0,0,4.22-1.7,4.07,4.07,0,0,0,1-4.16,4.56,4.56,0,0,0-2.15-2.63,5.77,5.77,0,0,0-3.38-.8,5.39,5.39,0,0,0-4,2,4.19,4.19,0,0,0,.46,5.91l.11.09A5.48,5.48,0,0,0,113.36,23.1Z"/><path class="cls-2" d="M158.56,34h1.83c.52,0,.55,0,.55.56v3.26c0,.77.07,1.54.07,2.32,0,.34.05.37.37.21A10,10,0,0,1,172,41.6a8.6,8.6,0,0,1,3.29,5.69,7.73,7.73,0,0,1-.66,4.44,9.11,9.11,0,0,1-6.92,5.21,9.89,9.89,0,0,1-6.18-.82l-.12-.06c-.16-.07-.26,0-.27.15s0,.24,0,.36v1.65c0,.36-.05.41-.41.42l-3.84.07c-.49,0-.5,0-.52-.55-.12-3.09,0-6.19-.1-9.28s0-6.37-.09-9.55c0-1.52,0-3-.06-4.55v-.27c0-.39.06-.44.44-.45h2Zm7,10.19a4.64,4.64,0,0,0-2.84.89,3.71,3.71,0,0,0-1.59,3.05A3.46,3.46,0,0,0,162.44,51a5.19,5.19,0,0,0,5.71.88,3.87,3.87,0,0,0,2.14-2.17,3.79,3.79,0,0,0-1.22-4.22,5.23,5.23,0,0,0-3.46-1.21Z"/><path class="cls-2" d="M138.79,38.08h1.92c.46,0,.52,0,.5.52-.05,1.65-.08,3.3-.08,5v.67c0,.22.06.38.37.25a11.14,11.14,0,0,1,1.56-.53,9.88,9.88,0,0,1,9,2,8.34,8.34,0,0,1,3.14,5.63,8,8,0,0,1-1.71,6.11,9.23,9.23,0,0,1-6.62,3.52,9.9,9.9,0,0,1-5.45-1l-.24-.12c-.15-.07-.22,0-.24.14a7.11,7.11,0,0,0-.06,1.11v.89c0,.29,0,.47-.5.48a7.91,7.91,0,0,1-.85,0c-1-.09-1.93,0-2.9-.06-.55,0-.61-.06-.58-.58.12-2,0-3.93.09-5.89.08-2.35,0-4.7.1-7,.07-2,0-4.08.08-6.11,0-1.5.06-3,.07-4.51,0-.46,0-.48.48-.47h1.92Zm7.33,18.4a4.58,4.58,0,0,0,3.43-1.5,3.8,3.8,0,0,0,1-2.52,3.44,3.44,0,0,0-1-2.45,5.35,5.35,0,0,0-6.15-1.13,3.76,3.76,0,0,0-.7,6.45,5.4,5.4,0,0,0,3.41,1.15Z"/><path class="cls-2" d="M135.49,11.84a10.11,10.11,0,0,1,5.32,1.4l.16.09c.15.07.22,0,.24-.14,0-.41.08-.83.09-1.25,0-.73,0-.76.77-.71l3.65.25c.4,0,.43.07.42.47a15.62,15.62,0,0,1-.11,2.27c-.11.75-.07,1.42-.13,2.14-.1,1.42-.14,2.85-.22,4.27s-.16,2.55-.23,3.83c0,.59-.06,1.19-.09,1.78-.09,1.42-.14,2.85-.21,4.28a2.45,2.45,0,0,1-.07.71.28.28,0,0,1-.27.29h-.54l-3.2-.19h-.13c-.62-.07-.62-.07-.61-.71v-.89c0-.29-.06-.29-.3-.18a10.88,10.88,0,0,1-1.9.65,10.48,10.48,0,0,1-9.43-2.12A8.69,8.69,0,0,1,125.6,23a8.49,8.49,0,0,1,1.63-7.16A10,10,0,0,1,133.94,12a6.18,6.18,0,0,1,.66-.08A4.43,4.43,0,0,1,135.49,11.84Zm-.16,13.85a5.53,5.53,0,0,0,4.25-1.62,4.08,4.08,0,0,0-.37-6.11,5.94,5.94,0,0,0-7.28-.12,4.16,4.16,0,0,0-1.39,4.9,4.46,4.46,0,0,0,2,2.18A5.14,5.14,0,0,0,135.33,25.69Z"/><path class="cls-2" d="M194.9,7.42l12.61,13c0-.56.09-1,.1-1.47,0-1.49,0-3,.13-4.46.07-1.11,0-2.23.13-3.34,0-.42.06-.47.5-.43,1,.09,2,0,3,.13h.94c.32,0,.39.08.39.41,0,1.16-.08,2.32-.12,3.48v.4c0,1.43-.06,2.85-.12,4.28-.07,1.83-.12,3.66-.19,5.48s-.13,3.39-.17,5.08c0,.58-.06,1.15-.1,1.71-.16.07-.22,0-.29-.11l-4.34-4.49-.18-.19-4.7-4.83-3.12-3.25-.1-.07c-.08,0-.08.09-.08.15q0,1.31-.1,2.63l-.2,5.62a5.91,5.91,0,0,1-.07,1.11c-.07.37-.1.36-.37.33-1.05-.1-2.11,0-3.16-.11h-.94c-.32,0-.34-.09-.33-.36l.2-5.17v-.27c0-1.37.06-2.74.12-4.1.07-1.69.12-3.39.18-5.08s.13-3.21.17-4.81c0-.41.06-.83.09-1.24Z"/><path class="cls-2" d="M198.42,48.56a1,1,0,0,0,.08-.56V40.59c0-.65,0-.65.64-.65h3.48c.66,0,.66,0,.66.68q0,9.28,0,18.56,0,.69,0,1.38v.31c0,.1,0,.15-.11.17A.17.17,0,0,1,203,61l-.83-.93-3.09-3.51-3.74-4.25-3-3.34-.94-1.07a1.26,1.26,0,0,0-.4-.38c-.13.12-.08.27-.08.41v8.3a.27.27,0,0,1-.26.28h-4c-.54,0-.57,0-.57-.59q0-4.8,0-9.59V41.84c.06-2.19,0-4.37.05-6.56a.5.5,0,0,1,.11-.43c.71.71,1.34,1.49,2,2.24l2,2.31,2,2.27,2,2.27,2,2.31Z"/><path class="cls-2" d="M134.64,51.6A8.47,8.47,0,0,1,130.3,59a9.13,9.13,0,0,1-4.21,1.35,9.76,9.76,0,0,1-8.3-3.34,8.36,8.36,0,0,1-.93-9.92,9.08,9.08,0,0,1,4-3.52,9.59,9.59,0,0,1,3.8-.9,10.17,10.17,0,0,1,7.6,3.18A8.42,8.42,0,0,1,134.64,51.6Zm-9.36,3.9a4.89,4.89,0,0,0,3.08-1,3.79,3.79,0,0,0,1.38-4,4,4,0,0,0-1.33-2,5.18,5.18,0,0,0-3.7-1.12A4.53,4.53,0,0,0,121.39,49a3.56,3.56,0,0,0-.88,2.85,3.89,3.89,0,0,0,2.09,2.94,5.15,5.15,0,0,0,2.68.75Z"/><path class="cls-2" d="M116.79,42.28v1.2c0,.4,0,.42-.4.48a10.26,10.26,0,0,0-2.7.76A4.86,4.86,0,0,0,110.77,48a8,8,0,0,0-.22,2.61v.71c0,1.62,0,3.24.13,4.86.07,1.32,0,2.65.14,4a3,3,0,0,1,0,.31c0,.42,0,.45-.45.48-1,.07-2,.08-3,.09h-.93c-.31,0-.42-.06-.45-.4a.88.88,0,0,1,0-.09c0-1-.08-2-.09-3,0-1.58-.09-3.15-.13-4.73,0-1.95-.11-3.89-.17-5.84s-.13-4.13-.18-6.2c0-.59-.07-1.19-.06-1.78,0-.39,0-.44.43-.45l3.88-.1c.46,0,.5,0,.51.51s0,1,0,1.47a2.91,2.91,0,0,0,0,.31c0,.31.09.34.36.18a12.13,12.13,0,0,1,1.67-.84,14.44,14.44,0,0,1,3.88-1c.41,0,.49,0,.48.42A25.51,25.51,0,0,1,116.79,42.28Z"/><path class="cls-2" d="M157.22,6.52a.31.31,0,0,1,.31.21l.47.86c.3.55.6,1.1.89,1.65.19.36.18.39-.16.61-1,.67-2.07,1.34-3.12,2a4,4,0,0,0-.95.81,1.39,1.39,0,0,0-.21,1.69c1.33,2.48,2.54,5,3.82,7.52A6.77,6.77,0,0,1,159,24.1a3.2,3.2,0,0,1-1.5,3.34c-1.6,1-3.23,2-4.85,3l-1.21.75c-.29.18-.33.17-.49-.1l-1.49-2.49c-.2-.33-.18-.38.17-.59L153,25.92a1.92,1.92,0,0,0,.89-2.52,6.39,6.39,0,0,0-.27-.61q-1.62-3.31-3.36-6.55a5.92,5.92,0,0,1-.69-2.79A3.72,3.72,0,0,1,151.45,10l3.65-2.25,1.75-1.08Z"/><path class="cls-2" d="M213.45,37.93c.15,0,.21.11.27.21.18.32.36.65.54,1,.28.52.57,1,.85,1.57.16.31.15.34-.15.54l-3,1.94a5,5,0,0,0-1,.75,1.5,1.5,0,0,0-.26,2q1.76,3.36,3.42,6.77a11,11,0,0,1,.84,1.87,4.83,4.83,0,0,1,.21,1.89,3.2,3.2,0,0,1-1.56,2.42l-5.87,3.65-.23.13a.24.24,0,0,1-.33-.06l0,0-.15-.22-1.35-2.26c-.24-.41-.24-.43.18-.69l3.2-2a3,3,0,0,0,.75-.55,1.86,1.86,0,0,0,.35-2,7.23,7.23,0,0,0-.32-.74q-1.15-2.35-2.36-4.65c-.36-.68-.74-1.36-1.08-2.05a5.79,5.79,0,0,1-.57-3.25,3.54,3.54,0,0,1,1.66-2.67c1-.68,2.12-1.32,3.18-2L213,38A1.17,1.17,0,0,1,213.45,37.93Z"/><path class="cls-2" d="M186.89,28.73H185c-.46,0-.5,0-.51-.52h0c0-2.51-.08-5-.11-7.54,0-2.23,0-4.46-.09-6.69,0-.94,0-1.87-.06-2.81v-.36a.26.26,0,0,1,.24-.28h.17c1.28,0,2.56,0,3.84-.07.51,0,.55,0,.57.56h0c0,2.93,0,5.86.12,8.79.05,2.16.05,4.31.09,6.47,0,.56.06,1.13.06,1.69,0,.73,0,.73-.75.74h-1.7Z"/><path class="cls-2" d="M180.5,56.59c-.92,0-1.84-.11-2.76-.11-.38,0-.48-.1-.44-.49.09-.89,0-1.78.07-2.68.09-2.36.13-4.73.2-7.09,0-1,0-2.05.08-3.08,0-.67.07-1.34.08-2,0-.33.07-.39.4-.39.82,0,1.64,0,2.45.06h1.47c.47,0,.53.1.49.54-.09.94,0,1.87-.08,2.81-.09,2.36-.13,4.73-.2,7.09,0,1,0,2-.07,3,0,.64-.07,1.28-.08,1.92,0,.33-.07.38-.4.39Z"/><path class="cls-2" d="M180.23,39.19a2.73,2.73,0,0,1-2.31-1.12,2.32,2.32,0,0,1,.47-3.25l.06,0a2.87,2.87,0,0,1,4,.49l0,0a2.36,2.36,0,0,1-.14,2.93A2.73,2.73,0,0,1,180.23,39.19Z"/><path class="cls-2" d="M186.32,8.83a2.69,2.69,0,0,1-2.17-1.19,2.31,2.31,0,0,1,.51-3.12,2.89,2.89,0,0,1,3.52-.18,2.38,2.38,0,0,1,0,3.94A3,3,0,0,1,186.32,8.83Z"/><path class="cls-2" d="M220.06,38.42a3.36,3.36,0,0,1,.88.08.94.94,0,0,1,.78.81,1.17,1.17,0,0,1-.42,1.19l-.15.09c-.26.15-.26.15-.1.43l.48.8c.06.1.15.21.07.32s-.21.07-.33,0a.75.75,0,0,1-.52-.38c-.18-.29-.36-.58-.55-.86a.62.62,0,0,0-.2-.23.24.24,0,0,0-.37.17,2.29,2.29,0,0,0,0,.35v.58c0,.19-.06.33-.28.33a.41.41,0,0,1-.4-.34,2.43,2.43,0,0,1,0-.44l.16-2.53c0-.36.07-.4.43-.42h.58Zm0,1.59h.44a.47.47,0,0,0,.45-.45.46.46,0,0,0-.44-.47,7,7,0,0,0-.84,0c-.18,0-.25.12-.26.29,0,.62.05.67.68.66Z"/></svg>