<svg id="Layer_1" data-name="Layer 1" xmlns="http://www.w3.org/2000/svg" viewBox="0 0 200.98 56.84"><defs><style>.cls-1{fill:#010106;}.cls-2{fill:#252122;}.cls-3{fill:#178152;}.cls-4{fill:#292727;}.cls-5{fill:#282425;}.cls-6{fill:#1f1b1c;}.cls-7{fill:#020202;}.cls-8{fill:#020207;}.cls-9{fill:#141213;}.cls-10{fill:#908e8e;}.cls-11{fill:#fbfbfb;}.cls-12{fill:#fefefe;}.cls-13{fill:#4c765a;}.cls-14{fill:#168152;}.cls-15{fill:#231f20;}</style></defs><title>Beef &amp;apos;O&amp;apos; Brady&amp;apos;s</title><path class="cls-1" d="M100.41,56.34H7c-.37,0-.48-.09-.45-.45s0-.82,0-1.23c0-.24-.08-.29-.3-.3A5.09,5.09,0,0,1,6.2,44.19c.28,0,.38-.08.36-.38V42.48c0-.24.08-.31.29-.28h187c.37,0,.48.09.45.45s0,.87,0,1.3c0,.19.06.22.23.24a5.1,5.1,0,0,1,.65,10.11h-.28c-.19,0-.47-.07-.56.08s0,.4,0,.61v1c0,.32-.08.31-.3.28H100.41Zm83.53-9.91c-.12-.05-.24-.08-.22.11s-.1.39.1.37.38.07.57.05.5,0,.58-.34-.08-.44-.32-.54l.06-.06c.26.06.22-.12.21-.27s.06-.27-.1-.23a1.85,1.85,0,0,1-.47,0c-.15,0-.51,0-.6.31s.06.44.29.55Zm2.23.39h.11c.2.19.44.07.66.08s.1-.07,0-.16a1,1,0,0,1,0-1c.07-.1.06-.16-.08-.19-.48-.09-.61,0-.75.45a1.34,1.34,0,0,1-.11.32.6.6,0,0,0-.09-.26c-.15-.53-.15-.53-.7-.5-.07,0-.17,0-.2.08s.06.1.12.14a1.29,1.29,0,0,1,0,1s-.15,0-.12.13.12.06.18.06h.32c.09,0,.14-.1.09-.13-.29-.21-.08-.47-.11-.7a4.83,4.83,0,0,1,.2.62c.13.18.27.21.47,0Zm7.26,3.2.06.06a3.94,3.94,0,0,0-.17,1.17.91.91,0,0,0,.52.78.72.72,0,0,0,.8-.22,1.28,1.28,0,0,1,1-.35c.68,0,1-.46.69-1.09a1.33,1.33,0,0,0-.41-.52l-.59-.44.6-.13a1.36,1.36,0,0,0,.78-.44.67.67,0,0,0-.22-1.13,1.65,1.65,0,0,1-.87-.85.66.66,0,0,0-1.15-.17,1.46,1.46,0,0,0-.4.76l-.1.45a2.1,2.1,0,0,0-.79-.9c-.57-.27-1-.07-1.1.56a1.65,1.65,0,0,1-.54,1.05.66.66,0,0,0,.2,1.15,1.48,1.48,0,0,0,.61.15c.3,0,.59-.09,1-.09a22.09,22.09,0,0,0-2.18,2.65c.46.22.45.21.72-.19a12.75,12.75,0,0,1,1.54-2.3ZM7.51,49.94a4.54,4.54,0,0,1,1,1.19c.3.45.58.91.87,1.36.17.26.3,0,.44,0s0-.16,0-.23a24.71,24.71,0,0,0-1.6-2,5.41,5.41,0,0,0-.48-.41l.07-.08A3.17,3.17,0,0,0,9,49.85a.91.91,0,0,0,.79-.56.74.74,0,0,0-.32-.83A1.16,1.16,0,0,1,9,47.64c-.08-.79-.69-1-1.32-.55a2,2,0,0,0-.42.51c0,.08,0,.21-.19.22a2,2,0,0,0-.58-1.19.66.66,0,0,0-1.17.16,1.63,1.63,0,0,1-.84.83.68.68,0,0,0-.21,1.18,1.26,1.26,0,0,0,.66.38l.7.17a2.6,2.6,0,0,0-1,.9c-.31.62-.07,1.1.62,1.13a1.72,1.72,0,0,1,1.11.42.67.67,0,0,0,1.12-.29,1.34,1.34,0,0,0,.08-.86A2.69,2.69,0,0,0,7.42,50Zm155.57-4.22h-2.33c-.07,0-.18,0-.2.08s0,.13.07.14c.3,0,.25.25.25.45q0,2.44,0,4.88c0,.19,0,.39-.24.42-.07,0-.09.07-.08.13a.11.11,0,0,0,.12.09h1.79c.05,0,.12,0,.13-.07s0-.14-.1-.15c-.26,0-.25-.19-.25-.37V49.63c0-.18,0-.25.23-.24h1.23a.31.31,0,0,1,.29.14l1.29,1.84c.09.12.16.26-.07.31s-.1.09-.08.16.08.07.14.07h1.93c.06,0,.12,0,.12-.09s0-.12-.08-.13c-.29,0-.39-.28-.52-.47-.39-.54-.76-1.1-1.15-1.63-.16-.22-.17-.29.13-.36A1.57,1.57,0,0,0,167,47.82a1.68,1.68,0,0,0-1.32-2l-.21,0A18.09,18.09,0,0,0,163.08,45.72Zm-38.06,0h-2.07c-.07,0-.17,0-.2.07s0,.13.13.17.12.18.12.3v5.12c0,.11,0,.22-.1.28s-.19.07-.14.19.16.06.25.06h3.86a2.75,2.75,0,0,0,2.64-1.74,4,4,0,0,0,.23-1.24,2.86,2.86,0,0,0-3-3.21Zm-43.19,0H79.62c-.07,0-.17,0-.2.07s0,.14.12.16.14.19.14.32v5.1c0,.1,0,.22-.1.28s-.23.06-.17.2.16.05.25.05h3.87A2.71,2.71,0,0,0,86,50.45a3.74,3.74,0,0,0,.31-2.26,2.66,2.66,0,0,0-2.29-2.41,17.56,17.56,0,0,0-2.24-.06Zm-38.4,0h-2c-.09,0-.22-.07-.27.08s.09.13.16.18a.51.51,0,0,1,.11.35v5c0,.13,0,.27-.12.34s-.19.06-.14.19.16.06.24.06h3.86A2.73,2.73,0,0,0,48,49.74a4,4,0,0,0,.06-1.5,2.75,2.75,0,0,0-2.83-2.51c-.63,0-1.24,0-1.85,0Zm73.83,6.23a4.94,4.94,0,0,0,1.94-.39,2.92,2.92,0,0,0,.74-5,4.56,4.56,0,0,0-5.42,0,2.88,2.88,0,0,0,.07,4.58,4.31,4.31,0,0,0,2.66.81Zm-9.25,0a4.87,4.87,0,0,0,1.82-.32,2.94,2.94,0,0,0,1.2-4.87,4.5,4.5,0,0,0-5.92,0,2.87,2.87,0,0,0,.28,4.37A4.28,4.28,0,0,0,108,52Zm46.94,0a4.47,4.47,0,0,0,2-.39,2.92,2.92,0,0,0,1.88-2.65,2.84,2.84,0,0,0-1.5-2.64,4.6,4.6,0,0,0-4.88.16,2.89,2.89,0,0,0,0,4.75,4.29,4.29,0,0,0,2.49.77Zm-119.34,0a5,5,0,0,0,1.85-.32,2.94,2.94,0,0,0,1.18-4.85,4.52,4.52,0,0,0-5.84-.1,2.88,2.88,0,0,0,.42,4.61A4.39,4.39,0,0,0,35.6,52Zm-9.39,0a5,5,0,0,0,2.28-.43,2.91,2.91,0,0,0,.78-4.9,4.55,4.55,0,0,0-5.64,0,2.93,2.93,0,0,0-.21,4.14l.06.06A4,4,0,0,0,26.2,52Zm152.8,0a4.62,4.62,0,0,0,2.49-.52,1.64,1.64,0,0,0,.87-1.86A1.57,1.57,0,0,0,181,48.3a9.6,9.6,0,0,0-1.84-.22,3,3,0,0,1-1.26-.25.49.49,0,0,1,0-.89,1.35,1.35,0,0,1,.38-.17,3.62,3.62,0,0,1,2.62.29.85.85,0,0,1,.48.48c.07.2.14.19.24,0l.64-1.17c.1-.18.08-.27-.15-.22a.83.83,0,0,1-.51-.07,6,6,0,0,0-1.27-.38,4.53,4.53,0,0,0-3.11.33,1.73,1.73,0,0,0-.92,1.82,1.56,1.56,0,0,0,1.34,1.34,9.93,9.93,0,0,0,2,.21,3.06,3.06,0,0,1,1.1.2.49.49,0,0,1,.11.89,1.66,1.66,0,0,1-.63.29,4,4,0,0,1-2.76-.31.77.77,0,0,1-.43-.39c0-.06,0-.16-.12-.14s-.09.1-.12.16c-.14.31-.29.61-.42.92s-.31.49.21.33a.43.43,0,0,1,.26.07,4.63,4.63,0,0,0,2.11.52Zm-40.74,0a4.82,4.82,0,0,0,2.39-.44,1.66,1.66,0,0,0,1-1.85,1.57,1.57,0,0,0-1.35-1.33,10.31,10.31,0,0,0-1.84-.21,3,3,0,0,1-1.26-.26.48.48,0,0,1-.08-.86,1.28,1.28,0,0,1,.41-.2,3.59,3.59,0,0,1,2.68.31.8.8,0,0,1,.44.47c.05.18.14.18.23,0l.61-1.15c.07-.13.06-.26-.12-.21a1.17,1.17,0,0,1-.74-.13,6.18,6.18,0,0,0-1.53-.38,4.36,4.36,0,0,0-2.66.4,1.72,1.72,0,0,0-.93,1.81,1.55,1.55,0,0,0,1.35,1.37,10.26,10.26,0,0,0,2,.21,3.06,3.06,0,0,1,1.1.19.5.5,0,0,1,.1.91,1.69,1.69,0,0,1-.47.23,3.85,3.85,0,0,1-3-.33.64.64,0,0,1-.33-.35c-.07-.2-.15-.14-.21,0-.15.34-.3.68-.46,1s-.15.39.21.27a.42.42,0,0,1,.27.06,4.68,4.68,0,0,0,2.18.46Zm-73.47,0a4.18,4.18,0,0,0,1.52-.25,3,3,0,0,0,2.18-2.39,2.79,2.79,0,0,0-1.23-2.9,4.58,4.58,0,0,0-5.09,0,2.89,2.89,0,0,0,0,4.77,4.4,4.4,0,0,0,2.6.77Zm9.11,0a4.48,4.48,0,0,0,1.78-.32,2.94,2.94,0,0,0,2-2.54A2.82,2.82,0,0,0,76,46.14a4.41,4.41,0,0,0-4.4.13,2.86,2.86,0,0,0-.67,4.56,4,4,0,0,0,3,1.12Zm25.42,0a5.57,5.57,0,0,0,3-.69c.21-.13.41-.25.08-.47-.06,0-.06-.12-.06-.19V49.34a.21.21,0,0,1,.17-.23c.1,0,.23,0,.17-.2s-.16-.06-.24-.06h-2.6c-.18,0-.36,0-.43-.21s-.09-.1-.16-.09-.08.1-.08.16V49.9c0,.06,0,.15.09.16s.14,0,.16-.1c0-.27.25-.27.46-.26h.7c.68,0,.68,0,.68.7,0,.17,0,.31-.22.37a6.25,6.25,0,0,1-2.25.26,2.07,2.07,0,0,1-2-1.82,2,2,0,0,1,1.46-2.37A4.17,4.17,0,0,1,101,47c.2.08.42.18.41.46,0,.12.08.13.16.15s.1,0,.13-.09l.6-1.34c0-.11,0-.23-.12-.17-.29.18-.54,0-.8-.06a6.68,6.68,0,0,0-3.7-.1,3,3,0,0,0-2.18,3,2.94,2.94,0,0,0,2.28,2.92,5.28,5.28,0,0,0,1.56.14Zm-81.64,0a5.61,5.61,0,0,0,3.09-.73c.17-.11.35-.22.06-.4a.25.25,0,0,1-.11-.24q0-.6,0-1.19c0-.14,0-.26.19-.29s.19-.06.16-.18-.15-.07-.23-.07h-2.6c-.17,0-.36,0-.43-.2a.13.13,0,0,0-.15-.1h0c-.09,0-.08.1-.08.17v1.16c0,.07,0,.15.07.17a.12.12,0,0,0,.15-.07v0c0-.27.25-.27.46-.26h.67c.81,0,.81,0,.73.83,0,.11,0,.18-.14.21a5,5,0,0,1-3,.15,2.15,2.15,0,0,1-.16-4,3.91,3.91,0,0,1,3.06.15.41.41,0,0,1,.31.42c0,.23.08.13.16.15s.11-.07.14-.12l.56-1.25c0-.06.07-.14,0-.2s-.15,0-.22,0H20c-.13,0-.56-.16-.85-.22a5.7,5.7,0,0,0-3.55.18,2.94,2.94,0,0,0-1.77,3,2.9,2.9,0,0,0,2,2.7,5,5,0,0,0,1.86.24ZM146,45.73h-2.39c-.08,0-.2,0-.21.11s.09.11.17.12c.26,0,.27.21.27.41v4.92c0,.22,0,.4-.3.42-.07,0-.14,0-.14.11s.09.11.17.11h1.83c.07,0,.15,0,.16-.09s0-.13-.12-.14a.38.38,0,0,1-.26-.38V49.67c0-.21.05-.28.27-.27h2.25a3.46,3.46,0,0,0,1.27-.23,1.36,1.36,0,0,0,.93-1c.29-1.45-.28-2.17-1.51-2.37a20.59,20.59,0,0,0-2.41-.08Zm-89.44,0H53.87c-.07,0-.17,0-.19.08s0,.13.13.15.16.17.16.3v5.13c0,.14,0,.27-.17.3s-.14.06-.12.16.11.07.17.07h1.66c.07,0,.17,0,.2-.08s-.05-.13-.14-.15a.24.24,0,0,1-.21-.26v-2c0-.14,0-.21.2-.21h2.11c.21,0,.44,0,.47.31a.1.1,0,0,0,.1.1h0c.1,0,.11-.07.11-.15v-1.4c0-.06,0-.12-.08-.14a.11.11,0,0,0-.14.07h0c-.08.19-.26.18-.42.18H55.56c-.16,0-.23,0-.22-.21V47c0-.18,0-.25.23-.24h3.55c.17,0,.37,0,.45.19s.11.08.17.07.07-.1.07-.17V45.58c0-.07,0-.15-.09-.15s-.11,0-.15.06c-.1.23-.31.22-.51.22Zm115.85,3.5V47.09c0-.21.06-.29.28-.28h1.55c.16,0,.34,0,.41.19s.09.09.17.08.07-.08.07-.14V45.57c0-.06,0-.12-.09-.13s-.12,0-.14.06c-.08.24-.28.22-.46.22h-4.88c-.19,0-.38,0-.48-.21s-.11-.08-.18-.06-.05.09-.05.15q0,.67,0,1.33c0,.05,0,.12.06.15a.25.25,0,0,0,.15,0c.11-.27.35-.23.57-.23h1.37c.24,0,.32,0,.32.3v4.22c0,.14,0,.29-.14.36s-.08.11-.07.17.09.05.14.05h1.5c.06,0,.12,0,.13-.08s0-.12-.06-.14a.58.58,0,0,1-.19-.4Q172.4,50.26,172.41,49.23Zm-82.53,2a1.15,1.15,0,0,0-.3-.84.71.71,0,0,0-.84-.13.73.73,0,0,0-.39.82.6.6,0,0,0,.6.49c.36,0,.4.11.22.43a1.65,1.65,0,0,1-.83.73c-.15.06-.14.18-.12.29s.12.06.19,0a2.14,2.14,0,0,0,1.47-1.77Z"/><path class="cls-2" d="M136.32,29.14h.95a.62.62,0,0,0,.6-.53c.21-.9.42-1.8.62-2.7q1.87-8.29,3.73-16.58a.28.28,0,0,1,.29-.26h4.61a.25.25,0,0,1,.3.25,5.37,5.37,0,0,0,.15.76c0,.26.07.25.24.22a.37.37,0,0,1,.4.33Q149,14.82,149.9,19c.66,3.28,1.33,6.55,2,9.83.06.32.2.38.49.35.48,0,.49,0,.49.45v.49c0,.16,0,.31.25.31s.32-.07.3-.31a1.62,1.62,0,0,1,0-.86c.14-.23.53-.08.81-.15.47-.12.66-.32.75-.89a2.73,2.73,0,0,0,0-.42q0-7,0-14.09c0-.28.18-.68-.34-.76-.09,0-.05-.17,0-.25s-.07-.29-.26-.34a2.83,2.83,0,0,0-.76-.09c-.15,0-.2,0-.2-.2V9.28c0-.2.11-.19.24-.19h5.8a16.54,16.54,0,0,1,3.8.36,6,6,0,0,1,3.89,2.82,12.08,12.08,0,0,1,1.21,2.12,16.86,16.86,0,0,1,.77,4.83,44.12,44.12,0,0,1-.09,6.21,11.92,11.92,0,0,1-.91,4,6,6,0,0,1-4.67,3.41,18.06,18.06,0,0,1-3.11.25H155c-.28,0-.43,0-.37-.36s-.05-.44-.37-.38a.69.69,0,0,1-.25,0c-.36-.07-.49.08-.43.43s-.08.3-.32.3H145.9c-.28,0-.39-.08-.34-.35s-.08-.4-.4-.4c-.84,0-.84,0-.84-.82V29.44c0-.22,0-.31.29-.3a5,5,0,0,0,.87-.06c.4-.06.51-.22.46-.63-.08-.63-.17-1.25-.24-1.88,0-.21-.08-.3-.32-.29h-2.32c-.22,0-.29.07-.33.28-.16.78-.33,1.55-.52,2.32-.07.3.07.34.28.25s.32,0,.31.26,0,.37,0,.56c0,.45,0,.49.47.44.21,0,.26,0,.26.22v2.18c0,.21,0,.28-.27.28h-5.45c-.3,0-.3-.16-.27-.35a.34.34,0,0,0-.4-.4c-.84,0-.84,0-.84-.82V29.74A2.3,2.3,0,0,0,136.32,29.14Zm5.9,2.61a1.77,1.77,0,0,0,0-1.06v-.56c0-.18,0-.43-.38-.44a1.08,1.08,0,0,1-1-1.4c.07-.25.09-.5.16-.75.21-.8.31-1.62.56-2.41a.59.59,0,0,1,.3-.07h3.86a.39.39,0,0,1,.34.14,1.63,1.63,0,0,0,.07.3c.13,1,.24,2,.39,2.93a.94.94,0,0,1-.68,1.13,2.21,2.21,0,0,1-.65.09c-.21,0-.32.09-.31.32v1.78a1.92,1.92,0,0,0,.89.06H152c.28,0,.37-.08.35-.35s0-.82,0-1.23c0-.61,0-.61-.62-.59a1.15,1.15,0,0,1-1-1.06q-.33-1.69-.67-3.39l-1.44-7.07q-.57-2.8-1.13-5.61c-.19-1-.38-1.94-.57-2.91-.07-.1-.17-.07-.26-.07H143a.35.35,0,0,0-.26.07,1.12,1.12,0,0,1,0,.18l-2.27,10c-.65,2.85-1.31,5.7-1.92,8.56-.18.83-.53,1.35-1.43,1.36-.21,0-.28.08-.28.3v1.76c.08.1.19.06.29.06h4.81a.42.42,0,0,0,.29-.07Zm21.65-12.51c0-.91,0-1.82-.08-2.73a11.82,11.82,0,0,0-.35-2.8,2.36,2.36,0,0,0-1.89-1.88,4.11,4.11,0,0,0-1-.11c-.36,0-.82-.15-1.05.07s-.07.69-.07,1V29.33c0,.22.05.32.29.31a12,12,0,0,0,1.68-.08,2.29,2.29,0,0,0,1.85-1.43,8.2,8.2,0,0,0,.52-3c0-1,.11-2,.09-3a11.93,11.93,0,0,0,0-2.89Zm-8.31-6h0V28h0ZM154,29.69h-.07v1.75c0,.28.08.35.36.35h6.26v-.07h-6.1c-.37,0-.46-.11-.44-.45,0-.5,0-1,0-1.55Zm6.55-20.08V9.54h-6.25c-.13,0-.33-.07-.33.18v1.92A10.3,10.3,0,0,0,154,10c0-.3.1-.37.38-.37h3.72Z"/><path class="cls-3" d="M154.42,28.54a.94.94,0,0,0,.25,0c.43-.11.61-.3.69-.85a2.71,2.71,0,0,0,0-.4q0-6.74,0-13.48c0-.27.16-.65-.32-.73-.09,0-.05-.16,0-.24s-.07-.28-.24-.33a2.51,2.51,0,0,0-.7-.09c-.14,0-.19,0-.19-.19V9.54c0-.19.1-.18.23-.18h5.34a14.69,14.69,0,0,1,3.5.35,5.52,5.52,0,0,1,3.53,2.72,11.68,11.68,0,0,1,1.11,2,16.7,16.7,0,0,1,.71,4.62,43.83,43.83,0,0,1-.08,5.94,11.77,11.77,0,0,1-.84,3.84,5.51,5.51,0,0,1-4.3,3.26,16,16,0,0,1-2.86.24h-4.92c-.25,0-.4,0-.34-.34s0-.42-.34-.37a.61.61,0,0,1-.23,0h-.11m9.22-12.5c0-.87,0-1.74-.07-2.61a11.72,11.72,0,0,0-.33-2.68,2.22,2.22,0,0,0-1.75-1.8,3.66,3.66,0,0,0-.89-.1c-.33,0-.76-.14-1,.06s-.07.66-.07,1q0,7.16,0,14.31v1.48c0,.21,0,.3.27.29a10.64,10.64,0,0,0,1.54-.07,2.12,2.12,0,0,0,1.7-1.37,8.12,8.12,0,0,0,.48-2.88c0-1,.1-1.92.08-2.88a11.86,11.86,0,0,0,0-2.75Z"/><path class="cls-2" d="M39.51,20.67v-7c0-.19.05-.49,0-.54a.92.92,0,0,1-.47-.74c0-.06-.26-.11-.41-.12-.72-.07-.72-.06-.72-.77V9.32c0-.21,0-.3.28-.3H52.46c.22,0,.33,0,.3.29a2.92,2.92,0,0,0,0,.39c0,.51,0,.53.51.54.18,0,.21.08.21.23v7.24c0,.21-.07.25-.26.25H51.46c-.28,0-.36-.09-.34-.33s-.11-.43-.44-.41c-.75,0-.74,0-.8-.72a7.85,7.85,0,0,0-.64-2.82.93.93,0,0,0-.67-.55,13.77,13.77,0,0,0-3.11-.19c-.24,0-.17.18-.17.3v5.1c0,.09-.05.2.06.25s.17,0,.25-.1a1.47,1.47,0,0,0,.56-.94,7.34,7.34,0,0,0,.21-1.77c0-.18,0-.27.24-.27h2.11c.21,0,.26.08.25.27s0,.47,0,.7,0,.32.27.27.46.1.46.47v8.22c0,.29-.07.38-.36.36H47.9c-.24,0-.36-.05-.31-.31s-.08-.47-.43-.43a1.17,1.17,0,0,1-.71,0c-.16-.11,0-.44-.06-.67a8.08,8.08,0,0,0-.27-1.63.64.64,0,0,0-.74-.29c-.09.05-.07.14-.07.22v6.25c0,.11,0,.22.15.22a5.87,5.87,0,0,0,2.83-.51,2.59,2.59,0,0,0,1.22-1.83,13,13,0,0,0,.35-3.55c0-.27.06-.36.34-.35h2.21c.27,0,.36.08.32.34a1.76,1.76,0,0,0,0,.28,1.68,1.68,0,0,0,0,.55c.06.14.34.06.52.06s.17.1.17.22v8.3c0,.29,0,.39-.37.39H39.38c-.31,0-.44-.08-.38-.38s-.07-.37-.36-.36-.64.13-.8-.06,0-.51,0-.78V29.37c0-.17,0-.25.23-.24a2.7,2.7,0,0,0,.62-.06c.55-.12.76-.38.77-1V24.94Q39.51,22.78,39.51,20.67Zm4.56-9h2.17l.8.08a3.18,3.18,0,0,1,2.88,2.12,8.65,8.65,0,0,1,.47,2.46c0,.25.06.36.33.34s.8,0,1.19,0c.24,0,.32-.06.32-.31V9.58c-.12-.15-.28-.08-.43-.08h-13c-.57,0-.49-.06-.5.51s0,.89,0,1.33c0,.11,0,.24.07.32a.52.52,0,0,0,.26.08,1.23,1.23,0,0,1,1.26,1.1,3.73,3.73,0,0,1,0,.52V27.89a1.47,1.47,0,0,1-1.56,1.7c-.12.09-.07.22-.07.32v1.48c0,.29.07.38.37.38H51.89c.28,0,.38-.07.38-.37V23.74c0-.11.05-.24-.06-.33H50.44a4.32,4.32,0,0,0-.06,1.25,19.29,19.29,0,0,1-.29,2.06,3.25,3.25,0,0,1-1.65,2.38,4.79,4.79,0,0,1-2.21.5H44V21.16h.76l.3.08a1.76,1.76,0,0,1,1.4,1.19,9.46,9.46,0,0,1,.34,1.73c-.08.35.06.46.41.43a4.24,4.24,0,0,1,.81,0c.3,0,.4-.07.4-.38V16.45c0-.12.05-.26-.07-.36H47.14c-.22,0-.27.08-.28.29a6.22,6.22,0,0,1-.21,1.42,1.87,1.87,0,0,1-1,1.3,3.42,3.42,0,0,1-1.61.24V11.75Z"/><path class="cls-2" d="M28.7,9h7.13c.25,0,.38,0,.33.32a1.59,1.59,0,0,0,0,.28,1.68,1.68,0,0,0,0,.55c.06.14.34.06.52.07s.17.15.17.27v7.13c0,.27-.08.33-.33.32H34.83c-.28,0-.39-.09-.36-.35s-.11-.42-.42-.39a1.23,1.23,0,0,1-.72,0c-.19-.13-.06-.45-.09-.69a8.41,8.41,0,0,0-.66-2.82.93.93,0,0,0-.67-.54A14.06,14.06,0,0,0,28.8,13c-.24,0-.17.17-.17.3v5.16c0,.21,0,.25.24.14a1.36,1.36,0,0,0,.6-.83,6,6,0,0,0,.25-1.8c0-.34.11-.43.44-.41h1.9c.21,0,.3,0,.28.27s0,.47,0,.7,0,.28.27.28c.45,0,.45,0,.45.46v8.22c0,.3-.08.38-.37.36H31.25c-.24,0-.36-.06-.31-.31s-.09-.47-.43-.43a1.2,1.2,0,0,1-.69,0c-.19-.12,0-.43-.09-.65a12.49,12.49,0,0,0-.26-1.68c-.13-.43-.45-.23-.69-.25s-.14.22-.14.34v6c0,.24,0,.32.3.31a6.52,6.52,0,0,0,2.57-.44A2.76,2.76,0,0,0,33,26.53a14.1,14.1,0,0,0,.28-3.28c0-.23.06-.3.29-.29h2.28c.26,0,.33.09.3.32a2.64,2.64,0,0,0,0,.32c0,.55,0,.57.53.59.28,0,.18.2.18.32q0,3.55,0,7.1v1.26c0,.17,0,.24-.22.22H22.86c-.33,0-.45-.09-.38-.4s-.08-.37-.34-.34h-.46c-.47,0-.5,0-.46-.49.07-.83,0-1.66,0-2.48,0-.16,0-.22.21-.22A3.31,3.31,0,0,0,22,29.1c.52-.09.72-.34.79-.94a2.43,2.43,0,0,0,0-.28V13.55c0-.24.1-.56-.34-.58-.15,0-.08-.2-.08-.3a.26.26,0,0,0-.2-.31h0a3.86,3.86,0,0,0-.8-.1c-.16,0-.2-.06-.2-.21V9.27c0-.29.19-.21.33-.21Zm-5.31,4v2.35q0,6.45,0,12.9a1.46,1.46,0,0,1-1.55,1.34c-.09.05-.07.14-.07.22v1.89c.09.12.22.07.32.07H35.31c.29,0,.38-.07.38-.37V23.77c0-.11,0-.24-.06-.33H33.86a3.31,3.31,0,0,0-.06,1.11,18.41,18.41,0,0,1-.36,2.4,3.14,3.14,0,0,1-1.93,2.35,5.19,5.19,0,0,1-1.87.35H27.89c-.33,0-.43-.07-.43-.42v-7.3c0-.71,0-.71.7-.73a.91.91,0,0,1,.48.09,1.77,1.77,0,0,1,1.24,1,8,8,0,0,1,.4,2c0,.22,0,.29.26.28a7.68,7.68,0,0,1,1,0c.3,0,.4-.07.4-.38V16.43c0-.12,0-.26-.07-.36H30.56c-.22,0-.27.07-.29.28a7.46,7.46,0,0,1-.21,1.38,1.85,1.85,0,0,1-1.28,1.45,4,4,0,0,1-1.32.13V12c0-.25.09-.31.32-.31h1.86c.4.05.81.08,1.21.16a3,3,0,0,1,2.43,2,9.1,9.1,0,0,1,.5,2.56c0,.22.07.31.3.3h1.23c.25,0,.32-.07.32-.32V9.65c-.09-.14-.24-.08-.36-.08H22.1c-.11,0-.24-.05-.32.07v1.78c0,.26.09.36.32.38a1.32,1.32,0,0,1,1.29,1.25Z"/><path class="cls-4" d="M195.76,10.26l.6-1a.35.35,0,0,1,.35-.22h1.83c.18,0,.26.06.24.24a2.52,2.52,0,0,0,0,.39c0,.54,0,.55.54.59.23,0,.18.16.18.29v7.91c0,.28-.08.35-.35.35h-1.76c-.23,0-.33-.06-.31-.29,0-.39-.15-.47-.51-.46-.68,0-.67,0-.73-.68a10.61,10.61,0,0,0-1-3.82c-.63-1.26-1.28-1.37-2.61-1a2,2,0,0,0-1.35,2.35,1.07,1.07,0,0,0,.31.54,20.26,20.26,0,0,0,2.8,2.17,18.43,18.43,0,0,1,4,3.4,9.66,9.66,0,0,1,2.3,4.2,9,9,0,0,1-.22,4.54,5.49,5.49,0,0,1-5.83,3.87,5.39,5.39,0,0,1-3.13-1.2c-.32-.24-.67-.43-1-.67-.16-.12-.2-.06-.28.08-.17.32-.36.63-.53.95a.37.37,0,0,1-.38.23h-1.33c-.26,0-.38-.05-.33-.33s-.08-.43-.42-.42c-.83,0-.83,0-.83-.83v-9c0-.32.09-.39.39-.38h2.21c.27,0,.36.09.34.34a2.42,2.42,0,0,0,0,.35c0,.5,0,.51.52.54.21,0,.17.14.18.26a15,15,0,0,0,.77,3.8,3,3,0,0,0,1.82,2,2.11,2.11,0,0,0,3-2.44,4.09,4.09,0,0,0-1.5-2.5c-1-.88-2.14-1.6-3.22-2.38a18.09,18.09,0,0,1-3.74-3.32A6.65,6.65,0,0,1,188,9.41a5.76,5.76,0,0,1,4.06-1A5.54,5.54,0,0,1,195.76,10.26Zm2.48,7.22V9.92c0-.26-.07-.36-.34-.34a7.06,7.06,0,0,1-.84,0,.4.4,0,0,0-.42.23c-.2.37-.44.72-.63,1.09s-.21.22-.38,0a5.07,5.07,0,0,0-2-1.5A6.4,6.4,0,0,0,191,9,4.82,4.82,0,0,0,187,11.27a6.24,6.24,0,0,0,.8,7.83A31.75,31.75,0,0,0,191.35,22a24.26,24.26,0,0,1,3.26,2.54,4.13,4.13,0,0,1,1.22,3.14,2.49,2.49,0,0,1-2,2.41,3.42,3.42,0,0,1-3-1,7.52,7.52,0,0,1-1.94-3.52,16.64,16.64,0,0,1-.47-2.69c0-.2-.1-.26-.29-.25h-1.26c-.25,0-.32.08-.32.32v8.4c0,.3.09.39.38.37a6.92,6.92,0,0,1,.84,0,.38.38,0,0,0,.39-.23c.23-.43.5-.85.73-1.28.1-.19.18-.22.32,0a5.58,5.58,0,0,0,5.37,2,4.92,4.92,0,0,0,4-3,8.11,8.11,0,0,0,.42-5,7.75,7.75,0,0,0-3-4.39c-1.19-1-2.5-1.85-3.75-2.77a8.61,8.61,0,0,1-2.33-2.3,2.3,2.3,0,0,1,.61-3.2l.15-.09a2.77,2.77,0,0,1,2.27-.23,3.9,3.9,0,0,1,2.45,2.35,9.8,9.8,0,0,1,.87,3.91c.14.14.31.07.46.06a5.21,5.21,0,0,0,1.5-.11Z"/><path class="cls-5" d="M61.9,9H69c.26,0,.36.06.32.33a2.34,2.34,0,0,0,0,.35c0,.51,0,.52.51.54.18,0,.21.09.21.24V17.9c0,.25-.06.31-.31.3H68c-.23,0-.37,0-.32-.3s-.12-.44-.45-.43c-.79,0-.79,0-.79.81v7.2c0,.28-.07.36-.35.35H64.69c-.2,0-.29,0-.29-.26,0-.47,0-.47-.48-.47-.74,0-.75,0-.77-.73A5.54,5.54,0,0,0,63,23c-.18-.65-.09-.54-.74-.6-.32,0-.41.07-.41.4v5.73c0,.54,0,.54.56.58s.63,0,.63.68A1.17,1.17,0,0,1,63,30c-.05.27.08.37.33.33s.42.11.41.43v2c0,.22-.07.27-.28.27H55.9c-.3,0-.3-.16-.26-.35s0-.41-.36-.39-.67.14-.83-.07,0-.54,0-.82v-2c0-.19,0-.25.24-.26,1.2-.05,1.39-.26,1.39-1.46V13.17c-.36-.13-.33-.49-.49-.71s-.54-.16-.83-.17-.3,0-.3-.29V9.37c0-.25.09-.28.3-.28ZM60.63,21.2h.88a2.37,2.37,0,0,1,.81.18,2.18,2.18,0,0,1,1.23,1.78c.1.45,0,.91.13,1.34.38.17.78,0,1.16.08s.39-.07.39-.38V16.43c0-.12.06-.26-.07-.36H64c-.17,0-.25,0-.26.24a7.63,7.63,0,0,1-.13,1.07,2,2,0,0,1-1.82,1.9,8.21,8.21,0,0,1-1.12,0V11.69h2.17a7.81,7.81,0,0,1,1.46.16,2.84,2.84,0,0,1,2.41,2.27A13.57,13.57,0,0,1,67,16.57c0,.28.1.36.37.35h1.4c.13-.1.07-.24.07-.36V9.92c0-.31-.07-.39-.39-.39H55.29c-.27,0-.35.08-.33.34s0,.73,0,1.09-.08.51.06.75h.1a1.46,1.46,0,0,1,1.5,1.69V28.15a1.36,1.36,0,0,1-1.15,1.41l-.45.08c-.12.09-.06.22-.07.32v1.51c0,.3.1.34.36.34h6.9c.11,0,.24.05.32-.07V30c0-.32-.09-.4-.41-.41a1.35,1.35,0,0,1-1.47-1.19V21.24Zm1.23-5.38v2.6c0,.28.09.28.31.19a1.34,1.34,0,0,0,.78-.94,6.09,6.09,0,0,0,.23-1.87c0-.23.06-.3.29-.29H65c.76,0,.76,0,.76.76,0,.52,0,.54.55.48.12,0,.17,0,.16-.17a8.42,8.42,0,0,0-.59-3.08.6.6,0,0,0-.44-.35,13.91,13.91,0,0,0-3.38-.23c-.23,0-.19.15-.19.28q0,1.33,0,2.63Z"/><path class="cls-2" d="M136.2,29.72a4.7,4.7,0,0,1-1,2.72,2.94,2.94,0,0,1-1.65.88,3.92,3.92,0,0,1-3-.39,6.06,6.06,0,0,1-2.25-1.8,6.81,6.81,0,0,1-.79-2.43,26.15,26.15,0,0,1-.22-3.13,6.81,6.81,0,0,0-.47-2.54.47.47,0,0,0-.49-.34c-.85,0-.85,0-.85.85V28.7c0,.43,0,.45.46.43s.45,0,.45.43v.32c0,.29,0,.51.39.47.21,0,.35.1.34.39v2c0,.24-.05.31-.31.31h-7.2c-.26,0-.38-.06-.32-.33s-.06-.47-.4-.41h-.11c-.76,0-.76,0-.74-.75s0-1.43,0-2.14c0-.22,0-.31.28-.3a2.59,2.59,0,0,0,.74-.1c.59-.17.56-.7.61-1.16a5.61,5.61,0,0,0,0-.63V13.67a3,3,0,0,0,0-.52c0-.13,0-.19-.18-.17s-.21-.07-.19-.2c.09-.41-.2-.46-.48-.49s-.6,0-.72-.13,0-.49,0-.75V9.34c0-.22,0-.3.28-.3h7.76a11.1,11.1,0,0,1,4.13.78,4.56,4.56,0,0,1,2.37,2.12,6.88,6.88,0,0,0,.53.72,5,5,0,0,1,.82,2.16,9.26,9.26,0,0,1-.08,3.64A4.05,4.05,0,0,1,131,21.55l-.18.08a14.4,14.4,0,0,1,1.61,2.46,6,6,0,0,1,.47,2,25.84,25.84,0,0,0,.22,2.77,2,2,0,0,0,.27-1.08V26.55c0-.17,0-.25.23-.25h1.79c.19,0,.24.06.22.24s0,.47,0,.7.1.3.32.29c.44,0,.47,0,.42.45a6.13,6.13,0,0,0,0,1.08A3.06,3.06,0,0,0,136.2,29.72Zm-10.42,2a8.4,8.4,0,0,0,.06-1.75c0-.12.06-.26-.07-.35-1,0-1.47-.45-1.55-1.27V21.83c0-.28.06-.4.36-.38s.79,0,1.19,0a3.19,3.19,0,0,1,.85.46,3.4,3.4,0,0,1,.9,1.81c.11.46.15.93.23,1.4a6.33,6.33,0,0,0,.06,1.47,10.38,10.38,0,0,0,.57,3.62,2.79,2.79,0,0,0,2.46,1.86,3.26,3.26,0,0,0,1.47,0,2.5,2.5,0,0,0,1.9-1.09,5.79,5.79,0,0,0,.84-3.16c0-1,0-1-1-1-.19,0-.24,0-.24.25a4.27,4.27,0,0,1-.31,2,.81.81,0,0,1-.85.49c-.37,0-.52-.28-.64-.57a4.93,4.93,0,0,1-.29-1.5,19.55,19.55,0,0,0-.22-2.89,4.61,4.61,0,0,0-.89-2.32,4,4,0,0,0-2-1.17c-.18-.05-.3-.11-.29-.35s.2-.25.34-.26a5.75,5.75,0,0,0,.62-.09,4.06,4.06,0,0,0,3.41-4,5.37,5.37,0,0,0,0-1.89,2.64,2.64,0,0,0-.08-.73,4.37,4.37,0,0,0-2.51-3.48,9.37,9.37,0,0,0-3.74-.79c-.13-.11-.29-.06-.44-.06h-7.17c-.26,0-.36.06-.34.33v1.37c0,.16-.07.33.06.47a.55.55,0,0,0,.33.09,1.26,1.26,0,0,1,1.16.88c.06.17.09.35.14.53v15a3.14,3.14,0,0,1-.19.7,1.27,1.27,0,0,1-1,.73c-.14,0-.4,0-.41.26a14.59,14.59,0,0,1-.06,1.91c.09.12.21.07.32.07h6.75a.54.54,0,0,0,.33-.07Z"/><path class="cls-2" d="M177.19,33h-4.08c-.26,0-.4-.05-.35-.34s-.08-.42-.4-.4a1.82,1.82,0,0,1-.78,0c-.16-.09-.05-.53-.06-.8v-2c0-.26.08-.32.31-.3a4.26,4.26,0,0,0,1.08-.06.77.77,0,0,0,.72-.74,2.42,2.42,0,0,0,0-.38V22.71a1.05,1.05,0,0,0-.09-.37l-3.41-9.08c-.06-.15-.09-.33-.33-.26s-.18-.08-.18-.2c0-.49-.08-.54-.57-.53-.67,0-.67,0-.67-.65V9.37c0-.22.06-.27.27-.27h7.66c.21,0,.3,0,.28.27s0,.45,0,.67,0,.3.26.29.27-.09.27-.29-.13-.7,0-.88.6-.06.91-.06h5.48c.25,0,.37,0,.33.32a2.23,2.23,0,0,0,0,.35c0,.52,0,.53.51.55.18,0,.22.07.21.23V12.8c0,.17-.05.24-.22.22h-.18a1.11,1.11,0,0,0-1.2.85q-1.7,4.74-3.43,9.48a1.18,1.18,0,0,0-.06.41v5.06c0,.29.11.37.36.38h.84c.28,0,.31,0,.28.26a1.88,1.88,0,0,0,0,.32,1.87,1.87,0,0,0,0,.58c.06.15.34,0,.52.06s.16.1.16.21v2.28c0,.26-.16.21-.3.21ZM176.1,9.6c-.05-.09-.14-.07-.22-.07h-6.67c-.22,0-.28.08-.27.29v1.26c0,.63,0,.63.63.62a1.49,1.49,0,0,1,1,1c1.07,2.84,2.14,5.67,3.2,8.51a4,4,0,0,1,.43,1.32V27.9a1.62,1.62,0,0,1-.5,1.33,2.18,2.18,0,0,1-1.11.36c-.56,0-.56,0-.56.52v1.37c0,.2,0,.29.27.29h7.9c.22,0,.28-.09.27-.29V30.25c0-.68,0-.68-.7-.66a1.49,1.49,0,0,1-1.49-1.35V22.15c1.13-3.13,2.27-6.25,3.39-9.39.23-.63.55-1.1,1.29-1.14.24,0,.36,0,.35-.3V9.71c0-.2-.07-.26-.26-.26h-5.18c-.21,0-.25.09-.25.27V11.4a.25.25,0,0,0,.07.22l.34.06c.95.19,1.2.63.92,1.55-.55,1.81-1.08,3.62-1.63,5.43-.1.34-.22.67-.35,1.07-.71-2.21-1.4-4.35-2.08-6.48a1.46,1.46,0,0,1-.13-.75c.11-.54.52-.72,1-.81.23,0,.34-.12.33-.39C176.09,10.8,176.1,10.2,176.1,9.6Zm1.09,7.86c.33-1.11.66-2.14.95-3.18.15-.53.46-1,.25-1.63-.08-.22-.12-.34-.34-.38l-.42-.06c-.18,0-.31,0-.27.23.07.4-.08.58-.5.54a.75.75,0,0,0-.27.06.68.68,0,0,0-.5,1l.23.73Z"/><path class="cls-2" d="M98.79,32.52a1.41,1.41,0,0,1-.5-2.52,3.94,3.94,0,0,1,2.26-1c1.13-.13,1.37-.36,1.37-1.5V20.93a.54.54,0,0,0-.22-.48,6.48,6.48,0,0,1-.59-.49.65.65,0,0,1,0-1.06h0c.69-.29.76-.84.74-1.51V12.33c0-.15,0-.31-.15-.39a.24.24,0,0,0,.1-.3c-.08-.31-.18-.57-.61-.59a9.12,9.12,0,0,1-1.53-.48.9.9,0,0,0-.3-.28,2.36,2.36,0,0,1-1-2.39.81.81,0,0,1,.82-.75,2.6,2.6,0,0,1,1.1.16,9.48,9.48,0,0,0,3.53.39c1.41,0,2.82-.17,4.24-.18a13.52,13.52,0,0,1,4.35.62,4.74,4.74,0,0,1,3.19,2.91,3.26,3.26,0,0,0,.25.45c-.1.09-.05.19,0,.29a7.55,7.55,0,0,1,.18,1.63,11.46,11.46,0,0,1-.13,1.77A5.21,5.21,0,0,1,114.56,18a4.67,4.67,0,0,1-1.68,1.11c-.07,0-.16,0-.19.13s0,.09.08.1a13,13,0,0,0,1.31.56c-.06.13.06.16.13.21a5.18,5.18,0,0,1,1.66,2.18c.07.17.16.33.24.5a.53.53,0,0,0,0,.17,7.77,7.77,0,0,1,.31,2.34,8.93,8.93,0,0,1-.19,2.12A6.28,6.28,0,0,1,115,30.17a6.38,6.38,0,0,1-4.89,2.13c-1.6.05-3.2-.05-4.8-.13a39.24,39.24,0,0,0-4.06.08,4.26,4.26,0,0,0-1.07.11A5.7,5.7,0,0,1,98.79,32.52Zm4.35-.84h1.76a.27.27,0,0,0,.23.06h2a21.29,21.29,0,0,0,4.13-.05,5.34,5.34,0,0,0,4.52-4.13,9.9,9.9,0,0,0,.13-3.79,5.13,5.13,0,0,0-1.4-3,4.94,4.94,0,0,0-2.6-1.35c-.13,0-.25,0-.26-.22a.24.24,0,0,1,.18-.28h0l.24-.06a4.48,4.48,0,0,0,3.26-3.13,8.09,8.09,0,0,0,.18-3.57A4.23,4.23,0,0,0,113.61,9a9.25,9.25,0,0,0-4.5-1.14,6,6,0,0,0-2,0L105.57,8a5.62,5.62,0,0,0-1.4.06,11.5,11.5,0,0,1-3.78-.36,3,3,0,0,0-1.09-.2c-.21,0-.43.08-.46.3a2,2,0,0,0,.41,1.71,3.8,3.8,0,0,0,2.25,1.11.76.76,0,0,1,.61.49,4.3,4.3,0,0,1,.17.6v6.74a2.73,2.73,0,0,1-.74.63c-.35.23-.35.41,0,.67a4.11,4.11,0,0,1,.76.66V28c-.2.92-.6,1.3-1.44,1.34a3.78,3.78,0,0,0-1.72.54,1.88,1.88,0,0,0-.91.89,1,1,0,0,0,.08,1.07c.21.28.54.25.87.2a16.71,16.71,0,0,1,2.35-.31,7.53,7.53,0,0,0,1.61,0Z"/><path class="cls-6" d="M80.59,33.43a14.6,14.6,0,0,1-3.77-4.89,14.94,14.94,0,0,1-.93-3.37,33.47,33.47,0,0,1-.38-3.74c0-.6-.09-1.2-.12-1.81a.29.29,0,0,0-.15-.28,2.85,2.85,0,0,1-.49-.39c-.4-.38-.35-.88.22-1.23a1.68,1.68,0,0,0,.76-1.32,7,7,0,0,0,0-1.38,14.8,14.8,0,0,1,.78-6.59A11.32,11.32,0,0,1,79,4.25,7.57,7.57,0,0,1,83.2,1.93a6.16,6.16,0,0,1,3.31.42,7.62,7.62,0,0,1,2.87,2,24.36,24.36,0,0,1,2,2.83c.44.63.72,1.35,1.11,2a7,7,0,0,1,.7,3.33c.09,1.58.14,3.15.23,4.73a.78.78,0,0,0,.19.57.79.79,0,0,1,.29.82,4.33,4.33,0,0,1-.67.84.37.37,0,0,0-.11.28c-.09,1.09-.21,2.18-.27,3.27a20,20,0,0,1-.71,4.4,10.29,10.29,0,0,1-2.31,4.36,7.22,7.22,0,0,1-5.69,2.54,6.67,6.67,0,0,1-3.27-.89C80.78,33.43,80.68,33.3,80.59,33.43Zm4.43.48a3.33,3.33,0,0,0,.45,0,7.61,7.61,0,0,0,4.64-3.1,14.31,14.31,0,0,0,2.29-7.29c.1-1,.22-2.09.26-3.14a2,2,0,0,1,.66-1.6c.26-.21.19-.48-.05-.72a3.38,3.38,0,0,1-.93-2.32c-.09-1.6-.14-3.2-.22-4.79a6.15,6.15,0,0,0-.91-3.23q-.51-.76-1-1.53a8.36,8.36,0,0,0-2.77-2.88,5.76,5.76,0,0,0-5.26-.63A7.83,7.83,0,0,0,79,4.89,10.88,10.88,0,0,0,77.12,8a13.32,13.32,0,0,0-1,4,12.07,12.07,0,0,0,0,2.61v1.68a1.3,1.3,0,0,0-.06.2,2,2,0,0,1-1,1.57c-.38.22-.34.43,0,.69a1.1,1.1,0,0,1,.63,1c0,.7.09,1.39.13,2.09.05,1,.14,2,.29,3a14.52,14.52,0,0,0,1.1,3.89,11.87,11.87,0,0,0,2.92,3.82,5.47,5.47,0,0,0,3.5,1.42,2.42,2.42,0,0,0,1.38,0Z"/><path class="cls-2" d="M1.6,32.52A1.36,1.36,0,0,1,1,30.16,3.72,3.72,0,0,1,3.33,29c1.2-.16,1.41-.36,1.42-1.58V20.9a.54.54,0,0,0-.24-.47,6.64,6.64,0,0,1-.64-.54.62.62,0,0,1,0-1A.4.4,0,0,1,4,18.8c.68-.28.75-.82.74-1.48v-5a1,1,0,0,0-.06-.48c0-.69-.07-.79-.73-.95l-.34-.09c-.37-.08-.68-.31-1-.36a1.09,1.09,0,0,0-.33-.3,2.34,2.34,0,0,1-1-2.22A.88.88,0,0,1,2,7h.17a2.88,2.88,0,0,1,.93.16,9.41,9.41,0,0,0,3.56.39c1.4,0,2.8-.18,4.2-.17A12.35,12.35,0,0,1,16,8.27a4.52,4.52,0,0,1,2.54,2.63c.06.15.14.29.21.43a3,3,0,0,0,0,.31,9.1,9.1,0,0,1,0,4,4.64,4.64,0,0,1-2.23,3.09c-.3.17-.61.32-1,.52a7,7,0,0,1,1.46.66,5.5,5.5,0,0,1,1.88,2.46,3.38,3.38,0,0,0,.23.42c-.11.08,0,.16,0,.25a8.34,8.34,0,0,1,.29,2.21,9.26,9.26,0,0,1-.28,2.49,5.72,5.72,0,0,1-1.56,2.69,6.52,6.52,0,0,1-4.42,1.76,42.2,42.2,0,0,1-4.9-.12c-1.36-.06-2.71,0-4.07.07a9.67,9.67,0,0,0-1,.12A12.25,12.25,0,0,1,1.6,32.52ZM8.51,8A6.2,6.2,0,0,0,7,8.06a11.88,11.88,0,0,1-3.48-.28A4.58,4.58,0,0,0,2.2,7.5a.43.43,0,0,0-.5.35v0a1.94,1.94,0,0,0,.56,1.76,4,4,0,0,0,2,.94,1,1,0,0,1,.9,1,7.72,7.72,0,0,1,.07.94v5a1.56,1.56,0,0,1-.83,1.64c-.34.18-.31.37,0,.61l.39.3a.92.92,0,0,1,.43.89v1.26c0,1.94.08,3.88-.06,5.82a1.25,1.25,0,0,1-1.09,1.27,7.11,7.11,0,0,0-1.53.34,2.48,2.48,0,0,0-1.45,1.19,1,1,0,0,0,.1,1,.85.85,0,0,0,.84.2,17.7,17.7,0,0,1,2.35-.32A7.57,7.57,0,0,0,6,31.67H7.71c.06.07.15.06.23.06h2a21,21,0,0,0,3.78,0,5.84,5.84,0,0,0,3.42-1.53,6,6,0,0,0,1.67-4.15,3.4,3.4,0,0,0,0-1.47,4.5,4.5,0,0,0-.16-1.21,4.81,4.81,0,0,0-3.86-3.94c-.15,0-.31,0-.32-.23s.14-.25.31-.29a4.55,4.55,0,0,0,3.56-3.76,8,8,0,0,0-.13-3.72,4.1,4.1,0,0,0-2.4-2.72,10.48,10.48,0,0,0-3.88-.79,5.93,5.93,0,0,0-2,0C9.51,7.89,9,8,8.51,8Z"/><path class="cls-7" d="M1.6,32.52a12.25,12.25,0,0,0,1.55-.23c.32,0,.64-.11,1-.12,1.36,0,2.71-.13,4.07-.07,1.63.07,3.27.19,4.9.12a6.52,6.52,0,0,0,4.39-1.79A5.72,5.72,0,0,0,19,27.66a9.26,9.26,0,0,0,.28-2.49A8.34,8.34,0,0,0,19,23c0-.09-.09-.17,0-.25a5.63,5.63,0,0,1,.8,2.37,9.23,9.23,0,0,1-.33,4.26A5.43,5.43,0,0,1,15,33a18,18,0,0,1-4,.07,52.89,52.89,0,0,0-6.7.07,13.69,13.69,0,0,0-1.52.24C2,33.54,1.67,33.28,1.6,32.52Z"/><path class="cls-7" d="M98.79,32.52a5.7,5.7,0,0,0,1.41-.23,4.26,4.26,0,0,1,1.07-.11c1.35-.07,2.71-.14,4.06-.08,1.6.07,3.2.18,4.8.13A6.38,6.38,0,0,0,115,30.1a6.28,6.28,0,0,0,1.27-2.77,8.93,8.93,0,0,0,.19-2.12,7.77,7.77,0,0,0-.31-2.34.53.53,0,0,1,0-.17,5.53,5.53,0,0,1,.86,2.53,9.29,9.29,0,0,1-.34,4.16,5.43,5.43,0,0,1-4.49,3.7,15.37,15.37,0,0,1-3.5.1,55.2,55.2,0,0,0-7.29,0,8.33,8.33,0,0,0-1.31.22h-.28C99.11,33.43,98.84,33.23,98.79,32.52Z"/><path class="cls-7" d="M80.59,33.43c.1-.15.19,0,.27,0a6.67,6.67,0,0,0,3.27.89,7.22,7.22,0,0,0,5.69-2.54,10.29,10.29,0,0,0,2.31-4.36,20,20,0,0,0,.71-4.4c.07-1.09.18-2.18.27-3.27a.37.37,0,0,1,.11-.28,4.33,4.33,0,0,0,.67-.84c.25.17.37.45.58.65s.06.24,0,.37a.76.76,0,0,1-.26.45c-.54.37-.52.94-.57,1.5-.14,1.54-.19,3.08-.43,4.61A12.89,12.89,0,0,1,91,32.15a7.4,7.4,0,0,1-4.61,3,6.21,6.21,0,0,1-5.55-1.47Z"/><path class="cls-7" d="M16.91,19.86a7,7,0,0,0-1.46-.66c.39-.2.7-.35,1-.52a4.64,4.64,0,0,0,2.23-3.09,9.1,9.1,0,0,0,0-4,3,3,0,0,1,0-.31,4.65,4.65,0,0,1,.79,2.22,8.26,8.26,0,0,1-.27,3.61A4.53,4.53,0,0,1,16.91,19.86Z"/><path class="cls-7" d="M114.14,19.81a13,13,0,0,1-1.31-.56.08.08,0,0,1-.08-.1c0-.1.12-.1.19-.13a4.67,4.67,0,0,0,1.68-1.11,5.21,5.21,0,0,0,1.33-2.79,11.46,11.46,0,0,0,.13-1.77,7.55,7.55,0,0,0-.18-1.63c0-.1-.07-.2,0-.29a5.34,5.34,0,0,1,.78,2.76,6.87,6.87,0,0,1-.82,4A4,4,0,0,1,114.14,19.81Z"/><path class="cls-6" d="M185.9,2.19c.43.86.95,1.6,1.36,2.4a16.52,16.52,0,0,1,.65,1.56.29.29,0,0,1-.05.32A31.15,31.15,0,0,0,186,9.05c-.07.1-.1.34-.31.24s-.18-.29-.1-.48V8.72c0-.09-.26.26-.47.11a.52.52,0,0,1-.2-.52.42.42,0,0,1,.06-.2c.45-.7.13-1.29-.27-1.87-.06-.09-.13-.16-.19-.25a3.43,3.43,0,0,1-.47-.84c-.09-.35.31-.52.48-.78L185.7,2.5Zm0,.79c-.32.5-.62.94-.89,1.4-.16.28-.54.49-.48.81A2.67,2.67,0,0,0,185,6c.42.66.85,1.32.41,2.15.6-.81,1.13-1.66,1.78-2.43.11-.13,0-.24,0-.36A15.89,15.89,0,0,0,185.88,3Z"/><path class="cls-5" d="M74.63,7.71a1.75,1.75,0,0,0,.06.56,1.37,1.37,0,0,1-.37.53c-.18.06-.28,0-.39-.17a36.83,36.83,0,0,0-2.36-3.31.83.83,0,0,1-.18-1,10.78,10.78,0,0,1,.54-1.18A28.9,28.9,0,0,0,73.42.5c.25.4.48.75.69,1.1a13.39,13.39,0,0,0,1.57,2.28c.17.19-.06.36.05.52-.26,0-.27.28-.37.43A6.56,6.56,0,0,0,74.3,6.71.79.79,0,0,0,74.63,7.71Zm-.37.6A1,1,0,0,0,74,7.73a.9.9,0,0,1-.18-.82,3.37,3.37,0,0,1,.5-1.3l.83-1.26c.07-.11.16-.22,0-.37a10.89,10.89,0,0,1-1.09-1.55l-.64-1-.41.7a12.73,12.73,0,0,0-1.29,2.4.47.47,0,0,0,.08.53,26.15,26.15,0,0,1,1.81,2.49A4.84,4.84,0,0,0,74.26,8.31Z"/><path class="cls-5" d="M94,8.55c-.07-.07-.1,0-.13,0a.38.38,0,0,1-.67-.15.88.88,0,0,1,.15-.86,1,1,0,0,0,.09-1,5.21,5.21,0,0,0-.81-1.43A6.18,6.18,0,0,1,92,4.18c0-.1-.07-.18,0-.28a22,22,0,0,0,2-3L94.3.5a45.57,45.57,0,0,1,2.2,4.16,4.23,4.23,0,0,1-.22.42,16.07,16.07,0,0,0-2.19,3.25.16.16,0,0,0-.12.06c0,.06-.14.05-.06.14Zm.33-7.18-.23.36A15.69,15.69,0,0,1,92.69,3.8a.48.48,0,0,0,0,.68h0a10.48,10.48,0,0,1,1,1.57,1.67,1.67,0,0,1,0,1.79.29.29,0,0,0-.06.34,2.26,2.26,0,0,0,.21-.24,31.81,31.81,0,0,1,2.14-3A.41.41,0,0,0,96,4.49,19,19,0,0,0,94.29,1.37Z"/><path class="cls-7" d="M94,8.43s.11,0,.12-.06a16.07,16.07,0,0,1,2.19-3.25c.1-.13.13-.29.22-.42v.06a1.09,1.09,0,0,1-.15,1.45,27.69,27.69,0,0,0-2,2.84c-.08.11-.11.37-.34.26s-.18-.32-.14-.52V8.55h0C94,8.54,94,8.43,94,8.43Z"/><path class="cls-7" d="M74.63,7.71a.79.79,0,0,1-.32-1,6.56,6.56,0,0,1,1.06-1.88c.1-.15.11-.4.37-.43.46.56.5.35.08,1-.25.42-.53.82-.8,1.22A3.41,3.41,0,0,0,74.63,7.71Z"/><path class="cls-2" d="M198.74,5.8a1.31,1.31,0,0,1-1.28,1.34h0a1.34,1.34,0,0,1,0-2.68,1.31,1.31,0,0,1,1.32,1.3S198.74,5.79,198.74,5.8Zm-2.12.7a1,1,0,0,0,1.41.14l.14-.14a.12.12,0,0,1,.07-.14h.05A1.07,1.07,0,0,0,198,5a1.09,1.09,0,0,0-1.4.11,1.12,1.12,0,0,0,0,1.46Z"/><path class="cls-8" d="M99.74,10.51a9.12,9.12,0,0,0,1.53.48c.43,0,.52.28.61.59a.24.24,0,0,1-.1.3A3.16,3.16,0,0,1,99.74,10.51Z"/><path class="cls-7" d="M2.57,10.52c.37.06.69.28,1,.36L4,11c.65.16.73.25.73.95a3.64,3.64,0,0,1-1.91-1.08A.8.8,0,0,1,2.57,10.52Z"/><path class="cls-9" d="M74.32,8.8a1.37,1.37,0,0,0,.37-.53,1.09,1.09,0,0,1,.32.85.27.27,0,0,1-.2.25c-.13,0-.15-.08-.2-.14S74.41,8.94,74.32,8.8Z"/><path class="cls-10" d="M136.2,29.72a3.06,3.06,0,0,1,.08-.59h0a2.29,2.29,0,0,1,0,.6Z"/><path class="cls-11" d="M163.08,45.72a18.09,18.09,0,0,1,2.45.08,1.68,1.68,0,0,1,1.53,2,1.57,1.57,0,0,1-1.35,1.41c-.3.08-.29.15-.13.36.4.54.77,1.09,1.15,1.63.14.2.23.44.52.47.08,0,.08.07.08.13s-.06.09-.12.09h-1.93c-.05,0-.12,0-.14-.07a.12.12,0,0,1,.08-.16.21.21,0,0,0,.07-.31L164,49.51a.31.31,0,0,0-.29-.14h-1.23c-.19,0-.24.06-.23.24V51.3c0,.18,0,.36.25.37.09,0,.11.07.1.15s-.08.07-.13.07h-1.79c-.06,0-.12,0-.12-.09s0-.12.08-.13c.27,0,.24-.24.24-.42V46.37c0-.19,0-.42-.25-.45-.08,0-.08-.08-.07-.14s.13-.08.2-.08Zm.49,2.75a6.55,6.55,0,0,0,1.47-.08.78.78,0,0,0,.67-1,.86.86,0,0,0-.82-.65,20.82,20.82,0,0,0-2.45-.06c-.14,0-.18,0-.18.18v1.37c0,.15,0,.2.2.2Z"/><path class="cls-11" d="M125,45.72h1.68a2.86,2.86,0,0,1,3,3.21,4,4,0,0,1-.23,1.24,2.75,2.75,0,0,1-2.64,1.74H123c-.08,0-.2.06-.25-.06s.06-.15.14-.19.1-.17.1-.28V46.26c0-.12,0-.25-.12-.3s-.15-.06-.13-.17.13-.07.2-.07Zm-.65,3.06v1.86c0,.15,0,.27.21.27.77,0,1.54,0,2.31-.06a1.52,1.52,0,0,0,1.43-1.42,4.41,4.41,0,0,0,0-1.19,1.53,1.53,0,0,0-1.45-1.45c-.77-.1-1.54,0-2.31-.06-.19,0-.2.09-.2.24,0,.6,0,1.2,0,1.81Z"/><path class="cls-12" d="M81.82,45.72a17.56,17.56,0,0,1,2.24.07,2.66,2.66,0,0,1,2.29,2.41A3.74,3.74,0,0,1,86,50.46a2.71,2.71,0,0,1-2.51,1.45H79.66c-.08,0-.2.06-.25-.05s.08-.16.17-.2.1-.18.1-.28v-5.1c0-.13,0-.27-.14-.32s-.15-.06-.12-.16.13-.07.2-.07ZM81,48.81v1.83c0,.12,0,.27.17.27a17.61,17.61,0,0,0,2.49-.08A1.45,1.45,0,0,0,85,49.57a3.87,3.87,0,0,0,0-1.39,1.5,1.5,0,0,0-1.47-1.39c-.74-.1-1.47,0-2.21-.06-.25,0-.29.08-.28.3,0,.59,0,1.18,0,1.78Z"/><path class="cls-11" d="M43.42,45.72h1.83a2.75,2.75,0,0,1,2.83,2.51,4,4,0,0,1-.06,1.5,2.73,2.73,0,0,1-2.77,2.18H41.39c-.08,0-.2.06-.24-.06s.07-.15.14-.19a.46.46,0,0,0,.12-.34v-5A.41.41,0,0,0,41.3,46c-.11-.09-.2,0-.16-.18s.18-.08.27-.08Zm-.65,3.07v1.86c0,.12,0,.26.18.26a18.67,18.67,0,0,0,2.42-.07,1.49,1.49,0,0,0,1.35-1.41,4.23,4.23,0,0,0,0-1.19,1.52,1.52,0,0,0-1.45-1.45c-.77-.1-1.54,0-2.31-.06-.2,0-.2.1-.2.24,0,.6,0,1.21,0,1.82Z"/><path class="cls-11" d="M117.25,52a4.31,4.31,0,0,1-2.67-.82,2.88,2.88,0,0,1-.07-4.58,4.56,4.56,0,0,1,5.42,0,2.92,2.92,0,0,1-.74,5A4.94,4.94,0,0,1,117.25,52Zm0-5.22a3,3,0,0,0-1.75.62,1.84,1.84,0,0,0-.11,2.85,2.9,2.9,0,0,0,3.65.09,1.85,1.85,0,0,0-.1-3,3.06,3.06,0,0,0-1.71-.56Z"/><path class="cls-11" d="M108,52a4.28,4.28,0,0,1-2.63-.83,2.87,2.87,0,0,1-.28-4.37,4.5,4.5,0,0,1,5.92,0,2.94,2.94,0,0,1-1.2,4.87A4.86,4.86,0,0,1,108,52Zm2.52-3.12a1.7,1.7,0,0,0-.51-1.3,2.87,2.87,0,0,0-3.93,0,1.81,1.81,0,0,0-.05,2.56l.05.05a2.87,2.87,0,0,0,3.88,0A1.7,1.7,0,0,0,110.51,48.83Z"/><path class="cls-11" d="M154.94,52a4.29,4.29,0,0,1-2.55-.76,2.89,2.89,0,0,1,0-4.75,4.6,4.6,0,0,1,4.88-.16,2.84,2.84,0,0,1,1.5,2.64,2.92,2.92,0,0,1-1.88,2.65A4.47,4.47,0,0,1,154.94,52Zm-2.43-3.15a1.77,1.77,0,0,0,.63,1.4,2.89,2.89,0,0,0,3.71,0,1.83,1.83,0,0,0,.26-2.57l-.14-.16a2.89,2.89,0,0,0-3.89,0A1.78,1.78,0,0,0,152.51,48.8Z"/><path class="cls-11" d="M35.6,52a4.4,4.4,0,0,1-2.4-.67,2.88,2.88,0,0,1-.42-4.61,4.52,4.52,0,0,1,5.84.1,2.94,2.94,0,0,1-1.18,4.85A5,5,0,0,1,35.6,52Zm2.55-3.1a1.73,1.73,0,0,0-.54-1.33A2.88,2.88,0,0,0,34,47.25a1.85,1.85,0,0,0-.08,3.07,2.9,2.9,0,0,0,3.26.13A1.86,1.86,0,0,0,38.15,48.85Z"/><path class="cls-11" d="M26.2,52a4,4,0,0,1-2.75-1.11,2.93,2.93,0,0,1,.09-4.14l.06-.06a4.55,4.55,0,0,1,5.64,0,2.91,2.91,0,0,1-.78,4.9A5,5,0,0,1,26.2,52Zm2.75-3a1.76,1.76,0,0,0-.34-1.2,2.85,2.85,0,0,0-4-.38,1.84,1.84,0,0,0,0,2.92,2.9,2.9,0,0,0,3.6-.05,1.75,1.75,0,0,0,.74-1.3Z"/><path class="cls-11" d="M179,51.94a4.63,4.63,0,0,1-2.21-.45.43.43,0,0,0-.28-.06c-.51.16-.29-.14-.21-.33s.28-.62.42-.92a.22.22,0,0,1,.12-.16s.09.08.12.14a.77.77,0,0,0,.43.39,4,4,0,0,0,2.76.31,1.66,1.66,0,0,0,.63-.29.49.49,0,0,0-.11-.89,3.06,3.06,0,0,0-1.1-.2,9.93,9.93,0,0,1-2-.21,1.56,1.56,0,0,1-1.34-1.34,1.73,1.73,0,0,1,.92-1.82,4.53,4.53,0,0,1,3.11-.33,6,6,0,0,1,1.27.38.83.83,0,0,0,.51.07c.23-.05.25,0,.15.22l-.64,1.17c-.09.17-.17.18-.24,0a.85.85,0,0,0-.48-.48,3.62,3.62,0,0,0-2.62-.29,1.35,1.35,0,0,0-.38.17.49.49,0,0,0,0,.89,3,3,0,0,0,1.26.25,9.6,9.6,0,0,1,1.84.22,1.57,1.57,0,0,1,1.33,1.27,1.64,1.64,0,0,1-.75,1.78A4.62,4.62,0,0,1,179,51.94Z"/><path class="cls-11" d="M138.27,51.94a4.68,4.68,0,0,1-2.24-.46.42.42,0,0,0-.27-.06c-.36.12-.33,0-.21-.27l.46-1c.07-.15.14-.21.21,0a.64.64,0,0,0,.33.35,3.85,3.85,0,0,0,3,.33,1.69,1.69,0,0,0,.47-.23.5.5,0,0,0-.1-.91,3.06,3.06,0,0,0-1.1-.19,10.26,10.26,0,0,1-2-.21,1.55,1.55,0,0,1-1.35-1.37,1.72,1.72,0,0,1,.93-1.81,4.36,4.36,0,0,1,2.66-.4,6.18,6.18,0,0,1,1.53.38,1.17,1.17,0,0,0,.74.13c.17,0,.19.08.12.21l-.66,1.2c-.09.15-.17.16-.23,0a.8.8,0,0,0-.44-.47,3.59,3.59,0,0,0-2.68-.31,1.28,1.28,0,0,0-.41.2.48.48,0,0,0,.08.86,3,3,0,0,0,1.26.26,10.31,10.31,0,0,1,1.84.21,1.57,1.57,0,0,1,1.35,1.33,1.66,1.66,0,0,1-1,1.85A4.82,4.82,0,0,1,138.27,51.94Z"/><path class="cls-11" d="M64.79,52a4.4,4.4,0,0,1-2.65-.75,2.89,2.89,0,0,1,0-4.77,4.58,4.58,0,0,1,5.09,0,2.79,2.79,0,0,1,1.23,2.9,3,3,0,0,1-2.18,2.39A4.18,4.18,0,0,1,64.79,52Zm2.44-3.15a1.84,1.84,0,0,0-.38-1.08,2.84,2.84,0,0,0-4-.3A1.84,1.84,0,0,0,63,50.33a2.91,2.91,0,0,0,3.52-.07,1.88,1.88,0,0,0,.72-1.46Z"/><path class="cls-11" d="M73.9,52a4,4,0,0,1-3-1.11,2.86,2.86,0,0,1,.67-4.56,4.41,4.41,0,0,1,4.4-.13,2.82,2.82,0,0,1,1.72,2.95,2.94,2.94,0,0,1-2,2.54A4.48,4.48,0,0,1,73.9,52Zm.05-5.22a3.14,3.14,0,0,0-1.62.48,1.86,1.86,0,0,0,0,3.19,2.92,2.92,0,0,0,3.35-.08,1.83,1.83,0,0,0,.16-2.87A2.85,2.85,0,0,0,73.95,46.73Z"/><path class="cls-11" d="M99.32,51.94a5.28,5.28,0,0,1-1.62-.16,2.94,2.94,0,0,1-2.28-2.92,3,3,0,0,1,2.18-3,6.68,6.68,0,0,1,3.7.1c.26.07.51.24.8.06.1-.06.17.05.12.17l-.6,1.34a.1.1,0,0,1-.13.09c-.07,0-.16,0-.16-.15s-.21-.38-.41-.46a4.17,4.17,0,0,0-2.71-.19,2,2,0,0,0-1.46,2.37,2.07,2.07,0,0,0,2,1.82,6.25,6.25,0,0,0,2.25-.26c.23-.06.22-.2.22-.37,0-.7,0-.7-.68-.7h-.7c-.21,0-.41,0-.46.26,0,.09-.08.1-.16.1s-.09-.09-.09-.16V48.69c0-.06,0-.15.08-.16s.14,0,.16.09.25.21.43.21h2.6c.08,0,.2-.06.24.06s-.08.17-.17.2a.21.21,0,0,0-.17.23v1.26c0,.07,0,.15.06.19.33.22.13.35-.08.47A5.57,5.57,0,0,1,99.32,51.94Z"/><path class="cls-11" d="M17.68,51.94a5,5,0,0,1-1.8-.24,2.9,2.9,0,0,1-2-2.7,2.94,2.94,0,0,1,1.77-3,5.7,5.7,0,0,1,3.55-.18c.29.06.56.15.85.22s.27.1.4,0,.15-.09.22,0,0,.13,0,.2l-.56,1.25c0,.06,0,.15-.14.12s-.17,0-.16-.15A.52.52,0,0,0,19.5,47a3.91,3.91,0,0,0-3.06-.15,2.15,2.15,0,0,0,.16,4,5,5,0,0,0,3-.15c.1,0,.13-.1.14-.21.08-.83.09-.83-.73-.83h-.67c-.21,0-.41,0-.46.26a.12.12,0,0,1-.14.1h0c-.1,0-.07-.11-.07-.17V48.72c0-.07,0-.15.08-.17a.13.13,0,0,1,.16.09h0c.06.24.26.2.43.2h2.6c.08,0,.2-.06.23.07s-.06.16-.16.18a.3.3,0,0,0-.19.29q0,.6,0,1.19a.25.25,0,0,0,.11.24c.29.18.11.29-.06.4A5.61,5.61,0,0,1,17.68,51.94Z"/><path class="cls-11" d="M7.51,50c0,.23.11.45.16.68a1.34,1.34,0,0,1-.08.86.67.67,0,0,1-1.12.29,1.72,1.72,0,0,0-1.11-.42c-.68,0-.92-.51-.62-1.13a2.6,2.6,0,0,1,1-.9L5,49.19a1.26,1.26,0,0,1-.66-.38.68.68,0,0,1,.21-1.18,1.63,1.63,0,0,0,.84-.83.66.66,0,0,1,1.08-.17A2,2,0,0,1,7,47.78c.14,0,.14-.14.19-.22A2,2,0,0,1,7.58,47c.64-.48,1.24-.24,1.32.55a1.16,1.16,0,0,0,.41.82.74.74,0,0,1,.32.83.91.91,0,0,1-.79.56,3.17,3.17,0,0,1-1.15-.08l-.07.08a5.41,5.41,0,0,1,.48.41,24.71,24.71,0,0,1,1.6,2c0,.07.2.17,0,.23s-.27.3-.44,0-.57-.91-.87-1.36a4.54,4.54,0,0,0-1-1.19h0C7.39,50,7.46,50,7.51,50Z"/><path class="cls-11" d="M193.43,50a12.75,12.75,0,0,0-1.63,2.27c-.27.4-.26.41-.72.19a22.09,22.09,0,0,1,2.18-2.65c-.37,0-.66.1-1,.09a1.48,1.48,0,0,1-.61-.15.66.66,0,0,1-.2-1.15,1.65,1.65,0,0,0,.54-1.05c.07-.63.53-.83,1.1-.56a2.1,2.1,0,0,1,.79.9l.1-.45a1.46,1.46,0,0,1,.4-.76.66.66,0,0,1,1.15.17,1.65,1.65,0,0,0,.87.85.67.67,0,0,1,.22,1.13,1.36,1.36,0,0,1-.78.44l-.6.13.59.44a1.33,1.33,0,0,1,.41.52c.28.62,0,1.09-.69,1.09a1.28,1.28,0,0,0-1,.35.72.72,0,0,1-.8.22.91.91,0,0,1-.52-.78,3.94,3.94,0,0,1,.17-1.17s.05-.09,0-.11S193.46,50,193.43,50Z"/><path class="cls-12" d="M146,45.72a20.59,20.59,0,0,1,2.4.07c1.23.2,1.81.92,1.51,2.37a1.36,1.36,0,0,1-.93,1,3.46,3.46,0,0,1-1.27.23h-2.25c-.22,0-.28.06-.27.27v1.65c0,.2,0,.35.26.38s.13.05.12.14-.09.09-.16.09h-1.83c-.08,0-.17,0-.17-.11s.07-.11.14-.11c.27,0,.3-.19.3-.42V46.36c0-.2,0-.38-.27-.41-.08,0-.18,0-.17-.12s.13-.11.21-.11Zm.68,2.58a9.07,9.07,0,0,0,1.4,0,.63.63,0,0,0,.56-.69v0c0-.47-.26-.71-.84-.72H145.4c-.2,0-.23.07-.23.25v1c0,.32.08.25.27.24Z"/><path class="cls-11" d="M56.51,45.72H59c.2,0,.41,0,.51-.22s.09-.06.15-.06.09.09.09.15v1.23c0,.06,0,.15-.07.17a.14.14,0,0,1-.17-.07.7.7,0,0,0-.45-.19H55.57c-.19,0-.24.07-.23.24v1c0,.18.06.21.22.21H57.7c.16,0,.34,0,.42-.18a.11.11,0,0,1,.14-.07h0c.07,0,.08.08.08.14v1.4c0,.07,0,.14-.11.15a.1.1,0,0,1-.12-.08v0c0-.29-.27-.31-.47-.31H55.51c-.16,0-.2.06-.2.21v2a.24.24,0,0,0,.19.28h0c.09,0,.16,0,.14.15s-.13.08-.2.08H53.85c-.06,0-.15,0-.17-.07s0-.14.12-.16.17-.16.17-.3V46.27c0-.13,0-.27-.16-.3s-.15,0-.13-.15.12-.08.19-.08Z"/><path class="cls-12" d="M172.41,49.23q0,1,0,2.07c0,.16,0,.34.19.4s.07.08.06.14-.07.08-.13.08H171c-.05,0-.13,0-.14-.05a.15.15,0,0,1,.07-.17c.07,0,.14-.23.14-.36V47.12c0-.26-.08-.31-.32-.3h-1.37c-.22,0-.46,0-.57.23,0,.06-.1.06-.15,0a.19.19,0,0,1-.06-.15V45.57c0-.05,0-.12.05-.15a.15.15,0,0,1,.18.06.77.77,0,0,0,.48.21h4.88c.19,0,.39,0,.46-.22s.09-.06.14-.06.09.06.09.13v1.37c0,.06,0,.12-.07.14a.13.13,0,0,1-.17-.08.53.53,0,0,0-.41-.19h-1.55c-.22,0-.28.07-.28.28C172.41,47.8,172.41,48.51,172.41,49.23Z"/><path class="cls-11" d="M89.88,51.25a2.14,2.14,0,0,1-1.45,1.84c-.07,0-.17.09-.19,0a.26.26,0,0,1,.12-.29,1.65,1.65,0,0,0,.83-.73c.17-.32.14-.4-.22-.43a.6.6,0,0,1-.6-.49.73.73,0,0,1,.39-.82.71.71,0,0,1,.84.13A1.15,1.15,0,0,1,89.88,51.25Z"/><path class="cls-11" d="M186.16,46.79c-.2.18-.34.15-.42-.12a4.83,4.83,0,0,0-.2-.62c0,.24-.18.5.11.7.05,0,0,.13-.09.13h-.32c-.07,0-.15,0-.18-.06s.07-.09.12-.13a1.29,1.29,0,0,0,0-1c-.05,0-.14,0-.12-.14s.13-.07.2-.08c.55,0,.54,0,.7.5a.38.38,0,0,0,.09.26c.05-.15.09-.23.11-.32.14-.46.27-.54.75-.45.14,0,.15.08.08.19a1,1,0,0,0,0,1c.07.09.08.17,0,.16s-.46.11-.66-.08c.31-.23.11-.54.1-.83Z"/><path class="cls-11" d="M184.63,46.06c.24.1.39.26.32.54s-.32.32-.58.34-.36-.08-.57-.05-.08-.24-.1-.37.1-.17.22-.11a.39.39,0,0,0,.39.32c.11,0,.22,0,.25-.13s-.1-.16-.2-.18l-.37-.08a.48.48,0,0,1-.29-.55c.09-.27.36-.3.6-.31s.29.09.47,0,.1.14.1.23.05.33-.21.27a.38.38,0,0,0-.35-.32c-.11,0-.22,0-.25.13s.09.15.17.17Z"/><path class="cls-4" d="M186.16,46.79l.21-.83c0,.28.21.59-.1.83Z"/><path class="cls-3" d="M141.51,25.13c-.25.79-.35,1.61-.56,2.41-.06.25-.09.51-.16.75a1.08,1.08,0,0,0,1,1.4c.36,0,.41.15.38.44a3.43,3.43,0,0,0,0,.56v1.06h-5.4V30c0-.21.07-.29.28-.3.9,0,1.25-.53,1.43-1.36.61-2.86,1.28-5.71,1.92-8.56l2.27-10a1.12,1.12,0,0,0,0-.18h4.2c.19,1,.38,1.94.57,2.91q.56,2.8,1.13,5.61L150,25.18q.34,1.69.67,3.39a1.15,1.15,0,0,0,1,1.06.19.19,0,0,0,.19.06c.29,0,.39.08.37.37a9.81,9.81,0,0,0,0,1.26c0,.35-.11.42-.43.42h-7V30c0-.23.1-.32.31-.32a2.21,2.21,0,0,0,.65-.09.94.94,0,0,0,.74-1.1v0c-.15-1-.26-2-.39-2.93a.48.48,0,0,0-.07-.3c-.07-.1-.14-.2-.28-.2h-3.94C141.69,25,141.51,24.95,141.51,25.13Zm2.92-6.78h-.06c-.28,1.32-.56,2.65-.84,4,0,.18.06.17.17.17h1.16c.23,0,.24-.08.2-.27-.07-.37-.12-.74-.18-1.11Z"/><path class="cls-5" d="M163.88,22.11c0,1-.06,2-.09,3a8.2,8.2,0,0,1-.52,3,2.29,2.29,0,0,1-1.85,1.43,12,12,0,0,1-1.68.08c-.24,0-.3-.09-.29-.31V12.77c0-.36-.16-.83.07-1s.69,0,1.05-.07a4.11,4.11,0,0,1,1,.11,2.36,2.36,0,0,1,1.89,1.88,11.82,11.82,0,0,1,.35,2.8c0,.91.05,1.82.08,2.73S163.88,21.15,163.88,22.11ZM160.7,21v7.91c0,.09,0,.17.18.18a1.92,1.92,0,0,0,2-1.39,5.49,5.49,0,0,0,.22-.85,22.22,22.22,0,0,0,.23-3.39c.07-2.7.06-5.41-.1-8.1a5.72,5.72,0,0,0-.48-2.07.43.43,0,0,0-.36-.28,11.87,11.87,0,0,0-1.33-.08c-.29,0-.37.06-.37.36C160.71,15.88,160.7,18.43,160.7,21Z"/><path class="cls-13" d="M144.84,31.74h7c.33,0,.46-.07.43-.42a9.81,9.81,0,0,1,0-1.26c0-.29-.08-.41-.37-.37a.19.19,0,0,1-.19-.06c.62,0,.62,0,.62.59v1.23c0,.41-.08.36-.35.35h-6.27A1.92,1.92,0,0,1,144.84,31.74Z"/><path class="cls-13" d="M154,29.72v1.57c0,.34.07.46.44.45h6.1v.07h-6.25c-.27,0-.37-.07-.36-.35V29.71Z"/><path class="cls-13" d="M160.51,9.61h-6.14c-.28,0-.39.06-.38.37a10.3,10.3,0,0,1-.06,1.68V9.74c0-.26.2-.18.33-.18h6.25Z"/><path class="cls-13" d="M136.83,31.74h5.4c-.08.1-.19.07-.29.07h-4.81C137,31.81,136.91,31.85,136.83,31.74Z"/><path class="cls-13" d="M141.51,25.13c0-.18.17-.13.27-.13h3.94c.14,0,.3,0,.28.2a.39.39,0,0,0-.34-.14H141.8A.59.59,0,0,0,141.51,25.13Z"/><path class="cls-13" d="M146.93,9.6h-4.2c.07-.1.17-.07.26-.07h3.69C146.76,9.54,146.86,9.51,146.93,9.6Z"/><path class="cls-13" d="M163.88,22.11V19.23A11.93,11.93,0,0,1,163.88,22.11Z"/><path class="cls-13" d="M142.23,31.74V30.68A1.77,1.77,0,0,1,142.23,31.74Z"/><path class="cls-14" d="M38.42,29.64A1.47,1.47,0,0,0,40,27.94c.1-.11.05-.25.05-.37V13.77A.92.92,0,0,0,40,13.4a3.72,3.72,0,0,0,0-.52,1.23,1.23,0,0,0-1.26-1.1.52.52,0,0,1-.26-.08V10c0-.31.08-.39.39-.39h13.4v6.78c0,.25-.08.32-.32.31H50.74c-.39,0-.32-.1-.33-.34a8.65,8.65,0,0,0-.47-2.46,3.18,3.18,0,0,0-2.88-2.12l-.8-.08a11.14,11.14,0,0,0-1.89-.06.42.42,0,0,0-.29.07h0c-.12.1-.07.24-.07.36v6.87c0,.12-.05.26.07.36A3.42,3.42,0,0,0,45.69,19a1.87,1.87,0,0,0,1-1.3,6.22,6.22,0,0,0,.21-1.42c0-.21.06-.29.28-.29h1.26v8.15c0,.21-.05.3-.28.29a4.58,4.58,0,0,0-.74,0c-.29,0-.49,0-.53-.36a9.46,9.46,0,0,0-.38-1.68,1.76,1.76,0,0,0-1.41-1.15l-.3-.08a.94.94,0,0,0-.77,0h0c-.12.1-.07.24-.07.36v7.71a.63.63,0,0,0,.07.36h0c.23.16.5.07.74.07a5.42,5.42,0,0,0,1.44-.05,4.79,4.79,0,0,0,2.21-.5,3.25,3.25,0,0,0,1.65-2.38,19.28,19.28,0,0,0,.29-2.06,5,5,0,0,0,.06-1.25h1.76v7.87c0,.3-.05.43-.4.42h-13c-.26,0-.41,0-.4-.35C38.44,30.82,38.42,30.23,38.42,29.64Z"/><path class="cls-13" d="M38.42,29.64V31.4c0,.33.14.35.4.35h13c.35,0,.4-.12.4-.42V23.46c.11.09.06.22.06.33v7.66c0,.3-.09.37-.38.37H38.72c-.3,0-.38-.09-.37-.38V30C38.36,29.86,38.3,29.73,38.42,29.64Z"/><path class="cls-13" d="M52.2,9.61H38.81c-.31,0-.4.08-.39.39v1.72c-.12-.09-.07-.21-.07-.32V10.07c0-.44-.07-.51.5-.51H51.78C51.92,9.54,52.09,9.43,52.2,9.61Z"/><path class="cls-13" d="M40,13.43c.1.11.05.25.05.37V27.6A.92.92,0,0,1,40,28V13.43Z"/><path class="cls-13" d="M46.87,24.15c0,.33.24.39.53.36a4.58,4.58,0,0,1,.74,0c.22,0,.28-.08.28-.29V16.07c.12.1.07.24.07.36v7.76c0,.32-.09.41-.4.38a4.24,4.24,0,0,0-.81,0C46.93,24.61,46.79,24.5,46.87,24.15Z"/><path class="cls-13" d="M44,29.64c-.12-.1-.07-.24-.07-.36V21.57a.63.63,0,0,1,.07-.36Z"/><path class="cls-13" d="M44,19.3c-.12-.1-.07-.24-.07-.36V12.07a.63.63,0,0,1,.07-.36Z"/><path class="cls-13" d="M44,11.72c.08-.1.19-.08.29-.07a11.14,11.14,0,0,1,1.89.06Z"/><path class="cls-13" d="M46.22,29.64a5.42,5.42,0,0,1-1.44.05c-.24,0-.51.09-.74-.07Z"/><path class="cls-13" d="M50.44,23.43a5,5,0,0,1-.06,1.25A4.32,4.32,0,0,1,50.44,23.43Z"/><path class="cls-13" d="M44,21.2a.94.94,0,0,1,.77,0Z"/><path class="cls-14" d="M29.63,29.64a5.19,5.19,0,0,0,1.87-.35A3.14,3.14,0,0,0,33.43,27a18.4,18.4,0,0,0,.36-2.4,4.07,4.07,0,0,0,.06-1.11h1.76v7.86c0,.34-.1.42-.43.42H21.78v-.22c.1-.09.06-.22.06-.33V29.63a1.46,1.46,0,0,0,1.55-1.34c.1-.11.06-.24.06-.37V13.4a.78.78,0,0,0-.06-.37,1.32,1.32,0,0,0-1.31-1.29c-.23,0-.33-.12-.32-.38V9.58H35.62v6.77c0,.24-.07.33-.32.32H34.07c-.23,0-.28-.08-.3-.3a9.1,9.1,0,0,0-.5-2.56,3,3,0,0,0-2.43-2c-.4-.08-.81-.11-1.21-.16-.1-.1-.22-.06-.33-.06H27.79c-.32,0-.42.08-.41.4v6.9c0,.12,0,.26.07.36a4,4,0,0,0,1.32-.13A1.85,1.85,0,0,0,30,17.67a7.46,7.46,0,0,0,.21-1.38c0-.21.07-.29.29-.28h1.26V24.1c0,.27-.07.38-.35.36a5.39,5.39,0,0,0-.84,0,.32.32,0,0,1-.35-.21,8,8,0,0,0-.4-2,1.77,1.77,0,0,0-1.24-1,2.88,2.88,0,0,1-.48-.09c-.64-.2-.77-.11-.77.51v7c0,.32-.14.74.06.95s.64.08,1,.07A3.81,3.81,0,0,0,29.63,29.64Z"/><path class="cls-13" d="M21.78,31.74H35.19c.33,0,.43-.08.43-.42V23.46c.11.09.06.22.06.33v7.66c0,.3-.09.37-.38.37H22.1C22,31.81,21.86,31.86,21.78,31.74Z"/><path class="cls-13" d="M23.39,13.05c.1.11.06.24.06.37V27.94a.78.78,0,0,1-.06.37V13.05Z"/><path class="cls-13" d="M35.62,9.61H21.78c.09-.12.22-.07.32-.07H35.26C35.38,9.54,35.51,9.43,35.62,9.61Z"/><path class="cls-13" d="M29.63,29.64a3.81,3.81,0,0,1-1.21.06c-.33,0-.76.15-1-.07s-.06-.62-.06-.95q0-3.49,0-7c0-.62.14-.71.77-.51-.7,0-.7,0-.7.73v7.3c0,.35.1.43.43.42Z"/><path class="cls-13" d="M30.28,24.3a.32.32,0,0,0,.35.21,5.39,5.39,0,0,1,.84,0c.28,0,.36-.08.35-.36V16.06c.12.1.07.24.07.36v7.76c0,.32-.09.41-.4.38a7.68,7.68,0,0,0-1,0C30.33,24.59,30.23,24.52,30.28,24.3Z"/><path class="cls-13" d="M27.51,19.3c-.12-.1-.07-.24-.07-.36V12c0-.33.1-.42.41-.4h1.51a.61.61,0,0,1,.33.06H27.83c-.24,0-.32.06-.32.31Z"/><path class="cls-13" d="M21.84,29.64V31.2a.63.63,0,0,1-.06.33V29.86C21.77,29.78,21.75,29.69,21.84,29.64Z"/><path class="cls-13" d="M33.86,23.43a4.07,4.07,0,0,1-.06,1.11A3.31,3.31,0,0,1,33.86,23.43Z"/><path class="cls-14" d="M196.36,17.43a9.8,9.8,0,0,0-.87-3.91A3.9,3.9,0,0,0,193,11.17a2.77,2.77,0,0,0-2.27.23,2.3,2.3,0,0,0-.85,3.14l.09.15a8.61,8.61,0,0,0,2.33,2.3c1.25.92,2.56,1.76,3.75,2.77a7.75,7.75,0,0,1,3,4.39,8.11,8.11,0,0,1-.42,5,4.92,4.92,0,0,1-4,3,5.58,5.58,0,0,1-5.37-2c-.14-.18-.22-.15-.32,0-.23.43-.49.85-.73,1.28a.38.38,0,0,1-.39.23,6.92,6.92,0,0,0-.84,0c-.29,0-.38-.08-.38-.37v-8.4c0-.24.07-.33.32-.32h1.26c.19,0,.26.05.29.25a16.64,16.64,0,0,0,.47,2.69A7.52,7.52,0,0,0,190.92,29a3.42,3.42,0,0,0,3,1,2.49,2.49,0,0,0,2-2.41,4.13,4.13,0,0,0-1.22-3.14,24.26,24.26,0,0,0-3.26-2.54A31.75,31.75,0,0,1,187.88,19a6.24,6.24,0,0,1-.8-7.83,4.82,4.82,0,0,1,4.06-2.27,6.4,6.4,0,0,1,2.58.4,5.07,5.07,0,0,1,2,1.5c.17.2.24.24.38,0s.44-.72.63-1.09a.4.4,0,0,1,.42-.23,7.06,7.06,0,0,0,.84,0c.27,0,.34.08.34.34v7.56Z"/><path class="cls-13" d="M196.36,17.43h1.88a5.21,5.21,0,0,1-1.41.06C196.67,17.55,196.51,17.61,196.36,17.43Z"/><path class="cls-14" d="M60.62,27.94v.45a1.35,1.35,0,0,0,1.46,1.23h0c.31,0,.42.09.41.41v1.71H55.36c-.27,0-.37-.06-.36-.35V29.64l.45-.08a1.36,1.36,0,0,0,1.15-1.41V13.4a1.46,1.46,0,0,0-1.21-1.67l-.29,0H55V9.92c0-.25.08-.31.32-.31H68.51c.23,0,.3.07.3.3v7h-1.4c-.27,0-.35-.06-.37-.35a13.57,13.57,0,0,0-.33-2.45,2.84,2.84,0,0,0-2.41-2.27,7.8,7.8,0,0,0-1.46-.16,11.25,11.25,0,0,0-1.89-.06.42.42,0,0,0-.29.07h0c-.12.1-.07.24-.07.36v6.87c0,.12-.05.26.07.36a8.21,8.21,0,0,0,1.12,0,2,2,0,0,0,1.82-1.9c.05-.36.1-.71.13-1.07,0-.19.09-.24.26-.24h1.23V24.2c0,.22-.05.32-.29.31H63.74c-.14-.44,0-.9-.13-1.34a2.18,2.18,0,0,0-1.23-1.78,2.36,2.36,0,0,0-.81-.18,1.31,1.31,0,0,0-.91,0h0c-.11.09-.07.21-.07.33v6.09C60.56,27.72,60.51,27.85,60.62,27.94Z"/><path class="cls-13" d="M68.78,16.92v-7c0-.23-.07-.3-.3-.3H55.33c-.24,0-.33.06-.32.31v1.79c-.15-.24-.05-.5-.06-.75s0-.73,0-1.09.06-.34.33-.34H68.51c.31,0,.39.09.39.39v6.64C68.85,16.68,68.91,16.82,68.78,16.92Z"/><path class="cls-13" d="M63.72,24.5h1.19c.24,0,.29-.09.29-.31V16.06c.13.1.07.24.07.36v7.77c0,.31-.08.43-.39.38S64.1,24.66,63.72,24.5Z"/><path class="cls-13" d="M55,29.65V31.4c0,.29.09.35.36.35h7.14c-.09.12-.22.07-.32.07h-6.9c-.26,0-.38,0-.36-.34V30C54.95,29.86,54.89,29.73,55,29.65Z"/><path class="cls-13" d="M60.63,19.3c-.12-.1-.07-.24-.07-.36V12.07a.63.63,0,0,1,.07-.36Z"/><path class="cls-13" d="M60.62,27.94c-.1-.1-.06-.22-.06-.33V21.52a.54.54,0,0,1,.07-.33Z"/><path class="cls-13" d="M60.63,11.72c.08-.1.19-.08.29-.07a11.25,11.25,0,0,1,1.89.06Z"/><path class="cls-13" d="M60.63,21.2a1.31,1.31,0,0,1,.91,0Z"/><path class="cls-3" d="M124.23,28.37c.08.83.57,1.23,1.55,1.27v2.1h-7.27a14.59,14.59,0,0,0,.06-1.91c0-.3.26-.24.41-.26a1.27,1.27,0,0,0,1-.73,3.14,3.14,0,0,0,.19-.69c.11-.11.06-.24.06-.37V13.56a.78.78,0,0,0-.06-.37c-.06-.11-.08-.36-.14-.53a1.26,1.26,0,0,0-1.16-.88.55.55,0,0,1-.33-.09V10c0-.35.07-.46.44-.45h7.45a9.37,9.37,0,0,1,3.74.79,4.37,4.37,0,0,1,2.51,3.48,2.64,2.64,0,0,1,.08.73v1.89a4.06,4.06,0,0,1-3.41,4,5.75,5.75,0,0,1-.62.09c-.14,0-.32,0-.34.26s.11.3.29.35a4,4,0,0,1,2,1.17,4.61,4.61,0,0,1,.89,2.32c.17,1,.14,1.93.22,2.89a4.93,4.93,0,0,0,.29,1.5c.12.28.27.54.64.57a.81.81,0,0,0,.85-.49,4.27,4.27,0,0,0,.31-2c0-.21,0-.25.24-.25,1,0,1,0,1,1a5.79,5.79,0,0,1-.84,3.16,2.5,2.5,0,0,1-1.9,1.09h-1.47a2.79,2.79,0,0,1-2.46-1.86,10.38,10.38,0,0,1-.57-3.62,6.79,6.79,0,0,0-.06-1.47c-.07-.47-.12-.94-.23-1.4a3.4,3.4,0,0,0-.9-1.81,3.19,3.19,0,0,0-.85-.46,5.5,5.5,0,0,0-1.33-.09c-.28,0-.38.06-.38.36v6.27C124.17,28.15,124.13,28.27,124.23,28.37Zm2-9.06a2.7,2.7,0,0,0,2.66-2.26,7.38,7.38,0,0,0,0-3.09,2.6,2.6,0,0,0-1.2-1.81A3.64,3.64,0,0,0,126,11.7a7.77,7.77,0,0,0-1.45-.06c-.29,0-.38.07-.37.37v6.76c0,.6,0,.62.62.6a5.27,5.27,0,0,0,1.38-.06Z"/><path class="cls-13" d="M120.17,13.2c.11.11.06.24.06.37V27.79a.78.78,0,0,1-.06.37V19.1Q120.16,16.14,120.17,13.2Z"/><path class="cls-13" d="M126.42,9.6H119c-.37,0-.46.11-.44.45V11.7c-.13-.14-.06-.31-.06-.47V9.86c0-.27.09-.33.34-.33H126C126.13,9.54,126.29,9.49,126.42,9.6Z"/><path class="cls-13" d="M124.23,28.37c-.1-.1-.06-.22-.06-.33V21.77c0-.3.09-.39.38-.36a5.5,5.5,0,0,1,1.24.07H124.6c-.39,0-.37.1-.36.38V28.1C124.24,28.18,124.23,28.28,124.23,28.37Z"/><path class="cls-13" d="M118.51,31.74h7.3c-.09.11-.22.07-.33.07h-6.67C118.7,31.81,118.57,31.86,118.51,31.74Z"/><path class="cls-13" d="M125.78,31.75v-2.1c.13.1.07.24.07.35A8.4,8.4,0,0,1,125.78,31.75Z"/><path class="cls-13" d="M132.74,16.49V14.6A5.37,5.37,0,0,1,132.74,16.49Z"/><path class="cls-13" d="M127.76,25.14a6.79,6.79,0,0,1,.06,1.47A6.33,6.33,0,0,1,127.76,25.14Z"/><path class="cls-13" d="M130.85,32.1h1.47A3.26,3.26,0,0,1,130.85,32.1Z"/><path class="cls-3" d="M178.28,28.29a1.49,1.49,0,0,0,1.49,1.35.26.26,0,0,0,.26.06c.29,0,.39.08.37.37a12.65,12.65,0,0,0,0,1.3c0,.28-.06.41-.36.38a6.8,6.8,0,0,0-.7,0h-6.8c-.37,0-.47-.11-.43-.45a5,5,0,0,0,0-.95c0-.4,0-.7.49-.71a2.18,2.18,0,0,0,1.11-.36,1.62,1.62,0,0,0,.5-1.33V22.58a4,4,0,0,0-.43-1.32c-1.06-2.84-2.14-5.68-3.2-8.51a1.49,1.49,0,0,0-1-1,.19.19,0,0,0-.19-.06c-.33.06-.39-.11-.38-.4A10.55,10.55,0,0,0,169,10c0-.32.1-.39.4-.38h6.7v1.79c0,.26-.1.34-.33.39a1.08,1.08,0,0,0-1,.81,1.46,1.46,0,0,0,.13.75c.68,2.13,1.37,4.27,2.08,6.48.13-.4.25-.73.35-1.07q.81-2.71,1.63-5.43c.28-.92,0-1.36-.92-1.55l-.34-.06V10c0-.21,0-.32.29-.32h5c.24,0,.3.09.29.31v1.37a.35.35,0,0,1-.25.42h0c-.73,0-1.06.51-1.29,1.14-1.12,3.13-2.26,6.26-3.39,9.39v.09c-.1.08-.06.19-.06.3v5.37A.15.15,0,0,0,178.28,28.29Z"/><path class="cls-13" d="M172.58,29.64c-.49,0-.53.31-.49.71a5,5,0,0,1,0,.95c0,.34.06.46.43.45h6.8a6.8,6.8,0,0,1,.7,0c.31,0,.38-.1.36-.38a12.65,12.65,0,0,1,0-1.3c0-.29-.08-.41-.37-.37a.26.26,0,0,1-.26-.06c.7,0,.7,0,.7.66v1.23c0,.2,0,.29-.27.29h-7.9c-.23,0-.28-.09-.27-.29V30.16C172,29.7,172,29.62,172.58,29.64Z"/><path class="cls-13" d="M183,11.7a.35.35,0,0,0,.29-.4V9.9c0-.22,0-.31-.29-.31h-5c-.25,0-.29.1-.29.32V11.7c-.09-.05-.07-.14-.07-.22V9.8c0-.18,0-.27.25-.27h5.18c.2,0,.27.06.26.26V11.4C183.36,11.69,183.24,11.75,183,11.7Z"/><path class="cls-13" d="M176.1,9.6h-6.7c-.3,0-.42.06-.4.38a10.55,10.55,0,0,1,0,1.26c0,.29,0,.46.38.4a.19.19,0,0,1,.19.06c-.63,0-.63,0-.63-.62V9.82c0-.2,0-.29.27-.29h6.67C176,9.54,176,9.51,176.1,9.6Z"/><path class="cls-13" d="M178.28,28.29c-.09-.08-.06-.2-.06-.3V22.62a.52.52,0,0,1,.06-.3Z"/><path class="cls-3" d="M109.12,7.92a9.25,9.25,0,0,1,4.5,1.14,4.23,4.23,0,0,1,1.95,3.11,8.09,8.09,0,0,1-.18,3.57,4.48,4.48,0,0,1-3.26,3.13l-.24.06a.24.24,0,0,0-.23.29c0,.18.13.19.26.22a4.94,4.94,0,0,1,2.6,1.35,5.13,5.13,0,0,1,1.4,3,9.9,9.9,0,0,1-.13,3.79,5.34,5.34,0,0,1-4.52,4.13,21.3,21.3,0,0,1-4.13.05c-.08-.09-.19-.06-.3-.06h-3.71a8.38,8.38,0,0,0-1.61.06,16.71,16.71,0,0,0-2.35.31c-.33.05-.65.08-.87-.2a1,1,0,0,1-.08-1.07,1.88,1.88,0,0,1,.91-.89,3.78,3.78,0,0,1,1.72-.54c.85,0,1.25-.42,1.44-1.34.1-.1.06-.22.06-.33V20.77a.61.61,0,0,0-.06-.33,4.11,4.11,0,0,0-.76-.66c-.33-.26-.32-.43,0-.67a2.72,2.72,0,0,0,.74-.63c.1-.1.06-.22.06-.33V12.06a.61.61,0,0,0-.06-.33,4.3,4.3,0,0,0-.17-.6.76.76,0,0,0-.61-.49,3.8,3.8,0,0,1-2.25-1.11,2,2,0,0,1-.41-1.71c0-.23.24-.29.46-.3a3,3,0,0,1,1.09.2,11.5,11.5,0,0,0,3.78.36,6.18,6.18,0,0,0,1.4-.06l1.54-.08Zm-2.3,2.39c-.14.11-.08.26-.08.39v6.63c0,.92,0,.93.93.92a3.41,3.41,0,0,0,1.17-.06,2.53,2.53,0,0,0,2.24-2.06,8,8,0,0,0,0-3.74,2.46,2.46,0,0,0-2.19-2A20.4,20.4,0,0,0,106.82,10.31Zm2,10.25c-.09-.1-.22-.06-.33-.06h-1.33c-.44,0-.38.1-.38.4v7.4c0,.34-.15.77.06,1s.67.08,1,.07a2.9,2.9,0,0,0,1.1-.06,2.65,2.65,0,0,0,2.27-1.81,7.74,7.74,0,0,0,.33-1.71,4.1,4.1,0,0,0,0-1.62,2,2,0,0,0-.08-.69c-.28-1.7-.95-2.67-2.68-2.92Z"/><path class="cls-13" d="M102.31,20.43c.1.09.06.22.06.33q0,3.46,0,6.93a.61.61,0,0,1-.06.33Q102.32,24.22,102.31,20.43Z"/><path class="cls-13" d="M102.32,11.71c.1.1.06.22.06.33v6.09a.61.61,0,0,1-.06.33Z"/><path class="cls-13" d="M104.9,31.68h2a.52.52,0,0,1,.3.06h-2A.27.27,0,0,1,104.9,31.68Z"/><path class="cls-13" d="M109.12,7.92h-2A6,6,0,0,1,109.12,7.92Z"/><path class="cls-13" d="M101.51,31.74a8.38,8.38,0,0,1,1.61-.06A7.53,7.53,0,0,1,101.51,31.74Z"/><path class="cls-13" d="M105.61,8a6.18,6.18,0,0,1-1.4.06A5.62,5.62,0,0,1,105.61,8Z"/><path class="cls-3" d="M83.76,33.92a5.47,5.47,0,0,1-3.5-1.42,11.87,11.87,0,0,1-2.92-3.82,14.52,14.52,0,0,1-1.1-3.89c-.15-1-.24-2-.29-3,0-.7-.14-1.39-.13-2.09a1.1,1.1,0,0,0-.63-1c-.38-.25-.41-.47,0-.69a2,2,0,0,0,1-1.57,1.31,1.31,0,0,1,.06-.2,4.53,4.53,0,0,0,0-1.68,12.07,12.07,0,0,1,0-2.61,13.32,13.32,0,0,1,1-4,10.88,10.88,0,0,1,1.89-3.08,7.83,7.83,0,0,1,3.17-2.21,5.76,5.76,0,0,1,5.26.63,8.36,8.36,0,0,1,2.77,2.88q.48.78,1,1.53a6.15,6.15,0,0,1,.91,3.23c.08,1.6.13,3.2.22,4.79A3.38,3.38,0,0,0,93.4,18c.24.24.31.51.05.72a2,2,0,0,0-.66,1.6c0,1-.16,2.09-.26,3.14a14.31,14.31,0,0,1-2.29,7.29,7.61,7.61,0,0,1-4.64,3.1,3.33,3.33,0,0,1-.45,0Zm4-9a6.92,6.92,0,0,0,.06-1.47v-1a5.94,5.94,0,0,0,0-1.89q0-1.22-.08-2.45c0-.87-.05-1.75-.09-2.62-.07-1.73-.24-3.46-.18-5.2a5.38,5.38,0,0,0,0-1.82,2.28,2.28,0,0,0-.08-.73,3.65,3.65,0,0,0-2.88-3.29,2.39,2.39,0,0,0-2.43.71,1.15,1.15,0,0,0-.34.68c-.1,1-.2,1.93-.27,2.89-.1,1.47-.21,2.94-.24,4.41-.09.08-.06.2-.06.3V19.5a.52.52,0,0,0,.06.3c0,1.47.13,2.94.21,4.4s.22,2.77.31,4.15a2,2,0,0,0,.6,1.45,3.48,3.48,0,0,0,2.09.8,2.89,2.89,0,0,0,1.83-.34,2.79,2.79,0,0,0,1.15-1.93,21.55,21.55,0,0,0,.35-3.41Z"/><path class="cls-13" d="M76.17,14.6a4.53,4.53,0,0,1,0,1.68Z"/><path class="cls-13" d="M83.76,33.92H85A2.42,2.42,0,0,1,83.76,33.92Z"/><path class="cls-3" d="M18.82,26.05a6,6,0,0,1-1.67,4.15,5.84,5.84,0,0,1-3.42,1.53,21,21,0,0,1-3.78,0c-.08-.09-.19-.06-.29-.06H5.95a8.39,8.39,0,0,0-1.61.06A17.7,17.7,0,0,0,2,32.05a.85.85,0,0,1-.84-.2,1,1,0,0,1-.1-1,2.48,2.48,0,0,1,1.46-1.22A7.11,7.11,0,0,1,4,29.29,1.25,1.25,0,0,0,5.13,28c.13-1.94,0-3.88.06-5.82V20.94a.92.92,0,0,0-.43-.89l-.39-.3c-.31-.24-.34-.43,0-.61A1.56,1.56,0,0,0,5.2,17.5c-.06-1.66,0-3.32,0-5a7.72,7.72,0,0,0-.07-.94,1,1,0,0,0-.9-1,4,4,0,0,1-2-.94,1.94,1.94,0,0,1-.56-1.76.43.43,0,0,1,.46-.39h0a4.58,4.58,0,0,1,1.37.28A11.88,11.88,0,0,0,7,8,6.94,6.94,0,0,0,8.48,8c.49,0,1-.11,1.48-.08h2a10.48,10.48,0,0,1,3.88.79,4.1,4.1,0,0,1,2.37,2.75,8,8,0,0,1,.13,3.74,4.55,4.55,0,0,1-3.56,3.76c-.17,0-.32.06-.31.29s.18.2.32.23a4.81,4.81,0,0,1,3.87,3.91,4.5,4.5,0,0,1,.16,1.21Zm-4.49-2.11c-.07-.4-.12-.8-.22-1.2a2.6,2.6,0,0,0-1.6-1.94,8.71,8.71,0,0,0-.87-.24c-.09-.1-.22-.06-.33-.06H9.94c-.46,0-.42.07-.42.4v7.4c0,.34-.15.77.06,1s.67.08,1,.07a2.9,2.9,0,0,0,1.1-.06A2.66,2.66,0,0,0,14,27.5a7.6,7.6,0,0,0,.32-1.57c.12-.14.07-.31.06-.47a6.42,6.42,0,0,0,0-1.52Zm-4.72-9.7v3.55c0,.34.06.48.44.46a12.47,12.47,0,0,0,1.61-.07,2.38,2.38,0,0,0,2.12-1.63,7.64,7.64,0,0,0,.16-4,2.5,2.5,0,0,0-2.3-2.15c-.55-.07-1.1,0-1.64-.05-.29,0-.38.06-.38.36,0,1.15,0,2.34,0,3.54Z"/><path class="cls-13" d="M7.71,31.67h2a.48.48,0,0,1,.29.06h-2C7.85,31.74,7.77,31.75,7.71,31.67Z"/><path class="cls-13" d="M11.92,7.92h-2A5.93,5.93,0,0,1,11.92,7.92Z"/><path class="cls-13" d="M4.34,31.74a8.39,8.39,0,0,1,1.61-.06A7.57,7.57,0,0,1,4.34,31.74Z"/><path class="cls-13" d="M18.82,26.05V24.58A3.4,3.4,0,0,1,18.82,26.05Z"/><path class="cls-13" d="M8.51,8A6.94,6.94,0,0,1,7,8.06,6.2,6.2,0,0,1,8.51,8Z"/><path class="cls-3" d="M185.88,3a15.89,15.89,0,0,1,1.32,2.41c0,.11.11.22,0,.36-.64.77-1.17,1.62-1.78,2.43.44-.84,0-1.49-.41-2.15a2.67,2.67,0,0,1-.5-.83c-.06-.32.32-.53.48-.81A10.32,10.32,0,0,1,185.88,3Z"/><path class="cls-3" d="M74.26,8.31a4.84,4.84,0,0,1-.6-.82A26.15,26.15,0,0,0,71.85,5a.47.47,0,0,1-.08-.53,12.73,12.73,0,0,1,1.29-2.4l.41-.7.64,1a10.89,10.89,0,0,0,1.11,1.57c.13.15,0,.26,0,.37l-.83,1.26a3.37,3.37,0,0,0-.5,1.3.9.9,0,0,0,.18.82A1,1,0,0,1,74.26,8.31Z"/><path class="cls-3" d="M94.29,1.37A19,19,0,0,1,96,4.51a.41.41,0,0,1-.06.45,31.81,31.81,0,0,0-2.14,3,2.26,2.26,0,0,1-.21.24.29.29,0,0,1,.06-.34,1.67,1.67,0,0,0,0-1.79,10.48,10.48,0,0,0-1-1.57.48.48,0,0,1,0-.68h0A15.69,15.69,0,0,0,94,1.75Z"/><path class="cls-12" d="M94,8.43c0,.06,0,.13-.06.14S93.94,8.43,94,8.43Z"/><path class="cls-2" d="M198.24,6.37a.12.12,0,0,0-.07.14c-.51.05-.51.05-.62-.47,0-.09,0-.15-.15-.14s-.11.08-.11.15,0,.22.11.25.08.08.07.14-.1.08-.16.08h-.69V6.38a.85.85,0,0,0,0-1.08c-.08-.14,0-.18.15-.18h.91c.3,0,.47.19.34.4s0,.48,0,.76c.06-.09,0-.23.15-.18S198.25,6.28,198.24,6.37Zm-.62-.83c0-.11,0-.18-.14-.19s-.17,0-.17.11,0,.2.11.2S197.6,5.67,197.62,5.54Z"/><path class="cls-8" d="M163.56,48.43h-1.12c-.15,0-.2,0-.2-.2V46.86c0-.13,0-.19.18-.18a20.82,20.82,0,0,1,2.45.06.86.86,0,0,1,.82.65.78.78,0,0,1-.52,1l-.15,0A6.55,6.55,0,0,1,163.56,48.43Z"/><path class="cls-8" d="M124.36,48.78V47c0-.14,0-.24.2-.24.77,0,1.54,0,2.31.06a1.53,1.53,0,0,1,1.45,1.45,4.41,4.41,0,0,1,0,1.19,1.52,1.52,0,0,1-1.44,1.43c-.77.1-1.54,0-2.31.06-.22,0-.21-.12-.21-.27Z"/><path class="cls-8" d="M81,48.81V47c0-.22,0-.31.28-.3.74,0,1.47,0,2.21.06A1.5,1.5,0,0,1,85,48.17a3.87,3.87,0,0,1,0,1.39,1.45,1.45,0,0,1-1.28,1.26,17.61,17.61,0,0,1-2.49.08c-.22,0-.17-.15-.17-.27C81,50,81,49.43,81,48.81Z"/><path class="cls-8" d="M42.76,48.79V47c0-.14,0-.25.2-.24.77,0,1.54,0,2.31.06a1.52,1.52,0,0,1,1.45,1.45,4.23,4.23,0,0,1,0,1.19,1.49,1.49,0,0,1-1.36,1.42,18.67,18.67,0,0,1-2.42.07c-.21,0-.18-.14-.18-.26Z"/><path class="cls-8" d="M117.23,46.73a3.07,3.07,0,0,1,1.68.53,1.85,1.85,0,0,1,.1,3,2.9,2.9,0,0,1-3.65-.09,1.84,1.84,0,0,1,.11-2.85A3,3,0,0,1,117.23,46.73Z"/><path class="cls-8" d="M110.51,48.83a1.7,1.7,0,0,1-.56,1.31,2.87,2.87,0,0,1-3.88,0,1.81,1.81,0,0,1-.05-2.56l.05-.05a2.87,2.87,0,0,1,3.93,0A1.7,1.7,0,0,1,110.51,48.83Z"/><path class="cls-8" d="M152.51,48.8a1.78,1.78,0,0,1,.57-1.31,2.89,2.89,0,0,1,3.89,0,1.83,1.83,0,0,1,0,2.59l-.16.14a2.89,2.89,0,0,1-3.71,0A1.77,1.77,0,0,1,152.51,48.8Z"/><path class="cls-8" d="M38.15,48.85a1.86,1.86,0,0,1-1,1.61,2.9,2.9,0,0,1-3.26-.13A1.85,1.85,0,0,1,34,47.26a2.88,2.88,0,0,1,3.61.27A1.73,1.73,0,0,1,38.15,48.85Z"/><path class="cls-8" d="M28.95,48.94a1.75,1.75,0,0,1-.67,1.29,2.9,2.9,0,0,1-3.6.05,1.84,1.84,0,0,1,0-2.92,2.85,2.85,0,0,1,4,.38A1.76,1.76,0,0,1,28.95,48.94Z"/><path class="cls-8" d="M67.23,48.8a1.88,1.88,0,0,1-.71,1.46,2.91,2.91,0,0,1-3.52.07,1.84,1.84,0,0,1-.14-2.91,2.84,2.84,0,0,1,4,.3A1.84,1.84,0,0,1,67.23,48.8Z"/><path class="cls-8" d="M73.95,46.73a2.85,2.85,0,0,1,1.86.73,1.83,1.83,0,0,1-.16,2.87,2.92,2.92,0,0,1-3.35.08,1.86,1.86,0,0,1,0-3.19A3.14,3.14,0,0,1,73.95,46.73Z"/><path class="cls-1" d="M193.43,50s0-.09.08-.05,0,.08,0,.11Z"/><path class="cls-8" d="M146.66,48.3h-1.22c-.18,0-.28,0-.27-.24s0-.68,0-1c0-.17,0-.25.23-.25h2.38c.57,0,.83.25.84.72a.63.63,0,0,1-.53.72h0A9.07,9.07,0,0,1,146.66,48.3Z"/><path class="cls-1" d="M184,46.33a.62.62,0,0,1,.37.08c.12.08.23,0,.2.18s-.14.14-.25.13a.39.39,0,0,1-.39-.32Z"/><path class="cls-1" d="M184.63,46.06l-.37-.08c-.09,0-.2-.05-.17-.17a.19.19,0,0,1,.25-.13.38.38,0,0,1,.35.32Z"/><path class="cls-2" d="M126,11.7a3.64,3.64,0,0,1,1.67.45,2.6,2.6,0,0,1,1.2,1.81,7.38,7.38,0,0,1,0,3.09,2.7,2.7,0,0,1-2.66,2.26h-1.69c-.2,0-.29,0-.29-.27V12c0-.22.08-.28.29-.28C125,11.72,125.51,11.71,126,11.7Zm-.56,4.18V18c0,.87,0,.87.87.74a2.17,2.17,0,0,0,2.08-2.05,6.1,6.1,0,0,0,.09-.8,5.34,5.34,0,0,0-.36-2.51.58.58,0,0,0-.46-.37,12.72,12.72,0,0,0-2-.1c-.23,0-.27.07-.27.28.06.9.05,1.79.05,2.68Z"/><path class="cls-13" d="M126,11.7h-1.47c-.21,0-.29.06-.29.28V19c0,.23.09.27.29.27h1.68a5.27,5.27,0,0,1-1.42.06c-.62,0-.62,0-.62-.6V12c0-.29.08-.4.37-.37A7.77,7.77,0,0,1,126,11.7Z"/><path class="cls-9" d="M111.51,25.77a7.74,7.74,0,0,1-.33,1.71,2.65,2.65,0,0,1-2.27,1.81h-1.79c-.24,0-.32-.06-.32-.31v-8.1c0-.26.09-.31.32-.31h1.65c1.75.25,2.4,1.22,2.66,2.89a5.4,5.4,0,0,0,.08.69Zm-3.66-.35v3.16c0,.3.09.42.37.34s.49,0,.72-.07a2.28,2.28,0,0,0,1.39-.74,3.65,3.65,0,0,0,.69-1.95,9.33,9.33,0,0,0-.14-3.28A1,1,0,0,0,110,22a13,13,0,0,0-1.82-.1c-.28,0-.38,0-.37.35,0,1,0,2.08,0,3.14Z"/><path class="cls-9" d="M106.82,10.31a20.4,20.4,0,0,1,2.06.06,2.46,2.46,0,0,1,2.19,2,8,8,0,0,1,0,3.74,2.53,2.53,0,0,1-2.24,2.06h-1.72c-.24,0-.32-.06-.32-.31C106.82,15.35,106.82,12.83,106.82,10.31Zm1,4.42v2.35c0,.24-.11.54.06.71s.42,0,.63,0h.14a2,2,0,0,0,1.86-1.36,6.36,6.36,0,0,0,.29-1.55,7.4,7.4,0,0,0-.21-2.53.63.63,0,0,0-.52-.5,7.91,7.91,0,0,0-2-.14c-.23,0-.29.06-.29.29.09.91.08,1.82.08,2.73Z"/><path class="cls-13" d="M108.78,20.56h-1.65c-.23,0-.33.05-.32.31V29c0,.25.08.32.32.31h1.79a2.9,2.9,0,0,1-1.1.06c-.34,0-.79.16-1-.07s-.06-.65-.06-1v-7.4c0-.3.06-.42.38-.4s.89,0,1.33,0C108.56,20.5,108.68,20.43,108.78,20.56Z"/><path class="cls-13" d="M106.82,10.31v7.57c0,.25.09.31.32.31h1.72a3.41,3.41,0,0,1-1.17.06c-.93,0-.93,0-.93-.92V10.7C106.74,10.57,106.68,10.43,106.82,10.31Z"/><path class="cls-13" d="M111.51,25.77V24.15A4.1,4.1,0,0,1,111.51,25.77Z"/><path class="cls-2" d="M87.51,10.23c-.05,1.74.12,3.47.18,5.2,0,.87.06,1.75.09,2.62s.05,1.63.08,2.45v2.93a6.21,6.21,0,0,0-.06,1.47,21.55,21.55,0,0,1-.36,3.4,2.79,2.79,0,0,1-1.15,1.93,2.89,2.89,0,0,1-1.83.34,3.48,3.48,0,0,1-2.09-.8,2,2,0,0,1-.6-1.45c-.09-1.38-.23-2.77-.31-4.15s-.17-2.93-.21-4.4q0-3.34,0-6.67c0-1.47.13-2.94.24-4.41.07-1,.17-1.93.27-2.89a1.15,1.15,0,0,1,.34-.68,2.39,2.39,0,0,1,2.41-.69,3.65,3.65,0,0,1,2.91,3.25,6,6,0,0,0,.08.73Q87.51,9.32,87.51,10.23ZM82.79,29.56a2.57,2.57,0,0,0,1.67.61A2.06,2.06,0,0,0,87,28.32a13.39,13.39,0,0,0,.27-2,89.56,89.56,0,0,0,0-10.87c-.07-1.74-.24-3.48-.18-5.22a10,10,0,0,0-.15-2.9,2.33,2.33,0,0,0-.56-1.18.32.32,0,0,0-.09-.22A3,3,0,0,0,84.46,4.8a2,2,0,0,0-1.82.36,1.07,1.07,0,0,0-.47.75c-.11,1.16-.26,2.31-.34,3.47-.1,1.5-.2,3-.21,4.51,0,1.94-.06,3.88,0,5.82.06,1.11.09,2.21.14,3.32.06,1.48.19,3,.31,4.43a5.2,5.2,0,0,0,.19,1.45c.11.29.19.57.51.65Z"/><path class="cls-13" d="M81.22,13.12v6.67c-.09-.08-.06-.2-.06-.3V13.41C81.16,13.32,81.12,13.21,81.22,13.12Z"/><path class="cls-13" d="M87.84,22.43q0-.94,0-1.89A5.94,5.94,0,0,1,87.84,22.43Z"/><path class="cls-13" d="M87.51,10.23V8.41A5.38,5.38,0,0,1,87.51,10.23Z"/><path class="cls-13" d="M87.77,24.92a6.21,6.21,0,0,1,.06-1.47A6.92,6.92,0,0,1,87.77,24.92Z"/><path class="cls-9" d="M11.64,20.56a8.71,8.71,0,0,1,.87.24,2.6,2.6,0,0,1,1.58,1.95c.1.39.15.8.22,1.2v2A7.6,7.6,0,0,1,14,27.52a2.66,2.66,0,0,1-2.29,1.81H9.89c-.21,0-.29-.06-.28-.28V20.88c0-.22.07-.28.28-.28Zm-1,4.86v3.23c0,.21,0,.29.27.27s.45-.07.69-.07a2.16,2.16,0,0,0,1.91-1.37A8.56,8.56,0,0,0,13.7,23a1.05,1.05,0,0,0-1-.94,17.19,17.19,0,0,0-1.78-.08c-.24,0-.28.08-.28.29,0,1.07,0,2.13,0,3.2Z"/><path class="cls-2" d="M9.61,14.25V10.67c0-.3.09-.38.38-.36.55,0,1.09,0,1.64.05a2.5,2.5,0,0,1,2.3,2.15,7.64,7.64,0,0,1-.16,4,2.38,2.38,0,0,1-2.12,1.63c-.53.08-1.07,0-1.61.07-.38,0-.44-.12-.44-.46C9.62,16.61,9.61,15.43,9.61,14.25Zm1.07,3.58.8-.06a2,2,0,0,0,2-1.7,7.46,7.46,0,0,0,0-3.5c0-.23-.07-.49-.31-.63,0-.42-.33-.63-.64-.82a4,4,0,0,0-2.14-.39c-.31,0-.4.07-.39.39v6.07c0,.64,0,.64.68.63Z"/><path class="cls-13" d="M11.64,20.56H9.89c-.21,0-.28.06-.28.28V29c0,.22.08.28.28.28h1.82a2.9,2.9,0,0,1-1.1.06c-.34,0-.79.16-1-.07s-.06-.65-.06-1v-7.4c0-.33.1-.42.42-.4s.91,0,1.37,0C11.43,20.5,11.51,20.43,11.64,20.56Z"/><path class="cls-13" d="M14.32,25.91v-2a6.42,6.42,0,0,1,.06,1.5C14.39,25.6,14.44,25.77,14.32,25.91Z"/><path class="cls-7" d="M86.35,6.18a4.43,4.43,0,0,0-1.64-.45,2.13,2.13,0,0,0-1.65.7,1.6,1.6,0,0,0-.34,1.15q-.38,3.51-.47,7a118.66,118.66,0,0,0,.44,13.7c0,.42.06.84.08,1.26-.32-.08-.4-.36-.5-.63a5.2,5.2,0,0,1-.19-1.45C82,26,81.84,24.51,81.77,23c0-1.11-.08-2.22-.14-3.32-.1-1.94-.06-3.88,0-5.82,0-1.5.11-3,.21-4.51.08-1.16.22-2.31.34-3.47a1.07,1.07,0,0,1,.47-.75,2,2,0,0,1,1.82-.36,3,3,0,0,1,1.84,1.13A.32.32,0,0,1,86.35,6.18Z"/><path class="cls-7" d="M13.19,11.93a6.88,6.88,0,0,0-2.32-.22c-.13,0-.21,0-.21.18v5.93c-.65,0-.65,0-.65-.64V11.11c0-.32.09-.39.39-.39a4,4,0,0,1,2.14.39C12.86,11.3,13.17,11.51,13.19,11.93Z"/><path class="cls-15" d="M146.1,24.09h-3.87l1.88-8.89m.28,3.16c-.28,1.32-.56,2.65-.84,4,0,.18.06.17.17.17h1.16c.23,0,.24-.08.2-.27-.07-.37-.12-.74-.18-1.11l-.45-2.78Z"/></svg>