<svg id="Layer_1" data-name="Layer 1" xmlns="http://www.w3.org/2000/svg" viewBox="0 0 180.99 30.79"><defs><style>.cls-1{fill:#ed1b34;}</style></defs><title>Bi-Mart</title><path class="cls-1" d="M83,11.55l-1.4,3.13L74.84,29.84a.56.56,0,0,1-.6.4H67.62c-.32,0-.41-.07-.42-.41-.14-3.83-.3-7.66-.45-11.49l-.26-6.22a1.44,1.44,0,0,0-.15-.63l-.81,4.08L62.71,29.78c-.07.35-.18.46-.55.46H55.62c-.36,0-.41-.1-.35-.42l3-15Q59.65,7.89,61,.95c.06-.31.19-.39.49-.39h9.85c.32,0,.43.1.44.41q.17,3.52.36,7,.24,4.44.49,8.87l.2,3.61v.3c.2-.1.21-.27.27-.41Q77.44,10.67,81.76,1A.68.68,0,0,1,82.5.51h9.64c.38,0,.49.05.4.48q-1.85,9.17-3.66,18.35l-2,10.37c-.07.38-.2.51-.61.5h-6.5c-.36,0-.41-.11-.35-.42q1.72-8.6,3.43-17.19c.07-.35.13-.71.2-1.06Z"/><path class="cls-1" d="M.5,30.23c.3-1.53.59-3,.89-4.51L4.59,9.64,6.33.89c0-.28.18-.35.44-.35H22.34a13.34,13.34,0,0,1,4.33.67,6.19,6.19,0,0,1,4.2,7.58,7.77,7.77,0,0,1-3.74,5.32c-.25.14-.23.22,0,.38a5.74,5.74,0,0,1,2.43,5.64c-.36,4.94-5,9-9.34,9.68a32.13,32.13,0,0,1-5,.41H1ZM14.91,17.76h-4c-.24,0-.37.05-.42.31q-.55,2.82-1.12,5.63c0,.27,0,.37.3.36,2.61,0,5.23.08,7.84-.07a4.22,4.22,0,0,0,4.2-3.64,1.78,1.78,0,0,0-1-2.12,4.5,4.5,0,0,0-2-.45Zm.67-6.09h3.27a6.52,6.52,0,0,0,2.59-.51,2.91,2.91,0,0,0,1.77-2.07A1.5,1.5,0,0,0,22,7a5.84,5.84,0,0,0-1.63-.24H13.09c-.27,0-.38.08-.43.35-.26,1.38-.52,2.76-.81,4.14-.08.35,0,.43.34.43C13.33,11.66,14.5,11.67,15.58,11.67Z"/><path class="cls-1" d="M146.36,16.09a3.82,3.82,0,0,1,1.92,3.16,11.42,11.42,0,0,1-.12,2.65,25.09,25.09,0,0,0-.57,4.75,8.5,8.5,0,0,0,.64,3.27.44.44,0,0,1,.06.32H140c-.3,0-.42-.05-.47-.38a15.7,15.7,0,0,1,.17-4.72c.19-1.2.5-2.39.61-3.6a4.62,4.62,0,0,0,0-.87,1.35,1.35,0,0,0-1-1.22,7.31,7.31,0,0,0-2.32-.3h-6.19c-.31,0-.42.11-.48.4-.66,3.4-1.35,6.8-2,10.2-.07.37-.18.52-.6.51H121c-.33,0-.48,0-.39-.43q1.86-9.19,3.67-18.39l2-10.38c.07-.38.22-.5.62-.5H142.7a11.2,11.2,0,0,1,5.56,1.21,6.27,6.27,0,0,1,3.4,5.57,9,9,0,0,1-4.74,8.44ZM137.5,6.77h-3.92c-.29,0-.4.09-.45.37Q132.6,9.88,132,12.6c-.07.34,0,.48.38.48h6.49a10.17,10.17,0,0,0,1.78-.15,3.66,3.66,0,0,0,3-2.26A5.73,5.73,0,0,0,144,9.24a1.94,1.94,0,0,0-1.16-2.09A4.39,4.39,0,0,0,141,6.81Z"/><path class="cls-1" d="M119.3,30.23h-8c-.34,0-.45-.11-.49-.43-.23-1.7-.47-3.39-.71-5.09,0-.25-.12-.34-.39-.34H99.77a.51.51,0,0,0-.49.33l-3,5.19c-.11.2-.2.35-.48.34h-8a.68.68,0,0,1,.14-.36l17.13-29a.56.56,0,0,1,.55-.32h7.63c.36,0,.46.14.52.46q.92,4.94,1.86,9.88l2.32,12.27q.65,3.44,1.29,6.89C119.28,30.09,119.3,30.15,119.3,30.23ZM107.75,9.55c-.11.17-.16.22-.19.28l-4.42,8c-.17.31-.11.39.23.38h5.23c.4,0,.41-.15.36-.47-.23-1.52-.45-3-.67-4.56-.18-1.2-.36-2.36-.55-3.63Z"/><path class="cls-1" d="M167.19.56h12.86c.42,0,.48.13.41.5-.37,1.79-.74,3.58-1.07,5.38-.08.41-.25.46-.6.46h-8.42c-.4,0-.55.11-.62.5q-2.22,11.25-4.45,22.49c-.06.29-.16.4-.48.4h-7.06c-.31,0-.38,0-.32-.39q2.07-10.32,4.11-20.65c.12-.63.23-1.26.37-1.88.08-.36,0-.47-.38-.46h-8.42c-.54,0-.55,0-.45-.52.35-1.79.71-3.58,1.06-5.38.06-.33.2-.43.55-.43Q160.75.55,167.19.56Z"/><path class="cls-1" d="M33.23,30.23H29.74c-.32,0-.43-.05-.36-.41l4-20.27Q34.23,5.29,35.06,1c.07-.36.2-.49.59-.49h6.89c.36,0,.47.05.39.46q-2.35,11.75-4.67,23.51c-.35,1.76-.71,3.52-1,5.29-.06.32-.18.44-.53.43Z"/><path class="cls-1" d="M50,12.06h3.57c.3,0,.38.1.32.39-.49,2.43-1,4.86-1.46,7.3-.05.27-.18.32-.41.32H44.88c-.29,0-.34-.09-.28-.35q.74-3.66,1.46-7.33c.05-.27.18-.31.41-.31Z"/></svg>