<svg id="Layer_1" data-name="Layer 1" xmlns="http://www.w3.org/2000/svg" viewBox="0 0 155.54 111.03"><defs><style>.cls-1{fill:#ff7f00;}</style></defs><title>Big Lots</title><path d="M.51,1.36H24c1.23,0,2.46,0,3.68.07a33.33,33.33,0,0,1,10,1.94,13.9,13.9,0,0,1,2.66,1.26,12.8,12.8,0,0,1,4.4,4.3,8.56,8.56,0,0,1,1.17,2.59c.09.51.36,1,.44,1.51a18.14,18.14,0,0,1,.43,3v2.26a4.54,4.54,0,0,1-.08,1,14.09,14.09,0,0,1-1.92,5.12,9.75,9.75,0,0,1-5,4.06,1.63,1.63,0,0,0-.43.19c-.14.11,0,.49.17.58,1.07.51,2.19.91,3.21,1.5a9.78,9.78,0,0,1,3.07,2.44,15.34,15.34,0,0,1,2,2.57,12.6,12.6,0,0,1,.83,2.11c.13.49.33,1,.45,1.47a14.48,14.48,0,0,1,.33,4.2,16.38,16.38,0,0,1-.65,3.76,12,12,0,0,1-2.13,4.1A16.24,16.24,0,0,1,42,55.24a21.72,21.72,0,0,1-5.73,2.15,31,31,0,0,1-4.22.7,43,43,0,0,1-4.62.12H.5ZM19.67,40V44.3c0,.33.1.41.41.4,1.28,0,2.57,0,3.86-.06A11.14,11.14,0,0,0,27.73,44a4,4,0,0,0,2.1-1.86A4.46,4.46,0,0,0,30.21,39a3.68,3.68,0,0,0-1.73-2.59,8.82,8.82,0,0,0-3.78-1.08c-1.55-.13-3.11-.12-4.67-.1-.28,0-.36.09-.36.37C19.68,37.06,19.67,38.5,19.67,40Zm0-20.79v3.65c0,.3.06.43.39.42h3.18a5.68,5.68,0,0,0,3.39-1.07,2.63,2.63,0,0,0,.84-.9,4.91,4.91,0,0,0,.45-2.1c0-.34-.1-.69-.08-1a2.17,2.17,0,0,0-.86-1.9,4.66,4.66,0,0,0-2.8-1c-1.38-.07-2.77-.14-4.15-.11-.31,0-.37.12-.37.4,0,1.17,0,2.39,0,3.6Z"/><path d="M109.75.5c.11.13.27.08.4.08a27.62,27.62,0,0,1,5,.51,35.51,35.51,0,0,1,8.34,2.41,34.06,34.06,0,0,1,7.09,4.09,26.63,26.63,0,0,1,3.3,3,14.67,14.67,0,0,1,2,2.73c.29.52.6,1,.86,1.57.1.2.06.29-.15.37-1.84.67-3.66,1.37-5.51,2-2.43.84-4.84,1.74-7.25,2.62l-6,2.2a.36.36,0,0,1-.49-.13l0-.05a8.55,8.55,0,0,0-3.73-3.26A8.4,8.4,0,0,0,111,18a5.81,5.81,0,0,1-1.1-.14,4.17,4.17,0,0,0-1.15.07A10.4,10.4,0,0,0,104.6,19,11,11,0,0,0,101,22a13.71,13.71,0,0,0-2.63,6.2,15.68,15.68,0,0,0-.24,3,13.34,13.34,0,0,0,2.46,7.71,9.67,9.67,0,0,0,6.5,4.08,11.4,11.4,0,0,0,5.26-.42,8.84,8.84,0,0,0,3-1.64,6,6,0,0,0,1.69-2.53c.13-.33-.12-.27-.29-.27h-8.6c-.28,0-.4,0-.4-.37V25.16c0-.32.12-.37.4-.37h30.89c.64,0,.54-.06.56.54,0,1.44-.09,2.89-.07,4.33,0,.21,0,.33-.3.26-1.52-.32-3.05-.61-4.58-1h1.07v-.07l-2.58-.45c-1.73-.28-3.47-.55-5.2-.85-.23,0-.3,0-.4.21-.94,2-1.66,4.14-2.43,6.23a103.88,103.88,0,0,0-3,10.11c-.55,2.18-1,4.38-1.46,6.58s-.77,4.23-1.13,6.35a.6.6,0,0,1-.47.56,38.33,38.33,0,0,1-4.55,1.06c-1.08.17-2.17.28-3.26.35a25.68,25.68,0,0,1-2.85.15,47.17,47.17,0,0,1-5.68-.49A39,39,0,0,1,96.2,57a26.82,26.82,0,0,1-3.83-1.67A35.27,35.27,0,0,1,87.2,52a25.81,25.81,0,0,1-3.48-3.58,24.82,24.82,0,0,1-2.36-3.28,28.67,28.67,0,0,1-2.44-5.34,31,31,0,0,1-1.21-5.29,27.52,27.52,0,0,1-.24-5.59c.07-1.67.3-3.33.5-5a18,18,0,0,1,.58-2.47,28.68,28.68,0,0,1,1.67-4.6c.47-1,1.08-1.94,1.63-2.9a24,24,0,0,1,4.9-5.7A27.66,27.66,0,0,1,91.2,5a29.42,29.42,0,0,1,6.52-2.86A31.5,31.5,0,0,1,104.11.79c.81-.07,1.61-.2,2.42-.21a.17.17,0,0,0,.14-.07Z"/><path d="M.51,63.84H6.75c.7,0,.63-.1.63.6v36.69c0,.69-.07.59.59.59H18.58c.38,0,.47.09.47.47v5.67c0,.31-.07.41-.4.41H.51Z"/><path class="cls-1" d="M132.08,110.5a4.93,4.93,0,0,0-1.56-.35l-5.86-.95c-1.28-.21-2.56-.42-3.84-.61-.23,0-.32-.08-.33-.32-.06-1.45-.4-2.88-.46-4.32,0-1-.09-1.93-.15-2.89s-.11-2.1-.18-3.15,0-1.86-.06-2.79c0-.27.18-.25.35-.22l4.3.7,6,.92,3.67.6c.21,0,.21.12.18.29-.34,2.21-.68,4.42-1,6.64-.14,1-.16,2-.3,2.93s-.08,2-.3,3a2.23,2.23,0,0,0,0,.55Z"/><path class="cls-1" d="M129.45,90.38l.31-.08v-.08c-1.71-.25-3.42-.44-5.13-.65s-3.14-.41-4.71-.58c-.19,0-.25-.1-.24-.27.07-1.34,0-2.68.1-4,.07-.84,0-1.69.09-2.53.14-1.49.14-3,.29-4.48.06-.64.11-1.28.12-1.92,0-.9.25-1.79.24-2.68,0-1.12.21-2.21.27-3.31.11-2.05.44-4.08.73-6.11s.5-3.78.82-5.67c.26-1.53.58-3,.81-4.58s.62-2.85.88-4.28c.41-2.29,1-4.53,1.56-6.78.12-.5.34-1,.43-1.48a32.76,32.76,0,0,1,.93-3.2,37.13,37.13,0,0,1,1.22-3.61c.4-1,.72-1.95,1.08-2.92.09-.25.2-.36.51-.3,2.28.47,4.55.93,6.83,1.38,1.75.35,3.51.65,5.24,1.05,3.72.87,7.49,1.51,11.23,2.3.56.12,1.11.25,1.67.34.37.06.36.21.2.48-.58,1-1.17,2-1.73,3-1.21,2.14-2.33,4.32-3.39,6.53a21.16,21.16,0,0,0-1.11,2.22c-.36,1-1,2-1.26,3a5.63,5.63,0,0,1-.5,1.09c-.45.91-.81,1.86-1.19,2.79q-1.07,2.66-2.06,5.34c-.68,1.83-1.3,3.68-1.92,5.53-.51,1.5-1,3-1.44,4.52-1,3.28-1.81,6.6-2.75,9.89-.28,1-.52,2-.7,3-.29,1.55-.78,3.06-1,4.62-.15,1-.4,2-.57,3-.06.37-.23.43-.59.37-1.73-.28-3.46-.52-5.2-.78Z"/><path d="M73.89,29.8q0,13.94,0,27.88c0,.43-.1.55-.54.54H53.76c-.44,0-.54-.11-.54-.54V2c0-.58,0-.58.57-.58h19.5c.69,0,.57,0,.57.58Q73.89,15.88,73.89,29.8Z"/><path d="M39.09,108.94a19.59,19.59,0,0,1-6.36-.8,24.75,24.75,0,0,1-3.62-1.37,23,23,0,0,1-5-3.22,18.16,18.16,0,0,1-2.18-2,23.22,23.22,0,0,1-3.18-4.46,21.63,21.63,0,0,1-1.77-4,20.36,20.36,0,0,1-1-4.82,22.27,22.27,0,0,1,0-4.21,25.84,25.84,0,0,1,.52-3.26,24.14,24.14,0,0,1,1.19-3.3A22.09,22.09,0,0,1,19.48,74a16.37,16.37,0,0,1,2-2.66,10.16,10.16,0,0,0,.82-1A12.65,12.65,0,0,1,24,68.84c.59-.47,1.12-1,1.73-1.44a17.05,17.05,0,0,1,3.54-2A35.92,35.92,0,0,1,33.43,64a21.94,21.94,0,0,1,7.5-.63,24,24,0,0,1,9.63,2.94,17.16,17.16,0,0,1,2.87,2,28.48,28.48,0,0,1,4.29,4.4,21.87,21.87,0,0,1,2.54,4.24,23.2,23.2,0,0,1,1.48,4.49,13.28,13.28,0,0,1,.35,2.88c0,.68.2,1.35.15,2-.1,1.26-.11,2.53-.33,3.79a21.65,21.65,0,0,1-1.93,6,21.92,21.92,0,0,1-2.73,4.3,23.42,23.42,0,0,1-2.78,2.88,29.12,29.12,0,0,1-4.18,2.94,25.85,25.85,0,0,1-3.81,1.61,22.19,22.19,0,0,1-5.08,1.11C40.66,109,39.87,108.89,39.09,108.94ZM39,102.39a13.9,13.9,0,0,0,6.13-1.12,13.25,13.25,0,0,0,3.92-2.36,23,23,0,0,0,2.28-2.21A22,22,0,0,0,53,94.41,15.17,15.17,0,0,0,55.24,88a15.33,15.33,0,0,0,0-4.44,18.29,18.29,0,0,0-1.47-4.6,17,17,0,0,0-2.88-4.17,15.94,15.94,0,0,0-2.52-2.16,15,15,0,0,0-3.6-1.83,16.45,16.45,0,0,0-11.22,0,14.62,14.62,0,0,0-4.08,2.18,16,16,0,0,0-3.23,3.25,13.28,13.28,0,0,0-2.13,3.72,20.46,20.46,0,0,0-.95,3.22c-.07.41,0,.81-.09,1.22a9.49,9.49,0,0,0-.25,2,16,16,0,0,0,.3,2.55,16.8,16.8,0,0,0,1.29,4.16c.25.53.63,1,.89,1.5a15.16,15.16,0,0,0,2.09,2.86,12.37,12.37,0,0,0,1.45,1.33,14.48,14.48,0,0,0,4.44,2.67,13,13,0,0,0,5.74,1Z"/><path d="M101.53,109a15.61,15.61,0,0,1-4.92-.72,13.71,13.71,0,0,1-4.28-2.34,14.51,14.51,0,0,1-4.51-6.45A19.58,19.58,0,0,1,87,96.53c0-.22,0-.37.26-.45l6.11-1.69c.21-.06.34,0,.37.24a10,10,0,0,0,.84,3.23,8.79,8.79,0,0,0,1.31,2.08,7.25,7.25,0,0,0,3.62,2.27,7.51,7.51,0,0,0,2.46.18,7.6,7.6,0,0,0,2.93-.81,6.52,6.52,0,0,0,1.61-1.15,8.69,8.69,0,0,0,1.54-1.92,6.92,6.92,0,0,0,.77-2.41A6.29,6.29,0,0,0,108.5,93,4.72,4.72,0,0,0,107,90.82,20.8,20.8,0,0,0,102,88c-1.18-.5-2.34-1-3.5-1.6a27,27,0,0,1-4.53-2.55,13.11,13.11,0,0,1-3.17-3.38,9.59,9.59,0,0,1-1.41-4.63,11.26,11.26,0,0,1,1-5.67,10.7,10.7,0,0,1,1.86-2.84,12.13,12.13,0,0,1,2.88-2.25,14.82,14.82,0,0,1,5.47-1.79,12.92,12.92,0,0,1,2.73-.06,14.57,14.57,0,0,1,3,.58,12.23,12.23,0,0,1,3.7,1.8,14.2,14.2,0,0,1,4.47,5.21c.13.25.13.39-.13.55-1.61,1-3.2,2-4.8,3.07-.45.29-.45.28-.74-.19a8.13,8.13,0,0,0-.72-1.1c-.21-.24-.14-.54-.35-.79a7.05,7.05,0,0,0-4.25-2.54,6.57,6.57,0,0,0-4.46.71,5.22,5.22,0,0,0-2.62,3.15,4.17,4.17,0,0,0,.24,3.18,5.73,5.73,0,0,0,1.57,1.78,24.24,24.24,0,0,0,5.06,2.64c1.75.8,3.55,1.49,5.25,2.42a19.81,19.81,0,0,1,4,2.93,10.15,10.15,0,0,1,3.09,6.18,14.55,14.55,0,0,1-.82,7.24,13.49,13.49,0,0,1-1.77,3.15,17.45,17.45,0,0,1-1.48,1.75,12,12,0,0,1-2.58,1.94,13.62,13.62,0,0,1-5.62,1.94A9.38,9.38,0,0,1,101.53,109Z"/><path d="M70,89.36V71c0-.41-.09-.52-.51-.52H60.19c-.33,0-.43-.08-.43-.43q0-2.88,0-5.76c0-.37.11-.45.46-.45H86.77c.39,0,.47.11.47.48V70c0,.42-.14.48-.51.48H77.41c-.42,0-.51.12-.51.52v36.69c0,.61,0,.61-.61.61H70.45c-.36,0-.45-.09-.45-.45Q70,98.59,70,89.36Z"/><path d="M141.57,108.37l.76-2.28c.06-.18.1-.33.36-.34s.43.05.42.39v2.49c0,.15,0,.32-.22.32s-.22-.17-.22-.32c0-.7,0-1.4-.06-2.12-.23.67-.45,1.35-.69,2-.06.17,0,.41-.34.42s-.31-.25-.37-.43a19.23,19.23,0,0,0-.77-2v2.08c0,.15.09.36-.21.37s-.23-.19-.23-.35v-2.49c0-.13-.09-.36.18-.35s.49-.12.58.25c.19.7.5,1.36.66,2.07C141.42,108.17,141.4,108.32,141.57,108.37Z"/><path d="M138,107.5q0-.26,0-.51c0-.81,0-.81-.78-.87-.13,0-.26,0-.26-.19s.16-.17.28-.17h2.06c.13,0,.27,0,.27.18s-.14.17-.27.18c-.83.05-.83.05-.83.91v1.63c0,.17,0,.3-.25.3s-.21-.14-.21-.29Q138,108.08,138,107.5Z"/></svg>