<svg id="Layer_1" data-name="Layer 1" xmlns="http://www.w3.org/2000/svg" xmlns:xlink="http://www.w3.org/1999/xlink" viewBox="0 0 200.96 59.19"><defs><style>.cls-1{fill:#0c1011;}.cls-2{fill:#0f1011;}.cls-3{fill:#b33427;}.cls-4{fill:#fdfdfd;}.cls-5{fill:#6b699c;}.cls-6{fill:#e0ad4d;}.cls-7{fill:#21100a;}.cls-8{fill:#ce8e57;}.cls-9{fill:#a24126;}.cls-10{fill:#eac17d;}.cls-11{fill:#c47f4a;}.cls-12{fill:#ddad6e;}.cls-13{fill:#b8693b;}.cls-14{fill:url(#linear-gradient);}</style><linearGradient id="linear-gradient" x1="100.57" y1="5.94" x2="100.57" y2="54.66" gradientTransform="matrix(1, 0, 0, -1, 0, 61.2)" gradientUnits="userSpaceOnUse"><stop offset="0" stop-color="#f5d68d"/><stop offset="1" stop-color="#9f412e"/></linearGradient></defs><title>BJ&amp;apos;s Restaurant &amp;amp; Brewery</title><path class="cls-1" d="M155,30.23a38.37,38.37,0,0,1,.93-4c0-.1.07-.12.16-.12h1.69c.17,0,.16.12.18.22l.85,3.71a.17.17,0,0,0,.09.18,36.41,36.41,0,0,1,.82-3.89c0-.17.1-.23.28-.22h2.22c.17,0,.2,0,.14.2q-1.17,3.3-2.33,6.61a.23.23,0,0,1-.27.18H158c-.19,0-.24-.06-.27-.23-.23-1.14-.47-2.27-.71-3.41,0,0,0-.1-.06-.13h0a25.62,25.62,0,0,1-.79,3.57c0,.13-.08.16-.21.16h-1.87a.21.21,0,0,1-.24-.16l-2.33-6.64c-.06-.18,0-.19.16-.19h2.25c.16,0,.19.06.22.2.26,1.24.52,2.49.79,3.73C154.94,30.11,154.92,30.18,155,30.23Z"/><path class="cls-1" d="M175.41,33.21a4.07,4.07,0,0,1-2.78-1,3.57,3.57,0,0,1,1.18-5.89,4,4,0,0,1,4.27.64,3.4,3.4,0,0,1,1.08,3.62,3.31,3.31,0,0,1-2.58,2.5A4.15,4.15,0,0,1,175.41,33.21Zm0-4.89a1.27,1.27,0,0,0-1.29,1.25s0,.07,0,.1A1.26,1.26,0,0,0,175.31,31h.09a1.28,1.28,0,0,0,1.31-1.25s0-.06,0-.09a1.3,1.3,0,0,0-1.24-1.34Z"/><path class="cls-1" d="M163.61,29.6V26.37c0-.19,0-.24.24-.24h2c.15,0,.2,0,.2.2v1.92c0,.2.06.24.24.23h1.09c.17,0,.23,0,.23-.22V26.37c0-.19.05-.24.24-.24h2c.16,0,.21,0,.21.21v6.57c0,.16,0,.22-.2.22h-2c-.16,0-.2,0-.2-.2v-2c0-.16,0-.22-.21-.21h-1.14c-.18,0-.21.06-.21.22v2c0,.15,0,.23-.2.22h-2c-.17,0-.21,0-.21-.21C163.62,31.8,163.61,30.69,163.61,29.6Z"/><path class="cls-1" d="M142.65,30.37a32.83,32.83,0,0,1,2,2.74H141.9a.33.33,0,0,1-.37-.22c-.28-.59-.58-1.18-.87-1.76a.52.52,0,0,0-.16-.2v1.83c0,.35,0,.35-.36.35h-1.9c-.18,0-.24,0-.24-.23V26.33c0-.12,0-.21.16-.21h3.44a2.64,2.64,0,0,1,1.78.75,2.55,2.55,0,0,1,.43,2.6,1.72,1.72,0,0,1-1.06.83Zm-2.18-1.77V29c0,.14,0,.19.19.18h.28a.54.54,0,0,0,.51-.7c-.05-.33-.35-.5-.84-.45-.3,0-.07.3-.14.44A.31.31,0,0,0,140.47,28.6Z"/><path class="cls-1" d="M135.31,29.49a3.24,3.24,0,0,1,.67.38,1.75,1.75,0,0,1-.29,2.85,3.38,3.38,0,0,1-1.68.39h-3.24c-.17,0-.22,0-.22-.22V26.34c0-.11,0-.23.16-.23h3.41a3,3,0,0,1,1.19.3,1.79,1.79,0,0,1,.72,2.43l-.05.09A1.34,1.34,0,0,1,135.31,29.49Zm-2.39,1.35v.45c0,.15,0,.12.08.12a2.15,2.15,0,0,0,.92-.1.46.46,0,0,0,.28-.41c0-.37-.19-.57-.67-.61S132.92,30.25,132.92,30.84Zm0-2.55c0,.58,0,.58.55.49a.45.45,0,0,0,.44-.46v0c0-.29-.13-.42-.45-.47C132.92,27.75,132.92,27.75,132.92,28.29Z"/><path class="cls-1" d="M180.77,28.45V26.33c0-.17.05-.21.21-.21h2.1c.18,0,.24,0,.24.24V30a2.85,2.85,0,0,0,0,.35.62.62,0,0,0,.81.62.55.55,0,0,0,.52-.55,5.12,5.12,0,0,0,0-.58V26.38c0-.2.05-.25.25-.25H187c.17,0,.21,0,.21.21v4a2.82,2.82,0,0,1-.79,2.11,2.72,2.72,0,0,1-1.38.69,5,5,0,0,1-2.25,0,2.57,2.57,0,0,1-2-2.66C180.76,29.76,180.77,29.1,180.77,28.45Z"/><path class="cls-1" d="M195.69,29.6V26.34c0-.19,0-.24.24-.24h4.22c.2,0,.25.05.25.25v1.44c0,.2-.06.23-.24.23h-1.69c-.17,0-.21,0-.21.21,0,.45,0,.45.44.45H200c.16,0,.22,0,.22.2v1.41c0,.16,0,.21-.21.21h-1.53c-.17,0-.23,0-.23.22,0,.45,0,.45.44.45h1.57c.17,0,.21.05.21.21V32.9c0,.15,0,.21-.19.2h-4.4c-.17,0-.19-.07-.19-.21C195.69,31.81,195.69,30.71,195.69,29.6Z"/><path class="cls-1" d="M145.61,29.6V26.34c0-.17,0-.23.22-.23h4.25c.17,0,.24,0,.23.22V27.8c0,.2-.06.24-.24.23H148.4c-.19,0-.25,0-.24.23,0,.43,0,.43.42.43h1.36c.14,0,.18,0,.18.18v1.47c0,.15,0,.18-.18.18h-1.57c-.15,0-.22,0-.22.2,0,.47,0,.47.46.47h1.57c.16,0,.2,0,.2.2v1.54c0,.16,0,.2-.2.2h-4.37c-.18,0-.2-.07-.2-.22C145.62,31.8,145.61,30.7,145.61,29.6Z"/><path class="cls-1" d="M189.38,30.6a5.14,5.14,0,0,0,.84.53,2.2,2.2,0,0,0,.8.2,1,1,0,0,0,.49-.09.34.34,0,0,0,.22-.34.31.31,0,0,0-.26-.3l-.79-.16-.32-.07a2,2,0,0,1-.91-3.37,3.23,3.23,0,0,1,2.63-1,4.09,4.09,0,0,1,1.83.5c.14.08.19.14.12.31-.19.46-.37.92-.53,1.39-.06.17-.11.22-.28.1a2.23,2.23,0,0,0-1.1-.4,1.61,1.61,0,0,0-.35,0,.34.34,0,0,0-.36.33c0,.21.16.26.32.3l1,.24a1.91,1.91,0,0,1,1.6,1.61,2.21,2.21,0,0,1-1,2.28,3.86,3.86,0,0,1-2.72.5,6.22,6.22,0,0,1-1.79-.51c-.1,0-.17-.07-.11-.22C188.9,31.83,189.14,31.22,189.38,30.6Z"/><path class="cls-1" d="M59.47,29.44a19.16,19.16,0,0,1,.16,3.39c0,.22,0,.28-.27.28H57.41c-.18,0-.22-.05-.22-.23V26.33c0-.16,0-.22.21-.22h2a.31.31,0,0,1,.31.19l2,3.44a.46.46,0,0,0,.17.18c0-.34-.11-.67-.14-1a26.62,26.62,0,0,1,0-2.68c0-.11,0-.12.14-.12H64c.14,0,.15.07.14.17v6.54c0,.2,0,.27-.26.27H62a.34.34,0,0,1-.34-.19c-.66-1.1-1.33-2.19-2-3.28C59.6,29.6,59.58,29.48,59.47,29.44Z"/><path class="cls-1" d="M7.06,33.1H4.26A.24.24,0,0,1,4,32.93l-.93-1.88A.35.35,0,0,0,3,30.89v1.93c0,.22,0,.28-.27.28h-2c-.16,0-.19,0-.19-.2V26.3c0-.16,0-.19.2-.19H3.78a3,3,0,0,1,1.93.62,2.48,2.48,0,0,1,.56,2.8,1.57,1.57,0,0,1-.79.67l-.34.14A31.37,31.37,0,0,1,7.06,33.1ZM2.95,28.6v.48c0,.16,0,.13.11.13a1.55,1.55,0,0,0,.62-.1.55.55,0,0,0,.24-.7A.69.69,0,0,0,3.07,28c-.26,0-.06.29-.12.44A.34.34,0,0,0,2.95,28.6Z"/><path class="cls-1" d="M46.33,30.35c.75.84,1.25,1.81,1.89,2.68-.05.1-.12.06-.17.07H45.52a.29.29,0,0,1-.31-.19c-.29-.61-.59-1.21-.89-1.81a.54.54,0,0,0-.16-.2v1.85c0,.35,0,.35-.34.35H41.9c-.17,0-.23,0-.23-.22V26.31c0-.15,0-.2.19-.2H45a3.54,3.54,0,0,1,1.12.19,2.26,2.26,0,0,1,1.55,2.6,1.54,1.54,0,0,1-1,1.33ZM44.16,28.6c.05.15-.12.43.08.53a.79.79,0,0,0,.61-.07.54.54,0,0,0,.28-.7.7.7,0,0,0-.86-.38c-.23.06-.05.3-.1.45A.64.64,0,0,0,44.16,28.6Z"/><path class="cls-1" d="M33.74,28.47v-2.1c0-.2,0-.27.25-.27h2c.19,0,.25,0,.25.24V30a2.89,2.89,0,0,0,0,.45.57.57,0,0,0,.59.55h.05a.59.59,0,0,0,.67-.5v0a2.87,2.87,0,0,0,0-.48V26.32c0-.17,0-.23.22-.23h2.12c.11,0,.22,0,.21.15v4.32a2.56,2.56,0,0,1-2.44,2.56,5.36,5.36,0,0,1-1.83-.06,2.6,2.6,0,0,1-2.15-2.75C33.73,29.72,33.74,29.1,33.74,28.47Z"/><path class="cls-1" d="M55,33.1H53.8c-.14,0-.2,0-.22-.17h0c-.07-.22,0-.53-.22-.65s-.44,0-.67,0h-1c-.13,0-.2,0-.22.17h0c-.06.22,0,.54-.2.65s-.44,0-.67,0H48.79c-.14,0-.19,0-.13-.17Q49.83,29.6,51,26.26a.18.18,0,0,1,.2-.14h2.53c.17,0,.18.11.22.21l1.92,5.39c.14.4.28.81.43,1.21.05.14,0,.18-.12.17Zm-2.5-4.65h-.08c-.14.66-.28,1.32-.43,2,0,.1,0,.12.1.12h.73c.1,0,.13,0,.1-.14C52.77,29.76,52.58,29.12,52.47,28.45Z"/><path class="cls-1" d="M33.19,33.1H30.68c-.13,0-.21,0-.23-.17h0c-.18-.66-.18-.66-.86-.66h-1c-.15,0-.23,0-.25.19s0,.52-.18.64-.45,0-.69,0H25.82c-.35,0-.35,0-.24-.32l1.72-5c.18-.51.36-1,.52-1.52a.23.23,0,0,1,.26-.19h2.39a.22.22,0,0,1,.26.17l2.38,6.7C34.3,36.29,33.17,33,33.19,33.1Zm-3.83-4.65h-.07c-.1.45-.2.9-.29,1.35,0,.24-.24.57-.1.71s.48,0,.73,0,.22,0,.16-.19-.08-.36-.13-.54C29.53,29.37,29.47,28.91,29.36,28.45Z"/><path class="cls-1" d="M7.95,29.6V26.34c0-.17,0-.22.22-.22h4.25c.19,0,.24.05.23.24v1.47c0,.17,0,.22-.21.21h-1.7c-.18,0-.25,0-.25.23,0,.43,0,.43.42.43h1.34c.17,0,.21,0,.21.21v1.44c0,.15,0,.18-.18.18H10.74c-.18,0-.25,0-.24.23,0,.44,0,.44.43.44h1.62c.13,0,.17,0,.17.16V33c0,.13,0,.17-.17.17H8.12c-.19,0-.18-.09-.18-.22Q7.95,31.24,7.95,29.6Z"/><path class="cls-1" d="M16.6,33.2a6.55,6.55,0,0,1-2.52-.55c-.17-.07-.17-.15-.11-.3q.32-.78.62-1.57c.06-.16.1-.21.26-.08a2.61,2.61,0,0,0,1.41.61,1,1,0,0,0,.52-.08.35.35,0,0,0,.24-.35.32.32,0,0,0-.29-.3l-.87-.17a1.93,1.93,0,0,1-1.69-1.46,2.25,2.25,0,0,1,.71-2.13A3.3,3.3,0,0,1,17.4,26a4.09,4.09,0,0,1,1.83.52c.12.07.14.13.09.25l-.57,1.48c0,.13-.09.14-.21.07a2.34,2.34,0,0,0-1.37-.44.69.69,0,0,0-.32.07.3.3,0,0,0-.18.28.26.26,0,0,0,.21.25l.86.21.46.13A2.06,2.06,0,0,1,19,32.26,3.27,3.27,0,0,1,16.6,33.2Z"/><path class="cls-1" d="M67.93,26.12h2.45c.17,0,.23,0,.23.22q0,.92,0,1.84c0,.19-.06.22-.23.21s-.61,0-.91,0-.27,0-.27.25v4.24c0,.22,0,.28-.27.28h-2c-.22,0-.26-.07-.25-.27V28.62c0-.21-.06-.25-.25-.23s-.66,0-1,.05c-.15,0-.18,0-.18-.18V26.39c0-.17,0-.23.22-.22Z"/><path class="cls-1" d="M24.35,30.73V32.9c0,.18-.07.2-.22.2H22c-.18,0-.2-.06-.2-.21V28.57c0-.2,0-.25-.25-.23s-.64,0-1,0c-.13,0-.19,0-.19-.17V26.25c0-.15,0-.18.19-.18h5c.14,0,.18,0,.18.18v1.92c0,.15,0,.18-.18.17h-1c-.36,0-.28.06-.27.27C24.36,29.31,24.35,30,24.35,30.73Z"/><path class="cls-2" d="M126.77,1.18c-.27.48-.56.95-.8,1.43-.38.77-.85,1.5-1.21,2.31h5.38L100.61,58.69,71,4.92h5.38L75,2.29c.14,0,.33-.08.4.14,0,0,0,.11.09.1s.08-.08.07-.14-.06-.3-.1-.46l.2-.1c.33.46.53,1,.83,1.47s.45.8.67,1.2l3.85,7L87.31,23a.22.22,0,0,0,.13.18A1.44,1.44,0,0,0,87.17,22a1.25,1.25,0,0,1-.1-.22c0-.14.12-.1.21-.11s0,.19.15.17,0-.12,0-.17.09,0,.09-.07v-.87c0-.43,0-.06-.09-.07v-.2c.17,0,.1-.18.1-.27V8.48c0-.09.07-.23-.1-.27v-.1c.12,0,.14-.11.06-.17s-.21-.09-.26.07h-.88c-.29,0-.21-.07-.21-.22V6.05c0-.13,0-.19.17-.2h7.84a6.78,6.78,0,0,1,2.38.37,5,5,0,0,1,3.15,3.21,6.84,6.84,0,0,1,.09,4.07A4.53,4.53,0,0,1,97.92,16a9.74,9.74,0,0,1-1.45.76,6,6,0,0,1,4.05,4,1.11,1.11,0,0,0,0-.27V5.93c0-.18-.05-.25-.25-.25H98.9c-.16,0-.22,0-.22-.21V3.73c0-.19.07-.22.24-.22h8.32c.14,0,.2,0,.22.19V5.14a.23.23,0,0,0,.18.25c.32.1.63.23.94.35L111.9,7c.15.06.2.11.11.27l-2,3.54-2.1,3.7-.64,1.12a.18.18,0,0,1-.08-.19V5.87c0-.16-.05-.21-.2-.2h-.88c-.34,0-.34,0-.34.34V29.45a9.37,9.37,0,0,1-.56,3.36,6.42,6.42,0,0,1-1.87,2.7,5.72,5.72,0,0,1-2.86,1.28,4.38,4.38,0,0,1-2.31-.18,3.68,3.68,0,0,1-2-4.64,2.24,2.24,0,0,1,3.72-.87,3.17,3.17,0,0,1,.61,1c.09-2.61.05-5.17,0-7.73a1.91,1.91,0,0,0-.12.33,5.53,5.53,0,0,1-1.79,2.71,7,7,0,0,1-4.07,1.43c-1.08.06-2.16,0-3.23,0-.15.12-.14.15.09.3h0a.35.35,0,0,1-.07.25.32.32,0,0,0-.23-.3h0c0-.08,0-.16-.09-.17-.12-.16-.29-.08-.49-.09l10.06,18.28.09-.15,3.47-6.3,5.09-9.27,1.35-2.46c.05-.09.14-.2-.06-.22,0-.12-.15,0-.17-.15s-.08-.18-.2-.11a.44.44,0,0,1-.2.08,3,3,0,0,1-.76-.31s-.07-.07-.1,0,0,.08,0,.12c-.2.06,0,.28-.15.38s-.12-.26-.19-.15-.24.07-.35.07a1.47,1.47,0,0,1-.7-.06c-.05.21-.1.25-.26.21s-.2-.1-.11-.27-.1,0-.15-.08V23c0-.17.06-.21.22-.21H109l-.07-.11-.1-.11a4.44,4.44,0,0,1-1.65-3.8,5.4,5.4,0,0,1,.74-2.74,3.2,3.2,0,0,1,2.75-1.6,3.81,3.81,0,0,1,1.59.31.29.29,0,0,0,.2.1h0c.39.36.4.36.58-.1a.9.9,0,0,0,0-.12.23.23,0,0,1,.26-.19h1.3c.15,0,.21,0,.2.2v4.83c0,.18-.06.23-.23.23h-1.69a1.23,1.23,0,0,1-.05-.4,4.16,4.16,0,0,0-.71-2.09,1.65,1.65,0,0,0-1.48-.75.85.85,0,0,0-.88.82s0,.05,0,.08a1.17,1.17,0,0,0,.49.92,21.08,21.08,0,0,0,2.63,1.42,9.8,9.8,0,0,1,1.37,1.11V21s0-.15.11-.14,0,.11.05.17a.74.74,0,0,0,.23.37l.16-.28L125,2.39a1.43,1.43,0,0,0,.25-.48c.19-.07.13-.3.25-.4s.06.12.14.06.12,0,.15,0a.12.12,0,0,1-.05.16h-.16c-.12,0-.14.09-.15.17s.1.1.16.12.57-.22.57-.44.08-.49-.06-.71V.75s.12,0,.14.06l.06.22s0,.11.06.08S126.69,1.23,126.77,1.18Zm-32,43.44a.33.33,0,0,0,.09.17.66.66,0,0,0,.2.32.91.91,0,0,0,.21.41h0a.34.34,0,0,0,.11.2h0a7.22,7.22,0,0,0,.6,1.09c.39.81.85,1.57,1.27,2.36.74,1.36,1.49,2.71,2.24,4.07l1.12,2,.13-.22,4.52-8.23L107.9,42h0a1.54,1.54,0,0,0,.28-.55h0a4.72,4.72,0,0,0,.53-.91.39.39,0,0,0,.11-.2l.12-.2.62-1.1,1.8-3.3c.22-.39.44-.77.65-1.16l1.77-3.25c.71-1.29,1.43-2.58,2.13-3.88.06-.1.13-.2.18-.3.55-1,1.1-2,1.64-3,.3-.57.65-1.11.9-1.71a.38.38,0,0,0,.16-.3l.14-.21c0-.07.09-.14.13-.21L120.49,19l.06-.08,3.09-5.66,1.45-2.6,1.4-2.54.77-1.42c0-.07.12-.16,0-.16h-3.18a.33.33,0,0,0-.32.2l-2.71,5-.71,1.32c-.72,1.31-1.45,2.62-2.17,3.94-.31.57-.65,1.12-.92,1.7-.51.87-1,1.76-1.46,2.65l-.57,1a.34.34,0,0,0,0,.27,6.54,6.54,0,0,1,0,2.71,5.67,5.67,0,0,1-.75,2,3.42,3.42,0,0,1-2.67,1.55c-.13,0-.18.1-.24.19l-1.14,2.08-1.95,3.41-.21.39a.28.28,0,0,0-.09.16c-.34.61-.68,1.21-1,1.82l-1.5,2.63a2.14,2.14,0,0,0-.25.46.11.11,0,0,0-.05.1,12.19,12.19,0,0,0-.7,1.28h0l-.09.12-1.79,3.27-2.19,4-1.46-2.59a9.06,9.06,0,0,0-.54-.94.26.26,0,0,0-.09-.21h0a1.15,1.15,0,0,0-.2-.37l-.16-.23a.12.12,0,0,0,0-.15v-.06a1.7,1.7,0,0,0-.27-.45v-.1a.22.22,0,0,0-.08-.14l-.56-1-.82-1.51L94,36.76l-1.86-3.37-2.48-4.5c0-.05-.07,0-.11,0H86.3V27c0-.2,0-.29.26-.27s.54,0,.81,0,.21-.05.2-.2V25.26a.73.73,0,0,0-.1-.41c-.22-.36-.43-.72-.62-1.09q-.53-1-1.09-2h0v-.08a3.61,3.61,0,0,0-.32-.62l-1.94-3.5c-.07-.14-.14-.29-.22-.42-.37-.66-.74-1.31-1.11-2s-.92-1.69-1.38-2.54l-1.28-2.34-1.87-3.4c-.06-.1-.09-.22-.25-.22H73.92c-.12,0-.09.07-.05.13l.32.57,2.07,3.78L77.35,13a.91.91,0,0,0,.05.14l1.23,2.22,1.57,2.84,2.26,4.12c0,.08.14.13.13.23h0L84.43,26l1.4,2.51.06.1v.07c.38.78.83,1.53,1.25,2.29.5.93,1,1.85,1.54,2.77.09.19.18.38.28.56l3.12,5.64,1.77,3.19.69,1.27a.75.75,0,0,0,.17.3ZM94,16.79l.33-.08a12.06,12.06,0,0,0,2.45-.76,4.15,4.15,0,0,0,2.47-2.76,6.25,6.25,0,0,0,.11-2.58,4.5,4.5,0,0,0-2-3.26,5.34,5.34,0,0,0-3-.82H87.47c-.65,0-.65,0-.62.65h0c0,.11,0,.15.14.14h.81c.27,0,.32,0,.32.31v19c0,.22.07.51,0,.63s-.43,0-.65,0c-.58,0-.56,0-.58.57,0,.22.06.26.26.25h6.72A8.83,8.83,0,0,0,96,27.83a4.93,4.93,0,0,0,3.57-2.88,6.48,6.48,0,0,0,.45-3.12,4.66,4.66,0,0,0-1.79-3.46,7.42,7.42,0,0,0-2.47-1.22,11.64,11.64,0,0,1-1.83-.37Zm7.29,3.13c0,3.52.05,7.87,0,12.21a11.53,11.53,0,0,1-.22,2.36.87.87,0,0,1-1.4.57c-.13-.08-.18-.15-.08-.31A3,3,0,0,0,100,32.5a1.67,1.67,0,0,0-1.51-1.38A1.62,1.62,0,0,0,96.8,32.4a3.08,3.08,0,0,0-.09.93,2.85,2.85,0,0,0,2.7,2.86,5,5,0,0,0,4.42-2,7.15,7.15,0,0,0,1.38-4.48V5.29c0-.21.07-.25.25-.24s.59,0,.88,0c.57,0,.56,0,.57-.58,0-.21-.06-.26-.27-.26h-6.55c-.68,0-.67,0-.65.67,0,.14,0,.17.18.17H101c.22,0,.29,0,.29.28,0,4.55,0,9.15,0,14.58Zm-.63,36.86.89-1.62,6.74-12.26L114,32.38l6.18-11.24,3.86-7,4.41-8c.11-.2.09-.25-.14-.24h-4c-.22,0-.27.22-.28.36s.17.08.25.08h3.29a.34.34,0,0,1,.23,0L100.6,55.91,73.31,6.28H76.8c.1,0,.26.06.3-.05S77,6,76.95,5.9s-.19-.06-.28-.06H72.9c-.32,0-.32,0-.17.28l4.08,7.41,3.66,6.67,3.86,7,4.09,7.43L93,43l3.08,5.6,3.43,6.24Zm7.26-31v2.15c0,.07-.05.19.09.19a1.55,1.55,0,0,0,.48,0c.11,0,.07-.21.12-.31s0-.07,0-.1c.13-.3.25-.36.55-.24s.56.26.85.38a3,3,0,0,0,4.36-2.06,7.12,7.12,0,0,0,.28-1.61,3.78,3.78,0,0,0-1.92-3.78c-.64-.38-1.32-.68-2-1a3.55,3.55,0,0,1-1.24-.93,1.67,1.67,0,0,1-.2-1.81,1.5,1.5,0,0,1,1.44-.8,2.18,2.18,0,0,1,1.78.8,4.1,4.1,0,0,1,.94,2.14c0,.21.1.3.31.27h.15c.19,0,.26,0,.26-.24V15.54c0-.4,0-.4-.4-.39-.12,0-.18,0-.21.16a1.57,1.57,0,0,1-.13.33.45.45,0,0,1-.72.25c-.18-.09-.34-.22-.51-.32a2.66,2.66,0,0,0-3.58.66,4.39,4.39,0,0,0-.78,2.42,3.91,3.91,0,0,0,1,3.06,6.57,6.57,0,0,0,1.68,1.23,19,19,0,0,1,1.74,1,1.85,1.85,0,0,1,.93,2.08,1.68,1.68,0,0,1-1.51,1.47,2.2,2.2,0,0,1-2.37-1.18,6,6,0,0,1-.68-2.28c-.06-.49-.06-.47-.53-.49-.2,0-.23.06-.23.24,0,.63,0,1.33,0,2ZM108,13.1H108l3.17-5.59c.09-.16,0-.17-.12-.2l-2.85-1.08c-.2-.08-.26-.08-.26.17v6.21a4.91,4.91,0,0,0,0,.52ZM109.2,23v.38a6,6,0,0,0,.61,2.39,1.62,1.62,0,0,0,1,.88.22.22,0,0,0,.29-.11v0c.27-.51.55-1,.82-1.53s.23-.43-.17-.69c-.81-.52-1.71-.87-2.49-1.42-.1,0-.09.08-.09.15Zm2.19,3.68a.48.48,0,0,0,.58-.28c.16-.32.34-.64.52-.95a.49.49,0,0,0-.09-.61Z"/><path class="cls-1" d="M75.47,1.93a2.72,2.72,0,0,0,.1.46c0,.16,0,.13-.07.14s-.08,0-.09-.1-.26-.12-.4-.14l-.14-.24h.06c0-.21,0-.44-.2-.56s0-.4-.27-.47h0c.22-.13.14-.27,0-.41H126.9a.1.1,0,0,0,.06.1h0c-.08.06-.05.15-.05.22a.74.74,0,0,1-.16.29c-.08,0-.17-.13-.25,0s0,0-.06-.08l-.06-.22c0-.08-.08-.08-.14-.06s-.06.08,0,.13a1.16,1.16,0,0,1,.06.71c0,.23-.39.5-.57.44s-.18,0-.16-.12,0-.17.15-.17h.14a.12.12,0,0,0,.08-.15v0c0-.08-.07-.11-.15,0s-.09,0-.14-.06l.06-.15a.09.09,0,0,0,.09-.05c.1,0,.2,0,.2-.15s-.09-.16-.2-.16H75.58s-.11,0-.1.07a.85.85,0,0,0,.35,0h49.5a.48.48,0,0,1,.48.2H75.47c0-.23-.11-.07-.19,0l.17.13h0c0,.08,0,.16.1.17h0C75.47,1.71,75.47,1.82,75.47,1.93Zm0-1.11V.9h50.1V.82Zm50.6-.14h0s0,0,0,0Z"/><path class="cls-2" d="M117.24,40.72a2,2,0,0,1,0-3.9h0a2,2,0,0,1,0,3.9Zm0-3.59a1.64,1.64,0,1,0,0,3.28h0a1.64,1.64,0,1,0,0-3.28Z"/><path class="cls-2" d="M74.47.53c.11.15.19.29,0,.41h0c.23.07.08.35.27.47s.19.35.2.56h-.06L74,.6c0-.09,0-.1.08-.1Z"/><path class="cls-2" d="M126.93.89A.32.32,0,0,1,127,.67C127.08.77,127,.82,126.93.89Z"/><path class="cls-2" d="M127,.6a.1.1,0,0,1-.06-.1h.1a.05.05,0,1,1,0,.1Z"/><path class="cls-3" d="M91.32,28.84h3.23a7,7,0,0,0,4.07-1.43,5.53,5.53,0,0,0,1.79-2.71,1.91,1.91,0,0,1,.12-.33c0,2.56.06,5.12,0,7.73a3.17,3.17,0,0,0-.61-1A2.24,2.24,0,0,0,96.2,32a3.68,3.68,0,0,0,2,4.64,4.38,4.38,0,0,0,2.31.18,5.72,5.72,0,0,0,2.86-1.28,6.42,6.42,0,0,0,1.87-2.7,9.37,9.37,0,0,0,.56-3.36V6c0-.34,0-.34.34-.34H107c.15,0,.21,0,.2.2v9.57a.18.18,0,0,0,.08.19l.64-1.12,2.1-3.7,2-3.54c.09-.16,0-.21-.11-.27l-3.32-1.26c-.31-.12-.62-.25-.94-.35a.23.23,0,0,1-.18-.25V3.7c0-.16-.07-.19-.22-.19H98.95c-.17,0-.24,0-.24.22V5.47c0,.17.05.22.22.21h1.37c.19,0,.25.06.25.25V20.54a1.11,1.11,0,0,1,0,.27,6,6,0,0,0-4.05-4A9.74,9.74,0,0,0,97.95,16a4.53,4.53,0,0,0,1.85-2.53,6.84,6.84,0,0,0-.09-4.07,5,5,0,0,0-3.15-3.21,6.78,6.78,0,0,0-2.38-.37H86.34c-.12,0-.17.07-.17.2V7.81c0,.15,0,.23.21.22s.59,0,.88,0c.07,0,.18,0,.2.1v.35q0,5.65,0,11.3v2.06l-.15-.17a4.25,4.25,0,0,0-.46-.92c-.62-1.16-1.27-2.31-1.91-3.46l-2.13-3.88-2.3-4.17L78.13,4.92,77,2.82c0-.09.13-.21,0-.23a.2.2,0,0,1-.16-.23v0c0-.13.19-.06.29-.06h46.61a.57.57,0,0,1,.2,0c.14.06.34.05.35.28h0a.67.67,0,0,0-.31.61.59.59,0,0,1,0,.09l-2.51,4.48L118,14l-2.27,4.13a.08.08,0,0,0-.09.11h0l-.19-.07c-.1,0-.12,0-.11.09l-.06.43c0,.22-.3.29-.3.53a.4.4,0,0,1,0-.27V15.66a.45.45,0,0,0,0-.29.22.22,0,0,1,0-.31l0,0c.05,0,.14-.16.08-.18-.21-.08-.15-.26-.19-.4s-.09-.07-.14-.07h-1.64a.43.43,0,0,1-.38.35c-.08,0-.15.13-.26.12h0c0-.15-.12-.1-.2-.1a3.81,3.81,0,0,0-1.59-.31A3.2,3.2,0,0,0,108,16a5.4,5.4,0,0,0-.74,2.74,4.44,4.44,0,0,0,1.65,3.8l.1.11.07.11H107.5c-.16,0-.22,0-.22.21v5.41c0,.4,0,.4.37.4h1.06c.48,0,.48,0,.49-.5v-.12s.07,0,.1,0a3,3,0,0,0,.76.31c.1.1,0,.17,0,.24l-1.59,2.68-2.92,5.33-4.64,8.42a1.58,1.58,0,0,1-.36.54l-.41-.74L97.72,40.6l-3.25-5.92c-.72-1.31-1.43-2.62-2.16-3.93-.29-.53-.55-1.07-.89-1.58h0C91.42,29,91.28,29,91.32,28.84Zm21.15-14.32a.07.07,0,0,0-.08,0s-.07,0-.06.05,0,0,.08,0S112.47,14.6,112.47,14.52Zm2.65-.07V14.4h0a.08.08,0,0,0,0,.06s0,0,0,0Zm-2.2,0h0s0,0,0,0Z"/><path class="cls-4" d="M93.95,16.78c.61.17,1.22.29,1.81.47a7.42,7.42,0,0,1,2.47,1.22A4.66,4.66,0,0,1,100,21.93a6.48,6.48,0,0,1-.45,3.12A4.93,4.93,0,0,1,96,27.93a8.83,8.83,0,0,1-2.15.25H87.13c-.2,0-.27,0-.26-.25,0-.57,0-.56.58-.57.22,0,.52.1.65,0s0-.42,0-.63v-19c0-.26-.07-.33-.32-.31s-.54,0-.81,0c-.11,0-.16,0-.14-.14h0c0-.65,0-.65.62-.65H94.3a5.34,5.34,0,0,1,3,.82,4.5,4.5,0,0,1,2,3.26,6.25,6.25,0,0,1-.11,2.58,4.15,4.15,0,0,1-2.47,2.76,12.06,12.06,0,0,1-2.45.76ZM92,22.35q0,.52,0,1v3.74c0,.19.05.25.24.23s.45,0,.68,0a2.47,2.47,0,0,0,2.69-2.23h0a12.47,12.47,0,0,0,.19-2.36,11.72,11.72,0,0,0-.3-3.31,2.62,2.62,0,0,0-2-2,5.62,5.62,0,0,0-1.2-.12c-.2,0-.27,0-.27.26,0,1.63,0,3.21,0,4.8Zm0-10.44q0,1.63,0,3.26v1.21c0,.08,0,.18.1.18A3,3,0,0,0,94.17,16a3,3,0,0,0,1-1.85,13.4,13.4,0,0,0,.12-3.82,5.4,5.4,0,0,0-.43-1.81,1.91,1.91,0,0,0-1.51-1.16,9.72,9.72,0,0,0-1.08-.06c-.19,0-.25,0-.25.24v4.36Z"/><path class="cls-4" d="M101.23,19.91V5.28c0-.24-.07-.29-.29-.28H99.58c-.13,0-.17,0-.18-.17,0-.67,0-.67.65-.67h6.55c.21,0,.27,0,.27.26,0,.58,0,.58-.57.58h-.88c-.29,0-.26,0-.25.24V29.66a7.15,7.15,0,0,1-1.38,4.48,5,5,0,0,1-4.42,2,2.85,2.85,0,0,1-2.7-2.86,3.08,3.08,0,0,1,.09-.93,1.62,1.62,0,0,1,1.66-1.28,1.67,1.67,0,0,1,1.51,1.38,3,3,0,0,1-.42,2.25c-.1.17-.05.23.08.31a.87.87,0,0,0,1.4-.57,11.53,11.53,0,0,0,.22-2.36C101.28,27.78,101.2,23.43,101.23,19.91Z"/><path class="cls-5" d="M100.6,56.77l-1.06-1.93L96.11,48.6,93,43l-4.6-8.36-4.09-7.43-3.86-7-3.67-6.68L72.73,6.12c-.15-.28-.15-.28.17-.28h3.77a.43.43,0,0,1,.28.06c.07.06.19.22.15.33s-.19.05-.3.05H73.31L100.6,55.89,127.82,6.32a.34.34,0,0,0-.23,0H124.3c-.09,0-.27.08-.25-.08s.06-.35.28-.36h4c.23,0,.25,0,.14.24l-4.41,8-3.86,7L114,32.36l-5.77,10.52-6.78,12.28Z"/><path class="cls-4" d="M107.86,25.81v-2.1c0-.18,0-.25.23-.24.47,0,.47,0,.53.49a6,6,0,0,0,.68,2.28,2.2,2.2,0,0,0,2.37,1.18,1.68,1.68,0,0,0,1.51-1.47,1.85,1.85,0,0,0-.93-2.08c-.56-.36-1.16-.64-1.74-1a6.57,6.57,0,0,1-1.68-1.23,3.91,3.91,0,0,1-1-3.06,4.39,4.39,0,0,1,.78-2.42,2.66,2.66,0,0,1,3.58-.66,5.43,5.43,0,0,0,.51.32.45.45,0,0,0,.77-.22,1.57,1.57,0,0,0,.13-.33c0-.12.09-.16.21-.16.4,0,.4,0,.4.39v3.29c0,.21-.07.27-.26.24h-.15c-.21,0-.28-.05-.31-.27a4.1,4.1,0,0,0-1-2.16,2.18,2.18,0,0,0-1.78-.8,1.5,1.5,0,0,0-1.44.8,1.67,1.67,0,0,0,.2,1.81,3.55,3.55,0,0,0,1.24.93c.65.35,1.33.64,2,1a3.78,3.78,0,0,1,1.92,3.78,7.12,7.12,0,0,1-.28,1.61A3,3,0,0,1,110,27.79c-.29-.11-.56-.26-.85-.38s-.42-.06-.55.24t0,.1c-.06.1,0,.28-.12.31a1.55,1.55,0,0,1-.48,0c-.14,0-.09-.12-.09-.19C107.85,27.24,107.86,26.53,107.86,25.81Z"/><path class="cls-6" d="M75.57,1.67h0V1.59c.06-.21.24-.12.36-.12h49.46a.29.29,0,0,1,.23.07.44.44,0,0,0-.18.44,1.43,1.43,0,0,1-.25.48L114.87,21.14l-.16.28a.74.74,0,0,1-.23-.37l.22-.37,2.69-4.89L125,1.94c.07-.13.07-.18-.09-.17H76.31c-.22,0-.24.05-.14.24l1.38,2.5,7.7,14,1.81,3.27a1.25,1.25,0,0,0,.1.22,1.44,1.44,0,0,1,.27,1.18c-.08,0-.1-.11-.13-.18L81,11.52l-3.85-7c-.22-.4-.42-.82-.67-1.2s-.5-1-.83-1.47A.23.23,0,0,0,75.57,1.67Z"/><path class="cls-7" d="M87.07,21.76l-1.81-3.27-7.7-14c-.46-.83-.91-1.67-1.38-2.5-.1-.18-.08-.24.14-.24h48.59c.16,0,.16,0,.09.17l-7.6,13.85-2.69,4.89-.22.37c0-.06,0-.15-.05-.17s0,.12-.11.14,0-.11,0-.17c.19-.33.39-.66.57-1a12.37,12.37,0,0,0,.85-1.62h0a.12.12,0,0,0,.09-.11L118.11,14l3.43-6.27L124,3.23a.59.59,0,0,0,0-.09,2,2,0,0,0,.31-.61h0c.16-.1.29-.29.25-.43s-.27,0-.41-.05H76.71c-.12,0-.18,0-.1.16l.35.61c.38.7.75,1.4,1.14,2.1l2.38,4.32,2.3,4.17,2.13,3.88c.64,1.15,1.29,2.3,1.91,3.46a4.25,4.25,0,0,1,.46.92C87.19,21.66,87.08,21.6,87.07,21.76Zm-10-19.91Z"/><path class="cls-6" d="M91.11,29.11h0l.15.29,8.26,15,1.05,1.9.15-.26,9.45-17.22c.08-.15.17-.22.33-.15s.11.13.06.22l-1.35,2.46-5.09,9.27-3.47,6.3-.09.15L90.5,28.79c.2,0,.36-.07.49.09Z"/><path class="cls-4" d="M107.93,13.13V6.45c0-.25.06-.25.26-.17L111,7.36c.08,0,.21,0,.12.2L108,13.15Z"/><path class="cls-7" d="M110.52,28.72c-.17-.07-.25,0-.33.15l-9.45,17.22-.15.26-1.05-1.9-8.26-15-.15-.29c.14,0,.18.17.23.3.1-.09,0-.18.07-.25a13.25,13.25,0,0,1,.89,1.58l2.16,3.93,3.24,5.89L100.16,45l.41.74a1.58,1.58,0,0,0,.36-.54l4.64-8.42,2.92-5.33,1.45-2.65c0-.07.13-.15,0-.24a.44.44,0,0,0,.2-.08c.12-.07.18,0,.2.11S110.53,28.6,110.52,28.72Z"/><path class="cls-3" d="M109.18,23.07c0-.07,0-.2.13-.1.79.55,1.69.9,2.49,1.42.4.26.4.26.17.69s-.55,1-.82,1.53a.22.22,0,0,1-.28.14h0a1.62,1.62,0,0,1-1-.88,6,6,0,0,1-.61-2.39A3,3,0,0,1,109.18,23.07Z"/><path class="cls-3" d="M112.91,19.73a21.08,21.08,0,0,1-2.63-1.42,1.17,1.17,0,0,1-.49-.92.85.85,0,0,1,.8-.9h.08a1.65,1.65,0,0,1,1.48.75,4.16,4.16,0,0,1,.71,2.09A1.23,1.23,0,0,0,112.91,19.73Z"/><path class="cls-8" d="M125.4,1.93a.44.44,0,0,1,.18-.44c-.06-.11-.15-.07-.23-.07H75.89c-.12,0-.3-.09-.36.12l-.08-.08h49.9a.45.45,0,0,0,.25,0h.09l-.06.15C125.53,1.6,125.59,1.86,125.4,1.93Z"/><path class="cls-9" d="M115.7,18.22c-.22.57-.58,1.07-.85,1.62-.18.34-.38.67-.57,1a9.8,9.8,0,0,0-1.37-1.11h1.69c.17,0,.23,0,.23-.23V14.67c0-.16-.05-.2-.2-.2h-1.29a.23.23,0,0,0-.27.18h0a.9.9,0,0,1,0,.12c-.18.46-.19.46-.58.1.11,0,.18-.11.26-.12a.43.43,0,0,0,.38-.35c0-.06.1,0,.16,0h1.48c.06,0,.13,0,.14.07s0,.32.19.4,0,.13-.08.18a.22.22,0,0,0-.07.3l0,0a.45.45,0,0,1,0,.29V19a.4.4,0,0,0,0,.27c0-.24.28-.3.3-.53l.06-.43c0-.09,0-.13.11-.09Z"/><path class="cls-7" d="M87.47,20.44V8.21c.17,0,.1.18.1.27V20.17C87.57,20.26,87.64,20.4,87.47,20.44Z"/><path class="cls-6" d="M111.36,26.75l1-1.84a.49.49,0,0,1,.09.61c-.18.31-.36.62-.52.95A.48.48,0,0,1,111.36,26.75Z"/><path class="cls-10" d="M108.55,34.6a.27.27,0,0,0,.23.06,18.35,18.35,0,0,1,2.26-.05c.08,0,.17,0,.17.11s-.11.09-.19.09h-1.51a2.42,2.42,0,0,0-1.18.19Z"/><path class="cls-7" d="M109.11,28.33c0,.5,0,.5-.49.5h-1c-.39,0-.39,0-.37-.4.05,0,.21,0,.15.08a.2.2,0,0,0,.11.27c.11,0,.21,0,.26-.21a1.47,1.47,0,0,0,.7.06c.11,0,.24.14.35-.07s.12.1.19.15S108.91,28.39,109.11,28.33Z"/><path class="cls-8" d="M89.59,28.89h-.12S89.57,28.84,89.59,28.89Z"/><path class="cls-10" d="M95.37,45.73h0c.2.35.55.62.55,1.08A7.22,7.22,0,0,1,95.37,45.73Z"/><path class="cls-7" d="M87.47,21.65v-1s.09,0,.09.07v.87C87.56,22,87.47,21.6,87.47,21.65Z"/><path class="cls-11" d="M118.63,22.37c0-.12-.13-.21-.11-.35s0-.18.12-.19.06.11.09.16l.06.08A.38.38,0,0,1,118.63,22.37Z"/><path class="cls-10" d="M98.59,45.19a.21.21,0,0,1-.26-.13c-.06-.11,0-.17.06-.23A1.15,1.15,0,0,1,98.59,45.19Z"/><path class="cls-10" d="M98.15,44.38c-.25-.05-.29-.24-.27-.45A1.7,1.7,0,0,1,98.15,44.38Z"/><path class="cls-10" d="M95.13,45.19c.26,0,.22.24.21.41A.91.91,0,0,1,95.13,45.19Z"/><path class="cls-10" d="M108.71,40.47c-.13-.07-.11-.16,0-.26s0-.09.09-.07,0,.08,0,.13A.39.39,0,0,1,108.71,40.47Z"/><path class="cls-7" d="M87.47,8.1c0-.13-.13-.08-.2-.1s.18-.12.26-.07S87.59,8.08,87.47,8.1Z"/><path class="cls-7" d="M75.57,1.67s.08.09.07.16l-.2.1C75.47,1.82,75.47,1.71,75.57,1.67Z"/><path class="cls-10" d="M94.67,44.4c.24,0,.18.16.17.3A.75.75,0,0,1,94.67,44.4Z"/><path class="cls-7" d="M91.32,28.84c0,.12.09.19.09.3C91.18,29,91.17,29,91.32,28.84Z"/><path class="cls-10" d="M97.84,43.83c-.06,0-.09.15-.15.05a.12.12,0,0,1,0-.17l.05,0A.22.22,0,0,1,97.84,43.83Z"/><path class="cls-10" d="M98.68,45.4c-.13,0-.09-.13-.09-.21A.26.26,0,0,1,98.68,45.4Z"/><path class="cls-9" d="M112.25,14.78c.08,0,.19,0,.2.1A.29.29,0,0,1,112.25,14.78Z"/><path class="cls-10" d="M95.34,45.6c.14,0,.1.12.11.2A.34.34,0,0,1,95.34,45.6Z"/><path class="cls-10" d="M94.84,44.7c.12,0,.1.1.09.17A.33.33,0,0,1,94.84,44.7Z"/><path class="cls-10" d="M105.47,40.1s.07.09,0,.13-.06,0-.07,0A.11.11,0,0,1,105.47,40.1Z"/><path class="cls-7" d="M91.11,29.11,91,28.94C91.13,28.95,91.12,29,91.11,29.11Z"/><path class="cls-10" d="M98.22,44.6c-.06,0,0-.1,0-.15A.12.12,0,0,1,98.22,44.6Z"/><path class="cls-2" d="M125.81,1.33a.48.48,0,0,0-.48-.2H75.83a.85.85,0,0,1-.35,0c0-.09.05-.07.1-.07h50.23c.11,0,.2,0,.2.16s-.1.15-.2.15Z"/><path class="cls-2" d="M75.47.82h50.1V.9H75.47Z"/><path class="cls-11" d="M125.6,1.35a.45.45,0,0,1-.25,0h.25Z"/><path class="cls-2" d="M75.47,1.33h0L75.3,1.2C75.33,1.26,75.47,1.1,75.47,1.33Z"/><path class="cls-7" d="M75.47,1.47l.08.08v.08C75.47,1.6,75.47,1.54,75.47,1.47Z"/><path class="cls-2" d="M125.72,1.38h.12A.09.09,0,0,1,125.72,1.38Z"/><path class="cls-9" d="M77,2.8l-.35-.61c-.08-.13,0-.16.1-.16h47.44c.14,0,.38-.07.41.05s-.1.32-.25.43c0-.22-.21-.22-.35-.28a.57.57,0,0,0-.2,0H77.14c-.1,0-.24-.07-.29.06a.2.2,0,0,0,.11.26h0C77.08,2.6,76.92,2.71,77,2.8Z"/><path class="cls-9" d="M124.3,2.54a2,2,0,0,1-.31.61A.67.67,0,0,1,124.3,2.54Z"/><path class="cls-9" d="M112.47,14.52l-.07.05c-.07.05-.07,0-.08,0l.06-.05A.07.07,0,0,1,112.47,14.52Z"/><path class="cls-9" d="M115.08,14.45h0a.08.08,0,0,1,0-.06h0Z"/><path class="cls-9" d="M115.78,18.12a.12.12,0,0,1-.09.11.08.08,0,0,1,0-.11Z"/><path class="cls-2" d="M92,22.36V17.61c0-.22.06-.26.27-.26a5.62,5.62,0,0,1,1.2.12,2.62,2.62,0,0,1,2,2,11.72,11.72,0,0,1,.3,3.31,12.47,12.47,0,0,1-.19,2.36,2.47,2.47,0,0,1-2.69,2.23h-.68c-.22,0-.24,0-.24-.23V23.4Q92,22.87,92,22.36Zm.67,0h0v3.71c0,.68,0,.67.67.59a1.67,1.67,0,0,0,1.53-1.29,9,9,0,0,0,.27-2.17,15,15,0,0,0-.09-2.67,4.47,4.47,0,0,0-.36-1.36A2.07,2.07,0,0,0,92.95,18c-.21,0-.26,0-.26.21C92.69,19.6,92.69,21,92.69,22.36Z"/><path class="cls-2" d="M92,11.92V7.57c0-.21.06-.25.25-.24a9.72,9.72,0,0,1,1.08.06,1.91,1.91,0,0,1,1.51,1.16,5.4,5.4,0,0,1,.43,1.81,13.4,13.4,0,0,1-.12,3.82,3,3,0,0,1-1,1.85,3,3,0,0,1-2.05.54c-.14,0-.1-.11-.1-.18V15.18Q92,13.55,92,11.92Zm.67,0v3.71c0,.23.08.24.27.21a1.91,1.91,0,0,0,1.5-1.58,10.67,10.67,0,0,0,.21-2.86,7.49,7.49,0,0,0-.31-2.34A1.43,1.43,0,0,0,93,8c-.21,0-.27,0-.27.26v3.69Z"/><path class="cls-10" d="M104.67,41.48c.23,0,.3.12.27.44A1.33,1.33,0,0,0,104.67,41.48Z"/><path class="cls-10" d="M107.87,40.69a.41.41,0,0,1,0-.4h.08S107.9,40.53,107.87,40.69Z"/><path class="cls-10" d="M107.47,42.06a.05.05,0,0,1-.05-.06v-.08l.05.06A.07.07,0,0,1,107.47,42.06Z"/><path class="cls-10" d="M108.21,40.86s0-.07.06-.06,0,0,0,.08,0,.07-.05.06S108.21,40.9,108.21,40.86Z"/><path class="cls-10" d="M105.18,40.76s0-.07.05-.06,0,0,0,.08,0,.07-.05.06S105.18,40.8,105.18,40.76Z"/><path class="cls-10" d="M108.18,41.38c-.06,0-.09.12-.14.06s.06-.1.06-.17h0l.08.1Z"/><path class="cls-10" d="M107.06,42.2a.23.23,0,0,1,0,.07s0,.06-.06,0a.07.07,0,0,1,0-.06S107,42.22,107.06,42.2Z"/><path class="cls-10" d="M105.68,40.16s.08,0,.08.06h0c-.06,0-.05,0-.06-.08Z"/><path class="cls-10" d="M107.56,42.27Z"/><path class="cls-10" d="M108,41.17a.09.09,0,0,1,.1.1h0a.09.09,0,0,1-.1-.1Z"/><path class="cls-10" d="M108,41.17s-.08,0-.08-.06h0c.06,0,.05,0,.06.08Z"/><path class="cls-12" d="M92.07,33.71c.06,0,.06.06.05.09s0,.08-.09.07,0,0,0-.08Z"/><path class="cls-13" d="M120,19.22v-.11h.06A.9.9,0,0,0,120,19.22Z"/><path class="cls-1" d="M118.18,39.8a.4.4,0,0,1-.52-.22,7,7,0,0,0-.4-.61.23.23,0,0,0-.19-.13c-.17,0-.28,0-.26.23s0,.4,0,.61-.06.15-.17.15-.15,0-.15-.14V37.82c0-.12,0-.14.15-.14h.83c.47,0,.72.18.74.51s-.15.59-.66.67Zm-1-1.26a1.69,1.69,0,0,0,.47,0,.23.23,0,0,0,.22-.24c0-.13-.09-.2-.22-.24a3.44,3.44,0,0,0-.8,0c-.06,0-.08,0-.09.09-.08.38,0,.47.36.47Z"/><path class="cls-3" d="M92.69,22.36V18.27c0-.21,0-.24.26-.21a2.07,2.07,0,0,1,1.76,1.13,4.47,4.47,0,0,1,.36,1.36,15,15,0,0,1,.09,2.67,9,9,0,0,1-.27,2.17,1.67,1.67,0,0,1-1.53,1.29c-.67.08-.67.09-.67-.59V22.36Z"/><path class="cls-3" d="M92.69,11.95V8.26c0-.21.06-.27.27-.26a1.43,1.43,0,0,1,1.4,1.09,7.49,7.49,0,0,1,.31,2.34,10.67,10.67,0,0,1-.21,2.86A1.91,1.91,0,0,1,93,15.87c-.19,0-.27,0-.27-.21Z"/><polygon class="cls-2" points="97.44 43.15 98.83 45.69 99.19 45.42 97.8 42.89 97.44 43.15"/><path class="cls-14" d="M127.22,6.6H124a.33.33,0,0,0-.32.2l-2.71,5-.71,1.32-2.17,3.94c-.31.57-.65,1.12-.92,1.7,0,.13.11.11.19.09-.08,0-.16,0-.19-.09-.51.87-1,1.76-1.46,2.65l-.57,1a.34.34,0,0,0,0,.27,6.54,6.54,0,0,1,0,2.71,5.67,5.67,0,0,1-.75,2,3.42,3.42,0,0,1-2.67,1.55c-.13,0-.18.1-.24.19l-1.14,2.08-.18.34h0l-2,3.59h0L105.54,40h0l-.5.91L105,41l-.39.71h0l-.22.4-.17.32h0L102.8,45l-2.19,4L99.2,46.49h0L99,46.11l-.18-.33-.72-1.32h0l-.27-.5h0l-1-1.83h0l-.45-.84L94,37,92.13,33.6l-2.48-4.5H86.21V27.23c0-.2,0-.29.26-.27s.54,0,.81,0,.21-.05.2-.2q0-.64,0-1.29a.73.73,0,0,0-.1-.41c-.22-.36-.43-.72-.62-1.09q-.53-1-1.09-2h0v-.08a3.61,3.61,0,0,0-.32-.62l-1.94-3.5c-.07-.14-.14-.29-.22-.42-.37-.66-.74-1.31-1.11-2s-.92-1.69-1.38-2.54l-1.28-2.34-1.87-3.4c-.06-.1-.09-.22-.25-.22H73.92c-.12,0-.09.07-.05.13l.32.57,2.07,3.78,1.09,1.92a.14.14,0,0,0,.1-.08.14.14,0,0,1-.1.08.92.92,0,0,0,.05.14l1.23,2.22,1.57,2.84,2.26,4.12c0,.08.14.13.13.23v.05h0l1.84,3.36,1.4,2.51.06.1v.07c.38.78.83,1.53,1.25,2.29.5.93,1,1.85,1.54,2.77.09.19.18.38.28.56l3.12,5.64,1.68,3h0l1.07,2a.7.7,0,0,0,.1.18l1.26,2.32c.32.61.67,1.2,1,1.81.74,1.36,1.49,2.71,2.24,4.07l1.12,2,.13-.22,4.52-8.23L107,43.71h0l.88-1.6a1.63,1.63,0,0,0,.18-.33l.16-.3a5.31,5.31,0,0,0,.33-.6l.4-.73.51-.91,1.59-2.92.25-.45c.2-.36.41-.72.61-1.09l1.77-3.25c.71-1.29,1.43-2.58,2.13-3.88.06-.1.13-.2.18-.3.55-1,1.1-2,1.64-3,.3-.57.65-1.11.9-1.71,0-.12-.13-.21-.11-.35s0-.18.12-.19.06.11.09.16l.06.08.14-.21v0c0-.07.09-.14.13-.21l1.43-2.64.06-.08,3.09-5.66,1.45-2.6,1.4-2.54L127.21,7C127.3,6.6,127.38,6.6,127.22,6.6Zm-44.33,11ZM89,33.78Zm3.16,0a.07.07,0,0,1-.09.07c-.09,0,0,0,0-.08l.06-.09a.15.15,0,0,1,0,.12Zm22.27-6.18ZM120,19.17v-.11h.06l-.06.16Zm3.61-6c0-.17-.07-.24-.15-.24C123.54,12.93,123.57,13,123.61,13.17Z"/></svg>