<svg id="Layer_1" data-name="Layer 1" xmlns="http://www.w3.org/2000/svg" viewBox="0 0 181.74 170.92"><defs><style>.cls-1{fill:#fff;}.cls-2{fill:#da251c;}</style></defs><title>BJ&amp;apos;s</title><polygon class="cls-1" points="147.15 16.74 135.8 18.15 76.52 37.47 76.52 143.19 114.18 138.75 147.15 16.74"/><path class="cls-2" d="M181.24,131l-78.78,9.18c.91-1.36,1.8-2.5,2.48-3.76a43.3,43.3,0,0,0,5.43-17.9,117.62,117.62,0,0,0-.76-19.41c-.78-7.69-1.69-15.36-2.57-23-.85-7.36-1.75-14.71-2.61-22.07q-1-8.75-2-17.49a9.57,9.57,0,0,0-.22-1.37l-4.1.45c-4.81.56-9.62,1.14-14.43,1.65-.92.1-1.14.36-1,1.31.85,7,1.62,14,2.44,20.93.73,6.28,1.49,12.55,2.23,18.82C88.15,85.17,89,92,89.72,98.87c.48,4.56.92,9.13,1.12,13.71.18,4.2-1.24,8.08-3.19,11.74a14.87,14.87,0,0,1-5,5.14l-.95.65,9.56,11.39-77.18,9L.5,33.92,138.27,17.86a158.83,158.83,0,0,0-19.4,22.83,108.56,108.56,0,0,1-11.32-9.84L118,62.24a228.83,228.83,0,0,1,13.85-23c5-7.49,10.13-14.9,15.32-22.51l-8.12.9-.12-.22A168.8,168.8,0,0,1,159.06.5l-11.82,16,.15.26,20.26-2.34ZM62.06,85.22h0L63,84.7a18.87,18.87,0,0,0,9.2-11,26.9,26.9,0,0,0,.31-13.42,22.58,22.58,0,0,0-5.32-11.34c-3.84-4.22-8.83-5.9-14.29-6.44-4.52-.48-9,.14-13.43.64-7,.79-14,1.63-21,2.46l-5.15.62a9.39,9.39,0,0,0,0,1Q14,53.1,14.65,59q1.23,10.51,2.47,21,1.28,11,2.54,22,1.21,10.53,2.44,21c.52,4.43,1,8.85,1.54,13.28.08.71.29,1,1.09.85,1.42-.24,2.87-.32,4.3-.49L53.2,133.8a47.33,47.33,0,0,0,13.67-3.5c5.3-2.35,9.57-5.83,11.59-11.43,2.66-7.37,2.08-14.73-.81-21.89A17.66,17.66,0,0,0,67.29,86.71C65.59,86.07,63.8,85.71,62.06,85.22ZM128,104.06c-1.39,4.52-2.73,8.89-4,13.28-.06.19.28.67.53.77,2.68,1.06,5.36,2.13,8.09,3.07a29.6,29.6,0,0,0,26.07-2.6,21.85,21.85,0,0,0,8.39-8.42,19.14,19.14,0,0,0,1.65-12.27c-.89-5.69-3.7-9.94-9.16-12.27a55.29,55.29,0,0,0-11.69-3.12,20,20,0,0,1-7-2.1A3.56,3.56,0,0,1,139.72,75a6.35,6.35,0,0,1,5.63-2.78,49.18,49.18,0,0,1,11,1.89c.75.22,1.51.41,2.38.65l2.39-14-.84-.28a60.44,60.44,0,0,0-11.64-2,29,29,0,0,0-21.39,7c-4.72,4-7.1,8.9-6.74,15.1s3,10.8,8.9,13.35a59.48,59.48,0,0,0,12.09,3.43,17.8,17.8,0,0,1,7.08,2.58,3.76,3.76,0,0,1-.09,6.44,9.69,9.69,0,0,1-5.31,1.75,23,23,0,0,1-9.66-1.8Zm16.38-65.93a6.87,6.87,0,1,0,6.91-6.83,6.87,6.87,0,0,0-6.91,6.83Z"/><path d="M25.46,165l.73-10.09,3-.38,2.93,9.72h.2c0-.32.09-.64.11-1,.16-2.72.33-5.44.44-8.17,0-.79.26-1.18,1.11-1.16a12.93,12.93,0,0,0,1.76-.19c-.16,1.75-.3,3.43-.45,5.11-.3,3.19-.63,6.38-.9,9.58-.06.75-.28,1.06-1.07,1.12-2,.15-2,.19-2.66-1.79l-2.45-7.69c0-.05-.08-.09-.23-.25-.11,1.21-.22,2.32-.3,3.42-.16,2-.32,4-.44,6,0,.67-.18,1-1,1.08-2.08.17-2.07.22-2.74-1.74l-4.07-11.92c-.1-.3-.19-.61-.32-1l3.36-.42L25.15,165Z"/><path d="M177,144.77a3.87,3.87,0,0,1,2.9,4.13,3.53,3.53,0,0,1-2.85,3.72c-1.78.39-3.61.55-5.42.8-.56.08-1.13.12-1.82.2L168,138.37c2.51-.23,4.89-.54,7.28-.64a3.11,3.11,0,0,1,3.12,2.51A3.72,3.72,0,0,1,177,144.77Zm-4.29,5.88c1.4-.23,2.84.08,3.61-1.36a2.23,2.23,0,0,0-.44-2.42c-1.14-.8-2.36-.38-3.62-.18Zm-.74-6.41c1.27-.36,2.67,0,3.21-1.43a1.79,1.79,0,0,0-.46-2.12c-1-.76-2-.34-3.19-.17Z"/><path d="M49.22,167.63l-3.31.38-.75-6.19-3.67.4.69,6.21-3.3.42L37.1,153.66l3.29-.43.77,6.16,3.66-.43-.68-6.12,3.3-.41Z"/><path d="M61.87,160.56c-.06.55-.08,1.32-.23,2.07-.51,2.63-1.95,4-4.47,4.3a4.78,4.78,0,0,1-5.45-3.14,14.39,14.39,0,0,1-.89-8.67,4.66,4.66,0,0,1,4.19-3.8,4.83,4.83,0,0,1,5.36,2.51A15.22,15.22,0,0,1,61.87,160.56Zm-3.45.11h.12c-.37-1.81-.69-3.64-1.13-5.43a1.67,1.67,0,0,0-3.27.25,16.5,16.5,0,0,0,.93,7.75,1.54,1.54,0,0,0,1.85,1,1.64,1.64,0,0,0,1.36-1.54,15.59,15.59,0,0,0,.17-2Z"/><path d="M154.78,140l3.3-.4c.26,2.24.51,4.43.79,6.61.18,1.4.34,2.8.61,4.19a1.93,1.93,0,0,0,2.1,1.74l.26,0a1.79,1.79,0,0,0,1.67-2.17c-.3-3.29-.69-6.57-1-9.85l-.1-1,2.76-.32c.19,1.68.39,3.27.56,4.85.22,2,.48,4,.62,6,.21,3-1.42,4.85-4.45,5.13a11,11,0,0,1-1.73,0,3.64,3.64,0,0,1-3.71-3c-.52-2.6-.81-5.25-1.17-7.89C155,142.63,154.93,141.36,154.78,140Z"/><path d="M93.55,150.5,91,151.82c-.25-.34-.44-.63-.67-.89a1.88,1.88,0,0,0-2.5-.43,1.82,1.82,0,0,0-.66,1.26,1.47,1.47,0,0,0,.74,1.09,19,19,0,0,0,2.73.91c3.09.89,4.33,2.48,4.06,5.26-.23,2.34-2.23,4-5.06,4.26a5,5,0,0,1-5.45-3.59l2.64-1.19c.19.31.34.59.51.85a2.28,2.28,0,0,0,2.83,1,1.59,1.59,0,0,0,1.23-1.54,1.49,1.49,0,0,0-1.11-1.52c-1-.34-2-.56-3-.89-2.45-.8-3.61-2.51-3.35-4.91a5.06,5.06,0,0,1,9.59-1Z"/><path d="M128.34,158.5l-9.23,1.08-1.78-15.21,9.22-1.08.33,2.56-5.92.73.41,3.54,4.57-.5.33,2.55-4.6.58.44,3.73,5.9-.65Z"/><path d="M81.92,157.2l-4.58.57.43,3.74,5.9-.65.32,2.67-9.23,1.08L73,149.39l9.22-1.07.34,2.55-5.92.73.41,3.54,4.57-.5Z"/><path d="M108,160.88c-1,.12-1.9.27-2.79.3-.27,0-.55-.32-.82-.49v-.09c-.34-.78-.48-1.91-1.07-2.23s-1.67.07-2.52.18c-1.58.21-1.58.22-1.77,1.54-.26,1.83-.26,1.83-2.08,2.09-.25,0-.51.06-.76.08a1.69,1.69,0,0,1-.38-.09q.45-2.64.91-5.27c.55-3.12,1.13-6.24,1.66-9.36.12-.69.33-1,1.11-1.09,2.44-.21,2.43-.26,3.37,2Zm-5.46-5.17-2.12-5.65h-.22l-.71,6Z"/><path d="M143.64,146.85l-2.94.59c-.23-.66-.41-1.31-.68-1.92a1.84,1.84,0,0,0-3.52.22,5.07,5.07,0,0,0-.23,1.89,48,48,0,0,0,.83,5.39,1.88,1.88,0,0,0,2.11,1.58c.95-.09,1.56-.78,1.76-2,.07-.41.11-.82.17-1.29l2.89-.2a5.26,5.26,0,0,1-4.1,6.14,5,5,0,0,1-5.68-2.64,11.77,11.77,0,0,1-.77-9.94c.85-2.24,2.74-3,5-3.1a4.45,4.45,0,0,1,4.47,3C143.2,145.29,143.38,146,143.64,146.85Z"/><path d="M145,141.12l3.32-.39,1.46,12.36,4.9-.52.35,2.79-8.24,1Z"/><path d="M110.87,144.94l1.46,12.38,4.89-.52.35,2.79-8.23,1-1.78-15.19Z"/><path d="M65,165.77l-1.77-15.2,3.31-.41L68,162.5l4.9-.52.32,2.8Z"/><path class="cls-1" d="M62.06,85.22c1.74.49,3.53.86,5.21,1.5A17.66,17.66,0,0,1,77.63,97c2.88,7.16,3.46,14.52.81,21.89-2,5.6-6.29,9.08-11.59,11.43a47.33,47.33,0,0,1-13.64,3.5Q41.13,135.27,29,136.66c-1.43.17-2.88.25-4.3.49-.8.13-1-.14-1.09-.85-.5-4.43-1-8.86-1.54-13.28q-1.24-10.52-2.48-21.13-1.28-11-2.54-22-1.23-10.51-2.47-21Q13.93,53,13.26,47.14a9.39,9.39,0,0,1,0-1l5.15-.62c7-.82,14-1.67,21-2.46,4.46-.46,8.92-1.08,13.46-.56,5.49.58,10.47,2.26,14.32,6.44a22.58,22.58,0,0,1,5.32,11.34A26.9,26.9,0,0,1,72.2,73.7a18.87,18.87,0,0,1-9.2,11l-.91.52S62.05,85.26,62.06,85.22ZM41.12,118.13c4.26-.7,8.55-.53,12.55-2.11a9,9,0,0,0,5.91-6.91,14.09,14.09,0,0,0-.19-5.82c-1-4.6-3.61-7-8.31-7.44a32,32,0,0,0-5.64.22c-2.22.19-4.44.51-6.79.79ZM36.74,80.6l3.5-.39a29.17,29.17,0,0,0,7.7-1.56c3.36-1.37,5.49-3.74,5.83-7.44a16.89,16.89,0,0,0-.11-3.64c-.54-4.28-3-7.1-7.05-7.8a24.33,24.33,0,0,0-5.54-.1c-2.19.13-4.37.48-6.66.75Z"/><path class="cls-1" d="M128,104.06l5.54,2.33a23,23,0,0,0,9.66,1.8,9.69,9.69,0,0,0,5.31-1.75,3.76,3.76,0,0,0,.09-6.44,17.8,17.8,0,0,0-7.08-2.58A59.48,59.48,0,0,1,129.41,94c-5.88-2.54-8.55-7.15-8.9-13.35s2-11.14,6.74-15.1a29,29,0,0,1,21.38-6.94,60.44,60.44,0,0,1,11.64,2c.24.07.48.16.84.28l-2.39,14c-.86-.23-1.62-.43-2.38-.65a49.18,49.18,0,0,0-11-1.89,6.35,6.35,0,0,0-5.63,2.78,3.56,3.56,0,0,0,1.16,5.28,20,20,0,0,0,7,2.1,55.29,55.29,0,0,1,11.68,3.1c5.46,2.32,8.26,6.58,9.16,12.27a19.14,19.14,0,0,1-1.65,12.27,21.85,21.85,0,0,1-8.39,8.42c-8.26,5-17,5.74-26.07,2.6-2.72-.94-5.4-2-8.09-3.07-.25-.1-.59-.57-.53-.77C125.25,113,126.6,108.58,128,104.06Z"/><path class="cls-1" d="M144.37,38.13a6.87,6.87,0,0,1,13.74.08h0a6.87,6.87,0,0,1-13.74-.08Zm6.85-5.5A5.44,5.44,0,0,0,145.7,38q0,.1,0,.19a5.52,5.52,0,0,0,11,0,5.43,5.43,0,0,0-5.31-5.55Z"/><path class="cls-2" d="M41.12,118.13,38.64,96.86c2.35-.28,4.56-.59,6.79-.79a32,32,0,0,1,5.64-.22c4.7.43,7.28,2.84,8.31,7.44a14.09,14.09,0,0,1,.19,5.82A9,9,0,0,1,53.66,116C49.66,117.59,45.37,117.43,41.12,118.13Z"/><path class="cls-2" d="M36.74,80.6,34.39,60.43c2.29-.27,4.47-.62,6.66-.75a24.33,24.33,0,0,1,5.54.1c4.05.7,6.51,3.52,7.05,7.8a16.89,16.89,0,0,1,.11,3.64c-.34,3.7-2.47,6.07-5.83,7.44a29.17,29.17,0,0,1-7.7,1.56Z"/><path class="cls-2" d="M151.22,32.63a5.5,5.5,0,1,1-5.53,5.55h0A5.44,5.44,0,0,1,151,32.63Zm-3.44,1.93c.33,2.46.62,4.74,1,7a.74.74,0,0,0,.54.47,11.71,11.71,0,0,0,1.62-.23l-.31-2.89.49-.38a5.83,5.83,0,0,0,.35.87,16.14,16.14,0,0,0,1.11,1.68,1.12,1.12,0,0,0,.75.42,13.83,13.83,0,0,0,1.85-.27l-2-3,.22-.25a2.1,2.1,0,0,0,.85-2.53A2.07,2.07,0,0,0,152,34.12C150.68,34.24,149.32,34.42,147.78,34.56Z"/><path class="cls-1" d="M147.78,34.56c1.53-.14,2.89-.32,4.26-.38a2.07,2.07,0,0,1,2.22,1.32,2.1,2.1,0,0,1-.85,2.53c-.07.06-.12.14-.22.25l2,3a13.83,13.83,0,0,1-1.85.27,1.12,1.12,0,0,1-.75-.42,16.14,16.14,0,0,1-1.11-1.68,5.83,5.83,0,0,1-.35-.87l-.49.38.31,2.89a11.71,11.71,0,0,1-1.62.23.74.74,0,0,1-.54-.47C148.41,39.3,148.11,37,147.78,34.56Zm3.27.58c-.42.57-.8.85-.81,1.14,0,.45-.24,1.21.64,1.19.6,0,1.34-.15,1.22-1,0-.36-.53-.69-1-1.33Z"/><path class="cls-2" d="M151.06,35.14c.51.64,1,1,1.06,1.36.11.82-.62.95-1.22,1-.88,0-.65-.74-.64-1.19S150.63,35.71,151.06,35.14Z"/></svg>