<svg id="Layer_1" data-name="Layer 1" xmlns="http://www.w3.org/2000/svg" viewBox="0 0 190.3 121.21"><defs><style>.cls-1,.cls-4,.cls-5{fill:#6599b7;}.cls-2{fill:#fdfdfd;}.cls-3{fill:#f6f8f7;}.cls-4,.cls-5{isolation:isolate;}.cls-4{font-size:58.88px;font-family:Arial-Black, Arial;letter-spacing:-0.04em;}.cls-5{font-size:12.04px;font-family:Asap-Regular, Asap;letter-spacing:0.04em;}</style></defs><title>bloom</title><path class="cls-1" d="M101.26,53.21c-3.8,1.36-7.58,3.7-11.45.05-.73-.69-1.7.07-2.56.09-4.26.1-8.56.28-10.33-4.93-.37-1.08-1.67-1-2.51-1.47-3.48-2.05-7.21-3.87-6.45-9,.19-1.31-1.09-2.12-1.59-3.21-1.55-3.39-3.72-6.79-.17-10.32.36-.36.28-1.28.21-1.91a17,17,0,0,1,1.64-9.08c2.81-1,4.45-3,6-5.54,1.73-2.86,4.22-5.7,8.46-4.24a1.64,1.64,0,0,0,1.79-.56C87,.41,90.51.58,93.92.5c.82,0,1.63.12,2,.94.52,1.22,1.36,1.13,2.45,1,4.58-.71,9.12-1.35,11.25,4.43.38,1,1.82,1.14,2.92,1.31l.08-.06c2.34,1.92,4.87,3.66,6.19,6.55l-.18,2c-1,.82-.5,1.57.15,2.26,2.6,2.77,3.33,6.17,3.37,9.81l-.21.93c-1.88.59-2,2-1.92,3.69.12,4.42,0,8.77-5.47,10.31-.24.07-.3.75-.44,1.15a1.36,1.36,0,0,0-.65,1.35c-2,2.29-3.8,4.83-6.75,6.09l-2-.13c-1.28-1.24-2-.3-2.78.66ZM99.79,16.54v-1a23.16,23.16,0,0,1,9.9-1.66c-5.85-4.26-10.95-2.16-16.44-.24,1.66-3,4.1-4,6.13-5.75-4.05-.67-7.63.88-10.51,4-.8.87-.9,3.29-2.52,2.36-1.1-.63-.4-2.61.27-4,.2-.41.69-.91.25-1.48-3.63.81-6,5.4-5,9.53l-.15,1.58c-1.14,1.23-1.42.56-1.91-.65-.75-1.87-.42-4.21-2.43-5.76a10.18,10.18,0,0,0-.46,9.27c.39.88.54,1.77-.51,2.28s-1.36-.38-1.89-.92c-.74-.75-.8-2.09-2.06-2.42-.64,5.16,2.33,9.66,7.37,11.52.87.32,2.46-.37,2.57,1.41H78.64c-1.84-.5-3.61-1.47-6-1.06,3.55,4.25,7.69,6.24,13,6-1.44.8-2.63,2-4.47,1.67-.88-.15-2.07.06-2.12,1.09s1.25,1,2.06,1.21a15.75,15.75,0,0,0,7.52-.22c1.32-.33,2.18-3,3.47-1.35,1,1.27-1.52,2.2-2,3.54-.19.49-1.48.46-.74,1.41a1.3,1.3,0,0,0,1.8.31c1.83-1.36,4-2,5.71-3.79s1.52-4.27,3.09-6.17c1.59,3.4-.19,6.3-1.06,9.41,4.38-1.49,5.76-3.7,6-9,0-.8-.46-2,.81-2.18s1.11,1.15,1.51,1.89c.66,1.21-.15,2.85,1.05,4,2.36-1.9,2.28-4.34,2-6.79s-1.57-4.44-3.25-6.5c2.47.52,2.47.52,6.24,4.17.78-5.31-2.83-9.78-8.39-10.4l-1.22-.22-1.33-.75,1.22-.21c3.49-.87,6.63.42,10.07,2-.49-3.32-2.78-4.29-4.87-5.41C105.76,15.86,102.75,16.45,99.79,16.54Z"/><path class="cls-2" d="M103.39,20.73l-1.22.21c0,.51-.2,1.1.41,1.36s.7-.28.92-.61l1.22.22c-.33,4.24-3.59,7.56-3.72,11.89,0,.31-.84.61-1.3.89a13.91,13.91,0,0,1-7.39,2,5.43,5.43,0,0,0-2.59.5c-3.52,1.82-8.35.69-11.11-2.58h3.78c1.52.12,3,0,1.43-1.93-1.31-1.68-.45-4.2-2.38-5.61-.28-.2-.18-1.08.43-1.41,3.74-2,1.33-3.89-.14-5.78l.15-1.58c.1-1.47.76-3.27,2.11-1.4,1.5,2.06,2.36,1.44,3.8.43.51-.36,1.56-.76,1.82-.53,2.46,2.18,4.75.21,7.09-.16.17,1.24-.67,3.3,2.18,1.79C100.81,17.37,103.11,17.51,103.39,20.73Z"/><path class="cls-3" d="M78.59,34.6c2.77,3.27,7.6,4.41,11.11,2.58a5.43,5.43,0,0,1,2.59-.5,13.91,13.91,0,0,0,7.39-2c.46-.28,1.29-.58,1.3-.89.13-4.32,3.39-7.65,3.72-11.89,5.56.61,9.17,5.08,8.39,10.4-3.77-3.66-3.77-3.66-6.24-4.17,1.68,2.06,3,4,3.25,6.5s.32,4.89-2,6.79c-1.21-1.19-.39-2.83-1.05-4-.4-.74-.35-2-1.51-1.89s-.78,1.39-.81,2.18c-.19,5.35-1.57,7.56-6,9,.87-3.11,2.65-6,1.06-9.41-1.57,1.9-1.4,4.39-3.09,6.17S92.81,45.9,91,47.26a1.3,1.3,0,0,1-1.8-.31c-.74-1,.55-.92.74-1.41.52-1.35,3-2.28,2-3.54-1.29-1.68-2.15,1-3.47,1.35a15.75,15.75,0,0,1-7.52.22c-.82-.19-2.12,0-2.06-1.21s1.24-1.23,2.12-1.09c1.84.3,3-.87,4.47-1.67-5.26.19-9.41-1.8-13-6C75,33.15,76.75,34.11,78.59,34.6Z"/><path class="cls-3" d="M96.66,16.6c-2.34.37-4.62,2.34-7.09.16-.26-.23-1.31.17-1.82.53-1.44,1-2.3,1.63-3.8-.43-1.36-1.87-2-.07-2.11,1.4-1-4.13,1.41-8.71,5-9.52.44.57,0,1.07-.25,1.48-.67,1.35-1.37,3.33-.27,4,1.61.93,1.72-1.49,2.52-2.36,2.88-3.12,6.46-4.66,10.51-4-2,1.74-4.44,2.74-6.09,5.74,5.49-1.92,10.6-4,16.44.24a23.2,23.2,0,0,0-9.9,1.66c-1.13-.13-.83-1.78-2.19-1.91l-.94,3Z"/><path class="cls-3" d="M81.69,19.87c1.47,1.89,3.87,3.76.14,5.78-.62.33-.71,1.21-.43,1.41,1.94,1.41,1.07,3.93,2.38,5.61,1.54,2,.09,2-1.43,1.93-.11-1.79-1.7-1.09-2.57-1.41-5-1.86-8-6.36-7.37-11.52,1.27.34,1.33,1.68,2.06,2.42.53.54,1,1.37,1.89.92s.9-1.4.51-2.28a10.18,10.18,0,0,1,.46-9.27c2,1.56,1.68,3.89,2.43,5.76C80.26,20.43,80.54,21.1,81.69,19.87Zm-1.3,10.81c.21-.26.54-.48.52-.67a.82.82,0,0,0-.58-.53c-.43-.06-.86.15-.72.68C79.67,30.36,80.07,30.47,80.39,30.68Z"/><path class="cls-3" d="M103.39,20.73c-.25-3.22-2.55-3.36-4.52-2.31-2.86,1.52-2-.54-2.18-1.79h0a6.15,6.15,0,0,1,3.12-.09c3-.09,6-.68,8.77.81,2.09,1.12,4.38,2.09,4.87,5.41C110,21.15,106.85,19.87,103.39,20.73Z"/><path class="cls-2" d="M99.79,16.54a6.15,6.15,0,0,0-3.12.09l.94-3c1.36.13,1.06,1.78,2.19,1.91C99.8,15.85,99.8,16.19,99.79,16.54Z"/><path class="cls-3" d="M103.48,21.69c-.22.33-.39.84-.92.61s-.43-.85-.41-1.36Z"/><path class="cls-2" d="M80.39,30.68c-.33-.2-.73-.31-.78-.52-.14-.53.29-.74.72-.68a.82.82,0,0,1,.58.53C80.94,30.2,80.61,30.42,80.39,30.68Z"/><text class="cls-4" transform="translate(0.5 102.66)">bloom</text><text class="cls-5" transform="translate(5.94 116.95)">a different kind of grocery store</text></svg>