<svg id="Layer_1" data-name="Layer 1" xmlns="http://www.w3.org/2000/svg" viewBox="0 0 246.85 39.09"><defs><style>.cls-1{fill:#ce264a;}.cls-2{fill:#11509e;}.cls-3{fill:#fbcf7b;}.cls-4{fill:#fde0a5;}.cls-5{fill:#e42a8b;}</style></defs><title>Braum&amp;apos;s Ice Cream and Dairy</title><path class="cls-1" d="M181.95,24.68c.56-1.36,1.06-2.59,1.58-3.81,1.12-2.64,2.36-5.22,3.46-7.87a19.89,19.89,0,0,0,1.66-8.12c0-.37.1-.49.49-.49h11.54c.39,0,.49.11.47.49a15.51,15.51,0,0,0,0,1.59c0,.33-.11.44-.41.39h0c-1.66,0-2.2.53-2.32,2.19-.07,1,0,2.08,0,3.12V31.3a6.13,6.13,0,0,0,.16,1.33A2.92,2.92,0,0,0,201.45,35a4.27,4.27,0,0,0,.53,0c.3,0,.38.13.37.41v1.54c0,.54-.1.52-.51.51H186.22c-.39,0-.55-.1-.53-.51a11.39,11.39,0,0,0,0-1.44c0-.41.14-.53.53-.51a4,4,0,0,0,1-.06A2.94,2.94,0,0,0,189.84,32V13.5c0-.09-.11,0-.13,0-1.84,4.33-4,8.53-5.79,12.88a70,70,0,0,0-3.52,10.5c-.09.39-.24.53-.64.51H178c-.19,0-.32,0-.38-.26-1.4-5.54-3.84-10.68-6.23-15.83-1.09-2.34-2.13-4.69-3-7.12,0-.07-.07-.14-.13-.26a.87.87,0,0,0-.08.53q.06,8.34.13,16.68a4.26,4.26,0,0,0,.62,2.24,2.9,2.9,0,0,0,2.77,1.57c.48,0,.62.14.59.6s0,1,0,1.49c0,.27-.11.36-.37.36h-9.52c-.27,0-.38-.09-.37-.36V35.25c0-.2.08-.3.28-.31,1.67-.11,2.4-1.24,2.85-2.64a12.1,12.1,0,0,0,.49-3.55q.09-7.33.2-14.66a36.48,36.48,0,0,0-.09-5,2.18,2.18,0,0,0-1.42-2,2.93,2.93,0,0,0-3,.38,2.61,2.61,0,0,0-.84,1.88,15.3,15.3,0,0,0-.1,1.82V26a12.64,12.64,0,0,1-1.49,6.24A10.14,10.14,0,0,1,152.45,37a24.1,24.1,0,0,1-8.86.61,17.8,17.8,0,0,1-5.13-1.16c-4-1.61-6-4.63-6.42-8.81a25.31,25.31,0,0,1-.09-2.69V11.34a14,14,0,0,0-.1-1.68,3,3,0,0,0-3.14-2.81c-.86-.05-.86-.05-.86-.92V4.78c0-.38.12-.43.42-.39h15.62c.46,0,.58.14.55.57a9.37,9.37,0,0,0,0,1.34c0,.41-.08.59-.52.55a3.31,3.31,0,0,0-1,.09A2.6,2.6,0,0,0,140.84,9a6.32,6.32,0,0,0-.2,1.52V25.25a11.76,11.76,0,0,0,.65,3.82,6.54,6.54,0,0,0,5.4,4.62,11.69,11.69,0,0,0,5.83-.49,7.45,7.45,0,0,0,5.14-6.36,11.35,11.35,0,0,0,.12-1.77V13.49a19.7,19.7,0,0,0-.2-3.73,3.09,3.09,0,0,0-3.27-2.9h-.13c-.47,0-.62-.13-.58-.59s0-.83,0-1.25c0-.63,0-.63.61-.63h19.46c.5,0,.67.1.7.63A18.25,18.25,0,0,0,176,11.16c1.68,3.93,3.56,7.77,5.18,11.73Z"/><path class="cls-1" d="M110.59,4.4h9a.58.58,0,0,1,.65.45q3.06,8.36,6.15,16.71,1.82,5,3.65,9.91a8.42,8.42,0,0,0,1.16,2.2A2.86,2.86,0,0,0,133,35c.19,0,.22.16.22.31v1.83c0,.22-.08.33-.31.31H117.45c-.43,0-.61-.1-.57-.55s0-1,0-1.49c0-.29.09-.42.41-.45a5.78,5.78,0,0,0,1.9-.48,2.33,2.33,0,0,0,1.44-2.77A29.74,29.74,0,0,0,119.36,28c-.29-.85-.62-1.68-.92-2.53a.5.5,0,0,0-.55-.4h-9.76c-.22,0-.4,0-.48.28-.52,1.7-1.2,3.35-1.57,5.09a3.53,3.53,0,0,0,1.1,3.71,4,4,0,0,0,2,.82c.31,0,.41.17.4.46V37c0,.54-.1.51-.49.5H98.54A1.58,1.58,0,0,1,97.38,37a26.24,26.24,0,0,1-3.09-3.73c-2-2.74-3.83-5.61-5.79-8.38-.22-.31-.47-.61-.7-.92a3,3,0,0,0-2.9-1.23c-.26,0-.37.1-.36.37v8.32a5.44,5.44,0,0,0,.12,1A2.89,2.89,0,0,0,87.71,35c1,0,.84,0,.86.9v1.06c0,.35-.09.53-.5.52H72.41c-.63,0-.63,0-.63-.66V35.4c0-.29.08-.4.38-.4a6.73,6.73,0,0,0,1.53-.15A2.7,2.7,0,0,0,76,32.27a12.64,12.64,0,0,0,.09-1.53V10.94a7.44,7.44,0,0,0-.19-1.81,2.66,2.66,0,0,0-2-2,5.44,5.44,0,0,0-1.71-.22c-.31,0-.43-.07-.42-.4V4.78c0-.25.09-.36.34-.33H93.34a11.24,11.24,0,0,1,5.2,1.15,8,8,0,0,1,4.7,8.25c-.29,3.48-2.3,5.77-5.49,7.07a13.91,13.91,0,0,1-1.83.53c0,.13,0,.2.09.27,2.21,2.64,4.13,5.51,6.2,8.26.19.25.33.69.62.65s.26-.51.36-.79l8.42-22.63a.94.94,0,0,0,0-.82A16.25,16.25,0,0,1,110.59,4.4ZM84.54,13.57v6.25c0,.21-.07.48.3.48a18.47,18.47,0,0,0,5.2-.41A4.9,4.9,0,0,0,93.72,16a10.53,10.53,0,0,0,.17-3.34A5.85,5.85,0,0,0,89,7.05a25.61,25.61,0,0,0-4-.18c-.37,0-.46.12-.45.47C84.54,9.4,84.53,11.48,84.54,13.57Zm28.34-3.12a1.21,1.21,0,0,0-.28.59L109,21.45c-.19.58-.2.58.4.58h7.16c.55,0,.55,0,.36-.52L114.18,14Z"/><path class="cls-1" d="M63.93,20.23a22.4,22.4,0,0,1,3.34.9,9.1,9.1,0,0,1,4.68,3.36,7.06,7.06,0,0,1,.26,7.44,9.55,9.55,0,0,1-6.4,4.82,16.75,16.75,0,0,1-4.56.59H40.63c-.48,0-.66-.11-.61-.61a6.19,6.19,0,0,0,0-1.3c0-.44.16-.55.54-.57a6.35,6.35,0,0,0,1-.13c1.61-.34,2.36-1.28,2.46-3.09,0-.86,0-1.73,0-2.59V12.23A17.12,17.12,0,0,0,44,9.88a2.82,2.82,0,0,0-2.67-2.74l-.67-.08c-.7-.06-.7-.06-.69-.79V5.12c0-.38.13-.49.5-.49H61.58a15.29,15.29,0,0,1,6,1.18A6.63,6.63,0,0,1,72,11.63a6.82,6.82,0,0,1-3.37,6.7A13.82,13.82,0,0,1,64.41,20C64.23,20.06,64,20,63.93,20.23ZM53,26.73h0v3.65a9.13,9.13,0,0,0,.23,2.29A3,3,0,0,0,55.63,35a8.12,8.12,0,0,0,2.72.08,5.45,5.45,0,0,0,5-4.35,8.32,8.32,0,0,0,.14-3.24c-.42-2.93-2.24-5.42-5.58-5.75-1.46-.14-2.94,0-4.42-.07-.37,0-.46.11-.45.46Zm0-13.62v5.67c0,.32.08.45.42.45h3.46a5.32,5.32,0,0,0,3.71-1.45,5.79,5.79,0,0,0,1.6-5.52,5.87,5.87,0,0,0-4.78-5.07,25.24,25.24,0,0,0-3.88-.14c-.43,0-.54.12-.54.54,0,1.84,0,3.68,0,5.53Z"/><path class="cls-1" d="M211.57,31.24V27.49c0-.31.09-.41.4-.4h3.12c.33,0,.43.12.49.43a9.74,9.74,0,0,0,2.85,5.59,7.83,7.83,0,0,0,7.63,2,4.36,4.36,0,0,0,2.31-7.24,9.16,9.16,0,0,0-2.87-2.22c-2-1.06-4.05-1.84-6-2.83a19.15,19.15,0,0,1-6.22-4.43A8.13,8.13,0,0,1,214,7.05a13.19,13.19,0,0,1,7.09-3.26c5-.76,9.63.35,14.16,2.31a.58.58,0,0,1,.4.61q0,3.24,0,6.49c0,.37-.12.47-.47.46h-2.55c-.35,0-.49-.09-.57-.46a8.94,8.94,0,0,0-3.57-5.78A7,7,0,0,0,222,6.33a3.75,3.75,0,0,0-1.41,6.51,15.52,15.52,0,0,0,4.21,2.56c2.21,1,4.5,1.94,6.63,3.17a13.64,13.64,0,0,1,4.91,4.35,9.44,9.44,0,0,1-.53,10.84A10.93,10.93,0,0,1,230,37.1a23.31,23.31,0,0,1-8.1.59,35.74,35.74,0,0,1-9.45-2c-.89-.33-.89-.33-.89-1.26S211.57,32.31,211.57,31.24Z"/><path class="cls-1" d="M210.86,11a9.41,9.41,0,0,1-2.57,6.87,8.72,8.72,0,0,1-4.8,2.23c-.39.08-.79.11-1.19.16s-.43-.08-.4-.37v-.1a3.1,3.1,0,0,1,0-1.23c.17-.34.71-.2,1.08-.33a6.67,6.67,0,0,0,3.48-2.35,4.71,4.71,0,0,0,.82-2.81,1.53,1.53,0,0,0-1.5-1.56h0a5.53,5.53,0,0,1-2.14-.48,3.37,3.37,0,0,1-1.87-4,3.9,3.9,0,0,1,3-3.33,4.11,4.11,0,0,1,4.38,1.73,8.12,8.12,0,0,1,1.53,4.14A7.65,7.65,0,0,1,210.86,11Z"/><path class="cls-1" d="M237.32,33.17a4.52,4.52,0,1,1,9,.26,4.58,4.58,0,0,1-4.64,4.3A4.47,4.47,0,0,1,237.32,33.17Zm.94,0a3.55,3.55,0,0,0,3.5,3.6h0a3.59,3.59,0,0,0,0-7.18h0a3.53,3.53,0,0,0-3.54,3.52s0,.06,0,.09Z"/><path class="cls-1" d="M244,35.68h-.14c-1,.09-1,.09-1.06-.88a1.12,1.12,0,0,0-1.55-1c-.16.06-.16.18-.16.31v1.15c0,.38-.1.42-.41.42-.76,0-.76,0-.76-.74V31c0-.33.1-.45.44-.44h2.16a1.46,1.46,0,0,1,1,2.55c-.12.09-.18.18,0,.31a1.77,1.77,0,0,1,.44,1.42A4.26,4.26,0,0,0,244,35.68Zm-2.3-4.15c-.49-.09-.69.1-.62.6a4.17,4.17,0,0,1,0,.53.25.25,0,0,0,.23.27h0a3,3,0,0,0,1-.1.57.57,0,0,0,.42-.62.54.54,0,0,0-.45-.59,2.2,2.2,0,0,0-.6-.05Z"/><path class="cls-2" d="M31.83,33.33c.08.29,0,.51-.38.62a.64.64,0,0,1,.37.62c0,.09.08.25-.11.26s-.12-.13-.13-.23c-.08-.44-.16-.5-.57-.52-.25,0-.35.06-.34.32s.13.42-.12.42-.12-.27-.13-.42V33.2c0-.17.06-.25.24-.24h.58C31.5,33,31.75,33,31.83,33.33Zm-.27.18c0-.25-.18-.34-.58-.36s-.33.13-.29.36,0,.4.33.37.52,0,.54-.37Z"/><path class="cls-2" d="M31,32.2a1.69,1.69,0,0,1,1.75,1.63s0,.05,0,.08a1.7,1.7,0,1,1-1.7-1.76Zm1.56,1.71a1.52,1.52,0,0,0-1.52-1.52h0a1.52,1.52,0,0,0,0,3,1.54,1.54,0,0,0,1.54-1.48Z"/><path class="cls-2" d="M30.78,24.88a9.31,9.31,0,0,1-3,8.42,9.14,9.14,0,0,1-4.19,2.34,15.18,15.18,0,0,1-3.74.32c-1.14,0-2.28-.11-3.42,0-.31,0-.34-.07-.25-.33.53-1.49,1-3,1.56-4.46q2-5.68,3.94-11.39l2-5.65a.51.51,0,0,0,0-.42c-.25-.52-.49-1-.74-1.58a1.27,1.27,0,0,0-.38-.51c-.27-.21-.29-.53,0-.88A3.44,3.44,0,0,0,23.26,9a6.57,6.57,0,0,0,0-1.33,4.55,4.55,0,0,1,0-.82,2.78,2.78,0,0,0-.76-2.06l-.74-.9a1.86,1.86,0,0,1-.37-.68,7.49,7.49,0,0,1,3.46,1.37,8,8,0,0,1,3.61,6.64,8.18,8.18,0,0,1-2.37,6c-.37.39-.37.38.06.66A9.85,9.85,0,0,1,30.78,24.88Z"/><path class="cls-2" d="M23.2,13.44a.82.82,0,0,1,0,.79l-3.43,9.69c-.29.83-.6,1.65-.87,2.49-1.31,3.94-2.74,7.83-4.15,11.74a.62.62,0,0,1-.48.44c-.26,0-.36-.16-.47-.33a4.26,4.26,0,0,1-.49-1.3Q10.89,28.4,8.49,19.83C8,17.94,7.43,16.06,6.88,14.18A.45.45,0,0,1,7,13.73a2.77,2.77,0,0,0,.49-.93,3.21,3.21,0,0,1,.77-1.23c.14-.13.15-.23,0-.37a3.46,3.46,0,0,1-.58-2.63,4.42,4.42,0,0,0-.16-.93A5,5,0,0,1,9.13,3.17c.25-.23.53-.43.77-.67A5.3,5.3,0,0,1,12.9,1,15.41,15.41,0,0,1,15.33.5,7,7,0,0,1,21,3.32a10.83,10.83,0,0,1,1.6,2.46,3.19,3.19,0,0,1,.23,1.81,5.08,5.08,0,0,0,0,.78,4,4,0,0,1-.77,2.47.35.35,0,0,0,0,.49l0,0a4.19,4.19,0,0,1,.74,1.42A2.4,2.4,0,0,0,23.2,13.44Zm-.21,1c0-.07.07-.16,0-.22s-.17,0-.25,0a.91.91,0,0,0-.21.18c-.2.26-.29.59-.57.8-.07,0,0,.12,0,.13a2,2,0,0,0,1.08-.9Zm-.41-.35a.36.36,0,0,0,.26-.44h0a4.8,4.8,0,0,0-.93-2.16c-.09-.13-.18-.06-.26,0s-.31.33-.48.49a3.25,3.25,0,0,1-1.5,1,15.55,15.55,0,0,0-1.75.46,2.2,2.2,0,0,1-.81.1,2.34,2.34,0,0,0-1.13.2,1.85,1.85,0,0,1-1,.17,13.22,13.22,0,0,0-1.4-.12,3.14,3.14,0,0,1-1.76-.48.49.49,0,0,0-.29-.06,4.09,4.09,0,0,1-2.85-1.3c-.21-.23-.32-.17-.48,0a4.86,4.86,0,0,0-.84,1.85c-.16.57,0,.88.64,1a2.91,2.91,0,0,1,1.8,1.1,1.18,1.18,0,0,0,1,.57,1,1,0,0,1,.87.46,2.85,2.85,0,0,0,.68.81c.19.2.36.45.71.37a.22.22,0,0,1,.23.12,2.63,2.63,0,0,0,1.06.92c.21.09.3.36.43.56s.16.21.22.07.34-.42.4-.66a2.38,2.38,0,0,1,.57-.94A.36.36,0,0,1,16.3,18a.66.66,0,0,0,.64-.36c.14-.19.25-.42.5-.5a1.73,1.73,0,0,0,.78-.58.5.5,0,0,1,.39-.18,1.83,1.83,0,0,0,1-.24,2.34,2.34,0,0,1,.51-.33,1.2,1.2,0,0,0,.5-.39c.22-.24.48-.54.83-.48s.52-.17.61-.43a.65.65,0,0,1,.52-.44Zm-.05,1.48c0-.09.13-.19,0-.32s-.17.08-.26.13-.16.11-.1.21a.33.33,0,0,0,.17.16C22.52,15.83,22.5,15.69,22.53,15.57Zm-.26.69c.08-.24-.14-.31-.24-.44s-.22-.07-.33,0c-.54.36-1.08.73-1.62,1.08-.18.11-.16.21,0,.34.34.34.67.69,1,1,0,0,.08.12.18.12A.65.65,0,0,0,21.7,18c.17-.51.34-1.09.57-1.67Zm-.72-.64c.1-.1.17-.2,0-.32a.21.21,0,0,0-.29,0l0,0a2,2,0,0,0-.5.4c-.33.46-.92.49-1.32.86.09.19.22.31.48.13a2.8,2.8,0,0,1,.41-.25,6.55,6.55,0,0,0,1.26-.77Zm-.43,4c0-.16.11-.32.16-.45a.25.25,0,0,0-.39-.22l-1.62.94c-.18.1-.16.17,0,.3.3.31.58.64.88.95s.36.27.5-.11.3-.91.47-1.38Zm-.41-.86c.15-.09.14-.16,0-.29a8.81,8.81,0,0,0-1-1.12,1.07,1.07,0,0,0-.19-.13h-.11l-1.81,1c-.16.09-.09.16,0,.26.38.39.75.79,1.12,1.19a.2.2,0,0,0,.27.07h0l1.7-.94Zm-.47,3.34a.21.21,0,0,0,0-.23c-.07-.08-.14,0-.21,0l-1.45.76c-.15.08-.14.16,0,.27.31.38.63.77,1,1.2.24-.67.51-1.32.71-2Zm-.31-.51c.1-.07,0-.14,0-.2-.31-.37-.62-.75-.94-1.12a.2.2,0,0,0-.27-.07l-1.6.76c-.14.06-.13.12,0,.23.35.39.69.78,1,1.18,0,0,.1.13.21.11a9.56,9.56,0,0,0,1.6-.91Zm-.57-4.65a.36.36,0,0,0-.22-.23c-.2-.1-.48-.15-.61,0a3.58,3.58,0,0,1-1,.71,1,1,0,0,0-.28.29c0,.08-.1.16,0,.25a.2.2,0,0,0,.25,0c.57-.3,1.19-.51,1.74-.87,0,0,.1,0,.12-.12Zm-.9,7.91c1-.38,1-.39.35-1.21l-.06-.09c-.57-.76-.57-.76-1.4-.31l-.08.08a.81.81,0,0,1,.48.74c0,.08.1.17.17.25s.3.27.33.49.13.11.21.08Zm.25,1.44a5.36,5.36,0,0,0,.5-1.46l-.68.28a.28.28,0,0,0-.19.35l0,.07a1.94,1.94,0,0,1,.34.79Zm-.12-6.42-.08-.1-1.19-1.28c-.09-.09-.16-.07-.27,0-.38.17-.77.33-1.15.51a.48.48,0,0,0-.21.64l.86,1a.26.26,0,0,0,.33.08L18.41,20a.31.31,0,0,0,.18-.14ZM18.48,27a.52.52,0,0,0,0-.49,9.41,9.41,0,0,1-.58-1.72.32.32,0,0,0-.55-.19l-.92.86c-.12.11-.16.16,0,.27.68.43,1.35.87,2,1.3Zm-.13.42a.18.18,0,0,0-.09-.2,17.58,17.58,0,0,0-2.06-1.33.24.24,0,0,0-.34,0v0c-.36.41-.72.82-1.1,1.22-.13.15-.15.22,0,.33.6.34,1.19.7,1.79,1.06s.66.37,1.26-.15c.37-.25.4-.64.55-1ZM17.9,22.6v-.05c-.34-.33-.52-.8-.84-1.15a.61.61,0,0,0-.47-.27.54.54,0,0,0-.5.27c-.08.16.09.27.18.38.31.36.74.6.93,1.1.09.22.33-.06.5-.09s.19,0,.2-.16Zm-.37,7.1c0-.21,0-.26-.12-.31a.2.2,0,0,0-.27.06l-.66.73c-.59.65-.55.78.29,1.1h.09a.09.09,0,0,0,.12,0v0Zm-.25-5.57.11-.15c0-.1-.1-.11-.16-.14l-2.19-1a.27.27,0,0,0-.36.07q-.49.54-1,1.05c-.17.17-.12.25.07.34.71.36,1.41.73,2.11,1.1a.22.22,0,0,0,.3-.05ZM17,29.2a.14.14,0,0,0-.09-.15,20.3,20.3,0,0,0-2.35-1.37.2.2,0,0,0-.28,0v0l-1,1.29c-.11.14-.11.24.06.32.77.34,1.49.78,2.23,1.18a.24.24,0,0,0,.32,0c.34-.4.69-.78,1-1.17a.74.74,0,0,0,.12-.13Zm-.28-6c.14.07.19,0,.18-.12a1.1,1.1,0,0,0-.29-.67c-.15-.17-.38-.25-.52-.43s-.19-.25-.34-.14a1.7,1.7,0,0,0-.55.58c0,.06.07.09.11.11.47.29,1,.51,1.41.74Zm.08,8.52a.15.15,0,0,0,0-.18,4.09,4.09,0,0,0-.87-.54.22.22,0,0,0-.2.07l-1.13,1.5c-.06.08-.09.15,0,.22l1.38.82c.07,0,.16.09.21-.05a10.85,10.85,0,0,0,.61-1.77Zm-.62-13.15.52-.23C16.21,18.28,16.16,18.31,16.14,18.57Zm.29,2.25-.06-.08-.85-.93s-.09-.09-.14,0-.16.17-.09.24c.28.27.33.67.56,1,.08.11.16.1.27,0a.75.75,0,0,0,.31-.2Zm-.5,13.44a.2.2,0,0,0-.08-.27h0l-1.37-.91c-.11-.07-.2-.08-.28.05l-.85,1.4a.19.19,0,0,0,0,.27l.07,0,1.38.82a3.13,3.13,0,0,0,.46.21c.11,0,.14-.08.16-.15.18-.45.35-.94.52-1.42Zm-.33-8.44c.13-.14.13-.22-.07-.32-.69-.34-1.37-.7-2.06-1.06l-.16-.06c-.11,0-.15.07-.21.14A10.48,10.48,0,0,0,12,25.88c-.14.2-.07.26.11.34l2,.92a.27.27,0,0,0,.38-.06h0c.33-.41.7-.82,1.07-1.22Zm-.15-4.12a.46.46,0,0,0,.19-.46c-.2-.39-.32-.94-.86-1.19l-.9-.4c-.1,0-.2-.08-.29,0-.4.4-.86.75-1.22,1.19-.11.15-.11.24.08.33.54.25,1.07.52,1.6.78.79.43.79.43,1.4-.22ZM15.36,31c.11-.14.11-.21,0-.31-.49-.29-1-.57-1.49-.83-.94-.48-.94-.49-1.43.45a3.06,3.06,0,0,0-.37.8c0,.19,0,.37.26.48.57.27,1.12.56,1.67.87.18.09.28.07.39-.09.34-.43.7-.89,1-1.34Zm-.21,5.38c0-.12,0-.19-.12-.25a10,10,0,0,0-1.6-1c-.08,0-.18-.1-.25,0s0,.18,0,.26c.2.69.39,1.38.58,2.07a1.9,1.9,0,0,0,.3.72c.13.16.27.2.39,0a6.67,6.67,0,0,0,.7-1.77ZM14.38,22.7l.1-.13c0-.11-.09-.12-.15-.16l-2.14-1.07a.24.24,0,0,0-.34,0v0c-.35.41-.7.83-1.06,1.24-.14.15-.13.22.07.3l2.13.93a.3.3,0,0,0,.41-.08l1-1.07Zm-.45,5c.13-.16.1-.24-.07-.33-.62-.31-1.23-.66-1.87-.93l-.21-.08c-.11,0-.15.08-.2.14-.17.22-.35.44-.52.67a.51.51,0,0,0-.07.49c.13.45.28.88.82,1a3.66,3.66,0,0,1,.83.38c.18.1.26.05.36-.09.31-.38.61-.85.93-1.27Zm0,5.33c.06-.11.07-.19,0-.25L12.31,32c.25.89.48,1.69.73,2.6Zm-.17-13.94-.64-.66h0c-.42.08-.61-.25-.86-.48s-.17-.26-.35-.23a.69.69,0,0,0-.4.35c-.07.09,0,.12.07.15l2,1a.17.17,0,0,0,.15-.15Zm-.49.49c.1-.11.09-.17,0-.23l-1.92-1h-.09a.17.17,0,0,0-.15.07,14,14,0,0,0-1.25,1.31c-.1.11-.06.17.05.23.64.31,1.27.61,1.9.93a.2.2,0,0,0,.27-.05,12.65,12.65,0,0,1,1.16-1.27Zm-.4,4.83c.14-.18,0-.21-.12-.26-.62-.31-1.26-.58-1.9-.85-.31-.13-.51-.11-.7.2a.72.72,0,0,0-.13.69,3.9,3.9,0,0,1,.22.76.74.74,0,0,0,.52.64,8.14,8.14,0,0,1,.79.33.18.18,0,0,0,.19-.1Zm-.24,5.09c.07-.11.06-.19-.09-.26-.39-.15-.76-.32-1.22-.52.2.67.37,1.26.57,2Zm-1-12.09a.23.23,0,0,0-.05-.2.76.76,0,0,0-.71-.36.68.68,0,0,1-.67-.24c-.08-.09-.17-.18-.25-.28a.37.37,0,0,0-.57,0,2.65,2.65,0,0,1-.4.42c-.16.14-.09.22.07.29l1.89.85a.58.58,0,0,0,.65-.5Zm-.08,3.93c.16-.18.1-.25-.09-.34l-1.72-.83c-.1,0-.21-.14-.3,0s-.4.26-.32.52.16.82.25,1.23a.94.94,0,0,0,.81.85.29.29,0,0,0,.25-.09c.33-.47.7-.92,1.08-1.36Zm-.67,5.6c.63-.64.61-.82-.1-1h0c-.15-.06-.2,0-.16.14a4.37,4.37,0,0,0,.22.84Zm-.12-8.61c.11-.11.08-.18,0-.23-.67-.29-1.33-.59-2-.87-.23-.1-.54.17-.46.4.15.43.18.89.29,1.33a.91.91,0,0,0,.75.74.26.26,0,0,0,.24-.1,11.33,11.33,0,0,1,1.14-1.29Zm-.89,5c.28-.34.27-.36-.17-.46,0,.19,0,.36.13.47ZM9.29,15.9c.12-.13.08-.16-.05-.24-.56-.35-1.21-.49-1.82-.92.16.6.3,1.11.42,1.61a.55.55,0,0,0,.37.42.44.44,0,0,0,.48-.17,8.48,8.48,0,0,1,.56-.69Z"/><path class="cls-3" d="M23,14.21c.07.06,0,.15,0,.22a2,2,0,0,1-1,.91c-.08,0-.12-.08,0-.13.28-.21.37-.54.57-.8a.91.91,0,0,1,.21-.18C22.82,14.18,22.91,14.14,23,14.21Z"/><path class="cls-4" d="M22.84,13.63a.36.36,0,0,1-.25.45h0a.65.65,0,0,0-.42.46c-.09.26-.21.49-.61.43s-.61.24-.83.48a1.2,1.2,0,0,1-.5.39,2.34,2.34,0,0,0-.51.33,1.83,1.83,0,0,1-1,.24.5.5,0,0,0-.39.18,1.73,1.73,0,0,1-.78.58c-.25.08-.36.31-.5.5a.66.66,0,0,1-.64.36.36.36,0,0,0-.33.16,2.38,2.38,0,0,0-.57.94c-.06.24-.31.4-.4.66s-.17,0-.22-.07-.22-.47-.43-.56a2.63,2.63,0,0,1-1.06-.92c-.05-.07-.17-.14-.23-.12-.35.08-.52-.17-.71-.37a2.85,2.85,0,0,1-.68-.81,1,1,0,0,0-.87-.46,1.18,1.18,0,0,1-1-.57,2.91,2.91,0,0,0-1.8-1.1c-.6-.14-.8-.45-.64-1A4.86,4.86,0,0,1,8.3,12c.16-.19.27-.25.48,0a4.09,4.09,0,0,0,2.85,1.3.49.49,0,0,1,.29.06,3.14,3.14,0,0,0,1.76.48,13.22,13.22,0,0,1,1.4.12,1.85,1.85,0,0,0,1-.17,2.34,2.34,0,0,1,1.13-.2,2.2,2.2,0,0,0,.81-.1A15.55,15.55,0,0,1,19.77,13a3.25,3.25,0,0,0,1.5-1c.17-.16.32-.33.48-.49s.17-.14.26,0A4.8,4.8,0,0,1,22.84,13.63Z"/><path class="cls-3" d="M22.58,15.3c.08.13,0,.23,0,.32s0,.21-.14.18a.33.33,0,0,1-.17-.16c-.06-.1,0-.16.1-.21S22.47,15.29,22.58,15.3Z"/><path class="cls-3" d="M22,15.87c.1.13.32.2.24.44-.21.58-.4,1.16-.6,1.75-.08.22-.3.26-.44.38s-.13-.07-.18-.12c-.33-.34-.66-.69-1-1-.13-.13-.15-.23,0-.34.54-.35,1.08-.72,1.62-1.08C21.81,15.8,21.92,15.73,22,15.87Z"/><path class="cls-3" d="M21.6,15.35c.12.12,0,.22,0,.32a6.55,6.55,0,0,1-1.21.81,2.8,2.8,0,0,0-.41.25c-.26.18-.39.06-.48-.13.4-.37,1-.4,1.32-.86a2,2,0,0,1,.5-.4A.21.21,0,0,1,21.6,15.35Z"/><path class="cls-3" d="M21.28,19.2a2,2,0,0,1-.16.45c-.17.47-.33,1-.51,1.41s-.24.4-.5.11-.58-.64-.88-.95c-.12-.13-.14-.2,0-.3L20.85,19a.25.25,0,0,1,.43.22Z"/><path class="cls-3" d="M20.75,18.5c.1.13.11.2,0,.29q-.84.47-1.65,1a.2.2,0,0,1-.28,0v0c-.37-.4-.74-.8-1.12-1.19-.09-.1-.16-.17,0-.26l1.81-1h.11a1.07,1.07,0,0,1,.19.13A8.81,8.81,0,0,1,20.75,18.5Z"/><path class="cls-3" d="M20.23,21.9a.21.21,0,0,1,0,.23c-.23.65-.47,1.3-.72,2-.37-.43-.69-.82-1-1.2-.09-.11-.1-.19,0-.27L20,21.9C20.09,21.89,20.16,21.82,20.23,21.9Z"/><path class="cls-3" d="M19.91,21.42c.06.06.12.13,0,.2a9.56,9.56,0,0,1-1.63.89.27.27,0,0,1-.21-.11c-.34-.4-.68-.79-1-1.18-.09-.11-.1-.17,0-.23l1.6-.76a.2.2,0,0,1,.27.07C19.29,20.67,19.6,21.05,19.91,21.42Z"/><path class="cls-3" d="M19.14,16.74a.36.36,0,0,1,.22.23c0,.12-.11.16-.18.2-.55.36-1.17.57-1.74.87a.2.2,0,0,1-.25,0c-.07-.09,0-.17,0-.25a1,1,0,0,1,.28-.29,3.58,3.58,0,0,0,1-.71A.53.53,0,0,1,19.14,16.74Z"/><path class="cls-3" d="M18.81,23.67c.62.82.62.83-.35,1.21-.08,0-.19.11-.21-.05s-.21-.34-.33-.49-.17-.17-.17-.25a.81.81,0,0,0-.48-.74l.08-.08c.83-.45.83-.45,1.4.31Z"/><path class="cls-3" d="M19.21,24.86a5.36,5.36,0,0,1-.5,1.46,1.94,1.94,0,0,0-.34-.76.28.28,0,0,1,.09-.39l.07,0Z"/><path class="cls-3" d="M18.51,19.8l.08.1a.31.31,0,0,1-.18.16l-1.53.68a.26.26,0,0,1-.33-.08l-.86-1A.48.48,0,0,1,15.9,19c.38-.18.77-.34,1.15-.51.11,0,.18-.06.27,0Z"/><path class="cls-3" d="M18.45,26.51a.52.52,0,0,1,0,.49c-.7-.44-1.37-.87-2.06-1.27-.18-.11-.14-.16,0-.27l.92-.86a.32.32,0,0,1,.55.19A9.41,9.41,0,0,0,18.45,26.51Z"/><path class="cls-3" d="M18.26,27.22a.18.18,0,0,1,.09.2,2.55,2.55,0,0,1-.5,1c-.6.52-.59.54-1.26.15s-1.19-.72-1.79-1.06c-.2-.11-.18-.18,0-.33.38-.4.74-.81,1.1-1.22a.24.24,0,0,1,.33-.07h0C16.93,26.27,17.57,26.78,18.26,27.22Z"/><path class="cls-3" d="M17.86,22.57v.05c0,.16-.15.17-.24.19s-.41.31-.5.09c-.19-.5-.62-.74-.93-1.1-.09-.11-.26-.22-.18-.38a.54.54,0,0,1,.5-.27.61.61,0,0,1,.47.27C17.34,21.78,17.52,22.25,17.86,22.57Z"/><path class="cls-3" d="M17.41,29.42c.08.05.15.1.12.31L17,31.28a.09.09,0,0,1-.1.08h-.12c-.84-.32-.88-.45-.29-1.1l.66-.73A.2.2,0,0,1,17.41,29.42Z"/><path class="cls-3" d="M17.39,24l-.11.15-1.16,1.16a.22.22,0,0,1-.3.05c-.7-.37-1.4-.74-2.11-1.1-.19-.09-.24-.17-.07-.34q.53-.51,1-1.05a.27.27,0,0,1,.36-.07l2.21,1.06C17.29,23.9,17.37,23.91,17.39,24Z"/><path class="cls-3" d="M16.87,29.08a.14.14,0,0,1,.09.15l-.09.12c-.35.39-.7.77-1,1.17-.11.13-.2.11-.32,0-.74-.4-1.46-.84-2.23-1.18-.17-.08-.17-.18-.06-.32l1-1.29a.2.2,0,0,1,.27-.07h0A20.3,20.3,0,0,1,16.87,29.08Z"/><path class="cls-3" d="M16.86,23.15c0,.15,0,.19-.18.12-.46-.23-.94-.45-1.41-.67,0,0-.13,0-.11-.11a1.7,1.7,0,0,1,.55-.58c.15-.11.26,0,.34.14s.37.26.52.43A1.1,1.1,0,0,1,16.86,23.15Z"/><path class="cls-3" d="M16.72,31.57a.15.15,0,0,1,0,.18c-.16.62-.36,1.22-.58,1.82,0,.14-.14.09-.21.05l-1.38-.82c-.12-.07-.09-.14,0-.22l1.09-1.48c.06-.08.12-.11.2-.07A4.09,4.09,0,0,1,16.72,31.57Z"/><path class="cls-3" d="M16.66,18.37l-.52.23C16.16,18.31,16.21,18.28,16.66,18.37Z"/><path class="cls-3" d="M16.37,20.77l.06.08a.75.75,0,0,1-.31.2c-.11,0-.19.06-.27,0-.23-.29-.28-.69-.56-1-.07-.07,0-.17.09-.24s.1,0,.14,0Z"/><path class="cls-3" d="M15.83,34a.2.2,0,0,1,.11.26v0c-.17.48-.34,1-.52,1.45a.15.15,0,0,1-.16.15,3.13,3.13,0,0,1-.46-.21l-1.38-.82a.19.19,0,0,1-.08-.31l.85-1.4c.08-.13.17-.12.28-.05Z"/><path class="cls-3" d="M15.53,25.57c.2.1.2.18.07.32-.37.4-.74.81-1.09,1.22a.27.27,0,0,1-.37.07h0c-.66-.32-1.32-.62-2-.92-.18-.08-.25-.14-.11-.34a10.48,10.48,0,0,1,1.08-1.35c.06-.07.1-.16.21-.14l.16.06C14.16,24.83,14.84,25.19,15.53,25.57Z"/><path class="cls-3" d="M15.64,21.27a.46.46,0,0,1-.19.46c-.61.65-.61.65-1.4.26-.53-.26-1.06-.53-1.6-.78-.19-.09-.19-.18-.08-.33.36-.44.82-.79,1.22-1.19.09-.09.19-.05.29,0l.9.4C15.32,20.33,15.44,20.88,15.64,21.27Z"/><path class="cls-3" d="M15.31,30.71c.16.1.16.17,0,.31-.35.45-.68.91-1,1.37-.11.16-.21.18-.39.09-.55-.31-1.1-.6-1.67-.87-.22-.11-.22-.29-.26-.48a3.06,3.06,0,0,1,.37-.8c.49-.94.49-.93,1.43-.45C14.33,30.14,14.82,30.42,15.31,30.71Z"/><path class="cls-3" d="M15,36.15c.09.06.17.13.12.25a6.67,6.67,0,0,1-.7,1.78c-.12.22-.26.18-.39,0a1.9,1.9,0,0,1-.3-.72c-.19-.69-.38-1.38-.58-2.07,0-.08-.07-.19,0-.26s.17,0,.25,0A10,10,0,0,1,15,36.15Z"/><path class="cls-3" d="M14.48,22.57l-.1.13c-.33.37-.67.72-1,1.1a.3.3,0,0,1-.41.08L10.84,23c-.2-.08-.21-.15-.07-.3.36-.41.71-.83,1.06-1.24a.24.24,0,0,1,.33-.08h0l2.14,1.07C14.39,22.48,14.48,22.49,14.48,22.57Z"/><path class="cls-3" d="M13.86,27.35c.17.09.2.17.07.33-.32.42-.62.85-.93,1.27-.1.14-.18.19-.36.09a3.66,3.66,0,0,0-.83-.38c-.54-.14-.69-.57-.82-1a.51.51,0,0,1,.07-.49c.17-.23.35-.45.52-.67.05-.06.09-.14.2-.14l.21.08C12.63,26.69,13.24,27,13.86,27.35Z"/><path class="cls-3" d="M13.85,32.76c.12.06.11.14,0,.25L13,34.57c-.25-.91-.48-1.71-.73-2.6Z"/><path class="cls-3" d="M13.09,18.41l.64.66c0,.12-.1.14-.2.09l-2-1a.09.09,0,0,1-.07-.15.69.69,0,0,1,.4-.35c.18,0,.24.13.35.23s.44.56.86.48Z"/><path class="cls-3" d="M13.21,19.33c.12.06.13.12,0,.23-.41.41-.81.83-1.22,1.25a.2.2,0,0,1-.27.05c-.63-.32-1.26-.62-1.9-.93-.11-.06-.15-.12-.05-.23A14,14,0,0,1,11,18.39a.17.17,0,0,1,.15-.07h.09Z"/><path class="cls-3" d="M12.72,24.13c.1.05.26.08.12.26L11.71,25.8a.18.18,0,0,1-.19.1,8.14,8.14,0,0,0-.79-.33.74.74,0,0,1-.52-.64,3.9,3.9,0,0,0-.22-.76.72.72,0,0,1,.13-.69c.19-.31.39-.33.7-.2C11.46,23.57,12.1,23.82,12.72,24.13Z"/><path class="cls-3" d="M12.51,29.22c.15.07.16.15.09.26l-.74,1.17c-.2-.69-.37-1.28-.57-2A9.89,9.89,0,0,0,12.51,29.22Z"/><path class="cls-2" d="M12.6,35.57c.07.27,0,.34-.26.34H1c-.27,0-.36-.06-.36-.34V32c0-.28.1-.34.36-.33a3.27,3.27,0,0,0,2.42-.85,3.31,3.31,0,0,0,.94-2.59V9.75A1.69,1.69,0,0,0,4,8.64,3.41,3.41,0,0,0,1.23,7.26H.92c-.31,0-.43,0-.42-.4V3.47c0-.18,0-.3.25-.29H8.68A6.42,6.42,0,0,0,7.36,8.57a3.84,3.84,0,0,1,0,.68,3.54,3.54,0,0,0,.47,1.83.42.42,0,0,1,0,.51A4.9,4.9,0,0,0,7,13.09a.27.27,0,0,1-.06.12,1.39,1.39,0,0,0-.28,1.6C7.88,18.92,9,23,10.21,27.16Q11.41,31.41,12.6,35.57Z"/><path class="cls-3" d="M11.54,17.19a.23.23,0,0,1,.05.2.58.58,0,0,1-.64.51h0L9,17c-.16-.07-.23-.15-.07-.29a2.65,2.65,0,0,0,.4-.42c.2-.27.37-.24.57,0s.17.19.25.28a.68.68,0,0,0,.67.24A.76.76,0,0,1,11.54,17.19Z"/><path class="cls-3" d="M11.42,21c.19.09.25.16.09.34-.38.44-.75.89-1.12,1.33a.29.29,0,0,1-.25.09.94.94,0,0,1-.81-.85c-.09-.41-.14-.83-.25-1.23s.2-.35.32-.52.2,0,.3,0Z"/><path class="cls-3" d="M10.74,25.88c.71.22.73.4.1,1a4.37,4.37,0,0,1-.29-.91c0-.13,0-.2.16-.14Z"/><path class="cls-3" d="M10.68,18.08c.12,0,.15.12,0,.23-.41.42-.82.84-1.22,1.27a.26.26,0,0,1-.24.1.91.91,0,0,1-.75-.74c-.11-.44-.14-.9-.29-1.33-.08-.23.23-.5.46-.4C9.35,17.49,10,17.79,10.68,18.08Z"/><path class="cls-3" d="M9.66,22.88c.44.1.45.12.17.46C9.7,23.23,9.72,23.06,9.66,22.88Z"/><path class="cls-3" d="M9.2,15.67c.13.08.17.11.05.24s-.39.47-.6.7a.44.44,0,0,1-.48.17.55.55,0,0,1-.37-.42c-.12-.5-.26-1-.42-1.61C8,15.18,8.64,15.32,9.2,15.67Z"/><path class="cls-5" d="M21.41,11.26l-.46.46a3.15,3.15,0,0,1-1.45.93,15.29,15.29,0,0,0-1.69.44,2.17,2.17,0,0,1-.78.09,2.3,2.3,0,0,0-1.09.19,1.82,1.82,0,0,1-.9.2,13,13,0,0,0-1.35-.11A3.08,3.08,0,0,1,12,13a.48.48,0,0,0-.28-.06,4,4,0,0,1-2.76-1.23l-.45-.64a3.23,3.23,0,0,1-.64-2.5,4.12,4.12,0,0,0-.15-.88A4.67,4.67,0,0,1,9.3,3.45c.24-.22.51-.41.74-.64a5.16,5.16,0,0,1,2.89-1.45A15.18,15.18,0,0,1,15.28.91a6.86,6.86,0,0,1,5.56,2.66A10.25,10.25,0,0,1,22.39,5.9a3,3,0,0,1,.22,1.72,4.72,4.72,0,0,0,0,.74,3.73,3.73,0,0,1-.74,2.34"/></svg>