<svg id="Layer_1" data-name="Layer 1" xmlns="http://www.w3.org/2000/svg" viewBox="0 0 214.43 133.38"><defs><style>.cls-1{fill:#7d7935;}.cls-2{fill:#aaa76d;}.cls-3{fill:#aca86e;}.cls-4{fill:#d7d3b3;}.cls-5{fill:#d5d1ae;}.cls-6{fill:#474503;}.cls-7{fill:#fdeea6;}.cls-8{fill:#464403;}.cls-9{fill:#c8730a;}.cls-10{fill:#fdfcfc;}.cls-11{fill:#fdfdfc;}.cls-12{fill:#fcfcfc;}.cls-13{fill:#fefefe;}.cls-14{fill:#fdfdfd;}.cls-15{fill:#fcfcfb;}.cls-16{fill:#fcfbf9;}.cls-17{fill:#484604;}.cls-18{fill:#494705;}</style></defs><title>Brio Tuscan Grille</title><path class="cls-1" d="M104.37.5h6a.14.14,0,0,1-.06.19h0a1.12,1.12,0,0,1-.57.11H105a1.13,1.13,0,0,1-.57-.11.14.14,0,0,1-.07-.18Z"/><path class="cls-2" d="M104.37.5V.6A1.46,1.46,0,0,1,103,.69.13.13,0,0,1,103,.51h1.4Z"/><path class="cls-3" d="M110.38.6s0-.07,0-.1h1.29a.13.13,0,0,1,0,.18h0A1.27,1.27,0,0,1,110.38.6Z"/><path class="cls-4" d="M103,.5V.6a.93.93,0,0,1-1.17,0,.3.3,0,0,0,0-.1Z"/><path class="cls-5" d="M111.67.59a.53.53,0,0,0,0-.09h1.06V.6A.77.77,0,0,1,111.67.59Z"/><path class="cls-6" d="M111.67.59h1.06c4.23.13,8.45.41,12.65.87A162.72,162.72,0,0,1,141.49,4a140.35,140.35,0,0,1,24.76,7.54,103.9,103.9,0,0,1,24.54,14A67,67,0,0,1,206.86,43a45.85,45.85,0,0,1,6.6,17.55A42.76,42.76,0,0,1,209.2,86.4a60.58,60.58,0,0,1-14.54,18.41,97.67,97.67,0,0,1-25.94,16,140,140,0,0,1-30.46,9.2,167.14,167.14,0,0,1-24.9,2.71,172.06,172.06,0,0,1-19.72-.41,152.7,152.7,0,0,1-42.1-9.14,108.08,108.08,0,0,1-25.87-13.73A69.37,69.37,0,0,1,8.39,91.86,46.39,46.39,0,0,1,1.06,73.61,42.57,42.57,0,0,1,4.64,48.44,56.57,56.57,0,0,1,15.3,33.06a88.15,88.15,0,0,1,24-17.37,134.65,134.65,0,0,1,35.46-12,161.46,161.46,0,0,1,24.63-3L101.8.63h9.89Z"/><path class="cls-7" d="M103.42,131.1C99,131,93,130.65,87.13,129.95a150.2,150.2,0,0,1-31-6.93A112,112,0,0,1,29.56,110.1,71.65,71.65,0,0,1,11.25,92.81,46,46,0,0,1,3.08,74.6,40.58,40.58,0,0,1,5.83,50.2,53.13,53.13,0,0,1,15.5,35.46a84.42,84.42,0,0,1,23.34-17.6A128.84,128.84,0,0,1,68.95,6.72,156.22,156.22,0,0,1,88,3.36c4.79-.55,9.59-.87,14.41-1q8-.24,16,.29c18.23,1.21,35.83,5.11,52.52,12.9a91.89,91.89,0,0,1,23.7,15.58,56.89,56.89,0,0,1,14,19,40.88,40.88,0,0,1,3.53,17.35,42.06,42.06,0,0,1-4.62,18.21,55.91,55.91,0,0,1-10,13.81A88.31,88.31,0,0,1,172,117.39a135.74,135.74,0,0,1-34.54,11,163.86,163.86,0,0,1-21.31,2.47C112.42,131.1,108.68,131.15,103.42,131.1Z"/><path class="cls-8" d="M108.48,5.27a159.31,159.31,0,0,1,16.7,1,147.07,147.07,0,0,1,28.27,5.91,111,111,0,0,1,28.87,13.63,68.41,68.41,0,0,1,17.56,16.56,43.31,43.31,0,0,1,7.74,17.45,37.88,37.88,0,0,1-2.33,21.8,50.44,50.44,0,0,1-10.42,15.65,84.6,84.6,0,0,1-24.62,17.39,131.11,131.11,0,0,1-33,10.7,158,158,0,0,1-21.72,2.6c-4.17.21-8.34.29-12.51.17a151.71,151.71,0,0,1-44.71-7.7,109.79,109.79,0,0,1-25.53-12.25,68.9,68.9,0,0,1-18.31-17A43.15,43.15,0,0,1,6.85,74.24,38.18,38.18,0,0,1,9.92,50.09a52.09,52.09,0,0,1,10-14.23A84.94,84.94,0,0,1,43.43,19.19a128,128,0,0,1,28.3-10,150.84,150.84,0,0,1,18-3,146.36,146.36,0,0,1,14.65-.89C105.74,5.26,107.11,5.27,108.48,5.27Z"/><path class="cls-7" d="M123.55,58.51V41.58c0-2.29-1-3.37-3.28-3.59a13.27,13.27,0,0,0-2-.13c-.34,0-.48,0-.48-.44,0-1,0-1,1-1H135.4c.21,0,.54-.15.61.15a2.18,2.18,0,0,1,0,1.15c-.05.15-.28.08-.43.08a13.49,13.49,0,0,0-2.92.25A2.88,2.88,0,0,0,130.11,41V75.18a8.4,8.4,0,0,0,0,.88,2.84,2.84,0,0,0,2.46,2.8,10.47,10.47,0,0,0,3,.25c.7,0,.49.42.52.77s0,.64-.52.64H110.83a.78.78,0,0,1-.77-.48c-2.35-4-4.75-8.06-7.43-11.9q-1.6-2.29-3.41-4.41a8.47,8.47,0,0,0-5.36-2.87c-.71-.11-1.44-.15-2.16-.25-.43-.06-.57.07-.56.52v14.4c0,2.52.88,3.42,3.41,3.54a13,13,0,0,0,1.53,0c.53-.06.56.14.51.54a1.24,1.24,0,0,0,0,.35c.07.43-.14.51-.53.51H80.49c-.42,0-.59-.08-.57-.54,0-.84,0-.83.85-.85a10.19,10.19,0,0,0,2-.18,2.11,2.11,0,0,0,1.82-2.07v-35A8.66,8.66,0,0,0,84.47,40a2.41,2.41,0,0,0-2.34-2.16,13.16,13.16,0,0,0-1.58-.1c-.33,0-.43-.1-.44-.43,0-1,0-1,1-1,5.68-.07,11.36-.21,17-.21a20,20,0,0,1,10.43,2.72,10.23,10.23,0,0,1,5.26,9.28,10.74,10.74,0,0,1-2.23,7.13,13.18,13.18,0,0,1-5.11,3.65c-.7.31-1.41.58-2.13.83-.37.13-.5.22-.17.59a69.88,69.88,0,0,1,8.29,11.15,44.65,44.65,0,0,1,2.18,4A5.64,5.64,0,0,0,119.32,79c2.68.24,4.23-1,4.22-3.39C123.54,70,123.55,64.23,123.55,58.51Z"/><path class="cls-7" d="M66.25,51.65a19.67,19.67,0,0,1,3.38.81c5.26,1.93,8.63,5.55,9.47,11.16.69,4.58-.29,8.74-4,11.92A19,19,0,0,1,67,79.73a43.2,43.2,0,0,1-9.64,1.13c-6.4.07-12.8-.27-19.21-.3-.36,0-.46-.11-.47-.47,0-1.19,0-1.17,1.13-1.26a10.08,10.08,0,0,0,2.65-.45,2.65,2.65,0,0,0,1.94-2.64V32.6c0-2.71-.79-3.54-3.53-3.73-.62,0-1.24-.15-1.87-.2-.25,0-.31-.13-.33-.37-.09-1.33-.07-1.36,1.35-1.37,4,0,8.07,0,12.1-.08,2.6,0,5.21-.13,7.81,0a29.45,29.45,0,0,1,9.48,1.76,10.8,10.8,0,0,1,7.06,8.15,12,12,0,0,1-2.61,11.1,12.77,12.77,0,0,1-6,3.62l-.45.14S66.36,51.57,66.25,51.65Z"/><path class="cls-7" d="M180.55,59.08a24.16,24.16,0,0,1-5.34,15,19.11,19.11,0,0,1-10.32,6.46,26.68,26.68,0,0,1-14.21-.07,18.62,18.62,0,0,1-12.36-11,25.42,25.42,0,0,1,.42-22.08c2.55-5.22,6.91-8.48,12.37-10.23,8.14-2.6,15.59-1.08,22.14,4.39a20.38,20.38,0,0,1,6.83,12.39A34.33,34.33,0,0,1,180.55,59.08Z"/><path class="cls-9" d="M108.83,88.18h69.59c.34,0,.8-.15.73.5,0,.25-.12.35-.36.33H39.38c-.33,0-.86.23-.83-.47,0-.24.09-.37.35-.35h69.93Z"/><path class="cls-10" d="M116.08,106.81c-.6-.33-1.06-.49-1.3-.94s-.25-.62.15-.84a2.18,2.18,0,0,0,.32-.25c.68-.57.68-.57.08-1.16a2.11,2.11,0,0,1-.51-2.37A2.46,2.46,0,0,1,117,99.61a2.76,2.76,0,0,1,1.5.2,4.61,4.61,0,0,0,2.34.38c.22,0,.45,0,.42.31s-.15.36-.41.38c-.87.07-.87.08-.92,1a2.54,2.54,0,0,1-2.62,2.46l-.38,0a.85.85,0,0,0-.75.18c-.22.21-.42.43-.34.76a.71.71,0,0,0,.65.51,14.38,14.38,0,0,0,2.11,0,6.39,6.39,0,0,1,1.11.08,1.63,1.63,0,0,1,1.41,2,2.71,2.71,0,0,1-1.09,1.82,4.7,4.7,0,0,1-4.27.78,1.85,1.85,0,0,1-1.17-.92,1.22,1.22,0,0,1,.24-1.63A12.65,12.65,0,0,1,116.08,106.81Z"/><path class="cls-11" d="M107.41,103.3V105c0,.56.15.8.69.81.17,0,.32,0,.31.25s-.18.23-.34.21a11.09,11.09,0,0,0-2.58,0c-.14,0-.28,0-.31-.18s.07-.27.26-.28c.59,0,.73-.4.72-.93v-3a1.31,1.31,0,0,0-.92-1.41,2,2,0,0,0-1.95.47,1,1,0,0,0-.21.66v3.52c0,.45.24.63.64.68.16,0,.32,0,.3.25s-.19.23-.34.21a11,11,0,0,0-2.52,0c-.16,0-.33,0-.35-.2s.13-.25.3-.26c.51,0,.71-.29.71-.8v-3.58a.93.93,0,0,0-.47-.88c-.3-.18-.25-.35.07-.49a10.63,10.63,0,0,0,1.16-.55c.4-.23.45-.07.46.3,0,.64,0,.64.57.35a3.87,3.87,0,0,1,1.77-.57,1.79,1.79,0,0,1,2,1.88v1.82Z"/><path class="cls-11" d="M72.61,99.57v5.34c0,.51.23.77.77.67.15,0,.37-.14.4.16s-.16.27-.34.31a9.85,9.85,0,0,0-1.69.46c-.32.13-.43,0-.41-.32a4.33,4.33,0,0,0,0-.52,1.13,1.13,0,0,0-.62.25,3.54,3.54,0,0,1-2.07.5,1.51,1.51,0,0,1-1.57-1.36,24.6,24.6,0,0,1-.08-3.28c0-.58.16-1.23-.61-1.55-.23-.1-.15-.37.13-.38a6.73,6.73,0,0,0,1.5-.24c.35-.1.24.2.24.36v4.11a1.37,1.37,0,0,0,.77,1.46,1.91,1.91,0,0,0,1.93-.31,1,1,0,0,0,.38-.88v-3.17a.77.77,0,0,0-.56-.85.27.27,0,0,1-.29-.31c0-.21.26-.19.42-.19A6.27,6.27,0,0,0,72.61,99.57Z"/><path class="cls-10" d="M97,102.78a13,13,0,0,0,0,2.11c.13.75.39.93,1.11.72.1,0,.22-.14.3,0s0,.21-.12.3a1.53,1.53,0,0,1-2.16.15L96,106a.44.44,0,0,0-.6-.16l-.08.06a2.58,2.58,0,0,1-1.64.54,1.5,1.5,0,0,1-1.41-1.2,1.2,1.2,0,0,1,.82-1.49h0c.73-.32,1.48-.59,2.24-.85a.56.56,0,0,0,.45-.64v-.82a1.08,1.08,0,0,0-1-1.18h0a1,1,0,0,0-1.16.93,1,1,0,0,1-1.1.64c-.29-.07-.24-.28-.17-.46a2.12,2.12,0,0,1,.79-.92,3.74,3.74,0,0,1,2.38-.84A1.43,1.43,0,0,1,97,101s0,.07,0,.1v.88C97,102.23,97,102.5,97,102.78Z"/><path class="cls-12" d="M152.63,102.09h-1.76c-.26,0-.41.09-.41.37,0,1.67,1,3.12,2.74,3.05a1.79,1.79,0,0,0,1.21-.5c.13-.12.23-.41.45-.2s0,.36-.14.5a3.06,3.06,0,0,1-4.74,0,3.73,3.73,0,0,1,2-5.69,2.55,2.55,0,0,1,2.68.89,1.7,1.7,0,0,1,.3.75c.08.65,0,.76-.65.78s-1.1,0-1.64,0Z"/><path class="cls-13" d="M139.42,100v4.82c0,.56.07,1,.79,1,.15,0,.27,0,.26.23a.23.23,0,0,1-.23.23h0a13.06,13.06,0,0,0-2.75,0c-.16,0-.27,0-.3-.2s.07-.26.23-.25c.75,0,.84-.48.84-1.05V96.83a1.14,1.14,0,0,0-.52-1.1c-.35-.21-.32-.39.09-.52a13,13,0,0,0,1.25-.49c.29-.13.42-.11.41.27v5Z"/><path class="cls-14" d="M145.42,100v4.7c0,.6,0,1.12.84,1.11a.19.19,0,0,1,.21.21.22.22,0,0,1-.25.24,14,14,0,0,0-2.81,0,.22.22,0,0,1-.25-.25c0-.17.08-.21.22-.21.8,0,.83-.54.83-1.12V96.83a1.16,1.16,0,0,0-.51-1.1c-.38-.24-.25-.41.12-.52a6.27,6.27,0,0,0,1.09-.42c.45-.23.56-.12.56.36V100Z"/><path class="cls-10" d="M87.74,99.6a3,3,0,0,1,1.11.15.77.77,0,0,1,.49,1.11c-.15.29-.34.38-.59.12a2,2,0,0,0-2.59-.52A2.63,2.63,0,0,0,85,103.15a2.6,2.6,0,0,0,2.79,2.36,2,2,0,0,0,1.3-.6c.13-.12.22-.49.48-.27s0,.43-.14.6a3,3,0,0,1-3.11,1.16,2.81,2.81,0,0,1-2.38-2.15C83.25,101.74,85,99.6,87.74,99.6Z"/><path class="cls-15" d="M78.3,106.43h-.41a1.47,1.47,0,0,1-1.48-2,.23.23,0,0,1,.21-.24c.13,0,.21.07.25.19a2.91,2.91,0,0,0,.52,1,1.4,1.4,0,0,0,1.52.52.89.89,0,0,0,.67-.74,1.29,1.29,0,0,0-.69-1.37c-.4-.28-.84-.51-1.23-.8a1.82,1.82,0,0,1,.88-3.39,4.51,4.51,0,0,1,1,0c.87.1,1.2.54,1.11,1.42,0,.11,0,.24-.15.28s-.22,0-.29-.15a4.84,4.84,0,0,0-.41-.64,1.15,1.15,0,0,0-1.37-.38.92.92,0,0,0-.39,1.49,3.07,3.07,0,0,0,.89.65A5.64,5.64,0,0,1,80,103a1.93,1.93,0,0,1,.65,2.06,2,2,0,0,1-1.71,1.32,4.51,4.51,0,0,1-.64,0Z"/><path class="cls-11" d="M60.07,102.92V101c0-.36-.07-.56-.49-.51-.13,0-.34.07-.37-.17s.12-.26.28-.3a2.17,2.17,0,0,0,1.31-1.11c.07-.13.14-.3.34-.26s.21.27.18.43c-.09.57.12.77.7.7h1.11c.37,0,.41.09.41.36s-.13.38-.4.37H61.73c-.28,0-.43.05-.43.38v3.64a1.09,1.09,0,0,0,1.67,1c.13-.06.28-.23.41-.06s0,.32-.17.43a2.36,2.36,0,0,1-2.32.37c-.69-.23-.83-.83-.86-1.46S60.07,103.56,60.07,102.92Z"/><path class="cls-11" d="M126,100.54a5,5,0,0,1,1.5-.9.84.84,0,0,1,.88.18.72.72,0,0,1-.85,1.11c-1.06-.48-1.5-.2-1.52,1v2.93c0,.8.09.88.9,1,.15,0,.39-.07.38.22s-.21.25-.38.23a14,14,0,0,0-2.81,0c-.17,0-.32,0-.34-.23s.13-.22.27-.23c.6,0,.75-.41.75-.91v-3.58a.86.86,0,0,0-.46-.76c-.3-.19-.24-.35.06-.49s.81-.38,1.21-.59.42-.08.4.26S126,100.21,126,100.54Z"/><path class="cls-12" d="M133.41,102.42v2.52c0,.5.13.85.7.87.18,0,.32.05.29.27s-.2.21-.36.2a10.74,10.74,0,0,0-2.51,0c-.15,0-.32,0-.35-.2s.12-.26.29-.26c.53,0,.71-.32.7-.8v-3.75a.78.78,0,0,0-.39-.68c-.28-.19-.33-.37,0-.53s.85-.38,1.27-.6.36,0,.35.26v2.7Z"/><path class="cls-16" d="M132.69,95.47a.8.8,0,0,1,.83.86.77.77,0,0,1-.71.82h-.14a.79.79,0,0,1-.85-.73v0a.86.86,0,0,1,.81-.91Z"/><path class="cls-6" d="M95.82,37.63a12.84,12.84,0,0,1,5,.89A9.14,9.14,0,0,1,106.47,45a13.28,13.28,0,0,1-.14,7.08,9,9,0,0,1-7.27,6.55,41.07,41.07,0,0,1-7.65.59c-.29,0-.39-.1-.36-.37a3.08,3.08,0,0,0,0-.53q0-8.46,0-16.92a8,8,0,0,1,.06-1.05,2.78,2.78,0,0,1,2.61-2.64A13.81,13.81,0,0,1,95.82,37.63Z"/><path class="cls-6" d="M54.81,53.73a30.09,30.09,0,0,1,8.38.84,9.66,9.66,0,0,1,7.45,8.78,20.47,20.47,0,0,1-.3,7.23c-1.1,4.56-4,7.24-8.59,8.18a18,18,0,0,1-7,.15,3.82,3.82,0,0,1-3.5-4.11V54.31c0-.46.12-.6.59-.58C52.85,53.76,53.83,53.73,54.81,53.73Z"/><path class="cls-6" d="M51.25,40.2V29c0-.47.1-.64.61-.63a38.86,38.86,0,0,1,8,.62,10,10,0,0,1,7.95,8.83,14.12,14.12,0,0,1-1,7.87,10.63,10.63,0,0,1-7.35,5.78,24.85,24.85,0,0,1-6.71.53c-1.48,0-1.48,0-1.48-1.49Q51.25,45.37,51.25,40.2Z"/><path class="cls-6" d="M142.95,58.94a30.32,30.32,0,0,1,2.57-12.54,16.15,16.15,0,0,1,6.25-7.21,12,12,0,0,1,14.28,1,18.82,18.82,0,0,1,6.52,10.27,29,29,0,0,1-1.72,20.7,16.63,16.63,0,0,1-5.29,6.41,13,13,0,0,1-18.17-2.82l-.35-.51a23.43,23.43,0,0,1-3.79-10A33.34,33.34,0,0,1,142.95,58.94Z"/><path class="cls-6" d="M117.93,106.73a8.22,8.22,0,0,1,1.16.09,1.33,1.33,0,0,1,.7,2.3,3.06,3.06,0,0,1-3.58.29,1.48,1.48,0,0,1,.72-2.62h1Z"/><path class="cls-6" d="M118.82,102.16a5,5,0,0,1-.14.71,1.19,1.19,0,0,1-1,.89,1.24,1.24,0,0,1-1.23-.51,2.38,2.38,0,0,1-.09-2.6,1.19,1.19,0,0,1,2,0A3,3,0,0,1,118.82,102.16Z"/><path class="cls-17" d="M95.69,104.2c0,1-.19,1.28-.94,1.46a1,1,0,0,1-1.19-.6A.84.84,0,0,1,94,104h0c.37-.17.76-.31,1.14-.46s.6,0,.53.46A2.41,2.41,0,0,0,95.69,104.2Z"/><path class="cls-18" d="M151.86,101.58h-.76c-.46,0-.51-.14-.3-.5a1.94,1.94,0,0,1,2.05-.92,1,1,0,0,1,.75.59c.15.38.12.7-.4.74l-1.34.11Z"/></svg>