<svg id="Layer_1" data-name="Layer 1" xmlns="http://www.w3.org/2000/svg" viewBox="0 0 156 150.31"><defs><style>.cls-1{fill:#363130;}.cls-2{fill:#fdfdfd;}.cls-3{fill:#3e4092;}.cls-4{fill:#a09e9f;}.cls-5{fill:#f8d1ba;}.cls-6{fill:#e3373d;}.cls-7{fill:#fff;}</style></defs><title>Bubba Gump Shrimp Co.</title><path class="cls-1" d="M104.68,137.7l-.86.34c-1,.39-1,.49-1.85.78a4.67,4.67,0,0,0-.77.2s-3.72,1.23-5.62,1.69c-.57.14-.7.37-.66.91.09,1.29.14,2.57.16,3.86a1.92,1.92,0,0,1-1.63,2.17l-.18,0a19.55,19.55,0,0,1-4.28.07c-1.57-.07-3.13-.25-4.7-.18a1.72,1.72,0,0,0-1.64,1.05c-.67,1.34-.72,1.36-2.14,1a18.55,18.55,0,0,1-6.32-2.82,25.6,25.6,0,0,0-3-2,2,2,0,0,1-1.39-2c0-.47-.34-.36-.58-.39a66.76,66.76,0,0,1-11.89-2.53,70.65,70.65,0,0,1-37.65-27.49,65,65,0,0,1-5.42-9.27.82.82,0,0,0-1-.58l-.15.05a18.56,18.56,0,0,1-3.3.58,3,3,0,0,1-3.11-1.7,12.45,12.45,0,0,1-1.18-3.4L.7,75.18a7.38,7.38,0,0,1,.08-3.74,5,5,0,0,1,3.85-3.69l1.23-.27c1.49-.31,1.48-.31,1.62-1.8a69.47,69.47,0,0,1,13-34.62,70.64,70.64,0,0,1,24-21c.26-.14.54-.23.68-.57a9.62,9.62,0,0,1,3.78-4.31,23.87,23.87,0,0,1,10.7-4,64,64,0,0,1,21.07.41c1.94.36,4,.29,5.93.55A68.71,68.71,0,0,1,120.37,15.9a69.92,69.92,0,0,1,27.24,45,47.23,47.23,0,0,1,.65,5.33c0,.65.22,1,.94,1.08a8.7,8.7,0,0,1,4.72,2.21,4.7,4.7,0,0,1,1.46,4.58q-2.61,12.71-5.24,25.41a8.74,8.74,0,0,1-.46,1.52,3.62,3.62,0,0,1-4,2.55,17,17,0,0,1-3.46-.63c-.5-.13-.73,0-1,.46a71.06,71.06,0,0,1-19.44,24.13,17.15,17.15,0,0,1-1.52,1.17,50.33,50.33,0,0,1-4.14,2.89,6.24,6.24,0,0,1-1.24.83,8.89,8.89,0,0,0-1.64,1l-1.24.75c-1.22.77-2.61,1.35-2.89,1.53a3,3,0,0,1-.79.4l-2.22,1A8.07,8.07,0,0,0,104.68,137.7ZM50.4,57.18h0c.06-.18,0-.22-.17-.17h0c.08-.19,0-.26-.18-.33a.26.26,0,0,0-.27-.16,59,59,0,0,1-5.59-8.26,12.62,12.62,0,0,1-1.56-8.16,9.07,9.07,0,0,1,3-5.77A16,16,0,0,1,49,32c.45-.22.6-.46.31-.95a23.91,23.91,0,0,0-2.64-3.68c-.23-.26-.38-.37-.74-.12a57.8,57.8,0,0,0-9.48,8.52.77.77,0,0,0-.13,1A123.29,123.29,0,0,0,42,48.35a31,31,0,0,0,6.37,8.38c.28.25.49.72,1,.56.06.23,0,.53.23.68,1.51.83,2.79,2,4.37,2.74.12.05.3.12.38.07s.07-.3,0-.43A9.31,9.31,0,0,0,51.72,58c-.35-.24-.54-.73-1.07-.69h0C50.64,57.18,50.57,57.13,50.4,57.18Zm-7.92.16h0c.14-.22,0-.29-.17-.35h0c-.09-.17-.17-.35-.27-.51A36.36,36.36,0,0,1,36.2,40.87c-.18-1.4-.27-2.81-.36-4.37a55.4,55.4,0,0,0-7.52,11.35c-.19.37,0,.57.16.82a34.15,34.15,0,0,0,9.27,9.59,1.24,1.24,0,0,0,.84.28.56.56,0,0,0,.14.46c.72.53,1.42,1.09,2.17,1.57s1.13,1.07,1.88,1.16a21.3,21.3,0,0,0,2.76,0c.52,0,.6-.34.29-.63a45,45,0,0,1-3.14-3.73.12.12,0,0,0-.16-.05l0,0ZM46.67,26.1l.16.17a32.38,32.38,0,0,1,3.71,4.64,27.7,27.7,0,0,1,3,8.25c.12.5.24.6.7.33a9.7,9.7,0,0,1,3.29-1.23c2-.33,3.79-.15,5.06,1.62s1.18,3.74.8,5.86a11.32,11.32,0,0,0-5-2.41c-4.39-.84-7.73,1.85-7.69,6.39a13.93,13.93,0,0,0,3,8.4,20.41,20.41,0,0,0,9.24,6.47,14.93,14.93,0,0,0,6.71,1.26,19.27,19.27,0,0,0,14-7.82,13.07,13.07,0,0,0,3-9.1c-.14-2.08-.81-3.91-2.86-4.89a9.65,9.65,0,0,0-10.12,1.68c-.15.15-.24.4-.54.34a8.55,8.55,0,0,1-.05-3.41,5,5,0,0,1,4-4.45,4.89,4.89,0,0,1,5.71,2.3c.09.13.12.32.38.33-.07-.84-.1-1.67-.23-2.5a2.68,2.68,0,0,1,.35-1.83,26.51,26.51,0,0,1,3.11-4.32c1.59-1.82,3.49-3.31,5.2-5,.18-.18.54-.31.43-.74l-1.49,1A43.54,43.54,0,0,0,81.74,36c-.42.53-.63.51-1.06.05-.86-.92-1.77-1.8-2.67-2.68a1.29,1.29,0,0,1-.41-1,53.55,53.55,0,0,1,0-5.46,30.26,30.26,0,0,1,.83-4.85c.23-1,1-1.84,1.08-2.91a4,4,0,0,0-1.46,2,20.74,20.74,0,0,0-2,9,7.07,7.07,0,0,1-.34,2.9,8.91,8.91,0,0,1-4.79,4.6c-3,1.25-8.32-.9-9.7-4.66-.61-1.66-1.08-3.36-1.53-5.06A17.27,17.27,0,0,0,54.14,19c-.22-.19-.42-.49-.82-.32q1.21,2,2.22,4a28.68,28.68,0,0,1,3.17,11.48c0,.31.05.57-.28.79-1,.71-2.05,1.46-3.06,2.22-.42.32-.61.27-.83-.24q-1-2.35-2.12-4.66a14.16,14.16,0,0,0-5.48-6.11L46.75,26c-.11-.08-.22-.14-.35,0Zm59.92,73.17c.12.29-.07.53-.13.79-.57,2.56.76,4.49,3.27,4.7a16.41,16.41,0,0,0,1.67,0c.17.5-.3.47-.51.52a4.58,4.58,0,0,1-4.57-.89c-.17-.16-.31-.33-.57-.23s-.18.32-.21.5a15,15,0,0,1-.65,2.28c-.55,1.82-2.45,2.56-3.25,4.17.12-.45.16-.67-.46-.4a14.84,14.84,0,0,1-7.46,1.19,17.18,17.18,0,0,1-5.52-1.72c-.27-.12-.57-.38-.64.2a17,17,0,0,0,.36,7.48,4.66,4.66,0,0,0,7.09,2.5A11,11,0,0,0,97.58,118a32.23,32.23,0,0,0,3.25-5.17,1.9,1.9,0,0,1-.09.91c-.54,1.08-1,2.22-1.49,3.31A11.71,11.71,0,0,1,95,121.78c-1,.66-1.51,1.17-1.32,2.4.11.75.36.94,1,.71,1.18-.41,2.36-.83,3.53-1.29a52.21,52.21,0,0,0,12.62-7.1,54.39,54.39,0,0,0,9.28-8.74,1.55,1.55,0,0,0,.53-1.24.43.43,0,0,1,.49-.53l.11.08s.2-.36.67.1c.19-.18.45-.53.06-.84a48.55,48.55,0,0,0,3.26-4.68c.33-.47.14-1.24-.26-1.23a16.81,16.81,0,0,1-3.92-.57c-.34-.07-.2.24-.26.39a5,5,0,0,0-4-.81.33.33,0,0,0-.37-.36c-1.37.18-2.67-.58-4-.33a6.15,6.15,0,0,0-3.67-.35c-.71-.66-1.63-.21-2.42-.46,0,0-.16.07-.19.14-.44.86-1.39,1.55-.92,2.72.06.14,0,.38.2.39a.6.6,0,0,0,.42-.22C106,99.66,106.14,99.28,106.59,99.27Zm-62.27-1.9H44c-.21-.26-.55-.46-.8-.3-.55.36-1.13.19-1.69.29-.87.15-1.72.37-2.58.57a8.26,8.26,0,0,0-2.1.44c-.13,0-.27-.15-.39-.14-1.46.18-2.92.35-4.37.6a7.2,7.2,0,0,0-1.76.44c-.53.23-.51.41-.21.77a26.78,26.78,0,0,1,1.63,2.52,55.33,55.33,0,0,0,18,17.2A53.88,53.88,0,0,0,61,124.9a52.42,52.42,0,0,0,7.93,1.85,49.52,49.52,0,0,0,11,.72c.38,0,.89,0,1-.42a3.76,3.76,0,0,1,.64-1c1.29-1.78,2.45-3.65,3.74-5.42a1.19,1.19,0,0,0,0-1.57,4,4,0,0,1-.56-1.53,24.07,24.07,0,0,1-.74-5.78v-3.44a1.69,1.69,0,0,0-.26-1,7.43,7.43,0,0,1-1.09-4.25v-2.27a1.36,1.36,0,0,0-1.26-1.46h-.09c.64-1.71.32-2.71-1-3.26.06-1.08.06-1.09-1-1.08a105.41,105.41,0,0,0-11.38.3c-2.09.23-4.2-.11-6.31.3a40.15,40.15,0,0,1-4.64.3,40.37,40.37,0,0,1-5.78.46c-.39,0-.92-.08-1.13.46h-.62c-.09-.06-.17-.18-.26-.19a18.47,18.47,0,0,0-4.67.4,3.41,3.41,0,0,0-.2.36ZM24.82,57.11c-.18,0-.22.18-.23.3-.26,1.9-.95,3.71-1.19,5.62-.16,1.29-.16,1.36,1.08,1.06h.17c3.09-.29,6.14-1,9.27-1A1.49,1.49,0,0,0,34.4,63c.41-.15.62-.33.26-.77-.82-1-1.58-2.09-2.44-3.08-.23-.27-.32-.84-.9-.73.25-.34-.09-.5-.23-.71a17.29,17.29,0,0,1-2.81-5.75c-.2-.91-.3-1.84-.47-2.89a42,42,0,0,0-1.93,4.63,17.58,17.58,0,0,0-1.06,3.46Zm62.31-3a23.2,23.2,0,0,0,4-6.37c2-5.47,1-10.6-4.08-13.95-.36-.24-.56-.33-.86.1-.85,1.22-1.61,2.48-2.34,3.78a1.21,1.21,0,0,0-.15.88A16.46,16.46,0,0,1,84,43a.71.71,0,0,0,.51.82,4.66,4.66,0,0,1,2.9,4A16.46,16.46,0,0,1,87,54c-.08.11-.14.21,0,.34Zm51.54,48.2a6.17,6.17,0,0,0-.63-.2l-9.76-1.93c-.74-.28-1.19-.08-1.61.65a52.77,52.77,0,0,1-4.7,6.84,59.51,59.51,0,0,1-8.11,8.21A55.66,55.66,0,0,1,102.79,123a45.63,45.63,0,0,1-8.41,3.31c-.34.09-.54.25-.46.65a8.82,8.82,0,0,1,.08.91l.47,5.4,1.08-.79c-.94-.88-.84-1.52.25-2.08a2.27,2.27,0,0,1,.54-.22c.6-.13,1.3-.38,1.7.23s-.2.95-.59,1.3c-.1.09-.25.22-.09.34a3.07,3.07,0,0,0,1.21.54.82.82,0,0,0,.2-.23.27.27,0,0,0-.13-.36l-.08,0c-.14,0-.34.11-.39-.21a5.36,5.36,0,0,1,1.85-.48c-.63.45-1,1.09-.83,1.45.3.64,1,.08,1.78.11-1.28,1.11-2.92.77-4.1,1.64a2.44,2.44,0,0,1-1.72.2H95c-.42-.19-.47.06-.44.38l.24,2.92V139c0,.31.13.54.54.42,2.26-.67,4.5-1.38,6.73-2.19a69.08,69.08,0,0,0,10.38-4.89,63.46,63.46,0,0,0,8.45-5.76,70.78,70.78,0,0,0,7.28-6.7,69.32,69.32,0,0,0,7.08-8.83,53.53,53.53,0,0,0,4.27-7.3c.54-1.25.48-1.27-.84-1.42Zm-121.79-.49c-.34-.09-.53.28-.86.26-.58,0-.66.17-.37.68.7,1.23,1.34,2.5,2,3.75a65.63,65.63,0,0,0,8.62,11.95A69.47,69.47,0,0,0,37,128.18a71.25,71.25,0,0,0,11.89,7A69.77,69.77,0,0,0,58,138.64a61.07,61.07,0,0,0,6.08,1.51c1.67.33,3.36.51,5,.88,1.46.33,1.91.09,2.53-1.18.16-.19.33-.38.47-.58L78.71,130c.13-.3.61-.49.48-.83s-.64-.24-1-.26c-1.17-.06-2.35-.14-3.52-.14a39.77,39.77,0,0,1-7.23-.81,52.77,52.77,0,0,1-9.64-2.69,57,57,0,0,1-22.54-15.73,50.09,50.09,0,0,1-6.55-9.22.92.92,0,0,0-1.2-.51l-.12.06a5.73,5.73,0,0,0-.66.05ZM47.51,23.46c-.77-3.49-1.71-7-2.21-10.5a.41.41,0,0,0,0-.08c-.13-1.6-.15-1.63-1.46-.86a70.3,70.3,0,0,0-12.08,8.69A68.34,68.34,0,0,0,21.61,32.06,75.9,75.9,0,0,0,17,39.27a67.44,67.44,0,0,0-5.59,13.45,70,70,0,0,0-1.68,7c-.4,2.14-.68,4.3-.88,6.47,0,.58.19.7.67.61a4.82,4.82,0,0,0,.7-.26,5.52,5.52,0,0,0,1.07-.15l9.23-1.62h0l.33-.13c.7.09,1-.24,1.07-.91.2-1.31.5-2.61.77-3.91a50,50,0,0,1,2.91-9.2A57.31,57.31,0,0,1,44.88,26.4c.62-.46.61-.55-.15-1,0-.58-.73-.74-.85-1.29l2.13.43a1.12,1.12,0,0,0,1.48.12C47.95,24.31,47.62,23.87,47.51,23.46Zm42.94-7.37c-.12.55-.33,1.07.55,1.24a45.52,45.52,0,0,1,8,2.54,55.45,55.45,0,0,1,9.59,5,54.66,54.66,0,0,1,6.35,4.83,58.14,58.14,0,0,1,8,8.51,59.18,59.18,0,0,1,5.85,9.5,56.2,56.2,0,0,1,3.6,9.49,49.64,49.64,0,0,1,1.4,6.61c.1.72.34,1,1.05.92l10.62,1.83a1.18,1.18,0,0,0,1.27.16c.39-.22.13-.7.07-1.07V65.4a66.91,66.91,0,0,0-2.3-12.15A65,65,0,0,0,140,41.69a72.24,72.24,0,0,0-6.1-10,68.23,68.23,0,0,0-15.6-15.56,67.33,67.33,0,0,0-15.51-8.37A73.45,73.45,0,0,0,89.3,4c-1.09-.19-2.21-.31-3.49-.46A15.24,15.24,0,0,0,88,5.28a15.17,15.17,0,0,1,2.91,4.24,4.22,4.22,0,0,1,.49,2.5c-.31,1.35-.63,2.7-.91,4.07Zm-39.22.09a19.2,19.2,0,0,1,8.93,9.22,1.28,1.28,0,0,0,1.51.85,110.23,110.23,0,0,1,12.59-.12c.86.05,1.19-.14,1.4-1a14.43,14.43,0,0,1,3.86-7.5,17.63,17.63,0,0,1,3.23-2.55,1,1,0,0,1-.15.49,36.36,36.36,0,0,0-3,6.53,17.19,17.19,0,0,0-.94,3.73c-.06.52.07.72.62.83,2.14.4,4.28.83,6.4,1.33.66.16.8-.08.92-.62,1.11-4.77,2.21-9.53,3.37-14.29a3.7,3.7,0,0,0-.19-2.37,12.8,12.8,0,0,0-6.85-6.82,22.46,22.46,0,0,0-8.3-1.71A42.1,42.1,0,0,0,55.3,5.1,13.12,13.12,0,0,0,50.36,8a4.94,4.94,0,0,0-1.62,4.08c.74,5,1.55,10.06,2.31,15.09.09.58.33.68.84.58l2.88-.56c1.24-.25,1.28-.32.81-1.54a71.52,71.52,0,0,0-4-8.59c-.15-.28-.45-.53-.33-.91ZM88.48,27.75a15.68,15.68,0,0,1,6.82-3.08l-.7.66a79.7,79.7,0,0,0-6.84,6.57c-.66.78-.65.75.17,1.34,3.79,2.7,5.74,6.24,5,11a19.59,19.59,0,0,1-2.35,6.6c-.3.55-.1.84.53.84.41,0,.4-.33.5-.57a57.61,57.61,0,0,0,3.15-11.3l.83-4.54a1.55,1.55,0,0,1,.16.26,37.45,37.45,0,0,1,.1,17.3c-.08.31-.18.55.24.74a20.84,20.84,0,0,1,3.2,1.83c.23.16.39.22.64,0,2.25-2.22,3.49-5.06,4.86-7.82.7-1.41,1.26-2.89,1.88-4.34A4.89,4.89,0,0,1,107,44.9c.31,4.64-1.15,8.82-3.3,12.83-.13.25-.56.45-.26.85a1.36,1.36,0,0,0,.54,1.16,4.9,4.9,0,0,1,1.06,1.17,1.09,1.09,0,0,0,1,.7c2.16.22,4.35.1,6.5.47s4.25.24,6.36.62c1.82.33,3.69.43,5.53.69a58.14,58.14,0,0,1,7.13,1c.61.16.89-.07.8-.74s-.27-1.36-.39-2a14.56,14.56,0,0,0-1.19-4.31c.17-.44-.08-.82-.21-1.21q-7.71-23.67-30.27-34.2a50.39,50.39,0,0,0-9.66-3.31c-.3-.07-.71-.35-.82.29-.51,2.89-1,5.78-1.57,8.67l-.06.21ZM57.74,63.18c-1-.61-1.7-1.69-3.1-1.43a5.11,5.11,0,0,1-1,.26c-3.5,0-7,.42-10.45.67-1.64.12-3.27.34-4.91.49-1,.09-2,.16-3,.3-2.34.33-4.69.64-7,.94-2.1.27-4.21.51-6.3.89-1.62.3-3.24.54-4.86.82s-3.18.56-4.77.87c-1.28.24-2.55.53-3.83.78s-2.53.42-3.75.77a3.54,3.54,0,0,0-1.83,1.05,5.36,5.36,0,0,0-1,4.63c.33,2.06.68,4.11,1.13,6.14.34,1.52.51,3.07.9,4.56.56,2.12.87,4.29,1.35,6.42.6,2.67.85,5.43,1.78,8,.63,1.75,1.19,2.92,3.65,2.78a20.16,20.16,0,0,0,2.39-.4c1.28-.22,2.55-.53,3.83-.8,1.84-.39,3.67-.81,5.51-1.16,2.18-.42,4.37-.79,6.55-1.17s4.53-.9,6.82-1.16c2.91-.32,5.8-.8,8.7-1.17,3.48-.44,7-.77,10.47-1.17s6.91-.61,10.37-.69c4.34-.1,8.67-.46,13-.39,5,.08,9.94.36,14.91.62q3.6.19,7.19.51c2.49.22,5,.49,7.47.82,1.35.18,2.71.37,4.07.48,1,.08,1.94.19,2.91.34,1.89.29,3.78.64,5.67.91,1.67.23,3.32.61,5,.79s3.5.62,5.24.94c.79.15,1.59.29,2.38.45,1.33.28,2.65.58,4,.85s2.68.48,4,.81a21.21,21.21,0,0,0,4.34.64,2.83,2.83,0,0,0,2.6-1.49,9,9,0,0,0,1.18-3.25c.26-1.33.56-2.65.84-4s.55-2.6.82-3.9.47-2.67.8-4c.62-2.42,1-4.88,1.55-7.31a30.46,30.46,0,0,1,.8-3.92,4.71,4.71,0,0,0-2-5.1c-2.09-1.14-4.44-1.17-6.65-1.76-1.61-.43-3.3-.54-4.93-.91-2.68-.61-5.41-1-8.11-1.43-2.3-.4-4.62-.71-6.93-1-3-.37-5.92-.73-8.89-1-3.55-.36-7.11-.72-10.67-1-4.4-.31-8.82-.49-13.23-.69-3.38-.16-6.78,0-10.17-.13a3,3,0,0,0-2.51,1.38,6.91,6.91,0,0,0-1.64,1c-5,3.2-10.29,4-15.91,1.87A37.86,37.86,0,0,1,57.74,63.18Zm28.57,71.21a4.92,4.92,0,0,1,.06,2.8,77.51,77.51,0,0,0-2.11,7.86c-.15.76.08,1.13.88,1.27a25.62,25.62,0,0,0,7.37,0c1.94-.21,2-.21,1.87-2.19q-.21-5.21-.46-10.41c-.15-3.13-.34-6.26-.5-9.38-.07-1.23-.07-1.27-1.24-1.08a4.16,4.16,0,0,1-4.52-1.86c-.41-.63-.59-.48-1,0-2.79,3.89-5.63,7.75-8.42,11.64-2,2.84-4,5.74-5.87,8.7-.32.51-.29.81.19,1.18a6.29,6.29,0,0,0,2,1,10.15,10.15,0,0,1,4.59,2.84A5.89,5.89,0,0,0,80.71,148a.9.9,0,0,0,1.45-.54c.4-1.07.81-2.15,1.14-3.24,1-3.19,2-6.44,3-9.86Zm18.32-35.13a11.87,11.87,0,0,1-4.65,3c-3.85,1.36-7.77,1.1-11.7.42a20.39,20.39,0,0,1-3.23-1,12.83,12.83,0,0,0,.27,3.35,4.36,4.36,0,0,0,2.31,3.12,18.41,18.41,0,0,0,12.56,1.59,4.47,4.47,0,0,0,3.42-3.05,25.47,25.47,0,0,0,1.13-4.81,6.13,6.13,0,0,0-.11-2.63ZM49.55,54.09c-.14-.81-.33-1.61-.43-2.42-.36-3-.11-5.85,2.64-7.82a1.18,1.18,0,0,0,.51-1.21,27.23,27.23,0,0,0-1.82-8.24c-.65-1.6-.61-1.57-2.13-.72a8.43,8.43,0,0,0-4,4.52,11.38,11.38,0,0,0,.94,9.54A36.72,36.72,0,0,0,49.55,54.09ZM83.73,95.42a2.48,2.48,0,0,0,.07.35,6.08,6.08,0,0,0,3.49,3.66,19.53,19.53,0,0,0,12.41,1.75,7.83,7.83,0,0,0,5.62-3.61c.44-.75.41-.8-.41-.89q-8-.86-16.07-1.28c-1.7-.05-3.4,0-5.11,0ZM61.44,30.34a32.38,32.38,0,0,0,1.37,3.26,5.8,5.8,0,0,0,4.26,3.31,6.15,6.15,0,0,0,7.5-5.81c0-.48-.16-.61-.59-.44l-.79.29a16.08,16.08,0,0,1-6.52.91A11.57,11.57,0,0,1,61.44,30.34ZM87.08,60.5v.27h4.15a.86.86,0,0,0,.9-.53,32.5,32.5,0,0,0,4-13.42,67,67,0,0,0-.23-9.53,2.48,2.48,0,0,0-.3,1.16c-.4,2.91-.73,5.84-1.34,8.71-.9,4.2-2.22,8.23-5.41,11.35-.62.67-1.18,1.34-1.77,2Zm-50.66-22c0,.05-.09.1-.08.13a53.74,53.74,0,0,0,10.33,21c1.08,1.38,2.19,2.15,4,1.74a20.94,20.94,0,0,1,2.88-.23l-.92-.57a28.83,28.83,0,0,1-10.2-10.12,91.42,91.42,0,0,1-5.59-11.27c-.1-.22-.08-.55-.42-.64Zm60,22.41,4,.2c.28,0,.38-.2.51-.38a30.7,30.7,0,0,0,4.81-9.81,20.63,20.63,0,0,0,.69-5.6c-1.69,6.18-4.67,11.51-10,15.63ZM28.86,50.1a26.09,26.09,0,0,0,7.89,12c.18.16.33.41.62.39l4.1-.39C36.59,58.71,31.93,55.26,28.86,50.1ZM92.41,60.9c.85-.2,1.52.24,2.08-.23,1.5-1.25,2.9-2.62,4.27-4,.23-.23.28-.42,0-.59l-2.88-1.67c-.25-.14-.39-.1-.49.19A27.71,27.71,0,0,1,92.41,60.9ZM79.08,30.44c-.24,0-.59-.11-.6.17,0,.64-.27,1.34.29,1.91s1.39,1.38,2,2.1c.38.41.6.31.91-.07.63-.78,1.28-1.55,2-2.29.33-.35.06-.41-.16-.52A14.16,14.16,0,0,0,79.08,30.44Zm3.32,30c1.43.19,1.51.2,2-.17a26.45,26.45,0,0,0,6.24-7.06c.14-.23.68-.56.15-.88a.75.75,0,0,0-1.18.24,35.3,35.3,0,0,1-4.48,5.3c-.9.87-1.77,1.68-2.74,2.6ZM57.2,33.62c-.14-.85-.28-1.6-.36-2.34,0-.42-.21-.57-.64-.55a8.88,8.88,0,0,0-2.46.45c-.44.14-.57.33-.34.77.37.72.7,1.46,1,2.2.75,1.66.75,1.66,2.15.51.39-.28.89-.48.64-1Zm47.08,27.74c-.56-.64-1-1.08-1.34-1.55-.17-.21-.31-.21-.45,0a4.12,4.12,0,0,0-.76,1.35ZM98,133.62c-.58-.27-1-.49-1.48-.69-.26-.12-.56-.36-.76.09a.62.62,0,0,0,.27.83l0,0A1.62,1.62,0,0,0,98,133.62Zm-1.1-3.24c-.33.1-.77.13-.77.6a.7.7,0,0,0,.7.69.73.73,0,0,0,.68-.72c0-.38-.33-.49-.66-.57Z"/><path class="cls-1" d="M144.65,105.62l.39-1.08c.08-.21.14-.43.44-.4s.29.34.29.57V106c0,.19.13.52-.25.5s-.16-.3-.19-.47,0-.28-.11-.39c-.47.09-.16.93-.69.83s-.22-.77-.6-1c-.3.31.19,1-.32,1s-.21-.7-.21-1.06-.32-1,.23-1.16.49.66.73,1C144.45,105.34,144.44,105.53,144.65,105.62Z"/><path class="cls-1" d="M141.79,105.45c-.07-.3.2-.75-.36-.95-.17-.06-.08-.32.13-.34a5,5,0,0,1,.91,0c.15,0,.29.21.16.28-.67.36-.29,1-.39,1.47,0,.2.13.53-.18.55s-.23-.34-.26-.55A3.34,3.34,0,0,1,141.79,105.45Z"/><path class="cls-2" d="M57.74,63.18a37.86,37.86,0,0,0,4.69,2.4c5.63,2.15,10.91,1.33,15.91-1.87a6.91,6.91,0,0,1,1.64-1c.25,0,.5.07.75.08,7.79.08,15.57.33,23.35.83,8,.51,16,1.25,23.91,2.32,7.24,1,14.43,2.23,21.55,3.87a3.08,3.08,0,0,1,2.78,3.36l0,.13a7.26,7.26,0,0,1-.13,1.17c-.4,2.09-.82,4.17-1.24,6.26-1.16,5.82-2.3,11.64-3.49,17.45-.47,2.27-1.56,3-3.8,2.5-4.44-.94-8.91-1.7-13.38-2.44C122.58,97,114.88,95.85,107.15,95q-11.07-1.22-22.2-1.66a260,260,0,0,0-27.55.42c-6.7.46-13.38,1.18-20,2.13q-11,1.56-21.84,3.8c-1.37.28-2.73.6-4.11.84-2.06.35-3.09-.34-3.48-2.37Q6.39,90.07,4.87,82c-.55-2.89-1.12-5.77-1.6-8.67a2.84,2.84,0,0,1,2.42-3.59,230.62,230.62,0,0,1,24.9-4.26c7.25-.89,14.54-1.5,21.83-2A50.5,50.5,0,0,0,57.74,63.18Zm9.12,23.76c-.36.19-.57.54-1,.75-.63.34-.26,1-.23,1.52s.53.26.8.27h3.08c.76,0,.94-.24.76-.9.18-.18.41-.12.62-.14s.66.15.64-.28.29-1.3-.25-1.5c-1-.38-.9-1-.75-1.79a17.75,17.75,0,0,1,1.93,0c.64.07,1.09.2,1.17.85s.46,1.47-.24,1.66c-1,.28-.72.88-.75,1.5s.18.6.64.6h6.31c.4,0,.67,0,.54-.54s.23-.57.61-.57.5.18.66-.13-.18-1.91-.59-2c-.76-.22-.92-.82-1.1-1.44L76.57,74.1c-.41-1.4-.8-2.8-1.22-4.19-.1-.34-.23-.79-.73-.36-1.06.91-2.12,1.84-3.17,2.76a12.09,12.09,0,0,1-1,.74c-.29.17-.39.34-.26.67a4.19,4.19,0,0,1-.08,2.87C69,80.07,68,83.59,66.8,87Zm50.07-13a12,12,0,0,1-.12,1.33.62.62,0,0,0,.3.71c.49.26.47.65.4,1.14-.56,3.7-1.16,7.39-1.55,11.11a1.3,1.3,0,0,0-.36.75c-.29.4-1,.12-1.16.77-.07.41-.08.83-.16,1.24s.12.51.5.52a21.78,21.78,0,0,1,2.74.1c.92.12,1.12-.26,1-1a1.71,1.71,0,0,1,1,.1c0,1.27,0,1.27,1.27,1.48s1.35.22,1.85-1c.57.21.94.07,1.08-.57a6.63,6.63,0,0,1,.33-.94l2.3-6-.92,6.2c-.28.15-.18.48-.32.69-1,.09-1.29.72-1.22,1.66,0,.41.11.58.55.62,1.59.14,3.17.33,4.75.49,1.07.1,1.07.09,1.12-1h.79a1.88,1.88,0,0,1,0,.5c-.26.73.07.94.76,1.06,1.54.27,3.07.64,4.6,1,1.12.24,1.12.24,1.31-.9.34-.25.95.43,1.12-.29s.64-1.35-.43-1.68c-.29-.09-.31-.39-.28-.64a15.66,15.66,0,0,1,.67-3.66,7.91,7.91,0,0,0,2.54.3,3.42,3.42,0,0,0,2.51-1.21,5.55,5.55,0,0,0,2.89-3.3c1-3.51.08-5.52-3.13-6.52a42.59,42.59,0,0,0-6.17-1.14c-1.31-.21-1.32-.18-1.66,1-.34,0-.81-.37-1,0s-.4,1.16-.09,1.52a2.32,2.32,0,0,1,.29,2.29q-1.12,5.17-2.25,10.33a.65.65,0,0,0-.36.7l-.77.3c-.2-.43.3-1.07-.34-1.34a.88.88,0,0,1-.54-1.08c.17-1.39.35-2.77.52-4.15q.45-3.66.91-7.31c.08-.65.21-1.28,1.07-1.33s.41-.8.54-1.22-.2-.59-.62-.64c-1.28-.14-2.55-.3-3.82-.49s-1.36-.21-2,1c-.57-.2-.87,0-1.06.59-.53,1.73-1.14,3.43-1.72,5.14q-.19-3.47-.39-6.94c0-.35,0-.63-.5-.69-1.66-.19-3.32-.42-5-.66-.41-.06-.58,0-.6.44A2.12,2.12,0,0,1,118,74c-.39,0-.78-.22-1.16,0-.28-.16-.25-.44-.21-.67.12-.66-.18-.8-.78-.8a11.27,11.27,0,0,1-2.08-.15c-.9-.16-1.55-.05-1.6,1-.35.11-1-.38-1,.25s-.57,1.26.38,1.63c.47.18.54.67.52,1.15-.07,1.62-.08,3.25-.21,4.86a24.53,24.53,0,0,1-.86,6.38c-.75.67-1.63.48-2.16-.52a6.66,6.66,0,0,1-.57-3.84c.23-2.45.49-4.89.73-7.34.1-1,.06-2,1.27-2.49.53-.21.26-.86.24-1.3s-.48-.27-.74-.29c-1.53-.12-3.06-.22-4.6-.32-1.09-.07-1.09-.07-1.09,1-1.3,0-1.31,0-1.3,1.4,0,.26-.14.61.26.7.74.15.72.7.67,1.24-.14,1.48-.33,3-.47,4.42a29.62,29.62,0,0,0-.43,6.27c.19,1.67.7,3.23,2.31,4a7.52,7.52,0,0,0,4.75.56,2.29,2.29,0,0,0,1.41-.84c2.18-1.28,2.68-3.44,2.94-5.69.3-2.6.52-5.22.73-7.83a2.82,2.82,0,0,1,2-2.8ZM25,75l-.66.1c-.28,0-.75,0-.58.44s-.43,1.29.59,1.36c.58,0,.74.41.8.89.23,1.89.46,3.78.71,5.66A24.9,24.9,0,0,0,27,89.58,5.39,5.39,0,0,0,35.06,92a1.39,1.39,0,0,0,.55-.61,3.64,3.64,0,0,0,2-2.7,13.4,13.4,0,0,0,.07-4.92c-.34-2.38-.7-4.75-1-7.13-.13-.91-.13-1.81.92-2.26.27.28-.08,1,.66,1s.65.3.69.78q.56,6.11,1.15,12.2a.87.87,0,0,0-.15.56c-1.34.83-1.31.82-1,2,.09.41.26.48.62.44,2.83-.29,5.66-.56,8.49-.88A3.2,3.2,0,0,0,50.6,89a3.31,3.31,0,0,0,1-.7c2-1.83,1.69-7-1.65-8.14-.2-.07-.44-.1-.55-.33.07-.24.28-.35.45-.48a4.58,4.58,0,0,0,1.25-5.85,3.93,3.93,0,0,0-3.74-1.95c-2.53,0-5,.53-7.52.69-.75,0-1.08.27-.9,1l-1.29.13a.86.86,0,0,0-1-.47,15.18,15.18,0,0,1-2.33.21c-.78,0-1.2.2-1.08,1.05a4.39,4.39,0,0,0-.66.08c-.21.06-.63-.12-.59.26s-.15,1.2.35,1.36A1.92,1.92,0,0,1,33.6,77.5a33.23,33.23,0,0,1,1.16,11.71,1.55,1.55,0,0,1-1.68-.68,6,6,0,0,1-1.16-2.75c-.53-2.94-.77-5.92-1.19-8.88-.12-.81-.15-1.54.68-2.06.46-.29.21-.77.13-1.16s-.5-.24-.77-.21c-1.64.17-3.27.38-4.91.53C25.13,74.09,24.91,74.4,25,75ZM96.47,79.8c-1.24-.06-1.35.06-1.14,1.17a.84.84,0,0,0,.44.57c.23.16.49.29.49.62A18.65,18.65,0,0,1,96,87.62a1.63,1.63,0,0,1-2.17-.11,5.35,5.35,0,0,1-1.7-2.83,22.88,22.88,0,0,1-.15-11.95,7.37,7.37,0,0,1,1.52-3.32,3.56,3.56,0,0,1,4.32,3.29c.15,1.19.59,1.9,1.86,2l.09-1.39c.23.09.47.17.7.27s.52.1.53-.32c0-1.68.1-3.35.16-5,0-.23,0-.46-.33-.47s-.52-.12-.6.26c-.14.61-.6.43-.93.31a3.44,3.44,0,0,1-1.06-.65,4.26,4.26,0,0,0-2.46-.94A6.5,6.5,0,0,0,90,69a3.6,3.6,0,0,0-1.32,1.22,15.26,15.26,0,0,0-1.62,15.66c2.66,6,9.68,5.78,13.25,2.8.44-.34.89-.66,1.3-1a1,1,0,0,0-.14-1.76c-.17-.12-.31-.19-.3-.43a39,39,0,0,1,.32-6.09c.12-.56-.09-.62-.53-.61-1,0-2,.06-3,0s-1.51,0-1.51,1.06ZM53.06,71.92c-1.37,0-1.34,0-1.25,1.32,0,.55.21.79.78.81s.67.44.68.9q.19,6,.36,12c0,.31,0,.73-.3.81-1.09.28-.7,1-.65,1.72,0,.34.15.47.52.46,2.85-.06,5.71-.09,8.56-.17A2.85,2.85,0,0,0,64,88.63a5.81,5.81,0,0,0,2.22-7.07,3.12,3.12,0,0,0-2.45-2.16c-.15,0-.37.06-.41-.17s.11-.28.28-.36c2.05-1,2.34-3.74,1.65-5.43a4.06,4.06,0,0,0-4-2.6c-2.4-.07-4.81,0-7.22,0-1.07,0-1.07,0-1,1.09ZM23,93a5.42,5.42,0,0,0,2.79-4.12,7.32,7.32,0,0,0-.29-2.74,5.42,5.42,0,0,0-2.95-3.76,8.31,8.31,0,0,0-2.25-.49c.58-.68,1.36-1,1.76-1.75A6.4,6.4,0,0,0,20.94,73a3,3,0,0,0-3-1c-2.49.51-5,1-7.5,1.39-.74.11-1.12.24-1,1a1.5,1.5,0,0,0-.5,0c-.27.13-.86-.15-.76.47S8.11,76.11,9,76c.57-.07.8.3.93.75a15.48,15.48,0,0,1,.42,1.62c.9,4.92,1.77,9.85,2.69,14.77.1.52.19.86-.47,1s-.17.75-.18,1.13.35.34.61.3a64.91,64.91,0,0,0,8-1.39A4.13,4.13,0,0,0,23,93Z"/><path class="cls-3" d="M81.34,99.37a1.36,1.36,0,0,1,1.35,1.37s0,.06,0,.09v2.27a7.43,7.43,0,0,0,1.09,4.25,1.69,1.69,0,0,1,.26,1v3.44a24.07,24.07,0,0,0,.74,5.78,4,4,0,0,0,.56,1.53,1.19,1.19,0,0,1,0,1.57c-1.29,1.78-2.45,3.64-3.74,5.42a3.76,3.76,0,0,0-.64,1c-.14.39-.64.4-1,.42a49.52,49.52,0,0,1-11-.72A52.42,52.42,0,0,1,61,124.94a53.88,53.88,0,0,1-11.27-5.11,55.33,55.33,0,0,1-17.95-17.2,26.78,26.78,0,0,0-1.63-2.52c-.29-.36-.31-.54.21-.77a7.2,7.2,0,0,1,1.76-.44c1.45-.25,2.91-.42,4.37-.6a1.32,1.32,0,0,1,.39.14l-.93.67a1.7,1.7,0,0,0-1.57,1.1,1.78,1.78,0,0,0,1.45,2.63,19.82,19.82,0,0,0,3,.29,1,1,0,0,1,.88,1.52,2.08,2.08,0,0,1-2.75-.77c-.28-.45-.68-.3-.95-.18s-.08.54,0,.77a4.76,4.76,0,0,0,.6.78c-.26.4-.5.07-.68-.06a7.67,7.67,0,0,1-.8-.72.39.39,0,0,0-.53,0,.34.34,0,0,0-.14.44,2.78,2.78,0,0,0,1.06,1.24c1.3.63,2.56.21,3.8-.16.29-.09.69-.08.82-.48l.45-.19c1.33-.54,1.9-1.34,1.73-2.43s-.82-1.45-2.35-1.52a16.6,16.6,0,0,1-2.34-.11c-1.12-.12-1.35-.68-.75-1.65a3.14,3.14,0,0,1,2.65.91c.14.16.39,0,.55-.05s0-.34,0-.51-.53-.47-.13-.81a.65.65,0,0,1,.5.38.63.63,0,0,0,1,.22c.29-.23,0-.6-.23-.85-.58-.78-1.47-.77-2.32-.84.86-.19,1.71-.42,2.58-.57.56-.1,1.15.08,1.69-.29.25-.16.59,0,.8.3-.39.11-.36.4-.33.72.09,1,.16,1.93.24,2.89-.55,0-.55-.36-.57-.72s0-.95,0-1.42c0-.29.09-.68-.41-.63s-.46.36-.43.69a7.09,7.09,0,0,1,.16,1.49c-.16,1.52.46,3,.35,4.49,0,.38.22.54.59.54s.4-.29.41-.58a11.58,11.58,0,0,0-.27-1.56c0-.4-.36-.94.28-1.21a11.7,11.7,0,0,1,.23,2.16c0,.38.14.55.56.5s.45-.2.42-.56c-.06-.61-.06-1.22-.09-1.83.79-.94,1.87-.58,2.86-.62.4,0,.39.31.39.59v2c0,.35.22.49.5.56a.51.51,0,0,0,.62-.28c.1-.19.23-.37.34-.56.89.33,1.06.22,1-.66q-.25-2.9-.53-5.8A.77.77,0,0,0,50,97c.21-.54.75-.49,1.13-.46A40.37,40.37,0,0,0,57,96a40.15,40.15,0,0,0,4.64-.3c2.11-.42,4.22-.08,6.31-.3a113.79,113.79,0,0,1,11.38-.3c1.06,0,1.06,0,1,1.08a36.59,36.59,0,0,1-3.92-.14c-.64,0-.85.19-.83.77-1.28-.07-1.28-.07-1.29,1.17v.75a19.39,19.39,0,0,1-.13,3.47V101A35.94,35.94,0,0,0,74,96.83V96.5c0-.56-.05-.61-.72-.36-.38.11-.82-.12-1.15.22a.43.43,0,0,0-.33.51h0c-.47-.17-.94-.15-1.09.38-.32,1.12-1.21,2-1.47,3.09-.11.5-.41.52-.78.5-.71-1.39-1.43-2.78-2.12-4.18-.19-.38-.36-.66-.86-.59s-1.13-.22-1.34.55c-.26.33-1-.14-1,.6v6.47c0,.37.17.47.52.48s.48-.14.47-.5V99.82c0-.35-.1-.73.17-1,0,1.37.06,2.73.07,4.1,0,.33.06.5.46.5s.53-.13.52-.52v-2.68c.54,1.16,1.1,2.31,1.62,3.48a.74.74,0,0,0,.91.51c.43-.09.81-.24.78-.79.87.17,1.27-.29,1.57-1a23.2,23.2,0,0,1,1.12-2.19c.45.08.35.44.35.73v2.5c0,.33,0,.74.45.79s.5-.44.65-.75-.07-.41-.14-.61c-.17-.52-.31-1.09.31-1.47A5.54,5.54,0,0,1,73,102.5c-.12.83.2,1.12,1,.91.21.32.19.92.77.82s.33-.62.37-1a16.88,16.88,0,0,1,.29-2.8v2.42c0,.35,0,.58.47.59s.51-.18.5-.54a15.54,15.54,0,0,1,.06-1.67,3.79,3.79,0,0,1,2.06-.32,1.31,1.31,0,0,0,1.37-.67A3.62,3.62,0,0,0,81.34,99.37Zm-24.39,1.21c.77-.11,1.14.3,1.29,1,.09.41.21.82.27,1.23.12.77.52,1,1.29.67-.57-1.13-.29-2.62-1.55-3.45,1-.73,1.31-1.41,1-2.4s-.95-1.24-2.16-1.2-2.29.12-3.44.16a.48.48,0,0,0-.55.48c-.18.12-.29.37-.55.32-.74-.13-.83.28-.78.88a20.63,20.63,0,0,1,.34,3.35c-.07.83,0,1.67,0,2.51,0,.39.11.64.56.65s.43-.33.43-.63a16.19,16.19,0,0,1,.22-3.65,23.89,23.89,0,0,1,.21,2.89c0,.34.06.58.51.55s.48-.2.45-.59c-.05-.63,0-1.27,0-1.9H56c.51,0,.83.14.88.73s.29.89.35,1.37a.65.65,0,0,0,.66.64l.17,0c.55-.17.14-.6.06-.83A4.94,4.94,0,0,0,57,100.87a1.75,1.75,0,0,1,0-.29Zm5.87-.74h-.15v-3.1c0-.42-.1-.6-.56-.59s-.46.26-.46.6c.05,2,.11,4.08.14,6.12,0,.42.1.59.56.58s.47-.26.46-.59c0-1,0-2,0-3Zm-2.35.62h0v3.11c0,.38.11.57.52.56s.49-.18.49-.51a34.68,34.68,0,0,0-.3-6.17c0-.24,0-.55-.37-.54s-.35.37-.35.62c0,1,0,1.94,0,2.92Z"/><path class="cls-2" d="M103.5,58.57c-.31-.4.12-.6.26-.85,2.15-4,3.61-8.19,3.3-12.83a4.89,4.89,0,0,0-.37-1.66c-.62,1.45-1.18,2.93-1.88,4.34-1.37,2.76-2.61,5.6-4.86,7.82-.25.24-.41.18-.64,0a20.84,20.84,0,0,0-3.2-1.83c-.42-.19-.32-.43-.24-.74a37.45,37.45,0,0,0-.1-17.3,1.55,1.55,0,0,0-.16-.26l-.83,4.54a57.61,57.61,0,0,1-3.15,11.3c-.1.24-.09.57-.5.57-.63,0-.83-.29-.53-.84a19.59,19.59,0,0,0,2.35-6.6c.71-4.78-1.24-8.32-5-11-.82-.58-.83-.56-.17-1.34a79.7,79.7,0,0,1,6.84-6.57l.7-.66a15.68,15.68,0,0,0-6.82,3.08l-.14-.19c.52-2.89,1.06-5.78,1.57-8.67.11-.65.52-.37.82-.29a50.39,50.39,0,0,1,9.66,3.31q22.53,10.54,30.27,34.2c.13.39.37.77.21,1.21a5.29,5.29,0,0,1-4,1.22,4.08,4.08,0,0,1-3.63-2.06,5.08,5.08,0,0,1-8.17,0,5.07,5.07,0,0,1-8.16,0C106.18,57.92,104.87,58.29,103.5,58.57Z"/><path class="cls-4" d="M51.24,16.18c-.12.38.17.63.33.91a71.52,71.52,0,0,1,4,8.59C56,26.9,56,27,54.76,27.22c-1,.19-1.93.36-2.88.56-.51.11-.75,0-.84-.58-.76-5-1.56-10.06-2.31-15.09A4.94,4.94,0,0,1,50.35,8a13.12,13.12,0,0,1,4.94-2.94A42.1,42.1,0,0,1,74.63,2.18,22.46,22.46,0,0,1,82.88,3.9a12.8,12.8,0,0,1,6.85,6.82,3.7,3.7,0,0,1,.19,2.37c-1.15,4.76-2.26,9.52-3.37,14.29-.12.54-.26.78-.92.62-2.12-.5-4.26-.93-6.4-1.33-.55-.1-.68-.3-.62-.83a17.19,17.19,0,0,1,.94-3.73,36.36,36.36,0,0,1,3-6.53,1,1,0,0,0,.15-.49,17.63,17.63,0,0,0-3.23,2.55,14.43,14.43,0,0,0-3.86,7.5c-.21.87-.53,1.07-1.4,1a110.23,110.23,0,0,0-12.59.12,1.28,1.28,0,0,1-1.51-.85,19.2,19.2,0,0,0-8.88-9.23v-.06h0Z"/><path class="cls-5" d="M46.94,26.18a14.16,14.16,0,0,1,5.49,6.17q1.1,2.31,2.12,4.66c.22.51.41.56.83.24,1-.76,2-1.51,3.06-2.22.33-.23.29-.48.28-.79a28.68,28.68,0,0,0-3.2-11.48c-.67-1.37-1.42-2.7-2.22-4,.4-.17.59.13.82.32A17.27,17.27,0,0,1,59.62,28c.45,1.7.92,3.4,1.53,5.06,1.39,3.76,6.74,5.91,9.7,4.66a8.91,8.91,0,0,0,4.79-4.6,7.07,7.07,0,0,0,.36-3,20.74,20.74,0,0,1,2.14-9,4,4,0,0,1,1.46-2c-.12,1.07-.84,1.9-1.08,2.91a30.26,30.26,0,0,0-.83,4.85,53.55,53.55,0,0,0,0,5.46,1.29,1.29,0,0,0,.41,1c.9.88,1.81,1.76,2.67,2.68.43.46.64.48,1.06-.05a43.54,43.54,0,0,1,8.8-8.56l1.49-1c.11.44-.25.56-.43.74-1.71,1.7-3.61,3.19-5.2,5a26.51,26.51,0,0,0-3.11,4.34A2.68,2.68,0,0,0,83,38.38c.13.82.16,1.66.23,2.5-.26,0-.29-.2-.38-.33a4.89,4.89,0,0,0-5.71-2.3,5,5,0,0,0-4,4.45,8.55,8.55,0,0,0,.05,3.41c.3.06.39-.19.54-.34a9.65,9.65,0,0,1,10.12-1.68c2,1,2.72,2.8,2.86,4.89a13.07,13.07,0,0,1-3,9.1,19.27,19.27,0,0,1-14,7.82A14.93,14.93,0,0,1,63,64.64a20.41,20.41,0,0,1-9.24-6.47,13.93,13.93,0,0,1-3-8.4c0-4.51,3.27-7.23,7.72-6.38a11.32,11.32,0,0,1,5,2.41c.38-2.12.47-4.1-.8-5.86S59.6,38,57.65,38.32a9.7,9.7,0,0,0-3.29,1.23c-.46.27-.58.17-.7-.33a27.7,27.7,0,0,0-3-8.25A32.38,32.38,0,0,0,47,26.33Zm7.53,22.73a1.17,1.17,0,0,0,1,.93,5.12,5.12,0,0,0,1.16.13,1.14,1.14,0,0,1,1.24.84,9.18,9.18,0,0,0,4.06,4.65A12.29,12.29,0,0,0,70.7,56.8c3.76-.75,6.78-2.59,8.37-6.26a.66.66,0,0,1,.63-.42q1-.15,2.07-.36c.29-.06.58-.23.5-.56s-.42-.08-.61,0a9.49,9.49,0,0,1-1.83.18,9.76,9.76,0,0,1-3.13-.52.53.53,0,0,0-.71.23l0,.08c-.17.41.27.34.45.41a6.2,6.2,0,0,0,1.12.35c.55.12.69.37.41.88a9.14,9.14,0,0,1-3.87,4.07,12.72,12.72,0,0,1-12.66-.63,5.82,5.82,0,0,1-2.48-2.66c-.56-1.26-.49-1.4.78-1.78a3.48,3.48,0,0,0,.84-.37.73.73,0,0,0,.39-1l0,0c-2,1.17-4.21.74-6.44.45Z"/><path class="cls-2" d="M145.43,66.55l-10.62-1.83a9.54,9.54,0,0,0-.06-1,57.66,57.66,0,0,0-21.11-36.38,56.61,56.61,0,0,0-18.93-10c-1.41-.43-2.83-.82-4.25-1.23.29-1.36.6-2.72.85-4.09a4.22,4.22,0,0,0-.49-2.5,15.17,15.17,0,0,0-2.91-4.24c1.51.28,3,.52,4.53.84a66.14,66.14,0,0,1,18.78,7.22A67,67,0,0,1,128.1,26.9c0,1.15,0,1.15,1.09,1.23h0l.12.12A67.49,67.49,0,0,1,145.43,66.55Z"/><path class="cls-2" d="M46,24.55l-2.13-.43c.13.56.82.71.85,1.29a8.48,8.48,0,0,0-1.91,1.33A57.46,57.46,0,0,0,22.56,56.4a44.86,44.86,0,0,0-1.67,8.2l-.33.13h0l-9.23,1.62-1.07.15a4.38,4.38,0,0,0,.1-.49A65.69,65.69,0,0,1,16.7,43.09,67.86,67.86,0,0,1,42.6,14.43,12.26,12.26,0,0,1,45.3,13c.5,3.55,1.44,7,2.21,10.5C47,23.86,46.39,24,46,24.55Z"/><path class="cls-2" d="M78.76,129.94l-6.66,9.32c-.14.2-.31.39-.47.58l-2-.25a66,66,0,0,1-23.25-7.27,67.85,67.85,0,0,1-25.61-23.51,46,46,0,0,1-3.88-7l9.9-1.92a5.74,5.74,0,0,1,.65-.05A3.42,3.42,0,0,0,28,101a57.69,57.69,0,0,0,46.69,28.79A29.17,29.17,0,0,1,78.76,129.94ZM38,121.77h0c-.21.21,0,.27.14.36a1,1,0,0,1,.46.81c0,.44-.59.16-.69.54l1.83,1.46a3.11,3.11,0,0,1,.07-1.63q.28-1.39.54-2.79c0-.23.15-.53-.22-.61s-.54-.41-.9-.14a8.72,8.72,0,0,1-3.93,1.51,4,4,0,0,0,1.23,1c.28-.27-.39-.5.06-.73a.72.72,0,0,1,1,.11C37.59,121.74,37.73,122,38,121.77Zm12.5,7.15c.58.06,1.23.24,1.48-.53s-.33-1.1-.83-1.38c-1-.55-2-1-3.07-1.56.25.92-.88,3.11-1.84,3.66l1.93,1c0-.12.08-.19.06-.22a1.07,1.07,0,0,1,.45-1.44l.05,0c.37-.15.29.6.43,1a.6.6,0,0,1,.06.24c-.06,1.27.9,1.53,2,2a8.21,8.21,0,0,1-.91-2.52Zm-25.93-24c.83.85,1.26,1,1.7.64.62-.54.35-1.18.06-1.76-.48-.93-1-1.84-1.55-2.8a5,5,0,0,1-3.68,2l1.14,2c.13-1,.84-1.05,1.56-1.4-.22,1.39-1.78,2.72,0,3.93,0-.91.59-1.64.72-2.59Zm35,25.63c.52.75-.19,3.29-1.1,3.76a3.65,3.65,0,0,0,1.54.36c-.45-.6-.26-1.83.45-3.13l.41.75c.52,1,1,1.91,1.55,2.88a.6.6,0,0,0,.58.39c.31,0,.26-.33.32-.52.23-.75.45-1.5.63-2.26a1.16,1.16,0,0,1,.89-.94l-1.55-.42c.55.91,0,1.55-.17,2.38-1.05-1.39-1.25-3.44-3.58-3.22Zm-35.34-22,2.46,3.55c.16.23.33.17.49,0s.52-.17.5-.49a.27.27,0,0,0-.32-.21h0c-.83.19-1-.49-1.38-1-.14-.19-.54-.41-.2-.68S26.49,109,27,109c.25,0,.48.43.35.83-.08.25,0,.51.29.42a1.18,1.18,0,0,0,.71-.53c.14-.38-.32-.24-.5-.35s-.54-.42-.48-.64c.11-.38.59-.45.89-.69s.3-.16.41,0c.26.49.87.86.56,1.56a.32.32,0,0,0,.09.45c.32.16.48-.19.72-.3s.16-.2.06-.34l-2.39-3.27C27.45,107.18,25.22,108.67,24.23,108.51Zm4.34,4.43s.19-.39-.26-.38c-.23,0-.5.27-.65.48s.15.34.27.49a4.78,4.78,0,0,1,.4.63,3.15,3.15,0,0,0,1.51,1.4,1.29,1.29,0,0,0,1.49-.1,1.17,1.17,0,0,0,.16-1.4c-.19-.49-.41-1-.6-1.47A.46.46,0,0,1,31,112a.53.53,0,0,1,.63.06,1.07,1.07,0,0,1,.54,1.21c-.09.28-.22.6.11.72s.49-.22.67-.41-.12-.32-.22-.47a5.82,5.82,0,0,1-.31-.59,2.6,2.6,0,0,0-1.23-1.21,1.1,1.1,0,0,0-1.33.05,1,1,0,0,0-.21,1.24l.61,1.65a.53.53,0,0,1-.19.67.57.57,0,0,1-.7,0,1.88,1.88,0,0,1-.82-2Zm14.38,9.24a1.19,1.19,0,0,1-.3,1.12c-.33.45-.62.93-.95,1.38a1,1,0,0,0-.21.94,3.47,3.47,0,0,0,2.52,2c.95.28,1.3-.44,1.75-1.07s.61-1.4,1.56-1.51a3.78,3.78,0,0,0-1.28-.78c0,.33.29.54.11.79-.47.66-.89,1.36-1.4,2-.33.41-.81.29-1.23.06s-.91-.48-.9-1.09a5.06,5.06,0,0,1,2.19-2.64ZM57.22,134l.2-.17c-.58-.31-.52-.84-.6-1.32-.14-1-.26-1.94-.38-2.91,0-.22,0-.5-.33-.48s-.72-.24-.94.08a8.07,8.07,0,0,1-3.39,2.68,5.82,5.82,0,0,0,1.59.57c.1-.33-.55-.37-.19-.72a.68.68,0,0,1,.89-.2,6.5,6.5,0,0,0,.78.31,1,1,0,0,1,.7.62c.17.53-.44.38-.5.72Zm11.07,2.6.25-.17c-.77-.2-.52-.67-.47-1.06.08-.58.18-1.16.3-1.73.06-.27-.1-.71.31-.76a.89.89,0,0,1,1,.47c.08.17.1.44.36.35s.17-.49.26-.73-.13-.24-.31-.27c-1.4-.23-2.81-.45-4.21-.71-.29-.05-.35.09-.38.29s-.18.47,0,.64.34,0,.46-.17a.85.85,0,0,1,1.07-.17c.37.15.11.55.08.82-.06.55-.24,1.1-.27,1.65a1.27,1.27,0,0,1-.74,1.15Zm-34.82-17c-.11-.59.27-.87.61-1.19s.8-.79,1.22-1.15c.22-.18.38-.64.7-.45s.69.52.49,1c-.06.14-.08.28.05.37s.3,0,.43-.12a3.58,3.58,0,0,1,.44-.31c-1.14-1.17-2.2-2.24-3.24-3.33-.19-.2-.3-.2-.46,0s-.48.27-.41.56.29.16.49.1a.84.84,0,0,1,1,.5c.22.36-.24.49-.43.69-.4.43-.86.8-1.26,1.22s-.67.63-1.25.34Z"/><path class="cls-6" d="M57.74,63.18a50.5,50.5,0,0,1-5.36.34c-7.3.45-14.58,1.07-21.83,2a230.62,230.62,0,0,0-24.9,4.26,2.84,2.84,0,0,0-2.42,3.59c.48,2.9,1,5.78,1.6,8.67q1.54,8.08,3.1,16.16c.4,2,1.42,2.72,3.48,2.37,1.38-.23,2.74-.56,4.11-.84q10.86-2.24,21.84-3.8c6.65-.95,13.33-1.67,20-2.13a260,260,0,0,1,27.55-.42Q96,93.8,107.11,95c7.74.86,15.44,2,23.11,3.25,4.47.75,8.94,1.51,13.38,2.44,2.24.47,3.34-.23,3.8-2.5,1.19-5.81,2.33-11.63,3.49-17.45q.63-3.12,1.24-6.26a7.26,7.26,0,0,0,.13-1.17,3.08,3.08,0,0,0-2.63-3.47l-.13,0C142.38,68.22,135.19,67,128,66,120,64.92,112,64.18,104,63.67c-7.77-.49-15.56-.74-23.35-.83a2.4,2.4,0,0,1-.75-.08,3,3,0,0,1,2.51-1.38c3.39.09,6.78,0,10.17.13,4.41.21,8.83.38,13.23.69,3.56.25,7.12.61,10.67,1,3,.3,5.93.66,8.89,1,2.32.29,4.64.59,6.93,1,2.7.47,5.43.82,8.11,1.43,1.63.37,3.32.48,4.93.91,2.21.59,4.56.62,6.65,1.76a4.71,4.71,0,0,1,2,5.1,30.46,30.46,0,0,0-.8,3.92c-.55,2.43-.93,4.9-1.55,7.31-.33,1.31-.53,2.66-.8,4s-.54,2.6-.82,3.9-.58,2.64-.84,4a9,9,0,0,1-1.18,3.25,2.83,2.83,0,0,1-2.6,1.49,21.21,21.21,0,0,1-4.34-.64c-1.32-.32-2.67-.53-4-.81s-2.65-.58-4-.85c-.79-.16-1.59-.3-2.38-.45-1.75-.33-3.48-.76-5.24-.94s-3.33-.55-5-.79c-1.9-.27-3.78-.61-5.67-.91-1-.15-1.95-.26-2.91-.34-1.36-.11-2.72-.3-4.07-.48-2.49-.33-5-.59-7.47-.82s-4.79-.39-7.19-.51c-5-.26-9.93-.55-14.91-.62-4.35-.07-8.67.29-13,.39-3.46.08-6.93.3-10.37.69s-7,.72-10.47,1.17c-2.9.37-5.79.85-8.7,1.17-2.29.25-4.55.76-6.82,1.16s-4.37.75-6.55,1.17c-1.84.35-3.67.77-5.51,1.16-1.27.27-2.54.57-3.83.8a20.16,20.16,0,0,1-2.39.4c-2.47.13-3-1-3.65-2.78-.93-2.58-1.18-5.34-1.78-8-.48-2.13-.79-4.3-1.35-6.42-.4-1.49-.57-3-.9-4.56-.45-2-.8-4.09-1.13-6.14a5.36,5.36,0,0,1,1-4.63,3.54,3.54,0,0,1,1.83-1.05c1.22-.35,2.5-.52,3.75-.77s2.55-.54,3.83-.78q2.39-.45,4.77-.87c1.59-.28,3.24-.53,4.86-.82,2.09-.38,4.19-.62,6.3-.89,2.35-.3,4.69-.61,7-.94,1-.14,2-.21,3-.3,1.64-.14,3.27-.37,4.91-.49,3.48-.25,6.95-.67,10.45-.67a5.11,5.11,0,0,0,1-.26C56,61.48,56.77,62.57,57.74,63.18Z"/><path class="cls-2" d="M128.28,100.18l9.72,1.9a6.21,6.21,0,0,1,.63.2,71.76,71.76,0,0,1-7.2,11.43,65.89,65.89,0,0,1-5.41,6.18,68.18,68.18,0,0,1-19,13.61A72,72,0,0,1,94.82,138l-.24-2.92c0-.32,0-.57.44-.38h.16a2.44,2.44,0,0,0,1.72-.2c1.18-.87,2.81-.53,4.1-1.64-.74,0-1.48.53-1.78-.11-.17-.36.2-1,.83-1.45a5.36,5.36,0,0,0-1.85.48c0,.32.25.17.39.21a.27.27,0,0,1,.21.38c0,.09-.15.24-.2.23a3.07,3.07,0,0,1-1.21-.54c-.15-.12,0-.25.09-.34.39-.36,1-.72.59-1.3s-1.11-.36-1.7-.23a2.27,2.27,0,0,0-.54.22c-1.1.56-1.19,1.21-.25,2.08l-1.08.79L94,127.87c0-.44.35-.49.67-.6,1.06-.35,2.13-.67,3.18-1.06a57.55,57.55,0,0,0,27.57-21.67C126.4,103.12,127.33,101.63,128.28,100.18Zm-23,27.89c.66.46,1.32.94,2,1.38.26.17.46.55.87.34s.2-.59.18-.9c0-.84-.1-1.68-.17-2.69,1.14,1.56,1.41,2.18,1.27,2.8a4.7,4.7,0,0,0,1.89-1.07c-.83-.2-2.13-2.48-1.93-3.46a11.09,11.09,0,0,1-1.06.53,1,1,0,0,0-.67,1.22c.1.59.09,1.21.14,2-1.37-.73-2.51-2.5-4-.58.85.34,2.07,2.6,1.8,3.57a5.9,5.9,0,0,0,1.38-.88c-.42,0-.74,0-.91-.4-.26-.58-.59-1.14-.89-1.7Zm10.59-8.27c1,0,2.91,2,2.9,3l1.76-1.58c-.63,0-1.73-.81-1.59-1,.37-.51.86,0,1.3-.05a1.06,1.06,0,0,1,.33.06,1.7,1.7,0,0,0,2.08-1.13A12.38,12.38,0,0,1,120,119a6.46,6.46,0,0,0,.37-.7.82.82,0,0,0-1-1.18,1.56,1.56,0,0,0-.83.38Zm7.74-4.35c.73.15,1.59-.46,2.25.39l1.5-1.7a22.81,22.81,0,0,1-3.08.1c-.49,0-.54-.15-.5-.58a6.37,6.37,0,0,1,.51-2.11,9,9,0,0,0-1.48,1.44c.64.19.7.85.28,2.13-.46-.35-1-.6-.83-1.49a14.86,14.86,0,0,0-1.59,1.88c.89-.11,3,1.62,3.14,2.62l1.56-1.77c-.95.17-1.29-.47-1.76-.94Zm4.29-6.7c-.07.39.05.76-.22,1.07s-.34.3-.54.09-1-.33-.78-.79.5-1.11,1.22-1.12c.21,0,.46,0,.48-.24s-.34-.4-.55-.55-.31.08-.41.24c-.32.46-.65.91-1,1.38a11.41,11.41,0,0,0-1.21,1.81c.9-.19,3.13,1.33,3.39,2.29l2.48-3.43c.14-.19.17-.36-.07-.47s-.35-.39-.64-.32a.24.24,0,0,0-.17.3l0,0c.49.74-.11,1.19-.45,1.69-.13.18-.23.58-.51.41s-.94-.41-1.09-.86c-.09-.29.25-.58.64-.62a.33.33,0,0,0,.37-.27c0-.19-.19-.26-.32-.35s-.31-.35-.64-.33Zm-10.39,15a3.92,3.92,0,0,1-1.7-.54c-.87-.39-1.73-.78-2.58-1.2-.28-.14-.5-.13-.63.15s-.49.37-.31.76a8.14,8.14,0,0,1,.54,4.11,3.54,3.54,0,0,0,1.3-1c-.22-.27-.58.31-.71-.2a.66.66,0,0,1,.3-.86,5.89,5.89,0,0,0,.75-.54.84.84,0,0,1,.91-.13c.52.18-.06.55.26.76Zm16-18.89-.12-.3c-.39.66-.73.34-1.07.16-.59-.32-1.19-.63-1.76-1-.21-.13-.65-.14-.54-.49s.32-.74.81-.73c.2,0,.45,0,.45-.23s-.36-.3-.55-.45-.31-.08-.43.15c-.72,1.31-1.46,2.61-2.2,3.93.29.16.58.53.88.35s-.13-.46-.13-.72a1.17,1.17,0,0,1,.33-.84c.24-.25.44.09.64.19.53.25,1,.56,1.55.84s1,.39,1,1Z"/><path class="cls-5" d="M86.31,134.39c-1,3.43-2,6.68-2.95,9.92-.33,1.1-.74,2.17-1.14,3.24a.9.9,0,0,1-1.45.54,5.89,5.89,0,0,1-1.56-1.27A10.15,10.15,0,0,0,74.62,144a6.29,6.29,0,0,1-2-1c-.49-.37-.51-.67-.19-1.18,1.86-3,3.83-5.86,5.87-8.7,2.79-3.89,5.62-7.75,8.42-11.64.37-.51.55-.66,1,0a4.16,4.16,0,0,0,4.52,1.86c1.17-.19,1.17-.15,1.24,1.08.17,3.13.35,6.26.5,9.38.17,3.47.31,6.94.46,10.41.08,2,.07,2-1.87,2.19a25.62,25.62,0,0,1-7.37,0c-.8-.14-1-.51-.88-1.27a77.51,77.51,0,0,1,2.11-7.86A4.92,4.92,0,0,0,86.31,134.39Z"/><path class="cls-6" d="M145.43,66.55a67.49,67.49,0,0,0-16.08-38.27c0-.09,0-.13-.12-.12h0a5,5,0,0,0-1.09-1.23,67,67,0,0,0-16.89-13.58A66.14,66.14,0,0,0,92.47,6.13c-1.5-.33-3-.57-4.53-.84a15.24,15.24,0,0,1-2.16-1.71c1.28.15,2.4.27,3.49.46a73.45,73.45,0,0,1,13.49,3.73,67.33,67.33,0,0,1,15.51,8.37,68.23,68.23,0,0,1,15.6,15.56,72.24,72.24,0,0,1,6.1,10,65,65,0,0,1,4.5,11.56,66.91,66.91,0,0,1,2.3,12.15v.25c.06.37.32.85-.07,1.07A1.18,1.18,0,0,1,145.43,66.55Z"/><path class="cls-2" d="M38.61,58.53a1.24,1.24,0,0,1-.84-.28,34.15,34.15,0,0,1-9.27-9.59c-.16-.25-.35-.44-.16-.82a55.4,55.4,0,0,1,7.52-11.35c.09,1.56.17,3,.36,4.37A36.36,36.36,0,0,0,42.09,56.5a5,5,0,0,1,.27.51c-.46.2-.36-.43-.68-.44C40.58,57.9,40.58,57.9,38.61,58.53Z"/><path class="cls-3" d="M103.5,58.57c1.37-.28,2.67-.65,3.43-2.11a5.07,5.07,0,0,0,8.16,0,5.08,5.08,0,0,0,8.17,0,4.08,4.08,0,0,0,3.63,2.06,5.29,5.29,0,0,0,4-1.22,14.57,14.57,0,0,1,1.19,4.31c.12.68.3,1.35.39,2s-.19.9-.8.74a58.14,58.14,0,0,0-7.13-1c-1.84-.26-3.71-.36-5.53-.69-2.11-.38-4.26-.27-6.36-.62s-4.34-.25-6.5-.47a1.09,1.09,0,0,1-1-.7,4.9,4.9,0,0,0-1.06-1.17A1.36,1.36,0,0,1,103.5,58.57Z"/><path class="cls-5" d="M104.63,99.25a6.13,6.13,0,0,1,.12,2.65,25.47,25.47,0,0,1-1.13,4.81,4.47,4.47,0,0,1-3.42,3.05,18.41,18.41,0,0,1-12.57-1.58,4.36,4.36,0,0,1-2.31-3.12,12.83,12.83,0,0,1-.27-3.35,20.39,20.39,0,0,0,3.23,1c3.93.67,7.84.94,11.7-.42A11.87,11.87,0,0,0,104.63,99.25Z"/><path class="cls-2" d="M49.34,57.29c-.52.15-.73-.32-1-.56A31,31,0,0,1,42,48.35a123.29,123.29,0,0,1-5.6-11.64.77.77,0,0,1,.13-1A57.8,57.8,0,0,1,46,27.18c.36-.26.51-.15.74.12A23.91,23.91,0,0,1,49.38,31c.28.48.13.72-.31.95a16,16,0,0,0-3.44,2.37,9.07,9.07,0,0,0-3,5.77,12.62,12.62,0,0,0,1.56,8.16,59,59,0,0,0,5.59,8.26Z"/><path class="cls-4" d="M49.55,54.09a36.72,36.72,0,0,1-4.33-6.35,11.38,11.38,0,0,1-.94-9.56,8.43,8.43,0,0,1,4-4.52c1.52-.85,1.48-.88,2.13.72a27.23,27.23,0,0,1,1.82,8.24,1.18,1.18,0,0,1-.51,1.21c-2.75,2-3,4.79-2.64,7.82C49.22,52.48,49.41,53.28,49.55,54.09Z"/><path class="cls-5" d="M101.64,111.09a9.06,9.06,0,0,0-.81,1.77A32.23,32.23,0,0,1,97.58,118,11,11,0,0,1,95,120.42a4.66,4.66,0,0,1-7.09-2.5,17,17,0,0,1-.36-7.48c.07-.58.37-.32.64-.2a17.18,17.18,0,0,0,5.52,1.64,14.84,14.84,0,0,0,7.46-1.19C101.8,110.41,101.76,110.63,101.64,111.09Z"/><path class="cls-6" d="M16.89,101.79a46,46,0,0,0,3.88,7A67.85,67.85,0,0,0,46.38,132.3a66,66,0,0,0,23.25,7.27l2,.25c-.62,1.27-1.07,1.51-2.53,1.18-1.66-.37-3.35-.54-5-.88A61.07,61.07,0,0,1,58,138.61a69.77,69.77,0,0,1-9.1-3.43,71.25,71.25,0,0,1-11.92-7,69.47,69.47,0,0,1-10.72-9.73,65.63,65.63,0,0,1-8.62-11.95c-.69-1.24-1.33-2.51-2-3.75-.29-.51-.2-.71.37-.68C16.35,102.06,16.55,101.7,16.89,101.79Z"/><path class="cls-6" d="M45.3,13a12.26,12.26,0,0,0-2.7,1.48A67.86,67.86,0,0,0,16.69,43.09,65.69,65.69,0,0,0,10.35,66a4.38,4.38,0,0,1-.1.49,4.82,4.82,0,0,1-.7.26c-.47.1-.72,0-.67-.61.2-2.17.48-4.33.88-6.47.44-2.34,1-4.66,1.68-7A67.44,67.44,0,0,1,17,39.27a75.9,75.9,0,0,1,4.58-7.22A68.34,68.34,0,0,1,31.77,20.7,70.3,70.3,0,0,1,43.85,12c1.31-.76,1.33-.74,1.46.86A.41.41,0,0,1,45.3,13Z"/><path class="cls-4" d="M87,53.94a16.44,16.44,0,0,0,.41-6.16,4.66,4.66,0,0,0-2.9-4A.71.71,0,0,1,84,43a16.46,16.46,0,0,0-.28-4.43,1.21,1.21,0,0,1,.15-.88c.72-1.29,1.49-2.56,2.34-3.78.3-.43.5-.34.86-.1,5.1,3.35,6.07,8.47,4.08,13.95a23.2,23.2,0,0,1-4,6.37Z"/><path class="cls-5" d="M83.73,95.42c1.71,0,3.41-.07,5.11,0,5.37.27,10.72.71,16.07,1.28.82.09.86.13.41.89a7.83,7.83,0,0,1-5.62,3.59A19.53,19.53,0,0,1,87.29,99.4a6.08,6.08,0,0,1-3.49-3.66A2.48,2.48,0,0,1,83.73,95.42Z"/><path class="cls-6" d="M94.81,138A72,72,0,0,0,107,133.5a68.18,68.18,0,0,0,19.08-13.62,65.89,65.89,0,0,0,5.41-6.18,71.76,71.76,0,0,0,7.2-11.43c1.34.16,1.39.18.84,1.37a53.53,53.53,0,0,1-4.27,7.3,69.32,69.32,0,0,1-7.08,8.83,70.78,70.78,0,0,1-7.28,6.7,63.46,63.46,0,0,1-8.45,5.76,69.08,69.08,0,0,1-10.38,4.89c-2.22.81-4.46,1.52-6.73,2.19-.42.12-.58,0-.54-.42S94.8,138.28,94.81,138Z"/><path class="cls-6" d="M90.46,16.09c1.42.41,2.84.81,4.25,1.23a56.61,56.61,0,0,1,18.93,10A57.66,57.66,0,0,1,134.75,63.7a9.54,9.54,0,0,1,.06,1c-.71.1-1-.21-1.05-.92a49.64,49.64,0,0,0-1.4-6.61,56.2,56.2,0,0,0-3.6-9.49,59.18,59.18,0,0,0-5.85-9.5,58.14,58.14,0,0,0-8-8.51,54.66,54.66,0,0,0-6.35-4.83,55.45,55.45,0,0,0-9.59-5,45.52,45.52,0,0,0-8-2.54C90.13,17.18,90.33,16.63,90.46,16.09Z"/><path class="cls-6" d="M78.76,129.94a29.17,29.17,0,0,0-4.08-.22A57.69,57.69,0,0,1,28,100.94a3.42,3.42,0,0,1-.55-1.12.92.92,0,0,1,1.26.33l.06.12a50.09,50.09,0,0,0,6.55,9.22,57,57,0,0,0,22.54,15.69,52.77,52.77,0,0,0,9.64,2.69,39.77,39.77,0,0,0,7.23.81c1.17,0,2.35.08,3.52.14.35,0,.82-.12,1,.26S78.89,129.64,78.76,129.94Z"/><path class="cls-4" d="M61.44,30.34a11.57,11.57,0,0,0,5.23,1.52A16.08,16.08,0,0,0,73.19,31l.79-.29c.44-.17.61,0,.59.44a6.15,6.15,0,0,1-7.5,5.81,5.8,5.8,0,0,1-4.26-3.31A32.38,32.38,0,0,1,61.44,30.34Z"/><path class="cls-3" d="M31.32,58.33c.58-.11.66.46.9.73.86,1,1.62,2.06,2.44,3.08.35.44.14.63-.26.77a1.49,1.49,0,0,1-.48.13c-3.13,0-6.17.74-9.27,1h-.17c-1.24.29-1.24.22-1.08-1.06.24-1.91.92-3.72,1.19-5.62,0-.12,0-.28.23-.3l.58-.62a4,4,0,0,0,3.58,2A11.66,11.66,0,0,0,31.32,58.33Z"/><path class="cls-5" d="M87.08,60.51c.59-.66,1.15-1.35,1.78-2,3.2-3.12,4.51-7.15,5.41-11.35.62-2.88.95-5.8,1.34-8.71a2.48,2.48,0,0,1,.3-1.16,67,67,0,0,1,.23,9.53,32.5,32.5,0,0,1-4,13.42.86.86,0,0,1-.9.53H87.09Z"/><path class="cls-6" d="M20.9,64.61a44.86,44.86,0,0,1,1.67-8.2A57.46,57.46,0,0,1,42.82,26.74a8.48,8.48,0,0,1,1.91-1.33c.76.44.77.53.15,1A57.31,57.31,0,0,0,25.65,50.59a50,50,0,0,0-2.91,9.2c-.27,1.3-.58,2.59-.77,3.91C21.87,64.37,21.59,64.7,20.9,64.61Z"/><path class="cls-5" d="M36.42,38.54c.34.09.32.42.42.65a91.42,91.42,0,0,0,5.58,11.27,28.83,28.83,0,0,0,10.2,10.12l.92.57a20.94,20.94,0,0,0-2.88.23c-1.8.41-2.91-.35-4-1.74a53.74,53.74,0,0,1-10.33-21A.3.3,0,0,0,36.42,38.54Z"/><path class="cls-6" d="M128.28,100.18c-1,1.47-1.88,3-2.87,4.41a57.55,57.55,0,0,1-27.57,21.67c-1,.4-2.11.72-3.18,1.06-.32.1-.66.16-.67.6a8.89,8.89,0,0,0-.08-.91c-.08-.4.12-.56.46-.65a45.63,45.63,0,0,0,8.41-3.31,55.66,55.66,0,0,0,11.07-7.16,59.51,59.51,0,0,0,8.11-8.21,52.77,52.77,0,0,0,4.7-6.84C127.09,100.07,127.54,99.87,128.28,100.18Z"/><path class="cls-5" d="M96.45,61c5.31-4.12,8.29-9.45,10-15.59a20.63,20.63,0,0,1-.69,5.6,30.7,30.7,0,0,1-4.81,9.81c-.13.18-.23.39-.51.38Z"/><path class="cls-3" d="M112.42,97.73c1.38-.24,2.67.51,4,.33.23,0,.34.14.37.36a5.14,5.14,0,0,0-2,1.53c-.3-.21-.4.13-.47.24-.5.82-1.28,1.52-1.13,2.62-.56,0-1.13-.19-1.4.61-.14.42-.7.51-1.16.56a2.89,2.89,0,0,1-3-1.42,3.56,3.56,0,0,1,.69-3.86c.33.24.68,0,1,0a2.49,2.49,0,0,1,1.84.91c.76,1,1,1,1.68,0,.61.08.67-.24.51-.71A3,3,0,0,0,112.42,97.73Z"/><path class="cls-5" d="M28.86,50.1c3.07,5.16,7.73,8.61,12.61,12l-4.1.39c-.29,0-.44-.22-.62-.39A26.09,26.09,0,0,1,28.86,50.1Z"/><path class="cls-2" d="M31.32,58.33a11.66,11.66,0,0,1-2.34.18,4,4,0,0,1-3.58-2l-.58.62a17.58,17.58,0,0,1,1.05-3.51A42,42,0,0,1,27.8,49c.17,1,.27,2,.47,2.89a17.29,17.29,0,0,0,2.81,5.75C31.23,57.83,31.57,58,31.32,58.33Z"/><path class="cls-2" d="M114.82,100a5.14,5.14,0,0,1,2-1.53,5,5,0,0,1,4,.81c1.52,1.77,1.76,3.2.84,4.83a4.41,4.41,0,0,1-1.68,1.58l-.88.21a4,4,0,0,1-4.78-2.91A4.3,4.3,0,0,1,114.82,100Zm5.18,4.47a2.92,2.92,0,1,0-4.1-.49l.1.12a3.1,3.1,0,0,0,4,.38Z"/><path class="cls-2" d="M39,98c.85.06,1.74.05,2.32.84.18.25.52.62.23.85a.63.63,0,0,1-1-.22.65.65,0,0,0-.5-.38,2.92,2.92,0,0,0-3.07.46c-.61,1-.37,1.53.75,1.65.78.08,1.56.07,2.34.11,1.53.08,2.2.52,2.35,1.52s-.4,1.89-1.73,2.43l-.45.19c-.33,0-.65.11-1,.13a4.5,4.5,0,0,1-2.54-.35,4.76,4.76,0,0,1-.6-.78c-.11-.23-.46-.58,0-.77s.67-.27.95.18a2.08,2.08,0,0,0,2.75.77,2.14,2.14,0,0,0,.41-.05c.82-.27,1.34-.89,1.19-1.5-.19-.78-.84-.78-1.47-.8a15.23,15.23,0,0,1-2.34-.12c-1.9-.21-2.48-1.39-1.54-3.05L37,98.4A8.27,8.27,0,0,1,39,98Z"/><path class="cls-2" d="M43.92,101c-.08-1-.15-1.93-.24-2.89,0-.32-.05-.61.33-.72h.3c.39.08.31.4.34.66.06.61.14,1.22.16,1.83,0,.4.15.52.57.46,1-.13,2-.21,3-.31l.69-.08c.54.1.49-.25.46-.6a7.47,7.47,0,0,1-.09-2.44h.62c.3.16.26.48.28.74q.28,2.9.53,5.8c.08.88-.09,1-1,.66-.07-.86-.16-1.71-.19-2.57,0-.51-.19-.67-.69-.62-1,.11-2,.17-3,.26s-1.1.11-.88,1.23a12.4,12.4,0,0,0,.09,1.83c0,.35-.05.51-.42.56s-.53-.12-.56-.5a11.7,11.7,0,0,0-.23-2.16Z"/><path class="cls-3" d="M38.61,58.53c2-.63,2-.63,3.06-2,.31,0,.22.65.68.44h0c-.2.24,0,.31.17.35h0l.09.18.12-.16a45,45,0,0,0,3.14,3.73c.32.3.24.62-.29.63a21.3,21.3,0,0,1-2.76,0c-.75-.09-1.26-.76-1.88-1.16s-1.45-1-2.17-1.57C38.59,58.87,38.63,58.69,38.61,58.53Z"/><path class="cls-5" d="M92.41,60.9a27.71,27.71,0,0,0,3-6.31c.1-.3.25-.34.49-.19,1,.56,1.93,1.11,2.88,1.67.29.17.23.36,0,.59-1.38,1.39-2.77,2.75-4.27,4C93.93,61.18,93.26,60.7,92.41,60.9Z"/><path class="cls-2" d="M108.37,98.72a3.56,3.56,0,0,0-.69,3.86,2.89,2.89,0,0,0,3,1.42c.46,0,1-.14,1.16-.56.27-.8.84-.63,1.4-.61.1.21-.06.4-.08.59a3.52,3.52,0,0,1-1.74,1.32,16.43,16.43,0,0,1-1.67,0c-2.51-.21-3.84-2.14-3.27-4.7.06-.26.24-.5.13-.79h0c.19.07.17-.11.23-.19a4.27,4.27,0,0,1,1.95-1.68,6.15,6.15,0,0,1,3.67.35,3,3,0,0,1,1,1.18c.16.48.1.79-.51.71a.67.67,0,0,1-.53-.31,2.6,2.6,0,0,0-4-.59Z"/><path class="cls-2" d="M75.54,96.73c0-.58.18-.82.83-.77,1.3.1,2.61.1,3.92.14,1.37.56,1.69,1.56,1,3.26a3.62,3.62,0,0,1-1.37.7c-.84,0-1.68.06-2.51,0s-1.13.2-.92,1c0,.56-.07,1.11-.06,1.67,0,.37-.07.56-.5.54s-.48-.24-.47-.59V99.76a10.65,10.65,0,0,0,.06-2.37ZM79.3,99.2c1-.09,1.33-.39,1.31-1.19s-.36-1.06-1.34-1.13a17.6,17.6,0,0,1-1.92-.07c-.64-.07-.92.24-.75.89-.19,1.52-.19,1.52,1.28,1.53.48,0,.95,0,1.43,0Z"/><path class="cls-4" d="M79.08,30.44a14.16,14.16,0,0,1,4.45,1.3c.22.11.48.17.16.52-.69.73-1.34,1.5-2,2.29-.31.38-.53.48-.91.07-.66-.72-1.36-1.4-2-2.1s-.31-1.26-.29-1.91C78.49,30.33,78.84,30.46,79.08,30.44Z"/><path class="cls-5" d="M82.39,60.47c1-.92,1.83-1.73,2.68-2.57a35.3,35.3,0,0,0,4.48-5.3.75.75,0,0,1,1.18-.24c.53.32,0,.64-.15.88a26.45,26.45,0,0,1-6.24,7.06C83.9,60.67,83.83,60.66,82.39,60.47Z"/><path class="cls-3" d="M49.43,96.9a7.47,7.47,0,0,0,.09,2.44c0,.35.08.7-.46.6V98.19c0-.24,0-.45-.35-.46s-.45-.05-.6.18A3.36,3.36,0,0,0,48.4,100c-1,.1-2,.18-3,.31-.41.06-.55-.06-.57-.46,0-.61-.1-1.22-.16-1.83,0-.26.05-.58-.34-.66.06-.09.1-.25.17-.26a18.47,18.47,0,0,1,4.67-.4C49.26,96.72,49.34,96.84,49.43,96.9Z"/><path class="cls-4" d="M57.19,33.65c.24.51-.25.74-.61,1-1.4,1.15-1.4,1.15-2.15-.51-.34-.74-.66-1.48-1-2.2-.23-.45-.1-.63.34-.77a8.88,8.88,0,0,1,2.46-.45c.42,0,.59.13.64.55C56.91,32.05,57.06,32.79,57.19,33.65Z"/><path class="cls-3" d="M49.34,57.29l.44-.77a.27.27,0,0,1,.27.16c0,.15,0,.27.18.33h0a.15.15,0,0,0,.17.17h0c0,.12,0,.18.16.16h0a1,1,0,0,0,1.07.69,9.31,9.31,0,0,1,2.63,2.32c.11.13.22.31,0,.43s-.26,0-.38-.07C52.3,60,51,58.8,49.51,58,49.3,57.82,49.4,57.53,49.34,57.29Z"/><path class="cls-3" d="M108.75,97.38a4.27,4.27,0,0,0-1.95,1.68c-.12,0-.22.05-.23.19h0c-.45,0-.55.39-.76.68a.6.6,0,0,1-.42.22c-.22,0-.14-.24-.2-.39-.47-1.17.48-1.86.92-2.72,0-.07.15-.15.19-.14C107.11,97.18,108,96.72,108.75,97.38Z"/><path class="cls-5" d="M104.27,61.39l-2.54-.18a4.12,4.12,0,0,1,.76-1.35c.13-.23.27-.22.45,0Z"/><path class="cls-2" d="M98,133.62a1.62,1.62,0,0,1-2,.26.62.62,0,0,1-.32-.82l0,0c.2-.45.5-.21.76-.09C96.93,133.13,97.37,133.35,98,133.62Z"/><path class="cls-6" d="M46,24.55c.39-.53,1-.69,1.51-1.1.1.41.43.85,0,1.22A1.12,1.12,0,0,1,46,24.55Z"/><path class="cls-2" d="M96.85,130.38c.33.08.64.19.62.57a.73.73,0,0,1-.68.72.7.7,0,0,1-.7-.69C96.08,130.51,96.52,130.48,96.85,130.38Z"/><path class="cls-4" d="M51.64,58a1,1,0,0,1-1.07-.69C51.1,57.31,51.29,57.79,51.64,58Z"/><path class="cls-4" d="M87.14,54.08l-.19.2c-.11-.13,0-.23,0-.34Z"/><path class="cls-5" d="M46.67,26.1,46.41,26c.12-.12.23-.06.35,0Z"/><path class="cls-4" d="M50.23,57a.29.29,0,0,1-.18-.33C50.19,56.76,50.31,56.83,50.23,57Z"/><path class="cls-2" d="M42.5,57.36c-.22,0-.37-.11-.17-.35C42.5,57.08,42.65,57.18,42.5,57.36Z"/><path class="cls-2" d="M88.47,27.74h-.2l.06-.21Z"/><path class="cls-5" d="M46.75,26l.19.15-.11.12-.16-.17Z"/><polygon class="cls-6" points="20.55 64.73 20.56 64.71 20.56 64.74 20.55 64.73"/><path class="cls-4" d="M50.4,57.18c-.12,0-.17-.05-.17-.17C50.39,57,50.46,57,50.4,57.18Z"/><path class="cls-4" d="M50.57,57.35c-.12,0-.18,0-.16-.16S50.64,57.18,50.57,57.35Z"/><path class="cls-2" d="M42.7,57.36l-.12.16-.09-.18a.12.12,0,0,1,.21,0Z"/><path class="cls-6" d="M127.38,75.35c.6-1.2.6-1.18,2-1s2.55.34,3.82.49c.42,0,.77.15.62.64s.39,1.16-.54,1.22-1,.68-1.07,1.33c-.31,2.44-.6,4.88-.91,7.31-.17,1.38-.35,2.77-.52,4.15a.88.88,0,0,0,.54,1.08c.64.27.14.91.34,1.34,0,.34-.22.44-.52.43h-.79a26.7,26.7,0,0,0-4.08-.48c-.84-.1-1.26-.4-1.12-1.28.14-.21,0-.54.32-.69.63-.13,1.16-.37,1.28-1.11.43-2.68.87-5.36,1.29-8a2.54,2.54,0,0,0-.1-1.39c-.4,1.5-1.21,2.83-1.55,4.34l-2.3,6a6.63,6.63,0,0,0-.33.94c-.14.64-.51.79-1.08.57A5.8,5.8,0,0,0,121.3,91c-.24,0-.49-.07-.44-.37a25.77,25.77,0,0,0-.15-2.83c.1-2.74-.22-5.47-.34-8.21,0-.14.07-.35-.27-.4-.18,2.27-.66,4.51-.75,6.79a4.49,4.49,0,0,0-.33,2.08c0,.31.11.54.46.58a2,2,0,0,1,.1,2,1.72,1.72,0,0,0-1-.1c-.44,0-.88-.06-1.32-.07-1.55,0-1.55,0-1.6-1.5a1.3,1.3,0,0,1,.36-.75A1.29,1.29,0,0,0,117.34,87s0-.08,0-.12a33.62,33.62,0,0,1,.5-3.88c.3-2.36.77-4.69.92-7.06,0-.27.12-.58-.16-.78a1.23,1.23,0,0,1-.46-1.25c0-.22.06-.44.07-.66,0-.4.19-.5.6-.44,1.66.25,3.31.47,5,.66.49.06.48.34.5.69.12,2.31.26,4.62.38,6.94l.15,2a26.84,26.84,0,0,0,1.48-4A33.54,33.54,0,0,0,127.38,75.35Z"/><path class="cls-6" d="M9.44,74.48c-.16-.8.22-.93,1-1,2.51-.39,5-.88,7.5-1.39a3,3,0,0,1,3,1,6.4,6.4,0,0,1,1.06,7c-.4.74-1.18,1.07-1.76,1.75a8.31,8.31,0,0,1,2.25.49,5.42,5.42,0,0,1,2.95,3.76,7.32,7.32,0,0,1,.29,2.74A5.42,5.42,0,0,1,23,93a12,12,0,0,0-2,.47c-2.12.61-4.32.74-6.46,1.21-.24.05-.65.19-.73-.15s-.33-1,.13-1.24c.71-.45.53-1,.36-1.61a10.29,10.29,0,0,1-.22-1.06c-.26-1.48-.44-3-.76-4.43-.49-2.18-.7-4.41-1.23-6.58a31.86,31.86,0,0,0-.75-3.67c-.17-.46-.35-.87-1-.79A.83.83,0,0,1,9.44,74.48Zm7.64,7.23h0a3.86,3.86,0,0,0,1.53-2.07A5.33,5.33,0,0,0,16.7,74a2.15,2.15,0,0,0-1.7-.07c-.45.13-.18.62-.21,1,.35,2.18.68,4.35,1,6.52.14.8.37.9,1,.51.11,0,.22-.05.25-.2Zm3,9.94a1.88,1.88,0,0,0,1.08-.78c.82-1,.65-2.22.61-3.37a4.29,4.29,0,0,0-4.36-4.22h-.12c-.91,0-.93.06-.63,1,.22,2.59.8,5.12,1.2,7.69a.47.47,0,0,0,.66.43,3.21,3.21,0,0,0,1.6-.75Z"/><path class="cls-6" d="M53.06,71.93c0-1.07,0-1.07,1-1.07,2.41,0,4.82-.07,7.22,0a4.06,4.06,0,0,1,4,2.6c.69,1.69.4,4.41-1.65,5.43-.17.08-.31.17-.28.36s.26.14.41.17a3.12,3.12,0,0,1,2.45,2.16A5.81,5.81,0,0,1,64,88.65c-3,.1-6.08.21-9.13.3-.29,0-.72.2-.8-.33s-.62-1.18.08-1.57a1.59,1.59,0,0,0,.77-1.69q-.09-3.73-.19-7.46c0-1.2-.08-2.4-.16-3.59,0-.5,0-1.16-.7-1.25S53,72.51,53.06,71.93Zm5.6,2.21c0,1.25.06,2.51.15,3.76,0,.56.32.85.88.4a1.12,1.12,0,0,0,1.11-.71,3.86,3.86,0,0,0-.36-4.14,1.31,1.31,0,0,0-1.53-.52c-.55.25-.49.74-.25,1.25Zm1.79,12.3a1.2,1.2,0,0,0,1.24-.91c.29-1.6.36-3.21-.91-4.54a1.32,1.32,0,0,0-1.5-.42c-.61.22-.21.76-.25,1.15q0,1.92.08,3.85C59.14,86.66,59.34,86.79,60.45,86.44Z"/><path class="cls-6" d="M40,88.82a.87.87,0,0,1,.15-.56,1.12,1.12,0,0,0,1.2-1c0-1.09-.23-2.16-.28-3.23-.15-3.09-.71-6.14-.76-9.23,0-.33-.09-.54-.47-.52-.67,0-.93-.34-.88-1-.18-.76.15-1,.9-1,2.51-.16,5-.67,7.52-.69a3.93,3.93,0,0,1,3.74,1.95,4.58,4.58,0,0,1-1.25,5.85c-.18.13-.38.23-.45.48.11.23.36.26.55.33,3.34,1.17,3.67,6.31,1.65,8.14a3.31,3.31,0,0,1-1,.7,13.17,13.17,0,0,1-3.21.63c-1.75.11-3.49.22-5.23.43S40.44,90.33,40,88.82Zm5.57-9.64c1.07-.28,1.37-1.21,1.68-2.07a2.92,2.92,0,0,0-1-3.05,1.92,1.92,0,0,0-1.69-.14c-.38.13-.13.64-.14,1,.1,1.27.18,2.55.29,3.82C44.71,79.35,45,79.62,45.57,79.18Zm1.14,8.09A1.47,1.47,0,0,0,48,85.81a12,12,0,0,0,0-1.75,3.22,3.22,0,0,0-1.35-2.46,1.33,1.33,0,0,0-1.47-.26c-.42.23-.15.8-.13,1.23.08,1.34.16,2.68.23,4,.1,1.16.36,1.29,1.43.69Z"/><path class="cls-6" d="M93.46,69.42a7.37,7.37,0,0,0-1.52,3.32,22.88,22.88,0,0,0,.15,11.95,5.35,5.35,0,0,0,1.7,2.83,1.63,1.63,0,0,0,2.17.11,2.07,2.07,0,0,0,1.51-2c0-1,0-1.91.05-2.85a3.07,3.07,0,0,0-1-2.94c0-1.06.65-1.14,1.5-1.09s2,0,3,0c.43,0,.64,0,.53.61a39,39,0,0,0-.32,6.09c0,.24.12.31.3.43a1,1,0,0,1,.14,1.76,15,15,0,0,1-1.3,1,1,1,0,0,0-.33,0,9.11,9.11,0,0,1-6.44.64,8,8,0,0,1-2.4-1.07c-2.87-2.12-3.89-5.14-4.1-8.53a18.53,18.53,0,0,1,.25-4.08,21,21,0,0,1,1-3.58,16.33,16.33,0,0,1,1.76-3.08,6.5,6.5,0,0,1,5.71-2.19,4.26,4.26,0,0,1,2.46.94,3.44,3.44,0,0,0,1.06.65c.33.12.79.3.93-.31.08-.37.37-.26.6-.26s.34.23.33.47c-.05,1.68-.11,3.35-.16,5,0,.42-.2.46-.53.32s-.47-.18-.7-.27a1.52,1.52,0,0,1-.62-1.2,4.88,4.88,0,0,0-1.06-2.72,2,2,0,0,0-1.44-.94A2.67,2.67,0,0,0,93.46,69.42Z"/><path class="cls-6" d="M135.8,76.85c.35-1.16.35-1.19,1.66-1A42.59,42.59,0,0,1,143.63,77c3.21,1,4.08,3,3.13,6.52a5.55,5.55,0,0,1-2.89,3.3,8.25,8.25,0,0,1-4.29-.26c-.57-.19-.7.06-.76.5a4.74,4.74,0,0,0,0,.67,15.66,15.66,0,0,0-.67,3.66c0,.25,0,.55.28.64,1.07.33.57,1.08.43,1.68s-.78,0-1.12.29c-.14-.09-.27-.26-.41-.27-1.27-.09-2.46-.58-3.71-.73s-1.28-.25-1.23-1.36a.65.65,0,0,1,.36-.7c.6-.19,1.16-.46,1.32-1.13.26-1.13.46-2.28.71-3.41.28-1.29.61-2.57.89-3.87s.49-2.54.79-3.8C136.67,77.93,136,77.5,135.8,76.85Zm4.7,3.37a15.26,15.26,0,0,0-.65,3.15c-.07.3-.28.71.07.93a.89.89,0,0,0,1.08-.12,3.19,3.19,0,0,0,1.68-3.72,2.35,2.35,0,0,0-.75-1.18c-.37-.26-.81-.63-1.2-.33a1.13,1.13,0,0,0-.23,1.23Z"/><path class="cls-6" d="M70.59,84.89c-.15.76-.26,1.41.75,1.79.54.21.23,1,.25,1.5s-.4.25-.64.28-.44,0-.62.14a6.87,6.87,0,0,0-2.58-.2c-.68,0-.94-.14-.88-.8v-.67h0a2.59,2.59,0,0,0,1.29-1.24c.53-1.3.92-2.66,1.4-4s.79-2.69,1.24-4c.58-1.75,1.31-3.52.72-5.45,1.06-.92,2.11-1.85,3.17-2.76.5-.43.62,0,.73.36.42,1.39.81,2.79,1.22,4.19l3.14,10.7c.18.62.33,1.22,1.1,1.44.41.12.8,1.64.59,2s-.42.2-.66.13H74.86c-.33,0-.93.23-.87-.43,0-.48-.54-1.35.62-1.35a.3.3,0,0,0,.22-.09,2.57,2.57,0,0,0,.09-2,.9.9,0,0,0-1-.69c-.69,0-1.39.12-2.08.07A1.13,1.13,0,0,0,70.59,84.89Zm1.88-3.31c1.41,0,1.41,0,1.15-1.36a1.85,1.85,0,0,0,0-.33c-.34-.85-.28-1.85-.9-2.72a10.93,10.93,0,0,0-.78,2.51,2.29,2.29,0,0,0-.38,1c-.33,1-.2,1.14.91.91Z"/><path class="cls-6" d="M33.2,74.18c-.13-.85.3-1.06,1.08-1.05a15.18,15.18,0,0,0,2.33-.21.86.86,0,0,1,1,.47v.91c-1.05.45-1.05,1.35-.92,2.26.33,2.38.69,4.75,1,7.13a13.4,13.4,0,0,1-.07,4.92,3.64,3.64,0,0,1-2,2.7,10.86,10.86,0,0,1-3.65.33,3.51,3.51,0,0,1-2.24-.95,7.2,7.2,0,0,1-2.13-4.6c-.36-3.1-1-6.17-1.11-9.29,0-.43-.16-.91-.56-.89-.73,0-.77-.46-.92-.91-.1-.63.13-.94.81-1,1.64-.15,3.27-.36,4.91-.53.27,0,.67-.24.77.21s.33.87-.13,1.16c-.83.51-.79,1.24-.68,2.06.42,3,.66,5.94,1.19,8.88A6,6,0,0,0,33,88.56a1.55,1.55,0,0,0,1.68.68,1.13,1.13,0,0,0,1.13-.82,9.59,9.59,0,0,0,.32-3.14,53.55,53.55,0,0,0-1-7.35c-.29-1.17-.25-2.62-1.79-3.12C33.18,74.72,33.29,74.4,33.2,74.18Z"/><path class="cls-6" d="M104.13,72.55c0-1.09,0-1.09,1.09-1,1.53.1,3.06.2,4.6.32.27,0,.72-.18.74.29s.29,1.09-.24,1.3c-1.21.48-1.18,1.49-1.27,2.49-.24,2.45-.51,4.89-.73,7.34a6.66,6.66,0,0,0,.57,3.84c.53,1,1.4,1.19,2.16.52.51.19.65-.24.89-.52a5,5,0,0,0,.94-3,69.81,69.81,0,0,0,.44-8.54c0-.64.09-1.3-.72-1.6-.24-.09-.31-.38-.33-.64.05-1.09.7-1.2,1.6-1a11.27,11.27,0,0,0,2.08.15c.59,0,.9.14.78.8,0,.23-.07.51.21.67h0a2.82,2.82,0,0,0-2,2.86c-.21,2.61-.43,5.23-.73,7.83-.26,2.25-.76,4.42-2.94,5.69a10.73,10.73,0,0,0-2,0c-3.31-.26-5-1.7-5.11-5.27a38.25,38.25,0,0,1,.33-5.17c.19-1.7.39-3.41.63-5.1.05-.36,0-.79-.29-.88C104.05,73.66,104.15,73.09,104.13,72.55Z"/><path class="cls-1" d="M9.44,74.48c.15.4.41.71.86.64.64-.09.82.33,1,.79a31.86,31.86,0,0,1,.7,3.67c.53,2.17.74,4.4,1.23,6.58.33,1.45.5,3,.76,4.43a10.29,10.29,0,0,0,.22,1.06c.17.58.35,1.16-.36,1.61-.46.29-.24.84-.13,1.24s.5.21.73.15c2.14-.48,4.34-.6,6.46-1.21a12,12,0,0,1,2-.47,4.13,4.13,0,0,1-2,1.2,64.91,64.91,0,0,1-8,1.53c-.26,0-.62.16-.61-.3s-.53-.93.18-1.13.56-.52.47-1c-.91-4.92-1.79-9.84-2.69-14.77a15.48,15.48,0,0,0-.42-1.62c-.13-.45-.37-.83-.93-.75-.91.12-.76-.62-.84-1.11s.49-.34.76-.47A1.5,1.5,0,0,1,9.44,74.48Z"/><path class="cls-1" d="M90,69A16.33,16.33,0,0,0,88.24,72a21,21,0,0,0-1,3.58A18.53,18.53,0,0,0,87,79.7c.21,3.39,1.24,6.41,4.1,8.53a8,8,0,0,0,2.4,1.07,9.11,9.11,0,0,0,6.44-.64,1,1,0,0,1,.33,0c-3.58,3-10.6,3.18-13.25-2.8A15.26,15.26,0,0,1,88.7,70.18,3.6,3.6,0,0,1,90,69Z"/><path class="cls-1" d="M53.06,71.93c0,.58.07,1,.8,1.12s.67.75.7,1.25c.08,1.2.13,2.4.16,3.59q.11,3.73.19,7.46A1.59,1.59,0,0,1,54.14,87c-.7.39-.16,1-.08,1.57s.51.34.8.33l9.13-.3a2.85,2.85,0,0,1-2.24,1.14c-2.85.07-5.71.1-8.56.17-.36,0-.49-.12-.52-.46-.05-.68-.44-1.44.65-1.72.32-.08.31-.5.3-.81l-.36-12c0-.46-.16-.88-.68-.9s-.74-.26-.78-.81C51.72,71.94,51.69,71.94,53.06,71.93Z"/><path class="cls-1" d="M25,75c.15.45.18.94.92.91.41,0,.54.46.56.89.14,3.12.75,6.19,1.11,9.29a7.2,7.2,0,0,0,2.13,4.6,3.51,3.51,0,0,0,2.24.95,10.86,10.86,0,0,0,3.65-.33,1.39,1.39,0,0,1-.55.61A5.39,5.39,0,0,1,27,89.58a24.9,24.9,0,0,1-1.15-6.08c-.25-1.89-.47-3.78-.71-5.66-.06-.49-.22-.85-.8-.89-1-.07-.43-.9-.59-1.36s.31-.4.58-.44Z"/><path class="cls-1" d="M104.13,72.55c0,.54-.07,1.11.7,1.31.33.09.34.52.29.88-.24,1.7-.44,3.4-.63,5.1a38.25,38.25,0,0,0-.33,5.17c.09,3.57,1.8,5,5.11,5.27a10.73,10.73,0,0,1,2,0,2.29,2.29,0,0,1-1.41.84,7.52,7.52,0,0,1-4.75-.56c-1.61-.82-2.11-2.38-2.31-4a29.62,29.62,0,0,1,.43-6.27c.14-1.48.33-2.95.47-4.42.05-.54.07-1.09-.67-1.24-.4-.08-.26-.44-.26-.7C102.82,72.58,102.82,72.58,104.13,72.55Z"/><path class="cls-1" d="M37.61,74.33v-.91l1.29-.13c0,.63.21,1,.88,1,.38,0,.47.19.47.52C40.3,77.9,40.86,81,41,84c.05,1.07.32,2.14.28,3.23a1.12,1.12,0,0,1-1.2,1q-.58-6.11-1.15-12.2c0-.48-.1-.83-.69-.78S37.89,74.61,37.61,74.33Z"/><path class="cls-1" d="M33.2,74.18c.09.2,0,.51.22.6,1.54.5,1.5,1.95,1.79,3.12a53.55,53.55,0,0,1,1,7.35,9.59,9.59,0,0,1-.32,3.14,1.13,1.13,0,0,1-1.13.82A33.22,33.22,0,0,0,33.6,77.5a1.92,1.92,0,0,0-1.26-1.62c-.5-.16-.3-.89-.35-1.36s.38-.2.59-.26A4.39,4.39,0,0,1,33.2,74.18Z"/><path class="cls-1" d="M112.26,73.35a.65.65,0,0,0,.33.64c.8.3.7,1,.72,1.6a69.81,69.81,0,0,1-.44,8.54,5,5,0,0,1-.94,3c-.24.28-.38.71-.89.52a24.53,24.53,0,0,0,.86-6.38c.13-1.62.14-3.24.21-4.86,0-.48-.05-1-.52-1.15-1-.37-.46-1.1-.38-1.63S111.9,73.45,112.26,73.35Z"/><path class="cls-1" d="M116.93,74h0c.38-.24.77,0,1.16,0a1.23,1.23,0,0,0,.46,1.25c.28.19.18.51.16.78-.15,2.38-.62,4.71-.92,7.06a33.62,33.62,0,0,0-.5,3.88,1.29,1.29,0,0,1-1.2,1.38H116c.39-3.72,1-7.41,1.55-11.11.07-.49.09-.88-.4-1.14a.62.62,0,0,1-.3-.71C116.86,74.85,116.89,74.4,116.93,74Z"/><path class="cls-1" d="M70.59,84.89c.1-.7.4-1.09,1.21-1a15.41,15.41,0,0,0,2.08-.07c.47,0,.93.18,1,.69a2.57,2.57,0,0,1-.09,2,.3.3,0,0,1-.22.09c-1.16,0-.58.87-.62,1.35-.06.65.53.42.87.43h5.95c-.38,0-.76,0-.61.57s-.13.54-.54.54H73.31c-.46,0-.66-.1-.64-.6s-.26-1.22.75-1.5c.69-.2.31-1.08.24-1.66s-.61-.83-1.17-.85S71.23,84.87,70.59,84.89Z"/><path class="cls-1" d="M135.8,76.85c.15.65.87,1.08.67,1.9-.31,1.26-.52,2.53-.79,3.8s-.61,2.58-.89,3.87c-.25,1.13-.45,2.28-.71,3.41-.16.67-.72.93-1.32,1.13q1.13-5.16,2.25-10.33a2.32,2.32,0,0,0-.29-2.29c-.31-.36-.15-1.08.09-1.52S135.46,76.8,135.8,76.85Z"/><path class="cls-1" d="M119.31,86c.1-2.28.57-4.51.75-6.79.33,0,.26.26.27.4.13,2.74.44,5.47.34,8.21a25.77,25.77,0,0,1,.15,2.83c0,.29.2.33.44.37.46.08.95-.07,1.38.21-.49,1.17-.49,1.17-1.85,1s-1.27-.2-1.27-1.48a2,2,0,0,0-.1-2Z"/><path class="cls-1" d="M71.5,72.25c.59,1.92-.14,3.7-.72,5.45-.44,1.33-.76,2.7-1.24,4s-.87,2.69-1.4,4a2.59,2.59,0,0,1-1.29,1.24c1.24-3.43,2.21-7,3.31-10.43a4.19,4.19,0,0,0,.08-2.87c-.13-.33,0-.5.26-.67A12.09,12.09,0,0,0,71.5,72.25Z"/><path class="cls-1" d="M93.46,69.42a2.67,2.67,0,0,1,3.17-.94,3.17,3.17,0,0,0,1.44.94,4.88,4.88,0,0,1,1.06,2.72,1.52,1.52,0,0,0,.62,1.2l-.09,1.39c-1.27-.13-1.72-.83-1.86-2a3.56,3.56,0,0,0-4.34-3.31Z"/><path class="cls-1" d="M40,88.82c.48,1.51.48,1.46,2.16,1.26s3.48-.32,5.23-.43A13.17,13.17,0,0,0,50.6,89,3.2,3.2,0,0,1,48,90.43c-2.83.32-5.66.58-8.49.88-.36,0-.53,0-.62-.44C38.65,89.64,38.62,89.65,40,88.82Z"/><path class="cls-1" d="M126.36,83.7c.34-1.51,1.15-2.84,1.55-4.34a2.54,2.54,0,0,1,.1,1.39c-.42,2.68-.87,5.36-1.29,8a1.33,1.33,0,0,1-1.28,1.11Z"/><path class="cls-1" d="M96.47,79.81a3.07,3.07,0,0,1,1,2.94c-.09.94,0,1.9-.05,2.85a2.07,2.07,0,0,1-1.51,2,18.65,18.65,0,0,0,.31-5.46c0-.33-.26-.47-.49-.62a.84.84,0,0,1-.44-.57C95.12,79.87,95.23,79.75,96.47,79.81Z"/><path class="cls-1" d="M132.4,91.64c0,1.11,0,1.22,1.23,1.36s2.44.64,3.71.73c.14,0,.27.17.41.27-.19,1.14-.19,1.14-1.31.9-1.53-.33-3.06-.7-4.6-1-.69-.12-1-.33-.76-1.06a1.88,1.88,0,0,0,0-.5c.3,0,.51-.09.52-.43Z"/><path class="cls-1" d="M125.12,90.6c-.14.88.28,1.18,1.12,1.28a26.7,26.7,0,0,1,4.08.48c-.05,1.09-.05,1.11-1.12,1-1.58-.16-3.16-.35-4.75-.49-.44,0-.53-.2-.55-.62C123.83,91.32,124.08,90.68,125.12,90.6Z"/><path class="cls-1" d="M127.38,75.35a33.54,33.54,0,0,1-1.14,3.77,26.84,26.84,0,0,1-1.48,4l-.15-2c.58-1.71,1.19-3.41,1.72-5.14C126.52,75.31,126.81,75.18,127.38,75.35Z"/><path class="cls-1" d="M115.6,89c0,1.48,0,1.47,1.6,1.5a8.34,8.34,0,0,1,1.32.07c.12.79-.08,1.17-1,1.05a21.78,21.78,0,0,0-2.74-.1c-.38,0-.57-.09-.5-.52s.08-.83.16-1.24C114.55,89.12,115.3,89.4,115.6,89Z"/><path class="cls-1" d="M66.86,86.94v.67c-.05.66.2.82.88.8a6.87,6.87,0,0,1,2.58.2c.18.67,0,1-.76.9-1-.06-2.06,0-3.08,0-.27,0-.77.26-.8-.27s-.4-1.18.23-1.52C66.29,87.48,66.5,87.13,66.86,86.94Z"/><path class="cls-1" d="M138.83,87.73a4.74,4.74,0,0,1,0-.67c.06-.44.19-.7.76-.5a8.25,8.25,0,0,0,4.29.26A3.42,3.42,0,0,1,141.37,88,7.91,7.91,0,0,1,138.83,87.73Z"/><path class="cls-2" d="M65.4,100.09v2.68c0,.4-.11.52-.52.52s-.46-.17-.46-.5c0-1.37,0-2.73-.07-4.1-.06-.71.25-1.46-.17-2.15.21-.76.84-.47,1.34-.55s.67.2.86.59c.69,1.4,1.41,2.79,2.12,4.18l.72,1.62c.89-2,1.9-3.73,2.62-5.59h0c.25-.07.28-.3.33-.51.33-.34.78-.11,1.15-.22s.64-.08.72.36v.33a41.14,41.14,0,0,0,.07,5.73v.7c-.8.21-1.12-.07-1-.91a5.54,5.54,0,0,0-.11-1.09v-1.1a8,8,0,0,0,0-2,2.22,2.22,0,0,0-.11-1.17A29.38,29.38,0,0,0,71.4,100a23.21,23.21,0,0,0-1.12,2.19c-.3.76-.69,1.22-1.57,1l-.49-.7a47.31,47.31,0,0,0-2.83-5.61v3.17Z"/><path class="cls-2" d="M53.09,97.06c0-.33.2-.47.55-.48,1.15,0,2.29-.13,3.44-.16s1.89.36,2.16,1.2a2.06,2.06,0,0,1-1,2.4c1.25.84,1,2.33,1.55,3.45-.77.31-1.17.1-1.29-.67-.06-.41-.18-.82-.27-1.23-.15-.69-.52-1.11-1.29-1a11.28,11.28,0,0,1-1.93,0c-.65,0-.79.27-.59.82v1.9c0,.38,0,.56-.45.59s-.47-.21-.51-.55a23.87,23.87,0,0,0-.21-2.89v-.36a8,8,0,0,0-.07-1.87A2.71,2.71,0,0,0,53.09,97.06Zm4.38.34a13.94,13.94,0,0,0-2.82,0c-.57,0-.6.24-.43.67v1.34c0,.45.14.46.47.41a11.81,11.81,0,0,0,2.07-.2c.64,0,1.32,0,1.48-.87.12-.67.11-1.27-.76-1.36Z"/><path class="cls-1" d="M35.92,99.07c-.94,1.66-.36,2.84,1.54,3.05.78.09,1.56.09,2.34.12.62,0,1.28,0,1.47.8.15.61-.37,1.23-1.19,1.5a2.14,2.14,0,0,1-.41.05,1,1,0,0,0-.88-1.52,19.82,19.82,0,0,1-3-.29,1.78,1.78,0,0,1-1.44-2.6A1.7,1.7,0,0,1,35.92,99.07Z"/><path class="cls-1" d="M53.26,100.12v.36a16.19,16.19,0,0,0-.22,3.65c0,.3.06.64-.43.63s-.56-.26-.56-.65c0-.84-.08-1.68,0-2.51a20.63,20.63,0,0,0-.34-3.35c0-.59,0-1,.78-.88.27,0,.38-.2.55-.32a2.71,2.71,0,0,1,.1,1.19C52.53,98.9,52.88,99.51,53.26,100.12Z"/><path class="cls-1" d="M74.07,103.18v-.77l.07-.31a19.39,19.39,0,0,0,.13-3.47v-.75c0-1.24,0-1.24,1.29-1.17v.66a2.57,2.57,0,0,0-.06,2.37v.5a16.88,16.88,0,0,0-.29,2.8c0,.35.16.87-.37,1S74.28,103.53,74.07,103.18Z"/><path class="cls-1" d="M45.13,102.36c-.23-1.12-.23-1.13.88-1.23s2-.15,3-.26c.5-.06.68.1.69.62,0,.86.12,1.71.19,2.57-.12.19-.24.37-.34.56a.51.51,0,0,1-.62.28c-.29-.07-.51-.21-.5-.56v-2c0-.29,0-.61-.39-.59C47,101.78,45.92,101.42,45.13,102.36Z"/><path class="cls-1" d="M64.17,96.55c.42.69.11,1.43.17,2.15-.27.31-.16.7-.17,1v3.85c0,.36-.1.5-.47.5s-.52-.11-.52-.48V97.1C63.17,96.41,63.92,96.88,64.17,96.55Z"/><path class="cls-2" d="M62.82,99.83v3c0,.34,0,.58-.46.59s-.55-.16-.56-.58c0-2-.09-4.08-.14-6.12,0-.33,0-.59.46-.6s.57.17.56.59v3.1Z"/><path class="cls-1" d="M60.47,100.45V97.51c0-.26-.09-.61.35-.62s.32.3.37.54a34.68,34.68,0,0,1,.3,6.17c0,.34-.12.5-.49.51s-.53-.18-.52-.56v-3.11Z"/><path class="cls-1" d="M43.92,101l.08,1.07c-.64.27-.32.81-.28,1.21a11.58,11.58,0,0,1,.27,1.56c0,.29,0,.58-.41.58s-.62-.16-.59-.54c.11-1.51-.51-3-.35-4.49a7.09,7.09,0,0,0-.16-1.49c0-.32,0-.65.43-.69s.4.34.41.63v1.42C43.32,100.7,43.37,101.07,43.92,101Z"/><path class="cls-1" d="M73,100.08v1.1c-.62.38-.48.95-.31,1.47.07.21.24.4.14.61s-.15.8-.65.75-.44-.46-.45-.79v-2.5c0-.29.09-.65-.35-.73a29.38,29.38,0,0,1,1.49-3.13A2.21,2.21,0,0,1,73,98C72.44,98.38,72.45,99.37,73,100.08Z"/><path class="cls-1" d="M68.22,102.59l.49.7c0,.55-.35.7-.78.79a.74.74,0,0,1-.91-.51c-.52-1.17-1.08-2.32-1.62-3.48V98.54c.29,0,.37.25.48.49.54,1.16,1.13,2.3,1.68,3.46C67.75,102.92,68,102.68,68.22,102.59Z"/><path class="cls-1" d="M71.83,96.79c-.72,1.86-1.73,3.58-2.62,5.59l-.72-1.62c.37,0,.67,0,.78-.5.26-1.13,1.15-2,1.47-3.09C70.89,96.63,71.36,96.62,71.83,96.79Z"/><path class="cls-1" d="M54.43,101.42c-.19-.56-.06-.85.59-.82s1.28,0,1.93,0c0,.08-.07.21,0,.24a4.94,4.94,0,0,1,1.16,2.46c.08.23.49.66-.06.83a.65.65,0,0,1-.83-.61c-.06-.48-.31-.91-.35-1.37a.76.76,0,0,0-.88-.73C55.46,101.45,54.93,101.41,54.43,101.42Z"/><path class="cls-1" d="M36.61,105.18a4.5,4.5,0,0,0,2.54.35,9.14,9.14,0,0,0,1-.13c-.12.41-.53.4-.82.48-1.25.37-2.51.79-3.8.16a2.78,2.78,0,0,1-1.06-1.24.34.34,0,0,1,.14-.44.39.39,0,0,1,.53,0,7.67,7.67,0,0,0,.8.72C36.12,105.27,36.35,105.6,36.61,105.18Z"/><path class="cls-1" d="M36.89,99.51A2.92,2.92,0,0,1,40,99.05c-.4.34.13.54.13.81s.24.37,0,.51-.4.21-.55.05A3.14,3.14,0,0,0,36.89,99.51Z"/><path class="cls-1" d="M76.54,101.06c-.21-.81.09-1.08.92-1s1.67,0,2.51,0c-.27.59-.81.65-1.37.67A3.79,3.79,0,0,0,76.54,101.06Z"/><path class="cls-4" d="M74.12,102.12l-.07.31A41.15,41.15,0,0,1,74,96.7a35.93,35.93,0,0,1,.11,4.16C74.11,101.29,74.11,101.71,74.12,102.12Z"/><path class="cls-4" d="M74,96.37c-.08-.44-.44-.33-.72-.36C73.93,95.76,74,95.81,74,96.37Z"/><path class="cls-1" d="M72.1,96.23c-.05.21-.08.43-.33.51A.43.43,0,0,1,72.1,96.23Z"/><path class="cls-1" d="M51.24,16.18h-.09v.06Z"/><path class="cls-1" d="M54.47,48.89c2.23.33,4.42.72,6.47-.52a.73.73,0,0,1-.33,1l0,0a3.48,3.48,0,0,1-.84.37c-1.27.39-1.34.53-.78,1.78a5.82,5.82,0,0,0,2.48,2.66,12.72,12.72,0,0,0,12.66.63A9.14,9.14,0,0,0,78,50.74c.28-.51.14-.76-.41-.88a6.2,6.2,0,0,1-1.12-.35c-.18-.08-.62,0-.45-.41a.53.53,0,0,1,.67-.35l.08,0a9.76,9.76,0,0,0,3.13.52,9.49,9.49,0,0,0,1.83-.18c.18,0,.5-.4.61,0s-.21.5-.5.56c-.69.13-1.37.26-2.07.36a.66.66,0,0,0-.63.42c-1.6,3.68-4.61,5.51-8.37,6.26A12.29,12.29,0,0,1,62,55.39a9.18,9.18,0,0,1-4.06-4.65,1.14,1.14,0,0,0-1.24-.84,5.12,5.12,0,0,1-1.16-.13A1.17,1.17,0,0,1,54.47,48.89Z"/><path class="cls-5" d="M128.1,26.9a5,5,0,0,1,1.09,1.23C128.07,28,128.07,28,128.1,26.9Z"/><path class="cls-5" d="M129.24,28.18c.09,0,.13,0,.12.12Z"/><path class="cls-1" d="M24.52,104.94c-.13.95-.77,1.68-.74,2.62-1.81-1.21-.25-2.54,0-3.93-.72.35-1.43.42-1.56,1.4l-1.14-2a5,5,0,0,0,3.68-2c.54,1,1.07,1.87,1.55,2.8.3.58.56,1.21-.06,1.76C25.78,106,25.35,105.79,24.52,104.94Zm1.25-1.19c-.11-.33-.14-.75-.55-.92a2.5,2.5,0,0,0-1.2.76c.21.43.42.9,1,.92s.69-.26.75-.75Z"/><path class="cls-1" d="M50.28,129.07a8.21,8.21,0,0,0,.91,2.52c-1.11-.46-2.07-.72-2-2a.6.6,0,0,0-.06-.24c-.14-.35-.06-1.11-.43-1a1.07,1.07,0,0,0-.53,1.42l0,.05a.54.54,0,0,1-.06.22l-1.93-1c1-.55,2.09-2.74,1.84-3.66,1.07.54,2.09,1,3.07,1.56.5.28,1.06.66.83,1.38s-.9.59-1.48.53c-.08-.07-.17-.13-.25,0S50.25,129,50.28,129.07Zm-.51-.76a.78.78,0,0,0,.89-.65c0-.37-.62-1.11-1-1a1.31,1.31,0,0,0-.74,1.1c0,.5.59.42.85.56Z"/><path class="cls-1" d="M59.54,130.58c2.33-.21,2.53,1.83,3.53,3.25.21-.83.72-1.47.17-2.38l1.55.42a1.16,1.16,0,0,0-.89.94c-.18.76-.4,1.51-.63,2.26-.06.19,0,.5-.32.52a.6.6,0,0,1-.58-.39c-.51-1-1-1.92-1.55-2.88l-.41-.75c-.71,1.29-.9,2.53-.45,3.13a3.65,3.65,0,0,1-1.54-.36C59.36,133.87,60.06,131.32,59.54,130.58Z"/><path class="cls-1" d="M24.23,108.51c1,.15,3.22-1.32,3.43-2.28L30,109.5c.1.14.11.26-.06.34s-.4.46-.72.3c-.16-.08-.17-.27-.09-.45.3-.7-.3-1.07-.56-1.56-.11-.2-.25-.17-.41,0s-.78.32-.89.69.22.48.48.64.64,0,.5.35a1.18,1.18,0,0,1-.71.53c-.3.1-.37-.17-.29-.42a.62.62,0,0,0-.35-.83c-.47-.05-.83.39-1.18.67s.06.49.2.68c.34.47.55,1.16,1.38,1a.27.27,0,0,1,.32.21h0c0,.33-.33.33-.5.49s-.33.21-.49,0Z"/><path class="cls-1" d="M28.57,113a1.88,1.88,0,0,0,.83,1.94.57.57,0,0,0,.7,0,.53.53,0,0,0,.19-.67l-.61-1.65a1,1,0,0,1,.21-1.24,1.1,1.1,0,0,1,1.33-.05,2.6,2.6,0,0,1,1.23,1.21,5.82,5.82,0,0,0,.31.59c.1.15.51.18.22.47s-.4.51-.67.41-.2-.44-.11-.72a1.07,1.07,0,0,0-.54-1.21A.53.53,0,0,0,31,112a.46.46,0,0,0-.13.6c.18.5.41,1,.6,1.47a1.17,1.17,0,0,1-.16,1.4,1.29,1.29,0,0,1-1.49.1,3.15,3.15,0,0,1-1.51-1.4,4.78,4.78,0,0,0-.4-.63c-.12-.16-.47-.22-.27-.49s.43-.48.65-.48C28.76,112.55,28.57,112.94,28.57,113Z"/><path class="cls-1" d="M42.95,122.18l1.85,1.19A5.06,5.06,0,0,0,42.61,126c0,.61.45.85.9,1.09s.9.34,1.23-.06c.51-.62.93-1.32,1.4-2,.18-.25-.06-.46-.11-.79a3.78,3.78,0,0,1,1.28.78c-1,.11-1.14.94-1.56,1.51s-.8,1.34-1.75,1.07a3.47,3.47,0,0,1-2.52-2,1,1,0,0,1,.21-.94c.32-.46.61-.93.95-1.38A1.19,1.19,0,0,0,42.95,122.18Z"/><path class="cls-1" d="M57.22,134l-2.16-.83c.06-.34.68-.19.5-.72a1,1,0,0,0-.7-.62,6.5,6.5,0,0,1-.78-.31.68.68,0,0,0-.89.2c-.36.36.29.39.19.72a5.82,5.82,0,0,1-1.59-.57,8.07,8.07,0,0,0,3.39-2.68c.22-.32.62-.06.94-.08s.3.27.33.48c.13,1,.24,1.94.38,2.91.07.48,0,1,.6,1.32Zm-3.29-2.88,1.52.57-.25-1.6Z"/><path class="cls-1" d="M38,121.77c-.23.24-.37,0-.46-.12a.72.72,0,0,0-1-.11c-.45.23.22.47-.06.73a4,4,0,0,1-1.23-1,8.72,8.72,0,0,0,3.93-1.51c.36-.28.61.08.9.14s.26.37.22.61q-.26,1.4-.54,2.79a3.11,3.11,0,0,0-.07,1.63l-1.83-1.46c.1-.37.68,0,.69-.54s-.23-.58-.46-.81-.35-.15-.14-.36.42.44.79.26l.23-1.45-1.38.56C37.59,121.45,38,121.46,38,121.77Z"/><path class="cls-1" d="M68.29,136.6,66,136.18a1.27,1.27,0,0,0,.7-1.17,15.75,15.75,0,0,1,.27-1.65c0-.28.29-.68-.08-.82a.85.85,0,0,0-1.07.17c-.12.16-.26.36-.46.17s0-.42,0-.64.09-.34.38-.29c1.4.25,2.8.48,4.21.71.18,0,.38.05.31.27s.08.62-.26.73-.28-.18-.36-.35a.89.89,0,0,0-1-.47c-.41.05-.25.49-.31.76a16.91,16.91,0,0,0-.3,1.73c-.05.39-.3.86.47,1.06Z"/><path class="cls-1" d="M33.47,119.6l-1.66-1.74c.58.28.92,0,1.25-.34s.86-.8,1.26-1.22c.19-.2.65-.33.43-.69a.84.84,0,0,0-1-.5c-.2.06-.43.15-.49-.1s.25-.39.41-.56.28-.17.46,0c1,1.09,2.1,2.16,3.24,3.33-.12.08-.29.19-.44.31s-.25.25-.43.12-.11-.24-.05-.37a.77.77,0,0,0-.49-1c-.33-.16-.49.27-.7.45-.43.36-.81.77-1.22,1.15S33.36,119,33.47,119.6Z"/><path class="cls-1" d="M105.18,128.18c.3.57.63,1.12.89,1.7.17.37.49.36.91.4a5.9,5.9,0,0,1-1.38.88c.27-1-.95-3.23-1.8-3.57,1.49-1.92,2.64-.14,4,.58a9,9,0,0,0-.14-2,1,1,0,0,1,.67-1.22,11.09,11.09,0,0,0,1.06-.53c-.21,1,1.09,3.26,1.93,3.46a4.7,4.7,0,0,1-1.89,1.07c.14-.62-.13-1.24-1.27-2.8.07,1,.13,1.85.17,2.69,0,.31.22.69-.18.9s-.61-.17-.87-.34c-.68-.44-1.33-.92-2-1.38-.07,0-.14-.17-.22,0S105.14,128.12,105.18,128.18Z"/><path class="cls-1" d="M115.87,119.77l2.68-2.36a1.56,1.56,0,0,1,.83-.38.82.82,0,0,1,1,1.18,6.46,6.46,0,0,1-.37.7,12.38,12.38,0,0,0,2.69.12,1.7,1.7,0,0,1-2.08,1.13,1.06,1.06,0,0,0-.33-.06c-.44.07-.93-.46-1.3.05-.14.2,1,1,1.59,1l-1.76,1.58C118.79,121.77,116.89,119.79,115.87,119.77Zm3.52-1c-.07-.43-.28-.74-.75-.72s-1,.34-1,.73a1.24,1.24,0,0,0,.93.95c.43,0,.72-.48.83-.95Z"/><path class="cls-1" d="M123.61,115.42c.47.47.81,1.11,1.77.91l-1.56,1.77c-.17-1-2.25-2.73-3.14-2.62a14.86,14.86,0,0,1,1.59-1.88c-.15.88.37,1.14.83,1.49.42-1.28.36-1.94-.28-2.13a9,9,0,0,1,1.48-1.44,6.37,6.37,0,0,0-.51,2.11c0,.43,0,.63.5.58a22.81,22.81,0,0,0,3.08-.1l-1.5,1.7C125.2,115,124.34,115.57,123.61,115.42Z"/><path class="cls-1" d="M127.9,108.72a1.06,1.06,0,0,1,.66.28c.18.12.34.15.32.35s-.2.25-.37.27c-.39,0-.73.33-.64.62.14.45.69.63,1.09.86s.39-.23.51-.41c.35-.5.94-1,.45-1.69a.24.24,0,0,1,.11-.32l0,0c.29-.07.42.22.64.32s.21.28.07.47l-2.48,3.43c-.26-1-2.49-2.47-3.39-2.29a11.41,11.41,0,0,1,1.21-1.81c.31-.47.64-.91,1-1.38.1-.15.15-.42.41-.24s.58.22.55.55-.26.24-.48.24c-.72,0-1,.64-1.22,1.12s.51.51.78.79.36.12.54-.09S127.84,109.11,127.9,108.72Z"/><path class="cls-1" d="M117.51,123.76l-1.88,1.36c-.32-.21.26-.58-.26-.76a.84.84,0,0,0-.91.13,5.89,5.89,0,0,1-.75.54.66.66,0,0,0-.3.86c.13.51.49-.06.71.2a3.54,3.54,0,0,1-1.3,1,8.14,8.14,0,0,0-.54-4.11c-.18-.4.2-.52.31-.76s.35-.28.63-.15c.85.41,1.72.8,2.58,1.2A3.92,3.92,0,0,0,117.51,123.76Zm-3,.28a3,3,0,0,0-1.49-.57l.24,1.45Z"/><path class="cls-1" d="M133.55,104.87l-1.1,1.92c-.09-.66-.6-.81-1-1s-1-.58-1.55-.84c-.2-.1-.4-.43-.64-.19a1.17,1.17,0,0,0-.33.84c0,.26.48.52.13.72s-.59-.2-.88-.35c.74-1.32,1.48-2.61,2.2-3.93.12-.23.23-.31.43-.15s.54.14.55.45-.25.23-.45.23c-.49,0-.7.38-.81.73s.34.36.54.49c.57.35,1.17.66,1.76,1,.34.18.68.5,1.07-.16Z"/><path class="cls-1" d="M113.14,103.42c0-.2.17-.38.08-.59-.15-1.1.63-1.8,1.13-2.62.07-.11.17-.45.47-.24a4.3,4.3,0,0,0-.49,3,4,4,0,0,0,4.78,2.91l.88-.21a3,3,0,0,1-3.3,1,4.57,4.57,0,0,1-2.75-1.66,1.57,1.57,0,0,1-.34-.82C113.59,103.83,113.52,103.51,113.14,103.42Z"/><path class="cls-1" d="M108.37,98.72a2.6,2.6,0,0,1,4,.6.67.67,0,0,0,.53.31c-.7,1.07-.92,1-1.68,0a2.49,2.49,0,0,0-1.84-.91C109,98.73,108.7,99,108.37,98.72Z"/><path class="cls-3" d="M120,104.44a3.1,3.1,0,0,1-4-.37,3,3,0,0,1,.17-4l.74-.06a2.82,2.82,0,0,1,3.16,3.63C120,103.88,119.72,104.18,120,104.44Z"/><path class="cls-1" d="M120,104.44c-.28-.28,0-.56.06-.8A2.82,2.82,0,0,0,116.9,100l-.74.06a2.92,2.92,0,1,1,3.84,4.37Z"/><path class="cls-1" d="M48.37,100a3.36,3.36,0,0,1-.29-2.11c.15-.23.38-.19.6-.18a.42.42,0,0,1,.35.46v1.75Z"/><path class="cls-1" d="M106.57,99.26c0-.14.11-.18.23-.19C106.74,99.18,106.76,99.33,106.57,99.26Z"/><path class="cls-1" d="M76.61,97.71c-.17-.65,0-1,.75-.89s1.28,0,1.92.07c1,.06,1.32.37,1.34,1.13s-.31,1.09-1.31,1.19c.11-1.11-.11-1.56-1.45-1.5Z"/><path class="cls-3" d="M76.61,97.71h1.25c1.34-.06,1.56.39,1.45,1.5H77.89C76.42,99.23,76.42,99.18,76.61,97.71Z"/><path class="cls-3" d="M75.49,99.76a2.57,2.57,0,0,1,.06-2.37A10.65,10.65,0,0,1,75.49,99.76Z"/><path class="cls-5" d="M119.31,86l.12,2.67c-.34,0-.45-.27-.46-.58A4.49,4.49,0,0,1,119.31,86Z"/><path class="cls-2" d="M20.12,91.65a3.21,3.21,0,0,1-1.55.74.47.47,0,0,1-.66-.43c-.39-2.56-1-5.1-1.2-7.69a3.43,3.43,0,0,1,2.65,1.4A5.58,5.58,0,0,1,20.12,91.65Z"/><path class="cls-1" d="M20.12,91.65a5.58,5.58,0,0,0-.77-6,3.43,3.43,0,0,0-2.65-1.4c-.31-.93-.28-1,.63-1a4.29,4.29,0,0,1,4.48,4.1s0,.08,0,.12c0,1.15.2,2.33-.61,3.37A1.88,1.88,0,0,1,20.12,91.65Z"/><path class="cls-2" d="M16.83,81.87c-.64.39-.87.3-1-.51-.37-2.17-.7-4.35-1-6.52a2,2,0,0,1,1.24.64,5.41,5.41,0,0,1,1.52,4.28c0,.7-.47,1.28-.47,2h0C16.91,81.62,16.89,81.78,16.83,81.87Z"/><path class="cls-1" d="M17.06,81.73c0-.69.44-1.27.47-2A5.41,5.41,0,0,0,16,75.48a2,2,0,0,0-1.24-.64c0-.34-.24-.83.21-1a2.15,2.15,0,0,1,1.71.09,5.33,5.33,0,0,1,1.91,5.69A3.86,3.86,0,0,1,17.06,81.73Z"/><path class="cls-1" d="M16.83,81.87c.06-.09.08-.26.26-.16C17.06,81.86,17,81.87,16.83,81.87Z"/><path class="cls-1" d="M59,81.72c0-.4-.36-.93.25-1.15a1.32,1.32,0,0,1,1.5.42c1.26,1.33,1.2,2.93.91,4.54a1.2,1.2,0,0,1-1.24.91,12,12,0,0,0,.16-1.25A3.54,3.54,0,0,0,59,81.72Z"/><path class="cls-1" d="M58.66,74.18c-.24-.47-.29-1,.25-1.21a1.31,1.31,0,0,1,1.53.52,3.86,3.86,0,0,1,.36,4.14,1.13,1.13,0,0,1-1.11.71C60.25,76.43,59.92,75.09,58.66,74.18Z"/><path class="cls-2" d="M59,81.72a3.54,3.54,0,0,1,1.57,3.47,12,12,0,0,1-.16,1.25c-1.11.35-1.31.23-1.33-.86Q59.08,83.65,59,81.72Z"/><path class="cls-2" d="M58.66,74.18c1.26.95,1.59,2.29,1,4.16-.56.44-.85.15-.88-.41C58.72,76.65,58.7,75.39,58.66,74.18Z"/><path class="cls-1" d="M45.09,82.57c0-.43-.3-1,.13-1.23a1.33,1.33,0,0,1,1.47.26A3.22,3.22,0,0,1,48,84.06a12,12,0,0,1,0,1.75,1.47,1.47,0,0,1-1.31,1.46,5,5,0,0,0-.27-3.35C46.16,83.33,45.87,82.69,45.09,82.57Z"/><path class="cls-1" d="M44.37,74.9c0-.34-.24-.86.14-1A1.92,1.92,0,0,1,46.2,74a2.92,2.92,0,0,1,1,3.05c-.31.86-.61,1.8-1.68,2.07A9.87,9.87,0,0,0,45.91,78,2.54,2.54,0,0,0,44.37,74.9Z"/><path class="cls-2" d="M45.09,82.57c.78.12,1.07.76,1.34,1.35a5,5,0,0,1,.27,3.35c-1.07.6-1.33.47-1.39-.67C45.25,85.25,45.17,83.91,45.09,82.57Z"/><path class="cls-2" d="M44.37,74.9A2.54,2.54,0,0,1,46,78a9.87,9.87,0,0,1-.39,1.19c-.6.44-.86.17-.91-.46C44.56,77.45,44.47,76.18,44.37,74.9Z"/><path class="cls-5" d="M98.07,69.43a3.17,3.17,0,0,1-1.44-.94A2,2,0,0,1,98.07,69.43Z"/><path class="cls-1" d="M140.5,80.18a1.13,1.13,0,0,1,.23-1.24c.39-.3.84.07,1.2.33a2.35,2.35,0,0,1,.75,1.18A3.19,3.19,0,0,1,141,84.18l.23-.61A2.86,2.86,0,0,0,140.5,80.18Z"/><path class="cls-2" d="M140.5,80.18a2.86,2.86,0,0,1,.74,3.39l-.24.61a.89.89,0,0,1-1.09.08c-.35-.22-.14-.63-.07-.93A15.26,15.26,0,0,1,140.5,80.18Z"/><path class="cls-1" d="M71.91,79.69a10.93,10.93,0,0,1,.78-2.51c.61.87.55,1.86.9,2.72a1.85,1.85,0,0,1,0,.33c.26,1.38.26,1.38-1.15,1.36A10.29,10.29,0,0,0,71.91,79.69Z"/><path class="cls-5" d="M71.91,79.69a10.29,10.29,0,0,1,.56,1.89c-1.1.23-1.24.1-.94-.9A2.29,2.29,0,0,1,71.91,79.69Z"/><path class="cls-3" d="M68.22,102.59c-.24.1-.47.33-.67-.09-.55-1.16-1.14-2.3-1.68-3.46-.11-.24-.19-.45-.48-.49V97A47.31,47.31,0,0,1,68.22,102.59Z"/><path class="cls-3" d="M73,100.08c-.58-.71-.59-1.7,0-2A8,8,0,0,1,73,100.08Z"/><path class="cls-3" d="M56.78,99.6a11.81,11.81,0,0,1-2.07.2c-.32.05-.47-.09-.47-.41V98.05h1.82c.6,0,.67.25.9.64S57,99.32,56.78,99.6Z"/><path class="cls-1" d="M56.78,99.6c.21-.28.43-.5.17-.93S56.57,98,56,98s-1.22,0-1.82,0c-.17-.42-.14-.68.43-.67a13.94,13.94,0,0,1,2.82,0c.14.52.08,1.15.78,1.34C58.1,99.59,57.42,99.56,56.78,99.6Z"/><path class="cls-3" d="M58.26,98.73c-.7-.19-.64-.82-.78-1.34C58.35,97.48,58.36,98.08,58.26,98.73Z"/><path class="cls-3" d="M53.26,100.12c-.39-.61-.74-1.22-.07-1.87A8,8,0,0,1,53.26,100.12Z"/><path class="cls-2" d="M25.77,103.76c-.06.49-.31.78-.77.76s-.78-.49-1-.92a2.5,2.5,0,0,1,1.2-.76C25.63,103,25.66,103.43,25.77,103.76Z"/><path class="cls-2" d="M49.77,128.32c-.26-.16-.9-.06-.82-.54a1.31,1.31,0,0,1,.74-1.1c.35-.11,1,.63,1,1a.78.78,0,0,1-.9.64Z"/><path class="cls-2" d="M50.28,129.07c0-.06-.1-.16-.08-.19s.17,0,.25,0Z"/><path class="cls-2" d="M53.93,131.12l1.28-1,.25,1.6Z"/><path class="cls-2" d="M38,121.77c.06-.31-.37-.31-.38-.64l1.38-.56L38.77,122c-.36.19-.45-.39-.79-.26Z"/><path class="cls-2" d="M105.18,128.18c0-.05-.12-.13-.11-.15s.15,0,.22,0Z"/><path class="cls-2" d="M119.4,118.78c-.11.47-.38,1-.79,1a1.24,1.24,0,0,1-.93-.95c0-.39.49-.71,1-.73S119.33,118.35,119.4,118.78Z"/><path class="cls-2" d="M114.54,124l-1.25.88-.24-1.45A3,3,0,0,1,114.54,124Z"/><path class="cls-3" d="M125,99.42a16.81,16.81,0,0,1-3.92-.57c-.34-.07-.2.24-.26.39,1.52,1.77,1.76,3.2.84,4.83a4.41,4.41,0,0,1-1.68,1.58,3,3,0,0,1-3.3,1,4.57,4.57,0,0,1-2.75-1.66,1.57,1.57,0,0,1-.34-.82c0-.3-.08-.62-.45-.71a3.52,3.52,0,0,1-1.74,1.32c.17.5-.3.47-.51.52a4.58,4.58,0,0,1-4.57-.89c-.17-.16-.31-.33-.57-.23s-.18.32-.21.5a15,15,0,0,1-.65,2.28c-.55,1.82-2.45,2.56-3.25,4.17a9.06,9.06,0,0,0-.81,1.77,1.9,1.9,0,0,1-.09.91c-.54,1.08-1,2.22-1.49,3.31A11.71,11.71,0,0,1,95,121.78c-1,.66-1.51,1.17-1.32,2.4.11.75.36.94,1,.71,1.18-.41,2.36-.83,3.53-1.29a52.21,52.21,0,0,0,12.62-7.1,54.39,54.39,0,0,0,9.28-8.74l.22-.28,2.26-2.91h0c1-1.25,1.74-2.62,2.63-3.91C125.59,100.18,125.41,99.41,125,99.42Z"/><circle class="cls-7" cx="121.71" cy="105.73" r="0.5"/></svg>