<svg id="Layer_1" data-name="Layer 1" xmlns="http://www.w3.org/2000/svg" viewBox="0 0 158.33 160.01"><defs><style>.cls-1{fill:#fbae17;}.cls-2{fill:#fff;}.cls-3{fill:#005a99;}.cls-4{fill:#ec1c24;}</style></defs><title>Burger King</title><path class="cls-1" d="M34.73,45.42c-.72.27-2.91,1.21-2.31-2.31.68-4,7.88-25.76,35.5-32.39s44.84,2.71,50.57,10.19c2,2.55-.62,2.46-4,3.11C83.18,30.16,53.41,38.49,34.73,45.42Zm18.41,77c-3.16,1.28-5.61,1.87-3.94,4.07,3.94,5.21,24.58,14.89,51.35,5.41,24.77-8.77,32-27.22,32.32-31.25.32-3.55-1.4-2.83-3.67-2.27-22,5.52-49,13.13-76,24.09Z"/><path class="cls-2" d="M98.4,23.88s4.52-1.51,3.62-5.2-11.6-8.14-19.66-8.36c0,0,18.42-1.61,24.86,7.49C110.75,22.82,98.4,23.88,98.4,23.88Zm-40-8.29S42.49,22.9,39,37.89c-.64,2.75,2.37,2.67,2.79.56C42.07,37,44,26.06,58.4,15.59ZM103.18,128.2s17.29-6.22,22.26-21.53c.91-2.81-3.38-4-4-1.14C121.18,107,118.44,118,103.18,128.2Z"/><path class="cls-3" d="M139.53,104c-9.94,22.45-30,39.34-55.54,41.84a67.05,67.05,0,0,1-53.27-18.7c-3.76,1.6-8.47,3.45-8.47,3.45V117.36a72.81,72.81,0,0,1,33.12-110,85.18,85.18,0,0,1,46.37-3.81,79.49,79.49,0,1,0,51.44,107.52Z"/><path class="cls-4" d="M154,97.7a2.17,2.17,0,0,0-2.17-2.17h-3.65v7.74h1.51V99.89h.84l1.94,3.39h1.51L152,99.88A2.17,2.17,0,0,0,154,97.7Zm-4.31-1.08h1.79a1.08,1.08,0,1,1,0,2.16h-1.79Zm1.19-4.36a7.14,7.14,0,1,0,7,7.28s0-.1,0-.15a7.07,7.07,0,0,0-7-7.13Zm0,12.51a5.38,5.38,0,1,1,5.29-5.47s0,.06,0,.09a5.33,5.33,0,0,1-5.27,5.39h0Zm-96.27,2.8a6.28,6.28,0,1,1-8.73,9l-.15-.15-10.1-10.1V118.7s.15,4.22-2.94,5.57c-3.86,1.69-8.81,3.62-8.81,3.62V89.12l11.75-5V98.2L45.81,80.82c1.51-2.56,4.77-3.17,7.53-2.07s3.77,4.14,1.74,7.55l-8.2,13.59ZM71,104.77a8,8,0,0,1-5.32,7.43l-7,2.51V81A8,8,0,0,1,64,73.57l7-2.51ZM37.24,72.17C37,68.25,32.57,67,32.57,67a8,8,0,0,0,3.54-7.68c-.82-7.15-9.26-3.77-9.26-3.77l-9,3.31v28.4s5.8-2.41,11.75-5S37.54,76.69,37.24,72.17ZM24.88,61s4.37-2,4.22,1.58-4.22,4.52-4.22,4.52Zm0,17.55V71.48s4.9-2.33,4.75,2c-.15,4.11-4.75,5.09-4.75,5.09Zm32.3-29.82s.08,12.58,0,14.61.38,9.34-9,12.28c-10.09,3.17-10.32-6-10.32-6V51.23s3-1.13,3.69-1.36c3.66-1.22,3.62,2,3.62,2V66.7s-.23,2.86,2.11,2.56c2.94-.38,2.64-3.46,2.64-3.46V46.94s1.81-.6,3.39-1.05C57.34,44.74,57.18,48.74,57.18,48.74ZM78.27,64.63c2.18-2.56-.6-5.12-.6-5.12l-4.14-4.22S78,53,77.9,46.28c-.08-5.57-6.18-6.18-11.07-4.44-1.6.56-7.61,2.34-7.61,2.34V70.81l4.44-1.51s2.79-.75,2.79-4.44V58.67L72.78,65s2.94,2.64,5.51-.37ZM70.68,48.81a6.45,6.45,0,0,1-4.29,5.72V47.16S70.91,45.42,70.68,48.81Zm56.49,1v-5.1l5.88,6.51a3.74,3.74,0,0,0,5.28.35l.22-.21c2.32-2.15-.6-5-.6-5l-3.92-5a8.37,8.37,0,0,0,4.07-7.76c-.07-5.58-5.65-6.85-10.55-5.71-1.6.37-7.61,1.41-7.61,1.41V54.87l4.44-1s2.8-.38,2.8-4.07Zm-.38-16.5s4.47-1.58,4.22,1.81a5.76,5.76,0,0,1-4.22,5ZM78.89,49C79.27,43,84,33,97.5,34.92a3.43,3.43,0,0,1,3.24,3.24,3.24,3.24,0,0,1-3.24,3.24h0s-10.32-2.45-10.78,7.87c-.18,4.2,1,6.32,3,6.63,2.41.38,4.24-.75,4.44-1.58.08-.3-.08-3.09-.08-3.09s-3.69,1-3.77-1.43a18.41,18.41,0,0,1,.08-3.24l10.32-2.41V54.62s.23,6.25-9.64,7.38S78.51,54.92,78.89,49Zm36.55,6.64-12.75,2.92V32.7l15.49-3.14V32.7a3.32,3.32,0,0,1-2.77,3.18l-5.59,1.28v3.73l7.49-1.57v2.54a3,3,0,0,1-2.52,3.09l-5,1.15v5l8.4-1.76v3.14a3.32,3.32,0,0,1-2.75,3.13Zm-7.1,39.8A5.91,5.91,0,0,1,103,101.3a6.56,6.56,0,0,1-5.72-2.2c-2.37-2.65-11.65-13.26-11.65-13.26v14.39a7.71,7.71,0,0,1-5.5,7.18l-5.42,1.94V70.06l6.2-1.88s3.46-1.36,6.55,2.11L97.65,82.12V69.52s-.15-5.61,5.27-6.84l5.42-1.33Zm13.9-20.85c-1.09,7.82,2.48,10.7,6.55,10.8,4.91.12,5.1-3,5.1-3V79.55c-6.13,1.64-6-2.49-6-2.49V72.51L144.39,69V82c0,6.25-3.88,12.27-16.88,13.21-10.11.74-18.79-6.24-16.92-20.1,1.78-13.25,12-20,22.89-19.92a28.27,28.27,0,0,1,6,.71c4.41,1,5.56,3.9,4.89,6.38-1.32,4.93-5.52,3.34-9.83,2.79a11,11,0,0,0-12.3,9.5Z"/></svg>