<svg id="Layer_1" data-name="Layer 1" xmlns="http://www.w3.org/2000/svg" viewBox="0 0 239.68 74.67"><defs><style>.cls-1{fill:#58595b;}.cls-2{fill:#d83827;}</style></defs><title>Cafe Rio Mexican Grill</title><path class="cls-1" d="M236.75,72.32H237a.89.89,0,0,0,.26,0,.16.16,0,0,0,.08-.07.26.26,0,0,0,0-.13.22.22,0,0,0,0-.15.18.18,0,0,0-.11-.07h-.43v.42Zm-.29,1V71.57h.61a.84.84,0,0,1,.34,0,.34.34,0,0,1,.16.17.57.57,0,0,1,.07.28.53.53,0,0,1-.1.33.42.42,0,0,1-.28.16.74.74,0,0,1,.15.15,2.44,2.44,0,0,1,.16.28l.18.34h-.34l-.21-.38a2.36,2.36,0,0,0-.15-.26.24.24,0,0,0-.09-.07h-.16v.75h-.34Zm-.64-.88A1.2,1.2,0,1,1,237,73.79a1.28,1.28,0,0,1-1.19-1.35m-.22,0a1.41,1.41,0,1,0,1.4-1.59,1.51,1.51,0,0,0-1.4,1.59m-124.89-9.8,1.75,11H111.1l-.94-6.15-2.66,6.42h-.14l-2.56-6.36-1,6h-1.43l2-10.91,3.22,7.89Zm7,.81V73.62h5.11V72.19h-3.75V68.8h3.61V67.32h-3.61V64.87h3.75V63.44h-5.11Zm14.77-.12L130.8,66.7h-.14l-1.72-3.29h-1.57l2.52,4.83L127,73.58h1.6l2-3.75h.1l2,3.71h1.61l-2.8-5.26,2.63-5h-1.57Zm6.3,10.25h1.36V63.38H138.8V73.59Zm13.79-2.4A3.61,3.61,0,0,1,150,72.32c-3.15-.12-3.29-3.83-3.29-3.83a3.7,3.7,0,0,1,3.12-3.82,3.32,3.32,0,0,1,2.76,1.12V64A4.3,4.3,0,0,0,150,63.2a5.36,5.36,0,0,0,0,10.63,4.31,4.31,0,0,0,2.54-.84Zm7.33-1.51h2.72l-1.28-3.28h-.11Zm1.45-6.8,4.45,10.68h-1.59l-1-2.44h-3.87l-1,2.49h-1.57l4.48-10.71h.15Zm8.75-.15V73.59h1.47v-7l6.57,7.58h.11V63.32H176.8v7.12l-6.64-7.69h-.1Zm27.21,5.6H193.5v1.47h2.3a2.92,2.92,0,0,1-2.9,2.52c-3.32-.2-3.19-3.91-3.19-3.91a3.5,3.5,0,0,1,3.14-3.7,3.85,3.85,0,0,1,3.05,1.58l.91-1a4.29,4.29,0,0,0-3.85-2,4.9,4.9,0,0,0-4.7,5.09v.07a5,5,0,0,0,4.65,5.29c3,0,4.34-2.35,4.34-5.29v-.19m7.25-.19a1.69,1.69,0,0,0,1.61-1.74,1.47,1.47,0,0,0-1.33-1.51h-1V68h.74Zm3.81,5.45h-1.68L204,69.42h-.17v4.14h-1.4V63.32h2.24a2.81,2.81,0,0,1,2.87,2.75h0v.12a3,3,0,0,1-1.92,3Zm4.69.08h1.4V63.32H213V73.6Zm7-10.28V73.6h4.16V72.12H221.4v-8.8H220Zm8.68,0V73.6h4.12V72.12H230v-8.8h-1.34Z"/><path class="cls-2" d="M94.25,15.32a37.56,37.56,0,0,1,1.3-3.56,6.53,6.53,0,0,0,.88-3.93L96,2.19C96,.85,95.25.7,94.92.7L93.29.77a2.24,2.24,0,0,0-1.63,1v.08L89.53,6C88,9,83.41,19.14,83.36,19.24A124.92,124.92,0,0,0,77.15,37a54.85,54.85,0,0,0-1.41,10.67,34.81,34.81,0,0,0,1.4,8.65c.58,1.86,2,5.94,2.21,6.38a34.31,34.31,0,0,0,5,9.57,2.18,2.18,0,0,0,1.59.77h.32a17.12,17.12,0,0,0,6.82-2.59A3.76,3.76,0,0,0,95,67.2c0-1.65-.09-4.82-.12-5.6v-.28c-.18-4.88-1.22-17.95-1.23-18v-.16a18.45,18.45,0,0,0,1.92-6.86,2.26,2.26,0,0,0-.43-2,1.48,1.48,0,0,0-1.42-.09.92.92,0,0,1-.91.11.53.53,0,0,1-.23-.4,2.74,2.74,0,0,0-2-2.38,1.16,1.16,0,0,1-.68-.26.91.91,0,0,1,0-.78ZM88.72,46.19h.8a1.2,1.2,0,0,1,1.15,1.24v.07l-.26,11.15A4.4,4.4,0,0,1,89,61.47a.38.38,0,0,1-.45-.18,8.55,8.55,0,0,1-.71-3.48c-.06-1-.34-6.15-.13-10.39a1.29,1.29,0,0,1,.2-.87,1,1,0,0,1,.83-.37ZM41.72,34a3.1,3.1,0,0,1,.4,2.23A17.4,17.4,0,0,1,41.5,40c-.81,3.06-5.68,4.7-5.73,4.72a.91.91,0,0,0-.62.66,32,32,0,0,1-.07,3.74c-.42,3.59-6.35,5.21-9.42,5.56a63.1,63.1,0,0,1-11.19.79c-2.58,0-4.69-.08-5.45-.11v0a2.66,2.66,0,0,1-2.45-.81,22.37,22.37,0,0,1-2.09-3.63A49.72,49.72,0,0,1,.6,35.42a14.84,14.84,0,0,1,1.66-8.71,22.06,22.06,0,0,1,6.08-6.24l4.5-3.34.62-.46H12.1a11.29,11.29,0,0,1-3.75-.17,2.28,2.28,0,0,1-.46-.2.68.68,0,0,1-.22-.94h0A2,2,0,0,1,8,15c.73-.54,4.65-3.19,6.11-4.17A78.32,78.32,0,0,1,34.4,1.29,16.78,16.78,0,0,1,39.8.7a.68.68,0,0,1,.54.33,8.08,8.08,0,0,1,.87,2.46c.32,3,.36,5.36.38,6a.53.53,0,0,1,0,.09c-.3,4.53-2.41,6.33-3,6.78a.67.67,0,0,1-.3.12,54.58,54.58,0,0,0-10.62,4.27,88.93,88.93,0,0,0-11.91,6.86,24.51,24.51,0,0,0-6.25,5.9,2.4,2.4,0,0,0-.23,2.34,3.35,3.35,0,0,0,3,1,83.71,83.71,0,0,0,20.48-1.43,70.58,70.58,0,0,0,7.73-1.63,2,2,0,0,1,1,.08.68.68,0,0,1,.24.16Zm29,17.26A48.12,48.12,0,0,1,70,40.93c.06-3,.92-8.8.93-8.89a6.58,6.58,0,0,0-.07-2.2.68.68,0,0,0-.08-.2,57.35,57.35,0,0,0-6.25-8.09,1.38,1.38,0,0,0-1.93-.29h0l-.56.48a1.12,1.12,0,0,1-1,.46,1.54,1.54,0,0,1-1-.69,1.73,1.73,0,0,0-1.3-.62,1,1,0,0,0-.69.38l-.07.09C56.8,22.58,53,26,53,26a.69.69,0,0,0-.16.21,1.36,1.36,0,0,0,0,1.22v.09a1.65,1.65,0,0,1-.29,1.06C51.78,29.89,48,36.73,48,36.74a34.49,34.49,0,0,0-3,7.17,43.23,43.23,0,0,0-.93,9,5.86,5.86,0,0,0,1.43,3.48,1.91,1.91,0,0,0,2.35,1l.13-.05c1.43-.2,5.32-3.95,5.35-4,.48-.45,1.9-1.72,5.93-5.23l.26-.23.34.28h0c.91,1.84,3.84,6.94,4.75,8.53a1.86,1.86,0,0,0,1,.91h.16l1.29.34,2.48.68a3.15,3.15,0,0,0,.8.12,1.09,1.09,0,0,0,.85-.3,1.45,1.45,0,0,0,.22-1.16ZM58.21,37.67l-.15.18c-1.36,1.2-4.67,4.16-6,5.61a1.52,1.52,0,0,1-.93.77H51a1.53,1.53,0,0,1-.34-1.54,11.25,11.25,0,0,1,1.76-5,17,17,0,0,1,2.23-3.37h0a3,3,0,0,1,2.36.93,2.43,2.43,0,0,1,1.16,2.4ZM122.08,31a12.94,12.94,0,0,0,1.62-6,.66.66,0,0,0-.1-.28,7.34,7.34,0,0,0-5.38-2.8,22.6,22.6,0,0,0-5.74-.18,11.75,11.75,0,0,0-1.88.89l-.09.06A40.59,40.59,0,0,0,101.69,34,21.7,21.7,0,0,0,99,44.46a11.28,11.28,0,0,0,1.85,6.74,12.52,12.52,0,0,0,7.54,5.48,22.43,22.43,0,0,0,3.76.32,13.18,13.18,0,0,0,5-.85,3.25,3.25,0,0,0,2.15-2.55,5.37,5.37,0,0,1,.63-1.88,2.08,2.08,0,0,1,1-.8,3.1,3.1,0,0,0,1.84-2.25l.06-2.67v-.06a.69.69,0,0,0-.05-.22,1,1,0,0,0-.3-.44,2,2,0,0,0-1.75-.18,9.6,9.6,0,0,1-5.6-.22,7.75,7.75,0,0,1-2.87-2.12.85.85,0,0,1-.22-.52.73.73,0,0,1,.2-.53c.08-.08,8.26-7.6,9.8-10.7Zm-4.63-.87a26.85,26.85,0,0,1-3.5,4,21.45,21.45,0,0,1-3.38,2.45l-.16-.1v-.22a12.56,12.56,0,0,1,1.65-4.51,5.94,5.94,0,0,1,2.44-2.87,2.84,2.84,0,0,1,3,1l.08.16Zm72.86,17a1.89,1.89,0,0,0-1.74-1.9,35,35,0,0,1-4.76-1.39,45.29,45.29,0,0,1-12.68-7.57,38.33,38.33,0,0,1-6.27-6.25l-.31-.4h.4c3.08-.21,10.65-.87,12-1a37.49,37.49,0,0,0,7.85-1.35c5.6-1.34,5.08-4.75,5.08-4.79a51.81,51.81,0,0,0-1-7c-.41-1.49-.95-4.5-1-4.52-.47-3.14-4.68-5.24-4.69-5.24a52.75,52.75,0,0,0-12-4.2A56.45,56.45,0,0,0,162,.5a6.94,6.94,0,0,0-2.6.52L155,2.55a26.26,26.26,0,0,1-4.25,1,2.22,2.22,0,0,0-2.32,2A23.64,23.64,0,0,1,148,9.1a1.74,1.74,0,0,0,.42,1.22,1.47,1.47,0,0,0,1,.5L151,11a1.62,1.62,0,0,1,1.12.81,1.59,1.59,0,0,1,.11,1.05l-.61,5a173,173,0,0,0-1.87,17.6A119.69,119.69,0,0,0,150.34,51a.47.47,0,0,0,0,.09,4.85,4.85,0,0,0,1.51,2.62,24,24,0,0,0,3.36,1.78,3.68,3.68,0,0,0,1.68.52,1.49,1.49,0,0,0,.81-.22,2.32,2.32,0,0,0,.89-1.63c.28-2.08.62-6.24.62-6.35a3.28,3.28,0,0,1,.5-2.33l.06-.05h.06C163,47.61,169.9,51.63,170,51.68a44.37,44.37,0,0,0,9.65,3.78,3.76,3.76,0,0,0,1.32-.13,1.22,1.22,0,0,0,.32-.22c1.66-1.6,4.48-4.27,4.49-4.28a5.44,5.44,0,0,1,3-1.4,2,2,0,0,0,1.42-.84,1.91,1.91,0,0,0,.14-1.32ZM175,22.13a114.8,114.8,0,0,1-12.66,3h-.21v-.32c.47-3.53,1.44-9.18,1.45-9.23v-.13h.08a6.89,6.89,0,0,1,3.5.15,57.11,57.11,0,0,1,11,2.66,2.06,2.06,0,0,1,1.58,1.27c-.05,1-1.8,2-4.86,2.65Zm35.53,5.78a4.61,4.61,0,0,1,1,3.34c0,.1-1.25,7.42-1.65,12.33L208.25,55a2.89,2.89,0,0,1-1.16,1.85,2.18,2.18,0,0,1-1.17.31,4.24,4.24,0,0,1-1.59-.36,24.23,24.23,0,0,1-4.24-2.08l-.08-.05a5.17,5.17,0,0,1-1.52-2.24c-.18-.73-.91-3.67-1-4.35A1.57,1.57,0,0,0,196,46.8h-1.34c-.67-.1-.95-.75-.91-1.89a21.73,21.73,0,0,1,0-4.35,9.69,9.69,0,0,1,2.07-4.38,33.17,33.17,0,0,1,10.3-8.65,7.06,7.06,0,0,1,3.17-1.05.68.68,0,0,1,.36.16,6.09,6.09,0,0,1,1,1.28Zm2.54-14.44a2.12,2.12,0,0,1-.47,2.6l-7.47,7a2,2,0,0,1-1.43.61,2.85,2.85,0,0,1-1.66-.61l-3.57-2.7A1.12,1.12,0,0,1,198,19a.68.68,0,0,1,.11-.2l5.28-6.36a4.23,4.23,0,0,1,1.54-1l5.24-1.76a1.17,1.17,0,0,1,1,0,1.54,1.54,0,0,1,.74,1Zm24.71,14.3c-5.23-5.56-8.91-6.09-8.94-6.09a6.87,6.87,0,0,0-2.37-.44,5.33,5.33,0,0,0-3.56,1.29L217.19,29a2,2,0,0,0,0,2.3,6.07,6.07,0,0,1,.45,3.9,92.69,92.69,0,0,0-1.09,9.61,51.15,51.15,0,0,0,.34,8.36,4.65,4.65,0,0,0,1.86,3.31,4.17,4.17,0,0,0,2.18.53,12.6,12.6,0,0,0,4.85-1.28,22.33,22.33,0,0,0,6.75-6.87A45,45,0,0,0,239,34.39c.75-4.48-.95-6.42-1.14-6.62ZM224.33,42.66a1,1,0,0,1-.73-.31l-.09-.13a13.15,13.15,0,0,1-.44-5.42,1.73,1.73,0,0,1,.28-1.38.25.25,0,0,1,.16-.07h.05a14.49,14.49,0,0,1,5.08,3.28l.07.11v.15A2.21,2.21,0,0,1,228,40a7.06,7.06,0,0,1-3.69,2.68h0Z"/></svg>