<svg id="Layer_1" data-name="Layer 1" xmlns="http://www.w3.org/2000/svg" xmlns:xlink="http://www.w3.org/1999/xlink" viewBox="0 0 169.26 124.42"><defs><style>.cls-1{fill:none;}.cls-2{fill:#e86d1f;}.cls-3{fill:#1b8cc4;}.cls-4{clip-path:url(#clip-path);}</style><clipPath id="clip-path"><polygon class="cls-1" points="7.4 0.5 7.4 116.25 164.55 119.41 164.55 0.5 7.4 0.5"/></clipPath></defs><title>Captain D&amp;apos;s Seafood Kitchen</title><path class="cls-2" d="M154.71,76.67a14.91,14.91,0,0,0-.14-1.64c-.06-.54-.19-.94-.28-1.41a11,11,0,0,0-.44-1.46c-.08-.23-.12-.48-.19-.72-.14-.46-.31-1.4-.46-1.85-.33-1-2.12-5-2.58-5.93-1.11-2.23-1.12-3.54.38-6a12.23,12.23,0,0,0,1-1.88c.14-.3.54-.89.73-1.32a5.5,5.5,0,0,0,.38-1c.11-.41.3-.77.41-1.18s.19-.74.31-1.11A8.81,8.81,0,0,0,154,50c.08-.43.19-.84.24-1.27s.09-.87.12-1.3c.05-.89.22-1.75.25-2.64,0-.42.08-.84.08-1.26V42.18a23.94,23.94,0,0,0-.41-3.71c-.07.07-.4.49-.46.55-1.21,1.39-2.14,2.75-3.49,4.17-.46.49-.9,1.07-2,2.24a12.13,12.13,0,0,1-1.27,1,17,17,0,0,1-2.95,2.47l-.68.4c-.29.19-.53.46-.84.63a11,11,0,0,1-2.74,1.48,4,4,0,0,0-.65.2l-1.26.54c-.73.32-1.45.65-2.19.95a14.47,14.47,0,0,1-2.09.74c-1.08.25-2.13.65-3.21.9l-.26.07a17.43,17.43,0,0,1-4.33.22c-.75,0-1.5-.11-2.25-.08a5.52,5.52,0,0,1-1.47-.16c-.52-.13-1.07-.13-1.59-.23a8.09,8.09,0,0,0-1.64-.27,2.8,2.8,0,0,1-.78-.15,54.19,54.19,0,0,1-8.08-2.54c-.52-.24-1.1-.33-1.62-.57a6.86,6.86,0,0,1,.9-.78c.45-.32.93-.59,1.38-.92a5.7,5.7,0,0,1,.87-.57c.76-.42,1.42-1,2.17-1.38a13,13,0,0,0-3.76-1c-.34,0-.64-.12-1-.14s-.74-.1-1-.13c-1.53-.18-2.79-.31-4.36-.39h-1a7.41,7.41,0,0,0,.54-.58c.16-.21.37-.39.55-.59l1.38-1.48a12.16,12.16,0,0,1,1.5-1.23l-1.14-.45a2.76,2.76,0,0,0-.55-.15,2.8,2.8,0,0,1-.53-.17l-.58-.21c-.09,0-.18-.09-.28-.13l-.25-.09a3.67,3.67,0,0,0-.64-.16c-.49-.07-1.19-.28-1.6-.33a13.15,13.15,0,0,1-1.31-.21c-.44-.1-1-.1-1.41-.18L98,39.71a2.38,2.38,0,0,1-.39-.09,1.94,1.94,0,0,0-.44-.07h-3.6c-.34,0-.69.07-1,.06a10.49,10.49,0,0,0-1.57.16,14.38,14.38,0,0,0-1.6.13c-.2,0-2.07.15-2.27.16a8.69,8.69,0,0,0-1.48.28c-.52.12-1,.26-1.55.43a3.72,3.72,0,0,1,.07-.75c.09-.37.21-.74.31-1.11.27-1,.65-1.94,1-2.92.18-.57.38-.79.58-1.35l-.25-.05a6.46,6.46,0,0,0-1.47,0h-.65a3.29,3.29,0,0,0-.79.07,3.67,3.67,0,0,0-.61.13H82c-.23,0-.45.11-.68.13a5.6,5.6,0,0,0-.68.13L79,35.44l-1,.21a8.68,8.68,0,0,0-1,.23l-1,.29a4,4,0,0,1,0-.84v-.57a4,4,0,0,1,0-.46,11.26,11.26,0,0,1,.39-1.58c.06-.2.14-.48.18-.69a6.08,6.08,0,0,0-1,.15,10.22,10.22,0,0,0-1.14.25,6.51,6.51,0,0,0-.8.23,5.08,5.08,0,0,0-.71.37c-.46.33-.73.51-1.21.81l-.85.53a10.19,10.19,0,0,0-1.69,1.22,8.72,8.72,0,0,0-1,1c-.09.12-.27.34-.43.51s-.15.21-.25.3-.25.24-.47.42h0a2.39,2.39,0,0,0-.12-.24c-.08-.14-.18-.26-.25-.41s-.25-.38-.36-.57-.34-.44-.49-.66a11.7,11.7,0,0,1-.68-1,6.3,6.3,0,0,1-.42-.8l-.19-.44a4.88,4.88,0,0,0-.67.35c-.55.31-.91.48-1.51.81a12.45,12.45,0,0,0-1.49,1,17.17,17.17,0,0,0-2,1.58c-1.22.8-1.22,1.36-2.22,2.36a24.78,24.78,0,0,0-1.86,2.27c-.34,0-2.63.36-3,.39-1.31.11-2.47.58-3.27.69a44.48,44.48,0,0,0-4.43.88,33,33,0,0,0-4.44,1.21c-1.42.55-2.86,1-4.26,1.61-3.51,1.45-7.74,3.21-10.46,6.07-1.28,1.35-2.57,2.66-3.87,4a12.19,12.19,0,0,0-1.12,1.32c-.17.23-.36.46-.53.7a2.43,2.43,0,0,0-.15.25,1,1,0,0,0-.07.2.81.81,0,0,0,0,.16,1.4,1.4,0,0,0,0,.25v.27h-1.1a2.18,2.18,0,0,0-.44.17c-.08.05-.57.54-.67.64a.74.74,0,0,0-.21.45,1.8,1.8,0,0,0,0,.41,1.58,1.58,0,0,0,.07.22,9.09,9.09,0,0,0,.71,1.44,9.46,9.46,0,0,0,2.62,2.43,25.75,25.75,0,0,0,2.92,1.72,32.75,32.75,0,0,0,3.16,1.11,8.63,8.63,0,0,0,1.48.3,8.35,8.35,0,0,1,1.4.12h.13a6.42,6.42,0,0,1-1,.4L27,69.92a10.57,10.57,0,0,1-1.37.27,9.72,9.72,0,0,1-2.84.18A14.27,14.27,0,0,1,20,70a10.11,10.11,0,0,1-1.14-.37V70a.7.7,0,0,0,0,.1v.38a.64.64,0,0,0,0,.1.5.5,0,0,0,0,.08v.06l0,.18a.64.64,0,0,0,.24.23l.23.15.6.34c1,.52,1.87,1.16,2.84,1.67a25.24,25.24,0,0,0,3.14,1.28,16.39,16.39,0,0,0,2.85,1c.3.06.59.13.88.21.53.16,1,.35,1.57.55a6.85,6.85,0,0,0,1.19.41l2.58.58c.48.1,1,.18,1.45.26s7.1,1.34,10.09,1.62c1.13.1,2.27.19,3.41.27s2.27.13,3.41.17h1.47a1.12,1.12,0,0,1,.11.19s.17.46.18.47l.79,1.49c.57,1.1,1.12,2.06,1.85,3.22.57.9.87,1.47,1.37,2.23a12.91,12.91,0,0,0,1.27,1.66c.29.33.76.9,1,1.15.76.73,1.34,1.16,1.43,1.31l.22-.32a2.65,2.65,0,0,1,.34-.53,2.8,2.8,0,0,0,.33-.42,8,8,0,0,1,.5-.77c.14-.22.32-.34.43-.54a3.81,3.81,0,0,1,.24-.38,5.34,5.34,0,0,0,.61.15l.71.09h.53a12.1,12.1,0,0,0,1.37.11h1.64c.3,0,.6-.08.9-.08h1.75l-.15-.22a3.93,3.93,0,0,1-.34-.47,21.91,21.91,0,0,0-1.4-2,1.81,1.81,0,0,0,.44-.06c.24-.06.47-.07.71-.12a3.13,3.13,0,0,1,.68-.12,2.88,2.88,0,0,0,.55-.07c.25,0,.48-.07.74-.08a3.14,3.14,0,0,0,.68-.22l.9-.24.86-.26c-.12-.07-1.69-1.1-2.22-1.46a7.37,7.37,0,0,0-.7-.3c-.23-.13-.45-.23-.67-.36a8.41,8.41,0,0,0-.8-.35C69.79,81.47,68.85,81,67,80.22h.27a5,5,0,0,1,1,0c1.62,0,3.2.07,4.82.07h1.24c1.12-.07,2.26-.16,3.38-.15a14.45,14.45,0,0,0,3.08-.26,28.13,28.13,0,0,1,3.56-.24c1.2-.09,2.33-.55,3.53-.61h.65l.24.16a21.19,21.19,0,0,0,4.62,2.31l1.22.43.92.33c.33.12.7.22,1,.34l.88.31.75.22c.19.07,1,.26,1.16.33s1.05.27,1.43.35a18.2,18.2,0,0,0,1.9.26s-.06-.4-.14-.79-.12-.49-.16-.74a7.58,7.58,0,0,0-.24-.77.89.89,0,0,0-.09-.26h2.17a8.91,8.91,0,0,0,1.13-.14c.36-.07.63-.12,1-.22l.21-.07a4.1,4.1,0,0,0-.32-.59,7.29,7.29,0,0,0-.58-.92,4.39,4.39,0,0,1-.37-.59l.14-.06a3.07,3.07,0,0,0,.5-.13,18.67,18.67,0,0,0,2.73-.52l.54-.14a12.32,12.32,0,0,0,1.94-.7l.55-.26c.17-.09.32-.13.47-.22a6.11,6.11,0,0,0,1-.6s-.72-.18-1.08-.25-.75-.23-1.18-.28c-.63-.08-1.21-.27-1.84-.34-1.16-.13-2-.35-3.21-.43-.9-.06-1.79-.18-2.69-.2a35.6,35.6,0,0,1,4.18-2.1l1.14-.47c1.11-.45,2.16-1,3.23-1.48.15-.07.28-.17.42-.24a5.89,5.89,0,0,0,.71-.3c.22-.14.71-.25,1.05-.42s.66-.31,1-.45c.62-.27,1.22-.58,1.86-.83s1.47-.38,2.19-.6a20.58,20.58,0,0,1,2.48-.58,13.88,13.88,0,0,1,1.43-.17,41.76,41.76,0,0,1,5,.09c1.26.07,2.52.15,3.77.29a18.34,18.34,0,0,1,7.12,2.58c1.59,1,5.65,3.12,7.15,4.24a4.69,4.69,0,0,1,.54.5c.71.69,1.2,1.57,1.86,2.29a10.13,10.13,0,0,1,2,2.45,27.52,27.52,0,0,1,1.63,3.17c.19.57.52,1,.75,1.59s.43,1.09.59,1.63a2.69,2.69,0,0,0,.11.31,3.51,3.51,0,0,0,.16-.58,12.1,12.1,0,0,0,.35-1.8c.1-1,.34-2.06.5-3.08.07-.45.18-.89.21-1.35s0-.95,0-1.42c0-.26.06-.52.05-.78a3.84,3.84,0,0,0-.06-.76M38.84,61.48a3.32,3.32,0,0,1-.13.45l-.09.31a3.36,3.36,0,0,1-.23.44c-.08.12-.21.2-.3.31a1.47,1.47,0,0,1-.28.26l-.32.18-.16.09a2.23,2.23,0,0,1-.55.21h-.23a3.26,3.26,0,0,1-1.4-.17h-.2a1.06,1.06,0,0,1-.23-.09,4.3,4.3,0,0,1-.77-.67,1.3,1.3,0,0,0,.51.07,4.7,4.7,0,0,0,.52-.09,1.87,1.87,0,0,0,.49-.21,3.44,3.44,0,0,0,.44-.31,2.46,2.46,0,0,0,.3-.27,1.83,1.83,0,0,0,.39-.65,2.4,2.4,0,0,0,.13-.42,1.4,1.4,0,0,0,0-.48v-.18a2.69,2.69,0,0,0,0-.28v-.19c0-.07-.06-.14-.08-.22a1.83,1.83,0,0,0-.11-.31,1.27,1.27,0,0,0-.35-.44L36,58.67l-.2-.12-.24-.13a1.1,1.1,0,0,0-.31-.17h1.18a1.88,1.88,0,0,1,.39,0h.34l.28.1.12.07.38.31.26.22a2.7,2.7,0,0,1,.25.27,2.16,2.16,0,0,1,.22.33,2.78,2.78,0,0,1,.28.79,1.84,1.84,0,0,1,.05.56,5,5,0,0,1-.09.59M49,74.69a4.36,4.36,0,0,1-.26.83,3.4,3.4,0,0,1-.35.67c-.12.14-.16.33-.3.46l-.44.43a2.28,2.28,0,0,1-.68.28,3.59,3.59,0,0,1-1.72,0l-1.18-.2h-.29a1.29,1.29,0,0,1-.39-.16l.27-.06.22-.08a2.23,2.23,0,0,1,.45-.15l.17-.07h.1c.17-.1.36-.16.54-.26l.37-.23a1.56,1.56,0,0,0,.31-.2,2.39,2.39,0,0,1,.39-.28,1.51,1.51,0,0,0,.21-.18l.21-.19a4.23,4.23,0,0,0,.39-.4,5.36,5.36,0,0,0,.63-1c.09-.17.18-.33.26-.51a3.93,3.93,0,0,0,.33-.75,3.2,3.2,0,0,1,.12-.39,3.75,3.75,0,0,1,.14-.41,2.35,2.35,0,0,0,.1-.22,1.78,1.78,0,0,0,0-.38,3.84,3.84,0,0,0,.14-.62l.05-.38v-.38c.1.42.15.88.22,1.31a10.74,10.74,0,0,1,.12,1.26,7.83,7.83,0,0,1-.25,2.24m8.53-11.54H56.08a5.2,5.2,0,0,1-.83,0H52.93l-.31.11h-.5a2.26,2.26,0,0,1,0-.42,4.45,4.45,0,0,0,0-.63v-.74a1.16,1.16,0,0,0,0-.15V60.16a3,3,0,0,0,0-.44,5.08,5.08,0,0,1,0-.71v-.48h.76a2.35,2.35,0,0,1,.5,0,2.15,2.15,0,0,0,.53,0h3.6v1.53h-1a3,3,0,0,0-.6,0,3.27,3.27,0,0,1-.6,0H54.22v.47H56.3v.77h-.22a2.75,2.75,0,0,1-.56,0H54.24v.48h.12a2.48,2.48,0,0,1,.5,0h2.63v.15c0,.35.08.7.07,1.06v.26m7.89-4.08A6.62,6.62,0,0,1,65,60l-.08.12a2.5,2.5,0,0,0-.4-.23,2.67,2.67,0,0,0-.72-.21,3.72,3.72,0,0,0-1.49-.08c-.16,0-.43.14-.45.34s.27.32.43.37a16.25,16.25,0,0,0,1.67.22,2.38,2.38,0,0,1,1.19.55,1.07,1.07,0,0,1,0,1.35,2.06,2.06,0,0,1-1.13.77,4.93,4.93,0,0,1-1.43.3,9.07,9.07,0,0,1-1.72-.09,6.93,6.93,0,0,1-1.41-.36H59.4a5.39,5.39,0,0,0,.27-.59c.09-.25.23-.48.32-.73h0c.18.11.41.13.6.23a1.49,1.49,0,0,0,.36.13,8.33,8.33,0,0,0,1.82.27.81.81,0,0,0,.62-.22.25.25,0,0,0,0-.35l0,0a1,1,0,0,0-.32-.12c-.1,0-.18-.06-.29-.07a1.72,1.72,0,0,1-.51-.07c-.44-.09-.86-.12-1.3-.24a2.41,2.41,0,0,1-.73-.33,1.15,1.15,0,0,1-.62-.72,1,1,0,0,1,.23-.91,3.12,3.12,0,0,1,.89-.72,1.91,1.91,0,0,1,.44-.17,5.72,5.72,0,0,1,1.73-.12,5.8,5.8,0,0,1,1.5.28,6.7,6.7,0,0,1,1,.43v.08m7.45.48a3,3,0,0,0,0,.36h-2a4.85,4.85,0,0,0,.05.85,2.31,2.31,0,0,1,0,.59v1.68h-.63a1.49,1.49,0,0,0-.51.06H68.73a2.32,2.32,0,0,0,0-.4,2.18,2.18,0,0,1,0-.68,11.22,11.22,0,0,0,0-1.27c0-.29.06-.57.07-.86h-2V58.85a.89.89,0,0,0-.06-.42h1.77a1.21,1.21,0,0,0,.27,0,1.35,1.35,0,0,1,.35,0h3.62a6.17,6.17,0,0,1-.06,1.05m1.59,3c0,.21-.05.42-.07.63H72.91v-.88a2.21,2.21,0,0,0,0-.36h.51l.79-.11h.1a6.4,6.4,0,0,1,0,.72m5.41-3.24V63a1.33,1.33,0,0,0,0,.23h-2v-.54a1.54,1.54,0,0,1,0-.24V62a4.09,4.09,0,0,1,0-.57,3,3,0,0,0,0-.37v-2.5h1.95a4.39,4.39,0,0,0,0,.64m7.47,2.62a3,3,0,0,1-.8,1,.63.63,0,0,0-.21.15l-.18.1a2,2,0,0,1-.37.17l-.2.06h-.17l-.41.08a2.22,2.22,0,0,1-.54,0h-.55a4.36,4.36,0,0,1-.51-.07,3.79,3.79,0,0,1-.73-.15h-.25L82,63.09A.7.7,0,0,1,82,63a.12.12,0,0,1,.07-.1.46.46,0,0,1,0-.08,2,2,0,0,0,.2-.45l.25-.51h0l.11.06a2.38,2.38,0,0,0,.39.18,4.11,4.11,0,0,0,1.28.19A1.48,1.48,0,0,0,85,62a1,1,0,0,0,.4-.69,1.31,1.31,0,0,0,0-.14,3,3,0,0,1-2.35.21,1.75,1.75,0,0,1-1-1,1.23,1.23,0,0,1,.22-1.23,2.32,2.32,0,0,1,1.32-.67,5,5,0,0,1,1.66-.05,2.48,2.48,0,0,1,1.36.58,2.27,2.27,0,0,1,.66,1.35,2.72,2.72,0,0,1-.2,1.49m6.74.92a2.38,2.38,0,0,1-1.63.59,4,4,0,0,1-2-.34,2.26,2.26,0,0,1-1.09-1.24A2.59,2.59,0,0,1,89,60.06a2.53,2.53,0,0,1,1.32-1.41,3.34,3.34,0,0,1,2-.28,8.88,8.88,0,0,1,1.77.53l-.09.19c-.07.12-.12.24-.19.37a2.35,2.35,0,0,0-.13.32l-.06.16-.33-.14-.23-.07c-.71-.19-1.39-.45-2,.08a1.26,1.26,0,0,0-.36.64,1.16,1.16,0,0,0-.06.31,2.61,2.61,0,0,1,2.9-.27,1.38,1.38,0,0,1,.29,2.25M101.66,61a3.15,3.15,0,0,1-.48,1.29,2.47,2.47,0,0,1-1.26.85,4.61,4.61,0,0,1-1.64.14,7.63,7.63,0,0,1-2-.44,1.12,1.12,0,0,0,.09-.2,1.21,1.21,0,0,1,.11-.28l.15-.3a.89.89,0,0,1,.12-.29h0a2.26,2.26,0,0,0,.58.26,4,4,0,0,0,1,.09,2.42,2.42,0,0,0,.9-.15.87.87,0,0,0,.48-.59,3.3,3.3,0,0,0,.14-.48,2.84,2.84,0,0,1-2.15.55c-.71-.17-1.5-.72-1.44-1.53s1-1.43,1.75-1.62a3.39,3.39,0,0,1,2.42.28,2.23,2.23,0,0,1,.87.82,2.08,2.08,0,0,1,.16.35,3.14,3.14,0,0,1,.09.33.55.55,0,0,0,.07.33,1.27,1.27,0,0,1,0,.65"/><path class="cls-2" d="M91.62,61a1.47,1.47,0,0,0-.65.28l-.1.09a.84.84,0,0,0,.39.54,1.63,1.63,0,0,0,.47.14,1.5,1.5,0,0,0,.48,0c.32,0,.72-.37.57-.73s-.81-.4-1.16-.35"/><path class="cls-2" d="M99.35,59.72a1.11,1.11,0,0,0-1,0c-.27.15-.52.49-.25.76a1.34,1.34,0,0,0,1.22.16,1.19,1.19,0,0,0,.58-.37,1.12,1.12,0,0,0-.58-.58"/><path class="cls-2" d="M85,59.71a1.19,1.19,0,0,0-.45-.07h-.36a.47.47,0,0,0-.22.1c-.15.1-.29.19-.31.39a.47.47,0,0,0,.29.46,1.64,1.64,0,0,0,1.25,0,1.06,1.06,0,0,0,.3-.19.9.9,0,0,0-.5-.66"/><path class="cls-3" d="M48.53,7.44c.06.36.13.72.18,1.07a10.32,10.32,0,0,1,2-.53c.1,1.08.14,2.17.27,3.25s.29,2,.36,3c.06.82.17,1.63.25,2.45,0,.44.1.87.13,1.31s0,.84,0,1.26c0,.7.07,1.4.12,2.1s.07,1.2.16,1.8.14,1.35.2,2v1.76c0,.65.09,1.29.11,1.94v.7l1.46-.31c.45-.11.9-.18,1.36-.27.71-.15,1.43-.28,2.14-.38l.69-.1V28a1.49,1.49,0,0,1,0-.21v-.62a5.16,5.16,0,0,0-.06-.6,4.49,4.49,0,0,1-.09-.79,2.61,2.61,0,0,0-.19-.55,2.41,2.41,0,0,1,0-.52,3.11,3.11,0,0,0,0-.43v-.54a1.51,1.51,0,0,0-.05-.48,2.35,2.35,0,0,1-.09-.41,1.2,1.2,0,0,1,0-.27,3.23,3.23,0,0,1,0-.42,1.7,1.7,0,0,0,0-.3l.6-.14c.44-.12.89-.17,1.33-.32a8.22,8.22,0,0,0,2.27-.9A11.93,11.93,0,0,0,63.37,19,8.54,8.54,0,0,0,64,18a8.94,8.94,0,0,0,.53-1,4.39,4.39,0,0,0,.27-.53,8.35,8.35,0,0,0,.7-3.18,7.67,7.67,0,0,0-.05-1.07,18.24,18.24,0,0,0-1.14-4.61,6.1,6.1,0,0,0-.89-1.72c-.13-.16-.24-.32-.37-.49a6.87,6.87,0,0,0-1.83-1.59,7.77,7.77,0,0,0-2-1L58,2.49a5.19,5.19,0,0,0-1.71-.15,35.2,35.2,0,0,0-4.93.79c-.74.15-1.49.27-2.21.48a7.56,7.56,0,0,0-.83.31v.22c.11,1.06.17,2.13.36,3.18m7.82-.1a2.8,2.8,0,0,1,.68.16,3.64,3.64,0,0,1,1.26.34,6.16,6.16,0,0,1,.92.66,3,3,0,0,1,.76,1.25c.06.25.16.48.23.72a6,6,0,0,1,.19.87c.05.33.08.67.1,1a6.66,6.66,0,0,1-.26,2.47,7.69,7.69,0,0,1-1.26,2.23,1.49,1.49,0,0,1-.4.27l-.29.14a4.36,4.36,0,0,1-1.41.41A1.66,1.66,0,0,0,57,17.2a2.15,2.15,0,0,1-.09-.47l-.43-1.49c0-.19-.17-1-.19-1.24s0-.61,0-.71c0-.48-.07-1-.09-1.43V10.53a2.57,2.57,0,0,1,0-.68,4.94,4.94,0,0,0,0-.64v-.7a5.63,5.63,0,0,1,0-.92V7.33c0-.08.23,0,.34,0"/><path class="cls-3" d="M64.14,3.52c.21.64.5,1.28.69,1.92.13.41.25.82.4,1.21h.21L66,6.57a6,6,0,0,1,.64-.18,5,5,0,0,0,.74-.13c.29,0,.61-.11.9-.13a4.33,4.33,0,0,1,.51,0h.87V8.41a33.39,33.39,0,0,0-.15,3.38v1.07c0,.35-.09.62-.11,1V16a3,3,0,0,0-.06.49v3.72a18.53,18.53,0,0,1-.07,2c-.07.67-.08,1.36-.1,2a6.7,6.7,0,0,1-.06,1.09,5.55,5.55,0,0,0,0,1v1h0a1.91,1.91,0,0,0,.53-.05h1c.18,0,.63-.06,1-.05s.37-.06.57-.05l1.24-.09.9-.05h.39V11.33c0-.5.07-1,.07-1.51s.09-1.14.12-1.65.07-1.31.1-2V5.85h1.44a5.22,5.22,0,0,1,.94.06l.9.09c.34,0,.68.09,1,.09a5.77,5.77,0,0,1,.94.12.59.59,0,0,0,0-.15,5.85,5.85,0,0,1,.24-.9,2,2,0,0,1,.1-.42c0-.1,0-.22.07-.33.1-.3.21-.58.31-.88a7.45,7.45,0,0,1,.33-1c.1-.22.18-.44.29-.66a3.41,3.41,0,0,0,.17-.44l-.14-.19a8.4,8.4,0,0,0-.92-.12,5.13,5.13,0,0,0-.76-.06c-.19,0-1-.07-1.17-.07s-2-.13-2.37-.13a4,4,0,0,1-.69,0,4.61,4.61,0,0,0-.78,0,5.72,5.72,0,0,0-.74,0H71.52a4.87,4.87,0,0,1-.91,0c-1.4-.08-2.9.34-4.31.39-.39,0-.76.08-1.15.1a7.6,7.6,0,0,0-1.21.16l-.56.14a3.21,3.21,0,0,1,.13.4c.13.51.44,1,.61,1.47"/><g class="cls-4"><path class="cls-3" d="M153.88,18.18a5.57,5.57,0,0,1,.49.33v-.07a1,1,0,0,0,.2-.33,1.14,1.14,0,0,1,.26-.41,1.36,1.36,0,0,0,.24-.34c.1-.2.25-.35.35-.56l.42-.84c.14-.29.19-.36.27-.53s.13-.38.21-.56.19-.32.26-.49.18-.35.26-.52c.19-.44.38-.87.53-1.32a4.7,4.7,0,0,1,.17-.47l-.33-.26-.59-.44L156,11c-.21-.14-.14-.13-.25-.17l-.34-.17c-.27-.13-.52-.29-.79-.43a7.77,7.77,0,0,0-.86-.39l-.2-.07v.38c0,1.08-.19,2-.26,3.09a21.82,21.82,0,0,1-.64,3.49v.64a2,2,0,0,1,.42.27c.11.1.81.55.87.58"/><path class="cls-3" d="M19.48,44.76a10.23,10.23,0,0,0,7.2-1.94,10.41,10.41,0,0,0,4-6,1.37,1.37,0,0,0,0-.15,10.42,10.42,0,0,0,.21-1.22c0-.47.12-.93.16-1.4s.05-.9.07-1.34V30.56l-.39.09a2.11,2.11,0,0,0-.3.1h-.14l-1.09.36-1.06.38-.9.34a8.34,8.34,0,0,0-1,.41,4.37,4.37,0,0,0-.49.23,2.3,2.3,0,0,1-.25.12l-.19.12v1.44a5.1,5.1,0,0,1-.18,1.23,3.77,3.77,0,0,1-.33.9,3.93,3.93,0,0,1-1.31,1.6,3,3,0,0,1-.78.4,2.88,2.88,0,0,1-1.5.1,4.22,4.22,0,0,1-.62-.08A1.7,1.7,0,0,1,20,38a4.81,4.81,0,0,0-.48-.34c-.16-.13-.33-.24-.48-.38a8.66,8.66,0,0,1-1.32-1.52A12.36,12.36,0,0,1,17,34.55c-.06-.1-.13-.18-.18-.28l-.31-.63c-.11-.22-.18-.43-.28-.65s-.28-.49-.39-.74l-.07-.13h-.06a.46.46,0,0,1,0-.1c-.07-.12-.14-.24-.2-.36s-.16-.56-.28-.83c0-.06-.06-.11-.09-.17s0-.15,0-.22a.91.91,0,0,0-.1-.17c-.06-.11,0-.18-.06-.29a.75.75,0,0,1-.11-.22v-.34c0-.05,0-.07-.06-.12s0-.09,0-.13a2.8,2.8,0,0,0-.11-.38c-.07-.27-.14-.54-.2-.82a12.36,12.36,0,0,1-.4-1.73c-.13-1.5-.39-3-.49-4.47a11.4,11.4,0,0,1,0-2.16c.1-.84.27-1.68.39-2.52a25.4,25.4,0,0,1,.47-2.78,9,9,0,0,1,1.13-2.39c.46-.74,1-1.46,1.46-2.17a5.6,5.6,0,0,1,.7-.82,3.26,3.26,0,0,1,.71-.58,6.82,6.82,0,0,1,.74-.25,4.1,4.1,0,0,1,2-.28,3,3,0,0,1,2.08,1.23,5.89,5.89,0,0,1,.88,2.5,20.31,20.31,0,0,1,.3,4.94h.15a1.19,1.19,0,0,0,.35-.15,5.71,5.71,0,0,0,.6-.2,4.51,4.51,0,0,1,.5-.17c.15-.05.3-.15.46-.21s.26-.14.39-.2l.55-.22A5.78,5.78,0,0,0,28.3,15l.45-.21.54-.24.24-.09.24-.1.59-.28a8.59,8.59,0,0,0,.09-1.21,25.62,25.62,0,0,0-.21-3.18A14.12,14.12,0,0,0,29,4.5a6.8,6.8,0,0,0-2.15-2.61c-.34-.21-.71-.39-1.07-.57A8,8,0,0,0,24.82,1a4.61,4.61,0,0,0-1-.22c-.38,0-.75-.08-1.13-.08a6.82,6.82,0,0,0-1.11.06c-.76,0-1.48.29-2.23.4a11.25,11.25,0,0,0-1.23.28,11.87,11.87,0,0,0-4.67,2.79,13.48,13.48,0,0,0-1.28,1.39c-.4.49-.73,1-1.09,1.54-.16.23-.31.46-.45.7s-.14.25-.22.37a2.92,2.92,0,0,1-.19.23A7.85,7.85,0,0,0,9.51,9.9l-.32.84c-.3.77-.51,1.57-.74,2.36a26.91,26.91,0,0,0-1,4.83c-.13,1.41,0,2.82,0,4.23a6,6,0,0,1-.06.63,4.63,4.63,0,0,0,0,.73c0,.2-.07.4-.06.6a3.75,3.75,0,0,0,.07.78c0,.5.12,1,.18,1.51.1.74.26,1.47.38,2.21s.21,1.29.35,1.93c.07.32.14.64.2,1a5.8,5.8,0,0,0,.23.77c.41,1.2.85,2.38,1.34,3.55a26,26,0,0,0,1.73,3.37A16.06,16.06,0,0,0,13,41a9.93,9.93,0,0,0,6.47,3.81"/></g><path class="cls-3" d="M34.22,36.57l.4-.23c.11-.06.2-.14.31-.19l.93-.5c.17-.09.29-.23.46-.31l.5-.23c.3-.12.59-.29.89-.44.1-.05.19-.07.28-.11H38a1.19,1.19,0,0,1,.07-.51c.22-1.3.35-2.61.55-3.91.06-.41.11-.82.16-1.22a5,5,0,0,0,.53-.13c.52-.23,1.07-.41,1.6-.62a16.5,16.5,0,0,0,1.59-.75c.44-.23.92-.33,1.36-.54l.32-.14c.14.46.35.91.46,1.38A15.68,15.68,0,0,0,45.42,30a16.42,16.42,0,0,0,.84,1.62l.41-.18a6.15,6.15,0,0,1,1.11-.34c.39-.1.75-.27,1.14-.35a4.94,4.94,0,0,0,.65-.17c.21-.08.41-.19.62-.28a3.32,3.32,0,0,1,.45-.13l.44-.16.24-.05-.06-.09-.37-.57c-.12-.19-.24-.41-.38-.6s-.23-.45-.37-.67a6.06,6.06,0,0,1-.52-1.21c-.09-.24-.23-.42-.31-.67s-.21-.41-.3-.63c-.15-.41-.3-.82-.44-1.23-.08-.24-.13-.45-.2-.68s-.1-.36-.16-.55c-.13-.48-.36-.93-.5-1.41-.08-.28-.12-.54-.21-.82s-.25-.62-.35-.94a8.25,8.25,0,0,1-.35-1.19,3.86,3.86,0,0,0-.22-.68,3.39,3.39,0,0,0-.22-.61,5.07,5.07,0,0,1-.43-1.23,13.9,13.9,0,0,0-.39-1.36c-.14-.43-.16-.9-.3-1.34a13.08,13.08,0,0,1-.44-1.77c-.06-.42-.21-.82-.3-1.23s-.15-1.13-.23-1.66-.24-1.3-.37-2-.28-1.55-.4-2.32l-.29.09c-.19.06-.36.18-.55.24A4,4,0,0,0,42.2,5a3.23,3.23,0,0,1-.58.21,9.09,9.09,0,0,0-1.26.41c-.43.18-.86.39-1.3.53-.25.08-.51.11-.76.21l-.65.24a6.65,6.65,0,0,1-.75.26c-.26.07-.64.16-.93.26l-.41.18v4.51a14.09,14.09,0,0,1-.08,1.86c-.08.61-.05,1.05-.13,1.58-.1.73-.18,1.47-.24,2.21A14.42,14.42,0,0,0,35,19.62v1.21a20.86,20.86,0,0,1-.19,2.3c-.11.78-.18,1.58-.27,2.36s-.21,1.7-.36,2.72A6.31,6.31,0,0,1,34,29a.24.24,0,0,1-.06.19c-.11.55-.09,1.1-.19,1.64s-.24,1.08-.32,1.63a6.34,6.34,0,0,1-.1.85c0,.27-.17,1.37-.18,1.44-.11.88-.28,1.88-.45,2.68.16-.09.29-.18.43-.27.38-.25.82-.4,1.2-.64m5.25-14.24c.14-1.1.1-2.32.22-3.42a36.77,36.77,0,0,0,.27-4.21,7.38,7.38,0,0,1,.13-1.2.85.85,0,0,1,.09-.46,5.86,5.86,0,0,1,.18.66,11.13,11.13,0,0,0,.12,1.18c.2.62.28,1.25.47,1.88.12.41.2.84.29,1.25.33,1.5.85,2.93,1.29,4.4l-.75.35a17.74,17.74,0,0,1-1.92.7c-.21.07-.44.11-.66.17a9.44,9.44,0,0,1,.15-1.29"/><path class="cls-3" d="M106,31.12l.4.13a2.33,2.33,0,0,1,.6.16c.2.06.55.13.84.22s.49.19.75.26,1.47.59,1.55.63V28.77c.07-.54.09-1.08.13-1.62.09-1.17.2-2.33.27-3.5,0-.35.07-.69.07-1v-1a7.65,7.65,0,0,1,.11-1,5.34,5.34,0,0,0,0-.8,1.34,1.34,0,0,1,.07-.56,9.06,9.06,0,0,0,.13-1.36,8.07,8.07,0,0,1,0-.91l.26,1.19a21.25,21.25,0,0,0,.66,2.46,15.54,15.54,0,0,1,.52,2.44c.07.36.18.71.26,1.08a11.13,11.13,0,0,1,.19,1.1c.06.36.09.73.18,1.09a8.41,8.41,0,0,1,.2.89c.35,2.21,1,4.41,1.26,6.63a1.49,1.49,0,0,0,.06.51,5.72,5.72,0,0,1,.57.24c.18.09.33.15.5.25a2.54,2.54,0,0,0,.43.15c.2.07.4.19.6.28s.51.25.78.35.76.36,1.15.51.59.33.91.46c.09,0,.18.09.27.14a3.55,3.55,0,0,0,0-.58c0-.41.05-.78.06-1.18s.08-.85.11-1.25.09-.8.19-1.41.14-1.46.27-2.17c.18-.95.23-1.95.44-2.88s.36-2.23.52-3.27a7.48,7.48,0,0,1,.12-1.15c.2-1,.39-2.09.56-3.12.26-1.61.52-3.2.69-4.82a20.68,20.68,0,0,1,.68-3.79l-.47-.22c-.29-.11-.55-.29-.83-.41a5.14,5.14,0,0,1-.71-.37c-.53-.34-1.13-.51-1.68-.8l-.57-.28c-.11-.06-.23-.09-.34-.14s-.26-.15-.4-.21l-.34-.15v1.49a4.62,4.62,0,0,1-.07,1c-.07.74-.2,1.58-.22,2.33a1.32,1.32,0,0,1-.06.48,17.06,17.06,0,0,0-.31,2.24c0,1-.2,2.08-.21,3.12a10.48,10.48,0,0,1-.12,1.76c-.09.46-.14.93-.21,1.4a1.79,1.79,0,0,1-.07.6c-.07.21-.05.4-.1.59a5,5,0,0,1-.16-.48V22.9a.8.8,0,0,0-.06-.37,3.06,3.06,0,0,1-.1-.41q0-.22-.1-.44a8,8,0,0,1-.18-.83c-.24-1-.32-2-.54-3a.73.73,0,0,1,0-.22.5.5,0,0,0,0-.19,4.12,4.12,0,0,1-.15-.73c-.21-1-.35-2-.65-3a8.65,8.65,0,0,1-.27-1.39,2.57,2.57,0,0,0-.14-.45,22.22,22.22,0,0,1-.55-3.24,4.76,4.76,0,0,0-.1-.52c0-.18-.07-.38-.1-.57s-.13-.41-.15-.61l-.67-.18c-.39-.09-.77-.21-1.16-.33s-.92-.21-1.36-.36c-.76-.25-1.56-.41-2.32-.65l-.81-.25a1.85,1.85,0,0,1-.06.57c0,.54-.07,1.79-.09,1.88a6.88,6.88,0,0,1,0,.8c0,.16-.07.65-.08.74s-.09,1-.08,1.3-.06.67-.07,1,0,.69,0,1c0,1.37-.21,2.75-.22,4.11,0,.45-.15,1.86-.22,2.41,0,.23-.29,2.36-.29,2.53a32.94,32.94,0,0,1-.34,3.34c-.07.56,0,1.13-.09,1.7-.1,1-.22,2.17-.42,3.23a3.52,3.52,0,0,1-.13.79v.26l.27.07.81.25"/><g class="cls-4"><path class="cls-3" d="M164.47,22.48a6.66,6.66,0,0,0-3.35-3.17,5.32,5.32,0,0,0-4.25.08,4.9,4.9,0,0,0-.82.44l-.42.34a2.61,2.61,0,0,0-.76.91,5.41,5.41,0,0,0,.35,4.39c.38.62.87,1.18,1.3,1.77a8.19,8.19,0,0,1,.47.68,3.27,3.27,0,0,1,.3.6,4.13,4.13,0,0,1,.11.65,1,1,0,0,1,0,.52,1.84,1.84,0,0,1-.16.3,1,1,0,0,1-.59.35,1.47,1.47,0,0,1-.81,0l-.35-.11a3.32,3.32,0,0,1-.74-.5,1.49,1.49,0,0,1-.23-.37c-.09-.14-.18-.26-.26-.4a3.56,3.56,0,0,1-.31-.9v-.15c0-.05-.18.15-.26.23s-.41.48-.61.72c-.39.45-.81.87-1.2,1.32.13.17.19.36.31.54a6.13,6.13,0,0,0,1.36,1.64,2.59,2.59,0,0,1,.27.23,5,5,0,0,0,.45.35,2.75,2.75,0,0,0,.32.2,5.72,5.72,0,0,0,3.65.64,3.68,3.68,0,0,0,1.78-.92,3.29,3.29,0,0,0,.7-.9,3.57,3.57,0,0,0,.3-1.72,6.83,6.83,0,0,0-.85-3,9.3,9.3,0,0,0-.79-1.32,7.6,7.6,0,0,1-.76-1.18,2,2,0,0,1-.19-1.49,1.36,1.36,0,0,1,1.23-.88,2.12,2.12,0,0,1,1.46.53,2.5,2.5,0,0,1,.59,1.11,3.78,3.78,0,0,1,.71-.4l.5-.24.66-.32a6,6,0,0,0,1-.44l-.07-.14"/><path class="cls-3" d="M125.62,40.4c-.08.25-.12.5-.22.75l.3.07c.77.17,1.44.6,2.2.79l.43.1a.69.69,0,0,0,.25,0h.18c.74.15,1.47.32,2.2.48.53.12,1.1.18,1.77.29a1.66,1.66,0,0,0,.39,0h1.69a7.49,7.49,0,0,1,.93-.05,4.38,4.38,0,0,0,.8,0c.56-.09,1.11-.25,1.67-.35a7.75,7.75,0,0,0,1.51-.45,6.37,6.37,0,0,1,.61-.23c.23-.07.53-.25.79-.35a3.24,3.24,0,0,0,.69-.29,6.18,6.18,0,0,0,.64-.42c.19-.17.41-.26.59-.43s.53-.5.77-.68A7.21,7.21,0,0,0,145,38.41c.23-.29.52-.54.75-.85.1-.13.22-.26.32-.4a2.59,2.59,0,0,0,.3-.53c.12-.25.31-.48.45-.71a15.5,15.5,0,0,0,.81-1.49c.08-.17.2-.33.28-.5s.15-.3.23-.45.26-.62.42-.91a8.36,8.36,0,0,0,.34-1c.13-.34.21-.64.35-.93a2.84,2.84,0,0,0,.21-.58c.37-1.71.87-3.36,1.12-5.09.07-.49.15-1,.2-1.46a27.43,27.43,0,0,0,.5-3.06v-.23c0-.08.06-.3.06-.45v-2a2.22,2.22,0,0,0-.05-.28,18.64,18.64,0,0,1-.17-2.32,3.54,3.54,0,0,0-.1-.58V14.3a.86.86,0,0,1,0-.28,2,2,0,0,0-.09-.53,13,13,0,0,0-.57-2.19c-.17-.38-.2-.79-.36-1.17s-.19-.51-.31-.75a6.55,6.55,0,0,0-.36-.6c-.06-.1-.15-.19-.21-.29s-.33-.42-.48-.63a3.44,3.44,0,0,0-.27-.33c-.09-.11-.16-.26-.26-.38a3.71,3.71,0,0,1-.31-.32,9.21,9.21,0,0,0-1.34-1.39,7.73,7.73,0,0,0-1.55-1.1,14.76,14.76,0,0,0-1.88-1.1c-.79-.34-1.6-.61-2.39-1a19.1,19.1,0,0,0-4.32-1.17c-.75-.14-1.28-.36-2-.5a7.49,7.49,0,0,0-1.63-.16c0,.1-.08.56-.1.66-.29,1.88-.44,3.37-.8,5.26-.4,2.1-.87,4.31-1.07,6.44q-.08.83-.21,1.65a5,5,0,0,1-.16.94c-.21,1.19-.51,2.34-.62,3.54-.09,1-.35,2-.54,3-.24,1.22-.41,2.54-.72,3.74s-.52,2.38-.72,3.58-.38,2.41-.61,3.61c-.14.76-.3,1.52-.47,2.27s-.16,1.23-.32,1.89c-.22.94-.4,1.88-.59,2.82a4.72,4.72,0,0,1-.13.54m7-3.17c.08-.61.23-1.2.32-1.81s.27-1.24.38-1.86.23-1.13.33-1.7c.32-1.79.71-3.58,1.07-5.37V26a.08.08,0,0,0,.05-.07,1.15,1.15,0,0,1,0-.12,1.51,1.51,0,0,1,.06-.17c.08-.24.09-.49.17-.73s.07-.54.17-.8.07-.33.13-.5.1-.31.14-.46a2.49,2.49,0,0,1,.09-.57,1.31,1.31,0,0,0,0-.33,6.24,6.24,0,0,1,.16-1.07c.08-.52.24-1,.36-1.55.23-1,.38-2,.57-3,.41-2.23.82-4.46,1.33-6.66.08-.34.18-.68.26-1a16.1,16.1,0,0,1,2.47.85,6.53,6.53,0,0,1,3.22,2.82,11,11,0,0,1,1,3.75,27.71,27.71,0,0,1,.26,4,32,32,0,0,1-1.31,8.3c-.73,2.66-1.73,5.39-4,7.17a8.32,8.32,0,0,1-3.75,1.69,11.34,11.34,0,0,1-3.67,0v-.27"/></g><path class="cls-3" d="M82,11.31c-.08.19-.11.39-.19.59-.18.41-.31.84-.46,1.26a18.19,18.19,0,0,1-.85,2.38c-.14.25-.21.53-.34.78s-.21.53-.33.79-.25.71-.39,1.05a10.24,10.24,0,0,0-.48,1.21c-.1.4-.27.76-.4,1.15-.07.21-.15.41-.23.61a1.92,1.92,0,0,1-.09.28,1.4,1.4,0,0,0-.17.43,1.71,1.71,0,0,1-.16.32c-.06.12-.1.23-.17.35a3,3,0,0,0-.27.66c-.15.43-.4.83-.55,1.27s-.37.91-.5,1.37c0,.1-.08.19-.11.29a2.32,2.32,0,0,1-.15.3.81.81,0,0,1-.11.32l-.08.17h1.93a4,4,0,0,1,.77,0,5.4,5.4,0,0,0,1,.05h1.65a1.5,1.5,0,0,1,.06-.26c.08-.22.13-.46.22-.67a5.15,5.15,0,0,0,.23-.71c.06-.21.14-.41.19-.63a3.32,3.32,0,0,1,.26-.72,6.38,6.38,0,0,0,.35-.71c.09-.27.18-.54.28-.8a8.73,8.73,0,0,1,1.27,0,4.47,4.47,0,0,0,.63.05,5.79,5.79,0,0,1,.6.07,4.33,4.33,0,0,0,.51,0l.48.1a1.57,1.57,0,0,1,.56.07,1.73,1.73,0,0,0,.6,0,2.93,2.93,0,0,0,.53,0c.15,0,.28.05.43.06s.34.06.52.06h.34a1.56,1.56,0,0,0,0,.17v.53c0,.18.08.39.09.59a1.44,1.44,0,0,0,.05.44c.05.15,0,.16,0,.25v.29c.06.33.14.66.2,1a5.44,5.44,0,0,0,.14,1.11,3.44,3.44,0,0,1,.06.42h0a5,5,0,0,0,.56,0,2.82,2.82,0,0,1,.42.06,4.5,4.5,0,0,1,.81.11c.54.1,1.08.19,1.62.26a5.23,5.23,0,0,1,.69.12,5.46,5.46,0,0,1,.65.1H95l.42.08h0a6.71,6.71,0,0,1-.18-1.08,2.34,2.34,0,0,0-.1-.29v-.32c-.34-1.67-.48-3.39-.79-5.08s-.55-3.53-.77-5.34c-.09-.81-.16-1.65-.25-2.46-.1-1-.23-2-.26-2.95,0-1.41-.35-2.81-.42-4.22-.08-1.67-.18-3.33-.19-5H92.1c-.41,0-.8-.06-1.21-.07H88.82c-.22,0-.44-.07-.65-.07a4.52,4.52,0,0,1-.58-.06,5.38,5.38,0,0,0-.68,0c-.28,0-.55-.06-.83-.07h-.84a.18.18,0,0,1-.05.15,9.13,9.13,0,0,1-.27.89c-.28.62-.46,1.26-.74,1.88a4.68,4.68,0,0,0-.18.48c-.08.25-.2.48-.29.72s-.09.58-.21.85A10.62,10.62,0,0,0,83,7.73c0,.14-.13.25-.18.38a2.77,2.77,0,0,0-.09.33c0,.11-.16.49-.24.74-.15.42-.27.85-.44,1.26-.09.22-.15.45-.25.67m3.45,4.55c.44-1,.81-2.09,1.17-3.13,0-.12.1-.22.13-.34.25-.72.38-1.49.65-2.21.1-.28.25-.53.33-.82s.18-.52.24-.79.2-.71.28-1.08l.06-.16v.41a5.71,5.71,0,0,0,.06,1,5.36,5.36,0,0,0,.08.69c0,.24.09.47.11.71a6.25,6.25,0,0,1,0,.7c0,.49.09,1,.09,1.47,0,.19.06.37.06.56v.72a3.56,3.56,0,0,1,0,.73,4.78,4.78,0,0,0,.06.68,8.46,8.46,0,0,1,0,1v.51a5.93,5.93,0,0,0,0,.7v1.16c-.6-.07-1.2-.11-1.79-.18s-1.3-.17-2-.22h-.64c.23-.72.61-1.42.9-2.11"/><path class="cls-3" d="M97.52,29a2.56,2.56,0,0,1,.43.11.76.76,0,0,1,.33.05,1.14,1.14,0,0,0,.3.08,4.36,4.36,0,0,1,.71.16c.44.12.88.22,1.33.33s1,.27,1.43.36h.14v-2.3c0-.29.07-.73.07-1.1V24.75c0-.1.07-.73.07-.94v-.66c0-.22.09-1.6.14-2,.06-.6.08-1.23.15-1.82s.15-3.7.16-3.86,0-.71,0-.83v-.89c0-.18.09-1.43.09-1.54s.22-2.26.22-2.42a9,9,0,0,1,.12-1.15,10.46,10.46,0,0,0,.11-1.16c0-.26.07-.51.07-.77s.06-.52.06-.78V5.45c0-.32.06-.63.09-.95V3.74a2.61,2.61,0,0,0-.56-.08c-.73,0-1.18-.11-1.9-.16a6.17,6.17,0,0,1-1.15-.2,4.81,4.81,0,0,0-.65-.12A6.54,6.54,0,0,0,98.61,3a8.83,8.83,0,0,1-1.16-.16c-.06.82-.08,1.63-.1,2.44V7.13c0,.61-.05,1.13,0,1.7s.08,1.06.09,1.59a8.16,8.16,0,0,1-.06,1.34,13.16,13.16,0,0,0,0,1.54c0,.54-.06,1-.08,1.54V17.4c0,.85-.06,1.88-.1,2.82s-.13,1.63-.15,2.45S97,24.1,97,24.82a24.82,24.82,0,0,1-.1,2.77v1.32l.47.06"/><path class="cls-3" d="M168.21,93.45a14.43,14.43,0,0,1-1.54,1.13c-1.87,1.24-4,1.08-6,.55a14.24,14.24,0,0,1-2.41-.86,4.77,4.77,0,0,1-1.49-1.12l-.07-.08a9.9,9.9,0,0,1-2.87,2,6.33,6.33,0,0,1-1.73.55,10.07,10.07,0,0,1-2.49-.24,10.63,10.63,0,0,1-2.25-.81A4.42,4.42,0,0,1,146,93.52l-.07-.07a9.17,9.17,0,0,1-2.68,1.91,7.93,7.93,0,0,1-2.9.67l-.52.06a6.49,6.49,0,0,1-5-1.8l-.14-.15,0,.1a3.8,3.8,0,0,1-1.51.88c-.51.16-1,.44-1.52.56a6.43,6.43,0,0,1-2.69,0,8.17,8.17,0,0,1-1.16-.36c-.5-.18-1-.3-1.52-.52a4.44,4.44,0,0,1-1.16-.81,5.63,5.63,0,0,1-.42.39l-1.21,1a5.42,5.42,0,0,1-1.25.74,9.71,9.71,0,0,1-1.23.5,6.08,6.08,0,0,1-1.36.14,5,5,0,0,1-1.47-.06,14.24,14.24,0,0,1-2.95-1.19,5.31,5.31,0,0,1-1.57-1.31l-.17.15a7.82,7.82,0,0,1-1.25.95,6.43,6.43,0,0,1-1.11.51c-.39.12-.8.24-1.2.32s-1,0-1.43.07a4.69,4.69,0,0,1-1.42-.09,9.81,9.81,0,0,1-1.66-.28,8,8,0,0,1-1.44-.64,8.73,8.73,0,0,1-1.47-1.11,5.19,5.19,0,0,1-.39-.36c-.12.13-.36.45-.46.59a6,6,0,0,1-1.06,1,6.64,6.64,0,0,1-1.7,1,3.27,3.27,0,0,1-1.26.49,6.9,6.9,0,0,1-1.88-.33A7.57,7.57,0,0,1,94.36,96l-1.29-.55a4,4,0,0,1-1.52-1,2.34,2.34,0,0,1-.24-.3c-.28.21-.57.4-.85.59s-.8.56-1.22.8c-.21.11-.43.2-.64.33a1.36,1.36,0,0,1-.46.21c-.34.07-.66.2-1,.27s-.7.24-1.06.33a4,4,0,0,1-1.11.11H83.82a3.77,3.77,0,0,1-1-.25c-.2-.08-1.44-.53-1.64-.62l-1-.45-.56-.25a13.72,13.72,0,0,0-1.17.9c-.87.71-2.55,1-4.6.95a9.24,9.24,0,0,1-3.34-.92,7.94,7.94,0,0,1-1.39-.83c-.19-.15-.38-.27-.57-.41l-.47.28a7.63,7.63,0,0,1-1.09.63c-.39.17-.7.31-1,.41a9.69,9.69,0,0,1-1.06.28,4,4,0,0,1-1.93,0c-.41-.08-1-.35-1.45-.46a4.49,4.49,0,0,1-1.06-.44,4.91,4.91,0,0,1-1.15-.94,13.4,13.4,0,0,1-1.41,1,4.8,4.8,0,0,1-4.64.62,12.92,12.92,0,0,1-2.21-.8l-2.46-.71c-.75.8-.56,1.18-1.48,1.53a6.76,6.76,0,0,1-.93.2A5.66,5.66,0,0,1,43,96.34a5.94,5.94,0,0,1-2.67-1.78,7.28,7.28,0,0,1-.51-.76l-.3.27c-.37.3-.72.62-1.1.88a13.24,13.24,0,0,1-1.25.7,5.54,5.54,0,0,1-1.19.43h-.19a13.24,13.24,0,0,1-2.11.21,9.67,9.67,0,0,1-2.08-.48,5.52,5.52,0,0,1-2.3-1.57c-.19-.24-.21-.6-.37-.87l-.45.37a14.18,14.18,0,0,1-1.12.9,5.69,5.69,0,0,1-1.38.58c-.43.14-.85.26-1.28.38a7.32,7.32,0,0,1-3-.48,7.42,7.42,0,0,1-2.31-1.48l-.16-.17-.14.13a4.21,4.21,0,0,1-1.64,1c-.56.17-1.1.47-1.67.61a4.84,4.84,0,0,1-.64.11h-.27a7.91,7.91,0,0,1-2-.12,9.25,9.25,0,0,1-1.26-.4c-.56-.2-1.12-.33-1.66-.57a4.74,4.74,0,0,1-1.3-1l-.45.43c-.44.38-.88.74-1.33,1.1a6.06,6.06,0,0,1-1.37.8,9.35,9.35,0,0,1-1.33.56,6.29,6.29,0,0,1-1.49.15A5.3,5.3,0,0,1,1,96.22l-.53-.15v7.17l168.24-3.17V94c-.18-.16-.36-.33-.53-.51"/><path class="cls-3" d="M.5,123.92H5.74c1.94,0,3.88-.09,5.82-.15,1.44,0,2.88-.18,4.32-.23h1.25c1.31,0,2.62.06,3.93.08H27.4c1.57,0,3.14.14,4.71.16h.18c1.33,0,2.65-.12,4-.14.8,0,1.63-.05,2.44,0h1.05v-.19c1.38,0,2.76.13,4.14.15s2.46-.11,3.7-.14h.25c.78,0,1.67-.11,2.45-.1h.92c4.5.06,8.94.26,13.46.28h6.94c1.46,0,3,.09,4.54.1,2.49,0,5,0,7.46.1,5,.11,10-.17,15.06-.32,1.95-.06,3.89,0,5.84,0h13.59c2.35,0,4.7.06,7,0,2.14-.08,4.25,0,6.38.07,1.9,0,3.8-.1,5.7-.15,1.41,0,2.82-.17,4.24-.22,1.75-.06,3.5,0,5.26.06h7.2c0-.2,9.35-.34,14.09-.31h.69v-22.9H.5Zm152-19.25a1.87,1.87,0,0,1,1.43-1,1.81,1.81,0,0,1,1.87,2.59,1.89,1.89,0,0,1-1.67,1,1.81,1.81,0,0,1-1.63-2.62m-9.15,4h1a4,4,0,0,1,1,0,3,3,0,0,1,.65.71c.7,1,1.43,1.91,2.08,2.85a16.7,16.7,0,0,1-.06-3.59h2.29c-.11,2.21,0,4.62,0,6.89-.76-.17-1.43.23-2.11,0-.2-.06-.47-.56-.62-.77a12.5,12.5,0,0,0-1.84-2.29c0,1-.1,2-.09,3-.74,0-1.52,0-2.29.06.06-2.39-.08-4.67,0-7m-9,0c1.94,0,4.17,0,6.15.09v1.9c-1.24,0-2.42.05-3.68,0v.89c.75,0,1.5-.07,2.29-.06v1.28h-2.2a2.92,2.92,0,0,0-.06.83c1.06,0,2.53-.09,3.63-.09-.06.63-.06,1.23-.06,2-2.09,0-4.19,0-6.21.06.22-2.16,0-4.72.18-6.92m-10.11.06h2.41c-.06.85.12,1.75,0,2.58a18.63,18.63,0,0,0,2,0c.12-.8,0-1.81.09-2.64a22,22,0,0,0,2.41.06c0,2.22.2,4.52.09,6.89-.76-.07-1.69,0-2.55-.06v-2.49a16.68,16.68,0,0,0-2,0c-.12.82.06,1.75,0,2.52-.84,0-1.61.05-2.46,0-.1-2.36,0-4.59,0-7m-6.09-.24a4.1,4.1,0,0,1,3.36,1.34,11.33,11.33,0,0,1-1.31,1.37,1.84,1.84,0,0,0-1.58-.89c-1.43,0-2.26,2.63-1,3.33a2.36,2.36,0,0,0,2.58-.59,12.36,12.36,0,0,0,1.31,1.31,4.12,4.12,0,0,1-4.16,1.4,3.33,3.33,0,0,1-2.79-2.94,3.73,3.73,0,0,1,3.1-4.27l.47,0m-12.42.18c2.15,0,4.57,0,6.77.12v2a13.55,13.55,0,0,1-2,0c0,1.69-.13,3.39-.06,5h-2.8c.21-1.56.12-3.23.18-4.93H105.7c.06-.65,0-1.41,0-2.11m-5.2.18v-.09h2.38c.05,2.44-.08,4.57,0,6.86-.78.1-1.66-.07-2.44,0,.11-2.25,0-4.56,0-6.8m-9.84-.12c.85,0,1.59.05,2.41,0,.06,1,0,2.13.09,3.09.61-.85,1.26-2.12,1.9-3.09h2.76a30.31,30.31,0,0,1-2.17,2.73c.83,1.32,1.53,2.79,2.32,4.16H95.12c-.36-.8-.73-1.59-1.13-2.35-.3.31-.53.68-.83,1v1.39c-.91,0-1.6-.06-2.52,0,.07-2.38-.22-4.65,0-6.92m-14.17,0h.79v-.29a5.7,5.7,0,0,0,0-.6h1.36c.07,0,.11.11.18.13h0a.9.9,0,0,1,.25.37,1.06,1.06,0,0,1,0,.21h1a3.43,3.43,0,0,1,3,1.75,4.36,4.36,0,0,1-.77,4.64c-1.2,1-3.69.52-5.73.59,0-2.24-.31-4.44-.12-6.92m-8.65.8a3.2,3.2,0,0,1,.39-.32,2.83,2.83,0,0,1,.1-.74,1,1,0,0,1,1.16-.81h.19c.07,0,.12.12.15.18a1.13,1.13,0,0,1,.17.24,1.19,1.19,0,0,1,.07.38h0a4.64,4.64,0,0,1,2.58.59,3.42,3.42,0,0,1,1,1.07,4.43,4.43,0,0,1,.36,1.87,3.56,3.56,0,0,1-6,3,4.75,4.75,0,0,1-.83-1.33,4.18,4.18,0,0,1,.56-4.13m-8.11-.66a1,1,0,0,1,.05-.31,1.09,1.09,0,0,1,.13-.37.76.76,0,0,1,.23-.24.46.46,0,0,1,.24-.15c.28-.07.56-.15.79.06a2.18,2.18,0,0,1,.33.34.71.71,0,0,1,.11.26,4.68,4.68,0,0,1,2.18.88,2.64,2.64,0,0,1,.51.68,5.16,5.16,0,0,1,.74,2.23,4.18,4.18,0,0,1-.51,2.08,3.81,3.81,0,0,1-4.49,1.36,3.6,3.6,0,0,1-1.6-1.09,4.41,4.41,0,0,1-.33-1.43,4,4,0,0,1,1.82-3.94m-3.48-.1v1.9h-3.5c-.07.27,0,.68-.06,1h2a11.31,11.31,0,0,0,0,1.54h-2a23.49,23.49,0,0,0-.06,2.52H50.2c0-2.28.07-4.58,0-6.89,2.07,0,4.15-.06,6.15,0m-13.82-.06h2.7c.75,2.4,1.69,4.63,2.5,7-.87,0-1.66,0-2.5-.06-.11-.36-.23-.72-.33-1.1H42.47c-.19.33-.22.82-.41,1.13h-2.2a62.09,62.09,0,0,0,2.61-7m-10.87,0c1.94,0,4.18,0,6.15.09a15.14,15.14,0,0,1-.06,1.9c-1.23,0-2.41.05-3.65,0a5.29,5.29,0,0,1,0,.89c.75,0,1.5-.07,2.29-.06v1.28h-2.2a3,3,0,0,0-.06.86c1.12-.1,2.52-.09,3.63-.12-.07.66-.07,1.23-.09,2-2.08,0-4.18,0-6.18.06.21-2.16,0-4.78.18-6.92M24.3,113c-1-.27-2.13-.85-2.14-2a2.09,2.09,0,0,1,.59-1.37,4.05,4.05,0,0,1,2.47-1,5,5,0,0,1,3.42,1c-.26.51-.58,1-.86,1.46-.65-.3-1.62-1.16-2.7-.86-.23.06-.55.31-.53.56s.75.49,1.13.59a13,13,0,0,1,1.37.33c.7.28,1.59.84,1.69,1.72a2,2,0,0,1-.74,1.72c-1.46,1.24-4.58.59-6.24-.15a18.16,18.16,0,0,0,.92-1.63,5.13,5.13,0,0,0,2.64.8c.34,0,1-.09,1-.39.07-.64-1.54-.67-2-.8"/><path class="cls-3" d="M70.22,114a1.14,1.14,0,0,0,1.1-.42c.47-.71.3-2.7-.27-3.09a1.21,1.21,0,0,0-1,.12,3.52,3.52,0,0,0-.54,2.46,1.29,1.29,0,0,0,.71.92"/><path class="cls-3" d="M60.9,111.07h-.24c-.33.8-.14,2.62.36,2.95a1.22,1.22,0,0,0,1.55-1.28,9.64,9.64,0,0,0,0-1.34,1.2,1.2,0,0,0-.71-.92,1.06,1.06,0,0,0-.3,0,1,1,0,0,1-.65.56"/><path class="cls-3" d="M80.89,113.4a4,4,0,0,0,.12-.86c.1-.83.13-1.56-.42-1.84a6.13,6.13,0,0,0-1.43-.09c-.08,1.08-.07,2.33-.09,3.39.77,0,1.58-.1,1.81-.59"/><path class="cls-3" d="M43.69,111.6c-.18.62-.42,1.19-.59,1.81.35-.06.83,0,1.19-.06-.21-.58-.37-1.19-.59-1.75"/><path class="cls-3" d="M154.16,107a1.47,1.47,0,1,0-1.53-1.41,1.47,1.47,0,0,0,1.53,1.41h0m-.8-2.49c.79-.08,1.94,0,1.6.83a.41.41,0,0,1-.33.24c.3.14.35.53.36.95h-.51c-.05-.16,0-.4-.09-.56s-.29-.13-.48-.15a3.16,3.16,0,0,0,0,.71h-.53Z"/><path class="cls-3" d="M153.89,104.85v.53c.72.19.71-.72,0-.53"/><path class="cls-3" d="M70,108.12a1.11,1.11,0,0,0-.17-.24.26.26,0,0,0-.15-.18h-.16a1.07,1.07,0,0,0-.53,0,1,1,0,0,0-.66.78,2.83,2.83,0,0,0-.11.74,3.82,3.82,0,0,1,1.85-.71,1.28,1.28,0,0,0-.07-.38"/><path class="cls-3" d="M60.74,110.94a1,1,0,0,0-.09.17h.24a1,1,0,0,0,.65-.56,1.14,1.14,0,0,0-.8.43"/><path class="cls-3" d="M61.43,108.44h.19a.75.75,0,0,0-.11-.26,2.32,2.32,0,0,0-.33-.33c-.23-.21-.52-.13-.8-.07a.5.5,0,0,0-.24.16.71.71,0,0,0-.22.24c-.05.12-.09.25-.13.37a1,1,0,0,0-.05.31,3.42,3.42,0,0,1,.83-.34,3.24,3.24,0,0,1,.83-.09"/><path class="cls-3" d="M79.13,108.46a.92.92,0,0,0-.25-.37h0c-.07,0-.11-.09-.18-.12H77.35v.89h1.86a.92.92,0,0,0,0-.21"/></svg>