<svg id="Layer_1" data-name="Layer 1" xmlns="http://www.w3.org/2000/svg" viewBox="0 0 245.18 35.85"><defs><style>.cls-1{fill:#81b6bf;}.cls-2{fill:#97c2c7;}.cls-3{fill:#3b2912;}</style></defs><title>Caribou Coffee</title><path class="cls-1" d="M132.15,8.55H114.28l-3.54,18.82a3.38,3.38,0,0,0,1.84,3.9L122,35.06a2.57,2.57,0,0,0,1.9,0l9.86-3.79a3.37,3.37,0,0,0,1.88-3.91Z"/><polygon class="cls-1" points="197.74 20.96 202.13 20.96 202.13 18.92 197.74 18.92 197.74 17.11 202.13 17.11 202.13 14.85 195.45 14.85 195.45 25.21 197.74 25.21 197.74 20.96"/><polygon class="cls-1" points="182.38 20.96 186.76 20.96 186.76 18.92 182.38 18.92 182.38 17.11 186.76 17.11 186.76 14.85 180.08 14.85 180.08 25.21 182.37 25.21 182.38 20.96"/><path class="cls-1" d="M167.55,14.6A5.43,5.43,0,1,0,173,20h0A5.43,5.43,0,0,0,167.55,14.6Zm0,8.56A3.14,3.14,0,1,1,170.69,20h0a3.14,3.14,0,0,1-3.13,3.15h0Z"/><path class="cls-1" d="M153.91,21.62a3.15,3.15,0,1,1,0-3.18l1.72-1.5a5.43,5.43,0,1,0,0,6.25Z"/><polygon class="cls-1" points="218.01 22.95 213.24 22.95 213.24 20.96 218.01 20.96 218.01 18.92 213.24 18.92 213.24 17.11 218.01 17.11 218.01 14.85 210.95 14.85 210.95 25.21 218.01 25.21 218.01 22.95"/><polygon class="cls-1" points="234.13 22.95 229.36 22.95 229.36 20.96 234.13 20.96 234.13 18.92 229.36 18.92 229.36 17.11 234.13 17.11 234.13 14.85 227.07 14.85 227.07 25.21 234.13 25.21 234.13 22.95"/><path class="cls-2" d="M237,20.94l3.48.21-1.3.85a26.55,26.55,0,0,1-.29,3.3c-.77-1-.62-2.21-.68-3.35Z"/><path class="cls-2" d="M240.81,20.83q.9,1,1.79,2.1l2-2c0,1.47.39,3.14-.54,4.43q-.22-1.2-.42-2.4l-.92,1.38-1.09-1.4a6.57,6.57,0,0,1-.65,2.51A23.34,23.34,0,0,1,240.81,20.83Z"/><path class="cls-3" d="M126.56,22.76a.56.56,0,0,0,.35-.59.59.59,0,0,0-.07-.23h0c-.45-.82-1.46-2.41-4.45-1.41,0,0-5.62,1.83-5.8,4.56a42.61,42.61,0,0,0-13.22,9.25l3,.93a1.64,1.64,0,0,0,.5.08.86.86,0,0,0,.58-.27h0c5.27-5.77,10.12-9.68,19-12.28Z"/><path class="cls-3" d="M129.54,14.65a.17.17,0,0,0-.06-.12h0l-.29-.28a.78.78,0,0,1-.23-.56.74.74,0,0,1,.1-.37l.16-.27h0a.32.32,0,0,0,0-.16.34.34,0,0,0-.33-.34h-.11a6.12,6.12,0,0,1-1.12.23h0a12.3,12.3,0,0,1-3.38-.11c-6-1.16-6.89-4-6.66-5.25a2.37,2.37,0,0,1,.73-1.29c.83-.84,2.7-1.36,4.86-1.27a13.22,13.22,0,0,1,1.47.16h0a.23.23,0,0,0,.24-.11c.11-.25-.35-.43-.66-.68-.93-.74,1.45-1.25,1.57-1.54.18-.46-.94-.36-1.42-.65-.77-.47,1-1.23,1.19-1.34s0-.2-.11-.2c-5.29-.14-9.3,3.49-9.15,7.24.2,4,5.42,7.23,11.67,7.15a4.12,4.12,0,0,0,1.43-.16A.14.14,0,0,0,129.54,14.65Z"/><path class="cls-3" d="M131,17.11a.65.65,0,0,0-.57-.65l-6.71-.91h0a.23.23,0,0,0-.23.21h0v.13a1.41,1.41,0,0,0,1.16,1.39v.94h0a1.14,1.14,0,0,0,1.14,1.14h.13l4.31-.5h0a.64.64,0,0,0,.55-.5h0l.23-1.08h0A.65.65,0,0,0,131,17.11Z"/><path class="cls-3" d="M132.63,22.46a41.84,41.84,0,0,0-14.4,4.62.29.29,0,0,0-.16.29.65.65,0,0,0,.2.34c1,1.07,2.33,1.75,8-.61A2.15,2.15,0,0,0,127.76,25a18.88,18.88,0,0,1,4-.48c4.29-.08,5.87.6,8,.88h.2a.9.9,0,0,0,.74-.5l1.06-2.57A44.19,44.19,0,0,0,132.63,22.46Z"/><path class="cls-3" d="M50,17.13c2-.13,2.57-1,2.3-2.42s-2-1.86-3-1.67-1.8.68-1.79,1.62A2.3,2.3,0,0,0,50,17.13Z"/><path class="cls-3" d="M65.71,16.8a.39.39,0,0,1-.41-.5s2.12-4.68,2.27-5.14c.21-.75-.19-1.42-1.6-.93-3.27,1.16-8.74,13.67-12,13.5-2.4-.12-1.82-5.44-4.62-5.1-2.22.27-4,6-5.69,5.42-2.2-.75-2-3.51-2-5.27s.89-3.21-5.73-1.27a3.38,3.38,0,0,0-1.78-1.38c-.87-.26-1.76.21-3.32,1.72-1,1-.74,1.4,1.1,2.09-.37,1.17-2,4.55-4.74,4,0,0,1.07-3.1.86-4.64-.13-1-.46-1.39-1.43-1.51s-1.25.55-2.27.41c-.73-.1-.88-.9-2.68-.69A5.27,5.27,0,0,0,18,19.3,4.83,4.83,0,0,0,16.69,22c-1.51.74-7.76,2.27-10.24,0-2.18-2,.31-8.65,6.78-10.87,7.82-2.67,1.09,3.25,5.16,2.92.53-.06,1.36-1,1.49-1.14,5.77-6.23-7.54-7.07-15.59.44C-2.5,19.71.48,26.6,8.18,26.92c5.38.22,8.09-1.17,9.37-2,2.4,2.67,7.11.86,7.11.86a5.72,5.72,0,0,0,4,.73c5.06-1.06,6-5.75,6.59-6.31.37-.36,2.08-.3,2.08-.3A12.12,12.12,0,0,0,40,25.27a6.29,6.29,0,0,0,6,1.59c3.09-1,2.31-3.1,3.3-3.13,1.78-.06.24,2.93,5.1,3A10.18,10.18,0,0,0,60,24.81s.42,1,4.82,1S71.7,24,72.29,22.18C74.17,16.94,67.84,16.71,65.71,16.8ZM24.14,23.73A2.91,2.91,0,0,1,21,23.4a1.43,1.43,0,0,1-.49-1.9,2.36,2.36,0,0,1,3.59-.5C25,21.73,24.28,23.62,24.14,23.73Zm43.78-1.89c-1.22.76-3.9,1.94-5.47.49-1.29-1.19,1.84-3.6,4.77-3.37C69.76,19.15,69.14,21.07,67.92,21.84Z"/><path class="cls-3" d="M104.48,22.87c-.46,0-1.25.6-1.79.5s-1-1.88-.91-3.43c.1-1.34.23-2.44-1.46-2.45-3.94,0-2.13,6.21-5.87,6.13C91.23,23.56,93.68,17,91,16.7c0,0-1.62-.25-4.86,1.7-.58.35-.86.09-1-.17a4.86,4.86,0,0,0-5.28-1.91c-5,1.19-5.8,5.7-6.38,7.06-.36.83-1.58,1.23-1.73,1.69s.89,1.25,1.64,1.26,1.63-1.06,2.89-.83,3.1,2,6.06,1,3.75-4.56,3.75-4.56,2.54-2.42,3.31-1.43c.54.69-.16,3.38,1.23,4.73.78.76,3.43,1.41,5.4,1.12a4.58,4.58,0,0,0,3.35-1.77,3,3,0,0,0,2.88.77,4,4,0,0,0,3.14-2C105.41,23.16,104.95,22.84,104.48,22.87ZM82.55,21.59c-.51,1.61-3.76,4.23-4.68,1.06s1.83-4.34,3-4.08a2.18,2.18,0,0,1,1.68,3Z"/></svg>