<svg id="Layer_1" data-name="Layer 1" xmlns="http://www.w3.org/2000/svg" viewBox="0 0 181 64.05"><defs><style>.cls-1{fill:#e71231;}.cls-2{fill:#fff;}.cls-3{fill:#ffc600;}</style></defs><title>Carl&amp;apos;s Jr.</title><path class="cls-1" d="M180.5,37.14v2.6a3.12,3.12,0,0,0-.16.42,6.92,6.92,0,0,1-3.22,4.72,7.62,7.62,0,0,1-6.35.54,1.19,1.19,0,0,0-1.27.28,83.12,83.12,0,0,1-16.33,11,62.53,62.53,0,0,1-26.67,6.83c-3.17.08-6.34-.1-9.51-.22a82.57,82.57,0,0,1-16.62-2.42,84.9,84.9,0,0,0-19-2.54,100.09,100.09,0,0,0-15.16.83c-3.72.5-7.42,1.17-11.13,1.81-1,.18-2,.54-3.06.82-.15-1.21-.28-2.37-.45-3.51a15.32,15.32,0,0,0-3.35-7.82,1.53,1.53,0,0,0-1.33-.62,22.1,22.1,0,0,1-9.31-1.55.64.64,0,0,0-.22,0,16,16,0,0,1-.22,2.2,5.29,5.29,0,0,1-4.08,4.25,5.21,5.21,0,0,1-5.67-2q-3.57-4.64-7.06-9.34a.79.79,0,0,0-1.07-.33h0c-3.65,1.3-7.31,2.57-11,3.84a5.49,5.49,0,0,1-6.53-2.38A5.83,5.83,0,0,1,2.19,38c2.08-3.09,4.2-6.14,6.33-9.19a.81.81,0,0,0,0-1.13c-2.28-3-4.56-6.05-6.77-9.12a5.6,5.6,0,0,1,3.17-9,6.81,6.81,0,0,1,3.57.33q5.08,1.5,10.13,3.09a.86.86,0,0,0,1.16-.37v0c2-2.93,4-5.81,6-8.76a6.83,6.83,0,0,1,4-3.12A1,1,0,0,0,30.07.5h2.06l1,.44A5.79,5.79,0,0,1,36.68,6.6q.07,3.87.13,7.74a8.26,8.26,0,0,0,.05,1c.62-.72,1.1-1.33,1.64-1.9C44.69,6.9,52.28,4.54,61,6.38c4.31.91,7.94,3.08,9.4,7.74h0a30,30,0,0,1,8.24.4,1.49,1.49,0,0,0,.58-.24,15.61,15.61,0,0,1,2.69-1.59A14.38,14.38,0,0,1,95,14.26l.26.14c.82-1.37,1.55-2.74,2.43-4a5.32,5.32,0,0,1,3.45-2.18,26.53,26.53,0,0,1,6.75-.34,1.79,1.79,0,0,0,.83-.28,10.31,10.31,0,0,1,1.91-1,12,12,0,0,1,5.09-.14c2.21.39,3.46,1.53,3.8,3.56a11.17,11.17,0,0,1,.07,2.45,15.93,15.93,0,0,1-.34,2.4,13.6,13.6,0,0,1,6.6,5l.44-1a21,21,0,0,1,5.38-7.5c4.26-3.73,9.38-5.28,14.9-5.54,3.07-.14,6.16,0,9.24.12a12.37,12.37,0,0,1,5.09,1.21,4.21,4.21,0,0,1,2.46,3.32,9.9,9.9,0,0,1,0,2c0,.42,0,.58.49.68a23.07,23.07,0,0,1,3.27,1,9.76,9.76,0,0,1,6.5,7.58,15.4,15.4,0,0,1-.4,6.51c-.12.5,0,.67.42.88a19.47,19.47,0,0,1,2,1.24A11.07,11.07,0,0,1,180,35.53C180.17,36.05,180.33,36.6,180.5,37.14ZM58.08,38.34A4.3,4.3,0,0,0,63,40.47a10.48,10.48,0,0,0,4.12-1.93l.63-.44a2.56,2.56,0,0,0,2,2.23,7.18,7.18,0,0,0,2.36.15,5.94,5.94,0,0,0,3.55-1.94,45.7,45.7,0,0,0,4-4.61A61.89,61.89,0,0,0,85.5,23.56c.11-.23.31-.56.49-.57.78-.06,1.57,0,2.44,0-.12.35-.2.58-.29.81-1.38,3.65-2.78,7.29-4.12,11a10.08,10.08,0,0,0-.59,2.72,2.58,2.58,0,0,0,2.08,2.9,6.31,6.31,0,0,0,2.3.13,11,11,0,0,0,5-2.63l.6-.44c.21,2.09,1.14,3,3.13,3.15a6.89,6.89,0,0,0,4.15-1.16c.87-.52,1.68-1.14,2.53-1.73a4.21,4.21,0,0,0,3.39,2.66,11.49,11.49,0,0,0,2.65.21c4.61-.14,7.82-2.38,9.21-6.45.19-.55.49-.67,1-.8a23.17,23.17,0,0,0,3.82-1.23,3.25,3.25,0,0,0,1.28-1.51c.3-.59-.11-1-.76-.82a7.13,7.13,0,0,0-1.08.43,9,9,0,0,1-3.42.76l-.81-11.68h-4a1.23,1.23,0,0,0-1.19.67q-5,7.25-10.14,14.46a9.81,9.81,0,0,1-3.53,3,4.32,4.32,0,0,1-1,.25,8.06,8.06,0,0,1,.1-1,1.16,1.16,0,0,1,.09-.26l8.65-22.71c.09-.24.15-.49.25-.81H103.1a.87.87,0,0,0-1,.69Q98.43,23.3,94.72,33a2,2,0,0,1-.48.89c-1.6,1.24-3.23,2.45-4.87,3.65a4.4,4.4,0,0,1-1,.36c.15-.56.21-.91.33-1.24Q91.07,30.33,93.45,24a8.86,8.86,0,0,0,.45-1.58,2,2,0,0,0-2-2.51c-.93-.05-1.87,0-2.81,0H87a14.28,14.28,0,0,0,.22-1.71,1.7,1.7,0,0,0-2.49-1.79,3.94,3.94,0,0,0-1.28.77,5.27,5.27,0,0,0-1.71,3.34,1.93,1.93,0,0,0,1,2.29,1.79,1.79,0,0,1-.05.23A45.79,45.79,0,0,1,76,35a30.47,30.47,0,0,1-2.3,2.44,3.58,3.58,0,0,1-.78.46l-.18-.13A8.85,8.85,0,0,1,73,36.66q2.1-5.75,4.23-11.5a6.47,6.47,0,0,0,.18-.63H72.81a.87.87,0,0,0-1,.68c-1,2.92-2.11,5.84-3.18,8.75a2.64,2.64,0,0,1-.39.79,10.58,10.58,0,0,1-3.36,2.77c-1.19.6-1.94.13-1.76-1.19a20.34,20.34,0,0,1,5.24-11.67,6.66,6.66,0,0,1,5.93-2.21c.83.1,1.65.26,2.53.4l.4-1c.7-1.79.71-1.85-1.22-2.3a12.77,12.77,0,0,0-11.5,2.6,19,19,0,0,0-6.41,11,6.58,6.58,0,0,1-2,3.64,23.76,23.76,0,0,1-3.18,2.57,8.88,8.88,0,0,1-5.77,1.58,4.22,4.22,0,0,1-3.94-3.17,11.5,11.5,0,0,1-.45-4.94,31.64,31.64,0,0,1,5.08-13,17.11,17.11,0,0,1,4.31-4.73,7.44,7.44,0,0,1,3.71-1.47A2.7,2.7,0,0,1,59,16.23,3.63,3.63,0,0,1,58,19l-.63.75h5a1.37,1.37,0,0,0,.76-.39,4.25,4.25,0,0,0,.48-5.77A6.33,6.33,0,0,0,60,11.37a15.78,15.78,0,0,0-10.73,1.3,22.25,22.25,0,0,0-9.73,9.81,24,24,0,0,0-3.38,13.29c.23,3.4,1.61,6.14,4.9,7.54a13.06,13.06,0,0,0,8.39.61A16,16,0,0,0,58.08,38.34ZM37.79,23.56,37,23.29c-1.27-.39-2.53-.8-3.8-1.15a.84.84,0,0,1-.72-.95v-.05c-.06-4.59-.15-9.17-.23-13.76a2.39,2.39,0,0,0-.08-.88c-.13-.3-.36-.7-.63-.77a1.5,1.5,0,0,0-1,.3c-.2.12-.31.39-.45.59-2.61,3.8-5.23,7.59-7.82,11.41a.88.88,0,0,1-1.17.42c-4.23-1.31-8.47-2.59-12.7-3.87a6.94,6.94,0,0,0-1.2-.27.8.8,0,0,0-.92,1,2.41,2.41,0,0,0,.43.84Q10.83,21.74,15,27.3a.85.85,0,0,1,0,1.19q-4,5.7-7.89,11.44c-.33.49-.7,1.05-.26,1.63s1,.27,1.57.09c4.35-1.52,8.71-3,13-4.58a.84.84,0,0,1,1.14.34h0q3.64,4.93,7.33,9.82c.45.6.91,1.2,1.41,1.76a.82.82,0,0,0,1.46-.31,2.43,2.43,0,0,0,.08-.81q-.1-6.33-.22-12.66c0-.66-.22-1.49.09-1.93s1.17-.6,1.81-.83a.93.93,0,0,0,.71-.86,26.94,26.94,0,0,1,2.08-7.14ZM156.32,11.22l-.43-.06c-3.24,0-6.49-.08-9.72.11a18.38,18.38,0,0,0-11.09,4.35,10.94,10.94,0,0,0-3.86,6.07,5.27,5.27,0,0,0,1.57,5.49,1.23,1.23,0,0,0,.63.37h3.34a17.09,17.09,0,0,1-.63-2.78c-.35-6.16,4.67-12,13-11.24a2.07,2.07,0,0,1-.07.32l-6.55,17.06a.91.91,0,0,1-.64.44c-1.22.17-2.45.25-3.67.42A25.1,25.1,0,0,0,130.11,34,10.78,10.78,0,0,0,127.19,36a4.65,4.65,0,0,0,.9,7.33,9.34,9.34,0,0,0,5,1.58,12.89,12.89,0,0,0,9.44-3.68,22.48,22.48,0,0,0,5.12-7.54,1.47,1.47,0,0,1,1.17-1,14.67,14.67,0,0,0,5-2.11,15.45,15.45,0,0,0,5.71-7.1c.1-.23.28-.58.45-.59.76-.06,1.52,0,2.35,0-.1.31-.16.5-.23.69-1.36,3.59-2.75,7.16-4.05,10.76a11.77,11.77,0,0,0-.69,3.18,2.64,2.64,0,0,0,2.32,2.85,5.63,5.63,0,0,0,3.49-.35A20.16,20.16,0,0,0,170,34.72a2.62,2.62,0,0,0,.53-1,2.2,2.2,0,0,0,0-1,.5.5,0,0,0-.83-.35,9.14,9.14,0,0,0-.84.7c-1.72,1.39-3.44,2.78-5.18,4.14a6,6,0,0,1-1.18.57l-.18-.15a8.89,8.89,0,0,1,.26-1.08l4.69-12.42a9.24,9.24,0,0,0,.47-1.57c.31-1.71-.49-2.69-2.24-2.72h-4.67c.09-.43.18-.78.22-1.14a2.14,2.14,0,0,0-.67-2.18,2.06,2.06,0,0,0-2.33.09,4.9,4.9,0,0,0-2.32,3.17c-.49,1.77-.16,2.46,1.45,3.21-1.21,3.52-5.39,7.24-8.28,7.35Zm-62.11,35a5.66,5.66,0,0,0,.54.21c1.34.38,2.67.77,4,1.13a163.68,163.68,0,0,0,21.17,3.85,70.71,70.71,0,0,0,17.06.16,59.86,59.86,0,0,0,18.9-5.4c.23-.11.46-.24.75-.4a12.59,12.59,0,0,1-5-6.87c-.92,1.2-1.75,2.34-2.64,3.43a20.35,20.35,0,0,1-7.23,6,19.39,19.39,0,0,1-10.18,1.38,17.78,17.78,0,0,1-6.78-2A7.84,7.84,0,0,1,121,43.89c-.2-.47-.32-1-.51-1.57-1,1.93-2.77,2.64-4.61,3.12a27.94,27.94,0,0,1-4,.73,87.31,87.31,0,0,1-13.2.09C97.21,46.16,95.73,46.22,94.21,46.22Zm78.48-5.63a2.62,2.62,0,0,0,2.55-2.6,2.11,2.11,0,0,0-2.11-2.11h0a2.66,2.66,0,0,0-2.6,2.57,2.11,2.11,0,0,0,2.08,2.14Zm-61-30.66c.61,2.51.61,2.51-.89,4.65a.61.61,0,0,0,.42,1,2.91,2.91,0,0,0,1.32-.19A4.61,4.61,0,0,0,115,10.51c-.08-.4-.26-.6-.68-.6Zm3.22,48.82c1.28.05,2.51.15,3.72.12a1.14,1.14,0,0,0,.79-.71c.08-.29-.17-.68-.3-1,0-.09-.13-.15-.2-.22h.22a3.36,3.36,0,0,0,.4-1.17c0-.55-.55-.75-1-.82-.86-.12-1.72-.22-2.59-.27a.7.7,0,0,0-.56.38c-.17,1.18-.28,2.36-.43,3.69Zm-51-9.43a4.53,4.53,0,0,0-3.25.14,2.35,2.35,0,0,0-1.26,2.59,2.2,2.2,0,0,0,2,1.82,4.73,4.73,0,0,0,3.07-.76l-.76-1v.21a11.14,11.14,0,0,1-1.91.45,1.07,1.07,0,0,1-1.17-1v0a1.09,1.09,0,0,1,.82-1.31h0a12.94,12.94,0,0,1,2.14-.12ZM84.5,51.5c.76-1.08.52-1.66-.69-1.81-.78-.09-1.57-.12-2.33-.17l-.19,3.74a18.83,18.83,0,0,0,2.34.12,1.85,1.85,0,0,0,1.21-.54C85.14,52.42,84.95,51.9,84.5,51.5ZM65.45,49.64l.22,3.91,1-.13c0-1.74.25-1.93,1.79-1.58l.14,1.41h1l-.24-3.86-.89.09c-.36.5.39,1.21-.5,1.37-.42.08-1,.19-1.25,0s-.22-.77-.32-1.21ZM79,51.81c.21-.17.37-.27.5-.39A1.11,1.11,0,0,0,79,49.49a24.51,24.51,0,0,0-2.85-.18v3.74h.92a5.7,5.7,0,0,1,0-.86c0-.17.15-.46.25-.46a1.06,1.06,0,0,1,.66.19.94.94,0,0,1,.3.53c.19.8.73.78,1.41.63Zm10.86,2.13-.61-1.32.36-.22a1.08,1.08,0,0,0,.59-1.2,1,1,0,0,0-.91-.89c-.89-.14-1.79-.24-2.68-.36l-.35,3.67.92.1.21-1.26a.79.79,0,0,1,1.09.72c.12.77.59.87,1.35.75Zm18.42,3.72,1.4.26q.5.1,1,.15a1.57,1.57,0,0,0,1.72-1.4h0a1.52,1.52,0,0,0-.93-1.94l-.23-.06c-.57-.14-1.17-.21-1.75-.34s-.63,0-.7.47c-.17.94-.36,1.88-.54,2.86ZM93.41,54.55a1.78,1.78,0,0,0,2-1.8,2.1,2.1,0,0,0-2.26-1.92h0a1.77,1.77,0,0,0-2,1.85c0,1.08.92,1.86,2.28,1.86Zm35.49,3.5a2.16,2.16,0,0,1,.26-.22,1,1,0,0,0-.49-1.87h-2.58v3.3h1a2.86,2.86,0,0,1,0-.66c0-.2.16-.53.25-.53a1.65,1.65,0,0,1,.72.22.49.49,0,0,1,.19.27c.27.77.83.72,1.52.59Zm-25.57-1.43,3.58.8.14-.65c-.75-.16-1.44-.29-2.12-.47-.14,0-.34-.36-.3-.45a.65.65,0,0,1,.48-.36,8.68,8.68,0,0,1,1.26.26c.27-.41.16-.63-.3-.72a2.92,2.92,0,0,1-.73-.18c-.17-.08-.28-.27-.42-.41.19-.1.4-.29.57-.27.67.11,1.33.28,2.06.45l.13-.64-3.53-.8ZM70.6,53.05l.11.2c.27-.09.72-.12.78-.29.36-1,1.16-.54,1.76-.57.27,0,.55.38.83.58l-.08.09h1l-1.72-3.72a5.48,5.48,0,0,0-.84,0,.68.68,0,0,0-.54.25C71.45,50.74,71,51.89,70.6,53.05Zm73,2.94.23-.08c.07-.43.29-.93.15-1.27a1.24,1.24,0,0,0-1-.55,24.37,24.37,0,0,0-2.73.53l.85,3.07.93-.2-.24-1.07a.78.78,0,0,1,1.26.22c.46.66,1,.44,1.54.18Zm-10.75,1.19c0,.46,0,.44.46.49a1.54,1.54,0,0,1,.44.2c-.12.14-.21.32-.36.4a1.39,1.39,0,0,1-.6.09,1,1,0,1,1-.15-2h.06a10,10,0,0,1,1.33.09l.18-.67a4.26,4.26,0,0,0-2.88.29,1.47,1.47,0,0,0-.7,1.65A1.38,1.38,0,0,0,131.84,59a4.41,4.41,0,0,0,3-.58c-.19-1.32-.19-1.32-2-1.2Zm-12.11-1.37V57.9a1.21,1.21,0,0,0,1,1.26,4.38,4.38,0,0,0,1.29.09,1.4,1.4,0,0,0,1.44-1.51c0-.58.05-1.17.08-1.77H123.5v1.79c0,.59-.33.81-.88.8s-.84-.25-.82-.85,0-1.21,0-1.86Zm19,1.57c-.75.12-1.46.26-2.18.33-.14,0-.3-.23-.45-.35.12-.13.21-.34.35-.38a11.28,11.28,0,0,1,1.14-.2c.06,0,.11-.06.19-.12l-.17-.47a10.39,10.39,0,0,1-1.2.17c-.17,0-.35-.15-.53-.23.14-.13.26-.34.42-.38.66-.14,1.34-.23,2.05-.35l-.09-.59-3.6.58c.17.92.33,1.75.47,2.58.07.42.25.59.69.5.83-.16,1.66-.29,2.5-.42.4-.06.57-.24.41-.69ZM147.87,55v.22c-.63.61-1.5.5-2.33.6l.07.73c.94-.27,1.81-.48,2.66-.78a.75.75,0,0,0,.53-.92l0-.08a1.37,1.37,0,0,0-.91-.53,4.81,4.81,0,0,0-1.15.11h-.82c.49-.83,1.27-.74,2-.81v-.63a4.44,4.44,0,0,0-.84.09,7.82,7.82,0,0,0-1.76.67,1.1,1.1,0,0,0-.34,1c.06.22.54.45.85.47a8,8,0,0,0,1.35-.15,3.62,3.62,0,0,1,.72,0ZM99,55.59l3.41.78.16-.76c-.67-.16-1.27-.31-1.87-.43-.41-.08-.51-.28-.41-.68.18-.7.33-1.41.5-2.16l-1-.25ZM44.61,28.76l.17.12a14.85,14.85,0,0,0,2.07-.83,1.41,1.41,0,0,0,.61-1c0-.26-.42-.59-.72-.78A4.54,4.54,0,0,0,45.65,26ZM97.33,55.24l.64-3.5-1-.21-.67,3.52Z"/><path class="cls-2" d="M58.08,38.34a16,16,0,0,1-8.7,5.59A13.06,13.06,0,0,1,41,43.32c-3.3-1.4-4.68-4.14-4.9-7.54a24,24,0,0,1,3.41-13.3,22.25,22.25,0,0,1,9.82-9.81,15.78,15.78,0,0,1,10.73-1.3,6.33,6.33,0,0,1,3.68,2.23,4.25,4.25,0,0,1-.48,5.77,1.37,1.37,0,0,1-.76.39h-5l.63-.75a3.63,3.63,0,0,0,.94-2.78,2.7,2.7,0,0,0-2.77-2.63l-.35,0a7.44,7.44,0,0,0-3.71,1.47,17.11,17.11,0,0,0-4.31,4.73,31.64,31.64,0,0,0-5.08,13,11.5,11.5,0,0,0,.45,4.94,4.22,4.22,0,0,0,3.94,3.17A8.88,8.88,0,0,0,53,39.36a23.76,23.76,0,0,0,3.18-2.57,6.58,6.58,0,0,0,2-3.64,19,19,0,0,1,6.41-11,12.77,12.77,0,0,1,11.55-2.72c1.93.45,1.92.51,1.22,2.3l-.4,1c-.87-.14-1.69-.3-2.53-.4a6.66,6.66,0,0,0-5.93,2.21,20.34,20.34,0,0,0-5.24,11.67c-.17,1.32.57,1.79,1.76,1.19a10.58,10.58,0,0,0,3.36-2.77,2.64,2.64,0,0,0,.39-.79C69.84,30.93,70.91,28,72,25.09a.87.87,0,0,1,1-.68h4.61c-.08.27-.12.45-.18.63l-4.23,11.5a8.85,8.85,0,0,0-.25,1.07l.18.13a3.58,3.58,0,0,0,.78-.46,30.47,30.47,0,0,0,2.3-2.44,45.79,45.79,0,0,0,6.67-11.9,1.79,1.79,0,0,0,.05-.23,1.93,1.93,0,0,1-1-2.29,5.27,5.27,0,0,1,1.71-3.34,3.94,3.94,0,0,1,1.28-.77,1.7,1.7,0,0,1,2.49,1.79,14.28,14.28,0,0,1-.22,1.71H92a2,2,0,0,1,2,2.51,8.86,8.86,0,0,1-.45,1.58q-2.37,6.31-4.75,12.62c-.12.33-.18.68-.33,1.24a4.4,4.4,0,0,0,1-.36c1.64-1.2,3.27-2.4,4.87-3.65a2,2,0,0,0,.48-.89q3.7-9.69,7.38-19.38a.87.87,0,0,1,1-.69h4.63c-.1.32-.16.57-.25.81L99,36.31a1.16,1.16,0,0,0-.09.26c0,.34-.07.68-.1,1a4.32,4.32,0,0,0,1-.25,9.81,9.81,0,0,0,3.53-3q5.1-7.21,10.14-14.46a1.23,1.23,0,0,1,1.19-.67h4l.79,11.63a9,9,0,0,0,3.42-.76,7.13,7.13,0,0,1,1.08-.43c.65-.17,1.06.23.76.82A3.25,3.25,0,0,1,123.41,32a23.17,23.17,0,0,1-3.82,1.23c-.51.13-.81.24-1,.8-1.39,4.06-4.6,6.31-9.21,6.45a11.49,11.49,0,0,1-2.65-.21,4.21,4.21,0,0,1-3.39-2.66c-.86.59-1.67,1.21-2.53,1.73a6.89,6.89,0,0,1-4.15,1.16c-2-.16-2.92-1.06-3.13-3.15l-.6.44a11,11,0,0,1-5,2.63,6.31,6.31,0,0,1-2.3-.13,2.58,2.58,0,0,1-2.08-2.9,10.08,10.08,0,0,1,.59-2.72c1.34-3.67,2.74-7.31,4.12-11,.09-.23.16-.46.29-.81H86.11c-.18,0-.38.34-.49.57a61.89,61.89,0,0,1-5.83,10.37,45.7,45.7,0,0,1-4,4.61,5.94,5.94,0,0,1-3.55,1.94,7.18,7.18,0,0,1-2.36-.15,2.56,2.56,0,0,1-2-2.23l-.63.44a10.48,10.48,0,0,1-4.12,1.93A4.3,4.3,0,0,1,58.08,38.34Zm55-4.8c-1.5.05-2.88-.13-4.17.46a3.12,3.12,0,0,0-2,2.91,1.38,1.38,0,0,0,1.27,1.48h0a3.3,3.3,0,0,0,2.5-.72A7.91,7.91,0,0,0,113,33.53ZM108.5,31.4c1.52-.07,3-.16,4.52-.19.46,0,.66-.14.67-.61.06-2.14.14-4.28.21-6.42a2,2,0,0,0-.1-.44Z"/><path class="cls-3" d="M37.79,23.56l-.43,1a26.94,26.94,0,0,0-2.08,7.14.93.93,0,0,1-.71.86c-.64.23-1.48.36-1.81.83s-.1,1.27-.09,1.93q.1,6.33.22,12.66a2.43,2.43,0,0,1-.08.81.82.82,0,0,1-1.46.31,17.82,17.82,0,0,1-1.41-1.76q-3.68-4.9-7.33-9.82a.84.84,0,0,0-1.13-.35h0c-4.34,1.54-8.7,3.06-13,4.58-.53.19-1.12.5-1.57-.09s-.07-1.15.26-1.63Q11.09,34.3,15,28.59a.85.85,0,0,0,0-1.19q-4.17-5.56-8.29-11.15a2.41,2.41,0,0,1-.43-.84.8.8,0,0,1,.92-1,6.94,6.94,0,0,1,1.2.27c4.24,1.28,8.48,2.56,12.7,3.87a.88.88,0,0,0,1.17-.42c2.59-3.81,5.21-7.61,7.82-11.41.14-.21.25-.48.45-.59a1.5,1.5,0,0,1,1-.3c.27.08.5.47.63.77a2.39,2.39,0,0,1,.08.88c.08,4.59.18,9.17.23,13.76a.84.84,0,0,0,.66,1h.05c1.28.35,2.54.76,3.8,1.15ZM25.17,33.05a6.11,6.11,0,0,1-4.9-2.93c-.27-.44-.54-.86-.09-1.36.09-.1,0-.39-.06-.54s-.33,0-.48,0a8.1,8.1,0,0,0-1.11.52.77.77,0,0,0-.35.44c0,.09.21.23.33.35a4.87,4.87,0,0,1,.7.72c.42.65.71,1.39,1.18,2A5,5,0,0,0,27,33.74c.41-.2.79-.47,1.22-.63a9.11,9.11,0,0,1,1.13-.24.87.87,0,0,0,.46-.2.49.49,0,0,0,0-.43,10.56,10.56,0,0,0-.68-1.1c-.08-.11-.28-.25-.37-.22s-.34.25-.32.36c.08.74-.46,1-1,1.12C26.72,32.67,25.94,32.84,25.17,33.05Zm2.91-6.78c-.47-.14-.8,0-.87.47a.74.74,0,0,0,.51.91l.15,0a3.07,3.07,0,0,1,1.82.81c.08.07.22.16.3.13.3-.09.59-.22.89-.34a4.68,4.68,0,0,0-.28-.68c-.16-.27-.41-.49-.56-.77a1.2,1.2,0,0,0-1.3-.67Zm-6.58-.58v-.1l.68.26a4.72,4.72,0,0,0,.62.27.77.77,0,0,0,1-.47l0-.05c.18-.44-.1-.61-.43-.78a1.59,1.59,0,0,1-.43-.33,1.42,1.42,0,0,0-1.58-.32,4.34,4.34,0,0,0-.84.27,4.21,4.21,0,0,0-.66.53c.21.25.37.6.63.71A2.71,2.71,0,0,0,21.5,25.69Zm4.23,4c.11-.07.49-.17.58-.39s-.13-.55-.31-.75a2.9,2.9,0,0,0-2.3-.81.8.8,0,0,0-.58.37c-.06.12.09.43.23.58a3.44,3.44,0,0,0,2.4,1ZM32.11,25a1,1,0,0,0-.1-.26,1.93,1.93,0,0,0-2.32-.11.53.53,0,0,0,.12.5,12.3,12.3,0,0,0,1.47.5.65.65,0,0,0,.85-.66Zm-11-3.79c-.12.11-.44.29-.43.45a1,1,0,0,0,.38.74,8.35,8.35,0,0,0,1.52.49c.09,0,.28,0,.3-.07s.1-.38,0-.5a2.47,2.47,0,0,0-1.76-1.14Z"/><path class="cls-2" d="M156.32,11.22,149,30.29c2.89-.11,7.07-3.83,8.28-7.35-1.6-.74-1.93-1.44-1.45-3.21a4.9,4.9,0,0,1,2.32-3.17,2.06,2.06,0,0,1,2.33-.09,2.14,2.14,0,0,1,.67,2.18,6.87,6.87,0,0,1-.22,1.14h4.67c1.74,0,2.55,1,2.24,2.72a9.24,9.24,0,0,1-.47,1.57L162.66,36.5a8.89,8.89,0,0,0-.26,1.08l.18.15a6,6,0,0,0,1.18-.57c1.74-1.36,3.46-2.75,5.18-4.14a9.14,9.14,0,0,1,.84-.7.5.5,0,0,1,.83.35,2.2,2.2,0,0,1,0,1,2.62,2.62,0,0,1-.53,1A20.16,20.16,0,0,1,163.22,40a5.63,5.63,0,0,1-3.49.35,2.64,2.64,0,0,1-2.32-2.85,11.77,11.77,0,0,1,.69-3.18c1.31-3.6,2.69-7.18,4.05-10.76.07-.19.13-.38.23-.69H160c-.17,0-.36.36-.45.59a15.45,15.45,0,0,1-5.71,7.1,14.67,14.67,0,0,1-5,2.11,1.47,1.47,0,0,0-1.17,1,22.48,22.48,0,0,1-5.12,7.54,12.89,12.89,0,0,1-9.44,3.68,9.34,9.34,0,0,1-5-1.58,4.65,4.65,0,0,1-.9-7.33,10.78,10.78,0,0,1,2.92-2.09,25.1,25.1,0,0,1,8.09-2.18c1.22-.17,2.45-.25,3.67-.42a.91.91,0,0,0,.64-.44q3.3-8.52,6.55-17.06a2.07,2.07,0,0,0,.07-.32c-8.3-.71-13.32,5.08-13,11.24a17.09,17.09,0,0,0,.63,2.78h-3.34a1.23,1.23,0,0,1-.63-.37,5.27,5.27,0,0,1-1.57-5.49,10.94,10.94,0,0,1,3.86-6.07,18.38,18.38,0,0,1,11.09-4.35c3.23-.19,6.48-.09,9.72-.11ZM141.43,33.67c-.94.12-1.75.21-2.55.34a15.43,15.43,0,0,0-5.69,1.83,4.33,4.33,0,0,0-2.08,2.53c-.71,2.53,1.16,4.53,3.69,3.84a5.81,5.81,0,0,0,2.39-1.36c2-1.95,3.05-4.54,4.24-7.18Z"/><path class="cls-2" d="M172.69,40.59a2.11,2.11,0,0,1-2.19-2s0-.07,0-.11a2.66,2.66,0,0,1,2.59-2.57A2.11,2.11,0,0,1,175.23,38v0A2.62,2.62,0,0,1,172.69,40.59Z"/><path class="cls-2" d="M111.74,9.93h2.64c.41,0,.59.19.68.6a4.61,4.61,0,0,1-2.47,4.88,2.91,2.91,0,0,1-1.32.19.61.61,0,0,1-.42-1C112.35,12.44,112.35,12.44,111.74,9.93Z"/><path class="cls-3" d="M115,58.75c.15-1.33.26-2.51.43-3.68a.7.7,0,0,1,.56-.38,19,19,0,0,1,2.59.27c.5.07,1,.26,1,.82a3.36,3.36,0,0,1-.4,1.17h-.22c.07.07.17.14.2.22.13.34.38.73.3,1a1.14,1.14,0,0,1-.79.71C117.5,58.9,116.25,58.81,115,58.75Zm2.44-.6a1.13,1.13,0,0,0,.47,0,3.32,3.32,0,0,0,.59-.42c-.18-.17-.32-.43-.53-.49a4.28,4.28,0,0,0-1.27-.14c-.14,0-.35.26-.37.42a.61.61,0,0,0,.25.51,3.08,3.08,0,0,0,.86.12Zm-.77-2.63-.21.16c.11.21.18.55.34.6a4.15,4.15,0,0,0,1.28.13c.14,0,.28-.23.42-.35-.11-.12-.21-.32-.35-.35-.5-.09-1-.12-1.48-.18Z"/><path class="cls-3" d="M63.93,49.32l-.37,1a12.94,12.94,0,0,0-2.14.12,1.09,1.09,0,0,0-.84,1.29v0a1.07,1.07,0,0,0,1.13,1h0a11.14,11.14,0,0,0,1.91-.45v-.25l.76,1a4.73,4.73,0,0,1-3.07.76,2.2,2.2,0,0,1-2-1.82,2.35,2.35,0,0,1,1.28-2.62A4.53,4.53,0,0,1,63.93,49.32Z"/><path class="cls-3" d="M84.5,51.5c.48.39.67.92.32,1.34a1.85,1.85,0,0,1-1.21.54,18.83,18.83,0,0,1-2.34-.12l.19-3.74c.76.05,1.55.08,2.33.17C85,49.84,85.23,50.42,84.5,51.5ZM83,51.5c-.29.29-.57.45-.62.66-.15.62.37.54.73.57s.84,0,.78-.47c-.07-.26-.52-.45-.92-.78Zm0-1.41c-.28.28-.58.43-.61.62-.09.64.47.52.8.5s.48-.26.72-.41Z"/><path class="cls-3" d="M65.41,49.64h.95c.1.44.07,1,.32,1.21s.83.09,1.25,0c.9-.17.14-.87.5-1.37l.89-.09.24,3.86h-1l-.14-1.41c-1.54-.35-1.76-.16-1.79,1.58l-1,.13Z"/><path class="cls-3" d="M79,51.81l.72,1.3c-.68.15-1.23.17-1.41-.63A.94.94,0,0,0,78,52a1.06,1.06,0,0,0-.66-.19c-.1,0-.22.29-.25.46a5.7,5.7,0,0,0,0,.86h-.92V49.3a24.51,24.51,0,0,1,2.85.18,1.11,1.11,0,0,1,.48,1.93C79.32,51.54,79.17,51.64,79,51.81Zm-1-.63c.28-.19.79-.38.8-.58,0-.68-.6-.51-1-.55s-.69,0-.69.49.43.43.92.64Z"/><path class="cls-3" d="M89.82,53.93c-.76.14-1.23,0-1.38-.76a.79.79,0,0,0-1.09-.72l-.21,1.26-.92-.1.35-3.67c.9.12,1.79.21,2.68.36a1,1,0,0,1,.91.89,1.08,1.08,0,0,1-.59,1.2l-.36.22Zm-1.27-2c.18-.16.6-.37.59-.55-.07-.73-.74-.48-1.18-.59s-.53.12-.53.48c0,.72.63.39,1.12.65Z"/><path class="cls-3" d="M108.24,57.65c.18-1,.37-1.92.53-2.86.07-.44.27-.57.7-.47s1.17.2,1.75.34a1.52,1.52,0,0,1,1.16,2,1.57,1.57,0,0,1-1.71,1.41h0q-.5-.05-1-.15Zm1.19-.57.59.16c.46.09,1,.13,1.19-.37.14-.34.23-.92,0-1.12A2.9,2.9,0,0,0,110,55.2a.51.51,0,0,0-.3.28c-.06.51-.17,1-.24,1.57Z"/><path class="cls-3" d="M93.38,54.54C92,54.54,91,53.77,91,52.67a1.77,1.77,0,0,1,2-1.85,2.1,2.1,0,0,1,2.31,1.87v0a1.78,1.78,0,0,1-1.75,1.81Zm.94-1.83a1.15,1.15,0,0,0-1.21-1.05,1,1,0,0,0-1,1,1.12,1.12,0,0,0,1.18,1.05h0a1,1,0,0,0,1-1v0Z"/><path class="cls-3" d="M128.87,58.05l.79,1.1c-.69.13-1.25.17-1.52-.59a.49.49,0,0,0-.19-.27,1.65,1.65,0,0,0-.72-.22c-.1,0-.22.34-.25.53a2.86,2.86,0,0,0,0,.66h-1V56h2.58a1,1,0,0,1,.49,1.87Zm-1.05-1.5h-.4a4.06,4.06,0,0,0-.47.41c.15.15.29.39.46.42a2.34,2.34,0,0,0,.94-.07c.13,0,.33-.26.31-.36a.7.7,0,0,0-.37-.4,1.21,1.21,0,0,0-.47,0Z"/><path class="cls-3" d="M103.3,56.61l.81-3.43,3.53.8-.13.64c-.73-.17-1.39-.34-2.06-.45-.17,0-.38.17-.57.27.14.14.25.33.42.41A2.92,2.92,0,0,0,106,55c.46.08.57.3.3.72a8.68,8.68,0,0,0-1.26-.26.65.65,0,0,0-.48.36c0,.09.16.41.3.45.68.19,1.37.31,2.12.47l-.14.65Z"/><path class="cls-3" d="M70.6,53.05c.43-1.15.85-2.3,1.31-3.44.06-.14.34-.22.54-.25a5.48,5.48,0,0,1,.84,0L75,53.08H74l.08-.09c-.28-.21-.56-.6-.83-.58-.6,0-1.4-.4-1.76.57-.06.17-.51.2-.78.29ZM72,51.81l1.41-.06-.76-1.57Z"/><path class="cls-3" d="M143.64,56l1,.84c-.59.26-1.08.48-1.54-.18a.78.78,0,0,0-1.26-.22l.24,1.07-.93.2-.85-3.07A24.37,24.37,0,0,1,143,54.1a1.24,1.24,0,0,1,1,.55c.14.35-.08.84-.15,1.27Zm-.7-1.54-.24.22a6.2,6.2,0,0,0-1,.25.5.5,0,0,0-.22.44.52.52,0,0,0,.39.32,3.22,3.22,0,0,0,1-.24.54.54,0,0,0,.26-.41,1.78,1.78,0,0,0-.18-.58Z"/><path class="cls-3" d="M132.89,57.17c1.76-.15,1.76-.15,2,1.14a4.41,4.41,0,0,1-3,.58,1.38,1.38,0,0,1-1.21-1.23,1.47,1.47,0,0,1,.7-1.65,4.26,4.26,0,0,1,2.88-.29l-.18.67a10,10,0,0,0-1.33-.09,1,1,0,0,0-1.06.94s0,0,0,.06a1,1,0,0,0,1,1h.16a1.39,1.39,0,0,0,.6-.09c.15-.07.25-.26.36-.4a1.54,1.54,0,0,0-.44-.2C132.92,57.61,132.92,57.63,132.89,57.17Z"/><path class="cls-3" d="M120.78,55.8h1v1.86c0,.6.27.83.82.85s.87-.22.88-.8,0-1.17,0-1.79h1.12a13,13,0,0,1-.08,1.77,1.4,1.4,0,0,1-1.28,1.51h-.16a4.38,4.38,0,0,1-1.29-.09,1.21,1.21,0,0,1-1-1.26C120.77,57.21,120.78,56.53,120.78,55.8Z"/><path class="cls-3" d="M139.74,57.36c.16.44,0,.62-.41.68-.83.13-1.67.26-2.5.42-.44.08-.62-.08-.69-.5-.13-.83-.3-1.66-.47-2.58l3.6-.58.09.59c-.71.12-1.39.21-2.05.35-.16,0-.28.25-.42.38.18.08.36.23.53.23a10.39,10.39,0,0,0,1.2-.17l.17.47c-.08.05-.13.11-.19.12a11.28,11.28,0,0,0-1.14.2c-.14,0-.24.25-.35.38.15.12.32.37.45.35C138.28,57.62,139,57.48,139.74,57.36Z"/><path class="cls-3" d="M147.87,55a3.62,3.62,0,0,0-.67-.06,8,8,0,0,1-1.35.15c-.31,0-.8-.25-.85-.47a1.1,1.1,0,0,1,.34-1,7.82,7.82,0,0,1,1.76-.67,4.44,4.44,0,0,1,.84-.09v.63c-.75.07-1.53,0-2,.81h.82a4.81,4.81,0,0,1,1.15-.11,1.37,1.37,0,0,1,.91.53.75.75,0,0,1-.42,1l-.08,0c-.85.3-1.72.51-2.66.78l-.07-.73c.83-.1,1.69,0,2.33-.6Z"/><path class="cls-3" d="M98.95,55.57l.78-3.49,1,.25c-.17.75-.31,1.46-.5,2.16-.1.39,0,.6.41.68.6.12,1.2.27,1.87.43l-.16.76Z"/><path class="cls-3" d="M44.61,28.76l1-2.82a4.54,4.54,0,0,1,1.09.32c.3.18.73.52.72.78a1.41,1.41,0,0,1-.61,1,14.85,14.85,0,0,1-2.07.83Z"/><path class="cls-3" d="M97.33,55.24l-1-.19L97,51.52l1,.21Z"/><path class="cls-1" d="M113,33.53a7.91,7.91,0,0,1-2.4,4.13,3.3,3.3,0,0,1-2.5.72,1.38,1.38,0,0,1-1.31-1.44v0a3.12,3.12,0,0,1,2-2.91C110.16,33.4,111.5,33.59,113,33.53Z"/><path class="cls-1" d="M108.5,31.4l5.29-7.66a2,2,0,0,1,.1.44c-.07,2.14-.15,4.28-.21,6.42,0,.47-.21.6-.67.61C111.5,31.24,110,31.33,108.5,31.4Z"/><path class="cls-1" d="M25.17,33.05c.77-.21,1.54-.38,2.29-.63.51-.17,1-.38,1-1.12,0-.12.18-.31.32-.36s.29.11.37.22a10.56,10.56,0,0,1,.68,1.1.49.49,0,0,1,0,.43.87.87,0,0,1-.46.2,9.11,9.11,0,0,0-1.13.24,12.83,12.83,0,0,0-1.22.63,5,5,0,0,1-6.63-1.49c-.47-.6-.76-1.34-1.18-2a4.87,4.87,0,0,0-.7-.72c-.12-.12-.35-.26-.33-.35a.77.77,0,0,1,.35-.44,8.1,8.1,0,0,1,1.11-.52c.15-.06.44-.09.48,0s.15.45.06.54c-.45.51-.18.92.09,1.36A6.11,6.11,0,0,0,25.17,33.05Z"/><path class="cls-1" d="M28.08,26.27l.66-.08a1.2,1.2,0,0,1,1.3.67c.14.28.39.5.56.77a4.68,4.68,0,0,1,.28.68c-.3.12-.59.25-.89.34a.56.56,0,0,1-.3-.13,3.07,3.07,0,0,0-1.82-.81.74.74,0,0,1-.66-.94C27.28,26.24,27.61,26.12,28.08,26.27Z"/><path class="cls-1" d="M21.5,25.69a2.71,2.71,0,0,1-1,0c-.26-.11-.42-.46-.63-.71a4.21,4.21,0,0,1,.66-.53,4.34,4.34,0,0,1,.84-.27A1.42,1.42,0,0,1,23,24.5a1.59,1.59,0,0,0,.43.33c.33.17.61.34.43.78a.77.77,0,0,1-.95.54l-.05,0a4.72,4.72,0,0,1-.62-.27l-.68-.26Z"/><path class="cls-1" d="M25.75,29.67a3.44,3.44,0,0,1-2.39-1c-.14-.14-.29-.45-.23-.58a.8.8,0,0,1,.58-.37,2.9,2.9,0,0,1,2.3.81c.18.19.38.57.31.75S25.86,29.6,25.75,29.67Z"/><path class="cls-1" d="M32.13,25a.65.65,0,0,1-.64.66l-.19,0a12.3,12.3,0,0,1-1.47-.5.53.53,0,0,1-.12-.5,1.93,1.93,0,0,1,2.32.11A1,1,0,0,1,32.13,25Z"/><path class="cls-1" d="M21.12,21.16a2.47,2.47,0,0,1,1.79,1.12c.08.12,0,.34,0,.5s-.21.09-.3.07a8.35,8.35,0,0,1-1.52-.49,1,1,0,0,1-.38-.74C20.68,21.45,21,21.28,21.12,21.16Z"/><path class="cls-1" d="M141.43,33.67c-1.19,2.63-2.2,5.23-4.23,7.18a5.81,5.81,0,0,1-2.39,1.36c-2.53.69-4.4-1.32-3.69-3.84a4.33,4.33,0,0,1,2.08-2.53A15.43,15.43,0,0,1,138.89,34C139.69,33.88,140.5,33.79,141.43,33.67Z"/><path class="cls-1" d="M117.4,58.15a3.08,3.08,0,0,1-.9-.1.61.61,0,0,1-.25-.51.55.55,0,0,1,.37-.42,4.28,4.28,0,0,1,1.27.14c.21.06.36.32.53.49a3.32,3.32,0,0,1-.59.42A1.13,1.13,0,0,1,117.4,58.15Z"/><path class="cls-1" d="M116.63,55.53c.49.06,1,.09,1.47.19.13,0,.23.23.35.35-.14.12-.27.35-.42.35a4.15,4.15,0,0,1-1.28-.13c-.16,0-.23-.39-.34-.6Z"/><path class="cls-1" d="M83,51.48c.4.33.85.52.89.76.07.49-.41.5-.78.47s-.88,0-.73-.57C82.43,51.93,82.71,51.78,83,51.48Z"/><path class="cls-1" d="M83.05,50.05l.91.72c-.24.14-.48.4-.72.41s-.89.14-.8-.5C82.5,50.51,82.77,50.35,83.05,50.05Z"/><path class="cls-1" d="M78,51.18c-.44-.21-.93,0-.92-.65s.33-.53.69-.49,1-.12,1,.55C78.78,50.79,78.27,51,78,51.18Z"/><path class="cls-1" d="M88.55,51.92c-.5-.26-1.11.07-1.12-.66,0-.36.12-.59.53-.48s1.11-.14,1.18.59C89.16,51.55,88.74,51.76,88.55,51.92Z"/><path class="cls-1" d="M109.43,57.05c.1-.55.17-1.08.29-1.61,0-.11.23-.3.3-.28a2.9,2.9,0,0,1,1.24.55c.18.2.09.78,0,1.12-.21.5-.73.46-1.19.37A1.79,1.79,0,0,1,109.43,57.05Z"/><path class="cls-1" d="M94.33,52.71a1,1,0,0,1-1,1h-.05a1.12,1.12,0,0,1-1.2-1v0a1,1,0,0,1,1-1,1.15,1.15,0,0,1,1.25,1Z"/><path class="cls-1" d="M127.82,56.53a1.21,1.21,0,0,1,.47,0,.7.7,0,0,1,.37.4.55.55,0,0,1-.31.36,2.34,2.34,0,0,1-.94.07c-.17,0-.31-.27-.46-.42a4.06,4.06,0,0,1,.47-.41C127.5,56.51,127.64,56.54,127.82,56.53Z"/><path class="cls-1" d="M72,51.8l.65-1.63.76,1.57Z"/><path class="cls-1" d="M142.95,54.45a1.78,1.78,0,0,1,.2.57.54.54,0,0,1-.26.41,3.22,3.22,0,0,1-1,.24.52.52,0,0,1-.39-.32.5.5,0,0,1,.22-.44,6.2,6.2,0,0,1,1-.25Z"/></svg>