<?xml version="1.0" encoding="utf-8"?>
<!-- Generator: Adobe Illustrator 21.1.0, SVG Export Plug-In . SVG Version: 6.00 Build 0)  -->
<svg version="1.1" id="Layer_1" xmlns="http://www.w3.org/2000/svg" xmlns:xlink="http://www.w3.org/1999/xlink" x="0px" y="0px"
	 viewBox="0 0 181 53.6" style="enable-background:new 0 0 181 53.6;" xml:space="preserve">
<title>Grocery</title>
<path d="M117.5,26.7c-1.1,0.8-2,1.6-3.1,2.3c-5,3.1-11.4,2.8-16.1-0.8c-3.3-2.3-5.4-5.8-6.1-9.8c-0.5-3.1,0-6.2,1.5-9
	C95.8,5.1,99.1,2,104,1c5.2-1.4,10.8,0.3,14.5,4.2c0.1,0.1,0.3,0.3,0.4,0.4c0,0.1,0.1,0.1,0.1,0.2l-4.8,4.9
	c-0.4-0.4-0.8-0.7-1.1-1.1c-0.1-0.1-0.1-0.2,0-0.4c0.8-1.6,0.3-3.5-1.1-4.6c-1.5-1.3-3.4-2-5.4-1.9c-3.5-0.1-6.7,1.9-8.3,5
	c-2.5,4.2-2.7,9.5-0.3,13.8c1.9,3.8,5.8,6.3,10.1,6.4c3.1,0.1,6.1-1,8.4-3.2c0.5-0.4,0.8-1,0.9-1.7c0.3-2.6,2.1-4.8,4.6-5.8
	c2.2-1,4.7-1.2,7-0.6l0.4,0.1c0.5-2-0.8-3.9-2.7-4.4c-0.6-0.1-1.1-0.1-1.7,0c-1.9,0.3-3.5,1.5-4.2,3.3l-0.2,0.5l-1.8-0.6l1.8-4.8
	c0.3,0.1,0.6,0.1,0.9,0.1c0.6,0,1.3-0.1,1.9-0.2c2.3-0.7,4.7-0.6,7,0.1c1.8,0.5,3,2.1,3.1,4c0.1,1.1,0.1,2.1,0.2,3.2
	c0.1,3.1,0.1,6.3,0.1,9.4c-0.1,1,0.6,2,1.5,2.3c0.8,0.4,1.8,0,2.2-0.8c0.1-0.1,0.1-0.3,0.1-0.5c0.1-0.7,0.1-1.4,0.1-2.1
	c0-2.9,0-5.7-0.1-8.6c0-0.5-0.1-1-0.3-1.4c-0.1-0.2-0.2-0.3-0.4-0.4c-0.1,0-0.3,0.2-0.4,0.3s-0.2,0.3-0.3,0.4
	c-0.2,0.1-0.4,0.1-0.6,0c-0.4-0.3-0.7-0.6-1.1-0.9l3.5-5.1c0.9,0.6,1.6,1.4,2.1,2.4c0.1,0.1,0.2,0.2,0.3,0.3
	c0.1-0.1,0.2-0.2,0.3-0.4c0.1-0.3,0.2-0.6,0.4-1c0.2-0.6,0.7-1,1.3-1.2c1.5-0.3,3.1-0.3,4.6-0.1c0.2,0,0.3,0.1,0.5,0.1l-2.1,4.6
	c-0.4-0.3-0.8-0.6-1.1-0.8c-0.6-0.5-1.5-0.4-2,0.2c-0.1,0.2-0.2,0.3-0.3,0.5c-0.2,0.5-0.3,1-0.3,1.4c0,3.4,0,6.8,0,10.2
	c0,0.5,0.1,1,0.1,1.5c0,0.4,0.3,0.8,0.7,0.9c0.4,0.1,0.9,0.2,1.4,0.3V31h-0.9c-2.4,0-4.7,0-7.1,0c-0.8,0-1.7-0.1-2.5-0.1
	c-0.4,0-0.8,0.1-1.2,0.1c-0.2,0-0.3-0.1-0.4-0.2c-0.5-0.7-1-1.4-1.6-2.3c0,0.1-0.1,0.2-0.1,0.3c-1.5,2.1-3.6,2.6-6,2.3
	c-1.4-0.1-2.8-0.7-4-1.5C118.8,28.9,118,27.9,117.5,26.7z M129.4,22.9h-0.2c0-1,0-2,0-3c0-0.8-0.2-1-0.9-1.2
	c-0.8-0.2-1.6-0.3-2.4-0.1c-1.4,0-2.6,0.7-3.5,1.7c-1.2,1.6-1.5,3.8-0.6,5.7c0.8,2.1,3,3.3,5.2,2.8c1.5-0.3,2.5-1.6,2.4-3.1
	C129.4,24.7,129.4,23.8,129.4,22.9z"/>
<path d="M27.4,5.7l-4.8,4.9c-0.4-0.4-0.8-0.7-1.1-1c-0.1-0.1-0.1-0.3,0-0.4c0.7-1.6,0.3-3.4-1-4.5c-1.5-1.4-3.5-2.1-5.6-2
	c-3.5,0-6.7,1.9-8.3,4.9C4.1,11.9,4,17.2,6.3,21.5c1.9,3.9,5.8,6.4,10.2,6.5c3,0.1,5.8-1,8-2.9c0.7-0.5,1.1-1.2,1.3-2.1
	c0.5-3.2,2.6-5,5.5-6c1.9-0.6,4-0.7,6-0.3l0.4,0.1c0.4-2-0.8-3.9-2.8-4.4c-0.2-0.1-0.5-0.1-0.8-0.1c-2.5-0.1-4,1.2-5.1,3.2
	c-0.1,0.2-0.2,0.3-0.2,0.5l-0.1,0.1l-2-0.6l1.3-3.1c0.2-0.5,0.4-1,0.6-1.5c0.1-0.1,0.2-0.2,0.4-0.2c0.9,0.1,1.9,0,2.8-0.3
	c2.2-0.6,4.6-0.5,6.8,0.3c1.6,0.6,2.7,2.1,2.7,3.8c0.1,0.9,0.2,1.8,0.2,2.7c0.1,3.3,0.1,6.6,0.1,9.9c-0.2,1.2,0.6,2.3,1.8,2.5
	c0.4,0.1,0.6,0.4,0.5,0.8c0,0.2,0,0.5,0,0.7c-0.7,0-1.3-0.1-2-0.1s-1.2,0.1-1.8,0.1c-0.2,0-0.3-0.1-0.4-0.2
	c-0.4-0.6-0.7-1.2-1.1-1.8c-0.1-0.1-0.2-0.3-0.3-0.4c-1.7,2.5-4.1,2.9-6.8,2.4c-2.6-0.3-4.8-2-5.7-4.5c-0.1,0.1-0.2,0.1-0.3,0.2
	C20,32.6,10.8,32.6,5.1,27c-0.6-0.6-1.1-1.2-1.6-1.8c-2.1-2.6-3.2-5.8-3-9.1C0.9,9.5,3.9,4.4,10.1,1.7c5.9-2.5,12.7-1,17,3.7
	L27.4,5.7z M37.8,22.8h-0.2c0-1,0-2,0-3c0.1-0.5-0.3-1-0.8-1.1c-0.2-0.1-0.5-0.2-0.7-0.2c-1.1-0.1-2.2,0-3.3,0.3
	c-0.9,0.2-1.6,0.7-2.2,1.4c-1.4,2-1.4,4.7,0,6.7c1,1.5,2.8,2.2,4.5,1.8c1.6-0.3,2.7-1.7,2.6-3.3C37.8,24.6,37.8,23.7,37.8,22.8z"/>
<path d="M161.5,31.1l1.1,0.5c0.8,0.4,1.8,0.5,2.7,0.4c0.7-0.2,1.4-0.7,1.7-1.4c0.1-0.1,0.1-0.3,0-0.4c-1.9-4.8-3.9-9.6-5.8-14.4
	c-0.4-1.1-1.1-1.3-2.3-0.7l-0.7-1.4l-1,1.9c-0.4-0.3-0.7-0.5-1.1-0.7c-0.6-0.5-1.5-0.4-2,0.2c-0.1,0.2-0.2,0.3-0.3,0.5
	c-0.2,0.5-0.3,1-0.3,1.5c0,3.4,0,6.8,0,10.2c0,0.5,0.1,1,0.1,1.5c0,0.4,0.2,0.7,0.5,0.8c0.5,0.2,1,0.3,1.6,0.5v1.2h-8.3
	c0-0.3,0-0.7,0-1c0-0.1,0.2-0.3,0.3-0.3c0.4-0.1,0.7-0.2,1.1-0.3c0.3-0.1,0.6-0.4,0.6-0.8c0-0.6,0.1-1.2,0.1-1.8c0-3.1,0-6.1,0-9.2
	c0-0.4-0.1-0.9-0.2-1.3c-0.1-0.2-0.2-0.4-0.5-0.4c-0.1,0-0.4,0.2-0.5,0.3c-0.5,0.7-0.6,0.7-1.3,0.2l-0.8-0.7l3.7-5.2l2.3,2.8
	c0.1-0.1,0.1-0.1,0.2-0.2c0.1-0.1,0.1-0.3,0.2-0.4c0.3-1.3,1.5-2.2,2.8-2c1,0,2,0,3,0c0.3,0,0.7,0.1,1,0.2l-1,2l0.1,0.1l4.6-2.5
	l1.9,4.6c0.4-0.6,0.7-1.2,1-1.9c0.6-1.5,2.1-2.5,3.7-2.3c1.8,0,3.5,0.1,5.3,0.1c1.1,0,2.2-0.1,3.3-0.1l-1.6,3.6
	c-2.5,5.7-5,11.5-7.6,17.2c-0.7,2-2.5,3.4-4.6,3.8c-1.2,0.2-2.4,0.1-3.5-0.3c-0.1,0-0.3-0.3-0.3-0.4C161,33.6,161.3,32.4,161.5,31.1
	z M174,14h-0.6c-1.2,0-2.4,0.1-3.6,0.1c-1,0-1.9,0.4-2.6,1.2c-0.4,0.5-0.8,1.1-1.1,1.7c-0.1,0.2-0.1,0.5,0,0.8
	c1,2.4,1.9,4.8,2.9,7.2c0.1,0.1,0.1,0.3,0.2,0.5L174,14z"/>
<path d="M62.5,0.5c-0.3,4.2-0.4,8.4-0.3,12.6l0.3-0.3c1.5-1.5,3.5-2.4,5.6-2.7c1-0.1,1.9,0,2.8,0.3c1.5,0.6,2.6,2,2.7,3.6
	c0.1,0.8,0.2,1.5,0.2,2.3c0,3.6,0,7.2,0,10.8c0,1.5,0.1,1.6,1.5,1.9l0.7,0.2c0,0.6,0,1.1,0,1.6c0,0.1,0,0.2,0,0.2H68l-0.2-1.8
	c0.5-0.1,1-0.2,1.4-0.3c0.4,0,0.7-0.4,0.7-0.8c0,0,0,0,0,0c0-3.7,0.1-7.3,0-11c0-0.7-0.2-1.4-0.4-2.1c-0.2-0.9-1-1.6-1.9-1.7
	c-1.9-0.4-3.9,0.3-5.2,1.7c-0.2,0.2-0.3,0.5-0.3,0.8c0,3.7,0,7.4,0.1,11.1c0,0.5,0.1,0.9,0.2,1.4c0,0.4,0.3,0.6,0.7,0.7
	c0.4,0.1,0.8,0.1,1.3,0.1v1.9h-8.3v-1.6c0.5-0.1,0.9-0.3,1.4-0.4c0.5-0.1,0.9-0.6,0.8-1.2c0-0.7,0.1-1.3,0.1-2
	c0-3.9-0.1-7.8-0.1-11.7c0-2.6,0-5.1-0.1-7.7c0-0.4-0.1-0.8-0.1-1.3s-0.2-0.4-0.5-0.4l-1.3,0.1c0-0.6,0-1.2,0-1.8
	c0-0.1,0.1-0.2,0.2-0.3L62.5,0.5z"/>
<path d="M87.9,29.2c-0.5,0.3-1,0.7-1.5,1c-2.1,1.2-4.7,1.4-6.9,0.5c-2.1-0.7-3.6-2.7-3.7-4.9c-0.3-2.4,0.8-4.8,2.9-6.1
	c0.5-0.3,1.1-0.6,1.7-0.9c-0.4-0.6-0.8-1.3-1.2-1.8c-1.2-1.7-0.7-4,1-5.2c0,0,0.1-0.1,0.1-0.1c2.7-1.8,6.3-1.5,8.7,0.6
	c0.1,0.1,0.3,0.2,0.5,0.3c0.5,0.1,0.8,0.6,0.7,1.1l-2.7,1.4c-0.3-0.5-0.6-1.1-0.9-1.6c-0.6-1-1.6-1.5-2.8-1.6
	c-1.3,0-2.4,1.1-2.4,2.5c0,0.1,0,0.3,0,0.4c0.1,0.7,0.4,1.4,0.9,2c1.8,2.4,3.6,4.9,5.4,7.3c0.2,0.3,0.5,0.6,0.7,0.9
	c0.6-0.5,0.9-2.8,0.6-3.9l-2-0.1v-1.4h3.9c0,0.8-0.1,1.7-0.1,2.5c-0.1,1.6-0.5,3.1-1.1,4.5c-0.1,0.1-0.1,0.3,0,0.4
	c1.1,2.1,2.8,3.7,4.9,4.8c1.1,0.5,2.3,0.7,3.6,0.7c0,0.9,0,1.7,0,2.6c0,0.1-0.3,0.2-0.4,0.2c-1.8,0-3.6-0.5-5.2-1.4
	c-1.8-1-3.3-2.5-4.3-4.2L87.9,29.2L87.9,29.2z M81.1,19.9c-2.2,0.9-3.3,3.4-2.6,5.6c0.8,2.4,3.3,3.8,5.8,3.4c0.9-0.1,1.8-0.4,2.5-1
	L81.1,19.9z"/>
<path d="M15.6,52.7V41.2h4l0.1,1.2c2.2-2.1,4.1-2.1,6,0c0.7-1.1,2-1.7,3.3-1.5c1.3,0,2.3,1,2.4,2.2c0,0.3,0.1,0.7,0.1,1
	c0,2.7,0,5.4,0,8.1v0.5h-4.1v-0.5c0-2.3,0-4.6,0-6.9c0-0.2,0-0.4,0-0.6c0-0.3-0.1-0.6-0.5-0.7c-0.4-0.1-0.8,0.1-1,0.4
	c-0.1,0.3-0.2,0.6-0.2,0.9c0,2.3,0,4.6,0,6.9v0.5h-4.1c0-0.2,0-0.3,0-0.5c0-2.3,0-4.5,0-6.8c0-0.3,0-0.5,0-0.8
	c-0.1-0.4-0.5-0.7-0.9-0.6c-0.4,0-0.7,0.2-0.7,0.6c0,0,0,0,0,0c0,0.3-0.1,0.5,0,0.8c0,2.2,0,4.5,0,6.7c0,0.2,0,0.4,0,0.6L15.6,52.7z
	"/>
<path d="M42.3,28.5l2.6-3.7c0.4,0.5,0.7,1,1.1,1.4c0.7,0.9,1.5,1.7,2.5,2.2c1.1,0.5,2.4,0.6,3.5,0.1c1.3-0.4,2.1-2.8,0.8-3.9
	c-1.2-1.1-2.7-1.9-4.2-2.4c-0.7-0.2-1.3-0.5-2-0.8c-3.4-1.6-3.5-5.8-1.9-8c2.1-2.6,5.6-3.5,8.7-2.3c0.8,0.4,1.6,0.8,2.4,0.9
	c0.3,0,0.7,0.5,1,0.8l-2.4,3.5c-0.3-0.4-0.7-0.9-1.1-1.3c-1-1.3-2.5-2-4.1-2c-1.7,0.1-2.8,1.3-2.3,2.8c0.2,0.5,0.5,1,0.9,1.3
	c0.8,0.5,1.5,0.9,2.4,1.3c1.2,0.5,2.4,1,3.6,1.5c0.4,0.2,0.8,0.4,1.1,0.7c2.2,1.4,2.9,4.2,1.6,6.4c-1.8,3.7-6.1,5.4-10,4
	C45,30.4,43.5,29.6,42.3,28.5z"/>
<path d="M2.2,35.1v-1.4h87.9c0.3,0,0.5,0.1,0.7,0.2c0.6,0.3,1.3,0.7,1.8,1.2H2.2z"/>
<path d="M103.9,42.5v-5h4.1v15.2h-4v-1.1c-0.4,0.7-1,1.2-1.8,1.3c-1.7,0.5-3.5-0.5-4-2.3c-0.4-1.5-0.5-3.1-0.4-4.7c0-1,0.2-2,0.4-3
	c0.3-1.6,1.9-2.5,3.4-2.2c0.2,0,0.4,0.1,0.6,0.2c0.6,0.2,1.1,0.6,1.4,1.1c0,0.1,0.1,0.2,0.1,0.2C103.8,42.4,103.8,42.5,103.9,42.5z
	 M104,47c-0.1-0.8-0.1-1.5-0.3-2.3c-0.1-0.6-0.4-0.8-0.8-0.8c-0.4,0-0.7,0.3-0.8,0.7c0,0,0,0.1,0,0.1c0,1.5,0,2.9,0,4.4
	c0,0.4,0.3,0.8,0.7,0.8c0,0,0.1,0,0.1,0c0.4,0,0.7-0.2,0.8-0.8C103.9,48.5,103.9,47.7,104,47L104,47z"/>
<path d="M3.5,48.2h4.2c0,0.4,0,0.8,0.1,1.2c0,0.5,0.4,0.8,0.8,0.9c0.5,0.1,1-0.3,1.1-0.7c0.3-0.9-0.1-1.9-1-2.2
	c-0.8-0.4-1.7-0.8-2.5-1.3c-0.3-0.2-0.7-0.4-1-0.6C4.3,45,3.8,44,3.7,43c-0.1-1,0-2,0.2-2.9c0.4-1.4,1.6-2.5,3.1-2.7
	c1.3-0.3,2.6-0.3,3.9,0c2,0.4,3.3,2.4,2.9,4.4h-4c0-0.3,0-0.6,0-0.9c0-0.6-0.3-0.9-0.8-1c-0.5-0.1-1.1,0.3-1.2,0.8c0,0,0,0,0,0
	c-0.2,0.6,0.1,1.3,0.7,1.7c0.4,0.3,0.9,0.5,1.4,0.7c0.5,0.2,1,0.4,1.5,0.6c2,0.7,3.2,2.8,2.8,4.9c0,0.4-0.1,0.8-0.2,1.2
	c-0.3,1.5-1.5,2.6-3,2.9c-1.4,0.3-2.9,0.3-4.3,0C5,52.5,3.6,51,3.6,49.2C3.5,49,3.5,48.6,3.5,48.2z"/>
<path d="M69.9,52.7h-3.9h-0.3V37.5h9.2v3.4H70v2.4h4.5v3.4h-4.6L69.9,52.7z"/>
<path d="M85.8,47c-0.1,0.9-0.1,1.8-0.3,2.6c-0.2,1.8-1.7,3.3-3.5,3.3c-1,0.1-2,0.1-3-0.1c-1.6-0.2-2.9-1.5-3.1-3.1
	c-0.4-1.8-0.4-3.6-0.1-5.4c0.2-1.9,1.8-3.4,3.7-3.4c0.9-0.1,1.9-0.1,2.8,0c1.7,0.2,3.1,1.6,3.3,3.3C85.6,45.2,85.7,46.1,85.8,47z
	 M81.7,47.2c0-0.9-0.1-1.6-0.1-2.3c0-0.3-0.1-0.6-0.2-0.9c-0.2-0.2-0.4-0.4-0.7-0.5c-0.3-0.1-0.6,0.2-0.7,0.5
	c-0.1,0.2-0.1,0.4-0.1,0.6c0,1.4-0.1,2.7-0.1,4.1c0,0.4,0.1,0.7,0.2,1.1c0.1,0.4,0.5,0.6,0.9,0.5c0.3-0.1,0.5-0.3,0.5-0.5
	c0-0.1,0.1-0.2,0.1-0.4C81.6,48.6,81.6,47.8,81.7,47.2L81.7,47.2z"/>
<path d="M86.6,46.8c0.1-0.8,0.1-1.7,0.3-2.6c0.2-1.7,1.7-3,3.4-3.2c1-0.1,2-0.1,2.9,0c2,0.3,3.1,1.4,3.4,3.5
	c0.3,1.7,0.3,3.5-0.1,5.2c-0.3,1.6-1.5,2.9-3.2,3.1c-1.1,0.2-2.2,0.2-3.3,0c-1.8-0.3-3.2-1.8-3.3-3.6C86.7,48.5,86.7,47.7,86.6,46.8
	z M92.6,46.9c0-0.9-0.1-1.5-0.1-2.1c0-0.3-0.1-0.5-0.2-0.8c-0.2-0.2-0.4-0.4-0.7-0.5c-0.3-0.1-0.6,0.2-0.7,0.5c0,0,0,0,0,0
	c-0.1,0.2-0.1,0.4-0.2,0.7c0,1.3-0.1,2.5-0.1,3.8c0,0.5,0.1,1,0.3,1.4c0.1,0.2,0.4,0.4,0.6,0.4c0.3,0.1,0.6-0.1,0.7-0.4
	c0.1-0.2,0.1-0.3,0.1-0.5C92.5,48.5,92.6,47.6,92.6,46.9L92.6,46.9z"/>
<path d="M36.6,44.7h-3.5c-0.3-1.4,0.5-2.8,1.8-3.3c1.8-0.7,3.9-0.8,5.7-0.1c1.1,0.4,1.8,1.6,1.7,2.8c0,1.6,0,3.3,0,4.9
	c-0.1,1.2,0,2.5,0.4,3.7h-0.7c-0.9,0-1.8,0-2.6,0c-0.5,0-0.7-0.1-0.7-0.6c0-0.1,0-0.3,0-0.5c-0.2,0.2-0.3,0.4-0.5,0.6
	c-1,0.9-2.4,1.1-3.6,0.6c-1-0.3-1.8-1.3-1.8-2.4c-0.1-0.6-0.1-1.2,0-1.8c0.2-1.4,1.3-2.6,2.8-2.7c0.7-0.1,1.5-0.3,2.2-0.5
	c0.5-0.1,0.9-0.6,0.8-1.1c0,0,0,0,0,0c0-0.4-0.2-0.8-0.6-0.9c-0.4-0.1-0.9,0.1-1.1,0.5C36.7,44.2,36.7,44.5,36.6,44.7z M38.5,47.2
	c-0.4,0.1-0.9,0.3-1.3,0.5c-0.2,0.1-0.4,0.4-0.5,0.6c-0.1,0.4-0.1,0.8,0,1.2c0,0.3,0.2,0.6,0.6,0.7c0.4,0.1,0.8-0.1,1-0.4
	c0.1-0.2,0.2-0.4,0.2-0.6C38.6,48.5,38.5,47.8,38.5,47.2z"/>
<path d="M170.2,47.6c0,0.8,0,1.4,0,2.1c0,0.2,0.1,0.5,0.3,0.6c0.2,0.2,0.5,0.2,0.8,0.2c0.2-0.1,0.4-0.3,0.4-0.6
	c0.1-0.4,0.1-0.9,0.1-1.3h3.8c0.2,1.7-0.7,3.3-2.3,3.9c-1.6,0.6-3.3,0.6-4.9,0c-1.3-0.4-2.2-1.5-2.4-2.8c-0.4-1.8-0.4-3.7,0-5.5
	c0.2-1.9,1.7-3.3,3.6-3.4c1-0.1,2.1-0.1,3.1,0.1c1.3,0.2,2.4,1.2,2.7,2.5c0.3,1.3,0.4,2.7,0.3,4L170.2,47.6z M170.2,45.4h0.4
	c1.4,0,1.4,0,1.2-1.4c-0.1-0.4-0.2-0.7-0.7-0.7s-0.8,0.2-0.9,0.7C170.2,44.4,170.2,44.9,170.2,45.4L170.2,45.4z"/>
<path d="M129.3,48.7c-0.1,0.8-0.3,1.6-0.5,2.3c-0.4,1-1.3,1.7-2.3,1.8c-1.2,0.3-2.4,0.3-3.6,0.1c-1.6-0.3-2.8-1.5-3-3.1
	c-0.3-1.8-0.3-3.6,0-5.4c0.1-1.8,1.6-3.3,3.5-3.3c1.1-0.1,2.1-0.1,3.2,0.1c1.4,0.2,2.5,1.3,2.7,2.6c0.2,1.3,0.3,2.5,0.4,3.9h-6
	c0,0.9,0.1,1.7,0.1,2.5c0.1,0.4,0.4,0.6,0.8,0.6c0.4,0,0.7-0.2,0.8-0.6c0.1-0.3,0.1-0.7,0.1-1c0-0.1,0.2-0.3,0.2-0.3
	C126.9,48.7,128,48.7,129.3,48.7z M125.5,45.4c0-0.5-0.1-1-0.1-1.5c0-0.4-0.4-0.7-0.8-0.7c0,0,0,0,0,0c-0.4,0-0.8,0.3-0.8,0.7
	c-0.1,0.4-0.1,0.8-0.1,1.2c0,0.1,0.1,0.2,0.3,0.3C124.4,45.5,124.9,45.4,125.5,45.4z"/>
<path d="M159.8,33.7c0,0.4-0.1,0.8-0.1,1.1c0,0.1-0.1,0.2-0.2,0.2c-0.1,0-0.3,0-0.4,0H99.3v-1.4L159.8,33.7z"/>
<path d="M165.3,45.7h-3.9c0-0.4,0-0.8-0.1-1.2c0-0.3-0.1-0.5-0.3-0.8c-0.3-0.3-0.8-0.3-1.1,0c-0.1,0.1-0.1,0.2-0.2,0.3
	c-0.1,0.1-0.1,0.3-0.1,0.4c0,1.6,0,3.3,0,4.9c0,0.7,0.3,0.9,0.8,1s0.9-0.3,1-0.9c0.1-0.5,0.1-1,0.1-1.6h3.7c0.1,1.3-0.1,2.6-0.8,3.8
	c-0.4,0.6-1.1,1-1.8,1.2c-1.3,0.4-2.8,0.4-4.1,0.1c-1.4-0.3-2.5-1.3-2.8-2.7c-0.5-2.1-0.5-4.2,0-6.3c0.3-1.6,1.7-2.8,3.3-2.9
	c1.2-0.2,2.4-0.2,3.6,0.1c1.2,0.2,2.1,1.1,2.4,2.3C165.1,44.1,165.1,44.9,165.3,45.7z"/>
<path d="M109.2,49h3.6c0,0.2,0,0.5,0.1,0.7c0.1,0.5,0.5,0.9,1,0.9c0.4,0.1,0.7-0.2,0.8-0.6c0.2-0.6,0-1-0.5-1.3
	c-0.8-0.3-1.6-0.6-2.3-0.9l-0.7-0.3c-1.6-0.7-2.4-1.8-1.8-4.2c0.3-1.2,1.3-2.1,2.6-2.4c1.4-0.4,2.9-0.3,4.3,0.1
	c1.4,0.3,2.4,1.7,2.2,3.2h-3.5c0-0.1,0-0.3-0.1-0.4s-0.4-0.6-0.6-0.6c-0.3-0.1-0.7,0-1,0.2c-0.3,0.2-0.3,0.7-0.1,0.9
	c0,0.1,0.1,0.1,0.2,0.1c0.4,0.2,0.7,0.4,1.1,0.6c0.6,0.2,1.2,0.4,1.8,0.7c1.5,0.3,2.6,1.7,2.4,3.3c0.1,1.6-0.9,3.1-2.4,3.6
	c-1.6,0.6-3.4,0.6-5.1,0c-1.2-0.4-1.9-1.5-1.9-2.7C109.2,49.7,109.2,49.4,109.2,49z"/>
<path d="M146.1,52.7h-4.8l-2.8-11.6h4.2l0.9,7.6h0.1l1.1-7.6h4.1L146.1,52.7z"/>
<path d="M53.2,43.9H52v-2.7h1.3v-3.4h4.3v3.4h1.4v2.7h-1.4c-0.1,0.1-0.1,0.1-0.1,0.1c0,1.8,0,3.7,0,5.5c0,0.3,0.2,0.6,0.5,0.6
	c0,0,0.1,0,0.1,0c0.3,0,0.5,0,0.8,0v2.7c-1.4,0.2-2.8,0.2-4.2,0c-0.7-0.1-1.3-0.7-1.4-1.5c-0.1-0.4-0.1-0.8-0.1-1.2
	c0-1.9,0-3.8,0-5.7C53.2,44.2,53.2,44.1,53.2,43.9z"/>
<path d="M48,41.2v1.6l0.1,0.1c0.6-1.4,1.5-2.3,3.2-2v3.7c-0.5,0-1,0-1.5,0c-0.9,0-1.5,0.4-1.5,1.4c-0.1,1.4-0.1,2.8-0.1,4.3
	c0,0.8,0,1.6,0,2.4H44V41.2H48z"/>
<path d="M130.5,52.7V41.2h4v1.4c0.4-0.5,0.8-0.9,1.3-1.3c0.5-0.4,1.2-0.5,1.8-0.3v3.7c-0.5,0-0.9,0-1.4,0c-1.1,0-1.6,0.5-1.7,1.6
	c0,1.9,0,3.9,0,5.8c0,0.2,0,0.4,0,0.6L130.5,52.7z"/>
<path d="M150,41.2h4v11.6h-4V41.2z"/>
<path d="M154,40.1h-4v-2.9h4V40.1z"/>
<path d="M176.3,33.7V35H168c0.7-0.6,1-1.4,2.1-1.4c1.9,0.1,3.7,0,5.6,0L176.3,33.7z"/>
<path d="M177.8,43.2v-1.9h0.8c0.1,0,0.3,0,0.4,0.1c0.1,0,0.2,0.1,0.2,0.2c0.1,0.1,0.1,0.2,0.1,0.3c0,0.1,0,0.3-0.1,0.4
	c-0.1,0.1-0.2,0.2-0.4,0.2c0.1,0,0.1,0.1,0.2,0.2c0.1,0.1,0.2,0.2,0.2,0.3l0.2,0.4H179l-0.3-0.4c-0.1-0.1-0.1-0.2-0.2-0.3
	c0,0-0.1-0.1-0.1-0.1h-0.2h-0.1v0.8L177.8,43.2z M178.1,42.1h0.3c0.1,0,0.2,0,0.3,0c0,0,0.1,0,0.1-0.1c0,0,0-0.1,0-0.1
	c0-0.1,0-0.1-0.1-0.1c0,0-0.1-0.1-0.1-0.1h-0.6L178.1,42.1z"/>
<path d="M178.6,44.2c-1,0-1.9-0.9-1.9-1.9s0.9-1.9,1.9-1.9c1,0,1.9,0.9,1.9,1.9v0C180.5,43.3,179.6,44.2,178.6,44.2z M178.6,40.7
	c-0.8,0-1.5,0.7-1.5,1.5c0,0.8,0.7,1.5,1.5,1.5c0.8,0,1.5-0.7,1.5-1.5C180.1,41.4,179.4,40.7,178.6,40.7
	C178.6,40.7,178.6,40.7,178.6,40.7z"/>
</svg>
