<?xml version="1.0" encoding="utf-8"?>
<!-- Generator: Adobe Illustrator 21.1.0, SVG Export Plug-In . SVG Version: 6.00 Build 0)  -->
<svg version="1.1" id="Layer_1" xmlns="http://www.w3.org/2000/svg" xmlns:xlink="http://www.w3.org/1999/xlink" x="0px" y="0px"
	 viewBox="0 0 250 250" style="enable-background:new 0 0 250 250;" xml:space="preserve">
<style type="text/css">
	.st0{fill:#F9E8A0;}
	.st1{fill:#414042;}
	.st2{fill:#FF0000;}
</style>
<title>Casual Dining Mexican</title>
<path class="st0" d="M77.7,212.5c-2.8,0-5-1.4-7.1-3.6c-13.5-13.5-23.5-36.3-23.5-55.5c0.1-5.5,0.8-11,2.1-16.4
	c-3.5-5.1-2.9-11.9,1.4-16.4c2.1-2.1,2.1-3.6,2.1-12.1c0-3.6,0.7-6.4,3.6-9.3l0.7-0.7h-2.1c2.1-5,8.5-22,20.6-34.2
	c18.5-18.5,35.6-26.3,58.3-26.3c24.9,0,46.2,7.8,61.2,23.5c7.1,5.7,9.3,11.4,9.3,17.8c0,7.1-5,14.2-9.3,18.5L87.7,206.1
	C84.8,208.9,81.2,212.5,77.7,212.5z"/>
<path class="st1" d="M145.3,51.7c0,0,22.1,2.8,34.9,16.4l4.3-4.3C169.5,48.9,146.7,46,146,46L145.3,51.7z"/>
<path class="st1" d="M84.8,104.4c13.5-13.5,32-22,49.1-22v-5.7c-19.9,0-38.4,8.5-52.6,23.5c-6.8,7.1-12.8,15-17.8,23.5l5,2.8
	C71.3,121.4,79.1,110.8,84.8,104.4L84.8,104.4z"/>
<path class="st1" d="M139.6,82.3c11.4,0,23.5,7.8,26.3,10.7l4.3-3.6c-3.6-3.6-19.2-12.1-30.6-12.1L139.6,82.3z"/>
<path class="st1" d="M195.8,61c-15.7-15.7-36.3-23.5-61.2-23.5c-22.8,0-39.8,7.8-58.3,26.3C63.5,75.9,56.3,93.7,54.9,98.7h0.7
	c-2.4,2.4-3.7,5.8-3.6,9.3c0,9.3,0,10-2.1,12.1c-4.3,4.4-4.9,11.3-1.4,16.4c-1.4,5.3-2.1,10.8-2.1,16.4c0,19.2,10,42,23.5,55.5
	c2,2.2,4.9,3.4,7.8,3.6l0,0c4.3,0,7.1-3.6,10.7-6.4L195.8,98.7c4.3-4.3,9.3-12.1,9.3-19.2C205.1,73.1,202.2,67.4,195.8,61L195.8,61z
	 M70.6,79.5c-1.4,1.4-1.4,3.6-1.4,5.7s-3.6,6.4-5.7,8.5C64.9,88.7,67.7,83.7,70.6,79.5z M57.8,107.9c0-4.3,1.4-6.4,7.1-8.5
	c3.6-1.4,10-8.5,10-13.5c0-4.3,1.4-5.7,5.7-5.7c3.6,0,10.7,0,14.2-10.7c0.6-1.8,1.9-3.4,3.6-4.3c1.3-0.7,2.9-0.7,4.3,0
	c3.3,1.5,7.1,2,10.7,1.4c3.2-0.6,6-2.4,7.8-5c0.7-1.4,2.1-2.8,3.6-2.8s2.1,0,2.8,0.7c6.4,6.4,15.6,5.7,19.9,3.6
	c2.1-0.7,3.6-1.4,5-0.7c1.1,0.5,2,1.3,2.9,2.1c3.6,7.1,10.7,7.1,17.1,7.1c2.9,0,5.7,0.7,5.7,5.7c0,2.8,2.1,6.4,4.3,8.5
	c-2.1-0.2-4-0.9-5.7-2.1c-12.8-10-27-15.7-42-15.7l0,0c-22.1,0-45.6,9.9-61.2,26.3c-6.2,6.1-11.5,13-15.6,20.6V107.9L57.8,107.9z
	 M191.5,94.4L84.1,202.5c-2.1,2.1-5,5-6.4,5c0,0-1.4,0-3.6-2.1c-12.8-12.8-22-34.2-22-51.9s10-39.8,24.9-54.8s37-24.9,57.6-24.9l0,0
	c13.7,0.1,27,4.9,37.7,13.5c6.4,5.7,13.5,4.3,17.8,0c4.9-4.8,5-12.7,0.2-17.6c-0.1-0.1-0.1-0.1-0.2-0.2l-4.3,3.6
	c2.9,3.6,2.9,7.1,0.7,10c-2.1-1.4-4.3-5-4.3-5.7c0-6.4-4.3-11.4-11.4-11.4c-6.4,0-10,0-11.4-4.3c-1.1-2.4-3.2-4.2-5.7-5
	c-2.1-0.7-5-0.7-9.3,1.4c-2.1,0.7-8.5,2.8-13.5-2.2c-2.1-2-4.9-3-7.8-2.8c-3.6,0.6-6.5,3-7.8,6.4c-0.7,0.7-1.4,2.1-3.6,2.1
	c-2.1,0.7-4.3,0-6.4-0.7c-2.7-1.3-5.7-1.5-8.5-0.7c-4.3,0.7-6.4,3.6-7.8,7.1c-2.1,6.4-5,6.4-8.5,6.4c-4.3,0-7.1,1.4-8.5,3.6
	c2.2-3.6,4.8-7,7.8-10c17.8-17.8,32.7-24.9,54.8-24.9c23.5,0,42.7,7.1,57.6,22c6.4,6.4,7.8,10.7,7.8,14.9
	C199.4,84.4,195.8,90.1,191.5,94.4L191.5,94.4z"/>
<path class="st1" d="M82,142.8c-0.2,3.1-2.6,5.5-5.7,5.7c-3.1,0-5.7-2.5-5.7-5.7s2.5-5.7,5.7-5.7C79.3,137.3,81.7,139.7,82,142.8z"
	/>
<path class="st1" d="M104.7,116.5c-0.2-6.2-5.2-11.2-11.4-11.4v5.7c3.1,0,5.7,2.6,5.7,5.7c0,3.1-2.5,5.7-5.7,5.7
	c-3.1-0.2-5.5-2.6-5.7-5.7H82c0,6.3,5.1,11.4,11.4,11.4C99.6,127.8,104.7,122.7,104.7,116.5L104.7,116.5z"/>
<path class="st1" d="M139.6,110.8c-3.1,0-5.7-2.6-5.7-5.7c0-3.1,2.5-5.7,5.7-5.7v-5.7c-6.2,0.2-11.2,5.2-11.4,11.4
	c0,6.3,5.1,11.4,11.4,11.4c6.3,0,11.4-5.1,11.4-11.4h-5.7C145.3,108.6,143.1,110.8,139.6,110.8z"/>
<path class="st1" d="M96.9,157.7c0.2,6.2,5.2,11.2,11.4,11.4v-5.7c-3.1,0-5.7-2.5-5.7-5.7s2.5-5.7,5.7-5.7v-5.7
	C102.1,146.5,97.1,151.5,96.9,157.7z"/>
<path class="st1" d="M119,134.3c0,5.9,4.8,10.7,10.7,10.7c5.9,0,10.7-4.8,10.7-10.7c0-5.9-4.8-10.7-10.7-10.7l0,0
	C123.8,123.7,119.1,128.4,119,134.3z"/>
<path class="st2" d="M123.9,134.3c0,3.1,2.5,5.7,5.7,5.7s5.7-2.5,5.7-5.7s-2.5-5.7-5.7-5.7C126.6,128.8,124.1,131.2,123.9,134.3z"/>
<path class="st1" d="M63.5,170.5c0.1,5.8,4.8,10.5,10.7,10.7c5.9,0,10.7-4.8,10.7-10.7c0-5.9-4.8-10.7-10.7-10.7c0,0,0,0,0,0
	c-5.8-0.1-10.6,4.5-10.7,10.3C63.5,170.3,63.5,170.4,63.5,170.5z"/>
<path class="st2" d="M68.4,170.5c0.2,3.1,2.6,5.5,5.7,5.7c3.1,0,5.7-2.5,5.7-5.7s-2.5-5.7-5.7-5.7c-3.1,0-5.6,2.4-5.7,5.5
	C68.4,170.4,68.4,170.5,68.4,170.5z"/>
</svg>
