<svg id="Layer_1" data-name="Layer 1" xmlns="http://www.w3.org/2000/svg" viewBox="0 0 250 250"><defs><style>.cls-1{fill:#f9e8a0;}.cls-2{fill:red;}.cls-3{fill:#414042;}</style></defs><title>Casual Dining Other</title><path class="cls-1" d="M30.76,110s0-33.09,32.35-41.91c0,0,15.44-3.68,28.68,7.35,12.5,10.29,16.91,19.85,16.91,35.29C101.35,111.49,30.76,110,30.76,110Z"/><rect class="cls-2" x="64.59" y="40.17" width="11.76" height="45.59"/><polygon class="cls-1" points="115.32 121.79 115.32 110.02 24.88 110.02 24.88 121.79 34.44 121.79 38.85 185.02 38.85 185.02 41.06 211.49 99.15 211.49 101.35 185.02 101.35 185.02 106.5 121.79 115.32 121.79"/><rect class="cls-2" x="25.62" y="112.23" width="87.5" height="6.62"/><path class="cls-3" d="M39.59,213,33,123.26H23.41V108.55h5.15v-.74A49.09,49.09,0,0,1,38.85,81.35,41.83,41.83,0,0,1,62.38,66.64h.74V38.7H77.82V83.55H83V88H57.24V83.55h5.15V71.05C46.21,74.73,34.44,90.17,33,108.55v.74h75v-.74a41.42,41.42,0,0,0-25-36l1.47-4.41c15.44,5.88,26.47,21.32,27.21,39.71v.74h5.15v14.71H108L100.62,213Zm3.68-3.68H96.94L98.41,188H41.79Zm-2.21-25H99.15L102.09,149H44v-3.68h58.09L103.56,124H36.65Zm-14-64.71h86V113h-86Zm39.71-36h6.62V43.11H66.79Z"/><path class="cls-3" d="M39.59,213.7,32.24,124H23.41V109.29h5.88a48,48,0,0,1,9.56-28.68A44.43,44.43,0,0,1,62.38,65.91V38.7H77.09V83.55h5.15V88h-25V83.55h5.88V70.32l-.74.74c-16.18,3.68-27.94,19.12-28.68,36.76v.74l74.26-.74-.74-.74C106.5,90.91,96.94,76.94,83,71.79l1.47-4.41c16.18,5.88,27.21,21.32,27.94,39.71h5.15v14.71H108l-6.62,89.71H39.59ZM44,209.29H97.68l1.47-20.59-56.62.74Zm-2.21-25H99.15L101.35,149,44,149.73v-4.41h58.09l1.47-20.59-66.91.74Zm-14-64.71h85.29V113H27.82Zm39.71-36h6.62V43.11H68.26V83.55Z"/><path class="cls-1" d="M224.88,193.11V199a12.89,12.89,0,0,1-12.5,12.5H110.91A12.89,12.89,0,0,1,98.41,199v-5.88a4.24,4.24,0,0,1,4.41-4.41h27.94l9.56,9.56,9.56-9.56h70.59c2.21-.74,4.41,1.47,4.41,4.41Z"/><path class="cls-1" d="M224.88,163.7a4.24,4.24,0,0,1-4.41,4.41H102.82c-1.47,0-2.21-.74-3.68-1.47A5.62,5.62,0,0,1,97.68,163c0-10.29,6.62-19.12,16.18-22.79l13.24,13.24a5.72,5.72,0,0,0,8.09-8.09L130,139.44h17.65l14,14a5.72,5.72,0,0,0,8.09-8.09l-5.88-5.88H181.5l14,14a5.72,5.72,0,0,0,8.09-8.09l-5.15-5.88h2.94c6.62,0,12.5,2.94,16.91,6.62a26.35,26.35,0,0,1,6.62,17.65Z"/><path class="cls-1" d="M219.74,178.41V188.7H149.88l10.29-10.29Z"/><rect class="cls-1" x="102.82" y="168.11" width="116.91" height="10.29"/><path class="cls-2" d="M203.56,145.32a5.72,5.72,0,0,1-8.09,8.09l-14-14h16.91Z"/><path class="cls-2" d="M169.74,145.32a5.72,5.72,0,0,1-8.09,8.09l-14-14h16.91Z"/><path class="cls-2" d="M160.18,178.41,149.88,188.7l-9.56,9.56-19.12-19.85Z"/><path class="cls-2" d="M135.91,145.32a5.72,5.72,0,1,1-8.09,8.09l-13.24-13.24a21.75,21.75,0,0,1,7.35-1.47H130Z"/><path class="cls-1" d="M130.76,188H102.82V177.67h18.38Z"/><path class="cls-3" d="M110.91,213a14.75,14.75,0,0,1-14.71-14.71v-5.88a7.06,7.06,0,0,1,5.15-6.62V169.58c-2.94-1.47-5.15-3.68-5.15-6.62a26.05,26.05,0,0,1,25.74-25.74h79.41A26.05,26.05,0,0,1,227.09,163a7.06,7.06,0,0,1-5.15,6.62v16.18c2.94,1.47,5.15,3.68,5.15,6.62v5.88A14.75,14.75,0,0,1,212.38,213Zm-8.09-22.79a3.16,3.16,0,0,0-2.94,2.94V199a10.05,10.05,0,0,0,10.29,10.29H212.38A10.05,10.05,0,0,0,222.68,199v-5.88a3.16,3.16,0,0,0-2.94-2.94H150.62L141.79,199c-.74,0-.74.74-1.47.74s-.74,0-1.47-.74L130,190.17Zm37.5,4.41,14.71-14-29.41-.74ZM155,185.76l62.5.74v-5.88H160.18Zm-50,0h20.59l-5.15-5.88H105Zm0-10.29h112.5v-5.88H104.29v5.88Zm8.82-32.35a21.76,21.76,0,0,0-14,20.59,3.16,3.16,0,0,0,2.94,2.94H220.47a3.16,3.16,0,0,0,2.94-2.94c0-11-8.09-20.59-19.12-21.32l1.47,2.21a8,8,0,0,1,0,11,8.95,8.95,0,0,1-11.76,0l-13.24-13.24h-11l1.47,2.21a8,8,0,0,1,0,11,8.95,8.95,0,0,1-11.76,0l-13.24-13.24h-11l1.47,2.21a8,8,0,0,1,0,11,8.95,8.95,0,0,1-11.76,0l-11-12.5Zm83.09,9.56a3.82,3.82,0,0,0,2.94,1.47,5.57,5.57,0,0,0,2.94-1.47,4.47,4.47,0,0,0,0-5.88l-5.15-5.15h-11Zm-33.82,0a3.82,3.82,0,0,0,2.94,1.47,5.57,5.57,0,0,0,2.94-1.47,4.47,4.47,0,0,0,0-5.88l-5.15-5.15h-11Zm-41.18-11H119l9.56,10.29a3.82,3.82,0,0,0,2.94,1.47,5.57,5.57,0,0,0,2.94-1.47,3.82,3.82,0,0,0,1.47-2.94,5.57,5.57,0,0,0-1.47-2.94l-5.15-5.15Z"/><path class="cls-3" d="M164.59,123.26a33.73,33.73,0,0,1-33.82-33.82,33.82,33.82,0,0,1,67.65,0A33.73,33.73,0,0,1,164.59,123.26Zm19.85-36.76a3.16,3.16,0,0,0-2.94-2.94h-11v-11a3.16,3.16,0,0,0-2.94-2.94h-5.88a3.16,3.16,0,0,0-2.94,2.94v11h-11a3.16,3.16,0,0,0-2.94,2.94v5.88a3.16,3.16,0,0,0,2.94,2.94h11v11a3.16,3.16,0,0,0,2.94,2.94h5.88a3.16,3.16,0,0,0,2.94-2.94v-11h11a3.16,3.16,0,0,0,2.94-2.94Z"/><path class="cls-1" d="M164.59,118.85A29.41,29.41,0,1,1,194,89.44,29.5,29.5,0,0,1,164.59,118.85Zm17.65-32.35A2.35,2.35,0,0,0,180,84.29h-9.56V74.73a2.35,2.35,0,0,0-2.21-2.21h-5.15a2.35,2.35,0,0,0-2.21,2.21v9.56h-9.56a2.35,2.35,0,0,0-2.21,2.21v5.15a2.35,2.35,0,0,0,2.21,2.21h9.56v9.56a2.35,2.35,0,0,0,2.21,2.21h5.15a2.35,2.35,0,0,0,2.21-2.21V93.85H180a2.35,2.35,0,0,0,2.21-2.21Z"/><path class="cls-2" d="M182.24,86.49A2.35,2.35,0,0,0,180,84.29h-9.56V74.73a2.35,2.35,0,0,0-2.21-2.21h-5.15a2.35,2.35,0,0,0-2.21,2.21v9.56h-9.56a2.35,2.35,0,0,0-2.21,2.21v5.15a2.35,2.35,0,0,0,2.21,2.21h9.56v9.56a2.35,2.35,0,0,0,2.21,2.21h5.15a2.35,2.35,0,0,0,2.21-2.21V93.85H180a2.35,2.35,0,0,0,2.21-2.21Z"/></svg>