<?xml version="1.0" encoding="utf-8"?>
<!-- Generator: Adobe Illustrator 21.1.0, SVG Export Plug-In . SVG Version: 6.00 Build 0)  -->
<svg version="1.1" id="Layer_1" xmlns="http://www.w3.org/2000/svg" xmlns:xlink="http://www.w3.org/1999/xlink" x="0px" y="0px"
	 viewBox="0 0 250 250" style="enable-background:new 0 0 250 250;" xml:space="preserve">
<style type="text/css">
	.st0{fill:#414042;}
	.st1{fill:#F9E8A0;}
	.st2{fill:#FF0000;}
</style>
<title>Casual Dining Italian</title>
<path class="st0" d="M115.6,76c0,5.4,2,8.1,4,10.8c1.3,2,2.7,3.4,2.7,6.7c0.1,1.9,1.7,3.3,3.5,3.2c1.7-0.1,3.1-1.5,3.2-3.2
	c0-5.4-2-8.1-4-10.8c-1.4-2-2.7-3.4-2.7-6.7s1.4-4.7,2.7-6.7c2-2,4-5.4,4-10.8s-2-8.1-4-10.8c-1.4-2-2.7-3.4-2.7-6.7
	c0.1-1.9-1.3-3.4-3.2-3.5c-1.9-0.1-3.4,1.3-3.5,3.2c0,0.1,0,0.2,0,0.4c0,5.4,2,8.1,4,10.8c1.3,2,2.7,3.4,2.7,6.7s-1.3,4.7-2.7,6.7
	C117.6,67.9,115.6,70.6,115.6,76z"/>
<path class="st0" d="M135.8,79.3c1.1,0,2-0.5,2.7-1.3c2-2.7,7.4-8.8,7.4-19.5c0.2-4-0.8-8-2.7-11.5c-0.7-1.3-2.7-2.7-4-1.3
	c-1.4,0.7-2.7,2.7-1.4,4c1.4,2.9,2.1,6.2,2,9.4c0,8.1-3.4,12.8-6.1,15.5c-0.5,0.5-0.8,1.3-0.7,2C132.4,77.9,133.8,79.2,135.8,79.3
	L135.8,79.3z"/>
<path class="st0" d="M104.1,91.4h1.3c1.3-0.7,2.7-2.7,1.3-4c-1.3-3.4-1.3-6.7-1.3-10.1c0-8.1,3.4-12.8,6.1-15.5l0,0
	c0.7-1.3,0.7-2.7,0-3.4c-0.7-1.3-2.7-2-4.7-0.7c-0.4,0-0.7,0.3-0.7,0.6c0,0,0,0,0,0c-2.7,2.7-6.7,8.8-6.7,18.8
	c-0.2,4,0.8,7.9,2.7,11.4C101.4,90.8,102.8,91.5,104.1,91.4L104.1,91.4z"/>
<polygon class="st1" points="57,137.9 57,152.7 63.7,178.3 81.2,199.1 98.1,208.6 153.9,209.2 173.5,194.4 188.3,173.6 192.3,154.7 
	193.6,136.5 "/>
<path class="st0" d="M196.3,134.5c-1.4-23.5-20.9-41.8-44.4-41.7c-13.3-0.2-26,5.8-34.3,16.2c-5.9-2.7-12.4-4-18.8-4
	c-19.5,0-35.7,12.1-42.4,29.6h-2.8V150c0.1,3.8,0.6,7.7,1.3,11.4c4.1,20.1,16.6,37.5,34.3,47.8v0.7c0.1,1.4,1.2,2.6,2.7,2.7h65.3
	c1.4-0.1,2.6-1.2,2.7-2.7v-0.7c21.5-12.1,35.7-35.7,35.7-61.9L196.3,134.5L196.3,134.5z M59.7,146.6v-6.1H191v6.1H59.7z
	 M107.5,131.2c-2.9-1.4-6.2-2.1-9.4-2c-5.5,0-10.9,2.2-14.8,6.1h-7.4c0.9-1.5,2.1-2.8,3.4-4c4.9-5.1,11.7-8,18.8-8.1
	c3.7-0.1,7.3,0.6,10.8,2C108.7,127.2,108.3,129.2,107.5,131.2z M160.7,134.5c-1.8-4.8-7.2-7.3-12-5.5c-2.5,0.9-4.5,2.9-5.5,5.5h-6.1
	c1.7-8.2,9.6-13.5,17.8-11.8c6,1.2,10.6,5.9,11.8,11.8H160.7z M172.8,134.5c-1.6-11.5-12.2-19.6-23.7-18c-9.4,1.3-16.7,8.6-18,18
	H125c0.8-6,3.3-11.6,7.4-16.2c4.9-5.1,11.7-8,18.9-8.1c6.7,0,14.1,2.7,18.9,8.1c4.2,4.4,6.8,10.1,7.4,16.2H172.8z M124.3,110.3
	c3.5-3.4,7.6-6.2,12.1-8.1c4.7-2.1,9.7-3.2,14.8-3.4c5.1,0.1,10.2,1.2,14.8,3.4c9.2,3.8,16.4,11,20.2,20.2c1.4,4,2.7,8.1,2.7,12.1
	h-6.1c-1.5-17.8-17.3-31.1-35.1-29.5c-15.7,1.4-28.2,13.8-29.5,29.5h-6.1c0-4,1.3-8.1,2.7-12.1C118.3,117.7,121,113.7,124.3,110.3
	L124.3,110.3z M62.4,134.5c3.8-9.2,11.1-16.4,20.2-20.2c4.7-2.1,9.7-3.2,14.8-3.3c5.1,0.1,10.2,1.2,14.8,3.4h0.7
	c-1.2,1.6-2.1,3.5-2.7,5.4c-4-1.3-8.1-2.7-12.8-2.7c-12.1,0-23.3,6.8-28.9,17.5L62.4,134.5z M152.6,205.9H98.1
	c-10.8-5.4-20.2-12.8-26.9-23.6c-5.9-9.2-9.5-19.5-10.8-30.3h2c0,1.5,1.2,2.7,2.7,2.7c1.5,0,2.7-1.2,2.7-2.7h6.1
	c0,1.5,1.2,2.7,2.7,2.7c1.5,0,2.7-1.2,2.7-2.7c0,0,0,0,0,0h6.1c0,1.5,1.2,2.7,2.7,2.7c1.5,0,2.7-1.2,2.7-2.7c0,0,0,0,0,0h6.1
	c0,1.5,1.2,2.7,2.7,2.7c1.5,0,2.7-1.2,2.7-2.7h6.1c0,1.5,1.2,2.7,2.7,2.7c1.5,0,2.7-1.2,2.7-2.7c0,0,0,0,0,0h6.1
	c0,1.5,1.2,2.7,2.7,2.7c1.5,0,2.7-1.2,2.7-2.7h6.1c0,1.5,1.2,2.7,2.7,2.7s2.7-1.2,2.7-2.7h6.1c0,1.5,1.2,2.7,2.7,2.7
	s2.7-1.2,2.7-2.7h6.1c0,1.5,1.2,2.7,2.7,2.7s2.7-1.2,2.7-2.7h10.8c0,1.5,1.2,2.7,2.7,2.7s2.7-1.2,2.7-2.7h6.1c0,1.5,1.2,2.7,2.7,2.7
	s2.7-1.2,2.7-2.7h3.4c-0.8,10.9-4.5,21.3-10.8,30.3C173.1,192.7,163.8,200.9,152.6,205.9z"/>
<rect x="59.7" y="140.6" class="st2" width="131.3" height="6.1"/>
</svg>
