<svg id="Layer_1" data-name="Layer 1" xmlns="http://www.w3.org/2000/svg" viewBox="0 0 250 250"><defs><style>.cls-1{fill:#f9e8a0;}.cls-2{fill:#414042;}.cls-3{fill:red;}</style></defs><title>Casual Dining Pizza</title><path class="cls-1" d="M149.12,194l-40-69.14a2.21,2.21,0,0,1,0-2.91,3.78,3.78,0,0,1,2.91-1.46h67c-.73-18.2-9.46-35.66-23.29-48q-2.18-2.18,0-4.37c.73-1.46,2.91-1.46,4.37-.73a72.59,72.59,0,0,1,25.47,52.4h6.55c-.73-26.93-16-50.95-37.12-64.78l-33.48,57.5a3.25,3.25,0,0,1-5.82-2.91l26.93-47.31c-9.46-5.09-20.38-7.28-31.3-7.28A63,63,0,0,0,88,59.36a2.46,2.46,0,0,1-3.64-2.18,2.46,2.46,0,0,1,2.18-3.64A75,75,0,0,1,112,49.17a81.21,81.21,0,0,1,34.21,8l2.91-5.82A80.27,80.27,0,0,0,112,41.89a80.27,80.27,0,0,0-37.12,9.46l33.48,58.23a3.25,3.25,0,0,1-5.82,2.91L75.61,66.63a66.32,66.32,0,0,0-29.84,45.85c0,1.46-2.18,2.91-3.64,2.91s-2.91-2.18-2.91-3.64C42.86,90.65,54.5,72.46,72.7,61.54l-3.64-5.82C47.22,69.55,32.67,92.84,31.94,120.49h67a2.91,2.91,0,0,1,0,5.82H44.31a64.47,64.47,0,0,0,24,48q2.18,2.18,0,4.37a3.43,3.43,0,0,1-4.37.73,72.28,72.28,0,0,1-26.2-53.13H31.94c.73,26.93,16,50.95,37.12,64.78l33.48-57.5a3.25,3.25,0,0,1,5.82,2.91L80.7,183.09c9.46,5.09,20.38,7.28,31.3,7.28A63,63,0,0,0,135.29,186a3,3,0,0,1,1.46,5.82,75,75,0,0,1-25.47,4.37,81.21,81.21,0,0,1-34.21-8L74.15,194a80.27,80.27,0,0,0,37.12,9.46c13.83,0,26.2-3.64,37.85-9.46Z"/><path class="cls-2" d="M141.11,102.3A10.92,10.92,0,1,0,152,91.38a11.19,11.19,0,0,0-10.92,10.92Z"/><path class="cls-2" d="M83.61,94.29A10.92,10.92,0,1,0,72.7,105.21,11.19,11.19,0,0,0,83.61,94.29Z"/><path class="cls-2" d="M114.91,173.62A10.92,10.92,0,1,0,104,184.54a10.72,10.72,0,0,0,10.92-10.92Z"/><path class="cls-2" d="M88,141.6a10.92,10.92,0,1,0-10.92,10.92A11.19,11.19,0,0,0,88,141.6Z"/><path class="cls-3" d="M146.21,102.3A5.82,5.82,0,1,0,152,96.48a6.26,6.26,0,0,0-5.82,5.82Z"/><path class="cls-3" d="M78.52,94.29a5.74,5.74,0,0,0-5.82-5.82c-3.64,0-5.82,2.18-5.82,5.82a6.26,6.26,0,0,0,5.82,5.82,6.26,6.26,0,0,0,5.82-5.82Z"/><path class="cls-3" d="M109.82,173.62a5.82,5.82,0,1,0-5.82,5.82,5.74,5.74,0,0,0,5.82-5.82Z"/><path class="cls-3" d="M82.89,141.6a6.26,6.26,0,0,0-5.82-5.82,5.82,5.82,0,0,0,0,11.65,6.26,6.26,0,0,0,5.82-5.82Z"/><path class="cls-1" d="M216.81,140.87H142.57l30.57,53.86c16-10.19,26.93-26.2,29.84-44.4a3,3,0,0,1,5.82,1.46A74.24,74.24,0,0,1,176,200.55l2.91,5.82c23.29-15.28,37.12-39.3,37.85-65.5Z"/><path class="cls-2" d="M74.15,162a3.13,3.13,0,0,1-2.91,2.91h-.73a2.91,2.91,0,1,1,0-5.82h.73c2.18-.73,2.91.73,2.91,2.91ZM55.23,133.59H54.5a2.91,2.91,0,1,0,0,5.82h.73a3.13,3.13,0,0,0,2.91-2.91c.73-2.18-.73-2.91-2.91-2.91Zm29.84-25.47h-.73a2.91,2.91,0,1,0,0,5.82h.73A3.13,3.13,0,0,0,88,111c.73-1.46-.73-2.91-2.91-2.91Zm18.92-40h-.73A3.13,3.13,0,0,0,100.35,71a2.67,2.67,0,0,0,2.91,2.91H104c2.18,0,3.64-.73,3.64-2.91,0-1.46-1.46-2.91-3.64-2.91Zm-45.12,40h-.73a2.91,2.91,0,1,0,0,5.82h.73a2.91,2.91,0,1,0,0-5.82Zm60.41-34.21H120a2.91,2.91,0,0,0,0-5.82h-.73A3.13,3.13,0,0,0,116.37,71a2.67,2.67,0,0,0,2.91,2.91Zm66.23,84.43H187a3.78,3.78,0,0,0,2.91-1.46l.73-.73a3.25,3.25,0,1,0-5.82-2.91l-.73.73c-.73,2.18,0,3.64,1.46,4.37ZM156.4,193.28a3.43,3.43,0,0,1-.73,4.37h0c-13.1,7.28-27.66,11.65-42.94,11.65s-29.84-4.37-42.94-11.65h0C44.31,182.36,26.84,154.7,26.84,123.4A85.36,85.36,0,0,1,69.79,49.17h0a84.16,84.16,0,0,1,42.94-11.65c15.28,0,29.84,4.37,42.94,11.65h0c25.47,15.28,42.94,42.94,42.94,74.24h0a3.13,3.13,0,0,1-2.91,2.91H117.82l3.64,6.55h0Zm-7.28.73-40-69.14a2.21,2.21,0,0,1,0-2.91,3.78,3.78,0,0,1,2.91-1.46h67c-.73-18.2-9.46-35.66-23.29-48q-2.18-2.18,0-4.37c.73-1.46,2.91-1.46,4.37-.73a72.59,72.59,0,0,1,25.47,52.4h6.55c-.73-26.93-16-50.95-37.12-64.78l-33.48,57.5a3.25,3.25,0,0,1-5.82-2.91l26.93-47.31c-9.46-5.09-20.38-7.28-31.3-7.28A63,63,0,0,0,88,59.36a2.46,2.46,0,0,1-3.64-2.18,2.46,2.46,0,0,1,2.18-3.64A75,75,0,0,1,112,49.17a81.21,81.21,0,0,1,34.21,8l2.91-5.82A80.27,80.27,0,0,0,112,41.89a80.27,80.27,0,0,0-37.12,9.46l33.48,58.23a3.25,3.25,0,0,1-5.82,2.91L75.61,66.63a66.32,66.32,0,0,0-29.84,45.85c0,1.46-2.18,2.91-3.64,2.91s-2.91-2.18-2.91-3.64C42.86,90.65,54.5,72.46,72.7,61.54l-3.64-5.82C47.22,69.55,32.67,92.84,31.94,120.49h67a2.91,2.91,0,0,1,0,5.82H44.31a64.47,64.47,0,0,0,24,48q2.18,2.18,0,4.37a3.43,3.43,0,0,1-4.37.73,72.28,72.28,0,0,1-26.2-53.13H31.94c.73,26.93,16,50.95,37.12,64.78l33.48-57.5a3.25,3.25,0,0,1,5.82,2.91L80.7,183.09c9.46,5.09,20.38,7.28,31.3,7.28A63,63,0,0,0,135.29,186a3,3,0,0,1,1.46,5.82,75,75,0,0,1-25.47,4.37,81.21,81.21,0,0,1-34.21-8L74.15,194a80.27,80.27,0,0,0,37.12,9.46c13.83,0,26.2-3.64,37.85-9.46Zm29.11-21.11h1.46a3.78,3.78,0,0,0,2.91-1.46l.73-.73a3.25,3.25,0,1,0-5.82-2.91l-.73.73c-.73,1.46-.73,3.64,1.46,4.37Zm-11.65-15.28H168a3.78,3.78,0,0,0,2.91-1.46l.73-.73a3.25,3.25,0,1,0-5.82-2.91l-.73,1.46a2.66,2.66,0,0,0,1.46,3.64ZM223.36,138a91.07,91.07,0,0,1-11.65,43.67c-7.28,13.1-18.2,23.29-31.3,30.57-.73,0-1.46.73-2.18,0-.73,0-1.46-.73-2.18-1.46l-41.49-71.33a2.21,2.21,0,0,1,0-2.91,3.78,3.78,0,0,1,2.91-1.46h83c1.46-.73,2.91.73,2.91,2.91Zm-6.55,2.91H142.57l30.57,53.86c16-10.19,26.93-26.2,29.84-44.4a3,3,0,0,1,5.82,1.46A74.24,74.24,0,0,1,176,200.55l2.91,5.82c23.29-15.28,37.12-39.3,37.85-65.5Zm-93.89,34.94h.73a2.91,2.91,0,1,0,0-5.82h-.73a2.91,2.91,0,1,0,0,5.82Zm-15.28-26.93a3.13,3.13,0,0,0,2.91,2.91h.73a2.91,2.91,0,1,0,0-5.82h-.73a3.13,3.13,0,0,0-2.91,2.91Zm3.64-57.5H112a2.91,2.91,0,0,0,0-5.82h-.73a2.91,2.91,0,0,0,0,5.82Z"/></svg>