<svg id="Layer_1" data-name="Layer 1" xmlns="http://www.w3.org/2000/svg" viewBox="0 0 250 250"><defs><style>.cls-1{fill:red;}.cls-2{fill:#f9e8a0;}.cls-3{fill:#414042;}</style></defs><title>Casual Dining Asian</title><polygon class="cls-1" points="171.84 58.09 175.52 61.03 174.78 63.97 170.37 61.03 171.84 58.09"/><path class="cls-2" d="M173.31,68.38l-18.38,47.06c-.74,0-.74-.74-1.47-.74l16.18-49.26Z"/><path class="cls-2" d="M144.64,109.56c-.74,0-.74-.74-1.47-.74l10.29-59.56,4.41,2.94Z"/><polygon class="cls-1" points="174.05 51.47 178.46 52.94 176.99 57.35 173.31 53.68 174.05 51.47"/><polygon class="cls-1" points="160.08 42.65 159.34 47.79 154.93 44.12 154.93 41.91 160.08 42.65"/><polygon class="cls-2" points="61.55 88.23 76.25 103.68 76.25 136.76 61.55 116.91 61.55 88.23"/><polygon class="cls-2" points="160.08 208.82 88.02 208.82 80.67 145.59 167.43 145.59 160.08 208.82"/><path class="cls-1" d="M86.55,210.29h75.74v-3.68h-1.47c0-.74-.74-2.21-1.47-2.21s-1.47.74-1.47,2.21h-3.68c0-.74-.74-2.21-1.47-2.21s-1.47.74-1.47,2.21h-3.68c0-.74-.74-2.21-1.47-2.21s-1.47.74-1.47,2.21H141c0-.74-.74-2.21-1.47-2.21s-1.47.74-1.47,2.21h-3.68c0-.74-.74-2.21-1.47-2.21s-1.47.74-1.47,2.21h-3.68c0-.74-.74-2.21-1.47-2.21s-1.47.74-1.47,2.21h-3.68c0-.74-.74-2.21-1.47-2.21s-1.47.74-1.47,2.21h-3.68c0-.74-.74-2.21-1.47-2.21s-1.47.74-1.47,2.21h-3.68c0-.74-.74-2.21-1.47-2.21s-1.47.74-1.47,2.21h-3.68c0-.74-.74-2.21-1.47-2.21s-1.47.74-1.47,2.21H94.64c0-.74-.74-2.21-1.47-2.21s-1.47.74-1.47,2.21H90.22C87.28,208.09,87.28,208.82,86.55,210.29Z"/><path class="cls-1" d="M170.37,144.12H77.72v3.68h2.94c0,.74.74,2.21,1.47,2.21s1.47-.74,1.47-2.21h3.68c0,.74.74,2.21,1.47,2.21s1.47-.74,1.47-2.21H93.9c0,.74.74,2.21,1.47,2.21s1.47-.74,1.47-2.21h3.68c0,.74.74,2.21,1.47,2.21s1.47-.74,1.47-2.21h3.68c0,.74.74,2.21,1.47,2.21s1.47-.74,1.47-2.21h3.68c0,.74.74,2.21,1.47,2.21s1.47-.74,1.47-2.21h3.68c0,.74.74,2.21,1.47,2.21h0c.74,0,1.47-.74,1.47-2.21H127c0,.74.74,2.21,1.47,2.21s1.47-.74,1.47-2.21h6.62c0,.74.74,2.21,1.47,2.21s1.47-.74,1.47-2.21h4.41c0,.74.74,2.21,1.47,2.21s1.47-.74,1.47-2.21h3.68c0,.74.74,2.21,1.47,2.21s1.47-.74,1.47-2.21h3.68c0,.74.74,2.21,1.47,2.21s1.47-.74,1.47-2.21h3.68c0,.74.74,2.21,1.47,2.21s1.47-.74,1.47-2.21h2.94A8,8,0,0,0,170.37,144.12Z"/><polygon class="cls-2" points="186.55 116.91 171.84 136.76 171.84 103.68 186.55 88.23 186.55 116.91"/><path class="cls-3" d="M189.49,80.88a2.7,2.7,0,0,0-2.21.74L168.9,100.74h-4.41l18.38-47.79V51.47c0-.74-.74-.74-1.47-.74l-8.09-3.68h-1.47c-.74,0-.74.74-.74,1.47l-16.91,52.21h-2.94l14-58.82V40.44c0-.74-.74-.74-1.47-.74l-9.56-2.21h-1.47c-.74,0-.74.74-.74,1.47L141.69,97.79c-5.15-1.47-11-2.94-16.91-2.94a53.74,53.74,0,0,0-24.26,5.88H79.93L61.55,81.62a2.7,2.7,0,0,0-2.21-.74c-.74,0-1.47.74-1.47,2.21v34.56c0,.74,0,.74.74,1.47l18.38,25L85.08,211c0,.74.74,1.47,2.21,1.47H163c.74,0,2.21-.74,2.21-1.47l8.09-66.91,18.38-25a2.57,2.57,0,0,0,.74-1.47V83.09a10.15,10.15,0,0,1-2.94-2.21ZM171.84,58.09,176.25,61,174.78,64,171.11,61Zm1.47,10.29-18.38,47.06c-.74,0-.74-.74-1.47-.74l16.18-49.26Zm-5.15,54.41v6.62a74.24,74.24,0,0,0-9.56-11.76l1.47-4.41a50.63,50.63,0,0,1,8.09,9.56Zm-13.24,12.5c1.47,2.21,2.94,3.68,4.41,5.88H128.46c3.68-2.21,7.35-4.41,11.76-5.15a33.21,33.21,0,0,1,14.71-.74Zm-15.44-2.94a40.08,40.08,0,0,0-17.65,8.82h-8.09a10.15,10.15,0,0,0,2.21-2.94,46.56,46.56,0,0,1,19.12-11.76c2.94-.74,5.88-1.47,9.56-2.21,2.21,1.47,4.41,3.68,6.62,5.15-3.68,1.47-8.09,1.47-11.76,2.94Zm-5.15-8.82c-8.09,2.21-14.71,6.62-20.59,12.5-1.47,1.47-3.68,3.68-4.41,5.88h-6.62a47.21,47.21,0,0,1,7.35-9.56c5.88-5.88,12.5-9.56,19.85-12.5a36.4,36.4,0,0,1,9.56,2.94c-2.21-.74-3.68,0-5.15.74Zm-27.94,5.15c-3.68,3.68-6.62,8.09-9.56,12.5H88.75c4.41-7.35,9.56-13.24,16.18-16.91a32.23,32.23,0,0,1,14-5.15,51.41,51.41,0,0,0-12.5,9.56Zm43.38-22.79c.74,0,1.47.74,2.21.74l-1.47,5.15c-.74,0-.74-.74-1.47-.74Zm-5.15,3.68c-.74,0-.74-.74-1.47-.74l10.29-59.56,4.41,2.94Zm1.47,4.41a51.09,51.09,0,0,1,19.12,18.38l2.94,5.88v2.21h-4.41c-4.41-8.82-11-16.18-18.38-20.59C138.75,116.18,132.14,114,124,114s-14.71,2.21-21.32,5.88c-7.35,4.41-14,11.76-18.38,20.59H79.93v-2.21l2.94-5.88A45.88,45.88,0,0,1,102,114a43.51,43.51,0,0,1,21.32-5.15c7.35,0,15.44,2.21,22.79,5.15Zm22.06-9.56v11l-6.62-6.62,1.47-4.41ZM174,51.47l5.15,1.47-1.47,3.68-4.41-2.94Zm-14-8.82-1.47,5.15-3.68-3.68.74-2.94ZM124,99.26a57.34,57.34,0,0,1,16.18,2.21l-.74,5.88A56,56,0,0,0,124,105.15,53.06,53.06,0,0,0,100.52,111c-8.09,4.41-15.44,11-19.85,19.12v-6.62c5.15-8.09,12.5-14,20.59-18.38,6.62-4.41,14.71-5.88,22.79-5.88Zm-31.62,5.15c-4.41,2.94-8.82,6.62-11.76,11v-11ZM61.55,88.24l14.71,15.44V137.5L61.55,117.65Zm98.53,120.59H88l-7.35-63.24h86.76Zm26.47-91.91-14.71,19.85V102.94L186.55,87.5Z"/></svg>