<svg id="Layer_1" data-name="Layer 1" xmlns="http://www.w3.org/2000/svg" viewBox="0 0 250 250"><defs><style>.cls-1{fill:#f9e8a0;}.cls-2{fill:red;}.cls-3{fill:#414042;}</style></defs><title>Casual Dining Steak &amp;amp; Rib</title><path class="cls-1" d="M238.86,112.34v27.33c0,41.9-36.43,67.4-108.39,67.4-31,0-57.38-4.55-77.42-12.75-26.41-10-41-26.41-41-44.63V122.36l41-1.82Z"/><path class="cls-2" d="M12.05,122.36c0,31.88,47.36,57.38,118.41,57.38s108.39-25.5,108.39-67.4S207.89,44,183.29,44a79.39,79.39,0,0,0-61,28.24C107.69,89.57,94,108.7,66.71,98.68S12.05,90.48,12.05,122.36Z"/><path class="cls-1" d="M130.47,166.08c-66.49,0-105.66-21.86-105.66-43.72,0-6.38.91-10,3.64-11.84,2.73-2.73,8.2-2.73,11.84-2.73,6.38,0,13.66,1.82,22.77,4.55a63.11,63.11,0,0,0,18.22,2.73c24.59,0,39.17-18.22,51-32.79l.91-.91a62.56,62.56,0,0,1,50.1-24.59c9.11,0,19.13,5.47,27.33,14.57a60.32,60.32,0,0,1,15.48,41c0,16.4-7.29,29.15-20.95,38.26C187.85,160.62,162.34,166.08,130.47,166.08Z"/><path class="cls-3" d="M181.47,169.73c-14.57,3.64-31.88,5.47-51,5.47-25.5,0-49.19-3.64-67.4-9.11q-4.1-1.37-5.47,2.73c-.91,1.82.91,4.55,2.73,5.47,20,6.38,43.72,10,70.14,10,20,0,37.34-1.82,52.83-5.47,1.82-.91,3.64-2.73,2.73-4.55C185.12,170.64,183.29,169.73,181.47,169.73Z"/><path class="cls-3" d="M194.22,41.3c-1.82-.91-4.55.91-4.55,2.73-.91,1.82.91,4.55,2.73,4.55,10.93,2.73,20.95,10.93,29.15,20.95,6.38,8.2,13.66,22.77,13.66,42.81,0,23.68-12.75,41.9-37.34,51.92a4.38,4.38,0,0,0-1.82,5.47c.91,1.82,1.82,2.73,3.64,2.73h1.82c15.48-6.38,27.33-16.4,33.7-28.24-.91,18.22-9.11,31.88-25.5,41.9-18.22,11.84-44.63,17.31-78.33,17.31S67.62,198,46.67,187c-19.13-10-30.06-22.77-30.06-36.43V146c5.47,7.29,12.75,13.66,22.77,19.13.91,0,.91.91,1.82.91a4.73,4.73,0,0,0,3.64-1.82A4.38,4.38,0,0,0,43,158.8c-17.31-9.11-26.41-21.86-26.41-34.61,0-9.11,2.73-16.4,8.2-20,8.2-5.47,23.68-5.47,41.9.91,29.15,10,44.63-10,59.21-27.33V75A73.52,73.52,0,0,1,175.1,48.58c1.82,0,3.64-1.82,3.64-4.55,0-1.82-1.82-3.64-4.55-3.64-20.95,2.73-41,12.75-54.65,29.15l-.91.91c-6.38,8.2-13.66,16.4-21.86,21.86C87.66,97.77,78.55,98.68,68.53,95c-11.84-4.55-34.61-10-49.19.91C12.05,101.41,7.5,110.52,7.5,122.36v27.33c0,17.31,12.75,32.79,34.61,43.72,22.77,10.93,52.83,17.31,88.35,17.31s63.76-6.38,82.89-18.22,29.15-30.06,29.15-52.83V112.34C242.5,74.09,217.91,47.67,194.22,41.3Z"/><path class="cls-3" d="M218.82,137.85a4.38,4.38,0,0,0,5.47-1.82c3.64-6.38,5.47-14.57,5.47-23.68,0-16.4-5.47-31.88-16.4-43.72-9.11-10-20-15.48-30.06-15.48-20.95,0-41,9.11-53.74,24.59l-.91.91c-10.93,14.57-25.5,31.88-48.28,31.88A51.58,51.58,0,0,1,64,107.79c-9.11-2.73-17.31-4.55-23.68-4.55a31,31,0,0,0-14.57,3.64c-3.64,2.73-5.47,8.2-5.47,15.48,0,9.11,5.47,18.22,17.31,26.41,10.93,7.29,26.41,13.66,44.63,17.31h.91a3.34,3.34,0,0,0,3.64-3.64c0-1.82-.91-4.55-2.73-4.55-3.64-.91-6.38-1.82-10-1.82l-5.47-14.57A3.07,3.07,0,0,0,64,138.76q-2.73,1.37-2.73,5.47l3.64,9.11c-24.59-8.2-35.52-20-35.52-30.06,0-6.38,1.82-8.2,2.73-9.11.91-1.82,4.55-2.73,8.2-2.73,2.73,0,6.38,0,9.11.91l6.38,18.22c.91,1.82,1.82,2.73,3.64,2.73h1.82Q64,131.93,64,127.83l-4.55-12.75c.91,0,1.82.91,2.73.91,6.38,1.82,12.75,3.64,19.13,3.64,7.29,0,12.75-.91,19.13-3.64l17.31,46.45c-4.55,0-10-.91-14.57-.91-1.82,0-4.55.91-4.55,3.64,0,1.82.91,4.55,3.64,4.55,9.11.91,19.13,1.82,29.15,1.82,32.79,0,59.21-5.47,75.6-16.4a3.92,3.92,0,0,0-4.55-6.38c-7.29,4.55-17.31,8.2-29.15,10.93l-8.2-22.77q-1.37-2.73-5.47-2.73-2.73,1.37-2.73,5.47l8.2,20.95a194.24,194.24,0,0,1-33.7,2.73h-5.47l-18.22-50.1C119.53,106,128.64,95,135.93,85.93l.91-.91h0l15.48,42.81c.91,1.82,1.82,2.73,3.64,2.73h1.82q2.73-1.37,2.73-5.47L143.22,78.64a59.35,59.35,0,0,1,34.61-14.57l6.38,17.31c.91,1.82,1.82,2.73,3.64,2.73h1.82q2.73-1.37,2.73-5.47l-5.47-14.57c7.29.91,15.48,5.47,21.86,12.75,9.11,10,13.66,23.68,13.66,38.26,0,7.29-1.82,13.66-4.55,20C216.09,134.2,216.09,136,218.82,137.85Z"/><path class="cls-3" d="M189.67,85q-2.73,1.37-2.73,5.47l16.4,44.63c.91,1.82,1.82,2.73,3.64,2.73h1.82q2.73-1.37,2.73-5.47l-16.4-44.63Q193.77,85,189.67,85Z"/></svg>