<?xml version="1.0" encoding="utf-8"?>
<!-- Generator: Adobe Illustrator 21.1.0, SVG Export Plug-In . SVG Version: 6.00 Build 0)  -->
<svg version="1.1" id="Layer_1" xmlns="http://www.w3.org/2000/svg" xmlns:xlink="http://www.w3.org/1999/xlink" x="0px" y="0px"
	 viewBox="0 0 181 30" style="enable-background:new 0 0 181 30;" xml:space="preserve">
<style type="text/css">
	.st0{fill:#006A3C;}
</style>
<title>Grocery</title>
<path class="st0" d="M33.7,29.3h-1.9v-6.1h2.8c1.7,0,2.6,0.8,2.6,2c0,0.8-0.5,1.5-1.2,1.8l1.5,2.4h-2.1l-1.2-1.9h-0.5L33.7,29.3z
	 M34.4,26.1c0.6-0.1,0.8-0.3,0.8-0.8s-0.3-0.7-1-0.7h-0.5v1.5L34.4,26.1z"/>
<path class="st0" d="M39.2,29.3v-6.1H44v1.5h-2.9v0.8h2.3V27h-2.3v0.8H44v1.5H39.2z"/>
<path class="st0" d="M52.1,29.3h-1.9l-0.4-1.1h-2.1l-0.4,1.1h-1.9l2.1-6.1H50L52.1,29.3z M48.7,24.6l-0.7,2.1h1.3L48.7,24.6z"/>
<path class="st0" d="M53.6,29.3v-6.1h1.9v4.6h2.4v1.6H53.6z"/>
<path class="st0" d="M59.9,29.3v-6.1h1.9v4.6h2.4v1.6H59.9z"/>
<path class="st0" d="M68.6,27.1v2.3h-1.9v-2.3l-2.1-3.9h2l1.1,2.2l1-2.2h2L68.6,27.1z"/>
<path class="st0" d="M75.1,29.3v-6.1h1.9v6.1H75.1z"/>
<path class="st0" d="M83.5,23.2h1.8v6.2h-2L81,25.8v3.5h-1.8v-6.1h2.1l2.2,3.5L83.5,23.2L83.5,23.2z"/>
<path class="st0" d="M90.9,24.8v4.6h-1.9v-4.6h-1.9v-1.6h5.7v1.6H90.9z"/>
<path class="st0" d="M97.5,29.5c-1.6,0.2-3.1-1.1-3.3-2.7c0-0.2,0-0.3,0-0.5c-0.1-1.7,1.3-3.2,3-3.2c0.1,0,0.2,0,0.3,0
	c1.6-0.2,3.1,1.1,3.3,2.7c0,0.2,0,0.3,0,0.5c0.1,1.7-1.3,3.2-3,3.2C97.6,29.5,97.5,29.5,97.5,29.5z M97.5,24.6
	c-0.9,0-1.3,0.7-1.3,1.7s0.5,1.7,1.4,1.7s1.3-0.7,1.3-1.7S98.4,24.6,97.5,24.6L97.5,24.6z"/>
<path class="st0" d="M105.5,23.2h4.7v1.6h-2.8v0.9h2.2v1.5h-2.2v2.2h-1.9V23.2L105.5,23.2z"/>
<path class="st0" d="M114.9,29.5c-1.6,0.2-3.1-1.1-3.3-2.7c0-0.2,0-0.3,0-0.5c-0.1-1.7,1.3-3.2,3-3.2c0.1,0,0.2,0,0.3,0
	c1.6-0.2,3.1,1.1,3.3,2.7c0,0.2,0,0.3,0,0.5c0.1,1.7-1.3,3.2-3,3.2C115.1,29.5,115,29.5,114.9,29.5z M114.9,24.6
	c-0.9,0-1.3,0.7-1.3,1.7s0.5,1.7,1.4,1.7s1.3-0.7,1.3-1.7S115.8,24.6,114.9,24.6L114.9,24.6z"/>
<path class="st0" d="M123.1,29.5c-1.6,0.2-3.1-1.1-3.3-2.7c0-0.2,0-0.3,0-0.5c-0.1-1.7,1.3-3.2,3-3.2c0.1,0,0.2,0,0.3,0
	c1.6-0.2,3.1,1.1,3.3,2.7c0,0.2,0,0.3,0,0.5c0.1,1.7-1.3,3.2-3,3.2C123.3,29.5,123.2,29.5,123.1,29.5z M123.1,24.6
	c-0.9,0-1.3,0.7-1.3,1.7s0.5,1.7,1.4,1.7s1.3-0.7,1.3-1.7S124,24.6,123.1,24.6L123.1,24.6z"/>
<path class="st0" d="M130.7,29.3h-2.4v-6.1h2.6c2.2,0,3.5,1.2,3.5,3S133.1,29.3,130.7,29.3z M130.7,24.7h-0.5v3.2h0.6
	c0.8,0.1,1.5-0.5,1.5-1.2c0-0.1,0-0.2,0-0.4C132.4,25.1,131.9,24.7,130.7,24.7L130.7,24.7z"/>
<path class="st0" d="M152.2,21.3h1.1v-0.9h-1.1V21.3z M157.1,19.6h-2.3l0.1,2.2h2c0.3,0,0.5-0.2,0.6-0.4c0,0,0-0.1,0-0.1
	c0,0,0-0.4-0.3-0.5c0.3-0.1,0.5-0.3,0.4-0.6C157.6,19.9,157.4,19.6,157.1,19.6 M156.2,21.4h-0.3V21h0.3c0.1,0,0.2,0.1,0.2,0.2
	C156.4,21.3,156.3,21.4,156.2,21.4 M156.5,20.4L156.5,20.4c0,0.1-0.2,0.1-0.2,0.1h-0.4v-0.5h0.4C156.4,20.1,156.5,20.2,156.5,20.4
	C156.5,20.4,156.5,20.4,156.5,20.4 M145.5,21.2h1.1v-0.9h-1.1V21.2z M148.1,21.8h2.5v-0.4h-1.6v-0.3h1.2v-0.4h-1.2v-0.4h1.6v-0.6
	H148L148.1,21.8z M143.1,20.6h-0.7v-1h-1.1l0.1,2.2h0.9V21h0.7v0.8h0.9l0.1-2.2h-1.1L143.1,20.6z M180.5,6.8l-0.1-0.3h-0.1h-0.6
	c-0.4,0-0.9,0-1.3,0c-0.3,0-0.7,0-1,0.1c-0.4,0.2-0.9,0.2-1.3,0l0,0l-0.4,0.1c-1.1,0.3-2.2,0.4-3.3,0.4l-1.1,0.1
	c-0.7,0-1.2,0.1-1.6,0.2c-0.8,0.1-1.6,0.1-2.3,0c-0.1,0-0.2,0.1-0.4,0.1c0,0-0.1,0.1-0.2,0.1s0,0-0.1-0.2V7.3h-0.1
	c-0.6,0.3-1.3,0.4-2,0.3H164c0.1-0.6,0.3-1.2,0.8-1.6c0.3-0.3,0.5-0.6,0.7-1l0,0l-0.2-0.7l-0.4,0.4c-0.3,0.2-0.6,0.4-0.9,0.8
	c-0.3,0.4-0.7,0.7-1.2,0.9h-0.1v0.1c-0.3,0.6-0.8,1-1.4,1.2c-0.3,0.1-0.5,0.2-0.8,0.4c-0.6,0.2-1.2,0.3-1.8,0.3
	c-0.6,0-1.2,0.1-1.7,0.3l0,0c-0.3,0.2-0.6,0.2-0.9,0.2c-0.4,0-0.8,0-1,0.3v0.1l0.1,0.1c0.8,0.3,1.6,0.3,2.4,0.1c0.5-0.1,1-0.1,1.4,0
	l-0.5,0.3c-0.8,0.5-1.6,0.9-2.5,1.1l0,0c-0.2,0.1-0.9,0.4-1.5,0.8s-1,0.5-1.2,0.6h-0.1l-0.5,0.1c-0.3,0.1-0.7,0.2-1,0.3l-1.5,0.6
	c-1,0.4-2.1,0.7-3.1,0.9c-0.7,0.2-1.4,0.2-2.1-0.1c0.3-0.3,0.7-0.4,1.1-0.5c0.8-0.1,1.4-0.6,1.8-1.3l0,0c0.1-0.6,0.3-0.5,0.7-0.5
	s0.8,0.1,0.9-0.7l0,0c0.1-0.6-0.2-1.2-0.7-1.5l-0.3-0.3c0.1-0.2,0.1-0.2,0.1-0.3s0.1,0,0.3,0c0.1,0.1,0.3,0.1,0.4,0.1l0,0
	c0.3-0.2,0.7-0.4,1.1-0.4c0.2,0,0.4-0.1,0.6-0.1h0.1V8c0.1-0.2,0.2-0.2,0.5-0.2c0.3,0.1,0.6-0.1,0.7-0.3l0,0l0,0
	c0.1-0.5,0-1-0.2-1.5V6h-0.1c-1.5,0.1-3,0.5-4.2,1.3c-0.6,0.1-1.1,0.3-1.6,0.7l-0.7,0.4l0.1,0.1l0.6,1.1l0,0
	c0.2,0.1,0.4,0.2,0.6,0.3c0.2,0.1,0.4,0.2,0.6,0.3c-0.4,0.5-0.9,0.8-1.5,1c-0.3,0.1-0.6,0.2-0.8,0.4l-0.7,0.4
	c-0.2,0.1-0.3,0.3-0.3,0.5c0,0.1-0.1,0.2-0.1,0.3c-0.9,0-1.7,0.2-2.5,0.4c-1.9,0.5-4,1-5.1-0.1l-0.1-0.1c-0.1-0.1-0.2-0.3-0.2-0.5
	c0-0.1,0-0.2,0.1-0.3c1.7-0.2,3.3-0.7,4.7-1.6l0,0c0.3-0.4,0.5-0.9,0.5-1.4c0-0.1,0-0.1,0-0.2c0-0.4-0.1-0.7-0.3-1
	c-0.2-0.2-0.5-0.2-0.8-0.2c-0.2,0-0.4,0-0.5-0.1l-0.1-0.1l-0.1,0.1c-0.4,0.3-1,0.5-1.5,0.6c-0.7,0.1-1.3,0.4-1.8,0.9
	c-0.3-0.1-0.6,0.2-0.9,0.5s-0.5,0.4-0.6,0.4c0,0-0.1,0-0.1-0.1c0.6-0.6,1.1-1.2,1.5-1.8c0.5-0.8,1.2-1.5,2-2.1h0.1
	c0,0-0.1-0.1-0.1-0.2l0.3-0.3c0.3-0.4,1.2-1.5,1.4-1.4h0.1V4.1c0-0.5,0.3-0.9,0.7-1.1c0.3-0.2,0.5-0.5,0.6-0.8V2.1
	c0-0.2-0.1-0.3-0.1-0.5c0-0.3,0-0.6-0.2-0.7c-0.1,0-0.2,0-0.2,0l0,0l-0.2,0.2c-0.6,0.4-1.3,0.9-1.4,1.4c-0.4,0.5-0.8,0.9-1.2,1.4
	c-0.8,1-1.6,2.1-2.2,2.3l0,0l-1.2,1.2c-0.7,0.5-1.4,1-2,1.6c-0.8,0.7-1.6,1.3-2.5,1.8l0,0l0,0c-0.4,0.5-0.9,1-1.5,1.3l-0.6,0.4
	c-0.1,0-0.2,0-0.3,0.1c-0.1,0.1-0.2,0.2-0.2,0.4c0,0.2-0.1,0.3-0.3,0.4l0,0c-0.1,0.1-0.3,0.1-0.5,0.2c-0.2,0-0.4,0.1-0.6,0.2l0,0
	c-0.3,0.4-0.8,0.5-1.3,0.5h-0.3v-0.3c0.2-0.5,0.5-1,1-1.3c0.4-0.3,0.6-0.7,0.6-1.2c0-0.3-0.1-0.7-0.2-1l0,0
	c-0.1-0.1-0.2-0.3-0.2-0.4c-0.1-0.3-0.3-0.6-0.6-0.6c-0.2-0.2-0.5-0.4-0.8-0.5c-0.4-0.2-0.7-0.4-0.9-0.7c0-0.1,0-0.2-0.1-0.2
	c-0.1,0-0.2-0.1-0.4,0.1c-0.4,0.3-0.7,0.7-0.7,1.2l0,0c-0.8,0.6-1.5,1.4-2.2,2.1c-0.7,0.9-1.6,1.7-2.6,2.3l-0.6,0.3
	c-0.4,0.2-0.8,0.3-1.2,0.4c-0.3-0.3-0.4-0.6-0.4-1c0-0.1,0-0.1,0-0.2c0.3-0.7,0.7-1.4,1.2-2l0.3-0.4l0,0c-0.1-0.5-0.1-0.6-0.3-0.7
	s-0.1,0-0.2-0.2c0.3-0.1,0.4-0.4,0.6-0.9V8.8l-0.1-0.1l-0.3-0.3c-0.2-0.2-0.5-0.5-0.7-0.4c-0.2,0-0.3,0.2-0.4,0.3l-0.7,0.1
	c-1-0.1-2.1,0.3-2.8,1c-1.8,1-3.3,2.6-4.2,4.5l0,0l0.2,0.7l0.3,0.2c0.3,0.3,0.7,0.7,1.1,0.7c0.2,0,0.3-0.1,0.4-0.3
	c0.5,0.1,0.9,0,1.3-0.3c0.2-0.1,0.4-0.2,0.6-0.3l0,0l0,0c0.1-0.2,0.2-0.2,0.4-0.2c0.1,0.1,0.2,0.1,0.4,0c0.1-0.1,0.2-0.3,0.3-0.5
	c0.3,0.1,0.6-0.2,0.8-0.5c0.1-0.2,0.3-0.4,0.6-0.5c0.2-0.1,0.3-0.1,0.3-0.1c0,0,0,0.1,0,0.1c0,0.2,0,0.3-0.1,0.5
	c0,0.3-0.1,0.5-0.1,0.8c0,0.6,0.4,1.2,1.1,1.2c0,0,0.1,0,0.1,0c0.5,0.4,1.1,0.4,1.7,0.3c0.4-0.1,0.8-0.3,1-0.6
	c1.2-0.2,2.3-0.9,2.9-1.9c0.7,0.2,1-0.7,1.3-1.4s0.5-1.3,0.9-1.2h0.1v-0.1c0.1-0.3,0.2-0.4,0.2-0.4s0.2,0.1,0.3,0.2
	c0.1,0.1,0.2,0.2,0.4,0.2l0.2,0.1c0.2,0.1,0.2,0.1,0.3,0.5v0.2c-0.7,0.8-1.1,1.8-1.4,2.8l0,0c0,0.2,0.1,0.5,0.3,0.7
	c0.1,0.1,0.2,0.3,0.2,0.4l0,0l0,0c0.4,0.4,1,0.6,1.6,0.6c0.5-0.1,1-0.4,1.3-0.8c0.2,0,0.4-0.1,0.6-0.3c0.1-0.1,0.1-0.2,0.4,0
	l0.1,0.1l0.1-0.1c0.2-0.4,0.5-0.8,1-0.9c0.3-0.1,0.7-0.2,0.9-0.5l0,0l0,0c0.3-0.7,0.4-0.7,0.7-0.7c0.4,0,0.7-0.2,0.9-0.5
	c0.1-0.2,0.3-0.3,0.5-0.3c0.4-0.1,0.6-0.2,0.7-1.1c0.3-0.2,0.6-0.4,0.9-0.6l0.2-0.2l0.4-0.4c0.1-0.1,0.1-0.1,0.2-0.2
	c0,0.1,0,0.1,0,0.2l-0.2,0.5c-0.1,0.3-0.1,0.3-0.4,0.4H133l0.1,0.2l-1.1,1.7c-0.1,0.2-0.3,0.5-0.5,0.7c-0.6,0.7-1,1.4-1.3,2.3l0,0
	l0,0l0.2,0.4c0.1,0.3,0.2,0.6,0.5,0.6c0.1,0,0.2,0,0.2,0c0.2-0.1,0.3-0.6,0.4-1c0.5-0.5,0.9-1,1.3-1.6c0.7-1,1.5-2.1,2-2.1l0,0
	c-0.1,0.2-0.1,0.3-0.1,0.5l0,0c0.4,2,1.3,3,2.9,3.5l0,0c1.5-0.2,3-0.5,4.4-1.2c0.4,0.1,0.8,0.1,1.3,0.1l0.1,0.1l0,0
	c0.1,0.3,0.2,0.5,0.4,0.7c0.3,0.3,0.7,0.6,1,0.5l0,0l0,0c0.3-0.3,0.6-0.2,1.1-0.1c0.2,0.1,0.4,0.1,0.7,0.1l0,0l0,0
	c0.5-0.5,1.2-0.8,1.9-0.9c0.3-0.1,0.7-0.2,1-0.3c0.4,0.4,0.8,0.1,1.2-0.2s0.5-0.4,0.8-0.3s0.4-0.2,0.6-0.3s0.2-0.3,0.3-0.3
	s0.1,0,0.1,0.2v0.1h0.1c0.4,0.1,0.9-0.4,1.2-0.7c0.2,0,0.3-0.1,0.5-0.1c0.2,0,0.4,0,0.6-0.1l0,0c0.7-0.6,1.5-1,2.4-1.4
	c0.7-0.3,1.4-0.7,2-1.1c0.1,0.1,0.2,0.1,0.4,0.1c0,0,0,0,0.1-0.1c-0.3,0.5-0.6,1.1-0.9,1.6s-0.6,1.2-0.9,1.6c-0.2,0.3-0.4,0.7-0.6,1
	c-0.2,0.5-0.6,1-1,1.3l0,0l0,0c-0.1,0.1-0.1,0.3-0.1,0.4c0,0.2,0.1,0.5,0.3,0.7c0.1,0.2,0.2,0.3,0.3,0.5v0.1h0.1
	c0.9-0.5,1.5-1.4,1.7-2.4c0.1-0.2,0.3-0.4,0.4-0.5c0.4-0.4,0.6-0.9,0.7-1.4l0.2-0.3c0.2-0.4,0.5-0.8,0.9-1.1l0,0l0,0
	c0.9-1.7,2.4-3.5,3.7-3.1l0,0c0.4,0,0.8,0,1.3-0.1c0.2,0,0.5,0,0.8,0c0.2,0,0.4,0,0.6-0.1c0.4-0.1,0.8-0.1,1.1,0.2l0.1,0.1l0.1-0.1
	c0.2-0.4,0.5-0.3,0.9-0.2c0.2,0.1,0.4,0.2,0.7,0.1l0,0c0.6-0.6,1.4-0.8,2.2-0.6l0,0l0,0c0.1-0.1,0.1-0.1,0.2,0
	c0.2,0.1,0.4,0.1,0.6,0.1h0.1V8.3c0.2-0.3,0.4-0.2,0.6-0.2c0.1,0.3,0.5,0.5,0.9,0.4c0.2-0.1,0.4-0.3,0.4-0.5l0,0v0.1l1.6-0.1h0.3
	c0.4,0.1,0.8,0,1-0.3c0.1,0,0.2,0,0.4,0c0.2-0.1,0.5,0,0.6,0.2l0.1,0.1l0.1-0.1c0.2-0.2,0.4-0.1,0.6,0s0.3,0.2,0.5,0.1l0.5-0.4
	l0.5-0.4l0,0C180.6,7.3,180.5,7,180.5,6.8 M114.5,10.4c-1.1,0.6-2.1,1.2-3.1,1.9c-0.7,0.4-1.4,0.9-2.1,1.3l-0.1-0.2
	c1.2-1.5,2.7-2.8,4.3-3.9c0,0.1,0.1,0.2,0.2,0.2c0.1,0,0.3-0.1,0.4-0.2s0.2-0.1,0.2-0.1l0,0l0,0h0.4c0.2-0.1,0.4-0.1,0.6,0
	C114.9,9.8,114.7,10.1,114.5,10.4 M135.6,10.5c0.3-0.2,0.7-0.4,1.1-0.5c0.5-0.2,1-0.4,1.4-0.8c0.5,0,1,0,1.5-0.2
	c-0.1,0.2-0.3,0.4-0.5,0.5c-0.2,0.1-0.4,0.2-0.5,0.4c-0.1,0-0.2,0-0.3,0c-0.3,0-0.6,0.1-0.7,0.3c-0.5-0.1-1,0-1.4,0.3L135.6,10.5
	 M159.7,9.9c0.1-0.1,0.1-0.2,0.2-0.3l0,0L159.7,9.9 M130.8,16.1L130.8,16.1z M81.7,10.5L81.7,10.5L81.7,10.5c0-1,0.3-1.2,0.6-1.4
	C82.6,9,82.8,8.7,83,8.4c0.5-0.1,0.9-0.7,1.3-1.2l0.4-0.5l0,0c0,0,0-0.1,0-0.1h0.1c0.1,0,0.2,0,0.3-0.1V6.5l-0.1-0.2
	C85,6.1,85.1,6,85.2,5.9c0.2-0.3,0.5-0.5,0.8-0.4h0.1V5.3c0.2-0.4,0.5-0.7,0.8-0.9c0.7-0.4,1.1-1.1,1.1-1.8V2.5
	C88,2.3,87.9,2,87.9,1.8c0-0.3-0.1-0.6-0.2-0.9V0.8h-0.1c-0.6-0.1-0.9,0.5-1.2,1s-0.4,0.7-0.7,0.9l0,0l0,0c-0.2,0.3-0.4,0.6-0.7,0.8
	c-0.3,0.2-0.6,0.6-0.8,0.9c-0.8,0.6-1.5,1.3-2.2,2.1c-0.9,1.1-1.9,2-3.1,2.7c-0.8,0.4-1.6,0.9-2.4,1.5c-1.1,0.8-2.2,1.4-3.5,1.9l0,0
	l0,0c-0.7,0.7-1.6,1.1-2.6,1.2c-0.1-0.1-0.3-0.4-0.3-0.7c0-0.1,0-0.1,0-0.2c0.2-0.3,0.4-0.5,0.7-0.7c0.2-0.1,0.4-0.3,0.5-0.5
	c0.2-0.2,0.4-0.5,0.4-0.8c0-0.2-0.1-0.4-0.3-0.6L71.6,10c0.3-0.1,0.4-0.4,0.5-0.8V9.1L72,9.1l-0.3-0.2c-0.4-0.3-0.9-0.6-1.3-0.5
	c-0.1,0-0.2,0.1-0.3,0.3h0.1c-1.1,0-2.2,0.5-3.1,1.3c-0.7,0.3-1.2,0.8-1.6,1.4c-0.3,0.6-0.8,1.1-1.4,1.4c-0.6,0.2-1.1,0.4-1.7,0.7
	c-0.5,0.3-0.9,0.5-1.4,0.6l0,0l0,0c-0.3,0.3-0.9,0.1-1.5,0C59.5,14,59.2,14,59,13.9l0.1-0.6c0.3-0.3,0.6-0.6,1-0.8l0.3-0.2l0,0
	c0.1-0.2,0.1-0.4,0.1-0.7c0-0.4-0.1-0.7-0.2-1.1l0,0l0,0c-0.1-0.6-1-1.1-1.6-1.3L58.4,9c-0.7-0.5-0.7-0.5-0.7-0.5
	c0-0.1-0.1-0.3-0.2-0.4V8.1h-0.3c-0.4,0.1-0.7,0.5-0.9,0.9c-0.1,0.2-0.2,0.5-0.4,0.7l-0.8,0.8c-1.1,1.3-2.3,2.4-3.7,3.3
	c-0.8,0.5-2,1-2.8-0.1c-0.1-0.3-0.1-0.6-0.1-0.9c0-0.3,0-0.5,0.1-0.8c0,0,0.1-0.6,0.1-0.7c0.1-0.2,0.2-0.4,0.3-0.7
	c0.1-0.2,0.1-0.4,0.2-0.6l0,0l0,0c0.2-0.8,0.8-1.6,1.5-2c0.3-0.2,0.7-0.3,1-0.2h0.1c0.5-0.1,1-0.1,1.4-0.1c0.9,0,1.8-0.2,2.6-0.6H57
	c0,0.1,0.1,0.1,0.1,0.1c0.1,0,0.2-0.1,0.2-0.2L57.5,7l0.1,0.1v0.1h0.1c1.5-0.3,2.9-0.4,4.4-0.5l1.8-0.2l0,0c0.2-0.1,0.4-0.1,0.7,0
	c0.4,0.1,0.8,0.2,1.1-0.3V6.1l-0.3-0.4h-0.1c-0.3,0.1-0.6,0.1-0.9,0.1l-0.1-0.1v0.2C64.2,6,64.1,6,64,6c-0.1,0-0.1,0-0.2,0l-1-0.1
	l0,0c-0.5,0.1-1.1,0.1-1.6,0c-0.6,0-1.2,0-1.8,0l0,0l0,0C59,6,58.7,6.1,58.4,6c-0.4-0.1-0.9,0-1.3,0.2c-0.8-0.2-1.6-0.2-2.4,0
	c-0.6,0.1-1.2,0.1-1.9,0.1C53,6,53.2,5.7,53.3,5.4l0,0C53.2,5,53,4.6,52.7,4.2c-0.2-0.1-0.4-0.1-0.6-0.1c-0.1,0-0.2,0.1-0.2,0.2
	C51.6,5,51.2,5.6,50.7,6l-0.5,0.5h-0.1c-0.7,0.4-1.5,0.4-2.2,0.2h-0.1h-0.1c-0.3,0.2-0.7,0.3-1.1,0.2c-0.5-0.1-1.1,0.1-1.4,0.6v0.1
	l0.1,0.1c0.5,0.5,1.3,0.8,2,0.6h0.4c-0.9,0.9-1.9,1.7-3,2.5l0,0l0,0c-0.2,0.3-0.4,0.5-0.8,0.7c-0.3,0.1-0.6,0.3-0.8,0.6
	c-0.4,0.3-0.8,0.6-1.1,1c-0.8,0.8-1.7,1.7-2.8,1.4l0,0c0-0.1,0-0.2,0-0.3c0-0.1,0-0.3,0-0.4c0-0.1,0-0.2-0.1-0.3
	c0.1-0.3,0.2-0.6,0.3-0.8l0,0l0,0c0,0,0-0.1,0-0.1c0-0.3,0.1-0.7,0.3-0.9c0.2-0.3,0.4-0.7,0.4-1.1c0,0,0-0.1,0-0.1
	c0.1,0,0.1-0.1,0.2-0.2c0-0.1,0.1-0.1,0.1-0.1l0,0V9.8c0,0,0-0.1,0-0.1c-0.1-0.4-0.3-0.8-0.5-1.1L40,8.5h-0.1l-0.2,0.1
	c-0.2,0.1-0.2,0.2-0.5-0.1l-0.1-0.1L36,11l-1.6,1.2c-0.2,0-0.4,0.1-0.5,0.2c-0.1,0.1-0.2,0.2-0.3,0.1c-0.1,0-0.1-0.1-0.2-0.2
	c0.4-1.1,0.9-2.1,1.5-3.1l0.1-0.1l-0.2-0.1c-0.1,0-0.2-0.3-0.3-0.5c-0.1-0.2-0.2-0.4-0.3-0.5l-0.1-0.1h-0.1c-2,0.9-3.8,2.1-5.4,3.6
	c-0.8,0.2-1.5,0.6-2.2,1c-0.7,0.4-1.4,0.8-2.2,1l-0.3,0.1c-0.5,0.3-1,0.4-1.5,0.2c0.2-0.3,0.6-0.5,0.9-0.7c0.8-0.2,1.3-0.8,1.6-1.6
	l0,0l0,0v-0.1c0-0.1,0-0.3,0.1-0.4c0.1-0.1,0.3-0.1,0.4-0.1c0.2,0,0.4,0,0.6-0.2c0.1-0.2,0.2-0.4,0.2-0.6c0,0,0-0.1,0-0.1
	c0-0.6-0.4-1.2-1-1.5l-0.3-0.2c0-0.2,0.1-0.3,0.1-0.3s0.1,0,0.2,0c0.1,0.1,0.3,0.1,0.5,0l0,0l0,0c0.3-0.3,0.6-0.5,1-0.5
	c0.2-0.1,0.4-0.1,0.6-0.2h0V7.5c0-0.2,0.2-0.2,0.4-0.3c0.3,0,0.6-0.2,0.7-0.4l0,0l0,0c0-0.5-0.1-0.9-0.3-1.3V5.4h-0.1
	c-1.4,0.3-2.6,1-3.6,1.9c-0.8,0.3-1.5,0.8-2.1,1.3l-0.1,0.1l0.8,1.1l0,0c0.2,0,0.5,0.1,0.7,0.2c0.2,0.1,0.4,0.2,0.6,0.2
	c-0.2,0.5-0.7,1-1.2,1.2c-0.3,0.1-0.5,0.3-0.7,0.5l0,0v0.3l-0.4,0.3c-0.4,0.2-0.8,0.6-1,1l0,0c0,0.1-0.1,0.3-0.1,0.4
	c-0.1,0.2-0.2,0.4-0.2,0.7c0,0.3,0.1,0.6,0.4,0.8l0,0c0.1,0.1,0.2,0.2,0.4,0.3c0.3,0.3,0.5,0.5,0.9,0.3l0,0l0,0
	c0.2-0.4,0.5-0.4,0.9-0.3c0.2,0,0.4,0,0.6,0l0,0l0,0c0.5-0.6,1.1-0.9,1.8-1.1c0.4-0.1,0.8-0.3,1.2-0.5c0.5,0.3,0.8,0,1.1-0.3
	s0.4-0.4,0.7-0.4s0.3-0.2,0.5-0.4s0.1-0.2,0.2-0.2s0.1,0,0.2,0.2v0.1h0.1c0.4,0,0.8,0,1-0.4v-0.1c0-0.5,0.6-0.6,1.1-0.8l0,0
	c-0.1,0.3-0.1,0.7-0.2,1c-0.2,0.6-0.3,1.2-0.4,1.8c0,0.2,0,0.3,0.1,0.5c0.4,0.6,0.8,1.1,1.3,0.9h0.1v-0.1c0.1-0.6,0.4-1,0.9-1.3
	c0.4-0.2,0.7-0.6,0.9-1c0.1,0,0.2,0,0.3-0.1c0.2,0,0.3,0,0.4-0.2c0.1-0.1,0.1-0.2,0.1-0.3l0,0c0.2-0.1,0.4-0.2,0.6-0.3
	c0.2-0.2,0.4-0.3,0.7-0.2h0.1v-0.1c0-0.1,0.1-0.1,0.2-0.2c0.1,0,0.2-0.1,0.3-0.2c0-0.1,0.1-0.1,0.1-0.2c0,0,0-0.1,0-0.1
	c0.2-0.1,0.3-0.3,0.5-0.4c0.2-0.2,0.7-0.7,0.8-0.6c0,0.4-0.1,0.8-0.2,1.1c-0.4,0.8-0.7,1.6-0.9,2.5c0,0.1,0,0.2,0.1,0.3
	c0.5,0.6,1.2,1.1,2.1,1.3l0,0l0,0c0.3-0.2,0.7-0.3,1-0.2l0.7,0.1V16c0,0,0.1-0.3,0.2-0.5v0.1c0,0.1,0.1,0.2,0.2,0.2s0.2-0.1,0.2-0.1
	l0,0c0.1-0.4,0.5-0.7,1-1c0.7-0.3,1.2-0.8,1.3-1.5c0.9-0.1,1.7-0.6,2.2-1.4c0.1,0.1,0.3,0.1,0.4,0.1c0.3-0.1,0.4-0.3,0.5-0.6
	s0.3-0.5,0.5-0.6l-0.4,1.3v0.6c0,0.6,0,1.2,0.1,1.8l0,0l0,0c0.3,0.7,0.9,1.3,1.6,1.5c0.3,0.3,0.8,0.3,1.1,0.1c0.3-0.2,0.5-0.3,0.8,0
	l0,0h0.1c0.5-0.2,1-0.5,1.3-1c1.2-0.2,2.1-1,2.6-2.1c0.1,0.1,0.3,0.1,0.5,0c0.4-0.2,0.6-0.7,0.8-1.3s0.4-1.1,0.8-1.1H57v-0.1
	c0.1-0.4,0.2-0.5,0.2-0.5s0.1,0,0.2,0.1c0.1,0.1,0.2,0.1,0.3,0.1l0.4,0.2c0.4,0.1,0.7,0.4,0.8,0.8c0,0.4-0.3,0.7-0.6,0.9
	c-0.6,0.3-0.9,0.9-1,1.6l0,0l0,0c0,0,0,0.1,0,0.1c0,0.1,0,0.3-0.1,0.4c0,0.1-0.1,0.3-0.1,0.4c0,0,0,0.1,0,0.1l0,0l0,0
	c0.8,0.7,1.8,1.1,2.8,1.1c0.3,0,0.6-0.2,0.8-0.5c0.2,0,0.4-0.1,0.6-0.2c0.2-0.2,0.3-0.2,0.4-0.1l0,0c0.5,0.1,1-0.1,1.3-0.5
	c0.1-0.1,0.3-0.2,0.5-0.3c0.1,0.6,0.6,1.7,1.1,1.8c0.1,0,0.3,0,0.4-0.1c0.4,0.1,0.7,0,1-0.3c0.2-0.1,0.3-0.3,0.5-0.3l0,0l0,0
	c0.1-0.2,0.3-0.3,0.5-0.3c0.4,0,0.7-0.3,0.8-0.7c0.3,0.1,0.5-0.2,0.6-0.4s0.2-0.4,0.4-0.4S69,13,69,13s0,0.3,0,0.4
	c-0.1,0.4,0,0.8,0.1,1.1l0.1,0.2c0.3,0.4,0.6,0.7,1.1,0.7l0,0l0,0c1-0.7,2-1.3,3.2-1.7c0.4-0.2,0.7-0.4,1-0.6c0.4-0.4,1-0.7,1.7-0.8
	h0.1v-0.1c0-0.2,0.1-0.2,0.3-0.3l0.2-0.1c0.1-0.1,0.3-0.2,0.5-0.4l0.6-0.4c0.4-0.4,0.9-0.7,1.4-1h0.1c-0.6,0.8-1.2,1.5-1.8,2.2
	l-0.1,0.1c-0.3,0.4-0.5,0.7-0.8,1.1l-0.5,0.7c-0.1,0.1-0.3,0.2-0.4,0.3c-0.2,0.1-0.3,0.3-0.4,0.4l0,0c0,0.1,0,0.1,0.1,0.2
	c0.1,0.2,0.2,0.4,0.2,0.6c0,0.2,0.1,0.4,0.2,0.5c0.2,0.1,0.4,0.1,0.6,0.1l0,0l0.3-0.2c0.3-0.3,0.7-0.5,1.1-0.7h0.1v-0.1
	c0,0,0-0.1,0-0.1c0-0.3,0.2-0.3,0.4-0.4s0.5-0.1,0.5-0.4l0,0l0,0c0-0.1,0-0.1,0-0.2c0-0.3,0.4-0.7,0.8-1.1s0.8-0.9,0.8-1.3
	c0,0,0,0,0-0.1c0-0.4,0.3-0.5,0.6-0.7c0.2-0.1,0.3-0.2,0.5-0.3 M67.3,12.7c-0.7,0.6-1.4,1.1-2.2,1.6l-0.4-0.5
	c1.2-1.5,2.7-2.7,4.4-3.7c0,0.1,0.1,0.1,0.2,0.2c0.1,0,0.3-0.1,0.4-0.2c0.1-0.1,0.2-0.1,0.2-0.1l0,0l0,0l0.4-0.1c0.2,0,0.4,0,0.6,0
	c-0.3,0.2-0.5,0.5-0.8,0.8C68.9,11.3,68,12,67.3,12.7 M22.3,10.7L22.3,10.7c0.1,0,0.3,0,0.3-0.1s0-0.2-0.1-0.3l-0.1-0.1h-0.1
	c-1.8,0.9-3.6,1.8-5.5,2.6c-0.5,0.1-1,0.3-1.4,0.5c-0.8,0.4-1.7,0.6-2.6,0.7l0,0C10.9,14.7,9,15.4,7,15.9c-0.4,0-0.8,0-1.1,0.1
	c-1,0.3-2.1,0-2.8-0.8l0,0l0,0l0,0C3,15,2.8,14.8,2.7,14.7c-0.2-0.1-0.2-0.2-0.2-0.2v-0.6c0,0,0-0.1,0-0.1c0-0.1,0-0.2,0-0.3
	c0-0.1,0-0.2,0-0.3c0,0,0,0,0-0.1h0.2L2.5,13c-0.1-0.1-0.1-0.3-0.2-0.5l0,0l0,0c0.2-0.1,0.3-0.2,0.3-0.4c0.2-0.8,0.7-1.5,1.3-2l0,0
	l0,0C4,10,4.2,9.8,4.3,9.7c0.2-0.2,0.4-0.5,0.6-0.8l0.4-0.3c1.2-0.7,2.3-1.4,2.5-2c0.4-0.6,0.8-0.8,1.4-0.7h0.1V5.8
	c0.1-0.2,0.2-0.2,0.5-0.3l0.3-0.1V5.4c0-0.3,0.3-0.4,0.7-0.5c0.2,0,0.4-0.1,0.6-0.2l0,0l0-0.2C11.6,4.3,11.7,4,11.9,4
	c0.2,0.2,0.5,0.2,0.7,0.2c0.5-0.1,0.8-0.6,1.1-1C14,3.5,14.6,3.6,15,3.3c0.1-0.1,0.2-0.2,0.2-0.3c0.3-0.2,0.6-0.4,1.1-0.1h0.1h0.1
	c0.9-0.4,1.8-0.5,2.8-0.4h0.2c-0.1,0.3-0.3,0.6-0.6,0.8l-0.4,0.3l0,0h-0.1l0,0C18.1,3.8,18,3.9,17.9,4c-0.2,0.2-0.3,0.3-0.4,0.3h0
	v0.1c-0.2,0.3-0.6,0.6-1,0.7c-0.1,0-0.2,0.1-0.3,0.2c-0.3,0.3-0.7,0.5-1.1,0.6c-0.3,0.1-0.6,0.3-0.9,0.4c-0.1,0.1-0.1,0.1-0.1,0.2
	c0,0.1,0.1,0.2,0.3,0.3c0.1,0,0.1,0.1,0.2,0.2V7h0.1c0.7-0.1,1.4-0.4,2.1-0.7c1.8-0.7,3.3-1.7,4.6-3.1l0,0l0,0
	c0-0.2,0.2-0.4,0.3-0.5C21.9,2.6,22,2.4,22,2.2l0,0l0,0c-0.1-0.3-0.4-0.5-0.7-0.7c-0.3-0.1-0.5-0.4-0.6-0.7l0,0l0,0
	c-0.5-0.4-1.2-0.5-1.8-0.2c-0.2,0.1-0.4,0.1-0.7,0.1h0c-0.5,0.2-1.1,0.3-1.6,0.4c-0.8,0.1-1.6,0.3-2.3,0.7c-1.4,0.3-2.7,0.9-3.9,1.7
	h-0.1C9.6,3.6,9,4,8.6,4.6C6.3,5.8,4.1,7.4,2.4,9.3L2.1,9.6c-0.3,0.2-0.5,0.5-0.5,0.9c0,0,0,0,0,0.1c-0.5,0.2-0.6,0.8-0.7,1.4
	l-0.1,0.6c-0.1,0.2-0.2,0.4-0.2,0.7c0,0.3,0.1,0.7,0.2,1c0.1,0.4,0.2,0.8,0.2,1.1v0.1l0,0c1.5,1.9,2.7,2.7,3.6,2.4
	c0.6,0.3,1.4,0.3,2-0.1c0.7,0,1.5-0.1,2.1-0.5c0.6-0.4,1.3-0.5,2-0.4l0,0l0,0c0.5-0.3,1.1-0.5,1.7-0.6c0.7-0.1,1.4-0.4,2-0.8
	c0.4-0.1,0.8-0.2,1.2-0.4c0.3-0.1,0.5-0.3,0.8-0.4l0.2-0.1c0.3-0.1,0.5-0.2,0.6-0.5c0.1,0,0.2-0.1,0.3-0.1c0.2,0,0.5-0.1,0.5-0.4
	c0.3,0,0.7-0.1,0.9-0.4c0.1-0.1,0.3-0.2,0.4-0.3c0.4-0.2,0.7-0.3,1.1-0.4c0.9-0.1,1.7-0.7,2.1-1.5 M107.3,16.5
	c-0.2,0.1-0.5,0.1-0.8,0.2c0,0,0-0.1-0.1-0.1c-0.1-0.1-0.2,0-0.3,0.1l0,0c-0.1,0-0.3,0-0.8,0.1h-0.2c-0.5,0.1-1,0.2-1.5,0.2l0,0
	c0-0.2,0-0.4-0.1-0.5c0-0.2,0-0.3-0.1-0.5c0-0.1,0-0.2,0.1-0.3l0,0l0,0c0-0.2,0.1-0.4,0.2-0.6c0.2-0.3,0.3-0.6,0.3-0.9
	c0-0.1,0-0.1,0-0.2c0,0-0.1-0.1-0.1-0.1l0.1-0.1c0.2,0,0.3-0.4,0.4-0.9l0.1-0.4l0.2-0.4c0-0.1,0.1-0.2,0.1-0.3l0.1-0.1
	c0.4-0.5,0.7-1.1,0.8-1.7l0.1-0.4c0-0.1,0.1-0.4,0.1-0.4l0,0l0.1,0.1l0.1-0.1l0.2-0.3c0.2-0.2,0.4-0.5,0.4-0.8l0.3-0.4
	c0.3-0.5,0.6-1,0.8-1.5l0,0c0,0,0-0.1,0-0.1c0-0.2,0.1-0.4,0.2-0.5c0.2-0.2,0.2-0.4,0.3-0.6c0,0,0.1,0,0.1,0
	c0.2-0.1,0.2-0.4,0.3-0.8s0.1-0.7,0.2-0.7l-0.1-0.2l0,0c-0.1-0.1-0.2-0.2-0.2-0.2c-0.2-0.2-0.3-0.4-0.5-0.4L108,2.8l0,0
	c0,0,0,0,0,0.1c0,0-0.2,0-0.2,0s-0.3-0.1-0.4,0c-0.1,0.1-0.1,0.1-0.1,0.2c-0.4,0-0.8,0.2-1.1,0.6c-0.2,0.2-0.4,0.3-0.6,0.4
	c-0.2,0.1-0.3,0.2-0.4,0.3c-0.2,0.3-0.4,0.4-0.5,0.3h-0.1h-0.1c-0.4,0.3-0.8,0.6-1.2,0.8c-0.6,0.3-1.2,0.8-1.6,1.3
	c-0.5,0.3-1,0.6-1.4,1l-0.6,0.5c-0.4,0.1-0.8,0.3-1,0.6c-0.4,0.4-0.8,0.8-1.4,0.4c-0.3-0.2-0.5-0.6-0.4-1c0-0.1,0-0.2,0-0.3
	s0-0.2,0-0.3s0-0.2,0-0.4c0.2-0.1,0.2-0.4,0.2-0.6s0-0.5,0.1-0.5h0.1V6.1c0.1-0.4,0.2-0.8,0.2-1.3c0-0.2,0-0.4-0.1-0.5l0.2-0.6V3.7
	c-0.2-0.7-0.3-1.5-0.3-2.2c0-0.1,0-0.2,0-0.3V1.1V1c-0.3-0.5-0.6-0.5-0.8-0.5c-0.7,0.1-1.4,1.3-1.5,2c-0.2,0.4-0.5,0.8-0.9,1
	c-0.4,0.2-0.7,0.5-0.9,0.9c-0.8,0.6-1.5,1.4-2.1,2.3c-0.5,0.8-1.1,1.5-1.9,2.2c-0.6,0.3-1.1,0.8-1.4,1.5c-0.2,0.7-0.7,1.2-1.3,1.5
	c-0.3,0.2-0.6,0.5-0.7,0.9c-0.2,0.4-0.3,0.7-0.7,0.6h-0.1l0,0c-0.4,0.4-0.7,0.8-0.9,1.3c-0.3,0.4-0.6,0.9-0.9,1.3
	C83.2,15.9,83,16,83,16c0,0,0,0.1,0,0.1c0,0,0,0.1,0,0.1c0,0,0,0.1,0,0.1c0,0.1-0.1,0.2-0.1,0.2c-0.3-0.1-0.5,0.2-0.7,0.5
	c-0.2,0.3-0.4,0.5-0.7,0.7L81.4,18V18c0.1,0.4,0.4,0.7,0.6,0.9c0.6,0.4,1-0.1,1.4-0.4l0.1-0.1c0.3-0.2,0.5-0.5,0.7-0.9
	c0.1-0.3,0.3-0.5,0.5-0.7l0,0c0.5-0.7,0.9-1.1,1-1.1h0.1v-0.1c0.1-0.2,0.2-0.5,0.4-0.6c0.2-0.1,0.3-0.2,0.4-0.4l0,0
	c0.1-0.4,0.4-0.7,0.8-0.9h0.1l0,0c0-0.2,0.2-0.4,0.4-0.4c0.3-0.2,0.5-0.4,0.6-0.8c0.3-0.1,0.5-0.3,0.7-0.6c0.1-0.2,0.2-0.3,0.3-0.4
	c0.3-0.1,0.4-0.3,0.4-0.6c0-0.2,0.2-0.4,0.4-0.5c0.2-0.1,0.4-0.3,0.6-0.5c0.1-0.2,0.2-0.3,0.4-0.4l0,0l0.3-0.3
	c0.1-0.1,0.2-0.2,0.3-0.3c0.3-0.1,0.5-0.3,0.6-0.6c0.2-0.3,0.2-0.4,0.3-0.3h0.1l0,0c0.4-0.3,0.7-0.6,0.9-1c0.2-0.4,0.4-0.6,0.8-0.6
	h0.1l0.3-0.5c0.2-0.4,0.5-0.9,0.8-1.2c-0.1,0.5-0.1,1-0.1,1.6c0,0.4,0,0.7,0,1.1l0,0l0,0c0,0.1,0.1,0.1,0.1,0.2
	c0,0.1-0.1,0.3-0.1,0.4c-0.1,0.2-0.1,0.4-0.1,0.6c0,0.1,0,0.2,0,0.2l0,0l0,0c0.1,1,0.5,2,1.2,2.9l0,0l0,0c0.4,0,1.6-0.2,1.9-0.9
	l0.3,0.2l0.1-0.1c0.1-0.3,0.4-0.5,0.8-0.4c0.2,0,0.5,0,0.7-0.2l0,0l0,0c0.1-0.2,0.3-0.4,0.6-0.4c0.2,0,0.5-0.1,0.6-0.3l0.4-0.6
	c0.3-0.5,0.5-0.8,0.9-0.7h0.1V8.1c0.8-1,1.8-1.8,3-2.3l0.3-0.2c-0.4,0.8-0.9,1.6-1.4,2.4c-0.4,0.7-0.9,1.4-1.3,2.2
	c-0.1,0.2-0.2,0.4-0.3,0.6c-0.1,0.1-0.2,0.3-0.2,0.5c0,0,0,0,0,0.1l0.1,0.1c0,0.1,0,0.1,0,0.2c0,0,0,0.1,0,0.1l0,0
	c-0.1,0-0.1,0-0.2,0c-0.1,0.1-0.2,0.3-0.2,0.5v0.2l-0.1,0.2c-0.2,0.2-0.3,0.4-0.3,0.7c0,0.1,0,0.1,0.1,0.2c0,0.1,0,0.2,0.1,0.3
	c0,0,0,0,0,0.1c-0.1,0-0.1,0-0.1,0.1c-0.2,0.4-0.3,0.9-0.3,1.3c0,0.1,0,0.3,0,0.4l-0.1,1.2l0,0c0,0.8,1,1.3,1.4,1.3l0,0l0,0l0,0
	c0.7,0.1,1.4,0,2-0.3l0,0c0.1-0.1,1.1-0.7,2.3-1.4c0.1-0.1,0.1-0.2,0.1-0.2s-0.1-0.1-0.6,0.1 M160.6,14.4c-0.6,0-1.1,0.5-1.1,1.1
	s0.5,1.1,1.1,1.1c0.6,0,1.1-0.5,1.1-1.1C161.7,14.9,161.2,14.4,160.6,14.4C160.6,14.4,160.6,14.4,160.6,14.4 M160.6,16.4
	c-0.5,0-0.9-0.4-0.9-0.9s0.4-0.9,0.9-0.9c0.5,0,0.9,0.4,0.9,0.9c0,0,0,0,0,0C161.5,16,161.1,16.4,160.6,16.4
	C160.6,16.4,160.6,16.4,160.6,16.4 M161.1,15.3c0-0.2-0.1-0.3-0.4-0.3h-0.5v1.1h0.2v-0.5h0.2l0.3,0.5h0.2l-0.4-0.6
	C160.9,15.5,161.1,15.4,161.1,15.3c0-0.1,0-0.1,0-0.1 M160.4,15.4V15h0.9c0.1,0,0.3,0,0.3,0.2s-0.1,0.2-0.3,0.2H161L160.4,15.4z"/>
</svg>
