<?xml version="1.0" encoding="utf-8"?>
<!-- Generator: Adobe Illustrator 21.1.0, SVG Export Plug-In . SVG Version: 6.00 Build 0)  -->
<svg version="1.1" id="Layer_1" xmlns="http://www.w3.org/2000/svg" xmlns:xlink="http://www.w3.org/1999/xlink" x="0px" y="0px"
	 viewBox="0 0 178.5 126" style="enable-background:new 0 0 178.5 126;" xml:space="preserve">
<style type="text/css">
	.st0{fill:#B6053B;}
	.st1{fill:#B4063B;}
	.st2{fill:#095C7E;}
</style>
<title>Casual dining</title>
<path class="st0" d="M47.5,121.6c0-1.1,0-2.2,0-3.3c0-0.3,0.1-0.4,0.3-0.3c0.5,0,1,0,1.4,0c0.3,0,0.4,0.1,0.4,0.4s-0.1,0.4,0.1,0.5
	s0.3-0.1,0.4-0.2c1.3-1,3.6-1.1,4.6,0.2c0.2,0.3,0.3,0.1,0.5-0.1c1.1-1,2.7-1.2,4-0.6c0.7,0.3,1.2,1,1.3,1.8c0.1,1.7,0,3.4,0.1,5.1
	c0,0.2-0.1,0.3-0.3,0.3c-0.6,0-1.1,0-1.6,0c-0.3,0-0.4-0.1-0.4-0.4c0-1.3,0-2.5,0-3.8c0-0.1,0-0.3,0-0.4c0-0.8-0.3-1.3-0.9-1.4
	c-0.8-0.2-1.6,0.2-1.9,1c-0.2,0.4-0.2,0.9-0.2,1.4c0,1.1,0,2.1,0,3.2c0,0.3-0.1,0.5-0.4,0.5c-0.5,0-1,0-1.5,0
	c-0.3,0-0.4-0.1-0.4-0.4c0-1.3,0-2.6,0-3.8c0-0.3,0-0.7-0.1-1c0-0.5-0.5-0.8-0.9-0.8c-1.3-0.1-2,0.5-2,1.9c0,1.2,0,2.4,0,3.6
	c0,0.3-0.1,0.4-0.4,0.4c-0.5,0-1,0-1.6,0c-0.3,0-0.4-0.1-0.4-0.4C47.5,123.8,47.5,122.7,47.5,121.6z"/>
<path class="st0" d="M149,125.3c-0.7,0-1.3,0-1.9,0c-0.3,0-0.4-0.3-0.4-0.5s-0.2-0.3-0.5-0.1c-1.1,0.8-2.6,1-3.9,0.5
	c-0.9-0.2-1.5-1.1-1.5-2c0.1-0.9,0.8-1.7,1.7-1.9c1.1-0.3,2.2-0.4,3.2-0.6c0.2-0.1,0.5,0,0.5-0.3c0.1-0.3,0-0.7-0.3-0.9
	c-0.9-0.4-2-0.2-2.7,0.5c-0.1,0.1-0.2,0.2-0.3,0.2l-1.6-0.2c-0.2,0-0.3-0.1-0.2-0.4c0.4-0.8,1.1-1.4,2-1.6c1.2-0.2,2.3-0.2,3.5,0
	c1.3,0.3,2,1.3,1.8,2.8c-0.1,1-0.1,2.1,0,3.1C148.7,124.4,148.8,124.9,149,125.3z M146.2,122.5c0-0.2,0-0.3,0-0.4s-0.1-0.3-0.2-0.2
	c-0.8,0.1-1.6,0.3-2.3,0.5c-0.3,0.1-0.5,0.3-0.6,0.7c0,0.3,0.1,0.7,0.4,0.9c0.6,0.4,1.3,0.4,1.9,0
	C146,123.7,146.3,123.1,146.2,122.5z"/>
<path class="st0" d="M120.6,122c0,0.7,0,1.5,0.1,2.2c0.1,0.3,0.2,0.6,0.3,0.8c0.1,0.2,0,0.3-0.2,0.3c-0.5,0-1,0-1.6,0
	c-0.2,0-0.5-0.1-0.5-0.4c0,0,0,0,0,0c-0.1-0.3-0.2-0.4-0.5-0.2c-1.1,0.8-2.6,1-3.9,0.5c-1-0.3-1.6-1.3-1.4-2.4
	c0.1-0.3,0.2-0.5,0.4-0.7c0.5-0.5,1.2-0.9,2-0.9c0.9-0.2,1.7-0.3,2.5-0.5c0.2,0,0.5,0,0.5-0.3c0.1-0.4-0.1-0.7-0.4-0.9
	c-0.1-0.1-0.3-0.1-0.4-0.1c-0.4,0-0.9,0-1.3,0c-0.3,0-0.6,0.2-0.8,0.5c-0.1,0.2-0.3,0.3-0.6,0.3l-1.4-0.2c-0.2,0-0.3-0.1-0.2-0.4
	c0.4-0.9,1.3-1.6,2.3-1.7c1.2-0.2,2.5-0.2,3.6,0.2c0.9,0.2,1.5,1,1.4,1.9C120.6,120.7,120.6,121.3,120.6,122z M118.3,122.3
	c-0.1-0.1,0.3-0.6-0.3-0.5c-0.7,0.1-1.5,0.3-2.2,0.5c-0.4,0.1-0.7,0.4-0.7,0.8c0,0.4,0.3,0.8,0.7,0.9c0.9,0.4,2-0.1,2.3-1
	C118.3,122.8,118.3,122.6,118.3,122.3L118.3,122.3z"/>
<path class="st0" d="M41.5,125.3h-2c-0.3,0-0.3-0.3-0.4-0.4s-0.2-0.4-0.5-0.2c-1.1,0.8-2.6,1-3.9,0.5c-0.8-0.2-1.4-1-1.4-1.9
	c0-0.9,0.6-1.7,1.4-1.9c0.7-0.2,1.4-0.4,2.1-0.5c0.5-0.1,0.9-0.2,1.4-0.3s0.6-0.3,0.4-0.8c-0.1-0.2-0.2-0.4-0.5-0.5
	c-0.9-0.4-1.9-0.1-2.6,0.6c-0.1,0.1-0.2,0.1-0.3,0.1l-1.6-0.2c-0.2,0-0.3-0.1-0.2-0.3c0.5-1,1.4-1.7,2.6-1.7c1-0.1,1.9-0.1,2.9,0.1
	c1.5,0.3,1.9,1,1.9,2.3c0,1.1,0,2.2,0,3.3C41,124.2,41.2,124.8,41.5,125.3z M38.8,122.3c-0.1-0.1,0.2-0.5-0.2-0.4
	c-0.8,0.1-1.5,0.3-2.3,0.5c-0.4,0.1-0.7,0.4-0.7,0.8c0,0.4,0.3,0.8,0.8,0.9c0.9,0.3,2-0.2,2.3-1.1C38.7,122.8,38.8,122.5,38.8,122.3
	L38.8,122.3z"/>
<path class="st0" d="M71.4,122.2c-0.8,0-1.7,0-2.5,0c-0.3,0-0.4,0.1-0.4,0.4c0.1,0.7,0.7,1.3,1.5,1.4c0.7,0.2,1.4-0.1,1.8-0.7
	c0.1-0.2,0.3-0.3,0.5-0.3c0.6,0.1,1.1,0.2,1.7,0.2c0.2,0,0.3,0.1,0.2,0.3c-0.3,0.5-0.7,1-1.2,1.3c-1.6,0.9-3.6,0.9-5.2-0.1
	c-1-0.6-1.5-1.6-1.5-2.7c-0.2-1.5,0.5-2.9,1.8-3.6c1-0.5,2.1-0.7,3.2-0.4c1.9,0.3,3.2,2,3,3.9c0,0.3-0.1,0.3-0.3,0.3L71.4,122.2
	L71.4,122.2z M70.2,121L70.2,121c0.5,0,1,0,1.5,0c0.3,0,0.3-0.1,0.3-0.3c-0.1-0.9-0.9-1.5-1.7-1.4c-0.9-0.1-1.7,0.6-1.8,1.4
	c0,0.2,0.1,0.3,0.3,0.3C69.3,121,69.8,121,70.2,121z"/>
<path class="st0" d="M127,121.6c0-1.1,0-2.2,0-3.3c0-0.3,0.1-0.4,0.4-0.4c0.4,0,0.9,0,1.3,0c0.3,0,0.4,0.1,0.4,0.4
	c0,0.2-0.1,0.4,0.1,0.5s0.3-0.2,0.4-0.3c1.2-0.9,2.8-1.1,4.1-0.4c0.7,0.3,1.2,1,1.2,1.8c0,1.6,0,3.3,0,4.9c0,0.3-0.1,0.4-0.4,0.3
	c-0.5,0-1,0-1.5,0c-0.3,0-0.4-0.1-0.4-0.4c0-1.1,0-2.1,0-3.2c0-0.4,0-0.9-0.1-1.3c-0.1-0.5-0.4-0.9-0.9-1c-0.5-0.1-1,0-1.5,0.2
	c-0.5,0.3-0.9,0.8-0.9,1.5c-0.1,1.3,0,2.5,0,3.8c0,0.4-0.1,0.6-0.5,0.5c-0.5,0-0.9,0-1.4,0c-0.3,0-0.4-0.1-0.4-0.4
	C127,123.8,127,122.7,127,121.6z"/>
<path class="st0" d="M99.5,121.7c-0.1-2,1.4-3.7,3.4-3.8c0,0,0,0,0,0c1-0.1,1.9,0,2.8,0.3c0.8,0.3,1.4,0.9,1.7,1.6
	c0.1,0.2,0.1,0.4-0.2,0.4c-0.5,0.1-1,0.2-1.5,0.2c-0.2,0-0.3,0.1-0.5-0.1c-0.3-0.8-1.2-1.2-2-0.9c-0.9,0.1-1.5,0.9-1.5,1.8
	c-0.1,0.6,0,1.1,0.2,1.7c0.2,0.6,0.8,1.1,1.5,1.1c0.8,0.2,1.7-0.3,1.9-1.2c0.1-0.2,0.2-0.2,0.4-0.2c0.5,0.1,1.1,0.2,1.6,0.2
	c0.3,0,0.3,0.1,0.2,0.4c-0.4,1.2-1.4,2-2.6,2.2c-1.4,0.4-2.9,0.1-4.1-0.7C99.9,124,99.4,122.8,99.5,121.7z"/>
<path class="st0" d="M83,119c0.2-0.2,0.4-0.4,0.5-0.5c0.8-0.7,1.9-0.8,2.8-0.4c0.2,0.1,0.2,0.2,0.1,0.3c-0.2,0.4-0.3,0.8-0.5,1.1
	c-0.1,0.2-0.2,0.2-0.3,0.1c-0.3-0.1-0.6-0.2-0.9-0.2c-0.8,0-1.3,0.6-1.4,1.6c-0.1,1.2-0.1,2.5-0.1,3.7c0,0.4-0.1,0.5-0.5,0.5
	c-0.5,0-1,0-1.6,0c-0.2,0-0.3-0.1-0.3-0.3c0-2.2,0-4.4,0-6.7c0-0.2,0.1-0.3,0.3-0.3c0.5,0,1,0,1.4,0s0.5,0.1,0.4,0.4
	C83,118.6,83,118.8,83,119z"/>
<path class="st0" d="M94.1,121.6c0,1.1,0,2.1,0,3.2c0,0.3-0.1,0.5-0.4,0.5c-0.5,0-0.9,0-1.4,0c-0.3,0-0.3-0.1-0.3-0.3
	c0-2.2,0-4.5,0-6.7c0-0.2,0-0.3,0.2-0.3c0.5,0,1.1,0,1.6,0c0.3,0,0.3,0.2,0.3,0.4C94.1,119.4,94.1,120.5,94.1,121.6L94.1,121.6z"/>
<path class="st0" d="M93.1,117c-1.1,0-1.1,0-1.1-1.1c0-0.7,0-0.7,0.7-0.7h1.2c0.2,0,0.3,0.1,0.3,0.3c0,0.4,0,0.8,0,1.2
	c0,0.2-0.1,0.3-0.3,0.3S93.3,117,93.1,117z"/>
<path class="st1" d="M127.4,0.5c0.5,0.2,0.7,0.7,0.7,1.3c-0.1,0.4-0.4,0.7-0.9,0.7c-0.4,0.1-0.8-0.1-0.9-0.5
	c0.1,0.1,0.2,0.2,0.3,0.3c0.4,0.3,0.9,0.2,1.2-0.2c0,0,0,0,0,0c0.3-0.4,0.1-0.9-0.3-1.2c-0.4-0.3-0.9-0.1-1.2,0.3
	c0,0.1-0.1,0.1-0.1,0.2c-0.1,0.3-0.1,0.5,0,0.8c-0.3-0.4-0.2-0.9,0.2-1.2c0,0,0,0,0,0c0.1-0.1,0.3-0.1,0.3-0.3L127.4,0.5z"/>
<path class="st2" d="M70.5,19.4c0.4-0.1,0.9-0.3,1.2-0.6c0.4-0.4,1-0.4,1.4-0.1c0.3,0.2,0.6,0.2,0.9,0c0.9-0.6,1.7-1.2,2.6-1.8
	c0.6-0.5,1.4-0.8,2.2-0.7c0.5,0,0.9,0.1,1.2-0.6c0.4-0.8,1.2-1.4,2.2-1.5c0.4-0.1,0.9-0.1,1.3-0.1c0.5,0,0.9,0.3,1.2,0.8
	c0.3,0.6,0.5,1.2,0.5,1.8c0.1,1.2,0,2.4-0.2,3.6c-0.1,0.7,0.1,1.3,0.6,1.8c0.2,0.1,0.3,0.2,0.1,0.4s-0.2,0.7,0.3,0.8
	s0.5,0.1,0.4,0.7c-0.1,1.3-0.4,2.6-0.7,3.9c-0.3,1-0.4,2.1-0.2,3.2c0,0.3-0.1,0.3-0.3,0.3c-0.4,0.1-0.8,0.2-1.2,0.5
	c-0.2,0.1-0.3,0.2-0.2,0.5c0.2,0.5,0.1,1.1-0.3,1.4c-0.1,0.1-0.2,0.2-0.2,0.4c-0.1,1.6-0.2,3.2-0.3,4.8c0,0.3-0.1,0.3-0.3,0.3
	c-0.9,0-1.9,0.3-2.7,0.6c-3.2,1.1-6.3,2.6-9.4,4c-0.5,0.3-1.1,0.5-1.6,0.7c-0.2,0.1-0.5,0.1-0.6-0.2c-0.3-0.3-0.5-0.7-0.8-1.1
	c-0.4-0.7-0.8-1.4-1.1-2.1c-0.2-0.5-0.6-1-1.1-1.4c-0.2-0.1-0.3-0.4-0.2-0.6c0.1-0.3,0-0.7-0.2-0.9c-0.5-0.5-0.9-1.2-0.9-1.9
	C64,36.2,64.1,36,64.3,36c0,0,0,0,0.1,0c0.2,0,0.4,0,0.3-0.3s-0.3-0.2-0.4-0.2c-0.7,0.2-0.8,0.2-1.2-0.5c-0.5-0.8-0.9-1.7-1.2-2.6
	c-0.1-0.3,0-0.3,0.2-0.5c1.1-0.8,2.1-1.6,3.1-2.5c0.2-0.2,0.5-0.4,0.4-0.5s-0.4,0-0.7,0.1c-1.2,0.5-2.4,1.2-3.5,1.8
	c-0.1,0.1-0.4,0.1-0.5,0c0,0,0-0.1-0.1-0.1c-0.3-0.4-0.5-1-0.6-1.5c0-0.3,0-0.6,0.4-0.7s0.3-0.5,0.1-0.7c-0.2-0.2-0.5-0.4-0.8-0.4
	c-0.3-0.1-0.3-0.3-0.2-0.5c0.1-0.4,0.5-0.7,0.9-0.8c1.1-0.2,2.2-0.7,3.1-1.4l0.9-0.6c1.1-0.8,2.5-0.9,3.8-0.3
	c0.5,0.2,0.5,0.2,0.7-0.3c0.1-0.4,0.1-0.8,0-1.2c-0.1-0.3,0.1-0.5,0.3-0.6c0.3-0.2,0.7-0.2,1-0.2c0.9-0.1,1.6-0.8,1.7-1.6
	c0-0.5-0.2-0.7-0.7-0.4S70.9,19.6,70.5,19.4z"/>
<path class="st1" d="M128.1,29.7c-0.2,0.1-0.4,0.2-0.6,0.4c-0.2,0.2-0.6,0.4-0.4,0.8c0.2,0.4,0.6,0.6,1,0.5c0.3-0.1,0.6-0.2,0.9-0.3
	c0.1,0,0.2-0.3,0.3,0s0.2,0.4-0.1,0.5c-0.9,0.5-1.9,1-2.9,1.4c-0.4,0.1-0.7,0.5-0.7,0.9c0,0.3,0,0.4,0.4,0.3c0.1,0,0.3,0,0.4,0
	c-0.2,0.4-0.5,0.7-0.8,0.8c-0.9,0.4-1.9,0.5-2.9,0.4c-0.5,0-1.1-0.1-1.6-0.3c-0.2,0-0.3,0-0.4,0.1c-0.8,0.4-1.7,0.6-2.5,1
	c-0.6,0.3-1.3,0.6-1.9,0.7c-0.4,0.1-0.5,0.3-0.5,0.6c0,0.1,0.1,0.3,0.2,0.3c0,0,0,0,0,0c1.1,0.3,2.3,0.3,3.4,0
	c1.3-0.4,2.6-0.6,4-0.6c0.3-0.1,0.7-0.1,1-0.1c-0.4,0.4-0.9,0.6-1.4,0.8c-3.3,0.5-6.5,1.2-9.7,2.2c-2.2,0.8-4.4,1.7-6.6,2.5
	c-0.9,0.3-1.8,0.7-2.7,1c-0.3,0.1-0.5,0.3-0.5,0.6l0,0c-0.2,0.8-0.2,0.8-1,0.9c-0.3,0-0.6,0.1-0.8,0.3c-0.7,0.5-1.6,0.9-2.5,1
	c-0.4,0.1-0.8,0.2-1.2,0.2c-0.4,0.1-0.7,0.3-1,0.6c-0.5,0.4-1,0.6-1.6,0.7c-1.2,0.4-2.3,0.6-3.5,0.9c-0.8,0.3-1.6,0.7-2.3,1.2
	c-3.9,2.3-7.7,4.8-11.5,7.2c-0.3,0.2-0.7,0.3-1,0.1c-0.6-0.3-1.1-0.7-1.7-1c-0.1-0.1-0.2-0.2-0.2-0.4c-0.1-1.8-0.6-3.5-1.5-5
	c-0.1-0.1-0.1-0.2-0.1-0.3c0.2-0.4,0.2-0.8,0.2-1.3c0-0.2,0.1-0.4,0.2-0.5c3.9-3.3,8.2-6.1,12.8-8.2c2.6-1.1,5.2-2.1,7.9-2.9
	c3.9-1.3,7.7-2.6,11.5-4.1c1.2-0.4,2.5-0.8,3.8-1c2.2-0.4,4.4-0.9,6.5-1.3c1.7-0.3,3.4-0.6,5.1-1c0.2,0,0.2,0,0.3,0.2
	c0.3,0.3,0.4,0.3,0.7,0c0.1-0.1,0.1-0.2,0.1-0.3c0.1-0.3,0.5-0.4,0.8-0.3c0,0,0.1,0,0.1,0.1c0.2,0.1,0.4,0.2,0.5-0.1
	c0.1-0.1,0.1-0.1,0.2-0.1c1.2,0,2.4-0.1,3.6-0.3L128.1,29.7z"/>
<path class="st1" d="M127.4,22.1c-1.3,0.6-2.6,1.4-3.7,2.3c-0.8,0.6-1.8,0.9-2.8,1c-0.8,0.1-1.5,0.4-2.2,0.7
	c-0.1,0.1-0.4,0.1-0.4,0.2c-0.3,0.4-0.8,0.4-1.2,0.4c-0.8,0-1.6,0.2-2.2,0.6c-0.6,0.3-1.3,0.6-2,0.7c-1.8,0.4-3.5,0.9-5.2,1.6
	c-2.4,0.8-4.8,1.8-7.1,3c-1.9,1.1-3.9,1.6-5.9,2.5c-1.3,0.6-2.6,1.1-3.8,1.7c-0.3,0.2-0.6,0.1-0.8-0.2c0,0,0,0,0-0.1
	c-0.4-0.7-0.6-1.4-0.7-2.2c-0.1-0.9-0.2-1.8-0.5-2.7c-0.3-0.6-0.4-1.4-0.2-2.1c0.1-0.3,0-0.6-0.1-0.8c-0.4-1,0.1-2.1,1.1-2.5
	c1.4-0.7,2.9-1.3,4.4-1.9c3.2-1.4,6.5-2.7,9.8-3.8c2.6-0.9,5.2-1.7,7.9-2.3c1.8-0.5,3.6-0.7,5.5-0.7c0.1,0,0.3,0,0.3-0.1
	c0.4-0.7,1-0.6,1.6-0.5c0.1,0,0.2,0,0.4,0.1c0.3,0.2,0.6,0.2,0.8-0.2c0.1-0.1,0.2-0.1,0.3-0.1c1.5-0.1,3.1-0.2,4.6-0.5
	c0.3-0.1,0.6,0,0.8,0.2c0.2,0.2,0.6,0.2,0.8,0c0,0,0.1-0.1,0.1-0.1c0.3-0.4,0.5-0.4,0.7,0.1c0.1,0.3,0.4,0.4,0.7,0.4
	c0.4,0.1,0.7,0.2,1,0.4c0.2,0.1,0.2,0.3,0.2,0.5s-0.2,0.2-0.4,0.2c-1,0.1-1.9,0.6-2.5,1.5c-0.1,0.1-0.2,0.3-0.1,0.5
	c0.1,0.1,0.3,0.2,0.5,0.2c0.4-0.1,0.7-0.1,1.1-0.2c0.1,0,0.2-0.1,0.3,0.1c0.1,0.2,0.1,0.5,0.1,0.7c0,0.1-0.2,0.1-0.3,0
	c-1.3-0.1-2.6-0.1-3.9,0.1c-1,0-2,0.2-2.9,0.7c-0.8,0.5-1.4,1.1-1.9,1.9c-0.1,0.2-0.2,0.3-0.1,0.5s0.3,0,0.4,0
	c2.4-0.6,4.7-0.9,7.1-1.4L127.4,22.1z"/>
<path class="st1" d="M125.8,3.8c-0.3,0.2-0.6,0.4-0.9,0.6c-0.2,0.2-0.3,0.3,0,0.5c0.1,0.1,0.1,0.2,0,0.3c-0.6,0.7-0.6,0.8,0.3,1.2
	c0,0,0,0,0.1,0.1c-0.2,0.2-0.4,0.4-0.7,0.5c-1.2,0.5-2.5,1-3.9,1.3c-0.2,0.1-0.3,0.1-0.5,0.2s-0.3,0.3-0.3,0.5s0.1,0.4,0.4,0.4
	c0.6,0.1,1.1,0.1,1.7,0l2.3-0.5c-0.1,0.2-0.3,0.3-0.4,0.4c-0.2,0.2-0.3,0.4-0.3,0.7c0.1,0.4-0.1,0.4-0.5,0.5c-1.5,0.1-3,0.4-4.4,1
	c-0.4,0.2-0.7,0.5-1,0.8c-0.3,0.3-0.8,0-1.2,0.3c-0.1,0.1-0.2,0.1-0.3,0.2c-0.3,0.3-0.6,0.5-1,0.1c-0.1-0.1-0.2-0.1-0.3,0
	c0,0,0,0,0,0c-0.8,0.7-1.9,1.2-3,1.4c-0.8,0.2-1.6,0.3-2.4,0.6c-1.7,0.5-3.4,1.2-5,1.9c-3,1.2-6,2.6-9,3.7c-0.4,0.1-0.7,0.4-1,0.5
	c-1,0.5-2.2,0.2-2.7-0.8c-0.1-0.2-0.2-0.5-0.2-0.8c0-0.5-0.1-1-0.3-1.4c-0.4-1.1-0.5-2.2-0.5-3.3c-0.1-0.6-0.2-1.3-0.4-1.9
	c-0.3-0.8,0.2-1.7,1.1-2c0.1,0,0.3-0.1,0.4-0.1c0.6-0.1,1.2-0.2,1.8-0.5c3.7-1.6,7.5-3,11.4-4c2.6-0.7,5.2-1.3,7.8-1.8
	s5.1-0.9,7.6-1.2c0.8-0.1,1.5-0.1,2.3-0.2c0.2,0,0.3,0,0.4,0.2c0.1,0.2,0.3,0.2,0.5,0.2c0.1,0,0.1-0.1,0.2-0.2
	c0.2-0.4,0.4-0.4,0.8-0.2C124.9,3.4,125.3,3.6,125.8,3.8z"/>
<path class="st2" d="M75.6,43.2c0.6-0.9,1.5-1.5,2.6-1.7c0.8-0.3,1.6-0.2,2.4-0.4L75.6,43.2z"/>
<path class="st2" d="M58.6,27.9c0,0.3-0.1,0.6-0.3,0.9c-0.1,0.1-0.1,0.2-0.3,0.1c-0.3-0.4-0.2-0.9,0.1-1.2c0.1-0.1,0.2-0.1,0.4-0.1
	C58.7,27.7,58.6,27.8,58.6,27.9z"/>
<path class="st2" d="M69.1,20.1c0,0.6,0,0.6-0.8,0.7C68.5,20.5,68.8,20.3,69.1,20.1z"/>
<path class="st1" d="M127.6,4.2c-0.1,0.2-0.3,0.4-0.6,0.4c-0.1,0.1-0.2,0-0.3-0.1c0,0,0,0,0,0c-0.1-0.2,0-0.2,0.2-0.3
	C127.2,4.2,127.4,4.2,127.6,4.2z"/>
<path class="st1" d="M115.8,13.9c0.2,0,0.4,0,0.6,0c0.1,0,0.3-0.1,0.3,0.1c0,0.2-0.2,0.3-0.4,0.3c0,0,0,0,0,0
	C116,14.2,116,14.1,115.8,13.9z"/>
<path class="st2" d="M64.3,23.1c0-0.2,0.1-0.3,0.1-0.5s0.1-0.1,0.2-0.1s0.1,0.2,0,0.2S64.5,23.1,64.3,23.1z"/>
<path class="st1" d="M126.6,2.1c0-0.3,0-0.6,0-0.9c0.1-0.3,0.4-0.2,0.5-0.2s0.4,0.2,0.2,0.3s0,0.5,0,0.8c-0.3-0.1-0.3-0.4-0.5-0.5
	C126.6,1.6,126.9,2,126.6,2.1z M127.3,1.3c0-0.2-0.2-0.2-0.3-0.2s-0.2,0-0.2,0.2s0.1,0.2,0.2,0.2S127.2,1.5,127.3,1.3L127.3,1.3z"/>
<path class="st2" d="M95.7,97.6c0.3-0.8,0.5-1.7,0.7-2.5c1.1-5.2,2.3-10.4,3.4-15.6c1-4.5,2-9.1,2.9-13.6c0.1-0.2,0.1-0.3,0.4-0.3
	h8.1c0.2,0,0.3,0.1,0.3,0.3c0,0.5,0,1,0,1.4c0,0.2,0,0.2-0.2,0.2c-1.6,0.2-2.8,1.5-2.7,3.1c0,2.6,0,5.2,0,7.9
	c-0.1,7.8,0,15.5-0.1,23.2c0,1.4-0.1,2.8,0,4.2c0,1,0.1,1.9,0.3,2.9c0.2,1.2,1.1,2.1,2.3,2.1c0.2,0,0.3,0.1,0.3,0.3
	c0,0.4,0,0.8,0.1,1.2s-0.1,0.3-0.3,0.3s-0.6,0-0.8,0h-10c-0.3,0-0.5-0.1-0.4-0.4c0,0,0-0.1,0-0.1c0-0.4-0.1-0.8,0-1.1s0.6-0.1,1-0.2
	c1-0.3,1.7-1.1,1.8-2.1c0.2-1.2,0.3-2.5,0.2-3.8c0-0.7,0-1.4,0-2.1c0-0.3,0-0.5,0-0.8c0-9.9,0.1-19.8,0.1-29.6c0-0.1,0-0.3-0.1-0.4
	c-0.3,1.2-0.5,2.4-0.8,3.5c-0.5,2.6-1.1,5.1-1.6,7.7c-0.7,3.3-1.4,6.6-2.1,9.9c-0.7,3.2-1.3,6.3-2,9.5s-1.3,6.4-2,9.6
	c-0.1,0.3-0.2,0.4-0.5,0.4s-0.6,0-0.7-0.4c-0.7-3.1-1.3-6.3-2-9.4c-0.5-2.4-1-4.7-1.5-7.1c-0.8-3.6-1.5-7.2-2.3-10.7
	c-0.8-3.9-1.7-7.8-2.5-11.6c0-0.1-0.1-0.3-0.2-0.5c-0.1,0.2-0.1,0.4-0.1,0.6c0,1.1,0,2.2,0,3.3c0,8.3,0,16.5,0,24.8c0,1.5,0,3,0,4.4
	c0,1.1,0.2,2.2,0.6,3.3c0.4,1,1.3,1.6,2.4,1.6c0.3,0,0.4,0.1,0.4,0.4s0,0.8,0,1.1c0,0.2,0,0.3-0.3,0.3c-2.2-0.2-4.3-0.2-6.5,0
	c-1,0.1-1.9-0.1-2.9,0c-0.6,0-1.3,0-1.9,0c-2.2,0-4.3,0-6.5,0.1c-0.2,0-0.4,0-0.6,0.1c-0.5,0-0.5,0-0.5-0.5l0,0
	c0.1-0.4-0.1-0.8,0.1-1.1s0.7-0.2,1-0.3c1.1-0.5,1.8-1.7,1.6-2.9c-0.4-2.5-0.8-5.1-1.3-7.6c-0.1-0.3-0.1-0.7-0.2-1s-0.2-0.3-0.4-0.3
	h-1.8L62.5,99c-0.3,0-0.4,0.1-0.5,0.4c-0.3,2.2-0.6,4.3-1,6.5c-0.1,0.8-0.2,1.6-0.3,2.4c-0.2,1.1,0.5,2.2,1.7,2.5
	c0.2,0.1,0.5,0.2,0.7,0.2c0.4,0,0.5,0.3,0.4,0.6s0.2,1-0.1,1.2s-0.8,0.1-1.2,0.1c-5.9-0.1-11.8-0.1-17.6-0.1c-0.3,0-0.5-0.1-0.4-0.4
	c0-0.3,0-0.7,0-1c0-0.2,0.1-0.3,0.3-0.4c1.4-0.2,2.6-1.3,2.7-2.8c0.2-0.9,0.2-1.9,0.1-2.8c-0.1-1.1,0-2.1,0-3.2c0-2.8,0-5.6,0-8.4
	c0-1.1,0-2.3,0-3.4c0-0.2-0.1-0.3-0.3-0.4c-2.5,0-4.9,0-7.4-0.1c-0.4,0-0.4,0.1-0.4,0.4c0,5.9,0,11.7,0,17.6c0,1,0.5,2,1.4,2.5
	c0.4,0.3,0.9,0.4,1.4,0.5c0.3,0,0.4,0.2,0.4,0.5s0,0.7,0.1,1s0,0.4-0.3,0.4c-2.3-0.1-4.6-0.1-6.9-0.1c-1.4,0-2.8,0-4.2,0.1
	c-0.2,0-0.3-0.1-0.3-0.3c-0.1-0.3-0.2-0.7-0.3-1c-0.1-0.3,0-0.4,0.2-0.4c0.6-0.1,1.1-0.4,1.6-0.8c0.8-0.6,1.2-1.5,1.1-2.5
	c-0.1-3,0-6,0-9c-0.1-7,0-14-0.1-20.9c0-0.9,0-1.7-0.1-2.6c0-1.1,0-2.2,0.1-3.3c0.1-1,0-2.1-0.4-3.1c-0.3-0.9-1.1-1.6-2.1-1.6
	c-0.2,0-0.3-0.1-0.3-0.3c0-0.5,0-1,0-1.4c0-0.3,0.1-0.4,0.4-0.3c0.6,0,1.2,0,1.8,0c3.1,0,6.1,0,9.2,0c0.4,0,0.5,0.1,0.5,0.5
	c0,0.4,0,0.7,0,1.1c0,0.3-0.1,0.4-0.4,0.4c-0.2,0-0.4,0-0.6,0c-0.8,0.1-1.4,0.7-1.6,1.4c-0.3,1.2-0.5,2.4-0.4,3.6
	c0,4.7,0,9.4,0,14.1c0,0.4,0.1,0.5,0.5,0.5c2.4,0,4.8,0,7.3,0c0.4,0,0.5-0.1,0.5-0.5c0-4.8,0-9.6,0-14.4c0-1-0.1-2-0.3-2.9
	c-0.2-1.1-1.2-1.9-2.3-1.8c-0.4,0-0.5-0.1-0.5-0.5c0-0.4,0-0.7,0-1.1c0-0.2,0.1-0.3,0.3-0.3h11.3c0.3,0,0.3,0.1,0.3,0.3
	c0,0.5,0,0.9,0,1.3c0,0.1,0,0.3-0.2,0.3c-1.8,0.2-2.5,1.4-2.6,3.2c-0.3,3.3-0.1,6.6-0.1,9.9c0,7.3,0,14.6,0,21.9c0,1.5,0,3,0,4.5
	c0,0.8,0.1,1.7,0.5,2.4c0.6,1.2,2.1,1.7,3.3,1.1c0.2-0.1,0.3-0.2,0.5-0.3c0.7-0.7,1.2-1.6,1.3-2.5c0.6-3.1,1.3-6.3,1.9-9.4l2.1-10.6
	l2-10.2l1.8-9.1c0.2-1.1,0.4-2.2,0.7-3.4c0-0.2,0.2-0.4,0.4-0.4c0,0,0,0,0,0c0.3,0,0.5,0,0.8-0.1s0.3,0.1,0.3,0.3
	c0.4,1.7,0.7,3.5,1.1,5.2c0.8,3.9,1.6,7.8,2.4,11.7c0.8,3.7,1.5,7.3,2.3,11c0.8,3.8,1.6,7.6,2.3,11.3c0.3,1.5,0.6,3.1,1,4.6
	c0.1,0.9,0.7,1.6,1.5,2c1.2,0.5,2.5-0.1,3-1.3c0-0.1,0.1-0.1,0.1-0.2c0.3-1.2,0.5-2.4,0.4-3.6c0-10.6,0-21.1,0-31.7
	c0-1.2,0.1-2.3,0-3.5c0-1.5-1.2-2.8-2.7-3c-0.2,0-0.3-0.1-0.3-0.4c0-0.4,0.1-0.8,0.1-1.2s0.2-0.2,0.3-0.2h3.1c1.7,0,3.3,0,5,0
	c0.3,0,0.4,0.1,0.5,0.4c0.5,2.3,1,4.6,1.5,6.9c0.4,2,0.8,4,1.3,6L94.1,90l1.5,7.1C95.7,97.3,95.7,97.4,95.7,97.6z M66.2,80.2H66
	c0,0.1-0.1,0.2-0.1,0.4l-1.6,7.4c-0.6,2.6-1.1,5.2-1.7,7.8c-0.1,0.3,0,0.4,0.3,0.4c2.1,0,4.2,0,6.3,0c0.3,0,0.4-0.1,0.3-0.4
	c-0.2-1-0.4-2-0.7-3l-2.5-11.2C66.4,81.1,66.2,80.6,66.2,80.2L66.2,80.2z"/>
<path class="st2" d="M155.6,116.1c0.1-4.5,0.1-8.9,0.1-13.4c0-0.3,0.1-0.4,0.4-0.4h0.2c0.8,0,0.8,0,0.9,0.8c0.5,3.2,0.9,6.4,1.4,9.6
	c0.2,1.1,0.6,2.1,1.1,3c0.9,2,2.2,3.8,3.8,5.3c0.6,0.6,1.3,1.1,2.1,1.3c0.9,0.1,1.9-0.1,2.6-0.6c2.5-1.3,4.1-3.7,4.5-6.5
	c0.4-2.7-0.1-5.4-1.4-7.8c-1.7-3.1-3.8-6-5.8-8.9c-1.9-2.8-4.2-5.3-6.1-8c-2.1-2.8-3.6-6-4.4-9.4c-0.3-1.4-0.4-2.7-0.3-4.1
	c0.1-1.6,0.3-3.1,0.5-4.6c0.5-3.3,1.9-6.3,4-8.8c1.4-1.7,3.3-2.8,5.4-3.3c1.5-0.3,3.1-0.1,4.6,0.6c1.6,0.7,3.1,1.6,4.5,2.7
	c0.7,0.5,1.4,0.9,2.1,1.2c0.3,0.1,0.5,0.4,0.4,0.7c-0.2,2.5-0.3,4.9-0.1,7.4c0.1,2.2,0,4.5,0.1,6.7c0,0.4-0.1,0.5-0.5,0.5
	c-0.6,0-0.6,0-0.8-0.6c-0.7-2.9-1.3-5.9-2.1-8.7c-0.6-2.3-1.8-4.5-3.4-6.3c-0.2-0.3-0.5-0.5-0.8-0.7c-1.1-1.1-2.9-1.1-4,0
	c-1,0.9-1.8,2.1-2.2,3.4c-0.7,1.9-1.1,3.9-1.3,5.9c-0.3,1.9,0,3.8,0.8,5.6c0.5,1,1,2,1.6,3c1.4,2.1,2.9,4.2,4.5,6.1
	c2.1,2.6,4.2,5.3,6.1,8.1c1.8,2.7,3,5.7,3.5,8.9c0.3,2,0.4,4,0.2,6.1c-0.2,3.4-1.3,6.8-3.1,9.7c-1.3,2.2-3.4,3.8-5.9,4.5
	c-2.4,0.7-4.9,0.4-7.1-0.8c-2.1-1.2-4.1-2.6-6-4.2c-0.1-0.1-0.2-0.3-0.2-0.5C155.6,118.2,155.6,117.2,155.6,116.1z"/>
<path class="st2" d="M27.6,109l1.4,2.2c0.1,0.1,0,0.2-0.1,0.4c-1.1,3-2.7,5.8-4.6,8.4c-1.2,1.7-2.7,3-4.5,4c-2.2,1.2-4.8,1.2-7,0.1
	c-1.8-0.8-3.3-2.1-4.5-3.6c-2.5-3.1-4.3-6.7-5.5-10.5c-0.9-2.8-1.5-5.7-1.8-8.7c-0.5-3.9-0.6-7.8-0.5-11.7c0.1-2,0.3-4,0.5-6
	c0.3-2.7,0.7-5.3,1.4-7.9c0.7-3.2,1.8-6.4,3.4-9.3c1.1-2.1,2.6-3.9,4.5-5.4c1.4-1.1,3-1.9,4.8-2.2c1.9-0.4,3.9,0,5.5,1.2
	c2.4,1.8,5,3.5,7.4,5.2c0.2,0.1,0.4,0.4,0.3,0.6c0,4.7,0,9.4,0,14.1c0,0.4-0.1,0.5-0.5,0.5c-0.9,0-0.9,0-1-0.9
	c-0.8-4.1-2-8.1-3.7-11.9c-0.7-1.7-1.8-3.3-3.2-4.6c-1-1-2.4-1.4-3.8-1.2c-1.1,0.3-2.2,0.9-2.9,1.8c-1.3,1.6-2.2,3.6-2.6,5.6
	c-0.5,2.4-0.9,4.8-1.2,7.2c-0.3,2.7-0.5,5.4-0.7,8.1c-0.1,1.5-0.1,2.9-0.2,4.4c-0.1,2.1-0.1,4.2,0,6.3c0.1,2.3,0.2,4.6,0.4,6.9
	c0.2,2.6,0.6,5.2,1.1,7.7c0.4,2.3,1.2,4.6,2.2,6.7c0.7,1.3,1.7,2.4,3,3.1c1.7,1,3.8,0.9,5.4-0.3c1.8-1.3,3.3-3,4.3-4.9
	c1-1.7,1.9-3.5,2.6-5.3C27.5,109.1,27.5,109.1,27.6,109z"/>
<path class="st2" d="M138.8,112.6c-1.8,0-3.5,0-5.2,0c-0.3,0-0.4-0.1-0.4-0.4c-0.2-0.7,0.2-1.4,0.9-1.5c0,0,0.1,0,0.1,0
	c1-0.4,1.7-1.4,1.6-2.5c0.3-8.8,0.1-17.6,0.1-26.4c0-0.2,0-0.4,0-0.6c0-3.6,0-7.2-0.1-10.9c0-1.4-0.9-2.6-2.3-2.9
	c-0.3-0.1-0.4-0.2-0.4-0.5c0-0.4,0-0.7,0-1.1c0-0.3,0.1-0.3,0.3-0.3c2.2,0,4.5,0,6.7,0c1.7,0,3.5,0.1,5.2,0.1
	c2.4-0.1,4.6,1.1,5.9,3.1c1.1,1.6,1.8,3.5,2,5.5c0.3,2.1,0.3,4.2,0.1,6.3c-0.2,2.4-0.8,4.8-1.9,6.9c-1,2-2.9,3.5-5.1,3.9
	c-1.4,0.3-2.8,0.4-4.2,0.2c-0.3,0-0.5,0.1-0.5,0.4c0,1.1,0,2.2,0,3.3c-0.1,2.7,0,5.3-0.1,8c0,1.4,0,2.9,0,4.4c-0.1,1.6,1,3,2.5,3.3
	c0.3,0.1,0.4,0.2,0.4,0.4s0.2,0.9-0.1,1.2s-0.8,0.1-1.2,0.1C141.7,112.6,140.2,112.6,138.8,112.6z M141.8,78.9L141.8,78.9
	c0,3.2,0,6.3,0,9.5c0,0.1,0,0.2,0,0.3s0.1,0.3,0.3,0.3c0.4,0,0.8,0,1.3,0c1.7-0.3,3-1.6,3.3-3.2c0.5-2,0.7-4,0.7-6.1
	c0.1-2,0-3.9-0.2-5.9c-0.1-1.3-0.4-2.6-0.8-3.8c-0.5-1.2-1.8-2-3.1-2c-0.9,0.1-1.5,0.8-1.5,1.7C141.7,72.8,141.7,75.8,141.8,78.9
	L141.8,78.9z"/>
<path class="st2" d="M118.6,112.6c-1.8,0-3.5,0-5.2,0c-0.4,0-0.4-0.1-0.4-0.4c-0.1-0.8,0-1.2,0.9-1.5c1.1-0.4,1.8-1.5,1.7-2.7
	c0.3-7.4,0.1-14.9,0.1-22.3c0-1.6,0-3.2,0-4.9c-0.1-3.4-0.1-6.9-0.1-10.4c0.1-1.4-0.9-2.7-2.4-3c-0.2,0-0.3-0.2-0.3-0.4
	c0,0,0,0,0-0.1c0-0.4,0-0.8,0-1.1c0-0.2,0.1-0.3,0.3-0.3c2.4,0,4.8,0,7.2,0.1c1.6,0.1,3.2,0,4.9,0c2.2,0,4.3,1.1,5.5,2.9
	c1.1,1.6,1.8,3.4,2.1,5.4c0.2,1.4,0.4,2.8,0.3,4.2c0,3.1-0.6,6.1-1.8,9c-0.9,2.3-3,3.9-5.4,4.3c-1.4,0.3-2.7,0.3-4.1,0.2
	c-0.3,0-0.4,0.1-0.4,0.4s0,0.6,0,0.9c-0.1,2.9-0.1,5.7-0.1,8.6c0,1.4-0.1,2.8,0,4.2c0,0.9,0,1.8,0.1,2.8c0.2,1.3,1.1,2.3,2.4,2.6
	c0.3,0.1,0.5,0.2,0.4,0.6c0,0.3,0,0.5,0,0.8c0,0.3-0.1,0.4-0.4,0.4H118.6z M121.5,78.9c0,2.9,0,5.9,0,8.9c0,0.3,0,0.6,0,1
	s0.1,0.3,0.3,0.3c0.9,0.1,1.7-0.1,2.5-0.5c1.2-0.7,2.1-2,2.2-3.5c0.3-2,0.5-4,0.5-6c0-1.3,0-2.6-0.1-3.9c-0.1-1.6-0.3-3.2-0.7-4.8
	c-0.3-1-1-1.8-1.9-2.2c-0.4-0.2-0.9-0.3-1.4-0.2c-0.9,0.1-1.5,0.8-1.5,1.7C121.5,72.8,121.5,75.8,121.5,78.9z"/>
<path class="st2" d="M176.9,63.8c-0.6,0-1.1-0.5-1.1-1.1s0.5-1.1,1.1-1.1c0.6,0,1.1,0.5,1.1,1.1c0,0,0,0,0,0
	C178,63.3,177.5,63.8,176.9,63.8z M176.9,61.8c-0.5,0-0.9,0.4-0.9,0.9s0.4,0.9,0.9,0.9s0.9-0.4,0.9-0.9l0,0
	C177.8,62.2,177.4,61.9,176.9,61.8L176.9,61.8z"/>
<path class="st2" d="M176.5,62.2h0.3c0.1,0,0.3,0,0.4,0.1c0.1,0.1,0.1,0.1,0.1,0.2c0,0.1-0.1,0.3-0.2,0.3l0,0c0.1,0,0.2,0.1,0.2,0.2
	c0,0.1,0.1,0.2,0.1,0.3h-0.2c0-0.1-0.1-0.2-0.1-0.3c0-0.2-0.1-0.2-0.2-0.2h-0.1v0.5h-0.2L176.5,62.2z M176.7,62.7h0.2
	c0.2,0,0.3-0.1,0.3-0.2s-0.1-0.2-0.3-0.2h-0.1L176.7,62.7z"/>
</svg>
