<?xml version="1.0" encoding="utf-8"?>
<!-- Generator: Adobe Illustrator 21.1.0, SVG Export Plug-In . SVG Version: 6.00 Build 0)  -->
<svg version="1.1" id="Layer_1" xmlns="http://www.w3.org/2000/svg" xmlns:xlink="http://www.w3.org/1999/xlink" x="0px" y="0px"
	 viewBox="0 0 188.4 101" style="enable-background:new 0 0 188.4 101;" xml:space="preserve">
<style type="text/css">
	.st0{fill:#FFFFFF;}
	.st1{fill:#EE2D24;}
	.st2{fill:#5D9731;}
</style>
<title>Casual dining</title>
<path class="st0" d="M81.4,44.1c0,0,18.6-17.8,24.4-16.8s11.1,5.6,8.6,11.4s-5.7,9.1-10.5,13.9S85.5,68.9,79.8,70
	s-13.7,7.1-20.4,5.5S39.6,69.1,46,66.8s25.7-15.1,34.4-22.3"/>
<path class="st1" d="M64,100.5c-4.7,0.1-9.3-0.1-13.9-0.7c-6.5-0.8-13-1.5-19.3-3.5c-8.4-2.7-16.2-6.9-23-12.4
	c-2.4-1.9-4.4-4.1-6.1-6.6c-1.9-3-1.6-6.9,0.8-9.6c2.4-2.9,5.6-4.4,9.1-5.3c4.3-1.1,8.7-1.4,13.1-0.9c3.5,0.4,6.9,1,10.4,1.5
	c5.1,0.5,10.2,0,15-1.7c6-1.9,11.2-5.3,16.1-9.1c6.3-4.8,11.9-10.4,16.8-16.7c4.2-5.4,9.4-9.8,15.4-12.9c2.8-1.5,6-2.3,9.2-2.3
	c4.2,0,8.2,2,10.5,5.6c2,3,3.5,6.3,4.5,9.7c0.6,2,1.5,4,2.5,5.8c0.8,1.3,1.7,2.4,2.9,3.3c2.1,1.6,4.1,3.4,5.9,5.3
	c2.3,2.5,3.6,5.8,3.6,9.2c-0.1,3.2-1,6.3-2.7,9c-2,3-4.4,5.7-7.2,8.1c-10.1,9.4-22.1,15.5-35.1,19.8c-4.3,1.5-8.7,2.6-13.2,3.3
	c-3.7,0.6-7.5,0.9-11.3,1C66.7,100.5,65.4,100.5,64,100.5z M111.7,36.3c0.1-2.8-2-5.1-4.8-5.2c-0.3,0-0.7,0-1,0.1
	c-2.2,0.4-4.3,1.4-6.1,2.8c-3.8,3-7.2,6.4-10.3,10.1c-4.1,4.6-8.1,9.2-13.2,12.8c-0.7,0.5-1.4,1.1-1.9,1.9c-0.6,0.9-0.6,2,0,2.8
	c0.4,0.9,1.4,1.5,2.4,1.5c1,0,2-0.3,2.9-0.7c1.9-0.9,3.7-1.9,5.3-3.1c6.8-4.7,13.1-9.9,19.8-14.8c2.1-1.4,3.9-3.1,5.5-5
	C111.1,38.4,111.5,37.3,111.7,36.3L111.7,36.3z M58.9,72c0.9-0.1,2-0.2,3.1-0.3c2.5-0.3,5-1.3,7.1-2.7c0.9-0.6,1.6-1.5,1.9-2.6
	c0.2-1.2-0.2-2.4-1.2-3.2c-0.8-0.6-1.8-0.6-2.6-0.1c-1.2,0.6-2.4,1.3-3.6,2c-2,1.3-4.2,2.3-6.5,2.9c-0.8,0.2-1.6,0.3-2.4,0.6
	c-0.5,0.1-1,0.3-1.1,0.9c-0.1,0.5,0.2,1.1,0.6,1.4c0.4,0.3,0.8,0.5,1.3,0.7C56.5,71.8,57.7,71.9,58.9,72z"/>
<path class="st2" d="M165.8,100.5c-5.4-0.1-10.3-0.9-14.8-3.4c-3.8-2.1-6.6-5-8-9.2c-1-2.8-0.1-5.9,2.2-7.8c2.4-1.8,5.7-1.7,7.9,0.4
	c1.4,1.4,2.7,3,3.8,4.7c1.1,1.6,2.4,3.1,3.9,4.3c3.1,2.3,7.3,2.2,10.3-0.1c1.6-1.3,2.6-3.3,2.7-5.4c0.3-4.1-1.8-7-5.1-9
	c-3.1-1.8-6.3-3.4-9.6-4.9c-3-1.3-5.8-2.9-8.4-4.8c-3.9-3.2-6.4-7.2-6.8-12.2c-0.7-9.2,4.1-16.3,13.1-18.9c4-1.1,8.1-1.3,12.2-0.8
	c3.7,0.3,7.2,1.4,10.3,3.3c3,1.7,5.2,4.6,6.1,7.9c0.9,3.6-0.8,6.9-4.2,7.6c-2.5,0.7-5.1-0.2-6.6-2.3c-0.7-1-1.4-2-1.9-3.1
	c-1.3-2.4-2.9-4.5-5.6-5.2c-5-1.3-9.1,1.1-9.9,6c-0.5,3.1,0.8,6.2,3.3,8c1.7,1.3,3.6,2.3,5.5,3.1c3.4,1.5,6.7,3,10,4.7
	c3.3,1.6,6.2,3.9,8.4,6.8c2.1,2.9,3.2,6.3,3.3,9.9c0.2,4.2-0.9,8.3-3.2,11.8c-3,4.5-7.4,6.9-12.5,7.9
	C170.1,100.3,168,100.5,165.8,100.5z"/>
<path class="st2" d="M153.4,12.9c-0.2,5.8-2.2,11.4-5.8,15.9c-2.6,3.6-5.9,6.6-9.7,8.7c-1,0.6-2.2,1-3.4,1.2
	c-1.3,0.2-2.5-0.4-3.1-1.5c-0.7-1.2-0.6-2.6,0.1-3.7c0.3-0.4,0.6-0.8,1-1.2c1.8-1.7,3.5-3.6,5-5.6c2.5-3.6,2.5-6.7,0.1-10.3
	c-0.9-1.3-1.8-2.7-2.6-4.1c-2-4.1-0.4-9,3.7-11c1-0.5,2.2-0.8,3.4-0.9c5.3-0.4,10,3.3,10.9,8.5C153.3,10.3,153.4,11.6,153.4,12.9z"
	/>
</svg>
