<?xml version="1.0" encoding="utf-8"?>
<!-- Generator: Adobe Illustrator 21.1.0, SVG Export Plug-In . SVG Version: 6.00 Build 0)  -->
<svg version="1.1" id="Layer_1" xmlns="http://www.w3.org/2000/svg" xmlns:xlink="http://www.w3.org/1999/xlink" x="0px" y="0px"
	 viewBox="0 0 203.2 179.7" style="enable-background:new 0 0 203.2 179.7;" xml:space="preserve">
<style type="text/css">
	.st0{fill:#004FA2;}
	.st1{fill:#EC1B2E;}
	.st2{fill:#FFC10E;}
</style>
<title>Fast Food</title>
<path class="st0" d="M202.2,95.9l-2.5-2.6c-0.3-0.3-0.8-0.5-1.2-0.6c0,0-1.5-0.1-2.7-0.1c1.2-1.4,2.1-3,2.7-4.7
	c0.8-2,1.2-4.1,1.2-6.3c0-1.7-0.3-3.4-0.8-5c0.1-0.7,2.2-14.3,2.2-14.4c0-0.4-0.2-0.7-0.5-1c-1-1.2-2.1-2.4-3.2-3.4
	c-2.1-2.2-4.9-3.7-7.9-4.3c-2.7-0.5-5.4-0.3-8,0.4c-0.7-1.3-1.7-2.6-2.7-3.7c-0.8-0.7-1.6-1.3-2.5-1.8c-1.9-1.2-4.3-1.3-6.4-0.4
	l-0.1,0.1c-1.6,0.7-2.9,2-3.6,3.7c0.6-3,1-5.6,1-5.7c0-0.4-0.2-0.9-0.5-1.2l-2.6-2.6c-0.4-0.4-1-0.6-1.6-0.6L147,44.8
	c-0.6,0.1-1,0.6-1.3,1.1c0,0-1.4,6.1-1.8,8.2c-5-4.2-10.6-7.7-16.6-10.3l17.6-23.2c0.3-0.3,0.4-0.6,0.5-1c0-0.4-0.2-0.9-0.6-1.2
	l-2.1-2.1c-0.5-0.5-1.2-0.6-1.8-0.5c0,0-33.4,12.7-36.1,13.8c-1.1-2.1-10.9-25.7-11-25.9c-0.1-0.2-0.1-0.4-0.3-0.5L91.2,1
	c-0.4-0.4-1.1-0.6-1.6-0.5c-0.6,0.1-1.1,0.6-1.2,1.2c0,0-10.3,33.6-11.8,38.7c-1.6,0.6-34,12.9-34,12.9c-0.7,0.1-1.2,0.7-1.3,1.4
	c0,0.5,0.3,1,0.6,1.4l9.5,6.2C47,67.6,43.4,73.5,40.7,80c-0.6,1.4-1.2,2.8-1.6,4.1c-2.4,1-5,2-5,2c-8,3.2-15.2,8.3-20.9,14.9
	C6.3,109,2,119,1,129.6c-0.3,2.2-0.5,4.4-0.5,6.7c0,7.5,1.8,14.7,5.1,19.7c3.6,5.6,9.2,9.4,15.7,10.7c6,1.2,12.2,1.7,28.8-5.8
	c2-0.9,3.9-1.8,5.8-2.6l0.6,0.6c12.3,13,29.4,20.4,47.3,20.4c13.9,0,27.5-4.5,38.6-12.9c10.7-7.9,18.9-18.8,23.6-31.3
	c0.5,0.2,1.6,0.5,1.6,0.5c0.7,0.2,1.5-0.1,1.9-0.7l0.9-1.7c13.2-22.5,24.9-30.4,25-30.4l6.5-4.1c0.4-0.3,0.7-0.8,0.7-1.3
	C202.7,96.8,202.6,96.3,202.2,95.9L202.2,95.9z"/>
<path class="st1" d="M101.6,42.7c-34.3,0-62.4,29.3-62.4,65.1c0,36,28.1,65.2,62.4,65.2c34.6,0,62.7-29.2,62.7-65.2
	C164.3,72,136.2,42.7,101.6,42.7z"/>
<path class="st2" d="M101.6,169.6L101.6,169.6c32.8,0,59.4-27.8,59.4-61.9c0-34-26.6-61.8-59.4-61.8l0,0v3l0,0
	c31.2,0,56.6,26.4,56.6,58.8s-25.4,58.9-56.6,58.9l0,0V169.6L101.6,169.6z M42.4,107.8c0,34.1,26.7,61.8,59.2,61.9v-3
	c-31,0-56.4-26.5-56.4-58.9S70.6,49,101.6,49v-3C69,46,42.4,73.8,42.4,107.8L42.4,107.8z"/>
<path class="st0" d="M138.3,107.8c0,21.1-16.4,38.2-36.7,38.2l0,0v1.7l0,0c21.2,0,38.5-17.9,38.5-40c0-21.9-17.3-39.9-38.5-39.9l0,0
	v1.7l0,0C121.9,69.6,138.3,86.7,138.3,107.8L138.3,107.8z M101.6,146C81.4,146,65,128.8,65,107.8s16.4-38.2,36.6-38.2v-1.7
	c-21,0-38.2,18-38.2,39.9c0,22.1,17.3,40,38.2,40V146L101.6,146z"/>
<path class="st2" d="M138.3,107.8c0,21.1-16.4,38.2-36.7,38.2S65,128.9,65,107.8s16.4-38.2,36.6-38.2S138.3,86.8,138.3,107.8z"/>
<path class="st1" d="M114,73.4H89.4c-0.8,0.3-1.6,0.7-2.4,1.1h29.4C115.6,74,114.7,73.7,114,73.4L114,73.4z"/>
<path class="st1" d="M119.5,76.1H83.8c-0.5,0.4-1,0.6-1.6,1.1h39C120.7,76.8,120.1,76.4,119.5,76.1z"/>
<path class="st1" d="M123.5,78.9H80c-0.4,0.3-0.8,0.7-1.2,1.1h45.9C124.3,79.6,123.9,79.3,123.5,78.9z"/>
<path class="st1" d="M126.4,81.7H77c-0.4,0.3-0.7,0.6-1,1h51.5L126.4,81.7L126.4,81.7z"/>
<path class="st1" d="M128.8,84.4H74.5c-0.2,0.4-0.5,0.7-0.8,1h55.9C129.4,85,129.1,84.7,128.8,84.4z"/>
<path class="st1" d="M130.8,87.1H72.5c-0.2,0.3-0.5,0.7-0.6,1h59.6C131.3,87.8,131.1,87.5,130.8,87.1L130.8,87.1z"/>
<path class="st1" d="M132.5,89.9H70.8c-0.1,0.3-0.3,0.7-0.6,0.9H133C132.8,90.5,132.7,90.1,132.5,89.9L132.5,89.9z"/>
<path class="st1" d="M133.8,92.6H69.5c-0.1,0.3-0.2,0.7-0.4,1h65.2C134.2,93.3,134.1,92.9,133.8,92.6L133.8,92.6z"/>
<path class="st1" d="M134.9,95.3H68.5c-0.1,0.3-0.3,0.6-0.4,1h67.2C135.2,96,135,95.6,134.9,95.3L134.9,95.3z"/>
<path class="st1" d="M135.7,98H67.6c-0.1,0.4-0.2,0.7-0.3,1.1H136C135.9,98.7,135.8,98.5,135.7,98L135.7,98z"/>
<path class="st1" d="M136.4,100.9H67c-0.1,0.4-0.1,0.6-0.2,1.1h69.7C136.4,101.5,136.4,101.2,136.4,100.9L136.4,100.9z"/>
<path class="st1" d="M136.8,103.6H66.6c0,0.4-0.1,0.7-0.1,1.1h70.3L136.8,103.6L136.8,103.6z"/>
<path class="st1" d="M136.9,106.3H66.5c-0.1,0.4-0.1,0.7-0.1,1.1H137C136.9,107,136.9,106.7,136.9,106.3L136.9,106.3z"/>
<path class="st1" d="M136.9,109.1H66.4c0.1,0.3,0.1,0.7,0.1,1h70.5V109.1z"/>
<path class="st1" d="M136.8,111.9H66.6c0,0.3,0.1,0.7,0.1,1h69.9C136.7,112.6,136.7,112.1,136.8,111.9z"/>
<path class="st1" d="M136.4,114.6H67c0.1,0.4,0.1,0.7,0.2,1h69C136.2,115.3,136.3,114.9,136.4,114.6L136.4,114.6z"/>
<path class="st1" d="M135.7,117.4H67.5c0.1,0.3,0.3,0.6,0.4,1h67.6C135.5,118.1,135.6,117.8,135.7,117.4L135.7,117.4z"/>
<path class="st1" d="M134.9,120.1H68.5c0.1,0.4,0.2,0.7,0.3,1.1h65.9L134.9,120.1L134.9,120.1z"/>
<path class="st1" d="M133.9,122.9H69.5c0.2,0.5,0.4,0.7,0.6,1.1h63.4C133.6,123.6,133.8,123.2,133.9,122.9L133.9,122.9z"/>
<path class="st1" d="M132.5,125.7H70.7c0.2,0.3,0.5,0.6,0.6,1H132C132.2,126.3,132.4,126,132.5,125.7L132.5,125.7z"/>
<path class="st1" d="M130.9,128.4H72.5c0.3,0.4,0.4,0.7,0.6,1.1h57C130.4,129.1,130.7,128.8,130.9,128.4L130.9,128.4z"/>
<path class="st1" d="M128.9,131.1H74.4c0.3,0.4,0.6,0.7,0.9,1h52.8C128.4,131.8,128.7,131.5,128.9,131.1L128.9,131.1z"/>
<path class="st1" d="M126.5,134H76.8c0.4,0.3,0.8,0.6,1.1,0.9h47.6C125.9,134.6,126.2,134.2,126.5,134z"/>
<path class="st1" d="M123.5,136.7H79.9c0.4,0.4,0.8,0.7,1.3,1h41.1C122.7,137.4,123.1,137.1,123.5,136.7L123.5,136.7z"/>
<path class="st1" d="M119.7,139.4h-36c0.6,0.4,1.2,0.7,1.8,1h32.5C118.5,140.2,119.1,139.8,119.7,139.4z"/>
<path class="st1" d="M114.2,142.2H89.1c1,0.4,2,0.7,3,1h19.2C112.3,142.9,113.2,142.6,114.2,142.2L114.2,142.2z"/>
<path class="st1" d="M134.1,23.1c0,0-28.9,11-32.7,12.4l-11-25.9l-2,6.7c0,0-7.7,25.2-8.3,27.4c-2.2,0.8-30.8,11.7-30.8,11.7
	l23.5,12.5C71.9,71.3,59,116.9,59,116.9l4.4,2.3c0,0,26.5-43.3,28.7-45.8c2.8,1.2,28.2,11.4,28.2,11.4s-9.9-27.3-10.9-29.6
	C111,53.2,134.1,23.1,134.1,23.1L134.1,23.1z"/>
<polygon class="st2" points="90.8,17 91.1,54.5 82.1,45.4 90.8,17 "/>
<polygon class="st2" points="55.3,55.6 91.1,54.5 75.8,66.4 55.3,55.6 "/>
<polygon class="st2" points="61.4,117.4 91.1,54.5 91.3,70.2 61.4,117.4 "/>
<polygon class="st2" points="116,80.1 91.1,54.5 106.6,54.6 116,80.1 "/>
<polygon class="st2" points="126.6,28.5 91.1,54.5 100,38.6 126.6,28.5 "/>
<path class="st0" d="M201.4,97L201.4,97l-0.1-0.2h-0.1v-0.1l-2.6-2.5c0-0.1-0.2-0.2-0.3-0.2s-3.4-0.2-5.6-0.4c2-1.6,3.5-3.6,4.5-6
	c0.7-1.9,1.1-3.9,1.1-5.9c0-1.7-0.3-3.4-0.9-4.9c0.1-0.2,2.2-14.4,2.2-14.4v-0.1c0-0.1,0-0.2-0.1-0.3l-0.7-0.8
	c-0.5-0.6-1.2-1.2-1.8-1.7l-0.7-0.8c-1.8-2.1-4.3-3.5-7-3.9c-2.8-0.4-5.7-0.2-8.4,0.6c-0.3-0.8-0.8-1.5-1.3-2.1
	c-1.2-1.5-2.5-2.7-4-3.8c-1.6-0.9-3.5-1-5.2-0.2l0,0c-1.6,0.8-2.8,2.2-3.4,3.9c-0.2,0.7-0.3,1.4-0.3,2.1c0,0.2,0,0.5,0.1,0.7
	c-0.8-0.1-1.6-0.2-2.5-0.1h-0.3c1-4.7,1.9-9.7,1.9-9.7v-0.1l0,0v-0.2l0,0L166,46h-0.1l-2.5-2.7H163l-15.7,2.7
	c-0.2,0.1-0.3,0.2-0.4,0.4l-0.5,1.5v0.3c-0.7,4.2-1.7,8.3-2.8,12.3c-1.6-0.6-4.2-1-8.5,0.6c-2.3,0.8-4.4,2.1-6.2,3.7
	c-0.2,0.1-2.5,0.5-3.9,0.9s-10.1,3.8-10.1,3.8c-3.4,1.3-6.7,2.8-9.9,4.6l-4.9,2.7l-11.1,5.8l-17.2,8.4c-0.1,0.1-0.2,0.2-0.2,0.4
	l-0.2,1.4c0,0-0.4,2.1-0.6,3.3c-1.5-1.8-3.8-2.8-6.1-2.7c-0.5,0-0.9,0-1.4,0.1c1.3-5.5,3.4-15.2,3.4-15.2l0,0v-0.1l0,0v-0.1l0,0
	c0,0,0-0.1-0.1-0.1l0,0v-0.1l0,0l-0.1-0.1l0,0L64,74.9l0,0c0,0-0.1,0-0.1-0.1h-0.4l-4.8,2.4c-5.5,2.7-11.8,5-11.9,5l-1.2,0.6
	c-0.1,0-8.8,3.6-11.1,4.4l0,0l-0.1,0.1c-7.9,3.1-15,8.1-20.5,14.5c-6.8,7.9-10.9,17.7-12,28c-1.2,10.1,0.4,18.3,4.5,24.5
	c1.1,1.7,2.5,3.2,4,4.6c2.7,3.3,6.5,5.7,10.7,6.6l0.3,0.1c7,1.3,11.8,1.6,28.1-5.8c5.8-2.6,9.9-4.6,13.9-6.7
	c9.5-4.9,19.2-9.1,29.2-12.8c17.8-6.8,34.7-10,51.6-9.5c7.4,0.3,14.7,1.4,21.8,3.1l1.8,0.5c0.2,0.1,0.5,0,0.5-0.1l1-1.7
	c13.5-23,25.3-30.8,25.5-30.8l6.4-4.2h0.2v-0.1l0,0c0,0,0-0.1,0.1-0.1V97l0,0v-0.1L201.4,97z"/>
<path class="st2" d="M47.9,85c0,0,6.6-2.5,12.1-5.2l-5,23.6c0,0,4.2-7.7,9.6-7.5c6.2,0.3,5.5,6,4.1,13.1c-0.7,3.6-2.8,18.5-2.8,18.5
	s-8.6,5.3-11.1,6.7c0,0,2.5-16.1,3.5-23.1c0.7-4.6-1.4-5.4-3-3.3c-0.9,1.1-1.7,3-3,10.7c-1,5.9-2.8,19-2.8,19s-9.1,5.2-12,3.5
	C37.4,141.1,43.5,102.1,47.9,85L47.9,85z"/>
<path class="st2" d="M74.3,92.8l10.8-5.3c-2,10.5-3.2,18.3-3.7,20.7c-0.6,4.7,1.4,5.2,3.6,2c0.8-1.1,1.1-2.3,1.7-5.3
	c1.4-8.2,3.8-20.1,3.8-20.1l10.9-5.7c0,0-4.6,17.8-6.7,32.2l-9.8,5.4l0.5-2.7c-1.5,3.1-3.8,5.6-6.8,7.4c-5,2.8-8.9,0-7.6-7.9
	C72,108.6,74.3,92.8,74.3,92.8L74.3,92.8z"/>
<path class="st2" d="M143.3,63.4c0,0-1.9-1.5-7.2,0.3c-5.3,1.7-12.8,9.7-15.4,21.4s1.4,17.1,8.8,13.8c2.9-1.1,5.4-3,7.3-5.5l2.4-10
	c0,0-2.9,6.2-6.8,7.1c-3.6,0.9-3.7-5.2-2.1-10.4c1.4-4.2,4.4-8.9,7.6-10c1.3-0.4,2.8,0.1,3.6,1.1l1.8-7.7V63.4z"/>
<path class="st2" d="M149.2,48.6c0,0-2.6,11.3-4.9,20.7c-2.5,10.4-5.4,25.9-5.4,25.9s8.6-1.9,11-2.5c0,0,2.9-15.9,3.7-19.4
	c0.6-2.8,1.3-4,2.1-4.7c1.7-1.5,3.7-1,3,2.7c-1.5,7.3-4,20.8-4,20.8s7.8-0.9,10.1-1c0,0,3.2-17.5,4.3-23.2s-0.4-9.5-4.5-9.1
	s-8.4,4.3-9.8,7.5l4.6-19.5L149.2,48.6L149.2,48.6z"/>
<path class="st2" d="M171.7,51.9c3.1-1.4,4.6,2.7,4.6,4.8c0,3.4-2.1,6.4-5.3,7.7c0,0,1.1-2.7,0-4.8S168.4,53.5,171.7,51.9z"/>
<path class="st2" d="M193.1,66.8c-0.5-1.6-1.5-2.9-2.9-3.7c-2.7-1.3-5.3,0-5.8,1.5c-1,3.3,12.1,7.5,7.7,19.5
	c-2.6,6.7-9.9,7.9-14.4,7.7c-3.1-0.2-7.6-2.1-9-5.5l1.6-9c1.9,4.6,3.7,5.8,5.8,6.8c1.6,0.9,5.9,1.8,7.1-0.9
	c2.1-4.5-11.6-6.7-8.5-17.5c1.6-5.7,7.9-8.9,14.2-7.9c2,0.3,3.9,1.4,5.2,2.9L193.1,66.8L193.1,66.8z"/>
<path class="st2" d="M105.4,77.3c3.4-1.9,6.9-3.6,10.5-5.1l-1.3,4.7c0,0,3.5-7.8,10.9-8.3l-5.2,11.1c0,0-6.8,0.4-8.2,8.2
	c-1.4,6.5-3.4,16.8-3.4,16.8l-10.1,4.9C98.6,109.6,101.7,91.7,105.4,77.3L105.4,77.3z"/>
<path class="st2" d="M44.7,86.5l-3.7,16.2c0,0-1-4.8-4.8-4.4c-7.6,1-17.1,12.1-16.7,29.8c0.3,16.4,12.6,23.4,30.1,13.6
	s45.8-28.7,71.9-37.1c26.3-8.2,46.6-9.6,69-8c0,0-12.3,7.8-26.4,31.8c-7.4-1.8-15-2.9-22.6-3.2c-11.5-0.4-29.2,0.7-52.6,9.7
	s-26.7,12-43.3,19.5s-20.6,6.7-26.7,5.6S3.5,151.6,5,130.1S22.1,95.4,35.6,90C38.4,89.1,42.5,87.4,44.7,86.5L44.7,86.5z"/>
<path class="st0" d="M83.9,133c-0.7,0.8-1.5,1.4-2.5,1.8c-2.7,1.3-3.5-0.6-3.4-2.6c0.2-2.6,1.7-4.9,4-6.1c0.7-0.3,1.5-0.5,2.3-0.5
	l-0.2,2.6c-0.6-0.3-1.3-0.3-1.8,0c-1.1,0.6-1.9,1.7-2,2.9c-0.1,1.3,0.6,1.7,1.7,1.3c0.8-0.3,1.5-0.9,2-1.6L83.9,133L83.9,133z"/>
<polygon class="st0" points="90.8,122.1 93.2,121.1 92.8,124.2 95.6,123.1 95.8,119.9 98.4,118.7 97.6,127.8 95,128.8 95.4,125.5 
	92.7,126.5 92.4,129.8 90.1,130.8 90.8,122.1 "/>
<polygon class="st0" points="104.8,115.9 107.6,114.9 106.8,124.7 104.1,125.8 104.8,115.9 "/>
<path class="st0" d="M119.8,120.7c-0.7,0.8-1.6,1.4-2.6,1.6c-2.8,0.6-3.6-2.3-3.2-4.8c0.4-3.3,2.1-6.1,4.6-6.8
	c0.7-0.2,1.5-0.1,2.2,0.2l-0.3,3.3c-0.5-0.5-1.2-0.7-1.9-0.6c-1.3,0.5-2.2,1.8-2.3,3.2c-0.2,1.7,0.5,2.6,1.7,2.4
	c0.9-0.3,1.6-0.8,2.1-1.6L119.8,120.7L119.8,120.7z"/>
<polygon class="st0" points="128,108.7 130.5,108.1 129.6,113.8 133.5,107.4 136.6,106.7 132.4,113.4 134.7,120 131.4,120.4 
	129.5,114.7 129.5,114.8 128.6,120.7 126.1,121.1 128,108.7 "/>
<polygon class="st0" points="143.2,105.7 149.3,104.8 148.8,108 145.5,108.4 144.9,110.9 148.1,110.7 147.5,113.8 144.5,114 
	144,116.7 147.3,116.6 146.8,119.7 140.8,119.9 143.2,105.7 "/>
<polygon class="st0" points="156.5,104.4 158.7,104.4 160.8,113.2 162.5,104.5 165.4,104.5 161.7,121.3 159.5,120.9 157.5,112.4 
	155.9,120.5 153.5,120.1 156.5,104.4 "/>
<path class="st2" d="M84.3,152.2c-0.6-0.7-0.9-1.2-1.5-1.4s-0.7-0.2-0.9,0.1c-0.5,0.9,2.3,1.9,1.3,4c-0.4,1-1.6,1.5-2.6,1.1
	c-0.1,0-0.2-0.1-0.3-0.2c-0.7-0.3-1.2-0.9-1.6-1.6l0.6-1.3c0.2,0.8,0.8,1.4,1.5,1.7c0.5,0.2,0.7,0.1,0.9-0.3
	c0.5-0.9-2.3-1.9-1.3-4.1c0.6-1,1.6-1.3,2.9-0.7c0.6,0.3,1.1,0.7,1.5,1.3L84.3,152.2L84.3,152.2z"/>
<polygon class="st2" points="87.4,158.6 86,158.1 88.1,151.8 89.5,152.2 87.4,158.6 "/>
<polygon class="st2" points="97.4,160.6 96.1,160.4 93.6,155.7 92.9,160 91.5,159.7 92.6,153.1 93.8,153.3 96.3,157.8 96.9,153.8 
	98.3,153.9 97.4,160.6 "/>
<path class="st2" d="M107.1,159.9c-0.6,0.5-1.4,0.8-2.3,0.8c-1.7,0.1-3.2-1.1-3.4-2.8c0-0.1,0-0.2,0-0.3c-0.2-1.8,1.1-3.5,2.9-3.7
	c0.1,0,0.2,0,0.3,0c0.7,0,1.4,0.2,2.1,0.5v1.6c-0.6-0.4-1.3-0.6-2-0.6c-1.1,0.1-2,1-2,2.1c0,1.1,1,2,2.1,2c0,0,0,0,0.1,0
	c0.8-0.1,1.5-0.5,2.1-0.9L107.1,159.9L107.1,159.9z"/>
<polygon class="st2" points="115.5,158.8 111.4,159.8 109.7,153.3 113.8,152.2 114.1,153.5 111.5,154.1 111.7,155.5 114.3,154.9 
	114.6,156.1 112.1,156.7 112.4,158.2 115.2,157.6 115.5,158.8 "/>
<polygon class="st2" points="126.1,154.2 124.9,154.9 121.6,149 122.8,148.4 126.1,154.2 "/>
<path class="st2" d="M129.5,146.4c0.4,0.5,0.5,1,0.1,1.2c-0.1,0.2-0.4,0.2-0.6,0.1v1.3c0.5,0.1,1-0.1,1.3-0.6l0.5,2.8l1.2-0.8
	l-0.4-2.2c-0.1-0.9-0.5-1.8-1-2.6c-0.4-0.5-0.9-0.9-1.6-1v1.2L129.5,146.4L129.5,146.4z M129.1,147.6c-0.2-0.1-0.4-0.3-0.6-0.5
	c-0.4-0.5-0.4-1-0.1-1.2c0.2-0.2,0.4-0.2,0.6-0.1v-1.3c-0.5-0.1-1,0-1.5,0.3c-0.8,0.9-0.8,2.2-0.1,3.1c0.4,0.5,0.9,0.8,1.6,0.9
	V147.6L129.1,147.6z"/>
<path class="st2" d="M134.7,140.5l-1.4,1.3l0.9,0.9c0.9-0.8,2.2-0.7,3,0.2c0.7,0.8,0.7,1.9,0,2.7c-0.3,0.4-0.7,0.6-1.2,0.7l-0.9-0.8
	c0.4,0,0.8-0.2,1.1-0.6c0.4-0.3,0.5-0.8,0.2-1.2c-0.1-0.1-0.1-0.1-0.2-0.2c-0.6-0.5-1.4-0.2-1.9,0.7l-2.8-2.6l2.1-2.2L134.7,140.5
	L134.7,140.5z"/>
<path class="st2" d="M143.5,137.9l-2.3,3.1l-0.1-0.1c-0.3-0.9-0.7-1.9-1.2-2.7c-0.2-0.6-0.6-1.2-1.1-1.6c-0.5-0.4-1-0.4-1.3,0.1
	c-0.2,0.5-0.3,1-0.1,1.6l-1.2-0.7c-0.1-0.6,0.1-1.3,0.5-1.8c0.6-0.8,1.7-1,2.5-0.4c0.1,0,0.1,0.1,0.1,0.1c0.9,0.9,1.6,2,1.9,3.3
	l1.1-1.6L143.5,137.9L143.5,137.9z"/>
<polygon class="st0" points="180.9,127.7 180.9,128.8 179,128.8 179,134 177.7,134 177.7,128.8 175.8,128.8 175.8,127.7 
	180.9,127.7 "/>
<path class="st0" d="M185.8,127.7h1.8v6.3h-1.2v-5.3l-1.2,5.3H184l-1.1-5.3v5.3h-1.3v-6.3h1.9l1.2,4.9L185.8,127.7L185.8,127.7z"/>
</svg>
