<?xml version="1.0" encoding="utf-8"?>
<!-- Generator: Adobe Illustrator 19.2.1, SVG Export Plug-In . SVG Version: 6.00 Build 0)  -->
<svg version="1.1" id="layer" xmlns="http://www.w3.org/2000/svg" xmlns:xlink="http://www.w3.org/1999/xlink" x="0px" y="0px"
	 viewBox="0 0 652 652" style="enable-background:new 0 0 652 652;" xml:space="preserve">
<style type="text/css">
	.st0{fill:#FFFFFF;}
	.st1{fill:#051D49;}
	.st2{fill:#65CBC9;}
</style>
<g>
	<path class="st0" d="M259.6,333.3L259.6,333.3L259.6,333.3z"/>
</g>
<g>
	<path class="st0" d="M184,334.5L184,334.5L184,334.5z"/>
</g>
<g>
	<path class="st0" d="M512.8,334.5L512.8,334.5L512.8,334.5z"/>
</g>
<g>
	<g>
		<path class="st1" d="M625.3,326c0-1.7-0.1-3.2-0.2-4.9c-2.6-38-34.7-67.9-74.2-68.2c-0.2,0-0.5,0-0.7,0H549H393.7
			c-24,0-51.6-9.3-68.4-26.3c-16.8,17-44.5,26.3-68.4,26.3H101.6h-1.1c-0.2,0-0.5,0-0.7,0c-39.5,0.3-71.8,30.3-74.2,68.2
			c-0.1,1.6-0.2,3.2-0.2,4.9v0.1v0.1c0,1.7,0.1,3.2,0.2,4.9c2.6,38,34.7,67.9,74.2,68.2c0.2,0,0.5,0,0.7,0h1.1h155.2
			c24,0,51.6,9.3,68.4,26.3c16.8-17,44.5-26.3,68.4-26.3H549h1.1c0.2,0,0.5,0,0.7,0c39.5-0.4,71.7-30.3,74.2-68.2
			c0.1-1.7,0.2-3.2,0.2-4.9v-0.1L625.3,326"/>
	</g>
	<g>
		<path class="st0" d="M582.3,359.1c-2.2,0-3.8-1.7-3.8-3.9c0-2.2,1.7-3.9,3.9-3.9c2.2,0,3.8,1.8,3.8,3.9
			C586.2,357.4,584.4,359.1,582.3,359.1 M582.4,350.5c-2.6,0-4.8,2.2-4.8,4.8l0,0c0,2.6,2.1,4.7,4.7,4.7c2.6,0,4.8-2.2,4.8-4.8l0,0
			C587,352.5,585,350.5,582.4,350.5 M580.6,353h2c0.5,0,1,0.2,1.2,0.4c0.2,0.2,0.4,0.6,0.4,1l0,0c0,0.7-0.4,1.1-0.9,1.3l1,1.6h-1.1
			l-0.9-1.5l0,0h-0.7v1.5h-0.9L580.6,353L580.6,353z M582.6,355c0.5,0,0.7-0.2,0.7-0.6l0,0c0-0.4-0.3-0.6-0.7-0.6h-0.9v1.2H582.6z"
			/>
	</g>
	<g>
		<path class="st0" d="M515,359.5L515,359.5L515,359.5L515,359.5z M570.9,350.1V308c0-4.3,0-8.5,0-12.8v-0.3c0-0.6,0-1.5-0.5-2
			c-0.3-0.3-0.8-0.5-1.6-0.5l0,0c-0.5,0-1.1,0-1.8,0h-7.6l1.2,1c0,0,5.1,4.1,5.1,16.9v32.6c0,0-41.2-40.1-44.3-43.1l-6-5.9
			c-0.5-0.5-1.6-1.3-2.6-1.5h-7.8l1.1,0.9c0,0,3.5,3.1,3.5,9.1v42.1c0,4.3,0,8.5,0,12.8v0.3c0,0.6,0,1.5,0.5,2
			c0.3,0.3,0.8,0.5,1.6,0.5l0,0c0.5,0,1.1,0,1.7,0h7.6l-1.2-0.9c0,0-5-4.1-5-16.9v-32.7c0,0,41.2,40.1,44.3,43.1l6,5.9
			c0.5,0.5,1.6,1.3,2.6,1.5h6.6l-0.8-0.9C573.6,359.1,570.9,356.1,570.9,350.1"/>
	</g>
	<g>
		<path class="st0" d="M491.8,327.6c0,16.5-10.3,29.9-22.8,29.9c-12.5,0-22.8-13.4-22.8-29.9c0-16.5,10.3-30,22.8-30
			C481.7,297.6,491.8,311,491.8,327.6 M466.1,294.7c-17.7,1.5-31,15.8-30.9,33.3c0.1,8.4,2.4,15,6.8,20.5c6.3,7.7,16.1,12,26.7,12
			c9.3,0,18.3-3.6,24.5-9.9c6.3-6.4,10-15.5,9.9-24.7c-0.1-8.7-3.3-16.6-9.1-22.3C486.7,296.8,477.6,293.7,466.1,294.7"/>
	</g>
	<g>
		<path class="st0" d="M426.6,331.5L426.6,331.5c-3.7-3.8-9-6.3-15.6-7.2c10.6-4,11.3-12.9,10.2-17.1c-2.8-10.7-14.9-11.4-23.6-11.4
			h-19.2l0.6,0.6c0,0,2.9,3.1,2.9,7.9v12c0,12,0,24.2,0,36.2c0,3.8,0.4,4.5,3.9,5.6c5.2,1.8,10.5,2.7,15.8,2.7c3.2,0,6.4-0.3,9.6-1
			c7.4-1.6,12.5-4.4,16.3-8.9C432.4,345,432,336.8,426.6,331.5L426.6,331.5z M419.8,344.8c-0.9,6.9-6.5,11.9-13.7,12.1
			c-0.6,0-1.1,0-1.7,0c-3.1,0-5.3-0.3-9-1.2c-0.6-0.1-2.7-0.8-2.7-3.3v-53.4h5c8,0,13,2.8,13.6,12.1c0.4,5.1-2,12-10.2,13.3
			c-0.4,0-0.7,0.1-1.1,0.1c-3.5,0.4-4.1,2.2-4.1,2.3l-0.2,0.5h0.6c0,0,1-0.1,2.4-0.1c0.2,0,1.2,0,1.5,0c3.1,0,10.3,0,16.2,5.8
			C419,336.2,420.4,340.5,419.8,344.8"/>
	</g>
	<g>
		<path class="st0" d="M370.1,348c-8.2-16.5-21.9-47.1-24.1-51.6c-0.4-0.7-0.9-1.9-2.4-1.9c-1.2,0-1.8,1-2.1,1.7L313,354.5
			c-1.1,2.4-2.9,4.5-4.1,4.8h4.4c4,0,5.5-1.9,6.4-3.8l9.1-19h20.5c1.7,0,2.4,0.4,3.1,1.9c0,0,4.4,8.7,7.4,14.2
			c2.5,4.5,7.7,8.8,18.7,6.4C374.2,357.9,372.7,353.2,370.1,348 M330.6,332.3l10.4-21.3l8.8,21.2L330.6,332.3z"/>
	</g>
	<g>
		<path class="st0" d="M302.4,349.8v-39.4c0-3.9,0-8,0-11.9v-0.3c0-0.6,0-1.3-0.4-1.9c-0.3-0.3-0.8-0.5-1.5-0.5c-0.5,0-1,0-1.7,0
			h-7.1l1.1,0.9c0,0,4.7,3.9,4.7,15.9v30.5c0,0-38.6-37.5-41.5-40.4l-5.7-5.5c-0.5-0.5-1.5-1.2-2.5-1.3h-7.4l1,0.9
			c0,0,3.3,2.9,3.3,8.5v39.4c0,3.9,0,8,0,11.9v0.3c0,0.6,0,1.3,0.4,1.8c0.3,0.3,0.8,0.5,1.5,0.5l0,0c0.5,0,1,0,1.6,0h7.1l-1.1-0.9
			c0,0-4.7-3.9-4.7-15.9V312c0,0,38.6,37.5,41.5,40.4l5.7,5.5c0.5,0.5,1.5,1.2,2.5,1.3h6.2l-0.7-0.8
			C304.8,358.4,302.4,355.6,302.4,349.8"/>
	</g>
	<g>
		<path class="st0" d="M180.3,358.8L180.3,358.8L180.3,358.8L180.3,358.8z M232.7,349.8v-39.4c0-3.9,0-8,0-11.9v-0.3
			c0-0.6,0-1.3-0.4-1.9c-0.3-0.3-0.8-0.5-1.5-0.5l0,0c-0.5,0-1,0-1.7,0h-7.1l1.1,0.9c0,0,4.7,3.9,4.7,15.9v30.5
			c0,0-38.6-37.5-41.5-40.4l-5.7-5.5c-0.5-0.5-1.5-1.2-2.5-1.3h-7.4l1,0.9c0,0,3.3,2.9,3.3,8.5v39.4c0,3.9,0,8,0,11.9v0.3
			c0,0.6,0,1.3,0.4,1.8c0.3,0.3,0.8,0.5,1.5,0.5l0,0c0.5,0,1,0,1.6,0h7.1l-1.1-0.9c0,0-4.7-3.9-4.7-15.9V312
			c0,0,38.6,37.5,41.5,40.4l5.7,5.5c0.5,0.5,1.5,1.2,2.5,1.3h6.2l-0.7-0.8C235.1,358.4,232.7,355.6,232.7,349.8"/>
	</g>
	<g>
		<path class="st0" d="M151.6,303v56.3h6.3c1.3,0,2.6,0,3.9,0h0.5v-63.5h-14.7C149.5,296.8,151.6,298.4,151.6,303"/>
	</g>
	<g>
		<path class="st0" d="M142,351c-0.5,0-0.9,0.4-1.2,0.7l-0.2,0.2c-8.4,7.8-18.7,11.3-30.5,10.7c-12.8-0.7-21.6-6.9-26.2-18.7
			c-4.7-11.8-4.7-24,0-36.2c4.9-12.8,15.6-20.4,28.5-20.4c3.1,0,6.3,0.4,9.4,1.3c5.1,1.5,8.8,4.7,10.4,8.9c1.5,4,0.7,8.7-2.1,12.8
			c-1.8,2.6-4.9,4.3-8.1,4.3c-3,0-5.7-1.2-7.5-3.5c-0.1-0.1-0.7-0.8-1.5-0.8c-0.3,0-0.5,0.1-0.7,0.3l-0.3,0.2l0.1,0.3
			c1.2,5.9,6.9,10.2,13.5,10.2c0.9,0,1.8-0.1,2.7-0.2c4.5-0.8,8.1-3.3,10.3-6.9c2.4-3.8,2.9-8.6,1.6-13.4c-1.9-6.4-6.4-11-13.8-13.5
			c-10.2-3.4-20.9-3.2-31.5,0.6c-12.4,4.5-20.5,13.4-24.1,26.3c-2.5,9.3-0.9,20.1-0.3,22.2c0.1,0.3,0.1,0.5,0.2,0.8
			c0.2,1,0.5,1.9,0.7,2.7c3.7,11,11.2,18.7,22.3,22.7c5.4,2,11.1,3,16.9,3l0,0c4.6,0,9.3-0.6,14.2-1.9c7.4-1.9,13.6-5.6,18.5-11
			l0.3-0.3l-0.2-0.4C142.9,351.3,142.5,351,142,351"/>
	</g>
	<g>
		<path class="st2" d="M325.3,412.7l-1.3-1c-18-13.8-43.1-22-67.1-22h-157c-34.1-0.3-62.5-26.3-64.7-59.2c-0.1-1.7-0.2-3-0.2-4.3
			V326c0-1.2,0-2.6,0.2-4.3c2.2-32.9,30.7-58.9,64.8-59.2h156.9c24,0,49-8.2,67.1-22l1.3-1l1.3,1c18,13.8,43.1,22,67.1,22h157
			c34,0.3,62.4,26.3,64.7,59.2c0.1,1.7,0.2,3,0.2,4.3v0.3c0,1.2,0,2.6-0.2,4.3c-2.2,32.9-30.7,58.9-64.8,59.2H393.7
			c-24,0-49,8.2-67.1,22L325.3,412.7z M256.9,385.1c24.4,0,49.8,8.2,68.4,21.9c18.7-13.7,44.2-21.9,68.4-21.9h156.8
			c31.7-0.3,58.2-24.5,60.2-55c0.1-1.6,0.1-2.8,0.1-3.9V326c0-1.1,0-2.4-0.1-3.9c-2.1-30.5-28.4-54.6-60.1-55H393.7
			c-24.4,0-49.8-8.2-68.4-21.9c-18.7,13.7-44.2,21.9-68.4,21.9H100c-31.7,0.3-58.2,24.5-60.2,55c-0.1,1.6-0.1,2.8-0.1,3.9v0.3
			c0,1.1,0,2.4,0.1,3.9c2.1,30.5,28.4,54.6,60.1,55h157L256.9,385.1L256.9,385.1z"/>
	</g>
</g>
</svg>
