<?xml version="1.0" encoding="utf-8"?>
<!-- Generator: Adobe Illustrator 21.1.0, SVG Export Plug-In . SVG Version: 6.00 Build 0)  -->
<svg version="1.1" id="Layer_1" xmlns="http://www.w3.org/2000/svg" xmlns:xlink="http://www.w3.org/1999/xlink" x="0px" y="0px"
	 viewBox="0 0 181.1 48" style="enable-background:new 0 0 181.1 48;" xml:space="preserve">
<style type="text/css">
	.st0{fill:#FFFFFF;}
	.st1{fill:#EE3124;}
</style>
<title>Grocery</title>
<path class="st0" d="M121.9,36.5l0.9,0.9h23.4c0.9-0.3,1.8-0.6,2.6-1c0,0-0.9,1.1,0.1,1h13c0.5,0-0.1-0.7-0.2-1
	c-0.7-2.2-0.7-4.6,0.3-6.7l4.9-10.1h7.1c1.6-3.7,3.6-7.6,5.4-11.6h-7.5c0,0-0.2,0.4,3.2-6.2h-12.3c-1,2.1-2,4.1-3,6.2h-6.4
	c-3.5,8.1-2.2,5.5-3.4,7.8c-2.1-0.1-4.1,0.6-5.8,1.8c-0.2-0.4-0.7-1.1-0.8-1.4l-3.1,1.6c0,0,5.3-11.2,7.3-15.8h-11.9
	c-2.6,5.1-4.6,10.3-7.2,15.3c-0.6-0.7-1.1-1.5-1.6-2.4l-1.7,0.1c0.7-2.4,1.2-7.3-3.5-7c-6.6,0.4-7.7,4.2-9.1,8.3
	c-2.4,0.3-5.1-0.2-7.3,0.4c-1.9-0.7-3.9-0.5-5.7,0.4l7-15.2H91.9c-2.2,2.9-2.8,3.7-4.3,5.8C88.2,6,88.5,4,88.7,2H76.4
	c-2.6,4.6-4.6,9.5-7,14.2H56.5l3.1-7.8H54l2.5-6.3H44.6c-0.6,1.9-3.6,8.1-3.6,8.1h-7.8c2.2-4.9-4.8-13.4-18.1-6
	C10.7,6.6-1.7,15.6,1.8,30.9c2,8.6,10.3,11.7,21.4,5.5c1.3,2.3,5.8,2.4,8.3,0.8l0.5,0.4h14.6l-4.1,9.3L55.2,47l4.4-9.3h29.3
	c0.5-1.1,1-2.1,1.6-3.1c0.7,1.3,1.8,2.3,3.1,3c2,0.5,4.1,0.7,6-0.5c3,2.1,7.8,1.5,10.6-0.3c1.3-1,2.4-2.2,3.7-3.3c0.2,1.1,0,2,1.2,3
	c1.6,1.3,4.4,1.4,6.8,0.3L121.9,36.5z"/>
<path d="M55.6,47.5l-14.2-0.1l4.1-9.3H31.7l-0.3-0.3c-1.8,0.9-3.9,1.1-5.8,0.7c-1-0.2-1.9-0.7-2.6-1.4c-5.8,3.2-11.3,3.9-15.4,2.1
	c-3.3-1.4-5.5-4.3-6.4-8.4c-1.6-6.5-0.2-13.4,3.8-18.7c2.6-3.6,6-6.5,9.8-8.7C24.9-2.2,30.4,1.7,31.8,3c1.8,1.6,2.7,4,2.3,6.3h6.4
	c0.7-1.4,2.9-6,3.4-7.6L44,1.3h13.4L55,7.6h5.6l-3.1,7.8h11.4c0.9-1.8,1.7-3.6,2.6-5.3c1.3-2.8,2.7-5.7,4.2-8.5l0.2-0.4h13.6L89.5,2
	c-0.1,0.9-0.2,1.8-0.4,2.6c0.6-0.8,1.3-1.7,2.3-3.1l0.2-0.3h15.9l-6.8,14.6c1.4-0.4,3-0.4,4.4,0.1c1.4-0.2,2.8-0.3,4.2-0.2
	c0.9,0,1.7,0,2.6,0c1.4-3.9,2.8-8,9.6-8.4c1.4-0.2,2.8,0.3,3.8,1.4c1.1,1.4,1.1,3.7,0.7,5.6l1.3-0.1l0.2,0.5
	c0.2,0.5,0.5,0.9,0.8,1.3c1.1-2.2,2.1-4.4,3.1-6.6c1.1-2.5,2.3-5.2,3.6-7.7l0.2-0.4h13.4l-0.4,1c-1.4,3.4-4.8,10.6-6.4,14l1.9-1
	l0.3,0.7c0.1,0.2,0.2,0.4,0.4,0.7c1.5-1,3.3-1.5,5.1-1.5c0.2-0.4,0.4-0.8,0.6-1.2c0.3-0.6,0.8-1.9,2.6-6.2l0.2-0.4h6.4
	c0.8-1.7,1.6-3.4,2.4-5l0.6-1.2h14l-0.5,1l-2.6,5.2h7.4l-0.5,1c-0.7,1.6-1.5,3.2-2.2,4.8c-1.1,2.4-2.2,4.6-3.1,6.8l-0.2,0.4h-7.1
	l-4.7,9.6c-0.8,2-0.9,4.2-0.2,6.2l0.1,0.2c0.3,0.3,0.4,0.8,0.2,1.3c-0.2,0.3-0.5,0.5-0.8,0.5h-13c-0.5,0.1-0.9-0.1-1.1-0.5
	c-0.5,0.2-1,0.4-1.5,0.5h-0.1h-23.8l-0.8-0.7c-2.6,1-5.4,0.8-7.1-0.6c-0.7-0.5-1.1-1.2-1.3-2.1l-0.1,0.1c-0.9,0.8-1.7,1.6-2.6,2.3
	l0,0c-2.8,1.9-7.7,2.5-11,0.6c-1.9,0.9-4.1,1-6.2,0.4h-0.1c-1.1-0.5-2-1.3-2.8-2.3c-0.4,0.6-0.7,1.3-1,2l-0.2,0.4H60L55.6,47.5z
	 M43.6,46.1l11.2,0.1l4.4-9.3h29.3c0.3-0.7,0.7-1.4,1.1-2.1l0.4-0.6l0.7-1.1l0.6,1.1c0.6,1.1,1.5,2,2.7,2.6c1.8,0.6,3.8,0.4,5.4-0.5
	l0.4-0.3l0.4,0.3c2.7,1.9,7.2,1.4,9.8-0.3c0.9-0.7,1.7-1.4,2.5-2.2l1.1-1l1-0.9l0.2,1.3c0,0.3,0.1,0.5,0.1,0.7
	c0,0.7,0.3,1.4,0.8,1.8c1.4,1.1,3.9,1.2,6.1,0.2l0.4-0.2l1.1,1h23c0.6-0.2,1.2-0.4,1.8-0.7c0.3-0.1,0.5-0.2,0.8-0.3l2.4-0.8
	l-1.5,1.8h11.7v-0.1c-0.8-2.4-0.7-4.9,0.3-7.2l5.1-10.5h7.1c0.9-2.1,1.9-4.2,3-6.4c0.6-1.2,1.2-2.5,1.8-3.7h-6.3
	c-0.2,0-0.3,0-0.5-0.1l-0.6-0.3l0.5-1l0,0c0.3-0.5,0.9-1.8,2.5-4.8h-10.9L163,3c-0.9,1.8-1.8,3.6-2.6,5.4l-0.2,0.4h-6.5
	c-1.7,3.9-2.2,5.1-2.4,5.7c-0.2,0.6-0.5,1.1-0.8,1.7l-0.2,0.4h-0.5c-1.9-0.1-3.8,0.5-5.3,1.7l-0.6,0.5l-0.4-0.6
	c-0.1-0.2-0.4-0.6-0.5-0.9l-4.3,2l0.9-1.9c0-0.1,4.7-9.8,6.8-14.8H136c-1.2,2.4-2.3,4.9-3.4,7.3s-2.3,5.1-3.6,7.7l-0.6,1.1l-0.7-1.1
	c-0.2-0.3-0.4-0.5-0.6-0.8c-0.3-0.4-0.6-0.8-0.8-1.2l-2.3,0.1l0.3-0.9c0.5-1.7,0.7-4-0.2-5.3c-0.6-0.7-1.6-1-2.6-0.9
	c-5.9,0.4-7,3.6-8.4,7.6l-0.2,0.7h-0.4c-1.1,0.1-2.1,0.1-3.2,0.1c-1.4-0.1-2.7,0-4.1,0.3h-0.2l-0.2,0c-1.7-0.6-3.5-0.4-5.1,0.4
	l-1.9,1l7.4-16.1h-13c-2,2.7-2.6,3.4-4,5.5L87,7.7c0.3-1.4,0.7-3.2,0.9-5H76.7c-1.5,2.6-2.7,5.3-4,8c-0.9,1.9-1.8,3.9-2.8,5.8
	l-0.2,0.4H55.4l3.1-7.8H53l2.5-6.3H45.1c-0.9,2.3-3.4,7.5-3.5,7.7l-0.2,0.4H32l0.4-1c0.7-2.1,0.1-4.4-1.6-5.8
	C29.6,3,24.7-0.4,15.4,4.8C12.6,6.3-1.1,14.8,2.5,30.7c0.8,3.6,2.8,6.1,5.6,7.4c3.8,1.7,9.1,0.9,14.7-2.3l0.6-0.3l0.3,0.6
	c0.5,0.7,1.3,1.2,2.1,1.4c1.8,0.4,3.6,0.1,5.2-0.8l0.5-0.3l0.7,0.6h15.4L43.6,46.1z"/>
<path d="M166.9,32.6c1.2,0,2.3-1,2.3-2.2c0-1.2-1-2.3-2.2-2.3c-1.2,0-2.3,1-2.3,2.2c0,0,0,0,0,0C164.7,31.6,165.7,32.6,166.9,32.6
	C166.9,32.6,166.9,32.6,166.9,32.6L166.9,32.6z M166.9,32.3c-1.1,0.1-2-0.7-2.1-1.7c-0.1-1.1,0.7-2,1.7-2.1c1.1-0.1,2,0.7,2.1,1.7
	c0,0.1,0,0.1,0,0.2C168.7,31.4,168,32.3,166.9,32.3C167,32.3,166.9,32.3,166.9,32.3z M165.9,29.3c0.3,0,0.3,0,0.3,0.3v1.6
	c0,0.2,0,0.3-0.3,0.3v0.1h1.1v-0.1c-0.3,0-0.3,0-0.3-0.3v-0.7h0.2c0.3,0.5,0.5,1.1,0.7,1.1h0.5v-0.1c-0.2-0.2-0.3-0.3-0.4-0.5
	l-0.4-0.5c0.3-0.1,0.5-0.4,0.5-0.7c0-0.4-0.3-0.6-0.7-0.6h-1.2V29.3L165.9,29.3z M166.7,29.3h0.2c0.2,0,0.4,0.1,0.4,0.5
	s-0.1,0.6-0.4,0.6h-0.2L166.7,29.3L166.7,29.3z"/>
<path class="st1" d="M100.4,34.6c0,0-4.6,3-7.5-0.8c-4.1-5.5,4.2-13.4,8.8-14.7c3.7-1,3.9-0.5,5.1,1.4l0.8-1.4h5.4
	c0,0-2.9,6.8-5.5,12.6c2.9-1.8,6.3-9.9,6.7-13.4s1-6.4,4.2-7.6c1.7-0.7,3.2-1.1,4.7-0.1c2.5,1.7-2.1,7.4-2.1,7.4
	c1.5-0.2,3.1-1.3,4.4-0.2c0.9,0.8,1.6,1.8,1.1,3c-1.6,3.6-5.4,7.3-3.9,8.1c3.3,2,15-24.8,15-24.8c6.6,0,0-0.1,6.5,0l-8.2,18.1
	c2.5-0.9,4.8-2,6.8-2.8c1.2,2.3,1,2.1,1.2,1.9c2.5-2,5.7-3.4,8.8-2.8c1.9,0.4,2.4,2.3,2.7,4.2c0.7,4.2-8.7,6.7-8.8,6.6
	c-0.3,0.7,3.2,4,6.1,1.4c0.6-0.6,1-1.1,6.6-13.7c-6.6,0,0.3,0-6.3,0l2.7-6.4l6.6,0.3c3.2-6.6-0.3,0.6,3-6.5h6.2c0,0,0.1-0.3-3.1,6.6
	h6.9c-1.1,2.2-1.6,4.1-2.6,6.2h-7c-5.7,12.5-4.8,11.7-7.1,16.7c-0.2,0.4,0.4,1,0.4,1h-7.3c-0.2-0.4-0.7-0.6-0.3-1.3
	c-3.4,2-4.3,2.6-6.7,2.1c-2-0.6-3.5-2.2-4.2-4.1c-0.6-1.7-0.6-3.6,0.1-5.3l-3.1,1.3c0.9,2.7,2.3,5.2,4.1,7.3h-5.9
	c-1.8-1.3-2.4-3.4-3.3-5.3c-0.8,1.2-1.9,2.8-1.2,4.4c0.1,0.3,0.4,0.4,0.3,0.8h-6.6c-0.6-0.8-0.3-2.1-0.4-3c-2.3,3.4-4.5,4-7.4,2.9
	c-4.3-1.6,1.1-9.4,2.7-11.5c-0.8,0-1.7,0-2.5,0.1c-2.2,3.9-3.5,8-7.3,10.8C107.4,35.7,102.9,36.9,100.4,34.6L100.4,34.6L100.4,34.6z
	"/>
<path class="st1" d="M28.6,15.2h-5c0.1-1.1,4.4-6.1,2.1-5.8c-4,0.7-11,11.5-11,17.6c0,3.8,4.1,3.9,4.7,3.6c2.2-0.4,5.3-2.6,5.7-3.3
	c4.7-10.1,4.1-8.4,4.1-8.4h6.3c0,0-4.5,8.9-5.4,11.9c-0.2,0.5,0.6,0.7,0.8,0.9c1,0.2,1.6-0.3,2.4-0.9c2.3-4.2,4.3-8.8,6.4-13.1h-2.4
	l2.4-5.9c3.6,0-0.2,0,3.1,0l3.6-7.3h6.3c-2.7,6.7-0.4,0.5-3.2,7.3c5.8,0,0.5,0,6.1,0c-2.7,6.1,0.3-0.5-2.4,5.7c-6.3,0-4.3,0-6.3,0.1
	L39.9,33c-0.1,0.9,0.1,1.7,0.6,2.4l-7,0.1c-0.5-0.4-0.4-1.1-0.6-1.7c-2,1.8-6.3,3.6-8,1c-0.5-0.8-0.7-1.7-0.7-2.7
	c-2.1,2.5-5.1,4.2-8.4,4.7c-4.9,0.4-9.6-0.6-11.2-5.6c-2.6-8.4,0.9-17.4,8.7-23.1c4.3-3.2,7.8-4.8,13-4.4
	C34.8,4.5,28.5,15.2,28.6,15.2L28.6,15.2z"/>
<path class="st1" d="M82.5,20.3C85,17,93.9,4.5,93.9,4.5h8.5L98,14.1l-9.9,20.7h-6.9c2.3-5.2-0.1,0.1,2.3-5.1c0,0-2.7,3.5-4.2,5.2
	h-6c0-2,0.6-4.3,0.6-6.4c-1.3,2-2.2,4.2-3.5,6.4h-6.8L78.1,4.4h7.8C85.9,4.4,83.4,15.4,82.5,20.3L82.5,20.3z"/>
<path class="st1" d="M37.7,11.8c-2.6,6.3,0.5-0.9-2.2,5.7h-6l2.3-5.7L37.7,11.8L37.7,11.8z"/>
<path class="st1" d="M55.6,18.5l-4.4,9.9c0,0.4,0,0.9,0.4,1.1c1.2,0.3,1.6-0.8,2.1-1.5l4.5-9.4h7.7L53.7,44.1l-0.3,0.2h-7.2
	c-0.5-0.5,0.2-1,0.3-1.5c1.3-2.7,2.6-5.4,3.7-8.2c-0.7,0.6-2.8,2-6.1,0.4c-1.6-1.1-1.4-4.6-1-6l5-10.6L55.6,18.5L55.6,18.5z"/>
<path class="st0" d="M98.7,29.6c0.1-2.6,3.3-5.7,5.6-6.8c0.9-0.4,1.3-0.3,1.1,0.5c-0.1,0.4-0.2,0.8-0.4,1.1c-0.2,0.4-0.4,1-0.7,1.5
	l-1.5,2.7c0,0.1-0.1,0.2-0.1,0.4c-0.1,0.1-0.2,0.4-0.5,1C100.5,33.1,98.6,31.6,98.7,29.6L98.7,29.6z"/>
<path class="st0" d="M147,25.2c-0.4-0.5,0.1-2.7,1.7-3.4c0.3-0.2,0.7-0.3,1-0.3c0.5,0,1,0.3,1.1,0.7C151.5,23.8,147.9,25.7,147,25.2
	L147,25.2z"/>
</svg>
