<?xml version="1.0" encoding="utf-8"?>
<!-- Generator: Adobe Illustrator 21.1.0, SVG Export Plug-In . SVG Version: 6.00 Build 0)  -->
<svg version="1.1" id="Layer_1" xmlns="http://www.w3.org/2000/svg" xmlns:xlink="http://www.w3.org/1999/xlink" x="0px" y="0px"
	 viewBox="0 0 173.8 136.1" style="enable-background:new 0 0 173.8 136.1;" xml:space="preserve">
<style type="text/css">
	.st0{fill:#99570E;}
	.st1{fill:#B7171D;}
</style>
<title>Casual dining</title>
<path class="st0" d="M153.7,0.5c0.2,0.3,0.7,0.4,0.9,0.6c0.6,0.4,0.8,1.2,0.4,1.8c-1,2.2-2.1,4.4-3.1,6.6c-2,4.2-4.1,8.4-6.2,12.6
	c-2.7,5.3-5.4,10.6-8.2,15.9c-1.7,3.2-3.4,6.4-5.1,9.7c-0.2,0.3-0.3,0.6-0.3,0.9c0,0.4,0,0.7,0.5,0.8s0.9,0.2,0.9,0.8
	s-0.5,0.8-0.9,1c-0.7,0.2-1.4,0.5-2.1,0.8c-0.4,0.1-0.6,0.4-0.8,0.7c-2.2,3.7-4.5,7.4-6.8,11.1c-3.7,5.9-7.7,11.6-12.1,17.1
	c-4.4,5.6-9.5,10.7-15.1,15.1c-3.2,2.5-6.7,4.6-10.3,6.4c-3.5,1.7-7.2,3.1-10.9,4c-2.3,0.7-4.7,0.9-7.1,0.5c-3.5-0.7-6.1-3.2-6.1-7
	c0.1-3.1,1.1-6.1,2.8-8.6c2.8-4.2,6.2-8.1,10-11.4c5.7-5.1,11.8-9.6,18.3-13.5c6.7-4.1,13.6-7.7,20.8-10.9c4.1-1.8,8.3-3.4,12.6-4.8
	c0.6-0.2,1.2-0.6,1.4-1.2c2.2-4.3,4.5-8.7,6.7-13c2.3-4.5,4.6-9,6.8-13.5c2.5-5.1,5-10.2,7.2-15.4c0.3-0.8,0.2-1-0.7-0.9
	c-2.9,0.2-5.9,0.6-8.7,1.2c-3,0.7-6,1.7-8.8,3c-4.8,2.2-9.2,5-13.1,8.5c-4.7,4.3-8.6,9.5-11.2,15.3c-1.8,3.8-2.6,8-2.2,12.2
	c0.2,1.5,0.7,3,1.4,4.4c0.2,0.5,0.3,0.9-0.2,1.2s-0.9,0-1.1-0.4c-0.7-1.2-1.3-2.6-1.7-3.9c-1-3.5-1.3-7.2-0.8-10.8
	c0.5-3.8,1.8-7.5,3.9-10.8c3.4-5.4,8.1-9.9,13.6-13.1c4.4-2.7,9.1-4.8,14-6.2c3.4-1.1,6.9-2,10.3-2.7c2.3-0.5,4.6-1,6.9-1.5
	c1.3-0.4,2.5-1.2,3.4-2.3L153.7,0.5z M69.5,104.8c1.3,0,2.5-0.2,3.8-0.6c5.6-1.5,10.9-3.9,15.7-7.1c7.6-5,13.9-11.5,19.5-18.7
	c3.3-4.3,6.3-8.8,9.2-13.3c2.4-3.7,4.7-7.4,7-11.1c0.1-0.2,0.4-0.4,0.2-0.6s-0.4,0-0.7,0c-4,1.4-7.9,3.1-11.8,4.8
	c-4.8,2.2-9.6,4.7-14.1,7.5c-9.1,5.5-17.7,11.7-25.1,19.4c-2.8,2.8-5.2,5.9-7.3,9.2c-1.1,1.6-1.8,3.5-2.1,5.4
	c-0.2,1.2,0.1,2.5,0.9,3.5C66,104.6,67.8,104.8,69.5,104.8z"/>
<path class="st1" d="M0.5,122.7c0.4-0.9,0.4-1.9,0.8-2.7c1-2.7,3.3-4.7,6.2-5.2c1.4-0.2,2.9,0,4.2,0.6c0.9,0.5,2,0.6,3,0.2
	c0.6-0.3,1,0.4,1.5,0.7c0.5,0.3-0.1,0.6-0.2,0.8c-0.7,1.4-1.4,2.8-2.1,4.2c-0.2,0.4-0.4,0.4-0.7,0.2c-0.5-0.3-0.9-0.8-1-1.4
	c-0.5-1.5-1.9-2.6-3.5-2.6c-1.2,0-2.3,0.9-2.5,2.1c-1.2,3.4-1,7.1,0.5,10.4c0.6,1.5,2.3,2.3,3.9,1.9c0.9-0.3,1.7-1,2-1.9
	c0.4-0.8,0.6-1.7,0.7-2.6c0-0.4,0.3-0.6,0.7-0.6c0,0,0,0,0.1,0c0.9-0.1,1.7,0.6,1.8,1.5c0,0.1,0,0.2,0,0.3c-0.3,2.9-1.7,5.1-4.7,6.1
	c-2.8,0.8-5.9-0.1-7.8-2.4c-1.3-1.6-2.2-3.6-2.6-5.7c0-0.2-0.1-0.4-0.2-0.5L0.5,122.7z"/>
<path class="st1" d="M84,135.5c-0.7-0.4-1.5-0.5-2.2-0.9c-0.9-0.6-1.6-1.5-1.9-2.6c-0.1-0.3-0.2-0.7-0.3-1c-0.1-0.7-0.6-1.2-1.2-1.3
	c0.3-0.4,0.7-0.7,1.1-1c0.9-0.7,1.7-1.3,2.6-1.9c0.2-0.2,0.4-0.4,0.8-0.3c1,0.3,1,0.4,0.8,1.5c-0.3,1.1-0.2,2.2,0.3,3.2
	c0.1,0.2,0.2,0.4,0.3,0.6c0.4,0.5,0.9,1,1.6,0.9s0.8-0.9,1-1.5c0.2-0.8,0.3-1.7,0.2-2.6c0-3.6,0-7.3,0-10.9c0.1-0.8-0.3-1.5-0.9-2
	c-0.2-0.2-0.4-0.3-0.6-0.5c-0.1-0.1-0.2-0.2-0.1-0.3s0.2-0.1,0.3-0.1h5.5c0.5,0,0.7,0.3,0.9,0.7s-0.1,0.5-0.3,0.7
	c-0.6,0.5-1,1.4-0.9,2.2c0.1,3.5,0,7,0,10.4c-0.1,0.7,0.2,1.4,0.7,1.8c0.3,0.2,0.2,0.4,0.1,0.7c-0.5,1.6-1.7,2.8-3.1,3.6
	c-0.8,0.4-1.6,0.5-2.3,0.8L84,135.5z"/>
<path class="st1" d="M173.2,122.8c-0.4,0.4-0.6,0.9-1.2,1.2c-1.1,0.5-2.3,0.2-2.9-0.9c-0.6-1-0.2-2.3,0.8-2.9c1-0.6,2.3-0.3,3,0.6
	c0.1,0.2,0.1,0.4,0.4,0.5L173.2,122.8z M171,120.4c-0.9,0-1.6,0.7-1.6,1.6c0,0,0,0.1,0,0.1c0,0.9,0.8,1.7,1.7,1.7c0,0,0,0,0,0
	c0.9-0.1,1.6-0.8,1.6-1.8C172.7,121.2,171.9,120.4,171,120.4C171,120.4,171,120.4,171,120.4L171,120.4z"/>
<path class="st0" d="M48,75.1c-3.4,0-6.8-0.3-10.2-1.1c-3.4-0.8-6.6-2.1-9.5-3.9c-2.2-1.3-4.2-3-5.8-4.9c-2.3-2.9-3.3-6.5-2.9-10.2
	c0.5-4.4,2.2-8.6,4.8-12.2c3.5-5,7.7-9.5,12.5-13.3c6.1-5.1,12.7-9.5,19.7-13.2c4.5-2.5,9.2-4.6,14.1-6.4C76.1,7.7,82,6.9,87.8,7.3
	c2.4,0.1,4.7,0.8,6.6,2.1c0.2,0.2,0.5,0.2,0.7,0c0,0,0,0,0,0c0.2-0.1,0.3-0.3,0.4-0.5c0.2-0.5,0.8-0.6,1.2-0.4
	c0.1,0,0.1,0.1,0.1,0.1c0.4,0.3,0.6,0.8,0.3,1.3c0,0.1-0.1,0.1-0.1,0.2c-0.6,0.6-0.7,1.6-0.2,2.3c0.6,2,0.8,4.2,0.4,6.3
	c-0.4,4.1-2.3,7.4-4.9,10.5c-2.4,2.8-5.1,5.3-8.2,7.3c-1.1,0.7-2.4,0.9-3.6,0.5c-0.8-0.2-1.1-0.5-1-1.4c0.2-2.6,0.9-5.1,2.1-7.3
	c2.7-5.4,6.1-10.5,10.1-15c0.4-0.3,0.4-0.8,0.1-1.2c0,0-0.1-0.1-0.1-0.1c-0.8-1-2-1.6-3.2-1.9c-2.1-0.6-4.4-0.7-6.6-0.5
	c-4.6,0.5-9.2,1.7-13.5,3.6c-7,2.9-13.6,6.6-19.7,11.1c-4.7,3.3-9.1,7.1-13.2,11.2c-3.6,3.5-6.6,7.6-9.1,12c-1.1,2-2,4.2-2.7,6.4
	c-1.2,4.9-0.1,9.8,4.2,13.4c2.3,1.9,5.1,3.2,8,4c4.6,1.1,9.4,1.5,14.1,1c4.4-0.3,8.7-1,13-2.1c4.6-1.1,9.1-2.6,13.5-4.5
	c6.8-2.8,13.1-6.5,18.8-11.2c0.5-0.4,0.9-0.8,1.4-1.3c0.2-0.2,0.3-0.3,0.5-0.4c0.4-0.2,0.8-0.3,1.1,0.1c0.3,0.3,0.3,0.8,0,1.1
	c-0.7,0.9-1.5,1.7-2.4,2.4c-3.9,3.5-8.3,6.5-12.9,8.9c-5.3,2.8-10.9,5.1-16.7,6.9C60.5,74.1,54.2,75.1,48,75.1z M93.8,18.4
	c0-0.8-0.1-1.6-0.2-2.3c-0.1-0.4-0.1-0.8-0.4-0.9s-0.6,0.3-0.8,0.6c-2.5,2.9-4.6,6.2-6.3,9.7c-1.1,2.1-2,4.4-2.8,6.6
	c-0.3,0.8-0.5,1.5-0.6,2.3c0,0.2-0.1,0.3,0.1,0.5s0.3,0,0.4-0.1s0.3-0.1,0.4-0.2c3.2-2.2,5.8-5,7.7-8.3
	C92.7,23.8,93.6,21.1,93.8,18.4z"/>
<path class="st1" d="M65.1,134.3c-1.7,0-3.4,0-5.1,0c-0.5,0-0.7-0.4-0.9-0.7s0.2-0.5,0.5-0.6c1.2-0.6,1.8-1.9,1.7-3.2
	c-0.1-2.6,0-5.2,0.1-7.8c0.1-0.6-0.2-1.2-0.7-1.6c-0.3-0.2-0.5-0.5-0.8-0.7c0.1-0.3,0.3-0.2,0.5-0.2h4.8c0.2,0,0.4,0,0.6,0.1
	c0.7,0.5,0.8,0.7,0,1.2c-0.4,0.2-0.6,0.8-0.4,1.2c0,0,0,0,0,0.1c0.7,1.8,1.2,3.6,1.8,5.4c0.1,0.2,0,0.4,0.3,0.4s0.2-0.2,0.3-0.4
	c0.7-2,1.5-4.1,2.2-6.1c0.2-0.5-0.3-0.7-0.5-1s-0.7-0.4-0.5-0.8s0.6-0.1,0.9-0.1c1.3,0,2.6,0,3.9-0.1c0.7,0,1,0.5,1.2,0.9
	c0.2,0.3-0.2,0.5-0.4,0.6c-0.6,0.2-0.9,0.8-0.8,1.4c0,2.6,0.1,5.3,0,7.9c-0.1,1.1,0.3,2.3,1.2,3.1c0.3,0.3,0.8,0.6,0.6,0.9
	s-0.7,0.1-1,0.1c-1.1,0-2.3,0-3.4,0c-0.7,0-1-0.4-1.3-0.9s0.2-0.7,0.4-1c0.3-0.3,0.4-0.6,0.4-1c0-1.4-0.1-2.8-0.1-4.2
	c0-0.2,0.1-0.4-0.1-0.5s-0.3,0.2-0.3,0.4c-0.7,2.1-1.3,4.1-2,6.2c-0.2,0.5-0.3,1-1,1c-0.3,0-0.6-0.2-0.7-0.5
	c-0.8-2.1-1.6-4.3-2.4-6.4c-0.1-0.3-0.2-0.9-0.5-0.8s-0.2,0.6-0.2,0.9c0,0.9,0,1.9,0.1,2.8c0,1.2,0.5,2.3,1.2,3.1
	C64.9,133.6,65.1,134,65.1,134.3z"/>
<path class="st1" d="M117,128c0.3-0.9,0.6-1.7,1-2.6c0.4-1.1,0.7-2.2,1.2-3.3c0.4-0.6,0.2-1.4-0.4-1.8c-0.2-0.1-0.5-0.3-0.3-0.6
	s0.4-0.1,0.7-0.1c1.4,0,2.7,0.1,4.1-0.1c0.6-0.1,0.9,0.4,1.1,0.8s-0.1,0.5-0.3,0.6c-0.6,0.3-0.9,0.9-0.8,1.5c0,3,0,6,0,9
	c0,0.8,0.6,1.1,0.9,1.6s0.9,0.7,0.7,1s-0.9,0.1-1.3,0.2c-1.1,0-2.2,0-3.2,0c-0.7,0-1-0.5-1.4-0.9c-0.2-0.2,0.1-0.4,0.2-0.5
	c0.7-0.5,1-1.4,0.9-2.2c-0.1-1.1,0-2.1,0-3.2c0-0.2,0.1-0.6-0.2-0.7s-0.4,0.4-0.5,0.6c-0.6,1.7-1.1,3.4-1.7,5
	c-0.1,0.4-0.3,0.9-0.4,1.3s-0.4,0.5-0.7,0.5c-0.3,0.1-0.7-0.1-0.8-0.5c-0.8-2.1-1.6-4.3-2.4-6.4c-0.1-0.3-0.1-0.9-0.5-0.8
	s-0.2,0.6-0.2,0.9c0,0.6,0.1,1.3,0,1.9c-0.1,1.5,0.3,3,1.3,4.2c0.1,0.1,0.3,0.3,0.2,0.5s-0.3,0.1-0.5,0.1h-4.2c-0.2,0-0.5,0-0.7-0.2
	c-0.4-0.4-0.4-0.7,0.1-1c0.3-0.2,0.7-0.4,1-0.7c0.6-0.5,0.9-1.2,0.9-2c0-2.7,0-5.4,0.1-8.1c0.1-0.8-0.2-1.5-0.9-2
	c-0.2-0.2-0.4-0.4-0.5-0.6c0.3-0.1,0.7-0.2,1-0.2h4c0.2,0,0.4,0,0.6,0c0.3,0.1,0.6,0.3,0.7,0.7c0.1,0.3-0.3,0.4-0.5,0.6
	c-0.6,0.3-0.6,0.7-0.4,1.3c0.6,1.8,1.2,3.5,1.8,5.3C116.6,127.6,116.7,127.8,117,128z"/>
<path class="st1" d="M156.5,126.7c0-1.4,0-2.7,0-4.1c0-0.7,0-1.2-0.8-1.5c-0.4-0.1-0.5-0.3,0-0.6c2.6-1.5,5.7-1.8,8.6-0.8
	c1.7,0.4,2.9,2,2.8,3.8c-0.1,1.2-0.8,2.3-1.9,2.9c-0.7,0.4-0.7,0.7-0.4,1.3c0.5,1,1,2,1.4,3c0.6,1.1,1.3,2.1,2.3,2.8
	c0.2,0.2,0.5,0.3,0.3,0.6s-0.4,0.1-0.6,0.1c-1.4,0-2.8,0-4.2,0c-0.4,0-0.8-0.2-1.1-0.5c-0.3-0.4-0.4-0.7,0-1.1s0.4-0.8,0.1-1.2
	c-0.5-1-1.1-2-1.5-3c-0.3-0.6-0.6-0.4-1-0.3s-0.9,0.1-0.9,0.7c0,1,0,2,0,2.9c0,0.8,0.8,1.2,1.1,1.8c0.1,0.2,0.5,0.4,0.4,0.6
	s-0.5,0.1-0.7,0.1c-1.3,0-2.7,0-4,0c-0.7,0-0.9-0.4-1.2-0.9s0.2-0.6,0.5-0.8c0.6-0.4,0.9-1.1,0.8-1.9c-0.1-1.3,0-2.6,0-4
	L156.5,126.7z M159.7,123.7L159.7,123.7c0,0.6,0,1.1,0,1.7c0,0.4,0.1,0.6,0.6,0.5c0.8-0.2,1.6-0.5,2.2-1.1c0.7-0.4,1-1.2,0.9-2
	c-0.6-1.3-2.1-1.9-3.5-1.4c-0.2,0.1-0.2,0.4-0.2,0.6C159.7,122.6,159.7,123.1,159.7,123.7L159.7,123.7z"/>
<path class="st1" d="M38.9,134.3c-1.9,0-3.7,0-5.6,0c-0.7,0-0.9-0.6-1.2-1c-0.1-0.1,0-0.3,0.1-0.3c2.1-1,2.8-3.1,3.5-5
	s1.6-4.2,2.4-6.3c0.3-0.6,0.1-1.3-0.4-1.7c-0.1-0.1-0.4-0.3-0.3-0.5s0.3-0.1,0.5-0.1h4.6c0.4,0,0.7,0.1,0.9,0.4
	c0.2,0.3-0.3,0.5-0.5,0.7c-0.4,0.4-0.5,1-0.3,1.4c1.2,3.1,2.4,6.3,3.5,9.5c0.4,1,1.3,1.5,1.9,2.3c0.1,0.2,0.4,0.3,0.3,0.5
	s-0.4,0.1-0.6,0.1c-1.6,0-3.2,0-4.8,0.1c-0.6,0-1.2-0.3-1.5-0.9c-0.2-0.2,0-0.4,0.2-0.5c1.1-0.6,1.2-1.5,0.6-2.6
	c-0.4-0.7-0.3-1.8-0.9-2.3s-1.6-0.1-2.5-0.1s-1.1,0.3-1.2,1c-0.1,0.4-0.2,0.7-0.3,1.1c-0.4,1.3,0,2.7,1,3.6
	C38.7,133.9,38.9,134.1,38.9,134.3z M39.9,122.8c-0.4,1-0.7,1.8-1,2.6s-0.2,0.9,0.6,0.9h1.2c0.3,0,0.6-0.2,0.4-0.5
	C40.8,124.7,40.4,123.7,39.9,122.8z"/>
<path class="st1" d="M140.3,119.6h11c0.3,0,0.7,0.2,0.8,0.5c0.1,0.3,0.1,0.6-0.1,0.8c-0.5,0.6-0.9,1.3-1.3,2c-0.3,0.6-0.6,0.6-1,0.1
	c-0.1-0.2-0.3-0.3-0.4-0.5c-1-0.9-2.4-1.3-3.8-1c-0.4,0-0.4,0.3-0.4,0.6c0,0.8,0,1.6,0,2.4c0,0.3-0.1,0.8,0.4,0.8s1,0.2,1.3-0.3
	c0.2-0.3,0.4-0.6,0.6-0.9s0.3-0.4,0.6-0.3c0.3,0.1,0.6,0.3,0.6,0.7c0,1.1,0,2.3,0,3.4c0,0.1,0,0.4-0.2,0.4c-0.2,0-0.3-0.1-0.4-0.2
	c-0.6-0.7-1.4-1-2.3-0.8c-0.4,0-0.7,0.2-0.7,0.6c0,1.2,0,2.4,0,3.6c0,0.5,0.2,0.6,0.7,0.7c1.6,0.1,3-0.3,3.8-1.8
	c0.5-0.9,1.1-0.9,1.7-0.1c0.6,0.9,1.3,1.8,2,2.7c0.3,0.3-0.1,1.2-0.6,1.3c-0.2,0-0.5,0-0.7,0h-10c-0.3,0-0.5,0-0.8-0.1
	c-1-0.6-1-1.1-0.1-1.7c0.5-0.3,0.8-0.9,0.7-1.5c0-3,0-5.9,0-8.9c0.1-0.7-0.2-1.3-0.8-1.6C140.6,120.3,140.4,120,140.3,119.6z"/>
<path class="st1" d="M126.9,119.6h3.9c1.3,0,2.6,0,3.9,0c2.3,0.1,4,2,3.9,4.3c0,1.8-1.2,3.3-2.9,3.7c-1.2,0.3-2.5,0.4-3.7,0.3
	c-0.5,0-0.7,0.1-0.7,0.7c0,1,0,2,0,3c0,0.7,0.6,1.1,1,1.6c0.2,0.3,0.6,0.5,0.5,0.8s-0.6,0.2-1,0.2c-1.3,0-2.5,0-3.7,0
	c-0.7,0-1-0.4-1.4-0.8c-0.2-0.2,0-0.4,0.2-0.5c1.1-0.6,1.2-1.5,1.2-2.6c-0.1-2.7-0.1-5.4,0-8.1c0.1-0.7-0.2-1.4-0.8-1.9
	C127.1,120.1,127,119.9,126.9,119.6z M132.7,121.8c-1.4,0-1.4,0-1.4,1.1c0,0.5,0,1,0,1.5c0.1,1.7-0.4,1.7,1.7,1.4
	c1.1-0.1,2-1,1.9-2.2c0-0.4-0.1-0.7-0.3-1C134.2,122.1,133.5,121.8,132.7,121.8L132.7,121.8z"/>
<path class="st1" d="M102,119.6c0.1-0.1,0.3-0.2,0.5-0.1c1.2,0,2.4,0,3.7,0c0.4,0,0.7,0.2,0.9,0.6c0.2,0.5-0.2,0.6-0.4,0.7
	c-0.7,0.5-1.1,1.4-1,2.2c0.1,2.3,0,4.6,0,6.9c0,2.7-1.1,4-3.7,4.4c-1.7,0.4-3.5-0.1-4.9-1.2c-0.8-0.8-1.3-1.9-1.3-3
	c-0.2-1.6-0.1-3.3-0.1-5c0-0.9-0.1-1.7,0-2.6c0.2-1-0.2-2-1.1-2.5c-0.1-0.1-0.2-0.3-0.3-0.4c0.1-0.3,0.4-0.2,0.5-0.2h4
	c0.4-0.1,0.8,0.1,1,0.5c0.2,0.4-0.2,0.6-0.4,0.8c-0.4,0.3-0.6,0.8-0.5,1.3c0,2.5,0,5,0,7.6c-0.1,0.9,0.3,1.7,1,2.2
	c1.4,1.1,3.2,0.2,3.5-1.7c0.1-0.4,0.1-0.8,0.1-1.2c0-2.2-0.1-4.3,0-6.5c0.1-0.8-0.3-1.7-1-2.1C102.2,120.1,102.1,119.8,102,119.6z"
	/>
<path class="st1" d="M24,134.4c-1.7,0-3.4,0-5,0c-0.7,0-0.9-0.4-1.2-0.9c-0.2-0.3,0.1-0.4,0.3-0.5c0.9-0.5,1.3-1.6,1.1-2.6
	c-0.1-2.9,0-5.7,0-8.6c0.1-0.6-0.2-1.2-0.7-1.5c-0.2-0.1-0.3-0.3-0.5-0.4c-0.1-0.1-0.2-0.3-0.2-0.4s0.3-0.2,0.4-0.2h3.6
	c0.2,0,0.4,0,0.6,0c0.5-0.1,0.9,0.1,1.1,0.6c0.2,0.5-0.2,0.7-0.4,0.9c-0.3,0.3-0.5,0.7-0.5,1.2c0,3.1,0,6.2,0,9.4c0,0.9,0.1,1,1,0.9
	c1.5-0.2,2.7-0.4,3.2-2.6c0.1-0.4,0.2-0.4,0.6-0.3c0.8,0.4,1.5,1.1,1.8,1.9c0.2,0.4,0.4,0.7,0.7,1c0.4,0.4,0.5,1,0.2,1.5
	c-0.3,0.6-0.7,0.5-1.2,0.5L24,134.4L24,134.4z"/>
<path class="st1" d="M50.3,119.4h4.9c0.4,0,0.8,0.2,0.9,0.6c0.2,0.4-0.2,0.6-0.4,0.7c-0.4,0.4-0.7,0.9-0.6,1.4c0,3,0,6,0,9
	c0,0.6,0.2,1.1,0.6,1.6c0.5,0.5,0.8,1,1.4,1.7c-1.8,0-3.4,0-5,0c-0.6,0-1.2-0.2-1.5-0.7c-0.2-0.3-0.2-0.5,0.1-0.6
	c1.3-0.7,1.3-1.8,1.3-3.1c-0.1-2.6-0.1-5.3,0-7.9c0.1-0.7-0.3-1.4-0.9-1.8C50.7,120,50.5,119.8,50.3,119.4z"/>
<path class="st1" d="M170.2,122.1c0-1.1,0.1-1.3,1.1-1.1c0.5,0.1,0.9,0.4,0.6,0.9c-0.2,0.3,0,0.5,0.1,0.8s0.1,0.4-0.1,0.4
	s-0.3,0-0.4-0.2s-0.2-0.6-0.5-0.5s-0.2,0.4-0.3,0.6s-0.1,0.2-0.2,0.2s-0.2-0.1-0.2-0.3S170.2,122.4,170.2,122.1z"/>
</svg>
