<?xml version="1.0" encoding="utf-8"?>
<!-- Generator: Adobe Illustrator 21.1.0, SVG Export Plug-In . SVG Version: 6.00 Build 0)  -->
<svg version="1.1" id="Layer_1" xmlns="http://www.w3.org/2000/svg" xmlns:xlink="http://www.w3.org/1999/xlink" x="0px" y="0px"
	 viewBox="0 0 181 53.6" style="enable-background:new 0 0 181 53.6;" xml:space="preserve">
<style type="text/css">
	.st0{fill:#ED192D;}
</style>
<title>CR</title>
<path class="st0" d="M90.5,53.1c-21.4,0-42.8,0.1-64.1,0C11.8,52.8,0.3,40.9,0.5,26.4c0.2-12,8.6-22.4,20.3-25.2
	c2.1-0.5,4.3-0.7,6.5-0.7c42.1,0,84.3,0,126.4,0c11.4,0,19.7,5.4,24.5,15.7c5.6,12,0.7,26.7-10.8,33.3c-4.1,2.4-8.7,3.6-13.4,3.6
	C132.9,53.1,111.7,53.1,90.5,53.1L90.5,53.1z M90.5,6.6h-63c-1.4,0-2.9,0.1-4.3,0.3C12.2,8.9,4.9,19.5,7,30.5
	c1.8,9.6,10.2,16.6,20,16.6h127c1.5,0,3-0.1,4.4-0.4c10.9-2.4,17.9-13.1,15.5-24c-0.4-1.7-0.9-3.2-1.7-4.8
	c-3.8-7.4-10.1-11.2-18.5-11.2C132.6,6.5,111.5,6.6,90.5,6.6z"/>
<path class="st0" d="M103.4,37.7c-3.6,0-6.4-0.5-8.8-2.3c-3.3-2.4-4.9-6.5-4-10.4c0.6-4,3.5-7.2,7.4-8.1c3.3-1,6.7-0.9,9.9,0.3
	c5.5,2,8.2,8.1,6.2,13.6c-1.2,3.2-3.8,5.6-7.1,6.5C105.9,37.5,104.6,37.7,103.4,37.7z M102.6,22.1c-0.7,0-1.3,0-2,0.2
	c-2.2,0.3-4,2.1-4.1,4.4c-0.2,2.1,1.2,4,3.2,4.7c1.9,0.6,4.1,0.6,6,0c2.4-0.8,3.7-3.5,2.9-5.9c-0.4-1.3-1.5-2.4-2.8-2.8
	C104.8,22.2,103.7,22,102.6,22.1L102.6,22.1z"/>
<path class="st0" d="M152.7,37.7c-3.6,0-6.4-0.5-8.7-2.3c-3.2-2.3-4.8-6.3-4.1-10.1c0.5-4.1,3.3-7.4,7.3-8.5c3.3-1.1,6.9-1,10.1,0.2
	c5.5,2,8.2,8.1,6.2,13.6c-1.2,3.2-3.8,5.6-7.1,6.5C155.2,37.4,153.9,37.6,152.7,37.7z M151.9,22.1c-0.7,0-1.3,0-2,0.2
	c-2.1,0.2-3.8,1.9-4.1,4.1c-0.3,2.2,0.9,4.2,3,4.9c2.1,0.8,4.3,0.8,6.4,0c1.8-0.6,2.9-2.3,2.9-4.2c0.1-1.9-1-3.6-2.8-4.3
	C154.2,22.3,153.1,22,151.9,22.1L151.9,22.1z"/>
<path class="st0" d="M50.8,16.2c2.7-0.2,5.3,0.5,7.7,1.9c3.6,2.3,5.4,6.5,4.6,10.7c-0.6,4.3-3.8,7.7-8,8.5C51.3,38.1,47.5,38,44,36
	c-5-3-6.6-9.6-3.6-14.6c1.1-1.9,2.8-3.4,4.8-4.2C47,16.5,48.9,16.1,50.8,16.2z M51,22.1c-0.7,0-1.3,0-2,0.2c-2.2,0.3-4,2.1-4.1,4.3
	c-0.2,2.1,1.1,4,3.1,4.7c1.9,0.6,4.1,0.6,6,0c2.4-0.8,3.7-3.5,2.9-5.9c-0.4-1.3-1.4-2.3-2.7-2.8C53.2,22.2,52.1,22.1,51,22.1
	L51,22.1z"/>
<path class="st0" d="M87.7,31.7c0,1.8,0,3.6,0,5.4c0,0.5-0.1,0.7-0.6,0.6c-1.6,0-3.2,0-4.8,0c-0.5,0-0.7-0.1-0.7-0.7
	c0-3.2,0-6.3,0-9.5c0-0.6,0-1.3-0.2-1.9c-0.6-2.3-2.8-3.7-5.1-3.4c-2.2,0.3-3.9,2.1-4,4.3c-0.1,3.4-0.1,6.8-0.1,10.2
	c0,1.1,0,0.9-0.9,1h-4.6c-0.3,0-0.5,0-0.5-0.4c0.1-3.9-0.2-7.7,0.1-11.6c0.5-5,4.5-9,9.6-9.4c5.5-0.6,10.6,3.2,11.7,8.6
	c0.2,1.6,0.3,3.2,0.2,4.9C87.7,30.4,87.7,31,87.7,31.7L87.7,31.7z"/>
<path class="st0" d="M30.9,37.7c-2,0.1-4,0-6-0.3c-5.8-1.4-9.3-7.2-7.9-13c1-4,4.2-7.1,8.2-8c0.8-0.2,1.5-0.2,2.3-0.2
	c2.7,0,5.4,0,8.1,0c0.5,0,0.7,0.1,0.6,0.6c0,1.6,0,3.3,0,4.9c0,0.5-0.2,0.6-0.7,0.6c-2.7,0-5.4-0.1-8.1-0.1c-2.6-0.1-4.8,2-4.9,4.7
	c0,0,0,0,0,0c0,2.6,2,4.7,4.6,4.8c0,0,0,0,0.1,0c2.7,0,5.5,0,8.2,0c0.6,0,0.8,0.2,0.7,0.8c0,1.6,0,3.1,0,4.7c0,0.5-0.1,0.6-0.6,0.6
	C34.2,37.6,32.7,37.7,30.9,37.7z"/>
<path class="st0" d="M132.2,37.7c-2,0.1-3.9,0-5.9-0.3c-5.8-1.4-9.4-7.1-8-12.9c1-4.1,4.2-7.2,8.2-8.1c1-0.2,2.1-0.3,3.2-0.3
	c2.4,0,4.8,0,7.2,0c0.5,0,0.7,0.1,0.7,0.7c0,1.6,0,3.2,0,4.8c0,0.5-0.2,0.7-0.7,0.7c-2.7,0-5.3-0.1-8-0.1c-2.6-0.1-4.8,2-4.9,4.6
	c-0.1,2.6,1.9,4.8,4.5,4.9c0.1,0,0.1,0,0.2,0c2.7,0,5.4,0,8.1,0c0.6,0,0.8,0.1,0.8,0.7c0,1.5,0,3.1,0,4.6c0,0.6-0.2,0.7-0.8,0.7
	C135.3,37.6,133.9,37.7,132.2,37.7z"/>
</svg>
