<?xml version="1.0" encoding="utf-8"?>
<!-- Generator: Adobe Illustrator 21.1.0, SVG Export Plug-In . SVG Version: 6.00 Build 0)  -->
<svg version="1.1" id="Layer_1" xmlns="http://www.w3.org/2000/svg" xmlns:xlink="http://www.w3.org/1999/xlink" x="0px" y="0px"
	 viewBox="0 0 164.6 164.6" style="enable-background:new 0 0 164.6 164.6;" xml:space="preserve">
<style type="text/css">
	.st0{fill:#231F20;}
</style>
<title>Fast Casual</title>
<path class="st0" d="M43.5,75c5.4,0,8.9-3.9,8.9-9.9c0.1-2.5-0.7-5-2.3-7.1c-1.5-1.9-3.7-2.7-6.6-2.7c-6.3,0-8.6,5.3-8.6,9.9
	S37.2,75,43.5,75L43.5,75z M43.5,72c-4.7,0-5-5.3-5-6.9c0-1.6,0.4-3.2,1.1-4.6c0.8-1.5,2.4-2.3,4.1-2.2c1.5-0.1,3,0.6,3.9,1.8
	c0.8,1.5,1.2,3.1,1.2,4.8C48.9,67,48.4,71.9,43.5,72L43.5,72z"/>
<path class="st0" d="M118.7,59.6c-2.6,0-5,1.2-6.6,3.2c-1.5,2-2.2,4.5-2.1,7c0,5.8,3.4,9.6,8.6,9.6c2.1,0,4.2-0.7,5.9-2.1
	c1.2-0.9,1.9-2.3,2-3.8c0-0.9-0.7-1.6-1.6-1.7c0,0-0.1,0-0.1,0c-1.1,0-1.4,1-1.6,1.7c-0.6,2-1.9,2.9-4.4,2.9c-1.4,0-2.7-0.5-3.6-1.5
	c-1.1-1.3-1.7-2.9-1.7-4.6c0,0,0-0.1,0-0.2s1.3,0.1,11.4,0.1c2,0,2-0.4,2-2.2C126.9,63.1,123.5,59.6,118.7,59.6L118.7,59.6z
	 M122.4,67.1l-8.6-0.1l0.1-0.3v-0.2l0,0c0.5-2.3,2.5-4,4.9-4c2.5,0,4.2,1.7,4.5,4.5L122.4,67.1z M113.8,67.1L113.8,67.1z
	 M123.4,67.1c0-0.1,0-0.3-0.1-0.4C123.3,66.8,123.4,67,123.4,67.1L123.4,67.1z"/>
<path class="st0" d="M16.2,75.4c1.6,1.3,3.7,1.9,5.8,1.6c2.1-0.2,4.1-1.2,5.4-2.9c1-1.3,1.5-2.9,1.5-4.6C28.8,68.6,28,68,27.1,68
	c-1.3,0.1-1.5,1.3-1.6,2.2v0.3c-0.2,1.9-1.7,3.3-3.6,3.4c-4.5,0.5-5.4-4.6-5.6-6.2c-0.3-3.3,0.9-6.8,4.3-7.2
	c1.2-0.1,3.2,0.4,3.5,1.8l0,0c-0.9,0.1-1.5,0.8-1.5,1.7v0.2c0.1,0.6,0.3,1.1,0.8,1.4c0.5,0.4,1.1,0.6,1.8,0.5
	c2.1-0.2,2.7-2.1,2.5-3.7c-0.3-1.7-1.3-3.2-2.9-4.1c-1.4-0.7-2.9-1-4.4-0.8c-5.7,0.6-7.7,4.9-7.7,9.3c0,0.5,0,1,0.1,1.5
	C13.1,71.2,14.3,73.6,16.2,75.4L16.2,75.4z M24.1,62.3c0,0.1,0.1,0.2,0.1,0.2l0,0C24.2,62.5,24.2,62.4,24.1,62.3L24.1,62.3z"/>
<path class="st0" d="M62.5,77.1L62.5,77.1l2-0.2l2.4,0.3l1,0.2c0.9-0.1,1.8-0.6,1.9-1.6c0-0.4-0.1-0.7-0.4-1
	c-0.3-0.3-0.7-0.4-1.1-0.4l-1.6,0.2l-0.4-0.2c-0.3-0.6-0.4-1.2-0.3-1.8l0.1-3.9c0-2.2,0.1-5,1.5-6.3c0.7-0.6,1.6-1,2.6-0.9
	c1.3,0,2.6,0.8,2.7,2.1c-0.1,0.2-0.1,0.3-0.1,0.5c0,0-0.1-0.1-0.2-0.1c-0.5,0-0.9,0.2-1.2,0.5c-0.3,0.3-0.6,0.8-0.6,1.3
	c0,1.1,1,2,2.1,2c2.3,0,3.2-1.9,3.3-3.8c0.1-3.5-2.9-5.2-5.7-5.2c-1.7,0-3.4,0.7-4.6,2c0.1-0.7-0.4-1.4-1.1-1.6c0,0-0.1,0-0.1,0
	L64,59.2l-0.6,0.1l-0.8,0.1l-1-0.2L60.8,59c-0.9,0-1.9,0.5-1.9,1.6c0,0.8,0.6,1.4,1.4,1.5c0,0,0.1,0,0.1,0l1.2-0.1l0.7-0.1l0.4,0.2
	c0.2,0.5,0.3,1,0.3,1.6v0.7l-0.1,7.6v0.6c0,0.4,0,1.4-0.4,1.8l-0.2,0.1h-0.1l-1.5-0.2c-0.8-0.1-1.5,0.5-1.6,1.3c0,0,0,0.1,0,0.1
	c0,1.1,1,1.5,1.8,1.6L62.5,77.1L62.5,77.1z M65.8,60.8L65.8,60.8L65.8,60.8z M72.8,63.9L72.8,63.9V64l0,0l0,0l0,0V63.9z"/>
<path class="st0" d="M104,73.5l-1.6,0.3l-0.4-0.2c-0.3-0.3-0.4-1.6-0.4-2.1v-0.3l-0.2-6.4c-0.1-2-0.3-3.8-1.9-5.3
	c-1.5-1.2-3.4-1.9-5.3-1.8c-2.1,0-4,0.9-5.4,2.4c0-0.1,0-0.2,0-0.3c0.1-0.7-0.4-1.4-1.1-1.5c-0.1,0-0.1,0-0.2,0l-0.6,0.2l-1,0.2
	l-0.3,0.1l-0.9-0.1l-0.9-0.2c-0.9,0.1-1.9,0.7-1.8,1.7c0,0.4,0.2,0.7,0.5,1c0.3,0.3,0.7,0.4,1.1,0.4l1.6-0.3l0.4,0.2
	c0.3,0.7,0.4,1.4,0.4,2.1v0.3l0.3,7.8v0.3v0.8c0.1,0.5,0,1-0.3,1.4l-0.3,0.1c-0.5,0-1.1-0.1-1.6-0.1c-0.8,0-1.5,0.6-1.5,1.4
	c0,0,0,0.1,0,0.1c0.1,0.9,0.9,1.6,1.8,1.6L86,77l2.1-0.3l2.2,0.2l0.9,0.1c0.9-0.1,1.9-0.7,1.8-1.7c0-0.8-0.7-1.4-1.5-1.4
	c0,0-0.1,0-0.1,0L90.8,74l-0.5,0.1L89.8,74c-0.3-0.3-0.4-1.6-0.4-2.1v-0.3l-0.1-4.2v-1.3c-0.1-1.2,0.2-2.4,0.7-3.4
	c0.9-1.3,2.3-2,3.9-2c1.4-0.1,2.7,0.5,3.6,1.6c0.5,1.1,0.7,2.3,0.6,3.5l0.2,5.5v0.3v0.8c0.1,0.5-0.1,1-0.3,1.4l-0.3,0.1L97,73.8
	l-0.6-0.1c-0.4,0-0.8,0.2-1.1,0.5c-0.3,0.3-0.4,0.7-0.4,1.1c0.1,0.9,0.9,1.6,1.9,1.6l1.3-0.2l2.1-0.3l2.5,0.2l1,0.1
	c0.9-0.1,1.9-0.7,1.8-1.7C105.4,74.1,104.8,73.5,104,73.5c-0.1,0-0.1,0-0.1,0L104,73.5z M89.4,59.6c-0.2,0.2-0.4,0.4-0.6,0.6l0,0
	C89,60,89.2,59.8,89.4,59.6L89.4,59.6z"/>
<path class="st0" d="M135.5,62.4l1.2-0.3l0.6-0.1c0.2,0,0.3,0.1,0.5,0.1c0.4,0.3,0.5,1.5,0.6,2.1v0.2l0.8,7.7v0.3l0.1,1.2
	c0,0.3,0,0.7-0.2,1l-0.2,0.1l-0.2,0.1l-1.5-0.1c-0.8,0-1.4,0.7-1.4,1.5c0,0,0,0.1,0,0.1c0.2,0.9,1.1,1.5,2,1.4l1.6-0.3l2.1-0.4h2.5
	h1.1c0.9-0.2,1.8-0.8,1.7-1.8c0-0.4-0.2-0.7-0.5-1c-0.3-0.2-0.7-0.4-1.1-0.3l-1.2,0.3l-0.4,0.1l-0.4-0.1c-0.4-0.4-0.6-1.7-0.6-2.2
	l-0.4-3.5l-0.2-3c-0.1-1.3,0.2-2.5,0.9-3.6c0.6-0.7,1.5-1.2,2.5-1.2c1.3-0.1,2.8,0.5,3,1.8l-0.1,0.4c0,0-0.1-0.1-0.2-0.1
	c-0.5,0-0.9,0.3-1.2,0.7c-0.6,0.8-0.5,2,0.3,2.6c0,0,0,0,0,0c0.5,0.4,1.1,0.6,1.7,0.5c2.4-0.3,3-2.3,2.8-4.2
	c-0.1-1.3-0.7-2.5-1.8-3.4c-1.3-1-3-1.4-4.7-1.2c-1.8,0.2-3.5,1.1-4.5,2.7l0,0c0,0,0-0.1,0-0.1c0,0,0-0.1,0-0.1
	c0.1-0.7-0.4-1.3-1.1-1.3c-0.1,0-0.2,0-0.2,0l-0.7,0.2l-1.3,0.4l-1.1-0.1l-0.9-0.1c-0.9,0.2-1.9,0.7-1.8,1.8c0,0.4,0.2,0.8,0.5,1
	C134.6,62.4,135,62.5,135.5,62.4L135.5,62.4z M148.4,62.8L148.4,62.8C148.4,62.8,148.4,62.9,148.4,62.8L148.4,62.8L148.4,62.8
	L148.4,62.8L148.4,62.8z M141.4,59.8c-0.2,0.2-0.4,0.4-0.5,0.7l0,0c0,0,0,0,0-0.1C141,60.3,141.2,60,141.4,59.8L141.4,59.8z"/>
<path class="st0" d="M96.4,89.3c-2.6-0.1-5.1,1-6.7,3c-1.5,2-2.3,4.4-2.3,6.9c-0.1,5.8,3.2,9.6,8.4,9.8c2.2,0.1,4.3-0.6,5.9-2
	c1.2-0.9,2-2.3,2.1-3.8c0-0.9-0.7-1.7-1.6-1.7c0,0-0.1,0-0.1,0c-1.1,0-1.4,0.9-1.6,1.6c-0.7,2-2,2.8-4.4,2.8c-1.4,0-2.7-0.6-3.6-1.5
	c-1-1.2-1.6-2.8-1.6-4.5c0-0.1,0-0.1,0-0.2s0-0.1,0-0.1s1.3,0.1,11.4,0.4c1,0,1.4-0.1,1.7-0.3s0.3-0.9,0.4-1.9
	c0.1-2.3-0.7-4.5-2.2-6.1C100.6,90.1,98.5,89.2,96.4,89.3L96.4,89.3z M100.7,96.9c-0.4-0.1-7.1-0.2-7.1-0.2l-2.4-0.1l0.1-0.3v-0.1
	l0,0c0.5-2.3,2.6-3.9,5-3.9C98.9,92.4,100.5,94.1,100.7,96.9L100.7,96.9z M100.8,96.9c0-0.1,0-0.3-0.1-0.4
	C100.8,96.6,100.8,96.7,100.8,96.9L100.8,96.9z"/>
<path class="st0" d="M24.1,90.5c-1.8,0-3.6,0.8-4.8,2.2v-1.5l0-5c0-1-0.2-1.3-1.4-1.2l-1.8,0.4l-0.8-0.2L14.5,85
	c-0.6,0-1.2,0.2-1.7,0.6c-0.5,0.6-0.5,1.4,0,2c0.3,0.3,0.7,0.4,1.1,0.4l1.5-0.2l0.4,0.2c0.3,0.6,0.4,1.3,0.3,1.9v0.4l0.3,16.9
	c0,1,0,2,1.5,2c0.4,0,0.8-0.1,1.1-0.4c0.3-0.3,0.4-0.6,0.4-1c0-0.1,0-0.3,0-0.3l0,0c0.2,0.2,0.3,0.4,0.5,0.6c1.2,1,2.7,1.5,4.2,1.4
	c2.1,0,4-0.8,5.5-2.3c1.9-2.1,2.9-4.9,2.8-7.8C32.2,93.9,29.1,90.4,24.1,90.5L24.1,90.5z M20.3,104.3c-0.6-1.5-0.8-3.1-0.8-4.8
	c-0.1-1.4,0.2-2.8,0.9-4.1c0.8-1.2,2.1-1.9,3.5-2c1.1-0.1,2.2,0.3,3.1,1.1c1.2,1.5,1.9,3.3,1.8,5.2c0.2,2-0.4,3.9-1.7,5.5
	c-0.8,0.8-1.9,1.3-3.1,1.3C22.5,106.7,21,105.8,20.3,104.3z M20,92.3L20,92.3L20,92.3L20,92.3z M19.3,107.3L19.3,107.3L19.3,107.3z
	 M19.3,93L19.3,93z M19.8,92.3L19.8,92.3L19.8,92.3z M19.8,92.3l-0.3,0.3l-0.2,0.2l0,0C19.5,92.7,19.6,92.5,19.8,92.3L19.8,92.3z
	 M19.3,107.3L19.3,107.3L19.3,107.3L19.3,107.3z"/>
<path class="st0" d="M56.1,102.2c-0.4,0-0.7,0-1,0.3c-0.4,0.5-0.6,1-0.5,1.6v0.6c0,0.7-0.1,1.8-0.6,2.1l-0.5,0.1l-0.5-0.3
	c-0.2-0.4-0.3-0.8-0.3-1.2c0-0.5,0.1-1,0.1-1.5v-0.4c0,0.1,0,0.1,0.7-6c0.2-2.3,0.1-4.1-1.5-5.5c-1.3-1.1-2.9-1.7-4.7-1.8
	c-1.6-0.2-3.3,0.1-4.7,0.9c-1.4,0.7-2.3,2-2.5,3.5c-0.1,0.4,0,0.9,0.3,1.3c0.3,0.5,0.9,0.9,1.5,0.9c1,0.2,2.1-0.5,2.3-1.5
	c0.2-0.4,0-0.9-0.3-1.2l0,0c0,0.1,0.7-0.4,0.7-0.4c0.8-0.4,1.6-0.5,2.4-0.5c1.3,0.1,3.4,0.6,3.2,3c-0.2,1.9-2.2,1.9-3.9,1.9h-1
	c-1.5-0.1-3,0.2-4.3,0.8c-1.7,0.7-2.8,2.4-2.9,4.2c-0.2,1.7,0.6,3.4,2,4.4c1.2,0.8,2.6,1.3,4.1,1.4c2.1,0.3,4.1-0.4,5.6-1.9l0,0l0,0
	c0,0.1,0,0.3,0.1,0.4c0.5,1.3,1.8,2.1,3.1,2.1c1.2,0.2,2.4-0.1,3.3-1c0.6-0.8,0.9-1.8,0.9-2.8l0.1-0.5l0.1-0.4
	c0.1-0.4,0.1-0.8,0.1-1.1c0-0.4-0.1-0.8-0.3-1.2C56.8,102.5,56.4,102.3,56.1,102.2L56.1,102.2z M49.7,107.1L49.7,107.1L49.7,107.1z
	 M49.5,101.9c0.1,2.3-1.6,4.2-3.9,4.4c-0.4,0-0.8,0-1.2-0.1c-1.4-0.1-2.9-0.8-2.9-2.5v-0.3c0.2-1.9,2-2.1,3.8-2.1h0.5
	c1.4,0.1,2.8-0.2,4-0.8v0.1C49.7,100.8,49.5,101.9,49.5,101.9L49.5,101.9z M49.7,100.4c-0.2,0.1-0.3,0.2-0.5,0.2
	C49.4,100.6,49.6,100.5,49.7,100.4L49.7,100.4L49.7,100.4z M49.1,107.7L49.1,107.7l0.6-0.6l0,0C49.5,107.4,49.3,107.6,49.1,107.7z"
	/>
<path class="st0" d="M120.7,92.9c-1.7-0.2-3.4,0.4-4.7,1.6l0.3-0.2c-0.1,0.1-0.3,0.2-0.4,0.4l0,0v-0.1l0.1-0.1h-0.1l0,0
	c0-0.1,0.1-0.2,0.1-0.3l0,0c0.1-0.7-0.4-1.3-1.1-1.4c0,0,0,0,0,0l-0.7,0.1l-1.3,0.1c-0.3-0.1-0.6-0.2-0.9-0.3l-0.9-0.3
	c-0.9,0-1.9,0.3-2,1.4c-0.1,0.8,0.5,1.5,1.3,1.6c0,0,0.1,0,0.1,0h2l0.4,0.2c0.1,0.3,0.2,0.7,0.2,1l-0.1,1.1v0.2l-0.7,7.5v0.3
	c0,0.6-0.1,1.7-0.5,2l-0.4,0.1c0,0,0,0-1.3-0.3h-0.2c-0.4,0-0.8,0.1-1.1,0.3c-0.3,0.3-0.5,0.6-0.5,1c-0.1,1,0.9,1.6,1.7,1.7h1.6h2
	l0.8,0.2l1.5,0.3l1,0.2c0.9,0,1.9-0.4,2-1.4c0-0.4-0.1-0.8-0.3-1.1c-0.3-0.3-0.6-0.5-1-0.5l-1.6,0.1l-0.4-0.2
	c-0.2-0.4-0.2-0.8-0.2-1.2l0.1-1l0.3-3.4c0.2-2.2,0.4-4.9,1.9-6.2c0.7-0.6,1.7-0.8,2.6-0.7c1.2,0.1,2.5,0.9,2.5,2.1v0.1l0,0
	l-0.1,0.4c0,0-0.1-0.1-0.1-0.1c-0.5-0.1-0.9,0.1-1.3,0.4c-0.4,0.3-0.6,0.7-0.7,1.2c0,0.5,0.1,1,0.4,1.3c0.4,0.5,1,0.7,1.6,0.8
	c2.3,0.2,3.3-1.7,3.5-3.5c0.1-1.3-0.3-2.5-1.1-3.5c-1.1-1.2-2.6-1.9-4.2-2L120.7,92.9z M122.6,98.4L122.6,98.4L122.6,98.4
	L122.6,98.4z"/>
<path class="st0" d="M83.1,106.4l-1.2,0.3c-0.3,0-0.9-0.2-2.6-2l-5.2-5.2c1.1-1.2,2.2-2.4,3.2-3.7c0.5-0.5,1-1.2,1.6-1.2h0.7h0.6
	c0.3,0,0.7-0.2,0.9-0.5c0.2-0.3,0.3-0.7,0.3-1.1c-0.1-0.8-0.8-1.4-1.7-1.4l-1,0.2l-2.4,0.5l-2,0.1h-1.5c-0.8,0-1.5,0.3-2.1,0.8
	c-0.2,0.2-0.2,0.5-0.2,0.7c0,0.1,0,0.1,0,0.2c0.2,0.9,1,1.5,1.9,1.4l1.4-0.5H74c-0.1,0.2-0.2,0.3-0.3,0.5l-0.1,0.1l-4.6,5.4l0,0
	c0,0,0-0.1,0-0.1c0-0.1,0-0.1,0-0.2l-0.1-0.4l-1.4-11.8c-0.1-0.5-0.2-1.6-1.6-1.5l-0.6,0.2l-1.3,0.4l-1-0.1l-0.9-0.1
	c-0.9,0.1-1.6,0.9-1.5,1.8c0.1,0.8,0.8,1.3,1.5,1.3c0,0,0.1,0,0.1,0l0.9-0.2l0.6-0.1l0.4,0.1c0.3,0.3,0.5,1.4,0.5,2v0.3l1.7,13.5
	v0.3l0.1,1.2c0,0.3,0,0.6-0.2,0.9l-0.2,0.1c-0.1,0-1.6,0-1.6,0c-0.4,0-0.7,0.2-1,0.5c-0.2,0.3-0.3,0.7-0.2,1.1
	c0.2,0.8,0.9,1.4,1.8,1.4l1.6-0.4l2-0.4l2.4-0.1l0.7,0.1c1.1-0.4,1.6-1,1.5-1.8c0-0.7-0.7-1.3-1.4-1.3c-0.1,0-0.1,0-0.2,0l-1.1,0.3
	c-0.2,0-0.5-0.1-0.8-2.3l-0.2-1.1c0,0.1,2.4-2.7,2.5-2.8v0.1c0.3,0.5,3.5,3.8,3.9,4.2l0.7,0.8l0.3,0.4l0,0c-0.1,0-0.2-0.1-0.3-0.1
	h-0.7c-0.4,0-0.7,0.2-1,0.5c-0.2,0.3-0.3,0.7-0.3,1.1c0.1,0.8,0.8,1.4,1.6,1.4l1.3-0.4l1.9-0.4l2.4-0.1h1c0.9-0.2,1.7-0.8,1.6-1.8
	C84.6,106.9,83.9,106.3,83.1,106.4C83.1,106.4,83.1,106.4,83.1,106.4L83.1,106.4z M74.1,95L74.1,95z M74.1,99.6L74.1,99.6L74.1,99.6
	L74.1,99.6L74.1,99.6z M69.3,100.9l-0.3,0.4l0,0C69.1,101.2,69.2,101.1,69.3,100.9L69.3,100.9z M71.9,102l0.2-0.2l0,0
	C72,101.9,71.9,101.9,71.9,102L71.9,102z M77.2,107.3L77.2,107.3L77.2,107.3L77.2,107.3z"/>
<path class="st0" d="M150.8,91.7l-1.1,0.1l-2.4,0.1l-1.9-0.3l-1.1-0.3c-0.9,0-1.6,0.6-1.7,1.4c0,0.4,0.1,0.7,0.3,1
	c0.3,0.3,0.6,0.5,1,0.5l0.6-0.1l0.5-0.1c0.4,0,0.4,0.1,0.4,0.2s-0.3,0.8-0.3,0.8l-0.1,0.3l-4.4,9.9l-0.2-0.7l-2.7-10.6v-0.3
	c0,0,0-0.1,0-0.1h0.1c0,0,0,0.1,0.7,0.3l0.3,0.1c0.4,0.1,0.8-0.1,1.2-0.3c0.3-0.3,0.5-0.6,0.5-1c0-0.9-0.7-1.6-1.6-1.7l-0.8,0.1
	h-0.6h-1.8l-2-0.3l-1.5-0.3c-0.9,0-1.6,0.6-1.8,1.4c0,0.4,0.1,0.7,0.3,1c0.3,0.3,0.6,0.5,1,0.5l0.6-0.1l1-0.1c0.4,0,0.8,1.4,1,1.9
	c0,0,0,0,3.3,10.6c0.4,1,0.6,2,0.6,3c-0.2,1.1-0.8,2-1.6,2.7c-0.8,0.7-1.9,1.1-3.1,1c-0.5,0-1.1-0.3-1.4-0.6l0,0h0.1
	c0.5-0.1,0.9-0.6,0.9-1.2v-0.2c0-1.1-0.9-2-2-2c0,0,0,0-0.1,0c-0.6,0-1.3,0.2-1.8,0.6c-0.6,0.5-0.9,1.2-0.9,1.9
	c-0.1,1,0.2,2,0.9,2.7c1.1,1.1,2.5,1.8,4,1.9c5.6,0.4,7.9-4.3,9.9-8.5l5.2-10.9c0.2-0.4,0.7-1.5,1.1-1.5l0.3,0.1l0.2,0.1l0.2,0.1
	c0.9,0,1.9-0.4,2-1.4c0-0.4-0.1-0.7-0.3-1c-0.3-0.3-0.6-0.5-1-0.5L150.8,91.7z M140.6,105.2c0.1-0.1,0.2-0.4,0.4-0.8l-0.4,0.9
	C140.6,105.3,140.6,105.3,140.6,105.2L140.6,105.2L140.6,105.2L140.6,105.2z"/>
<path class="st0" d="M51,134.6c-1.2,0.8-2.5,1.2-3.9,1.1c-3.1,0.1-5.7-2.2-5.8-5.3c0-0.2,0-0.3,0-0.5c-0.1-3.2,2.5-5.8,5.7-5.9
	c0.1,0,0.2,0,0.3,0c1.3,0,2.6,0.3,3.7,1v2.6c-1-0.7-2.2-1.1-3.5-1.2c-1.9,0-3.5,1.5-3.5,3.5c0,1.9,1.5,3.5,3.5,3.5
	c1.3-0.1,2.6-0.5,3.6-1.3L51,134.6L51,134.6z"/>
<path class="st0" d="M77.5,135.6h-2.7l-0.8-2.3h-4.5l-0.8,2.3h-2.7l4.1-11.5H73L77.5,135.6L77.5,135.6z M71.6,126.9l-1.5,4.4h3.1
	L71.6,126.9L71.6,126.9z"/>
<polygon class="st0" points="99.8,126.3 95.4,126.3 95.4,128.8 99.8,128.8 99.8,130.9 95.4,130.9 95.4,135.6 92.8,135.6 92.8,124.2 
	99.8,124.2 99.8,126.3 "/>
<polygon class="st0" points="123.3,135.6 115.9,135.6 115.9,124.2 123.2,124.2 123.2,126.3 118.4,126.3 118.4,128.7 123,128.7 
	123,130.8 118.4,130.8 118.4,133.5 123.3,133.5 123.3,135.6 "/>
<polygon class="st0" points="43.6,44.2 39.8,37.3 43.3,35.4 43.9,36.6 41.8,37.7 42.7,39.3 44.3,38.4 45,39.6 43.3,40.5 44.9,43.5 
	43.6,44.2 "/>
<polygon class="st0" points="49.4,41.2 46.3,33.9 50.2,32.3 50.7,33.6 48.3,34.6 49,36.3 50.8,35.5 51.3,36.7 49.5,37.5 50.3,39.4 
	52.8,38.4 53.3,39.6 49.4,41.2 "/>
<polygon class="st0" points="56.1,38.6 53.7,31 57.7,29.8 58.1,31.1 55.6,31.9 56.1,33.6 58,33 58.4,34.3 56.5,34.9 57.1,36.9 
	59.7,36.1 60.1,37.4 56.1,38.6 "/>
<path class="st0" d="M61.4,28.9l2.1-0.4c1.7-0.3,2.8,0.2,3.3,2.2l0.5,2.4c0.3,2-0.5,2.9-2.2,3.2l-2.1,0.4
	C62.9,36.7,61.4,28.9,61.4,28.9z M64.1,35.1l0.5-0.1c0.8-0.2,1.2-0.7,1-1.8l-0.4-2c-0.2-1.1-0.7-1.5-1.6-1.3L63.1,30L64.1,35.1
	L64.1,35.1z"/>
<polygon class="st0" points="79.5,26.7 79.5,28 77.8,28.1 78.1,34.7 76.6,34.8 76.2,28.2 74.5,28.3 74.4,26.9 79.5,26.7 "/>
<polygon class="st0" points="82.5,34.6 82.8,26.7 84.3,26.7 84.2,29.9 86.3,30 86.5,26.8 88,26.9 87.6,34.8 86.1,34.8 86.3,31.3 
	84.1,31.2 84,34.7 82.5,34.6 "/>
<polygon class="st0" points="90.7,35.1 91.8,27.3 95.9,27.9 95.8,29.2 93.1,28.8 92.9,30.6 94.9,30.9 94.7,32.2 92.7,31.9 92.4,34 
	95.1,34.4 94.9,35.7 90.7,35.1 "/>
<path class="st0" d="M104.7,29.8l2,0.6c1.7,0.5,2.4,1.5,1.9,3.4l-0.7,2.3c-0.6,1.9-1.8,2.3-3.4,1.8l-2-0.6L104.7,29.8L104.7,29.8z
	 M104.2,36.5l0.5,0.2c0.8,0.2,1.4,0,1.7-1.1l0.6-2c0.3-1.1,0.1-1.6-0.8-1.9l-0.5-0.2L104.2,36.5L104.2,36.5z"/>
<path class="st0" d="M109.3,39.6l4.9-6.5l1.8,0.8l-1.4,8.1l-1.4-0.6l0.3-1.7l-1.9-0.8l-1,1.4L109.3,39.6z M112.5,37.6l1.4,0.6
	l0.6-3.2l0,0L112.5,37.6L112.5,37.6z"/>
<polygon class="st0" points="120.7,39.8 123.4,37.6 124.8,38.4 120.6,41.4 119,44.2 117.7,43.5 119.3,40.7 119.7,35.5 121.1,36.3 
	120.7,39.8 "/>
<path class="st0" d="M159.4,6.4h-13.9c-15.6-3-46.7-5.9-63.2-5.9S34.9,3.4,19.5,6.4H5.2c-2.6,0-4.7,2.1-4.7,4.7v142.2
	c0,2.6,2.1,4.7,4.7,4.7h13.7c15.6,3,46.8,5.9,63.3,5.9s47.8-2.9,63.4-5.9h13.8c2.6,0,4.7-2.1,4.7-4.7V11
	C164.1,8.5,162,6.4,159.4,6.4L159.4,6.4z M160.7,151c0,2-1.6,3.6-3.6,3.6h-20.3c-6.4,0.6-14,1.1-21.7,1.6c-12.1,1.1-24.6,1.9-33,1.9
	s-21-0.8-33.2-2c-7.5-0.4-14.8-1-21.1-1.6H7.4c-2,0-3.6-1.6-3.6-3.6l0,0V13.3c0-2,1.6-3.6,3.6-3.6h0h20.7C34.5,9.1,42,8.6,49.6,8.1
	c12-1.2,24.3-1.9,32.7-1.9s20.8,0.8,32.9,1.9c7.7,0.4,15.2,1,21.6,1.6h20.4c2,0,3.6,1.6,3.6,3.6L160.7,151L160.7,151z"/>
<path class="st0" d="M147.2,161.2c-0.1-0.4-0.3-0.5-0.6-0.5c-0.2,0-0.4,0.1-0.4,0.3c0,0,0,0.1,0,0.1c0,0.6,1.7,0.6,1.7,1.9
	c0,0.6-0.5,1.1-1.1,1.1c-0.1,0-0.1,0-0.2,0c-0.6,0-1.2-0.5-1.3-1.1l0.7-0.2c0.1,0.5,0.4,0.6,0.6,0.6c0.2,0,0.4-0.2,0.5-0.4
	c0,0,0,0,0-0.1c0-0.7-1.7-0.8-1.7-1.8c-0.1-0.5,0.3-1,0.9-1.1c0.1,0,0.2,0,0.3,0c0.6,0,1.1,0.4,1.2,0.9L147.2,161.2L147.2,161.2z"/>
<polygon class="st0" points="148.6,164 148.6,160.1 149.7,160.1 150.4,162.7 150.4,162.7 151,160.1 152.1,160.1 152.1,164 
	151.5,164 151.5,161 151.4,161 150.6,164 150.1,164 149.3,161 149.3,161 149.3,164 148.6,164 "/>
</svg>
