<?xml version="1.0" encoding="utf-8"?>
<!-- Generator: Adobe Illustrator 21.1.0, SVG Export Plug-In . SVG Version: 6.00 Build 0)  -->
<svg version="1.1" id="Layer_1" xmlns="http://www.w3.org/2000/svg" xmlns:xlink="http://www.w3.org/1999/xlink" x="0px" y="0px"
	 viewBox="0 0 222.3 84.2" style="enable-background:new 0 0 222.3 84.2;" xml:space="preserve">
<style type="text/css">
	.st0{fill:#8E2335;}
	.st1{fill:#FCBF18;}
	.st2{fill:#050505;}
	.st3{fill:#0B0B0B;}
</style>
<title>Fast Casual</title>
<g>
	<path class="st0" d="M34.2,9c2.7,0.7,3.7,2.4,4.2,4.9c0.4,1.8,1.7,3.4,2.2,5.3c0.3,1.1,1,0.4,1.7,0.2c3-0.7,6.1-1.9,9.3-0.6
		c0.7,0.3,1.8,0.3,1.6,1.5C53,21.5,52,21,51.2,21.2c-6.2,1-11.9,2.7-16.6,7.6C31,32.5,29.3,37,27,41.5c-1.9,3.7-1,6.7,0,10.1
		c1,3.5,2.6,6.4,5.2,9.1c3.6,3.8,8.2,4.9,12.6,6.7c0.6,0.3,1.8,0.2,1.6,1.2c-0.2,1-1.2,0.7-1.9,0.7c-1.7,0-3.5,0.1-5.1-0.5
		c-0.6-0.2-1.1-0.2-1.4,0.4c-2.1,3.9-4.6,7.5-6.2,11.7c-0.7,1.8-3.7,2.8-5.3,1.7c-0.8-0.6-0.9-1.6-0.5-2.4c0.5-1,1.2-2.2,2.1-2.6
		c1.8-0.8,2.2-2.5,3.1-3.9c0.9-1.5,1.7-3.1,3.2-4.2c1-0.8,1.9-1.8-0.4-2.5c-1.4-0.4-2.4-1.7-3.6-2.8c-0.9-0.8-1.3-1-2.5-0.1
		c-1.9,1.5-3.6,3.2-5.3,4.9c-1.4,1.4-3,2.6-2.8,5c0.1,0.7-0.3,1.9-1.5,2c-0.6,0-1.4,0.1-1.6-0.7c-0.2-1-0.7-2.3,0.4-3.1
		c1.5-1.1,2.5-2.5,3.8-3.8c2.1-2.1,3.2-4.9,4.7-7.4c0.4-0.7,0-1.2-0.3-1.7c-1.2-1.6-2.3-3.2-2.6-5.3c-0.1-1.1-0.9-2-2.5-1.7
		c-4.3,0.9-8.5,1.8-12.9,2.3c-1.1,0.1-2,1-3.1,1.5c-1.9,0.9-2.6,0.3-2.8-1.7c-0.1-1.3,0.7-1.9,1.5-2.5c0.8-0.6,1.7-0.5,2.4,0.2
		c1.1,1,2.6,0.8,3.5,0.4c3.2-1.5,6.7-0.9,9.9-1.8c1.8-0.5,2.8-1.1,2.5-3.2c-0.4-2.6-0.2-5.3,0.5-7.8c0.3-1.2,0.1-1.8-1.1-2.2
		c-1.5-0.5-2.9-1.3-4.2-2.2C15.8,34.8,15,34.6,14,35c-0.7,0.3-1.7,0.7-2.1-0.5c-0.4-1.2-0.9-2.4,0.3-3.4c1-0.8,1.8-0.1,2.6,0.4
		c2.5,1.8,5.2,2.8,8.2,3.2c0.7,0.1,1.3,0,1.5-0.7c0.8-2.3,2.9-3.4,4.6-4.9c1.4-1.3,1.5-2.4,0.5-3.7c-1.6-2.1-3.4-4.1-5.5-5.7
		c-1.1-0.8-1.2-1.6-0.6-2.6c0.7-1.1,1.6-0.7,2.5-0.2c1.2,0.7,1.8,1.8,2.5,2.9c1,1.7,2.6,2.9,3.6,4.6c0.5,0.8,1,0.4,1.6,0.1
		c1.4-0.8,2.7-1.6,4.1-2.5c1.1-0.7,0.6-1.5,0.3-2.3C36.5,16.2,35.3,12.7,34.2,9z"/>
	<path class="st1" d="M78.7,40.9c0-2.3-0.6-4.3-1.6-6.3c-2.2-4.5-4.3-9.1-7.9-12.8c-2.6-2.7-5.6-4.5-9.1-5.9
		c-3.5-1.4-7-0.9-10.6-0.4c-0.6,0.1-1.4,0.5-1.7-0.3c-0.3-0.9,0.6-1,1.2-1.3c4.3-2.1,9-2.4,13.4-1.6c3.8,0.6,7.5,2.1,10.4,5.1
		c1.3,1.4,3,2.4,4.5,3.6c5.8,4.8,9.5,11,10.2,18.3c0.5,5.3-0.2,10.9-3.6,15.6c-0.6,0.8-1,1.7-1.5,2.5c-1.4,2-2.6,4.2-5.2,5.1
		c-1.2,0.4-2.2,1.6-3.1,2.6c-5.1,5.5-11.5,8.7-19,9.7c-1.6,0.2-3.2-0.2-4.7-0.6c-0.5-0.1-1.3-0.2-1.1-0.9c0.1-0.5,0.8-0.7,1.2-0.6
		c2.8,0.2,5.3-0.8,7.8-1.7c4.2-1.6,7.9-3.9,10.8-7.4c0.8-1,1.6-2.1,2.5-3.1c2.7-3.2,3.8-7.1,5.2-10.9C78.1,46.7,79.1,43.9,78.7,40.9
		z"/>
	<path class="st2" d="M132.2,42.9c0-4,0.4-7.9,2.2-11.5c1.9-4,4.8-6.8,9.5-7.1c5.1-0.3,8.6,1.8,10.4,6.6c2.9,7.6,2.9,15.3-0.1,22.9
		c-2.1,5.5-6.7,7.9-12.4,7.2c-3.4-0.4-5.6-2.4-7.1-5.4C133,52.2,132.2,48.1,132.2,42.9z M148.9,41.9c-0.1-2.9,0-6.2-1.7-9.2
		c-1.4-2.5-3.9-2.7-5.7-0.3c-0.5,0.7-0.9,1.4-1.1,2.2c-1.6,5.4-1.6,10.9-0.2,16.3c0.5,1.8,1.4,3.5,3.5,3.6c2.1,0,3.1-1.5,3.8-3.3
		C148.8,48.3,148.9,45.3,148.9,41.9z"/>
	<path class="st2" d="M168.8,51.7c2,1,3.7,1.9,5.5,2.4c2.3,0.7,4.2,0.2,5-1.2c1-1.7,0.6-3.7-1.3-5.4c-1.5-1.3-3.1-2.6-4.7-3.8
		c-5.1-3.9-4.8-11.5-2.5-15.3c2.2-3.8,5.8-4.4,9.7-4c5,0.5,5.3,0.7,5.3,5.6c0,0.8,0,1.6,0,2.6c-1.7-0.6-3.3-1.3-4.9-1.7
		c-1.6-0.5-3.3-0.5-4.2,1.2c-0.9,1.7-0.2,3.2,1.2,4.4c1.6,1.2,3.3,2.3,4.8,3.6c4.9,4.2,6,11.4,2.6,16.9c-2.3,3.7-5.9,4.2-9.8,4
		c-2.1-0.1-4.2-0.4-6-1.4c-2.3-1.3-0.4-3.8-0.9-5.6C168.7,53.3,168.8,52.6,168.8,51.7z"/>
	<path class="st2" d="M116.4,51.1c0,2.2,0,4.3,0,6.3c0,0.8-0.5,1.3-1,1.7c-5.9,4.7-13.7,2.9-16.3-4.2c-2.8-7.5-2.8-15.2,0.1-22.7
		c2.9-7.8,10.6-8.4,16-6.4c0.8,0.3,1.2,0.8,1.1,1.7c-0.1,1.5,0,3,0,4.6c0,1-0.2,1.2-1.2,0.8c-1.2-0.5-2.5-0.9-3.7-1.2
		c-2.6-0.6-4.8,0.5-5.6,3c-1.7,5.4-2,10.9-0.3,16.3c1.2,3.7,3.7,4.6,7.1,2.7C113.8,53,114.9,52,116.4,51.1z"/>
	<path class="st3" d="M206.8,24.5c2.1,0,4.2,0,6.2,0c0.4,0,0.9-0.1,0.8,0.6c0,0.4-0.5,0.5-0.8,0.4c-2.5-0.5-2.5,0.9-2.5,2.8
		c0,9.9-0.1,19.8-0.3,29.7c0,1.1-0.1,2.1,1.5,1.9c0.7-0.1,1.3,0,1.3,0.9c0,1-0.6,0.8-1.3,0.8c-3.1,0-6.2,0-9.4-0.1
		c-0.7,0-1.9,0.4-1.9-0.9c0-1.3,1.1-0.9,1.7-0.8c1.3,0.1,1-0.8,1-1.5c0.1-6.8,0.1-13.6,0.2-20.4c0-3.5,0-6.9,0.2-10.4
		c0.1-1.5-0.2-2.4-2-2.1c-0.5,0.1-1.3,0.3-1.3-0.5c0-1.1,1-0.4,1.4-0.4c1.7-0.1,3.3,0,5,0C206.8,24.4,206.8,24.5,206.8,24.5z"/>
	<path class="st2" d="M210.1,22.8c-2.3-1.7-4.5-3.4-6.8-5.1c-1-0.7-0.4-1.2-0.1-1.9c1.7-3.1,1.7-3.1,4.1-0.7
		c0.8,0.8,1.7,1.7,2.5,2.5C212,19.9,212,19.9,210.1,22.8z"/>
	<path class="st1" d="M76.1,67.9c1.4-0.1,1.9,1.2,2.9,1.7c0.1,0.1-0.1,0.8-0.3,1.1c-0.5,0.9-0.5-0.2-0.7-0.2c-0.5-0.2-0.7,0-0.8,0.3
		c-0.3,1.3-1.3,0.4-1.6,0.3c-0.9-0.4-0.8-1.5-0.9-2.3C74.7,68.4,75.5,68,76.1,67.9z"/>
	<path class="st0" d="M32.9,5.2C32.5,4.3,31,4.3,31.3,3c0.2-1.1,0.8-1.7,2.1-1.6c1.3,0.1,1.2,1.1,1.1,1.8C34.3,4,33.8,4.7,32.9,5.2z
		"/>
</g>
</svg>
