<?xml version="1.0" encoding="utf-8"?>
<!-- Generator: Adobe Illustrator 21.1.0, SVG Export Plug-In . SVG Version: 6.00 Build 0)  -->
<svg version="1.1" id="Layer_1" xmlns="http://www.w3.org/2000/svg" xmlns:xlink="http://www.w3.org/1999/xlink" x="0px" y="0px"
	 viewBox="0 0 181.1 51.5" style="enable-background:new 0 0 181.1 51.5;" xml:space="preserve">
<style type="text/css">
	.st0{fill:#FFFFFF;}
	.st1{fill:#E21837;}
	.st2{fill:#025EAA;}
</style>
<title>Club</title>
<path class="st0" d="M6.4,37.7h49.5c2.8,0,5,2.2,5,5v3.1c0,2.8-2.2,5-5,5H6.4c-2.8,0-5-2.2-5-5v-3.1C1.4,39.9,3.6,37.7,6.4,37.7z"/>
<ellipse transform="matrix(0.9373 -0.3486 0.3486 0.9373 -0.6676 62.9183)" class="st0" cx="174.5" cy="33.3" rx="2.6" ry="2"/>
<path class="st1" d="M69.6,17.9c0.5-3.6,2.6-6,5.6-7.8c3.5-2,7.5-3,11.6-2.8c3,0,6,0.8,8.7,2.1c0.4,0.2,0.4,0.3,0.2,0.7
	c-1.4,2-2.7,4-4.1,6.1c-0.2,0.3-0.3,0.3-0.6,0.1c-1.9-1.2-4.2-1.9-6.4-1.8c-0.5,0-1,0.1-1.5,0.3c-0.2,0.1-0.5,0.2-0.7,0.4
	c-0.4,0.3-0.6,0.8-0.3,1.3c0.1,0.2,0.4,0.4,0.6,0.4c0.9,0.3,1.7,0.5,2.6,0.6c1.8,0.3,3.6,0.8,5.3,1.5c2.4,1.2,3.7,3.1,3.5,5.5
	c-0.1,1.4-0.5,2.8-1.3,3.9c-1.4,2.2-3.5,3.9-5.9,4.8c-3.5,1.5-7.4,2.1-11.2,1.7c-3.2-0.2-6.3-0.9-9.2-2c-0.8-0.3-0.8-0.3-0.3-1.1
	c1.5-2.2,2.9-4.3,4.4-6.5c0.2-0.3,0.3-0.3,0.7-0.1c1.7,1.4,3.8,2.2,6,2.5c1,0.1,2.1,0.1,3.1-0.3c0.4-0.1,0.8-0.4,1.2-0.7
	c0.4-0.4,0.4-1,0.1-1.4c-0.1-0.1-0.3-0.2-0.5-0.3c-0.7-0.2-1.4-0.4-2.1-0.4c-1.6-0.2-3.2-0.5-4.7-1c-0.6-0.2-1.2-0.5-1.7-0.8
	c-1.5-0.8-2.5-2.2-2.8-3.8c-0.1,1.9-0.5,3.7-1.3,5.4c-1.7,3.4-4.4,6.1-7.8,7.8c-4.1,2-8.6,3-13.2,2.7c-3.2,0-6.3-0.8-9.2-2.4
	c-2.7-1.4-4.6-3.8-5.2-6.8c-0.5-2.6-0.2-5.4,1-7.8c1.7-3.5,4.5-6.3,8-8c4.4-2.3,9.4-3.2,14.3-2.7c2.9,0.2,5.7,1.1,8.2,2.6
	c2.8,1.6,4.6,4.4,5,7.6c0,0.1,0,0.2,0,0.2S69.6,17.9,69.6,17.9z M52,16.1c-0.5,0-1.1,0.1-1.6,0.2c-2.3,0.4-4.2,1.9-5.2,4
	c-1.2,2.9,0.1,5.4,3.1,6.1c1.2,0.3,2.5,0.3,3.7,0c2.3-0.4,4.2-2,5-4.3c0.9-2.1-0.1-4.6-2.2-5.4c-0.1,0-0.2-0.1-0.3-0.1
	C53.7,16.3,52.8,16.1,52,16.1L52,16.1z"/>
<path class="st0" d="M77.7,35.5c-0.7,0-1.4,0-2.2-0.1c-3.2-0.2-6.4-0.9-9.4-2.1c-0.5-0.2-0.8-0.3-1-0.7s0.1-0.6,0.4-1.1l1.1-1.7
	c1.1-1.6,2.2-3.2,3.3-4.8c0.1-0.2,0.4-0.4,0.6-0.5c0.3,0,0.5,0.1,0.8,0.2c1.7,1.3,3.7,2.2,5.8,2.4c1,0.1,1.9,0.1,2.8-0.2
	c0.4-0.1,0.7-0.3,0.9-0.6c0.1-0.1,0.2-0.4,0.2-0.6c-0.1-0.2-0.2-0.3-0.4-0.4c-0.5-0.2-1-0.3-1.5-0.3l-0.5-0.1L77.8,25
	c-1.3-0.2-2.7-0.5-3.9-0.9c-0.6-0.2-1.2-0.5-1.8-0.8c-0.9-0.5-1.7-1.3-2.3-2.2c-0.2,1.2-0.6,2.4-1.1,3.6c-1.7,3.5-4.5,6.3-8,8
	c-4.1,2.1-8.8,3.1-13.4,2.8c-3.3,0-6.5-0.9-9.4-2.4c-2.8-1.4-4.8-4-5.5-7.1c-0.6-2.8-0.2-5.6,1.1-8.1c1.7-3.6,4.6-6.5,8.2-8.2
	c4.5-2.3,9.6-3.3,14.6-2.8c3,0.2,5.9,1.1,8.4,2.7c2.1,1.2,3.7,3.1,4.6,5.3l0,0c0.1,0.3,0.2,0.6,0.3,0.8c1-2.6,2.9-4.8,5.3-6.1
	c3.6-2.1,7.7-3.1,11.8-2.9c3.1,0,6.2,0.8,8.9,2.1c0.3,0.1,0.5,0.3,0.6,0.6c0,0.3,0,0.6-0.2,0.8c-1.3,1.9-2.6,3.9-4,6.1
	c-0.2,0.4-0.7,0.6-1.1,0.4c-0.1,0-0.1-0.1-0.2-0.1c-1.8-1.2-4-1.8-6.2-1.7c-0.5,0-0.9,0.1-1.3,0.3c-0.2,0.1-0.4,0.2-0.5,0.3
	c-0.2,0.1-0.3,0.3-0.3,0.5c0,0.1,0.2,0.3,0.4,0.3c0.6,0.2,1.2,0.3,1.8,0.4l0.7,0.1h0.2c1.8,0.3,3.6,0.8,5.2,1.5c2.4,1,3.9,3.4,3.8,6
	c-0.1,1.5-0.6,2.9-1.4,4.2c-1.5,2.3-3.6,4-6.2,5C84.1,34.9,81,35.5,77.7,35.5z M66.3,32.4l0.3,0.1c2.9,1.1,6,1.8,9.1,2
	c3.7,0.3,7.5-0.3,10.9-1.7c2.3-0.9,4.3-2.5,5.7-4.6c0.7-1.1,1.1-2.4,1.2-3.7c0.1-2.2-1.2-4.2-3.2-5c-1.6-0.7-3.3-1.2-5-1.4h-0.2
	l-0.7-0.1c-0.7-0.1-1.3-0.3-2-0.5c-0.5-0.2-0.9-0.6-1-1.1c-0.1-0.5,0.1-1.1,0.6-1.4c0.2-0.2,0.5-0.4,0.8-0.5
	c0.5-0.2,1.1-0.3,1.7-0.3c2.4-0.1,4.7,0.6,6.7,1.9c1.4-2.2,2.7-4.2,4-6.1c-2.6-1.3-5.5-2-8.5-2c-4-0.2-7.9,0.8-11.3,2.8
	c-3.2,1.9-4.9,4.3-5.3,7.5l-0.1,0.6l0.1,0.4c0.3,1.5,1.2,2.8,2.6,3.4c0.5,0.3,1.1,0.5,1.6,0.7c1.2,0.4,2.5,0.7,3.8,0.8l0.9,0.1
	l0.5,0.1c0.6,0.1,1.2,0.2,1.7,0.4c0.5,0.2,0.8,0.5,1,1c0.1,0.5,0,1-0.4,1.4c-0.4,0.4-0.8,0.7-1.4,0.9c-1.1,0.3-2.2,0.4-3.3,0.3
	c-2.3-0.3-4.4-1.2-6.2-2.6c-1.1,1.6-2.2,3.2-3.2,4.8l-1.1,1.7L66.3,32.4z M53.7,7.7c-4,0-8,0.9-11.5,2.8c-3.4,1.6-6.2,4.4-7.8,7.8
	c-1.2,2.3-1.5,5-1,7.5c0.6,2.8,2.5,5.1,5,6.4c2.7,1.5,5.8,2.3,8.9,2.3c4.5,0.3,8.9-0.7,12.9-2.7c3.3-1.6,6-4.2,7.6-7.5
	c0.8-1.6,1.2-3.4,1.3-5.2v-0.9c0-0.1-0.1-0.1-0.1-0.2l0,0c0-0.1,0-0.2,0-0.3c-0.4-3-2.1-5.7-4.8-7.3c-2.4-1.5-5.2-2.4-8-2.5
	C55.3,7.8,54.5,7.7,53.7,7.7z M70,17.7L70,17.7z M50.1,27c-0.6,0-1.2-0.1-1.9-0.2c-2.5-0.4-4.3-2.7-3.9-5.2c0.1-0.5,0.2-1,0.5-1.5
	c1-2.3,3.1-3.9,5.5-4.3c0.4-0.1,0.9-0.1,1.3-0.2h0.4H52c0.9,0,1.8,0.1,2.6,0.4c2.4,0.8,3.8,3.4,3,5.8c0,0.1-0.1,0.2-0.1,0.3
	c-0.8,2.4-2.9,4.1-5.4,4.6C51.5,27,50.8,27,50.1,27L50.1,27z M52,16.6h-0.4c-0.4,0-0.8,0.1-1.2,0.1c-2.1,0.3-3.9,1.7-4.8,3.7
	c-0.5,1.1-0.6,2.3-0.1,3.4c0.6,1.1,1.6,1.8,2.8,2c1.1,0.3,2.3,0.3,3.4,0c2.2-0.4,3.9-1.9,4.7-4c0.8-1.9-0.1-4-2-4.8
	c-0.1,0-0.2-0.1-0.3-0.1C53.6,16.7,52.8,16.6,52,16.6L52,16.6z"/>
<path class="st1" d="M33.9,14.7c-0.8-0.7-1.6-1.2-2.5-1.8c-4.1-2.4-9.3-2-12.9,1.2c-0.9,0.8-1.6,1.8-2,2.9c-0.8,2-0.1,4.2,1.6,5.4
	c1.6,1.2,3.6,1.8,5.6,1.7c3-0.1,5.9-1,8.4-2.7l0.5-0.3c-0.3,1.5-0.7,2.9-1,4.3c-0.6,2.5-1.2,4.9-1.7,7.4c0,0.3-0.3,0.5-0.5,0.6
	c-1.7,0.4-3.5,0.7-5.2,0.9c-2.3,0.3-4.6,0.3-6.9,0.2c-3.9-0.1-7.7-1.4-10.9-3.7c-4.5-3.2-6.3-9-4.5-14.2c1.1-3.5,3.2-6.6,6-8.9
	c3.9-3.3,8.6-5.5,13.7-6.3c4.7-0.7,9.5-0.5,14.1,0.8c0.4,0.1,0.5,0.2,0.4,0.6c-0.6,3.3-1.1,6.6-1.6,9.9L33.9,14.7z"/>
<path class="st0" d="M19.1,35.1c-0.7,0-1.3,0-2-0.1c-4-0.1-7.9-1.5-11.2-3.8c-4.7-3.3-6.6-9.3-4.7-14.7c1.1-3.6,3.3-6.7,6.2-9.1
	c4-3.4,8.8-5.6,13.9-6.4c4.8-0.7,9.6-0.5,14.3,0.8c0.5,0.1,0.9,0.5,0.8,1c0,0.1,0,0.1,0,0.2c-0.4,2.5-0.8,5-1.3,7.5l-0.3,2.3
	l-0.2,1.3l-0.3,1.5l-0.7-0.5c-0.8-0.6-1.6-1.2-2.4-1.7c-3.9-2.3-8.9-1.8-12.3,1.2c-0.8,0.7-1.4,1.6-1.8,2.7
	c-0.7,1.8-0.1,3.7,1.4,4.9c1.5,1.1,3.4,1.7,5.3,1.6c2.9-0.1,5.7-1,8.1-2.6l0.3-0.2l1.2-0.7l-0.6,2.5l-0.7,3l-0.6,2.2
	c-0.4,1.7-0.8,3.4-1.2,5.1c-0.1,0.5-0.4,0.8-0.9,0.9c-1.7,0.4-3.5,0.7-5.3,0.9C22.6,34.9,20.8,35.1,19.1,35.1z M26.4,1.5
	c-1.7,0-3.3,0.1-5,0.4c-5,0.8-9.6,2.9-13.4,6.2c-2.7,2.3-4.8,5.3-5.8,8.7c-1.7,5,0.1,10.6,4.4,13.7c3.1,2.2,6.8,3.5,10.7,3.6
	c2.3,0.1,4.6,0,6.9-0.2c1.7-0.1,3.5-0.4,5.2-0.9c0.2,0,0.2-0.1,0.2-0.2c0.4-1.7,0.8-3.5,1.2-5.2l0.5-2.2l0.7-3l0.1-0.2
	c-2.4,1.5-5.2,2.4-8.1,2.4c-2.1,0.1-4.2-0.5-5.9-1.8c-1.9-1.4-2.6-3.8-1.7-6c0.4-1.2,1.1-2.2,2.1-3.1c3.7-3.3,9.1-3.8,13.4-1.3
	c0.6,0.4,1.3,0.8,1.8,1.3l0.2-1.2l0.4-2.3c0.4-2.5,0.8-5,1.3-7.5l0,0h-0.1C32.4,1.9,29.5,1.5,26.4,1.5L26.4,1.5z"/>
<path class="st1" d="M158.9,35c-3.3,0.1-6.6-0.6-9.6-2c-3.1-1.5-5.3-3.8-6-7.3c-0.5-2.9,0-5.9,1.5-8.5c1.8-3.2,4.5-5.8,7.9-7.3
	c5.7-2.9,12.2-3.5,18.3-1.8c2.3,0.6,4.3,1.7,6,3.4c2.7,2.6,3.8,6.4,2.8,10c-1,4.2-3.6,7.8-7.4,9.9c-3.3,2-7,3.2-10.8,3.4
	C160.7,35,159.8,35,158.9,35z M162.6,16.1c-0.3,0-0.7,0-1,0.1c-2.5,0.2-4.7,1.7-5.8,4c-1.3,2.9,0,5.5,3.1,6.2c1,0.2,2.1,0.2,3.1,0.1
	c2.3-0.3,4.4-1.7,5.4-3.8c1.1-2.1,0.4-4.6-1.7-5.8c-0.4-0.2-0.9-0.4-1.3-0.5C163.8,16.2,163.2,16.1,162.6,16.1z"/>
<path class="st0" d="M158.9,35.5L158.9,35.5c-3.4,0.1-6.8-0.6-9.8-2.1c-3.5-1.7-5.6-4.3-6.2-7.6c-0.6-3,0-6.2,1.5-8.8
	c1.8-3.3,4.7-5.9,8.1-7.5c5.8-2.9,12.4-3.5,18.6-1.8c2.3,0.6,4.5,1.8,6.2,3.5c2.8,2.7,3.9,6.7,2.9,10.4c-1,4.3-3.7,8-7.6,10.2
	c-3.4,2-7.2,3.3-11.1,3.5c-0.8,0.1-1.6,0.1-2.4,0.1L158.9,35.5z M164.1,7.7c-3.9,0-7.7,0.9-11.2,2.7c-3.2,1.5-5.9,4-7.6,7.1
	c-1.4,2.5-1.9,5.4-1.4,8.2c0.6,3,2.5,5.3,5.7,6.9c2.9,1.4,6.1,2.1,9.4,2h0.3c0.8,0,1.6,0,2.3-0.1c3.8-0.3,7.4-1.4,10.6-3.4
	c3.6-2,6.2-5.5,7.1-9.6c0.9-3.4-0.1-7.1-2.6-9.5c-1.6-1.6-3.6-2.7-5.8-3.2C168.7,8.1,166.4,7.7,164.1,7.7z M160.6,27
	c-0.6,0-1.2-0.1-1.8-0.2c-1.5-0.3-2.8-1.2-3.6-2.5c-0.6-1.4-0.6-3,0.1-4.3c1.1-2.5,3.5-4.1,6.3-4.3c0.3,0,0.5,0,0.7-0.1h0.3h0.2
	c0.6,0,1.2,0.1,1.7,0.2c1.5,0.3,2.7,1.2,3.4,2.6c0.6,1.4,0.6,3-0.1,4.4c-1.1,2.3-3.2,3.8-5.7,4.1C161.6,27,161.1,27.1,160.6,27z
	 M162.6,16.6h-0.3c-0.2,0-0.4,0-0.7,0.1c-2.4,0.2-4.4,1.6-5.4,3.8c-0.6,1.1-0.6,2.3-0.1,3.4c0.6,1.1,1.7,1.8,2.9,2
	c0.9,0.2,1.9,0.2,2.9,0.1c2.2-0.2,4.1-1.6,5-3.6c0.6-1.1,0.6-2.4,0.1-3.5c-0.6-1-1.6-1.8-2.8-2C163.7,16.7,163.2,16.6,162.6,16.6
	L162.6,16.6z"/>
<path class="st1" d="M143.5,18.6c-1-0.9-2.2-1.7-3.5-2.2c-3.4-1.3-7.2-0.2-9.5,2.6c-0.8,1-1.2,2.3-1,3.6c0.3,1.7,1.6,3,3.3,3.4
	c2.2,0.6,4.5,0.5,6.6-0.4c1.1-0.4,2.1-1,3.1-1.7c-0.2,0.9-0.4,1.7-0.6,2.5c-0.6,2.4-1.1,4.8-1.6,7.2c0,0.3-0.2,0.5-0.5,0.5
	c-3.5,0.8-7.1,1.1-10.7,0.8c-3.7-0.4-7-1.7-9.5-4.6c-2.4-2.7-3.1-6.5-2-9.9c1.1-3.8,3.5-7,6.8-9.1c4.1-2.8,8.9-4.2,13.9-4
	c2.2,0.1,4.3,0.4,6.4,1c0.3,0.1,0.4,0.2,0.3,0.5c-0.5,3.2-1,6.4-1.6,9.7C143.6,18.5,143.5,18.5,143.5,18.6z"/>
<path class="st0" d="M131.6,35.5c-0.8,0-1.7,0-2.5-0.1c-4.3-0.5-7.5-2.1-9.8-4.8c-2.5-2.8-3.3-6.8-2.1-10.4c1.1-3.9,3.6-7.2,7-9.4
	c4.1-2.9,9.1-4.3,14.2-4.1c2.2,0.1,4.4,0.4,6.5,1c0.5,0.1,0.8,0.5,0.7,0.9c0,0,0,0,0,0.1c-0.4,2.3-0.8,4.7-1.1,7l-0.4,2.7
	c0,0.1,0,0.1-0.1,0.2v0.1l-0.2,0.7l-0.6-0.5c-1-0.9-2.1-1.6-3.4-2.1c-3.2-1.2-6.8-0.2-8.9,2.4c-0.8,0.9-1.1,2.1-0.9,3.2
	c0.3,1.5,1.5,2.7,3,3c2.1,0.6,4.3,0.4,6.3-0.4c1.1-0.4,2.1-1,3-1.6l1-0.7L143,24l-0.2,0.8c-0.1,0.6-0.2,1.1-0.4,1.6l-0.5,2.1
	c-0.4,1.7-0.8,3.4-1.2,5.1c-0.1,0.5-0.4,0.8-0.9,0.9c-1.7,0.4-3.4,0.7-5.1,0.8C133.7,35.5,132.7,35.5,131.6,35.5z M137.5,7.7
	c-4.5,0-9,1.4-12.7,4c-3.2,2-5.6,5.2-6.6,8.8c-1.1,3.3-0.4,6.9,1.9,9.5c2.1,2.5,5.1,3.9,9.2,4.4c1.8,0.2,3.7,0.2,5.5,0
	c1.7-0.1,3.4-0.4,5-0.8c0.1,0,0.1,0,0.2-0.2c0.4-1.7,0.8-3.4,1.2-5.1l0.5-2.1l0.3-1.3c-0.7,0.4-1.5,0.7-2.2,1
	c-2.2,1-4.6,1.1-6.9,0.4c-1.9-0.4-3.3-1.9-3.7-3.8c-0.2-1.4,0.2-2.9,1.1-4c1.1-1.5,2.7-2.5,4.5-3c1.8-0.5,3.8-0.4,5.6,0.2
	c1.1,0.4,2.1,1,3,1.7l0.3-2.1c0.4-2.3,0.7-4.6,1.1-6.9c-2-0.6-4.2-0.9-6.3-0.9L137.5,7.7z"/>
<path class="st1" d="M95.1,34.6l2.3-7.6l3.1-10.3c0.2-0.5,0.2-0.5-0.4-0.5c-1.9,0.1-3.8,0.1-5.7,0.2c-0.3,0-0.4,0-0.3-0.4
	c0.8-2.7,1.6-5.4,2.4-8c0.1-0.4,0.4-0.3,0.6-0.3h23.2c0.5-0.1,0.9,0,1.4,0.1c-0.1,0.4-0.2,0.9-0.4,1.3c-0.7,2.3-1.4,4.6-2.1,6.9
	c-0.1,0.3-0.2,0.5-0.6,0.4c-1.9-0.1-3.8-0.2-5.7-0.2c-0.3,0-0.4,0.1-0.5,0.4c-1.8,5.9-3.5,11.7-5.3,17.5c-0.1,0.4-0.2,0.5-0.6,0.5
	c-3.7,0-7.3,0-11,0L95.1,34.6z"/>
<path class="st0" d="M106.6,35.1L106.6,35.1c-2.8,0-5.7,0-8.5,0h-3.6l0.9-2.8l1.6-5.4l3.1-10.2h-1.1l-4.4,0.2
	c-0.4,0.1-0.8-0.1-0.9-0.5c0-0.2,0-0.3,0.1-0.5c0.9-2.8,1.7-5.4,2.4-8c0.1-0.4,0.5-0.7,1-0.7h23.6c0.4,0,0.8,0,1.2,0.1l0.5,0.1
	l-0.1,0.5l-0.1,0.4c-0.1,0.3-0.2,0.6-0.3,0.9l-0.7,2.3c-0.5,1.5-0.9,3.1-1.4,4.6c-0.1,0.5-0.6,0.9-1.1,0.8c-1-0.1-2.1-0.1-3.1-0.1
	l-2.5-0.1l0,0v0.1l-2.5,8.1c-0.9,3.1-1.9,6.3-2.9,9.4C107.6,34.8,107.2,35.2,106.6,35.1z M100.6,34.1h6.2c0,0,0-0.1,0-0.1
	c0.9-3.1,1.9-6.3,2.9-9.4l2.5-8.1c0.1-0.5,0.5-0.8,1-0.8l2.5,0.1c1,0,2.1,0.1,3.1,0.1h0.1v-0.1c0.5-1.5,0.9-3.1,1.4-4.6l0.7-2.3
	c0.1-0.3,0.1-0.5,0.2-0.8h-24c-0.8,2.5-1.5,5-2.3,7.7l4.2-0.2h1.3c0.4,0,0.6,0,0.9,0.2s0.1,0.6,0,0.9l-3.1,10.3l-1.6,5.4l-0.5,1.6
	H100.6L100.6,34.1z"/>
<path class="st2" d="M56.1,41.5h-0.6c-17.6,0-35.2,0-52.7,0c-0.5,0-0.6-0.1-0.6-0.6c0-0.8,0-1.5,0-2.3c0-0.4,0.1-0.5,0.4-0.4h52.2
	c0.5,0,0.7,0.1,0.8,0.6C55.7,39.7,55.9,40.6,56.1,41.5z"/>
<path class="st2" d="M29.6,45.9H2.7c-0.4,0-0.6-0.1-0.6-0.6c0-0.7,0-1.4,0-2.2c0-0.3,0.1-0.4,0.4-0.4c0.1,0,0.2,0,0.3,0h53
	c0.4,0,0.7,0.1,0.7,0.6c0.1,0.7,0.3,1.5,0.5,2.2c0.1,0.3,0,0.4-0.3,0.4c-0.1,0-0.2,0-0.3,0L29.6,45.9z"/>
<path class="st2" d="M30.1,50.3c-9.1,0-18.2,0-27.3,0c-0.5,0-0.6-0.1-0.6-0.6c0-0.7,0-1.3,0-2c0-0.4,0.1-0.6,0.5-0.5h0.1
	c18,0,36,0,54,0c0.5,0,0.7,0.1,0.7,0.6c0.1,0.7,0.3,1.4,0.5,2.2c0.1,0.2,0,0.4-0.3,0.4c-0.1,0-0.2,0-0.3,0L30.1,50.3z"/>
<path class="st1" d="M174.4,35c-0.8,0.1-1.5-0.3-1.8-1c-0.2-0.7,0.1-1.4,0.6-1.8c0.7-0.6,1.6-0.7,2.4-0.4c0.7,0.2,1.2,0.9,1,1.7
	c0,0.2-0.1,0.4-0.3,0.5C175.9,34.6,175.2,35,174.4,35z M175.3,34.2c0.5-0.2,0.8-0.6,0.8-1.2c0-0.5-0.3-0.8-0.8-0.9
	c-0.5-0.1-1-0.1-1.5,0.2c-0.5,0.2-0.8,0.7-0.8,1.3c0,0.4,0.2,0.7,0.6,0.8C174.2,34.7,174.8,34.6,175.3,34.2L175.3,34.2z"/>
<path class="st2" d="M116.2,46.4c-1.1,0-2.3,0-3.4,0c-0.6,0-0.6,0-0.5-0.6c0.5-2.4,0.9-4.8,1.4-7.3c0.1-0.3,0-0.4-0.3-0.4
	c-1.5,0-3,0-4.5,0c-0.3,0-0.4,0.1-0.5,0.4c-0.3,1.6-0.6,3.1-0.9,4.8c0-0.1,0-0.1-0.1-0.2c-0.1-2.2-1.5-4-3.6-4.6
	c-2.1-0.7-4.4-0.8-6.5-0.1c-2.4,0.6-4.5,2.2-5.6,4.4c0,0.1-0.1,0.2-0.2,0.1s0-0.1,0-0.1c0.4-1.4,0.6-2.9,0.9-4.3
	c0.1-0.3,0-0.4-0.3-0.4c-1.4,0-2.8,0-4.2,0c-0.4,0-0.5,0.1-0.5,0.5c-0.2,1.1-0.4,2.2-0.6,3.2c-0.1,0.3-0.2,0.4-0.5,0.4
	c-0.8,0-1.5,0-2.3,0c-0.5,0-0.5-0.2-0.4-0.6c0.2-1.1,0.4-2.1,0.6-3.2c0.1-0.3,0-0.4-0.3-0.4h-9.5c-0.2,0-0.4,0.1-0.5,0.3
	c-1.1,2.2-2.1,4.5-3,6.8c0,0.1-0.1,0.1-0.2,0.1c0-0.1,0-0.1,0-0.2c-0.2-2.2-0.4-4.4-0.6-6.6c0-0.3-0.1-0.4-0.4-0.4
	c-1.1,0-2.2,0-3.3,0c-0.2,0-0.4,0.1-0.5,0.4c-0.5,1.1-1,2.1-1.6,3.2c-0.7,1.2-1.3,2.4-1.7,3.7c-0.1-0.1-0.2-0.3-0.1-0.5
	c-0.1-2.1-0.3-4.3-0.4-6.4c0-0.3-0.1-0.4-0.4-0.4c-1.6,0-3.1,0-4.7,0c-0.4,0-0.4,0.1-0.3,0.4c0.9,3.8,1.7,7.5,2.6,11.3
	c0.1,0.3,0.2,0.4,0.4,0.4c1.3,0,2.5,0,3.8,0c0.2,0,0.4-0.1,0.5-0.3c0.3-0.7,0.7-1.4,1-2c0.7-1.3,1.3-2.6,1.8-4
	c0-0.1,0.1-0.1,0.2-0.1s0,0.2,0,0.3c0.1,1.9,0.3,3.8,0.3,5.6c0,0.5,0.2,0.6,0.6,0.6c1.2,0,2.4,0,3.6,0c0.3,0,0.6-0.1,0.8-0.4
	c2.1-3.4,4.1-6.8,6.2-10.1c0.1-0.2,0.2-0.3,0.3-0.4c0,0.2,0,0.3-0.1,0.4c-0.7,3.4-1.3,6.8-1.9,10.1c-0.1,0.3,0,0.4,0.3,0.4
	c1.4,0,2.9,0,4.3,0c0.3,0,0.4-0.1,0.4-0.4c0.2-1.1,0.4-2.3,0.6-3.4c0.1-0.3,0.2-0.4,0.5-0.4c0.8,0,1.5,0,2.3,0
	c0.4,0,0.5,0.1,0.4,0.5c-0.2,1.1-0.4,2.2-0.7,3.3c-0.1,0.3,0,0.4,0.3,0.4c1.4,0,2.9,0,4.3,0c0.3,0,0.4-0.1,0.5-0.4
	c0.3-1.4,0.5-2.8,0.8-4.2c0.1,0.1,0.2,0.1,0.2,0.2c0.3,2.3,1.7,3.5,3.8,4.1c1.7,0.6,3.6,0.6,5.4,0.3c2.9-0.6,5.3-1.9,6.6-4.7
	c0.1-0.1,0.1-0.1,0.2-0.2l-0.9,4.9h9.5c0.3,0,0.3-0.2,0.3-0.3c0.2-1,0.4-2.1,0.6-3.1C116.7,46.5,116.6,46.4,116.2,46.4z M102,44.4
	c-0.4,1.4-1.7,2.3-3.2,2.2c-1.5,0-2.4-0.9-2.3-2.1c0.1-0.7,0.4-1.3,0.9-1.7c0.9-0.8,2.1-1.1,3.2-0.7c1,0.2,1.6,1.2,1.4,2.2
	C102,44.3,102,44.4,102,44.4L102,44.4z"/>
<path class="st0" d="M98.1,51c-1.1,0-2.2-0.2-3.3-0.5c-1.6-0.4-2.9-1.5-3.7-2.9c-0.2,0.8-0.3,1.6-0.4,2.4c0,0.5-0.4,0.8-0.9,0.8
	c0,0,0,0,0,0l0,0c-1.4,0-2.8,0-4.3,0c-0.4,0.1-0.8-0.2-0.9-0.6c0-0.1,0-0.3,0-0.4c0.1-0.5,0.2-1,0.3-1.6s0.2-1.1,0.3-1.7
	c-0.7,0-1.4,0-2.3,0l0,0c-0.1,0.6-0.2,1.2-0.3,1.9s-0.2,1.1-0.3,1.6c0,0.5-0.4,0.8-0.9,0.8c0,0,0,0,0,0l0,0c-1.5,0-2.9,0-4.3,0
	c-0.4,0.1-0.8-0.2-0.9-0.6c0-0.1,0-0.3,0-0.4c0.5-2.7,1-5.5,1.6-8.1c-1.7,2.8-3.5,5.6-5.2,8.5c-0.2,0.4-0.7,0.7-1.2,0.7
	c-1.3,0-2.4,0-3.5,0c-0.5,0.1-1-0.3-1.1-0.8c0-0.1,0-0.2,0-0.2c-0.1-1.3-0.2-2.7-0.2-4c-0.2,0.5-0.5,0.9-0.7,1.4s-0.3,0.6-0.5,1
	L65,49.1c-0.2,0.4-0.4,0.7-0.5,1.1c-0.2,0.4-0.6,0.7-1,0.6l0,0c-1.3,0-2.5,0-3.8,0l0,0c-0.5,0-0.9-0.3-0.9-0.8
	c-0.8-3.6-1.7-7.3-2.6-11.3c-0.1-0.4,0.1-0.8,0.4-1c0.1,0,0.2-0.1,0.4,0c1.7,0,3.3,0,4.7,0l0,0c0.4-0.1,0.8,0.3,0.9,0.7
	c0,0,0,0.1,0,0.1c0.1,1.6,0.2,3.3,0.3,4.8c0.3-0.6,0.6-1.2,0.8-1.7l0.1-0.2c0.5-0.9,1-2,1.6-3.2c0.2-0.4,0.6-0.7,1-0.6
	c1.1,0,2.3,0,3.3,0l0,0c0.4,0,0.8,0.3,0.9,0.7c0,0,0,0.1,0,0.1c0.1,1.6,0.3,3.2,0.4,4.8c0.4-1,0.9-1.9,1.3-2.8
	c0.4-0.8,0.8-1.5,1.1-2.3c0.1-0.4,0.5-0.6,0.9-0.6h9.5c0.4-0.1,0.8,0.2,0.8,0.5c0,0.2,0,0.3-0.1,0.5c-0.1,0.6-0.2,1.1-0.3,1.7
	s-0.2,1-0.3,1.4c0.8,0,1.5,0,2.2,0l0,0c0.1-0.6,0.2-1.3,0.3-1.9c0.1-0.4,0.2-0.9,0.3-1.4c0-0.5,0.5-0.9,1-0.9c0,0,0,0,0,0
	c1.2,0,2.6,0,4.2,0c0.3,0,0.5,0.1,0.7,0.3c0.2,0.2,0.2,0.5,0.1,0.8c-0.1,0.6-0.2,1.2-0.3,1.8L92.4,41c1.3-1.4,2.9-2.4,4.7-2.9
	c2.2-0.7,4.6-0.7,6.8,0.1c1.5,0.5,2.7,1.5,3.4,2.9c0.2-0.9,0.3-1.7,0.5-2.5c0-0.5,0.4-0.8,0.9-0.8c0,0,0,0,0.1,0l0,0
	c1.7,0,3.1,0,4.5,0c0.3,0,0.5,0.1,0.7,0.3c0.2,0.2,0.2,0.5,0.1,0.8c-0.4,1.8-0.7,3.6-1,5.3l-0.4,1.9h3.4c0.4-0.1,0.8,0.2,0.9,0.6
	c0,0.1,0,0.3,0,0.4c-0.2,0.8-0.3,1.6-0.5,2.4l-0.1,0.8l0,0c0,0.4-0.4,0.7-0.8,0.7c0,0,0,0,0,0h-10.2l0.6-3.1
	c-1.5,1.7-3.5,2.7-5.7,3.1C99.6,51,98.9,51,98.1,51z M90.7,44.9l0.6,0.4c0.2,0.1,0.4,0.3,0.4,0.6c0.2,1.9,1.3,3,3.4,3.7
	c1.7,0.5,3.4,0.6,5.1,0.3c3.1-0.6,5.1-2,6.2-4.4c0-0.1,0.1-0.1,0.1-0.2l0.1-0.1l0.6-0.7l-0.3-0.9v-0.1c0-0.1,0-0.2-0.1-0.2
	c0-2-1.4-3.7-3.3-4.2c-2-0.7-4.2-0.7-6.2-0.1c-2.3,0.5-4.2,2-5.3,4.1l0,0c-0.1,0.3-0.4,0.5-0.7,0.4h-0.2l-0.1-0.2
	C91.1,43.1,91,43,91,42.8c0.2-0.8,0.3-1.6,0.5-2.4c0.1-0.5,0.2-1.1,0.3-1.7c-1.6,0-2.9,0-4.1,0l0,0v0c-0.1,0.5-0.2,0.9-0.3,1.4
	s-0.2,1.2-0.3,1.9c0,0.5-0.5,0.9-1,0.8c0,0,0,0,0,0c-0.7,0-1.5,0-2.2,0c-0.3,0-0.6-0.1-0.8-0.3c-0.2-0.3-0.2-0.6-0.1-0.9
	c0.1-0.5,0.2-1,0.3-1.4s0.2-1,0.3-1.5h-4.1l-0.1,0.7v0.1c0,0.1,0,0.2,0,0.3L79,41.7c-0.5,2.6-1,5.4-1.5,8.1c1.3,0,2.7,0,4.1,0
	c0.1-0.5,0.2-1.1,0.3-1.6s0.2-1.2,0.3-1.8c0-0.5,0.5-0.9,1-0.8c0,0,0,0,0,0c0.9,0,1.6,0,2.3,0c0.4-0.1,0.9,0.2,1,0.6
	c0,0.2,0,0.3,0,0.5c-0.1,0.6-0.2,1.2-0.3,1.8s-0.2,0.9-0.3,1.4c1.4,0,2.8,0,4.1,0l0,0c0.2-1,0.4-2.1,0.6-3.1l0.2-1.1L90.7,44.9z
	 M67.8,49.8L67.8,49.8c1.2,0,2.4,0,3.7,0c0.2,0,0.3,0,0.3-0.2c1.7-2.9,3.5-5.7,5.2-8.5l1-1.6v-0.1c0.1-0.2,0.3-0.4,0.5-0.5l0.4-0.2
	h-4.8c-0.3,0.8-0.7,1.6-1.1,2.3c-0.7,1.4-1.4,2.9-1.9,4.4c-0.1,0.3-0.3,0.5-0.6,0.5h-0.4l-0.1-0.4v-0.1c0-0.1,0-0.1,0-0.2L70,43.8
	c-0.2-1.7-0.3-3.4-0.4-5.2c-1.1,0-2.2,0-3.3,0l0,0v0.1c-0.6,1.1-1.1,2.2-1.6,3.2l-0.1,0.2c-0.6,1.1-1.1,2.3-1.5,3.5l-0.2,0.8
	l-0.6-0.6C62.1,45.5,62,45.3,62,45l0,0L62,43.9c-0.1-1.7-0.2-3.5-0.3-5.3c-1.3,0-2.8,0-4.4,0c0.9,4,1.8,7.5,2.6,11.1
	c1.2,0,2.5,0,3.8,0l0,0v-0.1c0.2-0.4,0.4-0.8,0.6-1.1l0.5-0.9c0.2-0.3,0.3-0.7,0.5-1c0.5-0.9,0.9-2,1.2-3c0-0.2,0.1-0.3,0.3-0.4
	c0.2-0.1,0.3-0.1,0.5-0.1l0.3,0.1v0.3v0.1c0,0.1,0,0.2,0,0.3c0,0.5,0,0.9,0.1,1.4c0.1,1.4,0.2,2.8,0.3,4.3
	C67.8,49.7,67.8,49.7,67.8,49.8L67.8,49.8z M110.2,49.8h5.3l0.1-0.7c0.1-0.7,0.3-1.5,0.4-2.2h-3.3c-0.4,0-0.7,0-0.9-0.3
	s-0.1-0.5-0.1-0.9l0.4-2c0.3-1.7,0.6-3.4,1-5.1c-1.3,0-2.7,0-4.3,0c-0.2,1.2-0.4,2.3-0.7,3.5l-0.3,1.3l-0.4,2l-0.8,4.3L110.2,49.8
	L110.2,49.8z M82.9,46.6L82.9,46.6z M85.5,46.6L85.5,46.6z M86.1,41.9L86.1,41.9z M98.8,47.2L98.8,47.2c-0.8,0-1.7-0.3-2.3-0.9
	c-0.4-0.5-0.6-1.1-0.5-1.8c0.1-0.8,0.5-1.5,1.1-2c1-0.9,2.4-1.2,3.7-0.8c1.3,0.3,2,1.6,1.7,2.8c0,0,0,0.1,0,0.1
	C102,46.2,100.5,47.3,98.8,47.2L98.8,47.2z M99.6,42.5c-0.7,0-1.4,0.3-1.9,0.7c-0.4,0.4-0.7,0.9-0.7,1.4c-0.1,0.4,0,0.7,0.3,1
	c0.4,0.4,1,0.6,1.5,0.6l0,0c1.2,0.1,2.3-0.7,2.7-1.8l0,0c0.2-0.7-0.2-1.5-0.9-1.7c0,0-0.1,0-0.1,0C100.2,42.5,99.9,42.5,99.6,42.5
	L99.6,42.5z"/>
<path class="st2" d="M162.7,46.4c-1.1,0-2.3,0-3.4,0c-0.4,0-0.5-0.1-0.4-0.5c0.5-2.4,0.9-4.9,1.4-7.3c0.1-0.3,0-0.4-0.3-0.4
	c-1.5,0-3,0-4.5,0c-0.4,0-0.4,0.1-0.5,0.4c-0.6,3.5-1.3,7-2,10.5c-0.1-0.1-0.2-0.3-0.2-0.4c-0.8-3.3-1.6-6.6-2.4-9.9
	c-0.1-0.5-0.3-0.6-0.8-0.6c-1.6,0-3.2,0-4.8,0c-0.3,0-0.6,0.1-0.7,0.4c-1.5,2.5-3,4.9-4.5,7.4c-0.1,0.1-0.1,0.3-0.4,0.4
	c0-0.2,0-0.4,0-0.5c0.1-1-0.4-2-1.3-2.5c-0.4-0.2-0.8-0.4-1.2-0.5l-2.3-0.5c-0.2-0.1-0.5-0.1-0.5-0.4c0-0.3,0.2-0.5,0.4-0.5
	c0.4-0.2,0.8-0.2,1.2-0.1c0.8,0.1,1.5,0.3,2.2,0.7c0.3,0.1,0.4,0.1,0.5-0.1c0.5-0.8,1-1.6,1.6-2.4c0.2-0.3,0.2-0.5-0.2-0.6
	c-2.9-1.3-6.2-1.1-8.9,0.6c-1.1,0.6-1.9,1.7-2.2,3c-0.2,1,0.2,2,1,2.5c0.6,0.4,1.3,0.6,2,0.8l1.8,0.3c0.2,0,0.5,0.1,0.5,0.4
	c0,0.3-0.1,0.5-0.4,0.6c-0.3,0.2-0.6,0.3-1,0.3c-1.1,0-2.1-0.3-3-0.9c-0.4-0.3-0.6-0.2-0.8,0.2c-0.5,0.8-1.1,1.6-1.6,2.4l-0.1-0.1
	c0.1-0.4,0.1-0.9,0.2-1.4s0-0.4-0.4-0.4c-1.2,0-2.5,0-3.7,0c-0.1,0-0.4,0.1-0.4-0.1c0-0.3,0-0.7,0.1-1c0.1-0.2,0.3-0.1,0.5-0.1
	c1.1,0,2.1,0,3.1,0c0.3,0,0.5,0,0.5-0.4c0.1-0.8,0.3-1.6,0.4-2.3c0.1-0.4,0-0.4-0.4-0.4c-1.1,0-2.1,0-3.1,0c-0.1,0-0.3,0.1-0.4-0.1
	c-0.1-0.3,0.1-0.6,0.1-0.9s0.2-0.2,0.4-0.2c1.2,0,2.5,0,3.7,0c0.3,0,0.5-0.1,0.5-0.4c0.1-0.8,0.3-1.6,0.5-2.5c0.1-0.4,0-0.5-0.4-0.4
	c-2.9,0-5.9,0-8.8,0c-0.4,0-0.5,0.1-0.6,0.5c-0.7,3.7-1.4,7.4-2.1,11.2c-0.1,0.4,0,0.5,0.4,0.5c3,0,5.9,0,8.9,0c0.4,0,0.7,0,0.7-0.5
	c0-0.3,0.1-0.4,0.4-0.2c0.4,0.2,0.8,0.3,1.2,0.4c3.4,0.9,6.6,0.9,9.5-1.4c0,0,0-0.1,0.1-0.1s0,0.1,0,0.1l-1,1.6c1.5,0,2.9-0.1,4.3,0
	c1,0.1,1.6-0.2,1.9-1.2c0.1-0.3,0.3-0.4,0.6-0.4c0.8,0,1.6,0,2.5,0c0.4,0,0.8-0.1,1.1,0.1s0.2,0.7,0.2,1s0.1,0.4,0.5,0.4
	c4.7,0,9.3,0,14,0c0.3,0,0.4-0.1,0.5-0.4c0.2-1,0.4-2,0.6-3C163.2,46.5,163.1,46.4,162.7,46.4z M147,45.9h-1.6c-0.1,0-0.3,0-0.2-0.2
	l1.6-3.4c0,0,0.1,0,0.2-0.1c0,1.2,0.1,2.3,0.3,3.5C147.3,45.9,147.2,45.9,147,45.9L147,45.9z"/>
<path class="st0" d="M132.3,51c-1.3,0-2.7-0.2-3.9-0.5c-0.3-0.1-0.7-0.2-1-0.3c0,0.2-0.1,0.3-0.2,0.4c-0.2,0.2-0.6,0.3-0.9,0.3
	c-3.3,0-6.2,0-8.9,0c-0.4,0.1-0.8-0.2-0.9-0.6c0-0.1,0-0.3,0-0.4c0.7-3.6,1.4-7.3,2.1-11.2c0.1-0.5,0.5-0.9,1.1-0.9
	c3.2,0,6.4,0,8.8,0c0.3,0,0.6,0.1,0.8,0.3c0.2,0.2,0.2,0.5,0.1,0.8c-0.1,0.6-0.2,1.1-0.3,1.7c0.4-0.6,1-1.1,1.6-1.5
	c2.8-1.8,6.3-2,9.4-0.6c0.4,0.1,0.7,0.5,0.6,1c0,0.1-0.1,0.3-0.2,0.4c-0.5,0.7-1,1.4-1.5,2.4c-0.2,0.4-0.7,0.6-1.1,0.4
	c-0.1,0-0.1-0.1-0.2-0.1c-0.6-0.4-1.3-0.6-2-0.6c-0.3-0.1-0.7,0-1,0.1h-0.1h0.1l1.2,0.3l1.1,0.2c0.5,0.1,0.9,0.3,1.4,0.6
	c0.7,0.4,1.3,1.1,1.5,1.9c1.3-2.1,2.6-4.3,3.9-6.5c0.2-0.4,0.6-0.7,1.1-0.6l0,0c1.8,0,3.3,0,4.8,0c0.6-0.1,1.2,0.3,1.2,0.9
	c0,0,0,0,0,0.1c0.6,2.4,1.1,4.8,1.7,7.2l0.3,1.1v-0.1c0.5-2.7,1.1-5.5,1.6-8.3c0-0.5,0.5-0.9,1-0.8c0,0,0,0,0,0l0,0
	c1.3,0,2.7,0,4.5,0c0.4-0.1,0.8,0.2,0.9,0.6c0,0.1,0,0.3,0,0.4c-0.2,1.1-0.4,2.3-0.7,3.4s-0.5,2.6-0.8,3.9h1.7c0.6,0,1.1,0,1.7,0
	l0,0c0.3,0,0.6,0.1,0.8,0.3c0.2,0.2,0.2,0.5,0.1,0.8c-0.2,1-0.4,2.1-0.6,3c0,0.5-0.5,0.9-1,0.8c0,0,0,0,0,0l0,0c-4.8,0-9.5,0-14,0
	l0,0c-0.5,0.1-0.9-0.3-1-0.8c0,0,0-0.1,0-0.1c0-0.1,0-0.3,0-0.4c0-0.1,0-0.2,0-0.3c-0.1,0-0.3,0-0.4,0h-0.4h-2.5
	c-0.2,1.1-1.3,1.8-2.4,1.5c-0.9-0.1-1.9-0.1-2.9,0h-2.1l0.5-0.8C135.4,50.7,133.8,51,132.3,51z M127.6,49.1c0.3,0.1,0.7,0.3,1,0.3
	c3.8,1,6.6,0.6,9-1.2c0.1-0.1,0.2-0.2,0.3-0.2c0.2-0.1,0.4,0,0.5,0.1c0.2,0.1,0.3,0.4,0.2,0.6l0,0v0.1l-0.6,1h0.4c1,0,2,0,3,0
	s1.2-0.2,1.3-0.8c0.1-0.5,0.5-0.8,1-0.7h2.8c0.3-0.1,0.7,0,1,0.1c0.3,0.3,0.5,0.7,0.4,1.1c0,0.1,0,0.2,0,0.3h5l-0.4-0.4
	c-0.2-0.2-0.3-0.4-0.3-0.6v-0.1l-0.6-2.7c-0.6-2.4-1.1-4.8-1.7-7.2c0-0.1,0-0.1-0.1-0.2c-0.1,0-0.1,0-0.2,0c-1.5,0-3,0-4.8,0
	c-0.2,0-0.2,0-0.3,0.1c-1.5,2.4-3,4.9-4.4,7.3l-0.1,0.1v0.1c-0.1,0.3-0.3,0.5-0.6,0.6l-0.6,0.1l0.1-0.7v-0.2c0-0.1,0-0.2,0-0.4
	c0.1-0.8-0.3-1.6-1-2c-0.3-0.2-0.7-0.4-1.1-0.4l-1.1-0.2l-1.2-0.3c-0.2-0.1-0.9-0.2-0.9-0.9c0-0.5,0.3-0.9,0.7-1
	c0.5-0.2,1-0.3,1.5-0.2c0.8,0.1,1.6,0.3,2.3,0.7c0.6-0.9,1-1.6,1.5-2.3c-2.7-1.2-5.9-1-8.4,0.6c-1,0.6-1.8,1.5-2,2.7
	c-0.2,0.8,0.1,1.6,0.8,2c0.6,0.4,1.2,0.6,1.8,0.7l0.6,0.1l1.1,0.2c0.4,0,0.8,0.4,0.9,0.8c0.1,0.5-0.2,0.9-0.6,1.1
	c-0.4,0.2-0.8,0.3-1.2,0.3c-1.2,0.1-2.4-0.3-3.3-1h-0.1l-0.1,0.1c-0.4,0.6-0.8,1.1-1.1,1.7L127.6,49.1L127.6,49.1z M155,49.8h7
	c0.1-0.9,0.3-1.9,0.5-2.9h-1.6c-0.6,0-1.1,0-1.7,0c-0.3,0-0.6-0.1-0.8-0.3c-0.2-0.2-0.2-0.5-0.1-0.8c0.3-1.3,0.5-2.6,0.8-3.9
	c0.2-1.1,0.4-2.1,0.6-3.2c-1.7,0-3,0-4.3,0l0,0c-0.5,2.8-1.1,5.6-1.6,8.3l-0.5,2.8L155,49.8z M119.6,38.7L119.6,38.7
	c-0.7,3.9-1.4,7.6-2.1,11.1c2.7,0,5.6,0,8.8,0h0.2c0-0.3,0.1-0.5,0.3-0.7l0,0l-0.1-0.1v-0.3l0.1-0.4c0-0.3,0.1-0.5,0.1-0.8
	c-1,0-2,0-3,0h-0.6c-0.2,0-0.5,0-0.6-0.2c-0.1-0.1-0.2-0.3-0.2-0.4c0-0.4,0.1-0.8,0.2-1.1c0.1-0.3,0.3-0.5,0.9-0.5h0.1
	c1,0,2.1,0,3.2,0l0,0c0.1-0.7,0.3-1.5,0.4-2.2c-0.8,0-1.6,0-2.3,0h-0.8c-0.3,0.1-0.6-0.1-0.8-0.4c-0.1-0.3-0.1-0.6,0-0.9
	c0-0.1,0-0.2,0.1-0.2c0-0.4,0.3-0.7,0.7-0.7c0,0,0.1,0,0.1,0h0.9c0.9,0,1.9,0,2.9,0l0,0l0.1-0.3c0.1-0.7,0.2-1.4,0.4-2
	C126,38.6,122.8,38.6,119.6,38.7L119.6,38.7z M127.1,47.5L127.1,47.5z M127,46.5c0.3,0,0.5,0.1,0.7,0.3c0.1,0.1,0.1,0.1,0.1,0.2
	l0.5-0.8c0.1-0.3,0.4-0.5,0.7-0.6c0.3,0,0.6,0.1,0.8,0.3c0.8,0.6,1.7,0.9,2.7,0.9c0.3,0,0.5-0.1,0.8-0.2l0.1-0.1h-0.1l-1.1-0.2
	l-0.6-0.1c-0.8-0.1-1.5-0.4-2.2-0.8c-0.7-0.5-1.2-1.3-1.3-2.1l0,0c-0.2,0.8-0.3,1.5-0.4,2.3c0,0.5-0.5,0.9-1,0.8c0,0,0,0,0,0
	c-1.1,0-2.2,0-3.1,0h-0.1c0,0.1,0,0.1,0,0.2h0.4C124.9,46.5,126,46.5,127,46.5L127,46.5z M127.3,42.1c0.3,0,0.5,0.1,0.7,0.3
	c0.1,0.1,0.1,0.2,0.1,0.3c0-0.1,0-0.3,0.1-0.4c0-0.1,0-0.2,0.1-0.4c-0.1,0-0.3,0.1-0.4,0.1c-0.9,0-1.9,0-2.8,0h-0.8v0.1l0,0h0.6
	C125.6,42.1,126.5,42.1,127.3,42.1L127.3,42.1z M147,46.4h-1.6c-0.2,0-0.5-0.1-0.6-0.3c-0.1-0.2-0.1-0.4,0-0.6l0.7-1.5l0.9-1.9
	c0.1-0.2,0.2-0.3,0.4-0.3h0.1l0.7-0.2v0.7c0,1.1,0.1,2.3,0.3,3.4c0,0.2,0,0.4-0.2,0.6C147.4,46.3,147.3,46.4,147,46.4L147,46.4z
	 M146.3,45.4h0.4c-0.1-0.5-0.1-1-0.1-1.5l-0.2,0.4l-0.5,1L146.3,45.4z"/>
<path class="st2" d="M175,38.2c-2.9,0-5.9,0-8.8,0c-0.4,0-0.6,0.1-0.6,0.5c-0.7,3.7-1.4,7.4-2.1,11.2c-0.1,0.4,0,0.4,0.4,0.4
	c1.5,0,3,0,4.5,0s3.1,0,4.6,0c0.3,0,0.4-0.1,0.5-0.4c0.1-0.8,0.3-1.7,0.5-2.5c0.1-0.4,0-0.4-0.4-0.4c-1.2,0-2.5,0-3.7,0
	c-0.1,0-0.4,0.1-0.4-0.1c0-0.3,0-0.7,0.1-1c0.1-0.2,0.3-0.1,0.5-0.1c1.1,0,2.1,0,3.1,0c0.4,0,0.5-0.1,0.5-0.4
	c0.1-0.7,0.3-1.5,0.4-2.2c0.1-0.4,0-0.5-0.4-0.5c-1,0-2.1,0-3.1,0c-0.1,0-0.3,0.1-0.4-0.1c0-0.3,0-0.7,0.1-1
	c0.1-0.2,0.3-0.1,0.4-0.1c1.2,0,2.4,0,3.6,0c0.4,0,0.5-0.1,0.6-0.5c0.1-0.8,0.3-1.6,0.4-2.4C175.6,38.2,175.4,38.2,175,38.2z"/>
<path class="st0" d="M163.8,50.7c-0.2,0-0.5-0.1-0.7-0.3c-0.2-0.2-0.2-0.5-0.1-0.8c0.8-4.1,1.6-8.1,2.1-11.2c0-0.6,0.5-1,1.1-0.9
	c0,0,0,0,0,0l0,0c3,0,6,0,8.8,0l0,0c0.3,0,0.6,0.1,0.8,0.3c0.2,0.2,0.2,0.5,0.1,0.8c-0.2,0.7-0.3,1.4-0.4,2.3c0,0.6-0.5,1-1.1,0.9
	c0,0,0,0,0,0c-1,0-2,0-3,0h-0.6v0.2h0.6c0.8,0,1.6,0,2.4,0c0.4-0.1,0.9,0.2,0.9,0.6c0,0.2,0,0.3,0,0.5c-0.2,0.7-0.3,1.5-0.4,2.2
	c0,0.5-0.5,0.9-1,0.9c0,0,0,0,0,0c-0.9,0-1.8,0-2.7,0H170c0,0.1,0,0.1,0,0.2h0.3c1.1,0,2.2,0,3.3,0c0.4-0.1,0.8,0.2,0.9,0.6
	c0,0.1,0,0.3,0,0.4c-0.2,0.8-0.3,1.6-0.5,2.5c0,0.5-0.4,0.8-0.9,0.8c0,0-0.1,0-0.1,0L163.8,50.7L163.8,50.7z M170.8,49.7h2.2
	c0.1-0.8,0.3-1.6,0.4-2.3c-1,0-2.1,0-3.1,0h-0.5c-0.2,0-0.5,0-0.6-0.2c-0.1-0.1-0.2-0.3-0.2-0.4c0-0.4,0-0.8,0.2-1.1
	c0.1-0.3,0.3-0.5,0.9-0.5h0.5c0.9,0,1.8,0,2.7,0l0,0l0,0c0.1-0.7,0.3-1.4,0.4-2.1c-0.8,0-1.6,0-2.3,0h-0.8c-0.6,0.1-0.7-0.3-0.8-0.4
	c-0.1-0.3,0-0.7,0.1-1l0.1-0.2c0.1-0.4,0.5-0.6,0.8-0.5c0,0,0,0,0,0h0.6c1,0,2,0,3,0h0.1v-0.1c0.1-0.9,0.3-1.6,0.4-2.3
	c-2.8,0-5.7,0-8.7,0h-0.1c0,0,0,0.1,0,0.1c-0.6,3-1.3,7-2.1,11L170.8,49.7L170.8,49.7z"/>
<path class="st1" d="M175.3,34.2c-0.3,0.1-0.6-0.1-0.7-0.4c0,0,0-0.1,0-0.1c0-0.1-0.1-0.3-0.3-0.3s-0.2,0.2-0.2,0.4s0,0.2-0.1,0.3
	s-0.2,0.1-0.4,0.1s-0.1-0.1-0.1-0.2s0.1-0.4,0.1-0.5c0.2-1.1,0.2-1.1,1.4-1c0.2,0,0.4,0,0.4,0.2s0.1,0.5-0.1,0.6
	c-0.4,0.2-0.3,0.5-0.1,0.7C175.2,34,175.2,34.1,175.3,34.2L175.3,34.2z M174.6,32.7c-0.1,0.1-0.4-0.1-0.4,0.2s0.2,0.2,0.3,0.2
	s0.5,0.1,0.5-0.2S174.8,32.7,174.6,32.7L174.6,32.7z"/>
</svg>
