<?xml version="1.0" encoding="utf-8"?>
<!-- Generator: Adobe Illustrator 21.1.0, SVG Export Plug-In . SVG Version: 6.00 Build 0)  -->
<svg version="1.1" id="Layer_1" xmlns="http://www.w3.org/2000/svg" xmlns:xlink="http://www.w3.org/1999/xlink" x="0px" y="0px"
	 viewBox="0 0 181 64.9" style="enable-background:new 0 0 181 64.9;" xml:space="preserve">
<style type="text/css">
	.st0{fill:#F60000;}
	.st1{fill:#FFFFFF;}
</style>
<title>Grocery</title>
<path class="st0" d="M163.3,51.2h-11c0,0-1.3-0.2-0.8,1.3s2.3,6,8.6,6.8c1.1,0.1,2.3-0.2,3.3-0.7c1.6-0.8,1.6,1,0.3,2.1
	c-2.5,2.1-5.6,3.3-8.9,3.5c-4.2,0-12.1-2.6-12.1-11.1c0-7.9,7-11.1,12.4-11.1c4.7,0,9.4,3.4,9.6,7.5
	C164.8,50.5,164.4,51.2,163.3,51.2z"/>
<path class="st0" d="M129.8,56.4c-0.2-0.3-1.1-1.1-1.1,0.3v4.4c0,0,0.1,1.6,1.5,1.8s1.3,0.2,1.3,0.6s-0.1,0.6-1.3,0.6h-12.6
	c0,0-0.7,0.1-0.7-0.4c0-0.5,0.4-0.5,1.1-0.8s1.4-0.8,1.4-2.6V43.9c0.1-0.9-0.3-1.9-1.1-2.5c-1.2-0.8-2.2-1.5-2.2-1.5s-1-0.7,0.3-1.1
	s9.1-3.3,10.3-3.8s1.7-0.4,1.7,1.3v14.8c0,0-0.2,2.1,1.3,0.8s5.1-4.1,4.6-5.7s-1.6-1.4-1.6-1.4s-0.5-0.2-0.5-0.6s0.3-0.6,1-0.6h10.3
	c0,0,0.8,0,0.8,0.5s-0.3,0.8-1.1,0.8s-4.1,0.6-7.3,4.2c0,0-0.8,0.5-0.1,1.4l5.6,8.6c0,0,1.8,3.2,3.9,3.7c0,0,1.1,0.1,1.1,0.7
	c0,0.6-0.6,0.6-1.2,0.6h-10.7c-0.3-0.1-0.6-0.4-0.7-0.6L129.8,56.4L129.8,56.4z"/>
<path class="st0" d="M111.6,62.7c0,0,0.8,0,0.8,0.5s-0.1,0.6-1,0.6H97.7c0,0-0.7,0-0.7-0.6s0.3-0.6,1-0.8s2.4-0.1,2.4-3.4v-7.7
	c0,0,0-2.1-1-2.9c-0.6-0.5-1.2-0.9-1.9-1.3c-0.5-0.3-1.4-0.9,0.2-1.4s8.9-3,10.2-3.5c0,0,0.9-0.6,1,0.7c0,0.6,0.1,1.1,0.2,1.7
	c0,0,0.2,0.9,1.1,0c1.1-1.4,2.7-2.1,4.4-2c1.9-0.2,3.5,1.2,3.7,3.1c0,0.1,0,0.1,0,0.2c0,1.6-1.4,2.8-2.9,2.8c0,0-0.1,0-0.1,0
	c-1.2,0-2.3-0.5-3-1.4c-0.4-0.3-2.6-1-2.6,2.1v10.1C109.6,59.5,109.3,62.2,111.6,62.7L111.6,62.7z M84.9,60.3
	c-1.8,2-4.4,3.2-7.1,3.2c-4.5,0-6.8-1.8-6.8-5.1s3-5.1,4.6-5.8s7.3-2.8,7.9-2.9s1.3-0.4,1.3-1.4v-2.1c0-1.4-1.2-2.5-2.6-2.5
	c-2.6,0-2.9,1.3-2.9,2.9s-0.2,4.5-3.1,4.5s-3.3-1.7-3.3-2.8s0.5-6.1,9.8-6.1S94,45.6,94,50.7v6.2c0,0-0.3,3.3,1.4,3.5s1,1.4,0.3,2
	S88.4,65.9,84.9,60.3L84.9,60.3z"/>
<path class="st0" d="M39.8,62.4c0,0,0.9,0,0.9,0.5s-0.1,0.6-1.1,0.6h-7.9c0,0-0.8,0.1-0.8-0.5s0.4-0.6,0.9-0.7c0.5-0.1,3-0.5,3.5-6
	c0,0,1.3-14.9,1.3-16.2s0.4-3.9-1.9-4.6c0,0-0.9-0.2-0.9-0.7s0.4-0.6,1-0.6h11.8c0.6,0,1.2,0.4,1.3,1l3.3,10.4c0,0,0.6,1.9,1.4-0.3
	l3.3-9.5c0,0,0.2-1.5,2.1-1.5h10.9c0,0,1.2-0.1,1.2,0.7c0,0.8-0.8,0.8-1.4,0.9s-2,0.5-1.9,3.4S68,58.5,68,58.5s-0.1,3.3,2.8,3.6
	c0,0,1.2-0.1,1.2,0.5s-0.4,0.7-1.2,0.7h-16c0,0-0.7,0-0.7-0.4s0.3-0.6,1-0.6s2.6-0.4,2.4-3.2l-1.2-14.4c0,0-0.3-2.2-1.1,0.1L48.5,63
	c0,0-0.4,1.1-1-0.3l-8-19.5c0,0-0.9-2-1.1,0.3l-1.1,13.8C37.3,57.3,36.9,62.1,39.8,62.4L39.8,62.4z M138.2,14.7
	c-0.6-0.9-1.5-1.5-2.5-1.7c-1.1-0.1-1.3-0.4-1.3-0.8s0.1-0.6,1.1-0.6h14.1c0,0,1.1-0.1,1.1,0.5s-0.7,0.6-1.2,0.9s-0.7,1.5,0,2.6
	l3.4,5.6l2.7-5.1c0,0,0.8-2.4-0.3-3.1s-1.7-0.1-1.7-0.9s1-0.6,1.6-0.6h6.2c0,0,1-0.2,1,0.5s-0.6,0.6-1.1,0.6s-1.9,0.2-3.4,3.1
	l-9.6,18c0,0-3.5,5.9-9.2,5.9s-6.6-3.1-5.7-5c0.8-1.7,2.9-2.5,4.7-1.7c2.8,1.1,4.6,3.6,6.2,2.2s4.1-4.1,1.5-8.2L138.2,14.7
	L138.2,14.7z M165.4,44.7h-1.3c0,0-0.8-0.1-0.1-0.7s9.1-7.9,10-8.7s1-0.4,1,0.3v6.7c0,0.3,0.2,0.7,0.5,0.7c0,0,0.1,0,0.1,0h3.9
	c0,0,1-0.2,1,0.6s-0.7,1.1-1.9,1.1H176c0,0-0.8,0-0.8,0.9v10c0,0-0.1,3.1,1.2,4.4c0.9,0.8,2.1,1.2,3.3,1.1c0.8,0,1,0.5,0.3,1.1
	c-1.9,1.4-4.2,2.1-6.6,2.1c-3.5,0-7-0.9-7-7.2V45.9c0.1-0.5-0.2-1.1-0.8-1.2C165.5,44.7,165.5,44.7,165.4,44.7L165.4,44.7z"/>
<path class="st0" d="M118.6,13.2h-1.3c0,0-0.8-0.2-0.1-0.7s9.1-8,10-8.7s1-0.4,1,0.3v6.7c-0.1,0.3,0.2,0.7,0.5,0.7c0,0,0.1,0,0.1,0
	h3.9c0,0,1-0.2,1,0.6s-0.7,1.1-1.9,1.1h-2.7c0,0-0.7,0-0.7,0.9v10c0,0-0.1,3.2,1.2,4.4c0.9,0.8,2.1,1.3,3.3,1.1c0.8,0,1,0.5,0.3,1.1
	c-1.9,1.4-4.2,2.2-6.6,2.1c-3.5,0-7-0.9-7-7.3V14.3c0.1-0.5-0.3-1.1-0.8-1.2C118.7,13.1,118.6,13.1,118.6,13.2L118.6,13.2z
	 M104.5,31.5c0,0,0.6,0,0.6,0.5s0.1,0.5-0.5,0.5H90.9c0,0-0.7,0.1-0.7-0.5s0.3-0.7,0.8-0.7s2.2-0.2,2.2-3.3v-6.4
	c0,0-0.1-2.6-1.3-3.3l-1.8-1.2c0,0-1.2-0.8,0.1-1.3c1.3-0.4,7.7-3,9.9-4.1c0,0,1.5-0.8,1.5,0.4l0.1,1c0,0,0.1,1.2,1.2,0.2s3-2,6.3-2
	s7.6,1.9,7.6,7.3v10.1c0,0-0.1,2.6,1.4,2.6s1.6,0.4,1.6,0.6s0.1,0.8-0.9,0.8h-10c0,0-1.1,0.1-1.1-1.2V17.8c0,0,0.1-3.2-2.4-3.2
	s-3,1.9-3,3.9v9.7C102.4,28.3,102.2,30.9,104.5,31.5z M60.4,17c0,0-1.5-0.6-0.1-1.2c1.4-0.6,9-3.6,10.5-4.2S72,12.3,72,13V26
	c0,0-0.2,3.7,2.3,3.7s3-2.4,3-3.7v-5.8c0.1-0.8-0.2-1.7-0.8-2.3l-2-1.6c0,0-1.1-0.6,0.3-1.1s8.8-3.3,9.9-3.9s1.6-0.1,1.6,1.6v14.9
	c0,0-0.5,3.6,1.9,3.6c0,0,0.7-0.1,0.7,0.4s0.1,0.7-0.8,0.7h-8.4c-1.4,0-1.8-0.2-1.8-1.4s-0.9-0.5-1.4-0.1c-1.7,1.6-4,2.4-6.3,2.3
	c-4,0-7-1.3-7-8.4v-4.1C63.3,20.8,63.6,18.9,60.4,17L60.4,17z M46,10.2c7.5,0,13.6,5,13.6,11.2S53.5,32.6,46,32.6s-13.6-5-13.6-11.2
	S36.3,10.2,46,10.2z M11.9,17.2c0,0-0.7,13.3,7.3,13.3c8.5,0,10.4-9.1,10.4-9.1s0-1.4,1.3-1c1.3,0.4,0.8,1.3,0.7,2s-0.4,4.3-0.3,7.3
	c-3.8,1.6-7.9,2.4-12.1,2.4c-6.7,0-18.8-4.2-18.8-14.8s9.2-16.9,20-16.9c3.5,0,6.9,0.8,10,2.4c0,0,0.7,0,0.6,1.6S31,11.1,31,11.1
	S30.8,12,30.2,12s-0.8-0.8-1-1.8s-2.8-8.1-8.9-8.1S11.9,6.7,11.9,17.2L11.9,17.2z"/>
<path class="st1" d="M153.8,49.6h-1.9c0,0-0.8,0.1-0.8-1.1s0.2-4.7,3.3-4.7s3,3.1,3,3.4C157.5,47.7,157.5,49.6,153.8,49.6
	L153.8,49.6z M84.7,52.6v3.6c0,0,0.1,3.6-2.2,3.6s-2.1-2.6-2.1-2.9s0.2-4,2.8-5.1C84.1,51.3,84.7,51.4,84.7,52.6z M46,11.5
	c4,0,3.6,4.4,3.6,9.8s0.2,9.8-3.6,9.8s-3.6-4.4-3.6-9.8S42,11.5,46,11.5z"/>
</svg>
