<?xml version="1.0" encoding="utf-8"?>
<!-- Generator: Adobe Illustrator 21.1.0, SVG Export Plug-In . SVG Version: 6.00 Build 0)  -->
<svg version="1.1" id="Layer_1" xmlns="http://www.w3.org/2000/svg" xmlns:xlink="http://www.w3.org/1999/xlink" x="0px" y="0px"
	 viewBox="0 0 181 103" style="enable-background:new 0 0 181 103;" xml:space="preserve">
<style type="text/css">
	.st0{fill:#231F20;}
	.st1{fill:#FFFFFF;}
	.st2{fill:#C50C46;}
</style>
<title>Grocery</title>
<path class="st0" d="M171.3,0.5H9.7c-5.1,0-9.2,4.1-9.2,9.2v83.6c0,5.1,4.1,9.2,9.2,9.2h161.6c5.1,0,9.2-4.1,9.2-9.2V9.7
	C180.5,4.6,176.4,0.5,171.3,0.5z M177.6,93.3c0,3.5-2.8,6.3-6.3,6.3H9.7c-3.5,0-6.3-2.8-6.3-6.3V9.7c0-3.5,2.8-6.3,6.3-6.3h161.6
	c3.5,0,6.3,2.8,6.3,6.3V93.3z"/>
<path class="st0" d="M172.5,89.6c0,2.7-2.5,4.9-5.6,4.9H14.1c-3.1,0-5.6-2.2-5.6-4.9V13.7c0-2.7,2.5-4.9,5.6-4.9h152.8
	c3.1,0,5.6,2.2,5.6,4.9V89.6z"/>
<path class="st1" d="M14.1,8.6c-3.2,0-5.9,2.3-5.9,5.1v75.9c0,2.8,2.6,5.1,5.9,5.1h152.8c3.2,0,5.9-2.3,5.9-5.1V13.7
	c0-2.8-2.6-5.1-5.9-5.1H14.1z M8.8,89.6V13.7c0-2.5,2.4-4.6,5.3-4.6h152.8c2.9,0,5.3,2.1,5.3,4.6v75.9c0,2.5-2.4,4.6-5.3,4.6H14.1
	C11.2,94.2,8.8,92.1,8.8,89.6L8.8,89.6z"/>
<path class="st1" d="M85.3,26.7c-0.3-1.3-0.9-2.6-1.7-3.7c-0.9-0.9-2.1-1.3-4.5-1.3H77c-1.5,0-1.7,0.1-1.7,1.5v9.5h3.5
	c3.8,0,4.3-0.4,4.7-3.1h1.6v8.6h-1.6c-0.5-2.9-0.9-3.3-4.7-3.3h-3.5v6.8c0,4,0.3,4.3,4.1,4.6v1.5H66v-1.5c3.1-0.3,3.5-0.6,3.5-4.6
	V25.9c0-3.9-0.4-4.2-3.5-4.5v-1.5h20.4c0,0.7,0.3,4,0.5,6.6L85.3,26.7z"/>
<path class="st1" d="M96.7,32.9c1.6-2.7,3.2-4.6,4.9-4.6c1.5-0.1,2.8,1.1,2.9,2.6c0,0,0,0,0,0.1c0,1.4-0.8,2.6-2.1,3.1
	c-0.4,0.2-1,0.1-1.3-0.2c-0.5-0.5-1.3-0.8-2-0.9c-0.8,0-1.7,0.6-2.4,2.3v8c0,2.6,0.2,2.8,3.5,3.1v1.4H88.3v-1.4
	c2.4-0.3,2.8-0.5,2.8-3.1v-9.4c0-2.1-0.3-2.4-2.3-2.8v-1.2c2.7-0.3,5.3-0.9,7.8-1.6v4.6L96.7,32.9z"/>
<path class="st1" d="M122.2,43.6c-2.6,3.9-5.9,4.8-7.8,4.8c-5.8,0-8.9-4.3-8.9-9.2c0-2.9,1.1-5.7,3.2-7.8c1.7-1.8,4.1-2.9,6.6-3.1
	l0,0c3.8,0,6.9,3.1,7,6.9c0,0.9-0.3,1.4-1.3,1.6c-0.8,0.1-6.1,0.5-10.3,0.7c0.2,4.6,2.7,6.9,5.8,6.9c1.8,0,3.5-0.7,4.8-1.8
	L122.2,43.6z M114.4,30c-1.7,0-3.1,2-3.4,5.4l5.2-0.1c0.6,0,0.9-0.1,0.9-0.9C117.1,32.3,116.1,30,114.4,30L114.4,30z"/>
<path class="st1" d="M136.3,34.4c-1.2-2.6-2.5-4.4-4.6-4.4c-1.2,0-2.2,1.1-2.2,2.3c0,0,0,0,0,0c0,1.3,1,2.3,3.2,3.3
	c3.5,1.5,5.8,3,5.8,6.4c0,4.3-4.1,6.4-7.7,6.4c-1.9,0-3.8-0.5-5.4-1.5c-0.4-1.9-0.6-3.9-0.6-5.8L126,41c0.9,2.7,3,5.7,5.6,5.7
	c1.2,0,2.3-0.9,2.3-2.2c0,0,0-0.1,0-0.1c0-1.3-0.6-2.3-3.2-3.6c-2-0.9-5.5-2.6-5.5-6.3c0-3.4,2.7-6.1,7.2-6.1c1.4,0,2.8,0.2,4.1,0.8
	c0.5,1.6,0.8,3.2,1,4.9L136.3,34.4z"/>
<path class="st1" d="M152.1,47.9v-1.4c2.1-0.3,2.2-0.6,2.2-3v-7.6c0-3.3-1.4-4.4-3.1-4.4c-1.2,0-2.3,0.4-3.1,1.2v10.8
	c0,2.4,0.2,2.7,2,3v1.4h-10.2v-1.4c2.4-0.2,2.7-0.4,2.7-3.1v-20c0-2.6-0.2-2.6-2.4-2.9v-1.3c2.7-0.4,5.3-0.9,7.9-1.6v13.5
	c1.5-1.6,3.5-2.6,5.7-2.8c3.8,0,5.9,2.4,5.9,7.1v7.9c0,2.8,0.3,2.8,2.4,3.1v1.4L152.1,47.9z"/>
<path class="st1" d="M56.6,83.5V82c3.2-0.3,3.4-0.6,3.4-4.6l-0.1-16.6h-0.2l-9.6,22.4H49l-8.8-22H40l-0.5,11.2c-0.2,2.3-0.2,4.7,0,7
	c0.2,1.9,1,2.3,3.9,2.5v1.5H33v-1.5c2.4-0.2,3.2-0.9,3.5-2.5c0.4-2.7,0.8-5.4,0.9-8.1l0.7-8.5c0.3-4.9,0-5.5-3.7-5.8v-1.5h8.9
	l8.3,18.9l8.4-18.9h8.7V57c-3.4,0.3-3.6,0.7-3.5,4.3l0.4,16.1c0.1,4,0.3,4.3,3.7,4.6v1.5L56.6,83.5z"/>
<path class="st1" d="M85.5,84c-1,0-1.9-0.3-2.6-0.9c-0.5-0.4-0.9-0.9-1.1-1.6c-1.6,1.1-3.7,2.4-4.5,2.4c-3.1,0.1-5.7-2.4-5.8-5.5
	c0,0,0,0,0,0c0-2.2,1-3.3,3.3-4.1c2.5-0.9,5.9-2,6.8-2.8v-1.3c0-2.7-1-4.2-2.6-4.2c-0.6,0-1.1,0.3-1.5,0.8c-0.6,0.9-1,1.9-1.2,3
	c-0.1,0.9-0.9,1.5-1.8,1.5c-1.2,0-2.7-1-2.7-2.1c0-0.8,0.6-1.3,1.5-2.1c2.2-1.5,4.6-2.5,7.2-3.1c1.5-0.1,3,0.4,4.2,1.3
	c1.8,1.4,2.2,3.3,2.2,5.7V78c0,2,0.7,2.5,1.4,2.5c0.5,0,1-0.1,1.5-0.3l0.4,1.4L85.5,84z M81.6,73.2c-0.8,0.4-1.5,0.9-2.4,1.3
	c-1.3,0.4-2.1,1.7-2,3c0,2.4,1.6,3.3,2.6,3.3c0.7,0,1.3-0.2,1.8-0.7L81.6,73.2z"/>
<path class="st1" d="M99.6,68.5c1.6-2.7,3.2-4.6,4.9-4.6c1.5-0.1,2.8,1.1,2.9,2.7c0,0,0,0,0,0.1c0,1.4-0.8,2.6-2.1,3.1
	c-0.4,0.2-1,0.1-1.3-0.2c-0.5-0.5-1.3-0.8-2-0.9c-0.8,0-1.7,0.6-2.4,2.3v8c0,2.6,0.2,2.8,3.5,3.1v1.4H91.2v-1.4
	c2.4-0.3,2.8-0.5,2.8-3.1v-9.4c0-2.1-0.3-2.4-2.3-2.8v-1.2c2.7-0.3,5.3-0.9,7.8-1.6v4.6L99.6,68.5z"/>
<path class="st1" d="M122.9,83.6c-1.3-1.6-3.7-5.4-5.6-8.5c-0.4-0.5-0.6-0.7-0.9-0.8c-0.1,0-0.3,0-0.4,0V79c0,2.8,0.3,2.9,2.8,3.2
	v1.4h-11.1v-1.4c2.6-0.3,2.8-0.4,2.8-3.2V59c0-2.4-0.3-2.7-2.6-2.9v-1.3c2.7-0.3,5.4-0.8,8-1.6V73c1-0.3,1.9-0.9,2.5-1.7
	c1-1.2,1.8-2.4,2.5-3.7c0.5-0.9,0.3-1.5-1.3-1.7v-1.3l9.3-0.4v1.3c-2.7,0.5-4.2,1-5.4,2.2c-1.1,1.1-2.1,2.3-3.1,3.5
	c1.2,1.9,4.9,7,6.2,8.7c0.8,1.2,2.2,2,3.6,2.2v1.4L122.9,83.6z"/>
<path class="st1" d="M147.4,79.3c-2.6,3.9-5.9,4.8-7.8,4.8c-5.8,0-8.9-4.3-8.9-9.2c0-2.9,1.1-5.7,3.2-7.8c1.7-1.8,4.1-2.9,6.6-3.1
	l0,0c3.8,0,6.9,3.1,7,6.9c0,0.9-0.3,1.4-1.3,1.6c-0.8,0.1-6.1,0.5-10.3,0.7c0.2,4.6,2.7,6.9,5.8,6.9c1.8,0,3.5-0.7,4.8-1.9
	L147.4,79.3z M139.7,65.7c-1.7,0-3.1,2-3.4,5.4l5.2-0.1c0.6,0,0.9-0.1,0.9-0.9C142.3,67.9,141.4,65.7,139.7,65.7L139.7,65.7z"/>
<path class="st1" d="M159.1,83.6c-0.5,0.2-1.1,0.4-1.7,0.5c-3.3,0-5.3-1.6-5.3-5.4V66.5h-2.7l-0.2-0.5l1.2-1.6h1.7v-3.1L157,58
	l0.6,0.3v6.2h4.2c0.5,0.6,0.4,1.5-0.2,2c0,0,0,0,0,0h-4v10.6c0,3.4,1.6,3.8,2.4,3.8c0.8,0,1.5-0.2,2.2-0.5l0.4,1.5L159.1,83.6z"/>
<path class="st2" d="M34.7,5.3c5.8-4.2,13.5-4.6,19.6-0.9c6.7,3.7,9.9,11.2,9,18.7c-1,8.3-5.8,15.7-13,20C45.1,46,39.3,48,35,52.9
	c-1.3-0.6-2.1-2-3.3-2.7c-6.2-4.4-14-5.8-18.9-12.2C8.3,33.2,5.9,26.8,6,20.2C6.2,13,10.5,5.7,17.3,3c4.7-1.6,9.9-1.4,14.5,0.7
	L34.7,5.3z"/>
<path class="st2" d="M34.9,8.7c1.7-1.3,3.6-2.4,5.6-3.2C46,3.7,52,5.2,56.1,9.2c5.8,5.2,5.3,14,2.8,20.5c-2.4,4.7-6.5,9.6-11.5,12
	c-4.3,2.2-8.6,3.8-12.3,7.3c-5.2-4.8-12.1-5.8-17.4-10.5c-6.8-5.3-10.2-14.4-7.9-22.8c1.4-5.5,6.3-10.3,12-10.9
	c3.3-0.3,6.7,0.2,9.7,1.6L34.9,8.7z"/>
<path class="st1" d="M21.7,4.5C16.1,5.1,11,9.8,9.4,15.7c-2.3,8.2,1,17.5,8,23.1C20,41,22.9,42.7,26,44c3.2,1.3,6.1,3.1,8.7,5.3
	l0.2,0.2l0.2-0.2c3-2.8,6.3-4.4,9.8-6.1l2.5-1.2c4.5-2.2,8.8-6.7,11.6-12.1c2.6-6.6,3.1-15.6-2.8-20.9c-4.2-4.1-10.3-5.6-15.9-3.8
	c-1.7,0.7-3.4,1.6-4.9,2.7l-0.7,0.4l-3.2-2.1C28.5,4.8,25.1,4.2,21.7,4.5z M26.3,43.4c-3.1-1.3-5.9-3-8.5-5.1
	c-5.3-4.2-8.4-10.5-8.5-17.2c0-1.8,0.2-3.5,0.7-5.2c1.5-5.6,6.5-10.1,11.8-10.7c3.3-0.3,6.6,0.2,9.5,1.6L34.9,9l1-0.7
	c1.5-1.1,3.1-1.9,4.7-2.6C46,4.1,51.9,5.5,55.9,9.5c3.3,2.9,4.5,6.9,4.5,11c0,3.1-0.6,6.2-1.8,9.1c-2.7,5.2-6.9,9.7-11.3,11.8
	l-2.5,1.2c-3.5,1.7-6.7,3.3-9.7,6C32.4,46.5,29.5,44.7,26.3,43.4L26.3,43.4z"/>
<path class="st1" d="M16.8,17.7c0-0.7-0.1-0.9-0.7-1h-0.9c-0.3,0-0.5-0.2-0.5-0.4c0-0.4,0.3-0.5,1.3-0.7c1.9-0.3,3.8-0.4,5.7-0.3
	c3,0.1,5.2,0.9,6.7,2.5c1.7,1.9,2.5,4.3,2.4,6.9c-0.2,5.2-2.6,9.1-8.2,9c-1.3,0-3-0.2-4.5-0.2c-1.1,0-2.3,0.1-3.2,0
	c-0.3,0-0.6-0.2-0.6-0.5s0.3-0.5,0.9-0.6c0.9-0.1,1.1-0.4,1.2-1.6L16.8,17.7z M20.5,30.6c0,1.1,0.3,1.8,1.5,1.8s2.3-0.6,3-2.4
	c0.7-1.7,1-3.6,1-5.4c0.2-5.9-1.6-8.3-3.9-8.3c-1,0-1.2,0.3-1.3,1.3L20.5,30.6z"/>
<path class="st1" d="M32.1,25.5c0.1-1.2,1.1-2,2.2-1.9c0,0,0.1,0,0.1,0c1.1,0,2,0.7,2,1.6s-0.7,1.3-1.3,1.7
	c-0.2,0.1-0.3,0.2-0.3,0.2s0.1,0.1,0.1,0.2c0.3,0.4,0.7,1,0.9,1.5c0.1,0.1,0.2,0.2,0.2,0.2s0.6-0.8,0.6-1.1c0-0.2-0.1-0.3-0.3-0.3
	c-0.2,0-0.3-0.1-0.3-0.3s0.1-0.3,0.3-0.3s0.6,0.1,0.9,0.1s0.7,0,0.9,0s0.3,0.1,0.3,0.3s-0.2,0.2-0.5,0.3c-0.3,0-0.6,0.2-0.7,0.5
	c-0.2,0.3-0.4,0.7-0.6,1c-0.1,0.1-0.2,0.3-0.3,0.4c0,0.1,0.1,0.2,0.1,0.3c0.2,0.4,0.4,0.8,0.7,1.2s0.5,0.7,0.8,0.8s0.5,0.1,0.5,0.3
	s-0.1,0.2-0.3,0.2c-0.4,0-0.8-0.1-1.3-0.1s-1,0-1.3,0s-0.3,0-0.3-0.2c0-0.1,0-0.2,0.1-0.2c0.1,0,0.1-0.1,0.1-0.2
	c0-0.1-0.3-0.5-0.3-0.5s-0.2,0.2-0.4,0.3c-0.5,0.5-1.2,0.9-1.9,0.9c-1.2,0-2.2-0.9-2.2-2.1c0-0.1,0-0.2,0-0.2c0-0.9,0.6-1.7,1.5-2
	c0.4-0.2,0.8-0.3,0.8-0.4S32.1,26.7,32.1,25.5L32.1,25.5z M32.4,29.5c0,0.8,0.5,1.8,1.4,1.9c0.4,0,0.8-0.3,1-0.7
	c0-0.1-1-1.6-1.3-2.2c-0.1-0.2-0.2-0.3-0.3-0.3C32.7,28.4,32.3,28.9,32.4,29.5L32.4,29.5z M34.6,24.1c-0.5,0-0.8,0.4-0.8,0.8
	c0,0,0,0,0,0.1c0,0.6,0.3,1.2,0.7,1.6c0.5-0.2,0.9-0.8,0.9-1.3C35.4,24.6,35.2,24.2,34.6,24.1L34.6,24.1z"/>
<path class="st1" d="M42.7,33.7c-0.2,0.4-0.3,0.6-0.9,0.6S41,34,40.9,33.6l-5.1-15.4c-0.2-0.9-0.7-1.2-1.2-1.3s-0.8-0.1-0.8-0.5
	c0-0.4,0.4-0.5,0.7-0.5c1,0,2,0.2,3,0.2c1,0,1.8-0.1,2.6,0c0.3,0,0.7,0.1,0.6,0.5c0,0.3-0.2,0.5-0.4,0.5c-0.3,0-0.5,0.3-0.5,0.6
	c0,0.5,0.2,1.1,0.4,1.6l2.6,7.8c0.3,0.8,0.5,1.5,0.6,1.5s0.3-0.3,0.5-0.7l0.7-1.4c0.1-0.3,0.2-0.5,0.3-0.8c-0.1-0.5-0.2-1-0.4-1.4
	l-1.9-6c-0.1-0.4-0.4-0.8-0.7-1c-0.2-0.1-0.4-0.2-0.4-0.4c0-0.4,0.4-0.6,0.9-0.6c1.2,0,2.3,0.2,3.5,0.2c1.4,0,2.9,0,4.2,0
	c0.8,0,1,0.2,1,0.5s-0.2,0.4-0.6,0.5c-0.6,0.1-0.8,0.6-1.1,1.2l-1,2.3c-0.2,0.3-0.4,0.7-0.5,1.1c0,0.3,0.1,0.5,0.2,0.8l1.5,4.2
	c0.1,0.5,0.3,1,0.5,1.4c0.2,0,0.3-0.5,0.6-1.3l2.5-7.3c0.2-0.5,0.3-1.1,0.4-1.7c0-0.3-0.3-0.6-0.6-0.7c-0.4-0.1-0.7-0.3-0.6-0.5
	s0.3-0.5,0.6-0.5s1,0.1,1.5,0.2s1-0.1,1.5-0.1s0.6,0.2,0.6,0.5s-0.3,0.4-0.6,0.5s-0.8,0.4-1,1.1l-5.4,15.4c-0.1,0.4-0.3,0.6-0.9,0.6
	s-0.7-0.3-0.9-0.6l-2.1-6.7h-0.1L42.7,33.7z M46.8,19.7c0.2,0.5,0.3,0.8,0.4,0.8s0.3-0.4,0.4-0.8c0.2-0.6,0.4-1.2,0.6-1.9
	c0-0.4-0.2-0.5-1-0.5s-1,0.1-1,0.4C46.4,18.4,46.6,19.1,46.8,19.7L46.8,19.7z"/>
</svg>
