<?xml version="1.0" encoding="utf-8"?>
<!-- Generator: Adobe Illustrator 21.1.0, SVG Export Plug-In . SVG Version: 6.00 Build 0)  -->
<svg version="1.1" id="Layer_1" xmlns="http://www.w3.org/2000/svg" xmlns:xlink="http://www.w3.org/1999/xlink" x="0px" y="0px"
	 viewBox="0 0 179.4 109.6" style="enable-background:new 0 0 179.4 109.6;" xml:space="preserve">
<style type="text/css">
	.st0{fill:#E37527;}
	.st1{fill:#121212;}
	.st2{fill:#181377;}
</style>
<title>Coke_Dine</title>
<path class="st0" d="M136.4,77.4c-0.8,0.8-1.9,1.3-3,1.4c-12.2,2.3-22.1,15.1-22.5,27.4c-0.1,2.2-0.8,2.9-2.9,2.9
	c-7.1-0.1-14.3-0.1-21.4,0c-1.9,0-2.7-0.8-2.6-2.6c0.4-10.7,4.6-19.2,14-24.8c2.2-1.3,4.3-2.6,6.8-3c0.6-0.1,1.4-0.3,1.4-1
	s-0.9-0.6-1.4-0.8C92,72.6,84.5,62.4,84.3,48.5c0-1.7,0.6-2.3,2.3-2.3c7.5,0.1,15.1,0.1,22.6,0.1c1.5,0,1.7,0.9,1.8,2.1
	c0.1,3.8,1,7.6,2.5,11.1c3.1,6.9,8.6,12.5,15.6,15.5C131.3,76.1,133.8,76.9,136.4,77.4z"/>
<path class="st1" d="M78.8,19.3c0-5.5,0.1-11,0-16.4c0-1.7,0.6-2.3,2.2-2.3c3.2,0.1,6.4,0.1,9.6,0c1.5,0,2,0.6,2,2
	c-0.1,2.6-0.1,5.2-0.2,7.8c0,0.5-0.2,1.1,0.4,1.4c0.6,0.3,0.9-0.2,1.4-0.5c4.4-2.7,9.1-4.3,14.3-2.8c2.6,0.5,4.6,2.6,5,5.3
	c0.6,3.2,0.3,6.4,0.4,9.6c0,4.2,0,8.4,0.1,12.6c0,1.6-0.7,2-2.1,2c-3.2,0-6.4-0.1-9.6,0c-1.4,0-1.8-0.5-1.8-1.9c0.1-7,0.1-14,0.1-21
	c0-3.8-1-4.4-4.3-2.8c-2.7,1.2-4.1,2.8-3.9,6.1c0.3,5.8,0.1,11.7,0.2,17.6c0,1.7-0.6,2.1-2.1,2.1c-3.2-0.1-6.4-0.1-9.6,0
	c-1.5,0-2.1-0.4-2.1-2.1C78.9,30.3,78.8,24.8,78.8,19.3L78.8,19.3z"/>
<path class="st1" d="M0.5,19.5c0-5.5,0-11,0-16.4c0-1.2,0.4-1.8,1.5-1.8c6.6,0,13.3-0.3,19.8,0.2c10.9,0.8,17.3,13,14.4,22.7
	c-2.6,8.7-9.3,14.1-18.9,13.7c-4.9-0.2-9.7-0.1-14.6,0c-1.7,0-2.2-0.5-2.2-2.4C0.7,30.2,0.6,24.8,0.5,19.5L0.5,19.5z M16.7,19.4
	L16.7,19.4c0,4.9,0,9.7,0,14.6c0,1.7,0.7,2.4,2.3,2.2c2.7-0.2,5.2-0.9,7.6-2.1c6.5-3.6,9.7-11.7,7.7-19.5C32.5,7.5,26,2.7,18.8,2.9
	c-1.5,0-2.1,0.5-2.1,2.1C16.8,9.7,16.7,14.6,16.7,19.4z"/>
<path class="st1" d="M119.4,19.3c0-5.6,0-11.1,0-16.6c0-1.4,0.4-2.1,1.9-2.1c3.3,0,6.7,0,10,0c1.3,0,1.8,0.5,1.8,1.8
	c0,11.2,0,22.5,0,33.8c0,1.1-0.3,1.7-1.5,1.7c-3.5,0-7,0-10.5,0c-1.4,0-1.7-0.8-1.7-2C119.5,30.4,119.4,24.9,119.4,19.3L119.4,19.3z
	"/>
<path class="st1" d="M74.6,36.7c-0.9-1.5-0.8-3.1-0.8-4.7c-0.1-4.9,0-9.7-0.1-14.6c0.1-2.9-1.5-5.6-4-6.9c-3.5-2-7.2-2.4-11-2.5
	c-4.8-0.2-9.6-0.1-13.7,3c-0.1,0-0.1,0-0.2,0.1l-1.4,1.6c-1.3,1.3-0.1,1.6-0.1,1.6l1,0.5c0.1,0.1,0.4,0,0.4,0s1.4-0.8,1.8-1.4
	c2.6-3.1,6-3.8,9.7-3.3c1.8,0.2,3.6,0.8,3.8,3c0.2,1.9,0.1,3.8,0.1,5.7c0,0.9-0.5,1.5-1.4,0.9c-1.8-1.1-3.8-1.2-5.7-1.3
	c-6.1-0.4-12.1,4.9-13.3,7.9c-1.2,3.2,0,7.1,3,9.8c4.2,3.6,10.3,4.1,15,1.1c0.8-0.5,1.6-1.2,2.3-0.1c0,0,0.5,0.6,0.7,0.7
	c4.3,0.6,8.6,0.1,13,0.4C74.6,38.2,75.2,37.7,74.6,36.7z M56.1,35.8c-0.1,0-0.1,0.1-0.2,0.1c-1.2,0.6-2.6,0.2-3.2-0.9
	c0-3.8,0-7.6,0-11.4c0-2.4,1.1-3.3,3.5-2.9c3.2,0.5,3.8,1.2,3.8,4.4c0,2.2,0,4.5,0,6.8c0.1,1-0.3,2-1.2,2.5l0,0
	C57.9,34.7,57,35.1,56.1,35.8z"/>
<path class="st1" d="M73.2,56.8c0-0.1-0.1-0.1-0.1-0.2L71.6,55c-0.9-0.6-1.5-1.4-2.3-2.4c0.9-1.7,2.1-0.9,3.3-0.5
	c0.4,0.2,0.9,0.6,1.3-0.1c0.2-0.5,0-1.1-0.5-1.3c-1-0.4-2-0.8-3-1c-1.9-0.5-5.3,1-6.2,2.8c-1,2.1,0.3,3.6,1.5,5.1
	c0,0,2.2,2.4,2.5,2.9c0.1,0.8,1.3,1.4,0.6,2.2c-0.7,0.8-1.4-0.2-2.2-0.4c-0.9-0.2-1.7-0.3-2.6-0.4c2.2,2.9,5.2,3.4,8.4,1.6
	C75.5,61.8,75.8,59.2,73.2,56.8z"/>
<path class="st2" d="M145.1,46.4c-9.8-0.5-19.6-0.2-29.4-0.3c-1.6,0-2.2,0.6-2.1,2.2c0.3,5.8,1.7,11.2,5.2,15.8
	c4.4,5.9,11.1,9.7,18.5,10.5c2.9,0.4,2.9,0.5,2.9-2.5c0-6.8,0-13.7,0-20.5c0-1.5,0.3-2.6,2.1-2.6c3.8,0,7.6,0.6,11.2,1.8
	c7.4,2.7,12.7,7.8,16.4,14.7l0.9,2.2l0.9,2.6l0.1,0.1l-0.1,0.2l0.4,1.7c0.3,0.2,0.2,0.4,0.1,0.6l0.3,2.3c0.4,1.8,0.4,3.6,0,5.4
	l-0.3,2.3l0.1,0.2l-0.1,0.1l-0.4,1.8c-0.3,1.8-0.9,3.5-1.8,5l-1.9,3.2c0,0.4-0.2,0.8-0.6,0.7l-1,1.3c-0.1,0.2-0.2,0.4-0.3,0.6
	c-0.9,0.8-1.7,1.7-2.4,2.6c-0.2,0.1-0.4,0.3-0.5,0.4c-5.8,5.1-12.4,8-20.1,8.1c-2.8,0-3.1-0.3-3.1-3.1c0.1-7.1,0.1-14.1,0.1-21.2
	c0.1-1.5-0.4-2.2-2.1-2c-14.9,1.4-23.6,12.4-24.5,26c-0.2,1.7,0.5,2.2,2.2,2.2c8.4,0,16.7,0,25.1,0c5.5,0,10.9-0.5,16-2.9
	c9.3-4.5,15.3-11.8,17.4-21.7c0.5-1.9,0.7-3.9,0.8-5.9C175.6,61.3,162.2,47,145.1,46.4z"/>
<path class="st1" d="M174.9,21.3c-2.6-2.6-5.2-5.2-7.7-7.8c-0.9-0.7-1.2-1.9-0.7-2.9c0.6-1.2,1.7-1.1,2.8-1c2.1,0.3,4.1,1.2,5.8,2.5
	c0,0.1,1.4,0.9,2,0.4c0.3-0.2,0.4-0.5,0.2-1.4c-0.3-0.7-0.5-0.7-1-1c-5-3.8-12.7-3.1-17-0.3c-5.2,3.5-5.8,8.4-1.5,13.1
	c0.1,0.1,0.6,0.8,1.1,1.3l8,8.8c0.7,0.8,1.6,1.7,1,2.8s-1.9,0.9-2.9,0.8c-2.5-0.2-4.9-1.2-6.9-2.8c-0.8-0.6-1.7-1.5-2.5-0.4
	c-0.7,1.1,0.5,1.8,1.3,2.3c4.9,3.5,11.3,4,16.7,1.5c3.3-1.5,5.4-3.8,5.3-7.8C178.9,25.9,177.1,23.6,174.9,21.3z"/>
<path class="st1" d="M149.8,1.3c-3-1.1-6.4-1-9.5,0.1c-2.3,0.8-4.3,2.1-4.1,4.8s2.5,3.9,4.8,4.6c3.1,1,6.4,0.9,9.4-0.4
	c0.4-0.2,0.9-0.6,1.4-0.1s0.1,1-0.2,1.4c-1.2,1.9-3.1,3.4-5.3,4c0,0-0.2,0-0.3,0.1c-0.2,0.1-0.7,0.2-0.7,0.2c-0.1,0-0.3,0.1-0.4,0.1
	l-0.6,0.1c-0.5,0.1-1.1,0.2-1.7,0.3l-0.4,0.1c-0.8,0-1.5,0-2.2,0.4h-0.2c-0.1,0.1-0.2,0.3-0.1,0.4l0.1,0.1c1.6,1.1,3.3,0.4,5,0.2
	c0.6-0.2,1.2-0.4,1.8-0.6c2.8-0.5,5.2-2.3,6.4-4.9C155.3,8,154.8,3,149.8,1.3z"/>
<polygon class="st1" points="15.3,49.1 15.3,47.8 7.7,47.8 1.8,47.8 0.9,47.8 0.9,63.9 7.7,63.9 7.7,53.4 15.3,53.4 15.3,52.1 
	7.7,52.1 7.7,49.1 "/>
<path d="M22.9,51c-3.9,0-7,3.1-7,7s3.1,7,7,7s7-3.1,7-7S26.8,51,22.9,51z M22.9,63.7V52.3c3.2,0,5.7,2.6,5.7,5.7
	C28.6,61.2,26,63.7,22.9,63.7z"/>
<path d="M37.3,51c-3.9,0-7,3.1-7,7s3.1,7,7,7s7-3.1,7-7S41.2,51,37.3,51z M37.3,63.7V52.3c3.1,0,5.7,2.6,5.7,5.7
	C43,61.2,40.5,63.7,37.3,63.7z"/>
<path d="M55.5,47.2v4.7c-0.9-0.4-1.9-0.7-3-0.7c-3.9,0-7,3.1-7,7s3.1,7,7,7c1.1,0,2.1-0.3,3-0.7l0,0h6.8V47.2H55.5z M52.5,63.9V52.5
	c1.1,0,2.1,0.3,3,0.9v9.7C54.6,63.6,53.6,63.9,52.5,63.9z"/>
<path d="M35.2,88.4c0.6,8.5,5.2,11.7,5.2,11.7c6.9,6.8,14.7,6,14.7,6c6.1,0.1,12-2.5,16.1-7.1c4.2-4.8,4.5-12.2,4.5-12.2
	c0-1-1.6-1.9-1.6-1.9c-1.1-0.8-7-1.3-7-1.3l3.9-6.5c2.4-0.3,2.8-1.6,2.8-1.6c1-2.7-0.9-3.7-0.9-3.7c1.4,2.8-1,3.5-1,3.5
	c-2.4,0.1-2.5-1.6-2.5-1.6c-0.2-3.1,3-2.3,3-2.3c-0.5-1.2-2.7-0.6-2.7-0.6c-1.5,0.6-2.3,2.3-1.7,3.9v0.1l-9.2,8.3
	c-20.6,0.5-22.2,3.1-22.2,3.1c6.7-1.1,13.5-1.5,20.2-1.1l-3.7,3.6c-11,0.3-16-0.6-16-0.6c3.9,1.4,15.1,2.4,15.1,2.4
	c6.9,0.4,13.8,0,20.6-1.2C70.9,101.5,58.5,104,58.5,104c-9.9,1.4-15.1-2.8-15.1-2.8C38.9,98.5,35.8,93.7,35.2,88.4z M60.8,88.7h-4
	l11.6-11.8c0,0,0.3-0.4,0.6,0L60.8,88.7z"/>
<path d="M35.2,87.6c0,0.3,0,0.5,0,0.8C35.2,87.9,35.2,87.6,35.2,87.6z"/>
</svg>
