<?xml version="1.0" encoding="utf-8"?>
<!-- Generator: Adobe Illustrator 21.1.0, SVG Export Plug-In . SVG Version: 6.00 Build 0)  -->
<svg version="1.1" id="Layer_1" xmlns="http://www.w3.org/2000/svg" xmlns:xlink="http://www.w3.org/1999/xlink" x="0px" y="0px"
	 viewBox="0 0 230.2 17" style="enable-background:new 0 0 230.2 17;" xml:space="preserve">
<title>Coke_Dine</title>
<path d="M105,13c-0.9,0.6-2.2,0.4-2.8-0.5c0,0-0.1-0.1-0.1-0.1c-0.2-0.3-0.2-0.7-0.1-1c0.3-0.6,0.8-1.2,1.4-1.7
	c0.4-0.4,0.9-0.8,1.6-0.1c0-0.8,0-1.5,0-2.1s0-1.3,0-2c-1.8,0.9-3.3,2.3-4.4,4c-0.5-0.9-1.3-1.5-2.2-1.9c0.2-0.1,0.3-0.2,0.5-0.2
	c1.8-0.8,1.9-3.7,0.7-4.9c-1.9-2-6.3-2-8.2,0c-1.1,1.2-1.1,3.1,0.1,4.2c0.1,0.1,0.1,0.1,0.2,0.2c0.1,0.1,0.3,0.1,0.3,0.3
	c-0.3,0.2-0.7,0.3-1,0.6c-2.1,1.3-2.7,4.1-1.4,6.2c0.5,0.8,1.3,1.4,2.1,1.8c1.5,0.5,3,0.7,4.6,0.5c1.2-0.1,2.4-0.6,3.3-1.5
	c0.2-0.2,0.3-0.4,0.5-0.5c0.1,0,0.2,0.1,0.2,0.2c1.1,1.1,2.6,1.7,4.2,1.7c0.3,0,0.6,0,0.5-0.4C105,14.7,105,13.9,105,13z M94.3,3.1
	c0.8-0.2,1.6-0.2,2.3,0c0.8,0.2,1.3,0.9,1.2,1.7c0,0.8-0.5,1.5-1.3,1.6c-0.4,0.1-0.7,0.1-1.1,0.1c-0.3,0-0.7,0-1-0.1
	c-0.8-0.1-1.3-0.8-1.3-1.6C93,4,93.5,3.2,94.3,3.1L94.3,3.1z M97.5,13.3c-0.8,0.4-1.7,0.6-2.6,0.6c-0.6,0-1.3-0.1-1.8-0.4
	c-0.8-0.4-1.3-1.3-1.3-2.2c0-0.9,0.5-1.8,1.3-2.2c1.9-0.9,4.2-0.2,5.1,1.7c0.1,0.2,0.2,0.4,0.3,0.6C98.7,12.2,98.3,13,97.5,13.3
	C97.6,13.3,97.5,13.3,97.5,13.3L97.5,13.3z"/>
<path d="M13,1.6c-0.8-0.3-1.6-0.5-2.4-0.5c-3.3,0-6.6,0-9.9,0c-0.1,0-0.1,0-0.2,0.1C1,1.7,1,1.7,1,2.5c0,4,0,8,0,12
	c0.1,0.5-0.1,1.1-0.5,1.4c0.2,0,0.3,0,0.5,0c3,0,6,0,9.1,0c0.6,0,1.2-0.1,1.8-0.2c2.2-0.4,4.1-2,4.7-4.2c0.7-2.1,0.7-4.3,0-6.4
	C16,3.5,14.7,2.2,13,1.6z M13.9,10.4c-0.3,1.9-1.9,3.2-3.8,3.2c-0.9,0-1.8,0-2.7,0H4.7c-0.8,0-0.7,0-0.7-0.7c0-1.4,0-2.7,0-4.1
	c0-1.6,0-3.1,0-4.7c0-0.7,0-0.7,0.7-0.7h4.6c0.3,0,0.7,0,1,0.1c1.8,0.1,3.3,1.5,3.6,3.3C14.1,8,14.1,9.2,13.9,10.4L13.9,10.4z"/>
<path d="M128.5,1.4c-0.9-0.3-1.8-0.4-2.7-0.4H117c-0.2,0-0.4-0.1-0.5,0.2c0.5,0.2,0.5,0.6,0.5,1.1c0,4.1,0,8.2,0,12.4
	c0,0.4,0,0.9-0.6,1.1l0.1,0.2c3.4,0,6.8,0.1,10.2,0c3,0,5.5-2.1,6-5.1c0.4-1.7,0.3-3.5-0.1-5.1C132.2,3.6,130.6,2,128.5,1.4z
	 M129.7,10.8c-0.3,1.6-1.7,2.7-3.3,2.8c-2,0.1-4.1,0-6.1,0.1c-0.4,0-0.4-0.3-0.4-0.6c0-1.5,0-3,0-4.5c0-1.5,0-3,0-4.4
	c0-0.5,0.1-0.7,0.6-0.6c1.6,0,3.2,0,4.8,0c0.3,0,0.5,0,0.8,0.1c2.1,0.1,3.8,1.7,3.9,3.8C130.1,8.5,130,9.6,129.7,10.8z"/>
<path d="M77.5,1.1h-3.8c0.4,0.3,0.6,0.8,0.5,1.3c0,2.7,0,5.4,0,8.1c0,0.2,0.1,0.4-0.2,0.6c-2.8-3-5.7-6-8.5-9.1
	c-0.4-0.4-0.3-0.4,0.2-1h-2.2h-2.1c0.5,0.4,0.4,0.9,0.4,1.4c0,4,0,8,0,12.1c0.1,0.5-0.1,1-0.4,1.4h3.4c-0.5-0.4-0.5-0.8-0.5-1.3
	c0-2.9,0-5.8,0-8.7c0-0.2-0.1-0.4,0.1-0.6c0.1,0,0.2,0,0.2,0c3,3.2,6.1,6.5,9.1,9.7c0.3,0.4,0,0.6-0.1,0.8h3.7
	c-0.6-0.4-0.5-0.9-0.5-1.4c0-4,0-8,0-11.9C76.8,2.1,76.7,1.5,77.5,1.1z"/>
<path d="M34.4,13.6H32c-2.2,0-4.3,0-6.5,0c-0.5,0-0.6-0.1-0.6-0.6c0-0.9,0-1.9,0-2.8c0-0.6,0-0.7,0.7-0.7c1.8,0,3.6,0,5.4,0
	c0.5-0.1,0.9,0.1,1.3,0.5V6.4c-0.3,0.5-0.6,0.7-1.1,0.7c-1.9,0-3.8,0-5.8,0c-0.4,0-0.5-0.2-0.5-0.6c0-0.8,0-1.5,0-2.3s0-0.9,0.9-0.9
	h8.4c0.5,0,1.1-0.1,1.5,0.6V0.5c-0.4,0.5-1,0.7-1.6,0.6H22.4c-0.3-0.1-0.7,0-1,0.1C22.1,1.5,22,2,22,2.5c0,4,0,8,0,11.9
	c0.1,0.6-0.1,1.1-0.4,1.5c0.3,0.1,0.6,0.1,0.9,0.1h11.9c0.5,0,1.1-0.1,1.5,0.5v-3.3C35.5,13.6,35,13.7,34.4,13.6z"/>
<path d="M151.3,13.1c-0.2,0.3-0.5,0.5-0.9,0.5c-3.1,0-6.3,0-9.4,0c-0.4,0-0.6-0.1-0.5-0.6c0-0.9,0-1.8,0-2.6s0-0.9,0.9-0.9h4.9
	c0.6,0,1.1-0.1,1.6,0.6V6.7c-0.3,0.3-0.6,0.4-1,0.4c-2,0-3.9,0-5.9,0c-0.4,0-0.5-0.2-0.5-0.5c0-0.8,0-1.5,0-2.3c0-1,0-0.9,0.9-0.9
	c2.5,0,5,0,7.5,0c0.8,0,1.7-0.2,2.5,0.6c0-0.7,0-1.2,0-1.8c0-0.6,0-1.1-0.1-1.7c-0.4,0.4-0.9,0.6-1.4,0.5H138c-0.3,0-0.6,0-1,0
	c0.5,0.4,0.4,0.9,0.4,1.3c0,3.9,0,7.8,0,11.7c0.1,0.7-0.1,1.4-0.6,1.8h12.8c0.6-0.1,1.3,0.1,1.8,0.5c0-0.7,0-1.2,0-1.8
	C151.4,14.1,151.4,13.6,151.3,13.1z"/>
<path d="M185.3,1.2c0.6,0.2,0.6,0.7,0.6,1.1c0,2.7,0,5.4,0,8.1c0,0.3,0,0.7-0.1,1c-0.1,0.9-0.6,1.6-1.5,1.9c-2,0.6-4,0.6-6,0
	c-0.8-0.3-1.4-1-1.5-1.9c-0.1-0.5-0.1-1-0.1-1.5c0-2.5,0-5,0-7.5c-0.1-0.5,0.1-1.1,0.6-1.4h-4c0.6,0.4,0.5,0.9,0.5,1.4
	c0,2.8,0,5.5,0,8.3c0,2.8,1.6,4.4,4,5c1.7,0.4,3.4,0.5,5.2,0.3c1.2-0.1,2.4-0.4,3.4-0.9c1.3-0.6,2.2-1.8,2.4-3.2
	c0.1-0.5,0.1-1,0.1-1.5c0-2.7,0-5.3,0-8c0-0.5-0.1-1.1,0.6-1.4C188.1,1,186.7,1.1,185.3,1.2z"/>
<path d="M50.6,2.7c-0.2-0.5-0.6-1,0-1.6h-4.5c0.7,0.4,0.4,0.8,0.2,1.2l-5.2,11.5c-0.2,0.8-0.7,1.6-1.4,2.1h3.8
	c-0.1-0.4-0.3-0.6-0.1-1c0.4-0.8,0.8-1.6,1.1-2.5c0.1-0.3,0.4-0.4,0.7-0.4c2,0,4,0,6,0c0.3,0,0.6,0.2,0.7,0.5
	c0.3,0.8,0.7,1.6,1.1,2.4c0.2,0.3,0.3,0.7-0.1,1h4.1c-0.3-0.3-0.5-0.6-0.7-0.9C54.4,10.9,52.5,6.8,50.6,2.7z M45.7,9.7l2.4-5.4
	l2.5,5.4L45.7,9.7z"/>
<path d="M225.7,15.9h4c-0.4-0.5-0.8-1.1-1-1.7l-5.5-11.7c-0.2-0.5-0.5-0.9,0.1-1.4h-4.5c0.6,0.3,0.4,0.7,0.2,1.2
	c-1.6,3.7-3.2,7.4-4.8,11c-0.3,1-0.8,1.9-1.6,2.6h3.7c-0.3-0.4-0.3-0.8,0-1.2c0.4-0.7,0.7-1.4,1-2.1c0.1-0.4,0.5-0.6,0.9-0.6
	c1.9,0,3.8,0,5.8,0c0.4-0.1,0.7,0.2,0.9,0.5c0.3,0.8,0.7,1.6,1,2.3C226,15.3,226.1,15.6,225.7,15.9z M218.5,9.7l2.3-5.4l2.4,5.4
	H218.5z"/>
<path d="M207.3,12.6c-0.4,0.3-0.8,0.5-1.3,0.6c-1.6,0.6-3.4,0.7-5.1,0.4c-2.8-0.5-4.9-2.6-4.2-6.4c0.2-0.9,0.6-1.7,1.3-2.3
	c0.9-0.8,2.1-1.4,3.3-1.5c1.7-0.1,3.5,0.1,5.1,0.7c0.9,0.1,1.5,0.8,1.6,1.7l2.1-3.3c-0.8,0.3-1.4-0.2-1.9-0.4
	c-2.4-1-5.1-1.3-7.7-0.9c-1.8,0.3-3.4,1.1-4.8,2.3c-2.8,2.8-2.9,7.4,0,10.3c0.6,0.6,1.3,1.1,2,1.4c3.5,1.7,7.7,1.5,11-0.5l1.6-1
	l-2-2.8C208.3,11.6,207.9,12.2,207.3,12.6z"/>
<path d="M169,13.6c-2.7,0-5.4,0-8.1,0c-0.8,0-0.7,0-0.7-0.7c0-3.5,0-7.1,0-10.6c-0.1-0.5,0.2-0.9,0.6-1.2h-3.9
	c0.5,0.4,0.4,0.9,0.4,1.3c0,4,0,8,0,12.1c0.1,0.5,0,1.1-0.4,1.5h12.1c0.6,0,1.1-0.1,1.6,0.5V13C170.2,13.5,169.6,13.7,169,13.6z"/>
</svg>
