<?xml version="1.0" encoding="utf-8"?>
<!-- Generator: Adobe Illustrator 21.1.0, SVG Export Plug-In . SVG Version: 6.00 Build 0)  -->
<svg version="1.1" id="Layer_1" xmlns="http://www.w3.org/2000/svg" xmlns:xlink="http://www.w3.org/1999/xlink" x="0px" y="0px"
	 viewBox="0 0 181 72.8" style="enable-background:new 0 0 181 72.8;" xml:space="preserve">
<style type="text/css">
	.st0{fill:#ED1C2E;}
	.st1{clip-path:url(#SVGID_2_);}
	.st2{fill:#BC1322;}
	.st3{clip-path:url(#SVGID_4_);}
	.st4{clip-path:url(#SVGID_6_);}
	.st5{fill:#DB192A;}
	.st6{clip-path:url(#SVGID_8_);}
	.st7{clip-path:url(#SVGID_10_);}
	.st8{clip-path:url(#SVGID_12_);}
	.st9{fill:#F58D76;}
	.st10{clip-path:url(#SVGID_14_);}
	.st11{fill:#FCCDBE;}
	.st12{clip-path:url(#SVGID_16_);}
	.st13{clip-path:url(#SVGID_18_);}
	.st14{clip-path:url(#SVGID_20_);}
	.st15{clip-path:url(#SVGID_22_);}
	.st16{clip-path:url(#SVGID_24_);}
	.st17{clip-path:url(#SVGID_26_);}
	.st18{fill:#BD1322;}
	.st19{clip-path:url(#SVGID_28_);}
	.st20{clip-path:url(#SVGID_30_);}
	.st21{clip-path:url(#SVGID_32_);}
	.st22{clip-path:url(#SVGID_34_);}
	.st23{clip-path:url(#SVGID_36_);}
	.st24{clip-path:url(#SVGID_38_);}
	.st25{clip-path:url(#SVGID_40_);}
	.st26{clip-path:url(#SVGID_42_);}
	.st27{clip-path:url(#SVGID_44_);}
	.st28{clip-path:url(#SVGID_46_);}
	.st29{clip-path:url(#SVGID_48_);}
	.st30{clip-path:url(#SVGID_50_);}
	.st31{clip-path:url(#SVGID_52_);}
	.st32{clip-path:url(#SVGID_54_);}
	.st33{clip-path:url(#SVGID_56_);}
	.st34{clip-path:url(#SVGID_58_);}
	.st35{clip-path:url(#SVGID_60_);}
	.st36{clip-path:url(#SVGID_62_);}
	.st37{clip-path:url(#SVGID_64_);}
	.st38{clip-path:url(#SVGID_66_);}
	.st39{clip-path:url(#SVGID_68_);}
	.st40{clip-path:url(#SVGID_70_);}
	.st41{clip-path:url(#SVGID_72_);}
	.st42{clip-path:url(#SVGID_74_);}
	.st43{clip-path:url(#SVGID_76_);}
	.st44{clip-path:url(#SVGID_78_);}
	.st45{clip-path:url(#SVGID_80_);}
	.st46{clip-path:url(#SVGID_82_);}
	.st47{clip-path:url(#SVGID_84_);}
	.st48{clip-path:url(#SVGID_86_);}
	.st49{clip-path:url(#SVGID_88_);}
	.st50{clip-path:url(#SVGID_90_);}
	.st51{clip-path:url(#SVGID_92_);}
	.st52{clip-path:url(#SVGID_94_);}
	.st53{clip-path:url(#SVGID_96_);}
	.st54{fill:url(#SVGID_97_);}
	.st55{clip-path:url(#SVGID_99_);}
	.st56{fill:#CC1626;}
	.st57{fill:#AD0E1D;}
	.st58{clip-path:url(#SVGID_101_);}
	.st59{clip-path:url(#SVGID_103_);}
	.st60{clip-path:url(#SVGID_105_);}
	.st61{clip-path:url(#SVGID_107_);}
	.st62{clip-path:url(#SVGID_109_);}
	.st63{clip-path:url(#SVGID_111_);}
	.st64{clip-path:url(#SVGID_113_);}
	.st65{clip-path:url(#SVGID_115_);}
	.st66{clip-path:url(#SVGID_117_);}
	.st67{fill:#CB1626;}
	.st68{clip-path:url(#SVGID_119_);}
	.st69{clip-path:url(#SVGID_121_);}
	.st70{clip-path:url(#SVGID_123_);}
	.st71{clip-path:url(#SVGID_125_);}
	.st72{clip-path:url(#SVGID_127_);}
	.st73{clip-path:url(#SVGID_129_);}
	.st74{clip-path:url(#SVGID_131_);}
	.st75{clip-path:url(#SVGID_133_);}
	.st76{clip-path:url(#SVGID_135_);}
	.st77{clip-path:url(#SVGID_137_);}
	.st78{clip-path:url(#SVGID_139_);}
	.st79{clip-path:url(#SVGID_141_);}
	.st80{clip-path:url(#SVGID_143_);}
	.st81{clip-path:url(#SVGID_145_);}
	.st82{clip-path:url(#SVGID_147_);}
	.st83{clip-path:url(#SVGID_149_);}
	.st84{clip-path:url(#SVGID_151_);}
	.st85{clip-path:url(#SVGID_153_);}
	.st86{clip-path:url(#SVGID_155_);}
	.st87{clip-path:url(#SVGID_157_);}
	.st88{clip-path:url(#SVGID_159_);}
	.st89{clip-path:url(#SVGID_161_);}
	.st90{clip-path:url(#SVGID_163_);}
</style>
<title>Grocery</title>
<path class="st0" d="M161.7,44.7c0.2-0.1,0.4-0.1,0.6-0.3l-0.8,0.4L161.7,44.7z"/>
<g>
	<defs>
		<path id="SVGID_1_" d="M161.7,44.7c0.2-0.1,0.4-0.1,0.6-0.3l-0.8,0.4L161.7,44.7z"/>
	</defs>
	<clipPath id="SVGID_2_">
		<use xlink:href="#SVGID_1_"  style="overflow:visible;"/>
	</clipPath>
	<g class="st1">
		<path class="st2" d="M162,44.6l0.1-0.1l0.1-0.1l0.1-0.1l-0.8,0.4l0.1-0.1l0,0h0.1L162,44.6L162,44.6"/>
	</g>
</g>
<path class="st0" d="M44.7,19c-0.4,0.2-0.5,0.3-0.9,0.5h-0.1L44.7,19z"/>
<g>
	<defs>
		<path id="SVGID_3_" d="M44.7,19c-0.4,0.2-0.5,0.3-0.9,0.5h-0.1L44.7,19z"/>
	</defs>
	<clipPath id="SVGID_4_">
		<use xlink:href="#SVGID_3_"  style="overflow:visible;"/>
	</clipPath>
	<g class="st3">
		<path class="st2" d="M44.7,19c-0.4,0.2-0.5,0.3-0.9,0.5h-0.1L44.7,19"/>
		<path class="st2" d="M44.7,19l-0.4,0.2l-0.2,0.1l-0.3,0.2l0,0c0.4-0.2,0.4-0.2,0.7-0.4l0,0L44.7,19"/>
	</g>
</g>
<path class="st0" d="M154.1,25.7c0.3,0,0.7,0,1-0.1l-1,0.3C154.1,25.7,154.1,25.7,154.1,25.7z"/>
<g>
	<defs>
		<path id="SVGID_5_" d="M154.1,25.7c0.3,0,0.7,0,1-0.1l-1,0.3C154.1,25.7,154.1,25.7,154.1,25.7z"/>
	</defs>
	<clipPath id="SVGID_6_">
		<use xlink:href="#SVGID_5_"  style="overflow:visible;"/>
	</clipPath>
	<g class="st4">
		<path class="st5" d="M154.1,25.7c0.3,0,0.7,0,1-0.1l-1,0.3C154.2,25.7,154.2,25.7,154.1,25.7"/>
		<path class="st5" d="M155.1,25.5L155.1,25.5"/>
		<path class="st5" d="M154.3,25.7h0.3h0.1h0.1h0.1h0.1l0,0l-0.4,0.1l-0.6,0.2c0.1-0.1,0.1-0.2,0.1-0.2L154.3,25.7"/>
		<path class="st2" d="M155,25.5L155,25.5"/>
		<path class="st2" d="M154.3,25.7h0.3h0.1h0.1l0,0c-0.2,0-0.5,0.1-0.7,0.1L154.3,25.7"/>
	</g>
</g>
<path class="st0" d="M64.8,44.3c-0.2,0.2-0.4,0.5-0.4,0.8l-0.1-0.9C64.5,44.4,64.7,44.4,64.8,44.3z"/>
<g>
	<defs>
		<path id="SVGID_7_" d="M64.8,44.3c-0.2,0.2-0.4,0.5-0.4,0.8l-0.1-0.9C64.5,44.4,64.7,44.4,64.8,44.3z"/>
	</defs>
	<clipPath id="SVGID_8_">
		<use xlink:href="#SVGID_7_"  style="overflow:visible;"/>
	</clipPath>
	<g class="st6">
		<path class="st2" d="M64.8,44.3c-0.2,0.2-0.4,0.5-0.4,0.8l-0.1-0.9C64.5,44.4,64.7,44.4,64.8,44.3"/>
		<path class="st2" d="M64.4,45.1L64.4,45.1L64.4,45.1"/>
		<path class="st2" d="M64.7,44.4L64.7,44.4L64.7,44.4"/>
		<path class="st5" d="M64.7,44.5c-0.1,0.1-0.2,0.3-0.3,0.5V45c0,0,0,0.1,0,0.1l0,0c0-0.2,0-0.2,0-0.3
			C64.5,44.7,64.6,44.5,64.7,44.5L64.7,44.5"/>
	</g>
</g>
<path class="st0" d="M43.8,19.4c0.5-0.3,0.9-0.4,1.5-0.8L43.8,19.4L43.8,19.4z"/>
<g>
	<defs>
		<path id="SVGID_9_" d="M43.8,19.4c0.5-0.3,0.9-0.4,1.5-0.8L43.8,19.4L43.8,19.4z"/>
	</defs>
	<clipPath id="SVGID_10_">
		<use xlink:href="#SVGID_9_"  style="overflow:visible;"/>
	</clipPath>
	<g class="st7">
		<path class="st5" d="M43.8,19.4c0.5-0.3,0.9-0.4,1.5-0.8L43.8,19.4L43.8,19.4"/>
		<path class="st5" d="M45.3,18.7L45.3,18.7L45.3,18.7L45.3,18.7"/>
		<path class="st5" d="M44.1,19.3l0.4-0.2l0.2-0.1l0.2-0.1l0,0h-0.1l-0.3,0.2l-0.8,0.4v-0.1l0,0L44.1,19.3"/>
		<path class="st2" d="M45.3,18.7L45.3,18.7"/>
		<path class="st2" d="M44.1,19.3l0.3-0.2l0,0l-0.6,0.3L44.1,19.3L44.1,19.3"/>
	</g>
</g>
<path class="st0" d="M64.4,45.4c0-0.3-0.1-0.6-0.2-1.1l0,0L64.4,45.4z"/>
<g>
	<defs>
		<path id="SVGID_11_" d="M64.4,45.4c0-0.3-0.1-0.6-0.2-1.1l0,0L64.4,45.4z"/>
	</defs>
	<clipPath id="SVGID_12_">
		<use xlink:href="#SVGID_11_"  style="overflow:visible;"/>
	</clipPath>
	<g class="st8">
		<path class="st9" d="M64.4,45.4c0-0.3-0.1-0.6-0.2-1.1l0,0L64.4,45.4"/>
		<path class="st9" d="M64.4,45.4L64.4,45.4L64.4,45.4L64.4,45.4"/>
		<path class="st9" d="M64.4,45.1v0.2V45.1L64.4,45.1V45v-0.1v-0.1v-0.1v-0.1v-0.1v-0.2l0,0l0.1,0.9"/>
		<polyline class="st5" points="64.4,45.4 64.4,45.4 64.4,45.4 64.4,45.4 		"/>
		<path class="st5" d="M64.3,44.7c0,0.2,0,0.4,0.1,0.4V45l0,0v-0.1v-0.1L64.3,44.7l0.1-0.1v-0.1v-0.2l0,0l0.1,0.4"/>
		<path class="st2" d="M64.3,44.4L64.3,44.4L64.3,44.4L64.3,44.4L64.3,44.4L64.3,44.4"/>
		<path class="st2" d="M64.3,44.8v0.1V44.8v-0.1l0,0C64.3,44.7,64.3,44.8,64.3,44.8"/>
	</g>
</g>
<path class="st0" d="M142.3,40.5c0.3-0.3,0.5-0.7,0.7-1.1c-0.1,0.2,0,0.3,0.1,0.4L142.3,40.5z"/>
<g>
	<defs>
		<path id="SVGID_13_" d="M142.3,40.5c0.3-0.3,0.5-0.7,0.7-1.1c-0.1,0.2,0,0.3,0.1,0.4L142.3,40.5z"/>
	</defs>
	<clipPath id="SVGID_14_">
		<use xlink:href="#SVGID_13_"  style="overflow:visible;"/>
	</clipPath>
	<g class="st10">
		<path class="st11" d="M142.3,40.5c0.3-0.3,0.5-0.7,0.7-1.1c-0.1,0.2,0,0.3,0.1,0.4L142.3,40.5"/>
		<path class="st11" d="M142.5,40.3L142.5,40.3l-0.2,0.2l0,0L142.5,40.3L142.5,40.3L142.5,40.3l0.1-0.1l0.1-0.1l0.1-0.1l0.1-0.1
			l0.1-0.1l0.1-0.1l0.1-0.1l0.1-0.1c-0.1,0.2,0,0.3,0.1,0.4L142.5,40.3"/>
		<path class="st9" d="M142.6,40.2c-0.1,0.1-0.2,0.1-0.2,0.2l-0.1,0.1l0,0l0.1-0.1l0.1-0.1L142.6,40.2L142.6,40.2l0-0.1l0.1-0.1
			l0.1-0.1l0.1-0.1l0.1-0.1l0.1-0.1l0.1-0.1c-0.1,0.2,0,0.3,0.1,0.4L142.6,40.2"/>
		<path class="st5" d="M142.3,40.5L142.3,40.5L142.3,40.5"/>
		<path class="st5" d="M142.8,40c-0.1,0-0.1,0.1-0.2,0.1c-0.1,0.1-0.2,0.2-0.3,0.3v-0.1l0,0l0.1-0.1l0.1-0.1l0.1-0.1l0.1-0.1
			l0.1-0.1l0.1-0.1l0.1-0.1l0.1-0.1l0.1-0.1l0.1-0.1c-0.1,0.2,0,0.3,0.1,0.4L142.8,40"/>
		<path class="st2" d="M142.5,40.3l0.1-0.2l0.1-0.1l0.1-0.1l0.1-0.1l0.1-0.1l0.1-0.1l0.1-0.1l0,0C142.9,39.7,142.7,40,142.5,40.3
			L142.5,40.3L142.5,40.3L142.5,40.3L142.5,40.3"/>
	</g>
</g>
<path class="st0" d="M95.4,30.3c-0.9,0.9-1.7,1.9-2.7,2.8L91.8,32c0.7,0.3,2.2-0.5,4.1-2.1C95.7,30.1,95.6,30.2,95.4,30.3z"/>
<g>
	<defs>
		<path id="SVGID_15_" d="M95.4,30.3c-0.9,0.9-1.7,1.9-2.7,2.8L91.8,32c0.7,0.3,2.2-0.5,4.1-2.1C95.7,30.1,95.6,30.2,95.4,30.3z"/>
	</defs>
	<clipPath id="SVGID_16_">
		<use xlink:href="#SVGID_15_"  style="overflow:visible;"/>
	</clipPath>
	<g class="st12">
		<path class="st2" d="M95.4,30.3l-0.3,0.3c-2.3,2.5-2.4,2.5-2.4,2.5L91.8,32c0.7,0.3,2.2-0.5,4.1-2.1
			C95.7,30.1,95.6,30.2,95.4,30.3"/>
		<path class="st2" d="M95.8,30l-0.3,0.3l0.5-0.4l0,0L95.8,30"/>
		<path class="st5" d="M95.2,30.5l-0.6,0.7l-0.7,0.7c-0.7,0.7-0.8,0.8-1.1,1.1l0,0c-0.2-0.1-0.4-0.4-0.2-0.6
			c0.1-0.1,0.2-0.2,0.3-0.3c0.2-0.2,0.4-0.3,0.7-0.4C94.2,31.3,94.7,30.9,95.2,30.5L95.2,30.5"/>
		<path class="st2" d="M92.2,32.2c0.1,0.3,0.3,0.7,0.6,0.9l0,0L91.8,32c0.1,0,0.2,0.1,0.3,0.1l0,0C92.2,32.1,92.2,32.1,92.2,32.2"/>
		<path class="st9" d="M93.7,31.9L93.7,31.9l-0.3,0.4c-0.1,0.1-0.2,0.3-0.3,0.4c-0.1,0.1-0.2,0.2-0.4,0.2s0,0,0,0
			c0.1-0.2,0.2-0.3,0.3-0.4l0.2-0.1l0.3-0.3C93.7,31.9,93.7,31.9,93.7,31.9L93.7,31.9"/>
	</g>
</g>
<path class="st0" d="M114.6,28.8c-0.9,0.8-1.7,1.7-2.6,2.5l-0.9-1.2c0.7,0.4,2.2-0.4,4-1.8C114.9,28.5,114.8,28.7,114.6,28.8z"/>
<g>
	<defs>
		<path id="SVGID_17_" d="M114.6,28.8c-0.9,0.8-1.7,1.7-2.6,2.5l-0.9-1.2c0.7,0.4,2.2-0.4,4-1.8C114.9,28.5,114.8,28.7,114.6,28.8z"
			/>
	</defs>
	<clipPath id="SVGID_18_">
		<use xlink:href="#SVGID_17_"  style="overflow:visible;"/>
	</clipPath>
	<g class="st13">
		<path class="st2" d="M114.6,28.8l-0.3,0.3c-2.2,2.2-2.3,2.3-2.3,2.3l-0.9-1.2c0.7,0.4,2.2-0.4,4-1.8
			C115,28.5,114.8,28.6,114.6,28.8"/>
		<path class="st2" d="M115,28.5l-0.4,0.3l0.5-0.4l0,0L115,28.5"/>
		<path class="st5" d="M114.5,28.9c-0.1,0.1-0.6,0.7-0.6,0.7l-0.7,0.7c-0.7,0.7-0.8,0.7-1,1l0,0c-0.2-0.1-0.4-0.4-0.2-0.6
			c0.1-0.1,0.2-0.2,0.3-0.3c0.2-0.1,0.4-0.3,0.6-0.4c0.4-0.3,0.4-0.3,1.7-1.2L114.5,28.9"/>
		<path class="st2" d="M111.5,30.4c0.1,0.3,0.3,0.7,0.5,0.9l0,0l-0.9-1.2c0.1,0,0.2,0.1,0.3,0.1L111.5,30.4L111.5,30.4"/>
		<path class="st9" d="M113.5,29.8l-0.3,0.2l-0.6,0.7c-0.4,0.4-0.5,0.4-0.5,0.4c0,0-0.1-0.1-0.1-0.2c0.1-0.1,0.2-0.2,0.3-0.3
			c0.1-0.1,0.2-0.2,0.3-0.2l0.7-0.6C113.4,29.7,113.5,29.7,113.5,29.8L113.5,29.8C113.6,29.7,113.5,29.7,113.5,29.8"/>
	</g>
</g>
<path class="st0" d="M49.3,70.4c-0.8,0.5-1.5,1-2.2,1.5l2.4-1.9C49.4,70.2,49.4,70.3,49.3,70.4z"/>
<g>
	<defs>
		<path id="SVGID_19_" d="M49.3,70.4c-0.8,0.5-1.5,1-2.2,1.5l2.4-1.9C49.4,70.2,49.4,70.3,49.3,70.4z"/>
	</defs>
	<clipPath id="SVGID_20_">
		<use xlink:href="#SVGID_19_"  style="overflow:visible;"/>
	</clipPath>
	<g class="st14">
		<path class="st2" d="M49.3,70.4c-0.8,0.5-1.5,1-2.2,1.5l2.4-1.9C49.4,70.2,49.3,70.3,49.3,70.4"/>
		<path class="st2" d="M49.1,70.6l-0.4,0.2l-0.2,0.1L48.3,71l-0.2,0.1l-0.2,0.1l-0.2,0.1l-0.2,0.1l-0.1,0.2l-0.2,0.1l-0.1,0.1
			L47.1,72l1.5-1.1l0.7-0.3L49.1,70.6"/>
	</g>
</g>
<path class="st0" d="M0.6,23.9c0.5-0.3,0.9-0.8,1.2-1.3c-0.3,0.4-0.2,1,0.2,1.3L0.6,23.9z"/>
<g>
	<defs>
		<path id="SVGID_21_" d="M0.6,23.9c0.5-0.3,0.9-0.8,1.2-1.3c-0.3,0.4-0.2,1,0.2,1.3L0.6,23.9z"/>
	</defs>
	<clipPath id="SVGID_22_">
		<use xlink:href="#SVGID_21_"  style="overflow:visible;"/>
	</clipPath>
	<g class="st15">
		<path class="st2" d="M0.6,23.9c0.5-0.3,0.9-0.8,1.2-1.3c-0.3,0.4-0.2,1,0.2,1.3L0.6,23.9"/>
		<path class="st2" d="M1,23.7l0.1-0.1l0.1-0.1l0.1-0.1l0.1-0.1l0.1-0.1l0.1-0.1l0.1-0.1L1.5,23l0.1-0.1l0.1-0.1l0.1-0.1l0.1-0.1
			l0,0l-0.1,0.2l0,0c-0.1,0.2-0.2,0.4-0.3,0.7c0,0.1-0.1,0.2-0.2,0.3c-0.1,0.1-0.2,0.1-0.3,0.2c-0.1,0-0.2,0-0.4,0.1l0.1-0.1L1,23.7
			"/>
	</g>
</g>
<path class="st0" d="M19.2,64.1c-0.1-0.5-0.4-0.9-0.7-1.3c0,0,0.1-0.1,0.3-0.5L19.2,64.1z"/>
<g>
	<defs>
		<path id="SVGID_23_" d="M19.2,64.1c-0.1-0.5-0.4-0.9-0.7-1.3c0,0,0.1-0.1,0.3-0.5L19.2,64.1z"/>
	</defs>
	<clipPath id="SVGID_24_">
		<use xlink:href="#SVGID_23_"  style="overflow:visible;"/>
	</clipPath>
	<g class="st16">
		<path class="st9" d="M19.2,64.1c-0.1-0.5-0.4-0.9-0.7-1.3c0,0,0.1-0.1,0.3-0.5L19.2,64.1"/>
		<path class="st9" d="M19.1,63.4c0,0.1,0,0.1,0.1,0.4l0.1,0.3l0,0V64V64v-0.1v-0.1v-0.1v-0.1v-0.1v-0.1l-0.1-0.1l0-0.1l-0.1-0.1
			L19,63.1L18.9,63L18.9,63l-0.1-0.1c0,0,0.1-0.1,0.3-0.5l0.3,1.1"/>
		<path class="st5" d="M19,63.6L19,63.6L19,63.6l0.1,0.1L19,63.6L19,63.6"/>
		<path class="st5" d="M19.2,64v-0.1v-0.1v-0.1l0,0c0.1,0.1,0.1,0.2,0.1,0.4V64"/>
		<path class="st5" d="M19.2,64.1L19.2,64.1L19.2,64.1"/>
		<path class="st5" d="M19,62.9l-0.2,0.3c0,0,0,0,0.2,0.4v-0.1l0,0l0-0.1l-0.1-0.1l-0.1-0.1l-0.1-0.1L18.7,63l-0.1-0.1
			c0,0,0.1-0.1,0.3-0.5L19,62.9"/>
		<path class="st2" d="M18.6,63L18.6,63L18.6,63l-0.1-0.1l0,0L18.6,63"/>
		<path class="st2" d="M18.8,63.2l-0.1-0.1l0,0L18.8,63.2"/>
		<path class="st2" d="M18.9,63.4L18.9,63.4L18.9,63.4L18.9,63.4L18.9,63.4"/>
		<polyline class="st2" points="19.2,64.1 19.2,64.1 19.2,64.1 19.2,64.1 		"/>
	</g>
</g>
<path class="st0" d="M150.5,23.9l-0.6-1.8l6,3.2l-1.9,0.5L150.5,23.9z"/>
<g>
	<defs>
		<polygon id="SVGID_25_" points="150.5,23.9 149.9,22.1 155.9,25.3 154,25.8 		"/>
	</defs>
	<clipPath id="SVGID_26_">
		<use xlink:href="#SVGID_25_"  style="overflow:visible;"/>
	</clipPath>
	<g class="st17">
		<path class="st5" d="M154.1,25.8l-3.6-1.9l-0.3-0.8l4.6,2.4L154.1,25.8"/>
		<path class="st9" d="M154.9,25.6l-4.6-2.4l-0.3-0.9l5.8,3.1L154.9,25.6"/>
		<path class="st5" d="M155.8,25.3l-5.8-3.1l-0.1-0.2l6,3.2L155.8,25.3"/>
	</g>
</g>
<path class="st18" d="M149.9,22.1l6,3.2L149.9,22.1z"/>
<path class="st0" d="M161.2,47.8C100.9,49,52.8,70.5,46.6,72.2C52.8,70.5,100.9,49,161.2,47.8z"/>
<g>
	<defs>
		<path id="SVGID_27_" d="M161.2,47.8C100.9,49,52.8,70.5,46.6,72.2C52.8,70.5,100.9,49,161.2,47.8z"/>
	</defs>
	<clipPath id="SVGID_28_">
		<use xlink:href="#SVGID_27_"  style="overflow:visible;"/>
	</clipPath>
	<g class="st19">
		<path class="st2" d="M161.2,47.8C100.9,49,52.8,70.5,46.6,72.2C52.8,70.5,100.9,49,161.2,47.8"/>
	</g>
</g>
<path class="st0" d="M112.2,31.6c-0.3,0,15.4-16.3,13.8-21.9C127.6,15.2,111.9,31.6,112.2,31.6z"/>
<g>
	<defs>
		<path id="SVGID_29_" d="M112.2,31.6c-0.3,0,15.4-16.3,13.8-21.9C127.6,15.2,111.9,31.6,112.2,31.6z"/>
	</defs>
	<clipPath id="SVGID_30_">
		<use xlink:href="#SVGID_29_"  style="overflow:visible;"/>
	</clipPath>
	<g class="st20">
		<path class="st2" d="M112.2,31.6C112.2,31.6,112.2,31.6,112.2,31.6C112.2,31.4,112.2,31.6,112.2,31.6"/>
		<path class="st5" d="M112.2,31.5L112.2,31.5c0.7-1,13.9-15,13.9-20.9l0,0C126.1,16.6,112.9,30.5,112.2,31.5"/>
		<path class="st2" d="M126.1,10.6L126.1,10.6c0-0.3,0-0.6-0.1-0.9C126.1,10,126.1,10.3,126.1,10.6"/>
	</g>
</g>
<path class="st0" d="M85,36.9L85,36.9c0-10.2,7.2-32.8,23.9-35.7C92.2,4.1,85,26.8,85,36.9z"/>
<g>
	<defs>
		<path id="SVGID_31_" d="M85,36.9L85,36.9c0-10.2,7.2-32.8,23.9-35.7C92.2,4.1,85,26.8,85,36.9z"/>
	</defs>
	<clipPath id="SVGID_32_">
		<use xlink:href="#SVGID_31_"  style="overflow:visible;"/>
	</clipPath>
	<g class="st21">
		<path class="st5" d="M85,36.9L85,36.9c0-10.2,7.2-32.8,23.9-35.7C92.2,4.1,85,26.8,85,36.9"/>
	</g>
</g>
<path class="st0" d="M107.4,10.7L107.4,10.7c0,6.4-14.7,22.6-14.4,22.6C92.6,33.3,107.4,17.1,107.4,10.7z"/>
<g>
	<defs>
		<path id="SVGID_33_" d="M107.4,10.7L107.4,10.7c0,6.4-14.7,22.6-14.4,22.6C92.6,33.3,107.4,17.1,107.4,10.7z"/>
	</defs>
	<clipPath id="SVGID_34_">
		<use xlink:href="#SVGID_33_"  style="overflow:visible;"/>
	</clipPath>
	<g class="st22">
		<path class="st2" d="M92.9,33.3C92.9,33.3,92.9,33.3,92.9,33.3C92.9,33.2,92.9,33.3,92.9,33.3"/>
		<path class="st5" d="M93,33.3L93,33.3c0.8-1.1,14.4-16.4,14.4-22.6l0,0C107.4,16.8,93.7,32.1,93,33.3"/>
	</g>
</g>
<path class="st0" d="M119.1,36.3L119.1,36.3c0-15.6,19.4-19.5,20.6-6.7C138.6,16.8,119.1,20.7,119.1,36.3z"/>
<g>
	<defs>
		<path id="SVGID_35_" d="M119.1,36.3L119.1,36.3c0-15.6,19.4-19.5,20.6-6.7C138.6,16.8,119.1,20.7,119.1,36.3z"/>
	</defs>
	<clipPath id="SVGID_36_">
		<use xlink:href="#SVGID_35_"  style="overflow:visible;"/>
	</clipPath>
	<g class="st23">
		<path class="st5" d="M119.1,36.3L119.1,36.3c0-11.6,10.7-16.7,16.7-13.4l0,0C129.8,19.6,119.1,24.7,119.1,36.3"/>
		<path class="st2" d="M135.9,22.9L135.9,22.9c2.4,1.4,3.8,3.9,3.9,6.6C139.7,26.8,138.2,24.3,135.9,22.9"/>
	</g>
</g>
<path class="st0" d="M169.1,33.4L169.1,33.4c-2.1,0-4.3,3.1-2.4,5.3C164.8,36.5,167,33.4,169.1,33.4z"/>
<g>
	<defs>
		<path id="SVGID_37_" d="M169.1,33.4L169.1,33.4c-2.1,0-4.3,3.1-2.4,5.3C164.8,36.5,167,33.4,169.1,33.4z"/>
	</defs>
	<clipPath id="SVGID_38_">
		<use xlink:href="#SVGID_37_"  style="overflow:visible;"/>
	</clipPath>
	<g class="st24">
		<path class="st2" d="M166.7,38.8c-0.5-0.5-0.7-1.2-0.7-1.9C166,37.6,166.3,38.2,166.7,38.8"/>
		<path class="st5" d="M166,36.9L166,36.9c0-1.8,1.4-3.3,3.1-3.4l0,0C167.4,33.6,166,35.1,166,36.9"/>
	</g>
</g>
<path class="st0" d="M20.2,51.6l6.9-7.2c0.5-0.4,10.2-8.1,14.2-4.8c3.7,3.1,3,7.3,7.6,6.8c2.7-0.3,6.2-5.1,10.3-10.6
	c2.7-3.6,9.5-14.4,0.7-22.6l0.9-1c9.7,9,2.3,20.7-0.5,24.4c-4.2,5.5-7.8,10.7-11.3,11.1c-6.1,0.5-5.2-4.3-8.6-7.1
	C37.6,37.9,28.4,45,20.2,51.6z"/>
<g>
	<defs>
		<path id="SVGID_39_" d="M20.2,51.6l6.9-7.2c0.5-0.4,10.2-8.1,14.2-4.8c3.7,3.1,3,7.3,7.6,6.8c2.7-0.3,6.2-5.1,10.3-10.6
			c2.7-3.6,9.5-14.4,0.7-22.6l0.9-1c9.7,9,2.3,20.7-0.5,24.4c-4.2,5.5-7.8,10.7-11.3,11.1c-6.1,0.5-5.2-4.3-8.6-7.1
			C37.6,37.9,28.4,45,20.2,51.6z"/>
	</defs>
	<clipPath id="SVGID_40_">
		<use xlink:href="#SVGID_39_"  style="overflow:visible;"/>
	</clipPath>
	<g class="st25">
		<path class="st9" d="M20.2,51.6l6.9-7.2c0.5-0.4,10.2-8.1,14.2-4.8c3.7,3.1,3,7.3,7.6,6.8c2.7-0.3,6.2-5.1,10.3-10.6
			c2.7-3.6,9.5-14.4,0.7-22.6l0.9-1c9.7,9,2.3,20.7-0.5,24.4c-4.2,5.5-7.8,10.7-11.3,11.1c-6.1,0.5-5.2-4.3-8.6-7.1
			C37.6,37.9,28.4,45,20.2,51.6"/>
		<path class="st9" d="M60.8,12.1c9.7,9,2.3,20.7-0.5,24.4c-4.2,5.5-7.8,10.7-11.3,11.1c-6.1,0.5-5.2-4.3-8.6-7.1
			c-2.9-2.6-12.1,4.4-20.3,11l3.8-4l0,0c9.4-7.7,13-8.2,16.2-8.1c-0.4-0.6-4.4-2.1-14.7,6.6l1.7-1.7c0.5-0.4,10.2-8.1,14.2-4.8
			c3.7,3.1,3,7.3,7.6,6.8c2.7-0.3,6.2-5.1,10.3-10.6c2.7-3.6,9.5-14.4,0.7-22.6L60.8,12.1"/>
		<path class="st5" d="M60.8,12.1c9.7,9,2.3,20.7-0.5,24.4c-4.2,5.5-7.8,10.7-11.3,11.1c-6.1,0.5-5.2-4.3-8.6-7.1
			c-2.9-2.6-12.1,4.4-20.3,11l1.9-2l0,0c5.6-4.5,14-11.3,18.5-9.7c0.2,0.1,0.4,0.3,0.6,0.1s-0.3-1.4-2.7-1.3
			c-4.5,0.3-10.6,5.1-11.3,5.6c0.5-0.4,10.2-8.1,14.3-4.8c3.7,3.1,3,7.3,7.6,6.8c2.7-0.3,6.2-5.1,10.3-10.6
			c2.7-3.6,9.5-14.4,0.7-22.6L60.8,12.1"/>
		<path class="st5" d="M62.7,15.6c1.3,1.1,7.3,7.6-4.5,23.2l-0.7,0.9c-1.7,2.1-4.4,5.8-6.6,6.9c-3,1.6-5.3-0.2-5.2-0.5
			c0-0.1,0.1-0.1,0.1-0.1c0.3,0,0.6,0.1,0.9,0.1c2.7,0.8,4.1-0.4,5.4-1.6c3.6-3.9,6.9-8.1,9.7-12.7c4.5-8.2,2-13.6,0.8-16.2
			C62.6,15.7,62.7,15.6,62.7,15.6"/>
		<path class="st9" d="M63.9,17.9c0.6,0.7,2.8,6.1-1.3,13.7c-0.1,0.2-9.3,15.8-14.4,15.4c-1.3-0.1-1.6-0.5-1.6-0.5s0-0.1,0.7,0
			c4.7,0.6,10-6.6,13.7-12.7c4.4-7.4,3.7-11.6,2.8-16C63.8,17.8,63.8,17.8,63.9,17.9"/>
		<path class="st2" d="M46,45.7c-2.2-1.8-2.6-5-5.2-6.5c0.2,0.1,0.4,0.2,0.5,0.4c2.8,2.4,3.1,5.3,5,6.4l0,0
			C46.2,45.9,46.1,45.8,46,45.7"/>
		<path class="st11" d="M39.2,39.2c-0.7,0.1-1.5,0.1-2.2,0.3c-0.8,0.2-1.5,0.4-2.2,0.7l-1,0.4c0,0,0,0,0-0.1c1-0.6,2.1-1,3.3-1.3
			c0.8-0.3,1.6-0.3,2.4-0.1c0,0,0,0,0,0.1C39.4,39.2,39.3,39.2,39.2,39.2"/>
		<path class="st11" d="M64.6,20.3c0.6,2.9,0.2,6-1.1,8.7c0.5-1.5,0.8-3.1,1-4.8c0.1-0.5,0.1-1.1,0.1-1.6c0-0.9-0.2-1.8-0.2-2.7
			C64.4,20.1,64.5,20.2,64.6,20.3"/>
		<path class="st11" d="M50.1,46.5c-0.8,0.5-1.9,0.6-2.8,0.2c0,0,0,0,0-0.1s0.1,0,0.1,0c0.6-0.1,1.1,0,1.7-0.1
			c0.3,0,0.5-0.1,0.8-0.2l0.3-0.1h0.1C50.3,46.3,50.2,46.4,50.1,46.5"/>
		<path class="st2" d="M60.1,13c2.1,2.3,4.3,5.3,4.3,9.7c0-3.7-1.6-7.1-4.4-9.5L60.1,13"/>
	</g>
</g>
<path class="st0" d="M141.2,36.5l-1.3-0.4l2.5-3.6l4-3.5L141.2,36.5z"/>
<g>
	<defs>
		<polygon id="SVGID_41_" points="141.2,36.5 139.9,36.1 142.4,32.5 146.4,29 		"/>
	</defs>
	<clipPath id="SVGID_42_">
		<use xlink:href="#SVGID_41_"  style="overflow:visible;"/>
	</clipPath>
	<g class="st26">
		<path class="st5" d="M146.4,29l-5.2,7.5l-0.4-0.1l4.4-6.4L146.4,29"/>
		<path class="st9" d="M145.3,30l-4.4,6.4l-0.4-0.1l3.6-5.2L145.3,30"/>
		<path class="st11" d="M144.1,31.1l-3.6,5.2l-0.2-0.1l3.2-4.6L144.1,31.1"/>
		<path class="st9" d="M143.4,31.7l-3.2,4.6l-0.3-0.1l2.6-3.7L143.4,31.7"/>
		<path class="st5" d="M142.5,32.5l-2.5,3.6l0,0L142.5,32.5L142.5,32.5"/>
	</g>
</g>
<path class="st0" d="M143.1,39.7l-0.9,0.9c-0.5-0.6-3-2.1-2.2-4.6l1.3,0.4C140.7,37.9,142.5,39.1,143.1,39.7z"/>
<g>
	<defs>
		<path id="SVGID_43_" d="M143.1,39.7l-0.9,0.9c-0.5-0.6-3-2.1-2.2-4.6l1.3,0.4C140.7,37.9,142.5,39.1,143.1,39.7z"/>
	</defs>
	<clipPath id="SVGID_44_">
		<use xlink:href="#SVGID_43_"  style="overflow:visible;"/>
	</clipPath>
	<g class="st27">
		<path class="st11" d="M143.1,39.7l-0.9,0.9c-0.5-0.6-3-2.1-2.2-4.6l1.3,0.4C140.7,37.9,142.5,39.1,143.1,39.7"/>
		<path class="st11" d="M140.2,36.2c-0.4,1,0,1.4,0,1.4s0,0,0.1-1.4l0.8,0.3c-0.5,1.4,1.3,2.6,1.9,3.2l-0.9,0.9
			c-0.5-0.6-3-2.1-2.2-4.6L140.2,36.2"/>
		<path class="st9" d="M140.1,36.2c-0.4,1.3,0.2,1.9,0.3,1.9s0.1-0.1,0.1-0.5c0-0.4,0-0.8,0.1-1.2l0.7,0.2c-0.5,1.4,1.3,2.5,1.9,3.2
			l-0.9,0.9c-0.5-0.6-3-2.1-2.2-4.6L140.1,36.2"/>
		<path class="st5" d="M139.9,36.1c-0.4,1.6,0.7,2.5,0.8,2.4s0-0.3,0-0.4c-0.1-0.6-0.1-1.2,0.1-1.7l0.4,0.1
			c-0.5,1.4,1.3,2.6,1.9,3.2l-0.9,0.9C141.6,40.1,139.2,38.6,139.9,36.1L139.9,36.1"/>
		<path class="st2" d="M139.8,37.2c0.1,0.8,0.4,1.6,1.1,2.1c0.4,0.3,0.8,0.5,1.1,0.9c0.1,0.1,0.1,0.1,0.2,0.5l0,0
			c-0.4-0.5-2.4-1.7-2.4-3.6l0,0C139.8,37,139.8,37.1,139.8,37.2"/>
	</g>
</g>
<path class="st0" d="M7,11.7l-1.3-0.5c3-3.5,19-9.7,34.7-10.6s31,3.6,32.8,21.5c0.5,5.3-1.5,10.6-5.4,16c-1.8,2.6,5.7-1.7,9.4-8.8
	l0.6,1.7c-3.4,6.5-13.2,11.1-11.1,6.4c3.7-5.2,5.6-10.3,5.1-15.1C70.2,5.4,55.7,1.1,40.5,1.9C25.1,2.8,9.4,8.9,7,11.7z"/>
<g>
	<defs>
		<path id="SVGID_45_" d="M7,11.7l-1.3-0.5c3-3.5,19-9.7,34.7-10.6s31,3.6,32.8,21.5c0.5,5.3-1.5,10.6-5.4,16
			c-1.8,2.6,5.7-1.7,9.4-8.8l0.6,1.7c-3.4,6.5-13.2,11.1-11.1,6.4c3.7-5.2,5.6-10.3,5.1-15.1C70.2,5.4,55.7,1.1,40.5,1.9
			C25.1,2.8,9.4,8.9,7,11.7z"/>
	</defs>
	<clipPath id="SVGID_46_">
		<use xlink:href="#SVGID_45_"  style="overflow:visible;"/>
	</clipPath>
	<g class="st28">
		<path class="st9" d="M7,11.7l-1.3-0.5c3-3.5,19-9.7,34.7-10.6s31,3.6,32.8,21.5c0.5,5.3-1.5,10.6-5.4,16c-1.8,2.6,5.7-1.7,9.4-8.8
			l0.6,1.7c-3.4,6.5-13.2,11.1-11.1,6.4c3.7-5.2,5.6-10.3,5.1-15.1C70.2,5.4,55.7,1.1,40.5,1.9C25.1,2.8,9.4,8.9,7,11.7"/>
		<path class="st9" d="M77.3,29.7c-4.5,8.4-9.9,9.4-9.9,9.4c3,0.4,8.2-5.7,10.1-9l0.3,0.9c-3.4,6.5-13.2,11.1-11.1,6.4
			c3.7-5.2,5.6-10.3,5.1-15.1C70.2,5.4,55.7,1.1,40.5,1.9C25.1,2.8,9.4,8.9,7,11.7l-0.8-0.3l0,0c2.8-2.2,27.5-14.9,52.6-8
			C45.6-4.1,10.9,5,6.1,11.3l-0.4-0.2c3-3.5,19-9.7,34.7-10.6s31,3.6,32.8,21.5c0.5,5.3-1.5,10.6-5.4,16c-1.8,2.6,5.7-1.7,9.4-8.8
			L77.3,29.7"/>
		<path class="st5" d="M77.2,29.4c-3.4,6.1-8.3,9.7-10.2,9.6c0.1,0.1,0.2,0.2,0.3,0.3c1.3,0.6,7.3-2.9,10.4-8.7l0.2,0.5
			c-3.4,6.5-13.2,11.1-11.1,6.4c3.7-5.2,5.6-10.3,5.1-15.1C70.2,5.4,55.7,1.1,40.5,1.9C25.1,2.8,9.4,8.9,7,11.7l-0.3-0.1l0,0
			c0.2-0.2,28.9-18.8,57.7-5.1C62.1,2.5,44.4-3.8,17.8,5.1c-0.8,0.3-1.5,0.5-2.2,0.8c-2.1,0.8-7.8,3-9.9,5.3c3-3.5,19-9.7,34.7-10.6
			s31,3.6,32.8,21.5c0.5,5.3-1.5,10.6-5.4,16C66,40.7,73.5,36.4,77.2,29.4L77.2,29.4"/>
		<path class="st2" d="M67.6,38.9c-0.6-0.2-0.9-0.3-0.7-0.9c0.8-2,2.3-3.5,3.2-5.4c1.2-2.4,2-5,2.3-7.6c0.3-3.3,0.6-14.4-10.2-20.5
			c5.9,3.3,10,8.8,10.9,17.6c0.5,5.3-1.5,10.6-5.4,16C67.5,38.5,67.4,38.8,67.6,38.9L67.6,38.9"/>
		<path class="st11" d="M52.3,1.7C35.2,0.5,28,2.1,10.4,8.6c9-4.8,28.6-9.9,42.3-6.9H52.3"/>
		<path class="st11" d="M68.9,38.8c-0.4,0.2-0.9,0.4-1.4,0.4c0.6-0.1,1.2-0.3,1.7-0.5L68.9,38.8"/>
	</g>
</g>
<path class="st0" d="M77.8,31l-0.6-1.7l7.9,2.8L83.4,33L77.8,31z"/>
<g>
	<defs>
		<polygon id="SVGID_47_" points="77.8,31 77.2,29.3 85.1,32.2 83.4,33 		"/>
	</defs>
	<clipPath id="SVGID_48_">
		<use xlink:href="#SVGID_47_"  style="overflow:visible;"/>
	</clipPath>
	<g class="st29">
		<path class="st5" d="M83.4,33l-5.6-2l-0.2-0.6l6.4,2.3L83.4,33"/>
		<path class="st9" d="M84,32.7l-6.4-2.3l-0.2-0.4l7,2.5L84,32.7"/>
		<path class="st11" d="M84.4,32.5l-7-2.5l-0.1-0.2l7.3,2.6L84.4,32.5"/>
		<path class="st9" d="M84.7,32.4l-7.3-2.6l-0.2-0.4l7.8,2.8L84.7,32.4"/>
		<path class="st5" d="M85.1,32.2l-7.8-2.8l0,0L85.1,32.2L85.1,32.2"/>
	</g>
</g>
<path class="st0" d="M83.4,33l1.7-0.8c-0.6,1.7-7.8,7.8-7,11.2c0.3,1.5,5-2.5,7.1-4.4l1.4,0.5c-2.7,2.4-8.2,7.3-9.8,4.2
	C75.9,39.3,83.4,33,83.4,33z"/>
<g>
	<defs>
		<path id="SVGID_49_" d="M83.4,33l1.7-0.8c-0.6,1.7-7.8,7.8-7,11.2c0.3,1.5,5-2.5,7.1-4.4l1.4,0.5c-2.7,2.4-8.2,7.3-9.8,4.2
			C75.9,39.3,83.4,33,83.4,33z"/>
	</defs>
	<clipPath id="SVGID_50_">
		<use xlink:href="#SVGID_49_"  style="overflow:visible;"/>
	</clipPath>
	<g class="st30">
		<path class="st9" d="M83.4,33l1.7-0.8c-0.6,1.7-7.8,7.8-7,11.2c0.3,1.5,5-2.5,7.1-4.4l1.4,0.5c-2.7,2.4-8.2,7.3-9.8,4.2
			C75.9,39.3,83.5,33,83.4,33"/>
		<path class="st9" d="M85.5,39c-5.3,4.8-6.6,4.8-7.3,4.9c-0.1,0-0.2,0-0.2,0.1c0,0,0,0.1,0,0.1c0.1,0.2,0.9,0.4,2.5-0.6
			c1.9-1.3,3.6-2.8,5.3-4.4l0.8,0.3c-2.7,2.4-8.2,7.3-9.8,4.2C75.9,39.3,83.4,33,83.4,33l1.7-0.8c-0.6,1.7-7.8,7.8-7,11.1
			c0.3,1.5,5-2.5,7.1-4.4L85.5,39"/>
		<path class="st5" d="M85.2,38.9c-4.8,4.3-6.2,4.8-6.8,4.8c-0.9,0-0.9,0.7,0,0.7c1.8,0.1,5.1-2.7,7.8-5.1l0.4,0.1
			c-2.7,2.4-8.2,7.3-9.8,4.2C75.9,39.3,83.4,33,83.4,33l1.7-0.8c-0.6,1.7-7.8,7.8-7,11.1C78.4,44.9,83.1,40.8,85.2,38.9L85.2,38.9"
			/>
		<path class="st2" d="M78.3,43.6c-0.9-0.5-0.9-0.5-1-1.2c0-0.8,0.3-1.6,0.7-2.4c1.6-2.8,3.7-5.2,6.1-7.4l1.1-0.5
			c-0.6,1.7-7.8,7.8-7,11.1C78.1,43.4,78.2,43.5,78.3,43.6L78.3,43.6"/>
		<path class="st11" d="M79.8,43.7c-0.8,0.5-1.6,0.5-1.5,0.3s0.1,0,0.1-0.1c0.2-0.1,0.4-0.1,0.6-0.1s0.4-0.1,0.6-0.2
			s0.2-0.1,0.3-0.1l0,0C79.9,43.6,79.8,43.7,79.8,43.7"/>
	</g>
</g>
<path class="st0" d="M86.6,39.4l-1.4-0.5C84,30.2,91,4.3,108.9,1.2l0.2,1.3C92.2,5.4,85.4,30.4,86.6,39.4z"/>
<g>
	<defs>
		<path id="SVGID_51_" d="M86.6,39.4l-1.4-0.5C84,30.2,91,4.3,108.9,1.2l0.2,1.3C92.2,5.4,85.4,30.4,86.6,39.4z"/>
	</defs>
	<clipPath id="SVGID_52_">
		<use xlink:href="#SVGID_51_"  style="overflow:visible;"/>
	</clipPath>
	<g class="st31">
		<path class="st11" d="M86.6,39.4l-1.4-0.5C84,30.2,91,4.3,108.9,1.2l0.2,1.3C92.1,5.4,85.4,30.4,86.6,39.4"/>
		<path class="st11" d="M109,1.5c-0.3,0.4-1,0.2-1.5,0.3c-1.4,0.4-2.8,0.9-4.1,1.6c1.9-0.3,3.7-1.3,5.6-1.6l0.1,0.7
			c-17,2.8-23.7,27.9-22.6,36.9l-0.9-0.3l0,0c-0.6-6.5,1.7-13.4,2.9-17.1c-1.2,2.4-4,11.3-3.1,17l-0.3-0.1
			C84.1,30.2,91,4.3,108.9,1.2L109,1.5"/>
		<path class="st9" d="M108.9,1.4c-0.3,0.4-1.1,0.3-1.6,0.3c-7.8,1.7-13.6,10.1-15.2,12.7c-4.6,7.3-7.5,17.8-6.7,24.5l-0.2-0.1
			C84.1,30.1,91,4.3,108.9,1.2L108.9,1.4"/>
		<path class="st9" d="M109.1,2.6c-17,2.8-23.7,27.9-22.6,36.9l-0.7-0.3l0,0C85.5,35,87.8,6.5,109,2L109.1,2.6"/>
		<path class="st5" d="M109.1,2.6c-17,2.8-23.7,27.9-22.6,36.9l-0.5-0.2l0,0c-0.6-6.7,3.5-32.8,23-37L109.1,2.6"/>
		<path class="st5" d="M108.9,1.2C89.6,5.4,84.3,31.6,85.3,39C84.1,30.1,91,4.3,108.9,1.2L108.9,1.2"/>
		<path class="st2" d="M85.1,38l0.1,0.9c-0.1-0.6-0.1-1.2-0.1-1.8C85,37.4,85,37.7,85.1,38"/>
	</g>
</g>
<path class="st0" d="M109.1,2.6l-0.2-1.3c4.2-0.6,5.3,1.6,5.7,3.2l-1.3,0.3C113,3.6,112.3,2.2,109.1,2.6z"/>
<g>
	<defs>
		<path id="SVGID_53_" d="M109.1,2.6l-0.2-1.3c4.2-0.6,5.3,1.6,5.7,3.2l-1.3,0.3C113,3.6,112.3,2.2,109.1,2.6z"/>
	</defs>
	<clipPath id="SVGID_54_">
		<use xlink:href="#SVGID_53_"  style="overflow:visible;"/>
	</clipPath>
	<g class="st32">
		<path class="st11" d="M109.1,2.6l-0.2-1.3c4.2-0.6,5.3,1.6,5.7,3.2l-1.3,0.3C113,3.6,112.3,2.2,109.1,2.6"/>
		<path class="st11" d="M113.3,4.8c-0.3-1.2-1-2.6-4.2-2.2L109,1.8l0,0c0.5-0.1,1-0.1,1.6-0.1c0.2,0,0.5,0,0.7,0l0,0
			c0,0-0.4-0.4-2.3-0.1V1.3c4.2-0.6,5.3,1.6,5.7,3.2L113.3,4.8"/>
		<path class="st9" d="M113.3,4.8c-0.3-1.2-1-2.6-4.2-2.2l-0.1-0.6l0,0c0.8-0.1,1.6-0.1,2.4,0c0.4,0,0.8,0.1,0.6-0.1
			s-0.9-0.6-3.1-0.3V1.3c4.2-0.6,5.3,1.6,5.7,3.2L113.3,4.8"/>
		<path class="st5" d="M113.3,4.8c-0.3-1.2-1-2.6-4.2-2.2l-0.1-0.4l0,0c1-0.2,2-0.1,3,0.1c0.2,0.1,0.4,0.1,0.7,0.1
			c0.4-0.1-0.1-0.7-0.2-0.7c-0.4-0.3-1.3-0.7-3.6-0.4c4.2-0.6,5.3,1.6,5.7,3.2L113.3,4.8"/>
		<path class="st2" d="M114.2,4.5c-0.1-1.4-0.1-2.1-1.4-2.8c1,0.6,1.7,1.6,1.9,2.7L114.2,4.5"/>
	</g>
</g>
<path class="st0" d="M113.3,4.8l1.3-0.3c0.7,3.2-1.7,8.7-1.5,8.5l1.1,0.7C111.9,14.7,114,7.4,113.3,4.8z"/>
<g>
	<defs>
		<path id="SVGID_55_" d="M113.3,4.8l1.3-0.3c0.7,3.2-1.7,8.7-1.5,8.5l1.1,0.7C111.9,14.7,114,7.4,113.3,4.8z"/>
	</defs>
	<clipPath id="SVGID_56_">
		<use xlink:href="#SVGID_55_"  style="overflow:visible;"/>
	</clipPath>
	<g class="st33">
		<path class="st9" d="M113.3,4.8l1.3-0.3c0.7,3.2-1.7,8.7-1.5,8.5l1.1,0.7C111.9,14.7,113.9,7.4,113.3,4.8"/>
		<path class="st9" d="M113.3,13.1c0.1,0.1,0,0.3,0.2,0.4s0.1-0.1,0.1-0.1l0.5,0.3c-2.3,1-0.3-6.3-0.9-8.9l1.3-0.3
			c0.7,3.2-1.7,8.7-1.5,8.5L113.3,13.1"/>
		<path class="st5" d="M113.1,13c0.2,0.2,0.2,0.5,0.5,0.6s0.3,0,0.4-0.1l0.3,0.2c-2.3,1-0.3-6.3-0.9-8.9l1.3-0.3
			C115.3,7.6,113,13.2,113.1,13L113.1,13"/>
		<path class="st2" d="M113.1,13c0,0.2,0.2,0.2,0.3,0.4c-0.4-0.3,0-2.6,0.2-3.9c0.3-1.6,0.5-3.2,0.6-4.8l0.5-0.1
			C115.3,7.6,113,13.1,113.1,13L113.1,13"/>
		<path class="st11" d="M113.5,13.3C113.5,13.3,113.5,13.4,113.5,13.3c-0.1,0.1-0.1,0-0.1,0C113.4,13.3,113.4,13.3,113.5,13.3"/>
	</g>
</g>
<path class="st0" d="M114.2,13.7l-1.1-0.7c3.2-4.3,6.2-9.1,12.4-11.3l0.4,1.3C120.2,4.9,117.4,9.5,114.2,13.7z"/>
<g>
	<defs>
		<path id="SVGID_57_" d="M114.2,13.7l-1.1-0.7c3.2-4.3,6.2-9.1,12.4-11.3l0.4,1.3C120.2,4.9,117.4,9.5,114.2,13.7z"/>
	</defs>
	<clipPath id="SVGID_58_">
		<use xlink:href="#SVGID_57_"  style="overflow:visible;"/>
	</clipPath>
	<g class="st34">
		<path class="st11" d="M114.2,13.7l-1.1-0.7c3.2-4.3,6.2-9.1,12.4-11.3l0.4,1.3C120.2,4.9,117.4,9.5,114.2,13.7"/>
		<path class="st11" d="M125.6,2c-0.7,0.2-1.4,0.6-2.1,1c0.7-0.2,1.5-0.4,2.1-0.8l0.3,0.7c-5.7,2-8.6,6.6-11.7,10.8l-1.1-0.7
			c3.2-4.3,6.2-9.1,12.4-11.3L125.6,2"/>
		<path class="st9" d="M125.5,1.9c-4.3,1.6-6.5,3.7-12.1,11.3l-0.3-0.2c3.3-4.3,6.3-9.1,12.4-11.3V1.9"/>
		<path class="st9" d="M125.9,3c-5.7,2-8.6,6.6-11.7,10.8l-0.7-0.4l0.3-0.4c4.4-5.9,6.4-8.5,11.9-10.5L125.9,3"/>
		<path class="st5" d="M125.9,3c-5.7,2-8.6,6.6-11.7,10.8l-0.3-0.2l0,0c4.5-6,6.3-8.4,10.9-10.5l0.5-0.2l0.5-0.2L125.9,3"/>
		<path class="st5" d="M125.5,1.7c-5.4,2-7.4,4.7-12.4,11.3C116.3,8.7,119.3,3.8,125.5,1.7L125.5,1.7"/>
	</g>
</g>
<path class="st0" d="M125.9,3l-0.4-1.3c1.9-0.7,4-0.9,5.4,0.5L130,3.1C129.1,2.3,127.6,2.4,125.9,3z"/>
<g>
	<defs>
		<path id="SVGID_59_" d="M125.9,3l-0.4-1.3c1.9-0.7,4-0.9,5.4,0.5L130,3.1C129.1,2.3,127.6,2.4,125.9,3z"/>
	</defs>
	<clipPath id="SVGID_60_">
		<use xlink:href="#SVGID_59_"  style="overflow:visible;"/>
	</clipPath>
	<g class="st35">
		<path class="st11" d="M125.9,3l-0.4-1.3c1.9-0.7,4-0.9,5.4,0.5L130,3.1C129.1,2.3,127.6,2.3,125.9,3"/>
		<path class="st11" d="M129.9,3.2c-0.9-0.9-2.4-0.8-4-0.2l-0.3-0.7l0,0c0.9-0.3,1.9-0.5,2.8-0.5c0.3,0,0.4,0,0.5-0.1l0,0
			c0,0-0.9-0.6-3.4,0.3l-0.1-0.3c1.9-0.7,4-0.9,5.4,0.5L129.9,3.2"/>
		<path class="st9" d="M129.9,3.2c-0.9-0.9-2.4-0.8-4-0.2l-0.2-0.6l0,0c1-0.4,2.1-0.5,3.2-0.5c0.3,0,1.1,0.1,0.4-0.3
			c-0.3-0.2-1.4-0.6-3.8,0.3l-0.1-0.2c1.9-0.7,4-0.9,5.4,0.5L129.9,3.2"/>
		<path class="st5" d="M129.9,3.2c-0.9-0.9-2.4-0.8-4-0.2l-0.1-0.3l0,0c1.1-0.5,2.4-0.6,3.6-0.4c0.5,0.1,0.8,0.2,0.8,0
			c0-0.3-0.2-0.6-0.5-0.7c-0.6-0.3-1.9-0.6-4.2,0.2c1.9-0.7,4-0.9,5.4,0.5L129.9,3.2"/>
		<path class="st2" d="M130.9,2.2c-0.2-0.2-0.5-0.4-0.7-0.6C130.4,1.8,130.7,2,130.9,2.2L130.9,2.2"/>
	</g>
</g>
<path class="st0" d="M129.9,3.2l0.9-0.9c6.4,7.9-12.7,30.7-17.8,34.4l-1.3-0.7C117.2,32,135.5,9.8,129.9,3.2z"/>
<g>
	<defs>
		<path id="SVGID_61_" d="M129.9,3.2l0.9-0.9c6.4,7.9-12.7,30.7-17.8,34.4l-1.3-0.7C117.2,32,135.5,9.8,129.9,3.2z"/>
	</defs>
	<clipPath id="SVGID_62_">
		<use xlink:href="#SVGID_61_"  style="overflow:visible;"/>
	</clipPath>
	<g class="st36">
		<path class="st2" d="M129.9,3.2l0.9-0.9c6.4,7.9-12.7,30.7-17.8,34.4l-1.3-0.7C117.2,32,135.5,9.8,129.9,3.2"/>
		<path class="st2" d="M112.1,36.2c8.4-6.3,23.2-27.8,18.7-33.9c6.4,7.9-12.7,30.7-17.8,34.4L112.1,36.2"/>
	</g>
</g>
<path class="st0" d="M111.7,36l1.3,0.7c0,0.7,0.2,1.4,0.6,2l-1,1C111.7,38.5,111.7,36.7,111.7,36z"/>
<g>
	<defs>
		<path id="SVGID_63_" d="M111.7,36l1.3,0.7c0,0.7,0.2,1.4,0.6,2l-1,1C111.7,38.5,111.7,36.7,111.7,36z"/>
	</defs>
	<clipPath id="SVGID_64_">
		<use xlink:href="#SVGID_63_"  style="overflow:visible;"/>
	</clipPath>
	<g class="st37">
		<path class="st2" d="M111.7,36l1.3,0.7c0,0.7,0.2,1.4,0.6,2l-1,1C111.6,38.6,111.6,36.8,111.7,36"/>
		<path class="st2" d="M113.6,38.7c-0.2-0.2-0.5-0.3-0.7-0.5c-0.1-0.1-0.2-0.2-0.3-0.3c-0.2-0.5-0.4-1-0.4-1.5l0.7,0.4
			C113,37.4,113.2,38.1,113.6,38.7L113.6,38.7"/>
	</g>
</g>
<path class="st0" d="M112.7,39.6l1-1c2.6,1.3,5.4-1.6,5.5-1.8l1.4,0.5C119.9,38,116.7,41.6,112.7,39.6z"/>
<g>
	<defs>
		<path id="SVGID_65_" d="M112.7,39.6l1-1c2.6,1.3,5.4-1.6,5.5-1.8l1.4,0.5C119.9,38,116.7,41.6,112.7,39.6z"/>
	</defs>
	<clipPath id="SVGID_66_">
		<use xlink:href="#SVGID_65_"  style="overflow:visible;"/>
	</clipPath>
	<g class="st38">
		<path class="st9" d="M112.7,39.6l1-1c2.6,1.3,5.4-1.6,5.5-1.8l1.4,0.5C120,37.9,116.7,41.5,112.7,39.6"/>
		<path class="st9" d="M119.6,37c-1.4,1.5-3.4,2.2-5.4,2.1c-0.3,0-0.4-0.1-0.5,0s1,0.8,2.5,0.4s2.4-1.2,3.6-2.5l0.8,0.3
			c-0.6,0.6-3.8,4.2-7.8,2.2l1-1c2.6,1.3,5.4-1.6,5.5-1.8L119.6,37"/>
		<path class="st5" d="M120.5,37.4c-0.6,0.6-3.8,4.2-7.8,2.2l0.4-0.4l0,0c2,1.3,4.7,0.6,7-2L120.5,37.4"/>
		<path class="st5" d="M119.2,36.9c-0.6,0.6-1.3,1.1-2,1.5l-0.2,0.1c-1,0.6-2.3,0.6-3.4,0.2l0.1-0.1C116.3,40,119,37,119.2,36.9
			L119.2,36.9"/>
		<path class="st11" d="M117.3,38.8c-0.4,0.3-0.9,0.6-1.5,0.6c-1,0.2-1.5-0.1-1.5-0.2s0.2,0,0.4,0c0.4,0,0.7,0,1.1-0.1
			C116.4,39.1,116.9,38.9,117.3,38.8L117.3,38.8L117.3,38.8"/>
	</g>
</g>
<path class="st0" d="M120.5,37.4l-1.4-0.5c-0.5-16.1,19.4-20.2,20.6-7.3l-1.2,1.3C137.7,18.4,120,22.1,120.5,37.4z"/>
<g>
	<defs>
		<path id="SVGID_67_" d="M120.5,37.4l-1.4-0.5c-0.5-16.1,19.4-20.2,20.6-7.3l-1.2,1.3C137.7,18.4,120,22.1,120.5,37.4z"/>
	</defs>
	<clipPath id="SVGID_68_">
		<use xlink:href="#SVGID_67_"  style="overflow:visible;"/>
	</clipPath>
	<g class="st39">
		<path class="st11" d="M120.5,37.4l-1.4-0.5c-0.5-16.1,19.4-20.2,20.6-7.3l-1.2,1.3C137.7,18.4,120,22.1,120.5,37.4"/>
		<path class="st11" d="M138.6,30.8c-0.9-12.5-18.6-8.7-18.1,6.5l-0.8-0.3l0,0c-0.1-2.2,0.2-4.3,0.8-6.4c-0.4,0.6-1.1,2.2-1.1,6.3
			l-0.3-0.1c-0.5-16.1,19.4-20.2,20.6-7.3L138.6,30.8"/>
		<path class="st9" d="M138.6,30.8c-0.9-12.5-18.6-8.7-18.1,6.5l-0.7-0.3l0,0c0-1.8,0-7.5,4-11.2c1.5-1.3,3.2-2.3,5.1-2.8
			c1.7-0.5,3.4-0.5,5.1-0.2c0.5,0.1,0.5,0.1,0.7,0.1c-1.2-1.8-13.2-0.7-15.1,10.4c-0.2,1.2-0.3,2.5-0.2,3.7l-0.2-0.1
			c-0.5-16.1,19.4-20.2,20.6-7.3L138.6,30.8"/>
		<path class="st5" d="M138.6,30.8c-0.9-12.5-18.6-8.7-18.1,6.5l-0.5-0.2c0-0.4,0-1,0-1.4c0.9-10.3,8.8-14.6,15.6-12.1
			c0.4,0.1,0.7,0.3,0.7,0.1c0.2-0.6-3.4-3.1-8.5-1.1c-4.4,1.7-9,6.3-8.6,14.3c-0.6-16.1,19.3-20.2,20.5-7.4L138.6,30.8"/>
		<path class="st2" d="M139.2,30.2c0-3-0.3-5.5-3.3-7.2c2.4,1.4,3.8,3.9,3.9,6.6L139.2,30.2"/>
		<path class="st11" d="M133.2,22.5c-0.1,0-0.3,0-0.4,0c-1,0-2,0-3,0.2c-0.9,0.2-1.8,0.4-2.6,0.8c-0.1,0.1-0.2,0.1-0.4,0.1
			C127.2,22.8,132.3,21.7,133.2,22.5L133.2,22.5"/>
		<path class="st2" d="M119.2,36.9c0-0.1,0-0.3,0-0.4l0,0V36.9"/>
	</g>
</g>
<path class="st0" d="M138.6,30.8l1.2-1.3c2.4,0.1,9-5.2,10.2-7.5l0.6,1.8C149.8,25.4,142.8,31,138.6,30.8z"/>
<g>
	<defs>
		<path id="SVGID_69_" d="M138.6,30.8l1.2-1.3c2.4,0.1,9-5.2,10.2-7.5l0.6,1.8C149.8,25.4,142.8,31,138.6,30.8z"/>
	</defs>
	<clipPath id="SVGID_70_">
		<use xlink:href="#SVGID_69_"  style="overflow:visible;"/>
	</clipPath>
	<g class="st40">
		<path class="st11" d="M138.6,30.8l1.2-1.3c2.4,0.1,9-5.2,10.2-7.5l0.6,1.8C149.8,25.4,142.8,31,138.6,30.8"/>
		<path class="st11" d="M150.5,23.9c-0.7,1.5-7.8,7.1-12,6.9l0.7-0.7l0,0c1.1,0.3,3.1-0.8,3.2-1c-0.6,0.2-1.2,0.5-1.8,0.6
			c-0.4,0.1-0.8,0.2-1.2,0.1l0.3-0.3c2.4,0.1,9-5.2,10.2-7.5L150.5,23.9"/>
		<path class="st9" d="M150.1,22.4c-1.5,3.1-8.4,7.6-10.5,7.3l0.2-0.2c2.4,0.1,9-5.2,10.2-7.5L150.1,22.4"/>
		<path class="st9" d="M150.5,23.9c-0.7,1.5-7.8,7.1-12,6.9l0.6-0.6l0,0c0.6,0.1,2.1,0,5.1-2c1.1-0.7,2.1-1.5,3-2.3
			c1-0.9,1.9-2.1,3-3L150.5,23.9"/>
		<path class="st5" d="M150.5,23.9c-0.7,1.5-7.8,7.1-12,6.9l0.4-0.4l0,0c3.1,0.3,9.3-4.2,11.4-7.1L150.5,23.9"/>
		<path class="st5" d="M149.9,22.1c-1.2,2.3-7.5,7.4-10.2,7.5C142.1,29.7,148.8,24.4,149.9,22.1L149.9,22.1"/>
	</g>
</g>
<path class="st0" d="M153.2,37.4l-1.3,0.1c0-1.6,1.7-3.5,2-4.1l2-0.8C154.6,34.8,153.1,36.5,153.2,37.4z"/>
<g>
	<defs>
		<path id="SVGID_71_" d="M153.2,37.4l-1.3,0.1c0-1.6,1.7-3.5,2-4.1l2-0.8C154.6,34.8,153.1,36.5,153.2,37.4z"/>
	</defs>
	<clipPath id="SVGID_72_">
		<use xlink:href="#SVGID_71_"  style="overflow:visible;"/>
	</clipPath>
	<g class="st41">
		<path class="st11" d="M153.2,37.4l-1.3,0.1c0-1.6,1.7-3.5,2-4.1l2-0.8C154.6,34.8,153.1,36.5,153.2,37.4"/>
		<path class="st11" d="M155.9,32.7c-1.3,2.2-2.8,3.9-2.7,4.8l-0.8,0.1l0,0c0.1-1,0.1-1,0.1-1c-0.2,0.3-0.4,0.6-0.3,1h-0.3
			c0-1.6,1.7-3.5,2-4.1L155.9,32.7"/>
		<path class="st9" d="M154.3,33.3c0,0.2-0.2,0.5-0.9,1.3c-0.9,1.2-1.4,2-1.4,2.9h-0.2c0-1.6,1.7-3.5,2-4.1L154.3,33.3"/>
		<path class="st9" d="M155.9,32.7c-1.3,2.2-2.8,3.9-2.7,4.8h-0.7l0,0c0.1-0.6,0.2-1.2,0.5-1.8c0.5-0.9,1.2-1.7,1.7-2.6L155.9,32.7"
			/>
		<path class="st5" d="M155.9,32.7c-1.3,2.2-2.8,3.9-2.7,4.8h-0.5l0,0c0.3-1.1,0.8-2.1,1.6-3c0.4-0.5,0.7-1,1-1.6L155.9,32.7"/>
		<path class="st5" d="M153.9,33.5c-0.6,0.8-1.1,1.6-1.6,2.4c-0.3,0.5-0.4,1.1-0.4,1.7h-0.1C151.8,35.9,153.6,34,153.9,33.5
			L153.9,33.5"/>
	</g>
</g>
<path class="st0" d="M149.7,33.5l3.4-4.2c0.5-0.3,9.3-6.8,12.1-4.4l-0.9,1C162.6,24.3,154.3,30.1,149.7,33.5z"/>
<g>
	<defs>
		<path id="SVGID_73_" d="M149.7,33.5l3.4-4.2c0.5-0.3,9.3-6.8,12.1-4.4l-0.9,1C162.6,24.3,154.3,30.1,149.7,33.5z"/>
	</defs>
	<clipPath id="SVGID_74_">
		<use xlink:href="#SVGID_73_"  style="overflow:visible;"/>
	</clipPath>
	<g class="st42">
		<path class="st9" d="M149.7,33.5l3.4-4.2c0.5-0.3,9.3-6.8,12.1-4.4l-0.9,1C162.6,24.3,154.3,30.1,149.7,33.5"/>
		<path class="st9" d="M164.3,26c-1.7-1.7-10,4.1-14.6,7.6l1.8-2.2l0,0c3-2.3,8.7-6.2,12.3-6.2c0.2,0,0.6,0,0.6-0.1
			s-0.7-0.7-2.7-0.1c-2.4,0.7-6,2.8-9.4,5.4l0.8-0.9c0.5-0.3,9.3-6.8,12.1-4.4L164.3,26"/>
		<path class="st5" d="M164.3,26c-1.7-1.7-10,4.1-14.6,7.6l0.9-1.1l0,0c1.8-1.4,2.9-2.1,4.4-3.1l0.5-0.3c4.1-2.6,6.8-3.7,8.5-3.6
			c1.4,0.1,0.5-0.7,0.2-0.8c-3.3-0.8-10.4,4.3-11.2,4.9c0.5-0.3,9.3-6.9,12.1-4.4L164.3,26"/>
		<path class="st11" d="M164,24.9c-0.2,0-0.3,0.1-0.5,0.1c-0.8,0.1-1.5,0.2-2.3,0.4c-0.8,0.2-1.5,0.7-2.3,0.8
			C160.3,25.2,163.9,24.3,164,24.9C164,24.8,164,24.8,164,24.9"/>
		<path class="st2" d="M165.2,25c-0.1-0.1-0.2-0.2-0.3-0.2C165,24.8,165.1,24.9,165.2,25L165.2,25"/>
	</g>
</g>
<path class="st0" d="M164.3,26l0.9-1c1.8,1.2-0.9,3.8-4.3,8.8l-2.9,1.9C163.2,27.9,165.1,26,164.3,26z"/>
<g>
	<defs>
		<path id="SVGID_75_" d="M164.3,26l0.9-1c1.8,1.2-0.9,3.8-4.3,8.8l-2.9,1.9C163.2,27.9,165.1,26,164.3,26z"/>
	</defs>
	<clipPath id="SVGID_76_">
		<use xlink:href="#SVGID_75_"  style="overflow:visible;"/>
	</clipPath>
	<g class="st43">
		<path class="st5" d="M164.3,26l0.9-1c1.8,1.2-0.9,3.8-4.3,8.8l-2.9,1.9C163.2,27.9,165.1,26.1,164.3,26"/>
		<path class="st5" d="M157.9,35.6c5.3-7.7,7.2-9.6,6.4-9.6l0.3-0.4l0,0c0.4-0.1,0.4-0.3,0.4-0.4l0.2-0.2c1.8,1.2-0.9,3.8-4.3,8.8
			L157.9,35.6"/>
		<path class="st2" d="M158.9,35c1.8-2.6,3.7-4.9,5.4-7.6c0.3-0.4,0.5-1,0.8-1.4c0.1-0.2,0.4-0.3,0.5-0.6s-0.2-0.5-0.3-0.5
			c1.8,1.2-0.9,3.7-4.3,8.8L158.9,35"/>
	</g>
</g>
<path class="st0" d="M157.9,35.6l2.9-1.9c1.8-0.3,8.4-5.7,9.9-7.6l1.3,0.5C170.2,29,163.4,34.6,157.9,35.6z"/>
<g>
	<defs>
		<path id="SVGID_77_" d="M157.9,35.6l2.9-1.9c1.8-0.3,8.4-5.7,9.9-7.6l1.3,0.5C170.2,29,163.4,34.6,157.9,35.6z"/>
	</defs>
	<clipPath id="SVGID_78_">
		<use xlink:href="#SVGID_77_"  style="overflow:visible;"/>
	</clipPath>
	<g class="st44">
		<path class="st11" d="M157.9,35.6l2.9-1.9c1.8-0.3,8.4-5.7,9.9-7.6l1.3,0.5C170.2,29,163.4,34.6,157.9,35.6"/>
		<path class="st11" d="M172.1,26.6c-1.9,2.4-8.8,7.9-14.2,9l1.6-1.1l0,0c0.8-0.1,1.6-0.4,2.3-0.8c-1.5,0.4-1.5,0.4-1.6,0.4l0.6-0.4
			c1.8-0.3,8.4-5.7,9.9-7.6L172.1,26.6"/>
		<path class="st9" d="M171.2,26.3c-1.1,1.5-9,8-10.8,7.7l0.4-0.3c1.8-0.3,8.4-5.7,9.9-7.6L171.2,26.3"/>
		<path class="st9" d="M172.1,26.6c-1.9,2.4-8.8,7.9-14.2,9l1.3-0.9l0,0c2.4,0.2,9.6-5.4,12-8.4L172.1,26.6"/>
		<path class="st5" d="M172.1,26.6c-1.9,2.4-8.8,7.9-14.2,9l0.8-0.5l0,0c3.7-0.4,10.9-6,13-8.6L172.1,26.6"/>
		<path class="st5" d="M170.8,26.1c-1.6,1.9-7.9,7.1-10,7.6C162.6,33.4,169.3,28,170.8,26.1L170.8,26.1"/>
	</g>
</g>
<path class="st0" d="M172.1,26.6l-1.3-0.5c0-1.1-2-5.9,5.1-8.4l0.4,1.3C170.5,21.1,172.1,24.9,172.1,26.6z"/>
<g>
	<defs>
		<path id="SVGID_79_" d="M172.1,26.6l-1.3-0.5c0-1.1-2-5.9,5.1-8.4l0.4,1.3C170.5,21.1,172.1,24.9,172.1,26.6z"/>
	</defs>
	<clipPath id="SVGID_80_">
		<use xlink:href="#SVGID_79_"  style="overflow:visible;"/>
	</clipPath>
	<g class="st45">
		<path class="st11" d="M172.1,26.6l-1.3-0.5c0-1.1-2-5.9,5.1-8.4l0.4,1.3C170.5,21.1,172.2,24.9,172.1,26.6"/>
		<path class="st11" d="M176,18c-0.5,0.2-1,0.4-1.5,0.8c0.5-0.1,1.1-0.3,1.6-0.5l0.3,0.7c-5.9,2.1-4.2,5.9-4.2,7.6l-0.8-0.3l0,0
			c0-0.8-0.3-1.5-0.3-2.3c0.1-0.7,0.2-1.4,0.2-2.1c0,0-0.8,0.7-0.3,3.3c0.1,0.3,0.1,0.7,0.1,1l-0.3-0.1c0-1.1-2-5.9,5.1-8.4L176,18"
			/>
		<path class="st9" d="M175.9,17.9c-0.9,0.3-1.8,0.8-2.6,1.3c0,0-1.9,1.9-2,2.1c-0.6,1.2-0.8,2.6-0.4,3.9c0.1,0.3,0.1,0.7,0.1,1
			l-0.2-0.1c0-1.1-2-5.9,5.1-8.4L175.9,17.9"/>
		<path class="st9" d="M176.3,19c-5.9,2.1-4.2,5.9-4.2,7.6l-0.7-0.2l0,0c0-0.8-0.2-1.5-0.3-2.3c0-0.1,0-0.2,0-0.3
			c0.1-2.9,1.1-4,4.9-5.4L176.3,19"/>
		<path class="st5" d="M176.3,19c-5.9,2.1-4.2,5.9-4.2,7.6l-0.4-0.2v-0.2c-0.4-3.3-0.6-5.7,4.5-7.7L176.3,19"/>
		<path class="st5" d="M175.9,17.7c-0.9,0.3-3.4,1.3-4.5,3.2c-0.8,1.3-1,2.9-0.5,4.3c0.1,0.7,0.1,0.8,0.1,1h-0.1
			C170.8,25.2,168.8,20.3,175.9,17.7L175.9,17.7"/>
		<path class="st2" d="M170.5,24c0,0.5,0.1,1.1,0.2,1.6c0,0.2,0.1,0.4,0.1,0.6c-0.1-0.8-0.2-1.5-0.3-2.3l0,0
			C170.5,23.8,170.5,23.9,170.5,24"/>
	</g>
</g>
<path class="st0" d="M134.9,26.4l-2.2,2c-5,1.4-7.4,6-5.6,8.5l-1.1,0.8C123.6,34.2,126.6,28.7,134.9,26.4z"/>
<g>
	<defs>
		<path id="SVGID_81_" d="M134.9,26.4l-2.2,2c-5,1.4-7.4,6-5.6,8.5l-1.1,0.8C123.6,34.2,126.6,28.7,134.9,26.4z"/>
	</defs>
	<clipPath id="SVGID_82_">
		<use xlink:href="#SVGID_81_"  style="overflow:visible;"/>
	</clipPath>
	<g class="st46">
		<path class="st2" d="M134.9,26.4l-2.2,2c-5,1.4-7.4,6-5.6,8.5l-1.1,0.8C123.5,34.2,126.6,28.7,134.9,26.4"/>
		<path class="st2" d="M127,37c-1.1-0.7-1.6-2.1-1.2-3.3c0.4-1.6,1.4-3,2.7-3.9c1.7-1.3,3.6-2.2,5.6-2.7l-1.5,1.3
			C127.7,29.8,125.3,34.4,127,37L127,37"/>
	</g>
</g>
<path class="st0" d="M137.6,31.4l-3,2.1c-0.7,0.2-3.1-2-1.9-5.2l2.2-2C133.1,31.1,134.7,32.3,137.6,31.4z"/>
<g>
	<defs>
		<path id="SVGID_83_" d="M137.6,31.4l-3,2.1c-0.7,0.2-3.1-2-1.9-5.2l2.2-2C133.1,31.1,134.7,32.3,137.6,31.4z"/>
	</defs>
	<clipPath id="SVGID_84_">
		<use xlink:href="#SVGID_83_"  style="overflow:visible;"/>
	</clipPath>
	<g class="st47">
		<path class="st9" d="M137.6,31.4l-3,2.1c-0.7,0.2-3.1-2-1.9-5.2l2.2-2C133.1,31.1,134.7,32.3,137.6,31.4"/>
		<path class="st9" d="M133,28.1c-1.1,2.2-0.2,3.5-0.1,3.5s0.1-0.3,0.1-0.7c-0.1-1.2,0.2-2.3,0.7-3.4l1.2-1c-1.8,4.7-0.2,5.9,2.7,5
			l-3,2.1c-0.7,0.2-3.1-2-1.9-5.2L133,28.1"/>
		<path class="st5" d="M132.7,28.4c-0.9,2.5,0.4,3.8,0.6,3.7s0.1-0.3,0.1-1.2c0-1.3,0.3-2.7,0.9-3.9l0.7-0.6c-1.8,4.7-0.2,5.9,2.7,5
			l-3,2.1C133.9,33.8,131.5,31.6,132.7,28.4L132.7,28.4"/>
		<path class="st2" d="M132.3,30.3c0,1,0.5,2,1.3,2.6c0.2,0.1,0.5,0.2,3.1-0.9l-2.1,1.5c-0.6,0.2-2.2-1.2-2.3-3.4l0,0
			C132.3,30.2,132.3,30.3,132.3,30.3"/>
		<path class="st11" d="M133.3,28.1c-0.1,0.3-0.2,0.7-0.3,1c-0.1,0.3-0.1,0.6-0.1,0.9c-0.1,1-0.1,1-0.1,1l0,0
			c-0.3-0.2-0.4-2,0.6-3.2C133.3,27.9,133.3,28,133.3,28.1"/>
	</g>
</g>
<path class="st0" d="M126,37.7l1.1-0.8c2.8,2.5,6.2-1.4,7.5-3.4l3-2.1C134.3,36.5,130.2,41.3,126,37.7z"/>
<g>
	<defs>
		<path id="SVGID_85_" d="M126,37.7l1.1-0.8c2.8,2.5,6.2-1.4,7.5-3.4l3-2.1C134.3,36.5,130.2,41.3,126,37.7z"/>
	</defs>
	<clipPath id="SVGID_86_">
		<use xlink:href="#SVGID_85_"  style="overflow:visible;"/>
	</clipPath>
	<g class="st48">
		<path class="st9" d="M126,37.7l1.1-0.8c2.8,2.5,6.2-1.4,7.5-3.4l3-2.1C134.3,36.4,130.2,41.2,126,37.7"/>
		<path class="st9" d="M135.3,33.1c-1.8,3.3-4.4,5.1-7,4.8c-0.2,0-0.4,0-0.5,0s0.6,0.6,1.7,0.5c2.7-0.3,5.6-4.4,6.4-5.7l1.8-1.3
			c-3.4,5-7.4,9.8-11.6,6.3l1.1-0.8c2.8,2.5,6.2-1.4,7.5-3.4L135.3,33.1"/>
		<path class="st5" d="M134.6,33.6c-1,1.6-2.4,2.9-4,3.8l-0.3,0.1c-1,0.4-2.1,0.4-3.1,0c-0.1,0-0.2,0-0.3,0
			c-0.2,0.2,0.5,0.9,1.5,1.1c2.4,0.5,5.2-1.7,8.3-6.5l0.9-0.6c-3.4,5-7.4,9.8-11.6,6.3l1.1-0.8C129.9,39.4,133.3,35.6,134.6,33.6
			L134.6,33.6"/>
		<path class="st11" d="M130.9,37.7c-0.4,0.3-0.9,0.5-1.4,0.6c-0.3,0.1-0.7,0-1-0.2l0,0c0,0,0.1,0,0.4-0.1c0.3,0,0.6,0,0.9-0.1
			C130.2,37.9,130.6,37.7,130.9,37.7C130.9,37.7,130.9,37.7,130.9,37.7C131,37.7,131,37.7,130.9,37.7"/>
		<path class="st2" d="M127.6,37.3c-0.2-0.1-0.4-0.2-0.5-0.4l0,0C127.2,37.1,127.4,37.3,127.6,37.3L127.6,37.3L127.6,37.3"/>
	</g>
</g>
<path class="st0" d="M106,37.9l-1.4-0.6c-0.3-1.6-0.3-5,2.5-13.2l5.1-10.8C105.5,32.5,105.6,35.7,106,37.9z"/>
<g>
	<defs>
		<path id="SVGID_87_" d="M106,37.9l-1.4-0.6c-0.3-1.6-0.3-5,2.5-13.2l5.1-10.8C105.5,32.5,105.6,35.7,106,37.9z"/>
	</defs>
	<clipPath id="SVGID_88_">
		<use xlink:href="#SVGID_87_"  style="overflow:visible;"/>
	</clipPath>
	<g class="st49">
		<path class="st11" d="M106,37.9l-1.4-0.6c-0.3-1.6-0.3-5,2.5-13.2l5.1-10.8C105.6,32.5,105.6,35.7,106,37.9"/>
		<path class="st11" d="M112.2,13.3c-6.6,19.2-6.6,22.4-6.2,24.6l-0.9-0.4l0,0c-0.6-4.3,1.4-10.8,3.7-17.2L112.2,13.3"/>
		<path class="st11" d="M108.3,21.4c-1.6,4.3-4.4,12.2-3.4,16l-0.3-0.1c-0.3-1.6-0.3-5,2.5-13.2L108.3,21.4"/>
		<path class="st9" d="M112.2,13.3c-6.6,19.2-6.6,22.4-6.2,24.6l-0.8-0.3l0,0c-0.6-3.8,1.2-10,4.3-18.7L112.2,13.3"/>
		<path class="st9" d="M107.8,22.4c-1.1,3-4,10.9-3,15l-0.3-0.1c-0.3-1.6-0.3-5,2.5-13.2L107.8,22.4"/>
		<path class="st5" d="M112.2,13.3c-6.6,19.2-6.6,22.4-6.2,24.6l-0.5-0.2l0,0c-0.5-3.4,0.8-8.7,5.1-21L112.2,13.3"/>
		<path class="st5" d="M107.1,23.9c-2.9,8.4-2.8,11.6-2.4,13.4l-0.2-0.1c-0.3-1.6-0.3-5,2.5-13.2L107.1,23.9"/>
		<path class="st2" d="M104.4,36c0,0.4,0,0.9,0.1,1.3c-0.1-0.5-0.1-1-0.1-1.5l0,0C104.4,35.8,104.4,35.9,104.4,36"/>
	</g>
</g>
<path class="st0" d="M112.2,13.3L107,24.1c-4.4,7-13,14.2-13.5,14.6l-1.5-0.5C93.1,37.3,101.7,30.2,112.2,13.3z"/>
<g>
	<defs>
		<path id="SVGID_89_" d="M112.2,13.3L107,24.1c-4.4,7-13,14.2-13.5,14.6l-1.5-0.5C93.1,37.3,101.7,30.2,112.2,13.3z"/>
	</defs>
	<clipPath id="SVGID_90_">
		<use xlink:href="#SVGID_89_"  style="overflow:visible;"/>
	</clipPath>
	<g class="st50">
		<path class="st2" d="M112.2,13.3L107,24.1c-4.4,7-13,14.2-13.5,14.6l-1.5-0.5C93.1,37.3,101.7,30.2,112.2,13.3"/>
		<path class="st2" d="M92.5,38.3c7.2-6.1,13.3-13.4,18-21.5l-3.5,7.3c-4.4,7-13,14.2-13.5,14.6L92.5,38.3"/>
	</g>
</g>
<path class="st0" d="M92.1,38.2l1.4,0.5c1.3,6,10.5-1,11-1.4l1.4,0.6C104.8,38.8,94.4,46.6,92.1,38.2z"/>
<g>
	<defs>
		<path id="SVGID_91_" d="M92.1,38.2l1.4,0.5c1.3,6,10.5-1,11-1.4l1.4,0.6C104.8,38.8,94.4,46.6,92.1,38.2z"/>
	</defs>
	<clipPath id="SVGID_92_">
		<use xlink:href="#SVGID_91_"  style="overflow:visible;"/>
	</clipPath>
	<g class="st51">
		<path class="st9" d="M92.1,38.2l1.4,0.5c1.3,6,10.5-1,11-1.4l1.4,0.6C104.8,38.7,94.4,46.5,92.1,38.2"/>
		<path class="st9" d="M104.9,37.4c-1.7,1.3-3.5,2.4-5.5,3.2c-0.7,0.3-1.5,0.5-2.3,0.7c-0.7,0.1-1.4-0.1-2.1,0c0.6,1,5,0.6,10.2-3.7
			l0.8,0.3c-1.2,0.9-11.6,8.7-13.9,0.3l1.4,0.4c1.3,6,10.5-1,11-1.4L104.9,37.4"/>
		<path class="st5" d="M104.5,37.3c-0.4,0.3-0.7,0.5-1.1,0.8l-0.3,0.2c-4.5,3-6.6,3-7.9,2.7c0,0-1-0.2-1-0.1s2,2.8,8.8-1.4
			c0.9-0.6,1.8-1.2,2.6-1.8l0.4,0.2c-1.2,0.9-11.6,8.7-13.9,0.3l1.5,0.5C94.9,44.7,104.1,37.7,104.5,37.3L104.5,37.3"/>
		<path class="st11" d="M101,40.1c-1,0.6-2,1.1-3.1,1.3c-0.7,0.2-1.5,0.2-2.2,0c0,0,0.1,0,0.3,0c0.5,0,1,0,1.4-0.1
			C98.6,41,99.8,40.6,101,40.1L101,40.1"/>
		<path class="st2" d="M94.8,40.7c-0.8-0.5-1.4-1.3-1.8-2.2l0.6,0.2c0.1,0.9,0.6,1.6,1.4,2.1L94.8,40.7"/>
	</g>
</g>
<path class="st0" d="M91.8,32l0.9,1.1l0.2,0.2c-0.3,0,16.1-18.2,14.3-23.6c-0.8-2.3-11.6,8.7-14.3,23.6l-0.2-0.2L91.8,32
	c2.6-14.3,14.4-26.4,16.7-22.7c1.5,4.9-7,15.9-12.6,20.6C94,31.5,92.5,32.3,91.8,32z"/>
<g>
	<defs>
		<path id="SVGID_93_" d="M91.8,32l0.9,1.1l0.2,0.2c-0.3,0,16.1-18.2,14.3-23.6c-0.8-2.3-11.6,8.7-14.3,23.6l-0.2-0.2L91.8,32
			c2.6-14.3,14.4-26.4,16.7-22.7c1.5,4.9-7,15.9-12.6,20.6C94,31.5,92.5,32.3,91.8,32z"/>
	</defs>
	<clipPath id="SVGID_94_">
		<use xlink:href="#SVGID_93_"  style="overflow:visible;"/>
	</clipPath>
	<g class="st52">
		<path class="st2" d="M91.8,32l0.9,1.1l0.2,0.2c-0.3,0,16.1-18.2,14.3-23.6c-0.8-2.3-11.6,8.7-14.3,23.6l-0.2-0.2L91.8,32
			c2.6-14.3,14.4-26.4,16.7-22.7c1.5,4.9-7,15.9-12.6,20.6C94,31.5,92.5,32.3,91.8,32"/>
		<path class="st2" d="M92.8,33.1l-0.5-0.6l0,0c3.6-17.2,13.9-24.9,15.1-23.6c0,0,0.1,0.1,0.1,0.1c0,0.5-0.1,1.1-0.1,1.6
			c0-0.3-0.1-0.6-0.1-0.9c-0.8-2.3-11.6,8.7-14.3,23.6L92.8,33.1"/>
		<path class="st5" d="M107.5,9.4c0.8-0.2,1.8,2.4-2.5,9.4c-3.6,5.8-8.1,10.4-9.2,11.2c0.1-0.2,0.1-0.2,0.9-1.3
			c2.9-3.6,5.7-7.4,8.1-11.3c2.5-4.3,2.8-6.5,2.6-7.6c0-0.1,0-0.2,0-0.2S107.5,9.4,107.5,9.4"/>
		<path class="st2" d="M91.9,32.1c0.1,0.2,0.2,0.3,0.3,0.5l0.5,0.6l0.2,0.2c0,0,0,0,0-0.1c0.2-0.3,1.8-2.4,2.5-3l0.3-0.3
			C94.1,31.5,92.6,32.3,91.9,32.1"/>
		<path class="st9" d="M107.7,9.7c2.5,1.2-5.7,13.7-8,16c3.8-5.4,4.8-6.9,6.2-9.7s1.7-4.4,1.7-5.9C107.6,10,107.6,9.8,107.7,9.7
			C107.6,9.7,107.6,9.7,107.7,9.7"/>
		<path class="st11" d="M107.8,10.2c0.1,0.1,0.4,1.3-0.6,3.5l0,0c0,0,0-0.1,0-0.1l0.3-1.1v-0.1c0.1-0.6,0.2-1.3,0.2-1.9
			C107.7,10.4,107.7,10.2,107.8,10.2C107.8,10.2,107.7,10.2,107.8,10.2"/>
	</g>
</g>
<path class="st0" d="M111.2,30.2l0.9,1.2l0.2,0.2c-0.3,0,15.4-16.3,13.8-21.9c-0.7-2.3-10.5,7-13.8,21.9l-0.2-0.2L111.2,30.2
	c3.2-14.2,14-24.7,16.1-20.9c1.3,4.9-6.8,14.9-12.1,19C113.3,29.8,111.8,30.5,111.2,30.2z"/>
<g>
	<defs>
		<path id="SVGID_95_" d="M111.2,30.2l0.9,1.2l0.2,0.2c-0.3,0,15.4-16.3,13.8-21.9c-0.7-2.3-10.5,7-13.8,21.9l-0.2-0.2L111.2,30.2
			c3.2-14.2,14-24.7,16.1-20.9c1.3,4.9-6.8,14.9-12.1,19C113.3,29.8,111.8,30.5,111.2,30.2z"/>
	</defs>
	<clipPath id="SVGID_96_">
		<use xlink:href="#SVGID_95_"  style="overflow:visible;"/>
	</clipPath>
	<g class="st53">
		<path class="st2" d="M111.2,30.2l0.9,1.2l0.2,0.2c-0.3,0,15.4-16.3,13.8-21.9c-0.7-2.3-10.5,7-13.8,21.9l-0.2-0.2L111.2,30.2
			c3.2-14.2,14-24.7,16.1-20.9c1.3,4.9-6.8,14.9-12.1,19C113.3,29.7,111.8,30.5,111.2,30.2"/>
		<path class="st2" d="M112.1,31.3l-0.5-0.6l0,0c4.3-17.3,14-23.4,14.6-21.8c0.1,0.3-0.2,0.4-0.2,0.7s0.1,0.7,0.1,1
			c0-0.3,0-0.6-0.1-0.9c-0.7-2.3-10.5,7-13.8,21.9L112.1,31.3"/>
		<path class="st5" d="M126.4,9.4c1.3-0.1,1.3,5.2-6.8,14.6c-1.4,1.7-2.9,3.2-4.6,4.6c0,0,0-0.1,0-0.1c0,0,0.1-0.2,0.8-0.9
			c3.2-3.6,6.1-7.5,8.6-11.7c1.8-3.2,2-5.1,1.9-6.1C126.2,9.6,126.2,9.4,126.4,9.4"/>
		<path class="st2" d="M111.3,30.2c0.1,0.2,0.2,0.3,0.3,0.5l0.5,0.6l0.2,0.2l0,0c0.8-1,1.6-1.9,2.4-2.8l0.3-0.2
			C113.3,29.8,112,30.5,111.3,30.2"/>
		<path class="st9" d="M126.4,9.6c0.4,0.1,0.8,1.8-0.8,5c-1.8,3.3-3.9,6.3-6.3,9.2c3.1-4.3,4.3-5.9,5.4-8.3s1.6-3.8,1.6-5.6
			C126.3,9.8,126.3,9.7,126.4,9.6C126.4,9.6,126.4,9.6,126.4,9.6"/>
		<path class="st11" d="M126.5,10.1c0.2,0.2,0.1,1.2,0.1,1.2c-0.1,0.7-0.3,1.4-0.7,2l0,0c-0.1-0.3,0.2-0.7,0.3-1s0.1-0.7,0.2-1
			s0.1-0.6,0.1-0.9S126.5,10.1,126.5,10.1C126.5,10.1,126.5,10.1,126.5,10.1"/>
	</g>
</g>
<linearGradient id="SVGID_97_" gradientUnits="userSpaceOnUse" x1="30.109" y1="2383.6511" x2="131.529" y2="2485.061" gradientTransform="matrix(1 0 0 1 6 -2403)">
	<stop  offset="0" style="stop-color:#FFFFFF"/>
	<stop  offset="8.000000e-02" style="stop-color:#CB1626"/>
	<stop  offset="0.2" style="stop-color:#FFFFFF"/>
	<stop  offset="0.24" style="stop-color:#CB1626"/>
	<stop  offset="0.92" style="stop-color:#CB1626"/>
	<stop  offset="0.96" style="stop-color:#FFFFFF"/>
	<stop  offset="0.99" style="stop-color:#CB1626"/>
</linearGradient>
<path class="st54" d="M153.2,37.4c0-0.9,1.4-2.6,2.7-4.8c-3.5-0.8-14.3,6.5-12.8,7.1c-0.6-0.7-2.4-1.8-1.9-3.2
	c0.6-0.8,1.5-2.1,5.2-7.5c-4.7,2.3-7.2,3.5-8.6,3.8c-1.2,6-11.7,12.9-16.8,5.9c-13.3,7.9-13.7,3.1-14.1,1
	c-2.2,1.3-12.8,7.4-17.2,5.6c-1.2-0.5-2-2.4-2.7-4.3c-2,1.7-13,10.9-17,7.5c-1.8-1.5-0.9-4.8-0.9-4.9c-0.8-2.6-5.5,1-5,0.7
	c0.9,0.5,0.8-0.5,0.7-4.3c-12.9,16.4-22.2,16-23.3,11.7c-2.1-8.6-7.9-7.2-12.7-3.1c-4.5,3.8-8.8,10-9.7,12.5
	c-0.5,1.5-1.2,2.6-0.5,1.4c-2.6-1.4-5.2-2.5-8-3.4l21.7-41.4c6.8,1.4,12.1,2,11.2,2c0.9-1.3-13,17.6-23.5,32
	c8.3-6.6,17.4-13.6,20.3-11c3.3,2.8,2.5,7.6,8.6,7.1c3.5-0.4,7.1-5.6,11.3-11.1c2.8-3.7,10.2-15.4,0.5-24.4
	c-15.1-11.8-40.1-1.2-50.5,4.2c-3.6,1.9-10.3,5.8-8.3,7.5c0,0.1,3.4-8.1,5-12.2C9.3,8.8,25,2.7,40.4,1.8C55.6,1,70.1,5.3,71.8,22.1
	c0.5,4.9-1.4,9.9-5.1,15.1c-2,4.8,7.8,0.1,11.1-6.4l5.6,2c0,0-7.5,6.3-6.6,10.6c1.6,3.1,7.1-1.8,9.8-4.2c-1.2-9,5.6-34,22.6-36.9
	c3.2-0.4,3.9,1,4.2,2.2c0.6,2.6-1.4,10,0.9,8.9c3.2-4.2,6-8.8,11.7-10.8c1.6-0.6,3.2-0.7,4,0.2c5.6,6.6-12.8,28.8-18.2,32.8
	c0,0.8,0,2.5,1,3.6c4,2,7.3-1.6,7.8-2.2c-0.5-15.3,17.2-19,18.1-6.5c4.2,0.1,11.3-5.5,12-6.9l3.5,1.9c0.4-0.7-1.3,1.1-4.4,7.7
	c4.6-3.4,12.9-9.3,14.6-7.6c0.8,0.1-1.1,2-6.4,9.6c5.4-1,12.3-6.6,14.2-9c0-1.7-1.7-5.5,4.2-7.6c0.7-0.2,1.4-0.2,1.5-0.1
	c0.8,1-0.9,2.8-2.1,5.4c2.8,4.6,6.3,11.8-0.3,14.7c-4,1.9-6,0.6-7.7-1.2c-1.3-1.4,0.8-3.6,1.8-3c0.2,0,0.1,1,1.8,1.9
	c1.9,0.9,3.5-0.6,4.2-1.5c0.7-1.3,0.8-2.9,0.2-4.3c0-0.6-1.4-2.6-2.5-4.7C166.5,34.6,152.8,41.9,153.2,37.4z M91.8,32
	c2.7,1.3,18.7-16.2,16.7-22.7C106.2,5.6,94.4,17.7,91.8,32 M111.2,30.2c2.6,1.4,17.9-14.3,16.1-20.9C125.2,5.5,114.3,16,111.2,30.2
	 M112.2,13.3c-10.5,16.9-19.1,24-20.1,24.9c2.4,8.4,12.8,0.6,13.9-0.3C105.6,35.7,105.5,32.5,112.2,13.3 M126,37.7
	c4.2,3.6,8.3-1.2,11.6-6.3c-3,0.9-4.5-0.3-2.7-5C126.6,28.6,123.6,34.2,126,37.7"/>
<path class="st0" d="M176.3,19l-0.4-1.3c1-0.3,2.4-0.4,3,0.3l-1,0.8C177.8,18.8,177,18.8,176.3,19z"/>
<g>
	<defs>
		<path id="SVGID_98_" d="M176.3,19l-0.4-1.3c1-0.3,2.4-0.4,3,0.3l-1,0.8C177.8,18.8,177,18.8,176.3,19z"/>
	</defs>
	<clipPath id="SVGID_99_">
		<use xlink:href="#SVGID_98_"  style="overflow:visible;"/>
	</clipPath>
	<g class="st55">
		<path class="st5" d="M176.3,19l-0.4-1.3c1-0.3,2.4-0.4,3,0.3l-1,0.8C177.8,18.8,177.1,18.8,176.3,19"/>
		<path class="st5" d="M177.8,18.9c-0.1-0.1-0.8-0.2-1.5,0.1l-0.2-0.4l0,0c0.4-0.2,0.9-0.3,1.4-0.3c0.2,0,0.3-0.1,0.5-0.1
			c0.4-0.2,0.4-0.3,0.1-0.5c-0.8-0.3-1.6-0.2-2.3,0.1c1-0.3,2.4-0.4,3,0.3L177.8,18.9"/>
		<path class="st56" d="M177.8,18.9c-0.1-0.1-0.8-0.2-1.5,0.1l0,0l0,0C176.8,18.8,177.3,18.8,177.8,18.9
			C177.8,18.8,177.8,18.8,177.8,18.9c0.4-0.3,0.6-0.5,0.8-0.8c0.1-0.2-0.2-0.3-0.2-0.4c-0.3-0.1-0.6-0.2-0.9-0.2
			c0.5,0,1,0.2,1.4,0.6L177.8,18.9"/>
		<path class="st2" d="M178.8,18.1c-0.1-0.1-0.2-0.3-0.4-0.3C178.6,17.8,178.7,17.9,178.8,18.1L178.8,18.1"/>
		<path class="st57" d="M178.8,18.1L178.8,18.1L178.8,18.1L178.8,18.1"/>
	</g>
</g>
<path class="st0" d="M87.7,18l1.1,0.8c-2.8,4-5.4,5.1-8.1,3.3s-2.7-5.5,1-10.5c3.4-4.7,6.2-5.3,9.1-3.1c2.5,1.9,0.8,6.3-2,10.3
	L87.7,18c2.7-3.8,3.9-7.5,2.3-8.5c-2.2-1.7-4.2-1.2-7.2,2.9c-3.3,4.5-3.1,7.4-1.3,8.6S85.9,20.9,87.7,18z"/>
<g>
	<defs>
		<path id="SVGID_100_" d="M87.7,18l1.1,0.8c-2.8,4-5.4,5.1-8.1,3.3s-2.7-5.5,1-10.5c3.4-4.7,6.2-5.3,9.1-3.1
			c2.5,1.9,0.8,6.3-2,10.3L87.7,18c2.7-3.8,3.9-7.5,2.3-8.5c-2.2-1.7-4.2-1.2-7.2,2.9c-3.3,4.5-3.1,7.4-1.3,8.6S85.9,20.9,87.7,18z"
			/>
	</defs>
	<clipPath id="SVGID_101_">
		<use xlink:href="#SVGID_100_"  style="overflow:visible;"/>
	</clipPath>
	<g class="st58">
		<path class="st2" d="M87.7,18l1.1,0.8c-2.8,4-5.4,5.1-8.1,3.3s-2.7-5.5,1-10.5c3.4-4.7,6.2-5.3,9.1-3.1c2.5,1.9,0.8,6.3-2,10.3
			L87.7,18c2.7-3.8,3.9-7.5,2.3-8.5c-2.2-1.7-4.2-1.2-7.2,2.9c-3.3,4.5-3.1,7.4-1.3,8.6S85.9,20.9,87.7,18"/>
		<path class="st5" d="M90.3,8.7c-0.2,0-0.4-0.1-0.6-0.2c-1.2-0.4-3.3-1.2-6.2,2.2c-4.6,5.3-3.8,8.5-3.6,9.5c0,0.1,0.1,0.4,0,0.4
			s-1.5-1.1-0.9-4.1s3.8-7,5.5-8.2c3.6-2.7,5.7,0.1,5.7,0.1S90.3,8.5,90.3,8.7L90.3,8.7"/>
		<path class="st2" d="M78.8,18.4c0.1,3,1.8,3.3,2.9,3.5c1.8,0.3,3.3-0.3,5-2.1c0.5-0.5,0.9-1.1,1.3-1.6l0.7,0.5
			c-2.8,4-5.4,5.1-8.1,3.3C79.5,21.2,78.8,19.8,78.8,18.4L78.8,18.4C78.8,18.4,78.8,18.4,78.8,18.4"/>
		<path class="st2" d="M88,18.2c1.5-2,2.6-4.4,3.2-6.9c0.4-2.2,0.4-2.5-1.3-3.6c0.3,0.2,0.6,0.4,0.9,0.6c2.5,1.9,0.8,6.3-2,10.3
			L88,18.2"/>
		<path class="st9" d="M89.1,7.9c0,0-0.2,0-0.4,0c-0.8-0.1-3.3-0.3-5.9,3c-1.1,1.4-3.7,5.1-3.2,8.3c0.1,0.7,0.1,0.7,0,0.8
			s-1.7-1.9,1.1-6.4c1.4-2.1,3-4,4.9-5.6C87.3,6.9,89,7.6,89.1,7.9C89.1,7.9,89.1,7.9,89.1,7.9"/>
		<path class="st11" d="M79.8,15.8V16c-0.2,0.8-0.3,1.6-0.4,2.4c0,0.3,0,0.7,0,1c-0.5-0.6-0.2-2.7,0.4-3.7L79.8,15.8"/>
		<path class="st11" d="M88.2,7.7c-0.1,0-0.2,0-0.3,0c-0.3,0-0.7,0.1-1,0.1c0,0-0.3,0.1-0.6,0.1C85.9,8,85.9,8,85.8,8
			C86.5,7.4,87.5,7.3,88.2,7.7L88.2,7.7"/>
	</g>
</g>
<path class="st0" d="M177.8,18.9l1-0.8c1.5,2.1-0.8,4.3-1.7,6.2l-1.5,0.1C176.9,21.7,178.6,19.9,177.8,18.9z"/>
<g>
	<defs>
		<path id="SVGID_102_" d="M177.8,18.9l1-0.8c1.5,2.1-0.8,4.3-1.7,6.2l-1.5,0.1C176.9,21.7,178.6,19.9,177.8,18.9z"/>
	</defs>
	<clipPath id="SVGID_103_">
		<use xlink:href="#SVGID_102_"  style="overflow:visible;"/>
	</clipPath>
	<g class="st59">
		<path class="st2" d="M177.8,18.9l1-0.8c1.5,2.1-0.8,4.3-1.7,6.2l-1.5,0.1C176.9,21.7,178.6,19.9,177.8,18.9"/>
		<path class="st2" d="M176.2,24.3c0.6-1.3,1.5-2.5,2.1-3.9c0.8-1.8,0.7-2,0.5-2.3l0,0c1.5,2.1-0.8,4.3-1.7,6.2L176.2,24.3"/>
		<path class="st57" d="M176.6,24.3c0.6-1.5,1.8-2.7,2.3-4.3c0.4-0.6,0.3-1.4-0.1-1.9c1.5,2.1-0.8,4.3-1.7,6.2L176.6,24.3"/>
	</g>
</g>
<path class="st0" d="M175.7,24.3l1.5-0.1c2.5,4.2,6.6,12.3-1.3,16l-0.6-1.2C181.9,36.1,178.4,28.9,175.7,24.3z"/>
<g>
	<defs>
		<path id="SVGID_104_" d="M175.7,24.3l1.5-0.1c2.5,4.2,6.6,12.3-1.3,16l-0.6-1.2C181.9,36.1,178.4,28.9,175.7,24.3z"/>
	</defs>
	<clipPath id="SVGID_105_">
		<use xlink:href="#SVGID_104_"  style="overflow:visible;"/>
	</clipPath>
	<g class="st60">
		<path class="st2" d="M175.7,24.3l1.5-0.1c2.5,4.2,6.6,12.3-1.3,16l-0.6-1.2C181.9,36.1,178.4,29,175.7,24.3"/>
		<path class="st2" d="M175.5,39.4c5.2-2.8,5.7-7.9,1.5-15.2h0.1c2.5,4.2,6.6,12.3-1.3,16L175.5,39.4"/>
		<path class="st57" d="M175.7,39.7c7.1-3.8,4.7-10,1.5-15.5c2.5,4.2,6.6,12.3-1.2,16L175.7,39.7"/>
	</g>
</g>
<path class="st0" d="M175.4,39l0.6,1.2c-4.7,2.2-7.2,0.6-9.2-1.5l1-0.9C169.4,39.6,171.4,40.9,175.4,39z"/>
<g>
	<defs>
		<path id="SVGID_106_" d="M175.4,39l0.6,1.2c-4.7,2.2-7.2,0.6-9.2-1.5l1-0.9C169.4,39.6,171.4,40.9,175.4,39z"/>
	</defs>
	<clipPath id="SVGID_107_">
		<use xlink:href="#SVGID_106_"  style="overflow:visible;"/>
	</clipPath>
	<g class="st61">
		<path class="st2" d="M175.4,39l0.6,1.2c-4.7,2.2-7.2,0.6-9.2-1.5l1-0.9C169.4,39.6,171.4,40.9,175.4,39"/>
		<path class="st2" d="M166.8,38.7C166.8,38.7,166.9,38.7,166.8,38.7c2.4,2.1,5.3,2.3,8.7,0.7l0.4,0.8
			C171.2,42.4,168.7,40.8,166.8,38.7L166.8,38.7"/>
	</g>
</g>
<path class="st0" d="M167.7,37.8l-1,0.9c-2.2-2.6,1-6.3,3.4-5.1c0.9,0.4,0.7,1.4,1.7,1.8l-0.6,1.2c-1.7-0.9-1.5-1.8-1.8-1.9
	C168.5,34.2,166.4,36.5,167.7,37.8z"/>
<g>
	<defs>
		<path id="SVGID_108_" d="M167.7,37.8l-1,0.9c-2.2-2.6,1-6.3,3.4-5.1c0.9,0.4,0.7,1.4,1.7,1.8l-0.6,1.2c-1.7-0.9-1.5-1.8-1.8-1.9
			C168.5,34.2,166.4,36.5,167.7,37.8z"/>
	</defs>
	<clipPath id="SVGID_109_">
		<use xlink:href="#SVGID_108_"  style="overflow:visible;"/>
	</clipPath>
	<g class="st62">
		<path class="st5" d="M167.7,37.8l-1,0.9c-2.2-2.6,1-6.3,3.4-5.1c0.9,0.4,0.7,1.4,1.7,1.8l-0.6,1.2c-1.7-0.9-1.5-1.8-1.8-1.9
			C168.4,34.2,166.3,36.5,167.7,37.8"/>
		<path class="st5" d="M171.8,35.6c0,0-1-0.1-0.5,0.5c0,0.1,0.1,0.1,0.2,0.2l-0.2,0.5c-1.7-0.9-1.5-1.8-1.8-1.9
			c-1-0.6-3.1,1.6-1.8,3l-1,0.9c-2.2-2.6,1-6.3,3.4-5.1C170.9,34.1,170.7,35,171.8,35.6L171.8,35.6"/>
		<path class="st5" d="M170,34.2c0,0-0.2,0.2-0.3,0.2c-0.9-0.1-1.7,0.3-2.2,1c-0.5,0.7-0.7,1.5-0.5,2.3c0,0.3,0,0.4-0.1,0.5
			s-0.7-0.6-0.8-1.5c-0.2-2.2,2.8-4,3.9-3C170.1,33.9,170.1,34.1,170,34.2"/>
		<path class="st9" d="M169.7,34c-0.1,0-0.3,0.1-0.4,0.1c-0.8,0-1.5,0.4-2.1,0.9c-0.5,0.7-0.7,1.6-0.6,2.5c0,0.1,0,0.2-0.1,0.3
			s-0.5-0.6-0.4-1.5c0.1-0.3,0.2-0.6,0.4-0.9c0-0.1,0.1-0.1,0.1-0.2l0.1-0.1l0.1-0.1c0,0,0.1-0.1,0.2-0.1c0.3-0.3,0.6-0.6,0.9-0.9
			c0.7-0.5,1.6-0.4,1.8-0.1C169.8,33.9,169.8,34,169.7,34"/>
		<path class="st2" d="M171.7,35.4c-0.5-0.3-0.9-0.7-1.1-1.2c-0.1-0.2-0.3-0.4-0.5-0.5C170.9,34.1,170.8,34.9,171.7,35.4L171.7,35.4
			"/>
		<path class="st11" d="M169.4,33.9c-0.1,0-0.2,0.1-0.3,0.1l0,0l-0.7,0.1c-0.1,0-0.2,0-0.2,0s0.8-0.6,1.2-0.3
			C169.5,33.9,169.4,33.9,169.4,33.9"/>
		<path class="st11" d="M166.6,35.9C166.6,36,166.6,36,166.6,35.9v0.4c0,0.3,0,0.3-0.1,0.8c0,0.2,0,0.3,0,0.3l0,0
			c-0.1,0-0.2-0.4-0.2-0.8c0-0.3,0.1-0.6,0.3-0.8l0,0C166.7,35.8,166.7,35.9,166.6,35.9"/>
		<path class="st2" d="M166,37c0,0.7,0.3,1.3,0.8,1.7l0,0c-0.5-0.5-0.7-1.2-0.7-1.9C166,36.8,166,36.9,166,37"/>
	</g>
</g>
<path class="st0" d="M171.2,36.7l0.6-1.2c1,0.5,2-0.4,2.5-1.1l1.1,0.8C174.8,36.1,173.1,37.7,171.2,36.7z"/>
<g>
	<defs>
		<path id="SVGID_110_" d="M171.2,36.7l0.6-1.2c1,0.5,2-0.4,2.5-1.1l1.1,0.8C174.8,36.1,173.1,37.7,171.2,36.7z"/>
	</defs>
	<clipPath id="SVGID_111_">
		<use xlink:href="#SVGID_110_"  style="overflow:visible;"/>
	</clipPath>
	<g class="st63">
		<path class="st5" d="M171.2,36.7l0.6-1.2c1,0.5,2-0.4,2.5-1.1l1.1,0.8C174.8,36.1,173.1,37.6,171.2,36.7"/>
		<path class="st5" d="M175.4,35.2c-0.6,0.9-2.3,2.4-4.2,1.5l0.4-0.9l0,0c0.3,1,2.1,0.9,3.4-0.9L175.4,35.2"/>
		<path class="st5" d="M174.3,34.4c-0.3,0.5-0.7,0.8-1.3,1.1c-0.3,0.2-0.7,0.2-1.1,0.1c-0.1,0-0.1,0-0.2,0v-0.1
			C172.8,36,173.8,35.1,174.3,34.4L174.3,34.4"/>
		<path class="st56" d="M175.4,35.2c-0.6,0.9-2.3,2.4-4.2,1.5v-0.1l0,0c1,0.5,2.2,0.4,3-0.3l0.2-0.1
			C174.8,35.9,175.1,35.5,175.4,35.2L175.4,35.2"/>
		<path class="st56" d="M172.2,35.7c-0.1,0-0.3-0.1-0.4-0.1l0,0c0.2,0.1,0.4,0.1,0.6,0.2L172.2,35.7"/>
		<path class="st56" d="M174.3,34.4c-0.1,0.2-0.2,0.3-0.4,0.4C174.1,34.7,174.2,34.6,174.3,34.4L174.3,34.4"/>
	</g>
</g>
<path class="st0" d="M175.4,35.2l-1.1-0.8c0.4-1,0.4-2,0-3l1.3-0.5C176,32,176.3,34,175.4,35.2z"/>
<g>
	<defs>
		<path id="SVGID_112_" d="M175.4,35.2l-1.1-0.8c0.4-1,0.4-2,0-3l1.3-0.5C176,32,176.3,34,175.4,35.2z"/>
	</defs>
	<clipPath id="SVGID_113_">
		<use xlink:href="#SVGID_112_"  style="overflow:visible;"/>
	</clipPath>
	<g class="st64">
		<path class="st5" d="M175.4,35.2l-1.1-0.8c0.4-1,0.4-2,0-3l1.3-0.5C176,32,176.3,33.9,175.4,35.2"/>
		<path class="st5" d="M175.6,30.9c0.6,1.4,0.5,3-0.2,4.3l-0.4-0.3l0,0c0.4-0.7,0.4-1.6-0.1-2.3c0,0-0.1,0.1-0.1,0.1
			c-0.1,0.3-0.1,0.6-0.2,1c-0.1,0.3-0.2,0.5-0.3,0.8c0.4-1,0.4-2,0-3L175.6,30.9"/>
		<path class="st56" d="M174.4,31.4c0.2,0.8,0.5,2.2-0.1,3.1c0.4-1,0.4-2,0-3L174.4,31.4"/>
		<path class="st56" d="M175.6,30.9c0.6,1.4,0.5,3-0.2,4.3l0,0l0,0C176.1,33.9,176.1,32.3,175.6,30.9L175.6,30.9"/>
		<path class="st2" d="M174.3,31.4c0.2,0.5,0.3,1.1,0.3,1.7C174.6,32.5,174.5,31.9,174.3,31.4L174.3,31.4"/>
	</g>
</g>
<path class="st0" d="M175.6,30.9l-1.3,0.5c-0.4-1-0.9-1.9-1.5-2.8l0.2-2.4C174.2,28.4,175.6,30.3,175.6,30.9z"/>
<g>
	<defs>
		<path id="SVGID_114_" d="M175.6,30.9l-1.3,0.5c-0.4-1-0.9-1.9-1.5-2.8l0.2-2.4C174.2,28.4,175.6,30.3,175.6,30.9z"/>
	</defs>
	<clipPath id="SVGID_115_">
		<use xlink:href="#SVGID_114_"  style="overflow:visible;"/>
	</clipPath>
	<g class="st65">
		<path class="st5" d="M175.6,30.9l-1.3,0.5c-0.4-1-0.9-1.9-1.5-2.8l0.2-2.4C174.2,28.4,175.6,30.3,175.6,30.9"/>
		<path class="st5" d="M173.1,26.2c1.2,2.2,2.6,4.1,2.5,4.7l-0.7,0.3l0,0c-0.2,0-0.4,0.1-0.4,0.2h-0.1c-0.4-1-0.9-1.9-1.5-2.8
			L173.1,26.2"/>
		<path class="st56" d="M172.9,27.8c0.4-0.2,0.4-0.2,0.1-1.1v-0.6c1.2,2.2,2.6,4.1,2.5,4.7l0,0l0,0c-0.1-0.5-1-1.6-1.2-1.2
			c-0.3,0.6,0.1,1.1,0,1.6c-0.4-1-0.9-1.9-1.5-2.8L172.9,27.8"/>
		<path class="st2" d="M172.9,28.6c1.1,1.8,1.4,2.3,1.5,2.8C174,30.4,173.5,29.5,172.9,28.6L172.9,28.6"/>
	</g>
</g>
<path class="st0" d="M173.1,26.2l-0.2,2.4c-5.6,7.1-20.6,15.1-21,8.9l1.3-0.1C152.8,41.9,166.5,34.6,173.1,26.2z"/>
<g>
	<defs>
		<path id="SVGID_116_" d="M173.1,26.2l-0.2,2.4c-5.6,7.1-20.6,15.1-21,8.9l1.3-0.1C152.8,41.9,166.5,34.6,173.1,26.2z"/>
	</defs>
	<clipPath id="SVGID_117_">
		<use xlink:href="#SVGID_116_"  style="overflow:visible;"/>
	</clipPath>
	<g class="st66">
		<path class="st11" d="M173.1,26.2l-0.2,2.4c-5.6,7.1-20.6,15.1-21,8.9l1.3-0.1C152.8,41.9,166.5,34.6,173.1,26.2"/>
		<path class="st11" d="M152.1,37.5c0,0.2,0.1,0.3,0.2,0.5c0.1-0.1,0.1-0.1,0.1-0.5l0.8-0.1c-0.4,4.5,13.3-2.8,19.9-11.2l-0.2,2.4
			c-5.6,7.1-20.6,15.1-21,8.9L152.1,37.5"/>
		<path class="st9" d="M152.1,37.5c0.1,0.9,0.4,0.8,0.4,0.8s0,0,0.1-0.8h0.7c-0.4,4.5,13.3-2.8,19.9-11.2l-0.2,2.4
			c-5.6,7.1-20.6,15.1-21,8.9L152.1,37.5"/>
		<path class="st5" d="M151.9,37.5c0.3,1.2,0.6,1.1,0.7,1.1s0.1,0,0.1-1.2h0.4c-0.4,4.5,13.3-2.8,19.9-11.2l-0.2,2.4
			C167.3,35.8,152.3,43.8,151.9,37.5L151.9,37.5"/>
		<path class="st2" d="M151.8,37.5c0.2,1.3,0.6,1.6,1.4,1.5c3-0.2,3.7-0.2,7.3-2c4.8-2.5,9.1-5.9,12.5-10.1l-0.1,1.7
			C167.3,35.7,152.3,43.7,151.8,37.5L151.8,37.5"/>
	</g>
</g>
<path class="st67" d="M87.7,18c-1.8,2.9-4.4,4.2-6.2,2.9s-2-4.1,1.3-8.6c3.1-4.1,5-4.5,7.2-2.9C91.5,10.5,90.3,14.2,87.7,18z"/>
<path class="st0" d="M160.5,46.5l0.7,1.3C100.9,49.1,52.8,70.6,46.7,72.3l2.8-2.2C52.3,69.3,100.6,47.7,160.5,46.5z"/>
<g>
	<defs>
		<path id="SVGID_118_" d="M160.5,46.5l0.7,1.3C100.9,49.1,52.8,70.6,46.7,72.3l2.8-2.2C52.3,69.3,100.6,47.7,160.5,46.5z"/>
	</defs>
	<clipPath id="SVGID_119_">
		<use xlink:href="#SVGID_118_"  style="overflow:visible;"/>
	</clipPath>
	<g class="st68">
		<path class="st2" d="M160.5,46.5l0.7,1.3C100.9,49.1,52.8,70.6,46.7,72.3l2.8-2.2C52.3,69.3,100.6,47.7,160.5,46.5"/>
		<path class="st2" d="M48.6,70.8C84.3,56.2,122.2,48.2,160.8,47l0.5,0.8C100.9,49,52.8,70.5,46.6,72.2L48.6,70.8"/>
	</g>
</g>
<path class="st0" d="M52.7,62.7l-1-1.1c20.6-6.4,56.4-18.1,112.4-18.1l-2.5,1.3C108.4,44.8,72.7,56.5,52.7,62.7z"/>
<g>
	<defs>
		<path id="SVGID_120_" d="M52.7,62.7l-1-1.1c20.6-6.4,56.4-18.1,112.4-18.1l-2.5,1.3C108.4,44.8,72.7,56.5,52.7,62.7z"/>
	</defs>
	<clipPath id="SVGID_121_">
		<use xlink:href="#SVGID_120_"  style="overflow:visible;"/>
	</clipPath>
	<g class="st69">
		<path class="st11" d="M52.7,62.7l-1-1.1c20.6-6.4,56.4-18.1,112.4-18.1l-2.5,1.3C108.3,44.8,72.7,56.5,52.7,62.7"/>
		<path class="st11" d="M163.6,43.7C112.8,44.2,83,52.2,51.9,61.8c20.4-6.6,56.2-18.3,112.2-18.4L163.6,43.7"/>
		<path class="st11" d="M161.6,44.8c-53.3,0-88.9,11.7-108.9,17.9L52.1,62l0,0c29.6-9.2,60.4-17.5,110.9-18L161.6,44.8"/>
		<path class="st9" d="M163.7,43.7c-51,0.4-80.9,8.4-111.9,18.1c20.5-6.6,56.3-18.3,112.3-18.3L163.7,43.7"/>
		<path class="st9" d="M161.6,44.8c-53.3,0-88.9,11.7-108.9,17.9l-0.4-0.5l0,0c30.8-9.6,60.4-17.5,110.6-18L161.6,44.8"/>
		<path class="st5" d="M161.6,44.8c-53.3,0-88.9,11.7-108.9,17.9l-0.3-0.3c30.8-9.6,60.4-17.5,109.9-18L161.6,44.8"/>
		<path class="st5" d="M164.1,43.5c-1.5,0.4-3.6,0-5.2,0c-50.1,0.4-85.8,11.4-107.2,18.1C72.3,55.2,108.1,43.5,164.1,43.5
			L164.1,43.5"/>
	</g>
</g>
<path class="st67" d="M52.7,62.7c20-6.2,55.7-17.9,108.9-17.9l-1.1,1.7c-59.9,1.2-108.1,22.8-111,23.6
	C48.1,72.4,52.7,62.7,52.7,62.7z"/>
<path class="st0" d="M87.1,41.1l-0.6,2.3c-0.6,0.5-12.1,10.4-17.2,6.3l0.8-1C74.1,51.9,85.1,42.8,87.1,41.1z"/>
<g>
	<defs>
		<path id="SVGID_122_" d="M87.1,41.1l-0.6,2.3c-0.6,0.5-12.1,10.4-17.2,6.3l0.8-1C74.1,51.9,85.1,42.8,87.1,41.1z"/>
	</defs>
	<clipPath id="SVGID_123_">
		<use xlink:href="#SVGID_122_"  style="overflow:visible;"/>
	</clipPath>
	<g class="st70">
		<path class="st2" d="M87.1,41.1l-0.6,2.3c-0.6,0.5-12.1,10.4-17.2,6.3l0.8-1C74.1,52,85,42.9,87.1,41.1"/>
		<path class="st2" d="M69.5,49.4c4.2,1.8,10.2-2.3,12.5-3.8l0.6-0.4c0.8-0.6,2.4-1.8,4.4-3.4l-0.4,1.6c-0.6,0.5-12.1,10.4-17.2,6.3
			L69.5,49.4"/>
	</g>
</g>
<path class="st0" d="M70.1,48.6l-0.8,1c-2.5-2.2-1.4-6.1-1.3-6.3l1.3,0.4C69.2,43.8,68.3,47,70.1,48.6z"/>
<g>
	<defs>
		<path id="SVGID_124_" d="M70.1,48.6l-0.8,1c-2.5-2.2-1.4-6.1-1.3-6.3l1.3,0.4C69.2,43.8,68.3,47,70.1,48.6z"/>
	</defs>
	<clipPath id="SVGID_125_">
		<use xlink:href="#SVGID_124_"  style="overflow:visible;"/>
	</clipPath>
	<g class="st71">
		<path class="st11" d="M70.1,48.6l-0.8,1c-2.5-2.2-1.4-6.1-1.3-6.3l1.3,0.4C69.3,43.7,68.3,47,70.1,48.6"/>
		<path class="st11" d="M68.3,43.3c-0.6,1.5-0.2,3.7,0,3.7l0,0c0-0.2,0-0.3,0-0.5c0-0.6,0-1.2,0-1.8c0-0.5,0.1-0.9,0.2-1.4l0.8,0.2
			c0,0.2-0.9,3.4,0.9,4.9l-0.8,1c-2.5-2.2-1.4-6.1-1.3-6.3L68.3,43.3"/>
		<path class="st9" d="M68.2,43.3c-0.7,2.3,0.1,4.6,0.3,4.5c0.1,0,0-0.3,0-0.6c-0.1-0.5-0.1-1.1-0.1-1.6c0-0.7,0.1-1.5,0.3-2.2
			l0.7,0.2c0,0.2-0.9,3.4,0.9,4.9l-0.8,1c-2.5-2.2-1.4-6.1-1.3-6.3L68.2,43.3"/>
		<path class="st5" d="M68,43.3c-0.8,3.2,0.7,5.3,0.9,5.2c0.1,0,0.1-0.1-0.1-0.9c-0.1-0.5-0.2-1-0.2-1.6c0-0.9,0.1-1.7,0.3-2.5
			l0.4,0.1c0,0.2-0.9,3.4,0.9,4.9l-0.8,1C66.8,47.3,67.9,43.4,68,43.3L68,43.3"/>
		<path class="st2" d="M67.7,45.7c0,0.7,0.2,3,1.8,3.8l-0.1,0.2C68.2,48.5,67.6,47.1,67.7,45.7L67.7,45.7
			C67.7,45.6,67.7,45.7,67.7,45.7"/>
	</g>
</g>
<path class="st0" d="M89.8,45.4l-0.5,1.2c-1.8-0.8-2.7-3.1-2.8-3.3l0.6-2.3C87.8,43,88.5,44.9,89.8,45.4z"/>
<g>
	<defs>
		<path id="SVGID_126_" d="M89.8,45.4l-0.5,1.2c-1.8-0.8-2.7-3.1-2.8-3.3l0.6-2.3C87.8,43,88.5,44.9,89.8,45.4z"/>
	</defs>
	<clipPath id="SVGID_127_">
		<use xlink:href="#SVGID_126_"  style="overflow:visible;"/>
	</clipPath>
	<g class="st72">
		<path class="st9" d="M89.8,45.4l-0.5,1.2c-1.8-0.8-2.7-3.1-2.8-3.3l0.6-2.3C87.8,42.9,88.5,44.9,89.8,45.4"/>
		<path class="st9" d="M86.7,42.8c0.1,0.3,0.2,0.4,0.2,0.4s0.1,0-0.1-0.7l0.4-1.4c0.7,1.9,1.4,3.8,2.7,4.3l-0.5,1.2
			c-1.8-0.8-2.7-3.1-2.8-3.3L86.7,42.8"/>
		<path class="st5" d="M86.6,43c0.3,0.8,0.9,1.7,1.1,1.6s0.1,0-0.8-2.6l0.3-1c0.7,1.9,1.4,3.8,2.7,4.3l-0.5,1.2
			c-1.8-0.8-2.7-3.1-2.8-3.3L86.6,43"/>
		<path class="st2" d="M86.5,43.3c1,2.6,2.3,2.6,3,2.7l-0.2,0.6C87.4,45.8,86.5,43.5,86.5,43.3L86.5,43.3"/>
	</g>
</g>
<path class="st0" d="M106.9,39.7l-1,2.1c-0.6,0.3-11.6,6.8-16.7,4.8l0.5-1.2C94.1,47.1,104.7,41,106.9,39.7z"/>
<g>
	<defs>
		<path id="SVGID_128_" d="M106.9,39.7l-1,2.1c-0.6,0.3-11.6,6.8-16.7,4.8l0.5-1.2C94.1,47.1,104.7,41,106.9,39.7z"/>
	</defs>
	<clipPath id="SVGID_129_">
		<use xlink:href="#SVGID_128_"  style="overflow:visible;"/>
	</clipPath>
	<g class="st73">
		<path class="st2" d="M106.9,39.7l-1,2.1c-0.6,0.3-11.6,6.8-16.7,4.8l0.5-1.2C94.1,47.1,104.7,41,106.9,39.7"/>
		<path class="st2" d="M89.5,46c2.6,0.5,5.7-0.1,10.3-2.1l0.6-0.3c2.1-1,4.2-2,6.1-3.2l-0.7,1.5c-0.6,0.3-11.6,6.8-16.7,4.8L89.5,46
			"/>
	</g>
</g>
<path class="st0" d="M64.9,40l-1.2,3.7C52.6,57.8,42,57.7,40.4,52l1.3-0.4C42.8,56,52,56.3,64.9,40z"/>
<g>
	<defs>
		<path id="SVGID_130_" d="M64.9,40l-1.2,3.7C52.6,57.8,42,57.7,40.4,52l1.3-0.4C42.8,56,52,56.3,64.9,40z"/>
	</defs>
	<clipPath id="SVGID_131_">
		<use xlink:href="#SVGID_130_"  style="overflow:visible;"/>
	</clipPath>
	<g class="st74">
		<path class="st9" d="M64.9,40l-1.2,3.7C52.6,57.8,42,57.7,40.4,52l1.3-0.4C42.8,55.9,52,56.3,64.9,40"/>
		<path class="st9" d="M40.6,52c0.2,0.1,0.2,0.3,0.3,0.4c0.1-0.2,0.1-0.4,0-0.5l0.7-0.2C42.7,56,52,56.4,64.9,40l-1.2,3.7
			C52.6,57.8,42,57.7,40.4,52L40.6,52"/>
		<path class="st5" d="M40.5,52c0.5,1.2,0.8,1.1,0.8,1.1s0,0-0.2-1.3l0.5-0.1C42.7,56,51.9,56.3,64.9,40l-1.2,3.7
			C52.6,57.8,42,57.7,40.4,52L40.5,52"/>
		<path class="st2" d="M40.4,52c0.1,0,0.1,0.2,0.1,0.3c0.5,1.4,1.3,1.9,3.5,2.3c2.2,0.3,4.4-0.1,6.4-1c6.1-2.7,10.8-8.1,14.2-12.4
			l-0.8,2.5C52.6,57.8,42,57.7,40.4,52L40.4,52"/>
	</g>
</g>
<path class="st0" d="M121,38.7l-0.4,1.8c-13.4,8-14.6,1.7-14.7,1.4l1-2.1C107.3,41.7,107.7,46.6,121,38.7z"/>
<g>
	<defs>
		<path id="SVGID_132_" d="M121,38.7l-0.4,1.8c-13.4,8-14.6,1.7-14.7,1.4l1-2.1C107.3,41.7,107.7,46.6,121,38.7z"/>
	</defs>
	<clipPath id="SVGID_133_">
		<use xlink:href="#SVGID_132_"  style="overflow:visible;"/>
	</clipPath>
	<g class="st75">
		<path class="st11" d="M121,38.7l-0.4,1.8c-13.4,8-14.6,1.7-14.7,1.4l1-2.1C107.3,41.7,107.8,46.6,121,38.7"/>
		<path class="st11" d="M106.2,41.3v0.1c0.1-0.1,0.1-0.1,0.1-0.4l0.6-1.4c0.4,2,0.8,6.9,14.1-1l-0.4,1.8c-13.4,8-14.6,1.7-14.7,1.4
			L106.2,41.3"/>
		<path class="st9" d="M106.1,41.4c0.1,0.6,0.3,0.6,0.3,0.6s0-1.2,0-1.2l0.5-1.1c0.4,2,0.8,6.9,14.1-1l-0.4,1.8
			c-13.4,8-14.6,1.7-14.7,1.4L106.1,41.4"/>
		<path class="st5" d="M106.1,41.6c0.2,0.8,0.6,1.1,0.7,1s-0.2-2.1-0.2-2.1l0.4-0.8c0.4,2,0.8,6.9,14.1-1l-0.4,1.8
			c-13.4,8-14.6,1.7-14.7,1.4L106.1,41.6"/>
		<path class="st2" d="M106,41.8c0.5,2.4,3.8,1.9,5.2,1.6c3.2-0.6,6.6-2.4,9.8-4.3l-0.2,1.2C107.2,48.4,106,42.2,106,41.8L106,41.8"
			/>
	</g>
</g>
<path class="st0" d="M18.8,62.3l0.4,1.9c-3.2-1.9-6.7-3.5-10.3-4.6l1.9-0.8C13.6,59.8,16.3,61,18.8,62.3z"/>
<g>
	<defs>
		<path id="SVGID_134_" d="M18.8,62.3l0.4,1.9c-3.2-1.9-6.7-3.5-10.3-4.6l1.9-0.8C13.6,59.8,16.3,61,18.8,62.3z"/>
	</defs>
	<clipPath id="SVGID_135_">
		<use xlink:href="#SVGID_134_"  style="overflow:visible;"/>
	</clipPath>
	<g class="st76">
		<path class="st2" d="M18.8,62.3l0.4,1.9c-3.2-1.9-6.7-3.5-10.3-4.6l1.9-0.8C13.6,59.8,16.3,60.9,18.8,62.3"/>
		<path class="st2" d="M9.9,59.3c4.4,1.6,7.8,3.2,9.2,4.4l0.1,0.6c-3.2-1.9-6.7-3.5-10.3-4.6L9.9,59.3"/>
	</g>
</g>
<path class="st0" d="M10.8,58.9l-1.9,0.8L31.8,16l0.7,1.5L10.8,58.9z"/>
<g>
	<defs>
		<polygon id="SVGID_136_" points="10.8,58.9 8.9,59.7 31.8,16 32.5,17.5 		"/>
	</defs>
	<clipPath id="SVGID_137_">
		<use xlink:href="#SVGID_136_"  style="overflow:visible;"/>
	</clipPath>
	<g class="st77">
		<path class="st5" d="M32.6,17.5L10.8,58.9l-0.6,0.2L32.3,17L32.6,17.5"/>
		<path class="st9" d="M32.3,17L10.3,59.1l-0.5,0.2l22.4-42.7L32.3,17"/>
		<path class="st11" d="M32.2,16.7L9.8,59.3l-0.5,0.2L32,16.3L32.2,16.7"/>
		<path class="st9" d="M32,16.3L9.3,59.5l-0.3,0.1L31.8,16L32,16.3"/>
		<path class="st5" d="M31.8,16L8.9,59.7l0,0L31.8,16L31.8,16"/>
	</g>
</g>
<path class="st0" d="M137.8,32.8l1.1,1.2c-1.2,5.9-12.9,13.7-18.3,6.5l0.4-1.8C126.1,45.7,136.6,38.8,137.8,32.8z"/>
<g>
	<defs>
		<path id="SVGID_138_" d="M137.8,32.8l1.1,1.2c-1.2,5.9-12.9,13.7-18.3,6.5l0.4-1.8C126.1,45.7,136.6,38.8,137.8,32.8z"/>
	</defs>
	<clipPath id="SVGID_139_">
		<use xlink:href="#SVGID_138_"  style="overflow:visible;"/>
	</clipPath>
	<g class="st78">
		<path class="st2" d="M137.8,32.8l1.1,1.2c-1.2,5.9-12.9,13.7-18.3,6.5l0.4-1.8C126.1,45.7,136.6,38.8,137.8,32.8"/>
		<path class="st2" d="M120.7,40.4c4.1,4.9,15.6,0.2,17.6-7.1l0.7,0.7C137.7,39.9,126,47.6,120.7,40.4L120.7,40.4"/>
	</g>
</g>
<path class="st0" d="M146.4,29l-4,3.5c-1.1,0.6-2.3,1.1-3.5,1.5l-1.1-1.2C139.3,32.6,141.7,31.4,146.4,29z"/>
<g>
	<defs>
		<path id="SVGID_140_" d="M146.4,29l-4,3.5c-1.1,0.6-2.3,1.1-3.5,1.5l-1.1-1.2C139.3,32.6,141.7,31.4,146.4,29z"/>
	</defs>
	<clipPath id="SVGID_141_">
		<use xlink:href="#SVGID_140_"  style="overflow:visible;"/>
	</clipPath>
	<g class="st79">
		<path class="st2" d="M146.4,29l-4,3.5c-1.1,0.6-2.3,1.1-3.5,1.5l-1.1-1.2C139.3,32.5,141.7,31.3,146.4,29"/>
		<path class="st2" d="M138.2,33.2c1.1-0.2,3.2-1.2,7-3.1l-2.8,2.4c-1.1,0.6-2.3,1.1-3.5,1.5L138.2,33.2"/>
	</g>
</g>
<path class="st0" d="M2,23.8H1.6H0.5c0.2-0.4,3.6-8.7,5.2-12.7L7,11.6C5.4,15.7,1.9,24,2,23.8z"/>
<g>
	<defs>
		<path id="SVGID_142_" d="M2,23.8H1.6H0.5c0.2-0.4,3.6-8.7,5.2-12.7L7,11.6C5.4,15.7,1.9,24,2,23.8z"/>
	</defs>
	<clipPath id="SVGID_143_">
		<use xlink:href="#SVGID_142_"  style="overflow:visible;"/>
	</clipPath>
	<g class="st80">
		<path class="st5" d="M2,23.8H1.6H0.5c0.2-0.4,3.6-8.7,5.2-12.7L7,11.6C5.3,15.6,2,23.9,2,23.8"/>
		<path class="st5" d="M7,11.7c-1.6,4-5,12.3-5,12.2H1.4c0-0.1,0-0.1,0.2-0.5c3.3-8,4.4-10.8,4.9-11.9L7,11.7"/>
		<path class="st5" d="M5.7,11.2C4,15.7,0.5,23.8,0.5,23.9C0.7,23.5,4.1,15.2,5.7,11.2L5.7,11.2"/>
		<path class="st56" d="M5.7,11.2c-1.8,4.5-4.9,11.9-5.2,12.7C0.7,23.5,4.1,15.2,5.7,11.2L5.7,11.2"/>
		<path class="st56" d="M7,11.7c-1.6,4-5,12.3-5,12.2H1.6c0.1-0.1,0.2-0.1,0.3-0.2l0.1-0.2l0.1-0.3l0.2-0.4l0.2-0.5l0.2-0.6L3.1,21
			l0.3-0.7C5,16.3,6,13.8,7,11.7L7,11.7"/>
		<path class="st2" d="M2,23.8H1.7h0.1C1.8,23.8,1.9,23.8,2,23.8"/>
		<path class="st57" d="M2,23.8L2,23.8"/>
	</g>
</g>
<path class="st0" d="M64.4,45.4c-0.1-0.4-0.1-0.6-0.2-1.1c0,0,4.3-3.2,5-0.7l-1.3-0.4c0.1-0.4-3.3,2.4-3.5,2.6L64.4,45.4z"/>
<g>
	<defs>
		<path id="SVGID_144_" d="M64.4,45.4c-0.1-0.4-0.1-0.6-0.2-1.1c0,0,4.3-3.2,5-0.7l-1.3-0.4c0.1-0.4-3.3,2.4-3.5,2.6L64.4,45.4z"/>
	</defs>
	<clipPath id="SVGID_145_">
		<use xlink:href="#SVGID_144_"  style="overflow:visible;"/>
	</clipPath>
	<g class="st81">
		<path class="st11" d="M64.4,45.4c-0.1-0.4-0.1-0.6-0.2-1.1c0,0,4.3-3.2,5-0.7l-1.3-0.4c0.1-0.4-3.3,2.4-3.5,2.6L64.4,45.4"/>
		<path class="st11" d="M64.4,45.4v-0.2v-0.1V45v-0.1v-0.1v-0.1v-0.1v-0.1v-0.1c0,0,4.3-3.2,5-0.7l-0.8-0.2l0,0
			c-0.1,0-0.1-0.1-0.2-0.1l-0.3-0.1c0.1-0.4-3.3,2.4-3.5,2.6l-0.1-0.4"/>
		<path class="st9" d="M64.4,45.4v-0.2v-0.1V45v-0.1v-0.1v-0.1v-0.1v-0.1v-0.1c0,0,4.3-3.2,5-0.7l-0.6-0.2l0,0
			c-0.1-0.1-0.3-0.2-0.4-0.1l-0.2-0.1c0.1-0.4-3.3,2.4-3.5,2.6l-0.1-0.4"/>
		<path class="st5" d="M64.4,45.4v-0.2v-0.1V45v-0.1v-0.1v-0.1v-0.1v-0.1v-0.1c0,0,4.3-3.2,5-0.7L69,43.5l0,0
			c-0.1-0.1-0.1-0.2-0.3-0.3s-0.3,0.1-0.5,0h-0.1c0.1-0.4-3.3,2.4-3.5,2.6l-0.1-0.4"/>
		<path class="st2" d="M64.4,45.4v-0.2v-0.1V45v-0.1v-0.1v-0.1v-0.1v-0.1v-0.1l0,0l0.1,0.5c0.8-0.7,1.7-1.2,2.6-1.7
			c1.1-0.5,1.5-0.2,1.5-0.1s-0.3,0.1-0.4,0.2l0,0c0-0.4-3.3,2.4-3.5,2.6l-0.1-0.4"/>
	</g>
</g>
<path class="st0" d="M44.7,19c-0.4,0.2-0.5,0.3-0.9,0.5c0.2-0.1-5-0.7-11.3-2L31.8,16c7.7,1.6,12.9,2.1,14.6,2.1L44.7,19z"/>
<g>
	<defs>
		<path id="SVGID_146_" d="M44.7,19c-0.4,0.2-0.5,0.3-0.9,0.5c0.2-0.1-5-0.7-11.3-2L31.8,16c7.7,1.6,12.9,2.1,14.6,2.1L44.7,19z"/>
	</defs>
	<clipPath id="SVGID_147_">
		<use xlink:href="#SVGID_146_"  style="overflow:visible;"/>
	</clipPath>
	<g class="st82">
		<path class="st11" d="M44.7,19c-0.4,0.2-0.5,0.3-0.9,0.5c0.2-0.1-5-0.7-11.3-2L31.8,16c7.7,1.6,12.9,2.1,14.6,2.1L44.7,19"/>
		<path class="st11" d="M45.9,18.4L45.9,18.4c-1.6-0.2-3.1-0.2-4.6-0.4c-2.4-0.3-4.7-1-7.1-1c3.4,0.7,6.9,1.3,10.3,1.6
			c0.2,0,0.4,0,0.7,0.1c0,0,0,0,0,0.1l0,0L44.7,19l0,0l-0.5,0.3L44,19.4l-0.2,0.1c0.2-0.1-4.9-0.7-11.3-2L31.8,16
			c7.7,1.6,12.9,2.1,14.6,2.1L45.9,18.4"/>
		<path class="st9" d="M46.1,18.3c-1.9-0.2-3.9-0.3-5.8-0.6c-3.7-0.5-6.7-1.1-8.3-1.4L31.8,16c7.7,1.6,12.9,2.1,14.6,2.1L46.1,18.3"
			/>
		<path class="st9" d="M44.7,19l-0.5,0.3L44,19.4l-0.2,0.1c0.2-0.1-4.9-0.7-11.3-2l-0.4-0.8l0,0c4.1,0.9,8.3,1.6,12.5,2H45
			c0,0,0,0.1,0,0.1l0,0L44.7,19"/>
		<path class="st5" d="M44.7,19l-0.5,0.3L44,19.4l-0.2,0.1c0.2-0.1-4.9-0.7-11.3-2L32.3,17l0,0C36.4,17.9,40.5,18.6,44.7,19
			C44.7,19,44.7,19,44.7,19L44.7,19L44.7,19"/>
		<path class="st5" d="M46.4,18.1c-0.4,0-4.3,0.1-14.6-2.1C39.5,17.6,44.8,18.1,46.4,18.1L46.4,18.1"/>
		<path class="st2" d="M44.7,19l-0.5,0.3L44,19.4l-0.2,0.1l0,0C44.1,19.3,44.4,19.1,44.7,19L44.7,19"/>
	</g>
</g>
<path class="st0" d="M19.2,64.1c-0.1-0.5-0.4-0.9-0.7-1.3c0,0,0.4-0.9,0.8-1.9c0.9-2.5,5.2-8.7,9.7-12.5c4.8-4.1,10.6-5.5,12.7,3.1
	L40.4,52c-1.7-7.4-6.2-6.1-10.5-2.5s-8.5,9.7-9.3,11.9C20.2,62.4,19.8,63.3,19.2,64.1L19.2,64.1z"/>
<g>
	<defs>
		<path id="SVGID_148_" d="M19.2,64.1c-0.1-0.5-0.4-0.9-0.7-1.3c0,0,0.4-0.9,0.8-1.9c0.9-2.5,5.2-8.7,9.7-12.5
			c4.8-4.1,10.6-5.5,12.7,3.1L40.4,52c-1.7-7.4-6.2-6.1-10.5-2.5s-8.5,9.7-9.3,11.9C20.2,62.4,19.8,63.3,19.2,64.1L19.2,64.1z"/>
	</defs>
	<clipPath id="SVGID_149_">
		<use xlink:href="#SVGID_148_"  style="overflow:visible;"/>
	</clipPath>
	<g class="st83">
		<path class="st11" d="M19.2,64.1c-0.1-0.5-0.4-0.9-0.7-1.3c0,0,0.4-0.9,0.8-1.9c0.9-2.5,5.2-8.7,9.7-12.5
			c4.8-4.1,10.6-5.5,12.7,3.1L40.4,52c-1.7-7.4-6.2-6.1-10.5-2.5s-8.5,9.7-9.3,11.9C20.2,62.4,19.8,63.3,19.2,64.1L19.2,64.1"/>
		<path class="st11" d="M19.2,64.1V64V64v-0.1v-0.1v-0.1v-0.1v-0.1v-0.1l-0.1-0.1l0-0.1l-0.1-0.1L19,63.1L18.9,63l-0.1-0.1l-0.1-0.1
			c0,0,0.4-0.9,0.8-1.9c0.9-2.5,5.2-8.7,9.7-12.5c4.8-4.1,10.6-5.5,12.7,3.1L41,51.9l0,0l-0.1-0.2v0.2L40.6,52
			c-1.7-7.4-6.2-6.1-10.5-2.5s-8.5,9.7-9.3,11.9c-0.4,1-0.8,1.9-1.3,2.8v-0.1"/>
		<path class="st9" d="M19.2,64.1V64V64v-0.1v-0.1v-0.1v-0.1v-0.1v-0.1l-0.1-0.1l0-0.1l-0.1-0.1L19,63.1L18.9,63l-0.1-0.1l-0.1-0.1
			c0,0,0.4-0.9,0.8-1.9c0.9-2.5,5.2-8.7,9.7-12.5c4.8-4.1,10.6-5.5,12.7,3.1l-0.7,0.2l0,0c-0.2-0.7-0.4-1.5-0.8-2.1
			c0.1,0.8,0.2,1.5,0.5,2.2L40.6,52c-1.7-7.4-6.2-6.1-10.5-2.5s-8.5,9.7-9.3,11.9c-0.4,1-0.8,1.9-1.3,2.8v-0.1"/>
		<path class="st5" d="M19.2,64.1V64V64v-0.1v-0.1v-0.1v-0.1v-0.1v-0.1l-0.1-0.1l0-0.1l-0.1-0.1L19,63.1L18.9,63l-0.1-0.1l-0.1-0.1
			c0,0,0.4-0.9,0.8-1.9c0.9-2.5,5.2-8.7,9.7-12.5c4.8-4.1,10.6-5.5,12.7,3.1l-0.5,0.1l0,0c-0.8-3.1-1.7-3.6-1.7-3.6
			s-0.1,0.1-0.1,0.1s0.1,0.3,0.2,0.5c0.4,1,0.8,2.1,1,3.2h-0.2c-1.7-7.4-6.2-6.1-10.5-2.5s-8.5,9.7-9.3,11.9c-0.4,1-0.8,1.9-1.3,2.8
			v-0.1"/>
		<path class="st2" d="M19.2,64.1V64V64v-0.1v-0.1v-0.1v-0.1v-0.1v-0.1l-0.1-0.1l0-0.1l-0.1-0.1L19,63.1L18.9,63l-0.1-0.1l-0.1-0.1
			l0,0c0.1,0.1,0.1,0.2,0.2,0.2c0.4-0.6,0.7-1.3,1-2c1.7-4.5,16.9-25.6,20.6-9.1c-1.7-7.4-6.2-6.1-10.5-2.5s-8.5,9.7-9.3,11.9
			c-0.4,1-0.8,1.9-1.3,2.8v-0.1"/>
	</g>
</g>
<path class="st0" d="M142.3,40.5c0.3-0.3,0.5-0.7,0.7-1.1c0.7-1.6,9.8-7.5,12.9-6.8l-2,0.8c-0.8-0.2-11.5,7.5-11.7,7.2L142.3,40.5z"
	/>
<g>
	<defs>
		<path id="SVGID_150_" d="M142.3,40.5c0.3-0.3,0.5-0.7,0.7-1.1c0.7-1.6,9.8-7.5,12.9-6.8l-2,0.8c-0.8-0.2-11.5,7.5-11.7,7.2
			L142.3,40.5z"/>
	</defs>
	<clipPath id="SVGID_151_">
		<use xlink:href="#SVGID_150_"  style="overflow:visible;"/>
	</clipPath>
	<g class="st84">
		<path class="st5" d="M142.3,40.5c0.3-0.3,0.5-0.7,0.7-1.1c0.7-1.6,9.8-7.5,12.9-6.8l-2,0.8c-0.8-0.2-11.5,7.5-11.7,7.2L142.3,40.5
			"/>
		<path class="st5" d="M142.3,40.6L142.3,40.6L142.3,40.6l0.1-0.1l0.1-0.1l0.1-0.1l0.1-0.1l0.1-0.1l0.1-0.1l0.1-0.1l0.1-0.1l0.1-0.1
			l0.1-0.1l0.1-0.1c0.7-1.6,9.8-7.4,12.9-6.8l-2,0.8c-0.8-0.2-11.5,7.5-11.7,7.2L142.3,40.6"/>
		<path class="st2" d="M142.2,40.7c0.1,0,0.1-0.1,0.1-0.1v-0.1l0.1-0.1l0.1-0.1l0.1-0.1l0.1-0.1l0.1-0.1l0.1-0.1l0.1-0.1l0.1-0.1
			l0.1-0.1l0.1-0.1l0.1-0.1v-0.1l0,0c2.5-1.6,4.8-3.5,7.4-4.9c3.9-2.1,4.6-1.6,4.6-1.6c0,0,0,0,0,0.1c0,0,0,0,0,0.1l-1.2,0.5
			c-0.8-0.2-11.5,7.5-11.7,7.2l0,0"/>
	</g>
</g>
<path class="st0" d="M0.6,23.9c0.5-0.3,0.9-0.8,1.2-1.3c0.9-1.9,5.7-4.7,8.5-6.2C20.7,11,45.7,0.3,60.8,12.1l-0.9,1
	c-14.3-11.2-38.7-0.9-49,4.4c-3.5,1.8-10.3,6.5-10.4,6.3L0.6,23.9z"/>
<g>
	<defs>
		<path id="SVGID_152_" d="M0.6,23.9c0.5-0.3,0.9-0.8,1.2-1.3c0.9-1.9,5.7-4.7,8.5-6.2C20.7,11,45.7,0.3,60.8,12.1l-0.9,1
			c-14.3-11.2-38.7-0.9-49,4.4c-3.5,1.8-10.3,6.5-10.4,6.3L0.6,23.9z"/>
	</defs>
	<clipPath id="SVGID_153_">
		<use xlink:href="#SVGID_152_"  style="overflow:visible;"/>
	</clipPath>
	<g class="st85">
		<path class="st5" d="M0.6,23.9c0.5-0.3,0.9-0.8,1.2-1.3c0.9-1.9,5.7-4.7,8.5-6.2C20.7,11,45.7,0.3,60.8,12.1l-0.9,1
			c-14.3-11.2-38.7-0.9-49,4.4c-3.5,1.8-10.3,6.5-10.4,6.3L0.6,23.9"/>
		<path class="st5" d="M0.5,23.9L0.5,23.9l0.4-0.2H1L1,23.6l0.1-0.1l0.1-0.1l0.1-0.1l0.1-0.1l0.1-0.1l0.1-0.1l0.1-0.1L1.5,23
			l0.1-0.1l0.1-0.1l0.1-0.1l0.1-0.1c0.9-1.9,5.7-4.7,8.5-6.2C20.7,11,45.7,0.4,60.8,12.2l-0.9,1c-14.3-11.2-38.7-0.9-49,4.4
			C7.4,19.5,0.6,24.1,0.5,23.9L0.5,23.9"/>
		<path class="st2" d="M0.5,23.9L0.5,23.9h0.2l0.2-0.2H1L1,23.7l0.1-0.1l0.1-0.1l0.1-0.1l0.1-0.1l0.1-0.1l0.1-0.1l0.1-0.1l0.1-0.1
			L1.6,23l0.1-0.1l0.1-0.1v-0.1l0,0c2.1-3,40-25.7,58.3-9.6l-0.2,0.2c-14.3-11.2-38.7-0.9-49,4.4C7.3,19.5,0.5,24.2,0.4,24l0,0"/>
	</g>
</g>
<path class="st0" d="M161.7,44.7c0.2-0.1,0.4-0.1,0.6-0.3l1.7-0.9l-2.9,4.4l-0.7-1.3L161.7,44.7z"/>
<g>
	<defs>
		<path id="SVGID_154_" d="M161.7,44.7c0.2-0.1,0.4-0.1,0.6-0.3l1.7-0.9l-2.9,4.4l-0.7-1.3L161.7,44.7z"/>
	</defs>
	<clipPath id="SVGID_155_">
		<use xlink:href="#SVGID_154_"  style="overflow:visible;"/>
	</clipPath>
	<g class="st86">
		<path class="st5" d="M160.5,46.5l1.2-1.9l0,0h0.1h0.1h0.1l0.1-0.1l0.1-0.1h0.1h0.1l-1.7,2.6l-0.2-0.4"/>
		<path class="st2" d="M160.7,46.9l1.7-2.6l1.7-0.9l-2.9,4.4L160.7,46.9"/>
	</g>
</g>
<path class="st0" d="M64.8,44.3c-0.2,0.2-0.4,0.5-0.4,0.8l0.1,0.7c-0.7-0.3-0.8-2-0.8-2.1l1.2-3.7C65,42.7,65.1,44,64.8,44.3z"/>
<g>
	<defs>
		<path id="SVGID_156_" d="M64.8,44.3c-0.2,0.2-0.4,0.5-0.4,0.8l0.1,0.7c-0.7-0.3-0.8-2-0.8-2.1l1.2-3.7C65,42.7,65.1,44,64.8,44.3z
			"/>
	</defs>
	<clipPath id="SVGID_157_">
		<use xlink:href="#SVGID_156_"  style="overflow:visible;"/>
	</clipPath>
	<g class="st87">
		<path class="st11" d="M64.8,44.3c-0.2,0.2-0.4,0.5-0.4,0.8l0.1,0.7c-0.7-0.3-0.8-2-0.8-2.1l1.2-3.7C65,42.7,65.1,44,64.8,44.3"/>
		<path class="st11" d="M63.9,43c0,1.9,0.4,2,0.4,2l0.2-0.3l0,0c0,0-0.1,0-0.2-0.6c-0.1-0.6-0.1-1.2-0.1-1.9l0.7-2.2
			c0.1,2.7,0.2,4-0.1,4.3l0,0l-0.2,0.2l-0.1,0.1l-0.1,0.1v0.1L64.5,45v0.1c0,0,0,0.1,0,0.1l0.1,0.7c-0.7-0.3-0.8-2-0.8-2.1L63.9,43"
			/>
		<path class="st9" d="M63.9,43.1c0,1.7,0.4,2,0.5,2s0-0.1,0-0.1c0.1-0.2,0.2-0.4,0.3-0.5c-0.2,0-0.3-0.2-0.4-2.6l0.6-1.9
			c0.1,2.7,0.2,4-0.1,4.3l0,0l-0.2,0.2l-0.1,0.1l-0.1,0.1v0.1L64.4,45v0.1c0,0,0,0.1,0,0.1l0.1,0.7c-0.7-0.3-0.8-2-0.8-2.1
			L63.9,43.1"/>
		<path class="st5" d="M63.8,43.4c0,1.1,0.4,1.9,0.6,1.8s0.1-0.3,0.2-0.4c0.1-0.1,0.1-0.2,0.2-0.4c0,0,0.1,0,0.1-0.1
			c-0.2-0.7-0.2-0.7-0.3-3.1l0.4-1.3c0.1,2.7,0.2,4-0.1,4.3l0,0l-0.2,0.2l-0.1,0.1l-0.1,0.1v0.1L64.5,45V45c0,0,0,0.1,0,0.1l0.1,0.7
			c-0.7-0.3-0.8-2-0.8-2.1V43.4"/>
		<path class="st2" d="M64.8,44.3L64.8,44.3L64.8,44.3L64.8,44.3"/>
		<path class="st2" d="M63.7,43.7c0,1.2,0.4,2,0.6,1.8s0-0.4,0.1-0.6V45c0,0,0,0.1,0,0.1l0.1,0.7C63.8,45.5,63.7,43.8,63.7,43.7
			L63.7,43.7"/>
	</g>
</g>
<path class="st0" d="M43.8,19.4c0.5-0.2,0.8-0.4,1.4-0.7l1.3-0.7c-0.7,1-14.7,19.9-19.3,26.3l-6.9,7.2
	C30.4,37.6,43.8,19.4,43.8,19.4z"/>
<g>
	<defs>
		<path id="SVGID_158_" d="M43.8,19.4c0.5-0.2,0.8-0.4,1.4-0.7l1.3-0.7c-0.7,1-14.7,19.9-19.3,26.3l-6.9,7.2
			C30.4,37.6,43.8,19.4,43.8,19.4z"/>
	</defs>
	<clipPath id="SVGID_159_">
		<use xlink:href="#SVGID_158_"  style="overflow:visible;"/>
	</clipPath>
	<g class="st88">
		<path class="st2" d="M43.8,19.4c0.5-0.2,0.8-0.4,1.4-0.7l1.3-0.7c-0.7,1-14.7,19.9-19.3,26.3l-6.9,7.2
			C30.4,37.5,43.8,19.4,43.8,19.4"/>
		<path class="st2" d="M43.8,19.4L43.8,19.4L43.8,19.4L43.8,19.4L43.8,19.4"/>
		<path class="st2" d="M22.4,49.2l5.3-7.2l0.9-1.3c3.3-4.4,7.3-10,14.8-20.1l0.4-0.5l0.7-1c-0.2,0-0.4,0.1-0.6,0.2l0.2-0.1h0.1
			l0.2-0.1l0.2-0.1l0.2-0.1l0.2-0.1l0.2-0.1h0.1l1.2-0.6c-0.7,1-14.7,19.9-19.3,26.3L22.4,49.2"/>
	</g>
</g>
<path class="st0" d="M154.1,25.7c0.3,0,0.7,0,1-0.1l0.8-0.2c-1.1,1.3-2,2.6-2.8,4.1l-3.4,4.2C152.4,27.8,154,25.7,154.1,25.7z"/>
<g>
	<defs>
		<path id="SVGID_160_" d="M154.1,25.7c0.3,0,0.7,0,1-0.1l0.8-0.2c-1.1,1.3-2,2.6-2.8,4.1l-3.4,4.2C152.4,27.8,154,25.7,154.1,25.7z
			"/>
	</defs>
	<clipPath id="SVGID_161_">
		<use xlink:href="#SVGID_160_"  style="overflow:visible;"/>
	</clipPath>
	<g class="st89">
		<path class="st2" d="M154.1,25.7c0.3,0,0.7,0,1-0.1l0.8-0.2c-1.1,1.3-2,2.6-2.8,4.1l-3.4,4.2C152.4,27.8,154.1,25.7,154.1,25.7"/>
		<path class="st2" d="M150.9,32.1c0.9-2.2,2.1-4.2,3.4-6.1c0.2-0.3,0.2-0.3,0.2-0.3s-0.3,0-0.4,0h0.4h0.1h0.1h0.1h0.1h0.1l0.8-0.2
			c-1.1,1.3-2,2.6-2.8,4.1l-2.2,2.7"/>
	</g>
</g>
<path class="st0" d="M49.3,70.4c-0.8,0.5-1.5,1-2.2,1.5l-0.4,0.3c0.3-0.4,4.8-10.2,5.1-10.7l0.9,1.1l0,0
	C52.6,62.6,48.9,70.7,49.3,70.4z"/>
<g>
	<defs>
		<path id="SVGID_162_" d="M49.3,70.4c-0.8,0.5-1.5,1-2.2,1.5l-0.4,0.3c0.3-0.4,4.8-10.2,5.1-10.7l0.9,1.1l0,0
			C52.6,62.6,48.9,70.7,49.3,70.4z"/>
	</defs>
	<clipPath id="SVGID_163_">
		<use xlink:href="#SVGID_162_"  style="overflow:visible;"/>
	</clipPath>
	<g class="st90">
		<path class="st9" d="M49.3,70.4c-0.8,0.5-1.5,1-2.2,1.5l-0.4,0.3c0.3-0.4,4.8-10.2,5.1-10.7l0.9,1.1l0,0
			C52.6,62.6,48.9,70.6,49.3,70.4"/>
		<path class="st9" d="M51.9,61.8c-4.6,9.6-4.6,9.6-4.8,10.1c0.1,0,0.1,0,0.2-0.1h0.1c0.3-0.2,0.5-0.4,0.6-0.7
			c1.5-2.9,2.8-6,4.2-8.9l0.5,0.6c0,0-3.7,8-3.4,7.8l0,0l-0.4,0.2l-0.2,0.1l-0.2,0.1l-0.2,0.1l-0.2,0.1L48,71.3l-0.2,0.1l-0.2,0.1
			l-0.2,0.1l-0.2,0.1l-0.1,0.1L47.1,72l0,0l-0.4,0.3c0.3-0.4,4.8-10.2,5.1-10.7L51.9,61.8"/>
		<path class="st5" d="M52.6,62.7L52.6,62.7c0,0-3.7,8-3.4,7.8l0,0l-0.4,0.2l-0.2,0.1l-0.2,0.1L48.3,71l-0.2,0.1l-0.2,0.1l-0.2,0.1
			l-0.2,0.1l-0.1,0.2l-0.2,0.1l-0.1,0.1L47.1,72l0,0l0,0l0.2-0.1h0.1c1-0.7,1-0.8,1.1-1c0.3-0.6,3.9-8.4,4-8.4L52.6,62.7"/>
		<path class="st5" d="M51.7,61.6c0,0.1-4.6,9.8-5.1,10.6C46.9,71.9,51.5,62.1,51.7,61.6L51.7,61.6"/>
		<path class="st2" d="M47.1,71.9l0.1-0.1h0.1l0,0L47.1,71.9L47.1,71.9L47.1,71.9"/>
		<path class="st2" d="M49.3,70.4l-0.4,0.2l-0.2,0.1l-0.2,0.1L48.3,71l-0.2,0.1L48,71.3l-0.2,0.1l-0.1,0.1l0,0
			C48.2,71.1,48.6,70.9,49.3,70.4L49.3,70.4"/>
		<path class="st2" d="M52.6,62.7L52.6,62.7L52.6,62.7C52.6,62.6,52.6,62.6,52.6,62.7L52.6,62.7"/>
	</g>
</g>
<path d="M117.5,61.9c0,0.4,0,0.8,0.2,1.2h-1.2c0.2-0.4,0.2-0.8,0.2-1.2v-3.4c0-0.4,0-0.8-0.2-1.2h2.8c0.2,0,0.4,0,0.4,0.1v0.7l0,0
	c-0.3-0.4-0.8-0.4-1.2-0.4h-1V60c0.7,0,1.4,0,2.1-0.1c-0.3,0.5-1.3,0.5-1.9,0.5h-0.2V61.9L117.5,61.9z"/>
<path d="M125,60.4c0,1.3-0.6,2.4-1.8,2.4c-1.4,0-1.8-1.5-1.8-2.7s0.6-2.4,1.8-2.4C124.6,57.7,125,59.2,125,60.4z M125.9,60.1
	c0.2-1.4-0.8-2.7-2.2-2.8c-0.1,0-0.3,0-0.4,0c-1.6,0-2.8,1.2-2.8,2.8c0,0.1,0,0.2,0,0.3c-0.2,1.4,0.8,2.7,2.2,2.8c0.1,0,0.3,0,0.4,0
	c1.6,0,2.8-1.2,2.8-2.8C125.9,60.3,125.9,60.2,125.9,60.1L125.9,60.1z"/>
<path d="M131.1,60.4c0,1.3-0.6,2.4-1.8,2.4c-1.4,0-1.8-1.5-1.8-2.7s0.6-2.4,1.8-2.4C130.7,57.7,131.1,59.2,131.1,60.4z M132,60.1
	c0.2-1.4-0.8-2.7-2.2-2.8c-0.1,0-0.3,0-0.4,0c-1.6,0-2.8,1.2-2.8,2.8c0,0.1,0,0.2,0,0.3c-0.2,1.4,0.8,2.7,2.2,2.8c0.1,0,0.3,0,0.4,0
	c1.6,0,2.8-1.2,2.8-2.8C132,60.3,132,60.2,132,60.1z"/>
<path d="M133.6,58.1c0-0.1,0-0.3,0-0.4c0.3,0,0.6-0.1,0.9-0.1c1.2-0.1,2.3,0.8,2.4,2.1c0,0.2,0,0.3,0,0.5c0,1.5-0.6,2.6-2.1,2.6
	c-1,0-1.1,0-1.1-0.7V58.1z M132.8,61.9c0,0.4,0,0.8-0.2,1.2c0.6,0,1.2,0,2.1,0c1.6,0.1,3-1.1,3.1-2.7c0-0.1,0-0.2,0-0.4
	c0.1-1.4-0.9-2.6-2.3-2.7c-0.1,0-0.2,0-0.2,0c-0.9,0-1.8,0.1-2.7,0.1c0.2,0.4,0.2,0.8,0.2,1.2V61.9L132.8,61.9z"/>
<path d="M140.9,62c0.3,0.6,0.9,0.9,1.6,0.9c0.6,0.1,1.1-0.4,1.2-1c0,0,0-0.1,0-0.1c0-1.5-2.5-1.3-2.5-3c0-0.9,0.7-1.6,1.6-1.5
	c0.1,0,0.1,0,0.2,0c0.5,0,0.9,0.1,1.4,0.1v0.8c-0.3-0.4-0.8-0.6-1.2-0.5c-0.6,0-1,0.4-1.1,0.9c0,0,0,0.1,0,0.1
	c0,1.4,2.5,1.2,2.5,2.9c-0.1,1-1,1.8-2.1,1.7c0,0,0,0,0,0c-0.5,0-1-0.1-1.5-0.3L140.9,62z"/>
<path d="M146.7,63.1c0.2-0.4,0.2-0.8,0.2-1.2v-4.1h-1.2c-0.2,0-0.4,0.1-0.6,0.2l0.2-0.6h4.5c-0.1,0.4-0.7,0.4-1.1,0.4h-1v4.1
	c0,0.4,0,0.8,0.2,1.2L146.7,63.1L146.7,63.1z"/>
<path d="M154.3,60.4c0,1.3-0.6,2.4-1.8,2.4c-1.4,0-1.8-1.5-1.8-2.7s0.6-2.4,1.8-2.4C153.9,57.7,154.3,59.2,154.3,60.4z M155.3,60.1
	c0.2-1.4-0.8-2.7-2.2-2.8c-0.1,0-0.3,0-0.4,0c-1.6,0-2.8,1.2-2.8,2.8c0,0.1,0,0.2,0,0.3c-0.2,1.4,0.8,2.7,2.2,2.8c0.1,0,0.3,0,0.4,0
	c1.6,0,2.8-1.2,2.8-2.8C155.3,60.3,155.3,60.2,155.3,60.1z"/>
<path d="M157,58.1c0-0.1,0-0.3,0-0.4h0.4c0.8,0,1.3,0.1,1.3,1c0.1,0.7-0.4,1.3-1.1,1.3c-0.1,0-0.2,0-0.3,0H157L157,58.1z
	 M158.2,60.1c0.7-0.2,1.3-0.9,1.3-1.6c0-0.7-0.5-1.2-1.4-1.2c-0.7,0-1.4,0.1-2.1,0.1c0.2,0.4,0.2,0.8,0.2,1.2v3.3
	c0,0.4,0,0.8-0.2,1.2h1.2c-0.2-0.4-0.2-0.8-0.2-1.2v-1.6c0.5,0,0.6,0.2,1,0.7l1.1,1.6c0.1,0.3,0.4,0.5,0.8,0.5h0.6
	c-0.3-0.2-0.5-0.5-0.8-0.8L158.2,60.1z"/>
<path d="M161.8,62.7h1c0.6,0,1.1-0.2,1.5-0.5l-0.2,0.8c-0.2,0-0.5,0-0.9,0h-2.6c0.2-0.4,0.3-0.8,0.2-1.2v-3.4c0-0.4,0-0.8-0.2-1.2
	h3.1V58c-0.4-0.3-0.9-0.4-1.3-0.3h-0.8v2.1c0.7,0,1.4,0,2.1-0.1c-0.3,0.5-1.3,0.5-1.9,0.5h-0.2L161.8,62.7L161.8,62.7z"/>
<path d="M164.9,62c0.3,0.6,0.9,0.9,1.6,0.9c0.6,0.1,1.1-0.4,1.2-1c0,0,0-0.1,0-0.1c0-1.5-2.5-1.3-2.5-3c0-0.9,0.7-1.6,1.6-1.5
	c0.1,0,0.1,0,0.2,0c0.5,0,0.9,0.1,1.4,0.1v0.8c-0.3-0.4-0.8-0.6-1.2-0.5c-0.6,0-1,0.4-1.1,0.9c0,0,0,0.1,0,0.1
	c0,1.4,2.5,1.2,2.5,2.9c-0.1,1-1,1.8-2.1,1.7c0,0,0,0,0,0c-0.5,0-1-0.1-1.5-0.3L164.9,62L164.9,62z"/>
<path d="M170.3,58.5c0.1-0.9,0.9-1.6,1.8-1.6c0.9,0.1,1.6,0.9,1.6,1.8c-0.1,0.9-0.8,1.6-1.7,1.6C171,60.3,170.2,59.5,170.3,58.5z
	 M169.9,58.5c0,1.1,0.9,2,2,2s2-0.9,2-2s-0.9-2-2-2S169.9,57.4,169.9,58.5z M171.3,59.2c0,0.3,0,0.3-0.3,0.3v0.1h1v-0.1
	c-0.3,0-0.3,0-0.3-0.3v-0.5h0.3c0.4,0.6,0.5,1,0.7,1h0.4v-0.1c-0.2-0.1-0.3-0.3-0.4-0.5l-0.3-0.5c0.3-0.1,0.5-0.3,0.5-0.6
	c0-0.4-0.3-0.5-0.7-0.5H171v0.1c0.3,0,0.3,0,0.3,0.3L171.3,59.2L171.3,59.2z M171.7,57.5h0.3c0.3,0,0.4,0.2,0.4,0.4
	s-0.1,0.5-0.4,0.5h-0.3V57.5z"/>
</svg>
