<?xml version="1.0" encoding="utf-8"?>
<!-- Generator: Adobe Illustrator 21.1.0, SVG Export Plug-In . SVG Version: 6.00 Build 0)  -->
<svg version="1.1" id="Layer_1" xmlns="http://www.w3.org/2000/svg" xmlns:xlink="http://www.w3.org/1999/xlink" x="0px" y="0px"
	 viewBox="0 0 181 86.4" style="enable-background:new 0 0 181 86.4;" xml:space="preserve">
<style type="text/css">
	.st0{fill:#C7C8C7;}
	.st1{fill:#FDF001;}
	.st2{fill:#DDD760;}
	.st3{fill:#25201F;}
	.st4{fill:#FBEF03;}
</style>
<title>Dollar</title>
<path class="st0" d="M0.5,43.1c0-12,0-24.1,0-36.1C0.4,3.5,3.2,0.6,6.6,0.5c0.1,0,0.3,0,0.4,0c4.1,0.1,8.1,0.4,12.2,0.6
	c1.2,0.1,2.3,0.1,3.5,0.2c2,0.2,4.1,0.1,6.1,0.2c4.6,0.2,9.1,0.4,13.7,0.5c3.6,0.1,7.2,0.2,10.8,0.3c2.7,0.1,5.4,0,8,0.2
	s5.6,0.1,8.4,0.1c12.5,0.3,25,0.2,37.5,0.1c3.6,0,7.3,0,10.9-0.2c2.4-0.1,4.9,0,7.3-0.1c4-0.2,7.9-0.2,11.9-0.4
	c3-0.1,6.1-0.2,9.1-0.3c3.9-0.1,7.8-0.3,11.7-0.5c3.3-0.2,6.7-0.4,9.9-0.5c1.9-0.1,3.8-0.3,5.7-0.3c3.6,0,6.6,2.9,6.6,6.5
	c0,0,0,0,0,0.1c-0.1,24.1-0.1,48.2,0,72.3c0.1,3.5-2.6,6.4-6,6.5c-0.2,0-0.4,0-0.5,0c-4-0.1-8-0.4-12-0.6c-1.3-0.1-2.5-0.1-3.8-0.1
	c-3.4-0.2-6.8-0.2-10.2-0.4c-3-0.1-6-0.2-9-0.3c-3.9-0.2-7.8-0.2-11.7-0.4c-2.6-0.1-5.1,0-7.7-0.1c-3.5-0.2-6.9-0.1-10.4-0.1
	c-11.7-0.3-23.4-0.1-35.1-0.1c-3.7,0-7.3,0-11,0.2c-2.5,0.1-4.9,0-7.4,0.1c-4,0.2-8,0.2-12,0.4l-9,0.3c-3.9,0.1-7.8,0.3-11.7,0.5
	c-2.3,0.1-4.6,0.2-6.9,0.3c-3,0.2-6,0.4-9,0.5c-3.5,0.1-6.4-2.7-6.5-6.2c0,0,0-0.1,0-0.1C0.5,67.4,0.5,55.3,0.5,43.1z M69.5,81.3
	c0.4,0,0.7,0,1.1,0h33.2h7.5c4.6,0.2,9.2-0.1,13.8,0.3c3.9,0.4,7.9-0.1,11.9,0.3c3.2,0.4,6.4,0.1,9.6,0.3c3.9,0.2,7.8,0.4,11.7,0.5
	c1.1,0,2.2,0.1,3.3,0.2c2.3,0.4,4.6,0,7,0.4c1.9,0.2,3.7,0.2,5.6,0.1c0.4,0.1,0.9,0,1.3-0.1c1.8-0.5,2.9-2.3,2.8-4.1
	c0-23.6,0-47.1,0-70.7c0-0.7,0-1.3,0-2C178,4.9,176.4,3,174.7,3c-2.4-0.1-4.8,0-7.2,0.3c-2.1,0.3-4.3,0-6.4,0.3
	c-2.5,0.4-5,0-7.6,0.4s-5.3,0-8,0.3c-3.2,0.4-6.4,0-9.6,0.3c-4,0.4-7.9,0.1-11.9,0.3c-6.8,0.4-13.7,0.2-20.5,0.3
	c-9.3,0.2-18.7,0.3-28-0.1C69.1,4.9,62.8,5,56.4,5c-0.1,0-0.1,0-0.1-0.1s0.3,0.1,0.4-0.1c-4.3-0.3-8.6,0.1-13-0.4
	c-3-0.3-6.1,0.1-9.2-0.3c-2.6-0.4-5.3,0.1-7.9-0.3s-5.1,0-7.6-0.4c-2.1-0.3-4.3,0-6.5-0.3C10.4,2.9,8.4,2.9,6.3,3
	C4.5,3.2,3,4.6,2.9,6.4C2.4,6.6,2.6,7,2.6,7.3c0,23.6,0,47.2,0,70.8c0,0.5,0,1,0,1.5c0,0.3-0.1,0.6,0.3,0.7c0.1,1.4,2,3.1,3.3,3.1
	c2.4-0.1,4.8,0,7.3-0.3s4.8,0,7.2-0.4c2.1-0.3,4.2,0,6.3-0.3c2.9-0.4,5.8,0,8.8-0.4s5.8,0,8.7-0.3c4.4-0.4,8.8-0.1,13.3-0.4
	C61.7,81.2,65.6,81.3,69.5,81.3L69.5,81.3z M7.2,2.8H6.8C7,2.9,7.1,2.9,7.2,2.8z"/>
<path class="st1" d="M3,6.4C3.1,4.6,4.6,3.1,6.4,3c2.1-0.1,4.1-0.1,6.2,0.1c2.2,0.3,4.4,0,6.5,0.3c2.5,0.4,5.1,0,7.6,0.4
	s5.3,0,7.9,0.3c3.1,0.4,6.1,0,9.2,0.3c4.3,0.5,8.7,0.1,13,0.4c-0.1,0.2-0.3,0-0.4,0.1s0,0.1,0.1,0.1c6.4,0,12.7-0.1,19.1,0.1
	c9.3,0.4,18.7,0.3,28,0.1c6.8-0.1,13.7,0.1,20.5-0.3c4-0.2,8,0.1,11.9-0.3c3.2-0.3,6.4,0,9.6-0.3c2.7-0.3,5.4,0,8-0.3s5.1,0,7.6-0.4
	c2.1-0.3,4.3,0,6.4-0.3c2.4-0.3,4.8-0.4,7.2-0.3c1.7,0,3.3,1.9,3.4,3.5c0,0.7,0,1.3,0,2c0,23.6,0,47.1,0,70.7c0.2,1.8-1,3.6-2.8,4.1
	c-0.4,0.1-0.9,0.2-1.3,0.1c-1.9,0.1-3.8,0-5.6-0.1c-2.3-0.4-4.7,0-7-0.4c-1.1-0.1-2.2-0.2-3.3-0.2c-3.9-0.1-7.8-0.3-11.7-0.5
	c-3.2-0.2-6.4,0.1-9.6-0.3c-4-0.4-7.9,0-11.9-0.3c-4.6-0.4-9.2-0.1-13.8-0.3c0-0.1,0.4-0.3,0-0.3c-0.7,0-1.3,0-2,0H70.4
	c-0.3,0-0.7-0.2-0.9,0.3c-3.9,0-7.8-0.1-11.7,0.1c-4.4,0.3-8.9,0-13.3,0.4c-2.9,0.3-5.8-0.1-8.7,0.3s-5.9,0-8.8,0.4
	c-2.1,0.3-4.3,0-6.3,0.3c-2.4,0.3-4.8,0.1-7.2,0.4s-4.8,0.1-7.3,0.3c-1.2,0.1-3.2-1.7-3.3-3.1c0-0.1,0-0.2,0-0.3C3,56.3,3,32.6,3,9
	C3,8.1,3,7.2,3,6.4z M90.1,39.6c0.3-1,0.4-2,0.3-3c0.1-0.7-0.2-0.9-0.9-0.9c-3,0-5.9,0-8.9,0c0-0.3,0-0.6,0-0.9c0-5.5,0-11,0-16.6
	c0-0.8-0.2-0.9-0.9-0.9c-1.5,0.1-3.1,0.1-4.6,0c-0.7,0-0.9,0.2-0.9,0.9c0,7.1,0,14.3,0,21.4c0,0.6,0.1,0.8,0.8,0.8
	c4.8,0,9.5,0,14.3,0C90,40.4,90.1,40.2,90.1,39.6z M108.3,37.6c0.3-0.5,0.4-1.1,0.1-1.6l-0.2-0.2c-0.2-0.3-0.5-0.2-0.8-0.2
	c-2.5,0-5,0-7.6,0c-0.8,0-1.2-0.1-1.1-1c0-0.8,0-1.6,0-2.4c0-4.7,0-9.4,0-14.2c0-0.7-0.2-0.9-0.9-0.9c-0.9,0.1-1.9,0-2.9,0
	c-0.9-0.1-1.8,0-2.7,0.1l-0.2,0.1h-0.1c0,0,0,0,0,0.1c0,0.1,0,0.3,0,0.4c0,7.3,0,14.6,0,21.9c0,0.2-0.1,0.5,0.2,0.6
	c5.1,0.1,10.3,0,15.4,0.1c0.4,0,0.5-0.2,0.5-0.5C108.2,39.1,108.3,38.3,108.3,37.6L108.3,37.6z M56.7,50.6c0.2-1.3,0-2.6,0.1-3.9
	c0-0.5-0.1-0.7-0.7-0.7c-4.7,0-9.5,0-14.2,0c-0.6,0-0.7,0.2-0.7,0.7c0,7.2,0,14.4,0,21.7c0,0.5,0.1,0.7,0.7,0.7c2.3,0,4.6,0,6.9,0
	h7.8c0.3,0,0.7,0.1,0.7-0.5c0-1.1,0.1-2.2,0.2-3.3c0.1-0.7-0.2-0.8-0.8-0.8c-2.8,0-5.5,0-8.3,0c-0.5,0-0.7-0.1-0.7-0.7
	c0-1.3,0-2.7,0-4h6.6c0.3,0,0.6,0.1,0.8-0.2c0-1.3,0-2.5,0-3.8c0-0.6-0.1-0.8-0.7-0.8c-2,0-4,0-6,0c-0.5,0-0.7-0.1-0.7-0.6
	c0.1-1.3,0-2.5,0-3.8c2.7,0,5.4,0,8.2,0C56.2,50.7,56.5,50.9,56.7,50.6L56.7,50.6z M98,50.6c0.2-1.3,0-2.6,0.1-3.9
	c0-0.5-0.1-0.7-0.6-0.7c-4.7,0-9.5,0-14.2,0c-0.5,0-0.7,0.1-0.7,0.7c0,7.2,0,14.5,0,21.7c0,0.6,0.2,0.7,0.7,0.7c4.8,0,9.7,0,14.5,0
	c0.6,0,0.8-0.1,0.8-0.7c0-1,0-1.9,0.2-2.8c0.2-0.9-0.2-1-1-1c-2.7,0-5.4,0-8.1,0c-0.5,0-0.7-0.1-0.7-0.7c0-1.3,0-2.7,0-4
	c2.2,0,4.3,0,6.5,0c0.3,0,0.6,0.2,0.8-0.2c0-1.3,0-2.5,0-3.8c0-0.6-0.1-0.8-0.7-0.8c-2,0-4,0-6,0c-0.5,0-0.7-0.1-0.7-0.6
	c0.1-1.3,0-2.5,0-3.8c2.7,0,5.4,0,8.2,0C97.5,50.7,97.8,50.9,98,50.6L98,50.6z M116.8,36.3h7.7c0.4,1.2,0.8,2.4,1.2,3.6
	c0.1,0.2,0.1,0.5,0.5,0.5c2.1,0,4.2,0,6.3,0c0-0.1,0-0.3-0.1-0.4c-2.7-7.4-5.3-14.8-8-22.2c-0.1-0.4-0.4-0.6-0.8-0.5
	c-2.1,0-4.3,0-6.4,0c-0.6,0-0.7,0.2-0.8,0.7c-0.3,1-0.5,2.1-0.9,3.1c-1.2,3.9-2.5,7.8-3.8,11.6l-2.5,7.7c2,0,4,0,5.9,0
	c0.4,0,0.4-0.3,0.5-0.6L116.8,36.3z M29.7,61c0.5,0.4,1.1,0.1,1.6,0.2s0.6,0.2,0.6,0.6c0,0.8,0,1.6,0,2.3c-0.3,0.1-0.7,0.3-1,0.4
	c-3.3,0.8-5.8-0.8-6.4-4.1c-0.3-1.7-0.4-3.4-0.2-5.1c0.1-1.2,0.5-2.3,1.2-3.4c0.6-1,1.7-1.5,2.9-1.4c1.2,0.1,2.2,0.9,2.5,2.1
	c0.1,0.3,0.2,0.6,0.3,0.9c0.1,0.3,0.2,0.5,0.6,0.4c1.9-0.3,3.9-0.7,5.8-1c0.3-0.1,0.5-0.2,0.4-0.5c-0.5-2.8-2.5-5-5.1-6
	c-3-1.1-6.3-1-9.2,0.2c-1.7,0.6-3.1,1.8-4.1,3.3c-2.5,4-2.5,8.4-1.4,12.8c0.6,2.9,2.7,5.3,5.5,6.3c3.1,1.2,6.6,1,9.6-0.5
	c0.6-0.3,0.9-0.4,1.1,0.3c0.1,0.3,0.4,0.5,0.7,0.5c1,0,1.9,0,2.9,0c0.4,0,0.6-0.1,0.6-0.5c0-3.6,0-7.2,0-10.8c0-0.4-0.1-0.6-0.5-0.6
	c-2.6,0-5.2,0-7.8,0c-0.3,0-0.5,0.1-0.5,0.4C29.6,58.7,29.5,59.9,29.7,61z M71.7,31.7c0.4-0.2,0.3-0.5,0.3-0.8c0-1,0-2,0-2.9
	c0-0.4,0.2-0.9-0.2-1.4v-0.3c0-0.1,0.1-0.2-0.1-0.3c-1-5.5-4.3-8.8-9.9-9.1c-2.6-0.2-5.3,0.5-7.4,2.2c-2.1,1.8-3.5,4.3-3.8,7
	c-0.4,2.3-0.3,4.7,0.3,6.9c0.5,2.4,1.8,4.5,3.8,6c3.1,2.1,6.9,2.5,10.4,1.3C69.1,38.8,70.9,35.7,71.7,31.7L71.7,31.7z M65.4,57.4
	c0.6,0.8,1.2,1.5,1.8,2.3c2.4,2.8,4.8,5.6,7.1,8.4c0.5,0.7,1.3,1.1,2.2,1c0.7-0.1,1.5-0.1,2.2,0c0.4,0,0.6-0.1,0.6-0.6
	c0-7.3,0-14.6,0-21.9c0-0.4-0.1-0.6-0.6-0.6c-1.3,0-2.5,0.1-3.8,0c-0.7,0-0.9,0.1-0.9,0.9c0,3.6,0,7.1,0,10.7c0,0.2,0,0.4,0,0.7
	l-10-11.7c-0.2-0.2-0.3-0.5-0.7-0.5c-1.2,0.1-2.5-0.1-3.7,0.1c-0.3,0.1-0.2,0.3-0.2,0.5c0,7.3,0,14.7,0,22c0,0.1-0.2,0.4,0.2,0.4
	l0.2,0.1c1.5,0.1,3,0.2,4.5,0.1c0.7,0.1,0.9-0.2,0.9-0.9c0-3.3,0-6.6,0-10C65.2,58,65.1,57.7,65.4,57.4L65.4,57.4z M155,35.8
	l-0.5,0.2c-1.2,0.7-2.7,0.2-3.3-1c0-0.1-0.1-0.1-0.1-0.2c-0.5-0.8-0.9-1.5-1.4-2.3c-0.3-0.4-0.3-0.7,0.2-1c4.4-2.2,4.4-8.5,2.5-11.1
	c-1.4-1.8-3.6-2.9-5.9-3c-3.9-0.4-7.7-0.1-11.6-0.2c-0.5,0-0.6,0.2-0.6,0.6c0,7.3,0,14.5,0,21.8c0,0.5,0.1,0.6,0.6,0.6
	c1.7,0,3.4,0,5.1,0c0.6,0,0.7-0.2,0.7-0.7c0-2,0-4,0-6c0-0.2-0.1-0.5,0.2-0.7c0.7-0.2,1.5,0,2,0.6c0.9,1.4,1.8,2.8,2.6,4.2
	c0.5,0.9,1.3,1.7,2.2,2.2c2,1.1,4.4,1.1,6.5,0.2c0.3-0.1,0.5-0.3,0.5-0.6C154.8,38.3,154.9,37.1,155,35.8L155,35.8z M121.8,64.5
	l-0.4,0.1c-1.7,0.7-2.7,0.4-3.6-1.1c-0.5-0.8-1-1.6-1.5-2.3c-0.3-0.4-0.2-0.6,0.2-0.8c1.7-0.8,3-2.4,3.4-4.2
	c0.3-1.1,0.4-2.3,0.3-3.5c-0.1-2.5-1.6-4.7-3.8-5.6c-1.6-0.7-3.3-1-5.1-1c-3.2-0.1-6.4,0-9.6,0c-0.5,0-0.6,0.2-0.6,0.7
	c0,7.3,0,14.5,0,21.8c0,0.5,0.1,0.7,0.7,0.7c1.6,0,3.3,0,5,0c0.6,0,0.8-0.2,0.8-0.8c0-2,0-4.1,0-6.1c0-0.2-0.1-0.5,0.2-0.7
	c0.7-0.2,1.4,0,1.8,0.5c0.8,1.3,1.5,2.5,2.3,3.8c0.5,0.9,1.2,1.8,2,2.4c2.2,1.6,4.6,1.6,7,0.7c0.3-0.1,0.5-0.3,0.5-0.7
	C121.5,67,121.7,65.8,121.8,64.5L121.8,64.5z M28.3,31.1c0,2.8,0,5.6,0,8.4c0,0.7,0.1,0.9,0.8,0.9c1.5-0.1,3,0,4.5,0
	c2.3-0.1,4.5,0.2,6.8-0.3c3.8-0.9,6.8-2.7,7.9-6.7c0.9-3.2,0.8-6.6-0.2-9.8c-0.7-2.3-2.5-4.2-4.8-5.1c-0.9-0.4-1.9-0.7-2.8-0.8
	c-4.7-0.7-9.4-0.3-14.2-0.4c-0.4,0-0.4,0.2-0.4,0.5c0,0.8,0,1.6,0,2.4c0,1.6,0,1.6,1.6,1.6c0.6,0,0.8,0.1,0.8,0.8
	C28.2,25.4,28.3,28.2,28.3,31.1z M122.7,69.1h5.8c0.4,0,0.4-0.2,0.5-0.5c0.3-1.1,0.7-2.1,0.9-3.2c0.1-0.4,0.3-0.5,0.7-0.5
	c2.2,0,4.4,0,6.6,0c0.5,0,0.6,0.2,0.8,0.6c0.3,1,0.7,2,1,3c0.1,0.4,0.5,0.7,0.9,0.7c0,0,0,0,0,0c1.8,0,3.6,0,5.4,0
	c0.5,0,0.7-0.1,0.5-0.6c-2.7-7.3-5.3-14.6-7.9-21.9c-0.1-0.3-0.4-0.6-0.7-0.5c-2.2,0-4.4,0-6.6,0c-0.3-0.1-0.7,0.2-0.7,0.5
	c0,0,0,0,0,0.1c-0.3,1.1-0.6,2.1-0.9,3.2c-1.3,4.2-2.7,8.4-4.1,12.6C124.1,64.6,123.4,66.8,122.7,69.1L122.7,69.1z M147.5,57.5
	c0,3.6,0,7.2,0,10.8c0,0.4-0.1,0.8,0.5,0.8c4.9,0,9.8,0,14.7,0c0.4,0,0.6-0.1,0.6-0.6c0-0.9,0.1-1.9,0.2-2.9
	c0.1-1.3,0.3-1.1-1.1-1.1c-2.5,0-5,0-7.6,0c-0.8,0-0.9-0.3-0.9-1c0-5.6,0-11.1,0-16.7c0-0.7-0.2-0.9-0.9-0.9c-1.6,0.1-3.1,0-4.7,0
	c-0.6,0-0.8,0.1-0.8,0.8C147.5,50.4,147.5,54,147.5,57.5z M158.6,50.8c1.3,0.1,2.4-0.9,2.5-2.2s-0.9-2.4-2.2-2.5c-0.1,0-0.2,0-0.3,0
	c-1.3,0-2.3,0.9-2.4,2.2c0,0,0,0.1,0,0.1c-0.1,1.3,0.9,2.4,2.2,2.4C158.4,50.8,158.5,50.8,158.6,50.8L158.6,50.8z"/>
<path class="st2" d="M3,6.4C3,7.2,3,8.1,3,9c0,23.7,0,47.3,0,71c0,0.1,0,0.2,0,0.3c-0.4-0.1-0.3-0.4-0.3-0.7c0-0.5,0-1,0-1.5
	c0-23.6,0-47.2,0-70.8C2.7,7,2.5,6.6,3,6.4z"/>
<path class="st2" d="M69.6,81.3c0.2-0.5,0.6-0.3,0.9-0.3h38.8c0.7,0,1.3,0,2,0c0.4,0,0,0.2,0,0.3h-7.5H70.6
	C70.3,81.3,69.9,81.3,69.6,81.3z"/>
<path class="st1" d="M7.2,2.8C7.1,2.9,7,2.9,6.8,2.8H7.2z"/>
<path class="st3" d="M155,35.8c-0.1,1.3-0.2,2.5-0.3,3.8c0,0.3-0.2,0.5-0.5,0.6c-2.1,0.9-4.5,0.8-6.5-0.2c-0.9-0.5-1.6-1.3-2.2-2.2
	c-0.9-1.4-1.8-2.8-2.6-4.2c-0.5-0.6-1.3-0.8-2-0.6c-0.3,0.2-0.2,0.4-0.2,0.7c0,2,0,4,0,6c0,0.5-0.1,0.7-0.7,0.7c-1.7,0-3.4,0-5.1,0
	c-0.5,0-0.6-0.2-0.6-0.6c0-7.3,0-14.5,0-21.8c0-0.5,0.1-0.6,0.6-0.6c3.9,0.1,7.7-0.2,11.6,0.2c2.3,0.1,4.4,1.2,5.8,3.1
	c1.9,2.6,1.9,8.8-2.5,11.1c-0.6,0.3-0.5,0.5-0.2,1c0.5,0.7,1,1.5,1.4,2.3c0.6,1.2,2,1.8,3.3,1.2c0.1,0,0.1-0.1,0.2-0.1L155,35.8z
	 M142.8,21.8c-0.4,0-0.9,0-1.3,0c-0.6-0.1-0.8,0.1-0.8,0.7c0,1.1,0,2.2,0,3.3c0,0.9-0.4,2.3,0.2,2.7s2.1,0.2,3.1,0.1
	c1.4,0.1,2.5-0.9,2.7-2.3c0.2-0.8,0.2-1.6,0-2.3c-0.2-1-1-1.9-2-2.1C144.1,21.9,143.5,21.8,142.8,21.8L142.8,21.8z"/>
<path class="st3" d="M121.8,64.5c-0.1,1.3-0.2,2.5-0.3,3.7c0,0.3-0.2,0.6-0.5,0.7c-2.4,0.9-4.8,1-7-0.7c-0.8-0.7-1.5-1.5-2-2.4
	c-0.8-1.3-1.6-2.5-2.3-3.8c-0.5-0.5-1.2-0.7-1.8-0.5c-0.3,0.2-0.2,0.4-0.2,0.7c0,2,0,4.1,0,6.1c0,0.6-0.2,0.8-0.8,0.8
	c-1.6,0-3.3,0-5,0c-0.5,0-0.7-0.1-0.7-0.7c0-7.3,0-14.5,0-21.8c0-0.5,0.1-0.7,0.6-0.7c3.2,0,6.4-0.1,9.6,0c1.7,0,3.5,0.3,5.1,1
	c2.3,1,3.8,3.2,3.8,5.6c0.1,1.2,0,2.3-0.3,3.5c-0.5,1.8-1.7,3.4-3.4,4.2c-0.4,0.2-0.5,0.4-0.2,0.8c0.5,0.8,1,1.6,1.5,2.3
	c1,1.5,1.9,1.8,3.6,1.1L121.8,64.5z M107.5,57.3c1.2,0.2,2.5,0.2,3.7,0c0.9-0.1,1.7-0.6,2-1.5c0.4-1.1,0.5-2.3,0.1-3.4
	c-0.3-0.9-1.1-1.6-2.1-1.7c-1.2-0.2-2.4-0.3-3.6-0.2c-0.4,0-0.3,0.3-0.3,0.6c0,0.9,0,1.8,0,2.7C107.3,55,107.4,56.2,107.5,57.3z"/>
<path class="st3" d="M28.3,31.1c0-2.8,0-5.7,0-8.5c0-0.7-0.2-0.8-0.8-0.8c-1.6,0-1.6,0-1.6-1.6c0-0.8,0-1.6,0-2.4
	c0-0.3,0-0.6,0.4-0.5c4.7,0.1,9.5-0.3,14.2,0.4c1,0.2,1.9,0.4,2.8,0.8c2.3,0.9,4.1,2.7,4.8,5.1c1,3.2,1.1,6.6,0.2,9.8
	c-1.1,4-4,5.9-7.9,6.7c-2.3,0.5-4.5,0.2-6.8,0.3c-1.5,0.1-3,0-4.5,0c-0.7,0-0.9-0.2-0.8-0.9C28.3,36.7,28.3,33.9,28.3,31.1z
	 M38.5,35.6c1.6-0.2,2.9-1.4,3.2-3c0.6-2.3,0.6-4.8,0.1-7.1c-0.3-1.9-1.9-3.4-3.8-3.6c-1.1-0.2-2.2-0.2-3.3-0.1
	c-0.2,0.2-0.1,0.5-0.1,0.8c0,2,0,4.1,0,6.1s0,4.3,0,6.4c0,0.3-0.1,0.7,0.4,0.7C36.2,36,37.4,35.9,38.5,35.6z"/>
<path class="st3" d="M59.8,69.1L59.7,69c0-7.6,0-15.3,0-22.9c1.2-0.2,2.5,0,3.7-0.1c0.4,0,0.5,0.3,0.7,0.5l10,11.7
	c0-0.2,0-0.4,0-0.7c0-3.6,0-7.1,0-10.7c0-0.8,0.2-0.9,0.9-0.9c1.3,0.1,2.5,0,3.8,0c0.4,0,0.6,0.1,0.6,0.6c0,7.3,0,14.6,0,21.9
	c0,0.5-0.2,0.6-0.6,0.6c-0.7-0.1-1.5-0.1-2.2,0c-0.9,0.1-1.7-0.3-2.2-1c-2.3-2.9-4.7-5.7-7.1-8.4c-0.6-0.7-1.2-1.5-1.8-2.3
	c0-0.2-0.2-0.4-0.4-0.5c0,3.8,0,7.5,0,11.3c0,0.7-0.1,1-0.9,0.9C62.7,69,61.3,69.1,59.8,69.1z"/>
<path class="st3" d="M71.7,26.3v0.3c0.1,1.7,0.1,3.4-0.1,5.1c-0.7,4-2.6,7.1-6.6,8.5c-3.5,1.3-7.4,0.8-10.4-1.2
	c-2-1.5-3.3-3.6-3.8-6c-0.6-2.3-0.7-4.6-0.3-6.9c0.3-2.7,1.7-5.2,3.8-7c2.1-1.6,4.8-2.4,7.4-2.2c5.6,0.3,8.9,3.6,9.9,9.1L71.7,26.3z
	 M60,35.7c0.7,0.3,1.6,0.3,2.3,0c0.2,0,0.3-0.1,0.5-0.2c1.5-1,1.9-2.5,2.1-4.1c0.3-1.6,0.3-3.3,0-4.9c-0.1-0.9-0.3-1.8-0.7-2.6
	c-0.3-0.7-0.8-1.3-1.4-1.7c-1.6-0.9-3.7-0.3-4.6,1.3c-0.1,0.2-0.2,0.5-0.3,0.7c-1,3-1,6.2,0,9.2C58.1,34.5,58.9,35.3,60,35.7z"/>
<path class="st3" d="M29.7,61c-0.2-1.1,0-2.2-0.1-3.4c0-0.3,0.2-0.4,0.5-0.4c2.6,0,5.2,0,7.8,0c0.4,0,0.5,0.2,0.5,0.6
	c0,3.6,0,7.2,0,10.8c0,0.4-0.2,0.5-0.6,0.5c-1,0-1.9,0-2.9,0c-0.3,0-0.6-0.2-0.7-0.5c-0.2-0.7-0.6-0.6-1.1-0.3
	c-3,1.5-6.5,1.7-9.6,0.5c-2.8-1-4.8-3.4-5.5-6.3c-1.1-4.4-1.1-8.8,1.4-12.8c1-1.5,2.4-2.7,4.1-3.3c2.9-1.2,6.2-1.2,9.2-0.2
	c2.6,1,4.6,3.2,5.1,6c0.1,0.4,0,0.5-0.4,0.5c-1.9,0.3-3.9,0.6-5.8,1c-0.4,0.1-0.5-0.1-0.6-0.4c-0.1-0.3-0.2-0.6-0.3-0.9
	c-0.3-1.1-1.3-2-2.5-2.1c-1.1-0.1-2.3,0.4-2.9,1.4c-0.7,1-1.1,2.2-1.2,3.4c-0.2,1.7-0.2,3.4,0.2,5.1c0.7,3.3,3.1,4.9,6.4,4.1
	c0.3-0.1,0.7-0.2,1-0.4c0.2-0.2,0.1-0.5,0.1-0.7c0-0.8,0.3-1.8-0.1-2.3C31.5,60.7,30.5,61,29.7,61z"/>
<path class="st3" d="M122.7,69.1c0.8-2.3,1.5-4.5,2.2-6.7c1.3-4.2,2.7-8.4,4.1-12.6c0.3-1.1,0.6-2.1,0.9-3.2c0-0.4,0.3-0.6,0.7-0.6
	c0,0,0,0,0.1,0c2.2,0,4.4,0,6.6,0c0.3,0,0.7,0.2,0.7,0.5c2.6,7.3,5.2,14.6,7.9,21.9c0.2,0.6,0.1,0.7-0.5,0.6c-1.8,0-3.6,0-5.4,0
	c-0.4,0.1-0.8-0.2-0.9-0.6c0,0,0,0,0,0c-0.3-1-0.7-2-1-3c-0.1-0.4-0.3-0.6-0.8-0.6c-2.2,0-4.4,0-6.6,0c-0.4,0-0.6,0.1-0.7,0.5
	c-0.3,1.1-0.6,2.1-0.9,3.2c-0.1,0.3-0.2,0.5-0.5,0.5L122.7,69.1z M133.7,60.6c0.8,0,1.4,0,2.1,0c0.5,0,0.6-0.1,0.4-0.6
	c-0.7-2.3-1.4-4.6-2.2-6.9c0-0.1-0.1-0.4-0.3-0.4s-0.2,0.2-0.3,0.4c-0.4,1.7-0.9,3.4-1.4,5.1l-0.6,2.2
	C132.2,60.6,133,60.6,133.7,60.6L133.7,60.6z"/>
<path class="st3" d="M116.8,36.3l-1.1,3.5c-0.1,0.3-0.1,0.6-0.5,0.6c-2,0-3.9,0-5.9,0l2.5-7.7c1.3-3.9,2.5-7.8,3.8-11.6
	c0.3-1,0.6-2.1,0.9-3.1c0.1-0.5,0.3-0.7,0.8-0.7c2.1,0,4.3,0,6.4,0c0.4-0.1,0.7,0.2,0.8,0.5c2.7,7.4,5.3,14.8,8,22.2
	c0,0.1,0.1,0.3,0.1,0.4c-2.1,0-4.2,0-6.3,0c-0.4,0-0.4-0.2-0.5-0.5c-0.4-1.2-0.8-2.4-1.2-3.6c-0.1-0.3-0.4-0.2-0.6-0.2h-6.6
	C117.1,36.1,116.9,36.1,116.8,36.3z M120.6,24.5c0-0.4-0.2-0.9-0.3-1.3l-0.2,1.3c-0.6,2.3-1.3,4.5-1.9,6.8c-0.2,0.6,0,0.7,0.5,0.7
	c0.9,0,1.8,0,2.7,0c1.7,0,1.7,0,1.2-1.6C121.8,28.4,121.2,26.4,120.6,24.5z"/>
<path class="st3" d="M89.1,59.8c0,1.3,0,2.7,0,4c0,0.6,0.2,0.7,0.7,0.7c2.7,0,5.4,0,8.1,0c0.8,0,1.1,0.1,1,1
	c-0.1,0.9-0.2,1.9-0.2,2.8c0,0.6-0.3,0.7-0.8,0.7c-4.8,0-9.7,0-14.5,0c-0.5,0-0.7-0.1-0.7-0.7c0-7.2,0-14.5,0-21.7
	c0-0.5,0.1-0.7,0.7-0.7c4.7,0,9.5,0,14.2,0c0.5,0,0.7,0.2,0.6,0.7c-0.1,1.3,0.1,2.6-0.1,3.9c-2.8,0-5.5,0-8.3,0
	c-0.2,0-0.6-0.2-0.7,0.2c0,1.3,0,2.5,0,3.8c0,0.6,0.2,0.6,0.7,0.6c2,0,4,0,6,0c0.6,0,0.8,0.2,0.7,0.8c-0.1,1.3,0,2.5,0,3.8
	c-2.2,0-4.4,0-6.6,0C89.5,59.7,89.2,59.5,89.1,59.8z"/>
<path class="st3" d="M47.7,50.8c0,1.3,0,2.5,0,3.8c0,0.6,0.2,0.6,0.7,0.6c2,0,4,0,6,0c0.6,0,0.8,0.2,0.7,0.8c-0.1,1.3,0,2.5,0,3.8
	c-2.2,0-4.4,0-6.6,0c-0.2,0-0.6-0.2-0.7,0.2c0,1.3,0,2.7,0,4c0,0.6,0.2,0.7,0.7,0.7c2.8,0,5.5,0,8.3,0c0.6,0,0.9,0.1,0.8,0.8
	c-0.1,1.1-0.2,2.2-0.2,3.2c0,0.5-0.3,0.5-0.7,0.5h-7.9c-2.3,0-4.6,0-6.9,0c-0.6,0-0.7-0.2-0.7-0.7c0-7.2,0-14.4,0-21.7
	c0-0.5,0.1-0.7,0.7-0.7c4.7,0,9.5,0,14.2,0c0.5,0,0.7,0.2,0.7,0.7c-0.1,1.3,0.1,2.6-0.1,3.9c-2.8,0-5.5,0-8.3,0
	C48.2,50.6,47.9,50.4,47.7,50.8z"/>
<path class="st3" d="M92.3,17.4l0.2-0.1c1.9,0,3.7,0,5.6,0c0.5,0,0.7,0.2,0.7,0.7c0,2.1,0,4.2,0,6.3c0,3.6,0,7.2,0,10.8
	c0,0.4-0.1,0.8,0.5,0.8c3,0,6,0,9,0l0.2,0.2l-0.1,1.6c0,0.8-0.1,1.5-0.1,2.3c0,0.3-0.1,0.5-0.5,0.5c-5.1,0-10.3,0.1-15.4-0.1
	c0-5,0-9.9,0-14.9C92.3,22.7,92.3,20.1,92.3,17.4z"/>
<path class="st3" d="M147.5,57.5c0-3.6,0-7.1,0-10.7c0-0.7,0.2-0.8,0.8-0.8c1.6,0,3.1,0.1,4.7,0c0.7,0,0.9,0.1,0.9,0.9
	c0,5.6,0,11.1,0,16.7c0,0.7,0.1,1,0.9,1c2.5-0.1,5,0,7.6,0c1.4,0,1.2-0.1,1.1,1.1c0,0.9-0.1,1.9-0.2,2.9c0,0.4-0.2,0.6-0.6,0.6
	c-4.9,0-9.8,0-14.7,0c-0.7,0-0.5-0.4-0.5-0.8C147.5,64.7,147.5,61.1,147.5,57.5z"/>
<path class="st3" d="M90.1,39.6c0,0.6-0.2,0.8-0.8,0.8c-4.8,0-9.5,0-14.3,0c-0.7,0-0.8-0.2-0.8-0.8c0-7.1,0-14.3,0-21.4
	c0-0.7,0.2-0.9,0.9-0.9c1.5,0.1,3.1,0.1,4.6,0c0.7,0,0.9,0.1,0.9,0.9c0,5.5,0,11,0,16.6c0,0.3,0,0.6,0,0.9c0.2,0.4,0.5,0.2,0.8,0.2
	c2.7,0,5.4,0,8.1,0c0.6,0,0.7,0.2,0.7,0.7C90.2,37.6,90.2,38.6,90.1,39.6z"/>
<path class="st3" d="M158.6,50.8c-1.3,0-2.3-1-2.3-2.3c0,0,0-0.1,0-0.1c0-1.3,1-2.3,2.3-2.3c0,0,0.1,0,0.1,0
	c1.3-0.1,2.4,0.9,2.5,2.2s-0.9,2.4-2.2,2.5C158.8,50.8,158.7,50.8,158.6,50.8L158.6,50.8z M156.7,48.4c0,1,0.8,1.9,1.8,2
	c1-0.1,1.9-0.9,1.9-1.9c0-1.1-0.8-2-1.9-2C157.5,46.5,156.7,47.3,156.7,48.4L156.7,48.4z"/>
<path class="st2" d="M108.2,35.8c-3,0-6,0-9,0c-0.7,0-0.5-0.4-0.5-0.8c0-3.6,0-7.2,0-10.8c0-2.1,0-4.2,0-6.3c0-0.5-0.1-0.7-0.7-0.7
	c-1.9,0-3.7,0-5.6,0c0.9-0.2,1.8-0.2,2.7-0.1c0.9,0,1.9,0,2.9,0c0.7,0,0.9,0.2,0.9,0.9c0,4.7,0,9.4,0,14.2c0,0.8,0,1.6,0,2.4
	c-0.1,0.9,0.3,1.1,1.1,1c2.5,0,5,0,7.6,0C107.7,35.6,108,35.5,108.2,35.8z"/>
<path class="st2" d="M90.1,39.6c0-1,0.1-2,0.2-3c0.1-0.6-0.1-0.7-0.7-0.7c-2.7,0-5.4,0-8.1,0c-0.3,0-0.6,0.2-0.8-0.2
	c3,0,5.9,0,8.9,0c0.7,0,0.9,0.2,0.9,0.9C90.5,37.6,90.4,38.6,90.1,39.6z"/>
<path class="st2" d="M92.3,17.4c0,2.7,0,5.3,0,8c0,5,0,9.9,0,14.9c-0.3-0.1-0.2-0.4-0.2-0.6c0-7.3,0-14.6,0-21.9c0-0.1,0-0.3,0-0.4
	c0,0,0,0,0-0.1L92.3,17.4z"/>
<path class="st2" d="M59.7,46.1c0,7.6,0,15.3,0,22.9c-0.3,0-0.2-0.3-0.2-0.4c0-7.3,0-14.7,0-22C59.5,46.5,59.4,46.2,59.7,46.1z"/>
<path class="st2" d="M59.8,69.1c1.4,0,2.8-0.1,4.3,0c0.8,0,0.9-0.2,0.9-0.9c0-3.7,0-7.4,0-11.3c0.2,0.1,0.4,0.3,0.4,0.5
	c-0.3,0.3-0.2,0.6-0.2,0.9c0,3.3,0,6.6,0,10c0,0.7-0.2,1-0.9,0.9C62.8,69.3,61.3,69.3,59.8,69.1z"/>
<path class="st2" d="M47.7,50.8c0.1-0.4,0.5-0.2,0.7-0.2c2.8,0,5.5,0,8.3,0c-0.2,0.4-0.6,0.2-0.8,0.2C53.2,50.8,50.5,50.8,47.7,50.8
	z"/>
<path class="st2" d="M89.1,50.8c0.1-0.4,0.5-0.2,0.7-0.2c2.8,0,5.5,0,8.3,0c-0.2,0.4-0.5,0.2-0.8,0.2C94.5,50.8,91.8,50.8,89.1,50.8
	z"/>
<path class="st2" d="M116.8,36.3c0.1-0.2,0.3-0.2,0.5-0.2h6.6c0.2,0,0.5-0.1,0.6,0.2L116.8,36.3z"/>
<path class="st2" d="M47.7,59.8c0.2-0.4,0.5-0.2,0.7-0.2c2.2,0,4.4,0,6.6,0c-0.2,0.3-0.5,0.2-0.8,0.2L47.7,59.8z"/>
<path class="st2" d="M89.1,59.8c0.2-0.4,0.5-0.2,0.7-0.2c2.2,0,4.4,0,6.6,0c-0.2,0.3-0.6,0.2-0.8,0.2C93.4,59.8,91.2,59.8,89.1,59.8
	z"/>
<path class="st2" d="M71.6,31.7c0.2-1.7,0.2-3.4,0.1-5.1c0.3,0.4,0.2,0.9,0.2,1.4c0,1,0,2,0,2.9C71.9,31.2,72,31.5,71.6,31.7z"/>
<path class="st2" d="M29.7,61c0.8,0,1.8-0.4,2.3,0.2c0.5,0.5,0.1,1.5,0.1,2.3c0,0.2,0.1,0.5-0.1,0.7c0-0.8,0-1.6,0-2.3
	c0-0.5-0.2-0.6-0.6-0.6S30.2,61.4,29.7,61z"/>
<path class="st2" d="M108.3,37.6l0.1-1.6C108.7,36.5,108.6,37.1,108.3,37.6z"/>
<path class="st2" d="M71.7,26.3L71.6,26C71.8,26.1,71.8,26.2,71.7,26.3z"/>
<path class="st4" d="M142.8,21.8c0.7,0,1.3,0,2,0.2c1,0.2,1.8,1,2,2.1c0.2,0.8,0.2,1.6,0,2.3c-0.2,1.3-1.4,2.3-2.7,2.3
	c-1.1,0.1-2.3,0.4-3.1-0.1s-0.2-1.8-0.2-2.7c0-1.1,0-2.2,0-3.3c0-0.6,0.2-0.8,0.8-0.7C141.9,21.8,142.4,21.8,142.8,21.8z"/>
<path class="st4" d="M111.3,50.8c1,0.1,1.8,0.7,2.1,1.7c0.4,1.1,0.3,2.3-0.1,3.4c-0.3,0.8-1.1,1.4-2,1.5c-1.2,0.2-2.5,0.2-3.7,0
	c0-1.9,0-3.8,0-5.7c0-0.7,0.1-1,0.9-0.9C109.4,50.8,110.4,50.8,111.3,50.8z"/>
<path class="st2" d="M111.3,50.8c-1,0-2,0-2.9,0c-0.7,0-0.9,0.2-0.9,0.9c0,1.9,0,3.8,0,5.7c-0.1-1.2-0.2-2.4-0.1-3.6
	c0-0.9,0-1.8,0-2.7c0-0.2-0.1-0.6,0.3-0.6C109,50.5,110.2,50.5,111.3,50.8z"/>
<path class="st4" d="M34.7,21.9c1.1-0.1,2.2-0.1,3.3,0.1c1.9,0.2,3.5,1.7,3.8,3.6c0.5,2.4,0.5,4.8-0.1,7.1c-0.3,1.6-1.6,2.8-3.2,3
	c-0.9,0-1.8,0-2.8,0c-0.7,0-1-0.2-0.9-0.9C34.8,30.4,34.8,26.2,34.7,21.9z"/>
<path class="st2" d="M34.7,21.9c0,4.3,0,8.6,0,12.8c0,0.8,0.2,1,0.9,0.9c0.9-0.1,1.8,0,2.8,0c-1.1,0.3-2.3,0.3-3.4,0.3
	c-0.6,0-0.4-0.4-0.4-0.7c0-2.1,0-4.3,0-6.4s0-4.1,0-6.1C34.6,22.4,34.5,22.1,34.7,21.9z"/>
<path class="st4" d="M64.9,31.3c-0.2,1.6-0.6,3.2-2.1,4.1c-0.1,0.1-0.3,0.1-0.5,0.2H60c-1.1-0.3-1.9-1.2-2.1-2.3c-1-3-1-6.2,0-9.2
	c0.5-1.8,2.4-2.8,4.2-2.3c0.3,0.1,0.5,0.2,0.7,0.3c0.7,0.4,1.2,1,1.4,1.7c0.4,0.8,0.6,1.7,0.7,2.6C64.9,28.1,64.9,29.7,64.9,31.3z"
	/>
<path class="st2" d="M64.9,31.3c0-1.6,0-3.3,0-4.9C65.1,28.1,65.1,29.7,64.9,31.3z"/>
<path class="st2" d="M60,35.7h2.3C61.6,36,60.7,36,60,35.7z"/>
<path class="st4" d="M133.7,60.6c-0.7,0-1.5,0-2.2-0.1l0.6-2.2c0.4-1.7,1-3.4,1.4-5.1c0-0.1,0.1-0.4,0.3-0.4s0.2,0.2,0.3,0.4
	c0.7,2.3,1.4,4.6,2.2,6.9c0.1,0.4,0.1,0.6-0.4,0.6C135.2,60.6,134.5,60.6,133.7,60.6z"/>
<path class="st4" d="M120.6,24.5c0.6,1.9,1.3,3.9,1.9,5.8c0.5,1.6,0.5,1.6-1.2,1.6c-0.9,0-1.8,0-2.7,0c-0.6,0-0.7-0.1-0.5-0.7
	c0.7-2.3,1.3-4.5,1.9-6.8C120.2,24.5,120.4,24.5,120.6,24.5z"/>
<path class="st2" d="M120.6,24.5c-0.2,0.1-0.4,0.1-0.5,0l0.2-1.3C120.4,23.6,120.5,24,120.6,24.5z"/>
<path class="st4" d="M156.7,48.4c0-1,0.8-1.9,1.8-1.9c1.1,0,1.9,0.9,1.9,2c0,1-0.9,1.9-1.9,1.9C157.5,50.3,156.7,49.4,156.7,48.4z
	 M158.4,47.1c-0.5-0.1-0.8,0.2-0.7,0.8s0,0.9,0,1.3c0,0.2-0.1,0.6,0.3,0.6s0.2-0.3,0.2-0.5s0-0.5,0.3-0.5c0.2,0,0.5,0.1,0.5,0.4
	c0,0,0,0,0,0c0,0.1,0.1,0.3,0.1,0.4c0,0.2,0.2,0.3,0.3,0.2c0,0,0,0,0.1,0c0.3-0.1,0.1-0.3,0.1-0.4c0.1-0.4-0.3-0.6-0.2-1
	C159.7,47.4,159.4,47.1,158.4,47.1L158.4,47.1z"/>
<path class="st3" d="M158.4,47.1c1.1,0,1.3,0.3,0.9,1.3c-0.1,0.4,0.3,0.6,0.2,1c0,0.1,0.2,0.3-0.1,0.4c-0.1,0.1-0.3,0-0.4-0.2
	c0,0,0,0,0-0.1c0-0.1-0.1-0.3-0.1-0.4c0-0.2-0.2-0.4-0.5-0.4c0,0,0,0,0,0c-0.3,0-0.3,0.3-0.3,0.5s0.1,0.5-0.2,0.5s-0.2-0.4-0.3-0.6
	c0-0.4,0-0.9,0-1.3S157.9,47,158.4,47.1z M158.5,47.4c-0.4,0-0.4,0.2-0.4,0.4s0.1,0.4,0.4,0.4s0.5-0.1,0.5-0.4
	S158.7,47.5,158.5,47.4L158.5,47.4z"/>
<path class="st2" d="M158.5,47.4c0.2,0,0.5,0.1,0.5,0.4s-0.2,0.4-0.5,0.4s-0.4-0.1-0.4-0.4S158.2,47.4,158.5,47.4z"/>
</svg>
