<?xml version="1.0" encoding="utf-8"?>
<!-- Generator: Adobe Illustrator 21.1.0, SVG Export Plug-In . SVG Version: 6.00 Build 0)  -->
<svg version="1.1" id="Layer_1" xmlns="http://www.w3.org/2000/svg" xmlns:xlink="http://www.w3.org/1999/xlink" x="0px" y="0px"
	 viewBox="0 0 242.2 52.3" style="enable-background:new 0 0 242.2 52.3;" xml:space="preserve">
<style type="text/css">
	.st0{fill:#000FFF;}
	.st1{fill:#0074AC;}
	.st2{fill:#E61E29;}
	.st3{fill:#FFFFFF;}
</style>
<title>Fast Food</title>
<path class="st0" d="M160.7,15.7c2.3,0,4.3,1.9,4.3,4.3s-1.9,4.3-4.3,4.3s-4.3-1.9-4.3-4.3l0,0C156.5,17.6,158.4,15.7,160.7,15.7z
	 M218,31.3c0.2-7.1,11.7-7.8,18.3-3.8l-2.4,4.8c-1.9-1.5-4.3-2.3-6.8-2.1c-2.4,0.2-2.6,2.8,1.2,2.7c6-0.1,9.3,3,9,7.1
	c-0.5,6.6-10.9,9.3-20,3.5l3.4-4.9c2.5,1.5,5.1,2.8,7.6,2.4s4-2.4-0.7-2.9C221.1,37.5,217.9,35.5,218,31.3L218,31.3z M168,46.8V26.5
	h7.4v2.9c2.9-4.8,14-4.8,14,2.6v14.9h-7.3L182,36.6c0-4.1-1.5-4.5-3.5-4.2c-1.7,0.2-3.1,0.8-3.1,4.2v10.2L168,46.8z M156.8,26.1h7.7
	v20.7h-7.7V26.1L156.8,26.1z M119.4,46.8V26.5h7.4v2.9c2.2-3.7,10.8-5.5,13.2,0.2c3.5-5.2,13.7-5,13.7,2.1v15.1h-7.8V35.7
	c0-3-0.5-3.3-3-3.2c-2.1,0.1-2.5,1.8-2.5,3.7v10.5h-7.4l-0.1-10.2c0-4.1-0.9-4.4-2.9-4.2c-2,0.2-2.9,0.5-2.9,4.2v10.2L119.4,46.8z
	 M106.1,24.9c6,0,10.9,4.9,10.9,10.9s-4.9,10.9-10.9,10.9c-6,0-10.9-4.9-10.9-10.9S100.1,24.9,106.1,24.9L106.1,24.9z M65.2,46.8V18
	h8.6c2.3,0,4.7,0.1,7,0.4c1.6,0.2,3.2,0.7,4.7,1.4c2.4,1.2,4.4,3,5.9,5.2c2.7,4.5,2.7,10.2,0,14.7c-1.4,2.2-3.5,4-5.9,5.2
	c-1.5,0.7-3.1,1.2-4.7,1.4c-2.5,0.3-5.1,0.5-7.7,0.4L65.2,46.8z M202.4,24.9c6,0,10.9,4.9,10.9,10.9c0,6-4.9,10.9-10.9,10.9
	c-6,0-10.9-4.9-10.9-10.9S196.4,24.9,202.4,24.9L202.4,24.9z M215.6,15.7c1.6,0,3.1,1,3.8,2.4c0.5,1.2,0.6,2.5,0.2,3.7
	c-0.5,1.8-2,3.6-5.2,5.3l-0.9-1.2c0.6-0.4,1.1-0.9,1.6-1.5c0.5-0.7-0.1-0.5-0.7-0.7c-2.2-0.7-3.4-3-2.7-5.2
	C212.2,16.9,213.8,15.7,215.6,15.7L215.6,15.7z"/>
<path class="st1" d="M239.9,25.9c0.3,0,0.6,0.1,0.9,0.2c0.3,0.2,0.5,0.4,0.7,0.7c0.3,0.6,0.3,1.2,0,1.8c-0.2,0.3-0.4,0.5-0.7,0.7
	c-0.6,0.3-1.2,0.3-1.8,0c-0.3-0.2-0.5-0.4-0.7-0.7c-0.3-0.6-0.3-1.2,0-1.8c0.2-0.3,0.4-0.5,0.7-0.7C239.3,26,239.6,25.9,239.9,25.9z
	 M239.9,26.2c-0.3,0-0.5,0.1-0.7,0.2c-0.2,0.1-0.4,0.3-0.6,0.6c-0.3,0.5-0.3,1,0,1.5c0.1,0.2,0.3,0.4,0.6,0.6c0.5,0.3,1,0.3,1.5,0
	c0.2-0.1,0.4-0.3,0.6-0.6c0.3-0.5,0.3-1,0-1.5c-0.1-0.2-0.3-0.4-0.6-0.6C240.4,26.3,240.1,26.2,239.9,26.2L239.9,26.2z M239.1,28.7
	v-1.9h0.7c0.2,0,0.3,0,0.5,0.1c0.1,0,0.2,0.1,0.2,0.2c0.1,0.1,0.1,0.2,0.1,0.3c0,0.1-0.1,0.3-0.1,0.4c-0.1,0.1-0.2,0.2-0.4,0.2
	c0.1,0,0.1,0.1,0.2,0.1c0.1,0.1,0.2,0.2,0.3,0.4l0.2,0.4h-0.4l-0.2-0.3c-0.1-0.2-0.2-0.3-0.3-0.4c-0.1-0.1-0.2-0.1-0.3-0.1h-0.2v0.8
	H239.1z M239.4,27.6h0.4c0.1,0,0.3,0,0.4-0.1c0.1-0.1,0.1-0.3,0.1-0.4c0,0-0.1-0.1-0.1-0.1c-0.1,0-0.2,0-0.3,0h-0.4L239.4,27.6
	L239.4,27.6z"/>
<path class="st2" d="M18,16.8L33.9,1c0.7-0.7,1.7-0.7,2.4,0l15,15c0.7,0.7,0.7,1.7,0,2.4L35.4,34.3L18,16.8z"/>
<path class="st1" d="M1,33.7L16.9,18l17.4,17.4L18.4,51.2c-0.7,0.7-1.7,0.7-2.4,0l-15-15C0.3,35.5,0.3,34.5,1,33.7L1,33.7z"/>
<path class="st1" d="M23.9,51.8v-2.1h-0.8v-0.4h2v0.4h-0.8v2.1H23.9z M25.4,51.8v-2.5h0.7l0.6,2l0.6-2h0.6v2.5h-0.4v-2.1l-0.6,2.1
	h-0.4l-0.7-2.1v2.1H25.4z"/>
<path class="st3" d="M73.7,39.2V25.6h3.5c1,0,1.9,0.1,2.8,0.2c0.7,0.1,1.3,0.3,1.9,0.7c1,0.6,1.8,1.4,2.4,2.4c1.1,2.2,1.1,4.8,0,7
	c-0.6,1-1.4,1.9-2.4,2.4c-0.6,0.3-1.3,0.5-1.9,0.6c-1,0.2-2.1,0.2-3.1,0.2H73.7z"/>
<path class="st3" d="M106.1,31.9c2.1,0,3.9,1.7,3.9,3.9c0,2.1-1.7,3.9-3.9,3.9c-2.1,0-3.9-1.7-3.9-3.9S104,31.9,106.1,31.9
	L106.1,31.9z"/>
<path class="st3" d="M202.4,31.9c2.1,0,3.9,1.7,3.9,3.9c0,2.1-1.7,3.9-3.9,3.9c-2.1,0-3.9-1.7-3.9-3.9S200.3,31.9,202.4,31.9
	C202.4,31.9,202.4,31.9,202.4,31.9z"/>
<path class="st3" d="M20.3,32.1c1.7-1.7,4.4-1.7,6,0c1.7,1.7,1.7,4.4,0,6c-1.7,1.7-4.4,1.7-6,0c0,0,0,0,0,0
	C18.6,36.5,18.6,33.8,20.3,32.1z"/>
<path class="st3" d="M7.8,32.1c1.7-1.7,4.4-1.7,6,0c1.7,1.7,1.7,4.4,0,6s-4.4,1.7-6,0c0,0,0,0,0,0C6.2,36.5,6.2,33.8,7.8,32.1z"/>
<path class="st3" d="M32.3,14c1.7-1.7,4.4-1.7,6,0c1.7,1.7,1.7,4.4,0,6c-1.7,1.7-4.4,1.7-6,0c0,0,0,0,0,0
	C30.6,18.3,30.6,15.7,32.3,14z"/>
</svg>
