<?xml version="1.0" encoding="utf-8"?>
<!-- Generator: Adobe Illustrator 21.1.0, SVG Export Plug-In . SVG Version: 6.00 Build 0)  -->
<svg version="1.1" id="Layer_1" xmlns="http://www.w3.org/2000/svg" xmlns:xlink="http://www.w3.org/1999/xlink" x="0px" y="0px"
	 viewBox="0 0 234.2 55" style="enable-background:new 0 0 234.2 55;" xml:space="preserve">
<style type="text/css">
	.st0{fill:url(#SVGID_1_);}
	.st1{fill:#050505;}
	.st2{fill:#C12530;}
	.st3{fill:#C3242F;}
	.st4{fill:#2B2B2B;}
	.st5{fill:#C5222E;}
	.st6{fill:#C22630;}
	.st7{fill:#C74849;}
	.st8{fill:#AF2C36;}
	.st9{fill:#AA2030;}
	.st10{fill:#9B1D30;}
	.st11{fill:#D9D8D7;}
</style>
<title>Fast Food</title>
<radialGradient id="SVGID_1_" cx="36.06" cy="39.75" r="18.22" gradientTransform="matrix(1 0 0 -1 0 57)" gradientUnits="userSpaceOnUse">
	<stop  offset="0" style="stop-color:#E56F5B"/>
	<stop  offset="1" style="stop-color:#C5222E"/>
</radialGradient>
<path class="st0" d="M12.2,18.9c0,0,18.3,20.1,18.6,19.6s6.2-7.4,12.6-14.7S54.3,8.6,52.5,6.7S40.7,7.4,35.3,9.4
	S12.2,18.9,12.2,18.9z"/>
<path class="st1" d="M65.3,11.2c3.7,0.2,7.3,0.4,10.9,0.6c3.9,0.1,7.6,1.7,10.3,4.4c1.5,1.6,2.4,3.6,2.6,5.8
	c0.4,2.3,0.1,4.6-0.9,6.7c-1.6,3.1-4.4,5.3-7.8,6c-2.3,0.6-4.8,0.8-7.2,1.1c-1.1,0.2-2.3,0.3-3.4,0.4c-0.2,0-0.5,0-0.6-0.1
	c-1.2-1.7-2.3-3.4-3.5-5.2h0.8c3.4,0,6.8,0,10.1,0c2,0.1,3.9-0.7,5.4-2c2-1.7,2.7-4.4,2-6.9c-0.6-2.6-2.7-4.6-5.3-5
	c-1.8-0.2-3.6-0.4-5.5-0.4v13.2h-3.9c-0.1-1.6-0.3-3.1-0.4-4.7c-0.2-2.8-0.5-5.6-0.7-8.4c0-0.2-0.1-0.3-0.1-0.4
	c-0.9-1.5-1.7-3.1-2.6-4.6c-1.3-2.3-0.1-0.1-0.2-0.1L65.3,11.2z"/>
<path class="st2" d="M210.8,54.5l-2.2-1.2c-0.1-0.1-0.2-0.2-0.4-0.3l1.2-1.1c0.8,0.8,1.9,1.2,3,1.1c0.3,0,0.5-0.1,0.8-0.3
	c0.3-0.3,0.5-0.6,0.6-1c0-0.3-0.4-0.7-0.7-0.7c-0.8-0.2-1.7-0.3-2.6-0.5c-1.2-0.3-1.8-0.8-2-1.7c-0.2-1.1,0.4-2.1,1.4-2.5
	c1.8-0.8,3.9-0.5,5.3,0.9l-1.1,1c-0.7-0.7-1.6-1.1-2.6-1c-0.3,0-0.6,0-0.7,0.2s-0.6,0.6-0.6,0.9s0.4,0.6,0.7,0.7
	c0.7,0.2,1.5,0.3,2.3,0.4c1.5,0.3,2.1,0.9,2.2,1.9c0.1,1.2-0.6,2.4-1.8,2.8l-0.8,0.3L210.8,54.5z"/>
<path class="st2" d="M127.8,54.5c-0.6-0.3-1.2-0.6-1.8-0.9c-0.3-0.2-0.5-0.4-0.7-0.6l1.2-1.1c0.8,0.9,1.9,1.3,3.1,1.1
	c0.3,0,0.6-0.2,0.9-0.4c0.3-0.2,0.4-0.5,0.4-0.9c-0.1-0.3-0.3-0.6-0.6-0.7c-0.9-0.3-1.9-0.4-2.9-0.6c-1.1-0.1-1.9-1.2-1.8-2.3
	c0-0.3,0.1-0.5,0.3-0.8c0.2-0.4,0.5-0.7,0.9-0.9c1.8-1,4.1-0.8,5.6,0.7l-1.1,1c-0.6-0.7-1.6-1.1-2.6-1c-0.3,0-0.6,0.1-0.8,0.3
	c-0.3,0.2-0.5,0.5-0.5,0.9c0,0.2,0.4,0.6,0.6,0.7c0.6,0.2,1.2,0.3,1.8,0.4c0.4,0.1,0.7,0.1,1.1,0.2c0.9,0.1,1.5,0.7,1.7,1.6
	c0.2,0.9-0.1,1.9-0.9,2.5c-0.5,0.3-1.1,0.6-1.7,0.9L127.8,54.5z"/>
<path class="st2" d="M153.9,54.5c-0.5-0.2-0.9-0.4-1.4-0.7c-0.4-0.3-0.7-0.5-1.1-0.8l1.2-1.1c0.7,0.8,1.7,1.1,2.7,1.1
	c0.5,0,0.9-0.2,1.3-0.4c0.4-0.2,0.5-0.7,0.3-1.1c-0.1-0.2-0.3-0.3-0.5-0.4c-0.7-0.2-1.3-0.3-2-0.4c-0.4-0.1-0.8-0.2-1.2-0.3
	c-0.7-0.2-1.3-0.7-1.5-1.5c-0.2-0.9,0.1-1.7,0.8-2.3c1.8-1.2,4.3-1,5.9,0.5l-1.1,1c-0.7-0.8-1.6-1.1-2.6-1c-0.3,0-0.5,0.1-0.7,0.2
	c-0.3,0.3-0.6,0.6-0.6,0.9c0.1,0.4,0.4,0.6,0.7,0.8c0.7,0.2,1.5,0.3,2.3,0.4c1.5,0.3,2.2,0.9,2.3,2c0.1,1.2-0.7,2.4-1.9,2.7
	l-0.8,0.4H153.9z"/>
<path class="st3" d="M136.7,54.5c-0.1-0.1-0.2-0.2-0.4-0.3c-1.2-0.4-2-1.5-2.2-2.8c0-0.2,0.1-0.4,0.1-0.7c0-1.3,0-2.7,0-4
	c0-0.5,0.2-0.6,0.7-0.6s0.6,0.1,0.6,0.6c0,1.2,0,2.5,0,3.7c0,0.1,0.1,0.3,0.1,0.4c0.1,0.9,0.7,1.7,1.5,2c1.1,0.4,2.2-0.2,2.6-1.3
	c0.1-0.2,0.1-0.4,0.1-0.6c0.1-1.4,0.1-2.8,0.1-4.2c0-0.3,0-0.5,0-0.8h1.5v2c0,0.9,0,1.9,0,2.8c0.1,1.6-1,3.1-2.6,3.5
	c-0.1,0-0.2,0.1-0.2,0.1L136.7,54.5z"/>
<path class="st2" d="M169.1,54.5c-0.6-0.3-1.2-0.6-1.7-0.9c-0.3-0.2-0.5-0.4-0.7-0.6l1.2-1c1,1.2,2.8,1.4,4.1,0.6
	c0.4-0.2,0.6-0.5,0.3-1l0,0c-0.1-0.2-0.2-0.5-0.4-0.6c-0.6-0.2-1.1-0.3-1.7-0.4l-2.3-0.5l0,0c-0.5-0.5-0.8-1.2-0.7-1.9
	c0.1-0.4,0.2-0.7,0.3-1.1l0,0l0.1-0.1l0,0l0.1-0.1l0,0l0.1-0.1l0,0c0.4-0.1,0.8-0.3,1.2-0.4c1.2-0.2,2.4-0.2,3.5,0.1l0,0l0.3,0.1
	l0,0l0.4,1l0,0l-1,0.4l0,0l-0.2-0.1l0,0l-0.4-0.3l0,0c-0.7-0.6-1.7-0.6-2.5-0.1l0,0l-0.3,0.1l0,0l-0.3,0.3l0,0
	c-0.5,0.5-0.4,0.9,0.3,1.2l0,0c0.2,0.1,0.3,0.2,0.5,0.3c1.2,0.2,2.3,0.5,3.5,0.7l0,0l0.6,0.5l0,0c0.3,1.4,0.3,2.7-1.3,3.4
	c-0.1,0-0.1,0.1-0.1,0.2l0,0l-1,0.3c0,0,0,0.1,0,0.1L169.1,54.5z"/>
<path class="st4" d="M233.7,15.7c-0.1,0.1-0.2,0.2-0.3,0.2c-0.4,0.5-1.2,0.6-1.8,0.2c0,0-0.1-0.1-0.1-0.1c-0.5-0.5-0.5-1.4,0-1.9
	c0,0,0,0,0,0c0.6-0.5,1.4-0.4,1.8,0.2c0,0,0,0,0,0.1l0.2,0.2V15.7z M232.5,14.1c-0.6,0-1,0.5-1,1.1c0,0.6,0.4,1,1,1s1-0.4,1-1
	C233.5,14.6,233.1,14.1,232.5,14.1L232.5,14.1z"/>
<path class="st1" d="M209.1,23.7c0,7-5.6,12.4-12.8,12.4c-6.8-0.2-12.2-5.9-12-12.8s5.9-12.2,12.8-12
	C203.8,11.5,209.1,17,209.1,23.7z M196.8,16.7c-4.2,0.2-7.4,3.6-7.3,7.8c0.1,3.9,3.3,7.1,7.3,7.3c4.2-0.2,7.4-3.6,7.3-7.8
	C203.9,20,200.7,16.8,196.8,16.7z"/>
<path class="st1" d="M92.3,23.7c-0.2-7,5.3-12.9,12.3-13.1c7-0.2,12.9,5.3,13.1,12.3s-5.3,12.9-12.3,13.1c-0.1,0-0.2,0-0.3,0
	C97.9,36.1,92.3,30.7,92.3,23.7z M105.4,16.7c-4.2,0-7.6,3.3-7.6,7.5c0,4.2,3.3,7.6,7.5,7.6s7.6-3.3,7.6-7.5c0,0,0,0,0-0.1
	C112.9,20.1,109.6,16.8,105.4,16.7L105.4,16.7z"/>
<path class="st1" d="M136.2,25.3c0.1-2.2,0.2-4.2,0.2-6.2c0.1-2.3,0.2-4.5,0.3-6.8c0-0.3,0.1-0.6,0.5-0.7c1.5-0.5,3-1,4.6-1.6
	l-1.7,26.5l-13.7-14.6v13.5h-3.9l-1.7-24.8L136.2,25.3z"/>
<path class="st1" d="M211.5,27c1,0.8,2,1.7,3.1,2.4c2.2,1.6,4.8,2.3,7.5,2.1c0.9-0.1,1.7-0.3,2.5-0.7c0.9-0.4,1.4-1.3,1.3-2.2
	c-0.1-0.9-0.7-1.6-1.6-1.7c-1.8-0.4-3.7-0.8-5.5-1.2c-1.1-0.3-2.2-0.6-3.2-1c-4.8-2-4.6-8.1-1.4-10.7c1.9-1.5,4.3-2.2,6.7-2.1
	c2.8,0.1,5.5,0.6,8.1,1.3l-3.1,4.1c-1.6-1-3.5-1.4-5.4-1.3c-0.9,0-1.9,0.3-2.6,0.9c-0.6,0.4-1,1.2-0.9,2c0.1,0.8,0.7,1.4,1.5,1.5
	c1.7,0.5,3.4,0.9,5.1,1.3c1.8,0.2,3.6,0.9,5.1,2c2.7,2.4,3,6.6,0.5,9.3c-0.3,0.4-0.7,0.7-1.1,1c-1.8,1.2-4,1.8-6.1,1.8
	c-3.4,0.2-6.7-0.8-9.3-2.9c-0.3-0.2-0.5-0.6-0.6-0.9C212,30.3,211.8,28.6,211.5,27z"/>
<path class="st1" d="M153.3,9.6l12.9,26c-1.6,0-3,0-4.4,0c-0.2,0-0.4-0.3-0.5-0.4c-0.5-1.1-1-2.2-1.5-3.4c-0.1-0.3-0.4-0.6-0.8-0.5
	c-3,0-6,0-9,0c-0.4-0.1-0.7,0.2-0.8,0.5c-0.5,1.1-1,2.2-1.5,3.3c-0.1,0.3-0.4,0.5-0.8,0.5c-1.2,0-2.4,0-3.7,0L153.3,9.6z
	 M157.5,26.6l-3-6.7l-3,6.7H157.5z"/>
<path class="st1" d="M184.4,11.2c-0.7,1.8-1.3,3.4-1.9,5.1c-0.1,0.2-0.4,0.3-0.6,0.3c-1.8,0-3.6,0-5.4,0h-0.7v18.9h-5V16.7
	c-0.2,0-0.4,0-0.6,0c-1.7,0-3.3,0-5,0c-0.4,0.1-0.8-0.2-0.9-0.6c-0.6-1.2-1.1-2.4-1.8-3.7L184.4,11.2z"/>
<path class="st5" d="M18.4,50.1L9.6,25.9l0.2-0.2l18.8,19.8L18.4,50.1z"/>
<path class="st3" d="M148.7,46.1c1.9,0.5,2.3,2.4,0.9,3.8c1.2,0.8,1.5,1.6,1.2,2.8c-0.3,1.1-1.4,1.8-2.6,1.7h-4.6v-3.5l-1-0.1v-1.4
	l0.9-0.1c0.1-0.1,0.2-0.2,0.2-0.3c0-0.8,0.1-1.5,0.1-2.3c0-0.4,0.1-0.5,0.5-0.5c0.6,0,1.2,0,1.9,0C147.1,46.2,147.9,46.2,148.7,46.1
	z M148.2,47.5L148.2,47.5c-0.4-0.1-0.8-0.1-1.2-0.2c-0.7,0-1.3,0.1-2,0.2v1.9c0.9,0,1.8,0,2.6,0c0.4-0.1,0.8-0.3,1-0.6
	c0.3-0.4,0-0.8-0.4-1.1L148.2,47.5z M148.5,50.8L148.5,50.8c-0.2-0.1-0.3-0.1-0.5-0.2c-0.8,0-1.6,0-2.5,0c-0.2,0-0.3,0.1-0.5,0.2v2
	c0.1,0.1,0.2,0.2,0.3,0.2c0.9,0,1.9,0,2.8,0c0.1,0,0.3-0.1,0.4-0.2c0.9-0.6,0.9-1.1,0.1-1.9L148.5,50.8z"/>
<path class="st6" d="M111,47.5v-1.4c1.1,0,2.1,0,3.2,0c0.1,0,0.3,0.1,0.4,0.2c1.1,2.6,2.3,5.3,3.4,8c-0.5,0-0.9,0-1.4,0
	c-0.3-0.1-0.5-0.3-0.5-0.6c0-0.6-0.6-1.1-1.2-1.1c-0.1,0-0.2,0-0.3,0.1c-0.3,0-0.6,0-0.8,0c-1.1-0.1-1.9,0-2.1,1.3
	c-0.1,0.1-0.2,0.3-0.4,0.3c-0.4,0-0.9,0-1.4,0l3-6.9L111,47.5z M112.8,51.4h2.4l-1.2-2.9L112.8,51.4z"/>
<path class="st6" d="M177.4,47.5h-1.8v-1.4c1,0,2.1,0,3.1,0c0.1,0,0.3,0.1,0.4,0.2c1.1,2.6,2.3,5.3,3.4,8.1c-0.2,0-0.4,0-0.6,0
	c-0.6,0.2-1.2-0.1-1.4-0.7c0-0.1-0.1-0.2-0.1-0.3c-0.1-0.5-0.4-0.6-0.9-0.6c-0.8,0-1.5,0-2.3,0c-0.3-0.1-0.7,0.2-0.8,0.5
	c-0.5,1.2-0.5,1.2-2.1,1L177.4,47.5z M178.5,48.5l-1.2,2.9h2.3L178.5,48.5z"/>
<path class="st6" d="M193.4,47.4h-1.9v-1.4c1.1,0,2.1,0,3.2,0c0.1,0,0.3,0.2,0.4,0.3c1.1,2.6,2.2,5.2,3.4,7.9c-0.5,0-0.9,0-1.4,0
	c-0.2,0-0.4-0.3-0.5-0.5c-0.5-1.1-0.5-1.1-1.6-1.1c-0.5,0-1.1,0-1.6,0c-0.4-0.1-0.9,0.2-1,0.6c0,0,0,0.1,0,0.1
	c-0.1,0.3-0.2,0.6-0.4,0.9h-1.6L193.4,47.4z M193.2,51.4h2.3l-1.2-2.9L193.2,51.4z"/>
<path class="st3" d="M88.1,46.1c1.5,0.2,2.5,1.6,2.2,3.1c0,0,0,0,0,0.1c-0.2,1.5-1.4,2.5-2.9,2.4c-0.8,0-1.6,0-2.5,0v2.5h-1.6v-2.5
	l-1-0.1v-1.4l0.9-0.1c0.1-0.2,0.1-0.4,0.2-0.6c0-0.9,0-1.9,0-2.8c0-0.4,0.1-0.6,0.6-0.6c0.7,0,1.5,0,2.2,0S87.5,46.2,88.1,46.1z
	 M84.9,47.5v2.7h2.4c0.6,0.1,1.2-0.3,1.4-0.9c0.2-0.6-0.1-1.3-0.7-1.6c-0.3-0.1-0.7-0.2-1-0.3C86.3,47.4,85.6,47.5,84.9,47.5z"/>
<path class="st6" d="M101.4,46.4l-3.9,6.1c-0.1,0.1-0.1,0.2-0.2,0.4c0.2,0.1,0.4,0.1,0.6,0.2c0.8,0,1.7,0,2.5,0c1,0,1.1,0.2,0.8,1.2
	c-2,0-4.1,0-6.2,0c-0.1,0-0.2-0.2-0.3-0.3c1.2-2,2.4-3.9,3.7-5.9c0.1-0.2,0.2-0.4,0.2-0.6c-0.2-0.1-0.4-0.1-0.7-0.1
	c-0.8,0-1.7,0-2.5,0c-0.4,0-0.5-0.2-0.6-0.6s0.1-0.6,0.6-0.6c1.8,0,3.6,0,5.4,0C101.1,46.3,101.2,46.3,101.4,46.4z"/>
<path class="st6" d="M185.1,46.1v6.7h3.3V51h1.5v3.4h-6.2v-8.2L185.1,46.1z"/>
<path class="st3" d="M109.2,46.5l-3.6,5.7c-0.1,0.2-0.2,0.4-0.3,0.6c0.2,0.1,0.5,0.1,0.7,0.1c1.1,0,2.2,0,3.3,0c0,1.1,0,1.1-1,1.1
	h-4.6c-0.2,0-0.5,0-0.7,0l0.5-1.2l0,0l0.3-0.4l0,0l0.7-1.1l0,0l0.4-0.7l0,0l0.5-0.8l0,0l0.4-0.7l0,0l0.3-0.4l0,0l0.4-0.7l0,0
	c0.2-0.2,0.6-0.3,0.2-0.7c-1.1,0-2.1,0-3.2,0c-0.4,0-0.6-0.1-0.6-0.6s0.2-0.5,0.6-0.5c1.7,0,3.4,0,5.2,0
	C108.8,46.3,109,46.4,109.2,46.5z"/>
<path class="st7" d="M91.6,46.1h1.5v8.3h-1.5V46.1z M91.8,50.2c0,1.1,0,2.2,0,3.3c0,0.4,0.1,0.6,0.6,0.6s0.6-0.3,0.6-0.7
	c0-2.2,0-4.4,0-6.7c0-0.4-0.1-0.6-0.6-0.6s-0.6,0.1-0.6,0.6C91.8,47.9,91.8,49.1,91.8,50.2z"/>
<path class="st8" d="M205.7,53.6c-0.5,0.3-1.1,0.5-1.8,0.7c-1.4,0.1-2.9,0-4.4,0V46c1.6,0.1,3.3,0.1,4.9,0.3
	c0.2,0.1,0.5,0.2,0.7,0.3l0,0c-0.4-0.1-0.9-0.2-1.3-0.3c-1.2,0-2.4,0-3.6,0c-0.2,0-0.4,0.3-0.4,0.4c0,2.3,0,4.7,0,7
	c0,0.1,0.2,0.4,0.4,0.4c1.9,0,3.8,0.3,5.5-0.6L205.7,53.6z"/>
<path class="st7" d="M103.4,52.9l-0.5,1.2c0.3,0,0.5,0,0.7,0h4.6c1,0,1,0,1-1.1l0.1-0.1l0.1,1.4h-7L103.4,52.9z"/>
<path class="st8" d="M94.9,54c0.1,0.1,0.2,0.3,0.3,0.3c2.1,0,4.1,0,6.2,0c0.3-1.1,0.2-1.2-0.8-1.2c-0.8,0-1.7,0-2.5,0
	c-0.2,0-0.4-0.1-0.6-0.2h4.2v1.4h-6.9L94.9,54z"/>
<path class="st9" d="M109.2,46.5c-0.2-0.1-0.4-0.3-0.6-0.3c-1.7,0-3.4,0-5.2,0c-0.4,0-0.6,0.1-0.6,0.5s0.2,0.6,0.6,0.6
	c1.1,0,2.1,0,3.2,0v0.1h-3.9v-1.4h6.7L109.2,46.5z"/>
<path class="st9" d="M101.4,46.4c-0.2-0.1-0.3-0.1-0.5-0.1c-1.8,0-3.6,0-5.4,0c-0.4,0-0.6,0.1-0.6,0.6s0.1,0.6,0.6,0.6
	c0.8,0,1.7,0,2.5,0c0.2,0,0.4,0.1,0.7,0.1h-3.8v-1.4h6.2C101.3,46.1,101.7,45.9,101.4,46.4z"/>
<path class="st9" d="M135.6,50.9c-0.1-0.1-0.1-0.3-0.1-0.4c0-1.2,0-2.5,0-3.7c0-0.5-0.2-0.6-0.6-0.6s-0.7,0.1-0.7,0.6
	c0,1.3,0,2.7,0,4c0,0.2,0,0.4-0.1,0.7v-5.4h1.5L135.6,50.9z"/>
<path class="st9" d="M148.7,46.1c-0.8,0-1.6,0.1-2.5,0.1c-0.6,0-1.2,0-1.9,0c-0.4,0-0.5,0.1-0.5,0.5c0,0.8,0,1.5-0.1,2.3
	c0,0.1-0.1,0.2-0.2,0.3v-3.2L148.7,46.1z"/>
<path class="st9" d="M88.1,46.1c-0.6,0-1.2,0.1-1.8,0.1s-1.5,0-2.2,0c-0.4,0-0.6,0.1-0.6,0.6c0,0.9,0,1.9,0,2.8
	c0,0.2-0.1,0.4-0.2,0.6c0-1.4,0-2.7,0-4.1L88.1,46.1z"/>
<path class="st5" d="M56.4,28.7c0,0.9,0.1,1.8,0.1,2.7C56.5,30.5,56.4,29.6,56.4,28.7l-0.1-1.1c0-0.2,0-0.3,0-0.5
	c-0.2-2.1-0.3-4.2-0.5-6.4c-0.1-0.8-0.2-1.7-0.2-2.5h-0.1l-0.3,0.7l0,0l-0.1,0.2l0,0l-0.2,0.3l0,0l-0.3,0.4l0,0L54,20.6l0,0L53.7,21
	l0,0l-0.5,0.8l0,0l-0.3,0.4l0,0l-1.1,1.7l0,0l-0.3,0.4l0,0l-0.1,0.2l0,0l-0.3,0.4l0,0l-0.3,0.4l0,0l-0.7,1l0,0l-0.4,0.6l0,0
	l-0.4,0.6l0,0L49,27.8l0,0L48.8,28l0,0l-0.4,0.6l0,0l-0.8,1.1l0,0l-0.4,0.6l-9,10.8l0.1,0.1l1-0.4l0.7-0.3l0,0l0.3-0.1l0,0l1-0.4
	l0,0l0.3-0.1l0,0l1-0.4l0,0l0.3-0.1l0,0l1.5-0.7l0,0l1.2-0.6l0,0l0.3-0.1l0,0l1-0.4l0,0l1.5-0.7l0,0l0.3-0.1l0,0l0.3-0.1l0,0l1-0.4
	l0,0l0.3-0.1l0,0l1-0.4l0,0l1.5-0.7l0,0l0.3-0.1l0,0l0.3-0.1l0,0l1.2-0.6l0,0l1-0.4l0,0c0.4-0.1,0.7-0.3,1.1-0.4
	c0.2-0.1,0.3-0.3,0.3-0.5C56.6,31.2,56.5,30,56.4,28.7z M55.2,18.9c0.4,0,0.3,0.4,0.3,0.7C55.5,19.3,55.6,19,55.2,18.9L55.2,18.9z
	 M55.1,18.9L55.1,18.9z"/>
<path class="st8" d="M172.6,46.4c-1.1-0.3-2.3-0.4-3.5-0.1c-0.4,0.1-0.8,0.3-1.2,0.4C169.3,45.7,171.1,45.6,172.6,46.4z"/>
<path class="st8" d="M167.9,50.1l2.3,0.5c0.6,0.1,1.1,0.2,1.7,0.4c0.2,0.1,0.3,0.4,0.4,0.6c-0.4-0.7-1.1-0.6-1.7-0.8
	C169.6,50.6,168.8,50.4,167.9,50.1z"/>
<path class="st8" d="M172.1,54.1c0-0.1,0.1-0.1,0.1-0.2c1.6-0.7,1.6-2,1.3-3.4c0.7,1.1,0.4,2.6-0.8,3.3
	C172.6,54,172.3,54.1,172.1,54.1z"/>
<path class="st8" d="M206.8,47.9c0.9,1.2,1,2.8,0.3,4.2l0,0c0.1-0.5,0.2-1,0.3-1.5C207.4,49.7,207.2,48.8,206.8,47.9L206.8,47.9z"/>
<path class="st8" d="M173,50c-1.2-0.2-2.3-0.4-3.5-0.7c-0.2-0.1-0.3-0.2-0.5-0.3c1,0.2,1.9,0.3,2.9,0.5
	C172.2,49.7,172.6,49.8,173,50z"/>
<path class="st8" d="M167.4,47.1c-0.1,0.4-0.2,0.7-0.3,1.1c-0.1,0.7,0.2,1.4,0.7,1.9c-0.9-0.6-1.2-1.8-0.6-2.8
	C167.3,47.3,167.4,47.2,167.4,47.1z"/>
<path class="st10" d="M109.3,52.9l-0.1,0.1c-1.1,0-2.2,0-3.3,0c-0.2,0-0.5-0.1-0.7-0.1L109.3,52.9z"/>
<path class="st8" d="M169.3,47.4c0.8-0.5,1.8-0.4,2.5,0.1C171,47.2,170.1,47.1,169.3,47.4z"/>
<path class="st8" d="M207.1,52l-1.4,1.5l0,0L207.1,52z"/>
<path class="st8" d="M205.4,46.6l1.4,1.2l0,0L205.4,46.6L205.4,46.6z"/>
<path class="st8" d="M173.3,47.5l-0.4-1l0.9,0.6L173.3,47.5z"/>
<path class="st8" d="M169,49c-0.7-0.3-0.8-0.7-0.3-1.2C168.4,48.2,168.6,48.7,169,49C169,49,169,49,169,49z"/>
<path class="st7" d="M104.4,51.3l-0.7,1.1L104.4,51.3z"/>
<path class="st8" d="M172.3,47.9l1-0.4C172.9,47.6,172.9,48.4,172.3,47.9z"/>
<path class="st7" d="M105.3,49.8l-0.5,0.8L105.3,49.8z"/>
<path class="st8" d="M171.2,54.4l1-0.3L171.2,54.4z"/>
<path class="st7" d="M104.8,50.7l-0.4,0.7L104.8,50.7z"/>
<path class="st8" d="M172.3,51.6c0.3,0.4,0,0.7-0.3,1L172.3,51.6z"/>
<path class="st7" d="M106.6,47.5v-0.1c0.5,0.4,0,0.5-0.2,0.7L106.6,47.5z"/>
<path class="st7" d="M106.4,48l-0.4,0.7L106.4,48z"/>
<path class="st7" d="M105.8,49.1l-0.4,0.7L105.8,49.1z"/>
<path class="st8" d="M173.6,50.5L173,50L173.6,50.5z"/>
<path class="st7" d="M106,48.7l-0.3,0.4L106,48.7z"/>
<path class="st8" d="M171.7,47.5l0.4,0.3L171.7,47.5z"/>
<path class="st7" d="M103.7,52.4l-0.3,0.4L103.7,52.4z"/>
<path class="st8" d="M168.7,47.8l0.3-0.3L168.7,47.8z"/>
<path class="st8" d="M172.9,46.5l-0.3-0.1L172.9,46.5z"/>
<path class="st8" d="M169,47.5l0.3-0.1L169,47.5z"/>
<path class="st8" d="M205.1,46.5l0.3,0.1l0,0L205.1,46.5z"/>
<path class="st8" d="M172.1,47.8l0.2,0.1L172.1,47.8z"/>
<path class="st8" d="M167.6,46.9l-0.1,0.1L167.6,46.9z"/>
<path class="st8" d="M167.9,46.7l-0.1,0.1L167.9,46.7z"/>
<path class="st8" d="M167.7,46.8l-0.1,0.1L167.7,46.8z"/>
<path class="st5" d="M0.5,0.7L0.5,0.7c0,0.2,2.6,7.2,3.8,10.6l1.2,3.3l5.9-2.7C19.7,8,28.2,4.5,36.9,1.5c0.9-0.3,1.8-0.7,2.7-1
	C37.8,0.5,0.5,0.7,0.5,0.7z"/>
<path class="st11" d="M232.5,14.1c0.6,0,1,0.5,1,1.1c0,0.6-0.4,1-1,1s-1-0.4-1-1C231.4,14.6,231.9,14.1,232.5,14.1z M232.9,15.9h0.1
	c-0.1-0.2-0.1-0.5-0.1-0.7c0-0.8,0-0.8-0.8-0.6v1.3h0.1l0.2-0.7L232.9,15.9z"/>
<path class="st9" d="M148.8,51l-0.3-0.1L148.8,51z"/>
<path class="st9" d="M148.4,47.6l-0.2-0.1L148.4,47.6z"/>
<path class="st9" d="M88.1,47.7l-3.2-0.2c0.7-0.1,1.4-0.2,2.1-0.2C87.4,47.4,87.8,47.5,88.1,47.7z"/>
<path class="st5" d="M91.8,50.2c0-1.1,0-2.3,0-3.4c0-0.5,0.2-0.6,0.6-0.6s0.6,0.2,0.6,0.6c0,2.2,0,4.4,0,6.7c0,0.4-0.1,0.7-0.6,0.7
	s-0.6-0.2-0.6-0.6C91.8,52.4,91.8,51.3,91.8,50.2z"/>
<path class="st3" d="M205.1,46.5l0.3,0.1l1.4,1.2c0.4,0.8,0.6,1.7,0.6,2.6c-0.1,0.5-0.2,1-0.3,1.5l-1.3,1.5
	c-1.8,0.9-3.7,0.5-5.5,0.6c-0.1,0-0.4-0.3-0.4-0.4c0-2.3,0-4.7,0-7c0-0.1,0.3-0.4,0.4-0.4c1.2,0,2.4,0,3.6,0
	C204.2,46.3,204.7,46.4,205.1,46.5z M201.1,47.5v5.6c1-0.1,1.9-0.1,2.8-0.3c1.2-0.2,2.1-1.4,2.1-2.6c0-1.1-0.7-2.1-1.8-2.5
	C203.2,47.2,202.1,47.2,201.1,47.5z"/>
<path class="st4" d="M232.9,15.9l-0.5-0.8l-0.2,0.7h-0.1v-1.3c0.8-0.1,0.8-0.1,0.8,0.6c0,0.2,0,0.5,0.1,0.7L232.9,15.9z"/>
<path class="st9" d="M204.2,47.6l-3-0.1C202.1,47.2,203.2,47.2,204.2,47.6z"/>
</svg>
