<?xml version="1.0" encoding="utf-8"?>
<!-- Generator: Adobe Illustrator 21.1.0, SVG Export Plug-In . SVG Version: 6.00 Build 0)  -->
<svg version="1.1" id="Layer_1" xmlns="http://www.w3.org/2000/svg" xmlns:xlink="http://www.w3.org/1999/xlink" x="0px" y="0px"
	 viewBox="0 0 181 24.6" style="enable-background:new 0 0 181 24.6;" xml:space="preserve">
<style type="text/css">
	.st0{fill:#016239;}
	.st1{fill:#EE3135;}
</style>
<title>Grocery</title>
<path class="st0" d="M94.9,0.5c0.6,2.7-1.2,3.9-3.1,5.1c2.8-0.6,5.6,0,7.9,1.7c1.8,1.3,3,3.3,3.5,5.4c1.1,5.1-2.1,10-7.2,11.1
	c-3.8,0.8-7.7-0.8-9.8-4.1c-2.8-4.4-1.5-10.2,2.9-13.1c-1.9-0.3-3.6-0.6-4.6-2.4c-0.4-0.8-0.5-1.7-0.3-2.6c0.5,1.1,1.6,1,2.6,1.2
	c1.1,0.1,2.1,0.5,2.9,1.1C90.4,1.3,92.7,1.1,94.9,0.5z"/>
<path class="st0" d="M160.2,3.1h3.5c0,0.3,0,0.6,0,0.9c0,3.9,0,7.8,0,11.8c0.1,3.8-2.5,7.1-6.1,8c-4.3,0.9-8.6-1.8-9.5-6.1
	c-0.9-4.3,1.8-8.6,6.1-9.5c0.5-0.1,1-0.2,1.5-0.2c1.4,0,2.7,0.4,3.9,1.1l0.6,0.3L160.2,3.1z M155.6,20.6c2.5,0.2,4.7-1.6,4.9-4.1
	c0.2-2.5-1.6-4.7-4.1-4.9c-0.3,0-0.6,0-0.8,0c-2.5,0.2-4.3,2.4-4.1,4.9C151.8,18.6,153.5,20.4,155.6,20.6z"/>
<path class="st0" d="M16.4,18.2c-1.3,4.3-5.8,6.8-10.1,5.5c-0.7-0.2-1.3-0.5-1.9-0.9c-2.6-1.5-4.1-4.4-3.9-7.4C0.9,11,4.8,7.6,9.2,8
	c4.5,0.3,7.8,4.2,7.5,8.7l0,0c0,0.4-0.1,0.6-0.6,0.6c-3.5,0-7,0-10.5,0c-0.5,0-0.7-0.1-0.7-0.6c0-0.5,0-1,0-1.6
	c0-0.4,0.2-0.6,0.7-0.6c2.2,0,4.5,0,6.7,0H13c-0.4-1.3-1.4-2.4-2.7-2.9c-2.2-0.9-4.7,0.1-5.8,2.3c-1.1,2.3-0.1,5,2.2,6.1
	c2,0.9,4.4,0.3,5.6-1.5c0.2-0.3,0.5-0.5,0.9-0.4C14.2,18.2,15.3,18.2,16.4,18.2z"/>
<path class="st0" d="M129.4,16c0,4.5-3.6,8.1-8.1,8.1s-8.1-3.6-8.1-8.1c0-4.5,3.6-8.1,8.1-8.1c0,0,0,0,0,0
	C125.7,7.9,129.4,11.5,129.4,16z M121.2,20.6c2.5,0,4.6-2.1,4.5-4.6c0-2.5-2.1-4.6-4.6-4.5c-2.5,0-4.5,2-4.5,4.5
	c0,2.5,2,4.6,4.5,4.6C121.2,20.6,121.2,20.6,121.2,20.6z"/>
<path class="st0" d="M42.9,7.9c4.5,0,8,3.7,8,8.1c0,4.5-3.7,8-8.1,8c-4.5,0-8-3.7-8-8.1c0,0,0-0.1,0-0.1
	C34.9,11.4,38.5,7.9,42.9,7.9z M42.9,20.5c2.5,0,4.6-2.1,4.5-4.6c0-2.5-2.1-4.6-4.6-4.5c-2.5,0-4.5,2.1-4.5,4.6
	C38.3,18.5,40.4,20.5,42.9,20.5C42.9,20.6,42.9,20.6,42.9,20.5L42.9,20.5z"/>
<path class="st0" d="M75.4,7.9c4.5,0,8.1,3.7,8,8.1c0,4.5-3.7,8.1-8.1,8c-4.5,0-8.1-3.6-8-8.1C67.3,11.5,70.9,7.9,75.4,7.9z
	 M75.4,20.5c2.5,0.1,4.7-1.8,4.8-4.4s-1.8-4.7-4.4-4.8c-0.1,0-0.3,0-0.4,0c-2.5-0.1-4.7,1.8-4.8,4.4c-0.1,2.5,1.8,4.7,4.4,4.8
	C75.1,20.5,75.2,20.5,75.4,20.5z"/>
<path class="st0" d="M146.6,16c0,4.5-3.6,8.1-8.1,8.1c-4.5,0-8.1-3.6-8.1-8.1c0-4.5,3.6-8.1,8.1-8.1C143,7.9,146.6,11.5,146.6,16
	C146.6,16,146.6,16,146.6,16z M138.5,20.6c2.5,0,4.6-2,4.6-4.6s-2-4.6-4.6-4.6s-4.6,2-4.6,4.6c0,0,0,0,0,0
	C134,18.5,136,20.5,138.5,20.6z"/>
<path class="st0" d="M33.5,18.2c-1.1,3.9-4.8,6.3-8.8,5.8c-4.4-0.6-7.5-4.7-6.9-9.1s4.7-7.5,9.1-6.9c3.7,0.5,6.5,3.4,6.9,7.1
	c-0.6,0-1.2,0-1.7,0c-1,0.3-2-0.3-2.3-1.3c0,0,0,0,0,0c-0.9-1.9-3.1-2.8-5.1-2.2c-2,0.5-3.4,2.4-3.4,4.5c0,2.5,2.1,4.5,4.6,4.5
	c1.5,0,2.8-0.7,3.7-1.9c0.2-0.3,0.5-0.4,0.8-0.4C31.4,18.2,32.4,18.2,33.5,18.2z"/>
<path class="st0" d="M62.5,23.6c0-0.3,0-0.5,0-0.8c0-2.7,0-5.3,0-8c0-1.9-1.5-3.4-3.3-3.4c-0.7,0-1.3,0.2-1.9,0.6
	c-0.9,0.6-1.4,1.6-1.4,2.6c0,2.8,0,5.5,0,8.3c0,0.5-0.1,0.7-0.6,0.7c-0.9,0-1.9,0-2.8,0c0-0.2,0-0.4,0-0.6c0-2.7,0-5.4,0-8.1
	c0.1-3.8,3.2-6.8,6.9-6.7c3.2,0.1,5.9,2.3,6.6,5.4c0.1,0.3,0.1,0.7,0.1,1c0,2.8,0,5.6,0,8.4c0,0.2,0,0.3,0,0.5L62.5,23.6z"/>
<path class="st0" d="M165.1,19.1c1.1,0,2.1,0,3.2,0c0.1,0,0.3,0.2,0.4,0.4c0.6,1.1,1.9,1.5,3,1.1c0.6-0.2,1-0.7,1-1.4
	c0-0.6-0.5-0.9-1-1.1c-0.7-0.2-1.5-0.3-2.3-0.6c-0.8-0.2-1.5-0.6-2.2-1c-2-1.3-2.5-4-1.2-6c0.1-0.1,0.2-0.3,0.3-0.4
	c1.3-1.8,3.6-2.6,5.8-2.1c2.1,0.3,3.8,1.9,4.2,4c0.1,0.2,0.1,0.5,0.1,0.8c-1.1,0-2.1,0-3.2,0c-0.1,0-0.3-0.3-0.4-0.4
	c-0.6-1.1-2-1.5-3.2-0.9c-0.1,0.1-0.2,0.1-0.3,0.2c-0.6,0.4-0.7,1.1-0.3,1.7c0.1,0.2,0.3,0.4,0.6,0.5c0.7,0.3,1.4,0.5,2.1,0.7
	c0.4,0.1,0.9,0.2,1.3,0.4c2.3,0.6,3.7,2.9,3.1,5.1c-0.1,0.4-0.2,0.7-0.4,1c-1.1,2.2-3.5,3.3-5.9,2.9c-2.3-0.3-4.2-2-4.7-4.3
	C165.1,19.5,165.1,19.3,165.1,19.1z"/>
<path class="st0" d="M104.9,8.4h1.7c-0.2-1.9,0.7-3.8,2.3-4.9c1.1-0.8,2.6-1,3.9-0.7v3.3c-0.9-0.1-1.7,0.3-2.2,1
	c-0.2,0.4-0.5,0.9-0.6,1.3h2.3V12h-2.1v11.6h-3.5V12h-1.7L104.9,8.4z"/>
<path class="st0" d="M178.2,7.8c-1.2,0-2.2-1-2.2-2.2c0-1.2,1-2.2,2.2-2.2c1.2,0,2.2,1,2.2,2.2c0,0,0,0,0,0
	C180.5,6.9,179.5,7.8,178.2,7.8C178.3,7.8,178.3,7.8,178.2,7.8z M178.2,7.6c1.1,0,2-0.8,2.1-1.9c0,0,0,0,0,0c0-1.1-0.8-2-1.9-2.1
	c-1.1,0-2,0.8-2.1,1.9C176.2,6.7,177.1,7.6,178.2,7.6C178.2,7.6,178.2,7.6,178.2,7.6L178.2,7.6z"/>
<path d="M178.2,7.9c-1.2,0-2.3-1-2.3-2.3s1-2.3,2.3-2.3s2.3,1,2.3,2.3S179.5,7.9,178.2,7.9z M178.2,3.6c-1.1,0-2,0.9-2,2s0.9,2,2,2
	s2-0.9,2-2S179.4,3.6,178.2,3.6z"/>
<path d="M177.1,6.9V4.3h1.1c0.2,0,0.4,0,0.6,0.1c0.1,0,0.2,0.1,0.3,0.3c0.1,0.1,0.1,0.3,0.1,0.4c0,0.2-0.1,0.3-0.2,0.5
	c-0.1,0.1-0.3,0.2-0.5,0.2c0.1,0.1,0.2,0.1,0.3,0.2c0.1,0.1,0.2,0.3,0.3,0.4l0.3,0.5h-0.6l-0.4-0.6c-0.1-0.1-0.2-0.3-0.3-0.4
	c0,0-0.1-0.1-0.2-0.1c-0.1,0-0.2,0-0.3,0h-0.1V7L177.1,6.9z M177.6,5.4h0.4c0.2,0,0.3,0,0.5,0c0.1,0,0.1-0.1,0.1-0.1
	c0-0.1,0.1-0.1,0.1-0.2c0-0.1,0-0.2-0.1-0.2c-0.1-0.1-0.1-0.1-0.2-0.1h-0.8V5.4z"/>
<circle class="st1" cx="94.1" cy="14.7" r="9.3"/>
</svg>
