<?xml version="1.0" encoding="utf-8"?>
<!-- Generator: Adobe Illustrator 21.1.0, SVG Export Plug-In . SVG Version: 6.00 Build 0)  -->
<svg version="1.1" id="Layer_1" xmlns="http://www.w3.org/2000/svg" xmlns:xlink="http://www.w3.org/1999/xlink" x="0px" y="0px"
	 viewBox="0 0 179 179" style="enable-background:new 0 0 179 179;" xml:space="preserve">
<style type="text/css">
	.st0{fill:#EFB310;}
	.st1{fill:#231F20;}
	.st2{fill:#FFFFFF;}
</style>
<title>Fast Casual</title>
<path class="st0" d="M89.5,177.3c48.5,0,87.8-39.3,87.8-87.8S138,1.7,89.5,1.7S1.7,41,1.7,89.5v0C1.7,138,41,177.3,89.5,177.3z"/>
<path class="st1" d="M89.5,176.1L89.5,176.1c47.8,0,86.6-38.8,86.6-86.6l0,0c0-47.8-38.8-86.6-86.6-86.6l0,0
	C41.7,2.9,2.9,41.7,2.9,89.5c0,0,0,0,0,0l0,0C2.9,137.3,41.7,176.1,89.5,176.1L89.5,176.1L89.5,176.1z M89.5,178.5L89.5,178.5
	c-49.2,0-89-39.8-89-89l0,0c0-49.2,39.8-89,89-89l0,0c49.2,0,89,39.8,89,89l0,0C178.5,138.7,138.7,178.5,89.5,178.5z"/>
<path class="st1" d="M57.1,135.7l4.9,3.1c3.5,2.3,3.9,5.1,1.8,8.4c-1.1,1.6-2.9,2.9-4.9,2.5c1.2,1.8,1.3,3.8-0.3,6.3
	c-2,3.1-5,4.6-8.7,2.2l-5.2-3.4L57.1,135.7L57.1,135.7z M49.7,154.2l1.3,0.9c1.8,1.1,3.1,0.5,4.3-1.4s1.2-3.4-0.8-4.7l-1.1-0.7
	L49.7,154.2L49.7,154.2z M55.3,145.7l1.2,0.8c1.2,0.8,2.8,0.5,3.6-0.7c0.1-0.1,0.1-0.2,0.2-0.3c1.2-1.8,1.1-3.1-0.4-4.1l-1.3-0.8
	L55.3,145.7L55.3,145.7z"/>
<path class="st1" d="M63.2,164l-3.6-1.2l11.1-20.3l4.6,1.5L72.2,167l-3.6-1.2l0.9-5l-4-1.4L63.2,164L63.2,164z M67.1,156.4l3,1
	l1.6-9.8h-0.1L67.1,156.4L67.1,156.4z"/>
<polygon class="st1" points="97.6,168.6 93.4,146.2 103.6,144.2 104.3,147.6 97.8,148.8 99,154.6 103.9,153.6 104.6,157 99.6,157.9 
	100.9,164.5 107.7,163.2 108.4,166.5 97.6,168.6 "/>
<polygon class="st1" points="115.7,164.5 106.9,143.4 110.5,141.9 118,159.8 123.7,157.4 125,160.6 115.7,164.5 "/>
<path class="st1" d="M124.6,141c-1.3-1.5-2.4-1.4-3.1-0.9c-1.1,0.7-1.1,1.8-0.4,3c2.2,3.2,9.8,0.2,13.3,5.3c2.1,3.1,1.2,6.2-1.8,8.3
	s-6.3,0.9-8.4-1.9l2.8-2.6c1.4,1.8,2.8,2.2,3.9,1.5c1-0.5,1.4-1.7,0.9-2.7c-0.1-0.1-0.1-0.2-0.2-0.3c-2.6-3.7-9.8-0.2-13.5-5.6
	c-2-3-1.4-5.9,1.8-8.1c2.6-1.8,5.5-1,7.6,1.5L124.6,141L124.6,141z"/>
<path class="st1" d="M84.3,156.9l6.1,0.6l-0.6,6c-0.3,3.7-2.6,5.6-6.5,5.3s-5.6-2.7-5.3-6.4l1.1-11.7c0.3-3.2,2.4-5.6,6.2-5.3
	s5.6,3.4,5.3,6.8l-0.1,1.4l-3.7-0.3c0.3-3.4-0.3-4.3-1.8-4.5c-1-0.1-1.8,0.5-2,2.3L82,162.8c-0.1,1.4,0.6,2.5,1.9,2.6s2.2-0.7,2.4-3
	l0.2-2.2l-2.5-0.2L84.3,156.9L84.3,156.9z"/>
<polygon class="st1" points="42.8,56.4 24.2,41.9 38.9,42.8 38.9,42.7 30.1,35.8 32.2,33 50.8,47.5 35.2,45.9 35.1,46 44.9,53.7 
	42.8,56.4 "/>
<polygon class="st1" points="92.9,32.7 96.5,9.5 102.9,22.7 103,22.7 104.7,11.7 108.1,12.2 104.5,35.3 98.3,21 98.3,21 96.4,33.2 
	92.9,32.7 "/>
<polygon class="st1" points="33.9,75.4 12.5,67.6 16.1,57.8 19.3,58.9 17,65.1 22.5,67.1 24.2,62.4 27.5,63.5 25.7,68.3 32,70.6 
	34.4,64 37.6,65.2 33.9,75.4 "/>
<polygon class="st1" points="38.8,62.8 19,51.5 21,48 40.8,59.4 38.8,62.8 "/>
<path class="st1" d="M47.6,27.9c-1.3-1.4-2.5-1.3-3.2-0.7c-0.9,0.6-1.1,1.8-0.4,2.7c0.1,0.1,0.2,0.2,0.3,0.3
	c2.4,3.1,9.8-0.4,13.6,4.5c2.3,3,1.6,6.2-1.3,8.4s-6.3,1.2-8.5-1.4l2.6-2.7c1.5,1.7,3,2.1,3.9,1.3c1-0.5,1.3-1.8,0.8-2.7
	c-0.1-0.1-0.1-0.2-0.2-0.3c-2.8-3.6-9.8,0.4-13.8-4.7c-2.2-2.9-1.7-5.8,1.3-8.2c2.5-1.9,5.4-1.3,7.7,1L47.6,27.9L47.6,27.9z"/>
<polygon class="st1" points="56.7,20.6 53.2,22.1 51.9,19 62.4,14.5 63.8,17.6 60.3,19.1 67.8,36.9 64.3,38.5 56.7,20.6 "/>
<polygon class="st1" points="71.9,35.3 67.6,13 77.9,11 78.5,14.3 72.1,15.6 73.2,21.3 78.1,20.3 78.8,23.7 73.8,24.7 75.1,31.2 
	82,29.9 82.6,33.2 71.9,35.3 "/>
<polygon class="st1" points="85.6,32.6 85.6,9.9 89.5,9.9 89.5,32.6 85.6,32.6 "/>
<path class="st1" d="M126.4,17.8l5,3c3.6,2.2,4.1,5,2,8.3c-0.9,1.8-2.8,2.8-4.8,2.7c1.2,1.8,1.4,3.7-0.1,6.2c-2,3.2-4.9,4.8-8.7,2.4
	l-5.3-3.2L126.4,17.8z M119.5,36.5l1.4,0.9c1.8,1.1,3,0.4,4.2-1.5s1.1-3.4-0.9-4.7l-1.1-0.7L119.5,36.5z M124.8,27.8l1.2,0.7
	c1.3,0.8,2.8,0.5,3.8-1.1c1.1-1.8,1-3.2-0.5-4.1l-1.3-0.8L124.8,27.8L124.8,27.8z"/>
<path class="st1" d="M128.9,47.3l-2.8-2.7l15.8-16.4l4,3.8c3.1,3.1,3.4,5.9,0.1,9.4c-2.6,2.6-4.6,2.7-6,2.2l-4.8,9.7l-2.9-2.8
	l4.6-8.7c-0.5-0.4-1.1-0.9-1.5-1.3L128.9,47.3L128.9,47.3z M137.7,38.3l1,1c1.5,1.5,2.7,1.5,4.5-0.5s1.9-3.1,0.3-4.5l-1-1
	L137.7,38.3L137.7,38.3z"/>
<path class="st1" d="M149.6,45.2c2.7-1.8,5.9-1.7,8.2,1.7s1.2,6.4-1.5,8.2l-9.7,6.6c-2.7,1.8-5.9,1.7-8.2-1.7s-1.2-6.4,1.5-8.2
	L149.6,45.2z M142.2,55c-1.4,1-1.8,1.8-1,3.1s1.9,1.3,3.3,0.3l9.6-6.5c1.4-0.9,1.8-1.8,1-3.1s-1.9-1.3-3.3-0.3L142.2,55L142.2,55z"
	/>
<path class="st1" d="M161.5,68.1c1.8-0.7,2.1-1.9,1.8-2.7c-0.3-1-1.3-1.6-2.3-1.3c-0.1,0-0.2,0.1-0.4,0.1c-3.7,1.1-3.2,9.3-9.1,11.1
	c-3.6,1.1-6.3-0.7-7.4-4.2s1.1-6.3,4.3-7.5l1.6,3.4c-2.1,0.8-3,2-2.6,3.3c0.2,1.1,1.2,1.8,2.3,1.7c0.1,0,0.3-0.1,0.4-0.1
	c4.3-1.3,3.1-9.3,9.4-11.2c3.4-1.1,6.1,0.4,7.2,4.1c1,3.1-0.7,5.5-3.7,6.8L161.5,68.1z"/>
<path class="st2" d="M89.5,138.7c26.9,0,48.8-21.8,48.8-48.8s-21.8-48.8-48.7-48.8S40.8,63,40.8,89.9c0,0,0,0,0,0
	C40.7,116.9,62.6,138.7,89.5,138.7C89.5,138.7,89.5,138.7,89.5,138.7z"/>
<path class="st1" d="M89.5,136.9L89.5,136.9c26.3,0,47.5-21.3,47.5-47.6l0,0c0-26.3-21.3-47.5-47.5-47.5l0,0
	C63.2,41.8,42,63,42,89.3c0,0,0,0,0,0l0,0C41.9,115.6,63.2,136.9,89.5,136.9C89.5,136.9,89.5,136.9,89.5,136.9L89.5,136.9
	L89.5,136.9z M89.5,139.3L89.5,139.3c-27.6,0-50-22.4-50-50l0,0l0,0c0-27.6,22.3-50,49.9-50c0,0,0.1,0,0.1,0l0,0
	c27.6,0,50,22.4,50,50l0,0C139.5,116.9,117.1,139.3,89.5,139.3L89.5,139.3z"/>
<path class="st1" d="M133.6,66.9c-2.1-1.5-4.6-2.3-7.2-2.4c-0.9-0.4-1.3-0.4-3.5-0.8c-3.1-1.7-6.6-2.7-10.1-2.8
	c-3.8-0.1-7.4,1.2-10.3,3.7c0,0-0.1-1-2.5-1c-3.9,0-4.2,4.1-4.2,4.1c-1.8,0.1-3.2,1.6-3.2,3.4c0,0,0,0,0,0c0,3.3,1.4,3.9,1.4,3.9
	s-3.6,2.1-3.7,5.2c-0.1,5.2,4.6,6.7,6.9,7.1l-7.9,5.1c-1.2-1-2.5-1.8-3.9-2.5v-2.6c0,0,3.2-2.5,3.1-5.6c-0.1-3.8-3.9-5.1-3.9-5.1
	l-0.1-1.7c0,0,5.7-1.7,4.9-4.9c-0.5-2.2-3.6-1.8-3.6-1.8s4.2-14-6.8-16.9c-9.9-2.6-14.4,7.5-16.4,12.6c0,0-1-0.8-1.7-1.5
	c-2.9-2.9-6.9-0.3-5.1,2.9c-3.2,1.3-6.3,2.9-9.3,4.8c-11.8,10-16,18.2-17.8,25.5c-0.9,3.8,0.1,13.4,7.7,17.1
	c4.6,2.2,7.8,2.5,10.1,3.2l1.8,1.1c8.3,10,12.5,12.9,12.5,12.9c10.1,6.3,15.9,8.6,26.8,8.9c1.8,0.3,5.8,0.9,6.5-0.2
	c0.2-0.4,0.2-0.8,0.3-1.2c17.4-0.7,33.1-16.9,39.3-25.6c0,0,14.4-3.1,18-14.5C154.7,87.6,141.2,75.7,133.6,66.9L133.6,66.9z
	 M83.5,89.5c-1.1,15-4.7,16.5-8.2,19.1s-2.3,7.1-6.5,7.1c-5.9-0.1-8.7-5-9.6-6.6c-1.9-3.4-6.7-13.7-5.1-24.7
	c0.2-1.6-7.3-12.2-7.3-12.2c3.1-2.1,6.4-4,9.8-5.6c3.2,3.3,12.3,9.1,25.4,8.7l0.1,2.8c0,0,4-0.3,4,3.8c0,3.1-2.4,4.6-3,4.6
	C82.4,86.5,83.6,87.6,83.5,89.5L83.5,89.5z"/>
<path class="st1" d="M60.1,85.3c1.6-0.1,1.8-0.6,4.5-0.8s4.2,2.2,4.2,2.2c0.9-0.6,1.8-1,2.9-1.2c2.7-0.2,3.6,2.3,6.2,2.1
	c0.7-0.1,1.2-0.9,1.9-1s1-0.7,1.2,2.1s-1.5,6.1-6.2,6.5s-6.4-5.3-6.4-5.3s-1.3,2.8-5.8,3.2c-3.6,0.3-6.7-3.3-7-6.9
	c-0.1-1.1,0.4-2,1.1-2C58.3,84.1,57,85.6,60.1,85.3L60.1,85.3z"/>
<path class="st2" d="M75.5,70.2c-6.7,0-11.8-4.9-11.8-4.9s1-2.2,7.3-2.2S82.3,69,82.3,69S82.2,70.2,75.5,70.2z"/>
<path class="st1" d="M73.2,78.1c0-0.6,0.2-1.1,0.7-1.5c0.9-0.9,2.3-0.9,3.1,0c0,0,0,0,0,0c0.4,0.4,0.7,1,0.7,1.5
	c0,1.2-1,2.2-2.2,2.2h0c-0.6,0-1.2-0.2-1.6-0.7C73.4,79.3,73.2,78.7,73.2,78.1L73.2,78.1z"/>
<path class="st1" d="M64.7,75.9c0-1.2,0.9-2.2,2.1-2.2c0,0,0.1,0,0.1,0c0.6,0,1.1,0.2,1.5,0.6c0.9,0.8,1,2.2,0.2,3.1
	c-0.8,0.9-2.2,1-3.1,0.2c-0.1-0.1-0.1-0.1-0.2-0.2C64.9,77,64.7,76.5,64.7,75.9z"/>
<path class="st1" d="M63.4,82.5c5,0,9.2-4,9.2-9.1c0,0,0,0,0-0.1c0-5.1-4.1-9.2-9.2-9.2c-5.1,0-9.2,4.1-9.2,9.2c0,2.4,1,4.8,2.7,6.5
	C58.7,81.6,61,82.5,63.4,82.5z"/>
<path class="st0" d="M56.6,73.4c0-3.8,3.1-6.9,6.9-6.9s6.9,3.1,6.9,6.9s-3.1,6.9-6.9,6.9C59.6,80.2,56.6,77.2,56.6,73.4z"/>
<path class="st1" d="M63.4,77.9c1.2,0,2.4-0.5,3.2-1.3c0.8-0.9,1.3-2,1.3-3.2c0-2.5-2-4.5-4.5-4.5s-4.5,2-4.5,4.5c0,0,0,0,0,0
	c0,1.2,0.5,2.4,1.3,3.2C61.1,77.5,62.2,77.9,63.4,77.9z"/>
<path class="st2" d="M61.2,73.4c0-0.6,0.2-1.2,0.6-1.6c0.9-0.9,2.3-0.9,3.1,0s0.9,2.3,0,3.1s-2.3,0.9-3.1,0c0,0,0,0,0,0
	C61.4,74.5,61.2,74,61.2,73.4z"/>
<path class="st2" d="M106.7,78.1c1.2,0,2.2-1,2.2-2.2c0-0.6-0.2-1.2-0.7-1.6c-0.4-0.4-1-0.7-1.6-0.7c-0.6,0-1.1,0.2-1.5,0.7
	c-0.9,0.9-0.9,2.3,0,3.1c0,0,0,0,0,0C105.5,77.9,106.1,78.1,106.7,78.1L106.7,78.1z"/>
<path class="st2" d="M113.1,94.9c8,0.1,11.8-8.1,11.9-6.6c0.4,15.5-3.2,31.7-13.2,31.9c-7.3,0.1-11.6-11.8-11.5-31.7
	C103.4,92.4,108.1,94.8,113.1,94.9z"/>
<path class="st2" d="M118.6,78.3c1.3,0,2.3-1.1,2.3-2.4c0-1.3-1.1-2.3-2.4-2.3c-1.3,0-2.3,1.1-2.3,2.4
	C116.3,77.3,117.3,78.4,118.6,78.3C118.6,78.4,118.6,78.4,118.6,78.3z"/>
<path class="st2" d="M127.6,68.9c-1-5.3-4.7-2.3-4.7-2.3s-5.1-3.4-10.5-3.4c-4.9,0-9.9,3.4-9.9,3.4s-0.1-0.8-2.3-0.8s-2.5,3-2.5,3
	s-3,1-3,2.6c0,1,0.3,1.9,0.8,2.8c0,0,3-0.1,4-0.1c1,0.1,1.9,0.3,2.9,0.7c0.6-2.4,3-3.9,5.4-3.4c0.8,0.2,1.6,0.6,2.2,1.2
	c0.2,0.2,0.3,0.4,0.5,0.6c0.7-0.3,1.4-0.4,2.2-0.5c0.8,0.1,1.7,0.2,2.5,0.5l0,0c0.8-1.1,2.2-1.8,3.6-1.8c2,0,3.8,1.4,4.3,3.3h0.1
	c2.3-0.4,4.5-0.6,6.8-0.5C132.4,69.8,127.7,68.8,127.6,68.9L127.6,68.9z"/>
<path class="st2" d="M123.1,76.7L123.1,76.7c-0.4,2.2-2.3,3.8-4.5,3.8c-2.5,0-4.5-2-4.6-4.5c0-0.4,0.1-0.8,0.2-1.2
	c-0.5-0.1-0.9-0.2-1.4-0.2c0,0-1,0.1-1.8,0.2c0.1,0.3,0.1,0.7,0.1,1.1c0,1.2-0.5,2.4-1.4,3.2c-1.8,1.7-4.6,1.7-6.4,0
	c-0.6-0.6-1.1-1.5-1.3-2.4c-2-0.7-4.1-0.9-6.1-0.4c-1.6,0.2-3.6,2.6-3.6,3.7c0.2,2.5,2,4.7,4.5,5.2c2.7,0.7,2.4,0.2,3,0.2
	c1.2,0.2,2.3,0.9,3,1.9c2.3,3.2,6,5.1,10,5.1c6.2,0,10.1-5.7,10.1-5.7l1.6-2.3c1.3,0.6,2.6,1,4,1.1c3.4,0,4.4-3.7,4.4-5.2
	C133.1,73.8,123.2,76.8,123.1,76.7L123.1,76.7z"/>
<path class="st1" d="M113.1,88.4c0.8,0,1.4-0.7,1.4-1.4c0-0.8-0.6-1.4-1.4-1.4s-1.4,0.6-1.4,1.4C111.7,87.7,112.3,88.3,113.1,88.4z"
	/>
<polygon class="st1" points="136.6,78.5 135.7,74.7 125.1,85.4 129.8,90.1 136.6,78.5 "/>
<path class="st2" d="M121.2,65.5c1.4,0.2,2.8,0.6,4.1,1.2c1-0.8,1.9-0.7,3.9-0.3c2.9,0.6,6.9,5.7,7.2,8c0.1,0.8-5.9,7.3-8.1,9.8
	c-1.4,1.5-7,0.6-7-2.3C121.2,79.7,121.2,65.5,121.2,65.5L121.2,65.5z"/>
<path class="st1" d="M121.1,79.4c0,0.2,0,0.4,0,0.6c0.1,1.5,0.9,2.9,2.2,3.8c1.5,1,3.8,1.6,7.1,1.6c0.9,0,1.9,0,2.9-0.1l0.2,1.8
	c-1.1,0.1-2.2,0.2-3.1,0.2c-3.7,0-6.3-0.7-8.1-1.9c-1.8-1.2-2.9-3.1-3-5.2c0-0.3,0-0.6,0-0.8L121.1,79.4z"/>
<path class="st1" d="M107.3,96.9c0,0,0.1-1.2,5.1-1.3c4.1-0.1,4.4,0.6,4.8,1.2c0.6,0.9-0.1,2.9-2.8,5.7c-0.5,0.5,3.6,8.1,2.5,11
	c-1.2,3.1-2.6,5.4-4.7,5.7c-0.4,0.1-4.3-2.8-4.2-6.2c0-0.7,1.4-7.9,2.6-10.2C111,102.2,107.4,100.7,107.3,96.9z"/>
<path class="st1" d="M127.8,65.7c-1.7-1.7-4-2.7-6.5-2.7c-5.1,0-9.2,4.1-9.2,9.2c0,2.4,1,4.8,2.7,6.5c0.3,0.3,0.5,0.5,0.8,0.7l0,0
	c-0.1,0.7-0.4,1.3-0.9,1.8c-0.2,0.2-0.5,0.4-0.8,0.6c-0.4,0.1-0.8,0.2-1.1,0.2c-0.7,0-1.4-0.2-1.9-0.7l0,0c-0.3-0.4-0.9-0.4-1.3-0.1
	c-0.3,0.3-0.4,0.9-0.1,1.3c0.7,0.8,1.7,1.2,2.8,1.3c0.1,0.1,0.2,0.1,0.4,0.1c1.2,0,2.4-0.5,3.4-1.3c0.1-0.1,0.1-0.2,0.2-0.4
	c0.5-0.5,0.8-1.1,1.1-1.7c1.2,0.6,2.6,1,4,1c5.1,0,9.2-4.1,9.2-9.2C130.5,69.8,129.5,67.5,127.8,65.7L127.8,65.7z"/>
<path class="st0" d="M114.5,72.2c0-3.8,3-6.8,6.8-6.9c0,0,0,0,0,0c3.8,0,6.8,3.1,6.8,6.8c0,0,0,0,0,0c0.1,3.8-2.8,7-6.6,7.1
	c-3.8,0.1-7-2.8-7.1-6.6C114.5,72.6,114.5,72.4,114.5,72.2z"/>
<path class="st1" d="M121.4,76.7c2.5,0,4.5-2.1,4.4-4.5c0-2.5-2.1-4.5-4.5-4.4s-4.5,2.1-4.4,4.5c0,1.2,0.5,2.3,1.3,3.1
	C119,76.3,120.2,76.8,121.4,76.7z"/>
<path class="st2" d="M119.1,72.2c0-1.2,1-2.2,2.2-2.2c0.6,0,1.1,0.2,1.5,0.7c0.9,0.9,0.9,2.3,0,3.1c-0.9,0.9-2.3,0.9-3.1,0
	C119.4,73.4,119.1,72.8,119.1,72.2L119.1,72.2z"/>
<path class="st1" d="M59.6,80.3l-0.1,0.2c-0.8,1.9-2.6,3.2-4.6,3.5c-1.9,0.4-3.8,0.3-5.7-0.3l0,0l-0.3-0.1l0.7-1.7l0.2,0.1l0,0
	c1.5,0.5,3.1,0.6,4.7,0.2c1.4-0.2,2.7-1.1,3.3-2.4v-0.1L59.6,80.3L59.6,80.3z"/>
<path class="st1" d="M165.5,71.5c1.5-0.6,3.3,0.1,3.9,1.6s-0.1,3.3-1.6,3.9c-1.5,0.6-3.2-0.1-3.9-1.6
	C163.2,74,163.9,72.2,165.5,71.5C165.4,71.5,165.5,71.5,165.5,71.5z M164.4,75.3c0.5,1.3,1.9,1.9,3.2,1.4s1.9-1.9,1.4-3.2
	c-0.5-1.3-1.9-1.9-3.2-1.4c0,0,0,0,0,0c-1.3,0.4-1.9,1.8-1.5,3.1C164.3,75.2,164.3,75.2,164.4,75.3z M164.8,74.4l-0.2-0.5l3.2-1.3
	l0.5,1.2c0.3,0.8,0.2,1.3-0.5,1.5c-0.5,0.2-1,0-1.2-0.4c0,0,0,0,0,0l-1.1,1.5l-0.2-0.6l1.1-1.4l-0.2-0.6L164.8,74.4L164.8,74.4z
	 M166.8,74.3c0.2,0.4,0.4,0.8,0.9,0.6s0.3-0.6,0.2-0.9l-0.2-0.7l-1,0.4L166.8,74.3L166.8,74.3z"/>
<path class="st1" d="M136.9,117.5h-0.6v-2.8h1.1c0.7,0,1.1,0.2,1.1,0.8c0,0.4-0.2,0.7-0.6,0.7c0,0,0,0-0.1,0l0.6,1.2h-0.6l-0.6-1.2
	h-0.4L136.9,117.5L136.9,117.5z M136.9,115.9h0.5c0.4,0,0.5-0.1,0.5-0.4s-0.2-0.3-0.6-0.3h-0.5V115.9z M134.8,116.1
	c0-1.4,1.1-2.6,2.5-2.6c1.4,0,2.6,1.1,2.6,2.5c0,1.4-1.1,2.6-2.5,2.6c0,0,0,0,0,0c-1.4,0-2.5-1-2.6-2.4
	C134.8,116.2,134.8,116.1,134.8,116.1z M137.4,114.2c-1,0-1.9,0.8-1.9,1.9c0,0,0,0,0,0.1c-0.1,1,0.7,1.9,1.8,2c0,0,0.1,0,0.1,0
	c1.1-0.2,1.8-1.2,1.6-2.3C138.8,115,138.2,114.3,137.4,114.2z"/>
</svg>
