<?xml version="1.0" encoding="utf-8"?>
<!-- Generator: Adobe Illustrator 21.1.0, SVG Export Plug-In . SVG Version: 6.00 Build 0)  -->
<svg version="1.1" id="Layer_1" xmlns="http://www.w3.org/2000/svg" xmlns:xlink="http://www.w3.org/1999/xlink" x="0px" y="0px"
	 viewBox="0 0 201 133.4" style="enable-background:new 0 0 201 133.4;" xml:space="preserve">
<title>Casual dining</title>
<path d="M200.5,116.4c-0.2,0.2-0.1,0.6-0.2,0.8c-0.2,1.2-1.2,2.2-2.4,2.4c-1,0.2-2,0.3-3,0.3c-4.4,0-8.8,0-13.2,0
	c-0.9,0-1.8-0.1-2.6-0.2c-1.4,0-2.5-1.1-2.6-2.5c-0.1-0.5-0.2-1-0.2-1.5c-0.1-4.9,0.1-9.9,0.7-14.8c0.1-0.5,0.2-1,0.3-1.5
	c0.1-0.9,0.8-1.6,1.7-1.6c1.1-0.2,2.3-0.2,3.4-0.2c4.5,0,8.9,0,13.4,0c0.5,0,1.1,0,1.6,0.1c1.2,0,2.2,0.9,2.2,2.1c0,0,0,0,0,0.1
	c0.4,3.1,0.7,6.2,0.8,9.4c0,0.5,0,1,0.1,1.4V116.4z M188.3,115.5c2-0.1,4,0.1,6.1-0.1c1-0.1,1.5-0.5,1.5-1.5c0.1-3.7-0.1-7.3-0.5-11
	c-0.1-1-0.4-1.3-1.4-1.3c-0.7,0-1.4,0-2.1,0h-9.1c-1,0-1.3,0.3-1.4,1.3c-0.3,3.6-0.5,7.2-0.4,10.8c0,1.2,0.4,1.6,1.6,1.7
	C184.4,115.6,186.3,115.4,188.3,115.5L188.3,115.5z"/>
<path d="M30.8,78.7c2.2-2.6,4.6-5.1,7.2-7.4c2.3-2,4.5-4.1,6.7-6.2c2.2-2.5,4.2-5.1,5.9-8c0.3-0.4,0.6-0.8,0.8-1.2
	c1.2-1.9,2.8-3.5,4.6-4.7c1.3-0.7,2.3-1.9,2.9-3.3c0.1-0.3,0.1-0.5-0.2-0.6c-2.4-0.9-3.5-3.8-3.2-6.4c0.1-1.2,0.6-2.3,1.3-3.3
	c0.2-0.2,0.2-0.4,0.2-0.7c-0.1-1.3-0.4-2.7-0.7-4c-0.3-1.4-0.3-2.8,0.2-4.1c0.5-2.3,1.4-4.6,2.6-6.7c1.1-1.8,2.6-3.4,4.4-4.7
	c2.8-1.9,5.8-3.6,8.9-4.9c2.7-1.3,5.5-2.5,8.2-3.9c0.9-0.5,1.8-1,2.6-1.6c1.6-1.2,3.6-1.9,5.6-1.9c2.7,0,5.4,0.3,8,0.9
	c0.9,0.2,1.8,0.3,2.6,0.5c2.7,0.4,5.2,1.7,7,3.8c1.7,1.9,3.8,3.5,6,4.7c2.1,1,3.9,2.5,5.4,4.2c0.7,0.8,1.6,1.4,2.6,1.7
	c2.7,1.2,5.6,1.9,8.6,2.2c1.7,0.2,3.3,0.7,4.7,1.5c0.3,0.2,0.6,0.2,0.9,0.1c0.7-0.2,1.3-0.5,1.9-0.8c2.7-1.9,5.8-3.3,9.1-3.9
	c0.5-0.1,1.1-0.3,1.6-0.5c0.3-0.1,0.6-0.2,0.7-0.5s-0.3-0.5-0.6-0.7c-0.5-0.3-1.1-0.6-1.6-1c-2-1.4-3.8-3.1-4.4-5.5
	c-0.7-2.6-0.3-5.3,0.9-7.7c1.1-1.8,2.8-3,4.9-3.3c0.9-0.2,1.1,0.1,0.8,0.9c-0.6,1.2-0.6,2.6,0,3.7c0.7,1.4,0.3,2.9,0.1,4.3
	c-0.1,0.7-0.3,1.5-0.4,2.2c-0.1,1,0.1,1.9,0.8,2.7c0.6,0.8,1.3,1.6,1.9,2.4c0.3,0.4,0.6,0.8,0.8,1.3c0.5,1.2,0.4,2.6-1.2,3
	c-2.4,0.7-4.7,1.6-7.1,2.6c-1.2,0.4-2.4,1-3.4,1.7c-1.6,1.1-1.2,2.5,0,3.3c2.5,1.7,4.4,4,5.4,6.8c0.7,1.6,1.7,3,2.9,4.1
	c0.6,0.5,0.9,1.2,1,2c0.1,1.2,0.2,2.4,0.1,3.7c0,0.7,0.1,1.4,0.5,1.9c0.6,0.9,1.3,1.7,2.1,2.5c2.7,2.8,4.4,6.5,4.8,10.4
	c0.3,2.3,0.2,4.6,0.4,6.9c0.1,2,0.9,3.8,2.3,5.2c1.5,1.7,2.7,3.8,3.5,5.9c0.1,0.4,0,0.5-0.3,0.5c-3.2,0-6.4,0-9.5,0
	c-0.4,0-0.4-0.2-0.4-0.5c0-0.6,0.1-1.2,0.4-1.8c0.8-1.9,0.3-4.1-1.1-5.5c-1-1.1-1.5-2.6-1.5-4.1c0-1,0-2-0.2-3
	c-0.5-2.3-2.2-4.2-4.4-5.1c-2.7-1.1-5.6-1.3-8.4-0.6c-0.7,0.2-1.4,0.3-2.2,0.3c-0.8,0.1-1.6-0.3-2-1c-0.3-0.5-0.6-1-0.9-1.5
	c-0.4-0.7-1.3-1-2-0.7c-0.4,0.1-0.8,0.3-1.2,0.6c-1.9,1.2-3.7,2.5-5.4,3.9c-0.9,0.8-1.9,1.4-2.9,1.9c-0.3,0.1-0.4,0.4-0.4,0.6
	c0,0,0,0.1,0,0.1c0.3,1.1,0.4,2.3,0.8,3.4c0.1,0.5,0,1.1-0.4,1.5c-0.5,0.6-1.1,1.2-1.7,1.7c-1,0.8-2,1.6-3.1,2.3
	c-1.1,0.9-2.2,1.9-3.1,3c-0.2,0.2-0.3,0.5-0.1,0.7c0,0,0,0,0,0c0.7,0.9,1.1,2,1.3,3.1c0.1,0.5,0,0.8-0.7,0.8c-3.6,0-7.2,0-10.7,0
	c-0.6,0-0.8,0.1-0.7,0.8c0.2,1.3,0.2,1.3-1.1,1.3c-3.2,0-6.4,0-9.5,0c-0.6,0-0.7-0.2-0.6-0.7c0.2-1.3,0.5-2.6,1.1-3.8
	c0.4-0.8,1.1-1.3,1.6-2c0.3-0.5,0.5-1,0.6-1.6c0.4-3,0.5-6.1,1.3-9c0.2-0.5,0.3-1.1,0.5-1.6c0.1-0.3,0-0.4-0.3-0.5
	c-1.1-0.2-2.3-0.3-3.4-0.6c-0.4-0.1-0.5,0.1-0.6,0.5c-0.2,2.7-0.5,5.4-0.9,8c-0.1,1-0.4,2-0.8,2.8c-0.6,1.1-1.6,1.8-2.8,2
	c-1.8,0.4-3.6,0.4-5.4,0.1c-2.2-0.4-4-1.8-4.8-3.8c-0.5-1-0.8-2-1.1-3c-0.4-1.5-1.2-2.9-2.5-3.9c-0.6-0.4-1.1-0.9-1.7-1.3
	c-1.2-0.8-2.2-2-2.8-3.3c-0.1-0.3-0.2-0.5-0.6-0.3c-1.7,0.8-3.3,1.5-5,2.2c-1.4,0.5-2.5,1.6-3,3.1c-0.1,0.4-0.4,0.7-0.8,0.8
	c-3.9,1.5-7.5,3.7-10.8,6.3c-1,0.9-1.9,1.7-2.8,2.6c-0.2,0.2-0.4,0.6-0.3,0.9c0.1,1.2-0.2,2.5-0.7,3.6c-0.1,0.2-0.3,0.4-0.5,0.3H31
	C31,78.8,30.9,78.8,30.8,78.7z M84.9,52.3L83.8,52c-3.3-1.1-6.3-2.8-8.3-5.8c-0.4-0.6-0.9-1.1-1.3-1.6c-1.6-2-3.3-3.9-5.2-5.6
	c-1.9-1.7-4.3-2.7-6.9-2.7c-2.7-0.1-5,1.8-5.3,4.4c-0.6,2.5,0.9,5,3.4,5.6c0,0,0,0,0,0c4.3,1.4,8.5,3.2,12.6,5.4
	c2.6,1.4,5.6,1.8,8.5,1.4C82.5,53,83.7,52.8,84.9,52.3L84.9,52.3z M115.1,55.2l-0.3-0.1c-2.8-0.4-5.5-1.7-7.5-3.7
	c-1.5-1.5-3-3-4.6-4.4c-2.1-2.1-4.6-3.8-7.4-4.8c-0.8-0.3-1.6-0.5-2.4-0.6c-0.7,0-0.9,0.3-0.6,0.9s0.6,1.3,0.9,1.9
	c0.6,1.1,0.8,2.3,0.8,3.5c0,1-0.1,1.9-0.3,2.9c-0.1,0.3,0,0.5,0.4,0.6c2.7,0.6,5.3,1.6,7.7,3c2.9,1.8,6.3,2.5,9.7,2
	C112.7,56.3,114,55.9,115.1,55.2L115.1,55.2z M106.2,62.7c-0.1,0-0.1,0-0.2,0c-0.6-0.1-0.9,0-1,0.7c-0.2,1.7-1.1,3.3-2.5,4.3
	c-2.1,1.5-3.3,4-3.2,6.6c0,0.3,0,0.5,0.2,0.8c0.3,0.4,0.6,0.9,0.9,1.4c0.2,0.3,0.3,0.3,0.5,0.1c0.6-0.4,1.3-0.8,1.9-1
	c1.2-0.4,2.2-1.2,3-2.1c1.8-1.8,3.3-3.8,4.6-6c0.5-0.8,0.6-1.9,0.1-2.8c-0.3-0.6-0.5-1.1-0.7-1.7c-0.1-0.4-0.3-0.5-0.7-0.4
	C108.1,62.6,107.2,62.7,106.2,62.7L106.2,62.7z"/>
<path d="M95,97.6c1.5,0.1,4.3-0.2,7.1,0c1.8,0.1,2.4,0.6,2.7,2.5c0.5,4.1,0.8,8.1,0.9,12.2c0,1.4,0.1,2.7,0,4.1c-0.2,2.1-1,3-3,3.3
	c-0.9,0.1-1.7,0.2-2.6,0.2c-4.4,0-8.7,0-13.1,0c-0.9,0-1.7-0.1-2.6-0.2c-1.5,0-2.7-1.3-2.7-2.8c-0.2-2-0.2-4-0.1-6
	c0-3.5,0.3-6.9,0.7-10.4c0.3-2.3,0.8-2.8,3.2-2.8C88.3,97.6,91,97.6,95,97.6z M93.5,115.5c1.9-0.1,3.9,0.1,5.8-0.1
	c1.4-0.1,1.8-0.5,1.8-1.9c0-3.6-0.1-7.2-0.5-10.7c-0.1-1-0.4-1.3-1.4-1.3s-1.8,0-2.7,0h-8.7c-0.9,0-1.2,0.3-1.3,1.2
	c-0.1,1.4-0.3,2.9-0.3,4.3c-0.1,2.2-0.3,4.4-0.1,6.7c0.1,1.2,0.4,1.6,1.6,1.7C89.7,115.6,91.6,115.4,93.5,115.5L93.5,115.5z"/>
<path d="M23.2,114.5c0,1.7,0,3.3,0,5c0,0.3,0,0.5-0.4,0.5H0.7c-0.1,0-0.1,0-0.2-0.1c1.3-1.8,1-3.8,1-5.8c0-4.2,0-8.3,0-12.5
	c0.1-1.3-0.3-2.5-1-3.6h21.9l-2,4.9c-0.4-0.9-1.1-0.9-1.9-0.9c-3.9,0-7.9,0-11.8,0c-0.5,0-0.7,0.1-0.7,0.7c0,1.1,0,2.2,0,3.3
	c0,0.4,0.1,0.6,0.6,0.6h10c1,0,2-0.3,2.8-0.9v5.8c-1.4-1-3-1-4.5-1c-2.8,0-5.6,0-8.3,0c-0.6,0-0.7,0.2-0.7,0.7c0,1.4,0,2.9,0,4.3
	c0,0.5,0.1,0.6,0.6,0.6c4.6,0,9.2,0,13.9,0c1.2,0.2,2.4-0.5,2.8-1.7L23.2,114.5z"/>
<path d="M108.9,97.8c3.5,0.1,6.9,0.1,10.2,0.1c2.8,0,5.6,0,8.4,0c0.2,0,0.4,0,0.7,0c2,0.2,2.6,0.8,2.7,2.7c0.1,1.4,0.1,2.8,0.1,4.2
	c0,1-0.6,2-1.5,2.4c-0.7,0.3-0.6,0.7-0.4,1.3c1.3,3,2.5,5.9,3.8,8.9c0.5,1,1.1,1.9,2,2.5c-0.1,0.2-0.3,0.1-0.4,0.1h-5.1
	c-0.3,0-0.5,0-0.6-0.4c-0.4-1.6-1.1-3.1-1.9-4.5c-0.6-1.1-1.1-2.2-1.6-3.4c-0.1-0.4-0.3-0.8-0.6-1.1c-0.3-0.4-0.8-0.6-1.3-0.4
	c-2.9,0.8-5.7,1.7-8.4,2.7c-0.5,0.1-0.8,0.6-0.7,1.1c0,0.4,0,0.7,0,1.1c0,1.6-0.1,3.3,1,4.7h-6.5c1.2-1.7,1.1-3.5,1.1-5.3
	c0-4.1,0-8.2,0.1-12.3C110.2,100.7,109.8,99.1,108.9,97.8z M120.1,101.5L120.1,101.5c-1.7,0-3.3,0-5,0c-0.5,0-0.7,0.1-0.7,0.6
	c0,2.8,0,5.6,0,8.4c0,0.5,0.1,0.5,0.6,0.4c1.6-0.6,3.2-1.1,4.8-1.6c1.8-0.6,3.5-1.2,5.2-2c0.7-0.3,1.2-1,1.2-1.8c0-1,0-2-0.1-3
	c-0.1-0.8-0.2-0.9-1-0.9L120.1,101.5z"/>
<path d="M77.2,104.7c-0.3-0.6-0.7-1.3-1-1.9c-0.5-1-1.5-1.5-2.6-1.5c-1.8,0-3.6,0-5.4,0c-0.4,0-0.5,0.1-0.5,0.5c0,4.9,0,9.8,0,14.7
	c-0.1,1.2,0.3,2.4,1,3.3h-6.5c0.9-1.4,1.2-3,1.1-4.6c0-4.4,0-8.8,0-13.1c0-0.6-0.1-0.8-0.7-0.8c-1.7,0-3.3,0-5,0
	c-1.1-0.1-2.1,0.5-2.6,1.4c-0.4,0.7-0.8,1.3-1.1,2c-0.2-0.1-0.1-0.3-0.1-0.5c0-1.9,0-3.9,0-5.8c0-0.5,0.1-0.7,0.7-0.7
	c4.1,0.1,8.1,0.1,12.2,0.1c3.3,0,6.7-0.1,10.1-0.1c0.5,0,0.7,0.1,0.7,0.6c0,2.1,0,4.2,0,6.3L77.2,104.7z"/>
<path d="M149.1,104.7c0-2.1,0-4.3,0-6.5c0-0.5,0.2-0.5,0.6-0.5c4.6,0.1,9.2,0.1,13.9,0.1c2.9,0,5.7-0.1,8.6-0.1c0.3,0,0.6,0,0.6,0.4
	c0,2.2,0,4.4-0.1,6.6c-0.2-0.4-0.5-0.9-0.7-1.3c-0.6-1.5-2.1-2.3-3.6-2.2c-1.5,0-3.1,0-4.6,0c-0.4,0-0.6,0.1-0.6,0.6
	c0,4.8,0,9.6,0,14.4c-0.1,1.3,0.3,2.5,1,3.5h-6.5c1.1-1.5,1.1-3.2,1.1-4.9c0-4.3,0-8.6,0-12.9c0-0.6-0.1-0.7-0.7-0.7
	c-1.7,0-3.3,0-5,0c-1.1-0.1-2.1,0.5-2.7,1.4C149.9,103.3,149.6,104,149.1,104.7z"/>
<path d="M47.4,111.7c0,2.6,0,5.1,0,7.7c0,0.4-0.2,0.5-0.5,0.5H26.2c1.3-1.9,1-3.9,1-5.9c0-3.7,0-7.5,0-11.2c0-1.7,0.1-3.4-1.1-4.9
	h6.5c-0.6,0.8-0.9,1.7-1,2.7c0,0.2,0,0.4,0,0.6c0,4.6-0.1,9.1,0.1,13.7c0,0.5,0.2,0.7,0.7,0.7c3.6,0,7.3,0.1,10.9,0.1
	c0.7,0,1.4-0.3,1.9-0.9C46.2,114,46.9,112.9,47.4,111.7z"/>
<path d="M138.4,119.8c0.8-1.2,1.1-2.6,1-4c0-4.6,0-9.2,0-13.8c0.1-1.4-0.2-2.9-1-4.1h6.5c-1.1,1.4-1,3.1-1,4.8c0,4.6,0,9.2,0,13.7
	c0,1.2,0.3,2.4,1,3.4L138.4,119.8z"/>
<path d="M67.8,129.6c0,0.9,0,1.7,0,2.6c0,0.2,0.1,0.6-0.3,0.6s-0.4-0.3-0.4-0.6c0-1,0-2,0-2.9c0-0.2-0.1-0.6,0.2-0.6
	c0.4-0.2,0.8,0,1,0.3c0.8,0.9,1.6,1.7,2.3,2.5l0.4,0.4l0.2-0.1c0-0.9,0-1.7,0-2.6c0-0.3-0.1-0.6,0.4-0.6s0.3,0.4,0.3,0.6
	c0,1,0,1.9,0,2.9c0,0.2,0.2,0.6-0.2,0.7c-0.4,0.1-0.8,0-1-0.3c-0.8-0.9-1.6-1.8-2.4-2.6c-0.1-0.1-0.2-0.2-0.2-0.3L67.8,129.6z"/>
<path d="M41.8,131.8c0-0.8,0-1.7,0-2.5c0-0.3-0.2-0.7,0.3-0.7s0.3,0.4,0.3,0.7c0,0.9,0,1.8,0,2.7c0,0.2,0.2,0.6-0.2,0.7
	c-0.4,0.1-0.8,0-1-0.3c-0.7-0.8-1.4-1.5-2.1-2.3l-0.8-0.8c0,1.1,0,2,0,2.9c0,0.2,0.1,0.4-0.1,0.5s-0.6,0.2-0.6-0.3
	c0-1.2,0-2.3,0-3.5c0-0.1,0-0.3,0.2-0.3c0.3-0.1,0.7,0,0.9,0.3c0.8,0.9,1.7,1.8,2.5,2.7c0.1,0.1,0.2,0.2,0.2,0.3L41.8,131.8z"/>
<path d="M144.2,131.8c0-0.9,0-1.8,0-2.7c0-0.2-0.1-0.5,0.3-0.5s0.4,0.3,0.4,0.5c0,1,0,2,0,3c0,0.2,0.1,0.5-0.2,0.6
	c-0.3,0.1-0.7,0.1-0.9-0.2c-0.8-0.8-1.5-1.7-2.3-2.5c-0.2-0.2-0.3-0.4-0.4-0.6l-0.2,0.1c0,0.9,0,1.8,0,2.6c0,0.3,0.1,0.6-0.4,0.5
	s-0.3-0.3-0.3-0.5c0-1,0-2,0-3c0-0.2-0.2-0.5,0.2-0.6c0.3-0.1,0.6,0,0.9,0.2c0.9,0.9,1.7,1.9,2.6,2.8c0.1,0.1,0.1,0.2,0.2,0.3
	L144.2,131.8z"/>
<path d="M131.4,132.7c-0.6-0.1-1.4,0.3-1.9-0.1s-0.1-1.3-0.1-1.9s-0.3-1.5,0.1-1.9s1.3-0.1,2-0.1c0.5,0,1,0,1.5,0
	c0.2,0,0.5-0.1,0.5,0.3s-0.3,0.3-0.6,0.3c-0.8,0-1.6,0-2.5,0c-0.5,0-0.5,0.3-0.5,0.6s0.1,0.5,0.5,0.5s1,0,1.5,0c0.2,0,0.4,0,0.4,0.3
	s-0.2,0.3-0.4,0.3c-0.5,0-1,0-1.5,0s-0.5,0.3-0.5,0.6s0,0.6,0.5,0.6c0.9,0,1.8,0,2.7,0c0.2,0,0.5-0.1,0.5,0.3s-0.3,0.3-0.5,0.3
	L131.4,132.7z"/>
<path d="M18,132.8c-0.4,0-0.8,0-1.1-0.1c-1.1-0.2-1.9-1.4-1.6-2.5c0.2-0.8,0.8-1.5,1.6-1.6c1-0.4,2.1-0.2,3,0.5
	c0.1,0.1,0.4,0.3,0.3,0.4c-0.2,0.2-0.5,0.2-0.7,0c0,0,0,0,0,0c-0.6-0.5-1.5-0.6-2.3-0.4c-0.7,0.1-1.2,0.8-1.2,1.6
	c0,0.7,0.6,1.3,1.4,1.4c0.7,0.2,1.4,0,2-0.4c0.3-0.2,0.5-0.2,0.7,0s-0.1,0.4-0.3,0.5C19.3,132.7,18.7,132.9,18,132.8z"/>
<path d="M172.1,132.8c-1.7,0-2.8-0.9-2.7-2.2c0-0.7,0.4-1.4,1.1-1.8c1.1-0.6,2.5-0.5,3.5,0.3c0.1,0.1,0.4,0.2,0.3,0.4
	c-0.1,0.2-0.4,0.2-0.6,0.1c0,0,0,0,0,0c-0.5-0.4-1.2-0.6-1.9-0.5c-0.6,0-1.1,0.3-1.4,0.8c-0.4,0.7-0.2,1.5,0.5,1.9
	c0,0,0.1,0,0.1,0.1c0.8,0.4,1.7,0.4,2.5-0.1c0.1-0.1,0.2-0.2,0.3-0.2c0.2-0.1,0.4,0,0.5,0.2c0.1,0.2-0.1,0.3-0.2,0.4
	C173.5,132.6,172.8,132.9,172.1,132.8z"/>
<path d="M31.5,132.7c-0.5,0.2-0.8,0-1-0.4c-0.1-0.3-0.4-0.5-0.7-0.4c-0.5,0-0.9,0-1.4,0c-0.6,0-1,0-1.2,0.7
	c-0.1,0.2-0.4,0.3-0.6,0.2c0,0,0,0,0,0c-0.3-0.1,0-0.3,0.1-0.5c0.6-1.1,1.1-2.2,1.7-3.2c0.1-0.3,0.5-0.5,0.9-0.4
	c0.1,0.1,0.2,0.1,0.3,0.3C30.2,130.1,30.8,131.4,31.5,132.7z M28.9,129.2c-0.2,0.3-0.3,0.4-0.4,0.6c-0.2,0.4-0.8,0.9-0.5,1.3
	s0.9,0.1,1.4,0.1h0.1c0.3,0,0.4-0.1,0.2-0.4C29.5,130.3,29.3,129.8,28.9,129.2L28.9,129.2z"/>
<path d="M96.2,132.6c0.7-1.3,1.3-2.6,2-3.8c0.2-0.3,0.7-0.3,1-0.1c0.1,0.1,0.1,0.1,0.2,0.2c0.6,1.1,1.2,2.2,1.8,3.4
	c0.1,0.1,0.3,0.3,0,0.4c-0.2,0.1-0.5,0-0.6-0.1c-0.2-0.3-0.2-0.7-0.6-0.7c-0.8,0-1.6,0-2.5,0c-0.2,0-0.3,0.3-0.4,0.4
	C96.9,132.7,96.7,132.8,96.2,132.6z M98.7,129.2c-0.1,0.2-0.3,0.4-0.4,0.6c-0.2,0.4-0.8,0.9-0.5,1.3s1,0.1,1.5,0.1
	c0.3,0,0.4-0.1,0.2-0.4L98.7,129.2z"/>
<path d="M83.3,132.7c-0.4,0.2-0.8,0.1-0.9-0.3s-0.5-0.6-0.9-0.5c-0.4,0-0.9,0-1.3,0c-0.5,0-0.9,0.1-1.1,0.6
	c-0.1,0.4-0.5,0.3-0.8,0.2c0.7-1.3,1.4-2.6,2.1-3.9c0.3-0.3,0.7-0.3,1,0c0,0,0.1,0.1,0.1,0.1C81.9,130.1,82.6,131.3,83.3,132.7z
	 M80.7,129.3c-0.1,0.2-0.3,0.4-0.4,0.6c-0.2,0.4-0.8,1-0.6,1.3s1,0.1,1.5,0.1c0.3,0,0.4-0.1,0.2-0.4C81.3,130.3,81,129.8,80.7,129.3
	L80.7,129.3z"/>
<path d="M183,128.6c0.3-0.1,0.5,0.1,0.6,0.4c0.6,1.1,1.2,2.2,1.7,3.3c0.1,0.1,0.3,0.3,0.1,0.4s-0.5,0.1-0.6-0.1
	c-0.3-1-1.1-0.8-1.9-0.8c-0.3,0-0.5,0-0.8,0c-0.4-0.1-0.7,0.1-0.8,0.5c0,0.1-0.1,0.2-0.2,0.3c-0.2,0.1-0.4,0.2-0.6,0.1
	c-0.3-0.1,0-0.3,0-0.4c0.6-1.1,1.2-2.2,1.8-3.4C182.5,128.6,182.8,128.5,183,128.6z M183,129.2c-0.4,0.6-0.6,1.2-0.9,1.7
	c-0.1,0.2,0,0.3,0.2,0.3h1.4c0.3,0,0.3-0.1,0.2-0.3L183,129.2z"/>
<path d="M112.2,130.3c0,0.2,0,0.5,0,0.7c0,1.1-0.3,1.5-1.3,1.7c-0.7,0.2-1.3,0.2-2,0c-0.8-0.1-1.5-0.8-1.4-1.6c0,0,0-0.1,0-0.1
	c0-0.7,0-1.3,0-2c0-0.2,0-0.4,0.3-0.4s0.4,0.2,0.4,0.4c0,0.7,0,1.4,0,2.1c0,0.5,0.3,1,0.9,1.1c0.4,0.1,0.7,0.1,1.1,0.1
	c1.1-0.1,1.3-0.4,1.3-1.5c0-0.6,0-1.2,0-1.8c0-0.2,0.1-0.4,0.3-0.4s0.3,0.1,0.3,0.4C112.2,129.4,112.2,129.8,112.2,130.3
	L112.2,130.3z"/>
<path d="M53.4,128.8c0,0.2,0,0.4-0.3,0.4h-0.3c-1.4,0-1.4,0-1.4,1.4c0,0.6,0,1.1,0,1.7c0,0.2,0,0.4-0.3,0.4s-0.3-0.2-0.3-0.4
	c0-0.8,0-1.7,0-2.5c0-0.4-0.1-0.6-0.6-0.6s-0.7,0-1.1,0s-0.4-0.1-0.4-0.3s0.1-0.3,0.3-0.3h4C53.2,128.6,53.4,128.6,53.4,128.8z"/>
<path d="M120.8,128.6h1.9c0.3,0,0.4,0,0.4,0.4s-0.2,0.3-0.4,0.3c-0.5,0-1.2-0.2-1.5,0.1s-0.1,1.1-0.1,1.6s0,0.8,0,1.3
	c0,0.2,0.1,0.5-0.3,0.5s-0.4-0.3-0.4-0.6c0-0.8,0-1.6,0-2.4c0-0.4-0.1-0.6-0.6-0.6s-0.8,0-1.1,0c-0.2,0-0.3-0.1-0.3-0.3
	s0.1-0.3,0.3-0.3L120.8,128.6L120.8,128.6z"/>
<path d="M153.5,128.6h1.9c0.2,0,0.4,0,0.4,0.3s-0.1,0.4-0.4,0.3h-0.3c-1.4,0-1.4,0-1.4,1.4c0,0.6,0,1.1,0,1.7c0,0.2-0.1,0.4-0.3,0.4
	s-0.3-0.1-0.3-0.4c0-0.6,0-1.3,0-1.9c0-1.2,0-1.2-1.2-1.2h-0.5c-0.2,0-0.3,0-0.4-0.3s0.1-0.4,0.3-0.4H153.5z"/>
<path d="M162.1,130.7c0-0.5,0-1.1,0-1.6c0-0.3,0-0.5,0.4-0.5s0.3,0.2,0.3,0.4c0,1.1,0,2.2,0,3.3c0,0.2,0,0.4-0.3,0.5
	s-0.4-0.2-0.4-0.5C162.1,131.7,162.1,131.2,162.1,130.7z"/>
<path d="M60.3,130.7c0,0.6,0,1.1,0,1.7c0,0.3-0.1,0.4-0.3,0.4s-0.3-0.1-0.3-0.4c0-1.1,0-2.3,0-3.4c0-0.2,0-0.4,0.3-0.4
	s0.4,0.1,0.4,0.4C60.3,129.5,60.3,130.1,60.3,130.7z"/>
<path d="M132,127.4c0,0.1-0.1,0.2-0.2,0.3c-0.2,0.2-0.3,0.6-0.6,0.6c-0.1,0-0.1-0.2,0-0.3C131.3,127.6,131.4,127.1,132,127.4z"/>
</svg>
