<?xml version="1.0" encoding="utf-8"?>
<!-- Generator: Adobe Illustrator 21.1.0, SVG Export Plug-In . SVG Version: 6.00 Build 0)  -->
<svg version="1.1" id="Layer_1" xmlns="http://www.w3.org/2000/svg" xmlns:xlink="http://www.w3.org/1999/xlink" x="0px" y="0px"
	 viewBox="0 0 201 33.2" style="enable-background:new 0 0 201 33.2;" xml:space="preserve">
<style type="text/css">
	.st0{fill:#8A1E04;}
</style>
<title>Casual dining</title>
<path class="st0" d="M60.4,9.6h-5.2v3.7H61v2.9h-9V0.7h8.7v2.9h-5.4v3.2h5.2V9.6z"/>
<path class="st0" d="M64,0.7h3.2v12.5h5.6v2.9H64V0.7z"/>
<path class="st0" d="M83.8,9.6h-5.2v3.7h5.8v2.9h-9V0.7H84v2.9h-5.5v3.2h5.2L83.8,9.6z"/>
<path class="st0" d="M87.3,0.9c1.4-0.2,2.9-0.3,4.3-0.3c1.5-0.1,3.1,0.3,4.3,1.2c1,0.9,1.5,2.2,1.5,3.6C97.4,6.7,97,8,96.1,9
	c-1.2,1.1-2.9,1.7-4.6,1.6c-0.3,0-0.7,0-1,0v5.5h-3.1L87.3,0.9z M90.4,7.9C90.8,7.9,91.2,8,91.5,8c1.3,0.2,2.5-0.8,2.7-2.1
	c0-0.1,0-0.3,0-0.4c0.1-1.2-0.8-2.2-2-2.3c-0.1,0-0.3,0-0.4,0c-0.4,0-0.9,0-1.3,0.1V7.9z"/>
<path class="st0" d="M103.4,0.7v5.9h5.2V0.7h3.2v15.4h-3.2V9.6h-5.2v6.4h-3.2V0.7H103.4z"/>
<path class="st0" d="M118.6,12.1l-1,4h-3.3l4.3-15.4h4.2l4.4,15.4h-3.4l-1.1-4H118.6z M122.2,9.5l-0.9-3.3c-0.3-0.9-0.5-2.1-0.7-3
	l0,0c-0.2,0.9-0.4,2.1-0.6,3l-0.8,3.3H122.2z"/>
<path class="st0" d="M129.8,16.1V0.7h3.7l2.9,5.7c0.9,1.7,1.6,3.5,2.3,5.3h0.1c-0.2-2.1-0.3-4.3-0.3-6.4V0.7h2.9v15.4h-3.3l-3-6
	c-0.8-1.7-1.8-3.6-2.4-5.4h-0.1c0.1,2,0.1,4.2,0.1,6.7V16L129.8,16.1z"/>
<path class="st0" d="M147.7,3.6h-3.8V0.7h10.8v2.9h-3.8v12.5h-3.2V3.6z"/>
<path class="st0" d="M162.2,0.9c1.4-0.2,2.7-0.3,4.1-0.3c1.4-0.1,2.9,0.2,4.1,0.9c1.1,0.6,1.7,1.8,1.7,3c0,1.5-0.9,2.8-2.3,3.3l0,0
	c1.7,0.5,2.9,2,2.8,3.8c0,1.3-0.5,2.4-1.5,3.3c-1,0.9-2.7,1.4-5.5,1.4c-1.1,0-2.3-0.1-3.4-0.2V0.9z M165.3,6.8h1
	c1.7,0,2.6-0.8,2.6-1.9s-0.8-1.8-2.3-1.8c-0.5,0-0.9,0-1.4,0.1L165.3,6.8z M165.3,13.6c0.4,0,0.8,0,1.2,0c1.4,0,2.7-0.6,2.7-2.2
	s-1.3-2.2-2.9-2.2h-1.1L165.3,13.6z"/>
<path class="st0" d="M178.7,12.1l-1,4h-3.3l4.3-15.4h4.2l4.4,15.4h-3.4l-1.1-4H178.7z M182.3,9.5l-0.9-3.3c-0.3-0.9-0.5-2.1-0.7-3
	l0,0c-0.2,0.9-0.4,2.1-0.6,3l-0.8,3.3H182.3z"/>
<path class="st0" d="M189.9,0.9c1.4-0.2,2.8-0.3,4.2-0.3c2.1,0,3.5,0.3,4.5,1.2c1.7,1.7,1.7,4.5,0,6.2c-0.3,0.3-0.7,0.6-1.2,0.8v0.1
	c1,0.4,1.5,1.5,1.9,2.9c0.4,1.7,0.9,3.8,1.1,4.3h-3.3c-0.4-1.2-0.8-2.4-1-3.6c-0.4-1.9-1-2.4-2.3-2.5h-1v6.1h-3.1V0.9z M193,7.5h1.3
	c1.6,0,2.5-0.9,2.5-2.2s-0.9-2.1-2.3-2.2c-0.5,0-1,0-1.4,0.1V7.5z"/>
<path class="st0" d="M52.1,22.8c0.7-0.1,1.4-0.2,2.1-0.2c0.9-0.1,1.8,0.2,2.5,0.8c0.5,0.5,0.7,1.2,0.7,1.9c0.1,1.1-0.6,2.1-1.6,2.5
	l0,0c0.7,0.4,1.2,1.2,1.3,2c0.1,0.9,0.4,1.8,0.7,2.7h-1.2c-0.3-0.8-0.4-1.6-0.6-2.4c-0.3-1.4-0.7-1.9-1.7-1.9h-1v4.3h-1.2V22.8z
	 M53.2,27.3h1.1c1,0.1,1.9-0.6,1.9-1.6c0-0.1,0-0.2,0-0.2c0-1.3-0.8-1.8-2-1.8c-0.4,0-0.7,0-1.1,0.1L53.2,27.3z"/>
<path class="st0" d="M72.2,27.9h-3.3v3.6h3.7v1.1h-4.8v-9.9h4.6v1.1h-3.5v3.1h3.3L72.2,27.9z"/>
<path class="st0" d="M82.7,31c0.6,0.4,1.3,0.6,2,0.6c0.9,0.1,1.7-0.5,1.8-1.4c0-0.1,0-0.2,0-0.3c0-0.9-0.5-1.4-1.6-2
	c-1.4-0.6-2.3-1.4-2.3-2.8c0-1.4,1.1-2.6,2.5-2.7c0.1,0,0.2,0,0.2,0c0.7,0,1.3,0.1,1.9,0.5l-0.3,1c-0.5-0.3-1.1-0.5-1.6-0.5
	c-0.8-0.1-1.5,0.5-1.6,1.3c0,0.1,0,0.1,0,0.2c0,0.9,0.5,1.4,1.7,1.9c1.4,0.6,2.2,1.4,2.2,2.9c0.1,1.5-1.1,2.8-2.6,2.9
	c-0.1,0-0.3,0-0.4,0c-0.8,0-1.5-0.2-2.2-0.6L82.7,31z"/>
<path class="st0" d="M99.6,23.7H97v-1.1h6.3v1.1h-2.6v8.8h-1.1L99.6,23.7z"/>
<path class="st0" d="M113.6,29.4l-0.9,3.1h-1.2l2.9-9.9h1.3l2.9,9.9h-1.2l-0.9-3.1H113.6z M116.4,28.4l-0.9-2.8
	c-0.2-0.6-0.3-1.2-0.4-1.8l0,0c-0.1,0.6-0.3,1.2-0.4,1.8l-0.8,2.9L116.4,28.4z"/>
<path class="st0" d="M129.6,22.6v5.8c0,2.2,0.9,3.1,2,3.1s2.1-1,2.1-3.1v-5.8h1.1v5.8c0,3-1.4,4.3-3.3,4.3s-3.1-1.2-3.1-4.2v-5.8
	H129.6z"/>
<path class="st0" d="M145.5,22.8c0.7-0.1,1.4-0.2,2.1-0.2c0.9-0.1,1.8,0.2,2.5,0.8c0.5,0.5,0.7,1.2,0.7,1.9c0.1,1.1-0.6,2.1-1.6,2.5
	l0,0c0.7,0.4,1.2,1.2,1.3,2c0.1,0.9,0.4,1.8,0.7,2.7h-1.1c-0.3-0.8-0.4-1.6-0.6-2.4c-0.3-1.4-0.7-1.9-1.7-1.9h-1v4.3h-1.1V22.8z
	 M146.6,27.3h1.1c1,0.1,1.9-0.6,1.9-1.6c0-0.1,0-0.2,0-0.2c0-1.3-0.8-1.8-2-1.8c-0.4,0-0.7,0-1.1,0.1L146.6,27.3z"/>
<path class="st0" d="M162.7,29.4l-0.9,3.1h-1.1l2.9-9.9h1.3l2.9,9.9h-1.2l-0.9-3.1L162.7,29.4z M165.5,28.4l-0.8-2.8
	c-0.2-0.6-0.3-1.2-0.4-1.8l0,0c-0.1,0.6-0.3,1.2-0.4,1.8l-0.8,2.9H165.5z"/>
<path class="st0" d="M177.9,32.5v-9.9h1.2l2.8,5c0.6,1,1.1,2.1,1.5,3.2l0,0c-0.1-1.3-0.1-2.5-0.1-4.1v-4.2h1v9.9h-1.1l-2.7-5
	c-0.6-1.1-1.1-2.2-1.6-3.3l0,0c0.1,1.2,0.1,2.4,0.1,4.1v4.2L177.9,32.5z"/>
<path class="st0" d="M196.8,23.7h-2.6v-1.1h6.4v1.1h-2.6v8.8h-1.1L196.8,23.7z"/>
<path class="st0" d="M29.1,18.5v14.2h5.2V20.6c0,0-0.1-2-1.8-2.1L29.1,18.5z"/>
<path class="st0" d="M25,32.7l2.7-14.6c0,0-6.8-2.5-6.8-7.6v-10h-6.2c0,0-9.3-0.3-11.6,15.2s-2.6,17-2.6,17h5c0,0,0.1-11,4.3-10.8
	L9.8,32.7h5.3V21.2c0,0,1.7-2.2,7.2-2.5c0,0,0.7-0.4-0.4,2.2c-1.1,2.6-2.2,11.8-2.2,11.8L25,32.7z"/>
<path class="st0" d="M24,0.6H35c0,0,7.5,1.2,7.5,7.4v13c0,0,0.8,3.7,3.4,3.7h2.4v4.8h-3.8c0,0-6.3,0.3-6.4-7.2
	c-0.1-5.9-4.3-7.3-5.7-7.2S24,13.8,24,9.9L24,0.6z"/>
</svg>
