<svg id="Layer_1" data-name="Layer 1" xmlns="http://www.w3.org/2000/svg" viewBox="0 0 250 250"><defs><style>.cls-1{fill:red;}.cls-2{fill:#f9e8a0;}.cls-3{fill:#414042;}</style></defs><title>Ethnic Store</title><circle class="cls-1" cx="92.93" cy="190.05" r="15.45"/><circle class="cls-1" cx="175.66" cy="190.05" r="15.45"/><path class="cls-2" d="M162.93,133.69c5.45,0,11.82-2.73,13.64-8.18L205.66,71a6.82,6.82,0,0,0,0-8.18,7.65,7.65,0,0,0-6.36-3.64H77.48L71.11,43.69H43.84V60H60.2l30,62.73-11.82,20c-.91,2.73-.91,5.45-1.82,7.27a16.3,16.3,0,0,0,16.36,16.36H192V150H96.57a2,2,0,0,1-1.82-1.82v-.91L102,133.69Z"/><path class="cls-3" d="M175.66,171.87A19.2,19.2,0,0,0,156.57,191a19.09,19.09,0,1,0,38.18,0h0A19.2,19.2,0,0,0,175.66,171.87ZM189.29,191a14.55,14.55,0,1,1-14.55-14.55A14.36,14.36,0,0,1,189.29,191Z"/><path class="cls-3" d="M207.47,61.87a9.55,9.55,0,0,0-8.18-4.55h-120L72.93,41.87C72,41,71.11,40.05,70.2,40.05H42.93c-.91,0-1.82.91-1.82,2.73V59.14a2.9,2.9,0,0,0,2.73,2.73H58.38l28.18,60L75.66,141A32.3,32.3,0,0,0,73.84,150a19.2,19.2,0,0,0,19.09,19.09H192a2,2,0,0,0,1.82-1.82V151a2.9,2.9,0,0,0-2.73-2.73H96.57l6.36-11.82h60c6.36,0,12.73-3.64,15.45-9.09l29.09-54.55Q210.2,66,207.47,61.87Zm-3.64,7.27-29.09,54.55c-1.82,4.55-7.27,7.27-11.82,7.27H102a3.17,3.17,0,0,0-1.82.91L92.93,145.5v1.82A3.91,3.91,0,0,0,96.57,151H190.2v11.82H92.93a14.36,14.36,0,0,1-14.55-14.55c0-2.73.91-4.55.91-7.27l11.82-20v-1.82L62,58.23c0-.91-.91-.91-1.82-.91H45.66V45.5H69.29L75.66,61a2,2,0,0,0,1.82,1.82H199.29c1.82,0,3.64.91,3.64,2.73C204.75,65.5,204.75,67.32,203.84,69.14Z"/><path class="cls-3" d="M92.93,171.87A19.2,19.2,0,0,0,73.84,191a18.64,18.64,0,0,0,19.09,19.09A19.2,19.2,0,0,0,112,191h0A18.64,18.64,0,0,0,92.93,171.87ZM107.48,191a14.55,14.55,0,1,1-29.09,0c0-8.18,7.27-14.55,14.55-14.55A14.36,14.36,0,0,1,107.48,191Z"/><path class="cls-3" d="M160.2,79.14h-70a2.73,2.73,0,1,1,0-5.45h70.91a2.9,2.9,0,0,1,2.73,2.73c-.91,1.82-1.82,2.73-3.64,2.73ZM147.47,95.5H90.2c-1.82,0-2.73-.91-2.73-1.82A2.9,2.9,0,0,1,90.2,91h58.18a2.9,2.9,0,0,1,2.73,2.73,4.72,4.72,0,0,1-3.64,1.82Zm-13.64,16.36H90.2a2.73,2.73,0,0,1,0-5.45h44.55a2.9,2.9,0,0,1,2.73,2.73c-.91,1.82-1.82,2.73-3.64,2.73Z"/><path class="cls-3" d="M175.66,171.87A19.2,19.2,0,0,0,156.57,191a19.09,19.09,0,1,0,38.18,0h0A19.2,19.2,0,0,0,175.66,171.87ZM189.29,191a14.55,14.55,0,1,1-14.55-14.55A14.36,14.36,0,0,1,189.29,191Z"/><path class="cls-3" d="M207.47,61.87a9.55,9.55,0,0,0-8.18-4.55h-120L72.93,41.87C72,41,71.11,40.05,70.2,40.05H42.93c-.91,0-1.82.91-1.82,2.73V59.14a2.9,2.9,0,0,0,2.73,2.73H58.38l28.18,60L75.66,141A32.3,32.3,0,0,0,73.84,150a19.2,19.2,0,0,0,19.09,19.09H192a2,2,0,0,0,1.82-1.82V151a2.9,2.9,0,0,0-2.73-2.73H96.57l6.36-11.82h60c6.36,0,12.73-3.64,15.45-9.09l29.09-54.55Q210.2,66,207.47,61.87Zm-3.64,7.27-29.09,54.55c-1.82,4.55-7.27,7.27-11.82,7.27H102a3.17,3.17,0,0,0-1.82.91L92.93,145.5v1.82A3.91,3.91,0,0,0,96.57,151H190.2v11.82H92.93a14.36,14.36,0,0,1-14.55-14.55c0-2.73.91-4.55.91-7.27l11.82-20v-1.82L62,58.23c0-.91-.91-.91-1.82-.91H45.66V45.5H69.29L75.66,61a2,2,0,0,0,1.82,1.82H199.29c1.82,0,3.64.91,3.64,2.73C204.75,65.5,204.75,67.32,203.84,69.14Z"/><path class="cls-3" d="M92.93,171.87A19.2,19.2,0,0,0,73.84,191a18.64,18.64,0,0,0,19.09,19.09A19.2,19.2,0,0,0,112,191h0A18.64,18.64,0,0,0,92.93,171.87ZM107.48,191a14.55,14.55,0,1,1-29.09,0c0-8.18,7.27-14.55,14.55-14.55A14.36,14.36,0,0,1,107.48,191Z"/><path class="cls-3" d="M160.2,79.14h-70a2.73,2.73,0,1,1,0-5.45h70.91a2.9,2.9,0,0,1,2.73,2.73c-.91,1.82-1.82,2.73-3.64,2.73ZM147.47,95.5H90.2c-1.82,0-2.73-.91-2.73-1.82A2.9,2.9,0,0,1,90.2,91h58.18a2.9,2.9,0,0,1,2.73,2.73,4.72,4.72,0,0,1-3.64,1.82Zm-13.64,16.36H90.2a2.73,2.73,0,0,1,0-5.45h44.55a2.9,2.9,0,0,1,2.73,2.73c-.91,1.82-1.82,2.73-3.64,2.73Z"/></svg>