<?xml version="1.0" encoding="utf-8"?>
<!-- Generator: Adobe Illustrator 21.1.0, SVG Export Plug-In . SVG Version: 6.00 Build 0)  -->
<svg version="1.1" id="Layer_1" xmlns="http://www.w3.org/2000/svg" xmlns:xlink="http://www.w3.org/1999/xlink" x="0px" y="0px"
	 viewBox="0 0 241.9 110.7" style="enable-background:new 0 0 241.9 110.7;" xml:space="preserve">
<style type="text/css">
	.st0{fill:#FFFFFF;}
	.st1{fill:#FFC423;}
</style>
<title>Fast Casual</title>
<path class="st0" d="M191.3,38.7c0,0.1,0,0.3,0.1,0.4c0.7,3.2,1.5,6.3,2.1,9.5c1.8,9.6,4,19,6.4,28.5c0.4,1.3,0.4,2.7,0,4
	c-0.3,1-0.9,1.8-1.8,2.3c-1.6,0.8-3.4,0.9-5.1,0.3c-1.4-0.6-2.8-1.3-4.2-2.1c-5.5-3.1-11-6.1-16.7-8.8c-8.5-4.1-17.2-7.4-26.3-10
	c-6.9-2-13.9-3.2-21-3.8c-4.4-0.3-8.8-0.4-13.1-0.1c-4.3,0.3-8.6,0.8-12.8,1.7c-10.4,2.2-20.4,5.8-29.8,10.8
	c-6.6,3.4-12.9,7.3-19,11.6l-1.3,0.9l1.8,0.7L66.9,91c0.2,0.1,0.4,0.1,0.6-0.1c3-3.4,6.4-6.5,10.1-9.1c11.1-8.2,24.2-13.1,37.9-14.2
	c5.5-0.4,11.1-0.3,16.6,0.4c4.5,0.6,9,1.5,13.4,2.7c7,1.9,13.8,4.4,20.3,7.4c5.3,2.5,10.4,5.3,15.5,8.1c3,1.7,6.2,3.3,9.4,4.6
	c1.9,0.8,3.9,1.2,6,1.3c2.9,0.1,5.6-1.4,7-3.9c1.1-1.7,1.9-3.6,2.3-5.6c0.8-4.3,1.5-8.6,2.1-13c0.4-2.9,0.8-5.8,1.1-8.7
	c0.4-2.2,0.5-4.4,0.4-6.6c-0.1-2.1-0.6-4.1-1.6-5.9c-0.7-1.3-1.9-2.2-3.3-2.6c-0.7-0.2-1.4-0.1-2,0.3c-0.3,0.2-0.5,0.5-0.3,0.8
	c1.9,6.4,2.4,13.1,1.6,19.8c-0.1,0.9-0.3,1.7-0.4,2.5h-0.1c0-0.2-0.1-0.4-0.1-0.5c-0.3-1.4-0.7-2.9-1-4.4c-1.7-8.3-3-16.7-4.1-25
	c0-0.3-0.1-0.5-0.5-0.5c-1.4,0-2.8-0.1-4.1-0.1C192.8,38.7,192.1,38.7,191.3,38.7z"/>
<path class="st0" d="M43.4,18.9L43.2,19L17.8,34.8c-0.4,0.3-0.8,0.7-1,1.1c-0.3,0.7-0.6,1.5-0.8,2.3c-0.3,2.2,0.5,3.9,2.4,4.8
	c0.8,0.3,1.6,0.6,2.4,0.8c0.6,0.2,0.6,0.1,0.6,0.7c0,14.6,0,29.2,0,43.8c0,0.1,0,0.3,0,0.5l0.2-0.1c2.9-1.8,5.8-3.6,8.7-5.4
	c0.2-0.1,0.3-0.3,0.3-0.5c0-1.3,0-2.5,0-3.8c0-2.6,0-5.2-0.1-7.8c0-4.9-0.1-9.7-0.1-14.6c0-0.2,0.1-0.4,0.3-0.5
	c0.6-0.3,1.3-0.5,1.9-0.9c0.3-0.2,0.5-0.1,0.6,0.2c0.1,0.2,0.2,0.4,0.2,0.5c0.2,0.7,0.3,1.4,0.5,2.2c1-0.3,2-0.7,3-1
	c0.1-0.1,0.2-0.2,0.2-0.3c0-0.4,0-0.8,0.1-1.3c0.1-2.8,0.3-5.7,0.3-8.5c0-1,0-2,0-3c0,0,0,0,0,0c-1.2,0.4-2.5,0.9-3.7,1.3
	c-0.2,0.1-0.3,0.2-0.3,0.4c-0.2,0.8-0.3,1.6-0.5,2.4c-0.1,0.4-0.3,0.8-0.6,1.1c-0.7,0.5-1.4,0.9-2.1,1.2c0-0.3,0-0.5,0-0.6
	c0-5.4,0-10.8,0-16.2c0-0.4,0.2-0.8,0.5-1.1c1.3-1.1,2.8-2,4.5-2.6c2-0.8,4.3,0.2,5.3,2.1c0.4,0.7,0.6,1.4,0.8,2.1
	c0.3,0.9,0.4,1.8,0.6,2.7c0.8-0.8,1.8-1.5,2.8-1.9c0.3-0.1,0.4-0.4,0.3-0.6c-0.5-4.6-1-9.1-1.5-13.7C43.6,20.1,43.5,19.5,43.4,18.9z
	"/>
<path class="st0" d="M79.7,58.5l0.5-0.1c2-0.6,4-1.3,6.1-1.9c0.3,0,0.4-0.3,0.4-0.5c0,0,0,0,0,0c0-2,0-4,0-6c0-6.9,0-13.8,0-20.7
	c0-0.3,0-0.6,0-0.8c0.1-0.6,0.2-1.1,0.4-1.7c0.3-0.6,1-0.9,1.6-0.7c0.1,0.1,0.3,0.1,0.4,0.3c0.3,0.3,0.5,0.6,0.6,0.9
	c0.3,0.9,0.5,1.9,0.5,2.8c0,8.3,0,16.6,0,24.8c0,0.2,0,0.3,0,0.5l6.7-1.6c0-0.3,0-0.6,0-0.8c0-8.9,0-17.9,0-26.8c0-0.2,0-0.4,0-0.7
	c0.1-0.7,0.2-1.4,1-1.7c0.8-0.3,1.6,0.1,1.9,0.9c0,0.1,0.1,0.2,0.1,0.3c0.3,1,0.5,2,0.5,3c0.1,2.5,0,4.9,0,7.4c0,5.8,0,11.7,0,17.5
	v0.5l6.6-0.9c0-0.3,0-0.4,0-0.7c0-5.9,0-11.9,0-17.8c0-3,0-6,0-9c0-1.6-0.3-3.2-0.9-4.8c-0.8-1.9-2.7-3-4.7-2.8
	c-1.8,0.2-3.4,1.1-4.4,2.5c-0.4,0.6-0.8,1.2-1.2,1.8l-0.2-0.4c-0.4-1.1-1.4-1.9-2.5-2.1c-1.3-0.2-2.6,0-3.6,0.8
	c-1.4,1-2.6,2.4-3.2,4l-0.2,0.3c0-1.3-0.3-2.6-0.9-3.7l-7.4,5c-0.1,0.1-0.2,0.2-0.2,0.3c0,1.1,0,2.2,0,3.3l0.2-0.1
	c0.8-0.3,1.2-0.2,1.4,0.7c0.1,0.5,0.1,0.9,0.2,1.4c0,2.9,0,5.7,0,8.6c0,6,0,12,0,18C79.7,58.2,79.7,58.3,79.7,58.5z"/>
<path class="st0" d="M51.2,73.3l0.7-0.6c2.2-1.7,4.4-3.4,6.5-5.2c0.2-0.2,0.4-0.4,0.3-0.7c0-0.9,0-1.8,0-2.7c0-0.5,0-1.1,0-1.6
	l-1.7-0.1c0-0.1,0-0.1,0-0.2c0-3.7-0.1-7.5-0.1-11.2c0-4.2,0.3-8.5,1-12.7c0.1-0.3-0.1-0.5-0.3-0.6c0,0,0,0,0,0
	c-1.7-0.8-3.4-1.5-5.1-2.3l-0.8-0.4l-0.5,1.5c-0.6-0.1-1.2-0.3-1.8-0.3c-2.6-0.3-5.2,1.1-6.3,3.4c-0.5,0.8-0.8,1.6-1.2,2.5
	c-1.7,4.4-2.7,9-3,13.8c-0.3,3.4-0.2,6.8,0.3,10.1c0.3,2.3,0.9,4.5,1.7,6.6c0.4,1.2,1.1,2.3,1.9,3.2c0.6,0.7,1.7,0.9,2.5,0.6
	c1-0.4,2-1,2.8-1.8c1-1,1.7-2.2,2.2-3.6c0.1-0.3,0.3-0.6,0.4-0.9h0.1L51.2,73.3z"/>
<path class="st0" d="M170.8,45.2c0,2.9,0.4,5.9,1,8.8c0.7,3.5,2,6.8,4,9.8c1.3,2,3.1,3.6,5.2,4.8c2.2,1.2,4.9,0.8,6.6-1
	c1.1-1.1,1.9-2.5,2.3-4c0.7-2.5,1.1-5.1,1.1-7.7c0.2-4-0.3-8-1.4-11.9c-0.8-3.2-2.2-6.2-4.1-8.9c-1.1-1.7-2.6-3.1-4.3-4.1
	c-2.1-1.4-4.8-1.1-6.5,0.7c-1,1-1.8,2.2-2.3,3.5C171.3,38.5,170.7,41.8,170.8,45.2z"/>
<path class="st0" d="M125.2,39.2c-0.1,0.4-0.3,0.7-0.4,1c-0.5,1.1-1.1,2.1-2,3c-0.9,1-2.3,1.1-3.3,0.2c-0.2-0.1-0.3-0.3-0.4-0.5
	c-1.3-1.7-2.2-3.7-2.4-5.9c-0.1-0.3,0.1-0.6,0.4-0.7c3.2-1.6,6.4-3.2,9.6-4.8c0.3-0.1,0.5-0.4,0.5-0.7c0.1-3.1-0.4-6.1-1.3-9.1
	c-0.7-2.4-2-4.6-3.7-6.3c-1.3-1.3-3.2-1.8-4.9-1.2c-1.8,0.6-3.4,1.8-4.3,3.5c-2.6,4.6-4,9.9-4,15.2c-0.1,3.7,0.4,7.3,1.4,10.9
	c0.5,2,1.4,3.8,2.8,5.4c2.4,2.7,6.5,3.8,10,0.6c1.8-1.7,3.2-3.9,3.8-6.3c0-0.2,0-0.3-0.1-0.5c-0.5-1.2-1.1-2.4-1.6-3.6
	C125.3,39.4,125.3,39.3,125.2,39.2z"/>
<path class="st0" d="M211.3,74.9c0,0.1-0.1,0.2-0.1,0.3c-0.3,1.4-0.6,2.8-0.8,4.2c-0.2,1.8,0,3.6,0.6,5.4c1.1,3,3.5,5.3,6.5,6.3
	c1.3,0.5,2.7,0.7,4.1,0.5c2.1-0.3,3.8-1.9,4.3-3.9c1.2-3.7,0.9-7.7-0.9-11.2c-1.3-2.5-2.8-4.8-4.6-7c-1.1-1.5-2.3-2.9-3.3-4.4
	c-0.9-1.3-1.3-2.9-1.1-4.4c0.1-1.2,1.1-2,2.3-2c1,0.1,2,0.7,2.5,1.6c0.8,1.2,0.9,2.8,0.4,4.1c-0.1,0.3-0.1,0.4,0.2,0.6
	c1,0.6,2,1.3,3,1.9c0.1,0.1,0.2,0.1,0.4,0.2c0-0.1,0.1-0.2,0.1-0.3s0.1-0.3,0.1-0.5c0.4-1.5,0.5-3.1,0.4-4.7c-0.4-3.9-3.2-7-7-8
	c-2.2-0.6-4.5,0.3-5.6,2.3c-1.4,2.4-2,5.2-1.5,7.9c0.4,2.6,1.3,5,2.8,7.2c1.3,2.1,2.8,4.1,4.2,6.2c1,1.4,1.8,2.9,2.3,4.6
	c0.3,1.2,0.1,2.4-0.7,3.4c-0.5,0.7-1.5,0.9-2.3,0.5c-1.5-0.7-2.5-2-2.7-3.6c-0.2-1.3-0.2-2.6,0.1-3.9c0-0.2,0-0.4-0.1-0.5
	C213.8,76.7,212.6,75.8,211.3,74.9z"/>
<path class="st0" d="M134.4,15.1c-2.2,1.1-4.4,2.2-6.5,3.3c-0.1,0.1-0.2,0.3-0.2,0.4c0,1.2,0,2.5,0,3.7c0,0.1,0,0.2,0.1,0.3
	c1-0.1,1.3,0.2,1.7,1.1c0.1,0.3,0.2,0.6,0.3,0.9c0.5,3.3,0.8,6.7,0.7,10c0,5.6,0,11.2,0,16.9v0.6l7.2,1c0-0.3,0-0.5,0-0.7
	c0-4.3,0-8.6-0.1-12.9c0-3.5,0-7,0-10.4c0-1.5,0-3.1,0.1-4.6c0-1.9,1.5-3.5,3.4-3.5c0.2,0,0.5,0,0.7,0.1c1,0.1,1.9,0.3,2.9,0.5
	c0-0.1,0-0.2,0-0.3c0.1-1.3,0.1-2.6,0.2-3.8c0-1.8-1.5-3.3-3.3-3.3c-0.4,0-0.8,0.1-1.2,0.2c-0.6,0.3-1.2,0.7-1.7,1.2
	c-1,0.8-1.8,1.7-2.5,2.8L134.4,15.1z"/>
<path class="st0" d="M62.7,65.6l0.2-0.1l6.3-2.9c0.2-0.1,0.3-0.3,0.3-0.5c0-2.9,0-5.8,0-8.7c0-4.4,0-8.8,0-13.2
	c-0.1-1.8,0.2-3.5,0.8-5.2c0.4-1.3,1.4-2.3,2.8-2.7c0.8-0.1,1.7-0.1,2.5-0.1c0.3,0,0.5-0.1,0.5-0.4c0-1.7,0.1-3.4,0.1-5.1
	c0.1-0.9-0.6-1.7-1.4-1.7c-0.1,0-0.1,0-0.2,0c-1-0.1-1.9,0.3-2.6,1c-0.8,0.7-1.6,1.5-2.3,2.3c-0.6,0.7-1.1,1.5-1.7,2.3l-1.2-2.5
	l-0.2,0.2c-2.2,2.3-4.3,4.7-6.5,7c-0.1,0.1-0.2,0.3-0.2,0.5c0,1.1,0,2.1,0,3.2c0,0.2,0,0.4,0,0.6l0.3-0.3c0.3-0.3,0.8-0.4,1.1-0.1
	c0.1,0.1,0.2,0.2,0.2,0.3c0.1,0.2,0.2,0.3,0.2,0.5c0.2,0.7,0.3,1.5,0.4,2.2c0.2,2.7,0.4,5.5,0.4,8.2c0.1,4.2,0,8.4,0,12.6
	C62.7,63.9,62.7,64.7,62.7,65.6z"/>
<path class="st0" d="M138.7,92.8c0-0.1-0.1-0.2-0.1-0.3c-0.3-0.4-0.5-0.9-0.8-1.3c-1.7-2.7-5.1-3.7-8.1-2.5c-1.7,0.8-3,2.1-3.8,3.8
	c-1.4,3-1.7,6.4-0.7,9.5c0.5,1.8,1.4,3.5,2.8,4.8c2.9,2.4,7.1,2,9.5-0.9c0.2-0.3,0.4-0.6,0.6-0.9c1.1-2,1.6-4.2,1.6-6.4
	c0-0.6,0-1.2,0-1.8h-7.6v3.9h0.4c1,0,2,0,3,0c0.3,0,0.5,0.1,0.4,0.4c-0.1,0.4-0.2,0.9-0.4,1.3c-0.5,1.2-1.7,1.9-3,1.9
	c-1.2,0-2.4-0.7-2.9-1.8c-0.2-0.3-0.3-0.7-0.4-1c-0.6-1.9-0.6-4-0.1-5.9c0.2-0.9,0.7-1.7,1.4-2.4c1.3-1.1,3.2-1,4.3,0.3
	c0.1,0.1,0.2,0.3,0.3,0.4c0.2,0.3,0.3,0.5,0.5,0.8L138.7,92.8z"/>
<path class="st0" d="M111.5,107.9c1.1,0,2.2,0,3.2,0c0.4,0,0.4-0.1,0.4-0.5c0-2,0-4,0-6c0-0.2,0-0.4,0-0.7c0.1,0,0.2,0.1,0.2,0.2
	c1,2.2,2,4.3,2.9,6.5c0.1,0.3,0.3,0.4,0.6,0.4c1.2,0,2.4,0,3.6,0c0.1,0,0.2,0,0.4,0l-3.9-7.6l0.3-0.1c1-0.4,1.8-1.2,2.2-2.2
	c0.8-2,0.8-4.2,0-6.2c-0.5-1.6-2-2.7-3.7-2.6c-2,0-4,0.2-6,0.3c-0.3,0-0.3,0.1-0.3,0.4c0,1.1,0,2.2,0,3.3c0,4.6,0,9.1,0.1,13.7
	C111.5,107.2,111.5,107.6,111.5,107.9z"/>
<path class="st0" d="M99,90.9c-1.2,0.2-2.3,0.4-3.4,0.5c-0.3,0-0.5,0.2-0.5,0.5c0,2.3,0,4.7,0.1,7c0,1.7,0.1,3.3,0.3,5
	c0.2,2,1.6,3.7,3.5,4.2c1.4,0.4,2.9,0.4,4.4,0.2c2-0.2,3.6-1.7,4-3.7c0.3-1.1,0.4-2.3,0.4-3.4c0-3.2,0-6.5,0-9.7c0-0.5,0-1.1,0-1.6
	l-3.2,0.4c-0.6,0.1-0.6,0.1-0.6,0.7c0,3.2,0.1,6.3,0,9.5c0,0.9-0.1,1.9-0.4,2.8c-0.3,0.9-1.2,1.3-2.4,1.3c-0.9,0-1.6-0.6-1.8-1.5
	c-0.2-0.6-0.2-1.2-0.3-1.8C99,99.1,99,97,98.9,94.9C99,93.6,99,92.3,99,90.9z"/>
<path class="st0" d="M155.3,90.1V108h3.6v-6.6c0.1,0.1,0.2,0.2,0.3,0.3c0.8,1.7,1.7,3.4,2.4,5.2c0.2,0.8,1,1.3,1.8,1.1
	c1-0.1,2.1-0.1,3.1,0l-3.8-6.7c0.1-0.1,0.1-0.1,0.1-0.1l0.3-0.1c1.1-0.3,2-1.1,2.4-2.2c0.2-0.8,0.4-1.7,0.3-2.5
	c0.1-2.6-1.7-4.8-4.2-5.3c-1.4-0.3-2.8-0.5-4.2-0.7C156.7,90.3,156,90.2,155.3,90.1z"/>
<path class="st0" d="M146.7,103.8v-3.2l4.6,0.1v-3.9l-4.6-0.3c0-0.9,0-1.8,0-2.7c0-0.4,0.1-0.5,0.5-0.5c1.3,0.1,2.7,0.2,4,0.3h0.4
	v-4l-8.7-0.7v19h1.1c2.4,0,4.7,0,7.1,0c0.4,0,0.5-0.1,0.5-0.5c0-0.9,0-1.8,0-2.7c0-0.3,0-0.6,0-1L146.7,103.8z"/>
<path class="st0" d="M89.1,99.7c0.1-0.1,0.2-0.1,0.3-0.2c1.4-0.6,2.3-2,2.1-3.6c0.1-1.3-0.7-2.6-2.1-2.9c-0.7-0.1-1.3-0.2-2-0.1
	c-2,0.3-3.9,0.8-5.9,1.2c-0.4,0.1-0.5,0.3-0.5,0.7c0,4.2,0,8.5,0,12.7c0,0.2,0,0.3,0,0.6c2.5-0.1,4.9-0.1,7.4-0.3
	c1.2,0,2.3-0.6,3-1.5c0.8-1.3,1.1-2.8,0.6-4.3c-0.2-1.1-1-1.9-2.1-2.2C89.7,99.8,89.4,99.8,89.1,99.7z"/>
<path class="st0" d="M170.4,103.2c-0.4,0.7-0.9,1.6-1.4,2.5c-0.2,0.2-0.1,0.5,0.1,0.7c0,0,0,0,0,0c1.6,1.6,3.9,2.3,6.1,1.9
	c2.1-0.3,3.8-1.9,4-4.1c0.4-1.8-0.5-3.6-2.2-4.5c-0.8-0.4-1.6-0.8-2.4-1.1c-0.4-0.2-0.8-0.4-1.1-0.7c-0.4-0.3-0.5-0.9-0.3-1.4
	c0.2-0.5,0.7-0.7,1.1-0.6c0.4,0,0.8,0.1,1.2,0.3c0.6,0.3,1.2,0.8,1.8,1.2c0.4-0.7,0.7-1.5,1.1-2.3c0-0.1,0-0.3-0.1-0.4
	c-1.2-1-2.7-1.7-4.3-2c-0.8-0.2-1.7-0.1-2.5,0.3c-1.2,0.6-1.9,1.8-2,3.1c-0.3,1.4,0.1,3,1.2,4c0.7,0.5,1.4,1,2.1,1.3
	c0.6,0.3,1.3,0.6,1.9,0.9c0.7,0.4,1,1.3,0.7,2c-0.3,0.5-0.8,0.8-1.4,0.8c-0.9,0-1.7-0.3-2.4-0.9L170.4,103.2z"/>
<path class="st0" d="M212.1,99.4c-0.7,0-1.3,0-2,0c-0.3,0-0.4,0.1-0.5,0.4c-0.2,0.8-0.5,1.6-0.7,2.4l-0.7,2.4l-0.1-0.3
	c-0.4-1.5-0.9-3-1.4-4.5c0-0.1-0.2-0.4-0.3-0.4c-0.7,0-1.4,0-2.1,0l-1.3,8.3c0.6,0,1.2,0,1.7,0c0.3,0,0.5-0.1,0.5-0.4
	c0.1-0.9,0.3-1.9,0.4-2.8c0.1-0.6,0.2-1.2,0.2-1.8c0.5,1.3,0.9,2.6,1.2,4c0.3,1.1,0.3,1.1,1.5,1.1c0.3,0,0.5-0.1,0.5-0.4
	c0,0,0,0,0,0c0.3-1.2,0.7-2.4,1.1-3.6l0.4-1.2c0,0.2,0.1,0.2,0.1,0.3c0.2,1.5,0.4,3,0.6,4.5c0,0.1,0.2,0.4,0.3,0.4
	c0.6,0,1.2,0,1.9,0L212.1,99.4z"/>
<path class="st0" d="M220,108c0.3,0,0.7-0.1,1-0.1c2.4-0.4,3.9-2.7,3.5-5.1c-0.1-0.4-0.2-0.7-0.3-1.1c-0.9-1.8-2.9-2.8-4.9-2.5
	c-1.8,0.3-3.4,1.6-3.8,3.4c-0.4,2.4,1.2,4.8,3.6,5.2C219.4,108,219.7,108,220,108z"/>
<path class="st0" d="M229.5,104.7h0.1l0.3,0.4c0.5,0.8,0.9,1.6,1.4,2.3c0.1,0.1,0.2,0.3,0.3,0.3c0.8,0,1.6,0,2.5,0l-2.3-3.3l0.6-0.2
	c0.6-0.2,1-0.7,1.2-1.2c0.6-1.3,0-2.7-1.3-3.3c-0.3-0.1-0.6-0.2-0.9-0.2c-1.3-0.1-2.6-0.1-3.9-0.1c0,0-0.1,0-0.1,0.1v8.3
	c0.6,0,1.2,0,1.8,0c0.3,0,0.4-0.1,0.4-0.4c0-0.8,0-1.5,0-2.3C229.5,105,229.5,104.9,229.5,104.7z"/>
<path class="st0" d="M195.4,106.9c0.4,1,1.3,0.9,2.1,0.9h1.1v-0.1c-0.3-0.3-0.6-0.6-0.9-0.9s-0.6-0.5-0.9-0.8v-0.2l1.2-1l-1.2-1.3
	l-1.1,1.1l-1-1c0.3-0.3,0.6-0.6,0.9-0.9c0.7-0.8,0.6-2-0.2-2.7c-0.2-0.1-0.3-0.3-0.5-0.3c-0.8-0.3-1.6-0.4-2.4-0.1
	c-1,0.3-1.5,1.3-1.3,2.3c0.1,0.2,0.1,0.4,0.3,0.5c0.1,0.2,0.3,0.4,0.4,0.6c-0.4,0.3-0.8,0.5-1.1,0.8c-0.7,0.6-1,1.5-0.7,2.3
	c0.2,0.8,0.9,1.5,1.7,1.6C193,108.2,194.4,107.8,195.4,106.9z"/>
<path class="st0" d="M40.3,100.7c-0.8,0-1.5,0-2.1,0c-0.2,0-0.4,0.1-0.6,0.3c-0.7,0.9-1.3,1.7-1.9,2.6c-0.1,0.1-0.2,0.2-0.3,0.4
	h-0.1v-3.2h-2.1v7.5h2.1v-3.3c0.2,0.2,0.3,0.3,0.3,0.4c0.5,0.7,1.1,1.4,1.6,2.1c0.3,0.6,1,0.9,1.6,0.8c0.6,0,1.1,0,1.7,0l-2.7-3.3
	c-0.5-0.6-0.5-0.6,0-1.1L40.3,100.7z"/>
<path class="st0" d="M11,105.5h0.1l0.3,0.4c0.4,0.7,0.9,1.4,1.3,2.1c0.1,0.1,0.2,0.3,0.3,0.3c0.7,0,1.4,0,2.3,0l-2.1-3l0.3-0.1
	c0.9-0.3,1.5-1.3,1.4-2.2c0-1-0.7-1.8-1.7-2c-1.4-0.2-2.7-0.1-4.1-0.2v7.6H11V105.5z"/>
<path class="st0" d="M25.5,108.3c0.1-0.3,0.2-0.7,0.3-1c0-0.2,0.2-0.4,0.4-0.3c0,0,0,0,0,0c0.5,0,1,0,1.6,0c0.4,0,0.8-0.1,1,0.1
	s0.3,0.6,0.4,1c0,0,0,0.1,0,0.1s0.2,0.2,0.3,0.2c0.6,0,1.2,0,1.9,0c0-0.1,0-0.2,0-0.3c-0.8-2.4-1.7-4.7-2.5-7
	c-0.1-0.1-0.2-0.2-0.4-0.3c-0.7,0-1.4,0-2.1,0c-0.3,0-0.4,0.1-0.4,0.3c-0.5,1.3-0.9,2.7-1.4,4l-1.1,3.3L25.5,108.3z"/>
<path class="st0" d="M48.1,108.3H49c0.4,0,0.8,0.1,1.1-0.1s0.3-0.6,0.4-1c0-0.2,0.2-0.3,0.4-0.3c0,0,0,0,0,0c0.5,0,1,0,1.5,0
	c1.1,0,1.1,0,1.5,1.1c0,0,0,0.1,0,0.1s0.2,0.2,0.3,0.2c0.6,0,1.2,0,1.8,0c0-0.1,0-0.2,0-0.3c-0.8-2.3-1.7-4.7-2.5-7
	c-0.1-0.1-0.2-0.2-0.4-0.3c-0.7,0-1.3,0-2,0c-0.2,0-0.5,0.1-0.5,0.4c-0.6,1.8-1.2,3.5-1.9,5.2L48.1,108.3z"/>
<path class="st0" d="M17.1,100.7v7.5h4.7v-1.7h-2.6v-1.2h2.5v-1.6h-2.5v-1.4h0.5c0.6,0,1.2,0,1.8,0c0.1,0,0.4-0.1,0.4-0.2
	c0-0.5,0-0.9,0-1.4L17.1,100.7z"/>
<path class="st0" d="M62.7,101.2c-0.9-0.6-2-0.8-3-0.6c-1.1,0.1-1.9,1-2,2.1c-0.1,1.2,0.4,1.9,1.7,2.3c0.4,0.1,0.8,0.2,1.2,0.4
	c0.4,0.1,0.6,0.5,0.4,0.9c-0.2,0.5-0.7,0.7-1.2,0.6c-0.6-0.3-1.2-0.6-1.7-0.9l-0.9,1.4c1.1,1.2,2.9,1.5,4.4,0.8c0.4-0.2,0.8-0.6,1-1
	c0.7-1,0.5-2.4-0.5-3.1c-0.2-0.1-0.4-0.3-0.7-0.3c-0.3-0.1-0.6-0.2-0.8-0.3c-0.2-0.1-0.5-0.2-0.7-0.3c-0.3-0.1-0.4-0.5-0.3-0.7
	c0.1-0.1,0.2-0.2,0.3-0.3c0.2-0.1,0.4-0.1,0.7-0.1c0.5,0.1,0.9,0.3,1.4,0.5L62.7,101.2z"/>
<path class="st0" d="M42.2,100.7v7.5h2v-3h2.5v-1.6h-2.5c0-0.3,0-0.6,0-0.9s0.1-0.4,0.4-0.4c0.7,0,1.3,0,2,0c0.1,0,0.4-0.1,0.4-0.2
	c0-0.5,0-0.9,0-1.4H42.2z"/>
<path class="st0" d="M68.6,108.2c0-0.2,0-0.3,0-0.5c0-1.6,0-3.2,0-4.9c0-0.3,0.1-0.4,0.4-0.4c0.3,0,0.7,0,1,0c0.1,0,0.3-0.1,0.3-0.3
	c0-0.5,0-1,0-1.5h-5.6c0,0.5,0,1,0,1.5c0,0.1,0.2,0.2,0.3,0.2c0.3,0,0.6,0,0.9,0c0.4,0,0.5,0.1,0.5,0.5c0,1.6,0,3.2,0,4.8
	c0,0.2,0,0.3,0,0.5L68.6,108.2z"/>
<path class="st1" d="M145.2,0.5l1.3,0.5c4.1,1.3,8.1,2.7,12.2,4c2.9,0.9,5.3,3,6.6,5.8c1.6,2.9,2.5,6.1,2.7,9.4
	c0.2,2.5-0.3,5-1.4,7.3c-0.9,1.8-2.7,3-4.7,3.1c-0.3,0-0.7,0-1,0c0.5,0.4,1.1,0.9,1.6,1.3c3.2,3,5.3,6.9,6.2,11.2
	c0.7,3.2,0.8,6.5,0.1,9.7c-0.3,1.8-1.1,3.4-2.4,4.7c-1.2,1.3-3.1,1.8-4.8,1.3c-4.8-1.2-9.7-2.5-14.5-3.7c-0.4-0.1-0.5-0.3-0.5-0.6
	c0-5.4,0-10.8,0.1-16.2c0-6.4,0-12.7,0-19.1c0-2.5,0-5.1,0-7.6c0.1-0.3-0.2-0.7-0.5-0.7c-1.4-0.4-2.6-1.3-3.3-2.5
	c-0.9-1.7-0.9-3.7,0.1-5.3c0.5-0.9,1.1-1.7,1.9-2.4L145.2,0.5z M155,30.7v0.6c0,4.7,0,9.4,0,14.1c0,1.8,0,3.6,0,5.4
	c0,0.2,0,0.3,0.2,0.5c1.5,1,3.4,1.2,4.4-1c0.3-0.7,0.6-1.5,0.7-2.3c0.5-3,0.5-6.1,0-9.1c-0.2-1.9-0.8-3.6-1.7-5.3
	C157.7,32.2,156.5,31.2,155,30.7z M154.9,9v0.6c0,2.3,0,4.6,0,6.9c0,2.7,0,5.4,0,8.1c0,0.2,0,0.5,0.1,0.5c1.2,0.8,2.4,1.1,3.5-0.1
	c0.4-0.4,0.6-0.9,0.7-1.4c0.2-1.1,0.4-2.3,0.5-3.4c0.3-2.5,0.1-5-0.8-7.4C158.4,10.9,156.8,9.5,154.9,9L154.9,9z"/>
<path class="st1" d="M0.5,100.7c1.4,0,2.8,0,4.2,0.1c0.9,0.1,1.7,0.9,1.6,1.8c0,0.2,0,0.3-0.1,0.5c-0.2,0.5-0.6,0.9-1.1,1
	c0,0,0.1,0.1,0.1,0.1c1,0.2,1.6,1.1,1.4,2.1c-0.1,1-1,1.8-2,1.8c-1,0.1-2,0.1-3.1,0.1H0.5C0.5,105.7,0.5,103.2,0.5,100.7z
	 M2.5,106.8c0.6,0,1.1-0.1,1.6-0.1c0.4-0.1,0.7-0.5,0.6-0.9c-0.1-0.3-0.3-0.5-0.6-0.6c-0.4,0-0.9-0.1-1.3-0.1
	c-0.1,0-0.2,0.1-0.2,0.2C2.5,105.7,2.5,106.2,2.5,106.8L2.5,106.8z M2.6,102.1c-0.2,1.5,0,1.8,1.2,1.5h0.1c0.3-0.1,0.5-0.4,0.5-0.7
	c0-0.3-0.1-0.6-0.5-0.7S3,102.2,2.6,102.1L2.6,102.1z"/>
<path class="st1" d="M241.4,107.8h-4.7h-0.6v-8.4h5.2v1.8h-3v1.4h2.8v1.8h-2.7v1.3h2.9V107.8z"/>
<path class="st0" d="M241.4,105.9h-2.9v-1.3h2.7v-1.8h-2.8v-1.4h3L241.4,105.9z"/>
<path class="st1" d="M70.6,110.2c0.3-1,0.7-1.9,1-2.9c0.1-0.3,0.2-0.4,0.5-0.4c0.5,0,1,0,1.6,0l-1.6,3.2H70.6z"/>
<path class="st1" d="M191.3,38.7c0.8,0,1.6,0,2.3,0c1.4,0,2.8,0.1,4.1,0.1c0.4,0,0.5,0.1,0.5,0.5c1.1,8.4,2.4,16.7,4.1,25
	c0.3,1.4,0.7,2.9,1,4.4c0,0.2,0.1,0.4,0.1,0.5h0.1c0.1-0.8,0.3-1.7,0.4-2.5c0.8-6.6,0.3-13.4-1.6-19.8c-0.1-0.3,0-0.7,0.3-0.8
	c0.6-0.4,1.3-0.5,2-0.3c1.4,0.4,2.6,1.3,3.3,2.6c1,1.8,1.6,3.8,1.6,5.9c0.1,2.2,0,4.4-0.4,6.6c-0.4,2.9-0.7,5.8-1.1,8.7
	c-0.7,4.3-1.4,8.7-2.1,13c-0.4,2-1.2,3.9-2.3,5.6c-1.4,2.5-4.1,4-7,3.9c-2.1-0.1-4.1-0.5-6-1.3c-3.2-1.3-6.4-2.8-9.4-4.6
	c-5.1-2.8-10.2-5.6-15.5-8.1c-6.5-3.1-13.3-5.5-20.3-7.4c-4.4-1.2-8.8-2.1-13.4-2.7c-5.5-0.7-11.1-0.9-16.6-0.4
	c-13.7,1.1-26.9,6-38,14.2c-3.7,2.7-7.1,5.7-10.1,9.1c-0.2,0.2-0.4,0.2-0.6,0.1l-16.2-6.5l-1.8-0.7l1.3-0.9
	c6.1-4.3,12.4-8.2,19-11.6c9.4-5,19.4-8.6,29.8-10.8c4.2-0.8,8.5-1.4,12.8-1.7c4.4-0.3,8.8-0.2,13.1,0.1c7.1,0.6,14.2,1.9,21,3.8
	c9,2.6,17.8,5.9,26.3,10c5.7,2.7,11.2,5.7,16.7,8.8c1.3,0.8,2.7,1.5,4.1,2.1c1.7,0.7,3.5,0.6,5.1-0.3c0.9-0.5,1.5-1.3,1.8-2.3
	c0.4-1.3,0.4-2.7,0-4c-2.4-9.4-4.6-18.9-6.4-28.5c-0.6-3.2-1.4-6.3-2.1-9.5C191.3,39,191.3,38.8,191.3,38.7z"/>
<path class="st1" d="M43.4,18.9c0.1,0.6,0.2,1.2,0.2,1.8c0.5,4.6,1,9.1,1.5,13.7c0.1,0.3-0.1,0.6-0.3,0.6c-1.1,0.5-2,1.1-2.8,1.9
	c-0.2-0.9-0.3-1.8-0.6-2.7c-0.2-0.7-0.5-1.4-0.8-2.1c-0.9-2-3.2-2.9-5.3-2.1c-1.6,0.6-3.1,1.5-4.5,2.6c-0.3,0.3-0.5,0.7-0.5,1.1
	c0,5.4,0,10.8,0,16.2c0,0.2,0,0.3,0,0.6c0.7-0.4,1.5-0.8,2.1-1.2c0.3-0.3,0.5-0.7,0.6-1.1c0.2-0.8,0.3-1.6,0.5-2.4
	c0-0.2,0.1-0.3,0.3-0.4c1.2-0.5,2.5-0.9,3.7-1.3c0,0,0.1,0,0,0c0,1,0,2,0,3c-0.1,2.8-0.2,5.7-0.3,8.5c0,0.4,0,0.8-0.1,1.3
	c0,0.1-0.1,0.3-0.2,0.3c-1,0.4-2,0.7-3,1c-0.2-0.7-0.3-1.4-0.5-2.2c-0.1-0.2-0.1-0.4-0.2-0.5c-0.1-0.3-0.3-0.4-0.6-0.2
	c-0.6,0.3-1.3,0.6-1.9,0.9c-0.2,0.1-0.3,0.3-0.3,0.5c0,4.9,0.1,9.7,0.1,14.6c0,2.6,0,5.2,0.1,7.8c0,1.3,0,2.5,0,3.8
	c0,0.2-0.1,0.4-0.3,0.5c-2.9,1.8-5.8,3.6-8.7,5.4l-0.2,0.1c0-0.2,0-0.3,0-0.5c0-14.6,0-29.2,0-43.8c0-0.6,0-0.6-0.6-0.7
	c-0.8-0.2-1.6-0.4-2.4-0.8c-1.9-0.9-2.6-2.6-2.4-4.8c0.2-0.8,0.4-1.5,0.8-2.3c0.2-0.5,0.6-0.9,1-1.1L43.2,19L43.4,18.9z"/>
<path class="st1" d="M79.7,58.5c0-0.2,0-0.3,0-0.5c0-6,0-12,0-18c0-2.8,0-5.7,0-8.6c0-0.5-0.1-0.9-0.2-1.4c-0.2-0.9-0.6-1.1-1.4-0.7
	l-0.2,0.1c0-1.1,0-2.2,0-3.3c0-0.1,0.1-0.2,0.2-0.3l7.4-5c0.6,1.2,0.9,2.4,0.9,3.7l0.2-0.3c0.7-1.6,1.8-3,3.2-4c1-0.7,2.3-1,3.6-0.8
	c1.1,0.2,2.1,1,2.5,2.1l0.2,0.4c0.4-0.6,0.7-1.3,1.2-1.8c1.1-1.4,2.7-2.3,4.4-2.5c2-0.2,3.9,0.9,4.7,2.8c0.6,1.5,0.9,3.1,0.9,4.8
	c0,3,0,6,0,9c0,5.9,0,11.9,0,17.8c0,0.2,0,0.4,0,0.7l-6.6,0.9v-0.5c0-5.8,0-11.7,0-17.5c0-2.5,0-4.9,0-7.4c0-1-0.2-2-0.5-3
	c-0.1-0.8-0.9-1.4-1.7-1.2c-0.1,0-0.2,0-0.3,0.1c-0.8,0.3-0.9,1-1,1.7c0,0.2,0,0.4,0,0.7c0,8.9,0,17.9,0,26.8c0,0.3,0,0.5,0,0.8
	l-6.7,1.6c0-0.2,0-0.4,0-0.5c0-8.3,0-16.6,0-24.8c0-1-0.1-1.9-0.5-2.8c-0.1-0.4-0.4-0.7-0.6-0.9c-0.5-0.5-1.3-0.5-1.7,0
	c-0.1,0.1-0.2,0.2-0.3,0.4c-0.2,0.5-0.3,1.1-0.4,1.7c0,0.3,0,0.6,0,0.8c0,6.9,0,13.8,0,20.7c0,2,0,4,0,6c0,0.3-0.1,0.5-0.4,0.5
	c0,0,0,0,0,0c-2,0.6-4,1.3-6.1,1.9L79.7,58.5z"/>
<path class="st1" d="M51.2,73.3l-0.3-3h-0.1c-0.1,0.3-0.3,0.6-0.4,0.9c-0.5,1.3-1.2,2.5-2.2,3.6c-0.8,0.8-1.7,1.4-2.8,1.8
	c-0.9,0.3-1.9,0.1-2.5-0.6c-0.9-0.9-1.5-2-1.9-3.2c-0.8-2.1-1.3-4.3-1.7-6.6c-0.5-3.4-0.6-6.8-0.3-10.1c0.3-4.7,1.4-9.3,3-13.8
	c0.3-0.9,0.7-1.7,1.2-2.5c1.2-2.4,3.7-3.7,6.3-3.4c0.6,0,1.2,0.2,1.8,0.3l0.5-1.5l0.8,0.4c1.7,0.8,3.4,1.6,5.1,2.3
	c0.3,0.1,0.4,0.3,0.4,0.6c0,0,0,0,0,0c-0.7,4.2-1,8.4-1,12.7c0,3.7,0.1,7.5,0.1,11.2c0,0.1,0,0.1,0,0.2l1.7,0.1c0,0.6,0,1.1,0,1.6
	c0,0.9,0,1.8,0,2.7c0,0.3-0.1,0.6-0.3,0.7c-2.2,1.7-4.4,3.4-6.5,5.2L51.2,73.3z M50.1,52.8L50.1,52.8c0.1-3.4,0.1-6.7,0.2-10.1
	c0-0.4-0.2-0.6-0.6-0.6c-0.4,0-0.7,0.1-1,0.3c-0.4,0.3-0.7,0.7-1,1.1c-0.7,1.1-1.1,2.3-1.4,3.5c-0.7,2.9-1.1,5.9-1.1,8.8
	c-0.1,2.2-0.1,4.4,0,6.5c0,1.1,0.3,2.2,0.8,3.2c0.3,0.8,1.3,1.3,2.1,0.9c0.3-0.1,0.5-0.3,0.7-0.5c0.3-0.3,0.6-0.8,0.7-1.2
	c0.2-0.8,0.4-1.7,0.4-2.6C50.1,59.1,50.1,55.9,50.1,52.8L50.1,52.8z"/>
<path class="st1" d="M170.8,45.2c0-3.4,0.5-6.7,1.7-9.9c0.5-1.3,1.2-2.5,2.3-3.5c1.7-1.8,4.5-2.1,6.5-0.7c1.7,1.1,3.1,2.5,4.3,4.1
	c1.9,2.7,3.2,5.7,4.1,8.9c1.1,3.9,1.6,7.9,1.4,11.9c0,2.6-0.4,5.2-1.1,7.6c-0.4,1.5-1.2,2.9-2.3,4c-1.7,1.8-4.4,2.2-6.6,1
	c-2.1-1.2-3.9-2.8-5.2-4.8c-2-3-3.3-6.3-4-9.8C171.1,51.1,170.8,48.2,170.8,45.2z M178.7,49.1h0.1c0,1.7,0,3.4,0,5.1
	s0.1,3.5,0.2,5.3c0.1,1.3,0.5,2.6,1.2,3.8c0.2,0.5,0.7,0.8,1.3,0.8c0.6-0.1,0.8-0.6,0.9-1c0.3-1,0.4-2.1,0.5-3.2
	c0.1-4.5,0.1-9,0-13.5c0-2.3-0.2-4.6-0.3-6.9c0-1-0.4-1.9-1-2.7c-0.3-0.4-0.9-0.6-1.4-0.5c-0.5,0.1-0.8,0.5-0.9,1
	c-0.2,0.8-0.3,1.6-0.4,2.5C178.8,42.8,178.8,46,178.7,49.1z"/>
<path class="st1" d="M125.2,39.2c0.1,0.1,0.1,0.2,0.2,0.3c0.5,1.2,1.1,2.4,1.6,3.6c0.1,0.1,0.1,0.3,0.1,0.5c-0.7,2.4-2,4.6-3.8,6.3
	c-3.5,3.2-7.6,2-10-0.6c-1.3-1.5-2.3-3.4-2.8-5.4c-1-3.5-1.5-7.2-1.5-10.9c0-5.3,1.4-10.6,4-15.2c0.9-1.6,2.5-2.9,4.3-3.4
	c1.7-0.6,3.6-0.2,4.9,1.2c1.8,1.8,3,3.9,3.7,6.3c0.9,2.9,1.3,6,1.3,9.1c0,0.3-0.2,0.6-0.5,0.7c-3.2,1.6-6.4,3.2-9.6,4.8
	c-0.3,0.1-0.5,0.4-0.4,0.7c0.2,2.1,1,4.2,2.4,5.9c0.7,1.1,2.2,1.4,3.3,0.7c0.2-0.1,0.3-0.3,0.5-0.4c0.9-0.9,1.5-1.9,2-3
	C125,39.9,125,39.6,125.2,39.2z M116,31l0.2,0.1c0.7-0.3,1.4-0.7,2-1c1.1-0.5,1.8-1.5,1.9-2.7c0.1-1.2,0.1-2.4,0-3.6
	c-0.1-1.1-0.4-2.2-1-3.2c-0.2-0.4-0.7-0.6-1.2-0.5c0,0,0,0,0,0c-0.4,0.1-0.7,0.4-0.9,0.7c-0.3,0.6-0.5,1.2-0.6,1.9
	c-0.3,2-0.5,4-0.4,6.1C116,29.6,116,30.3,116,31z"/>
<path class="st1" d="M211.3,74.9c1.3,0.9,2.5,1.7,3.7,2.6c0.1,0.1,0.1,0.3,0.1,0.5c-0.3,1.3-0.4,2.6-0.1,3.9
	c0.2,1.6,1.2,2.9,2.7,3.6c0.8,0.4,1.7,0.2,2.3-0.5c0.8-0.9,1-2.2,0.7-3.4c-0.5-1.7-1.2-3.2-2.3-4.6c-1.4-2.1-2.9-4.1-4.2-6.2
	c-1.4-2.2-2.3-4.6-2.8-7.2c-0.5-2.7,0.1-5.5,1.5-7.9c1.2-1.9,3.5-2.8,5.6-2.3c3.8,1,6.6,4.1,7,8c0.2,1.6,0,3.2-0.4,4.7
	c0,0.2-0.1,0.3-0.1,0.5s-0.1,0.1-0.1,0.3c-0.1-0.1-0.3-0.1-0.4-0.2c-1-0.6-2-1.3-3-1.9c-0.3-0.2-0.3-0.3-0.2-0.6
	c0.5-1.4,0.4-2.9-0.4-4.1c-0.5-0.9-1.4-1.5-2.5-1.6c-1.2,0-2.2,0.8-2.3,2c-0.2,1.6,0.2,3.2,1.1,4.4c1,1.5,2.2,2.9,3.3,4.4
	c1.7,2.2,3.3,4.5,4.6,7c1.8,3.5,2.1,7.5,0.9,11.2c-0.5,2.1-2.2,3.6-4.3,3.9c-1.4,0.2-2.8,0-4.1-0.5c-3-0.9-5.5-3.3-6.5-6.3
	c-0.6-1.7-0.8-3.6-0.6-5.4c0.1-1.4,0.5-2.8,0.8-4.2C211.3,75.1,211.3,75,211.3,74.9z"/>
<path class="st1" d="M134.4,15.1l1.7,3.4c0.7-1.1,1.5-2,2.5-2.8c0.5-0.5,1.1-0.8,1.7-1.2c1.7-0.7,3.6,0.2,4.3,1.9
	c0.1,0.4,0.2,0.8,0.2,1.2c0,1.3-0.1,2.6-0.2,3.8c0,0.1,0,0.2,0,0.3c-1-0.2-2-0.4-2.9-0.5c-1.9-0.4-3.7,0.9-4,2.7
	c0,0.2-0.1,0.4-0.1,0.7c-0.1,1.5-0.1,3.1-0.1,4.6c0,3.5,0,7,0,10.4c0,4.3,0,8.6,0.1,12.9c0,0.2,0,0.4,0,0.7l-7.2-1v-0.6
	c0-5.6,0-11.2,0-16.9c0-3.3-0.2-6.7-0.7-10c-0.1-0.3-0.1-0.6-0.3-0.9c-0.3-0.9-0.7-1.2-1.7-1.1c0-0.1,0-0.2-0.1-0.3
	c0-1.2,0-2.5,0-3.7c0-0.2,0.1-0.3,0.2-0.4C130,17.2,132.1,16.2,134.4,15.1z"/>
<path class="st1" d="M62.7,65.6c0-0.9,0-1.7,0-2.5c0-4.2,0.1-8.4,0-12.6c0-2.8-0.2-5.5-0.4-8.2c-0.1-0.7-0.2-1.5-0.4-2.2
	c-0.1-0.2-0.1-0.4-0.2-0.5c-0.2-0.4-0.6-0.6-1-0.4c-0.1,0-0.2,0.1-0.3,0.2l-0.3,0.3c0-0.3,0-0.4,0-0.6c0-1.1,0-2.1,0-3.2
	c0-0.2,0.1-0.4,0.2-0.5c2.2-2.3,4.3-4.7,6.5-7l0.2-0.2l1.1,2.5c0.6-0.8,1.1-1.6,1.7-2.3c0.7-0.8,1.5-1.6,2.3-2.3
	c0.7-0.7,1.6-1.1,2.6-1c0.9,0,1.6,0.7,1.6,1.6c0,0.1,0,0.1,0,0.2c0,1.7-0.1,3.4-0.1,5.1c0,0.4-0.1,0.4-0.5,0.4
	c-0.8-0.1-1.6,0-2.4,0.1c-1.3,0.3-2.4,1.4-2.8,2.7c-0.6,1.7-0.9,3.4-0.8,5.2c0,4.4,0,8.8,0,13.2c0,2.9,0,5.8,0,8.6
	c0,0.2-0.1,0.4-0.3,0.5l-6.3,2.9L62.7,65.6z"/>
<path class="st1" d="M138.7,92.8l-3.3,2.1c-0.2-0.3-0.4-0.5-0.5-0.8c-0.9-1.4-2.8-1.9-4.2-1c-0.1,0.1-0.3,0.2-0.4,0.3
	c-0.7,0.6-1.1,1.5-1.4,2.4c-0.5,2-0.5,4,0.1,5.9c0.1,0.3,0.3,0.7,0.4,1c0.5,1.1,1.7,1.8,2.9,1.8c1.3,0,2.5-0.7,3-1.9
	c0.2-0.4,0.3-0.8,0.4-1.3c0.1-0.3,0-0.4-0.4-0.4c-1,0-2,0-3,0h-0.4v-3.9h7.6c0,0.7,0,1.3,0,1.8c0,2.2-0.5,4.4-1.6,6.4
	c-1.9,3.2-6.1,4.2-9.3,2.3c-0.3-0.2-0.6-0.4-0.9-0.6c-1.4-1.3-2.3-3-2.8-4.8c-0.9-3.2-0.7-6.5,0.7-9.5c0.7-1.7,2.1-3.1,3.8-3.8
	c2.9-1.3,6.3-0.2,8.1,2.5c0.3,0.4,0.6,0.9,0.8,1.3C138.7,92.7,138.7,92.7,138.7,92.8z"/>
<path class="st1" d="M111.5,107.9c0-0.4,0-0.8,0-1.1c0-4.6,0-9.1-0.1-13.7c0-1.1,0-2.2,0-3.3c0-0.3,0.1-0.4,0.3-0.4
	c2-0.1,4-0.3,6-0.3c1.7-0.1,3.2,1,3.7,2.6c0.8,2,0.8,4.2,0,6.2c-0.4,1-1.2,1.8-2.2,2.2l-0.3,0.1l3.9,7.6c-0.2,0-0.3,0-0.4,0
	c-1.2,0-2.4,0-3.6,0c-0.3,0-0.5-0.1-0.6-0.4c-1-2.2-1.9-4.3-2.9-6.5c0-0.1-0.1-0.2-0.2-0.2c0,0.2,0,0.4,0,0.7c0,2,0,4,0,6
	c0,0.3-0.1,0.5-0.4,0.5C113.6,107.9,112.6,107.9,111.5,107.9z M115.1,93.1c0,0.2,0,0.4,0,0.6c0,1.1,0,2.2,0,3.3s0.1,1.3,1.3,1
	c0.9,0,1.6-0.7,1.7-1.5c0.1-0.7,0.1-1.4-0.1-2.1c-0.1-0.8-0.7-1.3-1.5-1.3C116,93.1,115.6,93.1,115.1,93.1z"/>
<path class="st1" d="M99,90.9c0,1.4,0,2.7,0,4c0,2.1,0,4.2,0.1,6.3c0,0.6,0.1,1.2,0.3,1.8c0.2,0.9,0.9,1.5,1.8,1.5
	c1.2,0.1,2.1-0.3,2.4-1.3c0.3-0.9,0.4-1.9,0.4-2.8c0-3.2,0-6.3,0-9.5c0-0.6,0-0.6,0.6-0.7l3.2-0.4c0,0.6,0,1.1,0,1.6
	c0,3.2,0.1,6.5,0,9.7c0,1.2-0.2,2.3-0.4,3.4c-0.4,2-2,3.5-4,3.7c-1.4,0.3-2.9,0.2-4.4-0.2c-1.9-0.5-3.4-2.1-3.6-4.1
	c-0.2-1.7-0.3-3.3-0.3-5c-0.1-2.3,0-4.7-0.1-7c0-0.4,0.1-0.5,0.5-0.5C96.6,91.3,97.7,91.1,99,90.9z"/>
<path class="st1" d="M155.3,90.1c0.8,0.1,1.4,0.2,2.1,0.3c1.4,0.2,2.8,0.4,4.2,0.7c2.5,0.5,4.3,2.7,4.2,5.3c0,0.8-0.1,1.7-0.3,2.5
	c-0.3,1.1-1.2,2-2.4,2.2l-0.3,0.1c0,0,0,0-0.1,0.1l3.8,6.7c-1-0.1-2.1-0.1-3.1,0c-0.8,0.2-1.6-0.3-1.8-1.1c-0.7-1.8-1.6-3.5-2.4-5.2
	c-0.1-0.1-0.1-0.2-0.3-0.3v6.6h-3.6L155.3,90.1z M158.9,94.3c0,1.2,0,2.4,0,3.5s0,1,1,1.1c1,0.2,1.9-0.4,2.1-1.4c0-0.2,0-0.4,0-0.6
	c0-0.3,0-0.7-0.1-1c-0.2-0.4-0.4-0.8-0.8-1.1C160.4,94.4,159.7,94.2,158.9,94.3L158.9,94.3z"/>
<path class="st1" d="M146.7,103.8h4.9c0,0.4,0,0.7,0,1c0,0.9,0,1.8,0,2.7c0,0.4-0.1,0.5-0.5,0.5c-2.4,0-4.7,0-7.1,0h-1.1V89l8.7,0.7
	v4h-0.4c-1.3-0.1-2.7-0.2-4-0.3c-0.4,0-0.5,0.1-0.5,0.5c0,0.9,0,1.8,0,2.7l4.6,0.3v3.9l-4.6-0.1L146.7,103.8z"/>
<path class="st1" d="M89.1,99.7c0.3,0,0.6,0.1,0.8,0.1c1.1,0.3,1.9,1.1,2.1,2.2c0.4,1.4,0.2,3-0.6,4.3c-0.7,1-1.7,1.5-2.9,1.6
	c-2.4,0.2-4.9,0.2-7.4,0.3c0-0.3,0-0.4,0-0.6c0-4.2,0-8.5,0-12.7c0-0.4,0.1-0.6,0.5-0.7c2-0.4,3.9-0.8,5.9-1.2
	c0.7-0.1,1.3-0.1,2,0.1c1.3,0.3,2.2,1.6,2.1,2.9c0.2,1.5-0.7,3-2.1,3.6C89.3,99.6,89.2,99.7,89.1,99.7z M84.6,105.2
	c1-0.1,1.9-0.2,2.8-0.4c0.8-0.2,1.2-1,1-1.7c0-0.7-0.5-1.2-1.2-1.3c-0.1,0-0.1,0-0.2,0c-0.8,0-1.6,0.1-2.4,0.1L84.6,105.2z
	 M84.6,99.3c0.2,0,0.4,0,0.6-0.1c0.7-0.1,1.3-0.3,1.9-0.5c0.7-0.4,0.9-1.2,0.7-1.9c-0.2-0.6-0.5-0.8-1.3-0.8c-0.5,0-1.1,0.1-1.6,0.2
	c-0.1,0-0.2,0.1-0.3,0.3C84.6,97.5,84.6,98.3,84.6,99.3L84.6,99.3z"/>
<path class="st1" d="M170.4,103.2l1.4,1.2c0.6,0.6,1.5,0.9,2.4,0.9c0.8,0,1.5-0.6,1.5-1.5c0-0.6-0.3-1.1-0.8-1.4
	c-0.6-0.3-1.3-0.6-1.9-0.9c-0.8-0.4-1.5-0.8-2.1-1.3c-1.1-1-1.5-2.6-1.2-4c0.1-1.3,0.8-2.5,2-3.1c0.8-0.4,1.6-0.5,2.5-0.3
	c1.6,0.3,3.1,1,4.3,2c0.1,0.1,0.2,0.2,0.1,0.4c-0.3,0.8-0.7,1.5-1.1,2.3c-0.6-0.4-1.2-0.9-1.8-1.2c-0.4-0.2-0.8-0.3-1.2-0.3
	c-0.5-0.1-1,0.1-1.1,0.6c-0.2,0.5-0.1,1,0.3,1.4c0.3,0.3,0.7,0.5,1.1,0.7c0.8,0.4,1.6,0.7,2.4,1.1c1.6,0.8,2.5,2.7,2.2,4.5
	c-0.2,2.1-1.9,3.8-4,4.1c-2.2,0.5-4.5-0.2-6.1-1.9c-0.2-0.2-0.3-0.5-0.1-0.7c0,0,0,0,0,0C169.5,104.9,170,103.9,170.4,103.2z"/>
<path class="st1" d="M212.1,99.4l1.3,8.4c-0.7,0-1.3,0-1.9,0c-0.1,0-0.3-0.2-0.3-0.4c-0.2-1.5-0.4-3-0.6-4.5c0-0.1,0-0.1-0.1-0.3
	l-0.4,1.2c-0.4,1.2-0.7,2.4-1.1,3.6c0,0.3-0.3,0.4-0.5,0.4c0,0,0,0,0,0c-1.2,0-1.2,0-1.5-1.1c-0.4-1.3-0.8-2.6-1.2-4
	c-0.1,0.6-0.1,1.2-0.2,1.8c-0.1,0.9-0.3,1.9-0.4,2.8c0,0.3-0.2,0.4-0.5,0.4c-0.6,0-1.1,0-1.7,0l1.3-8.4c0.7,0,1.4,0,2.1,0
	c0.1,0,0.3,0.2,0.3,0.4c0.5,1.5,0.9,3,1.4,4.5l0.1,0.3l0.7-2.4c0.2-0.8,0.5-1.6,0.7-2.4c0.1-0.3,0.2-0.4,0.5-0.4
	C210.8,99.5,211.4,99.4,212.1,99.4z"/>
<path class="st1" d="M220,108c-2.5,0.1-4.5-1.9-4.6-4.4c0-0.3,0-0.6,0.1-0.9c0.4-1.8,1.9-3.2,3.8-3.4c2-0.3,4,0.7,4.9,2.5
	c1,2.2,0.1,4.8-2.1,5.8c-0.3,0.2-0.7,0.3-1.1,0.3C220.7,108,220.4,108,220,108z M217.8,103.6c-0.1,1.2,0.8,2.3,2,2.4
	c1.2,0.1,2.3-0.8,2.4-2c0,0,0,0,0,0c0.3-1.3-0.5-2.5-1.7-2.8c-0.2,0-0.4-0.1-0.6-0.1C218.7,101.3,217.7,102.4,217.8,103.6
	C217.8,103.6,217.8,103.6,217.8,103.6L217.8,103.6z"/>
<path class="st1" d="M229.5,104.7c0,0.1,0,0.3,0,0.4c0,0.8,0,1.5,0,2.3c0,0.3-0.1,0.4-0.4,0.4c-0.6,0-1.1,0-1.8,0v-8.3
	c0,0,0.1-0.1,0.1-0.1c1.3,0,2.6,0,3.9,0.1c1.4,0.1,2.4,1.2,2.4,2.6c0,0.3-0.1,0.6-0.2,0.9c-0.2,0.6-0.6,1-1.2,1.2l-0.6,0.2l2.3,3.3
	c-0.9,0-1.7,0-2.5,0c-0.1,0-0.3-0.2-0.3-0.3c-0.5-0.8-0.9-1.6-1.4-2.3l-0.3-0.4L229.5,104.7z M229.5,103.4c0.4,0,0.8,0,1.1-0.1
	c0.5-0.1,0.8-0.5,0.8-1c0-0.5-0.3-0.9-0.8-1c-0.3-0.1-0.6-0.1-0.8-0.1c-0.1,0-0.3,0.1-0.3,0.2C229.5,102,229.5,102.7,229.5,103.4
	L229.5,103.4z"/>
<path class="st1" d="M195.4,106.9c-1,0.9-2.4,1.3-3.7,1c-0.8-0.1-1.5-0.8-1.7-1.6c-0.3-0.9,0-1.8,0.7-2.3c0.3-0.3,0.7-0.5,1.1-0.8
	c-0.1-0.2-0.3-0.4-0.4-0.6c-0.6-0.8-0.4-2,0.5-2.6c0.2-0.1,0.3-0.2,0.5-0.3c0.8-0.3,1.6-0.3,2.4,0.1c1,0.4,1.4,1.5,1,2.5
	c-0.1,0.2-0.2,0.4-0.3,0.5c-0.3,0.3-0.6,0.6-0.9,0.9l1,1l1.1-1.1l1.2,1.3l-1.2,1v0.2c0.3,0.3,0.6,0.5,0.9,0.8s0.6,0.6,0.9,0.9v0.1
	h-1.1C196.7,107.8,195.8,107.9,195.4,106.9z M194.2,105.8l-1.4-1.5c-0.4,0.4-0.9,0.8-0.7,1.4c0.1,0.3,0.4,0.5,0.6,0.6
	C193.3,106.5,193.7,106.2,194.2,105.8L194.2,105.8z M193.5,102.6l0.2,0.1c0.2-0.3,0.4-0.5,0.6-0.8c0.3-0.3,0.3-0.7,0-0.9
	c-0.3-0.2-0.7-0.3-1-0.1c-0.3,0.2-0.4,0.6-0.2,0.9C193.2,102.1,193.4,102.4,193.5,102.6L193.5,102.6z"/>
<path class="st1" d="M40.3,100.7l-2.4,3.1c-0.5,0.6-0.5,0.6,0,1.1l2.7,3.3c-0.6,0-1.1,0-1.7,0c-0.7,0.1-1.3-0.2-1.6-0.8
	c-0.5-0.8-1.1-1.4-1.6-2.1c-0.1-0.1-0.2-0.2-0.3-0.4v3.3h-2.1v-7.5h2.1v3.2h0.1c0.1-0.1,0.2-0.2,0.3-0.4c0.6-0.9,1.2-1.8,1.9-2.6
	c0.1-0.2,0.3-0.3,0.6-0.3C38.8,100.7,39.5,100.7,40.3,100.7z"/>
<path class="st1" d="M11,105.5v2.7H9v-7.6c1.4,0.1,2.7,0,4.1,0.2c1,0.2,1.7,1,1.7,2c0.1,1-0.4,1.9-1.4,2.2l-0.3,0.1l2.1,3
	c-0.8,0-1.5,0-2.3,0c-0.1,0-0.2-0.1-0.3-0.3c-0.4-0.7-0.9-1.4-1.3-2.1l-0.3-0.4L11,105.5z M11,104.2c0.6,0.2,1.2,0,1.6-0.4
	c0.2-0.4,0.2-0.8,0-1.2c-0.4-0.5-1-0.4-1.5-0.4L11,104.2z"/>
<path class="st1" d="M25.5,108.3h-2.1l1.1-3.3c0.5-1.3,1-2.6,1.4-4c0.1-0.2,0.2-0.3,0.4-0.3c0.7,0,1.4,0,2.1,0
	c0.2,0,0.3,0.1,0.4,0.3c0.8,2.3,1.7,4.7,2.5,7c0,0.1,0,0.2,0,0.3c-0.7,0-1.3,0-1.9,0c-0.1,0-0.2-0.1-0.3-0.2s0-0.1,0-0.1
	c-0.1-0.3-0.2-0.8-0.4-1s-0.7-0.1-1-0.1c-0.5,0-1,0-1.6,0c-0.2,0-0.4,0.1-0.4,0.3c0,0,0,0,0,0C25.7,107.6,25.6,107.9,25.5,108.3z
	 M26.4,105.4h2.1l-1-3.4L26.4,105.4z"/>
<path class="st1" d="M48.1,108.3l0.7-2c0.6-1.8,1.3-3.5,1.9-5.2c0-0.2,0.3-0.4,0.5-0.4c0.7,0,1.3,0,2,0c0.2,0,0.3,0.1,0.4,0.3
	c0.8,2.3,1.7,4.7,2.5,7c0,0.1,0,0.2,0,0.3c-0.6,0-1.2,0-1.8,0c-0.1,0-0.2-0.1-0.3-0.2s0-0.1,0-0.1c-0.3-1.1-0.3-1.1-1.5-1.1
	c-0.5,0-1,0-1.5,0c-0.2,0-0.4,0.1-0.4,0.3c0,0,0,0,0,0c-0.1,0.4-0.2,0.8-0.4,1s-0.7,0.1-1.1,0.1L48.1,108.3z M53.2,105.4l-1-3.4
	l-1,3.4H53.2z"/>
<path class="st1" d="M17.1,100.7h4.8c0,0.5,0,0.9,0,1.4c0,0.1-0.2,0.2-0.4,0.2c-0.6,0-1.2,0-1.8,0h-0.5v1.3h2.5v1.7h-2.5v1.3h2.6
	v1.7h-4.7V100.7z"/>
<path class="st1" d="M62.7,101.2l-0.6,1.4c-0.5-0.2-0.9-0.3-1.4-0.5c-0.2,0-0.5,0-0.7,0.1c-0.3,0.1-0.4,0.5-0.3,0.7
	c0.1,0.1,0.2,0.2,0.3,0.3c0.2,0.1,0.4,0.2,0.7,0.3c0.3,0.1,0.6,0.1,0.8,0.3c1.2,0.3,1.9,1.6,1.6,2.7c-0.1,0.2-0.2,0.5-0.3,0.7
	c-0.2,0.4-0.6,0.8-1,1c-1.5,0.7-3.2,0.4-4.4-0.8l0.9-1.4c0.6,0.3,1.1,0.6,1.7,0.9c0.5,0.2,1-0.1,1.2-0.6c0.1-0.4-0.1-0.8-0.4-0.9
	c-0.4-0.2-0.8-0.3-1.2-0.4c-1.3-0.4-1.8-1-1.7-2.3c0.1-1.1,0.9-2,2-2.1C60.8,100.4,61.8,100.6,62.7,101.2z"/>
<path class="st1" d="M42.2,100.7H47c0,0.5,0,1,0,1.4c0,0.1-0.2,0.2-0.4,0.2c-0.7,0-1.3,0-2,0c-0.3,0-0.4,0.1-0.4,0.4s0,0.6,0,0.9
	h2.5v1.6h-2.5v3h-2.1V100.7z"/>
<path class="st1" d="M68.6,108.2h-2.1c0-0.1,0-0.3,0-0.5c0-1.6,0-3.2,0-4.8c0-0.4-0.1-0.6-0.5-0.5c-0.3,0-0.6,0-0.9,0
	c-0.1,0-0.3-0.1-0.3-0.2c0-0.5,0-1,0-1.5h5.7c0,0.5,0,1,0,1.5c0,0.1-0.2,0.2-0.3,0.3c-0.3,0-0.7,0-1,0c-0.3,0-0.4,0.1-0.4,0.4
	c0,1.6,0,3.2,0,4.9C68.6,107.9,68.6,108.1,68.6,108.2z"/>
<path class="st0" d="M155,30.7c1.5,0.5,2.7,1.5,3.5,2.9c0.9,1.6,1.5,3.4,1.7,5.3c0.5,3,0.5,6.1,0,9.1c-0.1,0.8-0.4,1.6-0.7,2.3
	c-1,2.2-2.9,2-4.4,1c-0.1-0.1-0.2-0.3-0.2-0.5c0-1.8,0-3.6,0-5.4c0-4.7,0-9.4,0-14.1L155,30.7z"/>
<path class="st0" d="M154.9,9c1.9,0.5,3.4,1.9,4.1,3.8c0.8,2.4,1.1,4.9,0.8,7.4c-0.1,1.2-0.3,2.3-0.5,3.4c-0.1,0.5-0.4,1-0.7,1.4
	c-1.1,1.2-2.3,0.9-3.5,0.1c-0.1-0.1-0.1-0.3-0.1-0.5c0-2.7,0-5.4,0-8.1c0-2.3,0-4.6,0-6.9L154.9,9z"/>
<path class="st0" d="M2.5,106.8c0-0.6,0-1,0-1.5c0-0.1,0.1-0.2,0.2-0.2c0.4,0,0.9,0,1.3,0.1c0.4,0.1,0.7,0.5,0.6,0.9
	c-0.1,0.3-0.3,0.5-0.6,0.6C3.6,106.7,3.1,106.7,2.5,106.8z"/>
<path class="st0" d="M2.5,102.2c0.4,0,0.9,0.1,1.3,0.1s0.5,0.3,0.5,0.7c0,0.3-0.2,0.6-0.5,0.7H3.7C2.6,103.9,2.3,103.7,2.5,102.2z"
	/>
<path class="st0" d="M50.1,52.8c0,3.1,0,6.3,0,9.4c0,0.9-0.2,1.7-0.4,2.6c-0.1,0.5-0.4,0.9-0.7,1.2c-0.5,0.7-1.6,0.9-2.3,0.3
	c-0.2-0.2-0.4-0.4-0.5-0.7c-0.5-1-0.8-2.1-0.8-3.2c-0.1-2.2-0.1-4.4,0-6.6c0.1-3,0.5-5.9,1.1-8.8c0.2-1.2,0.7-2.4,1.4-3.5
	c0.3-0.4,0.6-0.8,1-1.1c0.3-0.2,0.6-0.3,1-0.3c0.4-0.1,0.6,0.1,0.6,0.6C50.2,46,50.1,49.4,50.1,52.8L50.1,52.8z"/>
<path class="st0" d="M178.7,49.1c0.1-3.2,0.1-6.3,0.3-9.5c0.1-0.8,0.2-1.7,0.4-2.5c0-0.5,0.4-0.9,0.9-1c0.5-0.1,1.1,0.1,1.4,0.5
	c0.6,0.8,1,1.7,1,2.7c0.1,2.3,0.3,4.6,0.3,6.9c0.1,4.5,0.1,9,0,13.5c-0.1,1.1-0.2,2.2-0.5,3.2c-0.1,0.5-0.3,1-0.9,1
	c-0.5,0-1-0.3-1.3-0.8c-0.7-1.1-1.1-2.4-1.2-3.8c-0.1-1.8-0.2-3.5-0.2-5.3s0-3.4,0-5.1L178.7,49.1z"/>
<path class="st0" d="M116,31c0-0.7,0-1.4,0-2.1c-0.1-2,0.1-4.1,0.4-6.1c0.1-0.7,0.3-1.3,0.6-1.9c0.2-0.3,0.6-0.6,0.9-0.7
	c0.4-0.2,1,0,1.2,0.4c0,0,0,0,0,0c0.6,1,0.9,2,1,3.2c0.1,1.2,0.1,2.4,0,3.6c-0.1,1.2-0.8,2.2-1.9,2.7c-0.7,0.4-1.3,0.7-2,1L116,31z"
	/>
<path class="st0" d="M115,93.1c0.5,0,1,0,1.5,0c0.8,0,1.4,0.5,1.5,1.3c0.1,0.7,0.1,1.4,0.1,2.1c-0.1,0.8-0.9,1.5-1.7,1.5
	c-1.2,0.2-1.3,0.2-1.3-1s0-2.2,0-3.3C115,93.5,115,93.3,115,93.1z"/>
<path class="st0" d="M158.9,94.3c0.8-0.1,1.6,0.1,2.2,0.5c0.3,0.3,0.6,0.7,0.8,1.1c0.1,0.3,0.2,0.7,0.1,1c0.1,1-0.5,1.9-1.5,2
	c-0.2,0-0.4,0-0.6,0c-1,0-1,0-1-1.1S158.9,95.5,158.9,94.3z"/>
<path class="st0" d="M84.7,105.2v-3.3c0.8,0,1.6-0.1,2.4-0.1c0.7-0.1,1.3,0.4,1.4,1c0,0.1,0,0.1,0,0.2c0.2,0.8-0.2,1.5-1,1.7
	C86.5,105,85.6,105,84.7,105.2z"/>
<path class="st0" d="M84.6,99.3c0-0.9,0-1.8,0-2.7c0-0.1,0.1-0.2,0.3-0.3c0.5-0.1,1.1-0.2,1.6-0.2c0.8,0,1.2,0.2,1.3,0.8
	c0.3,0.7,0,1.5-0.7,1.9c-0.6,0.2-1.3,0.4-1.9,0.5C85,99.3,84.8,99.3,84.6,99.3z"/>
<path class="st0" d="M217.8,103.6c-0.1-1.3,0.9-2.3,2.1-2.4c0,0,0,0,0,0c1.3,0,2.4,1,2.4,2.3c0,0.2,0,0.4-0.1,0.6
	c-0.1,1.2-1.2,2.1-2.4,2c0,0,0,0,0,0C218.6,106,217.7,104.9,217.8,103.6z"/>
<path class="st0" d="M229.5,103.4c0-0.7,0-1.4,0-2c0-0.1,0.2-0.2,0.3-0.2c0.3,0,0.6,0,0.8,0.1c0.5,0.1,0.8,0.5,0.8,1
	c0.1,0.5-0.3,0.9-0.8,1C230.2,103.4,229.9,103.4,229.5,103.4z"/>
<path class="st0" d="M194.2,105.8c-0.4,0.4-0.9,0.7-1.5,0.6c-0.3-0.1-0.5-0.3-0.6-0.6c-0.2-0.6,0.3-1,0.7-1.4L194.2,105.8z"/>
<path class="st0" d="M193.5,102.6c-0.2-0.2-0.4-0.5-0.5-0.8c-0.2-0.3-0.1-0.7,0.2-0.9c0.3-0.2,0.7-0.2,1,0.1c0.3,0.3,0.3,0.7,0,0.9
	c-0.2,0.3-0.4,0.5-0.6,0.8L193.5,102.6z"/>
<path class="st0" d="M11,104.2v-1.9c0.6,0,1.1-0.1,1.5,0.4c0.2,0.4,0.2,0.8,0,1.2C12.1,104.2,11.5,104.4,11,104.2z"/>
<path class="st0" d="M26.4,105.4l1-3.4l1,3.4H26.4z"/>
<path class="st0" d="M53.2,105.4h-2.1l1-3.4L53.2,105.4z"/>
<path class="st1" d="M231.4,89.8c1.5,0,2.6-1.2,2.6-2.6c0-1.5-1.2-2.6-2.6-2.6c-1.5,0-2.6,1.2-2.6,2.6
	C228.7,88.6,229.9,89.8,231.4,89.8C231.4,89.8,231.4,89.8,231.4,89.8z M231.4,89.4c-1.2,0-2.2-1-2.2-2.2s1-2.2,2.2-2.2
	s2.2,1,2.2,2.2v0C233.6,88.4,232.6,89.4,231.4,89.4z"/>
<path class="st1" d="M230.8,87.4h0.5l0.8,1.3h0.5l-0.9-1.3c0.4,0,0.8-0.3,0.8-0.8c0,0,0,0,0,0c0-0.6-0.4-0.9-1.1-0.9h-1.1v3h0.4
	L230.8,87.4L230.8,87.4z M230.8,87v-0.9h0.6c0.3,0,0.6,0.1,0.6,0.4s-0.3,0.5-0.7,0.5L230.8,87z"/>
</svg>
