<svg id="Layer_1" data-name="Layer 1" xmlns="http://www.w3.org/2000/svg" xmlns:xlink="http://www.w3.org/1999/xlink" viewBox="0 0 250 250"><defs><style>.cls-1{fill:none;}.cls-2{fill:#f9e8a0;}.cls-3{fill:red;}.cls-4{fill:#414042;}.cls-5{clip-path:url(#clip-path);}</style><clipPath id="clip-path"><polygon class="cls-1" points="210.21 152 173.16 154.02 118.6 56.35 118.6 37.49 210.21 37.49 210.21 152"/></clipPath></defs><title>Fast Casual Pizza</title><path class="cls-2" d="M50.57,175.57l53.21-99.69,10.1-2,54.56,101s13.47,1.35,16.17,8.76-.67,13.47-8.08,15.49c-7.41,2.69-33.68,8.08-39.74,8.76s-35,5.39-68-2c-13.47-3.37-26.27-4.71-26.94-18.19C42.49,188.37,41.14,182.31,50.57,175.57Z"/><circle class="cls-3" cx="113.21" cy="118.32" r="8.76"/><circle class="cls-3" cx="101.09" cy="158.06" r="8.76"/><circle class="cls-3" cx="140.83" cy="163.45" r="8.76"/><path class="cls-4" d="M141.5,210.6a191.1,191.1,0,0,0,35.7-8.08,15.93,15.93,0,0,0,9.43-8.08,12.88,12.88,0,0,0,0-12.12c-2.69-6.74-10.1-10.78-16.84-8.76L115.91,71.17l-13.47,3.37L48.55,174.9a17.14,17.14,0,0,0-8.08,7.41c0,2-.67,4-.67,6.06a19.67,19.67,0,0,0,1.35,6.06c1.35,4,4.71,6.74,8.76,8.08a175.91,175.91,0,0,0,42.43,8.76C107.82,213.29,124.66,212.62,141.5,210.6ZM60,174.22a14.83,14.83,0,0,0-5.39-.67L105.8,77.9l7.41-2L60,174.22Zm4.71,2,50.52-95,49.84,93.63a194.7,194.7,0,0,1-29,6.06C118.6,183,91.66,184.33,64.72,176.25ZM93,207.9c-14.14-1.35-28.29-4-41.09-8.76a9.11,9.11,0,0,1-6.06-6.06,10,10,0,0,1,0-8.76c2-5.39,8.08-7.41,13.47-5.39,29,10.1,58.6,9.43,78.81,6.06a189.33,189.33,0,0,0,26.94-5.39,15,15,0,0,1,8.76,10.1l4-.67a20.8,20.8,0,0,0-7.41-10.78h0a11,11,0,0,1,12.8,6.06,8.54,8.54,0,0,1,.67,4,12.49,12.49,0,0,1-1.35,4.71,9.26,9.26,0,0,1-6.74,5.39c-8.08,2.69-20.21,5.39-35,8.08C124,208.58,107.82,209.25,93,207.9Z"/><path class="cls-4" d="M55.29,189l-2,4c.67.67,2.69,1.35,4.71,2l1.35-4Q56.3,189,55.29,189Z"/><path class="cls-4" d="M114.56,198.47c-20.88.67-38.39-2.69-49.17-6.06l-1.35,4a146.8,146.8,0,0,0,51.19,6.06Z"/><path class="cls-4" d="M129.38,163.45A11.45,11.45,0,1,0,140.83,152C134.77,151.32,129.38,156.71,129.38,163.45Zm18.86,0a7.41,7.41,0,1,1-7.41-7.41A7.47,7.47,0,0,1,148.24,163.45Z"/><path class="cls-4" d="M124.66,118.32a11.45,11.45,0,1,0-11.45,11.45C119.27,130.44,124.66,125.05,124.66,118.32Zm-18.86,0a7.41,7.41,0,1,1,7.41,7.41A7.47,7.47,0,0,1,105.8,118.32Z"/><path class="cls-4" d="M112.54,157.39a11.45,11.45,0,1,0-11.45,11.45A11.35,11.35,0,0,0,112.54,157.39Zm-18.86,0a7.41,7.41,0,1,1,7.41,7.41A7.47,7.47,0,0,1,93.68,157.39Z"/><polygon class="cls-4" points="134.09 140.55 134.09 143.24 134.09 145.26 140.83 145.26 140.83 140.55 134.09 140.55"/><rect class="cls-4" x="114.56" y="96.09" width="6.74" height="4.71"/><rect class="cls-4" x="119.27" y="149.3" width="6.74" height="4.71"/><polygon class="cls-4" points="117.93 137.85 124.66 137.85 124.66 133.14 117.93 133.14 117.93 135.83 117.93 137.85"/><polygon class="cls-4" points="120.62 167.49 113.89 167.49 113.89 169.51 113.89 171.53 120.62 171.53 120.62 169.51 120.62 167.49"/><polygon class="cls-4" points="83.58 167.49 76.84 167.49 76.84 171.53 83.58 171.53 83.58 169.51 83.58 167.49"/><polygon class="cls-4" points="99.74 173.55 99.74 176.25 99.74 178.27 106.48 178.27 106.48 173.55 99.74 173.55"/><polygon class="cls-4" points="94.35 134.48 94.35 136.5 94.35 139.2 101.09 139.2 101.09 134.48 94.35 134.48"/><g class="cls-5"><path class="cls-2" d="M163.06,48.94a46.44,46.44,0,0,0-21.55,5.39h6.06a6.75,6.75,0,0,1,6.74,6.74,7.07,7.07,0,0,1-3.37,6.06c.67,0,.67.67,1.35.67a7.28,7.28,0,0,1,2,4.71,7.07,7.07,0,0,1-3.37,6.06,7.14,7.14,0,0,1,0,12.12,7.14,7.14,0,0,1,0,12.12c.67,0,.67.67,1.35,1.35a7.28,7.28,0,0,1,2,4.71,7.07,7.07,0,0,1-3.37,6.06A7.07,7.07,0,0,1,154.3,121a6.75,6.75,0,0,1-6.74,6.74h-9.43a44.2,44.2,0,0,0,68.7-36.37C206.84,67.13,187.3,48.94,163.06,48.94Z"/><polygon class="cls-3" points="172.49 39.51 153.63 39.51 153.63 43.55 159.01 43.55 159.01 48.94 166.42 48.94 166.42 43.55 172.49 43.55 172.49 39.51"/><rect class="cls-3" x="199.11" y="50.95" width="6.74" height="5.39" transform="translate(21.37 158.88) rotate(-45)"/><path class="cls-3" d="M160.36,96.09a4.13,4.13,0,0,1,1.35-4c2-2,19.53-14.14,19.53-14.14l-15.49,22.23S161,100.81,160.36,96.09Z"/><path class="cls-4" d="M164.4,102.15c2,0,3.37-1.35,4.71-2.69l16.17-22.23a2,2,0,0,0,0-2.69,1.26,1.26,0,0,0-2,0L161,90.7c-2.69,2-3.37,5.39-1.35,8.76a4.85,4.85,0,0,0,4.71,2.69ZM161,95.42c0-.67.67-1.35,1.35-2l13.47-10.1-9.43,13.47a2.35,2.35,0,0,1-3.37.67,1.79,1.79,0,0,1-2-2Z"/><path class="cls-4" d="M202.8,70.5h0l-6.06-8.08L200.1,59l2.69,2.69,7.41-7.41-7.41-7.41-7.41,7.41L198.08,57l-3.37,3.37-8.08-6.06h0a48.35,48.35,0,0,0-18.19-6.06v-2h2.69a4.35,4.35,0,0,0,4-4,5.06,5.06,0,0,0-4.71-4.71H155a4.35,4.35,0,0,0-4,4,4.35,4.35,0,0,0,4,4h2.69v2c-2,0-3.37.67-5.39.67-.67,0-1.35,1.35-1.35,2s1.35,1.35,2,1.35a11.46,11.46,0,0,1,4.71-.67H161v3.37a2,2,0,1,0,4,0V51c6.06,0,12.12,2,17.51,4.71l-2,2.69a1.29,1.29,0,0,0,.67,2h.67c.67,0,1.35,0,1.35-.67L184.61,57A42.87,42.87,0,0,1,198.08,70.5l-2.69,1.35a2,2,0,0,0,0,2.69c0,.67.67.67,1.35.67h.67l2.69-2a40.46,40.46,0,0,1,4.71,18.19h-3.37a2,2,0,0,0,0,4h3.37c0,6.06-2,12.8-4.71,18.19l-2.69-2a1.51,1.51,0,0,0-1.35,2.69h0l2.69,1.35a42.87,42.87,0,0,1-13.47,13.47l-1.35-2.69a1.67,1.67,0,0,0-2.69-.67c-.67.67-1.35,1.35-.67,2l2,2.69c-5.39,2.69-11.45,4.71-17.51,4.71v-3.37a2,2,0,1,0-4,0h0v3.37a33.81,33.81,0,0,1-8.08-1.35c-.67,0-2,.67-2,1.35s.67,2,1.35,2a52,52,0,0,0,10.1,1.35h0a42.39,42.39,0,0,0,22.23-6.06h0c6.74-4,12.8-9.43,16.84-16.84h0c8.76-13.47,8.76-31,1.35-45.13Zm0-18.86,2.69,2.69L202.8,57l-2.69-2.69Zm-41.09-4V42.21h-6.06a.67.67,0,1,1,0-1.35h15.49a.67.67,0,1,1,0,1.35h-6.06v5.39ZM147.56,61.07h-8.76a2,2,0,1,0,0,4h8.76a2.15,2.15,0,0,0,2-2A1.79,1.79,0,0,0,147.56,61.07Zm0,12.12H130.73a2,2,0,0,0,0,4h16.84a2.15,2.15,0,0,0,2-2,1.79,1.79,0,0,0-2-2Zm0,11.45H122c-.67,0-1.35,1.35-1.35,2a2.15,2.15,0,0,0,2,2h24.92a2.15,2.15,0,0,0,2-2A1.79,1.79,0,0,0,147.56,84.64Zm0,12.12H115.23a2,2,0,0,0,0,4h32.33a2.15,2.15,0,0,0,2-2A1.79,1.79,0,0,0,147.56,96.76Zm0,12.12H125.34a2,2,0,1,0,0,4h22.23a2.15,2.15,0,0,0,2-2,1.79,1.79,0,0,0-2-2Zm0,12.12H135.44a2,2,0,0,0,0,4h12.12a2.15,2.15,0,0,0,2-2A1.79,1.79,0,0,0,147.56,121Z"/></g></svg>