<svg id="Layer_1" data-name="Layer 1" xmlns="http://www.w3.org/2000/svg" xmlns:xlink="http://www.w3.org/1999/xlink" viewBox="0 0 250 250"><defs><style>.cls-1{fill:none;}.cls-2{fill:red;}.cls-3{fill:#f8e79f;}.cls-4{fill:#414042;}.cls-5{clip-path:url(#clip-path);}.cls-6{fill:#f9e8a0;}</style><clipPath id="clip-path"><path class="cls-1" d="M212.13,37.5H125V84.76h11.81v8.86h13.29v13.29c5.17.74,5.17,6.65,5.17,6.65,2.22,29.54-3.69,42.09-3.69,44.3h60.55Z"/></clipPath></defs><title>Fast Casual</title><path class="cls-2" d="M124.26,202.9c-7.38-1.48-22.15-4.43-32.49-4.43-12.55,0-28.8,3-35.44,4.43l-2.22.74.74,1.48c1.48,2.22,4.43,4.43,6.65,4.43h59.07a7.75,7.75,0,0,0,6.65-3.69l.74-1.48-1.48-.74A2.71,2.71,0,0,1,124.26,202.9Z"/><path class="cls-3" d="M81.43,132l1.48.74V87H72.57v41.35l.74.74C75.53,130.54,78.48,131.28,81.43,132Z"/><path class="cls-3" d="M65.93,122.42l1.48-.74-1.48.74,1.48,1.48,2.22,2.22V98H59.28v19.2H60C62.24,118.72,64.45,120.2,65.93,122.42Z"/><path class="cls-3" d="M54.85,116.51h1.48V105.43H46v10.34h8.12Z"/><path class="cls-3" d="M88.82,134.23h6.65l1.48-.74V73.68H85.86v59.81h1.48C88.08,134.23,88.08,134.23,88.82,134.23Z"/><path class="cls-3" d="M128,116.51h8.12V105.43H125.74v10.34h1.48Z"/><path class="cls-3" d="M109.49,128.32h0L110.23,87H99.16v45l1.48-.74A14.19,14.19,0,0,0,109.49,128.32Z"/><path class="cls-3" d="M116.14,122.42h0a11.78,11.78,0,0,1,6.65-5.17h.74V98H113.19v28.06l2.22-2.22A2.29,2.29,0,0,1,116.14,122.42Z"/><path class="cls-2" d="M137.55,119.46h-8.86a8,8,0,0,0-3.69.74,9.39,9.39,0,0,0-6.65,5.17c-1.48,1.48-3,3.69-5.17,5.17l-1.48-.74.74,1.48-.74-.74c-3.69,2.22-7.38,4.43-11.81,5.17l-2.22.74c-1.48,0-2.22.74-3.69.74H87.34c-.74,0-2.22,0-3-.74l-2.22-.74a57.16,57.16,0,0,1-11.81-5.17l-1.48-.74c-1.48-2.22-3-3.69-4.43-5.91a10.75,10.75,0,0,0-6.65-4.43h0a8,8,0,0,0-3.69-.74H45.25c-3,.74-4.43,4.43-4.43,6.65V132l2.22-.74a6.66,6.66,0,0,1,3.69-.74h7.38c5.17,0,9.6,2.22,11.81,5.91,5.17,7.38,17,11.81,25.11,11.81s19.94-5.17,25.11-11.81A15.41,15.41,0,0,1,128,130.54h7.38a6.66,6.66,0,0,1,3.69.74l2.22.74v-5.91C141.24,122.42,139.77,120.2,137.55,119.46Z"/><path class="cls-3" d="M136.08,133.49h-7.38a12.62,12.62,0,0,0-9.6,5.17C113.19,146.78,100.63,152,91.77,152s-21.41-5.17-27.32-13.29a12.89,12.89,0,0,0-10.34-5.17H46.73c-3,0-4.43,1.48-5.17,4.43h0v.74c.74,7.38.74,14.77,2.22,21.41v2.22c0,1.48.74,3,.74,4.43l.74,4.43c0,1.48.74,3.69.74,5.17s.74,3,.74,4.43.74,3,.74,3.69c.74,3,1.48,5.17,2.22,8.12,0,.74.74,1.48.74,2.22,1.48,2.22,1.48,3.69,2.22,5.17l.74,1.48h1.48c3.69-.74,17.72-3.69,30.27-4.43H98.42A150.77,150.77,0,0,1,125,201.42l4.43.74.74-1.48c.74-2.22,1.48-3.69,2.22-5.91l.74-1.48c.74-3,1.48-5.17,2.22-8.12,0-1.48.74-2.22.74-3.69v-.74c0-1.48.74-3,.74-3.69a12.57,12.57,0,0,0,.74-5.17l.74-3c0-2.22.74-3.69.74-5.91v-1.48c1.48-7.38,1.48-14.77,2.22-22.89h0C140.51,135,138.29,133.49,136.08,133.49Z"/><path class="cls-4" d="M62.24,212.5a11.11,11.11,0,0,1-10.34-7.38v-.74l-.74-1.48c-.74-3-2.22-5.91-3-8.86l-.74-3.69c-.74-1.48-.74-3.69-1.48-5.17l-.74-4.43a9.37,9.37,0,0,1-.74-4.43,12.57,12.57,0,0,1-.74-5.17l-.74-3c0-2.22-.74-3.69-.74-5.91v-1.48c-3.69-11.08-4.43-22.89-4.43-34.7,0-4.43,1.48-8.12,5.17-9.6h.74v-14H57.07V94.36H70.36V84H83.65V70.73h17V84h13.29V94.36h12.55v8.12h13.29v13.29a12.62,12.62,0,0,1,5.17,9.6,199.37,199.37,0,0,1-3,36.18V163c0,2.22-.74,3.69-.74,5.91l-.74,3a13.69,13.69,0,0,1-1.48,5.17c0,1.48-.74,3-.74,3.69a10.5,10.5,0,0,1-1.48,4.43c0,1.48-2.22,8.86-2.22,8.86a41.63,41.63,0,0,1-3,8.86v.74a11.76,11.76,0,0,1-11.08,8.86Zm29.54-13.29c-12.55,0-28.8,3-35.44,4.43h-.74l.74.74a6.19,6.19,0,0,0,5.91,4.43h59.07a7.75,7.75,0,0,0,6.65-3.69l.74-.74-3.69-.74C116.88,202.16,102.11,199.21,91.77,199.21Zm0-3.69c11.08,0,26.58,3,34,4.43l3.69.74v-.74c.74-2.22,1.48-3.69,2.22-5.91l.74-1.48c.74-3,1.48-5.17,2.22-8.12l.74-3.69a9.37,9.37,0,0,0,.74-4.43c.74-1.48,1.48-6.65,1.48-6.65V168.2a16.26,16.26,0,0,0,.74-5.91v-1.48a126.19,126.19,0,0,0,2.22-22.89,4.91,4.91,0,0,0-5.17-4.43H128a10.76,10.76,0,0,0-9.6,5.17C112.45,146.78,99.16,152,91,152c-8.86,0-21.41-5.17-27.32-13.29-2.22-3-5.17-5.17-9.6-5.17H46.73c-2.22,0-3.69,1.48-5.17,4.43.74,8.12.74,15.51,2.22,22.15v2.22a47.07,47.07,0,0,0,1.48,6.65l.74,2.22c0,1.48.74,3,.74,5.17,0,1.48.74,3,.74,4.43s.74,3,.74,3.69c.74,3,1.48,5.17,2.22,8.12l2.22,8.12h.74C60,199.21,77.74,195.52,91.77,195.52ZM54.11,129.8a14.51,14.51,0,0,1,12.55,6.65c5.17,6.65,17,11.81,25.11,11.81s19.2-4.43,24.37-11.81c3-3.69,7.38-6.65,12.55-6.65h7.38c1.48,0,3,0,3.69.74l.74.74v-5.17c0-3-.74-5.91-3.69-6.65H128c-.74,0-2.22,0-3,.74-2.22.74-5.17,2.22-6.65,4.43a17.25,17.25,0,0,1-5.17,5.17l-1.48.74a58.87,58.87,0,0,1-11.81,5.91H97.68c-1.48,0-2.22.74-3.69.74H87.34c-1.48,0-2.22-.74-3.69-.74l-2.22-.74h0a57.16,57.16,0,0,1-11.81-5.17l-1.48-.74c-.74-1.48-3-3.69-3.69-5.17a10.75,10.75,0,0,0-6.65-4.43c-1.48,0-2.22-.74-3.69-.74H45.25c-3,.74-3.69,3.69-3.69,5.91v5.91l.74-.74A8,8,0,0,1,46,129.8Zm32.49,3H96.94V74.42H86.6Zm-13.29-5.17h0a41.63,41.63,0,0,0,8.86,3h.74V87.71h-9.6Zm26.58,3.69h.74c3-.74,5.91-1.48,8.12-3V87.71H99.89ZM60,116.51h0c3,1.48,5.17,3,6.65,5.17.74.74.74,1.48,1.48,1.48l1.48,1.48V98H60Zm53.16,8.12,1.48-1.48c.74-.74.74-.74.74-1.48a11.78,11.78,0,0,1,6.65-5.17h.74V98h-9.6ZM46.73,115h9.6v-8.86h-9.6Zm79.75.74h8.86v-9.6h-8.86Z"/><path class="cls-4" d="M91.77,197a22.89,22.89,0,1,1,22.89-22.89A22.54,22.54,0,0,1,91.77,197Zm0-40.61A18,18,0,0,0,74.05,174.1c0,10.34,8.12,18.46,17.72,18.46a18,18,0,0,0,17.72-17.72C109.49,164.5,101.37,156.38,91.77,156.38Z"/><path class="cls-4" d="M91.77,185.18A2,2,0,0,1,89.56,183v-5.91H83.65a2.22,2.22,0,1,1,0-4.43h5.91v-5.91a2.22,2.22,0,0,1,4.43,0v5.91h5.91a2.22,2.22,0,1,1,0,4.43H94V183A2,2,0,0,1,91.77,185.18Z"/><g class="cls-5"><path class="cls-6" d="M163.4,49.31a45.11,45.11,0,0,0-22.15,5.91h6.65a7.4,7.4,0,0,1,7.38,7.38c0,3-1.48,5.17-3.69,5.91.74,0,.74.74,1.48.74a6.7,6.7,0,0,1,2.22,5.17,7.75,7.75,0,0,1-3.69,6.65,7.75,7.75,0,0,1,3.69,6.65c0,3-1.48,5.17-3.69,5.91a7.53,7.53,0,0,1,3.69,5.91c0,3-1.48,5.17-3.69,5.91.74,0,.74.74,1.48.74a6.7,6.7,0,0,1,2.22,5.17,7.75,7.75,0,0,1-3.69,6.65,7.75,7.75,0,0,1,3.69,6.65,7.4,7.4,0,0,1-7.38,7.38h-9.6a44.76,44.76,0,0,0,25.84,8.12,46,46,0,0,0,45.78-45.78C209.92,69.25,188.5,49.31,163.4,49.31Z"/><polygon class="cls-2" points="173 39.72 153.8 39.72 153.8 43.41 159.71 43.41 159.71 49.31 167.09 49.31 167.09 43.41 173 43.41 173 39.72"/><rect class="cls-2" x="201.02" y="51.71" width="6.65" height="5.91" transform="translate(21.19 160.5) rotate(-45)"/><path class="cls-2" d="M160.44,98s-.74-1.48,1.48-3.69,20.68-14.77,20.68-14.77l-15.51,22.89A6.05,6.05,0,0,1,160.44,98Z"/><path class="cls-4" d="M164.87,104c1.48,0,3.69-.74,4.43-2.22l16.24-22.89a1.57,1.57,0,0,0-2.22-2.22L160.44,92.88c-3,2.22-3.69,5.91-1.48,8.86a8.38,8.38,0,0,0,5.91,2.22Zm-3-5.91c0-.74.74-1.48,1.48-2.22l14-10.34-10.34,14c-.74,1.48-2.22,1.48-3.69.74s-1.48-1.48-1.48-2.22Z"/><path class="cls-4" d="M204.75,71.47h0a23.08,23.08,0,0,0-6.65-8.12l3.69-3.69L204,61.87l7.38-7.38L204,47.1l-7.38,7.38,2.22,2.22-3.69,3.69A78.47,78.47,0,0,0,187,53.74h0c-5.91-3-11.81-5.17-17.72-5.91V46.36h3a4.76,4.76,0,0,0,4.43-4.43c0-2.22-3-4.43-5.17-4.43H156a4.76,4.76,0,0,0-4.43,4.43A4.76,4.76,0,0,0,156,46.36h3v2.22c-2.22,0-3.69.74-5.91.74-.74,0-1.48,1.48-1.48,2.22S153.06,53,153.8,53c1.48,0,3-.74,5.17-.74h3.69v3a1.48,1.48,0,0,0,3,0V51.53c6.65,0,12.55,2.22,18.46,5.17l-1.48,3a1.41,1.41,0,0,0,.74,2.22h.74c.74,0,1.48,0,1.48-.74l1.48-3c5.17,3.69,10.34,8.12,14,14l-3,1.48c-.74.74-1.48,1.48-.74,2.22,0,.74.74.74,1.48.74h.74l3-2.22a53,53,0,0,1,5.17,18.46H204a1.48,1.48,0,1,0,0,3h3.69c0,6.65-2.22,12.55-5.17,18.46l-3-1.48a1.65,1.65,0,0,0-1.48,3h0l2.22,3c-3.69,5.17-8.12,10.34-14,14l-1.48-3c-.74-.74-1.48-1.48-2.22-.74s-1.48,1.48-.74,2.22l1.48,3a53,53,0,0,1-18.46,5.17v-3.69a1.48,1.48,0,0,0-3,0h0v3.69c-3,0-5.91-.74-8.12-.74-.74,0-2.22,0-2.22,1.48,0,.74,0,2.22,1.48,2.22a57.92,57.92,0,0,0,10.34,1.48h0A45.81,45.81,0,0,0,187,137.18h0a46.77,46.77,0,0,0,17-17h0a54,54,0,0,0,.74-48.73Zm0-19.94L207,53.74,204.75,56l-2.22-2.22Zm-42.83-3.69V42.67H156a.74.74,0,1,1,0-1.48h15.51a.74.74,0,1,1,0,1.48h-5.91v5.17Zm-14,14H139a1.48,1.48,0,0,0,0,3h8.86a1.48,1.48,0,0,0,0-3Zm0,12.55H130.17a1.48,1.48,0,1,0,0,3h17.72a1.48,1.48,0,1,0,0-3Zm0,11.81H121.31a1.48,1.48,0,0,0,0,3h26.58a1.59,1.59,0,0,0,1.48-1.48S148.63,86.23,147.89,86.23Zm0,12.55H114.66a1.48,1.48,0,0,0,0,3h33.23a1.48,1.48,0,1,0,0-3Zm0,12.55H125a1.48,1.48,0,1,0,0,3h22.89a1.48,1.48,0,1,0,0-3Zm0,12.55H135.34a1.48,1.48,0,0,0,0,3h12.55a1.48,1.48,0,1,0,0-3Z"/></g></svg>