<svg id="Layer_1" data-name="Layer 1" xmlns="http://www.w3.org/2000/svg" viewBox="0 0 250 250"><defs><style>.cls-1{fill:#f9e8a0;}.cls-2{fill:red;}.cls-3{fill:#414042;}</style></defs><title>Fast Casual Italian</title><path class="cls-1" d="M26.58,149.14h150l-43.92,57.43a3.51,3.51,0,0,1-2.7,1.35H72.53a5.12,5.12,0,0,1-2.7-1.35Z"/><path class="cls-2" d="M72.53,143.06a7.67,7.67,0,0,1,5.41-2c4.05,0,6.76,2,8.78,5.41H75.9l-3.38-3.38Z"/><path class="cls-2" d="M121.85,140.35c-5.41,0-5.41.68-6.76,6.08h-9.46c1.35-10.14,9.46-17.57,18.24-17.57s17.57,7.43,18.92,17.57H132.66c-1.35-6.08-3.38-8.11-8.78-8.11Z"/><path class="cls-3" d="M73.2,211.3a10.06,10.06,0,0,1-6.08-2.7L21.17,149.14a1.27,1.27,0,0,1,0-2c0-.68.68-1.35,2-1.35H57.66v-.68a29.85,29.85,0,0,1,4.05-10.81v-.68L27.26,92.38a2.06,2.06,0,0,1,0-2.7c.68,0,.68-.68,1.35-.68S30,89,30,89.68l35.14,41.22h.68a23.51,23.51,0,0,1,10.14-4.73h.68L52.26,67.38V66c0-.68.68-.68,1.35-1.35h.68c.68,0,1.35.68,2,1.35l25,60.81H82a27.19,27.19,0,0,1,13.51,6.08l.68.68.68-.68C102.26,122.11,113.74,116,125.9,116c16.89,0,31.08,13.51,32.43,30.41v.68H182c.68,0,1.35.68,2,1.35v2l-45.95,59.46c-1.35,2-3.38,2.7-6.08,2.7H73.2Zm102.7-61.49H27.26L70.5,205.89a5.12,5.12,0,0,0,2.7,1.35h56.08a3.51,3.51,0,0,0,2.7-1.35ZM65.09,137l-.68.68c-1.35,2-2,4.73-2.7,6.76v.68h7.43v-.68c0-.68.68-1.35.68-2v-.68Zm10.14,5.41h0v.68l2,2h8.11l-.68-.68A7.1,7.1,0,0,0,78.61,141,11.42,11.42,0,0,0,75.23,142.38Zm4.05-12.16a15.34,15.34,0,0,0-10.81,4.05l-.68.68,4.73,5.41.68-.68q2-2,6.08-2a10.76,10.76,0,0,1,10.14,8.11v.68h7.43v-.68c-1.35-9.46-8.78-15.54-17.57-15.54Zm66.22,14.86h0l7.43.68v-.68a29.29,29.29,0,0,0-29.05-26.35A28.62,28.62,0,0,0,97.53,136.3c1.35,2.7,2.7,5.41,2.7,8.78l.68.68h1.35v-.68a21.81,21.81,0,0,1,43.24,0Zm-11.49,0h0l7.43.68v-.68a17.5,17.5,0,0,0-17.57-14.86,18.12,18.12,0,0,0-17.57,14.86v.68h7.43v-.68A10.76,10.76,0,0,1,123.88,137C128.61,137.65,132.66,140.35,134,145.08Zm-15.54,0-.68.68h12.84l-.68-.68a7.1,7.1,0,0,0-6.08-3.38C121.17,141.7,119.15,142.38,118.47,145.08Z"/><path class="cls-3" d="M98.88,116a1.79,1.79,0,0,0,2-2c0-2.7,1.35-4.05,2.7-6.08s3.38-4.05,3.38-8.11a11.38,11.38,0,0,0-3.38-8.11c-2-1.35-2.7-2.7-2.7-5.41s1.35-4.05,2.7-6.08S107,76.16,107,72.11a2,2,0,0,0-4.05,0c0,2.7-1.35,4.05-2.7,6.08s-3.38,4.05-3.38,8.11a11.38,11.38,0,0,0,3.38,8.11,7.42,7.42,0,0,1,2.7,6.08c0,2.7-1.35,4.05-2.7,6.08s-3.38,4.05-3.38,8.11C96.85,115.35,97.53,116,98.88,116Z"/><path class="cls-3" d="M92.8,101.84a1.79,1.79,0,0,0,2-2c0-.68,0-.68-.68-1.35-2-2-4.73-6.08-4.73-12.84a24.29,24.29,0,0,1,1.35-7.43c.68-.68,0-2-.68-2.7h-.68c-.68,0-1.35.68-2,1.35a21.58,21.58,0,0,0-2,9.46c0,8.11,4.05,12.84,5.41,15.54Z"/><path class="cls-3" d="M113.74,110.62c.68,0,1.35-.68,2-1.35a21.58,21.58,0,0,0,2-9.46c0-8.11-4.05-12.84-5.41-14.86l-.68-.68h-1.35c-.68,0-1.35,0-1.35.68a1.27,1.27,0,0,0,0,2c2,2.7,4.73,6.08,4.73,12.84a24.29,24.29,0,0,1-1.35,7.43v1.35c0,.68.68.68,1.35,1.35C113.07,110.62,113.74,110.62,113.74,110.62Z"/><path class="cls-1" d="M184.69,49.14a43.89,43.89,0,0,0-20.95,5.41h6.08a6.77,6.77,0,0,1,6.76,6.76,7.1,7.1,0,0,1-3.38,6.08c.68,0,.68.68,1.35.68a6.13,6.13,0,0,1,2,4.73,7.1,7.1,0,0,1-3.38,6.08,7.16,7.16,0,0,1,0,12.16,7.16,7.16,0,0,1,0,12.16c.68,0,.68.68,1.35,1.35a6.13,6.13,0,0,1,2,4.73,7.1,7.1,0,0,1-3.38,6.08,7.1,7.1,0,0,1,3.38,6.08,6.77,6.77,0,0,1-6.76,6.76h-9.46A41,41,0,0,0,184,135.62a42.39,42.39,0,0,0,42.57-42.57C226.58,69.41,207.66,49.14,184.69,49.14Z"/><polygon class="cls-2" points="193.47 39.68 175.23 39.68 175.23 43.73 180.63 43.73 180.63 48.46 188.07 48.46 188.07 43.73 193.47 43.73 193.47 39.68"/><rect class="cls-2" x="219.92" y="51" width="6.08" height="5.41" transform="translate(27.33 173.39) rotate(-45)"/><path class="cls-2" d="M181.31,94.41s-.68-1.35,1.35-4.05c2-2,19.59-13.51,19.59-13.51L187.39,97.79C187.39,98.46,182.66,99.14,181.31,94.41Z"/><path class="cls-3" d="M186,99.81c2,0,3.38-.68,4.05-2.7l15.54-21.62c.68-.68.68-2,0-2a1.27,1.27,0,0,0-2,0L182,89.68a5.61,5.61,0,0,0-1.35,8.11c.68,1.35,2.7,2,5.41,2Zm-3.38-6.08c0-.68.68-1.35,1.35-2l12.84-9.46-9.46,12.84a2.35,2.35,0,0,1-3.38.68c-.68,0-1.35-.68-1.35-2Z"/><path class="cls-3" d="M222.53,69.41h0a31.76,31.76,0,0,0-6.08-8.11l3.38-3.38,2.7,2.7L230,53.19l-7.43-6.76-6.76,6.76,2,2-3.38,3.38c-2.7-2-4.73-4.05-8.11-6.08h0a49.48,49.48,0,0,0-16.89-5.41V45.76h2.7a4.36,4.36,0,0,0,4.05-4.05,4.36,4.36,0,0,0-4.05-4.05H177.26a4.36,4.36,0,0,0-4.05,4.05,4.36,4.36,0,0,0,4.05,4.05H180v2c-2,0-3.38.68-5.41.68-.68,0-1.35,1.35-1.35,2s1.35,1.35,2,1.35c1.35-.68,2.7-.68,4.73-.68h3.38v2.7a1.35,1.35,0,0,0,2.7,0V50.49a35.11,35.11,0,0,1,16.89,4.73l-1.35,2.7a1.29,1.29,0,0,0,.68,2h.68c.68,0,1.35,0,1.35-.68l2-2.7a38.87,38.87,0,0,1,12.84,12.84l-3.38,2c-.68.68-1.35,1.35-.68,2,0,.68.68.68,1.35.68h.68l2.7-1.35c2.7,5.41,4.73,11.49,4.73,17.57h-3.38a1.35,1.35,0,1,0,0,2.7h3.38c0,6.08-2,12.16-4.73,17.57l-2.7-1.35a1.51,1.51,0,0,0-1.35,2.7h0l2.7,1.35a38.87,38.87,0,0,1-12.84,12.84l-1.35-2.7c-.68-.68-1.35-1.35-2-.68s-1.35,1.35-.68,2l1.35,2.7c-5.41,2.7-11.49,4.73-16.89,4.73v-3.38a1.35,1.35,0,0,0-2.7,0h0v3.38c-2.7,0-5.41-.68-8.11-.68-.68,0-2,.68-2,1.35s.68,2,1.35,2a52.16,52.16,0,0,0,10.14,1.35h0a41.92,41.92,0,0,0,21.62-6.08h0A46.58,46.58,0,0,0,222.53,114h0c7.43-13.51,7.43-30.41,0-44.59Zm0-18.24,2,2-2,2.7-2-2Zm-39.86-3.38V42.38h-6.08a.68.68,0,1,1,0-1.35h14.86a.68.68,0,1,1,0,1.35h-6.08v4.73h-2.7ZM169.82,60.62h-8.11a1.35,1.35,0,1,0,0,2.7h8.11a1.35,1.35,0,1,0,0-2.7Zm0,11.49H153.61a1.35,1.35,0,1,0,0,2.7h16.22a1.35,1.35,0,1,0,0-2.7Zm0,11.49h-25a1.35,1.35,0,1,0,0,2.7h25a1.35,1.35,0,1,0,0-2.7Zm0,11.49H138.74a1.35,1.35,0,1,0,0,2.7h31.08a1.35,1.35,0,1,0,0-2.7Zm0,11.49H148.2a1.35,1.35,0,1,0,0,2.7h21.62a1.35,1.35,0,1,0,0-2.7Zm0,11.49H158.34a1.35,1.35,0,1,0,0,2.7h11.49a1.35,1.35,0,1,0,0-2.7Z"/></svg>