<svg id="Layer_1" data-name="Layer 1" xmlns="http://www.w3.org/2000/svg" xmlns:xlink="http://www.w3.org/1999/xlink" viewBox="0 0 250 250"><defs><style>.cls-1{fill:none;}.cls-2{fill:#414042;}.cls-3{fill:#f9e8a0;}.cls-4{fill:red;}.cls-5{clip-path:url(#clip-path);}.cls-6{clip-path:url(#clip-path-2);}.cls-7{clip-path:url(#clip-path-3);}</style><clipPath id="clip-path"><polygon class="cls-1" points="144.61 198.87 121.79 192.83 124.48 180.08 148.64 186.12 144.61 198.87"/></clipPath><clipPath id="clip-path-2"><polygon class="cls-1" points="172.8 180.75 166.76 157.26 152.66 161.29 160.04 191.49 172.8 180.75"/></clipPath><clipPath id="clip-path-3"><polygon class="cls-1" points="233.2 148.27 184.21 147.6 171.45 104.65 165.41 105.99 143.27 108 139.91 56.33 139.91 37.54 233.2 37.54 233.2 148.27"/></clipPath></defs><title>Fast Casual Mexican</title><path class="cls-2" d="M117.76,67.34h0c-2,0-4.7.67-6,2.68l-57,57a8.75,8.75,0,0,0,.67,12.75L19.78,175.39c-4.7,4.7-2.68,13.42,4,14.76L101,210.28a9.09,9.09,0,0,0,10.74-10.74l-.67-3.36,62.41,16.11c3.36.67,6.71,0,8.72-2.68s2.68-6,2-8.05h0l-20.13-77.18a7.93,7.93,0,0,0-6-6,10.68,10.68,0,0,0-8.72,2l-8.05,8.05L127.16,74a7.93,7.93,0,0,0-6-6,7.29,7.29,0,0,0-3.36-.67ZM99,151.9l14.09,3.36L103,165.32,99,151.9Z"/><path class="cls-3" d="M118.44,72.7c1.34,0,2,1.34,2.68,2.68l15.44,59.06v.67l4.7,17.45a7.3,7.3,0,0,1-.67,3.36h0a3,3,0,0,1-3.36.67l-17.45-4.7h-.67l-21.48-5.37-6-24.16a7.93,7.93,0,0,0-6-6,10.68,10.68,0,0,0-8.72,2L58.71,136.46c-1.34-1.34-2-3.36-.67-4.7l57.72-57a2.08,2.08,0,0,1,1.34-.67c.67-1.34.67-1.34,1.34-1.34Z"/><path class="cls-3" d="M82.2,121h1.34c1.34,0,2,1.34,2,2.68,6.71,25.5,13.42,51.68,20.13,77.18a3.17,3.17,0,0,1-4,4L24.48,184.78c-2.68-.67-3.36-3.36-1.34-5.37l57-57c.67-1.34,1.34-1.34,2-1.34Z"/><path class="cls-3" d="M155.35,123c1.34,0,2,1.34,2.68,2.68l9.4,36.91c-1.34,0-2.68,0-3.36.67-3.36,1.34-6,4.7-5.37,8.72a8.6,8.6,0,0,0,6.71,7.38c2,.67,4,0,6-1.34l6.71,24.83c0,1.34.67,2-.67,3.36h0a3,3,0,0,1-3.36.67l-32.88-8.72a8.87,8.87,0,0,0-1.34-8.05c-1.34-1.34-2.68-2.68-4-2.68h0a7.35,7.35,0,0,0-5.37,0,9.22,9.22,0,0,0-5.37,6.71l-16.78-4-4.7-17.45,14.76-14.76,16.11,4c3.36.67,6.71,0,8.72-2.68a7.9,7.9,0,0,0,2-8.05h0l-4-16.11L152,124.38a2.08,2.08,0,0,1,1.34-.67,5.19,5.19,0,0,1,2-.67Z"/><path class="cls-4" d="M133.87,192.83c.67,0,2,.67,2,1.34a2,2,0,0,1,0,2.68l-5.37-1.34c0-1.34.67-2,2-2.68Z"/><path class="cls-2" d="M80.85,153.91h-.67L52.67,162A2.77,2.77,0,0,0,54,167.33h0l27.52-8.05a3.69,3.69,0,0,0,2-3.36c-.67-1.34-1.34-2.68-2.68-2Z"/><path class="cls-2" d="M83.54,167.33h-.67l-28.19,8.72A2.77,2.77,0,0,0,56,181.42l27.52-8.05a3.69,3.69,0,0,0,2-3.36c0-2-.67-2.69-2-2.69Z"/><path class="cls-2" d="M105.68,102.9a8.72,8.72,0,1,0,8.72,8.72C115.08,106.93,111.05,102.9,105.68,102.9Z"/><path class="cls-4" d="M105.68,106.93a4.7,4.7,0,1,1-4.7,4.7C101.66,108.94,103.67,106.93,105.68,106.93Z"/><path class="cls-2" d="M121.79,125.05a8.72,8.72,0,1,0,8.72,8.72C131.19,129.08,127.16,125.05,121.79,125.05Z"/><path class="cls-4" d="M121.79,129.08a4.7,4.7,0,1,1-4.7,4.7C117.76,131.09,119.78,129.08,121.79,129.08Z"/><g class="cls-5"><path class="cls-2" d="M133.87,186.79a8.72,8.72,0,1,0,8.72,8.72A8.88,8.88,0,0,0,133.87,186.79Z"/><path class="cls-4" d="M133.87,190.82a4.7,4.7,0,1,1-4.7,4.7A4.59,4.59,0,0,1,133.87,190.82Z"/></g><g class="cls-6"><path class="cls-2" d="M167.43,161.29a8.72,8.72,0,1,0,8.72,8.72A8.88,8.88,0,0,0,167.43,161.29Z"/><path class="cls-4" d="M167.43,165.32a4.7,4.7,0,1,1-4.7,4.7A4.59,4.59,0,0,1,167.43,165.32Z"/></g><g class="cls-7"><path class="cls-3" d="M186.89,51.63A46.27,46.27,0,0,0,165.41,57h6a6.73,6.73,0,0,1,6.71,6.71,7,7,0,0,1-3.36,6c.67.67,1.34,1.34,2,1.34a7.25,7.25,0,0,1,2,4.7,7,7,0,0,1-3.36,6,7.11,7.11,0,0,1,0,12.08,7.11,7.11,0,0,1,0,12.08c.67,0,.67.67,1.34,1.34a7.25,7.25,0,0,1,2,4.7,7,7,0,0,1-3.36,6,7,7,0,0,1,3.36,6,6.73,6.73,0,0,1-6.71,6.71H162.06a44,44,0,0,0,68.45-36.24C230.51,70.42,211,51.63,186.89,51.63Z"/><polygon class="cls-4" points="196.28 42.24 177.49 42.24 177.49 46.26 182.86 46.26 182.86 51.63 190.25 51.63 190.25 46.26 196.28 46.26 196.28 42.24"/><rect class="cls-4" x="222.79" y="53.59" width="6.71" height="5.37" transform="translate(26.44 176.39) rotate(-45)"/><path class="cls-4" d="M183.53,98.61a4.11,4.11,0,0,1,1.34-4c2-2,19.46-14.09,19.46-14.09L188.9,102.64A5.2,5.2,0,0,1,183.53,98.61Z"/><path class="cls-2" d="M188.23,104.65c2,0,3.36-1.34,4.7-2.68L209,79.82a2.47,2.47,0,0,0-.67-2,1.26,1.26,0,0,0-2,0L184.2,93.91c-2.68,2-3.36,5.37-1.34,8.72a8.1,8.1,0,0,0,5.37,2Zm-3.36-6.71c0-.67.67-1.34,1.34-2l13.42-10.07-9.4,13.42a2.34,2.34,0,0,1-3.36.67,1.78,1.78,0,0,1-2-2Z"/><path class="cls-2" d="M226.48,73.11h0l-6-8.05,3.36-3.36,2.68,2.68L233.87,57l-7.38-7.38L219.1,57l2.68,2.68L218.43,63l-8.05-6h0a41.75,41.75,0,0,0-17.45-6v-2h2.68a4.33,4.33,0,0,0,4-4,4.33,4.33,0,0,0-4-4H180.18a4.33,4.33,0,0,0-4,4,4.33,4.33,0,0,0,4,4h2.68v2c-2,0-3.36.67-5.37.67-.67,0-1.34,1.34-1.34,2s1.34,1.34,2,1.34a11.42,11.42,0,0,1,4.7-.67h3.36v3.36a2,2,0,1,0,4,0v-4c6,0,12.08,2,17.45,4.7l-2,2.68a1.29,1.29,0,0,0,.67,2H207c.67,0,1.34,0,1.34-.67l.67-2.68a42.72,42.72,0,0,1,13.42,13.42l-2.68,1.34c-.67.67-1.34,1.34-.67,2,0,1.34.67,1.34,1.34,1.34h.67l2.68-2a40.32,40.32,0,0,1,4.7,18.12h-3.36a2,2,0,0,0,0,4h3.36c0,6-2,12.75-4.7,18.12l-2.68-2a1.5,1.5,0,0,0-1.34,2.68h0l2.68,1.34A42.72,42.72,0,0,1,209,131.49l-1.34-2.68c-.67-.67-1.34-1.34-2-.67s-1.34,1.34-.67,2l2,2.68c-5.37,2.68-11.41,4.7-17.45,4.7v-3.36a2,2,0,1,0-4,0h0v4a33.69,33.69,0,0,1-8.05-1.34c-.67,0-2,.67-2,1.34s.67,2,1.34,2a51.8,51.8,0,0,0,10.07,1.34h0a42.24,42.24,0,0,0,22.15-6h0c6.71-4,12.75-9.4,16.78-16.78h0a47.88,47.88,0,0,0,.67-45.64Zm0-18.79L229.17,57l-2.68,2.68L223.8,57Zm-40.94-4V44.92h-6a.67.67,0,1,1,0-1.34h15.44a.67.67,0,1,1,0,1.34h-6v5.37h-3.36ZM171.45,63.71h-8.72a2,2,0,0,0,0,4h8.72a2.14,2.14,0,0,0,2-2A1.78,1.78,0,0,0,171.45,63.71Zm0,12.08H154.68a2,2,0,0,0,0,4h16.78a2.14,2.14,0,0,0,2-2,1.78,1.78,0,0,0-2-2Zm0,11.41H146a2,2,0,0,0,0,4h25.5a2,2,0,0,0,0-4Zm0,12.08H139.24a2,2,0,0,0,0,4h32.21a2.14,2.14,0,0,0,2-2A1.78,1.78,0,0,0,171.45,99.28Zm0,12.08H149.31a2,2,0,0,0,0,4h22.15a2.14,2.14,0,0,0,2-2,1.78,1.78,0,0,0-2-2Zm0,12.08H159.37a2,2,0,0,0,0,4h12.08a2.14,2.14,0,0,0,2-2A1.78,1.78,0,0,0,171.45,123.44Z"/></g></svg>