<svg id="Layer_1" data-name="Layer 1" xmlns="http://www.w3.org/2000/svg" viewBox="0 0 250 250"><defs><style>.cls-1{fill:#fff;}.cls-2{fill:#f9e8a0;}.cls-3{fill:#414042;}</style></defs><title>Fast FoodFast Casual Chicken</title><path class="cls-1" d="M161.38,136.1h29.33s-2.33-17.83,18.17-19,18.67,23,12.17,30c0,0,16,30.5-9.17,32.83,0,0-16,6.33-22.67-19.33l-27.83.17S164.72,147.1,161.38,136.1Z"/><path class="cls-2" d="M20.8,150.1s-4-56,59.5-54.75c0,0,76.75,8.86,84,52.93,0,0,.5,45.57-99.25,54.82C65.05,203.1,18.3,189.1,20.8,150.1Z"/><path class="cls-3" d="M74,205.28a57,57,0,0,1,0-114c31.31,0,93.92,24.89,93.92,57-.8,32.11-63.42,57-93.92,57ZM74,98.51a50.57,50.57,0,0,0,0,101.15c28.9,0,87.5-23.28,87.5-50.57-.8-27.29-59.4-50.57-87.5-50.57Z"/><path class="cls-3" d="M111,78.44a3,3,0,0,1-2.41-.8,16,16,0,0,1,0-21.67,10.87,10.87,0,0,0,0-13.65,5.12,5.12,0,0,1,0-4.82,5.12,5.12,0,0,1,4.82,0,16,16,0,0,1,0,21.67,10.87,10.87,0,0,0,0,13.65,5.12,5.12,0,0,1,0,4.82,3,3,0,0,1-2.41.8Z"/><path class="cls-3" d="M82.05,78.44a3,3,0,0,1-2.41-.8,16,16,0,0,1,0-21.67,10.87,10.87,0,0,0,0-13.65q-2.41-2.41,0-4.82a5.12,5.12,0,0,1,4.82,0c4.82,7.22,4.82,16.06,0,22.48a9.24,9.24,0,0,0,0,13.65,5.12,5.12,0,0,1,0,4.82Z"/><path class="cls-3" d="M52.35,78.44a3,3,0,0,1-2.41-.8,16,16,0,0,1,0-21.67,10.87,10.87,0,0,0,0-13.65,3.78,3.78,0,0,1,.8-4.82,5.12,5.12,0,0,1,4.82,0,16,16,0,0,1,0,21.67c-4,4.82-4,10.44-.8,14.45a5.12,5.12,0,0,1,0,4.82Z"/><path class="cls-3" d="M39.51,139.45h-.8a4.41,4.41,0,0,1-2.41-4c4.82-16.06,16.86-20.07,17.66-20.07a4.41,4.41,0,0,1,4,2.41c.8,1.61-.8,3.21-2.41,4-.8,0-9.63,3.21-12.84,15.25,0,1.61-1.61,2.41-3.21,2.41Z"/><path class="cls-3" d="M208.08,183.6c-11.24,0-20.87-8.83-20.87-20.07H161.53a3.21,3.21,0,1,1,0-6.42h28.9c.8,0,1.61.8,2.41.8a3,3,0,0,1,.8,2.41v2.41a14.45,14.45,0,1,0,28.9,0c0-4.82-2.41-8.83-5.62-12-.8-.8-1.61-1.61-1.61-2.41s.8-1.61,1.61-2.41a14.65,14.65,0,1,0-23.28-12v1.61c0,.8,0,2.41-.8,2.41-.8.8-1.61,1.61-2.41,1.61h-28.9a3.21,3.21,0,1,1,0-6.42h25.69c.8-11.24,9.63-20.07,20.87-20.07A20.73,20.73,0,0,1,229,133.83c0,5.62-2.41,10.44-5.62,14.45,4,4,5.62,8.83,5.62,14.45a20.73,20.73,0,0,1-20.87,20.87Z"/></svg>