<svg id="Layer_1" data-name="Layer 1" xmlns="http://www.w3.org/2000/svg" xmlns:xlink="http://www.w3.org/1999/xlink" viewBox="0 0 250 250"><defs><style>.cls-1{fill:none;}.cls-2{fill:#f9e8a0;}.cls-3{fill:red;}.cls-4{fill:#414042;}.cls-5{clip-path:url(#clip-path);}</style><clipPath id="clip-path"><path class="cls-1" d="M242.17,49.82H151.84V99c29.38,9.55,33.78,14,32.31,38.19-.73,11.75-2.2,22-6.61,31.58H242.9v-119Z"/></clipPath></defs><title>Fast Casual Soup &amp;amp; Salad</title><path class="cls-2" d="M176.07,125.47c0,46.27-37.45,83.72-83,83.72s-83-37.45-83-83.72Z"/><path class="cls-2" d="M168,134.28c5.14-2.94,8.08-5.88,8.08-8.81,0-11-37.45-19.83-83-19.83s-83,8.81-83,19.83c0,2.94,2.94,5.88,8.08,8.81C31.4,127.67,60,122.53,93.09,122.53s61.69,5.14,74.91,11.75Z"/><path class="cls-3" d="M168,134.28c-13.22-6.61-41.86-11.75-74.91-11.75s-61.69,4.41-74.91,11.75C31.4,140.89,60,146,93.09,146s61.69-5.14,74.91-11.75Z"/><path class="cls-4" d="M59.31,88.75c-.73,0-1.47,0-1.47-.73a2.23,2.23,0,0,1,0-2.94c.73-.73,6.61-6.61,0-14.69-2.94-3.67-4.41-7.34-3.67-11,0-5.14,3.67-8.81,4.41-8.81s.73-.73,1.47-.73,1.47,0,1.47.73a2.23,2.23,0,0,1,0,2.94,10.35,10.35,0,0,0-2.2,3.67,9.09,9.09,0,0,0,2.2,10.28c7.34,8.81,2.94,17.63,0,20.56A2.7,2.7,0,0,1,59.31,88.75Z"/><path class="cls-4" d="M82.07,79.93c-.73,0-1.47,0-1.47-.73-.73-.73-.73-.73-.73-1.47s0-1.47.73-1.47c.73-.73,6.61-6.61,0-14.69q-4.41-5.51-4.41-11a15.38,15.38,0,0,1,4.41-8.81c.73,0,.73-.73,1.47-.73s1.47,0,1.47.73a2.23,2.23,0,0,1,0,2.94h0a10.35,10.35,0,0,0-2.2,3.67,10.08,10.08,0,0,0,2.94,9.55c7.34,8.81,2.94,17.63,0,20.56C82.81,79.93,82.81,79.93,82.07,79.93Z"/><path class="cls-4" d="M104.1,79.93c-.73,0-1.47,0-1.47-.73-.73-.73-.73-.73-.73-1.47s0-1.47.73-1.47c.73-.73,6.61-6.61,0-14.69q-4.41-5.51-4.41-11a15.38,15.38,0,0,1,4.41-8.81c.73,0,.73-.73,1.47-.73s1.47,0,1.47.73a2.23,2.23,0,0,1,0,2.94,10.35,10.35,0,0,0-2.2,3.67,10.08,10.08,0,0,0,2.94,9.55c7.34,8.81,2.94,17.63,0,20.56C105.57,79.93,104.84,79.93,104.1,79.93Z"/><path class="cls-4" d="M126.87,88.75c-.73,0-1.47,0-1.47-.73a2.23,2.23,0,0,1,0-2.94c.73-.73,6.61-6.61,0-14.69q-4.41-5.51-4.41-11a15.38,15.38,0,0,1,4.41-8.81c.73,0,.73-.73,1.47-.73s1.47,0,1.47.73a2.23,2.23,0,0,1,0,2.94,10.35,10.35,0,0,0-2.2,3.67,10.08,10.08,0,0,0,2.94,9.55c7.34,8.81,2.94,17.62,0,20.56C127.6,88.75,127.6,88.75,126.87,88.75Z"/><path class="cls-4" d="M93.09,211.39A85.25,85.25,0,0,1,7.9,125.47c0-6.61,8.81-11.75,25.7-16.16,16.16-3.67,36.72-5.88,58.75-5.88s43.33,2.2,58.75,5.88c16.89,4.41,25.7,9.55,25.7,16.16a86.12,86.12,0,0,1-25,61C137.15,202.58,115.85,211.39,93.09,211.39ZM13,136.48a80.69,80.69,0,0,0,160.09,0l.73-2.94L170.93,135c-.73,0-1.47.73-2.2.73-14,7.34-43.33,11.75-75.64,11.75s-61.69-4.41-75.64-11.75c-.73,0-1.47-.73-2.2-.73l-2.94-1.47Zm80-11.75c-25.7,0-50.67,2.94-65.36,8.08l-4.41,1.47,4.41,1.47c15.42,5.14,39.66,8.08,65.36,8.08s50.67-2.94,65.36-8.08l4.41-1.47-4.41-1.47C143.76,127.67,118.79,124.73,93.09,124.73Zm0-4.41c30.84,0,59.48,4.41,74.17,11,4.41-2.2,6.61-3.67,6.61-5.88,0-2.94-5.87-8.08-22.77-11.75-15.42-3.67-36-5.88-58-5.88s-42.59,2.2-58,5.88c-16.89,3.67-22.77,8.81-22.77,11.75,0,1.47,1.47,3.67,5.14,5.88C33.6,124.73,62.24,120.32,93.09,120.32Z"/><path class="cls-4" d="M68.12,193.76h-.73A72.21,72.21,0,0,1,36.54,171a1.82,1.82,0,0,1,.73-2.94c.73,0,.73-.73,1.47-.73s1.47,0,1.47.73a68.41,68.41,0,0,0,28.64,21.3,3.82,3.82,0,0,1,1.47,2.94C69.59,193,68.85,193.76,68.12,193.76Z"/><path class="cls-4" d="M31.4,160c-.73,0-1.47-.73-2.2-1.47-.73-2.2-2.2-4.41-2.94-6.61v-1.47c0-.73.73-.73,1.47-1.47h.73c.73,0,1.47.73,2.2,1.47a22,22,0,0,0,2.94,5.87v1.47c0,.73-.73.73-.73,1.47A2.27,2.27,0,0,1,31.4,160Z"/><g class="cls-5"><path class="cls-2" d="M191.49,66A50.64,50.64,0,0,0,168,71.86h6.61a7.36,7.36,0,0,1,7.34,7.34,7.71,7.71,0,0,1-3.67,6.61c.73,0,.73.73,1.47.73a7.93,7.93,0,0,1,2.2,5.14,7.71,7.71,0,0,1-3.67,6.61,7.78,7.78,0,0,1,0,13.22,7.78,7.78,0,0,1,0,13.22c.73,0,.73.73,1.47,1.47a7.93,7.93,0,0,1,2.2,5.14,7.71,7.71,0,0,1-3.67,6.61,7.71,7.71,0,0,1,3.67,6.61,7.36,7.36,0,0,1-7.34,7.34H164.32a48.2,48.2,0,0,0,74.91-39.66C239.23,85.81,217.93,66,191.49,66Z"/><polygon class="cls-3" points="201.78 54.97 181.21 54.97 181.21 59.37 187.09 59.37 187.09 65.25 195.17 65.25 195.17 59.37 201.78 59.37 201.78 54.97"/><rect class="cls-3" x="231.19" y="67.95" width="7.34" height="5.87" transform="translate(18.66 186.83) rotate(-45)"/><path class="cls-3" d="M187.82,116.65a4.5,4.5,0,0,1,1.47-4.41c2.2-2.2,21.3-15.42,21.3-15.42L193.7,121.06A5.69,5.69,0,0,1,187.82,116.65Z"/><path class="cls-4" d="M193,123.26c2.2,0,3.67-1.47,5.14-2.94l17.62-24.23a2.23,2.23,0,0,0,0-2.94,1.38,1.38,0,0,0-2.2,0l-24.23,17.62c-2.94,2.2-3.67,5.88-1.47,9.55,0,2.2,2.2,2.94,5.14,2.94Zm-3.67-6.61c0-.73.73-1.47,1.47-2.2l14.69-11-10.28,14.69a2.56,2.56,0,0,1-3.67.73q-2.2-1.1-2.2-2.2Z"/><path class="cls-4" d="M234.82,88.75h0l-6.61-8.81,3.67-3.67,2.94,2.94,8.08-8.08L234.82,63l-8.08,8.08,2.2,2.2L225.28,77l-8.81-6.61h0a45.68,45.68,0,0,0-19.09-6.61V62.31h2.94a4.74,4.74,0,0,0,4.41-4.41,4.74,4.74,0,0,0-4.41-4.41H183.42A4.74,4.74,0,0,0,179,57.9a4.74,4.74,0,0,0,4.41,4.41h2.94v2.2c-2.2,0-3.67.73-5.87.73-.73,0-1.47,1.47-1.47,2.2s1.47,1.47,2.2,1.47a12.5,12.5,0,0,1,5.14-.73H190v3.67a2.2,2.2,0,1,0,4.41,0V67.45c6.61,0,13.22,2.2,19.09,5.14l-2.2,2.94a1.41,1.41,0,0,0,.73,2.2h.73c.73,0,1.47,0,1.47-.73l1.47-2.2a46.74,46.74,0,0,1,14.69,14.69l-2.94,1.47c-.73.73-1.47,1.47-.73,2.2,0,.73.73.73,1.47.73h.73l2.94-2.2A44.12,44.12,0,0,1,237,111.51h-3.67a2.2,2.2,0,0,0,0,4.41H237c0,6.61-2.2,14-5.14,19.83l-2.94-2.2a1.64,1.64,0,0,0-1.47,2.94h0l2.94,1.47a46.74,46.74,0,0,1-14.69,14.69l-1.47-2.94c-.73-.73-1.47-1.47-2.2-.73s-1.47,1.47-.73,2.2l2.2,2.94c-5.87,2.94-12.48,5.14-19.09,5.14v-3.67a2.2,2.2,0,0,0-4.41,0h0v3.67a36.86,36.86,0,0,1-8.81-1.47c-.73,0-2.2.73-2.2,1.47s.73,2.2,1.47,2.2a56.69,56.69,0,0,0,11,1.47h0a46.22,46.22,0,0,0,24.23-6.61h0c7.34-4.41,14-10.28,18.36-18.36h0c8.81-14.69,8.81-33.78.73-49.2Zm0-20.56,2.94,2.94-2.94,2.2-2.94-2.94ZM190,63.78V58.64h-6.61a.73.73,0,1,1,0-1.47h16.89a.73.73,0,1,1,0,1.47H193.7v5.88H190ZM174.6,78.47h-9.55a2.34,2.34,0,0,0-2.2,2.2,2,2,0,0,0,2.2,2.2h9.55a2.34,2.34,0,0,0,2.2-2.2A2,2,0,0,0,174.6,78.47Zm0,13.22H156.24a2.2,2.2,0,0,0,0,4.41H174.6a2.34,2.34,0,0,0,2.2-2.2,2,2,0,0,0-2.2-2.2Zm0,13.22H146.7a2.2,2.2,0,0,0,0,4.41H174.6a2.34,2.34,0,0,0,2.2-2.2A2,2,0,0,0,174.6,104.9Zm0,12.48H139.35a2.34,2.34,0,0,0-2.2,2.2,2,2,0,0,0,2.2,2.2H174.6a2.34,2.34,0,0,0,2.2-2.2A2,2,0,0,0,174.6,117.39Zm0,13.22H150.37a2.2,2.2,0,0,0,0,4.41H174.6a2.34,2.34,0,0,0,2.2-2.2,2,2,0,0,0-2.2-2.2Zm0,13.22H161.38a2.34,2.34,0,0,0-2.2,2.2,2,2,0,0,0,2.2,2.2H174.6a2.34,2.34,0,0,0,2.2-2.2A2,2,0,0,0,174.6,143.83Z"/></g></svg>