<?xml version="1.0" encoding="utf-8"?>
<!-- Generator: Adobe Illustrator 21.1.0, SVG Export Plug-In . SVG Version: 6.00 Build 0)  -->
<svg version="1.1" id="Layer_1" xmlns="http://www.w3.org/2000/svg" xmlns:xlink="http://www.w3.org/1999/xlink" x="0px" y="0px"
	 viewBox="0 0 181 64.2" style="enable-background:new 0 0 181 64.2;" xml:space="preserve">
<style type="text/css">
	.st0{fill:#EB1038;}
	.st1{fill:#2DB342;}
	.st2{fill:#F8C81E;}
	.st3{fill:#FFFFFF;}
	.st4{fill:#020102;}
</style>
<title>Grocery</title>
<path class="st0" d="M21.6,8.7c0.1,0.8-0.2,1.5-0.7,2.1c-0.5,0.7-1,1.4-1.4,2.1c-0.1,0.3-0.3,0.7-0.3,1l3.1,0.2
	c4.5,0.3,8.9,0.5,13.4,0.8c2.2,0.2,4.3,0.5,6.4,0.8c2.9,0.3,5.8,0.7,8.7-0.1c0.8-0.2,1.5-0.5,2.2-0.8l0.2,0.2
	c-0.6,0.7-1.3,1.3-1.9,1.8c-2.2,1.5-4.8,2.4-7.4,2.9c-5.3,1-10.6,1.5-16,1.5c-2.8,0.1-5.6,0.1-8.4,0.1c-0.5,0-0.6,0.2-0.6,0.6
	c0.5,3.5,1.7,6.9,3.5,10c0.2,0.3,0.5,0.4,0.8,0.5c2.2,0.1,4.5,0.2,6.7,0.3c1.4,0.1,2.8,0.3,4.3,0.5c-0.4,0.8-1,1.4-1.9,1.7
	c-1,0.3-2.1,0.6-3.1,0.7c-1.4,0.2-2.9,0.2-4.5,0.3c0.2,0.4,0.3,0.7,0.5,1c2,3.3,2.9,7.2,2.6,11.1c-0.3,2.7-1.3,5.3-2.9,7.4
	c-2.4,3.3-5.5,6.1-9,8.2c-0.5,0.3-0.7,0-0.9-0.4l-3-6.8l-3.3-7.5c-0.1-0.2-0.2-0.4-0.3-0.8c0.3,0,0.5,0,0.7,0
	c2.3,0.2,4.5-1.2,5.3-3.4c0.7-1.7,1-3.6,0.8-5.4c0-0.7-0.1-1.5-0.2-2.2c-0.2-1.1-0.2-1.2-1.3-1.1c-2.2,0.2-4.4,0.1-6.6-0.3
	c-2.2-0.3-4.1-1.5-5.5-3.1c1.2-0.1,2.2-0.2,3.2-0.2c2.9-0.1,5.8-0.1,8.7-0.2c0.7,0,0.9-0.2,0.8-1c-0.6-3.1-0.9-6.4-0.8-9.6
	c0-0.7-0.2-1-0.9-1c-3.7-0.4-7.3-1.1-10.8-2.3c-0.4-0.2-0.8-0.5-1.2-0.8c0.3-0.3,0.7-0.6,1.1-0.9c2.6-1.3,5.4-2.1,8.3-2.4
	c1.7-0.2,3.5-0.3,5.2-0.5c0.4-0.1,0.7-0.4,0.9-0.7c1.1-1.8,2.7-3.2,4.6-4.2C20.8,9,21,8.9,21.2,8.8C21.4,8.8,21.5,8.7,21.6,8.7z"/>
<path class="st0" d="M128.5,49.6l-4.8,6c-0.5,0.7-1.1,1.4-1.6,2c-0.3,0.4-0.8,0.6-1.2,0.5c-1.4-0.3-2.5-1.1-3.3-2.3
	c-0.2-0.2-0.3-0.5-0.5-0.8l-0.6,0.7c-2.2,2.4-4.9,3.8-8.2,3.1s-4.8-3-5.5-6c-1-3.7,0.5-7.6,3.7-9.7c2.6-1.8,5.2-3.4,7.8-5.2
	c1-0.7,1.8-1.4,2.6-2.3c1-1,1.4-2.4,0.9-3.7c-0.2-0.9-1-1.5-1.9-1.6c-0.9-0.1-1.7,0.4-2,1.2c-0.5,1.1-0.9,2.3-1.3,3.6
	c-0.4,2.2-2.5,3.6-4.7,3.2c-0.5-0.1-0.9-0.3-1.3-0.5c-1.5-0.9-2.3-2.7-1.9-4.5c0.7-3.7,3-5.9,6.4-7.1c2.6-1,5.5-0.9,7.9,0.4
	c2.2,1.2,3.6,3.4,3.8,5.9c0.3,2.7,0.5,5.4,0.7,8.1c0,2.5,0.7,4.9,2,7.1C126.2,48.6,127.3,49.4,128.5,49.6z M116.1,41.3
	c-0.3,0-0.4,0-0.5,0.1c-1.7,1.3-3.4,2.5-5.1,3.9c-0.5,0.5-0.8,1.1-1,1.7c-0.3,1.1,0.2,2.3,1.3,2.7c1.4,0.4,2.9-0.3,3.6-1.6
	C115.8,46.1,115.8,43.7,116.1,41.3z"/>
<path class="st0" d="M95.4,12.6c0.7,0.6,1.1,1.5,1.1,2.4c0,1-0.1,2-0.2,3c-0.1,1.1-0.1,1.2,1.1,1.2c3.5,0.1,7,0.5,10.4,1.2
	c0.9,0.2,1.8,0.5,2.6,0.7v0.3c-0.8,0.3-1.6,0.5-2.5,0.8c-3.4,0.7-6.9,1-10.4,1c-0.3,0-0.5,0-0.8,0c-1.8,0.2-1.8,0.2-2.2,1.9
	c-1.1,4.5-1.6,9.2-1.5,13.9c0,1.9,0.3,3.8,1,5.5c0.7,1.6,1.6,2.3,3,2.2c1-0.1,1.8-0.6,2.3-1.5c0.6-1.1,1.1-2.3,1.6-3.5
	c0.1-0.2,0.2-0.5,0.3-0.7h0.2c0.2,0.6,0.3,1.2,0.4,1.8c0.2,2.3,0,4.5-0.5,6.7c-0.4,2.2-1.2,4.3-2.3,6.2c-0.9,1.6-2.4,2.8-4.2,3.3
	c-1.4,0.3-2.8-0.2-3.7-1.3c-1.5-1.8-2.5-4.1-2.8-6.5c-0.7-4.7-0.8-9.5-0.1-14.2c0.5-4.3,1.2-8.6,2.3-12.8c0.2-0.9,0.1-1-0.8-1
	c-3.5,0-7.1,0-10.6-0.1c-2.6,0-5.1-0.4-7.6-1.2c-0.5-0.2-1-0.5-1.5-0.8l0.1-0.3c0.6-0.1,1.2-0.3,1.8-0.4c5-0.8,10-1.2,15-1.3
	c1.5,0,3-0.1,4.4-0.1c0.5,0,1-0.3,1.1-0.8c0.7-1.6,1.5-3.2,2.3-4.7C95,13.2,95.2,12.9,95.4,12.6z"/>
<path class="st0" d="M71.5,43.3c0.7,1.1,1.2,2.2,1.8,3.1c0.4,0.6,0.9,1,1.4,1.4c0.5,0.4,1.3,0.4,1.8-0.2c0.2-0.3,0.3-0.6,0.3-0.9
	c0-0.8-0.3-1.6-0.8-2.3c-1-1.3-2.2-2.5-3.2-3.7c-1.4-1.7-2.9-3.4-3.3-5.7c-0.7-3.7,1.6-7.3,5.3-8.2c3.6-0.9,7.5,0.2,10.1,2.9
	c1.4,1.3,2.1,3.2,2,5.1c-0.1,1.4-1.1,2.5-2.5,2.7c-2.1,0.6-4.2-0.7-4.8-2.7c-0.1-0.4-0.2-0.8-0.1-1.2c0.1-1.2-0.3-2.3-1-3.2
	c-0.8-1.1-2.3-1.3-3.4-0.7c-1.2,0.7-1.6,2.1-1,3.3c0.5,0.9,1.2,1.7,1.9,2.3c2.4,2.2,4.9,4.1,7.1,6.4c2.1,2.1,3.1,5.1,2.7,8.1
	c-0.6,4.9-4.5,9-10.2,8.3c-3.7-0.5-6.5-2.6-8.9-5.3c-0.2-0.2-0.2-0.5-0.2-0.8C68.2,49.3,69.8,46.4,71.5,43.3z"/>
<path class="st0" d="M58.5,45.3c3,2.6,6,2.5,9.5,1c-0.6,1.1-1,1.9-1.4,2.7c-1.6,2.9-3.3,5.9-4.9,8.8c-0.2,0.4-0.5,0.7-1,0.5
	c-4.5-1.5-8.3-3.9-10.6-8.2c-1.6-2.9-2.2-6.2-1.7-9.4c0.4-4,2.1-7.8,5-10.7c2.1-2.2,5.1-3.4,8.2-3.2c3.5,0,6.3,2.7,6.4,6.2
	c0,0.4,0,0.7-0.1,1.1c-0.5,5.1-3.5,8.3-7.8,10.5C59.5,44.8,59.1,45,58.5,45.3z M55.8,37.6c0.1,0.9,0.2,1.9,0.4,2.8s0.4,0.9,1.1,0.4
	c0.4-0.3,0.8-0.6,1.2-1c1.6-1.4,2.7-3.3,3.3-5.3c0.4-1.1-0.1-2.4-1.3-2.9c-0.4-0.1-0.8-0.2-1.2-0.1c-0.8,0.1-1.6,0.5-2.1,1.2
	C56.3,34.1,55.7,35.9,55.8,37.6L55.8,37.6z"/>
<path class="st0" d="M40.5,58.6c-0.2-0.3-0.4-0.5-0.6-0.7c-3.6-5.1-5.7-11-6.3-17.2c-0.2-1.7,0-3.4,0.6-5c1.2-3.3,4.1-4.5,7.1-4.1
	c3.5,0.5,5.3,2.5,5.8,6c0.3,2.8,0,5.6-0.8,8.3c-1,4.3-2.8,8.3-5.3,11.9C40.9,58,40.7,58.3,40.5,58.6z"/>
<path class="st0" d="M40.3,29.7c-1.7,0.1-3.5-0.5-4.9-1.5c-1.1-0.7-1.4-2-0.7-3.1c0.2-0.3,0.4-0.5,0.7-0.7c0.8-0.6,1.8-1.1,2.8-1.3
	c2.3-0.7,4.8-0.4,6.9,0.9c2,1.2,2.1,3.2,0.1,4.5C43.7,29.4,42,29.8,40.3,29.7z"/>
<path d="M145.2,26.6c-0.3-0.2-0.6-0.4-0.8-0.6c-0.8-0.8-0.6-1.5,0.5-1.9c1.1-0.3,2-1.2,2.3-2.3c0.4-1.4,0.7-3,1-4.5
	c0-0.3,0-0.6,0-0.8c0.5,0.2,1,0.3,1.4,0.5c0.2,0.1,0.4,0.3,0.4,0.4c-0.2,2.2-0.3,4.5-1.9,6.3c-0.5,0.5-1,0.9-1.6,1.3
	c0.4,0.1,0.9,0.2,1.3,0.3c1.9,0,3.7-0.9,4.9-2.4c1.3-1.5,2.1-3.4,2.3-5.3c0-0.3,0.1-0.7,0.2-1l0.2-0.1c0.7,1,1.3,2,1.9,3.1
	c1,2.2,0.2,4.6-1.8,6.4l-8.8,1.4c-0.3,0.1-1.2,0.2-1.5-0.1c-0.5-0.4-1-0.9-1.4-1.5c-0.5-0.9-0.2-1.6,0.8-1.8
	c0.9-0.2,1.7-0.8,2.1-1.7c0.9-1.8,1.3-3.7,1.2-5.7c0-0.2-0.1-0.3-0.3-0.4c-1.1-0.7-2.2-1.3-3.3-1.8c-1.9-0.8-3.2,0-3.6,2.1
	c-0.1,0.7-0.2,1.6-1.1,1.7c-0.7,0.1-1.3-0.3-1.7-1.4c-1.3-3.4-1.6-7,0-10.4s4.5-4.9,8.1-5.6c2.2-0.4,4.5-0.2,6.5,0.7
	c0.3,0.1,0.7,0.2,1.1,0.1c5.6-1.6,12.2,2.5,13.1,8.3c0.4,3-0.2,6.1-1.7,8.8c-1.7,3.1-4.6,5-8.1,6.1"/>
<path class="st0" d="M145.3,12.9c0-6.5,4.9-11.8,10.9-11.8s10.9,5.3,10.9,11.8s-4.9,11.8-10.9,11.8"/>
<path d="M156.2,24.8v-0.2c6,0,10.8-5.2,10.8-11.7s-4.9-11.7-10.8-11.7s-10.8,5.2-10.8,11.7h-0.2c0-6.5,4.9-11.8,11-11.8
	s11,5.3,11,11.8S162.3,24.8,156.2,24.8z"/>
<path class="st1" d="M155.1,26c-0.3,0.4-0.1,1.8-0.2,2.5c0.3-0.1,0.5-0.1,0.6-0.2c1.8-1.7,3.9-2,6.2-2c2,0,4-0.7,5.6-1.9
	c0.5-0.4,0.7-0.7,0.3-1.3c-0.9-1.1-1.4-2.5-1.4-4c0.1-0.5,0.2-1,0.4-1.5c0.1-0.2,0.4-0.4,0.6-0.5c0.2,0.2,0.3,0.4,0.5,0.6
	c0.5,0.7,1,1.4,1.5,2.1c0.1,0.1,0.3,0.2,0.6,0.3c0.1-0.4,0.2-0.7,0.2-1.1c-0.2-1.4-0.5-2.8-0.8-4.2c-0.6-1.9-0.7-4-0.1-6
	c0.4-1.3,1.4-2.3,2.6-2.9c0.5-0.3,0.9-0.6,1.3-0.9c1.6-1.5,3.9-2,6-1.3c0.3,0.1,0.6,0.3,0.9,0.5c0.6,0.6,0.6,1.2-0.2,1.5
	c-4.3,1.8-6.3,5.3-6.7,9.7c-0.2,2.6-0.2,5.2,0,7.8c0.2,2.8-0.3,5.6-1.5,8.1c-0.5,1.1-1.3,2.1-2.4,2.7c-0.2,0.1-0.4,0.2-0.6,0.3
	l0.2,0.3h1.2c0,0.3,0,0.6-0.1,0.8c-0.9,1.2-2.2,1.9-3.7,2l-1.4,0.1c0.3,0.5,0.7,1.2,0.6,1.4c-0.4,0.4-0.9,0.6-1.5,0.8
	c-1.3,0.3-2.6,0.3-3.8-0.1c-0.3-0.1-0.6-0.1-1.2-0.1c0.1,0.3,0.3,0.5,0.5,0.7c1.2,1.2,2.4,2.4,3.6,3.6c0.4,0.3,0.7,0.2,1-0.2
	c2.8-3.9,6.9-4.9,11.3-5c0.1,0,0.2,0,0.2,0c0,0,0.1,0.1,0.2,0.2c-1.8,2.8-4.6,4.8-7.9,5.6c2.3-0.1,4.6,0.6,6.5,2
	c-2.4,1.2-4.8,1-7.3,0.6c1.4,0.9,2.5,2.2,3.2,3.6c-1.4,0-2.8-0.6-3.7-1.6c-0.7-0.7-1.3-1.6-2-2.4c-0.2-0.2-0.5-0.4-0.8-0.5
	c-0.2,0.3-0.5,0.7-0.5,1c0.1,1.6-0.3,3.1-1.3,4.4c-0.6,0.7-0.5,1.8,0.3,2.4c0.2,0.2,0.4,0.3,0.7,0.3c1.6,0.6,3.1,1.4,4.6,2.1
	c0.2,0.1,0.4,0.3,0.6,0.5c0.4,0.4,0.4,1,0,1.4c0,0,0,0-0.1,0.1c-0.4,0.2-0.8,0.3-1.2,0.1c-0.7-0.3-1.3-0.6-1.9-1L165,58l-1.9-1.8
	l0.1-0.2c0.2,0.1,0.4,0.3,0.6,0.4c1,0.6,2.1,1.2,3.1,1.7c0.3,0.1,0.6,0,0.8-0.2c0.1-0.3,0.2-0.6,0.1-0.9c-0.1-0.3-0.4-0.5-0.6-0.6
	c-1.6-0.7-3.1-1.4-4.7-2.1c-0.3-0.1-0.6,0-1.1,0.1l-0.1-2.5l-1.8-0.1l-0.1,1.9c-1.3,0-2.4,0-3.5,0c-0.5,0-0.9,0.3-0.9,0.8
	c0,0,0,0.1,0,0.1c0.1,0.3,0.5,0.6,0.8,0.9c0.2,0.1,0.3,0.2,0.5,0.2c1.8,0.4,3.6,1.1,5.1,2.2c1.1,0.8,2.1,1.7,3.2,2.6
	c0.3,0.2,0.7,0.3,1.1,0.2c0.5-0.3,0.3-0.8,0.1-1.2s-0.5-0.9-0.7-1.4c0.4,0.5,0.8,1.1,1.1,1.6c0.1,0.4,0,0.8-0.2,1.1
	c-0.3,0.2-0.7,0.2-1.1,0.1c-0.7-0.4-1.3-0.9-1.8-1.4c-2-1.8-4.4-3-7-3.6c-1.5-0.4-1.8-1.1-0.9-2.6c-1,0.2-2,0.3-3,0.6
	c-1.6,0.4-3.1,1.2-4.4,2.4c-0.3,0.3-0.7,0.5-1.1,0.7c-0.9,0.4-1.6-0.2-1.4-1.1c0.2-0.5,0.5-1,0.8-1.5c0.2-0.3,0.4-0.6,0.6-0.9
	c-0.5,0.1-1.1,0.2-1.6,0.3c-0.3,0.1-0.7,0.1-1,0c-0.3-0.1-0.7-0.4-0.8-0.7c-0.1-0.4,0.1-0.8,0.3-1.1c0.5-0.4,1.1-0.7,1.8-0.9
	c1.5-0.3,3-0.6,4.5-0.9c0.2-0.6,0-1.2-0.4-1.7c-0.9-1-1.3-2.4-1.4-3.7c0.1-1.1-0.4-2.2-1.2-2.9c-0.7-0.7-1.4-1.4-2-2.2
	c-0.3-0.3-0.7-0.5-1.1-0.3c-0.9,0.2-1.9,0.3-2.9,0.3c-0.3,0-0.8-0.2-0.8-0.3s0.1-0.6,0.3-0.9c0.1-0.2,0.2-0.3,0.2-0.5
	c-0.2,0-0.4,0.1-0.6,0.1c-0.9,0-1.9,0.1-2.8,0.1c-0.3,0-0.6-0.2-0.8-0.5c-0.1-0.1,0.3-0.5,0.4-0.8c0.1-0.2,0.3-0.3,0.4-0.4
	c-0.8,0.2-1.6,0.2-2.5,0.3c-1.4-0.1-2.7-0.9-3.4-2.1c-1-1.4-1.9-2.8-2.7-4.3c-1.2-2.3-3.1-4.1-5.4-5.3c-0.6-0.3-0.6-0.7-0.2-1.2
	c0.4-0.5,1.1-0.8,1.8-0.7c1,0.1,1.9,0.6,2.4,1.4c0.4,0.6,0.8,1.2,1.3,1.7c0-0.3-0.1-0.6-0.2-0.8c-0.4-0.8-0.8-1.7-1.1-2.5
	c-0.3-0.7-0.1-1.2,0.6-1.1c0.8,0.1,1.5,0.4,2.1,0.8c0.4,0.2,0.6,0.3,1,0.1c0.2-0.1,0.5-0.2,0.8-0.2c0.7,0,0.9,0.3,0.8,1
	c-0.1,0.8,0,1.6,0.1,2.5c0.1,0.4,0.5,0.7,0.7,1.1s0.4,0.4,0.5,0.6c0.2,0.9,0.9,1,1.6,1.2c1.7,0.4,3.4,0.3,5-0.1
	c1.7-0.4,6.4-1.7,6.4-1.7 M142.7,33.7c0.1,0.7,0.2,1.5,0.5,2.3c1.1,3.8,3.9,6.1,7.1,8c0.4,0.1,0.8,0.2,1.2,0.2
	c-0.1-0.4-0.2-0.7-0.4-1.1c-2.3-3.4-2.3-5.4-0.1-8.8c0.1-0.1,0.2-0.3,0.3-0.5c0.3-0.5,0.5-1.1,0.7-1.7c0.5-1.2,0-2.6-1.2-3.2
	c-1.6-1-3.6-1-5.3-0.1C143.7,29.8,142.6,31.7,142.7,33.7L142.7,33.7z M147.8,52.6c-0.4,0.5-1.2,1.4-1.9,2.3c-0.4,0.4-0.9,1-0.3,1.6
	s1.1,0.1,1.6-0.3h0.1c2.2-1.9,5.1-3,8-3.2c0.5,0,1.1,0,1-0.6c-0.1-0.5-0.4-0.8-0.8-1c-1.1-0.3-2.2-0.4-3.3-0.6l-0.1-1.4h-2v2h-0.2
	l-0.2-0.7c-1.8,0-3.6,0.4-5.2,1c-0.6,0.2-1.3,0.4-1.1,1.2s1,0.6,1.6,0.5C146.1,53.2,147.2,52.8,147.8,52.6L147.8,52.6z M156.6,53.2
	c0.4,0,0.8,0,1.2,0.1c1.2,0,1.6-0.5,1.3-1.7c-0.1-0.2-0.2-0.4-0.3-0.6c-0.3-0.4-0.6-0.8-0.8-1.2c-0.5-1.3-1.7-2.1-3.1-2.1
	c-1.6-0.1-1.7-0.1-2.3,1.3c-0.4,0.9-0.1,1.4,0.9,1.5c0.6,0.1,1.2,0.2,1.8,0.4C156.6,51.4,156.8,51.7,156.6,53.2L156.6,53.2z"/>
<path d="M165.2,61.3c-0.2,0-0.4,0-0.6-0.1c-0.7-0.4-1.3-0.9-1.9-1.5c-2-1.7-4.3-3-6.9-3.6c-0.8-0.2-1.3-0.5-1.5-1
	c-0.2-0.5-0.1-1.1,0.2-1.5l-0.4,0.1c-0.7,0.1-1.4,0.3-2,0.4c-1.6,0.4-3,1.2-4.3,2.3c-0.3,0.3-0.7,0.6-1.2,0.7
	c-0.5,0.2-1,0.2-1.4-0.1c-0.3-0.3-0.5-0.8-0.3-1.3c0.1-0.4,0.4-0.9,0.6-1.2l0.2-0.3L146,54l0.2-0.2l0,0c-0.4,0.1-0.8,0.2-1.1,0.2
	h-0.1c-0.3,0.1-0.7,0.1-1.1,0c-0.4-0.1-0.8-0.5-0.9-0.9c-0.1-0.5,0.1-1,0.4-1.3c0.6-0.4,1.2-0.7,1.9-0.9c1-0.3,2.1-0.4,3.2-0.6
	l1.2-0.2c0.1-0.5-0.1-1-0.4-1.3c-0.9-1.1-1.4-2.5-1.4-3.9c0.1-1-0.3-2-1.1-2.7c-0.6-0.5-1.1-1.1-1.6-1.7l-0.4-0.5
	c-0.3-0.3-0.4-0.3-0.9-0.2c-1,0.2-1.9,0.3-2.9,0.3c-0.3,0-1-0.2-1.1-0.5c0-0.3,0-0.6,0.2-0.9l0.1-0.2v-0.1h-0.2h-0.6
	c-0.7,0-1.5,0.1-2.2,0.1c-0.4-0.1-0.8-0.3-1-0.7c-0.1-0.2,0.1-0.5,0.3-0.8l0.1-0.2h-0.2c-0.6,0.1-1.1,0.2-1.7,0.1
	c-1.5-0.1-2.8-0.9-3.6-2.2c-1.1-1.5-2-3-2.7-4.3c-1.2-2.2-3-4.1-5.3-5.2c-0.3-0.1-0.5-0.3-0.6-0.6c0-0.3,0.1-0.7,0.3-0.9
	c0.5-0.6,1.2-0.9,2-0.8c1,0.1,2,0.7,2.6,1.5c0.1,0.2,0.3,0.4,0.4,0.6l0.1,0.2c-0.3-0.7-0.7-1.5-1-2.2c-0.2-0.3-0.2-0.8,0-1.1
	c0.2-0.3,0.6-0.4,0.9-0.3c0.8,0.1,1.5,0.4,2.2,0.8h0.1c0.3,0.2,0.4,0.2,0.7,0.1c0.3-0.2,0.6-0.3,0.9-0.3c0.3,0,0.6,0,0.9,0.2
	c0.2,0.3,0.3,0.7,0.2,1c-0.1,0.8,0,1.6,0.1,2.4c0.1,0.3,0.2,0.5,0.4,0.7c0.1,0.1,0.2,0.2,0.3,0.3c0.1,0.1,0.1,0.1,0.2,0.2
	c0.2,0.1,0.3,0.3,0.4,0.5c0.2,0.7,0.7,0.9,1.4,1.1c1.6,0.4,3.3,0.3,4.9-0.1c1.7-0.4,6.3-1.6,6.4-1.7l0.1,0.5c0,0-4.7,1.2-6.4,1.7
	c-1.7,0.5-3.4,0.5-5.1,0.1c-0.7-0.2-1.5-0.4-1.8-1.4c-0.1-0.1-0.1-0.2-0.2-0.3c-0.1-0.1-0.2-0.2-0.2-0.3l-0.2-0.3
	c-0.3-0.2-0.5-0.6-0.6-0.9c-0.1-0.8-0.2-1.7-0.1-2.5c0-0.3,0-0.5-0.1-0.6c-0.1-0.1-0.3-0.1-0.5-0.1c-0.2,0-0.4,0.1-0.6,0.2
	c-0.4,0.3-0.8,0.3-1.2,0h-0.1c-0.6-0.4-1.3-0.6-2.1-0.8c-0.1,0-0.3,0-0.4,0.1c-0.1,0.2-0.1,0.4,0.1,0.6c0.4,0.8,0.8,1.6,1.1,2.5
	c0.1,0.2,0.1,0.4,0.1,0.6c0,0.1,0,0.2,0,0.3l0.1,0.8l-0.6-0.6c-0.3-0.4-0.6-0.8-0.9-1.2l-0.4-0.6c-0.5-0.7-1.4-1.2-2.3-1.3
	c-0.6-0.1-1.2,0.1-1.6,0.6c-0.2,0.2-0.2,0.4-0.2,0.5s0.2,0.2,0.4,0.3c2.3,1.2,4.3,3.1,5.5,5.4c0.8,1.3,1.7,2.8,2.7,4.3
	c0.7,1.1,1.9,1.9,3.2,2c0.5,0,1.1,0,1.6-0.1l0.8-0.1l0.7-0.1l-0.5,0.5l-0.2,0.2c-0.1,0.1-0.2,0.2-0.2,0.2l-0.1,0.2
	c-0.1,0.1-0.2,0.2-0.2,0.3c0.1,0.2,0.3,0.3,0.6,0.4c0.7,0,1.4,0,2.1-0.1h0.6c0.1,0,0.3,0,0.4-0.1h0.2l0.3-0.1l-0.1,0.3
	c0,0.2-0.1,0.3-0.2,0.5l-0.1,0.1l-0.1,0.2c-0.1,0.2-0.2,0.4-0.2,0.6c0.2,0.1,0.4,0.2,0.6,0.2c0.9,0,1.9-0.1,2.8-0.3
	c0.2,0,0.5,0,0.7,0c-0.6-1-1.1-2-1.4-3.1c-0.2-0.6-0.3-1.2-0.4-1.7c0-0.2-0.1-0.4-0.1-0.6v-0.1c0-2.1,1.1-4,2.9-5.1
	c1.6-1,3.4-0.9,5.5,0.1c1.2,0.7,1.7,2.1,1.2,3.4c-0.1,0.5-0.3,0.9-0.5,1.3l-0.2,0.4c-0.1,0.1-0.1,0.2-0.2,0.4l-0.1,0.2
	c-2.1,3.3-2.1,5.2,0.1,8.5c0.1,0.2,0.3,0.5,0.3,0.8c0,0.1,0.1,0.2,0.1,0.3l0.1,0.4h-0.4h-0.4c-0.3,0-0.6,0-0.9-0.2
	c-0.7-0.4-1.5-0.9-2.2-1.4c0.3,0.6,0.4,1.3,0.4,2c0,1.3,0.5,2.6,1.3,3.6c0.2,0.2,0.3,0.4,0.4,0.7h2.3v-0.1c0.6-1.5,0.8-1.6,2.5-1.5
	c1.5-0.1,2.8,0.9,3.3,2.2c0.1,0.3,0.3,0.5,0.5,0.8c0.1,0.1,0.2,0.3,0.3,0.4l0.1,0.1c0.1,0.2,0.2,0.3,0.3,0.5l0,0l2.2,0.2
	c0.1-0.2,0.2-0.3,0.3-0.4c0.9-1.2,1.3-2.7,1.2-4.3c0-0.3,0.1-0.6,0.3-0.8c0.1-0.1,0.1-0.2,0.2-0.3l0.1-0.2l0.2,0.1l0.2,0.1
	c0.2,0.1,0.4,0.3,0.6,0.4c0.3,0.3,0.5,0.6,0.8,1c0.4,0.5,0.8,1,1.2,1.5c0.8,0.9,2,1.4,3.2,1.6c-0.6-1.1-1.5-2.1-2.6-2.8l-0.4-0.4
	l-0.7-0.6l0.9,0.1c2.2,0.6,4.6,0.4,6.8-0.4c-1.8-1.1-3.9-1.7-6.1-1.7l-1.3-0.1l1.3-0.4c3.1-0.8,5.8-2.7,7.6-5.3h-0.1
	c-5.3,0.1-8.8,1.6-11.1,4.9c-0.2,0.2-0.4,0.4-0.7,0.5c-0.2,0-0.5-0.1-0.6-0.3c-1.3-1.2-2.5-2.4-3.6-3.6c-0.1-0.1-0.2-0.3-0.3-0.4
	l-0.2-0.3l-0.3-0.4l0.5,0.1l0.5,0.1c0.2,0,0.5,0.1,0.7,0.1c1.2,0.4,2.5,0.4,3.7,0.1c0.5-0.1,0.9-0.3,1.3-0.6
	c-0.1-0.2-0.2-0.4-0.3-0.6c-0.1-0.2-0.2-0.4-0.3-0.6l-0.1-0.3l0.7-0.1l1-0.1c1.4,0,2.7-0.7,3.5-1.9c0.1-0.1,0.1-0.3,0.1-0.4l0,0h-1
	l-0.5-0.6l0.3-0.1l0.2-0.1l0.4-0.2c1-0.6,1.9-1.5,2.4-2.6c1.2-2.5,1.7-5.3,1.4-8c0-0.4,0-0.9,0-1.3c-0.1-2.2-0.1-4.3,0-6.5
	c0.5-4.9,2.8-8.2,6.8-9.9c0.3-0.1,0.4-0.3,0.5-0.5c0-0.3-0.1-0.5-0.3-0.6c-0.2-0.2-0.5-0.4-0.8-0.4c-2-0.6-4.2-0.1-5.8,1.3
	c-0.4,0.4-0.9,0.7-1.4,0.9c-1.1,0.6-2,1.6-2.4,2.8c-0.6,1.9-0.5,3.9,0.1,5.8c0.3,1.2,0.6,2.5,0.9,4.2c0,0.3,0,0.6-0.1,0.8
	c0,0.1-0.1,0.3-0.1,0.4l-0.1,0.3l-0.3-0.1l-0.3-0.1c-0.2,0-0.3-0.1-0.4-0.3c-0.3-0.5-0.7-0.9-1-1.4l-0.5-0.7l-0.3-0.4l0,0l0,0
	c-0.1,0.1-0.2,0.2-0.3,0.3c-0.2,0.4-0.3,0.9-0.4,1.4c0,1.4,0.4,2.7,1.3,3.8c0.4,0.4,0.4,1,0,1.4c-0.1,0.1-0.2,0.2-0.3,0.2
	c-1.7,1.2-3.7,1.9-5.7,1.9c-2.1,0-4.3,0.3-6.1,2c-0.1,0.1-0.3,0.2-0.4,0.2l-0.3,0.1l-0.4,0.1v-0.4c0-0.2,0-0.5,0-0.9
	c-0.1-0.6,0-1.2,0.2-1.8l0.4,0.3c-0.1,0.5-0.2,1-0.1,1.5c0,0.2,0,0.4,0,0.6c0.1,0,0.1,0,0.2-0.1c1.9-1.8,4.2-2.1,6.4-2.1
	c2,0,3.9-0.7,5.4-1.8c0.4-0.3,0.5-0.5,0.2-1c-0.9-1.2-1.4-2.6-1.4-4.1c0.1-0.5,0.2-1,0.4-1.5c0.1-0.2,0.3-0.4,0.5-0.5l0.2-0.1
	l0.2-0.2l0.1,0.2l0.1,0.2l0.3,0.4l0.5,0.7c0.3,0.4,0.7,0.9,1,1.4c0.1,0,0.1,0.1,0.2,0.1l0,0v-0.1c0.1-0.2,0.1-0.4,0.1-0.6
	c-0.3-1.7-0.6-3-0.8-4.2c-0.6-2-0.7-4.1-0.1-6.1c0.5-1.3,1.4-2.4,2.7-3c0.5-0.2,0.9-0.5,1.3-0.9c1.7-1.5,4.1-2,6.3-1.4
	c0.4,0.1,0.7,0.3,1,0.6c0.3,0.2,0.5,0.7,0.5,1.1c-0.1,0.4-0.4,0.7-0.8,0.8c-3.9,1.6-6.1,4.8-6.5,9.5c-0.1,2.2-0.1,4.3,0,6.5
	c0,0.4,0,0.9,0,1.3c0.2,2.8-0.3,5.6-1.5,8.2c-0.5,1.2-1.4,2.2-2.6,2.8l-0.2,0.1h1.1v0.3c0,0.1,0,0.2,0,0.3c0,0.2,0,0.5-0.1,0.7
	c-0.9,1.3-2.3,2-3.9,2.1l-1.1,0.1l0,0l0.1,0.2c0.3,0.6,0.5,0.9,0.3,1.1c-0.5,0.4-1,0.7-1.6,0.8c-1.3,0.3-2.7,0.3-4-0.1
	c-0.2,0-0.4-0.1-0.6-0.1l0,0c0,0.1,0.1,0.2,0.2,0.3c1.1,1.1,2.4,2.4,3.6,3.5c0.1,0.1,0.2,0.1,0.3,0.1c0.1,0,0.3-0.1,0.3-0.3
	c3.1-4.3,7.8-5,11.5-5.1c0.1,0,0.2,0,0.3,0.1c0.1,0,0.1,0.1,0.2,0.1l0.1,0.1l0.2,0.1l-0.1,0.2c-1.6,2.5-4,4.4-6.9,5.3
	c2,0.1,3.9,0.8,5.5,2l0.3,0.2l-0.3,0.2c-2.1,0.9-4.4,1.2-6.6,0.7c1.1,0.8,2,1.9,2.6,3.2l0.1,0.3h-0.4c-1.5,0-2.9-0.6-3.9-1.7
	c-0.5-0.5-0.9-1-1.3-1.5c-0.2-0.3-0.5-0.6-0.7-0.9c-0.1-0.1-0.3-0.2-0.4-0.3h-0.1l-0.1,0.1c-0.1,0.1-0.2,0.3-0.3,0.5
	c0.1,1.6-0.3,3.3-1.3,4.6c-0.3,0.4-0.4,0.9-0.3,1.3c0.2,0.5,0.6,0.8,1.1,1c1.2,0.5,2.4,1.1,3.6,1.6l1,0.5c0.3,0.2,0.5,0.4,0.7,0.6
	c0.5,0.5,0.4,1.3-0.1,1.8c-0.4,0.3-1,0.4-1.4,0.2c-0.5-0.2-0.9-0.4-1.3-0.6l-0.1-0.1v0.1l0.3,0.4c0.3,0.4,0.6,0.8,0.8,1.2
	c0.1,0.5,0,1-0.3,1.4C165.7,61.4,165.4,61.4,165.2,61.3z M157.2,53.9c-0.5,0-0.9,0-1.4,0c-0.2,0-0.4,0.1-0.6,0.3
	c-0.1,0.1-0.1,0.3-0.1,0.4c0,0.2,0.3,0.4,0.5,0.6l0.2,0.2c0.1,0,0.2,0.1,0.3,0.1h0.1c1.9,0.4,3.6,1.2,5.2,2.2
	c0.6,0.4,1.1,0.9,1.7,1.3s1,0.8,1.5,1.2c0.2,0.2,0.6,0.2,0.9,0.2c0.1,0,0.1-0.1,0.2-0.2c0-0.1,0-0.3-0.2-0.7s-0.4-0.6-0.5-1
	l-0.2-0.4l0,0l-2.1-1.9l0.4-0.5l0.2,0.1l0.2,0.1c0.1,0.1,0.3,0.2,0.4,0.3l0.6,0.3c0.8,0.5,1.7,0.9,2.5,1.4c0.2,0,0.4,0,0.5-0.1
	c0.1-0.2,0.1-0.5,0-0.7c-0.1-0.2-0.3-0.4-0.5-0.4c-1.3-0.6-3-1.4-4.7-2.1c-0.2,0-0.4,0-0.5,0l-0.5,0.1h-0.3l-0.1-2.5l-1.4-0.1
	l-0.1,1.9h-2.3L157.2,53.9z M164.2,57l0.3,0.3v-0.1L164.2,57L164.2,57z M148.5,52.2l-0.5,0.6l-0.4,0.4c-0.4,0.5-1,1.1-1.5,1.8
	l-0.1,0.1c-0.4,0.6-0.6,0.8-0.3,1.1s0.7,0.1,1.3-0.3l0.1-0.1l0,0c2-1.9,4.6-2.9,8.2-3.3h0.1c0.6-0.1,0.7-0.1,0.7-0.3
	c-0.1-0.3-0.3-0.6-0.7-0.8c-0.8-0.2-1.5-0.4-2.3-0.5l-1-0.2h-0.2l-0.1-1.4h-1.5v2h-0.6l-0.2-0.7c-1.7,0-3.4,0.3-5,0.9h-0.1
	c-0.7,0.3-1,0.4-0.9,0.9s0.5,0.5,1.3,0.4h0.1c0.8-0.2,1.6-0.4,2.2-0.6l0.5-0.1L148.5,52.2z M161.5,53.5v0.7h0.2c0.1,0,0.3,0,0.4,0
	C161.9,54,161.7,53.7,161.5,53.5L161.5,53.5z M155.4,53.3l-0.1,0.2l-0.1,0.2c0.2-0.1,0.4-0.2,0.7-0.2h0.5v-0.2V53
	C156,53.2,155.7,53.3,155.4,53.3L155.4,53.3z M146.9,53.2l-0.1,0.3l0,0l0.3-0.4L146.9,53.2z M158.6,53.4h0.4v-0.3
	C158.9,53.3,158.8,53.4,158.6,53.4L158.6,53.4z M156.8,53h0.1h0.8c0.4,0.1,0.7-0.1,1-0.3c0.2-0.3,0.2-0.8,0-1.1
	c-0.1-0.1-0.1-0.3-0.2-0.4l-0.1-0.1c-0.1-0.1-0.2-0.3-0.3-0.4c-0.2-0.3-0.4-0.6-0.5-0.9c-0.5-1.2-1.6-2-2.9-1.9
	c-1.5-0.1-1.5-0.1-2,1.2c-0.3,0.3-0.2,0.8,0.1,1c0.2,0.1,0.4,0.2,0.6,0.2c0.6,0.1,1.2,0.2,1.9,0.4C156.7,51.2,157.1,51.6,156.8,53
	L156.8,53z M152.4,50.6h0.1l-0.2-0.1L152.4,50.6z M142.9,33.8c0,0.2,0.1,0.4,0.1,0.6c0.1,0.5,0.2,1.1,0.3,1.6c1.1,4,4.1,6.2,7,7.9
	c0.2,0.1,0.4,0.1,0.7,0.1h0.1l0,0c0-0.2-0.1-0.4-0.3-0.6c-2.3-3.5-2.4-5.6-0.1-9l0.1-0.2c0.1-0.1,0.1-0.2,0.2-0.3l0.2-0.4
	c0.2-0.4,0.4-0.8,0.5-1.2c0.4-1.1,0-2.3-1-2.9c-1.5-0.9-3.4-1-5-0.1C144,30.1,142.9,31.8,142.9,33.8L142.9,33.8z"/>
<path class="st2" d="M165,58.1c0.2,0.4,0.4,0.9,0.7,1.4s0.4,0.9-0.1,1.2c-0.4,0.1-0.8,0-1.1-0.2c-1.1-0.8-2.1-1.8-3.2-2.6
	c-1.5-1.1-3.3-1.8-5.1-2.2c-0.2,0-0.4-0.1-0.5-0.2c-0.3-0.3-0.7-0.6-0.8-0.9c0-0.5,0.3-0.9,0.8-0.9c0,0,0.1,0,0.1,0
	c1.1-0.1,2.2,0,3.5,0l0.1-1.9l1.8,0.1l0.1,2.5c0.5,0,0.9-0.2,1.1-0.1c1.6,0.7,3.1,1.4,4.7,2.1c0.3,0.1,0.5,0.3,0.6,0.6
	c0.1,0.3,0.1,0.6-0.1,0.9c-0.2,0.2-0.5,0.3-0.8,0.2c-1.1-0.5-2.1-1.1-3.1-1.7c-0.2-0.1-0.4-0.3-0.6-0.4l-0.1,0.2L165,58.1
	C165,58.1,165,58.1,165,58.1z"/>
<path class="st3" d="M142.6,33.7c0-2,1.1-3.9,2.8-4.9c1.6-0.9,3.7-0.9,5.3,0.1c1.1,0.6,1.6,2,1.2,3.2c-0.2,0.6-0.4,1.2-0.7,1.7
	c-0.1,0.2-0.2,0.3-0.3,0.5c-2.2,3.4-2.2,5.4,0.1,8.8c0.2,0.3,0.3,0.7,0.4,1.1c-0.4,0-0.8,0-1.2-0.2c-3.2-1.9-6-4.2-7.1-8
	C142.9,35.2,142.8,34.4,142.6,33.7z"/>
<path class="st3" d="M158.4,21.5c-0.5-3.1-2.8-5.2-4-7.9c-1.3-2.4-1.3-5.3-0.2-7.7c0.7-1.4,2.4-2,3.8-1.3c0.4,0.2,0.7,0.5,1,0.8
	c0.4,0.5,0,0.7-0.2,1c-1.4,1.4-2,3.4-1.5,5.4c0.3,0.8,0.7,1.6,1.1,2.4l-0.6,0.3c1.2,0,2.6,0,3.9,0c0.7,0,0.9,0.3,0.8,0.9
	c-0.4,2.3-1.6,4.4-3.4,5.7C158.8,21.3,158.6,21.5,158.4,21.5z"/>
<path class="st2" d="M147.8,52.7c-0.6,0.1-1.6,0.5-2.7,0.7c-0.6,0.1-1.4,0.3-1.6-0.5s0.6-1,1.1-1.2c1.7-0.6,3.4-1,5.2-1l0.2,0.7h0.2
	v-2h2l0.1,1.4c1.2,0.2,2.3,0.3,3.3,0.6c0.4,0.2,0.7,0.5,0.8,1c0,0.6-0.6,0.6-1,0.6c-2.9,0.1-5.8,1.3-8,3.2h-0.1
	c-0.5,0.4-1.1,0.8-1.6,0.3s0-1.1,0.3-1.6C146.6,54,147.4,53.2,147.8,52.7z"/>
<path class="st3" d="M156.5,53.3c0.3-1.5,0.1-1.9-1.3-2.3c-0.6-0.2-1.2-0.3-1.8-0.4c-1-0.1-1.3-0.6-0.9-1.5c0.6-1.4,0.7-1.4,2.3-1.3
	c1.4-0.1,2.6,0.8,3.1,2.1c0.2,0.4,0.5,0.8,0.8,1.2c0.1,0.2,0.2,0.4,0.3,0.6c0.3,1.2-0.1,1.7-1.3,1.7C157.3,53.3,157,53.3,156.5,53.3
	z"/>
<ellipse transform="matrix(0.5 -0.866 0.866 0.5 70.6255 143.7838)" cx="159.8" cy="10.7" rx="5.2" ry="4"/>
<path class="st3" d="M160.7,13.9c0.7-0.6,1.1-1.6,0.9-2.5l-1.5,0.9c0.2-0.8,0.3-1.5,0.4-2.1s-0.2-0.8-0.7-0.8
	c-1.2,0-1.8,0.8-2.2,1.9c-0.1-0.2-0.1-0.4-0.1-0.5c0.1-0.7,0.3-1.4,0.6-2.1c0.5-1.3,1.9-1.9,3.2-1.6c1.2,0.5,2,1.7,1.8,3
	C163.2,11.8,162.2,13.3,160.7,13.9z"/>
<path d="M148.2,16.9c0,0-0.4-3,1-3.6s6.6,0.8,6.2,3.9s-3,7.6-3,7.6l-5.4,2l-1.8-2.5c0,0,2.5-2.1,3-3.6
	C148.5,19.4,148.5,18.1,148.2,16.9z"/>
<path class="st2" d="M155.4,16.2c0.7,1,1.3,2,1.9,3.1c1,2.2,0.2,4.6-1.8,6.4c-2.9,2.4-7,2.7-10.2,0.8c-0.3-0.2-0.6-0.4-0.8-0.6
	c-0.8-0.8-0.6-1.5,0.5-1.9c1.1-0.3,2-1.2,2.3-2.3c0.4-1.4,0.7-3,1-4.5c0-0.3,0-0.6,0-0.8c0.5,0.2,1,0.3,1.4,0.5
	c0.2,0.1,0.4,0.3,0.4,0.4c-0.2,2.2-0.3,4.5-1.9,6.3c-0.5,0.5-1,0.9-1.6,1.3c0.4,0.1,0.9,0.2,1.3,0.3c1.9,0,3.7-0.9,4.9-2.4
	c1.3-1.5,2.1-3.4,2.3-5.3c0-0.3,0.1-0.7,0.2-1L155.4,16.2z"/>
<ellipse cx="148.6" cy="15.1" rx="1.9" ry="1"/>
<path class="st2" d="M155.1,3.4c-3,3.9-3.1,6.7-0.6,11.6c-0.8,1-2,1.4-3.3,1.3c-1.5-0.2-2.9-0.7-4.2-1.5c-1-0.5-2-0.9-3.1-1.3
	c-1.5-0.5-3.1,0.2-3.7,1.7c-0.1,0.3-0.2,0.7-0.2,1c0,0.1,0,0.2,0,0.2c-0.2,0.3-0.3,0.7-0.6,0.8s-0.7-0.2-0.8-0.4
	c-0.4-0.8-0.8-1.6-1-2.4c-0.8-3.6-0.6-7,1.8-10c2.2-2.8,5.3-3.7,8.7-3.5c2.3,0.2,4.4,0.9,6.4,2.1C154.8,3.1,154.9,3.3,155.1,3.4z"/>
<path class="st4" d="M139.3,17.3c-0.3,0-0.6-0.2-0.8-0.5l-0.1-0.1c-0.4-0.7-0.8-1.5-1-2.3c-0.9-4.1-0.3-7.4,1.8-10s5-3.8,8.8-3.5
	c2.3,0.2,4.5,0.9,6.4,2.1c0.1,0.1,0.3,0.2,0.4,0.3l0.2,0.2h0.1v0.1c-3,3.9-3.1,6.7-0.6,11.5l0,0l0,0c-0.8,1-2.1,1.5-3.4,1.3
	c-1.4-0.2-2.7-0.6-3.9-1.3l-0.4-0.2c-1-0.5-2-0.9-3.1-1.3c-0.8-0.3-1.8-0.2-2.5,0.3c-0.7,0.6-1.2,1.4-1.2,2.3c0,0,0,0.1,0,0.1
	c0,0.1,0,0.1,0,0.2l-0.1,0.2c-0.1,0.2-0.3,0.5-0.5,0.6L139.3,17.3z M147.2,1c-3-0.1-5.9,1.2-7.8,3.5c-2.1,2.6-2.7,5.9-1.8,9.9
	c0.2,0.8,0.6,1.6,1,2.3l0.1,0.1c0.2,0.2,0.4,0.4,0.7,0.4c0.1-0.1,0.3-0.3,0.4-0.5l0.1-0.2c0,0,0-0.1,0-0.1c0,0,0-0.1,0-0.1
	c0-1,0.5-1.9,1.3-2.5c0.8-0.5,1.8-0.6,2.7-0.3c1.1,0.3,2.1,0.7,3.1,1.3l0.4,0.2c1.2,0.7,2.5,1.1,3.8,1.3c1.2,0.1,2.4-0.3,3.2-1.2
	c-2.5-4.8-2.3-7.6,0.6-11.5l-0.1-0.1c-0.1-0.1-0.2-0.2-0.3-0.3c-2-1.2-4.2-1.9-6.5-2.1L147.2,1z"/>
<path d="M129,62c-1.9,0-3.4-1.5-3.4-3.4s1.5-3.4,3.4-3.4c1.9,0,3.4,1.5,3.4,3.4v0C132.4,60.5,130.9,62,129,62z M129,55.6
	c-1.7,0-3,1.3-3,3s1.3,3,3,3s3-1.3,3-3C132,57,130.7,55.6,129,55.6C129,55.6,129,55.6,129,55.6L129,55.6z"/>
<path d="M127.7,57c0.3,0,0.7-0.1,1-0.1c0.4,0,0.8,0.1,1.1,0.3c0.2,0.1,0.3,0.4,0.3,0.6c0,0.4-0.3,0.8-0.8,0.8l0,0
	c0.3,0.1,0.5,0.3,0.6,0.7c0.1,0.3,0.2,0.6,0.3,0.9h-0.5c-0.1-0.2-0.2-0.5-0.3-0.8c0-0.4-0.4-0.7-0.8-0.6h-0.5v1.4h-0.5L127.7,57z
	 M128.3,58.5h0.5c0.6,0,0.9-0.3,0.9-0.6s-0.4-0.6-0.9-0.6c-0.2,0-0.3,0-0.5,0L128.3,58.5z"/>
</svg>
