<?xml version="1.0" encoding="utf-8"?>
<!-- Generator: Adobe Illustrator 21.1.0, SVG Export Plug-In . SVG Version: 6.00 Build 0)  -->
<svg version="1.1" id="Layer_1" xmlns="http://www.w3.org/2000/svg" xmlns:xlink="http://www.w3.org/1999/xlink" x="0px" y="0px"
	 viewBox="0 0 235.8 56.2" style="enable-background:new 0 0 235.8 56.2;" xml:space="preserve">
<style type="text/css">
	.st0{fill:#DB1F28;}
</style>
<title>Fast Casual</title>
<path class="st0" d="M234.3,16.8c0.7,1.1,1,2.3,0.9,3.6c0.2,2.8-1.2,5.4-3.5,7c-2.3,1.6-5.4,2.4-9.4,2.4c-1.7,0-3.3-0.2-4.9-0.7
	c-0.7-0.2-1.4-0.5-2.1-0.8c-0.6-0.3-1.2-0.7-1.8-1.1c-1-0.8-1.9-1.8-2.5-2.9c-0.3-0.5-0.5-1-0.6-1.5c-0.1-0.5-0.2-1-0.3-1.6h8.1
	c0.1,0.5,0.3,0.9,0.6,1.3c0.3,0.4,0.6,0.7,1.1,0.9l0,0c0.8,0.5,1.8,0.8,2.8,0.8c0.6,0,1.1,0,1.6-0.1c0.5-0.1,0.9-0.2,1.3-0.5l0,0
	c0.8-0.3,1.3-1.1,1.3-1.9c0-0.9-0.7-1.7-1.5-2l-0.5-0.2l-0.6-0.2l-1.4-0.4l-1.7-0.5l-2.2-0.6c-0.7-0.2-1.3-0.3-1.9-0.5
	c-0.5-0.2-1.1-0.4-1.6-0.6c-0.5-0.3-1-0.5-1.6-0.8l0,0c-0.5-0.3-1-0.6-1.4-1c-0.4-0.4-0.7-0.9-1-1.4c-1.8-3.5-0.8-7.8,2.3-10.2
	c2.6-1.6,5.6-2.4,8.7-2.3c1.7,0,3.3,0.2,4.9,0.7c1.3,0.4,2.5,1,3.6,1.8c0.5,0.4,0.9,0.8,1.3,1.3c0.4,0.4,0.7,0.9,0.9,1.5
	c0.1,0.2,0.1,0.3,0.2,0.5c0.1,0.2,0.1,0.3,0.2,0.5c0.3,0.6,0.5,1.3,0.6,2h-8c-0.2-0.8-0.7-1.5-1.5-1.9l0,0c-0.8-0.4-1.7-0.6-2.6-0.6
	c-0.8,0-1.6,0.1-2.4,0.5c-0.6,0.3-1,0.9-0.9,1.6c0,1,0.6,1.8,1.5,2.1c1.4,0.6,2.8,1,4.3,1.3l0,0c0.8,0.2,1.6,0.4,2.3,0.6
	s1.3,0.4,1.8,0.6c1.1,0.4,2.1,0.8,3.1,1.5C233,15.2,233.8,15.9,234.3,16.8z"/>
<path class="st0" d="M207.7,1.4l-10.2,17.3c0,0,0,0.1,0,0.1V29H189V19c0,0,0-0.1,0-0.1L178.8,1.5h9.4l4.8,9.4
	c0.1,0.1,0.2,0.2,0.4,0.2c0.2,0,0.3-0.1,0.4-0.2l4.8-9.4L207.7,1.4z"/>
<path class="st0" d="M156.9,20.1c0.1,0.6,0.3,1.3,0.7,1.8c0.4,0.5,0.9,1,1.5,1.2c0.8,0.3,1.6,0.5,2.4,0.4c1.4,0.1,2.7-0.4,3.7-1.5
	c0.4-0.5,0.7-1.1,0.8-1.8c0.2-0.8,0.3-1.5,0.3-2.3V1.4h8.5v15.7c0,2-0.2,3.9-0.8,5.8c-0.5,1.5-1.3,2.8-2.4,3.9
	c-1.2,1-2.6,1.8-4.1,2.2c-2,0.5-4,0.8-6,0.8c-1,0-2.1,0-3.1-0.2c-0.9-0.1-1.8-0.3-2.7-0.5l0,0c-1.5-0.4-2.9-1.1-4.1-2.1l0,0
	c-1.2-1-2.1-2.4-2.6-3.9c-0.3-0.9-0.5-1.8-0.6-2.7c-0.2-1.1-0.2-2.2-0.2-3.3V1.4h8.5V18c0,0.4,0,0.8,0,1.1S156.9,19.8,156.9,20.1
	L156.9,20.1z"/>
<path class="st0" d="M142,14.2v14.9h-5.2l-0.3-2.4c0-0.1-0.1-0.2-0.1-0.3c-0.1-0.1-0.2-0.1-0.3-0.1c-0.2,0-0.3,0.1-0.3,0.2
	c-0.4,0.5-0.9,0.9-1.4,1.3c-0.6,0.4-1.2,0.8-1.8,1.1c-0.7,0.3-1.5,0.5-2.3,0.6c-0.9,0.2-1.8,0.2-2.7,0.2c-0.9,0-1.8-0.1-2.7-0.2
	c-0.8-0.1-1.7-0.3-2.5-0.6c-1.6-0.6-3-1.5-4.2-2.6c-0.6-0.6-1.2-1.3-1.7-2c-0.5-0.8-0.9-1.6-1.3-2.5c-0.7-2-1.1-4.1-1-6.2
	c0-1.1,0.1-2.1,0.2-3.2c0.2-1,0.4-1.9,0.8-2.9l0,0c0.3-0.9,0.7-1.7,1.2-2.5c0.5-0.8,1-1.5,1.7-2.2c0.6-0.7,1.3-1.2,2.1-1.8
	c0.8-0.5,1.6-1,2.5-1.3c0.9-0.4,1.8-0.6,2.8-0.8c1.1-0.2,2.1-0.3,3.2-0.3c3.1-0.1,6.2,0.8,8.7,2.6c2.3,1.7,3.8,4.3,4.3,7.1h-8
	c-0.2-0.5-0.4-1-0.8-1.4c-0.3-0.4-0.6-0.8-1-1.1c-1-0.7-2.1-1-3.3-1c-1.8-0.1-3.5,0.9-4.4,2.4c-1,1.9-1.5,4.1-1.4,6.3
	c0,1,0.1,2.1,0.3,3.1c0.2,0.9,0.5,1.8,1.1,2.6c0.5,0.8,1.2,1.4,2,1.8c0.9,0.4,2,0.7,3,0.6c1.1,0,2.2-0.4,3.1-1l0,0
	c0.5-0.3,0.9-0.7,1.3-1.2c0.3-0.4,0.6-0.9,0.7-1.4c0.1-0.3-0.1-0.5-0.4-0.5h-3.7v-5.4H142z"/>
<path class="st0" d="M95.7,23.2V29H72.8V1.4h22.3v5.8H81.7c-0.2,0-0.4,0.1-0.4,0.3c0,0,0,0.1,0,0.1v4.1c0,0.2,0.1,0.4,0.3,0.4
	c0,0,0.1,0,0.1,0H93v5.8H81.7c-0.2,0-0.4,0.1-0.4,0.3c0,0,0,0.1,0,0.1v4.4c0,0.2,0.1,0.4,0.3,0.4c0,0,0.1,0,0.1,0L95.7,23.2z"/>
<path class="st0" d="M68,1.4L58.4,29h-8.8L40.2,1.4h8.5L53.6,20c0.1,0.2,0.2,0.3,0.4,0.3c0.2,0,0.4-0.1,0.4-0.3l5.1-18.6H68z"/>
<rect x="26.8" y="1.4" class="st0" width="8.5" height="27.6"/>
<path class="st0" d="M21.8,1.4v5.8H9.4C9.2,7.2,9,7.4,9,7.6c0,0,0,0.1,0,0.1v5.2c0,0.2,0.1,0.4,0.3,0.4c0,0,0.1,0,0.1,0h9.8V19H9.4
	C9.2,19,9,19.1,9,19.3c0,0,0,0.1,0,0.1V29H0.5V1.4H21.8z"/>
<path class="st0" d="M207.7,1.4h-9.3l-4.8,9.4c0,0.2-0.2,0.3-0.4,0.2c-0.2,0-0.3-0.1-0.4-0.2l-4.8-9.4h-9.4l10.2,17.5
	c0,0,0,0.1,0,0.1v10h8.5V18.8c0,0,0-0.1,0-0.1L207.7,1.4z"/>
<path class="st0" d="M167.5,29c1.5-0.4,2.9-1.2,4.1-2.2c1.1-1.1,1.9-2.4,2.4-3.9c0.6-1.9,0.8-3.8,0.8-5.8V1.4h-8.5V18
	c0,0.8-0.1,1.6-0.3,2.3c-0.1,0.6-0.4,1.3-0.8,1.8c-0.9,1.1-2.3,1.6-3.7,1.5c-0.8,0-1.7-0.1-2.4-0.4c-0.6-0.3-1.1-0.7-1.5-1.2
	c-0.3-0.6-0.6-1.2-0.7-1.9l0,0c-0.1-0.3-0.1-0.7-0.1-1s0-0.8,0-1.1V1.4h-8.5V17c0,1.1,0.1,2.2,0.2,3.3c0.1,0.9,0.3,1.8,0.6,2.7
	c0.5,1.5,1.4,2.8,2.6,3.9l0,0c1.2,1,2.6,1.7,4.1,2.1l0,0c0.9,0.2,1.8,0.4,2.7,0.5c1,0.1,2.1,0.2,3.1,0.2
	C163.5,29.7,165.6,29.5,167.5,29z"/>
<path class="st0" d="M118.2,26.2c1.2,1.2,2.6,2.1,4.2,2.6c0.8,0.3,1.7,0.5,2.5,0.6c0.9,0.1,1.8,0.2,2.7,0.2c0.9,0,1.8-0.1,2.7-0.2
	c0.8-0.1,1.5-0.4,2.3-0.6c0.6-0.3,1.2-0.7,1.8-1.1c0.5-0.4,1-0.8,1.4-1.3c0-0.1,0.1-0.2,0.3-0.2c0.1,0,0.2,0,0.3,0.1
	c0.1,0.1,0.1,0.1,0.1,0.3l0.3,2.4h5.2V14.2h-11.9v5.4h3.7c0.3,0,0.4,0.2,0.4,0.5c-0.1,0.5-0.4,1-0.7,1.4c-0.4,0.5-0.8,0.8-1.3,1.2
	l0,0c-0.9,0.6-2,1-3.1,1c-1,0-2.1-0.2-3-0.6c-0.8-0.4-1.5-1-2-1.8c-0.5-0.8-0.9-1.6-1.1-2.6c-0.2-1-0.3-2-0.3-3.1
	c-0.1-2.2,0.4-4.3,1.4-6.3c0.9-1.6,2.6-2.5,4.4-2.4c1.2,0,2.3,0.3,3.3,1c0.4,0.3,0.7,0.7,1,1.1c0.3,0.4,0.6,0.9,0.8,1.4h8
	c-0.4-2.8-2-5.4-4.3-7.1c-2.5-1.8-5.6-2.7-8.7-2.6c-1.1,0-2.1,0.1-3.2,0.3c-1,0.2-1.9,0.4-2.8,0.8c-0.9,0.4-1.7,0.8-2.5,1.3
	c-0.8,0.5-1.5,1.1-2.1,1.8c-0.6,0.7-1.2,1.4-1.7,2.2c-0.5,0.8-0.9,1.6-1.2,2.5l0,0c-0.3,0.9-0.6,1.9-0.8,2.9c-0.2,1-0.2,2.1-0.2,3.2
	c-0.1,2.1,0.3,4.2,1,6.2c0.3,0.9,0.8,1.7,1.3,2.5C116.9,24.9,117.5,25.6,118.2,26.2z"/>
<path class="st0" d="M95.7,29v-5.8h-14c-0.2,0-0.4-0.1-0.4-0.3c0,0,0-0.1,0-0.1v-4.4c0-0.2,0.1-0.4,0.3-0.4c0,0,0.1,0,0.1,0H93v-5.9
	H81.7c-0.2,0-0.4-0.1-0.4-0.3c0,0,0-0.1,0-0.1V7.6c0-0.2,0.1-0.4,0.3-0.4c0,0,0.1,0,0.1,0h13.4V1.4H72.8V29L95.7,29z"/>
<path class="st0" d="M68,1.4h-8.5L54.4,20c0,0.2-0.2,0.4-0.4,0.3c-0.2,0-0.3-0.1-0.4-0.3L48.7,1.4h-8.5L49.6,29h8.8L68,1.4z"/>
<path class="st0" d="M35.4,1.4h-8.5V29h8.5L35.4,1.4z"/>
<path class="st0" d="M21.8,7.3V1.4H0.5V29H9v-9.6c0-0.2,0.1-0.4,0.3-0.4c0,0,0.1,0,0.1,0h9.8v-5.8H9.4c-0.2,0-0.4-0.1-0.4-0.3
	c0,0,0-0.1,0-0.1V7.7c0-0.2,0.1-0.4,0.3-0.4c0,0,0.1,0,0.1,0L21.8,7.3z"/>
<path class="st0" d="M235.3,2c0,0.8-0.6,1.5-1.5,1.5c-0.8,0-1.5-0.6-1.5-1.5c0-0.8,0.6-1.5,1.5-1.5c0,0,0,0,0.1,0
	C234.6,0.5,235.3,1.1,235.3,2C235.3,2,235.3,2,235.3,2z M232.7,2c0,0.6,0.5,1.1,1.1,1.1c0.6,0,1.1-0.5,1.1-1.1
	c0.1-0.6-0.4-1.2-1-1.2c-0.6-0.1-1.2,0.4-1.2,1C232.6,1.8,232.6,1.9,232.7,2L232.7,2z M233.6,2.7h-0.3V1.3c0.2,0,0.4,0,0.6,0
	c0.2,0,0.4,0,0.5,0.1c0.1,0.1,0.2,0.2,0.1,0.3c0,0.2-0.1,0.3-0.3,0.3l0,0c0.1,0,0.2,0.2,0.3,0.4c0,0.1,0.1,0.2,0.1,0.4h-0.4
	c-0.1-0.1-0.1-0.2-0.1-0.4c0-0.2-0.1-0.2-0.3-0.2h-0.2L233.6,2.7z M233.6,1.9h0.2c0.2,0,0.3-0.1,0.3-0.2s-0.1-0.2-0.3-0.2h-0.2V1.9z
	"/>
<path class="st0" d="M26.4,43.4c-0.1-0.1-0.1-0.3-0.1-0.5c0-0.3,0.1-0.6,0.3-0.7c0.3-0.2,0.6-0.2,0.9-0.2c0.3,0,0.7,0.2,0.8,0.5
	c0.7-0.3,1.4-0.5,2.2-0.6c0.7-0.1,1.4-0.2,2.1-0.2c0.7,0,1.4,0.2,2.1,0.5c0.5,0.3,0.8,0.8,0.8,1.4c0,0.6-0.2,1.1-0.6,1.6
	c-0.4,0.6-1,1.1-1.7,1.3c0.5,0,1.1,0.1,1.6,0.2c0.4,0.1,0.7,0.2,1,0.4c0.3,0.2,0.6,0.5,0.8,0.8c0.2,0.4,0.4,0.8,0.3,1.3
	c0.1,1.8-0.9,3.4-2.5,4.1c-1.3,0.7-2.8,1.3-4.2,1.8c-0.9,0.3-1.9,0.4-2.8,0.4c-0.3,0-0.6-0.1-0.9-0.3c-0.2-0.2-0.3-0.4-0.3-0.7
	c0-0.3,0.1-0.5,0.3-0.7L26.4,43.4z M28.3,46.9c1.3-0.1,2.5-0.5,3.6-1.2c1-0.7,1.5-1.3,1.5-1.9c0-0.3-0.5-0.4-1.5-0.4
	c-1.3,0.1-2.5,0.4-3.7,1L28.3,46.9z M28.3,53.7c0.7-0.1,1.3-0.2,1.9-0.4c0.8-0.3,1.5-0.6,2.3-1c0.7-0.4,1.3-0.8,1.8-1.4
	c0.4-0.4,0.6-0.9,0.6-1.5c0-0.4-0.3-0.8-0.7-0.9c-0.6-0.2-1.3-0.3-2-0.3c-0.6,0-1.3,0.1-1.9,0.1c-0.7,0.1-1.1,0.2-1.4,0.3
	c-0.2,0-0.4,0.1-0.5,0.3c-0.1,0.2-0.1,0.4-0.1,0.6L28.3,53.7z"/>
<path class="st0" d="M39.1,43.2c0-0.1-0.1-0.2-0.1-0.3c0-0.3,0.1-0.5,0.3-0.6c0.2-0.2,0.5-0.2,0.7-0.2c0.3,0,0.6,0.1,0.7,0.3
	c0.2,0.2,0.2,0.5,0.3,0.7v9.9c0.1,0.3,0.4,0.6,0.7,0.7c0.4,0.2,0.8,0.2,1.2,0.2c1.4,0.1,2.8-0.5,3.8-1.5c0.2-0.2,0.3-0.4,0.3-0.6
	v-8.4c-0.1-0.1-0.2-0.3-0.2-0.5c0-0.3,0.1-0.6,0.3-0.8c0.2-0.2,0.5-0.3,0.8-0.3c0.3,0,0.5,0.1,0.7,0.2c0.2,0.2,0.3,0.5,0.3,0.7
	c0,0.2,0,0.3-0.1,0.5v8.7c-0.1,0.8-0.6,1.6-1.3,2.1c-0.7,0.6-1.5,1.1-2.4,1.3c-0.8,0.2-1.5,0.3-2.3,0.3c-1,0.1-2-0.2-2.8-0.8
	c-0.6-0.5-1-1.2-1-2L39.1,43.2z"/>
<path class="st0" d="M52.1,45.7c-0.2,0-0.4-0.2-0.5-0.3c-0.1-0.2-0.2-0.4-0.2-0.7c0-0.2,0-0.4,0.2-0.6c0.1-0.2,0.3-0.3,0.5-0.4v-0.4
	C52.1,43.1,52,43,52,42.8c0-0.3,0.1-0.5,0.3-0.7c0.2-0.2,0.5-0.2,0.8-0.3c0.3,0,0.5,0.1,0.7,0.3c0.2,0.2,0.3,0.5,0.3,0.7V43
	c0.7-0.3,1.4-0.6,2.1-0.8c0.6-0.2,1.3-0.3,2-0.3c0.7,0,1.4,0.2,2,0.6c0.5,0.5,0.8,1.2,0.8,1.9c0,0.6-0.2,1.3-0.6,1.8
	c-0.4,0.5-0.9,1-1.5,1.4c-0.5,0.3-1.1,0.6-1.6,0.9c-0.6,0.2-1.2,0.4-1.8,0.6c0.3,0.2,0.5,0.4,0.8,0.6l0.8,0.6l4,3.4
	c0.3,0,0.5,0.1,0.7,0.2c0.2,0.1,0.3,0.4,0.3,0.6c0,0.3-0.1,0.7-0.3,0.9c-0.2,0.2-0.5,0.3-0.9,0.3c-0.2,0-0.4-0.1-0.6-0.2
	c-0.2-0.1-0.3-0.3-0.4-0.4l-3.8-3.4c-1.1-1-1.8-1.6-2-1.9V54c0.1,0.2,0.1,0.3,0.2,0.5c0,0.3-0.1,0.5-0.3,0.7
	c-0.2,0.2-0.6,0.3-0.9,0.3c-0.3,0-0.6-0.1-0.8-0.3C52.1,55,52,54.8,52,54.5c0-0.2,0.1-0.4,0.2-0.6L52.1,45.7z M54,48
	c0.8-0.2,1.5-0.5,2.3-0.9c0.6-0.3,1.2-0.6,1.7-1c0.4-0.2,0.7-0.6,0.9-0.9c0.1-0.2,0.2-0.5,0.2-0.8c0-0.5-0.4-0.8-1.1-0.8
	c-0.7,0-1.4,0.1-2,0.4c-0.7,0.2-1.4,0.6-2,0.9L54,48z"/>
<path class="st0" d="M66.3,53c0.3,0.3,0.6,0.5,1,0.7c0.5,0.2,1,0.2,1.6,0.2c0.7,0,1.4-0.1,2-0.4c0.6-0.3,1.2-0.7,1.7-1.2
	c0.6-0.5,1-1.1,1.4-1.8c0.3-0.5,0.5-1.1,0.7-1.7c-0.9,0.3-1.7,0.5-2.4,0.6c-0.4,0.1-0.9,0.2-1.3,0.2c-0.3,0-0.7-0.1-0.9-0.2
	c-0.2-0.1-0.3-0.3-0.3-0.6c0-0.3,0.1-0.6,0.3-0.8c0.2-0.2,0.5-0.2,0.8-0.2c0.3,0,0.6,0,0.9-0.1c0.3-0.1,1-0.3,2.1-0.5
	c0.7-0.2,1.3-0.3,2-0.4c0.3,0,0.5,0.1,0.7,0.3c0.2,0.2,0.2,0.5,0.2,0.7c0,1.1-0.3,2.2-0.9,3.2c-0.5,1-1.2,1.9-2.1,2.7
	c-0.7,0.7-1.6,1.2-2.5,1.5c-0.9,0.3-1.8,0.4-2.8,0.4c-0.7,0-1.5-0.1-2.1-0.4c-0.6-0.3-1.2-0.7-1.6-1.2c-0.5-0.5-0.8-1.1-1-1.8
	c-0.2-0.7-0.3-1.5-0.3-2.2c0-1.1,0.2-2.1,0.6-3.1c0.5-1,1.2-2,2-2.8c0.8-0.9,1.8-1.6,2.9-2.1c0.9-0.4,2-0.7,3-0.7
	c0.5,0,1.1,0,1.6,0.1c0.4,0.1,0.7,0.2,1.1,0.3c0.4,0.2,0.7,0.4,1,0.8c0.2,0.2,0.4,0.5,0.4,0.8c0,0.3-0.1,0.6-0.3,0.8
	c-0.2,0.2-0.4,0.3-0.7,0.3c-0.3,0-0.6-0.1-0.8-0.2c-0.2-0.1-0.3-0.4-0.3-0.6c0-0.2-0.2-0.3-0.6-0.4c-0.5-0.1-1-0.1-1.6-0.1
	c-1.4,0-2.8,0.6-3.7,1.7c-0.9,0.8-1.6,1.8-2.1,2.9c-0.3,0.7-0.5,1.5-0.5,2.3c0,0.6,0.1,1.1,0.3,1.6C65.8,52.2,66,52.6,66.3,53z"/>
<path class="st0" d="M86.6,53.2c0.1-0.1,0.2-0.1,0.3-0.2h0.3c0.3,0,0.6,0.1,0.7,0.4c0.2,0.2,0.2,0.4,0.3,0.6c0,0.7-0.5,1-1.4,1
	l-6.2,0.5l-0.4,0.1c-0.1,0-0.3,0.1-0.4,0.1c-0.7,0-1.1-0.3-1.1-1c0-0.1,0-0.3,0.1-0.4c0-0.1,0.1-0.2,0.2-0.3v-4.3
	c-0.2-0.2-0.3-0.5-0.3-0.7c0-0.2,0-0.3,0.1-0.5c0-0.1,0.1-0.3,0.2-0.4v-3.5c-0.3-0.2-0.5-0.5-0.5-0.8c0-0.2,0.1-0.4,0.2-0.6
	c0,0,0-0.1,0-0.1c0,0,0-0.1,0-0.1c0-0.6,0.4-0.9,1.1-0.9c0.6,0,0.9,0.2,1.1,0.7l5-0.4l0.3-0.2c0.1-0.1,0.2-0.1,0.4-0.1
	c0.3,0,0.7,0.1,0.9,0.3c0.2,0.2,0.3,0.4,0.3,0.7c0,0.4-0.1,0.7-0.4,0.9c-0.3,0.2-0.6,0.3-0.9,0.3c-0.1,0-0.3,0-0.4,0
	c-0.1,0-0.2-0.1-0.3-0.1l-4.9,0.4v3.5l4.2-0.5c0.2-0.2,0.5-0.3,0.8-0.3c0.3,0,0.6,0.1,0.8,0.3c0.2,0.1,0.3,0.4,0.3,0.6
	c0,0.8-0.4,1.1-1.2,1.1c-0.1,0-0.2,0-0.3-0.1L81,49.5v4.1L86.6,53.2z"/>
<path class="st0" d="M90.7,45.7c-0.2,0-0.4-0.2-0.5-0.3c-0.1-0.2-0.2-0.4-0.2-0.7c0-0.2,0-0.4,0.2-0.6c0.1-0.2,0.3-0.3,0.5-0.4v-0.4
	c-0.1-0.2-0.1-0.4-0.1-0.5c0-0.3,0.1-0.5,0.3-0.7c0.2-0.2,0.5-0.2,0.8-0.3c0.3,0,0.5,0.1,0.7,0.2c0.2,0.2,0.3,0.5,0.3,0.7V43
	c0.7-0.3,1.4-0.6,2.1-0.8c0.6-0.2,1.3-0.3,2-0.3c0.7,0,1.4,0.2,2,0.6c0.5,0.5,0.8,1.2,0.8,1.9c0,0.6-0.2,1.3-0.6,1.8
	c-0.4,0.5-0.9,1-1.5,1.4c-0.5,0.3-1.1,0.6-1.6,0.9c-0.6,0.2-1.2,0.4-1.8,0.6c0.3,0.2,0.5,0.4,0.8,0.6l0.8,0.6l4,3.4
	c0.3,0,0.5,0.1,0.7,0.2c0.2,0.1,0.3,0.4,0.3,0.6c0,0.3-0.1,0.7-0.3,0.9c-0.2,0.2-0.5,0.3-0.9,0.3c-0.2,0-0.4-0.1-0.6-0.2
	c-0.2-0.1-0.3-0.3-0.4-0.4l-3.8-3.4c-1.1-1-1.8-1.6-2-1.9V54c0.1,0.2,0.1,0.3,0.2,0.5c0,0.3-0.1,0.5-0.3,0.7
	c-0.2,0.2-0.6,0.3-0.9,0.3c-0.3,0-0.6-0.1-0.8-0.3c-0.2-0.2-0.3-0.4-0.3-0.7c0-0.2,0.1-0.4,0.2-0.6L90.7,45.7z M92.6,48
	c0.8-0.2,1.5-0.5,2.3-0.9c0.6-0.3,1.2-0.6,1.7-1c0.4-0.2,0.7-0.6,0.9-0.9c0.1-0.2,0.2-0.5,0.2-0.8c0-0.5-0.4-0.8-1.1-0.8
	c-0.7,0-1.4,0.1-2,0.4c-0.7,0.2-1.4,0.6-2,0.9L92.6,48z"/>
<path class="st0" d="M111.5,53.3c-0.4,0.4-0.9,0.8-1.4,1.1c-0.5,0.3-0.9,0.5-1.4,0.7c-0.5,0.2-1,0.3-1.5,0.4
	c-0.5,0.1-0.9,0.1-1.4,0.1c-0.8,0.1-1.7-0.2-2.4-0.6c-0.4-0.3-0.7-0.7-1-1.2c-0.2-0.4-0.3-0.7-0.3-1.1c0-0.3,0.1-0.6,0.3-0.9
	c0.2-0.2,0.5-0.3,0.7-0.4c0.3,0,0.5,0.1,0.7,0.3c0.2,0.3,0.3,0.6,0.4,1c0.1,0.4,0.2,0.7,0.5,0.9c0.3,0.2,0.6,0.3,1,0.2
	c0.9,0,1.7-0.2,2.5-0.6c0.7-0.3,1.4-0.7,1.9-1.3c0.4-0.4,0.7-0.8,0.9-1.3c0.1-0.4,0.2-0.8,0.2-1.2c0-0.6-0.4-1-0.9-1.1
	c-0.1,0-0.1,0-0.2,0c-0.4,0-0.8,0-1.1,0.1c-0.6,0.1-1.1,0.2-1.6,0.4c-0.7,0.2-1.3,0.4-1.7,0.5c-0.4,0.1-0.7,0.1-1.1,0.1
	c-0.7,0.1-1.4-0.2-1.9-0.6c-0.4-0.5-0.7-1.1-0.6-1.8c0-0.8,0.2-1.5,0.6-2.1c0.4-0.7,0.9-1.3,1.5-1.8c0.6-0.5,1.3-0.9,2-1.1
	c0.7-0.2,1.4-0.4,2.1-0.4c0.8,0,1.6,0.2,2.3,0.6c0.7,0.4,1.1,0.8,1.1,1.3c0,0.3-0.1,0.5-0.3,0.7c-0.2,0.2-0.4,0.2-0.7,0.2
	c-0.3,0-0.5-0.1-0.7-0.2c-0.2-0.1-0.3-0.3-0.3-0.5c-0.2-0.1-0.4-0.2-0.6-0.3c-0.3-0.1-0.6-0.1-0.8-0.1c-0.6,0-1.1,0.1-1.7,0.3
	c-0.9,0.4-1.7,1.1-2.2,1.9c-0.2,0.3-0.3,0.6-0.3,1c0,0.2,0.1,0.4,0.2,0.6c0.2,0.2,0.4,0.3,0.6,0.3c0.7-0.1,1.4-0.3,2.1-0.5
	c0.9-0.3,1.9-0.5,2.9-0.6c0.9-0.1,1.7,0.2,2.4,0.7c0.6,0.5,0.9,1.3,0.9,2.1c0,0.8-0.1,1.5-0.4,2.3C112.4,52.2,112,52.8,111.5,53.3z"
	/>
<path class="st0" d="M129.1,54.1c0.1,0.1,0.2,0.3,0.1,0.5c0,0.3-0.1,0.5-0.4,0.7c-0.3,0.1-0.6,0.2-0.9,0.2c-0.7,0-1-0.3-1-0.8
	c0-0.2,0.1-0.4,0.2-0.5v-0.7c-0.6,0.7-1.4,1.3-2.3,1.7c-0.8,0.4-1.6,0.6-2.5,0.6c-0.6,0-1.1-0.1-1.6-0.5c-0.4-0.3-0.6-0.8-0.6-1.3
	c0-0.7,0.3-1.3,0.7-1.9c0.5-0.6,1.1-1.2,1.8-1.5c0.7-0.4,1.5-0.8,2.3-1c0.7-0.2,1.5-0.4,2.2-0.5v-0.9c0-0.2,0-0.4-0.1-0.5
	c-0.1-0.1-0.3-0.2-0.8-0.2c-0.6,0-1.2,0.1-1.7,0.2c-0.5,0.1-1,0.3-1.4,0.6c0,0.2-0.2,0.4-0.4,0.6c-0.2,0.2-0.5,0.2-0.7,0.2
	c-0.3,0-0.5-0.1-0.7-0.3c-0.2-0.2-0.3-0.4-0.3-0.7c0-0.2,0.1-0.5,0.2-0.6c0.2-0.2,0.4-0.3,0.6-0.3c0.7-0.5,1.5-0.8,2.3-1
	c0.8-0.2,1.7-0.3,2.5-0.3c0.6-0.1,1.3,0.2,1.8,0.6c0.4,0.4,0.5,0.9,0.5,1.5L129.1,54.1z M122.2,53.6c0,0.3,0.2,0.5,0.5,0.5
	c0.6-0.1,1.2-0.2,1.7-0.5c0.6-0.3,1.2-0.7,1.8-1.2c0.3-0.3,0.6-0.6,0.9-1c0.1-0.4,0.2-0.7,0.2-1.1c-0.6,0.1-1.1,0.2-1.6,0.4
	c-0.5,0.2-1,0.4-1.5,0.7c-0.5,0.3-0.9,0.6-1.3,1.1C122.5,52.8,122.2,53.2,122.2,53.6L122.2,53.6z"/>
<path class="st0" d="M133.8,48.2l2.4-1.7c0.5-0.4,1.2-0.7,1.9-0.8c0.4,0,0.8,0.2,1.1,0.4c0.3,0.2,0.6,0.6,0.6,1V54
	c0,0.1,0.1,0.3,0.1,0.4c0,0.7-0.3,1-1,1c-0.3,0-0.5-0.1-0.7-0.3c-0.2-0.2-0.3-0.4-0.3-0.7c0-0.1,0-0.2,0.1-0.4v-5.9
	c0-0.1-0.1-0.2-0.2-0.3c-0.1-0.1-0.2-0.1-0.3-0.1c-0.6,0.2-1.1,0.6-1.6,1l-2,1.5v3.7c0,0.1,0.1,0.3,0.1,0.4c0,0.3-0.1,0.5-0.3,0.7
	c-0.2,0.1-0.5,0.2-0.8,0.2c-0.3,0-0.5-0.1-0.8-0.2c-0.2-0.1-0.3-0.4-0.3-0.6c0-0.2,0.1-0.4,0.2-0.5v-3.3c-0.1-0.2-0.2-0.4-0.2-0.6
	c0-0.2,0.1-0.5,0.2-0.7v-2.4c-0.1-0.1-0.1-0.3-0.1-0.4c0-0.3,0.1-0.5,0.3-0.7c0.2-0.2,0.5-0.3,0.8-0.3c0.3,0,0.6,0.1,0.8,0.3
	c0.1,0.2,0.2,0.4,0.2,0.6c0,0.2-0.1,0.4-0.1,0.5L133.8,48.2z"/>
<path class="st0" d="M151,53.9c0.1,0.1,0.1,0.2,0.2,0.3c0,0.1,0,0.2,0,0.2c0,0.3-0.1,0.5-0.3,0.7c-0.2,0.2-0.5,0.2-0.8,0.2
	c-0.3,0-0.5-0.1-0.8-0.3c-0.2-0.2-0.2-0.4-0.2-0.6c0-0.2,0-0.4,0.1-0.5v-1.5c-0.4,0.4-0.8,0.9-1.2,1.3c-0.4,0.4-0.8,0.8-1.3,1.1
	c-0.4,0.3-0.8,0.5-1.3,0.6c-0.4,0.1-0.9,0.2-1.4,0.2c-0.7,0-1.3-0.2-1.7-0.7c-0.4-0.6-0.6-1.2-0.6-1.9c0.1-1.7,0.9-3.2,2.1-4.3
	c1.1-1.3,2.6-2.1,4.3-2.2c0.2,0,0.4,0,0.6,0c0.2,0,0.3,0.1,0.4,0.2v-3.6c-0.1-0.1-0.1-0.2-0.1-0.2c0-0.1-0.1-0.3-0.1-0.4
	c0-0.3,0.1-0.5,0.3-0.7c0.2-0.2,0.5-0.3,0.7-0.3c0.3,0,0.6,0.1,0.7,0.3c0.2,0.2,0.3,0.5,0.3,0.7L151,53.9L151,53.9z M143.5,53.2
	c0,0.5,0.2,0.8,0.6,0.8c0.5,0,1-0.2,1.4-0.5c0.6-0.4,1.2-1,1.7-1.5c0.5-0.5,1-1.1,1.4-1.8c0.2-0.4,0.4-0.8,0.4-1.2
	c0-0.2,0-0.3-0.1-0.5c-0.1-0.1-0.3-0.2-0.5-0.2c-1.1,0-2.1,0.4-2.8,1.2c-0.6,0.6-1.2,1.4-1.6,2.1C143.7,52.1,143.6,52.6,143.5,53.2z
	"/>
<path class="st0" d="M161.7,49.3v4.4c0.2,0.2,0.2,0.4,0.2,0.7c0,0.3-0.1,0.5-0.4,0.7c-0.3,0.2-0.6,0.3-0.9,0.3
	c-0.3,0-0.6-0.1-0.9-0.2c-0.2-0.2-0.3-0.5-0.3-0.8c0-0.2,0-0.3,0.1-0.5c0-0.1,0.1-0.2,0.2-0.3v-4.4c-0.2-0.2-0.3-0.5-0.3-0.8
	c0-0.3,0.1-0.5,0.3-0.7v-3.3c-0.2-0.2-0.3-0.4-0.3-0.7c0-0.3,0.1-0.6,0.3-0.8c0-0.3,0.1-0.5,0.3-0.7c0.2-0.2,0.5-0.3,0.8-0.3
	c0.5,0,0.8,0.2,0.9,0.5l4.6-0.7c0.2-0.1,0.5-0.2,0.7-0.1c0.3,0,0.7,0.1,0.9,0.3c0.2,0.1,0.3,0.4,0.3,0.6c0,0.8-0.4,1.2-1.1,1.2h-0.3
	c-0.1,0-0.2,0-0.3-0.1l-4.8,0.7v3.3l4.5-0.7c0.2-0.1,0.5-0.2,0.7-0.2c0.2,0,0.5,0.1,0.6,0.3c0.2,0.1,0.3,0.3,0.3,0.6
	c0,0.3-0.1,0.6-0.2,0.9c-0.2,0.2-0.5,0.4-0.8,0.3c-0.2,0-0.4,0-0.5-0.1L161.7,49.3z"/>
<path class="st0" d="M170.6,45.7c-0.2,0-0.4-0.2-0.5-0.3c-0.1-0.2-0.2-0.4-0.2-0.7c0-0.2,0-0.4,0.1-0.6c0.1-0.2,0.3-0.3,0.5-0.4
	v-0.4c-0.1-0.2-0.1-0.4-0.1-0.5c0-0.3,0.1-0.5,0.4-0.7c0.2-0.2,0.5-0.2,0.8-0.3c0.3,0,0.5,0.1,0.7,0.2c0.2,0.2,0.3,0.5,0.3,0.7V43
	c0.7-0.3,1.4-0.6,2.1-0.8c0.6-0.2,1.3-0.3,2-0.3c0.7,0,1.4,0.2,2,0.6c0.5,0.5,0.8,1.2,0.8,1.9c0,0.6-0.2,1.3-0.6,1.8
	c-0.4,0.5-0.9,1-1.5,1.4c-0.5,0.3-1.1,0.6-1.6,0.9c-0.6,0.2-1.2,0.4-1.8,0.6c0.3,0.2,0.5,0.4,0.8,0.6l0.8,0.6l4,3.4
	c0.3,0,0.5,0.1,0.7,0.2c0.2,0.1,0.3,0.4,0.3,0.6c0,0.3-0.1,0.7-0.3,0.9c-0.2,0.2-0.5,0.3-0.9,0.3c-0.2,0-0.4-0.1-0.6-0.2
	c-0.2-0.1-0.3-0.3-0.4-0.4l-3.8-3.4c-1.1-1-1.8-1.6-2-1.9V54c0.1,0.2,0.1,0.3,0.1,0.5c0,0.3-0.1,0.5-0.3,0.7
	c-0.2,0.2-0.6,0.3-0.9,0.3c-0.3,0-0.6-0.1-0.8-0.3c-0.2-0.2-0.3-0.4-0.3-0.7c0-0.2,0.1-0.4,0.2-0.6L170.6,45.7z M172.5,48
	c0.8-0.2,1.5-0.5,2.3-0.9c0.6-0.3,1.2-0.6,1.7-1c0.4-0.2,0.7-0.6,0.9-0.9c0.1-0.2,0.2-0.5,0.2-0.8c0-0.5-0.4-0.8-1.1-0.8
	c-0.7,0-1.4,0.1-2,0.4c-0.7,0.2-1.4,0.6-2,0.9L172.5,48z"/>
<path class="st0" d="M182.5,43.3c-0.1-0.1-0.2-0.3-0.2-0.5c0-0.7,0.5-1,1.4-1c0.3,0,0.5,0.1,0.8,0.3c0.2,0.2,0.3,0.4,0.3,0.7
	c0,0.2-0.1,0.4-0.2,0.6l-0.1,0.1v10.4c0.2,0.2,0.2,0.4,0.2,0.6c0,0.3-0.1,0.5-0.3,0.7c-0.3,0.1-0.6,0.2-0.9,0.2
	c-0.3,0-0.6-0.1-0.8-0.2c-0.2-0.2-0.4-0.5-0.3-0.8c0-0.1,0-0.2,0.1-0.3c0.1-0.1,0.1-0.2,0.2-0.3L182.5,43.3z"/>
<path class="st0" d="M195.2,53.2c0.1-0.1,0.2-0.1,0.3-0.2h0.3c0.3,0,0.6,0.1,0.7,0.4c0.2,0.2,0.2,0.4,0.3,0.6c0,0.7-0.5,1-1.4,1
	l-6.2,0.5l-0.4,0.1c-0.1,0-0.3,0.1-0.4,0.1c-0.7,0-1.1-0.3-1.1-1c0-0.1,0-0.3,0.1-0.4c0-0.1,0.1-0.2,0.2-0.3v-4.3
	c-0.2-0.2-0.3-0.5-0.3-0.7c0-0.2,0-0.3,0.1-0.5c0-0.1,0.1-0.3,0.2-0.4v-3.5c-0.3-0.2-0.5-0.5-0.5-0.8c0-0.2,0.1-0.4,0.2-0.6
	c0,0,0-0.1,0-0.1c0,0,0-0.1,0-0.1c0-0.6,0.4-0.9,1.1-0.9c0.6,0,0.9,0.2,1.1,0.7l5-0.4l0.3-0.2c0.1-0.1,0.2-0.1,0.4-0.1
	c0.3,0,0.7,0.1,0.9,0.3c0.2,0.2,0.3,0.4,0.3,0.7c0,0.4-0.1,0.7-0.4,0.9c-0.3,0.2-0.6,0.3-0.9,0.3c-0.1,0-0.3,0-0.4,0
	c-0.1,0-0.2-0.1-0.3-0.1l-4.9,0.4v3.5l4.2-0.5c0.2-0.1,0.5-0.2,0.8-0.2c0.3,0,0.6,0.1,0.8,0.3c0.2,0.1,0.3,0.4,0.3,0.6
	c0,0.8-0.4,1.1-1.2,1.1c-0.1,0-0.2,0-0.3-0.1l-4.5,0.5v4.1L195.2,53.2z"/>
<path class="st0" d="M208.1,53.3c-0.4,0.4-0.9,0.8-1.4,1.1c-0.5,0.3-0.9,0.5-1.4,0.7c-0.5,0.2-1,0.3-1.5,0.4
	c-0.5,0.1-0.9,0.1-1.4,0.1c-0.8,0.1-1.7-0.2-2.4-0.6c-0.4-0.3-0.7-0.7-1-1.2c-0.2-0.4-0.3-0.7-0.3-1.1c0-0.3,0.1-0.6,0.3-0.9
	c0.2-0.2,0.5-0.3,0.7-0.4c0.3,0,0.5,0.1,0.7,0.3c0.2,0.3,0.3,0.6,0.4,1c0.1,0.4,0.2,0.7,0.5,0.9c0.3,0.2,0.6,0.3,1,0.2
	c0.9,0,1.7-0.2,2.5-0.6c0.7-0.3,1.4-0.7,1.9-1.3c0.7-0.6,1.1-1.6,1.1-2.5c0-0.6-0.4-1-0.9-1.1c-0.1,0-0.1,0-0.2,0
	c-0.4,0-0.8,0-1.1,0.1c-0.6,0.1-1.1,0.2-1.6,0.4c-0.7,0.2-1.3,0.4-1.7,0.5c-0.4,0.1-0.7,0.1-1.1,0.1c-0.7,0.1-1.4-0.2-1.9-0.6
	c-0.4-0.5-0.7-1.1-0.6-1.8c0-0.8,0.2-1.5,0.6-2.1c0.4-0.7,0.9-1.3,1.5-1.8c0.6-0.5,1.3-0.9,2-1.1c0.7-0.2,1.4-0.4,2.1-0.4
	c0.8,0,1.6,0.2,2.3,0.6c0.7,0.4,1.1,0.8,1.1,1.3c0,0.3-0.1,0.5-0.3,0.7c-0.2,0.2-0.4,0.2-0.7,0.2c-0.3,0-0.5-0.1-0.7-0.2
	c-0.2-0.1-0.3-0.3-0.4-0.5c-0.2-0.1-0.4-0.2-0.6-0.3c-0.3-0.1-0.6-0.1-0.9-0.1c-0.6,0-1.1,0.1-1.7,0.3c-0.9,0.4-1.7,1.1-2.2,1.9
	c-0.2,0.3-0.3,0.6-0.3,1c0,0.2,0.1,0.4,0.2,0.6c0.2,0.2,0.4,0.3,0.6,0.3c0.7-0.1,1.4-0.3,2.1-0.6c0.9-0.3,1.9-0.5,2.9-0.6
	c0.9-0.1,1.7,0.2,2.4,0.7c0.6,0.5,0.9,1.3,0.9,2.1c0,0.8-0.1,1.5-0.4,2.3C209,52.2,208.6,52.8,208.1,53.3z"/>
</svg>
