<?xml version="1.0" encoding="utf-8"?>
<!-- Generator: Adobe Illustrator 21.1.0, SVG Export Plug-In . SVG Version: 6.00 Build 0)  -->
<svg version="1.1" id="Layer_1" xmlns="http://www.w3.org/2000/svg" xmlns:xlink="http://www.w3.org/1999/xlink" x="0px" y="0px"
	 viewBox="0 0 229.3 57" style="enable-background:new 0 0 229.3 57;" xml:space="preserve">
<style type="text/css">
	.st0{fill:#A51C37;}
</style>
<title>Fine Dining</title>
<path class="st0" d="M164.9,56.5c-0.2-0.1-0.4-0.2-0.7-0.2c-0.7-0.2-1.3-0.7-1.5-1.5c-0.2-0.8,0-1.8,0.7-2.3
	c0.2-0.2,0.4-0.3,0.6-0.4c0.2-0.1,0.2-0.2,0-0.4c-0.2-0.2-0.4-0.4-0.6-0.6c-0.4-0.5-0.6-1.3-0.4-1.9c0.1-0.5,0.4-0.9,0.8-1.1
	c0.3-0.2,0.7-0.3,1.1-0.3c1-0.1,2,0,3,0.2c0.3,0,0.3,0.1,0.3,0.4c0,0.8,0,0.7-0.7,0.7l-1.9-0.1c-0.1,0-0.2,0-0.3,0
	c-0.5,0-0.9,0.3-0.9,0.8c0,0.2,0.1,0.4,0.2,0.5c0.1,0.2,0.2,0.4,0.4,0.5l3,2.9c0.1,0,0.1,0.1,0.2,0.1c0.3-0.5,0.4-1,0.3-1.6
	c0-0.2-0.2-0.2-0.3-0.2s-0.3-0.2-0.3-0.6c0-0.3,0.2-0.3,0.4-0.3h1.6c0.4,0,0.4,0,0.4,0.4c0,0.1,0,0.3,0,0.4
	c-0.1,0.1-0.2,0.1-0.3,0.1s-0.2,0.2-0.2,0.4c0,0.5-0.1,0.9-0.2,1.4c-0.1,0.2-0.1,0.4-0.2,0.6c-0.3,0.5-0.3,0.4,0.2,0.8l0.7,0.6
	c0.1,0.1,0.1,0.2,0.1,0.3c-0.1,0.1-0.2,0.1-0.3,0.1h-1c-0.2,0-0.4-0.1-0.5-0.2c-0.3-0.3-0.3-0.3-0.7-0.1c-0.4,0.2-0.9,0.3-1.3,0.5
	L164.9,56.5z M165.8,55.4c0.5,0,0.9-0.1,1.3-0.3c0.2-0.1,0.2-0.2,0.1-0.3l-1.9-1.8c-0.1-0.1-0.2-0.1-0.3-0.1c-0.4,0.2-0.8,0.5-0.9,1
	c-0.1,0.5,0.1,0.9,0.5,1.2C165.1,55.3,165.4,55.4,165.8,55.4L165.8,55.4z"/>
<path class="st0" d="M132.2,56.5c-0.1,0-0.1-0.1-0.2-0.1c-1.3-0.2-2.3-1.3-2.4-2.7c-0.2-1.1-0.2-2.2,0-3.2c0.1-1.6,1.5-2.8,3.1-2.8
	c0.5,0,1,0,1.5,0.1c1.2,0.3,2.1,1.3,2.2,2.6c0.2,1.1,0.2,2.2,0,3.3c-0.1,1.3-1.1,2.4-2.4,2.6c-0.1,0-0.1,0-0.2,0.1L132.2,56.5z
	 M134.9,52.1c0-0.3,0-0.5,0-0.7c0-0.5-0.1-0.9-0.3-1.3c-0.2-0.4-0.5-0.7-0.9-0.9c-0.9-0.4-2-0.1-2.5,0.8c-0.1,0.2-0.2,0.4-0.2,0.6
	c-0.1,0.9-0.1,1.9,0,2.8c0,0.3,0.1,0.5,0.3,0.8c0.2,0.4,0.6,0.7,1,0.8c0.9,0.3,2-0.2,2.3-1.1c0-0.1,0.1-0.3,0.1-0.4
	C134.9,53.1,135,52.6,134.9,52.1L134.9,52.1z"/>
<path class="st0" d="M140.5,56.5c-0.1,0-0.1-0.1-0.2-0.1c-1.3-0.3-2.3-1.4-2.3-2.7c0-0.3,0-0.7,0-1c0-1.4,0-2.8,0-4.2
	c0-0.1,0-0.3,0-0.4c0-0.1,0.1-0.2,0.2-0.2c0,0,0,0,0.1,0h1c0.2,0,0.2,0.1,0.2,0.3s0,0.3,0,0.4c0,1.4,0,2.9,0,4.3
	c0,0.4,0,0.9,0.1,1.3c0.1,0.6,0.6,1,1.2,1c0.2,0,0.5,0,0.7,0c0.7,0,1.3-0.5,1.4-1.2c0.1-0.4,0.1-0.8,0.1-1.1c0-1.5,0-2.9,0-4.4
	c0-0.1,0-0.3,0-0.4c0-0.1,0.1-0.2,0.2-0.2h0.1c0.4,0,0.9-0.2,1.1,0.1s0.1,0.7,0.1,1c0,1.3,0,2.7,0,4c0,0.5-0.1,1-0.2,1.5
	c-0.2,1-1,1.7-2,1.9c-0.1,0-0.3,0.1-0.4,0.1L140.5,56.5z"/>
<path class="st0" d="M45.5,47.9c0,0,0.1,0,0.1,0c1.3-0.1,2.6-0.1,3.8,0.1l0.4,0.1c1.1,0.2,1.9,1.2,1.8,2.3c0.3,1.3-0.6,2.7-1.9,3
	c-0.2,0-0.4,0.1-0.7,0c-0.5,0-1,0-1.6,0s-0.4,0-0.4,0.4c0,0.7,0,1.5,0,2.2c0,0.4,0,0.4-0.4,0.4h-1.2V47.9z M48.1,49.1h-0.7
	c-0.2,0-0.3,0.1-0.3,0.3c0,0.7,0,1.5,0,2.2c0,0.2,0.1,0.3,0.3,0.3c0.6,0,1.1,0,1.7-0.1c0.8-0.1,1.1-0.6,1-1.4c0.1-0.6-0.4-1.2-1-1.3
	c0,0-0.1,0-0.1,0C48.7,49.1,48.4,49.1,48.1,49.1L48.1,49.1z"/>
<path class="st0" d="M147.8,56.5c-0.3-0.1-0.7-0.2-1-0.2c-0.2,0-0.3-0.2-0.3-0.4c-0.1-0.9-0.1-0.9,0.8-0.8c0.8,0.1,1.6,0.1,2.4,0
	c0.6,0,1-0.5,0.9-1.1c0-0.1,0-0.2-0.1-0.4c-0.1-0.2-0.3-0.4-0.5-0.6c-0.3-0.2-0.6-0.3-0.9-0.4c-0.5-0.2-1-0.4-1.5-0.6
	c-1-0.5-1.6-1.6-1.3-2.7c0.1-0.7,0.5-1.2,1.1-1.4c0.3-0.1,0.6-0.2,0.9-0.2c1-0.1,2,0,2.9,0.1c0.4,0.1,0.4,0.1,0.4,0.5
	c0,0.9,0.1,0.8-0.8,0.7c-0.6,0-1.2-0.1-1.8-0.1c-0.2,0-0.5,0-0.7,0.1c-0.3,0-0.6,0.3-0.6,0.6c-0.1,0.3,0,0.7,0.3,0.9
	c0.2,0.2,0.4,0.3,0.7,0.4l1.2,0.5l0.7,0.3c1.2,0.5,1.7,1.9,1.3,3.1c-0.2,0.7-0.7,1.2-1.4,1.4c-0.2,0-0.4,0.1-0.6,0.2L147.8,56.5z"/>
<path class="st0" d="M84.7,56.5c-0.3-0.1-0.7-0.2-1-0.2c-0.2-0.1-0.3-0.1-0.3-0.3s0-0.4,0-0.6s0.1-0.3,0.3-0.3
	c0.5,0,1.1,0.1,1.6,0.1c0.4,0,0.9,0,1.3-0.1c0.4,0,0.7-0.3,0.8-0.7c0.1-0.4,0-0.9-0.4-1.1c-0.2-0.1-0.4-0.2-0.6-0.3l-1.4-0.6
	c-0.3-0.1-0.6-0.3-0.9-0.5c-0.9-0.7-1.3-1.9-0.8-3c0.2-0.5,0.6-0.8,1.1-0.9c0.5-0.2,1-0.2,1.5-0.2c0.8,0,1.6,0,2.3,0.2
	c0.2,0,0.3,0.2,0.3,0.4c0,0,0,0,0,0c0,0.9,0.1,0.9-0.8,0.8c-0.6,0-1.2-0.1-1.8-0.1c-0.2,0-0.5,0-0.7,0.1c-0.3,0-0.6,0.3-0.6,0.6
	c-0.1,0.3,0,0.7,0.3,0.9c0.2,0.2,0.5,0.3,0.7,0.4l1.2,0.5c0.2,0.1,0.5,0.2,0.7,0.3c1.1,0.5,1.7,1.8,1.3,2.9
	c-0.2,0.7-0.7,1.3-1.5,1.5c-0.2,0-0.5,0.1-0.7,0.2L84.7,56.5z"/>
<path class="st0" d="M178.7,50.8c-0.1,0.2-0.1,0.5-0.2,0.7c-0.3,1.5-0.7,2.9-1,4.4c-0.1,0.4-0.1,0.4-0.5,0.4s-0.9,0-1.4,0
	c-0.3,0-0.4-0.1-0.4-0.4c-0.2-1.5-0.5-2.9-0.8-4.4l-0.5-3.1v-0.3c0-0.2,0-0.3,0.2-0.3h0.9c0.4,0,0.4,0,0.5,0.4
	c0.1,0.6,0.2,1.3,0.3,1.9c0.2,1.3,0.5,2.6,0.6,4c0,0.1,0.1,0.3,0.1,0.4c0.1-0.2,0.1-0.4,0.1-0.6c0.3-1.4,0.7-2.9,1-4.3
	c0.1-0.4,0.1-0.4,0.5-0.4h1c0.4,0,0.5,0,0.6,0.4c0.3,1.3,0.6,2.6,0.9,3.9c0,0.3,0.1,0.6,0.3,0.9c0.1-0.5,0.2-1,0.3-1.4
	c0.3-1.6,0.5-3.2,0.8-4.9c0.1-0.4,0.1-0.4,0.5-0.4h0.6c0.5,0,0.5,0,0.4,0.5c-0.1,0.8-0.3,1.6-0.4,2.4l-0.8,4.8c0,0.1,0,0.1,0,0.2
	c-0.1,0.5-0.1,0.5-0.6,0.5s-0.8,0-1.2,0s-0.4-0.1-0.4-0.4c-0.4-1.6-0.7-3.2-1.1-4.8C178.9,51,178.9,50.9,178.7,50.8z"/>
<path class="st0" d="M70.8,50.3c-0.2,0.1-0.2,0.3-0.3,0.4c-0.4,0.9-0.9,1.7-1.3,2.6c-0.1,0.3-0.4,0.4-0.6,0.4
	c-0.5,0.1-1.1-0.2-1.2-0.7c0,0,0,0,0,0c-0.3-0.8-0.8-1.6-1.2-2.4c0-0.1-0.1-0.2-0.2-0.3c-0.1,0.1-0.1,0.3-0.1,0.4c0,1.7,0,3.4,0,5.1
	c0,0.5,0,0.5-0.4,0.5h-0.7c-0.3,0-0.3,0-0.4-0.4c0-0.1,0-0.2,0-0.3c0-2.4,0-4.8,0-7.2c0-0.1,0-0.1,0-0.2c0-0.4,0-0.4,0.4-0.4
	c0.3,0,0.6,0,0.8,0c0.3,0,0.5,0.1,0.6,0.4c0.6,1.3,1.3,2.5,1.9,3.7l0.1,0.2c0.1,0,0.2-0.1,0.2-0.2c0.6-1.2,1.3-2.5,1.9-3.7
	c0.1-0.3,0.4-0.4,0.7-0.4c0.3,0,0.7,0,1,0s0.3,0.1,0.3,0.3s0,0.2,0,0.3c0,2.4,0,4.9,0,7.3c0,0.1,0,0.2,0,0.3s-0.1,0.3-0.3,0.3H71
	c-0.2,0-0.3-0.1-0.3-0.3s0-0.6,0-0.8c0-1.5,0-3.1,0-4.6C70.8,50.4,70.8,50.4,70.8,50.3z"/>
<path class="st0" d="M211.7,51.9c0,0.1,0.1,0.1,0.2,0.2c0.1,0.1,0.2,0.2,0.4,0.3c0.8,1.1,0.5,2.6-0.6,3.4c-0.1,0-0.1,0.1-0.2,0.1
	c-0.5,0.2-1,0.3-1.5,0.3c-1,0.1-2,0.1-3.1,0c-0.4,0-0.4,0-0.4-0.4c0-2.6,0-5.1,0-7.7c0-0.2,0-0.4,0.3-0.4c1.3-0.1,2.6-0.1,3.9,0.1
	c0.3,0,0.5,0.1,0.8,0.2c0.6,0.2,1,0.7,1.1,1.4C212.9,50.3,212.6,51.3,211.7,51.9C211.8,51.9,211.8,51.9,211.7,51.9z M208.1,53.7
	c0,0.3,0,0.7,0,1s0.1,0.4,0.3,0.4c0.6,0,1.1,0,1.7-0.1c0.2,0,0.4-0.1,0.6-0.1c0.2-0.1,0.4-0.3,0.5-0.5c0.2-0.8,0.1-1.7-1.1-1.8
	c-0.5,0-1.1,0-1.6,0c-0.2,0-0.3,0.1-0.3,0.3S208.1,53.4,208.1,53.7L208.1,53.7z M209.2,51.3c0.4,0,0.8,0,1.2-0.1
	c0.6-0.2,0.8-0.5,0.7-1.2c0-0.5-0.3-0.9-0.8-0.9c0,0,0,0,0,0c-0.7-0.1-1.4-0.1-2.1-0.1c-0.1,0-0.2,0.1-0.2,0.2c0,0,0,0,0,0.1
	c0,0.6,0,1.2,0,1.8c0,0.2,0.1,0.3,0.3,0.3H209.2z"/>
<path class="st0" d="M190.2,50.2c-0.1,0.1-0.1,0.2-0.1,0.3c0,1.8,0,3.5,0,5.3c0,0.1,0,0.1,0,0.2c0,0.2-0.1,0.3-0.3,0.3h-0.8
	c-0.2,0-0.3-0.1-0.3-0.3s0-0.2,0-0.3c0-2.4,0-4.9,0-7.3c0-0.1,0-0.2,0-0.3c0-0.1,0.1-0.2,0.2-0.2c0,0,0,0,0.1,0h1.4
	c0.2,0,0.3,0.1,0.3,0.3l0.4,0.8l2.6,4.8c0,0.1,0.1,0.1,0.1,0.2c0.2-0.1,0.1-0.2,0.1-0.4c0-1.7,0-3.3,0-5c0-0.1,0-0.3,0-0.4
	s0.1-0.2,0.2-0.2h0.9c0.2,0,0.3,0.1,0.3,0.3s0,0.2,0,0.3c0,2.4,0,4.8,0,7.2c0,0.1,0,0.2,0,0.3s-0.1,0.3-0.3,0.3s-0.7,0-1.1,0
	c-0.3,0-0.5-0.1-0.6-0.4c-1-1.8-1.9-3.6-2.9-5.4L190.2,50.2z"/>
<path class="st0" d="M228.8,56.2c-0.4,0-0.9,0-1.3,0c-0.2,0-0.3-0.2-0.4-0.3c-0.5-0.8-1-1.6-1.4-2.4c-0.1-0.3-0.4-0.5-0.7-0.4
	c-0.2,0-0.4,0-0.6,0c-0.4,0-0.4,0-0.5,0.5c0,0.7,0,1.3,0,2c0,0.1,0,0.2,0,0.3s-0.1,0.3-0.3,0.3h-0.9c-0.2,0-0.3-0.1-0.3-0.3
	s0-0.2,0-0.3c0-2.4,0-4.8,0-7.2c0-0.1,0-0.2,0-0.3s0.1-0.3,0.3-0.3c1.2-0.1,2.4,0,3.6,0.1h0.1c1.4,0.3,2.3,1.7,2.1,3.1
	c-0.1,0.7-0.6,1.3-1.2,1.7c-0.2,0.1-0.2,0.2-0.1,0.4c0.5,0.9,1,1.7,1.5,2.6C228.7,55.8,228.8,56,228.8,56.2z M223.8,50.5L223.8,50.5
	c0,0.4,0,0.8,0,1.1c0,0.2,0.1,0.3,0.3,0.3c0.6,0,1.1,0,1.7-0.1c0.7-0.1,1.1-0.8,1-1.4c0.1-0.6-0.4-1.2-1-1.2c0,0-0.1,0-0.1,0
	c-0.5-0.1-1.1-0.1-1.6-0.1c-0.3,0-0.4,0.1-0.3,0.4S223.9,50.1,223.8,50.5L223.8,50.5z"/>
<path class="st0" d="M57.7,52.9l1.9,3.4c-0.5,0-1,0-1.5,0c-0.2,0-0.3-0.2-0.3-0.3c-0.5-0.8-0.9-1.5-1.4-2.3
	c-0.1-0.3-0.5-0.5-0.8-0.5c-0.2,0-0.4,0-0.6,0c-0.4,0-0.4,0-0.4,0.4c0,0.7,0,1.4,0,2c0,0.1,0,0.2,0,0.3s-0.1,0.3-0.3,0.3h-0.9
	c-0.2,0-0.3-0.1-0.3-0.3s0-0.2,0-0.3c0-2.4,0-4.9,0-7.3c0-0.1,0-0.2,0-0.3s0.1-0.2,0.3-0.2c1.2-0.1,2.5-0.1,3.7,0.1
	c0.5,0.1,1,0.3,1.4,0.6c0.5,0.5,0.8,1.3,0.7,2c0.1,0.9-0.5,1.8-1.3,2.2L57.7,52.9z M54.5,50.5c0,0.4,0,0.7,0,1.1s0,0.4,0.4,0.4
	c0.5,0,1,0,1.5-0.1c0.7,0,1.3-0.6,1.2-1.3c0-0.1,0-0.1,0-0.2c0-0.6-0.4-1.1-0.9-1.1c-0.6-0.1-1.2-0.2-1.8-0.1
	c-0.2,0-0.3,0.1-0.3,0.3S54.5,50.1,54.5,50.5z"/>
<path class="st0" d="M127.9,52c0,1.3,0,2.5,0,3.8c0,0.4,0,0.4-0.5,0.5h-0.6c-0.5,0-0.5,0-0.5-0.5c0-0.9,0-1.7,0-2.6
	c0-0.6,0-0.6-0.6-0.6h-2.7c-0.5,0-0.5,0-0.5,0.5c0,1,0,1.9,0,2.9c0,0.4,0,0.4-0.4,0.4h-0.9c-0.2,0-0.3-0.1-0.3-0.3s0-0.2,0-0.3
	c0-2.4,0-4.9,0-7.3c0-0.1,0-0.2,0-0.3s0.1-0.3,0.3-0.3s0.6,0,0.9,0s0.4,0.1,0.3,0.3c0,0.8,0,1.6,0,2.4c0,0.1,0,0.3,0,0.4
	s0.1,0.3,0.3,0.3h3.2c0.3,0,0.3-0.2,0.3-0.4c0-0.8,0-1.5,0-2.3s-0.1-0.7,0.7-0.7s0.8,0,0.8,0.8C127.9,49.7,127.9,50.9,127.9,52z"/>
<path class="st0" d="M213.6,56.3l0.8-2.6c0.5-1.8,1.1-3.6,1.6-5.4c0.1-0.5,0.1-0.5,0.6-0.5h1.2c0.7,0,0.6-0.1,0.8,0.6
	c0.5,1.8,1.1,3.5,1.6,5.3l0.6,2.1c0,0.1,0.1,0.3,0.1,0.5c-0.5,0-1,0-1.4,0c-0.2,0-0.2-0.2-0.3-0.3l-0.5-1.6
	c-0.1-0.4-0.1-0.4-0.5-0.4c-0.7,0-1.3,0-2,0c-0.2,0-0.4,0.1-0.5,0.3c0,0,0,0,0,0c-0.2,0.6-0.4,1.1-0.5,1.7c0,0.2-0.2,0.4-0.4,0.3
	c0,0,0,0,0,0C214.5,56.3,214.1,56.3,213.6,56.3z M218.4,52.6c-0.2-0.6-0.4-1.2-0.6-1.8s-0.3-1.2-0.5-1.8c-0.3,1.2-0.7,2.4-1,3.6
	L218.4,52.6z"/>
<path class="st0" d="M104.4,56.3l0.6-2l1.8-6c0.1-0.4,0.1-0.4,0.6-0.4h1.5c0.4,0,0.4,0,0.5,0.4l2,6.5l0.4,1.3c0.1,0.2,0,0.3-0.2,0.3
	s-0.7,0-1,0c-0.2,0-0.4-0.1-0.4-0.3c0,0,0,0,0,0c-0.2-0.6-0.3-1.1-0.5-1.6s-0.1-0.4-0.6-0.4c-0.6,0-1.3,0-1.9,0
	c-0.2,0-0.4,0.1-0.5,0.3c0,0,0,0,0,0c-0.2,0.6-0.4,1.1-0.5,1.7c0,0.2-0.2,0.4-0.4,0.3c0,0,0,0,0,0C105.2,56.3,104.9,56.3,104.4,56.3
	z M108.1,49c-0.1,0.1-0.1,0.2-0.1,0.3c-0.2,0.8-0.4,1.6-0.7,2.4c-0.1,0.2-0.2,0.5-0.2,0.7s0,0.2,0.1,0.2h1.8c0.1,0,0.2-0.1,0.1-0.2
	s-0.1-0.2-0.1-0.3c-0.3-1-0.6-1.9-0.8-2.9C108.2,49.1,108.2,49,108.1,49L108.1,49z"/>
<path class="st0" d="M119.8,47.8c-0.1,0.2-0.2,0.4-0.3,0.5l-2.8,3.3c-0.3,0.4-0.4,0.3,0,0.8l2.8,3.4c0.1,0.1,0.2,0.3,0.3,0.5
	c-0.6,0-1.2,0-1.8,0c-0.2,0-0.3-0.2-0.4-0.3l-2.5-3.1c-0.1-0.1-0.2-0.3-0.4-0.4c-0.1,0.2-0.1,0.3-0.1,0.5c0,1,0,2,0,3
	c0,0.4,0,0.4-0.4,0.4h-0.9c-0.2,0-0.2-0.1-0.2-0.2s0-0.2,0-0.3c0-2.5,0-4.9,0-7.4c0-0.1,0-0.1,0-0.2c0-0.3,0.1-0.3,0.3-0.3h0.8
	c0.4,0,0.4,0,0.4,0.4c0,0.8,0,1.6,0,2.5c0,0.3,0,0.6,0,1c0.2,0,0.3-0.2,0.4-0.3c0.9-1,1.7-2.1,2.6-3.1c0.2-0.2,0.5-0.4,0.8-0.4
	C118.9,47.8,119.3,47.8,119.8,47.8z"/>
<path class="st0" d="M74.2,52.1c0-1.2,0-2.4,0-3.6c0-0.1,0-0.2,0-0.3s0.1-0.3,0.3-0.3h4.8c0.1,0,0.2,0.1,0.2,0.2c0,0,0,0,0,0
	c0,0.3,0.1,0.7-0.1,1s-0.6,0.1-0.8,0.1h-2.5c-0.4,0-0.4,0-0.4,0.4s0,1,0,1.5c0,0.3,0.1,0.4,0.3,0.3h2.8c0.4,0,0.5,0,0.5,0.5
	c0,0.8,0.1,0.8-0.7,0.8h-2.5c-0.3,0-0.4,0-0.4,0.4c0,0.6,0,1.1,0,1.7c0,0.3,0,0.4,0.4,0.4h3.2c0.2,0,0.3,0.1,0.3,0.3
	c0.1,1,0.1,1-0.9,1h-3.9c-0.5,0-0.5,0-0.5-0.5C74.2,54.5,74.2,53.3,74.2,52.1z"/>
<path class="st0" d="M98,52c0-1.3,0-2.5,0-3.7c0-0.5,0-0.5,0.5-0.5h4.4c0.5,0,0.5,0,0.5,0.5c0,1,0.1,0.8-0.8,0.8H100
	c-0.3,0-0.4,0-0.4,0.4s0,1,0,1.4s0,0.4,0.4,0.4h3c0.2,0,0.2,0.1,0.2,0.2s0,0.5,0,0.7s-0.1,0.3-0.3,0.3H100c-0.3,0-0.4,0-0.4,0.4
	c0,0.6,0,1.1,0,1.7c0,0.3,0,0.4,0.4,0.4h3c0.4,0,0.4,0,0.4,0.4c0,1,0.2,0.9-0.8,0.9h-4c-0.5,0-0.5,0-0.5-0.6C98,54.5,98,53.3,98,52z
	"/>
<path class="st0" d="M153.7,52c0-1.2,0-2.5,0-3.7c0-0.4,0-0.4,0.4-0.4h4.4c0.4,0,0.4,0,0.4,0.4c0,1.1,0.1,0.9-0.9,0.9s-1.7,0-2.6,0
	c-0.4,0-0.4,0-0.4,0.4s0,1,0,1.5c0,0.3,0,0.4,0.4,0.4h2.7c0.5,0,0.5,0,0.5,0.4c0,0.8,0.1,0.8-0.8,0.8h-2.4c-0.4,0-0.4,0-0.4,0.4
	s0,1.1,0,1.6s0,0.5,0.5,0.5h3.1c0.1,0,0.2,0.1,0.2,0.2c0,0,0,0,0,0c0,0,0,0.1,0,0.1c0,1.1,0.1,0.9-0.9,0.9c-1.3,0-2.6,0-3.8,0h-0.3
	c-0.2,0-0.3-0.1-0.3-0.3c0-0.8,0-1.5,0-2.3C153.7,53.1,153.7,52.6,153.7,52z"/>
<path class="st0" d="M197.2,52c0-1.3,0-2.5,0-3.8c0-0.4,0-0.4,0.4-0.4h4.5c0.4,0,0.4,0,0.4,0.4c0,1.1,0.1,0.9-0.9,0.9s-1.6,0-2.5,0
	c-0.4,0-0.4,0-0.5,0.5s0,0.9,0,1.4c0,0.3,0.1,0.4,0.4,0.4h3c0.2,0,0.3,0.1,0.3,0.3c0,1.1,0.1,0.9-0.9,0.9h-2.3c-0.4,0-0.4,0-0.4,0.4
	c0,0.6,0,1.1,0,1.7c0,0.3,0,0.4,0.4,0.4h3.1c0.2,0,0.3,0.1,0.3,0.3c0.1,0.9,0.1,1-0.9,1h-4c-0.4,0-0.4,0-0.4-0.4c0-1.1,0-2.2,0-3.3
	C197.3,52.4,197.2,52.2,197.2,52z"/>
<path class="st0" d="M92.6,52.7c0-1,0-2.1,0-3.1c0-0.4,0-0.4-0.5-0.5h-1.7c-0.2,0-0.4-0.1-0.3-0.3s0-0.5,0-0.7s0.1-0.3,0.3-0.3h6.1
	c0.2,0,0.2,0.1,0.2,0.3s0,0.1,0,0.1c0,1.2,0.2,0.9-0.9,1h-1c-0.6,0-0.6,0-0.6,0.6c0,1.1,0,2.2,0,3.4c0,0.9,0,1.9,0,2.8
	c0,0.4,0,0.4-0.4,0.4h-0.6c-0.5,0-0.6,0-0.6-0.5C92.6,54.7,92.6,53.7,92.6,52.7z"/>
<path class="st0" d="M186.8,52c0,1.3,0,2.5,0,3.8c0,0.4,0,0.4-0.5,0.5h-0.8c-0.2,0-0.3-0.1-0.3-0.3s0-0.2,0-0.3c0-2.4,0-4.9,0-7.3
	c0-0.1,0-0.2,0-0.3s0.1-0.2,0.2-0.2h0.8c0.5,0,0.5,0,0.5,0.5C186.8,49.6,186.8,50.8,186.8,52z"/>
<path class="st0" d="M62.4,52.1c0,1.3,0,2.5,0,3.8c0,0.4,0,0.4-0.4,0.4h-0.8c-0.2,0-0.3-0.1-0.3-0.3s0-0.2,0-0.3c0-2.4,0-4.9,0-7.3
	c0-0.1,0-0.2,0-0.3s0.1-0.2,0.3-0.2l0,0c0.4,0,0.9-0.2,1.2,0.1s0.1,0.7,0.1,1.1C62.4,50,62.4,51,62.4,52.1z"/>
<path class="st0" d="M39.7,0.5C39.9,0.6,40,0.8,39.9,1c0,0.2,0,0.5,0,0.7c0,0.2,0,0.4,0,0.5c-0.1,0.4-0.1,0.8,0,1.2
	c0.1,0.5,0.1,0.9,0,1.4c0,0.2,0,0.4,0,0.5C40,5.7,40,6.1,40,6.4l0,0c-0.5,0.6,0,1.2,0,1.9c0,0.6,0,1.2-0.2,1.7
	c-0.1,0.1-0.1,0.2,0,0.4c0.1,0.1,0.1,0.2,0,0.3c-0.1,0.1-0.1,0.4,0,0.5c0.1,0.3,0,0.6,0,0.8s-0.1,0.5,0.2,0.6c0.1,0,0.1,0.1,0.1,0.2
	c0,0.5,0,1,0.2,1.5c0,0.1,0.1,0.2,0,0.2c-0.2,0.2-0.2,0.4-0.2,0.7c-0.1,0.6-0.1,1.1,0,1.7c0.1,0.2,0.1,0.5-0.1,0.7
	c-0.2,0.2-0.2,0.6,0,0.7c0,0,0,0,0.1,0c0.1,0.1,0,0.1,0,0.2c-0.1,0.1-0.1,0.2-0.2,0.2c-0.2,0.1-0.2,0.3-0.2,0.4c0,0,0,0,0,0
	c0.1,0.2,0.1,0.4,0.1,0.5c0,0.1,0,0.1,0,0.2c-0.3,0.5-0.2,1.2,0.1,1.7c0,0.1,0,0.2,0,0.3c-0.1,0.4-0.2,0.8-0.3,1.2
	c0.1,0.6,0.1,1.2,0,1.8c0,0.2,0.3,0.3,0.2,0.5c-0.1,0.2-0.1,0.3-0.1,0.5c-0.1,0.4,0,0.9,0.2,1.3c0.1,0.1-0.1,0.3-0.1,0.4
	c0,0.7,0,1.4,0.2,2.1c0.1,0.3,0.1,0.6,0,0.8c-0.1,0.5,0,1.1,0.3,1.5c0.1,0.2,0.1,0.5,0,0.8c-0.2,0.5-0.3,1-0.3,1.5
	c0,0.2,0,0.3,0,0.5c0.1,0.5,0.1,1.1,0,1.6c0,0.2,0.1,0.4,0.1,0.6s-0.2,0.6,0,1c0,0.1,0,0.1-0.1,0.2H40c-1.1-0.1-2.2-0.1-3.3,0
	c-0.2,0-0.5,0-0.7-0.1c-0.1-0.1-0.3-0.1-0.4,0c-0.3,0.2-0.7,0.2-1,0.1c-0.5-0.1-1,0-1.4,0.2c-0.1,0-0.1,0-0.2,0.1s-0.2,0.2-0.3,0.2
	s-0.3,0-0.5-0.2c-0.3-0.3-0.8-0.4-1.2-0.3c-0.3,0.2-0.7,0.1-1.1-0.1c-0.2-0.1-0.4-0.1-0.5-0.1c-0.3,0.1-0.5,0.2-0.8,0
	c-0.1,0-0.2,0-0.2,0c-0.3,0.1-0.6,0.2-0.9,0.1c-0.4,0-0.8,0.2-1.2,0.1c-0.3,0-0.7,0-1-0.2c-0.4-0.2-0.8-0.2-1.2-0.2
	c-0.1,0-0.2,0-0.2,0.1c-0.1,0.3-0.3,0.2-0.5,0.2c-0.4-0.1-0.9,0.1-1.3,0c0,0-0.1,0-0.1,0.1c-0.3,0.3-0.6,0.1-0.8-0.1
	c-0.2-0.1-0.5-0.2-0.7-0.2c-0.1,0-0.2,0-0.3,0c-0.3-0.2-0.6-0.2-0.9,0c-0.1,0-0.3,0-0.4,0c-0.3,0-0.6,0-0.8,0
	c-0.2,0-0.3,0.1-0.4-0.2s-0.3-0.1-0.3-0.1c-0.4,0.2-0.8,0.3-1.2,0.2c-0.2,0-0.5-0.1-0.7,0.1c0,0-0.2,0-0.2,0c-0.3-0.1-0.6-0.1-0.9,0
	c-0.1,0-0.2,0-0.2,0c-0.2-0.1-0.4-0.1-0.6,0c-0.2,0.1-0.4,0.1-0.7,0.1c-0.1,0-0.2,0-0.2,0c-0.2,0.4-0.4,0.1-0.7,0.1
	c-0.5,0-0.9-0.2-1.4-0.2c-0.2,0-0.5,0-0.6,0.2c-0.2,0.2-0.4,0.3-0.6,0c-0.1,0-0.1,0-0.2,0c-1.1,0-2.1-0.2-3.2-0.1
	c-0.2,0-0.4,0.1-0.6,0.1c-0.4,0.2-0.9,0.1-1.3-0.1c-0.2-0.1-0.5-0.2-0.7-0.2c-0.5-0.1-1-0.1-1.5,0C1.7,38,1.6,38,1.4,38
	c-0.3,0-0.4-0.1-0.5-0.4s0.1-0.7-0.2-0.9c0,0,0-0.2,0-0.3c0-0.2,0-0.4,0-0.6c0-0.2,0-0.4,0.1-0.6c0.1-0.3,0.1-0.7,0-1
	c-0.1-0.2,0-0.4-0.2-0.6c-0.1,0,0-0.2,0-0.3c0.1-0.3,0.1-0.6,0.1-0.9c0.1-0.5,0.1-1.1,0-1.6c0-0.2-0.1-0.4,0.2-0.4
	c0.1,0,0.1-0.1,0-0.1s-0.2-0.2-0.1-0.3c0-0.7,0.1-1.3,0.2-2c0.1-0.2-0.1-0.4-0.2-0.6s-0.2-0.3,0-0.4c0.1-0.2,0.1-0.4,0-0.6
	c-0.1-0.2-0.1-0.3-0.1-0.5c0.1-0.4,0.1-0.8-0.1-1.1c-0.1-0.1-0.1-0.3,0.1-0.4c0,0,0,0,0,0c0.2-0.1,0.2-0.4,0.1-0.5
	c-0.1-0.3,0-0.6-0.1-0.9c0,0,0-0.1,0-0.1c0.3-0.3,0.1-0.5,0.1-0.8c0-0.1,0-0.2,0.1-0.3C1,21.5,1.1,21.2,1.1,21c0-1.7,0-3.4-0.1-5.1
	c0-0.5,0-1,0-1.5c0-0.4,0-0.8,0.1-1.2c0-0.1,0-0.2-0.1-0.3c-0.3-0.2-0.2-0.4-0.2-0.7c0.1-0.4,0.1-0.9-0.1-1.3c0-0.1-0.1-0.3,0-0.3
	C1,10.4,0.8,10.1,1,9.8c0-0.1,0-0.2,0-0.2C0.7,9.5,0.8,9.3,0.8,9.1c0.1-0.3,0.1-0.5-0.1-0.8C0.6,8,0.6,7.6,0.7,7.2
	c0-0.1,0.1-0.2,0-0.3C0.5,6.6,0.6,6.4,0.8,6.2c0.2-0.3,0.2-0.7,0.1-1C0.7,4.3,0.6,3.5,0.6,2.6c0,0,0-0.1,0-0.2
	c0-0.2,0.2-0.3,0.3-0.5S0.7,1.7,0.7,1.5S1,1,1.3,1C1.8,1.1,2.4,1,3,1.1c0.5,0,0.9,0,1.4,0c0.4,0,0.8-0.1,1.1-0.2c0.1,0,0.2,0,0.3,0
	C6.1,1.1,6.4,1.1,6.6,1C7,0.9,7.4,1,7.8,0.9c0.2,0,0.4,0,0.6,0.1c0.4,0.1,0.8,0.2,1.2,0.2c0.1,0,0.2,0,0.2,0c0.8-0.3,1.7,0,2.5-0.2
	c0.2,0,0.4,0,0.6,0.1c0.2,0.1,0.5,0,0.7,0c0.3,0.1,0.7,0,1-0.2c0.1-0.1,0.3-0.1,0.4,0c0.3,0.2,0.7,0.2,1,0.3S16.7,1,17,1
	c0,0,0.1-0.1,0.1-0.1c0.4,0.1,0.8-0.1,1.2,0c0.2,0.1,0.3,0.1,0.5,0.1c0.3,0,0.7,0,1,0c0.1,0,0.3,0,0.3,0.1c0.3,0.4,0.7,0.2,1.1,0.2
	c0.4,0,0.8-0.1,1.2-0.1c0.2,0,0.5-0.1,0.6,0.1s0.3-0.2,0.5-0.1c0.3,0.1,0.6,0.1,0.9,0.1c0.6,0.1,0.6,0.1,1.1-0.3
	c0.2-0.1,0.3-0.2,0.4,0c0.3,0.3,0.8,0.3,1.2,0.1c0.3-0.1,0.6-0.1,0.8,0c0.3,0.1,0.6,0.1,0.9-0.1c0.2-0.1,0.4-0.1,0.7-0.1
	c0.4,0.1,0.8,0.1,1.2,0.1c0.2,0,0.3,0,0.5,0.1c0.5,0.1,1,0.3,1.6,0c0.2-0.1,0.4-0.1,0.5,0c0.2,0.1,0.5,0.1,0.8,0.1
	c0.3,0,0.6,0,0.8,0c0.2,0,0.5,0,0.7-0.1c0.4-0.3,0.9-0.2,1.2,0.1c0.1,0.1,0.3,0.2,0.5,0.1c0.3-0.1,0.7-0.1,1,0
	c0.2,0.1,0.5,0.2,0.6-0.2c0-0.1,0.2-0.1,0.3-0.1c0.2-0.1,0.3-0.2,0.4-0.4H39.7z M37.9,36.2c0-0.8,0-1.5,0-2.2c0.1-0.4,0.1-0.9,0-1.3
	c-0.1-0.4,0.1-0.9,0-1.4c-0.1-0.5,0-1,0.1-1.6c0-0.1,0.1-0.2-0.1-0.3s-0.1-0.2,0-0.4s0.2-0.5-0.1-0.7c-0.1-0.1-0.1-0.1-0.1-0.2
	c0-0.3,0.1-0.7,0.2-1c0.1-0.2,0.1-0.5,0.1-0.7c0-1.2,0-2.4-0.1-3.6c0-0.3,0-0.5-0.1-0.8c-0.1-0.2-0.1-0.5,0.1-0.7
	c0.1-0.1,0.1-0.2,0.1-0.3c-0.1-0.5-0.1-1-0.1-1.5c0-0.1,0-0.2,0-0.2c-0.2-0.2-0.1-0.5-0.1-0.8c0-0.7,0-1.4,0-2.1
	c0-0.3-0.1-0.7,0.1-1.1c-0.2-0.4,0-0.8,0-1.2s0-0.9-0.1-1.4c0-0.1,0-0.2,0-0.3c-0.2-0.5-0.2-1.2-0.1-1.7c0.1-0.2,0.1-0.4,0-0.6
	c-0.1-0.2-0.1-0.5,0-0.8c0.1-0.1,0.1-0.3,0-0.4c-0.1-0.5-0.1-1,0-1.5c0-0.1,0-0.2,0-0.2c-0.1-0.3-0.1-0.6,0-0.8
	c0-0.1,0.1-0.2,0.1-0.3c-0.1-0.4-0.1-0.7-0.1-1.1c0-0.2-0.1-0.4,0.1-0.6c0.1-0.1,0.1-0.2,0-0.2c0,0,0,0,0,0
	c-0.2-0.2-0.1-0.3-0.1-0.5c0.1-0.6,0-0.7-0.6-0.7c-1.6,0-3.2-0.1-4.8,0c-0.7,0.1-1.4-0.1-2.1-0.1c-1.8,0-3.7,0-5.5,0
	c-0.5,0-0.9,0.2-1.4,0.1c-2-0.1-3.9-0.1-5.9-0.1c-0.3,0-0.7,0-1,0.1c-0.3,0-0.7,0-1-0.1c-0.3,0-0.7-0.1-1,0.1
	c-0.2,0.1-0.5,0.1-0.7,0c-0.2-0.1-0.5-0.2-0.7-0.1C12.9,3,12.6,3,12.3,2.9c-0.3-0.1-0.6-0.1-0.9,0C11.3,3,11.2,3.1,11,3h-1
	C7.7,2.9,5.4,2.9,3.1,3C3,3,2.8,3,2.8,3.2c0.1,0.4-0.1,0.7,0,1.1c0.1,0.4,0.1,0.9,0,1.3c-0.1,0.5-0.1,1,0,1.6c0,0.4,0.1,0.7,0.1,1.1
	S2.8,8.8,2.9,9c0.1,0.6,0.1,1.1,0,1.7c0,0.4,0,0.9,0,1.3C3,12.5,3,13,2.9,13.4c0,0.1,0,0.1,0,0.2C2.9,13.8,3,14,3,14.2
	c0,1.1,0.1,2.2,0.1,3.3c0,0.2,0.1,0.5,0.1,0.7c0,0.3-0.1,0.5,0.1,0.7c0,0,0,0.1,0,0.1c0,0.7-0.1,1.4-0.1,2.2c0,0.3,0,0.6-0.1,0.9
	c-0.1,0.1,0,0.2,0,0.2c0.1,0.1,0.1,0.2,0.1,0.3c0,0.6,0,1.1-0.1,1.7c0,0.2-0.1,0.3-0.1,0.5c0.1,0.3,0.2,0.6,0.1,0.9
	c0,0.8,0,1.7,0,2.6c0,0.4,0,0.8,0.2,1.1c0.1,0.3,0.1,0.6,0.1,0.9c0,0.2,0,0.3-0.2,0.4S2.9,31,2.9,31.2c0,0.2,0.1,0.5,0.2,0.7
	c0,0.1,0.1,0.2,0,0.3s-0.1,0.4,0,0.6c0.1,0.1,0.1,0.2,0.1,0.4c0,0.5,0,1-0.1,1.4C3,35,3,35.5,3.1,36c0,0.3,0.2,0.3,0.4,0.3
	c0.5,0,1-0.1,1.4-0.1c0.2-0.1,0.4-0.1,0.6,0c0.2,0.1,0.5,0.1,0.8,0c0.1,0,0.3,0,0.4,0c0.5,0.1,1.1,0.1,1.6,0c0.3-0.1,0.6-0.1,0.8,0
	c0.2,0.1,0.4,0.1,0.6,0.1l1.3-0.1c0.1,0,0.2-0.1,0.2,0s0.1,0.2,0.3,0.2c1.1,0,2.3-0.1,3.4-0.3c0,0,0.1,0,0.1,0c0.2,0.1,0.4,0,0.6,0
	c0.3-0.1,0.7,0,1,0.1c0.2,0.1,0.5,0.1,0.7-0.1c0.1-0.1,0.2-0.1,0.3-0.1c0.3,0.1,0.7,0,1,0.2c0.1,0.1,0.2,0,0.3,0
	c0.7-0.2,1.3-0.3,2-0.3c0.1,0,0.2,0,0.3,0.1c0.2,0.2,0.4,0.2,0.6,0.1c0.7-0.1,1.4-0.2,2.1-0.1c0.3,0.1,0.6,0.1,0.9,0
	c0.3-0.1,0.7,0,1,0.1c0.1,0,0.2,0.1,0.3,0c0.4-0.1,0.8-0.2,1.2-0.2c0.1,0,0.2,0,0.3,0c0.3,0.2,0.7,0.2,1,0c0.1,0,0.2-0.1,0.3-0.1
	c0.3,0,0.5,0,0.8,0c0.4,0,0.9-0.1,1.2,0.2c0,0,0.2,0,0.2,0c0.2,0,0.5,0,0.7-0.1c0.1-0.1,0.2-0.1,0.2,0.1c0,0.1,0.1,0.1,0.2,0.1
	c0.2,0,0.4,0,0.6,0c0.7-0.1,1.4-0.1,2.2,0c0.1,0,0.2,0,0.2,0c0.3-0.3,0.6-0.1,0.9-0.1c0.3,0.1,0.5,0.1,0.8,0
	C37.2,36.1,37.6,36.1,37.9,36.2L37.9,36.2z"/>
<path class="st0" d="M18.4,11c-0.4,0-0.9,0-1.3,0.1c-0.1,0-0.2,0.1-0.3,0.1c-0.5-0.1-1,0-1.5,0.1l0,0c-0.6-0.1-1.2,0-1.8,0.2l0,0
	c-0.8,0-1.7,0-2.5,0.1c-0.3,0-0.4-0.1-0.3-0.4c0-0.2,0.1-0.5,0.3-0.6c0.5-0.4,0.8-0.8,1.1-1.4c0.1-0.2,0.3-0.4,0.4-0.7
	c0.1-0.2,0.2-0.4,0.2-0.6c0-0.3,0.5-0.8,0.8-0.7c1,0.2,2,0.1,2.9-0.1c0.6-0.1,1.2-0.1,1.9-0.1c0.7,0.1,1.4,0.1,2.1-0.1
	C20.7,7,21,7,21.3,7c0.4,0,0.8-0.1,1.2-0.3c0.1,0,0.2-0.1,0.3-0.1c0.6,0,1.3,0,1.9,0c0.4,0,0.8,0,1.2-0.1c0.4,0,0.7-0.1,1.1-0.1
	c0.5,0,1,0,1.5-0.1c0.1-0.1,0.2-0.1,0.3,0c0.2,0.1,0.4,0.1,0.6,0.1c0.7-0.2,1.3-0.2,2-0.2c0.4,0,0.9,0,1.3-0.2
	C33,6.1,33.3,6,33.6,6.1c0.1,0,0.1,0,0.2-0.1c0.3-0.1,0.6-0.1,0.8,0c0.3,0.2,0.4,0.5,0.2,0.8c-0.1,0.2-0.2,0.4-0.2,0.7
	c0,0.1-0.1,0.2-0.2,0.2c0,0,0,0,0,0c-0.5,0.2-0.9,0.5-1.1,0.9c-0.1,0.2-0.3,0.4-0.5,0.5c-0.1,0.1-0.3,0.2-0.4,0.3
	c-0.2,0.3-0.5,0.4-0.8,0.4c-0.5,0-1.1,0.1-1.6,0.2c-0.6,0.1-1.3,0.2-1.9,0.1c-0.5-0.1-0.9-0.1-1.4,0c-0.3,0.1-0.7,0.1-1-0.1
	c-0.1-0.1-0.3,0-0.4,0l-0.6,0.1c-0.4,0.1-0.5,0.2-0.5,0.6c-0.1,0.3-0.1,0.7-0.2,1c0,0.1-0.1,0.2-0.2,0.3c-0.1,0.1-0.2,0.3-0.3,0.5
	c0,0.5-0.3,0.9-0.6,1.2c-0.3,0.3-0.4,0.7-0.8,1c-0.1,0.1-0.1,0.1-0.1,0.2c0,0.2-0.1,0.4-0.2,0.5c-0.2,0.3-0.2,0.6-0.5,0.8
	c-0.6,0.4-0.6,1.1-1.1,1.6c0.5,0.1,0.9,0.2,1.4,0.2c0.4-0.1,0.7-0.1,1.1,0c0.1,0,0.3,0,0.4-0.1c0.3-0.2,0.6-0.2,1-0.2
	c0.5,0.1,1,0,1.5-0.3c0,0,0.1,0,0.1-0.1c0.8-0.2,1.5-0.2,2.3-0.2c0.3,0,0.6,0.1,0.9,0.1c0.1,0,0.2,0.1,0.2,0.2c0,0,0,0,0,0
	c0.2,0.6,0,1.3-0.3,1.8c-0.1,0.1-0.1,0.2-0.1,0.3c0,0.3-0.2,0.4-0.4,0.4c-0.3,0.1-0.6,0.1-1,0.2c-0.1,0-0.1,0-0.2,0
	c-0.5-0.2-1-0.2-1.5-0.2c-0.5-0.1-1.1-0.1-1.6,0c0,0-0.1,0-0.2,0c-0.5,0.2-1.1,0.2-1.7,0.1c-0.7,0.1-1.5,0.2-2.2,0.4
	c-0.2,0.1-0.3,0.1-0.5,0.1c-0.3,0-0.6,0.2-0.8,0.4c-0.2,0.3-0.4,0.6-0.6,0.8c-0.2,0.2-0.2,0.4-0.2,0.6c0,0.1,0,0.2,0,0.2
	c-0.4,0.6-0.4,1.3-1,1.8c-0.1,0.1-0.2,0.3-0.2,0.4c0,0.5-0.2,1-0.5,1.4c-0.3,0.5-0.6,1-0.9,1.6c0,0,0,0.1,0,0.1
	C15,28.8,14.5,29.4,14,30c-0.1,0-0.1,0.1-0.1,0.2c-0.1,0.4-0.3,0.8-0.6,1.2c-0.3,0.4-0.6,0.9-0.7,1.4c-0.1,0.3-0.3,0.7-0.6,0.9
	c-0.1,0.1-0.2,0.1-0.3,0c-0.3-0.4-0.8-0.3-1.2-0.3S9.9,33.2,9.8,33c0-0.1-0.1-0.1-0.2-0.1c-0.2,0-0.3-0.1-0.3-0.4S9,32,8.8,31.9
	c-0.2-0.1-0.5-0.2-0.7-0.4c-0.1-0.1-0.2-0.1-0.3-0.1s-0.3-0.1-0.3-0.3c-0.2-0.6,0.1-1.3,0.7-1.6c0.2-0.1,0.2-0.4,0.3-0.6
	c0.2-0.6,0.5-1.2,0.7-1.8c0,0,0-0.1,0-0.1c0.2-0.2,0.3-0.5,0.3-0.8c0-0.1,0-0.2,0.1-0.3c0.3-0.4,0.5-0.8,0.7-1.2
	c0.1-0.2,0.2-0.5,0.5-0.6c0.1-0.1,0.2-0.2,0.3-0.3c0.1-0.2,0.1-0.4,0.2-0.6c0-0.6,0.5-0.9,0.7-1.3c0.1-0.2,0.4-0.2,0.5-0.3
	s0.4-0.2,0.4-0.5c0-0.1,0-0.1,0.1-0.2c0.3-0.3,0.6-0.8,0.7-1.2c0,0,0-0.1,0-0.1c0.3-0.4,0.6-0.9,0.8-1.4c0.2-0.3,0.3-0.6,0.5-0.9
	c0.1-0.3,0.3-0.6,0.5-0.8c0.3-0.3,0.5-0.6,0.6-0.9c0.1-0.3,0.2-0.6,0.5-0.7s0.2-0.2,0.2-0.4s0.1-0.6,0.4-0.7c0.1,0,0.2-0.2,0.1-0.3
	c0,0,0,0,0,0c-0.1-0.2,0-0.3,0.2-0.3c0.3-0.2,0.4-0.6,0.7-0.9c0.1-0.1,0.2-0.3,0.3-0.4c0.1-0.1,0.2-0.3,0.1-0.4
	C18.3,11.3,18.4,11.2,18.4,11z"/>
<path class="st0" d="M213.8,19.3c-0.5,0.4-1.1,0.7-1.6,1l0,0c-0.6,0.9-1.6,1.1-2.2,1.9c-0.3,0.3-0.7,0.6-1.2,0.8
	c-0.4,0.2-0.8,0.5-1.1,0.8c-0.4,0.4-1,0.7-1.3,1.2c-0.2,0.3-0.5,0.5-0.9,0.6c-0.2,0-0.3,0.1-0.4,0.3c-0.2,0.3-0.6,0.6-0.9,0.6
	c-0.4,0.1-0.7,0.3-1,0.6l-0.5,0.4c-0.1,0.1-0.3,0.2-0.5,0.2c-0.6,0-1.1,0.5-1.6,0.7c-0.1,0.3-0.4,0.4-0.6,0.6
	c-0.1,0.1-0.2,0.2-0.4,0.2c-0.2,0.1-0.4,0.2-0.6,0.4c-0.4,0.4-0.8,0.7-1.3,0.9c-0.1,0-0.2,0.1-0.2,0.2c-0.3,0.3-0.6,0.5-0.9,0.7
	c-0.4,0.2-0.8,0.6-1.1,0.9c-0.1,0.1-0.2,0.2-0.3,0.3c-0.5,0.3-0.9,0.8-0.9,1.4c0,0.1,0,0.1-0.1,0.2c-0.4,0.5-0.7,1.1-0.7,1.8
	c0,0.1-0.1,0.2-0.1,0.3c-0.2,0.4-0.3,0.7-0.4,1.1c-0.1,0.4-0.3,0.8-0.5,1.1c-0.2,0.4-0.4,0.9-0.6,1.4c-0.1,0.3-0.3,0.6-0.6,0.8
	c-0.7,0.6-1.3,1.2-1.9,1.9c-0.2,0.3-0.5,0.4-0.9,0.4c-0.3,0-0.7,0-1,0c-0.5,0-1,0-1.5-0.2c-0.2-0.1-0.4-0.1-0.6-0.1
	c-0.5,0-1-0.4-1.2-0.8c0-0.1-0.1-0.2-0.2-0.2c-0.2-0.1-0.3-0.3-0.2-0.6c0-0.3-0.1-0.5-0.2-0.8c-0.2-0.4-0.1-0.9,0.2-1.3
	c0.4-0.3,0.6-0.8,0.6-1.3c0-0.1,0-0.2,0.1-0.3c0.3-0.4,0.5-0.7,0.7-1.1c0,0,0-0.1,0.1-0.1c0.5-0.2,0.7-0.6,1.1-0.9
	c0.3-0.2,0.6-0.5,0.8-0.8c0.2-0.3,0.5-0.5,0.8-0.6c0.4-0.2,0.8-0.4,1.1-0.8c0.2-0.2,0.5-0.4,0.7-0.6c0.5-0.4,0.9-1,1-1.7
	c0.1-0.4,0.2-0.8,0.4-1.2c0.2-0.4,0.3-0.8,0.4-1.3c-0.4,0.1-0.8,0.4-0.9,0.8c-0.1,0.2-0.3,0.4-0.5,0.6c-0.3,0.2-0.6,0.6-0.9,0.8
	c-0.4,0.3-0.7,0.6-1.1,0.9c-0.1,0.1-0.3,0.2-0.4,0.2c-0.3,0.3-0.8,0.5-1.2,0.6c-0.2,0-0.3,0.1-0.5,0.2c-0.2,0.1-0.4,0.1-0.6,0.1
	c-0.1,0-0.2,0-0.2,0c-0.3,0.2-0.6,0.1-0.8-0.2c0,0,0,0-0.1-0.1c-0.7-0.2-1.3-0.6-1.8-1c-0.2-0.2-0.4-0.4-0.6-0.6
	c0,0-0.1-0.1-0.1-0.1c0-0.5-0.3-1-0.2-1.5c0-0.2,0-0.3,0-0.5c0-0.4,0-0.8,0.1-1.1c0,0,0-0.1,0-0.1c0.4-0.4,0.3-1,0.5-1.5
	c0-0.1,0.1-0.2,0.1-0.3c0.1-0.1,0.2-0.3,0.3-0.5c0.1-0.4,0.3-0.7,0.5-1c0.2-0.3,0.4-0.7,0.6-1c0.3-0.5,0.7-1,1.1-1.4
	c0.1-0.1,0.2-0.3,0.2-0.5c-0.4-0.1-0.8,0-1,0.3c-0.5,0.6-1.2,0.9-1.7,1.5c-0.6,0.2-0.8,0.7-1.3,1s-0.9,0.7-1.3,1.1
	c-0.2,0.1-0.4,0.3-0.5,0.6c-0.1,0.1-0.1,0.2-0.3,0.2c-0.3,0.1-0.5,0.3-0.7,0.6c-0.1,0.1-0.3,0.3-0.5,0.3c-0.1,0-0.2,0.1-0.3,0.2
	c-0.1,0.3-0.4,0.5-0.7,0.6c-0.1,0.1-0.3,0.1-0.4,0.3c-0.4,0.4-0.9,0.8-1.4,1.2c-0.3,0.2-0.5,0.6-0.8,0.8c-0.6,0.5-1.2,1.1-1.8,1.7
	c-0.2,0.2-0.3,0.4-0.6,0.5c-0.3,0.2-0.6,0.2-0.9,0.1c-0.2-0.1-0.4-0.3-0.6-0.4c-0.3-0.3-0.6-0.4-1-0.4c-0.3,0-0.6-0.1-0.8-0.4
	c-0.1-0.1-0.2-0.3-0.4-0.3c-0.5-0.1-0.8-0.6-0.7-1.1c0-0.1,0-0.2,0.1-0.2c0.2-0.6,0.6-1.2,0.8-1.8c0.1-0.1,0.1-0.2,0.1-0.4
	c0.1-0.5,0.3-1.1,0.6-1.5c0.1-0.2,0.2-0.4,0.2-0.6c0-0.3,0.1-0.5,0.2-0.8c0.3-0.6,0.5-1.3,0.6-2c0.1-0.4,0.2-0.8,0.4-1.1
	c0-0.1,0.1-0.2,0.1-0.3c0.1-0.5-0.1-0.7-0.5-0.6c-0.1,0-0.2,0.1-0.3,0.1c-0.6,0-1,0.5-1.4,0.9c-0.1,0.1-0.1,0.3-0.2,0.4l-0.8,0.8
	c-0.5,0.5-1,1-1.4,1.5c0,0-0.1,0.1-0.1,0.2c-0.1,0.4-0.3,0.7-0.7,0.8c-0.1,0.1-0.3,0.1-0.3,0.3c-0.1,0.3-0.3,0.5-0.5,0.7
	c-0.3,0.3-0.6,0.7-0.8,1.2c-0.1,0.3-0.2,0.7-0.3,1c0,0.2-0.3,0.4-0.4,0.6s-0.2,0.1-0.2,0.2c0,0.4-0.3,0.6-0.5,0.9s-0.5,0.5-0.4,1
	c0,0.2-0.1,0.2-0.2,0.3c-0.3,0.1-0.5,0.3-0.5,0.6c-0.1,0.3-0.3,0.4-0.6,0.2c-0.4-0.3-0.9-0.5-1.4-0.6c-0.1,0-0.2-0.1-0.2-0.2
	c-0.2-0.2-0.4-0.3-0.6-0.3c-0.4,0-0.7-0.3-1.1-0.5s-0.3-0.4-0.1-0.8c0.2-0.2,0.4-0.5,0.4-0.8c0-0.2,0.1-0.5,0.2-0.7
	c0.2-0.5,0.5-1,0.8-1.4c0-0.1,0.1-0.1,0.1-0.2c0-0.5,0.3-0.9,0.3-1.4c0-0.2,0.1-0.4,0.3-0.5c0.2-0.1,0.3-0.4,0.3-0.6
	c0-0.2,0.1-0.5,0.2-0.7c0.2-0.2,0.3-0.4,0.3-0.7c0.1-0.4,0.2-0.8,0.4-1.2c0.2-0.4,0.3-0.8,0.4-1.2c0.1-0.2-0.1-0.3-0.2-0.5
	c-0.2,0.2-0.5,0.3-0.8,0.3c-0.1,0-0.2,0.1-0.2,0.1c-0.2,0.4-0.7,0.5-0.9,0.8c0,0-0.1,0.1-0.1,0.1c-0.5,0-0.7,0.5-1.1,0.6
	c-0.1,0-0.2,0.1-0.2,0.2c-0.1,0.3-0.3,0.5-0.6,0.6c-0.2,0-0.2,0.3-0.4,0.4c-0.4,0.2-0.8,0.5-1.1,0.8c-0.2,0.2-0.4,0.3-0.6,0.4
	c-0.1,0-0.1,0.1-0.2,0.2s-0.2,0.3-0.3,0.3c-0.5,0.2-0.8,0.6-1.2,0.9c-0.3,0.2-0.6,0.5-0.8,0.8c-0.1,0.1-0.2,0.2-0.4,0.3
	c0,0-0.1,0-0.1,0.1c-0.8,0.5-1.6,1.1-2.3,1.8l-1.9,1.9c-0.1,0.1-0.2,0.2-0.2,0.3c-0.1,0.2-0.2,0.3-0.4,0.3c-0.2,0.1-0.4,0.2-0.6,0.4
	c-0.1,0.1-0.3,0.2-0.5,0.3c-0.4,0.2-0.9,0.2-1.2-0.2c-0.4-0.3-0.8-0.6-1.2-0.8c-0.2-0.1-0.3-0.4-0.6-0.3c-0.1-0.4-0.5-0.5-0.8-0.7
	c-0.1-0.1-0.1-0.2-0.1-0.3c0-0.4,0.1-0.7,0.3-1c0.4-0.7,0.7-1.5,0.9-2.3c0.1-0.2,0.2-0.4,0.3-0.6c0.3-0.4,0.4-0.8,0.4-1.3
	c0-0.2,0-0.4,0.2-0.6c0.2-0.2,0.3-0.5,0.2-0.8c0-0.2,0-0.3,0-0.5c0-0.4,0.3-0.7,0.4-1.1c0-0.1,0-0.1,0.1-0.2c0-0.2,0-0.4-0.2-0.5
	c-0.1-0.1-0.3,0-0.4,0.1l-1.2,0.7c-0.1,0-0.2,0.1-0.2,0.2c0,0.3-0.2,0.4-0.5,0.5c-0.3,0.1-0.5,0.3-0.6,0.6c-0.1,0.3-0.4,0.5-0.7,0.6
	c-0.3,0.1-0.5,0.3-0.6,0.6c-0.1,0.1-0.1,0.3-0.3,0.3c-0.3,0.2-0.5,0.4-0.8,0.5c-0.3,0.1-0.5,0.3-0.7,0.5c-0.1,0.1-0.2,0.2-0.3,0.4
	c-0.1,0.1-0.1,0.2-0.2,0.3c-0.5,0.3-1,0.7-1.4,1.2c-0.2,0.1-0.4,0.3-0.4,0.6c0,0.1-0.1,0.2-0.2,0.2c-0.5,0.3-1,0.7-1.5,1.1
	c-0.1,0-0.1,0.1-0.1,0.1c-0.5,0.1-0.8,0.6-1.2,0.9c-0.1,0.1-0.1,0.1-0.1,0.2c-0.1,0.3-0.4,0.6-0.7,0.8c-0.5,0.2-0.9,0.5-1.3,0.9
	c-0.2,0.2-0.6,0.3-0.9,0.3c-0.3-0.1-0.6-0.2-0.8-0.4c-0.3-0.1-0.5-0.3-0.8-0.4c-0.3-0.2-0.6-0.3-0.8-0.4c-0.3-0.1-0.6-0.3-0.7-0.6
	c-0.1-0.3,0-0.7,0.2-0.9c0.4-0.3,0.6-0.8,0.7-1.2c0.1-0.2,0.3-0.3,0.4-0.5c0.2-0.4,0.4-0.8,0.5-1.3c0-0.1,0-0.3,0.1-0.4
	c0-0.2,0.4-0.2,0.3-0.4c-0.1-0.2-0.1-0.4,0-0.5c0-0.1,0.1-0.3,0.1-0.4c0.3-0.8,0.6-1.7,0.8-2.5c0.1-0.3,0.2-0.7,0.3-1
	c0-0.1,0-0.2,0-0.2s-0.2,0-0.2,0c-0.1,0.1-0.2,0.1-0.3,0.2c-0.6,0.1-1.1,0.5-1.4,1c-0.2,0.2-0.4,0.5-0.7,0.6c-0.7,0.4-1.2,1-1.7,1.6
	c-0.4,0.5-0.8,1-1.2,1.5c-0.6,0.5-1,1.2-1.2,1.9c0,0.1,0,0.1-0.1,0.2c-0.2,0.3-0.4,0.7-0.5,1.1c0,0.1-0.1,0.2-0.2,0.3
	c-0.3,0.2-0.3,0.6-0.6,0.8s0,0.3,0,0.4c0.1,0.2,0,0.4-0.1,0.6c-0.1,0.1-0.1,0.2-0.1,0.4c0,0.2-0.1,0.3-0.1,0.5
	c-0.1,0.3-0.3,0.3-0.6,0.3c-0.6-0.1-1-0.5-1.5-0.7c-0.2-0.1-0.5-0.2-0.7-0.2c-0.4-0.1-0.8-0.3-1.1-0.7c-0.3-0.3-0.3-0.3,0-0.6
	c0.4-0.4,0.6-1,0.6-1.6c0-0.1,0-0.1,0.1-0.2c0.3-0.5,0.5-1.2,0.6-1.8c0-0.2,0.1-0.3,0.2-0.5c0.1-0.1,0.2-0.2,0.2-0.3
	c0-0.7,0.6-1.1,0.7-1.8c0-0.1,0.1-0.2,0.1-0.3c0-0.1,0-0.1,0-0.2c0-0.4,0-0.8,0.1-1.1c0.1-0.3-0.1-0.5-0.4-0.4
	c-0.7,0.1-1.3,0.5-1.7,0.9c-0.4,0.5-0.9,0.9-1.5,1.1c-0.1,0.1-0.3,0.1-0.3,0.2c-0.1,0.4-0.4,0.6-0.7,0.8c-0.3,0.3-0.5,0.6-0.7,1
	c-0.2,0.4-0.4,0.8-0.5,1.3c-0.1,0.3-0.3,0.5-0.5,0.7c-0.1,0.1-0.2,0.3-0.3,0.5c0,0.1-0.1,0.3-0.2,0.4c-0.2,0.3-0.4,0.7-0.5,1.1
	c-0.1,0.2-0.2,0.4-0.3,0.6c-0.3,0.3-0.5,0.6-0.7,1c-0.1,0.3-0.5,0.5-0.8,0.4c-0.1,0-0.3,0-0.4-0.1c-0.2,0-0.3-0.1-0.4-0.3
	c-0.1-0.2-0.4-0.4-0.6-0.4c-0.5-0.1-0.9-0.3-1.2-0.6c0,0-0.1-0.1-0.1-0.1c-0.5,0-0.6-0.6-0.8-0.9c-0.1-0.1-0.1-0.2,0-0.3
	c0.1-0.1,0.1-0.2,0.2-0.3c0.6-0.6,1.1-1.4,1.3-2.2c0.2-0.5,0.3-1,0.5-1.4c0-0.1,0.1-0.2,0.2-0.3c0.3-0.3,0.5-0.8,0.6-1.3
	c0-0.2,0.1-0.3,0.2-0.4c0.2-0.1,0.3-0.3,0.4-0.6c0.2-0.7,0.5-1.4,0.8-2c0.1-0.2,0.2-0.5,0.2-0.8c0-0.2-0.1-0.3-0.3-0.2
	c-0.2,0-0.4,0.1-0.5,0.2c-0.5,0.5-1.1,1-1.6,1.5c-0.8,0.9-1.7,1.9-2.6,2.7c-0.2,0.2-0.4,0.5-0.5,0.8c0,0.1-0.1,0.2-0.2,0.2
	c-0.4,0.2-0.7,0.5-1,0.8c-0.4,0.4-0.9,0.8-1.3,1.2s-1,0.7-1.4,1c-0.1,0.2-0.3,0.3-0.4,0.4c-0.3,0.2-0.6,0.5-1,0.6
	c-0.5,0.2-0.9,0.7-1.4,0.9c-0.5,0.3-1.1,0.6-1.7,0.7c-0.3,0.1-0.6,0.2-0.9,0.3c-0.9,0.3-1.9,0.5-2.8,0.6c-0.1,0-0.2,0-0.3,0
	c-1.2,0.2-2.4,0.2-3.7,0c0,0-0.1,0-0.1,0c-0.3-0.2-0.6-0.3-1-0.3c-0.1,0-0.3,0-0.3-0.1c-0.2-0.3-0.6-0.3-0.8-0.5S88,30.8,88,30.5
	s-0.2-0.3-0.4-0.3c-0.6-0.2-1.1-0.7-1.3-1.3c-0.1-0.4-0.3-0.7-0.4-1.1c-0.1-0.2-0.2-0.2-0.3-0.1c-0.3,0.1-0.7,0.1-1.1,0.2
	c-1,0.1-2,0.4-3,0.8c0,0-0.1,0-0.1,0.1c-1,0-1.8,0.7-2.7,0.9c-0.2,0.1-0.4,0.2-0.5,0.3c-0.2,0.2-0.4,0.3-0.7,0.4
	c-0.5,0.1-0.9,0.3-1.2,0.7c-0.3,0.3-0.7,0.6-0.9,1c-0.3,0.4-0.5,0.3-0.8,0c-0.2-0.2-0.6-0.4-0.9-0.4c-0.5-0.1-0.7-0.5-1-0.8
	c-0.1-0.3-0.4-0.5-0.7-0.7c-0.3-0.2-0.6-0.5-0.8-0.8c-0.1-0.1-0.1-0.2,0-0.3c0.5-0.2,0.7-0.7,1-1c0.2-0.1,0.3-0.2,0.3-0.4
	c0-0.2,0.1-0.4,0.2-0.5c0.2-0.3,0.4-0.6,0.5-0.9c0.1-0.3,0.2-0.7,0.2-1c0-0.1,0-0.2,0.1-0.2c0.3-0.2,0.3-0.5,0.5-0.8
	s0.2-0.5,0.5-0.5c0.1,0,0.2-0.2,0.2-0.3c0.3-0.5,0.5-1,0.6-1.6c0-0.1,0.1-0.3,0.2-0.3c0.1-0.1,0.2-0.3,0.2-0.4c0-0.2,0-0.4,0.3-0.4
	c0,0,0.1-0.1,0.1-0.1c-0.1-0.5,0.5-0.7,0.4-1.2c0-0.1,0.1-0.2,0.2-0.3c0.2-0.1,0.4-0.4,0.3-0.6c0-0.5,0.3-1,0.7-1.3
	c0,0,0.1-0.1,0.1-0.1c0.1-0.5,0.5-0.8,0.7-1.2c0.3-0.5,0.6-1,0.9-1.5c0.2-0.3,0.3-0.5,0.4-0.8s0.1-0.9,0.4-1.2s0.4-0.8,0.6-1.1
	c0.1-0.2,0.2-0.5,0.1-0.7c-0.1-0.2,0-0.3,0.2-0.4c0.2-0.1,0.4-0.4,0.3-0.7c0-0.1,0-0.3,0.1-0.3c0.3-0.4,0.5-0.7,0.8-1.2
	c0.2-0.4,0.4-0.8,0.6-1.1c0.1-0.1,0.1-0.1,0.1-0.2c0-0.3,0.2-0.5,0.5-0.7c0.2-0.1,0.3-0.3,0.3-0.5c0-0.1,0-0.3,0.1-0.3
	c0,0,0,0,0.1,0c0.1,0,0.2-0.1,0.2-0.2c0-0.1,0.1-0.2,0.2-0.3c0.2-0.1,0.2-0.3,0.1-0.4c-0.1-0.2-0.1-0.5,0.1-0.6l0.4-0.4
	c0.2-0.2,0.3-0.3,0.6-0.1l0,0c0.6-0.1,0.8,0.3,1.1,0.7c0.1,0.1,0.2,0.2,0.3,0.3c0.3,0.1,0.6,0.3,0.8,0.5C88,4.4,88.2,4.6,88.1,5
	c0,0.2,0.1,0.3,0.2,0.4c0.2,0.4,0.2,0.9-0.1,1.3c-0.3,0.3-0.5,0.8-0.6,1.2c0,0.1-0.1,0.3-0.2,0.4c-0.3,0.5-0.6,0.9-1,1.3
	c-0.2,0.1-0.4,0.3-0.3,0.6c0,0.1-0.1,0.3-0.2,0.4c-0.3,0.4-0.5,0.8-0.5,1.3c0,0.1-0.1,0.2-0.2,0.2c-0.3,0.1-0.3,0.3-0.3,0.6
	c-0.1,0.3-0.1,0.5-0.3,0.8c-0.3,0.5-0.5,1.1-0.7,1.7c-0.2,0.4-0.3,0.9-0.4,1.4c0,0.2-0.2,0.2-0.3,0.3c-0.3,0.2-0.5,0.5-0.5,0.8
	c0,0.1,0,0.2-0.1,0.3c-0.2,0.3-0.4,0.6-0.5,0.9c0,0.1,0,0.1-0.1,0.2c-0.5,0.5-0.9,1.2-1.1,1.9c-0.2,0.3-0.4,0.6-0.6,0.9
	C80.1,22,80,22.2,80,22.4c-0.1,0.4-0.2,0.8-0.5,1.1c-0.3,0.3-0.4,0.7-0.5,1.2c0,0.3-0.2,0.5-0.3,0.7c-0.2,0.2-0.3,0.5-0.4,0.8
	c0,0.2-0.1,0.4-0.3,0.5c-0.1,0.1-0.2,0.3-0.2,0.4c0,0.1,0,0.2,0.1,0.3c0.1,0.1,0.2-0.1,0.3-0.1c0.4,0,0.7-0.1,1.1-0.2
	c1-0.1,1.9-0.3,2.8-0.5c0.9-0.2,1.9-0.4,2.8-0.6c0.2,0,0.5,0,0.7-0.1c0.3,0,0.5-0.2,0.6-0.5c0-0.2,0.1-0.4,0.2-0.6
	c0.1-0.2-0.2-0.3-0.1-0.5s0.3-0.2,0.4-0.4s0-0.2,0-0.3c0-0.2,0.1-0.5,0.3-0.6c0.3-0.2,0.3-0.6,0.4-0.9c0-0.3,0.1-0.5,0.3-0.8
	c0.1-0.2,0.3-0.4,0.4-0.6s0.2-0.6,0.6-0.6c0.1,0,0.2-0.1,0.2-0.2c0.1-0.3,0.3-0.5,0.6-0.7c0.1-0.1,0.2-0.2,0.3-0.3
	c0.2-0.4,0.5-0.6,0.9-0.8c0.1,0,0.2-0.1,0.3-0.1c0.4-0.6,1.2-0.8,1.8-1.2c0.5-0.3,1-0.5,1.6-0.7c0.2,0,0.3-0.1,0.4-0.3
	c0.2-0.3,0.6-0.5,0.9-0.4c0.5,0,0.9,0,1.4-0.2c0.2,0,0.3,0,0.5,0c0.4,0.1,0.8,0,1.1-0.1c0,0,0.1-0.1,0.1,0c0.5,0.3,1,0.1,1.6,0.1
	c0.3,0,0.6,0,0.8,0.3c0.1,0.1,0.2,0.2,0.3,0.2c0.5,0,0.9,0.3,1.1,0.7c0.1,0.1,0.1,0.2,0.2,0.2c0.4,0.1,0.5,0.5,0.8,0.7
	c0.3,0.4,0.5,0.9,0.4,1.3c0,0.2-0.1,0.3-0.2,0.4c-0.2,0.2-0.3,0.5-0.3,0.8c0,0.3-0.1,0.7-0.6,0.8c-0.1,0.3-0.5,0.2-0.7,0.6
	s-0.3,0.5-0.4,0.8s-0.4,0.5-0.7,0.6c-0.1,0.1-0.3,0.1-0.4,0.2c-0.1,0.2-0.3,0.3-0.5,0.5c-0.3,0.2-0.6,0.3-0.8,0.6
	c-0.1,0.1-0.2,0.1-0.3,0.1c-0.6,0.2-1.1,0.5-1.6,0.8c-0.1,0.1-0.3,0.2-0.5,0.2c-0.1,0-0.3,0.1-0.4,0.2c-0.3,0.3-0.8,0.5-1.3,0.6
	c-0.4,0.1-0.7,0.2-1.1,0.3c-0.4,0.2-0.8,0.4-1.3,0.4c-0.1,0-0.3,0.1-0.4,0.1c-0.4,0.2-0.9,0.4-1.4,0.4c-0.3,0-0.5,0.2-0.5,0.4
	c0,0.1,0,0.2,0.1,0.3c0.1,0.2,0.2,0.4,0.2,0.6c0.1,0.4,0.4,0.8,0.7,1.1c0.2,0.3,0.6,0.5,1,0.5c0.7,0,1.3,0.1,2,0.1
	c0.8,0,1.7-0.2,2.5-0.5c0.4-0.2,0.9-0.4,1.3-0.5c0.5-0.2,0.9-0.4,1.3-0.7c0.1-0.1,0.2-0.1,0.3-0.2c0.1,0,0.2,0,0.3-0.1
	c0.6-0.6,1.5-0.8,2-1.5c0.1-0.1,0.1-0.1,0.2-0.2c0.5-0.1,0.8-0.6,1.2-0.8s0.8-0.8,1.3-1.1l0.1-0.1c0.3-0.3,0.5-0.5,0.7-0.9
	c0.2-0.3,0.6-0.4,0.8-0.8c0.3-0.4,0.7-0.8,1.1-1.1c0.2-0.2,0.3-0.3,0.5-0.5c0.3-0.5,0.7-0.8,1.1-1.1c0.1-0.1,0.2-0.2,0.3-0.3
	c0.2-0.3,0.5-0.6,0.8-0.8c0.3-0.1,0.5-0.4,0.6-0.6c0-0.1,0.1-0.2,0.3-0.3c0.2-0.1,0.3-0.2,0.4-0.4c0.2-0.3,0.5-0.5,0.8-0.7
	c0.1,0,0.1-0.1,0.2-0.1c0.9,0,1.8,0.2,2.7,0.4c0.1,0,0.2,0.1,0.3,0.2c0.1,0.2,0.3,0.3,0.5,0.3c0.4,0.2,0.8,0.4,1.1,0.7
	c0.2,0.1,0.3,0.3,0.2,0.5c0,0,0,0,0,0c-0.2,0.5-0.4,0.9-0.6,1.4c-0.1,0.1-0.1,0.3-0.1,0.4c0,0.4-0.1,0.8-0.4,1.2
	c0,0.1-0.1,0.1-0.1,0.2c0,0.1-0.2,0.3-0.1,0.3s0.2-0.1,0.3-0.2c0.1-0.2,0.3-0.3,0.5-0.4c0.2-0.1,0.3-0.2,0.4-0.3
	c0.2-0.3,0.5-0.5,0.8-0.6c0.1,0,0.3-0.1,0.3-0.3c0.1-0.3,0.3-0.5,0.6-0.6c0.4-0.3,0.7-0.5,1-0.8c0.3-0.3,0.7-0.4,1-0.6
	c0.1-0.1,0.2-0.1,0.3-0.2c0.2-0.2,0.3-0.5,0.7-0.6l0,0c0.2-0.5,0.6-0.4,0.9-0.2c0.2,0,0.4,0,0.6,0c0.2,0,0.4,0,0.6,0.1
	c0.4,0.3,0.8,0.5,1.3,0.6c0.2,0.1,0.3,0.1,0.4,0.2c0.6,0.3,0.6,0.4,0.3,0.9c-0.1,0.4-0.3,0.8-0.4,1.2c-0.2,0.3-0.3,0.6-0.4,1
	c0,0.2-0.1,0.3-0.2,0.4c-0.1,0.2-0.2,0.3-0.2,0.5c0.3,0,0.6-0.2,0.7-0.5c0.2-0.3,0.4-0.5,0.7-0.7c0.4-0.2,0.7-0.6,1-1
	c0.5-0.5,1-0.9,1.6-1.2c0.2-0.1,0.5-0.3,0.7-0.5c0.2-0.2,0.5-0.2,0.8-0.3s0.2-0.5,0.5-0.6c0.3-0.1,0.5-0.3,0.8-0.5
	c0.1-0.1,0.4-0.1,0.5,0c0,0,0,0,0,0c0.2,0.1,0.4,0.2,0.6,0.2c0.5-0.1,1,0.1,1.3,0.6c0.1,0.1,0.3,0.2,0.4,0.1c0.1,0,0.3,0,0.4,0.2
	c0.1,0.3,0.5,0.4,0.7,0.5s0.4,0.3,0.3,0.7c-0.1,0.3-0.3,0.6-0.5,0.8c-0.4,0.4-0.7,0.9-0.8,1.4c-0.1,0.3-0.4,0.5-0.4,0.9
	c0,0.3-0.1,0.6-0.2,0.9c-0.2,0.6-0.5,1.3-0.8,1.9c0,0.1-0.1,0.2-0.1,0.3c-0.1,0.3-0.1,0.5-0.1,0.8c0,0.3-0.4,0.3-0.4,0.6
	c0,0.1,0,0.2-0.1,0.3s-0.1,0.3,0.1,0.4s0.3,0,0.4-0.1c1.1-0.5,2.1-1.2,2.9-2.2c0.2-0.2,0.4-0.4,0.7-0.5c0.5-0.1,0.8-0.4,1-0.8
	c0-0.1,0.1-0.3,0.3-0.3c0.7-0.2,0.9-1,1.5-1.2c0,0,0.1,0,0.1-0.1c0-0.4,0.3-0.3,0.5-0.5s0.5-0.1,0.4-0.5c0,0,0.1-0.1,0.1-0.1
	c0.4-0.1,0.7-0.4,1-0.6c0.1-0.1,0.3-0.2,0.3-0.3c0.3-0.3,0.6-0.7,1-0.9c0.3-0.2,0.7-0.3,0.8-0.7c0,0,0.1-0.1,0.1-0.1
	c0.6-0.2,1-0.5,1.4-1c0.2-0.2,0.4-0.3,0.7-0.3c0.2-0.1,0.5-0.2,0.7-0.3c0.4-0.3,0.9-0.3,1.3-0.1c0.7,0.2,1.3,0.6,1.9,1
	c0.1,0.1,0.3,0.1,0.4,0.1c0.3,0.1,0.4,0.2,0.3,0.5c0,0-0.1,0.1-0.1,0.1c0.2,0.4-0.1,0.6-0.3,0.8c-0.2,0.3-0.4,0.7-0.5,1.1
	c-0.1,0.2-0.2,0.5-0.4,0.7c-0.2,0.2-0.3,0.4-0.3,0.6c0,0.2-0.1,0.4-0.2,0.6c-0.2,0.6-0.5,1.2-0.6,1.8c-0.2,0.5-0.3,1-0.4,1.4
	c0,0.1,0,0.2-0.1,0.3c-0.2,0.3-0.2,0.8-0.4,1.1c-0.1,0.1,0,0.2,0.1,0.2c0.2,0.1,0.4,0,0.5-0.1c0.2-0.2,0.5-0.5,0.7-0.7
	c0.2-0.2,0.4-0.4,0.6-0.4c0.5-0.1,0.9-0.3,1.1-0.8c0.1-0.1,0.2-0.2,0.3-0.2c0.7-0.2,1.4-0.6,1.8-1.2c0.5-0.5,1-0.9,1.5-1.3
	c0.5-0.5,1-0.9,1.6-1.2c0,0,0.1-0.1,0.1-0.1c0.2-0.4,0.6-0.6,0.9-0.8s0.5-0.3,0.6-0.6c0-0.1,0.1-0.1,0.2-0.2
	c0.6-0.3,1.1-0.6,1.5-1.1c0.5-0.4,1-0.8,1.6-1.2c0.1-0.1,0.2-0.2,0.2-0.3c0.1-0.1,0.2-0.2,0.4-0.3c0.5-0.1,1-0.3,1.5-0.5
	c0.5-0.2,1-0.1,1.4,0.2c0.4,0.3,0.8,0.4,1.2,0.7c0.4,0.3,0.9,0.5,1.4,0.8c0.1,0,0.2,0.2,0.2,0.3c0,0.3-0.1,0.5-0.2,0.8
	c-0.4,0.4-0.5,0.9-0.8,1.3c0,0-0.1,0.1-0.1,0.1c0.2,0.4-0.2,0.7-0.1,1.1c0,0.1,0,0.2-0.1,0.3c0.1,0,0.3-0.1,0.3-0.2
	c0.3-0.5,0.8-0.8,1.1-1.2c0-0.1,0.1-0.1,0.2-0.2c0.3-0.2,0.6-0.5,0.6-0.9c0-0.1,0.1-0.2,0.2-0.3c0.2-0.1,0.5-0.3,0.6-0.6
	c0.1-0.2,0.3-0.3,0.5-0.3c0.4-0.2,0.7-0.4,0.9-0.7c0.1-0.2,0.3-0.3,0.5-0.4c0.5-0.3,0.9-0.7,1.5-0.4c0.6-0.1,1.2-0.1,1.8,0.2
	c0.4,0.1,0.8,0.3,1.2,0.6c0.4,0.2,0.8,0.5,1.2,0.8c0.4,0.3,0.6,0.8,0.3,1.2c0,0,0,0,0,0.1c-0.2,0.3-0.3,0.6-0.3,0.8
	c-0.2,0.9-0.5,1.7-0.9,2.5c-0.4,0.7-0.6,1.4-0.8,2.2c-0.1,0.3-0.2,0.6-0.4,0.8c-0.2,0.5-0.4,0.9-0.6,1.3c-0.1,0.1-0.1,0.2,0,0.3
	c0,0,0,0,0,0c0.1,0.1,0.2,0,0.3,0c0.2-0.1,0.3-0.3,0.4-0.4c0.1-0.1,0.2-0.3,0.3-0.3c0.4-0.1,0.7-0.5,1.1-0.7
	c0.2-0.1,0.4-0.3,0.6-0.5c0.2-0.3,0.5-0.3,0.7-0.5s0.4-0.3,0.5-0.5c0,0,0.1-0.1,0.1-0.1c0.4,0,0.6-0.4,0.8-0.6
	c0.2-0.2,0.4-0.4,0.6-0.6c0.1-0.2,0.3-0.2,0.4-0.3c0.7-0.6,1.4-1.2,2.1-1.8c0.1-0.1,0.2-0.2,0.2-0.3c0-0.1,0.1-0.2,0.2-0.2
	c0.3-0.1,0.5-0.4,0.7-0.6c0.4-0.3,0.8-0.7,1.3-1c0.4-0.2,0.9-0.4,1.3-0.6c0.4-0.1,0.6-0.5,1-0.6c0.2-0.5,0.7-0.4,1.1-0.6
	c0.2-0.1,0.4-0.2,0.6-0.4c0.4-0.2,0.9-0.4,1.4-0.6c0.5-0.2,1-0.1,1.5-0.3c0.6,0.1,1.2-0.3,1.8-0.2c0.2,0,0.3,0,0.4-0.1
	c0.3-0.1,0.6-0.2,0.9-0.1c0.4,0.1,0.8,0.1,1.3,0c0.4,0,0.8,0,1.1,0.1c0.3,0.1,0.7,0.1,1.1,0.1c0.4,0,0.7,0.1,1,0.3
	c0.5,0.3,1,0.4,1.5,0.5c0.3,0.1,0.6,0.2,0.9,0.3c0.3,0,0.5,0.3,0.4,0.6c0,0.1-0.1,0.2-0.2,0.3c-0.4,0.3-0.6,0.7-0.7,1.1
	c0,0.1-0.1,0.2-0.2,0.3c-0.3,0.4-0.6,0.9-0.8,1.4c-0.1,0.1-0.1,0.2-0.2,0.4c-0.1,0.8-0.6,1.5-0.6,2.4c0,0.1-0.1,0.3-0.1,0.4
	c-0.2,0.3-0.4,0.6-0.4,1c0,0.1,0,0.1-0.1,0.2c-0.4,0.8-0.5,1.7-0.8,2.4c-0.1,0.2-0.2,0.4-0.2,0.5s-0.1,0.2,0,0.3s0.2,0,0.3,0
	c0.2-0.1,0.5-0.2,0.6-0.4c0.5-0.5,1.2-0.9,1.8-1.2c0,0,0.1,0,0.1-0.1c0.7-0.7,1.6-1,2.2-1.7c0,0,0.1-0.1,0.1-0.1
	c0.7-0.3,1.4-0.7,2-1.2c0,0,0.1-0.1,0.1-0.1c0.3,0,0.5-0.3,0.7-0.4s0.5-0.6,0.9-0.6c0,0,0.1,0,0.1-0.1c0.4-0.4,0.8-0.8,1.4-1
	c0.3-0.2,0.6-0.5,0.8-0.9c0-0.1,0.1-0.2,0.2-0.2c0.4-0.2,0.8-0.4,1.1-0.7c0.2-0.1,0.3-0.3,0.5-0.3c0.3-0.1,0.6-0.3,0.8-0.6
	c0.2-0.3,0.4-0.6,0.8-0.5c0.1,0,0.2-0.1,0.2-0.2c0,0,0,0,0,0c0.1-0.4,0.4-0.4,0.6-0.6c0.1-0.1,0.2,0,0.3-0.1
	c0.5-0.6,1.3-0.9,1.7-1.6c0.1-0.2,0.3-0.4,0.3-0.6s0.1-0.3,0.3-0.3c0.3,0,0.6-0.2,0.9-0.4c0.1-0.1,0.3-0.1,0.5,0
	c0.6,0.3,1.3,0.6,2,0.8c0.1,0,0.1,0.1,0.2,0.1c0.3,0.3,0.7,0.6,1.1,0.7c0.1,0,0.2,0.2,0.2,0.3c0,0.3-0.2,0.7-0.4,0.9
	c-0.2,0.2-0.5,0.5-0.7,0.7c-0.3,0.2-0.5,0.6-0.5,1c0,0.2-0.1,0.4-0.2,0.6c-0.2,0.2-0.2,0.5-0.1,0.8c0.3,0.8,0.3,1.6,0.1,2.4
	c0,0.1,0,0.2,0,0.3c0.1,0.3,0.1,0.7-0.2,1c-0.1,0.1-0.1,0.3-0.1,0.5c0.1,0.2,0,0.5-0.1,0.7c-0.1,0.3-0.2,0.6-0.2,0.9
	c0,0.6-0.2,1.2-0.5,1.7c0.4,0.1,0.8,0,1.2-0.2c0.6-0.5,1.2-1,1.7-1.6c0.3-0.4,0.6-0.7,1.1-0.9c0.2-0.1,0.5-0.3,0.6-0.5
	c0.2-0.2,0.4-0.4,0.7-0.6c0.3-0.2,0.6-0.3,0.7-0.7l0,0c0.4-0.3,0.8-0.5,1.2-0.7c0.2-0.1,0.3,0,0.4,0.2c0.4,0.5,0.4,1.2-0.1,1.6
	c0,0,0,0-0.1,0.1c-0.1,0.1-0.2,0.3-0.3,0.4c-0.1,0.2-0.2,0.3-0.4,0.4c-0.3,0.1-0.5,0.4-0.6,0.6c-0.2,0.5-0.6,0.9-1.1,1.1
	c-0.3,0.2-0.6,0.4-0.8,0.7c-0.4,0.5-0.9,0.8-1.4,1.1c-0.2,0.1-0.4,0.3-0.6,0.4c-0.2,0.3-0.5,0.5-0.9,0.6c-0.2,0.1-0.3,0.2-0.4,0.4
	c-0.1,0.2-0.2,0.3-0.4,0.3c-0.6,0.2-1.1,0.4-1.6,0.7c-0.1,0.1-0.2,0.1-0.4,0.1c-0.3,0-0.5,0-0.7,0.3c-0.1,0.1-0.3,0.1-0.4,0.1
	c-0.3,0-0.6,0-0.8,0.1l0,0c-0.8-0.1-1.5,0.3-2.3,0.1c-0.2,0-0.4,0-0.5-0.2c0-0.1-0.1-0.1-0.2-0.1c-0.6,0.1-1.3-0.1-1.7-0.6
	c-0.1-0.1-0.2-0.2-0.4-0.3c-0.2-0.1-0.4-0.2-0.5-0.4c-0.1-0.1-0.1-0.2-0.3-0.2s-0.1,0-0.2-0.1c-0.2-0.4-0.5-0.7-0.8-1
	c-0.1-0.1-0.2-0.2-0.2-0.3c0-0.3-0.1-0.5-0.2-0.8c0-0.5-0.1-0.9-0.3-1.3c-0.1-0.2,0.3-0.4,0.4-0.3c0.3,0.2,0.6,0.3,0.9,0.2
	c0,0,0.1,0,0.1,0c0.5,0.5,1.3,0.7,1.7,1.3s1,0.4,1.5,0.3s1-0.3,1.4-0.4s0.8-0.4,1.2-0.6c0.1,0,0.1-0.1,0.1-0.2
	c0-0.3,0.2-0.5,0.3-0.7c0.1-0.1,0.2-0.3,0.2-0.5c0.1-0.2,0.2-0.4,0.3-0.6c0.2-0.3,0.3-0.8,0.1-1.1c-0.1-0.3,0-0.6,0.1-0.8
	c0.2-0.6,0.2-1.2,0-1.8c-0.1-0.2-0.1-0.5-0.1-0.8c0-0.1,0-0.2,0-0.3c-0.3-0.4-0.3-0.9-0.2-1.4C214,19.8,213.9,19.5,213.8,19.3z
	 M194.7,19.4c-0.4,0-0.8,0-1.2,0.1c-0.3,0.1-0.6,0.1-0.9,0c-0.1,0-0.2,0-0.2,0c-0.4,0.2-0.8,0.2-1.2,0.4c-0.3,0.2-0.6,0.5-0.9,0.8
	c-0.1,0.1-0.2,0.2-0.4,0.3c-0.3,0.1-0.5,0.2-0.6,0.5c-0.3,0.6-0.7,1.2-1.2,1.7c-0.2,0.3-0.5,0.5-0.5,0.9c0,0.1-0.1,0.1-0.1,0.2
	c-0.1,0.3-0.4,0.5-0.6,0.8c-0.4,0.7-0.7,1.5-1,2.2c-0.1,0.4-0.5,0.8-0.2,1.3c0,0.1,0,0.2-0.1,0.3c-0.2,0.2-0.3,0.6-0.1,0.9
	c0.3,0.7,0.6,0.8,1.1,0.3c0.3-0.3,0.6-0.5,0.9-0.6c0.2-0.1,0.4-0.2,0.4-0.4c0.2-0.4,0.5-0.6,0.9-0.8c0.1,0,0.2-0.1,0.2-0.2
	c0.3-0.5,0.8-1,1.3-1.3c0.3-0.2,0.5-0.3,0.5-0.7c0-0.1,0.1-0.2,0.2-0.3c0.3-0.2,0.4-0.5,0.4-0.8c0-0.1,0-0.2,0-0.2
	c0.4-0.2,0.4-0.5,0.6-0.8s0.3-0.3,0.4-0.5c0.3-0.5,0.7-1,1.1-1.5c0.1-0.1,0.1-0.2,0.2-0.3c0.3-0.7,0.6-1.4,1-2
	C194.8,19.7,194.8,19.5,194.7,19.4z M90.8,24.7c0,0.3,0,0.3,0.3,0.3c0.6-0.1,1.1-0.2,1.7-0.3c0.3-0.1,0.7-0.3,1-0.5
	c0.5-0.3,1.1-0.3,1.4-0.8c0.1-0.1,0.2-0.1,0.3-0.1c0.6-0.1,1.2-0.4,1.6-0.9c0.1-0.1,0.1-0.2,0.2-0.1c0.3,0.1,0.7-0.1,0.8-0.4
	c0.1-0.1,0.1-0.1,0.2-0.1c0.3,0,0.4-0.1,0.4-0.4c0-0.1,0.1-0.3,0.2-0.3c0.8-0.2,1-0.8,1.1-1.4c0.1-0.4-0.2-0.7-0.6-0.8c0,0,0,0,0,0
	c-0.7,0-1.4,0.2-2.1,0.5c-0.5,0.2-0.9,0.4-1.4,0.5c-0.3,0-0.5,0.1-0.6,0.4c0,0.1-0.2,0.2-0.4,0.2c-0.6,0.2-1.1,0.5-1.4,1
	c-0.2,0.2-0.5,0.4-0.7,0.6c-0.9,0.4-1.6,1.1-2,2C90.9,24.3,90.8,24.5,90.8,24.7L90.8,24.7z M189.3,35.9c-0.1-0.1-0.2-0.1-0.3,0
	l-1.4,0.9c-0.3,0.2-0.6,0.5-0.8,0.8c-0.1,0.4-0.4,0.7-0.7,0.9c-0.2,0.1-0.3,0.3-0.4,0.5c-0.1,0.3-0.2,0.5-0.4,0.8
	c-0.4,0.5-0.3,0.7,0.3,0.9l0.1,0.1c0.3,0.1,0.7,0.1,0.9-0.2c0.3-0.2,0.5-0.4,0.8-0.7c0.2-0.2,0.4-0.4,0.4-0.7c0-0.3,0.1-0.5,0.3-0.7
	c0.3-0.4,0.4-0.9,0.5-1.3c0-0.2,0.1-0.3,0.2-0.5C189.1,36.4,189.3,36.2,189.3,35.9L189.3,35.9z"/>
<path class="st0" d="M61.8,7.9c-0.2,0-0.5,0-0.7,0.1c-0.8,0.2-1.6,0-2.4,0.3c-0.1,0-0.1,0-0.2,0c-0.5-0.1-1.1,0-1.6,0.2
	c-0.4,0.1-0.9,0.1-1.3,0c-0.3,0-0.6,0-0.9,0.1c-0.3,0.1-0.6,0.1-0.9,0.1c-0.2,0-0.3-0.1-0.3-0.3c0-0.3,0.1-0.6,0.4-0.7
	c0.2-0.1,0.4-0.3,0.6-0.6c0.3-0.3,0.5-0.6,0.6-1c0.1-0.1,0.1-0.3,0.2-0.4c0.1-0.2,0.3-0.4,0.3-0.7s0.1-0.3,0.2-0.5
	C56,4.1,56.4,4,56.7,4.2c0.5,0.1,0.9,0.1,1.4,0c0.7-0.1,1.4-0.2,2.1-0.3c0.5-0.1,1-0.1,1.6,0c0.7,0.1,1.3,0,2-0.1c0.2,0,0.4,0,0.6,0
	c0.7,0,1.3-0.1,1.9-0.3c0,0,0.1,0,0.1,0c0.7,0.2,1.4-0.1,2.1,0c0.3,0.1,0.6,0.1,0.9,0c0.6-0.1,1.1-0.1,1.7-0.1c0.5,0,0.9,0,1.4-0.2
	c0.1-0.1,0.2-0.1,0.3,0c0.2,0.1,0.5,0.2,0.7,0.1c0.7-0.2,1.4-0.2,2.1-0.2c0.4,0,0.9,0,1.3-0.2c0.3-0.1,0.6-0.2,0.9-0.2
	c0.1,0,0.2,0,0.3-0.1c0.3-0.2,0.6-0.2,0.8,0c0.3,0.2,0.4,0.5,0.3,0.8C79,3.7,79,4,79,4.3c0,0.1-0.1,0.2-0.2,0.2c0,0,0,0,0,0
	c-0.5,0.2-0.9,0.5-1.2,1c-0.1,0.2-0.3,0.4-0.6,0.6c-0.1,0.1-0.3,0.1-0.3,0.3c-0.2,0.3-0.5,0.5-0.9,0.5c-0.6,0-1.1,0.1-1.7,0.2
	c-0.6,0.1-1.2,0.2-1.8,0.1c-0.6-0.1-1.2-0.1-1.9,0c-0.3,0.1-0.6,0.1-0.8-0.1c-0.1-0.1-0.2,0-0.3,0c-0.1,0-0.3,0-0.4,0
	c-0.9,0.2-0.8,0.2-1,1.1c0,0.4-0.2,0.8-0.5,1.1c-0.1,0.1-0.2,0.2-0.2,0.4c0,0.5-0.2,0.9-0.6,1.2c-0.3,0.4-0.6,0.7-0.9,1.1
	c0,0-0.1,0.1-0.1,0.1c0,0.4-0.3,0.7-0.3,1s-0.4,0.6-0.6,0.8c-0.1,0.1-0.2,0.2-0.3,0.3c-0.2,0.4-0.4,0.9-0.7,1.3
	c0.7,0.2,1.3,0.2,2,0.1c0.2,0,0.4,0,0.6,0c0.2,0,0.4,0,0.6-0.1c0.3-0.2,0.6-0.2,0.9-0.2c0.6,0.1,1.2,0,1.7-0.3c0,0,0.1,0,0.1,0
	c0.6,0,1.2-0.2,1.8-0.2c0.5,0.1,1,0.1,1.5,0.1c0.1,0,0.2,0.1,0.2,0.2c0.2,0.7,0,1.4-0.4,2c-0.1,0.1-0.1,0.2-0.1,0.4
	c0,0.2-0.2,0.4-0.4,0.4c-0.4,0-0.7,0.1-1.1,0.3c-0.1,0-0.1,0-0.2,0c-0.5-0.3-1.1-0.1-1.7-0.2l-0.7-0.1c-0.4,0-0.9,0-1.3,0.1
	c-0.2,0.1-0.5,0.1-0.7,0.1c-0.8-0.1-1.5,0-2.2,0.2c-0.5,0.2-1.1,0.3-1.6,0.3c-0.2,0-0.4,0.1-0.5,0.3c-0.3,0.4-0.5,0.7-0.8,1.1
	c-0.2,0.2-0.2,0.4-0.2,0.6c0,0.1,0,0.2,0,0.2c-0.3,0.3-0.3,0.7-0.5,1c-0.1,0.2-0.2,0.4-0.4,0.6c-0.2,0.2-0.4,0.5-0.4,0.8
	c-0.1,0.5-0.2,0.9-0.5,1.3c-0.4,0.5-0.7,1.1-1,1.7l0,0c-0.6,0.6-0.9,1.4-1.5,2C57,28,56.9,28,56.9,28.1c-0.3,0.7-0.6,1.4-1.1,2.1
	c-0.1,0.1-0.1,0.3-0.2,0.4c-0.1,0.5-0.3,0.9-0.7,1.2c-0.1,0.1-0.3,0.2-0.4,0c-0.3-0.3-0.8-0.3-1.2-0.3s-0.5,0-0.6-0.3
	s-0.4-0.2-0.5-0.3s0-0.4-0.2-0.6c-0.1-0.1-0.3-0.2-0.4-0.3c-0.3-0.1-0.5-0.2-0.7-0.5s-0.2-0.1-0.3-0.1s-0.3-0.1-0.3-0.2
	c-0.2-0.7,0.1-1.4,0.7-1.7c0.2-0.1,0.2-0.4,0.3-0.6c0.2-0.6,0.5-1.3,0.7-1.9l0,0c0.3-0.2,0.4-0.5,0.3-0.8c0-0.1,0-0.2,0.1-0.3
	c0.3-0.5,0.6-0.9,0.8-1.4c0.1-0.2,0.2-0.3,0.3-0.4c0.2-0.1,0.4-0.3,0.4-0.5c0.1-0.2,0.1-0.4,0.2-0.6c0-0.6,0.5-1,0.8-1.4
	c0.1-0.2,0.4-0.2,0.6-0.3s0.4-0.2,0.4-0.5s0.1-0.3,0.2-0.4c0.3-0.2,0.4-0.5,0.5-0.9c0-0.2,0.1-0.4,0.3-0.6c0.2-0.1,0.2-0.3,0.2-0.5
	c0.2-0.4,0.4-0.9,0.6-1.3c0.2-0.7,0.5-1.3,0.9-1.8c0.2-0.2,0.3-0.5,0.4-0.8c0.1-0.3,0.3-0.5,0.5-0.6c0.2-0.1,0.3-0.2,0.3-0.4
	c0-0.3,0.1-0.6,0.4-0.7c0.1,0,0.2-0.2,0.1-0.3c0,0,0,0,0,0c-0.1-0.2,0-0.3,0.2-0.4c0.1,0,0.1-0.1,0.2-0.2c0.3-0.5,0.6-0.9,0.9-1.3
	c0.1-0.1,0.1-0.2,0.1-0.3C61.6,8.2,61.7,8.1,61.8,7.9z"/>
<path class="st0" d="M208.7,9.9c0.2,0.5-0.1,0.8-0.4,1.2c-0.4,0.4-0.7,0.9-0.8,1.4c-0.1,0.4-0.4,0.8-0.7,1c-0.2,0.1-0.3,0.3-0.4,0.5
	c-0.1,0.3-0.3,0.7-0.5,0.9c-0.4,0.4-0.8,0.8-0.9,1.5c0,0.2-0.3,0.3-0.4,0.2c-0.6-0.1-1.2-0.3-1.6-0.7c-0.1-0.2-0.3-0.3-0.5-0.4
	c-0.2-0.1-0.3-0.3-0.3-0.5c0,0,0,0,0,0c0.2-0.6,0.3-1.2,0.4-1.8c0.1-0.2,0.2-0.4,0.3-0.5c0.2-0.3,0.4-0.6,0.6-0.9
	c0.3-0.6,0.6-1.3,1-1.9c0.1-0.2,0.2-0.3,0.2-0.5s0.1-0.2,0.2-0.3c0.2-0.2,0.4-0.4,0.4-0.7c0,0,0-0.1,0-0.1c0.1-0.2,0.1-0.6,0.4-0.6
	c0.3-0.1,0.6,0,0.8,0.2c0.1,0.2,0.3,0.3,0.4,0.4c0.2,0.2,0.5,0.3,0.8,0.4c0.3,0.1,0.7,0.3,0.9,0.5C208.7,9.5,208.9,9.6,208.7,9.9z"
	/>
<path class="st0" d="M150.1,15.6c-0.1,0-0.2,0-0.3,0c-0.6-0.2-1.1-0.5-1.4-1c-0.1-0.2-0.5-0.4-0.4-0.6c0.1-0.3,0.3-0.7,0.6-0.9
	c0.2-0.2,0.3-0.4,0.6-0.5c0.2-0.1,0.2-0.3,0.3-0.4s0.2-0.3,0.4-0.3s0.6-0.3,0.9-0.3c0.4,0,0.8,0,1.1,0.2c0.2,0.1,0.4,0.1,0.5,0
	c0.4-0.1,0.7,0.2,1.1,0.4c0.1,0.1,0.1,0.2,0,0.3c-0.2,0.4-0.4,0.8-0.6,1.2c0,0.1-0.1,0.1-0.1,0.1c-0.6,0.2-0.7,0.8-1,1.2
	c-0.2,0.3-0.5,0.5-0.8,0.5L150.1,15.6z"/>
<path class="st0" d="M225.7,17.3c-1.2,0-2.1-1-2.1-2.1c0-1.2,1-2.1,2.1-2.1c0,0,0,0,0,0c1.2,0,2.1,1,2.1,2.1
	C227.8,16.4,226.9,17.3,225.7,17.3C225.7,17.3,225.7,17.3,225.7,17.3z M225.7,13.3c-1,0-1.8,0.8-1.9,1.8c0,1,0.8,1.9,1.9,1.9
	s1.9-0.8,1.9-1.9l0,0C227.5,14.2,226.7,13.4,225.7,13.3L225.7,13.3z"/>
<path class="st0" d="M226.6,16.3c-0.2,0.1-0.3,0-0.4-0.1l-0.4-0.7c0-0.1-0.1-0.1-0.2-0.2c-0.1-0.1-0.3-0.1-0.4,0
	c0,0-0.1,0.1-0.1,0.2c0,0.2,0,0.4,0,0.6c0,0.2,0,0.2-0.1,0.2s-0.1-0.1-0.1-0.2c0-0.6,0-1.2,0-1.9c0-0.2,0.1-0.2,0.2-0.2s0.6,0,0.9,0
	s0.6,0.2,0.6,0.5s-0.1,0.5-0.5,0.7l-0.2,0.1C226.2,15.7,226.5,15.9,226.6,16.3z M225.7,15h0.4c0.2,0,0.3-0.1,0.3-0.3
	s-0.1-0.3-0.3-0.3c-0.2,0-0.4,0-0.5,0c-0.3,0-0.4,0.1-0.4,0.4S225.5,14.9,225.7,15z"/>
</svg>
