<?xml version="1.0" encoding="utf-8"?>
<!-- Generator: Adobe Illustrator 21.1.0, SVG Export Plug-In . SVG Version: 6.00 Build 0)  -->
<svg version="1.1" id="Layer_1" xmlns="http://www.w3.org/2000/svg" xmlns:xlink="http://www.w3.org/1999/xlink" x="0px" y="0px"
	 viewBox="0 0 238.4 58.4" style="enable-background:new 0 0 238.4 58.4;" xml:space="preserve">
<style type="text/css">
	.st0{fill:#1A1A19;}
	.st1{fill:#DE2E14;}
	.st2{fill:#FEFEFE;}
	.st3{fill:#FEFEFD;}
</style>
<title>Fine Dining</title>
<path class="st0" d="M20.2,0.5c0.1,0.2,0.1,0.4,0.1,0.6c0.1,0.7,0,1.3-0.1,2c0.4-0.6,0.7-1.3,1-2c0.1-0.1,0.1-0.3,0.3-0.2
	s0.3,0.2,0.2,0.4c-0.1,0.5-0.3,0.9-0.6,1.3C21.1,2.7,21,2.8,21,2.9c-0.1,0.3-0.2,0.5-0.4,0.8c-0.2,0.2-0.1,0.6-0.3,0.8
	c0,0,0,0.1,0,0.1c0.5,0.3,0.3,1,0.6,1.4c0.3,0.6,0.6,1.2,0.8,1.8c0.1,0.4,0.3,0.7,0.5,1c0.3,0.5,0.6,1,0.7,1.6
	c0.4,1,0.9,1.9,1.2,2.9c0.2,0.5,0.4,0.9,0.6,1.4c0.2,0.3,0.5,0.5,0.8,0.5c0.2,0,0.5,0.1,0.7,0.2c0.2,0.2,0.5,0.3,0.8,0.3
	c0.5,0.2,1,0.5,1.5,0.8c0.9,0.6,1.8,1.2,2.6,1.9c0.8,0.6,1.4,1.3,1.9,2.1c0.4,0.6,0.8,1.2,1.2,1.8s0.7,1.3,1,1.9
	c0.1,0.2,0.1,0.4,0.2,0.6c0.4,1,0.7,2.1,0.8,3.2c0,0.5,0.2,1,0.3,1.5c0.1,0.4,0.1,0.7,0,1.1c0.1,0.7,0.1,1.3,0,2
	c-0.1,1.3-0.3,2.5-0.6,3.8c-0.2,0.7-0.4,1.4-0.7,2c-0.2,0.4,0.1,0.7,0.3,1c0.3,0.5,0.6,1.1,0.8,1.7c0.2,0.5,0.3,1,0.5,1.4
	c0.1,0.4,0.3,0.7,0.5,1c0.1,0.1,0.2,0.3,0.3,0.5c0,0.2,0.2,0.4,0.3,0.5c0.2,0.4,0.4,0.8,0.6,1.2c0.1,0.2,0,0.5-0.3,0.6
	c-0.1,0-0.1,0-0.2,0c-0.1,0-0.2-0.1-0.3-0.2c-0.5-0.8-0.7-1.8-1.2-2.6s-0.7-2-1.3-3c-0.2-0.4-0.4-0.9-0.6-1.3c0-0.1,0-0.1-0.1-0.1
	c-0.1,0.4-0.5,0.7-0.7,1.1c-0.3,0.5-0.7,1-1.1,1.5c-0.3,0.3-0.6,0.6-0.9,0.9c-0.1,0.1-0.3,0.3-0.4,0.4c-0.6,0.6-1.2,1.2-1.9,1.7
	c-0.1,0.1-0.2,0.1-0.2,0.2c0,0.1-0.1,0.1-0.2,0.1S29.2,45,29.2,45s-0.1-0.2,0.1-0.2s0.3-0.2,0.3-0.4s0.3-0.4,0.4-0.6
	c0.4-0.9,0.7-1.9,0.9-2.9c0.1-0.2,0.1-0.4,0.1-0.5c0-0.3,0.2-0.4,0.3-0.6c0.3-0.3,0.4-0.8,0.7-1.1s0.4-0.7,0.6-1
	c0.1-0.1,0.1-0.2,0-0.3c0,0-0.1,0-0.1-0.1c-0.4-0.1-0.8-0.4-1.3-0.5c-0.1,0-0.3-0.1-0.4-0.2c-0.2-0.1-0.3-0.2-0.5-0.2
	c-0.2,0-0.3-0.2-0.6-0.3c-0.6-0.2-1.2-0.5-1.7-0.8c-0.4-0.2-0.8-0.4-1.3-0.6c0.1,0.7,0.1,1.5,0.1,2.2c0,0.4,0,0.4-0.3,0.2
	c-0.4-0.3-0.8-0.6-1-1.1c-0.3-0.5-0.8-0.9-1.3-1.1c-0.3-0.1-0.4-0.1-0.4,0.3c0,0.6-0.1,1.2-0.3,1.8c-0.1,0.2-0.2,0.5-0.4,0.7
	c-0.1,0.2-0.3,0.2-0.4,0c-0.4-0.4-0.8-0.9-1.1-1.4c-0.3-0.4-0.7-0.8-1.1-1.1C20.2,35,20.1,35,20,35.4c-0.1,0.3-0.3,0.7-0.5,1
	c-0.2,0.6-0.4,1.1-0.7,1.7c-0.1,0.3-0.3,0.3-0.4,0.1c-0.4-0.4-0.8-0.8-1.1-1.2c-0.2-0.3-0.5-0.5-0.8-0.6c-0.3-0.1-0.4-0.4-0.7-0.4
	s-0.4-0.1-0.3,0.3s0.1,0.9,0.1,1.3c0,0.2,0,0.4-0.3,0.3h-0.1c-1,0.1-1.5-0.6-1.7-1.4c-0.1-0.3-0.1-0.7-0.5-0.9
	c-0.2-0.1-0.3-0.4-0.3-0.7c-0.2,0.2-0.4,0.4-0.7,0.4c-0.3,0.1-0.6,0.3-0.8,0.4c-0.8,0.3-1.5,0.8-2.2,1.1c-0.2,0.1-0.4,0.2-0.5,0.3
	c-0.2,0.1-0.4,0.2-0.7,0.3c-0.3,0-0.4,0.1-0.2,0.4s0.1,0.2,0.1,0.3c0.2,0.3,0.4,0.6,0.7,0.9c0.3,0.4,0.6,0.8,0.8,1.2
	c0,0.1,0,0.2,0.1,0.2c0.4,0.3,0.5,0.8,0.9,1.1c0.1,0.1,0.1,0.2,0.1,0.3c0,0.3,0.1,0.7,0.2,1c0.1,0.2,0,0.4,0,0.6
	c0.1,0.6,0.3,1.2,0.7,1.7c0.1,0.1,0.1,0.2,0,0.4c-2-1.7-3.8-3.7-5.3-5.9c-0.5,1.4-1.3,2.6-1.7,4.1c-0.3,1.1-0.9,2.1-1.2,3.1
	c-0.1,0.2-0.3,0.5-0.4,0.8S2.1,47.6,2,47.6s-0.3-0.1-0.4-0.3s-0.1-0.6,0.2-0.9C1.9,46.4,2,46.2,2,46.1c0-0.2,0.1-0.4,0.3-0.5
	c0,0,0.1-0.1,0.1-0.1C2.5,45,2.7,44.6,3,44.2c0.2-0.4,0.4-0.9,0.6-1.3s0.2-0.6,0.3-1c0.3-0.7,0.6-1.3,0.9-2c0.1-0.2,0.1-0.4,0.1-0.5
	c0,0,0-0.1,0-0.1c0.5-0.5,0.1-1-0.1-1.5C4.4,37,4.2,36.2,4,35.5c-0.2-0.7-0.3-1.4-0.4-2.2c-0.1-1.2-0.1-2.4-0.1-3.7
	c0-0.4,0-0.9,0-1.3c0.4-0.3,0.1-0.7,0.3-1.1c0.2-0.3,0.3-0.7,0.4-1c0-0.3,0.1-0.7,0.3-0.9c0.3-0.4,0.3-0.8,0.5-1.3
	c0.1-0.2,0.1-0.4,0.3-0.4c0-0.3,0.2-0.4,0.2-0.6c0-0.2,0.1-0.3,0.2-0.4c0,0,0.1-0.1,0.1-0.1c0.1-0.5,0.6-0.8,0.9-1.2
	c0.5-0.7,1.1-1.4,1.7-2c0.5-0.6,1.1-1.1,1.7-1.6c0.3-0.3,0.6-0.5,1-0.7c0.6-0.4,1.2-0.7,1.8-1.2c0.6-0.3,1.2-0.5,1.8-0.7
	c0.2-0.1,0.3-0.1,0.4-0.3c0.5-1.2,1-2.4,1.5-3.7c0.2-0.6,0.4-1.2,0.6-1.7C17.5,9,17.7,8.6,18,8.2c0.1-0.2,0.2-0.3,0.2-0.5
	C18.5,7,18.7,6.4,19,5.8c0-0.1,0.1-0.2,0.1-0.3c0-0.3,0.1-0.6,0.3-0.8c0.1-0.1,0.1-0.2,0-0.3c-0.1-0.4-0.3-0.7-0.5-1.1
	c-0.4-0.7-0.7-1.4-1-2.1c0-0.2,0-0.3,0.1-0.4s0.3,0,0.4,0.2c0.4,0.7,0.7,1.5,1.1,2.2c0-0.7,0-1.4,0-2.1c0-0.2,0-0.4,0.1-0.6
	L20.2,0.5z"/>
<path class="st0" d="M16.7,57.9c-0.1-0.1-0.3-0.1-0.5-0.1c-0.5-0.1-0.6-0.3-0.4-0.7c0.2-0.7,0.4-1.3,0.5-2c0.1-0.3,0.2-0.6,0.3-0.9
	c0.4-1.1,0.7-2.2,1-3.3c0.2-0.6,0.4-1.1,0.6-1.7c0-0.1,0-0.2,0.1-0.1c0.4,0,0.8,0,1.2,0.1c0.4,0.1,0.6,0.4,0.6,0.8
	c0,1.1,0,2.1-0.2,3.2c0,0.5,0,1,0,1.5c0,0.8-0.1,1.5-0.3,2.3c-0.1,0.6-0.6,0.7-1.1,0.9c-0.2,0.1-0.4,0-0.5,0.1L16.7,57.9z"/>
<path class="st0" d="M20.9,57.9c0-0.1,0-0.1-0.1-0.1c-0.4,0-0.4-0.3-0.4-0.6c0-0.6,0-1.2,0.1-1.8c0-0.1,0-0.1,0-0.2
	c-0.1-0.8-0.2-1.6-0.1-2.5c0-0.8,0-1.6,0.1-2.4c0-0.3,0-0.6-0.1-0.9c-0.1-0.3,0-0.4,0.3-0.4s0.6,0,1,0s0.3,0,0.3,0.3
	c0,0.1,0,0.1,0,0.2c0,0.1,0.2,0.1,0.1,0.2C21.9,50,21.8,50,21.7,50c-0.3-0.1-0.3,0.2-0.3,0.3c0.1,0.9,0.2,1.7,0.2,2.6
	c0,0.4,0.3,0.4,0.6,0.4c0.4,0.1,0.6,0.3,0.5,0.7c0,0.1-0.1,0.1-0.1,0.1h-0.3c-0.4,0-0.5,0.2-0.3,0.5c0.1,0.1,0.1,0.2,0,0.3
	c-0.1,0.2,0,0.5,0.1,0.7c0,0,0,0.1,0,0.1c0.2,0.7,0.2,0.7,1,0.6c0.2,0,0.2,0,0.3,0.1c0.1,0.3,0.2,0.6,0.3,0.9c0.1,0.2,0,0.3-0.2,0.4
	c0,0-0.1,0-0.1,0L20.9,57.9z"/>
<path class="st0" d="M0.5,48.4c0.3,0,0.6,0,0.9-0.2c0.6-0.3,1.2-0.5,1.8-0.7c0.7-0.3,1.4-0.5,2.1-0.8C6,46.6,6.7,46.3,7.4,46
	c0.6-0.2,1.2-0.5,1.9-0.6c0.4-0.1,0.9,0,1.2,0.3l0.3,0.3c0.3,0.3,0.3,0.3-0.1,0.4c-0.1,0-0.2,0.1-0.3,0.1c-0.2,0.1-0.4,0.1-0.5-0.1
	c-0.2-0.2-0.4-0.4-0.8-0.1c-0.2,0.2-0.5,0.1-0.7,0.3S7.8,47,7.5,47.1s-0.2,0.2-0.1,0.4c0,0.1,0.1,0.1,0.1,0.1
	c0.1,0.1,0.1,0.2,0.1,0.3S7.4,48,7.4,48l0,0c-0.3,0.2-0.6,0.2-0.9-0.1c-0.1-0.1-0.1-0.2-0.1-0.3c0-0.1-0.1-0.1-0.3-0.1
	c-0.7,0.2-1.5,0.5-2.2,0.9c-0.8,0.4-1.6,0.6-2.5,1c-0.2,0.1-0.3,0-0.4-0.1c-0.2-0.3-0.3-0.6-0.5-0.8L0.5,48.4z"/>
<path class="st0" d="M237.9,35.9c-0.2,0.2-0.3,0.4-0.4,0.6c-0.7,0.6-1.8,0.6-2.4-0.1c-0.2-0.2-0.3-0.4-0.4-0.6
	c-0.3-0.9,0.2-1.8,1.1-2.1c0,0,0.1,0,0.1,0c0.9-0.1,1.5-0.1,2.1,1.1L237.9,35.9z"/>
<path class="st0" d="M214.6,35.9c-0.6,0.1-1.2-0.1-1.8-0.1c-0.7,0-1.3,0.1-2,0.2c-0.4,0.1-0.7,0-0.8-0.3s-0.1-0.4,0.2-0.5
	c0.2-0.1,0.5-0.1,0.7-0.2c0.5-0.2,0.8-0.8,0.7-1.4c-0.1-0.4-0.2-0.8-0.4-1.1c-0.2-0.3-0.2-0.6-0.1-0.9c0-0.1,0-0.3-0.1-0.4
	c-0.4-0.4-0.6-0.8-0.6-1.3c0-0.2-0.2-0.3-0.3-0.5c-0.2-0.2-0.3-0.5-0.2-0.8c0.1-0.4-0.6-1.2-1.1-1.2c-0.8-0.1-1.6-0.1-2.5,0.1
	c-0.3,0.1-0.6,0-0.9,0.1c-0.5,0.1-0.9,0.4-1,0.9c-0.1,0.7-0.5,1.2-0.7,1.8s-0.6,1.2-0.8,1.9c-0.1,0.3-0.2,0.7-0.2,1
	c0.1,0.4,0.4,0.8,0.7,1c0.5,0.2,0.8,0.7,0.7,1.2c0,0.3-0.2,0.5-0.5,0.4c-0.8-0.1-1.6-0.1-2.3-0.1c-0.7,0-1.4-0.1-2.1-0.2
	c-0.1,0-0.1,0-0.2,0c-0.2,0.2-0.5,0.2-0.7,0.1c-0.5-0.1-1-0.1-1.4,0c-0.4,0.1-0.9,0-1.3-0.1c-0.8-0.2-1.6-0.2-2.3-0.1
	c-0.3,0.1-0.5-0.1-0.6-0.3c-0.1-0.3,0-0.6,0.3-0.8c0.1-0.1,0.2-0.1,0.3-0.1c0.7-0.1,0.8-0.7,1-1.2c0-0.1,0-0.2-0.1-0.4
	c-0.2-0.7-0.2-1.5,0.1-2.2c0-0.1,0-0.2,0-0.3c-0.3-0.7-0.4-1.5-0.3-2.2c0-0.3-0.1-0.7-0.4-0.9c-0.7-0.5-1.6-0.7-2.5-0.5
	c-0.7,0.1-1.3,0.1-2,0c-0.3-0.1-0.7,0-1,0.1c-0.6,0.1-1.1,0.1-1.7,0.1c-0.1,0-0.1,0-0.2-0.1c-0.3-0.1-0.6-0.1-0.8,0
	c-0.5,0.1-0.8,0.5-0.8,1c0,0.4,0,0.7-0.1,1.1c0,0,0,0.1,0,0.1c0.1,0.3,0.1,0.7-0.1,1c-0.2,0.2-0.2,0.4,0.1,0.6s0.2,0.2,0.1,0.3
	s-0.2,0.5,0,0.8c0.1,0.1,0,0.2,0,0.2c-0.1,0.2-0.1,0.5,0,0.7c0.1,0.3,0.2,0.7,0.2,1c0,0.3,0.2,0.7,0.5,0.8c0.5,0.3,0.9,0.5,1.4,0.7
	c0.1,0,0.2,0.1,0.2,0.3s-0.2,0.2-0.3,0.3c-0.4,0.1-0.7,0.1-1.1,0.1c-0.6,0.1-1.2,0.3-1.8,0.4c-0.3,0-0.6,0-0.9-0.1
	c-0.5-0.2-1.1-0.2-1.6,0c-0.2,0.1-0.5,0.1-0.8,0c-0.1,0-0.1,0-0.2,0c-0.4,0.1-0.6-0.2-0.6-0.5s0.1-0.5,0.4-0.6
	c0.5-0.3,0.9-0.6,1.3-1c0.1-0.1,0.2-0.2,0.1-0.4c0-0.5,0.1-1.1,0.2-1.6c0.2-0.8,0.1-1.6-0.2-2.3c-0.1-0.2-0.1-0.4,0-0.5
	c0.2-0.5-0.1-1-0.1-1.5c0-0.1,0-0.2,0-0.2c0.1-0.4,0.1-0.8,0-1.2c0-0.4,0.1-0.7,0.3-1c0.1-0.1,0.1-0.2,0-0.3c-0.1,0-0.1-0.1-0.1-0.2
	c-0.1-0.5-0.1-1-0.1-1.6c0-0.2,0-0.4,0-0.5c-0.1-0.7-0.1-1.3,0-2c0-0.6-0.1-1.2-0.2-1.8c0-0.4-0.4-0.6-0.8-0.8
	c-0.3-0.1-0.5-0.3-0.7-0.5c-0.2-0.2-0.3-0.5-0.2-0.7c0-0.2,0.3-0.2,0.4-0.1c0.3,0.1,0.5,0.1,0.8,0c0.2-0.1,0.5-0.1,0.8,0
	c0.1,0,0.3,0.1,0.4,0.1c0.7,0.4,1.3-0.1,1.9-0.2c0.6-0.2,1.2-0.1,1.8,0.2c0,0,0.1,0,0.1,0.1c0.1,0,0.3,0,0.4,0.1s-0.1,0.3-0.1,0.4
	c-0.1,0.2-0.3,0.4-0.6,0.4c-0.4,0.1-0.7,0.5-0.8,0.9c-0.1,0.5-0.1,1,0,1.4c0.1,0.4,0,0.9-0.2,1.3c-0.4,0.5-0.4,0.7,0.2,1
	c0.2,0.1,0.3,0.4,0.2,0.6c0,0,0,0,0,0c-0.1,0.2-0.2,0.5-0.2,0.8c0,0.3,0.1,0.5,0.1,0.8s0.6,0.5,0.9,0.5c0.8-0.2,1.7-0.2,2.6-0.1
	c0.5,0.1,1,0.2,1.6,0.2c0.3,0,0.5,0.1,0.8,0.2c0.1,0.1,0.3,0.1,0.4,0c0.3-0.2,0.8-0.3,1.1-0.1c0.3,0.1,0.5,0.1,0.8,0
	c0.7-0.1,1-0.7,1.1-1.2c0-0.1,0.1-0.3,0.2-0.4c0.2-0.3,0.2-0.7,0-1.1c-0.1-0.2-0.2-0.5-0.2-0.8c-0.1-0.8,0-1.6,0.2-2.4
	c0-0.2,0-0.5-0.2-0.6c-0.2-0.3-0.5-0.6-0.8-0.9c-0.1-0.1-0.2-0.2-0.4-0.2c-0.3,0-0.3-0.2-0.4-0.4c-0.1-0.2,0-0.4,0.2-0.4
	c0,0,0,0,0,0c0.5-0.2,1-0.3,1.6-0.2c0.4,0,0.9,0,1.3-0.1c0.1,0,0.3,0,0.4,0c0.4,0,0.9,0,1.3-0.1c0.4-0.1,0.8,0,1.2,0.2
	c0.2,0.1,0.2,0.3,0.1,0.5c-0.3,0.4-0.7,0.7-1.2,0.8c-0.5,0.1-0.7,0.5-0.4,0.9c0.2,0.5,0.2,1,0,1.4c-0.2,0.5-0.2,1.1,0,1.6
	c0.2,0.4,0.3,0.9,0.3,1.3c0,0.3,0,0.7,0,1c0.1,0.4,0,0.8-0.3,1.1c-0.2,0.2-0.2,0.6,0,0.8c0.2,0.4,0.4,0.8,0.3,1.3c0,1.6,0,3.1,0,4.7
	c0,0.3,0.1,0.5,0.2,0.8c0.2,0.3,0.1,0.7,0.2,1.1c0.2,0.4,0.6,0.8,1,0.9c0,0,0.1,0,0.1,0c0.4-0.4,0.9-0.5,1.3-0.8
	c0.5-0.3,1-0.8,1.2-1.4c0.3-0.7,0.8-1.2,1.1-1.9c0.1-0.1,0.2-0.2,0.4-0.3c0.2-0.1,0.4-0.3,0.4-0.6c0.1-0.9,0.3-1.7,0.8-2.4
	c0.5-0.7,0.9-1.6,1-2.5c0-0.1,0.1-0.2,0.1-0.3c0.4-0.5,0.6-1,0.7-1.6c0.2-0.8,0.5-1.5,0.9-2.2c0.1-0.2,0.2-0.4,0.3-0.6
	c0.1-0.4,0.3-0.8,0.5-1.2c0.3-0.6,0.4-1.3,0.2-1.9c-0.1-0.5,0.1-1,0.6-1.1c0.5-0.1,1,0.2,0.9,0.7c0,0.5,0.1,1.1,0.3,1.5
	c0.3,0.5,0.5,1,0.7,1.6c0.1,0.4,0.1,0.9,0.3,1.3c0.1,0.3,0.4,0.6,0.4,1c0,0.3,0.1,0.6,0.3,0.8c0.1,0.1,0.1,0.2,0.1,0.3
	c0,0.6,0.1,1.2,0.4,1.7c0.2,0.5,0.3,1,0.3,1.5c0,0.2,0,0.4,0.1,0.5c0.5,0.9,0.9,1.9,1.3,2.8c0.1,0.3,0.2,0.6,0.4,0.9
	c0.2,0.4,0.3,0.8,0.3,1.2c0,0.2,0,0.4,0.2,0.4c0.5,0.2,0.6,0.6,0.7,1.1c0.1,0.5,0.5,0.9,1,1.1c0.2,0.1,0.3,0.2,0.5,0.2
	c0.3,0.1,0.3,0.4,0.2,0.6c-0.1,0.3-0.3,0.5-0.6,0.5L214.6,35.9z"/>
<path class="st0" d="M140.6,41.2H46.5c-0.5,0-0.5,0-0.5-0.5c0-0.1,0-0.2,0-0.3s0-0.2,0.2-0.2h188.6c0.3,0,0.4,0.1,0.4,0.4
	c0,0.6,0,0.6-0.6,0.6L140.6,41.2z"/>
<path class="st1" d="M15.9,36.6c1.1,0.8,1.9,1.9,3,2.6c0.1-0.4,0.2-0.8,0.4-1.1c0.2-0.3,0.4-0.6,0.6-0.9c0.1-0.3,0.3-0.7,0.4-1
	c0-0.1,0.1-0.2,0.2-0.3c0.2,0.5,0.4,0.9,0.7,1.3c0.2,0.5,0.6,0.8,1,1.1l0,0c0.2,0.2,0.3,0.4,0.6,0.3c0.3-0.1,0.6-0.4,0.8-0.7
	c0.5-0.5,0.4-1.1,0.4-1.7c0-0.1,0-0.3,0-0.5c0.6,0.1,0.9,0.6,1.3,1.1c0.5,0.6,1,1.2,1.5,1.8c0.2,0.2,0.4,0.5,0.5,0.8
	c0.1,0.2,0.2,0.2,0.4,0c0.6-0.7,1.1-1.4,1.8-2c0.1-0.1,0.3-0.2,0.3-0.4c0.1,0.3,0.3,0.4,0.2,0.7s0.3,0.7,0.1,1.1c0,0.1,0,0.3,0,0.4
	c0.1,0.3,0.2,0.7,0.1,1c0,0.5-0.1,1-0.2,1.5c-0.1,0.2,0,0.5-0.2,0.7s-0.3,0.7-0.5,1.1s-0.5,0.7-0.7,1c-0.2,0.4-0.5,0.7-0.8,1.1
	c-0.3,0.4-0.6,0.7-1,0.9c-0.4,0.2-0.7,0.4-1.1,0.6c-0.3,0.2-0.7,0.3-1.1,0.4c-0.2,0-0.4,0.2-0.7,0.2c-0.5,0.1-0.9,0.2-1.4,0.2
	c-0.6,0.1-1.2,0.2-1.8,0.2c-0.2,0-0.4,0-0.6,0.1c-0.2,0.1-0.4,0-0.6,0c-1.1,0.1-2.1,0-3.1-0.3c-0.2,0-0.5,0.1-0.5-0.2
	c-0.5,0.1-0.9-0.2-1.3-0.4c-0.5-0.2-0.9-0.4-1.3-0.7c-0.9-0.6-1.7-1.4-2.1-2.4c-0.1-0.4-0.2-0.9-0.3-1.3c-0.1-0.9-0.1-1.9,0.2-2.8
	c0.2-1,0.3-2,0.1-3.1c-0.1-0.4,0.2-0.6,0.6-0.4c0.1,0.1,0.3,0.2,0.5,0.1c0,0,0.1,0,0.1,0c0,0,0,0,0,0c0,0.2,0.2,0.2,0.3,0.3
	c0.4,0.3,0.8,0.7,1,1.2c0.1,0.1,0.2,0.3,0.3,0.3c0,0,0.1,0,0.1,0.1c0,0.4,0.3,0.7,0.4,1c0,0.3,0.2,0.5,0.4,0.7
	c0.1,0.1,0.2,0.1,0.3-0.1c0.2-0.5,0.4-0.9,0.6-1.4c0.1-0.4,0-0.9,0.2-1.3c0-0.1,0-0.2-0.1-0.3C15.8,37,15.8,36.8,15.9,36.6z"/>
<path class="st0" d="M215.8,28.4c-0.1-1.1-0.1-2.1-0.2-3.2c0-0.9,0.2-1.7,0.6-2.4c0.2-0.6,0.5-1.1,0.8-1.7c0.1-0.1,0.2-0.3,0.3-0.4
	c0.1-0.1,0.2-0.2,0.2-0.4c0-0.3,0.2-0.5,0.3-0.7c0.6-0.7,1.3-1.3,2.1-1.8c0.8-0.6,1.7-1,2.7-1.2c0.5-0.1,1-0.3,1.6-0.4
	c0.1,0,0.1,0,0.2,0c1,0,2,0,2.9-0.1c1,0,2,0.2,2.9,0.6c0.9,0.4,1.8,0.9,2.5,1.6c0.4,0.6,0.8,1.1,1.3,1.6c0.8,0.8,1.5,1.7,2,2.7
	c0.3,0.5,0.5,1,0.5,1.5c0,0.4-0.1,0.7-0.2,1.1c-0.1,0.2-0.1,0.5,0.1,0.7c0.1,0.2,0.2,0.5,0.2,0.8c0,0.8,0,1.5-0.1,2.3
	c-0.1,0.4-0.3,0.7-0.5,1c-0.2,0.4-0.4,0.8-0.5,1.2c0,0,0,0.1,0,0.1c-0.6,0.4-0.7,1.1-1.1,1.6c-0.5,0.6-1.1,1.1-1.8,1.6
	c-0.9,0.7-1.9,1.2-3,1.7c-0.4,0.2-0.9,0.2-1.4,0.2c-0.8-0.1-1.6-0.1-2.4,0.1c-0.4,0.1-0.8,0.1-1.2-0.1c-0.3-0.1-0.7-0.1-1-0.1
	c-1.2,0-2.3-0.4-3.1-1.3c-0.3-0.3-0.7-0.6-1.1-0.9c-0.1-0.1-0.3-0.3-0.3-0.4c-0.2-0.6-0.6-1.2-1.2-1.5c-0.3-0.3-0.6-0.6-0.8-1
	c-0.2-0.5-0.5-0.9-0.8-1.3C215.8,29.5,215.7,29,215.8,28.4z"/>
<path class="st0" d="M69.1,16.2c1,0,2,0,2.9-0.1c1,0,2.1,0.2,3,0.7c0.8,0.4,1.6,0.9,2.2,1.6c0.4,0.6,0.8,1.1,1.3,1.6
	c1,0.9,1.7,2,2.3,3.3c0.2,0.6,0.2,1.3,0,1.9c-0.1,0.2-0.1,0.5,0,0.7c0.1,0.3,0.2,0.6,0.2,0.9c0,0.7,0,1.5-0.1,2.2
	c-0.1,0.3-0.2,0.6-0.4,0.9c-0.3,0.4-0.5,0.8-0.6,1.3c0,0,0,0.1-0.1,0.1c-0.5,0.3-0.6,0.9-1,1.3c-0.6,0.8-1.4,1.5-2.2,2.1
	c-0.9,0.6-1.8,1.1-2.8,1.5c-0.4,0.2-0.9,0.2-1.3,0.2c-0.8-0.1-1.6-0.1-2.3,0.1c-0.4,0.1-0.9,0.1-1.3,0c-0.3-0.1-0.7-0.1-1-0.1
	c-1.2,0-2.3-0.4-3.1-1.3c-0.3-0.3-0.7-0.6-1.1-0.9c-0.1-0.1-0.3-0.2-0.3-0.4c-0.2-0.4-0.4-0.8-0.7-1.1c-0.1-0.1-0.2-0.2-0.3-0.3
	c-0.4-0.3-0.8-0.7-1-1.2c-0.3-0.5-0.5-1-0.9-1.4c-0.2-0.3-0.3-0.6-0.3-1c0-0.7-0.1-1.5-0.1-2.2c0-0.4-0.1-0.8-0.1-1.2
	c0-0.9,0.2-1.7,0.6-2.5c0.2-0.6,0.5-1.2,0.9-1.7c0.1-0.2,0.2-0.3,0.3-0.4c0.1-0.1,0.2-0.2,0.2-0.3c0-0.3,0.2-0.5,0.3-0.7
	c0.6-0.7,1.3-1.3,2.1-1.8c0.9-0.6,1.9-1.1,3-1.2c0.4-0.1,0.8-0.2,1.2-0.4C68.8,16.2,68.9,16.3,69.1,16.2z"/>
<path class="st0" d="M101.9,28.2c-0.1-0.8-0.1-1.7-0.2-2.6c-0.1-0.9,0.1-1.7,0.5-2.5c0.3-0.9,0.8-1.8,1.3-2.5c0,0,0.1-0.1,0.1-0.1
	c0.1-1,0.9-1.4,1.5-1.9c0.3-0.3,0.6-0.6,0.9-0.8c0.9-0.6,1.9-1,3-1.2c0.4-0.1,0.8-0.2,1.2-0.3c0.1,0,0.2,0,0.2,0
	c1.1,0.1,2.2-0.1,3.3-0.1c0.9,0,1.8,0.2,2.7,0.6c0.9,0.4,1.7,0.9,2.4,1.6c0.4,0.5,0.8,1,1.2,1.5c0.9,0.8,1.6,1.7,2.1,2.8
	c0.2,0.4,0.4,0.8,0.4,1.3c0,0.5-0.1,0.9-0.2,1.3c-0.1,0.2-0.1,0.3,0,0.5c0.2,0.3,0.2,0.6,0.2,0.9c0,0.7,0,1.3-0.1,2
	c-0.1,0.5-0.3,0.9-0.6,1.3c-0.2,0.3-0.4,0.7-0.4,1.1c0,0,0,0.1,0,0.1c-0.7,0.7-1.1,1.7-1.9,2.4c-0.7,0.6-1.3,1.1-2.1,1.5
	c-0.6,0.4-1.3,0.7-2,1c-0.4,0.2-0.9,0.2-1.3,0.2c-0.8-0.1-1.6-0.1-2.4,0.1c-0.4,0.1-0.9,0.1-1.3-0.1c-0.3-0.1-0.5-0.1-0.8-0.1
	c-0.6,0-1.2,0-1.7-0.3c-0.6-0.2-1.1-0.6-1.5-1c-0.3-0.3-0.6-0.6-1-0.8c-0.2-0.1-0.3-0.3-0.4-0.5c-0.1-0.4-0.3-0.7-0.6-1
	c-0.1-0.2-0.2-0.3-0.4-0.4c-0.4-0.4-0.8-0.8-1-1.4c-0.2-0.4-0.4-0.7-0.7-1.1C101.9,29.4,101.8,28.8,101.9,28.2z"/>
<path class="st0" d="M82.5,27.3c0-0.6-0.1-1.2-0.2-1.8c0-0.2,0-0.4,0.1-0.6c0.1-0.5,0.2-1,0.4-1.5c0-0.1,0.1-0.2,0.1-0.3
	c0-0.5,0.1-1,0.3-1.5c0-0.1,0.1-0.3,0.2-0.4c0.4-0.5,0.7-0.9,1-1.4c0.7-1,1.7-1.7,2.7-2.3c0.7-0.5,1.6-0.8,2.4-0.9
	c0.2,0,0.3-0.1,0.4-0.2c0.2-0.2,0.6-0.3,0.9-0.3c0.8,0,1.6-0.1,2.5-0.1c0.9,0,1.8,0.1,2.7,0.4c0.5,0.2,0.9,0.4,1.4,0.7
	s1.2,0.4,1.7,0.6c0.4,0.1,0.6,0.4,0.6,0.8c0,0.6,0,1.1,0,1.7c0,0.7-0.1,1.3-0.2,2c0,0.2-0.3,0.3-0.6,0.2c-0.6-0.3-1.1-0.8-1.3-1.5
	c-0.1-0.4-0.4-0.8-0.6-1.1c0,0-0.1-0.1-0.1-0.1c0-0.5-0.3-0.5-0.7-0.6c-0.3-0.1-0.6-0.2-0.9-0.4c-0.6-0.2-1.2-0.4-1.8-0.4
	c-0.8-0.1-1.5-0.2-2.2-0.4c-0.2-0.1-0.3-0.1-0.5,0c-1,0.4-2,0.9-2.8,1.6c-0.4,0.3-0.5,0.8-0.7,1.2c-0.1,0.2-0.1,0.4-0.4,0.5
	c-0.1,0.1-0.2,0.2-0.2,0.3c0,0.8-0.2,1.5-0.7,2.1c-0.2,0.3-0.2,0.6,0,0.9c0.1,0.2,0.1,0.4,0.1,0.6c0,0.5,0,1,0,1.5
	c0,0.1,0,0.1,0,0.2c0.2,0.4,0.2,0.9,0,1.2c-0.1,0.1-0.1,0.2,0,0.2c0.2,0.5,0.4,1,0.3,1.5c0.1,0.9,0.4,1.7,0.9,2.5
	c0.5,0.9,1.4,1.5,2.4,1.6c1.1,0.4,2.3,0.6,3.5,0.5c0.3,0,0.6,0.1,0.8,0.1c0.5,0,1-0.2,1.2-0.6c0.4-0.5,0.6-1.2,0.7-1.8
	c0-0.4-0.1-0.8-0.2-1.2c-0.1-0.4-0.6-0.5-0.9-0.6c-0.2,0-0.4,0-0.6-0.1c-0.3-0.1-0.5-0.3-0.6-0.6c0-0.3,0.3-0.5,0.6-0.5
	c0.6,0,1.2,0,1.8,0c0.5,0,0.9,0,1.4,0c0.6-0.1,1.2,0,1.8,0c0.3,0,0.7,0,1,0.1c0.2,0,0.3,0.2,0.3,0.4c0,0,0,0,0,0.1
	c-0.1,0.2-0.1,0.3-0.1,0.5c0,0.4-0.2,0.8-0.5,1c-0.3,0.3-0.4,0.6-0.4,1c0,0.7,0,1.4,0.1,2.1c0.1,0.8,0.1,0.8-0.7,0.9
	s-1.4,0.4-2.1,0.4c-0.3,0-0.6,0-0.9,0c-0.6-0.1-1.1,0-1.6,0.3c-0.2,0.1-0.5,0.1-0.7,0.1c-1,0-1.9,0.2-2.9,0.1
	c-0.9,0-1.9-0.3-2.7-0.8c-0.4-0.3-0.8-0.4-1.2-0.7c-0.1,0-0.1-0.1-0.2-0.1c-0.7-0.7-1.5-1.3-2.1-2c-0.6-0.6-1-1.3-1.2-2.2
	c-0.1-0.4-0.3-0.8-0.5-1.1C82.6,28.7,82.5,28,82.5,27.3z"/>
<path class="st0" d="M169.4,16c1.5,0.1,3,0.2,4.5,0.2c0.6,0,1.1,0.2,1.6,0.4c0.6,0.3,1.1,0.6,1.7,0.8c0.4,0.1,0.4,0.4,0.3,0.7
	c-0.1,0.5-0.1,1,0,1.5c0,0,0,0,0,0.1c0,0.5,0,1,0.1,1.6c0,0.4-0.2,0.5-0.5,0.6c-0.3,0.1-0.7,0-0.8-0.3c-0.1-0.2-0.2-0.4-0.3-0.6
	c-0.1-0.4-0.3-0.7-0.6-0.9c-0.4-0.3-0.8-0.6-1.3-0.9c-0.2-0.1-0.3-0.3-0.3-0.5c-0.1-0.3-0.3-0.4-0.6-0.4c-0.6-0.1-1.2-0.3-1.7-0.6
	c-0.3-0.1-0.7-0.2-1-0.3c-0.2,0-0.4,0.1-0.5,0.1c-0.7-0.1-1.2,0.3-1.9,0.4c-0.8,0.2-1.5,0.5-2,1.1c-0.5,0.4-0.9,0.8-1.2,1.3
	c-0.2,0.3-0.4,0.7-0.5,1.1c-0.2,0.6-0.4,1.2-0.5,1.8c-0.1,0.5-0.1,0.9-0.2,1.4c0,0.3-0.1,0.5-0.2,0.7c0,0.1,0,0.3,0.1,0.4
	c0.1,0.2,0.2,0.5,0.2,0.7c0.1,1.2,0,2.4,0.1,3.6c0,0.7,0.3,1.4,0.8,1.9c0.5,0.6,1.1,1.1,1.8,1.5c0.7,0.4,1.4,0.7,2.2,0.9
	c0.6,0.1,1.2,0.1,1.9,0c0.4,0,0.8,0,1.1,0.1c1,0.1,1.9-0.2,2.7-0.9c0.7-0.5,1.3-1.2,1.6-2c0.1-0.4,0.3-0.8,0.6-1.2
	c0.3-0.4,0.6-0.5,1-0.2c0.1,0.1,0.1,0.2,0.1,0.3c0,0.8,0.1,1.6,0.3,2.4c0.2,0.7-0.3,1.4-1.2,1.8s-2,0.7-2.9,1.1
	c-0.5,0.2-1,0.3-1.5,0.3c-0.8,0.1-1.6,0.2-2.3,0.1c-1.6-0.1-3.2-0.5-4.5-1.4c-1.1-0.7-2.1-1.5-3.1-2.3c-0.8-0.6-1.3-1.5-1.6-2.5
	c-0.2-0.7-0.4-1.3-0.5-2c0-0.3-0.1-0.7-0.1-1c0-0.6-0.1-1.3,0-1.9c0.1-0.9,0.3-1.8,0.6-2.7c0.3-0.8,0.7-1.6,1.1-2.3
	c0.1-0.3,0.2-0.6,0.4-0.8c0.2-0.4,0.6-0.7,1-0.7c0.7-0.1,1.2-0.5,1.5-1.2c0.1-0.3,0.4-0.5,0.7-0.6c0.8-0.3,1.5-0.5,2.3-0.7
	C168.4,16.1,168.9,16,169.4,16z"/>
<path class="st0" d="M50.9,35.9c-0.6,0-1.2,0-1.8-0.2c-0.2-0.1-0.5-0.1-0.7,0.1c-0.3,0.1-0.5,0.2-0.8,0.1c-0.3,0-0.5,0-0.8,0.1
	c-0.2,0-0.4-0.1-0.5-0.3c-0.1-0.2-0.1-0.4,0.1-0.6c0.1-0.1,0.1-0.2,0.2-0.2c0.8-0.3,0.9-1.1,1.3-1.6c0-0.1,0-0.2,0-0.2
	c-0.1-0.4-0.2-0.9-0.1-1.4c0-0.5-0.1-0.9-0.1-1.4c0-0.7,0.1-1.3,0.3-1.9c0.2-0.5,0.1-1.1-0.1-1.7c-0.1-0.3-0.2-0.7-0.1-1
	c0.1-0.4,0.1-0.9,0.1-1.3c0-0.5,0.1-1,0.3-1.5c0.1-0.3,0.1-0.7,0.1-1.1C48.2,20.8,48,19.9,48,19c0-0.6-0.4-1.1-0.9-1.4
	c-0.2-0.1-0.4-0.3-0.5-0.5c-0.1-0.1-0.2-0.2-0.1-0.4c0.1-0.2,0.2-0.2,0.3-0.2c0.8-0.1,1.5-0.1,2.3,0c0.3,0,0.7,0,1,0
	c0.6,0,1.1,0.1,1.7,0.3c0.2,0.1,0.5,0.1,0.8,0c0.3-0.1,0.7-0.2,1-0.2c0.5-0.1,1-0.1,1.5-0.1c0.6,0.1,1.2,0.1,1.8,0.1
	c0.5,0,1-0.1,1.5-0.3c0.3-0.1,0.5-0.1,0.8-0.1c0.5,0.1,0.6,0.4,0.5,1c-0.1,0.4-0.2,0.8-0.2,1.2c0,0,0,0,0,0.1
	c-0.2,0.7-0.2,1.4,0.1,2c0.1,0.3-0.1,0.6-0.4,0.8c-0.3,0.2-0.6,0.1-0.8-0.2c0,0,0,0,0,0c-0.3-0.3-0.4-0.7-0.4-1.1
	c0-0.2-0.2-0.3-0.3-0.4c-0.6-0.9-1.5-1.5-2.6-1.7c-0.3-0.1-0.6-0.1-1-0.2c-0.8-0.1-1.6,0.1-2.3,0.5c-0.5,0.3-0.7,0.8-0.5,1.3
	c0.1,0.3,0,0.6-0.2,0.9c-0.3,0.3-0.4,0.9-0.2,1.3c0.2,0.5,0.3,1,0.2,1.6c0,0.4,0.1,0.8,0.3,1.1c0.1,0.3,0.5,0.3,0.8,0.2
	s0.8,0,1.2-0.1c0.3,0,0.6-0.1,0.8-0.3c0.3-0.3,0.5-0.6,0.8-0.9c0.1-0.2,0.4-0.3,0.7-0.2c0.3,0.1,0.5,0.3,0.5,0.6
	c0,0.4,0,0.8-0.1,1.3c-0.2,0.6-0.2,1.4,0,2c0,0.1,0,0.1,0,0.2c-0.2,0.4,0,0.8,0,1.2c0,0.2-0.1,0.5-0.4,0.5c-0.1,0-0.2,0-0.3-0.1
	c-0.5-0.2-0.9-0.6-1.2-1.2c-0.4-0.8-1.1-1.3-2-1.4c-0.3,0-0.7,0.1-0.9,0.3c-0.4,0.2-0.3,0.6-0.2,0.9c0.1,0.4,0,0.9-0.2,1.3
	c-0.1,0.2-0.2,0.5-0.1,0.7c0,0.3,0,0.5-0.1,0.8c-0.1,0.1-0.1,0.3,0,0.5c0.3,0.4,0.3,0.8,0.2,1.3c-0.1,0.8,0,1.6,0.5,2.3
	c0.1,0.1,0.2,0.2,0.3,0.3c0.3,0.1,0.5,0.4,0.6,0.6c0.1,0.2,0.1,0.5-0.1,0.6c-0.1,0.1-0.2,0.1-0.3,0.1L50.9,35.9z"/>
<path class="st0" d="M135,35.9c-0.7,0.1-1.4,0-2.1-0.2c-0.2-0.1-0.4,0.1-0.6,0.1c-0.4-0.1-0.8-0.1-1.3-0.1l-1.8,0.2
	c-0.2,0-0.3-0.1-0.4-0.3c0-0.3,0.1-0.7,0.5-0.8c0.6-0.2,0.8-0.7,0.9-1.3c0.1-0.7,0.1-1.4,0-2.1c0-0.1,0-0.2-0.1-0.3
	c-0.3-0.4-0.3-0.5,0-0.9c0.3-0.3,0.4-0.8,0.2-1.1c-0.1-0.2-0.1-0.5-0.1-0.8c0.1-0.4,0.1-0.8,0-1.2c-0.1-0.4-0.1-0.8,0-1.2
	c0.2-0.4,0.2-0.9,0-1.3c-0.1-0.2,0-0.4,0.1-0.6c0.1-0.2,0.1-0.4,0-0.6c-0.1-0.4-0.2-0.7-0.5-1c-0.2-0.2-0.4-0.4-0.6-0.4
	c-0.3,0-0.4-0.1-0.4-0.4s0.2-0.3,0.4-0.4c0.4-0.1,0.8,0,1.2,0.1c0.4,0.1,0.7,0.1,1.1,0c0.8-0.1,1.6-0.1,2.4,0.1
	c0.3,0.1,0.5,0.1,0.8,0c1.1-0.3,2.3-0.1,3.2,0.6c0.2,0.1,0.4,0.2,0.6,0.3c0.5,0.4,1.1,0.8,1.6,1.2c0.6,0.4,1.1,1,1.4,1.7
	c0.3,0.7,0.5,1.4,0.5,2.1c0,1,0,1.9-0.2,2.9c0,0.2,0,0.4,0,0.6c0.1,0.4-0.1,0.7-0.3,1c-0.2,0.1-0.3,0.3-0.3,0.6
	c0,0.3-0.3,0.5-0.5,0.7c-0.4,0.3-0.7,0.6-0.9,1c-0.1,0.2-0.2,0.3-0.4,0.3c-0.2,0-0.3,0.1-0.3,0.3c-0.1,0.2-0.3,0.3-0.5,0.4
	c-0.7,0.3-1.4,0.6-2.1,0.8c-0.4,0.1-0.8,0.1-1.2,0L135,35.9z"/>
<path class="st0" d="M150.7,27.1c0,0.3,0,0.6-0.2,0.8c-0.1,0.1-0.1,0.3,0,0.5c0.1,0.5,0.2,1,0.2,1.5c0,0.5-0.4,0.7-0.7,0.5
	c-0.2-0.1-0.3-0.2-0.3-0.4c-0.1-0.5-0.5-0.6-0.9-0.7c-0.2,0-0.3-0.1-0.4-0.2c-0.3-0.3-0.7-0.4-1.1-0.3c-0.3,0.1-0.4,0.2-0.3,0.5
	c0.1,0.2,0.2,0.5,0.2,0.7c0.1,0.3,0,0.6-0.1,0.8c-0.3,0.4-0.1,0.9,0,1.3c0,0.3,0,0.5,0,0.8c-0.2,0.8,0.1,1.6,0.7,2
	c0.5,0.3,1,0.3,1.5,0c0.4-0.2,0.8-0.1,1.1-0.2c0.5-0.2,0.9-0.6,1.1-1.2c0.2-0.4,0.2-1,0.8-1.1c0.3-0.1,0.5,0.1,0.5,0.3
	s0.1,0.7-0.1,1c-0.1,0.1-0.1,0.4,0,0.6c0.1,0.3,0.1,0.7,0,1.1c-0.1,0.4-0.4,0.6-0.8,0.5c-0.7-0.1-1.5-0.2-2.2-0.1
	c-0.4,0-0.8,0-1.2,0.1c-0.2,0-0.3,0-0.5,0c-0.7-0.1-1.3-0.2-2-0.1c-0.9,0.1-1.7,0-2.6,0.1c-0.2,0-0.5,0.1-0.5-0.2
	c-0.1-0.3,0.1-0.6,0.4-0.6c0.3-0.1,0.6-0.3,0.8-0.5c0.2-0.2,0.3-0.5,0.4-0.8c0.1-0.5,0-1.1,0.1-1.6c0.1-0.2,0.1-0.5,0-0.7
	c0-0.1,0-0.1,0-0.2c0.1-0.5,0.1-1.1,0-1.6c0-0.1,0-0.3,0.1-0.4c0.3-0.3,0.2-0.5,0-0.8c-0.2-0.2-0.2-0.4-0.1-0.7c0.1-0.2,0-0.5,0-0.7
	c0-0.4,0.1-0.9,0.3-1.3c0.2-0.3,0.2-0.8,0.1-1.1c-0.1-0.4-0.2-0.8-0.2-1.3c0-0.2-0.1-0.4-0.3-0.5c-0.4-0.3-0.7-0.5-1.1-0.8
	c-0.2-0.1-0.3-0.2-0.2-0.4s0.2-0.4,0.4-0.4c0.6,0,1.3,0.1,1.9,0.3c0.3,0.1,0.6,0.1,0.9,0c0.3-0.1,0.5-0.1,0.8-0.1
	c0.4,0,0.9-0.1,1.3-0.1c0.7-0.1,1.4,0,2.1,0.2c0.2,0,0.4,0,0.5,0c0.6-0.1,1.3,0,1.9,0.3c0.2,0.1,0.3,0.3,0.3,0.5
	c0,0.5,0.2,0.9,0.2,1.4c0,0.2,0,0.4-0.2,0.5s-0.4,0-0.6-0.2c-0.1-0.1-0.2-0.3-0.3-0.4c-0.1-0.3-0.3-0.5-0.6-0.6
	c-0.2-0.1-0.4-0.2-0.6-0.3c-0.5-0.4-1.1-0.5-1.7-0.2c-0.1,0.1-0.3,0.1-0.4,0c-0.3-0.2-0.8-0.4-1.2-0.3c-0.4,0-0.7,0.3-0.7,0.6
	c0,0.1,0,0.2,0.1,0.3c0.3,0.6,0.2,1.2-0.1,1.7c-0.1,0.2-0.1,0.5,0,0.7c0.2,0.4,0.2,0.8,0.1,1.2c-0.1,0.3,0,0.6,0.1,0.8
	c0,0.1,0.2,0.2,0.3,0.2c0.3,0,0.7,0,1-0.1c0.5-0.1,1-0.5,1.2-1c0-0.2,0.2-0.3,0.3-0.3c0.4,0,0.5,0,0.5,0.5
	C150.7,26.9,150.7,26.9,150.7,27.1z"/>
<path class="st0" d="M188.3,51.1c-0.5,0-1,0.1-1.5,0s-0.7,0.1-1.1,0.1c-0.2,0-0.4,0-0.5-0.1c-0.4-0.1-0.8,0.2-0.8,0.7
	c0,0.4,0,0.9-0.2,1.3c0,0,0,0.1,0,0.1c0.2,0.3,0.2,0.7,0.1,1.1c0,0.3,0.1,0.6,0.1,0.9c0,0.3,0.3,0.4,0.6,0.6
	c0.2,0.1,0.3,0.2,0.5,0.2c0.1,0,0.1,0.1,0.1,0.1c0,0.1-0.1,0.1-0.1,0.1c-0.2,0.1-0.5,0.1-0.7,0.1s-0.6,0.1-0.9,0.2
	c-0.3,0-0.6,0-0.9-0.1c-0.2-0.1-0.4-0.1-0.6,0c-0.3,0.1-0.6,0.1-0.9,0c-0.1,0-0.2-0.2-0.2-0.3c0-0.1-0.1-0.3,0.1-0.4
	s0.5-0.4,0.8-0.5s0.1-0.3,0.1-0.3c0-0.4,0.2-0.9,0.2-1.3c0-0.3,0-0.6-0.1-0.8c-0.1-0.1,0-0.3,0-0.4c0-0.5,0-1-0.1-1.5
	c0-0.1-0.1-0.3,0-0.3c0.3-0.4,0-0.9,0.1-1.3c0-0.5,0-0.9,0-1.4c0-0.4-0.1-0.9-0.1-1.3s-0.3-0.4-0.5-0.5s-0.4-0.2-0.5-0.4
	c-0.1-0.1-0.1-0.2,0-0.3c0.1-0.1,0.2,0,0.3,0c0.1,0,0.3,0,0.4,0c0.3,0,0.6,0,0.9,0.1c0.1,0,0.2,0,0.3,0c0.6-0.3,1.3-0.3,1.9,0
	c0.1,0,0.1,0.1,0.1,0.2c0,0,0,0,0,0.1c-0.1,0.1-0.2,0.3-0.4,0.4c-0.5,0.2-0.7,0.7-0.5,1.1c0.1,0.3,0,0.7-0.1,1
	c-0.2,0.2-0.1,0.3,0.1,0.4c0.2,0.1,0.2,0.2,0.2,0.4c0,0,0,0,0,0.1c0,0.2-0.1,0.4-0.1,0.6c0,0.4,0.2,0.6,0.7,0.5c0.5,0,1.1,0,1.6,0
	c0.5,0,1,0.3,1.6,0.1c0.1-0.1,0.2,0,0.4,0.1c0.4,0.1,0.9-0.1,1.1-0.5c0.2-0.4,0.3-0.9,0.1-1.4c-0.1-0.4-0.1-0.9,0-1.3
	c0.1-0.2,0-0.4-0.1-0.5c-0.2-0.2-0.3-0.5-0.7-0.6c-0.1,0-0.2-0.2-0.2-0.3s0.1-0.2,0.2-0.2c0.3-0.1,0.6-0.1,0.9-0.1
	c0.6,0,1.1,0,1.6-0.1c0.2-0.1,0.5,0,0.7,0.1c0.1,0.1,0.1,0.1,0.1,0.3c-0.1,0.2-0.4,0.4-0.6,0.4c-0.3,0-0.4,0.3-0.3,0.4
	c0.3,0.4,0,0.8,0,1.2c-0.1,0.2-0.1,0.5,0,0.7c0.2,0.5,0.2,1,0.2,1.6c0,0.1,0,0.3-0.1,0.4c-0.1,0.1-0.1,0.2,0,0.4
	c0.2,0.3,0.2,0.6,0.2,0.9c-0.1,1.1-0.1,2.1,0.2,3.2c0,0.1,0,0.3,0,0.4c0.1,0.4,0.4,0.5,0.7,0.6l0.3,0.2c0.1,0.1,0.1,0.2,0.1,0.3
	c0,0.1-0.1,0.1-0.2,0.1c-0.8,0.1-1.6,0-2.4-0.1c-0.2-0.1-0.4-0.1-0.6,0c-0.2,0-0.5,0.1-0.6-0.2s0.2-0.5,0.4-0.5
	c0.3-0.1,0.5-0.4,0.5-0.8c-0.1-0.3-0.1-0.7,0-1c0-0.4,0-0.9-0.1-1.3c0-0.1,0-0.1,0-0.2c0.1-0.3,0.2-0.5,0-0.7
	c-0.2-0.3-0.6-0.5-1-0.4C188.5,51.1,188.4,51.1,188.3,51.1z"/>
<path class="st0" d="M193.3,51.6c0-0.5,0-0.9-0.1-1.4c0-0.4,0.1-0.8,0.3-1.2c0.2-0.5,0.5-1,0.8-1.5c0.2-0.3,0.4-0.6,0.6-0.9
	c0.8-0.7,1.7-1.2,2.7-1.4c0.9-0.1,1.7-0.2,2.6-0.2c0.9,0,1.8,0.3,2.5,0.9c0.9,0.8,1.7,1.7,2.3,2.7c0.3,0.5,0.3,1,0.1,1.6
	c0,0.1,0,0.1,0,0.2c0.1,0.6,0.1,1.3,0,1.9c0,0.2-0.1,0.4-0.3,0.6c-0.3,0.8-0.8,1.5-1.4,2.1c-0.8,0.7-1.7,1.2-2.7,1.5
	c-0.3,0.1-0.5,0-0.8-0.1c-0.5,0-1,0.1-1.5,0.1c-0.7,0-1.4-0.1-2-0.4c-0.7-0.4-1.3-0.9-1.7-1.6c-0.1-0.1-0.1-0.2-0.3-0.3
	c-0.5-0.5-0.9-1.1-1.2-1.8C193.2,52.2,193.4,51.9,193.3,51.6z"/>
<path class="st0" d="M179.5,56.3c-0.6-0.2-1.2,0-1.8-0.2c-0.2-0.1-0.4,0-0.6,0.1c-0.1,0-0.3,0-0.4,0c-0.1,0-0.4-0.1-0.4-0.3
	c0-0.2,0-0.3,0.2-0.4c0.2-0.1,0-0.3,0-0.4c-0.3-0.4-0.6-0.6-0.9-0.9c-0.1-0.1-0.3-0.2-0.4-0.4c-0.2-0.3-0.5-0.6-0.8-0.8
	c-0.3-0.2-0.5-0.5-0.7-0.8c-0.2-0.4-0.6-0.5-1-0.7c-0.2-0.1-0.3,0.2-0.3,0.4c0,0.2,0,0.4,0,0.6c0,0.6,0,1.2,0,1.8
	c0,0.5,0.3,0.9,0.7,1.2c0.2,0.1,0.4,0.2,0.4,0.5s-0.5,0.3-0.8,0.2c-0.4-0.1-0.9-0.2-1.4-0.1c-0.4,0.1-0.7,0.1-1.1,0.1
	c-0.1,0-0.2,0-0.3-0.1c-0.3-0.1-0.3-0.4,0-0.5c0.4-0.2,0.7-0.6,0.6-1.1c0-0.4,0-0.8-0.1-1.1c0-0.2,0-0.4,0.2-0.6
	c0.2-0.3,0.2-0.6-0.1-0.8c-0.2-0.2-0.3-0.6-0.2-0.9c0.1-0.4,0.1-0.8,0-1.3c0-0.2,0-0.4,0.1-0.6c0.2-0.3,0.2-0.7,0.1-1
	c-0.1-0.3-0.2-0.7-0.1-1.1c0-0.5-0.1-0.9-0.6-1.1c-0.2-0.1-0.3-0.3-0.2-0.5c0,0,0,0,0,0c0.1-0.2,0.3-0.2,0.5-0.1
	c0.4,0.1,0.7,0,1.1-0.1c0.6-0.1,1.3-0.1,1.9-0.2c0.1,0,0.2,0,0.3,0.1c0.2,0.1,0.2,0.3,0,0.4s-0.4,0.3-0.6,0.4
	c-0.1,0.1-0.2,0.2-0.3,0.4c0,0.3-0.1,0.6-0.2,0.9c0,0.2,0,0.3,0.1,0.5c0.1,0.1,0.1,0.3,0.1,0.5c-0.2,0.4-0.1,0.8-0.3,1.1
	c-0.1,0.2,0,0.3,0.1,0.4c0.2,0.1,0.4,0.1,0.5-0.1c0.4-0.6,1-0.9,1.4-1.4c0.1-0.1,0.2-0.1,0.3-0.1c0.3-0.1,0.5-0.3,0.6-0.5
	c0.1-0.3,0.5-0.5,0.7-0.7l0.3-0.2c0.2-0.1,0.3-0.4,0.2-0.7c0,0,0-0.1-0.1-0.1c-0.1-0.1-0.2-0.3-0.2-0.4c-0.1-0.3,0-0.6,0.4-0.5
	c0.5,0.1,1.1-0.1,1.6,0.2c0.2,0.1,0.4,0.1,0.5,0c0.2-0.1,0.5-0.2,0.8-0.2c0.3-0.1,0.5,0.1,0.6,0.3c0,0.3-0.2,0.6-0.5,0.6
	c-0.5,0.1-1,0.3-1.3,0.6c-0.4,0.3-0.7,0.6-1.1,0.9c0,0-0.1,0.1-0.2,0.1c-0.5,0.1-1,0.5-1.3,0.9c-0.3,0.3-0.7,0.6-1.1,0.9
	c-0.2,0.2-0.4,0.4-0.5,0.7c0,0.1,0,0.3,0.2,0.3c0.4,0.2,0.6,0.6,1.1,0.7c0.1,0,0.2,0.2,0.2,0.3c0,0.2,0.1,0.4,0.3,0.5
	c0.5,0.4,1,0.8,1.4,1.4c0.2,0.3,0.4,0.6,0.9,0.7c0.2,0.1,0.4,0.2,0.5,0.4c0.2,0.5,0.6,0.9,1.2,1.1c0.2,0.1,0.5,0.2,0.4,0.5
	s-0.3,0.2-0.5,0.2L179.5,56.3z"/>
<path class="st0" d="M56.4,45.2c0.3,0,0.6,0,0.9,0.1c0.3,0,0.7,0,1-0.1c0.4-0.1,0.8-0.1,1.2,0c1.1,0.1,2.1,0.5,2.8,1.2
	c0.4,0.4,0.6,0.9,0.7,1.4c0.2,0.7-0.1,1.5-0.6,1.9c-0.3,0.3-0.7,0.6-1.1,0.7c-0.1,0-0.2,0.1-0.2,0.2s0.1,0.2,0.2,0.2
	c0.3,0.2,0.6,0.6,0.6,1c0,0.7,0.2,1.3,0.4,1.9c0,0,0,0.1,0,0.1c0.1,0.6,0.3,0.8,0.8,0.8c0.1,0,0.2,0,0.3,0.1s-0.1,0.2-0.1,0.3
	c-0.2,0.2-0.2,0.6-0.5,0.8c-0.1,0-0.1,0.1-0.2,0.2c-0.6,0.4-1.1,0.1-1.4-0.4c-0.3-0.6-0.6-1.2-0.9-1.9c-0.1-0.3-0.1-0.5-0.1-0.8
	c0-0.7-0.3-1.4-0.9-1.8c-0.4-0.2-0.9-0.2-1.2,0.1c-0.1,0.1-0.2,0.3-0.1,0.4c0.1,0.2,0.2,0.5,0.2,0.8c0.1,0.3,0,0.6-0.2,0.8
	c-0.1,0-0.1,0.2-0.1,0.2c0,0,0,0,0.1,0.1c0.2,0.1,0.2,0.3,0.2,0.6c0,0.3,0,0.6,0.1,0.8c0.1,0.3,0.3,0.6,0.7,0.6c0,0,0.1,0,0.1,0.1
	s0.3,0.2,0.3,0.3S59.2,56,59,56c-0.5,0.1-1.1,0.1-1.6,0c-0.5,0-0.9,0.1-1.3,0.1c-0.2,0-0.3,0-0.5,0c-0.1,0-0.2,0-0.2-0.1
	c-0.1-0.1-0.1-0.2,0-0.3c0.1-0.1,0.2-0.2,0.4-0.3c0.4-0.2,0.6-0.6,0.6-1c0-0.1,0-0.3,0-0.4c0-0.8,0-1.7,0.1-2.5c0-0.5-0.1-1-0.1-1.5
	s0-0.8,0.1-1.2c0-0.6,0-1.2-0.1-1.8c0.1-0.4-0.1-0.8-0.5-1c-0.3-0.1-0.4-0.4-0.3-0.6c0-0.3,0.3-0.3,0.5-0.3L56.4,45.2z"/>
<path class="st0" d="M50.6,56.3c-0.9-0.1-1.7,0-2.5-0.1c-0.4,0-0.8,0-1.2,0.1c-0.2,0-0.3,0-0.5-0.1c-0.1,0-0.2,0-0.3-0.2
	c0-0.1,0.1-0.2,0.2-0.3c0.2-0.1,0.4-0.2,0.5-0.4c0.1-0.1,0.1-0.2,0.1-0.3c0.1-0.4,0.2-0.8,0.2-1.2c0-0.3,0-0.6,0-0.9
	c0-0.1,0-0.2,0-0.3c0-1.1,0-2.3,0-3.4c0-0.3,0-0.7,0.1-0.9c0,0,0,0,0-0.1c-0.2-0.6,0-1.3-0.2-1.8c-0.1-0.4-0.4-0.7-0.8-0.8
	c-0.2,0-0.3-0.2-0.3-0.3c0,0,0,0,0,0c0-0.2,0.2-0.3,0.4-0.3c0.4,0,0.9,0,1.3,0.2c0.4,0.1,0.8,0.1,1.3,0c0.2,0,0.4,0,0.5,0.1
	c0.4,0.1,0.9,0.1,1.3,0c0.7,0,1.4,0.2,2,0.7c0.3,0.2,0.5,0.5,0.8,0.7c0.2,0.2,0.3,0.5,0.3,0.8c0,0.3,0,0.5,0.1,0.8
	c0.1,0.3,0.1,0.6-0.1,0.9c-0.1,0.3-0.3,0.5-0.6,0.6c-0.3,0.1-0.5,0.5-0.9,0.6c-0.1,0-0.1,0.2,0,0.3s0.5,0.4,0.8,0.6
	c0.3,0.2,0.4,0.5,0.5,0.9c0.2,0.5,0.3,1.1,0.3,1.7c0,0.4-0.1,0.9-0.3,1.3c0,0.1-0.1,0.1-0.1,0.2c-0.7,0.4-1.2,1-2.1,1
	C51.3,56.1,51,56.2,50.6,56.3z"/>
<path class="st0" d="M123.2,56.4c-0.2,0-0.4,0-0.6-0.1c-0.2,0-0.3-0.2-0.3-0.4c0-0.4-0.4-0.7-0.7-0.9c-0.3-0.2-0.5-0.4-0.6-0.7
	c-0.1-0.2-0.2-0.4-0.4-0.5l-1.2-1.2c-0.1-0.1-0.3-0.3-0.2-0.5s0-0.4-0.2-0.4c-0.4-0.2-0.7-0.5-0.9-0.9c-0.2-0.4-0.7-0.7-1-1
	c-0.3-0.3-0.5-0.7-0.7-1.1c0-0.1,0-0.1,0-0.2c0.1-0.3-0.1-0.4-0.3-0.4c-0.2,0-0.4,0.1-0.4,0.3c0,0,0,0,0,0c0,0.2,0.1,0.4,0.1,0.5
	c0.1,0.6,0,1.3-0.1,1.9c0,0.1,0,0.2,0,0.2c-0.1,0.6-0.1,1.3,0,1.9c0,0.5,0.1,1,0.2,1.5c0,0.1,0,0.2,0.1,0.3c0.5,0.3,0.8,0.9,1.4,1.1
	c0.2,0.1,0.3,0.2,0.3,0.4c-0.1,0.2-0.3,0.2-0.4,0.2c0,0,0,0,0,0c-0.4-0.1-0.8-0.2-1.3-0.1c-0.1,0-0.3,0-0.4,0
	c-0.2-0.1-0.3-0.1-0.5,0c-0.3,0-0.7,0-1-0.1c-0.2,0-0.2-0.3-0.1-0.4c0-0.1,0.1-0.2,0.2-0.2c0.8-0.4,0.8-1.1,0.9-1.7
	c0-0.3,0-0.7-0.1-1c0-0.2,0-0.4,0.1-0.6c0-0.8,0-1.5-0.1-2.3c0.1-0.8,0.1-1.7,0.1-2.5c0-0.4-0.1-0.7-0.3-1c-0.1-0.2-0.3-0.3-0.5-0.4
	c-0.1-0.1-0.2-0.1-0.3-0.2c-0.1-0.1-0.1-0.3,0-0.4c0.1-0.1,0.2-0.1,0.3-0.1c0.5,0.1,1,0.1,1.5,0.2c0.3,0,0.7,0,1,0
	c0.4,0,0.7,0.3,0.4,0.7c-0.1,0.2,0,0.5,0.2,0.7c0.4,0.6,0.9,1.2,1.5,1.8l0,0c0.2,0.7,0.8,0.9,1.2,1.4c0.4,0.4,0.7,0.9,1,1.4
	c0.1,0.2,0.3,0.4,0.5,0.5c0.2,0.1,0.4,0.3,0.5,0.6c0,0.1,0.1,0.2,0.1,0.2c0.1,0.1,0.2,0.3,0.4,0.1s0.1-0.3,0.1-0.4
	c-0.2-0.4-0.2-0.9,0-1.3c0.2-0.4,0.2-0.8,0.1-1.2c-0.2-0.3-0.2-0.7-0.1-1c0.1-0.8,0-1.5-0.1-2.3c0-0.4-0.3-0.7-0.6-0.7
	c-0.3,0-0.5-0.2-0.7-0.4c-0.2-0.2-0.1-0.5,0.1-0.4c0.7,0.1,1.3-0.2,2,0c0.3,0.1,0.7,0.2,1,0.2c0.2,0,0.2,0.2,0.2,0.3
	c0,0.2-0.1,0.3-0.3,0.4c-0.3,0-0.4,0.3-0.5,0.4c-0.2,0.6-0.4,1.1-0.5,1.8c0,0.1,0,0.1,0,0.2c0.1,0.5,0.1,1.1,0,1.6
	c0,0.1,0,0.1,0,0.2c0,1.1,0,2.2,0,3.4c0,0.5,0.1,1,0.1,1.5c0,0.3,0,0.5,0,0.8C123.8,56.2,123.6,56.4,123.2,56.4z"/>
<path class="st0" d="M135.8,56.6c-0.3,0-0.7-0.1-1-0.2c-0.4-0.2-0.8-0.3-1.2-0.3c-0.2,0-0.4-0.1-0.6-0.1c-0.2-0.1-0.3-0.3-0.4-0.5
	c-0.1-0.4-0.1-0.7,0-1.1c0-0.3,0-0.5-0.1-0.8c-0.1-0.4,0-0.5,0.4-0.6s0.6,0.2,0.6,0.4c0,0.4,0.4,0.5,0.6,0.8s0.4,0.3,0.6,0.5
	c0.4,0.5,1,0.8,1.6,0.8c0.6,0.1,1.2,0,1.7-0.2c0.4-0.1,0.8-1.1,0.8-1.6c0-0.5-0.4-0.9-0.8-1.1c-0.5-0.4-1-0.7-1.6-0.9
	c-0.1,0-0.2-0.1-0.2-0.2c-0.1-0.4-0.4-0.4-0.6-0.4c-0.3,0-0.6,0-0.9-0.1c-0.4-0.2-0.9-0.3-1.1-0.6c-0.2-0.6-0.6-1.1-0.5-1.7
	s-0.1-1.1,0.3-1.6s0.6-1.2,1.3-1.5c0.4-0.2,0.8-0.4,1.3-0.5c0.9-0.2,1.9-0.2,2.8-0.1c0.3,0,0.7,0,1,0.1c0.4,0.1,0.7,0.4,0.6,0.9
	c-0.1,0.2-0.1,0.5,0.1,0.7c0.3,0.4,0.1,0.7,0.1,1.1c0,0.2-0.3,0.3-0.5,0.1c-0.2-0.1-0.4-0.4-0.4-0.6c0-0.2-0.2-0.4-0.4-0.4
	c-0.3-0.2-0.6-0.4-0.8-0.6c-0.3-0.3-0.6-0.4-1-0.4c-0.6,0-1.1,0-1.6,0.2c-0.5,0.1-0.9,0.6-0.9,1.1c0,0.2-0.1,0.4-0.1,0.6
	c0.1,0.5,0.6,0.6,0.9,0.9c0.4,0.3,0.8,0.5,1.3,0.6c0.2,0.1,0.5,0.2,0.7,0.4c0.2,0.2,0.5,0.3,0.9,0.3c0,0,0.1,0,0.1,0
	c0.3,0.4,0.9,0.5,1.1,1.1c0,0.1,0.1,0.2,0.1,0.2c0.4,0.5,0.7,1,0.8,1.7c0.1,0.6,0,1.2-0.4,1.8c-0.3,0.5-0.7,0.9-1.2,1.2
	c-0.4,0.2-0.8,0.3-1.2,0.4C137,56.4,136.3,56.5,135.8,56.6z"/>
<path class="st0" d="M212.1,56.4c-0.3,0-0.7,0.1-1,0.1c-1,0.1-2-0.1-2.9-0.7c-0.6-0.4-1-1.1-1-1.8c0-1-0.1-2-0.2-2.9
	c-0.1-0.5-0.1-0.9,0-1.4c0-0.2,0-0.4-0.1-0.6c0-0.4,0.1-0.9,0.2-1.3c0-0.3,0-0.6-0.1-0.8c-0.1-0.2-0.2-0.5-0.2-0.8
	c0-0.2-0.2-0.2-0.3-0.3c-0.5-0.1-0.6-0.3-0.6-0.7s0.2-0.4,0.4-0.3c1,0.1,1.9,0,2.9,0.1c0.4,0.1,0.8,0.1,1.1,0.1c0.1,0,0.3,0,0.3,0.2
	s0,0.5-0.3,0.5c-0.3,0-0.6,0.1-0.9,0.3c0,0-0.1,0.1-0.1,0.1c-0.4-0.1-0.4,0.2-0.4,0.4c0.1,0.4,0,0.9-0.2,1.3c0,0-0.1,0.1,0,0.1
	c0.4,0.4,0.1,0.9,0.2,1.3c0.1,0.2-0.1,0.4-0.1,0.6s0,0.6,0.1,0.9c0,0.4,0,0.8-0.1,1.2c0,0.2,0,0.4,0.1,0.6c0.1,0.4,0,0.9,0.3,1.3
	c0.6,0.6,1.1,1.3,2.1,1.4c0.6,0,1.3-0.1,1.9-0.1c0.6-0.1,1-0.5,1.2-1c0.2-0.4,0.4-0.7,0.1-1.2c-0.1-0.1-0.1-0.2,0-0.3
	c0.4-0.7,0.5-1.6,0.2-2.4c-0.1-0.5-0.1-1,0-1.5c0-0.2,0-0.5-0.1-0.7c-0.1-0.4-0.1-0.8-0.1-1.2c0-0.3-0.1-0.5-0.4-0.7
	c-0.1-0.1-0.3-0.2-0.4-0.4c-0.1-0.1-0.2-0.2-0.4-0.3c-0.2,0-0.3-0.2-0.3-0.4c0,0,0,0,0,0c0-0.2,0.2-0.3,0.4-0.3c0.5,0,1,0,1.4,0h0.1
	c0.5,0.4,1.1,0,1.6,0c0.3,0,0.4,0,0.5,0.2c0.1,0.2,0.1,0.4-0.1,0.6c-0.3,0.2-0.5,0.3-0.7,0.5c-0.3,0.3-0.4,0.6-0.4,1
	c0.1,0.9-0.3,1.6-0.2,2.5c0.1,0.5,0.1,1.1,0.1,1.6c0,1-0.1,2-0.3,3c0,0.2-0.1,0.3-0.2,0.4c-0.7,0.7-1.5,1.2-2.4,1.5
	C212.7,56.5,212.4,56.5,212.1,56.4z"/>
<path class="st0" d="M217.8,54.8c0.1-0.5,0-0.9-0.1-1.4c0-0.2,0.1-0.4,0.3-0.4c0,0,0.1,0,0.1,0c0.3,0,0.6,0.1,0.5,0.4
	c0,0.3,0.2,0.6,0.5,0.8c0.4,0.3,0.7,0.6,1,0.9c0.2,0.2,0.5,0.3,0.9,0.4c0.2,0,0.4,0,0.6,0.1c0.2,0.1,0.5,0.1,0.8,0
	c0.2-0.1,0.4-0.1,0.6-0.2c0.2,0,0.3-0.2,0.5-0.4c0.2-0.2,0.4-0.5,0.5-0.7c0-0.1,0.1-0.3,0-0.3c-0.1-0.2-0.2-0.5-0.2-0.8
	c0-0.2-0.2-0.3-0.3-0.4c-0.2,0-0.4-0.2-0.6-0.3c-0.3-0.3-0.8-0.6-1.2-0.8c-0.1-0.1-0.3-0.1-0.3-0.2c-0.1-0.4-0.4-0.4-0.7-0.4
	c-0.3,0-0.6,0-0.8-0.1c-0.4-0.2-1-0.3-1.1-0.7c-0.2-0.4-0.3-0.8-0.5-1.2c-0.1-0.3-0.1-0.5,0-0.8c0-0.1,0-0.2,0-0.3
	c-0.1-0.4,0.1-0.9,0.4-1.2c0.1-0.2,0.3-0.3,0.4-0.5c0.2-0.4,0.6-0.7,1-0.9c0.7-0.3,1.4-0.5,2.2-0.5c0.6,0,1.2,0,1.8,0.1
	c0.3,0,0.6,0,0.9,0.1c0.4,0.1,0.7,0.5,0.6,0.9c0,0,0,0,0,0c-0.1,0.2-0.1,0.5,0.1,0.6c0.3,0.4,0.1,0.8,0.1,1.2c0,0.2-0.3,0.3-0.5,0.1
	c-0.2-0.1-0.4-0.4-0.4-0.6c0-0.2-0.2-0.4-0.4-0.5c-0.3-0.1-0.6-0.3-0.8-0.6c-0.2-0.2-0.6-0.4-0.9-0.4c-0.7-0.1-1.3,0-1.9,0.2
	c-0.4,0.2-0.7,0.6-0.7,1c0,0.1,0,0.3-0.1,0.4c-0.1,0.2,0,0.5,0.2,0.6c0.4,0.3,0.8,0.6,1.2,0.9c0.6,0.2,1.2,0.5,1.8,0.9
	c0,0,0.1,0.1,0.1,0.1c0.5,0,1,0.3,1.2,0.7c0.5,0.5,0.8,1.1,1,1.7c0,0.1,0.1,0.3,0.1,0.4c0.2,0.6,0.1,1.3-0.3,1.8
	c-0.3,0.6-0.7,1-1.2,1.3c-0.4,0.2-0.8,0.3-1.2,0.4c-0.7,0.2-1.4,0.2-2.2,0.3c-0.2,0-0.4,0-0.6-0.1c-0.6-0.2-1.2-0.4-1.8-0.5
	C217.9,55.9,217.8,55.7,217.8,54.8z"/>
<path class="st0" d="M234.7,46.8c0,0.5-0.1,0.6-0.4,0.6s-0.3-0.3-0.4-0.4c-0.1-0.2-0.3-0.4-0.5-0.5c-0.2-0.1-0.4-0.2-0.6-0.3
	c-0.3-0.2-0.7-0.2-1.1-0.1c-0.1,0.1-0.3,0.1-0.4-0.1c-0.3-0.2-0.6-0.3-0.9-0.2c-0.3,0-0.5,0.2-0.5,0.5c0,0.1,0,0.1,0,0.2
	c0.2,0.5,0.2,1-0.1,1.4c-0.1,0.2-0.1,0.4,0.1,0.6c0.1,0.3,0.1,0.6,0,0.9c-0.1,0.2-0.1,0.5,0.1,0.7c0.2,0.2,0.6,0.2,0.8,0.1
	c0.4-0.1,0.8-0.4,1-0.9c0.1-0.3,0.4-0.2,0.5-0.2s0.2,0.2,0.2,0.4c0,0.5-0.3,1,0,1.5c0.1,0.3,0.1,0.6,0,0.9c0,0.2-0.2,0.3-0.4,0.3
	c0,0-0.1,0-0.1,0c-0.1-0.1-0.2-0.2-0.3-0.3c-0.1-0.4-0.4-0.5-0.7-0.5c-0.2,0-0.3-0.1-0.5-0.2c-0.1-0.1-0.2-0.2-0.3-0.2
	c-0.2,0-0.4-0.1-0.6,0.1s0,0.3,0.1,0.4c0.1,0.3,0.1,0.7,0,1c-0.1,0.3-0.1,0.6,0,0.9c0.1,0.2,0.1,0.4,0,0.6c-0.2,0.6,0.1,1.3,0.6,1.6
	c0.3,0.1,0.6,0.1,0.9,0c0.3-0.1,0.5-0.1,0.8-0.2c0.5-0.1,0.9-0.5,1.1-1c0.1-0.3,0.2-0.5,0.4-0.7c0.1-0.1,0.3-0.2,0.4-0.1
	c0.2,0.1,0.2,0.2,0.2,0.4c0,0.3,0,0.5-0.1,0.7c-0.1,0.2,0,0.4,0.1,0.6c0.1,0.5-0.1,1-0.6,1c-0.2,0-0.5,0-0.7-0.1
	c-0.6-0.1-1.3-0.1-1.9,0c-0.2,0-0.3,0-0.5,0c-0.7-0.1-1.5-0.1-2.2,0c-0.5,0-1.1,0-1.6-0.1c-0.2,0-0.2-0.2-0.1-0.3
	c0-0.1,0.1-0.3,0.3-0.3c0.7-0.2,1.1-0.8,1-1.5c0-0.5,0-0.9,0-1.4s0-0.8,0-1.1c0.1-0.4,0.1-0.9,0-1.3c-0.1-0.6,0-1.3,0.3-1.9
	c0.2-0.3-0.1-0.7-0.1-1l0,0c0.1-0.8-0.5-1.1-1.1-1.5c-0.1-0.1-0.2-0.2-0.2-0.4c0-0.1,0.1-0.2,0.3-0.3s0.5,0,0.8,0
	c0.2,0,0.5,0,0.7,0.1c0.3,0.1,0.6,0.1,0.8,0c0.1,0,0.2-0.1,0.4-0.1c0.4,0,0.9,0,1.3-0.1c0.3-0.1,0.6,0,0.9,0.1
	c0.5,0.1,1,0.2,1.5,0.1c0.3,0,0.5,0.1,0.8,0.2c0.2,0.1,0.4,0.3,0.4,0.6C234.6,46.3,234.7,46.6,234.7,46.8z"/>
<path class="st0" d="M156.9,49.6c0,0.2,0,0.4-0.1,0.6c-0.1,0.1-0.1,0.2,0,0.4c0.1,0.4,0.2,0.7,0.1,1.1c0,0.2-0.1,0.3-0.2,0.4
	c-0.1,0.1-0.3,0-0.4-0.1c0,0,0,0,0,0c-0.2-0.4-0.6-0.7-1.1-0.8c-0.3-0.1-0.5-0.4-0.9-0.3s-0.4,0.1-0.3,0.4c0.2,0.5,0.2,1,0,1.5
	c-0.1,0.2,0,0.5,0.1,0.7c0,0.2,0,0.4,0,0.6c-0.2,0.6,0.1,1.3,0.7,1.6c0.2,0.1,0.5,0.1,0.8,0c0.4-0.1,0.8-0.1,1.1-0.3
	c0.4-0.1,0.7-0.5,0.8-0.9c0.1-0.3,0.2-0.7,0.6-0.9s0.5,0,0.5,0.3c0.1,0.3,0,0.5-0.1,0.8c-0.1,0.2,0,0.4,0.1,0.6
	c0.1,0.3,0,0.7-0.2,0.9c-0.1,0.1-0.3,0.2-0.5,0.1c-0.7-0.1-1.4-0.2-2.1-0.1c-0.4,0.1-0.8,0.1-1.1,0c-0.6-0.1-1.2-0.1-1.8,0
	c-0.3,0-0.7,0-1,0h-0.5c-0.2,0-0.4,0-0.4-0.2c0-0.2,0.1-0.4,0.3-0.5c0.3-0.1,0.5-0.2,0.7-0.5c0.1-0.1,0.2-0.3,0.2-0.5
	c0.1-0.6,0.1-1.2,0.1-1.8c0-0.5,0-0.9,0-1.4c-0.1-0.2,0-0.4,0.2-0.6c0.1-0.1,0-0.3,0-0.4s-0.1-0.1-0.1-0.2c0-0.7,0.1-1.4,0.3-2
	c0.2-0.3,0-0.6-0.1-0.9s-0.1-0.5-0.1-0.7c0-0.2-0.1-0.4-0.3-0.5c-0.2-0.2-0.5-0.4-0.7-0.5c-0.2-0.1-0.2-0.2-0.1-0.4s0.1-0.2,0.3-0.2
	c0.4-0.1,0.9,0,1.3,0.1c0.3,0.1,0.7,0.1,1,0c0.1,0,0.2-0.1,0.4-0.1c0.4,0,0.9,0,1.3-0.1c0.3-0.1,0.6,0,0.9,0.1
	c0.5,0.1,1,0.2,1.5,0.1c0.3,0,0.6,0.1,0.8,0.2c0.2,0.1,0.3,0.3,0.3,0.4c0.1,0.4,0.1,0.7,0.1,1.1c0,0.1,0,0.3-0.2,0.3
	c-0.1,0.1-0.3,0-0.4-0.1c0-0.1-0.1-0.1-0.1-0.1c-0.2-0.8-0.9-0.8-1.4-1.1c-0.3-0.1-0.6-0.1-0.8,0c-0.1,0.1-0.3,0.1-0.4-0.1
	c-0.2-0.1-0.4-0.2-0.6-0.2c-0.6,0-0.9,0.2-0.6,0.8c0.2,0.4,0.1,0.8-0.1,1.2c-0.1,0.2-0.1,0.4,0,0.5c0.1,0.3,0.2,0.7,0.1,1
	c0,0.2-0.1,0.6,0.2,0.7c0.2,0.1,0.5,0.1,0.7,0c0.4-0.1,0.9-0.3,1-0.8c0.1-0.2,0.3-0.4,0.5-0.3c0,0,0,0,0.1,0
	c0.3,0.1,0.1,0.3,0.1,0.5C156.9,49.5,156.9,49.5,156.9,49.6z"/>
<path class="st0" d="M75.4,46.9c0-0.4,0-0.8,0-1.2c-0.1-0.3,0.2-0.7,0.6-0.5c0.2,0.1,0.5,0.1,0.8,0.1c1.3,0,2.5-0.1,3.8,0
	c0.4,0,0.9-0.2,1.3,0.1c0.3-0.1,0.7-0.2,1-0.1c0.2,0,0.5,0,0.6,0.2c0.1,0.3,0,0.6-0.2,0.8c-0.5,0.5-0.8,1-1.1,1.7
	c-0.1,0.1-0.1,0.2-0.2,0.3c-0.1,0.1-0.2,0.3-0.3,0.4c0,0.3-0.2,0.6-0.5,0.7c-0.2,0.1-0.2,0.3-0.1,0.5c0.1,0.3-0.2,0.6-0.3,0.8
	c-0.3,0.4-0.6,0.8-0.9,1.2c0,0,0,0.1-0.1,0.1c-0.2,0.1-0.3,0.3,0,0.5c0.1,0.1,0,0.4-0.2,0.4c-0.3,0.2-0.5,0.5-0.6,0.8
	c0,0.1-0.1,0.2-0.1,0.2c-0.4,0.2-0.6,0.7-0.9,1.1c-0.1,0.1-0.2,0.2-0.1,0.3s0.3,0.4,0.4,0.2c0.3-0.2,0.7-0.2,1-0.1
	c0.6,0,1.2-0.1,1.8,0c0.1,0,0.2,0,0.3,0c0.5-0.1,0.8-0.6,1.1-0.9c0.1-0.1,0.2-0.3,0.3-0.4c0.2-0.2,0.4-0.1,0.5,0.1
	c0,0.2,0,0.4,0,0.6c0,0.4,0.1,0.8,0.1,1.2s-0.1,0.4-0.4,0.4c-0.2,0-0.5,0-0.7-0.1c-0.3-0.1-0.7-0.1-1.1,0c-0.1,0.1-0.3,0.1-0.5,0
	c-0.4-0.2-0.9-0.2-1.3,0c-0.4,0.1-0.9,0.1-1.3,0c-0.6-0.1-1.2-0.1-1.8,0h-0.6c-0.2,0-0.4-0.1-0.4-0.4c0,0,0-0.1,0-0.1
	c0.1-0.2,0.1-0.5,0.4-0.6c0.3-0.1,0.5-0.4,0.5-0.7c0-0.1,0.1-0.3,0.2-0.4c0.1-0.1,0.2-0.3,0.3-0.4c0.2-0.4,0.5-0.8,0.8-1.2
	c0.2-0.2,0.3-0.4,0.4-0.6c0.2-0.5,0.4-1,0.7-1.5c0.2-0.4,0.4-0.7,0.7-1c0.2-0.2,0.2-0.5,0.3-0.7c0.3-0.6,0.7-1.2,1-1.8
	c0.1-0.1,0.1-0.2,0.2-0.3c0.3-0.2,0.2-0.4,0-0.5s-0.3-0.2-0.5-0.1c-0.4,0.2-0.8,0.3-1.3,0.1c-0.5,0-0.9,0-1.4,0.1c0,0-0.1,0-0.1,0
	c-0.5-0.2-0.8,0.1-1.1,0.5c-0.2,0.2-0.4,0.3-0.5,0.6s-0.3,0.2-0.4-0.1S75.4,47.1,75.4,46.9z"/>
<path class="st0" d="M147.8,56.3c-0.2,0-0.3,0-0.5-0.1c-1-0.1-2,0-2.9,0.1c-0.2,0-0.4,0.1-0.5-0.2s0-0.4,0.2-0.5
	c0.1,0,0.1-0.1,0.2-0.1c0.5-0.2,0.7-0.8,0.6-1.3c0-0.1,0-0.1,0-0.2c0.1-1.1-0.1-2.1-0.1-3.2c0.1-0.5,0.1-1.1,0.1-1.6
	c-0.1-0.4-0.2-0.9-0.1-1.3c0.1-0.4,0-0.9-0.1-1.3c-0.1-0.4-0.6-0.7-1-0.6c-0.1,0-0.1,0-0.2,0.1c-0.2,0.1-0.3,0.1-0.5,0.2
	c-0.2,0.1-0.4,0.3-0.5,0.5c-0.2,0.3-0.4,0.6-0.7,0.8c-0.1,0.1-0.2,0-0.3,0c-0.1,0-0.2-0.2-0.2-0.3c0,0,0,0,0,0
	c0.2-0.5,0.2-1.1-0.1-1.6c-0.1-0.3,0.1-0.6,0.6-0.6c0.3,0,0.5,0.1,0.7,0.2c0.1,0.1,0.3,0.1,0.4,0.1c0.7-0.3,1.5-0.2,2.2,0.1
	c0.4,0.1,0.8,0,1.2-0.2c0.1,0,0.1-0.1,0.2-0.1c0.7,0,1.4-0.3,2.1,0.2c0.2,0.1,0.3,0,0.5-0.1s0.5-0.1,0.7-0.2s0.4-0.1,0.5,0.1
	c0.1,0.2,0.1,0.4,0,0.6c0,0.1-0.1,0.2-0.1,0.3c-0.2,0.3-0.3,0.7-0.2,1.1c0,0.3-0.1,0.4-0.3,0.4c-0.2,0-0.4-0.1-0.4-0.3c0,0,0,0,0,0
	c0-0.3-0.1-0.6-0.3-0.8c-0.3-0.2-0.6-0.5-1-0.4c-0.2,0-0.4,0-0.6-0.1c-0.4-0.1-0.5,0-0.6,0.4c-0.1,0.6-0.1,1.3,0,1.9
	c0,0.2-0.1,0.5-0.1,0.7c0,0.3,0,0.7,0.1,1c0.1,0.3,0.1,0.7,0,1c-0.1,0.2-0.1,0.5,0,0.7c0,0.1,0,0.2,0,0.3c0,0.3,0.1,0.6,0.1,0.9
	c0.1,0.4,0.1,0.8,0.1,1.2c-0.2,0.6,0.2,1.3,0.8,1.6l0.1,0.1c0.2,0.1,0.4,0.2,0.4,0.5S147.9,56.3,147.8,56.3z"/>
<path class="st0" d="M92.6,49.5c0.4,0.1,0.4,0.3,0.3,0.7c-0.2,0.7-0.2,1.4,0.1,2c0.2,0.4,0.2,0.9,0,1.3c-0.2,0.5-0.1,1,0.3,1.4
	c0.2,0.2,0.5,0.2,0.8,0.3c0.6,0.1,1.3,0.1,1.9,0.1c0.4,0,0.7-0.2,0.9-0.5c0.1-0.3,0.2-0.5,0.3-0.8c0.1-0.2,0.3-0.4,0.5-0.3
	c0,0,0,0,0,0c0.1,0,0.2,0.2,0.2,0.3c-0.1,0.5-0.1,1.1,0,1.6c0.1,0.5-0.2,0.7-0.6,0.7c-0.6,0-1.3,0-1.9,0s-1.2,0-1.8,0
	c-0.3,0-0.6,0-0.9-0.1c-0.2-0.1-0.5-0.1-0.7,0c-0.1,0-0.1,0-0.2,0c-0.5,0-1,0.1-1.6,0.1c-0.1,0-0.2,0-0.4-0.1
	c-0.3-0.1-0.4-0.3-0.1-0.5c0.1-0.1,0.2-0.2,0.3-0.2c0.6-0.3,0.9-0.8,0.8-1.4c0-0.3,0-0.5,0.1-0.7c0.1-0.3-0.1-0.5-0.2-0.8
	c-0.1-0.3-0.1-0.7-0.1-1c0.2-0.4,0.2-0.9,0.1-1.3c-0.1-0.3-0.1-0.6,0.1-0.9c0.2-0.5,0.2-0.9,0.1-1.4c0-0.3,0-0.6,0-0.9
	c0.1-0.4-0.2-0.8-0.6-1c-0.2-0.1-0.4-0.3-0.4-0.5c0-0.2,0-0.4,0.3-0.4c0.6,0,1.1,0.2,1.6,0.2c0.2,0,0.4,0,0.5-0.1
	c0.3-0.1,0.7-0.1,1,0c0.1,0,0.2,0,0.3,0c0.2-0.1,0.4,0,0.5,0.1c0.1,0.2-0.1,0.3-0.2,0.4s-0.3,0.2-0.4,0.3c-0.3,0.3-0.5,0.8-0.6,1.2
	c0,0.3,0,0.6,0,0.9C93,48.5,92.8,49,92.6,49.5z"/>
<path class="st0" d="M73.1,56.3c-0.5,0-1-0.1-1.6,0l-0.6,0.1c-0.1,0-0.3-0.1-0.3-0.2c0-0.2,0.1-0.2,0.2-0.3c0.3-0.1,0.7-0.2,0.7-0.6
	c0-0.2,0-0.5-0.1-0.7c-0.1-0.2-0.2-0.4-0.2-0.7c0,0,0-0.1,0-0.1c-0.4-0.3-0.3-0.8-0.6-1.2c-0.1-0.1-0.1-0.3-0.2-0.4
	c0-0.4-0.3-0.7-0.8-0.7c-0.6,0-1.1,0-1.7,0.1c-0.3,0-0.5,0.2-0.6,0.4c-0.2,0.7-0.5,1.4-0.8,2.1c-0.1,0.2-0.1,0.3-0.2,0.5
	c-0.1,0.3,0.1,0.7,0.4,0.8c0.3,0.1,0.4,0.4,0.4,0.7c0,0.1-0.1,0.2-0.2,0.2c0,0,0,0,0,0c-0.8,0-1.6,0-2.4-0.1c-0.1,0-0.3-0.1-0.4-0.1
	c-0.1,0-0.3,0-0.3-0.2s0-0.3,0.2-0.4s0.3-0.1,0.4-0.2c0.6-0.3,0.8-0.9,1.1-1.4c0.2-0.3,0.3-0.7,0.7-0.9s0.1-0.5,0.2-0.8
	c0.1-0.5,0.3-0.9,0.6-1.4c0.1-0.2,0.2-0.4,0.2-0.6c0-0.4,0.4-0.7,0.5-1.2c0.3-0.9,0.6-1.7,1-2.5c0.1-0.4,0.1-0.8,0.1-1.2
	c0-0.2,0.1-0.4,0.2-0.5c0.3-0.2,0.7-0.1,0.6,0.3c0,0.5,0.2,1,0.5,1.5c0.1,0.2,0.2,0.5,0.2,0.7c0,0.4,0.3,0.7,0.4,1
	c0.1,0.5,0.2,1,0.4,1.4c0.1,0.3,0.2,0.6,0.2,0.9c0,0.1,0,0.2,0.1,0.3c0.5,0.8,0.8,1.7,1.1,2.6c0.1,0.3,0.1,0.6,0.4,0.7
	c0.1,0.1,0.1,0.2,0.2,0.3c0,0.4,0.3,0.7,0.7,0.8c0.2,0.1,0.4,0.2,0.3,0.4c0,0.2-0.3,0.4-0.5,0.3L73.1,56.3z"/>
<path class="st0" d="M168.2,56.3c-0.5,0-1.1-0.1-1.6,0l-0.6,0.1c-0.1,0-0.3-0.1-0.3-0.2c0,0,0,0,0,0c0-0.2,0.1-0.2,0.2-0.2
	c0.8-0.3,0.9-0.7,0.6-1.4c-0.1-0.2-0.2-0.4-0.1-0.6c0,0,0-0.1,0-0.1c-0.4-0.3-0.4-0.8-0.6-1.2c-0.1-0.1-0.2-0.3-0.2-0.5
	c-0.1-0.4-0.4-0.7-0.8-0.7c-0.6,0-1.1,0-1.7,0.1c-0.3,0-0.6,0.3-0.7,0.6c-0.1,0.5-0.4,0.9-0.5,1.4c-0.1,0.3-0.3,0.6-0.3,0.9
	c-0.2,0.4,0,0.8,0.4,1c0.3,0.2,0.5,0.4,0.4,0.7c0,0.1-0.1,0.2-0.3,0.2c-0.8,0-1.6,0-2.4-0.1c-0.2,0-0.4-0.1-0.6-0.1
	c-0.1,0-0.1-0.2-0.1-0.3c0-0.2,0.1-0.3,0.2-0.3c0.2-0.1,0.4-0.2,0.6-0.3c0.3-0.2,0.6-0.5,0.7-0.8c0.2-0.4,0.4-0.8,0.6-1.2
	c0.1-0.2,0.4-0.3,0.4-0.6c0-0.5,0.1-0.9,0.4-1.3c0.3-0.5,0.4-1.1,0.7-1.5c0.4-0.7,0.6-1.5,1-2.3c0.4-0.6,0.6-1.4,0.6-2.2
	c-0.1-0.2,0.1-0.4,0.3-0.5c0.3-0.1,0.6,0,0.6,0.3c0,0.7,0.4,1.3,0.6,1.9s0.5,1.2,0.6,1.8s0.5,1.3,0.4,2c0,0.3,0.2,0.4,0.3,0.7
	c0.2,0.6,0.6,1.2,0.7,1.8c0.1,0.4,0.3,0.9,0.6,1.2c0.2,0.2,0.1,0.6,0.4,0.8s0.3,0.1,0.5,0.3c0.1,0.1,0.2,0.2,0.2,0.4
	c0,0.2-0.2,0.3-0.4,0.3C168.7,56.3,168.5,56.3,168.2,56.3z"/>
<path class="st0" d="M112.1,56.3c-0.5,0-1.1,0-1.6,0c-0.2,0-0.4,0.1-0.6,0.1c-0.1,0-0.3-0.1-0.3-0.2c0-0.2,0.1-0.2,0.2-0.3h0.1
	c0.6-0.2,0.8-0.5,0.6-1.1c-0.1-0.5-0.3-1-0.5-1.5c-0.2-0.4-0.4-0.8-0.4-1.2c0-0.3-0.5-0.6-0.7-0.6c-0.6,0-1.1,0-1.7,0.1
	c-0.3,0-0.6,0.3-0.7,0.6c-0.2,0.5-0.4,1-0.6,1.6c-0.1,0.3-0.2,0.5-0.3,0.8c-0.1,0.3,0.1,0.7,0.4,0.9c0.1,0.1,0.2,0.2,0.3,0.3
	c0.2,0.1,0.1,0.4,0.1,0.5s-0.2,0.1-0.3,0.1c-0.7,0-1.5,0-2.2-0.1c-0.2,0-0.4-0.1-0.6-0.1s-0.1-0.1-0.1-0.3c0-0.2,0.1-0.3,0.2-0.4
	c0.2-0.1,0.4-0.2,0.6-0.3c0.3-0.1,0.5-0.4,0.7-0.7c0.2-0.4,0.4-0.7,0.6-1.1c0-0.1,0.1-0.2,0.2-0.2s0.3-0.3,0.3-0.5
	c0-0.6,0.3-1.2,0.7-1.7c0.2-0.2,0.3-0.5,0.3-0.8c0.1-0.3,0.3-0.5,0.4-0.8c0.1-0.5,0.3-1,0.6-1.4c0.2-0.4,0.3-0.9,0.5-1.3
	c0.1-0.4,0.2-0.8,0.1-1.3c0-0.3,0.2-0.5,0.5-0.5s0.4,0.1,0.4,0.3c-0.1,0.7,0.4,1.2,0.6,1.9s0.5,1.2,0.6,1.9s0.5,1.3,0.5,2
	c0,0.3,0.2,0.4,0.3,0.7c0.2,0.6,0.5,1.2,0.8,1.8c0.1,0.1,0.1,0.2,0.1,0.3c0,0.3,0.1,0.6,0.3,0.7c0.1,0.1,0.2,0.3,0.2,0.5
	c0,0.3,0.3,0.6,0.6,0.6c0.4,0.2,0.5,0.3,0.4,0.6s-0.2,0.2-0.4,0.3L112.1,56.3z"/>
<path class="st0" d="M33.5,54.1c-0.2,0-0.3-0.2-0.4-0.4c-0.4-0.4-0.7-0.8-1.1-1.1c-0.2-0.1-0.3-0.3-0.5-0.5
	c-0.8-0.8-1.6-1.6-2.4-2.3s-1.4-1.4-2.2-2c-0.1-0.1-0.1-0.2,0-0.3c0.3-0.1,0.6-0.3,0.8-0.5c0.2-0.1,0.4-0.2,0.6-0.3s0.4-0.1,0.6,0
	c0.8,0.5,1.5,1,2.2,1.4c0.5,0.3,1,0.7,1.5,1c1.1,0.6,2,1.4,3.1,2c0.2,0.2,0.5,0.3,0.8,0.4c0.3,0.1,0.1,0.1,0,0.3s-0.4,0.4-0.6,0.6
	c-0.3,0.3-0.7,0.3-1,0c0,0,0,0,0,0c-0.5-0.3-0.9-0.7-1.4-1.1c-0.4-0.4-0.9-0.6-1.3-1s-0.3,0.1-0.5,0.2s0,0.2,0.1,0.2
	c0.4,0.4,0.9,0.8,1.3,1.2s0.9,0.8,1.4,1.2c0.1,0.1,0.1,0.2,0.1,0.3c0,0,0,0-0.1,0.1C34.2,53.9,33.9,54.1,33.5,54.1z"/>
<path class="st0" d="M101.6,48.6c-0.1,0.7-0.1,1.5-0.1,2.2c0,0.4,0,0.8,0.1,1.2c0,0.2,0,0.4-0.1,0.6c-0.1,0.1,0,0.2,0,0.3
	c0.1,0.5,0.1,1,0.1,1.5c0,0.4,0.1,0.8,0.3,1.1c0.1,0.1,0.1,0.3,0.3,0.3s0.3,0.1,0.2,0.3c-0.1,0.1-0.2,0.3-0.4,0.3
	c-0.4,0-0.7,0-1.1-0.1c-0.2,0-0.4,0-0.7,0c-0.4,0-0.9,0.2-1.3-0.2c-0.1-0.1-0.1-0.2,0-0.4c0.4-0.3,0.7-0.7,0.8-1.2
	c0-0.2-0.1-0.3,0-0.4c0.1-0.6,0.1-1.3,0.1-1.9c0-0.5,0-1-0.1-1.4c-0.2-0.4-0.2-0.9,0-1.3c0.1-0.3,0.1-0.7,0-1
	c-0.1-0.3-0.1-0.5,0-0.8c0.1-0.6-0.2-1.3-0.8-1.5c-0.2-0.1-0.3-0.3-0.3-0.5c0-0.2,0.1-0.3,0.3-0.3c0.5-0.1,1.1,0,1.6,0.1
	c0.1,0,0.3,0,0.4,0c0.2-0.1,0.4-0.1,0.6,0c0.1,0,0.2,0,0.4,0c0.2-0.1,0.4,0,0.5,0.2c0.1,0.2,0,0.3-0.1,0.4c-0.2,0.2-0.4,0.4-0.6,0.5
	c-0.2,0.2-0.3,0.4-0.3,0.7C101.5,47.6,101.5,48.1,101.6,48.6z"/>
<path class="st0" d="M87.8,56.3c-0.3,0-0.6,0-0.9-0.1c-0.1,0-0.3,0-0.4,0.1c-0.3,0-0.7,0-1,0c-0.3,0-0.3-0.3-0.5-0.4
	s0.1-0.2,0.2-0.3c0.2-0.2,0.4-0.5,0.6-0.7C86,54.6,86,54.3,86,54c-0.1-0.2,0-0.5,0.1-0.7c0-0.1,0-0.3,0-0.4c-0.1-0.2-0.1-0.5,0-0.7
	c0-0.6,0-1.3-0.2-1.9c0-0.3,0-0.6,0.1-0.9c0.1-0.4,0.1-0.8-0.1-1.2c-0.1-0.2-0.1-0.3,0-0.5c0.1-0.4,0.1-0.8-0.1-1.2
	c-0.1-0.2-0.4-0.4-0.6-0.5c-0.2-0.1-0.2-0.2-0.3-0.4c0-0.2,0.1-0.3,0.3-0.4c0.5-0.1,1-0.1,1.4,0c0.2,0.1,0.5,0.1,0.7,0
	c0.1-0.1,0.3-0.1,0.4,0c0.2,0.1,0.4,0.1,0.6,0c0.1,0,0.3,0.1,0.4,0.2c0.1,0.1,0.1,0.2,0,0.3c-0.1,0.2-0.3,0.4-0.5,0.5
	c-0.3,0.2-0.5,0.5-0.4,0.9c0,0.6,0,1.1,0.1,1.7c0,0,0,0.1,0,0.1c-0.2,0.7-0.2,1.5-0.1,2.2c0.1,0.5,0.1,1-0.1,1.5c0,0.1,0,0.1,0,0.2
	c0.1,0.5,0.2,1,0.1,1.5c-0.1,0.6,0.2,1.2,0.7,1.6c0.1,0,0.1,0.1,0.1,0.2c0,0,0,0,0,0c0,0.1-0.1,0.3-0.3,0.3L87.8,56.3z"/>
<path class="st0" d="M32.6,54.8c-0.3,0-0.6,0.1-0.8,0.3c-0.3,0.2-0.6,0.1-0.8-0.1c-0.8-0.7-1.4-1.6-2.1-2.4c-0.1-0.1-0.1-0.2,0-0.3
	c0,0,0,0,0,0c-0.3,0.2-0.6,0.3-0.5,0.6c0.1,0.2,0.3,0.4,0.5,0.6c0.6,0.7,1.1,1.4,1.6,2.1c0.1,0.1,0.1,0.1,0,0.2
	c-0.3,0.2-0.8,0.2-1.1,0.4c-0.1,0-0.2-0.1-0.3-0.2c-1.3-2.1-2.7-4.2-4.1-6.3l-0.5-0.7c-0.1-0.1-0.1-0.3,0.1-0.3s0.3-0.1,0.3-0.2
	s0.3-0.1,0.4,0.1c0.5,0.8,1,1.6,1.6,2.3c0.2,0.3,0.4,0.6,0.6,0.9c0,0.1,0.2,0.2,0.3,0.1c0,0,0,0,0,0c0.2-0.1,0.1-0.2,0.1-0.3
	c-0.1-0.2-0.2-0.4-0.3-0.6c-0.6-0.8-1.2-1.5-1.9-2.3c-0.2-0.3-0.1-0.4,0.2-0.5c0.3-0.1,0.7,0,0.9,0.3c1,1,2,1.9,2.9,3
	c0.7,0.8,1.5,1.6,2.2,2.4C32.2,54.1,32.4,54.4,32.6,54.8z"/>
<path class="st0" d="M12.9,47.5c0,0.1,0,0.2-0.1,0.3c-0.7,0.8-1.6,1.5-2.4,2.1c-0.1,0.1-0.2,0.2-0.4,0.4c-0.5,0.5-1.1,1-1.7,1.4
	c-0.4,0.3-0.7,0.7-1,1c-0.3,0.2-0.5,0.4-0.8,0.6c-0.1,0.1-0.2,0.2-0.3,0.3s-0.1,0.5-0.5,0.3c-0.2-0.1-0.4-0.1-0.6-0.3
	c-0.1-0.1-0.2-0.2-0.3-0.3c-0.3-0.1-0.6-0.3-0.8-0.6c-0.4-0.3-0.7-0.7-0.9-1.2c0-0.2,0-0.3,0.2-0.4c0.3-0.2,0.6-0.4,0.9-0.6
	c0.5-0.3,1-0.6,1.5-0.9c0.6-0.3,1.2-0.7,1.8-0.9C8,48.5,8.4,48.3,8.8,48c0.4-0.3,0.9-0.6,1.4-0.9c0.3-0.2,0.7-0.4,1.1-0.5
	c0.2-0.1,0.3,0,0.5,0.1c0.3,0.3,0.6,0.5,1,0.7C12.9,47.3,12.9,47.4,12.9,47.5z"/>
<path class="st0" d="M13.4,51.3c-0.4,0-0.5-0.4-0.8-0.4c0-0.1,0.1-0.1,0.1-0.2l1.3-1.6c0.1-0.1,0.2-0.2,0-0.4s-0.3-0.1-0.4,0.1
	c-0.4,0.4-0.8,0.8-1.2,1.2c-0.3,0.3-0.6,0.7-0.9,1c-0.1,0.1,0,0.1,0,0.2c0.4,0.3,0.8,0.5,1.2,0.7c0.3,0.1,0.3,0.3,0.1,0.5
	c-0.6,0.8-1.1,1.5-1.7,2.2c-0.3,0.3-0.5,0.6-0.8,1s-0.4,0.4-0.9,0.2s-0.7-0.3-1.1-0.5c-0.5-0.3-1-0.6-1.6-0.8c-0.1,0-0.1-0.2,0-0.3
	c0.7-0.6,1.3-1.4,2-2c0.5-0.4,0.9-0.8,1.3-1.4c0.2-0.3,0.6-0.4,0.8-0.6c0.5-0.6,1.1-1.2,1.8-1.6c0.2-0.2,0.5-0.3,0.7-0.5
	c0.2-0.3,0.6-0.3,0.9-0.1c0.1,0,0.1,0.1,0.1,0.1c0.2,0.2,0.5,0.2,0.7,0.4s0.3,0.3,0.1,0.5c-0.3,0.5-0.7,1-1.1,1.4
	c-0.2,0.2-0.4,0.5-0.5,0.8C13.5,51.2,13.5,51.3,13.4,51.3z"/>
<path class="st0" d="M22.8,48.9c0.4,0,0.7,0,1.1-0.1c0.1,0,0.3,0,0.3,0.1c0.2,0.3,0.4,0.7,0.5,1c0.1,0.1,0.2,0.2,0.2,0.4
	c0.3,0.7,0.7,1.3,1,2c0,0.1,0.1,0.2-0.1,0.2c-0.3,0.1-0.5,0.2-0.7,0.4c-0.1,0.1-0.1,0-0.2-0.1c-0.3-0.6-0.6-1.2-0.9-1.9
	c-0.1-0.3-0.3-0.6-0.5-0.9c-0.1-0.1-0.1-0.3-0.3-0.2s0,0.2,0,0.3c0.6,1.6,1,3.2,1.6,4.8c0.1,0.3,0.2,0.6,0.3,0.9
	c0,0.1,0.1,0.3,0.2,0.2s0.5,0.1,0.5-0.3c0-0.3-0.1-0.5-0.3-0.8c-0.2-0.4-0.4-0.7-0.5-1.1c-0.1-0.1,0-0.2,0.1-0.3h0.1
	c0.3-0.1,0.5-0.4,0.7-0.3c0.3,0.1,0.3,0.4,0.5,0.6c0.6,0.7,1,1.5,1.3,2.4c0.1,0.3,0,0.4-0.2,0.5c-0.8,0.3-1.5,0.5-2.3,0.7
	c-0.4,0.1-0.8-0.1-1.2,0c-0.1,0-0.1-0.1-0.1-0.2c-0.3-0.8-0.5-1.6-0.8-2.4c-0.3-0.8-0.4-1.6-0.6-2.5c-0.1-0.5-0.2-1-0.3-1.6
	c0-0.2,0.1-0.4,0-0.6c-0.1-0.2-0.2-0.4-0.2-0.7C22.2,49.1,22.2,48.9,22.8,48.9z"/>
<path class="st0" d="M37.4,51c-0.1,0-0.2,0-0.3-0.1c-0.4-0.2-0.8-0.5-1.3-0.7c-0.8-0.4-1.5-0.8-2.2-1.2s-1.5-0.8-2.3-1.2
	s-1.4-0.8-2-1.2c-0.2-0.1-0.1-0.3,0-0.3c0.4-0.3,0.7-0.7,1-1.1c0.1-0.2,0.4-0.2,0.6-0.2c0.5,0.2,1,0.4,1.5,0.5c1,0.3,2,0.8,3,1
	c0.3,0.1,0.6,0.2,0.8,0.4c0.3,0.1,0.7,0.2,1.1,0.3c0.3,0.1,0.7,0.2,1,0.4c0.3,0.1,0.6,0.2,0.9,0.3c0.2,0,0.2,0.2,0.3,0.3
	s0.1,0.2,0,0.3c-0.4,0.4-0.7,0.9-1.1,1.3s-0.5,0.7-0.7,1.1C37.6,51,37.5,51,37.4,51z"/>
<path class="st0" d="M14.4,57.4c-0.4,0-0.9-0.1-1.3-0.3c-0.4-0.1-0.8-0.3-1.2-0.5c-0.2-0.1-0.5-0.3-0.7-0.4c-0.2-0.1-0.2-0.3,0-0.5
	c0.3-0.2,0.5-0.6,0.6-1c0-0.1,0.1-0.1,0.2-0.2c0.9-1.1,1.6-2.3,2.4-3.5c0.1-0.1,0.2-0.2,0.3-0.4c0.1-0.1,0.2-0.2,0.2-0.4
	c0-0.1,0-0.1,0-0.2c0.5-0.4,0.7-1,1.1-1.4c0.2-0.1,0.3-0.2,0.4,0c0.2,0.2,0.5,0.3,0.7,0.3c0.5,0,0.5,0.1,0.4,0.6
	c-0.2,0.9-0.6,1.7-0.9,2.6s-0.7,1.6-0.9,2.4s-0.7,1.8-1,2.7C14.7,57.4,14.5,57.4,14.4,57.4z"/>
<path class="st0" d="M205.2,14.2c0.1-0.4,0.2-0.8,0.4-1.2c0.2-0.5,0.5-0.9,0.9-1.3c0.6-0.5,1-0.3,1.5,0c0.3,0.2,0.6,0.4,0.8,0.7
	c0.2,0.2,0.5,0.4,0.8,0.6c0.2,0.1,0.4-0.1,0.6-0.3c0.3-0.4,0.6-0.7,1-1c0.2-0.2,0.3-0.2,0.4,0.1s0.2,0.5-0.1,0.8
	c-0.1,0.1-0.1,0.2-0.1,0.3c0,0.2-0.1,0.5-0.3,0.6c-0.1,0.1-0.2,0.1-0.2,0.3c-0.2,0.4-0.5,0.7-0.9,0.9c-0.2,0.1-0.4,0.1-0.6-0.1
	c-0.3-0.2-0.5-0.4-0.8-0.5c-0.3-0.1-0.5-0.3-0.6-0.6c-0.1-0.4-0.5-0.5-0.8-0.4c-0.2,0.1-0.3,0.2-0.4,0.3c-0.2,0.3-0.4,0.6-0.6,0.9
	c-0.1,0.2-0.4,0.4-0.6,0.4C205.3,14.6,205.1,14.5,205.2,14.2z"/>
<path class="st2" d="M19.6,16.6c0,0.5,0,1,0.1,1.5c0,0.5,0,1,0.1,1.5c0,0.4,0,0.7-0.1,1.1c-0.1,0.7-0.1,1.4,0,2.1
	c0.1,0.4-0.1,0.6-0.5,0.7c-0.7,0.1-1.4,0.3-2,0.6c-0.2,0.1-0.4,0.3-0.5,0.4c-0.1,0.2-0.3,0.1-0.4,0.1s0-0.2,0-0.2
	c0.1-0.3-0.1-0.4-0.3-0.6c-0.3-0.3-0.5-0.7-0.5-1.1c0-0.1,0-0.1-0.1-0.1c-0.3-0.2-0.4-0.5-0.5-0.9c0-0.1,0-0.2-0.2-0.2
	s-0.1-0.1-0.1-0.1c0.1-0.5-0.4-0.8-0.6-1.1c-0.1-0.2-0.1-0.4,0-0.6c0.2-0.4,0.4-0.7,0.5-1.1c0.2-0.7,0.7-0.7,1.2-0.9
	c0.3-0.1,0.6-0.2,1-0.3c0.5-0.2,1.1-0.3,1.6-0.3C18.8,16.7,19.2,16.7,19.6,16.6z"/>
<path class="st2" d="M20.5,16.6c0.5,0,0.9,0.1,1.4,0.2c1,0.1,1.9,0.5,2.8,0.6c0.3,0,0.6,0.2,0.7,0.5c0.2,0.5,0.5,1,0.7,1.5
	c0.1,0.1,0.2,0.3,0,0.4H26c0.1,0.4-0.3,0.5-0.5,0.8s-0.3,0.7-0.5,1c-0.1,0.1-0.2,0.2-0.3,0.3c-0.1,0.1-0.2,0.2-0.3,0.3
	c0,0.4-0.4,0.6-0.5,0.9s-0.4,0.6-0.6,0.9c-0.1,0.1-0.1,0.1-0.2,0.1c-0.5-0.3-1.2-0.4-1.7-0.7c-0.2-0.1-0.4-0.1-0.6-0.1
	c-0.2,0-0.4-0.1-0.3-0.3c0-0.7-0.2-1.3-0.1-2s0-1.4,0.1-2.1c0-0.4-0.1-0.8-0.1-1.1c0-0.3,0.1-0.7,0.1-1
	C20.4,16.6,20.5,16.6,20.5,16.6z"/>
<path class="st2" d="M26.4,31.5c0.2-0.2,0.5,0,0.7,0c1.1,0,2.3,0,3.4,0c0.2,0,0.4-0.2,0.6,0h0.1c0.5-0.4,0.3,0.1,0.4,0.3
	c0.5,1,0.8,2.2,1.4,3.2c0.1,0.2,0.2,0.4,0.3,0.7c0.2,0.6-0.1,1-0.3,1.5c0,0.1-0.1,0-0.2,0c-0.3-0.3-0.8-0.4-1.2-0.6
	c-0.1,0-0.1,0-0.2,0c-0.2,0.1-0.2,0.1-0.2-0.1s-0.1-0.1-0.2-0.2c-0.4-0.1-0.8-0.3-1.1-0.6c-0.3-0.3-0.7-0.5-1.1-0.5c0,0-0.1,0-0.1,0
	c-0.4-0.4-0.8-0.6-1.3-0.6c-0.4-0.1-0.7-0.4-0.7-0.8C26.7,32.9,26.6,32.2,26.4,31.5z"/>
<path class="st2" d="M29,26.2c-0.2,0-0.4,0-0.5,0.2c-0.1,0.1-0.3,0.2-0.5,0.2s-0.1,0-0.2,0.1c-0.2,0.3-0.7,0.3-1,0.5s-0.7,0.4-1,0.6
	s-0.2,0.1-0.3-0.1s-0.2-0.6-0.3-0.8c-0.1-0.2-0.2-0.4-0.3-0.6c-0.3-0.5-0.7-0.9-1-1.3c-0.1-0.1-0.1-0.3,0-0.4
	c0.6-0.8,1.1-1.7,1.6-2.6c0.3-0.6,0.7-1.1,1.1-1.6C27.3,22.3,28.3,24.2,29,26.2z"/>
<path class="st2" d="M27.5,18.8c0.1,0,0.2,0.1,0.2,0.1c0.6,0.3,1.2,0.7,1.7,1.2c0.5,0.6,1.1,1,1.5,1.5c0.6,0.6,1,1.3,1.3,2
	c0.1,0.2,0.1,0.4,0.3,0.5c0.2,0.3,0.1,0.4-0.2,0.5c-0.4,0.1-0.8,0.3-1.2,0.6c-0.2,0.1-0.5,0.1-0.5,0.4c0,0,0,0.1-0.1,0
	c-0.3-0.3-0.5,0-0.7,0.2s-0.3,0-0.3-0.2c-0.3-0.9-0.8-1.6-1.1-2.5c-0.1-0.2-0.2-0.4-0.3-0.6c-0.5-0.9-0.7-1.9-1.2-2.8
	c0-0.1-0.1-0.2,0-0.2c0.1-0.2,0.3-0.5,0.3-0.7C27.3,18.8,27.4,18.8,27.5,18.8z"/>
<path class="st2" d="M13.5,20.5c0.5,1,1,1.9,1.6,2.9c0.3,0.4,0.6,0.9,0.8,1.4c0,0.1,0.1,0.2-0.1,0.3s-0.3,0.5-0.5,0.6
	c-0.4,0.2-0.4,0.5-0.6,0.8c-0.1,0.4-0.2,0.8-0.3,1.2c-0.1,0.2-0.1,0.4-0.5,0.2s-0.6-0.5-1.1-0.3c-0.1,0-0.1,0-0.1-0.1
	c0-0.3-0.2-0.3-0.4-0.4c-0.4-0.1-0.8-0.3-1.1-0.7c0-0.1-0.1-0.1,0-0.2c0.5-1.2,0.9-2.4,1.5-3.6C12.9,21.9,13.2,21.2,13.5,20.5z"/>
<path class="st2" d="M10.5,26.1c-0.1,0-0.2-0.1-0.2-0.1c-0.1-0.1-0.2-0.1-0.3-0.1c-0.2,0-0.3,0-0.3-0.2s-0.3-0.1-0.4-0.2
	c-0.4-0.2-0.8-0.3-1.2-0.4c-0.3-0.1-0.4-0.4-0.7-0.5c-0.1,0,0-0.1,0-0.2c0.6-0.9,1.3-1.8,2.1-2.7c0.3-0.2,0.5-0.5,0.8-0.7
	c0.2-0.2,0.4-0.4,0.6-0.7c0.3-0.4,0.8-0.7,1.3-0.9c0.1,0,0.2-0.1,0.3-0.2c0.2-0.2,0.3-0.2,0.3,0.1c0,0.1,0,0.2,0.1,0.2
	c0.4,0.5,0.2,0.9-0.1,1.3c-0.5,0.8-0.6,1.7-1,2.5S11,25.1,10.6,26C10.6,26,10.6,26,10.5,26.1z"/>
<path class="st2" d="M9.8,31.3c0.3,0,0.5,0,0.8,0.1c0,0,0.1,0,0.1,0c0.3-0.2,0.6-0.1,0.8,0.2c0,0.1,0.1,0.1,0.1,0.2
	c0.3,0.8,0.5,1.6,0.6,2.5c0,0.1,0,0.2-0.1,0.2S12,34.6,12,34.7c-0.1-0.1-0.2-0.2-0.4-0.1s-0.4,0.2-0.5,0.3c-0.2,0.1-0.4,0.2-0.7,0.2
	c-0.1,0-0.1,0-0.2,0.1c-0.2,0.2-0.4,0.3-0.6,0.3c0,0-0.1,0-0.1,0c-0.2,0.3-0.6,0.3-0.8,0.4c-0.3,0.2-0.6,0.3-0.8,0.6
	c-0.3,0.2-0.6,0.1-0.9,0.3c-0.1,0-0.1-0.2-0.1-0.3c0.1-0.2,0.2-0.5,0.3-0.7c0.3-0.5,0.5-1.1,0.7-1.6c0.1-0.3,0.3-0.7,0.5-1
	c0.2-0.4,0.3-0.9,0.5-1.4c0.1-0.2,0.2-0.3,0.4-0.3C9.4,31.4,9.6,31.3,9.8,31.3z"/>
<path class="st2" d="M5.8,29.7C5.9,28.9,6,28,6.2,27.2c0-0.4,0.1-0.8,0.3-1.2c0.1-0.3,0.4-0.5,0.5-0.8c0.1-0.1,0.1,0,0.2,0
	C8,25.7,9,26.1,9.9,26.6c0.3,0.1,0.3,0.3,0.1,0.7c-0.5,1-0.9,2.1-1.4,3.2c0,0,0,0.1-0.1,0.1c-0.5-0.1-0.9-0.1-1.4,0.1
	c-0.2,0.1-0.4,0.1-0.6,0H6.5c-0.2-0.1-0.5,0.1-0.6-0.1C5.8,30.3,5.8,30,5.8,29.7z"/>
<path class="st2" d="M19.5,6.1c0.2,0.4,0.2,0.8,0.1,1.2c-0.1,0.3,0,0.6,0.1,0.9c0.1,0.1,0.1,0.2,0,0.3c-0.4,0.4-0.2,0.9-0.2,1.4
	c0.1,0.7,0.1,1.4,0,2.2c-0.1,0.4-0.1,0.7,0,1.1c0.1,0.3,0.1,0.7,0,1c0,0.2-0.1,0.3-0.3,0.3c-1.1,0.2-2.1,0.3-3.2,0.6
	c-0.2,0-0.2,0-0.1-0.2c0.4-0.9,0.8-1.8,1.2-2.7c0.2-0.7,0.5-1.3,0.8-2c0.5-1,0.9-2,1.2-3L19.5,6.1z"/>
<path class="st2" d="M34,30c0,0.2,0,0.3,0,0.3c0,0.4-0.1,0.4-0.4,0.4s-0.7-0.1-1.1,0c-0.1,0.1-0.3-0.1-0.5,0.1s-0.2-0.1-0.3-0.2
	c-0.4-1.2-1-2.3-1.4-3.5c0-0.1-0.1-0.2-0.2-0.3s-0.1-0.4,0.1-0.4c0.8-0.3,1.5-0.7,2.3-1.2c0.5-0.3,0.6-0.2,0.8,0.3s0.2,1.1,0.3,1.6
	c0.1,0.7,0.3,1.4,0.4,2.1C34,29.5,34,29.8,34,30z"/>
<path class="st2" d="M24.1,14.7c-0.6-0.2-1.1-0.3-1.7-0.4c-0.5-0.1-1-0.1-1.5-0.1c-0.5,0-0.5,0-0.5-0.5c0-0.8-0.1-1.7-0.1-2.6
	c0-0.2,0-0.4,0.1-0.7c0.1-0.2-0.1-0.4-0.1-0.6c0-0.6,0.1-1.2,0.1-1.8c0-0.3,0-0.5-0.1-0.8c-0.1-0.4-0.1-0.9,0-1.3
	C21.4,9,22.8,11.8,24.1,14.7z"/>
<path class="st2" d="M25.8,29.1c0-0.1,0-0.3,0-0.5s0-0.1,0.1-0.2l2.9-1.3c0.2-0.1,0.3-0.2,0.5-0.3c0.1,0.2,0.1,0.3,0.2,0.5
	c0.5,1.1,1,2.1,1.5,3.2c0.1,0.2,0.1,0.4-0.2,0.3c-0.5-0.2-1-0.1-1.4-0.2c0,0-0.1,0-0.2,0s-0.4,0-0.6,0c-0.4,0.1-0.8,0-1.1,0.1
	s-0.6-0.1-0.9-0.1c-0.1,0-0.2-0.1-0.3,0s-0.2,0.1-0.2-0.1C26.1,30.1,25.8,29.7,25.8,29.1z"/>
<path class="st2" d="M14.2,30.7c-0.3,0-0.6,0-0.8,0s-0.3-0.3-0.5-0.4c-0.1-0.2-0.2-0.5-0.3-0.8c-0.2-0.3-0.3-0.5-0.5-0.7
	c-0.1-0.1-0.3-0.1-0.3,0.1c-0.1,0.2-0.1,0.4-0.1,0.6c0,0.2-0.1,0.2-0.2,0.2c0,0-0.1,0-0.1,0c-0.2,0.1-0.4,0-0.5,0.2s0.1,0.3,0.2,0.4
	c0.2,0.4,0.2,0.4-0.2,0.5c-0.2,0.1-0.5,0-0.7-0.1c-0.1-0.1-0.4-0.1-0.5,0c-0.1,0.1-0.2,0.1-0.3,0c-0.1-0.1,0-0.1,0-0.2
	c0.4-1.1,1-2.1,1.4-3.2c0-0.1,0.1-0.2,0.2-0.1s0.4,0.1,0.6,0.3c0.1,0.1,0.2,0.1,0.3,0.1c0.2,0,0.4,0.2,0.5,0.3
	c0.2,0.1,0.4,0.2,0.6,0.3c0.4,0.1,0.6,0.4,1,0.4c0,0,0,0,0,0.1c-0.2,0.3,0.1,0.7-0.1,1c0,0.1,0.1,0.3,0.1,0.4S14,30.5,14.2,30.7z"/>
<path class="st2" d="M6.5,35.7c-0.2-0.5-0.1-0.9-0.5-1.2c0.2-0.8-0.5-1.5-0.4-2.3c0.1-0.6,0.2-0.9,0.8-0.8c0.5,0,1,0,1.4,0
	c0.5,0,0.6,0.1,0.3,0.5c-0.5,0.9-0.9,1.8-1.2,2.8C6.9,35,6.7,35.4,6.5,35.7z"/>
<path class="st2" d="M19.6,25.4c0.1,0.5,0,1-0.3,1.5c-0.1,0.2-0.2,0.3-0.4,0.3s-0.3,0.2-0.5,0.3s-0.2,0.1-0.3,0
	c-0.5-0.7-0.8-1.4-1.1-2.2c0-0.1,0.2-0.3,0.4-0.4c0.5-0.3,1-0.5,1.5-0.6c0.1,0,0.3-0.1,0.4-0.2c0.2-0.1,0.3,0,0.3,0.2
	C19.6,24.6,19.7,25,19.6,25.4z"/>
<path class="st2" d="M20.4,25.3c0-0.4,0.1-0.8,0.1-1.2c0-0.2,0.1-0.2,0.2-0.1c0.7,0.2,1.4,0.5,2,0.8c0,0,0.2,0,0.1,0.2
	c-0.2,0.3-0.2,0.7-0.5,0.9c-0.3,0.3-0.6,0.6-0.7,1c0,0.1,0,0.4-0.2,0.3s-0.5-0.1-0.5-0.4c0-0.1,0-0.2-0.2-0.2s-0.2-0.1-0.1-0.2
	C20.5,26.1,20.4,25.7,20.4,25.3z"/>
<path class="st2" d="M17.6,27.6c0,0.1-0.1,0.2-0.1,0.2C17.3,27.9,17.1,28,17,28c-0.2,0-0.4,0.2-0.4,0.4c0,0.1-0.1,0.2-0.1,0.2
	c-0.1,0.2-0.3,0.3-0.6,0.2c-0.1-0.1-0.3-0.1-0.4-0.2c-0.5-0.2-0.4-0.3-0.4-0.8c0.2-0.8,0.6-1.5,1.1-2.2c0.1-0.2,0.3-0.2,0.4,0
	c0.3,0.4,0.6,0.8,0.7,1.3c0,0.2,0.1,0.3,0.2,0.4C17.5,27.5,17.6,27.5,17.6,27.6z"/>
<path class="st2" d="M23.4,25.3c0.7,0.7,1.3,1.5,1.5,2.5c0,0.1,0.1,0.3-0.2,0.3c0,0-0.1,0.1-0.1,0.1c-0.1,0.2-0.4,0.2-0.6,0.1
	c0,0,0,0,0,0c-0.5-0.3-1-0.5-1.6-0.7c-0.2,0-0.2-0.1-0.1-0.3C22.5,26.6,23.2,26.1,23.4,25.3z"/>
<path class="st2" d="M33.6,35c-0.5-1-0.9-2-1.3-3.1c0-0.1,0-0.1-0.1-0.2c-0.2-0.3-0.1-0.5,0.2-0.4s0.8-0.1,1.2-0.1
	c0.3,0,0.3,0.1,0.3,0.3c-0.1,0.6-0.1,1.3-0.1,1.9C33.8,33.9,33.6,34.4,33.6,35z"/>
<path class="st2" d="M14.9,28.9c0.2,0.2,0.4,0.4,0.6,0.4c0.1,0,0.3,0.1,0.1,0.2c-0.2,0.2-0.4,0.5-0.5,0.7c0,0.1-0.1,0.2-0.3,0.2
	s-0.1-0.2-0.1-0.3C14.8,29.8,14.9,29.4,14.9,28.9z"/>
<path class="st2" d="M26.2,18.1l0.7,0.4c0.1,0,0.1,0.1,0,0.2s-0.2,0.3-0.3,0.4C26.4,18.7,26.3,18.4,26.2,18.1z"/>
<path class="st2" d="M13.5,19.1c-0.2-0.4-0.2-0.4,0.3-0.9C13.8,18.4,13.7,18.7,13.5,19.1z"/>
<path class="st3" d="M14.1,31.5c-0.1-0.1-0.3-0.1-0.4-0.2C14.1,31.3,14.1,31.3,14.1,31.5z"/>
<path class="st2" d="M19,50.2c0,0.5-0.1,1-0.1,1.5s-0.1,1-0.2,1.5c-0.1,0.8-0.1,1.6-0.3,2.4c0,0.1,0,0.3,0,0.4
	c-0.1,0.3-0.4,0.5-0.7,0.4c0,0,0,0,0,0c-0.1-0.1-0.1-0.2-0.1-0.3c0-0.4,0.1-0.8,0.3-1.2c0.2-1,0.4-2,0.6-2.9c0.1-0.5,0.2-1,0.3-1.5
	C18.8,50.3,18.8,50.3,19,50.2L19,50.2z"/>
<path class="st2" d="M236.3,36.7c-0.8,0-1.4-0.6-1.4-1.4s0.6-1.4,1.4-1.4c0.8,0,1.4,0.6,1.4,1.4c0,0.8-0.5,1.4-1.3,1.4
	C236.4,36.7,236.4,36.7,236.3,36.7z"/>
<path class="st2" d="M207.4,26.2H207c-0.6,0-0.7-0.2-0.8-0.7c-0.1-0.8,0.1-1.5,0.4-2.2c0.1-0.2,0.2-0.3,0.3-0.5
	c0.2-0.3,0.3-0.6,0.4-0.9c0-0.2,0.2-0.3,0.4-0.3c0,0,0,0,0,0c0.2,0,0.5,0.1,0.6,0.4c0,0.1,0,0.2-0.1,0.3c-0.2,0.1-0.2,0.4-0.1,0.5
	c0.2,0.3,0.4,0.7,0.3,1.1c0,0.5,0.1,1,0.3,1.4c0,0.2,0,0.4,0,0.5c0,0.3-0.3,0.5-0.7,0.5L207.4,26.2z"/>
<path class="st2" d="M225.9,17.2c0.5,0,1,0,1.5,0.1c0.2,0,0.5,0.2,0.6,0.4c0.1,0.3,0.3,0.5,0.6,0.7c0.9,0.6,1.6,1.4,2.1,2.3
	c0.2,0.4,0.6,0.6,1,0.8c0.5,0.2,0.9,0.6,1,1.2c0,0.1,0,0.2-0.1,0.3c-0.2,0.4-0.3,0.9-0.3,1.4c0.1,0.4,0.1,0.8,0,1.2
	c-0.1,0.3,0,0.6,0.2,0.9c0.3,0.4,0.4,1,0.3,1.4c0,0.5-0.4,0.9-0.4,1.3s-0.2,1.1-0.3,1.6c-0.1,0.5-0.3,1.1-0.6,1.5
	c-0.7,0.8-1.6,1.5-2.6,1.9c-0.6,0.3-1.3,0.5-1.9,0.7c-0.2,0.1-0.5,0-0.7-0.1c-0.4-0.3-0.9-0.4-1.4-0.3c-0.5,0.1-0.9-0.1-1.3-0.4
	c-0.1-0.1-0.3-0.2-0.5-0.2c-0.9-0.1-1.7-0.7-2.2-1.4c-0.3-0.4-0.5-0.8-0.7-1.2c-0.2-0.5-0.3-1.1-0.2-1.7c0-0.5,0-1-0.2-1.5
	c-0.1-0.6-0.1-1.2,0-1.9c0-0.2,0.1-0.4,0.1-0.6c0.1-0.3-0.1-0.6-0.3-0.8c-0.5-0.4-0.6-0.7-0.1-1.3c0.5-0.8,0.9-1.6,1.2-2.5
	c0.1-0.5,0.4-0.9,0.8-1.2c0.2-0.2,0.3-0.4,0.5-0.6c0.1-0.1,0.2-0.3,0.3-0.3c0.6-0.3,1-0.9,1.7-1.2c0.4-0.2,0.9-0.4,1.4-0.5
	C225.4,17.2,225.7,17.2,225.9,17.2z"/>
<path class="st2" d="M64.4,30c0.1-0.7,0.1-1.4-0.2-2c-0.1-0.6-0.1-1.2,0.1-1.8c0.1-0.2,0.1-0.5,0.1-0.7c0-0.2-0.1-0.5-0.3-0.6
	c-0.6-0.4-0.6-0.7-0.2-1.4c0.5-0.8,0.9-1.6,1.2-2.5c0.1-0.5,0.4-0.9,0.8-1.2c0.2-0.2,0.4-0.4,0.5-0.7c0.1-0.3,0.4-0.3,0.6-0.5
	c0.6-0.6,1.3-1,2.1-1.3c0.6-0.2,1.3-0.2,2-0.1c0.2,0,0.5,0,0.7,0.1c0.2,0,0.4,0.2,0.5,0.4c0.2,0.3,0.4,0.6,0.8,0.8
	c0.7,0.5,1.3,1.2,1.8,1.9c0.3,0.5,0.7,0.9,1.3,1.1c0.5,0.2,0.9,0.6,0.9,1.2c0,0.1,0,0.3-0.1,0.4c-0.2,0.4-0.3,0.7-0.3,1.1
	c-0.1,0.5,0.2,0.9,0,1.4c-0.1,0.3,0,0.6,0.2,0.8c0.4,0.5,0.5,1.1,0.3,1.7c-0.1,0.4-0.3,0.7-0.4,1.1c-0.1,0.6-0.2,1.1-0.3,1.7
	c-0.1,0.5-0.3,1-0.6,1.4c-0.7,0.8-1.5,1.4-2.4,1.9c-0.7,0.3-1.4,0.6-2.1,0.8c-0.2,0.1-0.5,0-0.7-0.1c-0.4-0.3-0.9-0.4-1.4-0.3
	c-0.4,0.1-0.7,0-1-0.3c-0.3-0.2-0.6-0.4-1-0.4c-0.8-0.2-1.5-0.7-1.9-1.4c-0.3-0.4-0.5-0.8-0.7-1.2C64.5,30.8,64.4,30.4,64.4,30z"/>
<path class="st2" d="M112.6,34.9c-0.2,0-0.3,0-0.4-0.1c-0.4-0.3-1-0.4-1.5-0.3c-0.4,0.1-0.9-0.1-1.2-0.4c-0.2-0.1-0.4-0.2-0.6-0.3
	c-0.9-0.2-1.7-0.7-2.1-1.5c-0.4-0.5-0.6-1-0.8-1.6c0-0.4,0-0.7,0-1.1c0.1-0.4,0-0.8-0.1-1.2c-0.2-0.8-0.2-1.7,0-2.5
	c0.1-0.5,0.2-0.9-0.3-1.2s-0.4-0.8,0-1.3c0.5-0.6,0.8-1.3,1-2.1c0.1-0.5,0.4-1,0.7-1.4c0.3-0.2,0.5-0.5,0.6-0.8
	c0.1-0.2,0.4-0.2,0.5-0.4c0.6-0.6,1.3-1,2.2-1.3c0.7-0.2,1.4-0.3,2.1-0.1c0.2,0,0.5,0,0.7,0.1c0.3,0,0.5,0.2,0.6,0.5
	c0.1,0.2,0.3,0.4,0.5,0.5c0.7,0.4,1.3,1,1.8,1.6c0.2,0.4,0.4,0.7,0.7,1c0.3,0.3,0.6,0.5,0.9,0.6c0.4,0.2,0.7,0.6,0.8,1.1
	c0,0.1,0,0.2,0,0.3c-0.4,0.6-0.5,1.4-0.3,2.1c0,0.1,0,0.1,0,0.2c-0.2,0.4-0.1,0.9,0.2,1.2c0.4,0.6,0.4,1.4,0.1,2
	c-0.3,0.7-0.4,1.4-0.5,2.1c-0.1,0.8-0.4,1.5-0.9,2c-1.1,1.1-2.6,1.9-4.1,2.3l-0.2,0.1L112.6,34.9z"/>
<path class="st2" d="M134.4,34.9c-0.5,0-1-0.1-1.4-0.3c-0.2-0.1-0.3-0.3-0.3-0.5c0-0.6,0.1-1.2,0.2-1.7c0-0.3,0-0.6-0.3-0.8
	c-0.2,0-0.3-0.2-0.2-0.4c0-0.1,0.1-0.1,0.1-0.2c0.3-0.3,0.3-0.8,0.1-1.2c-0.1-0.5,0-1,0.1-1.5c0.1-0.4,0.1-0.8-0.3-1.1
	c-0.2-0.1-0.2-0.3-0.1-0.5c0-0.1,0.1-0.1,0.1-0.1c0.2-0.2,0.3-0.5,0.3-0.8c0-0.7,0.3-1.3-0.2-1.9c-0.1-0.1-0.1-0.3,0-0.4
	c0.1-0.3,0.3-0.5,0.4-0.7c0.4-0.4,0.9-0.4,1.4-0.2c0.2,0.1,0.4,0.1,0.6,0c0.5-0.2,1.1,0,1.6,0.3c0.5,0.4,1,0.8,1.5,1.1
	c0.1,0.1,0.2,0.1,0.2,0.2c0.4,0.7,0.8,1.4,1.1,2.1c0.1,0.6,0.3,1.3,0.5,1.9c0,0.2,0,0.5-0.1,0.7c-0.2,0.5-0.4,1.1-0.4,1.7
	c0,0.1-0.1,0.2-0.1,0.3c-0.2,0.3-0.3,0.6-0.4,0.9c-0.1,0.3-0.2,0.7-0.5,0.9c-0.4,0.4-0.5,0.9-0.9,1.3c-0.4,0.5-1,0.8-1.6,0.8
	C135.3,34.7,134.8,34.8,134.4,34.9z"/>
<path class="st2" d="M199.2,45.6c0.3,0,0.6,0.1,0.8,0.1c0.1,0,0.2,0.1,0.3,0.1c0.2,0.4,0.6,0.5,0.8,0.8c0.3,0.3,0.5,0.5,0.8,0.9
	c0.1,0.3,0.4,0.4,0.6,0.6c0.2,0.1,0.4,0.3,0.5,0.6c0,0.1,0,0.2,0,0.3c-0.1,0.4-0.2,0.8-0.2,1.2c0,0.4,0.1,0.8,0.3,1.1
	c0.1,0.2,0.1,0.4,0,0.6c-0.2,0.5-0.3,1-0.4,1.6c-0.1,0.5-0.4,1-0.9,1.3c-0.6,0.5-1.4,0.8-2.1,1c-0.1,0-0.2,0-0.3,0
	c-0.3-0.3-0.6-0.2-1-0.2c-0.1,0-0.2,0-0.3,0c-0.3-0.2-0.7-0.3-1-0.5c-0.8-0.4-1.4-1.2-1.3-2.1c0-0.4-0.1-0.8-0.1-1.2
	c0-0.4,0-0.9,0.1-1.3c0-0.1,0-0.3-0.2-0.4c-0.2-0.1-0.3-0.3-0.2-0.5c0,0,0-0.1,0.1-0.1c0.3-0.6,0.6-1.2,0.9-1.8
	c0.5-0.9,1.3-1.6,2.3-1.9C198.8,45.7,199,45.6,199.2,45.6z"/>
<path class="st2" d="M58.3,48.6c0-0.3,0.1-0.5-0.3-0.5c-0.1,0-0.1-0.1-0.1-0.2c0.2-0.4,0.1-0.8,0.3-1.1c0.1-0.4,0.5-0.7,1-0.6
	c0,0,0,0,0,0c0.8,0.1,1.5,0.6,1.7,1.4c0.1,0.3,0.1,0.7,0.2,1c0,0.1,0,0.2,0,0.3c-0.3,0.6-0.6,1.2-1.4,1.3c-0.2,0-0.4,0.2-0.6,0
	s-0.2,0.1-0.4,0c-0.4-0.1-0.6-0.5-0.6-0.9C58.3,49,58.3,48.8,58.3,48.6z"/>
<path class="st2" d="M50.6,55.5c-0.5,0-0.9-0.1-1.4-0.3c-0.2-0.1-0.4-0.3-0.3-0.5c0,0,0,0,0-0.1c0.1-0.2,0.1-0.5,0.2-0.7
	c0-0.2,0-0.3-0.1-0.5c-0.2-0.2-0.2-0.5,0-0.8c0.2-0.2,0.2-0.5,0.1-0.8c-0.2-0.5,0.1-1,0.6-1.2c0.2-0.1,0.4-0.1,0.5,0
	c0.3,0.1,0.5,0.1,0.8,0.1c0.4,0,0.7,0.2,0.8,0.5c0.2,0.4,0.3,0.9,0.4,1.4c0.2,0.8,0.1,1.6-0.3,2.3c-0.2,0.5-0.6,0.6-1,0.6
	C50.9,55.5,50.8,55.5,50.6,55.5z"/>
<path class="st2" d="M50.4,49.9c-0.3-0.1-0.6,0.1-0.9-0.1c-0.1-0.1-0.2-0.1-0.2-0.2c0-0.4-0.1-0.9-0.2-1.3c0-0.2,0-0.5,0.1-0.7
	c0.1-0.2,0.1-0.5,0-0.7c-0.1-0.4,0.2-0.7,0.6-0.8c0.1,0,0.2,0,0.3,0c0.2,0,0.4,0,0.6,0c0.4-0.1,0.8,0.1,1.1,0.4
	c0.2,0.3,0.6,0.6,0.5,1.1c0.1,0.5,0,1-0.2,1.5c-0.2,0.4-0.5,0.7-0.9,0.8C50.9,49.8,50.6,49.9,50.4,49.9z"/>
<path class="st2" d="M69.2,50.7c-0.7,0-0.9-0.5-0.7-1.3c0.2-0.5,0.4-0.8,0.6-1.3c0.1-0.2,0.2-0.1,0.4-0.1s0.2,0.2,0.1,0.3
	c-0.1,0.1-0.1,0.3,0,0.5c0,0,0,0,0,0c0.2,0.1,0,0.4,0.1,0.6c0.1,0.3,0.2,0.5,0.2,0.8c0,0.3,0,0.4-0.3,0.4
	C69.4,50.7,69.3,50.7,69.2,50.7z"/>
<path class="st2" d="M164.2,50.7c-0.4,0-0.8-0.3-0.8-0.7c0-0.1,0-0.2,0.1-0.4c0.2-0.5,0.5-0.9,0.7-1.4c0.1-0.2,0.3-0.2,0.4-0.1
	s0.2,0.2,0,0.3c-0.1,0.1-0.1,0.2,0,0.3c0.3,0.4,0.2,0.9,0.4,1.4S164.8,50.7,164.2,50.7z"/>
<path class="st2" d="M108.1,50.7c-0.3,0-0.6,0-0.7-0.2c-0.1-0.3-0.1-0.5-0.1-0.8c0.1-0.6,0.5-1,0.7-1.5c0.1-0.2,0.3-0.1,0.4-0.1
	s0.2,0.2,0,0.3c-0.1,0.1-0.1,0.2-0.1,0.3c0.3,0.3,0.2,0.8,0.3,1.2C109,50.6,108.9,50.7,108.1,50.7z"/>
<path class="st2" d="M28.6,47.7c0.9,0.5,1.7,1.1,2.4,1.9c0.1,0.1,0.3,0.2,0,0.4s-0.2,0.1-0.4-0.1c-0.3-0.3-0.6-0.6-0.9-0.9l-1.1-1
	C28.5,47.9,28.5,47.8,28.6,47.7z"/>
<path class="st2" d="M5.1,51.5c0-0.1,0.1-0.2,0.2-0.3c1-0.7,2.1-1.3,3.2-1.9c0.2-0.1,0.5-0.2,0.7-0.4c0.4-0.3,0.8-0.6,1.1-0.8
	c0.3-0.2,0.7-0.3,1-0.6c0.1-0.1,0.2,0,0.4,0.1s0,0.2-0.1,0.3c-0.4,0.3-0.8,0.6-1.2,0.9c-0.6,0.4-1.1,0.9-1.7,1.2
	c-0.9,0.5-1.7,1.2-2.6,1.7c-0.4,0.3-0.6,0.3-0.8,0C5.2,51.7,5.1,51.6,5.1,51.5z"/>
<path class="st2" d="M9.2,54c0-0.1,0-0.2,0.1-0.3c0.4-0.4,0.8-0.8,1.2-1.3c0.2-0.2,0.6-0.1,0.7,0.1c0,0.1,0,0.1-0.1,0.1
	c-0.5,0.5-1,1.1-1.4,1.6c-0.1,0.1-0.1,0.1-0.2,0S9.1,54.2,9.2,54z"/>
<path class="st2" d="M31.2,45.9c0.4,0,0.8,0.1,1.2,0.3c1.3,0.6,2.5,1.2,3.8,1.7c0.4,0.2,0.7,0.4,1.1,0.6c0.1,0,0.2,0.2,0.1,0.3
	c0,0,0,0,0,0c-0.1,0.2-0.1,0.4-0.3,0.4s-0.3,0.4-0.4,0c0-0.1-0.3-0.2-0.4-0.3c-1-0.3-2-0.9-3-1.3c-0.4-0.1-0.9-0.3-1.3-0.6
	c-0.4-0.3-0.8-0.4-1.2-0.6c-0.2-0.1-0.1-0.3,0-0.4S31.1,46,31.2,45.9z"/>
<path class="st2" d="M16.4,49.5c0.1,0.1,0.1,0.1,0.1,0.2c-0.3,0.8-0.6,1.7-1,2.5c-0.4,0.7-0.7,1.4-1,2.1c-0.2,0.5-0.5,0.9-0.7,1.4
	c0,0.2-0.2,0.1-0.3,0.1c-0.1-0.1-0.3-0.2-0.4-0.2c-0.1,0-0.1-0.2-0.1-0.3c0.1-0.4,0.3-0.7,0.5-1c0.4-0.7,0.7-1.4,1.2-2.1
	c0.5-0.8,1-1.7,1.6-2.5C16.4,49.6,16.4,49.5,16.4,49.5z"/>
<path class="st0" d="M237.3,36.2c-0.5,0.1-0.5,0.1-1.1-0.8c-0.1,0.3-0.1,0.6,0.2,0.8h-0.8c0.5-0.4,0.2-1,0.3-1.6
	c0-0.1-0.1-0.1-0.2-0.1s-0.1-0.1-0.1-0.1s0-0.1,0.1-0.1c0.4,0.2,0.7-0.1,1.1,0c0.2,0,0.3,0.1,0.3,0.3s0,0.4-0.2,0.5
	s-0.2,0.1-0.1,0.3C236.9,35.8,237.1,36,237.3,36.2z"/>
<path class="st2" d="M236.1,34.9c0-0.1-0.1-0.4,0.2-0.4s0.3,0.1,0.3,0.3s-0.2,0.4-0.4,0.4S236.2,34.9,236.1,34.9z"/>
</svg>
