<?xml version="1.0" encoding="utf-8"?>
<!-- Generator: Adobe Illustrator 21.1.0, SVG Export Plug-In . SVG Version: 6.00 Build 0)  -->
<svg version="1.1" id="Layer_1" xmlns="http://www.w3.org/2000/svg" xmlns:xlink="http://www.w3.org/1999/xlink" x="0px" y="0px"
	 viewBox="0 0 181 34.8" style="enable-background:new 0 0 181 34.8;" xml:space="preserve">
<style type="text/css">
	.st0{fill:#478545;}
	.st1{fill:#A1CF6B;}
	.st2{fill:#FFFFFF;}
</style>
<title>Grocery</title>
<path class="st0" d="M68.8,26.8c-2.5,4.5-5,7.9-10,7.1c-3.3-0.5-4-3.3-4.7-6.9c-2.9,4.3-6,7-10.9,7c-5.1,0-8-2.5-9.4-7.2
	c-1.3,0.2-1.4,1.4-1.9,2.2c-2.7,4.1-7.8,6-12.5,4.7c-3.9-1-6.3-4.5-6.5-9.7c0-1.9,0.1-3.3-2.7-3.3S6.9,22,7,24.2
	c0,2.4-0.3,4.8-0.2,7.1c0.1,3-2.1,2.3-3.8,2.4c-1.9,0.2-2.6-0.4-2.5-2.5C1,23.5,1.5,15.7,1.8,7.9c0.1-2.1,0.8-2.7,2.8-2.7
	c3.5,0.2,7,0.2,10.5,0c3.2-0.3,4.1,1,3.3,3.9c-0.1,0.4-0.2,0.8-0.4,1.7c3.5-1,6.6-1.8,9.9-0.8c3.6,1.1,5,4,6.1,7.2
	c4.1-6.6,7.9-8.6,13.4-7.5c4.1,0.8,6.3,3.4,7.4,9.3c3.2-6.8,7.3-11.2,15.4-8.7c0-2,0.1-3.7,0-5.4C70,2.3,71,1.4,73.7,1.4
	s3.4,0.9,3.2,3.5c-0.6,8.7-1.1,17.4-1.3,26.2c-0.1,3.4-2.2,2.6-4.1,2.8c-2.4,0.2-3-0.8-2.7-3C68.9,29.5,68.9,28.2,68.8,26.8z
	 M40.1,22.8c-0.1,0.9-0.1,1.8,0,2.7c0.4,1.8,0.8,3.7,3.1,3.9s3.5-1.3,4.2-3.3c1-3,1.2-6.3,0.3-9.4c-0.4-1.4-1.1-2.5-2.7-2.6
	c-1.5-0.2-3,0.6-3.6,2C40.5,18.3,40,20.5,40.1,22.8L40.1,22.8z M27.3,21c0-0.9,0.1-1.8,0-2.7c-0.1-1.9-0.6-3.7-2.8-4.1
	c-2.5-0.4-3.7,1.3-4.4,3.4c-0.9,2.9-1,6.1-0.4,9.1c0.1,1.4,1.2,2.6,2.6,2.7c1.5,0.3,3-0.4,3.7-1.8C27,25.6,27.5,23.3,27.3,21z
	 M68,13.8c-2.9,0-4.7,1.1-5.9,3.1c-1.4,2.5-1.9,5.4-1.7,8.2c0,1,0,2.2,1.2,2.6s1.9-0.4,2.6-1.2c2.5-3.1,4.3-6.7,5.2-10.5
	C70,14.2,68.8,13.9,68,13.8z M18.8,10c-3.8,0-6.7,0-9.6,0C8.7,10,8,10,7.9,10.7c-0.3,1.8-1.4,4.5,0.2,5.3c1.6,0.8,4.5,1.5,6.2-0.7
	C15.5,13.7,16.9,12.2,18.8,10z"/>
<path class="st1" d="M115.7,27.3c-6.7,8.6-11,9.2-14.6,2.1c-4.8,6-11.5,4.2-17.7,4.4c-1.4,0.1-1.7-0.8-1.7-2
	c0.4-8.3,0.9-16.5,1.3-24.8c0.1-1.6,1-1.8,2.3-1.8c3.1,0,6.1,0,9.2,0.1c3.1,0.1,5.8,1.2,6.8,4.5s0,5.6-3.5,7.9
	c-0.3,0.2-0.6,0.5-0.9,0.8c1.4,1,3,1.6,4.2,3c0.9-2.3,1.6-4.4,2.6-6.3c2.5-4.7,6.5-6.5,11.6-5.5c0.7,0.2,1.3,0.3,2,0.3
	c6.1-0.4,6.1-0.4,5.9,5.5c-0.2,5.2-0.6,10.4-0.7,15.6c-0.1,3.7-2.8,2.4-4.6,2.6c-2.5,0.3-2.4-1.2-2.1-3
	C115.7,29.6,115.7,28.5,115.7,27.3z M114.7,13.9c-3,0.2-4.8,1.3-5.9,3.5c-1.1,2.5-1.6,5.2-1.3,7.9c0,0.9-0.2,2,0.9,2.4
	s1.9-0.4,2.6-1.2c2.5-2.9,4-6.3,5.5-9.7C117.4,14.3,116.1,13.9,114.7,13.9L114.7,13.9z M88,26.5c-0.4,2,0.1,2.9,2,2.9
	c3.1,0,5-1.5,5.2-4.1S93.7,21,90.8,21C86.1,21.1,89.6,25.2,88,26.5L88,26.5z M88.7,14.1c-0.1,1.6-0.3,2.9,1.7,2.8
	c2.3-0.2,4.3-0.8,4.4-3.7c0.2-2.6-1.4-3.5-3.5-3.6C87.4,9.5,89.8,13,88.7,14.1L88.7,14.1z"/>
<path class="st1" d="M165.4,14.6c3.3-5.4,7.7-5.7,12.4-4.7c1.6,0.2,2.9,1.6,2.7,3.3c0,0.1,0,0.3-0.1,0.4c-0.2,1.9-0.7,2.5-2.5,1.5
	c-0.6-0.4-1.2-0.6-1.9-0.7c-1.7-0.1-4-1-4.8,1.2c-0.7,2,1.7,2.3,2.9,3.2c2.8,1.9,6,3.4,5.9,7.6s-2.8,7.4-7,7.7
	c-2.7,0.2-5.5,0.6-8-0.9c-1-0.6-1.8,0-2.5,0.3c-2.7,0.8-5.6,0.9-8.4,0.5c-1.8-0.2-3.5-1.3-4.4-2.9c-3.4-5.4-2.2-11,0.4-16.2
	c2.1-4.1,6.2-5.7,11-5.4C163.7,9.7,166,10.1,165.4,14.6z M154.4,22.7c-0.1,5.1,2.2,7.7,6.2,6.3c3-1.1,5.4-1.3,8.4,0
	c1.5,0.7,4.2,1.3,5.1-0.9s-2-2.3-3-3.5c-0.2-0.1-0.4-0.3-0.6-0.3c-3-1.6-5.6-3.6-5.1-7.6c0.1-1.1-0.5-1.4-1.5-1.9
	C158.6,12.6,154.6,15.8,154.4,22.7L154.4,22.7z"/>
<path class="st1" d="M129.6,34.1c-1.6,0.1-3.3-0.1-4.8-0.7c-2.3-1.1-1.7-3.2-1.3-4.7c0.6-2,2-0.3,3-0.1c0.5,0.1,1,0.5,1.6,0.6
	c1.8,0.1,4.3,1.2,5.1-1s-1.8-2.5-3.1-3.3c-2.9-1.9-5.9-3.4-5.7-7.7c0.1-3.2,1.4-5.6,4.3-6.8c3.1-1.4,6.8-1.3,9.8,0.3
	c1.5,0.8,1.1,2.7,0.5,4c-0.6,1.5-1.8,0.9-2.8,0.3c-0.4-0.3-0.8-0.4-1.2-0.5c-1.7-0.3-4-1.1-4.9,1s1.6,2.3,2.7,3.2
	c2.2,1.8,5.4,2.6,5.9,6C139.9,30.5,136.5,34.1,129.6,34.1z"/>
<path class="st1" d="M146.9,15.3c-0.2,5.1-0.4,10.1-0.7,15.2c-0.2,3-2.5,4.4-5.4,3.2c-0.8-0.3-1.2-1.1-1-1.9
	c0.8-6,0.4-11.9,0.5-17.9c0-2,0.3-4,3.3-3.9C147.2,10.2,147.2,10,146.9,15.3z"/>
<path class="st1" d="M147.7,4.7c0.6,3.1-1.3,3.5-4.2,3.5c-2.5,0-2.7-1.2-2.6-3.1c0.1-2.8,0.7-4.6,4.2-4.6
	C148.4,0.6,147.8,2.4,147.7,4.7z"/>
<polyline class="st1" points="89.2,9.5 88.5,29.2 85.1,30.6 87.1,19 88.5,9.5 "/>
<polygon class="st2" points="18.3,9.5 18.2,10 17.6,10.2 17.6,10.8 18.2,10.7 19,10.2 "/>
</svg>
