<?xml version="1.0" encoding="utf-8"?>
<!-- Generator: Adobe Illustrator 21.1.0, SVG Export Plug-In . SVG Version: 6.00 Build 0)  -->
<svg version="1.1" id="Layer_1" xmlns="http://www.w3.org/2000/svg" xmlns:xlink="http://www.w3.org/1999/xlink" x="0px" y="0px"
	 viewBox="0 0 137.7 128.6" style="enable-background:new 0 0 137.7 128.6;" xml:space="preserve">
<style type="text/css">
	.st0{fill:#005695;}
</style>
<title>Grocery</title>
<path d="M110.2,95.2c0.1-0.2,0.1-0.4,0.2-0.5c0.8-2,1.6-4,2.4-6.1c0.1-0.3,0.4-0.5,0.7-0.6c2-0.5,4-1,6-1.5c0.4-0.1,0.7-0.3,0.9-0.6
	c1-1.7,2.1-3.3,3.1-5c0.1-0.2,0.3-0.4,0-0.7c-3.1-2.8-6.1-5.5-9.2-8.3c-0.1,0.1-0.3,0.2-0.4,0.4c-4.3,4.7-8.3,9.6-12.1,14.8
	c-0.2,0.3-0.3,0.5-0.3,0.8c-0.3,2.4-0.6,4.9-0.8,7.4H77c0.1-1.4,0.3-2.8,0.8-4.2c0.8-2.4,0.8-2.4,3.2-3.2c1.4-0.4,2.8-0.9,4.1-1.4
	c0.2-0.1,0.4-0.2,0.6-0.4c3.1-5,6.2-10,9.3-15.1c2.4-3.8,4.5-7.7,6.3-11.7l0.3-0.6c-0.2,0.1-0.4,0.1-0.5,0.2
	c-5.1,2.2-10.3,4.4-15.4,6.7c-2.3,1-4.6,2.1-6.9,3.1c-0.3,0.1-0.6,0.2-0.9,0.2c-6.3-0.1-12.5-0.1-18.8-0.2c-0.4,0-0.8,0.2-1,0.6
	c-1.8,3.4-3.7,6.8-5.5,10.2c-0.2,0.3-0.2,0.8-0.1,1.1c0.7,1.5,1.6,2.9,2.7,4.1c0.8,1.1,1.8,2.1,2.5,3.3c1.5,2,1.5,4.8-0.1,6.7
	c-0.2,0.3-0.5,0.4-0.8,0.4l-22.3,0.2h-2.1l0.8-2.3c0.4-1.1,0.8-2.3,1.2-3.4c0.1-0.3,0.3-0.5,0.6-0.6c1.9-0.8,3.8-1.8,5.4-3.2
	c0.2-0.2,0.4-0.3,0.2-0.6c-1.9-4.1-3.7-8.2-5.6-12.3c0-0.1-0.1-0.2-0.2-0.3s-0.1,0-0.2,0.1c-3.2,3.6-6.5,7.3-9.7,11
	c-1.4,1.6-2.6,3.4-4,5c-0.2,0.3-0.3,0.6-0.2,0.9c0.5,1.7,1,3.4,1.5,5.1c0.1,0.2,0.1,0.4,0.2,0.6H0.6c0.9-2.4,1.3-4.8,2.6-7
	c0.9-1.5,2.4-2.5,4.1-2.7c0.2,0,0.4-0.2,0.6-0.3c3.3-4.3,6.3-8.8,9-13.5c0.1-0.2,0.2-0.5,0.1-0.8c-1.3-3.7-2.6-7.3-3.9-11
	c0-0.3-0.4-0.6-0.7-0.5c0,0-0.1,0-0.1,0c-1.1,0.2-2.2,0.6-3.1,1.2l-3.2,1.8l-0.1-0.1c0-0.1,0.1-0.3,0.1-0.4
	c4.1-9.4,7.5-18.9,10.4-28.7c0.1-0.3,0-0.6-0.2-0.8c-1.2-1.5-2.4-2.9-3.6-4.4c-0.4-0.6-0.8-1.3-1.1-1.9c-0.1-0.2-0.1-0.4-0.1-0.6
	c0.5-0.9,1-1.8,1.5-2.7c0.2-0.4,0.6-0.4,1-0.3c2.1,0.9,4.1,2,5.8,3.5l1.7,1.3l4.5-6.1c-0.5-0.2-0.9-0.3-1.4-0.3c-4.8,0-9.7,0-14.5,0
	c-1.1,0-1.5,0.3-1.8,1.3c0,0.2-0.1,0.3-0.1,0.5c-0.1,0.9,0,1-1,1.1c-1.3,0.1-2.6,0-3.9,0l0.9-6.5l9-0.7c0.1-0.9,0-1.8-0.4-2.6
	c-0.4-1.1-1-2.1-1.4-3.2s-0.8-2.4-1.2-3.6c0-0.2-0.1-0.4-0.1-0.6h0.7c4.2,0,8.4,0,12.6,0c0.4,0.1,0.8-0.2,0.9-0.6
	c0.2-0.5,0.4-0.9,0.6-1.3c0.2-0.5,0.8-0.8,1.3-0.8c3.4,0.1,6.8,0.3,10.2,0.2c5.4,0,10.8-0.9,15.8-2.8l1-0.4c0.9-0.5,1.9-0.5,2.8,0
	L54.5,6l-1,3.2c-0.2,0.6,0.1,1,0.8,0.8c0.3-0.1,0.7-0.3,0.9-0.5c0.3-0.2,0.6-0.4,0.9-0.6c0.1-0.1,0.2-0.1,0.4-0.2
	c0.2,0.8,0.3,1.5,0.4,2.2c0.6,3.9,0.9,7.9,1,11.9c0.1,3.4,0.2,6.8,0.4,10.2c0.1,1.9,0.4,3.7,0.6,5.6l60,0.3c0-1.9,0-3.7,0-5.5
	c0-0.6-0.1-1.2-0.2-1.8c0-0.3-0.2-0.4-0.5-0.4c-0.2,0-0.3,0-0.5,0H68.5c-2.8-9-2.3-18-0.6-27h62.7v13.7L127,15
	c-1.7-1.4-3.4-2.9-5.1-4.3c-0.3-0.3-0.7-0.4-1.1-0.4c-7,0-14-0.1-20.9-0.1c-8,0-15.9,0.1-23.9,0.1c-0.4,0-0.8,0.2-0.9,0.6
	c-1.4,3-1.9,6.3-1.4,9.6c0.1,0.7,0.2,1.4,0.4,2.1c0.1,0.2,0.2,0.5,0.4,0.6c0.7,0.6,1.7,0.9,2.6,0.8c8,0,16,0.1,24,0.1
	c6.9,0,13.9,0.1,20.8,0.1c0.3,0,0.6,0.1,0.8,0.3c1,0.8,2,1.3,3.2,1.7c1,0.4,1.9,0.9,2.8,1.4c0.5,0.3,0.8,0.8,0.8,1.3
	c0.1,3.1,0.4,6.2,0.5,9.3c0.1,4.1,0.1,8.1,0.3,12.2c0.1,4.9,1.1,9.7,3,14.3c1.6,3.5,2.8,7.2,3.7,11c0.7,2.6,0.5,5.3-0.4,7.8
	c-0.4,1.1-0.8,2.2-1.1,3.3c-0.9,2.7-1.8,5.4-2.8,8.1c-0.1,0.3-0.2,0.5-0.6,0.5c-7.1,0-14.1,0-21.2,0L110.2,95.2z M16.5,16.3v0.3
	c2.9,0.2,5.8,0.1,8.6-0.3c-0.2-0.4-0.3-0.8-0.5-1.2c-0.2-0.4-0.7-0.6-1.1-0.5c-0.9,0.2-1.8,0.4-2.6,0.6C19.4,15.6,17.9,16,16.5,16.3
	z"/>
<path class="st0" d="M132.2,105.1v0.7c0,7,0,14,0,21c0,0.6-0.2,0.7-0.7,0.7c-1.3,0-2.7,0-4,0c-0.4,0.1-0.7-0.2-0.8-0.5c0,0,0,0,0,0
	c-1.2-3.8-2.5-7.6-3.7-11.5c0-0.1-0.1-0.3-0.1-0.4h-0.2l0.5,12.4c-0.2,0-0.4,0.1-0.5,0.1c-1.3,0-2.5,0-3.8,0c-0.4,0-0.6-0.1-0.6-0.6
	c0-1.2,0-2.5,0-3.7c0-5.8,0-11.5,0-17.3V105c0.2,0,0.4,0,0.6,0c1.4,0,2.8,0,4.2,0c0.3-0.1,0.7,0.2,0.7,0.5c0,0,0,0,0,0
	c1.2,3.8,2.4,7.5,3.7,11.3c0.1,0.2,0.2,0.4,0.2,0.7h0.2l-0.5-12.4L132.2,105.1z"/>
<path class="st0" d="M51.4,127.5v-22.4c0.1,0,0.3,0,0.4-0.1c2.5,0,5,0,7.5,0.1c1.2,0,2.5,0.3,3.6,0.9c1.5,0.8,2.3,2.4,2.3,4.1
	c0.1,4.1,0.1,8.2,0,12.3c0.1,2.6-1.9,4.8-4.5,4.9c-1.7,0.2-3.4,0.1-5.2,0.2C54.2,127.5,52.8,127.5,51.4,127.5z M56.6,109.1v0.9
	c0,4.2,0,8.5,0,12.7c0,1-0.2,1,1,1c1.7,0,2.5-0.8,2.5-2.5c0-0.8,0-1.5,0-2.3c0-2.5,0-4.9,0-7.4c0-1.2-0.4-1.9-1.3-2.1
	C58,109.2,57.3,109.1,56.6,109.1L56.6,109.1z"/>
<path class="st0" d="M100.6,116.1c0-1.7,0-3.4,0-5.1c-0.2-3.3,2.3-6.1,5.6-6.3c0.1,0,0.2,0,0.4,0c1.4-0.1,2.8,0,4.2,0.4
	c2.2,0.7,3.7,2.6,3.8,4.8c0.1,1.3,0.1,2.6,0.1,3.9c0,2.4,0,4.8,0,7.2c0,1-0.2,1.9-0.4,2.9c-0.4,2.1-2.1,3.7-4.3,4
	c-1.7,0.3-3.4,0.3-5.1-0.1c-2.6-0.6-4-2.5-4.3-5.3c0-0.3-0.1-0.6-0.1-1C100.6,119.7,100.6,117.9,100.6,116.1L100.6,116.1z
	 M109.6,116.2L109.6,116.2c0-1.6,0-3.2,0-4.8c0-0.6-0.1-1.2-0.3-1.8c-0.2-0.6-0.8-1-1.4-1c-0.7-0.1-1.4,0.2-1.7,0.9
	c-0.2,0.4-0.3,0.8-0.3,1.2c0,3.5-0.1,7-0.1,10.5c0,0.7,0.2,1.4,0.5,2.1c0.4,0.8,1.4,1.1,2.2,0.7c0.3-0.2,0.6-0.5,0.7-0.8
	c0.2-0.6,0.3-1.2,0.3-1.8C109.6,119.6,109.5,117.9,109.6,116.2L109.6,116.2z"/>
<path class="st0" d="M30.2,116.1c0,1.9,0.1,3.8,0,5.6c-0.1,0.9-0.2,1.9-0.5,2.7c-0.5,1.6-1.8,2.8-3.4,3.2c-1.9,0.5-3.9,0.5-5.8,0.1
	c-2.3-0.5-4-2.5-4.2-4.8c-0.1-0.9-0.2-1.8-0.2-2.7c0-2.9,0-5.8,0-8.7c0-0.8,0.1-1.6,0.3-2.4c0.4-2.1,2.1-3.7,4.1-4.2
	c1.7-0.5,3.6-0.5,5.3-0.1c2.6,0.6,4.4,2.9,4.4,5.5C30.3,112.3,30.2,114.2,30.2,116.1z M21.2,116.2c0,1.7,0,3.3,0,5
	c0,0.6,0.1,1.1,0.3,1.7c0.2,0.9,1.2,1.4,2.1,1.2c0.6-0.2,1.1-0.7,1.2-1.3c0.1-0.7,0.2-1.3,0.2-2c0-3.1,0-6.2,0-9.4
	c0-0.5-0.1-1.1-0.2-1.6c-0.2-0.7-0.8-1.3-1.6-1.2c-0.8-0.1-1.5,0.4-1.7,1.1c-0.1,0.5-0.2,1-0.2,1.6
	C21.3,112.9,21.3,114.5,21.2,116.2L21.2,116.2z"/>
<path class="st0" d="M47.8,116.2c0,1.9,0.1,3.8,0,5.6c-0.1,0.9-0.2,1.8-0.5,2.7c-0.5,1.6-1.8,2.8-3.4,3.2c-1.9,0.5-3.9,0.6-5.8,0.1
	c-2.3-0.5-4-2.5-4.2-4.9c-0.1-1-0.2-2-0.2-3c0-3.1-0.1-6.3,0.1-9.4s1.9-5,4.9-5.6c1.6-0.3,3.2-0.3,4.7,0.1c2.6,0.6,4.4,2.8,4.4,5.5
	C47.8,112.3,47.8,114.2,47.8,116.2z M38.8,116.2c0,1.6,0,3.3,0,4.9c0,0.6,0.1,1.2,0.3,1.8c0.2,0.8,0.9,1.3,1.7,1.2
	c0.8,0,1.4-0.6,1.6-1.4c0.1-0.6,0.2-1.3,0.2-1.9c0-3.2,0-6.3,0-9.5c0-0.6-0.1-1.1-0.3-1.6c-0.2-0.7-0.8-1.1-1.5-1.1
	c-0.7-0.1-1.5,0.3-1.7,1c-0.2,0.6-0.3,1.1-0.3,1.7C38.8,112.9,38.8,114.5,38.8,116.2L38.8,116.2z"/>
<path class="st0" d="M12.8,105.1v4.3c-0.2,0-0.4,0-0.7,0c-1.9,0-3.9,0-5.8,0c-0.4,0-0.6,0.1-0.6,0.6c0,1.1,0,2.3,0,3.5
	c0.3,0,0.5,0,0.7,0h5c1,0,0.8,0,0.8,0.9c0,1.1,0,2.3,0,3.5H5.7v9.5H0.5v-22.3H12.8z"/>
<path class="st0" d="M77.1,105.1h1c1.1,0,2.3,0,3.4,0c0.5,0,0.7,0.2,0.7,0.7c0,5.4,0,10.8,0,16.2c0,0.2,0,0.3,0,0.5
	c-0.1,0.5,0.1,0.7,0.6,0.7c1.7,0,3.4,0,5.2,0c0.6,0,0.7,0.2,0.7,0.7c0,1,0,2.1,0,3.1c0,0.4-0.1,0.5-0.5,0.5c-3.5,0-7.1,0-10.6,0
	c-0.3,0-0.5-0.1-0.5-0.5c0-7.2,0-14.4,0-21.7C77.1,105.3,77.1,105.2,77.1,105.1z"/>
<path class="st0" d="M96.8,105.1v22.4c-0.3,0-0.5,0-0.8,0c-1.3,0-2.6,0-3.9,0c-0.4,0-0.5-0.1-0.5-0.5c0-7.2,0-14.3,0-21.5
	c0-0.1,0.2-0.4,0.3-0.4C93.6,105.1,95.2,105.1,96.8,105.1z"/>
</svg>
