<?xml version="1.0" encoding="utf-8"?>
<!-- Generator: Adobe Illustrator 21.1.0, SVG Export Plug-In . SVG Version: 6.00 Build 0)  -->
<svg version="1.1" id="Layer_1" xmlns="http://www.w3.org/2000/svg" xmlns:xlink="http://www.w3.org/1999/xlink" x="0px" y="0px"
	 viewBox="0 0 181 50.7" style="enable-background:new 0 0 181 50.7;" xml:space="preserve">
<style type="text/css">
	.st0{fill:#0687CD;}
	.st1{fill:#EB1C30;}
	.st2{fill:#FEFEFE;}
</style>
<title>Grocery</title>
<path class="st0" d="M75.7,25.4c0-8,0-16.2,0-24.2c0-0.7,0-0.7,0.7-0.7c13.3,0,26.9,0,40.1,0c0.7,0,0.6,0.1,0.6,0.7
	c0,13.7,0,27.5,0,41.2c0,2.4,0,4.9,0,7.3c0,0.6,0,0.6-0.6,0.6c-13.3,0-27,0-40.3,0c-0.6,0-0.5-0.2-0.5-0.7
	C75.7,41.5,75.7,33.4,75.7,25.4L75.7,25.4z M100.6,33.9c-1.5-2-2.3-4.4-2.5-6.9c-0.3-3.3,0-6.5,2.1-9.4c0.1-0.1,0.3-0.3,0-0.5
	c-0.2-0.1-0.4,0-0.5,0.2c-0.4,0.6-0.8,1.2-1.2,1.8c-1.2,1.8-2.9,3.3-4.9,4.3c-0.3,0.1-0.8,0.5-0.7-0.3c0.2-2.5,1-4.9,2.3-7
	c3.3-4.7,9.2-4.8,12.6-0.3c1,1.5,1.7,3.2,2.1,5c0.1,0.4-0.1,1.1,0.4,1s0.2-0.8,0.1-1.2c-0.2-2.9-0.2-5.9-0.1-8.8
	c0-2.7,0.5-5.5,1.3-8.1c-10.3,3.1-20.5,2.7-30.7-0.4c0.8,1.4,1.5,2.8,2.1,4.3c2.2,5,3.5,10.4,3.6,15.9c0.2,4.3-0.3,8.7-1.5,12.8
	c-0.5,2-1.2,3.9-2,5.8c-0.3,0.7,0,0.7,0.5,0.7c3.5,0.2,7.1,0.7,10.5,1.7c2,0.5,4,1.3,5.8,2.4c-0.4-0.9-0.8-1.8-1.4-2.6
	c-1.7-3.4-3.2-7-4.4-10.6c-0.5-1.6-0.9-3.2-1.1-4.9c-0.1-0.7,0.2-0.8,0.8-0.6c0.7,0.3,1.4,0.7,2,1.1c1.4,1.2,2.6,2.5,3.6,4
	C99.8,33.7,100,34.1,100.6,33.9L100.6,33.9z M107.6,29.1c-0.3,0.3-0.5,0.5-0.6,0.7c-0.5,0.7-1.5,0.8-2.2,0.3
	c-0.2-0.1-0.4-0.3-0.5-0.6c-1.4-2.3-1.6-5.2-0.3-7.7c0.8-1.7,2.1-1.7,3.3-0.4c0.1,0.1,0.1,0.2,0.3,0.1c0-1.3,0-2.6,0-3.8
	c0-0.3-0.1-0.5-0.2-0.7c-1-1.1-2.6-1.5-4-0.8c-1.1,0.5-1.9,1.4-2.4,2.5c-1.6,3.2-2,6.9-1.2,10.3c0.3,1.9,1.2,3.7,2.6,5
	c1.4,1.3,3.6,1.3,5-0.1c0.2-0.2,0.3-0.4,0.3-0.7C107.6,32,107.6,30.7,107.6,29.1L107.6,29.1z"/>
<path class="st1" d="M33.7,22.6c-0.1,4-1.3,8-3.5,11.4c-2.6,3.9-6.7,4.6-10.5,2.6c-1.8-0.9-2.7-2.7-3.4-4.5c-1-2.9-0.7-5.9-0.2-8.8
	c0.4-2.9,1.5-5.6,3.1-8c2.8-3.6,7.9-4.3,11.6-1.7c1.6,1.2,2.1,3,2.5,4.8C33.6,19.8,33.7,21.2,33.7,22.6z M27,22c0-0.7,0-1.4,0-2.2
	c0-0.8-0.5-1.5-1.2-1.7c-0.9-0.2-1.4,0.4-1.7,1.1c-1.5,3.2-2.1,6.8-1.7,10.4c0,0.7,0.5,1.4,1.2,1.5c0.7,0.2,1.2-0.3,1.6-0.8
	c0.2-0.2,0.3-0.5,0.5-0.8C26.7,27.1,27.1,24.6,27,22L27,22z"/>
<path class="st1" d="M53.4,22c-0.2,4.7-1.2,9.1-4.1,12.8c-2.7,3.3-7.5,3.9-10.8,1.2c0,0,0,0,0,0c-1.8-1.6-2.8-3.8-2.9-6.1
	c-0.5-4.6,0.4-9.2,2.6-13.2c2.1-4.1,7.2-5.8,11.4-3.6c0.4,0.2,0.7,0.4,1,0.6c1,0.7,1.7,1.8,2.1,3c0.3,0.9,0.5,1.7,0.6,2.6
	C53.3,20.1,53.3,21.1,53.4,22z M42,27c0.1,0.9,0.1,1.7,0.2,2.6c0,0.7,0.5,1.3,1.2,1.5c0.6,0.1,1.3-0.2,1.6-0.7
	c0.2-0.3,0.4-0.6,0.6-1c0.8-2,1.2-4.1,1.3-6.2c0.1-1.2,0.1-2.5-0.1-3.7c-0.1-0.7-0.6-1.2-1.2-1.3c-0.8-0.1-1.2,0.3-1.5,0.9
	c-0.2,0.3-0.3,0.5-0.4,0.8C42.5,22.1,42,24.5,42,27L42,27z"/>
<path class="st1" d="M58,36.9c-1.1,0-2.2,0-3.3,0c-0.6,0-0.7-0.2-0.6-0.7c0.7-4.5,1.4-8.9,2.1-13.4c0.5-3.1,0.9-6.2,1.4-9.3
	c0.1-0.4,0.1-0.7,0.6-0.7c2.3-0.1,4.6-0.1,7,0.2c3.4,0.3,6.2,2.9,6.6,6.3c0.8,4.1,0.2,8.4-1.6,12.3c-1.2,2.7-3.8,4.6-6.7,4.9
	C61.6,36.9,59.8,37,58,36.9z M65.3,23.3c0-0.4,0-0.8,0-1.2c0-1-0.5-1.9-1.4-2.3c-0.3-0.2-0.6-0.3-0.7,0.3c-0.5,3.4-1.1,6.9-1.6,10.3
	c-0.1,0.7,0.2,0.7,0.7,0.6c0.9-0.3,1.7-1.1,2-2C64.9,27.2,65.3,25.3,65.3,23.3L65.3,23.3z"/>
<path class="st1" d="M171.2,18.9c0.7-1.7,1.4-3.4,2.1-5.1c0.1-0.5,0.6-0.8,1.1-0.7c2,0,4,0,6.1,0l-3,5.6c-1.3,2.3-2.5,4.6-3.8,6.9
	c-0.3,0.6-0.5,1.2-0.6,1.9c-0.5,2.9-1,5.8-1.4,8.7c-0.1,0.4-0.2,0.6-0.7,0.6c-1.9,0-3.7,0-5.5,0c-0.6,0-0.8-0.1-0.7-0.8
	c0.5-3,0.8-6.1,1.3-9.1c0.1-1.1-0.1-2.2-0.5-3.2c-0.7-3.3-1.5-6.5-2.2-9.7c-0.2-1-0.2-1,0.8-1c1.9,0,3.7,0,5.5,0
	c0.5,0,0.7,0.1,0.7,0.6c0.2,1.8,0.4,3.5,0.6,5.2L171.2,18.9z"/>
<path class="st1" d="M12.2,18.8c-0.5,0-1.4-0.3-2,0.1s-0.3,1.5-0.5,2.2c-0.2,1.1-0.2,1.1,0.9,1.1c0.9,0,1.7,0,2.6,0
	c0.6,0,0.7,0.2,0.6,0.7c-0.3,1.5-0.6,3-0.8,4.5c-0.1,0.5-0.2,0.6-0.7,0.6c-1,0-2,0-3,0c-0.5,0-0.7,0.2-0.8,0.7
	C8,31.2,7.6,33.6,7.2,36c-0.1,0.6-0.3,0.8-1,0.8c-1.7-0.1-3.3-0.1-5,0c-0.8,0-0.9-0.3-0.8-1c0.5-3.2,1-6.4,1.5-9.5
	c0.7-4.2,1.3-8.4,1.9-12.6c0.1-0.6,0.3-0.9,1-0.9c3.3,0,6.7,0,10,0c0.7,0,0.8,0.2,0.7,0.8c-0.3,1.5-0.5,3.1-0.7,4.7
	c0,0.4-0.3,0.6-0.7,0.5C13.7,18.8,13.1,18.8,12.2,18.8z"/>
<path class="st1" d="M154.4,13c2.1,0,4.2,0,6.3,0c0.6,0,0.7,0.1,0.6,0.7c-0.3,1.6-0.5,3.3-0.7,4.9c0,0.4-0.2,0.5-0.5,0.4
	c-0.8,0-1.6,0-2.4,0c-0.5,0-0.7,0.1-0.8,0.6c-0.9,5.5-1.8,11-2.6,16.5c-0.1,0.5-0.2,0.7-0.7,0.7c-1.9,0-3.7,0-5.5,0
	c-0.5,0-0.6-0.1-0.6-0.6c0.8-4.8,1.6-9.5,2.3-14.3c0.1-0.8,0.2-1.6,0.4-2.3c0.1-0.5-0.1-0.7-0.6-0.6c-0.8,0-1.7,0-2.5,0
	c-0.5,0-0.8,0-0.6-0.7c0.3-1.5,0.5-3.1,0.8-4.6c0.1-0.5,0.3-0.6,0.8-0.6C150.2,13,152.3,13,154.4,13L154.4,13z"/>
<path class="st1" d="M127.3,27c0,0.7,0.1,1.4,0.3,2.1c0.3,1.1,1.3,1.8,2.4,1.8c0.6,0,1.1,0,1.7,0c0.6-0.1,0.6,0.2,0.6,0.7
	c-0.2,1.4-0.4,2.9-0.5,4.3c0,0.5-0.4,0.9-0.8,1c-2.1,0.7-4.3,0.6-6.3-0.4c-1.9-1-3.2-2.9-3.5-5c-1.2-5.4-0.2-11,2.9-15.5
	c1.2-1.8,3.1-3.1,5.3-3.5c1.7-0.5,3.4-0.5,5.1,0c0.6,0.2,0.8,0.4,0.7,1.1c-0.3,1.4-0.4,2.9-0.6,4.3c0,0.3,0.1,0.6-0.4,0.5
	c-3.5-1.1-4.8,1.1-5.9,3.6C127.5,23.6,127.3,25.3,127.3,27z"/>
<path class="st1" d="M137.7,36.8c-0.9,0-1.8,0-2.7,0c-0.6,0-0.7-0.1-0.6-0.7c0.6-3.4,1-6.9,1.6-10.4c0.6-4,1.2-8.1,1.8-12.1
	c0.1-0.4,0.1-0.7,0.6-0.7c1.9,0,3.8,0,5.7,0c0.4,0,0.6,0.1,0.5,0.6c-0.9,6-1.8,12-2.7,17.9c-0.2,1.6-0.5,3.1-0.7,4.6
	c-0.1,0.6-0.3,0.7-0.9,0.7C139.5,36.8,138.6,36.8,137.7,36.8L137.7,36.8z"/>
<path class="st2" d="M100.6,33.9c-0.6,0.2-0.8-0.1-1.1-0.5c-1-1.5-2.2-2.8-3.6-4c-0.6-0.4-1.3-0.8-2-1.1c-0.6-0.3-0.9-0.2-0.8,0.5
	c0.3,1.6,0.7,3.3,1.1,4.9c1.2,3.6,2.7,7.2,4.4,10.6c0.5,0.8,1,1.7,1.4,2.6c-1.8-1-3.8-1.8-5.8-2.4c-3.4-1-6.9-1.5-10.5-1.7
	c-0.6,0-0.8-0.1-0.5-0.7c0.8-1.9,1.5-3.8,2-5.8c1.1-4.2,1.6-8.5,1.5-12.8c-0.2-5.5-1.4-10.9-3.6-15.9c-0.6-1.5-1.3-2.9-2.1-4.3
	c10.2,3.1,20.4,3.6,30.7,0.4c-0.8,2.6-1.3,5.3-1.3,8.1c-0.2,2.9-0.1,5.9,0.1,8.8c0,0.4,0.4,1.1-0.1,1.2s-0.3-0.7-0.4-1
	c-0.4-1.8-1.1-3.5-2.1-5c-3.4-4.6-9.2-4.5-12.6,0.3c-1.4,2.1-2.2,4.5-2.3,7c-0.1,0.8,0.4,0.4,0.7,0.3c2-1,3.7-2.5,4.9-4.3
	c0.4-0.6,0.8-1.2,1.2-1.8c0.1-0.2,0.3-0.3,0.5-0.2c0.3,0.2,0.1,0.3,0,0.5c-2,2.8-2.3,6-2.1,9.4C98.3,29.5,99.1,31.9,100.6,33.9z"/>
<path class="st2" d="M107.6,29.1c0,1.6,0,2.9,0,4.2c0,0.3-0.1,0.5-0.3,0.7c-1.4,1.4-3.6,1.4-5,0.1c-1.4-1.3-2.3-3.1-2.6-5
	c-0.9-3.5-0.5-7.1,1.1-10.3c0.5-1.1,1.4-2,2.4-2.5c1.4-0.6,3-0.3,4,0.8c0.2,0.2,0.2,0.4,0.2,0.7c0,1.3,0,2.6,0,3.8
	c-0.1,0.1-0.2,0-0.3-0.1c-1.2-1.4-2.5-1.3-3.3,0.4c-1.3,2.4-1.1,5.3,0.3,7.7c0.4,0.8,1.4,1.1,2.1,0.7c0.2-0.1,0.4-0.3,0.6-0.5
	C107.1,29.7,107.3,29.5,107.6,29.1z"/>
</svg>
