<?xml version="1.0" encoding="utf-8"?>
<!-- Generator: Adobe Illustrator 21.1.0, SVG Export Plug-In . SVG Version: 6.00 Build 0)  -->
<svg version="1.1" id="Layer_1" xmlns="http://www.w3.org/2000/svg" xmlns:xlink="http://www.w3.org/1999/xlink" x="0px" y="0px"
	 viewBox="0 0 234.7 111.5" style="enable-background:new 0 0 234.7 111.5;" xml:space="preserve">
<style type="text/css">
	.st0{fill:#FFFFFF;}
	.st1{fill:#EF4937;}
</style>
<title>Fast Casual</title>
<path class="st0" d="M87.1,27.2c-0.3,15,12.4,26.7,26.3,26.5c14.8-0.2,26.2-11.4,26.3-26.2c0.4-14.5-11.1-26.6-25.7-27
	c-14.5-0.4-26.6,11.1-27,25.7C87.1,26.5,87.1,26.8,87.1,27.2z M104.3,78.8c0,4.3,0,8.6,0,12.9c0,1.5,0.3,1.8,1.8,1.8h12.5
	c2.1,0.1,4.1-0.3,6-1.1c1.8-0.7,3.3-2.2,4.1-4c1.3-3,0.8-7.3-2.6-9.4c-1.6-1-1.5-1.1-0.1-2.3c2.7-2.4,2.7-7,0.8-9.5
	c-1.9-2.5-4.5-3.1-7.3-3.2c-4.5-0.1-9,0-13.5,0c-1.4,0-1.7,0.3-1.7,1.6C104.3,70,104.3,74.4,104.3,78.8L104.3,78.8z M25.6,78.8
	c0,4.4,0,8.8,0,13.2c0,1.3,0.3,1.6,1.6,1.6c1.6,0,3.2,0,4.8,0c1.6,0,1.8-0.3,1.8-1.8s0-2.9,0-4.4c0-0.4,0.2-0.7,0.5-0.9
	c1.2-0.6,2.6-0.1,3.3,1c1.1,1.8,2.3,3.6,3.5,5.4c0.3,0.4,0.8,0.6,1.3,0.7c0.8,0.1,1.5,0.1,2.3,0.1c1.6,0,3.2,0,4.8,0
	c0.8,0,1-0.4,0.6-1.1c-0.1-0.2-0.3-0.5-0.4-0.7c-1.2-1.9-2.5-3.8-3.7-5.6c-0.6-0.9-0.5-1.1,0.4-1.8c1.3-0.9,2.4-2.1,3.2-3.6
	c1-2.1,1.4-4.4,1.3-6.7c-0.1-1.8-0.6-3.6-1.6-5.1c-2-3.2-5.2-4.4-8.8-4.6c-4.4-0.2-8.8-0.1-13.2-0.1c-1.3,0-1.6,0.3-1.6,1.6
	C25.6,70,25.6,74.3,25.6,78.8L25.6,78.8z M143.4,78.6L143.4,78.6c0,4.4,0,8.8,0,13.3c0,1.3,0.3,1.6,1.6,1.6c1.6,0,3.2,0,4.9,0
	c1.3,0,1.6-0.3,1.6-1.6c0-1.6,0-3.1,0.1-4.7c0-0.3,0.1-0.6,0.4-0.8c1.2-0.5,2.5-0.2,3.3,0.8c1.1,1.7,2.2,3.5,3.4,5.2
	c0.3,0.5,0.9,0.9,1.5,1.1c2.5,0.1,4.9,0.1,7.4,0c0.6,0,0.8-0.4,0.6-1c-0.1-0.2-0.3-0.5-0.4-0.7c-1.2-1.9-2.5-3.7-3.7-5.6
	c-0.7-1.1-0.7-1.3,0.4-2.1c1.8-1.2,3.1-3,3.8-5.1c0.5-1.8,0.7-3.7,0.5-5.5c-0.1-3.3-1.9-6.2-4.8-7.8c-1.9-1-4.1-1.6-6.3-1.6
	c-4.2,0-8.4,0-12.6,0c-1.3,0-1.6,0.2-1.6,1.6C143.4,70,143.4,74.3,143.4,78.6z M171.1,78.6c0,4.4,0,8.8,0,13.2
	c0,1.3,0.3,1.6,1.6,1.6c2.5,0,5,0,7.5,0c1.7,0,3.5-0.1,5.2-0.3c3.5-0.4,6.8-1.9,9.3-4.4c3.4-3.6,4.4-8,3.6-12.7
	c-1.1-7.4-6.8-11.5-13.8-11.9c-3.9-0.2-7.9-0.1-11.8-0.1c-1.3,0-1.6,0.3-1.6,1.6C171.1,70,171.1,74.3,171.1,78.6L171.1,78.6z
	 M53.2,78.7L53.2,78.7c0,4.3,0,8.6,0,12.8c0,1.7,0.2,1.9,1.9,1.9h19.5c1.2,0,1.4-0.2,1.4-1.4c0-1.4,0-2.9,0-4.3s-0.3-1.6-1.7-1.6
	h-11c-2.3,0-2.3,0-2.3-2.3c0-1.8,0.1-1.9,1.9-1.9h8.8c1.4,0,1.7-0.2,1.7-1.7c0-1.1,0-2.3,0-3.4c0-1.3-0.3-1.6-1.6-1.6h-9.4
	c-1.2,0-1.4-0.2-1.4-1.3c0-0.4,0-0.8,0-1.2c0-1.2,0.2-1.4,1.3-1.4h12.2c1.2,0,1.5-0.3,1.5-1.5c0-1.4,0-2.7,0-4.1S75.8,64,74.4,64
	H56.6c-0.7,0-1.5,0-2.2,0s-1.2,0.3-1.2,1.1C53.2,69.6,53.2,74.1,53.2,78.7L53.2,78.7z M78.6,78.6c0,4.4,0,8.9,0,13.3
	c0,1.1,0.3,1.5,1.4,1.5c6.7,0,13.4,0,20.1,0c1.1,0,1.3-0.3,1.4-1.4c0-1.4,0-2.8,0-4.2s-0.3-1.7-1.7-1.7H87.5c-0.7,0-1.1-0.3-1.1-1
	c0-0.6,0-1.1,0-1.6c0-1.4,0.1-1.5,1.5-1.6h9.5c1.1,0,1.4-0.3,1.4-1.4c0-1.3,0-2.6,0-4c0-0.9-0.4-1.3-1.4-1.3h-4.9
	c-1.6,0-3.2,0-4.8,0c-1.1,0-1.3-0.2-1.3-1.4c0-0.4,0-0.9,0-1.3c0-1.1,0.2-1.2,1.3-1.2c4,0,8,0,12,0c1.2,0,1.4-0.3,1.5-1.4
	c0-1.4,0-2.9,0-4.4c0-1.2-0.3-1.4-1.5-1.4H80.2c-1.3,0-1.6,0.3-1.6,1.6C78.6,69.9,78.6,74.3,78.6,78.6L78.6,78.6z M221,72.7
	L221,72.7h2.7c1.3,0,1.5-0.4,1.3-1.6c-0.9-4.1-3.8-6.1-7.6-6.9c-1.5-0.2-3-0.2-4.5-0.2c-2.4-0.1-4.7,0.4-6.8,1.5
	c-3.2,1.6-5.3,4.1-4.9,8.6c0.4,3.3,2.8,5.9,6.1,6.7c2.5,0.7,5,1.3,7.4,2.1c0.9,0.3,1.8,0.8,2.6,1.4c0.6,0.4,0.5,1,0,1.6
	c-0.6,0.6-1.4,0.9-2.2,1c-2.4,0.4-4.4,0.1-5.9-2c-0.4-0.6-1-0.9-1.7-0.8c-1.8,0-3.7,0-5.5,0c-1.3,0-1.6,0.5-1.3,1.7
	c0.9,3,3.1,5.4,6,6.5c4.8,2,10.1,1.8,14.7-0.6c3.6-1.8,5.4-5.8,4.5-9.7c-0.6-2.7-2.5-4.8-5.2-5.5c-2.7-0.9-5.4-1.6-8.1-2.4
	c-0.7-0.2-1.4-0.5-2-0.8c-1.3-0.8-1.2-1.8,0.1-2.5c2.1-0.9,4.5-0.4,6.1,1.2c0.4,0.4,0.9,0.7,1.4,0.7C219.2,72.8,220.1,72.8,221,72.7
	L221,72.7z M0.5,78.6c0,4.4,0,8.9,0,13.3c0,1.1,0.3,1.5,1.5,1.5c1.5,0,3,0,4.4,0c1.3,0,1.6-0.3,1.6-1.6c0-2.5,0-4.9,0.1-7.4
	c0-1.3,0.2-1.4,1.4-1.4h9.4c1.2,0,1.5-0.3,1.5-1.6s0-2.6,0-3.9s-0.3-1.6-1.6-1.6c-1.7,0-3.4,0-5.1,0s-3.2,0-4.8-0.1
	c-0.4,0.1-0.8-0.2-0.8-0.6c0-0.1,0-0.2,0-0.2c0-0.7,0-1.4,0-2.1c0-1.5,0.1-1.5,1.5-1.5h11.3c1.3,0,1.6-0.3,1.6-1.6s0-2.8,0-4.2
	c0-1.2-0.3-1.5-1.5-1.5H1.9c-1.1,0-1.4,0.3-1.4,1.5C0.5,69.8,0.5,74.2,0.5,78.6z M139.9,73.3c0-2.6,0-5.3,0-7.9c0-1-0.3-1.3-1.3-1.3
	c-1.8,0-3.6,0-5.4,0c-1,0-1.3,0.3-1.3,1.3c0,5.3,0,10.5,0,15.8c0,1,0.3,1.3,1.3,1.3c1.8,0,3.5,0,5.3,0c1.1,0,1.4-0.3,1.4-1.4
	C139.9,78.5,139.9,75.9,139.9,73.3L139.9,73.3z M135.9,87.1H133c-0.5-0.1-1.1,0.3-1.1,0.8c0,0.1,0,0.2,0,0.3c0,1.4,0,2.8,0,4.2
	c0,0.5,0.4,1,0.9,1c0,0,0.1,0,0.1,0c2,0,3.9,0,5.9,0c0.6,0,1-0.4,1.1-0.9c0-0.1,0-0.2,0-0.3c0-1.3,0-2.6,0-3.9
	c0-0.9-0.3-1.2-1.2-1.2S136.8,87.1,135.9,87.1L135.9,87.1z M46.9,109.2c-0.2-0.4-0.2-0.7-0.3-0.9c-0.6-1.9-1.2-3.8-1.9-5.6
	c-0.1-0.3-0.4-0.5-0.6-0.5c-0.2,0-0.5,0.3-0.5,0.5c-0.3,0.7-0.5,1.4-0.7,2.2l-1.4,4.4c-0.8-2.3-1.5-4.3-2.2-6.4
	c-0.2-0.7-0.6-0.9-1.3-0.6c1,2.8,1.9,5.5,2.9,8.2c0.1,0.2,0.3,0.4,0.6,0.4c0.2-0.1,0.4-0.2,0.5-0.4c0.3-0.6,0.4-1.2,0.6-1.8l1.6-4.7
	c0.7,2.2,1.4,4.1,2.1,6.1c0.1,0.4,0.1,1,0.7,0.9c0.3-0.2,0.6-0.5,0.7-0.8c0.7-1.9,1.4-3.8,2-5.7c0.3-0.7,0.5-1.4,0.7-2.1
	c-0.8-0.3-1.2,0-1.3,0.7s-0.4,1.4-0.7,2L46.9,109.2z M112.8,102.1v8.5c1.7,0.1,3.3,0.1,5,0c1.2-0.1,2-1.1,1.9-2.3
	c0-0.1,0-0.2-0.1-0.3c-0.1-0.9-0.9-1.3-1.7-1.7c1-0.5,1.5-1.6,1.1-2.6c-0.3-1-1.2-1.6-2.2-1.5C115.7,102.1,114.3,102.1,112.8,102.1
	L112.8,102.1z M70.1,107.5c1.4-0.2,2.7-0.3,3.4,1.2c0.3,0.5,0.7,0.9,1,1.4c0.3,0.6,1.1,0.9,1.7,0.6l-2.6-3.4l0.5-0.2
	c1.2-0.3,2-1.5,1.8-2.7c-0.1-1.2-1-2.1-2.2-2.2c-1.5-0.1-3,0-4.6,0v8.5h1L70.1,107.5z M145.1,110.7l-2.5-3.4l0.4-0.1
	c1.3-0.3,2.1-1.5,1.9-2.8c-0.1-1.2-1.1-2.1-2.3-2.2c-1.5-0.1-2.9,0-4.5,0v8.6h1v-3.3c0.4,0,0.9,0,1.3,0c0.7-0.2,1.4,0.2,1.8,0.9
	c0.4,0.6,0.9,1.1,1.3,1.7C143.6,110.7,144.4,111,145.1,110.7C145.1,110.7,145.1,110.7,145.1,110.7L145.1,110.7z M150.4,102.1v8.6h1
	v-3.3c0.5,0,0.9,0,1.4,0c0.6-0.1,1.3,0.2,1.6,0.8c0.4,0.7,1,1.3,1.5,2s0.7,0.8,1.6,0.5l-2.5-3.4c1.8-0.7,2.4-1.5,2.2-3
	c-0.2-1.3-1.3-2.2-2.5-2.1C153.2,102.1,151.8,102.1,150.4,102.1L150.4,102.1z M184.6,111c2.5,0.1,4.6-1.9,4.7-4.4s-1.9-4.6-4.4-4.7
	c-2.5-0.1-4.6,1.9-4.7,4.4c0,0,0,0.1,0,0.1c-0.1,2.4,1.8,4.5,4.2,4.6C184.4,111,184.5,111,184.6,111L184.6,111z M63.6,106.5
	c0.1-2.4-1.8-4.4-4.2-4.5c-0.1,0-0.1,0-0.2,0c-2.5,0-4.4,2-4.4,4.4c0,0,0,0.1,0,0.1c0,2.4,2,4.4,4.4,4.4
	C61.6,110.9,63.6,108.9,63.6,106.5L63.6,106.5z M92.6,102.2v8.6c1.2,0,2.3,0.1,3.4,0c2.2-0.1,4-1.8,4.1-4c0.3-2.3-1.3-4.3-3.6-4.6
	c0,0-0.1,0-0.1,0C95.1,102.1,93.9,102.1,92.6,102.2L92.6,102.2z M131.2,102.1c0,0.9,0,1.6,0,2.4c0,1.1,0,2.2-0.1,3.4
	c-0.1,1.2-1.2,2.1-2.4,2c-1.4,0-2.4-0.6-2.6-2c-0.2-1.6-0.1-3.2-0.2-4.8c0-0.3,0-0.7,0-1.1l-1,0.1c0,1.9-0.1,3.8,0,5.7
	c0.1,1.8,1.6,3.2,3.3,3.1c0,0,0,0,0,0c2,0.1,3.4-0.9,3.7-2.8c0.1-1,0.1-1.9,0.1-2.9c0-1,0-2.1,0-3.1L131.2,102.1z M173,110.8v-7.7
	h2.8v-0.9h-6.7v0.9h2.8v7.7L173,110.8z M87.2,109.8h-4.8v-7.6h-1v8.6h5.8L87.2,109.8z M162.8,102.1v8.6h0.9v-8.6L162.8,102.1z"/>
<path class="st1" d="M87.1,27.2c-0.2-14.5,11.4-26.5,26-26.7c14.5-0.2,26.5,11.4,26.7,26c0,0.3,0,0.7,0,1
	c-0.2,14.8-11.5,26-26.3,26.2C99.5,53.9,86.8,42.2,87.1,27.2z M93.9,27.3c0,10.8,8.8,19.5,19.6,19.5s19.5-8.8,19.5-19.6
	c0-10.8-8.8-19.5-19.6-19.5c-0.1,0-0.3,0-0.4,0C102.3,8,93.9,16.7,93.9,27.3L93.9,27.3z"/>
<path d="M104.3,78.7c0-4.4,0-8.7,0-13.1c0-1.4,0.3-1.6,1.7-1.6c4.5,0,9-0.1,13.5,0c2.8,0.1,5.4,0.8,7.3,3.2c1.8,2.4,1.9,7.1-0.8,9.5
	c-1.4,1.2-1.4,1.3,0.1,2.3c3.4,2.1,3.9,6.4,2.6,9.4c-0.8,1.8-2.2,3.3-4.1,4c-1.9,0.8-3.9,1.1-6,1.1h-12.5c-1.5,0-1.8-0.3-1.8-1.8
	C104.3,87.4,104.3,83.1,104.3,78.7z M115.6,81.6L115.6,81.6c-0.9,0-1.8,0-2.6,0s-1.1,0.3-1.2,1.2s0,2,0,2.9c0,0.8,0.4,1.1,1.1,1.1
	c1.5,0,3.1,0,4.6,0c1.1,0,2.1-0.3,2.9-1c0.9-0.6,1.1-1.9,0.5-2.8c-0.2-0.2-0.4-0.4-0.6-0.6c-0.8-0.4-1.7-0.7-2.6-0.8
	C117,81.5,116.3,81.5,115.6,81.6L115.6,81.6z M115.2,75.6L115.2,75.6c0.7,0,1.4,0,2.1,0c0.6-0.1,1.2-0.2,1.8-0.5
	c0.8-0.4,1.2-1.3,1-2.2c-0.1-0.8-0.6-1.5-1.4-1.7c-1.9-0.7-3.9-0.4-5.9-0.5c-0.6,0-0.9,0.4-0.9,1c0,1,0,2,0,3
	c-0.1,0.4,0.2,0.8,0.7,0.9c0.1,0,0.1,0,0.2,0L115.2,75.6z"/>
<path d="M25.6,78.7c0-4.4,0-8.7,0-13.1c0-1.3,0.3-1.6,1.6-1.6c4.4,0,8.8-0.1,13.2,0.1c3.5,0.2,6.7,1.4,8.8,4.6
	c0.9,1.6,1.5,3.3,1.6,5.1c0.2,2.3-0.2,4.6-1.3,6.7c-0.8,1.4-1.9,2.6-3.2,3.6c-0.9,0.7-1,0.9-0.4,1.8c1.2,1.9,2.5,3.8,3.7,5.6
	c0.2,0.2,0.3,0.5,0.4,0.7c0.4,0.8,0.2,1.1-0.6,1.1c-1.6,0.1-3.2,0-4.8,0c-0.8,0-1.5,0-2.3-0.1c-0.5-0.1-1-0.3-1.3-0.7
	c-1.2-1.8-2.4-3.6-3.5-5.4c-0.7-1.1-2.1-1.6-3.3-1c-0.3,0.2-0.5,0.6-0.5,0.9c0,1.4,0,2.9,0,4.4s-0.3,1.8-1.8,1.8c-1.5,0-3.2,0-4.8,0
	c-1.3,0-1.6-0.3-1.6-1.6C25.6,87.5,25.6,83.1,25.6,78.7z M33.8,75.5L33.8,75.5c0,0.9,0,1.9,0,2.8c0,0.5,0.2,0.9,0.8,0.9
	c1.9,0,3.8-0.1,5.6-0.3c1.8-0.3,2.7-1.8,2.4-4.1c-0.3-1.5-1.6-2.7-3.2-2.8c-1.6-0.1-3.1,0-4.7,0c-0.7,0-1,0.3-1,1
	C33.8,73.8,33.8,74.6,33.8,75.5L33.8,75.5z"/>
<path d="M143.4,78.6c0-4.3,0-8.7,0-13c0-1.4,0.2-1.6,1.6-1.6c4.2,0,8.4,0,12.6,0c2.2,0,4.4,0.5,6.3,1.6c2.9,1.6,4.7,4.5,4.8,7.8
	c0.2,1.9,0,3.7-0.5,5.5c-0.7,2.1-2,3.9-3.8,5.1c-1.1,0.8-1.1,0.9-0.4,2.1c1.2,1.9,2.5,3.7,3.7,5.6c0.2,0.2,0.3,0.5,0.4,0.7
	c0.3,0.6,0.1,1-0.6,1c-2.5,0-4.9,0.1-7.4,0c-0.6-0.2-1.2-0.6-1.5-1.1c-1.2-1.7-2.2-3.4-3.4-5.2c-0.8-0.9-2.2-1.2-3.3-0.8
	c-0.2,0.2-0.4,0.5-0.4,0.8c-0.1,1.6-0.1,3.1-0.1,4.7c0,1.3-0.3,1.6-1.6,1.6c-1.6,0-3.2,0-4.9,0c-1.4,0-1.6-0.2-1.6-1.6
	C143.4,87.5,143.4,83.1,143.4,78.6L143.4,78.6z M151.5,75.6L151.5,75.6c0,0.9,0,1.7,0,2.6s0.3,1.1,1.1,1.1c1.2,0,2.5,0,3.7,0
	c1,0,2-0.3,2.8-0.9c1.3-0.9,1.8-2.5,1.2-3.9c-0.3-1.4-1.6-2.4-3.1-2.4c-1.6-0.1-3.2,0-4.8,0c-0.6,0-0.9,0.3-0.9,0.9
	C151.5,73.7,151.5,74.6,151.5,75.6L151.5,75.6z"/>
<path d="M171.1,78.6c0-4.3,0-8.7,0-13c0-1.3,0.3-1.6,1.6-1.6c3.9,0,7.9-0.1,11.8,0.1c7,0.4,12.7,4.4,13.8,11.9
	c0.7,4.8-0.2,9.1-3.6,12.7c-2.5,2.5-5.8,4.1-9.3,4.4c-1.7,0.2-3.4,0.3-5.2,0.3c-2.5,0-5,0-7.5,0c-1.3,0-1.6-0.3-1.6-1.6
	C171.1,87.4,171.1,83,171.1,78.6z M179.3,78.5c0,2,0,4,0,5.9c0,1.1,0.1,1.3,1.3,1.4c0.9,0.1,1.9,0,2.8,0c3.1,0,5.7-2.1,6.5-5.1
	c0.9-3-0.2-6.3-2.8-8.1c-2.1-1.4-4.4-1.4-6.7-1.3c-1,0-1.1,0.2-1.1,1.2C179.2,74.5,179.2,76.5,179.3,78.5L179.3,78.5z"/>
<path d="M53.2,78.7c0-4.5,0-9.1,0-13.6c0-0.8,0.5-1.1,1.2-1.1s1.5,0,2.2,0h17.8c1.5,0,1.7,0.2,1.7,1.7s0,2.7,0,4.1
	c0,1.2-0.3,1.5-1.5,1.5H62.3c-1.2,0-1.3,0.2-1.3,1.4c0,0.4,0,0.8,0,1.2c0,1.1,0.2,1.3,1.4,1.3h9.4c1.3,0,1.6,0.3,1.6,1.6
	c0,1.1,0,2.3,0,3.4c0,1.4-0.2,1.7-1.7,1.7h-8.8C61,81.9,61,82,61,83.8c0,2.3,0,2.3,2.3,2.3h11c1.4,0,1.7,0.3,1.7,1.6s0,2.9,0,4.3
	c0,1.2-0.3,1.4-1.4,1.4H55.1c-1.7,0-1.9-0.2-1.9-1.9C53.2,87.2,53.2,83,53.2,78.7L53.2,78.7z"/>
<path d="M78.6,78.6c0-4.3,0-8.7,0-13c0-1.3,0.3-1.6,1.6-1.6h19.5c1.2,0,1.4,0.2,1.5,1.4c0,1.4,0,2.9,0,4.4c0,1.2-0.3,1.4-1.5,1.4
	c-4,0-8,0-12,0c-1.1,0-1.2,0.2-1.3,1.2c0,0.4,0,0.9,0,1.3c0,1.1,0.2,1.4,1.3,1.4c1.6,0,3.2,0,4.8,0h4.8c1,0,1.4,0.4,1.4,1.3
	c0,1.3,0,2.6,0,4c0,1-0.3,1.4-1.4,1.4h-9.4c-1.4,0.1-1.5,0.2-1.5,1.6c0,0.6,0,1.1,0,1.6c0,0.7,0.4,1,1.1,1h12.3
	c1.4,0,1.7,0.3,1.7,1.7s0,2.8,0,4.2c0,1.1-0.3,1.4-1.4,1.4c-6.7,0-13.4,0-20.1,0c-1.1,0-1.4-0.4-1.4-1.5
	C78.6,87.5,78.6,83.1,78.6,78.6z"/>
<path d="M221,72.8c-0.9,0.1-1.9,0.1-2.8,0c-0.6-0.1-1.1-0.3-1.4-0.7c-1.5-1.7-4-2.2-6.1-1.2c-1.3,0.7-1.4,1.7-0.1,2.5
	c0.6,0.4,1.3,0.6,2,0.8c2.7,0.8,5.4,1.5,8.1,2.4c2.6,0.7,4.6,2.8,5.2,5.5c1,3.9-0.9,7.9-4.5,9.7c-4.6,2.3-10,2.6-14.7,0.6
	c-2.9-1.1-5.1-3.5-6-6.5c-0.4-1.2,0-1.7,1.3-1.7c1.8,0,3.7,0,5.5,0c0.7,0,1.3,0.3,1.7,0.8c1.5,2.1,3.5,2.5,5.9,2
	c0.8-0.1,1.6-0.4,2.2-1c0.5-0.6,0.6-1.2,0-1.6c-0.8-0.6-1.7-1.1-2.6-1.4c-2.5-0.8-5-1.3-7.4-2.1c-3.2-0.8-5.6-3.4-6.1-6.7
	c-0.4-4.5,1.7-7,4.9-8.6c2.1-1.1,4.5-1.6,6.8-1.5c1.5,0,3,0,4.5,0.2c3.9,0.8,6.6,2.9,7.6,6.9c0.3,1.3,0,1.6-1.3,1.6L221,72.8
	L221,72.8z"/>
<path d="M0.5,78.6c0-4.4,0-8.7,0-13.1c0-1.1,0.3-1.5,1.4-1.5h19.1c1.2,0,1.5,0.3,1.5,1.5c0,1.4,0,2.8,0,4.2s-0.3,1.6-1.6,1.6H9.6
	c-1.4,0-1.5,0.1-1.5,1.5c0,0.7,0,1.4,0,2.1c-0.1,0.4,0.2,0.8,0.6,0.9c0.1,0,0.2,0,0.2,0c1.6,0,3.2,0.1,4.8,0.1s3.4,0,5.1,0
	c1.3,0,1.6,0.3,1.6,1.6s0,2.6,0,3.9S20.1,83,18.8,83H9.5c-1.3,0-1.4,0.2-1.4,1.4c0,2.5,0,4.9-0.1,7.4c0,1.3-0.3,1.6-1.6,1.6
	c-1.5,0-3,0-4.4,0c-1.1,0-1.5-0.4-1.5-1.5C0.5,87.5,0.5,83,0.5,78.6z"/>
<path d="M139.9,73.3c0,2.6,0,5.2,0,7.8c0,1.1-0.3,1.4-1.4,1.4c-1.8,0-3.5,0-5.3,0c-1,0-1.3-0.3-1.3-1.3c0-5.3,0-10.5,0-15.8
	c0-1,0.3-1.3,1.3-1.3c1.8,0,3.6,0,5.4,0c1,0,1.3,0.3,1.3,1.3C139.9,68,139.9,70.6,139.9,73.3z"/>
<path d="M135.9,87.1c0.9,0,1.9,0,2.8,0s1.2,0.4,1.2,1.2c0,1.3,0,2.6,0,3.9c0.1,0.5-0.3,1.1-0.8,1.2c-0.1,0-0.2,0-0.3,0
	c-2,0-3.9,0-5.9,0c-0.5,0-1-0.4-1-0.9c0,0,0-0.1,0-0.1c0-1.4,0-2.8,0-4.2c-0.1-0.5,0.3-1,0.9-1.1c0.1,0,0.2,0,0.3,0L135.9,87.1z"/>
<path d="M46.9,109.2l1.4-4.3c0.2-0.7,0.5-1.3,0.7-2s0.5-1,1.3-0.7c-0.2,0.7-0.5,1.4-0.7,2.1c-0.7,1.9-1.3,3.8-2,5.7
	c-0.1,0.4-0.4,0.6-0.7,0.8c-0.7,0.2-0.6-0.5-0.7-0.9c-0.7-1.9-1.3-3.9-2.1-6.1l-1.6,4.7c-0.2,0.6-0.4,1.2-0.6,1.8
	c-0.1,0.2-0.3,0.4-0.5,0.4c-0.2,0-0.5-0.2-0.6-0.4c-1-2.7-2-5.5-2.9-8.2c0.7-0.3,1.1-0.1,1.3,0.6c0.7,2.1,1.4,4.1,2.2,6.4l1.4-4.4
	c0.2-0.7,0.5-1.5,0.7-2.2c0.1-0.2,0.4-0.5,0.5-0.5c0.3,0.1,0.5,0.3,0.6,0.5c0.7,1.9,1.2,3.7,1.9,5.6
	C46.7,108.5,46.8,108.8,46.9,109.2z"/>
<path d="M112.9,102.1c1.4,0,2.8-0.1,4.2,0c1-0.1,1.9,0.6,2.2,1.5c0.3,1-0.1,2.1-1.1,2.6c0.8,0.4,1.5,0.8,1.7,1.7
	c0.3,1.1-0.4,2.3-1.5,2.5c-0.1,0-0.2,0-0.3,0.1c-1.7,0.1-3.3,0.1-5,0L112.9,102.1z M113.9,109.8c1.2,0,2.4,0.1,3.6,0
	c0.8,0,1.3-0.7,1.3-1.4c0,0,0,0,0,0c0-0.7-0.5-1.3-1.2-1.3c0,0,0,0-0.1,0c-1.2-0.1-2.4,0-3.6,0V109.8z M113.9,106.1
	c1.1-0.1,2.2-0.1,3.3-0.2c0.7-0.1,1.2-0.7,1.2-1.4c0.1-0.7-0.4-1.3-1.1-1.3c0,0,0,0-0.1,0c-1.1-0.1-2.2,0-3.2,0L113.9,106.1z"/>
<path d="M70.1,107.5v3.2h-1v-8.5c1.6,0,3.1-0.1,4.6,0c1.2,0,2.1,1,2.2,2.2c0.2,1.2-0.6,2.4-1.8,2.7l-0.5,0.2l2.6,3.4
	c-0.6,0.3-1.4,0-1.7-0.6c-0.3-0.5-0.8-0.9-1-1.4C72.8,107.2,71.5,107.3,70.1,107.5z M70.1,106.4c1.1,0.1,2.2,0.1,3.3,0
	c0.9-0.1,1.6-0.9,1.5-1.8c-0.1-0.8-0.8-1.4-1.6-1.5c-1.1-0.1-2.1,0-3.2,0L70.1,106.4z"/>
<path d="M145.1,110.7c-0.7,0.3-1.5,0-1.8-0.7c0,0,0,0,0,0c-0.4-0.6-0.9-1.1-1.3-1.7c-0.3-0.7-1-1-1.8-0.9c-0.4,0-0.9,0-1.3,0v3.3h-1
	v-8.6c1.5,0,3-0.1,4.5,0c1.2,0,2.2,1,2.3,2.2c0.2,1.3-0.6,2.5-1.9,2.8l-0.4,0.1L145.1,110.7z M139,106.5c1.1,0.1,2.1,0.1,3.2,0
	c0.9,0,1.6-0.8,1.6-1.7c0-0.9-0.7-1.6-1.6-1.6c0,0,0,0,0,0c-1-0.1-2.1,0-3.1,0L139,106.5z"/>
<path d="M150.4,102.1c1.4,0,2.8-0.1,4.2,0c1.3,0,2.4,0.9,2.5,2.1c0.2,1.5-0.4,2.4-2.2,3l2.5,3.4c-1,0.3-1.1,0.3-1.6-0.5
	s-1-1.3-1.5-2c-0.3-0.6-0.9-0.9-1.6-0.8c-0.5,0-0.9,0-1.4,0v3.3h-0.9L150.4,102.1z M151.3,106.4c1.1,0.1,2.3,0.1,3.4,0
	c0.9-0.1,1.5-0.8,1.4-1.6c0,0,0-0.1,0-0.1c-0.1-0.8-0.7-1.5-1.6-1.5c-1-0.1-2.1,0-3.2,0V106.4L151.3,106.4z"/>
<path d="M184.6,111c-2.4,0-4.4-2-4.4-4.4c0-0.1,0-0.1,0-0.2c0.1-2.4,2.1-4.4,4.6-4.3c2.4,0.1,4.4,2.1,4.3,4.6
	C189,109.1,187,111,184.6,111z M188,106.5c-0.1-1.8-1.6-3.3-3.5-3.2c-1.8,0.1-3.3,1.6-3.2,3.5c0.1,1.8,1.5,3.2,3.3,3.2
	c1.8,0,3.4-1.5,3.4-3.3C188,106.6,188,106.6,188,106.5z"/>
<path d="M63.6,106.5c0,2.4-2,4.4-4.4,4.4c-2.4,0-4.4-2-4.4-4.4l0,0c-0.1-2.5,1.9-4.5,4.3-4.5c0,0,0.1,0,0.1,0c2.4,0,4.4,1.9,4.4,4.3
	C63.6,106.3,63.6,106.4,63.6,106.5z M55.8,106.4c-0.1,1.9,1.3,3.5,3.1,3.6s3.5-1.3,3.6-3.1c0-0.1,0-0.2,0-0.3
	c0.1-1.9-1.3-3.5-3.2-3.7c0,0-0.1,0-0.1,0c-1.9,0-3.4,1.5-3.4,3.4C55.8,106.3,55.8,106.4,55.8,106.4z"/>
<path d="M92.6,102.2c1.3-0.1,2.6-0.1,3.8,0c2.3,0.2,3.9,2.2,3.7,4.5c0,0,0,0.1,0,0.1c-0.1,2.2-1.9,3.9-4.1,4c-1.1,0.1-2.2,0-3.4,0
	V102.2z M93.6,103v6.9c0.8,0,1.6,0,2.4,0c1.7-0.1,3-1.4,3.1-3.1c0.2-1.6-0.9-3.1-2.4-3.5C95.7,103.1,94.6,103,93.6,103L93.6,103z"/>
<path d="M131.3,102.1h1c0,1.1,0,2.1,0,3.1c0,1,0,1.9-0.1,2.9c-0.3,1.9-1.7,2.9-3.7,2.8c-1.8,0.1-3.3-1.3-3.4-3.1c0,0,0,0,0,0
	c-0.1-1.9,0-3.8,0-5.7l1-0.1c0,0.4,0,0.7,0,1.1c0,1.6,0,3.2,0.2,4.8c0.1,1.4,1.1,2,2.6,2c1.2,0.1,2.3-0.8,2.4-2
	c0.1-1.1,0.1-2.2,0.1-3.4C131.3,103.8,131.3,103,131.3,102.1z"/>
<path d="M173.1,110.8H172v-7.7h-2.8v-0.9h6.7v0.9h-2.8L173.1,110.8z"/>
<path d="M87.3,109.9v1h-5.8v-8.7h1v7.7H87.3z"/>
<path d="M162.8,102.2h0.9v8.6h-0.9V102.2z"/>
<path class="st0" d="M93.8,27.3c0-10.8,8.7-19.6,19.5-19.6c10.8,0,19.6,8.7,19.6,19.5s-8.7,19.6-19.5,19.6
	C102.7,46.8,93.9,38.1,93.8,27.3L93.8,27.3z M123.4,27.2c0-4,0-8,0-12c0-1.1-0.2-1.4-1.3-1.4c-5.9,0-11.8,0-17.7,0
	c-1,0-1.3,0.3-1.3,1.3c0,1.4,0,2.7,0,4.1c0,1.1,0.3,1.3,1.4,1.3h10.2c0.4,0,0.9,0,1.3,0.2c0.3,0.1,0.5,0.3,0.6,0.6
	c0.1,0.6,0.1,1.1,0.1,1.7c-0.1,1.9-0.2,2-2.1,2h-8c-1.2,0-1.4,0.2-1.4,1.4s0,2.3,0,3.4s0.3,1.4,1.5,1.4c2.5,0,4.9-0.1,7.4-0.1
	s2.6,0,2.6,2.6c0,1.8,0,3.6,0,5.4c0,1.1,0.2,1.3,1.3,1.4c1.3,0.1,2.5,0.1,3.8,0c1.4,0,1.6-0.2,1.6-1.7
	C123.4,35,123.4,31.1,123.4,27.2z"/>
<path class="st0" d="M115.6,81.6c0.7-0.1,1.4-0.1,2.1,0c0.9,0.1,1.8,0.4,2.6,0.8c0.9,0.6,1.2,1.8,0.7,2.7c-0.1,0.2-0.3,0.5-0.6,0.6
	c-0.8,0.7-1.8,1-2.9,1c-1.5,0-3.1,0-4.6,0c-0.7,0-1.1-0.3-1.1-1.1c0-1,0-2,0-2.9s0.3-1.2,1.2-1.2S114.8,81.5,115.6,81.6L115.6,81.6z
	"/>
<path class="st0" d="M115.2,75.5h-2.5c-0.4,0.1-0.8-0.2-0.9-0.7c0-0.1,0-0.1,0-0.2c0-1,0-2,0-3c0-0.6,0.3-1,0.9-1
	c2,0.1,3.9-0.3,5.9,0.5c0.8,0.2,1.3,0.9,1.4,1.7c0.2,0.9-0.2,1.8-1,2.2c-0.6,0.3-1.2,0.4-1.8,0.5C116.5,75.6,115.8,75.6,115.2,75.5
	L115.2,75.5z"/>
<path class="st0" d="M33.8,75.5c0-0.9,0-1.7,0-2.6c0-0.7,0.3-1,1-1c1.6,0,3.1,0,4.7,0c1.6,0.1,2.8,1.2,3.1,2.8
	c0.3,2.4-0.6,3.8-2.4,4.1c-1.9,0.2-3.8,0.4-5.6,0.3c-0.5,0-0.8-0.4-0.8-0.9C33.8,77.3,33.8,76.4,33.8,75.5L33.8,75.5z"/>
<path class="st0" d="M151.5,75.6c0-0.9,0-1.9,0-2.8c0-0.6,0.3-0.9,0.9-0.9c1.6,0,3.2,0,4.8,0c1.5,0,2.7,1,3.1,2.4
	c0.5,1.4,0,3.1-1.2,3.9c-0.8,0.6-1.8,0.9-2.8,0.9c-1.2,0-2.5,0-3.7,0c-0.8,0-1.1-0.3-1.1-1.1S151.4,76.4,151.5,75.6L151.5,75.6z"/>
<path class="st0" d="M179.2,78.5c0-2,0-4,0-6c0-1,0.2-1.2,1.1-1.2c2.3-0.1,4.7,0,6.7,1.3c2.6,1.8,3.7,5.1,2.8,8.1
	c-0.8,2.9-3.4,5-6.5,5.1c-0.9,0-1.9,0.1-2.8,0c-1.2-0.1-1.3-0.3-1.3-1.4C179.3,82.5,179.2,80.5,179.2,78.5z"/>
<path class="st0" d="M113.9,109.8V107c1.2,0,2.4-0.1,3.6,0c0.7,0,1.3,0.6,1.3,1.3c0,0,0,0,0,0.1c0,0.8-0.5,1.4-1.3,1.4c0,0,0,0,0,0
	C116.3,109.9,115.1,109.8,113.9,109.8z"/>
<path class="st0" d="M113.9,106.1v-3c1.1,0,2.2-0.1,3.2,0c0.7,0,1.2,0.6,1.2,1.3c0,0,0,0,0,0.1c0.1,0.7-0.5,1.3-1.2,1.4
	C116.1,106,115,106,113.9,106.1z"/>
<path class="st0" d="M70.1,106.4v-3.3c1.1,0,2.2-0.1,3.2,0c0.9,0,1.6,0.8,1.6,1.7c0,0.8-0.7,1.5-1.5,1.6
	C72.4,106.5,71.3,106.5,70.1,106.4z"/>
<path class="st0" d="M139,106.5v-3.4c1.1,0,2.1-0.1,3.1,0c0.9,0,1.6,0.7,1.6,1.6c0,0,0,0,0,0c0,0.9-0.7,1.7-1.6,1.7
	C141.2,106.5,140.1,106.5,139,106.5z"/>
<path class="st0" d="M151.4,106.4v-3.3c1.1,0,2.2-0.1,3.2,0c0.8,0,1.5,0.7,1.6,1.5c0.1,0.8-0.4,1.6-1.3,1.8c0,0-0.1,0-0.1,0
	C153.6,106.5,152.5,106.5,151.4,106.4z"/>
<path class="st0" d="M188,106.5c0.1,1.8-1.4,3.4-3.2,3.5c-0.1,0-0.1,0-0.2,0c-2,0.1-3.6-1.4-3.7-3.4s1.4-3.6,3.4-3.7
	c2-0.1,3.6,1.4,3.7,3.4C188,106.4,188,106.4,188,106.5z"/>
<path class="st0" d="M55.8,106.4c-0.1-1.9,1.4-3.5,3.3-3.5c0,0,0.1,0,0.1,0c1.9,0.1,3.4,1.7,3.4,3.6c0,0,0,0,0,0.1
	c0.1,1.9-1.4,3.4-3.3,3.5c-1.9,0.1-3.4-1.4-3.5-3.3C55.8,106.6,55.8,106.5,55.8,106.4L55.8,106.4z"/>
<path class="st0" d="M93.6,103c1,0,2.1,0.1,3.1,0.3c1.6,0.4,2.6,1.9,2.4,3.5c-0.1,1.7-1.4,3-3.1,3.1c-0.8,0-1.6,0-2.4,0L93.6,103z"
	/>
<path class="st1" d="M123.4,27.2c0,3.9,0,7.8,0,11.8c0,1.4-0.2,1.6-1.6,1.7c-1.3,0-2.5,0-3.8,0c-1.1-0.1-1.3-0.3-1.3-1.4
	c0-1.8,0-3.6,0-5.4c0-2.6,0-2.6-2.6-2.6s-4.9,0.1-7.4,0.1c-1.2,0-1.5-0.3-1.5-1.4s0-2.3,0-3.4s0.2-1.4,1.4-1.4h8c1.9,0,2-0.1,2.1-2
	c0-0.6,0-1.2-0.1-1.7c-0.1-0.3-0.3-0.5-0.6-0.6c-0.4-0.1-0.9-0.2-1.3-0.2h-10.2c-1.1,0-1.4-0.3-1.4-1.3c0-1.4,0-2.7,0-4.1
	c0-1,0.3-1.3,1.3-1.3c5.9,0,11.8,0,17.7,0c1.1,0,1.3,0.2,1.3,1.4C123.4,19.1,123.4,23.2,123.4,27.2z"/>
<path d="M230.9,93.2c1.9,0,3.4-1.5,3.4-3.4c0-1.9-1.5-3.4-3.4-3.4c-1.9,0-3.4,1.5-3.4,3.4c0,0,0,0,0,0
	C227.5,91.7,229,93.2,230.9,93.2z M230.9,92.6c-1.5,0-2.8-1.3-2.8-2.8c0-1.5,1.3-2.8,2.8-2.8c1.5,0,2.8,1.3,2.8,2.8
	S232.4,92.6,230.9,92.6L230.9,92.6z"/>
<path d="M230.2,90.1h0.7l1,1.7h0.6l-1.1-1.7c0.6,0,1-0.4,1-1c0,0,0,0,0-0.1c0-0.8-0.4-1.1-1.4-1.1h-1.5v3.9h0.6L230.2,90.1
	L230.2,90.1z M230.2,89.6v-1.2h0.8c0.4,0,0.8,0.1,0.8,0.6s-0.4,0.6-0.9,0.6L230.2,89.6z"/>
</svg>
