<?xml version="1.0" encoding="utf-8"?>
<!-- Generator: Adobe Illustrator 21.1.0, SVG Export Plug-In . SVG Version: 6.00 Build 0)  -->
<svg version="1.1" id="Layer_1" xmlns="http://www.w3.org/2000/svg" xmlns:xlink="http://www.w3.org/1999/xlink" x="0px" y="0px"
	 viewBox="0 0 154 154" style="enable-background:new 0 0 154 154;" xml:space="preserve">
<style type="text/css">
	.st0{fill:#2E953E;}
	.st1{fill:#FFFFFF;}
	.st2{fill:#81C341;}
</style>
<title>Grocery</title>
<path class="st0" d="M147.3,153.5H6.7c-3.4-0.1-6.2-2.8-6.2-6.2V6.7c0.1-3.4,2.8-6.2,6.2-6.2h140.6c3.4,0.1,6.2,2.8,6.2,6.2v140.6
	C153.4,150.7,150.7,153.4,147.3,153.5z"/>
<path class="st1" d="M67.4,34.9h-2.9v12.4h-1.9v-12c0-0.3-0.2-0.5-0.5-0.5c0,0,0,0,0,0h-2.9V33h8.1L67.4,34.9L67.4,34.9"/>
<path class="st1" d="M80.8,47.4h-1.9v-6.2h-5.3v5.7h-1.9V33h1.9v5.7h5.3V33h1.9V47.4L80.8,47.4"/>
<path class="st1" d="M94.7,47.4h-8.6V33h8.6v1.9H89v3.8h4.8v1.9H89V44h5.7L94.7,47.4L94.7,47.4"/>
<path class="st1" d="M48.8,109.5h-1.9v-9.1l0,0c-0.2,0.6-0.4,1.3-0.5,1.9l-2.4,5.3h-1.9l-2.4-5.3c-0.1-0.6-0.3-1.3-0.5-1.9l0,0v9.1
	h-1.9V95.6h1.9l3.3,8.1c0,0.4,0.2,0.7,0.5,1l0,0c0-0.4,0.2-0.7,0.5-1l3.3-8.1h1.9L48.8,109.5L48.8,109.5"/>
<path class="st1" d="M63.1,109.5h-2.4l-1-2.4h-4.3l-1,2.4H52c0,0-0.5,0,0-0.5l4.3-13.9h1.4L63.1,109.5L63.1,109.5 M58.3,100.9
	c0-0.5-0.5-1.4-0.5-1.9l0,0c0,0.7-0.2,1.3-0.5,1.9l-1,3.8h2.4L58.3,100.9z"/>
<path class="st1" d="M76.5,109.5h-2.4l-2.4-5.7h-2.4v5.7h-1.9V95.6h4.8c2.2-0.2,4.1,1.5,4.3,3.7c0,0.2,0,0.4,0,0.6l0,0
	c0,1.2-0.8,2.4-1.9,2.9v0.5L76.5,109.5L76.5,109.5 M73.6,99.5c-0.1-1-0.9-1.8-1.9-1.9h-2.9v3.8h3.3C73.2,101.4,73.6,101,73.6,99.5
	L73.6,99.5z"/>
<path class="st1" d="M91.3,109.5H88l-3.4-5.7h-0.5l-1,1.4v4.3h-1.9V95.6h1.9v6.2l4.8-6.2h2.4c0.5,0,0.5,0,0,0.5l-4.3,5.3l0,0
	L91.3,109.5L91.3,109.5"/>
<path class="st1" d="M103.3,109.5h-8.6V95.6h8.6v1.9h-5.7v3.4h4.8v1.9h-4.8v3.4h5.7V109.5L103.3,109.5"/>
<path class="st1" d="M114.3,97.6h-2.9v12h-1.9V98c0-0.3-0.2-0.5-0.5-0.5c0,0,0,0,0,0h-3.4v-1.9h8.6V97.6L114.3,97.6"/>
<path class="st2" d="M24.4,47.4V22.5h104.7v24.9h4.3V22.5c0.1-2.5-1.8-4.6-4.2-4.8c-0.2,0-0.4,0-0.5,0H24.9c-2.6,0-4.8,2.1-4.8,4.8
	v24.9H24.4z"/>
<path class="st2" d="M129.6,95.2v34.4H98.5c-1,1.7-2.1,3.3-3.4,4.8h33.9c2.6,0,4.8-2.1,4.8-4.8V95.2H129.6z"/>
<path class="st2" d="M24.4,95.2v34.4h31.1c1,1.7,2.1,3.3,3.3,4.8h-34c-2.6,0-4.8-2.1-4.8-4.8V95.2H24.4z"/>
<path class="st1" d="M79.4,121c-9.1-1.4-15.8,3.8-14.8,10c8.1-7.2,13.9-3.4,23.4-5.7c0.5,0,0,0.5-0.5,0.5c-4.8,2.4-8.6,0.5-15.3,2.4
	c-5.3,1.4-8.6,6.2-10.5,9.1c-0.5,1.4,0.5,2.9,0.5,3.4c0.5,0.5,0.5,0.5,0.5,0c0.1-2.2,1.2-4.3,2.9-5.7c6.2,6.7,22,7.2,32-14.8
	c0-0.5,0-1.4-1-0.5C92.2,121.9,88.4,122.4,79.4,121"/>
<path class="st1" d="M30.1,56.9H12.5c-0.5,0-0.5,0-0.5,0.5v28.2c0,0.5,0,0.5,0.5,0.5h4.3c0.5,0,0.5,0,0.5-0.5V74.1
	c0-0.5,0-0.5,0.5-0.5h10c0.5,0,0.5,0,0.5-0.5v-3.8c0-0.3-0.2-0.5-0.5-0.5c0,0,0,0,0,0h-10c-0.5,0-0.5,0-0.5-0.5v-6.7
	c0-0.5,0-0.5,0.5-0.5h12.4c0.5,0,0.5,0,0.5-0.5v-3.3C30.6,57.1,30.4,56.9,30.1,56.9C30.2,56.9,30.1,56.9,30.1,56.9z"/>
<path class="st1" d="M54.5,72.7c0-0.5,0-0.5,0.5-1c2.4-1,3.8-3.8,3.8-6.2V65c0-5.3-3.3-8.6-9.1-8.6H38.3c-0.5,0-0.5,0-0.5,0.5v28.2
	c0,0.5,0,0.5,0.5,0.5h4.3c0.5,0,0.5,0,0.5-0.5V73.7c0-0.5,0-0.5,0.5-0.5h5.3c0.5,0,0.5,0,0.5,0.5l4.8,12c0,0.3,0.2,0.5,0.5,0.5
	c0,0,0,0,0,0h4.8c0.3,0,0.5-0.2,0.5-0.5c0,0,0,0,0,0L54.5,72.7z M53.5,65.5c0,2.1-1.6,3.8-3.7,3.8c0,0-0.1,0-0.1,0h-6.2
	c-0.5,0-0.5,0-0.5-0.5v-7.2c0-0.5,0-0.5,0.5-0.5h6.2c1.9-0.2,3.7,1.2,3.8,3.2c0,0.2,0,0.4,0,0.7L53.5,65.5z"/>
<path class="st1" d="M85.6,56.9H67.9c-0.5,0-0.5,0-0.5,0.5v28.2c0,0.5,0,0.5,0.5,0.5h17.7c0.5,0,0.5,0,0.5-0.5v-3.4
	c0-0.3-0.2-0.5-0.5-0.5c0,0,0,0,0,0H73.2c-0.5,0-0.5,0-0.5-0.5v-7.2c0-0.5,0-0.5,0.5-0.5h10c0.5,0,0.5,0,0.5-0.5v-3.8
	c0-0.3-0.2-0.5-0.5-0.5c0,0,0,0,0,0h-10c-0.5,0-0.5,0-0.5-0.5v-6.7c0-0.5,0-0.5,0.5-0.5h12.4c0.5,0,0.5,0,0.5-0.5v-3.3
	C86.1,57.1,85.9,56.9,85.6,56.9C85.6,56.9,85.6,56.9,85.6,56.9z"/>
<path class="st1" d="M141.6,56.9h-4.3c-0.5,0-0.5,0-0.5,0.5v11c0,0.5,0,0.5-0.5,0.5h-10c-0.5,0-0.5,0-0.5-0.5v-11
	c0-0.3-0.2-0.5-0.5-0.5c0,0,0,0,0,0H121c-0.5,0-0.5,0-0.5,0.5v28.2c0,0.5,0,0.5,0.5,0.5h4.3c0.5,0,0.5,0,0.5-0.5V74.1
	c0-0.5,0-0.5,0.5-0.5h10c0.5,0,0.5,0,0.5,0.5v11.5c0,0.5,0,0.5,0.5,0.5h4.3c0.5,0,0.5,0,0.5-0.5V57.4
	C142,57.1,141.8,56.9,141.6,56.9z"/>
<path class="st1" d="M99.9,82.3c-0.5,0-0.5-0.5-1-0.5C99.3,81.8,99.7,82,99.9,82.3z"/>
<path class="st1" d="M104.3,69.3c-2.9-1-6.2-2.4-6.2-4.8c0-1.1,0.5-2.2,1.4-2.9h1c0.7-0.4,1.6-0.6,2.4-0.5c1,0,2,0.4,2.9,1l0,0
	c0.6,0.5,1.1,1.2,1.4,1.9c0,0.5,0.5,0.5,1,0l3.4-1.9c0.5,0,0.5-0.5,0-1c-1-1.4-1.9-2.9-3.8-3.3l0,0c-1.7-0.6-3.5-0.9-5.3-1
	c-1.5,0.1-2.9,0.4-4.3,1h-0.5c-3,1.3-4.9,4.4-4.8,7.7c0,5.3,3.4,7.2,7.6,8.6c3.4,1.4,6.2,2.4,6.2,5.3c0,1.1-0.5,2.2-1.4,2.9l0,0
	c-0.3,0-0.5,0.2-0.5,0.5c0,0,0,0,0,0h-0.5c-0.9,0.4-1.9,0.6-2.9,0.5c-0.7,0.1-1.3-0.1-1.9-0.5c-0.5,0-0.5,0-1-0.5l0,0
	c-0.6-0.5-1.1-1.2-1.4-1.9c0-0.5-0.5-0.5-1,0l-3.4,1.9c-0.5,0.5-0.5,0.5,0,1c1,1.4,1.9,2.9,3.8,3.4h1c1.4,0.4,2.9,0.6,4.3,0.5
	c1.6-0.1,3.2-0.4,4.8-1h0.5c0.3,0,0.5-0.2,0.5-0.5c0,0,0,0,0,0l0,0c2.9-1.4,4.3-3.8,4.3-7.7C111.9,72.7,108.6,70.8,104.3,69.3z"/>
</svg>
