<svg id="Layer_1" data-name="Layer 1" xmlns="http://www.w3.org/2000/svg" viewBox="0 0 250 250"><defs><style>.cls-1{fill:#f9e8a0;}.cls-2{fill:#5c7719;}.cls-3{fill:red;}.cls-4{fill:#414042;}</style></defs><title>Freshly Prepared Juice Drinks</title><path class="cls-1" d="M77.83,119H184.17s11,20,9.67,42.5S169.7,200,163,200.5s-18,0-18,0L73.5,143.33S72.83,126.67,77.83,119Z"/><path class="cls-2" d="M34.42,147.75l21.25.75s1.5,33.58,24.17,38.5,33.92,5.5,47.67-4.75,15.9-34.5,15.9-34.5H161s1.25,24.67-10.92,37.17-31.92,27.92-54.58,25.5S55.92,199,48.75,186,33.25,152.67,34.42,147.75Z"/><path class="cls-3" d="M55,147.25h88.4S142,192.38,97.88,191.5,55,147.25,55,147.25Z"/><path class="cls-4" d="M217.22,119.51c-2.94-16.12-25.35-50.12-26.3-51.57l-.57-.83-24.8-2.37h0V52.65L75.24,37.59a4.88,4.88,0,0,0-4.34,8.16L92.76,68.91a10.6,10.6,0,0,1,2.37,4.34c4,13.68.28,21.84-1.47,24.73a3.27,3.27,0,0,1-1.33,1.14c-22,10.91-20.68,43.18-20.6,44.55v.26l4.22-.19v-.28a66.82,66.82,0,0,1,3.65-22.74h103a99.77,99.77,0,0,1,5.83,16.1c6,23.71,4.41,43.25-22.81,61.51h-22v4.22h23.28l.55-.36c31.56-20.89,30.82-44.27,25.11-66.39-4.74-19-17.57-38.55-23.28-46.71l12.12,2.37,18.33,36.82v.12l1,.21A15.1,15.1,0,0,0,212.76,127a11,11,0,0,0,4.46-6.8v-.71ZM163.8,85.72a2.92,2.92,0,0,0,0,3.3,192.63,192.63,0,0,1,16.6,27.46h-99a28.6,28.6,0,0,1,12.85-13.61,7.42,7.42,0,0,0,3.06-2.7c2.06-3.37,6.35-12.83,1.94-28.1a14.91,14.91,0,0,0-3.46-6L73.89,42.85a.64.64,0,0,1,.59-1.09L161.26,56V64.5a4.32,4.32,0,0,0,3.91,4.32L188,71c3.86,6,22.22,34.69,25,48.75a6.81,6.81,0,0,1-2.63,3.79,10.39,10.39,0,0,1-7.73,1.11L184.31,88v-.14l-17.45-3.39A3,3,0,0,0,163.8,85.72Z"/><path class="cls-4" d="M163,147.87l-.21-2.37H35.66a2.94,2.94,0,0,0-2.16.95,2.89,2.89,0,0,0-.76,2.18c.21,2.61,5.86,64,65.68,63.9h.52a64.87,64.87,0,0,0,46.92-19.77A61.06,61.06,0,0,0,163,147.87Zm-4.74,2.37a56.55,56.55,0,0,1-15.86,39.26,60.23,60.23,0,0,1-43.41,18.23h-.47c-51.07,0-59.56-47.21-60.82-57.66h14.7c.62,24,21.34,43.49,46.62,43.49s46-19.44,46.62-43.41Zm-51.71,0h34.4a38.77,38.77,0,0,1-9.65,24.3ZM100,188.84V150.12l28,27.67A42.94,42.94,0,0,1,100,188.84ZM57,150.07H88.21l-22.6,23A38.27,38.27,0,0,1,57,150.07ZM68.74,176.6,94.82,150.1h.55v38.6A42.68,42.68,0,0,1,68.74,176.6Z"/></svg>