<svg id="Layer_1" data-name="Layer 1" xmlns="http://www.w3.org/2000/svg" viewBox="0 0 250 250"><defs><style>.cls-1{fill:#6c9d31;}.cls-2{isolation:isolate;}.cls-3{fill:#fff;}.cls-4,.cls-6{fill:#cadb2a;}.cls-5{fill:none;stroke:#fff;stroke-width:3px;}.cls-6{stroke:#6c9d31;}</style></defs><title>Fresh &amp;amp; Easy</title><path class="cls-1" d="M47.88,67.47V129.1s7.36,27.6,29.44,27.6h94.75s29.44-2.76,29.44-31.28V96.91S196.91,67.47,173,67.47Z"/><g class="cls-2"><g class="cls-2"><path class="cls-3" d="M57.77,89.23H59V87.5a12.43,12.43,0,0,1,.6-4.3,4.14,4.14,0,0,1,2-2.32,8.86,8.86,0,0,1,3.95-.73q4.44,0,4.44,2.47A2.1,2.1,0,0,1,69.55,84a1.38,1.38,0,0,1-1.1.57,6.93,6.93,0,0,1-1-.13,7.36,7.36,0,0,0-1.23-.13,1.7,1.7,0,0,0-1.77.92,7,7,0,0,0-.39,2.63v1.37H65.3q2.9,0,2.9,2,0,1.41-.77,1.79a4.89,4.89,0,0,1-2.13.38H64.05v15.26a4.1,4.1,0,0,1-.72,2.61,2.26,2.26,0,0,1-1.85.9,2.2,2.2,0,0,1-1.79-.9,4.1,4.1,0,0,1-.72-2.61V93.39H57.58a2.44,2.44,0,0,1-1.75-.58,2,2,0,0,1-.61-1.51Q55.23,89.23,57.77,89.23Z"/></g><g class="cls-2"><path class="cls-3" d="M75.89,103.84v4.81a4.05,4.05,0,0,1-.72,2.63,2.29,2.29,0,0,1-1.84.88,2.2,2.2,0,0,1-1.8-.89,4.13,4.13,0,0,1-.71-2.62v-16q0-3.88,2.47-3.88a2,2,0,0,1,1.82.91,5.54,5.54,0,0,1,.61,2.68,10,10,0,0,1,1.87-2.68,3.56,3.56,0,0,1,2.55-.91,5.93,5.93,0,0,1,3.1.91A2.73,2.73,0,0,1,84.75,92a2.45,2.45,0,0,1-.64,1.74,1.88,1.88,0,0,1-1.38.69,5.74,5.74,0,0,1-1.35-.39,5.6,5.6,0,0,0-1.89-.39,2.55,2.55,0,0,0-1.82.67,4.37,4.37,0,0,0-1.1,2A15.44,15.44,0,0,0,76,99.44Q75.89,101.24,75.89,103.84Z"/></g><g class="cls-2"><path class="cls-3" d="M100.73,101.85H90.8a8.52,8.52,0,0,0,.7,3.46,5.24,5.24,0,0,0,1.8,2.26,4.33,4.33,0,0,0,2.48.76,5.4,5.4,0,0,0,1.66-.24,5.12,5.12,0,0,0,1.46-.76,11.33,11.33,0,0,0,1.3-1.11q.59-.59,1.54-1.6a1.53,1.53,0,0,1,1.11-.38,1.71,1.71,0,0,1,1.26.49,1.86,1.86,0,0,1,.48,1.37,4.11,4.11,0,0,1-.54,1.83,7,7,0,0,1-1.63,2,8.92,8.92,0,0,1-2.73,1.59,10.47,10.47,0,0,1-3.78.63,9.46,9.46,0,0,1-7.6-3.17q-2.71-3.17-2.71-8.59a16.13,16.13,0,0,1,.67-4.74,10.83,10.83,0,0,1,2-3.75,8.49,8.49,0,0,1,3.16-2.4,10.14,10.14,0,0,1,4.16-.83,8.81,8.81,0,0,1,8.29,5.11,10.74,10.74,0,0,1,1.06,4.6q0,2.17-1.1,2.82A6.12,6.12,0,0,1,100.73,101.85ZM90.8,98.58H100a7.59,7.59,0,0,0-1.4-4.42,4,4,0,0,0-3.2-1.47,3.84,3.84,0,0,0-3.11,1.49A8,8,0,0,0,90.8,98.58Z"/><path class="cls-3" d="M125.51,104.62a7.78,7.78,0,0,1-1,4.09,6.41,6.41,0,0,1-3,2.58,12.08,12.08,0,0,1-4.86.88,10.61,10.61,0,0,1-4.68-1,7,7,0,0,1-2.88-2.37,5.2,5.2,0,0,1-.93-2.86,2.38,2.38,0,0,1,.59-1.63,1.92,1.92,0,0,1,1.5-.68,1.62,1.62,0,0,1,1.23.44,4.86,4.86,0,0,1,.82,1.25,6.07,6.07,0,0,0,1.87,2.3,5.09,5.09,0,0,0,3,.76,3.91,3.91,0,0,0,2.5-.77,2.22,2.22,0,0,0,1-1.76,2.5,2.5,0,0,0-1-2.22,11.57,11.57,0,0,0-3.33-1.33,25.35,25.35,0,0,1-4.26-1.55,7.13,7.13,0,0,1-2.63-2.14,5.34,5.34,0,0,1-1-3.27,6.33,6.33,0,0,1,.91-3.27,6.48,6.48,0,0,1,2.68-2.46,9.22,9.22,0,0,1,4.28-.92,12.47,12.47,0,0,1,3.54.46,8.31,8.31,0,0,1,2.62,1.25,5.81,5.81,0,0,1,1.6,1.73,3.71,3.71,0,0,1,.55,1.86,2.3,2.3,0,0,1-.58,1.63,2.15,2.15,0,0,1-1.66.63,1.89,1.89,0,0,1-1.33-.51,9.55,9.55,0,0,1-1.25-1.52,4.82,4.82,0,0,0-1.36-1.35,3.85,3.85,0,0,0-2.12-.51,3.77,3.77,0,0,0-2.29.67,2,2,0,0,0-.91,1.66,1.88,1.88,0,0,0,.67,1.49,5.28,5.28,0,0,0,1.8,1q1.13.38,3.12.93a15.45,15.45,0,0,1,3.85,1.56,6.7,6.7,0,0,1,2.27,2.14A5.21,5.21,0,0,1,125.51,104.62Z"/><path class="cls-3" d="M134.76,83.66v8.55a11.52,11.52,0,0,1,1.88-2,6.49,6.49,0,0,1,2-1.11,7.57,7.57,0,0,1,2.4-.37,6.13,6.13,0,0,1,5.78,3.63,7.19,7.19,0,0,1,.72,2.31,20.65,20.65,0,0,1,.19,2.94v11a4.18,4.18,0,0,1-.7,2.62,2.23,2.23,0,0,1-1.85.89q-2.51,0-2.51-3.5V98.92a10,10,0,0,0-.72-4.25,2.77,2.77,0,0,0-2.75-1.49,3.79,3.79,0,0,0-2.44.88,5.24,5.24,0,0,0-1.62,2.4,17.34,17.34,0,0,0-.41,4.58v7.62a4.27,4.27,0,0,1-.68,2.61,2.23,2.23,0,0,1-1.89.9q-2.51,0-2.51-3.5v-25a4.35,4.35,0,0,1,.66-2.63,2.18,2.18,0,0,1,1.85-.88,2.24,2.24,0,0,1,1.89.89A4.26,4.26,0,0,1,134.76,83.66Z"/></g></g><g class="cls-2"><path class="cls-4" d="M80.19,120.88a6.41,6.41,0,0,1,1-3.5,6.89,6.89,0,0,1,2.94-2.51,10.47,10.47,0,0,1,4.57-.93,9.78,9.78,0,0,1,4.5,1A6.81,6.81,0,0,1,96,117.44a6.27,6.27,0,0,1,.94,3.26,5.86,5.86,0,0,1-1.53,4,19.3,19.3,0,0,1-4.5,3.49l1.92,2.29q.89,1.07,1.72,2t1.51,1.59q.31-.58,1-2.17a9.61,9.61,0,0,1,1.22-2.29,1.94,1.94,0,0,1,1.6-.7,2.44,2.44,0,0,1,1.71.69,2.21,2.21,0,0,1,.74,1.68,7.83,7.83,0,0,1-.64,2.57,24,24,0,0,1-1.86,3.69q.76.66,2.43,2a16.38,16.38,0,0,1,2,1.83,2,2,0,0,1,.38,1.29,2.39,2.39,0,0,1-.77,1.81,2.46,2.46,0,0,1-1.73.73,3.3,3.3,0,0,1-1.88-.62q-.91-.62-3.86-3a14.34,14.34,0,0,1-2.78,2.07,11.93,11.93,0,0,1-3.08,1.2,15.8,15.8,0,0,1-3.67.39,13.42,13.42,0,0,1-4.64-.75,9.91,9.91,0,0,1-3.42-2,8.39,8.39,0,0,1-2-2.84,8.06,8.06,0,0,1-.66-3.17,7.71,7.71,0,0,1,1.89-5.18,12.53,12.53,0,0,1,2.21-2,24.07,24.07,0,0,1,3-1.83A22.39,22.39,0,0,1,81,124,6.66,6.66,0,0,1,80.19,120.88Zm5.85,9.9a12.13,12.13,0,0,0-3.15,2.44,4.31,4.31,0,0,0-1,2.89,4.46,4.46,0,0,0,.38,1.82,5.39,5.39,0,0,0,1.12,1.61,5,5,0,0,0,1.7,1.14,5.41,5.41,0,0,0,2,.39,6.42,6.42,0,0,0,2-.33,7.49,7.49,0,0,0,1.88-.94,14.85,14.85,0,0,0,1.84-1.52,45.38,45.38,0,0,1-3.31-3.36Q88.08,133.25,86,130.77Zm2.11-5.66a19.77,19.77,0,0,0,3-2.26,3,3,0,0,0,.94-2.22,2.81,2.81,0,0,0-.94-2.15,3.65,3.65,0,0,0-4.75,0,2.76,2.76,0,0,0-1,2.09,3,3,0,0,0,.36,1.33,9.15,9.15,0,0,0,.9,1.42Q87.28,124,88.15,125.11Z"/></g><g class="cls-2"><path class="cls-3" d="M119.2,128.64H109.12a6.85,6.85,0,0,0,.71,3.09,4.73,4.73,0,0,0,4.35,2.7,6.17,6.17,0,0,0,1.69-.22,5.51,5.51,0,0,0,1.48-.68,11.33,11.33,0,0,0,1.32-1q.6-.53,1.57-1.43a1.69,1.69,0,0,1,1.13-.34,1.87,1.87,0,0,1,1.28.43,1.55,1.55,0,0,1,.49,1.23,3.35,3.35,0,0,1-.55,1.63,6.48,6.48,0,0,1-1.65,1.79,9.39,9.39,0,0,1-2.77,1.42,11.93,11.93,0,0,1-3.84.57q-5,0-7.72-2.83a10.54,10.54,0,0,1-2.75-7.68,12.81,12.81,0,0,1,.68-4.24,9.35,9.35,0,0,1,2-3.35,8.59,8.59,0,0,1,3.21-2.14,11.5,11.5,0,0,1,4.23-.75,10,10,0,0,1,5.18,1.27,8.37,8.37,0,0,1,3.24,3.29,8.66,8.66,0,0,1,1.08,4.11q0,1.94-1.11,2.52A6.94,6.94,0,0,1,119.2,128.64Zm-10.07-2.92h9.34a6.26,6.26,0,0,0-1.42-4,4.27,4.27,0,0,0-3.25-1.31,4.12,4.12,0,0,0-3.16,1.33A6.62,6.62,0,0,0,109.12,125.72Z"/><path class="cls-3" d="M140.8,134.95a15.92,15.92,0,0,1-3.61,2.18,10.1,10.1,0,0,1-3.92.73,7.41,7.41,0,0,1-3.48-.78,5.71,5.71,0,0,1-2.31-2.12,5.5,5.5,0,0,1-.81-2.91,5.2,5.2,0,0,1,1.34-3.6,6.7,6.7,0,0,1,3.68-2l2.43-.51q1.94-.4,3.33-.73t3-.8a5.38,5.38,0,0,0-.82-3q-.73-1-3-1a6.28,6.28,0,0,0-3,.55,4.8,4.8,0,0,0-1.7,1.64,17.32,17.32,0,0,1-1,1.44,1.64,1.64,0,0,1-1.25.35,2.19,2.19,0,0,1-1.5-.56,1.81,1.81,0,0,1-.63-1.42,4.36,4.36,0,0,1,1-2.64,6.88,6.88,0,0,1,3-2.11,13.51,13.51,0,0,1,5.08-.83,14.35,14.35,0,0,1,5.34.8,5,5,0,0,1,2.75,2.54,11.09,11.09,0,0,1,.8,4.6q0,1.81,0,3.08t0,2.81a10.37,10.37,0,0,0,.48,3,9.51,9.51,0,0,1,.48,2,1.9,1.9,0,0,1-.75,1.44,2.5,2.5,0,0,1-1.69.65,2.28,2.28,0,0,1-1.57-.75A11.05,11.05,0,0,1,140.8,134.95Zm-.34-7.45a26,26,0,0,1-3.29.88q-2.16.46-3,.68a4.07,4.07,0,0,0-1.58.85,2.18,2.18,0,0,0-.75,1.76,2.62,2.62,0,0,0,.89,2,3.28,3.28,0,0,0,2.32.82,6,6,0,0,0,2.82-.67,4.46,4.46,0,0,0,1.9-1.73,7.89,7.89,0,0,0,.7-3.85Z"/><path class="cls-3" d="M167.32,131.12a6,6,0,0,1-4.1,6,13.73,13.73,0,0,1-4.93.78,12,12,0,0,1-4.75-.85,6.93,6.93,0,0,1-2.92-2.12,4.27,4.27,0,0,1-.94-2.56,2,2,0,0,1,.6-1.45,2.07,2.07,0,0,1,1.53-.6,1.78,1.78,0,0,1,1.25.4,4.35,4.35,0,0,1,.83,1.11,5.64,5.64,0,0,0,1.9,2.06,5.71,5.71,0,0,0,3,.68,4.34,4.34,0,0,0,2.54-.69,1.94,1.94,0,0,0,1-1.58,2.14,2.14,0,0,0-1-2,12.71,12.71,0,0,0-3.39-1.19,28.09,28.09,0,0,1-4.33-1.39,7.14,7.14,0,0,1-2.67-1.92,4.38,4.38,0,0,1-1-2.92,5.16,5.16,0,0,1,.92-2.92,6.33,6.33,0,0,1,2.73-2.2,10.42,10.42,0,0,1,4.35-.82,14.31,14.31,0,0,1,3.59.42,9,9,0,0,1,2.66,1.11,5.51,5.51,0,0,1,1.62,1.55,3,3,0,0,1,.56,1.66,1.92,1.92,0,0,1-.59,1.45,2.35,2.35,0,0,1-1.69.57,2.07,2.07,0,0,1-1.35-.45,8.88,8.88,0,0,1-1.27-1.36,4.65,4.65,0,0,0-1.38-1.21,4.34,4.34,0,0,0-2.15-.45,4.21,4.21,0,0,0-2.32.59,1.73,1.73,0,0,0-.92,1.48,1.6,1.6,0,0,0,.68,1.33,5.65,5.65,0,0,0,1.83.86q1.15.34,3.17.83a17,17,0,0,1,3.91,1.4,6.51,6.51,0,0,1,2.3,1.92A4.25,4.25,0,0,1,167.32,131.12Z"/><path class="cls-3" d="M176.44,138.49l.47-1.15-6.34-16a6,6,0,0,1-.58-2,2.34,2.34,0,0,1,.34-1.23,2.54,2.54,0,0,1,.93-.91,2.45,2.45,0,0,1,1.24-.34,2,2,0,0,1,1.68.71,6.52,6.52,0,0,1,1,2l4.36,12.68,4.13-11.79a20.16,20.16,0,0,1,.89-2.25,2.65,2.65,0,0,1,.84-1.09,2.33,2.33,0,0,1,1.25-.28,2.2,2.2,0,0,1,1.12.31,2.16,2.16,0,0,1,.83.84,2.26,2.26,0,0,1,.29,1.11q-.08.36-.25,1t-.42,1.34l-6.72,17.58a20.6,20.6,0,0,1-1.7,3.64,5.59,5.59,0,0,1-2.2,2,8.09,8.09,0,0,1-3.69.71,9,9,0,0,1-3.4-.49,1.79,1.79,0,0,1-1.13-1.79,1.74,1.74,0,0,1,.54-1.37,2.32,2.32,0,0,1,1.59-.48,2.94,2.94,0,0,1,.81.11,3.88,3.88,0,0,0,.85.11,3.07,3.07,0,0,0,1.4-.26,2.45,2.45,0,0,0,.92-.92A14.1,14.1,0,0,0,176.44,138.49Z"/></g><g class="cls-2"><path class="cls-1" d="M46.38,177.86V166H48l6.23,9.31V166h1.5v11.85H54.11l-6.23-9.31v9.31Z"/><path class="cls-1" d="M64,175.09l1.5.19a3.67,3.67,0,0,1-1.32,2,4.47,4.47,0,0,1-5.45-.43,4.53,4.53,0,0,1-1.1-3.25,4.75,4.75,0,0,1,1.12-3.36,3.78,3.78,0,0,1,2.89-1.2,3.67,3.67,0,0,1,2.81,1.17,4.66,4.66,0,0,1,1.09,3.3c0,.09,0,.22,0,.39h-6.4a3.3,3.3,0,0,0,.8,2.17,2.38,2.38,0,0,0,1.79.75,2.23,2.23,0,0,0,1.37-.42A2.79,2.79,0,0,0,64,175.09Zm-4.78-2.35h4.79a2.91,2.91,0,0,0-.55-1.62,2.23,2.23,0,0,0-1.8-.84,2.31,2.31,0,0,0-1.69.67A2.66,2.66,0,0,0,59.27,172.74Z"/><path class="cls-1" d="M67.39,167.68V166h1.46v1.67Zm0,10.18v-8.59h1.46v8.59Z"/><path class="cls-1" d="M70.79,178.57l1.42.21a1.35,1.35,0,0,0,.49,1,2.42,2.42,0,0,0,1.48.4,2.6,2.6,0,0,0,1.56-.4,2,2,0,0,0,.74-1.13,9.33,9.33,0,0,0,.1-1.87,3,3,0,0,1-2.38,1.12,3.24,3.24,0,0,1-2.74-1.28,4.92,4.92,0,0,1-1-3.06,5.69,5.69,0,0,1,.44-2.27,3.55,3.55,0,0,1,1.29-1.61,3.48,3.48,0,0,1,2-.57,3.08,3.08,0,0,1,2.51,1.23v-1h1.34v7.42a7,7,0,0,1-.41,2.84,3,3,0,0,1-1.29,1.32,4.48,4.48,0,0,1-2.18.48,4.12,4.12,0,0,1-2.48-.69A2.34,2.34,0,0,1,70.79,178.57Zm1.2-5.16a3.72,3.72,0,0,0,.67,2.47,2.21,2.21,0,0,0,3.36,0,3.6,3.6,0,0,0,.68-2.42,3.52,3.52,0,0,0-.7-2.38,2.16,2.16,0,0,0-1.69-.8,2.1,2.1,0,0,0-1.65.79A3.5,3.5,0,0,0,72,173.41Z"/><path class="cls-1" d="M80.27,177.86V166h1.46v4.25a3.25,3.25,0,0,1,2.57-1.18,3.47,3.47,0,0,1,1.66.38,2.21,2.21,0,0,1,1,1,4.79,4.79,0,0,1,.3,1.92v5.44H85.81v-5.44a2.25,2.25,0,0,0-.47-1.59,1.76,1.76,0,0,0-1.34-.5,2.36,2.36,0,0,0-1.22.33,1.9,1.9,0,0,0-.81.91,4.18,4.18,0,0,0-.24,1.58v4.7Z"/><path class="cls-1" d="M90.82,177.86H89.47V166h1.46v4.23a2.88,2.88,0,0,1,2.35-1.16,3.61,3.61,0,0,1,1.5.32,3.06,3.06,0,0,1,1.16.9,4.33,4.33,0,0,1,.72,1.39,5.75,5.75,0,0,1,.26,1.75,4.9,4.9,0,0,1-1.09,3.41,3.41,3.41,0,0,1-2.62,1.21,2.74,2.74,0,0,1-2.39-1.27Zm0-4.36a4.45,4.45,0,0,0,.42,2.23,2.08,2.08,0,0,0,3.51.3,3.77,3.77,0,0,0,.7-2.47,3.83,3.83,0,0,0-.67-2.48,2,2,0,0,0-1.61-.8,2.09,2.09,0,0,0-1.65.83A3.64,3.64,0,0,0,90.8,173.5Z"/><path class="cls-1" d="M98.14,173.57A4.43,4.43,0,0,1,99.47,170a4,4,0,0,1,2.7-1,3.85,3.85,0,0,1,2.89,1.16,4.41,4.41,0,0,1,1.12,3.21,5.68,5.68,0,0,1-.5,2.61,3.52,3.52,0,0,1-1.45,1.48,4.22,4.22,0,0,1-2.07.53,3.86,3.86,0,0,1-2.91-1.16A4.62,4.62,0,0,1,98.14,173.57Zm1.5,0a3.65,3.65,0,0,0,.72,2.47,2.4,2.4,0,0,0,3.61,0,3.74,3.74,0,0,0,.72-2.51,3.55,3.55,0,0,0-.72-2.41,2.4,2.4,0,0,0-3.61,0A3.64,3.64,0,0,0,99.64,173.57Z"/><path class="cls-1" d="M107.88,177.86v-8.59h1.31v1.3a3.54,3.54,0,0,1,.93-1.2,1.61,1.61,0,0,1,.93-.29,2.84,2.84,0,0,1,1.5.47l-.5,1.35a2.08,2.08,0,0,0-1.07-.32,1.39,1.39,0,0,0-.86.29,1.55,1.55,0,0,0-.54.8,5.67,5.67,0,0,0-.24,1.7v4.5Z"/><path class="cls-1" d="M113.41,177.86V166h1.46v4.25a3.25,3.25,0,0,1,2.57-1.18,3.47,3.47,0,0,1,1.66.38,2.21,2.21,0,0,1,1,1,4.79,4.79,0,0,1,.3,1.92v5.44h-1.46v-5.44a2.25,2.25,0,0,0-.47-1.59,1.76,1.76,0,0,0-1.34-.5,2.36,2.36,0,0,0-1.22.33,1.9,1.9,0,0,0-.81.91,4.18,4.18,0,0,0-.24,1.58v4.7Z"/><path class="cls-1" d="M122.08,173.57A4.43,4.43,0,0,1,123.4,170a4,4,0,0,1,2.7-1,3.85,3.85,0,0,1,2.89,1.16,4.41,4.41,0,0,1,1.12,3.21,5.69,5.69,0,0,1-.5,2.61,3.53,3.53,0,0,1-1.45,1.48,4.22,4.22,0,0,1-2.07.53,3.86,3.86,0,0,1-2.91-1.16A4.62,4.62,0,0,1,122.08,173.57Zm1.5,0a3.65,3.65,0,0,0,.72,2.47,2.4,2.4,0,0,0,3.61,0,3.74,3.74,0,0,0,.72-2.51,3.55,3.55,0,0,0-.72-2.41,2.4,2.4,0,0,0-3.61,0A3.64,3.64,0,0,0,123.57,173.57Z"/><path class="cls-1" d="M131.29,173.57a4.43,4.43,0,0,1,1.33-3.53,4,4,0,0,1,2.7-1,3.85,3.85,0,0,1,2.89,1.16,4.41,4.41,0,0,1,1.12,3.21,5.68,5.68,0,0,1-.5,2.61,3.52,3.52,0,0,1-1.45,1.48,4.22,4.22,0,0,1-2.07.53,3.86,3.86,0,0,1-2.91-1.16A4.62,4.62,0,0,1,131.29,173.57Zm1.5,0a3.65,3.65,0,0,0,.72,2.47,2.4,2.4,0,0,0,3.61,0,3.74,3.74,0,0,0,.72-2.51,3.55,3.55,0,0,0-.72-2.41,2.4,2.4,0,0,0-3.61,0A3.64,3.64,0,0,0,132.78,173.57Z"/><path class="cls-1" d="M146.61,177.86v-1.08a2.67,2.67,0,0,1-2.4,1.28,3.37,3.37,0,0,1-1.89-.57,3.72,3.72,0,0,1-1.33-1.58,5.46,5.46,0,0,1-.47-2.33,6.1,6.1,0,0,1,.43-2.33,3.38,3.38,0,0,1,1.29-1.6,3.44,3.44,0,0,1,1.92-.56,2.87,2.87,0,0,1,2.37,1.18V166H148v11.85Zm-4.6-4.29a3.73,3.73,0,0,0,.7,2.47,2.09,2.09,0,0,0,1.64.82,2.06,2.06,0,0,0,1.62-.78,3.59,3.59,0,0,0,.67-2.38,4,4,0,0,0-.68-2.59,2.09,2.09,0,0,0-1.67-.83,2,2,0,0,0-1.62.79A3.91,3.91,0,0,0,142,173.58Z"/><path class="cls-1" d="M155,177.86V166h2.36l2.81,8.39q.39,1.17.57,1.75.2-.65.63-1.9l2.84-8.25h2.11v11.85h-1.51v-9.92l-3.44,9.92h-1.42l-3.43-10.09v10.09Z"/><path class="cls-1" d="M174.24,176.8a5.41,5.41,0,0,1-1.56,1,4.51,4.51,0,0,1-1.61.28,3.12,3.12,0,0,1-2.17-.69,2.28,2.28,0,0,1-.76-1.77,2.39,2.39,0,0,1,1-2,3.53,3.53,0,0,1,1-.48,10.3,10.3,0,0,1,1.29-.22,13.38,13.38,0,0,0,2.59-.5c0-.2,0-.33,0-.38a1.61,1.61,0,0,0-.41-1.25,2.44,2.44,0,0,0-1.66-.49,2.57,2.57,0,0,0-1.52.36,2.19,2.19,0,0,0-.72,1.27l-1.42-.19a3.52,3.52,0,0,1,.64-1.48,2.79,2.79,0,0,1,1.29-.87,5.73,5.73,0,0,1,1.95-.3,5.17,5.17,0,0,1,1.79.26,2.36,2.36,0,0,1,1,.65,2.3,2.3,0,0,1,.45,1,8.29,8.29,0,0,1,.07,1.34v1.94a20.42,20.42,0,0,0,.09,2.57,3.24,3.24,0,0,0,.37,1h-1.52A3.07,3.07,0,0,1,174.24,176.8Zm-.12-3.25a10.63,10.63,0,0,1-2.38.55,5.51,5.51,0,0,0-1.27.29,1.26,1.26,0,0,0-.57.47,1.29,1.29,0,0,0,.24,1.66,1.9,1.9,0,0,0,1.29.39,3,3,0,0,0,1.5-.37,2.27,2.27,0,0,0,1-1,3.52,3.52,0,0,0,.23-1.46Z"/><path class="cls-1" d="M177.83,177.86v-8.59h1.31v1.3a3.54,3.54,0,0,1,.93-1.2,1.62,1.62,0,0,1,.93-.29,2.84,2.84,0,0,1,1.5.47l-.5,1.35a2.09,2.09,0,0,0-1.07-.32,1.39,1.39,0,0,0-.86.29,1.55,1.55,0,0,0-.54.8,5.65,5.65,0,0,0-.24,1.7v4.5Z"/><path class="cls-1" d="M183.37,177.86V166h1.46v6.76l3.44-3.49h1.88l-3.28,3.19,3.61,5.4h-1.79l-2.84-4.39-1,1v3.4Z"/><path class="cls-1" d="M197.52,175.09l1.5.19a3.67,3.67,0,0,1-1.32,2,4,4,0,0,1-2.46.73,3.93,3.93,0,0,1-3-1.16,4.53,4.53,0,0,1-1.1-3.25,4.75,4.75,0,0,1,1.12-3.36,3.78,3.78,0,0,1,2.89-1.2,3.67,3.67,0,0,1,2.81,1.17,4.66,4.66,0,0,1,1.09,3.3c0,.09,0,.22,0,.39h-6.4a3.3,3.3,0,0,0,.8,2.17,2.38,2.38,0,0,0,1.79.75,2.23,2.23,0,0,0,1.37-.42A2.8,2.8,0,0,0,197.52,175.09Zm-4.78-2.35h4.79a2.91,2.91,0,0,0-.55-1.62,2.23,2.23,0,0,0-1.8-.84,2.31,2.31,0,0,0-1.69.67A2.66,2.66,0,0,0,192.74,172.74Z"/><path class="cls-1" d="M204,176.56l.21,1.29a5.36,5.36,0,0,1-1.1.13,2.49,2.49,0,0,1-1.23-.25,1.4,1.4,0,0,1-.61-.66,5.19,5.19,0,0,1-.18-1.72v-4.94h-1.07v-1.13h1.07v-2.13l1.45-.87v3H204v1.13h-1.46v5a2.56,2.56,0,0,0,.08.8.6.6,0,0,0,.25.28,1,1,0,0,0,.5.11A4.67,4.67,0,0,0,204,176.56Z"/></g><circle class="cls-5" cx="166.71" cy="95.99" r="15.18"/><circle class="cls-4" cx="167.01" cy="95.53" r="11.65"/><path class="cls-6" d="M147.54,77.13h12.11s5.67,2.15,5.52,5.52l.15,1.84H154.9S149.54,85.41,147.54,77.13Z"/><g class="cls-2"><path class="cls-1" d="M193.91,73V68.39h-1.74v-.62h4.18v.62h-1.74V73Z"/><path class="cls-1" d="M197,73V67.77h1l1.25,3.73.25.78c.06-.19.15-.47.28-.84l1.26-3.67h.94V73h-.67V68.63L199.87,73h-.63l-1.52-4.48V73Z"/></g><polygon class="cls-1" points="164.41 95.37 171.77 86.02 168.55 94.61 172.69 101.05 164.41 95.37"/></svg>