<?xml version="1.0" encoding="utf-8"?>
<!-- Generator: Adobe Illustrator 21.1.0, SVG Export Plug-In . SVG Version: 6.00 Build 0)  -->
<svg version="1.1" id="Layer_1" xmlns="http://www.w3.org/2000/svg" xmlns:xlink="http://www.w3.org/1999/xlink" x="0px" y="0px"
	 viewBox="0 0 250 250" style="enable-background:new 0 0 250 250;" xml:space="preserve">
<style type="text/css">
	.st0{fill:#AD5418;}
	.st1{fill:#F9E8A0;}
	.st2{fill:#FFFFFF;}
	.st3{fill:#753A12;}
	.st4{fill:#414042;}
</style>
<title>Freshly Prepared Iced Coffee</title>
<path class="st0" d="M65.8,129.1c4,1.7,7.7,4.1,11,6.9c4.3,4,13.1-6.8,18.5-5.8s9.8,7,14.4,6.6s10.6-9.9,16.2-7.1
	c5.6,2.8,12.4,6.9,13.4,7.1s-4.8,72.8-4.8,72.8H70.8L65.8,129.1z"/>
<path class="st1" d="M55.1,82.3h96v14h-8.5l-3.5,40.6c0,0-10-8.3-15.9-6.6s-9.3,8.9-17.8,4.3s-9.3-6.8-18.6-0.3s-14.6-2.8-14.6-2.8
	l-6.3-2L64,96.3L55.1,96V82.3z"/>
<polygon class="st2" points="65.3,42.8 77.5,38.4 82.4,50.6 69.5,54.8 "/>
<polygon class="st2" points="72.6,60 87.9,54.3 93.8,69.7 78.8,75.3 "/>
<polygon class="st2" points="66.8,60 71.2,71.4 59.2,76.5 54.3,64 "/>
<polygon class="st2" points="85.9,155.1 100.1,149.3 106.8,164.6 91.4,170.1 "/>
<polygon class="st2" points="106.8,176.6 121.4,183.3 114.1,196.9 99.6,190.8 "/>
<path class="st3" d="M149.4,145.6c0,0,10.7-6.3,23.5,4.8s9.4,20.4,9.4,20.4s18.4,2.4,21.9,13.8c0,0-6.3,18.3-27.4,13.9
	c0,0-23-8.6-17.8-14.9s5.2-6.4,2.1-8.3s-13.2-9.7-13.1-17.8S146.9,146.6,149.4,145.6z"/>
<path class="st4" d="M202.7,179.3c-4.6-5.5-11.2-8.9-18.4-9.5c-0.3-15.3-12.9-27.5-28.2-27.2h-2l-2.1,0.1c-3.1,0.1-5.6,2.6-5.7,5.8
	l-0.1,2.1c-0.8,12,5.3,22.5,15.6,26.9c-0.6,0.6-1.2,1.2-1.8,1.8l-1.3,1.5c-2.1,2.3-2.1,5.8,0,8.1l1.3,1.5
	c9.9,11.8,27.5,13.3,39.3,3.4c1.2-1,2.4-2.2,3.4-3.4l1.3-1.5c2.1-2.3,2.1-5.8,0-8.1L202.7,179.3z M156.1,145.7
	c13.5-0.3,24.7,10.2,25.3,23.7c-0.8,0-1.6,0-2.5,0.1c-2.8,0.2-5.6,1-8.1,2.3c-2.4-2.6-3-5.9-3.5-9.3c-0.3-2.4-0.9-4.8-1.7-7.1
	c-1.8-4.8-6-8.4-11-9.6L156.1,145.7z M149.3,150.8l0.1-2.1c0-0.6,0.2-1.1,0.5-1.6c5.7,0.4,10.7,4,12.9,9.3c0.7,2.1,1.3,4.2,1.5,6.4
	c0.6,3.6,1.1,7.3,3.9,9.8c-1.5,0.8-2.9,1.8-4.1,3C154.3,171.4,148.4,161.4,149.3,150.8 M181.4,197.3c-7.3-0.1-14.3-3.3-19.1-8.9
	l-1.3-1.5c-0.3-0.4-0.6-0.9-0.9-1.3c5.8-5.3,14.7-5.1,20.3,0.3c3.3,3.3,7.8,5.1,12.4,5.1c2.7,0.1,5.4-0.7,7.5-2.4
	C195.6,194,188.7,197.2,181.4,197.3 M192.9,188c-3.8,0-7.5-1.5-10.2-4.1c-3.3-3.3-7.8-5.2-12.4-5.1c-2.7-0.1-5.4,0.7-7.5,2.4
	c0.8-0.9,1.7-1.7,2.6-2.5c4.2-3.7,9.6-5.9,15.3-6.2h2.4c6.8,0.5,13.2,3.7,17.6,8.9l1.3,1.5c0.3,0.4,0.6,0.8,0.9,1.3
	c-2.7,2.5-6.2,3.9-9.9,3.9"/>
<path class="st4" d="M108.7,164.8l-6.2-16.8c-0.2-0.6-0.9-1-1.6-0.7c0,0,0,0,0,0l0,0l-16.8,6.2c-0.6,0.2-1,0.9-0.7,1.6c0,0,0,0,0,0
	l0,0l6.1,16.7c0.2,0.6,0.9,1,1.6,0.7c0,0,0,0,0,0l0,0l16.8-6.2C108.6,166.1,108.9,165.4,108.7,164.8
	C108.7,164.8,108.7,164.8,108.7,164.8z M100.3,152.8l3.6,9.7c0.2,0.6-0.1,1.3-0.7,1.6c0,0,0,0,0,0l0,0l-9.7,3.5
	c-0.6,0.2-1.3-0.1-1.6-0.7c0,0,0,0,0,0l0,0l-3.5-9.6c-0.2-0.6,0.1-1.3,0.7-1.6c0,0,0,0,0,0l0,0l9.7-3.6
	C99.4,151.9,100.1,152.2,100.3,152.8L100.3,152.8z"/>
<path class="st4" d="M96,69.5l-6.2-16.8c-0.2-0.6-0.9-1-1.6-0.8c0,0,0,0,0,0l0,0l-16.8,6.2c-0.6,0.2-1,0.9-0.7,1.6c0,0,0,0,0,0l0,0
	l6.2,16.8c0.2,0.6,0.9,1,1.6,0.7c0,0,0,0,0,0l0,0l16.8-6.2C95.9,70.9,96.2,70.2,96,69.5C96,69.5,96,69.5,96,69.5z M87.5,57.6
	l3.5,9.7c0.2,0.6-0.1,1.3-0.7,1.6c0,0,0,0,0,0l0,0l-9.6,3.5c-0.6,0.2-1.3-0.1-1.6-0.7c0,0,0,0,0,0l0,0L75.6,62
	c-0.2-0.6,0.1-1.3,0.7-1.6c0,0,0,0,0,0l0,0l9.7-3.5C86.6,56.7,87.2,57,87.5,57.6z"/>
<path class="st4" d="M73,72.1l-5-13.5c-0.2-0.5-0.7-0.8-1.2-0.6l-13.5,5c-0.5,0.2-0.8,0.8-0.6,1.3l5,13.5c0.2,0.5,0.8,0.8,1.3,0.6
	l13.5-4.9C72.9,73.1,73.2,72.6,73,72.1z M66.2,62.5l2.9,7.9c0.2,0.5-0.1,1.1-0.6,1.3l-7.9,2.9c-0.5,0.2-1.1-0.1-1.3-0.6L56.4,66
	c-0.2-0.5,0.1-1.1,0.6-1.3l7.8-2.9c0.5-0.2,1.1,0,1.3,0.5L66.2,62.5z"/>
<path class="st4" d="M83.8,50.5l-5-13.5c-0.2-0.5-0.8-0.8-1.3-0.6l-13.5,4.9c-0.5,0.2-0.8,0.8-0.6,1.3l4.9,13.5
	c0.2,0.5,0.8,0.8,1.3,0.6l13.5-5C83.7,51.5,83.9,51,83.8,50.5z M77.1,40.9l2.9,7.8c0.2,0.5-0.1,1.1-0.6,1.3l-7.8,2.9
	c-0.5,0.2-1.1-0.1-1.3-0.6l-3-7.8c-0.2-0.5,0.1-1.1,0.6-1.3c0,0,0,0,0,0l7.8-2.9C76.3,40.1,76.9,40.3,77.1,40.9L77.1,40.9z"/>
<path class="st4" d="M115.4,198.7l7.2-15.5c0.3-0.6,0-1.3-0.6-1.6l-15.5-7.2c-0.6-0.3-1.3,0-1.6,0.6c0,0,0,0,0,0l0,0l-7.2,15.6
	c-0.3,0.6,0,1.3,0.6,1.6l15.5,7.2C114.5,199.6,115.2,199.3,115.4,198.7C115.4,198.7,115.4,198.7,115.4,198.7z M108.3,179.3l8.7,4.1
	c0.6,0.3,0.9,1,0.6,1.6c0,0,0,0,0,0l0,0l-4,8.7c-0.3,0.6-1,0.9-1.6,0.6c0,0,0,0,0,0l0,0l-8.7-4c-0.6-0.3-0.9-1-0.6-1.6c0,0,0,0,0,0
	l0,0l4-8.7C107,179.4,107.7,179.1,108.3,179.3C108.3,179.4,108.3,179.4,108.3,179.3L108.3,179.3L108.3,179.3z"/>
<rect x="116.1" y="145.6" class="st4" width="5.5" height="3.8"/>
<rect x="123.2" y="156.2" class="st4" width="5.5" height="3.8"/>
<rect x="77.1" y="181" class="st4" width="5.5" height="3.8"/>
<rect x="84.2" y="191.6" class="st4" width="5.5" height="3.8"/>
<path class="st4" d="M104.8,80.1V44.9h46.9v-3.8h-47c-2,0-3.6,1.5-3.7,3.5c0,0,0,0,0,0c0,0.1,0,0.1,0,0.2v35.3H53.2V98h9v0.7
	l7,112.6h67.4L143.7,98h9V80.1H104.8z M57,94.2V83.9h44v10.3H57z M66,98h35v31.3l-1.1-0.5c-1.4-0.6-2.9-0.9-4.5-0.9
	c-3.4,0-6.5,1.6-8.7,4.1c-2.6,3.4-7.5,4-10.8,1.4c-0.5-0.4-1-0.9-1.4-1.4c-1.6-1.8-3.7-3.1-6-3.7l-0.6-0.1L66,98z M133,207.6H72.8
	v-0.8l-4.7-75l1.3,0.8c0.9,0.6,1.8,1.3,2.6,2.1c4.1,4.8,11.3,5.4,16.1,1.4c0.5-0.4,0.9-0.9,1.4-1.4c2.6-3.4,7.5-4,10.8-1.5
	c0.5,0.4,1,0.9,1.5,1.5c4.1,4.8,11.3,5.4,16.2,1.3c0.5-0.4,0.9-0.9,1.3-1.3c2.6-3.4,7.5-4,10.9-1.4c0.5,0.4,1,0.9,1.4,1.4
	c1.5,1.6,3.3,2.8,5.4,3.6l0.6,0.2L133,207.6z M137.6,134.7l-1.1-0.7c-0.9-0.6-1.8-1.3-2.5-2.1c-4.1-4.8-11.3-5.4-16.1-1.4
	c-0.5,0.4-0.9,0.9-1.4,1.4c-1.5,1.9-3.8,3-6.2,3c-2,0-3.9-0.8-5.3-2.2l-0.2-0.3V98h35.1L137.6,134.7z M148.8,83.8v10.3h-44V83.8
	L148.8,83.8z"/>
</svg>
