<svg id="Layer_1" data-name="Layer 1" xmlns="http://www.w3.org/2000/svg" viewBox="0 0 250 250"><defs><style>.cls-1{fill:#6a870f;}.cls-2{fill:red;}.cls-3{fill:#f9e8a0;}.cls-4{fill:#fff;}.cls-5{fill:#414042;}</style></defs><title>Freshly Prepared Iced Tea</title><path class="cls-1" d="M171.25,201.25s15.92-.25,18.75-7.42,3.83-28.67,6.67-33.17,6.17-6.07-1-4.41-25.25,5.18-30.5,22.5c0,0-10.42-2.6-16.33-.85,0,0,7.42,3.5,8.58,11.42S165.5,199.25,171.25,201.25Z"/><circle class="cls-2" cx="142.52" cy="82.36" r="36.14"/><path class="cls-3" d="M49.38,90.63h96.88L135.63,201.88s-1.12,8.38-10.62,8.38H67.38s-7.25-.5-8.37-10S49.38,90.63,49.38,90.63Z"/><path class="cls-4" d="M63.12,38.78s4-2.62,6.85,3.13,6.66,11.75,2.5,13.91-9.8,4.75-9.8,4.75-4.89,1.13-6.51-2.75-4.44-9.1-4.44-9.1-.12-3.59,2.59-5.12S63.12,38.78,63.12,38.78Z"/><path class="cls-4" d="M78.69,54.81l11.94-2.06s4.75-.81,5.69,5.94,2.44,11.31-.5,12.25-12,2.44-12,2.44S79,73.88,78,68.5,75.86,55.3,78.69,54.81Z"/><path class="cls-4" d="M66,129.67l13.83-8.08s7-.5,9.58,4S99,140.42,94.08,144s-14.67,8.5-14.67,8.5-5.83,2.25-9.66-4.83S60.72,132.75,66,129.67Z"/><path class="cls-4" d="M103.67,144.5,118,142.17s7-.42,8.17,5.67,4.67,17.5-1.75,19.25a125.31,125.31,0,0,1-15,2.77s-8.17-.11-9-5.94S96.5,146.08,103.67,144.5Z"/><path class="cls-4" d="M81.58,166.92s3.75-5.5,9.92,0,14,11,9.33,17A75.76,75.76,0,0,1,91,194.25s-4.67,4.25-9.42-.92a67.59,67.59,0,0,0-9.75-8.67A8.73,8.73,0,0,1,73.75,175C78.17,170.42,81.58,166.92,81.58,166.92Z"/><path class="cls-5" d="M145.7,66l-2.06,22.75H51.55l-1.92-21.1H45.57L57.83,202.6a10,10,0,0,0,10,9.17h59.58a10,10,0,0,0,10-9.15L149.86,66Zm-12.27,136.2a6,6,0,0,1-6,5.45H67.87a6,6,0,0,1-6-5.45l-10-109.36h91.35Z"/><path class="cls-5" d="M142.52,44.58a38.12,38.12,0,0,0-38.09,38.09,39.52,39.52,0,0,0,.25,4.52h4.07a43.09,43.09,0,0,1-.23-4.52,34,34,0,1,1,40.13,33.46v4a38.7,38.7,0,0,0,32-37.48,38.12,38.12,0,0,0-38.09-38.09"/><path class="cls-5" d="M77.06,155.29a8.61,8.61,0,0,0,4.09-1l12.09-6.51A8.65,8.65,0,0,0,96.78,136l0,0L90.26,123.9a8.68,8.68,0,0,0-11.75-3.52l-12.09,6.51a8.68,8.68,0,0,0-3.52,11.75l6.53,12.13a8.68,8.68,0,0,0,7.64,4.52M66.13,133.15a4.52,4.52,0,0,1,2.26-2.73l12.09-6.51a4.68,4.68,0,0,1,6.17,2L93.15,138a4.52,4.52,0,0,1-1.83,6L79.23,150.5a4.52,4.52,0,0,1-6.16-1.71l0-.06-6.55-12.09a4.52,4.52,0,0,1-.36-3.5"/><path class="cls-5" d="M73.47,137.94a3.5,3.5,0,0,1,1.42-4.74h0l4.52-2.42-1.94-3.59-4.52,2.42a7.59,7.59,0,0,0-3.07,10.28l2.87,5.33,3.59-1.94Z"/><path class="cls-5" d="M127.27,146.45a8.68,8.68,0,0,0-10.14-6.78l-13.56,2.6a8.68,8.68,0,0,0-6.78,10.14L99.38,166a8.68,8.68,0,0,0,8.52,7,8.43,8.43,0,0,0,1.65-.16l13.56-2.6a8.68,8.68,0,0,0,6.78-10.14Zm-5,19.63-13.56,2.6a4.52,4.52,0,0,1-5.35-3.5l0-.14-2.6-13.56a4.52,4.52,0,0,1,3.69-5.22l.13,0,13.56-2.6a4.52,4.52,0,0,1,5.35,3.5l0,.14,2.6,13.56a4.52,4.52,0,0,1-3.5,5.35l-.14,0"/><path class="cls-5" d="M122.36,150.77l-4,.77,1,5a3.5,3.5,0,0,1-2.78,4.09l-5.94,1.15.84,4,5.94-1.13a7.59,7.59,0,0,0,6-8.88Z"/><path class="cls-5" d="M61.09,62.2A6.12,6.12,0,0,0,64,61.45l8.59-4.52a6.15,6.15,0,0,0,2.52-8.32v0L70.58,40a6.17,6.17,0,0,0-8.34-2.51L53.65,42a6.15,6.15,0,0,0-2.52,8.32v0l4.52,8.59a6.17,6.17,0,0,0,5.42,3.23M53.34,46.5A3.25,3.25,0,0,1,55,44.58l8.59-4.52A3.24,3.24,0,0,1,68,41.39L72.47,50a3.25,3.25,0,0,1-1.19,4.44l-.14.08L62.56,59a3.25,3.25,0,0,1-4.44-1.19L58,57.68l-4.52-8.59a3.23,3.23,0,0,1-.25-2.49"/><path class="cls-5" d="M58.53,49.91a2.49,2.49,0,0,1,.95-3.37l3.19-1.72-1.31-2.51L58.17,44a5.38,5.38,0,0,0-2.28,7.25l0,0,2,3.77,2.62-1.49Z"/><path class="cls-5" d="M96.81,55.87A6.17,6.17,0,0,0,89.6,51L80,52.85a6.17,6.17,0,0,0-4.88,7.21L77,69.63a6.17,6.17,0,0,0,6,5,6,6,0,0,0,1.17,0l9.58-1.85a6.17,6.17,0,0,0,4.88-7.21ZM93.22,69.81l-9.56,1.88a3.28,3.28,0,0,1-3.84-2.53L78,59.58a3.28,3.28,0,0,1,2.62-3.71L90.17,54h.63A3.25,3.25,0,0,1,94,56.66l1.85,9.58a3.25,3.25,0,0,1-2.57,3.82h0"/><path class="cls-5" d="M93.24,59l-2.85.54.72,3.57a2.49,2.49,0,0,1-2,2.91h0l-4.23.81.54,2.85,4.23-.81a5.4,5.4,0,0,0,4.25-6.21Z"/><path class="cls-5" d="M92.29,165.12a8.5,8.5,0,0,0-6-2.26,8.31,8.31,0,0,0-5.85,2.6l-9,9.51a8.38,8.38,0,0,0,.29,11.84l9.51,9a8.41,8.41,0,0,0,11.84-.29l9-9.51a8.38,8.38,0,0,0-.29-11.84Zm6.78,18.08-9,9.51a4.32,4.32,0,0,1-6.08.16l-9.51-9a4.29,4.29,0,0,1-.17-6.07h0l9-9.51a4.27,4.27,0,0,1,3-1.33h0a4.27,4.27,0,0,1,3,1.17l9.51,9a4.29,4.29,0,0,1,.17,6.07h0"/><path class="cls-5" d="M86.33,169.86a7.3,7.3,0,0,0-5.13,2.26l-3.37,3.5,3,2.8,3.37-3.52a3.28,3.28,0,0,1,4.52-.11l4.2,4,2.8-3-4.11-3.93a7.28,7.28,0,0,0-5.24-2"/><path class="cls-5" d="M200.36,154.18c-23.09,2.21-31.23,13.92-31.52,14.35a33,33,0,0,0-4.93,9.06,31.08,31.08,0,0,0-14.77-.79l-5.38.93,5.08,2c1.42.56,5.24,2.06,6.89,10.85a11.52,11.52,0,0,0,11.64,10.3h0q.41,0,.82,0a23.22,23.22,0,0,0,1.89,2.11q-.51,2.92-.76,5.89l3.12.14c0-1.82.17-3.64.37-5.46,21.28-3.14,22-16.46,22.68-28.68.68-12.38,4.47-16.36,6.1-18.08l2.82-3ZM158.74,190a19.43,19.43,0,0,0-4.88-10.64,27.5,27.5,0,0,1,9.23,1.14,23.54,23.54,0,0,0,3,17.22C163.53,197.4,159.83,195.89,158.74,190Zm38.16-32.33c-1.92,2.91-4,8-4.52,17-.55,11.68-1.16,22.7-19.14,25.7.32-2.21.8-4.68,1.41-7.31a78.39,78.39,0,0,1,2.69-9,63.13,63.13,0,0,1,3.84-8.56,36,36,0,0,1,2.26-3.73,34.57,34.57,0,0,1,2.26-3.21l2-2.6,1.74-1.85,1.51-1.63-1.6,1.54-1.85,1.76-2.26,2.51a34.41,34.41,0,0,0-2.42,3.1,36.58,36.58,0,0,0-2.44,3.66,64.39,64.39,0,0,0-4.52,8.47,80.75,80.75,0,0,0-3.3,9c-.72,2.39-1.29,4.66-1.74,6.73-3.38-4-10.16-14.75.5-29,.07-.11,6.89-9.76,25.64-12.63Z"/></svg>