<svg id="Layer_1" data-name="Layer 1" xmlns="http://www.w3.org/2000/svg" viewBox="0 0 250 250"><defs><style>.cls-1{fill:red;}.cls-2{fill:#50a505;}.cls-3{fill:#f9e8a0;}.cls-4{fill:#fff;}.cls-5{fill:#414042;}</style></defs><title>Freshly Squeezed Juice</title><circle class="cls-1" cx="153.83" cy="90.17" r="30.5"/><path class="cls-2" d="M177.44,151.5s14.38-.87,18.75-4.69,8.63-11,8.63-11.19-15.44-2.56-18.19,1S177.69,147.88,177.44,151.5Z"/><path class="cls-3" d="M174.44,155.56s22.38-1.69,28.69,16.38-1.94,29.63-12.87,32.63-36.06,7.25-40.25-12.31c0,0-6.19-15.87,2.63-24.25S161.81,154.44,174.44,155.56Z"/><polygon class="cls-3" points="62.5 117.63 150.5 117.63 139.33 211.33 72.42 211.75 62.5 117.63"/><polygon class="cls-4" points="58.58 90.17 153.83 91 150.75 116.92 60.83 116.92 58.58 90.17"/><path class="cls-5" d="M175.83,210.05c-17.22,0-29.7-11.31-29.7-26.87A30,30,0,0,1,169.43,154l2.1-.46-.9-2a81.8,81.8,0,0,0-3.88-7.57,1.89,1.89,0,0,1-.19-1.47,1.85,1.85,0,0,1,.88-1.15,1.91,1.91,0,0,1,2.62.66h0c1.17,2.1,2.29,4.2,3.25,6.17l1.59,3.34,1.51-3.36c3-6.29,6.29-10.78,8.81-12.31s7.11-2.6,12.88-2.6a63.09,63.09,0,0,1,7.57.46,1.89,1.89,0,0,1,1.47,1.15,1.93,1.93,0,0,1-.25,1.89c-1.38,1.78-8.64,10.82-14.24,13.32a27.58,27.58,0,0,1-5.18,1.76l-5.54,1.36,5.45,2c12.1,4.34,20,14.83,20,26.81,0,15.75-13.86,28.11-31.46,28.11m-4.64-52.67a26,26,0,0,0-21.37,25.74c0,13.59,10.66,23.07,25.93,23.07s27.86-10.66,27.86-24.29c0-12.59-10.49-23.07-24.27-24.69l-2.54-.29.57,2.56c.38,1.47.71,3,1,4.55l.25,1.45h1.49c1.62,0,2.48.86,2.48,1.89a1.93,1.93,0,0,1-1.89,1.89h-8a1.91,1.91,0,0,1-1.89-1.89,1.87,1.87,0,0,1,1.85-1.89h2.2l-.48-2.1c-.36-1.55-.71-3.1-1.15-4.59l-.44-1.51ZM197.86,137c-5.06,0-8.6.73-10.49,2.1-1,.57-2.48,1.82-5.52,7.07l-1.91,3.27,3.73-.65a29.37,29.37,0,0,0,7.4-2.1A31,31,0,0,0,199.2,140l2.87-3Z"/><path class="cls-5" d="M153.66,57.12a32.45,32.45,0,0,0-32.37,30.73v.73H87.86L79.47,40.15a1.89,1.89,0,0,0-1.87-1.57H46.37a1.89,1.89,0,0,0,0,3.78H75.95l8,46.15H59a1.82,1.82,0,0,0-1.38.61,1.85,1.85,0,0,0-.46,1.47L70.87,211.92a1.89,1.89,0,0,0,1.89,1.66h66.91a1.89,1.89,0,0,0,1.89-1.68L151.83,122h1.85a32.51,32.51,0,1,0,0-65h0ZM125.07,87.76a28.48,28.48,0,0,1,6.46-16.38l.55-.67L150,88.6H125Zm23.22,31.86L138,209.82H74.41L63.93,118.76h84.47Zm.52-4.64H63.59L61.05,92.36h90.41Zm2.81-30.06L134.84,68l.67-.55a28.51,28.51,0,0,1,15.35-6.42h.86Zm24.5-13.13a28.53,28.53,0,0,1,6.1,15.08v.86H158.95l16.63-16.63ZM155.44,60.89h.86a28.46,28.46,0,0,1,15.92,6.94l.65.55L155.44,85.92Zm16.49,50.78a28.74,28.74,0,0,1-18.23,6.54h-1.43l2.81-24.58,17.47,17.6Zm10.3-19.32a28.48,28.48,0,0,1-6.44,15.52l-.55.67-17-17h24.1Z"/></svg>