<svg id="Layer_1" data-name="Layer 1" xmlns="http://www.w3.org/2000/svg" viewBox="0 0 250 250"><defs><style>.cls-1{fill:#f9e8a0;}.cls-2{fill:#753a12;}.cls-3{fill:#414042;}</style></defs><title>Freshly Prepared Hot Coffee</title><path class="cls-1" d="M152.51,112.12s23.83-5.06,34.17,10.89,12,27.11.17,45.86c0,0-12.25,13.83-34.33,9.17l.75-14.33s19.58,1.83,23.92-7.5,5.83-22.92-5.25-27.33S153,126.29,153,126.29Z"/><path class="cls-1" d="M54.76,88.62h97.08L152.67,197s-3.17,13.58-18.67,13.5-61.75,0-61.75,0-17.83.92-17.92-17.75S54.76,88.62,54.76,88.62Z"/><path class="cls-2" d="M81.3,124.7s13.08-6.37,26,5.58,7.38,20.21,7.38,20.21,15-2.08,22.92,14.13c0,0-4.58,14.58-24.33,13.88s-22.12-14.75-22.12-14.75l5.29-6.58S84.34,150,82.09,141.54,79.42,126.12,81.3,124.7Z"/><path class="cls-3" d="M84.21,199.63H74.39a11,11,0,0,1-11-11h0V141h3.68v47.6a7.32,7.32,0,0,0,7.32,7.32h9.82Z"/><path class="cls-3" d="M162.48,110.15h-7.8v-19a5.07,5.07,0,0,0-5.07-5.07H57.35a5.07,5.07,0,0,0-5.07,5.07V192.85A19.67,19.67,0,0,0,71.93,212.5H135a19.67,19.67,0,0,0,19.65-19.65V180.63h7.8a35.24,35.24,0,1,0,0-70.48Zm-7.8,17.73h7.74a16.9,16.9,0,0,1,0,33.8h-7.74Zm-3.66,65a16,16,0,0,1-16,16H71.95a16,16,0,0,1-16-16V91.14a1.39,1.39,0,0,1,1.39-1.39h92.25A1.39,1.39,0,0,1,151,91.14ZM162.48,177h-7.8V165.36h7.72a20.57,20.57,0,1,0,0-41.14h-7.72V113.85h7.8a31.55,31.55,0,1,1,0,63.1Z"/><path class="cls-3" d="M74.39,79.78c-.13-.72-1.22-7,1.79-9.93a6.77,6.77,0,0,0,.53-8.41,14.56,14.56,0,0,1,0-16.2,9.49,9.49,0,0,0,1.22-6.94l3.6-.8a13.06,13.06,0,0,1-2,9.93,10.94,10.94,0,0,0,0,11.59,10.52,10.52,0,0,1-.84,13.44C77.58,73.53,77.63,77,78,79Z"/><path class="cls-3" d="M100.83,79.78c-.13-.72-1.22-7,1.79-9.93a6.77,6.77,0,0,0,.53-8.41,14.56,14.56,0,0,1,0-16.2,9.51,9.51,0,0,0,1.22-6.94l3.6-.8A13.06,13.06,0,0,1,106,47.43,10.94,10.94,0,0,0,106,59a10.52,10.52,0,0,1-.84,13.44c-1.11,1.07-1.07,4.56-.72,6.58Z"/><path class="cls-3" d="M128,79.78c-.13-.72-1.22-7,1.79-9.93a6.77,6.77,0,0,0,.53-8.41,14.56,14.56,0,0,1,0-16.2,9.51,9.51,0,0,0,1.22-6.94l3.6-.8a13.06,13.06,0,0,1-2,9.93,10.94,10.94,0,0,0,0,11.59,10.52,10.52,0,0,1-.84,13.44c-1.11,1.07-1.07,4.56-.72,6.58Z"/><path class="cls-3" d="M136,158.91a26.9,26.9,0,0,0-18.7-9.61,28.16,28.16,0,0,0-28.66-27.66h-2l-2.1.13a6.1,6.1,0,0,0-5.83,5.85l-.13,2.1C77.82,141.89,84,152.6,94.39,157c-.61.59-1.2,1.2-1.79,1.85l-1.35,1.54a6.08,6.08,0,0,0,0,8.25l1.35,1.51a28.33,28.33,0,0,0,43.37,0l1.35-1.54a6.1,6.1,0,0,0,0-8.25ZM88.56,124.75a25.24,25.24,0,0,1,25.72,24,18.08,18.08,0,0,0-2.5.13,21.24,21.24,0,0,0-8.2,2.29c-2.48-2.63-3-6-3.55-9.47a32.08,32.08,0,0,0-1.75-7.19,15.56,15.56,0,0,0-11.21-9.72Zm-6.9,5.15.13-2.1a3.2,3.2,0,0,1,.53-1.6,15.25,15.25,0,0,1,13.1,9.57A29.91,29.91,0,0,1,97,142.29c.57,3.62,1.16,7.36,3.93,10a17,17,0,0,0-4.21,3,25.24,25.24,0,0,1-15-25.24m32.62,47.12a25.7,25.7,0,0,1-19.37-9l-1.35-1.54a11.15,11.15,0,0,1-.9-1.35,15.06,15.06,0,0,1,20.66.34,17.69,17.69,0,0,0,12.62,5.2,11.27,11.27,0,0,0,7.61-2.48,25.75,25.75,0,0,1-19.2,8.88m11.59-9.49a14.56,14.56,0,0,1-10.37-4.21A17.82,17.82,0,0,0,103,158.25a11.32,11.32,0,0,0-7.61,2.46,31.23,31.23,0,0,1,2.61-2.52,25.45,25.45,0,0,1,15.5-6.31h2.44A26,26,0,0,1,133.66,161l1.35,1.54a13.1,13.1,0,0,1,.9,1.28,14.72,14.72,0,0,1-10,4"/></svg>