<svg id="Layer_1" data-name="Layer 1" xmlns="http://www.w3.org/2000/svg" viewBox="0 0 250 250"><defs><style>.cls-1{fill:#f6ce56;}.cls-2{fill:#44a3d6;}.cls-3{fill:#434243;}.cls-4{fill:#ef5f2e;}</style></defs><title>Frozen Slushies</title><path class="cls-1" d="M157.1,116.4l-10.5,74.2a3.89,3.89,0,0,1-3.9,3.3H108a3.89,3.89,0,0,1-3.9-3.4l-10-74.2h63Z"/><path class="cls-2" d="M160,115.4H90a1.37,1.37,0,0,1-1.4-1.4V103.5a1.37,1.37,0,0,1,1.4-1.4h70a1.37,1.37,0,0,1,1.4,1.4V114A1.43,1.43,0,0,1,160,115.4Z"/><path class="cls-3" d="M157.5,116.4h-65a5,5,0,0,1-5-5V106a5,5,0,0,1,5-5h65a5,5,0,0,1,5,5v5.4A5.08,5.08,0,0,1,157.5,116.4Zm-65-13.3a2.9,2.9,0,0,0-2.9,2.9v5.4a2.9,2.9,0,0,0,2.9,2.9h65a2.9,2.9,0,0,0,2.9-2.9V106a2.9,2.9,0,0,0-2.9-2.9Z"/><path class="cls-3" d="M157.5,116.4h-65a5,5,0,0,1-5-5V106a5,5,0,0,1,5-5h65a5,5,0,0,1,5,5v5.4A5.08,5.08,0,0,1,157.5,116.4Zm-65-13.3a2.9,2.9,0,0,0-2.9,2.9v5.4a2.9,2.9,0,0,0,2.9,2.9h65a2.9,2.9,0,0,0,2.9-2.9V106a2.9,2.9,0,0,0-2.9-2.9Z"/><path class="cls-4" d="M156.7,101.4S153.7,71,125.3,71c-29.8,0-32.4,30.1-32.4,30.1Z"/><path class="cls-3" d="M156.7,102.5a1,1,0,0,1-1-.9c-.1-1.2-3.3-29.4-30.3-29.4-28.5,0-31.3,27.9-31.4,29.1a1.16,1.16,0,0,1-1.1,1,1.09,1.09,0,0,1-1-1.1c0-.3,3-31,33.5-31,29,0,32.4,31,32.4,31.3a1,1,0,0,1-.9,1.1Z"/><path class="cls-3" d="M142.7,195H108a4.88,4.88,0,0,1-4.9-4.3l-10-74.2a1.06,1.06,0,0,1,2.1-.3l10,74.2a2.89,2.89,0,0,0,2.8,2.5h34.7a2.9,2.9,0,0,0,2.8-2.4L156,116.3a1.06,1.06,0,1,1,2.1.3l-10.5,74.2A5,5,0,0,1,142.7,195Z"/><path class="cls-3" d="M153.1,144.5H97.5a1,1,0,0,1-1-1,1.08,1.08,0,0,1,1-1h55.6a1,1,0,0,1,0,2Z"/><path class="cls-3" d="M121.3,144.7h0c-.7-.1-1.1-.6-1-1.1l7.5-83.1a5.86,5.86,0,0,1,5.8-5.3L160,55h0a1,1,0,0,1,1,1,1.1,1.1,0,0,1-1,1.1l-26.5.2a3.64,3.64,0,0,0-3.7,3.4l-7.5,83.1A.92.92,0,0,1,121.3,144.7Z"/><path class="cls-3" d="M138.4,175.5l-2.9-1.7,2.5-1.5a.81.81,0,1,0-.8-1.4l-3.3,1.9-5.2-3.1,5.2-3,3.3,1.9c.1.1.2.1.4.1a.75.75,0,0,0,.7-.4.8.8,0,0,0-.3-1.1l-2.5-1.5,2.9-1.7a.81.81,0,1,0-.8-1.4l-2.9,1.7v-2.9a.8.8,0,0,0-1.6,0v3.9l-5.2,3v-6.1l3.3-1.9a.73.73,0,0,0,.3-1.1.8.8,0,0,0-1.1-.3l-2.5,1.4V157a.79.79,0,0,0-.8-.8.86.86,0,0,0-.8.8v3.4l-2.6-1.4a.81.81,0,0,0-.8,1.4l3.4,1.9v6.1l-5.3-3.1v-3.8a.79.79,0,0,0-.8-.8h0a.86.86,0,0,0-.8.8v2.9l-2.9-1.6a.81.81,0,0,0-.8,1.4l2.9,1.7-2.5,1.5a.8.8,0,0,0-.3,1.1.75.75,0,0,0,.7.4c.2,0,.3,0,.4-.1l3.3-2,5.3,3-5.3,3.1-3.3-2a.81.81,0,0,0-.8,1.4l2.5,1.5-2.9,1.7a.8.8,0,0,0-.3,1.1.82.82,0,0,0,1.1.3l2.9-1.6v2.9a.79.79,0,0,0,.8.8h0a.79.79,0,0,0,.8-.8v-3.8l5.3-3v6l-3.4,1.9a.8.8,0,0,0-.3,1.1.75.75,0,0,0,.7.4.6.6,0,0,0,.4-.1l2.6-1.5v3.4a.79.79,0,0,0,.8.8.86.86,0,0,0,.8-.8v-3.4l2.5,1.4a.6.6,0,0,0,.4.1.67.67,0,0,0,.7-.4.8.8,0,0,0-.3-1.1l-3.3-1.8v-6.1l5.2,3v3.9a.79.79,0,0,0,.8.8.86.86,0,0,0,.8-.8v-3l2.9,1.7a.6.6,0,0,0,.4.1.75.75,0,0,0,.7-.4A.83.83,0,0,0,138.4,175.5Z"/></svg>