<?xml version="1.0" encoding="utf-8"?>
<!-- Generator: Adobe Illustrator 21.1.0, SVG Export Plug-In . SVG Version: 6.00 Build 0)  -->
<svg version="1.1" id="Layer_1" xmlns="http://www.w3.org/2000/svg" xmlns:xlink="http://www.w3.org/1999/xlink" x="0px" y="0px"
	 viewBox="0 0 181 89.8" style="enable-background:new 0 0 181 89.8;" xml:space="preserve">
<style type="text/css">
	.st0{fill:#281F1A;}
	.st1{fill:#E91D25;}
	.st2{fill:#F7F0EF;}
</style>
<title>Grocery</title>
<path class="st0" d="M1.9,42.2c1.1-1.5,1.9-3.1,2.8-4.7c1.5-2.6,3-5.2,4.5-7.8c0.2-0.3,0.6-0.5,0.9-0.5c4.1,0,8.1,0,12.2,0
	c0.7,0,0.9-0.2,1-0.9c0.3-5,1.6-9.9,3.8-14.4c2.3-4.6,6.1-8.1,10.8-10.2c4.1-1.8,8.5-2.5,12.9-2.1C53.5,2.1,56,3,58.2,4.5
	c2.4,1.4,4.4,3.6,5.5,6.2c1.2,3.2,0.5,7.9-1.9,10c-1.4,1.3-3.2,2-5.2,2.2c-2.4,0.3-4.8,0.2-6.8-1.5c-1.6-1.3-2.7-3.2-2.9-5.3
	c-0.1-0.8-0.2-1.5-0.3-2.3c0-0.2,0.1-0.4-0.2-0.5s-0.3,0.1-0.4,0.2c-1.3,1.2-2.3,2.8-2.8,4.5c-1,3.4-0.9,7-0.8,10.5
	c0,0.5,0.3,0.5,0.7,0.5c4.7,0,9.4,0,14,0h46.2h43.4h29.2c1,0,1,0.1,0.6,0.9c-1.1,2-2.2,3.9-3.4,5.8c-1,1.7-2,3.5-2.9,5.3
	c-0.3,0.8-1,1.3-1.9,1.2c-30.2,0-60.4,0-90.7,0H43.8c-0.2,0-0.3,0-0.5,0c-0.7-0.1-0.9,0.2-0.9,0.9c0,12.1,0.1,24.1,0.1,36.2
	c0,1.2,0,1.2-1.3,1.2H26.4c-0.8,0-1.5-0.1-2.3-0.1s-0.9-0.2-0.9-0.9c0-11.4,0-22.9,0-34.3c0-0.7-0.1-1.4,0-2.2s-0.2-0.7-0.8-0.7
	c-5.1,0-10.3,0-15.4,0c-1.7,0-3.4,0-5.1-0.1L1.9,42.2z M142.4,35.9c0.5-0.2,0.9-0.3,1.3-0.4c0.9-0.3,1.5-1.1,1.4-2.1
	c0-0.9-0.6-1.7-1.4-2c-0.6-0.3-1.2-0.4-1.8-0.4c-2.2,0-4.4,0-6.6,0c-0.3,0-0.7-0.2-0.7,0.3s0.4,0.4,0.7,0.4c0.7,0,0.9,0.2,0.9,0.9
	c0,2,0,4.1,0,6.1c0,1.1,0,1.2-1.1,1.3c-0.3,0-0.4,0.1-0.4,0.4s0.2,0.3,0.4,0.3h5.1c0.2,0,0.4-0.1,0.4-0.4s-0.1-0.4-0.4-0.4
	s-0.5,0-0.7,0c-0.3,0-0.5-0.2-0.6-0.5c0,0,0-0.1,0-0.1c0-1,0-2,0-2.9c0-0.1,0-0.3,0.2-0.4c1-0.3,2,0.2,2.4,1.1
	c0.1,0.6,0.1,1.3,0.2,1.9c0.1,1.1,1.1,1.9,2.2,1.8c0,0,0,0,0,0c1.5,0,2.4-0.6,2.6-1.8c0-0.3,0.2-0.6-0.2-0.7s-0.5,0.1-0.6,0.5
	s-0.1,0.8-0.6,0.8s-0.5-0.5-0.6-0.8C144.2,37.7,143.9,36.5,142.4,35.9L142.4,35.9z M86.7,31L86.7,31h-3.4c-0.3,0-0.6-0.1-0.6,0.3
	s0.3,0.4,0.6,0.4c0.7-0.1,0.9,0.3,0.9,1c0,2.1,0,4.1,0,6.2c0,0.8-0.2,1.2-1.1,1.2c-0.2,0-0.5,0-0.5,0.3s0.2,0.4,0.5,0.4
	c2.2,0,4.5,0.1,6.7-0.1c2.7-0.2,4.4-2.2,4.3-5c0.1-2.5-1.9-4.5-4.3-4.6c-0.1,0-0.1,0-0.2,0C88.7,31,87.7,31.1,86.7,31L86.7,31z
	 M151.7,40.8h2.2c0.8,0,1.5,0,2.2,0c0.5,0,0.7-0.2,0.7-0.7c0-0.8,0.1-1.5,0.1-2.3c0-0.3,0.1-0.6-0.3-0.7s-0.5,0.2-0.6,0.5
	c-0.7,2.1-2.2,2.6-4.3,2.4c-0.5,0-0.8-0.3-0.8-0.8s0-1.3,0-1.9c0-0.4-0.2-0.9,0.2-1.1c0.5-0.1,0.9,0,1.3,0.3
	c0.4,0.3,0.7,0.7,0.8,1.2c0,0.3,0.2,0.5,0.5,0.5s0.4-0.3,0.4-0.5c0-1.2,0-2.4,0-3.6c0-0.3,0.1-0.6-0.3-0.7s-0.5,0.2-0.6,0.5
	c-0.2,0.7-0.8,1.3-1.5,1.4c-0.4,0.1-0.7,0-0.7-0.5c0-0.7,0-1.4,0-2.1s0.3-1,1-1c2.3-0.1,3.3,0.5,3.9,2.4c0.1,0.3,0.3,0.4,0.6,0.4
	c0,0,0,0,0,0c0.4,0,0.3-0.3,0.3-0.5c0-0.8-0.1-1.5-0.1-2.3c0-0.6-0.2-0.7-0.7-0.7c-2.9,0-5.8,0-8.6,0c-0.3,0-0.7-0.1-0.7,0.4
	s0.4,0.4,0.7,0.3c0.7,0,0.9,0.3,0.9,0.9c0,2.1,0,4.2,0,6.3c0,0.7-0.2,1.1-1,1c-0.3,0-0.6-0.1-0.6,0.4s0.4,0.4,0.6,0.4L151.7,40.8z
	 M63.9,41c0.2,0,0.5,0,0.8,0c2.8-0.2,5-2.6,4.8-5.5c0-0.5-0.1-0.9-0.3-1.4c-1.1-2.4-3.7-3.8-6.3-3.2c-2.2,0.3-4,1.9-4.4,4.1
	C57.8,38.3,60.3,41,63.9,41L63.9,41z M128.2,41h0.7c2.8-0.2,5-2.6,4.8-5.4c0-0.6-0.2-1.1-0.4-1.7c-1.2-2.4-4-3.7-6.6-2.9
	c-2.3,0.4-4,2.4-4.1,4.7C122.5,38.7,124.9,41,128.2,41L128.2,41z M76.2,41h0.7c2.3-0.2,4.2-1.8,4.8-4c0.5-2-0.3-4-2-5.2
	c-2.3-1.5-5.2-1.3-7.3,0.4c-1.3,1-1.9,2.7-1.7,4.3C71,39.2,73.4,41.2,76.2,41L76.2,41z M158.4,39L158.4,39c0.1,0.4,0.1,0.8,0.1,1.2
	s-0.1,0.6,0.2,0.8c0.3,0.1,0.7,0,0.9-0.3c0.4-0.4,0.7-0.4,1.2-0.1c1.4,0.7,3,0.8,4.4,0.2c1.2-0.4,1.9-1.5,1.9-2.8
	c0.1-1.2-0.6-2.3-1.7-2.7c-0.3-0.2-0.7-0.3-1.1-0.4c-1-0.3-2.1-0.4-3.1-0.7c-0.6-0.1-1-0.6-1-1.2c0-0.6,0.4-1.1,1-1.2
	c0.6-0.2,1.2-0.2,1.8-0.1c1.2,0.3,2.2,1.2,2.7,2.4c0.2,0.3,0.3,0.5,0.7,0.4s0.3-0.4,0.3-0.7c0-0.7,0-1.4-0.1-2.2
	c0-0.2,0.1-0.6-0.2-0.7c-0.3-0.1-0.6,0-0.8,0.2c-0.4,0.4-0.7,0.3-1.1,0.1c-1.3-0.6-2.8-0.6-4.1,0c-1.4,0.5-2.2,2.1-1.6,3.6
	c0.1,0.3,0.3,0.6,0.5,0.9c0.7,0.7,1.6,1.2,2.6,1.3c0.8,0.2,1.7,0.3,2.5,0.5c0.6,0.1,1.1,0.6,1.1,1.3c0,0.6-0.5,1.2-1.1,1.3
	c-1.2,0.4-2.5,0.1-3.4-0.8c-0.6-0.5-1-1.1-1.3-1.8c-0.1-0.3-0.3-0.6-0.7-0.5s-0.3,0.5-0.3,0.8S158.4,38.6,158.4,39L158.4,39z
	 M102.1,39L102.1,39c0,0.4,0,0.8,0,1.2s-0.1,0.6,0.2,0.8c0.3,0.1,0.7,0,0.9-0.3c0.4-0.4,0.7-0.4,1.2-0.2c1.3,0.7,2.8,0.8,4.2,0.3
	c1.3-0.4,2.1-1.5,2.1-2.8c0.1-1.3-0.7-2.4-1.9-2.8c-0.7-0.3-1.4-0.5-2.1-0.6c-0.6-0.1-1.3-0.2-1.9-0.4c-0.6-0.1-1-0.6-1-1.2
	c0-0.6,0.5-1.1,1.1-1.2c0.9-0.3,1.9-0.1,2.7,0.4c0.7,0.5,1.2,1.1,1.6,1.8c0.2,0.3,0.3,0.6,0.8,0.5s0.2-0.5,0.2-0.7
	c0-0.7,0-1.4-0.1-2.1c0-0.2,0.1-0.6-0.2-0.7c-0.3-0.1-0.6-0.1-0.9,0.2c-0.3,0.3-0.6,0.3-1,0.1c-1.3-0.6-2.8-0.6-4.1-0.1
	c-1,0.3-1.7,1.2-1.8,2.2c-0.2,1,0.2,2,1.1,2.7c0.7,0.5,1.4,0.8,2.3,0.9c0.8,0.1,1.6,0.3,2.3,0.5c0.6,0.1,1.1,0.6,1.1,1.3
	c0,0.7-0.5,1.3-1.1,1.4c-1.2,0.4-2.5,0.1-3.4-0.8c-0.6-0.5-1-1.1-1.3-1.8c-0.1-0.3-0.3-0.6-0.7-0.5s-0.3,0.4-0.3,0.7
	C102.2,38.1,102.2,38.5,102.1,39L102.1,39z M52.2,31H48c-0.3,0-0.6-0.1-0.6,0.3s0.3,0.4,0.6,0.4c0.7,0,0.9,0.3,0.9,1c0,2,0,4,0,5.9
	c0,1.2,0,1.2-1.2,1.4c-0.2,0-0.4,0.1-0.4,0.4s0.1,0.4,0.4,0.4H53c0.2,0,0.3-0.1,0.3-0.3c0,0,0,0,0-0.1c0-0.2-0.1-0.4-0.3-0.4
	L52.2,40c-0.4,0-0.7-0.2-0.7-0.7c0-0.9,0-1.8,0-2.7c0-0.4,0.2-0.5,0.6-0.5c0.8,0.1,1.4,0.7,1.6,1.5c0.1,0.3,0.1,0.7,0.6,0.6
	s0.3-0.5,0.3-0.7c0-1.1,0-2.1,0-3.2c0-0.3,0.2-0.7-0.3-0.8s-0.5,0.3-0.6,0.6c-0.2,0.7-0.8,1.2-1.5,1.3c-0.4,0.1-0.6,0-0.6-0.5
	c0-0.7,0-1.5,0-2.2c0-0.6,0.3-0.8,0.8-0.8c1.8-0.4,3.5,0.6,4,2.4c0.1,0.3,0.2,0.5,0.6,0.4s0.3-0.3,0.3-0.6c0-0.8-0.1-1.5,0-2.3
	c0-0.6-0.2-0.7-0.7-0.7C55,31,53.7,31,52.2,31L52.2,31z M116.6,31h-4.3c-0.3,0-0.6,0-0.6,0.4c0,1-0.1,1.9-0.2,2.8
	c0,0.2,0,0.4,0.2,0.4s0.5,0.1,0.6-0.2s0.1-0.3,0.1-0.5c0.2-0.9,0.8-1.7,1.7-2.1c0.8-0.3,1.2-0.1,1.2,0.8c0,2,0,4,0,6
	c0,1.2,0,1.2-1.2,1.4c-0.3,0-0.4,0.1-0.4,0.4s0.2,0.4,0.4,0.4h5.2c0.2,0,0.5,0,0.5-0.3s-0.2-0.4-0.5-0.4H119c-1-0.1-1-0.1-1-1.1
	c0-2.1,0-4.1,0-6.2c0-1.1,0.5-1.4,1.5-0.8c0.4,0.2,0.8,0.6,1,1c0.2,0.4,0.4,0.9,0.5,1.4c0.1,0.3,0.2,0.5,0.5,0.4s0.3-0.3,0.3-0.6
	c0-0.8-0.1-1.6-0.1-2.5c0-0.5-0.2-0.7-0.7-0.7C119.5,31,118.1,31,116.6,31L116.6,31z"/>
<path class="st0" d="M126.3,66.2c0,6.1,0,12.2,0,18.4c0,0.8-0.3,1-1,1.2c-1.9,0.4-3.9,1-5.8,1.4s-3.8,0.9-5.8,1.3
	c-1.1,0.3-2.2,0.5-3.3,0.7c-0.5,0.1-0.6,0-0.6-0.5c0-3.7,0-7.4,0-11.1c0-0.2,0.1-0.5-0.1-0.6s-0.3,0.3-0.4,0.4
	c-1.1,1.4-2.6,2.5-4.4,3.1c-1.7,0.7-3.4,1.1-5.2,1.1c-3.9,0.1-6.7-1.7-8.9-4.7c-1.4-2.1-2.3-4.4-2.5-6.9c-0.8-6-0.6-12.1-0.6-18.1
	c0-1.4,0-2.9,0-4.3c0-0.6,0.2-0.9,0.8-0.9c5,0,9.9,0,14.9,0c0.6,0,0.8,0.2,0.8,0.8c0.1,6.3,0.1,12.5,0,18.7c0,1.1,0.1,2.1,1.2,2.6
	c1.2,0.6,2.7,0.5,3.7-0.4c0.6-0.6,0.8-1.4,0.8-2.2c0-5.8,0-11.6,0-17.4c0-0.5,0-1.1,0-1.6s0.2-0.6,0.6-0.6c5,0,10,0,15,0
	c0.6,0,0.8,0.3,0.8,0.8C126.3,53.8,126.3,60,126.3,66.2L126.3,66.2z"/>
<path class="st0" d="M164.2,44.6c5.3,0,10.5,1.3,15.2,3.8c1.1,0.6,1.1,0.6,0.7,1.7c-0.4,1.3-0.9,2.7-1.3,4c-0.2,0.6-0.5,0.6-0.9,0.4
	c-2.4-1.1-5-1.8-7.6-2.3c-2.5-0.5-5.2-0.6-7.7-0.1c-0.4,0.1-0.7,0.2-1.1,0.4c-0.6,0.4-0.6,1.2,0.1,1.6c1,0.6,2.1,1.1,3.3,1.3
	c2.4,0.6,4.9,0.9,7.2,1.8c3.8,1.6,6.8,4.1,8,8.1c0.7,2.3,0.5,4.8-0.5,7c-1.6,3.8-4.8,6.8-8.7,8.1c-3.7,1.3-7.7,1.7-11.6,1.1
	c-5.1-0.6-10-2.4-14.3-5.3c-0.4-0.2-0.6-0.6-0.4-1c0,0,0,0,0-0.1c0.8-1.9,1.6-3.9,2.3-5.9c0.2-0.5,0.4-0.5,0.8-0.3
	c1.7,0.9,3.5,1.7,5.4,2.2c3.4,1.1,6.9,1.5,10.4,1.3c0.3,0,0.7-0.1,1-0.2c0.6-0.1,1.1-0.6,1-1.2c0-0.5-0.4-0.9-0.8-1
	c-1.2-0.4-2.4-0.7-3.7-0.8c-2.4-0.4-4.9-1-7.2-1.8c-1.2-0.3-2.3-0.7-3.4-1.3c-2.6-1.4-4.7-3.3-4.9-6.6c-0.3-3.1,0.6-6.1,2.5-8.5
	c2.3-2.7,5.3-4.7,8.7-5.7C159.1,44.9,161.6,44.5,164.2,44.6z"/>
<path class="st0" d="M50.7,63.7c0-5.4,0-10.7,0-16c0-0.6,0.2-0.8,0.8-0.8c5,0,9.9,0,14.9,0c0.5,0,0.8,0.1,0.8,0.7
	c0,0.6,0.2,0.6,0.7,0.3c2.2-1.6,4.8-2.6,7.5-2.9c2.8-0.2,5.5,0,7.7,1.9c2,1.7,3.1,4.2,2.9,6.8c-0.1,4.4-3.7,7.9-8.1,7.9
	c-2.8-0.1-5.3-1.5-6.8-4c-0.5-0.9-0.9-1.9-1-2.9c0-0.3-0.1-0.7-0.4-0.8s-0.6,0.3-0.8,0.6c-0.7,1.1-1.1,2.3-1.2,3.6
	c-0.6,7.2-0.6,14.3-0.6,21.5c0,1.2,0,1.2-1.2,1.2H51.8c-1.1,0-1.1,0-1.1-1.1C50.7,74.4,50.7,69.1,50.7,63.7L50.7,63.7z"/>
<path class="st0" d="M139.2,60.2l-4.4-7.7l-2.7-4.7c-0.1-0.2-0.4-0.5-0.3-0.8s0.5-0.2,0.8-0.2h13.3c0.3,0,0.6-0.1,0.8,0.1
	s-0.1,0.6-0.3,0.8c-1.9,3.4-3.9,6.8-5.8,10.1C140.1,58.7,139.6,59.3,139.2,60.2z"/>
<path class="st0" d="M142.4,35.9c1.5,0.6,1.8,1.8,2.1,3c0.1,0.3,0.1,0.8,0.6,0.8s0.5-0.4,0.6-0.8s0.2-0.5,0.6-0.5s0.3,0.4,0.2,0.7
	c-0.2,1.2-1.1,1.8-2.6,1.8c-1.1,0.1-2.1-0.7-2.2-1.8c0,0,0,0,0,0c-0.1-0.6-0.1-1.3-0.2-1.9c-0.4-0.9-1.4-1.4-2.4-1.1
	c-0.2,0.1-0.2,0.2-0.2,0.4c0,1,0,2,0,2.9c0,0.3,0.2,0.5,0.4,0.6c0,0,0.1,0,0.1,0c0.2,0,0.5,0,0.7,0s0.3,0.1,0.4,0.4
	s-0.1,0.4-0.4,0.4H135c-0.2,0-0.4-0.1-0.4-0.3s0.1-0.4,0.4-0.4c1.1-0.1,1.1-0.2,1.1-1.3c0-2,0-4.1,0-6.1c0-0.7-0.2-0.9-0.9-0.9
	c-0.3,0-0.7,0.2-0.7-0.4s0.4-0.3,0.7-0.3c2.2,0,4.4,0,6.6,0c0.6,0,1.2,0.1,1.8,0.4c0.8,0.3,1.4,1.1,1.4,2c0,0.9-0.6,1.8-1.4,2.1
	C143.3,35.6,142.9,35.8,142.4,35.9z M138.9,33.7c0,1.8,0.3,2,2.1,1.5l0.4-0.1c0.4-0.2,0.8-0.5,0.9-1c0.2-0.7,0.1-1.4-0.4-1.9
	c-0.8-0.5-1.7-0.6-2.6-0.3c-0.6,0.4-0.2,1-0.3,1.6C138.9,33.5,138.9,33.6,138.9,33.7L138.9,33.7z"/>
<path class="st0" d="M86.7,31.1c1,0,2,0,3,0c2.5,0,4.5,2,4.5,4.4c0,0.1,0,0.1,0,0.2c0,2.8-1.6,4.8-4.3,5c-2.2,0.2-4.5,0-6.7,0.1
	c-0.3,0-0.5-0.1-0.5-0.4s0.2-0.4,0.5-0.3c0.9,0.1,1.1-0.3,1.1-1.2c0-2.1,0-4.1,0-6.2c0-0.7-0.2-1-0.9-1c-0.3,0-0.6,0.1-0.6-0.4
	s0.4-0.3,0.6-0.3h3.4L86.7,31.1z M86.9,35.8c0,1.1,0,2.2,0,3.3c0,0.4,0,0.7,0.5,0.8c1.4,0.4,2.9-0.4,3.5-1.8c0.4-1.3,0.5-2.7,0.2-4
	c-0.2-1.5-1.5-2.6-3-2.5c-0.1,0-0.2,0-0.2,0c-0.6,0-0.9,0.3-0.9,0.9C86.9,33.7,86.9,34.8,86.9,35.8L86.9,35.8z"/>
<path class="st0" d="M151.7,40.8h-4.4c-0.3,0-0.7,0.1-0.6-0.4s0.4-0.4,0.6-0.4c0.7,0,1-0.3,1-1c0-2.1,0-4.2,0-6.3
	c0-0.7-0.2-0.9-0.9-0.9c-0.3,0-0.7,0.2-0.7-0.3s0.4-0.4,0.7-0.4c2.9,0,5.8,0,8.6,0c0.5,0,0.7,0.1,0.7,0.7c0,0.8,0,1.5,0.1,2.3
	c0,0.2,0.1,0.5-0.3,0.5c-0.3,0.1-0.5-0.1-0.6-0.3c0,0,0,0,0,0c-0.7-1.9-1.7-2.5-3.9-2.4c-0.6,0-1,0.3-1,1s0,1.4,0,2.1
	c0,0.5,0.2,0.6,0.7,0.5c0.7-0.1,1.3-0.6,1.5-1.4c0.1-0.3,0.2-0.6,0.6-0.5s0.3,0.4,0.3,0.7c0,1.2,0,2.4,0,3.6c0,0.3,0,0.5-0.4,0.5
	s-0.5-0.1-0.5-0.5c-0.1-0.5-0.3-0.9-0.8-1.2c-0.3-0.3-0.8-0.5-1.3-0.3c-0.4,0.2-0.1,0.7-0.2,1.1c0,0.6,0,1.3,0,1.9s0.3,0.8,0.8,0.8
	c2.1,0.2,3.6-0.3,4.3-2.4c0.1-0.3,0.2-0.5,0.6-0.5s0.3,0.4,0.3,0.7c0,0.8-0.1,1.5-0.1,2.3c0,0.5-0.2,0.7-0.7,0.7c-0.7,0-1.5,0-2.2,0
	L151.7,40.8L151.7,40.8z"/>
<path class="st0" d="M63.9,41c-3.6,0-6.1-2.7-5.6-6c0.4-2.2,2.2-3.8,4.4-4.1c2.6-0.6,5.3,0.8,6.3,3.2c1,2.7-0.4,5.6-3.1,6.6
	c-0.4,0.2-0.9,0.3-1.4,0.3C64.4,41,64.1,41,63.9,41z M66.5,35.9c0-0.9-0.1-1.8-0.4-2.7c-0.3-1-1.2-1.7-2.2-1.7c-1-0.1-2,0.6-2.3,1.6
	C61,35,61.1,37,61.8,38.8c0.4,1,1.4,1.6,2.4,1.4c0.9,0,1.7-0.7,1.9-1.7C66.4,37.7,66.5,36.8,66.5,35.9L66.5,35.9z"/>
<path class="st0" d="M128.2,41c-3.3,0-5.8-2.3-5.6-5.3c0.1-2.3,1.8-4.3,4.1-4.7c2.6-0.7,5.4,0.5,6.6,2.9c1.1,2.6-0.2,5.6-2.8,6.7
	c-0.5,0.2-1.1,0.3-1.7,0.4L128.2,41z M130.8,35.9c0-0.9-0.1-1.9-0.4-2.8c-0.3-0.9-1.1-1.5-2.1-1.5c-1-0.1-1.9,0.5-2.3,1.5
	c-0.4,1.2-0.6,2.5-0.4,3.8c0,0.9,0.3,1.7,0.7,2.4c0.5,0.8,1.4,1.2,2.3,1c0.8-0.1,1.5-0.6,1.7-1.4C130.7,37.9,130.8,36.9,130.8,35.9z
	"/>
<path class="st0" d="M76.2,41c-2.8,0.2-5.2-1.8-5.6-4.6c-0.2-1.6,0.4-3.2,1.7-4.3c2.1-1.7,5.1-1.8,7.3-0.4c1.7,1.1,2.5,3.2,2,5.2
	c-0.6,2.2-2.5,3.8-4.8,4L76.2,41z M78.8,35.8c0-0.9-0.1-1.8-0.4-2.7c-0.3-0.9-1.2-1.6-2.1-1.6c-1-0.1-1.9,0.5-2.2,1.4
	c-0.7,1.9-0.7,4,0.1,5.9c0.4,1,1.4,1.5,2.5,1.3c0.9-0.1,1.7-0.8,1.8-1.7C78.7,37.7,78.9,36.7,78.8,35.8L78.8,35.8z"/>
<path class="st0" d="M158.4,39c0-0.4,0-0.8,0-1.2s-0.1-0.7,0.3-0.8s0.5,0.2,0.7,0.5c0.3,0.7,0.8,1.3,1.3,1.8
	c0.9,0.9,2.2,1.2,3.4,0.8c0.6-0.1,1.1-0.7,1.1-1.3c0-0.7-0.5-1.2-1.1-1.3c-0.8-0.2-1.7-0.3-2.5-0.5c-1-0.1-1.9-0.6-2.6-1.3
	c-1-1.2-0.9-2.9,0.3-3.9c0.3-0.2,0.5-0.4,0.9-0.5c1.3-0.6,2.8-0.6,4.1,0c0.4,0.2,0.7,0.3,1.1-0.1c0.2-0.2,0.5-0.3,0.8-0.2
	c0.3,0.1,0.2,0.4,0.2,0.7c0.1,0.7,0.1,1.4,0.1,2.2c0,0.3,0.2,0.6-0.3,0.7s-0.5-0.1-0.7-0.4c-0.5-1.2-1.5-2-2.7-2.4
	c-0.6-0.1-1.2-0.1-1.8,0.1c-0.6,0.1-1,0.6-1,1.2c0,0.6,0.4,1.1,1,1.2c1,0.3,2.1,0.5,3.1,0.7c0.4,0.1,0.7,0.2,1.1,0.4
	c1.1,0.4,1.8,1.5,1.7,2.7c0,1.2-0.7,2.3-1.9,2.8c-1.4,0.6-3,0.6-4.4-0.2c-0.5-0.2-0.8-0.3-1.2,0.1c-0.2,0.3-0.6,0.4-0.9,0.3
	c-0.3-0.2-0.2-0.5-0.2-0.8s0-0.8,0-1.2L158.4,39z"/>
<path class="st0" d="M102.2,38.9c0-0.4,0-0.8,0-1.2c0-0.3-0.2-0.6,0.3-0.7s0.5,0.2,0.7,0.5c0.3,0.7,0.8,1.3,1.3,1.8
	c0.9,0.8,2.2,1.1,3.4,0.8c0.7-0.1,1.1-0.7,1.1-1.4c0-0.7-0.5-1.2-1.1-1.3c-0.8-0.2-1.6-0.3-2.3-0.5c-0.8-0.1-1.6-0.5-2.3-0.9
	c-0.8-0.6-1.3-1.6-1.1-2.7c0.1-1,0.8-1.9,1.8-2.2c1.3-0.6,2.8-0.6,4.1,0.1c0.4,0.2,0.7,0.2,1-0.1c0.2-0.2,0.6-0.3,0.9-0.2
	c0.3,0.1,0.2,0.4,0.2,0.7c0,0.7,0.1,1.4,0.1,2.1c0,0.3,0.2,0.6-0.2,0.7s-0.6-0.2-0.8-0.5c-0.4-0.8-0.9-1.4-1.6-1.8
	c-0.8-0.5-1.8-0.7-2.7-0.4c-0.6,0.1-1.1,0.6-1.1,1.2c0,0.6,0.4,1.1,1,1.2c0.6,0.2,1.2,0.3,1.9,0.4c0.7,0.1,1.5,0.3,2.1,0.6
	c1.2,0.4,2,1.5,1.9,2.8c0,1.3-0.9,2.5-2.1,2.8c-1.4,0.5-2.9,0.4-4.2-0.3c-0.5-0.3-0.8-0.3-1.2,0.2c-0.2,0.3-0.6,0.4-0.9,0.3
	c-0.3-0.2-0.2-0.5-0.2-0.8S102.3,39.4,102.2,38.9L102.2,38.9z"/>
<path class="st0" d="M52.3,31c1.4,0,2.8,0,4.2,0c0.5,0,0.7,0.1,0.7,0.7c0,0.8,0,1.5,0,2.3c0,0.2,0.1,0.5-0.3,0.6s-0.5-0.2-0.6-0.4
	c-0.5-1.7-2.2-2.8-4-2.4c-0.5,0.1-0.8,0.3-0.8,0.8c0,0.7,0,1.5,0,2.2c0,0.5,0.2,0.6,0.6,0.5c0.7-0.1,1.3-0.6,1.5-1.3
	c0.1-0.3,0.2-0.7,0.6-0.6s0.3,0.5,0.3,0.8c0,1.1,0,2.1,0,3.2c0,0.3,0.2,0.7-0.3,0.7s-0.5-0.3-0.6-0.6c-0.2-0.8-0.8-1.4-1.6-1.5
	c-0.4-0.1-0.6,0-0.6,0.5c0,0.9,0,1.8,0,2.7c0,0.5,0.2,0.7,0.7,0.7l0.8,0.1c0.3,0,0.3,0.2,0.3,0.4c0,0.2-0.1,0.3-0.3,0.3
	c0,0,0,0-0.1,0h-5.3c-0.3,0-0.4-0.1-0.4-0.4s0.2-0.3,0.4-0.4c1.2-0.2,1.2-0.2,1.2-1.4c0-2,0-4,0-5.9c0-0.7-0.2-1-0.9-1
	c-0.3,0-0.6,0.1-0.6-0.4s0.4-0.3,0.6-0.3L52.3,31L52.3,31z"/>
<path class="st0" d="M116.6,31c1.4,0,2.9,0,4.3,0c0.5,0,0.7,0.1,0.7,0.7c0,0.8,0.1,1.6,0.1,2.5c0,0.2,0.1,0.5-0.3,0.6
	s-0.4-0.1-0.5-0.4c-0.1-0.5-0.3-0.9-0.5-1.4c-0.2-0.4-0.6-0.8-1-1c-1-0.6-1.5-0.3-1.5,0.8c0,2.1,0,4.1,0,6.2c0,1,0,1,1,1.1h0.1
	c0.3,0,0.5,0,0.5,0.4s-0.2,0.3-0.5,0.3H114c-0.3,0-0.4-0.1-0.4-0.4s0.2-0.3,0.4-0.4c1.2-0.2,1.2-0.2,1.2-1.4c0-2,0-4,0-6
	c0-0.9-0.4-1.1-1.2-0.8c-0.8,0.4-1.5,1.2-1.7,2.1c-0.1,0.2-0.1,0.3-0.1,0.5s-0.3,0.3-0.6,0.2s-0.2-0.2-0.2-0.4
	c0.1-0.9,0.1-1.9,0.2-2.8c0-0.4,0.3-0.4,0.6-0.4L116.6,31z"/>
<path class="st0" d="M138.9,33.7c0-0.1,0-0.2,0-0.3c0.1-0.5-0.3-1.2,0.3-1.6c0.9-0.2,1.8-0.1,2.6,0.3c0.5,0.5,0.6,1.3,0.4,1.9
	c-0.1,0.5-0.4,0.8-0.9,1l-0.4,0.1C139.2,35.7,138.9,35.5,138.9,33.7z"/>
<path class="st0" d="M86.9,35.8c0-1.1,0-2.1,0-3.2c0-0.7,0.3-0.9,0.9-0.9c1.5-0.3,2.9,0.7,3.2,2.2c0,0.1,0,0.2,0,0.2
	c0.3,1.3,0.2,2.7-0.2,4c-0.5,1.4-2,2.2-3.5,1.8c-0.4-0.1-0.5-0.5-0.5-0.8C86.9,38,86.9,36.9,86.9,35.8z"/>
<path class="st0" d="M66.5,35.9c0,0.9-0.1,1.9-0.4,2.8c-0.2,0.9-0.9,1.6-1.9,1.7c-1,0.1-2-0.5-2.4-1.4c-0.7-1.8-0.8-3.8-0.2-5.7
	c0.3-1,1.2-1.7,2.3-1.6c1,0,2,0.7,2.2,1.7C66.4,34.1,66.5,35,66.5,35.9z"/>
<path class="st0" d="M130.8,35.9c0,1-0.1,2-0.5,2.9c-0.2,0.8-0.9,1.4-1.7,1.4c-0.9,0.2-1.8-0.2-2.3-1c-0.4-0.7-0.7-1.6-0.7-2.4
	c-0.2-1.3,0-2.6,0.4-3.8c0.3-1,1.3-1.6,2.3-1.5c1,0,1.8,0.6,2.1,1.5C130.7,34,130.8,34.9,130.8,35.9z"/>
<path class="st0" d="M78.8,35.8c0,0.9-0.1,1.9-0.4,2.8c-0.2,0.9-0.9,1.6-1.8,1.7c-1,0.2-2-0.4-2.5-1.3c-0.8-1.9-0.8-4-0.1-5.9
	c0.3-0.9,1.2-1.5,2.2-1.4c1,0,1.8,0.6,2.1,1.6C78.7,34,78.9,34.9,78.8,35.8z"/>
<path class="st1" d="M0.5,41c1.1-1.5,1.9-3.1,2.8-4.7c1.5-2.6,3-5.2,4.5-7.8C8,28.2,8.3,28,8.7,28.1c4.1,0,8.1,0,12.2,0
	c0.7,0,0.9-0.2,1-0.9c0.3-5,1.6-9.9,3.8-14.4C28,8.2,31.8,4.6,36.5,2.6c4.1-1.8,8.5-2.5,12.9-2c2.7,0.3,5.2,1.2,7.4,2.7
	c2.4,1.4,4.4,3.6,5.5,6.2c1.3,3.2,0.5,7.9-1.9,10c-1.4,1.3-3.2,2.1-5.2,2.3c-2.4,0.3-4.8,0.2-6.8-1.5c-1.6-1.3-2.7-3.2-2.9-5.3
	c-0.1-0.8-0.2-1.5-0.3-2.3c0-0.2,0.1-0.4-0.2-0.5s-0.3,0.1-0.4,0.2c-1.3,1.2-2.3,2.8-2.8,4.5c-1,3.4-0.9,7-0.8,10.5
	c0,0.5,0.3,0.5,0.7,0.5c4.7,0,9.4,0,14,0H102h43.4h29.2c1,0,1,0.1,0.6,0.9c-1.1,2-2.2,3.9-3.4,5.8c-1,1.7-2,3.5-2.9,5.3
	c-0.3,0.8-1,1.3-1.9,1.2c-30.2,0-60.4,0-90.7,0H42.4c-0.2,0-0.3,0-0.5,0c-0.7-0.1-0.9,0.2-0.9,0.9c0,12.1,0.1,24.1,0.1,36.2
	c0,1.2,0,1.2-1.3,1.2H25c-0.8,0-1.5-0.1-2.3-0.1s-0.9-0.2-0.9-0.9c0-11.4,0-22.9,0-34.3c0-0.7-0.1-1.4,0-2.2s-0.2-0.7-0.8-0.7
	c-5.1,0-10.3,0-15.4,0c-1.7,0-3.4,0-5.1-0.1L0.5,41z M141,34.7c0.5-0.2,0.9-0.3,1.3-0.4c0.9-0.3,1.5-1.1,1.4-2.1
	c0-0.9-0.6-1.7-1.4-2c-0.6-0.3-1.2-0.4-1.8-0.4c-2.2,0-4.4,0-6.6,0c-0.3,0-0.7-0.2-0.7,0.3s0.4,0.4,0.7,0.4c0.7,0,0.9,0.2,0.9,0.9
	c0,2,0,4.1,0,6.1c0,1.1,0,1.2-1.1,1.3c-0.3,0-0.4,0.1-0.4,0.4s0.2,0.3,0.4,0.3h5.1c0.2,0,0.4-0.1,0.4-0.4s-0.1-0.4-0.4-0.4
	s-0.5,0-0.7,0c-0.3,0-0.5-0.2-0.6-0.5c0,0,0-0.1,0-0.1c0-1,0-2,0-2.9c0-0.1,0-0.3,0.2-0.4c1-0.3,2,0.2,2.4,1.1
	c0.1,0.6,0.1,1.3,0.2,1.9c0.1,1.1,1.1,1.9,2.2,1.8c0,0,0,0,0,0c1.5,0,2.4-0.6,2.6-1.8c0-0.3,0.2-0.6-0.2-0.7s-0.5,0.1-0.6,0.5
	s-0.1,0.8-0.6,0.8s-0.5-0.5-0.6-0.8C142.8,36.5,142.5,35.3,141,34.7L141,34.7z M85.3,29.8L85.3,29.8h-3.4c-0.3,0-0.6-0.1-0.6,0.3
	s0.3,0.4,0.6,0.4c0.7-0.1,0.9,0.3,0.9,1c0,2.1,0,4.1,0,6.2c0,0.8-0.2,1.2-1.1,1.2c-0.2,0-0.5,0-0.5,0.3s0.2,0.4,0.5,0.4
	c2.2,0,4.5,0.1,6.7-0.1c2.7-0.2,4.4-2.2,4.3-5c0.1-2.5-1.9-4.5-4.3-4.6c-0.1,0-0.1,0-0.2,0C87.3,29.8,86.3,29.8,85.3,29.8z
	 M150.3,39.5h2.2c0.8,0,1.5,0,2.2,0c0.5,0,0.7-0.2,0.7-0.7c0-0.8,0.1-1.5,0.1-2.3c0-0.3,0.1-0.6-0.3-0.7s-0.5,0.2-0.6,0.5
	c-0.7,2.1-2.2,2.6-4.3,2.4c-0.5,0-0.8-0.3-0.8-0.8s0-1.3,0-1.9c0-0.4-0.2-0.9,0.2-1.1c0.5-0.1,0.9,0,1.3,0.3
	c0.4,0.3,0.7,0.7,0.8,1.2c0,0.3,0.2,0.5,0.5,0.5s0.4-0.3,0.4-0.5c0-1.2,0-2.4,0-3.6c0-0.3,0.1-0.6-0.3-0.7s-0.5,0.2-0.6,0.5
	c-0.2,0.7-0.7,1.3-1.5,1.4c-0.4,0.1-0.7,0-0.7-0.5c0-0.7,0-1.4,0-2.1s0.3-1,1-1c2.3-0.1,3.3,0.5,3.9,2.4c0.1,0.3,0.3,0.4,0.6,0.4
	c0,0,0,0,0,0c0.4,0,0.3-0.3,0.3-0.5c0-0.8-0.1-1.5-0.1-2.3c0-0.6-0.2-0.7-0.7-0.7c-2.9,0-5.8,0-8.6,0c-0.3,0-0.7-0.1-0.7,0.4
	s0.4,0.4,0.7,0.3c0.7,0,0.9,0.3,0.9,0.9c0,2.1,0,4.2,0,6.3c0,0.7-0.2,1.1-1,1c-0.3,0-0.6-0.1-0.6,0.4s0.4,0.4,0.6,0.4L150.3,39.5z
	 M62.5,39.7c0.2,0,0.5,0,0.8,0c2.8-0.2,5-2.6,4.8-5.5c0-0.5-0.1-0.9-0.3-1.4c-1.1-2.4-3.7-3.8-6.3-3.2c-2.2,0.3-4,2-4.4,4.1
	C56.4,37.1,58.9,39.8,62.5,39.7L62.5,39.7z M126.8,39.7h0.7c2.8-0.2,5-2.6,4.8-5.4c0-0.6-0.2-1.1-0.4-1.7c-1.2-2.4-4-3.7-6.6-2.9
	c-2.3,0.4-4,2.4-4.1,4.7C121.1,37.4,123.5,39.8,126.8,39.7L126.8,39.7z M74.8,39.7h0.7c2.3-0.2,4.2-1.8,4.8-4c0.5-2-0.3-4-2-5.2
	c-2.3-1.5-5.2-1.3-7.3,0.4c-1.3,1-1.9,2.7-1.7,4.3C69.6,37.9,72,40,74.8,39.7L74.8,39.7z M157,37.7L157,37.7
	c0.1,0.4,0.1,0.8,0.1,1.2s-0.1,0.6,0.2,0.8c0.3,0.1,0.7,0,0.9-0.3c0.4-0.4,0.7-0.4,1.2-0.1c1.4,0.7,3,0.8,4.4,0.2
	c1.2-0.4,1.9-1.5,1.9-2.8c0.1-1.2-0.6-2.3-1.7-2.7c-0.3-0.2-0.7-0.3-1.1-0.4c-1-0.3-2.1-0.4-3.1-0.7c-0.6-0.1-1-0.6-1-1.2
	c0-0.6,0.4-1.1,1-1.2c0.6-0.2,1.2-0.2,1.8-0.1c1.2,0.3,2.3,1.2,2.7,2.4c0.2,0.3,0.3,0.5,0.7,0.4s0.3-0.4,0.3-0.7
	c0-0.7,0-1.4-0.1-2.2c0-0.2,0.1-0.6-0.2-0.7c-0.3-0.1-0.6,0-0.8,0.2c-0.4,0.4-0.7,0.3-1.1,0.1c-1.3-0.6-2.8-0.6-4.1,0
	c-1.4,0.5-2.2,2.1-1.6,3.6c0.1,0.3,0.3,0.6,0.5,0.9c0.7,0.7,1.6,1.2,2.6,1.3c0.8,0.2,1.7,0.3,2.5,0.5c0.6,0.1,1.1,0.6,1.1,1.3
	c0,0.6-0.5,1.2-1.1,1.3c-1.2,0.4-2.5,0.1-3.4-0.8c-0.6-0.5-1-1.1-1.3-1.8c-0.1-0.3-0.3-0.6-0.7-0.5s-0.3,0.5-0.3,0.8
	S157.1,37.3,157,37.7L157,37.7z M100.7,37.7L100.7,37.7c0,0.4,0,0.8,0,1.2s-0.1,0.6,0.2,0.8c0.3,0.1,0.7,0,0.9-0.3
	c0.4-0.4,0.7-0.4,1.2-0.2c1.3,0.7,2.8,0.8,4.2,0.3c1.3-0.4,2.1-1.5,2.1-2.8c0.1-1.2-0.7-2.4-1.8-2.8c-0.7-0.3-1.4-0.5-2.1-0.6
	c-0.6-0.1-1.3-0.2-1.9-0.4c-0.6-0.1-1-0.6-1-1.2c0-0.6,0.5-1.1,1.1-1.2c0.9-0.3,1.9-0.1,2.7,0.4c0.7,0.5,1.2,1.1,1.6,1.8
	c0.2,0.3,0.3,0.6,0.8,0.5s0.2-0.5,0.2-0.7c0-0.7,0-1.4-0.1-2.1c0-0.2,0.1-0.6-0.2-0.7c-0.3-0.1-0.6-0.1-0.9,0.2
	c-0.3,0.3-0.6,0.3-1,0.1c-1.3-0.6-2.8-0.6-4.1-0.1c-1,0.3-1.7,1.2-1.8,2.2c-0.2,1,0.2,2,1.1,2.7c0.7,0.5,1.4,0.8,2.3,0.9
	c0.8,0.1,1.6,0.3,2.3,0.5c0.6,0.1,1.1,0.6,1.1,1.3c0,0.7-0.5,1.3-1.1,1.4c-1.2,0.4-2.5,0.1-3.4-0.8c-0.6-0.5-1-1.1-1.3-1.8
	c-0.1-0.3-0.3-0.6-0.7-0.5s-0.3,0.4-0.3,0.7C100.8,36.9,100.8,37.3,100.7,37.7L100.7,37.7z M50.9,29.8h-4.3c-0.3,0-0.6-0.1-0.6,0.3
	s0.3,0.4,0.6,0.4c0.7,0,0.9,0.3,0.9,1c0,2,0,4,0,5.9c0,1.2,0,1.2-1.2,1.4c-0.2,0-0.4,0.1-0.4,0.4s0.1,0.4,0.4,0.4h5.3
	c0.2,0,0.3-0.1,0.3-0.3c0,0,0,0,0-0.1c0-0.2-0.1-0.4-0.3-0.4l-0.8-0.1c-0.4,0-0.7-0.2-0.7-0.7c0-0.9,0-1.8,0-2.7
	c0-0.4,0.2-0.5,0.6-0.5c0.8,0.1,1.4,0.7,1.6,1.5c0.1,0.3,0.1,0.7,0.6,0.6s0.3-0.5,0.3-0.7c0-1.1,0-2.1,0-3.2c0-0.3,0.2-0.7-0.3-0.8
	s-0.5,0.3-0.6,0.6c-0.2,0.7-0.8,1.2-1.5,1.3c-0.4,0.1-0.6,0-0.6-0.5c0-0.7,0-1.5,0-2.2c0-0.6,0.3-0.8,0.8-0.8c1.8-0.4,3.5,0.6,4,2.4
	c0.1,0.3,0.2,0.5,0.6,0.4s0.3-0.3,0.3-0.6c0-0.8-0.1-1.5,0-2.3c0-0.6-0.2-0.7-0.7-0.7C53.7,29.8,52.3,29.8,50.9,29.8z M115.2,29.8
	h-4.3c-0.3,0-0.6,0-0.6,0.4c0,1-0.1,1.9-0.2,2.8c0,0.2,0,0.4,0.2,0.4s0.5,0.1,0.6-0.2s0.1-0.3,0.1-0.5c0.2-0.9,0.8-1.7,1.7-2.1
	c0.8-0.3,1.2-0.1,1.2,0.8c0,2,0,4,0,6c0,1.2,0,1.2-1.2,1.4c-0.3,0-0.4,0.1-0.4,0.4s0.2,0.4,0.4,0.4h5.1c0.2,0,0.5,0,0.5-0.3
	s-0.2-0.4-0.5-0.4h-0.1c-1-0.1-1-0.1-1-1.1c0-2.1,0-4.1,0-6.2c0-1.1,0.5-1.4,1.5-0.8c0.4,0.2,0.8,0.6,1,1c0.2,0.4,0.4,0.9,0.5,1.4
	c0.1,0.3,0.2,0.5,0.5,0.4s0.3-0.3,0.3-0.6c0-0.8-0.1-1.6-0.1-2.5c0-0.5-0.2-0.7-0.7-0.7C118.1,29.8,116.7,29.8,115.2,29.8z"/>
<path class="st1" d="M124.9,65c0,6.1,0,12.2,0,18.4c0,0.8-0.3,1-1,1.2c-1.9,0.4-3.9,1-5.8,1.4s-3.8,0.9-5.8,1.3
	c-1.1,0.3-2.2,0.5-3.3,0.7c-0.5,0.1-0.6,0-0.6-0.5c0-3.7,0-7.4,0-11.1c0-0.2,0.1-0.5-0.1-0.6s-0.3,0.3-0.4,0.4
	c-1.1,1.4-2.6,2.5-4.4,3.1c-1.7,0.7-3.4,1.1-5.2,1.1c-3.9,0.1-6.7-1.7-8.9-4.7c-1.4-2.1-2.3-4.4-2.5-6.9c-0.8-6-0.6-12.1-0.6-18.1
	c0-1.4,0-2.9,0-4.3c0-0.6,0.2-0.9,0.8-0.9c5,0,9.9,0,14.9,0c0.6,0,0.8,0.2,0.8,0.8c0.1,6.2,0.1,12.5,0,18.7c0,1.1,0.1,2.1,1.2,2.6
	c1.2,0.6,2.7,0.5,3.7-0.4c0.6-0.6,0.8-1.4,0.8-2.2c0-5.8,0-11.6,0-17.4c0-0.5,0-1.1,0-1.6s0.2-0.6,0.6-0.6c5,0,10,0,15,0
	c0.6,0,0.8,0.3,0.8,0.8C124.9,52.6,124.9,58.8,124.9,65L124.9,65z"/>
<path class="st1" d="M162.8,43.4c5.3,0,10.5,1.3,15.2,3.8c1.1,0.6,1.1,0.6,0.7,1.7c-0.4,1.3-0.9,2.7-1.3,4c-0.2,0.6-0.5,0.6-0.9,0.4
	c-2.4-1.1-5-1.8-7.6-2.3c-2.5-0.5-5.2-0.6-7.7-0.1c-0.4,0.1-0.7,0.2-1.1,0.4c-0.6,0.4-0.6,1.2,0.1,1.6c1,0.6,2.1,1.1,3.3,1.3
	c2.4,0.6,4.9,0.9,7.2,1.8c3.8,1.6,6.8,4.1,8,8.1c0.7,2.3,0.5,4.8-0.5,7c-1.6,3.8-4.8,6.8-8.7,8.1c-3.7,1.3-7.7,1.7-11.6,1.1
	c-5.1-0.6-10-2.4-14.3-5.3c-0.4-0.2-0.6-0.6-0.4-1c0,0,0,0,0-0.1c0.8-1.9,1.6-3.9,2.3-5.9c0.2-0.5,0.4-0.5,0.8-0.3
	c1.7,0.9,3.5,1.7,5.4,2.2c3.4,1.1,6.9,1.5,10.4,1.3c0.3,0,0.7-0.1,1-0.2c0.6-0.1,1.1-0.6,1-1.2c0-0.5-0.4-0.9-0.8-1
	c-1.2-0.4-2.4-0.7-3.7-0.8c-2.4-0.4-4.9-1-7.2-1.8c-1.2-0.3-2.3-0.7-3.4-1.3c-2.6-1.4-4.7-3.3-4.9-6.6c-0.3-3.1,0.6-6.1,2.5-8.5
	c2.3-2.7,5.3-4.7,8.7-5.7C157.7,43.6,160.3,43.3,162.8,43.4z"/>
<path class="st1" d="M49.3,62.5c0-5.4,0-10.7,0-16c0-0.6,0.2-0.8,0.8-0.8c5,0,9.9,0,14.9,0c0.5,0,0.8,0.1,0.8,0.7s0.2,0.6,0.7,0.3
	c2.2-1.6,4.8-2.6,7.5-2.9c2.8-0.2,5.5,0,7.7,1.9c2,1.7,3.1,4.2,2.9,6.8c-0.1,4.4-3.7,7.9-8.1,7.9c-2.8-0.1-5.3-1.5-6.8-4
	c-0.5-0.9-0.9-1.9-1-2.9c0-0.3-0.1-0.7-0.4-0.8s-0.6,0.3-0.8,0.6c-0.7,1.1-1.1,2.3-1.2,3.6c-0.6,7.2-0.6,14.3-0.6,21.5
	c0,1.2,0,1.2-1.2,1.2H50.4c-1.1,0-1.1,0-1.1-1.1C49.3,73.2,49.3,67.9,49.3,62.5L49.3,62.5z"/>
<path class="st1" d="M137.8,58.9l-4.4-7.7l-2.7-4.7c-0.1-0.2-0.4-0.5-0.3-0.8s0.5-0.2,0.8-0.2h13.3c0.3,0,0.6-0.1,0.8,0.1
	s-0.1,0.6-0.3,0.8c-1.9,3.4-3.9,6.8-5.8,10.2C138.7,57.4,138.2,58.1,137.8,58.9z"/>
<path class="st2" d="M141,34.7c1.5,0.6,1.8,1.8,2.1,3c0.1,0.3,0.1,0.8,0.6,0.8s0.5-0.4,0.6-0.8s0.2-0.5,0.6-0.5s0.3,0.4,0.2,0.7
	c-0.2,1.2-1.1,1.8-2.6,1.8c-1.1,0.1-2.1-0.7-2.2-1.8c0,0,0,0,0,0c-0.1-0.6-0.1-1.3-0.2-1.9c-0.4-0.9-1.4-1.4-2.4-1.1
	c-0.2,0.1-0.2,0.2-0.2,0.4c0,1,0,2,0,2.9c0,0.3,0.2,0.5,0.4,0.6c0,0,0.1,0,0.1,0c0.2,0,0.5,0,0.7,0s0.3,0.1,0.4,0.4
	s-0.1,0.4-0.4,0.4h-5.1c-0.2,0-0.4-0.1-0.4-0.3s0.1-0.4,0.4-0.4c1.1-0.1,1.1-0.2,1.1-1.3c0-2,0-4.1,0-6.1c0-0.7-0.2-0.9-0.9-0.9
	c-0.3,0-0.7,0.2-0.7-0.4s0.4-0.3,0.7-0.3c2.2,0,4.4,0,6.6,0c0.6,0,1.2,0.1,1.8,0.4c0.8,0.3,1.4,1.1,1.4,2c0,0.9-0.6,1.8-1.4,2.1
	C141.9,34.4,141.6,34.5,141,34.7z M137.5,32.4c0,1.8,0.3,2,2.1,1.5l0.4-0.1c0.4-0.2,0.8-0.5,0.9-1c0.2-0.7,0.1-1.4-0.4-1.9
	c-0.8-0.4-1.7-0.6-2.6-0.3c-0.6,0.4-0.2,1-0.3,1.6C137.5,32.2,137.5,32.3,137.5,32.4L137.5,32.4z"/>
<path class="st2" d="M85.3,29.8c1,0,2,0,3,0c2.5,0,4.5,2,4.5,4.4c0,0.1,0,0.1,0,0.2c0,2.8-1.6,4.8-4.3,5c-2.2,0.2-4.5,0-6.7,0.1
	c-0.3,0-0.5-0.1-0.5-0.4s0.2-0.4,0.5-0.3c0.9,0.1,1.1-0.3,1.1-1.2c0-2.1,0-4.1,0-6.2c0-0.7-0.2-1-0.9-1c-0.3,0-0.6,0.1-0.6-0.4
	s0.4-0.3,0.6-0.3h3.4L85.3,29.8z M85.5,34.6c0,1.1,0,2.2,0,3.3c0,0.4,0,0.7,0.5,0.8c1.4,0.4,2.9-0.4,3.5-1.8c0.4-1.3,0.5-2.7,0.2-4
	c-0.2-1.5-1.5-2.6-3-2.5c-0.1,0-0.2,0-0.2,0c-0.6,0-0.9,0.3-0.9,0.9C85.5,32.5,85.5,33.5,85.5,34.6L85.5,34.6z"/>
<path class="st2" d="M150.3,39.6h-4.4c-0.3,0-0.7,0.1-0.6-0.4s0.4-0.4,0.6-0.4c0.7,0,1-0.3,1-1c0-2.1,0-4.2,0-6.3
	c0-0.7-0.2-0.9-0.9-0.9c-0.3,0-0.7,0.2-0.7-0.3s0.4-0.4,0.7-0.4c2.9,0,5.8,0,8.6,0c0.5,0,0.7,0.1,0.7,0.7c0,0.8,0,1.5,0.1,2.3
	c0,0.2,0.1,0.5-0.3,0.5c-0.3,0.1-0.5-0.1-0.6-0.3c0,0,0,0,0,0c-0.7-1.9-1.7-2.5-3.9-2.4c-0.6,0-1,0.3-1,1s0,1.4,0,2.1
	c0,0.5,0.2,0.6,0.7,0.5c0.7-0.1,1.3-0.6,1.5-1.4c0.1-0.3,0.2-0.6,0.6-0.5s0.3,0.4,0.3,0.7c0,1.2,0,2.4,0,3.6c0,0.3,0,0.5-0.4,0.5
	s-0.5-0.1-0.5-0.5c-0.1-0.5-0.3-0.9-0.8-1.2c-0.3-0.3-0.8-0.5-1.3-0.3c-0.4,0.2-0.1,0.7-0.2,1.1c0,0.6,0,1.3,0,1.9s0.3,0.8,0.8,0.8
	c2.1,0.2,3.6-0.3,4.3-2.4c0.1-0.3,0.2-0.5,0.6-0.5s0.3,0.4,0.3,0.7c0,0.8-0.1,1.5-0.1,2.3c0,0.5-0.2,0.7-0.7,0.7c-0.7,0-1.5,0-2.2,0
	L150.3,39.6L150.3,39.6z"/>
<path class="st2" d="M62.5,39.7c-3.6,0-6.1-2.7-5.6-6c0.4-2.2,2.2-3.8,4.4-4.1c2.6-0.6,5.3,0.8,6.3,3.2c1,2.7-0.4,5.6-3.1,6.6
	c-0.4,0.2-0.9,0.3-1.4,0.3C63,39.7,62.7,39.7,62.5,39.7z M65.1,34.6c0-0.9-0.1-1.8-0.4-2.7c-0.3-1-1.2-1.7-2.2-1.7
	c-1.1-0.1-2,0.6-2.3,1.6c-0.6,1.8-0.6,3.9,0.2,5.7c0.4,1,1.4,1.6,2.4,1.4c0.9,0,1.7-0.7,1.9-1.7C65,36.5,65.1,35.6,65.1,34.6
	L65.1,34.6z"/>
<path class="st2" d="M126.8,39.7c-3.3,0-5.8-2.3-5.6-5.3c0.1-2.3,1.8-4.3,4.1-4.7c2.6-0.7,5.4,0.5,6.6,2.9c1.1,2.6-0.2,5.6-2.8,6.7
	c-0.5,0.2-1.1,0.3-1.7,0.4L126.8,39.7z M129.4,34.6c0-0.9-0.1-1.9-0.4-2.8c-0.3-0.9-1.1-1.5-2.1-1.5c-1-0.1-1.9,0.5-2.3,1.5
	c-0.4,1.2-0.6,2.5-0.4,3.8c0,0.9,0.3,1.7,0.7,2.4c0.5,0.8,1.4,1.2,2.3,1c0.8-0.1,1.5-0.6,1.7-1.4C129.3,36.6,129.4,35.6,129.4,34.6z
	"/>
<path class="st2" d="M74.8,39.7c-2.8,0.2-5.2-1.8-5.6-4.6c-0.2-1.6,0.4-3.2,1.7-4.3c2.1-1.7,5.1-1.8,7.3-0.4c1.7,1.1,2.5,3.2,2,5.2
	c-0.6,2.2-2.5,3.8-4.8,4L74.8,39.7z M77.5,34.6c0-0.9-0.1-1.8-0.4-2.7c-0.3-0.9-1.2-1.6-2.1-1.6c-1-0.1-1.9,0.5-2.2,1.4
	c-0.7,1.9-0.7,4,0.1,5.9c0.4,1,1.4,1.5,2.5,1.3c0.9-0.1,1.7-0.8,1.8-1.7C77.3,36.5,77.5,35.5,77.5,34.6L77.5,34.6z"/>
<path class="st2" d="M157.1,37.7c0-0.4,0-0.8,0-1.2s-0.1-0.7,0.3-0.8s0.5,0.2,0.7,0.5c0.3,0.7,0.8,1.3,1.3,1.8
	c0.9,0.9,2.2,1.2,3.4,0.8c0.6-0.1,1.1-0.7,1.1-1.3c0-0.7-0.5-1.2-1.1-1.3c-0.8-0.2-1.7-0.3-2.5-0.5c-1-0.1-1.9-0.6-2.6-1.3
	c-1-1.2-0.9-2.9,0.3-3.9c0.3-0.2,0.5-0.4,0.9-0.5c1.3-0.6,2.8-0.6,4.1,0c0.4,0.2,0.7,0.3,1.1-0.1c0.2-0.2,0.5-0.3,0.8-0.2
	c0.3,0.1,0.2,0.4,0.2,0.7c0.1,0.7,0.1,1.4,0.1,2.2c0,0.3,0.2,0.6-0.3,0.7s-0.5-0.1-0.7-0.4c-0.5-1.2-1.5-2-2.7-2.4
	c-0.6-0.1-1.2-0.1-1.8,0.1c-0.6,0.1-1,0.6-1,1.2c0,0.6,0.4,1.1,1,1.2c1,0.3,2.1,0.5,3.1,0.7c0.4,0.1,0.7,0.2,1.1,0.4
	c1.1,0.4,1.8,1.5,1.7,2.7c0,1.2-0.7,2.3-1.9,2.8c-1.4,0.6-3,0.6-4.4-0.2c-0.5-0.2-0.8-0.3-1.2,0.1c-0.2,0.3-0.6,0.4-0.9,0.3
	c-0.3-0.2-0.2-0.5-0.2-0.8s0-0.8,0-1.2L157.1,37.7z"/>
<path class="st2" d="M100.8,37.7c0-0.4,0-0.8,0-1.2c0-0.3-0.2-0.6,0.3-0.7s0.5,0.2,0.7,0.5c0.3,0.7,0.8,1.3,1.3,1.8
	c0.9,0.8,2.2,1.1,3.4,0.8c0.7-0.1,1.1-0.7,1.1-1.4c0-0.7-0.5-1.2-1.1-1.3c-0.8-0.2-1.6-0.3-2.3-0.5c-0.8-0.1-1.6-0.5-2.3-0.9
	c-0.8-0.6-1.3-1.6-1.1-2.7c0.1-1,0.8-1.9,1.8-2.2c1.3-0.6,2.8-0.6,4.1,0.1c0.4,0.2,0.7,0.2,1-0.1c0.2-0.2,0.6-0.3,0.9-0.2
	c0.3,0.1,0.2,0.4,0.2,0.7c0,0.7,0.1,1.4,0.1,2.1c0,0.3,0.2,0.6-0.2,0.7s-0.6-0.2-0.8-0.5c-0.4-0.8-0.9-1.4-1.6-1.8
	c-0.8-0.5-1.8-0.7-2.7-0.4c-0.6,0.1-1.1,0.6-1.1,1.2c0,0.6,0.4,1.1,1,1.2c0.6,0.2,1.2,0.3,1.9,0.4c0.7,0.1,1.5,0.3,2.1,0.6
	c1.2,0.4,2,1.5,1.9,2.8c0,1.3-0.9,2.5-2.1,2.8c-1.4,0.5-2.9,0.4-4.2-0.3c-0.5-0.3-0.8-0.3-1.2,0.2c-0.2,0.3-0.6,0.4-0.9,0.3
	c-0.3-0.2-0.2-0.5-0.2-0.8S100.9,38.1,100.8,37.7L100.8,37.7z"/>
<path class="st2" d="M50.9,29.8c1.4,0,2.8,0,4.2,0c0.5,0,0.7,0.1,0.7,0.7c0,0.8,0,1.5,0,2.3c0,0.2,0.1,0.5-0.3,0.6s-0.5-0.2-0.6-0.4
	c-0.5-1.7-2.2-2.8-4-2.4c-0.5,0.1-0.8,0.3-0.8,0.8c0,0.7,0,1.5,0,2.2c0,0.5,0.2,0.6,0.6,0.5c0.7-0.1,1.3-0.6,1.5-1.3
	c0.1-0.3,0.2-0.7,0.6-0.6s0.3,0.5,0.3,0.8c0,1.1,0,2.1,0,3.2c0,0.3,0.2,0.7-0.3,0.7s-0.5-0.3-0.6-0.6c-0.2-0.8-0.8-1.4-1.6-1.5
	c-0.4-0.1-0.6,0-0.6,0.5c0,0.9,0,1.8,0,2.7c0,0.5,0.2,0.7,0.7,0.7l0.8,0.1c0.3,0,0.3,0.2,0.3,0.4c0,0.2-0.1,0.3-0.3,0.3
	c0,0,0,0-0.1,0h-5.3c-0.3,0-0.4-0.1-0.4-0.4s0.2-0.3,0.4-0.4c1.2-0.2,1.2-0.2,1.2-1.4c0-2,0-4,0-5.9c0-0.7-0.2-1-0.9-1
	c-0.3,0-0.6,0.1-0.6-0.4s0.4-0.3,0.6-0.3L50.9,29.8L50.9,29.8z"/>
<path class="st2" d="M115.2,29.8c1.4,0,2.9,0,4.3,0c0.5,0,0.7,0.1,0.7,0.7c0,0.8,0.1,1.6,0.1,2.5c0,0.2,0.1,0.5-0.3,0.6
	s-0.4-0.1-0.5-0.4c-0.1-0.5-0.3-0.9-0.5-1.4c-0.2-0.4-0.6-0.8-1-1c-1-0.6-1.5-0.3-1.5,0.8c0,2.1,0,4.1,0,6.2c0,1,0,1,1,1.1h0.1
	c0.3,0,0.5,0,0.5,0.4s-0.2,0.3-0.5,0.3h-5.1c-0.3,0-0.4-0.1-0.4-0.4s0.2-0.3,0.4-0.4c1.2-0.2,1.2-0.2,1.2-1.4c0-2,0-4,0-6
	c0-0.9-0.4-1.1-1.2-0.8c-0.8,0.4-1.5,1.2-1.7,2.1c-0.1,0.2-0.1,0.3-0.1,0.5s-0.3,0.3-0.6,0.2S110,33.2,110,33
	c0.1-0.9,0.1-1.9,0.2-2.8c0-0.4,0.3-0.4,0.6-0.4L115.2,29.8z"/>
<path class="st1" d="M137.5,32.4c0-0.1,0-0.2,0-0.3c0.1-0.5-0.3-1.2,0.3-1.6c0.9-0.2,1.8-0.1,2.6,0.3c0.5,0.5,0.6,1.3,0.4,1.9
	c-0.1,0.5-0.4,0.8-0.9,1l-0.4,0.1C137.8,34.5,137.5,34.2,137.5,32.4z"/>
<path class="st1" d="M85.5,34.6c0-1.1,0-2.1,0-3.2c0-0.7,0.3-0.9,0.9-0.9c1.5-0.3,2.9,0.7,3.2,2.2c0,0.1,0,0.2,0,0.2
	c0.3,1.3,0.2,2.7-0.2,4c-0.5,1.4-2,2.2-3.5,1.8c-0.4-0.1-0.5-0.5-0.5-0.8C85.5,36.8,85.5,35.7,85.5,34.6z"/>
<path class="st1" d="M65.1,34.6c0,0.9-0.1,1.9-0.4,2.8c-0.2,0.9-1,1.6-1.9,1.7c-1,0.1-2-0.5-2.4-1.4c-0.7-1.8-0.8-3.8-0.2-5.7
	c0.3-1,1.2-1.7,2.3-1.6c1,0,2,0.7,2.2,1.7C65,32.9,65.1,33.8,65.1,34.6z"/>
<path class="st1" d="M129.4,34.6c0,1-0.1,2-0.5,2.9c-0.2,0.8-0.9,1.4-1.7,1.4c-0.9,0.2-1.8-0.2-2.3-1c-0.4-0.7-0.7-1.6-0.7-2.4
	c-0.2-1.3,0-2.6,0.4-3.8c0.3-1,1.3-1.6,2.3-1.5c1,0,1.8,0.6,2.1,1.5C129.3,32.8,129.5,33.7,129.4,34.6z"/>
<path class="st1" d="M77.5,34.6c0,0.9-0.1,1.9-0.4,2.8c-0.2,0.9-0.9,1.6-1.8,1.7c-1,0.2-2-0.4-2.5-1.3c-0.8-1.9-0.8-4-0.1-5.9
	c0.3-0.9,1.2-1.5,2.2-1.4c1,0,1.8,0.6,2.1,1.6C77.3,32.7,77.5,33.7,77.5,34.6z"/>
</svg>
