<svg id="Layer_1" data-name="Layer 1" xmlns="http://www.w3.org/2000/svg" viewBox="0 0 250 250"><defs><style>.cls-1{fill:#f9e8a0;}.cls-2{fill:red;}.cls-3{fill:#414042;}</style></defs><title>FSR</title><rect class="cls-1" x="73.25" y="110.82" width="102.74" height="17.63"/><rect class="cls-2" x="117.72" y="186.72" width="13.8" height="19.93"/><rect class="cls-2" x="24.95" y="167.55" width="44.47" height="15.33"/><rect class="cls-2" x="179.82" y="166.79" width="44.47" height="15.33"/><path class="cls-1" d="M75.55,164.49H27.25a2,2,0,0,1-2.3-2.3v-11.5a2,2,0,0,1,2.3-2.3h48.3a2,2,0,0,1,2.3,2.3v11.5A2.45,2.45,0,0,1,75.55,164.49Z"/><path class="cls-1" d="M222.76,163.72H173.69a2,2,0,0,1-2.3-2.3V150.69a2,2,0,0,1,2.3-2.3h49.07a2,2,0,0,1,2.3,2.3v10.73A2,2,0,0,1,222.76,163.72Z"/><path class="cls-3" d="M226.59,210a3.13,3.13,0,0,1-3.35-3.35V187H183.17v19.66a3.35,3.35,0,0,1-6.69,0V167.93l-.38-.08c-6.47-1.44-10.35-7.92-8.83-14.75a11.36,11.36,0,0,1,11-8.92,12,12,0,0,1,1.49.09h43.43l9.26-71c0-1.3,1.28-2.64,3.35-2.64a5.45,5.45,0,0,1,2.72,1.39c.62.62.62,1.24.62,2.72l-10,72.77v59.87A2.83,2.83,0,0,1,226.59,210Zm-43.42-29.69h40.08V168.6H183.17Zm-3.35-30.11c-3.18,0-6.61,1.59-6.61,5.09,0,3.19,1.59,6.62,5.09,6.62h45V149.42ZM69.42,210a3.13,3.13,0,0,1-3.35-3.35V187H26.76v19.66A3.13,3.13,0,0,1,23.41,210a3.13,3.13,0,0,1-3.35-3.35v-59.8L10.86,74c0-.62,0-2,.63-2.66s1.39-1.39,2-1.39c2.07,0,3.35,1.34,3.35,2.58l9.26,71H69.42a12,12,0,0,1,13.32,11.07c.75,6-3.87,11.05-8.78,12.49H72.76v38.82C72.76,208.54,71.57,210,69.42,210ZM26.76,180.31H66.84V168.6H26.76Zm0-18.4H70.18c3.19,0,6.62-1.59,6.62-5.09,0-3.19-1.59-6.62-5.09-6.62h-45Z"/><path class="cls-3" d="M104.68,210a3.34,3.34,0,1,1,0-6.69h8.92v-8.16a12,12,0,0,1,8.1-11L122,184V132.56H76.32a7.2,7.2,0,0,1-7.18-7.18v-8.92H64a3.34,3.34,0,0,1,0-6.69h7.58l-1.86-5.58H67.88a3.35,3.35,0,0,1,0-6.69h33a3.35,3.35,0,0,1,0,6.69H99l-1.86,5.58h19.65l-3.15-20.5c0-.61,0-2,.63-2.65A5.45,5.45,0,0,1,117,85.24H122V80.91A9,9,0,0,0,113.12,72a3.34,3.34,0,1,1,0-6.69,14.86,14.86,0,0,1,8.16,2.22L122,68V62.91l-.35-.1a11,11,0,0,1-8.08-11,11.78,11.78,0,1,1,23.56,0,12,12,0,0,1-8.1,11l-.33.11V73.27l.71-.35a9.26,9.26,0,0,1,4.38-.72,3.35,3.35,0,0,1,0,6.69A5.43,5.43,0,0,0,128.73,84v.49h5.09a3.51,3.51,0,0,1,2.72,1.39c.62.62.62,2,.62,2.72L134,109h19.65l-1.86-5.58h-1.89a3.34,3.34,0,1,1,0-6.69h32.2a3.34,3.34,0,1,1,0,6.69h-1.89L178.38,109H186a3.34,3.34,0,1,1,0,6.69h-5.09v8.92a7.92,7.92,0,0,1-1.91,5.14,5.8,5.8,0,0,1-4.27,2.14h0a4.57,4.57,0,0,1-.9-.09H128v51.46l.35.1a11,11,0,0,1,8.08,11v8.92h8.92a3.34,3.34,0,1,1,0,6.69Zm20.7-20.7a5.43,5.43,0,0,0-5.09,5.09v8.92h9.41v-8.92c0-2.6-2.57-4.27-4.1-5l-.1-.05ZM75.83,125.11h97.86l-.15-.15h.64v-9.26H75.83Zm47.62-15.33h2.35L129,91.93H120.2Zm36.09-.77H171l1.86-5.58H157.68Zm-81.27,0H89.7l1.86-5.58H76.4Zm47.12-62.31a5.43,5.43,0,0,0-5.09,5.09,4.93,4.93,0,0,0,5.09,5.09,5.43,5.43,0,0,0,5.09-5.09A5.43,5.43,0,0,0,125.38,46.69Z"/></svg>