<?xml version="1.0" encoding="utf-8"?>
<!-- Generator: Adobe Illustrator 21.1.0, SVG Export Plug-In . SVG Version: 6.00 Build 0)  -->
<svg version="1.1" id="Layer_1" xmlns="http://www.w3.org/2000/svg" xmlns:xlink="http://www.w3.org/1999/xlink" x="0px" y="0px"
	 viewBox="0 0 181 57.1" style="enable-background:new 0 0 181 57.1;" xml:space="preserve">
<style type="text/css">
	.st0{fill:#505050;}
	.st1{fill:#C80000;}
	.st2{fill:none;}
</style>
<title>Grocery</title>
<path class="st0" d="M175.2,8.8L175.2,8.8c-0.1-1.5,1-2.7,2.5-2.8c1.5-0.1,2.7,1,2.8,2.5c0,0.1,0,0.2,0,0.3l0,0
	c0,1.5-1.2,2.7-2.6,2.8C176.4,11.5,175.2,10.3,175.2,8.8z M180.2,8.8L180.2,8.8c0-1.3-1-2.4-2.3-2.4c-1.3,0-2.4,1-2.4,2.3
	c0,0,0,0,0,0l0,0c0,1.3,1,2.4,2.2,2.4c0,0,0.1,0,0.1,0C179.2,11.2,180.2,10.1,180.2,8.8C180.2,8.8,180.2,8.8,180.2,8.8L180.2,8.8z
	 M176.7,7.3h1.3c0.6,0,1.1,0.3,1.1,0.9c0,0.4-0.2,0.8-0.6,0.9l0.7,1h-0.8l-0.6-0.9h-0.4v0.9h-0.7L176.7,7.3z M178,8.7
	c0.2,0.1,0.5-0.1,0.5-0.3c0.1-0.2-0.1-0.5-0.3-0.5c-0.1,0-0.1,0-0.2,0h-0.6v0.8L178,8.7L178,8.7z"/>
<path class="st0" d="M46.7,44.5h8.9v1.9h-6.8v3.2h6v1.9h-6v4.8h-2.1V44.5z"/>
<path class="st0" d="M56.6,50.4L56.6,50.4c-0.1-3.4,2.7-6.2,6-6.2c0.1,0,0.2,0,0.2,0c3.3-0.1,6.1,2.5,6.2,5.9c0,0.1,0,0.1,0,0.2v0.1
	c0,3.4-2.7,6.1-6.1,6.2c-0.1,0-0.1,0-0.2,0c-3.3,0.1-6.1-2.5-6.2-5.8C56.6,50.7,56.6,50.6,56.6,50.4z M66.9,50.4L66.9,50.4
	c0.1-2.3-1.7-4.2-3.9-4.3c0,0-0.1,0-0.1,0c-2.2,0-4,1.8-4,4c0,0.1,0,0.2,0,0.2v0.1c-0.1,2.3,1.7,4.2,4,4.2c0,0,0.1,0,0.1,0
	c2.2,0,4-1.8,4-4C66.9,50.6,66.9,50.5,66.9,50.4z"/>
<path class="st0" d="M70.7,50.4L70.7,50.4c-0.1-3.4,2.7-6.2,6-6.2c0.1,0,0.2,0,0.2,0c3.3-0.1,6.1,2.5,6.2,5.9c0,0.1,0,0.1,0,0.2v0.1
	c0,3.4-2.7,6.1-6.1,6.2c-0.1,0-0.1,0-0.2,0c-3.3,0.1-6.1-2.5-6.2-5.8C70.7,50.7,70.7,50.6,70.7,50.4z M81,50.4L81,50.4
	c0.1-2.3-1.7-4.2-3.9-4.3c0,0-0.1,0-0.1,0c-2.2,0-4,1.8-4,4c0,0.1,0,0.2,0,0.2v0.1c-0.1,2.3,1.7,4.2,4,4.2c0,0,0.1,0,0.1,0
	c2.2,0,4-1.8,4-4C81,50.6,81,50.5,81,50.4L81,50.4z"/>
<path class="st0" d="M85.1,44.5h4.5c3.8,0,6.3,2.6,6.3,5.9v0.1c0,3.3-2.7,6-6,6c-0.1,0-0.2,0-0.4,0h-4.5V44.5z M87.2,46.4v8.1h2.3
	c2.2,0.1,4-1.5,4.2-3.6c0-0.1,0-0.2,0-0.4v-0.1c0.1-2.2-1.6-4-3.8-4.1c-0.1,0-0.3,0-0.4,0H87.2z"/>
<path class="st0" d="M102.7,54.7l1.2-1.5c1,1,2.4,1.5,3.8,1.5c1.3,0,2.1-0.6,2.1-1.5v-0.1c0-0.9-0.5-1.3-2.7-1.8
	c-2.5-0.6-4-1.4-4-3.6v0.1c0-2.1,1.7-3.5,4.1-3.5c1.6,0,3.1,0.5,4.4,1.5l-1.1,1.6c-0.9-0.8-2-1.2-3.2-1.2c-1.2,0-1.9,0.6-1.9,1.4
	v0.1c0,0.9,0.5,1.4,2.8,1.9c2.5,0.6,3.8,1.5,3.8,3.5l0,0c0,2.2-1.8,3.6-4.3,3.6C105.8,56.6,104.1,55.9,102.7,54.7z"/>
<path class="st0" d="M114.1,44.5h8.9v1.9h-6.8v3.1h6v1.9h-6v3.2h6.8v1.8h-8.9V44.5L114.1,44.5z"/>
<path class="st0" d="M125.4,44.5h5.4c1.3-0.1,2.5,0.4,3.5,1.2c0.7,0.7,1,1.6,1,2.6v0.1c0,1.7-1.1,3.2-2.8,3.6l3.2,4.5h-2.5l-2.9-4.2
	h-2.6v4.1h-2.1L125.4,44.5L125.4,44.5z M130.5,50.4c1.5,0,2.5-0.8,2.5-2v-0.1c0-1.3-0.9-2-2.5-2h-3.1v4L130.5,50.4L130.5,50.4z"/>
<path class="st0" d="M136,44.5h2.3l3.6,9.2l3.6-9.2h2.3l-4.9,12h-1.9L136,44.5z"/>
<path class="st0" d="M149.5,44.5h2.1v11.9h-2.1V44.5z"/>
<path class="st0" d="M153.6,50.4L153.6,50.4c-0.1-3.4,2.6-6.1,5.9-6.2c0.1,0,0.2,0,0.3,0c1.8-0.1,3.5,0.6,4.7,1.9l-1.4,1.5
	c-0.9-0.9-2.1-1.4-3.4-1.5c-2.2,0-4,1.8-3.9,4.1c0,0.1,0,0.1,0,0.2v0.1c-0.1,2.2,1.6,4.1,3.8,4.2c0.1,0,0.1,0,0.2,0
	c1.3,0,2.5-0.6,3.4-1.5l1.4,1.4c-1.2,1.4-3,2.2-4.8,2.1c-3.3,0.1-6-2.6-6.1-5.9C153.6,50.6,153.6,50.5,153.6,50.4z"/>
<path class="st0" d="M166.7,44.5h8.9v1.9h-6.8v3.1h6v1.9h-6v3.2h6.8v1.8h-8.9L166.7,44.5z"/>
<path class="st1" d="M130,8.4c-7.8,0-14.2,6.3-14.2,14.2c0,7.8,6.3,14.2,14.2,14.2c7.8,0,14.2-6.3,14.2-14.2
	C144.1,14.7,137.8,8.4,130,8.4z M130,29c-3.5,0-6.4-2.9-6.3-6.4c0-3.5,2.9-6.4,6.4-6.3c3.5,0,6.3,2.8,6.3,6.3
	C136.4,26.1,133.5,29,130,29C130,29,130,29,130,29L130,29z"/>
<path class="st1" d="M161.5,8.4c-7.8,0-14.2,6.3-14.2,14.2v13.6h7.8V22.6c0.1-3.5,3.1-6.3,6.7-6.2c3.3,0.1,6,2.8,6.2,6.2v13.6h7.8
	V22.6C175.8,14.7,169.4,8.4,161.5,8.4z"/>
<path class="st2" d="M50.8,16.1c-3.5,0-6.4,2.9-6.4,6.4s2.9,6.4,6.4,6.4s6.4-2.9,6.4-6.4C57.2,18.9,54.3,16.1,50.8,16.1z"/>
<path class="st2" d="M50.8,16.1c-3.5,0-6.4,2.9-6.4,6.4s2.9,6.4,6.4,6.4s6.4-2.9,6.4-6.4C57.2,18.9,54.3,16.1,50.8,16.1z"/>
<path class="st1" d="M50.8,8.3c-7.8,0-14.1,6.4-14.1,14.2S43,36.7,50.8,36.6c7.8,0,14.1-6.4,14.1-14.2C65,14.7,58.6,8.3,50.8,8.3
	C50.8,8.3,50.8,8.3,50.8,8.3z M50.8,28.9c-3.5,0-6.4-2.9-6.4-6.4s2.9-6.4,6.4-6.4s6.4,2.9,6.4,6.4C57.2,26,54.3,28.9,50.8,28.9
	L50.8,28.9z"/>
<path class="st1" d="M82.2,8.4C74.3,8.4,68,14.7,68,22.5c0,0,0,0,0,0.1v13.6h7.8V22.6c0-3.5,2.8-6.3,6.3-6.3c0.5,0,0.9,0,1.4,0.1
	V8.5C83.1,8.5,82.6,8.4,82.2,8.4z"/>
<path class="st1" d="M105.1,0.5v9.3c-2-1-4.2-1.5-6.4-1.5c-7.8,0-14.2,6.3-14.2,14.2c0,7.8,6.3,14.2,14.2,14.2
	c7.8,0,14.1-6.3,14.2-14l0,0V0.5H105.1z M98.8,28.9c-3.5,0-6.4-2.9-6.4-6.4s2.9-6.4,6.4-6.4c3.5,0,6.4,2.9,6.4,6.4
	C105.2,26,102.3,28.9,98.8,28.9L98.8,28.9z"/>
<path class="st1" d="M32.8,22.5c0-2.3,0.5-4.7,1.4-6.8H18.1v7.8h7.6v3.8c-2,1.2-4.2,1.8-6.5,1.8c-5.6,0-10.2-4.5-10.3-10.1
	c0-5.5,4.3-10,9.8-10.3c3.2-0.1,6.3,1,8.7,3.2l0.4,0.3L33,5.7l-0.4-0.3c-4-3.4-8-4.8-13.8-4.8C8.9,0.4,0.7,8.4,0.5,18.4
	c0,0.2,0,0.3,0,0.5C0.5,29.4,8.3,37,19,37c5.9-0.2,11.5-2.4,15.8-6.4l0.1-0.1C33.5,28.1,32.8,25.3,32.8,22.5z"/>
</svg>
