<?xml version="1.0" encoding="utf-8"?>
<!-- Generator: Adobe Illustrator 21.1.0, SVG Export Plug-In . SVG Version: 6.00 Build 0)  -->
<svg version="1.1" id="Layer_1" xmlns="http://www.w3.org/2000/svg" xmlns:xlink="http://www.w3.org/1999/xlink" x="0px" y="0px"
	 viewBox="0 0 181 82.9" style="enable-background:new 0 0 181 82.9;" xml:space="preserve">
<style type="text/css">
	.st0{fill:#ED1C24;}
	.st1{fill:#FFFFFF;}
	.st2{fill:#020102;}
</style>
<title>Grocery</title>
<path class="st0" d="M169.1,40c0,7.5,0,15,0,22.6c0,1.4-0.3,2.8-0.7,4.2c-1,3.5-3.9,6.1-7.5,6.7c-7,1.5-14.1,2.8-21.2,4
	c-5.8,1-11.7,1.8-17.6,2.5S110,81.1,104,81.6c-9.2,0.7-18.4,0.9-27.7,0.6c-5.3-0.2-10.5-0.5-15.7-0.9c-4.8-0.4-9.6-0.9-14.4-1.4
	c-4.4-0.5-8.8-1.1-13.1-1.7s-8.9-1.3-13.3-2c-4.4-0.7-8.7-2-12.8-3.8c-4-1.9-6.1-5-6.2-9.4c0-4.1-0.1-8.2-0.1-12.3
	c0-8.5-0.1-17-0.1-25.5c0-2-0.1-3.9,0.1-5.9c0.3-3.4,1.5-6.1,4.9-7.7c4.3-1.9,8.8-3.3,13.4-4.1c7.2-1.3,14.5-2.6,21.8-3.7
	C47.3,3,54,2.5,60.6,1.8c9.6-1,19.2-1.5,28.9-1.3c5.8,0.2,11.6,0.5,17.4,0.9c5,0.4,10.1,0.8,15.1,1.4c5.3,0.6,10.6,1.3,15.9,2.1
	c5.5,0.8,11,1.8,16.4,2.9c3.4,0.7,6.7,1.9,9.9,3.3c0.9,0.4,1.7,0.9,2.4,1.4c1.7,1.1,2.7,3.1,2.6,5.1C169.2,25.2,169.2,32.6,169.1,40
	L169.1,40z M102.8,29.3l0.2-0.1l1,0.9c2.9,2.7,5.8,5.4,8.7,8.1c0.3,0.3,0.6,0.4,1,0.5c2.7,0,5.5,0,8.2,0c0.2,0,0.3,0,0.5-0.1V15.4
	h-8.3v10.4c-0.3-0.3-0.6-0.4-0.8-0.6c-3.3-3-6.6-6.1-9.9-9.1c-0.4-0.3-0.9-0.5-1.5-0.6c-2.3-0.1-4.6,0-7,0c-0.8,0-1,0.3-1,1
	c0,7.1,0,14.1,0,21.2c0,0.3,0,0.7,0,0.9h8.8L102.8,29.3z M37.3,30.2c0.2,2.1,0.2,2.1-1.7,2.5l-0.3,0.1c-2.8,0.8-6.4-1.2-7.3-4.1
	c-1.3-4.1,0.8-7.7,5.1-8.5c2.8-0.4,5.7-0.2,8.3,0.8c1.6,0.5,3.2,1,4.9,1.6c0-0.4,0-0.7,0-1c0-1.8-0.1-3.5-0.1-5.3
	c0.1-0.5-0.2-1.1-0.8-1.2c0,0,0,0-0.1,0c-5.8-1.7-11.6-2.2-17.4-0.4S18,20,17.4,26.5c-0.4,4.3,0.7,8.1,4.4,10.8
	c1.6,1.2,3.4,2,5.3,2.4c4.6,1,9.5,0.6,13.9-1c1.9-0.5,3.6-1.4,5-2.8c0.3-0.4,0.5-0.8,0.5-1.3c0-2.9,0-5.8,0-8.7c0-0.3,0-0.5,0-0.8
	H32.1c0,1,0.1,2,0,2.9c-0.1,0.7,0.2,1,0.9,1.1C34.4,29.4,35.9,29.8,37.3,30.2z M101.2,52.4c0-1.7,0-3.1,0-4.6c0.1-3,0-3.2-3-3.6
	c-2.3-0.3-4.5-0.7-6.8-0.9c-3.8-0.5-7.6,0.1-11.2,1.6c-3.2,1.3-5.8,3.7-7.3,6.8c-2.5,5.5,0.2,12.7,5.8,15.4c2.2,1.1,4.5,1.7,6.9,1.9
	c5.2,0.6,10.5-0.5,15.1-2.9c0.4-0.2,0.7-0.6,0.6-1.1c0-3.1,0-6.1,0-9.2c0-0.2,0-0.5-0.1-0.7H86.9c0,1.3,0,2.4,0,3.6s0,1.1,1.1,1.1h4
	c0,0.6,0,1.1,0,1.7c-0.1,0.2-0.2,0.5-0.4,0.6c-1.7,0.5-3.6,0.5-5.3,0c-2.1-0.7-3.6-2.6-3.8-4.8c-0.3-2.7,0.2-5.1,2.7-6.7
	c2.7-1.7,5.6-1.6,8.6-1C96.4,50.1,98.9,51.1,101.2,52.4z M91.1,38.7c-0.1-0.3-0.1-0.6-0.2-0.8c-2.5-7.2-5-14.4-7.4-21.6
	c-0.1-0.5-0.6-0.9-1.2-0.8c-3.7,0-7.4,0-11.1,0c-0.6-0.1-1.1,0.3-1.3,0.9c-2.7,7.2-5.5,14.4-8.3,21.6c-0.1,0.3-0.2,0.5-0.3,0.9
	c2.7,0,5.4,0,8,0c0.2,0,0.4-0.3,0.6-0.5c0.4-0.6,0.7-1.3,0.9-2c0.1-0.6,0.7-1,1.3-0.9c1.2,0.1,2.5,0,3.7,0c0.9,0,2.1-0.3,2.8,0.1
	s1,1.6,1.4,2.4c0.2,0.5,0.6,0.7,1.1,0.6c2,0,3.9,0,5.9,0L91.1,38.7z M72.8,67.9c-0.1-0.3-0.2-0.5-0.2-0.8
	c-2.6-7.2-5.2-14.3-7.8-21.5c-0.1-0.5-0.5-0.8-1-0.7c-3.7,0-7.5,0-11.2,0c-0.6-0.1-1.1,0.3-1.2,0.9c-2.3,6.2-4.6,12.4-6.9,18.7
	l-1.3,3.6c1.8,0,3.6,0,5.3,0c1,0,2.1,0.3,2.9-0.2s1-1.6,1.3-2.4c0.2-0.5,0.7-0.8,1.2-0.7c1.2,0.1,2.5,0.1,3.7,0
	c2.2-0.3,3.6,0.4,4.3,2.5c0.2,0.6,0.6,0.7,1.2,0.7c3,0,6.1,0,9.1,0C72.2,68,72.5,67.9,72.8,67.9L72.8,67.9z M149,49.7
	c0-1.3-0.1-2.5,0-3.7c0-0.8-0.2-1-1-1c-6.5,0-13.1,0-19.6,0c-0.3,0-0.6,0-0.9,0V68h21.4c0-1.5,0-3,0-4.4c0-0.7-0.2-0.9-0.9-0.9
	c-3.1,0-6.3,0-9.4,0c-0.3,0-0.6,0-0.9-0.1v-5h9v-3.8h-1.2c-2.4,0-4.9,0-7.3,0c-0.3,0-0.7-0.2-0.7-0.4c-0.1-1.2,0-2.4,0-3.7L149,49.7
	z M41.5,45.2c-0.3,0-0.7,0-1,0c-6.5,0-12.9,0-19.4,0c-0.8,0-1,0.2-1,1c0,7,0,14,0,21.1c0,0.3,0,0.6,0.1,0.9h21.2c0-1.5,0-2.9,0-4.3
	c0-0.8-0.2-1-1-1c-3,0-6.1,0-9.1,0c-0.3,0-0.7,0-1-0.1v-5h9.2c0-1,0-2,0-2.9c0-0.7-0.3-0.9-0.9-0.8c-2.5,0-5,0-7.5,0
	c-0.3,0-0.7,0-1-0.1v-4.1h11.4V45.2z M124.5,21.8h1c1.9,0,3.8,0,5.6,0c0.8,0,1,0.2,1,1c0,4.9,0,9.8,0,14.7v1.1h10.5V21.9h8.2v-6.5
	h-26.3L124.5,21.8z M114.1,45.2c-0.3,0-0.6-0.1-0.9-0.1c-2.8,0-5.5,0-8.3,0c-0.8,0-1,0.3-1,1c0,7,0,14,0,21c0,0.3,0,0.6,0,0.9h21.3
	v-4.9h-11.1L114.1,45.2z M60,38.7c0-0.3,0-0.5,0-0.7c0-7.2,0-14.4,0-21.6c0-0.6-0.2-0.8-0.8-0.8c-2.8,0-5.7,0-8.5,0
	c-0.2,0-0.5,0-0.7,0.1v23L60,38.7z"/>
<path class="st1" d="M102.8,29.3v9.3H94c0-0.3,0-0.6,0-0.9c0-7.1,0-14.1,0-21.2c0-0.8,0.2-1.1,1-1c2.3,0.1,4.6,0,7,0
	c0.5,0,1.1,0.2,1.5,0.6c3.3,3,6.6,6,9.9,9.1c0.2,0.2,0.4,0.3,0.8,0.6V15.4h8.3v23.3c-0.2,0-0.3,0.1-0.5,0.1c-2.7,0-5.5,0-8.2,0
	c-0.4,0-0.7-0.2-1-0.5c-2.9-2.7-5.8-5.4-8.7-8.1l-1-0.9L102.8,29.3z"/>
<path class="st1" d="M37.3,30.2c-1.4-0.3-2.9-0.7-4.4-1c-0.7-0.1-0.9-0.4-0.9-1.1c0.1-0.9,0-1.9,0-2.9h14.4c0,0.3,0,0.5,0,0.8
	c0,2.9,0,5.8,0,8.7c0,0.5-0.2,0.9-0.5,1.3c-1.4,1.3-3.1,2.3-5,2.8c-4.5,1.6-9.3,2-13.9,1c-1.9-0.4-3.7-1.3-5.3-2.4
	c-3.7-2.7-4.8-6.5-4.4-10.8c0.6-6.5,4.8-10,10.6-11.9s11.6-1.4,17.4,0.4c0.5,0.1,0.9,0.6,0.9,1.1c0,0,0,0,0,0.1
	c0,1.8,0.1,3.5,0.1,5.3c0,0.3,0,0.6,0,1c-1.7-0.6-3.3-1.1-4.9-1.6c-2.6-0.9-5.5-1.2-8.3-0.8c-4.3,0.8-6.4,4.5-5.1,8.5
	c0.9,2.9,4.5,4.9,7.3,4.1l0.3-0.1C37.5,32.2,37.5,32.2,37.3,30.2z"/>
<path class="st1" d="M101.2,52.4c-2.3-1.3-4.7-2.3-7.3-2.9c-3-0.6-5.9-0.7-8.6,1c-2.5,1.5-3,4-2.7,6.7c0.2,2.2,1.7,4.1,3.8,4.8
	c1.7,0.5,3.6,0.5,5.3,0c0.2-0.1,0.4-0.3,0.4-0.6c0-0.6,0-1.1,0-1.7h-4c-1.1,0-1.1,0-1.1-1.1s0-2.4,0-3.6h14.2c0,0.3,0.1,0.5,0.1,0.7
	c0,3.1,0,6.1,0,9.2c0,0.5-0.2,0.9-0.6,1.1c-4.6,2.5-9.9,3.5-15.1,2.9c-2.4-0.2-4.7-0.9-6.9-1.9c-5.6-2.7-8.3-9.9-5.8-15.4
	c1.5-3.1,4.1-5.5,7.3-6.8c3.5-1.5,7.4-2.1,11.1-1.6c2.3,0.2,4.5,0.6,6.8,0.9c3,0.5,3.1,0.6,3,3.6C101.1,49.4,101.2,50.8,101.2,52.4z
	"/>
<path class="st1" d="M91.1,38.7H87c-2,0-3.9,0-5.9,0c-0.5,0.1-0.9-0.2-1.1-0.6c-0.4-0.9-0.7-2-1.4-2.4s-1.8-0.1-2.8-0.1
	c-1.2,0-2.5,0-3.7,0c-0.6-0.1-1.2,0.3-1.3,0.9c-0.3,0.7-0.6,1.4-0.9,2c-0.1,0.2-0.4,0.5-0.6,0.5c-2.6,0-5.2,0-8,0
	c0.1-0.4,0.2-0.6,0.3-0.9c2.8-7.2,5.5-14.4,8.3-21.6c0.1-0.6,0.7-1,1.3-0.9c3.7,0,7.4,0,11.1,0c0.5-0.1,1,0.2,1.2,0.8
	c2.5,7.2,5,14.4,7.5,21.6C90.9,38.2,91,38.4,91.1,38.7z M77.1,31.4l-2.3-6.7L72,31.4H77.1z"/>
<path class="st1" d="M72.8,67.9c-0.3,0-0.6,0-0.8,0c-3,0-6.1,0-9.1,0c-0.6,0-1-0.1-1.2-0.7c-0.7-2.1-2.1-2.8-4.3-2.5
	c-1.2,0.1-2.5,0.1-3.7,0c-0.5-0.1-1,0.2-1.2,0.7c-0.4,0.9-0.7,2-1.3,2.4S49.4,68,48.4,68c-1.7,0-3.4,0-5.3,0l1.3-3.6
	c2.3-6.2,4.6-12.4,6.9-18.7c0.1-0.6,0.6-0.9,1.2-0.9c3.7,0,7.5,0,11.2,0c0.5-0.1,0.9,0.2,1,0.7c2.6,7.2,5.2,14.3,7.8,21.5
	C72.7,67.4,72.7,67.6,72.8,67.9z M58.9,60.7l-2.5-6.7l-2.6,6.7H58.9z"/>
<path class="st1" d="M148.9,49.8h-11.6c0,1.3,0,2.5,0,3.7c0,0.1,0.5,0.4,0.7,0.4c2.4,0,4.9,0,7.3,0h1.2v3.8h-9v5
	c0.3,0,0.6,0.1,0.9,0.1c3.1,0,6.3,0,9.4,0c0.7,0,0.9,0.2,0.9,0.9c0,1.5,0,2.9,0,4.4h-21.4V45.2c0.3,0,0.6,0,0.9,0
	c6.5,0,13.1,0,19.6,0c0.8,0,1.1,0.2,1,1C148.9,47.3,148.9,48.4,148.9,49.8z"/>
<path class="st1" d="M41.5,45.2v4.6H30.2v4.1c0.3,0,0.7,0.1,1,0.1c2.5,0,5,0,7.5,0c0.6,0,0.9,0.1,0.9,0.8c-0.1,1,0,1.9,0,2.9h-9.2v5
	c0.3,0,0.7,0.1,1,0.1c3,0,6.1,0,9.1,0c0.8,0,1,0.2,1,1c-0.1,1.4,0,2.8,0,4.3H20.2c0-0.3-0.1-0.6-0.1-0.9c0-7,0-14,0-21.1
	c0-0.8,0.3-1,1-1c6.5,0,12.9,0,19.4,0C40.8,45.1,41.1,45.2,41.5,45.2z"/>
<path class="st1" d="M124.5,21.8v-6.3h26.3v6.4h-8.2v16.7h-10.5v-1.1c0-4.9,0-9.8,0-14.7c0-0.8-0.2-1.1-1-1c-1.9,0.1-3.7,0-5.6,0
	H124.5z"/>
<path class="st1" d="M114.1,45.2v18h11.2v4.9H104c0-0.3,0-0.6,0-0.9c0-7,0-14,0-21c0-0.8,0.2-1,1-1c2.8,0,5.5,0,8.3,0
	C113.5,45.1,113.8,45.2,114.1,45.2z"/>
<path class="st1" d="M60,38.7h-10v-23c0.2,0,0.5-0.1,0.7-0.1c2.8,0,5.7,0,8.5,0c0.6,0,0.8,0.2,0.8,0.8c0,7.2,0,14.4,0,21.6
	C60.1,38.2,60.1,38.4,60,38.7z"/>
<polygon class="st0" points="56.5,53.9 53.7,60.6 58.8,60.6 "/>
<polygon class="st0" points="74.8,24.8 72.1,31.5 77.2,31.5 "/>
<path d="M174.9,80.3c-2.9,0-5.3-2.4-5.3-5.3s2.4-5.3,5.3-5.3c2.9,0,5.3,2.4,5.3,5.3C180.2,77.9,177.9,80.3,174.9,80.3z M174.9,70.3
	c-2.6,0-4.7,2.1-4.7,4.7s2.1,4.7,4.7,4.7s4.7-2.1,4.7-4.7v0C179.6,72.4,177.5,70.3,174.9,70.3z"/>
<path class="st2" d="M174.9,80.5c-3.1,0-5.6-2.5-5.6-5.6s2.5-5.6,5.6-5.6c3.1,0,5.6,2.5,5.6,5.6S178,80.5,174.9,80.5L174.9,80.5z
	 M174.9,69.9c-2.8,0-5.1,2.3-5.1,5.1s2.3,5.1,5.1,5.1s5.1-2.3,5.1-5.1C180,72.2,177.7,69.9,174.9,69.9L174.9,69.9z M174.9,79.9
	c-2.7,0-4.9-2.2-4.9-4.9s2.2-4.9,4.9-4.9s4.9,2.2,4.9,4.9v0C179.8,77.7,177.6,79.9,174.9,79.9L174.9,79.9z M174.9,70.5
	c-2.4,0-4.4,2-4.4,4.4s2,4.4,4.4,4.4s4.4-2,4.4-4.4l0,0C179.3,72.5,177.4,70.5,174.9,70.5L174.9,70.5z"/>
<path d="M172.8,72.4c0.5-0.1,1-0.1,1.5-0.1c0.6-0.1,1.3,0.1,1.8,0.4c0.3,0.2,0.5,0.6,0.5,1c0,0.7-0.5,1.2-1.2,1.3l0,0
	c0.5,0.1,0.8,0.5,0.9,1c0.1,0.5,0.3,1,0.5,1.4H176c-0.2-0.4-0.3-0.8-0.4-1.2c-0.1-0.6-0.6-1.1-1.2-1h-0.8v2.2h-0.8L172.8,72.4z
	 M173.6,74.8h0.8c0.9,0,1.4-0.4,1.4-1s-0.6-1-1.4-1c-0.3,0-0.5,0-0.8,0.1L173.6,74.8z"/>
<path class="st2" d="M177.3,77.8h-1.4l-0.1-0.1c-0.2-0.4-0.4-0.9-0.4-1.3c0-0.5-0.5-0.9-1-0.8c0,0,0,0,0,0h-0.5v2.2h-1.3v-5.5h0.2
	c0.5-0.1,1.1-0.1,1.6-0.1c0.7-0.1,1.4,0.1,1.9,0.5c0.4,0.3,0.6,0.7,0.6,1.2c0,0.6-0.3,1.1-0.8,1.4c0.3,0.3,0.5,0.6,0.6,1
	c0.1,0.5,0.3,0.9,0.4,1.3L177.3,77.8z M176.2,77.3h0.3c-0.1-0.3-0.2-0.6-0.3-1.1c-0.1-0.4-0.4-0.7-0.7-0.9h-0.1
	c0.3,0.2,0.5,0.6,0.6,0.9C175.9,76.6,176,77,176.2,77.3L176.2,77.3z M173,77.3h0.3v-4.6h0.2c0.3-0.1,0.6-0.1,0.9-0.1
	c1.5,0,1.7,0.9,1.7,1.2c0,0.4-0.2,0.7-0.5,0.9c0.5-0.1,0.8-0.5,0.8-1c0-0.3-0.1-0.6-0.4-0.8c-0.5-0.3-1.1-0.4-1.6-0.4
	c-0.4,0-0.9,0-1.3,0.1L173,77.3z M174.4,75.1c0.3,0,0.5,0.1,0.8,0.2v-0.3C174.9,75,174.7,75.1,174.4,75.1L174.4,75.1z M173.8,74.6
	h0.6c0.7,0,1.1-0.3,1.1-0.7s-0.4-0.7-1.2-0.7c-0.2,0-0.4,0-0.5,0L173.8,74.6z"/>
</svg>
