<svg id="Layer_1" data-name="Layer 1" xmlns="http://www.w3.org/2000/svg" xmlns:xlink="http://www.w3.org/1999/xlink" viewBox="0 0 250 250"><defs><style>.cls-1{fill:url(#linear-gradient);}.cls-2{fill:url(#linear-gradient-2);}.cls-3{fill:#787878;}.cls-4{fill:url(#linear-gradient-3);}.cls-5{fill:#f8a225;}.cls-6{fill:#b0b0b0;}.cls-7{fill:url(#linear-gradient-4);}.cls-8{fill:url(#linear-gradient-5);}.cls-9{fill:url(#linear-gradient-6);}</style><linearGradient id="linear-gradient" x1="132.5" y1="1245.55" x2="103.17" y2="1160.4" gradientTransform="translate(0 -1080)" gradientUnits="userSpaceOnUse"><stop offset="0" stop-color="#e12127"/><stop offset="1" stop-color="#f8a225"/></linearGradient><linearGradient id="linear-gradient-2" x1="128.07" y1="1156.92" x2="119.6" y2="1237.5" xlink:href="#linear-gradient"/><linearGradient id="linear-gradient-3" x1="137.02" y1="1172.34" x2="131.3" y2="1226.72" gradientTransform="translate(0 -1080)" gradientUnits="userSpaceOnUse"><stop offset="0"/><stop offset="0.16" stop-color="#040404"/><stop offset="1" stop-color="#fff"/></linearGradient><linearGradient id="linear-gradient-4" x1="74.99" y1="1212.39" x2="175.02" y2="1212.39" xlink:href="#linear-gradient"/><linearGradient id="linear-gradient-5" x1="89.04" y1="1169.94" x2="89.11" y2="1169.94" xlink:href="#linear-gradient"/><linearGradient id="linear-gradient-6" x1="89.12" y1="1169.86" x2="89.19" y2="1169.86" xlink:href="#linear-gradient"/></defs><title>Giant Oil</title><path class="cls-1" d="M163.61,144a25.79,25.79,0,0,1-2.85,3.5,46.81,46.81,0,0,1-7.15,6.09,43.46,43.46,0,0,1-9.56,4.86,46.52,46.52,0,0,1-6.94,1.86,42.61,42.61,0,0,1-5.2.62,38.32,38.32,0,0,1-5.4-.06,42.72,42.72,0,0,1-29.73-15.3,43.18,43.18,0,0,1-6.56-10.79c-.52-1.39-1.15-2.76-1.53-4.19a51.17,51.17,0,0,1-1.36-6.34,43.2,43.2,0,0,1-.11-11A42.41,42.41,0,0,1,92.77,96.7a41.92,41.92,0,0,1,14.58-14.87,44.07,44.07,0,0,1,8.25-3.93,42.35,42.35,0,0,1,10.29-2.21c1-.09,2-.1,3-.15-.85,0-1.69-.19-2.54-.19-1.16,0-2.32,0-3.48.08a43.5,43.5,0,0,0-7.37,1,44.88,44.88,0,0,0-12.93,5.16,43.62,43.62,0,0,0-8.12,6.19,45,45,0,0,0-5.84,6.89,44.19,44.19,0,0,0-5.15,9.88,44.66,44.66,0,0,0-2.13,7.77,36.84,36.84,0,0,0-.65,5.16,52.36,52.36,0,0,0,.19,7.75,50,50,0,0,0,.85,5.11,34.05,34.05,0,0,0,1.86,5.9v.17A44.89,44.89,0,0,0,96,154.24a42,42,0,0,0,7.12,5.09,45.08,45.08,0,0,0,59.62-13.55c.43-.61.78-1.26,1.19-1.91C163.71,143.81,163.66,143.89,163.61,144Z"/><path class="cls-2" d="M161.45,93.12a36.77,36.77,0,0,0-6.85-7,40.52,40.52,0,0,0-13.2-7,41.39,41.39,0,0,0-12.15-1.86c-.64,0-1.28.08-1.91.09a31.62,31.62,0,0,0-5.81.68,38.31,38.31,0,0,0-11.16,4,45.71,45.71,0,0,0-4.82,3,39.92,39.92,0,0,0-12.66,15.08A39.31,39.31,0,0,0,89,114.48a4.38,4.38,0,0,0-.09.57,47.67,47.67,0,0,0,.19,7.31,40.87,40.87,0,0,0,15.24,27.3,37.14,37.14,0,0,0,7.64,4.73,39.69,39.69,0,0,0,6.11,2.33,38.61,38.61,0,0,0,10.19,1.54,30.45,30.45,0,0,0,7.19-.55h-1.14a31,31,0,0,1-7.9-.51,38.56,38.56,0,0,1-30.35-27.67,36.72,36.72,0,0,1-1.31-7.78A38.67,38.67,0,0,1,95,114a6.27,6.27,0,0,1,.14-.85,36.63,36.63,0,0,1,3-10,38.09,38.09,0,0,1,10.21-13.33,38.76,38.76,0,0,1,22.11-8.9,32.33,32.33,0,0,1,6.69.19c1.54.19,3.07.41,4.57.74a36.47,36.47,0,0,1,8.28,3,38.82,38.82,0,0,1,5.65,3.43,41.54,41.54,0,0,1,4.61,3.91c.41.4.67,1,1.19,1.27A.33.33,0,0,0,161.45,93.12Z"/><path class="cls-3" d="M163.33,116.93a1.68,1.68,0,0,1,.15.92,17.86,17.86,0,0,1,0,3.19c-.09.71,0,1.42-.13,2.14-.12,1-.25,1.9-.4,2.85a26.13,26.13,0,0,1-1.54,5.21,26.86,26.86,0,0,1-4.46,7.54,20.9,20.9,0,0,1-1.73,2c-.67.62-1.36,1.26-2.09,1.84a31.7,31.7,0,0,1-4.54,3,28.32,28.32,0,0,1-5.25,2.11,34.08,34.08,0,0,1-6,1.17,30.38,30.38,0,0,1-5.27.07,28.48,28.48,0,0,1-6.86-1.37,28,28,0,0,1-8.78-4.62,27.63,27.63,0,0,1-6.29-6.9,31.79,31.79,0,0,1-2.12-3.94,2.82,2.82,0,0,1-.21-.65c.58,1,1.11,2.09,1.73,3.09a28.4,28.4,0,0,0,12,10.63,27.67,27.67,0,0,0,7.14,2.27,29.55,29.55,0,0,0,7,.47,30.82,30.82,0,0,0,10.19-2.32,29,29,0,0,0,7.42-4.51,27.16,27.16,0,0,0,5.72-6.67,28.41,28.41,0,0,0,3.29-7.91,36.84,36.84,0,0,0,.79-4.74,41.52,41.52,0,0,0,.2-4.46C163.18,117.17,163.12,117,163.33,116.93Z"/><path class="cls-4" d="M162.26,118.32a8,8,0,0,1,0-1c.07-.54-.13-.66-.65-.66h-28.4c-.51,0-1.22-.23-1.49.1s-.07,1-.08,1.52V126l.25.06h15.65c.39,0,.57,0,.43.53a16.55,16.55,0,0,1-2,4.54.26.26,0,0,0-.24.14,11.08,11.08,0,0,1-4.27,3.59,16.32,16.32,0,0,1-9.62,1.53,14.86,14.86,0,0,1-6.2-2.27c-.57-.37-1.09-.81-1.64-1.2a13.32,13.32,0,0,1-1.85-1.8,19.61,19.61,0,0,1-1.28-1.63,9.81,9.81,0,0,1-.94-1.77,15.33,15.33,0,0,1-1.51-5.18c-.09-1.1-.17-2.19-.25-3.29a23.78,23.78,0,0,1,.21-2.78,15.57,15.57,0,0,1,14.72-13.75,21.42,21.42,0,0,1,2.24.08,11.83,11.83,0,0,1,3.77.83,14.27,14.27,0,0,1,7,5.75.69.69,0,0,0,.7.35H160c.31,0,.43,0,.27-.39-.31-.66-.54-1.35-.85-2a25.91,25.91,0,0,0-7.42-9,28.94,28.94,0,0,0-4.48-2.87,29.31,29.31,0,0,0-5.93-2.33,27,27,0,0,0-5.09-.84,30.34,30.34,0,0,0-8.12.49,28.47,28.47,0,0,0-8.59,3.1,24.35,24.35,0,0,0-5.07,3.66,33.31,33.31,0,0,0-3,3.15,24,24,0,0,0-2.75,4.24,26.07,26.07,0,0,0-2.47,7.4,28.39,28.39,0,0,0-.45,4.95v.29a25.35,25.35,0,0,0,.65,5.86,19.77,19.77,0,0,0,1.45,4.48.87.87,0,0,0,.11.44,26.73,26.73,0,0,0,5.62,8.32c20.83,18.07,40.08.51,40.27.37a23.62,23.62,0,0,0,2.88-3.17c.69-1,1.38-2.1,2-3.18a5,5,0,0,0,.71-1.41,1.2,1.2,0,0,1,.2-.59,21.16,21.16,0,0,0,1.11-3,28.23,28.23,0,0,0,1-4.62A23.67,23.67,0,0,0,162.26,118.32Z"/><path class="cls-3" d="M147,126.94c-.21,1-.21,1-1.19,1H131.58a.62.62,0,0,1-.51-.94c.13-.21.36-.1.53-.1H147Z"/><path class="cls-5" d="M157.85,170.74a3.48,3.48,0,0,1,3.33-3.62c2.31,0,3.94,1.42,4,3.43a3.7,3.7,0,0,1-3.49,3.89h-.16a3.58,3.58,0,0,1-3.68-3.48h0Zm6.75,0a3,3,0,0,0-2.93-3.07h-.13a3.07,3.07,0,1,0,0,6.14h0a3,3,0,0,0,3.07-2.93h0v-.14Z"/><path class="cls-6" d="M161,110.62H146.55a1,1,0,0,1-1-.57,13,13,0,0,0-3.16-3.6,13.29,13.29,0,0,0-10.75-2.72,14.11,14.11,0,0,0-8.82,4.79A15.64,15.64,0,0,0,119.13,119a16.53,16.53,0,0,0,.4,4.57,3.28,3.28,0,0,0,.47,1.51l-.3-1.49a13.88,13.88,0,0,1-.25-3.19,19.42,19.42,0,0,1,.67-5,15,15,0,0,1,3.38-6.1,14.69,14.69,0,0,1,5.45-3.64,14.86,14.86,0,0,1,5.47-1.05h.14c.54.06,1.07.14,1.6.19a12.18,12.18,0,0,1,3.55.93,13.42,13.42,0,0,1,6.26,5.51.82.82,0,0,0,.81.46h13.33a4.05,4.05,0,0,1,1.15.06c.16,0,.54.06.59-.23a.79.79,0,0,0-.66-.9Z"/><path class="cls-7" d="M174.62,118.63c-.19-1.49-.43-3-.73-4.43a33.15,33.15,0,0,0-1.72-5.78c.25.72.24,1.48.44,2.22a24,24,0,0,1,.7,4.43,51.1,51.1,0,0,1,.2,5.66,37.79,37.79,0,0,1-.27,4.1,51.54,51.54,0,0,1-.9,5.28A46.19,46.19,0,0,1,170,137.6a47.3,47.3,0,0,1-42,29.52h-3.66c-1.54-.09-3.08-.18-4.61-.4a47.54,47.54,0,0,1-36-25.8,46.06,46.06,0,0,1-4.25-12.56,43.54,43.54,0,0,1-.77-6.74c0-1.8-.05-3.6.08-5.4A46.32,46.32,0,0,1,81.64,103a43.93,43.93,0,0,1,6.92-12.32.44.44,0,0,0,.21-.31l.11-.13c.05,0,.09-.05.06-.12l-.12.07-.12.11-.27.25a20.37,20.37,0,0,0-2.95,3.29,47.19,47.19,0,0,0-4.83,7.52,45.94,45.94,0,0,0-2.07,4.49c-.54,1.39-1,2.79-1.48,4.22A43,43,0,0,0,75.86,115a51,51,0,0,0-.74,5.51c-.13,1.49-.13,3-.13,4.42a42.65,42.65,0,0,0,.26,5.3c.12,1,.21,2,.4,2.92.41,2,.84,4,1.42,5.92a50.24,50.24,0,0,0,2.37,6.31,49.6,49.6,0,0,0,8.37,12.77c.88,1,1.78,1.9,2.74,2.8a50.63,50.63,0,0,0,4.74,4,47.91,47.91,0,0,0,11.9,6.45,54.6,54.6,0,0,0,6.88,2.07c1.29.28,2.58.54,3.88.74.9.14,1.83.12,2.73.26,1.11.16,2.23.08,3.35.13a1.8,1.8,0,0,0,.34.06,46.61,46.61,0,0,0,5-.18c1.32-.11,2.63-.28,3.93-.5a48.82,48.82,0,0,0,6.35-1.51,50.63,50.63,0,0,0,10.53-4.64A49.93,49.93,0,0,0,175,126.22,46.72,46.72,0,0,0,174.62,118.63Z"/><path class="cls-8" d="M89.11,89.9s-.12,0,0,.09Z"/><path class="cls-9" d="M89.17,89.82l-.05.08C89.18,89.91,89.21,89.89,89.17,89.82Z"/><path class="cls-5" d="M163.33,172.74a.58.58,0,0,1-.79-.21v-.05c-.24-.4-.53-.77-.75-1.18a.65.65,0,0,0-.84-.3c-.31.08-.14.39-.16.6a8,8,0,0,0,0,.87c0,.19,0,.34-.27.34s-.31-.07-.31-.3V169c0-.19.07-.29.27-.29a12.74,12.74,0,0,1,2.09.07,1.09,1.09,0,0,1,.11,2.13c-.48.1-.37.29-.17.58S163,172.28,163.33,172.74Zm-1.68-3.55c-1,0-1.05.12-.9,1,0,.12,0,.25.17.25a4,4,0,0,0,1.55-.1.6.6,0,0,0,.37-.65.54.54,0,0,0-.49-.49,4.89,4.89,0,0,0-.7,0Z"/></svg>