<?xml version="1.0" encoding="utf-8"?>
<!-- Generator: Adobe Illustrator 21.1.0, SVG Export Plug-In . SVG Version: 6.00 Build 0)  -->
<svg version="1.1" id="Layer_1" xmlns="http://www.w3.org/2000/svg" xmlns:xlink="http://www.w3.org/1999/xlink" x="0px" y="0px"
	 viewBox="0 0 180.9 43.7" style="enable-background:new 0 0 180.9 43.7;" xml:space="preserve">
<style type="text/css">
	.st0{fill:#020101;}
	.st1{fill:#E63137;}
	.st2{fill:#FDFDFD;}
</style>
<title>Grocery</title>
<path class="st0" d="M109.5,41.1c-0.2,0.2,0,0.4,0,0.5c0.1,0.4,0.2,0.7,0.4,1.1s0.1,0.4-0.3,0.4H84.9c-0.3,0-0.6-0.1-0.8-0.3
	c-1.3-1.3-2.6-2.6-3.9-3.9c-0.6,1.3-1.2,2.6-1.7,3.8c-0.1,0.3-0.3,0.5-0.6,0.4c-4.1,0-8.1,0-12.2,0c-0.2,0-0.4-0.1-0.6-0.2
	c-0.8-0.8-1.7-1.5-2.6-2.3c0,0.8,0,1.5,0,2.1c0,0.3-0.1,0.4-0.3,0.4h-12c-0.2,0-0.4-0.1-0.6-0.3c-1.4-1.4-2.8-2.7-4.1-4.1
	c-0.2-0.2-0.3-0.5-0.3-0.8c0-7,0-14.1,0-21.1c0-5,0-9.9,0-14.9c0-0.4,0.1-0.5,0.5-0.5c3.8,0,7.5,0,11.3,0c0.3,0,0.6,0.1,0.8,0.3
	c1.5,1.5,3,3,4.4,4.6c0.2,0.2,0.3,0.5,0.3,0.8c0,8.9,0,17.8,0,26.6c0,0.2,0,0.3,0,0.6c0.1-0.1,0.2-0.3,0.3-0.4
	c3.4-7.8,6.8-15.5,10.3-23.3c0.9-2.2,1.9-4.3,3-6.3c1.4-2.5,4.1-3.9,7-3.7c2,0.1,3.8,1,5.2,2.5c1.8,1.8,3.6,3.7,5.3,5.6
	c0.2,0.2,0.4,0.5,0.5,0.8l12.3,25.7c0.1,0.1,0.2,0.3,0.3,0.4V35c0-7.9,0-15.8,0-23.7c-0.1-1.5,0-3,0.3-4.5c0.5-2.8,2.5-5.1,5.2-6
	c2.3-0.8,4.9-0.4,6.8,1.1c1.1,0.8,2.1,1.7,3,2.6c1.1,1.1,2.2,2.2,3.4,3.3c0.1,0.1,0.2,0.3,0.3,0.4l5.2,8l0.3,0.4
	c0.1-0.2,0.1-0.3,0.1-0.5c0-4.8,0-9.5,0-14.3c0-0.4,0.1-0.5,0.5-0.5c14.5,0,29,0,43.5,0c0.3,0,0.5,0.1,0.7,0.3
	c1.4,1.5,2.8,2.9,4.2,4.4c0.2,0.2,0.3,0.4,0.3,0.7c0,3.4,0,6.9,0,10.3c0,0.4-0.1,0.4-0.5,0.4c-3.3,0-6.5,0-9.8,0
	c-0.4,0-0.5,0.1-0.5,0.5c0,8.2,0,16.4,0,24.5c0,0.4-0.1,0.6-0.5,0.6c-3.7,0-7.5,0-11.2,0c-0.3,0-0.6-0.1-0.8-0.3
	c-1.3-1.4-2.7-2.8-4-4.1c-0.2-0.2-0.3-0.5-0.3-0.8c0-6.7,0-13.3,0-20c0-0.4-0.1-0.5-0.5-0.5c-1.5,0-3.1,0-4.6,0
	c-0.4,0-0.5,0.1-0.5,0.5c0,8.2,0,16.5,0,24.7c0,0.5-0.1,0.6-0.6,0.6c-4,0-8.1,0-12.1,0c-0.3,0-0.6-0.1-0.7-0.4
	c-1.3-1.6-2.6-3.2-3.8-4.9c-1.4-1.9-2.7-3.9-4-5.9c-1-1.5-2-3.1-3-4.6c-0.1-0.1-0.1-0.3-0.3-0.4c-0.1,0.1-0.1,0.3-0.1,0.5
	c0,5,0,10,0,14.9c0,0.4-0.1,0.5-0.5,0.5c-3.5,0-6.9,0-10.4,0c-0.2,0-0.5-0.1-0.6-0.3c-0.6-0.5-1.2-1-1.7-1.6l-0.1,0.1l0,0
	L109.5,41.1z M117.2,17.4l0.4,0.6c4.1,6.3,8.3,12.6,12.4,18.9c0.1,0.3,0.4,0.4,0.7,0.4c3.5,0,7.1,0,10.6,0c0.4,0,0.5-0.1,0.5-0.5
	c0-8.2,0-16.4,0-24.6c0-0.4,0.1-0.5,0.5-0.5c3.5,0,7,0,10.5,0c0.7,0,0.7,0,0.7,0.7c0,8.2,0,16.3,0,24.5c0,0.4,0.1,0.5,0.5,0.5
	c3.3,0,6.5,0,9.8,0c0.5,0,0.5-0.1,0.5-0.6c0-8.1,0-16.2,0-24.3c0-0.4,0.1-0.5,0.5-0.5c3.3,0,6.5,0,9.8,0c0.4,0,0.6-0.1,0.6-0.5
	c0-2.9,0-5.9,0-8.8c0-0.4-0.1-0.5-0.5-0.5c-14.1,0-28.1,0-42.2,0c-0.4,0-0.6,0.1-0.6,0.5c0,6.2,0,12.3,0,18.5c0,0.2,0,0.3-0.1,0.5
	l-0.1-0.1c-3.8-5.6-7.5-11.3-11.3-16.9c-0.5-0.8-1.1-1.4-1.9-2c-2.8-2.2-6.9-1.9-9.2,0.8c-1.4,1.7-2.2,3.8-2.1,5.9
	c0,9.2,0,18.3,0,27.5c0,0.4,0.1,0.4,0.4,0.4c3,0,6,0,9,0c0.4,0,0.4-0.1,0.4-0.5c0-3.9,0-7.9,0-11.8C117.3,22.5,117.3,20,117.2,17.4
	L117.2,17.4z M82.5,13.9c0.2,0.1,0.2,0.2,0.2,0.2c1.9,4.4,3.7,8.8,5.6,13.1c0.2,0.4,0,0.4-0.3,0.4h-6.9c-0.3,0-0.4,0.1-0.4,0.4
	c0,3,0,6,0,9c0,0.3,0.1,0.4,0.4,0.4h22.3c0.5,0,0.6,0,0.3-0.5c-1.1-2.3-2.1-4.5-3.1-6.8c-4-8.4-7.8-16.9-11.8-25.3
	c-0.2-0.4-0.4-0.8-0.7-1.2c-2.5-3-6.9-3.4-9.9-0.9c-1,1-1.8,2.1-2.3,3.4C70.9,16.5,66.5,26.8,62.1,37c-0.2,0.4-0.1,0.4,0.3,0.4
	c3.4,0,6.9,0,10.3,0c0.3,0,0.5-0.1,0.6-0.4c2.1-5.3,4.3-10.7,6.4-16L82.5,13.9z M45.7,19.9c0,5.8,0,11.6,0,17.4
	c0,0.4,0.1,0.5,0.5,0.5c3.4,0,6.8,0,10.1,0c0.4,0,0.5-0.1,0.5-0.5c0-11.6,0-23.1,0-34.7c0-0.4-0.1-0.5-0.5-0.5c-3.3,0-6.7,0-10.1,0
	c-0.4,0-0.5,0.1-0.5,0.5C45.8,8.4,45.8,14.1,45.7,19.9L45.7,19.9z M84.8,26.7h2.1c0.2,0,0.2-0.1,0.1-0.2l-1.1-2.3L84.8,26.7z"/>
<path class="st0" d="M26.9,1.7h11.1c0.3,0,0.5,0.1,0.7,0.3c1.4,1.4,2.8,2.8,4.2,4.2c0.2,0.2,0.3,0.4,0.3,0.6c0,3.4,0,6.9,0,10.4
	c0,0.4-0.1,0.4-0.5,0.4c-6.6,0-13.2,0-19.8,0c-1.1,0-2.2,0.4-3,1.1c-2.3,1.8-3.4,4.7-2.8,7.6c0,0.1,0.1,0.3,0.1,0.4
	c0.1,0.4,0.5,0.7,0.9,0.6c2.8,0,5.5,0,8.3,0c0.5,0,0.5-0.1,0.5-0.6c0-2.5,0-4.9,0-7.4c0-0.4,0.1-0.4,0.5-0.4c3.5,0,7,0,10.4,0
	c0.3,0,0.5,0.1,0.7,0.3c1.4,1.4,2.8,2.8,4.2,4.3c0.2,0.2,0.3,0.4,0.3,0.6c0,6.1,0,12.3,0,18.4c0,0.4-0.1,0.5-0.5,0.5H21.8
	c-1.6-0.1-3.1-0.5-4.5-1.1c-3.4-1.3-6.4-3.3-8.8-5.9c-2.5-2.4-4.6-5.3-6.2-8.4c-3.4-7.2-1.8-15.7,3.8-21.3c2.1-2.1,4.6-3.5,7.5-4.2
	c1.3-0.3,2.6-0.4,3.9-0.4L26.9,1.7z M26.5,37.6L26.5,37.6H37c0.3,0,0.5-0.1,0.5-0.4c0-5.7,0-11.3,0-17c0-0.3-0.1-0.5-0.4-0.5
	c-3,0-6.1,0-9.1,0c-0.4,0-0.5,0.1-0.5,0.5c0,2.4,0,4.8,0,7.2c0,0.7,0,0.7-0.6,0.7c-3,0-6,0-9.1,0c-1.2,0-2.3-0.4-3.1-1.3
	c-1.3-1.3-2.2-2.9-2.6-4.6c-0.4-1-0.5-2.1-0.4-3.2c0.4-2.3,1.6-4.4,3.4-5.9c1-0.8,2.2-1.2,3.4-1.2c6.2,0,12.3,0,18.5,0
	c0.4,0,0.5-0.1,0.5-0.5c0-2.9,0-5.8,0-8.7c0-0.4-0.1-0.5-0.5-0.5c-6.1,0-12.3,0-18.4,0c-0.8,0-1.7,0-2.5,0.1
	C11.7,2.6,7.6,4.8,4.9,8.4c-6.2,8.2-4.6,19.9,3.6,26.1c0.4,0.3,0.8,0.6,1.3,0.9c2.2,1.5,4.9,2.2,7.5,2.2
	C20.4,37.5,23.5,37.6,26.5,37.6z"/>
<path class="st1" d="M117.3,17.4c0,2.6,0,5.1,0,7.6c0,3.9,0,7.9,0,11.8c0,0.3-0.1,0.5-0.4,0.5c-3,0-6,0-9,0c-0.3,0-0.4-0.1-0.4-0.4
	c0-9.2,0-18.3,0-27.5c0-2.2,0.7-4.3,2.1-5.9c2.4-2.7,6.4-3,9.2-0.8c0.7,0.6,1.4,1.2,1.9,2c3.8,5.6,7.5,11.3,11.3,16.9l0.1,0.1
	c0.1-0.1,0.1-0.3,0.1-0.5c0-6.2,0-12.3,0-18.5c0-0.4,0.1-0.5,0.6-0.5c14.1,0,28.1,0,42.2,0c0.4,0,0.5,0.1,0.5,0.5c0,2.9,0,5.9,0,8.8
	c0,0.5-0.1,0.6-0.6,0.5c-3.3,0-6.5,0-9.8,0c-0.4,0-0.5,0.1-0.5,0.5c0,8.1,0,16.2,0,24.3c0,0.4-0.1,0.6-0.5,0.6c-3.3,0-6.5,0-9.8,0
	c-0.4,0-0.5-0.1-0.5-0.5c0-8.2,0-16.3,0-24.5c0-0.7,0-0.7-0.7-0.7c-3.5,0-7,0-10.5,0c-0.4,0-0.5,0.1-0.5,0.5c0,8.2,0,16.4,0,24.6
	c0,0.4-0.1,0.5-0.5,0.5c-3.5,0-7.1,0-10.6,0c-0.3,0-0.6-0.1-0.7-0.4c-4.1-6.3-8.3-12.6-12.4-18.9L117.3,17.4z"/>
<path class="st1" d="M82.6,13.9L79.7,21c-2.1,5.3-4.3,10.7-6.4,16c-0.1,0.3-0.3,0.4-0.6,0.4c-3.4,0-6.9,0-10.3,0
	c-0.4,0-0.5-0.1-0.3-0.4C66.6,26.7,71,16.4,75.7,6.2c0.5-1.3,1.3-2.5,2.3-3.4c3-2.5,7.4-2.1,9.9,0.9c0.3,0.4,0.5,0.7,0.7,1.2
	c4,8.4,7.9,16.9,11.8,25.3c1.1,2.3,2.1,4.5,3.1,6.8c0.2,0.5,0.2,0.5-0.3,0.5H81.1c-0.3,0-0.4-0.1-0.4-0.4c0-3,0-6,0-9
	c0-0.3,0.1-0.4,0.4-0.4h6.9c0.4,0,0.5,0,0.3-0.4c-1.9-4.4-3.8-8.7-5.6-13.1C82.7,14,82.7,13.9,82.6,13.9z"/>
<path class="st1" d="M45.8,19.9c0-5.8,0-11.6,0-17.3c0-0.4,0.1-0.5,0.5-0.5c3.3,0,6.7,0,10.1,0c0.4,0,0.5,0.1,0.5,0.5
	c0,11.6,0,23.1,0,34.7c0,0.4-0.1,0.5-0.5,0.5c-3.4,0-6.8,0-10.1,0c-0.4,0-0.5-0.1-0.5-0.5C45.8,31.5,45.8,25.7,45.8,19.9z"/>
<path class="st2" d="M109.5,41.1L109.5,41.1L109.5,41.1L109.5,41.1L109.5,41.1z"/>
<path class="st1" d="M26.5,37.6c-3.1,0-6.1,0-9.2,0c-2.7,0-5.3-0.7-7.5-2.2C1.1,29.9-1.5,18.4,4,9.7c0.3-0.4,0.6-0.8,0.9-1.3
	c2.7-3.6,6.8-5.9,11.3-6.1c0.8-0.1,1.7-0.1,2.5-0.1c6.1,0,12.3,0,18.4,0c0.4,0,0.5,0.1,0.5,0.5c0,2.9,0,5.8,0,8.7
	c0,0.4-0.1,0.5-0.5,0.5c-6.2,0-12.4,0-18.5,0c-1.3,0-2.5,0.4-3.4,1.2c-1.9,1.4-3.1,3.5-3.4,5.9c-0.1,1.1,0,2.1,0.4,3.2
	c0.5,1.7,1.4,3.3,2.6,4.6c0.8,0.8,1.9,1.3,3.1,1.3c3,0,6,0,9.1,0c0.6,0,0.6,0,0.6-0.7c0-2.4,0-4.8,0-7.2c0-0.4,0.1-0.5,0.5-0.5
	c3,0,6.1,0,9.1,0c0.4,0,0.4,0.1,0.4,0.5c0,5.7,0,11.3,0,17c0,0.4-0.1,0.4-0.5,0.4L26.5,37.6L26.5,37.6z"/>
<path d="M175.2,42.6c-1.6,0-2.9-1.3-2.9-2.9s1.3-2.9,2.9-2.9s2.9,1.3,2.9,2.9S176.8,42.6,175.2,42.6L175.2,42.6z M175.2,37.1
	c-1.4,0-2.6,1.2-2.6,2.6s1.2,2.6,2.6,2.6s2.6-1.2,2.6-2.6C177.7,38.3,176.6,37.1,175.2,37.1L175.2,37.1z"/>
<path d="M174,38.3c0.3,0,0.6-0.1,0.9-0.1c0.3,0,0.7,0,1,0.2c0.2,0.1,0.3,0.3,0.3,0.5c0,0.4-0.3,0.7-0.6,0.7l0,0
	c0.3,0.1,0.5,0.3,0.5,0.6c0.1,0.3,0.1,0.5,0.3,0.8h-0.5c-0.1-0.2-0.2-0.4-0.2-0.7c0-0.3-0.3-0.6-0.7-0.6h-0.4v1.2H174L174,38.3z
	 M174.5,39.6h0.4c0.5,0,0.8-0.2,0.8-0.5s-0.3-0.5-0.8-0.5c-0.1,0-0.3,0-0.4,0L174.5,39.6z"/>
</svg>
