<?xml version="1.0" encoding="utf-8"?>
<!-- Generator: Adobe Illustrator 21.1.0, SVG Export Plug-In . SVG Version: 6.00 Build 0)  -->
<svg version="1.1" id="Layer_1" xmlns="http://www.w3.org/2000/svg" xmlns:xlink="http://www.w3.org/1999/xlink" x="0px" y="0px"
	 viewBox="0 0 237.4 59.4" style="enable-background:new 0 0 237.4 59.4;" xml:space="preserve">
<style type="text/css">
	.st0{fill:#D21647;}
	.st1{fill:#282425;}
	.st2{fill:#D21848;}
	.st3{fill:#D21747;}
	.st4{fill:#D21646;}
	.st5{fill:#2A2627;}
	.st6{fill:#D21948;}
	.st7{fill:#FCC52C;}
	.st8{fill:#272324;}
	.st9{fill:#383637;}
	.st10{fill:#F7F5F5;}
	.st11{fill:#FBF9F9;}
</style>
<title>Fast Food</title>
<path class="st0" d="M99.3,20.3h3.7c1.3,0,1.4,0.1,1.4,1.3c0,0.3,0,0.6,0,0.9c0,1.3,0,1.4-1.3,1.7c-0.5,0.1-0.8,0.5-0.7,1
	c0,1.1-0.1,2.2,0,3.3c0.1,0.8-0.4,1.6-1.2,1.9c-3.2,1.6-6.8,1.9-10.2,1c-2.8-0.7-5.2-2.7-6.4-5.3c-2.5-5.3-0.6-12.8,4.1-16
	c3.4-2.3,7.1-2.4,10.8-1.2c0.9,0.2,1.6,1,1.8,1.9c0.2,0.9,0.6,1.8,0.8,2.7c0.2,0.7-0.1,1.2-0.9,1.3c-1.7,0.4-3.5-0.1-4.8-1.3
	c-1.3-1.3-3.3-1.3-4.5,0c0,0-0.1,0.1-0.1,0.1c-1.3,1.4-2.1,3.2-2.3,5.1c-0.4,2.2-0.1,4.5,0.8,6.5c1.5,2.8,4.3,2.9,6.5,2.3
	c0.1,0,0.3-0.1,0.3-0.2c0.2-0.9,0.2-1.8,0-2.7c-0.1-0.6-0.8-0.6-1.2-0.6c-0.4,0-0.8,0-1.1-0.1c-0.5-0.2-0.8-0.7-0.6-1.2
	c0.1-0.8-0.5-1.9,0.5-2.5c0.2-0.1,0.5-0.1,0.8-0.1L99.3,20.3z"/>
<path class="st1" d="M47.6,28.3c-3.9-0.2-7.9,0-11.8,0.6c-4.4,0.5-8.7,1.3-12.9,2.3c-2.2,0.6-4.3,1.4-6.4,2.3
	c-1.9,0.8-2.4,0.6-3.7-0.9c-0.5-0.6-1-1.2-1.5-1.7c-1.4-1.6-3.3-2.8-5.4-3.3c1.1-0.4,2.4-0.3,3.5,0.2c1.3,0.4,2.5,1.2,3.5,2.2
	c1.2,1.2,3,1.6,4.6,1c5.8-1.9,11.7-2.6,17.7-3.2c6.1-0.7,12.2-1,18.3-0.9c3.6,0,7.2,0.2,10.8,0.3c1.7,0.1,3.3-0.6,4.4-1.8
	c1.2-1.4,2.9-2.4,4.7-2.8c0.2,0,0.3-0.1,0.5-0.1c0.2,0,0.4,0,0.6,0.1c-0.8,0.5-1.6,1.1-2.3,1.7c-1.2,1.1-2.3,2.3-3.2,3.6
	c-0.7,1-1.9,1.6-3.1,1.3c-2.1-0.2-4.1-0.4-6.3-0.4c0.8,0.6,1.4,1.3,1.9,2.1c0.6,1,0.8,2.2,0.4,3.3c-0.6,1.8-2.5,2.8-4.3,2.3
	c-0.3-0.1-0.6-0.2-0.8-0.4c-0.4-0.3-0.8-0.5-1.3-0.6c-0.8-0.3-1.6,0.2-1.9,1c0,0,0,0,0,0c-0.2,0.9,0.3,1.7,1.2,2
	c0.4,0.1,0.9,0.2,1.3,0.1c0.9-0.1,1.8-0.3,2.7-0.7c0.1,0,0.4-0.1,0.4-0.2c0.3-1,1.1-0.6,1.7-0.6c4.9,0,9.9,0,14.8,0h1.1
	c-1,1.3-1.7,2.8-2.3,4.3c-0.2,0.4-0.4,0.4-0.8,0.4c-4.7,0-9.3,0-14,0c-0.4,0-0.6-0.1-0.6-0.6c0-1,0-2,0-3.1
	c-1.2,1.5-3.2,2.1-5.1,1.7c-1.9-0.5-3-2.4-2.5-4.2c0,0,0,0,0,0c0.5-1.6,2.3-2.5,3.9-2c0.1,0,0.1,0,0.2,0.1c0.5,0.2,1.1,0.5,1.6,0.7
	c0.5,0.4,1.2,0.4,1.8,0.1c0.6-0.4,0.5-1.1,0.5-1.7c-0.4-2-2-3.6-4-3.8c-2.8-0.6-5.8,0-8,1.9c-0.6,0.6-1.5,0.7-2.1,0.3
	c-2.2-1.1-4.6-1.4-7-0.8L38,30.1c-0.1,0-0.1,0-0.2,0c0.3-0.4,0.7-0.7,1.2-0.8c1.8-0.7,3.8-0.8,5.7-0.2c0.8,0.4,1.7,0.3,2.4-0.3
	C47.1,28.6,47.4,28.5,47.6,28.3z"/>
<path class="st0" d="M92.2,34.4c1.7,0,3.7-0.1,5.7,0.1c5,0.5,6.6,3.2,6,7.8c-0.4,2.9-2.3,4.5-5.6,4.9c-1.6,0.2-3.3,0.2-4.9,0.1
	c-0.6,0-0.8,0.2-0.8,0.7c0,1.4,0,2.8,0,4.1c0,0.8,0.3,1.1,1.1,1.2c2.2,0.2,2.2,0.3,2.2,2.5c0,1.3-0.1,1.4-1.4,1.4h-8.4
	c-1.2,0-1.4-0.2-1.4-1.4c0-0.1,0-0.3,0-0.4c0-1.9,0-1.9,1.8-2.1c0.5,0,0.9-0.4,0.9-0.9c0,0,0,0,0-0.1c0-4.3,0-8.6,0-12.9
	c0-0.8-0.4-1-1.1-1.1c-1.7-0.2-1.7-0.2-1.7-1.9c0-2,0-2,2.1-2L92.2,34.4z M92.7,40.7c0,0.8,0,1.4,0,2c0,0.4,0.1,0.6,0.5,0.6
	c1.1,0.1,2.3,0,3.4-0.1c1.1,0,2-1,2-2.1c0,0,0,0,0-0.1c0.2-1.2-0.6-2.2-1.8-2.4c0,0-0.1,0-0.1,0c-0.5-0.1-1-0.1-1.6-0.1
	c-0.8,0-1.7-0.3-2.2,0.1S92.8,40,92.7,40.7L92.7,40.7z"/>
<path class="st2" d="M181.5,17.3c1.1-0.8,2.4-1.3,3.7-1.5c3.1-0.3,5.1,1.4,5.1,4.5c0,2.1,0,4.3,0,6.4c0,1.2,0.1,1.3,1.2,1.4
	c0.6,0.1,0.8,0.3,0.9,0.9c0,2.9,0.3,2.6-2.3,2.6c-1.6,0-3.2,0-4.8,0c-0.8,0-1.1-0.3-1.1-1.1c0-0.4,0-0.9,0-1.3c0-0.6,0.1-1,0.8-1
	s0.7-0.4,0.7-0.9c0-1.8,0-3.6,0-5.3c0-0.8-0.6-1.5-1.4-1.5c-0.9,0-1.8,0.2-2.5,0.7c-0.3,0.2-0.3,0.4-0.3,0.7c0,1.8,0,3.6,0,5.3
	c0,0.7,0.3,0.9,0.9,1c1.5,0.4,0.6,1.7,0.8,2.6c0.1,0.7-0.4,0.9-1,0.9c-2.1,0-4.1,0-6.2,0c-0.8,0-1.1-0.3-1-1.1c0-0.3,0-0.5,0-0.8
	c-0.1-0.9-0.1-1.7,1.2-1.7c0.4,0,0.6-0.3,0.6-0.8c0-4.1,0-8.1,0-12.2c0-0.6-0.4-0.8-0.9-0.8c-0.9,0-1.2-0.4-1.2-1.3
	c0-1.9,0-1.9,1.8-2.7c1.5-0.7,2.9-1.3,4.4-2c0.4-0.2,0.8-0.3,1.2-0.4c0.6-0.1,1,0.1,0.9,0.8c0,0.5,0,1.1,0,1.6
	c0.1,0.6-0.2,1.2-0.7,1.5c-0.5,0.4-0.8,1.1-0.8,1.8C181.6,14.7,181.5,15.9,181.5,17.3z"/>
<path class="st3" d="M122.8,20.8c1.7-3.9,4.5-5.4,9.1-4.9c0.3,0,0.8,0.5,0.9-0.3c0-0.6,0.1-1.2-0.7-1.3c-0.6-0.1-1.3,0-1.4-0.9
	c-0.1-2-0.2-2.3,0.9-2.8l4-1.9c0.7-0.3,1.4-0.6,2.1-0.8c0.4-0.1,1.1-0.2,1.2,0.3c0,1.2,0.6,2.6-0.7,3.6c-0.4,0.2-0.6,0.6-0.6,1
	c0,2.7,0,5.5,0,8.2c0,1.9,0,3.9,0,5.8c-0.2,0.7,0.1,1.2,0.8,1.2s1.1,0.5,1.1,1.2c0,0.4,0,0.8,0,1.2c0,0.7-0.3,1-1,1
	c-1.3,0-2.7,0-4,0s-1.4,0-1.7-1.4c-0.7,0.8-1.7,1.4-2.7,1.7l-0.5,0.1l-2.1-0.1c-1.8-0.4-3.3-1.7-4.2-3.3c0-0.2-0.1-0.4-0.2-0.5l0,0
	C122.2,25.7,122.2,23.2,122.8,20.8z M132.8,24L132.8,24c0-0.6,0-1.2,0-1.8c0-0.7-0.4-1.4-1-1.8c-1.4-1-3.3-0.7-4.3,0.7
	c-0.3,0.4-0.4,0.8-0.5,1.2c-0.1,0.6-0.1,1.3,0,1.9c0.1,1.8,1.6,3.2,3.4,3.1c0.4,0,0.9-0.1,1.3-0.3c0.8-0.3,1.3-0.7,1.2-1.7
	C132.8,24.8,132.8,24.4,132.8,24L132.8,24z"/>
<path class="st4" d="M110.7,31.7c-4.8-1.7-6.8-6-5.2-10.9c0.6-2.2,2.3-3.9,4.5-4.5c3.6-1,7-0.9,9.8,2c0.6,0.7,1.2,1.6,1.5,2.5
	c0.8,2.6,0.5,5.4-0.8,7.7c-0.1,0-0.1,0.1-0.1,0.1c-0.7,0.9-1.5,1.6-2.5,2.3l0,0c-0.1,0-0.3,0.1-0.4,0.2l0,0c-0.2,0-0.4,0.1-0.5,0.2
	c-0.2,0-0.4,0.1-0.5,0.3l-0.2,0.1c-0.1,0-0.1,0-0.2,0c-0.4-0.1-0.7,0-1.1,0.2h-0.3h-2.6h-0.5C111.4,31.8,111.1,31.7,110.7,31.7z
	 M110.2,23.1c0,1.5,0.6,3,1.6,4.1c0.7,0.9,2,1.3,3.1,0.9c1-0.3,1.7-1.2,1.7-2.3c0.2-1.6-0.2-3.3-1.1-4.7c-0.7-1.3-2.2-1.9-3.6-1.4
	C110.7,20,110.2,21,110.2,23.1L110.2,23.1z"/>
<path class="st2" d="M149.8,29.1v2.1c-0.3,0.5-0.9,0.3-1.3,0.5h-0.3c-2.4-0.2-4.8-0.1-7.2,0l-0.4-0.1c-0.5-1.1-0.4-2.3,0.2-3.3l0,0
	c1.5,0,1.7-0.2,1.6-1.2c0-1.4,0-2.8,0-4.2c0-0.4-0.1-0.6-0.6-0.5c-1.5,0.3-1.6,0.3-1.5-1.2c0-0.2,0-0.4,0-0.5
	c-0.3-0.9,0.2-1.8,1.1-2.1c0.1,0,0.3-0.1,0.4-0.1c0.5-0.1,0.7-0.4,0.7-1c-0.1-1.4,0-2.7,0.1-4.1c0.3-3.2,1.8-4.8,5-5.2
	c1.4-0.2,2.9-0.1,4.3,0.3c1.1,0.3,1.9,1.3,2.1,2.4c0.1,0.8,0.1,1.7,0.1,2.5c0,0.5-0.4,0.9-0.9,1c-1.4,0.5-2.9-0.1-3.7-1.3
	c-0.4-0.6-0.8-1.5-1.7-1.1s-0.6,1.2-0.6,1.9c0,0.9,0,1.8,0,2.8c1-0.1,1.9-0.7,2.9-0.6l0.3,0.6c0,0,0,0.1,0,0.1c0,0,0,0,0,0
	c-0.1,0.1-0.1,0.2,0,0.3c0,0,0,0,0,0c-0.1,0.6-0.1,1.1,0,1.7c0,0,0,0.1,0,0.1c0,0,0,0,0,0c-0.1,0.6-0.5,1-1.1,1.1
	c-0.5,0.1-1,0.4-1.5,0.5s-0.7,0.5-0.6,1c0,1.9,0,3.7,0,5.6c-0.2,0.8,0.2,1.1,0.9,1.2c0.4,0,0.8,0,1.2,0.1h0.1h0.1
	C149.6,28.5,149.8,28.7,149.8,29.1z"/>
<path class="st0" d="M145.9,45.2c0-0.4,0-0.8,0-1.1c0-1.3,0.1-1.5,1.4-1.9c2.1-0.7,4.4-0.9,6.6-0.6c2.9,0.4,4.2,2,4.2,4.9
	c0,2,0,4.1,0,6.1c0,0.8,0.2,1.2,1.1,1.2c0.6,0,0.8,0.3,0.8,0.8c0.1,2-0.2,2.4-2.2,2.8c-1.3,0.3-2.6,0.3-3.6-0.8
	c-0.2-0.3-0.4-0.2-0.7,0c-2.3,1.5-5.4,1.4-7.6-0.3l-0.4-0.4l-0.1-0.1l0,0l-0.3-0.5l-0.1-0.2l-0.3-0.9c-0.5-2.3,0.7-4.6,2.9-5.4
	c1.6-0.8,3.3-1.2,5.1-1.3c0.2,0,0.5,0.1,0.7-0.2c0.3-0.7,0-1.6-0.7-1.9c-0.2-0.1-0.3-0.1-0.5-0.1c-0.8-0.1-1.6,0.2-2.2,0.8
	c-0.7,0.6-1.6,0.9-2.5,0.9C146,46.7,146,46.8,145.9,45.2z M153.5,51.5c0-0.3,0-0.6,0-1s0-0.4-0.3-0.4c-1.1,0-2.1,0.4-2.9,1.2
	c-0.4,0.5-0.5,1.2-0.3,1.7c0.3,0.6,0.8,0.7,1.4,0.7C152.9,53.8,153.5,53.2,153.5,51.5L153.5,51.5z"/>
<path class="st5" d="M56.3,44.5c0,1.5,0,3,0,4.4c0,2.4,0.9,3.3,3.3,3.4l5.6,0.1h5.6c-0.2,0.5-0.6,1-1,1.4c-2.7,2.6-6.3,4-10,4
	c-0.5,0-0.7-0.1-0.6-0.6c0-0.8,0-1.6,0-2.4c0-0.5-0.1-0.7-0.7-0.7c-1.8,0-3.3-1.2-3.7-3c0-0.2,0-0.5-0.3-0.5s-0.3,0.2-0.4,0.4
	c-0.9,1.5-2,2.8-3.3,4c-1.7,1.6-1.6,1.3-2.4-0.4c-2.6-5.7-6.1-11.1-10.2-15.9c-0.3-0.4-0.6-0.7-1-1c-1.8-1.4-3.3-1.4-5,0
	c-0.5,0.4-1,0.9-1.5,1.3c-0.7,0.6-1.7,0.9-2.6,0.9c-1.5,0-2-0.4-2.5-2.3c-0.5,0.8-1.4,1.4-2.3,1.6c-1.7,0.5-3.5-0.5-3.9-2.2
	c-0.1-0.5-0.1-1.1,0-1.7c0.4-1.6,1.5-2.8,3-3.3c0.3-0.1,0.7-0.2,0.9,0.1s-0.1,0.5-0.3,0.7c-0.2,0.2-0.7,0.6-1,1
	c-0.5,0.5-0.8,1.1-0.9,1.8c-0.1,0.7,0.3,1.3,0.9,1.6c0.5,0.3,1.2,0.2,1.6-0.2c0.7-0.6,1.3-1.3,1.9-1.9c0.6-0.7,1.3-1.2,2.2-1.5
	c0.4-0.1,0.8-0.2,1.1,0.1s-0.1,0.6-0.3,0.9c-0.3,0.4-0.7,0.8-1,1.3c-0.4,0.6-0.4,1.4,0.1,1.9c0.5,0.6,1.1,0.3,1.6,0.1
	c1-0.5,1.9-1.1,2.8-1.8c2.2-1.8,5.5-1.5,7.4,0.6c1.2,1.2,2.2,2.5,3.2,3.9c2.9,3.7,5.4,7.7,7.4,11.9c0.3,0.7,0.5,0.7,1,0.1
	c2-2.3,3.7-4.7,5.1-7.4c0.1-0.2,0.2-0.4,0.4-0.7L56.3,44.5z M63.7,54.9c0-0.8-0.6-1.5-1.4-1.5c-0.8,0-1.5,0.6-1.5,1.4
	c-0.1,0.7,0.5,1.4,1.2,1.5c0.1,0,0.1,0,0.2,0C63,56.3,63.7,55.7,63.7,54.9C63.7,54.9,63.7,54.9,63.7,54.9z"/>
<path class="st3" d="M200.8,32c-3.2-0.1-5.4-0.8-6.9-2.8c-2-2.6-2.4-6.2-0.9-9.2c1.3-3,4-4.1,7.1-4.2c2.1-0.2,4.1,0.5,5.6,2
	c0.6,0.6,1,1.4,1.3,2.2c0.4,1.3-0.2,2.7-1.5,3.3c-2.1,1-4.3,2-6.4,3c-0.8,0.3-0.8,0.5-0.1,1c1,0.7,2.3,0.9,3.4,0.5
	c0.9-0.2,1.7-0.5,2.4-1c0.5-0.4,1.2-0.2,1.6,0.3c0,0,0.1,0.1,0.1,0.1c1.1,1.5,1,2.3-0.5,3.3C204.3,31.4,202.6,31.9,200.8,32z
	 M196.6,22.7c0.1,0.2-0.2,0.7,0.3,0.5c1.4-0.4,2.8-1.1,4-2c0.5-0.4,0.3-0.9-0.1-1.3c-0.3-0.3-0.8-0.4-1.2-0.4
	C197.9,19.7,196.7,21.1,196.6,22.7z"/>
<path class="st4" d="M157.5,31.9h-0.2c-1.8,0.3-3.6-0.1-5.1-1.1l0,0c-1.2-1.1-1.7-2.7-1.4-4.2l0.1-0.3c0.1-0.1,0.2-0.2,0-0.3
	c0.6-1.3,1.7-2.4,3.1-3c1.4-0.7,3-1,4.6-1.1c1.1-0.1,1.2-0.2,1-1.3c-0.1-0.5-0.5-0.9-1-0.9c-0.8-0.2-1.7,0.1-2.4,0.7
	c-0.7,0.6-1.6,1-2.6,0.8c-0.5,0-0.9,0-1.4,0c-0.2-0.5-0.3-1.1-0.2-1.6c0-2.4,0-2.4,2.2-3.2l0.5-0.1l0.2-0.1c0,0,0.1,0,0.1,0
	c0.3,0,0.6,0,0.9-0.2c1.5-0.2,2.9-0.2,4.4,0c0.2,0.1,0.5,0.2,0.7,0.2l0,0l0.2,0.1l0.4,0.1c1.5,0.6,2.5,2,2.7,3.7v7
	c-0.2,0.8,0.2,1.2,1,1.2c0.2,0,0.5,0.1,0.6,0.2c0.2,0.9,0.1,1.8-0.3,2.7c-1.4,0.8-3,1.4-4.3,0.6c-0.9-0.7-2.2-0.7-3.1,0
	c-0.1,0.1-0.2,0.1-0.3,0.1h-0.1v0.1C157.7,31.7,157.6,31.8,157.5,31.9z M159.6,26c0-0.3,0-0.6,0-1s0-0.4-0.3-0.5
	c-1.3-0.1-2.6,0.6-3.3,1.8c-0.3,0.6-0.1,1.4,0.6,1.8c0.2,0.1,0.4,0.1,0.6,0.1C158.8,28.3,159.6,27.5,159.6,26L159.6,26z"/>
<path class="st6" d="M130.1,46.2c0-1.2,0-2.3,0-3.5c0-0.7,0.3-1,1-1c3.6,0,7.2,0,10.8,0c0.7,0,1,0.3,1,1c0,0,0,0.1,0,0.1
	c0.3,1.9-0.4,3.8-1.9,4.9c-1.9,1.7-3.6,3.7-5.4,5.6c1.1,0.3,2.3,0.1,3.3-0.6c0.6-0.5,1.3-0.9,2.1-0.9c0.7,0.2,1.5-0.2,2.1,0.4v4.2
	l-0.1,0.5l0,0l-0.5,0.3h-12.1c-0.4-0.1-0.8-0.2-0.8-0.8c0-1.6-0.4-3.2,1-4.4l0,0l0,0c0.8-0.7,1.5-1.5,2.2-2.4v-0.1
	c0.1,0,0.1-0.1,0.1-0.1h0.1c0.1,0,0.2-0.1,0.2-0.3l0,0c0.4-0.3,0.8-0.7,1.1-1.2l0,0l0,0c0.2-0.1,0.4-0.2,0.4-0.4
	c0,0,0.1-0.1,0.1-0.1c0.7-0.6,1.3-1.3,1.8-2c-1-0.2-2,0-2.7,0.7l-0.3,0.2l-0.9,0.4h-1.4C130.9,46.7,130.4,46.8,130.1,46.2z"/>
<path class="st6" d="M114.7,53.4l0.1-0.3l3.8-4.2c0.3-0.2,0.5-0.4,0.6-0.7c0.9-0.8,1.7-1.6,2.4-2.5c-1.6-0.5-2.5,0.4-3.6,1.1
	c-0.1,0-0.1,0-0.2,0h-0.7c-2.1-0.1-2.1-0.1-2.1-2.2c0-0.6,0-1.3,0-1.9s0.2-0.9,0.8-0.9h11.1c0.4,0,0.8,0.2,0.8,0.6
	c0,0.1,0,0.1,0,0.2c0,0.8,0,1.7,0,2.5c0,0.4-0.2,0.9-0.5,1.2c-2,2.1-4,4.2-6,6.3c-0.3,0.2-0.5,0.5-0.6,0.8c1.1,0.3,2.4,0,3.3-0.7
	c0.9-0.7,2-1,3.1-0.8c0.7,0,1.1,0.3,1,1.1c0,1.1,0,2.3,0,3.4c0,0.3-0.2,0.6-0.4,0.8l-9.1,0.1c-0.9,0-1.9,0-2.8,0s-1.2-0.2-1.2-1.2
	c0-0.8,0-1.6,0-2.4L114.7,53.4z"/>
<path class="st3" d="M236.7,28.7c-0.6,1.5-1.9,2.6-3.5,2.9c-2.5,0.6-5.2,0.5-7.6-0.4c-1.4-0.5-1.6-0.9-1.6-2.3c0-0.6,0-1.3,0-1.9
	c0.2-0.5,0.8-0.6,1.2-0.7h0.7c1,0.1,2,0.5,2.7,1.3c0.7,0.7,1.6,1.1,2.6,0.9c0.4,0,0.8-0.3,0.9-0.7c0.1-0.4,0-0.8-0.3-1
	c-0.4-0.3-0.9-0.5-1.3-0.6c-1.7-0.4-3.3-1.1-4.8-2l0,0l-0.9-1.1l-0.2-0.2l0,0c-0.5-2.1-0.3-4,1.4-5.4c2.8-1.7,6.2-1.9,9.2-0.6
	c0.7,0.3,1.1,1,1,1.8c0,0.6,0,1.2,0,1.8c0.1,0.8-0.3,1.1-1.1,1.1c-0.3,0-0.7,0-1,0c-0.8,0-1.5-0.3-2-0.9c-0.3-0.3-0.6-0.6-0.9-0.8
	c-0.4-0.4-1.1-0.5-1.6-0.3c-0.3,0.1-0.5,0.5-0.5,0.8c0.1,0.7,0.6,0.9,1.1,1.1c1,0.4,2.1,0.7,3.1,1.1c3,1.1,3.9,2.5,3.6,5.6v0.3
	L236.7,28.7z"/>
<path class="st3" d="M214.5,18c0.8-0.5,1.4-1,2-1.4c0.4-0.2,0.9-0.4,1.3-0.4c2.1-0.3,2.6,0.2,2.6,2.2c0,0.8,0,1.6,0,2.4
	c0.1,0.6-0.4,1.1-0.9,1.2c-0.1,0-0.1,0-0.2,0c-0.9,0.1-1.8-0.1-2.6-0.4c-0.4-0.2-0.9-0.3-1.4-0.2c-0.5,0.1-0.8,0.5-0.8,1
	c0,1.6,0,3.2,0,4.8c0,0.9,0.6,0.9,1.2,1c1.4,0.2,1.4,0.2,1.4,1.6c0,1.8,0,1.8-1.9,1.8h-6c-1.1,0-1.2-0.1-1.2-1.3c0-0.3,0-0.6,0-1
	c0-0.7,0.2-1.3,1-1.3c0.4,0,0.8-0.3,0.8-0.7c0,0,0-0.1,0-0.1c0-1.5,0-3.1,0-4.6c0-0.6-0.4-0.8-0.9-0.8c-0.8,0-1-0.4-1.1-1.1
	c-0.3-1.3,0.4-2.5,1.7-2.9c1.2-0.4,2.2-1.2,3.4-1.7s1.6-0.4,1.6,1C214.5,17.4,214.5,17.6,214.5,18z"/>
<path class="st7" d="M32.2,18.2c0.8-0.7,1.7-1,2.4-1.6c0.4-0.3,1-0.7,0.8-1.3s-0.8-0.8-1.4-0.8c-1.7-0.1-3.3,0.3-5,0.3
	c-2.2,0.2-4.4,0-6.5-0.4c-0.6-0.2-1.2-0.4-1.7-0.7c-1.3-0.7-1.7-2.3-1-3.6c0-0.1,0.1-0.2,0.2-0.2c1-1.4,2.5-2.3,4.1-2.8
	c3-1,6-1.7,9.1-2c3.8-0.5,7.6-0.3,11.4-0.8c2.4-0.4,4.7-1.1,6.8-2.1c3.3-1.6,7.2-2,10.8-1.1c0.3,0.1,0.6,0,0.8,0.4
	c-1.3-0.2-2.6-0.3-3.8-0.1c-1.6,0.3-3.2,0.9-4.6,1.8c-2.3,1.4-5,2.2-7.8,2.1c-2.9,0-5.8-0.1-8.7,0c-3.9,0.1-7.7,0.7-11.3,2
	c-0.9,0.3-1.8,0.8-2.5,1.4c-0.7,0.5-0.9,1.4-0.4,2.1c0.2,0.3,0.4,0.5,0.7,0.6c1.1,0.5,2.3,0.8,3.4,0.8c2.1,0,4.1-0.1,6.2-0.4
	c1.1-0.1,2.3-0.1,3.4,0.1c0.8,0.2,1.7,0.4,1.9,1.3c0.2,0.9-0.2,1.7-1,2.2c-1.8,1.2-3.7,2.2-5.8,2.8C32.4,18.2,32.3,18.2,32.2,18.2z"
	/>
<path class="st2" d="M166.8,17.1c0-1,0-2.1,0-3.2c0-0.4,0.2-0.8,0.7-1c0.9-0.4,1.9-0.8,2.8-1.1s1.2-0.1,1.2,0.9s0,2,0,3
	c0,0.4,0,0.6,0.6,0.5c1.8-0.6,1.8-0.5,1.8,1.4c0,0.3,0,0.5,0,0.8c0.1,0.7-0.3,1.4-1,1.6c-1.7,0.6-1.4,0.2-1.4,2c0,1.6,0,3.1,0,4.6
	c0,1.1,0.3,1.4,1.4,1.3c0.9-0.1,1.1,0.4,1.4,1s0.4,1.4-0.3,2.1c-1.9,1.3-4.3,1.3-6.2,0c-0.6-1-0.9-2.1-0.9-3.3c0-1.6,0-3.3,0-4.9
	c0.1-0.6,0-0.9-0.7-0.7c-0.3,0.1-0.5,0-0.8-0.1l-0.1-2.8c0-0.7,0.4-0.9,1-1.1S167,17.7,166.8,17.1z"/>
<path class="st6" d="M109.2,57.2h-2.9c-1.2,0-1.3-0.1-1.3-1.2c0-0.3,0-0.6,0-0.9c-0.1-0.8,0.1-1.4,1.1-1.4c0.5,0,0.7-0.4,0.7-0.8
	c0-1.4,0-2.8,0-4.2c0-0.6-0.4-0.9-1-0.9c-0.7,0-1-0.4-1-1.1c0-0.4,0-0.9,0-1.3c0-0.5,0.3-1.1,0.8-1.3c1.9-0.9,3.9-1.8,5.8-2.6
	c1-0.4,1.3-0.1,1.3,0.9c0,1.2,0.1,2.4-1,3.3c-0.3,0.2-0.3,0.7-0.3,1.1c0,1.9,0,3.8,0,5.7c0,0.7,0.2,1.2,1,1.2c0.6,0,0.8,0.3,0.8,0.9
	c-0.1,2.9,0.4,2.5-2.4,2.6L109.2,57.2z"/>
<path class="st5" d="M30.9,19.1c-1.7,0.8-3.3,1.7-4.8,2.7c-1.2,0.9-2.8,1.2-4.3,0.8c-1.4-0.4-2.9-0.1-4.1,0.7
	c-2.6,1.7-5.7,2.4-8.8,2c-1.5-0.3-3.1-0.1-4.6,0.4c-0.6,0.2-1.1,0.6-1.5,1c-0.4,0.4-0.5,0.9-0.4,1.4C2.7,28.7,3.2,29,3.7,29
	c0.7,0,1.3-0.1,2-0.3c-0.9,1-3.6,1.3-4.6,0.5c-0.5-0.4-0.7-1-0.6-1.7c0.2-1.5,1.1-2.8,2.5-3.5c1.9-1.2,4.2-1.6,6.4-1
	c1.9,0.6,3.9,0.2,5.5-0.9c1-0.7,2.1-1.3,3.2-1.8c1.1-0.5,2.3-0.6,3.4-0.2c1.9,0.8,4,0.6,5.7-0.4C28.3,19.2,29.6,18.9,30.9,19.1z"/>
<path class="st5" d="M74.3,23.5c0.9,0,1.6,0,2.2,0s1.3-0.3,1.5-1.1s-0.3-1.3-1-1.7c-1.4-0.7-3.1-0.8-4.6-0.3
	c-1.2,0.3-2.3,0.7-3.5,1.1c-0.7,0.3-1.4,0.2-2-0.2c-4-2.8-9.1-3.4-13.7-1.6c-1.9,0.7-3.9,1.1-5.9,1.1c0-0.3,0.3-0.2,0.5-0.3
	c1.9-0.3,3.8-1.1,5.4-2.2c2.6-1.7,5.7-2.3,8.7-1.7c1.7,0.4,3.4,1.1,4.8,2.2c0.8,0.7,2.1,0.8,3,0.2c1.8-1.1,4-1.4,6.1-0.9
	c1.7,0.4,3.2,1.2,3.8,3c0.4,1,0,2.2-1.1,2.6C78.3,23.9,78,24,77.7,24C76.6,24.1,75.4,23.9,74.3,23.5z"/>
<path class="st7" d="M55.9,5.3c-0.8,1.1-2,1.9-3.4,2.3c-2.2,0.5-4.5,0.5-6.7-0.1c-1.7-0.4-3.5-0.5-5.3-0.4c-0.5,0-1,0.1-1.4,0.4
	c-0.3,0.2-0.7,0.3-0.6,0.8c0,0.4,0.4,0.6,0.7,0.7c0.5,0.1,1,0.2,1.5,0.2c1.5,0,3.1,0.1,4.6,0.3c0.2,0,0.3,0.1,0.5,0.1
	c1.8,0.6,2.1,1.8,0.7,3.1c-1.8,1.5-3.8,2.7-6,3.4c-0.2,0.1-0.4,0.1-0.5-0.1c0.9-0.6,1.8-1.2,2.7-1.9c0.3-0.3,0.6-0.6,0.9-0.9
	c0.9-1.2,0.5-2.3-0.9-2.6c-1.2-0.3-2.4-0.4-3.6-0.3c-1.3,0.1-2.6,0.1-3.9,0c-0.5-0.1-1-0.2-1.5-0.3c-0.5-0.2-0.8-0.4-0.9-1
	c-0.1-0.5,0.2-1,0.6-1.3c1.1-0.7,2.4-1.2,3.7-1.3c3.1-0.3,6.3-0.3,9.4,0.2c3.1,0.4,6.2,0.4,9.1-1.2C55.7,5.2,55.7,5.3,55.9,5.3z"/>
<path class="st8" d="M66.7,42.4c2.3,0,4.6,0,6.8,0c0.5,0,0.7,0,0.5,0.6c-0.3,0.9-0.5,1.9-0.7,2.8c-0.1,0.5-0.3,0.6-0.8,0.6
	c-4.2,0-8.4,0-12.6,0c-0.6,0-0.8-0.1-0.7-0.7c0.1-0.9,0.1-1.7,0-2.6c0-0.6,0.2-0.7,0.7-0.7C62.2,42.4,64.5,42.4,66.7,42.4z"/>
<path class="st1" d="M66.1,47.3c2.1,0,4.2,0,6.3,0c0.5,0,0.7,0.1,0.5,0.6c-0.3,0.9-0.7,1.8-1,2.7c-0.1,0.4-0.5,0.7-1,0.6
	c-3.6,0-7.3,0-10.9,0c-0.6,0-0.8-0.1-0.8-0.8c0.1-0.8,0.1-1.7,0-2.5c0-0.6,0.1-0.8,0.7-0.7C62,47.4,64.1,47.3,66.1,47.3z"/>
<path class="st5" d="M50.5,19.1c-1.5,0.7-3.2,1.1-4.8,1c-2.2-0.1-4.5-0.3-6.7-0.6c-2.3-0.4-4.6-0.2-6.7,0.8
	c-0.3,0.2-0.6,0.4-0.9,0.6c-0.4,0.3-0.9,0.7-0.6,1.2s0.8,0.3,1.3,0.3c-0.5,0.8-1.5,1.1-2.4,0.8c-0.9-0.5-1.9-0.8-2.9-0.6
	C33.9,16.4,41.8,16.3,50.5,19.1z"/>
<path class="st6" d="M225.3,11.5c-0.1,1.8-0.7,3.5-1.7,5c-0.4,0.6-1.2,0.9-1.8,0.5c-0.1,0-0.1-0.1-0.2-0.2c-0.4-0.2-0.6-0.7-0.4-1.2
	c0,0,0,0,0,0c0.1-0.2,0.1-0.3,0.2-0.5c0.6-0.8,0.4-1.9-0.4-2.5c0,0,0,0,0,0c-0.9-0.9-1-2.3-0.2-3.4c0.7-0.9,2-1.2,3.1-0.7
	C225,9.2,225.3,10.3,225.3,11.5z"/>
<path class="st6" d="M106,39.1c0.1-3.3-0.5-2.4,2.5-3.8c0.7-0.3,1.3-0.6,2-0.9s1-0.1,1,0.7c0,1.3,0,2.6,0,3.9c0.1,0.4-0.2,0.9-0.6,1
	c-1.3,0.6-2.6,1.1-3.9,1.7c-0.7,0.3-1,0.1-1-0.7C106,40.4,106,39.7,106,39.1z"/>
<path class="st9" d="M73.1,51.9c0-1.5,1.2-2.6,2.7-2.6c1.5,0,2.6,1.2,2.6,2.7c0,1.4-1.2,2.6-2.6,2.6C74.3,54.6,73.1,53.4,73.1,51.9
	C73.1,51.9,73.1,51.9,73.1,51.9z M77.9,52c0.1-1.2-0.8-2.2-1.9-2.2c0,0-0.1,0-0.1,0c-1.2-0.1-2.2,0.8-2.3,2c0,0,0,0.1,0,0.1
	c0,1.2,1,2.3,2.2,2.3c0,0,0,0,0,0C76.9,54.1,77.9,53.1,77.9,52z"/>
<path class="st10" d="M142.6,57.3l0.5-0.3c0.1,0.1,0.1,0.3,0.3,0.4c0,0,0.1-0.1,0.1-0.1c0-0.2-0.2-0.2-0.4-0.3l0.1-0.5
	c0.4,0,0.9-0.1,0.9,0.6c0,0.5-0.2,0.7-0.6,0.8S142.6,57.9,142.6,57.3z"/>
<path class="st10" d="M144,55.4c0.4,0.2,0.6,0.4,0.6,0.8c0,0-0.1,0.1-0.2,0.1C144.2,56.2,144,55.8,144,55.4z"/>
<path class="st10" d="M145.6,55.9l0.4,0.4C145.8,56.3,145.6,56.1,145.6,55.9C145.6,55.9,145.6,55.9,145.6,55.9z"/>
<path class="st10" d="M145.4,55.7L145.4,55.7l-0.1,0.2l0,0L145.4,55.7z"/>
<polygon class="st10" points="144.2,54.1 144.1,54.2 144.1,54.2 "/>
<path class="st10" d="M145.1,55l0.1,0.2L145.1,55z"/>
<path class="st11" d="M92.7,40.7c0.1-0.6-0.3-1.6,0.2-2.1s1.4-0.1,2.2-0.1c0.5,0,1.1,0,1.6,0.1c1.2,0.1,2,1.1,1.9,2.3
	c0,0,0,0.1,0,0.1c0.1,1.1-0.8,2.1-1.9,2.2c0,0,0,0-0.1,0c-1.1,0.1-2.3,0.2-3.4,0.1c-0.5,0-0.5-0.2-0.5-0.6
	C92.7,42,92.7,41.4,92.7,40.7z"/>
<path class="st11" d="M132.8,24c0,0.4,0,0.9,0,1.3c0.1,1-0.4,1.4-1.2,1.7c-1.6,0.8-3.6,0.1-4.4-1.5c-0.2-0.4-0.3-0.8-0.3-1.3
	c-0.1-0.6-0.1-1.3,0-1.9c0.3-1.7,2-2.8,3.6-2.5c0.4,0.1,0.9,0.3,1.2,0.5c0.6,0.4,1,1.1,1,1.8C132.8,22.8,132.8,23.4,132.8,24
	L132.8,24z"/>
<path class="st11" d="M110.2,23c0-2,0.5-3,1.7-3.3c1.4-0.4,2.9,0.2,3.6,1.4c0.9,1.4,1.3,3,1.1,4.7c0,1.1-0.7,2-1.7,2.3
	c-1.1,0.4-2.3,0-3.1-0.9C110.7,26,110.2,24.6,110.2,23z"/>
<path class="st10" d="M63.7,54.9c0,0.8-0.6,1.4-1.4,1.4c0,0-0.1,0-0.1,0c-0.7,0-1.4-0.5-1.4-1.3c0-0.1,0-0.1,0-0.2
	c0-0.8,0.7-1.4,1.5-1.4C63.1,53.4,63.7,54.1,63.7,54.9L63.7,54.9z"/>
<path class="st10" d="M159.6,26c0,1.6-0.8,2.3-2.3,2.2c-0.7,0-1.3-0.5-1.4-1.3c0-0.2,0-0.4,0.1-0.6c0.7-1.1,1.9-1.8,3.3-1.8
	c0.3,0.1,0.3,0.3,0.3,0.5S159.6,25.6,159.6,26z"/>
<path class="st9" d="M77,53.2c-0.6,0.2-0.7-0.3-0.9-0.6s-0.4-0.6-0.7-0.5s-0.2,0.5-0.2,0.7s0.1,0.4-0.2,0.4s-0.3-0.3-0.3-0.4
	c0-0.4,0-0.8,0-1.2c0-1.1,0.7-1.6,1.7-1.1c0.3,0.1,0.5,0.5,0.4,0.9C76.7,52.5,76.7,52.4,77,53.2z M75.7,51.7c0.3,0,0.7,0,0.7-0.4
	s-0.4-0.4-0.7-0.4s-0.4,0.1-0.4,0.4S75.5,51.7,75.7,51.7z"/>
<path class="st0" d="M162.7,55.3c0.3,0,0.6,0.1,0.9,0.2c0.3,0.2,0.5,0.4,0.7,0.7c0.3,0.6,0.3,1.2,0,1.8c-0.2,0.3-0.4,0.5-0.7,0.7
	c-0.6,0.3-1.2,0.3-1.8,0c-0.3-0.2-0.5-0.4-0.7-0.7c-0.3-0.6-0.3-1.2,0-1.8c0.2-0.3,0.4-0.5,0.7-0.7
	C162.1,55.4,162.4,55.3,162.7,55.3z M162.7,55.6c-0.3,0-0.5,0.1-0.7,0.2c-0.2,0.1-0.4,0.3-0.6,0.6c-0.3,0.5-0.3,1,0,1.5
	c0.1,0.2,0.3,0.4,0.6,0.6c0.5,0.3,1,0.3,1.5,0c0.2-0.1,0.4-0.3,0.6-0.6c0.3-0.5,0.3-1,0-1.5c-0.1-0.2-0.3-0.4-0.6-0.6
	C163.2,55.7,163,55.6,162.7,55.6L162.7,55.6z M161.9,58.1v-1.9h0.7c0.2,0,0.3,0,0.5,0.1c0.1,0,0.2,0.1,0.2,0.2
	c0.1,0.1,0.1,0.2,0.1,0.3c0,0.1-0.1,0.3-0.1,0.4c-0.1,0.1-0.2,0.2-0.4,0.2c0.1,0,0.1,0.1,0.2,0.1c0.1,0.1,0.2,0.2,0.3,0.4l0.2,0.4
	h-0.4l-0.2-0.3c-0.1-0.2-0.2-0.3-0.3-0.4c-0.1-0.1-0.2-0.1-0.3-0.1h-0.2v0.8L161.9,58.1z M162.2,57h0.4c0.1,0,0.3,0,0.4-0.1
	c0.1-0.1,0.1-0.3,0.1-0.4c0,0-0.1-0.1-0.1-0.1c-0.1,0-0.2,0-0.3,0h-0.4L162.2,57L162.2,57z"/>
</svg>
