<?xml version="1.0" encoding="utf-8"?>
<!-- Generator: Adobe Illustrator 19.2.1, SVG Export Plug-In . SVG Version: 6.00 Build 0)  -->
<svg version="1.1" id="layer" xmlns="http://www.w3.org/2000/svg" xmlns:xlink="http://www.w3.org/1999/xlink" x="0px" y="0px"
	 viewBox="0 0 652 652" style="enable-background:new 0 0 652 652;" xml:space="preserve">
<style type="text/css">
	.st0{fill:#23282A;}
	.st1{fill:#E03D40;}
	.st2{fill:#FFFFFF;}
	.st3{fill:#0074A8;}
	.st4{fill:#FDDF2F;}
	.st5{fill:#00A160;}
</style>
<g>
	<path class="st0" d="M309.5,372.4l0-0.2c-0.4-6.1-2.6-12-6.4-16.7c-4.4-6.2-10.3-11.3-17.1-14.8c-4.7-3.1-9.8-5.5-15.1-7
		c-7.6-1.7-15.5-1.8-23.2-0.2c-5.1,0.8-9.9,2.5-14.4,5c-2.7,1.3-5.2,2.9-7.3,4.9c-0.9,0.7-1.6,1.5-2.3,2.4c-2.1,2.9-3.3,6.4-3.2,10
		c-0.2,4.5,1,8.9,3.4,12.6c5.1,8.5,12.1,15.7,20.5,21c6.3,4.3,13.5,7.2,21,8.6c7.7,1.9,15.7,1.3,23.1-1.6c6.8-2.2,13-6.1,17.9-11.4
		l0.5-0.6C309,380.8,310,376.6,309.5,372.4 M278.4,365.2l-1.1,0.9c-2.4,2-5.5,3-8.6,2.8l-0.1,0c-4.6,0.2-9.1-1.1-12.8-3.7
		c-0.6-0.3-1.1-0.6-1.6-0.9c-1.6-1.2-2.9-2.9-3.7-4.8c-0.4-0.7-0.6-1.5-0.6-2.3c0-1,0.3-2,0.9-2.9c0.4-0.6,1.1-1.1,1.8-1.3l0.1,0
		c4.6-2.7,10.3-3.1,15.3-1c0.8,0.2,1.5,0.5,2.3,0.9c3.4,1.7,6.2,4.4,8,7.7l0.3,0.4c0.4,0.7,0.6,1.4,0.6,2.2
		C279.1,363.9,278.9,364.7,278.4,365.2"/>
	<path class="st0" d="M309.5,372.4l-1.2,0.1l0-0.2v0v0c-0.4-5.9-2.5-11.5-6.2-16.1l0,0l0,0c-4.3-6.1-10.1-11-16.7-14.4l-0.1,0
		l-0.1,0c-4.6-3-9.6-5.4-14.8-6.9l0.3-1.1l-0.3,1.1c-3.9-0.9-7.9-1.3-11.9-1.3c-3.6,0-7.3,0.4-10.8,1.1l0,0l0,0
		c-4.9,0.8-9.7,2.5-14.1,4.9l0,0l0,0c-2.6,1.2-5,2.8-7,4.7l0,0l0,0c-0.8,0.6-1.5,1.4-2.1,2.2l-0.9-0.7l0.9,0.7c-2,2.7-3,5.9-3,9.2
		v0.1l0,0l0,0l0,0.9c0,3.9,1.1,7.7,3.2,11l0,0l0,0c5,8.4,11.9,15.4,20.1,20.6l0,0l0,0c6.2,4.2,13.2,7.1,20.6,8.4l0,0l0,0
		c2.9,0.7,5.8,1.1,8.8,1.1c4.6,0,9.3-0.9,13.6-2.6l0,0l0,0c6.7-2.2,12.6-6,17.4-11.1l0.8,0.8l-0.9-0.7l0.5-0.6l0.9,0.7l-1-0.6
		c1.8-2.8,2.8-6.1,2.8-9.4c0-0.6,0-1.2-0.1-1.8l0,0v0L309.5,372.4l1.1-0.1c0.1,0.7,0.1,1.4,0.1,2.1c0,3.8-1.1,7.5-3.2,10.6l0,0
		l-0.5,0.7l0,0.1l0,0.1c-5,5.4-11.4,9.4-18.4,11.7l-0.4-1.1l0.4,1.1c-4.6,1.8-9.5,2.8-14.5,2.8c-3.1,0-6.2-0.4-9.3-1.1l0.3-1.1
		l-0.2,1.1c-7.7-1.4-15-4.4-21.5-8.8l0.6-1l-0.6,1c-8.5-5.4-15.7-12.7-20.9-21.4l1-0.6l-1,0.6c-2.4-3.7-3.6-7.9-3.6-12.2l0-1
		l1.2,0.1l-1.2,0l0-0.2c0-3.8,1.2-7.5,3.5-10.6l0,0l0,0c0.7-1,1.6-1.8,2.5-2.6l0.7,0.9l-0.8-0.8c2.3-2.1,4.8-3.8,7.6-5.1l0.5,1
		l-0.6-1c4.6-2.5,9.6-4.3,14.8-5.1l0.2,1.1l-0.2-1.1c3.7-0.8,7.5-1.2,11.3-1.2c4.2,0,8.3,0.5,12.4,1.4l0,0l0,0
		c5.5,1.6,10.7,4,15.4,7.2l-0.6,1l0.5-1c7,3.5,13,8.7,17.6,15.1l-0.9,0.7l0.9-0.7c4,5,6.3,11,6.7,17.4l-1.2,0.1l1.2-0.1l0,0.2
		L309.5,372.4l1.1-0.1L309.5,372.4z M278.4,365.2l0.8,0.9l-1.1,0.9l0,0l0,0c-2.4,2-5.4,3-8.5,3l-0.9,0l0,0l-0.1,0l0.2-1.1l0.1,1.2
		l-1.1,0c-4.4,0-8.8-1.4-12.4-3.9l0.7-0.9l-0.5,1.1c-0.7-0.3-1.3-0.6-1.8-1l0,0l0,0c-1.8-1.4-3.2-3.2-4-5.3l1.1-0.4l-1,0.6
		c-0.5-0.9-0.8-1.9-0.8-2.8l1.2,0l-1.2,0l0-0.2c0-1.2,0.4-2.4,1.1-3.4c0.6-0.8,1.4-1.4,2.4-1.8l0.4,1.1l-0.5-1l0.1,0l0.5,1l-0.6-1
		c2.8-1.7,6-2.5,9.2-2.5c2.4,0,4.9,0.5,7.1,1.5l-0.5,1.1l0.3-1.1c0.8,0.3,1.6,0.6,2.4,0.9l0,0h0c3.6,1.8,6.6,4.6,8.5,8.2l-1,0.6
		l0.9-0.7l0.3,0.4l0,0.1l0,0.1c0.5,0.8,0.8,1.7,0.8,2.6l0,0.3c-0.1,1-0.4,1.9-1,2.7l-0.1,0.1l-0.1,0.1L278.4,365.2l-0.9-0.7
		c0.3-0.4,0.5-0.9,0.5-1.4l0-0.1c0-0.5-0.1-1-0.4-1.4l1-0.6l-0.9,0.7l-0.3-0.4l-0.1-0.1l0-0.1c-1.7-3.1-4.4-5.6-7.5-7.2l0.5-1
		l-0.5,1c-0.7-0.3-1.4-0.6-2.1-0.8l-0.1,0l-0.1,0c-2-0.9-4.1-1.3-6.2-1.3c-2.8,0-5.5,0.7-8,2.2l0,0l-0.1,0.1l-0.1,0l-0.1,0
		c-0.5,0.2-0.9,0.5-1.2,0.9c-0.4,0.6-0.7,1.3-0.7,2l0,0.1v0v0c0,0.6,0.2,1.2,0.5,1.8l0,0.1l0,0.1c0.7,1.7,1.8,3.2,3.3,4.3l-0.7,0.9
		l0.7-0.9c0.5,0.3,0.9,0.6,1.5,0.8l0.1,0l0.1,0.1c3.3,2.3,7.1,3.5,11.1,3.5l1,0l0.1,0l0.2,0l-0.2,1.1l0.1-1.2l0.7,0
		c2.6,0,5.1-0.9,7.1-2.5l0.7,0.9l-0.8-0.9l1.1-0.9L278.4,365.2l-0.9-0.7L278.4,365.2z"/>
	<path class="st0" d="M390.9,309.6c-2.1-0.5-4.3-0.9-6.4-1.3"/>
	<path class="st0" d="M390.8,310.3c-2.1-0.5-4.2-0.9-6.4-1.3l0.2-1.3c2.2,0.4,4.3,0.8,6.4,1.4L390.8,310.3z"/>
	<path class="st0" d="M395.9,307.1c-2.1-0.5-4.2-0.9-6.4-1.3"/>
	<path class="st0" d="M395.7,307.7c-2.1-0.5-4.2-0.9-6.4-1.3l0.2-1.3c2.2,0.4,4.3,0.9,6.4,1.3L395.7,307.7z"/>
</g>
<g>
	<path class="st1" d="M316.4,329.7c-4.2-0.2-265.8-3.5-269.9-4c-3-0.3-5.9-1-8.7-1.9c-4.1-1.5-7.8-3.9-10.8-7
		c-2.3-2.6-3.8-5.8-4.2-9.2c-2.4-19.1-0.2-38.5,6.4-56.6c0.9-4,3.6-7.3,7.3-8.9c4.7-1.4,9.7-2,14.6-1.8c4.7,0,9.3,0.4,13.9,0.9
		l0.2,0.1c3.2,0.8,6.5,1.2,9.8,1.2c16.8,0.5,33.7-0.3,50.3-2.6l0.4,0c38-6.6,76.7-7.7,115-3.5c10,1.4,19.9,3.1,29.9,4.9l0.2,0
		c18.4,4.2,37.3,5.3,56,3.1c8.4-0.7,16.8-2.2,25-4.3c10.8-2.6,21.7-5,32.6-7.2l0.2,0c8.7-1.8,17.6-2.9,26.5-3.2
		c4.8,0,9.6,0.2,14.4,0.4c20.7,1,41.2,3.6,61.5,7.5c8.1,1.6,16.1,3.7,24,6c11,2.3,22.2,3.2,33.4,2.7c12.5,0.5,25-0.3,37.3-2.2
		c6.2-0.8,12.4-1.2,18.6-1.3c2.5-0.1,5.1,0.4,7.4,1.4c4.3,2.8,7.5,7,9,11.9c1.5,7.9,2.2,16,2.2,24.1c0.4,5.9,0.4,11.8-0.1,17.6
		c-0.1,5.9-2,11.7-5.4,16.5c-2.6,3.6-6.5,6.1-10.8,7.1c-9.2,2.9-18.6,5.3-28.1,7.3c-5.7,1.1-229.1,1.2-234.9,1.8L316.4,329.7z"/>
	<path class="st2" d="M316.4,329.7l-0.1,1.3c-0.9-0.1-18.1-0.3-43.3-0.7c-37.8-0.5-93.6-1.3-140.4-1.9c-23.4-0.3-44.6-0.6-60-0.9
		c-7.7-0.1-14.1-0.2-18.6-0.3c-2.2,0-4-0.1-5.3-0.1c-1.3,0-2-0.1-2.3-0.1c-3.1-0.3-6.1-1-9-2l0,0c-4.3-1.6-8.2-4.1-11.3-7.3l0,0l0,0
		c-2.5-2.8-4.1-6.3-4.5-10l1.3-0.1l-1.3,0.2c-0.6-5.1-0.9-10.2-0.9-15.2c0-14.3,2.5-28.5,7.4-42l1.2,0.4l-1.3-0.3
		c1-4.4,4-8.1,8.1-9.9l0.1,0l0.1,0c4.3-1.3,8.8-1.9,13.3-1.9c0.6,0,1.2,0,1.8,0l0,1.3l0-1.3c4.7,0,9.4,0.4,14.1,1l0.1,0l0.3,0.1
		l-0.4,1.2l0.3-1.3c3.1,0.7,6.3,1.1,9.5,1.2h0h0c3.3,0.1,6.5,0.2,9.8,0.2c13.5,0,27-0.9,40.3-2.7l0.1,0l0.4,0l0,1.3l-0.2-1.3
		c23.1-4,46.5-6,69.9-6c15.2,0,30.3,0.8,45.4,2.5h0l0,0c10,1.4,20,3.1,29.9,4.9l0.1,0l0.2,0.1l-0.3,1.3l0.3-1.3
		c12.1,2.8,24.4,4.2,36.7,4.2c6.3,0,12.6-0.4,18.9-1.1h0l0,0c8.4-0.7,16.6-2.2,24.8-4.3l0,0l0,0c10.8-2.6,21.7-5,32.7-7.2l0,0l0.2,0
		l0.2,1.3l-0.3-1.3c8.8-1.8,17.8-2.9,26.8-3.2h0h0c4.8,0,9.7,0.2,14.5,0.4c20.7,1,41.4,3.6,61.7,7.6h0c8.1,1.7,16.2,3.7,24.1,6
		l-0.4,1.2l0.3-1.3c9,1.9,18.2,2.8,27.3,2.8c1.9,0,3.8,0,5.7-0.1h0.1h0c2.4,0.1,4.8,0.1,7.2,0.1c10,0,20-0.8,29.8-2.3l0,0l0,0
		c6.2-0.8,12.4-1.2,18.7-1.3l0,1.3l0-1.3l0.6,0c2.5,0,5,0.5,7.4,1.5l0.1,0l0.1,0.1c4.6,2.9,8,7.4,9.5,12.7l0,0.1l0,0.1
		c1.5,8,2.3,16.2,2.3,24.3H619l1.3-0.1c0.2,2.7,0.3,5.4,0.3,8.1c0,3.3-0.1,6.5-0.4,9.8l-1.3-0.1l1.3,0c-0.1,6.2-2.1,12.2-5.6,17.2
		l0,0l0,0c-2.8,3.9-6.9,6.5-11.6,7.6l-0.3-1.3l0.4,1.2c-9.3,2.9-18.7,5.3-28.2,7.3l0,0h0c-0.3,0.1-0.7,0.1-1.3,0.1
		c-9.3,0.5-66.2,0.8-121.7,1c-27.7,0.1-55.1,0.2-75.8,0.3c-10.4,0.1-19.1,0.1-25.4,0.2c-3.2,0-5.7,0.1-7.5,0.1c-1.8,0-3,0.1-3.2,0.1
		l-0.1,0l-23.3-0.8h0L316.4,329.7l0-1.3l23.2,0.8l0,1.3l-0.1-1.3c0.5,0,1.7-0.1,3.6-0.1c14.7-0.2,71.2-0.4,124.7-0.7
		c26.8-0.1,52.8-0.3,72.4-0.4c9.8-0.1,18.1-0.2,24-0.3c3-0.1,5.4-0.1,7.1-0.2c1.7-0.1,2.9-0.1,3-0.2l0.2,1.3l-0.3-1.3
		c9.4-1.9,18.8-4.4,28-7.2l0,0l0.1,0c4-0.9,7.6-3.2,10.1-6.6l1,0.8l-1.1-0.8c3.3-4.6,5.1-10.1,5.2-15.7v0l0,0
		c0.3-3.2,0.4-6.4,0.4-9.5c0-2.6-0.1-5.3-0.3-7.9l0,0v0c0-8-0.8-16-2.2-23.8l1.3-0.2l-1.2,0.4c-1.4-4.6-4.4-8.6-8.4-11.2l0.7-1.1
		l-0.5,1.2c-2-0.8-4.2-1.3-6.4-1.3l-0.5,0h0c-6.2,0.1-12.3,0.5-18.4,1.3l-0.2-1.3l0.2,1.3c-10,1.6-20.1,2.4-30.2,2.4
		c-2.4,0-4.9,0-7.3-0.1l0-1.3l0.1,1.3c-2,0.1-3.9,0.1-5.9,0.1c-9.3,0-18.7-1-27.9-2.9l-0.1,0l-0.1,0c-7.9-2.4-15.8-4.4-23.9-6l0,0
		c-20.2-4-40.7-6.5-61.4-7.5c-4.8-0.2-9.6-0.4-14.4-0.4l0-1.3l0,1.3c-8.8,0.3-17.6,1.4-26.3,3.2l0,0l-0.2,0l-0.2-1.3l0.3,1.3
		c-10.9,2.2-21.8,4.6-32.6,7.2l-0.3-1.3l0.3,1.3c-8.3,2.2-16.7,3.6-25.2,4.3l-0.1-1.3l0.2,1.3c-6.4,0.7-12.8,1.1-19.2,1.1
		c-12.5,0-25-1.4-37.3-4.2l0,0l-0.2-0.1l0.3-1.3l-0.2,1.3c-9.9-1.8-19.9-3.4-29.8-4.9l0.2-1.3l-0.1,1.3c-15-1.7-30.1-2.5-45.2-2.5
		c-23.3,0-46.5,2-69.5,6l-0.1,0l-0.5,0l0-1.3l0.2,1.3c-13.5,1.8-27.1,2.8-40.7,2.8c-3.3,0-6.6-0.1-9.9-0.2l0-1.3l0,1.3
		c-3.4,0-6.8-0.5-10.1-1.2l-0.1,0l-0.3-0.1l0.4-1.2l-0.2,1.3c-4.6-0.6-9.2-0.9-13.8-0.9h0h0c-0.6,0-1.1,0-1.7,0
		c-4.2,0-8.5,0.6-12.5,1.8l-0.4-1.2l0.5,1.2c-3.4,1.4-5.8,4.4-6.6,8l0,0.1l0,0.1c-4.8,13.2-7.2,27.1-7.2,41.1c0,5,0.3,9.9,0.9,14.9
		v0v0c0.3,3.2,1.7,6.2,3.8,8.5l-1,0.9l0.9-0.9c2.9,3,6.4,5.3,10.3,6.7l-0.4,1.2l0.4-1.2c2.7,0.9,5.5,1.6,8.4,1.9
		c0.1,0,1.5,0.1,3.6,0.1c16.1,0.4,81.7,1.3,143.7,2.1c31,0.4,61.2,0.8,83.8,1.1c22.7,0.3,37.7,0.5,38.8,0.6L316.4,329.7l0-1.3
		L316.4,329.7z"/>
</g>
<g>
	<path class="st2" d="M584.5,316.5c6.1-1.5,12.1-3.2,18.1-5.1c2-0.6,3.6-2.1,4.3-4c0.8-2.1,1.2-4.3,1.2-6.5
		c1.4-10.3,1.4-20.7,0.1-30.9c-0.4-4.8-2.2-9.3-5.2-13c-1.7-2.1-4.2-3.3-6.9-3.3c-5,0-9.9,0.3-14.9,0.9c-7.8,1-15.6,1.8-23.5,2.5
		c-9.9,0.4-19.8,0.2-29.7-0.8c-8.5-1.1-16.8-2.6-25.1-4.6c-18.1-4.3-36.4-7.6-54.8-9.7c-13.2-2.1-26.6-2.8-39.9-2.2
		c-20.2,3-40.3,6.6-60.2,10.6c-4.3,1-8.5,1.8-12.9,2.4c-23.4,4.3-47.4,3.2-70.3-3.3c-20.1-4.3-40.5-6.7-61-7.1
		c-24.8,0.3-49.6,2.1-74.2,5.4c-5.7,0.8-11.3,1.6-17,2.5c-15.4,1.5-31,1.9-46.5,1c-4-0.4-7.9-0.7-11.9-1c-2.6-0.5-5.4-0.2-7.9,0.7
		c-2.8,1.2-5,3.4-6.2,6.2c-7.4,14.1-9.2,30.5-5,45.8c0.4,2,1.2,4,2.3,5.7c2.5,2.7,5.8,4.4,9.4,4.9c4.5,1.3,9.1,2.2,13.8,2.8
		c2.2,0.5,4.4,0.8,6.6,1"/>
	<path class="st1" d="M421.4,283.6c-0.9-1.1-2.1-1.9-3.4-2.3c-1,0.1-1.9,0.6-2.5,1.4c-1.4,2.5-2.1,5.3-2.1,8.2
		c-0.1,0.5,0,1.1,0.2,1.6l0.7,0.9c0.6,0.3,1,0.9,1.3,1.5c0.5,1.6,0.3,3.4-0.6,4.9c-1.3,1.6-3.6,2.2-5.5,1.4
		c-0.9-0.3-1.7-0.6-2.5-0.9c-2.9-1.5-6.2-2.1-9.5-1.7c-0.5,0-1.1,0-1.6,0.1c-0.9,0-1.7-0.7-1.8-1.6c0-0.5,0-1,0-1.5
		c0-0.5,0.2-1,0.5-1.4l0.5-0.6l0.7-0.7c0.4-0.4,0.9-0.9,1.3-1.3c0.6-0.6,1-1.3,1.2-2.1c0.3-0.9,0.5-1.8,0.7-2.7
		c2.7-11.3,4.4-22.9,5-34.5l0-0.4l-0.1-0.7l-0.6-0.3c-1.4-0.2-2.6-1.1-3.4-2.2c-0.5-0.7-0.8-1.5-0.6-2.3c0.1-0.8,0.6-1.6,1.3-2.1
		c1.6-1.1,3.5-1.7,5.5-1.8c10.1-1.2,20.2,0.9,29,6l0.1,0.1c3.3,1.6,5.7,4.6,6.5,8.2c1,4.6-0.1,9.4-3,13c-0.5,0.5-1,1-1.4,1.5
		c-0.8,0.8-1.7,1.5-2.7,2.1l-0.6,0.4l-0.1,0.3l0.2,0.3l1.7,1.2c1.2,0.9,2.3,2.1,3.1,3.4c0.5,1,1.1,2,1.6,3c0.3,0.5,0.8,0.8,1.4,1
		c1,0.2,1.9,0.7,2.7,1.2c2.6,2.1,3.6,5.7,2.4,8.9c-0.8,3-2.6,5.5-5.1,7.3c-1.7,1.4-3.9,2-6,1.6c-2.3-0.4-4.3-1.5-5.9-3.2
		c-2.3-2.3-4-5.1-5-8.2C424,287.9,422.9,285.6,421.4,283.6"/>
	<path class="st1" d="M299.1,312.5c-0.5-0.1-1-0.4-1.4-0.7c-0.3-0.5-0.3-1.2-0.1-1.7c0.1-0.8,0.5-1.5,1-2c0.9-0.5,1.8-1,2.7-1.5
		c0.4-0.3,0.9-0.5,1.3-0.8c0.8-0.5,1.6-1.1,2.2-1.9c0.8-1.5,1.3-3.2,1.3-5l0.1-0.9c0.6-11.5,0.7-22.9,0.4-34.4c0-1.4,0-2.7,0-4.1
		l0.2-1.1c0.4-0.9,1.4-1.3,2.3-1l0.4,0.3l0.3,0.3c2.7,2.3,5.1,4.8,7.3,7.6c2.2,3.1,4.6,6,7.2,8.8l0.9,1l0.5,0l0.8-0.8l0.7-0.9
		c3.3-5.6,6.8-11.1,10.5-16.5l0.7-1.1l0.5-0.5l1-0.4l0.9,0.3l0.8,0.9c0.3,0.7,0.6,1.5,0.8,2.3c3.5,10.1,6.6,20.4,9.3,30.8
		c0.9,3.8,1.9,7.5,3.1,11.2c0.5,0.7,1.2,1.1,2,1.3l0.9-0.1c0.5-0.1,0.9,0,1.3,0.3c0.6,0.5,1,1.2,1.1,2c0,0.6-0.1,1.2-0.2,1.8
		c-0.2,0.9-0.6,1.6-1.2,2.3c-0.4,0.6-1.1,0.9-1.8,1c-1.6,0-3.1-0.1-4.6-0.4c-4.3-0.6-8.7,0-12.7,1.7c-0.4,0.2-0.9,0.3-1.3,0.4"/>
	<path class="st1" d="M189.3,305.3c-0.1,0.4-0.3,0.7-0.6,0.9l-1,0.7l-0.9,0.1l-0.9-0.1c-4-0.2-8-0.3-11.9-0.3
		c-1.4,0-2.8-0.1-4.2-0.4l-0.3-0.2c-0.6-0.8-0.8-1.8-0.5-2.7l0.2-0.5l0.3-0.3c1-1,2.1-1.8,3.3-2.5l0.1-0.3l0-0.3l5.6-34.2
		c0.1-0.5,0.2-1.1,0.3-1.6l-0.1-0.1c-0.5-0.1-1-0.2-1.5-0.4c-0.8-0.3-1.5-0.7-2.2-1.2l-0.7-0.7c-0.3-0.3-0.4-0.8-0.3-1.3
		c0.2-0.5,0.4-1,0.8-1.5c0.4-0.4,0.9-0.8,1.4-0.9c4-1.6,7.6-4.1,10.5-7.2c1-1,2.4-1.7,3.8-2c0.5-0.2,1.1-0.2,1.7-0.1
		c0.9,0.6,1.6,1.4,2.1,2.3c6,11.8,10.4,24.3,13,37.3c0.4,1.6,0.6,3.2,0.9,4.8v0.1c0.1,0.5,0.5,1,1,1.2c0.7,0.1,1.3,0.4,1.8,0.8
		c0.9,1.1,1.4,2.4,1.5,3.7c0.3,1.4,0,2.9-0.9,4.1c-0.2,0.4-0.6,0.7-1,0.8c-0.6,0.2-1.3,0.4-1.9,0.5c-0.4,0.1-0.9,0.2-1.4,0.1
		c-4,0-7.9,0.2-11.9,0.6l-0.6,0c-0.9,0.1-1.8,0-2.7-0.1c-1-0.2-1.8-0.7-2.5-1.5l-0.8-0.9c-0.3-0.5-0.4-1.1-0.1-1.7
		c0.2-1,0.8-1.8,1.7-2.3l0.9-0.5c0.6-0.6,0.9-1.5,0.7-2.3c-0.2-1.1-0.8-2-1.6-2.8c-2.4-0.7-4.9-0.3-6.9,1.3c-1,1.3-1.1,3.1-0.1,4.4
		c0.4,0.8,1.1,1.4,1.8,1.8c0.4,0.2,0.8,0.5,1.2,0.8c0.9,0.8,1.7,1.7,2.4,2.7C189.1,304.1,189.2,304.7,189.3,305.3"/>
	<path class="st2" d="M424.5,268.5c2.4-2.7,3.4-6.3,2.7-9.8c-0.6-2.1-2-3.9-4-5l-0.4-0.2c-0.5-0.4-1.1-0.6-1.8-0.7
		c-0.5-0.1-1.1-0.1-1.6-0.2l-0.3,0l-0.2,0.2l-0.1,0.2l-0.4,1c-0.9,4.8-1.7,9.6-2.3,14.5c-0.1,0.6,0.2,1.1,0.6,1.5
		c0.7,0.3,1.4,0.4,2.1,0.4c1.3,0.1,2.6-0.1,3.8-0.5C423.3,269.5,423.9,269.1,424.5,268.5"/>
	<path class="st2" d="M185.2,269.7L185.2,269.7l-0.2,0.3l-0.1,0.4c-0.6,4.1-1,8.2-1.2,12.4l0,0.1l0.2,0.5l0.2,0
		c1.3,0.4,2.7,0.2,3.9-0.4l0.3-0.4l0.1-0.5c-0.7-4-1.7-8-3-11.9L185.2,269.7"/>
	<path class="st1" d="M562.2,303.9c0.3-1.1,0.4-2.2,0.3-3.3c-0.8-9.9-2.3-19.7-4.5-29.4c-0.2-0.8-0.4-1.7-0.6-2.5
		c-0.2-1-0.1-2.1,0.2-3.1c0.1-0.5,0.3-0.9,0.6-1.2c0.8-0.8,2-1.2,3.1-0.9c1.9,0.3,3.7,1,5.4,1.8c8.9,4.5,17.3,9.8,25.3,15.6
		c0.6,0.5,1.2,0.9,1.7,1.4l0.1-0.1c0.1-0.7,0-1.4-0.1-2c-0.5-3.3-1.3-6.5-2.4-9.7c-0.2-1.5-0.9-3-2-4.1l-0.4-0.3l-0.8-0.2
		c-1.3-0.3-2.6-0.8-3.7-1.5c-0.9-0.6-1.4-1.8-1.1-2.8c0.3-1.4,1.5-2.3,3-2.4c3.6-0.9,7.2-1.5,10.9-1.7c1.4-0.2,2.9,0.2,4.1,1.1
		c0.9,1,1,2.3,0.4,3.4l-0.4,0.9c-0.4,0.8-0.9,1.5-1.5,2.2c-0.3,0.3-0.5,0.6-0.5,1c0,0.8,0.1,1.6,0.3,2.3c0.3,0.6,0.5,1.3,0.6,2
		c2.4,9.1,4,18.4,4.6,27.8c0.1,0.8,0.1,1.6-0.1,2.4c0.1,1-0.2,1.9-0.9,2.6c-0.8,0.8-2.1,1-3.1,0.7l-1.1-0.4c-5.2-1.7-10.3-4-15-6.7
		l-1-0.6c-3.7-2.4-7.6-4.4-11.8-5.9c-0.6-0.3-1.3-0.4-2-0.5l-0.3,0.1c0,0.6,0.1,1.3,0.2,1.9l1.2,11.1c0,0.7,0.1,1.4,0.2,2.1
		c0,0.7,0.6,1.2,1.3,1.3c0.8-0.1,1.7,0.1,2.3,0.7c0.9,0.9,1.1,2.2,0.7,3.3l-0.6,0.6c-0.6,0.4-1.2,0.7-2,0.8
		c-3.7,0.5-7.4,1.2-11.2,1.9c-0.7,0.1-1.3,0.3-2,0.5"/>
	<path class="st1" d="M140.1,309.6L140.1,309.6c-1.6,0.1-3.2-0.1-4.7-0.6c-1.5-0.6-2.4-2.2-2-3.7c0.2-0.9,0.7-1.7,1.4-2.3
		c0.5-0.5,1.1-0.9,1.7-1.2l1-0.8l0.3-0.7l0-0.3c0.1-0.8,0.1-1.5,0-2.3l0-0.1l-4.3-29.1c0-0.5-0.1-1.1-0.3-1.6l-0.4-0.7l-0.9-0.5
		c-1.4-0.5-2.7-1.1-4-1.9c-0.9-0.7-1.2-2-0.7-3c0.4-0.6,1-1.2,1.6-1.6c1.3-0.6,2.7-1.2,4-1.8c7.4-3.2,15.3-5,23.3-5.3
		c0.7,0,1.4-0.1,2.2-0.1c0.6,0,1.2,0.1,1.9,0.2l0.1,0l0.1,0l0.7,0.4l0.3,0.1l0.4,0.4c1.9,3.6,2.9,7.7,2.9,11.9
		c0,0.4-0.1,0.8-0.2,1.2l-0.1,0.1l0,0.1l-0.5,0.6l-0.2,0.2l-1,0.6l-0.9,0.2l-0.2,0l-0.1,0l-0.2-0.1c-3.5-1.8-7-3.6-10.4-5.5
		c-0.3-0.3-0.8-0.4-1.2-0.2l-0.6,0.3l-0.3,0.6c-0.8,2.4-1.2,5-1.1,7.6c0.1,1.3,0.1,2.6,0.2,3.8l0.3,1l0.1,0.2l0.2,0l0.1-0.1
		c1-0.6,1.9-1.3,2.7-2.1l0.9-1c0.7-0.9,1.6-1.7,2.5-2.3c0.4-0.3,0.9-0.5,1.4-0.6c0.8-0.1,1.6,0.4,1.9,1.2c2.1,3.7,3,8,2.4,12.2
		c-0.1,0.6-0.4,1.2-0.9,1.7c-0.8,0.7-2,0.9-3,0.5c-0.7-0.4-1.5-0.6-2.4-0.8l-0.8-0.1l-1,0.3c-0.7,0.6-1.1,1.5-1.2,2.4
		c0,0.6,0,1.1,0,1.7c0.1,2.4,0.4,4.8,1,7.1c0.2,0.9,0.4,1.8,0.8,2.7l0.8,0.6l0.8-0.2c1.1-0.6,2.2-1.2,3.1-2c1.2-1,2.2-2.2,3.1-3.5
		c0.6-1,1.6-1.6,2.8-1.9c1.1-0.2,2.3,0.1,3.2,0.8c1.5,1.9,2.3,4.3,2.3,6.7c0.1,1.6-0.2,3.1-0.8,4.5c-0.7,1.2-1.8,2-3.2,2.3
		c-3.9,1-7.7,1.8-11.7,2.5l-0.3,0.1C148.7,308.9,144.4,309.3,140.1,309.6"/>
	<path class="st1" d="M459.9,310.6c-4.5-1.2-9-1.8-13.6-1.9c-0.9,0-1.8-0.1-2.7-0.4c-1-0.2-1.9-1-2.2-2c-0.1-0.8,0-1.6,0.4-2.3
		c0.6-1,1.5-1.6,2.6-1.9l1-0.2l0.9-0.3l0.5-0.8c2.9-14.3,4.9-28.8,5.9-43.4l-0.3-1.1c-0.5-0.2-1-0.4-1.5-0.6
		c-1.5-0.2-2.8-1.4-3.1-2.9c-0.1-1.9,1-3.6,2.8-4.2c0.4-0.1,0.9-0.3,1.3-0.4l4-0.1c3.2,0.3,6.5,0.7,9.7,1.3c2.2,0.4,4.4,0.9,6.6,1.4
		c1.5,0.6,2.5,1.9,2.7,3.5c0.1,1.1,0,2.2-0.5,3.1c-0.4,0.9-1.2,1.7-2,2.1c-0.8,0.2-1.4,0.6-1.9,1.2c-0.5,0.8-0.8,1.7-0.9,2.7
		c-2.4,12.5-3.9,25.1-4.6,37.8v0.2l0.3,1.1c0.6,0.7,1.3,1.3,2.2,1.8l0.4,0.5"/>
	<path class="st1" d="M479.6,313.9c-14-2.1-12.2-28.5-8.3-37.6c3.4-7.7,10-13.4,18.1-15.7c4.8-1.4,10-1,14.6,1
		c1.1,0.7,2.4,1.1,3.6,1.3h0.1l0.4,0l0.8-0.6c0.8-1,2.1-1.6,3.4-1.6c0.5-0.1,1.1-0.1,1.6-0.1c1-0.2,1.9,0,2.7,0.6
		c0.7,0.8,1,1.8,0.8,2.8c0,5.8-1.6,11.5-4.6,16.5c-0.8,1.6-2.3,2.6-4,2.8c-0.7,0.1-1.3-0.1-1.9-0.5c-1.2-2.1-1.8-4.4-1.8-6.8
		c-0.3-2.4-1.3-4.6-3-6.3c-1.7-1-3.9-1.2-5.7-0.4c-2.6,0.7-4.5,2.7-5.1,5.3c-1.7,4-2.9,8.2-3.5,12.5c-0.9,4.7-1.3,9.5-1.3,14.2
		c0,1.1,0.3,2.2,0.8,3.2"/>
	<path class="st2" d="M331.9,311.1l1.1-4.9l0.8-0.6c1.1-0.4,2.3-1,3.3-1.6c1-0.5,1.6-1.5,1.6-2.6c0-0.6-0.1-1.1-0.2-1.7
		c-0.8-6-2.1-11.9-3.8-17.6l-0.4-0.8l-0.3-0.4l-0.1,0c-0.7,0.6-1.3,1.3-1.7,2.1c-2.8,4.9-5.6,9.8-8.3,14.8c-0.4,0.6-0.7,1.2-0.9,1.8
		l-0.1,0.3l-0.9,0c-0.5-0.5-0.9-1-1.4-1.5c-1.8-1.9-3.4-4-4.7-6.2c-0.7-0.9-1.3-1.9-1.7-2.9l0-0.1l0,0l0,0l0,0.1c0,0.9,0,1.8,0,2.7
		c0.1,2.8,0.4,5.5,0.9,8.2c0.5,2.1,1.8,3.8,3.5,5c0.4,0.3,0.8,0.6,1.2,0.8l4,5.7"/>
	<path class="st1" d="M366,302.6c-1.8-0.2-3.5-0.3-5.3-0.4c-1.5,0-2.9-0.7-3.7-1.9c-0.5-0.7-0.6-1.7-0.3-2.5l0.1-0.6l0.3-1.1
		c0.1-0.4,0.4-0.8,0.8-1l1.4-0.7l0.5-0.8c0.1-0.7,0.1-1.4,0-2.2c-0.8-9.3-1.2-18.6-1.1-27.8v-1c-0.1-0.5-0.5-0.8-1.1-0.8
		c-1.2-0.2-2.3-0.6-3.4-1.3l-0.5-0.7c-0.2-1.3,0.4-2.6,1.5-3.3l1.1-1c1.5-1.1,3.3-1.8,5.2-2c8.5-1.8,17.2-3.1,25.9-3.8
		c0.6-0.1,1.2-0.2,1.9-0.1c1.3-0.2,2.6,0.5,3.1,1.7c1,3.6,1.1,7.5,0.2,11.2c-0.1,1.3-0.7,2.6-1.7,3.4c-0.5,0.2-1,0.2-1.5,0
		c-0.6-0.5-1.2-1.1-1.7-1.8c-1.5-1.8-3.4-3.4-5.4-4.7c-2.1-0.8-4.4-0.8-6.6-0.1c-1.6,0.5-2.9,1.8-3.3,3.5c-0.5,2.4-0.7,4.9-0.6,7.3
		c0.1,1.3,0.5,2.5,1.1,3.6l0.6,0.2c0.6-0.2,1.2-0.4,1.7-0.7l1.1-0.7c0.4-0.5,0.8-1,1.3-1.6l1.8-2.1l0.4-0.3l1.1-0.2l0.9,0.3l0.2,0.3
		c0.3,0.6,0.5,1.2,0.8,1.8c0.5,2.7,0.7,5.4,0.6,8l-0.1,3.2c-0.1,0.5-0.3,0.9-0.6,1.3c-0.7,1-2.1,1.4-3.3,0.8
		c-1.2-0.3-2.4-0.8-3.4-1.4c-1.2-0.4-2.6-0.1-3.4,1l-0.2,0.5c0,1.4,0,2.7,0,4.1c0.1,1.1,0.2,2.3,0.4,3.4c-0.1,1.2,0.5,2.3,1.4,3
		l0.2,0.2c1.8,1.9,4.6,2.3,6.9,1c2.8-1,5.3-2.7,7.4-4.8l1-0.7c0.6-0.4,1.3-0.6,2-0.5l0.3,0.1c0.7,0.1,1.3,0.7,1.3,1.4
		c0,0.5,0,1.1,0,1.6c-0.1,3.3-0.4,6.6-0.8,9.9c-0.1,1.2-0.8,2.3-1.8,3c-1.1,0.4-2.3,0.5-3.4,0.2"/>
	<path class="st1" d="M232.1,300.2l-0.9-0.2c-0.6-0.3-1.2-0.6-1.9-0.8c-5.1-1.8-10.3-3.1-15.6-4c-0.7-0.2-1.5-0.5-2.2-0.7
		c-0.8-0.2-1.3-0.9-1.3-1.7l0-0.4l0.2-0.6c0.1-0.6,0.4-1.1,1-1.3c0.8-0.6,1.7-1,2.6-1.2l0.4-0.1c0.6-0.1,1.1-0.4,1.5-0.8
		c0.9-1,1.5-2.2,1.6-3.5c2.2-8.6,3.7-17.5,4.2-26.4l0-0.2l-0.2-0.5l-0.9-0.4c-0.4,0-0.9,0.1-1.3,0.2c-1.2,0.4-2.5,0.7-3.7,0.8
		c-1.2,0.2-2.3,0.4-3.5,0.6l-1.1,0.1l-1.1-0.4l-0.3-0.4l0-0.1c0-0.5-0.1-0.9-0.2-1.3c-0.4-2.1-0.2-4.2,0.4-6.2
		c0.3-0.7,0.6-1.5,0.9-2.2l0.2-0.4l0.9-0.4c1.5-0.2,3.1-0.2,4.6,0.1l0.5,0.1c8.9,1,17.6,3.1,26,6.2c1.3,0.5,2.7,0.9,4.1,1.1l0.9,0.2
		c1.3,0.3,2.2,1.5,2.1,2.8c-0.1,3.1-0.8,6.2-2.1,9l-0.7,0.9c-0.4,0.3-0.9,0.5-1.5,0.6l-0.8-0.1l-0.8-0.6c-0.6-0.6-1.1-1.3-1.3-2.1
		c-0.6-1.4-1.5-2.7-2.7-3.6c-0.7-0.6-1.7-0.9-2.7-0.7c-0.6,0-1,0.5-1.1,1c-2.9,7.6-4.5,15.7-4.7,23.8c0,0.9,0.2,1.8,0.6,2.6
		c0.5,0.9,1,1.7,1.6,2.5c0.4,0.4,0.7,0.9,1.1,1.3c0.4,0.5,0.5,1,0.5,1.6c0.2,1.6-0.1,3.2-1,4.5l-0.8,1.1
		C233.3,299.9,232.7,300.1,232.1,300.2"/>
	<path class="st1" d="M486.7,303.2c0.3,1.6,7.8,2.9,9.1-0.6c0.7-1.5,1.7-2.8,2.9-4c2-1.4,4.6-1.8,7-1.3c2.4,0.4,4.2,2.6,4.1,5.1
		l0,0.2c0.3,3.6,0.1,7.3-2.5,9.8c-5.1,3.8-23.9,3-27.6,1.5"/>
	<path class="st1" d="M62.5,308.1c-7,1-14-1.1-19.3-5.8c-7.3-7.5-9.7-18.5-6-28.3c3.4-7.4,10-12.9,18-14.8
		c5.4-1.2,11.1-0.8,16.3,1.3c3.8,1.5,7,4.3,9,7.9c2,2.5,1.8,6.1-0.4,8.4c-1.6,1.5-3.6,2.2-5.8,2.1c-2.1-0.1-4.1-1.1-5.5-2.7
		c-0.9-1.6-1.3-3.5-1.1-5.4l0-0.7c0.1-0.6,0-1.3-0.4-1.9c-0.2-0.6-0.5-1.1-1-1.4c-0.3-0.3-0.8-0.4-1.2-0.2c-0.6,0-1.2,0.2-1.8,0.4
		c-3.6,1.3-6.6,3.8-8.6,7c-3.2,5.8-4.2,12.6-2.6,19.1c0.8,2.8,3.3,4.8,6.2,4.9c3.5-1,6.3-3.6,7.6-7.1c0.2-0.8,0.5-1.5,0.9-2.3
		c0.2-0.5,0.1-1.2-0.4-1.5c-0.6-0.8-1.6-1.2-2.6-1.1c-1.5-0.2-2.9-0.2-4.4-0.1c-0.5,0.1-1.1,0-1.5-0.4l-0.2-0.2
		c-0.4-0.4-0.6-1.1-0.3-1.7c0.7-2.7,1.6-5.4,2.8-7.9l0.1-0.2l0.5-0.3l0.2,0l0.6,0.2c0.5,0.1,1.1,0.3,1.6,0.4
		c0.7,0.2,1.4,0.5,2.1,0.8c6,2.7,11.3,6.9,15.5,12c1,1.1,1.5,2.5,1.4,3.9l-0.1,0.6c-0.8,2-1.9,4-3.1,5.8
		C75.3,304.6,69.2,308,62.5,308.1"/>
	<path class="st1" d="M83.4,308.8c0.2-0.7,0.7-1.4,1.3-1.8l0.7-0.4c0.8-0.5,1.7-0.9,2.5-1.3l0.7-0.8c0.3-1.4,0.4-2.9,0.1-4.3
		c-0.8-6.4-1.5-12.8-2.1-19.2c-0.4-2.8-0.7-5.5-0.9-8.3c-0.1-2.4-0.2-4.7-0.3-7.1l0-0.4V265l-0.1-0.1l-0.9,0.1
		c-0.8,0-1.5-0.1-2.2-0.2c-1.6-0.2-2.8-1.4-3.1-2.9l0.1-1c0.8-1.6,2-2.9,3.5-3.8c2.2-1.2,4.5-2.1,7-2.6c2.6-0.5,5.2-0.8,7.9-0.9
		c4.7-0.2,9.3,0,13.9,0.7c1.7,0.2,3.4,0.6,5.1,1.1c3,1.2,5.7,3.1,7.8,5.7c2.1,3.2,2.9,7.2,2.1,11c-0.3,2.8-1.5,5.5-3.4,7.7l-0.9,0.8
		l-0.1,0l0,0.1l0,0.1l0.7,0.6c2.4,1.7,4.2,4.2,5.1,7l0.1,0.2l0.4,0.1c0.8-0.3,1.7-0.2,2.4,0.2c2.9,1.4,4.7,4.4,4.8,7.6
		c0,2.7-1,5.2-2.9,7.1c-2,1.7-4.5,2.7-7.1,3c-0.7,0.1-1.5,0.1-2.2,0l-1.2-0.4c-1.1-0.5-2.1-1.1-3.1-1.8c-1.9-1.4-3.7-3.1-5.2-4.9
		l-2.1-3.2c-0.3-0.6-0.7-1.2-1-1.7c-0.8-1.4-1.9-2.7-3.1-3.7l-1.1-0.7l-1.1,0.1c-0.4,0.4-0.6,1-0.6,1.6c-0.2,3-0.1,5.9,0.2,8.9
		c0.1,0.6,0.3,1.2,0.7,1.8c0.3,0.4,0.7,0.7,1.2,0.9c1.1,0.2,2,0.8,2.6,1.7c0.4,0.6,0.5,1.3,0.4,1.9c-0.2,0.7-0.7,1.4-1.3,1.8
		l-0.1,0.1c-1.2,0.7-2.5,1.2-3.9,1.6"/>
	<path class="st2" d="M109.4,273.5c0.8-1.6,1.3-3.3,1.3-5.1c0-1.8-0.8-3.5-2.3-4.6c-0.9-0.6-1.9-1-2.9-1.2c-0.6-0.1-1.1-0.2-1.7-0.2
		c-1.2,0-2.4,0-3.7,0l-0.4,0.1l-0.1,0.1l-0.1,0.4c-0.1,0.9-0.1,1.7-0.1,2.6c0,4,0.5,8,1.4,12l0.3,0.4l0.6,0c1.5-0.2,2.9-0.6,4.3-1.1
		C107.5,276,108.6,274.9,109.4,273.5"/>
	<path class="st1" d="M446.7,308.3c5.3,0.1,10.1,1.8,15.3,3.2c1,0.3,2.7,0.5,3.7,0.5c1.2,0.1,2.4-0.5,3.2-1.6
		c0.4-0.9,0.5-1.9,0.4-2.8c-0.3-1.3-1.1-2.4-2.3-3.1l-1-0.6l-0.9-0.6"/>
	<path class="st1" d="M534,313.4l-0.6,0.9l-0.9,0.6l-0.9,0.2l-0.8-0.1c-3.8-0.2-7.7-0.3-11.5-0.3c-1.4,0-2.7-0.1-4-0.4l-0.3-0.1
		c-0.6-0.8-0.7-1.7-0.5-2.6l0.2-0.5l0.3-0.3c1-0.9,2.1-1.7,3.2-2.4l0.1-0.2l0-0.3l5.4-32.8c0.1-0.5,0.2-1.1,0.3-1.6l-0.1-0.1
		c-0.5-0.1-1-0.2-1.5-0.4c-0.8-0.2-1.5-0.6-2.1-1.1l-0.6-0.7c-0.3-0.3-0.4-0.8-0.3-1.2c0.2-0.5,0.4-1,0.8-1.4
		c0.4-0.4,0.8-0.7,1.4-0.9c3.8-1.6,7.3-3.9,10.2-6.9c1-1,2.3-1.6,3.6-1.9c0.5-0.2,1.1-0.2,1.6-0.1c0.8,0.6,1.5,1.3,2,2.2
		c5.8,11.3,10,23.4,12.5,35.8c0.3,1.5,0.6,3.1,0.8,4.6v0.1c0.1,0.5,0.4,1,0.9,1.2c0.6,0.1,1.2,0.4,1.7,0.8c0.8,1,1.4,2.3,1.5,3.6
		c0.3,1.4,0,2.8-0.8,3.9c-0.2,0.4-0.6,0.7-1,0.7c-0.6,0.2-1.2,0.4-1.9,0.5c-0.4,0.1-0.9,0.2-1.3,0.1c-3.8,0-7.6,0.2-11.4,0.6l-0.6,0
		c-0.9,0.1-1.7,0-2.6-0.1c-0.9-0.2-1.8-0.7-2.4-1.4l-0.8-0.9c-0.3-0.5-0.4-1.1-0.1-1.6c0.1-0.9,0.7-1.8,1.6-2.2l0.8-0.5
		c0.6-0.6,0.9-1.4,0.7-2.2c-0.2-1-0.7-2-1.5-2.6c-2.3-0.7-4.8-0.3-6.6,1.2c-1,1.2-1.1,3-0.1,4.3c0.4,0.7,1,1.3,1.8,1.8
		c0.4,0.2,0.8,0.5,1.1,0.8c0.9,0.8,1.7,1.6,2.3,2.6C533.8,312.3,534,312.9,534,313.4"/>
	<path class="st2" d="M530.1,279.3L530.1,279.3l-0.2,0.3l-0.1,0.4c-0.6,3.9-1,7.9-1.2,11.9l0,0.1l0.2,0.5l0.2,0.1
		c1.2,0.4,2.6,0.2,3.7-0.4l0.3-0.4l0.1-0.5c-0.7-3.9-1.7-7.7-2.9-11.4L530.1,279.3"/>
	<path class="st1" d="M274.7,308.6l-0.7,0.8l-1.1,0.6l-1,0.1l-0.9-0.1c-4.3-0.2-8.6-0.3-12.9-0.3c-1.5,0-3-0.1-4.5-0.4l-0.3-0.1
		c-0.6-0.7-0.8-1.6-0.5-2.5l0.2-0.4l0.3-0.3c1.1-0.8,2.3-1.6,3.6-2.3l0.1-0.2l0-0.3l6.1-30.5c0.1-0.5,0.2-1,0.3-1.5l-0.1-0.1
		c-0.6-0.1-1.1-0.2-1.7-0.4c-0.9-0.2-1.7-0.6-2.4-1l-0.7-0.6l-0.3-1.1c0.2-0.5,0.5-0.9,0.9-1.3c0.4-0.4,0.9-0.7,1.5-0.8
		c4.3-1.5,8.2-3.6,11.4-6.4c1.1-0.9,2.6-1.5,4.1-1.8c0.6-0.1,1.2-0.2,1.8-0.1c0.9,0.5,1.7,1.2,2.3,2.1c6.5,10.5,11.2,21.7,14.1,33.3
		c0.4,1.4,0.7,2.8,0.9,4.3v0.1c0.1,0.5,0.5,0.9,1,1.1c0.7,0.1,1.4,0.3,1.9,0.7c0.9,1,1.5,2.1,1.7,3.3c0.3,1.3,0,2.6-0.9,3.6
		c-0.2,0.4-0.6,0.6-1.1,0.7c-0.7,0.2-1.4,0.3-2.1,0.5c-0.5,0.1-1,0.2-1.5,0.1c-4.3,0-8.6,0.2-12.9,0.5l-0.6,0c-1,0.1-1.9,0-2.9-0.1
		c-1.1-0.2-2-0.6-2.7-1.3l-0.9-0.8c-0.4-0.4-0.4-1-0.1-1.5c0.2-0.9,0.8-1.6,1.8-2.1l1-0.4c0.7-0.5,1-1.3,0.8-2.1
		c-0.2-1-0.8-1.8-1.7-2.5c-2.6-0.7-5.4-0.2-7.5,1.1c-1.1,1.1-1.2,2.8-0.1,3.9c0.5,0.7,1.2,1.3,2,1.6c0.5,0.2,0.9,0.4,1.3,0.7
		c1,0.7,1.9,1.5,2.6,2.4C274.5,307.5,274.7,308,274.7,308.6"/>
	<path class="st2" d="M270.3,276.8L270.3,276.8l-0.2,0.3l-0.1,0.4c-0.6,3.7-1.1,7.3-1.3,11l0,0.1l0.3,0.5l0.3,0
		c1.4,0.3,2.9,0.2,4.2-0.4l0.3-0.3l0.1-0.5c-0.8-3.6-1.9-7.2-3.3-10.6L270.3,276.8"/>
	<path class="st0" d="M486.9,407.1c-4-0.3-8-0.9-11.9-1.9l-0.1,0c-3-0.7-6-1.8-8.8-3.3l-0.1-0.1c-1.7-1.1-3.1-2.4-4.4-4
		c-0.8-1.1-1.1-2.5-0.9-3.9c-0.2-2.8-0.2-5.6,0-8.3c1.1-10,2.5-20,3.9-30c0.7-3.4,1.6-6.8,2.7-10.2c0.6-3.3,2.7-6,5.7-7.4
		c4.6-1.7,9.5-2.4,14.3-2.2c5.4-0.2,10.8,0.5,16,2.1c2.2,0.4,4.3,1.4,6.1,2.7l0.1,0.1c1.5,1,2.5,2.7,2.8,4.5c0.5,2,0.5,4.1-0.1,6.1
		c-0.1,1.8-1.3,3.4-2.9,4.1c-0.4,0.2-0.9,0.3-1.4,0.4c-1.9,0.5-3.8,0.7-5.7,0.5c-1.5,0-2.9,0.2-4.3,0.6c-0.9,0.3-1.6,1-1.9,1.8
		c-0.4,1,0.1,2.2,1.1,2.7c1.9,0.7,3.8,1.1,5.8,1.5c1.8,0.4,3.6,0.9,5.3,1.5c1.3,0.6,2.4,1.5,3.1,2.8c1.1,2.4,1.2,5.2,0.2,7.7
		c-0.5,2.2-1.9,4-3.8,5.1c-0.6,0.4-1.2,0.6-1.8,0.7c-2.6,0.5-5.2,0.6-7.8,0.4l-0.6,0l-0.5,0.5c-0.6,0.8-0.9,1.9-0.6,2.9l0.9,0.5
		l0.4,0c1.8-0.3,3.6-0.3,5.4-0.2c2.1,0.1,4.2,0.7,6,1.8c2.2,1.6,3.9,4,4.7,6.6c0.2,3-0.6,5.9-2.4,8.3c-1.3,1.7-3.1,3-5.1,3.6
		l-0.2,0.1c-2.2,0.9-4.4,1.5-6.8,1.9l-0.2,0C495.1,407.5,491,407.5,486.9,407.1"/>
	<path class="st0" d="M486.9,407.1l-0.1,1.2c-4.1-0.3-8.2-0.9-12.1-1.9l0.3-1.1l-0.2,1.1l-0.1,0l0,0l0,0c-3.1-0.8-6.2-1.9-9.1-3.4
		l-0.1,0l-0.1-0.1l0.7-0.9l-0.6,1c-1.8-1.2-3.3-2.6-4.7-4.3l0,0l0,0c-0.8-1.1-1.2-2.4-1.2-3.7l0.1-1l1.1,0.2l-1.2,0.1
		c-0.1-1.4-0.1-2.8-0.1-4.3c0-1.4,0-2.8,0.1-4.2v0l0,0c1.1-10,2.5-20,3.9-30l0,0l0,0c0.7-3.5,1.6-6.9,2.8-10.3l1.1,0.4l-1.1-0.2
		c0.6-3.6,3-6.7,6.4-8.3l0,0l0,0c4.2-1.5,8.5-2.3,12.9-2.3c0.6,0,1.2,0,1.8,0l-0.1,1.2l0-1.2c0.6,0,1.2,0,1.8,0
		c4.9,0,9.8,0.7,14.6,2.2l-0.3,1.1l0.2-1.1c2.4,0.5,4.7,1.5,6.6,2.9l-0.7,0.9l0.7-0.9l0.1,0.1l-0.7,0.9l0.7-1c1.8,1.2,3,3.1,3.2,5.3
		l-1.1,0.2l1.1-0.3c0.3,1,0.4,2.1,0.4,3.2c0,1.2-0.2,2.3-0.4,3.4l-1.1-0.3l1.2,0.1c-0.2,2.2-1.6,4.2-3.6,5.1l0,0l0,0
		c-0.5,0.2-1,0.4-1.5,0.5l-0.2-1.1l0.3,1.1c-1.5,0.4-3.1,0.6-4.7,0.6c-0.5,0-0.9,0-1.4-0.1l0.1-1.2l0,1.2l-0.4,0
		c-1.2,0-2.4,0.2-3.6,0.5l-0.3-1.1l0.4,1.1c-0.6,0.2-1,0.6-1.3,1.2l-1.1-0.4l1.1,0.4l-0.1,0.4l0.6,1l-0.5,1l0.4-1.1
		c1.8,0.6,3.7,1.1,5.6,1.4l0,0l0,0c1.9,0.4,3.7,0.9,5.5,1.6l0,0l0,0c1.5,0.7,2.8,1.8,3.7,3.2l0,0l0,0.1c0.7,1.5,1,3,1,4.6
		c0,1.3-0.2,2.7-0.7,4l-1.1-0.4l1.1,0.3c-0.6,2.5-2.2,4.6-4.3,5.8l-0.6-1l0.6,1c-0.7,0.5-1.5,0.8-2.3,0.9l-0.1-1.1l0.2,1.1
		c-1.9,0.4-3.8,0.5-5.7,0.5c-0.8,0-1.6,0-2.5-0.1l0.1-1.2l0.1,1.2l-0.2,0l-0.2,0.2l-0.8-0.8l0.9,0.7c-0.3,0.4-0.5,0.9-0.5,1.4
		l0.1,0.5l-1.1,0.3l0.5-1l0.6,0.3l0.1,0l0.1,1.2l-0.2-1.1c1.3-0.2,2.7-0.3,4-0.3c0.5,0,1.1,0,1.6,0h0c2.3,0.1,4.5,0.8,6.5,2l0,0l0,0
		c2.4,1.8,4.2,4.3,5.1,7.2l0,0.1l0,0.1l0,1c0,2.9-0.9,5.7-2.7,8.1l-0.9-0.7l0.9,0.7c-1.4,1.9-3.4,3.4-5.7,4.1l-0.3-1.1l0.5,1
		l-0.2,0.1l0,0l0,0c-2.3,0.9-4.6,1.6-7,2l0,0l-0.2,0l-0.1-1.2l0.1,1.1c-2.1,0.2-4.2,0.3-6.3,0.3c-2.1,0-4.1-0.1-6.1-0.3L486.9,407.1
		l-0.1,1.2L486.9,407.1l0.1-1.2c2,0.2,4,0.3,5.9,0.3c2,0,4-0.1,6-0.3l0,0l0.2,0l0.1,1.2l-0.2-1.1c2.2-0.4,4.4-1,6.5-1.9l0.4,1.1
		l-0.5-1l0.2-0.1l0.1,0l0.1,0c1.8-0.5,3.4-1.7,4.5-3.2l0,0l0,0c1.5-1.9,2.2-4.3,2.2-6.7l0-0.8l1.2-0.1l-1.1,0.4
		c-0.8-2.4-2.3-4.5-4.3-6l0.7-0.9l-0.6,1c-1.7-1-3.5-1.6-5.4-1.6h0c-0.5,0-1,0-1.5,0c-1.2,0-2.5,0.1-3.7,0.3l0,0l-0.4,0l-0.3,0
		l-1.2-0.6l-0.5-0.2l-0.1-0.5l-0.1-1c0-1,0.3-2,1-2.8l0-0.1l0.6-0.6l0.3-0.3l1.1-0.1l0.1,0l0.1,0c0.8,0.1,1.5,0.1,2.3,0.1
		c1.8,0,3.5-0.2,5.2-0.5l0,0l0,0c0.5-0.1,0.9-0.2,1.3-0.5l0,0l0,0c1.6-0.9,2.8-2.5,3.2-4.4l0-0.1l0-0.1c0.4-1,0.6-2.1,0.6-3.1
		c0-1.3-0.3-2.5-0.8-3.7l1-0.5l-1,0.6c-0.6-1-1.5-1.8-2.6-2.3l0.5-1.1l-0.4,1.1c-1.7-0.6-3.4-1.1-5.2-1.5l0.2-1.1l-0.2,1.1
		c-2-0.3-4-0.8-6-1.5l-0.1,0l-0.1,0c-1.1-0.6-1.8-1.8-1.8-3l0.2-1.1l0,0l0,0c0.5-1.1,1.4-2,2.6-2.5l0,0l0,0c1.4-0.4,2.8-0.6,4.2-0.6
		l0.4,0h0h0c0.4,0,0.8,0,1.2,0c1.4,0,2.7-0.2,4.1-0.5l0,0l0,0l1.2-0.4l0.4,1.1l-0.5-1.1c1.3-0.5,2.1-1.7,2.2-3.1l0-0.1l0-0.1
		c0.2-0.9,0.4-1.9,0.4-2.9c0-0.9-0.1-1.8-0.3-2.6l0-0.1l0-0.1c-0.2-1.5-1-2.8-2.3-3.7l-0.2-0.1l0,0l0,0c-1.7-1.2-3.6-2.1-5.6-2.5
		l-0.1,0l-0.1,0c-4.5-1.4-9.2-2-13.9-2c-0.6,0-1.2,0-1.8,0l0,0l0,0c-0.6,0-1.2,0-1.7,0c-4.1,0-8.3,0.7-12.1,2.2l-0.4-1.1l0.5,1
		c-2.7,1.2-4.6,3.7-5.1,6.6l0,0.1l0,0.1c-1.1,3.3-2,6.6-2.7,10l-1.1-0.2l1.1,0.2c-1.5,10-2.8,19.9-3.9,29.9l-1.1-0.1l1.2,0.1
		c-0.1,1.4-0.1,2.7-0.1,4.1c0,1.4,0,2.8,0.1,4.1l0,0.1l0,0.1l0,0.6c0,0.9,0.3,1.7,0.8,2.4l-0.9,0.7l0.9-0.7c1.2,1.5,2.6,2.7,4.1,3.8
		l0,0l0.1,0.1l-0.7,0.9l0.5-1c2.7,1.4,5.6,2.5,8.5,3.2l-0.3,1.1l0.2-1.1l0.1,0l0,0l0,0c3.8,1,7.8,1.6,11.7,1.8h0h0L486.9,407.1z"/>
	<path class="st0" d="M407.9,396.5c0-1.1,0.5-2.2,1.4-2.8l0.1-0.1c1-1,2-2.1,2.9-3.2c0.6-1.5,0.9-3.1,0.8-4.7
		c-0.3-6.8-0.9-13.6-1.8-20.3c-0.8-4.7-2-9.3-3.7-13.8c-0.6-1.1-1.6-1.9-2.9-2.1c-1.3-0.2-2.6-0.8-3.7-1.5c-0.6-1.1-0.6-2.3,0-3.4
		l0,0c0.7-0.8,1.5-1.5,2.4-2.1c1.8-1.3,3.7-2.2,5.8-2.8c8-2.7,16.4-3.9,24.8-3.4c3.2,0.2,6.5,0.6,9.7,1.2c1.6,0.4,3.2,1,4.7,1.8
		c0.9,0.6,1.5,1.6,1.6,2.7l-0.1,0.6l-0.2,0.4c-0.3,0.3-0.7,0.5-1.1,0.6l-0.1,0.1c-0.8,0.4-1.7,0.8-2.6,1c-1.3,0.2-2.4,0.8-3.2,1.8
		l-0.2,0.3c-0.3,0.4-0.4,0.9-0.4,1.4c0.2,2.9,0.6,5.8,1.3,8.6c1.6,6.5,2.7,13.1,3.4,19.8c0,1.3,0.3,2.6,0.7,3.8
		c0.7,1.2,1.8,2.2,3.1,2.6c1.2,0.2,2.4,0.4,3.6,0.8c0.8,0.2,1.5,0.6,1.9,1.3c0.8,1.3,1.3,2.7,1.3,4.2c0.3,1.2,0.2,2.5-0.4,3.7
		c-0.3,0.6-0.9,1.1-1.5,1.4c-1.3,0.8-2.6,1.4-4,1.9c-12.1,4-24.8,5.6-37.5,4.8c-1.6,0.2-3.1-0.2-4.4-1.2
		C408.7,398.9,408.1,397.8,407.9,396.5"/>
	<path class="st0" d="M407.9,396.5l-1.2,0c0-1.5,0.7-2.8,1.8-3.7l0.7,0.9l-0.9-0.7l0.1-0.1l0-0.1l0,0c1-1,1.9-2,2.8-3.1l0.9,0.7
		l-1.1-0.5c0.5-1.1,0.7-2.3,0.7-3.5l0-0.7v0v0c-0.3-6.8-0.9-13.5-1.8-20.2l1.1-0.2l-1.1,0.2c-0.7-4.6-2-9.2-3.6-13.5l1.1-0.4l-1,0.5
		c-0.4-0.8-1.2-1.4-2.1-1.5l0.2-1.1l-0.2,1.1c-1.5-0.3-2.9-0.8-4.2-1.6l-0.2-0.2l-0.1-0.3c-0.4-0.7-0.6-1.5-0.6-2.2
		c0-0.8,0.2-1.6,0.6-2.3l0,0l0-0.1l0.1-0.1l0.1-0.1c0.8-0.8,1.6-1.6,2.5-2.2l0,0c1.9-1.4,4-2.4,6.2-3l0.3,1.1l-0.4-1.1
		c6.9-2.4,14.2-3.6,21.5-3.6c1.2,0,2.5,0,3.7,0.1h0c3.3,0.2,6.6,0.6,9.8,1.2l0,0l0,0c1.7,0.4,3.4,1.1,4.9,1.9l0,0l0,0
		c1.2,0.8,2,2.1,2.1,3.5l0,0.1l-0.1,0.7l0,0.3l-0.4,0.6l-0.1,0.1l-0.1,0.1c-0.4,0.4-1,0.8-1.6,0.9l-0.3-1.1l0.7,0.9l-0.1,0.1l-0.1,0
		l-0.1,0c-0.9,0.4-1.8,0.8-2.8,1.1l-0.1,0l-0.1,0c-1,0.1-1.8,0.6-2.4,1.4l-0.9-0.7l1,0.5l-0.2,0.3l0,0.1l0,0.1l-0.2,0.6l0,0.1
		c0.2,2.8,0.6,5.7,1.3,8.4l0,0c1.6,6.6,2.7,13.2,3.4,19.9l0,0.1v0.1c0,1.2,0.2,2.3,0.7,3.4l-1.1,0.4l1-0.5c0.5,1,1.4,1.7,2.4,2
		l-0.3,1.1l0.1-1.1c1.3,0.2,2.6,0.4,3.8,0.8l-0.3,1.1l0.2-1.1c1.1,0.2,2,0.9,2.6,1.7l0,0l0,0c0.9,1.4,1.5,3.1,1.5,4.8l-1.2,0
		l1.1-0.3c0.1,0.5,0.2,1.1,0.2,1.6c0,1-0.2,2-0.6,2.9l0,0l0,0c-0.5,0.8-1.1,1.5-2,1.9l-0.5-1.1l0.6,1c-1.3,0.8-2.7,1.5-4.2,2l0,0
		c-10.1,3.4-20.8,5.1-31.4,5.1c-2.2,0-4.3-0.1-6.5-0.2l0.1-1.2l0.1,1.1l-0.8,0c-1.6,0-3.1-0.5-4.4-1.4l0.7-0.9l-0.7,1
		c-1.3-0.9-2.2-2.3-2.3-3.9l0-0.1v-0.1L407.9,396.5l1.1-0.1c0.1,0.9,0.6,1.8,1.4,2.3l0,0l0,0c0.9,0.6,1.9,1,3,1l0.6,0l0.1,0l0.1,0
		c2.1,0.1,4.2,0.2,6.3,0.2c10.4,0,20.8-1.7,30.7-5l0.4,1.1l-0.4-1.1c1.3-0.5,2.6-1.1,3.8-1.8l0.1,0l0.1,0c0.4-0.2,0.7-0.5,1-0.9
		l1,0.6l-1-0.5c0.3-0.6,0.4-1.2,0.4-1.9l-0.1-1.1l0-0.1V389c0-1.3-0.4-2.5-1.1-3.6l1-0.6l-0.9,0.7c-0.3-0.4-0.7-0.7-1.2-0.8l-0.1,0
		l0,0c-1.1-0.3-2.3-0.6-3.4-0.7l-0.1,0l-0.1,0c-1.6-0.5-3-1.6-3.8-3.1l0-0.1l0-0.1c-0.5-1.4-0.8-2.8-0.8-4.2l1.2,0l-1.1,0.1
		c-0.7-6.6-1.8-13.2-3.4-19.6l0,0c-0.7-2.9-1.1-5.8-1.3-8.8l0-0.2c0-0.7,0.2-1.4,0.6-1.9l1,0.6l-1-0.5l0.2-0.3l0-0.1l0.1-0.1
		c1-1.2,2.4-2,4-2.2l0.1,1.1l-0.3-1.1c0.8-0.2,1.6-0.5,2.4-0.9l0.5,1l-0.7-0.9l0.1-0.1l0.2-0.1l0.2-0.1l0.6-0.4l0.8,0.8l-1-0.6
		l0.1-0.2l0-0.3l1.1,0.1l-1.2,0.1c-0.1-0.7-0.4-1.4-1.1-1.8l0.6-1l-0.5,1c-1.4-0.7-2.9-1.3-4.4-1.7l0.3-1.1l-0.2,1.1
		c-3.2-0.6-6.4-0.9-9.6-1.1h0c-1.2-0.1-2.4-0.1-3.6-0.1c-7,0-14.1,1.2-20.8,3.5l0,0l0,0c-2,0.5-3.8,1.4-5.4,2.6l0,0
		c-0.8,0.6-1.5,1.2-2.2,2l-0.8-0.8l1,0.6l0,0l-1-0.6l1,0.6l-0.3,1.1l0.3,1.1l-1,0.6l0.6-1c1,0.7,2.2,1.1,3.3,1.3h0l0,0
		c1.6,0.3,2.9,1.3,3.6,2.7l0,0.1l0,0.1c1.7,4.5,3,9.2,3.8,14l0,0v0c0.9,6.8,1.5,13.6,1.8,20.4l-1.2,0l1.2-0.1l0,0.8
		c0,1.5-0.3,3-0.9,4.4l-0.1,0.1l-0.1,0.1c-0.9,1.2-1.9,2.3-3,3.3l-0.8-0.8l0.9,0.7l-0.1,0.1l-0.1,0.1l-0.1,0.1
		c-0.6,0.5-0.9,1.2-1,1.9L407.9,396.5l1.1-0.1L407.9,396.5z"/>
	<path class="st0" d="M328.9,406.9c-4-0.7-7.9-1.8-11.5-3.5c-1.3-0.5-2.5-1.2-3.6-2c-0.8-1.2-1.1-2.5-1.1-3.9
		c0.2-2.3,0.6-4.5,1.2-6.7l4.1-12.3c2-7.2,2.6-14.6,1.9-22.1c-0.3-2.5-0.5-4.9-0.7-7.4c-0.2-1.2,0.1-2.5,0.7-3.6
		c0.6-0.9,1.5-1.5,2.5-1.9c2.6-0.7,5.1-1.3,7.8-1.8c4.1-0.6,8.2-0.7,12.3-0.1c0.6,0,1.2,0.2,1.7,0.4c0.7,0.4,1.3,1.1,1.6,1.9
		c0.5,1.6,1,3.1,1.5,4.7c0.3,1.5,0.8,3.1,1.2,4.6c0.2,0.8,0.8,1.4,1.6,1.7c1.3,0.4,2.7,0.5,4,0.3l1-0.2c1.2-0.3,2.4-0.6,3.6-1
		c1.3-0.5,2.5-1.2,3.6-2.1c2.5-1.8,4.7-4,6.5-6.4l0.2-0.3c1-1.4,2-2.8,2.9-4.3c0.8-1,1.5-2.1,2.3-3.1c0.5-0.6,1.2-1,1.9-1.2l0.1,0
		c1-0.4,2.2-0.5,3.3-0.3c6,0.6,11.4,3.5,15.3,8.1c1.1,1.1,1.5,2.7,1,4.2c-0.3,1.1-0.7,2.1-1.2,3.1c-1.1,2.4-2.5,4.6-4.2,6.6
		c-2.1,2.9-4.3,5.8-6.3,8.7c-0.6,0.8-0.8,1.9-0.7,2.9l0.3,1.1c1,1.2,2.2,2.4,3.3,3.5c1,0.9,2,1.7,3.2,2.3c2.1,1.4,3.9,3.1,5.4,5.1
		c3.1,3.1,5.4,6.9,6.5,11.1l-0.1,0.2c-0.4,0.9-1.1,1.7-2,2.3c-6.9,5.9-15.5,9.7-24.5,10.7c-1.1,0.1-2.2,0-3.2-0.3l-1-0.6l-0.6-0.7
		c-1.1-1.3-2-2.6-2.8-4.2c-1.2-2.1-2.8-4.1-4.7-5.6c-1.6-1.4-3.3-2.6-5.2-3.6l-0.9-0.3c-1.4-0.3-2.8-0.3-4.2,0
		c-0.7,0.2-1.4,0.6-1.9,1.1l-0.1,0.1c-0.6,0.5-0.9,1.2-0.9,2c-0.3,2.1-0.2,4.3,0.1,6.4c0.2,1.2,0.2,2.5,0.1,3.7
		c0,0.6-0.5,1.2-1.1,1.4l-1,0.4c-1.7,0.3-3.4,0.7-5,1.1C338.2,407.7,333.5,407.6,328.9,406.9"/>
	<path class="st0" d="M328.9,406.9l-0.2,1.1c-4.1-0.7-8-1.9-11.8-3.6l0.5-1.1l-0.4,1.1c-1.4-0.6-2.7-1.3-3.9-2.2l-0.2-0.1l-0.1-0.2
		c-0.8-1.3-1.3-2.9-1.3-4.4l0-0.1v0l0,0c0.2-2.3,0.6-4.6,1.2-6.9l0,0l4.1-12.3l1.1,0.4l-1.1-0.3c1.4-5.1,2.1-10.3,2.1-15.5
		c0-2-0.1-4.1-0.3-6.1v0c-0.3-2.5-0.5-5-0.7-7.4l1.2-0.1l-1.1,0.2l-0.1-1c0-1.2,0.3-2.3,1-3.3l0,0l0,0c0.8-1,1.8-1.8,3.1-2.3l0,0
		l0,0c2.6-0.7,5.2-1.3,7.9-1.8l0,0h0c2.2-0.4,4.5-0.5,6.7-0.5c2,0,4,0.1,5.9,0.4l-0.2,1.1v-1.2c0.8,0,1.6,0.2,2.3,0.6
		c1,0.5,1.7,1.4,2.1,2.5c0.5,1.6,1,3.1,1.5,4.7l0,0l0,0c0.3,1.5,0.7,3,1.2,4.5l0,0l0,0c0.1,0.4,0.4,0.8,0.8,0.9l-0.4,1.1l0.3-1.1
		c0.8,0.2,1.6,0.4,2.5,0.4l1-0.1l0.1,1.1l-0.2-1.1l1-0.2l0.2,1.1l-0.2-1.1c1.2-0.2,2.3-0.6,3.4-1l0.4,1.1l-0.4-1.1
		c1.2-0.5,2.3-1.1,3.3-1.9l0,0l0,0c2.4-1.7,4.5-3.8,6.3-6.2l0.9,0.7l-0.9-0.7l0.2-0.3l0.9,0.7l-0.9-0.7c1-1.4,1.9-2.8,2.9-4.2l0,0
		l0,0c0.8-1,1.5-2,2.2-3.1l0,0l0,0c0.7-0.8,1.5-1.3,2.4-1.6l0,0l0.1,0l0.4,1.1l-0.4-1.1c0.9-0.3,1.8-0.5,2.7-0.5l1.1,0.1l-0.2,1.1
		l0.1-1.1c6.2,0.7,12,3.7,16.1,8.5l-0.9,0.8l0.8-0.8c1,1,1.6,2.3,1.6,3.7c0,0.6-0.1,1.1-0.3,1.7l-1.1-0.4l1.1,0.3
		c-0.3,1.2-0.7,2.3-1.3,3.4l-1-0.6l1,0.5c-1.2,2.4-2.6,4.8-4.3,6.9l-0.9-0.7l0.9,0.7c-2.1,2.8-4.2,5.8-6.3,8.7l0,0
		c-0.3,0.5-0.5,1.1-0.5,1.7l0,0.4l-1.1,0.2l1.1-0.3l0.3,1.1l-1.1,0.3l0.9-0.8c1,1.2,2.1,2.3,3.2,3.4l-0.8,0.8l0.8-0.9
		c0.9,0.8,1.9,1.6,3,2.2l0,0l0,0c2.2,1.5,4.1,3.3,5.6,5.4l-0.9,0.7l0.8-0.8c3.2,3.2,5.6,7.2,6.8,11.6l0.1,0.4l-0.3,0.6l-1-0.6l1,0.5
		c-0.5,1.1-1.4,2.1-2.4,2.8l-0.6-1l0.8,0.9c-7.1,6.1-15.9,9.9-25.2,11h0l-1,0c-0.9,0-1.8-0.1-2.7-0.4l-0.2,0l-1.1-0.7l-0.1-0.1
		l-0.8-0.9l0.9-0.8l-0.9,0.8c-1.2-1.3-2.2-2.8-3-4.4l1-0.5l-1,0.6c-1.1-2-2.6-3.8-4.4-5.3l0,0c-1.6-1.3-3.2-2.5-5-3.5l0.6-1
		l-0.3,1.1l-0.9-0.3l0.3-1.1l-0.3,1.1c-0.6-0.1-1.2-0.2-1.8-0.2c-0.6,0-1.3,0.1-1.9,0.2l-0.3-1.1l0.3,1.1c-0.6,0.2-1.1,0.5-1.5,0.9
		l-0.8-0.8l1,0.6l-0.1,0.1l-0.1,0.1l-0.1,0.1l-0.5,1h-0.2l0.2,0v0h-0.2l0.2,0l0,0.1l0,0.1c-0.1,0.9-0.2,1.7-0.2,2.6
		c0,1.2,0.1,2.3,0.3,3.4l0,0l0,0c0.1,0.8,0.2,1.6,0.2,2.5c0,0.5,0,1-0.1,1.5l-1.2-0.1l1.2,0.1c-0.1,1.2-0.9,2.1-2,2.4l-0.3-1.1
		l0.4,1.1l-1,0.4l-0.1,0l-0.1,0c-1.7,0.3-3.3,0.7-5,1.1l-0.1,0l-0.1,0c-2.2,0.3-4.3,0.4-6.5,0.4c-2.6,0-5.2-0.2-7.7-0.6l0,0
		L328.9,406.9l0.2-1.1c2.4,0.4,4.9,0.5,7.4,0.5c2.1,0,4.1-0.1,6.2-0.4l0.1,1.1l-0.3-1.1c1.7-0.4,3.4-0.8,5.1-1.1l0.2,1.1l-0.4-1.1
		l1-0.4l0,0l0,0l0.3-0.3v0v0c0-0.4,0.1-0.9,0.1-1.3c0-0.7,0-1.5-0.1-2.2l1.1-0.1l-1.1,0.2c-0.2-1.3-0.3-2.6-0.3-3.9
		c0-1,0.1-1.9,0.2-2.9l1.1,0.2l-1.2,0.1l0-0.1c0-1.1,0.5-2.1,1.3-2.8l0.7,0.9l-1-0.6l0.1-0.1l0.1-0.1l0.1-0.1
		c0.7-0.6,1.5-1.1,2.4-1.4l0,0l0,0c0.8-0.2,1.6-0.3,2.4-0.3c0.8,0,1.5,0.1,2.3,0.3l0,0l1,0.3l0.1,0l0.1,0.1c1.9,1.1,3.7,2.3,5.4,3.7
		l-0.7,0.9l0.7-0.9c2,1.7,3.7,3.7,5,6l0,0l0,0c0.7,1.4,1.6,2.7,2.6,3.9l0.5,0.6l0.8,0.5l-0.6,1l0.3-1.1c0.7,0.2,1.4,0.3,2,0.3l0.7,0
		l0.1,1.1l-0.1-1.1c8.8-1,17.2-4.7,23.9-10.5l0.1,0l0,0c0.7-0.5,1.2-1.1,1.6-1.8l0,0l0.1-0.2l1,0.6l-1.1,0.3
		c-1.1-4-3.3-7.7-6.2-10.6l-0.1-0.1l0-0.1c-1.4-1.9-3.1-3.5-5.1-4.8l0.6-1l-0.6,1c-1.2-0.7-2.3-1.5-3.4-2.5l0,0l0,0
		c-1.2-1.1-2.3-2.4-3.4-3.6l-0.2-0.2l-0.4-1.4l0-0.1l0-0.1l0-0.7c0-1.1,0.3-2.1,0.9-3l0,0v0c2.1-3,4.2-5.9,6.3-8.7l0,0l0,0
		c1.6-2,2.9-4.1,4-6.4l0,0l0,0c0.5-0.9,0.9-1.8,1.1-2.8l0-0.1l0-0.1l0.2-0.9c0-0.8-0.3-1.5-0.9-2l0,0l0,0c-3.7-4.3-8.9-7.1-14.6-7.7
		h0l0,0l-0.8-0.1c-0.6,0-1.3,0.1-1.9,0.3l0,0l-0.1,0l0,0h0c-0.5,0.2-1,0.5-1.4,0.9l-0.9-0.8l0.9,0.7c-0.7,1-1.5,2.1-2.3,3.1
		l-0.9-0.7l1,0.6c-1,1.4-1.9,2.9-2.9,4.3l0,0l-0.2,0.3l0,0l0,0c-1.9,2.5-4.2,4.8-6.8,6.7l-0.7-0.9l0.7,0.9c-1.2,0.9-2.5,1.7-3.9,2.2
		l0,0c-1.2,0.4-2.5,0.8-3.8,1.1l0,0l-1,0.2l0,0l0,0c-0.4,0.1-0.9,0.1-1.3,0.1c-1.1,0-2.1-0.2-3.2-0.5l0,0l0,0
		c-1.1-0.4-2-1.3-2.3-2.5l1.1-0.3l-1.1,0.3c-0.5-1.5-0.9-3.1-1.2-4.7l1.1-0.3l-1.1,0.3c-0.5-1.6-1-3.1-1.5-4.7c-0.2-0.5-0.5-1-1-1.2
		c-0.4-0.2-0.8-0.3-1.2-0.3h-0.1l-0.1,0c-1.9-0.3-3.7-0.4-5.6-0.4c-2.1,0-4.3,0.2-6.4,0.5l-0.2-1.1l0.2,1.1c-2.6,0.5-5.1,1-7.7,1.8
		l-0.3-1.1l0.4,1.1c-0.8,0.3-1.5,0.8-2,1.5l-0.9-0.7l1,0.6c-0.4,0.6-0.6,1.4-0.6,2.1l0.1,0.6l0,0l0,0c0.2,2.5,0.5,4.9,0.7,7.4v0v0
		c0.2,2.1,0.3,4.2,0.3,6.3c0,5.4-0.7,10.9-2.2,16.1l0,0l-4.1,12.3l-1.1-0.4l1.1,0.3c-0.5,2.1-0.9,4.3-1.1,6.5l-1.1-0.1l1.2,0v0.1
		c0,1.1,0.3,2.2,0.9,3.2l-1,0.6l0.7-0.9c1,0.8,2.1,1.4,3.3,1.9l0,0l0,0c3.6,1.6,7.4,2.7,11.3,3.4L328.9,406.9l0.2-1.1L328.9,406.9z"
		/>
	<path class="st0" d="M522.3,385.4c0.6-0.9,1.4-1.6,2.4-2.1c0.8-0.4,1.7-0.6,2.5-0.6c1.4,0,2.9,0.2,4.2,0.7c2.5,0.9,5.2,1.1,7.8,0.5
		c2.8-0.4,4.9-2.6,5.3-5.4c0.3-2.4-0.6-4.8-2.4-6.5c-2.6-2.1-5.4-3.8-8.5-5.1c-3.3-1.6-6.3-3.7-9-6.1l-0.3-0.2
		c-1.8-1.3-3.1-3.2-3.9-5.3c-0.9-3.9-0.1-8,2.2-11.3c2.2-3.5,5.8-5.9,9.8-6.9c6.3-1.6,12.8-2.2,19.3-1.8c4.5,0,9,1.3,12.7,3.8
		l0.6,0.5c2.1,1.7,3.4,4.2,3.7,6.9c0.1,0.7,0,1.4-0.3,2.1c-0.4,0.8-1,1.4-1.8,1.8c-0.5,0.2-1,0.4-1.5,0.4l-5.5,1
		c-1.8,0.3-3.4,1.4-4.2,3c-0.6,0.9-0.5,2,0.1,2.8c0.8,1.4,2.1,2.6,3.6,3.2c3.1,1.8,6.2,3.7,9.3,5.7l0.5,0.4
		c3.2,2.9,5.9,6.4,7.8,10.3c1.2,2.8,2,5.9,2.3,8.9c0.8,5.6-1,11.2-4.8,15.3c-2.6,3.2-6.1,5.6-10.1,6.6c-5.2,2.2-10.8,3.1-16.5,2.7
		c-5.9-0.6-11.6-2.4-16.7-5.4c-3.5-1.6-6.5-4.3-8.3-7.7c-1.1-2.1-1.8-4.4-2.2-6.7C520.4,389.1,521,387,522.3,385.4"/>
</g>
<g>
	<path class="st0" d="M522.3,385.4l-1-0.6c0.7-1.1,1.7-2,2.9-2.5l0.5,1l-0.5-1c0.9-0.5,1.9-0.7,2.9-0.7l0.2,0l0,1.2l0-1.2l0.4,0
		c1.4,0,2.9,0.2,4.2,0.7c1.4,0.5,3,0.8,4.5,0.8c0.9,0,1.8-0.1,2.7-0.3l0,0l0,0c2.3-0.3,4-2.1,4.3-4.4l0.1-0.9c0-1.7-0.7-3.4-2.1-4.6
		l0.8-0.9l-0.7,0.9c-2.5-2-5.3-3.7-8.2-5l0,0l0,0c-3.4-1.7-6.5-3.8-9.3-6.3l0,0l-0.3-0.2l0.8-0.8l-0.7,0.9c-2-1.5-3.4-3.5-4.2-5.8
		l0-0.1l0-0.1c-0.3-1.1-0.4-2.3-0.4-3.4c0-3.1,1-6.2,2.8-8.8l0.9,0.7l-1-0.6c2.4-3.7,6.2-6.4,10.5-7.4l0.3,1.1l-0.3-1.1
		c5.1-1.3,10.4-1.9,15.7-1.9c1.3,0,2.6,0,4,0.1l-0.1,1.2l0-1.2l0.2,0c4.7,0,9.3,1.4,13.2,4l0,0l0.6,0.5l0,0l0,0
		c2.3,1.9,3.8,4.7,4.1,7.7l-1.1,0.1l1.1-0.1l0,0.6c0,0.7-0.2,1.5-0.5,2.1l0,0l0,0c-0.5,1-1.3,1.8-2.3,2.3c-0.6,0.3-1.3,0.5-2,0.6
		l-0.1-1.1l0.2,1.1l-5.6,1l0,0c-1.4,0.2-2.7,1.1-3.4,2.4l0,0.1l0,0.1l-0.2,0.7l0.3,0.8l0,0.1l0,0.1c0.7,1.2,1.8,2.2,3.1,2.7l0.1,0
		l0,0c3.2,1.8,6.3,3.7,9.3,5.7l0.1,0l0.6,0.5l0,0l0,0c3.3,3,6,6.6,8.1,10.6l0,0l0,0c1.2,2.9,2.1,6.1,2.4,9.3l-1.1,0.1l1.1-0.2
		c0.1,0.9,0.2,1.8,0.2,2.7c0,5-1.8,9.8-5.2,13.5l-0.9-0.8l0.9,0.7c-2.7,3.4-6.5,5.9-10.7,7l-0.3-1.1l0.4,1.1
		c-4.5,1.9-9.4,2.9-14.3,2.9c-0.9,0-1.8,0-2.7-0.1l0,0h0c-6.1-0.6-11.9-2.5-17.2-5.6l0.6-1l-0.5,1.1c-3.8-1.7-6.9-4.6-8.8-8.3
		c-1.2-2.2-1.9-4.6-2.3-7.1v0l-0.1-1.1c0-2,0.7-3.9,2-5.5L522.3,385.4l-1-0.6L522.3,385.4l0.9,0.7c-0.9,1.1-1.5,2.5-1.5,4l0.1,0.8
		l-1.1,0.2l1.1-0.2c0.3,2.2,1,4.4,2.1,6.4c1.7,3.2,4.4,5.8,7.7,7.2l0.1,0l0.1,0c5,2.9,10.5,4.7,16.2,5.3l-0.1,1.1l0.1-1.2
		c0.8,0.1,1.7,0.1,2.5,0.1c4.6,0,9.2-0.9,13.4-2.7l0.1,0l0.1,0c3.8-1,7.1-3.1,9.5-6.2l0,0l0,0c3-3.3,4.6-7.6,4.6-12
		c0-0.8-0.1-1.6-0.2-2.4l0,0v0c-0.3-3-1.1-5.9-2.2-8.6l1.1-0.4l-1,0.5c-1.9-3.7-4.5-7.1-7.6-10l0.8-0.8l-0.7,0.9l-0.5-0.4l0.7-0.9
		l-0.6,1c-3-2-6.1-3.8-9.2-5.6l0.6-1l-0.5,1.1c-1.7-0.8-3.2-2.1-4.1-3.7l1-0.6l-0.9,0.7c-0.5-0.6-0.8-1.4-0.8-2.2
		c0-0.7,0.2-1.4,0.6-2l1,0.6l-1-0.5c1-2,2.9-3.3,5.1-3.6l0.2,1.1l-0.2-1.1l5.6-1l0,0l1.1-0.3c0.6-0.3,1-0.7,1.3-1.3l1,0.5l-1-0.5
		l0.3-1.1l0-0.3v0v0c-0.2-2.4-1.4-4.6-3.2-6.1l0.7-0.9l-0.7,0.9l-0.6-0.5l0.7-0.9l-0.6,1c-3.5-2.4-7.6-3.6-11.9-3.6l-0.2,0h0l0,0
		c-1.3-0.1-2.5-0.1-3.8-0.1c-5.1,0-10.2,0.6-15.1,1.8h0l0,0c-3.7,0.9-7,3.2-9.1,6.4l0,0l0,0c-1.6,2.2-2.4,4.8-2.4,7.4
		c0,1,0.1,1.9,0.3,2.9l-1.1,0.3l1.1-0.4c0.7,1.9,1.9,3.5,3.5,4.7l0,0l0.3,0.3l-0.8,0.8l0.8-0.9c2.6,2.4,5.6,4.4,8.8,5.9l-0.5,1
		l0.5-1.1c3.1,1.4,6.1,3.2,8.7,5.3l0,0l0,0c1.8,1.6,2.8,3.9,2.8,6.3l-0.1,1.2c-0.5,3.3-3,5.9-6.3,6.3l-0.2-1.1l0.2,1.1
		c-1,0.2-2.1,0.3-3.2,0.3c-1.8,0-3.6-0.3-5.2-0.9c-1.1-0.4-2.3-0.6-3.4-0.6l-0.4,0l0,0l0,0h-0.1c-0.6,0-1.3,0.2-1.8,0.5l0,0l0,0
		c-0.8,0.4-1.5,1-1.9,1.7l0,0.1l0,0.1L522.3,385.4z"/>
	<path class="st0" d="M63.9,393.5c-1.8-4.2-3-8.6-3.3-13.1c-1.2-9,1-18.2,6.1-25.7c5.5-8.7,13.8-15.2,23.6-18.4
		c0.7-0.2,1.4-0.4,2.1-0.6c7.3-2,15.2-1.1,21.9,2.5c4.7,1.5,8.3,5.3,9.6,10c1.1,3.4,0.5,7.2-1.5,10.2c-2.5,3.5-6.5,5.6-10.8,5.6
		c-3.1-0.1-6.2-0.1-9.4-0.1c-4-0.3-7.8,1.6-10,4.8c-2.6,3.8-2.5,8.8,0.3,12.4c1.5,2.1,3.7,3.5,6.3,3.9c3.2,0.6,6.5,0,9.3-1.6
		c2-1.1,3.8-2.4,5.3-4.1c1-1.1,1.8-2.2,2.5-3.5c0.5-0.7,1.1-1.2,1.8-1.6c3.1-2.1,7.1-2.5,10.6-1c5.8,3.8,8.6,10.9,7,17.7
		c-1.1,6.8-5.1,12.8-10.9,16.4c-9,5.8-19.8,8-30.3,6.1c-10.3-1.4-19.7-6.5-26.6-14.3C65.8,397.5,64.6,395.6,63.9,393.5"/>
	<path class="st0" d="M63.9,393.5l-1.1,0.5c-1.9-4.3-3.1-8.8-3.4-13.5l1.2-0.1l-1.1,0.2c-0.2-1.7-0.3-3.3-0.3-5
		c0-7.6,2.3-15.1,6.7-21.5l1,0.6l-1-0.6c5.6-9,14.2-15.6,24.3-18.9l0,0l0,0c0.7-0.2,1.4-0.4,2.2-0.6l0,0l0,0
		c2.7-0.7,5.4-1.1,8.1-1.1c5.1,0,10.1,1.2,14.6,3.7l-0.5,1l0.4-1.1c5,1.6,8.9,5.7,10.4,10.8l-1.1,0.3l1.1-0.3
		c0.4,1.3,0.6,2.6,0.6,3.9c0,2.6-0.8,5.1-2.3,7.3l0,0l0,0c-2.7,3.8-7.1,6-11.8,6.1l0,0l0,0c-2.8-0.1-5.5-0.1-8.3-0.1l-1,0h0l0,0
		l-0.7,0c-3.3,0-6.5,1.6-8.4,4.3l0,0c-1.1,1.6-1.7,3.5-1.7,5.4c0,2,0.6,4,1.9,5.7l0,0l0,0c1.3,1.8,3.3,3.1,5.5,3.5h0l0,0
		c0.8,0.1,1.5,0.2,2.3,0.2c2.2,0,4.3-0.6,6.2-1.7l0,0l0,0c1.9-1,3.6-2.3,5-3.8c0.9-1,1.7-2.1,2.3-3.3l0-0.1l0-0.1
		c0.6-0.8,1.3-1.5,2.2-2l0.6,1l-0.6-1c2.1-1.4,4.5-2.1,6.9-2.1c1.6,0,3.3,0.3,4.8,1l0.1,0l0.1,0.1c5,3.3,7.9,8.9,7.9,14.8
		c0,1.4-0.2,2.8-0.5,4.1l-1.1-0.3l1.1,0.2c-1.1,7.1-5.3,13.4-11.4,17.2l-0.6-1l0.6,1c-7,4.6-15.2,7-23.4,7c-2.6,0-5.1-0.2-7.7-0.7
		l0.2-1.1l-0.2,1.1c-10.6-1.5-20.3-6.7-27.3-14.6l0.9-0.8l-0.8,0.8c-1.7-1.7-2.9-3.7-3.7-6L63.9,393.5l-1.1,0.5L63.9,393.5l1.1-0.4
		c0.7,1.9,1.8,3.7,3.2,5.2l0,0l0,0c6.7,7.6,15.9,12.5,25.9,13.9l0,0l0,0c2.4,0.4,4.9,0.7,7.3,0.7c7.8,0,15.5-2.3,22.2-6.6l0,0l0,0
		c5.6-3.4,9.4-9.2,10.4-15.6l0,0l0,0c0.3-1.2,0.4-2.4,0.4-3.6c0-5.1-2.5-10-6.9-12.9l0.6-1l-0.5,1.1c-1.3-0.5-2.6-0.8-3.9-0.8
		c-2,0-3.9,0.6-5.6,1.7l0,0l0,0c-0.6,0.3-1.1,0.8-1.5,1.3l-0.9-0.7l1,0.5c-0.7,1.4-1.6,2.6-2.7,3.7c-1.6,1.7-3.5,3.2-5.6,4.3l-0.5-1
		l0.6,1c-2.3,1.3-4.8,2-7.4,2c-0.9,0-1.8-0.1-2.7-0.3l0.2-1.1l-0.2,1.1c-2.8-0.5-5.4-2.1-7-4.4l0.9-0.7l-0.9,0.7
		c-1.6-2.1-2.4-4.6-2.4-7.1c0-2.3,0.7-4.7,2.1-6.7l0,0c2.4-3.3,6.2-5.3,10.3-5.3l0.8,0l-0.1,1.2l0-1.2l1,0c2.8,0,5.6,0,8.4,0.1
		l0,1.2l0-1.2c3.9-0.1,7.6-2,9.9-5.2l0.9,0.7l-1-0.7c1.2-1.8,1.9-3.9,1.9-6c0-1.1-0.2-2.1-0.5-3.2l0,0l0,0c-1.2-4.4-4.5-7.8-8.8-9.2
		l-0.1,0l-0.1-0.1c-4.2-2.3-8.8-3.4-13.5-3.4c-2.5,0-5,0.3-7.5,1l0,0h0c-0.7,0.2-1.4,0.4-2.1,0.6l-0.3-1.1l0.4,1.1
		c-9.5,3.1-17.7,9.5-23,18l0,0l0,0c-4.1,6-6.3,13-6.3,20.2c0,1.6,0.1,3.1,0.3,4.7l0,0l0,0c0.3,4.4,1.4,8.7,3.2,12.8l0,0l0,0
		L63.9,393.5z"/>
</g>
<g>
	<path class="st3" d="M483.6,403.5c-4-0.3-8-0.9-11.9-1.9l-0.1,0c-3.1-0.7-6-1.8-8.8-3.3l-0.1-0.1c-1.7-1.1-3.1-2.5-4.4-4
		c-0.8-1.1-1.1-2.5-0.9-3.9c-0.2-2.8-0.2-5.6,0-8.3c1.1-10,2.5-20,3.9-30c0.7-3.4,1.6-6.8,2.7-10.2c0.6-3.3,2.7-6,5.7-7.4
		c4.6-1.7,9.5-2.4,14.3-2.2c5.4-0.2,10.8,0.5,16,2.1c2.2,0.4,4.3,1.3,6.1,2.7l0.1,0.1c1.5,1,2.5,2.7,2.8,4.5c0.5,2,0.5,4.1,0,6.1
		c-0.1,1.8-1.3,3.4-2.9,4.1c-0.4,0.2-0.9,0.3-1.3,0.4c-1.8,0.5-3.8,0.7-5.7,0.5c-1.5-0.1-2.9,0.1-4.3,0.6c-0.9,0.3-1.6,1-1.9,1.8
		c-0.4,1,0.1,2.2,1.1,2.7c1.9,0.7,3.8,1.1,5.8,1.5c1.8,0.4,3.6,0.9,5.3,1.5c1.3,0.6,2.4,1.5,3.1,2.8c1.1,2.4,1.2,5.2,0.3,7.7
		c-0.5,2.1-1.9,4-3.8,5.1c-0.6,0.4-1.2,0.6-1.8,0.7c-2.6,0.5-5.2,0.6-7.8,0.4l-0.6,0l-0.5,0.5c-0.6,0.8-0.9,1.9-0.6,2.9l0.9,0.5
		l0.4,0c1.8-0.3,3.6-0.3,5.4-0.2c2.1,0.1,4.2,0.7,6,1.8c2.2,1.7,3.9,4,4.7,6.6c0.2,3-0.6,5.9-2.4,8.3c-1.3,1.8-3.1,3-5.1,3.6
		l-0.2,0.1c-2.2,0.9-4.5,1.6-6.8,1.9l-0.2,0C491.7,403.9,487.6,403.9,483.6,403.5"/>
	<path class="st2" d="M483.6,403.5l-0.1,1.2c-4.1-0.3-8.2-0.9-12.1-1.9l0.3-1.1l-0.2,1.1l-0.1,0l0,0l0,0c-3.1-0.8-6.2-1.9-9.1-3.4
		l-0.1,0l-0.2-0.1l0.7-0.9l-0.6,1c-1.8-1.2-3.3-2.6-4.7-4.3l0,0l0,0c-0.8-1.1-1.2-2.4-1.2-3.8l0.1-1l1.1,0.2l-1.2,0.1
		c-0.1-1.4-0.1-2.9-0.1-4.3c0-1.4,0-2.8,0.1-4.2v0l0,0c1.1-10,2.5-20,3.9-30l0,0l0,0c0.7-3.5,1.6-6.9,2.8-10.3l1.1,0.4l-1.1-0.2
		c0.6-3.6,3-6.7,6.4-8.3l0,0l0,0c4.1-1.5,8.5-2.3,12.9-2.3c0.6,0,1.2,0,1.9,0l-0.1,1.2l0-1.2c0.6,0,1.2,0,1.9,0
		c4.9,0,9.8,0.7,14.5,2.2l-0.3,1.1l0.2-1.1c2.4,0.4,4.7,1.5,6.6,2.9l0.1,0.1l-0.7,0.9l0.6-1c1.8,1.2,3,3.1,3.2,5.3l-1.1,0.1l1.1-0.3
		c0.3,1.1,0.4,2.1,0.4,3.2c0,1.2-0.2,2.3-0.4,3.4l-1.1-0.3l1.2,0.1c-0.2,2.2-1.6,4.2-3.6,5.1c-0.5,0.2-1,0.4-1.5,0.5l-0.3-1.1
		l0.3,1.1c-1.5,0.4-3.1,0.6-4.7,0.6c-0.4,0-0.9,0-1.3,0l0.1-1.2l0,1.2l-0.4,0c-1.2,0-2.3,0.2-3.5,0.5l-0.3-1.1l0.4,1.1
		c-0.6,0.2-1,0.6-1.3,1.2l-1.1-0.4l1.1,0.4l-0.1,0.4l0.6,1l-0.5,1l0.4-1.1c1.8,0.6,3.7,1.1,5.6,1.4l0,0l0,0c1.9,0.4,3.7,0.9,5.5,1.6
		l0,0l0,0c1.5,0.7,2.8,1.8,3.7,3.3l0,0l0,0c0.7,1.5,1,3.1,1,4.6c0,1.3-0.2,2.7-0.7,4l-1.1-0.4l1.1,0.3c-0.6,2.4-2.1,4.6-4.3,5.8
		l-0.6-1l0.6,1c-0.7,0.5-1.5,0.8-2.3,0.9l-0.1-1.1l0.2,1.1c-1.9,0.4-3.8,0.5-5.6,0.5c-0.8,0-1.7,0-2.5-0.1l0.1-1.2l0.1,1.2l-0.2,0
		l-0.2,0.2l-0.8-0.8l0.9,0.7c-0.3,0.4-0.5,0.9-0.5,1.4l0.1,0.5l-1.1,0.3l0.5-1l0.6,0.3l0.1,0l0.1,1.1l-0.2-1.1
		c1.3-0.2,2.7-0.3,4-0.3c0.5,0,1.1,0,1.6,0l-0.1,1.2l0-1.2c2.3,0.1,4.6,0.8,6.5,1.9l0,0l0,0c2.4,1.8,4.2,4.3,5.1,7.2l0,0.1l0,0.1
		l0,1c0,2.9-0.9,5.7-2.7,8.1l-0.9-0.7l0.9,0.7c-1.4,2-3.4,3.4-5.7,4.1l-0.3-1.1l0.5,1l-0.2,0.1l0,0l0,0c-2.3,0.9-4.6,1.6-7,2l0,0
		l-0.2,0l0,0c-2.1,0.2-4.2,0.3-6.3,0.3c-2,0-4.1-0.1-6.1-0.3L483.6,403.5l-0.1,1.2L483.6,403.5l0.1-1.1c2,0.2,3.9,0.3,5.9,0.3
		c2,0,4.1-0.1,6.1-0.3l0.2,0l0.1,1.2l-0.2-1.1c2.2-0.4,4.4-1,6.5-1.9l0.4,1.1l-0.5-1l0.2-0.1l0.1,0l0.1,0c1.8-0.5,3.4-1.7,4.5-3.2
		l0,0l0,0c1.5-1.9,2.2-4.3,2.2-6.7l0-0.8l1.2-0.1l-1.1,0.3c-0.8-2.4-2.3-4.5-4.3-6l0.7-0.9l-0.6,1c-1.6-1-3.5-1.5-5.4-1.6h0h0
		c-0.5,0-1,0-1.5,0c-1.2,0-2.4,0.1-3.7,0.3h0l-0.4,0l-0.4,0l-1.2-0.7l-0.5-0.2l-0.1-0.5l-0.1-1c0-1,0.3-2,1-2.8l0-0.1l0.6-0.6
		l0.3-0.3l1.1-0.1l0.1,0l0.1,0c0.8,0.1,1.5,0.1,2.3,0.1c1.7,0,3.5-0.2,5.2-0.5l0,0l0,0c0.5-0.1,0.9-0.2,1.3-0.5l0,0l0,0
		c1.6-0.9,2.8-2.5,3.3-4.4l0-0.1l0-0.1c0.4-1,0.6-2.1,0.6-3.1c0-1.3-0.3-2.5-0.8-3.7l1-0.5l-1,0.6c-0.6-1-1.5-1.8-2.6-2.3l0.5-1.1
		l-0.4,1.1c-1.7-0.6-3.4-1.1-5.2-1.5l0.2-1.1l-0.2,1.1c-2-0.3-4-0.8-6-1.5l-0.1,0l-0.1,0c-1.1-0.6-1.8-1.8-1.8-3l0.2-1.1l0,0l0,0
		c0.5-1.2,1.4-2,2.6-2.5l0,0l0,0c1.3-0.4,2.7-0.6,4.2-0.6l0.5,0h0h0l1.2,0c1.4,0,2.8-0.2,4.2-0.5l0,0l0,0c0.4-0.1,0.8-0.2,1.2-0.4
		c1.3-0.5,2.1-1.7,2.2-3.1l0-0.1l0-0.1c0.2-0.9,0.4-1.9,0.4-2.8c0-0.9-0.1-1.8-0.3-2.7l0-0.1l0-0.1c-0.2-1.5-1-2.8-2.3-3.7l0,0
		l-0.2-0.1c-1.7-1.3-3.6-2.1-5.6-2.5l-0.1,0l-0.1,0c-4.5-1.4-9.2-2.1-13.9-2.1c-0.6,0-1.2,0-1.8,0l0,0l0,0c-0.6,0-1.2,0-1.7,0
		c-4.1,0-8.2,0.7-12.1,2.2l-0.4-1.1l0.5,1c-2.7,1.2-4.6,3.7-5.1,6.6l0,0.1l0,0.1c-1.1,3.3-2,6.6-2.7,10l-1.1-0.2l1.1,0.2
		c-1.5,10-2.8,19.9-3.9,29.9l-1.1-0.1l1.2,0.1c-0.1,1.3-0.1,2.7-0.1,4c0,1.4,0,2.8,0.1,4.2l0,0.1l0,0.1l0,0.6c0,0.9,0.3,1.7,0.8,2.4
		l-0.9,0.7l0.9-0.7c1.2,1.5,2.6,2.7,4.1,3.8l0,0l0.1,0.1l-0.7,0.9l0.5-1c2.7,1.4,5.6,2.5,8.5,3.2l-0.3,1.1l0.2-1.1l0.1,0l0,0l0,0
		c3.8,1,7.8,1.6,11.7,1.9h0l0,0L483.6,403.5z"/>
	<path class="st4" d="M404.6,392.9c0-1.1,0.5-2.2,1.4-2.8l0.1-0.1c1-1,2-2.1,2.9-3.2c0.6-1.5,0.9-3.1,0.8-4.7
		c-0.3-6.8-0.9-13.6-1.8-20.3c-0.8-4.7-2-9.3-3.7-13.8c-0.6-1.1-1.6-1.9-2.9-2.1c-1.3-0.2-2.6-0.8-3.7-1.5c-0.6-1.1-0.6-2.4,0-3.4
		l0,0c0.7-0.8,1.5-1.5,2.4-2.1c1.7-1.3,3.7-2.2,5.8-2.8c8-2.7,16.4-3.9,24.8-3.4c3.2,0.2,6.5,0.6,9.7,1.2c1.6,0.4,3.2,1,4.7,1.8
		c0.9,0.6,1.5,1.6,1.6,2.7l-0.1,0.6l-0.2,0.4l-1.1,0.6l-0.1,0.1c-0.8,0.4-1.7,0.8-2.6,1c-1.3,0.2-2.4,0.8-3.2,1.8l-0.2,0.3
		c-0.3,0.4-0.4,0.9-0.4,1.4c0.2,2.9,0.6,5.8,1.3,8.6c1.6,6.5,2.7,13.1,3.4,19.8c0,1.3,0.3,2.6,0.7,3.8c0.7,1.2,1.8,2.2,3.1,2.6
		c1.2,0.2,2.4,0.4,3.6,0.8c0.8,0.2,1.5,0.6,1.9,1.3c0.8,1.3,1.3,2.7,1.3,4.2c0.3,1.2,0.2,2.5-0.4,3.7c-0.3,0.6-0.9,1.1-1.5,1.4
		c-1.3,0.7-2.6,1.4-4,1.9c-12.1,4-24.8,5.6-37.5,4.8c-1.6,0.2-3.1-0.2-4.4-1.2C405.4,395.3,404.7,394.2,404.6,392.9"/>
	<path class="st2" d="M404.6,392.9l-1.2,0c0-1.5,0.7-2.8,1.8-3.7l0.7,0.9l-0.9-0.7l0.1-0.1l0-0.1l0,0c1-1,1.9-2,2.8-3.1l0.9,0.7
		l-1.1-0.5c0.5-1.1,0.7-2.3,0.7-3.5l0-0.6v0v0c-0.3-6.8-0.9-13.5-1.8-20.2l1.1-0.2l-1.1,0.2c-0.8-4.6-2-9.2-3.6-13.6l1.1-0.4l-1,0.5
		c-0.4-0.8-1.2-1.4-2.1-1.5l0.2-1.1l-0.2,1.1c-1.5-0.3-2.9-0.8-4.2-1.7l-0.2-0.2l-0.1-0.3c-0.4-0.7-0.6-1.5-0.6-2.2
		c0-0.8,0.2-1.6,0.6-2.3l0,0l0-0.1l0.1-0.1l0.1-0.1c0.8-0.8,1.6-1.6,2.5-2.2l0.7,0.9l-0.7-0.9c1.9-1.4,4-2.4,6.2-3l0.3,1.1l-0.4-1.1
		c6.9-2.4,14.2-3.6,21.5-3.6c1.2,0,2.5,0,3.7,0.1h0c3.3,0.2,6.6,0.6,9.8,1.2l0,0l0,0c1.7,0.4,3.4,1.1,4.9,1.9l0,0l0,0
		c1.2,0.8,2,2.1,2.1,3.6l0,0.1l-0.1,0.7l0,0.3l-0.4,0.6l-0.1,0.2l-1.3,0.8l-0.1,0.1l-0.1,0l-0.1,0c-0.9,0.5-1.8,0.8-2.8,1.1l-0.1,0
		l-0.1,0c-1,0.1-1.8,0.6-2.4,1.4l-0.9-0.7l1,0.5l-0.2,0.3l0,0.1l0,0.1l-0.2,0.6l0,0.1v0c0.2,2.8,0.6,5.7,1.3,8.4
		c1.6,6.6,2.7,13.2,3.4,19.9l0,0.1v0.1c0,1.2,0.2,2.3,0.6,3.4l-1.1,0.4l1-0.6c0.5,1,1.4,1.7,2.5,2l-0.3,1.1l0.1-1.1
		c1.3,0.2,2.6,0.4,3.8,0.8l-0.3,1.1l0.2-1.1c1.1,0.2,2,0.9,2.6,1.7l0,0l0,0c0.9,1.4,1.4,3.1,1.5,4.8l-1.2,0l1.1-0.3
		c0.1,0.5,0.2,1.1,0.2,1.6c0,1-0.2,2-0.7,2.8l0,0l0,0c-0.5,0.8-1.2,1.5-2,1.9l-0.5-1l0.6,1c-1.3,0.8-2.7,1.4-4.2,2l0,0h0
		c-10.1,3.4-20.7,5.1-31.4,5.1c-2.2,0-4.3-0.1-6.5-0.2l0.1-1.2l0.1,1.1l-0.8,0c-1.6,0-3.1-0.5-4.3-1.4l0.7-0.9l-0.7,0.9
		c-1.3-0.9-2.2-2.3-2.3-3.9l0-0.1v-0.1L404.6,392.9l1.1-0.1c0.1,0.9,0.6,1.8,1.4,2.3l0,0c0.9,0.6,1.9,1,3,1l0.6,0l0.1,0l0.1,0
		c2.1,0.1,4.2,0.2,6.4,0.2c10.4,0,20.8-1.7,30.7-5l0.4,1.1l-0.4-1.1c1.3-0.5,2.6-1.1,3.8-1.8l0,0l0.1,0c0.4-0.2,0.7-0.5,1-0.9l1,0.6
		l-1-0.5c0.3-0.6,0.4-1.2,0.4-1.8l-0.1-1l0-0.1v-0.1c0-1.3-0.4-2.6-1.1-3.6l1-0.6l-0.9,0.7c-0.3-0.4-0.7-0.7-1.2-0.8l0,0l0,0
		c-1.1-0.3-2.3-0.6-3.4-0.7l-0.1,0l-0.1,0c-1.6-0.5-3-1.6-3.8-3.1l0-0.1l0-0.1c-0.5-1.4-0.8-2.8-0.8-4.2l1.2,0l-1.1,0.1
		c-0.7-6.6-1.8-13.2-3.4-19.6c-0.7-2.9-1.1-5.8-1.3-8.8l1.2-0.1l-1.2,0.1l0-0.2c0-0.7,0.2-1.4,0.6-1.9l1,0.6l-1-0.5l0.2-0.3l0-0.1
		l0.1-0.1c1-1.3,2.4-2.1,4-2.2l0.1,1.1l-0.3-1.1c0.8-0.2,1.6-0.5,2.4-0.9l0.5,1l-0.7-0.9l0.1-0.1l0,0l0.9-0.5l0.1-0.1l1,0.6
		l-1.1-0.1l0.1-0.6l1.1,0.1l-1.2,0.1c0-0.7-0.4-1.4-1.1-1.8l0.6-1l-0.5,1c-1.4-0.7-2.9-1.3-4.4-1.7l0.3-1.1l-0.2,1.1
		c-3.2-0.6-6.4-0.9-9.6-1.2l0.1-1.2l-0.1,1.2c-1.2-0.1-2.4-0.1-3.6-0.1c-7.1,0-14.1,1.2-20.8,3.5l0,0l0,0c-2,0.5-3.8,1.4-5.4,2.6
		l0,0h0c-0.8,0.6-1.5,1.2-2.2,2l-0.8-0.8l1,0.6l0,0l-1-0.6l1,0.6l-0.3,1.1l0.3,1.1l-1,0.6l0.6-1c1,0.6,2.1,1.1,3.3,1.3h0l0,0
		c1.6,0.3,2.9,1.3,3.7,2.7l0,0.1l0,0.1c1.7,4.5,3,9.2,3.8,14l0,0v0c0.9,6.8,1.5,13.6,1.8,20.4l-1.2,0l1.2-0.1l0,0.8
		c0,1.5-0.3,3-0.9,4.4l-0.1,0.1l-0.1,0.1c-0.9,1.2-1.9,2.3-3,3.3l-0.8-0.8l0.9,0.7l-0.1,0.1l-0.1,0.1l-0.1,0.1
		c-0.6,0.5-0.9,1.2-0.9,1.9L404.6,392.9l1.1-0.1L404.6,392.9z"/>
	<path class="st5" d="M325.6,403.4c-4-0.7-7.9-1.8-11.5-3.5c-1.3-0.5-2.5-1.2-3.6-2c-0.8-1.2-1.1-2.5-1.1-3.9
		c0.2-2.3,0.6-4.5,1.1-6.7l4.1-12.3c2-7.2,2.6-14.6,1.8-22c-0.3-2.5-0.5-4.9-0.7-7.4c-0.2-1.2,0-2.5,0.7-3.6
		c0.6-0.9,1.5-1.5,2.5-1.9c2.6-0.7,5.1-1.3,7.8-1.8c4.1-0.6,8.2-0.7,12.3-0.1c0.6,0,1.2,0.1,1.7,0.4c0.7,0.4,1.3,1.1,1.6,1.9
		c0.5,1.6,1,3.1,1.5,4.7c0.4,1.5,0.8,3.1,1.2,4.6c0.2,0.8,0.8,1.4,1.6,1.7c1.3,0.4,2.7,0.5,4,0.3l1-0.2c1.2-0.3,2.4-0.6,3.6-1
		c1.3-0.5,2.5-1.2,3.6-2.1c2.5-1.8,4.7-4,6.5-6.4l0.2-0.3c1-1.4,1.9-2.8,2.9-4.3c0.8-1,1.5-2.1,2.3-3.1c0.5-0.6,1.2-1,1.9-1.2l0.1,0
		c1-0.4,2.2-0.5,3.3-0.3c6,0.6,11.4,3.5,15.3,8.1c1.1,1.1,1.5,2.7,1,4.2c-0.3,1.1-0.7,2.1-1.2,3.1c-1.1,2.4-2.5,4.6-4.2,6.6
		c-2.2,2.9-4.3,5.8-6.3,8.7c-0.6,0.8-0.8,1.9-0.7,2.9l0.3,1.1c1.1,1.2,2.2,2.4,3.3,3.5c1,0.9,2,1.7,3.2,2.3c2.1,1.4,3.9,3.1,5.4,5.1
		c3.1,3.1,5.4,6.9,6.5,11.1l-0.1,0.2c-0.4,0.9-1.1,1.7-2,2.3c-6.9,5.9-15.5,9.7-24.5,10.7c-1.1,0.1-2.2,0-3.2-0.3l-1-0.6l-0.6-0.7
		c-1.1-1.2-2.1-2.6-2.8-4.1c-1.2-2.2-2.8-4.1-4.7-5.6c-1.6-1.4-3.3-2.6-5.2-3.6l-1-0.3c-1.4-0.3-2.8-0.3-4.2,0
		c-0.7,0.2-1.4,0.6-1.9,1.1l0,0.1c-0.6,0.5-0.9,1.2-0.9,2c-0.3,2.1-0.2,4.3,0.1,6.4c0.2,1.2,0.2,2.5,0.1,3.7c0,0.6-0.5,1.2-1.1,1.4
		l-1,0.4c-1.7,0.3-3.4,0.7-5.1,1.1C334.9,404.1,330.2,404,325.6,403.4"/>
	<path class="st2" d="M325.6,403.4l-0.2,1.1c-4.1-0.7-8-1.9-11.8-3.6l0.5-1.1l-0.4,1.1c-1.4-0.6-2.7-1.3-3.9-2.2l-0.2-0.1l-0.1-0.2
		c-0.9-1.3-1.3-2.9-1.3-4.5l0-0.1v0l0,0c0.2-2.3,0.6-4.6,1.2-6.9l0,0l4.1-12.3l1.1,0.4l-1.1-0.3c1.4-5.1,2.1-10.3,2.1-15.5
		c0-2-0.1-4.1-0.3-6.1c-0.3-2.5-0.5-5-0.7-7.4l1.2-0.1l-1.1,0.2l-0.1-1c0-1.2,0.3-2.3,1-3.3l0,0l0,0c0.8-1.1,1.8-1.8,3.1-2.3l0,0
		l0,0c2.6-0.7,5.2-1.3,7.9-1.8l0,0h0c2.2-0.4,4.5-0.5,6.7-0.5c2,0,3.9,0.1,5.9,0.4l-0.2,1.1l0-1.2l0.1,0c0.8,0,1.6,0.2,2.2,0.6
		c1,0.5,1.7,1.4,2.1,2.5c0.5,1.6,1,3.1,1.5,4.7l0,0l0,0c0.3,1.5,0.8,3,1.2,4.5l0,0l0,0c0.1,0.4,0.4,0.8,0.9,0.9l-0.4,1.1l0.3-1.1
		c0.8,0.2,1.7,0.4,2.5,0.4l1-0.1l0.1,1.1l-0.2-1.1l1-0.2l0.2,1.1l-0.2-1.1c1.2-0.2,2.3-0.6,3.4-1c1.2-0.5,2.3-1.1,3.3-1.9l0,0l0,0
		c2.4-1.7,4.5-3.8,6.3-6.2l0.2-0.3l0.9,0.7l-1-0.7c1-1.4,1.9-2.8,2.9-4.3l0,0l0,0c0.8-1,1.5-2,2.3-3.1l0,0l0,0
		c0.6-0.8,1.5-1.3,2.4-1.6l0.4,1.1l-0.4-1.1l0.1,0l0,0l0,0c0.9-0.3,1.8-0.5,2.7-0.5l1.1,0.1l-0.2,1.1l0.1-1.1
		c6.3,0.7,12,3.7,16.1,8.5l-0.9,0.8l0.8-0.8c1,1,1.6,2.3,1.6,3.7c0,0.6-0.1,1.1-0.3,1.6l-1.1-0.4l1.1,0.3c-0.3,1.2-0.7,2.3-1.3,3.4
		l-1-0.6l1,0.5c-1.2,2.5-2.6,4.8-4.3,6.9l-0.9-0.7l0.9,0.7c-2.1,2.9-4.2,5.8-6.3,8.7c-0.3,0.5-0.5,1.1-0.5,1.7l0,0.4l-1.1,0.2
		l1.1-0.3l0.3,1.1l-1.1,0.3l0.9-0.8c1,1.2,2.1,2.3,3.3,3.5l-0.8,0.8l0.8-0.9c0.9,0.8,1.9,1.6,3,2.2l0,0l0,0c2.2,1.5,4.1,3.3,5.7,5.3
		l-0.9,0.7l0.8-0.8c3.2,3.2,5.6,7.2,6.8,11.6l0.1,0.4l-0.2,0.5l0,0l0,0c-0.5,1.1-1.4,2.1-2.4,2.8l-0.6-1l0.8,0.9
		c-7.1,6.1-15.9,9.9-25.2,11h0h0l-0.9,0c-0.9,0-1.8-0.1-2.7-0.4l-0.2,0l-1.1-0.7l-0.2-0.1l-0.8-0.9l0.9-0.7l-0.9,0.8
		c-1.2-1.3-2.2-2.8-3-4.4l1-0.5l-1,0.6c-1.1-2-2.7-3.8-4.4-5.3l0,0c-1.6-1.3-3.2-2.5-5-3.5l0.6-1l-0.3,1.1l-1-0.3l0.3-1.1l-0.2,1.1
		c-0.6-0.1-1.2-0.2-1.8-0.2c-0.6,0-1.3,0.1-1.9,0.2l-0.3-1.1l0.3,1.1c-0.5,0.2-1.1,0.5-1.5,0.9l-0.8-0.8l1,0.6l0,0.1l-0.1,0.2
		l-0.2,0.1c-0.3,0.2-0.5,0.6-0.5,1.1h-1l1-0.1l0,0.1h-1l1-0.1l0,0.1l0,0.1c-0.1,0.9-0.2,1.7-0.2,2.6c0,1.2,0.1,2.3,0.3,3.4l0,0v0
		c0.1,0.8,0.2,1.7,0.2,2.5c0,0.5,0,1-0.1,1.4v0c-0.1,1.1-0.9,2.1-1.9,2.4l-0.3-1.1l0.4,1.1l-1,0.4l-0.1,0l-0.1,0
		c-1.7,0.3-3.3,0.7-5,1.1l-0.1,0l-0.1,0c-2.2,0.3-4.3,0.4-6.5,0.4c-2.6,0-5.2-0.2-7.7-0.6l0,0h0L325.6,403.4l0.2-1.1
		c2.4,0.4,4.9,0.5,7.4,0.5c2.1,0,4.2-0.1,6.2-0.4l0.1,1.1l-0.3-1.1c1.7-0.4,3.4-0.8,5.1-1.1l0.2,1.1l-0.4-1.1l1-0.4l0,0l0,0l0.3-0.3
		v0v0c0-0.4,0-0.8,0-1.3c0-0.7,0-1.5-0.1-2.2l1.1-0.1l-1.1,0.2c-0.2-1.3-0.3-2.6-0.3-3.8c0-1,0.1-1.9,0.2-2.9l1.1,0.1l-1.2,0.1
		l0-0.1c0-1.1,0.5-2.2,1.4-2.9l0.7,0.9l-1-0.6l0-0.1l0.1-0.2l0.1-0.1c0.7-0.6,1.5-1.1,2.4-1.4l0,0l0,0c0.8-0.2,1.6-0.3,2.4-0.3
		c0.8,0,1.6,0.1,2.3,0.3l0,0l1,0.3l0.1,0l0.1,0.1c1.9,1.1,3.7,2.3,5.4,3.7l-0.7,0.9l0.7-0.9c2,1.7,3.7,3.7,5,6l0,0l0,0
		c0.7,1.4,1.6,2.7,2.6,3.9l0,0l0.5,0.6l0.8,0.5l-0.6,1l0.3-1.1c0.7,0.2,1.4,0.3,2,0.3l0.7,0l0.1,1.1l-0.1-1.1
		c8.8-1,17.2-4.7,23.9-10.4l0.1,0l0.1,0c0.7-0.5,1.2-1.1,1.6-1.9l1,0.5l-1-0.5l0.1-0.2l1,0.5l-1.1,0.3c-1.1-4-3.3-7.6-6.2-10.6
		l-0.1-0.1l0-0.1c-1.4-1.9-3.1-3.5-5.1-4.8l0.6-1l-0.6,1c-1.2-0.7-2.3-1.5-3.4-2.5l0,0l0,0c-1.2-1.2-2.3-2.3-3.4-3.6l-0.2-0.2
		l-0.4-1.4l0-0.1l0-0.1l0-0.7c0-1.1,0.3-2.1,0.9-3c2.1-3,4.2-5.9,6.3-8.8l0,0l0,0c1.6-2,2.9-4.1,4-6.4l0,0l0,0
		c0.5-0.9,0.8-1.8,1.1-2.8l0,0l0,0l0.2-0.9c0-0.8-0.3-1.5-0.9-2l0,0l0,0c-3.7-4.3-8.9-7.1-14.6-7.7h0l0,0l-0.8-0.1
		c-0.6,0-1.3,0.1-1.9,0.3l-0.4-1.1l0.4,1.1l-0.1,0l0,0l0,0c-0.5,0.2-1,0.5-1.4,0.9l-0.9-0.8l0.9,0.7c-0.7,1-1.5,2.1-2.3,3.1
		l-0.9-0.7l1,0.6c-1,1.4-1.9,2.9-2.9,4.3l0,0l-0.2,0.3c-1.9,2.6-4.2,4.8-6.8,6.7l-0.7-0.9l0.7,0.9c-1.2,1-2.5,1.7-3.9,2.2
		c-1.2,0.5-2.5,0.8-3.8,1.1h0l-1,0.2l0,0l0,0c-0.4,0-0.9,0.1-1.3,0.1c-1.1,0-2.2-0.2-3.2-0.5l0,0l0,0c-1.1-0.4-2-1.3-2.3-2.5
		l1.1-0.3l-1.1,0.3c-0.5-1.5-0.9-3.1-1.2-4.7l1.1-0.3l-1.1,0.3c-0.5-1.6-1-3.1-1.5-4.7c-0.2-0.5-0.5-1-1-1.2l-1.1-0.3l0,0h-0.1
		l-0.1,0c-1.9-0.3-3.7-0.4-5.6-0.4c-2.1,0-4.3,0.2-6.4,0.5l-0.2-1.1l0.2,1.1c-2.6,0.5-5.1,1-7.7,1.8l-0.3-1.1l0.4,1.1
		c-0.8,0.3-1.5,0.8-2,1.5l-0.9-0.7l1,0.6c-0.4,0.6-0.6,1.4-0.6,2.1l0.1,0.6l0,0l0,0c0.2,2.5,0.5,4.9,0.7,7.4
		c0.2,2.1,0.3,4.3,0.3,6.4c0,5.4-0.7,10.8-2.2,16.1l0,0l-4.1,12.3l-1.1-0.4l1.1,0.3c-0.5,2.1-0.9,4.3-1.1,6.5l-1.1-0.1l1.2,0v0.1
		c0,1.1,0.3,2.2,0.9,3.2l-1,0.6l0.7-0.9c1,0.8,2.1,1.4,3.3,1.9l0,0l0,0c3.6,1.6,7.4,2.7,11.3,3.4L325.6,403.4l0.2-1.1L325.6,403.4z"
		/>
	<path class="st1" d="M518.9,381.8c0.6-0.9,1.4-1.7,2.4-2.1c0.8-0.4,1.7-0.6,2.5-0.6c1.4-0.1,2.9,0.2,4.2,0.7
		c2.5,0.9,5.2,1.1,7.8,0.5c2.8-0.4,4.9-2.6,5.3-5.4c0.3-2.4-0.6-4.8-2.4-6.5c-2.6-2.1-5.4-3.8-8.4-5.1c-3.3-1.6-6.3-3.7-9-6.1
		l-0.3-0.2c-1.8-1.4-3.1-3.2-3.9-5.3c-0.9-3.9-0.1-8,2.2-11.3c2.3-3.5,5.8-5.9,9.8-6.9c6.3-1.6,12.8-2.2,19.3-1.8
		c4.5,0,9,1.3,12.7,3.8l0.6,0.5c2.1,1.7,3.4,4.2,3.7,6.9c0.1,0.7,0,1.5-0.3,2.1c-0.4,0.8-1,1.4-1.8,1.8c-0.5,0.2-1,0.4-1.5,0.4
		l-5.5,1c-1.8,0.3-3.4,1.4-4.2,3c-0.6,0.9-0.5,2,0.1,2.8c0.8,1.4,2.1,2.6,3.6,3.2c3.1,1.8,6.2,3.7,9.3,5.7l0.5,0.4
		c3.2,2.9,5.9,6.4,7.9,10.3c1.2,2.8,2,5.9,2.3,8.9c0.8,5.6-1,11.2-4.8,15.3c-2.6,3.3-6.1,5.6-10.1,6.6c-5.2,2.2-10.9,3.2-16.5,2.7
		c-5.9-0.6-11.6-2.4-16.7-5.4c-3.6-1.6-6.5-4.3-8.3-7.7c-1.1-2.1-1.8-4.4-2.2-6.7C517,385.5,517.6,383.4,518.9,381.8"/>
	<path class="st2" d="M518.9,381.8l-1-0.6c0.7-1.1,1.7-2,2.9-2.6l0.5,1l-0.5-1c0.9-0.4,1.8-0.7,2.9-0.7l0.3,0l0,1.2l0-1.2l0.5,0
		c1.4,0,2.9,0.2,4.2,0.7c1.4,0.5,3,0.8,4.5,0.8c0.9,0,1.8-0.1,2.7-0.3l0,0l0,0c2.2-0.3,4-2.1,4.3-4.4l0.1-0.9c0-1.7-0.7-3.4-2.1-4.6
		l0.8-0.9l-0.7,0.9c-2.5-2-5.2-3.7-8.2-5l0,0l0,0c-3.4-1.7-6.5-3.8-9.3-6.3l0,0l-0.3-0.2l0.8-0.9l-0.7,0.9c-2-1.5-3.4-3.5-4.2-5.8
		l0-0.1l0-0.1c-0.3-1.1-0.4-2.3-0.4-3.4c0-3.1,1-6.2,2.8-8.8l0.9,0.7l-1-0.6c2.4-3.7,6.2-6.4,10.5-7.4l0.3,1.1l-0.3-1.1
		c5.1-1.3,10.4-1.9,15.6-1.9c1.3,0,2.7,0,4,0.1l-0.1,1.2l0-1.2l0.3,0c4.7,0,9.2,1.4,13.1,4l0,0l0.6,0.5l0,0l0,0
		c2.3,1.9,3.8,4.7,4.1,7.7l-1.1,0.1l1.1-0.1l0,0.6c0,0.7-0.2,1.5-0.5,2.2l0,0l0,0c-0.5,1-1.3,1.7-2.3,2.2l0,0l0,0
		c-0.6,0.3-1.2,0.5-2,0.6l-0.1-1.2l0.2,1.1l-5.6,1l0,0c-1.4,0.2-2.7,1.1-3.4,2.4l0,0.1l0,0.1l-0.2,0.7l0.3,0.8l0.1,0.1l0,0.1
		c0.7,1.2,1.8,2.2,3.1,2.7l0.1,0l0,0c3.2,1.8,6.3,3.7,9.3,5.7l0.1,0l0.6,0.5l0,0l0,0c3.3,3,6,6.6,8.1,10.6l0,0l0,0
		c1.2,2.9,2.1,6.1,2.4,9.3l-1.1,0.1l1.1-0.2c0.1,0.9,0.2,1.8,0.2,2.7c0,5-1.9,9.8-5.2,13.5l-0.9-0.8l0.9,0.7
		c-2.7,3.5-6.5,5.9-10.7,7l-0.3-1.1l0.4,1.1c-4.6,1.9-9.4,2.9-14.4,2.9c-0.9,0-1.8,0-2.7-0.1h0l0,0c-6.1-0.6-11.9-2.5-17.2-5.6
		l0.6-1l-0.5,1.1c-3.8-1.7-6.9-4.6-8.9-8.3l0,0c-1.2-2.2-1.9-4.6-2.3-7.1v0v0l-0.1-1.1c0-2,0.7-3.9,2-5.5L518.9,381.8l-1-0.6
		L518.9,381.8l0.9,0.7c-1,1.1-1.5,2.5-1.5,4l0,0.8l-1.1,0.1l1.1-0.2c0.3,2.2,1,4.4,2.1,6.4l0,0c1.7,3.2,4.4,5.8,7.8,7.2l0.1,0l0.1,0
		c5,2.9,10.5,4.7,16.2,5.3l-0.1,1.1l0.1-1.2c0.8,0.1,1.7,0.1,2.5,0.1c4.6,0,9.2-0.9,13.5-2.7l0.1,0l0.1,0c3.8-1,7.1-3.1,9.5-6.2l0,0
		l0,0c3-3.3,4.6-7.6,4.6-12c0-0.8-0.1-1.6-0.2-2.4l0,0v0c-0.3-3-1.1-5.9-2.2-8.6l1.1-0.4l-1,0.5c-1.9-3.8-4.5-7.1-7.6-10l0.8-0.8
		l-0.7,0.9l-0.5-0.4l0.7-0.9l-0.6,1c-3-2-6.1-3.9-9.2-5.6l0.6-1l-0.5,1.1c-1.7-0.8-3.2-2.1-4.1-3.7l1-0.6l-0.9,0.7
		c-0.5-0.6-0.8-1.4-0.8-2.2c0-0.7,0.2-1.4,0.6-2l1,0.6l-1-0.5c1-2,2.9-3.3,5.1-3.6l0.2,1.1l-0.2-1.1l5.6-1l0.1,0l1.1-0.3l0.5,1
		l-0.5-1c0.6-0.3,1-0.7,1.3-1.3l1,0.6l-1-0.5c0.2-0.3,0.3-0.8,0.3-1.2l0-0.3v0v0c-0.2-2.4-1.4-4.6-3.2-6.1l0.7-0.9l-0.7,0.9
		l-0.6-0.5l0.7-0.9l-0.6,1c-3.5-2.4-7.6-3.6-11.9-3.6l-0.2,0h0l0,0c-1.3-0.1-2.6-0.1-3.9-0.1c-5.1,0-10.1,0.6-15.1,1.8l0,0
		c-3.7,0.9-7,3.2-9.1,6.4l0,0l0,0c-1.6,2.2-2.4,4.8-2.4,7.5c0,1,0.1,1.9,0.3,2.9l-1.1,0.3l1.1-0.4c0.7,1.9,1.9,3.5,3.5,4.7l0,0
		l0.3,0.3l-0.8,0.8l0.8-0.9c2.6,2.4,5.6,4.4,8.7,5.9l-0.5,1l0.5-1.1c3.1,1.4,6.1,3.2,8.7,5.3l0,0l0,0c1.8,1.6,2.8,3.9,2.8,6.3
		l-0.1,1.2c-0.5,3.3-3,5.9-6.3,6.4l-0.2-1.1l0.2,1.1c-1.1,0.2-2.1,0.3-3.2,0.3c-1.8,0-3.6-0.3-5.2-0.9c-1.1-0.4-2.3-0.6-3.4-0.6
		l-0.4,0l0,0l0,0h-0.2c-0.6,0-1.2,0.2-1.8,0.5l0,0l0,0c-0.8,0.4-1.4,1-1.9,1.7l0,0.1l-0.1,0.1L518.9,381.8z"/>
	<path class="st3" d="M60.5,389.9c-1.8-4.2-3-8.6-3.3-13.1c-1.2-9,1-18.2,6.1-25.7c5.5-8.7,13.8-15.3,23.6-18.4
		c0.7-0.2,1.4-0.4,2.1-0.6c7.3-2,15.2-1.1,21.9,2.5c4.7,1.5,8.3,5.3,9.6,10c1.1,3.4,0.5,7.2-1.5,10.2c-2.5,3.5-6.5,5.6-10.8,5.7
		c-3.1-0.1-6.3-0.2-9.4-0.1c-4-0.3-7.8,1.6-10,4.8c-2.6,3.8-2.5,8.8,0.2,12.4c1.5,2.1,3.8,3.5,6.3,3.9c3.2,0.6,6.5,0,9.3-1.6
		c2-1.1,3.8-2.4,5.3-4.1c1-1,1.8-2.2,2.5-3.5c0.5-0.7,1.1-1.2,1.8-1.6c3.1-2.1,7.1-2.5,10.6-1.1c5.8,3.8,8.6,10.9,7,17.7
		c-1.1,6.8-5,12.8-10.9,16.4c-9,5.8-19.8,8-30.3,6.1c-10.3-1.4-19.7-6.5-26.6-14.3C62.5,393.9,61.3,392,60.5,389.9"/>
</g>
<g>
	<path class="st2" d="M60.5,389.9l-1.1,0.5c-1.9-4.3-3.1-8.8-3.4-13.5l1.2-0.1l-1.1,0.2c-0.2-1.7-0.3-3.3-0.3-5
		c0-7.6,2.3-15.1,6.7-21.5l1,0.7l-1-0.6c5.6-9,14.2-15.7,24.3-18.9l0,0l0,0c0.7-0.2,1.4-0.4,2.2-0.6l0.3,1.1l-0.3-1.1
		c2.7-0.7,5.4-1.1,8.1-1.1c5.1,0,10.1,1.2,14.6,3.7l-0.5,1l0.4-1.1c5,1.6,8.9,5.7,10.4,10.8l-1.1,0.3l1.1-0.3
		c0.4,1.3,0.6,2.6,0.6,3.9c0,2.6-0.8,5.1-2.3,7.3l0,0l0,0c-2.7,3.8-7.1,6-11.8,6.1l0,0l0,0c-2.8-0.1-5.5-0.1-8.3-0.1l-1.1,0h0l0,0
		l-0.7,0c-3.3,0-6.4,1.6-8.4,4.3c-1.1,1.6-1.7,3.5-1.7,5.4c0,2,0.6,4,1.9,5.7l0,0l0,0c1.3,1.8,3.3,3.1,5.5,3.5h0l0,0
		c0.7,0.1,1.5,0.2,2.3,0.2c2.2,0,4.3-0.6,6.2-1.7l0,0l0,0c1.9-1,3.6-2.3,5-3.8c0.9-1,1.7-2.1,2.3-3.3l0-0.1l0-0.1
		c0.6-0.8,1.3-1.4,2.2-1.9l0.6,1l-0.7-1c2.1-1.4,4.5-2.1,6.9-2.1c1.6,0,3.3,0.3,4.8,1l0.1,0l0.1,0.1c5,3.3,7.9,8.9,7.9,14.8
		c0,1.4-0.2,2.8-0.5,4.2l-1.1-0.3l1.1,0.2c-1.1,7.1-5.3,13.4-11.4,17.2l-0.6-1l0.6,1c-7,4.6-15.2,7-23.4,7c-2.6,0-5.2-0.2-7.7-0.7
		l0.2-1.1l-0.2,1.1c-10.6-1.5-20.3-6.7-27.3-14.6l0.9-0.8l-0.8,0.8c-1.6-1.7-2.9-3.7-3.7-6L60.5,389.9l-1.1,0.5L60.5,389.9l1.1-0.4
		c0.7,1.9,1.8,3.7,3.2,5.2l0,0l0,0c6.7,7.6,15.9,12.5,25.9,13.9l0,0l0,0c2.4,0.4,4.9,0.7,7.3,0.7c7.8,0,15.5-2.3,22.2-6.6l0,0l0,0
		c5.6-3.4,9.4-9.2,10.4-15.6l0,0l0,0c0.3-1.2,0.4-2.4,0.4-3.6c0-5.1-2.5-9.9-6.9-12.8l0.6-1l-0.4,1.1c-1.3-0.5-2.6-0.8-3.9-0.8
		c-2,0-3.9,0.6-5.6,1.7l0,0l0,0c-0.6,0.3-1.1,0.8-1.5,1.3l-0.9-0.7l1,0.5c-0.7,1.4-1.6,2.6-2.7,3.7c-1.6,1.7-3.5,3.2-5.6,4.3l-0.5-1
		l0.6,1c-2.3,1.3-4.8,2-7.4,2c-0.9,0-1.8-0.1-2.7-0.3l0.2-1.1l-0.2,1.1c-2.8-0.5-5.4-2.1-7-4.4l0.9-0.7l-0.9,0.7
		c-1.6-2.1-2.4-4.6-2.4-7.1c0-2.3,0.7-4.7,2.1-6.7c2.4-3.4,6.2-5.3,10.3-5.3l0.8,0l-0.1,1.2l0-1.2l1.1,0c2.8,0,5.6,0,8.3,0.1l0,1.2
		l0-1.2c3.9-0.1,7.6-2,9.9-5.2l0.9,0.7l-1-0.7c1.2-1.8,1.9-3.9,1.9-6c0-1.1-0.2-2.1-0.5-3.2l0,0l0,0c-1.2-4.4-4.5-7.8-8.8-9.2
		l-0.1,0l-0.1-0.1c-4.2-2.3-8.8-3.4-13.5-3.4c-2.5,0-5,0.3-7.5,1l0,0c-0.7,0.2-1.4,0.4-2.1,0.6l-0.3-1.1l0.4,1.1
		c-9.5,3.1-17.7,9.5-23,18l0,0l0,0c-4.1,6-6.2,13-6.2,20.2c0,1.6,0.1,3.1,0.3,4.7l0,0l0,0c0.3,4.4,1.4,8.7,3.2,12.7l0,0l0,0
		L60.5,389.9z"/>
</g>
<g>
	<path class="st0" d="M217.1,351.1c-3.3-5.2-7.7-9.6-12.9-12.8c-4.7-3.5-10.1-6-15.8-7.5c-7.5-1.5-15.2-1.2-22.5,1
		c-10.5,2.3-19.7,8.6-25.7,17.6c-3.7,5.8-5.5,12.6-5.3,19.5c0.6,6.9,3.3,13.4,7.6,18.8c5.1,5.8,12,9.7,19.6,11
		c10.9,2.2,22.2,1.6,32.8-1.8c7.6-2.8,14.3-7.4,19.6-13.5c4.5-4.7,7.1-10.8,7.3-17.2C221.3,361,219.6,355.9,217.1,351.1
		 M181.9,368.3c-2.5,2.8-6.1,4.3-9.8,4.2c-4.9-0.7-8.8-4.3-9.8-9.1c-2-6-1.1-12.5,2.4-17.8c2.4-4.5,7.3-7,12.4-6.3
		c3.9,0.7,7.1,3.5,8.2,7.2C188.1,353.9,186.8,362.1,181.9,368.3"/>
	<path class="st0" d="M217.1,351.1l-1,0.6c-3.2-5-7.5-9.3-12.6-12.5l0,0l0,0c-4.6-3.4-9.8-5.9-15.4-7.3l0.3-1.1l-0.2,1.1
		c-3-0.6-6.1-0.9-9.1-0.9c-4.3,0-8.7,0.6-12.8,1.9l0,0l0,0c-10.2,2.3-19.2,8.4-25,17.1l-1-0.6l1,0.6c-3.4,5.4-5.1,11.5-5.1,17.8
		l0,1.1l-1.2,0l1.1-0.1c0.6,6.7,3.2,13,7.4,18.2l-0.9,0.7l0.9-0.8c4.9,5.6,11.6,9.4,18.9,10.7l0,0l0,0c4.2,0.9,8.5,1.3,12.7,1.3
		c6.6,0,13.1-1,19.4-3.1l0.4,1.1l-0.4-1.1c7.4-2.7,14-7.2,19.2-13.2l0,0l0,0c4.3-4.5,6.8-10.3,7-16.5l1.2,0l-1.1,0.1
		c-0.6-5.2-2.2-10.2-4.6-14.7L217.1,351.1l-1,0.6L217.1,351.1l1-0.5c2.6,4.8,4.3,10.1,4.9,15.6l0,0.1l0,0.1c-0.2,6.7-3,13.1-7.6,18
		l-0.8-0.8l0.9,0.8c-5.4,6.2-12.4,11-20.1,13.8l0,0l0,0c-6.5,2.1-13.3,3.2-20.2,3.2c-4.4,0-8.8-0.4-13.2-1.3l0.2-1.1L162,400
		c-7.9-1.4-15-5.4-20.3-11.4l0,0l0,0c-4.5-5.6-7.2-12.3-7.9-19.4l0,0v0l0-1.1c0-6.7,1.9-13.3,5.5-19.1l0,0l0,0
		c6.1-9.2,15.6-15.7,26.4-18.1l0.2,1.1l-0.3-1.1c4.4-1.3,8.9-2,13.5-2c3.2,0,6.4,0.3,9.6,1l0,0l0,0c5.8,1.5,11.3,4.1,16.1,7.7
		l-0.7,0.9l0.6-1c5.4,3.4,9.9,7.9,13.3,13.2l0,0l0,0L217.1,351.1z M181.9,368.3l0.9,0.8c-2.6,2.9-6.3,4.6-10.2,4.6l-0.5,0H172
		l-0.1,0c-5.4-0.7-9.7-4.7-10.8-10l1.1-0.2l-1.1,0.4c-0.7-2.2-1.1-4.5-1.1-6.7c0-4.2,1.2-8.4,3.6-12l1,0.6l-1-0.5
		c2.3-4.3,6.8-7,11.7-7c0.6,0,1.3,0,1.9,0.1h0l0,0c4.3,0.7,7.8,3.8,9.1,8l-1.1,0.3l1.1-0.4c1.1,2.7,1.6,5.6,1.6,8.4
		c0,5.2-1.7,10.3-5.1,14.5l0,0l0,0L181.9,368.3l-0.9-0.7c3-3.8,4.6-8.4,4.6-13.1c0-2.5-0.5-5.1-1.4-7.6l0,0l0,0
		c-1-3.4-3.8-5.8-7.3-6.4l0.2-1.1l-0.2,1.1c-0.5-0.1-1.1-0.1-1.6-0.1c-4,0-7.7,2.2-9.6,5.8l0,0l0,0c-2.1,3.2-3.2,7-3.2,10.8
		c0,2,0.3,4.1,1,6l0,0.1l0,0.1c0.9,4.3,4.4,7.6,8.8,8.2l-0.2,1.1l0-1.2l0.4,0c3.2,0,6.3-1.4,8.5-3.8L181.9,368.3l-0.9-0.7
		L181.9,368.3z"/>
	<path class="st4" d="M213.8,347.5c-3.3-5.2-7.7-9.6-12.9-12.8c-4.7-3.5-10.1-6-15.8-7.5c-7.5-1.5-15.2-1.2-22.5,0.9
		c-10.5,2.3-19.7,8.6-25.7,17.6c-3.7,5.8-5.5,12.6-5.3,19.5c0.6,6.9,3.3,13.4,7.6,18.8c5.1,5.8,12,9.7,19.6,11.1
		c10.9,2.2,22.2,1.6,32.8-1.8c7.6-2.8,14.3-7.4,19.6-13.5c4.5-4.7,7.1-10.8,7.3-17.2C217.9,357.4,216.3,352.2,213.8,347.5
		 M179,366.9c-2.5,2.8-6.1,4.3-9.9,4.2c-4.9-0.7-8.8-4.3-9.8-9.1c-1.9-6-1-12.5,2.4-17.8c2.4-4.5,7.3-7,12.4-6.2
		c3.9,0.6,7.1,3.4,8.2,7.2C185.2,352.5,183.9,360.8,179,366.9"/>
	<path class="st2" d="M213.8,347.5l-1,0.6c-3.2-5-7.5-9.3-12.6-12.5l0,0l0,0c-4.6-3.4-9.8-5.9-15.4-7.3l0.3-1.1l-0.2,1.1
		c-3-0.6-6.1-0.9-9.1-0.9c-4.3,0-8.6,0.6-12.8,1.9l0,0l0,0c-10.2,2.3-19.2,8.4-25,17.1l-1-0.6l1,0.6c-3.4,5.3-5.1,11.5-5.1,17.8
		l0,1.1l-1.2,0l1.1-0.1c0.6,6.7,3.2,13,7.4,18.2l-0.9,0.7l0.9-0.8c4.9,5.6,11.6,9.4,18.9,10.7l0,0l0,0c4.2,0.9,8.5,1.3,12.7,1.3
		c6.6,0,13.1-1,19.4-3.1l0.4,1.1l-0.4-1.1c7.4-2.7,14-7.2,19.2-13.2l0,0l0,0c4.3-4.5,6.8-10.3,7-16.5l1.2,0l-1.1,0.1
		c-0.6-5.2-2.2-10.2-4.6-14.7L213.8,347.5l-1,0.6L213.8,347.5l1-0.5c2.6,4.8,4.3,10.1,4.9,15.6l0,0.1l0,0.1c-0.2,6.7-3,13.1-7.6,18
		l-0.8-0.8l0.9,0.8c-5.4,6.2-12.4,11-20.1,13.8l0,0l0,0c-6.5,2.1-13.3,3.2-20.2,3.2c-4.4,0-8.8-0.4-13.2-1.3l0.2-1.1l-0.2,1.1
		c-7.9-1.4-15.1-5.4-20.3-11.4l0,0l0,0c-4.5-5.6-7.2-12.3-7.9-19.4l0,0v0l0-1.1c0-6.7,1.9-13.3,5.5-19l0,0l0,0
		c6.1-9.2,15.6-15.7,26.4-18.1l0.2,1.1l-0.3-1.1c4.4-1.3,8.9-2,13.5-2c3.2,0,6.4,0.3,9.6,1l0,0l0,0c5.8,1.5,11.3,4.1,16.2,7.7
		l-0.7,0.9l0.6-1c5.4,3.4,9.9,7.9,13.3,13.2l0,0l0,0L213.8,347.5z M179,366.9l0.9,0.8c-2.6,2.9-6.3,4.6-10.2,4.6l-0.5,0H169l-0.1,0
		c-5.4-0.7-9.7-4.8-10.8-10.1l1.1-0.2l-1.1,0.4c-0.7-2.2-1.1-4.5-1.1-6.7c0-4.2,1.2-8.4,3.6-12l1,0.6l-1-0.5c2.3-4.3,6.8-7,11.6-7
		c0.6,0,1.3,0,1.9,0.1l0,0h0c4.3,0.7,7.8,3.8,9.1,8l-1.1,0.3l1.1-0.4c1.1,2.7,1.6,5.6,1.6,8.4c0,5.2-1.7,10.3-5.1,14.5l0,0l0,0
		L179,366.9l-0.9-0.7c3-3.8,4.6-8.4,4.6-13.1c0-2.5-0.5-5.1-1.4-7.5l0,0l0,0c-1-3.4-3.8-5.8-7.3-6.4l0.2-1.1l-0.2,1.1
		c-0.5-0.1-1.1-0.1-1.6-0.1c-4,0-7.7,2.2-9.6,5.8l0,0l0,0c-2.1,3.2-3.2,7-3.2,10.8c0,2,0.3,4,1,6l0,0.1l0,0.1
		c0.9,4.3,4.4,7.6,8.8,8.2l-0.2,1.1l0-1.2l0.4,0c3.2,0,6.3-1.4,8.5-3.8L179,366.9l-0.9-0.7L179,366.9z"/>
	<path class="st1" d="M306.2,368.8l0-0.2c-0.4-6.1-2.6-11.9-6.4-16.7c-4.4-6.2-10.3-11.3-17.1-14.8c-4.7-3.1-9.8-5.5-15.1-7
		c-7.6-1.7-15.5-1.8-23.2-0.2c-5.1,0.8-9.9,2.5-14.4,5c-2.7,1.2-5.2,2.9-7.3,4.9c-0.9,0.7-1.6,1.5-2.3,2.4
		c-2.1,2.9-3.3,6.4-3.2,10.1c-0.2,4.4,1,8.8,3.4,12.6c5.1,8.5,12.1,15.7,20.5,21c6.3,4.3,13.5,7.2,21,8.6c7.7,1.9,15.7,1.3,23.1-1.6
		c6.8-2.2,13-6.1,17.9-11.4l0.5-0.6C305.6,377.2,306.6,373,306.2,368.8 M275.5,364l-1.1,0.9c-2.4,2-5.5,3-8.6,2.8l-0.1,0
		c-4.6,0.2-9.1-1.1-12.8-3.7c-0.6-0.3-1.1-0.6-1.6-0.9c-1.6-1.2-2.9-2.9-3.7-4.8c-0.4-0.7-0.6-1.5-0.6-2.3c0-1,0.3-2,0.9-2.9
		c0.4-0.6,1.1-1.1,1.8-1.3l0.1,0c4.6-2.7,10.3-3.1,15.3-1c0.8,0.2,1.5,0.5,2.3,0.9c3.4,1.7,6.2,4.4,8,7.7l0.3,0.4
		c0.4,0.7,0.6,1.4,0.6,2.2C276.2,362.7,276,363.4,275.5,364"/>
	<path class="st2" d="M306.2,368.8l-1.2,0.1l0-0.2c-0.3-5.9-2.5-11.5-6.2-16.1l0,0l0,0c-4.3-6.1-10.1-11-16.7-14.4l-0.1,0l-0.1,0
		c-4.6-3-9.6-5.4-14.8-6.9l0.3-1.1l-0.3,1.1c-3.9-0.9-7.9-1.3-11.9-1.3c-3.6,0-7.2,0.4-10.8,1.1l0,0l0,0c-4.9,0.8-9.7,2.5-14.1,4.9
		l0,0l0,0c-2.6,1.2-5,2.8-7,4.7l0,0l0,0c-0.8,0.6-1.5,1.4-2.1,2.2l-0.9-0.7l0.9,0.7c-2,2.7-3,5.9-3,9.2v0.1l0,0l0,0l0,0.9
		c0,3.9,1.1,7.7,3.2,11l0,0l0,0c5,8.4,11.9,15.4,20.1,20.6l0,0l0,0c6.2,4.2,13.2,7.1,20.6,8.4l0,0l0,0c2.9,0.7,5.8,1,8.8,1
		c4.6,0,9.3-0.9,13.6-2.6l0,0l0,0c6.6-2.2,12.6-6,17.4-11.1l0.8,0.8l-0.9-0.7l0.5-0.6l0.9,0.7l-1-0.6c1.8-2.8,2.8-6.1,2.8-9.4
		c0-0.6,0-1.2-0.1-1.9l0,0v0L306.2,368.8l1.1-0.1c0.1,0.7,0.1,1.4,0.1,2.1c0,3.8-1.1,7.5-3.2,10.6l0,0l-0.5,0.7l0,0.1l0,0.1
		c-5,5.4-11.4,9.4-18.4,11.7l-0.4-1.1l0.4,1.1c-4.6,1.8-9.6,2.8-14.5,2.8c-3.1,0-6.2-0.4-9.3-1.1l0.3-1.1l-0.2,1.1
		c-7.7-1.4-15-4.4-21.5-8.8l0.6-1l-0.6,1c-8.5-5.4-15.7-12.7-20.9-21.4l1-0.6l-1,0.6c-2.3-3.7-3.6-7.9-3.6-12.2l0-1l1.2,0.1l-1.2,0
		V352c0-3.8,1.2-7.5,3.5-10.6v0l0,0c0.7-1,1.6-1.8,2.5-2.6l0.7,0.9l-0.8-0.8c2.3-2.1,4.8-3.8,7.6-5.1l0.5,1l-0.6-1
		c4.6-2.5,9.6-4.3,14.8-5.1l0.2,1.1l-0.2-1.1c3.7-0.8,7.5-1.2,11.3-1.2c4.2,0,8.3,0.5,12.4,1.4l0,0l0,0c5.5,1.6,10.7,4,15.5,7.2
		l-0.6,1l0.5-1c7,3.5,13,8.7,17.6,15.1l-0.9,0.7l0.9-0.7c4,5,6.3,11,6.7,17.4l0,0.2L306.2,368.8l1.1-0.1L306.2,368.8z M275.5,364
		l0.8,0.9l-1.1,0.9l0,0l0,0c-2.4,2-5.5,3.1-8.6,3.1l-0.8,0h0l-0.1,0l0.2-1.1l0.1,1.2l-1.1,0c-4.4,0-8.8-1.4-12.4-3.9l0.7-0.9
		l-0.5,1.1c-0.6-0.3-1.3-0.6-1.8-1.1l0,0l0,0c-1.8-1.4-3.2-3.2-4-5.3l1.1-0.4l-1,0.6c-0.5-0.9-0.8-1.9-0.8-2.8l1.2,0l-1.2,0l0-0.2
		c0-1.2,0.4-2.4,1.1-3.4c0.6-0.8,1.4-1.4,2.4-1.8l0.4,1.1l-0.4-1.1l0.1,0l0.4,1.1l-0.6-1c2.8-1.7,6-2.5,9.2-2.5
		c2.4,0,4.8,0.5,7.1,1.5l-0.5,1.1l0.3-1.1c0.8,0.3,1.6,0.6,2.4,0.9l0,0l0,0c3.6,1.8,6.6,4.6,8.5,8.2l-1,0.6l0.9-0.7l0.3,0.4l0,0l0,0
		c0.5,0.8,0.8,1.7,0.8,2.6l0,0.3l-1.2-0.1l1.2,0c0,1-0.4,1.9-1,2.7l-0.1,0.1l-0.1,0.1L275.5,364l-0.9-0.7c0.3-0.4,0.5-0.9,0.5-1.4v0
		l0-0.1c0-0.5-0.1-1-0.4-1.4l1-0.6l-0.9,0.7l-0.3-0.4l-0.1-0.1l0-0.1c-1.7-3.1-4.4-5.6-7.5-7.2l0.5-1l-0.5,1
		c-0.7-0.3-1.4-0.6-2.1-0.8l-0.1,0l-0.1,0c-2-0.9-4.1-1.3-6.2-1.3c-2.8,0-5.5,0.7-8,2.2l-0.1,0l-0.2,0.1l0,0l0,0
		c-0.5,0.2-0.9,0.5-1.2,0.9c-0.4,0.6-0.7,1.3-0.7,2.1v0.1v0v0c0,0.6,0.2,1.2,0.5,1.7l0,0.1l0,0.1c0.7,1.7,1.8,3.2,3.3,4.3l-0.7,0.9
		l0.7-0.9c0.4,0.3,0.9,0.6,1.4,0.8l0.1,0l0.1,0.1c3.3,2.3,7.2,3.5,11.1,3.5l1,0l0.1,0l0.2,0l-0.2,1.1l0.1-1.2l0.7,0
		c2.6,0,5.1-0.9,7.1-2.5l0.7,0.9l-0.8-0.9l1.1-0.9L275.5,364l-0.9-0.7L275.5,364z"/>
	<path class="st1" d="M599,384.5c5.4,0,9.7,4.4,9.7,9.8c0,5.5-4.3,9.8-9.7,9.8c-5.4,0-9.8-4.3-9.8-9.8
		C589.1,388.9,593.5,384.5,599,384.5L599,384.5z M598.9,386.5c-4.1,0-7.4,3.5-7.4,7.9c0,4.4,3.3,7.8,7.4,7.8c4.1,0,7.5-3.4,7.5-7.8
		C606.4,390,603,386.5,598.9,386.5L598.9,386.5z M597.2,400h-2.3v-10.8c0.9-0.1,1.8-0.3,3.5-0.3c1.9,0,3,0.3,3.7,0.9
		c0.6,0.5,1,1.2,1,2.3c0,1.3-0.9,2.2-2.1,2.5v0.1c1,0.2,1.6,1,1.7,2.6c0.2,1.7,0.4,2.3,0.6,2.7h-2.4c-0.3-0.4-0.4-1.3-0.7-2.8
		c-0.2-1.2-0.9-1.7-2-1.7h-1V400z M597.2,393.7h1.1c1.3,0,2.4-0.4,2.4-1.6c0-0.9-0.7-1.6-2.2-1.6c-0.6,0-1,0-1.3,0V393.7z"/>
</g>
</svg>
