<svg id="Layer_1" data-name="Layer 1" xmlns="http://www.w3.org/2000/svg" viewBox="0 0 250 250"><defs><style>.cls-1{fill:red;}.cls-2{fill:#f9e8a0;}.cls-3{fill:#414042;}</style></defs><title>GroceryMass MerchandiseSupercenter</title><circle class="cls-1" cx="91.99" cy="191.96" r="15.91"/><circle class="cls-1" cx="177.15" cy="191.96" r="15.91"/><path class="cls-2" d="M164,133.94c5.61,0,12.17-2.81,14-8.42L208,69.37a7,7,0,0,0,0-8.42,7.88,7.88,0,0,0-6.55-3.74H76.08L69.53,41.29H41.45V58.14H58.3l30.88,64.57L77,143.3c-.94,2.81-.94,5.61-1.87,7.49A16.77,16.77,0,0,0,92,167.63H194V150.79H95.73a2,2,0,0,1-1.87-1.87V148l7.49-14Z"/><path class="cls-3" d="M177.15,173.25A19.77,19.77,0,0,0,157.5,192.9a19.65,19.65,0,1,0,39.3,0h0A19.77,19.77,0,0,0,177.15,173.25Zm14,19.65a15,15,0,1,1-15-15,14.78,14.78,0,0,1,15,15Z"/><path class="cls-3" d="M209.9,60a9.83,9.83,0,0,0-8.42-4.68H77.95L71.4,39.42c-.94-.94-1.87-1.87-2.81-1.87H40.52c-.94,0-1.87.94-1.87,2.81V57.2A3,3,0,0,0,41.45,60h15l29,61.76L74.21,141.43a33.25,33.25,0,0,0-1.87,9.36A19.77,19.77,0,0,0,92,170.44H194a2,2,0,0,0,1.87-1.87V151.72a3,3,0,0,0-2.81-2.81H95.73l6.55-12.17H164c6.55,0,13.1-3.74,15.91-9.36L209.9,71.24Q212.71,64.22,209.9,60Zm-3.74,7.49-29.95,56.15c-1.87,4.68-7.49,7.49-12.17,7.49h-62.7a3.27,3.27,0,0,0-1.87.94l-7.49,14V148a4,4,0,0,0,3.74,3.74h96.39v12.17H92a14.78,14.78,0,0,1-15-15c0-2.81.94-4.68.94-7.49l12.17-20.59V119L60.17,56.27c0-.94-.94-.94-1.87-.94h-15V43.16H67.66l6.55,15.91a2,2,0,0,0,1.87,1.87h125.4c1.87,0,3.74.94,3.74,2.81C207.09,63.75,207.09,65.62,206.16,67.5Z"/><path class="cls-3" d="M92,173.25A19.77,19.77,0,0,0,72.33,192.9,19.19,19.19,0,0,0,92,212.55a19.77,19.77,0,0,0,19.65-19.65h0A19.19,19.19,0,0,0,92,173.25Zm15,19.65a15,15,0,1,1-29.95,0c0-8.42,7.49-15,15-15a14.78,14.78,0,0,1,15,15Z"/><path class="cls-3" d="M161.24,77.79H89.18a2.81,2.81,0,1,1,0-5.61h73A3,3,0,0,1,165,75c-.94,1.87-1.87,2.81-3.74,2.81Zm-13.1,16.84h-59c-1.87,0-2.81-.94-2.81-1.87A3,3,0,0,1,89.18,90h59.89a3,3,0,0,1,2.81,2.81,4.86,4.86,0,0,1-3.74,1.87Zm-14,16.84H89.18a2.81,2.81,0,0,1,0-5.61H135a3,3,0,0,1,2.81,2.81c-.94,1.87-1.87,2.81-3.74,2.81Z"/><path class="cls-3" d="M177.15,173.25A19.77,19.77,0,0,0,157.5,192.9a19.65,19.65,0,1,0,39.3,0h0A19.77,19.77,0,0,0,177.15,173.25Zm14,19.65a15,15,0,1,1-15-15,14.78,14.78,0,0,1,15,15Z"/><path class="cls-3" d="M209.9,60a9.83,9.83,0,0,0-8.42-4.68H77.95L71.4,39.42c-.94-.94-1.87-1.87-2.81-1.87H40.52c-.94,0-1.87.94-1.87,2.81V57.2A3,3,0,0,0,41.45,60h15l29,61.76L74.21,141.43a33.25,33.25,0,0,0-1.87,9.36A19.77,19.77,0,0,0,92,170.44H194a2,2,0,0,0,1.87-1.87V151.72a3,3,0,0,0-2.81-2.81H95.73l6.55-12.17H164c6.55,0,13.1-3.74,15.91-9.36L209.9,71.24Q212.71,64.22,209.9,60Zm-3.74,7.49-29.95,56.15c-1.87,4.68-7.49,7.49-12.17,7.49h-62.7a3.27,3.27,0,0,0-1.87.94l-7.49,14V148a4,4,0,0,0,3.74,3.74h96.39v12.17H92a14.78,14.78,0,0,1-15-15c0-2.81.94-4.68.94-7.49l12.17-20.59V119L60.17,56.27c0-.94-.94-.94-1.87-.94h-15V43.16H67.66l6.55,15.91a2,2,0,0,0,1.87,1.87h125.4c1.87,0,3.74.94,3.74,2.81C207.09,63.75,207.09,65.62,206.16,67.5Z"/><path class="cls-3" d="M92,173.25A19.77,19.77,0,0,0,72.33,192.9,19.19,19.19,0,0,0,92,212.55a19.77,19.77,0,0,0,19.65-19.65h0A19.19,19.19,0,0,0,92,173.25Zm15,19.65a15,15,0,1,1-29.95,0c0-8.42,7.49-15,15-15a14.78,14.78,0,0,1,15,15Z"/><path class="cls-3" d="M161.24,77.79H89.18a2.81,2.81,0,1,1,0-5.61h73A3,3,0,0,1,165,75c-.94,1.87-1.87,2.81-3.74,2.81Zm-13.1,16.84h-59c-1.87,0-2.81-.94-2.81-1.87A3,3,0,0,1,89.18,90h59.89a3,3,0,0,1,2.81,2.81,4.86,4.86,0,0,1-3.74,1.87Zm-14,16.84H89.18a2.81,2.81,0,0,1,0-5.61H135a3,3,0,0,1,2.81,2.81c-.94,1.87-1.87,2.81-3.74,2.81Z"/></svg>