<?xml version="1.0" encoding="utf-8"?>
<!-- Generator: Adobe Illustrator 21.1.0, SVG Export Plug-In . SVG Version: 6.00 Build 0)  -->
<svg version="1.1" id="Layer_1" xmlns="http://www.w3.org/2000/svg" xmlns:xlink="http://www.w3.org/1999/xlink" x="0px" y="0px"
	 viewBox="0 0 170.4 100.9" style="enable-background:new 0 0 170.4 100.9;" xml:space="preserve">
<title>Casual dining</title>
<path d="M95.8,28.5c-1.4,0.7-3,0.9-4.6,0.7c0.4-1.3,0.7-2.7,1-4c0.1-0.3,0.3-0.2,0.4-0.2c1.6,0,3.1-0.6,4.3-1.6
	c0.5-0.4,0.9-0.9,1.2-1.4c0.1-0.2,0.3-0.3,0.5-0.3c2.3,0,4.6-0.1,6.9,0.1c2,0,4,0.7,5.6,1.9c1.6,1.2,2.6,3.1,2.8,5.1
	c0.3,2.8-0.7,5.7-2.7,7.6c-1.5,1.7-3.4,2.9-5.6,3.4l-0.3,0.1c0.3,0.2,0.5,0.4,0.7,0.6c1.7,1.7,2.6,3.9,2.7,6.3c0,1.5,0,3-0.1,4.5
	c0,0.6-0.1,1.2-0.1,1.8c-0.2,1.2,0.7,2.3,1.9,2.5c0.3,0,0.6,0,0.9-0.1c0.3,0,0.7-0.2,1-0.3c0.2-0.1,0.3-0.1,0.3,0.1
	c0.3,1.2,0.5,2.4,0.8,3.6c0.1,0.3-0.1,0.3-0.2,0.4c-1.5,1.2-3.5,1.7-5.4,1.4c-1.3-0.1-2.5-0.5-3.6-1.2c-1.7-1.2-2.6-3.3-2.3-5.4
	c0.1-1.6,0.4-3.2,0.6-4.8c0.4-1.8,0.2-3.6-0.5-5.3c-0.6-1.3-1.6-2.4-2.9-3C99.2,41,99,41,98.9,41.4c-1,3.7-1.9,7.4-2.9,11.1
	c0,0.3-0.2,0.4-0.5,0.4c0,0,0,0-0.1,0c-1.9,0-3.7,0-5.6,0c-0.5,0-0.5,0-0.4-0.5l6.2-23.6C95.8,28.7,95.8,28.6,95.8,28.5z
	 M101.4,36.4c1.4,0.1,2.8-0.3,3.9-1.2c1.7-1.4,2.6-3.6,2.2-5.8c-0.1-1.3-0.9-2.5-2.2-2.9c-0.6-0.2-1.3-0.2-1.9-0.2
	c-0.2,0-0.5,0.1-0.5,0.4c0,0,0,0,0,0c-0.7,2.9-1.5,5.7-2.2,8.6c-0.1,0.3-0.4,0.8-0.2,1S101,36.3,101.4,36.4L101.4,36.4z"/>
<path d="M6.8,28.4c-1.1,0.5-2.2,0.8-3.4,0.8c-0.3,0-0.7,0-1,0s-0.3-0.1-0.2-0.3c0.3-1.2,0.7-2.4,1-3.6c0-0.2,0.2-0.3,0.3-0.3
	c2.3,0,4.4-1.1,5.6-3.1c0.1-0.2,0.3-0.3,0.5-0.2c1.7,0,3.4,0,5.1,0c0.4,0,0.3,0.2,0.3,0.4l-3,11.3C11.9,34,11.8,34,12.5,34
	c1.6,0,3.2,0,4.8,0c0.3,0,0.5-0.1,0.5-0.4c1-3.8,2-7.6,2.9-11.4c0.1-0.4,0.2-0.5,0.6-0.5c1.8,0,3.7,0,5.5,0c0.5,0,0.5,0,0.4,0.5
	l-7.3,27.7c-0.2,0.9-0.5,1.8-0.7,2.8c0,0.2-0.2,0.3-0.4,0.3c0,0,0,0,0,0c-1.9,0-3.9,0-5.8,0c-0.4,0-0.3-0.2-0.3-0.4l3.4-12.9
	c0.1-0.5,0.1-0.5-0.4-0.5c-1.7,0-3.3,0-5,0c-0.3,0-0.5,0.1-0.5,0.4c-1.1,4.3-2.3,8.7-3.4,13C7,52.9,6.9,53,6.5,53
	c-1.9,0-3.8,0-5.7,0c-0.3,0-0.4-0.1-0.3-0.4c2.1-7.9,4.1-15.8,6.2-23.7C6.7,28.8,6.8,28.6,6.8,28.4z"/>
<path d="M131.9,50.3c0.4,0.6,0.8,1.2,1.2,1.7c0.4,0.5,0.8,0.9,1.3,1.3c0.2,0.2,0.4,0.5,0.3,0.8c-1,13.6-7.9,26.2-18.8,34.4
	c-17.7,13.5-42.4,12.9-59.4-1.4c-8.1-6.7-13.8-16-16.1-26.3c-0.3-1.3-0.5-2.6-0.7-3.9c0-0.3,0-0.4,0.3-0.3c0.8,0.2,1.5,0.3,2.3,0.2
	c0.3,0,0.4,0.1,0.4,0.4c1.7,11.5,7.9,21.9,17.3,28.9c4.7,3.6,10.1,6.2,15.8,7.7c23.5,6,47.5-7.7,54.3-31c1.1-3.8,1.7-7.7,1.7-11.7
	C131.8,50.8,131.8,50.6,131.9,50.3z"/>
<path d="M160.4,45.3c1.8,1.6,2.7,3.9,2.6,6.3c0,0.6,0,1.3,0,1.9c-0.1,0.8,0.5,1.6,1.4,1.6c0.1,0,0.2,0,0.3,0c0.5,0,1.1-0.1,1.5-0.3
	c0.2-0.1,0.2-0.1,0.3,0.1c0.3,1.2,0.5,2.4,0.8,3.6c0.1,0.2-0.1,0.3-0.2,0.4c-2.2,1.4-5,1.5-7.3,0.3c-1.5-0.9-2.3-2.6-2.2-4.3
	c0-1.3,0.1-2.6,0.2-3.9c0.1-0.8,0-1.5-0.4-2.3c-0.4-1-1.2-1.7-2.2-2c-0.3-0.1-0.4,0-0.5,0.3c-0.5,1.9-1,3.8-1.5,5.7
	c0,0.2-0.1,0.3-0.3,0.3h-6.1c0.2-0.9,0.5-1.8,0.7-2.7c2.5-9.4,4.9-18.8,7.4-28.1c0-0.3,0.3-0.5,0.5-0.4c0,0,0,0,0,0
	c1.8,0,3.6,0,5.4,0c0.3,0,0.4,0,0.3,0.4c-1.1,4-2.1,8-3.1,12.1c0,0.1,0,0.1,0,0.2c0.2,0,0.3-0.2,0.4-0.3c2-1.9,5-2.5,7.5-1.4
	c1.9,0.9,3,2.9,2.8,5c-0.3,2.3-1.6,4.4-3.6,5.7c-1.3,0.9-2.7,1.6-4.2,1.9L160.4,45.3z M161.3,36.5c-0.6,0-1.1,0.2-1.6,0.5
	c-2,1.3-3.4,3.3-3.9,5.6c-0.1,0.2,0,0.3,0.2,0.3c2.1,0,4.1-0.9,5.6-2.3c0.6-0.5,1-1.2,1.1-2C163,37.3,162.4,36.5,161.3,36.5
	L161.3,36.5z"/>
<path d="M76.3,34.2l1.3-4.8c0.6-2.4,1.3-4.9,1.9-7.3c0-0.2,0.2-0.4,0.5-0.4c0,0,0,0,0,0c1.8,0,3.7,0,5.5,0c0.4,0,0.4,0.1,0.3,0.4
	c-2.5,9.7-5.1,19.4-7.6,29.1c-0.1,0.5-0.3,1-0.4,1.5c0,0.2-0.1,0.3-0.3,0.3h-5.1l0.6-2.4H73c-0.2,0.3-0.4,0.5-0.6,0.7
	c-2,2.4-5.6,2.7-8,0.6c0,0,0,0,0,0c-1.3-1.1-2.1-2.6-2.4-4.3c-0.4-3.1,0.1-6.2,1.5-9c1-2.2,2.6-4.1,4.6-5.4c1.5-1,3.3-1.4,5.1-1.1
	C74.5,32.3,75.6,33,76.3,34.2z M74.8,40.4c0-0.8-0.1-1.5-0.4-2.2c-0.3-0.9-1.4-1.4-2.3-1.1c-0.1,0-0.1,0-0.1,0.1
	c-0.3,0.1-0.6,0.3-0.8,0.4c-0.7,0.5-1.3,1.2-1.7,2c-0.8,1.6-1.3,3.4-1.3,5.2c0,0.7,0.1,1.4,0.3,2.1c0.2,1,1.1,1.6,2.1,1.4
	c0.2,0,0.4-0.1,0.6-0.3c0.7-0.4,1.4-1,1.8-1.7C74.1,44.5,74.8,42.5,74.8,40.4L74.8,40.4z"/>
<path d="M43.7,30.4C54.8,6.5,83.1-4,107,7.1c12.3,5.7,21.6,16.3,25.6,29.2l-0.2-0.3c-0.9-1.4-2-2.7-3.2-3.8
	c-0.4-0.4-0.9-0.7-1.3-0.9c-0.3-0.1-0.5-0.4-0.6-0.7C122,20,112.8,11.9,101.6,8.1c-5.5-1.9-11.4-2.7-17.3-2.3
	C68.6,6.7,54.5,15.9,47.2,30c-0.1,0.3-0.4,0.5-0.7,0.4C45.6,30.4,44.7,30.4,43.7,30.4z"/>
<path d="M44.3,48.1c-0.4,1.5-0.8,2.9-1.1,4.3c0,0.1-0.1,0.3-0.3,0.3c-1.5,0.8-3.2,0.8-4.7,0.1c-1-0.5-1.7-1.4-2-2.6
	c-0.2,0-0.2,0.2-0.3,0.3c-1,1.5-2.5,2.4-4.3,2.6c-2,0.3-4-0.6-5.2-2.2c-1.1-1.3-1.7-3-1.7-4.8c-0.1-3.3,0.9-6.6,2.7-9.4
	c1.3-2.1,3.2-3.7,5.5-4.4c1.1-0.4,2.2-0.4,3.3-0.2c1.3,0.3,2.4,1.2,3,2.4c0.2-0.6,0.3-1.2,0.4-1.8c0.1-0.3,0.2-0.4,0.5-0.4
	c1.8,0,3.5,0,5.3,0c0.4,0,0.5,0.1,0.4,0.5c-1.2,4.5-2.4,9-3.5,13.4c-0.1,0.3-0.2,0.7-0.1,1.1c0,0.4,0.3,0.8,0.8,0.8
	C43.5,48.2,43.9,48.2,44.3,48.1z M37.8,40.4c0-0.3,0-0.6-0.1-0.9c0-0.3-0.1-0.6-0.2-0.9c-0.2-1.1-1.2-1.8-2.2-1.6
	c-0.3,0.1-0.7,0.2-0.9,0.4c-0.7,0.4-1.2,1-1.6,1.7c-1,1.6-1.6,3.5-1.6,5.4c-0.1,0.8,0,1.6,0.3,2.3c0.2,1,1.1,1.6,2.1,1.4
	c0.2,0,0.4-0.1,0.6-0.3c0.7-0.4,1.3-0.9,1.7-1.6C37.1,44.6,37.8,42.5,37.8,40.4L37.8,40.4z"/>
<path d="M130.7,41c0,4.2-2.2,8.2-5.7,10.5c-2,1.4-4.6,2-7,1.6c-2.9-0.5-5.2-2.8-5.7-5.7c-1.1-4.3,0.8-11.4,6.3-14.3
	c2-1.1,4.2-1.4,6.4-0.9c2.8,0.6,4.9,2.8,5.4,5.6C130.6,38.9,130.7,39.9,130.7,41z M124.7,40.3c0-0.9-0.1-1.8-0.5-2.7
	c-0.4-0.9-1.4-1.3-2.3-1c0,0,0,0-0.1,0c-0.4,0.1-0.7,0.3-1,0.6c-0.6,0.5-1.1,1.2-1.5,1.9c-0.8,1.5-1.2,3.2-1.3,4.8c-0.1,1,0,2,0.4,3
	c0.3,1,1.3,1.6,2.2,1.3c0.3-0.1,0.6-0.2,0.8-0.4c0.6-0.5,1.1-1,1.5-1.7C124,44.4,124.6,42.4,124.7,40.3L124.7,40.3z"/>
<path d="M147.5,38c-0.3-0.3-0.6-0.5-0.9-0.7c-1.6-1.2-3.9-1.1-5.4,0.4c-2.1,2.3-3,5.4-2.4,8.5c0.3,1.4,1.6,2.4,3,2.3
	c1.1,0.1,2.2-0.2,3.2-0.7l-0.6,2.2c-0.2,0.8-0.4,1.5-0.6,2.3c0,0.2-0.1,0.3-0.3,0.4c-3,0.9-5.9,0.8-8.3-1.4
	c-1.6-1.5-2.6-3.5-2.6-5.7c-0.3-4.8,2-9.4,6.1-12c2.8-1.9,6.6-2.1,9.5-0.3c0.3,0.1,0.5,0.4,0.4,0.7c0,0,0,0.1,0,0.1
	c-0.4,1.3-0.7,2.5-1,3.8C147.6,37.9,147.6,37.9,147.5,38z"/>
<path d="M135.8,54.5h0.1c0.9,0.4,0.9,1.1,0.8,1.9c-1.6,12.9-8.1,24.6-18.2,32.8c-21.4,17.4-52.9,14.2-70.3-7.2
	c-6.1-7.5-9.9-16.5-10.9-26.1c0-0.1,0-0.2,0-0.3s-0.1-0.2,0.1-0.3s0.2,0.1,0.3,0.1c0.6,0.4,0.9,1,0.9,1.7C39.6,64.2,42.1,71,46,77
	c4.1,6.4,9.7,11.7,16.2,15.5c5,3,10.5,5,16.2,6c4.7,0.9,9.5,1,14.3,0.4c15.2-2,27-9.4,35.5-22.1c3.7-5.6,6.2-12,7.2-18.6
	c0.2-1.1,0.3-2.3,0.4-3.4C135.8,54.8,135.8,54.7,135.8,54.5z"/>
<path d="M46,52.9c0.4-1.5,0.8-2.9,1.1-4.4c1.3-5.2,2.7-10.5,4.1-15.7c0-0.3,0.3-0.5,0.6-0.5c0,0,0,0,0.1,0c1.7,0,3.5,0,5.2,0
	c0.5,0,0.5,0,0.4,0.5l-0.6,2.3c0.2-0.1,0.3-0.2,0.3-0.4c0.9-1.3,2.2-2.2,3.7-2.7c0.6-0.2,1.3-0.1,1.9,0.1c0.1,0,0.3,0.1,0.2,0.3
	c-0.5,1.9-1,3.8-1.5,5.8c-0.4-0.2-0.9-0.3-1.3-0.4c-1.3-0.2-2.6,0.4-3.3,1.4c-1,1.2-1.7,2.7-2,4.2c-0.8,3-1.6,6-2.4,9
	c-0.1,0.3-0.2,0.4-0.5,0.4c-1.9,0-3.7,0-5.6,0L46,52.9z"/>
<path d="M133.7,35.5c-0.4-1-0.7-2-1.1-2.9c-4.6-11.7-13.5-21.2-24.9-26.5c-5-2.4-10.4-3.8-15.9-4.3c-20.7-2-40.5,9.3-49.2,28.2
	c-0.1,0.3-0.3,0.4-0.6,0.4c-0.3,0-0.5,0-0.8,0c0.1-0.3,0.2-0.5,0.3-0.7c5.1-11.1,14-19.9,25.1-24.9c4.7-2.2,9.7-3.5,14.8-4
	c16.1-1.5,29.9,3.4,41.4,14.8c5.2,5.2,9.1,11.5,11.5,18.4c0.2,0.3,0.1,0.7-0.2,1C134,35.1,133.9,35.4,133.7,35.5z"/>
<path d="M88.6,80.1h-2.9c-0.2,0-0.3-0.1-0.3-0.3c-0.2-0.5-0.4-1-0.5-1.5c0-0.2-0.2-0.3-0.4-0.3h-3.9c-0.2,0-0.4,0.1-0.4,0.3
	c-0.2,0.5-0.4,1-0.5,1.5c-0.1,0.2-0.2,0.3-0.4,0.3c-0.8,0-1.5,0-2.3,0c-0.3,0-0.3-0.1-0.2-0.3c1.4-3.7,2.7-7.4,4.1-11.1
	c0-0.2,0.2-0.3,0.4-0.3c0.9,0,1.9,0,2.8,0c0.2,0,0.4,0.1,0.4,0.3c1.3,3.7,2.7,7.4,4.1,11.2C88.5,79.9,88.6,80,88.6,80.1z M80.9,75.9
	h2.9c0.3,0,0.2-0.1,0.1-0.3c-0.5-1.4-1-2.7-1.5-4.3C82,73,81.4,74.4,80.9,75.9L80.9,75.9z"/>
<path d="M99.5,74.2c0-1.8,0-3.6,0-5.4c0-0.4,0.1-0.4,0.4-0.4c2.1,0,4.2,0,6.3,0c0.3,0,0.4,0.1,0.4,0.4c0,0.5,0,1,0,1.5
	c0,0.3-0.1,0.3-0.3,0.3c-1.2,0-2.4,0-3.6,0c-0.3,0-0.4,0.1-0.4,0.4c0,0.5,0,1.1,0,1.6c0,0.3,0.1,0.3,0.3,0.3c1.1,0,2.2,0,3.3,0
	c0.3,0,0.5,0.1,0.4,0.4c0,0.5,0,0.9,0,1.4c0,0.3-0.1,0.4-0.4,0.4c-1.1,0-2.2,0-3.3,0c-0.4,0-0.4,0.1-0.4,0.4c0,0.6,0,1.2,0,1.8
	c0,0.3,0.1,0.4,0.4,0.4c1.2,0,2.3,0,3.5,0c0.3,0,0.4,0.1,0.4,0.4c0,0.5,0,1.1,0,1.6c0,0.2-0.1,0.3-0.3,0.3c-2.2,0-4.4,0-6.6,0
	c-0.3,0-0.3-0.1-0.3-0.4C99.5,77.9,99.5,76,99.5,74.2z"/>
<path d="M75.3,77.2c0.1,0.8,0.2,1.6,0.2,2.3c0,0.1,0,0.2-0.2,0.3c0,0,0,0,0,0c-2,0.7-4.1,0.6-6-0.3c-1.2-0.6-2.1-1.7-2.4-3
	c-0.4-1.4-0.4-2.8,0-4.2c0.7-2.4,2.8-4.1,5.3-4.2c1-0.1,1.9,0,2.9,0.2c0.3,0.1,0.3,0.1,0.3,0.4c-0.1,0.6-0.1,1.3-0.2,1.9
	c0,0.3-0.1,0.3-0.3,0.2c-0.6-0.2-1.3-0.3-2-0.3c-1.4-0.1-2.7,0.9-3,2.3c-0.2,0.8-0.2,1.6-0.1,2.3c0.2,1.5,1.5,2.5,3,2.4
	C73.7,77.7,74.5,77.5,75.3,77.2z"/>
<path d="M90.2,74.2c0-1.8,0-3.6,0-5.4c0-0.3,0.1-0.4,0.4-0.4c2.1,0,4.2,0,6.3,0c0.3,0,0.4,0.1,0.4,0.4c0,0.5,0,1,0,1.5
	c0,0.3-0.1,0.4-0.4,0.4c-1.1,0-2.3,0-3.4,0c-0.3,0-0.4,0.1-0.4,0.4c0,0.6,0,1.2,0,1.8c0,0.3,0.1,0.4,0.4,0.4c1,0,2.1,0,3.1,0
	c0.3,0,0.4,0.1,0.4,0.4c0,0.5,0,1,0,1.5c0,0.3-0.1,0.4-0.4,0.4c-1,0-2.1,0-3.1,0c-0.4,0-0.5,0.1-0.5,0.5c0,1.3,0,2.5,0,3.8
	c0,0.3-0.1,0.4-0.4,0.4c-0.7,0-1.4,0-2.1,0c-0.3,0-0.4-0.1-0.4-0.4C90.2,77.8,90.2,76,90.2,74.2z"/>
<path d="M17.7,55c-0.9,0-1.9,0-2.8,0c-0.3,0-0.4,0-0.3-0.4c0.2-0.6,0.2-0.6,0.8-0.6c1.4,0,2.9,0,4.3,0c0.3,0,0.4-0.1,0.5-0.4
	c2.6-9.8,5.1-19.6,7.7-29.4c0-0.2,0-0.4,0.2-0.4c0.3,0,0.6,0,0.9,0c0.1,0,0,0.2,0,0.3c-0.6,2.2-1.1,4.4-1.7,6.6
	c-2.1,8-4.2,16-6.2,23.9c0,0.2-0.2,0.4-0.5,0.4c0,0,0,0-0.1,0C19.6,55,18.7,55,17.7,55z"/>
<path d="M76.8,55c-0.8,0-1.5,0-2.3,0c-0.4,0-0.4-0.1-0.3-0.4l0,0c0-0.5,0.3-0.6,0.8-0.6c1.1,0,2.1,0,3.2,0c0.4,0,0.5-0.1,0.6-0.5
	c1.9-7.2,3.7-14.3,5.6-21.4l2.1-8c0.2-0.4,0.7-0.5,1.1-0.3c0.1,0.1,0,0.2,0,0.3L86,29.9c-2.1,8.2-4.3,16.3-6.4,24.5
	c-0.1,0.4-0.3,0.6-0.7,0.6C78.2,55,77.5,55,76.8,55z"/>
<path d="M47.8,55c0,0,0-0.1,0-0.1C48,54,48,54,48.9,54c1.3,0,2.5,0,3.8,0c0.5,0,0.7-0.1,0.8-0.6c0.8-3.3,1.7-6.5,2.6-9.8
	c0.3-1.3,0.9-2.4,1.7-3.5c0.3-0.4,0.7-0.8,1.2-1.1c0.7-0.4,1.5-0.4,2.2-0.1c0.1,0.1,0.3,0.1,0.2,0.3c0,0.1-0.1,0.2-0.3,0.2
	c-1.1,0.1-2.1,0.7-2.6,1.7c-0.9,1.4-1.5,3-1.9,4.7c-0.8,2.9-1.5,5.8-2.3,8.7c-0.1,0.3-0.2,0.4-0.5,0.4c-1.8,0-3.7,0-5.5,0L47.8,55z"
	/>
<path d="M15.1,40.2c0,0,0,0.1,0,0.1c-0.2,0.9-0.2,0.9-1.1,0.9c-0.5,0-0.9,0-1.4,0s-0.5,0.1-0.5,0.4c-1.1,4.3-2.3,8.6-3.4,13
	c-0.1,0.3-0.2,0.4-0.6,0.4c-1.9,0-3.7,0-5.6,0c-0.3,0-0.4,0-0.3-0.4C2.4,54,2.4,54,3.1,54c1.4,0,2.9,0,4.3,0c0.3,0,0.4-0.1,0.5-0.4
	c1.1-4.3,2.3-8.7,3.4-13c0.1-0.3,0.2-0.4,0.5-0.4C12.9,40.2,14,40.2,15.1,40.2z"/>
<path d="M117.3,54c1.7,0.3,3.5,0.2,5.2-0.3c3.8-1.2,6.8-4.1,8.1-7.9c0.8-2,1.1-4.3,0.9-6.4c0-0.1,0-0.2,0-0.4
	c0.3,0.7,0.4,1.5,0.5,2.3c0.4,3.9-1.1,7.8-3.9,10.6c-2,2.1-4.8,3.2-7.8,3.1C119.3,54.9,118.2,54.6,117.3,54z"/>
<path d="M91.2,55C91.2,55,91.2,55,91.2,55c0.2-1,0.2-1,1.1-1c1.4,0,2.7,0,4.1,0c0.2,0.1,0.5-0.1,0.5-0.4c0,0,0,0,0-0.1
	c0.9-3.5,1.8-7.1,2.8-10.6c0.1-0.6,0.1-0.6,0.6-0.2c0.3,0.2,0.4,0.6,0.3,1c-1,3.6-1.9,7.2-2.8,10.8c-0.1,0.3-0.2,0.4-0.6,0.4
	c-1.9,0-3.7,0-5.6,0H91.2z"/>
<path d="M43.7,47.3c-0.3,0-0.2-0.2-0.2-0.3l2.1-8.2c0.3-1.3,0.7-2.6,1-3.9c0-0.1,0-0.4,0.2-0.4c0.3-0.1,0.6-0.1,0.9,0
	c0.1,0.1,0,0.3,0,0.4l-1.6,6.2l-1.4,5.4C44.7,47,44.3,47.3,43.7,47.3C43.8,47.3,43.7,47.3,43.7,47.3z"/>
<path d="M148.4,55L148.4,55c0.2-0.9,0.2-0.9,1.1-0.9c1.3,0,2.6,0,3.9,0c0.4,0,0.5-0.1,0.6-0.4c0.4-1.7,0.9-3.5,1.3-5.2
	c0.1-0.3,0.2-0.4,0.4-0.1c0.4,0.3,0.5,0.8,0.4,1.3c-0.5,1.7-0.9,3.4-1.4,5.2c-0.1,0.2-0.1,0.3-0.4,0.3h-5.9L148.4,55z"/>
<path d="M169.6,37.1c0.4,1.2,0.4,2.5,0,3.6c-0.7,1.8-1.9,3.4-3.6,4.4c-0.9,0.6-1.8,1-2.9,1.4c-0.3,0.1-0.8-0.4-0.8-0.7
	s0.2-0.2,0.4-0.2c1.3-0.5,2.5-1.2,3.6-2.1c1.9-1.5,3.1-3.8,3.3-6.2C169.6,37.3,169.6,37.2,169.6,37.1z"/>
<path d="M115.2,29.7c0.4,1.9,0.1,3.9-0.8,5.7c-1.3,2.4-3.3,4.3-5.7,5.4c-0.8,0.4-0.6,0.5-1.2-0.4C111.9,38.1,114.9,34.9,115.2,29.7z
	"/>
<path d="M106.8,61.6c1.4,0.3,2.9,0.3,4.4-0.1c1.3-0.3,2.5-1,3.4-1.8c0.2-0.1,0.3-0.4,0.2-0.6c-0.2-0.9-0.4-1.7-0.6-2.6
	c-0.1-0.3,0-0.4,0.3-0.5c0.5-0.2,0.5-0.2,0.6,0.4l0.8,3.3c0.1,0.2,0,0.4-0.1,0.5c-2.4,2.3-5.9,2.9-8.9,1.6
	C106.9,61.7,106.9,61.7,106.8,61.6z"/>
<path d="M13.9,33c-0.7,0-0.7,0-0.5-0.5c0.7-2.8,1.5-5.5,2.2-8.3c0-0.2,0-0.4,0.2-0.4c0.3,0,0.6,0,0.9,0c0.2,0,0,0.3,0,0.4
	c-0.4,1.6-0.8,3.1-1.2,4.7c-0.3,1.2-0.7,2.4-0.9,3.6C14.4,32.9,14.3,33.1,13.9,33z"/>
<path d="M146.1,38.3c-1.8-0.1-3.5,0.7-4.4,2.2c-1.1,1.6-1.7,3.4-1.7,5.4c0,0.2,0,0.3,0,0.5c-0.1-0.1-0.2-0.3-0.2-0.4
	c-0.6-2.6,0.2-5.4,2-7.3C142.9,37.3,144.8,37.2,146.1,38.3z"/>
<path d="M161.4,60.9c1.5,0.3,3,0.1,4.5-0.4c0.8-0.3,1.5-0.7,2.2-1.3c0.2-0.1,0.3-0.4,0.2-0.6c-0.2-0.8-0.4-1.6-0.5-2.4
	c0-0.1-0.1-0.4,0-0.4c0.2-0.1,0.5-0.2,0.8-0.3c0.1,0,0.1,0.1,0.1,0.2c0.3,1.2,0.5,2.4,0.8,3.6c0,0.2-0.1,0.3-0.2,0.4
	c-1.4,1.4-3.4,2-5.3,1.8C163,61.5,162.2,61.3,161.4,60.9z"/>
<path d="M109.3,43.2c0.9,1.4,1.5,3,1.6,4.7c0.1,1.7,0,3.4-0.1,5.1c0,0.5,0,1-0.1,1.4c-0.5,0-0.9-0.5-0.9-1c0-0.8,0-1.5,0-2.3
	c0.1-1.3,0.1-2.6,0.1-3.8c0-1.2-0.2-2.4-0.6-3.6c0-0.1-0.1-0.2-0.1-0.3C109.2,43.4,109.3,43.3,109.3,43.2z"/>
<path d="M159.7,31.9l0.6-2.4l1.4-5.4c0.2-0.3,0.7-0.5,1.1-0.3c0.1,0.1,0,0.2,0,0.3c-0.6,2.4-1.2,4.7-1.8,7.1c0,0.1-0.1,0.3-0.3,0.3
	L159.7,31.9z"/>
<path d="M139.3,54.2c1.7,0.2,3.4-0.1,5-0.7c0.2-0.1,0.4-0.3,0.4-0.5c0.2-0.9,0.5-1.8,0.7-2.7c0.1-0.3,0.2-0.5,0.6-0.6
	c0.2-0.1,0.4-0.2,0.7-0.3c0,0.3-0.1,0.7-0.2,1c-0.3,1.1-0.6,2.2-0.9,3.4c0,0.2-0.1,0.4-0.3,0.4C143.3,54.8,141.3,54.8,139.3,54.2
	C139.3,54.2,139.3,54.2,139.3,54.2z"/>
<path d="M46,49.7c-0.4,1.5-0.8,2.9-1.1,4.3c0,0.1-0.1,0.2-0.2,0.3c-1.5,0.9-3.4,0.9-5,0.1c0,0,0,0-0.1-0.1c0.8,0,1.7,0,2.5-0.2
	l0.5-0.1c1-0.3,1.7-0.7,1.8-1.9c0.1-0.6,0.3-1.2,0.4-1.8c0.1-0.3,0.2-0.5,0.5-0.5C45.5,49.8,45.7,49.8,46,49.7z"/>
<path d="M29.7,54.1c2.3,0.4,4.7-0.4,6.4-2.1c0.2,0.3,0.4,0.6,0.7,0.8s0,0.2-0.1,0.3c-1.1,1.1-2.5,1.7-4.1,1.7
	C31.5,55,30.5,54.7,29.7,54.1z"/>
<path d="M149.5,34.5h0.1c0.8,0.3,0.8,0.3,0.6,1.2l-0.9,3.4c0,0.1-0.1,0.2-0.1,0.3l-0.7-0.5c-0.1-0.1-0.1-0.2-0.1-0.3
	C148.8,37.3,149.1,35.9,149.5,34.5z"/>
<path d="M71.5,53.2L71.4,54h1.1c-1,1.2-4.4,1.3-5.9,0.1C68.3,54.4,70,54.1,71.5,53.2z"/>
<path d="M139.5,60.5c0-1.3,1-2.3,2.3-2.3c0,0,0,0,0,0c1.3,0,2.3,1,2.3,2.2c0,0,0,0,0,0.1c0,1.3-1.1,2.3-2.3,2.3
	C140.5,62.8,139.5,61.7,139.5,60.5C139.5,60.5,139.5,60.5,139.5,60.5z M139.9,60.5c0,1.1,0.8,2,1.9,2.1c0,0,0,0,0.1,0
	c1.1,0,2-0.9,2-2c0-1.1-0.9-2-2-2C140.8,58.5,139.9,59.3,139.9,60.5L139.9,60.5z"/>
<path d="M163.8,49.1c0.7,1.1,1,2.4,1.1,3.7c0,0.3,0,0.6,0,0.9c0,0.1,0.1,0.4-0.2,0.4s-0.5,0-0.6-0.3c-0.1-0.2-0.1-0.4-0.1-0.6
	C164,51.8,164,50.4,163.8,49.1z"/>
<path d="M62.9,37.3c0.3-1.1,0.6-2.2,0.9-3.3c0.1-0.2,0.2-0.2,0.3-0.2c0.8,0.1,1,0.5,0.5,1.1S63.5,36.5,62.9,37.3z"/>
<path d="M93.6,31.1h-0.2c-0.8,0-0.8-0.1-0.5-0.8c0.1-0.1,0.1-0.2,0.3-0.2l0.7-0.1c0.6-0.1,0.5-0.1,0.4,0.5S94,31.2,93.6,31.1z"/>
<path d="M4.4,31.1L4.4,31.1c-0.7,0-0.8-0.2-0.5-0.9c0.1-0.1,0.2-0.1,0.3-0.2L4.9,30C5.4,30,5.4,30,5.3,30.5
	C5.1,31.1,5.1,31.1,4.4,31.1z"/>
<path d="M106.3,28.3c-0.5,0-0.9,0-1.3,0c-0.3,0-0.4,0.1-0.5,0.4c-0.5,2.1-1.1,4.1-1.6,6.2c0,0.2,0,0.4-0.2,0.4
	c-0.3,0.1-0.6,0.1-0.9,0.1c-0.2,0,0-0.2,0-0.4l1.5-5.9c0.1-0.5,0.3-1,0.4-1.4c0.1-0.3,0.2-0.3,0.4-0.3c0.8-0.1,1.5,0.2,2.1,0.8
	C106.2,28.2,106.3,28.2,106.3,28.3z"/>
<path d="M157,41.7c0-0.1,0-0.1,0-0.2c0.7-1.5,1.7-2.8,3.1-3.7c0.4-0.2,0.8-0.4,1.3-0.5c0.2-0.1,0.4,0,0.4,0.2c0,0,0,0.1,0,0.1
	c0,0.2,0.1,0.5-0.2,0.7c-1.2,0.5-2.3,1.4-3,2.5C158.3,41.4,157.7,41.8,157,41.7z"/>
<path d="M69.6,46.9c-0.3-0.3-0.4-0.7-0.4-1.1c-0.2-2.3,0.4-4.5,1.6-6.4c0.4-0.6,0.9-1,1.5-1.3c0.4-0.2,0.9,0,1.1,0.4
	c0,0,0,0.1,0.1,0.1c0,0.1,0.1,0.2-0.1,0.3c-1.8,0.7-2.5,2.2-3.2,3.9c-0.4,1.2-0.7,2.4-0.7,3.7C69.6,46.6,69.6,46.7,69.6,46.9z"/>
<path d="M32.7,47c-0.3-0.4-0.4-0.8-0.4-1.3c-0.2-2.2,0.3-4.5,1.6-6.4c0.4-0.6,0.9-1.1,1.6-1.3c0.4-0.2,0.9,0,1.1,0.4
	c0,0,0,0.1,0.1,0.1c0.1,0.1,0.1,0.2-0.1,0.3c-1.4,0.7-2.5,1.9-3,3.4C32.9,43.8,32.6,45.4,32.7,47z"/>
<path d="M119.4,46.9c-0.2-0.4-0.4-0.8-0.4-1.2c-0.2-2.1,0.2-4.3,1.3-6.2c0.4-0.8,1-1.5,1.9-1.8c0.4-0.2,0.9,0,1.1,0.4
	c0,0,0,0.1,0,0.1c0,0.1,0.1,0.2-0.1,0.3c-1.7,0.7-2.4,2.2-3,3.7C119.7,43.7,119.4,45.3,119.4,46.9z"/>
<path d="M142.6,61.7c-0.6,0-0.7-0.8-1.2-1c0,0.3,0,0.5,0,0.8s0,0.2-0.2,0.2s-0.2-0.1-0.2-0.3c0-0.7,0-1.3,0-2c0-0.1,0-0.2,0.1-0.3
	c0.4-0.1,0.7,0,1.1,0.1c0.2,0.1,0.3,0.3,0.3,0.5c0,0.2-0.1,0.5-0.3,0.6c-0.1,0.1-0.3,0.1-0.4,0.2l0.8,1L142.6,61.7z M141.4,59.8
	c0,0.3-0.1,0.6,0.3,0.5s0.5-0.1,0.5-0.4s-0.3-0.4-0.6-0.4S141.4,59.6,141.4,59.8L141.4,59.8z"/>
</svg>
