<?xml version="1.0" encoding="utf-8"?>
<!-- Generator: Adobe Illustrator 21.1.0, SVG Export Plug-In . SVG Version: 6.00 Build 0)  -->
<svg version="1.1" id="Layer_1" xmlns="http://www.w3.org/2000/svg" xmlns:xlink="http://www.w3.org/1999/xlink" x="0px" y="0px"
	 viewBox="0 0 181 44.8" style="enable-background:new 0 0 181 44.8;" xml:space="preserve">
<style type="text/css">
	.st0{fill:#020202;}
	.st1{fill:#FDC42E;}
</style>
<title>a</title>
<path class="st0" d="M180.4,21.1c-0.4,0.4-0.7,1-1.2,1.4c-1.4,1.2-3.2,1.9-5,2.1c-1.5,0.2-2.9,0.3-4.4,0.2c-0.3-0.1-0.5,0.1-0.6,0.4
	c-1.2,3.3-4.2,5.6-7.6,6c-2.2,0.4-4.5,0-6.3-1.3c-0.7-0.5-1.2-1.4-1.1-2.3c-0.6,0.5-1.1,0.9-1.7,1.4c-2.2,1.7-5,2.6-7.7,2.4
	c-1.4,0-2.7-0.5-3.7-1.3c-1-1-1.6-2.3-1.5-3.7c0-0.2,0.1-0.3-0.1-0.5c-1.1,1.2-2.3,2.3-3.7,3.1c-2.2,1.5-4.8,2.3-7.5,2.3
	c-0.9,0-1.9-0.1-2.8-0.4c-1.4-0.4-2.5-1.5-2.9-2.9c-0.6,0.5-1.2,0.9-1.8,1.3c-1.2,0.9-2.5,1.6-4,1.9c-1.2,0.3-2.6,0-3.6-0.8
	c-0.4-0.3-0.6-0.7-0.7-1.2c-0.1-0.4-0.2-0.3-0.5-0.1c-1.3,1-2.8,1.7-4.3,2.1c-1.8,0.6-3.8-0.2-4.8-1.8c-0.3-0.5-0.4-1-0.5-1.6
	c-1,1-2.2,1.8-3.4,2.5c-1.3,0.7-2.7,1.1-4.2,1c-1.7-0.1-2.9-1.4-2.9-3.1c0-0.3,0.1-0.5,0.1-0.8c0.7-2.4,1.6-4.8,2.6-7.1
	c0.9-2,1.6-4.1,2.2-6.3c-0.7,0-1.4,0-2.1,0c-0.4,0-0.4,0.3-0.4,0.5c-1.1,2.6-2.3,5-3.8,7.4c-1.4,2.4-3.1,4.6-5,6.7
	c-1.1,1.2-2.5,2.1-4,2.6c-1.1,0.3-2.3,0.1-3.3-0.4c-0.6-0.3-1-0.8-1.2-1.4c-0.1-0.3-0.2-0.4-0.5-0.1c-1.5,1.2-3.3,1.9-5.2,2.1
	c-2.1,0.2-4-1.3-4.2-3.4c-0.3-2.6,0.2-5.3,1.4-7.7c1.4-3.5,3.8-6.4,7-8.3c3.4-2,7.5-2.3,11.1-0.8c0.3,0.1,0.4,0.2,0.2,0.5
	c-0.3,0.7-0.5,1.4-0.8,2.1c-0.1,0.2-0.1,0.3-0.4,0.2c-4.1-1.5-7.1,0.4-9.1,3.1c-2,2.8-3.3,6-3.9,9.3c0,0.1,0,0.3,0,0.4
	c0,1.4,0.6,1.9,1.8,1.2c1.6-0.8,2.9-2.2,3.6-3.9c1-2.8,2-5.5,3-8.2c0.1-0.3,0.1-0.5,0.5-0.5c1.7,0,3.4,0,5.1,0
	c-0.3,0.8-0.5,1.5-0.8,2.2c-1.3,3.5-2.5,6.9-3.8,10.4c0,0.1-0.2,0.3-0.1,0.4s0.3,0,0.4-0.1c1.1-0.7,2.1-1.7,2.9-2.8
	c2.1-2.9,3.9-6.1,5.3-9.4c0.3-0.6,0.6-1.3,0.8-1.9c0.1-0.2,0.2-0.3-0.1-0.4c-0.6-0.1-0.7-0.7-0.8-1.2c-0.3-2.3,1-4.5,3.2-5.3
	c0.8-0.4,1.8,0,2.2,0.9c0.1,0.2,0.1,0.5,0.1,0.7c0.1,0.5,0,1-0.1,1.5c-0.1,0.3-0.1,0.4,0.3,0.4c1.5-0.1,3,0,4.5,0.2
	c1.1,0.1,1.9,1,1.9,2.1c0,0.2,0,0.4-0.1,0.5c-0.3,1.2-0.7,2.4-1.3,3.6c-1.3,3.5-2.6,7.1-4,10.6c-0.1,0.1-0.2,0.3,0,0.5
	s0.3,0,0.5-0.1l4.5-3c0.3-0.2,0.4-0.5,0.5-0.9c0.6-3.3,2-6.5,4-9.2c2.6-3.7,7.2-5.6,11.6-4.8c0.4,0.1,0.5,0,0.6-0.4
	c0.9-2.4,1.8-4.7,2.7-7.1c0.1-0.3,0.4-0.5,0.7-0.5c1.7,0,3.3,0,5.1,0c-0.7,1.9-1.5,3.8-2.2,5.7c-2.5,6.6-5,13.1-7.5,19.7
	c-0.1,0.2-0.2,0.4-0.1,0.5s0.5,0,0.7-0.1c1.1-0.6,2-1.4,3.1-2.1c0.8-0.5,1.3-1.3,1.4-2.3c0.5-3.8,2.4-7.3,5.1-10
	c2.3-2.3,5.4-3.6,8.7-3.6c2.9,0,4.1,2.2,3.8,4.5c-0.3,2.8-2,4.6-4.2,6.1c-2.1,1.4-4.5,2.1-7,2c-0.4,0-0.6,0.1-0.7,0.5
	c-0.3,1.2-0.5,2.4-0.5,3.6c-0.1,1.1,0.8,2,1.9,2.1c0.3,0,0.5,0,0.7-0.1c1.1-0.3,2.1-0.7,3-1.3c2.2-1.4,4.2-3,5.9-4.9
	c0.4-0.5,0.7-1,0.9-1.6c0.9-2.6,2.3-4.9,4.1-6.9c2.4-2.7,5.8-4.2,9.4-4c2,0,3.6,1.6,3.6,3.6c0,0.3,0,0.7-0.1,1
	c-0.7,3.6-2.9,5.7-6.2,7c-1.6,0.6-3.4,1-5.1,1c-0.2,0-0.3,0-0.4,0.2c-0.5,1.3-0.7,2.6-0.6,4c0.2,1.6,1.1,2.2,2.6,1.8
	c1.9-0.5,3.6-1.6,4.9-3c1.6-1.6,3-3.4,4.3-5.3c2.5-3.2,4.9-6.5,7.4-9.8c0.2-0.2,0.4-0.4,0.7-0.3c1.3,0,2.7,0,4,0
	c0.4,0,0.6,0.1,0.6,0.5c0.1,3,0.3,6.1,0.4,9.1c0,0.6,0.1,1.1,0.1,1.7c0,0.3,0.1,0.4,0.5,0.4c1.8,0.1,3.6-0.2,5.3-0.6
	c1.3-0.3,2.7-0.7,3.9-1.3c0.4-0.2,0.6,0.1,0.8,0.3L180.4,21.1z M107.8,26.8c0,0.1,0,0.2,0,0.3c0,1,0.5,1.2,1.4,0.9l0.3-0.1
	c1.7-0.8,3.1-2.3,3.8-4.1c1.5-3.1,2.6-6.4,3.9-9.7c0.1-0.3,0.5-0.8,0.3-1s-0.8-0.2-1.3-0.2c-0.1,0-0.1,0-0.2,0
	c-1.5,0.4-2.9,1.4-3.8,2.7c-1.4,2-2.6,4.1-3.3,6.5C108.3,23.7,107.9,25.2,107.8,26.8L107.8,26.8z M129.4,20.4c0.1,0,0.1,0,0.2,0
	c2-0.4,3.7-1.4,5.1-2.9c1.1-1.1,1.7-2.7,1.7-4.2c0-0.8-0.5-1-1.2-0.8c-0.5,0.2-1,0.5-1.4,0.8c-0.6,0.6-1.1,1.2-1.6,1.9
	C131.1,16.8,130.1,18.6,129.4,20.4z M146.6,20.3c0.1,0.1,0.2,0.1,0.4,0c1.4-0.3,2.7-1,3.8-1.8c1.7-1.2,2.7-3.1,2.7-5.2
	c0-0.8-0.4-1.1-1.2-0.8c-0.6,0.2-1.1,0.6-1.5,1c-0.9,1-1.7,2.1-2.3,3.2C147.7,17.9,147.1,19.1,146.6,20.3z M159,22.3
	c1.6-0.2,3.1-0.3,4.7-0.3c0.7,0,0.8-0.1,0.8-0.8c0.1-1.2,0.1-2.4,0.1-3.6c0-1,0-2,0-2.9h-0.2C162.7,17.2,160.9,19.7,159,22.3z
	 M159.6,28.9c0.6,0,1.1-0.2,1.6-0.5c1-0.7,1.8-1.8,2.2-2.9c0.4-1,0.4-1-0.7-1.1c-1.6-0.1-3.2,0.5-4.3,1.7c-0.5,0.5-0.7,1.3-0.4,2
	C158.3,28.6,158.9,29,159.6,28.9L159.6,28.9z"/>
<path class="st1" d="M25.9,0.5c0.8,0.5,0.8,1.3,0.9,2.1c0,1.4,0,2.7,0.1,4.1c0.1,2.5,0.1,5,0.1,7.5c0,0.7,0.1,1.3,0.1,2
	c0,0.3,0.1,0.4,0.4,0.5c1.6,0.5,3.1,0.9,4.7,1.4c0.1,0,0.2,0.1,0.3,0.2l-0.8,0.4c-1.7,0.9-3.3,2.2-4.6,3.7c-2.3,2.7-3,8,0.1,10.7
	c0,3.2,0.1,6.4,0.1,9.6c0.1,0.7-0.3,1.4-1,1.6H26c-0.3-0.1-0.6-0.3-0.9-0.6c-0.3-0.5-0.7-0.9-1.1-1.4c-2.5-3.3-4.9-6.6-7.4-9.9
	c-0.2-0.3-0.6-0.4-0.9-0.3c0,0,0,0,0,0c-2.4,0.9-4.9,1.7-7.3,2.6l-5.9,2.1c-0.4,0.2-1,0.1-1.3-0.2c-0.3-0.3-0.5-0.9-0.3-1.3
	c0.1-0.4,0.3-0.7,0.5-1c2.6-3.7,5.1-7.4,7.7-11.1c0.2-0.2,0.2-0.6,0-0.9c-1.5-2-3-4-4.5-6c-1.4-1.9-2.9-3.7-4.2-5.7V9.7
	C0.8,9.4,1.1,8.9,1.7,9c0.4,0,0.8,0.1,1.2,0.2c4.2,1.3,8.5,2.6,12.7,3.9c0.3,0.2,0.7,0,0.8-0.3c0,0,0,0,0,0
	c2.5-3.7,5.1-7.4,7.7-11.2c0.3-0.5,0.7-0.8,1.1-1.1L25.9,0.5z"/>
<path class="st0" d="M27.2,33c-3.2-2.6-2.4-8-0.1-10.7c1.3-1.5,2.8-2.7,4.5-3.6l0.8-0.4c1.2-0.5,2.3-1,3.5-1.4
	c2.3-0.7,4.7-1.2,7.1-1.5c1-0.1,2.1-0.2,3.1-0.2c0.4,0,0.4-0.2,0.5-0.4c1.5-4.1,3.2-8.1,4.8-12.1c0.1-0.2,0.1-0.4,0.4-0.4
	c1.9,0,3.9,0,5.9,0L53,15.2h6.5c1.5,0,1.5,0,2-1.4c1.4-3.7,2.9-7.4,4.3-11.2c0.1-0.3,0.3-0.4,0.6-0.4c1.8,0,3.6,0,5.4,0
	c0.5,0,0.5,0.1,0.3,0.5C69.4,9.9,66.7,17,64,24.1c-1.1,2.9-2.2,5.8-3.3,8.7c-0.1,0.4-0.5,0.6-0.8,0.6c-1.9,0-3.8,0-5.7,0l1.4-3.8
	l4.1-11c0.2-0.6,0.2-0.6-0.4-0.6c-2.3,0-4.5,0-6.8,0c-0.4-0.1-0.7,0.2-0.8,0.5c-0.9,2.8-2.1,5.6-3.5,8.2c-1.9,3.2-4.2,5.9-7.8,7.3
	c-3.8,1.6-8,1.5-11.8-0.1C28.1,33.6,27.7,33.3,27.2,33z M37.2,19.6c-1.4,0.5-2.6,1.4-3.7,2.4c-1.4,1.3-2.3,2.9-2.7,4.8
	c-0.7,2.3,0.7,4.7,3,5.4c0,0,0,0,0.1,0c1.8,0.5,3.7,0,5-1.3c1.5-1.3,2.7-2.9,3.6-4.7c1.2-2.5,2.2-5,3-7.7c0.1-0.3,0.1-0.4-0.3-0.4
	c-1.3,0-2.6,0.1-3.9,0.3C39.9,18.6,38.5,19,37.2,19.6L37.2,19.6z"/>
<path class="st0" d="M159.4,3.6c0.8-0.1,1.5-0.1,2.3-0.1c0.2,0,0.4,0,0.5,0.3c0.5,1.9-0.8,4.3-2.8,4.6c-0.3,0-0.7,0.1-0.9-0.3
	c-0.1-0.2-0.1-0.5,0.1-0.6C159.8,6.6,160.1,5,159.4,3.6z"/>
<path class="st0" d="M173.6,9.4c-0.9,0-1.6-0.7-1.5-1.6c0-0.9,0.7-1.6,1.6-1.5c0.9,0,1.5,0.7,1.6,1.6c0,0.8-0.6,1.5-1.4,1.6
	C173.7,9.4,173.6,9.4,173.6,9.4z M173.6,9.2c0.7,0,1.2-0.5,1.2-1.2c0,0,0,0,0,0c0-0.7-0.5-1.3-1.2-1.4c0,0,0,0,0,0
	c-0.7,0-1.3,0.6-1.3,1.3C172.3,8.5,172.9,9.1,173.6,9.2L173.6,9.2z"/>
<path class="st1" d="M37.2,19.6c1,0.4,2.1,0.7,3.1,1c0.1,0,0.3,0.1,0.4,0.1c0.5,0.2,1,0.5,1,1.1c0.1,0.6-0.3,1.1-0.8,1.3
	c-0.6,0.3-1.2,0.5-1.9,0.7c-2.7,1-5.5,1.9-8.2,2.9c0.4-1.8,1.3-3.5,2.7-4.8C34.5,21,35.8,20.2,37.2,19.6z"/>
<path d="M173,7.1c0.1,0,0.3,0,0.4,0c0.2,0,0.4,0,0.5,0.1c0.1,0.1,0.1,0.2,0.1,0.3c0,0.2-0.1,0.3-0.3,0.4l0,0
	c0.1,0.1,0.2,0.2,0.2,0.3c0,0.2,0.1,0.3,0.1,0.4h-0.3c0-0.1-0.1-0.3-0.1-0.4c0-0.2-0.1-0.3-0.3-0.3h-0.1v0.7H173L173,7.1z
	 M173.3,7.8h0.2c0.2,0,0.3-0.1,0.3-0.3s-0.1-0.3-0.3-0.3h-0.2L173.3,7.8z"/>
<path class="st0" d="M19.2,25.8c0.6-0.2,1.2-0.3,1.7-0.5c0.4-0.1,0.8-0.3,0.7-0.8c0-0.1,0.1-0.2,0.3-0.3s0.2,0.1,0.3,0.2
	c0.2,0.3,0.4,0.5,0.5,0.8c0.1,0.1,0.1,0.2,0,0.3c-0.1,0.1-0.2,0.1-0.3,0.1c-0.3,0-0.6,0.1-0.9,0.2c-0.3,0.1-0.6,0.3-0.9,0.5
	c-1.7,1-3.9,0.5-5-1.1c-0.4-0.5-0.6-1-0.9-1.5c-0.2-0.2-0.3-0.4-0.5-0.6c-0.1-0.1-0.3-0.2-0.3-0.3c0-0.1,0.1-0.3,0.3-0.3
	c0.3-0.2,0.6-0.3,0.8-0.4c0.1,0,0.3-0.1,0.4,0s0.1,0.3,0,0.4c-0.3,0.4-0.1,0.7,0.1,1C16.3,24.9,17.7,25.8,19.2,25.8z"/>
<path class="st0" d="M21.4,20.7l0.5-0.1c0.4-0.1,0.8,0.1,1,0.5c0.1,0.2,0.3,0.4,0.4,0.6c0.1,0.2,0.2,0.3,0.2,0.5
	c-0.2,0.1-0.5,0.2-0.7,0.3c-0.1,0-0.2,0-0.2-0.1c-0.4-0.4-0.9-0.6-1.4-0.6c-0.3,0-0.5-0.3-0.5-0.6c0,0,0-0.1,0-0.1
	C20.8,20.7,21.1,20.6,21.4,20.7z"/>
<path class="st0" d="M16.4,20.2c-0.3,0-0.5,0-0.8,0c-0.2-0.1-0.3-0.3-0.5-0.5c0.2-0.1,0.3-0.3,0.5-0.4c0.2-0.1,0.4-0.2,0.6-0.2
	c0.4-0.2,0.9-0.1,1.2,0.3c0.1,0.1,0.2,0.2,0.3,0.3c0.3,0.1,0.5,0.3,0.3,0.6c-0.1,0.3-0.4,0.5-0.7,0.4c0,0,0,0,0,0
	c-0.2-0.1-0.3-0.1-0.5-0.2L16.4,20.2L16.4,20.2z"/>
<path class="st0" d="M19.6,23.3c-0.7,0-1.3-0.3-1.8-0.8c-0.1-0.1-0.2-0.3-0.2-0.4c0.1-0.2,0.3-0.3,0.4-0.3c0.6-0.1,1.3,0.2,1.8,0.6
	c0.1,0.2,0.3,0.4,0.2,0.6S19.7,23.2,19.6,23.3z"/>
<path class="st0" d="M24.5,19.7c0,0.3-0.2,0.5-0.5,0.5c0,0-0.1,0-0.1,0c-0.4-0.1-0.8-0.2-1.1-0.4c-0.1-0.1-0.1-0.2-0.1-0.4
	c0.5-0.4,1.3-0.3,1.8,0.1C24.4,19.5,24.5,19.6,24.5,19.7z"/>
<path class="st0" d="M16.1,16.8c0.6,0.1,1.1,0.4,1.4,0.8c0.1,0.1,0,0.3,0,0.4s-0.2,0.1-0.2,0c-0.4-0.1-0.8-0.2-1.2-0.4
	c-0.2-0.1-0.3-0.3-0.3-0.6C15.8,17,16,16.9,16.1,16.8z"/>
</svg>
