<?xml version="1.0" encoding="utf-8"?>
<!-- Generator: Adobe Illustrator 21.1.0, SVG Export Plug-In . SVG Version: 6.00 Build 0)  -->
<svg version="1.1" id="Layer_1" xmlns="http://www.w3.org/2000/svg" xmlns:xlink="http://www.w3.org/1999/xlink" x="0px" y="0px"
	 viewBox="0 0 181 86.6" style="enable-background:new 0 0 181 86.6;" xml:space="preserve">
<style type="text/css">
	.st0{fill:#1C5630;}
	.st1{fill:#F8C255;}
	.st2{fill:#FCFDFC;}
	.st3{fill:#FCFCFC;}
	.st4{fill:#F5F7F6;}
</style>
<title>Grocery</title>
<path class="st0" d="M0.5,79.7V6.9c0.2-0.1,0.1-0.2,0.1-0.4c0.5-2.7,2.5-4.8,5.1-5.7c0.5-0.1,1-0.3,1.5-0.3H174
	c0,0.1,0.1,0.1,0.2,0.1c2.9,0.4,5.3,2.6,6.1,5.4c0,0.3,0.1,0.7,0.3,1v72.7c-0.2,0.1-0.1,0.3-0.2,0.5c-0.6,2.7-2.6,4.9-5.3,5.6
	c-0.3,0-0.7,0.1-1,0.3H6.8C6.8,85.9,6.6,86,6.5,86c-2.8-0.5-5.1-2.6-5.8-5.4C0.7,80.3,0.7,79.9,0.5,79.7z M90.5,5.4H12.7
	c-3.9-0.1-7.1,2.9-7.2,6.8c0,0.1,0,0.3,0,0.4c0,20.4,0,40.8,0,61.2c-0.1,3.9,2.9,7.1,6.8,7.2c0.1,0,0.3,0,0.4,0h155.6
	c3.9,0.2,7.1-2.9,7.3-6.7c0-0.2,0-0.3,0-0.5c0-20.4,0-40.8,0-61.2c0-0.5,0-1.1-0.2-1.6c-0.7-3.3-3.6-5.7-7-5.6H90.5z"/>
<path class="st1" d="M90.5,5.4h77.8c3.4-0.1,6.3,2.3,7,5.6c0.1,0.5,0.2,1.1,0.2,1.6c0,20.4,0,40.8,0,61.2c0.1,3.9-2.9,7.1-6.8,7.2
	c-0.2,0-0.3,0-0.5,0H12.7c-3.9,0.1-7.1-2.9-7.2-6.8c0-0.1,0-0.3,0-0.4c0-20.4,0-40.8,0-61.2c-0.1-3.9,2.9-7.1,6.8-7.2
	c0.1,0,0.3,0,0.4,0H90.5z M90.5,6.4H12.7c-3.4-0.1-6.2,2.5-6.4,5.8c0,0.1,0,0.3,0,0.4c0,20.4,0,40.9,0,61.3c0,0.5,0.1,1,0.2,1.5
	c0.6,2.8,3.2,4.8,6.1,4.7h155.8c3.4,0.1,6.2-2.6,6.3-5.9c0-0.1,0-0.2,0-0.3c0-2.4,0-4.9,0-7.3c0-17.9,0-35.9,0-53.8
	c0-0.7-0.1-1.4-0.3-2.1c-0.8-2.7-3.3-4.4-6.1-4.3L90.5,6.4z"/>
<path class="st0" d="M90.5,6.4h77.8c2.8-0.1,5.3,1.7,6.1,4.3c0.2,0.7,0.3,1.4,0.3,2.1c0,17.9,0,35.9,0,53.8c0,2.4,0,4.9,0,7.3
	c0.1,3.4-2.6,6.2-5.9,6.3c-0.1,0-0.2,0-0.3,0H12.6c-2.9,0.1-5.4-1.9-6.1-4.7c-0.1-0.5-0.2-1-0.2-1.5c0-20.4,0-40.9,0-61.3
	c-0.1-3.4,2.6-6.2,5.9-6.3c0.1,0,0.3,0,0.4,0L90.5,6.4z M83.2,26.9c-0.7,0.2-1.2,0.6-1.9,0.8c-0.5,0-1-0.1-1.4-0.3
	c0.2-0.1,0.5-0.2,0.7-0.2c1.4-0.2,2.8-0.8,3.9-1.7c1.1-0.8,1.6-2,1.5-3.3c-0.1-0.6-0.2-1.2-0.5-1.8c0.5-0.1,0.8,0,1,0.6
	c2,5.7,4.3,11.3,6.9,16.7c0.1,0.3,0.4,0.5,0.7,0.5c0.8,0,1.6,0,2.4,0c0.4,0.1,0.8-0.2,0.9-0.6c0.2-0.4,0.1-0.4-0.3-0.4
	c-0.7,0-1.4,0-2.1,0c-0.3,0-0.6-0.2-0.7-0.4c-0.3-0.7-0.6-1.4-0.9-2c-2.2-4.9-4.3-9.8-6-14.9c0-0.3-0.3-0.5-0.6-0.5c0,0,0,0-0.1,0
	c-0.3,0.1-0.7,0.1-1,0c-0.3-0.1-0.6,0-0.8,0.1c-0.9-0.7-2-1.2-3.2-1.4c-1.1-0.2-2.2-0.3-3.3-0.3c-2.6,0-5.3,0.1-7.9,0.4
	c-0.9,0.1-1.8,0.2-2.8,0.3c-0.7,0-0.4,0.5-0.4,0.8s0.3,0.2,0.5,0.2c0.3,0,0.7-0.1,1-0.1c0.3-0.1,0.5,0,0.5,0.4
	c-0.1,1-0.1,1.9-0.1,2.9c-0.1,4.2-0.1,8.3,0.1,12.5c0,0.9,0,0.9-0.9,0.9c-0.2-5-0.2-10.1,0-15.1c0-0.7,0-0.7-0.7-0.6
	c-0.4,0.1-0.8,0.2-1.3,0.1c-0.7-0.2-1-0.1-0.9,0.7c0,0.3,0.1,0.3,0.3,0.3s0.8-0.1,1.2-0.2s0.5,0.1,0.4,0.4c-0.2,4.8-0.2,9.6,0,14.4
	c-0.3,0.7-0.2,1,0.6,1c1.7,0,3.4-0.1,5.1-0.3c0.8-0.1,1.6-0.2,2.3-0.2c0.6-0.1,0.3-0.5,0.3-0.8s-0.3-0.2-0.4-0.2
	c-0.4,0-0.8,0.1-1.2,0.1c-0.2,0-0.3,0-0.3-0.3c0.1-1.8,0.1-3.6,0.2-5.5c2.9-0.1,4.5,1.4,4.6,4.3c0.1,1.1,0.1,2.3,0,3.4
	c0,0.3,0,0.4,0.3,0.4c2.1,0.1,4.2,0,6.2-0.2c0.4,0,0.4-0.2,0.4-0.6s-0.3-0.3-0.5-0.3c-1.7,0.1-3.4,0.2-5.1,0.1
	c-0.4,0-0.5-0.1-0.5-0.5c0.1-1.4,0.1-2.7-0.1-4.1c-0.1-1.8-1.5-3.3-3.3-3.5c-0.7-0.1-1.4-0.1-2.1,0c0-0.8,0-0.8,0.7-0.9
	c0.5,0,1.1-0.1,1.6-0.1c2-0.1,3.7,1.3,4,3.2c0.3,1.5,0.3,3,0.2,4.5c0,0.3,0.1,0.4,0.4,0.4c2.1,0.1,4.2,0,6.3-0.2
	c0.1,0,0.3,0,0.3-0.1c0.1-0.3,0.1-0.5,0-0.8c-0.1-0.2-0.3,0-0.5,0s-0.5,0-0.8,0.1s-0.4-0.1-0.4-0.4c0-0.9,0-1.7-0.2-2.6
	c-0.1-1.9-1.3-3.5-3.1-4.2L82.2,28c0.4-0.3,0.9-0.6,1.2-1l0.1-0.1h-0.1L83.2,26.9z M133.9,37.7c0-1.8-0.1-3.6,0-5.3
	c0-0.3-0.1-0.6-0.2-0.9c-1.9-2.8-3.6-5.8-5.2-8.8c-0.5-1-1-1.6-2.2-1.4c-0.3,0-0.6,0-0.9-0.1c0-0.6-0.1-1.2-0.1-1.8
	c0-0.8,0-0.7-0.8-0.8c-0.3,0-0.5-0.1-0.4,0.3c0.1,0.2-0.1,0.3-0.3,0.2c-2.5-0.4-5.1-0.7-7.6-0.8c-2.4-0.2-4.8-0.3-7.2-0.3
	c-0.1,0-0.3-0.1-0.4,0.1c-0.2,0.3-0.1,0.6,0.2,0.8c0.1,0.1,0.2,0.1,0.3,0.1c0.3,0,0.6,0,1,0s0.5,0.1,0.5,0.5
	c-0.2,5.1-0.2,10.2,0,15.3c0,0.9,0,0.9-0.9,0.8c-0.1-2.7-0.2-5.3-0.1-8c0-2.4,0-4.8,0.2-7.2c0-0.2,0.1-0.5-0.3-0.5
	c-0.7,0-1.5,0-2.2-0.1c-0.1,0-0.3-0.1-0.4,0.1c-0.2,0.3-0.1,0.6,0.2,0.8c0.1,0.1,0.2,0.1,0.3,0.1c0.3,0,0.6,0,0.9,0s0.6,0.1,0.6,0.6
	c-0.1,0.8-0.1,1.6-0.1,2.4c-0.1,3.9-0.1,7.8,0,11.7c-0.3,0.6-0.2,1,0.3,1.1l9.4,0.7c1.9,0.1,3.8,0.3,5.7,0.4c0.2,0,0.4,0,0.4,0.3
	c-0.1,0.8,0.5,0.3,0.8,0.5s0.4-0.2,0.4-0.4c0.1-1.5,0.2-3,0.1-4.4c0-0.1,0.1-0.3-0.1-0.3c-0.3-0.1-0.7-0.2-1.1-0.1
	c-0.2,0.1,0,0.4-0.1,0.6c0,0.2,0,0.4,0,0.7c0.1,0.4-0.2,0.9-0.6,1c0,0,0,0,0,0l-0.2,0.1c-0.1-0.2,0.1-0.4-0.1-0.6
	c-0.5-0.3-0.8,0-0.8,0.5c0,0.1,0,0.2,0,0.3c-0.2,0.1-0.4,0.2-0.6,0.2c-2.2,0.2-4.5,0.2-6.7-0.1c-0.2,0-0.3-0.1-0.3-0.4
	c0.1-2.1,0.1-4.3,0.2-6.4c1,0,2,0.2,3,0.5c1.2,0.4,1.2,0.4,1.2,1.7c0,0.7,0,0.7,0.7,0.7c0.2,0,0.4,0.1,0.5-0.1s0.2-0.7,0-0.8
	c-0.4-0.2-0.2-0.5-0.2-0.8c0-1.2,0-1.3-1.2-1.7l-0.3-0.1c-1.2-0.3-2.4-0.4-3.6-0.5c0-0.2,0-0.4,0-0.6s0.1-0.3,0.3-0.3
	c1.5,0,3.1,0.2,4.6,0.6c1.1,0.4,1.2,0.5,1.2,1.6c0,0.7,0,0.7,0.7,0.8c0.4,0,0.5-0.1,0.5-0.5c0.1-1.1,0.1-2.3,0-3.4
	c-0.1-0.7-0.1-0.7-0.7-0.7c-0.3,0-0.4,0.1-0.4,0.4c0,0.2,0,0.3-0.2,0.3c-1.8-0.2-3.7-0.3-5.5-0.3c-0.2,0-0.3-0.1-0.3-0.3
	c0-1.5,0-2.9-0.1-4.4c0.4,0,0.9,0.1,1.3,0.1c1.6,0.1,3.1,0.5,4.6,1.2c0.8,0.4,1.4,0.9,1.2,2c0,0.1,0,0.1,0,0.2c0,0.7,0,0.7,0.7,0.8
	c0.2,0,0.4,0.1,0.5-0.1s0.1-0.7,0-0.8c-0.4-0.2-0.2-0.5-0.3-0.7c0-0.3,0-0.7,0-1c0-0.3-0.1-0.5-0.4-0.7c-0.8-0.6-1.6-1-2.6-1.2
	c-1.7-0.4-3.4-0.6-5.1-0.7c0-0.1,0-0.3,0-0.4c-0.1-0.5,0.1-0.6,0.5-0.5c1,0.1,2.1,0.2,3.2,0.3c1.4,0.1,2.7,0.5,4,1
	c0.9,0.3,1.5,1.2,1.2,2.2c-0.1,0.7-0.1,0.8,0.7,0.8h0.1c0.3,0,0.4-0.1,0.4-0.3s0-0.8,0.1-1.2c0.4,0,0.7,0,1.1,0
	c0.2,0,0.5,0.1,0.6,0.4c1.7,3.4,3.6,6.8,5.7,10c0.1,0.2,0.2,0.4,0.2,0.6c-0.1,1.4-0.1,2.9,0,4.3c-0.4,0.1-0.2,0.5-0.2,0.7
	s0.3,0.3,0.4,0.4c0.4,0.1,0.7,0.1,1.1,0.1c2.3,0.4,4.6,0.7,6.9,0.9c0.2,0,0.4,0.1,0.4-0.2s0.3-0.7-0.3-0.7s-1-0.1-1.4-0.1
	c-0.3,0-0.4-0.1-0.4-0.4c0.1-2,0.1-4.1,0-6.2c0-0.2,0.1-0.5,0.2-0.6c0.6-0.7,1.2-1.3,1.7-2s1.1-1.6,1.8-2.3s0.9-1.8,1.8-2.3
	c0,0,0-0.1,0-0.1c0-0.4,0.1-0.8,0.4-1.1c0.4-0.7,0.4-0.7,1.1-0.5c0.1,0,0.3,0.2,0.4,0c0.2-0.4,0-0.8-0.4-0.9
	c-1.5-0.4-3.1-0.6-4.6-0.8c-0.2,0-0.5-0.2-0.5,0.3s-0.1,0.7,0.5,0.7c1.3,0.1,1.3,0.1,1,1.3c0,0.1,0,0.2-0.1,0.3
	c-0.5,1.9-1.4,3.6-2.6,5c-0.2-0.1,0-0.2,0-0.3c0.2-0.4,0.5-0.8,0.7-1.3c0.6-1.1,1-2.3,1.2-3.5c0-0.3,0-0.5-0.4-0.5
	c-0.6,0-1.2-0.1-1.8-0.2c-0.1,0-0.2-0.1-0.3,0.1c-0.2,0.3-0.1,0.6,0.2,0.8c0.1,0.1,0.2,0.1,0.3,0.1c0.2,0,0.5,0.1,0.7,0.1
	s0.4,0.1,0.3,0.4s0,0.4-0.1,0.6c-0.3,1.7-1.1,3.4-2.1,4.8c-1.7-2.5-3.2-5.2-4.4-7.9c-0.1-0.3-0.2-0.5-0.3-0.8l1.5,0.3
	c0.1,0,0.2,0.1,0.3,0c0.1-0.4,0-0.8-0.4-0.9c0,0,0,0-0.1,0c-2.6-0.5-5.3-0.8-7.9-0.9c-0.6,0-0.6-0.1-0.6,0.6c0,0.3,0.1,0.4,0.4,0.4
	s0.6,0,0.9,0c0.2,0,0.5,0.1,0.5,0.4c1.8,3.4,3.7,6.7,5.8,9.9c0.1,0.2,0.2,0.4,0.2,0.6c-0.1,1.9-0.1,3.8,0,5.6
	C134.8,37.9,134.8,37.9,133.9,37.7z M98.8,32.6c1.2-2.5,2.2-5.2,3-7.9c0.5-1.5,0.7-3.1,0.8-4.7c0-0.2,0.1-0.5-0.3-0.5h-2
	c-0.1,0-0.3,0-0.3,0.2c-0.1,0.6,0,0.8,0.6,0.8h0.3c0.7,0,0.8,0,0.7,0.8c-0.2,2-0.6,4-1.3,5.9c-0.5,1.7-1.1,3.3-1.9,4.9
	c-0.8-1.8-1.6-3.6-2.3-5.4c-1-2.5-1.9-5.1-2.8-7.7c-0.1-0.3-0.1-0.4,0.3-0.4s0.6,0,0.9,0s0.5,0.1,0.4-0.3s0.2-0.7-0.4-0.7
	c-2.6-0.1-5.2-0.1-7.8,0c-0.1,0-0.3,0-0.3,0.1c-0.1,0.3-0.1,0.5,0,0.8c0.1,0.2,0.4,0,0.6,0c0.8-0.1,0.8-0.1,1.1,0.7
	c2,5.7,4.3,11.3,6.9,16.7c0.1,0.3,0.4,0.5,0.7,0.4c0.8,0,1.6,0,2.5,0c0.3,0,0.7-0.2,0.8-0.5c2.9-5.2,5.3-10.8,7.1-16.5
	c0.2-0.7,0.3-0.7,1-0.6c0.2,0,0.5,0.2,0.4-0.2s0.3-0.7-0.3-0.8c-1.7-0.2-3.3-0.2-5-0.2c-0.3,0-0.4,0.1-0.4,0.4c0,0.6,0,0.6,0.6,0.6
	c0.2,0,0.4,0,0.6,0s0.4,0.1,0.4,0.4c0,0.7-0.1,1.3-0.2,2c-0.6,3-1.5,5.9-2.7,8.7c-0.5,1.1-1,2.2-1.6,3.3L98.8,32.6z M57,37.7
	c0.2,0.2,0.4,0.1,0.6,0.1l2.6-0.2c1.7-0.1,3.5-0.3,5.2-0.5c0.2,0,0.4,0,0.4-0.4c0-0.6,0-0.6-0.6-0.5c-0.8,0.1-0.8,0.1-1.1-0.7
	c-2-5.5-4.4-10.8-7.1-16c-0.1-0.3-0.4-0.4-0.7-0.4c-1,0.1-1.9,0.2-2.9,0.3c-0.3,0-0.5,0.2-0.6,0.4c-2.7,5.9-5,11.9-7.1,18
	c0,0.3-0.4,0.6-0.7,0.5c0,0-0.1,0-0.1,0l0.2-0.5c1.8-5.5,4-10.8,6.3-16c0.1-0.2,0.2-0.3,0.2-0.5c-0.4-0.1-0.5,0.1-0.6,0.4
	c-1.8,4.1-3.6,8.2-5.1,12.4c-0.6,1.6-1.1,3.2-1.7,4.7c-0.1,0.2-0.3,0.5,0.2,0.4c0,0,0.1,0.1,0.1,0.1c1.6-0.1,3.3-0.3,4.9-0.6
	c0.1,0,0.2-0.1,0.2-0.2c0.2-0.6,0-0.8-0.6-0.7c-0.2,0-0.4,0-0.6,0.1s-0.3,0-0.3-0.3c0-0.7,0-1.5,0.2-2.2c2.3-0.3,4.6-0.6,6.9-0.8
	c0.3-0.1,0.6,0.1,0.6,0.4c0,0,0,0,0,0c0.3,0.8,0.5,1.5,0.8,2.3C56.7,37.6,56.7,37.8,57,37.7L57,37.7z M153.4,26.9
	c0.4-0.1,0.8-0.2,1.2-0.2c2.8-0.1,5.6,0.9,7.7,2.8c0.9,0.6,1.4,1.7,1.2,2.8c-0.1,1.4-0.1,1.4,1.3,1.6h0.2c0.1,0,0.1,0,0.2-0.1
	c0.2-0.4,0-0.9-0.4-1.1c-0.4-0.1-0.5-0.3-0.4-0.6c0.1-0.6,0-1.3,0.1-1.9c0-0.2-0.1-0.5-0.3-0.6c-0.8-0.9-1.7-1.7-2.7-2.3
	c-2.3-1.3-4.8-2.1-7.5-1.2c-0.1,0-0.1,0-0.2-0.1c0.2-0.3,0.5-0.6,0.8-0.7c0.7-0.3,1.4-0.5,2.1-0.5c2.7,0,5.4,1,7.4,2.9
	c0.9,0.7,1.3,1.8,1.2,2.8c-0.2,1.3-0.1,1.3,1.2,1.5c0.4,0.1,0.6,0,0.6-0.4c0-1.6,0-3.1-0.1-4.7s-0.1-1.6-1.6-1.9h-0.1
	c-0.1,0.3,0.1,0.6,0,1c-2.6-1.5-5.4-2.4-8.3-2.8c-1.9-0.3-3.9-0.2-5.7,0.4c-1.8,0.4-3.2,2-3.5,3.8c-0.2,1.5,0.2,3,1.1,4.3
	c0.9,1.2,1.9,2.2,3.1,3.1c1.7,1.3,3.5,2.3,5.2,3.4c1.3,0.8,2.5,1.7,3.7,2.8c0.6,0.6,1.1,1.3,1.4,2.1c0.6,1.3,0.2,2.8-1,3.7
	c0.2-0.4,0.2-0.8,0.3-1.3c0-1.3-0.6-2.6-1.6-3.4c-1-1-2.1-1.9-3.4-2.6c-1.9-1.2-3.9-2.4-5.7-3.7c-1.3-0.9-2.5-2.1-3.3-3.5
	c-1-1.6-1.1-3.5-0.4-5.3c0-0.1,0.1-0.2-0.1-0.2c-0.7,0.6-1.1,1.4-1.2,2.3c-0.3,1.9,0.3,3.9,1.7,5.3c1.1,1.2,2.4,2.3,3.8,3.2
	c1.7,1.1,3.4,2.2,5,3.3c1.2,0.8,2.3,1.7,3.2,2.8c0.8,1,1.1,2.2,0.9,3.5c-1.1,0.5-2.3,0.6-3.5,0.4c-3-0.5-5.7-1.8-7.9-3.8
	c-0.8-0.6-1.2-1.6-1.1-2.6c0.1-1.4,0-1.4-1.4-1.5c-0.3,0-0.4,0-0.4,0.3c0,2.1,0.1,4.2,0.2,6.3c0,0.5,0.2,0.7,0.7,0.7
	c-0.1,0.4,0.4,0.9-0.3,1.1c3.8,1.9,8,3,12.3,3.2c1.5,0.1,2.9-0.2,4.3-0.8c0.6-0.2,1-0.6,1.5-1c-0.1-0.1-0.2-0.1-0.2,0
	c-1.4,0.7-2.9,1-4.4,1c-3.2-0.1-6.3-0.7-9.2-1.9c-1.1-0.4-2.2-0.9-3.1-1.5c0.2,0,0.4-0.1,0.3-0.4s-0.1-0.5-0.1-0.8l0.3,0.2
	c2.1,1.1,4.4,1.9,6.7,2.5c2.7,0.8,5.6,1.1,8.4,0.7c2.9-0.3,4.9-2.8,4.6-5.7c0-0.2,0-0.3-0.1-0.5c-0.3-2-1.3-3.9-2.7-5.3
	c-1.5-1.5-3.2-2.8-5-3.8c-1.7-1-3.3-2.1-4.8-3.2c-0.7-0.5-1.3-1.2-1.8-1.9C153.3,28.2,153.2,27.5,153.4,26.9L153.4,26.9z M23.4,26.3
	c-0.1-0.7-0.1-0.7,0.6-0.8l1.1-0.2c0.8-0.2,0.8-0.2,0.8-1c0-0.3-0.1-0.4-0.4-0.3c-3.3,0.5-6.6,1.2-9.8,2.2c-0.8,0.3-0.8,0.3-0.8,1.1
	c0,0.4,0.1,0.4,0.4,0.3c0.7-0.2,1.3-0.4,2-0.6c0,1.2,0,2.4,0,3.7c-0.2,5.8-0.1,11.6,0.1,17.4c0,0.9,0,0.9-0.9,1.1
	c-0.2-3.7-0.2-7.4-0.2-11.2c0-3.2,0.1-6.4,0.2-9.6c0-0.5-0.1-0.5-0.5-0.4c-0.7,0.2-1.3,0.4-2,0.6c-0.1-0.6-0.1-0.6-0.3-0.6
	c-0.5,0-0.7,0.2-0.7,0.8c0,0.2,0,0.5,0,0.7c0.7-0.2,1.3-0.4,2-0.6c0.4-0.1,0.5-0.1,0.5,0.4c-0.1,1.8-0.2,3.6-0.2,5.3
	c-0.1,4.9-0.1,9.8,0.1,14.7c-0.7,0-0.8,0.5-0.7,1.1c0,0.3,0,0.4,0.4,0.3c3.2-0.6,6.4-1.3,9.6-2.1c1.1-0.3,1.1-0.3,1-1.4
	c0,0,0-0.1,0-0.1c-0.7,0.2-1.4,0.3-2.1,0.5c-0.4,0.1-0.4,0-0.4-0.4c0-0.9,0-1.8,0.1-2.7c0-1.9,0.1-3.9,0.1-5.8l0.8-0.2
	c2.7-0.6,5.3-1.1,8-1.5c0.3,0,0.5,0,0.5,0.4c0,2.8,0.1,5.5,0.2,8.3c-0.7,0.2-0.7,0.2-0.7,0.9c0,0.4,0.1,0.5,0.5,0.4
	c3.3-0.4,6.5-0.9,9.7-1.6c0.8-0.2,0.8-0.2,0.8-1c0,0,0-0.1,0-0.1c0-0.3-0.1-0.3-0.3-0.2c-0.5,0.1-1,0.2-1.6,0.3
	c-0.7,0.1-0.7,0.1-0.7-0.6c0.1-3.8,0.2-7.6,0.2-11.4c0-2.8-0.1-5.6-0.1-8.4c0.2-0.1,0.6,0.1,0.6-0.3s0-0.6-0.7-0.5
	c-0.1-0.8-0.1-0.8,0.6-0.9l1.1-0.1c0.8-0.1,0.8-0.1,0.8-0.8c0,0,0-0.1,0-0.1c0.1-0.4-0.1-0.4-0.4-0.4c-3.3,0.3-6.5,0.8-9.7,1.6
	c-0.9,0.2-0.9,0.2-0.8,1.1c0,0.3,0.1,0.3,0.4,0.3c0.6-0.2,1.2-0.2,1.7-0.4c0.3-0.1,0.4,0,0.4,0.3c-0.1,2.9-0.2,5.9-0.2,8.8
	c0,0.7,0,0.7-0.7,0.8h-0.2c0-1.5,0-3.1,0.1-4.6c0-1.4,0-2.8,0.1-4.2c0-0.4-0.1-0.4-0.4-0.4c-0.5,0.1-1.1,0.2-1.6,0.4
	c-0.3,0.1-0.5,0.2-0.5-0.3c0-0.1,0-0.1-0.2-0.2c-0.3-0.1-0.7,0.1-0.7,0.5c0,0,0,0.1,0,0.1c0,0.1,0,0.2,0,0.4c0,0.4,0,0.5,0.5,0.4
	s1-0.2,1.4-0.3c0.4-0.1,0.6-0.1,0.6,0.5c-0.1,2.6-0.2,5.3-0.2,7.9c-0.1,0-0.1,0.1-0.2,0.1l-8,1.6c-1,0.2-1,0.2-1-0.9
	c0-0.1,0-0.2,0-0.4l-0.1-7c0.2-0.1,0.6,0.1,0.7-0.3S24.1,26.2,23.4,26.3L23.4,26.3z M72.6,50.2c-0.1-1.5-0.6-2.7-2.4-2.9
	c-0.4,0-0.7,0-1.1-0.1c-0.6-0.2-1.3,0.1-1.5,0.8c0,0,0,0,0,0c-0.4,0.8-0.8,1.5-1.2,2.3c-0.1,0.1-0.2,0.4-0.4,0.3s-0.3-0.2-0.3-0.4
	s0-0.4-0.2-0.4s-0.3,0.2-0.4,0.3c-0.2,0.3-0.1,0.7,0.1,0.9c0.3,0.3,0.3,0.6,0.1,1c-0.9,1.4-1.6,2.9-2.3,4.4
	c-0.2,0.6,0.1,1.3,0.7,1.5c0,0,0,0,0.1,0c0.2,0,0.2-0.1,0.3-0.2l0.6-1.1c0.6-1.3,1.3-2.5,2.1-3.7c0.3-0.5,0.8-0.8,1.4-0.7
	c1.2,0.1,2.3-0.1,3.4-0.6C72.2,51.6,72.7,50.9,72.6,50.2L72.6,50.2z M96.9,49.9c0-0.4,0-0.9-0.1-1.3c-0.3-1-0.9-1.2-1.7-0.6
	c-0.4,0.3-0.7,0.6-1,1c-0.2,0.3-0.4,0.2-0.5-0.1c-0.2-0.4-0.5-0.8-0.8-1.1c-0.2-0.3-0.6-0.5-0.9-0.3c0,0-0.1,0-0.1,0.1
	c-0.4,0.3-0.6,0.2-0.7-0.2c-0.1-0.2-0.3-0.4-0.5-0.4c-0.3,0-0.3,0.2-0.4,0.4c-0.6,1.4-1.2,2.8-2,4.1c-0.3,0.4-0.2,1,0.1,1.4
	c0.6,0.8,1,0.8,1.4-0.1c0.6-1.2,1.5-2.3,2.5-3.3c0.3-0.3,0.6-0.2,0.7,0.2c0,0.2,0,0.4-0.2,0.6c-0.3,0.4-0.6,0.7-0.8,1.1
	c-0.4,0.6-0.2,1,0.5,1.5c0.5,0.3,0.7,0.3,1.2-0.3c0.3-0.4,0.5-0.8,0.7-1.2c0.2-0.5,0.5-0.9,0.8-1.3c0.1-0.1,0.2-0.3,0.4-0.2
	s0.1,0.3,0.1,0.4c-0.1,0.6-0.3,1.1-0.4,1.6c-0.1,0.3-0.1,0.7,0,1c0.1,0.3,0.4,0.5,0.7,0.5c0.3,0,0.4-0.2,0.5-0.5
	C96.7,52,96.9,51,96.9,49.9z M120.1,48.7h0.4c0.6,0,0.7-0.2,0.5-0.7c-0.1-0.6-0.6-1-1.2-1c-0.4,0-0.8,0.1-1.1,0.3
	c-0.3,0.2-0.7,0.3-1,0.4c-0.5,0.1-0.6,0-0.4-0.5s0.4-1.1,0.7-1.6c0.3-0.6,0.2-1.3-0.3-1.8c-0.3-0.4-0.6-0.4-0.7,0.1
	c-0.4,1.5-1.3,2.7-1.8,4.1c0,0.1-0.1,0.2-0.1,0.2c-1,1.5-1.8,3.2-2.8,4.7c-0.1,0.1-0.1,0.2-0.1,0.3c-0.1,0.5,0.1,1.1,0.6,1.4
	c0.6,0.3,0.7-0.3,0.9-0.6c0.5-0.9,1-1.8,1.6-2.7s0.7-0.9,1.3-0.1c0.5,0.6,0.9,1.2,1.3,1.8c0.2,0.2,0.4,0.6,0.7,0.4s0-0.6-0.1-0.9
	c-0.5-0.8-1-1.6-1.5-2.4c-0.4-0.6-0.4-0.7,0.4-0.8h0.4c0.5,0,0.9-0.1,1.3-0.4C119.3,48.7,119.7,48.6,120.1,48.7L120.1,48.7z
	 M98.1,52c0,0.8,0.6,1.5,1.4,1.5c0.2,0,0.5,0,0.7-0.1c0.6-0.3,1.1-0.6,1.6-1c0.2-0.2,0.4-0.2,0.5,0.1c0.1,0.4,0.4,0.8,0.7,1.1
	c0.3,0.3,0.7,0.4,1,0.2c0.4-0.2,0.2-0.5,0.1-0.8c-0.2-0.8,0-1.7,0.6-2.4c0.2-0.2,0.3-0.5,0.4-0.8c0.2-0.8-0.2-1.7-0.9-2.1
	c-0.6-0.5-1.4-0.5-2,0c-1.2,0.9-2.4,2-3.5,3.1C98.4,51.1,98.2,51.5,98.1,52L98.1,52z M56.8,51.7c-0.1,0.9,0.5,1.7,1.4,1.8
	c0.2,0,0.3,0,0.5,0c0.3,0,0.6-0.1,0.8-0.2c1.8-0.8,3.4-2.1,4.5-3.8c0.2-0.3,0.3-0.6,0.3-0.9c0.1-0.3,0-0.7-0.2-0.9
	c-0.3-0.4-0.4-0.4-0.7,0s-0.4,0.6-0.7,1c-1.1,1.4-2.4,2.4-4,3.1c-0.1,0.1-0.3,0.2-0.4,0s0-0.3,0.1-0.5c0.4-0.6,0.8-1.2,1.2-1.8
	c0.4-0.5,0.7-1.1,1-1.7c0.2-0.4,0.3-0.9-0.2-1.1s-0.7,0.1-1,0.4c-0.7,0.9-1.3,1.8-1.9,2.7C57,50.4,56.8,51.1,56.8,51.7L56.8,51.7z
	 M123.6,52c-0.5,0.1-1-0.1-1.4-0.4c-0.1-0.1-0.3-0.3-0.1-0.5s0.3,0,0.4,0.1c0.5,0.3,1.1,0.4,1.7,0.2c0.9-0.3,1.7-0.9,2.2-1.7
	c0.4-0.5,0.4-1.1,0-1.6c-0.4-0.6-1.1-0.8-1.8-0.5c-1.3,0.5-2.4,1.3-3.3,2.3c-0.2,0.2-0.3,0.6-0.3,0.9c0.2,1.2,1,2.2,2.1,2.7
	c1.2,0.2,2.5-0.2,3.4-1.1c0.2-0.2,0.3-0.5,0.2-0.7c-0.2-0.3-0.4-0.1-0.6-0.1C125.2,51.8,124.4,52,123.6,52L123.6,52z M76.4,52
	c-0.5,0.1-1-0.1-1.4-0.4c-0.1-0.1-0.2-0.3-0.1-0.5c0.1-0.2,0.3,0,0.4,0.1c0.5,0.3,1.1,0.4,1.7,0.2c0.9-0.3,1.7-0.9,2.2-1.6
	c0.4-0.5,0.4-1.2,0.1-1.8c-0.4-0.6-1.2-0.7-1.9-0.4c-1.2,0.5-2.2,1.2-3.1,2.2c-0.2,0.2-0.4,0.6-0.4,0.9c0.2,1.3,1,2.3,2.2,2.8
	c1.2,0.2,2.4-0.2,3.2-1.1c0.2-0.2,0.4-0.4,0.2-0.7s-0.4-0.1-0.7-0.1C78,51.8,77.2,52,76.4,52L76.4,52z M106.9,37.7
	c-0.1,0.4,0.1,0.5,0.5,0.6c3.7,0.3,7.5,0.6,11.2,0.9l3.6,0.2c0.2,0,0.4,0,0.4,0.2c-0.1,0.6,0.3,0.6,0.6,0.6c0.2,0,0.5,0.2,0.5-0.1
	s0.3-0.6-0.1-0.8c-0.1,0-0.1-0.2-0.1-0.3c0.1-0.4-0.2-0.5-0.5-0.5l-5.2-0.3c-3.5-0.2-7-0.5-10.5-0.9C107,37.2,106.8,37.4,106.9,37.7
	L106.9,37.7z M132.7,48.4c-0.5,0-0.6-0.1-0.3-0.5s0.6-1,0.9-1.4c0.2-0.3,0.4-0.7,0.5-1.1c0.1-0.4,0-0.9-0.4-1s-0.5,0.3-0.7,0.6
	c-0.5,1.1-1.3,2-1.9,3c-0.2,0.4-0.6,0.6-1,0.5c-0.3,0-0.6-0.1-1-0.1s-0.6,0-0.7,0.4c-0.1,0.3,0.1,0.7,0.5,0.8l0.5,0.1
	c0.5,0.2,0.6,0.3,0.3,0.8c-0.4,0.7-0.9,1.3-1.3,2c-0.2,0.2-0.2,0.6,0,0.8c0,0,0.1,0.1,0.1,0.1c0.2,0.2,0.6,0.2,0.9,0
	c0.1-0.1,0.1-0.1,0.1-0.2c0.4-0.6,0.8-1.2,1.1-1.9c0.8-1.4,0.8-1.4,2.4-1.5c0.4,0,0.7-0.2,0.6-0.6S133.2,48.3,132.7,48.4L132.7,48.4
	z M112.7,49.4c0.2,0,0.4-0.1,0.5-0.5c0.1-0.3-0.1-0.6-0.4-0.8c-0.2-0.1-0.5-0.1-0.7-0.1c-0.9-0.1-1.8,0.1-2.6,0.6
	c-0.1,0.1-0.3,0.1-0.4,0s0-0.3,0-0.4c0-0.2,0.1-0.4,0.1-0.6c0.1-0.3-0.1-0.6-0.4-0.7c-0.3-0.1-0.6,0-0.8,0.3
	c-0.1,0.2-0.2,0.5-0.3,0.7c-0.4,1.2-0.9,2.3-1.5,3.4c-0.2,0.3-0.3,0.7-0.4,1c-0.2,0.4,0,0.9,0.4,1.1c0,0,0,0,0,0
	c0.5,0.3,0.8,0,1.1-0.4s0.5-0.9,0.9-1.3C109.3,50.2,110.5,48.9,112.7,49.4L112.7,49.4z M80.9,52.7c0,0.3,0.2,0.5,0.5,0.7
	c0.3,0.1,0.7,0.1,0.9-0.2c0.5-0.5,0.7-1.2,1.2-1.7c1.1-1.3,2.2-2.5,4.2-2.1c0.2,0.1,0.5,0,0.6-0.2c0.1-0.2,0.1-0.5,0-0.7
	c-0.2-0.3-0.5-0.4-0.8-0.4c-0.8-0.1-1.6,0-2.4,0.4c-0.2,0.1-0.4,0.2-0.6,0.2c-0.2,0.1-0.4,0-0.3-0.3c0.1-0.2,0.1-0.5,0.1-0.8
	c0-0.3-0.1-0.6-0.4-0.6c-0.3-0.1-0.6,0-0.7,0.2c-0.1,0.2-0.2,0.3-0.3,0.5c-0.4,1.4-1,2.7-1.7,3.9C81,51.9,80.9,52.3,80.9,52.7
	L80.9,52.7z M52.7,53.5c0.6,0.1,1.2,0,1.7-0.2c0.5-0.1,0.9-0.7,0.7-1.2c-0.1-0.2-0.2-0.4-0.3-0.5c-0.4-0.4-0.8-0.8-1.3-1.1
	c-0.3-0.2-0.8-0.4-0.7-0.8s0.6-0.3,1-0.4c0.7-0.1,1.4-0.2,2.1-0.4c0.3-0.1,0.6-0.3,0.5-0.7s-0.4-0.4-0.8-0.3
	c-1.2,0.2-2.4,0.5-3.6,0.9c-1.1,0.4-1.2,0.9-0.3,1.6c0.5,0.4,1.1,0.8,1.6,1.2c0.2,0.1,0.4,0.3,0.3,0.5s-0.3,0.3-0.6,0.3
	c-1.3,0.2-2.6,0-3.8-0.5l-0.9-0.4c-0.1-0.1-0.3-0.1-0.4,0c-0.1,0.1,0,0.3,0.1,0.4c0.2,0.2,0.5,0.4,0.7,0.6
	C50.1,53.1,51.4,53.5,52.7,53.5L52.7,53.5z M116.6,71.5c-0.1,1-0.6,1.3-1.6,1c-0.1,0-0.3-0.1-0.4,0.1s0.1,0.2,0.3,0.3
	c1.1,0.4,2.3-0.1,2.7-1.2c0.1-0.2,0.1-0.5,0.1-0.7c0-0.2,0-0.5,0-0.7c0-1.1-0.8-2-1.9-2c-0.3,0-0.6,0.1-0.9,0.2
	c-0.9,0.4-1.3,1.4-1,2.3c0.3,0.8,1.2,1.3,2,1.1C116.1,71.6,116.3,71.5,116.6,71.5L116.6,71.5z M30.4,48.2c0.2,0.1-0.3,0.6,0.3,0.6
	c3.4-0.4,6.8-1,10.2-1.7c0.4-0.1,0.5-0.3,0.4-0.6s-0.4-0.1-0.5-0.1C38,47,35,47.4,32,47.8c-0.3,0-0.6,0.3-0.7-0.3
	c0,0-0.1-0.1-0.2-0.1C30.6,47.4,30.4,47.6,30.4,48.2z M89.1,72.9c0.5,0,0.9-0.1,1.4-0.3c0.6-0.3,0.9-1,0.6-1.6
	c-0.1-0.2-0.2-0.3-0.4-0.5c-0.3-0.2-0.6-0.4-0.9-0.5c-0.4-0.1-0.7-0.3-1.1-0.5c-0.3-0.3-0.4-0.6-0.1-0.8c0.6-0.4,1.4-0.3,1.8,0.3
	c0.1,0.1,0.1,0.2,0.2,0.3c0,0.1,0,0.2,0.2,0.2s0.2,0,0.2-0.1c0-0.4,0-0.7,0-1.1c0-0.1-0.2-0.1-0.2-0.1c-0.2,0.3-0.4,0.1-0.7,0
	c-0.6-0.1-1.1-0.1-1.7,0.1c-0.5,0.1-0.9,0.4-1,1c-0.1,0.5,0.3,1,0.8,1.2c0.4,0.2,0.9,0.4,1.4,0.7s0.7,0.4,0.6,0.8s-0.4,0.6-0.8,0.6
	c-0.1,0-0.3,0-0.4,0c-0.6-0.1-1.3-0.1-1.4-1c0-0.1-0.1-0.1-0.2-0.1s-0.2,0.1-0.2,0.2c0,0.3,0,0.6,0,0.9s0.2,0.3,0.3,0.2
	s0.3-0.1,0.5,0C88.2,72.8,88.7,72.9,89.1,72.9z M139.3,41.4c0.2,0,0.5,0.2,0.5-0.3c0-0.3,0.1-0.6-0.4-0.6c-0.7,0-1.3-0.1-2-0.3
	c-2-0.3-4.1-0.6-6.1-0.9c-0.1,0-0.2-0.1-0.3,0c-0.1,0.2-0.1,0.5,0,0.8c0,0.2,0.2,0.2,0.3,0.2C133.9,40.8,136.6,41.2,139.3,41.4
	L139.3,41.4z M71.4,72.6c-0.5,0-0.5-0.3-0.4-0.6c0-0.9,0-1.7,0-2.6c0-1.1-0.1-1.1-1.2-1c-0.1,0-0.2,0-0.3,0.1s0.1,0.1,0.2,0.1
	s0.2,0.1,0.2,0.2c0.1,0.6,0,0.6-0.6,0.6H69c-0.6,0-1.2,0.4-1.4,1c-0.3,0.6-0.2,1.3,0.3,1.8c0.4,0.5,1.1,0.6,1.6,0.4
	c0.2-0.1,0.4-0.1,0.6,0C70.6,72.8,71,72.8,71.4,72.6z M13.1,51.8c0,0.7,0,0.7,0.4,0.6c3.4-0.6,6.8-1.4,10.2-2.3
	c0.3-0.1,0.4-0.3,0.3-0.6s-0.3-0.1-0.5-0.1c-3,0.8-6.1,1.4-9.1,2c-0.2,0-0.5,0.2-0.5-0.3c0-0.2-0.1-0.2-0.3-0.2
	C13.2,51.1,13.1,51.2,13.1,51.8L13.1,51.8z M82.5,72.7c0,0.8-0.4,1.1-1.1,1c-0.1,0-0.2-0.1-0.3-0.1c-0.1,0-0.2,0-0.2,0.1
	c0,0,0,0,0,0c-0.1,0.1,0,0.2,0.1,0.2c0.2,0.1,0.5,0.1,0.8,0.1c1.2,0.1,1.7-0.4,1.8-1.5c0.1-0.8,0-1.6,0-2.5c0-0.4,0-0.6-0.5-0.3
	c-0.1,0.1-0.3,0-0.4-0.1c-0.4-0.1-0.7-0.2-1.1-0.1c-0.9,0.1-1.5,0.9-1.5,1.8c0,0.9,0.8,1.5,1.6,1.5C82,72.9,82.3,72.8,82.5,72.7
	L82.5,72.7z M120.4,71.9v-0.1c0.3-0.2,0.7-0.5,1-0.7c0.3-0.3,0.6-0.6,0.9-0.9c0.4-0.5,0.3-1.3-0.2-1.7c-0.2-0.1-0.4-0.2-0.7-0.3
	c-0.6-0.1-1.2,0-1.7,0.3c-0.2,0.1-0.6,0.2-0.4,0.5s0.4-0.1,0.5-0.2c0.4-0.2,0.8-0.2,1.2,0c0.4,0.3,0.3,0.8,0.2,1.2
	c-0.1,0.4-0.4,0.8-0.7,1.1c-0.4,0.4-0.8,0.8-1.3,1.2c-0.1,0.1-0.4,0.1-0.3,0.4s0.3,0.2,0.5,0.2c0.7,0,1.5,0,2.3,0
	c0.1,0,0.2-0.1,0.3,0c0.6,0.4,0.4-0.1,0.5-0.3c0-0.2,0-0.4,0-0.6c0-0.1,0.1-0.3-0.1-0.3s-0.2,0.1-0.2,0.2s-0.2,0.1-0.3,0.1
	L120.4,71.9z M76.9,72.6c-0.6,0-0.4-0.4-0.4-0.6c0-0.5,0-1,0-1.5c0-0.2,0.1-0.4,0.3-0.4c0.3-0.2,0.7-0.2,0.9,0.1
	c0.1,0.1,0.1,0.2,0.1,0.4c0,0.6,0,1.2,0,1.8c0,0.1-0.1,0.3,0.1,0.4c0.5,0.1,0.9,0.1,1.4-0.1c-0.4,0-0.4-0.3-0.4-0.6
	c0.1-0.5,0.1-1,0-1.5c0-0.6-0.4-1-1-1c0,0-0.1,0-0.1,0c-0.3,0-0.6,0.1-0.9,0.2c-0.1,0-0.2,0.2-0.3,0c-0.4-0.3-1-0.3-1.5,0
	c0.6,0,0.6,0.3,0.5,0.6s0,0.9,0,1.4s0.2,0.8-0.5,0.9C75.6,72.7,76.2,72.7,76.9,72.6L76.9,72.6z M99.1,72.6c-0.6,0.1-0.5-0.3-0.5-0.6
	c0-0.5,0-1,0-1.5c0-0.6-0.4-1-1-1c-0.1,0-0.1,0-0.2,0c-0.3,0-0.6,0.1-0.9,0.2c-0.1,0-0.1,0.2-0.3,0c-0.5-0.3-1.1-0.3-1.6,0
	c0.8-0.2,0.6,0.3,0.6,0.6s0,0.9,0,1.3s0.2,0.9-0.5,0.9c0.6,0.1,1.2,0.2,1.8,0.1c0,0,0.1,0,0.1-0.1c0,0,0-0.1-0.1-0.1
	c-0.4,0-0.3-0.3-0.3-0.5c0-0.5,0-1,0-1.4c0-0.2,0.1-0.4,0.3-0.5c0.3-0.2,0.7-0.1,0.9,0.1c0.1,0.1,0.1,0.2,0.1,0.4c0,0.6,0,1.2,0,1.8
	c0,0.1-0.1,0.3,0.1,0.4C98.3,72.8,98.7,72.7,99.1,72.6L99.1,72.6z M127.1,69.8L127.1,69.8c0-0.3,0-0.6,0-1s0.1-0.5-0.1-0.6
	c-0.3-0.1-0.6-0.1-0.9,0.1c-0.8,0.9-1.6,1.8-2.3,2.8c-0.2,0.2-0.1,0.4,0.2,0.4l1.6,0.1c0.2,0,0.4,0,0.4,0.3s0.2,0.6-0.3,0.6
	c-0.1,0-0.2,0-0.2,0.1s0.1,0.1,0.2,0.1c0.5,0,1.1,0,1.6,0c0.1,0,0.1,0,0.1-0.1s0-0.1-0.1-0.1c-0.5,0.1-0.3-0.3-0.3-0.5
	s0.1-0.4,0.4-0.4s0.2-0.1,0.2-0.2s0-0.2-0.2-0.2c-0.5,0.1-0.4-0.3-0.4-0.5S127.1,70.1,127.1,69.8L127.1,69.8z M56.9,72.6
	c-0.6,0-0.5-0.4-0.5-0.7c0-1,0-2,0-3c0-0.1-0.1-0.3,0.1-0.4c0.6-0.1,1.2,0.2,1.5,0.7c0,0.1,0,0.2,0.1,0.2s0.2,0,0.2-0.1
	c0.1-0.4,0.1-0.8,0-1.2c-0.1-0.3-0.3,0.1-0.5,0.1c-1.2-0.1-2.5,0.1-3.7-0.1c-0.8-0.1-0.5,0.3-0.6,0.6c0,0.1,0,0.2,0,0.3
	c0,0.1-0.1,0.3,0.2,0.3s0.2-0.2,0.1-0.3c0-0.3,0.1-0.4,0.3-0.4c0.3-0.1,0.6-0.2,0.8-0.2c0.3,0,0.4,0.1,0.4,0.4c0,1.1,0,2.2,0,3.3
	c0,0.3,0,0.4-0.3,0.4c-0.1,0-0.2,0-0.2,0.1s0.1,0.1,0.2,0.1C55.6,72.9,56.3,72.8,56.9,72.6L56.9,72.6z M144.5,44.8L144.5,44.8
	c0.1,0.4,0.1,0.8,0.1,1.2c0,0.4,0,0.9,0.1,1.3c0.1,1.3,0.1,1.3,1.4,1.4c0.1,0,0.2,0,0.2,0c0.2-0.2,0-1-0.3-1s-0.4-0.3-0.4-0.6
	c-0.1-1.8-0.2-3.6-0.2-5.4c0-0.6-0.4-0.4-0.7-0.4s-0.2,0.3-0.2,0.4C144.5,42.7,144.5,43.8,144.5,44.8L144.5,44.8z M56.1,39.6
	L56.1,39.6l1.8-0.1c1.9-0.1,3.7-0.3,5.6-0.6c0.5-0.1,0.3-0.4,0.3-0.6s-0.2-0.2-0.4-0.2c-1.1,0.1-2.1,0.2-3.2,0.3
	c-1.5,0.2-3.1,0.3-4.6,0.2c-0.2,0-0.4-0.1-0.5,0.2c-0.2,0.5,0,0.8,0.6,0.8L56.1,39.6z M67.5,38.8c2-0.1,4-0.3,6-0.5
	c0.4,0,0.3-0.3,0.4-0.6s-0.3-0.3-0.5-0.3c-1.3,0.1-2.5,0.2-3.8,0.3c-1.3,0.1-2.6,0.1-3.8,0c-0.5-0.1-0.4,0.3-0.4,0.5s0,0.5,0.4,0.5
	C66.4,38.7,67,38.8,67.5,38.8z M66.5,72.6c-0.4-0.1-0.4-0.3-0.4-0.6c0-0.3,0-0.7,0-1c0-0.9-0.7-1.6-1.5-1.6c-0.3,0-0.7,0.1-0.9,0.3
	c-0.1,0.1-0.2,0.1-0.1,0.2c0,0.1,0.1,0.1,0.2,0.1c0.1,0,0.1,0,0.1-0.1c0.2-0.1,0.5-0.2,0.7-0.1c0.2,0,0.5,0.2,0.5,0.4
	c0.1,0.3,0,0.4-0.3,0.3c-0.5-0.1-0.9,0-1.3,0.2c-0.4,0.2-0.6,0.6-0.6,1c0,0.4,0.3,0.8,0.7,0.9C64.6,72.8,65.6,72.8,66.5,72.6
	L66.5,72.6z M106.3,71.4L106.3,71.4l1.1-0.1c0.1,0,0.2,0,0.2-0.2c-0.1-1-0.9-1.7-1.9-1.6c-0.8,0.1-1.5,0.7-1.6,1.5
	c-0.1,0.8,0.4,1.6,1.2,1.7c0.5,0.1,1.1,0.1,1.6-0.1c0.1-0.1,0.4-0.1,0.3-0.3s-0.3-0.1-0.4,0c-0.8,0.3-1.4,0.1-1.6-0.7
	c-0.1-0.3-0.1-0.4,0.3-0.4S106.1,71.4,106.3,71.4L106.3,71.4z M111,68.7c0,1.2,0,2.4,0,3.5c0,0.3-0.1,0.3-0.3,0.3s-0.2,0-0.2,0.1
	s0.1,0.1,0.1,0.1c0.6,0,1.2,0,1.8,0c0.1,0,0.1,0,0.1-0.1s-0.1-0.1-0.2-0.1c-0.4,0.1-0.4-0.2-0.4-0.5c0-1.2,0-2.4,0-3.6
	c0-0.1,0.1-0.4-0.2-0.3s-0.9,0.2-1.3,0.4c-0.1,0-0.1,0.1-0.1,0.2s0.1,0.1,0.2,0.1L111,68.7z M59.1,72.6c0.6,0.1,1.3,0.2,1.9,0.1
	c0,0,0.1-0.1,0.1-0.1c0-0.1-0.1-0.1-0.2-0.1s-0.4,0.1-0.4-0.2c0-0.5,0-1,0.1-1.5c0-0.4,0.3-0.7,0.7-0.8c0,0.3,0,0.5,0.3,0.6
	c0.2,0.1,0.4,0.1,0.6,0c0.2-0.1,0.3-0.3,0.2-0.5c0-0.2-0.2-0.4-0.5-0.5c-0.5-0.1-1,0.2-1.3,0.6c-0.2-0.5-0.7-0.7-1.1-0.5
	c-0.1,0-0.2,0.1-0.3,0.2c0.4,0.1,0.4,0.1,0.4,0.6s0,1.2,0,1.7C59.6,72.4,59.6,72.6,59.1,72.6L59.1,72.6z M101.9,69.5
	c-0.9-0.1-1.8,0.5-1.9,1.5c0,0.3,0,0.6,0.1,0.8c0.5,1,1.7,1.3,2.7,0.8c0.1-0.1,0.4-0.1,0.3-0.4s-0.3,0-0.4,0.1
	c-0.5,0.3-1.1,0.2-1.4-0.3c-0.1-0.2-0.2-0.3-0.2-0.5c-0.1-0.4,0-0.9,0.1-1.3c0.1-0.3,0.4-0.6,0.8-0.5c0.2,0,0.3,0,0.2,0.3
	c-0.1,0.2-0.1,0.4,0.1,0.6c0.1,0,0.1,0.1,0.2,0.1c0.3,0.1,0.6,0,0.7-0.2c0,0,0,0,0,0c0.1-0.2,0-0.6-0.2-0.7c0,0,0,0,0,0
	C102.6,69.6,102.3,69.5,101.9,69.5L101.9,69.5z M42.6,40.7c0,0.3,0,0.5,0.4,0.5c1.5-0.1,3-0.4,4.5-0.6c0.4-0.1,0.4-0.3,0.3-0.6
	s-0.3-0.1-0.4-0.1c-1.4,0.3-2.8,0.4-4.2,0.4C42.8,40.2,42.4,40.2,42.6,40.7z M74.1,72.6c-0.6,0-0.5-0.3-0.5-0.6c0-0.7,0-1.4,0-2
	c0-0.1,0.1-0.3-0.1-0.4c-0.4-0.1-0.9-0.1-1.3,0.1c0.5,0,0.5,0.3,0.5,0.7s0,0.9,0,1.4s0.2,0.8-0.5,0.9C72.9,72.8,73.5,72.8,74.1,72.6
	z M94,72.6c-0.4-0.2-0.4-0.2-0.4-0.7c0-0.7,0-1.4,0-2c0-0.1,0-0.2-0.1-0.3c-0.5-0.1-1,0-1.4,0.2c0.5-0.1,0.5,0.2,0.5,0.6
	s0,0.9,0,1.4s0.2,0.8-0.5,0.9C92.7,72.8,93.4,72.8,94,72.6L94,72.6z M73.2,69.2c0.3-0.1,0.6-0.1,0.6-0.5s-0.3-0.4-0.6-0.4
	s-0.6,0.1-0.6,0.5S72.9,69.2,73.2,69.2L73.2,69.2z M93.1,68.2c-0.3,0-0.5,0.1-0.6,0.4s0.3,0.5,0.6,0.5c0.3,0,0.6-0.1,0.6-0.4
	S93.4,68.3,93.1,68.2L93.1,68.2z"/>
<path class="st2" d="M23.5,27.1l0.1,7c0,0.1,0,0.2,0,0.4c0,1,0,1.1,1,0.9l8-1.6c0.1,0,0.1,0,0.2-0.1c0.3,0,0.6-0.1,0.9-0.2h0.2
	c0.7-0.1,0.7-0.1,0.7-0.8c0-3,0.1-5.9,0.2-8.8c0-0.3-0.1-0.4-0.4-0.3c-0.6,0.2-1.2,0.2-1.7,0.4c-0.3,0.1-0.4,0.1-0.4-0.3
	c0-0.9,0-0.9,0.8-1.1c3.2-0.8,6.4-1.4,9.7-1.6c0.3,0,0.5,0,0.4,0.4c0,0,0,0.1,0,0.1c0,0.8,0,0.8-0.8,0.8l-1.1,0.1
	c-0.8,0.1-0.8,0.1-0.6,0.9V24c0,2.8,0.1,5.6,0.1,8.4c0,3.8-0.1,7.6-0.2,11.4c0,0.7,0,0.7,0.7,0.6c0.5-0.1,1-0.2,1.6-0.3
	c0.2,0,0.3,0,0.3,0.2c0,0,0,0.1,0,0.1c0,0.9,0,0.8-0.8,1c-3.2,0.7-6.5,1.2-9.7,1.6c-0.4,0-0.5,0-0.5-0.4c0-0.7,0-0.7,0.7-0.9
	c0.3,0,0.6,0,0.9-0.1c0.3-0.1,0.9,0.2,0.9-0.6c-0.1-3.1-0.2-6.2-0.2-9.3c0-0.4-0.1-0.5-0.5-0.4c-3.3,0.5-6.7,1.2-10,1.9
	c-0.5,0.1-0.7,0.3-0.5,0.8v0.7c0,1.9-0.1,3.9-0.1,5.8c0,0.9,0,1.8-0.1,2.7c0,0.3,0,0.5,0.4,0.4c0.7-0.2,1.4-0.4,2.1-0.5
	c0,0,0,0.1,0,0.1c0,1.1,0,1.1-1,1.4c-3.2,0.8-6.4,1.5-9.6,2.1c-0.3,0.1-0.4,0-0.4-0.3c0-0.6,0-1,0.7-1.1c0.3,0,0.6,0,1-0.1
	c0.9-0.2,0.9-0.2,0.9-1.1c-0.2-5.8-0.3-11.6-0.1-17.4c0-1.2,0-2.4,0-3.7c-0.7,0.1-1.3,0.3-2,0.6c-0.3,0.1-0.4,0.1-0.4-0.3
	c0-0.9,0-0.9,0.8-1.1c3.2-1,6.5-1.6,9.8-2.1c0.3,0,0.4,0,0.4,0.3c0,0.9,0,0.9-0.8,1l-1.1,0.2c-0.7,0.1-0.7,0.1-0.6,0.8
	C23.4,26.5,23.4,26.8,23.5,27.1z"/>
<path class="st2" d="M161.3,46.8c1.2-0.8,1.6-2.4,1-3.7c-0.3-0.8-0.8-1.5-1.4-2.1c-1.1-1.1-2.4-2-3.7-2.8c-1.8-1.1-3.6-2.2-5.2-3.4
	c-1.2-0.9-2.2-1.9-3.1-3.1c-0.9-1.2-1.3-2.8-1.1-4.3c0.2-1.9,1.6-3.4,3.5-3.8c1.9-0.6,3.8-0.7,5.7-0.4c2.9,0.4,5.7,1.3,8.3,2.8
	c0.1-0.3-0.1-0.7,0-1h0.1c1.5,0.3,1.5,0.3,1.6,1.9s0.1,3.1,0.1,4.7c0,0.5-0.2,0.5-0.6,0.4c-1.3-0.3-1.3-0.3-1.2-1.5
	c0.2-1.1-0.3-2.2-1.2-2.8c-2-1.9-4.6-2.9-7.4-2.9c-0.7,0-1.5,0.2-2.1,0.5c-0.4,0.1-0.6,0.4-0.8,0.7l0,0c-0.1,0-0.1,0-0.1,0.1
	c-0.2,0.2-0.3,0.5-0.3,0.7c-0.2,0.6-0.1,1.3,0.3,1.9c0.4,0.7,1,1.4,1.8,1.9c1.5,1.1,3.2,2.2,4.8,3.2c1.8,1.1,3.5,2.4,5,3.8
	c1.5,1.4,2.4,3.2,2.7,5.3c0.6,2.8-1.3,5.5-4.1,6.1c-0.2,0-0.3,0.1-0.5,0.1c-2.8,0.4-5.6,0.2-8.4-0.7c-2.3-0.6-4.5-1.4-6.7-2.5
	l-0.3-0.2c0,0.3,0,0.5,0.1,0.8s-0.1,0.4-0.3,0.4l0,0c0-0.1-0.1-0.1-0.2-0.1l-0.5-0.1c-0.5,0-0.7-0.2-0.7-0.7
	c-0.1-2.1-0.2-4.2-0.2-6.3c0-0.3,0.1-0.3,0.4-0.3c1.4,0.1,1.5,0.1,1.4,1.5c-0.1,1,0.3,2,1.1,2.6c2.2,2,5,3.4,7.9,3.8
	c1.2,0.2,2.4,0.1,3.5-0.4C160.9,47,161.1,46.9,161.3,46.8z"/>
<path class="st3" d="M73.9,29.9c-0.1,1.8-0.1,3.6-0.2,5.5c0,0.2,0.1,0.3,0.3,0.3c0.4-0.1,0.8-0.1,1.2-0.1c0.1,0,0.4-0.2,0.4,0.2
	s0.3,0.7-0.3,0.8c-0.8,0.1-1.6,0.2-2.3,0.2c-1.7,0.1-3.4,0.3-5.1,0.3c-0.7,0-0.9-0.3-0.6-1h0.9c0.9,0,0.9,0,0.9-0.9
	c-0.2-4.2-0.2-8.3-0.1-12.5c0-1,0-1.9,0.1-2.9c0-0.4-0.1-0.5-0.5-0.4c-0.3,0.1-0.7,0.1-1,0.1c-0.2,0-0.5,0.3-0.5-0.2
	s-0.2-0.8,0.4-0.8c0.9-0.1,1.8-0.2,2.8-0.3c2.6-0.3,5.2-0.4,7.9-0.4c1.1,0,2.2,0.1,3.3,0.3c1.2,0.2,2.3,0.7,3.2,1.4l0.7,0.9
	c0.3,0.5,0.4,1.1,0.5,1.8c0.1,1.3-0.4,2.6-1.5,3.3c-1.1,0.9-2.5,1.4-3.9,1.7c-0.3,0-0.5,0.1-0.7,0.2c0.5,0.2,0.9,0.3,1.4,0.3
	l0.7,0.2l0.5,0.2c1.7,0.7,2.9,2.3,3.1,4.2c0.1,0.8,0.2,1.7,0.2,2.6c0,0.3,0.1,0.4,0.4,0.4s0.5,0,0.8-0.1s0.4-0.2,0.5,0
	c0.1,0.3,0.1,0.5,0,0.8c0,0.2-0.2,0.1-0.3,0.1c-2.1,0.2-4.2,0.2-6.3,0.2c-0.3,0-0.4-0.1-0.4-0.4c0.1-1.5,0.1-3-0.2-4.5
	c-0.3-2-2-3.4-4-3.2c-0.5,0-1.1,0-1.6,0.1c-0.8,0.1-0.8,0.1-0.7,0.9L73.9,29.9z M79.7,25.9L79.7,25.9c0.7-0.5,1.1-1.3,1.2-2.2
	c0.5-2-0.6-4.1-2.6-4.6C78,19,77.7,19,77.4,19c-1-0.1-2-0.1-3.1,0.1c-0.7,0.1-0.7,0.1-0.5,0.9v0.8c0,2,0.1,4,0.1,6
	c0,0.3,0.1,0.3,0.4,0.3c1,0,2-0.1,3-0.2c0.5,0,1.1-0.2,1.6-0.5c0.3-0.1,0.5-0.2,0.7-0.4L79.7,25.9z"/>
<path class="st3" d="M109.8,35.6c0.9,0.1,0.9,0.1,0.9-0.8c-0.2-5.1-0.2-10.2,0-15.3c0-0.4-0.1-0.5-0.5-0.5s-0.6,0-1,0
	c-0.3,0-0.6-0.2-0.6-0.5c0-0.1,0-0.2,0.1-0.3c0.1-0.2,0.2-0.1,0.4-0.1c2.4,0,4.8,0.1,7.2,0.3c2.6,0.2,5.1,0.4,7.6,0.8
	c0.2,0,0.3,0,0.3-0.2c-0.1-0.4,0.1-0.4,0.4-0.3c0.7,0.1,0.7,0.1,0.8,0.8c0,0.6,0.1,1.2,0.1,1.8v1c0,0.4-0.1,0.8-0.1,1.2
	s-0.1,0.4-0.4,0.3h-0.2c-0.8-0.1-0.8-0.1-0.7-0.8c0.2-0.9-0.3-1.9-1.2-2.2c-1.3-0.5-2.6-0.9-4-1c-1-0.1-2.1-0.2-3.2-0.3
	c-0.5-0.1-0.6,0.1-0.5,0.5c0,0.1,0,0.3,0,0.4v1c0,1.5,0,2.9,0.1,4.4c0,0.2,0.1,0.3,0.3,0.3c1.8,0,3.7,0.1,5.5,0.3
	c0.3,0,0.3-0.2,0.2-0.3c-0.1-0.3,0.1-0.4,0.4-0.4c0.7,0.1,0.7,0,0.7,0.7c0.1,1.1,0.1,2.3,0,3.4c0,0.4-0.1,0.5-0.5,0.5
	c-0.7-0.1-0.7-0.1-0.7-0.8c0-1.2,0-1.3-1.2-1.6c-1.5-0.4-3-0.6-4.6-0.6c-0.3,0-0.3,0.1-0.3,0.3s0,0.4,0,0.6v1
	c-0.1,2.1-0.1,4.3-0.2,6.4c0,0.2,0,0.3,0.3,0.4c2.2,0.3,4.5,0.3,6.7,0.1c0.2,0,0.4-0.1,0.6-0.2c0.4,0.1,0.6-0.1,0.9-0.2l0.2-0.1
	c0.4-0.1,0.7-0.5,0.7-1c0,0,0,0,0,0c0-0.2,0-0.4,0-0.7c0-0.2-0.1-0.6,0.1-0.6c0.4-0.1,0.7-0.1,1.1,0.1c0.2,0.1,0.1,0.2,0.1,0.3
	c0,1.5,0,3-0.1,4.4c0,0.2,0,0.6-0.4,0.4s-0.9,0.3-0.8-0.5c0-0.3-0.2-0.3-0.4-0.3c-1.9-0.1-3.8-0.2-5.7-0.4l-9.4-0.7
	c-0.4,0-0.5-0.5-0.3-1.1L109.8,35.6z"/>
<path class="st3" d="M48.3,35.5c-0.2,0.7-0.2,1.5-0.2,2.2c0,0.2,0.1,0.3,0.3,0.3s0.4-0.1,0.6-0.1c0.6-0.1,0.8,0,0.6,0.7
	c0,0.1-0.1,0.2-0.2,0.2c-1.6,0.3-3.3,0.6-4.9,0.6c0,0-0.1,0-0.1-0.1c0.1-0.4-0.2-1,0.6-0.9c0.3,0.1,0.7-0.1,0.8-0.4c0,0,0-0.1,0-0.1
	c2-6.1,4.4-12.1,7.1-18c0.1-0.3,0.3-0.4,0.6-0.4c1-0.1,1.9-0.2,2.9-0.3c0.3-0.1,0.6,0.1,0.7,0.4c2.7,5.2,5,10.5,7.1,16
	c0.3,0.8,0.3,0.8,1.1,0.7c0.7-0.1,0.6-0.1,0.6,0.5c0,0.3-0.2,0.3-0.4,0.4c-1.7,0.2-3.4,0.4-5.2,0.5l-2.6,0.2c-0.2,0-0.4,0.1-0.6-0.1
	c0-0.4-0.1-1,0.6-0.9c0.2,0,0.5,0,0.7,0s0.4-0.1,0.3-0.5c-0.3-1-0.7-1.9-1-2.9c0-0.4-0.4-0.6-0.7-0.6c0,0-0.1,0-0.1,0
	c-2.5,0.3-5,0.5-7.5,0.9c-0.6,0.1-0.9,0.3-0.9,0.9C48.3,35,48.3,35.2,48.3,35.5z M55.7,31.8c0.4,0,0.8,0,1.2-0.2
	c-1.3-3-2.6-5.9-4.1-8.8l-0.6,1.5l-0.6,1.5c-1,2.2-1.8,4.5-2.6,6.8l5.5-0.7C54.9,32,55.3,31.9,55.7,31.8L55.7,31.8z"/>
<path class="st3" d="M98.8,32.6l0.2,0.5c0.6-1.1,1.1-2.2,1.6-3.3c1.2-2.8,2.1-5.7,2.7-8.7c0.1-0.7,0.2-1.3,0.2-2
	c0-0.3-0.1-0.4-0.4-0.4s-0.4,0-0.6,0c-0.6,0.1-0.6,0.1-0.6-0.6c0-0.3,0.1-0.4,0.4-0.4c1.7,0,3.3,0,5,0.2c0.6,0.1,0.3,0.5,0.3,0.8
	s-0.2,0.2-0.4,0.2c-0.8-0.1-0.8-0.1-1,0.6c-1.8,5.7-4.2,11.2-7.1,16.5c-0.1,0.3-0.4,0.5-0.8,0.5c-0.8,0-1.6,0-2.5,0
	c-0.3,0-0.6-0.2-0.7-0.4c-2.6-5.4-4.9-11-6.9-16.7c-0.3-0.8-0.3-0.8-1.1-0.7c-0.2,0-0.5,0.2-0.6,0c-0.1-0.3-0.1-0.5,0-0.8
	c0-0.2,0.2-0.1,0.3-0.1c2.6-0.1,5.2-0.1,7.8,0c0.6,0,0.4,0.4,0.4,0.7s-0.2,0.3-0.4,0.3s-0.6,0-0.9,0s-0.4,0.1-0.3,0.4
	c0.9,2.6,1.7,5.2,2.8,7.7c0.7,1.8,1.5,3.6,2.3,5.4L98.8,32.6z"/>
<path class="st3" d="M140.1,28.8c1.3-1.4,2.2-3.1,2.6-5c0-0.1,0-0.2,0.1-0.3c0.3-1.3,0.3-1.3-1-1.3c-0.6,0-0.4-0.4-0.5-0.7
	s0.3-0.3,0.5-0.3c1.6,0.1,3.1,0.4,4.6,0.8c0.4,0.2,0.5,0.6,0.4,0.9c-0.1,0.2-0.3,0-0.4,0c-0.8-0.2-0.8-0.2-1.1,0.5
	c-0.2,0.3-0.3,0.7-0.4,1.1c0,0,0,0.1,0,0.1c-0.9,0.5-1.1,1.6-1.8,2.3s-1.2,1.6-1.8,2.3s-1.1,1.4-1.7,2c-0.2,0.2-0.2,0.4-0.2,0.6
	c0.1,2,0.1,4.1,0,6.2c0,0.3,0,0.4,0.4,0.4c0.5,0,1,0.1,1.4,0.1s0.3,0.5,0.3,0.7s-0.2,0.2-0.4,0.2c-2.3-0.2-4.6-0.5-6.9-0.9
	c-0.4,0-0.7,0-1.1-0.1c-0.2-0.1-0.5-0.1-0.4-0.4s-0.2-0.6,0.2-0.7l0.9,0.2c0.9,0.2,0.9,0.2,0.9-0.7c-0.1-1.9-0.1-3.8,0-5.6
	c0-0.2,0-0.4-0.2-0.6c-2.1-3.2-4.1-6.5-5.8-9.9c-0.1-0.2-0.3-0.4-0.5-0.4c-0.3,0-0.6-0.1-0.9,0s-0.4-0.1-0.4-0.4
	c0-0.6,0-0.6,0.6-0.6c2.7,0.1,5.3,0.4,7.9,0.9c0.4,0.1,0.6,0.5,0.5,0.9c0,0,0,0,0,0.1c-0.1,0.2-0.2,0.1-0.3,0l-1.5-0.3
	c0,0.3,0.1,0.6,0.3,0.8c1.3,2.8,2.7,5.4,4.4,7.9c0.1,0.3,0.2,0.2,0.3,0s0.3-0.3,0.4-0.5l0.1-0.1l0,0c0.1,0,0.2-0.1,0.1-0.2l0,0
	C140.1,29,140.1,29,140.1,28.8L140.1,28.8C140.2,28.9,140.2,28.9,140.1,28.8L140.1,28.8z"/>
<path class="st1" d="M72.6,50.2c0.1,0.7-0.3,1.4-1,1.6c-1.1,0.4-2.2,0.6-3.4,0.6c-0.6-0.1-1.1,0.2-1.4,0.7c-0.8,1.2-1.5,2.4-2.1,3.7
	L64,57.9C64,58,63.9,58.1,63.8,58c-0.6-0.2-1-0.8-0.8-1.5c0,0,0,0,0-0.1c0.7-1.5,1.5-3,2.3-4.4c0.2-0.4,0.3-0.7-0.1-1
	c-0.3-0.3-0.3-0.6-0.1-0.9c0.1-0.1,0.2-0.3,0.4-0.3s0.2,0.2,0.2,0.4s0.1,0.4,0.3,0.4s0.3-0.2,0.4-0.3c0.4-0.8,0.8-1.5,1.2-2.3
	c0.2-0.6,0.9-1,1.5-0.8c0,0,0,0,0,0c0.4,0.1,0.7,0.1,1.1,0.1C72,47.5,72.5,48.7,72.6,50.2z M69.8,49c-0.7-0.2-1.1,0.4-1.4,0.9
	c-0.2,0.2-0.5,0.5-0.4,0.8s0.6,0.2,0.9,0.1c0.8-0.1,1.6-0.5,2.2-1.1c0.2-0.3,0.2-0.4-0.2-0.5C70.6,49,70.2,49,69.8,49z"/>
<path class="st1" d="M96.9,49.9c0,1-0.2,2-0.6,2.9c-0.1,0.2-0.2,0.5-0.5,0.5c-0.3,0-0.6-0.2-0.7-0.5c-0.1-0.3-0.1-0.7,0-1
	c0.1-0.5,0.3-1.1,0.4-1.6c0-0.1,0.1-0.3-0.1-0.4s-0.3,0.1-0.4,0.2c-0.3,0.4-0.6,0.9-0.8,1.3c-0.2,0.4-0.4,0.8-0.7,1.2
	c-0.4,0.6-0.7,0.6-1.2,0.3c-0.7-0.5-0.9-0.9-0.5-1.5c0.2-0.4,0.6-0.7,0.8-1.1c0.1-0.2,0.2-0.4,0.2-0.6c-0.1-0.4-0.4-0.6-0.7-0.2
	c-1,0.9-1.9,2-2.5,3.3c-0.4,0.9-0.8,0.9-1.4,0.1c-0.3-0.4-0.4-0.9-0.1-1.4c0.8-1.3,1.4-2.7,2-4.1c0.1-0.2,0.2-0.4,0.4-0.4
	c0.2,0,0.5,0.2,0.5,0.4c0.1,0.4,0.3,0.5,0.7,0.2c0.3-0.2,0.7-0.2,0.9,0.1c0,0,0,0.1,0.1,0.1c0.3,0.4,0.5,0.8,0.8,1.1
	c0.2,0.3,0.3,0.3,0.5,0.1c0.3-0.4,0.6-0.7,1-1c0.8-0.6,1.4-0.4,1.7,0.6C96.9,49.1,96.9,49.5,96.9,49.9z"/>
<path class="st1" d="M161.3,46.8c-0.2,0.2-0.4,0.3-0.7,0.3c0.2-1.2-0.1-2.5-0.9-3.5c-0.9-1.1-2-2.1-3.2-2.8c-1.7-1.1-3.4-2.2-5-3.3
	c-1.4-0.9-2.7-2-3.8-3.2c-1.4-1.4-2-3.4-1.7-5.3c0.1-0.9,0.6-1.7,1.2-2.3c0.1,0.1,0.1,0.2,0.1,0.2c-0.8,1.7-0.6,3.7,0.4,5.3
	c0.9,1.4,2,2.6,3.3,3.5c1.8,1.4,3.8,2.5,5.7,3.7c1.2,0.7,2.3,1.6,3.4,2.6c1,0.9,1.5,2.1,1.6,3.4C161.6,45.9,161.5,46.3,161.3,46.8z"
	/>
<path class="st1" d="M120.1,48.6c-0.4-0.1-0.9,0.1-1.2,0.4c-0.4,0.3-0.8,0.4-1.3,0.4h-0.4c-0.8,0.1-0.8,0.2-0.4,0.8
	c0.6,0.8,1.1,1.5,1.5,2.4c0.1,0.3,0.4,0.6,0.1,0.9s-0.5-0.2-0.7-0.4c-0.5-0.6-0.9-1.2-1.3-1.8c-0.6-0.8-0.8-0.8-1.3,0.1
	s-1,1.8-1.6,2.7c-0.2,0.3-0.3,0.8-0.9,0.6c-0.5-0.3-0.7-0.9-0.6-1.4c0-0.1,0.1-0.2,0.1-0.3c1.1-1.5,1.8-3.2,2.8-4.7
	c0.1-0.1,0.1-0.1,0.1-0.2c0.4-1.4,1.4-2.7,1.8-4.1c0.1-0.5,0.4-0.5,0.7-0.1c0.5,0.5,0.6,1.2,0.3,1.8c-0.3,0.5-0.5,1.1-0.7,1.6
	s-0.1,0.6,0.4,0.5c0.3-0.1,0.7-0.2,1-0.4c0.4-0.2,0.7-0.3,1.1-0.3c0.6-0.1,1.2,0.3,1.3,0.9c0.2,0.5,0,0.7-0.5,0.7L120.1,48.6z"/>
<path class="st1" d="M85.5,20.4l-0.7-0.9c0.2-0.2,0.5-0.2,0.8-0.1c0.3,0.1,0.7,0.1,1,0c0.3-0.1,0.6,0.1,0.7,0.4c0,0,0,0,0,0.1
	c1.7,5.1,3.8,10,6,14.9c0.3,0.7,0.6,1.3,0.9,2c0.1,0.3,0.4,0.5,0.7,0.4c0.7,0,1.4,0,2.1,0c0.3,0,0.4,0,0.3,0.4
	c-0.1,0.4-0.5,0.6-0.9,0.6c-0.8-0.1-1.6-0.1-2.4,0c-0.3,0-0.6-0.2-0.7-0.5c-2.6-5.4-4.8-11-6.8-16.7C86.3,20.4,86,20.3,85.5,20.4z"
	/>
<path class="st1" d="M98.1,51.9c0-0.5,0.2-0.9,0.6-1.2c1.1-1.1,2.2-2.2,3.5-3.1c0.6-0.5,1.4-0.5,2,0c0.7,0.5,1.1,1.3,0.9,2.1
	c-0.1,0.3-0.2,0.6-0.4,0.8c-0.5,0.7-0.8,1.6-0.6,2.4c0,0.3,0.3,0.6-0.1,0.8c-0.3,0.1-0.7,0.1-1-0.2c-0.3-0.3-0.6-0.7-0.7-1.1
	c-0.1-0.3-0.2-0.3-0.5-0.1c-0.5,0.4-1,0.7-1.6,1c-0.7,0.3-1.6,0-1.9-0.7C98.2,52.4,98.1,52.2,98.1,51.9z M100.4,51.4
	c0.1,0,0.3-0.1,0.4-0.1c0.8-0.5,1.5-1.1,2.2-1.8c0.1-0.1,0.3-0.3,0.2-0.4s-0.3,0-0.5,0c-0.9,0.4-1.7,1-2.3,1.7
	c-0.1,0.1-0.1,0.2-0.2,0.3C100.1,51.3,100.1,51.4,100.4,51.4L100.4,51.4z"/>
<path class="st1" d="M56.8,51.7c0-0.6,0.2-1.2,0.6-1.8c0.6-0.9,1.2-1.8,1.9-2.7c0.2-0.3,0.5-0.7,1-0.4s0.3,0.7,0.2,1.1
	c-0.2,0.6-0.6,1.1-0.9,1.6c-0.4,0.6-0.8,1.2-1.2,1.8c-0.1,0.1-0.2,0.3-0.1,0.5s0.3,0,0.4,0c1.6-0.7,2.9-1.8,4-3.1
	c0.2-0.3,0.4-0.6,0.7-1s0.4-0.4,0.7,0c0.2,0.3,0.3,0.6,0.2,0.9c-0.1,0.3-0.2,0.6-0.3,0.9c-1.1,1.7-2.7,3-4.5,3.8
	c-0.3,0.1-0.6,0.2-0.8,0.2c-0.9,0.2-1.7-0.3-1.9-1.2C56.8,52.1,56.7,51.9,56.8,51.7z"/>
<path class="st1" d="M133.9,37.7l-0.9-0.2c0-1.4,0-2.9,0-4.3c0-0.2,0-0.4-0.2-0.6c-2.1-3.2-4.1-6.5-5.8-9.9
	c-0.1-0.2-0.3-0.4-0.6-0.4c-0.4,0-0.7,0-1.1,0c0-0.3,0-0.7,0-1c0.3,0.1,0.6,0.1,0.9,0.1c1.2-0.2,1.7,0.4,2.2,1.4
	c1.6,3,3.3,6,5.2,8.8c0.2,0.3,0.3,0.6,0.2,0.9C133.8,34.2,133.9,35.9,133.9,37.7z"/>
<path class="st1" d="M16.6,49.1c-0.3,0.1-0.6,0.1-1,0.1c-0.2-4.9-0.2-9.8-0.1-14.7c0-1.8,0.1-3.6,0.2-5.3c0-0.5-0.1-0.5-0.5-0.4
	c-0.7,0.2-1.3,0.4-2,0.6c0-0.2,0-0.5,0-0.7c0-0.5,0.2-0.7,0.7-0.8c0.2,0,0.2,0,0.3,0.6c0.7-0.2,1.3-0.4,2-0.6
	c0.4-0.1,0.5-0.1,0.5,0.4c-0.2,3.2-0.2,6.4-0.2,9.6C16.4,41.6,16.4,45.4,16.6,49.1z"/>
<path class="st1" d="M123.6,52c0.8-0.1,1.7-0.2,2.5-0.5c0.2-0.1,0.5-0.2,0.6,0.1c0.1,0.2,0.1,0.5-0.2,0.7c-0.9,0.9-2.2,1.3-3.4,1.1
	c-1.1-0.5-1.9-1.5-2.1-2.7c0-0.3,0.1-0.6,0.3-0.9c0.9-1,2-1.8,3.3-2.3c0.6-0.3,1.4-0.1,1.8,0.5c0.4,0.5,0.4,1.1,0,1.6
	c-0.5,0.8-1.3,1.5-2.2,1.7c-0.6,0.2-1.2,0.1-1.7-0.2c-0.1-0.1-0.3-0.3-0.4-0.1s0,0.4,0.1,0.5C122.6,51.9,123.1,52.1,123.6,52z
	 M123.2,49.9c0.7,0,1.4-0.3,2-0.7c0.1-0.1,0.3-0.3,0.1-0.5s-0.4-0.1-0.5,0C124.4,49.1,123.8,49.6,123.2,49.9L123.2,49.9z"/>
<path class="st1" d="M76.4,52c0.8-0.1,1.6-0.2,2.4-0.5c0.2-0.1,0.5-0.2,0.7,0.1s0,0.5-0.2,0.7c-0.9,0.8-2.1,1.2-3.2,1.1
	c-1.2-0.5-2-1.5-2.2-2.8c0-0.3,0.2-0.7,0.4-0.9c0.9-0.9,1.9-1.7,3.1-2.2c0.6-0.3,1.4-0.1,1.9,0.4c0.4,0.5,0.4,1.3-0.1,1.8
	c-0.5,0.8-1.3,1.4-2.2,1.6c-0.6,0.2-1.2,0.1-1.7-0.2c-0.1-0.1-0.3-0.3-0.4-0.1c-0.1,0.2-0.1,0.4,0.1,0.5
	C75.4,51.9,75.9,52.1,76.4,52z M76,49.9c0.7,0,1.5-0.3,2-0.8c0.1-0.1,0.3-0.3,0.2-0.4s-0.3-0.1-0.5,0C77.2,49.1,76.6,49.5,76,49.9
	L76,49.9z"/>
<path class="st1" d="M73.9,29.9v-0.9c0.7-0.1,1.4-0.1,2.1,0c1.8,0.2,3.2,1.7,3.3,3.5c0.2,1.4,0.2,2.7,0.1,4.1c0,0.4,0.1,0.5,0.5,0.5
	c1.7,0,3.4,0,5.1-0.1c0.2,0,0.5-0.2,0.5,0.3s0,0.5-0.4,0.6c-2.1,0.1-4.2,0.2-6.2,0.2c-0.4,0-0.4-0.2-0.3-0.4c0.1-1.1,0.1-2.3,0-3.4
	C78.4,31.3,76.8,29.9,73.9,29.9z"/>
<path class="st1" d="M147.2,46.8l0.5,0.1c0,0.1,0.1,0.1,0.2,0.1l0,0c1,0.6,2.1,1,3.2,1.4c2.9,1.2,6.1,1.8,9.2,1.9c1.5,0,3-0.3,4.4-1
	c0.1-0.1,0.2-0.1,0.2,0c-0.4,0.4-0.9,0.8-1.5,1c-1.4,0.6-2.8,0.9-4.3,0.8c-4.3-0.2-8.4-1.2-12.3-3.1
	C147.6,47.6,147.1,47.2,147.2,46.8z"/>
<path class="st1" d="M106.9,37.7c-0.1-0.4,0-0.5,0.4-0.4c3.5,0.4,7,0.6,10.5,0.9l5.2,0.3c0.3,0,0.6,0,0.5,0.5c0,0.1,0,0.2,0.1,0.3
	c0.4,0.2,0.2,0.6,0.1,0.8s-0.3,0.1-0.5,0.1c-0.4,0-0.7,0-0.6-0.6c0-0.2-0.2-0.2-0.4-0.2l-3.6-0.2c-3.8-0.3-7.5-0.5-11.2-0.9
	C107,38.3,106.8,38.1,106.9,37.7z"/>
<path class="st1" d="M132.7,48.4c0.5,0,0.7,0.2,0.7,0.8s-0.2,0.6-0.6,0.6c-1.6,0.1-1.6,0.1-2.4,1.5c-0.3,0.7-0.7,1.3-1.1,1.9
	c-0.1,0.3-0.5,0.4-0.8,0.3c-0.1,0-0.1-0.1-0.2-0.1c-0.3-0.2-0.4-0.5-0.2-0.8c0,0,0.1-0.1,0.1-0.1c0.4-0.7,0.9-1.3,1.3-2
	c0.3-0.5,0.3-0.6-0.3-0.8l-0.5-0.1c-0.3-0.1-0.5-0.4-0.5-0.8c0.1-0.4,0.4-0.4,0.7-0.4s0.6,0,1,0.1c0.4,0.1,0.8-0.1,1-0.5
	c0.5-1.1,1.3-2,1.9-3.1c0.1-0.3,0.3-0.7,0.7-0.6s0.4,0.6,0.4,1c-0.1,0.4-0.3,0.7-0.5,1c-0.3,0.5-0.6,0.9-0.9,1.4
	S132.2,48.4,132.7,48.4z"/>
<path class="st1" d="M112.8,49.4c-2.3-0.5-3.5,0.8-4.6,2.3c-0.3,0.4-0.6,0.9-0.9,1.3s-0.6,0.6-1.1,0.4c-0.4-0.2-0.6-0.7-0.4-1.1
	c0,0,0,0,0,0c0.1-0.3,0.2-0.7,0.4-1c0.6-1.1,1.1-2.2,1.5-3.4c0.1-0.2,0.2-0.5,0.3-0.7c0.1-0.3,0.5-0.4,0.8-0.3
	c0.3,0.1,0.5,0.4,0.4,0.7c0,0.2-0.1,0.4-0.1,0.6c0,0.1-0.1,0.3,0,0.4s0.3,0,0.4,0c0.8-0.4,1.7-0.6,2.6-0.6c0.2,0,0.5,0.1,0.7,0.1
	c0.3,0.1,0.5,0.5,0.4,0.8C113.2,49.3,112.9,49.4,112.8,49.4z"/>
<path class="st1" d="M80.9,52.7c0-0.4,0.1-0.8,0.4-1.2c0.7-1.2,1.3-2.6,1.7-3.9c0.1-0.2,0.2-0.3,0.3-0.5c0.2-0.2,0.5-0.3,0.7-0.2
	c0.3,0.1,0.5,0.3,0.4,0.6c0,0.3-0.1,0.5-0.1,0.8c-0.1,0.3,0.1,0.4,0.3,0.3c0.2,0,0.4-0.1,0.6-0.2c0.7-0.4,1.6-0.5,2.4-0.4
	c0.3,0,0.6,0.1,0.8,0.4c0.1,0.2,0.1,0.5,0,0.7c-0.1,0.2-0.4,0.3-0.6,0.2c-2-0.5-3.1,0.8-4.2,2.1c-0.4,0.5-0.7,1.2-1.2,1.7
	c-0.2,0.3-0.6,0.4-0.9,0.2C81.1,53.3,80.8,53,80.9,52.7z"/>
<path class="st1" d="M153.4,26.9c0-0.3,0.1-0.5,0.3-0.7c0.1,0,0.2,0.1,0.1-0.1l0,0c0,0.1,0.1,0.1,0.2,0.1c2.7-0.9,5.1-0.2,7.5,1.2
	c1,0.6,1.9,1.4,2.7,2.3c0.2,0.2,0.3,0.4,0.3,0.6c0,0.7,0,1.3-0.1,1.9c0,0.4,0.1,0.6,0.4,0.6c0.4,0.2,0.6,0.7,0.4,1.1
	c0,0.1-0.1,0.1-0.2,0.1h-0.2c-1.4-0.2-1.5-0.2-1.3-1.6c0.1-1.1-0.3-2.2-1.2-2.8c-2.1-1.9-4.9-3-7.7-2.8
	C154.2,26.7,153.8,26.8,153.4,26.9z"/>
<path class="st1" d="M109.8,35.6l-1-0.1c-0.1-3.9-0.1-7.8,0-11.7c0-0.8,0-1.6,0.1-2.4c0-0.5-0.1-0.6-0.6-0.6s-0.6,0-0.9,0
	c-0.3,0-0.6-0.2-0.6-0.5c0-0.1,0-0.2,0.1-0.3c0.1-0.2,0.2-0.1,0.4-0.1c0.7,0.1,1.5,0.1,2.2,0.1c0.4,0,0.3,0.3,0.3,0.5
	c-0.1,2.4-0.1,4.8-0.2,7.2C109.7,30.2,109.7,32.9,109.8,35.6z"/>
<path class="st1" d="M68.3,35.9h-0.9c-0.2-4.8-0.2-9.6,0-14.4c0-0.4-0.1-0.5-0.4-0.4s-0.8,0.1-1.2,0.2s-0.3,0-0.3-0.3
	c0-0.7,0.2-0.9,0.9-0.7c0.4,0,0.8,0,1.3-0.1c0.7-0.1,0.7-0.1,0.7,0.6C68.1,25.9,68.1,30.9,68.3,35.9z"/>
<path class="st1" d="M23.6,38.7v-0.7h0.2c3.1-0.7,6.2-1.3,9.3-1.8c0.4-0.1,0.6,0,0.6,0.5c0,3,0.1,5.9,0.2,8.9
	c-0.3,0.1-0.6,0.1-0.9,0.1c-0.1-2.8-0.1-5.5-0.2-8.3c0-0.4-0.2-0.4-0.5-0.4c-2.7,0.4-5.3,0.9-8,1.5L23.6,38.7z"/>
<path class="st1" d="M52.8,53.5c-1.3,0-2.7-0.4-3.8-1c-0.3-0.1-0.5-0.3-0.7-0.6c-0.1-0.1-0.1-0.3-0.1-0.4c0.1-0.1,0.2-0.1,0.4,0
	l0.9,0.4c1.2,0.5,2.5,0.6,3.8,0.5c0.2,0,0.5,0,0.6-0.3s-0.2-0.4-0.3-0.5c-0.5-0.4-1.1-0.8-1.6-1.2c-0.9-0.7-0.8-1.2,0.3-1.6
	c1.2-0.4,2.4-0.7,3.6-0.9c0.3-0.1,0.7-0.1,0.8,0.3s-0.2,0.6-0.5,0.7c-0.7,0.2-1.4,0.3-2.1,0.4c-0.3,0.1-0.8,0-1,0.4s0.4,0.5,0.7,0.8
	c0.5,0.3,0.9,0.7,1.3,1.1c0.4,0.4,0.5,1,0.1,1.4c-0.1,0.2-0.3,0.3-0.5,0.3C53.9,53.5,53.3,53.5,52.8,53.5z"/>
<path class="st1" d="M115.3,21.3v-1c1.7,0.1,3.4,0.3,5.1,0.7c0.9,0.2,1.8,0.6,2.6,1.2c0.2,0.1,0.4,0.4,0.4,0.7c0,0.3,0,0.7,0,1
	c0,0.3-0.2,0.5,0.3,0.7c0.2,0.1,0.1,0.5,0,0.8s-0.3,0.1-0.5,0.1c-0.7,0-0.7-0.1-0.7-0.8c0-0.1,0-0.1,0-0.2c0.3-1-0.3-1.6-1.2-2
	c-1.5-0.6-3-1-4.6-1.2C116.2,21.4,115.8,21.4,115.3,21.3z"/>
<path class="st1" d="M33.7,33.5c-0.3,0.1-0.6,0.2-0.9,0.2c0-2.6,0.1-5.3,0.2-7.9c0-0.6,0-0.6-0.6-0.5c-0.6,0.1-1,0.2-1.4,0.3
	s-0.5,0-0.5-0.4c0-0.1,0-0.2,0-0.4c0-0.3,0.3-0.6,0.6-0.6c0,0,0.1,0,0.1,0c0.1,0,0.2,0.1,0.2,0.2c0,0.4,0.2,0.3,0.5,0.3
	c0.5-0.1,1.1-0.2,1.6-0.4c0.3-0.1,0.4,0,0.4,0.4c-0.1,1.4-0.1,2.7-0.1,4.1C33.8,30.4,33.8,31.9,33.7,33.5z"/>
<path class="st1" d="M98.8,32.6L98.6,32c0.8-1.6,1.4-3.2,1.9-4.9c0.7-1.9,1.1-3.9,1.3-5.9c0.1-0.8,0-0.8-0.7-0.8h-0.3
	c-0.6,0-0.8-0.2-0.6-0.8c0-0.2,0.2-0.2,0.3-0.2h2c0.4,0,0.3,0.3,0.3,0.5c-0.1,1.6-0.4,3.2-0.8,4.7C101.1,27.4,100.1,30.1,98.8,32.6z
	"/>
<path class="st1" d="M44.9,38.4c-0.8-0.1-0.5,0.5-0.6,0.9c-0.4,0-0.3-0.2-0.2-0.4c0.6-1.6,1.1-3.2,1.7-4.7c1.5-4.2,3.3-8.3,5.1-12.4
	c0.1-0.3,0.3-0.5,0.6-0.4c0,0.2-0.1,0.4-0.2,0.5c-2.3,5.3-4.5,10.6-6.3,16L44.9,38.4z"/>
<path class="st1" d="M48.3,35.5c0-0.3,0.1-0.5,0.1-0.8l0.7-0.1c2.3-0.3,4.7-0.6,7-0.8c0.2-0.1,0.5,0.1,0.6,0.3c0,0,0,0,0,0
	c0.3,0.9,0.6,1.8,1,2.7c-0.7,0-0.6,0.5-0.6,0.9c-0.3,0.1-0.3-0.2-0.4-0.4c-0.3-0.8-0.6-1.5-0.8-2.3c-0.1-0.3-0.3-0.5-0.6-0.4
	c0,0,0,0,0,0C52.8,34.9,50.6,35.2,48.3,35.5z"/>
<path class="st4" d="M116.6,71.4c-0.2,0.1-0.4,0.1-0.7,0.2c-0.8,0.2-1.7-0.2-2-1.1c-0.3-0.9,0.1-1.9,1-2.3c1-0.5,2.2-0.1,2.7,0.9
	c0.2,0.3,0.2,0.6,0.2,1c0,0.2,0,0.5,0,0.7c0,1.2-1,2.1-2.1,2.1c-0.3,0-0.5-0.1-0.7-0.1c-0.1,0-0.4,0-0.3-0.3s0.2-0.1,0.4-0.1
	C116,72.8,116.5,72.5,116.6,71.4z M116.7,70.2c0-0.4,0-0.9-0.2-1.3c-0.1-0.3-0.3-0.5-0.7-0.6c-0.3,0-0.6,0.2-0.7,0.5
	c-0.3,0.6-0.3,1.3,0,1.9c0.2,0.4,0.7,0.6,1.1,0.4c0.1,0,0.1-0.1,0.2-0.1C116.8,70.9,116.6,70.5,116.7,70.2L116.7,70.2z"/>
<path class="st1" d="M30.4,48.2c0-0.6,0.2-0.8,0.7-0.7c0.1,0,0.2,0,0.2,0.1c0,0.5,0.4,0.3,0.7,0.3c3-0.4,6-0.8,8.9-1.4
	c0.1,0,0.4-0.3,0.5,0.1s0,0.5-0.4,0.6c-3.4,0.7-6.8,1.3-10.2,1.7C30.1,48.8,30.6,48.3,30.4,48.2z"/>
<path class="st4" d="M89.1,72.9c-0.4,0-0.8-0.1-1.2-0.1c-0.2,0-0.3-0.2-0.5,0s-0.3,0-0.3-0.2s0-0.6,0-0.9c0-0.1,0-0.2,0.2-0.2
	s0.2,0,0.2,0.1c0.1,0.9,0.8,0.8,1.4,1c0.1,0,0.3,0,0.4,0c0.4-0.1,0.8-0.2,0.8-0.6s-0.3-0.6-0.6-0.8s-0.9-0.4-1.4-0.7
	c-0.5-0.2-0.8-0.7-0.8-1.2c0.1-0.6,0.5-0.8,1-1c0.5-0.2,1.1-0.2,1.7-0.1c0.2,0,0.4,0.3,0.7,0c0-0.1,0.2,0,0.2,0.1c0,0.4,0,0.7,0,1.1
	c0,0-0.1,0.1-0.2,0.1s-0.1-0.1-0.2-0.2c-0.3-0.7-1.1-1-1.7-0.7c-0.1,0-0.2,0.1-0.3,0.2c-0.3,0.3-0.2,0.6,0.1,0.8
	c0.3,0.2,0.7,0.4,1.1,0.5c0.3,0.1,0.6,0.3,0.9,0.5c0.5,0.4,0.6,1.2,0.2,1.7c-0.1,0.2-0.3,0.3-0.5,0.4C90,72.8,89.6,72.9,89.1,72.9z"
	/>
<path class="st1" d="M139.3,41.4c-2.7-0.3-5.4-0.6-8-1.1c-0.1,0-0.3,0-0.3-0.2c-0.1-0.2-0.1-0.5,0-0.8c0-0.1,0.2,0,0.3,0
	c2,0.3,4.1,0.5,6.1,0.9c0.7,0.1,1.3,0.2,2,0.3c0.6,0,0.4,0.3,0.4,0.6C139.8,41.6,139.5,41.4,139.3,41.4z"/>
<path class="st4" d="M71.4,72.6c-0.4,0.2-0.8,0.2-1.3,0.1c-0.2-0.1-0.4-0.1-0.6,0c-0.6,0.2-1.2,0-1.6-0.4c-0.5-0.5-0.6-1.2-0.3-1.8
	c0.2-0.6,0.7-1,1.4-1h0.4c0.6,0,0.6,0,0.6-0.6c0-0.1,0-0.2-0.2-0.2s-0.2,0-0.2-0.1s0.2-0.1,0.3-0.1c1.1-0.1,1.2-0.1,1.2,1
	c0,0.9,0,1.7,0,2.6C70.9,72.3,70.9,72.6,71.4,72.6z M69.9,71.1L69.9,71.1c0-0.3,0-0.5,0-0.8s0.1-0.4-0.2-0.5
	c-0.3-0.1-0.6-0.1-0.8,0.1c-0.6,0.7-0.6,1.7,0,2.3c0.2,0.2,0.5,0.2,0.7,0.1c0.3-0.1,0.2-0.3,0.2-0.5S69.9,71.4,69.9,71.1L69.9,71.1z
	"/>
<path class="st1" d="M13.1,51.8c0-0.6,0.1-0.7,0.7-0.7c0.1,0,0.3,0,0.3,0.2c0,0.4,0.3,0.3,0.5,0.3c3.1-0.5,6.1-1.2,9.1-2
	c0.2,0,0.4-0.3,0.5,0.1s0,0.5-0.3,0.6c-3.4,0.9-6.8,1.6-10.2,2.3C13.1,52.5,13.1,52.5,13.1,51.8z"/>
<path class="st4" d="M82.5,72.7c-0.3,0.1-0.5,0.1-0.8,0.1c-0.9,0-1.6-0.6-1.6-1.5c-0.1-0.9,0.6-1.7,1.5-1.8c0.4-0.1,0.8,0,1.1,0.1
	c0.1,0,0.3,0.1,0.4,0.1c0.4-0.3,0.5,0,0.5,0.3c0,0.8,0.1,1.6,0,2.5c-0.1,1.1-0.7,1.6-1.8,1.5c-0.3,0-0.5-0.1-0.8-0.1
	c-0.1,0-0.2-0.1-0.1-0.2c0-0.1,0.1-0.2,0.2-0.1c0,0,0,0,0,0c0.1,0,0.2,0.1,0.3,0.1C82.1,73.9,82.5,73.6,82.5,72.7z M82.5,71.2
	L82.5,71.2c0-0.3,0-0.6,0-0.8s0.1-0.4-0.2-0.5c-0.3-0.1-0.6-0.1-0.8,0.1c-0.5,0.7-0.5,1.7,0,2.4c0.2,0.2,0.5,0.2,0.8,0.1
	c0.3-0.1,0.2-0.4,0.2-0.6S82.5,71.4,82.5,71.2L82.5,71.2z"/>
<path class="st4" d="M120.3,71.9l1.6-0.1c0.1,0,0.2,0,0.3-0.1s0-0.3,0.2-0.2s0.1,0.2,0.1,0.3c0,0.2,0,0.4,0,0.6
	c-0.1,0.2,0.1,0.8-0.5,0.3c-0.1,0-0.2,0-0.3,0c-0.7,0-1.5,0-2.3,0c-0.2,0-0.4,0.1-0.5-0.2s0.2-0.3,0.3-0.4c0.5-0.3,0.9-0.7,1.3-1.2
	c0.3-0.3,0.5-0.7,0.7-1.1c0.1-0.4,0.2-0.9-0.2-1.2c-0.4-0.2-0.8-0.2-1.2,0c-0.2,0.1-0.3,0.5-0.5,0.2s0.2-0.4,0.4-0.5
	c0.5-0.3,1.1-0.4,1.7-0.3c0.7,0.1,1.2,0.7,1.1,1.3c0,0.2-0.1,0.5-0.3,0.7c-0.2,0.4-0.5,0.7-0.9,0.9c-0.3,0.3-0.6,0.5-1,0.7
	L120.3,71.9z"/>
<path class="st4" d="M76.8,72.6c-0.6,0.1-1.3,0.1-1.9,0c0.7-0.1,0.5-0.5,0.5-0.9s0-0.9,0-1.4s0-0.7-0.5-0.6c0.4-0.3,1-0.3,1.5,0
	c0.2,0.1,0.2,0,0.3,0c0.3-0.2,0.6-0.2,0.9-0.2c0.5-0.1,1,0.3,1.1,0.9c0,0,0,0.1,0,0.1c0.1,0.5,0.1,1,0,1.5c0,0.3,0,0.6,0.4,0.6
	c-0.4,0.2-0.9,0.2-1.4,0.1c-0.2,0-0.1-0.2-0.1-0.4c0-0.6,0-1.2,0-1.8c0-0.3-0.3-0.6-0.6-0.6c-0.1,0-0.3,0-0.4,0.1
	c-0.2,0.1-0.3,0.3-0.3,0.4c0,0.5,0,1,0,1.5C76.4,72.3,76.3,72.6,76.8,72.6z"/>
<path class="st4" d="M99.1,72.6c-0.4,0.2-0.9,0.2-1.4,0.1c-0.2,0-0.1-0.2-0.1-0.4c0-0.6,0-1.2,0-1.8c0-0.3-0.3-0.6-0.6-0.6
	c-0.1,0-0.3,0-0.4,0.1c-0.2,0.1-0.3,0.3-0.3,0.5c0,0.5,0,1,0,1.4c0,0.2-0.1,0.6,0.3,0.5c0,0,0.1,0.1,0.1,0.1c0,0-0.1,0.1-0.1,0.1
	c-0.6,0.1-1.2,0-1.8-0.1c0.7-0.1,0.5-0.5,0.5-0.9s0-0.9,0-1.3s0.2-0.8-0.6-0.6c0.5-0.3,1.1-0.3,1.6,0c0.1,0.1,0.2,0,0.3,0
	c0.3-0.2,0.6-0.2,0.9-0.2c0.5-0.1,1.1,0.3,1.1,0.8c0,0.1,0,0.1,0,0.2c0,0.5,0,1,0,1.5C98.7,72.3,98.5,72.7,99.1,72.6z"/>
<path class="st4" d="M127.1,69.8c0,0.3,0,0.6,0,0.9c0,0.3-0.1,0.7,0.4,0.5c0.1,0,0.2,0.1,0.2,0.2s0,0.2-0.2,0.2S127,71.7,127,72
	s-0.1,0.6,0.3,0.5c0.1,0,0.1,0.1,0.1,0.1s-0.1,0.1-0.1,0.1c-0.5,0-1.1,0-1.6,0c-0.1,0-0.2,0-0.2-0.1s0.1-0.1,0.2-0.1
	c0.5,0,0.2-0.4,0.3-0.6s-0.2-0.3-0.4-0.3l-1.6-0.1c-0.3,0-0.4-0.2-0.2-0.4c0.7-1,1.4-1.9,2.3-2.8c0.2-0.2,0.6-0.2,0.9-0.1
	c0.2,0.1,0.1,0.4,0.1,0.6S127,69.4,127.1,69.8L127.1,69.8z M125.9,69c-0.6,0.7-1.2,1.5-1.8,2.3c0.6,0,1,0,1.5,0
	c0.3,0,0.3-0.1,0.3-0.3C125.9,70.3,125.9,69.7,125.9,69L125.9,69z"/>
<path class="st4" d="M56.9,72.6c-0.7,0.2-1.3,0.2-2,0.1c-0.1,0-0.1,0-0.2-0.1s0.1-0.1,0.2-0.1c0.3,0.1,0.3-0.1,0.3-0.4
	c0-1.1,0-2.2,0-3.3c0-0.3-0.1-0.4-0.4-0.4c-0.3,0-0.6,0.1-0.8,0.2c-0.2,0.1-0.4,0.2-0.3,0.4c0,0.1,0,0.3-0.1,0.3s-0.2-0.2-0.2-0.3
	c0-0.1,0-0.2,0-0.3c0.1-0.3-0.2-0.7,0.6-0.6c1.2,0.1,2.4,0,3.7,0.1c0.2,0,0.4-0.4,0.5-0.1c0.1,0.4,0.1,0.8,0,1.2
	c0,0.1-0.1,0.1-0.2,0.1s-0.1-0.1-0.1-0.2c-0.3-0.5-0.9-0.8-1.5-0.7c-0.2,0.1-0.1,0.2-0.1,0.4c0,1,0,2,0,3
	C56.4,72.3,56.3,72.6,56.9,72.6z"/>
<path class="st1" d="M144.5,44.8c0-1,0-2.1,0-3.1c0-0.2-0.1-0.5,0.2-0.4s0.7-0.1,0.7,0.4c0,1.8,0.1,3.6,0.2,5.4c0,0.3,0,0.5,0.4,0.6
	s0.5,0.9,0.3,1c-0.1,0-0.2,0-0.2,0c-1.3-0.1-1.3-0.1-1.4-1.4c0-0.4-0.1-0.9-0.1-1.3S144.6,45.1,144.5,44.8L144.5,44.8z"/>
<path class="st1" d="M115.4,29.1v-1c1.2,0,2.4,0.2,3.6,0.5l0.3,0.1c1.2,0.4,1.2,0.4,1.2,1.7c0,0.3-0.2,0.6,0.2,0.8
	c0.2,0.1,0.1,0.5,0,0.8s-0.3,0.1-0.5,0.1c-0.7,0-0.7,0-0.7-0.7c0.1-1.3,0.1-1.3-1.2-1.7C117.4,29.3,116.4,29.1,115.4,29.1z"/>
<path class="st1" d="M56.1,39.6h-0.4c-0.5,0-0.7-0.3-0.6-0.8c0.1-0.3,0.3-0.2,0.5-0.2c1.5,0,3.1,0,4.6-0.2c1.1-0.1,2.1-0.2,3.2-0.3
	c0.2,0,0.4-0.2,0.4,0.2s0.1,0.5-0.3,0.6c-1.9,0.3-3.7,0.4-5.6,0.6L56.1,39.6L56.1,39.6z"/>
<path class="st1" d="M67.5,38.8c-0.6,0-1.2,0-1.7,0c-0.4,0-0.4-0.2-0.4-0.5s-0.1-0.6,0.4-0.5c1.3,0.1,2.6,0.1,3.8,0
	c1.3-0.1,2.5-0.2,3.8-0.3c0.2,0,0.5-0.2,0.5,0.3s0.1,0.5-0.4,0.6C71.5,38.5,69.5,38.6,67.5,38.8z"/>
<path class="st4" d="M66.6,72.7c-1,0.1-2,0.1-3,0c-0.4-0.1-0.7-0.5-0.7-0.9c0-0.4,0.2-0.8,0.6-1c0.4-0.2,0.9-0.3,1.3-0.2
	c0.3,0.1,0.3-0.1,0.3-0.3c0-0.2-0.3-0.4-0.5-0.4c-0.3,0-0.5,0-0.8,0.1c-0.1,0.1-0.2,0.1-0.2,0c0,0,0,0,0-0.1c-0.1-0.1,0-0.2,0.1-0.2
	c0.7-0.5,1.7-0.3,2.2,0.4c0.2,0.3,0.3,0.6,0.3,0.9c0,0.3,0,0.7,0,1C66.2,72.3,66.2,72.6,66.6,72.7z M65.2,71.7c0-0.9,0-0.9-0.4-0.9
	c-0.4,0-0.8,0.3-0.8,0.7c0,0.1,0,0.1,0,0.2c0,0.4,0.3,0.7,0.7,0.8c0,0,0,0,0.1,0C65.3,72.4,65.2,72,65.2,71.7z"/>
<path class="st4" d="M106.4,71.4c-0.3,0-0.6,0-0.8,0s-0.3,0.1-0.3,0.4c0.2,0.8,0.8,1,1.6,0.7c0.1-0.1,0.3-0.3,0.4,0
	s-0.2,0.2-0.3,0.3c-0.5,0.2-1.1,0.2-1.6,0.1c-0.8-0.1-1.4-0.9-1.2-1.7c0.1-1,1-1.6,2-1.5c0.8,0.1,1.5,0.8,1.5,1.6
	c0,0.2-0.1,0.2-0.2,0.2L106.4,71.4L106.4,71.4z M105.9,71.1c0.2-0.2,0.7,0.3,0.7-0.4s-0.3-1-0.6-1s-0.8,0.5-0.7,1.1
	S105.7,70.9,105.9,71.1L105.9,71.1z"/>
<path class="st1" d="M139.7,29.4c-0.1,0.2-0.3,0.3-0.4,0.5s-0.2,0.3-0.3,0c1-1.4,1.8-3.1,2.1-4.8c0-0.2,0-0.4,0.1-0.6s0-0.4-0.3-0.4
	s-0.5,0-0.7-0.1c-0.3,0-0.6-0.2-0.6-0.6c0-0.1,0-0.2,0.1-0.3c0.1-0.2,0.2-0.1,0.3-0.1c0.6,0.1,1.2,0.1,1.8,0.2
	c0.4,0,0.4,0.2,0.4,0.5c-0.2,1.2-0.6,2.4-1.2,3.5c-0.2,0.4-0.5,0.8-0.7,1.3c0,0.1-0.2,0.2,0,0.3l0,0c-0.1-0.1-0.1,0-0.1,0.1l0,0
	c-0.1,0-0.1,0-0.1,0.1l0,0c-0.1,0-0.2,0.1-0.1,0.2l0,0C139.7,29.2,139.7,29.3,139.7,29.4z"/>
<path class="st3" d="M111.1,68.7l-0.3,0.1c-0.1,0-0.2,0.1-0.2-0.1s0-0.2,0.1-0.2c0.4-0.1,0.9-0.3,1.3-0.4s0.2,0.2,0.2,0.3
	c0,1.2,0,2.4,0,3.6c0,0.3-0.1,0.6,0.4,0.5c0.1,0,0.2,0,0.2,0.1s-0.1,0.1-0.1,0.1c-0.6,0-1.2,0-1.8,0c-0.1,0-0.1,0-0.1-0.1
	s0.1-0.1,0.2-0.1s0.4,0,0.3-0.3C111.1,71.1,111.1,69.9,111.1,68.7z"/>
<path class="st4" d="M59.1,72.6c0.4,0,0.5-0.2,0.5-0.6c0-0.6,0-1.2,0-1.7s0-0.4-0.4-0.6c0.4-0.3,0.9-0.3,1.2,0.1
	c0.1,0.1,0.1,0.2,0.2,0.3c0.3-0.4,0.8-0.6,1.3-0.6c0.2,0,0.4,0.2,0.5,0.5c0,0.2,0,0.4-0.2,0.5c-0.2,0.1-0.4,0.1-0.6,0
	c-0.2-0.1-0.2-0.4-0.3-0.6c-0.4,0.1-0.6,0.4-0.7,0.8c-0.1,0.5-0.1,1-0.1,1.5c0,0.3,0.2,0.2,0.4,0.2s0.2,0,0.2,0.1c0,0,0,0.1-0.1,0.1
	C60.4,72.8,59.7,72.7,59.1,72.6z"/>
<path class="st4" d="M101.9,69.5c0.3,0,0.7,0.1,0.9,0.2c0.3,0.1,0.4,0.4,0.3,0.7c0,0,0,0,0,0c-0.1,0.3-0.4,0.4-0.7,0.3c0,0,0,0,0,0
	c-0.2,0-0.4-0.3-0.3-0.5c0-0.1,0-0.1,0.1-0.2c0.1-0.3,0-0.3-0.2-0.3c-0.4,0-0.7,0.2-0.8,0.5c-0.1,0.4-0.2,0.8-0.1,1.3
	c0,0.6,0.5,1,1,1c0.2,0,0.4-0.1,0.5-0.2c0.1-0.1,0.3-0.3,0.4-0.1s-0.2,0.3-0.3,0.4c-1,0.5-2.2,0.1-2.7-0.8c-0.3-0.9,0.1-1.9,1-2.2
	C101.4,69.5,101.7,69.5,101.9,69.5z"/>
<path class="st1" d="M42.6,40.7c-0.2-0.6,0.3-0.5,0.6-0.5c1.4,0,2.8-0.1,4.2-0.4c0.2,0,0.4-0.2,0.4,0.1s0.1,0.5-0.3,0.6
	c-1.5,0.3-3,0.5-4.5,0.6C42.5,41.3,42.5,41,42.6,40.7z"/>
<path class="st4" d="M74.1,72.6c-0.6,0.1-1.3,0.1-1.9,0c0.7-0.1,0.5-0.6,0.5-0.9s0-0.9,0-1.4s0-0.6-0.5-0.7c0.4-0.2,0.9-0.2,1.3-0.1
	c0.2,0,0.1,0.2,0.1,0.4c0,0.7,0,1.4,0,2C73.7,72.3,73.6,72.6,74.1,72.6z"/>
<path class="st4" d="M94,72.7c-0.6,0.1-1.3,0.1-1.9,0c0.7-0.1,0.5-0.6,0.5-0.9s0-0.9,0-1.4s0-0.6-0.5-0.6c0.4-0.2,0.9-0.3,1.4-0.2
	c0.1,0.1,0.1,0.2,0.1,0.3c0,0.7,0,1.4,0,2C93.6,72.4,93.5,72.4,94,72.7z"/>
<path class="st4" d="M73.2,69.2c-0.3,0-0.6-0.1-0.6-0.5s0.3-0.5,0.6-0.5s0.6,0.1,0.6,0.4S73.5,69.2,73.2,69.2z"/>
<path class="st4" d="M93.1,68.3c0.3,0,0.6,0.1,0.6,0.5s-0.3,0.4-0.6,0.4s-0.6-0.1-0.6-0.5S92.8,68.3,93.1,68.3z"/>
<path class="st1" d="M123.7,35.6c-0.3,0.1-0.6,0.3-0.9,0.2c0-0.1,0-0.2,0-0.3c0-0.6,0.3-0.8,0.8-0.5
	C123.8,35.1,123.7,35.4,123.7,35.6z"/>
<path class="st1" d="M23.5,27.1c-0.1-0.3-0.1-0.5,0-0.8c0.7-0.1,0.8,0,0.7,0.5S23.7,26.9,23.5,27.1z"/>
<path class="st1" d="M82,27.9l-0.7-0.2c0.6-0.2,1.2-0.6,1.9-0.8l0,0C82.8,27.3,82.4,27.5,82,27.9z"/>
<path class="st1" d="M40.8,23.9v-0.8c0.7-0.1,0.7-0.1,0.7,0.5S41,23.9,40.8,23.9z"/>
<path class="st1" d="M83.2,26.9L83.2,26.9L83.2,26.9L83.2,26.9L83.2,26.9z"/>
<path class="st0" d="M33.9,45.5c-0.1-3-0.2-5.9-0.2-8.9c0-0.5-0.2-0.6-0.6-0.5c-3.1,0.5-6.2,1.1-9.3,1.8h-0.2
	c-0.1-0.5,0-0.7,0.5-0.8c3.3-0.7,6.6-1.4,10-1.9c0.4-0.1,0.5,0,0.5,0.4c0,3.1,0.1,6.2,0.2,9.3C34.8,45.7,34.3,45.4,33.9,45.5z"/>
<path class="st0" d="M147.9,46.9c-0.1,0-0.2,0-0.2-0.1S147.8,46.8,147.9,46.9z"/>
<path class="st0" d="M153.8,26c0.1,0.2-0.1,0.1-0.1,0.1S153.7,26,153.8,26z"/>
<path class="st0" d="M78.8,26.4c-0.5,0.3-1,0.4-1.6,0.5c-1,0.1-2,0.2-3,0.2c-0.2,0-0.4,0-0.4-0.3c0-2,0-4-0.1-6c0.7,0,1.4,0,2.1,0.1
	c1.8,0.2,3.1,1.7,3.1,3.4C79.1,25,79.1,25.7,78.8,26.4z"/>
<path class="st0" d="M73.8,19.9c-0.2-0.8-0.2-0.8,0.5-0.9c1-0.2,2-0.2,3.1-0.1c2.1,0.1,3.7,1.8,3.6,3.9c0,0.3-0.1,0.6-0.1,0.9
	c-0.1,0.9-0.5,1.6-1.2,2.2c-0.1-0.1,0-0.2,0-0.3c0.3-0.7,0.4-1.5,0.3-2.3c0-1.5-1-2.8-2.5-3.2C76.4,19.8,75.1,19.7,73.8,19.9z"/>
<path class="st1" d="M73.8,19.9c1.2-0.2,2.5-0.2,3.8,0.2c1.5,0.4,2.5,1.7,2.5,3.2c0.1,0.8,0,1.5-0.3,2.3c0,0.1-0.1,0.2,0,0.3l0,0
	c-0.1-0.1-0.1,0-0.1,0.1c-0.2,0.2-0.5,0.4-0.7,0.4c0.2-0.7,0.3-1.4,0.3-2.1c0-1.8-1.4-3.2-3.1-3.4c-0.7-0.1-1.4-0.2-2.1-0.1
	L73.8,19.9z"/>
<path class="st0" d="M79.6,25.9c0-0.1,0-0.2,0.1-0.1L79.6,25.9z"/>
<path class="st0" d="M54.5,31.9L49,32.6c0.8-2.3,1.6-4.6,2.6-6.8C52.7,27.8,53.6,29.9,54.5,31.9z"/>
<path class="st0" d="M57.6,36.8c-0.3-0.9-0.6-1.8-1-2.7c-0.1-0.2-0.3-0.4-0.5-0.4c0,0,0,0,0,0c-2.3,0.2-4.7,0.4-7,0.8l-0.7,0.1
	c0-0.6,0.3-0.8,0.9-0.9c2.5-0.4,5-0.6,7.5-0.9c0.3-0.1,0.7,0.1,0.8,0.5c0,0,0,0,0,0c0.3,1,0.7,1.9,1,2.9c0.1,0.4,0.1,0.5-0.3,0.5
	S57.8,36.8,57.6,36.8z"/>
<path class="st0" d="M52.2,24.3l0.6-1.5c1.5,2.9,2.8,5.8,4.1,8.8c-0.4,0.1-0.8,0.2-1.2,0.2C54.6,29.3,53.5,26.8,52.2,24.3z"/>
<path class="st1" d="M52.2,24.3c1.3,2.4,2.4,4.9,3.5,7.5c-0.4,0.1-0.8,0.2-1.2,0.2c-0.9-2.1-1.8-4.2-2.9-6.2L52.2,24.3z"/>
<path class="st0" d="M139.8,29.2c-0.1-0.1,0-0.2,0.1-0.2C140,29.2,139.8,29.2,139.8,29.2z"/>
<path class="st0" d="M140,28.9c0-0.1,0-0.2,0.1-0.1S140.1,28.9,140,28.9z"/>
<path class="st0" d="M139.9,29c0-0.1,0-0.2,0.1-0.1S140,29.1,139.9,29z"/>
<path class="st0" d="M139.7,29.4c0-0.1,0-0.2,0.1-0.1L139.7,29.4z"/>
<path class="st0" d="M69.8,49c0.4,0,0.7,0,1.1,0.1c0.4,0.1,0.4,0.2,0.2,0.5c-0.5,0.7-1.3,1.1-2.2,1.1c-0.3,0-0.7,0.2-0.9-0.1
	s0.2-0.6,0.4-0.8C68.8,49.4,69.1,48.8,69.8,49z"/>
<path class="st0" d="M100.4,51.4c-0.3,0-0.3-0.1-0.3-0.3c0-0.1,0.1-0.2,0.2-0.3c0.7-0.7,1.4-1.3,2.3-1.7c0.1-0.1,0.4-0.2,0.5,0
	s-0.1,0.3-0.2,0.4c-0.6,0.7-1.3,1.3-2.2,1.8C100.6,51.4,100.5,51.4,100.4,51.4z"/>
<path class="st0" d="M123.2,49.9c0.6-0.3,1.2-0.7,1.7-1.2c0.1-0.1,0.4-0.2,0.5,0s0,0.3-0.1,0.5C124.7,49.6,124,49.9,123.2,49.9z"/>
<path class="st0" d="M76,49.9c0.6-0.3,1.2-0.7,1.7-1.2c0.2-0.1,0.4-0.2,0.5,0S78.1,49,78,49.1C77.5,49.6,76.7,49.9,76,49.9z"/>
<path class="st0" d="M116.7,70.2c-0.1,0.3,0.1,0.6-0.2,0.9c-0.4,0.3-0.9,0.2-1.2-0.1c0-0.1-0.1-0.1-0.1-0.2c-0.3-0.6-0.3-1.3,0-1.9
	c0.1-0.3,0.4-0.5,0.7-0.5c0.3,0,0.6,0.2,0.7,0.6C116.7,69.4,116.7,69.8,116.7,70.2z"/>
<path class="st0" d="M69.9,71.1c0,0.2,0,0.5,0,0.7s0.1,0.4-0.2,0.5c-0.2,0.1-0.5,0.1-0.7-0.1c-0.6-0.7-0.6-1.7,0-2.3
	c0.2-0.2,0.5-0.2,0.8-0.1c0.3,0.1,0.1,0.3,0.2,0.5S70,70.9,69.9,71.1L69.9,71.1z"/>
<path class="st0" d="M82.5,71.2c0,0.3,0,0.5,0,0.8s0.1,0.5-0.2,0.6c-0.3,0.1-0.6,0-0.8-0.1c-0.5-0.7-0.5-1.7,0-2.4
	c0.2-0.2,0.5-0.2,0.8-0.1c0.3,0.1,0.2,0.3,0.2,0.5S82.5,70.9,82.5,71.2L82.5,71.2z"/>
<path class="st0" d="M125.9,68.9c0,0.8,0,1.4,0,2c0,0.2,0,0.3-0.3,0.3c-0.4,0-0.9,0-1.5,0C124.7,70.5,125.3,69.7,125.9,68.9z"/>
<path class="st0" d="M65.2,71.7c0,0.3,0.1,0.7-0.5,0.7c-0.4,0-0.7-0.3-0.7-0.7c0,0,0,0,0-0.1c-0.1-0.4,0.2-0.8,0.6-0.8
	c0.1,0,0.1,0,0.2,0C65.2,70.8,65.2,70.8,65.2,71.7z"/>
<path class="st0" d="M105.8,71.1c-0.2-0.2-0.6,0.2-0.6-0.3s0.4-1.1,0.7-1.1s0.6,0.4,0.6,1S106.1,70.9,105.8,71.1z"/>
</svg>
