<?xml version="1.0" encoding="utf-8"?>
<!-- Generator: Adobe Illustrator 21.1.0, SVG Export Plug-In . SVG Version: 6.00 Build 0)  -->
<svg version="1.1" id="Layer_1" xmlns="http://www.w3.org/2000/svg" xmlns:xlink="http://www.w3.org/1999/xlink" x="0px" y="0px"
	 viewBox="0 0 181 72.9" style="enable-background:new 0 0 181 72.9;" xml:space="preserve">
<style type="text/css">
	.st0{fill:#93A646;}
	.st1{fill:#535432;}
	.st2{fill:#FAFBF6;}
	.st3{fill:#F9FAF4;}
	.st4{fill:#F7F9F2;}
	.st5{fill:#625F4A;}
	.st6{fill:#FFFFFF;}
</style>
<title>Grocery</title>
<path class="st0" d="M10.5,0.5h160c5.5,0,10,4.5,10,10v51.9c0,5.5-4.5,10-10,10h-160c-5.5,0-10-4.5-10-10V10.5C0.5,5,5,0.5,10.5,0.5
	z"/>
<path class="st1" d="M153.3,44.5c0.1-0.1,0.2-0.2,0.2-0.3c0.2,0,0.3-0.1,0.3-0.3c0,0,0,0,0-0.1l0,0c0.3,0,0.5-0.2,0.5-0.5h0.1
	c0.2,0,0.4-0.1,0.4-0.3c0,0,0,0,0,0h0.4c0.5-0.3,0.9,0,1.3,0.1c0.3,0.1,0.2,0.4,0.3,0.6c0.1,0.9-0.1,1.9-0.6,2.7
	c-0.4,0.8-0.3,1,0.6,1.2c0.9,0.2,1.9,0.2,2.8,0c0.6-0.1,1.3-0.2,1.9-0.3c0.7-0.1,1.4-0.4,1.9-0.9c0.7-0.5,1.1-1.4,1-2.2
	c0-0.2,0-0.4,0-0.6c0-1.1-0.1-1.1-1.2-1.2c-0.9,0-1.7,0.1-2.6,0.4c-0.3,0.1-0.5,0.3-0.7,0c-0.2-0.3-0.1-0.7,0.1-1
	c0.2-0.2,0.6-0.3,0.9-0.2c1,0,2-0.1,3-0.3c0.4,0,0.7-0.3,0.7-0.7c0.2-1,0.3-2.1,0.3-3.1c0-0.3,0-0.6,0.3-0.8c0.6-0.3,1.1,0,1,0.6
	c-0.1,1-0.1,2.1,0,3.1c0,0.7,0.1,0.8,0.8,0.8c1.3,0,2.7,0,4,0c0.3,0,0.5,0,0.7,0.2c0.1,0.1,0.1,0.2,0.1,0.3c0,0.1-0.1,0.2-0.2,0.2
	c-0.3,0-0.5,0.1-0.8,0.1c-1.4,0-2.8,0.2-4.2,0.4c-0.3,0-0.6,0.2-0.6,0.6c0,0,0,0.1,0,0.1c-0.1,0.6,0,1.1,0.1,1.7
	c0.3,0.8,0.3,1.6,0.5,2.3c0.3,1.1,0.7,2.1,1,3.2c0.1,0.2,0.1,0.4,0.1,0.6c-0.1,0.3-0.2,0.6-0.5,0.6s-0.4-0.2-0.5-0.4
	c-0.3-0.8-0.6-1.5-0.8-2.3c-0.2-0.5-0.3-1.1-0.4-1.6c-0.1-0.6-0.4-0.6-0.9-0.2c-1,0.9-2.2,1.5-3.5,1.7c-1.2,0.2-2.5,0.3-3.7,0.3
	c-0.5,0-1-0.1-1.5-0.2c-0.3-0.1-0.7-0.1-1,0c0-0.2-0.2-0.2-0.3-0.2c-0.1-0.2-0.3-0.2-0.5-0.2c-0.1,0-0.3-0.1-0.4-0.2
	c-0.2-0.4-0.4-0.7-0.7-1c0.1-0.6-0.2-1.2-0.1-1.9C153.3,45,153.3,44.8,153.3,44.5z M155,46.1c0.4-0.3,0.7-0.7,0.7-1.1
	c0.1-0.2,0.1-0.5-0.1-0.7s-0.5,0-0.7,0.2c-0.5,0.3-0.8,0.9-0.8,1.6c0.1,0.2,0.1,0.4,0.4,0.5S155,46.3,155,46.1z"/>
<path class="st1" d="M121.1,49h-0.5c-0.1-0.3-0.3-0.4-0.5-0.3l0,0c0-0.2-0.1-0.4-0.4-0.5c0-0.1,0-0.3-0.2-0.4c0-0.2-0.1-0.3-0.2-0.5
	c-0.2-0.3-0.3-0.1-0.4,0.1h-0.3c-0.2,0-0.3,0.1-0.3,0.3c0,0,0,0,0,0l0,0c-0.1,0-0.2,0.1-0.2,0.2l0,0l-0.2,0.2l0,0
	c-0.1,0-0.2,0.1-0.2,0.2l0,0c-0.5,0.1-1,0.4-1.5,0.2l0,0c0-0.3-0.1-0.5-0.3-0.7c0-0.2,0.1-0.5-0.1-0.7c0-0.1,0-0.4-0.2-0.4
	s-0.3,0.1-0.4,0.2c0,0.1-0.1,0.1-0.1,0.2v0.3c-0.2,0-0.3,0.2-0.3,0.3c0,0,0,0,0,0v0.3c-0.2,0-0.3,0.1-0.3,0.4v0.3
	c-0.3,0-0.5,0.3-0.5,0.5h-0.3c-0.3,0-0.6-0.1-0.8-0.2c0-0.8,0-1.6,0-2.4c-0.1-0.2-0.3-0.2-0.4,0s-0.4,0.2-0.4,0.5
	c-0.3,0-0.5,0.2-0.5,0.5l0,0c-0.2,0-0.3,0.1-0.3,0.3c0,0,0,0,0,0l0,0c-0.1,0-0.3,0-0.3,0.2c0,0.2-0.2,0.3-0.4,0.3
	c-0.5,0-0.5-0.3-0.3-0.7c0.1-0.2,0.4-0.4,0.4-0.6l0,0c0.2,0,0.3-0.1,0.3-0.3c0,0,0,0,0,0l0,0c0.2,0,0.3-0.1,0.3-0.3c0,0,0,0,0,0l0,0
	c0.6-0.2,1-0.8,1.2-1.4c0,0,0-0.1,0-0.1c0.1,0,0.3-0.1,0.4-0.2c0.7-0.5,0.7-0.5,1.3,0.1c0.1,0.1,0.2,0.2,0.4,0.2v0.3
	c0.3,0.4,0.4,0.4,0.7-0.2l0,0c0.3,0.1,0.6-0.1,0.7-0.3h0.5c0.2,0.2,0.4,0.3,0.7,0.3l0,0c0,0.3,0.2,0.5,0.5,0.6v0.3
	c0,0.2,0.1,0.3,0.3,0.3c0,0,0,0,0,0c0.3,0,0.5-0.1,0.7-0.2c0.6-0.4,1.3-0.7,2-0.3c0,0.4,0.2,0.7,0.4,1c0,0.2,0.1,0.3,0.3,0.3
	c0,0,0,0,0,0l0,0c0.5,0.8,0.9,0.9,1.5,0.3h0.3c0.4,0,0.3-0.2,0.4-0.4h0.3c0.2,0,0.3-0.1,0.4-0.3c0,0,0,0,0-0.1l0,0
	c0.4-0.1,0.4-0.4,0.5-0.7V46c0.3,0,0.3-0.3,0.3-0.5v-0.3c0.2,0,0.3-0.2,0.3-0.4c0,0,0,0,0,0v-0.3c0.3-0.1,0.5-0.2,0.5-0.6
	c0-0.1,0-0.1,0-0.2l0.2-0.2l0,0c0.1,0,0.2-0.1,0.2-0.2l0,0l0.2-0.2h0.2h1.2l0,0c0.1,0.4-0.1,0.7-0.4,0.8c0,0,0,0,0,0
	c-0.4,0.1-0.7,0.3-0.8,0.7c-0.5,0.9-0.8,1.9-1,2.9c0,0.3,0,0.5,0,0.8c0,0.2,0,0.5,0.3,0.6c0.2,0.1,0.5,0,0.6-0.2
	c0.1-0.1,0.3-0.2,0.4-0.4c0.5-0.7,0.9-1.4,1.1-2.3c0.1-0.8,0.3-1.5,0.7-2.3h0.3c0.4,0.1,0.4,0.5,0.4,0.8c0,0.7,0,1.4,0,2.1
	c-0.1,0.4,0.1,0.7,0.3,1l0,0l0.2,0.2c0.2,0.3,0.6,0.2,0.9,0.2s0.8-0.2,1-0.6c0.1,0,0.3,0,0.3-0.1c0.3,0,0.5,0,0.5-0.4h0.2
	c0.2,0,0.4-0.1,0.4-0.3c0,0,0,0,0,0c0,0,0.1,0,0.1,0c0.2,0,0.4-0.1,0.4-0.3c0,0,0,0,0,0c0.3,0.1,0.5-0.2,0.6-0.4s0.2-0.2,0.2-0.3
	l0,0c0.2-0.1,0.4-0.3,0.4-0.5l0,0c0.2,0,0.3-0.1,0.3-0.3c0,0,0,0,0-0.1l0,0c0.2-0.1,0.3-0.3,0.4-0.5c0,0,0.1,0,0.1,0h0.7
	c0.2,0,0.3,0.2,0.5,0.3s0,0.5,0.4,0.5v0.3c0,0.1,0,0.2,0.1,0.3s0.2-0.1,0.3-0.2h0.5c0.3,0,0.5,0,0.5-0.3h0.2c0.3,0,0.6,0.1,0.7-0.3
	l0.5-0.1c0.3,0.1,0.6,0,0.7-0.3c0.3,0,0.7-0.1,1-0.2c0.3,0,0.6,0,0.8,0c0.6,0,0.7-0.1,0.7-0.7c0-0.4,0-0.8,0-1.2s0.2-0.6,0.2-0.9
	c0.3-0.1,0.4-0.4,0.3-0.7c0-0.1,0.1-0.3,0.2-0.4c0.1,0,0.1-0.1,0.1-0.2c0-0.1,0-0.1,0-0.2c0.8,0,0.8,0,0.8,0.8v0.5
	c-0.3,0.1-0.3,0.3-0.3,0.6c-0.1,0.2-0.2,0.5-0.2,0.7c0,1.5,0,3,0,4.6c0,0.4,0,0.9,0,1.3c0,0.3,0.1,0.6,0.2,0.9
	c0.1,0.3,0.4,0.3,0.6,0.1s0.4-0.4,0.1-0.6c-0.5-0.4-0.7-1-0.4-1.6c0.1,0,0.3-0.1,0.3-0.2l0.2-0.1l0,0c0.1,0,0.1-0.1,0.2-0.2l0.5-0.5
	c0.1,0,0.2-0.1,0.2-0.2l0.5-0.5l0.2-0.1l0,0c0.1,0,0.2-0.1,0.2-0.2l0.2-0.2c0.1,0,0.2-0.1,0.2-0.2c0.3-0.4,0.9-0.6,1.4-0.5
	c0,0.1,0.1,0.3,0.2,0.3v0.3c-0.2,0-0.3,0.1-0.3,0.4L148,46c-0.2,0-0.4,0.1-0.4,0.3c0,0,0,0,0,0h-0.3c-0.1,0-0.1,0.1-0.1,0.1
	l-0.2,0.2c-0.1,0-0.1,0.1-0.2,0.2l0,0l-0.2,0.2l0,0l-0.2,0.2c-0.3,0.1-0.4,0.2-0.1,0.4l0.1,0.4c0.1,0.5,0.6,0.2,0.9,0.3h0.7h0.9h1
	h2.1c0.2,0,0.4,0,0.5-0.3h1c0.1,0.2,0.2,0.4,0.2,0.7c0,0,0,0.1,0,0.1h-1.1c-0.2,0-0.3,0.1-0.4,0.3l-1.5,0.1h-1.5
	c-0.4-0.2-0.3,0.1-0.4,0.3c-0.3,0.1-0.7,0.1-1,0c-0.5-0.4-0.8-0.4-1.2,0l-1,0.7l-0.2,0.1l0,0l-0.1,0.1l-0.2,0.2
	c-0.6,0.3-1.4,0.3-2,0v-0.3c-0.2-0.8-0.2-1.6-0.2-2.4c0-0.7,0-1.4,0-2c0-0.3,0-0.6-0.2-0.8c-0.2-0.2-0.3,0-0.3,0.2h-1
	c-0.4,0-0.8-0.1-1,0.3c-0.2,0-0.5,0-0.7,0.2c-0.2,0-0.4,0.1-0.4,0.3c0,0,0,0,0,0H139c-0.2,0-0.3,0.1-0.3,0.3c0,0,0,0,0,0.1l0,0
	c-0.2,0-0.3,0.1-0.4,0.3c0,0,0,0,0,0c-0.2,0-0.3,0.1-0.3,0.3v0c-0.3,0.1-0.5,0.2-0.5,0.6v1c-0.2,0.4-0.3,0.8-0.3,1.2h-1l-0.2-0.2
	c0-0.8,0-1.7,0-2.5c0-0.2,0.1-0.5-0.2-0.7s-0.6-0.1-0.7,0.3H135c-0.5,0.1-0.9,0.4-1.1,0.8h-0.4c-0.3,0-0.5,0-0.5,0.4l0,0
	c-0.2,0-0.3,0.1-0.3,0.3c0,0,0,0,0,0.1l0,0c-0.2,0-0.3,0.1-0.3,0.3c0,0,0,0,0,0c-0.1,0-0.3,0.1-0.3,0.2l-1.3,0.4
	c-0.1,0-0.2,0.2-0.3,0.3h-1.1c-0.1-0.3-0.3-0.3-0.6-0.3l-0.3-0.2c-0.3-0.4-0.5-0.4-0.7,0l-0.1,0.2c-0.1,0-0.2,0.1-0.2,0.2l-0.2,0.1
	c-0.2,0-0.4,0.1-0.4,0.3c0,0,0,0,0,0c-0.2,0-0.3,0.1-0.3,0.3c0,0,0,0,0,0.1c-0.2,0-0.3,0.1-0.3,0.3c0,0,0,0,0,0h-0.3
	c-0.2,0-0.5,0-0.7,0c-0.2-0.1-0.4,0-0.5-0.2c0-0.1-0.1-0.2-0.2-0.2c-0.2-0.2-0.1-0.4-0.2-0.7s0.1-0.7-0.3-0.8s-0.5,0.1-0.6,0.4h-0.6
	L121.1,49z"/>
<path class="st2" d="M52.5,22.5c0-3.2,0-6.3,0-9.5c0-1,0-1,1.1-1h1c0.8,0,0.9,0,0.9,0.8c0,0.6,0,1.3,0,1.9c0,2.5,0,5,0,7.5
	c0,0.1,0,0.2,0,0.3c0,0.2-0.1,0.5,0.2,0.6s0.4-0.1,0.5-0.2c1.2-0.8,2.7-0.8,3.9-0.1c0.6,0.3,1.1,0.9,1.3,1.5c0.2,0.6,0.4,1.3,0.4,2
	c0,2,0,3.9,0,5.9c0,0.8,0,0.8-0.8,0.8c-0.5,0-1,0-1.5,0s-0.7,0-0.7-0.7c0-1.7,0-3.3,0-5c0-0.3,0-0.7,0-1c0-0.8-0.6-1.5-1.4-1.6
	c-0.8,0-1.5,0.6-1.7,1.4c-0.2,0.8-0.2,1.7-0.2,2.5c0,1.2,0,2.4,0,3.6c0,0.7-0.1,0.7-0.7,0.8s-1.1,0-1.7,0c-0.3,0-0.5-0.1-0.5-0.4
	c0,0,0-0.1,0-0.1c0-0.2,0-0.4,0-0.6C52.5,28.9,52.5,25.8,52.5,22.5L52.5,22.5z"/>
<path class="st2" d="M94.9,22.6c0-3.1,0-6.3,0-9.4c0-0.2,0-0.4,0-0.6S95,12,95.4,12h2c0.3,0,0.5,0.2,0.5,0.4c0,0,0,0.1,0,0.1
	c0,0.2,0,0.4,0,0.6c0,3,0,6,0,9c0,0.2,0,0.5,0,0.7s0.2,0.4,0.5,0.3s0.2-0.2,0.4-0.2c1.2-0.7,2.6-0.7,3.8,0c0.6,0.3,1,0.9,1.3,1.6
	c0.3,0.6,0.4,1.3,0.4,2c0,2,0,3.9,0,5.9c0,0.8,0,0.8-0.8,0.8h-1.4c-0.7,0-0.8,0-0.8-0.8c0-1.7,0-3.3,0-5c0-0.4,0-0.9-0.1-1.3
	c-0.2-0.7-0.8-1.2-1.5-1.2c-0.7,0.1-1.3,0.7-1.4,1.4c-0.2,0.8-0.2,1.6-0.2,2.4c0,1.3,0,2.6,0,3.8c0,0.7-0.1,0.7-0.7,0.7h-1.4
	c-0.9,0-0.9,0-0.9-0.8c0-0.5,0-1.1,0-1.6C94.9,28,94.9,25.3,94.9,22.6z"/>
<path class="st3" d="M118.4,28.2c0.1,1.4-0.4,2.7-1.4,3.7c-2.3,2.2-5.9,2.1-8.1-0.2c-0.1-0.1-0.1-0.2-0.2-0.2c-0.6-0.7-1-1.7-1-2.6
	c-0.1-1.1,0-2.2,0.4-3.2c0.5-1.3,1.6-2.3,2.9-2.8c0.8-0.3,1.6-0.4,2.4-0.4c2.3,0,4.4,1.6,5,3.9C118.4,26.9,118.5,27.6,118.4,28.2z
	 M110.7,28c-0.1,0.6,0.1,1.2,0.4,1.7c0.6,1,2,1.3,3,0.7c0.1-0.1,0.2-0.2,0.4-0.3c1.1-1.3,1.1-3.2,0-4.5c-0.7-0.6-1.8-0.8-2.6-0.3
	C111,25.9,110.5,27,110.7,28z"/>
<path class="st4" d="M71.7,28.5c-0.9,0-1.8,0-2.6,0c-0.6,0-0.8,0.2-0.6,0.8c0.1,0.4,0.2,0.8,0.4,1.1c0.6,0.8,1.7,1,2.5,0.4
	c0.1-0.1,0.1-0.1,0.2-0.2c0.2-0.2,0.4-0.4,0.5-0.6c0.2-0.3,0.5-0.4,0.8-0.3c0.5,0.2,1.1,0.3,1.6,0.3c0.3,0,0.4,0.2,0.4,0.5
	c0,0.2-0.1,0.4-0.3,0.6c-0.9,1.4-2.4,2.2-4,2.2c-1,0.1-2.1-0.2-3-0.7c-0.9-0.5-1.6-1.4-2-2.4c-0.6-1.6-0.6-3.4,0-5
	c0.5-1.3,1.6-2.3,2.9-2.7c1.5-0.5,3.1-0.3,4.5,0.5c1.2,0.8,1.9,2.1,2.1,3.6c0.1,0.3,0.1,0.7,0.1,1c0,0.5-0.1,0.7-0.7,0.7
	C73.5,28.5,72.6,28.5,71.7,28.5L71.7,28.5z M70.3,26.6h1.4c0.4,0,0.5-0.2,0.4-0.6c-0.1-0.6-0.6-1.2-1.2-1.4c-1-0.3-2.1,0.2-2.4,1.2
	c0,0.1,0,0.1,0,0.2c-0.1,0.4,0,0.6,0.4,0.6S69.8,26.6,70.3,26.6z"/>
<path class="st3" d="M87.8,29.3c0,1.1,0,2.2,0,3.2c0,0.6,0,0.6-0.6,0.6s-1.2,0-1.8,0c-0.4,0-0.6-0.2-0.6-0.6s-0.1-0.9-0.1-1.4
	c0-1.6,0-3.2,0-4.8c0-0.8-0.6-1.5-1.4-1.5c-0.3,0-0.6,0.1-0.9,0.2c-0.4,0.2-0.7,0.6-0.7,1.1c-0.1,0.5-0.2,1.1-0.2,1.6
	c0,1.5,0,2.9,0,4.4c0,0.9,0,0.9-0.9,0.9h-1.5c-0.2,0-0.5-0.1-0.5-0.4c0,0,0-0.1,0-0.1c0-0.1,0-0.3,0-0.4c0-2.8,0-5.7,0-8.5
	c0-0.9,0-0.9,0.9-0.9h1.4c0.2,0,0.5,0,0.6,0.2c0.3,0.5,0.5,0.2,0.8,0c1.5-0.9,3.4-0.7,4.7,0.5c0.6,0.7,0.9,1.6,0.9,2.6
	C87.8,27,87.8,28.1,87.8,29.3L87.8,29.3z"/>
<path class="st4" d="M121.8,26.5c0-1,0-2,0-3.1c0-0.6,0-0.7,0.7-0.7s1.2,0,1.8,0c0.4,0,0.6,0.2,0.6,0.6c0,0.2,0,0.4,0,0.6
	c0,1.6,0,3.2,0,4.8c0,0.4,0,0.8,0.2,1.2c0.2,0.7,0.9,1.2,1.7,1c0.7,0,1.1-0.4,1.3-1.2c0.1-0.4,0.2-0.9,0.2-1.3c0-1.6,0-3.1,0-4.7
	c0-0.8,0-0.8,0.9-0.8h1.4c0.7,0,0.7,0.1,0.8,0.7c0,1.6,0,3.2,0,4.8c0,0.6,0,1.2-0.1,1.9c-0.2,1.8-1.6,3.1-3.4,3.3
	c-1.1,0.2-2.2,0.1-3.3-0.3c-1-0.4-1.9-1.2-2.2-2.3c-0.2-0.7-0.3-1.4-0.3-2.1C121.8,28,121.8,27.3,121.8,26.5z"/>
<path class="st1" d="M103.3,44c-0.3,0.6-0.7,0.5-1.2,0.6c-1.3,0-2.6,0.6-3.6,1.5c-0.5,0.5-0.7,1.1-0.8,1.8c0,0.2,0,0.4,0,0.6
	c0,0.4,0,0.7-0.5,0.7s-1-0.2-1-0.7s0-1.3,0-1.9c0-0.3,0.1-0.7-0.2-0.8s-0.6,0.2-0.8,0.3c-1,0.8-2,1.5-3.1,2.1
	c-0.8,0.4-1.9,0.4-2.6-0.2c-0.5-0.4-1-0.9-1.3-1.5c-0.4,0.2-0.8,0.5-1,0.9c-0.3,0.4-0.6,0.7-1,1.1c-0.3,0.3-0.6,0.5-0.9,0.5
	c-1,0.1-1.3,0-1.8-0.9c-0.3-0.6-0.3-0.6-0.9-0.3c-0.6,0.3-1.1,0.7-1.6,1.1c-0.7,0.6-1.4,1.1-2.3,1.4c-0.9,0.3-1.9-0.2-2.2-1.2
	c-0.1-0.2-0.1-0.4-0.1-0.6c0-0.4,0-0.9,0-1.3c-0.1-1.2,0.6-2.4,1.7-2.9c0.3-0.2,0.6-0.4,0.8-0.7c0.4-0.5,1.1-0.5,1.5-0.2
	c0,0,0.1,0.1,0.1,0.1c0.7,0.5,1,1.3,1,2.1c0,0.3,0,0.6,0,0.9c0,0.5,0.2,0.7,0.7,0.5c0.8-0.3,0.9-0.4,0.7-1.3
	c-0.1-0.8,0.1-1.5,0.4-2.2c0.2-0.3,0.5-0.6,0.9-0.6c0.2,0.1,0.4,0.6,0.2,1c-0.3,0.8-0.4,1.6-0.3,2.4c0,0.5,0.3,1.1,0.7,1.4
	c0.2,0.2,0.6,0.2,0.8,0c0,0,0,0,0.1-0.1c1-0.9,1.8-2,2.2-3.2c0.1-0.2,0.2-0.4,0.3-0.6c0.2-0.2,0.4-0.3,0.7-0.2
	c0.3,0.1,0.3,0.3,0.3,0.6c0,0.5,0.2,1,0.2,1.5c0,0.2,0.1,0.4,0.2,0.6c0.2,0.6,0.7,0.9,1.3,0.9c1.1,0.1,1.8-0.6,2.6-1
	c1-0.4,1.5-1.4,2.2-2.1s1.1-0.6,1.6,0.2c0.1,0.1,0.1,0.2,0.1,0.3c0.2,0.4,0.4,0.5,0.8,0.4c0.4-0.1,0.8-0.3,1.2-0.5
	c0.8-0.4,1.7-0.6,2.6-0.8C102.5,43.7,102.9,43.7,103.3,44z M78.5,45.7L78.5,45.7l-0.2,0.2l-0.2,0.7c-0.4,0.1-0.3,0.4-0.3,0.7
	c-0.1,0.5,0,1,0.2,1.5c0.3,0.4,0.4,0.4,0.7,0c1.1-0.1,1.3-0.4,1.6-1.4c0.1,0,0.2-0.2,0.2-0.3c0-0.5,0-0.9,0-1.4
	c0-0.2-0.1-0.4-0.3-0.5c0-0.1-0.1-0.3-0.2-0.4c0-0.2-0.1-0.3-0.3-0.3s-0.2,0.1-0.2,0.3h-0.2c-0.2,0-0.3,0.1-0.3,0.2c0,0,0,0.1,0,0.1
	l-0.2,0.2l-0.2,0.2l0,0L78.5,45.7z"/>
<path class="st4" d="M138.1,33.5c-1.2,0-2.3-0.4-3.1-1.3c-0.4-0.3-0.4-0.5-0.1-0.9s0.5-0.6,0.7-0.9s0.5-0.3,0.8,0
	c0.3,0.3,0.7,0.6,1.1,0.7c0.4,0.2,0.9,0.2,1.2-0.1c0.5-0.2,0.6-0.8,0.4-1.3c-0.1-0.2-0.2-0.3-0.3-0.4c-0.5-0.3-1-0.6-1.6-0.8
	c-1.4-0.4-2.2-1.8-2-3.2c0.2-1.6,1.5-2.8,3.1-2.9c1-0.1,2.1,0.2,3,0.7c0.6,0.3,0.6,0.5,0.2,1c-0.2,0.2-0.3,0.5-0.5,0.7
	c-0.1,0.3-0.4,0.4-0.7,0.3c-0.1,0-0.1-0.1-0.2-0.1c-0.3-0.2-0.6-0.3-0.9-0.4c-0.4-0.1-0.8,0.1-1,0.5c-0.1,0.4,0.1,0.9,0.5,1
	c0.6,0.3,1.3,0.6,1.9,0.9c1.3,0.7,1.9,2.2,1.6,3.6C141.6,32.4,140,33.6,138.1,33.5z"/>
<path class="st1" d="M73.4,46.6c-0.4,0.3-0.8,0.6-1.1,1c-0.7,0.8-1.7,0.6-2.6,0.5c-0.4-0.1-0.7-0.5-0.7-1c0-0.8,0-1.5,0-2.3
	c0-0.4,0.3-0.8,0.4-1.2s0.4-0.2,0.7-0.2c0.2,0,0.4,0.2,0.4,0.4c0,0,0,0,0,0c0,0.2,0,0.5-0.1,0.7c-0.3,0.7-0.4,1.5-0.3,2.3
	c0,0.5,0.3,0.6,0.7,0.4c0.6-0.4,1.1-1,1.4-1.7c0.3-0.6,0.5-0.7,1.2-0.6c0.5,0.1,0.7,0.4,0.8,0.8c0.2,0.9,0.5,1.7,0.7,2.6
	c0.3,0.8,0.4,1.7,0.5,2.6c0,0.1,0,0.3,0.1,0.4c0.4,1.1,0.5,2.2,0.2,3.4c-0.1,1.3-0.6,2.6-1.3,3.7L74.1,59c-0.8,1.3-2.1,2.3-3.6,2.8
	c-1.1,0.5-2.4,0.4-3.5-0.2c-1-0.5-1.7-1.4-1.9-2.4c-0.2-1.8,0.4-3.5,1.7-4.7c0.7-0.8,1.6-1.6,2.6-2.1c1-0.5,1.9-0.9,2.9-1.3
	c0.3,0,0.6,0,0.8,0c0.1,0,0.3,0.1,0.3,0.2c0.1,0.2,0,0.4-0.2,0.4c-0.3,0.2-0.6,0.3-0.9,0.4c-0.4,0.1-0.7,0.3-1.1,0.4
	c-1.2,0.3-2.2,1-3.1,1.9c-0.7,0.6-1.2,1.2-1.7,2c-0.3,0.6-0.5,1.3-0.5,2c0.1,0.8,0.4,1.5,1.1,2c0.3,0.4,0.8,0.6,1.4,0.5
	c0.4-0.1,0.8-0.1,1.2,0c0.7,0.1,1.5-0.1,2-0.7c1.1-0.8,1.9-1.8,2.6-3c0.3-0.6,0.5-1.2,0.6-1.9c0.1-0.5,0.2-1,0.3-1.5
	c0-1-0.2-1.9-0.5-2.8c-0.2-0.9-0.4-1.7-0.6-2.5C73.9,47.8,73.6,47.3,73.4,46.6z"/>
<path class="st5" d="M80.2,47.5c0-0.7,0-1.5,0-2.2c0.2,0.1,0.3,0.3,0.3,0.5c0,0.5,0,0.9,0,1.4C80.5,47.3,80.4,47.4,80.2,47.5
	C80.2,47.4,80.2,47.4,80.2,47.5z"/>
<path class="st5" d="M78.1,46.6c0,0.3,0.1,0.6-0.3,0.7C77.8,47,77.7,46.7,78.1,46.6z"/>
<path class="st5" d="M78,48.8h0.7C78.4,49.3,78.2,49.3,78,48.8z"/>
<path class="st5" d="M80,44.9h-0.5c0-0.1,0.1-0.3,0.2-0.3S80,44.7,80,44.9z"/>
<path class="st5" d="M79.3,44.9c0,0.2-0.1,0.3-0.3,0.3c0,0,0,0,0,0C79,45.1,79.1,44.9,79.3,44.9C79.3,44.9,79.3,44.9,79.3,44.9z"/>
<path class="st5" d="M78.8,45.4l-0.2,0.2L78.8,45.4z"/>
<path class="st5" d="M78.5,45.7l-0.2,0.2L78.5,45.7z"/>
<path class="st5" d="M78.6,45.6c0,0.1-0.1,0.1-0.2,0.2L78.6,45.6z"/>
<path class="st4" d="M151.7,28.4c-0.9,0-1.8,0-2.6,0c-0.6,0-0.8,0.2-0.6,0.8c0.1,0.4,0.2,0.8,0.4,1.1c0.6,0.8,1.7,1,2.5,0.4
	c0.1-0.1,0.1-0.1,0.2-0.2c0.2-0.2,0.4-0.4,0.5-0.6c0.2-0.3,0.5-0.4,0.8-0.3c0.5,0.2,1,0.3,1.6,0.3c0.4,0,0.4,0.2,0.4,0.5
	c0,0.2-0.1,0.4-0.3,0.6c-0.9,1.4-2.4,2.2-4,2.2c-1,0.1-2.1-0.2-3-0.7c-0.9-0.5-1.6-1.4-2-2.4c-0.6-1.6-0.6-3.4,0-5
	c0.5-1.3,1.6-2.3,2.9-2.7c1.5-0.5,3.1-0.3,4.5,0.5c1.2,0.8,1.9,2.1,2.1,3.6c0.1,0.3,0.1,0.7,0.1,1c0,0.5-0.1,0.7-0.7,0.7
	C153.6,28.3,152.6,28.3,151.7,28.4L151.7,28.4z M150.3,26.5h1.4c0.4,0,0.5-0.2,0.4-0.6c-0.1-0.6-0.6-1.2-1.2-1.4
	c-1-0.3-2.1,0.2-2.4,1.2c0,0.1,0,0.1,0,0.2c-0.1,0.4,0,0.6,0.4,0.6S149.9,26.5,150.3,26.5z"/>
<path class="st6" d="M35.4,27.3c1.5,7.5-3.5,14.8-11,16.3c-0.7,0.1-1.5,0.2-2.2,0.2c-7.7,0-13.8-6.2-13.1-15.4
	c0.5-6.8,7.5-17.6,13.1-17.6C27.9,10.8,34.1,20.4,35.4,27.3z"/>
<path class="st0" d="M35.1,29.3c-2,0.4-3.8,1.2-5.4,2.5c0,0,0-9.2-5.8-11.6l-0.3-0.7l0.4-0.8L22.4,19l-0.8-0.7l-0.5,1l-0.8-0.5
	l-0.5,0.7l-1.2,0.1l0.1,1.6l-2.3,3c0,0,2.6,0.1,2.9,0.8c0,0-6.3,11.3-0.2,17.9l0.4,0.7c0,0,13.3,3.3,16.2-14.2L35.1,29.3z"/>
<path class="st6" d="M35.7,31c-2.3-0.3-4.7,0.2-6.7,1.4c0,0,0-6.2-3.1-8.9c-1-1.4-2.5-2.3-4.2-2.6c-1.8,0-3.4,1-4.3,2.6
	c0,0,1.9,0.1,2.4,1.4c-0.5,0.6-0.6,1.4-0.3,2.1c0.2,0.3,0.5,0.6,0.9,0.6c0,0-2.7,3.6-2.8,10.4c0,0,0.4,3.4,2,5.2c0,0,1,1.4,6.3,0.1
	C31.4,41.6,35.3,36.7,35.7,31z"/>
<circle class="st0" cx="20.1" cy="22.3" r="0.3"/>
</svg>
