<?xml version="1.0" encoding="utf-8"?>
<!-- Generator: Adobe Illustrator 21.1.0, SVG Export Plug-In . SVG Version: 6.00 Build 0)  -->
<svg version="1.1" id="Layer_1" xmlns="http://www.w3.org/2000/svg" xmlns:xlink="http://www.w3.org/1999/xlink" x="0px" y="0px"
	 viewBox="0 0 202.8 74.5" style="enable-background:new 0 0 202.8 74.5;" xml:space="preserve">
<style type="text/css">
	.st0{fill:#142315;}
	.st1{fill:#15981A;}
	.st2{fill:#FAFAFA;}
	.st3{font-family:'Arial-BoldMT';}
	.st4{font-size:4.47px;}
</style>
<title>Coke_Dine</title>
<path class="st0" d="M72.1,21.3c0.1,0,0.1,0,0.1-0.1c-0.1-3.3,1-3.7,4.1-3.9c2.3-0.1,4.7-0.1,7.1-0.1c2.9-0.1,5.7,1.2,7.5,3.6
	c0.5,0.7,1.1,1.3,1.8,2.2c0.1-0.9,0.1-1.5,0.2-2.1c0.4-2.7,1.1-3.7,4.1-3.8c6-0.2,11.9,0,17.9,0c8.3-0.1,16.5,0.4,24.8,0.8
	c0.7,0.1,1.3-0.3,1.6-0.9c1.6-3.3,3.7-6.2,7.2-7.8c5.2-2.4,15.6-1.7,19.6,6c0.8,1.4,1.2,2.9,1.4,4.5c0.1,0.7,0.1,0.9,0.9,0.7
	c3.5-1.4,7.5-1.5,11.1-0.2c0.6,0.2,1.3,0.1,1.9-0.2c1.9-1,4.1-0.6,5.6,0.8c2.8,2.3,4.6,5.7,4.9,9.3c0.1,1-0.1,2.1-0.7,3
	c-0.8,1.4-1.8,2.7-3,3.8c-0.8,0.7-0.9,1.1,0.2,1.7c3.3,1.8,6.1,4.1,8.5,6.9c1.8,2.1,3,4.6,3.5,7.3c0.6,4.9-1.4,8.5-5.4,11.1
	c-3.5,2.1-7.5,3.1-11.6,2.7c-5-0.4-10.1-0.9-14.8-2.8c-0.9-0.4-1.3,0.2-1.6,0.9c-1,1.8-1.8,3.6-2.6,5.4c-1.4,3.2-3.6,4.3-7.1,3.8
	c-7.1-1.2-14.3-2.1-21.5-2.8c-8.9-0.9-17.8-1.5-26.8-1.7c-11.1-0.3-22.1,0.1-33.2,0.7c-11,0.5-22,1.8-32.8,3.8
	c-2.6,0.7-5.2-0.6-6.3-3c-1.3-2.3-2.4-4.6-3.3-7c-0.5-1.4-0.8-1.5-2.2-0.9c-5.6,2.4-11.5,4.1-17.5,5.2c-2.7,0.5-5.5,0.5-8.2,0.1
	c-5.2-0.9-7.6-4.6-6.4-9.7c0.4-1.7,1.1-3.3,2.2-4.6c0.6-0.7,1-1.6,1-2.6c0.6-7.6,1.1-15.1,1.7-22.7c0.1-0.6-0.1-1.3-0.4-1.8
	C5.2,26.6,5,26.3,4.9,26c-1.9-3.6-1.2-6.5,2.4-8.5c4.1-2.2,8.9-3.1,13.6-2.4c1.9,0.1,3.8,0.5,5.6,1.2c0.8,0.3,0.9-0.3,1.1-0.7
	C33.1,7.3,45.4,4.5,54,9.7c2.8,1.7,5.1,4.2,6.4,7.1c0.2,0.6,0.7,0.9,1.3,0.8c0,0,0.1,0,0.1,0c2.2-0.4,4.4-0.3,6.6,0.3
	c1.3,0.4,2.4,1.3,3,2.5C71.7,20.7,71.7,21.1,72.1,21.3z M72.7,24.3c-0.6-0.7-1-1.6-1.3-2.4c-0.6-1.7-2-3-3.8-3.5
	c-1.9-0.5-3.9-0.4-5.8,0.1c-0.7,0.3-1.5,0-1.8-0.7c0-0.1-0.1-0.2-0.1-0.2c-2.1-4.8-6-7.6-10.9-9c-5.9-1.7-11.3-0.3-16.3,2.9
	c-2,1.2-3.6,3-4.7,5c-0.4,0.8-0.8,1-1.6,0.7c-3.1-1.1-6.4-1.5-9.7-1.3c-3.2,0-6.4,0.9-9.2,2.5c-2,1.1-3.3,2.8-2.8,5.3
	c0.2,1,0.6,1.9,1.1,2.7c0.6,1,0.9,2.3,0.7,3.4c-0.5,6.7-1,13.5-1.6,20.2c-0.1,1.4,0.3,3-0.8,4.2c-1.3,1.5-2.2,3.3-2.5,5.2
	c-0.8,3.7,0.9,7,4.1,7.9C9,68,12.5,68,16,67.3c5.8-1.1,11.5-2.9,16.9-5.1c1.6-0.6,2.3-0.3,2.9,1.3c1,2.6,2.2,5.2,3.7,7.6
	c0.9,1.6,2.7,2.5,4.5,2.1c2.5-0.4,5-0.8,7.5-1.2c4.6-0.8,9.2-1.3,13.8-1.8c4-0.4,8.1-0.6,12.2-0.8c5.5-0.3,11-0.6,16.5-0.7
	c5.2-0.1,10.4-0.1,15.5,0.1c5,0.2,9.9,0.4,14.9,0.6c2.6,0.1,5.3,0.3,7.9,0.6c4.7,0.5,9.4,0.9,14.1,1.5c4.2,0.5,8.4,1.1,12.5,1.8
	c2.7,0.5,5.6-0.6,6.5-3.2c0.3-1,0.8-1.9,1.3-2.8c0.4-1.2,1-2.4,1.8-3.4c0.5-0.5,1.1-1.1,1.9-0.7c3,1.1,6.1,1.9,9.3,2.3
	c4.4,0.7,8.8,1,13.2-0.4c4.9-1.6,9.7-6,8.4-12.4c-0.5-2.6-1.7-5-3.5-6.9c-2.4-2.7-5.3-5-8.6-6.6c-1.3-0.7-1.3-1-0.4-2.1
	c0.4-0.5,1-0.9,1.4-1.5c1.3-1.7,2.9-3.3,2.5-5.7c-0.4-3.4-2.2-6.6-5-8.7c-1.1-0.8-2.5-1.1-3.9-0.7c-1.5,0.5-3,0.5-4.5,0
	c-1.8-0.5-3.7-0.6-5.6-0.3c-1.8,0.2-3.5,1-5.2,1.4c-0.1-2.9-1-5.6-2.8-7.9c-1.7-1.9-3.9-3.3-6.4-4c-2.8-0.9-5.8-1.1-8.7-0.4
	c-4,0.9-7.3,3.8-8.7,7.6c-0.7,1.8-1.1,2-3,1.9c-4.6-0.2-9.1-0.5-13.7-0.7c-4.2-0.1-8.3-0.1-12.5-0.1c-3.9,0-7.7,0-11.6,0
	c-1.9-0.2-3.8-0.2-5.6,0.1c-0.9,0.2-1.8,0.6-1.9,1.6c-0.2,1.5-0.8,2.9-0.4,4.4c0.1,0.2,0,0.4-0.2,0.5s-0.3,0-0.4-0.2
	c-0.6-0.6-1.2-1.2-1.7-1.9c-2.1-2.8-4.6-4.6-8.4-4.3c-2,0.2-4.1,0.1-6.2,0.1c-0.7,0-1.3,0.1-2,0.3c-0.9,0.1-1.6,0.9-1.5,1.8
	c0,0,0,0,0,0C73,21.5,73.3,22.9,72.7,24.3L72.7,24.3z"/>
<path class="st0" d="M173.7,18.7c-2.4,0.4-3.1,0-4.1-2c-0.7-1.3-1.3-2.8-1.6-4.3c-0.7-3.7,1.2-5.8,3.9-7.2c1.7-0.8,3.4-1.3,5.2-1.7
	c1.4-0.3,2.8-0.8,3.1-2.6c0.1-0.4,0.5-0.6,0.8-0.3c0.5,0.6,1.2,0.6,1.7,1c2.5,2.1,2.3,7-0.4,8.8c-1.5,0.9-3.2,1.7-4.9,2.2
	c-1.2,0.4-2.4,1-3.6,1.5c-1.8,0.9-1.9,1.9-0.8,3.5C173.1,18,173.4,18.3,173.7,18.7z M180.8,1.4c-0.6,1.4-1.8,2.4-3.3,2.7
	c-1.8,0.3-3.6,0.9-5.4,1.7c-2.6,1.2-4.4,3.5-3.8,6.3c0.4,1.8,1.1,3.5,2,5.1c0.1,0.3,0.3,0.8,0.7,0.5s0-0.6-0.1-0.8
	c-0.9-1.7-0.7-2.8,0.9-3.8c0.8-0.5,1.7-0.9,2.6-1.2c2.1-0.6,4-1.4,5.9-2.5c1.3-0.9,2.4-2,2.2-3.6C182.4,4.1,181.8,2.6,180.8,1.4
	L180.8,1.4z"/>
<path class="st1" d="M72.7,24.3c0.6-1.4,0.3-2.8,0.3-4.2c-0.1-0.9,0.6-1.8,1.5-1.9c0,0,0,0,0,0c0.7-0.2,1.3-0.2,2-0.3
	c2.1,0,4.1,0.1,6.2-0.1c3.7-0.3,6.3,1.5,8.4,4.3c0.5,0.7,1.2,1.3,1.7,1.9c0.1,0.1,0.2,0.3,0.4,0.2s0.3-0.3,0.2-0.5
	c-0.4-1.5,0.2-3,0.4-4.4c0.2-1,1-1.4,1.9-1.6c1.9-0.2,3.8-0.3,5.6-0.1c3.9,0.1,7.7,0,11.6,0c4.2,0,8.3-0.1,12.5,0.1
	c4.6,0.1,9.1,0.5,13.7,0.7c1.9,0.1,2.3-0.2,3-1.9c1.4-3.8,4.7-6.7,8.7-7.6c2.9-0.6,5.9-0.5,8.7,0.4c2.5,0.7,4.7,2.1,6.4,4
	c1.8,2.2,2.8,5,2.8,7.9c1.8-0.3,3.4-1.2,5.2-1.4c1.9-0.3,3.8-0.2,5.6,0.3c1.5,0.5,3,0.5,4.5,0c1.3-0.4,2.8-0.1,3.9,0.7
	c2.8,2.1,4.6,5.2,5,8.7c0.4,2.4-1.2,4-2.5,5.7c-0.4,0.5-1,1-1.4,1.5c-1,1.1-1,1.4,0.4,2.1c3.3,1.6,6.2,3.9,8.6,6.6
	c1.8,2,2.9,4.4,3.5,6.9c1.3,6.4-3.5,10.9-8.4,12.4c-4.4,1.4-8.8,1.1-13.2,0.4c-3.2-0.4-6.3-1.2-9.3-2.3c-0.8-0.4-1.4,0.2-1.9,0.7
	c-0.8,1-1.4,2.2-1.8,3.4c-0.4,0.9-0.9,1.8-1.3,2.8c-0.9,2.5-3.8,3.6-6.5,3.2c-4.1-0.7-8.3-1.3-12.5-1.8c-4.7-0.6-9.4-1.1-14.1-1.5
	c-2.6-0.3-5.3-0.4-7.9-0.6c-5-0.2-9.9-0.4-14.9-0.6c-5.2-0.2-10.4-0.2-15.5-0.1c-5.5,0.1-11,0.4-16.5,0.7c-4.1,0.2-8.1,0.4-12.2,0.8
	c-4.6,0.5-9.3,1-13.8,1.8c-2.5,0.5-5,0.9-7.5,1.2c-1.8,0.4-3.6-0.4-4.5-2c-1.5-2.4-2.7-5-3.7-7.6c-0.6-1.6-1.3-1.9-2.9-1.3
	c-5.4,2.3-11.1,4-16.9,5.1c-3.4,0.7-7,0.7-10.4-0.2c-3.3-0.9-5-4.2-4.1-7.9c0.4-1.9,1.3-3.8,2.6-5.2c1.1-1.2,0.7-2.8,0.8-4.2
	c0.6-6.7,1.1-13.4,1.6-20.2c0.2-1.2-0.1-2.4-0.7-3.4c-0.6-0.8-1-1.7-1.1-2.7c-0.4-2.5,0.9-4.1,2.8-5.3c2.8-1.6,6-2.4,9.2-2.5
	c3.3-0.2,6.6,0.2,9.7,1.3c0.8,0.3,1.2,0.1,1.6-0.7c1.1-2,2.7-3.8,4.7-5c5-3.2,10.5-4.6,16.3-2.9c5,1.4,8.8,4.2,10.9,9
	c0.2,0.7,0.9,1.2,1.6,1c0.1,0,0.2,0,0.2-0.1c1.9-0.5,3.9-0.5,5.8-0.1c1.8,0.4,3.2,1.8,3.8,3.5C71.7,22.7,72.1,23.6,72.7,24.3z
	 M147.2,43.2L147.2,43.2l0.3,0.3c0.1,0.2,0.1,0.5,0,0.7c-0.6,0.3-1.2,0.5-1.8,0.6c-1.1,0.2-1.9,1.4-1.4,2.3c0.8,1.5,1.8,3,3.8,3.4
	c3.1,0.5,6.2,0.4,9.3,1.2c0.7,0.1,1.3,0.1,2,0c1.2-0.1,2-1.1,2-2.2c0-0.2,0-0.4-0.1-0.5c-0.4-1.2-1.2-2.3-2.3-2.9
	c-0.8-0.4-1.3-1.1-1.5-1.9c-0.3-1.1-0.6-2.1-0.9-3.2c-0.4-1.2-0.1-2.5,0.9-3.4c1.6-1.5,3.1-3,4.6-4.6c0.9-0.9,1.6-2,2.5-3.1
	c1.1,5.2,3.6,7.2,7.5,9.7c2.6,1.7,5.1,3.6,7.6,5.4c2.1,1.5,3.8,3.5,5.9,4.9c1.3,0.7,2.2,1.9,2.5,3.2v0.7c-0.9,2.9-2.6,3.9-5.6,2.9
	c-1.9-0.6-3.6-1.5-5.2-2.6c-0.9-0.6-1.6-1.5-2-2.5c-0.7-2-1.7-3.8-3-5.5c-0.8-1.4-2.4-2.1-4-2c-1.3,0.1-2,0.9-1.8,2.1
	c0.4,1.8,0.7,3.7,1.2,5.4c0.8,3,1.9,5.9,4.2,8.3c1.3,1.3,1.9,1.7,3.6,1.1c0.8-0.2,1.5-0.6,2.4-0.2c2.1,1.1,4.4,1.8,6.7,1.9
	c2.7,0.2,5.4,0.5,8-0.6c5.4-2.2,7.2-7.9,5-13.2c-0.2-0.7-0.7-1.2-1.4-1.4c-0.4-0.4-0.7-0.9-0.9-1.4c-1-2-2.8-3.3-4.6-4.6
	c-2.4-1.8-5.3-3-7.8-4.8c-2-1.5-4.5-2.3-6.4-4c-1.1-0.8-1.3-2.3-0.5-3.4c0.2-0.2,0.4-0.5,0.7-0.6c1.9-1.3,5.9-0.8,7.4,1
	c0.7,0.9,1.4,1.7,2.1,2.6c0.7,0.9,1.8,1.4,2.9,1.3c1.1-0.1,1.9-1,2-2.1c0-1.2-0.3-2.5-0.7-3.6c-0.5-1.3-0.9-2.7-2.3-3.3l-0.2-0.5
	c-0.2-0.7,0.3-1.9-1.2-1.4l0,0c-0.4-0.8-1.3-1.2-2.1-0.8c-0.1,0-0.2,0.1-0.3,0.2c-1.1,0.7-2.4,0.9-3.6,0.5c-1.1-0.3-2.3-0.5-3.5-0.7
	c-3.5-0.5-7,0.6-9.7,2.8c-0.2,0.2-0.5,0.4-0.4,0.7v0.1c-0.5-0.6-0.8-1.5-0.6-2.3c0.1-2.7-1.1-4.8-2.5-6.9c-0.2-0.3-0.4-0.7-0.9-0.6
	l0,0c0.1-0.4-0.1-0.5-0.4-0.6l-0.3-0.2c-0.7-2-2.6-2.6-4.3-3c-3-0.6-6-0.5-9,0.2c-2,0.5-3.6,2.1-4,4.2l0,0c-1.3,0.7-1.5,2-2.2,3.2
	c1.6-0.1,1.6,0,1.5,1.1c-0.1,0.9-0.7,0.8-1.3,0.8c-2.9-0.2-5.7-0.3-8.6-0.2c-1,0-2.1-0.3-2.9,0.6c-0.1,0.1-0.3,0.1-0.5,0
	c-1.4-0.9-3-0.8-4.6-0.9c-5.6-0.4-11.3-0.6-16.9-0.4c-1.5,0.2-3,0.1-4.6-0.1c-2.6-0.5-5.5-0.2-8.2-0.1c-0.8-0.1-1.5,0.4-1.6,1.2
	c-0.1,0.9-0.5,1.9,0.5,2.6v-0.1c0.3,1,1,1.9,2,2.4c0.4,0.1,0.7,0.5,0.7,0.9c0.2,1.9,0.3,3.8,0.2,5.8c0,0.3,0.1,0.7-0.3,0.8
	s-0.5-0.2-0.7-0.4c-0.6-0.6-1.3-1.2-1.9-1.8c-2.9-2.8-6.1-5.3-8.6-8.6c-0.8-1-1.8-1.7-3.1-1.9c-2.4-0.5-4.9-0.2-7.4-0.3
	c-0.6,0-1.1,0.2-1.6,0.6c-0.3,0.2-0.8,0.5-0.3,1c0.1,1-0.2,2,0.7,2.8c-0.1,0.6,0.2,1.2,0.8,1.5c0.3,0.1,0.5,0.4,0.6,0.8
	c0,1.2,0.3,2.4,0.2,3.7c-0.4,3.7-0.5,7.5-0.5,11.2c0.1,1.6-0.1,1.7-1.8,1.5c2-4.6,2-5.2-0.8-6.9l0,0c-0.2-1.2-1-1.1-1.8-1
	c-1.9,0.3-2.7,1.8-3.6,3.2c-0.2,0.3-0.2,0.8-0.7,0.8s-0.5-0.5-0.7-0.9c-0.8-1.8-1.5-3.7-2.3-5.6c-0.5-1.2-1.1-2.3-2.5-2.8
	c-0.3-0.1-0.4-0.4-0.4-0.6c-0.9-0.9-2.3-1-3.2-0.1c-0.3,0.3-0.5,0.6-0.6,0.9c-0.2,0.7-0.3,1.4-0.5,2.1c-0.1,0.3-0.1,0.6-0.4,0.5
	s-0.3-0.3-0.3-0.5c-0.1-1.4-0.2-2.7-0.3-4.1c0-0.5,0.1-0.9,0.7-1c1.5-0.4,3-0.5,4.6-0.5c1,0,2,0.4,2.6,1.2c1,1.4,2.3,2.4,3.8,3.2
	c1.3,0.5,2.7,0.2,3.7-0.8c0.8-1,0.2-1.8-0.2-2.7c-0.7-1.5-2.1-2.5-2.5-4.1c0-0.2-0.3-0.3-0.5-0.3c-0.6-0.2-1-0.7-1.2-1.3
	c-0.4-0.7-1.2-1.2-2-1.1v-0.1c0-0.8-0.5-1.1-1-0.7c-0.5,0.4-1.1,0.5-1.7,0.3c-1-0.2-2-0.2-3,0c-2,0.3-2.1,0.2-2.6-1.8
	c-0.3-1.3-0.8-2.5-1.6-3.6c-1.1-1.3-2.6-2.4-4.2-3.1c-4.4-2.1-9.4-2.3-13.9-0.5c-0.8,0.3-1.9,0.5-2.1,1.6l0,0
	c-0.2-0.2-0.5-0.2-0.7,0c-2,1.6-3.6,3.8-4.3,6.3c-0.9,2.9-0.3,5.8-0.7,8.7c0,1-0.8,1.9-1.8,2c-2,0.4-4,0.8-6,1.2c-0.8,0.2-1,0-1-0.8
	c0.1-1.4,0.3-2.8,0.2-4.2c-0.2-0.9,0.4-1.8,1.2-2c0.1,0,0.1,0,0.2,0c1-0.2,1.7-1.2,1.5-2.2c-0.1-0.3-0.2-0.6-0.5-0.9
	c-1.3-1.4-2.8-2.6-5-2.7c-1.8,0.1-3.7,0.3-5.4,0.8c-1.6,0.1-3.2,0.7-4.5,1.6c-1,0.7-1.3,2.2-0.5,3.2c0.2,0.3,0.6,0.6,0.9,0.8
	c0.7,0.2,1.1,0.8,0.9,1.5c0,0,0,0,0,0c-0.1,0.7-0.1,1.4-0.1,2.2c-0.1,2.4,0,4.9-0.2,7.3c-0.1,1.6-0.1,3.3-0.1,4.9v1
	c-0.5,0.7-0.2,1.6-0.3,2.4c-0.3,3.1-0.5,6.3-0.6,9.4c-0.1,1.7,0.5,3.8-2,4.5c-0.1,0-0.2,0.3-0.4,0.5l0,0c-0.9,0.4-1.4,1.4-1,2.4
	c0.1,0.2,0.3,0.5,0.4,0.6c1.4,1.3,3,2.3,5.2,1.8c2.1-0.7,4.2-1.3,6.3-1.7c1.5-0.1,3-0.4,4.4-0.9c0.9-0.2,1.5-0.9,1.6-1.8
	c0.2-1-0.3-1.9-1.2-2.3c-0.7-0.4-1.3-0.9-1.9-1.3c-0.4-0.2-0.6-0.7-0.6-1.2c0.1-2.2,0.2-4.4,0.4-6.6c0.1-2,0.3-3.9,0.5-5.9
	c0-0.4,0-0.9,0.6-1c2.6-0.4,5.1-1.2,7.7-1.4c0.7-0.1,1,0.2,1,0.9c0,3,0,6,0,9c0.1,0.6-0.3,1.1-0.8,1.3c-0.7,0.3-1.4,0.7-2,1.1
	c-1,0.5-1.4,1.7-0.8,2.7c0.1,0.2,0.2,0.3,0.3,0.5c1.5,1.3,3.1,2.2,5.3,1.6c2.5-0.7,5-1.1,7.6-1.7c1.1-0.3,2.3-0.5,3.4-0.8
	c0.8-0.2,1.7-0.5,1.7-1.5c0-0.8-0.5-1.6-1.2-2c-1.3-0.9-2.8-1.8-2.8-3.7c-0.1-3.9-0.2-7.8-0.3-11.7c0-1.2,0.1-2.4,0-3.6
	c-0.3-2.5,0-5,0.8-7.3c1.8-4.7,4.5-5.9,8.8-6.4c1.9-0.1,3.8,0.5,5.3,1.6c0.5,0.3,1.3,0.3,1.3,1.1s-1,0.1-1.3,0.6h-0.5
	c-0.5-0.1-0.9-0.2-1.4-0.2c-2.9,0.4-5.8,0.4-8.7,1c-1.8,0.3-3.2,1.9-3.1,3.8c0.3,1.7,1.8,2.9,3.5,2.9c0.7,0,1.2,0.1,1.1,1
	c0,0.5,0.2,0.9,0.2,1.4c0,4.2,0.4,8.5,0.3,12.7c0.1,0.8-0.3,1.6-1.1,1.9c-0.8,0.3-1.4,0.9-1.6,1.7c-0.1,1.6,0.7,3.2,2.1,3.9
	c0.7,0.3,1.5,1,2.4,0.6c1-0.4,2.1-0.5,3.1-0.5c1.1,0.1,2.2,0.1,3.3-0.1c1.8-0.4,3.6-0.6,5.4-0.6c3.1-0.3,6.2-0.5,9.3-0.8
	c1.3,0,2.5-0.6,3.3-1.6c0.8-1.1,1-1,1.7,0.1c0.4,0.7,1.1,1.1,1.9,1.1c2.7,0,5.3,0.1,8,0c1.3-0.1,2.7-1.1,2.4-2.5
	c-0.4-1.3-1.1-2.5-2.2-3.3c-0.3-0.3-0.7-0.6-0.7-1.1c0-2.8,0-5.7,0-8.5c0-0.3,0-0.7,0.4-0.8s0.5,0.2,0.7,0.4
	c2.5,2.4,5.1,4.7,7.6,7.1c2.9,2.9,6.3,5.2,9.4,7.7c0.3,0.3,0.7,0.5,1.1,0.6c0.9,0.5,1.9,0.1,2.4-0.7c0.1-0.2,0.2-0.5,0.2-0.8
	c0-0.6,0-1.2,0-1.8c-0.1-5.7-0.2-11.3-0.3-17c-0.2-1,0.4-2,1.3-2.5c1.2-0.4,2.6-0.2,3.6,0.6v0.7c0,0-0.1,0.1-0.1,0.1
	c0,0.1,0.1,0.1,0.1,0.2l0,0c0,5.2,0,10.3,0,15.5c-0.2,1.1-1,0.9-1.8,0.8c-1.2-0.2-1.5,0.4-1.6,1.4c0,0.5,0.1,1.1,0.3,1.6
	c0.7,0.8,1.1,1.9,2.4,1.9c3.3,0,6.7,0,10,0c1.3,0,1.9-0.9,1.6-2.2c-0.2-1.1-0.9-2.1-1.9-2.7c-1.5-0.9-1-2.1-1-3.3
	c0-0.5,0.3-0.9,0.3-1.4c0.1-1.9,0.1-1.9,1.9-1.9c0.3,0,0.6,0,0.9,0c0.8-0.1,1.7,0.3,2,1.1c0.5,1.1,1.3,2,2.1,2.8
	c0.3,0.1,0.4,0.4,0.4,0.7c0.3,0.9-0.3,1.2-1,1.5c-1.3,0.5-1.6,1.3-1,2.5c1.1,1.9,2.5,3.1,4.9,3.1c2.5-0.2,5,0,7.4,0.4
	c1,0.2,2,0.1,2.9-0.4c1-0.3,1.5-1.4,1.2-2.3c0-0.1-0.1-0.2-0.2-0.3c-0.8-1.2-1.4-2.6-2.9-3c-1.8-0.4-2.7-1.8-3.6-3.2
	c-0.6-0.9-1.3-1.9-2.1-2.8s-0.8-1.3,0.3-1.7c0.7-0.3,1.2-0.8,1.7-1.4c1.5-2,1.2-4.2,0.8-6.4c-0.1-0.3-0.4-0.6,0-0.9s0.7-0.1,1.1,0
	c0.8,0.4,1.6,1,2.1,1.8c3.4,3.2,6.9,6.5,9.4,10.6c0,1.1,0.5,2.2,0.2,3.3C147,43.1,147.1,43.2,147.2,43.2z M129.5,56.6
	c0.1,2.1,0,4.3-0.4,6.4c-0.8-1.9-1.6-3.6-2.2-5.4c-0.4-0.9-0.6-1.6-1.8-1.6s-2.1-0.1-2.7,1.3c-0.8,1.8-1.7,3.6-2.9,5.2
	c-0.1-1.6,0-3.2,0.2-4.8c0.1-0.6,0.4-1.4-0.3-1.8c-0.9-0.4-1.9-0.1-2.9-0.2c-0.6,0-0.7,0.6-0.9,0.9s-0.7,0.7-1.1,0.1
	c-0.8-1.4-2.1-1.1-3.4-1.2c-0.6-0.1-0.9,0.2-0.9,0.9c0,2.1-0.2,4.3-0.2,6.4c0,0.5-0.3,1.5,0.6,1.4s2.4,0.9,2.7-0.9
	c0.1-0.6,0.5-0.6,0.9-0.6s1.3-0.3,1.3,0.5s0.6,1,1.3,1c0.9,0,1.7,0,2.6,0c1.2-0.1,2.4,0.3,3.6-0.4c0.6-0.4,1.5-0.3,2,0.3
	c0.4,0.5,1.1,0.8,1.8,0.7c1.5,0,2.9,0,4.4,0c0.9,0.1,1.8-0.3,2.6-0.1c2.4,0.7,4.9,1.1,7.5,1.1c0.4,0,0.9-0.3,1.3-0.2
	c3.5,0.8,7.1,0.8,10.6,1.4c0.6,0.1,0.9-0.1,0.9-0.7c0.2-1,0.1-2-0.3-2.9c-0.3-0.3-0.2-0.8,0.1-1.1c0,0,0.1,0,0.1-0.1
	c0.7-0.2,1.4-0.2,2,0.1c0.6,0.3,0.4,0.8,0.3,1.2c-0.1,0.9-0.4,1.8-0.4,2.6c-0.1,1.9,1.6,1,2.4,1.4c0.6,0.3,1.3,0.4,1.4-0.6
	s0.4-2,0.4-3c0-0.8,0.4-1,1.1-0.9s1.3-0.1,1.3-1c0-0.4,0.1-0.8,0.2-1.1c0.1-0.8-0.1-1.1-1-1.2c-1.8-0.2-3.6-0.5-5.5-0.8
	c-5.3-0.8-10.7-1.3-16-1.8c-1.4-0.1-1.4,0.4-1.5,1.4c-0.1,1.8-0.3,3.6-0.7,5.3c-1.4-1.6-1.4-1.6-0.9-2.4c0.9-1.4,0.5-3.3-0.9-4.3
	c-0.4-0.2-0.8-0.4-1.2-0.5C133.2,56.6,131.4,56.5,129.5,56.6L129.5,56.6z M69.6,64.5c-0.5-0.5-1-1-1.5-1.4c-0.4-0.3-0.6-0.9-0.3-1.4
	c1-1.9-0.5-4.3-3.1-4.4c-1.2,0-2.3,0.2-3.4,0.2c-1.6,0.1-1.7,0.1-1.6,1.7s0.3,3.4,0.5,5.2c-0.3-0.2-0.4-0.2-0.4-0.3
	c-0.7-1.2-1.5-2.3-2.1-3.5c-1.3-2.3-2-2.7-4.1-2.1c-0.4,0.1-0.8,0.4-0.9,0.8c-0.8,2.4-1.6,4.7-2.3,7.1c-0.2,0.6-0.3,1,0.7,0.8
	c1.1-0.2,2.2,0,3.2-1c0.7-0.6,1.9,0.1,2.9,0.2c1.9,0,3.7-0.2,5.6-0.5c0.7-0.1,1.4,0.2,1.8-0.8c0.1-0.2,1.1,0.6,1.9,0.5
	c2.1-0.3,4.2-0.4,6.3-0.5c0.5,0,0.8-0.2,0.8-0.8s0.3-0.9,0.9-0.8s1.4-0.4,1.4,0.7c0,0.4,0.3,0.6,0.7,0.6c0.9-0.1,1.8-0.1,2.7-0.3
	c0.5-0.1,0.5-0.5,0.5-0.9c-0.1-2.1-0.2-4.2-0.3-6.3c0-0.4,0-0.9-0.5-1.1c-1.4-0.3-2.8,0.1-3.8,1.1c-0.5,0.8-0.9,0.6-1.2-0.1
	c-0.2-0.6-0.8-0.9-1.4-0.7c0,0,0,0,0,0c-0.6,0.1-1.2,0.2-1.8,0.1c-0.7,0-1,0.3-1,1c0.2,1.6,0.3,3.2,0.4,4.8
	C69.9,63.2,70.2,63.9,69.6,64.5L69.6,64.5z M91,55.8h-2.4c-0.4,0-0.8,0.2-0.8,0.7c0.3,2.3,0.1,4.5,0.2,6.8c0,0.4,0.1,0.8,0.6,0.8
	c1,0,2,0,3,0c0.4,0,0.6-0.7,1.1-0.4c1.4,0.9,3,0.2,4.5,0.4c0.5,0.1,0.8-0.7,1.5-0.3c1,0.5,2.1,0.6,3.2,0.3c1.9-0.3,3.9-2.6,2.1-4.6
	c-0.3-0.4-0.2-0.7,0-1.1c0.6-1.3,0.4-1.9-1-2.5c-0.8-0.3-1.6-0.5-2.4-0.5c-2.8-0.2-4.2,1.6-3.4,4.3c0.2,0.5,0.1,1.1-0.2,1.5
	c-0.3,0.3-0.5,0.8-1,0.3s-0.4-0.6-0.2-1.1c1-1.8,0.4-3.3-1.4-4.3C93.3,55.6,92.1,55.9,91,55.8L91,55.8z M43.2,60.8
	c0.3,2.2,0.7,4.5,1,6.8c0,0.4,0.3,0.7,0.7,0.6c0,0,0.1,0,0.1,0c0.8-0.1,1.6-0.3,2.4-0.4c0.6-0.1,0.8-0.4,0.7-1
	c-0.2-0.8,0.1-1.4,1-1.4c1.1,0,1.2-0.6,1-1.4c-0.1-0.5-0.4-1.1,0-1.6c0.9-1.1,0.2-2.1,0-3.1c0-0.2-0.3-0.3-0.5-0.3l-5.8,0.9
	C43.3,60,43.2,60.3,43.2,60.8L43.2,60.8z M87,58.5c0-2.3-0.2-2.5-2.2-2.5c-1.4,0-2.9,0.4-4.3,0.2c-0.7-0.1-0.5,0.4-0.5,0.8
	c0.1,2.3,0.2,4.5,0.3,6.8c0,0.6,0.3,0.8,0.9,0.7c1.6-0.2,3.2-0.3,4.7-0.2c1,0,1.4-0.3,1.4-1.4C87.3,61.4,86.2,59.9,87,58.5L87,58.5z
	"/>
<path class="st1" d="M180.8,1.4c1,1.2,1.6,2.7,1.7,4.3c0.2,1.6-1,2.8-2.2,3.6c-1.8,1.1-3.8,2-5.9,2.5c-0.9,0.3-1.7,0.7-2.6,1.2
	c-1.6,1-1.8,2.1-0.9,3.8c0.1,0.3,0.6,0.6,0.1,0.8s-0.6-0.2-0.7-0.5c-0.9-1.6-1.6-3.3-2-5.1c-0.6-2.8,1.2-5.1,3.8-6.3
	c1.7-0.8,3.5-1.3,5.4-1.7C179,3.8,180.2,2.8,180.8,1.4z"/>
<path class="st2" d="M147.4,44.2c0.1-0.2,0.1-0.5,0-0.7c0.1-0.2-0.1-0.3-0.3-0.3l0,0l-0.1-0.3c0.3-1.1-0.3-2.2-0.2-3.3
	c0.2-1.4-0.7-2.3-1.5-3.1c-3.1-3.8-6.6-7.4-10.2-10.7c-0.8-0.8-2-1.2-3.1-0.8c1,1.8,1.3,3.8,1,5.8c-0.5,2.2-2,3.4-4.2,4
	c1.5,2,2.9,3.9,4.3,5.8c1.1,1.5,2,3,4.1,3.5c1,0.1,1.7,1,1.6,2c0,0.2-0.1,0.5-0.2,0.7c-0.4,0.8-1.3,1.2-2.2,1
	c-3.2-0.4-6.5-0.3-9.7-0.6c-0.6,0-1.3-0.3-1.8-0.7c-1-1-0.9-1.9,0.4-2.5c0.5-0.2,1.1-0.4,1.7-0.6c-0.3-0.5-0.4-1.1-1-1.3
	c0.1-0.3-0.1-0.6-0.4-0.7c-0.3-1-0.8-1.9-1.5-2.7c-2-3.3-2.1-3.3-5.9-3.2H118c-0.7-0.1-0.9,0.3-1,1c0,1.6-0.1,3.2-0.2,4.8
	c-0.1,1.3-0.5,2.7,1.6,2.7c0.2,0,0.3,0.1,0.4,0.2c0.7,0.5,1,1.3,0.8,2.1c-0.2,0.9-1,0.8-1.7,0.8L107.3,47c-0.2-0.5-0.2-1.1-0.3-1.6
	c0-1,0.4-1.6,1.6-1.4c0.7,0.1,1.6,0.3,1.8-0.8c0.6-0.2,0.4-0.7,0.4-1.1c0-4.5,0-8.9-0.1-13.4c0-0.3,0.2-0.8-0.3-1l0,0l-0.1-0.3v-0.7
	c0.3-0.9-0.1-1.8-1-2.1c0,0-0.1,0-0.1,0c-3.2-1.1-5.4-0.5-5.3,3.1c0,0.8,0,1.5,0,2.3c0.2,5.1,0.3,10.2,0.2,15.3
	c0,0.6,0.3,1.3-0.4,1.6c-0.7,0.4-1.7,0.3-2.3-0.3c-2.4-2-5.1-3.6-7.4-5.8c-3.3-3.1-6.7-6.3-10-9.4c-0.4-0.4-0.8-1.1-1.4-0.9
	s-0.3,1.1-0.4,1.6c0,3.3,0,6.6-0.1,9.9c0,0.7,0.2,1,0.9,1.2c1.2,0.2,2.1,1.3,2,2.6c-0.2,1.3-1.3,1.3-2.3,1.4
	c-2.4,0.2-4.9,0.3-7.3,0.2c-1.5,0-2.2-0.7-2.2-2c0-1.5,1.2-1.4,2.1-1.3c1.3,0.1,1.6-0.6,1.6-1.6c0-1.1,0-2.1,0.1-3.2
	c0.2-2.2,0.3-4.4,0.4-6.5c0.2-1.6,0.2-3.1,0-4.7c0-0.6,0-1.1,0-1.7c-0.1-1.6-0.1-1.7-1.8-1.5c-0.9-0.8-0.7-1.8-0.7-2.8
	c0.5-0.8,1.4-1.2,2.3-1.1c1.8,0,3.5-0.1,5.3,0c1.7-0.1,3.3,0.7,4.4,2c3.3,4.2,7.4,7.5,11.3,11.1c0.2,0.2,0.5,0.4,0.8,0.3
	s0.3-0.5,0.3-0.8c0-0.3,0-0.6,0-0.9l0.1-0.1l-0.1-0.1v-1.1c0,0,0.1-0.1,0.1-0.1c0-0.1,0-0.1-0.1-0.2v-0.8L99.1,29
	c0-1.2-0.1-2.4-0.1-3.5c0-0.5-0.1-0.8-0.7-0.8c-0.9,0-1.7-0.3-2.4-0.8v0.1c0-0.2,0-0.3,0-0.5c-0.5-2.2-0.1-2.8,2.2-2.8s4.3,0,6.4,0
	c0.7-0.1,1.4,0.2,1.8,0.7c0.2,0.2,0.3,0.7,0.8,0.3c1.4-1.1,3.2-1,4.8-1c5.2,0.1,10.4,0.3,15.5,0.5c1.4,0.1,2.8,0.1,3.9,1.3
	c0.1,0.2,0.4,0.3,0.5,0c0.3-1,1.3-0.8,2-1.1c0.4,0.1,0.9,0.1,1.3,0c2.2,0.3,4.4,0.1,6.5,0.2c2,0.1,3.9,0.3,5.9,0.6
	c1.2,0.2,2,1.3,1.9,2.4c0,1.2-1,1.1-1.7,1.4c-0.2,0.1-0.5,0.2-0.8,0.2c-0.7,0-0.6,0.4-0.3,0.8c1.7,2.4,3.6,4.6,5.7,6.6
	c0.4,0.4,1.1,0.5,1.6,0.1c1.2-0.8,2.2-1.8,2.9-3l0,0c1.2-1,2.1-2.3,2.6-3.8c0.5-0.9,0.6-2,0.2-3l-0.2-1.6c-0.3-2.7-2.1-4.2-4.4-4.9
	c-3.2-1-6.3-0.4-9.4,0.8c-0.4,0.2-0.9,0.6-1.4,0.3l1-2.1l0,0c1.1-1.3,1.9-2.8,3.6-3.4c2.8-0.9,5.7-1.2,8.6-0.6
	c1.8,0.3,3.4,1.1,4.6,2.5c0.1,0.1,0.2,0.3,0.4,0.2l0.3,0.2c-0.1,0.4,0.2,0.5,0.4,0.6l0,0c0.1,0.2,0.2,0.4,0.3,0.6
	c2.1,3.2,2.2,7.3,0.3,10.6c-0.8,1.4-1.7,2.7-2.7,3.9c-1.5,1.7-3,3.3-4.7,4.7c-1.4,1-1.9,2.9-1.3,4.5c0.4,1.1,0.7,2.2,1,3.3
	c0.3,1.5,0.6,2.9,2.6,3.2c0.9,0.2,1.4,1,1.2,1.9c0,0,0,0.1,0,0.1c-0.2,0.9-1,1.5-1.9,1.4c-0.5,0.1-0.9,0.1-1.4,0
	c-3.3-0.9-6.7-0.7-10-1.3c-0.9-0.2-1.7-0.9-1.7-1.9c-0.1-1,0.7-1.1,1.4-1.4c0.3-0.1,0.7-0.2,1-0.2C147.5,45,147.5,44.6,147.4,44.2z
	 M126.8,27.6c0.3-0.8-0.4-1.2-0.8-1.5c-0.8-0.6-1.7-0.9-2.7-0.8c-1.7,0-3.4,0-5-0.1c-0.7,0-0.9,0.3-0.9,0.9c-0.1,1.5-0.1,3.1,0,4.6
	c0,0.4,0.1,0.7,0.7,0.7c2.1,0,4.3,0.2,6.4,0.2c1.3,0,2.4-1,2.4-2.4c0-0.2,0-0.3,0-0.5L126.8,27.6z"/>
<path class="st2" d="M9.4,42.2v-1c0.5-0.2,0.3-0.7,0.3-1c0-1.7,0.1-3.3,0.2-4.9c0.3-3.1,0.3-6.2,0.4-9.2c0-0.5,0-0.8-0.6-0.9
	c-0.2,0-0.4-0.1-0.6-0.2c-1.5-0.8-1.6-2.5-0.1-3.3c3-1.3,6.2-2.1,9.4-2.2c0.6,0,1.2,0.1,1.7,0.4c0.8,0.4,1.6,1,1.5,2
	c-0.1,0.9-0.9,1.7-1.8,1.6c-0.8,0.1-1,0.5-1,1.3c-0.1,2.3-0.2,4.6-0.3,6.9c-0.1,1,0.3,1.1,1.1,1c3-0.6,6-1.2,9.1-1.7
	c1-0.2,1.3-0.6,1.3-1.6c0-2,0.2-3.9,0.2-5.9c0-3.9,1.9-7.6,5-9.9l0,0c4.2-2.7,8.7-3,13.4-1.7c3.9,1,5.8,3.7,6.5,7.5
	c-1-0.6-1.9-1.1-2.8-1.5c-3.6-1.8-7.2-1.8-10.6,0.7c-3.1,2.3-4.2,5.7-4.3,9.3C37.3,34.6,37.9,41.3,38,48c0,1,0.2,1.5,1.3,1.5
	c0.5,0.1,0.9,0.2,1.3,0.4c0.8,0.3,1.3,1,1.3,1.8c-0.1,0.9-0.9,0.9-1.5,1.1c-3.6,1-7.4,1.4-11,2.5c-0.7,0.2-1.3,0.2-2,0
	c-0.6-0.1-1.1-0.5-1.3-1.1c-0.1-0.6,0.1-1.3,0.7-1.6c0.8-0.6,1.6-1,2.5-1.3c0.6-0.1,0.9-0.7,0.8-1.2c0-3.9,0-7.8,0-11.7
	c0-0.9-0.3-1-1.1-0.8c-3.2,0.7-6.5,1.3-9.7,2c-0.8,0.2-1.1,0.4-1.2,1.3c-0.2,4.3-0.5,8.6-0.8,12.8c-0.1,0.6-0.1,1.3,0,1.9
	c0.3,0.8,1.1,0.3,1.7,0.4c1,0.1,1.8,0.8,1.9,1.8c0.2,1.1-0.5,1.7-1.4,2c-0.7,0.3-1.4,0.4-2.1,0.6c-2.5,0.3-5,0.9-7.4,1.7
	c-0.9,0.4-1.9,0.5-2.9,0.4c-0.9,0-1.7-0.8-1.6-1.8c0-0.3,0.1-0.5,0.2-0.8c0.1-0.3,0.4-0.5,0.4-0.8l0,0c2.4-0.7,2.4-0.7,2.6-3.2
	c0-0.3,0-0.5,0.1-0.8C9.2,50.8,9.5,46.5,9.4,42.2z"/>
<path class="st2" d="M195.2,46.1c0.2,0.6,0.5,1.1,0.9,1.4c0.1,1.4,0.6,2.7,0.6,4.1c0.2,4.3-2.9,8.5-7.1,9s-8.4,0.4-12.3-1.6
	c-0.8-0.4-1.7-0.5-2.6-0.3c-2.4,0.7-3,0.5-4.3-1.7c-2.1-3.4-2.5-7.4-3.5-11.2c-0.2-0.9,0.3-1.4,1.3-1.5c1.4-0.2,2.8,0.5,3.5,1.8
	c0.7,1.2,1.3,2.5,1.8,3.8c0.3,1.1,0.9,2.1,1.7,3c2.1,2,4.6,3.4,7.4,4.2c0.9,0.2,1.8,0.3,2.7,0.1c2.2-0.3,3-1.3,2.8-3.6V53
	c0.2-0.8,0.1-1.7-0.5-2.4c-0.6-0.8-1.3-1.6-2.2-2.2c-5.4-4.5-11-8.7-16.8-12.6c-3.9-2.5-4.4-6.9-1.4-10.4v-0.1
	c1.1-0.7,2.2-1.5,3.4-2.1c3.3-1.6,6.6-1.2,10-0.5c1.1,0.4,2.3,0.4,3.4-0.1c0.8-0.7,2-0.7,2.9-0.1l0,0c0.3,0.6,0.7,1.1,1.2,1.4
	l0.2,0.5c0.4,1.6,1.2,3.2,1.4,4.9c0.2,1.1-0.5,2.1-1.5,2.3c-0.3,0.1-0.6,0-0.9,0c-1.1-0.3-2-1.1-2.4-2.1c-1.6-2.8-4.1-3.7-7.2-3.4
	c-1.5,0.1-2.8,0.6-3.4,2.1c-0.5,1.4-0.1,3,1,4c1.5,1.3,3.1,2.5,4.8,3.4c4.3,2.7,9,5,12.9,8.4C193.6,44.6,194.1,45.7,195.2,46.1z"/>
<path class="st2" d="M54.3,21.4h0.5c0.1,0.3,0.4,0.3,0.6,0.3c1.6-0.1,3.2-0.4,4.8-0.4c1.8,0,3.5-0.6,5.3,0v0.1
	c1.7,1.8,3.3,3.8,4.5,6c0.4,0.7,0.8,1.4,0,2.2c-1.1,0.9-2.7,1-3.8,0.1c-0.7-0.5-1.2-1.2-1.7-1.9c-0.8-1.4-2.4-2.2-4-2.1
	c-1.5,0.1-2.9,0.2-4.3,0.4c-1.2,0.1-1.5,0.7-1.4,1.7c0.1,1.8,0.2,3.7,0.4,5.5c0,0.6,0.1,1.2,0.9,1.3c0.8,0.2,1.6-0.2,1.9-0.9
	c0.2-0.6,0.4-1.1,0.4-1.7c0.3-1.8,0.7-2.1,2.5-2c0.4,0,0.8,0.1,1.1,0.1c0,0.3,0.1,0.5,0.4,0.6c0,0.2,0,0.4,0.1,0.6
	c1.2,2.1,1.8,4.4,2.8,6.6c0.2,0.4,0.5,0.8,0.2,1.3c-1,1.2-2.7,1.5-4,0.7c-0.7-0.5-1.2-1.2-1.7-1.9c-0.2-0.4-0.5-0.7-0.9-0.8
	c-1.3-0.5-2.7,0.1-3.3,1.4c-0.1,0.3-0.2,0.5-0.2,0.8c-0.1,0.6-0.1,1.2,0,1.8c0,3.6,1.3,4.6,4.8,3.7l0,0c1.2-0.1,2.6,0.2,3.7-0.7
	l1-0.3c1-0.1,1.6-0.9,2.2-1.5c1.1-1.3,2.1-2.7,3-4.2c1.2-1.7,2.3-2,4.1-1.1l0,0c0.2,1,0.6,2.1,0,3.1c-1,1.6-1.8,3.3-2.4,5.1
	c-0.7,1.9-2.5,3.2-4.5,3.2c-4.8,0.3-9.6,0.8-14.3,1.2c-2.3,0.2-4.7,0.4-7,0.6c-0.7,0.3-1.5-0.1-1.8-0.8c-0.4-0.7-0.2-1.6,0.3-2.2
	c0.4-0.5,1-0.9,1.7-1.2c0.7-0.2,0.8-0.6,0.8-1.2c0.1-4.8-0.5-9.6-0.5-14.4c0-2.6-0.8-3.3-3.5-3.3c-0.9,0-1.1-0.4-1.2-1.2
	c-0.1-1.5,1-2.8,2.4-3c2.3-0.5,4.7-0.8,7.1-0.9C52.3,21.9,53.3,21.7,54.3,21.4z"/>
<path class="st0" d="M65.4,21.2c-1.8-0.6-3.5,0-5.3,0c-1.6,0-3.2,0.3-4.8,0.4c-0.2,0-0.5,0.1-0.6-0.3c0.3-0.5,1.2,0.1,1.3-0.6
	s-0.8-0.8-1.3-1.1c-1.5-1.1-3.4-1.6-5.3-1.6c-4.3,0.5-7,1.7-8.8,6.4c-0.9,2.3-1.1,4.8-0.8,7.3c0.1,1.2,0,2.4,0,3.6
	c0.1,3.9,0.2,7.8,0.3,11.7c0.1,1.9,1.5,2.8,2.8,3.7c0.7,0.4,1.2,1.2,1.2,2c-0.1,1-0.9,1.3-1.7,1.5c-1.1,0.3-2.2,0.5-3.4,0.8
	c-2.5,0.6-5.1,1-7.6,1.7c-2.2,0.6-3.8-0.4-5.3-1.6c-0.8-0.8-0.8-2.1,0-2.8c0.1-0.1,0.3-0.3,0.5-0.3c0.6-0.4,1.3-0.8,2-1.1
	c0.5-0.2,0.9-0.7,0.8-1.3c0-3,0-6,0-9c0-0.8-0.3-1-1-0.9c-2.6,0.2-5.1,1-7.7,1.4c-0.6,0.1-0.5,0.6-0.6,1c-0.2,2-0.3,3.9-0.5,5.9
	c-0.2,2.2-0.3,4.4-0.4,6.6c-0.1,0.5,0.1,0.9,0.6,1.2c0.7,0.4,1.2,0.9,1.9,1.3c0.9,0.4,1.4,1.4,1.2,2.3c-0.1,0.9-0.7,1.6-1.6,1.8
	c-1.4,0.5-2.9,0.8-4.4,0.9c-2.1,0.4-4.3,1-6.3,1.7c-2.2,0.6-3.8-0.4-5.2-1.8c-0.7-0.7-0.8-1.8-0.1-2.6c0.2-0.2,0.4-0.3,0.6-0.4
	c0,0.3-0.3,0.5-0.4,0.8c-0.5,0.8-0.2,1.8,0.6,2.3c0.2,0.1,0.5,0.2,0.8,0.2c1,0.1,2,0,2.9-0.4c2.4-0.8,4.9-1.4,7.4-1.8
	c0.7-0.1,1.4-0.3,2.1-0.6c0.9-0.3,1.6-0.9,1.4-2c-0.2-1-1-1.7-1.9-1.8c-0.6-0.1-1.3,0.4-1.7-0.4c-0.1-0.6-0.1-1.3,0-1.9
	c0.3-4.3,0.6-8.6,0.8-12.8c0-0.9,0.4-1.2,1.2-1.3c3.2-0.6,6.5-1.3,9.7-2c0.8-0.2,1.1-0.1,1.1,0.8c0,3.9,0,7.8,0,11.7
	c0.1,0.6-0.3,1.1-0.8,1.2c-0.9,0.3-1.7,0.8-2.5,1.4c-0.5,0.3-0.8,1-0.7,1.6c0.2,0.6,0.6,1,1.3,1.2c0.7,0.2,1.3,0.2,2,0
	c3.6-1.1,7.4-1.5,11-2.5c0.6-0.2,1.5-0.2,1.6-1.1c0-0.8-0.5-1.5-1.3-1.8c-0.4-0.2-0.9-0.4-1.3-0.4C38.3,49.5,38,49,38,48
	c-0.1-6.7-0.6-13.4-0.5-20.2c0.1-3.7,1.2-7.1,4.3-9.3c3.3-2.4,6.9-2.5,10.6-0.7c0.9,0.5,1.8,1,2.8,1.5c-0.7-3.9-2.6-6.5-6.5-7.5
	c-4.7-1.3-9.2-1-13.4,1.7c0.2-1.1,1.3-1.3,2.1-1.6c4.5-1.8,9.5-1.6,13.9,0.4c1.6,0.7,3,1.8,4.2,3.1c0.8,1.1,1.3,2.3,1.6,3.6
	c0.5,2,0.6,2.1,2.6,1.8c1-0.2,2-0.2,3,0c0.6,0.2,1.2,0.1,1.7-0.3C64.9,20.2,65.5,20.4,65.4,21.2z"/>
<path class="st0" d="M54.3,21.4c-1,0.4-2,0.5-3.1,0.5c-2.4,0.1-4.8,0.4-7.1,0.9c-1.5,0.2-2.5,1.5-2.4,3c0,0.7,0.3,1.2,1.2,1.2
	c2.7,0,3.5,0.6,3.5,3.3c0,4.8,0.7,9.6,0.5,14.5c0,0.6-0.2,1-0.8,1.2c-0.6,0.3-1.2,0.7-1.6,1.2c-0.5,0.6-0.7,1.5-0.3,2.2
	c0.3,0.6,1,0.9,1.6,0.8c2.3-0.2,4.7-0.4,7-0.6c4.8-0.4,9.6-0.9,14.3-1.2c2,0,3.8-1.2,4.5-3.2c0.7-1.8,1.5-3.5,2.4-5.1
	c0.6-1,0.2-2.1,0-3.1c2.8,1.7,2.8,2.2,0.8,6.9c1.7,0.1,1.9,0,1.8-1.5c0-3.7,0.1-7.5,0.5-11.2c0.1-1.3-0.2-2.4-0.2-3.7
	c0-0.4-0.2-0.7-0.6-0.8c-0.6-0.3-0.9-0.9-0.8-1.5c1.7-0.2,1.8-0.1,1.8,1.5c0,0.6,0,1.1,0,1.7c0,1.6,0,3.1,0,4.7
	c-0.1,2.2-0.2,4.4-0.4,6.5c-0.1,1.1-0.1,2.1-0.1,3.2c0,1-0.3,1.8-1.6,1.6c-1-0.1-2.1-0.2-2.1,1.3c0,1.4,0.7,2,2.2,2
	c2.4,0.1,4.9,0,7.3-0.2c0.9-0.1,2.1-0.1,2.3-1.4c0.1-1.2-0.8-2.4-2-2.6c-0.8-0.1-1-0.4-0.9-1.2c0.1-3.3,0-6.6,0.1-9.9
	c0-0.6-0.3-1.4,0.4-1.6s1,0.5,1.4,0.9c3.3,3.1,6.7,6.3,10,9.4c2.3,2.1,5,3.8,7.4,5.8c0.6,0.5,1.5,0.6,2.3,0.3
	c0.7-0.3,0.4-1.1,0.4-1.6c0.1-5.1,0-10.2-0.2-15.3c0-0.8,0-1.5,0-2.3c-0.1-3.6,2.1-4.3,5.3-3.1c0.9,0.2,1.4,1.2,1.1,2
	c0,0,0,0.1,0,0.1c-1-0.8-2.3-1-3.6-0.6c-0.9,0.5-1.4,1.5-1.3,2.5c0.1,5.7,0.2,11.3,0.3,17c0,0.6,0,1.2,0,1.8c0,1-0.9,1.7-1.8,1.7
	c-0.3,0-0.5-0.1-0.8-0.2c-0.4-0.2-0.8-0.4-1.1-0.6c-3.2-2.5-6.6-4.8-9.4-7.7c-2.4-2.5-5-4.8-7.6-7.1c-0.2-0.2-0.4-0.5-0.7-0.4
	s-0.4,0.5-0.4,0.8c0,2.8,0,5.7,0,8.5c0,0.6,0.3,0.8,0.7,1.1c1.1,0.9,1.8,2,2.2,3.3c0.3,1.4-1.2,2.4-2.4,2.5c-2.7,0.1-5.3,0-8,0
	c-0.8,0-1.5-0.4-1.9-1.1c-0.7-1.2-1-1.2-1.7-0.1c-0.8,1-2,1.7-3.3,1.7c-3.1,0.3-6.2,0.5-9.3,0.8c-1.8,0-3.6,0.3-5.4,0.6
	c-1.1,0.2-2.2,0.2-3.3,0.1c-1.1-0.1-2.1,0.1-3.1,0.5c-0.9,0.4-1.7-0.2-2.4-0.6c-1.4-0.8-2.3-2.3-2.1-3.9c0.2-0.8,0.8-1.4,1.6-1.7
	c0.8-0.3,1.2-1.1,1.1-1.9c0.1-4.2-0.3-8.5-0.3-12.7c0-0.5-0.2-0.9-0.2-1.4c0-0.9-0.4-1-1.1-1c-1.7,0-3.2-1.2-3.5-2.9
	c-0.1-1.8,1.2-3.4,3-3.7c2.9-0.6,5.8-0.6,8.7-1C53.4,21.2,53.8,21.3,54.3,21.4z"/>
<path class="st0" d="M129.5,56.6c1.9-0.2,3.8-0.1,5.7,0.3c1.7,0.2,2.9,1.8,2.6,3.5c-0.1,0.4-0.2,0.9-0.5,1.2
	c-0.5,0.8-0.5,0.9,0.9,2.4c0.4-1.8,0.6-3.5,0.7-5.3c0.1-1,0.1-1.5,1.5-1.4c5.4,0.5,10.7,1,16,1.8c1.8,0.3,3.6,0.6,5.5,0.8
	c0.9,0.1,1.1,0.5,1,1.2c-0.1,0.4-0.2,0.7-0.2,1.1c0,1-0.5,1.2-1.3,1s-1.1,0-1.1,0.9c-0.1,1-0.3,2-0.4,3s-0.8,0.9-1.4,0.6
	c-0.9-0.4-2.5,0.5-2.4-1.4c0-0.9,0.3-1.8,0.4-2.6c0-0.4,0.3-1-0.3-1.2c-0.6-0.3-1.3-0.4-2-0.1c-0.4,0.2-0.5,0.6-0.3,1
	c0,0,0,0.1,0.1,0.1c0.4,0.9,0.5,1.9,0.3,2.9c0,0.6-0.4,0.9-0.9,0.7c-3.5-0.7-7.1-0.7-10.6-1.4c-0.4-0.1-0.9,0.2-1.3,0.2
	c-2.5,0-5-0.4-7.5-1.1c-0.8-0.2-1.7,0.2-2.6,0.1c-1.4-0.1-2.9,0-4.4,0c-0.7,0.1-1.4-0.2-1.8-0.7c-0.5-0.5-1.4-0.6-2-0.3
	c-1.2,0.7-2.4,0.4-3.6,0.4c-0.9,0.1-1.7,0-2.6,0c-0.7,0-1.3-0.1-1.3-1s-0.9-0.5-1.3-0.5s-0.8-0.1-0.9,0.6c-0.3,1.9-1.8,0.8-2.7,0.9
	s-0.6-0.9-0.6-1.4c0-2.1,0.2-4.3,0.2-6.4c0-0.7,0.3-0.9,0.9-0.9c1.2,0.1,2.6-0.2,3.4,1.2c0.3,0.6,0.7,0.4,1.1-0.1s0.3-0.9,0.9-0.9
	c1,0,2-0.2,2.9,0.2c0.7,0.3,0.4,1.2,0.3,1.8c-0.2,1.6-0.2,3.2-0.2,4.8c1.2-1.6,2.2-3.3,2.9-5.2c0.6-1.4,1.5-1.3,2.7-1.3
	s1.5,0.8,1.8,1.6c0.7,1.7,1.4,3.4,2.2,5.4C129.5,60.9,129.6,58.8,129.5,56.6z M116,61c0.2,2.6,0.2,2.6,1.9,2.6
	c0.6,0,0.9-0.1,0.9-0.8c0-1.8,0.1-3.7,0.1-5.5c0-0.3,0.1-0.6-0.3-0.8c-1.1-0.3-2.3,0-3,0.9c-0.9,1.3-0.9,1.3-1.7,0
	c-0.7-0.9-1.8-1.4-2.9-1.1c-0.3,0.1-0.4,0.3-0.4,0.6c-0.1,2-0.1,3.9-0.2,5.9c0,0.3,0,0.6,0.4,0.7c1.2,0.4,1.8,0,1.9-1.3
	c0-0.4-0.1-0.7,0.1-1.1C114.2,62.8,114.9,62.3,116,61z M137.8,64.7l-1.4-1.9c-0.2-0.3-0.5-0.6-0.1-1c0.9-0.6,1.1-1.8,0.6-2.8
	c-0.5-1-1.5-1.6-2.6-1.6c-1.1-0.1-2.1-0.1-3.2-0.3c-0.8-0.1-1,0.2-1,1c0,1.5-0.2,3-0.3,4.5c-0.1,1.7-0.1,1.6,1.5,1.8
	c0.8,0.1,1.2,0,1.2-1c-0.1-0.4,0.1-0.8,0.4-1C133.8,64.6,135.6,64.9,137.8,64.7L137.8,64.7z M146.7,65.7c-0.7-1.2-1.3-2.3-2-3.3
	c-0.4-0.4-0.4-1,0-1.3c0,0,0.1-0.1,0.1-0.1c0.7-0.7,1.3-1.5,2.1-2.5c-1.8,0-3.6-1-4.6,1.3c-0.1-0.2-0.1-0.4-0.1-0.6
	c0.3-1.5-0.8-1.1-1.6-1.3c-0.9-0.2-1.1,0.2-1.2,1.1c-0.1,1.7-0.3,3.3-0.5,5c-0.1,0.7,0.2,1.1,0.9,1s1.7,0.9,1.9-0.6
	c0-0.2-0.1-0.5,0.2-0.5s0.4,0.2,0.5,0.4c0.3,0.4,0.3,1.1,1.1,1.1C144.5,65.4,145.5,65.5,146.7,65.7L146.7,65.7z M128.8,64.2
	c-1-2.5-1.9-4.8-2.8-7c-0.3-0.7-2.4-0.7-2.8-0.1c-1.1,1.9-2.1,3.9-3.1,5.9c-0.1,0.2-0.3,0.6,0,0.6c0.6,0.1,1.4,0.4,2-0.1
	c0.9-0.8,2.2-0.9,3.1-0.2C126.3,64.4,127.5,63.8,128.8,64.2z M150.8,63.6c0.3,0,0.5,0,0.8,0c1.1,0.3,1.6,0,1.5-1.2
	c-0.1-0.5-0.1-0.9,0.7-1c0.7-0.1,0.4-1,0.5-1.5s-0.4-0.5-0.8-0.6c-1.4-0.2-2.9-0.4-4.3-0.6c-0.5-0.1-0.7,0-0.8,0.6
	c-0.2,1.9-0.4,3.8-0.7,5.7c-0.1,0.5,0,0.8,0.6,0.8c1.4,0.1,2.9,0.3,4.3,0.5c0.7,0.1,0.9-0.1,0.9-0.8s0.4-1.3-0.7-1.4
	C152.2,64.1,151.4,64.2,150.8,63.6L150.8,63.6z M160.6,62.5c0.1,0,0.2,0,0.3,0.1c1.1,0.4,1.1-0.4,1.3-1.1c0.2-0.9-0.2-1-0.9-1.1
	c-1.5-0.2-3-0.4-4.6-0.7c-0.7-0.1-1.3-0.3-1.5,0.8s0.3,1.3,1.1,1.3s0.9,0.4,0.8,1.2c-0.2,1-0.3,2-0.5,3s0.5,1,1,1s1.5,0.8,1.7-0.6
	c0.1-1.1,0.3-2.2,0.5-3.3C159.9,62.6,160.1,62.4,160.6,62.5L160.6,62.5z M147.6,59.4c-2.1,0.6-2.8,2.3-1.6,3.9
	c0.2,0.2,0.3,0.5,0.4,0.8c0,0.2,0.2,0.4,0.4,0.4c0.3,0,0.3-0.3,0.3-0.4C147.6,62.5,147.7,60.9,147.6,59.4L147.6,59.4z"/>
<path class="st0" d="M167.1,25.4c-2.9,3.5-2.5,7.9,1.4,10.4c5.8,3.9,11.5,8.1,16.8,12.6c0.8,0.6,1.6,1.3,2.2,2.2
	c0.6,0.7,0.8,1.6,0.5,2.4c-0.3-1.4-1.2-2.6-2.5-3.2c-2.2-1.4-3.9-3.3-5.9-4.9c-2.5-1.8-5-3.7-7.6-5.4c-3.9-2.4-6.4-4.5-7.5-9.7
	c-0.9,1.1-1.6,2.1-2.5,3.1c-1.5,1.6-3,3.1-4.6,4.6c-1,0.8-1.3,2.2-0.9,3.4c0.3,1.1,0.6,2.1,0.9,3.2c0.2,0.8,0.7,1.5,1.5,1.9
	c1.1,0.7,1.9,1.7,2.3,2.9c0.4,1.1-0.2,2.3-1.3,2.6c-0.2,0.1-0.3,0.1-0.5,0.1c-0.7,0.1-1.3,0.1-2,0c-3-0.8-6.2-0.7-9.3-1.2
	c-2-0.3-2.9-1.8-3.8-3.4c-0.5-0.9,0.3-2.1,1.4-2.3c0.6-0.2,1.2-0.4,1.7-0.7c0.1,0.4,0.1,0.8-0.4,0.9c-0.3,0-0.7,0.1-1,0.2
	c-0.7,0.2-1.5,0.4-1.4,1.4c0.1,1,0.8,1.7,1.7,1.9c3.3,0.6,6.8,0.4,10,1.3c0.5,0.1,0.9,0.1,1.4,0c0.9,0.1,1.7-0.5,1.9-1.4
	c0.2-0.8-0.3-1.7-1.1-2c0,0-0.1,0-0.1,0c-2-0.3-2.3-1.7-2.6-3.2c-0.3-1.1-0.6-2.2-1-3.3c-0.6-1.6-0.1-3.4,1.3-4.5
	c1.7-1.5,3.3-3,4.7-4.7c1-1.2,2-2.5,2.7-3.9c1.9-3.3,1.8-7.4-0.3-10.6c-0.1-0.2-0.2-0.4-0.3-0.6c0.5-0.1,0.7,0.3,0.9,0.6
	c1.4,2.1,2.6,4.3,2.5,6.9C166.2,24,166.5,24.8,167.1,25.4z"/>
<path class="st0" d="M188,53.8c0.3,2.2-0.6,3.3-2.8,3.6c-0.9,0.1-1.8,0.1-2.7-0.1c-2.8-0.7-5.3-2.2-7.4-4.2c-0.8-0.9-1.4-1.9-1.7-3
	c-0.5-1.3-1.1-2.6-1.8-3.8c-0.7-1.2-2.1-1.9-3.5-1.8c-1,0.1-1.5,0.6-1.3,1.5c1,3.8,1.4,7.8,3.5,11.2c1.3,2.2,1.9,2.4,4.3,1.7
	c0.9-0.3,1.8-0.2,2.6,0.3c3.9,2,8.1,2.1,12.3,1.6s7.4-4.7,7.1-9c-0.1-1.4-0.6-2.7-0.6-4.1c0.7,0.2,1.2,0.7,1.4,1.4
	c2.2,5.3,0.4,11-5,13.2c-2.6,1.1-5.3,0.7-8,0.6c-2.4-0.1-4.7-0.8-6.7-1.9c-0.8-0.5-1.6-0.1-2.4,0.2c-1.8,0.5-2.4,0.1-3.6-1.1
	c-2.3-2.3-3.3-5.3-4.2-8.3c-0.5-1.8-0.9-3.6-1.2-5.4c-0.2-1.2,0.5-2,1.8-2.1c1.6-0.1,3.2,0.6,4,2c1.3,1.6,2.3,3.5,3,5.5
	c0.4,1,1.1,1.9,2,2.5c1.6,1.1,3.4,2,5.2,2.6C185.4,57.6,187.2,56.7,188,53.8z"/>
<path class="st0" d="M145.1,16.2l-1,2.1c0.6,0.3,1-0.1,1.4-0.3c3.1-1.2,6.2-1.8,9.4-0.8c2.4,0.8,4.2,2.2,4.4,4.9
	c-0.1-0.1-0.4-0.2-0.4-0.3c-0.2-1.6-1.4-2.2-2.7-2.6c-3.6-1.2-7.1-0.5-10.5,1c-0.3,0.2-1,0.2-0.9,0.7s0.7,0.6,1.1,0.5
	c1.6-0.1,3.1,0.8,3.9,2.2c1.3,1.9,1,3-1,4c-0.5,0.2-0.9,0.5-0.5,1c1.3,1.4,2.3,3.1,4,4.2c0.5,0.4,1.2,0.4,1.6-0.1
	c0.9-0.7,1.4-1.9,2.7-2.3c-0.7,1.2-1.7,2.2-2.9,3c-0.5,0.4-1.1,0.4-1.6-0.1c-2.1-2-4.1-4.2-5.7-6.6c-0.3-0.4-0.4-0.8,0.3-0.8
	c0.3,0,0.5-0.1,0.8-0.2c0.7-0.3,1.7-0.2,1.7-1.4c0-1.1-0.8-2.1-1.9-2.3c-1.9-0.3-3.9-0.4-5.9-0.6c-2.2-0.1-4.4,0-6.5-0.2
	c-0.4-0.1-0.9-0.1-1.3,0c-0.7,0.3-1.6,0.1-2,1.1c-0.1,0.3-0.4,0.1-0.5,0c-1-1.2-2.5-1.2-3.9-1.3c-5.2-0.2-10.4-0.4-15.5-0.5
	c-1.6,0-3.4-0.1-4.8,1c-0.5,0.4-0.6-0.1-0.8-0.3c-0.4-0.5-1.1-0.8-1.8-0.7c-2.1,0-4.3,0-6.4,0s-2.7,0.6-2.2,2.8c0,0.2,0,0.3,0,0.5
	c-1-0.7-0.6-1.7-0.5-2.6c0.1-0.8,0.8-1.3,1.6-1.2c2.7-0.1,5.6-0.4,8.2,0.1c1.5,0.2,3,0.2,4.6,0.1c5.6-0.2,11.3,0,16.9,0.4
	c1.6,0.1,3.2,0.1,4.6,0.9c0.1,0.1,0.3,0.1,0.5,0c0.8-0.9,1.9-0.6,2.9-0.6c2.9-0.1,5.7,0.1,8.6,0.2c0.6,0,1.1,0.2,1.3-0.8
	c0.2-1.2,0.2-1.3-1.5-1.1C143.6,18.3,143.8,16.9,145.1,16.2z"/>
<path class="st0" d="M126.1,42.1c0.6,0.2,0.8,0.8,1,1.3c-0.6,0.2-1.2,0.4-1.7,0.6c-1.3,0.6-1.4,1.5-0.4,2.5c0.5,0.4,1.1,0.7,1.8,0.7
	c3.2,0.3,6.5,0.2,9.7,0.6c0.9,0.2,1.8-0.2,2.2-1c0.5-0.9,0.2-2-0.7-2.4c-0.2-0.1-0.4-0.2-0.7-0.2c-2.1-0.4-3-2-4.1-3.5
	c-1.4-1.9-2.8-3.8-4.3-5.8c2.2-0.6,3.7-1.7,4.2-4c0.3-2,0-4.1-1-5.8c1.1-0.3,2.3,0,3.1,0.8c3.7,3.3,7.1,6.9,10.3,10.7
	c0.7,0.9,1.7,1.8,1.5,3.1c-2.5-4.1-5.9-7.4-9.4-10.6c-0.6-0.7-1.3-1.4-2.1-1.8c-0.4-0.1-0.7-0.3-1.1,0s0,0.6,0,0.9
	c0.5,2.2,0.7,4.4-0.8,6.4c-0.4,0.6-1,1.1-1.7,1.4c-1.1,0.5-0.9,1-0.3,1.7s1.4,1.8,2.1,2.8c0.9,1.4,1.8,2.7,3.6,3.2
	c1.5,0.4,2.1,1.9,2.9,3c0.5,0.9,0.2,2-0.7,2.5c-0.1,0.1-0.2,0.1-0.3,0.2c-0.9,0.5-1.9,0.6-2.9,0.4c-2.4-0.4-4.9-0.6-7.4-0.4
	c-2.4,0-3.8-1.3-4.9-3.1c-0.7-1.1-0.3-2,1-2.5C125.7,43.3,126.4,43.1,126.1,42.1z"/>
<path class="st0" d="M69.6,64.5c0.5-0.6,0.3-1.3,0.2-1.9c-0.1-1.6-0.3-3.2-0.4-4.8c-0.1-0.7,0.2-1,1-1c0.6,0,1.2,0,1.8-0.1
	c0.6-0.2,1.2,0.1,1.4,0.7c0,0,0,0,0,0c0.3,0.7,0.7,0.9,1.2,0.1c0.9-1,2.4-1.5,3.8-1.1c0.5,0.2,0.5,0.7,0.5,1.1
	c0.2,2.1,0.2,4.2,0.3,6.3c0,0.4,0.1,0.8-0.5,0.9c-0.9,0.1-1.8,0.2-2.7,0.3c-0.4,0-0.7-0.1-0.7-0.6c-0.1-1.1-0.9-0.6-1.4-0.7
	s-0.9,0.1-0.9,0.8s-0.3,0.7-0.8,0.8c-2.1,0.1-4.2,0.3-6.3,0.5c-0.8,0.1-1.8-0.7-1.9-0.5c-0.4,1-1.2,0.7-1.8,0.8
	c-1.8,0.4-3.7,0.5-5.6,0.5c-1-0.1-2.3-0.8-2.9-0.2c-1,1-2.1,0.7-3.2,1c-0.9,0.2-0.8-0.2-0.7-0.8c0.8-2.4,1.6-4.7,2.3-7.1
	c0.1-0.4,0.5-0.7,0.9-0.8c2.2-0.6,2.8-0.3,4.1,2.1c0.7,1.2,1.4,2.3,2.1,3.5c0.1,0.1,0.2,0.1,0.4,0.3c-0.2-1.8-0.4-3.5-0.5-5.2
	s0-1.6,1.6-1.7c1.2-0.1,2.3-0.3,3.4-0.2c2.6,0,4.1,2.5,3.1,4.4c-0.3,0.5-0.2,1,0.3,1.4C68.6,63.6,69.1,64,69.6,64.5z M76,61.6
	c0.4,2.7,0.4,2.7,2.2,2.5c0.7,0,0.9-0.3,0.8-0.9c-0.1-1.4-0.2-2.9-0.3-4.4c-0.2-2.1-0.3-2.1-2.4-1.8c-0.8,0.2-0.9,0.9-1.2,1.4
	c-0.4,0.7-0.8,1.1-1.3,0.1c-0.6-1.2-1.6-1.3-2.8-1.2c-0.7,0.1-0.9,0.3-0.8,0.9c0.2,1.8,0.3,3.6,0.4,5.4c0,0.6,0.2,0.9,0.9,0.9
	c1,0,1.7-0.1,1.2-1.4c-0.1-0.3-0.1-0.6,0.1-0.8c0.1-0.1,0.3-0.1,0.5,0C74.3,63.8,75.1,62.9,76,61.6z M68.9,64.6
	c-0.6-0.6-1.2-1.1-1.7-1.6c-0.3-0.3-0.5-0.5-0.2-1.1c1.2-2,0-4-2.4-4c-1.2,0-2.5,0.2-3.7,0.3c-0.6,0-0.7,0.3-0.7,0.8
	c0.2,1.9,0.4,3.8,0.6,5.6c0,0.4,0.1,0.6,0.6,0.7c1.7,0.2,2.2-0.2,2.1-1.9c0-0.1,0.1-0.1,0.2-0.5C64.9,65.2,66.7,65.2,68.9,64.6
	L68.9,64.6z M50.8,66.7c0.9-0.2,1.8,0,2.3-0.5c0.7-0.9,2-1.2,3.1-0.7c0.9,0.3,1.9,0.4,2.8,0.2c0.6,0,0.9-0.2,0.4-0.8
	c-1.1-1.8-2.3-3.5-3.3-5.3C55.7,58.7,55,59,54.4,59s-1.2,0.1-1.4,0.9C52.4,62.1,51.6,64.3,50.8,66.7L50.8,66.7z"/>
<path class="st0" d="M35.3,13.5c-3.1,2.3-5,6-5,9.9c0,2-0.2,3.9-0.2,5.9c0,1-0.3,1.4-1.3,1.6c-3,0.5-6,1.1-9.1,1.7
	c-0.9,0.2-1.2,0.1-1.1-1c0.2-2.3,0.3-4.6,0.3-6.9c0-0.8,0.3-1.2,1-1.3c1,0,1.8-0.7,1.8-1.6c0.1-1-0.7-1.6-1.5-2
	c-0.5-0.3-1.1-0.4-1.7-0.4c-3.3,0.1-6.5,0.8-9.4,2.2c-1.5,0.8-1.4,2.5,0.1,3.3c0.2,0.1,0.4,0.2,0.6,0.2c0.6,0.1,0.6,0.3,0.6,0.9
	c-0.2,3.1-0.2,6.2-0.4,9.2c-0.2,1.7-0.2,3.3-0.2,4.9c0,0.4,0.2,0.8-0.3,1c-0.1-1.6,0-3.3,0.1-4.9c0.3-2.4,0.1-4.9,0.2-7.3
	c0-0.7,0-1.4,0.1-2.2c0.2-0.7-0.2-1.4-0.9-1.5c0,0,0,0,0,0c-1.2-0.5-1.7-1.9-1.2-3c0.2-0.4,0.4-0.7,0.8-0.9c1.4-0.9,2.9-1.5,4.5-1.6
	c1.8-0.4,3.6-0.7,5.4-0.8c2.2,0,3.6,1.3,5,2.7c0.7,0.8,0.7,2-0.1,2.7c-0.3,0.2-0.6,0.4-0.9,0.5c-0.9,0.1-1.6,0.9-1.4,1.8
	c0,0.1,0,0.1,0,0.2c0,1.4-0.1,2.8-0.2,4.2c0,0.8,0.2,1,1,0.8c2-0.4,4-0.8,6-1.2c1-0.1,1.8-1,1.8-2c0.4-2.9-0.2-5.8,0.7-8.7
	c0.8-2.5,2.3-4.7,4.3-6.3C34.9,13.4,35.1,13.4,35.3,13.5z"/>
<path class="st0" d="M62,30c-0.4,0-0.8-0.1-1.1-0.1c-1.8-0.1-2.2,0.2-2.5,2c-0.1,0.6-0.2,1.2-0.4,1.7c-0.3,0.7-1.1,1.1-1.9,0.9
	c-0.8-0.1-0.8-0.7-0.9-1.3c-0.1-1.8-0.2-3.7-0.4-5.5c-0.1-1,0.2-1.7,1.4-1.7c1.4-0.2,2.9-0.3,4.3-0.4c1.6-0.1,3.2,0.7,4,2.1
	c0.4,0.7,1,1.4,1.7,1.9c1.1,0.8,2.7,0.8,3.8-0.1c0.8-0.7,0.4-1.4,0-2.2c-1.3-2.2-2.8-4.2-4.5-6c0.8-0.1,1.6,0.4,2,1.1
	c0.2,0.6,0.7,1.1,1.3,1.3c0.2,0.1,0.5,0.2,0.5,0.3c0.4,1.7,1.8,2.7,2.5,4.1c0.4,0.9,1,1.8,0.2,2.7c-0.9,1-2.4,1.3-3.7,0.8
	c-1.5-0.7-2.8-1.8-3.8-3.2c-0.6-0.8-1.6-1.3-2.6-1.2c-1.5,0-3.1,0.1-4.6,0.5c-0.6,0.1-0.7,0.5-0.7,1c0.1,1.4,0.2,2.7,0.3,4.1
	c0,0.2,0.1,0.5,0.3,0.5s0.4-0.3,0.4-0.5c0.2-0.7,0.3-1.4,0.5-2.1c0.4-1.2,1.8-1.8,2.9-1.3C61.4,29.5,61.7,29.7,62,30z"/>
<path class="st0" d="M195.2,46.1c-1.1-0.4-1.6-1.4-2.4-2.2c-3.9-3.4-8.6-5.7-12.9-8.4c-1.7-0.9-3.4-2.1-4.8-3.4c-1.1-1-1.5-2.6-1-4
	c0.6-1.6,1.9-2,3.4-2.1c3.1-0.3,5.6,0.6,7.2,3.4c0.4,1,1.3,1.8,2.4,2.1c1,0.3,2.1-0.3,2.4-1.4c0.1-0.3,0.1-0.6,0-0.9
	c-0.2-1.7-1-3.2-1.4-4.9c1.4,0.7,1.8,2.1,2.3,3.3c0.4,1.2,0.6,2.4,0.7,3.6c-0.1,1.1-0.9,2-2,2.1c-1.1,0.1-2.2-0.4-2.9-1.3
	c-0.7-0.8-1.4-1.7-2.1-2.6c-1.5-1.8-5.5-2.3-7.4-1c-1.1,0.7-1.5,2.2-0.8,3.4c0.2,0.3,0.4,0.5,0.6,0.7c1.9,1.7,4.3,2.5,6.4,4
	c2.5,1.8,5.4,3,7.8,4.8C192.4,42.8,194.2,44.1,195.2,46.1z"/>
<path class="st0" d="M60.2,44.8c-3.6,0.9-4.8,0-4.8-3.7c0-0.6,0-1.2,0.2-1.8c0.1-1.4,1.2-2.5,2.6-2.4c0.3,0,0.6,0.1,0.8,0.2
	c0.4,0.1,0.7,0.4,0.9,0.8c0.4,0.8,1,1.4,1.7,1.9c1.3,0.8,3,0.5,4-0.7c0.3-0.5,0-0.9-0.2-1.3c-1-2.2-1.7-4.5-2.8-6.6
	c-0.1-0.2-0.1-0.4-0.1-0.6c1.4,0.4,1.9,1.6,2.5,2.8c0.8,1.8,1.6,3.7,2.3,5.6c0.1,0.3,0.2,0.8,0.7,0.9s0.5-0.5,0.7-0.8
	c0.9-1.4,1.8-2.9,3.6-3.2c0.8-0.1,1.7-0.2,1.8,1c-1.8-0.9-3-0.6-4.1,1.1c-0.9,1.5-1.9,2.9-3,4.2c-0.6,0.6-1.2,1.4-2.2,1.5
	c0.1-0.2,0.2-0.3,0.3-0.5s0.8-0.4,0.5-0.9s-0.6-0.1-0.9-0.1c-0.6,0-1.2,0.1-1.7-0.4c-0.9-0.8-1.9-1.6-2.8-2.5
	c-0.6-0.6-1.6-0.6-2.3,0c-0.1,0.1-0.2,0.3-0.3,0.5c-0.4,1.4-0.5,2.8-0.1,4.2c0.1,0.3,0,0.7,0.5,0.6C58.8,44.6,59.5,45.1,60.2,44.8z"
	/>
<path class="st0" d="M107.3,47.1l10.8,0.1c0.7,0,1.5,0.1,1.7-0.8c0.2-0.8-0.1-1.7-0.8-2.1c-0.1-0.1-0.3-0.2-0.4-0.2
	c-2.1,0-1.7-1.4-1.6-2.7c0.1-1.6,0.2-3.2,0.2-4.8c0-0.7,0.2-1.1,1-1h0.3c3.8-0.1,3.9-0.1,5.9,3.2c0.7,0.8,1.2,1.7,1.5,2.7
	c-0.9-0.8-1.6-1.7-2.1-2.8c-0.3-0.8-1.2-1.2-2-1.1c-0.3,0-0.6,0-0.9,0c-1.8,0-1.8,0-1.9,1.9c0,0.5-0.3,0.9-0.3,1.4
	c0,1.2-0.5,2.4,1,3.3c0.9,0.6,1.6,1.6,1.9,2.7c0.3,1.3-0.3,2.1-1.6,2.2c-3.3,0-6.7,0-10,0C108.4,48.9,108,47.8,107.3,47.1z"/>
<path class="st0" d="M91,55.9c1.1,0,2.3-0.2,3.4,0.3c1.8,1,2.3,2.5,1.4,4.3c-0.3,0.5-0.2,0.8,0.2,1.1s0.8,0,1-0.3
	c0.4-0.4,0.5-1,0.2-1.5c-0.8-2.7,0.6-4.5,3.4-4.3c0.8,0.1,1.6,0.2,2.4,0.5c1.4,0.6,1.6,1.2,1,2.5c-0.2,0.4-0.3,0.7,0,1.1
	c1.8,2.1-0.2,4.4-2.1,4.6c-1.1,0.3-2.2,0.2-3.2-0.3c-0.7-0.4-1,0.3-1.5,0.3c-1.5-0.2-3.1,0.5-4.5-0.4c-0.5-0.3-0.7,0.4-1.1,0.4
	c-1,0-2,0-3,0c-0.5,0-0.6-0.4-0.6-0.8c-0.1-2.3,0.1-4.5-0.2-6.8c-0.1-0.5,0.3-0.7,0.8-0.7L91,55.9z M96.6,63.2
	c-0.6-0.7-1.1-1.2-1.6-1.7c-0.3-0.3-0.4-0.5-0.1-1c1.7-2-0.1-4.2-2.2-4.2c-1.1,0-2.2,0.1-3.3,0c-0.8,0-1.1,0.2-1,1
	c0.1,1.6,0.2,3.3,0.1,4.9c0,1.1,0.4,1.3,1.4,1.3s1.6-0.3,1.4-1.4c0-0.2-0.2-0.5,0.4-0.7C92.6,63.6,94.4,63.7,96.6,63.2L96.6,63.2z
	 M100.9,61.4c-0.7,0.4-1.5,0.2-2.1-0.3c-0.7-0.5-0.9,0-1.2,0.4s-0.2,0.8,0.2,1.1c1.2,1,2.9,1.3,4.5,0.8c1-0.2,1.7-1,1.8-2
	c0-0.9-0.5-1.7-1.3-2.1c-0.4-0.3-0.9-0.5-1.4-0.8c0.4-0.5,0.8-0.2,1.1-0.1c0.7,0.4,0.8-0.2,1.1-0.6s0.1-0.7-0.3-1
	c-1.2-0.8-2.6-1-3.9-0.7c-0.9,0.2-1.6,0.9-1.8,1.8c-0.2,0.9,0.3,1.9,1.1,2.3C99.3,60.6,100,60.9,100.9,61.4L100.9,61.4z"/>
<path class="st0" d="M99.2,31.6v1.1h-0.1c0,0,0,0.1,0.1,0.1c0,0.3,0,0.6,0,0.9c0,0.3,0.1,0.7-0.3,0.8s-0.5-0.1-0.8-0.3
	c-3.9-3.6-8-6.9-11.3-11.1c-1.1-1.3-2.7-2.1-4.4-2c-1.8,0-3.5,0-5.3,0c-0.9-0.1-1.8,0.4-2.3,1.1c-0.4-0.5,0-0.8,0.3-1
	c0.4-0.3,1-0.5,1.6-0.6c2.5,0.1,5-0.3,7.4,0.3c1.2,0.2,2.3,0.9,3.1,1.9c2.5,3.3,5.6,5.8,8.6,8.6c0.6,0.6,1.3,1.2,1.9,1.8
	c0.2,0.2,0.4,0.5,0.7,0.4s0.3-0.5,0.3-0.8c0.1-1.9,0-3.8-0.2-5.8c0-0.4-0.3-0.8-0.7-0.9c-1-0.5-1.7-1.3-2-2.4
	c0.7,0.5,1.6,0.8,2.4,0.8c0.6,0,0.7,0.3,0.7,0.8c0,1.2,0.1,2.4,0.1,3.5l0.1,1.6v0.8c0,0-0.1,0.1-0.1,0.1
	C99.1,31.5,99.1,31.6,99.2,31.6z"/>
<path class="st0" d="M43.2,60.8c-0.1-0.5,0.1-0.8,0.6-0.9l5.8-0.9c0.2,0,0.5,0,0.5,0.3c0.2,1,0.9,2.1,0,3.1c-0.4,0.5-0.1,1.1,0,1.6
	c0.2,0.8,0.1,1.4-1,1.4c-0.9,0-1.2,0.6-1,1.4c0.2,0.6-0.1,0.9-0.7,1c-0.8,0.1-1.6,0.3-2.4,0.4c-0.4,0.1-0.7-0.1-0.8-0.5
	c0,0,0-0.1,0-0.1C43.9,65.3,43.6,63,43.2,60.8z M47.9,63c-0.5,0-0.9,0.2-0.9-0.3s0.4-0.4,0.6-0.4c0.5-0.1,1.1-0.2,1.6-0.3
	c0.9-0.1,0.7-0.7,0.6-1.2s-0.1-1.1-1-1c-1.4,0.3-2.8,0.5-4.2,0.6c-0.7,0.1-0.8,0.4-0.7,1c0.3,1.7,0.6,3.5,0.8,5.2
	c0.1,1.3,0.9,0.8,1.5,0.8s1.6,0,1.2-1.2c-0.3-0.8,0-1.3,0.8-1.2c1.2,0.1,1.3-0.6,1.1-1.5C49.1,62.2,48.3,63.1,47.9,63z"/>
<path class="st0" d="M87,58.5c-0.8,1.4,0.3,2.9,0.3,4.4c0,1.1-0.3,1.4-1.4,1.4c-1.6-0.1-3.2,0-4.7,0.2c-0.6,0.1-0.9-0.1-0.9-0.7
	C80.1,61.5,80,59.3,80,57c0-0.3-0.1-0.9,0.5-0.8c1.4,0.2,2.9-0.3,4.3-0.2C86.8,56.1,87,56.2,87,58.5z M83.2,58.9
	c0.8-0.1,1.6-0.2,2.4-0.2c0.9,0,0.8-0.4,0.8-1s0.1-1.2-0.9-1.1c-1.4,0.1-2.8,0.2-4.2,0.2c-0.6,0-0.8,0.2-0.8,0.8
	c0.1,1.9,0.2,3.8,0.3,5.6c0,0.5,0.2,0.7,0.7,0.7c1.5-0.1,3.1-0.1,4.6-0.2c0.4,0,0.6-0.2,0.6-0.6c0.1-1.4,0-1.6-1.5-1.6
	c-0.3,0-0.7,0.1-1.2-0.2c0.7-0.4,2.1,0.1,1.7-1.5S84.1,59.8,83.2,58.9z"/>
<path class="st0" d="M162.4,14.9c-0.2,0.1-0.3-0.1-0.4-0.2c-1.2-1.4-2.9-2.2-4.7-2.5c-2.9-0.5-5.8-0.3-8.6,0.6
	c-1.7,0.6-2.5,2.1-3.6,3.4c0.4-2.1,2-3.7,4-4.2c3-0.7,6-0.7,9-0.2C159.8,12.3,161.6,12.9,162.4,14.9z"/>
<path class="st0" d="M186.7,22.5c-0.9-0.6-2.1-0.5-2.9,0.1c-1.1,0.5-2.3,0.5-3.4,0.1c-3.4-0.7-6.7-1.1-10,0.5
	c-1.2,0.6-2.2,1.4-3.4,2.1c-0.1-0.4,0.1-0.6,0.4-0.7c2.7-2.3,6.2-3.3,9.7-2.9c1.2,0.2,2.3,0.4,3.5,0.7c1.2,0.4,2.6,0.2,3.6-0.5
	c0.7-0.5,1.7-0.4,2.2,0.4C186.6,22.3,186.7,22.4,186.7,22.5z"/>
<path class="st0" d="M9.4,42.2c0.1,4.3-0.2,8.6-0.6,12.9c0,0.3,0,0.5-0.1,0.8c-0.2,2.4-0.2,2.4-2.6,3.2c0.1-0.2,0.2-0.5,0.4-0.5
	c2.5-0.7,1.9-2.8,2-4.5c0.2-3.1,0.4-6.3,0.6-9.4C9.2,43.8,9,42.9,9.4,42.2z"/>
<path class="st0" d="M110.4,27.8c0.5,0.2,0.3,0.7,0.3,1c0,4.5,0.1,8.9,0.1,13.4c0,0.4,0.2,0.9-0.4,1.1
	C110.4,38.1,110.4,32.9,110.4,27.8z"/>
<path class="st0" d="M187.9,23.9c-0.5-0.4-0.9-0.9-1.2-1.4C188.2,22.1,187.7,23.3,187.9,23.9z"/>
<path class="st0" d="M163.1,15.7c-0.2-0.1-0.6-0.2-0.4-0.6C163,15.2,163.2,15.3,163.1,15.7z"/>
<path class="st0" d="M147.2,43.2c0.2,0,0.3,0.1,0.3,0.3L147.2,43.2z"/>
<path class="st0" d="M147.1,43l0.1,0.3C147.1,43.2,147,43.1,147.1,43z"/>
<path class="st0" d="M110.3,27.5l0.1,0.3C110.3,27.7,110.3,27.7,110.3,27.5C110.2,27.6,110.3,27.6,110.3,27.5z"/>
<path class="st1" d="M156.7,30.6c-1.2,0.3-1.7,1.6-2.7,2.3c-0.4,0.5-1.1,0.5-1.6,0.1c-1.6-1.1-2.6-2.8-4-4.2c-0.5-0.5,0-0.8,0.5-1
	c2.1-1,2.3-2.1,1-4c-0.8-1.4-2.3-2.3-3.9-2.2c-0.4,0-1-0.1-1.1-0.5s0.5-0.6,0.9-0.7c3.4-1.5,6.8-2.2,10.5-1c1.3,0.4,2.5,1,2.7,2.6
	c0,0.1,0.2,0.2,0.4,0.3c0,0.5,0.1,1.1,0.1,1.6c-0.1,1.7-0.6,3.3-1.6,4.7c-0.4,0.7-1.1,1.3-1.2,2.2L156.7,30.6z"/>
<path class="st1" d="M126.8,27.6v1.2c-0.4,1.7-2.1,2.8-3.8,2.4c0,0-0.1,0-0.1,0c-0.4,0-0.8,0-1.1,0c-3.3-0.1-2.9,0.4-2.9-3.2
	c0-0.7,0.3-0.9,0.9-0.9C122.1,27.1,124.5,26.8,126.8,27.6z"/>
<path class="st0" d="M126.8,27.6c-2.3-0.8-4.6-0.5-7-0.6c-0.6,0-0.9,0.3-0.9,0.9c0,3.6-0.4,3.1,2.9,3.2c0.4,0,0.8,0,1.1,0
	c1.7,0.5,3.5-0.6,3.9-2.3c0,0,0-0.1,0-0.1c0.2,1.3-0.6,2.5-1.9,2.8c-0.2,0-0.3,0-0.5,0c-2.1,0-4.3-0.1-6.4-0.2
	c-0.5,0-0.6-0.3-0.7-0.7c-0.1-1.5-0.1-3.1,0-4.6c0-0.6,0.2-0.9,0.9-0.9c1.7,0.1,3.3,0,5,0.1c1,0,1.9,0.3,2.7,0.8
	C126.4,26.4,127.1,26.8,126.8,27.6z"/>
<path class="st0" d="M156.7,30.6c0.1-0.9,0.8-1.5,1.2-2.2c1-1.4,1.6-3,1.6-4.7c0.4,1,0.3,2.1-0.2,3
	C158.8,28.3,157.9,29.6,156.7,30.6z"/>
<path class="st1" d="M77.5,32.8c0-1.6,0-3.1,0-4.7C77.7,29.7,77.7,31.3,77.5,32.8z"/>
<path class="st1" d="M99.1,30.5L99.1,29L99.1,30.5z"/>
<path class="st1" d="M133.6,21.4c0.4-0.1,0.9-0.1,1.3,0C134.5,21.5,134.1,21.5,133.6,21.4z"/>
<path class="st1" d="M99.2,31.6c0,0-0.1-0.1-0.1-0.2c0,0,0,0,0.1-0.1C99.2,31.4,99.2,31.5,99.2,31.6C99.2,31.5,99.2,31.6,99.2,31.6z
	"/>
<path class="st1" d="M99.2,32.9c0,0,0-0.1-0.1-0.1h0.1V32.9L99.2,32.9z"/>
<path class="st1" d="M60.2,44.8c-0.7,0.3-1.4-0.2-2.1-0.1c-0.5,0.1-0.4-0.3-0.5-0.6c-0.4-1.4-0.3-2.8,0.1-4.2
	c0.4-0.8,1.3-1.2,2.1-0.8c0.2,0.1,0.3,0.2,0.5,0.3c0.9,0.8,1.9,1.6,2.8,2.5c0.5,0.5,1.1,0.3,1.7,0.4c0.3,0,0.7-0.3,0.9,0.1
	s-0.4,0.6-0.5,0.9s-0.2,0.4-0.3,0.5l-1,0.3c-1.2-0.3-2.3,0.4-3.5,0.4C60.2,44.4,60.2,44.7,60.2,44.8L60.2,44.8z"/>
<path class="st0" d="M60.2,44.8c0-0.1,0.1-0.3,0.2-0.3c1.2,0,2.3-0.7,3.5-0.4C62.7,44.9,61.4,44.6,60.2,44.8z"/>
<path class="st2" d="M116,61c-1,1.3-1.8,1.8-3.2,0c-0.3,0.4-0.1,0.8-0.1,1.1c-0.1,1.3-0.6,1.7-1.9,1.3c-0.4-0.1-0.4-0.4-0.4-0.7
	c0.1-2,0.1-3.9,0.2-5.9c0-0.3,0-0.5,0.4-0.6c1.1-0.3,2.3,0.2,2.9,1.1c0.8,1.2,0.8,1.2,1.7,0c0.7-0.9,1.9-1.2,3-0.9
	c0.4,0.2,0.3,0.4,0.3,0.8c0,1.8-0.1,3.7-0.1,5.5c0,0.7-0.3,0.9-0.9,0.8C116.2,63.6,116.2,63.6,116,61z"/>
<path class="st2" d="M137.8,64.7c-2.2,0.2-4,0-4.8-2.3c-0.4,0.2-0.6,0.6-0.4,1c0.1,0.9-0.4,1-1.2,1c-1.6-0.1-1.6-0.1-1.5-1.8
	c0.1-1.5,0.2-3,0.3-4.5c0-0.8,0.2-1.1,1-1c1.1,0.1,2.1,0.1,3.2,0.3c1.1,0,2.1,0.7,2.6,1.7c0.5,1,0.2,2.1-0.6,2.8
	c-0.5,0.4-0.2,0.7,0.1,1L137.8,64.7z M134.3,59.9c-0.2-0.5-0.7-0.5-1.2-0.5c-0.6,0-0.4,0.5-0.4,0.7s0.1,0.7,0.6,0.4
	C133.7,60.4,134.2,60.5,134.3,59.9L134.3,59.9z"/>
<path class="st2" d="M146.7,65.7c-1.2-0.1-2.2-0.3-3.2-0.3c-0.8,0-0.8-0.6-1.1-1.1c-0.1-0.2-0.2-0.5-0.5-0.4s-0.2,0.3-0.2,0.5
	c-0.2,1.4-1.3,0.5-1.9,0.6s-0.9-0.3-0.9-1c0.2-1.7,0.4-3.3,0.5-5c0.1-0.9,0.3-1.3,1.2-1.1c0.7,0.2,1.9-0.2,1.6,1.3
	c0,0.2,0,0.4,0.1,0.6c1-2.4,2.7-1.3,4.6-1.3c-0.8,1-1.4,1.8-2.1,2.5c-0.4,0.3-0.5,0.9-0.2,1.3c0,0,0.1,0.1,0.1,0.1
	C145.4,63.4,146,64.5,146.7,65.7z"/>
<path class="st2" d="M128.8,64.2c-1.3-0.4-2.5,0.2-3.7-0.9c-1-0.7-2.3-0.6-3.1,0.2c-0.5,0.5-1.3,0.2-2,0.1c-0.3,0-0.1-0.4,0-0.6
	c1-2,2.1-3.9,3.1-5.9c0.4-0.6,2.5-0.6,2.8,0.1C126.9,59.5,127.8,61.7,128.8,64.2z"/>
<path class="st2" d="M150.8,63.6c0.6,0.6,1.4,0.5,2.1,0.6c1.1,0.1,0.6,0.9,0.7,1.4s-0.2,0.9-0.9,0.8c-1.4-0.2-2.9-0.4-4.3-0.5
	c-0.6-0.1-0.7-0.3-0.6-0.8c0.3-1.9,0.5-3.8,0.7-5.7c0.1-0.5,0.3-0.6,0.8-0.6c1.4,0.2,2.9,0.4,4.3,0.6c0.3,0,0.9,0,0.8,0.6
	s0.2,1.4-0.5,1.5c-0.8,0.1-0.8,0.5-0.7,1c0.1,1.2-0.3,1.5-1.5,1.2C151.3,63.6,151.1,63.6,150.8,63.6z"/>
<path class="st2" d="M160.6,62.5c-0.5-0.1-0.8,0.1-0.8,0.7c-0.1,1.1-0.3,2.2-0.5,3.3c-0.2,1.4-1.1,0.5-1.7,0.6s-1.3,0-1-1
	s0.3-2,0.5-3c0.2-0.7,0.1-1.1-0.8-1.2s-1.3-0.2-1.1-1.3s0.8-1,1.5-0.8c1.5,0.2,3,0.5,4.6,0.7c0.7,0.1,1.1,0.2,0.9,1.1
	c-0.2,0.7-0.1,1.5-1.3,1.1C160.9,62.6,160.8,62.5,160.6,62.5z"/>
<path class="st1" d="M147.6,59.4c0.1,1.6,0,3.1-0.4,4.6c0,0.2,0,0.5-0.3,0.4c-0.2,0-0.4-0.2-0.4-0.4c-0.1-0.3-0.2-0.6-0.4-0.8
	C144.8,61.7,145.5,60,147.6,59.4z"/>
<path class="st2" d="M76,61.6c-0.8,1.4-1.6,2.2-2.8,0.8c-0.1-0.1-0.3-0.1-0.5,0c-0.2,0.2-0.2,0.6-0.1,0.8c0.6,1.3-0.2,1.4-1.2,1.4
	c-0.7,0-0.9-0.2-0.9-0.9c-0.1-1.8-0.2-3.6-0.4-5.4c-0.1-0.7,0.2-0.9,0.8-0.9c1.2-0.1,2.2-0.1,2.8,1.2c0.5,0.9,0.8,0.6,1.3-0.1
	c0.3-0.5,0.4-1.2,1.2-1.4c2-0.4,2.2-0.3,2.4,1.8c0.1,1.4,0.2,2.9,0.3,4.4c0.1,0.7-0.1,0.9-0.8,0.9C76.4,64.2,76.4,64.3,76,61.6z"/>
<path class="st2" d="M68.9,64.6c-2.2,0.5-4,0.6-5.2-1.6c-0.2,0.4-0.2,0.4-0.2,0.5c0,1.7-0.4,2.1-2.1,1.9c-0.5-0.1-0.5-0.3-0.6-0.7
	c-0.2-1.9-0.3-3.8-0.6-5.6c-0.1-0.5,0.1-0.8,0.7-0.8c1.2-0.1,2.5-0.3,3.7-0.3c2.4,0,3.6,2,2.4,4c-0.3,0.5-0.2,0.7,0.2,1.1
	C67.7,63.5,68.3,64,68.9,64.6z M63.8,60c-0.6,0-0.8,0.3-0.7,0.7s0,0.8,0.6,0.7c0.4-0.1,0.9-0.2,0.8-0.8S64.2,60,63.8,60L63.8,60z"/>
<path class="st2" d="M50.8,66.7c0.8-2.4,1.5-4.6,2.2-6.8c0.2-0.8,0.8-0.8,1.4-0.9s1.2-0.3,1.7,0.5c1,1.8,2.2,3.6,3.3,5.3
	c0.4,0.7,0.2,0.8-0.4,0.8c-0.9,0.2-1.9,0.1-2.8-0.2c-1.1-0.5-2.4-0.2-3.1,0.7C52.7,66.8,51.8,66.5,50.8,66.7z"/>
<path class="st2" d="M96.6,63.2c-2.2,0.4-4,0.4-4.9-1.7c-0.6,0.1-0.4,0.5-0.4,0.7c0.2,1.1-0.3,1.4-1.4,1.4s-1.4-0.2-1.4-1.3
	c0.1-1.6,0-3.3-0.1-4.9c0-0.8,0.3-1.1,1-1c1.1,0,2.2,0,3.3,0c2,0,3.9,2.2,2.2,4.2c-0.4,0.4-0.2,0.6,0.1,1C95.6,62,96,62.6,96.6,63.2
	z M91.9,59.7c0.4-0.1,0.9-0.2,0.9-0.8s-0.5-0.6-0.9-0.7s-0.6,0.3-0.6,0.7S91.3,59.8,91.9,59.7L91.9,59.7z"/>
<path class="st2" d="M100.9,61.4c-0.9-0.4-1.6-0.7-2.2-1.1c-0.9-0.4-1.3-1.3-1.1-2.3c0.2-0.9,0.9-1.6,1.8-1.8
	c1.3-0.3,2.8-0.1,3.9,0.7c0.4,0.3,0.7,0.5,0.3,1s-0.4,1-1.1,0.6c-0.3-0.2-0.7-0.4-1.1,0.1c0.5,0.3,1,0.5,1.4,0.8
	c0.8,0.4,1.4,1.2,1.3,2.2c-0.1,1-0.8,1.8-1.8,2c-1.5,0.6-3.2,0.3-4.5-0.8c-0.4-0.3-0.7-0.6-0.2-1.1s0.6-0.8,1.2-0.4
	C99.3,61.6,100.2,61.7,100.9,61.4z"/>
<path class="st2" d="M47.9,63c0.4,0.2,1.2-0.8,1.5,0.5c0.2,1,0.2,1.6-1.1,1.5c-0.9,0-1.1,0.4-0.8,1.2c0.4,1.2-0.5,1.1-1.2,1.2
	s-1.4,0.5-1.5-0.8c-0.2-1.8-0.5-3.5-0.8-5.2c-0.1-0.6,0-0.9,0.7-1c1.4-0.1,2.8-0.4,4.2-0.6c0.9-0.2,0.9,0.4,1,1s0.3,1.1-0.6,1.2
	c-0.6,0.1-1.1,0.1-1.6,0.3c-0.3,0.1-0.7,0-0.6,0.4S47.4,63,47.9,63z"/>
<path class="st2" d="M83.2,58.9c0.9,0.9,2.1-0.4,2.5,1s-1,1-1.7,1.5c0.4,0.4,0.8,0.2,1.2,0.2c1.5,0,1.6,0.1,1.5,1.6
	c0,0.4-0.2,0.6-0.6,0.6c-1.5,0.1-3.1,0.1-4.6,0.2c-0.5,0-0.7-0.2-0.7-0.7c-0.1-1.9-0.1-3.8-0.3-5.6c0-0.6,0.2-0.8,0.8-0.8
	c1.4,0,2.8-0.1,4.2-0.2c1-0.1,0.8,0.5,0.9,1.1s0.1,1.1-0.8,1C84.8,58.7,84,58.8,83.2,58.9z"/>
<path class="st0" d="M134.3,59.9c-0.1,0.6-0.6,0.5-0.9,0.7c-0.5,0.2-0.6-0.1-0.6-0.4s-0.2-0.7,0.4-0.7
	C133.6,59.4,134.1,59.4,134.3,59.9z"/>
<path class="st0" d="M63.8,60c0.3,0,0.8,0.1,0.8,0.7s-0.4,0.7-0.8,0.8c-0.6,0.1-0.6-0.3-0.6-0.7S63.2,60,63.8,60z"/>
<path class="st0" d="M91.9,59.7c-0.6,0.1-0.6-0.3-0.6-0.7s0-0.8,0.6-0.7s0.9,0.1,0.9,0.7S92.3,59.6,91.9,59.7z"/>
<text transform="matrix(1 0 0 1 190.7773 18.8515)" class="st0 st3 st4">TM</text>
<path class="st0" d="M194.4,44.8c0,0,2.9,3.1,3.4,5l-1.4-0.2c-0.7-1.6-1.5-3.1-2.5-4.5L194.4,44.8z"/>
<path class="st0" d="M187.8,52.3c0.3,0.6,0.3,1.4,0.1,2l0.2,0.8c0.2-1.1,0.2-2.2,0.1-3.4L187.8,52.3z"/>
</svg>
