<?xml version="1.0" encoding="utf-8"?>
<!-- Generator: Adobe Illustrator 21.1.0, SVG Export Plug-In . SVG Version: 6.00 Build 0)  -->
<svg version="1.1" id="Layer_1" xmlns="http://www.w3.org/2000/svg" xmlns:xlink="http://www.w3.org/1999/xlink" x="0px" y="0px"
	 viewBox="0 0 181 108.4" style="enable-background:new 0 0 181 108.4;" xml:space="preserve">
<style type="text/css">
	.st0{fill:#FFFFFF;}
	.st1{fill:#018A5E;}
</style>
<title>CR</title>
<path class="st0" d="M91.8,107.9h-2.6c0-2.1,0-4.1,0-6.2c0-0.3-0.2-0.3-0.4-0.3c-2.6,0-5.2-0.1-7.8-0.2c-2.9-0.1-5.7-0.3-8.6-0.4
	c-2.6-0.2-5.2-0.4-7.8-0.7c-2.7-0.3-5.4-0.6-8.2-1c-3.3-0.5-6.6-0.9-9.8-1.5c-4.2-0.8-8.3-1.6-12.4-2.5c-5.4-1.2-10.8-2.6-16-4.3
	c-2.1-0.6-4.1-1.4-6-2.5c-1.8-1-3.1-2.7-3.5-4.7c-0.3-1.7-0.4-3.4-0.4-5.1c0-16.3,0-32.6,0-48.8c0-1.5,0.1-2.9,0.3-4.4
	c0.2-2.2,1.4-4.1,3.3-5.2c1.9-1.1,4-2,6.1-2.6c4.7-1.5,9.5-2.7,14.3-3.9c5.5-1.3,11.1-2.4,16.8-3.2c3.5-0.5,7-1,10.5-1.4
	c2.8-0.3,5.7-0.6,8.6-0.8C70.5,8.1,73,8,75.4,7.9c3.4-0.1,6.8-0.2,10.2-0.3c1.1,0,2.2,0,3.3,0c0.3,0,0.4-0.1,0.4-0.3
	c0-2.3,0-4.5,0-6.8h2.6c0,2.3,0,4.5,0,6.8c0,0.3,0.1,0.3,0.4,0.3c1.6,0,3.1,0,4.7,0.1c1.9,0,3.8,0.1,5.8,0.2
	c2.9,0.1,5.9,0.3,8.8,0.4c2.7,0.2,5.3,0.4,8,0.7c2.9,0.3,5.7,0.6,8.6,1c3.4,0.5,6.8,1,10.1,1.6c5,0.9,10,2,14.9,3.2
	c3.9,1,7.9,2,11.7,3.4c1.7,0.5,3.3,1.3,4.8,2.2c1.5,1,2.6,2.5,2.9,4.3c0.3,1.6,0.4,3.3,0.4,5c0,16.3,0,32.7,0,49
	c0,1.5-0.1,2.9-0.3,4.4c-0.2,2.1-1.3,3.9-3.1,5c-0.7,0.5-1.5,0.9-2.3,1.3c-2.6,1.1-5.2,2-7.9,2.7c-6,1.7-12.1,3.2-18.3,4.4
	c-3.1,0.6-6.3,1.2-9.4,1.7c-2.8,0.5-5.6,0.9-8.4,1.3c-2,0.3-4,0.5-6,0.7s-4,0.4-6.1,0.6s-4,0.3-6.1,0.4c-2.8,0.1-5.5,0.2-8.3,0.3
	c-1.5,0-3,0-4.5,0c-0.2,0-0.4,0-0.4,0.3C91.8,103.8,91.8,105.8,91.8,107.9z M163.2,34.8h-0.4c-8.7,0-17.4,0-26.1,0
	c-1,0-1.9,0.1-2.9,0.2c-1.7,0.2-3,1.4-3.4,3c-0.4,1.5-0.5,3-0.5,4.5c0,3.3,0,6.7,0,10.1c0,1.3,0.1,2.5,0.4,3.7
	c0.2,1.4,1.3,2.4,2.7,2.5c0.7,0.1,1.4,0.1,2.1,0.1h19.2c0,1.5,0,2.9,0,4.3c0,0.6,0,0.6-0.6,0.6h-23.3h-0.5v9.7h0.4
	c8.9,0,17.9,0,26.8,0c1,0,2-0.1,3-0.2c1.8-0.1,3.2-1.4,3.6-3.1c0.3-1.1,0.4-2.2,0.4-3.3c0.1-3.6,0.1-7.3,0-10.9
	c0-1.2-0.1-2.5-0.4-3.7c-0.2-1.7-1.6-2.9-3.3-2.9c-1-0.1-1.9-0.1-2.9-0.1c-5.8,0-11.7,0-17.5,0c-0.3,0-0.4-0.1-0.4-0.4
	c0-1.3,0-2.6,0-3.9c0-0.5,0-0.5,0.5-0.5h23L163.2,34.8z M116.8,59c0,0.2,0,0.4,0,0.5c0,1.3,0,2.5,0,3.8c0,0.6,0,0.6-0.6,0.6H92.9
	c-0.5,0-0.5,0-0.5,0.5c0,2.9,0,5.8,0,8.7c0,0.5,0,0.5,0.5,0.5c8.9,0,17.8,0,26.7,0c1,0,2-0.1,3-0.2c1.8-0.1,3.3-1.5,3.6-3.3
	c0.3-1.4,0.4-2.9,0.4-4.3c0-3.5,0-7.1,0-10.6c0-1.2-0.2-2.4-0.6-3.5c-0.4-1.2-1.4-2-2.6-2.1c-1-0.1-2.1-0.2-3.1-0.2
	c-5.9,0-11.8,0-17.7,0h-0.5v-4.8h23.5v-9.7h-0.4c-8.7,0-17.4,0-26.1,0c-1,0-1.9,0.1-2.9,0.2c-1.7,0.1-3.1,1.4-3.4,3.1
	c-0.2,1-0.4,2.1-0.4,3.1c-0.1,3.7,0,7.5,0,11.2c0,1.3,0.1,2.5,0.4,3.8c0.2,1.5,1.5,2.6,2.9,2.6c0.7,0.1,1.5,0.1,2.2,0.1L116.8,59
	L116.8,59z M88.6,34.8h-24c-0.9,0-1.8,0.1-2.7,0.2C60,35,58.4,36.4,58,38.2c-0.3,1.3-0.5,2.7-0.4,4c0,8,0,15.9,0,23.8
	c0,1.2,0.1,2.5,0.4,3.7c0.2,1.8,1.6,3.3,3.5,3.5c1,0.2,2,0.2,3,0.2c7.9,0,15.8,0,23.7,0h0.4v-9.7H67.9c-0.5,0-0.5,0-0.5-0.5
	c0-1.3,0-2.6,0-3.9c0-0.5,0-0.5,0.5-0.5h20.6v-9.7H67.9c-0.4,0-0.5-0.1-0.5-0.5c0-1.3,0-2.6,0-3.8c0-0.5,0-0.5,0.5-0.5h20.6
	L88.6,34.8z M26.9,73.5V73c0-4.5,0-9,0-13.5c0-0.5,0-0.5,0.5-0.5h16.1c0,0.2,0,0.4,0,0.6c0,4.5,0,9,0,13.5c0,0.4,0.1,0.5,0.5,0.5
	c3,0,6.1,0,9.1,0h0.4V34.8h-9.4c-0.5,0-0.5,0-0.5,0.5c0,4.5,0,8.9,0,13.4c0,0.2,0,0.4,0,0.6H27.4c-0.5,0-0.5,0-0.5-0.5
	c0-4.5,0-9,0-13.5c0-0.2,0-0.3,0-0.5h-10v38.7H26.9z"/>
<path class="st1" d="M89.2,0.5c0,2.3,0,4.5,0,6.8c0,0.3-0.1,0.3-0.4,0.3c-1.1,0-2.2,0-3.3,0c-3.4,0.1-6.8,0.2-10.2,0.3
	C73,8,70.5,8.1,68,8.3c-2.8,0.2-5.7,0.5-8.6,0.8C56,9.5,52.5,10,49,10.5c-5.6,0.8-11.2,1.9-16.8,3.2c-4.8,1.1-9.6,2.4-14.3,3.9
	c-2.1,0.6-4.2,1.5-6.1,2.6c-1.9,1.1-3.1,3.1-3.3,5.2c-0.2,1.5-0.2,2.9-0.3,4.4c0,16.3,0,32.6,0,48.8c0,1.7,0.1,3.4,0.4,5.1
	c0.4,2,1.7,3.7,3.5,4.7c1.9,1,3.9,1.9,6,2.5c5.3,1.6,10.6,3.1,16,4.3c4.1,0.9,8.3,1.8,12.4,2.5c3.3,0.6,6.6,1.1,9.8,1.5
	c2.7,0.4,5.4,0.7,8.2,1s5.2,0.5,7.8,0.7c2.9,0.2,5.7,0.3,8.6,0.4c2.6,0.1,5.2,0.1,7.8,0.2c0.2,0,0.4,0,0.4,0.3c0,2.1,0,4.1,0,6.2
	H0.5V0.5H89.2z"/>
<path class="st1" d="M91.8,107.9c0-2.1,0-4.1,0-6.2c0-0.3,0.1-0.3,0.4-0.3c1.5,0,3,0,4.5,0c2.8-0.1,5.5-0.2,8.3-0.3
	c2-0.1,4-0.2,6.1-0.4c2-0.2,4-0.4,6.1-0.6s4-0.4,6-0.7c2.8-0.4,5.6-0.8,8.4-1.3c3.1-0.5,6.3-1.1,9.4-1.7c6.2-1.2,12.3-2.7,18.3-4.4
	c2.7-0.7,5.4-1.6,7.9-2.7c0.8-0.4,1.6-0.8,2.3-1.3c1.8-1.1,2.9-2.9,3.1-5c0.2-1.4,0.3-2.9,0.3-4.4c0-16.3,0-32.7,0-49
	c0-1.7-0.1-3.4-0.4-5c-0.3-1.8-1.4-3.3-2.9-4.3c-1.5-0.9-3.1-1.7-4.8-2.2c-3.8-1.3-7.8-2.4-11.7-3.4c-4.9-1.3-9.9-2.4-14.9-3.2
	c-3.4-0.6-6.7-1.1-10.1-1.6c-2.8-0.4-5.7-0.7-8.6-1c-2.7-0.3-5.3-0.5-8-0.7c-2.9-0.2-5.9-0.3-8.8-0.4c-1.9-0.1-3.8-0.1-5.8-0.2
	c-1.6,0-3.1,0-4.7-0.1c-0.2,0-0.4,0-0.4-0.3c0-2.3,0-4.5,0-6.8h88.7v107.4H91.8z"/>
<path class="st1" d="M163.2,34.8v9.7h-23c-0.5,0-0.5,0-0.5,0.5c0,1.3,0,2.6,0,3.9c0,0.3,0.1,0.4,0.4,0.4c5.8,0,11.7,0,17.5,0
	c1,0,1.9,0.1,2.9,0.1c1.7,0,3.1,1.2,3.3,2.9c0.2,1.2,0.4,2.4,0.4,3.7c0,3.6,0,7.3,0,10.9c0,1.1-0.2,2.2-0.4,3.3
	c-0.3,1.7-1.8,3-3.6,3.1c-1,0.1-2,0.2-3,0.2c-8.9,0-17.9,0-26.8,0h-0.4v-9.7h0.5h23.4c0.6,0,0.6,0,0.6-0.6c0-1.4,0-2.8,0-4.3h-19.3
	c-0.7,0-1.4-0.1-2.1-0.1c-1.4-0.1-2.5-1.2-2.7-2.5c-0.3-1.2-0.4-2.5-0.4-3.7c0-3.3-0.1-6.7,0-10.1c0-1.5,0.1-3,0.5-4.5
	c0.4-1.6,1.8-2.8,3.4-3c0.9-0.1,1.9-0.2,2.9-0.2c8.7,0,17.4,0,26.1,0L163.2,34.8z"/>
<path class="st1" d="M116.8,59H97.9c-0.7,0-1.5-0.1-2.2-0.1c-1.5,0-2.7-1.1-2.9-2.6c-0.3-1.2-0.4-2.5-0.4-3.8c0-3.7,0-7.5,0-11.2
	c0-1.1,0.2-2.1,0.4-3.1c0.3-1.7,1.7-3,3.4-3.1c0.9-0.1,1.9-0.2,2.9-0.2c8.7,0,17.4,0,26.1,0h0.4v9.7h-23.4v4.8h0.5
	c5.9,0,11.8,0,17.7,0c1,0,2.1,0.1,3.1,0.2c1.2,0.1,2.2,1,2.6,2.1c0.4,1.1,0.6,2.3,0.6,3.5c0,3.5,0,7.1,0,10.6c0,1.5-0.1,2.9-0.4,4.3
	c-0.3,1.8-1.8,3.2-3.6,3.3c-1,0.1-2,0.2-3,0.2c-8.9,0-17.8,0-26.7,0c-0.5,0-0.5,0-0.5-0.5c0-2.9,0-5.8,0-8.7c0-0.5,0-0.5,0.5-0.5
	h23.4c0.6,0,0.6,0,0.6-0.6c0-1.3,0-2.5,0-3.8C116.8,59.3,116.8,59.2,116.8,59z"/>
<path class="st1" d="M88.6,34.8v9.7H67.9c-0.5,0-0.5,0-0.5,0.5c0,1.3,0,2.6,0,3.8c0,0.4,0.1,0.5,0.5,0.5h20.6V59H67.9
	c-0.5,0-0.5,0-0.5,0.5c0,1.3,0,2.6,0,3.9c0,0.5,0,0.5,0.5,0.5h20.6v9.7h-0.4c-7.9,0-15.8,0-23.7,0c-1,0-2-0.1-3-0.2
	c-1.8-0.2-3.3-1.7-3.5-3.5c-0.2-1.2-0.4-2.5-0.4-3.7c0-8,0-15.9,0-23.8c0-1.3,0.1-2.7,0.4-4c0.4-1.9,2-3.2,3.8-3.3
	c0.9-0.1,1.8-0.1,2.7-0.2L88.6,34.8L88.6,34.8z"/>
<path class="st1" d="M26.9,73.5h-10V34.8h9.9c0,0.2,0,0.3,0,0.5c0,4.5,0,9,0,13.5c0,0.5,0,0.5,0.5,0.5h16.2c0-0.2,0-0.4,0-0.6
	c0-4.5,0-8.9,0-13.4c0-0.5,0-0.5,0.5-0.5h9.5v38.8h-0.4c-3,0-6.1,0-9.1,0c-0.4,0-0.5-0.1-0.5-0.5c0-4.5,0-9,0-13.5
	c0-0.2,0-0.4,0-0.6H27.4c-0.5,0-0.5,0-0.5,0.5c0,4.5,0,9,0,13.5V73.5z"/>
</svg>
