<?xml version="1.0" encoding="utf-8"?>
<!-- Generator: Adobe Illustrator 21.1.0, SVG Export Plug-In . SVG Version: 6.00 Build 0)  -->
<svg version="1.1" id="Layer_1" xmlns="http://www.w3.org/2000/svg" xmlns:xlink="http://www.w3.org/1999/xlink" x="0px" y="0px"
	 viewBox="0 0 181 38.1" style="enable-background:new 0 0 181 38.1;" xml:space="preserve">
<style type="text/css">
	.st0{fill:#006EB9;}
</style>
<title>Grocery</title>
<path class="st0" d="M20,28.8L18.7,34c-0.1,0.3-0.3,0.5-0.6,0.5c-0.3,0-0.5-0.2-0.4-0.5l0,0c-0.4,0.3-0.9,0.5-1.5,0.5
	c-0.9,0.1-1.8-0.6-1.9-1.5c0-0.2,0-0.4,0-0.6l0.4-1.8c0.3-1.3,1.5-2.2,2.8-2.1c0.5,0,0.9,0.2,1.2,0.5l0,0c0-0.2,0.3-0.4,0.6-0.4
	C19.7,28.4,19.9,28.6,20,28.8C20,28.8,20,28.8,20,28.8z M18.1,32.5l0.5-2.1c0.2-0.7-0.4-1.1-1.1-1.1c-0.8-0.1-1.5,0.5-1.7,1.2
	l-0.4,1.8c-0.2,0.5,0.2,1.1,0.7,1.2c0.1,0,0.2,0,0.4,0C17.2,33.7,17.9,33.2,18.1,32.5L18.1,32.5z"/>
<path class="st0" d="M33.6,28.9c0,0.3-0.3,0.5-0.6,0.5h-1.8L30.2,34c-0.1,0.3-0.3,0.5-0.6,0.5c-0.2,0-0.4-0.1-0.4-0.3
	c0,0,0-0.1,0-0.1l1.1-4.6h-0.9c-0.2,0-0.4-0.1-0.4-0.3c0,0,0,0,0,0c0-0.3,0.3-0.5,0.6-0.5h0.9l0.3-1.2c0.1-0.5,0.4-1,0.9-1.4
	c0.5-0.4,1-0.6,1.6-0.6H34c0.2,0,0.4,0.1,0.4,0.4c0,0,0,0,0,0c0,0.3-0.3,0.5-0.6,0.5H33c-0.6,0-1.1,0.4-1.3,1l-0.3,1.2h1.8
	C33.4,28.4,33.6,28.6,33.6,28.9C33.6,28.8,33.6,28.8,33.6,28.9z"/>
<path class="st0" d="M42,30c-0.1,0.6-1,0.7-1,0c0-0.5-0.3-0.7-0.9-0.7c-0.7,0-1.4,0.4-1.6,1.1L37.6,34c-0.1,0.3-0.3,0.5-0.6,0.5
	c-0.2,0-0.4-0.1-0.4-0.3c0,0,0-0.1,0-0.1l1.2-5.2c0.1-0.3,0.3-0.4,0.6-0.4c0.2,0,0.4,0.1,0.4,0.3c0,0,0,0.1,0,0.1
	c0,0.1,0,0.2-0.1,0.3c0.4-0.5,1-0.7,1.6-0.7C41.5,28.4,42.1,29.1,42,30z"/>
<path class="st0" d="M51,30.6l-0.2,0.9c-0.1,0.3-0.3,0.4-0.6,0.4H47l-0.1,0.5c-0.2,0.9,0.3,1.2,1.1,1.2c0.5,0,1-0.2,1.4-0.7
	c0.2-0.2,0.5-0.3,0.7-0.2c0.2,0.1,0.3,0.4,0.1,0.6c0,0,0,0,0,0c-0.6,0.7-1.5,1.2-2.4,1.1c-0.9,0.1-1.8-0.6-1.9-1.5
	c0-0.2,0-0.4,0-0.6l0.4-1.8c0.4-1.3,1.5-2.1,2.9-2.1c1-0.1,1.8,0.6,1.9,1.6C51,30.2,51,30.4,51,30.6z M47.2,31h2.7l0.1-0.4
	c0.2-0.7-0.1-1.2-1-1.2c-0.8,0-1.4,0.5-1.7,1.2L47.2,31z"/>
<path class="st0" d="M54.6,33.3c-0.1-0.2,0.1-0.5,0.3-0.6c0.3-0.1,0.6,0,0.7,0.2c0.2,0.6,0.9,0.7,1.3,0.7s1.3-0.1,1.3-0.9
	c0-0.4-0.4-0.6-1.2-0.9c-0.8-0.3-1.8-0.5-1.8-1.6s1.2-1.8,2.6-1.8c1,0,1.7,0.5,1.9,1.3c0,0.3-0.2,0.5-0.4,0.6
	c-0.3,0.1-0.5,0-0.6-0.3c-0.1-0.4-0.5-0.7-1.1-0.7s-1.3,0.3-1.3,0.9s0.9,0.7,1.3,0.9c0.9,0.3,1.6,0.6,1.6,1.6c0,1.3-1.4,1.9-2.6,1.9
	C55.8,34.6,54.9,34.1,54.6,33.3z"/>
<path class="st0" d="M69.1,30.5L68.3,34c-0.1,0.3-0.3,0.5-0.6,0.5c-0.2,0-0.4-0.1-0.4-0.3c0,0,0-0.1,0-0.1l0.8-3.5
	c0.2-0.8-0.4-1.2-1-1.2c-0.7-0.1-1.4,0.4-1.6,1.1L64.7,34c-0.1,0.3-0.3,0.5-0.6,0.5c-0.2,0-0.4-0.1-0.4-0.3c0,0,0-0.1,0-0.1l1.9-8.3
	c0.1-0.3,0.3-0.4,0.6-0.4c0.2,0,0.4,0.1,0.4,0.3c0,0,0,0.1,0,0.1l-0.7,3.1c0.4-0.3,0.9-0.5,1.5-0.5c0.9-0.1,1.8,0.6,1.9,1.5
	C69.2,30.1,69.2,30.3,69.1,30.5z"/>
<path class="st0" d="M85,30.6l-0.2,0.9c-0.1,0.3-0.3,0.4-0.6,0.4H81l-0.1,0.5c-0.2,0.9,0.3,1.2,1.1,1.2c0.5,0,1-0.2,1.4-0.7
	c0.2-0.2,0.5-0.3,0.7-0.2c0.2,0.1,0.3,0.4,0.1,0.6c0,0,0,0,0,0c-0.6,0.7-1.5,1.2-2.4,1.1c-0.9,0.1-1.8-0.6-1.9-1.5
	c0-0.2,0-0.4,0-0.6l0.4-1.8c0.4-1.3,1.5-2.1,2.9-2.1c1-0.1,1.8,0.6,1.9,1.6C85.1,30.2,85.1,30.4,85,30.6z M81.2,31H84l0.1-0.4
	c0.2-0.7-0.1-1.2-1-1.2c-0.8,0-1.4,0.5-1.7,1.2L81.2,31z"/>
<path class="st0" d="M92.6,34.5c-0.2,0-0.3-0.1-0.4-0.2l-1-2l-1.9,2c-0.1,0.1-0.3,0.2-0.5,0.2c-0.2,0-0.4-0.2-0.4-0.4
	c0-0.1,0.1-0.2,0.2-0.3l2.3-2.4l-1.1-2.3c-0.1-0.3,0.1-0.6,0.4-0.7c0.1,0,0.1,0,0.2,0c0.2,0,0.3,0.1,0.4,0.2l0.9,1.9l1.8-1.9
	c0.1-0.1,0.3-0.2,0.5-0.2c0.2,0,0.4,0.2,0.4,0.4c0,0.1-0.1,0.2-0.2,0.3L92,31.4l1.1,2.4C93.3,34.1,93,34.5,92.6,34.5z"/>
<path class="st0" d="M98.8,34l-0.7,3.1c-0.1,0.3-0.3,0.4-0.6,0.4c-0.2,0-0.4-0.1-0.4-0.3c0,0,0-0.1,0-0.1l1.9-8.3
	c0.1-0.3,0.3-0.5,0.6-0.5c0.2,0,0.4,0.2,0.4,0.4c0,0,0,0.1,0,0.1l0,0c0.4-0.3,0.9-0.5,1.4-0.5c1-0.1,1.8,0.6,1.9,1.5
	c0,0.2,0,0.4,0,0.6l-0.4,1.8c-0.4,1.3-1.5,2.1-2.9,2.1C99.6,34.5,99.2,34.3,98.8,34z M102.4,30.5c0.2-0.9-0.3-1.2-1.1-1.2
	c-0.7-0.1-1.4,0.4-1.6,1.1l-0.5,2.1c-0.2,0.7,0.4,1.1,1.1,1.1c0.8,0,1.4-0.5,1.6-1.3L102.4,30.5z"/>
<path class="st0" d="M112.7,30.6l-0.2,0.9c-0.1,0.3-0.3,0.4-0.6,0.4h-3.2l-0.1,0.5c-0.2,0.9,0.3,1.2,1.1,1.2c0.5,0,1-0.2,1.4-0.7
	c0.2-0.2,0.5-0.3,0.7-0.2c0.2,0.1,0.3,0.4,0.1,0.6c0,0,0,0,0,0c-0.6,0.7-1.5,1.2-2.4,1.1c-0.9,0.1-1.8-0.6-1.9-1.5
	c0-0.2,0-0.4,0-0.6l0.4-1.8c0.4-1.3,1.5-2.1,2.9-2.1c1-0.1,1.8,0.6,1.9,1.6C112.8,30.2,112.8,30.4,112.7,30.6z M108.9,31h2.7
	l0.1-0.4c0.2-0.7-0.1-1.2-1-1.2c-0.8,0-1.4,0.5-1.6,1.2L108.9,31z"/>
<path class="st0" d="M121.8,30c-0.1,0.6-1,0.7-1,0c0-0.5-0.3-0.7-0.9-0.7c-0.7,0-1.4,0.4-1.6,1.1l-0.9,3.6c-0.1,0.3-0.3,0.5-0.6,0.5
	c-0.2,0-0.4-0.1-0.4-0.3c0,0,0-0.1,0-0.1l1.2-5.2c0.1-0.3,0.3-0.4,0.6-0.4c0.2,0,0.4,0.1,0.4,0.3c0,0,0,0.1,0,0.1
	c0,0.1,0,0.2-0.1,0.3c0.4-0.5,1-0.7,1.6-0.7C121.3,28.4,121.9,29.1,121.8,30z"/>
<path class="st0" d="M128,28.9l-1.2,5.2c-0.1,0.3-0.3,0.5-0.6,0.5c-0.2,0-0.4-0.1-0.4-0.3c0,0,0-0.1,0-0.1l1.2-5.2
	c0.1-0.3,0.3-0.5,0.6-0.5c0.2,0,0.4,0.1,0.4,0.3C128,28.8,128,28.8,128,28.9z M128.8,26.8c-0.1,0.5-0.5,0.8-1,0.8
	c-0.3,0-0.6-0.2-0.6-0.5c0,0,0,0,0-0.1c0.1-0.5,0.5-0.8,0.9-0.8C128.4,26.1,128.7,26.4,128.8,26.8C128.7,26.7,128.7,26.8,128.8,26.8
	L128.8,26.8z"/>
<path class="st0" d="M137.4,30.6l-0.2,0.9c-0.1,0.3-0.3,0.4-0.6,0.4h-3.2l-0.1,0.5c-0.2,0.9,0.3,1.2,1.1,1.2c0.5,0,1-0.2,1.4-0.7
	c0.2-0.2,0.5-0.3,0.7-0.2c0.2,0.1,0.3,0.4,0.1,0.6c0,0,0,0,0,0c-0.6,0.7-1.5,1.2-2.4,1.1c-0.9,0.1-1.8-0.6-1.9-1.5
	c0-0.2,0-0.4,0-0.6l0.4-1.8c0.4-1.3,1.5-2.1,2.9-2.1c1-0.1,1.8,0.6,1.9,1.6C137.4,30.2,137.4,30.4,137.4,30.6z M133.6,31h2.7
	l0.1-0.4c0.2-0.7-0.1-1.2-1-1.2c-0.8,0-1.4,0.5-1.6,1.2L133.6,31z"/>
<path class="st0" d="M146.7,30.5l-0.8,3.5c-0.1,0.3-0.3,0.4-0.6,0.4c-0.2,0-0.4-0.1-0.4-0.3c0,0,0-0.1,0-0.1l0.8-3.5
	c0.1-0.5-0.2-1.1-0.7-1.2c-0.1,0-0.2,0-0.3,0c-0.7-0.1-1.4,0.4-1.6,1.1l-0.9,3.6c-0.1,0.3-0.3,0.4-0.6,0.4c-0.2,0-0.4-0.1-0.4-0.3
	c0,0,0-0.1,0-0.1l1.2-5.2c0.1-0.3,0.3-0.4,0.6-0.4c0.2,0,0.4,0.1,0.4,0.4c0,0,0,0.1,0,0.1l0,0c0.4-0.3,0.9-0.5,1.5-0.5
	c0.9-0.1,1.8,0.6,1.9,1.5C146.8,30.1,146.7,30.3,146.7,30.5z"/>
<path class="st0" d="M150.9,32.3l0.4-1.8c0.3-1.3,1.5-2.2,2.9-2.1c1.3,0,1.9,0.8,1.9,1.7c0,0.7-1,0.8-1,0.1s-0.4-0.9-1.1-0.9
	c-0.8,0-1.5,0.5-1.7,1.3l-0.4,1.8c-0.2,0.9,0.4,1.3,1.1,1.3c0.7,0,1.3-0.5,1.6-1.1c0.1-0.3,0.4-0.4,0.7-0.4c0.2,0,0.4,0.2,0.3,0.4
	c0,0,0,0.1,0,0.1c-0.5,1.1-1.6,1.8-2.8,1.8c-0.9,0.1-1.8-0.6-1.9-1.6C150.8,32.7,150.8,32.5,150.9,32.3z"/>
<path class="st0" d="M165.1,30.6l-0.2,0.9c-0.1,0.3-0.3,0.4-0.6,0.4h-3.2l-0.1,0.5c-0.2,0.9,0.3,1.2,1.1,1.2c0.5,0,1-0.2,1.4-0.7
	c0.2-0.2,0.5-0.3,0.7-0.2c0.2,0.1,0.3,0.4,0.1,0.6c0,0,0,0,0,0c-0.6,0.7-1.5,1.2-2.4,1.1c-0.9,0.1-1.8-0.6-1.9-1.5
	c0-0.2,0-0.4,0-0.6l0.4-1.8c0.4-1.3,1.5-2.1,2.9-2.1c1-0.1,1.8,0.6,1.9,1.6C165.1,30.2,165.1,30.4,165.1,30.6z M161.3,31h2.7
	l0.1-0.4c0.2-0.7-0.1-1.2-1-1.2c-0.8,0-1.4,0.5-1.6,1.2L161.3,31z"/>
<path class="st0" d="M134.1,22c-2.1,0-4,0-5.9,0c-0.3-0.1-0.6-0.3-0.7-0.7c-0.1-0.7-0.2-1.4-0.2-2.1c0-0.6-0.3-0.8-0.9-0.8
	c-2.1,0-4.2,0-6.3,0c-0.3,0-0.6,0.3-0.9,0.5c-0.1,0.1-0.1,0.2-0.2,0.3c-0.5,0.9-0.7,2.1-1.4,2.5s-1.9,0.2-2.9,0.2h-20
	c0.2-1.4,0.4-2.7,0.7-3.9c1-5.4,2-10.8,3-16.2c0.1-0.6,0.4-0.9,1-0.9c1.5,0,3.1,0,4.6,0c0.7,0,0.9,0.2,0.7,0.9
	c-0.9,4.8-1.8,9.7-2.7,14.6c0,0.1,0,0.2,0,0.6h10.1l-0.8,4.3l0.2,0.1c0.1-0.3,0.3-0.5,0.5-0.7c3.5-6.3,7.1-12.5,10.6-18.8
	c0.2-0.6,0.8-0.9,1.4-0.9c1.8,0.1,3.5,0,5.3,0c0.7,0,0.9,0.3,1,0.9c1.2,6.4,2.4,12.7,3.6,19.1C134,21.3,134,21.6,134.1,22z
	 M121.6,14.1c1.7,0,3.1,0,4.5,0c0.1,0,0.4-0.4,0.4-0.6c-0.1-1.5-0.3-3-0.5-4.5c-0.1-0.8-0.2-1.7-0.3-2.5h-0.3L121.6,14.1z"/>
<path class="st0" d="M68.8,6.2c-0.2,0.3-0.3,0.5-0.4,0.8c-2.1,4.7-4.2,9.4-6.2,14.1c-0.2,0.7-0.8,1.1-1.5,1c-1-0.1-2,0-3,0
	c-0.3-0.1-0.5-0.3-0.6-0.6c-0.3-3.4-0.5-6.9-0.8-10.3c-0.1-1.6-0.2-3.2-0.4-4.8h-0.3c-0.2,0.8-0.4,1.7-0.5,2.6
	c-0.8,4.1-1.5,8.2-2.3,12.2c-0.1,0.8-0.4,1.1-1.2,1c-1.3-0.1-2.7,0-4.1,0c0.3-1.5,0.5-3,0.8-4.4c1-5.1,1.9-10.2,2.9-15.3
	c0.3-1.3,0.2-1.3,1.6-1.3c2,0,4.1,0,6.1,0c0.8,0,1.1,0.2,1.1,1.1c0.2,3.7,0.5,7.4,0.7,11.1c0.1,0.2,0.1,0.5,0.2,0.7
	c0.3-0.6,0.4-0.9,0.6-1.2c1.6-3.6,3.2-7.2,4.7-10.7c0.2-0.6,0.7-1,1.3-0.9c2.2,0.1,4.3,0,6.5,0c0.3,0,0.6,0,1,0.1
	c-0.3,1.8-0.6,3.6-1,5.3c-0.9,4.8-1.8,9.6-2.7,14.4c-0.2,1.3-0.2,1.3-1.5,1.3c-1,0-1.9,0-2.9,0c-0.7,0-1-0.1-0.8-0.9
	c0.9-4.8,1.8-9.6,2.7-14.5c0-0.1,0-0.3,0-0.4L68.8,6.2z"/>
<path class="st0" d="M143.4,10.6c-0.2,1.1-0.5,2.2-0.7,3.3c-0.4,2.4-0.9,4.8-1.3,7.2c-0.1,0.7-0.4,1-1.1,0.9c-1.3-0.1-2.7-0.1-4,0
	c-0.8,0-1-0.2-0.8-1c1.2-6.3,2.4-12.7,3.6-19c0.1-0.8,0.4-1.1,1.3-1.1c1.3,0.1,2.5,0.1,3.8,0c0.7-0.1,1.4,0.3,1.6,1
	c1.5,3.2,3.1,6.4,4.7,9.6c0.2,0.4,0.4,0.7,0.8,1c0.3-1.3,0.5-2.6,0.8-3.9c0.4-2.3,0.9-4.6,1.3-6.9c0-0.3,0.3-0.7,0.4-0.7
	c1.8,0,3.7,0,5.6,0c-0.4,2.2-0.8,4.3-1.2,6.4c-0.8,4.4-1.7,8.9-2.5,13.3c-0.3,1.3-0.2,1.4-1.6,1.4s-2.6,0-3.9,0
	c-0.5,0.1-1-0.3-1.2-0.8c-1.6-3.3-3.3-6.6-4.9-9.9c-0.1-0.3-0.3-0.6-0.5-0.9L143.4,10.6z"/>
<path class="st0" d="M9.3,8.3c0.4,0.1,0.7,0.1,1.1,0.1c1.8,0,3.5,0,5.3,0c0.9,0,1.1-0.3,1.3-1.1c0.3-1.9,0.7-3.8,1.1-5.6
	C18,1.4,18.2,1,18.4,1c2,0,3.9,0,6,0c-0.3,1.9-0.7,3.6-1,5.4c-0.9,4.8-1.7,9.6-2.6,14.4c-0.2,1.3-0.2,1.3-1.5,1.3h-5.1l1.6-8.6
	c-0.3-0.1-0.6-0.1-0.9-0.1c-1.8,0-3.7,0-5.6,0c-0.7,0-1,0.3-1.1,1c-0.4,2.3-0.8,4.6-1.3,6.9c-0.1,0.6-0.3,0.9-1,0.9
	c-1.5-0.1-3.1,0-4.6,0c-0.7,0-0.8-0.3-0.7-0.9C1.7,14.8,3,8.3,4.2,1.8C4.2,1.4,4.5,1,5,1c0,0,0.1,0,0.1,0c1.6,0,3.2,0,4.7,0
	c0.7,0,0.8,0.3,0.7,0.9C10.1,4,9.7,6.1,9.3,8.3z"/>
<path class="st0" d="M158.9,21.9c0.3-1.5,0.5-2.9,0.8-4.4c1-5.2,1.9-10.3,2.9-15.4c0.1-0.8,0.4-1.2,1.3-1.2c3.3,0.1,6.5,0,9.8,0.1
	c4.3,0.1,6.9,2.7,6.9,7c0.1,3.3-0.8,6.5-2.5,9.3c-1.7,2.6-4.5,4.3-7.6,4.4c-3.7,0.2-7.3,0.1-11,0.2C159.2,22,159.1,22,158.9,21.9z
	 M166.1,17.5c1.2-0.1,2.3-0.2,3.3-0.2c1.6-0.1,3-1.1,3.5-2.6c0.8-2,1.2-4.1,1.1-6.2c0.1-1.3-0.9-2.5-2.1-2.7
	c-0.9-0.2-1.8-0.3-2.8-0.3c-0.6-0.1-0.9,0.3-1,0.8c-0.2,0.9-0.3,1.8-0.5,2.8L166.1,17.5z"/>
<path class="st0" d="M38,0.5c1.2,0.2,2.5,0.2,3.7,0.5c3.1,0.6,5.4,3.3,5.4,6.5c0.3,4.3-0.8,8.3-3.9,11.4c-1.9,2-4.5,3.2-7.3,3.3
	c-1.6,0.1-3.2,0.1-4.8-0.2c-3.8-0.6-6-2.8-6.2-6.6c-0.3-4.8,1.1-9.1,5-12.3C32.2,1.4,35,0.5,38,0.5z M31.2,13c0,2.9,0.8,4.1,2.6,4.5
	c2.2,0.5,4.4-0.5,5.5-2.5c0.9-1.8,1.4-3.8,1.5-5.9c0.1-2.3-1.1-3.6-3.3-3.8c-1.9-0.2-3.8,0.8-4.7,2.5C31.8,9.4,31.2,11.2,31.2,13
	L31.2,13z"/>
<path class="st0" d="M81.6,17.4h11.3c-0.3,1.5-0.5,2.9-0.8,4.2c0,0.2-0.6,0.4-0.9,0.4c-3.6,0-7.2,0-10.8,0h-6c0.2-1.4,0.4-2.7,0.7-4
	c1-5.4,2-10.8,3-16.3C78.1,1.2,78.3,1,78.9,1h16.2c0.1,0,0.3,0.1,0.4,0.1c-0.2,1.3-0.4,2.5-0.7,3.8c0,0.2-0.6,0.4-0.9,0.4
	c-3.1,0-6.1,0-9.2,0c-0.8,0-1.1,0.3-1.2,1s-0.3,1.6-0.4,2.5c0.4,0,0.8,0.1,1.1,0.1c2.7,0,5.4,0,8.1,0c0.8,0,1.1,0.1,0.8,1
	c-0.2,0.7-0.4,1.5-0.4,2.2c-0.1,0.7-0.4,0.9-1.1,0.9c-2.7,0-5.3,0-8,0c-1.3,0-1.3,0-1.5,1.3C82,15.3,81.8,16.3,81.6,17.4z"/>
</svg>
