<?xml version="1.0" encoding="utf-8"?>
<!-- Generator: Adobe Illustrator 21.1.0, SVG Export Plug-In . SVG Version: 6.00 Build 0)  -->
<svg version="1.1" id="Layer_1" xmlns="http://www.w3.org/2000/svg" xmlns:xlink="http://www.w3.org/1999/xlink" x="0px" y="0px"
	 viewBox="0 0 235.3 55.8" style="enable-background:new 0 0 235.3 55.8;" xml:space="preserve">
<style type="text/css">
	.st0{clip-path:url(#SVGID_2_);}
	.st1{fill:#790000;}
	.st2{fill:#7A0000;}
	.st3{fill:#7B0000;}
	.st4{fill:#7C0000;}
	.st5{fill:#7D0000;}
	.st6{fill:#7E0000;}
	.st7{fill:#7F0000;}
	.st8{fill:#800000;}
	.st9{fill:#810000;}
	.st10{fill:#820000;}
	.st11{fill:#830000;}
	.st12{fill:#840000;}
	.st13{fill:#850001;}
	.st14{fill:#850101;}
	.st15{fill:#860102;}
	.st16{fill:#870102;}
	.st17{fill:#880203;}
	.st18{fill:#890203;}
	.st19{fill:#890204;}
	.st20{fill:#8A0304;}
	.st21{fill:#8B0304;}
	.st22{fill:#8C0305;}
	.st23{fill:#8C0405;}
	.st24{fill:#8D0406;}
	.st25{fill:#8E0406;}
	.st26{fill:#8F0406;}
	.st27{fill:#8F0507;}
	.st28{fill:#900507;}
	.st29{fill:#910508;}
	.st30{fill:#910608;}
	.st31{fill:#920608;}
	.st32{fill:#930609;}
	.st33{fill:#940709;}
	.st34{fill:#94070A;}
	.st35{fill:#95070A;}
	.st36{fill:#96070B;}
	.st37{fill:#96080B;}
	.st38{fill:#97080B;}
	.st39{fill:#98080C;}
	.st40{fill:#99090C;}
	.st41{fill:#9A090D;}
	.st42{fill:#9B0A0E;}
	.st43{fill:#9C0A0E;}
	.st44{fill:#9D0A0F;}
	.st45{fill:#9E0B0F;}
	.st46{fill:#9F0B0F;}
	.st47{fill:#9F0B10;}
	.st48{fill:#A00C10;}
	.st49{fill:#A10C10;}
	.st50{fill:#A20C11;}
	.st51{fill:#A30D11;}
	.st52{fill:#A40D12;}
	.st53{fill:#A50E12;}
	.st54{fill:#A60E12;}
	.st55{fill:#A70E13;}
	.st56{fill:#A80E13;}
	.st57{fill:#A80F13;}
	.st58{fill:#A90F14;}
	.st59{fill:#AA0F14;}
	.st60{fill:#AB0F14;}
	.st61{fill:#AB1014;}
	.st62{fill:#AC1015;}
	.st63{fill:#AD1015;}
	.st64{fill:#AE1015;}
	.st65{fill:#AE1016;}
	.st66{fill:#AF1116;}
	.st67{fill:#B01116;}
	.st68{fill:#B11116;}
	.st69{fill:#B11117;}
	.st70{fill:#B21217;}
	.st71{fill:#B31217;}
	.st72{fill:#B41217;}
	.st73{fill:#B51218;}
	.st74{fill:#B61218;}
	.st75{fill:#B71318;}
	.st76{fill:#B81319;}
	.st77{fill:#B91319;}
	.st78{fill:#BA131A;}
	.st79{fill:#BB141A;}
	.st80{fill:#BC141A;}
	.st81{fill:#BD141A;}
	.st82{fill:#BE141B;}
	.st83{fill:#BF151B;}
	.st84{fill:#C0151B;}
	.st85{fill:#C1151B;}
	.st86{fill:#C2151C;}
	.st87{fill:#C3151C;}
	.st88{fill:#C4161C;}
	.st89{fill:#C5161C;}
	.st90{fill:#C5161D;}
	.st91{fill:#C6161D;}
	.st92{fill:#C7161D;}
	.st93{fill:#C8161D;}
	.st94{fill:#C9171D;}
	.st95{fill:#CA171E;}
	.st96{fill:#CB171E;}
	.st97{fill:#CC171E;}
	.st98{fill:#CD171E;}
	.st99{fill:#CE171E;}
	.st100{fill:#CF181F;}
	.st101{fill:#D0181F;}
	.st102{fill:#D1181F;}
	.st103{fill:#D21820;}
	.st104{fill:#D31820;}
	.st105{fill:#D41820;}
	.st106{fill:#D41920;}
	.st107{fill:#D51920;}
	.st108{fill:#D61920;}
	.st109{fill:#D71920;}
	.st110{fill:#D71921;}
	.st111{fill:#D81921;}
	.st112{fill:#D91A21;}
	.st113{fill:#DA1A21;}
	.st114{fill:#DB1A21;}
	.st115{fill:#DC1A21;}
	.st116{fill:#DD1A21;}
	.st117{fill:#DE1A22;}
	.st118{fill:#DF1B22;}
	.st119{fill:#E01B22;}
	.st120{fill:#E11B22;}
	.st121{fill:#E21B22;}
	.st122{fill:#E31B22;}
	.st123{fill:#E41B23;}
	.st124{fill:#E51B23;}
	.st125{fill:#E61C23;}
	.st126{fill:#E71C23;}
	.st127{fill:#E81C23;}
	.st128{fill:#E91C23;}
	.st129{fill:#EA1C24;}
	.st130{fill:#EC1C24;}
	.st131{fill:#ED1D24;}
	.st132{fill:#FFFFFF;}
	.st133{clip-path:url(#SVGID_4_);}
	.st134{fill:#FFD100;}
	.st135{fill:#FFD400;}
	.st136{fill:#FFD700;}
	.st137{fill:#FFDA00;}
	.st138{fill:#FFDD00;}
	.st139{fill:#FFDF00;}
	.st140{fill:#FFE100;}
	.st141{fill:#FFE300;}
	.st142{fill:#FFE500;}
	.st143{fill:#FFE600;}
	.st144{fill:#FFE800;}
	.st145{fill:#FFE900;}
	.st146{fill:#FFEA00;}
	.st147{fill:#FFEB00;}
	.st148{fill:#FFEC00;}
	.st149{fill:#FFED00;}
	.st150{fill:#FFEE00;}
	.st151{fill:#FFEF00;}
	.st152{fill:#FFF000;}
	.st153{fill:#FFF100;}
	.st154{fill:#FFF200;}
	.st155{fill:#D6382F;}
	.st156{clip-path:url(#SVGID_6_);}
	.st157{fill:#F6AA78;}
	.st158{fill:#F7AB79;}
	.st159{fill:#F7AC7A;}
	.st160{fill:#F7AD7B;}
	.st161{fill:#F7AE7C;}
	.st162{fill:#F7AF7D;}
	.st163{fill:#F7B07E;}
	.st164{fill:#F8B17F;}
	.st165{fill:#F8B280;}
	.st166{fill:#F8B381;}
	.st167{fill:#F8B482;}
	.st168{fill:#F8B583;}
	.st169{fill:#F9B684;}
	.st170{fill:#F9B785;}
	.st171{fill:#F9B886;}
	.st172{fill:#F9B987;}
	.st173{fill:#F9BA88;}
	.st174{fill:#F9BB89;}
	.st175{fill:#FABC8A;}
	.st176{fill:#FABD8A;}
	.st177{fill:#FABE8B;}
	.st178{fill:#FABF8D;}
	.st179{fill:#FAC08E;}
	.st180{fill:#FAC18F;}
	.st181{fill:#FBC290;}
	.st182{fill:#FBC390;}
	.st183{fill:#FBC491;}
	.st184{fill:#FBC592;}
	.st185{fill:#FBC693;}
	.st186{fill:#FBC794;}
	.st187{fill:#FBC795;}
	.st188{fill:#FCC896;}
	.st189{fill:#FCC997;}
	.st190{fill:#FCCA98;}
	.st191{fill:#FCCB99;}
	.st192{fill:#FCCC9A;}
	.st193{fill:#FCCD9B;}
	.st194{fill:#FDCE9C;}
	.st195{fill:#FDCF9D;}
	.st196{fill:#FDD09E;}
	.st197{fill:#FDD19F;}
	.st198{fill:#FDD1A0;}
	.st199{fill:#FDD2A1;}
	.st200{fill:#FDD3A1;}
	.st201{fill:#FED4A2;}
	.st202{fill:#FED4A3;}
	.st203{fill:#FED5A4;}
	.st204{fill:#FED6A4;}
	.st205{fill:#FED6A5;}
	.st206{fill:#FED7A6;}
	.st207{fill:#FED7A7;}
	.st208{fill:#FED8A7;}
	.st209{fill:#FED9A8;}
	.st210{fill:#FED9A9;}
	.st211{fill:#FFDAA9;}
	.st212{fill:#FFDAAA;}
	.st213{fill:#FFDBAA;}
	.st214{fill:#FFDBAB;}
	.st215{fill:#FFDCAB;}
	.st216{fill:#FFDCAC;}
	.st217{clip-path:url(#SVGID_8_);}
	.st218{fill:#FFCA0A;}
	.st219{fill:#FFCA09;}
	.st220{fill:#FFCB08;}
	.st221{fill:#FFCC08;}
	.st222{fill:#FFCD07;}
	.st223{fill:#FFCE06;}
	.st224{fill:#FFCE05;}
	.st225{fill:#FFCF04;}
	.st226{fill:#FFD003;}
	.st227{fill:#FFD102;}
	.st228{fill:#FFD101;}
	.st229{fill:#FFD200;}
	.st230{fill:#FFD300;}
	.st231{fill:#FFD500;}
	.st232{fill:#FFD600;}
	.st233{fill:#FFD800;}
	.st234{fill:#FFD900;}
	.st235{fill:#FFDB00;}
	.st236{fill:#FFDC00;}
	.st237{fill:#FFDE00;}
	.st238{fill:#FFE000;}
	.st239{fill:#FFE200;}
	.st240{fill:#FFE400;}
	.st241{fill:#FFE700;}
	.st242{fill:#EEAC1F;}
	.st243{fill:url(#SVGID_9_);}
	.st244{fill:url(#SVGID_10_);}
	.st245{fill:url(#SVGID_11_);}
	.st246{fill:url(#SVGID_12_);}
	.st247{fill:url(#SVGID_13_);}
	.st248{fill:url(#SVGID_14_);}
	.st249{fill:url(#SVGID_15_);}
	.st250{fill:url(#SVGID_16_);}
	.st251{fill:url(#SVGID_17_);}
	.st252{fill:url(#SVGID_18_);}
	.st253{fill:url(#SVGID_19_);}
	.st254{fill:url(#SVGID_20_);}
</style>
<title>Fast Food</title>
<g>
	<defs>
		<path id="SVGID_1_" d="M201.5,37.4L83.9,37.5c-3.5,0-6.4,2.8-6.4,6.4s2.8,6.4,6.4,6.4l0,0l117.7-0.1c3.5-0.1,6.2-3.1,6.1-6.6
			C207.5,40.2,204.8,37.6,201.5,37.4L201.5,37.4z"/>
	</defs>
	<clipPath id="SVGID_2_">
		<use xlink:href="#SVGID_1_"  style="overflow:visible;"/>
	</clipPath>
	<g class="st0">
		<rect x="77.5" y="50.2" class="st1" width="130.4" height="0.1"/>
		<rect x="77.5" y="50.1" class="st2" width="130.4" height="0.1"/>
		<rect x="77.5" y="50" class="st3" width="130.4" height="0.1"/>
		<rect x="77.5" y="49.9" class="st3" width="130.4" height="0.1"/>
		<rect x="77.5" y="49.8" class="st4" width="130.4" height="0.1"/>
		<rect x="77.5" y="49.7" class="st5" width="130.4" height="0.1"/>
		<rect x="77.5" y="49.7" class="st6" width="130.4" height="0.1"/>
		<rect x="77.5" y="49.6" class="st6" width="130.4" height="0.1"/>
		<rect x="77.5" y="49.5" class="st7" width="130.4" height="0.1"/>
		<rect x="77.5" y="49.4" class="st8" width="130.4" height="0.1"/>
		<rect x="77.5" y="49.3" class="st8" width="130.4" height="0.1"/>
		<rect x="77.5" y="49.2" class="st9" width="130.4" height="0.1"/>
		<rect x="77.5" y="49.2" class="st10" width="130.4" height="0.1"/>
		<rect x="77.5" y="49.1" class="st11" width="130.4" height="0.1"/>
		<rect x="77.5" y="49" class="st11" width="130.4" height="0.1"/>
		<rect x="77.5" y="48.9" class="st12" width="130.4" height="0.1"/>
		<rect x="77.5" y="48.8" class="st13" width="130.4" height="0.1"/>
		<rect x="77.5" y="48.7" class="st14" width="130.4" height="0.1"/>
		<rect x="77.5" y="48.6" class="st15" width="130.4" height="0.1"/>
		<rect x="77.5" y="48.6" class="st16" width="130.4" height="0.1"/>
		<rect x="77.5" y="48.5" class="st16" width="130.4" height="0.1"/>
		<rect x="77.5" y="48.4" class="st17" width="130.4" height="0.1"/>
		<rect x="77.5" y="48.3" class="st18" width="130.4" height="0.1"/>
		<rect x="77.5" y="48.2" class="st19" width="130.4" height="0.1"/>
		<rect x="77.5" y="48.1" class="st20" width="130.4" height="0.1"/>
		<rect x="77.5" y="48.1" class="st21" width="130.4" height="0.1"/>
		<rect x="77.5" y="48" class="st22" width="130.4" height="0.1"/>
		<rect x="77.5" y="47.9" class="st23" width="130.4" height="0.1"/>
		<rect x="77.5" y="47.8" class="st24" width="130.4" height="0.1"/>
		<rect x="77.5" y="47.7" class="st25" width="130.4" height="0.1"/>
		<rect x="77.5" y="47.6" class="st26" width="130.4" height="0.1"/>
		<rect x="77.5" y="47.6" class="st27" width="130.4" height="0.1"/>
		<rect x="77.5" y="47.5" class="st28" width="130.4" height="0.1"/>
		<rect x="77.5" y="47.4" class="st29" width="130.4" height="0.1"/>
		<rect x="77.5" y="47.3" class="st30" width="130.4" height="0.1"/>
		<rect x="77.5" y="47.2" class="st31" width="130.4" height="0.1"/>
		<rect x="77.5" y="47.1" class="st32" width="130.4" height="0.1"/>
		<rect x="77.5" y="47.1" class="st33" width="130.4" height="0.1"/>
		<rect x="77.5" y="47" class="st34" width="130.4" height="0.1"/>
		<rect x="77.5" y="46.9" class="st35" width="130.4" height="0.1"/>
		<rect x="77.5" y="46.8" class="st36" width="130.4" height="0.1"/>
		<rect x="77.5" y="46.7" class="st37" width="130.4" height="0.1"/>
		<rect x="77.5" y="46.6" class="st38" width="130.4" height="0.1"/>
		<rect x="77.5" y="46.6" class="st39" width="130.4" height="0.1"/>
		<rect x="77.5" y="46.5" class="st40" width="130.4" height="0.1"/>
		<rect x="77.5" y="46.4" class="st41" width="130.4" height="0.1"/>
		<rect x="77.5" y="46.3" class="st41" width="130.4" height="0.1"/>
		<rect x="77.5" y="46.2" class="st42" width="130.4" height="0.1"/>
		<rect x="77.5" y="46.1" class="st43" width="130.4" height="0.1"/>
		<rect x="77.5" y="46.1" class="st43" width="130.4" height="0.1"/>
		<rect x="77.5" y="46" class="st44" width="130.4" height="0.1"/>
		<rect x="77.5" y="45.9" class="st45" width="130.4" height="0.1"/>
		<rect x="77.5" y="45.8" class="st46" width="130.4" height="0.1"/>
		<rect x="77.5" y="45.7" class="st47" width="130.4" height="0.1"/>
		<rect x="77.5" y="45.6" class="st48" width="130.4" height="0.1"/>
		<rect x="77.5" y="45.5" class="st49" width="130.4" height="0.1"/>
		<rect x="77.5" y="45.5" class="st50" width="130.4" height="0.1"/>
		<rect x="77.5" y="45.4" class="st50" width="130.4" height="0.1"/>
		<rect x="77.5" y="45.3" class="st51" width="130.4" height="0.1"/>
		<rect x="77.5" y="45.2" class="st52" width="130.4" height="0.1"/>
		<rect x="77.5" y="45.1" class="st52" width="130.4" height="0.1"/>
		<rect x="77.5" y="45" class="st53" width="130.4" height="0.1"/>
		<rect x="77.5" y="45" class="st54" width="130.4" height="0.1"/>
		<rect x="77.5" y="44.9" class="st55" width="130.4" height="0.1"/>
		<rect x="77.5" y="44.8" class="st56" width="130.4" height="0.1"/>
		<rect x="77.5" y="44.7" class="st57" width="130.4" height="0.1"/>
		<rect x="77.5" y="44.6" class="st58" width="130.4" height="0.1"/>
		<rect x="77.5" y="44.5" class="st59" width="130.4" height="0.1"/>
		<rect x="77.5" y="44.5" class="st60" width="130.4" height="0.1"/>
		<rect x="77.5" y="44.4" class="st61" width="130.4" height="0.1"/>
		<rect x="77.5" y="44.3" class="st62" width="130.4" height="0.1"/>
		<rect x="77.5" y="44.2" class="st63" width="130.4" height="0.1"/>
		<rect x="77.5" y="44.1" class="st64" width="130.4" height="0.1"/>
		<rect x="77.5" y="44" class="st65" width="130.4" height="0.1"/>
		<rect x="77.5" y="44" class="st66" width="130.4" height="0.1"/>
		<rect x="77.5" y="43.9" class="st67" width="130.4" height="0.1"/>
		<rect x="77.5" y="43.8" class="st68" width="130.4" height="0.1"/>
		<rect x="77.5" y="43.7" class="st69" width="130.4" height="0.1"/>
		<rect x="77.5" y="43.6" class="st70" width="130.4" height="0.1"/>
		<rect x="77.5" y="43.5" class="st71" width="130.4" height="0.1"/>
		<rect x="77.5" y="43.5" class="st72" width="130.4" height="0.1"/>
		<rect x="77.5" y="43.4" class="st73" width="130.4" height="0.1"/>
		<rect x="77.5" y="43.3" class="st73" width="130.4" height="0.1"/>
		<rect x="77.5" y="43.2" class="st74" width="130.4" height="0.1"/>
		<rect x="77.5" y="43.1" class="st75" width="130.4" height="0.1"/>
		<rect x="77.5" y="43" class="st76" width="130.4" height="0.1"/>
		<rect x="77.5" y="43" class="st76" width="130.4" height="0.1"/>
		<rect x="77.5" y="42.9" class="st77" width="130.4" height="0.1"/>
		<rect x="77.5" y="42.8" class="st78" width="130.4" height="0.1"/>
		<rect x="77.5" y="42.7" class="st79" width="130.4" height="0.1"/>
		<rect x="77.5" y="42.6" class="st79" width="130.4" height="0.1"/>
		<rect x="77.5" y="42.5" class="st80" width="130.4" height="0.1"/>
		<rect x="77.5" y="42.5" class="st81" width="130.4" height="0.1"/>
		<rect x="77.5" y="42.4" class="st82" width="130.4" height="0.1"/>
		<rect x="77.5" y="42.3" class="st82" width="130.4" height="0.1"/>
		<rect x="77.5" y="42.2" class="st83" width="130.4" height="0.1"/>
		<rect x="77.5" y="42.1" class="st84" width="130.4" height="0.1"/>
		<rect x="77.5" y="42" class="st85" width="130.4" height="0.1"/>
		<rect x="77.5" y="41.9" class="st86" width="130.4" height="0.1"/>
		<rect x="77.5" y="41.9" class="st86" width="130.4" height="0.1"/>
		<rect x="77.5" y="41.8" class="st87" width="130.4" height="0.1"/>
		<rect x="77.5" y="41.7" class="st88" width="130.4" height="0.1"/>
		<rect x="77.5" y="41.6" class="st89" width="130.4" height="0.1"/>
		<rect x="77.5" y="41.5" class="st90" width="130.4" height="0.1"/>
		<rect x="77.5" y="41.4" class="st91" width="130.4" height="0.1"/>
		<rect x="77.5" y="41.4" class="st92" width="130.4" height="0.1"/>
		<rect x="77.5" y="41.3" class="st93" width="130.4" height="0.1"/>
		<rect x="77.5" y="41.2" class="st93" width="130.4" height="0.1"/>
		<rect x="77.5" y="41.1" class="st94" width="130.4" height="0.1"/>
		<rect x="77.5" y="41" class="st95" width="130.4" height="0.1"/>
		<rect x="77.5" y="40.9" class="st96" width="130.4" height="0.1"/>
		<rect x="77.5" y="40.9" class="st96" width="130.4" height="0.1"/>
		<rect x="77.5" y="40.8" class="st97" width="130.4" height="0.1"/>
		<rect x="77.5" y="40.7" class="st98" width="130.4" height="0.1"/>
		<rect x="77.5" y="40.6" class="st99" width="130.4" height="0.1"/>
		<rect x="77.5" y="40.5" class="st100" width="130.4" height="0.1"/>
		<rect x="77.5" y="40.4" class="st100" width="130.4" height="0.1"/>
		<rect x="77.5" y="40.4" class="st101" width="130.4" height="0.1"/>
		<rect x="77.5" y="40.3" class="st102" width="130.4" height="0.1"/>
		<rect x="77.5" y="40.2" class="st102" width="130.4" height="0.1"/>
		<rect x="77.5" y="40.1" class="st103" width="130.4" height="0.1"/>
		<rect x="77.5" y="40" class="st104" width="130.4" height="0.1"/>
		<rect x="77.5" y="39.9" class="st105" width="130.4" height="0.1"/>
		<rect x="77.5" y="39.9" class="st106" width="130.4" height="0.1"/>
		<rect x="77.5" y="39.8" class="st107" width="130.4" height="0.1"/>
		<rect x="77.5" y="39.7" class="st108" width="130.4" height="0.1"/>
		<rect x="77.5" y="39.6" class="st109" width="130.4" height="0.1"/>
		<rect x="77.5" y="39.5" class="st110" width="130.4" height="0.1"/>
		<rect x="77.5" y="39.4" class="st111" width="130.4" height="0.1"/>
		<rect x="77.5" y="39.4" class="st112" width="130.4" height="0.1"/>
		<rect x="77.5" y="39.3" class="st113" width="130.4" height="0.1"/>
		<rect x="77.5" y="39.2" class="st114" width="130.4" height="0.1"/>
		<rect x="77.5" y="39.1" class="st114" width="130.4" height="0.1"/>
		<rect x="77.5" y="39" class="st115" width="130.4" height="0.1"/>
		<rect x="77.5" y="38.9" class="st116" width="130.4" height="0.1"/>
		<rect x="77.5" y="38.9" class="st117" width="130.4" height="0.1"/>
		<rect x="77.5" y="38.8" class="st117" width="130.4" height="0.1"/>
		<rect x="77.5" y="38.7" class="st118" width="130.4" height="0.1"/>
		<rect x="77.5" y="38.6" class="st119" width="130.4" height="0.1"/>
		<rect x="77.5" y="38.5" class="st120" width="130.4" height="0.1"/>
		<rect x="77.5" y="38.4" class="st120" width="130.4" height="0.1"/>
		<rect x="77.5" y="38.3" class="st121" width="130.4" height="0.1"/>
		<rect x="77.5" y="38.3" class="st122" width="130.4" height="0.1"/>
		<rect x="77.5" y="38.2" class="st123" width="130.4" height="0.1"/>
		<rect x="77.5" y="38.1" class="st123" width="130.4" height="0.1"/>
		<rect x="77.5" y="38" class="st124" width="130.4" height="0.1"/>
		<rect x="77.5" y="37.9" class="st125" width="130.4" height="0.1"/>
		<rect x="77.5" y="37.8" class="st126" width="130.4" height="0.1"/>
		<rect x="77.5" y="37.8" class="st127" width="130.4" height="0.1"/>
		<rect x="77.5" y="37.7" class="st128" width="130.4" height="0.1"/>
		<rect x="77.5" y="37.6" class="st129" width="130.4" height="0.1"/>
		<rect x="77.5" y="37.5" class="st130" width="130.4" height="0.1"/>
		<rect x="77.5" y="37.4" class="st131" width="130.4" height="0.1"/>
	</g>
</g>
<path class="st132" d="M201.5,37.8L201.5,37.8L83.9,37.9c-3.3,0-6,2.7-6,6c0,3.3,2.7,6,6,6l117.7-0.1c3.3,0,6-2.7,6-6
	C207.6,40.5,204.9,37.8,201.5,37.8L201.5,37.8z M201.5,37.1c3.7,0,6.7,3,6.7,6.7s-3,6.7-6.7,6.7L83.9,50.6l0,0c-3.7,0-6.7-3-6.7-6.7
	s3-6.7,6.7-6.7L201.5,37.1z"/>
<path d="M201.6,35.4H83.9c-4.7,0-8.4,3.8-8.4,8.4c0,4.6,3.8,8.4,8.4,8.4h117.7c4.7,0,8.4-3.8,8.4-8.4
	C210,39.2,206.2,35.4,201.6,35.4L201.6,35.4z M201.6,37.1c3.7,0,6.7,3,6.7,6.7s-3,6.7-6.7,6.7H83.9c-3.7,0-6.7-3-6.7-6.7
	s3-6.7,6.7-6.7H201.6z"/>
<path d="M199,44l0.2-0.6l0.2,0.6H199z M203.1,46.7l-2.7-6.4l-0.1-0.2h-2.1l-0.1,0.2l-2.7,6.4V45h-2.8l2.7-3.1l0.1-0.1v-1.8h-6.2v2.2
	h2.7l-2.7,3.1l-0.1,0.1v1.8h8.7l0.1-0.2l0.4-0.9h2l0.4,0.9l0.1,0.2h2.6L203.1,46.7z M186.1,45l2.7-3.1l0.1-0.1v-1.8h-6.3v2.2h2.7
	l-2.7,3.1l-0.1,0.1v1.8h6.3V45L186.1,45L186.1,45z M182.1,40.1h-2.5v7.1h2.4L182.1,40.1L182.1,40.1z M176.3,43.3h-0.6v-1h0.5
	c0.7,0,0.7,0.4,0.7,0.5C176.9,43.3,176.4,43.3,176.3,43.3L176.3,43.3z M178.6,40.8c-0.6-0.5-1.4-0.7-2.1-0.7h-3.1v7.1h2.4v-1.8h0.6
	c1.9,0,3.1-1,3.1-2.6C179.4,42,179.1,41.3,178.6,40.8L178.6,40.8z M170,40.1H164v0.9l-0.1-0.1c-0.8-0.6-1.8-1-2.8-0.9l0,0
	c-0.7,0-1.4,0.2-2,0.7c-0.5,0.4-0.8,1.1-0.8,1.7c0,1.6,1.3,2,2.7,2.4c0.7,0.1,0.8,0.3,0.8,0.3l0,0c0,0-0.1,0.1-0.4,0.1
	c-0.7,0-1.3-0.3-1.9-0.7l-0.3-0.2l-0.2,0.3l-1,1.2l-0.2,0.3l0.2,0.2c0.9,0.8,2,1.2,3.2,1.1c1.8,0,2.9-1,2.9-2.4l0,0
	c0-1.5-1.3-2-2.6-2.3c-0.6-0.1-0.8-0.2-0.8-0.3l0,0c0,0,0.1-0.1,0.3-0.1c0.6,0,1.1,0.2,1.6,0.6l0.3,0.2l0.2-0.3l0.9-1.3l0.1-0.1v1.1
	h1.9v4.9h2.4v-4.9h1.9v-2.2L170,40.1z M157.8,40.5v-0.3h-2.5v3.9c0,0.7-0.3,1-0.9,1c-0.2,0-0.9,0-0.9-1v-3.9h-2.5v3.9
	c-0.2,1.6,1.1,3.1,2.7,3.3c0.2,0,0.4,0,0.6,0c0.9,0.1,1.7-0.2,2.4-0.8c0.7-0.7,1-1.6,0.9-2.5L157.8,40.5z M147.8,43.2H147v-0.9h0.8
	c0.6,0,0.6,0.3,0.6,0.4C148.4,43.2,148.1,43.2,147.8,43.2L147.8,43.2z M149.8,44.8c1.2-0.8,1.5-2.3,0.8-3.5
	c-0.1-0.1-0.2-0.2-0.3-0.3c-0.6-0.6-1.5-0.9-2.3-0.8h-3.4v7.1h2.4v-1.9h0.3l1.2,1.8l0.1,0.1h2.9l-0.4-0.5L149.8,44.8z M142.8,44.3
	l-0.3-0.2l-0.2,0.2c-0.3,0.4-0.7,0.7-1.2,0.7c-0.7,0-1.2-0.6-1.2-1.3c0,0,0,0,0-0.1c0-0.4,0.1-0.7,0.4-1c0.2-0.2,0.5-0.3,0.8-0.3
	c0.5,0,0.9,0.2,1.1,0.6l0.2,0.3l0.3-0.2l1.3-1l0.3-0.2l-0.2-0.3c-0.7-1-1.8-1.5-3-1.5c-1,0-1.9,0.4-2.6,1.1c-1.4,1.4-1.4,3.8,0,5.2
	c0.7,0.7,1.6,1,2.5,1.1c1.2,0,2.4-0.6,3.1-1.6l0.2-0.3l-0.3-0.2L142.8,44.3z M131.7,44.6c-0.3,0.3-0.7,0.4-1.1,0.4h-0.4v-2.6h0.4
	c0.9,0,1.4,0.5,1.4,1.3C132.1,44,131.9,44.4,131.7,44.6L131.7,44.6z M130.6,40.2h-2.8v7.1h2.8c1.1,0,2.2-0.3,3-1.1
	c0.7-0.6,1-1.5,1-2.4l0,0C134.5,41.5,133,40.2,130.6,40.2L130.6,40.2z M118,43.2h-0.8v-0.9h0.8c0.6,0,0.6,0.3,0.6,0.4
	C118.6,43.2,118.3,43.3,118,43.2L118,43.2z M127.4,45.1h-3.5v-0.4h3.1v-2.1h-3.1v-0.3h3.4v-2.2h-5.8v6.9l-0.3-0.4l-1.3-1.9
	c1.2-0.8,1.5-2.3,0.8-3.5c-0.1-0.1-0.2-0.2-0.3-0.3c-0.6-0.6-1.5-0.9-2.3-0.8h-3.4v7.1h2.4v-1.9h0.3l1.2,1.8l0.1,0.1h8.6L127.4,45.1
	L127.4,45.1z M111.8,43.7c0,0.4-0.1,0.7-0.4,1c-0.2,0.2-0.6,0.4-0.9,0.4l0,0c-0.7,0-1.3-0.6-1.3-1.4c0,0,0,0,0,0
	c0-0.4,0.1-0.7,0.4-1c0.2-0.2,0.6-0.4,0.9-0.4C111.3,42.3,111.8,43,111.8,43.7C111.8,43.7,111.8,43.7,111.8,43.7z M110.5,40
	L110.5,40c-1,0-2,0.4-2.7,1.1c-0.7,0.7-1.1,1.6-1.1,2.6c0,2,1.7,3.7,3.7,3.7c0,0,0,0,0.1,0c1,0,2-0.4,2.7-1.1
	c0.7-0.7,1.1-1.6,1.1-2.6C114.3,41.7,112.6,40,110.5,40C110.6,40.1,110.5,40.1,110.5,40L110.5,40z M107.4,40.2h-2.7l-0.1,0.2
	l-1.1,3.2l-1.1-3.2l-0.1-0.2h-2.7l0.2,0.5l2.6,6.4l0.1,0.2h2.1l0.1-0.2l2.6-6.4L107.4,40.2z M96.9,44.1l0.2-0.6l0.2,0.6H96.9z
	 M98.3,40.3l-0.1-0.2H96l-0.1,0.2l-2.5,6v-1.3h-3.1v-4.9h-2.5v7.1h7.7l0.1-0.2l0.4-0.9h2l0.4,0.9l0.1,0.2h2.6l-0.2-0.5L98.3,40.3z
	 M87.6,42.4v-2.2h-5.9v7.1h2.4V45h3v-2.1h-3v-0.4L87.6,42.4L87.6,42.4z"/>
<polygon points="104.8,32.1 104.8,32.1 104.8,32.1 "/>
<path d="M143.6,11.2l-19.3,1.6h-0.4c-1,0-2,0-3,0h-0.9l-2.3-0.1v-1.3l-1.7-0.1h-0.7c-1.5,0-2.8,0.3-3.7,0.3h-0.1
	c-0.3-0.1-0.7-0.1-1-0.1h-0.6c-0.2,0-0.5,0-0.7,0c-1.7,0.1-3.3,0.7-4.6,1.9c-0.6,0.6-1.1,1.3-1.4,2.1c-0.1-0.3-0.3-0.6-0.5-0.9
	c-0.2-0.3-0.4-0.5-0.7-0.7l-0.1-0.1c-1.7-1.9-5.4-1.2-6.2-1l-1.3,0.1c-1.8,0.1-3.7,0.3-5.5,0.6c-0.6,0.1-1.9,0.1-3.3,0.2
	c-3.7-0.1-9.9-0.2-11.4-0.2v-0.2c0-1.3-0.2-2.6-0.4-3.9l-0.3-1.8L71.6,8l-7.3,1H64l0,0l-0.7,0.1l-0.7,0.1l0,0l-1.6,0.2
	c-2,0.2-4.1,0.6-6,0.8l-1.6,0.2l-0.1,1.5c0,0.1,0,0.2,0,0.3c0,0.2,0,0.5,0,0.7l0.2,2.1c0,0.4,0.1,0.8,0.2,1.2l0.4,1.3h1.2l0.7,6.3
	L54.9,24v1l0,0v1.4c0,0.3,0,0.6,0.1,0.9l0.2,2v0.3c0.1,0.3,0.1,0.5,0.2,0.8l0,0c0.1,0.3,0.3,0.7,0.5,0.9c0.4,0.5,1,0.7,1.7,0.7H58
	l0,0c1-0.1,2.3-0.4,3.6-0.7s2.5-0.5,3.1-0.6l1.7-0.2l0,0h0.3l6.9-0.9c0.1,0.2,0.2,0.3,0.4,0.5l0,0c0.2,0.3,0.5,0.6,0.9,0.9
	c0.1,0.1,0.2,0.1,0.3,0.2l0,0c0.7,0.4,1.4,0.7,2.2,0.9c0.3,0.1,0.7,0.1,1,0.1c0.5,0,1.1-0.1,1.6-0.2l1.6,0.1l5.7,0.3l1.9,0.1
	l0.1-1.3h0.1l5.8-0.3l0,0l1.9-0.1h0.2h0.6l5.4-0.3c0.2,0.6,0.6,1.1,1,1.5c0.3,0.3,0.5,0.5,0.8,0.7c0.1,0,0.1,0.1,0.2,0.1l0,0
	c0.1,0,0.1,0.1,0.2,0.1h0.1h0.1c0.9,0.4,2,0.6,3,0.7c0.4,0,0.8,0,1.2,0c1.6,0,3.3-0.3,4.8-0.9c0.5-0.2,0.9-0.5,1.3-0.8
	c0.6-0.4,1.1-1,1.5-1.6l7,0.4l1.8,0.1l0.3-1.8c0.1-1,0.2-2,0.2-3c0-0.3,0-0.6,0-0.8l-0.1-1.7l-1.4-0.2c0-0.8,0.1-1.5,0.1-2.3
	c0.3,0,0.7,0.1,1,0.2l2.2,0.7l0.4-2.2c1,2.5,2,4.8,3.1,7c-0.5,0-0.9-0.1-1.4-0.2l-2-0.3l-0.2,2c-0.1,0.9-0.6,5.1-0.6,5.1l1.4,0.5
	c0.7,0.3,1.5,0.4,2.3,0.5c1.1,0.2,2.3,0.1,3.3-0.3c1.3-0.3,2.4-1.1,3.2-2.2c2.4-2.3,4.2-12.6,4.4-13.5v-0.1l0,0l1.2-0.5v-0.3
	C144,15.5,144,13.3,143.6,11.2z"/>
<path d="M231.5,28.2V28l0.1-0.9v-0.3c0-0.6-0.1-1.1-0.3-1.7c-0.1-0.3-0.2-0.5-0.3-0.8l0,0l0.3-1.5c0.2-0.8,0.3-1.6,0.3-2.5
	c0-0.4,0.1-0.9,0.1-1.3l0.2-1.9l0,0l0.1-1l-4.9-0.8c-3.2-0.7-5.1,0.1-5.9,0.6l-0.6-2.9l-0.5-2.1l-0.1-0.3l-1.9,0.3l-3,0.6l-2.4,0.4
	l0.1,0.3l0,0l0.9,2.4l0.4,1c-4.2-0.7-6.4,0.6-7.2,1.3l0.1-0.9l0,0c0.2-0.8,0.3-1.7,0.3-2.5c0-0.1,0-0.2,0-0.3c0-0.9-0.3-1.7-0.9-2.4
	c-0.6-0.8-1.4-1.3-2.4-1.6l-0.2-0.1h-0.1H204c-0.1,0-0.3,0-0.9,0c-0.1,0-0.3,0-0.4,0c-0.5,0.1-1,0.2-1.4,0.4c-0.5,0.2-1,0.6-1.3,1
	c-0.4,0.5-0.7,1.1-0.9,1.7c-0.1,0.4-0.2,0.7-0.3,1.1c-1.1,0.1-7.7,0.5-13.3,0.8h-1.3c-7.6,0.3-7.1,0.4-7.2,1.1c0,0.2,0,0.4,0,0.7
	c-6.7-3.3-10-0.1-10.9,1.1v-0.6c0-1.2,0-2.5-0.2-3.7l-0.2-1.8l-1.8,0.1l-6.4,0.3h-0.8l-1.8,0.1h-0.1l-3.2,0.2l-3.9,0.2l-1.6,0.1
	l-0.3,1.5c-0.2,1.1-0.2,2.3,0,3.4v0.5l0.2,1.6l1.5,0.1l0.3,5.6v0.7h-0.1l-1.3,0.4v1.4c0,1.2,0,2.4,0.2,3.6c0.1,0.7,0.5,2.1,3,2
	c0.9,0,2.2-0.2,3.5-0.3c1-0.1,2.1-0.3,2.8-0.3h0.2l1.8-0.1l4.6-0.3l2.7-0.1l1.8-0.1v-0.4c1.7,1.1,3.7,1.7,5.7,1.7
	c0.4,0,0.8,0,1.2-0.1c0.5-0.1,1.1-0.2,1.6-0.4c0.3-0.1,0.7-0.3,0.7-0.3l0.4-0.2l0,0c0.1-0.1,0.2-0.1,0.3-0.2c0.4-0.2,0.7-0.5,1-0.9
	c1-1.1,1.8-2.4,2.2-3.8c0.4,1.2,0.8,2.4,1.2,3.6l0.5,1.4l1.5-0.1l1.9-0.1l2-0.1l1.5-0.1l0.3-1.5c0.1-0.4,0.2-0.8,0.3-1.3
	c0.1,0.4,0.3,0.9,0.4,1.3l0.5,1.4l1.5-0.1l1.2-0.1l2.7-0.1l1.4-0.1l0.1,1.2h0.5l1.4,0.1l7.1,0.4l1.8,0.1l0.1-1h0.1
	c1.5,1.1,3.4,1.6,5.3,1.5h0.2c2-0.1,4-0.7,5.8-1.7L219,32c0.2,0.1,0.4,0.2,0.7,0.3l0.2,0.1c1.4,0.5,2.9,0.8,4.5,0.9h0.4
	c1.1,0,2.1-0.2,3.1-0.6h0.1h0.1C229.7,31.8,231,30.2,231.5,28.2L231.5,28.2z"/>
<path d="M232.9,30.9h-0.1v-0.4h0.2c0.2,0,0.3,0.1,0.3,0.2S233.1,30.9,232.9,30.9z M233.5,31L233.5,31c0.2-0.1,0.4-0.2,0.4-0.4
	c0-0.1-0.1-0.3-0.2-0.4c-0.2-0.1-0.4-0.1-0.7-0.1c-0.2,0-0.5,0-0.7,0.1v1.6h0.5v-0.6h0.2c0.1,0,0.3,0.1,0.3,0.2c0,0,0,0,0,0
	c0,0.1,0.1,0.2,0.1,0.4h0.6c-0.1-0.1-0.1-0.3-0.1-0.4C233.8,31.3,233.6,31.1,233.5,31L233.5,31z M233,32.3c-0.7,0-1.4-0.6-1.4-1.3
	c0-0.7,0.6-1.4,1.3-1.4l0,0l0,0c0.7,0,1.4,0.6,1.4,1.3C234.3,31.7,233.8,32.3,233,32.3L233,32.3L233,32.3z M233,29.2L233,29.2
	c-1,0-1.8,0.9-1.7,1.9c0,1,0.9,1.8,1.9,1.7c1,0,1.7-0.9,1.7-1.8C234.8,29.9,233.9,29.2,233,29.2L233,29.2z"/>
<ellipse class="st132" cx="26" cy="29.8" rx="23.8" ry="22.3"/>
<g>
	<defs>
		<ellipse id="SVGID_3_" cx="26.3" cy="30.2" rx="20" ry="19.7"/>
	</defs>
	<clipPath id="SVGID_4_">
		<use xlink:href="#SVGID_3_"  style="overflow:visible;"/>
	</clipPath>
	<g class="st133">
		<rect x="6.4" y="10.5" class="st134" width="39.9" height="39.5"/>
		<circle class="st134" cx="26.3" cy="30.2" r="19.8"/>
		<circle class="st135" cx="26.3" cy="30.2" r="19.6"/>
		<circle class="st136" cx="26.3" cy="30.2" r="19.4"/>
		<circle class="st137" cx="26.3" cy="30.2" r="19.2"/>
		<circle class="st138" cx="26.3" cy="30.2" r="19"/>
		<circle class="st139" cx="26.3" cy="30.2" r="18.7"/>
		<circle class="st140" cx="26.3" cy="30.2" r="18.5"/>
		<circle class="st141" cx="26.3" cy="30.2" r="18.3"/>
		<circle class="st142" cx="26.3" cy="30.2" r="18.1"/>
		<circle class="st143" cx="26.3" cy="30.2" r="17.8"/>
		<circle class="st144" cx="26.3" cy="30.2" r="17.6"/>
		<circle class="st145" cx="26.3" cy="30.2" r="17.4"/>
		<circle class="st146" cx="26.3" cy="30.2" r="17.2"/>
		<circle class="st147" cx="26.3" cy="30.2" r="17"/>
		<circle class="st148" cx="26.3" cy="30.2" r="16.8"/>
		<circle class="st148" cx="26.3" cy="30.2" r="16.5"/>
		<circle class="st149" cx="26.3" cy="30.2" r="16.3"/>
		<circle class="st150" cx="26.3" cy="30.2" r="16.1"/>
		<circle class="st150" cx="26.3" cy="30.2" r="15.9"/>
		<circle class="st151" cx="26.3" cy="30.2" r="15.7"/>
		<circle class="st152" cx="26.3" cy="30.2" r="15.4"/>
		<circle class="st152" cx="26.3" cy="30.2" r="15.2"/>
		<circle class="st152" cx="26.3" cy="30.2" r="15"/>
		<circle class="st153" cx="26.3" cy="30.2" r="14.8"/>
		<circle class="st153" cx="26.3" cy="30.2" r="14.5"/>
		<circle class="st153" cx="26.3" cy="30.2" r="14.3"/>
		<circle class="st153" cx="26.3" cy="30.2" r="14.1"/>
		<circle class="st153" cx="26.3" cy="30.2" r="13.9"/>
		<circle class="st154" cx="26.3" cy="30.2" r="13.7"/>
		<circle class="st154" cx="26.3" cy="30.2" r="13.4"/>
		<circle class="st154" cx="26.3" cy="30.2" r="13.2"/>
		<circle class="st154" cx="26.3" cy="30.2" r="13"/>
		<circle class="st154" cx="26.3" cy="30.2" r="12.8"/>
		<circle class="st154" cx="26.3" cy="30.2" r="12.6"/>
		<circle class="st154" cx="26.3" cy="30.2" r="12.3"/>
		<circle class="st154" cx="26.3" cy="30.2" r="12.1"/>
		<circle class="st154" cx="26.3" cy="30.2" r="11.9"/>
		<circle class="st154" cx="26.3" cy="30.2" r="11.7"/>
		<circle class="st154" cx="26.3" cy="30.2" r="11.5"/>
		<circle class="st154" cx="26.3" cy="30.2" r="11.2"/>
		<circle class="st154" cx="26.3" cy="30.2" r="11"/>
		<circle class="st154" cx="26.3" cy="30.2" r="10.8"/>
		<circle class="st154" cx="26.3" cy="30.2" r="10.6"/>
	</g>
</g>
<path class="st155" d="M20.9,43.9c0-0.3-0.3-0.5-0.2-0.9c-3.5-1.2-6.6,0.2-9.4,4.2c1.5,1.1,3.2,2.1,5,2.8l8.3,3
	c2.8,1,9.8-1.9,10.1-2s1.2-2.2,1.9-2.8c-1-0.6-4.8-5.5-9.6-5.2c-0.2,0.5-0.4,1-0.6,1.6C24.3,46.6,21.5,44.9,20.9,43.9z"/>
<path d="M26.2,7.3C13.8,7.5,3.8,17.7,4,30.1c0.2,12.4,10.4,22.4,22.8,22.3C39.1,52.3,49,42.2,49,29.9C49,17.4,38.7,7.3,26.2,7.3z
	 M26.2,5C40,5.1,51,16.4,50.9,30.1c-0.1,13.8-11.4,24.8-25.2,24.6C12,54.6,1,43.5,1,29.9c0-13.8,11.3-25,25.1-24.9
	C26.2,5,26.2,5,26.2,5z"/>
<path d="M26.2,5.5L26.2,5.5z M2.9,29.9C3,17.1,13.4,6.8,26.2,6.9v1c-5.9,0-11.6,2.3-15.8,6.5c-8.6,8.4-8.7,22.2-0.3,30.8
	c0.1,0.1,0.2,0.2,0.3,0.3c8.7,8.6,22.8,8.6,31.5,0c8.6-8.4,8.7-22.2,0.3-30.8c-0.1-0.1-0.2-0.2-0.3-0.3c-4.2-4.1-9.9-6.5-15.8-6.5
	v-1C38.9,7,49.1,17.5,49,30.2C48.8,42.9,38.4,53.1,25.7,53C13,52.8,2.9,42.5,2.9,29.9z M8.1,47.9C-1.9,38.1-2,22.1,7.7,12.2
	c0.1-0.1,0.2-0.2,0.3-0.3c4.8-4.8,11.4-7.5,18.2-7.4v1c-6.5,0-12.8,2.6-17.5,7.2C-0.8,22-0.9,37.3,8.5,46.8c0.1,0.1,0.2,0.2,0.3,0.3
	c9.7,9.5,25.2,9.5,34.9,0c9.5-9.4,9.7-24.7,0.3-34.2c-0.1-0.1-0.2-0.2-0.3-0.3C39,8,32.7,5.4,26.2,5.4v-1c6.8,0,13.3,2.7,18.2,7.4
	c9.9,9.8,10.1,25.7,0.3,35.7c-0.1,0.1-0.2,0.2-0.3,0.3C34.3,57.8,18.1,57.8,8.1,47.9z"/>
<g>
	<defs>
		<path id="SVGID_5_" d="M27.2,8c0,0-4.4,2.4-4.5,2.6c-0.8,0.8-1.7,1.5-2.6,2.1l-1.8,2.3l1.7,0.2L20,16.9l0.6,5.4l0.7,3l-0.1,1.6
			l-1.8-3c0,0-2.5-1.4-2.6-1.4c-0.6,0.1-1.3,0.2-1.9,0.4l-2.1,1.9L12,26.9l-0.2,2.6l0.7,2.3l1.8,2.8l1,0.4l2.8,0.5l1.8,3.4l1.1,4.6
			l1,1.5l2,1.2l2.1-0.6l1.3-2.1l1-1.9l4.3-0.2l3-1.7l2.9-6l2-2.8l2.3-3.2l-0.4-3.8l-1.9-1l-0.9-2.5l-1.6-0.7l-2,0.4l0.9-1.5l0.3-1.1
			l0.3-1.8l-0.8-2.1L36,12.4l0.1-2.6l-1-3.4h0l-0.7-2.8l0.8,2.8l5.1-0.3l-7.8-5.3L27.2,8z"/>
	</defs>
	<clipPath id="SVGID_6_">
		<use xlink:href="#SVGID_5_"  style="overflow:visible;"/>
	</clipPath>
	<g class="st156">
		<rect x="11.8" y="0.8" class="st157" width="31.2" height="45.3"/>
		
			<ellipse transform="matrix(0.9946 -0.1037 0.1037 0.9946 -2.3035 2.9149)" class="st157" cx="26.9" cy="23.6" rx="16.1" ry="16.1"/>
		
			<ellipse transform="matrix(0.9946 -0.1037 0.1037 0.9946 -2.3035 2.9149)" class="st158" cx="26.9" cy="23.6" rx="15.9" ry="15.9"/>
		
			<ellipse transform="matrix(0.9946 -0.1037 0.1037 0.9946 -2.3034 2.9159)" class="st159" cx="26.9" cy="23.6" rx="15.8" ry="15.7"/>
		
			<ellipse transform="matrix(0.9946 -0.1037 0.1037 0.9946 -2.3035 2.9149)" class="st160" cx="26.9" cy="23.6" rx="15.6" ry="15.6"/>
		
			<ellipse transform="matrix(0.9946 -0.1037 0.1037 0.9946 -2.3035 2.9149)" class="st161" cx="26.9" cy="23.6" rx="15.4" ry="15.4"/>
		
			<ellipse transform="matrix(0.9946 -0.1037 0.1037 0.9946 -2.3035 2.9149)" class="st162" cx="26.9" cy="23.6" rx="15.3" ry="15.3"/>
		
			<ellipse transform="matrix(0.9946 -0.1037 0.1037 0.9946 -2.3034 2.9159)" class="st163" cx="26.9" cy="23.6" rx="15.1" ry="15.1"/>
		<ellipse transform="matrix(0.9946 -0.1037 0.1037 0.9946 -2.3035 2.9149)" class="st164" cx="26.9" cy="23.6" rx="15" ry="15"/>
		
			<ellipse transform="matrix(0.9946 -0.1037 0.1037 0.9946 -2.3035 2.9149)" class="st165" cx="26.9" cy="23.6" rx="14.8" ry="14.8"/>
		
			<ellipse transform="matrix(0.9946 -0.1037 0.1037 0.9946 -2.3035 2.9149)" class="st166" cx="26.9" cy="23.6" rx="14.7" ry="14.7"/>
		
			<ellipse transform="matrix(0.9949 -0.1005 0.1005 0.9949 -2.1971 2.7607)" class="st167" cx="26.3" cy="23.2" rx="14.4" ry="14.4"/>
		
			<ellipse transform="matrix(0.9946 -0.1037 0.1037 0.9946 -2.3035 2.9149)" class="st168" cx="26.9" cy="23.6" rx="14.3" ry="14.3"/>
		
			<ellipse transform="matrix(0.9946 -0.1037 0.1037 0.9946 -2.3035 2.9149)" class="st169" cx="26.9" cy="23.6" rx="14.2" ry="14.2"/>
		<ellipse transform="matrix(0.9946 -0.1037 0.1037 0.9946 -2.3035 2.9149)" class="st170" cx="26.9" cy="23.6" rx="14" ry="14"/>
		
			<ellipse transform="matrix(0.9946 -0.1037 0.1037 0.9946 -2.3034 2.9159)" class="st171" cx="26.9" cy="23.6" rx="13.9" ry="13.9"/>
		
			<ellipse transform="matrix(0.9946 -0.1037 0.1037 0.9946 -2.3035 2.9149)" class="st172" cx="26.9" cy="23.6" rx="13.7" ry="13.7"/>
		
			<ellipse transform="matrix(0.9946 -0.1037 0.1037 0.9946 -2.3035 2.9149)" class="st173" cx="26.9" cy="23.6" rx="13.5" ry="13.5"/>
		
			<ellipse transform="matrix(0.9946 -0.1037 0.1037 0.9946 -2.3035 2.9149)" class="st174" cx="26.9" cy="23.6" rx="13.4" ry="13.4"/>
		
			<ellipse transform="matrix(0.9946 -0.1037 0.1037 0.9946 -2.3034 2.9159)" class="st175" cx="26.9" cy="23.6" rx="13.2" ry="13.2"/>
		
			<ellipse transform="matrix(0.9946 -0.1037 0.1037 0.9946 -2.3035 2.9149)" class="st176" cx="26.9" cy="23.6" rx="13.1" ry="13.1"/>
		
			<ellipse transform="matrix(0.9946 -0.1037 0.1037 0.9946 -2.3035 2.9149)" class="st177" cx="26.9" cy="23.6" rx="12.9" ry="12.9"/>
		
			<ellipse transform="matrix(0.9946 -0.1037 0.1037 0.9946 -2.3035 2.9149)" class="st178" cx="26.9" cy="23.6" rx="12.8" ry="12.8"/>
		
			<ellipse transform="matrix(0.9946 -0.1037 0.1037 0.9946 -2.3034 2.9159)" class="st179" cx="26.9" cy="23.6" rx="12.6" ry="12.6"/>
		
			<ellipse transform="matrix(0.9946 -0.1037 0.1037 0.9946 -2.3035 2.9149)" class="st180" cx="26.9" cy="23.6" rx="12.4" ry="12.4"/>
		
			<ellipse transform="matrix(0.9946 -0.1037 0.1037 0.9946 -2.3035 2.9149)" class="st181" cx="26.9" cy="23.6" rx="12.3" ry="12.3"/>
		
			<ellipse transform="matrix(0.9946 -0.1037 0.1037 0.9946 -2.3035 2.9149)" class="st182" cx="26.9" cy="23.6" rx="12.1" ry="12.1"/>
		<ellipse transform="matrix(0.9946 -0.1037 0.1037 0.9946 -2.3034 2.9159)" class="st183" cx="26.9" cy="23.6" rx="12" ry="12"/>
		
			<ellipse transform="matrix(0.9946 -0.1037 0.1037 0.9946 -2.3035 2.9149)" class="st184" cx="26.9" cy="23.6" rx="11.8" ry="11.8"/>
		
			<ellipse transform="matrix(0.9946 -0.1037 0.1037 0.9946 -2.3034 2.9159)" class="st185" cx="26.9" cy="23.6" rx="11.7" ry="11.7"/>
		
			<ellipse transform="matrix(0.9946 -0.1037 0.1037 0.9946 -2.3035 2.9149)" class="st186" cx="26.9" cy="23.6" rx="11.5" ry="11.5"/>
		
			<ellipse transform="matrix(0.9946 -0.1037 0.1037 0.9946 -2.3034 2.9159)" class="st187" cx="26.9" cy="23.6" rx="11.3" ry="11.3"/>
		
			<ellipse transform="matrix(0.9946 -0.1037 0.1037 0.9946 -2.3034 2.9159)" class="st188" cx="26.9" cy="23.6" rx="11.2" ry="11.2"/>
		<ellipse transform="matrix(0.9946 -0.1038 0.1038 0.9946 -2.3061 2.922)" class="st189" cx="26.9" cy="23.6" rx="11" ry="11"/>
		
			<ellipse transform="matrix(0.9946 -0.1037 0.1037 0.9946 -2.3035 2.9149)" class="st190" cx="26.9" cy="23.6" rx="10.9" ry="10.9"/>
		
			<ellipse transform="matrix(0.9946 -0.1037 0.1037 0.9946 -2.3034 2.9159)" class="st191" cx="26.9" cy="23.6" rx="10.7" ry="10.7"/>
		
			<ellipse transform="matrix(0.9946 -0.1037 0.1037 0.9946 -2.3035 2.9149)" class="st192" cx="26.9" cy="23.6" rx="10.5" ry="10.5"/>
		
			<ellipse transform="matrix(0.9946 -0.1037 0.1037 0.9946 -2.3034 2.9159)" class="st193" cx="26.9" cy="23.6" rx="10.4" ry="10.4"/>
		
			<ellipse transform="matrix(0.9946 -0.1037 0.1037 0.9946 -2.3035 2.9149)" class="st194" cx="26.9" cy="23.6" rx="10.2" ry="10.2"/>
		
			<ellipse transform="matrix(0.9946 -0.1037 0.1037 0.9946 -2.3034 2.9159)" class="st194" cx="26.9" cy="23.6" rx="10.1" ry="10.1"/>
		<ellipse transform="matrix(0.9946 -0.1037 0.1037 0.9946 -2.3034 2.9159)" class="st195" cx="26.9" cy="23.6" rx="9.9" ry="9.9"/>
		<ellipse transform="matrix(0.9949 -0.1005 0.1005 0.9949 -2.1972 2.7597)" class="st196" cx="26.3" cy="23.2" rx="9.7" ry="9.7"/>
		<ellipse transform="matrix(0.9946 -0.1037 0.1037 0.9946 -2.3035 2.9149)" class="st197" cx="26.9" cy="23.6" rx="9.6" ry="9.6"/>
		<ellipse transform="matrix(0.9946 -0.1037 0.1037 0.9946 -2.3034 2.9159)" class="st198" cx="26.9" cy="23.6" rx="9.5" ry="9.5"/>
		<ellipse transform="matrix(0.9946 -0.1037 0.1037 0.9946 -2.3035 2.9149)" class="st199" cx="26.9" cy="23.6" rx="9.3" ry="9.3"/>
		<ellipse transform="matrix(0.9946 -0.1037 0.1037 0.9946 -2.3034 2.9159)" class="st200" cx="26.9" cy="23.6" rx="9.1" ry="9.1"/>
		<ellipse transform="matrix(0.9946 -0.1037 0.1037 0.9946 -2.3035 2.9149)" class="st201" cx="26.9" cy="23.6" rx="9" ry="9"/>
		<ellipse transform="matrix(0.9946 -0.1037 0.1037 0.9946 -2.3034 2.9159)" class="st202" cx="26.9" cy="23.6" rx="8.8" ry="8.8"/>
		<ellipse transform="matrix(0.9946 -0.1037 0.1037 0.9946 -2.3034 2.9159)" class="st203" cx="26.9" cy="23.6" rx="8.7" ry="8.7"/>
		<ellipse transform="matrix(0.9946 -0.1038 0.1038 0.9946 -2.3062 2.921)" class="st204" cx="26.9" cy="23.6" rx="8.5" ry="8.5"/>
		<ellipse transform="matrix(0.9946 -0.1037 0.1037 0.9946 -2.3035 2.9149)" class="st205" cx="26.9" cy="23.6" rx="8.3" ry="8.3"/>
		<ellipse transform="matrix(0.9946 -0.1037 0.1037 0.9946 -2.3034 2.9159)" class="st206" cx="26.9" cy="23.6" rx="8.2" ry="8.2"/>
		<ellipse transform="matrix(0.9946 -0.1037 0.1037 0.9946 -2.3035 2.9149)" class="st207" cx="26.9" cy="23.6" rx="8" ry="8"/>
		<ellipse transform="matrix(0.9946 -0.1037 0.1037 0.9946 -2.3035 2.9149)" class="st208" cx="26.9" cy="23.6" rx="7.9" ry="7.9"/>
		<ellipse transform="matrix(0.9946 -0.1037 0.1037 0.9946 -2.3035 2.9149)" class="st209" cx="26.9" cy="23.6" rx="7.7" ry="7.7"/>
		<ellipse transform="matrix(0.9946 -0.1037 0.1037 0.9946 -2.3034 2.9159)" class="st210" cx="26.9" cy="23.6" rx="7.6" ry="7.6"/>
		<ellipse transform="matrix(0.9946 -0.1037 0.1037 0.9946 -2.3034 2.9159)" class="st211" cx="26.9" cy="23.6" rx="7.4" ry="7.4"/>
		<ellipse transform="matrix(0.9946 -0.1038 0.1038 0.9946 -2.3061 2.922)" class="st212" cx="26.9" cy="23.6" rx="7.3" ry="7.3"/>
		<ellipse transform="matrix(0.9946 -0.1037 0.1037 0.9946 -2.3035 2.9149)" class="st213" cx="26.9" cy="23.6" rx="7.1" ry="7.1"/>
		<ellipse transform="matrix(0.9946 -0.1037 0.1037 0.9946 -2.3034 2.9159)" class="st214" cx="26.9" cy="23.6" rx="6.9" ry="6.9"/>
		<ellipse transform="matrix(0.9946 -0.1037 0.1037 0.9946 -2.3035 2.9149)" class="st215" cx="26.9" cy="23.6" rx="6.8" ry="6.8"/>
		<ellipse transform="matrix(0.9946 -0.1037 0.1037 0.9946 -2.3034 2.9159)" class="st216" cx="26.9" cy="23.6" rx="6.6" ry="6.6"/>
		<ellipse transform="matrix(0.9946 -0.1037 0.1037 0.9946 -2.3035 2.9149)" class="st216" cx="26.9" cy="23.6" rx="6.5" ry="6.5"/>
	</g>
</g>
<polygon class="st132" points="37.3,18 37.7,17.2 37.6,15.9 37,13.9 36.2,12.6 35.5,12.3 34.5,13.7 34.2,15.3 34.3,16.8 35.8,16.1 
	36.7,18 "/>
<polygon class="st132" points="32.3,20.7 32.4,18.2 31.2,15.2 29.8,14 29.1,14.3 28.3,15.5 27.9,18.1 28.7,20 29.4,19.1 31.1,19.5 
	32,21.2 32.5,20.6 "/>
<g>
	<defs>
		<path id="SVGID_7_" d="M27.1,1.7l-7,2.7L16.4,7l-6.2,4.9L8,9.4l-1.1,1.8l-1.5-0.9l0.5,3.8l1.3,2.5l-0.6,6.5l1,7.1l2.8,5.3l2.9,2.1
			l6.6,1.3l-1.5-3.4l-2.1,0.2l-3.1-1.8l-1.6-6l2.1-4.4l2.3-1.2l2.8,1.6l2.4,2.5l-0.4-2.7l-0.5-6.3l-0.4-1.7c0,0-2.1,0.7-2.5,0.8
			c0.3-0.3,2-2.5,2-2.5l2.1-2.4l4.4-2.7l7.7-1.8h5l2.2,0.6l-1.2-2.6l-2.3-1.8l-3.8-1.4L27.1,1.7z"/>
	</defs>
	<clipPath id="SVGID_8_">
		<use xlink:href="#SVGID_7_"  style="overflow:visible;"/>
	</clipPath>
	<g class="st217">
		<rect x="5.4" y="1.4" class="st218" width="35.3" height="37.4"/>
		
			<ellipse transform="matrix(0.9946 -0.1037 0.1037 0.9946 -1.965 2.6126)" class="st218" cx="24.2" cy="20.2" rx="17.9" ry="17.9"/>
		
			<ellipse transform="matrix(0.9946 -0.1037 0.1037 0.9946 -1.965 2.6126)" class="st219" cx="24.2" cy="20.2" rx="17.8" ry="17.8"/>
		
			<ellipse transform="matrix(0.9946 -0.1037 0.1037 0.9946 -1.965 2.6126)" class="st220" cx="24.2" cy="20.2" rx="17.6" ry="17.6"/>
		
			<ellipse transform="matrix(0.9946 -0.1037 0.1037 0.9946 -1.965 2.6126)" class="st221" cx="24.2" cy="20.2" rx="17.5" ry="17.5"/>
		
			<ellipse transform="matrix(0.9946 -0.1037 0.1037 0.9946 -1.965 2.6136)" class="st222" cx="24.2" cy="20.2" rx="17.3" ry="17.3"/>
		
			<ellipse transform="matrix(0.9946 -0.1037 0.1037 0.9946 -1.965 2.6126)" class="st223" cx="24.2" cy="20.2" rx="17.2" ry="17.2"/>
		<ellipse transform="matrix(0.9946 -0.1037 0.1037 0.9946 -1.965 2.6126)" class="st224" cx="24.2" cy="20.2" rx="17" ry="17"/>
		
			<ellipse transform="matrix(0.9946 -0.1037 0.1037 0.9946 -1.965 2.6126)" class="st225" cx="24.2" cy="20.2" rx="16.9" ry="16.9"/>
		
			<ellipse transform="matrix(0.9946 -0.1037 0.1037 0.9946 -1.965 2.6126)" class="st226" cx="24.2" cy="20.2" rx="16.7" ry="16.7"/>
		
			<ellipse transform="matrix(0.9946 -0.1037 0.1037 0.9946 -1.965 2.6126)" class="st227" cx="24.2" cy="20.2" rx="16.6" ry="16.6"/>
		
			<ellipse transform="matrix(0.9946 -0.1037 0.1037 0.9946 -1.965 2.6126)" class="st228" cx="24.2" cy="20.2" rx="16.4" ry="16.4"/>
		
			<ellipse transform="matrix(0.9946 -0.1037 0.1037 0.9946 -1.965 2.6126)" class="st229" cx="24.2" cy="20.2" rx="16.3" ry="16.3"/>
		
			<ellipse transform="matrix(0.9946 -0.1037 0.1037 0.9946 -1.965 2.6126)" class="st230" cx="24.2" cy="20.2" rx="16.1" ry="16.1"/>
		<ellipse transform="matrix(0.9946 -0.1037 0.1037 0.9946 -1.965 2.6126)" class="st135" cx="24.2" cy="20.2" rx="16" ry="16"/>
		
			<ellipse transform="matrix(0.9946 -0.1037 0.1037 0.9946 -1.965 2.6126)" class="st135" cx="24.2" cy="20.2" rx="15.8" ry="15.8"/>
		
			<ellipse transform="matrix(0.9946 -0.1037 0.1037 0.9946 -1.965 2.6136)" class="st231" cx="24.2" cy="20.2" rx="15.7" ry="15.7"/>
		
			<ellipse transform="matrix(0.9946 -0.1037 0.1037 0.9946 -1.965 2.6126)" class="st232" cx="24.2" cy="20.2" rx="15.5" ry="15.5"/>
		
			<ellipse transform="matrix(0.9946 -0.1037 0.1037 0.9946 -1.965 2.6126)" class="st232" cx="24.2" cy="20.2" rx="15.4" ry="15.4"/>
		
			<ellipse transform="matrix(0.9946 -0.1037 0.1037 0.9946 -1.965 2.6136)" class="st136" cx="24.2" cy="20.2" rx="15.2" ry="15.2"/>
		
			<ellipse transform="matrix(0.9946 -0.1037 0.1037 0.9946 -1.965 2.6126)" class="st233" cx="24.2" cy="20.2" rx="15.1" ry="15.1"/>
		
			<ellipse transform="matrix(0.9946 -0.1037 0.1037 0.9946 -1.965 2.6126)" class="st234" cx="24.2" cy="20.2" rx="14.9" ry="14.9"/>
		
			<ellipse transform="matrix(0.9946 -0.1037 0.1037 0.9946 -1.965 2.6126)" class="st137" cx="24.2" cy="20.2" rx="14.8" ry="14.8"/>
		
			<ellipse transform="matrix(0.9946 -0.1037 0.1037 0.9946 -1.965 2.6126)" class="st137" cx="24.2" cy="20.2" rx="14.6" ry="14.6"/>
		
			<ellipse transform="matrix(0.9946 -0.1037 0.1037 0.9946 -1.965 2.6126)" class="st235" cx="24.2" cy="20.2" rx="14.5" ry="14.5"/>
		
			<ellipse transform="matrix(0.9946 -0.1037 0.1037 0.9946 -1.965 2.6126)" class="st236" cx="24.2" cy="20.2" rx="14.4" ry="14.4"/>
		
			<ellipse transform="matrix(0.9946 -0.1037 0.1037 0.9946 -1.965 2.6126)" class="st138" cx="24.2" cy="20.2" rx="14.2" ry="14.2"/>
		<ellipse transform="matrix(0.9946 -0.1037 0.1037 0.9946 -1.965 2.6136)" class="st138" cx="24.2" cy="20.2" rx="14" ry="14.1"/>
		
			<ellipse transform="matrix(0.9946 -0.1037 0.1037 0.9946 -1.965 2.6126)" class="st237" cx="24.2" cy="20.2" rx="13.9" ry="13.9"/>
		
			<ellipse transform="matrix(0.9946 -0.1037 0.1037 0.9946 -1.965 2.6126)" class="st139" cx="24.2" cy="20.2" rx="13.8" ry="13.8"/>
		
			<ellipse transform="matrix(0.9946 -0.1037 0.1037 0.9946 -1.965 2.6136)" class="st238" cx="24.2" cy="20.2" rx="13.6" ry="13.6"/>
		
			<ellipse transform="matrix(0.9946 -0.1037 0.1037 0.9946 -1.965 2.6126)" class="st238" cx="24.2" cy="20.2" rx="13.5" ry="13.5"/>
		
			<ellipse transform="matrix(0.9946 -0.1037 0.1037 0.9946 -1.965 2.6126)" class="st140" cx="24.2" cy="20.2" rx="13.3" ry="13.3"/>
		
			<ellipse transform="matrix(0.9946 -0.1037 0.1037 0.9946 -1.9639 2.6136)" class="st239" cx="24.2" cy="20.2" rx="13.2" ry="13.2"/>
		<ellipse transform="matrix(0.9946 -0.1037 0.1037 0.9946 -1.965 2.6136)" class="st141" cx="24.2" cy="20.2" rx="13" ry="13"/>
		
			<ellipse transform="matrix(0.9946 -0.1037 0.1037 0.9946 -1.965 2.6126)" class="st141" cx="24.2" cy="20.2" rx="12.9" ry="12.9"/>
		
			<ellipse transform="matrix(0.9946 -0.1037 0.1037 0.9946 -1.965 2.6126)" class="st240" cx="24.2" cy="20.2" rx="12.7" ry="12.7"/>
		
			<ellipse transform="matrix(0.9946 -0.1037 0.1037 0.9946 -1.965 2.6126)" class="st142" cx="24.2" cy="20.2" rx="12.6" ry="12.6"/>
		
			<ellipse transform="matrix(0.9946 -0.1037 0.1037 0.9946 -1.965 2.6126)" class="st143" cx="24.2" cy="20.2" rx="12.4" ry="12.4"/>
		
			<ellipse transform="matrix(0.9946 -0.1037 0.1037 0.9946 -1.965 2.6126)" class="st241" cx="24.2" cy="20.2" rx="12.3" ry="12.3"/>
		
			<ellipse transform="matrix(0.9946 -0.1037 0.1037 0.9946 -1.965 2.6126)" class="st241" cx="24.2" cy="20.2" rx="12.1" ry="12.1"/>
		
			<ellipse transform="matrix(0.9949 -0.1005 0.1005 0.9949 -1.869 2.4698)" class="st144" cx="23.6" cy="19.8" rx="11.9" ry="11.9"/>
		
			<ellipse transform="matrix(0.9946 -0.1037 0.1037 0.9946 -1.965 2.6126)" class="st145" cx="24.2" cy="20.2" rx="11.8" ry="11.8"/>
		
			<ellipse transform="matrix(0.9946 -0.1037 0.1037 0.9946 -1.965 2.6136)" class="st146" cx="24.2" cy="20.2" rx="11.7" ry="11.7"/>
		
			<ellipse transform="matrix(0.9946 -0.1037 0.1037 0.9946 -1.965 2.6126)" class="st146" cx="24.2" cy="20.2" rx="11.5" ry="11.5"/>
		
			<ellipse transform="matrix(0.9946 -0.1037 0.1037 0.9946 -1.965 2.6126)" class="st147" cx="24.2" cy="20.2" rx="11.4" ry="11.4"/>
		
			<ellipse transform="matrix(0.9946 -0.1037 0.1037 0.9946 -1.965 2.6126)" class="st148" cx="24.2" cy="20.2" rx="11.2" ry="11.2"/>
		
			<ellipse transform="matrix(0.9946 -0.1037 0.1037 0.9946 -1.965 2.6136)" class="st149" cx="24.2" cy="20.2" rx="11.1" ry="11.1"/>
		
			<ellipse transform="matrix(0.9946 -0.1037 0.1037 0.9946 -1.965 2.6126)" class="st150" cx="24.2" cy="20.2" rx="10.9" ry="10.9"/>
		
			<ellipse transform="matrix(0.9946 -0.1037 0.1037 0.9946 -1.965 2.6126)" class="st151" cx="24.2" cy="20.2" rx="10.8" ry="10.8"/>
		
			<ellipse transform="matrix(0.9946 -0.1037 0.1037 0.9946 -1.965 2.6126)" class="st152" cx="24.2" cy="20.2" rx="10.6" ry="10.6"/>
		
			<ellipse transform="matrix(0.9946 -0.1037 0.1037 0.9946 -1.965 2.6136)" class="st154" cx="24.2" cy="20.2" rx="10.5" ry="10.5"/>
	</g>
</g>
<path d="M17.5,47c-0.6,0.5-1.8,3.1-1.4,3.6s2.3,2.7,3.8,1.6C18.3,51,17.4,49.1,17.5,47z M15.7,25.9c-1,0.8-1,3.6-0.5,5.6
	c0.6-0.5,0.1-2.1,1-2.4c0,0.1,1,1.4,1.2,1.2C16.9,29.1,17,26.3,15.7,25.9z M18.1,19.7l0.1-1.6c-1.9,0.5-3.7,1.4-5.3,2.6
	C14.6,20,16.3,19.7,18.1,19.7L18.1,19.7z M29.4,14.4c1.2-0.1,2.6,2.4,2.8,5.8c-0.6-3.1-2.8-3.2-3.5-1.5
	C28.3,17.1,28.4,14.8,29.4,14.4L29.4,14.4z M29.3,23c0.8,0.4,2.7,0.4,3,0c1.4-3.2-0.7-10.5-3.4-9C26.6,16.1,27.6,21.5,29.3,23
	L29.3,23z M42.6,26.5c-0.3,1.6-1.7,3.4-4,6.5c-1.1,2.3-1.8,3.8-2.1,4.4s-0.5,1-0.6,1.1c-1.6,2.5-4.7,3.3-9.3,2c0,0,0,0.4,1.2,1
	c-0.7,0.8-1,1.9-1.1,2.9c-1.5,1.6-4.2,1-4.8-0.7c0-1.1-0.1-1.4-0.1-2.5c0-0.7,0.5-0.6,1-0.8c0.3-0.2,0.6-0.4,0.9-0.6
	c-2.6-0.5-4.6-2.5-5.1-5.1c-1.1,0.8-4.2,0.1-5.8-4.6c-0.9-2.8,0.9-7.2,3.4-7.1c3,0.2,4.1,2.8,4.6,4.3c0.6,0.1,1.2-0.1,1.6-0.4
	c-0.9-2.4-1.5-4.9-1.7-7.5c-0.2-2,0.3-3.9,1.2-5.6c-0.8,0.2-1.5,0.5-2.2,0.9c3.7-4.7,9.4-7.4,15.4-7.5C35,8.1,35.2,9,35.6,9.8
	c-1.2,0.3-2.1,1.3-2.2,2.6c0.7-0.6,1.6-1,2.5-1.1c0,0.3,0,0.6,0,0.9c-0.2-0.1-0.4,0-0.5,0.1c-2.5,2-1.4,6.2-0.5,7.3
	c0.2,0.2,0.4,0.4,0.7,0.5c-0.4,0.1-0.7,0.3-1,0.6c-0.5,0.3-0.2,0.9,0.2,1.2c0.7-0.5,1.4-0.9,2.1-1.2c1-0.5,2.3-0.7,2.8,0.7
	c0.2,0.9-0.2,1.9-1,2.3c-1.4,0.9-2.3,1.4-2.3,1.4s0,0.4,1,0.4l0.7-0.4l1.4,2.2c-5.1,4.4-9.5,4.9-13.5,3.4c0-0.6,0.8-1.2,0.6-1.3
	s-0.5,0-0.8,0.3c-0.4,0.3-0.7,0.7-0.9,1.2c-0.2,0.4-0.3,0.9-0.3,1.4c0.1,0.5,1.1-0.4,1.1-0.8c1.5,0.9,2.3,6.2,6.5,6.5
	c1.4-0.1,2.6-1.1,3-2.5c0.7-1.6,2.6-6.4,5.2-8.4l-1.6-2.6l1.3-0.8h0.1c0.7-0.3,1.6,0,2,0.7C42.6,24.9,42.7,25.7,42.6,26.5L42.6,26.5
	z M8.4,16.1C6.9,14.8,5.9,13,5.8,11c0.4,0.7,1,1.3,1.6,1.8c0.1-0.8,0.3-1.7,0.7-2.5c0.3,1.1,1,2.1,1.9,2.8c0.1-0.2,4.1-5.4,12.4-9
	c12-4.6,16.5-0.4,17.6,2.4C37,5.7,30.5,5.9,24.4,9c-5.4,2.8-9.1,8.4-10,9.8c1.6-1,3.3-1.8,5.1-2.3c-0.3,3.1,0.1,6.1,1.2,9
	c-0.7-2.5-3.2-4-5.7-3.4c-1.9,0.8-3.2,2.4-3.6,4.4c-0.6,2.6,0,5.4,1.7,7.6c1.9,2.4,4.1,2,4.7,2.2l1.1,2C6.9,37.1,5.8,25.1,8.4,16.1z
	 M37.3,17.6c-0.2-2.8-2.1-3.3-2.8-1.5c0-1,0.3-3.2,1-3.4S37.7,15.1,37.3,17.6z M40.9,22.4c0.6-1.8-1.4-3.9-3.7-3l-0.3,0.1l0,0
	c1.7-2.1,0.8-5.4-0.3-6.8c-0.1-0.5,0-0.9,0.2-1.3l0,0c1-0.3,0.4-1.5,0-1.6c-0.1,0-0.3,0-0.4-0.1C36,9,35.8,8.1,35.7,7.2
	c2.7,0.1,4.7,0.7,5.3,1.3c-0.3-4.8-6.8-10.8-17.3-6.6C18.7,4,14,7.1,10.1,11C10,10.9,8.5,9.4,8.5,8l-1.7,2.2L4.9,9
	c-0.6,3.4,1.6,7.8,1.6,7.8c-1.6,7.9,0,13.6,2.7,18.4c2.8,2.8,6.5,4.4,10.5,4.5l0,0c0.1,0.7,0.4,1.5,0.6,2.4
	c-3.4-0.5-6.8,1.1-9.8,4.4c0.2,0.1,0.3,0.3,0.5,0.4c0.3,0.2,0.5,0.4,0.8,0.6c2.6-3.8,5.6-5.3,8.8-4.4c0.1,0.3,0.1,0.6,0.2,0.9
	c1,2.5,5,4.1,7.1,0c1.8,0,3.5,0.6,5,1.5c1.6,0.9,2.6,3.7,3.2,5.2s1.9-0.8,1.9-0.8s-1.6-3.8-4.7-5.5c-1.6-0.9-3.2-1.5-5-1.8
	c0.2-0.3,0.3-0.7,0.6-0.9c4.8,1.5,7.1-1.1,7.6-2.1c1-2.1,2.3-5.7,3.9-7.3c1.7-1.7,2.8-3.8,3.3-6.1C43.9,24.8,42.9,22.3,40.9,22.4
	L40.9,22.4z"/>
<path class="st131" d="M28.2,33.9c0.9-0.1,1.7,0,2.5,0.2c0.9,0.3,1.6,0.9,2.1,1.7c0.2-0.8-1.3-1.7-1.3-1.7s2.4,0.1,2.6,1
	c0.2,0.7-0.9,1.9-2.5,1.5C30.1,36.2,28.9,35.2,28.2,33.9z"/>
<path class="st132" d="M35.5,32.1l0.6-1.4c-1.8,1-4.8,1.4-7.8,1l0.8,0.6C31.2,33,33.5,32.9,35.5,32.1z"/>
<path class="st132" d="M28.6,3.3c3.5-0.4,5.8-0.4,8.9,1.6C32,4.2,27.3,5.7,25.1,7.5c-1.8-0.1-3.6,0.2-5.3,0.9
	c1.8-1.5,3.9-2.5,6.1-3.1c0,0-0.7-0.6-3.9,0.1C24.1,4.2,26.3,3.5,28.6,3.3z"/>
<path class="st132" d="M12.1,35c-0.5-0.1-6.5-6.3-3-15.7c-0.2,1.2-0.2,2.5-0.2,3.7l1.5-0.1C9.1,27,9.7,31.4,12.1,35z"/>
<path d="M28.3,13.3c2.1-0.3,2.5-1.3,1.9-1.8c-1-0.8-2.7,0-3.7,1.3C26,13.5,26,14.3,26.3,15C26.6,14.2,27.4,13.6,28.3,13.3z"/>
<path d="M26.6,12.9c-0.2,0.4-0.4,0.8-0.4,1.3c0,0.2,0,0.4,0.1,0.6c0.4-0.8,1.1-1.3,2-1.5v0.1v-0.1c1.5-0.2,2-0.8,2-1.2
	c0-0.1-0.1-0.3-0.2-0.4c-0.3-0.2-0.6-0.3-0.9-0.3l0,0C28.1,11.5,27.2,12,26.6,12.9z M26.1,15.1c-0.1-0.3-0.2-0.7-0.2-1
	c0-0.5,0.1-1,0.4-1.4c0.6-0.9,1.7-1.5,2.8-1.6c0.4,0,0.8,0.1,1.1,0.4c0.2,0.1,0.3,0.4,0.3,0.6c0,0.6-0.7,1.2-2.3,1.5
	c-0.6,0.1-1.1,0.4-1.5,0.9c-0.2,0.2-0.3,0.4-0.4,0.7l-0.1,0.3L26.1,15.1z"/>
<ellipse transform="matrix(0.9954 -9.532455e-02 9.532455e-02 0.9954 -1.8181 2.9514)" cx="30" cy="20.5" rx="1" ry="1.7"/>
<ellipse transform="matrix(0.9955 -9.497707e-02 9.497707e-02 0.9955 -1.53 3.4456)" cx="35.4" cy="17.8" rx="0.9" ry="1.7"/>
<path class="st132" d="M29.5,20c0,0.2,0,0.5,0,0.7c0,0.2,0.1,0.5,0.2,0.7c0.1,0.2,0.2,0.3,0.3,0.3s0.2-0.1,0.2-0.3
	c0-0.2,0-0.5,0-0.7c0-0.2-0.1-0.5-0.2-0.7c-0.1-0.2-0.2-0.3-0.3-0.3S29.6,19.9,29.5,20z"/>
<path class="st132" d="M35.2,17.5c0,0.2,0,0.4,0,0.6c0,0.2,0.1,0.4,0.2,0.6c0.1,0.2,0.2,0.2,0.2,0.2s0.1-0.1,0.2-0.3
	c0-0.2,0-0.4,0-0.6c0-0.2-0.1-0.4-0.2-0.6c-0.1-0.2-0.2-0.2-0.2-0.2S35.2,17.3,35.2,17.5z"/>
<ellipse transform="matrix(0.9954 -9.532455e-02 9.532455e-02 0.9954 -1.8551 2.9663)" cx="30.1" cy="20.9" rx="1" ry="1.7"/>
<ellipse transform="matrix(0.9955 -9.497707e-02 9.497707e-02 0.9955 -1.5688 3.4606)" cx="35.6" cy="18.2" rx="0.9" ry="1.7"/>
<path class="st132" d="M29.7,20.4c0,0.2,0,0.5,0,0.7c0,0.2,0.1,0.5,0.2,0.7c0.1,0.2,0.2,0.3,0.3,0.3s0.2-0.1,0.2-0.3
	c0-0.2,0-0.5,0-0.7c0-0.2-0.1-0.5-0.2-0.7c-0.1-0.2-0.2-0.3-0.3-0.3S29.7,20.2,29.7,20.4z"/>
<path class="st132" d="M35.3,17.9c-0.1,0.4,0,0.8,0.2,1.2c0.1,0.2,0.2,0.2,0.2,0.2s0.1-0.1,0.2-0.3c0-0.2,0-0.4,0-0.6
	c0-0.2-0.1-0.4-0.2-0.6c-0.1-0.2-0.2-0.2-0.2-0.2S35.3,17.7,35.3,17.9z"/>
<path class="st154" d="M133.1,31.5c0.4,0,0.8,0,1.2-0.1c0.5-0.1,1.1-0.3,1.5-0.6c0.7-0.5,1.3-1.1,1.8-1.8c0.4-0.6,0.7-1.3,0.9-1.9
	c0.3-0.8,0.6-1.6,0.8-2.4l0.2-0.5c0.1-0.2,0.1-0.4,0.2-0.5c0.1-0.3,0.2-0.6,0.3-0.9c0.2-0.7,0.4-1.5,0.6-2.3
	c0.4-1.6,0.8-3.1,1.2-4.5v-0.1h0.1c0.3-0.1,0.5-0.2,0.8-0.3c0-1-0.1-1.9-0.2-2.9l-5.5,0.4c0,0.1,0,0.2,0,0.2c0,0.9,0.1,1.8,0.2,2.6
	c0.3,0,0.7,0.1,1,0.3l0.1,0.1v0.1c-0.4,1.5-0.6,2.9-0.9,4.4v0l0,0l0,0c0,0,0,0.2,0,0.3c0,0.2-0.1,0.3-0.3,0.4h-0.1l0,0
	c-0.3-0.2-0.2-0.6-0.3-0.6c-0.1-0.6-0.3-1.1-0.5-1.6c-0.7-2.1-1.4-4.1-2.1-6.1c-1.3,0.1-2.6,0.3-3.9,0.6c0,0.1,0,0.2,0,0.3
	c0,0.9,0.1,1.7,0.2,2.6h0.1c0.3,0,0.6,0,0.9,0.1h0.1v0.1c1.1,3.1,2.5,6.1,4,9.1V26v0.1c-0.2,0.7-0.3,1.5-1.1,1.9l0,0
	c-0.3,0-0.6,0.1-0.9,0.1c-0.6,0-1.2-0.1-1.9-0.2c-0.2,1-0.3,2-0.4,3c0,0.1,0,0.1,0,0.2C131.6,31.3,132.3,31.5,133.1,31.5z
	 M130.6,31.4h-0.1v-0.1c0-0.1,0-0.2,0-0.4c0.1-1.1,0.2-2.2,0.4-3.3v-0.2h0.2c0.7,0.1,1.3,0.2,2,0.2c0.3,0,0.5,0,0.8-0.1
	c0.5-0.2,0.6-0.9,0.8-1.6c-1.5-2.9-2.9-5.9-4-9c-0.2-0.1-0.4-0.1-0.6-0.1h-0.4v-0.2c-0.2-0.9-0.2-1.9-0.2-2.8c0-0.1,0-0.3,0-0.4
	v-0.1h0.1c1.4-0.3,2.8-0.6,4.3-0.7h0.1V13c0.7,2.1,1.5,4.1,2.2,6.3c0.2,0.5,0.3,1,0.5,1.5l0,0c0.2-1.4,0.5-2.9,0.8-4.3
	c-0.2-0.1-0.6-0.1-0.9-0.2h-0.1v-0.1c-0.2-0.9-0.2-1.9-0.2-2.8c0-0.1,0-0.3,0-0.4v-0.2h0.2l5.8-0.4h0.1v0.1c0.2,1.1,0.3,2.1,0.3,3.2
	v0.1h-0.1c-0.3,0.1-0.6,0.2-0.8,0.3c-0.4,1.4-0.7,2.9-1.1,4.4c-0.2,0.7-0.3,1.5-0.6,2.3c-0.1,0.3-0.2,0.6-0.3,0.9s-0.1,0.3-0.2,0.5
	l-0.2,0.5c-0.2,0.8-0.5,1.6-0.8,2.4c-0.2,0.7-0.6,1.4-0.9,2c-0.5,0.8-1.1,1.4-1.9,1.9c-0.5,0.3-1.1,0.6-1.6,0.7
	c-0.4,0.1-0.8,0.1-1.2,0.1C132.2,31.9,131.4,31.7,130.6,31.4L130.6,31.4z"/>
<path class="st154" d="M57.1,26.4c0.1,0.5,0.2,1,0.3,1.5l6.9-0.9c0-0.5-0.1-1-0.1-1.5s-0.2-1-0.3-1.5l-1.3-0.1l-0.4-3.5l5-0.6
	l0.4,3.5l-1.3,0.4c0,0.5,0.1,1,0.1,1.5s0.2,1,0.3,1.5l6.9-0.9c0-0.5-0.1-1-0.1-1.5s-0.2-1-0.3-1.5h-1.6l-1.3-10l1.6-0.5
	c0-0.5-0.1-1-0.1-1.5s-0.2-1-0.3-1.5l-6.9,0.9c0,0.5,0.1,1,0.1,1.5s0.2,1,0.3,1.5l1.3,0.1l0.4,3.2l-5,0.6L61.2,14l1.3-0.4
	c0-0.5-0.1-1-0.1-1.5s-0.2-1-0.3-1.5l-6.9,0.9c0,0.5,0.1,1,0.1,1.5s0.2,1,0.3,1.5h1.6l1.3,10L57,25C57,25.4,57,25.9,57.1,26.4z
	 M57,28.1c-0.1-0.5-0.2-1.2-0.3-1.7s-0.1-1.2-0.1-1.7v-0.2l1.5-0.4l-1.2-9.3h-1.6v-0.2c-0.1-0.5-0.2-1.1-0.3-1.7s-0.1-1.2-0.1-1.7
	v-0.2l7.7-1v0.2c0.1,0.5,0.2,1.2,0.3,1.7s0.1,1.2,0.1,1.7v0.2l-1.3,0.4l0.3,2.5l4.2-0.5l-0.3-2.5l-1.3-0.1v-0.2
	c-0.1-0.5-0.2-1.1-0.3-1.7s-0.1-1.2-0.1-1.7V10l7.7-1v0.2c0.1,0.5,0.2,1.2,0.3,1.7s0.1,1.2,0.1,1.7v0.2l-1.5,0.4l1.2,9.3h1.6v0.2
	c0.1,0.5,0.2,1.1,0.3,1.7s0.1,1.2,0.2,1.7l0,0v0.2l-7.7,1v-0.2c-0.1-0.5-0.2-1.2-0.3-1.7s-0.1-1.2-0.1-1.7v-0.2l1.2-0.4l-0.4-2.8
	l-4.2,0.5l0.4,2.8l1.3,0.1v0.2c0.1,0.5,0.2,1.1,0.3,1.7s0.1,1.2,0.1,1.7v0.2l-7.7,1L57,28.1z"/>
<path class="st154" d="M81.6,26.9H82L81.9,28l5.3,0.2c0.1-0.5,0.1-0.9,0.1-1.4c0-0.2,0-0.4,0-0.6s0-0.5,0-0.8l-1.5-0.3l0.2-6.3
	l0.2-3.3L81,15.3c-0.1,0.5-0.1,0.9-0.1,1.4c0,0.2,0,0.4,0,0.6s0,0.5,0,0.8l1.4,0.3l-0.2,6.1L82,24.5c-0.6,0.3-1.2,0.4-1.8,0.4h-0.1
	c-0.4,0-0.8-0.1-1.1-0.3c-0.3-0.3-0.4-0.6-0.3-1c0,0,0-0.1,0-0.1l0.2-4.9l0.3-3.4h-1.7c-1.1,0-2.3,0-3.4,0.2
	c-0.1,0.4-0.1,0.9-0.1,1.4c0,0.2,0,0.4,0,0.6s0,0.5,0,0.8l1.3,0.2L75,24.1c0,0.1,0,0.2,0,0.3c0,2.6,1.2,3.6,3.2,3.7h0.2
	c1.1,0,2.2-0.4,3.1-1.2H81.6L81.6,26.9z M87.4,28.4L87.4,28.4z M81.5,28.4l0.1-1c-0.9,0.8-2,1.2-3.2,1.2h-0.2
	c-2.2-0.1-3.6-1.4-3.6-4.1c0-0.1,0-0.2,0-0.3l0.2-5.5l-1.2-0.2v-0.2c0-0.3,0-0.7,0-1s0-0.4,0-0.7c0-0.5,0.1-1.1,0.1-1.6V15h0.2
	c1.2-0.1,2.4-0.2,3.6-0.2c0.7,0,1.3,0,1.9,0h0.2l-0.3,3.9l-0.2,4.9c0,0,0,0.1,0,0.1c0,0.2,0,0.5,0.2,0.7c0.2,0.2,0.5,0.2,0.8,0.2
	h0.1c0.5,0,1-0.1,1.5-0.3l0.2-5.5l-1.4-0.3v-0.2c0-0.3,0-0.6,0-1s0-0.4,0-0.6c0-0.5,0.1-1.1,0.1-1.6v-0.2l6,0.2l-0.2,3.8l-0.2,5.9
	l1.5,0.3v0.2c0,0.3,0,0.6,0,1s0,0.4,0,0.6c0,0.5-0.1,1.1-0.1,1.6v0.2L81.5,28.4z"/>
<path class="st154" d="M89.5,24.9c0,0.3,0,0.7,0,1s0.1,0.9,0.1,1.4l6.2-0.4c0-0.1,0-0.2,0-0.3c0-0.3,0-0.7,0-1.1s-0.1-0.9-0.1-1.4
	l-1-0.2l-0.4-6l0.1-0.1c0.6-0.3,1.2-0.5,1.8-0.6h0.2c0.4,0,0.7,0.1,1,0.3c0.2,0.3,0.3,0.6,0.3,0.9l0.3,5.2l-1,0.3c0,0.1,0,0.3,0,0.4
	c0,0.3,0,0.7,0,1s0.1,0.9,0.1,1.4l6.1-0.4c0-0.1,0-0.2,0-0.3c0-0.3,0-0.7,0-1.1s-0.1-0.9-0.1-1.4l-1.5-0.2l-0.4-5.9
	c-0.2-2.7-1.5-3.6-3.3-3.6h-0.3c-1.3,0-2.5,0.7-3.2,1.7l-0.1,0.1h-0.1H94v-1.5c-1.7,0.1-3.5,0.3-5.2,0.6c0,0.1,0,0.3,0,0.4
	c0,0.3,0,0.7,0,1c0,0.3,0.1,0.9,0.2,1.4l1.6,0.1l0.4,6.4l-1.5,0.3C89.5,24.7,89.5,24.8,89.5,24.9z M89.3,27.5
	c-0.1-0.5-0.1-1.1-0.2-1.6c0-0.3,0-0.7,0-1s0-0.4,0-0.6v-0.2l1.4-0.3l-0.3-5.7l-1.6,0v-0.2c-0.1-0.5-0.1-1.1-0.2-1.6
	c0-0.3,0-0.7,0-1s0-0.4,0-0.6v-0.2h0.2c1.8-0.4,3.7-0.6,5.6-0.7h0.2v1.3c0.8-1,2-1.6,3.3-1.7h0.3c2,0,3.5,1.2,3.7,4l0.3,5.6l1.4,0.2
	v0.2c0.1,0.5,0.1,1.1,0.2,1.6s0,0.7,0,1.1c0,0.2,0,0.3,0,0.5v0.2l-6.8,0.4v-0.2c-0.1-0.5-0.1-1.1-0.2-1.6c0-0.3,0-0.7,0-1
	s0-0.4,0-0.6v-0.1l0.9-0.3l-0.3-4.9c0-0.2-0.1-0.5-0.2-0.7c-0.2-0.2-0.4-0.2-0.7-0.2h-0.2c-0.5,0-1.1,0.2-1.5,0.5l0.3,5.4l1,0.2v0.1
	c0.1,0.5,0.1,1,0.2,1.6c0,0.4,0,0.7,0,1.1c0,0.2,0,0.3,0,0.5v0.2l-6.9,0.4L89.3,27.5z"/>
<path class="st154" d="M109.7,15.7c-0.3,0-0.5,0.1-0.8,0.3c-0.2,0.3-0.3,0.6-0.3,0.9c0,0.1,0,0.1,0,0.2c0,0.4,0.1,0.8,0.3,1.1
	c0.2,0.2,0.5,0.3,0.7,0.3h0.1c0.3,0,0.6-0.1,0.8-0.3c0.2-0.3,0.3-0.6,0.3-1c0-0.1,0-0.1,0-0.2c0-0.4-0.1-0.8-0.3-1.1
	c-0.2-0.2-0.5-0.3-0.7-0.2L109.7,15.7L109.7,15.7L109.7,15.7z M108.7,18.5c-0.3-0.4-0.4-0.9-0.4-1.3c0-0.1,0-0.2,0-0.2
	c0-0.4,0.1-0.9,0.4-1.2c0.3-0.2,0.6-0.4,1-0.4h0.2c0.4,0,0.7,0.1,1,0.4c0.3,0.4,0.4,0.9,0.4,1.3c0,0.1,0,0.2,0,0.2
	c0,0.4-0.1,0.9-0.3,1.3c-0.3,0.3-0.7,0.4-1.1,0.4h-0.1C109.3,18.9,108.9,18.8,108.7,18.5L108.7,18.5z M108.7,26.6L108.7,26.6
	c0,0.4,0.1,0.6,0.3,0.7c0.3,0.2,0.7,0.2,1,0.2h0.6c0.5,0,1.1-0.1,1.6-0.3c0.3-0.1,0.4-0.4,0.4-0.7c0,0,0-0.1,0-0.1
	c0-0.2-0.1-0.3-0.1-0.3s-0.1,0-0.2,0h-0.1l0,0l-3.4,0.2c0,0.1-0.1,0.2-0.1,0.3H108.7z M108.7,27.7c-0.3-0.3-0.4-0.6-0.4-1
	c0,0,0,0,0-0.1c0-0.2,0-0.4,0.1-0.6v-0.1l3.7-0.2h0.1c0.2,0,0.4,0,0.5,0.2c0.1,0.2,0.2,0.4,0.2,0.6c0,0,0,0.1,0,0.1
	c0,0.4-0.2,0.9-0.6,1.1c-0.6,0.2-1.1,0.3-1.7,0.3h-0.6C109.5,28.1,109,28,108.7,27.7L108.7,27.7z M106.2,25.3l0.1,0.2l-0.2,0.1
	c-0.7,0.4-1.1,1.2-1.1,2c0,0,0,0.1,0,0.1c0.1,1.8,1.3,3,4.8,3.1h0.7c4-0.2,5.6-1.9,5.7-4.4c0-0.1,0-0.2,0-0.3
	c-0.2-2.7-1.4-3.3-3.6-3.3h-0.5l-3.1,0.1H109c-0.3,0.1-0.6-0.1-0.6-0.4c0-0.1,0-0.1,0-0.2c0,0,0,0,0-0.1c0-0.3,0.1-0.6,0.2-0.8
	l0.1-0.2h0.2c0.4,0.1,0.8,0.1,1.2,0.1h0.3c2.7-0.2,4.3-1.3,4.3-3.8c0-0.1,0-0.2,0-0.3c0-0.5-0.1-0.9-0.3-1.3l0,0l0,0v-0.4l1.3-0.2
	c0.1-0.5,0.1-1.1,0.1-1.6c0-0.3,0-0.6,0-0.8l-4,0.2l0,0c-0.6-0.1-1.3-0.2-1.9-0.2h-0.4c-3,0.2-4.4,1.8-4.4,4.3c0,0.1,0,0.2,0,0.3
	c0,1.1,0.5,2.2,1.4,2.9l0.1,0.1l-0.1,0.2c-0.5,0.9-0.9,2-1.1,3C105.4,24.2,105.7,24.8,106.2,25.3L106.2,25.3z M104.7,27.7
	c0-0.1,0-0.1,0-0.2c0-0.8,0.4-1.6,1.1-2.2c-0.4-0.5-0.7-1.1-0.9-1.7l0,0l0,0c0.2-1.1,0.6-2.1,1.1-3c-0.9-0.8-1.4-1.9-1.4-3.1
	c0-0.1,0-0.2,0-0.3c0-2.7,1.7-4.6,4.8-4.7h0.4c0.6,0,1.2,0,1.8,0.2l4.4-0.2v0.2c0,0.3,0,0.7,0,1.1c0,0.6,0,1.2-0.1,1.8v0.2l-1.2,0.2
	c0.2,0.4,0.3,0.9,0.3,1.4c0,0.1,0,0.2,0,0.3c0,2.8-1.9,4.2-4.7,4.3h-0.3c-0.4,0-0.8,0-1.1-0.1c-0.1,0.2-0.1,0.3-0.1,0.5l0,0
	c0,0.1,0,0.2,0,0.2s0,0,0.2,0h0.1l3.1-0.1h0.5c2.2,0,3.9,0.8,4,3.7c0,0.1,0,0.2,0,0.3c0,2.8-2,4.7-6,4.9h-0.8h-0.1
	C106.2,31.1,104.7,29.7,104.7,27.7L104.7,27.7z"/>
<path class="st154" d="M127.3,18.8l0.1-0.2L127.3,18.8z M124.6,27c0.1-0.4,0.1-0.9,0.1-1.3s0-0.6,0-0.9c0-0.1,0-0.3,0-0.4l-1.5-0.3
	l0.3-5.4h0.1c0.5-0.2,1.1-0.2,1.6-0.2h0.4c0.5,0,0.9,0.1,1.3,0.2c0.2-1.2,0.4-2.5,0.5-3.8c-0.3-0.1-0.5-0.1-0.8-0.1h-0.1
	c-0.7,0-1.4,0.2-2.5,1.6l-0.1,0.1H124h-0.4l0.2-1.7c-0.8,0-1.8-0.1-2.7-0.1s-1.7,0-2.4,0.1c-0.1,0.4-0.1,0.9-0.1,1.3
	c0,0.4,0,0.6,0,1c0,0.1,0,0.3,0,0.4l1.5,0.2l-0.4,6.3l-1.5,0.2c-0.1,0.4-0.1,0.9-0.1,1.3s0,0.6,0,1c0,0.1,0,0.3,0,0.4L124.6,27z
	 M117.6,27v-0.2c0-0.2,0-0.4,0-0.6s0-0.7,0-1c0-0.5,0.1-1,0.2-1.5v-0.2l1.4-0.2l0.3-5.6l-1.5-0.2v-0.2c0-0.2,0-0.4,0-0.6s0-0.7,0-1
	c0-0.5,0.1-1,0.2-1.5v-0.2h0.2c0.7-0.1,1.6-0.1,2.6-0.1s2.1,0,2.9,0.1h0.2l-0.2,1.5c0.6-0.9,1.5-1.5,2.6-1.5h0.2
	c0.4,0,0.7,0.1,1.1,0.2l0.1,0.1v0.2c-0.1,1.4-0.3,2.8-0.6,4.2V19l-0.2-0.1c-0.5-0.1-1-0.2-1.5-0.3h-0.4c-0.5,0-0.9,0.1-1.4,0.2
	l-0.2,4.8l1.5,0.3v0.2c0,0.2,0,0.4,0,0.6s0,0.6,0,0.9c0,0.5-0.1,1.1-0.2,1.6v0.2L117.6,27z"/>
<polygon class="st242" points="147.9,30 148.6,30 147.9,30 "/>
<polygon class="st154" points="164.8,12.3 164.1,12.3 164.8,12.3 "/>
<path class="st154" d="M148.6,27.6c0,0.3,0,0.5,0,0.7c0,0.4,0.1,1,0.1,1.5l6.9-0.4c0-0.2,0-0.5,0-0.7s0-0.5,0-0.8
	c0-0.5-0.1-1-0.1-1.5l-1.3-0.2l-0.2-3.5l5-0.3l0.2,3.5l-1.3,0.3c0,0.2,0,0.5,0,0.7s0,0.5,0,0.7c0,0.4,0.1,1,0.1,1.5l6.9-0.4
	c0-0.2,0-0.5,0-0.7s0-0.5,0-0.8c0-0.5-0.1-1-0.1-1.4l-1.6-0.2l-0.6-9.9l1.6-0.3c0-0.2,0-0.5,0-0.7s0-0.5,0-0.7c0-0.4-0.1-1-0.1-1.5
	l-6.9,0.4c0,0.2,0,0.5,0,0.7s0,0.5,0,0.8c0,0.5,0.1,1,0.1,1.5l1.3,0.2l0.2,3.2l-5,0.3l-0.2-3.2l1.3-0.3c0-0.2,0-0.5,0-0.7
	s0-0.5,0-0.7c0-0.4-0.1-1-0.1-1.5l-6.9,0.4c0,0.2,0,0.5,0,0.7s0,0.5,0,0.8c0,0.5,0.1,1,0.1,1.4l1.6,0.2l0.6,9.9l-1.6,0.3
	C148.6,27.1,148.6,27.3,148.6,27.6z M148.4,30.1c-0.1-0.5-0.1-1.2-0.2-1.7c0-0.2,0-0.5,0-0.8s0-0.6,0-0.9v-0.2l1.5-0.3l-0.6-9.2
	l-1.5-0.1v-0.2c-0.1-0.5-0.1-1.1-0.2-1.7c0-0.2,0-0.5,0-0.8s0-0.6,0-0.9v-0.2l7.6-0.5v0.2c0.1,0.5,0.1,1.2,0.2,1.7
	c0,0.2,0,0.5,0,0.7s0,0.6,0,0.9v0.2l-1.3,0.3l0.1,2.5l4.2-0.3l-0.1-2.5l-1.3-0.2v-0.2c-0.1-0.5-0.1-1.1-0.2-1.7c0-0.3,0-0.5,0-0.8
	s0-0.6,0-0.9v-0.2l7.6-0.5v0.2c0.1,0.5,0.1,1.2,0.2,1.7c0,0.2,0,0.5,0,0.8s0,0.6,0,0.9v0.2l-1.5,0.3l0.6,9.2l1.6,0.2v0.2
	c0.1,0.5,0.1,1.1,0.2,1.7c0,0.3,0,0.5,0,0.8s0,0.6,0,0.9v0.2l-7.6,0.5v-0.2c-0.1-0.5-0.1-1.2-0.2-1.7c0-0.2,0-0.5,0-0.8s0-0.6,0-0.9
	V26l1.3-0.3l-0.2-2.8l-4.2,0.3l0.2,2.8l1.3,0.2v0.2c0.1,0.5,0.1,1.1,0.2,1.7c0,0.2,0,0.5,0,0.8s0,0.6,0,0.9v0.2l-7.6,0.5L148.4,30.1
	z"/>
<path class="st154" d="M171.6,26.2c-0.2,0-0.4,0-0.6-0.1c-0.9-0.1-1.6-0.9-1.5-1.8c0,0,0,0,0,0c0-0.6,0.1-1.2,0.2-1.9
	c0.1-0.8,0.4-1.6,0.8-2.3c0.3-0.4,0.8-0.7,1.3-0.7c0.2,0,0.4,0,0.6,0.1v0.2v0.2c-0.2,0-0.3,0-0.5,0c-0.4,0-0.7,0.2-0.9,0.5
	c-0.4,0.7-0.6,1.4-0.7,2.1c-0.1,0.6-0.2,1.2-0.2,1.8c0,1,0.4,1.3,1.2,1.5c0.2,0,0.3,0,0.5,0c0.4,0,0.7-0.2,0.9-0.5
	c0.4-0.7,0.6-1.4,0.7-2.1c0.1-0.6,0.2-1.2,0.2-1.8c-0.1-1-0.4-1.3-1.2-1.5v-0.2v-0.2c0.9,0.1,1.6,0.9,1.5,1.8c0,0,0,0,0,0
	c0,0.6-0.1,1.2-0.2,1.9c-0.1,0.8-0.4,1.6-0.8,2.3C172.6,26,172.1,26.2,171.6,26.2L171.6,26.2z M171.9,29.6c-0.5,0-1,0-1.5-0.1v-0.2
	v-0.2c0.5,0.1,1,0.1,1.4,0.1c2.6-0.1,4.8-1.7,5.5-5.2c0.1-0.7,0.2-1.4,0.2-2.1c-0.1-3.1-1.9-4.7-4.6-5.2c-0.5-0.1-1-0.1-1.4-0.1
	c-2.7,0.1-4.8,1.9-5.5,5.2c-0.1,0.7-0.2,1.4-0.2,2.1c0.1,3,1.9,4.7,4.6,5.3v0.2v0.2c-2.9-0.6-4.9-2.4-5-5.7c0-0.7,0.1-1.5,0.2-2.2
	c0.7-3.5,3-5.5,5.9-5.6c0.5,0,1,0,1.5,0.1c2.8,0.6,4.9,2.3,5,5.6c0,0.7-0.1,1.5-0.2,2.2C177.1,27.7,174.7,29.5,171.9,29.6
	L171.9,29.6z"/>
<polygon class="st154" points="197.4,14.8 197.3,14.8 197.4,14.8 "/>
<path class="st154" d="M180,19v0.1c0.7,3,1.6,6.1,2.6,9l3.6-0.2l1.4-6.7c0.1-0.5,0.2-1,0.2-1.6v-0.2h0.2h0.4v0.2
	c0.1,0.5,0.2,1,0.3,1.5l2.1,6.6l3.6-0.2c0.8-3.4,1.4-6.5,1.8-9.4V18l0.9-0.3c0-0.3,0-0.6,0-0.9s0-0.3,0-0.5c0-0.4-0.1-0.9-0.1-1.4
	l-4.9,0.3c0,0.3,0,0.6,0,0.9c0,0.3,0,0.3,0,0.5c0,0.5,0.1,0.9,0.1,1.3l0.9,0.2l-0.4,3c-0.1,0.6-0.1,1.1-0.2,1.7v0.2h-0.2H192v-0.2
	c-0.1-0.6-0.2-1.1-0.4-1.7l-1.8-5.9l-3.5,0.2l-1.2,6c-0.1,0.6-0.2,1.1-0.3,1.7v0.2h-0.2h-0.4v-0.2c0-0.6-0.1-1.1-0.3-1.7l-1.2-6
	c-1.3,0.1-2.7,0.2-4,0.5c0,0.2,0,0.3,0,0.5s0,0.6,0,0.9c0,0.5,0,0.9,0.1,1.3L180,19z M182.3,28.5c-1-3-1.9-6-2.6-9.1l-1-0.1v-0.2
	c-0.1-0.5-0.1-1-0.1-1.5c0-0.3,0-0.6,0-0.9s0-0.5,0-0.7v-0.1h0.2c1.5-0.3,2.9-0.4,4.4-0.5h0.2l1.3,6.3c0.1,0.2,0.1,0.5,0.2,0.9
	c0-0.3,0.1-0.6,0.1-0.9l1.3-6.3l4.1-0.2l1.9,6.2c0.1,0.3,0.2,0.5,0.2,0.8c0-0.3,0.1-0.6,0.1-0.8l0.4-2.6l-0.8-0.2v-0.1
	c-0.1-0.5-0.1-1-0.1-1.5c0-0.2,0-0.3,0-0.5c0-0.4,0-0.8,0-1.1v-0.3l5.6-0.3v0.2c0.1,0.5,0.1,1.1,0.1,1.6c0,0.2,0,0.3,0,0.5
	c0,0.4,0,0.7,0,1.1V18l-0.9,0.3c-0.4,2.9-1,6.1-1.8,9.4v0.2l-4.2,0.2l-2.3-6.8c-0.1-0.3-0.2-0.6-0.2-0.9c0,0.3-0.1,0.6-0.2,0.9
	l-1.5,7l-4.2,0.2L182.3,28.5z"/>
<path class="st154" d="M224.9,30.1c-0.3,0-0.6,0-0.9,0v-0.2v-0.2c0.3,0,0.6,0,0.9,0c2.6-0.1,4.5-1.3,4.7-3.8c0-0.2,0-0.3,0-0.5
	c0-2.8-2.9-3.6-4.5-4.3c-0.5-0.2-0.9-0.4-1-0.9c0,0,0,0,0-0.1c0-0.5,0.4-0.9,0.9-0.9c0,0,0.1,0,0.1,0h0.3c0.3,0,0.6,0.1,0.8,0.2h0.1
	l0.2,1c0.5,0.1,1.1,0.2,1.6,0.2s1,0.1,1.4,0.1l0.3-3.2c-1.2-0.4-2.5-0.7-3.7-0.8c-0.3,0-0.6,0-0.9,0c-2.6,0.1-4.7,1.3-4.9,3.8
	c0,0.1,0,0.3,0,0.4c0,2.6,2.9,3.3,4.5,4c0.5,0.3,0.9,0.5,1,1c0,0,0,0,0,0.1c0,0.5-0.4,0.9-0.8,0.9c-0.1,0-0.1,0-0.2,0h-0.4
	c-0.4,0-0.8-0.1-1.2-0.3h-0.1l-0.2-1c-0.5-0.1-1.1-0.2-1.6-0.2s-1-0.1-1.4-0.1l-0.3,3c1.3,0.8,2.8,1.2,4.4,1.3v0.2v0.2
	c-1.7-0.1-3.3-0.6-4.7-1.4l-0.1-0.1l0.3-3.7h0.2c0.5,0,1.1,0,1.7,0.1s1.3,0.1,1.8,0.2h0.1l0.2,1.1c0.3,0.1,0.6,0.2,0.9,0.2h0.3
	c0.5,0,0.5-0.1,0.6-0.5l0,0c0-0.2-0.2-0.4-0.7-0.6s-1.2-0.5-1.9-0.8c-1.4-0.6-2.8-1.6-2.9-3.6c0-0.2,0-0.3,0-0.5
	c0.2-2.8,2.5-4.2,5.3-4.2c0.3,0,0.7,0,1,0c1.4,0.1,2.7,0.4,4,0.9l0.1,0.1l-0.3,3.9h-0.2c-0.5,0-1.1,0-1.7-0.1s-1.2-0.1-1.8-0.2h-0.1
	l-0.2-1c-0.2-0.1-0.4-0.1-0.6-0.1h-0.2c-0.5,0-0.5,0.1-0.6,0.5l0,0c0,0.1,0.2,0.3,0.7,0.5s1.2,0.5,1.9,0.8c1.6,0.6,2.8,2.1,2.9,3.8
	c0,0.2,0,0.3,0,0.5C229.8,28.6,227.6,30,224.9,30.1L224.9,30.1z"/>
<path class="st154" d="M205.5,29.7c0.1-0.4,0.1-0.9,0.1-1.4s0-0.7,0-1c0-0.1,0-0.2,0-0.3l-1.5-0.3l0.3-6.1l0.3-3.4
	c-1,0-2.1-0.1-3.1,0c-0.8,0-1.5,0.1-2.1,0.1c-0.1,0.4-0.1,0.9-0.1,1.3s0,0.7,0,1c0,0.1,0,0.2,0,0.3l1.5,0.2l-0.3,6.3l-1.5,0.2
	c-0.1,0.4-0.1,0.9-0.1,1.3s0,0.7,0,1.1c0,0.1,0,0.2,0,0.3L205.5,29.7z M205.7,29.9L205.7,29.9z M198.6,29.8v-0.2c0-0.2,0-0.3,0-0.5
	c0-0.4,0-0.7,0-1.1c0-0.5,0.1-1,0.1-1.5v-0.2l1.5-0.2l0.2-5.6l-1.5-0.2v-0.2c0-0.2,0-0.3,0-0.5c0-0.3,0-0.7,0-1.1
	c0-0.5,0.1-1,0.1-1.5v-0.2h0.2c0.7-0.1,1.5-0.1,2.4-0.1c1.1,0,2.3,0,3.4,0h0.2l-0.3,3.8l-0.3,5.8l1.4,0.3v0.2c0,0.2,0,0.3,0,0.5
	c0,0.3,0,0.7,0,1c0,0.5-0.1,1.1-0.1,1.6v0.2L198.6,29.8z"/>
<polygon class="st154" points="218.9,12.4 215.9,13 217.8,17.8 220.1,17.5 "/>
<path class="st154" d="M202.1,15.3c-0.5-0.2-1-0.6-1.3-1.1l0.2-0.2l0.2-0.2c0.3,0.4,0.7,0.7,1.1,0.9c0.4,0.2,0.7,0.2,1.1,0.2
	c0.3,0,0.7-0.1,1-0.2c0.5-0.2,0.9-0.5,1.3-0.9c0.2-0.3,0.3-0.7,0.3-1.2c-0.1-1.1-0.9-1.9-1.9-2.1c-0.3,0-0.6-0.1-0.8-0.1h-0.2
	c-0.6,0.1-1.2,0.3-1.6,0.8c-0.4,0.4-0.6,0.9-0.6,1.5c0,0.1,0,0.1,0,0.2c0,0.3,0.1,0.6,0.3,0.8l-0.2,0.2l-0.2,0.2
	c-0.2-0.3-0.4-0.7-0.4-1.1c0-0.1,0-0.2,0-0.3c0-0.7,0.2-1.4,0.7-1.9c0.6-0.5,1.3-0.8,2-0.9h0.2c0.3,0,0.6,0.1,0.9,0.1h0.1
	c1.3,0.2,2.3,1.3,2.4,2.6c0,0.5-0.1,1-0.4,1.5c-0.4,0.6-0.9,1-1.6,1.2c-0.4,0.1-0.7,0.2-1.1,0.2C203.1,15.6,202.6,15.5,202.1,15.3z"
	/>
<path class="st154" d="M201.1,14.1c0.3,0.4,0.7,0.8,1.2,1c0.7,0.3,1.5,0.3,2.3,0.1c0.6-0.2,1.1-0.6,1.4-1.1c0.8-1.3,0.4-3.1-1.8-3.7
	c-0.3,0-0.7,0-1,0c-0.7,0.1-1.3,0.4-1.8,0.8c-0.5,0.5-0.7,1.2-0.6,1.9C200.8,13.5,200.9,13.8,201.1,14.1z"/>
<polygon class="st132" points="82.2,40.2 87.4,40.2 87.4,41.8 84,41.8 84,42.9 87,42.9 87,44.3 84,44.3 84,46.6 82.2,46.6 "/>
<polygon class="st132" points="88.3,40.2 90.1,40.2 90.1,45.1 93.2,45.1 93.2,46.6 88.4,46.6 "/>
<path class="st132" d="M97.9,44.1l-0.7-1.8l-0.7,1.8H97.9z M96.4,40.2h1.7l2.7,6.4h-1.9l-0.5-1.1H96l-0.5,1.1h-1.8L96.4,40.2z"/>
<polygon class="st132" points="100.2,40.2 102.2,40.2 103.6,44.3 105.1,40.2 107,40.2 104.4,46.7 102.8,46.7 "/>
<path class="st132" d="M112.3,43.4L112.3,43.4c0-0.9-0.7-1.7-1.6-1.7c0,0,0,0-0.1,0c-0.9,0-1.6,0.7-1.6,1.6c0,0,0,0,0,0.1l0,0
	c0,0.9,0.7,1.7,1.6,1.7c0,0,0,0,0.1,0C111.6,45.1,112.3,44.4,112.3,43.4C112.3,43.5,112.3,43.5,112.3,43.4z M107.2,43.4L107.2,43.4
	c0-1.9,1.5-3.4,3.4-3.4c1.9,0,3.5,1.5,3.5,3.4l0,0c0,1.9-1.5,3.4-3.5,3.4C108.8,46.9,107.2,45.3,107.2,43.4z"/>
<path class="st132" d="M118.2,43.3c0.6,0,1-0.3,1-0.8l0,0c0-0.5-0.4-0.8-1-0.8H117v1.5L118.2,43.3z M115.2,40.2h3
	c0.8-0.1,1.5,0.2,2.1,0.7c0.4,0.4,0.6,0.9,0.6,1.5l0,0c0.1,0.9-0.5,1.7-1.3,2l1.5,2.2h-2l-1.3-1.9H117v1.9h-1.8L115.2,40.2z"/>
<polygon class="st132" points="122,40.2 127.1,40.2 127.1,41.7 123.7,41.7 123.7,42.7 126.8,42.7 126.8,44.1 123.7,44.1 123.7,45.1 
	127.2,45.1 127.2,46.6 122,46.6 "/>
<path class="st132" d="M130.8,45c0.9,0.1,1.6-0.5,1.7-1.4c0-0.1,0-0.2,0-0.3l0,0c0-0.9-0.7-1.6-1.5-1.6c-0.1,0-0.2,0-0.2,0H130V45
	L130.8,45z M128.3,40.2h2.4c2.3,0,3.6,1.3,3.6,3.2l0,0c0,1.9-1.3,3.2-3.6,3.2h-2.4L128.3,40.2z"/>
<path class="st132" d="M137.9,43.4L137.9,43.4c0-1.8,1.4-3.3,3.2-3.3c0,0,0.1,0,0.1,0c1.1-0.1,2.1,0.4,2.7,1.3l-1.3,1
	c-0.3-0.5-0.8-0.7-1.4-0.8c-0.9,0-1.6,0.8-1.5,1.6c0,0,0,0,0,0.1l0,0c-0.1,0.9,0.6,1.6,1.4,1.7c0,0,0.1,0,0.1,0
	c0.6,0,1.1-0.3,1.4-0.8l1.3,1c-1.1,1.5-3.2,1.9-4.7,0.9C138.5,45.5,138,44.5,137.9,43.4L137.9,43.4z"/>
<path class="st132" d="M148,43.3c0.6,0,1-0.3,1-0.8l0,0c0-0.5-0.4-0.8-1-0.8h-1.2v1.5L148,43.3z M145,40.2h3
	c0.8-0.1,1.5,0.2,2.1,0.7c0.4,0.4,0.6,0.9,0.6,1.5l0,0c0.1,0.9-0.5,1.7-1.3,2l1.5,2.2h-2l-1.3-1.9h-0.8v1.9H145L145,40.2z"/>
<path class="st132" d="M151.7,43.8v-3.6h1.8v3.6c0,0.9,0.5,1.4,1.2,1.4s1.2-0.4,1.2-1.3v-3.6h1.8v3.6c0.2,1.5-0.8,2.8-2.3,3
	c-0.2,0-0.5,0-0.7,0c-1.4,0.2-2.8-0.8-3-2.2C151.7,44.3,151.6,44,151.7,43.8z"/>
<path class="st132" d="M158.4,45.6l1-1.2c0.6,0.5,1.3,0.8,2.1,0.8c0.5,0,0.7-0.2,0.7-0.4l0,0c0-0.3-0.2-0.4-1.1-0.6
	c-1.4-0.3-2.4-0.7-2.4-2l0,0c0-1.2,0.9-2,2.5-2.1c1,0,1.9,0.3,2.6,0.9l-0.9,1.3c-0.5-0.4-1.1-0.6-1.8-0.6c-0.4,0-0.6,0.2-0.6,0.4
	l0,0c0,0.3,0.2,0.4,1.1,0.6c1.5,0.3,2.4,0.8,2.4,2l0,0c0,1.3-1,2.1-2.6,2.1C160.3,46.7,159.2,46.3,158.4,45.6z"/>
<polygon class="st132" points="166.4,41.7 164.5,41.7 164.5,40.2 170.1,40.2 170.1,41.7 168.2,41.7 168.2,46.6 166.4,46.6 "/>
<path class="st132" d="M176.4,43.3c0.6,0,1-0.3,1-0.8l0,0c0-0.6-0.4-0.8-1-0.8h-0.8v1.7L176.4,43.3z M173.8,40.2h2.7
	c1.6,0,2.7,0.8,2.7,2.3l0,0c0,1.5-1.2,2.3-2.8,2.3h-0.9v1.8h-1.8V40.2z"/>
<rect x="180.2" y="40.2" transform="matrix(1 -1.745326e-03 1.745326e-03 1 -7.542411e-02 0.3161)" class="st132" width="1.8" height="6.4"/>
<polygon class="st132" points="183.1,45.3 186.3,41.6 183.2,41.7 183.2,40.1 188.8,40.1 188.8,41.4 185.6,45.1 188.8,45 188.8,46.5 
	183.1,46.6 "/>
<polygon class="st132" points="189.6,45.3 192.8,41.6 189.7,41.6 189.7,40.1 195.3,40.1 195.3,41.4 192,45 195.3,45 195.3,46.5 
	189.6,46.5 "/>
<path class="st132" d="M200.1,44l-0.7-1.8l-0.7,1.8H200.1z M198.6,40.1h1.7l2.7,6.4h-1.9l-0.5-1.1h-2.5l-0.5,1.1h-1.9L198.6,40.1z"
	/>
<path class="st132" d="M170.3,45.8h0.1c0.1,0,0.2-0.1,0.2-0.1s-0.1-0.2-0.2-0.2h-0.1V45.8z M170.3,46.5H170v-1.3c0.2,0,0.4,0,0.6,0
	c0.2,0,0.4,0,0.5,0.1c0.1,0.1,0.1,0.2,0.1,0.3c0,0.1-0.1,0.2-0.3,0.3l0,0c0.1,0,0.3,0.2,0.3,0.3c0,0.1,0,0.2,0.1,0.3h-0.4
	c0-0.1-0.1-0.2-0.1-0.3c0-0.1-0.1-0.2-0.2-0.2c0,0,0,0,0,0h-0.1L170.3,46.5z M170.5,44.8c-0.6,0-1,0.4-1,1s0.4,1,1,1s1-0.4,1-1
	S171.1,44.8,170.5,44.8z M170.5,44.5c0.8,0,1.4,0.7,1.3,1.4s-0.7,1.4-1.4,1.3c-0.7,0-1.3-0.6-1.3-1.4
	C169.1,45.1,169.7,44.5,170.5,44.5C170.5,44.5,170.5,44.5,170.5,44.5z"/>
<g>
	<linearGradient id="SVGID_9_" gradientUnits="userSpaceOnUse" x1="64.4683" y1="28.166" x2="64.4683" y2="9.326">
		<stop  offset="0" style="stop-color:#EFAD1F"/>
		<stop  offset="1.412874e-02" style="stop-color:#EFAF1E"/>
		<stop  offset="0.2657" style="stop-color:#F6CC11"/>
		<stop  offset="0.5159" style="stop-color:#FBE008"/>
		<stop  offset="0.7622" style="stop-color:#FEED02"/>
		<stop  offset="1" style="stop-color:#FFF100"/>
	</linearGradient>
	<path class="st243" d="M73.4,22.7h-1.6l-1.2-9.6l1.5-0.4c0-0.5-0.1-1.1-0.1-1.7s-0.2-1.2-0.3-1.7l-7.3,0.9c0,0.5,0.1,1.2,0.1,1.7
		c0.1,0.5,0.2,1.1,0.3,1.6l1.3,0.1l0.4,2.9l-4.6,0.6l-0.4-2.9l1.3-0.4c0-0.5-0.1-1.1-0.1-1.6s-0.2-1.2-0.3-1.7l-7.3,0.9
		c0,0.5,0.1,1.2,0.1,1.7c0.1,0.5,0.2,1.1,0.3,1.6h1.6l1.2,9.6l-1.6,0.5c0,0.5,0.1,1.1,0.1,1.6s0.2,1.2,0.3,1.7l7.3-0.9
		c0-0.5-0.1-1.2-0.1-1.7c-0.1-0.5-0.2-1.1-0.3-1.6l-1.3-0.1l-0.4-3.2l4.6-0.6l0.4,3.2l-1.3,0.4c0,0.5,0.1,1.1,0.1,1.6
		s0.2,1.2,0.3,1.7l7.3-0.9c0-0.5-0.1-1.2-0.1-1.7C73.6,23.8,73.5,23.2,73.4,22.7z"/>
	<linearGradient id="SVGID_10_" gradientUnits="userSpaceOnUse" x1="80.6905" y1="28.446" x2="80.6905" y2="14.9736">
		<stop  offset="0" style="stop-color:#EFAD1F"/>
		<stop  offset="1.412874e-02" style="stop-color:#EFAF1E"/>
		<stop  offset="0.2657" style="stop-color:#F6CC11"/>
		<stop  offset="0.5159" style="stop-color:#FBE008"/>
		<stop  offset="0.7622" style="stop-color:#FEED02"/>
		<stop  offset="1" style="stop-color:#FFF100"/>
	</linearGradient>
	<path class="st244" d="M86.1,25l0.2-6.1l0.3-3.5l-5.6-0.2c-0.1,0.5-0.1,1.1-0.1,1.6c0,0.5,0,1,0,1.5l1.4,0.3L82,24.4
		c-0.6,0.3-1.2,0.4-1.8,0.4c-1,0-1.3-0.4-1.2-1.2l0.2-4.9l0.3-3.7c-0.6,0-1.2,0-1.9,0c-1.2,0-2.4,0-3.6,0.2c-0.1,0.5-0.1,1-0.1,1.5
		c0,0.5,0,1.1,0,1.6l1.2,0.2l-0.2,5.7c-0.1,2.8,1.3,4.1,3.4,4.2c1.3,0.1,2.5-0.4,3.4-1.2h0.2l-0.1,1.1l5.7,0.2
		c0.1-0.5,0.1-1.1,0.1-1.6c0-0.5,0-1,0-1.5L86.1,25z"/>
	<linearGradient id="SVGID_11_" gradientUnits="userSpaceOnUse" x1="96.2383" y1="27.536" x2="96.2383" y2="13.766">
		<stop  offset="0" style="stop-color:#EFAD1F"/>
		<stop  offset="1.412874e-02" style="stop-color:#EFAF1E"/>
		<stop  offset="0.2657" style="stop-color:#F6CC11"/>
		<stop  offset="0.5159" style="stop-color:#FBE008"/>
		<stop  offset="0.7622" style="stop-color:#FEED02"/>
		<stop  offset="1" style="stop-color:#FFF100"/>
	</linearGradient>
	<path class="st245" d="M102,23.3l-0.4-5.8c-0.2-2.7-1.6-3.8-3.5-3.8l-0.3,0.1c-1.3,0-2.6,0.7-3.4,1.8h-0.2v-1.5
		c-1.9,0.1-3.7,0.3-5.6,0.7c0,0.5,0,1,0,1.5c0,0.5,0.1,1.1,0.2,1.6l1.5,0.1l0.4,6l-1.5,0.3c0,0.5,0,1,0,1.5c0,0.5,0.1,1.1,0.2,1.6
		l6.5-0.4c0-0.5,0-1.1,0-1.6c0-0.5-0.1-1-0.2-1.5l-1-0.2l-0.4-5.7c0.5-0.3,1.1-0.5,1.7-0.6c1-0.1,1.3,0.3,1.3,1.1l0.3,5l-1,0.3
		c0,0.5,0,1,0,1.5c0,0.5,0.1,1.1,0.2,1.6l6.5-0.4c0-0.5,0-1.1,0-1.6c0-0.5-0.1-1-0.2-1.5L102,23.3z"/>
	<linearGradient id="SVGID_12_" gradientUnits="userSpaceOnUse" x1="110.5786" y1="30.9323" x2="110.5786" y2="12.596">
		<stop  offset="0" style="stop-color:#EFAD1F"/>
		<stop  offset="1.412874e-02" style="stop-color:#EFAF1E"/>
		<stop  offset="0.2657" style="stop-color:#F6CC11"/>
		<stop  offset="0.5159" style="stop-color:#FBE008"/>
		<stop  offset="0.7622" style="stop-color:#FEED02"/>
		<stop  offset="1" style="stop-color:#FFF100"/>
	</linearGradient>
	<path class="st246" d="M112.2,22.5l-3.1,0.1c-0.4,0-0.5-0.1-0.5-0.4c0-0.3,0.1-0.6,0.2-0.8c0.5,0.1,1,0.2,1.6,0.1
		c2.8-0.1,4.6-1.5,4.4-4.3c0-0.5-0.1-1-0.4-1.4v-0.2l1.2-0.2c0.1-0.9,0.2-1.9,0.1-2.8l-4.2,0.3c-0.7-0.1-1.5-0.2-2.2-0.1
		c-3.1,0.1-4.7,2-4.6,4.8c0,1.2,0.5,2.3,1.4,3c-0.5,1-0.9,2-1.2,3.1c0.3,0.6,0.6,1.2,1,1.8c-0.8,0.5-1.2,1.4-1.1,2.3
		c0.1,2.1,1.6,3.4,5.7,3.2s6-2.1,5.8-4.9C116.3,23,114.7,22.4,112.2,22.5z M109.7,15.5c0.9,0,1.3,0.2,1.4,1.5
		c0.1,1.3-0.3,1.7-1.2,1.7h-0.1c-0.8,0-1.2-0.4-1.2-1.6l0,0C108.5,15.9,108.9,15.6,109.7,15.5z M110.6,27.8h-0.6
		c-1.2,0-1.5-0.2-1.5-1.1l0,0c0-0.2,0-0.4,0.1-0.6l3.6-0.2c0.4,0,0.6,0,0.6,0.5C112.7,27.5,112.1,27.7,110.6,27.8z"/>
	<linearGradient id="SVGID_13_" gradientUnits="userSpaceOnUse" x1="122.9616" y1="27.276" x2="122.9616" y2="14.366">
		<stop  offset="0" style="stop-color:#EFAD1F"/>
		<stop  offset="1.412874e-02" style="stop-color:#EFAF1E"/>
		<stop  offset="0.2657" style="stop-color:#F6CC11"/>
		<stop  offset="0.5159" style="stop-color:#FBE008"/>
		<stop  offset="0.7622" style="stop-color:#FEED02"/>
		<stop  offset="1" style="stop-color:#FFF100"/>
	</linearGradient>
	<path class="st247" d="M124.2,16.2H124l0.2-1.7c-0.9,0-1.9-0.1-2.9-0.1s-1.9,0-2.6,0.1c-0.1,0.5-0.1,1-0.2,1.5c0,0.5,0,1,0,1.5
		l1.5,0.2l-0.3,5.9l-1.5,0.2c-0.1,0.5-0.1,1-0.2,1.5s0,1,0,1.5l7,0.4c0.1-0.5,0.1-1,0.2-1.5c0-0.5,0-1,0-1.5l-1.5-0.3l0.3-5.1
		c0.6-0.2,1.3-0.3,2-0.2c0.5,0,1,0.1,1.5,0.3c0.3-1.4,0.5-2.8,0.6-4.1c-0.3-0.1-0.7-0.2-1-0.2C126.2,14.5,125.3,14.7,124.2,16.2z"/>
	<linearGradient id="SVGID_14_" gradientUnits="userSpaceOnUse" x1="136.188" y1="31.7491" x2="136.188" y2="12.556">
		<stop  offset="0" style="stop-color:#EFAD1F"/>
		<stop  offset="1.412874e-02" style="stop-color:#EFAF1E"/>
		<stop  offset="0.2657" style="stop-color:#F6CC11"/>
		<stop  offset="0.5159" style="stop-color:#FBE008"/>
		<stop  offset="0.7622" style="stop-color:#FEED02"/>
		<stop  offset="1" style="stop-color:#FFF100"/>
	</linearGradient>
	<path class="st248" d="M136.6,13c0,1.1,0.1,2.1,0.2,3.2c0.3,0.1,0.8,0,1.1,0.3c-0.4,1.5-0.6,2.9-0.9,4.4c-0.1,0.1,0.1,0.6-0.1,0.7
		c-0.3,0-0.1-0.3-0.2-0.5c-0.1-0.6-0.3-1.1-0.5-1.7c-0.7-2.1-1.5-4.2-2.2-6.3c-1.4,0.1-2.9,0.4-4.3,0.7c0,1.1,0.1,2.1,0.2,3.2
		c0.4,0,0.7,0,1,0.1c1.1,3.1,2.5,6.1,4,9.1c-0.2,0.7-0.3,1.5-1,1.8c-1,0.1-1.9,0-2.9-0.2c-0.2,1.2-0.4,2.4-0.4,3.6
		c1.1,0.4,2.4,0.5,3.6,0.3c0.6-0.1,1.1-0.3,1.6-0.6c0.7-0.5,1.3-1.2,1.8-1.9c0.4-0.6,0.7-1.3,0.9-2c0.3-0.8,0.6-1.6,0.8-2.4l0.2-0.5
		c0.1-0.2,0.1-0.4,0.2-0.5c0-0.1,0.2-0.6,0.3-0.9c0.2-0.8,0.4-1.5,0.6-2.3c0.4-1.6,0.8-3.1,1.2-4.5c0.3-0.1,0.6-0.2,0.9-0.3
		c0-1.1-0.1-2.1-0.3-3.2L136.6,13z"/>
	<linearGradient id="SVGID_15_" gradientUnits="userSpaceOnUse" x1="156.4533" y1="30.076" x2="156.4533" y2="12.396">
		<stop  offset="0" style="stop-color:#EFAD1F"/>
		<stop  offset="1.412874e-02" style="stop-color:#EFAF1E"/>
		<stop  offset="0.2657" style="stop-color:#F6CC11"/>
		<stop  offset="0.5159" style="stop-color:#FBE008"/>
		<stop  offset="0.7622" style="stop-color:#FEED02"/>
		<stop  offset="1" style="stop-color:#FFF100"/>
	</linearGradient>
	<path class="st249" d="M163.5,25.6l-0.6-9.5l1.5-0.3c0-0.5,0-1.1,0-1.6c0-0.5-0.1-1.2-0.2-1.7l-7.3,0.4c0,0.5,0,1.2,0,1.7
		c0,0.5,0.1,1.1,0.2,1.6l1.3,0.2l0.2,2.8l-4.6,0.3l-0.2-2.9l1.3-0.3c0-0.5,0-1.1,0-1.6c0-0.5-0.1-1.2-0.2-1.7l-7.3,0.4
		c0,0.5,0,1.2,0,1.7c0,0.5,0.1,1.1,0.2,1.6l1.6,0.2l0.6,9.5l-1.5,0.3c0,0.5,0,1.1,0,1.6c0,0.5,0.1,1.2,0.2,1.7l7.3-0.4
		c0-0.5,0-1.2,0-1.7c0-0.5-0.1-1.1-0.2-1.6l-1.3-0.2l-0.2-3.1l4.6-0.3l0.2,3.1l-1.3,0.3c0,0.5,0,1.1,0,1.6c0,0.5,0.1,1.2,0.2,1.7
		l7.3-0.4c0-0.5,0-1.2,0-1.7c0-0.5-0.1-1.1-0.2-1.6L163.5,25.6z"/>
	<linearGradient id="SVGID_16_" gradientUnits="userSpaceOnUse" x1="171.7899" y1="29.4892" x2="171.7899" y2="16.346">
		<stop  offset="0" style="stop-color:#EFAD1F"/>
		<stop  offset="1.412874e-02" style="stop-color:#EFAF1E"/>
		<stop  offset="0.2657" style="stop-color:#F6CC11"/>
		<stop  offset="0.5159" style="stop-color:#FBE008"/>
		<stop  offset="0.7622" style="stop-color:#FEED02"/>
		<stop  offset="1" style="stop-color:#FFF100"/>
	</linearGradient>
	<path class="st250" d="M173.1,16.5c-0.4-0.1-0.9-0.1-1.4-0.1c-2.9,0-5.1,1.9-5.8,5.4c-0.9,4.5,1.2,6.9,4.6,7.6
		c3.5,0.7,6.4-1.1,7.2-5.3C178.6,19.5,176.4,17.1,173.1,16.5z M173.6,23.3c-0.4,2.2-1,2.8-1.9,2.8c-0.2,0-0.3,0-0.5,0h0
		c-1.2-0.2-1.6-0.9-1.1-3.5s1.2-3,2.4-2.8C173.6,20,174.1,20.7,173.6,23.3z"/>
	<linearGradient id="SVGID_17_" gradientUnits="userSpaceOnUse" x1="188.133" y1="28.466" x2="188.133" y2="14.926">
		<stop  offset="0" style="stop-color:#EFAD1F"/>
		<stop  offset="1.412874e-02" style="stop-color:#EFAF1E"/>
		<stop  offset="0.2657" style="stop-color:#F6CC11"/>
		<stop  offset="0.5159" style="stop-color:#FBE008"/>
		<stop  offset="0.7622" style="stop-color:#FEED02"/>
		<stop  offset="1" style="stop-color:#FFF100"/>
	</linearGradient>
	<path class="st251" d="M192.1,15.2c0,0.5,0,1.1,0,1.6s0.1,1,0.2,1.5l0.9,0.2l-0.4,2.8c-0.1,0.6-0.1,1.1-0.2,1.7h-0.2
		c-0.1-0.6-0.2-1.1-0.4-1.7l-1.8-6l-3.8,0.2l-1.2,6.2c-0.1,0.6-0.2,1.1-0.3,1.7h-0.2c-0.1-0.6-0.1-1.1-0.3-1.7l-1.3-6.1
		c-1.5,0.1-2.9,0.3-4.4,0.5c0,0.5,0,1.1,0,1.6c0,0.5,0,1,0.1,1.5l1,0.1c0.7,3.1,1.6,6.2,2.6,9.2l3.9-0.2l1.5-6.9
		c0.1-0.5,0.2-1,0.2-1.6h0.2c0.1,0.5,0.2,1,0.3,1.6l2.2,6.7l3.9-0.2c0.8-3.4,1.4-6.6,1.8-9.6l0.9-0.3c0-0.5,0-1,0-1.5
		c0-0.5-0.1-1-0.1-1.6L192.1,15.2z"/>
	<linearGradient id="SVGID_18_" gradientUnits="userSpaceOnUse" x1="202.4238" y1="30.016" x2="202.4238" y2="17.0403">
		<stop  offset="0" style="stop-color:#EFAD1F"/>
		<stop  offset="1.412874e-02" style="stop-color:#EFAF1E"/>
		<stop  offset="0.2657" style="stop-color:#F6CC11"/>
		<stop  offset="0.5159" style="stop-color:#FBE008"/>
		<stop  offset="0.7622" style="stop-color:#FEED02"/>
		<stop  offset="1" style="stop-color:#FFF100"/>
	</linearGradient>
	<path class="st252" d="M204.8,20.6l0.3-3.6c-0.7,0-1.5,0-2.3,0c-1.1,0-2.3,0-3.4,0.1c-0.1,0.5-0.1,1-0.1,1.5s0,1,0,1.6l1.5,0.2
		l-0.3,6l-1.5,0.2c-0.1,0.5-0.1,1-0.1,1.5s0,1,0,1.6l7,0.3c0.1-0.5,0.1-1,0.1-1.6c0-0.5,0-1,0-1.5l-1.5-0.3L204.8,20.6z"/>
	<linearGradient id="SVGID_19_" gradientUnits="userSpaceOnUse" x1="212.333" y1="29.9505" x2="212.333" y2="16.746">
		<stop  offset="0" style="stop-color:#EFAD1F"/>
		<stop  offset="1.412874e-02" style="stop-color:#EFAF1E"/>
		<stop  offset="0.2657" style="stop-color:#F6CC11"/>
		<stop  offset="0.5159" style="stop-color:#FBE008"/>
		<stop  offset="0.7622" style="stop-color:#FEED02"/>
		<stop  offset="1" style="stop-color:#FFF100"/>
	</linearGradient>
	<path class="st253" d="M213.4,26.3c-1.5,0.1-2.3-0.1-2.4-1.5v-0.1l6.7-0.5c0-0.7,0-1.7-0.1-2.3c-0.2-3.2-1.8-5.2-5.1-5.2l-0.6,0.1
		c-3.3,0.2-5.6,2.6-5.3,7.1c0.3,4.3,2.8,6.3,7,6c1.5-0.1,3-0.6,4.4-1.3c-0.3-1.2-0.6-2.4-1.1-3.5C215.9,25.7,214.7,26.1,213.4,26.3z
		 M212.2,19.6L212.2,19.6c0.9,0,1.3,0.6,1.4,1.8c0,0.2,0,0.4,0,0.6l-2.7,0.2C210.8,20.4,211.3,19.7,212.2,19.6z"/>
	<linearGradient id="SVGID_20_" gradientUnits="userSpaceOnUse" x1="224.8033" y1="29.9781" x2="224.8033" y2="16.594">
		<stop  offset="0" style="stop-color:#EFAD1F"/>
		<stop  offset="1.412874e-02" style="stop-color:#EFAF1E"/>
		<stop  offset="0.2657" style="stop-color:#F6CC11"/>
		<stop  offset="0.5159" style="stop-color:#FBE008"/>
		<stop  offset="0.7622" style="stop-color:#FEED02"/>
		<stop  offset="1" style="stop-color:#FFF100"/>
	</linearGradient>
	<path class="st254" d="M224.4,20.3c0-0.5,0.3-0.8,1-0.7c0.3,0,0.5,0.1,0.8,0.2l0.2,1c0.5,0.1,1.2,0.2,1.8,0.2
		c0.5,0,1.1,0.1,1.6,0.1l0.3-3.6c-1.3-0.5-2.6-0.7-3.9-0.9c-0.3,0-0.5,0-0.8,0c-2.8-0.1-5,1.3-5.3,4c-0.4,4.2,5.6,4.1,5.5,5.5
		c0,0.6-0.3,0.8-1.2,0.7c-0.4,0-0.7-0.1-1.1-0.3l-0.2-1c-0.5-0.1-1.2-0.2-1.8-0.2c-0.5,0-1.1-0.1-1.6-0.1l-0.3,3.3
		c1.4,0.8,3,1.3,4.6,1.4c3.1,0.3,5.5-1.1,5.8-4C230.2,21.5,224.3,21.4,224.4,20.3z"/>
</g>
</svg>
