<?xml version="1.0" encoding="utf-8"?>
<!-- Generator: Adobe Illustrator 21.1.0, SVG Export Plug-In . SVG Version: 6.00 Build 0)  -->
<svg version="1.1" id="Layer_1" xmlns="http://www.w3.org/2000/svg" xmlns:xlink="http://www.w3.org/1999/xlink" x="0px" y="0px"
	 viewBox="0 0 186 100" style="enable-background:new 0 0 186 100;" xml:space="preserve">
<style type="text/css">
	.st0{fill:#EC4137;}
	.st1{fill:#0E81C5;}
</style>
<title>Midscale</title>
<path class="st0" d="M130.6,99.5c-11.7,0.1-23.2-3.5-32.9-10.1c-7-4.8-12.8-11.1-17-18.4c-1.8-3.1-3.3-6.4-4.5-9.7
	c-0.7-2,0.3-4.2,2.2-4.9c2-0.7,4.2,0.3,4.9,2.2c1.1,3,2.4,5.9,4,8.7c2.4,4.1,5.4,7.9,8.8,11.1c6,5.7,13.4,9.7,21.4,11.7
	c6,1.6,12.2,2,18.4,1.4c5.6-0.5,11-2,16.1-4.4c11.3-5.2,19.3-13.6,24.4-24.8c0.6-1.3,1-2.7,1.6-4c0.8-2,3-2.9,5-2.2
	c0.9,0.3,1.6,1,2,1.9c0.5,1,0.6,2.2,0.1,3.2c-2,5.6-4.9,10.9-8.5,15.7c-2.6,3.5-5.6,6.6-9,9.3c-6.2,5.1-13.4,8.8-21.2,10.9
	C141.3,98.7,135.9,99.5,130.6,99.5z"/>
<path class="st1" d="M179.6,3.4c0-1.6,1.3-2.9,2.9-2.9c0,0,0.1,0,0.1,0c1.6,0,2.9,1.3,2.9,2.9c0,0,0,0,0,0c0.1,1.6-1.1,3-2.8,3.1
	s-3-1.1-3.1-2.8C179.6,3.6,179.6,3.5,179.6,3.4L179.6,3.4z M185.1,3.4c0.1-1.4-1-2.6-2.4-2.6c0,0-0.1,0-0.1,0
	c-1.4,0-2.6,1.2-2.6,2.6c-0.1,1.4,0.9,2.6,2.4,2.7c1.4,0.1,2.6-0.9,2.7-2.4C185.1,3.7,185.1,3.6,185.1,3.4L185.1,3.4z"/>
<path class="st1" d="M181.3,3.4c0-0.1,0-0.2,0-0.3c0.1-0.4-0.3-1,0.2-1.2c0.6-0.2,1.3-0.2,1.9,0.1c0.5,0.2,0.7,0.8,0.4,1.2
	c0,0.1-0.1,0.2-0.2,0.2c-0.3,0.3-0.3,0.5,0,0.8s0.3,0.4,0.1,0.6s-0.4,0.1-0.6-0.2s-0.3-0.3-0.4-0.5c-0.1-0.2-0.3-0.3-0.5-0.2
	C181.9,4,182,4.2,182,4.4s0,0.5-0.4,0.5s-0.4-0.3-0.4-0.6S181.3,3.7,181.3,3.4L181.3,3.4z M182.3,3.3c0.4-0.1,0.9,0,0.8-0.5
	s-0.4-0.4-0.7-0.4s-0.5,0.1-0.5,0.5S182.1,3.4,182.3,3.3L182.3,3.3z"/>
<path class="st1" d="M16.1,6.5c0-0.1,0-0.3-0.1-0.4c0-0.1,0-0.2-0.1-0.3C14.3,1.8,9.6-0.2,5.5,1.5c-2.9,1.2-4.9,3.9-5,7.1
	c0,12.2,0,24.5,0,36.7c0,4.3,3.5,7.8,7.8,7.9c4,0.1,7.6-3,7.9-6.8c0.1-0.4,0.2-0.8,0.1-1.2c0-12.2,0-24.4,0-36.6
	c0-0.4,0-0.8-0.1-1.2C16.3,7.1,16.2,6.8,16.1,6.5z"/>
<path class="st1" d="M128.3,22.9c-0.5-3.5-1.8-6.9-3.8-9.9c-1.3-2.1-3-4-4.9-5.6l0,0c-0.2-0.2-0.3-0.3-0.5-0.5
	c-7.8-6.2-16.4-7.7-25.8-4.4c-2.7,0.9-5.2,2.3-7.4,4.2V7c0.2-0.1,0.3-0.2,0.4-0.3C86.3,6.8,86.1,6.9,86,7V6.7
	c-0.6,0.4-1.2,0.9-1.7,1.5l0,0l-0.2,0.2c-0.2,0.1-0.4,0.3-0.5,0.5c-1,0.9-1.8,2-2.6,3.1l0.1,0.1l0,0l-0.1-0.1
	c-0.3,0.4-0.6,0.8-0.8,1.2c-6.3,10.1-5.1,23.1,3.1,31.8c9.9,10.5,26.5,11,37,1.1c1.9-1.8,3.6-3.9,4.9-6.2c1.7-2.9,2.8-6.2,3.1-9.6
	c0.4-2.1,0.4-4.3,0-6.4C128.4,23.5,128.4,23.2,128.3,22.9z M110.6,32.9L110.6,32.9c-0.1,0.1-0.3,0.2-0.4,0.4c-2.6,3.3-7,4.5-11,3.2
	c-1.4-0.5-2.6-1.2-3.7-2.2l0,0l0,0l-2-2.5l0,0l0,0c-0.4-0.9-0.7-1.8-1-2.8c-0.5-2.5-0.1-5,1.2-7.3c1.5-2.4,3.9-4.1,6.7-4.7
	c1.7-0.3,3.4-0.3,5,0.2c0,0,0-0.1,0-0.1c0,0,0,0.1,0,0.1c1.3,0.4,2.4,1.1,3.5,1.9c0.6,0.5,1.1,1.1,1.7,1.6l0.3,0.4
	c0,0.1,0,0.2,0,0.3c1,1.4,1.5,3.1,1.6,4.8C112.6,28.7,111.9,31,110.6,32.9L110.6,32.9z M107.5,1.9c-0.1,0-0.1-0.2-0.1-0.3l0,0
	C107.3,1.7,107.4,1.8,107.5,1.9L107.5,1.9z M111.5,32.3L111.5,32.3z M77.4,33c0,0,0.1,0,0.1,0.1C77.5,33,77.4,33,77.4,33
	C77.4,33,77.4,33,77.4,33L77.4,33z M77.5,33.1L77.5,33.1L77.5,33.1z"/>
<path class="st1" d="M179.8,11.3c-2.3-3.2-5.4-5.8-9-7.6c0,0,0,0-0.1,0c0,0,0,0,0,0c-1.1-0.7-2.3-1.2-3.5-1.5l0,0
	c-0.2-0.1-0.3-0.2-0.5-0.2c-1.9-0.5-3.9-0.9-5.9-1.1c-1.6-0.1-3.2-0.1-4.8,0c-0.6,0.1-1.1,0.2-1.7,0.3H154c-0.4,0-0.8,0.1-1.1,0.3
	c-1.1,0.2-2.2,0.5-3.3,1c-0.1,0-0.1,0-0.2,0c-5.9,2.3-10.8,6.7-13.8,12.3c-1.5,2.9-2.5,6-2.7,9.3c-0.2,2-0.3,4.1-0.2,6.1
	c0,11.5,0,23.1,0,34.6c-0.1,3.5,2.1,6.6,5.4,7.8h0.1c1.1,0.5,2.3,0.6,3.5,0.4c3.9-0.4,7.1-3.9,7.1-7.5v-3.1c0-0.9,0-1.7,0-2.6
	c0-0.7,0-1.3,0-1.9v-6.6l0,0c0.7,0.1,1.4,0.3,2,0.6c5.8,1.9,12.1,1.6,17.7-0.6c1.8-0.6,3.4-1.5,4.9-2.7l0,0c0.2,0,0.3-0.1,0.5-0.2
	c2.2-1.5,4.2-3.4,5.8-5.6C186.8,33.5,186.9,20.6,179.8,11.3z M169.3,50.5l-0.1-0.1L169.3,50.5L169.3,50.5z M155.3,12.6L155.3,12.6z
	 M157.1,7.5c0,0,0,0.1,0,0.1l0,0C157.1,7.6,157.1,7.5,157.1,7.5L157.1,7.5z M162.1,17.3c0.5-0.1,0.9,0,1.3,0.3
	C163,17.2,162.6,17.1,162.1,17.3z M166.6,2.2c-0.2,0-0.4-0.1-0.6-0.1C166.1,2.1,166.4,2.1,166.6,2.2L166.6,2.2z M156.7,1.3
	c-0.3,0-0.5,0-0.8,0c0,0.1,0,0.1,0,0.2c0-0.1,0-0.1,0-0.2C156.2,1.3,156.5,1.3,156.7,1.3L156.7,1.3z M154.9,1.6
	C154.9,1.6,154.9,1.7,154.9,1.6C154.9,1.7,154.9,1.6,154.9,1.6L154.9,1.6h-0.1H154.9z M154.4,1.6L154.4,1.6z M157.9,17
	c1.3-0.1,2.7,0,3.9,0.3c1.6,0.5,3.2,1.5,4.4,2.7c0.9,1,1.6,2.2,2.2,3.4l0,0c0.1,0.5,0.3,1.1,0.4,1.6c0.4,2,0.2,4.1-0.6,6.1
	c-0.7,1.3-1.6,2.6-2.7,3.6l-2.4,1.6l0,0c-1.2,0.5-2.4,0.7-3.7,0.8c-2.3,0.1-4.5-0.6-6.4-1.9l0,0c0-0.1-0.1-0.1-0.2-0.1l0,0l-1.7-1.6
	c-0.9-1.4-1.6-2.9-2-4.6c-1-5.5,2.7-10.7,8.2-11.7C157.4,17,157.6,17,157.9,17z M148.3,50c0-0.1,0.1-0.1,0.2-0.2
	C148.4,49.8,148.4,49.9,148.3,50L148.3,50z M149,49.3c0.1,0,0.2,0,0.4,0.1C149.2,49.3,149,49.2,149,49.3L149,49.3z M148.5,50.1
	L148.5,50.1z M148.6,50.1L148.6,50.1z M148.9,50.9c0,0,0-0.1,0-0.1C148.9,50.7,148.9,50.8,148.9,50.9L148.9,50.9z M163,36.2
	L163,36.2z M165.4,35c0,0.1,0,0.1,0,0.2C165.4,35.2,165.4,35.1,165.4,35L165.4,35z M133.4,64.5c-0.2,0.1-0.3,0.2-0.4,0.3v0.3
	c0.1,0,0.2,0.1,0.3,0.2c0,0.1,0,0.1,0,0.2c0-0.1,0-0.1,0-0.2c0-0.1-0.2-0.2-0.3-0.2c0-0.1,0-0.2,0-0.3
	C133.1,64.7,133.2,64.6,133.4,64.5L133.4,64.5z M149.7,51.1c0-0.1,0.1-0.1,0.1-0.1C149.8,51,149.8,51.1,149.7,51.1z"/>
<path class="st1" d="M70,5L70,5c-0.1-0.3-0.2-0.5-0.4-0.7l0,0c-0.5-0.9-1.2-1.6-2.1-2.1l0,0c-0.1-0.1-0.2-0.2-0.3-0.3
	c-2-1.2-4.5-1.5-6.7-0.7c-1.4,0.4-2.7,1.3-3.6,2.6l-0.1,0.1c-0.5,0.5-0.9,1.2-1.1,1.8c-0.1,0.4-0.5,0.8-0.3,1.2l-0.1,0.3
	c-0.2,0.4-0.2,0.9-0.2,1.3c0,3.6,0,7.2,0,10.8c-0.3,0-0.5,0-0.8,0c-4.8,0-9.5,0-14.3,0c-0.7,0-0.8-0.3-0.8-0.9c0-3.2,0-6.5,0-9.7
	c0-0.3,0-0.6-0.1-0.9c0-0.3-0.1-0.6-0.2-0.9c-0.4-1.7-1.3-3.3-2.7-4.4l0,0l-0.2-0.2l0,0c-0.2-0.3-0.5-0.5-0.9-0.6l0,0
	c-0.2-0.2-0.5-0.4-0.8-0.5c-4-1.8-8.7-0.1-10.5,3.9c-0.5,1.1-0.7,2.3-0.7,3.5c0,12.1,0,24.3,0,36.4c0,2.3,0.9,4.5,2.7,5.9
	c3.1,2.8,8.4,2.7,11-0.4l0,0c0.3-0.2,0.5-0.4,0.6-0.7l0,0c0.7-0.8,1.2-1.8,1.4-2.9v-0.3c0.2-0.6,0.3-1.3,0.2-1.9c0-3.4,0-6.8,0-10.2
	c0-0.5,0-1.1,0.1-1.6l0,0H54c1.1,0,1.1,0,1.1,1.1c0,3.7,0,7.4,0,11c-0.1,1.4,0.3,2.7,1.1,3.8l0,0c1.4,2.6,4.2,4.1,7.1,4
	c3.1,0,5.3-1.6,6.8-4.2c0.7-1.2,1-2.5,0.9-3.9c0-12.1,0-24.1,0-36.2c0-0.4-0.1-0.8-0.1-1.2C70.8,6.6,70.5,5.8,70,5z M58,3.1
	c0-0.2,0.1-0.3,0.3-0.3c0,0,0,0,0,0C58.1,2.8,58,2.9,58,3.1C58,3.1,58,3.1,58,3.1c-0.2,0-0.3,0.1-0.4,0.3C57.7,3.2,57.8,3.1,58,3.1z
	 M54,19.7C54,19.7,54,19.7,54,19.7c0.1-0.1,0.3-0.1,0.4-0.1C54.3,19.7,54.2,19.7,54,19.7C54,19.7,54,19.7,54,19.7z M55,19.6
	c-0.1,0-0.2,0.1-0.3,0.1C54.8,19.7,54.9,19.6,55,19.6L55,19.6z M53.8,32.9C53.7,32.9,53.7,32.8,53.8,32.9
	C53.7,32.8,53.7,32.9,53.8,32.9c0.8,0,1.1,0,1.3,0.2C54.9,32.9,54.5,32.9,53.8,32.9z M69.8,5.9c0-0.1,0-0.2,0-0.3l0,0
	C69.7,5.7,69.7,5.8,69.8,5.9c0,0.2,0.1,0.4,0.2,0.6C69.8,6.3,69.8,6.1,69.8,5.9L69.8,5.9z"/>
</svg>
