<?xml version="1.0" encoding="utf-8"?>
<!-- Generator: Adobe Illustrator 21.1.0, SVG Export Plug-In . SVG Version: 6.00 Build 0)  -->
<svg version="1.1" id="Layer_1" xmlns="http://www.w3.org/2000/svg" xmlns:xlink="http://www.w3.org/1999/xlink" x="0px" y="0px"
	 viewBox="0 0 181 63.1" style="enable-background:new 0 0 181 63.1;" xml:space="preserve">
<style type="text/css">
	.st0{fill:#EE3A43;}
</style>
<title>Grocery</title>
<path class="st0" d="M84.8,62.4c0.5-0.4,0.9-0.7,1.3-1.1c0.5-0.4,0.9-1,1.2-1.6c0.3-0.8,0-1.6-0.6-2.1c-0.6-0.5-1.4-0.7-2.2-0.6
	c-1.7,0-3.5,0.3-5.1,1c-1.9,0.8-3.8,1.6-5.8,2.4c-1.3,0.5-2.6,0.8-3.9,0.9c-1.9,0.2-3.9,0-5.7-0.6c-1-0.3-1.9-0.8-2.8-1.4
	c-1.8-1-3.2-2.6-4-4.5c-1.8-3.7-1.5-8.1,0.6-11.6c0.6-1.1,1.5-2,2.6-2.7c0.3-0.2,0.5-0.4,0.8-0.6c0.5-0.4,0.6-1.2,0.2-1.7
	c0-0.1-0.1-0.1-0.2-0.2c-1.6-1.8-2.9-3.9-3.7-6.2C55.9,27,57.2,21.6,60.9,18c2.1-2.3,4.8-3.9,7.7-4.7c2.3-0.6,4.6-0.8,6.9-0.6
	c2.2,0.2,4.3,0.6,6.3,1.3c0.3,0.1,0.7,0.1,1,0c0.9-0.2,1.6-0.9,1.9-1.8c0.1-0.4,0.3-0.8,0.4-1.2c0.5-1.5,1.4-1.9,2.9-1.6
	c1.6,0.4,2.9,1.7,3.1,3.4c0.1,0.3,0.1,0.6,0.2,0.9c0.1,1.1-0.5,2.1-1.4,2.6c-0.4,0.3-0.9,0.7-1.3,1c-0.6,0.6-0.6,1.5-0.1,2.1
	c1,1.2,1.7,2.6,2.1,4.1c0.5,1.7,0.7,3.5,0.5,5.3c-0.2,2.6-1.1,5.1-2.7,7.2c-2.7,3.5-6.7,5.9-11.1,6.6c-1.3,0.2-2.6,0.3-3.9,0.3
	c-0.9,0-1.7-0.1-2.6-0.3c-1-0.2-2.1-0.2-3.1,0.1c-0.7,0.3-1.3,0.8-1.6,1.6c-0.1,0.5-0.1,1.1,0.2,1.6c0.2,0.6,0.7,1,1.3,1.1
	c1.5,0.4,3.1,0.4,4.6,0c2.5-0.6,4.9-1.3,7.4-1.9c2.2-0.6,4.4-0.8,6.7-0.7c2.7,0,5.2,1.2,6.9,3.4c0.8,1.1,1.3,2.4,1.4,3.8
	c0.2,1.6,0.1,3.3-0.4,4.8c-0.6,1.6-1.6,3.1-3,4.2c-0.8,0.7-1.7,1.2-2.6,1.6c-1.1,0.4-2.2,0.6-3.4,0.4C85.1,62.5,84.9,62.5,84.8,62.4
	z M77.5,26.9c0-2.4-0.5-4.8-1.4-7c-0.2-0.5-0.5-1-1-1.3c-0.8-0.5-1.8-0.4-2.5,0.3c-0.2,0.2-0.3,0.5-0.4,0.7
	c-0.9,1.8-1.4,3.9-1.4,5.9c-0.1,2.6,0,5.2,0.5,7.7c0.1,1.1,0.5,2.2,1.2,3.2c0.6,0.8,1.6,1.1,2.4,0.8c0.8-0.5,1.5-1.3,1.7-2.2
	C77.2,32.4,77.5,29.6,77.5,26.9z"/>
<path class="st0" d="M35.8,52.6H19.9V15.1c4.7,0.3,9.3-0.8,13.4-3c0.2,0.6,0.3,1.1,0.3,1.7c0.1,0.7,0.1,1.3,0.3,1.9
	c0.1,0.3,0.2,0.5,0.4,0.7c0.2,0.3,0.6,0.4,1,0.3c0.8-0.3,1.5-0.6,2.3-1c1.4-0.9,3-1.5,4.6-1.8c3-0.6,6.1,0.1,8.4,2
	c1.5,1.2,2.4,2.9,2.6,4.8c0.1,0.7,0.1,1.5,0.1,2.2c0,5.5,0,11,0,16.6c0,3.1,0,6.3,0.1,9.4c0.1,0.6,0.2,1.1,0.5,1.6
	c0.3,0.9,0.9,1.6,1.6,2.2H41.4c-0.6,0-1.1,0-1.7,0c-0.2,0-0.4-0.1-0.3-0.3c0-0.1,0-0.2,0-0.4c0-8.6,0-17.1,0-25.7c0-1-0.2-2-0.6-3
	c-0.2-0.5-0.4-1-0.8-1.3c-0.6-0.7-1.7-0.8-2.4-0.2c-0.1,0.1-0.2,0.2-0.3,0.4c-0.4,0.6-0.6,1.2-0.8,1.8c-0.2,0.7-0.4,1.4-0.3,2.1
	c0,3.6,0,7.2,0,10.8c0,3.9,0,7.8-0.1,11.7c0,1.2,0.5,2.4,1.3,3.4C35.4,52.1,35.6,52.4,35.8,52.6z"/>
<path class="st0" d="M146.7,29.2l-6.3,2.8l-4.8,2.2c-1.9,0.9-3.9,1.8-5.8,2.6c-0.6,0.3-1.1,0.9-1.1,1.6c-0.1,0.8,0.1,1.6,0.6,2.2
	c1.6,2.7,4.3,4.6,7.3,5.2c0.7,0.2,1.5,0.1,2.2-0.1c0.9-0.2,1.5-1,1.4-1.9c0-0.5,0-1,0.1-1.5c0.1-1.2,1.1-2.1,2.3-2.2
	c1.5-0.2,3,0.5,3.9,1.8c1.1,1.4,1.3,3.3,0.6,4.9c-0.5,1.2-1.3,2.3-2.3,3.1c-1.4,1.2-2.9,2.1-4.5,2.8c-1.3,0.5-2.7,0.9-4.1,1
	c-5.1,0.7-10.3-0.7-14.5-3.9c-4.1-3.1-6.9-7.7-7.7-12.8c-0.7-3.7-0.5-7.6,0.5-11.3c0.9-2.9,2.4-5.6,4.5-7.9
	c5.1-5.5,13.2-6.7,19.7-2.9c1.1,0.7,2.1,1.6,2.9,2.7c1.2,1.6,2.1,3.4,2.8,5.3c0.5,1.4,1,2.8,1.4,4.2c0.2,0.6,0.5,1.1,0.9,1.6
	C146.4,28.9,146.5,29.1,146.7,29.2z M133.5,26.5c0-0.3,0-0.5-0.1-0.8c-0.2-1.4-0.5-2.8-1-4.2c-0.2-0.9-0.7-1.8-1.4-2.5
	c-0.6-0.5-1.5-0.6-2.3-0.2c-0.7,0.5-1.2,1.3-1.4,2.1c-0.6,2.3-0.8,4.7-0.6,7.1c0.1,0.6,0.2,1.2,0.5,1.8c0.1,0.5,0.7,0.8,1.1,0.6
	c0,0,0.1,0,0.1,0c0.6-0.1,1.2-0.3,1.7-0.5c0.6-0.2,1.1-0.4,1.7-0.7c0.3-0.1,0.7-0.3,0.9-0.6C133.3,28.1,133.6,27.3,133.5,26.5z"/>
<path class="st0" d="M168.4,22c0.2-0.4,0.4-0.7,0.5-1.1c0.3-0.8,0-1.8-0.8-2.2c-1.5-1.2-3.5-1.5-5.4-1c-1.2,0.2-2.3,1-3,2
	c-0.6,1-0.5,2.3,0.3,3.2c1.2,1.3,2.8,2.1,4.5,2.5c1.7,0.4,3.4,0.8,5.1,1.3c2.6,0.7,5,2,7,3.8c1.6,1.3,2.7,3.1,3.4,5.1
	c0.8,2.6,0.6,5.5-0.4,8c-0.9,2.2-2.3,4.1-4.1,5.6c-1.9,1.5-4.1,2.7-6.5,3.4c-2.7,0.9-5.6,1.2-8.4,1c-2.7-0.2-5.3-1-7.6-2.5
	c-1.1-0.7-2.1-1.7-2.8-2.7c-1.2-1.8-1.1-4.1,0.2-5.8c0.9-1.3,2.4-2.2,4-2.2c2,0,2.8,0.9,2.9,2.7c0,0.6,0.1,1.3,0.2,1.9
	c0.1,0.7,0.6,1.3,1.2,1.7c1,0.7,2.2,1.2,3.5,1.4c2.3,0.2,4.4-0.3,5.9-2.2c0.8-0.9,1-2.2,0.5-3.2c-0.3-0.6-0.7-1.2-1.2-1.6
	c-1.6-1.1-3.3-2-5.2-2.5c-1.9-0.6-3.7-1-5.5-1.7c-3.4-1.2-6.1-3.8-7.6-7c-2.2-4.6-0.9-10.1,3.1-13.4c2.3-1.9,5-3.3,7.9-3.9
	c2-0.4,4.1-0.5,6.1-0.3c2.7,0.1,5.2,0.9,7.5,2.3c0.9,0.6,1.7,1.3,2.4,2.2c0.5,0.6,0.9,1.3,1.2,2c0.3,0.9,0.3,1.8,0,2.7
	c-0.5,1.7-2,2.9-3.8,2.9C171.6,24,169.7,23.3,168.4,22z"/>
<path class="st0" d="M96.1,4.1c2.5,0.1,5-0.1,7.4-0.6c2.5-0.5,4.8-1.5,6.9-3c0.1,0.4,0.1,0.7,0.1,1.1c0,1.3,0,2.6,0,3.8
	c0,6.1,0,12.1-0.1,18.2c0,6.3,0,12.6-0.1,18.9c0,1.7-0.1,3.5,0,5.2c0,1.7,0.6,3.3,1.7,4.6l0.1,0.1c0,0,0,0,0,0.1h-14
	c-0.6,0-1.1,0-1.7,0c-0.2,0-0.4-0.1-0.4-0.3s0-0.4,0-0.5c0-5.9,0-11.7,0-17.6c0-9.8,0-19.7,0-29.6C96.2,4.5,96.1,4.3,96.1,4.1z"/>
<path class="st0" d="M0.9,16.4c5,0.1,9.8-0.4,14.2-3.4c0,0.5,0.1,0.9,0.1,1.3c0,2,0,3.9,0,5.9c0,3.3,0,6.6,0,9.8
	c0,6.4,0,12.7-0.1,19.1c0,1.1,0.4,2.1,1.1,2.9l0.6,0.7h-16L0.9,16.4z"/>
<path class="st0" d="M14.8,5.5c0,1.4-0.7,2.6-1.7,3.5c-2.7,2.3-6.4,3-9.7,1.7c-1.2-0.5-2.2-1.5-2.7-2.7C0.3,6.7,0.5,5.4,1.2,4.4
	c1-1.6,2.6-2.8,4.5-3.2c2-0.6,4.1-0.6,6.1,0.2c1,0.4,1.9,1.1,2.5,2.1C14.6,4,14.8,4.7,14.8,5.5z"/>
</svg>
