<svg id="Layer_1" data-name="Layer 1" xmlns="http://www.w3.org/2000/svg" viewBox="0 0 150 150"><defs><style>.cls-1{fill:#e22627;}.cls-2{fill:#fdf4f4;}</style></defs><title>Dine</title><circle class="cls-1" cx="75" cy="75" r="72.61"/><path class="cls-2" d="M97.35,71.59c2.48-4,4.85-8,7.32-11.9a12.32,12.32,0,0,1,3.74-4c2-1.26,3.53-.2,4.89,1.15s.37,2.49-.55,3.66c-2.54,3.23-5,6.51-7.49,9.81-1.61,2.16-1.66,4.16,0,6.57,3.94,5.72,7.58,11.65,11.32,17.51.58.91,1.72,1.83.89,3s-2.3.69-3.54.52c-2.74-.36-4-2.45-5.26-4.53-3.24-5.28-6.52-10.53-10.11-16.3-1.7,2.34-1.24,4.34-1.2,6.17.06,2.26.57,4.52.56,6.78,0,1.69,1.66,4-.56,5-1.91.86-3.34-1-4.51-2.43s-2.1-1.13-3,.18a4.92,4.92,0,0,1-.57.64c-4.69,4.49-5.56,4.72-11.11,1.4-1.89-1.14-2.71-1.33-4.12.7s-3.3,1.69-7.31-.91c-1.33,3.66-2.7,7.45-7.62,7.05-5.08-.42-7.82-3.85-9.36-8.19-2.63-7.43-3-15-.27-22.53,2-5.33,5-6.53,10.23-4.55.26.1.55.46.73.4,7.93-2.55,4.34,4.46,4.81,6.7,1,4.66,1.64,9.42,3.07,14,.4,1.3.55,3.74,2.66,3.06,1.56-.5,1.43-2.65,1.06-4.17a39,39,0,0,1-.47-16.06,20.11,20.11,0,0,1,3.25-8.69c3.33-4.55,8.09-4.38,11,.44a10.82,10.82,0,0,1,1.46,8.57c-.39,1.53-1.35,2.56-3,2.41-1.93-.18-1.49-1.66-1.43-2.92a18.41,18.41,0,0,0,0-3c-.11-.91,0-2.11-1.56-2a2.12,2.12,0,0,0-2.22,1.56c-2.14,7.1-2.66,14.26-.32,21.36,1.12,3.4,4.6,4.12,7.68,1.92,3.87-2.77,4.82-6.85,4.65-11.3-.54-14-.38-28.1,0-42.15a37.27,37.27,0,0,1,.56-6.34,4.12,4.12,0,0,1,4.57-3.6c2.51.29,1.62,2.62,1.58,4.16-.36,12.34-.83,24.68-1.19,37C96.56,69,96.17,70.3,97.35,71.59ZM62.11,88.05c-.41-5.67-.83-11-3.27-16-.43-.86-.87-2-2-1.92s-1.38,1.27-1.69,2.17a29.6,29.6,0,0,0-.51,16.37c.72,3.11,1.35,8.16,4.44,7.81C62.8,96.06,61.45,90.94,62.11,88.05Z"/><path class="cls-2" d="M46.34,96.68a19.38,19.38,0,0,1-2,9.94c-4.15,7.95-12.13,9.68-19.08,4a31,31,0,0,1-8.9-12.78,5,5,0,0,1-.11-4.15c.53-1.15,1.1-2.48,2.5-2.68,1.67-.24,2,1.31,2.47,2.43,1.79,4,3.78,8,7.24,10.89,4.89,4.14,9.74,2.47,10.94-3.82,1-5.3-.51-10.44-1.51-15.56C35,70.22,32.22,55.45,31,40.44c-.23-2.79-.18-5.45,2.58-7.14,1.64-1,3.24-1.11,3.31,1.26.55,20.7,6.09,40.62,9.35,60.9A10.11,10.11,0,0,1,46.34,96.68Z"/><path class="cls-2" d="M110.92,105.7c-.58,1.44-2.16,1-3.45,1.06a128.39,128.39,0,0,0-40.8,7.83,186.12,186.12,0,0,0-18.4,7.84c-1,.47-1.92,1.62-3.06.66s-.67-2.32-.36-3.57a8.57,8.57,0,0,1,4.92-6c17.87-8.35,36.81-11.23,56.34-11C108.65,102.52,110.88,104.06,110.92,105.7Z"/><path class="cls-2" d="M123.48,92.31c-5.24.06-8.74-2.72-9.39-7.38-.23-1.69-.13-3.09,1.78-3.79s2.76.29,3.55,1.9c1,2,1.3,5,4.55,4.82a3.59,3.59,0,0,0,3.45-2.76c.73-3.22-2.16-4.29-4-5.92-1.36-1.24-3-2.17-4.43-3.32-6.66-5.26-6.08-14,1.19-18.43,4.07-2.49,12.18,2,12.4,6.88.1,2.16-2.08,3.39-4.25,2.35-1.35-.64-2-2-2.81-3.11-.68-1-.62-2.82-2.31-2.64s-1.87,1.89-2.33,3.2c-1.22,3.48-.24,6,3,7.88a37.17,37.17,0,0,1,5.59,3.88c3.32,2.8,5.61,6.19,4.19,10.8C132.72,89.87,128.16,92.24,123.48,92.31Z"/><path class="cls-2" d="M121.94,47.42a9.68,9.68,0,0,1-1.6,4.73c-.91,1.41-2,3.42-3.74,2.79-2.16-.79-.09-2.58-.07-3.93s0-2.52,0-3.77c0-1.92.76-3.43,2.87-3.37S122.06,45.53,121.94,47.42Z"/><path class="cls-2" d="M118.39,105.06c-2.32.39-1-2.15-2.2-2.7.31-.21.63-.6.93-.58,1.26.06,3-.56,3,1.71l.12-.09c-1.92-.78-1.13,1.26-1.84,1.75Z"/><path class="cls-2" d="M120.08,105.09c.14.59,0,1.21-.57,1.34-1.11.26,0-1.5-1.12-1.37l0,.09c.6,1,1.23-.08,1.84,0Z"/><path class="cls-2" d="M120.08,103.49c1.09.54,1.14,1.07,0,1.6l.12.09V103.4Z"/><path class="cls-1" d="M62.11,88.05c-.66,2.89.69,8-3.06,8.43-3.09.35-3.72-4.7-4.44-7.81a29.6,29.6,0,0,1,.51-16.37c.31-.9.51-2.11,1.69-2.17s1.6,1.06,2,1.92C61.28,77,61.7,82.38,62.11,88.05Z"/><path class="cls-1" d="M120.2,103.4v1.78c-.61-.11-1.24,1-1.84,0C119.07,104.66,118.28,102.62,120.2,103.4Z"/></svg>