<?xml version="1.0" encoding="utf-8"?>
<!-- Generator: Adobe Illustrator 21.1.0, SVG Export Plug-In . SVG Version: 6.00 Build 0)  -->
<svg version="1.1" id="Layer_1" xmlns="http://www.w3.org/2000/svg" xmlns:xlink="http://www.w3.org/1999/xlink" x="0px" y="0px"
	 viewBox="0 0 181 35.8" style="enable-background:new 0 0 181 35.8;" xml:space="preserve">
<style type="text/css">
	.st0{fill:#ED3A35;}
</style>
<title>Grocery</title>
<path class="st0" d="M26.8,0.5c-0.6,2.6-1.2,5.1-1.7,7.7c-0.9,3.7-1.7,7.4-2.6,11.1c-0.5,1.8-1.6,3.3-3.1,4.4
	c-1.5,1.2-3.3,1.8-5.2,1.9c-3.7,0.1-7.5,0.1-11.2,0.2H2.6c0.1-0.6,0.3-1.3,0.4-1.9c0.3-1.2,0.5-2.4,0.8-3.7c0-0.3,0.2-0.4,0.4-0.4
	h0.6h6.7c1.1,0.2,2.2-0.6,2.4-1.7c0,0,0,0,0,0c0.5-1.7,1-3.4,1.4-5.1c1-4,1.9-8,2.9-12c0-0.1,0-0.2,0-0.3L26.8,0.5z"/>
<path class="st0" d="M89.3,27.9c-0.2,1-0.4,1.9-0.7,2.7c-0.3,1.4-0.7,2.8-1,4.2c-0.1,0.4-0.2,0.6-0.7,0.6c-5.2,0-10.3,0-15.4,0h-71
	c0.2-1,0.4-1.9,0.6-2.8c0.3-1.4,0.6-2.8,0.9-4.2c0-0.3,0.2-0.5,0.5-0.5c0,0,0,0,0.1,0L89.3,27.9L89.3,27.9z"/>
<path class="st0" d="M99.5,35.3c0.1-0.7,0.3-1.3,0.4-1.8c0.4-1.7,0.8-3.4,1.2-5.1c0.1-0.5,0.3-0.6,0.8-0.6H173h2.2
	c-0.1,0.8-0.3,1.4-0.4,2.1c-0.4,1.6-0.7,3.3-1.1,4.9c-0.1,0.3-0.2,0.4-0.5,0.4c-1.6,0-3.2,0-4.8,0L99.5,35.3L99.5,35.3z"/>
<path class="st0" d="M126,10.6c-0.3,4.4-1.4,8.6-4.7,11.9c-2,2.1-4.7,3.4-7.6,3.8c-2,0.3-4,0.1-5.9-0.5c-2.9-0.9-4.9-3.6-5-6.7
	c-0.3-3.8,0.6-7.6,2.7-10.9c2-3.2,5.3-5.4,9-6c2.5-0.6,5.1-0.2,7.4,0.9c2.3,1.1,3.8,3.3,4,5.8C126,9.5,126,10,126,10.6z M107.8,17
	c0,0.3,0,0.5,0,0.8c0,2.5,2,4.5,4.4,4.5c2.6,0.2,5.2-1.1,6.6-3.4c1.6-2.4,2.4-5.3,2.2-8.2c-0.1-3.4-2.6-5-5.7-4.7
	c-2.4,0.3-4.5,1.7-5.6,3.8C108.4,12.1,107.8,14.6,107.8,17z"/>
<path class="st0" d="M55.8,25.8l-0.1-12h-0.2c-0.1,0.2-0.2,0.3-0.2,0.5c-1.6,3.7-3.3,7.4-4.9,11.1c-0.1,0.3-0.4,0.5-0.7,0.5
	c-1.4,0-2.7,0-4.1,0L44.5,8.4h4.7v11.9h0.2c0.1-0.3,0.3-0.6,0.4-0.9c1.5-3.5,2.9-7,4.4-10.5c0.1-0.4,0.5-0.7,0.9-0.6
	c1.1,0,2.3,0,3.4,0h0.6c0,0.9,0,1.8,0,2.6c0,2.9,0,5.8-0.1,8.7c0,0.2,0.1,0.4,0.2,0.5c0.1-0.1,0.2-0.3,0.2-0.4
	c1.6-3.6,3.2-7.2,4.7-10.8c0.1-0.3,0.4-0.5,0.7-0.5c1.3,0,2.7,0,4.1,0c-0.1,0.3-0.2,0.6-0.3,0.8c-2.6,5.3-5.3,10.7-7.9,16
	c-0.2,0.4-0.6,0.7-1.1,0.7C58.4,25.8,57.1,25.8,55.8,25.8z"/>
<path class="st0" d="M83.2,21c-0.5,1-1.1,1.8-1.9,2.6c-1.8,1.6-4,2.7-6.4,3c-2.7,0.3-6.2-0.8-7.2-4.3c-0.3-1.1-0.3-2.3,0-3.5
	c0.3-2.2,1.1-4.3,2.2-6.1c1.2-2.2,3.4-3.8,5.9-4.3c1.5-0.3,3.1-0.3,4.6,0.1c2.2,0.6,3.8,2.4,4.1,4.6c0.3,1.8,0.2,3.6-0.4,5.3
	c-0.1,0.3-0.3,0.3-0.5,0.3H74c-0.4,0-0.7,0-1.1,0c-0.5-0.1-0.7,0.2-0.8,0.6c-0.4,1.8,0.4,3.4,2,3.8c1.6,0.4,3.4-0.2,4.4-1.6
	c0.2-0.2,0.4-0.3,0.7-0.3C80.5,21,81.8,21,83.2,21z M73,15.4h0.4c2,0,4,0,6,0c0.5,0,0.6-0.2,0.7-0.6c0.3-1.3-0.5-2.7-1.8-3
	c-0.1,0-0.1,0-0.2,0c-2.3-0.4-4.4,1.1-5,3.3C73.1,15.2,73,15.3,73,15.4z"/>
<path class="st0" d="M40.6,21.1c-0.2,0.4-0.4,0.8-0.7,1.1c-2.1,2.8-5.4,4.4-8.9,4.3c-2.8,0.1-5.3-1.8-5.9-4.6
	c-0.2-1.1-0.2-2.3,0.1-3.4c0.3-2.2,1.1-4.3,2.3-6.1c1.3-2.3,3.6-3.8,6.2-4.2c1.3-0.2,2.6-0.1,3.9,0.1c2.4,0.4,4.2,2.4,4.4,4.8
	c0.2,1.7,0.1,3.4-0.4,5.1c-0.1,0.3-0.3,0.3-0.6,0.3c-3.6,0-7.1,0-10.7,0c-0.4,0-0.6,0.2-0.7,0.6c-0.3,1-0.1,2.1,0.5,2.9
	c0.8,0.9,2,1.3,3.2,1c1.1-0.2,2.2-0.8,2.8-1.7c0.1-0.1,0.2-0.2,0.3-0.2c1.3,0,2.7,0,4,0C40.5,21,40.5,21,40.6,21.1z M30.3,15.5h5.8
	c1.4,0,1.4,0,1.3-1.4c0-1-0.6-1.9-1.6-2.1c-1.1-0.3-2.2-0.2-3.2,0.3C31.4,12.9,30.6,14.1,30.3,15.5z"/>
<path class="st0" d="M180.5,14.8c-0.2,4.3-1.8,8-5.8,10.2c-2.6,1.5-5.7,1.8-8.5,0.7c-2.3-0.8-3.9-3-3.9-5.4
	c-0.2-3.2,0.9-6.4,3.1-8.7c2.7-3,6.9-4.1,10.7-2.9c2.5,0.7,4.2,2.9,4.2,5.5C180.5,14.4,180.5,14.6,180.5,14.8z M175.8,15.4
	c0-0.2,0-0.4,0-0.6c0-1.4-1-2.6-2.4-2.8c-1.8-0.4-3.8,0.4-4.8,1.9c-1.2,1.7-1.7,3.7-1.6,5.7c0,1.3,0.9,2.4,2.2,2.7
	c1.9,0.4,3.8-0.3,4.9-1.8C175.2,19.1,175.8,17.3,175.8,15.4L175.8,15.4z"/>
<path class="st0" d="M143.1,13.8h-4.3c0-0.1,0-0.3-0.1-0.4c0-0.9-0.7-1.7-1.6-1.8c-0.9-0.2-1.9-0.1-2.8,0.2
	c-0.5,0.2-0.8,0.5-1.1,0.9c-0.4,0.4-0.3,1,0.1,1.4c0.1,0.1,0.2,0.2,0.4,0.2c0.7,0.3,1.4,0.5,2.1,0.7c1.2,0.3,2.4,0.6,3.6,0.9
	c0.3,0.1,0.6,0.2,0.9,0.3c1.8,0.6,2.7,2.6,2.1,4.3c-0.4,2-1.8,3.7-3.6,4.5c-3,1.5-6.5,1.6-9.6,0.4c-2-0.7-3.1-2.7-2.6-4.8
	c0-0.1,0.2-0.3,0.3-0.3c1.4,0,2.9,0,4.3,0c0,0.2,0,0.4,0,0.5c-0.1,0.7,0.4,1.4,1.1,1.6c1.4,0.6,2.9,0.6,4.3,0
	c0.2-0.1,0.4-0.2,0.6-0.4c0.9-0.8,0.8-1.8-0.3-2.2c-1-0.4-2-0.5-3-0.8c-1-0.2-2-0.5-2.9-0.9c-2.2-0.9-2.9-2.5-2.1-4.8
	c0.8-2.7,3-4.6,5.7-5c1.9-0.4,3.8-0.3,5.6,0.2c1.7,0.3,3,1.6,3.2,3.3C143.1,12.6,143.1,13.2,143.1,13.8z"/>
<path class="st0" d="M160.2,19.7c-0.1,0.2-0.1,0.3-0.2,0.5c-1.2,3.2-4,5.5-7.4,6c-1.6,0.3-3.2,0.2-4.6-0.3c-1.9-0.6-3.2-2.3-3.3-4.2
	c-0.4-3.7,0.7-7.4,3.1-10.2c1.4-1.7,3.5-2.8,5.8-3.1c1.5-0.2,3-0.1,4.4,0.3c2.1,0.6,3.5,2.6,3.4,4.8c0,1.3,0,1.3-1.3,1.3h-3.2
	c-0.1-0.4-0.1-0.8-0.2-1.2c-0.2-1-1-1.6-2-1.6c-1.5-0.1-2.8,0.6-3.6,1.8c-1.2,1.9-1.8,4.1-1.7,6.3c0.1,2.2,2,2.8,3.6,2.4
	c1.1-0.3,2.1-1.1,2.5-2.2c0.2-0.4,0.6-0.7,1.1-0.7c1.1,0,2.2,0,3.4,0C159.8,19.6,160,19.6,160.2,19.7z"/>
<path class="st0" d="M85.4,25.8c0.2-0.8,0.3-1.6,0.5-2.3c1.5-7,3-13.9,4.4-20.8c0-0.2,0.2-0.4,0.3-0.4c1.4,0,2.8,0,4.3,0l-0.7,3.3
	l-4.1,19.3c-0.2,1.1-0.2,1.1-1.3,1.1L85.4,25.8z"/>
<path class="st0" d="M101.3,18.7c0,0.3-0.1,0.5-0.1,0.8c-0.1,0.6-0.3,1.2-0.4,1.8c-0.1,0.4-0.3,0.5-0.6,0.5h-7.9
	c0.2-1,0.4-1.9,0.6-2.8c0-0.1,0.3-0.2,0.4-0.3c0.8,0,1.7,0,2.5,0H101.3L101.3,18.7z"/>
</svg>
