<?xml version="1.0" encoding="utf-8"?>
<!-- Generator: Adobe Illustrator 21.1.0, SVG Export Plug-In . SVG Version: 6.00 Build 0)  -->
<svg version="1.1" id="Layer_1" xmlns="http://www.w3.org/2000/svg" xmlns:xlink="http://www.w3.org/1999/xlink" x="0px" y="0px"
	 viewBox="0 0 243.6 86.2" style="enable-background:new 0 0 243.6 86.2;" xml:space="preserve">
<style type="text/css">
	.st0{fill:#FFFFFF;}
	.st1{fill:#010101;}
	.st2{fill:none;stroke:#FFFFFF;stroke-width:1.6;stroke-miterlimit:10;}
	.st3{fill:#FCFBFB;}
	.st4{fill:#FDFCFC;}
	.st5{fill:#FCFCFC;}
	.st6{fill:#FBFBFB;}
	.st7{fill:#F4F4F4;}
	.st8{fill:#D12030;}
	.st9{fill:#AA2833;}
	.st10{fill:#030303;}
	.st11{fill:#0B0B0B;}
</style>
<title>Fast Casual</title>
<path d="M176.2,15.8h-2V9.6c0.3,0,0.5,0,0.7,0c4.7,0,9.5,0,14.2,0c0.4-0.1,0.9,0.2,0.9,0.7c1.1,2.8,2.1,5.7,3.2,8.5
	c0.1,0.2,0.2,0.4,0.3,0.8l1.9-4.8c0.6-1.5,1.2-3.1,1.8-4.6c0.1-0.3,0.4-0.5,0.7-0.5h14.7h0.3v6.2h-1.9v13.5h2v6.2h-13.5v-6.2h1.9
	V15.5h-0.1c-0.5,1.3-1,2.5-1.4,3.7c-2,5.2-4,10.5-5.9,15.8c-0.1,0.4-0.5,0.7-0.9,0.6c-0.9,0-1.7,0-2.6,0c-0.4,0.1-0.8-0.2-0.9-0.6
	c-1.7-4.6-3.5-9.2-5.2-13.8c-0.7-1.9-1.4-3.7-2.2-5.6v13.7h1.9v6.2h-10v-6.2h1.9L176.2,15.8z"/>
<path d="M157.6,35.5v-6.2h2V15.2c-0.2,0.4-0.3,0.6-0.3,0.8c-2.4,6.3-4.8,12.6-7.1,18.9c-0.1,0.5-0.5,0.8-1,0.7
	c-0.8-0.1-1.6-0.1-2.4,0c-0.5,0.1-0.9-0.2-1-0.7c-2.3-6.2-4.7-12.4-7-18.6c-0.1-0.3-0.2-0.5-0.4-0.9v14h2v6.2h-9.9v-6.2h1.9V15.9
	h-1.9V9.6c0.2,0,0.5,0,0.7,0c4.7,0,9.5,0,14.2,0c0.4-0.1,0.9,0.2,0.9,0.7c1.1,2.9,2.2,5.7,3.3,8.6c0.1,0.2,0.2,0.4,0.3,0.7l1.9-4.8
	c0.6-1.5,1.2-3.1,1.8-4.6c0.1-0.2,0.4-0.4,0.6-0.5c4.9,0,9.8,0,14.8,0c0.1,0,0.2,0,0.3,0v6.2h-2v13.5h2v6.2L157.6,35.5z"/>
<path d="M146.2,54.3h-1.9v-6.1h13.5v6.1h-1.6v3.9h5.8v-3.8h-1.5v-6.2h13.5v6.1h-1.8v13.4h1.8v6.2h-13.5v-6.1h1.5v-4.1h-5.8v4.1h1.6
	v6.2h-13.5v-6.1h1.9L146.2,54.3z"/>
<path d="M185.4,58.8v8.9h2.2v6.1h-10.5v-6.1h2.2V54.2h-2.2v-6.2h0.7c3.6,0,7.3,0,10.9,0c0.4,0,0.8,0.2,1,0.5
	c2.7,3.9,5.4,7.9,8.2,11.8c0.2,0.3,0.4,0.6,0.7,0.9v-7.1h-1.9v-6.1h10.3v6.1h-2.2v19.9h-4.9c-1,0-2,0-2.9,0c-0.4,0-0.9-0.2-1.1-0.6
	c-3.3-4.8-6.6-9.5-9.9-14.3C185.7,59.2,185.6,59,185.4,58.8z"/>
<path d="M142.3,60c0,7.4-4.8,12.9-11.2,13.9c-3.7,0.7-7.5,0.3-10.8-1.4c-4.1-1.9-6.8-6-7-10.6c-0.5-4.9,1.9-9.7,6.2-12.3
	c3-1.9,6.3-2.3,9.8-2.1c3,0.1,5.9,1.1,8.2,3.1C140.4,52.9,142.1,56.4,142.3,60z M131.2,60.9H131c0-0.8,0-1.7,0-2.5
	c-0.1-1-0.3-2-0.6-2.9c-0.3-1.2-1.4-1.9-2.6-1.9c-1.2,0-2.3,0.7-2.7,1.9c-0.2,0.4-0.3,0.8-0.3,1.3c-0.1,2.1-0.3,4.1-0.2,6.2
	c0,1.2,0.3,2.3,0.6,3.4c0.4,1.4,1.9,2.1,3.2,1.7c0,0,0,0,0,0c1.3-0.3,2.2-1.4,2.3-2.8C131,63.9,131.1,62.4,131.2,60.9L131.2,60.9z"
	/>
<path d="M241.9,9.6v6.1c-0.1,0.1-0.3,0.1-0.4,0.1c-0.9-0.2-1.4,0.3-2,1c-1.8,2.7-3.6,5.3-5.4,7.9c-0.2,0.3-0.3,0.6-0.3,1
	c0,1.1,0,2.3,0,3.5h2v6.2h-14.1v-6.2h2.1c0-1.4,0-2.7,0-4c0-0.2-0.2-0.4-0.3-0.5c-2-2.8-3.9-5.6-5.9-8.4c-0.2-0.4-0.6-0.5-1-0.5
	c-0.4,0-0.7,0-1.1,0V9.6h13.5v6.2h-1.5l2.7,5.2l3.3-5.2h-1.5V9.6H241.9z"/>
<path d="M228.5,72.2v1.5h-5.8v-8.2c1.9,0,3.7,0,5.5,0c0.1,0,0.4,0.3,0.4,0.5c0.4,1.4,1.6,2.5,3.1,2.8c0.4,0.1,0.9,0.1,1.3,0
	c0.6,0,1.1-0.4,1.3-1c0.3-0.7,0-1.5-0.5-1.9c-0.9-0.6-1.8-1-2.7-1.5c-1.8-0.9-3.6-1.7-5.2-2.8c-3.1-2-4.3-5.9-2.9-9.3
	c1-2.6,3.5-4.4,6.4-4.6c2.3-0.4,4.7,0.2,6.6,1.6c0.1,0,0.2,0.1,0.3,0.1v-1.4h5.9c0,1.2,0,2.4,0,3.6s0,2.4,0,3.7h-3.5
	c-0.1,0-0.2,0-0.4,0c-1.2,0.1-2,0-2.6-1.3s-2-1.8-3.5-1.7c-0.8,0.1-1.5,0.8-1.4,1.6c0,0.5,0.3,0.9,0.7,1.2c1.7,0.9,3.4,1.8,5.1,2.7
	s3.4,1.6,4.6,3.1c2.9,3.2,2.7,8.2-0.5,11.1c-1.4,1.2-3.1,2-4.9,2c-2.4,0.3-4.7-0.3-6.7-1.6L228.5,72.2z"/>
<path d="M111.8,9.6v6.2h-2.2c0,0.3,0,0.6,0,0.9c0,5.9,0,11.8,0,17.7c0.1,1.8-0.3,3.5-1,5.1c-1.2,2.4-3.6,3.9-6.2,3.9
	c-1.7,0.1-3.5-0.1-5.2-0.1c-0.2,0-0.5-0.2-0.5-0.4c0-2,0-4,0-6c0.5,0,1,0,1.4,0c0.7,0,1.3-0.6,1.3-1.3c0,0,0,0,0-0.1
	c0.1-0.8,0.2-1.6,0.2-2.4c0-5.6,0-11.1,0-16.7c0-0.2,0-0.4,0-0.6h-2.3V9.6H111.8z"/>
<path d="M96.7,75.2c2.5,0.1,2.7-0.1,2.9-2.5c0-0.5,0-1.1,0-1.6c0-5.3,0-10.6,0-15.9v-0.9h-2.3v-6.2h14.5v6.1h-2.1c0,0.4,0,0.6,0,0.9
	c0,5.1,0,10.3,0,15.4c0,1.7-0.1,3.3-0.3,5c-0.4,3.4-3.3,6-6.7,6.1c-1.8,0.1-3.6,0-5.4-0.1c-0.2,0-0.5-0.3-0.5-0.4
	C96.6,79.1,96.7,77.2,96.7,75.2z"/>
<path d="M129.1,35.5h-14.7v-6.2h2.3V15.9h-2.3V9.6h14.7v6.2h-2.3v13.4h2.2L129.1,35.5z"/>
<path d="M210.3,62.5v-3.8c1.1-0.1,2.4-0.1,3-1.2c0.3-0.8,0.5-1.7,0.5-2.6h-3.5v-6.7h9.1c0,0,0.1,0.1,0.1,0.1c0,3.1,0,6.1-0.1,9.2
	c-0.1,2.2-1.7,4-3.9,4.4C213.8,62.1,212.1,62.4,210.3,62.5z"/>
<path class="st0" d="M131.2,60.9c-0.1,1.5-0.2,2.9-0.5,4.4c-0.1,1.3-1,2.5-2.3,2.8c-1.4,0.4-2.8-0.3-3.2-1.7c0,0,0,0,0,0
	c-0.4-1.1-0.6-2.2-0.7-3.4c0-2.1,0.1-4.1,0.2-6.2c0-0.4,0.2-0.9,0.3-1.3c0.4-1.2,1.5-1.9,2.7-1.9c1.2-0.1,2.3,0.7,2.7,1.9
	c0.3,1,0.5,1.9,0.6,2.9c0,0.8,0,1.7,0,2.5L131.2,60.9z"/>
<circle class="st1" cx="43.1" cy="43.1" r="42.6"/>
<circle class="st2" cx="43.1" cy="43.1" r="38.1"/>
<path class="st1" d="M11.2,52.9l1.8-1.2c0.1-0.1,0.2-0.1,0.3,0c0,0,0,0,0,0c0.3,0.2,0.5,0.4,0.8,0.6l1,0.8c-0.2-0.7-0.4-1.4-0.6-2.1
	c-0.1-0.1,0-0.3,0.1-0.4c0,0,0,0,0,0c0.5-0.3,1-0.7,1.5-1c0.1-0.1,0.2-0.1,0.3-0.2l-2.2-0.1c-0.1,0-0.2-0.1-0.2-0.2
	c-0.2-0.7-0.4-1.4-0.6-2.1c-0.3,0.7-0.5,1.4-0.8,2.1c0,0.2-0.2,0.3-0.3,0.2c0,0,0,0,0,0c-0.6,0-1.3-0.1-1.9-0.1c-0.1,0-0.1,0-0.2,0
	l1.7,1.4c0.1,0.1,0.2,0.2,0.1,0.3c0,0,0,0,0,0c-0.2,0.5-0.4,0.9-0.5,1.4C11.3,52.5,11.2,52.7,11.2,52.9L11.2,52.9L11.2,52.9
	L11.2,52.9z"/>
<path class="st1" d="M71.4,52.6c0.1,0,0.1-0.1,0.2-0.1c0.5-0.4,1-0.8,1.5-1.2c0.1-0.1,0.3-0.1,0.4,0c0,0,0,0,0,0
	c0.6,0.4,1.2,0.8,1.8,1.1c0,0,0-0.1,0-0.1c-0.2-0.6-0.4-1.2-0.7-1.7c-0.1-0.2-0.1-0.4,0.1-0.6c0,0,0,0,0,0c0.5-0.4,1-0.8,1.6-1.3
	h-0.5l-1.7,0.1c-0.1,0-0.3,0-0.3-0.2c0,0,0,0,0,0c-0.3-0.7-0.5-1.3-0.8-2c-0.2,0.7-0.3,1.3-0.5,1.9c-0.1,0.4-0.1,0.4-0.6,0.5h-0.5
	l-1.4,0.1l1.9,1.2c0.1,0,0.2,0.2,0.1,0.3c0,0,0,0,0,0c-0.1,0.3-0.2,0.7-0.3,1C71.5,51.9,71.5,52.2,71.4,52.6L71.4,52.6L71.4,52.6
	L71.4,52.6z"/>
<path class="st1" d="M14.5,59.9L14.5,59.9c0,0.2,0,0.4,0,0.6c0.1,0.7,0.7,1.3,1.4,1.4c0.8,0.1,1.6-0.3,1.9-1.1
	c0.1-0.6,0.1-1.1,0-1.7c-0.1-0.3-0.1-0.6,0-0.8c0-0.2,0.2-0.4,0.5-0.4c0.1,0,0.2,0.1,0.3,0.1c0.3,0.2,0.4,0.7,0.2,1c0,0,0,0,0,0
	c-0.2,0.2-0.2,0.5-0.1,0.7c0,0,0,0.1,0.1,0.1c0.1,0.1,0.1,0.2,0.2,0.3c0,0.1,0.1,0.1,0.2,0l0.9-0.6c0.1-0.1,0.4-0.2,0.4-0.3
	s-0.2-0.3-0.3-0.5c-0.2-0.3-0.2-0.3-0.5-0.1l0,0c0.1-0.2,0.1-0.5,0-0.7c-0.2-0.6-0.7-1-1.3-1.1c-0.7,0-1.3,0.4-1.6,1
	c-0.2,0.5-0.2,1-0.1,1.6c0,0.3,0,0.6,0,0.9c0,0.3-0.2,0.5-0.5,0.5c-0.3,0-0.6-0.1-0.7-0.4c-0.2-0.3-0.1-0.7,0.1-0.9
	c0.1-0.1,0.3-0.2,0.3-0.3c-0.1-0.2-0.2-0.3-0.3-0.4c-0.1-0.1-0.1-0.1-0.1-0.2c0-0.1-0.1-0.1-0.2,0l-1,0.6c-0.2,0.1-0.4,0.2-0.5,0.3
	s0.2,0.3,0.3,0.5C14.2,60.1,14.2,60.1,14.5,59.9z"/>
<path class="st1" d="M69,26.5L69,26.5c0.1,0.1,0,0.2-0.1,0.3c-0.7,1.4-1.3,2.8-2,4.2c-0.1,0.1-0.1,0.3,0,0.4
	c0.3,0.5,0.6,1.1,0.9,1.6c0.1,0.2,0.2,0.2,0.4,0.1l4.2-2.3c0.3-0.2,0.3-0.2,0.5,0.1c0.1,0.2,0.2,0.2,0.3,0.1
	c0.4-0.2,0.8-0.4,1.1-0.6c0.1-0.1,0.1-0.1,0.1-0.2c-0.4-0.7-0.8-1.5-1.2-2.2c-0.1-0.1-0.1-0.1-0.2-0.1l-1,0.5
	c-0.4,0.2-0.4,0.2-0.2,0.6c0.1,0.1,0.1,0.2-0.1,0.3L70.3,30c0,0-0.1,0.1-0.2,0l1.8-3.8c0-0.1,0.1-0.2,0-0.3c-0.5-0.9-1-1.8-1.5-2.7
	c-0.1-0.1-0.1-0.1-0.2-0.1l-1,0.6c-0.3,0.2-0.3,0.2-0.1,0.5s0.1,0.3-0.1,0.3c-0.9,0.5-1.7,1-2.6,1.4c-0.4,0.2-0.4,0.2-0.6-0.2
	c-0.1-0.1-0.1-0.2-0.3-0.1c-0.4,0.2-0.8,0.4-1.2,0.7c-0.1,0.1-0.1,0.1-0.1,0.2c0.4,0.7,0.8,1.5,1.3,2.2c0.1,0.1,0.1,0.1,0.2,0.1
	l0.9-0.5c0.4-0.2,0.4-0.2,0.2-0.6c-0.1-0.1,0-0.2,0.1-0.2l0.8-0.5C68.2,27,68.6,26.7,69,26.5z"/>
<path class="st1" d="M23.2,17.9l0.1,0.1l3.9,2.9c0.2,0.2,0.4,0.4,0.7,0.4s0.5-0.3,0.7-0.4c0.1-0.1,0.2-0.2,0.1-0.3l-1-4.4
	c-0.1-0.4-0.2-0.8-0.3-1.1c0.1,0,0.1,0.1,0.1,0.1l1.8,2.7c0.2,0.3,0.2,0.3-0.1,0.5c-0.1,0.1-0.2,0.1-0.1,0.3
	c0.3,0.3,0.5,0.7,0.7,1.1c0.1,0.1,0.1,0.2,0.3,0.1c0.9-0.6,1.8-1.2,2.7-1.8c0.1-0.1,0.1-0.2,0-0.3c-0.2-0.3-0.5-0.7-0.7-1
	s-0.3-0.3-0.4-0.1c-0.2,0.2-0.2,0.1-0.3-0.1c-0.5-0.9-1.1-1.7-1.7-2.6c-0.2-0.3-0.2-0.3,0.1-0.5c0.1-0.1,0.2-0.1,0.1-0.3
	c-0.2-0.3-0.5-0.7-0.7-1c-0.1-0.2-0.2-0.2-0.4-0.1c-0.9,0.6-1.9,1.2-2.8,1.8c-0.5,0.3-0.5,0.3-0.4,0.9s0.3,1.5,0.5,2.2l-0.1-0.1
	l-2-1.5c-0.1-0.1-0.2-0.1-0.3,0c-1.1,0.7-2.2,1.4-3.3,2.1c-0.1,0.1-0.1,0.1,0,0.2c0.2,0.3,0.5,0.7,0.7,1s0.3,0.3,0.4,0.1
	s0.2-0.1,0.3,0.1c0.5,0.9,1.1,1.7,1.7,2.6c0.2,0.2,0.1,0.3-0.1,0.5c-0.1,0-0.2,0.1-0.1,0.2l0.8,1.2c0.1,0.1,0.1,0.1,0.2,0l2-1.3
	c0.1-0.1,0.1-0.1,0-0.2c-0.2-0.3-0.4-0.7-0.6-1s-0.2-0.3-0.5-0.1c-0.1,0.1-0.1,0.1-0.2,0c-0.6-1-1.3-2-1.9-3L23.2,17.9z"/>
<path class="st1" d="M14.7,28.1l5.4,1.2c0.2,0,0.3,0,0.4-0.2c0.1-0.2,0.2-0.4,0.3-0.5c0.1-0.1,0.1-0.2,0-0.3l-2.4-3.2l-0.9-1.3
	c0.1,0,0.2,0,0.3,0.1l2.6,1.7c0.3,0.2,0.3,0.2,0.1,0.5s-0.1,0.2,0.1,0.3l1.1,0.7c0.1,0.1,0.2,0.1,0.3,0c0.6-0.9,1.2-1.8,1.8-2.8
	c0.1-0.1,0.1-0.2-0.1-0.3l-1-0.6c-0.3-0.2-0.3-0.2-0.5,0.1c-0.1,0.1-0.1,0.2-0.3,0.1l-2.6-1.7c-0.3-0.2-0.3-0.2-0.1-0.5
	s0.1-0.2-0.1-0.3c-0.4-0.2-0.7-0.4-1.1-0.7c-0.1-0.1-0.2-0.1-0.3,0.1c-0.6,1-1.3,2-2,3c-0.2,0.2-0.2,0.5,0,0.7c0.5,0.7,1,1.3,1.5,2
	l-2.6-0.6c-0.1,0-0.2,0-0.3,0.1L12.2,29c-0.1,0.1-0.1,0.2,0.1,0.2c0.3,0.2,0.7,0.4,1,0.7c0.2,0.2,0.4,0.2,0.5-0.1s0.1-0.2,0.3-0.1
	l2.6,1.7c0.3,0.2,0.3,0.2,0.1,0.5c-0.1,0.1-0.1,0.2,0.1,0.3c0.4,0.2,0.7,0.5,1.1,0.7c0.1,0.1,0.2,0.1,0.3-0.1
	c0.4-0.7,0.8-1.3,1.3-1.9c0.1-0.2,0.1-0.2-0.1-0.3c-0.3-0.2-0.6-0.4-0.9-0.6s-0.3-0.2-0.5,0.1s-0.2,0.2-0.3,0.1s-0.4-0.2-0.5-0.3
	L14.7,28.1L14.7,28.1z"/>
<path class="st1" d="M40.5,43.6L40.5,43.6c0-2.9,0-5.9,0-8.8c0-0.2,0.1-0.3,0.3-0.3c0.5,0,1,0,1.6,0c0.2,0,0.3,0,0.3-0.3
	c0-2.3,0-4.5,0-6.8c0-0.2,0-0.3-0.3-0.3H27.6c-0.1,0-0.3,0-0.3,0.2c0,2.3,0,4.6,0,6.9c0,0.2,0,0.2,0.2,0.2c0.6,0,1.2,0,1.8,0
	c0.2,0,0.3,0,0.3,0.2c0,5.5,0,10.9,0,16.4c0,0.6,0,1.3-0.1,1.9c-0.1,0.6-0.4,0.9-1,0.8h-0.2c-0.4-0.1-0.8-0.1-1.2-0.3
	c-0.2-0.1-0.3,0-0.3,0.2c0,2.4,0,4.7,0,7.1c0,0.2,0,0.2,0.2,0.2c1,0.1,1.9,0.3,2.9,0.3c1.5,0.1,3.1,0,4.5-0.2
	c2.5-0.5,4.5-2.2,5.4-4.5c0.5-1.4,0.8-3,0.8-4.5C40.5,49.3,40.5,46.4,40.5,43.6z"/>
<path class="st1" d="M57.8,43.6c0-3,0-5.9,0-8.9c0-0.2,0.1-0.3,0.3-0.3c0.5,0,1.1,0,1.6,0c0.2,0,0.3,0,0.3-0.3c0-1.2,0-2.4,0-3.6
	c0-1.1,0-2.1,0-3.2c0-0.2,0-0.3-0.3-0.3s-0.5,0-0.8,0h-14c-0.2,0-0.3,0-0.3,0.2c0,2.3,0,4.6,0,6.8c0,0.2,0,0.2,0.2,0.2
	c0.6,0,1.2,0,1.8,0c0.2,0,0.3,0,0.3,0.3c0,5.4,0,10.8,0,16.2c0,0.7,0,1.4-0.1,2.2c-0.1,0.5-0.3,0.8-0.8,0.8c-0.1,0-0.3,0-0.4,0
	c-0.4-0.1-0.8-0.1-1.2-0.3c-0.1,0-0.2-0.1-0.2,0.1c0,2.4,0,4.8,0,7.1c0,0.1,0,0.2,0.2,0.2c1,0.1,1.9,0.3,2.8,0.3
	c1.4,0.1,2.8,0,4.2-0.2c1.9-0.3,3.6-1.3,4.7-2.8c1-1.4,1.6-3,1.7-4.7c0.1-1.3,0.1-2.6,0.1-3.9C57.9,47.8,57.8,45.7,57.8,43.6z"/>
<path class="st1" d="M65,19.9L64.9,20c-0.2,0.2-0.3,0.3-0.4,0.5c-0.1,0.2-0.2,0.2-0.4,0s-0.3-0.3-0.5-0.4s-0.5-0.3-0.5-0.5
	s0.3-0.3,0.4-0.5l0.1-0.1c0.1-0.2,0.2-0.2,0.4,0s0.2,0.1,0.3,0c0.3-0.3,0.6-0.7,0.9-1c0.1-0.1,0.1-0.2,0-0.3l-2.5-2.3
	c-0.1-0.1-0.2-0.1-0.2,0l-0.8,0.9c-0.2,0.3-0.2,0.3,0,0.5c0.1,0.1,0.1,0.1,0,0.3c-0.7,0.8-1.4,1.5-2.1,2.3c-0.2,0.3-0.2,0.3-0.5,0
	c-0.1,0-0.1-0.2-0.2,0c-0.3,0.4-0.6,0.7-0.9,1c-0.1,0.1-0.1,0.1,0,0.2l2.5,2.3c0.1,0.1,0.2,0.1,0.2,0c0.3-0.3,0.6-0.7,0.9-1
	c0.1-0.1,0.1-0.2,0-0.3s-0.2-0.2,0-0.3c0.2-0.2,0.3-0.4,0.5-0.6c0.1-0.1,0.1-0.1,0.2,0c0.3,0.3,0.6,0.6,1,0.9c0.1,0.1,0.1,0.2,0,0.3
	c-0.2,0.2-0.3,0.3-0.5,0.5c-0.1,0.2-0.2,0.2-0.3,0s-0.1-0.2-0.2-0.1l-1,1.1c-0.1,0.1-0.1,0.1,0,0.2l2.6,2.3c0.1,0.1,0.1,0.1,0.2,0
	c0.3-0.3,0.5-0.6,0.8-0.9s0.2-0.3,0-0.4s-0.2-0.2,0-0.3c0.7-0.7,1.4-1.5,2-2.3c0.2-0.2,0.3-0.2,0.5,0s0.2,0.1,0.3,0
	c0.3-0.3,0.6-0.7,0.9-1c0.1-0.1,0.1-0.2,0-0.3L66,18.4c-0.1-0.1-0.2-0.1-0.3,0c-0.3,0.3-0.6,0.7-0.9,1c-0.1,0.1-0.1,0.2,0,0.2
	S65,19.8,65,19.9z"/>
<path class="st1" d="M58.8,15.4c0-0.2,0-0.5-0.1-0.7c0-0.1-0.1-0.3-0.1-0.4c-0.8-1.9-2.8-3-4.9-2.6c-1.9,0.4-3.2,2.3-2.7,4.3
	c0.1,0.3,0.1,0.5,0.2,0.7c0.7,1.5,2.3,2.5,4,2.4c2,0,3.6-1.6,3.6-3.5C58.8,15.5,58.8,15.5,58.8,15.4z"/>
<path class="st1" d="M36,12c-0.1-0.5-0.2-1-0.3-1.5c0-0.2-0.1-0.2-0.2-0.1l-0.6,0.2l-2.5,0.6c-0.2,0-0.2,0.1-0.2,0.3
	c0.1,0.4,0.2,0.8,0.3,1.2c0,0.1,0.1,0.2,0.2,0.2c0.2-0.1,0.4,0,0.5,0.1c0.5,0.5,1,1,1.6,1.5c0.3,0.2,0.5,0.6,0.6,1c0,0,0,0.1,0,0.1
	c0.1,0.3,0.1,0.3-0.3,0.4c-0.1,0-0.2,0.1-0.2,0.2c0.1,0.4,0.2,0.9,0.3,1.4c0,0.1,0.1,0.1,0.2,0.1s0.5-0.1,0.8-0.2l2.6-0.6
	c0.1,0,0.2,0,0.2-0.1c-0.1-0.5-0.2-1-0.3-1.5c0-0.1-0.1-0.1-0.1-0.1s-0.3,0.2-0.4,0S38,14.8,38,14.7s0-0.2,0-0.2
	c-0.1-0.2-0.1-0.4,0-0.6c0.3-0.7,0.6-1.4,0.8-2.1c0.1-0.3,0.2-0.6,0.7-0.6c-0.1-0.5-0.2-1-0.4-1.5c0-0.1,0-0.1-0.2-0.1l-2.3,0.6
	c-0.1,0-0.2,0.1-0.1,0.2c0.1,0.4,0.2,0.8,0.3,1.2c0,0.3,0.2,0.3,0.4,0.3h0.1l-0.5,1.5l-1-1.2L36,12z"/>
<path class="st1" d="M76.1,39.6c0.3-0.6,0.4-1.3,0.3-1.9c-0.1-0.7-0.6-1.4-1.3-1.6c-0.7-0.3-1.6-0.1-2.1,0.5
	c-0.3,0.4-0.6,0.8-0.7,1.3c-0.1,0.5-0.3,1-0.5,1.4c-0.2,0.3-0.4,0.4-0.6,0.4s-0.4-0.3-0.4-0.6c0-0.4,0.2-0.8,0.6-0.9
	c0.2-0.1,0.2-0.2,0.2-0.4c-0.1-0.4-0.1-0.8-0.2-1.2c0-0.1-0.1-0.1-0.2-0.1l-1.9,0.2c-0.1,0-0.2,0.1-0.2,0.2c0,0.3,0.1,0.7,0.1,1
	s0.1,0.4,0.4,0.4l0,0c-0.3,0.6-0.4,1.3-0.2,2c0.2,1.2,1.3,2,2.4,1.8c0.7-0.1,1.2-0.5,1.6-1.1c0.3-0.5,0.5-0.9,0.6-1.4
	c0.1-0.3,0.2-0.7,0.3-1c0.1-0.2,0.3-0.3,0.6-0.3c0.1,0.1,0.3,0.2,0.3,0.3c0.1,0.4-0.1,0.9-0.5,1.1c-0.1,0.1-0.2,0.2-0.2,0.3
	c0.1,0.4,0.1,0.8,0.2,1.2c0,0.2,0.1,0.2,0.2,0.2l1.7-0.2c0.2,0,0.1-0.1,0.1-0.2c0-0.3-0.1-0.7-0.1-1S76.6,39.5,76.1,39.6z"/>
<path class="st1" d="M46.3,18.9c0.9,0,1.6-0.6,1.9-1.4c0.3-1,0.4-2,0.5-3.1c0.1-0.8,0.2-1.6,0.3-2.4c0.1-0.4,0.1-0.4,0.5-0.3
	c0.1,0,0.2,0.1,0.2-0.1c0.1-0.5,0.1-0.9,0.2-1.4c0-0.1,0-0.2-0.1-0.2l-3.7-0.5c-0.1,0-0.1,0-0.1,0.1c0,0.4-0.1,0.8-0.2,1.2
	s0,0.4,0.4,0.5c0.2,0,0.2,0.1,0.2,0.2c-0.1,0.7-0.2,1.3-0.3,1.9c-0.1,1-0.3,2-0.4,2.9c-0.1,0.5-0.2,0.6-0.8,0.5
	c-0.1,0-0.1,0-0.1,0.1c-0.1,0.5-0.1,1-0.2,1.4c0,0.1,0,0.2,0.1,0.2C45.2,18.8,45.7,18.9,46.3,18.9z"/>
<path class="st1" d="M17,42.7l1.6,0.2c0.1,0,0.1,0,0.2-0.1c0.1-0.5,0.1-1,0.1-1.4c0-1-0.7-1.8-1.6-2c-1.1-0.2-2.3-0.3-3.4-0.4
	c-0.7-0.1-1.3-0.1-2-0.2c-0.4,0-0.4-0.1-0.3-0.4c0-0.2,0-0.2-0.2-0.2L10,38c-0.1,0-0.2,0-0.2,0.2c0,0.3-0.1,0.7-0.1,1
	c-0.1,0.9-0.2,1.7-0.3,2.6c0,0.2,0.1,0.2,0.2,0.2l1,0.1c0.5,0,0.5,0,0.6-0.4c0-0.1,0-0.2,0.2-0.2l2.7,0.3c0.7,0.1,1.5,0.1,2.2,0.2
	S17.1,42.1,17,42.7z"/>
<path class="st1" d="M40.8,73.9l0.6,2.2c0.1,0.5,0.1,0.5,0.7,0.5h0.3c0.2,0,0.3,0,0.3-0.2c0.5-1.3,1.1-2.6,1.7-4
	c0.2-0.4,0.2-0.4,0.7-0.4c0.1,0,0.2,0,0.2-0.1s0-0.5,0-0.7c0-0.1,0-0.1-0.1-0.1l-2-0.1c-0.1,0-0.1,0-0.2,0.1c-0.1,0.3-0.1,0.6,0,0.9
	c0,0.1,0.3,0.1,0.5,0.1l0,0l-1.1,2.6l-0.7-2.8c0.5,0.1,0.5,0.1,0.6-0.4c0-0.1,0-0.2,0-0.3s0-0.2-0.2-0.2c-0.5,0-0.9,0-1.3-0.1
	s-0.5-0.1-0.5,0.4s0,0.5,0.5,0.6l-1.1,2.6l-0.7-2.5c0-0.1,0-0.1,0.1-0.1c0.4,0,0.4,0,0.5-0.5c0-0.1,0-0.2,0-0.3c0-0.1,0-0.2-0.2-0.2
	c-0.6,0-1.2-0.1-1.8-0.1s-0.5,0-0.6,0.5c0,0,0,0.1,0,0.1c-0.1,0.2,0,0.4,0.3,0.3s0.3,0.1,0.4,0.3c0.3,1.4,0.7,2.7,1.1,4
	c0,0.2,0.1,0.4,0.2,0.5c0.1,0.2,0.4,0,0.5,0.1h0.3c0.2,0,0.3,0,0.3-0.2C40.1,75.4,40.5,74.7,40.8,73.9z"/>
<path class="st1" d="M62.1,70.7l0.2-0.1l1.7-1.1c0.4-0.3,0.4-0.3,0.1-0.7s-0.3-0.4-0.7-0.1c-0.1,0.1-0.2,0.1-0.3-0.1
	c-0.6-0.9-1.1-1.7-1.7-2.6c-0.3-0.4-0.3-0.4,0.1-0.7c0.1-0.1,0.1-0.1,0.1-0.2c-0.1-0.2-0.2-0.3-0.3-0.5c-0.1-0.1-0.1-0.2-0.3-0.1
	l-1.6,1.1c-0.2,0.1-0.4,0.2-0.5,0.3s0.2,0.3,0.3,0.5s0.2,0.3,0.5,0.1c0.2-0.1,0.2-0.1,0.3,0.1s0.3,0.5,0.5,0.7s0.1,0.2,0,0.2l-1,0.7
	c-0.1,0.1-0.2,0.1-0.2,0c-0.2-0.3-0.3-0.5-0.5-0.8c-0.1-0.1-0.1-0.1,0-0.2s0.3-0.1,0.3-0.3s-0.2-0.3-0.2-0.4s-0.1-0.1-0.1-0.2
	s-0.2-0.2-0.3-0.1c-0.5,0.4-1.1,0.8-1.7,1.1s-0.4,0.3-0.2,0.7s0.3,0.4,0.6,0.1c0.2-0.1,0.2-0.1,0.3,0.1c0.6,0.8,1.1,1.7,1.7,2.5
	c0.3,0.4,0.3,0.4-0.1,0.7c-0.1,0.1-0.2,0.1,0,0.2c0.1,0.2,0.2,0.3,0.3,0.5c0.1,0.2,0.2,0.1,0.3,0l1.6-1.1c0.5-0.3,0.5-0.3,0.2-0.8
	c-0.2-0.3-0.2-0.3-0.5-0.1c-0.1,0.1-0.2,0.1-0.3,0c-0.2-0.3-0.4-0.6-0.7-1c-0.1-0.1-0.1-0.2,0-0.3c0.3-0.2,0.7-0.4,1-0.7
	c0.1-0.1,0.2-0.1,0.3,0c0.2,0.3,0.4,0.5,0.5,0.8s0.2,0.3-0.1,0.5c-0.1,0.1-0.2,0.1-0.1,0.2s0.3,0.4,0.4,0.6L62.1,70.7z"/>
<path class="st1" d="M13,32.5c0-0.1-0.1-0.1-0.2-0.1L11.5,32c-0.1,0-0.2,0-0.2,0.1c-0.3,1.2-0.7,2.4-1,3.6c0,0.1,0,0.2,0.1,0.2
	c0.3,0.1,0.7,0.2,1,0.3s0.4,0.1,0.6-0.3c0-0.2,0.1-0.2,0.3-0.1l2.9,0.8c0.4,0.1,0.4,0.1,0.3,0.6c0,0.2,0,0.2,0.1,0.3
	c0.4,0.1,0.8,0.2,1.3,0.3c0.1,0,0.2,0,0.2-0.1c0.3-1.2,0.6-2.3,1-3.5c0-0.2,0-0.2-0.1-0.3l-1-0.3c-0.4-0.1-0.4-0.1-0.5,0.3
	c0,0.2-0.1,0.2-0.3,0.2c-0.9-0.3-1.9-0.5-2.8-0.8c-0.4-0.1-0.4-0.1-0.3-0.6L13,32.5z"/>
<path class="st1" d="M25.5,66.6c0,0,0,0.1,0,0.1c-0.1,1.3-0.2,2.6-0.3,3.9c0,0.8-0.1,0.8,0.6,1.2c0.1,0,0.2,0.1,0.2,0.2
	c0.2,0.1,0.3,0.1,0.4-0.1c0.8-1.2,1.6-2.4,2.4-3.6c0-0.1,0.1-0.2,0.2-0.1c0.2,0.1,0.4,0.4,0.6,0.3s0.3-0.4,0.4-0.6l0,0
	c0.1-0.1,0.1-0.2-0.1-0.3l-1.6-1.1c-0.3-0.2-0.3-0.2-0.5,0.1c-0.1,0.1-0.3,0.3-0.3,0.5s0.3,0.2,0.4,0.4s0.1,0.1,0,0.3
	s-0.3,0.4-0.4,0.6l-0.9,1.4c0-0.1,0-0.2,0-0.3c0.1-1.2,0.2-2.4,0.3-3.5c0-0.2-0.1-0.4-0.2-0.5c-0.5-0.3-0.9-0.6-1.4-0.9
	s-0.4-0.2-0.6,0.1s-0.3,0.5,0.1,0.8c0.1,0.1,0.2,0.1,0.1,0.3c-0.6,0.8-1.1,1.6-1.7,2.5c-0.1,0.1-0.2,0.4-0.3,0.4s-0.3-0.2-0.5-0.3
	s-0.2-0.1-0.3,0c-0.1,0.2-0.2,0.3-0.3,0.5c-0.1,0.1-0.1,0.2,0.1,0.3l1.5,1c0.4,0.3,0.4,0.3,0.6-0.1s0.3-0.4-0.1-0.8
	c-0.1-0.1-0.1-0.1,0-0.3l1.4-2L25.5,66.6z"/>
<path class="st1" d="M33.2,74.9c0.2,0,0.5,0,0.7-0.1c1.2-0.4,2-1.6,2-2.8c0.1-1.2-0.6-2.2-1.7-2.6c-1-0.4-2.1-0.8-3.2-1.1
	c-0.1,0-0.1-0.1-0.1,0c-0.1,0.3-0.3,0.6-0.3,0.8s0.4,0.2,0.6,0.3l0,0c0.1,0,0.1,0.1,0.1,0.2l-1.2,3.3c0,0.1-0.1,0.2-0.2,0.1
	s-0.5-0.3-0.7-0.2s-0.2,0.4-0.3,0.7s0,0.2,0.1,0.3l2.5,0.9C32.1,74.7,32.6,74.8,33.2,74.9z"/>
<path class="st1" d="M18.5,64.4l0.3-0.1c0.2-0.1,0.4-0.3,0.6-0.3s0.4,0.3,0.5,0.5s0.5,0.4,0.5,0.6s-0.2,0.5-0.4,0.7l0,0
	c-0.1,0.1-0.1,0.1-0.2,0s-0.3-0.4-0.4-0.4s-0.3,0.2-0.4,0.3c0,0-0.1,0.1-0.1,0.1c-0.1,0.1-0.1,0.2,0,0.3c0.5,0.5,1,1,1.4,1.5
	c0.3,0.3,0.3,0.4,0.7,0s0.4-0.3,0-0.7c-0.1-0.1-0.1-0.2,0-0.3c0,0,0,0,0,0c0.2-0.4,0.4-0.7,0.6-1.1l1.2-2.1c0.2,0.2,0.3,0.5,0.5,0.5
	s0.4-0.3,0.5-0.5s0.1-0.2,0-0.3c-0.7-0.8-1.4-1.5-2.1-2.3c-0.3-0.3-0.3-0.3-0.6,0c-0.1,0.1-0.4,0.2-0.4,0.4s0.2,0.3,0.3,0.4
	s0.1,0.2-0.1,0.3l-2.7,1.3c-0.2,0.1-0.4,0.3-0.6,0.3s-0.3-0.3-0.5-0.5l-0.7,0.7l1.4,1.5c0.3,0.3,0.3,0.3,0.6,0s0.4-0.4,0-0.7
	L18.5,64.4z"/>
<path class="st1" d="M65,63.7c-0.3-0.3-0.6-0.5-0.9-0.8c-0.1-0.1,0-0.1,0-0.2l0.5-0.6c0.2-0.2,0.3-0.5,0.6-0.5s0.4,0.3,0.6,0.5
	l0.6-0.6c0.1-0.1,0.1-0.2,0-0.3c-0.3-0.3-0.7-0.6-1-1c-0.1-0.1-0.2-0.1-0.3,0l-3,3.2c-0.3,0.3-0.3,0.3,0,0.6s0.4,0.4,0.7,0
	c0.1-0.1,0.1-0.1,0.2,0l2.6,2.4c0.1,0.1,0.1,0.1,0,0.2s-0.4,0.3-0.3,0.4s0.3,0.3,0.4,0.4c0.1,0,0.1,0.1,0.2,0.1
	c0.1,0.1,0.2,0.1,0.3,0c1.1-1.1,2.1-2.3,3.2-3.4c0.1-0.1,0.1-0.2,0-0.3s-0.5-0.5-0.8-0.7c-0.4-0.4-0.4-0.4-0.8,0
	c-0.1,0.1-0.2,0.2-0.2,0.3c-0.1,0.1-0.1,0.2,0,0.3s0.3,0.3,0.5,0.4c-0.4,0.4-0.7,0.8-1.1,1.2c-0.1,0.1-0.1,0.1-0.2,0
	c-0.3-0.3-0.6-0.5-0.9-0.8c-0.1-0.1-0.1-0.2,0-0.3l0.7-0.8c0.1-0.1,0.1-0.1,0-0.2c-0.2-0.1-0.3-0.3-0.5-0.4c-0.1-0.1-0.2-0.1-0.3,0
	C65.6,63.1,65.3,63.4,65,63.7z"/>
<path class="st1" d="M54.5,68.9c-0.3-0.1-0.6-0.1-0.9-0.1c-0.3,0-0.6,0.1-0.9,0.2c-1.2,0.3-2,1.4-2,2.6c-0.1,1.2,0.5,2.3,1.6,2.9
	c1.1,0.5,2.4,0.4,3.4-0.4c0.7-0.4,1.1-1.2,1.1-2c0-0.4,0-0.4-0.3-0.4h-0.3c-0.2,0-0.4-0.1-0.5,0s0,0.4,0,0.6c0,0.6-0.3,1.1-0.8,1.3
	c-0.5,0.3-1.1,0.2-1.6-0.1c-0.6-0.5-1-1.3-0.9-2.1c0.1-0.8,0.8-1.5,1.6-1.4c0.3,0,0.5,0.1,0.7,0.3c0.3,0.3,0.7,0.3,1,0.1l0.1-0.2
	c0.1,0,0.2-0.1,0.1-0.2c-0.1-0.3-0.3-0.7-0.4-1s-0.1-0.6-0.3-0.6s-0.5,0.1-0.7,0.2h0c-0.1,0-0.1,0.1-0.1,0.2L54.5,68.9z"/>
<path class="st1" d="M71,61c0.2,0,0.3-0.1,0.5-0.2c0.7-0.4,0.9-1.3,0.7-2c-0.3-0.7-1.1-1.2-1.9-1.1c-0.5,0.1-1,0.3-1.4,0.7
	c-0.2,0.2-0.5,0.4-0.8,0.5c-0.2,0.1-0.5,0-0.5-0.3c0-0.1,0-0.2,0-0.2c0-0.4,0.4-0.7,0.8-0.6c0,0,0,0,0,0c0.4,0.1,0.6-0.1,0.7-0.4
	c0-0.1,0.1-0.1,0.1-0.2c0.1-0.1,0.1-0.2-0.1-0.3c-0.3-0.2-0.6-0.4-0.9-0.6s-0.4-0.3-0.7,0.2s-0.2,0.4,0.1,0.7
	c-0.2,0-0.4,0.1-0.6,0.2c-0.6,0.4-0.8,1.2-0.5,1.8c0.3,0.7,1,1,1.7,0.9c0.4-0.1,0.8-0.3,1.1-0.5c0.3-0.2,0.6-0.4,0.9-0.5
	c0.3-0.1,0.7,0.1,0.8,0.4c0.1,0.2,0,0.3,0,0.5c-0.2,0.4-0.6,0.5-1,0.4c-0.1,0-0.3-0.2-0.4-0.1s-0.2,0.3-0.3,0.4s-0.1,0.1-0.1,0.2
	s-0.1,0.2,0.1,0.3c0.4,0.2,0.7,0.4,1.1,0.6s0.4,0.3,0.7-0.2S71.3,61.3,71,61z"/>
<path class="st1" d="M48.6,71.3c0.2,0,0.4-0.1,0.6-0.1s0.3-0.1,0.2-0.3c0-0.2-0.1-0.3-0.1-0.5c0-0.2-0.1-0.2-0.3-0.2
	c-0.9,0.1-1.8,0.3-2.7,0.4c-0.3,0-0.3,0.1-0.3,0.4s0,0.5,0.2,0.6s0.4,0,0.6-0.1s0.2,0,0.2,0.2c0.2,1,0.3,2.1,0.5,3.1
	c0.1,0.4,0.1,0.4-0.3,0.4L47,75.4c-0.1,0-0.1,0.1-0.1,0.2S47,76,47,76.2c0,0.1,0,0.1,0.2,0.1c1-0.2,2-0.3,2.9-0.5
	c0.1,0,0.2,0,0.1-0.1c0-0.2-0.1-0.4-0.1-0.6c0-0.2-0.1-0.3-0.3-0.2c-0.1,0-0.3,0.1-0.4,0.1c-0.1,0-0.2,0-0.2-0.2
	C49,73.6,48.8,72.5,48.6,71.3z"/>
<path class="st1" d="M72.8,35c0.2,0,0.3,0,0.5-0.1l2.1-0.6c0.1,0,0.1-0.1,0.1-0.2c-0.2-0.7-0.4-1.4-0.7-2.2c0-0.1,0-0.1-0.2-0.1
	c-0.5,0.2-1,0.3-1.5,0.5c-0.1,0-0.1,0.1-0.1,0.2s0.1,0.4,0.2,0.6c0,0,0.1,0.1,0,0.2c-0.3,0.2-0.8,0.1-1-0.2
	c-0.1-0.1-0.1-0.4-0.2-0.4s-0.3,0.1-0.5,0.1L71.2,33c-0.1,0-0.1,0.1-0.1,0.2c0.1,0.4,0.2,0.8,0.4,1.1C71.8,34.7,72.3,35,72.8,35z"/>
<path class="st1" d="M76.1,42.1c-0.5,0-0.9,0.3-0.9,0.8c0,0,0,0,0,0c0,0.5,0.4,0.9,0.9,1s0.9-0.4,1-0.9l0,0
	C77,42.6,76.6,42.1,76.1,42.1C76.1,42.1,76.1,42.1,76.1,42.1z"/>
<path class="st3" d="M40.5,43.6c0,2.9,0,5.7,0,8.5c0,1.5-0.2,3.1-0.8,4.5c-0.9,2.3-3,4-5.4,4.5c-1.5,0.3-3,0.4-4.5,0.2
	c-1,0-1.9-0.2-2.9-0.3c-0.2,0-0.2-0.1-0.2-0.2c0-2.4,0-4.7,0-7.1c0-0.2,0.1-0.2,0.3-0.2c0.4,0.1,0.8,0.2,1.2,0.3h0.2
	c0.6,0,0.9-0.2,1-0.8c0.1-0.6,0.1-1.3,0.1-1.9c0-5.5,0-10.9,0-16.4c0-0.2,0-0.3-0.3-0.2c-0.6,0-1.2,0-1.8,0c-0.1,0-0.2,0-0.2-0.2
	c0-2.3,0-4.6,0-6.9c0-0.2,0.1-0.2,0.3-0.2h14.9c0.2,0,0.3,0.1,0.3,0.3c0,2.3,0,4.5,0,6.8c0,0.3-0.1,0.3-0.3,0.3c-0.5,0-1,0-1.6,0
	c-0.2,0-0.3,0-0.3,0.3C40.5,37.6,40.5,40.6,40.5,43.6L40.5,43.6z M39.2,43.1L39.2,43.1c0-3.2,0-6.5,0-9.7c0-0.2,0-0.3,0.3-0.3
	c0.5,0,1.1,0,1.7,0c0.2,0,0.2,0,0.2-0.2c0-1.4,0-2.9,0-4.3c0-0.2,0-0.2-0.2-0.2H28.9c-0.1,0-0.3-0.1-0.3,0.2c0,1.4,0,2.8,0,4.3
	c0,0.2,0.1,0.2,0.2,0.2c0.6,0,1.2,0,1.8,0c0.2,0,0.3,0,0.3,0.3c0,5.9,0,11.8,0,17.7c0,0.8-0.1,1.6-0.3,2.4c-0.1,0.6-0.6,1.1-1.2,1.3
	c-0.4,0.1-0.8,0.2-1.2,0.1c-0.2,0-0.2,0-0.2,0.2c0,1.5,0,2.9,0,4.4c0,0.2,0,0.2,0.2,0.2c0.6,0.1,1.3,0.1,1.9,0.2
	c1.4,0.1,2.8,0,4.2-0.3c2.1-0.5,3.8-2.1,4.4-4.3c0.3-1.2,0.5-2.5,0.5-3.7C39.2,48.9,39.2,46,39.2,43.1z"/>
<path class="st4" d="M57.8,43.6c0,2.1,0,4.1,0,6.2c0,1.3,0,2.6-0.1,3.9c-0.1,1.7-0.7,3.3-1.7,4.7c-1.2,1.5-2.9,2.5-4.7,2.8
	c-1.4,0.2-2.8,0.3-4.2,0.2c-1,0-1.9-0.2-2.8-0.3c-0.1,0-0.2-0.1-0.2-0.2c0-2.4,0-4.8,0-7.1c0-0.2,0.1-0.2,0.2-0.1
	c0.4,0.1,0.8,0.2,1.2,0.3c0.1,0,0.3,0,0.4,0c0.5,0,0.7-0.2,0.8-0.8c0.1-0.7,0.2-1.4,0.2-2.1c0-5.4,0-10.8,0-16.2
	c0-0.2,0-0.3-0.3-0.3c-0.6,0-1.2,0-1.8,0c-0.2,0-0.2-0.1-0.2-0.2c0-2.3,0-4.6,0-6.8c0-0.2,0.1-0.2,0.3-0.2h14c0.3,0,0.5,0,0.8,0
	s0.3,0,0.3,0.3c0,1.1,0,2.1,0,3.2c0,1.2,0,2.4,0,3.6c0,0.2-0.1,0.3-0.3,0.3c-0.5,0-1.1,0-1.6,0c-0.2,0-0.3,0-0.3,0.3
	C57.8,37.7,57.8,40.7,57.8,43.6z M56.5,52.3c0-0.3,0-0.7,0-1c0-5.9,0-11.8,0-17.7c0-0.1,0-0.1,0-0.2c0-0.1,0.1-0.1,0.1-0.2l0,0
	c0.6,0,1.2,0,1.8,0c0.2,0.1,0.2-0.1,0.2-0.2c0-1.4,0-2.8,0-4.3c0-0.2,0-0.2-0.2-0.2H46.2c-0.2,0-0.2,0.1-0.2,0.2c0,1.4,0,2.8,0,4.3
	c0,0.2,0,0.2,0.2,0.2c0.6,0,1.2,0,1.8,0c0.2,0,0.3,0.1,0.3,0.3c0,5.9,0,11.7,0,17.6c0,0.8,0,1.6-0.2,2.4c-0.1,0.8-0.7,1.4-1.4,1.6
	c-0.3,0.1-0.7,0.1-1,0.1c-0.2,0-0.2,0-0.2,0.2c0,1.5,0,2.9,0,4.4c0,0.2,0,0.3,0.2,0.3c0.7,0.1,1.4,0.1,2.1,0.2
	c1.2,0.1,2.3,0,3.4-0.2c2-0.3,3.7-1.6,4.5-3.4C56.3,55.2,56.6,53.8,56.5,52.3L56.5,52.3z"/>
<path class="st5" d="M14.7,28.1l2.4,1.6c0.2,0.1,0.4,0.2,0.5,0.3s0.2,0.1,0.3-0.1s0.2-0.3,0.5-0.1s0.6,0.4,0.9,0.6
	c0.1,0.1,0.2,0.1,0.1,0.3c-0.4,0.6-0.9,1.3-1.3,1.9c-0.1,0.1-0.1,0.2-0.3,0.1c-0.4-0.3-0.7-0.5-1.1-0.7c-0.1-0.1-0.1-0.2-0.1-0.3
	c0.2-0.3,0.2-0.3-0.1-0.5L14,29.6c-0.1-0.1-0.2-0.1-0.3,0.1s-0.2,0.3-0.5,0.1c-0.3-0.2-0.7-0.5-1-0.7c-0.1-0.1-0.1-0.1-0.1-0.2
	l2.2-3.3c0.1-0.1,0.2-0.1,0.3-0.1l2.6,0.6c-0.5-0.7-1-1.4-1.5-2c-0.2-0.2-0.2-0.5,0-0.7c0.7-1,1.3-2,2-3c0.1-0.1,0.2-0.2,0.3-0.1
	c0.4,0.2,0.7,0.5,1.1,0.7c0.1,0.1,0.2,0.2,0.1,0.3s-0.2,0.3,0.1,0.5l2.6,1.7c0.1,0.1,0.2,0.1,0.3-0.1c0.2-0.3,0.2-0.3,0.5-0.1l1,0.6
	c0.1,0.1,0.1,0.1,0.1,0.3c-0.6,0.9-1.2,1.8-1.8,2.8c-0.1,0.2-0.2,0.1-0.3,0l-1.1-0.7c-0.1-0.1-0.2-0.1-0.1-0.3s0.2-0.3-0.1-0.5
	l-2.6-1.7c-0.1-0.1-0.2-0.1-0.3-0.1l0.9,1.3l2.4,3.2c0.1,0.1,0.1,0.2,0,0.3c-0.1,0.2-0.2,0.3-0.3,0.5c-0.1,0.2-0.2,0.2-0.4,0.2
	L14.7,28.1C14.7,28.1,14.7,28.1,14.7,28.1L14.7,28.1z"/>
<path class="st5" d="M23.1,17.9c0.6,1,1.3,2,1.9,3c0.1,0.2,0.1,0.1,0.2,0c0.3-0.2,0.3-0.2,0.5,0.1s0.4,0.7,0.6,1
	c0.1,0.1,0.1,0.2,0,0.2l-2,1.3c-0.1,0.1-0.1,0.1-0.2,0l-0.8-1.2c-0.1-0.2,0-0.2,0.1-0.2c0.3-0.1,0.3-0.2,0.1-0.5
	c-0.6-0.8-1.1-1.7-1.7-2.6c-0.1-0.2-0.2-0.2-0.3-0.1s-0.3,0.2-0.4-0.1s-0.4-0.7-0.7-1c-0.1-0.1-0.1-0.2,0-0.2
	c1.1-0.7,2.2-1.4,3.3-2.1c0.1-0.1,0.2,0,0.3,0l2,1.5l0.1,0.1c-0.2-0.8-0.3-1.5-0.5-2.2s-0.1-0.6,0.4-0.9c0.9-0.6,1.9-1.2,2.8-1.8
	c0.2-0.1,0.3-0.1,0.4,0.1c0.2,0.4,0.4,0.7,0.7,1c0.1,0.1,0.1,0.2-0.1,0.3c-0.3,0.2-0.3,0.2-0.1,0.5c0.5,0.8,1.1,1.7,1.7,2.6
	c0.1,0.2,0.2,0.2,0.3,0.1c0.1-0.2,0.3-0.1,0.4,0.1s0.4,0.7,0.7,1c0.1,0.1,0.1,0.2,0,0.3c-0.9,0.6-1.8,1.2-2.7,1.8
	c-0.1,0.1-0.2,0.1-0.3-0.1c-0.2-0.4-0.5-0.7-0.7-1.1c-0.1-0.1-0.1-0.2,0.1-0.3c0.3-0.2,0.3-0.2,0.1-0.5l-1.9-2.8
	c0-0.1-0.1-0.1-0.1-0.1c0.1,0.4,0.2,0.8,0.3,1.1l1,4.4c0,0.1,0,0.3-0.1,0.3c-0.2,0.1-0.5,0.4-0.7,0.4s-0.5-0.3-0.7-0.4l-3.9-2.9
	L23.1,17.9L23.1,17.9C23.2,17.8,23.1,17.9,23.1,17.9z"/>
<path class="st5" d="M65,19.9c0-0.1-0.1-0.1-0.2-0.2s-0.1-0.1,0-0.2c0.3-0.3,0.6-0.7,0.9-1c0.1-0.1,0.2-0.1,0.3,0l2.5,2.2
	c0.1,0.1,0.1,0.2,0,0.3c-0.3,0.3-0.6,0.6-0.9,1c-0.1,0.1-0.2,0.1-0.3,0s-0.3-0.2-0.5,0c-0.7,0.8-1.4,1.5-2.1,2.3
	c-0.1,0.2-0.1,0.3,0,0.3s0.2,0.2,0,0.4s-0.6,0.6-0.8,0.9c-0.1,0.1-0.1,0.1-0.2,0l-2.6-2.3c-0.1-0.1-0.1-0.1,0-0.2l1-1.1
	c0.1-0.1,0.2,0,0.2,0.1s0.2,0.1,0.3,0c0.1-0.2,0.3-0.4,0.5-0.5c0.1-0.1,0.1-0.2,0-0.3c-0.3-0.3-0.7-0.6-1-0.9
	c-0.1-0.1-0.2-0.1-0.2,0c-0.2,0.2-0.3,0.4-0.5,0.6c-0.1,0.1-0.1,0.2,0,0.3s0.2,0.2,0,0.3c-0.3,0.3-0.6,0.7-0.9,1
	c-0.1,0.1-0.1,0.1-0.2,0l-2.5-2.3c-0.1-0.1-0.1-0.2,0-0.2c0.3-0.3,0.6-0.7,0.9-1c0.1-0.1,0.2,0,0.2,0c0.3,0.2,0.3,0.2,0.5,0
	c0.7-0.8,1.4-1.5,2.1-2.3c0.1-0.1,0.1-0.2,0-0.3c-0.3-0.2-0.3-0.2,0-0.5l0.8-0.9c0.1-0.1,0.1-0.1,0.2,0l2.5,2.3
	c0.1,0.1,0.1,0.2,0,0.3c-0.3,0.3-0.6,0.7-0.9,1c-0.1,0.1-0.2,0.1-0.3,0s-0.2-0.2-0.4,0l-0.1,0.1c-0.1,0.2-0.4,0.3-0.4,0.5
	s0.3,0.3,0.5,0.5s0.3,0.3,0.5,0.4s0.2,0.2,0.4,0c0.1-0.2,0.3-0.3,0.4-0.5L65,19.9z"/>
<path class="st5" d="M69,26.5c-0.3,0.2-0.7,0.4-1.1,0.6L67,27.6c-0.1,0.1-0.2,0.1-0.1,0.2c0.2,0.4,0.2,0.4-0.2,0.6L65.9,29
	c-0.1,0.1-0.2,0-0.2-0.1c-0.4-0.7-0.8-1.5-1.3-2.2c-0.1-0.1,0-0.2,0.1-0.2c0.4-0.2,0.8-0.4,1.2-0.7c0.1-0.1,0.2-0.1,0.3,0.1
	c0.2,0.4,0.2,0.4,0.6,0.2c0.9-0.5,1.7-1,2.6-1.4c0.2-0.1,0.2-0.2,0.1-0.3s-0.2-0.3,0.1-0.5l1-0.6c0.1-0.1,0.2-0.1,0.2,0.1
	c0.5,0.9,1,1.8,1.5,2.7c0.1,0.1,0,0.2,0,0.3L70.2,30c0.1,0.1,0.1,0,0.2,0l1.4-0.8c0.1-0.1,0.1-0.1,0.1-0.3c-0.2-0.3-0.2-0.4,0.2-0.6
	l1-0.5c0.1-0.1,0.2-0.1,0.2,0.1c0.4,0.7,0.8,1.5,1.2,2.2c0.1,0.1,0.1,0.2-0.1,0.2c-0.4,0.2-0.8,0.4-1.1,0.6
	c-0.2,0.1-0.2,0.1-0.3-0.1c-0.2-0.3-0.2-0.3-0.5-0.1l-4.2,2.3c-0.2,0.1-0.3,0.1-0.4-0.1c-0.3-0.6-0.6-1.1-0.9-1.6
	c-0.1-0.1-0.1-0.3,0-0.4c0.7-1.4,1.3-2.8,2-4.2C68.8,26.8,69,26.7,69,26.5L69,26.5L69,26.5L69,26.5z"/>
<path class="st5" d="M58.8,15.4c0.1,2-1.5,3.6-3.4,3.7c-0.1,0-0.1,0-0.2,0c-1.7,0.1-3.2-0.9-3.9-2.4c-0.8-1.8,0-3.9,1.7-4.8
	c0.2-0.1,0.5-0.2,0.7-0.2c2-0.4,4.1,0.7,4.9,2.6c0.1,0.1,0.1,0.3,0.1,0.4C58.7,15,58.8,15.2,58.8,15.4z M53.6,16.4
	c-0.1,0.3,0.1,0.7,0.5,0.8c0.4,0.2,0.8,0,1-0.3c0.3-0.5,0.6-1,0.8-1.6c0.1-0.3,0.2-0.6,0.3-0.9c0.1-0.4-0.2-0.7-0.5-0.8
	c-0.3-0.1-0.7,0-0.9,0.3c-0.2,0.3-0.4,0.6-0.6,1C53.8,15.3,53.7,15.8,53.6,16.4L53.6,16.4z"/>
<path class="st5" d="M36,12l-0.4,0.1l1,1.2l0.5-1.5h-0.1c-0.2,0.1-0.4,0.1-0.4-0.3c-0.1-0.4-0.2-0.8-0.3-1.2c0-0.1,0-0.2,0.1-0.2
	l2.4-0.6c0.1,0,0.1,0,0.2,0.1c0.1,0.5,0.2,1,0.4,1.5c-0.4,0-0.5,0.3-0.7,0.6c-0.3,0.7-0.5,1.4-0.8,2.1c-0.1,0.2-0.1,0.4,0,0.6
	c0,0.1,0,0.2,0,0.2s0,0.3,0.1,0.4s0.3,0,0.4,0s0.1,0,0.1,0.1c0.1,0.5,0.2,1,0.3,1.5c0,0.2-0.1,0.1-0.2,0.1l-2.7,0.6
	c-0.3,0.1-0.5,0.1-0.8,0.2s-0.2,0-0.2-0.1c-0.1-0.5-0.2-0.9-0.3-1.4c0-0.1,0-0.2,0.2-0.2c0.3-0.1,0.3-0.1,0.3-0.4c0,0,0-0.1,0-0.1
	c-0.1-0.4-0.3-0.8-0.6-1c-0.6-0.5-1.1-1-1.6-1.5c-0.1-0.2-0.3-0.2-0.5-0.1c-0.2,0.1-0.2,0-0.2-0.2c-0.1-0.4-0.2-0.8-0.3-1.2
	c0-0.2,0-0.3,0.2-0.3l2.6-0.7l0.6-0.2c0.1,0,0.2,0,0.2,0.1C35.8,11,35.9,11.5,36,12z"/>
<path class="st5" d="M76.1,39.6c0.4-0.1,0.4-0.1,0.5,0.4s0.1,0.7,0.1,1c0,0.1,0,0.2-0.1,0.2l-1.7,0.2c-0.1,0-0.2,0-0.2-0.2
	c0-0.4-0.1-0.8-0.2-1.2c0-0.1,0-0.3,0.2-0.3c0.4-0.2,0.6-0.6,0.5-1.1c0-0.2-0.2-0.4-0.5-0.4c-0.2,0-0.3,0.1-0.3,0.3
	c-0.1,0.3-0.2,0.7-0.3,1c-0.1,0.5-0.3,1-0.6,1.4c-0.6,1-1.9,1.4-2.9,0.9c-0.6-0.3-1-0.9-1.1-1.6c-0.2-0.7-0.1-1.4,0.2-2l0,0
	c-0.4,0-0.4,0-0.4-0.4s-0.1-0.7-0.1-1c0-0.1,0-0.2,0.2-0.2l1.9-0.2c0.1,0,0.2-0.1,0.2,0.1c0,0.4,0.1,0.8,0.2,1.2
	c0,0.2,0,0.3-0.2,0.4c-0.4,0.2-0.6,0.5-0.6,0.9c0,0.3,0.2,0.5,0.4,0.6s0.4-0.1,0.6-0.4c0.2-0.5,0.3-1,0.5-1.4
	c0.1-0.5,0.4-0.9,0.7-1.3c0.5-0.6,1.4-0.8,2.1-0.5c0.7,0.2,1.2,0.8,1.3,1.6C76.5,38.4,76.4,39,76.1,39.6z"/>
<path class="st5" d="M46.3,18.9c-0.5,0-1.1-0.1-1.6-0.3c-0.1,0-0.2-0.1-0.1-0.2c0.1-0.5,0.1-1,0.2-1.4c0-0.1,0-0.1,0.1-0.1
	c0.6,0.1,0.7,0,0.8-0.5c0.2-1,0.3-2,0.4-2.9c0.1-0.7,0.2-1.3,0.3-1.9c0-0.1,0-0.2-0.2-0.2c-0.4,0-0.4,0-0.4-0.5s0.1-0.8,0.2-1.2
	c0-0.1,0-0.1,0.1-0.1l3.7,0.5c0.1,0,0.2,0.1,0.1,0.2c-0.1,0.5-0.2,0.9-0.2,1.4c0,0.2-0.1,0.1-0.2,0.1c-0.4,0-0.4,0-0.5,0.3
	c-0.1,0.8-0.2,1.6-0.3,2.4c-0.1,1-0.3,2.1-0.5,3.1C47.8,18.4,47.1,18.9,46.3,18.9z"/>
<path class="st5" d="M17,42.7c0.1-0.6,0-0.8-0.6-0.8s-1.5-0.1-2.2-0.2l-2.7-0.3c-0.1,0-0.1,0-0.2,0.2C11.2,42,11.2,42,10.7,42
	l-1-0.1c-0.1,0-0.2,0-0.2-0.2c0.1-0.9,0.2-1.7,0.3-2.6c0-0.3,0.1-0.7,0.1-1C9.9,38,9.9,38,10,38l1.3,0.1c0.1,0,0.2,0,0.2,0.2
	c-0.1,0.4-0.1,0.4,0.3,0.4c0.7,0.1,1.3,0.1,2,0.2c1.1,0.1,2.3,0.2,3.4,0.4c1,0.2,1.6,1,1.6,2c0,0.5-0.1,1-0.2,1.4
	c0,0.1-0.1,0.2-0.2,0.1L17,42.7z"/>
<path class="st6" d="M40.8,73.9c-0.3,0.8-0.7,1.6-1,2.3c-0.1,0.2-0.2,0.2-0.3,0.2h-0.3c-0.2,0-0.4,0.1-0.5-0.1
	c-0.1-0.2-0.1-0.3-0.2-0.5c-0.4-1.3-0.7-2.7-1.1-4c-0.1-0.2-0.2-0.4-0.4-0.3s-0.3-0.1-0.3-0.3c0,0,0-0.1,0-0.1c0-0.6,0-0.6,0.6-0.5
	s1.2,0.1,1.8,0.1c0.2,0,0.2,0.1,0.2,0.2c0,0.1,0,0.2,0,0.3c0,0.4,0,0.5-0.5,0.5c-0.1,0-0.2,0-0.1,0.1l0.7,2.6l1.1-2.6
	c-0.5-0.1-0.5-0.1-0.5-0.6s0-0.5,0.5-0.4s0.9,0.1,1.3,0.1c0.2,0,0.2,0.1,0.2,0.2s0,0.2,0,0.3c0,0.5,0,0.5-0.6,0.4l0.7,2.8l1.1-2.6
	l0,0c-0.2,0-0.5,0-0.5-0.1c-0.1-0.3-0.1-0.6,0-0.9c0-0.1,0.1-0.1,0.2-0.1l2,0.1c0.1,0,0.1,0.1,0.1,0.1c0,0.2,0,0.5,0,0.7
	s-0.1,0.1-0.2,0.1c-0.5,0-0.5,0-0.7,0.4c-0.5,1.3-1.1,2.6-1.7,4c-0.1,0.2-0.2,0.2-0.3,0.2h-0.3c-0.5,0-0.5,0-0.7-0.5L40.8,73.9z"/>
<path class="st6" d="M62.1,70.7L62.1,70.7c-0.2-0.3-0.3-0.5-0.5-0.7s0-0.2,0.1-0.2c0.3-0.2,0.3-0.2,0.1-0.5s-0.4-0.5-0.5-0.8
	c-0.1-0.1-0.1-0.1-0.3,0c-0.3,0.2-0.7,0.4-1,0.7c-0.1,0.1-0.1,0.1,0,0.3c0.2,0.3,0.4,0.6,0.7,1c0.1,0.1,0.2,0.1,0.3,0
	c0.3-0.2,0.3-0.2,0.5,0.1c0.3,0.5,0.3,0.5-0.2,0.8l-1.6,1.1c-0.1,0.1-0.2,0.1-0.3,0c-0.1-0.2-0.2-0.4-0.3-0.5c-0.1-0.1,0-0.2,0-0.2
	c0.4-0.3,0.4-0.3,0.1-0.7c-0.6-0.8-1.1-1.7-1.7-2.5c-0.1-0.1-0.2-0.2-0.3-0.1c-0.4,0.3-0.4,0.3-0.6-0.1s-0.3-0.4,0.2-0.7
	s1.1-0.7,1.7-1.1c0.2-0.1,0.2-0.1,0.3,0.1s0.1,0.1,0.1,0.2s0.2,0.3,0.2,0.4s-0.2,0.2-0.3,0.3s-0.1,0.1,0,0.2
	c0.2,0.3,0.4,0.5,0.5,0.8c0.1,0.1,0.1,0.1,0.2,0l1-0.7c0.1-0.1,0.1-0.1,0-0.2s-0.3-0.5-0.5-0.7s-0.2-0.2-0.3-0.1
	c-0.3,0.2-0.3,0.2-0.5-0.1s-0.3-0.3-0.3-0.5s0.3-0.2,0.5-0.3l1.6-1.1c0.1-0.1,0.2-0.1,0.3,0.1c0.1,0.2,0.2,0.3,0.3,0.5
	c0.1,0.1,0.1,0.2-0.1,0.2c-0.4,0.3-0.4,0.3-0.1,0.7c0.6,0.9,1.2,1.7,1.7,2.6c0.1,0.1,0.1,0.1,0.3,0.1c0.4-0.3,0.4-0.3,0.7,0.1
	s0.3,0.4-0.1,0.7l-1.7,1.1L62.1,70.7z"/>
<path class="st5" d="M13,32.5v0.1c-0.1,0.5-0.1,0.5,0.3,0.6c1,0.3,1.9,0.5,2.8,0.8c0.2,0.1,0.2,0,0.3-0.2c0.1-0.4,0.1-0.4,0.5-0.3
	l1,0.3c0.1,0,0.2,0.1,0.1,0.3c-0.3,1.2-0.7,2.3-1,3.5c0,0.2-0.1,0.2-0.2,0.1c-0.4-0.1-0.8-0.2-1.3-0.3c-0.1,0-0.2-0.1-0.1-0.3
	c0.1-0.4,0.1-0.4-0.3-0.6l-2.9-0.8c-0.2,0-0.2,0-0.3,0.1c-0.1,0.4-0.1,0.4-0.6,0.3s-0.7-0.2-1-0.3c-0.1,0-0.2-0.1-0.1-0.2
	c0.3-1.2,0.7-2.4,1-3.6c0-0.1,0.1-0.2,0.2-0.1l1.3,0.4C12.8,32.4,13,32.4,13,32.5z"/>
<path class="st6" d="M25.5,66.6L25.2,67l-1.4,2c-0.1,0.1-0.1,0.2,0,0.3c0.5,0.3,0.4,0.3,0.1,0.8s-0.2,0.4-0.6,0.1l-1.5-1
	c-0.1-0.1-0.2-0.2-0.1-0.3c0.1-0.2,0.2-0.3,0.3-0.5c0.1-0.1,0.2-0.1,0.3,0s0.3,0.3,0.5,0.3s0.2-0.3,0.3-0.4c0.6-0.8,1.1-1.6,1.7-2.5
	c0.1-0.1,0.1-0.2-0.1-0.3c-0.5-0.3-0.5-0.3-0.1-0.8s0.2-0.3,0.6-0.1s0.9,0.6,1.4,0.9c0.2,0.1,0.3,0.3,0.2,0.5
	c-0.1,1.2-0.2,2.4-0.3,3.5c0,0.1,0,0.1,0,0.3l0.9-1.4c0.1-0.2,0.3-0.4,0.4-0.6s0.1-0.2,0-0.3s-0.4-0.2-0.4-0.4s0.2-0.3,0.3-0.5
	c0.2-0.3,0.2-0.3,0.5-0.1l1.7,1.1c0.1,0.1,0.2,0.2,0.1,0.3l0,0c-0.1,0.2-0.2,0.5-0.4,0.6s-0.4-0.2-0.6-0.3s-0.2,0-0.2,0.1
	c-0.8,1.2-1.6,2.4-2.4,3.6c-0.1,0.2-0.2,0.2-0.4,0.1c-0.1-0.1-0.2-0.1-0.2-0.2c-0.6-0.4-0.6-0.4-0.6-1.2c0.1-1.3,0.2-2.6,0.3-3.9
	C25.5,66.7,25.5,66.6,25.5,66.6z M25.5,66.6L25.5,66.6L25.5,66.6z"/>
<path class="st6" d="M33.2,74.9c-0.5,0-1-0.1-1.5-0.4l-2.5-0.9c-0.2-0.1-0.2-0.1-0.1-0.3s0.1-0.6,0.3-0.7s0.4,0.1,0.7,0.2
	s0.2,0,0.2-0.1l1.2-3.3c0-0.1,0-0.2-0.1-0.2l0,0c-0.2-0.1-0.5-0.1-0.6-0.3s0.2-0.5,0.3-0.8c0-0.1,0.1,0,0.1,0
	c1.1,0.4,2.1,0.7,3.2,1.1c1.1,0.4,1.7,1.4,1.7,2.6c0,1.3-0.8,2.4-2,2.8C33.6,74.8,33.4,74.9,33.2,74.9z M32.7,73.8
	c0.4,0,0.8-0.2,1.1-0.5c0.3-0.4,0.5-0.8,0.5-1.2c0.1-0.5,0-1-0.3-1.4c-0.3-0.3-0.8-0.6-1.3-0.7c-0.1,0-0.1,0.1-0.1,0.1l-1.2,3.3
	c0,0.1,0,0.2,0.1,0.2C31.9,73.6,32.3,73.7,32.7,73.8L32.7,73.8z"/>
<path class="st6" d="M18.5,64.4l0.2,0.2c0.3,0.4,0.3,0.4,0,0.7s-0.3,0.3-0.6,0l-1.4-1.5l0.7-0.7c0.2,0.1,0.3,0.5,0.5,0.5
	s0.4-0.2,0.6-0.3l2.7-1.3c0.1-0.1,0.2-0.1,0.1-0.3s-0.4-0.3-0.3-0.4s0.2-0.3,0.4-0.4c0.3-0.3,0.3-0.3,0.6,0c0.7,0.8,1.4,1.5,2.1,2.3
	c0.1,0.1,0.1,0.2,0,0.3s-0.4,0.4-0.5,0.5s-0.3-0.3-0.5-0.5l-1.2,2.2c-0.2,0.4-0.4,0.7-0.6,1.1c-0.1,0.1-0.1,0.2,0,0.3c0,0,0,0,0,0
	c0.3,0.4,0.3,0.4,0,0.7s-0.4,0.3-0.7,0c-0.5-0.5-1-1-1.4-1.5c-0.1-0.1-0.1-0.2,0-0.3c0,0,0.1-0.1,0.1-0.1c0.1-0.1,0.3-0.3,0.4-0.3
	s0.3,0.2,0.4,0.4s0.1,0.1,0.2,0l0,0c0.1-0.2,0.4-0.4,0.4-0.7s-0.3-0.4-0.5-0.6s-0.3-0.4-0.5-0.5s-0.4,0.2-0.6,0.3L18.5,64.4z
	 M21.8,62.8L21.8,62.8l-1.4,0.7c-0.1,0.1-0.2,0.1,0,0.2s0.4,0.4,0.6,0.6L21.8,62.8z"/>
<path class="st6" d="M65,63.7c0.3-0.3,0.6-0.6,0.9-0.9c0.1-0.1,0.2-0.1,0.3,0c0.1,0.2,0.3,0.3,0.5,0.4c0.1,0.1,0.1,0.1,0,0.2
	l-0.7,0.8c-0.1,0.1-0.1,0.2,0,0.3c0.3,0.3,0.6,0.5,0.9,0.8c0.1,0.1,0.1,0.1,0.2,0c0.4-0.4,0.7-0.8,1.1-1.2c-0.2-0.1-0.3-0.3-0.5-0.4
	s-0.2-0.2,0-0.3c0.1-0.1,0.2-0.2,0.2-0.3c0.4-0.4,0.4-0.4,0.8,0c0.3,0.2,0.5,0.5,0.8,0.7s0.2,0.1,0,0.3c-1.1,1.1-2.1,2.3-3.2,3.4
	c-0.1,0.1-0.2,0.1-0.3,0c0-0.1-0.1-0.1-0.2-0.1c-0.1-0.1-0.3-0.2-0.4-0.4s0.2-0.3,0.3-0.4s0.1-0.1,0-0.2L63.2,64
	c-0.1-0.1-0.2-0.1-0.2,0c-0.4,0.4-0.4,0.4-0.7,0s-0.3-0.3,0-0.6l3-3.2c0.1-0.1,0.2-0.1,0.3,0c0.3,0.3,0.7,0.6,1,1
	c0.2,0.1,0.1,0.2,0,0.3l-0.7,0.6c-0.2-0.2-0.4-0.5-0.6-0.5s-0.4,0.3-0.6,0.5l-0.5,0.6c-0.1,0.1-0.1,0.1,0,0.2
	C64.4,63.2,64.7,63.4,65,63.7z"/>
<path class="st6" d="M54.5,68.9l-0.1-0.2c0-0.1,0-0.2,0.1-0.2h0c0.2-0.1,0.5-0.3,0.7-0.2s0.2,0.4,0.3,0.6s0.3,0.7,0.4,1
	c0,0.1,0,0.2-0.1,0.2l-0.2,0.1c-0.3,0.2-0.7,0.2-1-0.1c-0.7-0.5-1.6-0.3-2.1,0.4c-0.2,0.2-0.2,0.5-0.3,0.7c-0.1,0.8,0.2,1.6,0.9,2.1
	c0.5,0.4,1.1,0.4,1.6,0.1c0.5-0.2,0.8-0.7,0.8-1.3c0-0.2-0.1-0.4,0-0.6s0.3,0,0.5,0h0.3c0.4,0,0.4,0,0.3,0.4c0,0.8-0.4,1.6-1.1,2
	c-1,0.8-2.3,0.9-3.4,0.4c-1.1-0.6-1.7-1.7-1.6-2.9c0-1.2,0.8-2.2,2-2.6c0.3-0.1,0.6-0.2,0.9-0.2C53.9,68.7,54.2,68.8,54.5,68.9z"/>
<path class="st6" d="M71,61c0.3,0.3,0.3,0.3,0.1,0.6s-0.3,0.4-0.7,0.2s-0.7-0.4-1.1-0.6c-0.1-0.1-0.1-0.1-0.1-0.3s0.1-0.1,0.1-0.2
	s0.1-0.3,0.3-0.4s0.3,0.1,0.4,0.1c0.4,0.1,0.8,0,1-0.4c0.2-0.3,0.1-0.7-0.2-0.8c-0.1-0.1-0.3-0.1-0.5,0c-0.3,0.1-0.6,0.3-0.9,0.5
	c-0.3,0.2-0.7,0.4-1.1,0.5c-0.7,0.1-1.4-0.3-1.7-0.9c-0.3-0.7,0-1.4,0.5-1.8c0.2-0.1,0.4-0.2,0.6-0.2c-0.3-0.3-0.3-0.3-0.1-0.7
	s0.3-0.4,0.7-0.2s0.6,0.4,0.9,0.6c0.2,0.1,0.2,0.2,0.1,0.3c-0.1,0.1-0.1,0.1-0.1,0.2c-0.1,0.3-0.3,0.5-0.7,0.4
	c-0.4-0.1-0.7,0.2-0.8,0.6c0,0,0,0,0,0c-0.1,0.2,0.1,0.5,0.3,0.5c0.1,0,0.2,0,0.2,0c0.3-0.1,0.6-0.3,0.8-0.5
	c0.4-0.3,0.9-0.5,1.4-0.7c0.8-0.1,1.6,0.4,1.9,1.1c0.3,0.7,0,1.6-0.7,2C71.3,61,71.1,61,71,61z"/>
<path class="st6" d="M14.5,59.9c-0.3,0.2-0.3,0.2-0.5-0.1c-0.1-0.2-0.3-0.4-0.3-0.5s0.3-0.2,0.5-0.3l1-0.6c0.1-0.1,0.1-0.1,0.2,0
	c0,0.1,0.1,0.2,0.1,0.2c0.1,0.1,0.2,0.3,0.3,0.4c0,0.2-0.2,0.2-0.3,0.3c-0.2,0.3-0.3,0.6-0.1,0.9c0.1,0.3,0.4,0.4,0.7,0.4
	c0.3,0,0.4-0.3,0.5-0.5c0-0.3,0-0.6,0-0.9c-0.1-0.5-0.1-1,0.1-1.6c0.3-0.6,0.9-1,1.6-1c0.6,0.1,1.1,0.5,1.3,1.1
	c0.1,0.2,0.1,0.5,0,0.7l0,0c0.3-0.2,0.3-0.2,0.5,0.1c0.1,0.1,0.3,0.3,0.3,0.5s-0.3,0.2-0.4,0.3L19.1,60C19,60,18.9,60,18.9,60
	c0-0.1-0.1-0.2-0.2-0.3c-0.2-0.2-0.2-0.5-0.1-0.7c0,0,0-0.1,0.1-0.1c0.2-0.3,0.2-0.7-0.1-1c0,0,0,0,0,0c-0.2-0.2-0.4-0.2-0.6,0
	c-0.1,0.1-0.1,0.2-0.1,0.3c-0.1,0.3-0.1,0.6,0,0.8c0.1,0.6,0.1,1.2,0,1.7c-0.3,0.7-1.1,1.2-1.9,1.1c-0.7-0.1-1.3-0.7-1.4-1.4
	C14.5,60.3,14.5,60.1,14.5,59.9C14.5,59.9,14.5,59.9,14.5,59.9L14.5,59.9z"/>
<path class="st6" d="M71.4,52.6c0-0.3,0.1-0.7,0.2-1c0.1-0.3,0.2-0.7,0.3-1c0.1-0.1,0-0.3-0.1-0.3c0,0,0,0,0,0l-1.9-1.2l1.4-0.1h0.5
	c0.4,0,0.4,0,0.6-0.5c0.2-0.6,0.3-1.2,0.5-1.9c0.3,0.7,0.6,1.4,0.8,2c0,0.1,0.2,0.2,0.3,0.2c0,0,0,0,0,0l1.7-0.1h0.5
	c-0.5,0.4-1,0.9-1.6,1.3c-0.2,0.1-0.3,0.3-0.2,0.5c0,0,0,0,0,0c0.3,0.6,0.5,1.2,0.7,1.7c0,0,0,0.1,0,0.1c-0.6-0.4-1.2-0.8-1.8-1.1
	c-0.1-0.1-0.3-0.1-0.4,0c0,0,0,0,0,0c-0.5,0.4-1,0.8-1.5,1.2C71.5,52.5,71.5,52.6,71.4,52.6L71.4,52.6z"/>
<path class="st6" d="M11.2,52.9c0-0.2,0.1-0.4,0.2-0.6c0.2-0.5,0.3-0.9,0.5-1.4c0.1-0.1,0-0.2-0.1-0.3c0,0,0,0,0,0l-1.7-1.3
	c0.1-0.1,0.1,0,0.2,0c0.6,0,1.3,0.1,1.9,0.1c0.2,0,0.3-0.1,0.3-0.2c0,0,0,0,0,0c0.2-0.7,0.5-1.3,0.8-2.1c0.2,0.8,0.4,1.4,0.6,2.1
	c0,0.1,0.1,0.2,0.2,0.2l2.2,0.1c-0.1,0.1-0.2,0.2-0.3,0.2c-0.5,0.3-1,0.7-1.5,1c-0.1,0.1-0.2,0.2-0.1,0.4c0,0,0,0,0,0
	c0.2,0.7,0.4,1.3,0.6,2.1l-1-0.8c-0.3-0.2-0.5-0.4-0.8-0.6c-0.1-0.1-0.2-0.1-0.3,0c0,0,0,0,0,0L11.2,52.9L11.2,52.9z"/>
<path class="st6" d="M48.6,71.3c0.2,1.2,0.4,2.4,0.6,3.5c0,0.2,0.1,0.2,0.2,0.2c0.1,0,0.3-0.1,0.4-0.1c0.2-0.1,0.3,0,0.3,0.2
	c0,0.2,0,0.4,0.1,0.6c0,0.1,0,0.1-0.1,0.1c-1,0.2-2,0.3-2.9,0.5c-0.1,0-0.1,0-0.2-0.1c0-0.2-0.1-0.5-0.1-0.7s0-0.1,0.1-0.2l0.3-0.1
	c0.4-0.1,0.4-0.1,0.3-0.4c-0.2-1-0.4-2.1-0.5-3.1c0-0.2,0-0.2-0.2-0.2s-0.5,0.2-0.6,0.1s-0.1-0.4-0.2-0.6s0-0.3,0.3-0.4
	c0.9-0.1,1.8-0.3,2.7-0.4c0.2,0,0.3,0,0.3,0.2c0,0.2,0,0.3,0.1,0.5c0.1,0.2,0,0.3-0.2,0.3S48.8,71.2,48.6,71.3z"/>
<path class="st6" d="M72.8,35c-0.5,0-1-0.3-1.3-0.8c-0.2-0.3-0.3-0.7-0.4-1.1c0-0.1,0-0.1,0.1-0.2l0.3-0.1c0.2-0.1,0.3-0.2,0.5-0.1
	s0.1,0.3,0.2,0.4c0.2,0.3,0.7,0.4,1,0.2c0.1-0.1,0-0.1,0-0.2c-0.1-0.2-0.1-0.4-0.2-0.6s0-0.2,0.1-0.2c0.5-0.2,1-0.3,1.5-0.5
	c0.1,0,0.1,0,0.2,0.1c0.2,0.7,0.4,1.4,0.7,2.2c0,0.1,0,0.1-0.1,0.2L73.3,35C73.1,35,73,35,72.8,35z"/>
<path class="st7" d="M76.1,42.1c0.5,0,0.9,0.4,0.9,0.9c0,0,0,0.1,0,0.1c0,0.5-0.5,0.9-1,0.9s-0.9-0.5-0.9-1
	C75.1,42.5,75.5,42.1,76.1,42.1C76,42.1,76.1,42.1,76.1,42.1z M76,43.7c0.4,0,0.7-0.3,0.7-0.7c0,0,0,0,0,0c0-0.4-0.3-0.7-0.7-0.7
	c-0.4,0-0.7,0.3-0.7,0.7C75.3,43.4,75.6,43.7,76,43.7L76,43.7z"/>
<path class="st6" d="M71.4,52.6L71.4,52.6L71.4,52.6L71.4,52.6z"/>
<path class="st6" d="M11.2,52.9L11.2,52.9L11.2,52.9L11.2,52.9z"/>
<path class="st8" d="M39.2,43.1c0,2.9,0,5.8,0,8.7c0,1.2-0.1,2.5-0.5,3.7c-0.6,2.1-2.3,3.8-4.4,4.3c-1.4,0.3-2.8,0.4-4.2,0.3
	c-0.6,0-1.3-0.1-1.9-0.2c-0.1,0-0.2-0.1-0.2-0.2c0-1.5,0-2.9,0-4.4c0-0.2,0-0.2,0.2-0.2c0.4,0,0.8,0,1.2-0.1c0.6-0.2,1-0.7,1.2-1.3
	c0.2-0.8,0.3-1.6,0.3-2.4c0-5.9,0-11.8,0-17.7c0-0.2-0.1-0.3-0.3-0.3c-0.6,0-1.2,0-1.8,0c-0.2,0-0.2,0-0.2-0.2c0-1.4,0-2.8,0-4.3
	c0-0.3,0.1-0.2,0.3-0.2h12.3c0.2,0,0.2,0,0.2,0.2c0,1.4,0,2.9,0,4.3c0,0.2-0.1,0.2-0.2,0.2c-0.5,0-1.1,0-1.7,0
	c-0.2,0-0.3,0.1-0.3,0.3C39.2,36.7,39.2,39.9,39.2,43.1L39.2,43.1z"/>
<path class="st8" d="M56.7,33.2L56.7,33.2c-0.3,0-0.2,0.2-0.2,0.3c0,5.6,0,11.2,0,16.8c0,0.7,0,1.3,0,2c0.1,1.5-0.2,2.9-0.8,4.3
	c-0.9,1.8-2.6,3.1-4.5,3.4c-1.1,0.2-2.3,0.2-3.4,0.2c-0.7,0-1.4-0.1-2.1-0.2c-0.2,0-0.2-0.1-0.2-0.3c0-1.5,0-2.9,0-4.4
	c0-0.2,0-0.2,0.2-0.2c0.3,0,0.7,0,1-0.1c0.8-0.2,1.3-0.8,1.4-1.6c0.2-0.8,0.2-1.6,0.2-2.4c0-5.9,0-11.7,0-17.6c0-0.2,0-0.3-0.3-0.3
	c-0.6,0-1.2,0-1.8,0c-0.2,0-0.2-0.1-0.2-0.2c0-1.4,0-2.8,0-4.3c0-0.2,0-0.2,0.2-0.2h12.3c0.2,0,0.2,0.1,0.2,0.2c0,1.4,0,2.8,0,4.3
	c0,0.1,0,0.3-0.2,0.2L56.7,33.2z"/>
<path class="st9" d="M56.5,52.3c0-0.7,0-1.3,0-2c0-5.6,0-11.2,0-16.8c0-0.1-0.1-0.3,0.2-0.3c-0.1,0-0.1,0.1-0.1,0.2
	c0,0.1,0,0.1,0,0.2c0,5.9,0,11.8,0,17.7C56.6,51.6,56.6,51.9,56.5,52.3z"/>
<path class="st9" d="M56.7,33.2h1.8C57.9,33.2,57.3,33.2,56.7,33.2z"/>
<path class="st1" d="M14.7,28.1L14.7,28.1C14.7,28.1,14.7,28.1,14.7,28.1L14.7,28.1z"/>
<path class="st1" d="M23.1,17.9L23.1,17.9L23.1,17.9L23.1,17.9z"/>
<path class="st1" d="M69,26.5L69,26.5L69,26.5L69,26.5z"/>
<path class="st10" d="M53.6,16.4c0.1-0.6,0.2-1.1,0.5-1.7c0.1-0.4,0.3-0.7,0.6-1c0.2-0.3,0.6-0.4,0.9-0.3c0.4,0.1,0.6,0.5,0.5,0.8
	c0,0.3-0.1,0.6-0.3,0.9c-0.2,0.6-0.5,1.1-0.8,1.6c-0.2,0.3-0.6,0.5-1,0.3C53.7,17,53.5,16.7,53.6,16.4z"/>
<path class="st1" d="M25.5,66.5L25.5,66.5z"/>
<path class="st10" d="M32.7,73.8c-0.4,0-0.7-0.1-1.1-0.3c-0.1,0-0.1-0.1-0.1-0.2l1.2-3.3c0,0,0-0.1,0.1-0.1c0.5,0.1,0.9,0.3,1.3,0.7
	c0.3,0.4,0.4,0.9,0.3,1.4c-0.1,0.4-0.3,0.9-0.5,1.2C33.5,73.6,33.1,73.8,32.7,73.8z"/>
<path class="st11" d="M21.8,62.8l-0.9,1.4c-0.2-0.2-0.4-0.4-0.6-0.6s-0.1-0.1,0-0.2L21.8,62.8L21.8,62.8z"/>
<path class="st1" d="M14.5,59.9L14.5,59.9C14.6,59.9,14.6,59.9,14.5,59.9L14.5,59.9z"/>
<path class="st11" d="M76,43.7c-0.4,0-0.7-0.3-0.7-0.7c0-0.4,0.3-0.7,0.7-0.7c0.4,0,0.7,0.3,0.7,0.7C76.7,43.4,76.4,43.7,76,43.7z
	 M75.6,43.4c0.2-0.1,0.3-0.4,0.6-0.1h0.1c0.1,0,0.3,0,0.3-0.2c0.1-0.2,0.1-0.4,0-0.6c0,0,0,0-0.1,0l-0.7,0.1c-0.1,0-0.1,0-0.1,0.1
	s0.1,0.1,0.1,0.1h0.1c0,0,0.1,0,0.1,0c0,0,0,0.1,0,0.1c-0.1,0.1-0.1,0.1-0.2,0.1C75.6,43.2,75.5,43.3,75.6,43.4L75.6,43.4z"/>
<path class="st7" d="M75.6,43.4c-0.1-0.2,0-0.3,0.1-0.3c0.1,0,0.1-0.1,0.2-0.1c0,0,0-0.1,0-0.1c0-0.1-0.1,0-0.1,0h-0.1
	c-0.1,0-0.1,0-0.1-0.1s0.1-0.1,0.1-0.1l0.7-0.1c0,0,0.1,0,0.1,0c0.1,0.2,0.1,0.4,0,0.6c0,0.1-0.1,0.2-0.3,0.2h-0.1
	C75.9,43.1,75.8,43.3,75.6,43.4z M76.4,42.9c0-0.1,0.1-0.2-0.1-0.2s-0.2,0-0.2,0.1s0,0.2,0.1,0.2S76.4,43,76.4,42.9L76.4,42.9z"/>
<path class="st11" d="M76.4,42.9c0,0.1,0,0.2-0.1,0.2s-0.1-0.1-0.1-0.2s0.1-0.1,0.2-0.1S76.3,42.9,76.4,42.9z"/>
</svg>
