<?xml version="1.0" encoding="utf-8"?>
<!-- Generator: Adobe Illustrator 21.1.0, SVG Export Plug-In . SVG Version: 6.00 Build 0)  -->
<svg version="1.1" id="Layer_1" xmlns="http://www.w3.org/2000/svg" xmlns:xlink="http://www.w3.org/1999/xlink" x="0px" y="0px"
	 viewBox="0 0 140.7 125.9" style="enable-background:new 0 0 140.7 125.9;" xml:space="preserve">
<style type="text/css">
	.st0{fill:#A72C27;}
	.st1{fill:#FFFFFF;}
</style>
<title>Casual dining</title>
<path class="st0" d="M30.3,6l-3.9-0.6l-0.1,0.4c0.6,0.3,1.2,0.5,1.9,0.7c5,0.7,10,1.2,15,1.9c6.3,0.9,12.5,1.8,18.7,2.8
	c1.6,0.2,3.3,0.5,4.9,0.8c0.3,0,0.6-0.1,0.9-0.2l0.1-0.4c-0.5-0.3-1.1-0.5-1.7-0.7c-2.6-0.4-5.2-0.8-7.9-1.1L45.4,7.9
	c-0.3,0-0.5-0.1-0.7-0.2l1.2-7.2l21.7,2.9l0.3,0.2c-2,1.2-1.1,3.2-1.3,4.8L66,8.4c-0.3-0.5-0.5-1-0.7-1.5c-0.2-0.7-0.2-1.5-0.4-2.3
	c-0.1-0.4-0.3-0.7-0.5-1.1c-0.8,0.4-1.3,1.1-1.4,2c-0.2,0.6-0.2,1.3-0.9,1.6C62,7.2,62,7.6,61.9,7.9L62.1,8c0.3-0.3,0.6-0.5,1-0.7
	c0.4-0.2,0.9-0.3,1.3-0.4l-1.1-0.8L64,4.7h0.3c0.1,0.4,0.1,0.7,0.2,1.1c0.1,0.7,0.3,1.3,0.5,2s0.5,1.1,1.3,0.9c0.6,0,1.2,0,1.7,0.2
	c0.8,0.2,1.6-0.2,1.8-1l-1.4,0.2c-0.9,0.1-1.4-0.1-1.4-1.1c-0.1-0.7,0-1.4,0.2-2c0.5-1.2,1.5-1.3,2.3-0.3c0.1,0.2,0.3,0.3,0.5,0.4
	l-0.5-1.3C71,4,72.4,4.1,73.8,4.3c4.6,0.6,9.1,1.3,13.7,2c0.7,0.1,0.9,0.4,0.8,1c-0.2,1.4-0.3,2.9-0.4,4.3c-0.1,0.7,0,1.4,0,2.3
	l-19-2.7l-0.1,0.3c0.6,0.6,1.4,1,2.3,1.1c5,0.7,10.1,1.3,15.1,2c4.5,0.7,9,1.4,13.5,2.1v2.4c0.7-0.3,1-1.1,0.8-1.8
	c-0.1-0.7-0.1-1.4-1-1.5c-2.4-0.4-4.8-0.8-7.2-1.1c-0.4,0-0.9-0.2-1.3-0.3c1.9,0.2,3.7,0.4,5.6,0.7c6.3,0.9,12.7,1.8,19,2.6
	c1.8,0.3,2,0.1,2-1.8c0-1.3,0-2.7,0-4c1.1,0.3,18.5,15.7,20.5,18.1c-1.1,2-2.2,4-3.2,5.9c-1,1.8-2.5,3.2-4.3,4.2
	c-2.3,1.4-4.5,3-6.8,4.4c-0.5,0.3-0.8,0.9-0.7,1.4c0.6,6.6,1.2,13.1,1.8,19.7c0.4,4,0.9,8.1,1.3,12.1c0.1,0.7,0.4,0.8,1,0.9
	c1.7,0.4,3.4,0.7,5,1.3c3.7,1.2,5.8,4,7.1,7.5c1.9,5.4,0.8,10.1-3.4,14c-0.2,0.2-0.7,0.2-1,0.3c-0.1,0-0.2,0-0.3,0l-5,1.6
	c-0.2,0.1-0.3,0.2-0.4,0.3c1.4,0.8,2.5-0.6,3.8-0.2c-3.1,2.7-6.3,5.1-10.6,5.2c-5,0.2-9.9,0.3-14.9,0.6c-8.4,0.5-16.8,1-25.2,1.6
	c-1.8,0.1-3.5,0.3-5.3,0.4c-0.7,0-1,0.3-0.9,1c0.2,4.1,0.4,8.2,0.6,12.3c0,0.3,0,0.5-0.2,0.8c-0.1-0.4-0.2-0.8-0.3-1.2
	c-0.2-1.4-0.1-2.9-1-4.1c-0.1-0.1-0.1-0.3-0.1-0.4c0.6-1-0.2-1.6-0.6-2.4c-0.3-0.5-0.6-1-0.9-1.5c-0.7-1.3-2.4-1.7-3.6-0.9
	c-0.2,0.1-0.4,0.3-0.5,0.4c-1,0.8-1.4,2.2-1,3.4c0.1,0.3,0.1,0.5,0,0.8c-0.1,0.2-0.3,0.3-0.5,0.4c-0.1-0.2-0.3-0.3-0.3-0.5
	c-0.4-2.4-0.7-4.9-1.1-7.4c-1.7,0-3.6-0.1-5.4,0c-6.1,0.3-12.2,0.5-18.3,0.8c-7.7,0.4-15.4,1-23.1,1.4c-2.2,0.1-4.4,0-6.5-0.3
	c-2-0.2-3.8-1.2-5.1-2.8c-2-2.5-4.1-4.9-5.9-7.6C-1,98.5,0.2,91.8,5.1,87.6c2-1.8,4.6-2.9,7.3-3.2c0.3,0,0.7-0.1,1.1-0.2
	c0-1.6,0-3.2,0-4.9c-0.2-8.2-0.4-16.4-0.6-24.6c-0.1-5.3-0.3-10.7-0.5-16c0-0.4-0.2-0.9,0.5-1c0.1,0,0.3-0.4,0.2-0.5
	c-0.3-1-0.7-1.9-1.2-2.8c-0.5-0.8-0.5-1.3,0.3-1.8c0.2-0.2,0.4-0.5,0.4-0.8c0.6-6.5,1.2-12.9,1.9-19.4c0.3-2.7,0.6-5.3,0.9-8
	c0-0.2,0.4-0.6,0.7-0.6c4.7,0.6,9.3,1.3,14,2C30,5.8,30.1,5.8,30.3,6z M134.3,31.4l-0.8,0.9l0.3,0.3l1.4-1.1l-0.2-0.3L134.3,31.4
	l2.4-2.2c-0.2-0.2-0.3-0.4-0.4-0.5c-2.5-2.3-4.9-4.7-7.4-6.9c-2.8-2.5-5.7-4.9-8.6-7.3c-0.6-0.5-1.1-0.3-1.3,0.5c0,0.4,0,0.7,0,1.1
	c0,0.8,0,1.6,0,2.5L101,16.1c-0.1,1.9,0.5,3,1.8,3.2l-0.9-2.1l4.1,0.6c3.2,0.5,6.4,0.9,9.7,1.4c1,0.1,2,0.2,3,0.3
	c0.8,0,1.3-0.3,1.2-1.2s0-1.9,0-3c1.7,1.5,3.3,2.8,4.9,4.1c0.7,0.6,1.3,1.3,1.8,2c0.3,0.5,0.8,0.9,1.3,1.1c0.5,0.2,0.8,0.7,1.2,1.1
	c0.5,0.6,1,1.1,1.6,1.5c1.9,1.2,3.5,2.7,4.9,4.4l-9.2,6l-0.9-1l-0.3,0.1V36l-1-0.5V37l-4.4,2.9c0-1.3,0-2.4,0-3.4
	c0.1-0.7-0.4-1.4-1.1-1.5c-0.1,0-0.2,0-0.4,0c-3.4-0.1-6.8-0.2-10.2-0.4c-7.3-0.3-14.7-0.6-22-0.9c-0.6-0.1-1.1-0.2-1.7-0.4l0.1-0.3
	c-2.1,1.2-4.4,0.3-6.6,0.5l0.5-1.5c-1.1,0.3-1.5,0.8-1.6,2.2l11,0.7l0.2,0.9h2l-0.1-0.9c0.1,0,0.3-0.1,0.4-0.1c1,0.3,2,0.7,2.9,0.9
	c0.3,0.1,0.9,0.1,0.9,0c0.3-0.7,0.9-0.7,1.5-0.6c2.7,0.1,5.5,0.2,8.2,0.3c4.7,0.1,9.5,0.3,14.2,0.4c0.8,0,1,0.2,0.9,1
	c-0.1,0.9-0.1,1.7-0.1,2.6c0,0.7,0.4,1.2,1.2,0.8c1.2-0.5,2.3-1.1,3.4-1.7c1.2-0.7,2-2,3.5-2.3c0.2,0,0.4-0.3,0.6-0.4L134.3,31.4z
	 M13.9,39.4L15,82.9c0.5,0,0.8,0,1.1,0l13.4-0.5c6.8-0.3,13.6-0.5,20.4-0.8c8.5-0.4,17-0.8,25.5-1.2c8.1-0.4,16.1-0.8,24.2-1.2
	c8-0.4,16-0.8,24-1.2c0.7,0,1-0.3,0.9-1c-0.2-2.2-0.3-4.5-0.4-6.7c-0.7-7.8-1.4-15.5-2.2-23.3c-0.2-1.6-0.4-3.3-0.6-5.2
	c-1,0.6-1.7,1.1-2.5,1.6c-0.3,0.1-0.6,0.2-0.9,0.3c-0.1-0.3-0.1-0.6-0.1-0.9c0-1.3,0.1-2.6,0.1-3.9c0-0.8-0.3-1.4-1.3-1.4
	c-1.2,0-2.4-0.2-3.7-0.3c-3.9-0.2-7.9-0.3-11.8-0.5s-7.6-0.5-11.4-0.4c-5.3,0.1-10.6,0.5-16,0.7c-9.4,0.4-18.7,0.7-28.1,1.1
	c-8.6,0.3-17.1,0.7-25.7,1C17.9,39.1,16,39.2,13.9,39.4L13.9,39.4z M26.9,98.8c1.7-0.5,2.1-0.4,2.9,1c0.3,0.7,0.7,1.3,1.1,1.9
	c0.3,0.3,0.7,0.6,1.2,0.6c0.8,0,1.6,0,2.4-0.1c1.2-0.1,1.3-0.4,0.7-1.4c-0.8-1.3-1.7-2.6-2.5-3.7c0.5-0.5,1-1.1,1.3-1.7
	c0.7-1.6-0.1-3.4-1.7-4.1c-0.4-0.2-0.9-0.3-1.3-0.2c-2.6,0-5.1,0.2-7.7,0.3c-0.6,0-0.8,0.3-0.8,0.9c0.2,3.3,0.3,6.5,0.5,9.8
	c0,0.6,0.3,0.8,0.9,0.8c0.8-0.1,1.5-0.1,2.3-0.1s0.9-0.3,0.9-1C27,100.8,27,99.8,26.9,98.8L26.9,98.8z M83.5,92.4
	c-0.1-1.1-0.1-2.1-0.1-3.1c0-0.7-0.3-0.9-1-0.9s-1.5,0.1-2.3,0.1c-0.6,0-0.8,0.3-0.8,0.9c0.2,3.2,0.3,6.5,0.5,9.7
	c0,0.5,0.2,0.8,0.8,0.8c0.8,0,1.6-0.1,2.4-0.1s0.9-0.4,0.8-1c-0.1-0.9-0.1-1.8-0.1-2.7c0-0.2,0.3-0.6,0.4-0.6c0.9-0.1,1.9,0,2.9,0
	c0.1,1.1,0.1,2.1,0.1,3.2c0,0.6,0.3,0.9,0.9,0.9s1.5-0.1,2.2-0.1s1-0.4,0.9-1.1c-0.2-3.1-0.4-6.3-0.5-9.4c0-0.7-0.3-0.9-1-0.9
	s-1.5,0.1-2.2,0.1s-0.9,0.3-0.9,1c0,1,0,2,0,3.1L83.5,92.4z M60.5,94.8c1.1-0.8,1.5-2.3,0.8-3.5c-0.6-1.2-1.9-1.9-3.3-1.7
	c-1.7,0.1-3.4,0.2-5.2,0.2c-0.7,0-1,0.4-0.9,1.1c0.2,3.2,0.3,6.3,0.5,9.5c0,0.6,0.3,0.9,0.9,0.9c2-0.1,4-0.2,6-0.4
	c1.8-0.1,3.1-1.7,2.9-3.4c0-0.1,0-0.2,0-0.4C62.1,96.1,61.5,95.2,60.5,94.8L60.5,94.8z M127.3,91.4c0.2-0.3,0.3-0.4,0.4-0.6
	c0.9-1.2,1.9-2.4,2.8-3.6c0.2-0.3,0.3-0.7,0.4-1c-0.3-0.1-0.7-0.2-1.1-0.3c-0.7,0-1.3,0-2,0.1c-0.5,0.1-0.9,0.3-1.3,0.7
	c-0.9,1-1.6,2.1-2.6,3.3c-0.1-1.2-0.1-2.1-0.2-3c0-0.6-0.3-0.8-0.9-0.8s-1.5,0.1-2.2,0.1s-0.9,0.3-0.9,1c0.2,3.2,0.4,6.5,0.5,9.7
	c0,0.5,0.2,0.8,0.8,0.8c0.7,0,1.4-0.1,2.1-0.1s1.1-0.3,1-1.1c-0.1-1-0.1-2-0.2-3.2c0.8,0.6,1.5,1.3,2.2,2c1.2,1.7,3.2,2.4,5.2,1.8
	l1.4-0.4c-0.3-0.4-0.5-0.8-0.9-1.2C130.4,94.3,128.9,92.9,127.3,91.4L127.3,91.4z M48.9,101.5c0.4,0,0.7,0,1,0
	c1.6-0.1,1.7-0.3,0.9-1.7c-1.5-2.6-3.1-5.1-4.4-7.7c-0.7-1.4-1.6-2-3.2-1.8c-0.6,0-1.2,0.4-1.4,1c-0.7,1.6-1.6,3.2-2.3,4.8
	s-1.6,3.3-2.3,4.9c-0.4,0.8-0.2,1,0.6,1c0.6,0,1.1-0.1,1.7-0.1c0.8,0.1,1.6-0.4,1.7-1.2c0.1-0.3,0.3-0.5,0.6-0.6
	c1.4-0.1,2.8-0.2,4.2-0.2c0.3,0,0.5,0.1,0.7,0.3c0.3,0.9,1.2,1.4,2.1,1.2C48.8,101.6,48.8,101.5,48.9,101.5L48.9,101.5z M104.9,98.7
	l1.4-0.1c1.1-0.1,1.2-0.4,0.7-1.3c-1.5-2.7-3.2-5.3-4.6-8c-0.8-1.5-1.6-2.1-3.3-1.8c-0.6,0-1.1,0.4-1.3,0.9
	c-0.8,1.8-1.7,3.6-2.6,5.3c-0.7,1.4-1.4,2.9-2.1,4.3c-0.4,0.9-0.2,1.3,0.8,1.2c0.6-0.1,1.1-0.1,1.7-0.1c0.7,0.1,1.3-0.3,1.4-1
	c0,0,0,0,0,0c0.1-0.5,0.6-0.9,1.1-0.8c1.3,0,2.5-0.1,3.8-0.1c0.3,0,0.7,0.2,0.7,0.4c0.3,0.9,1.2,1.4,2.1,1.2
	C104.8,98.7,104.8,98.7,104.9,98.7L104.9,98.7z M71.7,92.3v-0.4c0.4-0.1,0.9-0.2,1.3-0.2c1.1,0.2,2.2,0.4,3.2,0.7
	c0.8,0.2,1.1,0.1,1-0.8c-0.1-0.6-0.2-1.3-0.4-1.9c-0.1-0.3-0.3-0.6-0.6-0.7c-1.9-0.5-4-0.5-5.9,0.1c-1.4,0.5-2.3,1.9-2.1,3.3
	c-0.1,1.4,0.8,2.8,2.2,3.1c1,0.3,2,0.4,3,0.7c0.4,0.2,0.7,0.3,1,0.6c-0.4,0.2-0.7,0.4-1.1,0.5c-0.2,0-0.3,0-0.5,0
	c-1.1-0.3-2.3-0.6-3.4-0.8c-0.3-0.1-0.6-0.1-0.9,0c-0.4,0.2,0.1,3.2,0.5,3.4c0.1,0,0.1,0,0.2,0.1c2.2,0.3,4.4,0.6,6.5-0.3
	c1.3-0.6,2.2-1.9,2.1-3.4c0-1.5-0.9-2.8-2.3-3.2c-0.7-0.2-1.4-0.3-2.1-0.5L71.7,92.3z M9.7,97.6c0,3,1.4,4.8,4,5.5
	c2,0.4,4,0.4,5.9-0.2c1.8-0.4,1.8-0.5,1.8-2.4c0-1.3-0.2-1.3-1.4-1c-1.3,0.4-2.6,0.6-4,0.6c-1.6-0.1-2.4-1.3-2.3-2.9
	c0-1.5,1.1-2.7,2.5-2.8c0.9-0.1,1.7,0,2.6,0.2c2.2,0.4,2.2,0.5,1.9-1.8c-0.1-0.7-0.3-1-1-1.1c-0.4,0-0.9-0.1-1-0.3
	c-0.5-0.9-1.3-0.6-1.9-0.5s-1.6,0.6-2.4,0.8C11.2,92.6,9.7,94.4,9.7,97.6L9.7,97.6z M113.3,98.6v-0.1c0.6,0,1.2-0.1,1.8-0.1
	c0.6-0.1,1.2-0.2,1.7-0.3c1.9-0.4,2-0.6,1.9-2.5c-0.1-1.1-0.2-1.1-1.3-0.9c-1.3,0.4-2.6,0.6-3.9,0.7c-1.4,0-2.5-1.1-2.5-2.4
	c0,0,0-0.1,0-0.1c-0.2-1.5,0.8-2.9,2.3-3.2c0.2,0,0.4,0,0.5,0c1.1,0,2.2,0.2,3.3,0.4c0.8,0.2,1-0.1,1-0.8c0-0.5-0.1-0.9-0.2-1.4
	c-0.1-0.3-0.4-0.8-0.8-0.9c-2.1-0.5-4.2-0.5-6.3,0.1c-2.4,0.8-3.6,2.4-3.8,5.3c-0.3,2.3,1,4.6,3.2,5.5
	C111.1,98.2,112.2,98.4,113.3,98.6L113.3,98.6z M76.1,31.9c-0.1,0.1-0.3,0.2-0.3,0.3c-0.1,0.9-0.6,1-1.3,0.9
	c-6-0.2-12.1-0.4-18.1-0.6c-9.9-0.3-19.8-0.4-29.7-0.7c-0.5-0.1-0.9-0.3-1.3-0.5L25.2,31l-0.9,1.3c0.4,0.1,0.6,0.1,0.8,0.1
	c7.3,0.3,14.7,0.6,22,0.8c9.3,0.3,18.7,0.6,28,0.8c0.4,0,0.8-0.1,1.2-0.4C76.7,33.1,76.6,32.3,76.1,31.9z M23.9,31.3h-0.6
	c-2.7-0.1-5.3-0.1-8-0.2c-0.8,0-1-0.3-0.9-1c0.7-7.5,1.3-15,2-22.5c0.1-0.9,0.2-1.8,0.3-2.7c2.5,0.4,4.9,0.8,7.4,1.2
	c0.5,0,1,0,1.5-0.1V5.6c-0.3-0.1-0.6-0.2-0.9-0.3c-2-0.3-4.1-0.7-6.1-1c-2.5-0.4-2.8-0.1-3,2.5c0,0.1,0,0.3,0,0.4
	c-0.3,3-0.6,6-0.8,9c-0.4,5-0.8,9.9-1.2,14.9c0,0.6,0.2,0.8,0.8,0.9c1.1,0.1,2.2,0.2,3.3,0.3c1.5,0.1,3,0.1,4.5,0.1
	C22.7,32.3,23.5,32.3,23.9,31.3z M71.6,105.5c-2.2-0.4-47.1,1.8-48.9,2.4C27.6,108.3,70.5,106.2,71.6,105.5L71.6,105.5z M118.2,81.2
	v-0.3c-6.3,0.2-12.5,0.4-18.7,0.6c-4,0.1-8,0.4-12,0.6c-4.1,0.2-8.3,0.3-12.5,0.5c-0.9,0-1.8,0.2-2.7,0.3v0.3
	C87.7,82.9,103,82.7,118.2,81.2L118.2,81.2z M70.5,83.7v-0.4C70.3,83.2,70.1,83,70,83c-0.6,0-1.2,0.1-1.7,0.2
	c-5.8,0.3-11.6,0.5-17.3,0.7c-4.9,0.2-9.8,0.5-14.8,0.7c-4.1,0.2-8.1,0.3-12.2,0.5c-0.8,0-1.5,0.2-2.2,0.3l0.1,0.5L70.5,83.7z
	 M121.3,103.3l-0.1-0.3c-0.2,0-0.3,0-0.5-0.1c-4.5,0.2-9,0.3-13.6,0.6c-2.2,0.1-4.4,0.3-6.5,0.4c-2.5,0.1-5,0-7.6,0.1
	c-6.1,0.3-12.3,0.6-18.4,1c-0.4,0-0.8,0.1-1.2,0.2v0.2c0.9,0,1.9,0,2.8,0c4.4-0.1,8.7-0.3,13.1-0.5c10.1-0.4,20.2-0.9,30.4-1.4
	C120.3,103.5,120.8,103.4,121.3,103.3L121.3,103.3z M138.8,91.4h-0.4c-0.1,0.7-0.1,1.3-0.2,2c-0.1,2.9-1.5,5.5-3.9,7.1
	c-2.2,1.4-4.8,2.1-7.5,2c-0.9,0-1.8,0-2.7,0.1c-0.2,0-0.5,0.2-0.7,0.4l0.1,0.4c2-0.1,4.1,0,6-0.3c6-0.9,9.4-4.9,9.3-10.7
	C138.9,92,138.9,91.7,138.8,91.4L138.8,91.4z M121.6,80.9v0.5c1.7-0.1,3.5-0.1,5.2-0.3c3.8-0.6,7.6,1.3,9.4,4.6
	c0.6,1.1,1.1,2.2,1.5,3.4l0.8,1.8l0.2-0.1c-0.3-4.6-3.1-7.4-6.7-9.6c-0.1-0.1-0.3-0.1-0.4-0.1c-2.5-0.2-5-0.5-7.4-0.6
	C123.3,80.5,122.4,80.6,121.6,80.9L121.6,80.9z M2.4,97.9L2,98c0,0.4,0,0.8,0.1,1.2c0.4,1.6,1,3.1,1.8,4.6c1.3,2.3,3.6,3.8,6.1,4.3
	c2.6,0.5,5.3,0.6,8,0.3c0.3,0,0.6-0.1,0.8-0.2c-2.6-0.1-5.2-0.2-7.8-0.6c-4.7-0.8-7.7-3.7-8.4-8.5C2.6,98.6,2.5,98.3,2.4,97.9z
	 M74.4,23.7c0.1-0.9-0.6-1.7-1.5-1.8c0,0,0,0,0,0c-1-0.1-1.8,0.6-1.9,1.6c0,0,0,0.1,0,0.1c-0.1,1,0.7,1.9,1.7,2.1
	C73.7,25.6,74.4,24.8,74.4,23.7C74.4,23.7,74.4,23.7,74.4,23.7z M2.1,96.6l0.3,0.1c0.2-0.6,0.3-1.3,0.4-1.9c0.3-2.8,1.9-5.3,4.4-6.7
	C9.3,87,11.6,86.2,14,86l1.7-0.2l1.6-0.2c-3.4-0.5-6.9,0.2-9.9,1.8C4.1,89.3,2,92.8,2.1,96.6z M52.7,21.9c0.1-0.8-0.6-1.6-1.4-1.6
	c-0.1,0-0.1,0-0.2,0c-0.9-0.1-1.7,0.6-1.8,1.6c0,0,0,0,0,0c0,1,0.8,1.7,1.8,1.8c0.8,0.1,1.6-0.6,1.6-1.4C52.7,22,52.7,22,52.7,21.9z
	 M30.5,20c0-1.1-0.5-1.7-1.5-1.7c-1,0-1.8,0.7-1.9,1.7c0.1,0.9,0.9,1.6,1.8,1.7c0.9,0,1.6-0.6,1.6-1.5C30.5,20.1,30.5,20.1,30.5,20z
	 M77.9,8.7l-0.3,0.1c-0.1-0.3-0.3-0.6-0.4-0.9c-0.3-0.8-0.6-1.5-0.9-2.3C76.2,5.3,76,5.2,75.9,5c-0.2,0.2-0.3,0.4-0.4,0.6
	c-0.1,0.4-0.1,0.9-0.1,1.3c-0.1,1-0.3,2-0.5,3.1c0.1,0,0.5-0.1,0.5-0.2c0.3-1,0.5-2,0.8-3.1l1.7,3.6l0.4-0.1c0.1-0.5,0.2-1,0.3-1.6
	c0.1-0.7,0.1-1.5,0.2-2.2c0-0.2,0.2-0.3,0.1-0.4c-0.1-0.2-0.2-0.5-0.4-0.7c-0.2,0.3-0.3,0.7-0.5,1c0,0.3,0,0.6,0,0.9
	C78,7.7,78,8.2,77.9,8.7L77.9,8.7z M95.9,25.3c-0.1-0.6-0.3-1.1-1.1-1.1c-1,0.2-1.8,1-1.9,2c0.1,0.7,0.7,1.2,1.5,1.2
	C94.9,27.4,96,26,95.9,25.3L95.9,25.3z M82.3,7.6c0.5-0.8,0.4-1.3-0.2-1.7c-0.9-0.6-2.5-0.4-2.6,0.3c-0.2,1.1-0.2,2.3,0,3.5
	c0.2,1.2,1.1,1.4,2.2,1c0.4-0.2,0.9-0.3,1.3-0.4c-0.4-0.5-0.9-0.7-1.5-0.1c-0.4,0.5-1,0.3-1.3-0.3c-0.5-0.8-0.5-1.8-0.1-2.6
	c0.3-0.4,0.7-0.7,1.2-0.8c0.1,0,0.5,0.5,0.7,0.8C82.1,7.3,82.2,7.4,82.3,7.6z M70.8,9.2l0.4,0.2c0.2-0.7,0.8-1.1,1.5-1
	c1,0,0.9,0.9,1.7,1.2c-0.4-1.8-0.3-3.6-1.5-5.2L70.8,9.2z M25.9,86.8c1.8,0.3,9.7-0.2,10.2-0.7C32.6,86.2,29.2,85.9,25.9,86.8z
	 M58.6,2.5c-0.4,1.6,0.2,4.6,1.1,5.2l1.9-4.4l-0.5-0.2l-1.5,3.3C59,5.1,59.4,3.7,58.6,2.5z M116.4,104.5v-0.2
	c-0.4-0.1-0.7-0.1-1.1-0.1c-0.7,0-1.4,0.1-2,0.1c-1.7,0.1-3.4,0.1-5,0.1c-0.7-0.1-1.4,0.3-1.8,0.9L116.4,104.5z M84.4,6.1l-0.5,0.2
	c0.1,0.5,0.2,1,0.4,1.5c0.5,1.2,1,2.3,0.3,3.6c0,0,0.1,0.1,0.3,0.4c0.3-0.5,0.6-0.8,0.6-1.2c0-1,0.3-1.9,0.9-2.7
	c0.2-0.3,0.3-0.7,0.4-1l-0.3-0.2l-1.1,1.8L84.4,6.1z M6.6,108.1c1.1,1.4,5.7,2.4,6.8,1.5L6.6,108.1z M136.5,95.4
	c1.3-1.1,1.6-5,0.4-6.1L136.5,95.4z M117.9,26.7c-0.2,0.3-0.8,0.6-0.8,1c-0.1,0.5,0.3,1.1,0.8,1.1c0.1,0,0.1,0,0.2,0
	c0.5,0.1,1-0.2,1.1-0.7c0-0.1,0-0.1,0-0.2C119.3,27.3,118.9,26.9,117.9,26.7z M65.3,29.2c1.4-1.1,1.6-1.8,0.4-3.1
	c-0.4,0.7-0.8,1.4-1.1,2.1C64.5,28.4,65.1,28.9,65.3,29.2L65.3,29.2z M132.5,87.1l-0.3,0.2c0.2,0.3,0.3,0.6,0.5,0.8
	c0.5,0.2,1,0.4,1.6,0.5c0.3,0,0.7-0.1,1-0.3c-0.3-0.3-0.6-0.7-0.9-0.9C133.8,87.3,133.2,87.2,132.5,87.1L132.5,87.1z M16.1,30.5
	l0.3-0.1l0.1-2.5l-0.3-0.2c-0.4,0.5-1,1-1.2,1.6C15,29.6,15.7,30.1,16.1,30.5z M124,104.1c1.3,0.2,2.6,0.6,4-0.4
	C126.5,103.6,125.2,103.4,124,104.1z M15.7,19.9c0.3,0.9,0.7,1.1,1.7,0.7c0.2-0.1,0.4-0.4,0.5-0.6c-0.3-0.2-0.5-0.5-0.8-0.5
	C16.7,19.5,16.2,19.7,15.7,19.9z M16.7,8.7L17,8.8c0.3-0.2,0.7-0.3,0.8-0.6c0.1-0.5,0.2-1,0.2-1.5c0-0.1-0.3-0.3-0.4-0.4
	c-0.2,0-0.4,0.1-0.5,0.3C16.8,7.3,16.7,8,16.7,8.7L16.7,8.7z M41,12.2c0.2,0.3,0.4,0.6,0.7,0.8c0.3,0.2,0.6,0.3,0.9,0.3
	c0.1-0.2,0.2-0.5,0.2-0.6c-0.1-0.3-0.4-0.5-0.7-0.7C41.7,11.9,41.4,12.1,41,12.2L41,12.2z M113.2,94.1l0.8-0.9
	c-0.3-0.2-0.7-0.4-1.1-0.5c-0.1,0-0.5,0.4-0.4,0.6S112.8,93.8,113.2,94.1L113.2,94.1z M126,99.3l-0.7-1.7c-0.2,0.2-0.5,0.4-0.5,0.6
	C124.7,98.8,124.7,99.4,126,99.3L126,99.3z M67.4,11.8c-0.1,0.5-0.1,1-0.2,1.5c0,0.1,0.3,0.2,0.5,0.3c0.1-0.4,0.2-0.7,0.3-1.1
	C68.1,12.3,67.8,12.2,67.4,11.8z M38.8,108.6v0.4l2.5-0.2v-0.2H38.8z M115.9,93.1l0.3,0.5l1.2-0.6c-0.1-0.2-0.2-0.3-0.3-0.5
	C116.7,92.6,116.3,92.8,115.9,93.1L115.9,93.1z M56.9,108.1v-0.3h-2.2v0.2L56.9,108.1z M24.8,7.6l0.5,0.2c0.2-0.3,0.4-0.6,0.5-0.9
	c0-0.1-0.3-0.3-0.5-0.4L24.8,7.6z M59.5,21.9l0.1,0.3c1.3-0.1,1.4-0.1,1.3-1L59.5,21.9z M60,107.9v-0.2h-1.9v0.2H60z M61.1,26.1
	l0.4-0.1c0-0.6,0.4-1.2-0.6-1.8L61.1,26.1z"/>
<path class="st1" d="M13.9,39.4c2.1-0.1,4-0.3,6-0.3c8.6-0.3,17.1-0.7,25.7-1c9.4-0.4,18.7-0.7,28.1-1.1c5.3-0.2,10.6-0.6,16-0.7
	c3.8-0.1,7.6,0.3,11.4,0.4s7.9,0.3,11.8,0.5c1.2,0.1,2.4,0.3,3.7,0.3c1,0,1.3,0.6,1.3,1.4c0,1.3-0.1,2.6-0.1,3.9
	c0,0.3,0,0.6,0.1,0.9c0.3-0.1,0.6-0.2,0.9-0.3c0.8-0.4,1.5-1,2.5-1.6c0.3,1.9,0.5,3.6,0.6,5.2c0.7,7.8,1.5,15.5,2.2,23.3
	c0.2,2.2,0.3,4.5,0.4,6.7c0.1,0.7-0.2,0.9-0.9,1c-8,0.4-16,0.8-24,1.2s-16.1,0.8-24.2,1.2c-8.5,0.4-17,0.8-25.5,1.2
	c-6.8,0.3-13.6,0.6-20.4,0.8l-13.4,0.5c-0.3,0-0.6,0-1.1,0L13.9,39.4z M61.4,60.8c0.1-3.6-0.2-7.2-1-10.7c-0.4-2.1-2.1-3.8-4.3-4.3
	c-1.4-0.4-2.8-0.4-4.2-0.1c-2.4,0.4-4.3,2.3-4.6,4.8c-0.2,1.8-0.3,3.6-0.3,5.3c0,2.1,0.2,4.1,0.3,6.2c0.1,1.6,0.2,3.1,0.5,4.7
	c0.8,3.9,3.3,5.8,7.3,5.5c3.7-0.3,5.7-1.9,6.2-5.6C61.5,64.7,61.5,62.8,61.4,60.8z M100.6,56c-3.2-0.8-4.4-6-2.6-10.1
	c-0.5,0.5-0.9,1.1-1.1,1.8c-0.9,2.4-0.5,5,1.2,7c1.1,1.3,2.3,2.6,3.6,3.8c0.5,0.5,1,0.9,1.6,1.3c0.8,0.6,1.6,1.1,2.3,1.7
	c0.5,0.5,0.9,1.1,1.3,1.7c-0.1-1.2-0.7-2.2-1.6-2.9c-0.7-0.6-1.5-1-2.3-1.6c-0.4-0.4-0.8-0.9-1.2-1.3l0.3-0.2c1.5,1.1,3,2.2,4.4,3.4
	c1.1,1,1.5,2.6,1,4.1c-0.2,1.2-1.4,1.9-2.6,1.7c-0.3-0.1-0.6-0.2-0.9-0.4c-0.6-0.5-1.1-1.2-1.4-2c-0.1-0.7-0.2-1.3-0.1-2
	c-1.2,0-2.5,0-3.7,0c-0.2,0-0.5,0.4-0.6,0.7c-0.3,4.8,3.4,8.2,8.1,7.6c2.6-0.3,4.8-2.1,5.5-4.7c0.9-2.4,0.2-5.1-1.8-6.8
	c-2.3-2.1-4.6-4.2-6.9-6.4c-0.6-0.6-1.1-1.3-1.4-2.1c-0.4-1.2,0.2-2.6,1.5-3c0,0,0,0,0,0c1.2-0.4,2.5,0.1,2.9,1.3c0,0,0,0.1,0,0.1
	c0.2,0.5,0.4,1,0.5,1.5c0.1,0.9,0.5,1.2,1.4,1.1c3-0.1,3.2,0.1,2.3-3.1c-1.1-4.2-7.1-5.6-10.6-2.5c-2.4,2.2-2.7,6-0.6,8.5
	C99.5,54.5,100,55.2,100.6,56z M80.9,55.6c-0.6,0-1.2,0-1.7,0c-0.9,0-1.7,0.2-2.6,0.2c-2.5,0.2-3.3-0.7-3.2-3.2
	c0.1-0.8,0.1-1.5,0-2.3c-0.1-1.1,0.1-1.5,1.2-1.7c1.2-0.1,2.4-0.2,3.6-0.2c1.7,0,1.7,0,1.8-1.7c0-0.3,0-0.6,0-0.9
	c0-0.8-0.2-1.1-1.1-1.1c-2.9,0.2-5.8,0.2-8.8,0.3c-0.9,0-1.3,0.3-1.2,1.2c0,0.2,0,0.4,0,0.6c0.2,3.7,0.5,7.4,0.7,11.1
	c0.2,2.6,0.3,5.3,0.4,7.9c0.1,1.6,0.2,3.2,0.3,5c3.7-0.2,7.3-0.4,10.8-0.6c0.2,0,0.5-0.5,0.5-0.7c0-1-0.1-2-0.2-3.1l-2.1,0.2
	c-0.7,0.1-1.4,0.2-2.1,0.2c-2.4,0.1-2.9-0.3-3-2.6c-0.1-1.3-0.1-2.5-0.2-3.8c1.3-0.1,2.4-0.2,3.5-0.2s2.3,0,3.5,0L80.9,55.6z
	 M30.6,63.3l-3.4,0.2c-0.6,0-0.8,0.3-0.7,0.9c0.1,1.1,0.1,2.2,0.2,3.3c0,1.3,0.5,2.5,1.5,3.2c1.5,1.1,3.3,1.6,5.1,1.5
	c3.4-0.1,6-2.9,5.9-6.2c0,0,0,0,0-0.1c0-2.8-0.2-5.7-0.3-8.6c-0.1-1.9-0.2-3.8-0.3-5.7c-0.1-1.8-0.2-3.6-0.3-5.4l-4,0.2
	c0,0.2-0.1,0.3-0.1,0.5c0.2,5.3,0.4,10.7,0.6,16.1c0.1,1.3,0,2.6-0.1,3.9c-0.1,0.8-0.8,1.5-1.7,1.4c-1.5,0.1-2.1-0.5-2.2-2.1
	C30.7,65.4,30.7,64.4,30.6,63.3L30.6,63.3z M86.9,51.9l1.9-0.2c0.3-2,0.6-4,1-6c0.2-0.5,0.4-1,0.6-1.5l-2.6,0.3
	c-0.2,2.1-0.4,4.1-0.6,6.1c0,0.3-0.2,0.8-0.4,0.8c-1,0.2-0.7,1-0.6,1.5c0,0.2,0.7,0.3,1.1,0.4c0.2,0,0.5,0,0.7-0.1
	c0.9,0,1.4-0.4,1.3-1.4C88.6,52.2,87.8,52.8,86.9,51.9L86.9,51.9z M97.4,65.5c0.5,3.3,3.8,5.6,7.6,5.6c3.5,0,6.2-1.7,6.7-4.1
	C108.7,72.6,99.8,71.3,97.4,65.5L97.4,65.5z M25,68.8c0.2,2.6,2.5,5,5.7,5.8s6.5-0.2,7.9-2.4C34.9,76.1,26.7,74.7,25,68.8L25,68.8z
	 M105.9,52c3.5,0.2,4.2,0.2,4.9-0.6l-3.4,0.2c-0.8,0-1.1-0.2-1.3-1c-0.3-0.9-0.7-1.8-1.3-2.6c-0.5-0.7-1.2-0.6-1.8,0.1
	C105.9,48,105.2,50.5,105.9,52z M82.4,71l-0.1-0.2c-2,0.1-3.9,0.4-5.9,0.4s-3.9,0-5.9,0v0.2c0.9,0.1,1.7,0.2,2.6,0.3
	c2.8-0.1,5.6-0.2,8.4-0.4C81.8,71.3,82.1,71.2,82.4,71z M75.2,49.3L75.2,49.3l6.3,0.1L81,46.7h-0.2l-0.2,2.1l-2.8,0.2L75.2,49.3z
	 M54.7,73c-2.9-0.3-4.4-0.7-6.8-3.5C49.2,72,52,73.4,54.7,73z M34.4,66.3c-0.9,0.8-2.2,0.8-3.1,0c0.2,0.7,0.9,1.1,1.6,1
	C33.5,67.4,34.2,66.9,34.4,66.3z M62.6,71.5c0.8-1.1,1.7-2.1,1.5-3.5L62.6,71.5z M58.6,71.9l0.1,0.2l1.9-1.5l-0.1-0.2L58.6,71.9z"/>
<path class="st1" d="M134.3,31.4l-6.9,4.4c-0.2,0.1-0.4,0.4-0.6,0.4c-1.5,0.3-2.3,1.5-3.5,2.3c-1.1,0.6-2.3,1.2-3.4,1.7
	c-0.8,0.4-1.2-0.1-1.2-0.8c0-0.9,0-1.7,0.1-2.6c0.1-0.7-0.1-1-0.9-1c-4.7-0.1-9.5-0.2-14.2-0.4c-2.7-0.1-5.5-0.2-8.2-0.3
	c-0.6,0-1.2-0.1-1.5,0.6c0,0.1-0.6,0.1-0.9,0c-1-0.3-2-0.6-2.9-0.9c-0.1,0-0.2,0-0.4,0.1l0.1,0.9h-2l-0.2-0.9l-11-0.7
	c0.1-1.4,0.5-1.9,1.6-2.2l-0.4,1.3c2.2-0.2,4.4,0.7,6.6-0.5l-0.1,0.3c0.5,0.2,1.1,0.3,1.7,0.4c7.3,0.3,14.7,0.6,22,0.9
	c3.4,0.1,6.8,0.2,10.2,0.4c0.7-0.1,1.3,0.4,1.4,1.1c0,0.1,0,0.2,0,0.4c0,1,0,2.1,0,3.4l4.4-2.9v-1.5l1,0.5v-1.4l0.3-0.1l0.9,1l9.2-6
	c-1.4-1.7-3-3.2-4.9-4.4c-0.6-0.4-1.1-0.9-1.6-1.5c-0.4-0.4-0.8-1-1.2-1.1c-0.5-0.2-1-0.6-1.3-1.1c-0.5-0.7-1.1-1.4-1.8-2
	c-1.5-1.4-3.1-2.7-4.9-4.1c0,1.1-0.1,2.1,0,3s-0.4,1.3-1.2,1.2c-1,0-2-0.1-3-0.3c-3.2-0.4-6.4-0.9-9.7-1.4l-4.1-0.6l0.9,2.1
	c-1.4-0.2-1.9-1.3-1.8-3.2l17.9,2.5c0-1,0-1.8,0-2.5c0-0.4,0-0.7,0-1.1c0.1-0.8,0.6-1,1.3-0.5c2.9,2.4,5.8,4.8,8.6,7.3
	c2.5,2.2,5,4.6,7.4,6.9c0.1,0.1,0.3,0.3,0.4,0.5L134.3,31.4L134.3,31.4z"/>
<path class="st1" d="M27,98.8c0,1,0.1,1.9,0.2,2.9c0,0.7-0.2,1-0.9,1s-1.5,0.1-2.3,0.1c-0.6,0.1-0.9-0.2-0.9-0.8
	c-0.2-3.3-0.3-6.5-0.5-9.8c0-0.6,0.2-0.9,0.8-0.9c2.6-0.1,5.1-0.3,7.7-0.3c1.7-0.1,3.2,1.3,3.2,3c0,0.5-0.1,0.9-0.2,1.3
	c-0.3,0.6-0.8,1.2-1.3,1.7c0.8,1.1,1.7,2.4,2.5,3.7c0.7,1,0.5,1.3-0.7,1.4c-0.8,0.1-1.6,0.1-2.4,0.1c-0.5-0.1-0.9-0.3-1.2-0.6
	c-0.4-0.6-0.8-1.2-1.1-1.9C29.1,98.4,28.7,98.3,27,98.8z M26.8,96c0.9,0,1.7-0.1,2.6-0.3c0.4-0.1,0.6-0.6,0.9-0.9
	c-0.3-0.3-0.6-0.8-1-0.9c-0.9-0.1-1.8-0.1-2.7,0L26.8,96z"/>
<path class="st1" d="M83.5,92.4l3.3-0.2c0-1.1,0-2.1,0-3.1c0-0.6,0.1-1,0.9-1s1.5-0.1,2.2-0.1s0.9,0.2,1,0.9
	c0.1,3.1,0.3,6.3,0.5,9.4c0,0.7-0.1,1.1-0.9,1.1s-1.5,0-2.2,0.1s-0.9-0.2-0.9-0.9c0-1.1-0.1-2.1-0.1-3.2c-1.1,0-2,0-2.9,0
	c-0.1,0-0.4,0.4-0.4,0.6c0,0.9,0,1.8,0.1,2.7c0.1,0.6-0.1,1-0.8,1s-1.6,0.1-2.4,0.1c-0.6,0-0.8-0.3-0.8-0.8
	c-0.2-3.2-0.3-6.5-0.5-9.7c0-0.6,0.1-0.9,0.8-0.9c0.8,0,1.5-0.1,2.3-0.1s1,0.2,1,0.9C83.4,90.3,83.5,91.3,83.5,92.4z"/>
<path class="st1" d="M60.5,94.8c1,0.4,1.6,1.3,1.7,2.4c0.4,1.7-0.7,3.4-2.4,3.8c-0.1,0-0.3,0-0.4,0.1c-2,0.2-4,0.3-6,0.4
	c-0.6,0-0.9-0.3-0.9-0.9c-0.2-3.2-0.3-6.3-0.5-9.5c0-0.7,0.2-1,0.9-1.1c1.7-0.1,3.4-0.2,5.2-0.2c1.3-0.2,2.6,0.5,3.3,1.7
	C61.9,92.6,61.6,94,60.5,94.8z M56.1,98.4c1.6,0,2.3-0.3,2.2-1.1c-0.1-0.6-0.7-1.1-1.3-1c-0.1,0-0.1,0-0.2,0.1
	C55.5,96.7,56.5,97.7,56.1,98.4z M55.8,92.6c0.3,0.6-0.4,1.5,0.8,1.5c0.6,0,1.1-0.2,1.1-0.9S57.1,92.4,55.8,92.6z"/>
<path class="st1" d="M127.3,91.4c1.6,1.4,3.1,2.9,4.7,4.3c0.3,0.4,0.6,0.8,0.9,1.2l-1.4,0.4c-1.9,0.6-4-0.2-5.2-1.8
	c-0.7-0.7-1.4-1.4-2.2-2c0.1,1.2,0.1,2.2,0.2,3.2c0.1,0.8-0.2,1.1-1,1.1s-1.4,0-2.1,0.1c-0.6,0-0.8-0.2-0.8-0.8
	c-0.2-3.2-0.3-6.5-0.5-9.7c0-0.7,0.2-1,0.9-1s1.5-0.1,2.2-0.1s0.8,0.2,0.9,0.8c0,0.9,0.1,1.8,0.2,3c1-1.2,1.7-2.3,2.6-3.3
	c0.3-0.4,0.8-0.6,1.3-0.7c0.7-0.1,1.3-0.2,2-0.1c0.4,0,0.7,0.1,1.1,0.3c-0.1,0.3-0.2,0.7-0.4,1c-0.9,1.2-1.9,2.4-2.8,3.6
	C127.6,91,127.5,91.2,127.3,91.4z"/>
<path class="st1" d="M48.9,101.5c-0.9,0.4-1.9-0.1-2.2-0.9c0-0.1,0-0.1-0.1-0.2c-0.2-0.2-0.4-0.3-0.7-0.3c-1.4,0-2.8,0.1-4.2,0.2
	c-0.3,0.1-0.5,0.3-0.6,0.6c-0.2,0.8-0.9,1.3-1.7,1.2c-0.6,0-1.1,0.1-1.7,0.1c-0.8,0-1-0.2-0.6-1c0.8-1.6,1.6-3.3,2.3-4.9
	s1.6-3.2,2.3-4.8c0.2-0.6,0.8-1,1.4-1c1.6-0.3,2.5,0.3,3.2,1.8c1.3,2.6,2.9,5.1,4.4,7.7c0.8,1.4,0.7,1.6-0.9,1.7
	C49.6,101.5,49.3,101.5,48.9,101.5z M42.6,97.6l2.3-0.2l-1.2-2.2L42.6,97.6z"/>
<path class="st1" d="M104.9,98.7c-0.9,0.3-1.9-0.1-2.2-0.9c0-0.1,0-0.1-0.1-0.2c-0.1-0.2-0.5-0.4-0.7-0.4c-1.3,0-2.5,0.1-3.8,0.1
	c-0.5-0.1-1.1,0.3-1.1,0.8c-0.1,0.7-0.7,1.1-1.4,1c0,0,0,0,0,0c-0.6,0-1.1,0-1.7,0.1c-1,0.1-1.2-0.3-0.8-1.2
	c0.7-1.4,1.4-2.9,2.1-4.3c0.9-1.8,1.7-3.5,2.6-5.3c0.2-0.5,0.7-0.9,1.3-0.9c1.7-0.4,2.5,0.3,3.3,1.8c1.4,2.7,3.1,5.3,4.6,8
	c0.6,0.9,0.4,1.3-0.7,1.3L104.9,98.7z M98.6,94.7l2.3-0.1l-1.3-2.3L98.6,94.7z"/>
<path class="st1" d="M71.7,92.3l2,0.5c0.7,0.2,1.4,0.3,2.1,0.5c1.4,0.4,2.4,1.7,2.3,3.2c0.1,1.5-0.8,2.8-2.1,3.4
	c-2.1,0.9-4.3,0.6-6.6,0.3c-0.1,0-0.1,0-0.2-0.1c-0.4-0.2-0.9-3.2-0.5-3.4c0.3-0.1,0.6-0.1,0.9,0c1.1,0.3,2.3,0.5,3.4,0.8
	c0.2,0,0.3,0,0.5,0c0.4-0.1,0.7-0.3,1.1-0.5c-0.3-0.2-0.6-0.4-1-0.6c-1-0.3-2.1-0.4-3-0.7c-1.4-0.4-2.3-1.7-2.2-3.1
	c-0.2-1.5,0.7-2.9,2.1-3.3c1.9-0.6,3.9-0.7,5.8-0.2c0.3,0.1,0.5,0.4,0.6,0.7c0.2,0.6,0.3,1.3,0.4,1.9c0.1,0.8-0.2,1-1,0.8
	c-1.1-0.3-2.1-0.5-3.2-0.7c-0.4,0-0.9,0-1.3,0.2L71.7,92.3z"/>
<path class="st1" d="M9.7,97.6c0-3.1,1.5-5,4.5-5.8c0.8-0.2,1.6-0.6,2.4-0.8c0.8-0.2,1.4-0.4,1.9,0.5c0.1,0.2,0.7,0.3,1,0.3
	c0.7,0.1,0.9,0.4,1,1.1c0.3,2.3,0.4,2.2-1.9,1.8c-0.8-0.2-1.7-0.2-2.6-0.2c-1.5,0.1-2.6,1.3-2.5,2.8c-0.1,1.6,0.8,2.8,2.3,2.9
	c1.4,0,2.7-0.2,4-0.6c1.3-0.3,1.4-0.3,1.4,1c0.1,1.9,0.1,1.9-1.8,2.4c-1.9,0.6-4,0.6-5.9,0.2C11.1,102.4,9.7,100.5,9.7,97.6z"/>
<path class="st1" d="M113.3,98.6c-1.1-0.2-2.2-0.4-3.2-0.8c-2.2-0.9-3.5-3.2-3.2-5.5c0.2-2.8,1.4-4.5,3.8-5.3c2-0.6,4.2-0.6,6.3-0.1
	c0.3,0.1,0.6,0.5,0.8,0.9c0.1,0.4,0.2,0.9,0.2,1.4c0.1,0.7-0.2,1-1,0.8c-1.1-0.3-2.2-0.4-3.3-0.4c-1.5-0.1-2.8,1.1-2.9,2.7
	c0,0.2,0,0.4,0,0.5c0,1.4,1,2.5,2.4,2.5c0,0,0.1,0,0.1,0c1.3-0.1,2.7-0.3,3.9-0.7c1.1-0.3,1.2-0.3,1.3,0.9c0.2,1.9,0,2.1-1.9,2.5
	c-0.6,0.1-1.1,0.2-1.7,0.3c-0.6,0.1-1.2,0.1-1.8,0.1L113.3,98.6z"/>
<path class="st1" d="M76.1,31.9c0.5,0.5,0.6,1.2,0.2,1.8c-0.3,0.3-0.7,0.4-1.2,0.4c-9.3-0.3-18.7-0.5-28-0.8
	c-7.3-0.3-14.7-0.6-22-0.8c-0.2,0-0.4-0.1-0.8-0.1l0.9-1.3l0.1,0.3c0.4,0.2,0.9,0.4,1.3,0.5c9.9,0.3,19.8,0.5,29.7,0.7
	c6,0.2,12.1,0.4,18.1,0.6c0.8,0,1.3-0.1,1.3-0.9C75.8,32.1,75.9,32,76.1,31.9z"/>
<path class="st1" d="M23.9,31.3c-0.3,1-1.1,1.1-1.8,1.1c-1.5,0-3,0-4.5-0.1c-1.1,0-2.2-0.2-3.3-0.3c-0.6,0-0.8-0.3-0.8-0.9
	c0.4-5,0.8-9.9,1.2-14.9c0.3-3,0.5-6,0.8-9c0-0.1,0-0.3,0-0.4c0.2-2.6,0.4-2.8,3-2.5c2,0.3,4.1,0.7,6.1,1c0.3,0.1,0.6,0.2,0.9,0.3
	v0.3C25,6,24.5,6,24,6c-2.4-0.3-4.8-0.8-7.4-1.2c-0.1,0.9-0.2,1.8-0.3,2.7c-0.7,7.5-1.3,15-2,22.5c-0.1,0.8,0.2,1,0.9,1
	c2.7,0,5.3,0.1,8,0.2L23.9,31.3z"/>
<path class="st1" d="M71.7,105.5c-1.2,0.7-44,2.8-48.9,2.4C24.6,107.3,69.4,105.1,71.7,105.5z"/>
<path class="st1" d="M118.2,81.2c-15.2,1.5-30.5,1.6-45.8,2.1V83c0.9-0.1,1.8-0.3,2.7-0.3c4.1-0.2,8.3-0.3,12.5-0.5
	c4-0.2,8-0.5,12-0.6c6.3-0.2,12.5-0.4,18.7-0.6L118.2,81.2z"/>
<path class="st1" d="M70.5,83.7L21.8,86l-0.1-0.5c0.7-0.1,1.5-0.3,2.2-0.3c4.1-0.2,8.1-0.3,12.2-0.5c4.9-0.2,9.8-0.5,14.8-0.7
	c5.8-0.3,11.6-0.5,17.3-0.7c0.6,0,1.2-0.1,1.7-0.2c0.2,0,0.4,0.1,0.5,0.2L70.5,83.7z"/>
<path class="st1" d="M121.3,103.3c-0.5,0.1-1,0.3-1.5,0.3c-10.1,0.5-20.2,0.9-30.4,1.4c-4.4,0.2-8.7,0.3-13.1,0.5
	c-0.9,0-1.9,0-2.8,0v-0.2c0.4-0.1,0.8-0.2,1.2-0.2c6.1-0.3,12.3-0.7,18.4-1c2.5-0.1,5-0.1,7.6-0.1c2.2-0.1,4.4-0.3,6.5-0.4
	c4.5-0.2,9-0.4,13.6-0.6c0.2,0,0.3,0,0.5,0.1L121.3,103.3z"/>
<path class="st1" d="M138.8,91.4c0.1,0.3,0.1,0.7,0.2,1c0.1,5.8-3.3,9.8-9.3,10.7c-2,0.3-4,0.2-6,0.3l-0.1-0.4
	c0.2-0.1,0.4-0.3,0.7-0.4c0.9-0.1,1.8-0.2,2.7-0.1c2.6,0.1,5.2-0.6,7.5-2c2.4-1.6,3.8-4.2,3.9-7.1c0.1-0.7,0.1-1.3,0.2-2L138.8,91.4
	z"/>
<path class="st1" d="M121.6,80.9c0.8-0.2,1.7-0.4,2.6-0.4c2.5,0.1,5,0.4,7.4,0.6c0.2,0,0.3,0.1,0.4,0.1c3.6,2.3,6.4,5.1,6.7,9.6
	l-0.2,0.1l-0.8-1.8c-0.4-1.1-0.9-2.3-1.5-3.4c-1.9-3.4-5.6-5.2-9.4-4.6c-1.7,0.2-3.5,0.2-5.2,0.3L121.6,80.9z"/>
<path class="st1" d="M2.4,97.9c0.1,0.4,0.2,0.7,0.3,1.1c0.7,4.9,3.7,7.7,8.4,8.6c2.6,0.3,5.2,0.5,7.8,0.6c-0.3,0.1-0.5,0.2-0.8,0.2
	c-2.7,0.3-5.4,0.2-8-0.3c-2.6-0.5-4.8-2-6.1-4.3c-0.8-1.4-1.4-3-1.8-4.6C2,98.8,2,98.4,2,98L2.4,97.9z"/>
<path class="st1" d="M74.4,23.7c0.1,1-0.7,1.9-1.7,2c0,0,0,0-0.1,0c-1-0.1-1.7-1-1.7-2.1c0-1,0.8-1.7,1.7-1.7c0,0,0.1,0,0.1,0
	C73.8,22,74.5,22.8,74.4,23.7C74.4,23.7,74.4,23.7,74.4,23.7z"/>
<path class="st1" d="M2.1,96.6c-0.1-3.8,2-7.3,5.3-9.1c3-1.7,6.5-2.3,9.9-1.8l-1.6,0.2L14,86c-2.4,0.2-4.6,1-6.7,2.1
	c-2.5,1.4-4.1,3.9-4.4,6.7c-0.1,0.6-0.3,1.3-0.5,1.9L2.1,96.6z"/>
<path class="st1" d="M52.7,21.9c0.1,0.8-0.5,1.6-1.4,1.7c-0.1,0-0.2,0-0.3,0c-1,0-1.8-0.8-1.8-1.8c0.1-0.9,0.9-1.6,1.8-1.6
	c0,0,0,0,0,0c0.8,0,1.6,0.6,1.6,1.4C52.7,21.7,52.7,21.8,52.7,21.9z"/>
<path class="st1" d="M30.5,20c0.1,0.8-0.6,1.6-1.4,1.6c-0.1,0-0.1,0-0.2,0c-0.9,0-1.7-0.7-1.8-1.7c0.1-1,0.9-1.8,1.9-1.7
	C30,18.3,30.5,18.9,30.5,20z"/>
<path class="st1" d="M77.9,8.6c0-0.4,0.1-0.9,0.1-1.3c0-0.3,0-0.6,0-0.9c0.1-0.3,0.3-0.7,0.5-1c0.1,0.2,0.3,0.4,0.4,0.7
	c0,0.1-0.1,0.3-0.1,0.4c-0.1,0.7-0.1,1.5-0.2,2.2c-0.1,0.5-0.2,1-0.3,1.6l-0.4,0.1l-1.7-3.6c-0.3,1.1-0.5,2.1-0.8,3.1
	c0,0.1-0.4,0.2-0.5,0.2C75,9,75.2,7.9,75.3,6.9c0.1-0.4,0-0.9,0.1-1.3c0.1-0.2,0.2-0.4,0.4-0.6c0.2,0.2,0.4,0.3,0.5,0.5
	c0.3,0.8,0.6,1.5,0.9,2.3c0.1,0.3,0.3,0.6,0.4,0.9L77.9,8.6z"/>
<path class="st1" d="M96,25.3c0,0.8-1.1,2.1-1.6,2.1c-0.7,0-1.3-0.6-1.4-1.3c0.1-1,0.9-1.8,1.9-2C95.7,24.2,95.9,24.7,96,25.3z"/>
<path class="st1" d="M82.3,7.6c-0.2-0.2-0.2-0.3-0.3-0.4c-0.2-0.3-0.6-0.8-0.7-0.8c-0.5,0.1-0.9,0.4-1.2,0.8C79.7,8,79.7,9,80.2,9.8
	c0.3,0.6,0.9,0.7,1.3,0.3c0.6-0.6,1-0.4,1.5,0.1c-0.4,0.1-0.9,0.3-1.3,0.4c-1.1,0.5-2,0.2-2.2-1c-0.2-1.1-0.2-2.3,0-3.5
	c0.1-0.7,1.7-0.9,2.6-0.3C82.7,6.3,82.8,6.8,82.3,7.6z"/>
<path class="st1" d="M70.8,9.2l1.9-4.8c1.3,1.6,1.2,3.4,1.5,5.2c-0.7-0.3-0.7-1.2-1.7-1.2c-0.7-0.1-1.3,0.3-1.5,1L70.8,9.2z
	 M73.3,7.9l-0.4-1.8h-0.3l-0.5,1.6L73.3,7.9z"/>
<path class="st1" d="M25.9,86.8c3.3-0.9,6.7-0.6,10.2-0.7C35.6,86.6,27.8,87.1,25.9,86.8z"/>
<path class="st1" d="M58.6,2.5c0.8,1.2,0.4,2.5,1,3.8l1.5-3.3l0.5,0.2l-1.9,4.4C58.8,7.1,58.1,4.2,58.6,2.5z"/>
<path class="st1" d="M116.4,104.5l-10,0.9c0.4-0.6,1.1-1,1.8-0.9c1.7-0.1,3.4-0.1,5-0.1c0.7,0,1.4-0.1,2-0.1c0.4,0,0.7,0,1.1,0.1
	L116.4,104.5z"/>
<path class="st1" d="M84.3,6.1l0.9,2.3l1.1-1.8l0.3,0.2c-0.1,0.3-0.2,0.7-0.4,1c-0.6,0.8-0.9,1.7-0.9,2.7c0,0.4-0.4,0.8-0.6,1.2
	c-0.2-0.3-0.3-0.4-0.3-0.4c0.7-1.2,0.3-2.4-0.3-3.6c-0.2-0.5-0.3-1-0.4-1.5L84.3,6.1z"/>
<path class="st1" d="M6.5,108.1l6.9,1.5C12.2,110.5,7.6,109.5,6.5,108.1z"/>
<path class="st1" d="M136.5,95.5l0.4-6.1C138,90.5,137.8,94.3,136.5,95.5z"/>
<path class="st1" d="M117.9,26.7c1,0.1,1.4,0.5,1.3,1.2c0,0.5-0.4,0.9-0.9,1c-0.1,0-0.1,0-0.2,0c-0.6,0-1-0.4-1-1c0-0.1,0-0.1,0-0.2
	C117.2,27.3,117.7,27,117.9,26.7z"/>
<path class="st1" d="M65.3,29.2c-0.3-0.3-0.8-0.8-0.7-1c0.3-0.7,0.7-1.4,1.1-2.1C66.9,27.4,66.8,28.1,65.3,29.2z"/>
<path class="st1" d="M132.5,87.1c0.7,0,1.3,0.1,2,0.3c0.4,0.1,0.6,0.6,0.9,0.9c-0.3,0.2-0.7,0.3-1,0.3c-0.5-0.1-1.1-0.2-1.6-0.5
	c-0.2-0.1-0.4-0.5-0.5-0.8L132.5,87.1z"/>
<path class="st1" d="M16.1,30.5c-0.4-0.4-1.1-0.9-1-1.2c0.2-0.6,0.8-1.1,1.2-1.6l0.3,0.2l-0.1,2.5L16.1,30.5z"/>
<path class="st1" d="M124,104.1c1.2-0.8,2.5-0.5,4-0.4C126.6,104.7,125.3,104.3,124,104.1z"/>
<path class="st1" d="M15.7,19.9c0.5-0.2,1-0.3,1.5-0.4c0.2,0,0.5,0.3,0.8,0.5c-0.2,0.2-0.3,0.6-0.5,0.6C16.4,21,16,20.8,15.7,19.9z"
	/>
<path class="st1" d="M16.6,8.7C16.7,8,16.8,7.3,17,6.6c0.1-0.2,0.3-0.3,0.5-0.3c0.2,0,0.4,0.3,0.4,0.4c0,0.5,0,1-0.2,1.5
	c-0.1,0.3-0.5,0.4-0.8,0.6L16.6,8.7z"/>
<path class="st1" d="M41,12.2c0.4-0.1,0.7-0.3,1-0.2c0.3,0.1,0.5,0.4,0.7,0.7c0.1,0.1-0.1,0.4-0.2,0.6c-0.3-0.1-0.6-0.2-0.9-0.3
	C41.4,12.8,41.2,12.5,41,12.2z"/>
<path class="st1" d="M113.2,94.1c-0.3-0.4-0.6-0.6-0.8-0.8s0.3-0.6,0.4-0.6c0.4,0.1,0.7,0.3,1.1,0.5L113.2,94.1z"/>
<path class="st1" d="M126,99.3c-1.2,0.1-1.3-0.5-1.2-1.1c0-0.2,0.3-0.4,0.5-0.6L126,99.3z"/>
<path class="st1" d="M67.4,11.8c0.3,0.3,0.7,0.5,0.7,0.7c-0.1,0.4-0.2,0.7-0.3,1.1c-0.2-0.1-0.5-0.2-0.5-0.3
	C67.3,12.8,67.4,12.3,67.4,11.8z"/>
<path class="st1" d="M38.8,108.6h2.5v0.2l-2.5,0.2V108.6z"/>
<path class="st1" d="M115.9,93.1c0.4-0.2,0.8-0.5,1.2-0.6c0.1,0.2,0.2,0.3,0.3,0.5l-1.2,0.6L115.9,93.1z"/>
<path class="st1" d="M56.9,108h-2.2v-0.3h2.2L56.9,108z"/>
<path class="st1" d="M134.3,31.4l0.8-0.2l0.2,0.3l-1.4,1.1l-0.3-0.3L134.3,31.4L134.3,31.4z"/>
<path class="st1" d="M24.8,7.6l0.4-1.2c0.2,0.2,0.5,0.3,0.5,0.4c-0.1,0.3-0.3,0.7-0.5,0.9L24.8,7.6z"/>
<path class="st1" d="M59.5,21.9l1.4-0.7c0.1,0.9,0,0.9-1.3,1L59.5,21.9z"/>
<path class="st1" d="M60,107.9h-1.9v-0.2H60L60,107.9z"/>
<path class="st1" d="M61.1,26.1l-0.2-1.8c1,0.5,0.6,1.2,0.6,1.8L61.1,26.1z"/>
<path class="st0" d="M61.4,60.8c0.1,1.9,0.1,3.9,0,5.8c-0.5,3.7-2.5,5.3-6.2,5.6c-4,0.3-6.5-1.6-7.3-5.5c-0.3-1.5-0.4-3.1-0.5-4.7
	c-0.2-2.1-0.3-4.1-0.3-6.2c0-1.8,0.1-3.6,0.3-5.3c0.3-2.5,2.2-4.4,4.6-4.8c1.4-0.3,2.8-0.3,4.2,0.1c2.1,0.4,3.8,2.1,4.3,4.3
	C61.2,53.6,61.5,57.2,61.4,60.8z M56.4,54h0.2c-0.1-1-0.1-2.1-0.3-3.1c-0.2-1.2-1.1-2.1-2.3-2.3c-1.1-0.2-2.1,0.5-2.5,1.5
	c-0.3,0.6-0.4,1.3-0.4,2c0.1,3.5,0.2,7,0.4,10.5c0.1,1.4,0.4,2.9,0.8,4.2c0.4,1,1.4,1.7,2.5,1.5c1,0,1.9-0.8,2-1.8
	c0.3-1.6,0.4-3.2,0.3-4.8C57.1,59.2,56.7,56.6,56.4,54z"/>
<path class="st0" d="M100.6,56c-0.6-0.8-1.1-1.4-1.6-2.1c-2.1-2.6-1.8-6.3,0.6-8.5c3.5-3,9.4-1.7,10.6,2.5c0.9,3.2,0.7,3-2.3,3.1
	c-0.9,0-1.3-0.2-1.4-1.1c-0.1-0.5-0.2-1-0.5-1.5c-0.4-1.2-1.7-1.8-2.8-1.4c0,0-0.1,0-0.1,0c-1.2,0.4-1.9,1.7-1.5,3c0,0,0,0,0,0
	c0.3,0.8,0.8,1.5,1.4,2.1c2.3,2.2,4.6,4.3,6.9,6.4c1.9,1.7,2.7,4.4,1.8,6.8c-0.7,2.6-2.9,4.4-5.5,4.7c-4.8,0.7-8.4-2.8-8.1-7.6
	c0-0.3,0.4-0.7,0.6-0.7c1.2-0.1,2.4,0,3.7,0c-0.1,0.7,0,1.3,0.1,2c0.3,0.8,0.8,1.5,1.4,2c0.9,0.7,2.3,0.5,3-0.4
	c0.2-0.3,0.3-0.6,0.4-0.9c0.5-1.4,0.1-3-1-4.1c-1.4-1.2-3-2.3-4.4-3.4l-0.3,0.2c0.4,0.5,0.8,0.9,1.2,1.3c0.7,0.6,1.5,1,2.3,1.6
	c1,0.7,1.6,1.7,1.6,2.9c-0.4-0.6-0.8-1.1-1.3-1.7c-0.7-0.6-1.6-1.2-2.3-1.7c-0.5-0.4-1.1-0.8-1.6-1.3c-1.3-1.2-2.5-2.5-3.6-3.8
	c-1.6-2-2.1-4.6-1.2-7c0.3-0.7,0.7-1.3,1.1-1.8C96.1,50,97.4,55.2,100.6,56z"/>
<path class="st0" d="M80.9,55.6l0.3,4.5c-1.3,0-2.4,0-3.5,0s-2.2,0.1-3.5,0.2c0.1,1.3,0.1,2.6,0.2,3.8c0.2,2.3,0.6,2.7,3,2.6
	c0.7,0,1.4-0.1,2.1-0.2l2.1-0.2c0.1,1.1,0.2,2.1,0.2,3.1c0,0.2-0.3,0.7-0.5,0.7c-3.6,0.2-7.2,0.4-10.8,0.6c-0.1-1.8-0.2-3.4-0.3-5
	c-0.1-2.6-0.3-5.3-0.4-7.9c-0.2-3.7-0.5-7.4-0.7-11.1c0-0.2,0-0.4,0-0.6c-0.1-0.9,0.3-1.2,1.2-1.2c2.9,0,5.8-0.1,8.8-0.3
	c0.9,0,1.1,0.3,1.1,1.1c0,0.3,0,0.6,0,0.9c0,1.7,0,1.7-1.8,1.7c-1.2,0-2.4,0-3.6,0.2c-1.2,0.2-1.3,0.6-1.2,1.7
	c0.1,0.8,0.1,1.5,0,2.3c-0.2,2.5,0.7,3.3,3.2,3.2c0.9-0.1,1.7-0.2,2.6-0.2C79.7,55.5,80.2,55.6,80.9,55.6z"/>
<path class="st0" d="M30.6,63.3c0.1,1.1,0.1,2.1,0.2,3.1c0.2,1.7,0.7,2.2,2.2,2.1c0.9,0,1.6-0.6,1.7-1.5c0.1-1.3,0.2-2.6,0.1-3.8
	c-0.2-5.3-0.4-10.7-0.6-16c0-0.2,0-0.3,0.1-0.5l4-0.2c0.1,1.9,0.2,3.7,0.3,5.4s0.2,3.8,0.3,5.7c0.1,2.8,0.3,5.7,0.3,8.6
	c0.1,3.4-2.5,6.2-5.9,6.3c0,0,0,0-0.1,0c-1.8,0.2-3.6-0.3-5.1-1.4c-1-0.8-1.5-2-1.5-3.2c-0.1-1.1-0.1-2.2-0.2-3.3
	c-0.1-0.6,0.1-0.9,0.7-0.9L30.6,63.3z"/>
<path class="st0" d="M86.9,51.9c0.9,1,1.6,0.4,2.4,0c0.1,1-0.4,1.3-1.3,1.4c-0.2,0-0.5,0.1-0.7,0.1c-0.4-0.1-1.1-0.2-1.1-0.4
	c-0.1-0.6-0.4-1.3,0.6-1.5c0.2,0,0.4-0.5,0.4-0.8c0.2-2,0.4-4,0.6-6.1l2.6-0.3c-0.3,0.5-0.5,1-0.6,1.5c-0.4,2-0.7,4-1,6L86.9,51.9z"
	/>
<path class="st0" d="M97.4,65.5c2.3,5.8,11.3,7.1,14.3,1.5c-0.4,2.4-3.2,4.1-6.7,4.1C101.2,71.1,98,68.8,97.4,65.5z"/>
<path class="st0" d="M25,68.8c1.7,5.9,9.9,7.3,13.5,3.4c-1.3,2.2-4.6,3.2-7.9,2.4S25.2,71.4,25,68.8z"/>
<path class="st0" d="M105.9,52c-0.6-1.6,0-4-2.8-4c0.6-0.7,1.3-0.8,1.8-0.1c0.6,0.8,1,1.7,1.3,2.6c0.2,0.8,0.6,1.1,1.3,1l3.4-0.2
	C110.1,52.2,109.3,52.3,105.9,52z"/>
<path class="st0" d="M82.4,71c-0.3,0.2-0.6,0.3-0.9,0.4c-2.8,0.1-5.6,0.3-8.4,0.4c-0.9,0-1.7-0.1-2.6-0.3v-0.2c2,0,3.9,0.1,5.9,0
	s3.9-0.3,5.9-0.4L82.4,71z"/>
<path class="st0" d="M75.2,49.2L78,49l2.8-0.2l0.2-2.1h0.2l0.5,2.6L75.2,49.2L75.2,49.2z"/>
<path class="st0" d="M54.7,73c-2.8,0.4-5.5-1-6.8-3.5C50.3,72.3,51.8,72.7,54.7,73z"/>
<path class="st0" d="M34.4,66.3c-0.2,0.7-0.8,1.1-1.5,1c-0.7,0.1-1.4-0.3-1.6-1C32.2,67.1,33.5,67.1,34.4,66.3z"/>
<path class="st0" d="M62.6,71.5l1.5-3.5C64.2,69.4,63.4,70.4,62.6,71.5z"/>
<path class="st0" d="M58.6,72l1.9-1.4l0.1,0.2l-1.9,1.5L58.6,72z"/>
<path class="st0" d="M26.7,96.2L26.6,94c0.9-0.1,1.8-0.1,2.7,0c0.4,0.1,0.7,0.6,1,0.9c-0.3,0.3-0.6,0.9-0.9,0.9
	C28.5,96,27.6,96.1,26.7,96.2z"/>
<path class="st0" d="M56.1,98.4c0.4-0.7-0.7-1.7,0.7-2c0.6-0.2,1.3,0.1,1.5,0.7c0,0.1,0,0.1,0.1,0.2C58.4,98.1,57.7,98.4,56.1,98.4z
	"/>
<path class="st0" d="M55.8,92.8c1.3-0.2,2,0,1.9,0.6s-0.5,0.9-1.1,0.9C55.5,94.3,56.1,93.3,55.8,92.8z"/>
<path class="st0" d="M42.6,97.8l1.1-2.4l1.2,2.2L42.6,97.8z"/>
<path class="st0" d="M98.6,94.7l1.1-2.4l1.3,2.3L98.6,94.7z"/>
<path d="M73.3,7.9l-1.2-0.3l0.5-1.6h0.3L73.3,7.9z"/>
<path class="st1" d="M56.4,54c0.3,2.6,0.6,5.2,0.8,7.8c0.1,1.6,0,3.2-0.3,4.8c-0.1,1-1,1.8-2,1.8c-1.1,0.2-2.1-0.5-2.5-1.5
	c-0.4-1.4-0.7-2.8-0.8-4.2c-0.2-3.5-0.3-7-0.4-10.5c0-0.7,0.2-1.4,0.4-2c0.3-1.1,1.4-1.7,2.5-1.5c1.2,0.2,2.1,1.1,2.3,2.3
	c0.1,1,0.2,2.1,0.3,3.1L56.4,54z M54.8,49.8c-0.7-0.5-1.6-0.4-2.1,0.3c0,0,0,0,0,0.1L54.8,49.8z"/>
<path class="st0" d="M54.8,49.8l-2.2,0.4C53.1,49.5,54.1,49.3,54.8,49.8C54.8,49.8,54.8,49.8,54.8,49.8z"/>
<polygon class="st0" points="56,1.9 87.2,6.2 86.2,13 54.8,8.4 "/>
</svg>
