<?xml version="1.0" encoding="utf-8"?>
<!-- Generator: Adobe Illustrator 21.1.0, SVG Export Plug-In . SVG Version: 6.00 Build 0)  -->
<svg version="1.1" id="Layer_1" xmlns="http://www.w3.org/2000/svg" xmlns:xlink="http://www.w3.org/1999/xlink" x="0px" y="0px"
	 viewBox="0 0 141.9 141.1" style="enable-background:new 0 0 141.9 141.1;" xml:space="preserve">
<style type="text/css">
	.st0{fill:#FDFDFD;}
	.st1{fill:#F9F6F8;}
	.st2{fill:#CC1042;}
	.st3{fill:#F9B728;}
	.st4{fill:#231F20;}
	.st5{fill:#C81545;}
</style>
<title>CR</title>
<path class="st0" d="M1.4,140.5c-0.7,0.2-0.8-0.1-0.8-0.8c0-43.5,0-87,0-130.5c0.3,0,0.7,0,1-0.1c-0.3-0.1-0.7-0.2-1-0.1V8
	c0.2,0.1,0.4,0.1,0.6,0S2,7.8,2.2,8s0.7,0.3,1,0.3h133.9c0.3,0,0.6,0.1,0.7-0.1c0.5-0.5,1-0.3,1.6-0.3c0.9,0.1,0.9,0,0.9-1
	c-0.1-1.6,0-3.1,0.1-4.7c0.1-0.3,0-0.6-0.1-0.8c-0.2-0.2-0.2,0-0.3,0.1h-1.9c0.1-0.8-0.4-0.8-1-0.8H3.1c-0.2,0-0.3-0.1-0.3-0.2
	c0,0,0,0,0,0h138.1c0.5,0,0.6,0.1,0.6,0.6c0,46.2,0,92.3,0,138.5c0,0.7-0.1,1-0.9,0.8c-0.2,0-0.4,0-0.6,0l0.1-0.3c0-1.9,0-3.8,0-5.7
	c0-0.1,0-0.2-0.1-0.3h-1.2H2c-0.2,0-0.5,0-0.7,0s-0.1,0.2-0.1,0.3c0,1.7,0,3.5,0,5.2c0,0.2,0,0.3,0.1,0.4V140.5z M69.6,128.4
	c0-0.1-0.1-0.3-0.2-0.3c0,0,0,0-0.1,0l0.1-0.4h0.3c0.5,0.3,1.1,0.4,1.6,0.4c0.2-0.1,0.2-0.3,0.2-0.5c0-0.3-0.1-0.7,0.2-1
	c0.1-0.1-0.1-0.2-0.2-0.2v-0.1c0.3-0.3,0.9-0.3,1.2,0.1c0.1,0.1,0.1,0.2,0.2,0.3c0.1,0.3,0.2,0.3,0.4,0.3s0.4,0,0.3-0.3
	s0.2-0.5,0.6-0.5c1.1,0,2.1,0,3.2,0c0.2,0,0.4,0.1,0.5-0.2c-0.3-0.2-1-0.2-0.6-0.9h0.4c0.1,0.5,0.3,0.7,0.8,0.3
	c0.2-0.1,0.4-0.2,0.6-0.3c0,0.4-0.1,0.7,0.3,0.8c0.1,0,0.3,0,0.3-0.2c0,0,0,0,0-0.1c0-0.4-0.4-0.2-0.6-0.4c0-0.3,0.2-0.4,0.5-0.4
	s0.4,0.1,0.4-0.2c0-0.1-0.1-0.3,0.1-0.3s0.3,0.1,0.3,0.3c0,0.6,0,1.2-0.1,1.8c-0.1,0.4-0.1,0.8,0.1,1.1c0.9,0.1,1.8,0.2,2.7,0.1
	c0.3,0,0.3-0.2,0.3-0.4c0.1-0.6,0.3-1.2,0.4-1.8c0.1-0.3,0.2-0.5,0.6-0.5c1.4,0,2.8,0,4.2,0c0.9,0,1.1,0.3,0.9,1.2
	c-0.1,0.5-0.4,0.9-0.2,1.4c0,0.1-0.1,0.4-0.1,0.3c0.6-0.2,1.1,0.2,1.6,0c0.5-0.2,0.5-0.1,0.5,0.3c0,0.2,0.1,0.3,0.3,0.3
	c0.2,0,0.3-0.2,0.2-0.3c0,0,0,0,0,0c0-0.1-0.2-0.2-0.1-0.4c0.3-0.1,0.5,0,0.8,0.1c0.3,0.1,0.8,0.4,0.9-0.3h0.3
	c0.2,0.2,0.5,0.1,0.7,0.1c2.5,0,4.9,0,7.4,0c0.4,0,0.7,0.1,0.6,0.6h-8.8c0.7,0.3,8.4,0.3,8.8-0.1c0.3,0,0.3-0.4,0.4-0.4
	c0.8,0.3,0.9-0.3,1.1-0.8c0.1-0.2,0.3-0.3,0.5-0.2c0.2,0,0.2,0.2,0.2,0.4s0,0.5,0,0.8c0,0.3,0,0.5,0.3,0.5s0.3-0.4,0.2-0.6
	c-0.3-0.6,0.2-0.5,0.5-0.5c0.6,0.1,1.3,0.2,1.9,0.2c1.3,0,2.6,0.1,3.9,0.1c0.6-0.1,1.2,0.4,1.8,0.2c0.1,0,0.2,0.1,0.3,0.2
	c0.2,0.7,0.4,0.2,0.6,0c0.3-0.2,0.1-0.6,0.5-0.5c0.7,0.2,0.9-0.3,1.1-0.8c0.1-0.3,0.2-0.3,0.5-0.3s0.4,0.1,0.6,0.1c0,0,0,0.1,0,0.1
	c-0.1,0.4,0.2,0.8,0.3,1.2c0,0.1,0.4,0.5,0.6,0.3c0.8-0.4,1.7-0.3,2.5-0.5h2.3c0,0.2,0.1,0.3,0.3,0.3c0.5-0.2,1.1,0,1.6-0.1
	c0.5-0.1,1.4-0.4,2,0.3c0.2,0.2,0.3,0.1,0.4-0.2c0-0.2,0.2-0.5,0.6-0.5s0.3-0.1,0.5-0.2c0.4-0.3,0.4-0.8,0.5-1.2
	c0.1,0,0.2,0,0.2-0.1l0,0c-0.2,0-0.1,0.1-0.1,0.2c-0.2-0.1-0.1-0.3-0.2-0.5c0.3-0.8,0.5-1.7,0.6-2.6c0.4-0.2,0.4-0.4,0-0.6
	c0,0,0-0.1,0-0.1c0,0,0,0,0,0c0.2-0.8,0.5-1.5,1-2.1c0.1-0.1,0.1-0.2,0.1-0.3c-0.2-0.7-0.3-1.4-0.2-2.1c0-0.4-0.3-0.7-0.7-0.7
	c0,0,0,0,0,0c-0.5,0-0.9-0.2-1.3-0.4c-0.2-0.1-0.5-0.1-0.6,0c-0.2,0.2-0.6,0.2-0.9,0.2h-3.2c-0.2,0-0.5-0.1-0.6,0.1l-0.8,0.1
	c-0.2-0.4-0.4-0.2-0.6,0h-0.3c-0.4-0.3-0.9,0.1-1.4-0.1c-0.2-0.1,0,0.5-0.2,0.6c-0.4,0.3-0.5,0.8-0.9,1.1c-0.2,0.2-0.4,0.3-0.6,0.2
	s0-0.4,0.1-0.5c0.4-0.3,0.5-0.8,0.3-1.2c-0.3,0-0.1,0.4-0.4,0.3c0-0.1,0-0.2,0-0.3s0-0.4-0.2-0.4s-0.3,0.1-0.3,0.3s-0.1,0.1-0.2,0.2
	c0,0-0.1,0-0.1,0c-0.1-0.5-0.7-0.9-1.2-0.8c0,0-0.1,0-0.1,0c-0.3,0.1-0.5,0.2-0.8,0.2c-1.7,0.1-3.4,0-5.1-0.3c-0.5,0-1-0.2-1.5-0.4
	c-0.5-0.3-1.1-0.3-1.6-0.1c0.2,0.1,0.2,0.9,0.7,0.2c0.2-0.2,0.4,0.1,0.6,0.2c0.2,0.1,0.2,0.2,0.2,0.4c-0.1,0.2-0.3,0.1-0.5,0.1
	c-0.6,0-1.2-0.3-1.8-0.3c-0.2,0-0.4,0.1-0.5-0.2c0.4-0.2,0.4-0.2,0.1-0.6c0.1-0.2,0.5,0,0.5-0.3c-0.5-0.2-0.9,0-1,0.4
	c0,0.7-0.4,0.6-0.9,0.6c-2.5,0-5,0-7.5,0c-0.6,0-1.3-0.1-1.7,0.6c-0.4-0.5-1.2-0.8-0.8-1.8l-0.7,0.5c0.2,0.2,0.4,0.3,0.4,0.5
	s-0.4,0.1-0.5,0.2s-0.5-0.1-0.5,0.3h-0.3c-0.2-0.2-0.6-0.3-0.9-0.3c-1.6,0-3.2,0-4.8,0c-1,0.1-1.9-0.1-2.8-0.5
	c-0.2,0.3-0.1,0.5-0.1,0.8h-0.3c0.1-0.4-0.1-0.6-0.8-0.8c0,0.1,0.1,0.3,0.2,0.2c0.1-0.1,0.2-0.2,0.3-0.4c0-0.1-0.1-0.1-0.2-0.1
	s-0.3,0.1,0,0.5c0,0.2-0.4,0.4-0.1,0.7c0,0,0,0.6-0.4,0.6s-0.3-0.1-0.3-0.3c-0.1-0.9-1-0.8-1.5-1.1s-0.9,0.1-1.2,0.5h-0.6
	c-0.1-0.1-0.2-0.1-0.2-0.1l0,0h-0.1c-0.1-0.4,0.1-0.8,0.5-1c0,0,0.1,0,0.1,0c-0.5-0.1-1.1-0.4-1.1,0.5c0,0.3-0.3,0.2-0.5,0.2
	c-0.8,0-1.6,0-2.4,0c-1.3-0.1-2.7,0.3-3.9-0.2c-0.1,0-0.2,0-0.3,0.1c-0.3,0.3-0.9,0.3-1.2,0c0,0-0.1-0.1-0.1-0.1
	c-0.2-0.2-0.3-0.3-0.4,0.1s-0.3,0.2-0.4,0.3s-0.6-0.1-0.7,0.2h-1.4c-0.2-0.8,0.4-0.8,1-0.9c-0.8-0.6-1.8-0.1-2.7-0.5
	c0.2,0.5,0.5,0.9,0.2,1.1c-0.8,0.4-0.4,0.8-0.2,1.2l-2.8,3c-0.7-1.3-1.3-2.3-1.9-3.4c-0.1-0.3-0.5-0.5-0.8-0.5c-1.1,0-2.1,0-3.2,0
	c-0.4-0.5-0.8-0.3-1.3,0h-0.5c-6.4,0-12.8,0.1-19.3,0.2c-5.8,0.2-11.6,0.2-17.3,0.3c-2,0-4,0-6.2,0c0.2,0.3,0.3,0.3,0.5,0.3
	l22.1,0.4l9.6,0.2c0.2,0,0.5-0.1,0.5,0.2s-0.3,0.2-0.5,0.2l-7.3,0.1l-16.9,0.4c-2.6,0.1-5.2,0-7.7,0.2h-1.8c-0.1,0-0.2,0,0,0.1h0.1
	c0,0.1-0.3,0.2,0,0.3s0.8-0.1,1.2-0.1c0.7,0.1,1.4,0.1,2.1,0c0.7-0.1,1.4,0.2,2-0.2l0,0c0,0.2,0.1,0.3,0.3,0.3H18
	c0.2,0,0.3-0.1,0.3-0.2c0,0,0,0,0,0h3.2c0.1,0.3,0.3,0.2,0.6,0.2c0.7,0,1.3,0,1.9,0c0.3,0,0.7,0.1,1-0.2h0.3c0.1,0.2,0.3,0.2,0.4,0
	c0.2-0.1,0.5-0.1,0.7,0c1.4,0.4,2.8-0.1,4.2,0.4c0.6,0.2,1.2-0.1,1.7-0.3c0.5-0.1,1.1-0.1,1.6,0c0,0.4-0.2,0.4-0.5,0.4s-0.8,0-1,0.4
	h-0.7c-0.3-0.4-0.7-0.4-1,0h-1.3c-0.4-0.4-0.8-0.4-1.1,0h-1.1c0-0.3-0.2-0.3-0.5-0.3c-1.1,0-2.1,0-3.2,0.2c-0.4,0.1-0.7-0.3-1.1-0.2
	c-0.8,0.4-1.8,0.3-2.6-0.2c-0.2-0.1-0.4-0.2-0.5,0.1s-0.4,0.3-0.6,0.4c-0.9,0-1.9-0.1-2.8,0c-0.4,0.1-0.8,0-1.2-0.2
	c-0.3-0.2-0.7-0.1-0.9,0.1c-0.3,0.2-0.7,0.2-1,0c-0.4-0.2-1-0.4-1.3,0.2c0,0.1-0.2,0.2-0.3,0.2c-0.5,0.1-0.9,0.1-1.4,0
	c-0.5-0.2-0.6,0-0.8,0.3h0.6c0.5-0.1,1,0.1,1.2,0.5c0.1,0.1,0.2,0.1,0.3,0c0.4-0.5,1-0.3,1.4-0.5c0.3,0,0.6,0,0.9,0
	c0.2,0,0.6-0.2,0.6,0.2c-0.1,0-0.1,0-0.2,0c-0.1,0,0,0.1,0,0.1c0.1,0,0.1,0,0.2-0.1c0.1-0.5,0.5-0.1,0.8-0.2
	c0.9,0.5,1.9,0.7,2.9,0.5c0.2,0,0.3-0.2,0.3-0.4l0.2,0.1c1.4,0.1,2.7,0.2,4.1,0.1c0.2,0,0.5,0,0.8,0c0.8,0.2,1.6,0.1,2.3-0.1h0.4
	c0.2,0.3,0.4,0.3,0.6,0h2.2c0.1,0.4,0.4,0.2,0.6,0.2h5.1c0.3,0,0.6,0.1,0.6,0.5c-0.4,0.1-0.7,0.1-1.1,0c-0.1-0.2-0.3-0.4-0.4,0
	c0,0-0.1,0-0.1,0c-1-0.1-2.1-0.1-3.1-0.1c-0.8,0-1.7,0-2.5,0c-0.2,0-0.4,0.1-0.5,0.2c-0.9,0.1-1.7,0.1-2.6,0.1
	c-0.7-0.3-1.4-0.3-2.1,0h-0.8c-0.5-0.4-1.3-0.4-1.8,0h-0.7c0-0.2,0-0.4-0.2-0.4s-0.6,0-0.6,0.4c-0.2,0.1-0.5,0.1-0.7,0
	c0-0.3,0-0.5-0.4-0.4s-0.7,0.3-1,0.3c-1.2-0.1-2.3,0-3.5-0.1c-0.3,0-1-0.2-1-0.1c-0.2,0.5-0.5,0.2-0.8,0.1s-0.3-0.2-0.4,0
	c-0.3,0.3-0.7,0.3-1.1,0.3c-0.5-0.1-1.1,0-1.6,0.3h3.3h1.6c0.1,0,0.3,0.1,0.4,0.1l13.2,0.2l9.7,0.2c0,0.1,0.1,0.1,0.1,0h1.7
	c0.4,0.2,0.8,0.2,1.2,0.2c0.2,0,0.4,0,0.4,0.3c-0.1,0-0.2,0-0.3,0.1l-9.3,0.2l-10.2,0.2l-8.4,0.1H7.7v0.3c1.2-0.1,2.4,0.2,3.6,0
	c0.8-0.1,1.6-0.1,2.4,0c0.2,0.3,0.5,0.4,0.7,0h0.5c0.1,0.3,0.4,0.2,0.7,0.2c1,0,2,0,3,0.1c0.2,0,0.5,0.1,0.5-0.3h0.3
	c0,0.2,0.1,0.3,0.3,0.3c0.7-0.2,1.4,0.2,2.1-0.1c0,0.4-0.3,0.8-0.7,0.8c-0.2,0-0.4,0-0.5,0.3h-1.3c0.1-0.2,0-0.5-0.1-0.7
	c-0.2,0.5-0.5,0.4-0.8,0.4c-0.9,0-1.8,0-2.7,0c-0.2,0-0.6-0.2-0.7-0.1c-0.4,0.5-0.9,0.2-1.4,0.2c-0.7-0.1-1.4,0-2.1,0.4h-1.1
	c0-0.8,0.8-0.1,1-0.6c-0.1-0.2-0.2-0.1-0.4-0.1c-0.5,0-0.9,0-1.4,0s-0.5,0.8-1.1,0.4c-0.3,0.6-0.9,0.2-1.5,0.4
	c0.3,0.1,0.5,0.1,0.7,0.2c0.6,0.1,1.3-0.3,1.8,0.4c0,0,0.2,0,0.3,0c0.3-0.2,0.4-0.3,0.6,0.1c0,0.2,0.2,0.1,0.3,0
	c0.6-0.2,1.1-0.6,1.8-0.3c-0.3,0.3-0.8,0-1.1,0.4h1.9c0.2,0,0.3,0.1,0.3,0.3s-0.1,0.3-0.3,0.3H13c-0.3,0-0.7,0-1,0
	c-0.2,0-0.4,0.2-0.4,0.4c0,0,0,0,0,0c0,0.2,0.3,0.1,0.4,0.1c0.5,0.1,1,0.1,1.5,0c1.2-0.3,2.4-0.4,3.7-0.5c0.6-0.1,1.3,0,1.9,0
	c0.3,0,0.7,0,1-0.1c-0.1-0.2-0.3-0.2-0.4-0.2h-3.2c-0.2,0-0.4,0.1-0.4-0.2s0.3-0.3,0.4-0.3c0.6-0.1,1.2-0.1,1.9-0.1
	c0.2,0,0.5,0.1,0.6-0.3h0.6c0.2,0.4,0.7,0.7,1.2,0.6c1-0.1,1.9-0.1,2.9-0.1c1.3-0.1,2.6,0,3.8,0.4c0.5,0.2,0.8-0.3,1.1-0.4
	c0.7-0.1,1.3,0.1,2-0.1s1.6,0.3,2.5,0c0.5-0.1,0.9,0,1.4,0.2c-0.2,0.3-0.6,0-0.7,0.4h-2.1v0.2c0.6,0.1,1.3,0.1,1.9,0
	c0.1,0,0.2-0.1,0.2-0.2h2.3c-0.4-0.4-0.8-0.1-1.1-0.4c0.3-0.2,0.6-0.1,0.9-0.1s0.6,0.2,0.7-0.3h1.7c0,0.3,0.2,0.4,0.4,0.4
	c1.4-0.1,2.7,0.2,4.1,0.1c2,0,4-0.2,6-0.2c0.8,0.1,1.6,0,2.4-0.2c0.2-0.1,0.5-0.1,0.7,0c-0.1,0.3,0.2,0.4,0.2,0.8h-7.1
	c0.2,0.2,0.3,0.2,0.4,0.2h7.4c0.1,0,0.3,0,0.4-0.1c0.7-0.4,1.5-0.5,2.3-0.5c0.2,0,0.3,0,0.5,0.1c0.5,0.5,1.3,0.6,1.9,0.3
	c-0.4-0.2-0.9,0-1.3-0.2c0.5-0.5,0.5-0.5,1.1-0.3c0.4,0.2,0.6,0.1,0.6-0.4v-0.6l0.1-0.1c0.6,0.2,1.2-0.4,1.8,0
	c0.2,0.1,0.3-0.2,0.1-0.5c-0.2-0.4,0-0.8,0.4-1c0.1,0,0.2-0.1,0.3-0.1c0.6,0.5,1.2,1,1.7,1.6c0.3,0.2,0.4,0.4,0.2,0.7
	s0.6,0.2,0.5,0.6c0,0.1,0.2,0.1,0.3,0c0.6-0.4,1.3-0.2,1.9-0.4c0.4-0.1,0.8-0.1,1.2,0c0.2,0,0.3,0.1,0.3,0.3s-0.1,0.2-0.3,0.2
	s-0.4,0-0.6,0c-0.4,0-0.8-0.1-1.2,0.2c0.8,0.1,1.6,0.1,2.3,0.1c0.1,0,0.3,0,0.3-0.1c-0.3-0.6,0.3-0.4,0.4-0.4c0.4,0,0.9,0,1.3,0
	c0,0.1,0.1,0.3,0.2,0.3c0,0,0,0,0.1,0c-0.1,0.6,0.1,0.9,0.8,0.8c0.1,0,0.3,0,0.4,0c0.3,0,0.4-0.1,0.4-0.4c0-0.3-0.2-0.4-0.4-0.4
	L69.6,128.4z M82.3,31.9L82.3,31.9L82.3,31.9c-0.5,0.6-1.3,1-1.4,1.9c-1.3,1.2-2.6,2.5-3.9,3.7l-8.6,8c-0.2,0-0.3,0-0.5-0.1
	c0-0.1,0-0.2,0-0.3c1.7-6.3,3.4-12.6,5.1-18.9c0.5-2,1.2-4,1.6-6c0.6-1.8,1-3.8,1.6-5.7H32.6c-0.2,0-0.4,0-0.6,0
	c-0.4,0-0.5,0.1-0.5,0.5c0,1.4,0,2.7,0,4.1c0,0.3,0.1,0.5,0.4,0.5c0.6,0,1.3,0.1,1.9,0.1c2,0.3,3.9,1,5.6,2c3.6,2.2,4.7,4.9,3.6,9
	c-1.3,4.9-2.7,9.8-4,14.8c-2.1,7.6-4.1,15.3-6.1,23c-0.5,1.8-1,3.5-1.4,5.3c-0.3,1.2-0.9,2.3-1.7,3.2c-0.4,0.5-0.7,0.9-1.1,1.4l0,0
	c-0.2,0.2-0.5,0.3-0.4,0.6c-0.6,0.6-1.1,1.1-1.7,1.6s-1.4,1.2-2.2,1.8c-2.5,2.2-5.8,3.5-9.2,3.6c-1.2,0.1-2.4-0.1-3.6-0.3
	c-0.9-0.2-1.8-0.5-2.6-1c-0.9-0.5-1.6-1.4-2-2.4C7,82,6.9,81.6,6.5,81.8s-0.3,0.4-0.2,0.7c0.2,1.3,0.9,2.4,2,3.1c0,0.1,0,0.2,0,0.2
	c1.4,1.5,3.3,2.6,5.3,3c1.4,0.1,2.8,0.1,4.2-0.2c0.3,0,0.3,0.3,0.3,0.5s-0.1,0.4,0.2,0.4v2.1c-0.1,0.1-0.1,0.2,0,0.4c0,0,0,0,0,0
	l0.1,0.1v0.1c0.1,0.4,0.5,0.3,0.7,0.3h12.1c0.2,0,0.4,0,0.6,0c0.3-0.1,0.6-0.1,0.6,0.2s0.2,0.6-0.2,0.8c0.1-0.3,0-0.7-0.1-0.9
	c0,0.5-0.5,0.7-0.3,1s0.3-0.2,0.5-0.1c-0.1,0.3,0.1,0.6,0.3,0.7c0.4,0.2,0.1-0.4,0.4-0.3c0.2,0.3-0.1,0.7,0.1,1l0,0
	c-0.2,0-0.4,0.4-0.7,0c-0.1-0.1-0.2-0.1-0.3,0c0,0,0,0.1-0.1,0.1c-0.1,0.2,0,0.3,0.2,0.4c0.2,0,0.3,0.2,0.3,0.3v0.2
	c-0.1,0-0.2,0-0.3,0s-0.2-0.3-0.4-0.1s0,0.3,0,0.5c0.1,0.5,0.5,0.9,0.6,1.6c0.4-0.6,1-0.4,1.6-0.6l0.8-0.4c1.3-0.6,2.1-2,1.9-3.4
	c0-0.4-0.1-0.8-0.1-1.1h18.8c0.2,0,0.4,0.1,0.5-0.2c0.1-0.1,0.1-0.3,0.2-0.4c0.7-2.7,1.3-5.4,1.9-8.1c0.1-0.4,0.3-0.8,0.6-1.1
	c3.6-3.4,7.2-6.8,10.8-10.2c0.4-0.3,0.5-0.3,0.7,0.1c2.3,4.1,4.5,8.2,6.8,12.3c1.4,2.5,2.8,4.9,4.1,7.4c0.1,0.3,0.4,0.2,0.6,0.2
	h37.6c0.2,0,0.5,0.2,0.6-0.2c0-1.3,0-2.6,0-3.9c0-0.3,0-0.5-0.4-0.5c-1.8,0.1-3.5-0.2-5.2-0.9c0.1-0.5,0.6-0.1,0.8-0.5
	c-0.8,0.1-1.4-0.5-2.1,0h-0.1c0.2-0.2,0.2-0.5,0-0.7c0,0,0,0,0,0c-0.5-0.5-1.3-0.2-1.9-0.6c-0.1,0-0.2-0.1-0.3-0.3
	c0-0.1,0.3-0.1,0.1-0.3c-0.2-0.1-0.4-0.3-0.4-0.6c0-0.4-0.1-0.4-0.4-0.6c-0.4-0.3-1.1-0.6-1.1-1.2c0-0.5-0.2-0.4-0.5-0.4
	c0-0.1-0.1-0.1-0.1-0.2l-9.6-17.8l-5.3-9.7c-0.1-0.2-0.3-0.4,0-0.7l4.1-3.8c0.4,0,1,0.2,1.1-0.5c0-0.1,0.2-0.3,0.4-0.3
	c0.3,0,0.5-0.3,0.5-0.6c0-0.3,0.2-0.5,0.3-0.8c0.5-0.5,1-1,1.6-1.5l25.9-24c1.3-1.4,3.1-2.3,5-2.6c0.4,0,0.9,0,1.3,0
	s0.6-0.2,0.6-0.6c0-1.1-0.1-2.2,0-3.3c0-0.7-0.1-0.8-0.8-0.8c-10.2,0-20.3,0-30.5,0c-0.7-0.1-1.4,0.3-1.8,0.8l-1.5,1.3l-4.5,4.1
	c-0.4-0.2-0.6-0.2-0.9,0.3c-0.3,0.5-0.6,0.9-1,1.3c0,0.2-0.1,0.3-0.2,0.5c-0.4,0.4-0.8,0.8-1.3,1.2L83.9,31
	c-0.2-0.3-0.3-0.8-0.9-0.3c0.4,0.1,0.8,0.3,0.3,0.5S82.7,31.8,82.3,31.9L82.3,31.9z M40.1,113.3c-1.6-4.8-3.1-9.4-4.7-14.1
	c-0.1-0.4-0.3-0.4-0.6-0.4c-1.5,0-3,0-4.5,0c-0.3-0.1-0.6,0.2-0.7,0.5c0,0,0,0,0,0c-0.9,2.7-1.8,5.4-2.7,8.1l-1.6,4.7
	c-1.3-2-2.5-3.9-3.7-5.8c-0.2-0.3,0-0.4,0.1-0.6l1.4-2.4l2.5-4.3c-1.8,0-3.4,0-5,0c-0.4,0-0.8,0.2-0.9,0.6c-0.9,1.8-1.8,3.6-2.8,5.5
	c0-0.3,0-0.4,0-0.6c0-1.6,0-3.3,0-4.9c0-0.5-0.1-0.6-0.6-0.6c-1.3,0-2.5,0-3.8,0c-0.4,0-0.5,0.1-0.5,0.5c0,4.5,0,9.1,0,13.6
	c0,0.4,0.1,0.5,0.5,0.5s0.6,0,0.8,0c1.2,0,2.3,0,3.5-0.1c0.1-1.2,0-2.4,0.1-3.5c0-0.7,0-1.4,0-2.1c0.2,0.2,0.4,0.4,0.5,0.6
	c0.8,1.5,1.7,3.1,2.5,4.6c0.1,0.3,0.5,0.5,0.8,0.5c2.7,0,5.4,0,8.2,0c1.3,0,1.3,0,1.6-1.3c0.1-0.4,0.2-0.6,0.6-0.5
	c0.6,0,1.2,0,1.8,0c1.4,0,1.4,0,1.7,1.3c0.1,0.3,0.1,0.5,0.4,0.5C36.7,113.3,38.3,113.3,40.1,113.3z M49.8,105.8h-0.1
	c-1.2-2.2-2.4-4.4-3.6-6.5c-0.1-0.4-0.5-0.6-0.9-0.5c-1.2,0-2.4,0-3.7,0c-0.4,0-0.6,0.1-0.6,0.6c0,4.5,0,9,0,13.4
	c0,0.4,0.1,0.5,0.5,0.5c1.3,0,2.5,0,3.8,0c0.4,0,0.5-0.1,0.5-0.5c0-1.1,0-2.3,0-3.4v-3.3c0.2,0.3,0.3,0.4,0.4,0.6
	c1.1,2,2.2,3.9,3.3,5.9c0.2,0.4,0.6,0.7,1,0.6c1.3,0,2.5,0,3.7,0c0.4,0,0.6-0.1,0.6-0.6c0-4.5,0-9,0-13.4c0-0.5-0.2-0.5-0.6-0.5
	c-1.2,0-2.4,0-3.6,0c-0.6,0-0.7,0.2-0.7,0.7C49.8,101.6,49.8,103.7,49.8,105.8z M131.5,105.9c0-3.2-2.1-6.1-5.1-7.1
	c-2.6-0.9-5.4-0.2-7.3,1.7c-1.7,1.7-2.5,4.2-2.2,6.6c0.4,4,3.9,7,7.9,6.6c0.2,0,0.4,0,0.6-0.1C129.1,112.9,131.5,110,131.5,105.9
	L131.5,105.9z M107.9,113.7c4,0,7.3-3.3,7.4-7.3c0-0.1,0-0.1,0-0.2c0-4.6-3.1-7.8-7.5-7.8c-4.2,0-7.3,3.3-7.3,7.8
	c-0.1,4,3.1,7.4,7.1,7.5C107.7,113.7,107.8,113.7,107.9,113.7L107.9,113.7z M67.5,104.7c-0.7,0-1.3,0-1.9,0s-1.4-0.3-1.7,0.1
	s-0.1,1.2-0.1,1.8c0,1.5,0,1.5,1.5,1.5c0.2,0,0.5-0.1,0.6,0.1s-0.1,0.5-0.3,0.6c-0.2,0.2-0.4,0.3-0.6,0.4c-1.2,0.4-2.5-0.2-2.9-1.4
	c-0.4-1-0.4-2-0.2-3c0.1-0.9,0.8-1.7,1.7-2c0.9-0.3,1.9,0.1,2.4,0.9c0.2,0.3,0.4,0.2,0.7,0.1c1.1-0.4,2.3-0.9,3.4-1.3
	c0.5-0.2,0.5-0.3,0.2-0.7c-2.2-3.4-6.7-4.4-10.1-2.3c-2.4,1.5-3.7,4.2-3.4,7c0,2.7,1.4,5.1,3.8,6.3c2.3,1.3,5.2,1.2,7.4-0.3
	c2.8-1.7,3.6-4.4,3.4-7.5c0-0.4-0.3-0.4-0.5-0.4L67.5,104.7z M96.4,107.5c1.2-0.2,2.2-1.1,2.4-2.3c0.7-3.1-0.6-6.1-4.6-6.3
	c-2.1-0.1-4.3,0-6.4,0c-0.4,0-0.6,0.1-0.6,0.5c0,4.5,0,9,0,13.4c0,0.4,0.1,0.6,0.6,0.5c1.2,0,2.4,0,3.6,0c0.5,0,0.7-0.1,0.7-0.7
	c0-1.3,0-2.5,0-3.8c0.2,0.2,0.4,0.4,0.5,0.7l1.7,3.3c0.1,0.2,0.2,0.4,0.5,0.4c1.7,0,3.4,0,5.3,0L96.4,107.5z M78.9,98.9
	c-0.8,0-1.5,0-2.3,0c-0.3,0-0.6,0.2-0.6,0.5c0,0,0,0,0,0c-1.5,4.5-3,9-4.6,13.6c-0.1,0.4,0,0.5,0.4,0.5c1.3,0,2.5,0,3.7,0
	c1,0,1.1,0,1.2-1c0.1-0.6,0.3-0.9,1-0.8c0.5,0,1,0,1.5,0c1.4,0,1.4,0,1.7,1.3c0.1,0.4,0.3,0.5,0.6,0.5c1.4,0,2.8,0,4.2,0
	c0.4,0,0.6-0.1,0.4-0.5c-1.5-4.5-3-9-4.5-13.5c-0.1-0.4-0.3-0.5-0.6-0.5C80.4,98.8,79.7,98.8,78.9,98.9L78.9,98.9z M124.4,92.3h0.2
	c0-0.5,0-1.1,0-1.6c0-0.1,0.1-0.4-0.2-0.4s-0.3,0.1-0.4,0.4s-0.1,0.8-0.5,1.1c-0.1-0.4-0.3-0.8-0.4-1.2c0-0.1-0.1-0.2-0.3-0.2
	s-0.3,0-0.3,0.1c0,0.6,0,1.3,0,1.9h0.2c0.2-0.4,0-0.9,0.2-1.3c0.2,0.3,0.3,0.6,0.4,1c0.1,0.1,0.1,0.3,0.3,0.4s0.2-0.2,0.3-0.4
	c0.1-0.4,0.2-0.8,0.4-1.1C124.4,91.4,124.4,91.8,124.4,92.3L124.4,92.3z M27,129.1c-2.2-0.2-4.3-0.7-6.5-0.3
	C22.7,129.2,24.9,129.3,27,129.1z M121.5,92.4c0.2-0.2,0.3-0.5,0.2-0.7c0-0.6-0.2-1.2,0.8-1.2c-0.5-0.2-1.1-0.2-1.6-0.2
	c-0.1,0-0.2,0.1-0.2,0.1c0,0,0,0,0,0c0,0,0.1,0.1,0.1,0.1c0.7-0.1,0.5,0.4,0.5,0.7C121.3,91.6,121.4,92,121.5,92.4L121.5,92.4z
	 M122.7,116.2v0.1h4.2v-0.1H122.7z M109.3,116.2v0.1h2v-0.1H109.3z M36,129.2V129c-0.7-0.1-1.4,0-2,0.2H36z M120.5,128.5v0.1h2v-0.1
	L120.5,128.5z M113.8,116.2v0.1h2v-0.1H113.8z M111.4,128.6v-0.1h-2v0.1L111.4,128.6z M44.8,129.2V129h-2v0.1H44.8z M23,128.2
	c0.5,0.2,1.1,0.2,1.6,0C24.1,128.1,23.5,128.1,23,128.2z M69.2,129c-0.5-0.1-1-0.1-1.5,0.1C68.2,129.3,68.8,129.2,69.2,129L69.2,129
	z M78.2,126.8c-0.1-0.2-0.1-0.4-0.4-0.4s-0.4,0-0.4,0.3s0.2,0.3,0.4,0.3S78.1,127,78.2,126.8L78.2,126.8z M71,116.2
	c0-0.2-0.1-0.3-0.2-0.3s-0.3,0.1-0.3,0.2s0.1,0.3,0.3,0.3C70.8,116.5,71,116.4,71,116.2C71,116.2,71,116.2,71,116.2z M53.9,129.1
	c0.3,0.1,0.6,0.2,0.9-0.1C54.5,128.9,54.1,128.9,53.9,129.1z M13.7,126c-0.2-0.1-0.3-0.4-0.6-0.2c0,0-0.1,0.1-0.1,0.2
	C13.3,126.3,13.5,126.1,13.7,126L13.7,126z M129.1,126.1c0.1-0.2,0.3-0.4,0.1-0.7c0,0-0.1,0-0.2,0
	C128.8,125.6,128.8,125.9,129.1,126.1L129.1,126.1z M115.1,128.7c0-0.1,0-0.2-0.2-0.2c-0.1,0-0.2,0.1-0.2,0.3c0,0.1,0.1,0.2,0.2,0.2
	S115.1,128.8,115.1,128.7L115.1,128.7z M138.8,9c-0.1-0.1-0.2-0.1-0.2-0.2c-0.1,0-0.2-0.1-0.2,0c0,0.1,0,0.2,0.1,0.2c0,0,0,0,0.1,0
	C138.5,9.1,138.7,9.1,138.8,9z M56.1,129.1c-0.2-0.2-0.5-0.2-0.7,0C55.6,129.2,55.9,129.2,56.1,129.1z M115.7,127.9
	c-0.1,0-0.1,0.1-0.1,0.2c0,0.1,0.1,0.3,0.1,0.3s0.2-0.1,0.2-0.2C115.9,128,115.8,127.9,115.7,127.9L115.7,127.9z M91.4,129.1
	c0-0.1-0.1-0.1-0.2-0.1s-0.2,0-0.2,0.1s0.1,0.1,0.2,0.1C91.3,129.3,91.4,129.2,91.4,129.1L91.4,129.1z M2.6,9C2.5,9,2.4,9,2.4,9.1
	c0,0.1,0.1,0.2,0.2,0.2c0.1,0,0.2,0,0.2-0.1C2.7,9.1,2.7,9,2.6,9z M113.8,129.1c0,0.1,0.1,0.1,0.2,0.1s0.2,0,0.2-0.1
	s-0.1-0.1-0.2-0.1C113.9,128.9,113.8,129,113.8,129.1z M106,129.1c-0.1-0.1-0.1-0.1-0.2-0.1s-0.1,0-0.2,0.1s0,0.2,0.1,0.1
	S106,129.1,106,129.1L106,129.1z M72.4,126.5c0,0-0.1-0.1-0.1,0s0,0.1-0.1,0.1s0.1,0.1,0.1,0S72.4,126.6,72.4,126.5L72.4,126.5z
	 M53.2,129c0,0-0.1,0.1,0,0.1s0.1,0,0.1,0.1s0.1-0.1,0-0.1S53.2,129,53.2,129L53.2,129z M115.9,129h-0.1c0,0-0.1,0.1,0,0.1
	s0.1,0,0.1,0.1V129z M65,116.6c0,0,0.1-0.1,0-0.1s-0.1,0-0.1-0.1s-0.1,0.1,0,0.1S65,116.7,65,116.6L65,116.6z M29.3,120.6
	C29.3,120.6,29.2,120.5,29.3,120.6c-0.1-0.1-0.2-0.1-0.2-0.1s0.1,0.1,0.1,0.1S29.2,120.7,29.3,120.6L29.3,120.6z M18.8,126L18.8,126
	C18.8,126,18.8,126,18.8,126L18.8,126C18.8,126,18.8,126.1,18.8,126L18.8,126z"/>
<path class="st1" d="M140,1.6c0-0.2,0.1-0.3,0.3-0.1c0.2,0.2,0.2,0.5,0.1,0.8c-0.2,1.6-0.2,3.1-0.1,4.7c0,1,0,1-0.9,1
	c-0.6,0-1.1-0.2-1.6,0.3c-0.1,0.1-0.5,0.1-0.7,0.1H3.2c-0.4,0-0.7,0.1-1-0.3S1.5,7.8,1.1,8S0.8,8.2,0.6,8c0-2.3,0-4.6,0-6.9
	c0-0.5,0.2-0.7,0.7-0.6s1,0,1.6,0c0,0.2,0.1,0.3,0.3,0.3c0,0,0,0,0,0h134c0.6,0,1.1,0,1,0.8h-0.8H3.2H1.6C1.2,1.5,1.2,1.8,1.2,2.1
	c0,1.5,0,3.1,0,4.6c0,0.7,0.2,0.8,0.9,0.8c45.1,0,90.1,0,135.2,0c0.8,0,1.6,0,2.4,0c0.4,0,0.5-0.2,0.5-0.6c0-1.6,0-3.2,0-4.8
	C140.2,2,140.3,1.7,140,1.6L140,1.6z"/>
<path class="st1" d="M1.4,140.5v-0.2h0.8H138h2.2l-0.1,0.3L1.4,140.5z"/>
<path class="st1" d="M0.5,8.8c0.3,0,0.7,0,1,0.1c-0.3,0.1-0.7,0.2-1,0.1V8.8z"/>
<path class="st2" d="M97.4,49.3l-4.1,3.8c-0.3,0.3-0.1,0.5,0,0.7l5.3,9.7l9.7,17.9c0,0.1,0.1,0.1,0.1,0.2c0.5,1.2,1.2,2.2,2.2,3.1
	c0,0.1,0.1,0.2,0.3,0.3c0.6,0.6,1.2,1,1.9,1.4h0.1c0.4,0.3,0.8,0.5,1.3,0.5c1.7,0.6,3.4,0.9,5.2,0.9c0.4,0,0.4,0.2,0.4,0.5
	c0,1.3,0,2.6,0,3.9H81c-1.4-2.5-2.8-4.9-4.1-7.4c-2.3-4.1-4.6-8.2-6.9-12.3c-0.2-0.4-0.4-0.5-0.7-0.1C65.6,75.6,62,79,58.4,82.3
	c-0.3,0.3-0.5,0.7-0.6,1.1c-0.7,2.7-1.3,5.4-1.9,8.1c0,0.2-0.1,0.3-0.2,0.4H36.3c-0.5-1.3-0.7-2.6-0.6-4c1-0.4,1.2-0.7,1.1-1.5
	c0.7-0.6,1.4-1.1,2.1-1.6c1.6-1.1,3.3-2.2,5-3.1c1.7-0.9,3.4-1.7,5.1-2.6c1.2-0.5,2.4-1.1,3.5-1.8c0.4-0.4,0.9-0.6,1.5-0.7
	c1-0.1,2-0.3,3-0.6c1.2-0.3,2.2-1.3,2.6-2.5c0.3-1,0.5-2,0.6-3c0.7,1.3,2.1,1.5,3.2,2.1c0.2,0.2,0.5,0.1,0.7-0.1c0,0,0-0.1,0.1-0.1
	c0.2-0.1,0.4-0.2,0.5-0.4c0.3-0.3,0-0.6-0.2-0.8c-0.4-0.6-0.4-1.4,0.1-2c0.2-0.4,0.7-0.1,1.1-0.1c0.6,0.7,1.6,0.8,2.3,0.2
	c0.1-0.1,0.1-0.1,0.2-0.2c0.8-0.1,1.6-0.3,2.3-0.5c0.3-0.1,0.7-0.3,1,0c0.5,0.5,1.2,0.9,1.4,1.7c0,0.1,0,0.3-0.1,0.4
	c-0.3,0.5-0.1,1.2,0.5,1.5c0.1,0.1,0.2,0.1,0.3,0.1l0.7,0.1c0.5,0.1,1-0.2,1.2-0.7c0.3-0.9,0.1-1.8-0.6-2.4
	c-0.3-0.2-0.6-0.5-0.8-0.8c-0.5-0.6-0.4-0.9,0.3-1.2c0.7-0.3,1.4-0.7,2.1-1.2c1.9-1.5,2.6-3.7,3.5-5.9c0.3-0.9,0.9-1.8,1.8-2.2
	c1.2-0.4,2.6-0.5,3.9-0.1c0.9,0.1,1.8,0.2,2.7,0.1c0.5,0,1-0.2,1.4-0.4c0.7-0.4,0.4-1.1,0.5-1.7c-0.1-0.4,0.3-1-0.5-1.1
	c-0.2-0.1-0.4-0.2-0.7-0.3c-0.8-0.1-1.5-0.5-2-1.1c-0.5-0.7-1.3-1.2-2.2-1.2c-1.9,0-2.1-0.3-1.7-2.2c0-0.1,0.1-0.2,0.1-0.3
	c0.1-0.4,0-0.8-0.1-1.2c-0.3-1.3-1.2-1.8-2.2-2.5v0.1v0.1c-0.6-0.1-0.7,0.1-0.7,0.7s0,1.1,0,1.6c0,0.2-0.1,0.3-0.3,0.2
	c-0.9-0.4-1.9-0.4-2.8-0.9c-0.3-0.2-0.6-0.5-0.9-0.7s-0.4-0.2-0.5,0.2c-0.1,1.5,0.1,3.6,2.1,4.1v2.5c-0.1,0.2-0.2,0.3-0.4,0.3
	l-0.1,0.1c0,0,0,0.1-0.1,0.1c-0.3,0.1-0.6,0.2-0.8,0.3c-1.1,0.6-2.4,0.8-3.6,0.6c-1.5-0.3-3.1-0.8-4.6-1.3c-1.8-0.6-3.5-1.4-5.3-2.1
	c-2.4-0.9-4.7-1.7-7.3-1c-1.4,0.3-2.7,0.7-4,1.2c-0.6,0.3-1.2,0.5-1.8,0.8c-0.4,0-0.6-0.3-0.8-0.5c-0.3,0.3,0.2,0.5,0.1,0.7
	c-0.8-0.2-1.1,0.4-1.3,0.9c0,0.1-0.1,0.1-0.2,0.1c-3.6,2.1-6.7,5-8.9,8.5c-1.2,1.9-2.3,3.8-3.6,5.6s-2.4,3.7-3.7,5.5
	c-0.1,0.1-0.1,0.4-0.3,0.3s-0.1-0.2-0.1-0.4c0.3-1.8,0.9-3.5,1.4-5.3c2-7.7,4.1-15.5,6.2-23.2c1.3-4.9,2.7-9.8,4-14.8
	c1.1-4,0-6.8-3.6-9c-1.7-1-3.6-1.7-5.6-2c0-0.3-0.2-0.2-0.4-0.2c-0.4,0-0.8,0-1.2,0c-0.4,0-0.6-0.2-0.6-0.6c0-1,0-2,0-3
	c0-0.6,0.2-0.8,0.8-0.8c14.1,0,28.3,0,42.4,0c0.8,0,0.9,0.1,0.6,0.8c-0.2,0.6-0.6,1.1-0.6,1.7c0,0.1-0.1,0.1-0.1,0.2
	c-0.5,0.7-0.6,1.7-0.1,2.4c-0.4,2-1,4-1.6,6c-1.7,6.3-3.4,12.6-5.1,18.9c0,0.1,0,0.2,0,0.3c-0.2,0.2-0.1,0.5-0.3,0.8
	c0.3-0.3,0.6-0.4,0.7-0.7l8.6-8c1.3-1.2,2.6-2.5,3.9-3.7c1-0.9,2-1.8,2.9-2.7l7.8-7.2c0.4-0.4,0.8-0.8,1.3-1.2
	c0.1-0.1,0.3-0.3,0.2-0.5c0.8-0.4,1.4-0.9,1.9-1.6l4.4-4.1l1.5-1.3c0.1,0,0.3,0,0.4,0.1c0.2,0.7,0.7,0.4,1.1,0.4
	c0-0.3-0.5-0.1-0.4-0.4c0.1-0.2,0.3-0.4,0.6-0.3c0.1,0,0.3,0,0.4,0h30.1c0.4,0,0.9,0.7,0.7,1c-0.3,0.6-0.4,1.3-0.2,2
	c0.2,0.8-0.2,0.6-0.6,0.6c-0.6-0.1-1.2,0-1.8,0.1c0.3,0.3,0.8-0.1,0.9,0.4c-1.9,0.3-3.7,1.2-5,2.6l-25.9,24c-0.5,0.5-1,1-1.6,1.5
	C99,47.8,98.2,48.5,97.4,49.3z M57.2,50.3c0.6,0.2,1.2,0.2,1.8,0C58.4,50.1,57.8,50.1,57.2,50.3L57.2,50.3z"/>
<path class="st3" d="M77.8,54.4c0.2,0,0.3-0.2,0.4-0.3c1.3-0.9,1.4-1.7,0.1-2.6c-1.4-0.9-2.1-2.4-1.9-4c0.4,0.5,0.9,0.8,1.5,1
	c1.5,0.3,2.7,1.3,3.2,2.8c0.3,0.6,0.8,1.1,1.5,1.2c0.5,0.1,1,0.2,1.4,0.1c0.8-0.1,1.6,0.3,2.1,1c0.9,1.3,2.2,1.4,3.6,1.3
	c0.8,0,0.4,0.7,0.5,1.1c-0.1,0.2,0,0.5-0.2,0.6c-0.8,0.7-1.8,1.2-2.8,1.2c-1.4,0-2.7-0.2-4.1-0.3c-0.9-0.1-1.7,0.3-2.3,0.9
	c-1.1,1.2-2.1,2.5-2.8,3.9c-0.8,1.7-2,3.2-3.5,4.3c-0.3,0.2-0.6,0.6-0.8,0.4s-0.1-0.6,0-1c0.1-0.1,0.2-0.2,0.2-0.3s-0.1,0-0.1,0
	c-0.1,0-0.2,0.2-0.2,0.3c-0.3,0.3-0.4,0.6-0.4,1c0,1.1,0.5,2.1,1.3,2.8c0.9,1,0.6,1.8-0.3,2.6c-0.1,0.1-0.2,0.2-0.3,0.1
	c-0.1-0.1-0.2-0.2-0.1-0.3c0.4-1.1-0.3-1.8-0.9-2.5c-0.6-0.7-1.2-1.4-1.7-2.1c-1-1.4-1-3.2,0.1-4.6c0.1-0.1,0.2-0.3,0.2-0.5
	c-0.5,0.5-0.9,1.1-1.3,1.7c-0.6,0.9-0.6,2,0,2.9c0.1,0.2,0.3,0.5,0.4,0.7s0.1,0.4-0.2,0.4c-1.7,0.5-3.5,0.7-5.3,0.6
	c-0.4-0.1-0.6-0.2-0.6-0.7c0-0.6-0.1-1.3-0.8-1.4c-0.9-0.2-1.3-0.5-1.3-1.6s-1-1.5-1.7-2c-0.4-0.3-0.7-0.2-0.8,0.2
	c-0.5,1.3-0.3,2.8,0.6,3.9c-0.7-1-0.4-2.2-0.4-3.3c0-0.2-0.1-0.4,0.1-0.5s0.3,0.1,0.5,0.2c0.7,0.5,1.1,1.3,1.3,2.1
	c0,0.4,0.3,0.7,0.7,0.8c0.6,0.2,1,0.7,1,1.3c0,0.5,0,0.9-0.1,1.4c-0.2,1,0,2.1,0.8,2.8c-0.1,0.2-0.3,0.3-0.5,0.4
	c-0.6-0.1-1.2-0.4-1.5-0.9c-0.1-0.1-0.2-0.1-0.2,0c0,0,0,0,0,0c-0.6,0.4-0.9-0.1-1.3-0.4c-0.3-0.3-0.6-0.7-0.8-1.2
	c-0.1-0.1-0.2-0.2-0.4-0.3c-0.2,0-0.2,0.2-0.2,0.4c-0.1,0.5-0.2,1-0.3,1.4c-0.3,2-1.7,3.7-3.7,4.4c-0.4,0.1-0.8,0.1-1.2,0
	c3.8-2.8,5.9-8.3,3.9-10.4c0,0.1,0,0.2,0,0.3c0.2,2.5-0.5,5-2.1,7c-1.6,2.2-3.7,3.9-6.2,5c-3.4,1.6-6.7,3.4-9.9,5.4
	c-1.7,0.9-3.3,2.1-4.7,3.3c-0.5,0.4-0.7,1.1-0.6,1.8c0.1,1,0.3,1.9,0.4,2.9c0.3,2.2,0.2,4.3-2,5.6c0,0,0,0,0,0.1
	c-1.3-0.1-1.3-0.1-1.1-1.3v-0.2c0.3-0.2,0.5-0.5,0.6-0.9l0,0c0.2,0,0.2-0.2,0.2-0.3c0.6-0.6,0.8-1.4,0.5-2.1
	c-0.3-1.2-0.7-2.3-1.4-3.3c-0.3-0.6-0.6-1.3-0.7-1.9c-0.3-0.8,0.1-1.7,0.9-2.1c0.8-0.4,1.5-0.9,2.3-1.3c2.6-1.2,5-2.7,7.3-4.4
	c1.7-1.2,2.6-3.3,2.4-5.3c-0.2-2-1-3.8-1-5.9c-0.2,0.1-0.2,0.3-0.2,0.5c0.1,0.6-0.2,1.2-0.8,1.6c-1.5,1.2-2.9,2.4-4.3,3.7
	c-2.4,2.3-4.7,4.7-7.3,6.8c-3.8,3.1-7.8,5.7-12.7,6.6c-3.1,0.8-6.5,0.3-9.2-1.5c-0.3-0.2-0.5-0.5-0.8-0.5c-1.1-0.7-1.8-1.8-2-3.1
	c0-0.3,0-0.6,0.2-0.7S6.9,82,7,82.2c0.4,1,1.1,1.9,2,2.4c0.8,0.5,1.7,0.8,2.6,1c1.2,0.3,2.4,0.4,3.6,0.3c3.4-0.1,6.7-1.4,9.2-3.6
	c0.7-0.6,1.5-1.1,2.2-1.8s1.2-1.1,1.7-1.6c0.2-0.2,0.6-0.2,0.4-0.6l0,0c0.3,0.1,0.4-0.2,0.5-0.3c0.7-0.9,1.4-1.7,2.1-2.6
	c3.2-4.4,6.1-8.9,9.6-13.1c3.1-3.9,7-7.2,11.4-9.6c3.3-2,7.4-2.2,10.9-0.5c2.4,1,4.7,2,7.1,3c1.7,0.7,3.6,0.8,5.3,0.3
	c0.7-0.1,1.4-0.5,1.9-1c0,0,0.1-0.1,0.1-0.1C77.7,54.5,77.7,54.4,77.8,54.4z M84.7,54.9c0-0.5,0.3-0.9-0.1-1.1s-0.9,0-1.3,0.1
	C83.8,54.1,84.3,54.4,84.7,54.9L84.7,54.9z M63.1,69.7c0-0.3,0.5-0.7,0-0.9c-0.2-0.1-0.5,0-0.6,0.1C62.4,69.3,63,69.3,63.1,69.7
	L63.1,69.7z"/>
<path class="st2" d="M1.4,134.2c0.2,0,0.5,0,0.7,0h136.8h1.2c0,1.6,0,3.1,0,4.6c0,1.3,0.2,1.1-1.1,1.1H3c-0.3,0-0.7,0-1,0
	s-0.6-0.1-0.6-0.6C1.4,137.7,1.4,136,1.4,134.2z"/>
<path class="st2" d="M1.6,1.6h1.5h134.2h0.8h1.9l0,0c0,1.7,0,3.3,0,5c0,0.6-0.2,0.8-0.8,0.8H3c-0.3,0-0.6,0-0.8,0
	C1.6,7.5,1.3,7.3,1.4,6.7C1.5,5,1.1,3.3,1.6,1.6z"/>
<path class="st4" d="M40.1,113.3c-1.7,0-3.4,0-5,0c-0.4,0-0.4-0.3-0.4-0.5c-0.3-1.3-0.3-1.3-1.7-1.3c-0.6,0-1.2,0-1.8,0
	c-0.4,0-0.5,0.1-0.6,0.5c-0.3,1.3-0.3,1.3-1.6,1.3c-2.7,0-5.4,0-8.2,0c-0.4,0-0.7-0.2-0.8-0.5c-0.8-1.6-1.7-3.1-2.5-4.6
	c-0.1-0.2-0.3-0.4-0.5-0.6c0,0.7,0,1.4,0,2.1c0,1.2,0.1,2.4-0.1,3.5c-1.2,0.1-2.3,0.1-3.5,0.1c-0.3,0-0.6,0-0.8,0s-0.5-0.1-0.5-0.5
	c0-4.5,0-9.1,0-13.6c0-0.4,0.1-0.5,0.5-0.5c1.3,0,2.5,0,3.8,0c0.5,0,0.6,0.1,0.6,0.6c0,1.6,0,3.3,0,4.9c0,0.1,0,0.3,0,0.6
	c1-2,1.9-3.7,2.8-5.5c0.1-0.4,0.5-0.6,0.9-0.6c1.6,0,3.3,0,5,0l-2.5,4.3l-1.4,2.4c-0.1,0.2-0.2,0.4-0.1,0.6c1.2,1.9,2.4,3.8,3.7,5.8
	l1.6-4.7c0.9-2.7,1.8-5.4,2.7-8.1c0.1-0.3,0.4-0.5,0.7-0.5c0,0,0,0,0,0c1.5,0,3,0,4.5,0c0.3,0,0.5,0,0.6,0.4
	C37,103.9,38.5,108.5,40.1,113.3z M32.4,103.8c-0.3,1.1-0.4,1.9-0.7,2.8c-0.4,1.6-0.4,1.6,1.3,1.5c0.3,0,0.4,0,0.3-0.4
	C33.1,106.5,32.8,105.2,32.4,103.8L32.4,103.8z"/>
<path class="st5" d="M33.8,122.8c0.4,0.1,0.7,0.1,1.1,0l8.7-0.1c0.2,0,0.5,0.1,0.5-0.3s-0.3-0.1-0.5-0.1l-4.2-0.1L28.7,122h-2.2h-1
	c-0.2,0-0.4-0.1-0.6-0.1l-6-0.1c-0.2,0-0.4-0.1-0.6,0.1l-0.2-0.1c-1.1-0.1-2.2-0.2-3.2-0.1c-0.2,0.1-0.6-0.3-0.8,0.2l0,0
	c-0.1-0.4-0.4-0.2-0.6-0.2c-0.3,0-0.6,0-0.9,0c0.1-0.3,0.4-0.2,0.6-0.2c3.7-0.1,7.5-0.1,11.2-0.2c0.9,0,1.8,0,2.7-0.1h1.1
	c0.4,0.1,0.7,0.1,1.1,0h3c0.8,0.1,1.6,0,2.4-0.1c0.3,0.1,0.6,0.1,0.8,0h1.2L44,121c0.2,0,0.4,0.1,0.4-0.2s-0.3-0.2-0.4-0.2l-8.3-0.1
	h-1.7h-0.3c-0.5-0.1-1.1-0.1-1.6,0c-2-0.2-3.9-0.1-5.9-0.1c-0.2-0.1-0.5-0.1-0.7,0c-0.1-0.1-0.3-0.1-0.4,0h-0.3
	c-1.2-0.1-2.3-0.1-3.5-0.1h-3.2c-0.7-0.1-1.5-0.1-2.2,0l0,0c-0.2-0.1-0.5-0.1-0.7-0.1l-3-0.1l0,0l0,0c2.6-0.2,5.2-0.2,7.7-0.2
	l16.9-0.4l7.3-0.1c0.2,0,0.5,0.1,0.5-0.2s-0.3-0.2-0.5-0.2l-9.6-0.6l-22.1-0.4c-0.1,0-0.2,0-0.5-0.3c2.1,0,4.1,0,6.2,0
	c5.8-0.1,11.6-0.2,17.3-0.3c6.4-0.2,12.8-0.2,19.3-0.2h0.5c0.4,0,0.5,0.1,0.4,0.5c-0.2,0.5-0.3,0.9-0.3,1.4
	c-0.1,0.5-0.3,0.6-0.7,0.6c-2,0-4.1,0-6.1,0c-0.8,0-1,0.2-1.1,1c-0.1,0.5,0,0.6,0.4,0.5c1.6,0,3.2,0,4.8,0c1.9,0,1.9,0,1.4,1.9
	c0,0.3-0.3,0.5-0.6,0.5c0,0,0,0,0,0c-1.9,0-3.9,0-5.8,0c-0.6,0-1,0.1-1.1,0.8c-0.1,0.8-0.2,0.8,0.7,0.8h5.9c0.8,0,0.8,0,0.6,0.9
	c0,0.5-0.2,1-0.4,1.5c-0.3,0.4-1,0.1-1.5,0.2c-0.2-0.1-0.5-0.1-0.7,0l-12.9-0.1h-1.7c-1.3,0-2.6-0.1-3.9-0.1l-7.3-0.1l-5.9-0.1H19
	c-0.6,0-1.1-0.1-1.7-0.1c-1.8-0.1-3.6,0-5.4-0.1l0,0l-0.1-0.1c0.4,0,0.8,0,1.2-0.1c2.1,0,4.2,0,6.3-0.2h1.3l3.5-0.1h0.3
	c1.7,0,3.3,0,5-0.1c0.7,0.1,1.5,0,2.2-0.1H33h1.9l7.9-0.1c0.2,0,0.4,0,0.4-0.3s-0.3-0.1-0.4-0.1c-1,0-2.1-0.1-3.1-0.1l-6.2-0.1h-0.4
	c-1.4-0.1-2.8-0.2-4.2-0.1l-3.7-0.1c-2-0.1-3.9-0.1-5.9-0.1h-0.3c-1.4-0.1-2.8-0.2-4.2-0.1h-1.3c-0.8-0.1-1.6-0.1-2.4,0l-0.1-0.2
	l8.4-0.1l10.2-0.2l9.3-0.2c0.1,0,0.2,0,0.3-0.1h3.9c0.2,0,0.4,0,0.4-0.3s-0.3-0.1-0.4-0.1l-5.5-0.1H36h-0.1l-9.7-0.2l-13.1-0.6
	c-0.1,0-0.3,0-0.4-0.1l0,0c0,0,0-0.1,0-0.1h0.6l4.3-0.1c0.2,0.1,0.5,0.1,0.7,0c0.3,0.1,0.6,0.1,0.8,0h0.7c0.6,0.1,1.2,0.1,1.8,0h0.8
	c0.7,0.1,1.4,0.1,2.1,0c0.9,0,1.7,0,2.6-0.1c1,0,2,0,3,0c1.1,0,2.1,0,3.2-0.1c0,0,0.1,0,0.1,0L33.8,122.8z"/>
<path class="st4" d="M49.8,105.8c0-2.1,0-4.2,0-6.4c0-0.5,0.1-0.7,0.7-0.7c1.2,0.1,2.4,0,3.6,0c0.4,0,0.6,0.1,0.6,0.5
	c0,4.5,0,9,0,13.4c0,0.4-0.1,0.6-0.6,0.6c-1.3,0-2.5,0-3.7,0c-0.4,0-0.8-0.2-1-0.6c-1.1-2-2.2-4-3.3-5.9c-0.1-0.2-0.2-0.3-0.4-0.6
	v3.3c0,1.1,0,2.3,0,3.4c0,0.4-0.1,0.5-0.5,0.5c-1.3,0-2.5,0-3.8,0c-0.4,0-0.5-0.1-0.5-0.5c0-4.5,0-9,0-13.4c0-0.5,0.2-0.6,0.6-0.6
	c1.2,0,2.4,0,3.7,0c0.4,0,0.8,0.2,0.9,0.5c1.2,2.2,2.4,4.4,3.6,6.5L49.8,105.8z M45.6,106.1L45.6,106.1L45.6,106.1L45.6,106.1z"/>
<path class="st4" d="M131.5,105.9c0,4.1-2.4,7-6.1,7.7c-4,0.7-7.7-1.9-8.4-5.9c0-0.2-0.1-0.4-0.1-0.6c-0.4-2.4,0.5-4.9,2.2-6.6
	c1.9-1.9,4.7-2.6,7.3-1.7C129.4,99.8,131.5,102.7,131.5,105.9L131.5,105.9z M126.5,106.1c0-1.6-0.9-2.7-2.2-2.8s-2.3,1-2.4,2.6
	s0.8,2.8,2.1,2.9C125.4,108.9,126.5,107.8,126.5,106.1L126.5,106.1z"/>
<path class="st4" d="M107.9,113.7c-4,0-7.3-3.2-7.4-7.2c0-0.1,0-0.2,0-0.2c0-4.5,3.1-7.8,7.3-7.8c4.4,0,7.5,3.2,7.5,7.8
	c0.1,4-3.1,7.4-7.2,7.5C108,113.7,107.9,113.7,107.9,113.7z M105.5,105.9c0,0.5,0.1,0.9,0.2,1.3c0.3,0.9,1.1,1.5,2,1.6
	c1,0.1,1.9-0.5,2.2-1.5c0.4-0.9,0.3-1.9-0.1-2.8c-0.5-1.1-1.8-1.6-2.9-1.1c0,0-0.1,0-0.1,0.1C106,104.1,105.5,105,105.5,105.9
	L105.5,105.9z"/>
<path class="st4" d="M67.5,104.7h3.3c0.3,0,0.5-0.1,0.5,0.4c0.2,3.1-0.6,5.8-3.4,7.5c-2.2,1.5-5.1,1.6-7.4,0.3
	c-2.4-1.2-3.9-3.7-3.8-6.3c-0.4-4,2.5-7.7,6.5-8.1c2.8-0.3,5.5,1,7,3.4c0.3,0.4,0.2,0.6-0.2,0.7c-1.2,0.4-2.3,0.9-3.4,1.3
	c-0.2,0.1-0.4,0.2-0.7-0.1c-0.5-0.8-1.5-1.1-2.4-0.9c-0.9,0.3-1.6,1.1-1.7,2c-0.3,1-0.2,2,0.2,3c0.4,1.2,1.7,1.8,2.9,1.4
	c0.2-0.1,0.4-0.2,0.6-0.4c0.2-0.2,0.4-0.4,0.3-0.6s-0.4-0.1-0.6-0.1c-1.5,0-1.5,0-1.5-1.5c0-0.6-0.3-1.4,0.1-1.8s1.2-0.1,1.7-0.1
	S66.8,104.7,67.5,104.7z"/>
<path class="st2" d="M18.2,91.5v-2.2c-0.1-0.6,0.2-0.8,0.8-0.8c0.6,0,1.2,0,1.8-0.1c2.4-0.2,4.6-0.8,6.3-2.8c0.6-0.7,1-1.5,1.5-2.3
	c0.2-0.3,0.5-0.6,0.8-0.9c0.8-0.6,1.6-1.3,2.4-2c1.9-1.6,3.7-3.4,5.6-5c0.8-0.7,1.7-1.4,2.4-2.2c0.7-0.6,1.4-1.2,2-1.9
	c0.2-0.3,0.6-0.4,0.9-0.3c0.2,0.1,0.3,0.2,0.3,0.4c0.3,0.8,0.5,1.6,0.7,2.4c0.2,0.7,0.2,1.4,0,2.1c-0.7,1.8-2,3.4-3.7,4.3
	c-2.7,1.6-5.5,2.9-8.2,4.4c-0.9,0.4-1.4,1.3-1.3,2.2c0.1,1.1,0.6,2,1.4,2.8c0.6,0.5,0.9,1.2,1,1.9c-0.1,0.5-0.5,0.3-0.7,0.3h-14
	l-0.1-0.1L18.2,91.5z"/>
<path class="st4" d="M96.4,107.5l3.6,5.9c-1.8,0-3.6,0-5.3,0c-0.3,0-0.4-0.2-0.5-0.4l-1.7-3.3c-0.1-0.3-0.3-0.5-0.5-0.7
	c0,1.3,0,2.5,0,3.8c0,0.6-0.2,0.7-0.7,0.7c-1.2,0-2.4,0-3.6,0c-0.4,0-0.6-0.1-0.6-0.5c0-4.5,0-9,0-13.4c0-0.4,0.1-0.5,0.6-0.5
	c2.1,0,4.3,0,6.4,0c4.1,0.2,5.4,3.2,4.6,6.3C98.6,106.4,97.6,107.3,96.4,107.5z M92.1,104c0,0.4,0,0.7,0,1.1c0,0.2,0,0.3,0.3,0.3
	c0.6,0,1.3,0.1,1.7-0.5c0.3-0.5,0.4-1.1,0.1-1.6c-0.3-0.7-0.9-0.7-1.5-0.8s-0.7,0.1-0.6,0.7C92.1,103.5,92.1,103.7,92.1,104
	L92.1,104z"/>
<path class="st4" d="M78.9,98.8c0.8,0,1.5,0,2.3,0c0.4,0,0.5,0.1,0.6,0.5c1.5,4.5,3,9,4.5,13.5c0.2,0.5,0,0.6-0.4,0.5
	c-1.4,0-2.8,0-4.2,0c-0.4,0-0.6-0.1-0.6-0.5c-0.3-1.3-0.4-1.3-1.7-1.3c-0.5,0-1,0-1.5,0c-0.7-0.1-0.9,0.2-1,0.8c-0.2,1-0.2,1-1.2,1
	c-1.3,0-2.5,0-3.7,0c-0.4,0-0.5-0.1-0.4-0.5c1.5-4.5,3-9,4.6-13.6c0-0.3,0.3-0.5,0.6-0.5c0,0,0,0,0,0C77.4,98.8,78.1,98.8,78.9,98.8
	z M78.8,103.5c-0.1,1.1-0.3,2.1-0.6,3.1c-0.4,1.6-0.4,1.6,1.3,1.5c0.3,0,0.4-0.1,0.3-0.4C79.4,106.3,79.1,104.9,78.8,103.5
	L78.8,103.5z"/>
<path class="st5" d="M89.4,127.7c-0.1-0.5,0.1-0.9,0.2-1.4c0.2-0.9,0-1.2-0.9-1.2c-1.4,0-2.8,0-4.2,0c-0.4,0-0.5,0.1-0.6,0.5
	c-0.1,0.6-0.3,1.2-0.4,1.8c0,0.2,0,0.4-0.3,0.4c-0.9,0.1-1.8,0-2.7-0.1c0.8-3.3,1.7-6.6,2.5-9.9c0.1-0.4,0.2-0.3,0.4-0.4h0.3h8.6
	h0.3l0.4,0.1c0.9,0.2,1.2,0.5,1.2,1.4c-0.1,0.8-0.2,1.7-0.4,2.5c0,0-0.1,0.1-0.1,0.1l-0.6,1.4l-0.2,0.2l-0.1,0.1l-0.9,0.4
	c0.2,0.2,0.4,0.3,0.6,0.4c0,0,0,0.1,0.1,0.1l0.1,0.2c0,1-0.2,2-0.5,2.9c-0.1,0.4-0.3,0.5-0.6,0.4C90.9,127.6,90.2,127.7,89.4,127.7z
	 M87.4,122.4h1.7c1.3,0,1.6-0.3,1.9-1.6c0.1-0.6-0.1-0.9-0.7-0.9c-1,0-2,0-3,0c-2.1,0-2.1,0-2.5,2c-0.1,0.4,0.1,0.5,0.4,0.4
	C86,122.4,86.7,122.4,87.4,122.4L87.4,122.4z"/>
<path class="st5" d="M116.7,117.5c0,0,0.1,0,0.1,0c0.7,0.8,0.8,1.8,0.4,2.8c-0.1,0.2-0.3,0.3-0.4,0.2h-2.1c-0.2,0-0.3,0-0.3-0.3
	c0.1-0.8-0.4-0.8-0.9-0.8c-0.9,0-1.9,0-2.8,0c-0.4,0-0.8,0-1.2,0.1c-0.4,0.1-0.7,0.5-0.6,0.9c0,0.4,0.4,0.5,0.7,0.5
	c0.5,0,1,0.1,1.5,0.1c1.5,0,2.9,0.1,4.4,0.3c0.7,0.1,1.3,0.7,1.2,1.4c0,1.2-0.3,2.3-0.8,3.3c-0.4,0.8-1.1,1.3-1.9,1.4
	c-0.8,0.2-1.6,0-2.4,0.2c-1.3,0-2.6-0.1-3.9-0.1c-0.6,0-1.3-0.1-1.9-0.2c-0.5-0.3-1-0.5-1-1.2c0-0.6,0.1-1.2,0.2-1.7
	c0.1-0.3,0.2-0.4,0.5-0.4c0.8,0,1.6,0,2.4,0c-0.1,1,0,1.1,1,1.1c1.4,0,2.7,0,4.1,0c0.3,0,0.5-0.1,0.7-0.4c0.5-0.8,0.3-1.3-0.7-1.3
	c-1.9,0-3.7-0.1-5.6-0.3c-0.7,0-1.4-0.6-1.4-1.3c0-0.1,0-0.2,0-0.3c0-1.1,0.3-2.2,0.8-3.1c0.4-0.8,1.2-1.4,2.2-1.4
	c2-0.2,4-0.2,5.9-0.1C115.5,117.2,116.1,117.3,116.7,117.5z"/>
<path class="st5" d="M129,123.1c-0.1,0.9-0.3,1.7-0.6,2.6c-0.4,1.2-1.5,1.9-2.8,2l-2.9,0.1h-2.3c-0.4-0.1-0.8-0.1-1.2-0.1
	c-0.8,0-1.6-0.3-2.1-0.9c0,0,0-0.1,0-0.1c-0.1-0.7-0.1-1.4,0.1-2.1c0.1-0.3,0.2-0.4,0.5-0.4c0.7,0,1.3,0,2,0c0.2,0,0.4,0,0.4,0.3
	c-0.1,0.6,0.2,0.8,0.8,0.8c1.4,0,2.7,0,4.1,0c0.8,0,1.2-0.4,1.1-1.1s-0.7-0.6-1.1-0.6c-1.8-0.1-3.6-0.1-5.3-0.3
	c-0.7-0.1-1.3-0.3-1.4-1.1c-0.3-2.1,0.8-4.1,2.7-5h0.3h0.6l0.8-0.1c1.3,0,2.5,0,3.7,0c0.8,0,1.7,0.1,2.5,0.3
	c0.5,0.1,0.9,0.6,0.9,1.1c0,0.6,0,1.2-0.1,1.7c-0.1,0.3-0.2,0.3-0.4,0.3h-2c-0.2,0-0.4,0-0.4-0.3c0.1-0.7-0.4-0.8-0.9-0.8
	c-1.1,0-2.2,0-3.3,0c-0.3,0-0.5,0.1-0.8,0.1c-0.4,0.1-0.6,0.5-0.6,0.9c0,0.4,0.4,0.4,0.7,0.4c0.7,0.1,1.5,0.1,2.2,0.1h0.8
	c0.7,0,1.3,0.1,2,0.1c0.9,0.1,1.8,0.1,2.2,1.2c0,0,0,0.1,0,0.1c0,0,0,0,0,0L129,123.1z"/>
<path class="st5" d="M93.9,127.7h-0.3c-0.4-0.1-0.3-0.3-0.3-0.6c0.2-0.8,0.4-1.6,0.5-2.3l0,0c0.4-1.2,0.6-2.4,0.9-3.6
	s0.6-2.2,0.8-3.4c0.1-0.5,0.3-0.6,0.8-0.6c2.7,0,5.3,0,8,0c0.6,0,1.4-0.2,1.7,0.1s-0.2,1.1-0.3,1.7s-0.4,0.7-0.9,0.7
	c-2.1,0-4.1,0-6.2,0c-0.7,0-1,0.3-0.9,1.2c0,0.6,0.5,0.3,0.8,0.3c1.9,0,3.8,0,5.8,0c0.4,0,0.6,0.1,0.4,0.5c-0.1,0.4-0.2,0.8-0.3,1.3
	c-0.1,0.4-0.3,0.5-0.7,0.5c-1.9,0-3.9,0-5.8,0c-0.9,0-1,0.1-1.1,1.1c-0.1,0.5,0.1,0.6,0.6,0.6c1.8,0,3.5,0,5.3,0
	c0.6,0,1.3-0.3,1.6,0.1s-0.2,1-0.3,1.6s-0.4,0.8-1,0.8C99.9,127.6,96.9,127.7,93.9,127.7z"/>
<path class="st5" d="M78.9,117.3h0.6c0.1,0.1,0.4,0.1,0.5,0.1c0.9,0,1.6,0.8,1.6,1.7c0,0.1,0,0.2,0,0.3c-0.1,0.8-0.3,1.6-0.5,2.4
	c-0.4,1.7-1.3,3-3.2,3.3h-4.9c-1.2,0-1.2,0-1.3,1.2v0.1c-0.4,1.1-0.4,1.1-1.7,1.2h-0.1h-0.3c-0.1,0-0.3,0-0.4,0
	c-0.6,0.1-0.8,0-0.6-0.7c0.8-2.9,1.5-5.8,2.2-8.8c0.2-0.7,0.5-0.9,1.2-0.9c2.3,0,4.5,0,6.8,0h0.1l0,0L78.9,117.3z M75.6,119.9h-0.6
	c-0.7,0-1.5-0.3-1.9,0.1s-0.4,1.2-0.6,1.9s0,0.6,0.5,0.6c1.1,0,2.2,0,3.3,0c1.5,0,1.7-0.2,2-1.7c0.1-0.6-0.1-0.9-0.7-0.9
	S76.3,119.9,75.6,119.9z"/>
<path class="st5" d="M56.6,117.3c1.1,0,2.1,0,3.2,0c0.3,0,0.7,0.1,0.8,0.5c0.6,1.1,1.2,2.1,1.9,3.4l2.8-3c0.5-0.3,0.9-1,1.7-0.8h3.3
	l-0.5,0.5c-1.6,1.4-3.2,2.9-4.9,4.3c-0.3,0.3-0.3,0.4-0.1,0.8c0.7,1,1.4,2,2,3c0.4,0.5,0.8,1.1,1.1,1.8c-1.2,0-2.3,0-3.3,0
	c-0.4,0.1-0.8-0.2-0.9-0.5c-0.5-0.9-1.1-1.9-1.6-2.8c-0.2-0.3-0.3-0.4-0.6-0.1c-1,0.9-1.9,1.9-2.9,2.8l-0.1,0.1
	c-0.3,0.2-0.4,0.5-0.8,0.5c-1.3,0-2.5,0-3.8,0c0-0.1,0-0.2,0.1-0.3c1.7-1.5,3.5-3,5.2-4.4c0.4-0.4,0.6-0.6,0.2-1.1
	c-0.9-1.3-1.7-2.6-2.5-3.9C56.6,117.7,56.2,117.6,56.6,117.3z"/>
<path class="st1" d="M93.9,127.7c3,0,6-0.1,9,0c0.7,0,1-0.2,1-0.8s0.5-1.2,0.3-1.6s-1-0.1-1.6-0.1c-1.8,0-3.5,0-5.3,0
	c-0.4,0-0.6-0.1-0.6-0.6c0.1-0.9,0.2-1,1.1-1.1c1.9,0,3.9,0,5.8,0c0.4,0,0.6-0.1,0.7-0.5c0.1-0.4,0.2-0.9,0.3-1.3
	c0.2-0.5,0-0.5-0.4-0.5c-1.9,0-3.8,0-5.8,0c-0.3,0-0.8,0.3-0.8-0.3c0-0.9,0.3-1.2,0.9-1.2c2.1,0,4.1,0,6.2,0c0.6,0,0.9-0.1,0.9-0.7
	s0.6-1.3,0.3-1.7s-1.1-0.1-1.7-0.1c-2.7,0-5.3,0-8,0c-0.5,0-0.7,0.1-0.8,0.6c-0.2,1.1-0.6,2.2-0.8,3.4l-0.1-0.1
	c0-0.3-0.2-0.3-0.4-0.1s-0.2,0.3-0.4,0.3c0.2-0.8,0.3-1.6,0.4-2.5c0-0.9-0.3-1.2-1.2-1.4l-0.4-0.1c0-0.4,0.3-0.3,0.5-0.3
	s0.5,0.1,0.5-0.2s-0.2-0.3-0.4-0.5l0.7-0.5c-0.4,1,0.4,1.3,0.8,1.8c0.4-0.8,1.1-0.6,1.7-0.6c2.5,0,5,0,7.5,0c0.4,0,0.8,0.1,0.9-0.6
	c0-0.4,0.5-0.6,1-0.4c-0.1,0.4-0.4,0.1-0.5,0.3c0.3,0.3,0.3,0.3-0.1,0.6c0.1,0.3,0.3,0.2,0.5,0.2c0.6-0.1,1.2,0.3,1.8,0.3
	c0.2,0,0.4,0.1,0.5-0.1c0.1-0.2,0-0.3-0.2-0.4c-0.2-0.1-0.4-0.4-0.6-0.2c-0.5,0.7-0.5-0.1-0.7-0.2c0.5-0.2,1.1-0.1,1.6,0.1
	c0.5,0.2,1,0.3,1.5,0.4c1.7,0.2,3.4,0.3,5.1,0.3c0.3,0,0.6-0.1,0.8-0.2c0.5-0.2,1.1,0.1,1.2,0.7c0,0,0,0.1,0,0.1
	c-0.6-0.2-1.2-0.3-1.9-0.3c-2-0.1-4-0.1-5.9,0.1c-0.9,0.1-1.7,0.6-2.2,1.4c-0.5,1-0.8,2-0.8,3.1c-0.1,0.7,0.4,1.4,1.1,1.5
	c0.1,0,0.2,0,0.3,0c1.9,0.2,3.7,0.3,5.6,0.3c1,0,1.2,0.5,0.7,1.3c-0.1,0.2-0.4,0.4-0.7,0.4c-1.4,0-2.7,0.1-4.1,0c-1,0-1.1-0.1-1-1.1
	c-0.8,0-1.6,0-2.4,0c-0.3,0-0.4,0.1-0.5,0.4c-0.1,0.6-0.2,1.1-0.2,1.7c0,0.7,0.6,1,1,1.2c-0.3,0-0.8-0.1-0.5,0.5
	c0.1,0.2,0.1,0.5-0.2,0.6s-0.3-0.3-0.3-0.5c0-0.2,0-0.5,0-0.8s0-0.3-0.2-0.4c-0.2-0.1-0.4,0-0.5,0.2c-0.2,0.5-0.3,1.1-1.1,0.8
	c-0.2-0.1-0.1,0.4-0.4,0.4c0.1-0.5-0.2-0.6-0.6-0.6c-2.5,0-4.9,0-7.4,0C94.3,127.8,94.1,127.9,93.9,127.7z"/>
<path class="st1" d="M56.6,117.3c-0.3,0.3,0,0.4,0.1,0.6c0.8,1.3,1.6,2.6,2.5,3.9c0.4,0.5,0.2,0.8-0.2,1.1c-1.8,1.5-3.5,2.9-5.2,4.4
	c-0.1,0.1-0.1,0.2-0.1,0.3c1.2,0,2.5,0,3.8,0c0.3,0,0.5-0.4,0.8-0.5v0.6c0,0.4-0.2,0.5-0.6,0.4c-0.6-0.2-0.6-0.2-1.1,0.3
	c0.4,0.2,0.9,0,1.3,0.2c-0.6,0.4-1.4,0.2-1.9-0.3c-0.1-0.1-0.3-0.1-0.5-0.1c-0.8-0.1-1.6,0.1-2.3,0.5c-0.1,0.1-0.3,0.1-0.4,0.1h-7.4
	c-0.1,0-0.2,0-0.4-0.2H52c0-0.4-0.3-0.5-0.2-0.7c0.5-0.2,1.2,0.2,1.5-0.2c0.2-0.5,0.4-1,0.4-1.5c0.2-0.9,0.2-0.9-0.6-0.9h-5.9
	c-0.9,0-0.8,0-0.7-0.8c0.1-0.7,0.4-0.8,1.1-0.8c1.9,0,3.9,0,5.8,0c0.3,0.1,0.6-0.1,0.7-0.4c0,0,0,0,0,0c0.5-1.9,0.5-1.9-1.4-1.9
	c-1.6,0-3.2,0-4.8,0c-0.4,0-0.5-0.1-0.4-0.5c0.1-0.7,0.4-1,1.1-1c2,0.1,4.1,0,6.1,0c0.4,0,0.7-0.1,0.7-0.6c0.1-0.5,0.2-1,0.3-1.4
	c0.1-0.4,0-0.5-0.4-0.5C55.7,117,56.1,116.8,56.6,117.3z"/>
<path class="st4" d="M33,91.7c-0.1-0.7-0.5-1.4-1.1-1.9c-0.8-0.7-1.3-1.7-1.4-2.8c-0.1-0.9,0.4-1.8,1.3-2.2c2.7-1.6,5.6-2.8,8.2-4.4
	c1.7-1,3-2.5,3.7-4.3c0.2-0.7,0.2-1.4,0-2.1c-0.2-0.8-0.4-1.6-0.7-2.4c-0.1-0.4-0.5-0.6-0.8-0.5c-0.2,0-0.3,0.2-0.4,0.3
	c-0.6,0.7-1.3,1.3-2,1.9c-0.8,0.8-1.6,1.4-2.4,2.2c-1.9,1.6-3.7,3.4-5.6,5c-0.8,0.7-1.6,1.4-2.4,2c-0.3,0.3-0.6,0.6-0.8,0.9
	c-0.1-0.4-0.3-0.1-0.5,0c-3.1,2.3-6.6,4.1-10.3,5.1c-1.4,0.2-2.8,0.3-4.2,0.2c-2-0.4-3.9-1.5-5.3-3c0,0,0-0.1,0-0.2
	c0.4,0,0.5,0.3,0.8,0.5c2.7,1.8,6.1,2.3,9.2,1.5c4.9-1,9-3.5,12.7-6.6c2.6-2.1,4.8-4.6,7.3-6.8c1.4-1.3,2.8-2.5,4.3-3.7
	c0.5-0.4,0.8-1,0.8-1.6c-0.1-0.2,0-0.4,0.2-0.5c0,2.1,0.8,3.9,1,5.9c0.2,2.1-0.7,4.1-2.4,5.3c-2.3,1.7-4.7,3.2-7.3,4.4
	c-0.8,0.4-1.5,0.9-2.3,1.3c-0.8,0.4-1.1,1.3-0.9,2.1c0.1,0.7,0.4,1.3,0.7,1.9c0.6,1,1.1,2.1,1.4,3.3c0.3,0.7,0.1,1.6-0.5,2.1v-1.1
	v-0.3c0-0.3,0.1-0.7-0.2-1C33.1,92,33.1,91.9,33,91.7z"/>
<path class="st4" d="M77.6,54.5c-0.5,0.5-1.2,0.9-1.9,1c-1.8,0.5-3.7,0.4-5.3-0.3c-2.4-1-4.8-2-7.1-3c-3.5-1.6-7.6-1.4-10.9,0.5
	c-4.4,2.4-8.3,5.6-11.4,9.6c-3.4,4.2-6.4,8.7-9.6,13.1c-0.7,0.9-1.4,1.8-2.1,2.6c-0.1,0.1-0.2,0.4-0.5,0.3c0.4-0.5,0.7-0.9,1.1-1.4
	c0.8-0.9,1.4-2,1.7-3.2c-0.1,0.1,0,0.3,0.1,0.4s0.2-0.1,0.3-0.3c1.2-1.8,2.4-3.7,3.7-5.5s2.4-3.7,3.6-5.6c2.2-3.5,5.3-6.4,8.9-8.5
	c0.1,0,0.1-0.1,0.2-0.1c0.7-0.2,1.4-0.6,2-1.1c0.6-0.3,1.2-0.5,1.8-0.8c1.3-0.5,2.6-0.9,4-1.2c2.6-0.7,4.9,0.1,7.3,1
	c1.8,0.7,3.5,1.6,5.3,2.1c1.5,0.5,3,0.9,4.6,1.3c1.2,0.2,2.5,0,3.6-0.6C77.1,54.6,77.4,54.6,77.6,54.5z"/>
<path class="st4" d="M33.5,97.2C33.5,97.2,33.5,97.1,33.5,97.2c2.2-1.4,2.3-3.5,2-5.7c-0.2-1-0.3-1.9-0.4-2.9
	c-0.1-0.7,0.1-1.3,0.6-1.8c1.5-1.3,3.1-2.4,4.8-3.3c3.2-2,6.5-3.8,9.9-5.4c2.5-1.1,4.6-2.8,6.2-5c1.6-2,2.3-4.5,2.1-7
	c0-0.1,0-0.2,0-0.3c2,2.1,0,7.6-3.9,10.4c0.4,0.1,0.8,0.1,1.2,0c2-0.7,3.4-2.4,3.7-4.4c0.1-0.5,0.2-1,0.3-1.4c0-0.2,0-0.4,0.2-0.4
	c0.2,0,0.3,0.1,0.4,0.3c0.2,0.4,0.4,0.8,0.8,1.2c0.4,0.3,0.7,0.8,1.3,0.4c0.1-0.1,0.2-0.1,0.2,0c0,0,0,0,0,0
	c0.3,0.5,0.9,0.8,1.5,0.9c-0.1,0.2-0.4,0.4-0.7,0.2c0,0-0.1,0-0.1-0.1c-1.1-0.6-2.5-0.7-3.2-2.1c-0.1,1-0.3,2-0.6,3
	c-0.4,1.2-1.4,2.1-2.6,2.5c-1,0.3-2,0.5-3,0.6c-0.5,0.1-1.1,0.3-1.5,0.7c-1.1,0.7-2.3,1.3-3.5,1.8c-1.7,0.9-3.4,1.6-5.1,2.6
	c-1.7,0.9-3.4,2-5,3.1c-0.7,0.5-1.4,1-2.1,1.6c-0.6,0.3-1,0.9-1.1,1.5c-0.1,1.4,0.1,2.7,0.6,4v0.1c0,0.4,0.1,0.8,0.1,1.1
	c0.2,1.4-0.6,2.8-1.9,3.4l-0.8,0.4L33.5,97.2z"/>
<path class="st1" d="M120.8,117.3c-1.9,0.9-3,2.9-2.7,5c0.1,0.8,0.7,1,1.4,1.1c1.8,0.2,3.5,0.2,5.3,0.3c0.4,0,1.1-0.1,1.1,0.6
	s-0.4,1.1-1.1,1.1c-1.4,0-2.7,0-4.1,0c-0.5,0-0.9-0.2-0.8-0.8c0.1-0.3-0.1-0.3-0.4-0.3c-0.7,0-1.3,0-2,0c-0.3,0-0.4,0.1-0.5,0.4
	c-0.2,0.7-0.3,1.4-0.1,2.1c-0.2,0-0.4-0.1-0.6-0.1s-0.4,0-0.5,0.3c-0.2,0.4-0.5,1-1.1,0.8c-0.4-0.1-0.3,0.3-0.5,0.5
	c-0.2,0.1-0.4,0.7-0.6,0c0-0.1-0.1-0.2-0.3-0.2c-0.6,0.2-1.2-0.2-1.8-0.2c0.8-0.2,1.6,0,2.4-0.2c0.8-0.1,1.5-0.7,1.9-1.4
	c0.6-1,0.8-2.2,0.8-3.3c0-0.7-0.5-1.4-1.2-1.4c-1.5-0.2-2.9-0.3-4.4-0.3c-0.5,0-1-0.1-1.5-0.1c-0.3,0-0.7-0.1-0.7-0.5
	c0-0.4,0.2-0.8,0.6-0.9c0.4-0.1,0.8-0.1,1.2-0.1c0.9,0,1.9,0,2.8,0c0.5,0,1,0,0.9,0.8c0,0.3,0.1,0.3,0.3,0.3h2.1
	c0.2,0,0.4-0.1,0.4-0.2c0.4-0.9,0.3-2-0.4-2.8c0.1-0.1,0.1-0.1,0.2-0.2s0.1-0.4,0.3-0.3s0.2,0.3,0.2,0.4s0,0.2,0,0.3
	c0.4,0.1,0.1-0.4,0.4-0.3c0.2,0.4,0.1,0.9-0.3,1.2c-0.2,0.1-0.3,0.4-0.1,0.5s0.4,0,0.6-0.2c0.4-0.3,0.5-0.9,0.9-1.1
	c0.2-0.1,0-0.6,0.2-0.6C119.8,117.3,120.3,117,120.8,117.3z"/>
<path class="st1" d="M58.3,127c1-0.9,1.9-1.8,2.9-2.8c0.3-0.3,0.4-0.1,0.6,0.1c0.5,0.9,1.1,1.9,1.6,2.8c0.2,0.4,0.5,0.6,0.9,0.5
	c1.1,0,2.2,0,3.3,0c-0.3-0.6-0.7-1.2-1.1-1.8c-0.7-1-1.3-2.1-2-3c-0.3-0.4-0.2-0.5,0.1-0.8c1.6-1.4,3.3-2.9,4.9-4.3l0.5-0.5h-1.9
	c0.1-0.4,0.5,0,0.7-0.2s0.4,0,0.4-0.3s0.3-0.3,0.4-0.1c0.3,0.4,0.8,0.5,1.2,0.3c0.1,0,0.1-0.1,0.1-0.1c0.1-0.1,0.2-0.1,0.3-0.1
	c1.3,0.5,2.6,0.1,3.9,0.2c0.8,0.1,1.6,0,2.4,0c0.2,0,0.5,0.1,0.5-0.2c0-0.9,0.6-0.5,1.1-0.5c-0.4,0-0.7,0.4-0.7,0.9c0,0,0,0.1,0,0.1
	c-2.3,0-4.5,0.1-6.8,0c-0.7,0-1,0.1-1.2,0.9c-0.7,2.9-1.4,5.9-2.2,8.8c-0.2,0.6,0,0.8,0.6,0.7c0.1,0,0.3,0,0.4,0l-0.1,0.4
	c-0.4,0-0.9,0-1.3,0c-0.2,0-0.7-0.2-0.4,0.4c0,0.1-0.1,0.1-0.3,0.1c-0.8,0-1.6,0-2.3-0.1c0.4-0.3,0.8-0.2,1.2-0.2c0.2,0,0.4,0,0.6,0
	s0.3-0.1,0.3-0.2s-0.1-0.3-0.3-0.3c-0.4-0.1-0.8-0.1-1.2,0c-0.6,0.2-1.3,0-1.9,0.4c-0.1,0.1-0.3,0.1-0.3,0c0.1-0.4-0.7-0.2-0.5-0.6
	c0.2-0.4,0-0.5-0.2-0.7c-0.5-0.6-1.1-1.1-1.7-1.6c0.3-0.1,0.3-0.3,0.2-0.5c-0.3,0.1-0.1,0.3-0.2,0.5c-0.4,0-0.8,0.4-0.7,0.8
	c0,0.1,0,0.2,0.1,0.3c0.2,0.3,0,0.6-0.1,0.5C59.5,126.6,59,127.2,58.3,127z M66.3,122.8c0.4,0.8,0.5-0.2,0.8-0.2
	c0,0.4,0.2,0.8-0.1,1s-0.4,0.6-0.9,0.7c1.1,0.6,1.1,0.6,1.1-0.1c0.5-0.1,0.2-0.5,0.4-0.8c0.3,0.2,0.7,0.2,1.1,0.1
	c0.6-0.3,0.6-0.9,0.9-1.3c0.6-0.8-0.5-1.6,0-2.4c0,0,0,0,0-0.1c-0.3-0.2-0.8-0.4-1.1-0.1s-0.5,0.8-1.1,0.8c0,0.8-0.8,0.9-1.2,1.3
	c-0.2,0.2-0.3,0.4-0.6,0.4s-0.3,0.2-0.3,0.4c0.2,0.6,0.6,1,1.2,1.2C66.2,123.3,65.7,123,66.3,122.8L66.3,122.8z"/>
<path class="st5" d="M74.6,20.1c-0.5-0.8-0.4-1.7,0.1-2.4c0,0,0.1-0.1,0.1-0.2c-0.1-0.7,0.4-1.2,0.6-1.7c0.3-0.8,0.2-0.8-0.6-0.8
	c-14.1,0-28.3,0-42.4,0c-0.6,0-0.8,0.2-0.8,0.8c0.1,1,0,2,0,3c0,0.5,0.1,0.7,0.6,0.6c0.5,0,0.8,0,1.2,0c0.2,0,0.4,0,0.4,0.2
	c-0.6,0-1.3-0.1-1.9-0.1c-0.4,0-0.4-0.2-0.4-0.5c0-1.4,0-2.7,0-4.1c0-0.4,0.1-0.6,0.5-0.5c0.2,0,0.4,0,0.6,0h43.6
	C75.6,16.3,75.2,18.2,74.6,20.1z"/>
<path class="st5" d="M132.3,19.1c-0.1-0.5-0.6-0.1-0.9-0.4c0.6-0.1,1.2-0.2,1.8-0.1c0.4,0,0.8,0.2,0.6-0.6c-0.2-0.7-0.2-1.4,0.2-2
	c0.2-0.3-0.3-0.9-0.7-1h-30.1c-0.1,0-0.3,0-0.4,0c-0.2,0-0.5,0.1-0.6,0.3c-0.1,0.3,0.4,0.1,0.4,0.4c-0.4,0-0.9,0.3-1.1-0.4
	c0-0.2-0.2-0.1-0.4-0.1c0.4-0.6,1.1-0.9,1.8-0.8c10.2,0,20.3,0,30.5,0c0.7,0,0.9,0.2,0.8,0.8c-0.1,1.1,0,2.2,0,3.3
	c0,0.4-0.2,0.6-0.6,0.6S132.7,19.1,132.3,19.1z"/>
<path class="st5" d="M1.4,134.2c0,1.7,0,3.5,0,5.2c0,0.4,0.1,0.6,0.6,0.6s0.7,0,1,0h136c1.3,0,1.1,0.2,1.1-1.1c0-1.6,0-3.1,0-4.6
	c0.2,0,0.1,0.1,0.1,0.3c0,1.9,0,3.8,0,5.7H138H2.2H1.3c-0.2-0.1-0.1-0.3-0.1-0.4c0-1.7,0-3.5,0-5.2C1.2,134.5,1.2,134.3,1.4,134.2z"
	/>
<path class="st1" d="M17.8,88.4c3.7-1,7.2-2.8,10.3-5.1c0.2-0.1,0.3-0.3,0.5,0c-0.5,0.8-0.9,1.6-1.5,2.3c-1.6,2-3.8,2.6-6.3,2.8
	c-0.6,0.1-1.2,0.1-1.8,0.1c-0.6,0-0.9,0.2-0.8,0.8C18,89.2,18,89,18,88.8S18.1,88.4,17.8,88.4z"/>
<path class="st1" d="M77.8,125.1c1.9-0.2,2.8-1.5,3.2-3.3c0.2-0.8,0.4-1.6,0.5-2.4c0.2-0.9-0.4-1.8-1.2-2c-0.1,0-0.2,0-0.3,0
	c-0.2,0-0.4,0-0.5-0.1c0.3-0.5,0.7-0.8,1.2-0.5s1.4,0.1,1.5,1.1c0,0.2,0.1,0.3,0.3,0.3s0.4-0.6,0.4-0.6c-0.2-0.3,0.1-0.5,0.1-0.7
	c0.4-0.1,0.6,0.1,0.6,0.5c-0.2,0-0.4,0-0.4,0.4c-0.8,3.3-1.6,6.6-2.5,9.9c-0.2-0.3-0.2-0.8-0.1-1.1c0.1-0.6,0.1-1.2,0.1-1.8
	c0-0.2-0.2-0.3-0.3-0.3s-0.2,0.1-0.1,0.3c0,0.3-0.2,0.2-0.4,0.2s-0.5,0.1-0.5,0.4c-0.2,0-0.5,0-0.6,0.2
	C78.1,125.8,77.9,125.6,77.8,125.1z"/>
<path class="st1" d="M11.8,127c1.8,0.1,3.6,0.1,5.4,0.1c0.6,0,1.1,0.1,1.7,0.1c-0.1,0.4-0.4,0.3-0.6,0.3c-0.6,0-1.2,0-1.9,0.1
	c-0.2,0-0.4,0-0.4,0.3c0,0.3,0.3,0.2,0.4,0.2h3.2c0.1,0,0.3-0.1,0.4,0.2c-0.3,0.1-0.7,0.1-1,0.1c-0.6,0-1.3,0-1.9,0
	c-1.2,0.1-2.5,0.2-3.7,0.5c-0.5,0.1-1,0.1-1.5,0c-0.2,0-0.4,0.1-0.4-0.1c0-0.2,0.2-0.4,0.3-0.4c0,0,0,0,0,0c0.3,0,0.7,0,1,0h0.5
	c0.2,0,0.3-0.1,0.3-0.3c0-0.2-0.1-0.3-0.3-0.3h-1.9c0.3-0.5,0.8-0.1,1.1-0.4c-0.7-0.3-1.3,0.1-1.8,0.3c-0.1,0-0.3,0.2-0.3,0
	c-0.1-0.5-0.3-0.4-0.6-0.1c-0.1,0-0.2,0.1-0.3,0c-0.5-0.7-1.2-0.3-1.8-0.4c-0.2,0-0.4-0.1-0.7-0.2c0.5-0.2,1.1,0.2,1.5-0.4
	c0.5,0.4,0.7-0.4,1.1-0.4s0.9,0,1.4,0c0.1,0,0.3-0.1,0.4,0.1c-0.2,0.4-1-0.3-1,0.6h-0.1c0,0-0.2,0.1,0,0.1
	C10.8,126.9,11.3,127.2,11.8,127z"/>
<path class="st1" d="M124,121.1c-0.7,0.1-1.5,0-2.2-0.1c-0.3-0.1-0.6,0-0.7-0.4c-0.1-0.4,0.2-0.8,0.6-0.9c0.3-0.1,0.5-0.1,0.8-0.1
	c1.1,0,2.2,0,3.3,0c0.5,0,1,0.1,0.9,0.8c0,0.3,0.2,0.3,0.4,0.3h2c0.2,0,0.4-0.1,0.4-0.3c0.1-0.6,0.2-1.1,0.1-1.7
	c0-0.5-0.4-1-0.9-1.1c-0.8-0.2-1.6-0.3-2.5-0.3c-1.3,0-2.5,0-3.7,0c0.2-0.2,0.4-0.1,0.6-0.1h3.2c0.3,0.1,0.6,0,0.9-0.2
	c0.2-0.1,0.5-0.1,0.6,0c0.4,0.3,0.8,0.4,1.3,0.4c0.4,0,0.7,0.3,0.7,0.7c0,0,0,0,0,0c0,0.7,0,1.4,0.2,2.1c0,0.1,0,0.2-0.1,0.3
	c-0.5,0.6-0.8,1.4-1,2.1c-0.4-1-1.3-1.1-2.2-1.2c-0.7-0.1-1.3-0.1-2-0.1c0.2-0.3,0.6-0.5,0.9-0.5c0.2-0.1,0.3-0.1,0.2-0.3
	s-0.1-0.3-0.3-0.1c-0.4,0.3-0.8,0.3-0.9-0.3c0-0.1-0.2-0.1-0.3-0.1H123c-0.2,0-0.4,0-0.4,0.3c0,0.9,0,0.9,0.9,1
	C123.6,121,123.8,121,124,121.1z"/>
<path class="st1" d="M19.5,127.3l5.9,0.1l7.3,0.1c1.3,0,2.6,0.1,3.9,0.1c-0.1,0.4-0.4,0.2-0.7,0.3s-0.6-0.1-0.9,0.1
	c0.3,0.4,0.7,0,1.1,0.4h-2.3c0-0.4,0.5-0.2,0.7-0.4c-0.4-0.2-0.9-0.3-1.4-0.2c-0.9,0.2-1.7-0.2-2.5,0s-1.4,0-2,0.1
	c-0.4,0.1-0.7,0.5-1.1,0.4c-1.3-0.3-2.6-0.5-3.8-0.4c-1,0-1.9,0.1-2.9,0.1C20.2,128,19.7,127.7,19.5,127.3z"/>
<path class="st1" d="M27.1,121.2c-0.9,0.1-1.8,0.1-2.7,0.1c-3.7,0.1-7.5,0.1-11.2,0.2c-0.2,0-0.5-0.1-0.6,0.2
	c-0.5,0.2-1.1,0-1.4,0.5c-0.1,0.1-0.2,0.1-0.3,0c-0.3-0.4-0.8-0.6-1.2-0.5H9.1c0.2-0.3,0.4-0.5,0.8-0.3c0.5,0.1,0.9,0.1,1.4,0
	c0.1,0,0.2-0.1,0.3-0.2c0.3-0.7,0.8-0.4,1.3-0.2c0.3,0.2,0.7,0.2,1,0c0.3-0.2,0.6-0.2,0.9-0.1c0.4,0.2,0.8,0.3,1.2,0.2
	c0.9-0.1,1.9,0,2.8,0c0.3,0,0.6,0.1,0.6-0.4s0.3-0.2,0.5-0.1c0.8,0.5,1.7,0.6,2.6,0.2c0.3-0.1,0.7,0.2,1.1,0.2
	c1-0.2,2.1-0.2,3.2-0.2C26.9,120.9,27.1,120.9,27.1,121.2z"/>
<path class="st1" d="M93.9,124.8c-0.2,0.8-0.4,1.6-0.5,2.3c-0.1,0.3-0.1,0.5,0.3,0.6c-0.1,0.7-0.6,0.4-0.9,0.3
	c-0.2-0.1-0.5-0.2-0.8-0.1c-0.1,0.2,0.1,0.2,0.1,0.4c0,0.2,0,0.3-0.2,0.4c0,0,0,0,0,0c-0.2,0.1-0.3-0.1-0.3-0.3
	c0-0.4-0.1-0.5-0.5-0.3c-0.4,0.2-1.1-0.3-1.6,0c-0.1,0,0-0.2,0.1-0.3c0.7,0,1.5,0,2.2,0c0.3,0,0.5-0.1,0.6-0.4
	c0.3-0.9,0.5-1.9,0.5-2.9l-0.1-0.2c0,0-0.1-0.1-0.1-0.1V124c0.5-0.1,0.6,0.4,1,0.5c0.4-0.8,0.1-1.8,0.6-2.6
	c-0.3,0.1-0.5,0.3-0.5,0.6c-0.1,0.4-0.3,0.3-0.6,0.4l0,0l0.6-1.4c0.4,0.2,0.7,0.3,0.9-0.3l0.1,0.1C94.5,122.5,94.2,123.7,93.9,124.8
	L93.9,124.8L93.9,124.8z"/>
<path class="st1" d="M71.5,126.3c0.2-1.2,0.2-1.2,1.3-1.2h4.5c-0.4,0.7,0.3,0.7,0.6,0.9c-0.1,0.3-0.4,0.2-0.5,0.2
	c-1.1,0-2.1,0-3.2,0c-0.4,0-0.7,0.1-0.6,0.5s-0.1,0.3-0.3,0.3s-0.4,0-0.4-0.3c-0.1-0.4-0.6-0.7-1.1-0.5
	C71.7,126.2,71.6,126.2,71.5,126.3z"/>
<path class="st1" d="M28.7,122l10.7,0.2l4.2,0.1c0.2,0,0.4-0.1,0.5,0.1s-0.3,0.2-0.5,0.3l-8.7,0.1c0-0.4-0.2-0.5-0.6-0.5h-5.1
	C29.1,122.3,28.8,122.4,28.7,122z"/>
<path class="st1" d="M33.3,93.4v1.1c0,0.1-0.1,0.3-0.2,0.3c-0.3-0.3,0.1-0.7-0.1-1c-0.3-0.1-0.1,0.5-0.4,0.3
	c-0.3-0.1-0.4-0.4-0.3-0.7l0,0c0.5-0.1,0.3-0.5,0.2-0.8s-0.4-0.3-0.6-0.2c-0.2,0-0.4,0-0.6,0H19c-0.3,0-0.6,0.2-0.7-0.3h13.7
	c0.4,0,0.8,0,1.2,0c0.3,0.3,0.2,0.6,0.2,1c-0.1,0-0.2,0.1-0.2,0.1S33.2,93.4,33.3,93.4z"/>
<path class="st5" d="M81,92h38.8c-0.1,0.3-0.4,0.2-0.6,0.2H81.6C81.4,92.2,81.1,92.3,81,92z"/>
<path class="st1" d="M38.2,127.6l12.9,0.1c-0.8,0.2-1.6,0.3-2.4,0.2c-2,0-4,0.2-6,0.2c-1.4,0-2.7-0.2-4.1-0.1
	C38.4,128,38.2,127.9,38.2,127.6z"/>
<path class="st1" d="M17.6,123.2l-4.3,0.1h-0.6c-0.5,0-1.1,0-1.6,0.2H7.8c0.5-0.2,1-0.3,1.6-0.3c0.4,0,0.8,0.1,1.1-0.3
	c0.2-0.2,0.3,0,0.4,0s0.6,0.4,0.8-0.1c0-0.1,0.7,0,1,0.1c1.2,0.1,2.3,0,3.5,0.1c0.3,0,0.6-0.3,1-0.3S17.6,122.9,17.6,123.2z"/>
<path class="st4" d="M124.4,92.3c-0.1-0.5-0.1-1-0.1-1.5c-0.2,0.4-0.3,0.7-0.4,1.1c0,0.1-0.1,0.4-0.3,0.4s-0.2-0.2-0.3-0.4
	c-0.1-0.4-0.2-0.7-0.4-1c-0.2,0.4,0.1,0.9-0.2,1.3h-0.2c0-0.6,0-1.3,0-1.9c0-0.1,0.1-0.1,0.3-0.1s0.2,0.1,0.3,0.2
	c0.1,0.4,0.3,0.8,0.4,1.2c0.4-0.3,0.3-0.8,0.5-1.1s0.1-0.4,0.4-0.4s0.2,0.3,0.2,0.4c0,0.5,0,1.1,0,1.6L124.4,92.3z"/>
<path class="st1" d="M66.8,117.3c-0.8-0.2-1.1,0.5-1.7,0.8c-0.3-0.4-0.6-0.8,0.2-1.2c0.3-0.2,0-0.6-0.2-1.1c0.9,0.4,1.8-0.1,2.7,0.5
	C67.2,116.5,66.6,116.5,66.8,117.3z"/>
<path class="st1" d="M122.7,127.8l2.9-0.1c1.2-0.1,2.3-0.8,2.8-2c0,0.2,0,0.4,0.2,0.5l0,0c-0.1,0.4-0.1,0.9-0.5,1.2
	c-0.1,0.1-0.2,0.3-0.5,0.2s-0.6,0.1-0.6,0.5c0,0.4-0.2,0.4-0.4,0.2c-0.6-0.6-1.3-0.4-2-0.3c-0.7,0.2-1.1-0.1-1.6,0.1
	C122.8,128.2,122.7,128,122.7,127.8z"/>
<path class="st1" d="M24.1,126.6l-3.5,0.1c0-0.3,0.3-0.2,0.5-0.3c0.4,0,0.7-0.4,0.7-0.8c-0.7,0.3-1.4-0.1-2.1,0.1
	c-0.2,0.1-0.3-0.1-0.3-0.3c2,0,3.9,0,5.9,0.1c-0.4,0.3-0.9,0.4-1.3,0.2c-0.5-0.2-1-0.2-1.5,0c-0.2,0.1-0.4,0.3-0.3,0.5
	c0,0.3,0.3,0.2,0.4,0.2c0.4,0,0.8,0,1.2-0.1C24,126.3,24.1,126.4,24.1,126.6z"/>
<path class="st1" d="M92.3,117.3h-8.6c0-0.2-0.1-0.5,0.1-0.8c0.9,0.5,1.8,0.6,2.8,0.5c1.6,0,3.2,0,4.8,0
	C91.8,117,92.1,117.1,92.3,117.3z"/>
<path class="st1" d="M19.3,126.7c-2.1,0.2-4.2,0.1-6.3,0.2c-0.4,0-0.8,0-1.2,0.1l-0.2-0.1c0.6-0.4,1.3-0.5,2.1-0.4
	c0.5,0.1,0.9,0.4,1.4-0.2c0.1-0.1,0.5,0.1,0.7,0.1c0.9,0,1.8,0.1,2.7,0c0.3,0,0.7,0,0.8-0.4C19.4,126.2,19.4,126.5,19.3,126.7z"/>
<path class="st5" d="M36.3,92.2v-0.1h19.4c-0.1,0.3-0.4,0.2-0.5,0.2L36.3,92.2z"/>
<path class="st1" d="M102.6,128.5c-2.9,0.3-5.8,0.3-8.8,0H102.6z"/>
<path class="st1" d="M27,129.1c-2.2,0.2-4.3,0.1-6.5-0.3C22.7,128.4,24.9,128.9,27,129.1z"/>
<path class="st1" d="M37.7,124l5.5,0.1c0.1,0,0.4-0.1,0.4,0.1s-0.2,0.2-0.4,0.3h-3.9c0-0.3-0.2-0.3-0.4-0.3
	C38.5,124.2,38.1,124.2,37.7,124z"/>
<path class="st5" d="M33.1,92.2c-0.4,0-0.8,0-1.2,0H18.3V92h14c0.3,0,0.6,0.2,0.7-0.3C33.1,91.8,33.1,92,33.1,92.2z"/>
<path class="st1" d="M83.9,31.1C83,32,82,32.9,81,33.8c0.1-0.9,0.9-1.3,1.4-1.9l0,0c0.4-0.1,0.6-0.4,0.9-0.6s0.1-0.5-0.3-0.5
	C83.6,30.2,83.7,30.8,83.9,31.1z"/>
<path class="st1" d="M117,126.8c0.6,0.6,1.3,0.9,2.1,0.9c0.4,0,0.8,0,1.2,0.1c-0.8,0.3-1.7,0.1-2.5,0.5c-0.2,0.1-0.6-0.2-0.6-0.3
	C117.3,127.6,116.9,127.3,117,126.8z"/>
<path class="st1" d="M15,121.8c1.1-0.1,2.2,0,3.2,0.1c0,0.2-0.1,0.4-0.3,0.4C16.9,122.4,15.9,122.2,15,121.8z"/>
<path class="st4" d="M121.5,92.4c-0.1-0.4-0.1-0.7-0.1-1.1c0-0.4,0.1-0.8-0.5-0.7c0,0-0.1-0.1-0.1-0.1c0-0.1,0-0.2,0.1-0.2
	c0,0,0,0,0,0c0.5-0.1,1.1,0,1.6,0.2c-1,0-0.8,0.7-0.8,1.2C121.7,91.9,121.7,92.2,121.5,92.4z"/>
<path class="st1" d="M33.5,97.2h0.3c-0.5,0.2-1.2,0-1.6,0.6c0-0.6-0.4-1-0.6-1.6c0-0.2-0.2-0.4,0-0.5s0.2,0.1,0.4,0.1
	c0.2,0,0.2,0,0.3,0C32.3,97.1,32.3,97.1,33.5,97.2z"/>
<path class="st1" d="M110.6,84.6c-1-0.8-1.7-1.9-2.2-3.1c0.3,0,0.5-0.1,0.5,0.4c0,0.6,0.6,0.9,1.1,1.2c0.2,0.2,0.4,0.2,0.4,0.6
	c0,0.2,0.1,0.5,0.4,0.6C111,84.4,110.6,84.5,110.6,84.6z"/>
<path class="st1" d="M97.4,49.3c0.7-0.8,1.5-1.5,2.4-2.2c-0.1,0.3-0.3,0.5-0.3,0.8c0,0.3-0.2,0.5-0.5,0.6c-0.2,0-0.4,0.2-0.4,0.3
	C98.4,49.5,97.9,49.3,97.4,49.3z"/>
<path class="st1" d="M12.3,119.9l3,0.1c0.2,0,0.5,0,0.7,0.1c-0.6,0.4-1.3,0.1-2,0.2c-0.7,0.1-1.4,0.1-2.1,0
	c-0.3-0.1-0.7,0.3-1.2,0.1s0-0.2,0-0.3L12.3,119.9z"/>
<path class="st1" d="M69.6,128.4h1.2c0.3,0,0.4,0.1,0.4,0.4s-0.1,0.5-0.4,0.4c-0.1,0-0.3,0-0.4,0C69.7,129.3,69.5,129,69.6,128.4
	L69.6,128.4z"/>
<path class="st1" d="M18.3,122c0.2-0.2,0.4-0.1,0.6-0.1l6,0.1c0.2,0,0.4,0,0.6,0.1c-0.8,0.2-1.6,0.2-2.3,0.1c-0.2,0-0.5,0-0.8,0
	C21.1,122.1,19.7,122.1,18.3,122z"/>
<path class="st1" d="M26.3,120.2c2,0,3.9,0,5.9,0.1c-0.6,0.1-1.1,0.5-1.7,0.3C29.1,120.1,27.7,120.6,26.3,120.2z"/>
<path class="st1" d="M122.7,116.2h4.2v0.1h-4.2V116.2z"/>
<path class="st1" d="M112.9,86.2c-0.7-0.3-1.4-0.8-1.9-1.4c0.6,0.4,1.4,0.1,1.9,0.6C113,85.6,113.1,85.9,112.9,86.2
	C112.9,86.2,112.9,86.2,112.9,86.2z"/>
<path class="st1" d="M14.9,125.4c1.4-0.1,2.8,0,4.2,0.1c0,0.3-0.3,0.3-0.5,0.3c-1-0.1-2-0.2-3-0.1C15.3,125.6,15.1,125.7,14.9,125.4
	z"/>
<path class="st1" d="M95.1,20.6c-0.5,0.7-1.2,1.2-1.9,1.6c0.4-0.4,0.7-0.9,1-1.3C94.5,20.4,94.7,20.5,95.1,20.6z"/>
<path class="st1" d="M11.1,125.1l0.1,0.2c-1.2,0.2-2.4-0.1-3.6,0v-0.3L11.1,125.1z"/>
<path class="st1" d="M33.3,122.8c-1.1,0.1-2.1,0.1-3.2,0.1c-1,0-2,0-3,0c0.1-0.2,0.3-0.2,0.5-0.2c0.8,0,1.7,0,2.5,0
	C31.2,122.8,32.2,122.8,33.3,122.8z"/>
<path class="st1" d="M69.7,127.7h0.1c1.3-0.1,1.3-0.1,1.7-1.2c0.1,0,0.3,0.1,0.2,0.2c-0.3,0.3-0.2,0.6-0.2,1c0,0.2,0,0.4-0.2,0.5
	C70.8,128.2,70.2,128,69.7,127.7z"/>
<path class="st1" d="M21.5,120.1c1.2-0.1,2.3,0,3.5,0.1c-0.3,0.3-0.7,0.1-1,0.2c-0.6,0-1.3,0-1.9,0
	C21.8,120.3,21.5,120.4,21.5,120.1z"/>
<path class="st1" d="M33.8,120.3h0.3c-0.1,0.4,0.3,0.5,0.6,0.7c-0.8,0.1-1.6,0.1-2.4,0.1c0.2-0.4,0.6-0.4,1-0.4
	S33.8,120.7,33.8,120.3z"/>
<path class="st1" d="M114.2,86.8c-0.5-0.1-0.9-0.3-1.3-0.5c0.7-0.5,1.3,0.1,2.1,0C114.8,86.7,114.3,86.3,114.2,86.8z"/>
<path class="st1" d="M33.8,128.4c0,0.1-0.1,0.3-0.2,0.3c-0.6,0.1-1.3,0.1-1.9,0v-0.2L33.8,128.4L33.8,128.4z"/>
<path class="st1" d="M109.3,116.3h2v0.1h-2V116.3z"/>
<path class="st1" d="M33,94.8c0,0.4-0.2,0.7-0.6,0.9c0-0.2-0.2-0.3-0.3-0.3c-0.2,0-0.2-0.2-0.2-0.4c0-0.1,0.2-0.2,0.3-0.2
	c0,0,0.1,0,0.1,0.1C32.6,95.2,32.8,94.8,33,94.8z"/>
<path class="st1" d="M36,129.2h-2c0.6-0.2,1.3-0.3,2-0.2V129.2z"/>
<path class="st1" d="M16.1,120c0.7-0.1,1.5-0.1,2.2,0c0,0.2-0.1,0.3-0.3,0.3c0,0,0,0,0,0h-1.6C16.2,120.3,16.1,120.3,16.1,120z"/>
<path class="st1" d="M120.4,128.5h2v0.1h-2V128.5z"/>
<path class="st1" d="M113.8,116.2h2v0.1h-2V116.2z"/>
<path class="st1" d="M111.4,128.6h-2v-0.1h2V128.6z"/>
<path class="st1" d="M44.8,129.2h-2V129h2V129.2z"/>
<path class="st1" d="M24.5,123c-0.7,0.1-1.4,0.1-2.1,0C23.1,122.7,23.9,122.7,24.5,123z"/>
<path class="st1" d="M23,128.2c0.5-0.2,1.1-0.2,1.6,0C24.1,128.4,23.5,128.4,23,128.2z"/>
<path class="st1" d="M21.6,123.1c-0.6,0.1-1.2,0.1-1.8,0C20.3,122.7,21.1,122.7,21.6,123.1z"/>
<path class="st1" d="M69.2,129c-0.5,0.2-1,0.2-1.5,0.1C68.2,128.9,68.7,128.9,69.2,129z"/>
<path class="st1" d="M78.1,126.8c0,0.2-0.2,0.2-0.4,0.2s-0.4,0-0.4-0.3s0.2-0.3,0.4-0.3S78.1,126.6,78.1,126.8z"/>
<path class="st1" d="M68.4,45.4c-0.2,0.3-0.4,0.4-0.7,0.7c0.1-0.3,0.1-0.6,0.3-0.8C68.1,45.4,68.2,45.5,68.4,45.4z"/>
<path class="st3" d="M12.3,119.9l-1.6,0.1h-0.1c-0.2-0.1-0.1-0.1,0-0.1L12.3,119.9L12.3,119.9L12.3,119.9z"/>
<path class="st1" d="M32.1,93.4c-0.2-0.1-0.4,0.4-0.5,0.1s0.3-0.5,0.3-1C32.1,92.8,32.2,93.1,32.1,93.4L32.1,93.4z"/>
<path class="st1" d="M79.1,125.1c0.2,0.4,0.7,0.1,0.7,0.5c0,0.1-0.1,0.3-0.3,0.3c0,0,0,0-0.1,0C79.1,125.8,79.2,125.5,79.1,125.1z"
	/>
<path class="st3" d="M11.6,126.9l0.2,0.1l0.1,0.1l0,0c-0.5,0.1-1-0.1-1.5-0.1c-0.2,0,0-0.1,0-0.1h0.1L11.6,126.9z"/>
<path class="st3" d="M11.1,123.5c0.5-0.2,1-0.2,1.6-0.2c0,0,0,0.1,0,0.1l0,0L11.1,123.5z"/>
<path class="st1" d="M71,116.2c0,0.1-0.1,0.2-0.2,0.3c0,0,0,0,0,0c-0.2,0-0.3-0.1-0.3-0.3s0.1-0.2,0.3-0.2S71,116,71,116.2z"/>
<path class="st1" d="M29.4,121.1c-0.4,0.1-0.7,0.1-1.1,0C28.6,120.7,29,120.8,29.4,121.1z"/>
<path class="st1" d="M19.1,123.1c-0.3,0.1-0.6,0.1-0.8,0c0-0.4,0.4-0.4,0.6-0.4S19.1,123,19.1,123.1z"/>
<path class="st1" d="M53.9,129.1c0.2-0.2,0.6-0.2,0.9-0.1C54.4,129.3,54.1,129.2,53.9,129.1z"/>
<path class="st1" d="M31.6,121.1h-1C31,120.7,31.3,120.8,31.6,121.1z"/>
<path class="st1" d="M13.7,126c-0.3,0.1-0.5,0.2-0.7,0c0,0,0-0.1,0.1-0.2C13.4,125.7,13.6,125.9,13.7,126z"/>
<path class="st1" d="M82.6,116.5c0-0.2,0.1-0.3,0.3-0.3s0.2,0,0.2,0.1c0,0.2-0.1,0.3-0.3,0.4C82.7,116.8,82.6,116.6,82.6,116.5z"/>
<path class="st1" d="M129.1,126.1c-0.3-0.2-0.2-0.4-0.1-0.6c0,0,0.1,0,0.2,0C129.3,125.7,129.2,125.8,129.1,126.1z"/>
<path class="st1" d="M115.1,128.7c0,0.1,0,0.2-0.2,0.2s-0.2-0.1-0.2-0.2c0-0.1,0.1-0.2,0.2-0.3C115,128.4,115.1,128.5,115.1,128.7z"
	/>
<path class="st4" d="M28.8,78.3c0.1,0.4-0.3,0.4-0.4,0.6C28.3,78.6,28.6,78.5,28.8,78.3z"/>
<path class="st1" d="M138.8,9c-0.1,0.1-0.2,0.2-0.3,0.1c-0.1,0-0.2-0.1-0.1-0.2c0,0,0,0,0-0.1c0-0.1,0.1-0.1,0.2,0
	C138.6,8.9,138.7,8.9,138.8,9z"/>
<path class="st1" d="M56.1,129.1c-0.2,0.2-0.5,0.2-0.7,0C55.6,128.9,55.9,128.9,56.1,129.1z"/>
<path class="st1" d="M13.7,125.4h0.7C14.2,125.8,14,125.6,13.7,125.4z"/>
<path class="st1" d="M115.7,127.9c0.1,0,0.2,0.1,0.2,0.2c0,0.1,0,0.3-0.2,0.2s-0.1-0.2-0.1-0.3C115.6,127.9,115.6,127.9,115.7,127.9
	z"/>
<path class="st1" d="M91.4,129.1c0,0.1-0.1,0.1-0.2,0.1c-0.1,0-0.2,0-0.2-0.1s0.1-0.1,0.2-0.1S91.4,129,91.4,129.1z"/>
<path class="st1" d="M129,123.1v-0.6C129.3,122.7,129.3,122.9,129,123.1z"/>
<path class="st1" d="M2.6,9c0.1,0,0.2,0.1,0.2,0.2c0,0,0,0,0,0c0,0.1-0.1,0.2-0.2,0.1c-0.1,0-0.1-0.1-0.2-0.2C2.4,9,2.5,9,2.6,9z"/>
<path class="st1" d="M113.8,129.1c0-0.1,0.1-0.1,0.2-0.1c0.1,0,0.2,0,0.2,0.1s-0.1,0.1-0.2,0.1S113.8,129.2,113.8,129.1z"/>
<path class="st1" d="M121.6,117.2H121C121.2,117,121.4,116.9,121.6,117.2z"/>
<path class="st1" d="M106,129.1c-0.1,0-0.1,0.1-0.2,0.1s-0.2-0.1-0.1-0.1s0.1-0.1,0.2-0.1S106,129,106,129.1z"/>
<path class="st1" d="M25.9,122h0.6C26.3,122.3,26.1,122.3,25.9,122z"/>
<path class="st1" d="M33.8,122.8h-0.4C33.5,122.4,33.7,122.6,33.8,122.8z"/>
<path class="st1" d="M69.3,128.1c0.1,0,0.3,0.1,0.3,0.2c0,0,0,0,0,0.1l0,0C69.5,128.4,69.3,128.3,69.3,128.1
	C69.3,128.2,69.3,128.1,69.3,128.1z"/>
<path class="st1" d="M72.4,126.5c0,0,0,0.1-0.1,0.1s-0.1,0-0.1,0s0-0.1,0.1-0.1S72.4,126.5,72.4,126.5z"/>
<path class="st1" d="M53.2,129c0,0,0.1,0,0.1,0.1s0,0.1,0,0.1s-0.1,0-0.1-0.1S53.2,129,53.2,129z"/>
<path class="st1" d="M115.9,129v0.1c0,0-0.1,0-0.1-0.1s0-0.1,0-0.1L115.9,129z"/>
<path class="st1" d="M65,116.7c0,0-0.1,0-0.1-0.1s0-0.1,0-0.1s0.1,0,0.1,0.1S65.1,116.6,65,116.7z"/>
<path class="st1" d="M25.2,120.2c0.1-0.1,0.3-0.1,0.4,0C25.5,120.4,25.3,120.4,25.2,120.2z"/>
<path class="st1" d="M29.3,120.7c0,0-0.1,0.1-0.1,0s-0.1,0-0.1-0.1S29.1,120.6,29.3,120.7C29.2,120.6,29.2,120.7,29.3,120.7z"/>
<path class="st1" d="M18.2,91.5v0.4C18.1,91.8,18.1,91.7,18.2,91.5C18.2,91.5,18.2,91.5,18.2,91.5z"/>
<path class="st1" d="M128.5,126.2c0-0.1,0-0.2,0.1-0.2l0,0C128.7,126.1,128.6,126.1,128.5,126.2L128.5,126.2z"/>
<path class="st1" d="M14.2,122L14.2,122c-0.1,0-0.1,0.1-0.2,0.1c-0.1,0-0.1,0,0-0.1C14.1,122,14.1,122,14.2,122z"/>
<path class="st1" d="M18.8,126.1L18.8,126.1L18.8,126.1C18.8,126.1,18.8,126.1,18.8,126.1L18.8,126.1z"/>
<path class="st1" d="M82.3,31.9L82.3,31.9L82.3,31.9z"/>
<path class="st1" d="M35.9,124L35.9,124C36,124,36,124,35.9,124z"/>
<path class="st1" d="M78.9,117.3l-0.2-0.1C78.7,117.2,78.8,117.2,78.9,117.3z"/>
<path class="st5" d="M1.6,1.6C1.1,3.3,1.5,5,1.4,6.7c0,0.6,0.2,0.8,0.8,0.8c0.3,0,0.5,0,0.8,0h136.3c0.6,0,0.8-0.2,0.8-0.8
	c0-1.7,0-3.3,0-5c0.3,0.1,0.1,0.4,0.1,0.5c0,1.6,0,3.2,0,4.8c0,0.4-0.1,0.6-0.5,0.6c-0.8,0-1.6,0-2.4,0c-45.1,0-90.1,0-135.2,0
	c-0.7,0-0.9-0.1-0.9-0.8c0.1-1.5,0-3.1,0-4.6C1.2,1.8,1.2,1.5,1.6,1.6z"/>
<path class="st4" d="M73.8,66c-0.1,0.3-0.3,0.8,0,1s0.6-0.2,0.8-0.4c1.5-1.1,2.7-2.6,3.5-4.3c0.7-1.5,1.7-2.8,2.8-3.9
	c0.6-0.6,1.5-0.9,2.3-0.9c1.4,0.1,2.7,0.3,4.1,0.3c1.1-0.1,2.1-0.5,2.8-1.2c0.2-0.2,0.1-0.4,0.2-0.6c-0.1,0.6,0.2,1.3-0.5,1.7
	c-0.4,0.2-0.9,0.4-1.4,0.4c-0.9,0.1-1.8,0-2.7-0.1c-1.3-0.3-2.6-0.3-3.9,0.1c-0.9,0.5-1.5,1.3-1.8,2.2c-0.9,2.1-1.6,4.3-3.5,5.9
	c-0.6,0.5-1.3,0.9-2.1,1.2c-0.7,0.3-0.8,0.6-0.3,1.2c0.2,0.3,0.5,0.6,0.8,0.8c0.7,0.6,0.9,1.6,0.6,2.4c-0.2,0.5-0.7,0.8-1.2,0.7
	l-0.8-0.1c-0.6-0.1-1-0.6-0.9-1.2c0-0.1,0.1-0.2,0.1-0.3c0.1-0.1,0.1-0.3,0.1-0.4c-0.2-0.8-0.9-1.2-1.4-1.7c-0.3-0.3-0.6-0.1-1,0
	c-0.8,0.2-1.5,0.4-2.3,0.5h-2.5c-0.4,0-0.9-0.3-1.1,0.1c-0.4,0.6-0.4,1.4-0.1,2c0.2,0.3,0.4,0.5,0.2,0.8c-0.7-0.7-1-1.8-0.8-2.8
	c0.1-0.4,0.1-0.9,0.1-1.4c0-0.6-0.4-1.1-1-1.3c-0.4-0.1-0.7-0.4-0.7-0.8c-0.2-0.8-0.7-1.5-1.3-2.1c-0.1-0.1-0.3-0.3-0.5-0.2
	s-0.1,0.3-0.1,0.5c0,1.1-0.3,2.3,0.4,3.3c-0.9-1.1-1.1-2.6-0.6-3.9c0.1-0.4,0.4-0.5,0.8-0.2c0.7,0.6,1.7,1,1.7,2s0.3,1.4,1.3,1.6
	c0.7,0.1,0.8,0.8,0.8,1.4c0,0.4,0.1,0.6,0.6,0.7c1.8,0.1,3.6-0.1,5.3-0.6c0.3-0.1,0.4-0.2,0.2-0.4s-0.3-0.5-0.4-0.7
	c-0.6-0.9-0.6-2,0-2.9c0.4-0.6,0.8-1.2,1.3-1.7c0,0.2,0,0.4-0.2,0.5c-1,1.4-1,3.2-0.1,4.6c0.5,0.7,1.1,1.4,1.7,2.1
	c0.6,0.7,1.2,1.4,0.9,2.5c0,0.1,0,0.2,0.1,0.3c0.1,0.1,0.2,0,0.3-0.1c0.9-0.8,1.3-1.7,0.3-2.6c-0.8-0.7-1.3-1.7-1.3-2.8
	C73.3,66.6,73.5,66.2,73.8,66L73.8,66z"/>
<path class="st4" d="M89.8,54.9c-1.4,0.1-2.7,0-3.6-1.3c-0.5-0.7-1.3-1.1-2.1-1c-0.5,0-1,0-1.4-0.1c-0.7-0.1-1.2-0.6-1.5-1.2
	c-0.5-1.4-1.7-2.5-3.2-2.8c-0.6-0.2-1.1-0.5-1.5-1c-0.2,1.6,0.5,3.1,1.9,4l-0.1,0.1c-2-0.5-2.3-2.6-2.1-4.1c0-0.4,0.2-0.4,0.5-0.2
	s0.6,0.5,0.9,0.7c0.9,0.5,1.9,0.5,2.8,0.9c0.1,0.1,0.3,0,0.3-0.2c0.5,1.3,1.3,2.5,2.2,3.5c0.1-0.4,0.1-0.8,0.1-1.3
	c0.1-1.7-0.2-3.2-1.6-4.3c0,0,0-0.1-0.1-0.2v-0.1v-0.1c0.9,0.7,1.9,1.3,2.2,2.5c0.1,0.4,0.1,0.8,0.1,1.2c0,0.1-0.1,0.2-0.1,0.3
	c-0.4,1.9-0.3,2.2,1.7,2.2c0.9,0,1.7,0.4,2.2,1.2c0.5,0.6,1.2,1,2,1.1C89.3,54.6,89.6,54.7,89.8,54.9z"/>
<path class="st3" d="M81.1,46.3c0,0.1,0,0.2,0.1,0.2c1.4,1.1,1.7,2.7,1.6,4.3c0,0.4,0,0.8-0.1,1.3c-0.9-1-1.7-2.2-2.2-3.5
	c0-0.5,0-1.1,0-1.6S80.5,46.2,81.1,46.3z"/>
<path class="st5" d="M78.2,51.6l0.1-0.1c1.2,0.9,1.2,1.7-0.1,2.6C78.2,53.2,78.2,52.4,78.2,51.6z"/>
<path class="st5" d="M65.7,69.3h2.5c-0.6,0.7-1.6,0.8-2.3,0.2C65.8,69.5,65.8,69.4,65.7,69.3z"/>
<path class="st5" d="M50.2,53c-0.6,0.5-1.3,0.9-2,1.1c0.2-0.6,0.4-1.2,1.3-0.9c0.2-0.2-0.3-0.4-0.1-0.7C49.7,52.7,49.8,53,50.2,53z"
	/>
<path class="st5" d="M35.7,88c0.1-0.6,0.5-1.2,1.1-1.5C37,87.3,36.7,87.6,35.7,88z"/>
<path class="st5" d="M57.2,50.3c0.6-0.2,1.2-0.2,1.8,0C58.4,50.5,57.8,50.5,57.2,50.3z"/>
<path class="st4" d="M77.8,54.4C77.7,54.4,77.7,54.4,77.8,54.4L77.8,54.4z"/>
<path class="st4" d="M84.7,54.9c-0.4-0.4-0.9-0.8-1.5-1c0.4-0.1,0.9-0.4,1.3-0.1S84.7,54.4,84.7,54.9z"/>
<path class="st4" d="M63.1,69.7c-0.1-0.3-0.7-0.3-0.5-0.8c0.1-0.2,0.4-0.2,0.6-0.1C63.6,69,63.2,69.3,63.1,69.7z"/>
<path class="st4" d="M73.7,66c0-0.1,0.1-0.2,0.2-0.3c0,0,0.1,0,0.1,0S73.9,65.9,73.7,66L73.7,66z"/>
<path class="st1" d="M32.4,103.8c0.3,1.4,0.6,2.7,0.9,3.9c0.1,0.3-0.1,0.3-0.3,0.4c-1.7,0.1-1.7,0.1-1.3-1.5
	C32,105.7,32.2,104.9,32.4,103.8z"/>
<path class="st0" d="M24.1,126.6c0-0.2-0.1-0.3-0.4-0.3c-0.4,0-0.8,0.1-1.2,0.1c-0.2,0-0.4,0.1-0.4-0.2c0-0.2,0.1-0.5,0.3-0.5
	c0.5-0.2,1-0.2,1.5,0c0.4,0.2,1,0.1,1.3-0.2l3.7,0.1c0.6,0.3,1.3,0.4,1.9,0.2c0.7,0.1,1.5,0.1,2.2-0.1h0.4c0.3,0.3,0.6,0.1,0.9,0.1
	s0.5,0.2,0.5,0.5l-1.9,0.1c0-0.1-0.1-0.2-0.1-0.2s-0.2,0.1-0.2,0.2h-1.1c-0.3-0.2-0.7-0.2-1-0.1c-0.2,0.1-0.5,0.1-0.7,0
	c-0.4-0.3-0.9-0.2-1.4-0.1c-0.7,0-1.4,0.1-2.1,0.2c-0.7,0.1-1.4-0.1-2,0.2L24.1,126.6z M24.8,126.2c0,0-0.1-0.1-0.1-0.1
	s-0.1,0-0.1,0.1s0.1,0.1,0.1,0.1S24.8,126.3,24.8,126.2L24.8,126.2z"/>
<path class="st1" d="M35.8,120.4l8.3,0.1c0.2,0,0.4-0.1,0.4,0.2s-0.3,0.2-0.4,0.2l-7.3,0.1h-1.2C35.4,120.7,36.1,120.8,35.8,120.4z"
	/>
<path class="st1" d="M34.9,126.4c0-0.4-0.1-0.5-0.5-0.5s-0.6,0.1-0.9-0.1l6.2,0.1c1,0,2.1,0.1,3.1,0.1c0.1,0,0.4-0.1,0.4,0.1
	s-0.2,0.3-0.4,0.3L34.9,126.4z"/>
<path class="st1" d="M24.4,126.6c0.6-0.4,1.3-0.1,2-0.2c0.7-0.1,1.4-0.2,2.1-0.2c0.5,0,0.9-0.2,1.4,0.1c0.2,0.1,0.5,0.1,0.7,0
	c0.3-0.2,0.7-0.1,1,0.1c-0.7,0.1-1.5,0.2-2.2,0.1C27.7,126.6,26,126.6,24.4,126.6z"/>
<path class="st1" d="M33.1,125.7c-0.7,0.2-1.5,0.2-2.2,0.1c-0.7,0.1-1.3,0-1.9-0.2C30.3,125.6,31.7,125.6,33.1,125.7z"/>
<path class="st0" d="M35.8,120.4c0.3,0.4-0.4,0.4-0.3,0.7c-0.3,0.1-0.6,0.1-0.8,0c-0.2-0.2-0.7-0.2-0.6-0.7L35.8,120.4z"/>
<path class="st1" d="M32.7,126.5c0-0.1,0-0.2,0.2-0.2s0.1,0.1,0.1,0.2H32.7z"/>
<path class="st0" d="M45.6,106.1L45.6,106.1L45.6,106.1L45.6,106.1z"/>
<path class="st1" d="M126.4,106.1c0,1.7-1,2.9-2.6,2.7c-1.3-0.1-2.2-1.3-2.1-2.9s1.1-2.6,2.4-2.6S126.4,104.5,126.4,106.1z"/>
<path class="st1" d="M105.5,105.9c0-1,0.5-1.8,1.3-2.3c1.1-0.6,2.4-0.2,2.9,0.9c0,0,0,0.1,0.1,0.1c0.4,0.9,0.5,1.9,0.1,2.8
	c-0.3,0.9-1.2,1.6-2.2,1.5c-0.9,0-1.7-0.7-2-1.6C105.6,106.8,105.5,106.4,105.5,105.9z"/>
<path class="st1" d="M92.1,103.9c0-0.3,0-0.5,0-0.8c-0.1-0.5,0.1-0.7,0.6-0.7s1.2,0.1,1.5,0.8c0.2,0.5,0.2,1.1-0.1,1.6
	c-0.4,0.6-1.1,0.5-1.7,0.5c-0.2,0-0.3-0.1-0.3-0.3C92.1,104.7,92.1,104.3,92.1,103.9z"/>
<path class="st1" d="M78.8,103.5c0.3,1.4,0.6,2.8,1,4.2c0.1,0.3,0,0.3-0.3,0.4c-1.7,0.1-1.7,0.1-1.3-1.5
	C78.5,105.6,78.7,104.5,78.8,103.5z"/>
<path class="st1" d="M87.5,122.4c-0.8,0-1.5,0-2.3,0c-0.3,0-0.5,0-0.4-0.4c0.4-2,0.4-2,2.5-2c1,0,2,0,3,0c0.6,0,0.8,0.3,0.7,0.9
	c-0.2,1.3-0.5,1.6-1.9,1.6L87.5,122.4L87.5,122.4z"/>
<path class="st1" d="M92.6,124c-0.2-0.1-0.5-0.2-0.6-0.4l0.9-0.4c0,0,0,0.1,0.1,0.1C93.1,123.6,92.5,123.6,92.6,124L92.6,124z"/>
<path class="st0" d="M94.7,121.2c-0.2,0.5-0.5,0.5-0.9,0.3c0,0,0-0.1,0.1-0.1c0.2,0,0.3-0.2,0.4-0.3S94.6,120.8,94.7,121.2z"/>
<path class="st1" d="M93,123l0.2-0.2l0,0L93,123L93,123z"/>
<path class="st1" d="M92.8,123.1l0.1-0.1l0.1,0.1l-0.1,0.1C92.9,123.2,92.8,123.2,92.8,123.1z"/>
<path class="st0" d="M92.6,124.1l0.1,0.2L92.6,124.1z"/>
<path class="st0" d="M124,121.1c-0.1-0.1-0.3-0.1-0.4-0.1c-0.9,0-0.9,0-0.9-1c0-0.3,0.2-0.3,0.4-0.3h1.4c0.1,0,0.3,0,0.3,0.1
	c0.2,0.6,0.5,0.6,0.9,0.3c0.2-0.1,0.2,0,0.3,0.1s0,0.3-0.2,0.3c-0.4,0.1-0.7,0.2-0.9,0.5h-0.3c0-0.1-0.1-0.1-0.1,0L124,121.1z"/>
<path class="st1" d="M124.4,121.1c0-0.1,0.1-0.1,0.1,0H124.4z"/>
<path class="st1" d="M75.6,119.9c0.7,0,1.3,0,2,0s0.8,0.3,0.7,0.9c-0.3,1.5-0.5,1.6-2,1.7c-1.1,0-2.2,0-3.3,0
	c-0.5,0-0.7-0.1-0.5-0.6s0.2-1.5,0.6-1.9s1.3-0.1,1.9-0.1L75.6,119.9L75.6,119.9z"/>
<path class="st0" d="M33.3,93.4c-0.1,0-0.3,0-0.2-0.2s0.1-0.1,0.2-0.1V93.4z"/>
<path class="st0" d="M67,124.2c0,0.7,0,0.7-1,0.1c0.5,0,0.6-0.4,0.9-0.7s0.2-0.6,0.1-1c-0.3,0-0.3,1-0.7,0.1c0-0.1,0,0,0,0
	s0.1,0,0.1,0l0.1-0.1c0,0-0.1,0-0.2,0.1c-0.6,0.3-0.1,0.6-0.1,1c-0.6-0.2-1-0.6-1.2-1.2c-0.1-0.2,0-0.5,0.3-0.4s0.4-0.2,0.6-0.4
	c0.4-0.4,1.2-0.5,1.2-1.3c0.6,0,0.8-0.5,1.1-0.8s0.7-0.1,1.1,0.1c0,0,0,0,0,0.1c-0.4,0.8,0.6,1.6,0,2.4c-0.3,0.4-0.3,1.1-0.9,1.3
	c-0.3,0.1-0.7,0.1-1.1-0.1C67.2,123.7,67.5,124.2,67,124.2C66.9,124.2,66.9,124.2,67,124.2c-0.1,0-0.1-0.1-0.1-0.1l-0.1-0.1
	C66.8,124,66.9,124.1,67,124.2z M66.9,121.5v0.1c0,0,0.1,0.1,0.1,0s0-0.1,0.1-0.1H66.9z M68,122.6c0,0-0.1,0.1,0,0.1s0.1,0,0.1,0.1
	s0.1-0.1,0-0.1S68.1,122.6,68,122.6L68,122.6z"/>
<path class="st0" d="M61,125.3c0-0.2-0.1-0.4,0.2-0.5C61.3,125.1,61.3,125.3,61,125.3z"/>
<path class="st0" d="M92.9,123.3l0.1-0.1l0.2-0.3c0.2,0,0.5,0,0.6-0.4c0.1-0.3,0.3-0.5,0.5-0.6c-0.5,0.8-0.3,1.7-0.6,2.6
	c-0.4-0.2-0.6-0.6-1-0.5C92.5,123.6,93.1,123.6,92.9,123.3z"/>
<path class="st0" d="M93.9,124.8L93.9,124.8L93.9,124.8z"/>
<path class="st1" d="M24.8,126.2c0,0-0.1,0.1-0.1,0.1s-0.1,0-0.1-0.1s0.1-0.1,0.1-0.1S24.8,126.2,24.8,126.2z"/>
<path class="st1" d="M66.9,121.5H67c0,0,0,0.1-0.1,0.1s-0.1,0-0.1,0L66.9,121.5z"/>
<path class="st1" d="M66.9,124.1V124l0.1,0.1c0,0,0.1,0.1,0,0.1C67,124.2,66.9,124.2,66.9,124.1z"/>
<path class="st1" d="M68,122.6c0,0,0.1,0,0.1,0.1s0,0.1,0,0.1s-0.1,0-0.1-0.1S68,122.7,68,122.6z"/>
<path class="st1" d="M66.3,122.6l0.1,0.1l-0.1,0.1c0,0-0.1,0.1-0.1,0C66.3,122.8,66.3,122.7,66.3,122.6z"/>
</svg>
