<?xml version="1.0" encoding="utf-8"?>
<!-- Generator: Adobe Illustrator 21.1.0, SVG Export Plug-In . SVG Version: 6.00 Build 0)  -->
<svg version="1.1" id="Layer_1" xmlns="http://www.w3.org/2000/svg" xmlns:xlink="http://www.w3.org/1999/xlink" x="0px" y="0px"
	 viewBox="0 0 181 79" style="enable-background:new 0 0 181 79;" xml:space="preserve">
<style type="text/css">
	.st0{fill:#E23940;}
	.st1{fill:#0B74BA;}
	.st2{fill:#FFFFFF;}
	.st3{fill:#097AB0;}
</style>
<title>Grocery</title>
<ellipse cx="91.1" cy="37.8" rx="89.4" ry="36"/>
<ellipse class="st0" cx="89.9" cy="36.5" rx="89.4" ry="36"/>
<path d="M97.8,32.8c-0.5,1.6-1,3.2-1.5,4.8c-0.2,0.5-0.5,0.6-1.1,0.3c-1.5-0.9-3.2-0.4-4.8-0.5c-0.6,0-0.9,0.4-1.1,0.9
	c-1,2.7-1.9,5.4-2.6,8.2c0,0.1,0,0.3-0.1,0.4c-0.2,0.7,0.6,1.5,0,2s-1.5,0.2-2.3,0.3c-1.9-0.1-3.9,0.1-5.8,0.3
	c-0.1-0.3-0.2-0.5-0.2-0.5c1.8-1.8,2-4.2,2.7-6.4c1.8-5.5,3.4-11.1,5.1-16.7c0.2-0.7,0.3-1.5,0.2-2.3c-0.2-1.2-0.1-1.3,1.1-1.3
	l14.9-0.1c0.4,0,0.8,0,1.2,0c0.7,0.1,1.1,0.4,0.8,1.2c-0.3,1.1-0.6,2.3-0.8,3.4c-0.1,0.7-0.5,0.8-1.1,0.5c-2.6-0.9-5.4-1.2-8.1-1
	c-1.6,0-1.8,0.1-2.3,1.6s-0.8,2.9-1.2,4.3c-0.2,0.9,0.2,1.3,1,1.2c1.9-0.2,3.8,0.1,5.5-1L97.8,32.8z"/>
<path d="M40.1,22.6c0.9-0.9,2-0.4,3-0.7c1.8,0.7,3.8,0,5.6,0.4c0.1,0.2,0.1,0.4-0.1,0.5c0,0,0,0,0,0c-4.3,2.8-7.8,6.5-11.6,9.8
	c-0.7,0.5-1,1.4-0.7,2.2c1.3,4.1,2.6,8.2,3.7,12.4c0.6,2.9,2.5,5.4,5.1,6.9c0.2,0.1,0.3,0.2,0.5,0.3c0.2,0.1,0.4,0.3,0.4,0.6
	s-0.3,0.4-0.6,0.4l-0.4,0.1c-1.9,0.3-3.8,0.1-5.6-0.6c-2.2-0.8-3.9-2.4-4.9-4.5c-0.6-1.2-1-2.5-1.4-3.9c-0.6-2.3-1.1-4.7-1.8-7
	c-0.2-0.8-0.5-1.5-0.8-2.2c-0.9-2.2-0.1-4.6,1.9-5.9c0.1-0.1,0.1-0.2,0.2-0.3c2.8-1.7,4.8-4.1,7.1-6.3
	C40.4,24.3,40.9,23.5,40.1,22.6z"/>
<path d="M79.1,31.5c-3.8,4.5-6.7,9.1-9.9,13.5c-1.3,1.8-2.6,3.6-3.8,5.4c-2.1,3.3-5.8,5.1-9.7,4.8c-1.7-0.1-1.9-0.3-1.3-1.9
	c0.2-0.4,0.3-0.8,0.5-1.3c0.2-0.5,0.5-0.6,1.1-0.4c2.4,0.8,5.1-0.2,6.3-2.5c0.3-0.5,0.3-1.1,0.2-1.7c-0.8-5-1.2-10-2.3-14.9
	c-0.2-0.7-0.1-1.1,0.6-1.1c2,0,3.9,0,5.9,0c0.6,0,0.8,0.4,0.5,0.9c-1,2.5,0.2,4.9,0.4,7.3c0,0.7,0.7,0.6,1,0.1
	c1.2-2.2,2.9-4,4.1-6.2c0.2-0.2,0.3-0.5,0.3-0.7c-0.2-1.4,0.7-1.6,1.8-1.5C76.1,31.5,77.4,31.5,79.1,31.5z"/>
<path d="M105.2,48.2c-4.5,0.1-8.4-2.9-7.1-8c1.1-4.4,4-7,8.1-8.6c1.7-0.7,3.6-0.8,5.4-0.3c3.2,0.8,5.2,4,4.4,7.2
	c-0.6,2.9-2.2,5.5-4.6,7.2C109.6,47.2,107.4,48.1,105.2,48.2z M110.7,36.8c0.1-1.1,0-1.8-0.7-2.3c-0.7-0.4-1.5-0.4-2.2,0
	c-0.6,0.4-1.1,0.9-1.5,1.5c-1.1,2.1-1.8,4.5-2,6.9c-0.2,1.6,1.1,2.5,2.7,1.9c0.6-0.3,1.1-0.7,1.5-1.3
	C109.9,41.5,110.2,38.9,110.7,36.8L110.7,36.8z"/>
<path d="M122.8,48.2c-2.3-0.1-4.3-1.5-5.3-3.5c-0.3-0.6-0.5-1.4-0.5-2.1c-0.1-4.9,3.2-9.3,8.2-10.9c2.3-0.9,4.8-0.7,7,0.4
	c2.2,1.1,3.2,4.3,2.7,6.6C133.7,44.4,128.6,48.4,122.8,48.2z M129.2,37.5c0.1-2-0.2-2.9-1-3.1c-1-0.3-2,0.1-2.6,0.9
	c-0.3,0.3-0.6,0.7-0.8,1.1c-1.1,2.1-1.7,4.4-1.9,6.7c-0.2,1.7,1.1,2.5,2.7,1.8c0.6-0.2,1.1-0.7,1.5-1.2
	C128.1,41.8,128.8,39.7,129.2,37.5L129.2,37.5z"/>
<path d="M24.3,29.6c0.6-1.3,1.1-2.7,1.4-4.2c0.2-0.6,0.2-1.3,0-1.9c-0.1-0.8,0-1.4,1.1-1.3s1.9-0.1,2.9-0.2c1.2,0.4,2.6,0,4.2,0.4
	c-1.3,2-2.3,4.2-2.8,6.5c-1.3,4.6-2.7,9.2-4.1,13.8c-0.2,0.8-0.5,1.5-0.8,2.2c-0.3,1.1-0.8,2.2-0.4,3.4c0.3,0.7-0.1,1.1-0.9,1.1
	c-2.2,0-4.4,0-6.6,0c-0.7,0-0.9-0.4-0.4-1c0.9-0.9,1.4-2,1.6-3.2c0.2-0.3,0.3-0.6,0.4-0.9c1-3.3,2.1-6.6,3-9.9
	C23.4,32.8,24.3,31.3,24.3,29.6z"/>
<path d="M52.8,40.4h-3.3c-0.9,0-1.7,0-1.9,1.2c-0.3,1.2,0.3,2.5,1.4,3.1c1.6,0.5,3.3,0.4,4.8-0.3c0.8-0.3,1.7-1.3,2.2-0.7
	c0.7,0.8-0.8,1.4-0.8,2.4c0,0.5-0.5,0.9-1,1.1c-2.7,1.3-5.8,1.5-8.6,0.6c-2.7-0.9-3.8-2.6-3.8-5.5c0.1-5.8,4.6-10.6,10.3-11.2
	c1.2-0.1,2.4,0.1,3.5,0.5c1.3,0.4,2.3,1.5,2.7,2.9c0.2,0.8,0.3,1.5,0.4,2.3c0,3.2-0.3,3.6-3.5,3.6L52.8,40.4L52.8,40.4z M50.3,37.4
	L50.3,37.4c0.3,0,0.5,0,0.8,0c0.7,0.2,1.3-0.2,1.5-0.8c0.3-0.8,0.1-1.7-0.5-2.3c-0.6-0.4-1.4-0.3-2,0.1c-0.6,0.5-1.1,1.1-1.4,1.8
	c-0.4,0.9-0.2,1.2,0.7,1.3C49.7,37.5,50,37.5,50.3,37.4L50.3,37.4z"/>
<path class="st1" d="M39.9,22c-1,0.3-2,0.5-3,0.8"/>
<path class="st1" d="M33.7,21.8c-1.6-0.4-2.9,0-4.2-0.4c0.4-0.5,0.9-0.8,1.5-0.9c5.4-1.7,10.9-3.2,16.5-4.3c6.6-1.3,13.3-2.1,20-2.6
	c8.5-0.6,17-0.7,25.5-0.3c8.7,0.4,17.3,1.4,25.8,3.2c6.4,1.2,12.7,3.1,18.8,5.6c0.7,0.3,1.4,0.7,2,1c-0.1,0.4-0.3,0.5-0.5,0.4
	c-8-2.8-16.3-4.7-24.7-5.8C101.2,16,88,15.5,74.8,16.2c-6.3,0.3-12.5,1-18.7,2c-3.8,0.6-7.6,1.5-11.3,2.3"/>
<path class="st1" d="M58.4,63.8c-0.2-0.8-1.3-0.7-2-0.8c-9.9-1.1-19.7-3.4-29-7c-4.4-1.6-8.4-3.9-12-6.8c-1.4-1.2-2.7-2.6-3.8-4.2
	c-2.7-3.8-2.6-8.3,0.2-12.2c0.8-1.2,1.7-2.3,2.8-3.2c3.3-2.8,7-5.1,11-6.6c0.2,0.6,0.2,1.3,0,1.9c-0.4,1.4-0.8,2.8-1.4,4.2
	c-2.7,1.6-4.9,4-6.2,6.8c-1.3,3-0.7,6.5,1.5,8.8c-0.2,1.2-0.8,2.4-1.6,3.2c-0.5,0.6-0.4,1,0.4,1c2.2,0,4.4,0,6.6,0"/>
<path d="M127.1,13c-7-1.6-14.2-2.7-21.3-3.2c0,0-18.6-2.9-52.4,1.5c-4.6,0.9-9.3,1.7-13.9,2.9c-4.7,1.2-9.3,2.7-13.8,4.5l0,0
	c0.5-1.2,1.7-1.5,2.7-1.8c3.3-1.2,6.6-2.4,9.9-3.4c3.8-1.1,7.5-2.2,11.3-3c8.3-1.8,16.7-2.9,25.2-3.4c9.1-0.6,18.2-0.7,27.3-0.2
	c10.1,0.4,20.1,1.7,29.9,3.9c7.7,1.6,15.3,4,22.5,7.3c5.3,2.5,10.4,5.3,14.1,10c2.9,3.6,4.7,7.7,3.5,12.6c-0.6,2.3-1.7,4.4-3.2,6.2
	c-2.4,2.8-5.2,5.2-8.4,7c-6.3,3.6-13.1,6.5-20.2,8.4l-1.9,0.6l-1,0.3l-0.6,0.1l-1,0.3c-3.1,0.6-6.2,1.3-9.3,1.9
	c-0.6,0.1-1.4,0.7-1.8-0.3l1.7-2.6c5.6-1.2,11-2.7,16.4-4.6c5.3-2,10.4-4.1,15-7.5c2.9-2,5.2-4.6,6.8-7.7c1.4-2.7,1.5-5.8,0.5-8.6
	c-0.9-2.9-2.8-5.5-5.4-7.3c-0.1-0.1-0.2-0.3-0.3-0.5c-1.4-1.2-1.6-1.2-2.2,0.5c-0.1,0.3-0.2,0.6-0.3,0.9c-0.9,3.4-2,6.8-2.8,10.2
	c-0.7,2.7-2,5.3-1.9,8.2c0,0.6-0.5,0.7-1,0.6c-1.8-0.1-3.7,0.4-5.4-0.5c-0.3-0.1-0.7-0.1-0.9,0.1c-2,1-4.4,0.9-6.4-0.2
	c-1.3-0.8-2-2.1-2.1-3.6c-0.3-4.8,2.2-9.4,6.4-11.6c1.9-1.1,4.2-1.4,6.2-0.7c1,0.4,1.4,0,1.7-0.9c0.4-1.1,0.6-2.3,0.6-3.4
	c-0.1-0.8,0.3-1,1-1c1.5,0,3.1,0,4.9,0c-0.7-1.1-1.8-2-3-2.4c-2.5-1.4-5.1-2.7-7.8-3.8c-3.1-1.3-6.3-2.3-9.6-3.2 M143.5,43.4
	c1.8,0,2.7-1.2,3.3-2.6c0.5-1.4,0.9-2.8,1.3-4.3c0.1-0.5,0.4-1,0-1.5c0.4-0.9-0.1-1.3-0.8-1.6c-0.9-0.3-1.9-0.1-2.5,0.7
	c-2.1,2.2-2.8,4.9-2.8,7.8c-0.1,0.8,0.5,1.4,1.3,1.5C143.3,43.3,143.4,43.3,143.5,43.4L143.5,43.4z"/>
<path class="st2" d="M127.1,12.2c-7-1.6-14.2-2.7-21.3-3.2c0,0-18.6-2.9-52.4,1.5c-4.6,0.9-9.3,1.7-13.9,2.9
	c-4.7,1.2-9.3,2.7-13.8,4.5l0,0c0.5-1.2,1.7-1.5,2.7-1.8c3.3-1.2,6.6-2.4,9.9-3.4c3.8-1.1,7.5-2.2,11.3-3c8.3-1.8,16.7-2.9,25.2-3.4
	c9.1-0.6,18.2-0.7,27.2-0.2C112,6.3,122,7.6,131.8,9.8c7.7,1.6,15.3,4,22.5,7.3c5.3,2.5,10.4,5.3,14.1,10c2.9,3.6,4.7,7.7,3.5,12.6
	c-0.6,2.3-1.7,4.4-3.2,6.2c-2.4,2.8-5.2,5.2-8.4,7c-6.3,3.6-13.1,6.5-20.2,8.4l-1.9,0.6l-1,0.3l-0.6,0.1l-1,0.3
	c-3.1,0.6-6.2,1.3-9.3,1.9c-0.6,0.1-1.4,0.7-1.8-0.3l1.7-2.6c5.6-1.2,11-2.7,16.4-4.6c5.3-2,10.4-4.1,15-7.5c2.9-2,5.2-4.6,6.8-7.7
	c1.4-2.7,1.5-5.8,0.5-8.6c-0.9-2.9-2.8-5.5-5.4-7.3c-0.1-0.1-0.2-0.3-0.3-0.5c-1.4-1.2-1.6-1.2-2.2,0.5c-0.1,0.3-0.2,0.6-0.3,0.9
	c-0.9,3.4-2,6.8-2.8,10.2c-0.7,2.7-2,5.3-1.9,8.2c0,0.6-0.5,0.7-1,0.6c-1.8-0.1-3.7,0.4-5.4-0.5c-0.3-0.1-0.7-0.1-0.9,0.1
	c-2,1-4.4,0.9-6.4-0.2c-1.3-0.8-2-2.1-2.1-3.6c-0.3-4.8,2.2-9.4,6.4-11.6c1.9-1.1,4.2-1.4,6.2-0.7c1,0.4,1.4,0,1.7-0.9
	c0.4-1.1,0.6-2.3,0.6-3.4c-0.1-0.8,0.3-1,1-1c1.5,0,3.1,0,4.9,0c-0.7-1.1-1.8-2-3-2.4c-2.5-1.4-5.1-2.7-7.8-3.8
	c-3.1-1.3-6.3-2.3-9.6-3.2 M143.5,42.6c1.8,0,2.7-1.2,3.3-2.6c0.5-1.4,0.9-2.8,1.3-4.3c0.1-0.5,0.4-1,0-1.5c0.4-0.9-0.1-1.3-0.8-1.6
	c-0.9-0.3-1.9-0.1-2.5,0.7c-2.1,2.2-2.8,4.9-2.8,7.8c-0.1,0.8,0.5,1.4,1.3,1.5C143.3,42.6,143.4,42.5,143.5,42.6L143.5,42.6z"/>
<path class="st1" d="M50.6,19.2c0,0-15.2,2.3-28.5,10.8l0.5-4.1l12.6-6.3L51,17.5L50.6,19.2z"/>
<path class="st2" d="M97.3,31.4c-0.5,1.6-1,3.2-1.5,4.8c-0.2,0.5-0.5,0.6-1.1,0.3c-1.5-0.9-3.2-0.4-4.8-0.5c-0.6,0-0.9,0.4-1.1,0.9
	c-1,2.7-1.9,5.4-2.6,8.2c0,0.1,0,0.3-0.1,0.4c-0.2,0.7,0.6,1.5,0,2s-1.5,0.2-2.3,0.3c-1.9-0.1-3.9,0.1-5.8,0.3
	c-0.1-0.3-0.2-0.5-0.2-0.5c1.8-1.8,2-4.2,2.7-6.4c1.8-5.5,3.4-11.1,5.1-16.7c0.2-0.7,0.3-1.5,0.2-2.3c-0.2-1.2-0.1-1.3,1.1-1.3
	l14.9-0.1c0.4,0,0.8,0,1.2,0c0.7,0.1,1.1,0.4,0.8,1.2c-0.3,1.1-0.6,2.3-0.8,3.4c-0.1,0.7-0.5,0.8-1.1,0.5c-2.6-0.9-5.4-1.2-8.1-1
	c-1.6,0-1.8,0.1-2.3,1.6s-0.8,2.9-1.2,4.3c-0.2,0.9,0.2,1.3,1,1.2c1.9-0.2,3.8,0.1,5.5-1L97.3,31.4z"/>
<path class="st2" d="M39.6,21.2c0.9-0.9,2-0.4,3-0.7c1.8,0.7,3.8,0,5.6,0.4c0.1,0.2,0.1,0.4-0.1,0.5c0,0,0,0,0,0
	c-4.3,2.8-7.8,6.5-11.6,9.8c-0.7,0.5-1,1.4-0.7,2.2c1.3,4.1,2.6,8.2,3.7,12.4c0.6,2.9,2.5,5.4,5.1,6.9c0.2,0.1,0.3,0.2,0.5,0.3
	c0.2,0.1,0.4,0.3,0.4,0.6s-0.3,0.4-0.6,0.4l-0.4,0.1c-1.9,0.3-3.8,0.1-5.6-0.6c-2.1-0.8-3.9-2.4-4.9-4.4c-0.6-1.2-1-2.5-1.4-3.9
	c-0.6-2.3-1.1-4.7-1.8-7c-0.2-0.8-0.5-1.5-0.8-2.2C29.2,34,30,31.5,32,30.2c0.1-0.1,0.1-0.2,0.2-0.3c2.8-1.7,4.8-4.1,7.1-6.3
	C39.8,23,40.4,22.1,39.6,21.2z"/>
<path class="st2" d="M78.6,30.1c-3.8,4.5-6.7,9.1-9.9,13.5c-1.3,1.8-2.6,3.6-3.8,5.4c-2.1,3.3-5.8,5.1-9.7,4.8
	c-1.7-0.1-1.9-0.3-1.3-1.9c0.2-0.4,0.3-0.8,0.5-1.3c0.2-0.5,0.5-0.6,1.1-0.4c2.4,0.8,5.1-0.2,6.3-2.5c0.3-0.5,0.3-1.1,0.2-1.7
	c-0.8-5-1.2-10-2.3-14.9c-0.2-0.7-0.1-1.1,0.6-1.1c2,0,3.9,0,5.9,0c0.6,0,0.8,0.4,0.5,0.9c-1,2.5,0.2,4.9,0.4,7.3
	c0,0.7,0.7,0.6,1,0.1c1.2-2.2,2.9-4,4.1-6.2c0.2-0.2,0.3-0.5,0.3-0.7c-0.2-1.4,0.7-1.6,1.8-1.5C75.6,30.1,76.9,30.1,78.6,30.1z"/>
<path class="st2" d="M104.6,46.9c-4.5,0.1-8.4-2.9-7.1-8c1.1-4.4,4-7,8.1-8.6c1.7-0.7,3.6-0.8,5.4-0.3c3.2,0.8,5.2,4,4.4,7.2
	c-0.5,2.9-2.2,5.5-4.6,7.3C109.1,45.9,106.9,46.8,104.6,46.9z M110.2,35.5c0.1-1.1,0-1.8-0.7-2.3c-0.7-0.4-1.5-0.4-2.2,0
	c-0.6,0.4-1.1,0.9-1.5,1.5c-1.1,2.1-1.8,4.5-2,6.9c-0.2,1.6,1.1,2.5,2.7,1.9c0.6-0.3,1.1-0.7,1.5-1.3
	C109.4,40.1,109.7,37.6,110.2,35.5L110.2,35.5z"/>
<path class="st2" d="M122.3,46.9c-2.3-0.1-4.3-1.5-5.3-3.5c-0.3-0.6-0.5-1.4-0.5-2.1c-0.1-4.9,3.2-9.3,8.2-10.9
	c2.3-0.9,4.8-0.7,7,0.4c2.2,1.1,3.2,4.3,2.7,6.6C133.2,43,128.1,47,122.3,46.9z M128.7,36.2c0.1-2-0.2-2.9-1-3.1
	c-1-0.3-2,0.1-2.6,0.9c-0.3,0.3-0.6,0.7-0.8,1.1c-1.1,2.1-1.7,4.4-1.9,6.7c-0.2,1.7,1.1,2.5,2.7,1.8c0.6-0.2,1.1-0.7,1.5-1.2
	C127.6,40.4,128.3,38.3,128.7,36.2L128.7,36.2z"/>
<path class="st2" d="M23.8,28.2c0.6-1.3,1.1-2.7,1.4-4.2c0.2-0.6,0.2-1.3,0-1.9c-0.1-0.8,0-1.4,1.1-1.3s1.9-0.1,2.9-0.2
	c1.2,0.4,2.6,0,4.2,0.4c-1.3,2-2.3,4.2-2.8,6.5c-1.3,4.6-2.7,9.2-4.1,13.8c-0.2,0.8-0.5,1.5-0.8,2.2c-0.3,1.1-0.8,2.2-0.4,3.4
	c0.3,0.7-0.1,1.1-0.9,1.1c-2.2,0-4.4,0-6.6,0c-0.7,0-0.9-0.4-0.4-1c0.9-0.9,1.5-2,1.6-3.2c0.2-0.3,0.3-0.6,0.4-0.9
	c1-3.3,2.1-6.6,3-9.9C22.9,31.5,23.8,30,23.8,28.2z"/>
<path class="st2" d="M52.3,39.1H49c-0.9,0-1.7,0-1.9,1.2c-0.3,1.2,0.3,2.5,1.4,3.1c1.6,0.5,3.3,0.4,4.8-0.3c0.8-0.3,1.7-1.3,2.2-0.7
	c0.7,0.8-0.8,1.4-0.8,2.4c0,0.5-0.5,0.9-1,1.1c-2.7,1.3-5.8,1.5-8.6,0.6c-2.7-0.9-3.8-2.6-3.8-5.5c0.1-5.8,4.6-10.6,10.3-11.2
	c1.2-0.1,2.4,0.1,3.5,0.5c1.3,0.4,2.3,1.6,2.6,2.9c0.2,0.8,0.3,1.5,0.4,2.3c0,3.2-0.3,3.6-3.5,3.6L52.3,39.1L52.3,39.1z M49.8,36.1
	L49.8,36.1c0.3,0,0.5,0,0.8,0c0.7,0.2,1.3-0.2,1.5-0.8c0.3-0.8,0.1-1.7-0.5-2.3c-0.6-0.4-1.4-0.3-2,0.1c-0.6,0.5-1.1,1.1-1.4,1.8
	c-0.4,0.9-0.2,1.2,0.7,1.3C49.2,36.1,49.5,36.1,49.8,36.1L49.8,36.1z"/>
<path class="st1" d="M37.1,54.4c0,0,15.5,5.4,26.9,6.9l-6.1,2c0,0-1.3,0.1-5.6-1.3l-15.7-7.6L37.1,54.4z"/>
<path class="st3" d="M50.1,75.9c0.9-2.8,2.2-5.5,3.8-7.9c3.3-5.1,8.6-8.5,14.6-9.3c0.1,0,9-0.6,18.4-0.6c4.6,0,9.2,0.2,13.8,0.6
	c0,0,4.4,0.3,9.7,0.3c5.7,0,13.3-0.4,17.4-2l0.7-0.3l-0.2,0.8c0,0.1-3.1,12.3-13.7,16.2c-0.3,0.2-3.7,1.7-13.8,1.7
	c-0.3,0-26.6-0.5-30.5-0.5c0,0-1,0-2.6,0c-4.4,0-12.6,0.3-17.4,2.6l-0.8,0.4L50.1,75.9z"/>
<path d="M128,57.4c0,0-2.9,12-13.5,16c0,0-3.2,1.7-13.6,1.7c0,0-26.6-0.5-30.5-0.5c0,0-1,0-2.6,0c-4.2,0-12.6,0.3-17.6,2.6l0.3-1
	c0,0,4.1-15.1,18.1-16.9c0,0,8.9-0.6,18.4-0.6c4.6,0,9.2,0.2,13.8,0.6c0,0,4.4,0.3,9.8,0.3c6.1,0,13.5-0.4,17.5-2.1 M129.1,56.2
	l-1.4,0.6c-3.2,1.3-9.1,2-17.2,2c-5.2,0-9.4-0.3-9.7-0.3c-4.6-0.4-9.2-0.6-13.8-0.6c-9.4,0-18.3,0.6-18.4,0.6h-0.1
	c-6,0.8-11.1,4.1-14.9,9.5c-1.7,2.4-3,5.1-3.9,8l-0.3,1l-0.5,1.6l1.6-0.8c4.8-2.2,12.9-2.6,17.3-2.6c1.6,0,2.6,0,2.6,0l0,0
	c3.9,0,30.3,0.5,30.5,0.5l0,0c9.9,0,13.4-1.5,13.9-1.7c4.7-1.9,8.7-5.3,11.1-9.8c1.2-2.1,2.2-4.4,2.9-6.7l0.4-1.5L129.1,56.2z"/>
<path class="st2" d="M113.6,63c-0.7,2.6-1.4,5.2-2,7.7c-0.4,1.4-1.4,0.7-2.3,0.9c-0.2-0.9,0.3-1.5,0.4-2.1c0.5-1.7,0.3-2-1.4-2
	c-0.3,0-0.6,0-1,0c-0.8-0.1-1.5,0.4-1.6,1.2c0,0,0,0.1,0,0.1c0,0.3-0.1,0.5-0.2,0.8c-0.4,2-0.4,2-2.8,1.9c1-2.6,1.5-5.3,2.2-7.9
	c0.2-0.6,1.3-1,2-0.6s0.3,0.9,0.2,1.3c-0.1,0.3-0.2,0.5-0.3,0.7c-0.4,1.2-0.2,1.4,1.2,1.4h0.8c1.6-0.1,1.7-0.1,2.1-1.7
	C111.4,62.8,111.4,62.8,113.6,63z"/>
<path class="st2" d="M80.9,71.3c-2.1,0.6-2.8,0-3.3-1.9c0-0.7-0.3-1.4-0.7-2.1c-0.8,0.6-0.8,1.6-1,2.5c-0.6,1.8-0.5,1.8-2.5,1.7
	c-0.4-0.4,0-0.8,0.1-1.3c0.5-2,1.1-4,1.6-6.1c0.2-0.7,0.4-1.3,1.2-1.3c1.2,0,2.5,0,3.7,0.1c0.8,0.1,1.6,0.4,1.8,1.3
	c0.1,0.8-0.3,1.6-1,1.9c-1.3,0.9-1.3,0.9-0.8,2.5C80.3,69.7,80.6,70.5,80.9,71.3z M77.1,66.8c0.8,0,1.6-0.4,2-1.2
	c0.4-0.6,0.5-1.1-0.2-1.5c-0.5-0.3-1.1-0.2-1.4,0.2c0,0.1-0.1,0.1-0.1,0.2C77,65.3,76.9,66.1,77.1,66.8z"/>
<path class="st2" d="M95.1,71.6c-0.2,0-0.8-0.1-1.3-0.2s-1.1-0.5-0.9-1.2c0.2-0.7,0.8-0.4,1.3-0.2c0.5,0.2,1.1,0.4,1.7,0.5
	c0.6,0.1,1.2-0.1,1.6-0.5c0.6-0.5,0.6-1.1-0.1-1.6s-1.3-0.7-1.9-1c-1.3-0.7-1.5-1.7-0.7-2.8c1.5-1.5,3.7-2.1,5.7-1.5
	c0.4,0.2,0.7,0.4,0.5,0.9s-0.6,0.6-1.1,0.4c-0.8-0.6-1.8-0.6-2.6,0c-0.8,0.6-0.8,1.4,0.2,1.8c0.5,0.2,1.1,0.4,1.6,0.7
	c1,0.4,1.5,1.6,1,2.6c-0.1,0.3-0.3,0.5-0.5,0.7C98.4,71.3,96.7,71.8,95.1,71.6z"/>
<path class="st2" d="M90.6,69.9c-0.4,1.3-1.1,1.7-2.2,1.7c-1.6-0.1-3.1,0-4.8,0c0.7-2.8,1.4-5.4,2.1-8.1c0-0.3,0.4-0.6,0.7-0.6
	c1.4,0.1,2.9,0.1,4.3,0c0.5,0,1,0.1,0.9,0.7c-0.1,0.6-0.6,0.6-1,0.5s-1-0.2-1.6-0.2c-0.6-0.1-1.2,0.3-1.4,0.9
	c-0.2,0.5-0.5,1-0.1,1.5c0.4,0.5,0.8,0.3,1.3,0.1c0.1,0,0.3-0.1,0.4-0.1c0.3,0,0.7-0.1,0.8,0.3c0,0.4-0.3,0.8-0.7,0.8c0,0,0,0,0,0
	c-0.3,0-0.5,0-0.8-0.1c-1.2,0-2.2,1-2.2,2.2c0,0.1,0,0.2,0,0.4c0.1,0.4,0.4,0.6,0.8,0.5c0,0,0.1,0,0.1,0
	C88.4,70.4,89.5,70.2,90.6,69.9z"/>
<path class="st2" d="M64.5,71.4c0.7-2.7,1.4-5.3,2-7.9c0.1-0.4,0.4-0.7,0.8-0.7c1.4,0,2.7,0,4.1,0c0.5,0,1,0.1,0.9,0.8
	c-0.1,0.6-0.5,0.7-1,0.6c-0.4-0.1-0.9-0.2-1.3-0.2c-0.8-0.1-1.5,0.4-1.6,1.2c0,0.1,0,0.1,0,0.2c-0.1,0.7,0.2,1.1,1,1.1
	c0.4,0,0.7-0.4,1.1,0c0.1,0.7-0.2,1.1-1,1c-1.9-0.2-1.7,0.3-2.2,1.8c-0.1,0.2-0.1,0.4-0.2,0.6C66.8,71.6,66.8,71.6,64.5,71.4z"/>
<path d="M159.6,37.2c-1.6,0-2.9-1.3-2.9-2.9s1.3-2.9,2.9-2.9s2.9,1.3,2.9,2.9C162.4,36,161.1,37.2,159.6,37.2z M159.6,31.6
	c-1.5,0-2.7,1.2-2.7,2.7c0,1.5,1.2,2.7,2.7,2.7c1.5,0,2.7-1.2,2.7-2.7l0,0C162.3,32.9,161.1,31.6,159.6,31.6
	C159.6,31.6,159.6,31.6,159.6,31.6L159.6,31.6z"/>
<path d="M158.1,36.1v-3.7h1.3c0.2,0,0.5,0,0.7,0.1c0.2,0.1,0.3,0.2,0.4,0.3c0.1,0.2,0.1,0.4,0.1,0.6c0,0.3-0.1,0.5-0.2,0.7
	c-0.1,0.2-0.4,0.3-0.6,0.3c0.1,0.1,0.2,0.2,0.3,0.3c0.1,0.2,0.2,0.4,0.4,0.6l0.4,0.7h-0.7l-0.4-0.8c-0.1-0.2-0.2-0.4-0.3-0.6
	c0-0.1-0.1-0.1-0.2-0.2c-0.1,0-0.2,0-0.3,0h-0.1v1.6L158.1,36.1z M158.7,34h0.5c0.2,0,0.4,0,0.5,0c0.1,0,0.1-0.1,0.2-0.2
	c0.1-0.1,0.1-0.2,0.1-0.3c0-0.1,0-0.2-0.1-0.3c0-0.1-0.1-0.1-0.2-0.2c-0.2,0-0.3,0-0.5,0h-0.5L158.7,34z"/>
</svg>
