<?xml version="1.0" encoding="utf-8"?>
<!-- Generator: Adobe Illustrator 21.1.0, SVG Export Plug-In . SVG Version: 6.00 Build 0)  -->
<svg version="1.1" id="Layer_1" xmlns="http://www.w3.org/2000/svg" xmlns:xlink="http://www.w3.org/1999/xlink" x="0px" y="0px"
	 viewBox="0 0 226.4 80.5" style="enable-background:new 0 0 226.4 80.5;" xml:space="preserve">
<style type="text/css">
	.st0{fill:#C10A27;stroke:#FFFFFF;stroke-width:6.59;}
	.st1{fill:#C00A26;}
	.st2{fill:#F8DCC2;}
	.st3{fill:#1D1D1B;}
	.st4{fill:#FFFFFF;}
	.st5{fill:#FFF4E9;}
	.st6{fill:#C30226;}
	.st7{fill:#99505A;}
	.st8{fill:#FEFDFE;}
	.st9{fill:#B41735;}
</style>
<title>Fast Food</title>
<polygon class="st0" points="4.3,5.3 77.9,5.3 67.9,76.7 13.6,76.7 "/>
<path class="st1" d="M53,7.7c1.7,2.2,2.9,4.8,3.4,7.5c0.1,0.4,0.3,0.8,0.7,1.1c0.1,0,0.2,0,0.4,0.4c0.6,1.7,0,4.3-0.3,5.3
	c-0.3,0.5-0.1,1.2,0.4,1.6c0.8,0.7,1.3,2,1.2,4c-0.2,2.2-0.8,4.4-1.6,6.4c-0.5,1.2-0.6,2.5-0.4,3.7c0.1,0.8-0.8,1.2-0.9,1.3
	c-0.3,0.2-0.5,0.6-0.5,1c0,1.4-0.1,2.7-0.3,4.1c-0.1,0.4,0,0.6,0.1,0.7l0.6,0.5c0.3,0.3,0.6,0.5,0.8,0.8c0.5,0.7,0.8,1,1.2,1.1
	c1.6,0.6,4.1,1.2,5.4,1.8c0.4,0.2,0.5,0.6,0.9,0.6l7.6,0.7l0,0l6.3-45H50.1l2.8,2.2"/>
<path class="st1" d="M21.2,5.9c-0.8,0.3-1.4,0.6-1.6,0.6s-0.8,0.3-0.8,0.7c0,0.3,0.1,0.6,0.2,0.9c0.3,0.6,0.3,1.3,0,1.8
	c-0.8,1.6-1.9,3-3.3,4.1c-0.4,0.3-0.9,0.6-1.2,0.8c-0.5,0.5-0.5,1.3-0.2,1.9c0.4,0.9,1.2,1.7,1.6,2.5c0.5,1.2,0.6,2.6,0.3,3.9
	c-0.1,0.8-0.2,1.5-0.5,2.2c-0.3,0.5-0.3,1.1,0,1.5c0.5,0.7,1.1,1.3,1.7,1.8c0.3,0.2,0.4,0.4,0.2,0.8c-0.3,1-0.3,2,0.1,2.9
	c0.4,1.1,0.9,2.2,1.6,3.3c0.6,0.9,1.3,1.8,2,2.6c0.5,0.5,0.7,1.2,0.6,1.8c-0.1,1.2,0.4,2.3,1.4,2.9c0.7,0.4,0.8,0.3,1.1,0.6
	c0.3,0.2,0.5,0.6,0.6,0.9c0.5,1.5,1.3,2.9,2.2,4.1c0.2,0.2,0.4,0.5,0.6,0.8c0,0.1,0.1,0.1,0,0.5c-0.5,1.4-0.9,2.9-1.3,4.4
	c0,0.5-0.3,0.9-0.7,1.1c-0.5,0.2-1.5,0.8-1.9,1c-0.4,0.2-0.7,0.5-1,0.9c-0.2,0.3-0.3,0.4-0.5,0.5s-0.1,0.1-0.5,0.3
	c-3.5,1.4-6.9,3-10.1,4.9L4.3,5.3h20.4L21.2,5.9"/>
<path class="st1" d="M68.2,65.4C66.7,61.9,63,52.2,62.5,51c-0.4-0.5-1-0.9-1.7-0.9c-0.2,0-0.5,0-0.3,0.6s0.4,1.4,1.3,4.1
	c1,3.4,1.8,6.9,2.4,10.4c0.1,0.7,0.3,0.8,0.8,0.9h0.5c0.4,0,0.8,0.1,1.3,0.2c0.4,0.1,0.2,0.4-0.3,0.4c-0.2,0-1.1,0.1-1.7,0.2l0,0
	c0,0,1.4,5.9,2.3,9.2l0.2,0.7h0.9l1.2-8.8L68.2,65.4"/>
<path class="st1" d="M52.9,68.5L52.9,68.5c-6.3,0.8-12.6,2.2-18.8,3.9c-2.5,0.8-7.2,2.4-8.5,3c-1.2,0.5-1.2-0.6-1.2-1.4
	c-0.1-2.7-0.1-5.4,0.2-8.2c0.5-4.9,0.8-6.4,0.8-6.7s-0.1-0.3-0.2-0.2S25,59,24.9,59.1c-0.4,0.2-0.6,0.7-0.9,1.9
	c-0.4,1.6-2,8.7-2.2,10.6c-0.2,1.5-0.5,4.2-0.7,5.2H54l-0.1-0.4C53.8,75.4,53,69.3,52.9,68.5"/>
<path class="st1" d="M57.8,68.3c0-0.2-0.1-0.4-0.1-0.6L55.8,68L55,68.1l1.4,8.2l0.1,0.4h3l-0.3-1.9C58.5,71.9,58.1,69.7,57.8,68.3"
	/>
<path class="st1" d="M64.3,76c0-0.1-0.1-0.3-0.1-0.4c-0.6-2.4-1.8-8.4-1.8-8.4l-1.8,0.2l-0.7,0.1c0,0,1.6,6.8,1.9,8.8l0.1,0.5h2.7
	l-0.1-0.6L64.3,76"/>
<path class="st2" d="M27.4,28.2c0.3-0.2,0.5-0.4,0.7-0.5s0.2-0.6-0.3-0.5L27,27.4l-0.6,0.2c-0.5,0.2-0.8,0.7-1,1.2
	c-0.1,0.5,0.5,0.7,0.8,0.4S27,28.6,27.4,28.2"/>
<path class="st2" d="M31.2,27.1c-0.7,0.2-1.4,0.6-2,1.1c-0.3,0.2-0.5,0.4-0.7,0.5s-0.6,0.3-0.7,0.4c-0.3,0.4,0.2,0.4,0.3,0.4
	c0.4,0,0.7-0.2,1-0.4c0.5-0.4,1.1-0.7,1.8-1c0.5-0.2,1.1-0.3,1.6-0.2c0.4,0,0.3-0.4-0.1-0.6C32,27.1,31.6,27,31.2,27.1"/>
<path class="st2" d="M35.4,34.6c-0.3,0.6-0.2,1.3,0.2,1.8c0.5,0.6,1.1,0.3,1.1,0.2c0-0.2-0.1-0.4-0.2-0.6c-0.2-0.5-0.3-1-0.1-1.5
	C36.5,34.3,35.8,34,35.4,34.6"/>
<path class="st2" d="M47.3,26c-0.4-0.3-0.9-0.5-1.3-0.5c-0.2,0-0.4,0-0.5,0.1c-0.5,0.2-0.9,0.5-1.2,0.9c-0.1,0.1,0,0.4,0.3,0.3
	s0.6-0.2,1-0.3c0.5-0.1,1-0.1,1.5,0.2c0.4,0.2,0.8,0.4,1.2,0.6c0.3,0.1,0.6,0.1,0.9,0.1c0.4-0.3,0-0.3-0.2-0.4
	C48.2,26.7,47.7,26.3,47.3,26"/>
<path class="st2" d="M50,25.8c0.1-0.4-0.1-0.8-0.5-0.9c-0.6-0.3-1.3-0.3-1.9-0.2c-0.3,0-0.3,0.3-0.1,0.3c0.3,0.1,0.7,0.3,1,0.5
	c0.3,0.2,0.7,0.4,1.1,0.5C49.7,26.1,49.9,26.2,50,25.8"/>
<path class="st2" d="M34.8,46.4c0,0.2-0.2,0.6-0.3,0.9s-0.3,0.4-0.7,0c-1.4-1.4-2.4-5.7-2.4-6.2c0-0.3-0.3-0.6-0.6-0.6
	c-0.1,0-0.1,0-0.2,0c-0.2,0.1-0.4,0.2-0.6,0.3c-0.8,0.8-1.1,2-0.6,3.1c2.2,5.4,5.6,6.4,6.8,6.2c0.5-0.1,0.6-0.4,0.3-0.9
	c-0.5-0.9-0.9-1.8-1.2-2.8C35.1,45.9,34.8,46.3,34.8,46.4"/>
<path class="st2" d="M61.8,65.8L61.8,65.8c0,0,0-0.1,0-0.1s0-0.1,0-0.1l0,0c0,0,0-0.1,0-0.1l0,0c0,0,0-0.3,0-0.4s-0.1-0.6-0.1-0.9
	c0,0,0-0.1,0-0.1l-0.1-0.8V63c0-0.2-0.1-0.4-0.1-0.5s0-0.2-0.1-0.4l-0.1-0.4c0-0.1,0-0.3-0.1-0.4s0-0.2-0.1-0.3s0-0.3-0.1-0.4
	l-0.1-0.4V60l-0.1-0.5v-0.1L61,58.8c-0.2-1.1-0.4-2-0.5-2.8v-0.1c-0.1-0.4-0.1-0.7-0.2-1c0,0,0-0.1,0-0.1c0-0.1,0-0.2-0.1-0.3
	s0-0.1,0-0.1s0-0.2-0.1-0.3v-0.2v-0.2c-0.2-1-0.4-1.6-0.5-2.1c-0.3-1.4-0.9-1.6-1-1.6h-0.1h-0.5l0,0l0,0V50l0,0V50l0,0
	c0,0,0,0.1,0,0.1c0,0.2,0,0.5,0,0.7l0,0c0.4,1.5,0.7,3,1,4.3c0,0.1,0,0.2,0,0.3c0.1,0.6,0.3,2.5,0.8,6.7c0.1,1.4,0.2,2.9,0.3,4.1
	l0.8-0.1l0.2-0.1h0.2l0,0h0.1l0,0h0.1l0,0h0.1l0,0h0.1l0,0c0,0,0,0,0.1-0.1l0,0c0,0,0,0,0-0.1"/>
<path class="st2" d="M26,25.7h0.2h0.2l0.3-0.1h0.2h0.2h0.2h0.2h0.3h0.1c0.1-1,0.1-1.9,0-2.9c0.2-2.7,0.7-5.3,1.6-7.8
	c0.3-0.6,0.6-1.2,1-1.8c0,0,0-0.1,0-0.1c0,0,0-0.2,0-0.3l0,0l-0.2,0.1h-0.1l-0.3,0.1l0,0L29.6,13h-0.1l-0.2,0.1l-0.1,0.1
	c-0.1,0.1-0.2,0.1-0.3,0.2l0,0l-0.3,0.2l-0.1,0.1l-0.2,0.2L28.4,14c-0.1,0.1-0.2,0.2-0.3,0.3c-1.5,2.3-2.2,5-2.2,7.8
	c0,0.4,0,1-0.3,1.3c-0.2,0.2-0.4,0.4-0.6,0.6c-0.1,0.2-0.2,0.4-0.2,0.6c0,0.3,0,0.7,0.1,1c0,0.2,0.2,0.4,0.4,0.4c0,0,0.1,0,0.1,0
	l0.4-0.1l0.3-0.1"/>
<path class="st2" d="M50.6,39c0.3-0.3,0.5-0.6,0.6-1c0.1-0.5,0-1-0.2-1.3c-0.3-0.4-0.7-0.8-1.1-1.1c-0.5-0.3-1.6-1.3-1.8-1.4
	s-0.6-0.6-0.8-0.7c-0.3-0.2-0.6-0.4-0.9-0.6c-0.7-0.4-1.6-0.5-2.4-0.1c-0.2,0.1-0.3,0.2-0.4,0.4c-0.2,0.2,0,0.5,0,0.6l0,0l0,0
	c0,0,0,0,0-0.1l0,0v-0.1l0,0l0,0l0,0l0,0l0,0l0,0h0.6c0.9,0.1,1.7,0.5,2.3,1.2c0.6,0.7,1.2,1.3,1.9,1.9c0.5,0.3,1,0.5,1.5,0.7
	c0.3,0.2,0.5,0.3,0.7,1.5c0,0.1,0,0.3,0,0.4l0,0"/>
<path class="st2" d="M35.2,31.2c0,0.1,0,0.1,0,0.2c-0.1,0.5-0.3,1.1-0.6,1.5c-0.4,0.4-0.9,0.7-1.4,0.9c-0.3,0.1-0.7,0.2-1,0.3h-0.3
	h-0.2h-0.2h0c0,0,0,0.1,0,0.1l0,0c0,0,0,0.1,0,0.1c0,0.1,0.1,0.2,0.1,0.2c0.1,0.2,0.4,0.3,0.6,0.2c0.4-0.1,0.8-0.2,1.1-0.3
	c0.3-0.1,0.6-0.2,0.8-0.3l0.3-0.2l0,0c0.2-0.2,0.4-0.3,0.5-0.4c0.7-0.7,1.1-1.7,1.2-2.7c0-0.2-0.1-0.4-0.2-0.2
	c-0.1,0.2-0.3,0.3-0.4,0.4c0,0-0.1,0.1-0.1,0.1l0,0c0,0-0.1,0-0.1,0l0,0"/>
<path class="st2" d="M28,37l0.3,0.3v0.1h0l0.3,0.3l0,0l0.3,0.3l0.2,0.2l0,0l0.2,0.1l0.1,0.1h0.2h0.1H30h0.2h0.1h0.1l0.2-0.1h0.1
	l0.2-0.1h0.1c0.1-0.1,0.2-0.1,0.2-0.2c0.1-0.1,0.2-0.2,0.4-0.3l0.1-0.1l0.4-0.3l0,0c-0.2,0.1-0.4,0.1-0.6,0l-0.5-0.6
	c-0.2-0.2-0.3-0.4-0.5-0.7S30,35.5,30,35.4c-0.1-0.1-0.1-0.3-0.2-0.4l0,0c0-0.1-0.1-0.2-0.1-0.3c-0.3,0-0.7-0.1-1-0.2
	c0,0,0.1,0.1,0.1,0.1l0,0c0,0,0,0.1,0,0.1l0,0c0,0,0,0,0,0.1l0,0c0,0,0,0.1,0,0.1l0,0c0,0,0,0,0,0.1l0,0c0,0,0,0,0,0.1
	c0,0,0,0.1,0,0.1c-0.1,0.2-0.3,0.4-0.5,0.3c0,0,0,0,0,0c-0.4-0.1-0.7-0.2-1.1-0.3c-0.2-0.1-0.4,0-0.3,0.3c0,0.1,0.1,0.3,0.2,0.4v0.1
	l0.2,0.3v0.1l0.2,0.3l0,0c0.1,0.2,0.2,0.3,0.3,0.4L28,37"/>
<path class="st2" d="M48.3,31.6c-0.2,0-0.3,0.1-0.4,0.2l0,0l0,0l0,0l0,0l0,0l0,0l0,0l0,0l0,0l0.1,0.1l0.3,0.2c0.1,0,0.1,0,0.2,0
	c0.3,0,0.7-0.2,1-0.3h-0.2h-0.1l0,0c0,0-0.1,0-0.1-0.1c-0.1-0.1-0.1-0.3-0.2-0.4c0,0,0-0.1,0-0.1l0,0c0,0,0-0.1,0-0.1l0,0
	c-0.2,0.2-0.4,0.3-0.7,0.3"/>
<path class="st2" d="M38.7,35.8c-0.1-0.2-0.2-0.4-0.3-0.7c-0.1-0.2-0.1-0.4-0.1-0.6c-0.1-0.3-0.1-0.5-0.1-0.8c0.1-0.5,0.1-1,0.3-1.5
	c0-0.6,0-1.2-0.1-1.9c0-0.5,0-1.6,0-2.8l0,0l-0.2,0.1l0,0L38,27.7l0,0l-0.1,0.1l0,0c0,0-0.1,0.1-0.1,0.1c-0.3,0.5-0.4,1.1-0.4,1.6
	c0.1,0.6,0.2,1.5,0.2,2c0,1.1-0.5,2.5-0.3,3.1l0.1,0.2l0,0l0.1,0.2l0,0c0,0.1,0.1,0.1,0.1,0.2v0.1l0.1,0.2l0,0l0.2,0.2l0,0l0.2,0.2
	l0.1,0.1l0.3,0.2l0,0c0.1,0.1,0.2,0.1,0.3,0.2l0,0l0,0c-0.1-0.1-0.1-0.2-0.1-0.3c0-0.1-0.1-0.3-0.2-0.4"/>
<path class="st2" d="M41.9,61.5L41.9,61.5h-0.1l0,0l-0.1,0.1l0,0c-0.1,0.1-0.2,0.1-0.3,0.2l0,0c-0.1,0.1-0.2,0.2-0.3,0.3l0,0
	l-0.2,0.2l0,0l-0.2,0.2l-0.1,0.1l-0.2,0.2l-0.1,0.1l0,0l0,0l0,0c0.2-0.1,0.4-0.1,0.7-0.2c0.1,0-0.2,0.3-0.4,0.6
	c-0.6,1.6-1.2,3.2-2,4.8c-0.1,0.3-0.3,0.5-0.3,0.8l0,0h0.2h0.1h0.1l0.7-0.1h0.1l0,0h0.1l0,0l0,0l0,0h0.1l0,0l0.1-0.1l0,0l0.1-0.1
	l0,0l0.1-0.1l0,0l0.1-0.1l0,0l0.1-0.1l0,0l0.1-0.1l0,0v-0.1V68l0,0l0-0.1l0.1-0.1l0,0l0,0l0.1-0.3l0,0c0,0,0-0.1,0.1-0.2
	c0-0.1,0.1-0.1,0.1-0.2l0,0v-0.1l0.2-0.4c0.7-1.4,1.2-2.9,1.6-4.4c0.1-0.5,0-0.7-0.3-0.6"/>
<path class="st2" d="M48.3,63.9c0.7,0.5,1.4,0.9,2.2,1.2c0.6,0.1,1.2-0.1,1.5-0.6l0,0c0,0-0.1,0-0.1,0h-0.1h-0.1l0,0h-0.1
	c-0.2-0.1-0.3-0.3-1-0.7c-1.5-1.2-3.2-2.1-4.9-2.8c-0.2-0.1-0.5,0.1-0.3,0.3s0.3,0.4,0.4,0.6V62C46.7,62.7,47.8,63.5,48.3,63.9"/>
<path class="st2" d="M34,58.6c-1.2,0.6-0.5,2-0.4,2.9s0.5,2.2,1.5,2.3c1.2-0.1,2.4-0.3,3.5-0.6l0.3-0.6l0.1-0.1
	c0.2-0.4-0.1-0.3-0.3-0.3s-0.5,0.1-1.7,0.3s-1.7,0.1-2-0.2s-0.3-0.9-0.3-1.6s-0.2-1-0.2-1.5c0-0.1,0-0.2,0-0.3s0-0.1,0-0.2s0,0,0,0
	c0,0,0-0.1,0-0.1l0,0c0-0.1,0-0.1,0.1-0.2l0,0C34.5,58.5,34.3,58.6,34,58.6"/>
<path class="st2" d="M32.1,56.1c0.1,0.1,1.1,0.8,1.2,0.9s1.2,0.6,1.8,1l0,0l0.2-0.1c0.7-0.2,1.4-0.4,2.1-0.5
	c0.3-0.1,0.2-0.3,0.1-0.4c-0.4-0.2-0.8-0.4-1.2-0.6c-2-0.9-3.9-2.1-5.6-3.6c-0.2-0.2-0.4-0.3-0.7,0.4c0,0.1,0,0.1,0,0.2s0,0.1,0,0.1
	s0,0.1,0,0.2s0,0.1,0,0.1s0,0.2,0,0.3s0,0.1,0,0.1s0,0.1,0,0.2s0,0,0,0.1l0,0c0.5,0.5,1.1,0.9,1.7,1.3C31.8,55.8,32,56,32.1,56.1"/>
<path class="st2" d="M28.6,62.7c0.3,0.6,1.2,1.8,1.3,1.9s0.2,0.3,0.5,0.5l0.5,0.6l0.6,0.6c0.1,0.1,0.3,0.3,0.3,0.4
	c0.3,0.3,1.5,1.3,1.6,1.4c0.2,0.2,0.5,0.3,0.8,0.5c0.6,0.1,1.2-0.1,1.6-0.6c0.1-0.1,0.1-0.3,0.1-0.5l0,0l0,0l0,0l0,0l0,0l0,0l0,0
	l0,0h-0.2h-0.1l0,0l-0.1-0.1c-1.2-0.9-2.2-1.9-3.2-3.1c-1.4-1.9-2.6-4-3.6-6.1c-0.1-0.2-0.4-0.1-0.5-0.1c-0.2,0.1-0.4,0.2-0.5,0.3
	c-0.2,0.1-0.2,0.4-0.3,1.4l0,0c0.3,0.5,1,2.1,1.3,2.6"/>
<path class="st2" d="M20.3,64.1c0.2-0.6,0-1.2-0.3-1.3h-0.1l0,0l-1.1-0.3c-0.7,1.1-1.4,4.9-1.8,6.6c-0.3,0.9-1,4-1.7,7.6h1.9
	c0.1-0.6,0.2-1.3,0.3-1.9C17.9,72.3,20.1,64.7,20.3,64.1"/>
<path class="st3" d="M62.3,67.2l2.2-0.3l0,0c0.7-0.1,1.5-0.2,1.7-0.2c0.5,0,0.7-0.3,0.3-0.4c-0.4-0.1-0.8-0.1-1.3-0.2h-0.5
	c-0.5,0-0.7-0.1-0.8-0.9c-0.6-3.5-1.4-7-2.4-10.4c-0.8-2.7-1-3.5-1.3-4.1s0.2-0.6,0.3-0.6c0.7,0,1.3,0.3,1.7,0.9
	c0.5,1.2,4.2,10.8,5.7,14.4l1,2.5l0.6-4.2L67.6,59c-1.1-2.4-2.1-4.7-2.9-6.4c-0.1-0.2-0.2-0.4-0.3-0.6c0,0,0-0.1,0-0.1
	c0-0.3,0.4-0.4,0.6-0.3c0.5,0.1,3.6,0.3,6.3,0.5l0.2-1.5l0,0L64,49.8c-0.4,0-0.5-0.4-0.9-0.6c-1.3-0.7-3.8-1.3-5.4-1.8
	c-0.4-0.1-0.7-0.5-1.2-1.1c-0.3-0.3-0.5-0.6-0.8-0.8l-0.6-0.5c-0.1-0.1-0.2-0.3-0.1-0.7c0.2-1.3,0.3-2.7,0.3-4.1
	c-0.1-0.4,0.1-0.8,0.5-1c0.1-0.1,1-0.4,0.9-1.3c-0.2-1.2-0.1-2.5,0.4-3.7c0.8-2.1,1.4-4.2,1.6-6.4c0.1-2-0.4-3.3-1.2-4
	c-0.5-0.4-0.6-1-0.4-1.6c0.3-1,0.9-3.6,0.3-5.3c-0.1-0.4-0.3-0.4-0.4-0.4c-0.4-0.3-0.6-0.6-0.7-1.1c-0.6-2.7-1.7-5.3-3.4-7.6
	c-1-1.2-2.1-2.3-3.4-3.3c-0.4-0.3-1.1-0.7-1.9-1.2c-1.3-0.7-2.6-1.3-4-1.7c-1.4-0.5-2.9-0.8-4.4-1c-1.1-0.1-2.1-0.2-3.2-0.1
	c-1,0.1-1.9,0.2-2.8,0.3c-1,0.2-1.9,0.5-2.8,0.8c-0.5,0.2-1.1,0.4-1.9,0.7S27,3.1,26.2,3.4c-0.3,0.1-1.3,0.7-1.6,0.9l-1,0.6
	c-0.8,0.4-1.6,0.7-2.5,1c-0.8,0.3-1.4,0.6-1.6,0.6s-0.8,0.3-0.8,0.7c0,0.3,0.1,0.6,0.2,0.9c0.3,0.6,0.3,1.3,0,1.8
	c-0.8,1.6-1.9,3-3.3,4.1c-0.4,0.3-0.9,0.6-1.2,0.8c-0.5,0.5-0.5,1.3-0.2,1.9c0.4,0.9,1.2,1.7,1.6,2.5c0.5,1.2,0.6,2.6,0.3,3.9
	c-0.1,0.8-0.2,1.5-0.5,2.2c-0.3,0.5-0.3,1.1,0,1.5c0.5,0.7,1.1,1.3,1.7,1.8c0.3,0.2,0.4,0.4,0.2,0.8c-0.3,1-0.3,2,0.1,2.9
	c0.4,1.1,0.9,2.2,1.6,3.3c0.6,0.9,1.3,1.8,2,2.6c0.5,0.5,0.7,1.2,0.6,1.8c-0.1,1.2,0.4,2.3,1.4,2.9c0.7,0.4,0.8,0.3,1.1,0.6
	c0.3,0.2,0.5,0.6,0.6,0.9c0.5,1.5,1.3,2.9,2.2,4.1c0.2,0.2,0.4,0.5,0.6,0.8c0,0.1,0.1,0.1,0,0.5c-0.5,1.4-0.9,2.9-1.3,4.4
	c0,0.5-0.3,0.9-0.7,1.1c-0.5,0.2-1.5,0.8-1.9,1c-0.4,0.2-0.7,0.5-1,0.9c-0.2,0.3-0.3,0.4-0.5,0.5s-0.1,0.1-0.5,0.3
	c-3.5,1.4-6.9,3-10.1,4.9l0.2,1.8l4.5-2.3c0.3-0.2,0.7-0.2,1.1-0.2c0.2,0,0.3,0,0.5,0l0.5,0.1l1.1,0.3l0,0H20
	c0.3,0.1,0.5,0.7,0.3,1.3c-0.2,0.6-2.3,8.2-2.8,10.8c-0.1,0.6-0.2,1.3-0.3,1.9h4c0.1-1.1,0.5-3.7,0.7-5.2c0.3-1.9,1.8-9,2.2-10.6
	c0.3-1.2,0.5-1.7,0.9-1.9c0.1-0.1,0.3-0.1,0.3-0.2s0.3-0.1,0.2,0.2s-0.4,1.9-0.8,6.7c-0.3,2.7-0.4,5.4-0.2,8.2
	c0,0.8,0.1,1.8,1.2,1.4c1.4-0.6,6-2.2,8.5-3c6.2-1.7,12.4-3.1,18.8-4l2-0.3l1.4,8.3l0.1,0.4l0,0l-0.1-0.4L55,68.1l0.8-0.1l1.8-0.2
	l2.1-0.3l0.7-0.1L62.3,67.2L62.3,67.2c0,0,1.3,5.9,1.8,8.3c0,0.2,0.1,0.3,0.1,0.4v0.2l0.1,0.6l0,0l-0.1-0.6
	C63.8,74.3,62.2,67.1,62.3,67.2 M21,27.9c-0.2,0.1-0.4,0.1-0.5-0.2c-0.3-0.8-0.6-1.7-0.7-2.6c-0.2-1.4-0.2-2.8-0.2-4.2
	c0.1-0.9-0.1-1.8-0.6-2.5c-0.3-0.4-0.6-0.8-0.8-1.2c-0.1-0.2,0-0.4,0.2-0.6s0.4,0,0.6-0.1c1-0.3,1.9-0.7,2.7-1.4
	c1.1-1,2.3-2,3.6-2.8c0.8-0.5,1.8-0.9,2.7-1c0.2,0,0.5,0.1,0.2,0.4c-1.2,0.7-2.2,1.6-2.9,2.8c-0.5,0.8-1,1.7-1.3,2.7
	c-0.3,0.5-0.6,0.9-1,1.2c-0.4,0.4-0.6,0.8-0.8,1.3c-0.5,2.2-0.7,4.4-0.4,6.6c0,0.4,0.2,1-0.2,1.2C21.5,27.7,21.2,27.8,21,27.9z
	 M22.7,32.7c-0.7-0.8-1.2-1.6-1.5-2.6c0-0.1-0.1-0.5,0.1-0.6s0.4-0.2,0.6-0.3s0.5-0.1,0.5,0.3c0.1,0.8,0.3,1.6,0.6,2.4
	c0.1,0.1,0.1,0.3,0.1,0.4c0,0.2-0.1,0.3-0.2,0.4C22.9,32.8,22.8,32.7,22.7,32.7z M24.5,28.4c-0.1,0-0.7,0.1-1,0.1s-0.4,0.1-0.4-0.1
	s-0.1-0.5-0.1-0.6c0-0.1,0-0.2,0.1-0.2c0,0,0,0,0,0c0.2-0.1,1.1-0.2,1.2-0.2s0.2,0,0.2,0.2s0.1,0.4,0.1,0.4S24.6,28.3,24.5,28.4
	L24.5,28.4z M24.8,25.4c-0.1-0.3-0.1-0.7-0.1-1c0-0.2,0.1-0.4,0.2-0.6c0.2-0.2,0.4-0.4,0.6-0.6c0.3-0.3,0.3-0.9,0.3-1.3
	c0-2.8,0.7-5.5,2.2-7.8c0.1-0.1,0.2-0.2,0.3-0.3l0.1-0.1l0.2-0.2l0.1-0.1l0.3-0.2l0,0c0.1-0.1,0.2-0.1,0.3-0.2l0.1-0.1l0.2-0.1h0.1
	l0.2-0.1l0,0l0.3-0.1h0.1l0.2-0.1l0,0c0.5-0.1,0.9-0.2,1.4-0.3c1.2-0.2,2.5-0.1,3.7,0.2c0.6,0.2,1,0.3,1.2,0.2s0.8-0.8,1-1l0.1-0.1
	l0,0v-0.1l0,0c0,0,0-0.1,0-0.1l0,0v-0.1c-0.1-0.1-0.1-0.2-0.2-0.2c-1.8-1.4-4-2.2-6.2-2.4c-2.4,0-4.7,0.5-6.9,1.4
	c-0.1,0-0.2,0.1-0.3,0.1c-0.1,0-0.4-0.1-0.3-0.3c0.2-0.3,0.5-0.6,0.7-0.9c1.1-1,2.2-1.9,3.5-2.5c0.3-0.1,0.4-0.2,0.6-0.3
	s0.4-0.6-0.2-0.6c-0.4,0-0.7,0-1,0.1c-0.3,0-0.5-0.1-0.3-0.3c0.3-0.4,0.7-0.7,1.1-0.9c1.6-0.8,3.4-1.4,5.2-1.8
	c0.9-0.3,1.9-0.4,2.8-0.4c0.7,0,1.4,0,2.1,0c3.4,0.2,6.7,1.2,9.5,3c2.7,1.9,6.5,5.2,7.2,13.3c0.1,0.6,0.1,1.2,0,1.8
	c0,0.2-0.3,0.7-0.6,0.2c-1-2-2.1-4-3.4-5.9c0-0.1-0.1-0.2-0.2-0.2h-0.1l0,0l0,0c0,0,0,0,0,0.1c0,0,0,0,0,0.1c0,0,0,0.1,0,0.1
	c0,0.2,0.5,2.3,0.5,2.6c0,0.9,0.3,1.8,1,2.4c0.5,0.5,0.9,1.2,1.1,1.9c0.1,0.4,0.2,0.8,0.3,1.3c0,0.1,0.1,0.3-0.3,0.3
	S51.5,23,50.8,23s-5.1,0.4-6.8,0.8c-1.3,0.2-2.5,0.7-3.4,1.7c-0.2,0.2-0.4,0.3-0.6,0.4c-0.2,0-0.5,0-0.7,0c-0.5,0-1,0.1-1.5,0.3
	c-0.3,0.2-0.8,0.3-1.1,0.1c-1.4-1-3.1-1.5-4.8-1.4c-1.3,0-2.7,0.1-4,0.3h-0.3h-0.2h-0.2H27h-0.2l-0.3,0.1h-0.2h-0.2l-0.3,0.1
	l-0.4,0.1C25.3,25.6,25,25.7,24.8,25.4C24.8,25.5,24.8,25.5,24.8,25.4L24.8,25.4z M52.2,24.7c0,0.1-0.1,0.2-0.2,0.2l-1,0.1
	c-0.1,0-0.2-0.1-0.3-0.2c0-0.1,0-0.4,0-0.5s0-0.2,0.2-0.2l1.2-0.1c0.1,0,0.2,0.1,0.2,0.2L52.2,24.7z M48.4,25.6
	c-0.3-0.2-0.6-0.4-1-0.5c-0.2-0.1-0.1-0.3,0.1-0.3c0.6-0.2,1.3-0.1,1.9,0.2c0.3,0.2,0.5,0.6,0.5,0.9c-0.1,0.4-0.3,0.3-0.5,0.3
	C49.1,26,48.8,25.8,48.4,25.6z M49,27.3c-0.3,0.1-0.6,0-0.9-0.1c-0.4-0.2-0.8-0.4-1.2-0.6c-0.5-0.3-1-0.3-1.5-0.2
	c-0.3,0.1-0.6,0.2-1,0.3s-0.4-0.2-0.3-0.3c0.3-0.4,0.7-0.7,1.2-0.9c0.2,0,0.4-0.1,0.5-0.1c0.5,0,1,0.2,1.3,0.5
	c0.5,0.4,0.9,0.7,1.4,0.9C48.9,27,49.3,27.1,49,27.3z M36,41.3c-1.6,0.5-2,0-2.2-0.2s0-0.3,0.2-0.4c0.4-0.2,0.8-0.5,1.1-0.8
	c0.3-0.3,0.8-1.1,1.1-1.4c0.5-0.3,1.2-0.4,1.8-0.1c0.9,0.3,1.9,0.5,2.9,0.3c0.6-0.1,1-0.5,1.3-1c0.2-0.3,0.5-0.5,0.8-0.6
	c0.6-0.3,1.1-0.7,1.5-1.2c0.1-0.1,0.3-0.2,0.7,0c0.7,0.5,1.3,1.1,1.7,1.7c0.4,0.5,1,0.8,1.7,0.9c0.2,0,0.4,0.3,0.4,0.3
	s-0.2,0.3-0.3,0.4s-0.2,0.3-1.5,0.3C40.8,40,37.9,40.7,36,41.3L36,41.3z M44.6,42.1c-0.7,0.3-1.4,0.6-2.1,0.7
	c-0.6,0.1-2.3,0.5-2.7,0.5c-0.5,0-1-0.1-1.4-0.4c-0.1-0.1-0.2-0.3,0.1-0.4c1.7-0.4,3.5-0.7,5.2-0.7h0.7C44.7,41.8,45,41.9,44.6,42.1
	L44.6,42.1z M36.2,50.1c-1.3,0.2-4.6-0.8-6.8-6.2c-0.5-1-0.2-2.3,0.6-3.1c0.2-0.1,0.4-0.2,0.6-0.3c0.3-0.1,0.6,0.1,0.7,0.4
	c0,0.1,0,0.1,0,0.2c0,0.5,1.1,4.8,2.4,6.2c0.3,0.4,0.6,0.3,0.7,0s0.2-0.8,0.3-0.9s0.4-0.5,0.5,0c0.4,0.9,0.8,1.9,1.2,2.8
	C36.8,49.7,36.7,50.1,36.2,50.1L36.2,50.1z M36.5,36c0.1,0.2,0.2,0.4,0.2,0.6c0,0.2-0.5,0.4-1.1-0.2c-0.4-0.5-0.5-1.2-0.2-1.8
	c0.4-0.6,1.1-0.3,1-0.1C36.2,35,36.2,35.5,36.5,36L36.5,36z M32.5,28.1c-0.5-0.1-1.1,0-1.6,0.2c-0.6,0.3-1.2,0.6-1.8,1
	c-0.3,0.2-0.6,0.3-1,0.4c-0.1,0-0.7-0.1-0.3-0.4c0.1-0.1,0.3-0.2,0.7-0.4s0.4-0.3,0.7-0.5c0.6-0.5,1.3-0.9,2-1.1
	c0.4-0.1,0.9,0.1,1.2,0.3C32.7,27.7,32.9,28.1,32.5,28.1L32.5,28.1z M25.5,28.8c0.1-0.5,0.5-1,1-1.2l0.6-0.2l0.8-0.2
	c0.4-0.1,0.5,0.3,0.3,0.5s-0.5,0.3-0.7,0.5s-0.8,0.7-1.1,0.9S25.4,29.3,25.5,28.8z M27.6,36.4L27.6,36.4l-0.2-0.3v-0.1l-0.2-0.3
	v-0.1c-0.1-0.1-0.1-0.3-0.2-0.4c-0.1-0.4,0.1-0.4,0.3-0.3c0.3,0.2,0.7,0.3,1.1,0.4c0.2,0.1,0.4,0,0.5-0.3c0,0,0,0,0,0
	c0,0,0-0.1,0-0.1V35l0,0c0,0,0,0,0-0.1l0,0c0,0,0-0.1,0-0.1l0,0c0,0,0,0,0-0.1l0,0c0,0,0-0.1,0-0.1l0,0c0-0.1-0.1-0.1-0.2-0.2
	c-1.1-0.4-2-1.3-2.5-2.4c-0.1-0.2-0.1-0.4,0.1-0.5c0.1-0.1,0.4-0.3,0.5-0.4c0.2-0.1,0.4-0.1,0.6,0.1c0.3,0.2,0.6,0.4,1,0.4
	c0.3,0,0.4-0.2,0.4-0.2c0.5-1,1.4-1.6,2.5-1.6c0.7,0,1.3,0.1,1.5,0c0.5,0,1-0.2,1.5-0.4c0.5-0.3,0.7-0.1,0.4,0.3l-0.1,0.2l0,0
	l-0.1,0.2l0,0c-0.1,0.2-0.1,0.4,0.1,0.5c0.1,0.2,0.3,0.3,0.5,0.4c0.1,0,0.1,0,0.2,0c0,0,0.1,0,0.1,0l0,0c0,0,0.1,0,0.1-0.1
	c0.2-0.1,0.3-0.3,0.4-0.4c0.1-0.2,0.2,0,0.2,0.2c0,1-0.5,2-1.2,2.7c-0.1,0.1-0.3,0.2-0.5,0.4l0,0L34.3,34c0,0-0.1,0.1-0.1,0.1
	l-0.1,0.1L34,34.3l0,0c-0.1,0.1-0.2,0.3-0.3,0.4c-0.2,0.4-0.3,0.8-0.3,1.2c0,0.3-0.2,0.4-0.5,0.5c-0.3,0.2-0.6,0.4-0.9,0.6l-0.4,0.3
	l-0.1,0.1c-0.1,0.1-0.3,0.2-0.4,0.3c-0.1,0.1-0.1,0.1-0.2,0.2H31L30.8,38h-0.1l-0.2,0.1h-0.1h-0.1h-0.2h-0.3h-0.1h-0.2l-0.1-0.1
	L29.4,38l0,0l-0.2-0.2l-0.3-0.3l0,0l-0.3-0.3h0v-0.1l-0.3-0.3l-0.1-0.1C27.8,36.7,27.7,36.6,27.6,36.4L27.6,36.4z M42.2,62.1
	c-0.4,1.5-0.9,3-1.6,4.4l-0.2,0.4V67l0,0c0,0,0,0.1-0.1,0.1l-0.1,0.2l0,0l-0.1,0.3l0,0l0,0l-0.1,0.1l0,0.1l0,0l0,0v0.1V68l0,0l0,0
	L40,68.1l0,0l-0.1,0.1l0,0l-0.1,0.1l0,0l-0.1,0.1l0,0l-0.1,0.1l0,0l-0.1,0.1l0,0h-0.1l0,0l0,0l0,0h-0.1l0,0h-0.1l-0.7,0.1h-0.5h-0.2
	l0,0c-1.8,0.3-6.5,1.1-8.7,1.6c-1.5,0.3-1.3-0.4-1.7-1.8c-0.4-2.9-0.6-5.7-0.4-8.6c0.1-1,0.1-1.3,0.3-1.4c0.2-0.1,0.4-0.2,0.5-0.3
	c0.1,0,0.3-0.1,0.5,0.1c1,2.1,2.3,4.2,3.6,6.1c0.9,1.2,2,2.2,3.2,3.1l0.1,0.1l0,0h0.1h0.2l0,0l0,0l0,0l0,0l0,0l0,0l0,0
	c0-0.2-0.1-0.4-0.2-0.6c-0.9-0.9-1.7-1.9-2.4-3c-1.3-2-2.3-4.2-2.9-6.6c-0.2-0.9-0.3-1.8-0.3-2.7l0,0c0,0,0,0,0-0.1s0-0.1,0-0.2
	s0-0.1,0-0.1s0-0.2,0-0.3s0-0.1,0-0.1s0-0.1,0-0.2s0,0,0-0.1s0-0.1,0-0.2c0.3-0.7,0.5-0.6,0.7-0.4c1.6,1.5,3.5,2.7,5.6,3.6
	c0.4,0.2,0.8,0.3,1.2,0.6c0.1,0.1,0.3,0.3-0.1,0.4c-0.7,0.1-1.4,0.2-2.1,0.5L35,58.1c-0.2,0.1-0.4,0.2-0.5,0.4c0,0-0.1,0.1-0.1,0.2
	l0,0c0,0,0,0.1,0,0.1l0,0c0,0,0,0.1,0,0.2s0,0.1,0,0.3c0,0.5,0.1,0.9,0.2,1.5s0,1.3,0.3,1.6s0.8,0.4,2,0.2s1.5-0.3,1.7-0.3
	s0.5-0.1,0.3,0.3l-0.1,0.1c-0.4,0.7-0.8,1.4-1.1,2.2c-0.1,0.4-0.2,0.7-0.3,1.1c0,0.1,0.1,0.4,0.3,0.1c0.6-1,1.2-1.9,1.9-2.7l0.4-0.4
	l0,0l0,0l0,0l0.1-0.1l0.2-0.2l0.1-0.1l0.2-0.2l0,0l0.2-0.2l0,0c0.1-0.1,0.2-0.2,0.3-0.3l0,0c0.1-0.1,0.2-0.1,0.3-0.2l0,0l0.1-0.1
	l0,0h0h0.1C42.2,61.4,42.3,61.6,42.2,62.1z M44.1,68.1L43,68.3c-0.1,0-0.2-0.1-0.2-0.2c0.4-0.6,0.7-1.3,0.9-2.1c0-0.2,0.2-0.4,0.3,0
	s0.3,1.3,0.4,1.7C44.4,67.7,44.4,68,44.1,68.1L44.1,68.1z M44.4,57.8c-0.5,0.2-1.1-0.4-1.6-0.7c-1.1-0.7-2-1.5-2.9-2.4
	c-1.3-1.5-1.1-2.6-0.8-4.6c0.2-1,0.1-2-0.3-2.9c-0.1-0.2,0-0.4,0.3-0.2c0.3,0.3,0.6,0.6,0.9,0.9c0.3,0.4,0.4,0.1,0.4-0.1
	c0-0.5,0-0.9-0.2-1.4c0-0.2-0.2-0.5-0.5-0.6c-0.4,0-0.7-0.1-1.1-0.3c-0.1-0.1-0.2-0.2-0.1-0.4c0.2-0.2,0.5-0.4,0.8-0.6
	c0.4-0.2,0.8-0.3,1.3-0.3c2,0.1,4-0.4,5.7-1.3c0.2-0.1,0.4-0.2,0.6-0.1c0.2,0.1,0.8,0.3,1,0.6c0.2,0.3,0.2,1.4,0.5,2.2
	s0.8,0,0.9-0.4c0.1-0.5,0.1-0.9,0.2-1.4c0-0.5,0.1-1,0.3-1.4c0.4-0.4,0.6-1,0.8-1.6c0.1-0.7,0.1-1.5-0.1-2.3
	c-0.2-1.2-0.4-1.3-0.7-1.5c-0.5-0.2-1-0.4-1.5-0.7c-0.7-0.6-1.3-1.2-1.9-1.9c-0.6-0.6-1.4-1-2.3-1.2h-0.3l0,0l0,0l0,0l0,0l0,0l0,0
	v0.1l0,0c0,0,0,0,0,0.1c0,0.2,0.1,0.4,0.2,0.6c0.1,0.2,0.2,0.6,0,0.9c-0.9,0.9-2,1.5-3.2,1.6c-0.6,0-1.1-0.1-1.6-0.3l0,0l0,0
	c-0.1,0-0.2-0.1-0.3-0.2l0,0l-0.3-0.2l-0.1-0.1l-0.2-0.2l0,0L38,35.5l0,0l-0.1-0.2v-0.1c0-0.1-0.1-0.1-0.1-0.2l0,0l-0.1-0.2l0,0
	l-0.1-0.2c-0.2-0.6,0.3-2.1,0.3-3.1c0-0.5-0.1-1.4-0.2-2c0-0.6,0.1-1.1,0.4-1.6c0,0,0.1-0.1,0.1-0.1l0,0l0.1-0.1l0,0l0.2-0.1l0,0
	l0.2-0.1l0,0c0.1,0,0.3-0.1,0.4-0.1c0.5-0.1,1,0.1,1.3,0.6c0.5,1.5,1.1,1.8,1.3,1.9s0.5-0.2,0.6-0.3s0.4-0.5,0.3-0.7
	c-0.2-0.2-0.3-0.4-0.4-0.6c-0.1-0.3,0.3-0.3,0.3-0.2c0.8,0.4,1.7,0.6,2.7,0.5c1-0.1,1.9-0.4,2.9-0.7c0.2,0,0.4,0.1,0.6,0.3
	c0.1,0.1,0.2,0.3,0.3,0.4l0,0l0,0.1l0,0l0,0l0,0l0,0c0.2,0,0.5,0,0.7,0c0.3,0,0.7-0.1,0.7,0.4c-0.1,0.9-0.6,1.7-1.4,2.2v0.1
	c0,0,0,0.1,0,0.1l0,0c0,0,0,0.1,0,0.1c0.1,0.1,0.1,0.3,0.2,0.4c0,0,0,0.1,0.1,0.1l0,0h0.1h0.2h0.1c0.7-0.4,1.2-1.1,1.5-1.8
	c0.3-1.2,0.5-2.5,0.6-3.7c0-0.3,0.1-0.6,0.4-0.8c0.4-0.3,0.9-0.6,1.4-0.9c0.1,0,0.3,0,0.5,0.3s0.5,2.7,0.6,3.1s0.3,0.3,0.4,0.3
	c0.2-0.2,0.4-0.4,0.6-0.7c0.2-0.3,0.1-0.7-0.2-1c-0.2-0.2-0.5-0.6-0.4-0.9c0.1-0.5,0.6-0.8,1.1-0.7c0.2,0,0.8,0.3,0.9,2
	c0,2-0.3,3.9-1.1,5.7c-0.4,0.9-0.6,1.9-0.7,2.9c-0.1,0.5-0.4,0.4-0.5,0.3s-0.2-0.4-0.3-0.5s-0.2,0-0.3,0.4c-0.1,0.4-0.3,0.9-0.6,1.3
	c-0.1,0.2-0.1,0.5-0.1,0.7c0.2,1.3,0.3,2.6,0.2,3.9c0,2.3-0.7,4.6-2,6.5c-1.1,1.5-2.5,2.8-4,3.8c-0.3,0.2-0.6,0.2-0.9,0.1
	c-0.2,0-0.3-0.2-0.6-0.4s-0.3,0.2-0.3,0.3s0.2,0.4,0.2,0.8c0.1,0.7-0.1,1.4-0.5,2c-0.6,0.8-1,1.8-1,2.8
	C44.5,57.7,44.5,57.7,44.4,57.8L44.4,57.8z M61.7,66L61.7,66L61.7,66L61.7,66h-0.2l0,0h-0.1l0,0h-0.1l0,0l-0.2,0.2l-0.4,0.1
	c-2.2,0.2-7.8,0.8-12.3,1.3h-0.2c-0.3,0-0.5,0-0.5-0.3c-0.3-1.9-0.9-3.7-1.9-5.4c-0.1-0.2-0.3-0.4-0.4-0.6s0.1-0.4,0.3-0.3
	c1.8,0.7,3.4,1.7,4.9,2.8c0.7,0.5,0.8,0.6,1,0.7h0.1l0,0h0.1H52c0,0,0.1,0,0.1,0c0.1,0,0.1-0.1,0-0.2c-0.2-0.5-1-1.3-3.2-3.3
	c-0.3-0.3-0.3-0.4,0-0.4s1.2,0,1.7,0s1.5,0,1.3-1.4c-0.2-1-0.3-2.1-0.3-2.4c0-0.5-0.3-1-0.8-1c-1.1,0-2.1,0.1-3.2,0.5
	c-0.3,0.1-0.4,0-0.2-0.3c1.4-1,2.7-2.2,3.9-3.4c1.4-1.5,2.5-3.2,3.1-5.1c0.1-0.3,0.2-0.2,0.3-0.1c0.6,0.5,0.9,1.2,1,2
	c0.2,1.4,0.7,3.3-0.1,8.4c-0.3,1.6-0.6,3.2-1.2,4.8c-0.1,0.4,0.1,0.6,0.3,0.3c0.9-1.8,1.6-3.7,2.1-5.7c0.5-2,0.9-4.1,1-6.2l0,0
	c0-0.3,0-0.5,0-0.7c0,0,0-0.1,0-0.1l0,0v-0.1l0,0v-0.1l0,0l0,0H58h0.1c0.1,0.1,0.7,0.2,1,1.6c0.1,0.5,0.3,1.1,0.5,2.1v0.2v0.2
	c0,0.1,0,0.2,0.1,0.3s0,0.1,0,0.1s0,0.2,0.1,0.3c0,0,0,0.1,0,0.1c0.1,0.3,0.1,0.7,0.2,1v0.1c0.2,1,0.4,2.1,0.6,3.4v0.1l0.1,0.5v0.3
	c0,0.1,0,0.2,0.1,0.4s0,0.2,0.1,0.4s0,0.2,0.1,0.3s0,0.3,0.1,0.4l0.1,0.4c0,0.1,0,0.2,0.1,0.4s0.1,0.4,0.1,0.5v0.3l0.1,0.8
	c0,0,0,0.1,0,0.1c0,0.3,0.1,0.6,0.1,0.9s0,0.3,0,0.4s0,0,0,0c0,0,0,0.1,0,0.1l0,0c0,0.1,0,0.2,0,0.3l0,0c0,0,0,0,0,0.1l0,0
	c0.1-0.1,0.2-0.2,0.3-0.1S61.8,65.9,61.7,66L61.7,66z"/>
<path class="st4" d="M40.5,63.4c0.2-0.3,0.4-0.6,0.4-0.6c-0.2,0-0.5,0.1-0.7,0.2l-0.4,0.4c-0.7,0.9-1.3,1.8-1.9,2.7
	c-0.2,0.3-0.3,0-0.3-0.1c0.1-0.4,0.2-0.8,0.3-1.1c0.3-0.8,0.7-1.5,1.1-2.2l-0.3,0.6c-1.1,0.3-2.3,0.5-3.5,0.6
	c-1-0.1-1.3-1.5-1.5-2.3s-0.8-2.3,0.4-2.9c0.2-0.1,0.4-0.2,0.7-0.2l0,0c0.1-0.2,0.3-0.3,0.5-0.4l0,0c-0.7-0.4-1.8-1-1.8-1
	s-1.1-0.8-1.2-0.9c-0.2-0.1-0.3-0.3-0.5-0.4l0,0l0,0c-0.6-0.4-1.2-0.8-1.7-1.3c0,0.9,0,1.9,0.2,2.8c0.7,2.4,1.7,4.7,3,6.8
	c0.7,1.1,1.6,2.1,2.4,3c0.1,0.1,0.2,0.4,0.2,0.6l0,0c0.1,0.2,0,0.3-0.1,0.5c-0.4,0.5-1,0.7-1.6,0.6c-0.3-0.1-0.5-0.3-0.8-0.5
	c-0.1-0.1-1.3-1.1-1.6-1.4c-0.1-0.1-0.2-0.3-0.3-0.4l-0.6-0.6l-0.5-0.6c-0.2-0.3-0.4-0.5-0.5-0.5s-1-1.3-1.3-1.9s-1.1-2.1-1.3-2.6
	l0,0c-0.2,2.9,0,5.8,0.4,8.6c0.4,1.3,0.2,2.1,1.7,1.8c2.2-0.4,7-1.3,8.7-1.6c0.1-0.3,0.2-0.6,0.3-0.8c0.8-1.5,1.4-3.1,2-4.8"/>
<path class="st4" d="M44,65.9c-0.1-0.3-0.2-0.2-0.3,0c-0.2,0.7-0.5,1.5-0.9,2.1c0,0.1,0,0.2,0.2,0.2l1.1-0.2
	c0.3-0.1,0.3-0.4,0.3-0.5C44.3,67.2,44.1,66.1,44,65.9"/>
<path class="st4" d="M21.9,26.4c-0.3-2.2-0.1-4.5,0.4-6.6c0.1-0.5,0.4-1,0.8-1.3c0.4-0.3,0.7-0.7,1-1.2c0.3-0.9,0.7-1.8,1.3-2.6
	c0.7-1.2,1.7-2.1,2.9-2.8c0.4-0.3,0-0.4-0.2-0.4c-1,0.1-1.9,0.5-2.7,1c-1.2,0.8-2.4,1.8-3.5,2.8c-0.8,0.6-1.7,1.1-2.7,1.3
	c-0.2,0-0.5,0-0.6,0.1s-0.4,0.4-0.2,0.6c0.3,0.4,0.5,0.8,0.8,1.2c0.5,0.7,0.7,1.6,0.6,2.5c0,1.4,0,2.8,0.2,4.2
	c0.1,0.9,0.3,1.7,0.7,2.6c0.1,0.3,0.3,0.3,0.5,0.2s0.4-0.2,0.6-0.3C22.1,27.3,21.9,26.8,21.9,26.4"/>
<path class="st4" d="M23.1,32c-0.3-0.8-0.5-1.6-0.6-2.4c0-0.5-0.4-0.4-0.5-0.3s-0.4,0.2-0.6,0.3s-0.2,0.4-0.1,0.6
	c0.3,1,0.8,1.8,1.5,2.6c0.2,0.1,0.3,0,0.4-0.1c0-0.1,0-0.1,0-0.2C23.2,32.2,23.1,32.1,23.1,32"/>
<path class="st4" d="M33.3,30.8c-0.2,0.1-0.3,0.3-0.3,0.5c0,0.3,0.1,0.4,0.2,0.6c0,0.4-0.1,0.7-0.3,1c-0.2,0.4-0.5,0.7-0.8,0.9
	c-0.2,0.1-0.3,0.2-0.5,0.2c0,0,0,0.1-0.1,0.2l0,0h0h0.2h0.2h0.3c0.3-0.1,0.7-0.2,1-0.3c0.5-0.2,1-0.5,1.4-0.9
	c0.3-0.4,0.6-0.9,0.6-1.5c0-0.1,0-0.1,0-0.2l0,0c-0.1,0-0.1,0-0.2,0c-0.2-0.1-0.3-0.3-0.5-0.4c-0.2-0.1-0.2-0.3-0.1-0.5
	c-0.2,0.2-0.3,0.3-0.5,0.4c-0.3,0.2-0.5,0.2-0.6,0.3"/>
<path class="st4" d="M45.5,54.8c0.4-0.6,0.6-1.3,0.5-2c-0.1-0.3-0.2-0.7-0.2-0.8s0-0.5,0.3-0.3h-0.1c0-0.3-0.1-0.6-0.3-0.9
	c-0.2-0.6-0.5-1.2-0.8-1.8c-0.1-0.2-0.4-0.6-0.4-0.6c-0.1-0.3-0.1-0.5-0.2-0.8c-0.1-0.5-0.1-1-0.1-1.6c0-0.1,0-0.2,0-0.3
	c0,0,0-0.1,0-0.1c-0.1,0-0.2,0-0.3,0.1c-0.3,0.3-0.3,0.3-0.3,0.4s0,0.1,0,0.2c0,0.3-0.1,0.5-0.2,0.7c-0.1,0.2-0.2,0.3-0.4,0.3
	s-0.3-0.2-0.4-0.5c0-0.2,0-0.4-0.2-0.6c-0.1-0.1-0.2-0.1-0.3-0.1c-0.1,0-0.1,0.1-0.5,0.1c-0.4,0.1-0.7,0.1-1.1,0.1h-0.4l0,0
	c0.1,0.4,0.2,0.9,0.2,1.4c0,0.3-0.1,0.5-0.4,0.1c-0.2-0.4-0.5-0.7-0.9-0.9c-0.3-0.1-0.4,0.1-0.3,0.2c0.4,0.9,0.5,1.9,0.3,2.9
	c-0.4,2-0.5,3,0.8,4.6c0.8,0.9,1.8,1.8,2.9,2.4c0.5,0.3,1.1,0.9,1.6,0.7c0.1,0,0.1-0.1,0.1-0.2C44.5,56.6,44.9,55.6,45.5,54.8"/>
<path class="st4" d="M48.8,28.7c-0.1,0-0.1,0-0.2,0c-0.1,0-0.1,0.1-0.2,0.1c-0.1,0.1-0.1,0.3,0,0.4c0.2,0.2,0.3,0.4,0.3,0.7
	c0,0.2,0,0.5-0.1,0.7c-0.1,0.2-0.2,0.5-0.4,0.7c-0.2,0.2-0.3,0.4-0.3,0.6c0,0,0,0.1,0,0.1l0,0l0,0c0.1-0.1,0.3-0.2,0.4-0.2
	c0.3-0.1,0.5-0.2,0.7-0.3l0,0v-0.1c0.7-0.5,1.1-1.3,1.2-2.2c0-0.5-0.5-0.4-0.7-0.4c-0.2,0-0.5,0-0.7,0l0,0"/>
<path class="st4" d="M48.6,39.5c0.1-0.1,0.3-0.4,0.3-0.4s-0.2-0.3-0.4-0.3c-0.7-0.1-1.3-0.4-1.7-0.9c-0.5-0.7-1.1-1.3-1.7-1.7
	c-0.4-0.2-0.6-0.1-0.7,0c-0.4,0.5-0.9,0.8-1.5,1.2c-0.3,0.1-0.6,0.3-0.8,0.6c-0.2,0.5-0.7,0.9-1.3,1c-1,0.1-2,0-2.9-0.3
	c-0.6-0.2-1.2-0.2-1.8,0.1c-0.4,0.3-0.8,1.2-1.1,1.4c-0.3,0.3-0.7,0.6-1.1,0.8c-0.2,0.1-0.3,0.2-0.2,0.4s0.6,0.7,2.2,0.2
	c1.9-0.7,4.8-1.4,11.2-1.5C48.4,39.8,48.5,39.6,48.6,39.5"/>
<path class="st4" d="M43.9,41.8c-1.8,0-3.5,0.3-5.2,0.7c-0.3,0-0.2,0.3-0.1,0.4c0.4,0.3,0.9,0.4,1.4,0.4c0.3,0,2.1-0.4,2.7-0.5
	c0.7-0.2,1.4-0.4,2.1-0.7c0.4-0.2,0-0.3,0-0.3L43.9,41.8"/>
<path class="st4" d="M37.7,11c0.6-0.5,2-2,3.3-1.9s4.9,0.5,7,1.9c1.2,0.8,2.2,1.9,2.8,3.2l0,0c0.1,0,0.2,0.1,0.2,0.2
	c1.3,1.9,2.4,3.8,3.4,5.9c0.2,0.5,0.5,0.1,0.6-0.2c0.1-0.6,0.1-1.2,0-1.8c-0.8-8-4.6-11.3-7.2-13.3c-2.9-1.8-6.2-2.8-9.5-3
	c-0.7,0-1.4,0-2.1,0c-1,0-1.9,0.2-2.8,0.4c-1.8,0.4-3.5,1-5.2,1.9c-0.4,0.2-0.9,0.5-1.2,0.9c-0.2,0.3,0,0.4,0.3,0.3
	c0.3-0.1,0.7-0.1,1-0.1c0.5,0,0.4,0.6,0.2,0.6s-0.3,0.1-0.6,0.3c-1.3,0.7-2.5,1.5-3.5,2.5c-0.3,0.3-0.5,0.5-0.7,0.9
	c-0.1,0.2,0.2,0.3,0.3,0.3c0.1,0,0.2,0,0.3-0.1c2.2-0.9,4.6-1.4,7-1.4c2.3,0.1,4.5,0.9,6.3,2.2C37.6,10.9,37.7,10.9,37.7,11L37.7,11
	"/>
<path class="st4" d="M24.5,27.7c0-0.2-0.1-0.2-0.2-0.2s-1,0.2-1.2,0.2c-0.1,0-0.1,0.1-0.1,0.2c0,0,0,0,0,0c0,0.1,0.1,0.4,0.1,0.6
	s0.2,0.1,0.4,0.1s0.9-0.1,1-0.1s0.2-0.2,0.1-0.3S24.6,27.8,24.5,27.7"/>
<path class="st4" d="M52,24l-1.2,0.1c-0.2,0-0.2,0.1-0.2,0.2s0,0.3,0,0.5c0,0.1,0.1,0.2,0.3,0.2l1-0.1c0.1,0,0.2-0.1,0.2-0.2v-0.4
	C52.1,24.1,52,24,52,24"/>
<path class="st4" d="M18.7,62.5l-0.5-0.1c-0.2,0-0.3,0-0.5,0c-0.4,0-0.8,0.1-1.1,0.2l-4.5,2.3l1.6,11.8h1.6c0.7-3.6,1.4-6.7,1.7-7.6
	C17.3,67.4,18,63.6,18.7,62.5"/>
<path class="st4" d="M64.4,51.9c0,0,0,0.1,0,0.1c0.1,0.2,0.2,0.4,0.3,0.6c0.8,1.7,1.8,4,2.9,6.4l2.1,4.7L71.3,52
	c-2.7-0.2-5.8-0.4-6.3-0.5C64.8,51.6,64.4,51.6,64.4,51.9"/>
<path class="st4" d="M55,68.1l-2,0.3c0,0,0,0,0,0.1c0.1,0.8,0.8,6.9,1,7.9l0.1,0.4h2.4l-0.1-0.4L55,68.1"/>
<path class="st4" d="M59.8,67.5l-2.1,0.3c0,0.2,0.1,0.4,0.1,0.6c0.3,1.4,0.7,3.6,1.3,6.6l0.3,1.9h2.4l-0.1-0.5
	C61.3,74.2,59.8,67.5,59.8,67.5"/>
<path class="st4" d="M64.5,66.9L64.5,66.9l-2.2,0.3c0,0,1.6,7.2,2,9l0.1,0.6H67l-0.2-0.7C65.9,72.7,64.5,66.9,64.5,66.9"/>
<path class="st5" d="M30.4,12.9c-0.4,0.6-0.7,1.2-1,1.8c-0.9,2.5-1.5,5.1-1.6,7.8c0.1,1,0.1,1.9,0,2.9h-0.1c1.3-0.2,2.7-0.3,4-0.3
	c1.7-0.1,3.4,0.4,4.8,1.4c0.4,0.1,0.8,0.1,1.1-0.1c0.5-0.2,1-0.3,1.5-0.3c0.2,0,0.5,0,0.7,0c0.2-0.1,0.4-0.3,0.6-0.4
	c0.9-0.9,2.1-1.5,3.4-1.7c1.7-0.3,6.2-0.8,6.8-0.8s2.2,0.1,2.6,0.1s0.3-0.3,0.3-0.3c-0.1-0.4-0.2-0.9-0.3-1.3
	c-0.2-0.7-0.6-1.3-1.1-1.9c-0.7-0.6-1-1.5-1-2.4c0-0.3-0.5-2.5-0.5-2.6c0,0,0-0.1,0-0.1c0,0,0,0,0-0.1c0,0,0,0,0-0.1l0,0l0,0h0.1
	c-0.6-1.3-1.6-2.4-2.9-3.2c-2.1-1.4-5.7-1.9-7-1.9s-2.7,1.4-3.3,1.9l0,0v0.1l0,0c0,0,0,0.1,0,0.1l0,0v0.1l0,0l-0.1,0.1
	c-0.2,0.2-0.8,0.8-1,1s-0.5,0.1-1.2-0.2c-1.2-0.3-2.4-0.4-3.7-0.2c-0.5,0.1-0.9,0.2-1.4,0.3c0,0.1,0,0.3,0,0.3c0,0,0,0.1,0,0.1"/>
<path class="st5" d="M29.8,34.6c0,0.1,0.1,0.2,0.1,0.3l0,0c0,0.1,0.1,0.3,0.2,0.4c0.1,0.1,0.1,0.2,0.3,0.4s0.3,0.5,0.5,0.7l0.5,0.6
	c0.2,0.1,0.4,0.1,0.6,0l0,0c0.3-0.2,0.6-0.4,0.9-0.6c0.2-0.1,0.4-0.2,0.5-0.5c0-0.4,0.1-0.8,0.3-1.2c0.1-0.2,0.2-0.3,0.3-0.4l0,0
	l0.1-0.1l0.1-0.1c0,0,0.1-0.1,0.1-0.1l0.1-0.1l0,0l-0.3,0.2c-0.3,0.1-0.5,0.3-0.8,0.3c-0.4,0.1-0.7,0.2-1.1,0.3
	c-0.2,0.1-0.5,0-0.6-0.2c-0.1-0.1-0.1-0.1-0.1-0.2c0,0,0-0.1,0-0.1l0,0c0,0,0-0.1,0-0.1l0,0c0-0.1,0-0.2,0.1-0.2
	c0.2-0.1,0.3-0.1,0.5-0.2c0.3-0.2,0.6-0.5,0.8-0.9c0.2-0.3,0.3-0.6,0.3-1c0-0.2-0.1-0.3-0.2-0.6c0-0.2,0.1-0.4,0.3-0.5
	c0.1-0.1,0.3-0.1,0.6-0.3c0.2-0.1,0.4-0.3,0.5-0.4l0,0l0.1-0.2l0,0l0.1-0.2c0.3-0.3,0.1-0.6-0.4-0.3c-0.5,0.2-1,0.4-1.5,0.4
	c-0.2,0-0.9-0.1-1.5,0c-1.1,0-2,0.6-2.5,1.6c-0.1,0.1-0.1,0.2-0.4,0.2c-0.4,0-0.7-0.2-1-0.4c-0.2-0.1-0.4-0.2-0.6-0.1
	c-0.2,0.1-0.5,0.3-0.5,0.4C26,31.8,26,32,26,32.2c0.5,1,1.4,1.8,2.5,2.2c0.1,0,0.2,0.1,0.2,0.2c0,0,0-0.1-0.1-0.1
	c0.3,0.1,0.7,0.2,1,0.2"/>
<path class="st5" d="M40.8,46.3c0.4,0,0.7-0.1,1.1-0.1c0.4-0.1,0.4-0.1,0.5-0.1c0.1,0,0.2,0,0.3,0.1c0.1,0.2,0.2,0.4,0.2,0.6
	c0,0.4,0.2,0.5,0.4,0.5s0.3-0.1,0.4-0.3c0.1-0.2,0.2-0.5,0.2-0.7c0-0.1,0-0.2,0-0.2s0-0.1,0.3-0.4c0.1-0.1,0.2-0.1,0.3-0.1
	c0,0,0,0.1,0,0.1c0,0,0,0.2,0,0.3c0,0.5,0,1.1,0.1,1.6c0,0.3,0.1,0.5,0.2,0.8c0,0,0.3,0.4,0.4,0.6c0.3,0.6,0.6,1.1,0.8,1.8
	c0.1,0.3,0.2,0.6,0.3,0.9h0.1c0.3,0.2,0.4,0.4,0.6,0.4c0.3,0.1,0.6,0,0.9-0.1c1.5-1,2.9-2.3,4-3.8c1.3-1.9,2-4.1,2-6.4
	c0-1.3,0-2.6-0.2-3.9c-0.1-0.2,0-0.5,0.1-0.7c0.2-0.4,0.4-0.8,0.6-1.3c0.1-0.4,0.2-0.4,0.3-0.4s0.2,0.4,0.3,0.5s0.4,0.2,0.5-0.3
	c0.1-1,0.4-2,0.7-2.9c0.7-1.8,1.1-3.8,1.1-5.7c-0.1-1.7-0.7-2-0.9-2c-0.5-0.1-0.9,0.2-1.1,0.7c-0.1,0.3,0.2,0.7,0.4,0.9
	c0.2,0.3,0.3,0.7,0.2,1c-0.1,0.3-0.3,0.5-0.6,0.7c-0.1,0.1-0.3,0.1-0.4-0.3S54.2,25.4,54,25s-0.3-0.4-0.5-0.3
	c-0.5,0.2-0.9,0.5-1.4,0.9c-0.2,0.2-0.4,0.5-0.4,0.8c-0.1,1.3-0.3,2.5-0.6,3.7c-0.3,0.8-0.9,1.5-1.6,1.9h-0.1l0,0
	c-0.3,0.2-0.7,0.3-1,0.3c-0.1,0-0.1,0-0.2,0l-0.3-0.2L48,32.1l0,0l0,0l0,0l0,0l0,0l0,0l0,0l0,0l0,0c0,0,0-0.1,0-0.1
	c0.1-0.2,0.2-0.4,0.3-0.6c0.1-0.2,0.3-0.4,0.4-0.7c0.1-0.2,0.1-0.4,0.1-0.7c0-0.2-0.1-0.5-0.3-0.7c-0.1-0.1-0.1-0.3,0-0.4
	c0-0.1,0.1-0.1,0.2-0.1c0.1,0,0.1,0,0.2,0l0,0l0,0l0,0l0,0l0-0.1l0,0c-0.1-0.1-0.2-0.3-0.3-0.4c-0.2-0.2-0.4-0.3-0.6-0.3
	c-0.9,0.3-1.9,0.6-2.9,0.7c-0.9,0.1-1.8-0.1-2.7-0.5c-0.1,0-0.4,0-0.3,0.2c0.1,0.2,0.2,0.4,0.4,0.6c0.1,0.2-0.2,0.6-0.3,0.7
	s-0.4,0.4-0.6,0.3s-0.8-0.4-1.3-1.9c-0.2-0.4-0.8-0.7-1.3-0.6c-0.1,0-0.3,0.1-0.4,0.1c0,1.2,0,2.3,0,2.8c0.1,0.6,0.1,1.2,0.1,1.9
	c-0.1,0.5-0.2,1-0.3,1.5c0,0.3,0,0.5,0.1,0.8c0,0.2,0.1,0.4,0.1,0.6c0.1,0.2,0.2,0.5,0.3,0.7c0.1,0.1,0.1,0.3,0.2,0.4
	c0,0.1,0.1,0.2,0.1,0.3c0.5,0.2,1.1,0.3,1.6,0.3c1.2-0.1,2.3-0.7,3.2-1.6c0.3-0.3,0.1-0.7,0-0.9c-0.1-0.2-0.2-0.4-0.2-0.6l0,0l0,0
	c-0.1-0.1-0.2-0.5,0-0.6c0.1-0.1,0.3-0.3,0.4-0.4c0.8-0.3,1.7-0.3,2.4,0.1c0.3,0.2,0.6,0.4,0.9,0.6c0.1,0.1,0.7,0.6,0.8,0.7
	s1.3,1.1,1.8,1.4c0.5,0.3,0.8,0.6,1.1,1.1c0.3,0.4,0.3,0.9,0.2,1.3c-0.1,0.4-0.3,0.7-0.6,1l0,0c0-0.1,0-0.3,0-0.4
	c0.1,0.7,0.2,1.5,0.1,2.3c-0.1,0.6-0.4,1.1-0.8,1.6c-0.2,0.4-0.3,0.9-0.3,1.4c0,0.5-0.1,0.9-0.2,1.4c-0.1,0.4-0.6,1.2-0.9,0.4
	s-0.3-1.9-0.5-2.2s-0.8-0.5-1-0.6c-0.2-0.1-0.4,0-0.6,0.1c-1.8,0.9-3.9,1.3-6,1c-0.5,0-0.9,0.1-1.3,0.3c-0.3,0.1-0.6,0.3-0.8,0.6
	c-0.1,0.1,0,0.3,0.1,0.4c0.3,0.2,0.7,0.3,1.1,0.3c0.3,0.1,0.5,0.4,0.5,0.6l0,0L40.8,46.3"/>
<path class="st4" d="M59.9,66.3c-0.1-1.2-0.2-2.7-0.3-4.1c-0.4-4.3-0.7-6.1-0.8-6.7c0-0.1,0-0.2,0-0.3c-0.3-1.3-0.6-2.8-1-4.3
	c-0.1,2.1-0.5,4.1-1,6.2c-0.4,2-1.1,3.9-2.1,5.7c-0.3,0.4-0.5,0.1-0.3-0.3c0.5-1.6,0.9-3.2,1.2-4.8c0.8-5.1,0.4-7,0.1-8.4
	c-0.1-0.8-0.4-1.5-1-2c-0.1-0.1-0.2-0.1-0.3,0.1c-0.7,1.9-1.7,3.7-3.1,5.1c-1.2,1.3-2.5,2.4-3.9,3.4c-0.2,0.2-0.1,0.4,0.2,0.3
	c1-0.4,2.1-0.5,3.2-0.5c0.5,0,0.9,0.5,0.8,1c0,0.3,0.1,1.4,0.3,2.4c0.2,1.4-0.8,1.4-1.3,1.4s-1.3,0-1.7,0s-0.3,0.1,0,0.4
	c2.2,2,3,2.9,3.2,3.3c0,0.1,0,0.2,0,0.2l0,0c-0.3,0.5-0.9,0.7-1.5,0.6c-0.8-0.3-1.5-0.7-2.2-1.2c-0.5-0.4-1.6-1.3-2.4-2v-0.1
	c0.9,1.7,1.5,3.5,1.8,5.4c0,0.3,0.2,0.4,0.5,0.3h0.2c4.4-0.6,10-1.1,12.3-1.3L59.9,66.3 M50.6,61.1h-0.3v0.7h-0.2v-0.7h-0.3v-0.1
	h0.8V61.1z M51.7,61.8h-0.2v-0.7l-0.2,0.7h-0.1l-0.2-0.7v0.7h-0.2v-0.9H51l0.2,0.6l0.2-0.6h0.3V61.8z"/>
<polyline class="st3" points="49.9,61.1 50.1,61.1 50.1,61.8 50.3,61.8 50.3,61.1 50.6,61.1 50.6,60.9 49.9,60.9 49.9,61.1 "/>
<polyline class="st3" points="51.2,61.6 51,60.9 50.8,60.9 50.8,61.8 50.9,61.8 50.9,61.1 51.2,61.8 51.3,61.8 51.5,61.1 51.5,61.8 
	51.7,61.8 51.7,60.9 51.5,60.9 51.2,61.6 "/>
<path class="st6" d="M103,59.5L103,59.5c0.4,0.6,1,1,1.6,1.2l0,0c0.3,0.2,0.6,0.3,0.9,0.3l0,0l0.1,0.1l0,0c-0.1,0.1-0.1,0.2-0.1,0.4
	l0,0c-0.2,0.5-0.3,1.1-0.4,1.7c0,0,0,0,0,0.1c0,0.1-0.1,0.2-0.1,0.3c-0.2,0.6-0.2,0.6-0.7,0.6H84.3c-0.4,0-0.8,0-1.2,0v-0.1
	c0.1-0.2,0.1-0.3,0.1-0.5c0,0,0,0,0-0.1c0.1-0.3,0.2-0.6,0.2-0.9l0,0c0.1,0,0.1-0.1,0-0.1v-0.1c0.1-0.2,0.1-0.4,0.2-0.6
	c0.1-0.3,0.2-0.4,0.5-0.4c0.8,0,1.6-0.3,2.3-0.8l0,0c0.5-0.3,0.9-0.7,1.2-1.2c0.7-0.9,1.2-1.8,1.5-2.8c1-2.8,1.7-5.6,2.4-8.5
	c1.2-4.1,2.3-8.3,3.4-12.4c0.3-1,0.6-1.9,0.8-2.9c0,0,0-0.1,0-0.1v-0.1c0.3-0.9,0.5-1.8,0.7-2.7c0.4-1.5-0.5-3.1-2.1-3.5
	c0,0-0.1,0-0.1,0c-0.2-0.1-0.6-0.1-0.7-0.2s0.1-0.5,0.1-0.7c0,0,0,0,0-0.1l0,0c0.1-0.5,0.3-1,0.4-1.6c0.1-0.3,0.2-0.3,0.4-0.3h20
	c0.3,0,0.4,0.1,0.3,0.4s-0.2,0.7-0.3,1.1c-0.1,0.2-0.1,0.4-0.2,0.6c0,0.4-0.3,0.6-0.7,0.7c-1.4,0.3-2.6,1.3-3,2.7
	c-1.2,4.2-2.3,8.3-3.5,12.5c-0.1,0.3-0.2,0.6-0.2,0.9l0.3-0.2l12.8-9.8c1.4-1.1,2.8-2.1,4.2-3.2c0.6-0.3,0.9-1.1,0.5-1.8
	c0-0.1-0.1-0.2-0.2-0.2c-0.4-0.4-0.9-0.7-1.5-0.8c0,0-0.1-0.1-0.1,0l0,0l0,0c-0.5-0.2-0.5-0.2-0.4-0.7c0-0.1,0-0.1,0-0.2v-0.1
	l0.4-1.4c0.2-0.2,0.3-0.4,0.7-0.4c6.8,0,13.7,0,20.5,0c0.2,0,0.4,0.1,0.6,0.2c-0.1,0.4-0.2,0.9-0.3,1.3v0.1
	c-0.1,0.3-0.2,0.6-0.2,0.9s-0.1,0.3-0.3,0.3c-1.4,0.1-2.7,0.6-3.8,1.5l-0.1,0.1c-0.9,0.7-1.8,1.4-2.7,2.2l-0.1,0.1
	c-1,0.7-1.9,1.5-2.9,2.3c-0.9,0.8-1.9,1.5-2.9,2.3l0,0c-0.2,0.1-0.4,0.3-0.5,0.4h-0.1c-0.3,0.2-0.6,0.5-0.9,0.7
	c-0.5,0.3-0.9,0.7-1.4,1.1l0,0c-0.2,0.1-0.4,0.3-0.6,0.5c-0.4,0.3-0.8,0.6-1.2,1l-0.1,0.1c-0.4,0.2-0.7,0.5-1,0.8l0,0
	c-1,0.7-2,1.5-2.9,2.3l0,0c-0.2,0.1-0.4,0.3-0.6,0.4l0,0c-0.1,0.1-0.5,0.2-0.3,0.5c0.3,0.5,0.6,0.9,0.9,1.4c0.1,0.1,0.2,0.3,0.2,0.4
	c0.6,1,1.3,2,1.9,2.9l0,0c0.2,0.4,0.4,0.7,0.7,1.1v0.1c0,0,0,0.1,0,0.1l0,0c0.5,0.8,1,1.6,1.5,2.3l0,0c0.2,0.4,0.4,0.7,0.7,1.1v0.1
	c0.4,0.6,0.7,1.1,1.1,1.7l0,0c0.4,0.6,0.7,1.1,1.1,1.7l0,0c0.1,0.2,0.2,0.4,0.4,0.5v0.1c0.3,0.6,0.7,1.1,1.2,1.7l0.1,0.1
	c0.2,0.4,0.4,0.7,0.7,1c0.6,0.7,1.4,1.4,2.2,1.9l0,0c0.3,0.3,0.7,0.5,1.1,0.6l0,0c0.1,0.1,0.3,0.2,0.4,0.1l0,0
	c0.4,0.2,0.8,0.2,1.2,0.2c0.3,0,0.4,0.1,0.3,0.4s-0.2,0.9-0.3,1.3c0,0,0,0,0,0.1c-0.1,0.2-0.1,0.5-0.2,0.7s0,0.4-0.2,0.4h-10.9
	c-0.6-0.1-1.1-0.1-1.7-0.1h-0.1l-1.7-0.3h-0.1l-1.9-0.6h-0.1c-0.1-0.1-0.2-0.1-0.3-0.1h-0.1c-1-0.5-1.9-1-2.7-1.7
	c-0.6-0.5-1.1-1.1-1.7-1.6l0,0l-2-2.4c-0.1-0.2-0.2-0.3-0.3-0.4l-0.1-0.1c-0.3-0.4-0.6-0.9-0.9-1.3l0,0l-1.5-2.2l-2-3l0,0
	c-0.1-0.2-0.3-0.5-0.4-0.7l0,0c-0.2-0.4-0.4-0.8-0.7-1.1l0,0c-0.3-0.6-0.6-1.1-1-1.6v-0.1c-0.2-0.4-0.5-0.8-0.8-1.2
	c0,0.1,0,0.1-0.1,0.2c-0.3,1-0.6,2.1-0.9,3.1s-0.6,2.2-0.9,3.3c-0.2,0.5-0.3,1-0.4,1.5l0,0l-1.2,4.2c0,0,0-0.2-0.1-0.1
	c-0.2,0.3-0.2,0.6-0.1,0.9c0.1,0.1,0.1,0.2,0.2,0h0.1v0.1C102.8,59.1,102.9,59.3,103,59.5z"/>
<path class="st6" d="M198.5,52.9c0.9,0.8,1.8,1.5,2.9,2c1.6,0.8,3.2,1.3,4.9,1.6c0.4,0.1,0.8,0.1,1.2,0.1c0.1,0.1,0.2,0.1,0.3,0.1
	h1.6c3.9-0.1,7.7-0.8,11.4-2.1c-0.1,0.6-0.3,1.2-0.4,1.8c-0.5,2.2-1,4.3-1.5,6.5c0,0.2-0.2,0.4-0.4,0.4c-2.3,0.4-4.6,0.8-6.9,1.1
	c-1.1,0.1-2.2,0.3-3.4,0.3c-0.8,0-1.7,0-2.5,0.1h-4.6c-0.7-0.1-1.4-0.2-2.1-0.3h-0.2l-2.4-0.4h-0.1c-0.4-0.1-0.9-0.2-1.3-0.3l0,0
	c-0.3-0.1-0.7-0.2-1.1-0.3l0,0l-0.2-0.1c-1.1-0.3-2.2-0.7-3.2-1.2c-0.4-0.2-0.8-0.4-1.2-0.5h-0.1c0-0.1-0.1-0.1-0.2-0.2
	c-1.3-0.7-2.5-1.5-3.6-2.4h-0.1c0-0.1-0.1-0.1-0.1-0.1l0,0l-0.1-0.1l0,0c-0.1-0.2-0.3-0.3-0.4-0.4l-0.1-0.1
	c-0.1-0.2-0.3-0.3-0.4-0.4l0,0l0,0c0-0.1,0-0.1-0.1-0.1l0,0c-0.1-0.1-0.2-0.2-0.3-0.3l0,0l-0.1-0.1c-0.6-0.8-1.2-1.6-1.7-2.4
	c-0.3-0.7-0.7-1.3-0.9-2c-0.4-1.1-0.7-2.2-0.9-3.3v-0.1c0-0.3-0.1-0.6-0.1-0.9v-0.4c0-0.8,0-1.7,0-2.5v-0.1v-0.4l0.3-1.9l0,0
	c0.1-0.2,0.1-0.5,0.2-0.7c0.2-0.9,0.6-1.8,0.8-2.6l0,0l1.1-2.3l0,0c0.2-0.3,0.5-0.7,0.6-1.1l0,0c0.7-1,1.4-2,2.2-2.9
	c0.8-0.9,1.7-1.8,2.7-2.6c2.5-2.1,5.3-3.8,8.4-5.1c2.8-1.2,5.8-2,8.8-2.6c1.5-0.3,3-0.4,4.4-0.6c0.6,0,1.2,0,1.7-0.1h5.1
	c0.1,0.1,0.3,0.1,0.5,0.1c3,0.2,6,0.7,8.8,1.6c0.3,0.1,0.3,0.2,0.2,0.4c-0.9,3-1.8,6.1-2.7,9.3c-0.1,0.3-0.2,0.3-0.4,0.3
	c-0.6,0.1-1.3-0.2-1.7-0.7c-1.4-1.6-3.3-2.7-5.4-3c-2.6-0.5-5.2-0.5-7.8,0c-2.3,0.3-4.5,1.1-6.5,2.2c-3.6,1.9-6.1,5.3-6.7,9.4
	c-0.5,2.9,0.2,5.9,1.9,8.4c0,0,0.1,0.1,0.1,0.1c0.4,0.6,0.9,1.2,1.4,1.7l0,0l0.1,0.1l0,0C198.2,52.8,198.3,52.8,198.5,52.9
	L198.5,52.9L198.5,52.9z"/>
<path class="st7" d="M205.7,64.9c0.8-0.1,1.7-0.2,2.5-0.1l0,0c-0.5,0-1,0-1.4,0.1L205.7,64.9z"/>
<path class="st8" d="M83.2,62.1c0.1-0.1,0.3-0.2,0.4,0v0.1c0,0,0,0.1,0,0.1l0,0l-0.2,0.1h-0.3V62.1z"/>
<path class="st6" d="M159.3,60.7C159.3,60.7,159.3,60.7,159.3,60.7c0.3,0.2,0.6,0.3,0.9,0.4c0,0.1,0,0.3,0,0.4
	c-0.2,0.7-0.4,1.5-0.5,2.2c-0.1,0.3-0.2,0.4-0.4,0.4h-10.1c-0.1,0-0.3,0-0.4,0h-7.3c-0.3,0-0.4,0-0.3-0.4c0.3-1,0.5-2,0.8-3
	c0,0,0,0,0-0.1c0.1-0.2,0.1-0.3,0.1-0.5c0.2-0.7,0.4-1.3,0.5-2v-0.1c0.2-0.6,0.4-1.3,0.5-1.9c0.3-1,0.6-1.9,0.8-2.9l0,0
	c0.4-1.3,0.8-2.7,1.1-4.1V49c0.1-0.3,0.2-0.7,0.3-1l0,0c0.1-0.2,0.1-0.3,0.1-0.5l0,0c0.4-1.4,0.8-2.7,1.1-4.1v-0.1
	c0.3-1.2,0.7-2.4,1-3.6c0.3-0.9,0.5-1.8,0.7-2.7c0.1-0.2,0.1-0.3,0.1-0.5l0,0c0.2-0.5,0.3-1,0.4-1.5l0,0c0.1-0.2,0.2-0.5,0.2-0.7
	c0.5-1.6,0.9-3.1,1.3-4.7c0.2-0.7,0.1-1.5-0.3-2.1l0,0c0,0,0-0.1,0-0.1c0,0,0,0,0,0l0,0c-0.4-0.6-1-1.1-1.7-1.3
	c-0.3-0.1-0.7-0.1-0.8-0.3s0.1-0.6,0.1-0.9v-0.1c0.1-0.4,0.3-0.8,0.3-1.3s0.2-0.4,0.5-0.4h36.3c0.1,0,0.3,0,0.4,0l0,0
	c-0.1,0.2-0.1,0.5-0.2,0.7c-0.4,1.4-0.7,2.8-1.1,4.2c-0.2,0.9-0.4,1.8-0.7,2.8c-0.1,0.3-0.2,0.7-0.3,1v0.1l-0.5,1.9
	c0,0.1,0,0.3-0.2,0.3c-0.4,0-0.9,0-1.3-0.1c0-0.5-0.3-1-0.7-1.3l-0.1-0.1c0-0.1-0.2-0.2-0.3-0.2c-0.6-0.5-1.4-0.8-2.2-0.9
	c0-0.1-0.2-0.1-0.3-0.1c-0.1-0.2-0.3-0.1-0.4-0.1h-12.1c-0.4,0-0.5,0.1-0.6,0.5c0,0.2,0,0.3,0,0.5c-0.2,0.4-0.3,0.8-0.2,1.2
	l-0.1,0.4l-0.1,0.2l-0.3,1v0.2l-0.9,3.3c-0.2,0.8-0.2,0.8,0.6,0.8h13.5l-0.4,1.6l0,0c-0.1,0.1-0.1,0.3-0.1,0.4v0.1
	c-0.1,0.2-0.1,0.4-0.1,0.6c-0.1,0.3-0.2,0.7-0.3,1v0.2c-0.3,0.9-0.5,1.9-0.7,2.8s-0.5,2.1-0.8,3.3c-0.4-0.5-0.9-0.9-1.5-1.2l0,0
	c-0.6-0.3-1.2-0.6-1.8-0.7h-0.1c-0.4-0.1-0.9-0.2-1.3-0.2c-3.1-0.1-6.1,0-9.2,0c-0.1,0-0.3,0-0.2,0.2v0.1l-1.1,4.2v0.1
	c-0.4,1.4-0.8,2.7-1.1,4.1v0.1c-0.2,0.6-0.4,1.1-0.5,1.7c-0.2,1.3,0.4,2.6,1.6,3.1l0,0C159.4,60.5,159.2,60.7,159.3,60.7z"/>
<path class="st7" d="M145,23.1l-0.1,0.2c-0.2-0.1-0.4-0.2-0.6-0.2c-6.8,0-13.7,0-20.5,0c-0.4,0-0.5,0.2-0.7,0.4
	c0-0.4,0.2-0.5,0.6-0.5h20.8C144.7,23,144.9,22.9,145,23.1z"/>
<path class="st9" d="M102.7,58.1v0.7c0,0.2-0.1,0.1-0.2,0c-0.1-0.3-0.1-0.6,0.1-0.9C102.7,57.9,102.7,58,102.7,58.1z"/>
<path class="st7" d="M209.3,56.8h-1.6c-0.1,0-0.2,0-0.3-0.1L209.3,56.8z"/>
<path class="st6" d="M164.9,31.4c-0.2,0.1-0.1,0.3-0.2,0.5V32c-0.1,0.3-0.2,0.7-0.3,1l0,0l-0.1,0.3c0-0.4,0-0.8,0.2-1.2
	c0-0.2,0-0.3,0-0.5c0-0.4,0.2-0.5,0.6-0.5h12.2c0.1,0,0.3-0.1,0.4,0.1h-12.3C165.2,31.3,165,31.2,164.9,31.4z"/>
</svg>
