<?xml version="1.0" encoding="utf-8"?>
<!-- Generator: Adobe Illustrator 21.1.0, SVG Export Plug-In . SVG Version: 6.00 Build 0)  -->
<svg version="1.1" id="Layer_1" xmlns="http://www.w3.org/2000/svg" xmlns:xlink="http://www.w3.org/1999/xlink" x="0px" y="0px"
	 viewBox="0 0 181.1 75.5" style="enable-background:new 0 0 181.1 75.5;" xml:space="preserve">
<style type="text/css">
	.st0{fill:#F69321;}
	.st1{fill:#689149;}
	.st2{fill:#FEFEFE;}
</style>
<title>Grocery</title>
<path class="st0" d="M50.2,75c-0.3-0.1-0.7-0.1-1-0.1c-0.5,0.1-1-0.3-1.1-0.9c0-0.1,0-0.3,0-0.4c0.3-1.9,0.5-3.9,0.7-5.8
	c0.2-2.8,0.3-5.6,0.2-8.4c-0.1-2-0.3-3.9-0.6-5.9c-0.1-0.4-0.2-0.8-0.2-1.1c-0.1-0.3,0-0.7,0.3-0.9c0,0,0.1,0,0.1,0
	c0.2-0.1,0.2-0.1,0.2-0.3c-0.5-4.6-1.2-9.1-2.3-13.6c-1.2-5.4-2.6-10.7-4.3-15.9c-0.6-1.5-1-3.1-1.4-4.7c-0.6-2.4-0.6-5,0-7.4
	c0.6-2.4,2.2-4.4,4.3-5.6c1.6-1,3.2-2,4.8-3.1c0.3-0.2,0.7-0.3,1-0.4h1.1c0.8,0.2,1.5,0.6,2.2,1.1c1.4,0.9,2.9,1.8,4.3,2.7
	c1.6,1.1,2.9,2.7,3.5,4.5c0.7,2.1,0.9,4.3,0.6,6.4c-0.3,2.1-0.9,4.1-1.6,6.1c-0.4,1.1-0.7,2.3-1.1,3.4s-0.6,2.1-0.9,3.1
	c-0.4,1.4-0.8,2.9-1.2,4.3c-0.6,2.5-1.3,5-1.8,7.5c-0.4,1.7-0.7,3.5-1,5.2c-0.2,0.9-0.3,1.8-0.4,2.8c-0.2,1.2-0.3,2.4-0.4,3.6
	c0,0.1,0,0.2,0.1,0.3c0.4,0.1,0.6,0.5,0.4,0.9c0,0,0,0,0,0c-0.3,1.5-0.5,2.9-0.6,4.4c-0.2,2.8-0.3,5.6-0.1,8.4
	c0.1,2.8,0.4,5.5,0.8,8.2c0,0.3,0,0.6-0.1,0.8c-0.1,0.3-0.4,0.5-0.8,0.6c-0.3,0-0.7,0-1,0.1L50.2,75z M42,8.3
	c-0.5,1.2-0.9,2.5-0.9,3.8c-0.1,1.7,0,3.4,0.3,5.1c0.2,0.9,0.4,1.7,0.7,2.6c0-0.1,0-0.2,0-0.3c-0.2-1.5-0.4-3.1-0.5-4.6
	c-0.1-1.7-0.1-3.4,0.2-5.1C41.8,9.3,41.9,8.7,42,8.3L42,8.3L42,8.3L42,8.3z M55.1,36.4c0.1-0.1,0.1-0.2,0.2-0.3
	c1.8-4.9,3.3-9.8,4.3-14.9c0.7-3.2,1-6.5,0.8-9.8c-0.1-1.3-0.4-2.6-0.9-3.8c-0.6-1.6-2-2.8-3.7-3.2c-0.3-0.1-0.6-0.1-0.8-0.1
	c0.4,0.2,0.8,0.4,1.2,0.7c1.2,1.1,2.1,2.5,2.5,4.1c0.7,2.6,0.8,5.3,0.4,8c-0.3,2.5-0.8,4.9-1.4,7.3c-0.8,3.4-1.5,6.7-2.3,10.1
	C55.3,35.2,55.1,35.8,55.1,36.4c-0.1,0-0.1,0.1,0,0.2L55.1,36.4z M52.8,15.9L52.8,15.9c0-0.3,0-0.6,0-0.8c0-2.5,0.1-5.1,0-7.6
	c0-1-0.1-1.9-0.2-2.8c0-0.3-0.1-0.3-0.4-0.3c-0.5,0-1,0-1.6,0c-0.7,0-0.7,0-0.8,0.7V5c-0.1,1.3-0.1,2.5-0.1,3.8c0,2.4,0,4.8,0.1,7.1
	c0.1,2.6,0.1,5.3,0.2,7.9c0.1,2.8,0.2,5.6,0.3,8.4s0.2,5.9,0.3,8.9c0.1,3.3,0.3,6.6,0.4,9.9c0,0.2,0,0.3,0.3,0.3s0.2-0.2,0.2-0.3
	c0.1-3.6,0.3-7.2,0.4-10.8c0.1-2.9,0.2-5.9,0.3-8.8c0.1-2.8,0.2-5.5,0.3-8.3C52.7,20.8,52.7,18.3,52.8,15.9z M52.6,39.9
	c0.4-2.1,0.7-4.3,1-6.4c0.3-2,0.5-3.9,0.8-5.9s0.4-3.7,0.6-5.5c0.3-2.5,0.4-5,0.5-7.5c0.1-2,0-4-0.2-5.9c-0.1-1-0.3-1.9-0.7-2.8
	c-0.2-0.4-0.5-0.8-0.8-1.1c-0.2-0.1-0.3-0.1-0.3,0.2c0,3,0,6-0.1,9.1c0,2.7-0.1,5.3-0.2,8c-0.1,3.4-0.2,6.8-0.4,10.1
	c-0.1,1.6-0.1,3.2-0.2,4.8C52.7,37.9,52.7,38.9,52.6,39.9L52.6,39.9z M50,39.9L50,39.9c0.1-1.1,0-2.2-0.1-3.3
	c-0.1-2.9-0.2-5.7-0.3-8.6s-0.2-5.7-0.3-8.5c-0.1-3.2-0.1-6.5-0.1-9.7c0-1.6,0-3.2,0-4.8c0-0.1,0.1-0.3-0.1-0.3s-0.2,0-0.3,0.1
	c-0.4,0.3-0.6,0.7-0.8,1.1c-0.5,1.6-0.8,3.3-0.8,5c-0.1,1.8-0.1,3.6,0.1,5.5c0.1,1.3,0.1,2.5,0.2,3.8c0.2,1.8,0.3,3.7,0.5,5.5
	c0.2,1.6,0.3,3.1,0.6,4.7s0.5,3.4,0.7,5.1C49.5,36.9,49.8,38.5,50,39.9L50,39.9z M53.8,36.7c0.1-0.2,0.1-0.4,0.2-0.5
	c0.9-3.3,1.8-6.7,2.5-10.1c0.5-2.4,0.9-4.7,1.2-7.1c0.2-1.6,0.4-3.2,0.4-4.8c0.1-1.9,0-3.8-0.4-5.6c-0.2-1.1-0.7-2.1-1.5-2.9
	c-0.2-0.2-0.5-0.4-0.8-0.5c0,0.1,0,0.1,0,0.2c0.6,2.3,0.9,4.8,0.9,7.2c0.1,2.8,0,5.6-0.2,8.4c-0.2,2.2-0.4,4.4-0.7,6.6
	C54.9,30.7,54.4,33.7,53.8,36.7L53.8,36.7z M48.7,36.3L48.7,36.3c0.1-0.1,0.1-0.2,0.1-0.3c-0.5-2.5-0.9-5.1-1.2-7.7
	c-0.3-2.1-0.5-4.2-0.7-6.3c-0.2-2-0.3-3.9-0.3-5.9c-0.1-1.8,0-3.6,0.1-5.5C46.7,9,47,7.2,47.4,5.5c0-0.1,0.1-0.2,0-0.3
	s-0.2,0-0.3,0.1c-0.8,0.5-1.3,1.2-1.6,2c-0.5,1.5-0.8,3-0.8,4.6c-0.1,2.4,0.1,4.9,0.4,7.3c0.3,2.4,0.7,4.8,1.2,7.2s1.1,4.9,1.7,7.4
	C48.3,34.6,48.5,35.5,48.7,36.3L48.7,36.3z M47.6,4.3h-0.3c-1.8,0.2-3.4,1.5-4.1,3.2c-0.6,1.4-1,3-1,4.5c-0.1,2.5,0.1,4.9,0.5,7.3
	c0.4,2.4,0.9,4.7,1.6,7c0.8,2.9,1.7,5.8,2.7,8.6c0.2,0.5,0.3,1,0.5,1.4c0-0.1,0-0.2,0-0.2c-0.8-3.8-1.6-7.7-2.5-11.5
	c-0.7-2.7-1.2-5.4-1.4-8.1c-0.2-2.1-0.2-4.3,0.2-6.4C44.4,7.8,45.3,5.6,47.6,4.3z M60.6,19.6c0-0.1,0.1-0.2,0.1-0.3
	c0.8-2.4,1-5,0.8-7.6c-0.1-1-0.3-1.9-0.6-2.8c-0.1-0.2-0.1-0.2-0.2-0.2C61.5,12.4,61.1,16,60.6,19.6L60.6,19.6z M52.1,2
	c0-0.5-0.4-0.8-0.8-0.8c-0.5,0-0.8,0.4-0.8,0.8c0,0,0,0,0,0c0,0.4,0.3,0.8,0.8,0.8c0,0,0,0,0,0C51.7,2.8,52.1,2.4,52.1,2
	C52.1,2,52.1,2,52.1,2z M48.8,36.6C48.8,36.6,48.8,36.5,48.8,36.6c0-0.1,0-0.1,0-0.1C48.8,36.5,48.8,36.5,48.8,36.6
	C48.8,36.5,48.8,36.6,48.8,36.6z"/>
<path class="st1" d="M0.6,14.5c0.2-0.2,0.5-0.3,0.7-0.3c1.7,0,3.4,0.1,5.1,0.2c0.8,0,1.5,0,2.3-0.1c1,0,2-0.1,3-0.1
	c0.2,0,0.3,0,0.5,0c0.2,0,0.4,0.2,0.4,0.5c0,0,0,0,0,0c0,0.3-0.2,0.3-0.4,0.4c-0.4,0-0.8,0.1-1.3,0.2c-0.8,0.2-1.4,0.8-1.5,1.5
	c-0.2,1-0.3,2.1-0.3,3.1C8.9,25,8.9,30.2,8.9,35.5c0,0.1-0.1,0.3,0.1,0.3s0.2-0.1,0.3-0.2c3.6-4.6,7.2-9.2,10.8-13.8
	c1-1.2,1.9-2.5,2.8-3.8c0.3-0.4,0.5-0.8,0.6-1.3c0.2-0.7-0.1-1.4-0.7-1.7c-0.2-0.1-0.4-0.3-0.3-0.6s0.3-0.3,0.6-0.3
	c0.9,0,1.8,0.1,2.6,0.1c1,0.1,2,0.1,3,0l2.9-0.1c0.2,0,0.3,0,0.5,0.1c0.2,0.1,0.3,0.3,0.3,0.5c0,0.2-0.2,0.3-0.3,0.3c0,0,0,0,0,0
	c-2,0.2-3.9,1.1-5.2,2.6c-1.7,1.7-3.1,3.5-4.6,5.3c-2.8,3.4-5.7,6.8-8.4,10.3l-0.8,1c-0.3,0.4-0.3,0.4,0,0.8c1.1,1.5,2.3,3,3.4,4.4
	c3,3.8,5.9,7.6,8.9,11.3c1.6,2,3.3,3.9,5,5.7c1.3,1.4,2.9,2.5,4.7,3.1c0.6,0.2,1.3,0.3,1.9,0.3h0.2c0.2,0,0.4,0.1,0.4,0.4
	s-0.2,0.4-0.4,0.4c-0.2,0-0.4,0.1-0.6,0.1c-1.8,0-3.5,0-5.3-0.1c-2-0.1-3.9-1-5.3-2.4c-2-1.9-3.8-4-5.4-6.2c-3.3-4.3-6.6-8.6-9.8-13
	c-0.5-0.7-1-1.4-1.5-2.2C9.2,37,9.1,36.9,9,36.9s-0.1,0.2-0.1,0.3c0,3.6,0,7.1,0,10.7c0,2.2,0,4.5,0.1,6.7c0,1,0.1,2.1,0.3,3.1
	c0.1,1.1,1,2.1,2.2,2.1c0.5,0.1,1,0.1,1.5,0.2c0.2,0,0.4,0.1,0.5,0.3c0,0.2-0.1,0.5-0.4,0.5c0,0,0,0,0,0c-0.6,0.1-1.2,0.1-1.7,0
	c-2.6-0.1-5.1-0.1-7.7,0c-0.5,0-1,0-1.4,0c-0.2,0-0.3,0-0.5,0c-0.2,0-0.4-0.2-0.4-0.5c0,0,0,0,0,0c0-0.3,0.2-0.4,0.4-0.4
	c0.4,0,0.9-0.1,1.3-0.2c0.5-0.1,1-0.5,1.2-1c0.3-0.7,0.4-1.5,0.5-2.3c0.2-1.8,0.2-3.6,0.2-5.5c0.1-9.3,0-18.5,0-27.8
	c0-1.7,0-3.3-0.1-5c0-0.3-0.1-0.6-0.1-0.9c-0.1-1.2-1.1-2.1-2.3-2.2c-0.4-0.1-0.8-0.1-1.2-0.1c-0.2,0-0.4-0.1-0.6-0.2L0.6,14.5z"/>
<path class="st1" d="M180.6,49.8c-0.1,0.6-0.1,1.2-0.3,1.8c-0.4,2.4-1.4,4.7-3,6.5c-1.6,1.8-3.9,3-6.3,3.4c-1.9,0.3-3.8,0.2-5.6-0.2
	c-0.7-0.1-1.4-0.4-2-0.6c-0.6-0.2-1.3-0.6-1.8-1c-0.1-0.1-0.2-0.3-0.2-0.5c-0.1-1.8-0.1-3.6,0-5.3c0.1-1.1,0.1-2.2,0.2-3.3
	c0-0.2,0-0.5,0.4-0.5s0.3,0.3,0.4,0.5c0,0.7,0,1.4,0.1,2c0.2,1.4,0.7,2.8,1.5,3.9c0.6,0.8,1.3,1.4,2.1,1.9c1.5,0.8,3.3,1.1,5,0.9
	c2.1-0.3,3.9-1.6,4.9-3.5c0.9-1.6,1.3-3.5,1.1-5.4c-0.1-1.7-0.5-3.3-1.3-4.7c-0.8-1.5-1.8-2.8-3-4c-0.6-0.6-1.2-1.2-1.8-1.8
	c-0.9-1-1.9-1.9-2.8-2.9c-1.6-1.7-3-3.5-4.1-5.6c-0.6-1.1-1-2.4-1.3-3.6c-0.3-1.8-0.4-3.7-0.2-5.5c0.1-0.9,0.3-1.8,0.6-2.6
	c0.2-0.6,0.5-1.2,0.8-1.7c0.7-1.2,1.7-2.2,2.8-3c0.4-0.3,0.8-0.5,1.3-0.7c1.1-0.5,2.3-0.8,3.6-0.9c2-0.2,4.1,0,6,0.6
	c0.5,0.2,1,0.2,1.5,0.3c0.4,0,0.5,0.2,0.5,0.6c-0.1,1.1-0.1,2.2-0.2,3.4s0,2.3-0.1,3.5c0,0.2,0,0.4-0.1,0.5c0,0.2-0.1,0.4-0.3,0.4
	s-0.3-0.2-0.3-0.4c-0.1-0.4-0.1-0.9-0.2-1.3c-0.1-0.9-0.4-1.8-0.8-2.6c-0.8-1.3-2.1-2.2-3.6-2.5c-1.5-0.4-3.1-0.4-4.6,0.1
	c-1.8,0.7-3.1,2.2-3.6,4.1c-0.9,3-0.2,6.3,1.8,8.7c1.5,1.9,3.2,3.7,5,5.4c2.1,1.9,3.9,4.1,5.4,6.4c1.3,2,2,4.3,2.1,6.7
	c0,0.1,0,0.2,0.1,0.2L180.6,49.8z"/>
<path class="st1" d="M103.4,52.5c0-1,0-2,0-3c0-3.1-0.1-6.1-0.1-9.2c-0.1-3.9-0.1-7.9-0.2-11.8c0-1.3,0-2.6-0.1-3.8
	c0-1.3,0-2.7-0.1-4.1c0-1-0.1-1.9-0.2-2.9c-0.1-1.4-1.2-2.5-2.6-2.5c-0.5-0.1-1.1-0.1-1.6-0.1c-0.2,0-0.4-0.1-0.4-0.3
	c-0.1-0.3,0.1-0.3,0.3-0.4c0.2-0.1,0.4-0.2,0.7-0.1c1.5,0,3.1,0.1,4.6,0.2c1.3,0.1,2.6-0.1,3.8-0.2h1.4c0.1,0,0.2,0,0.3,0
	c0.2,0,0.4,0.2,0.4,0.4c0,0.2-0.2,0.4-0.4,0.4c-0.2,0-0.4,0-0.6,0c-1.6,0.3-2.2,0.7-2.5,2.6c-0.1,1.3-0.2,2.7-0.1,4
	c0,3.7,0,7.5,0,11.2c0,6,0,12-0.1,18c0,3,0,6.1-0.1,9.1c0,0.3,0,0.7-0.1,1c-0.1,0.3-0.3,0.4-0.6,0.2c-0.5-0.4-0.9-0.8-1.2-1.2
	c-0.6-0.7-1.3-1.5-1.9-2.2s-1.1-1.4-1.6-2.1c-0.8-1-1.6-2-2.4-3c-0.6-0.7-1.1-1.4-1.7-2.1c-1.3-1.5-2.4-3.2-3.7-4.7
	c-0.9-1.1-1.7-2.3-2.6-3.4c-0.6-0.7-1.2-1.4-1.7-2.2c-0.4-0.6-0.8-1.1-1.2-1.7c-0.6-0.8-1.2-1.6-1.7-2.4c-0.4-0.5-0.8-1-1.1-1.5
	l-1.7-2.3l-6.6-9L75.7,23c0,0.4,0,0.8,0,1.2c0,2,0.1,4,0.1,5.9c0.1,3.1,0.1,6.1,0.2,9.2c0,1.9,0.1,3.8,0.1,5.8s0,3.8,0.1,5.7
	s0,3.6,0.3,5.3c0.1,0.6,0.2,1.2,0.4,1.8c0.2,1,1.1,1.8,2.2,1.9c0.5,0.1,1.1,0.1,1.6,0.2c0.2,0,0.4,0,0.5,0.3s-0.1,0.4-0.5,0.5
	c-0.7,0.1-1.4,0.1-2.1,0c-1.4,0-2.7-0.2-4.1-0.1s-2.6,0.1-3.9,0.2c-0.3,0-0.6,0-0.9,0c-0.3,0-0.3-0.2-0.4-0.5s0.2-0.4,0.4-0.4
	c0.7,0,1.4-0.1,2-0.3c0.5-0.2,0.9-0.6,1-1.1c0.3-1.1,0.5-2.3,0.5-3.5c0.1-2.4,0.1-4.8,0.1-7.1c0-5.8,0-11.5,0-17.3
	c0-4.1,0-8.2,0-12.3c0-1.2,0-2.4,0-3.6c0-0.3,0-0.7,0.1-1c0.1-0.4,0.4-0.5,0.7-0.2c0.3,0.3,0.6,0.6,0.9,1l8.4,11.2
	c1.9,2.5,3.8,5.1,5.7,7.6c1.6,2.2,3.3,4.3,4.9,6.5c1.3,1.7,2.5,3.4,3.8,5.1l3.9,5.3L103.4,52.5z"/>
<path class="st1" d="M146,48.6c0-1.9,0-4-0.1-6.2c0-0.7-0.1-1.3-0.3-2c-0.2-0.6-0.6-1.2-1.2-1.4c-0.7-0.3-1.5-0.5-2.3-0.4
	c-0.4,0-0.6-0.3-0.4-0.6c0.1-0.2,0.3-0.2,0.5-0.2c0.8,0,1.6,0,2.5,0c1.4,0,2.9,0.2,4.3,0.1l3.6-0.1c0.3,0,0.6,0,0.9,0
	c0.2,0,0.4,0.2,0.4,0.4c0,0,0,0,0,0c0,0.2-0.1,0.4-0.3,0.4c0,0,0,0,0,0c-0.4,0-0.8,0.1-1.1,0.2c-0.9,0.1-1.5,0.7-1.7,1.6
	c-0.2,0.8-0.3,1.7-0.3,2.5c-0.1,4.3,0,8.7-0.1,13c0,0.6,0,1.3-0.1,1.9c0,0.5-0.3,1-0.8,1.3c-1.5,0.9-3.2,1.6-5,2
	c-3.2,0.7-6.6,0.8-9.9,0.3c-0.8-0.1-1.6-0.3-2.4-0.5c-3.2-0.8-6.1-2.4-8.5-4.7c-1.2-1.1-2.2-2.4-3.1-3.8c-0.4-0.7-0.8-1.4-1.1-2.1
	c-0.7-1.5-1.2-3-1.7-4.5c-0.3-1-0.5-2-0.6-3c-0.5-3.2-0.6-6.5-0.2-9.7c0.1-0.5,0.1-0.9,0.1-1.4c0.4-2.1,1.1-4.2,1.9-6.3
	c0.4-0.9,0.8-1.7,1.3-2.6c0.9-1.6,2.1-3.2,3.5-4.5c0.7-0.6,1.4-1.2,2.1-1.7c0.8-0.5,1.5-1,2.4-1.3c0.6-0.3,1.3-0.6,2-0.8
	c1.2-0.4,2.5-0.7,3.8-0.8c3.2-0.4,6.5-0.3,9.7,0.3c1.7,0.3,3.3,0.8,5,1c0.5,0,1,0.1,1.5,0.2s0.5,0.2,0.5,0.6s-0.1,1-0.1,1.5
	c-0.1,1.3-0.1,2.6-0.2,3.9s0,2.5,0,3.7c0,0.2,0,0.4-0.1,0.6c0,0.2-0.1,0.3-0.4,0.3s-0.3-0.2-0.3-0.3c-0.1-0.6-0.1-1.1-0.2-1.7
	c-0.2-1.4-0.7-2.8-1.6-3.9c-0.9-1-1.9-1.8-3.1-2.3c-0.9-0.4-1.8-0.7-2.8-1c-2.5-0.7-5-0.9-7.6-0.6c-1.3,0.1-2.6,0.4-3.8,0.9
	c-1.1,0.5-2.2,1.1-3.1,1.8c-2.2,1.7-3.8,4-4.7,6.6c-0.4,1.2-0.8,2.4-1,3.7c-0.2,0.9-0.3,1.9-0.4,2.8c-0.2,2.1-0.3,4.1-0.1,6.2
	c0.2,2.6,0.7,5.1,1.5,7.6c0.7,2,1.6,4,2.7,5.8c0.8,1.3,1.9,2.4,3,3.4c1.2,1.2,2.6,2.1,4.1,2.9c3.1,1.5,6.5,2,9.9,1.3
	c0.7-0.1,1.4-0.3,2-0.6c1.1-0.4,1.8-1.5,1.8-2.7C145.9,53.2,146,51.1,146,48.6z"/>
<path class="st1" d="M65.6,69.6c0,0.6,0,1.2,0,1.8c0,1,0,2,0,3c0,0.2,0,0.3-0.2,0.3c-0.9,0-0.9,0-0.9-0.8c0-1.9,0-3.8,0-5.7
	c0-0.3,0.1-0.3,0.4-0.4c0.7-0.2,1.5,0.3,1.7,1c0.5,1,1.1,1.9,1.7,2.8c0.3,0.4,0.5,0.9,0.7,1.3c0.1-0.1,0.1-0.2,0.1-0.3
	c0-1.5,0-3-0.1-4.6c0-0.3,0.1-0.3,0.3-0.3c0.8,0,0.8,0,0.8,0.8c0,1.9,0,3.8,0,5.8c0,0.3-0.1,0.4-0.4,0.4c-0.1,0-0.2,0-0.3,0
	c-0.5,0.1-0.9-0.2-1.1-0.6C67.5,72.6,66.5,71.2,65.6,69.6L65.6,69.6L65.6,69.6z"/>
<path class="st1" d="M126.5,69.5c0.1,1.6,0,3.2,0,4.8c0,0.3-0.1,0.4-0.4,0.4c-0.8,0-0.8,0-0.8-0.8c0-1.9,0-3.9,0-5.8
	c0-0.3,0.1-0.3,0.3-0.4c0.7-0.2,1.5,0.2,1.8,0.9c0.4,0.9,1,1.8,1.5,2.6c0.4,0.5,0.6,1.1,0.9,1.7c0-0.5,0-1.1,0-1.6
	c0-1.1,0-2.1,0-3.2c0-0.3,0.1-0.3,0.3-0.3c0.8,0,0.8,0,0.8,0.8c0,1.9,0,3.9,0,5.8c0,0.3-0.1,0.3-0.4,0.4c-0.7,0.2-1.5-0.3-1.7-1
	C128.2,72.3,127.2,71,126.5,69.5z"/>
<path class="st1" d="M122.6,71.1c0.1,1.2-0.4,2.4-1.4,3.1c-0.3,0.2-0.6,0.4-1,0.5c-0.8,0.2-1.6,0.2-2.4-0.1
	c-0.7-0.3-1.2-0.8-1.4-1.5c-0.4-1-0.5-2.1-0.1-3.2c0.5-1.7,2.2-2.6,3.8-2.2c1.4,0.2,2.4,1.4,2.4,2.8
	C122.7,70.7,122.6,70.9,122.6,71.1z M121.4,71.2c0-0.3,0-0.6-0.1-0.9c-0.1-0.9-0.8-1.6-1.7-1.7c-0.9-0.1-1.8,0.5-2.1,1.4
	c-0.3,0.8-0.3,1.7,0,2.4c0.2,0.7,0.8,1.2,1.5,1.3c0.8,0.1,1.6-0.3,1.9-1C121.3,72.3,121.5,71.8,121.4,71.2L121.4,71.2z"/>
<path class="st1" d="M92,71.7c0,0.6,0,1.1,0,1.6s0,0.8,0,1.1c0,0.2-0.1,0.3-0.3,0.3c-0.9,0-0.9,0-0.9-0.9c0-1.9,0-3.8,0-5.8
	c0-0.2,0-0.3,0.3-0.3c0.8-0.1,1.6,0,2.4,0.1c0.8,0,1.5,0.7,1.6,1.6c0.1,0.9-0.5,1.8-1.4,2.1c-0.5,0.2-0.5,0.2-0.2,0.6l1,1.3l1,1.4
	h-1.4c-0.1,0-0.1-0.1-0.2-0.2L92.2,72C92.2,71.9,92.1,71.9,92,71.7z M92,69.8L92,69.8c0,0.3,0,0.6,0,0.9c0,0.1,0,0.2,0.1,0.2
	c0.5,0.1,0.9,0,1.4-0.3c0.4-0.2,0.6-0.7,0.5-1.2c-0.1-0.4-0.4-0.7-0.8-0.7c-0.3-0.1-0.7-0.1-1-0.1c-0.2,0-0.2,0.1-0.2,0.2
	S92,69.5,92,69.8L92,69.8z"/>
<path class="st1" d="M152.4,71.8v2.1c0,0.9,0,0.9-0.9,0.9c-0.2,0-0.3-0.1-0.3-0.3c0-0.8,0-1.7,0-2.5c0-1.3,0-2.6,0-3.8
	c0-0.3,0.1-0.4,0.4-0.4c0.9-0.1,1.7,0,2.6,0.1c0.9,0.2,1.5,1.1,1.3,2c-0.1,0.8-0.7,1.5-1.6,1.6c-0.3,0.1-0.3,0.1-0.1,0.3
	c0.6,0.8,1.3,1.6,1.9,2.5c0.1,0.1,0.2,0.2,0.2,0.4h-1.3c-0.1,0-0.2-0.1-0.3-0.2l-1.8-2.5C152.5,71.9,152.5,71.8,152.4,71.8z
	 M152.4,69.8c0,0.3,0,0.6,0,0.9c0,0.1,0,0.2,0.2,0.2c0.4,0,0.8,0,1.1-0.1c0.5-0.2,0.8-0.7,0.7-1.2c-0.1-0.4-0.5-0.8-0.9-0.8
	c-0.2,0-0.5,0-0.7,0s-0.3,0.1-0.3,0.3S152.4,69.5,152.4,69.8L152.4,69.8z"/>
<path class="st1" d="M100.7,67.8c0.7,0,0.8,0,1,0.8c0.3,1.1,0.8,2.1,1.1,3.2c0.3,0.9,0.6,1.8,1,2.7c0.1,0.2,0.1,0.3-0.2,0.3
	c-1,0-1,0-1.3-0.9c-0.2-0.6-0.2-0.6-0.9-0.6s-1.2,0-1.9,0c-0.2,0-0.3,0.1-0.3,0.2c0,0,0,0,0,0c-0.1,0.4-0.3,0.7-0.4,1.1
	c0,0.2-0.1,0.2-0.3,0.2s-0.5,0.1-0.7,0s-0.2-0.1-0.1-0.3c0.4-0.8,0.6-1.8,1-2.6s0.7-1.9,1-2.9c0.1-0.3,0.1-0.6,0.3-0.9
	c0.1-0.2,0.3-0.3,0.5-0.3c0,0,0,0,0,0L100.7,67.8z M100.7,69.1c-0.3,1-0.7,2-1,2.9c-0.1,0.2-0.1,0.3,0.2,0.3c0.6,0,1.1,0,1.7,0
	c0.2,0,0.2,0,0.2-0.2C101.4,71.1,101,70.1,100.7,69.1L100.7,69.1z"/>
<path class="st1" d="M163.7,70.9c0.7-0.8,1.2-1.6,1.8-2.3c0.2-0.3,0.4-0.5,0.6-0.8c0.1-0.1,0.2-0.1,0.3-0.1h1.1
	c0.1,0.1,0,0.2-0.1,0.2c-0.8,1-1.6,1.9-2.4,2.9c-0.2,0.2-0.1,0.3,0,0.5c0.9,1.1,1.7,2.2,2.6,3.3h-1.4c-0.1,0-0.1-0.1-0.2-0.2
	l-2.1-2.8l-0.2-0.2c-0.1,0.1-0.1,0.2-0.1,0.3c0,0.9,0,1.8,0,2.7c0,0.2,0,0.3-0.3,0.3c-0.8,0-0.8,0-0.8-0.8c0-1.9,0-3.9,0-5.8
	c0-0.3,0.1-0.3,0.3-0.3c0.8,0,0.8,0,0.8,0.8S163.7,70.1,163.7,70.9z"/>
<path class="st1" d="M79.8,71.3c0-1.1,0-2.1,0-3.2c0-0.1,0-0.3,0.2-0.3c0.8-0.1,1.6,0,2.4,0.1c0.8,0.1,1.5,0.7,1.7,1.6
	c0.2,0.9-0.2,1.8-1,2.3c-0.6,0.4-1.2,0.5-1.9,0.5c-0.2,0-0.3,0.1-0.3,0.3c0,0.6,0,1.3,0,2c0,0.2,0,0.3-0.3,0.3c-0.2,0-0.4,0-0.6,0
	c-0.2,0-0.3-0.1-0.3-0.3C79.8,73.4,79.8,72.3,79.8,71.3z M80.9,69.9c0,0.3,0,0.7,0,1s0.1,0.3,0.3,0.3c0.4,0,0.8-0.1,1.2-0.2
	c0.4-0.3,0.7-0.7,0.6-1.2c0-0.5-0.4-0.9-0.9-1c-0.3-0.1-0.6-0.1-0.9-0.1c-0.2,0-0.3,0.1-0.3,0.3S80.9,69.6,80.9,69.9z"/>
<path class="st1" d="M170.2,71.3c0-1.1,0-2.1,0-3.2c0-0.2,0.1-0.3,0.3-0.3c1,0,2,0,3.1,0c0.2,0,0.3,0,0.3,0.3c0,0.8,0.1,0.7-0.7,0.7
	h-1.6c-0.2,0-0.3,0-0.3,0.2c0,0.5,0,1,0,1.5c0,0.2,0.1,0.2,0.2,0.2c0.6,0,1.2,0,1.8,0c0.3,0,0.4,0.1,0.3,0.3c0,0.6,0,0.6-0.6,0.6
	h-1.6c-0.2,0-0.2,0-0.2,0.2c0,0.6,0,1.1,0,1.7c0,0.2,0.1,0.2,0.3,0.2c0.6,0,1.3,0,1.9,0c0.3,0,0.4,0.1,0.3,0.3c0,0.6,0,0.6-0.6,0.6
	c-0.9,0-1.8,0-2.7,0c-0.3,0-0.4-0.1-0.4-0.3C170.2,73.3,170.2,72.3,170.2,71.3z"/>
<path class="st1" d="M177.7,74.8c-0.3,0-0.7-0.1-1-0.1c-0.1,0-0.2-0.1-0.2-0.3s0-0.6,0.1-0.8s0.4,0,0.7,0.1c0.6,0.1,1.2,0.1,1.7-0.2
	c0.3-0.2,0.5-0.6,0.4-1c0-0.3-0.2-0.5-0.5-0.6c-0.5-0.2-0.9-0.4-1.4-0.6c-0.9-0.4-1.4-1.5-0.9-2.5c0.1-0.3,0.3-0.5,0.5-0.7
	c0.4-0.3,0.9-0.5,1.5-0.5c0.5,0,1,0,1.4,0.1c0,0,0.1,0,0.1,0c0.2,0.3,0,0.6,0.1,0.8s-0.2,0.1-0.3,0.1c-0.4-0.1-0.8-0.1-1.2-0.1
	c-0.5,0-0.9,0.3-1.1,0.7c-0.1,0.5,0.2,1.1,0.8,1.2c0,0,0,0,0,0c0.5,0.1,0.9,0.3,1.4,0.6c0.7,0.5,1,1.3,0.8,2.1
	c-0.3,0.9-1.1,1.5-2,1.6C178.2,74.8,177.9,74.8,177.7,74.8z"/>
<path class="st1" d="M74.3,74.8c-0.3,0-0.7,0-1-0.1c-0.1,0-0.2,0-0.2-0.1c0-0.3,0-0.6,0-0.9c0-0.1,0.2,0,0.3,0
	c0.5,0.2,1.1,0.2,1.7,0.1c0.5-0.1,0.8-0.5,0.8-0.9c0-0.4-0.1-0.7-0.5-0.9c-0.5-0.2-1-0.4-1.4-0.6c-0.7-0.3-1.2-1.1-1.1-1.9
	c0.1-1,1-1.8,2-1.8c0.5-0.1,1.1,0,1.6,0.1c0.1,0,0.2,0,0.2,0.1c0,0.3,0,0.6-0.1,0.8c0,0.1-0.2,0.1-0.3,0c-0.4-0.1-0.8-0.1-1.2-0.1
	c-0.3,0-0.5,0.1-0.7,0.3c-0.4,0.3-0.5,0.8-0.2,1.1c0,0.1,0.1,0.1,0.1,0.2c0.2,0.2,0.5,0.3,0.8,0.4l0.9,0.4c1,0.4,1.4,1.6,0.9,2.5
	c-0.2,0.3-0.4,0.6-0.7,0.8C75.7,74.7,75,74.8,74.3,74.8z"/>
<path class="st1" d="M139.1,74.8c-0.4,0-0.7,0-1.1-0.1c-0.1,0-0.3-0.1-0.3-0.2c0,0,0,0,0,0c0,0,0-0.1,0-0.1
	c-0.1-0.8-0.1-0.8,0.7-0.6c0.5,0.1,1,0.1,1.4,0c0.4-0.1,0.7-0.4,0.8-0.8c0.1-0.4-0.2-0.8-0.6-1c-0.4-0.2-0.8-0.3-1.2-0.5
	c-0.5-0.2-0.9-0.5-1.1-0.9c-0.3-0.6-0.2-1.4,0.2-1.9c0.4-0.5,1-0.8,1.7-0.9c0.5,0,1,0,1.5,0.1c0.2,0,0.2,0.1,0.2,0.2s0,0.6-0.1,0.7
	s-0.4,0-0.6-0.1c-0.4-0.1-0.8,0-1.2,0.1c-0.3,0.1-0.6,0.4-0.7,0.7c-0.1,0.3,0.1,0.7,0.4,0.9c0.2,0.1,0.4,0.2,0.7,0.3l0.9,0.4
	c1,0.5,1.3,1.6,0.9,2.5c-0.1,0.3-0.4,0.6-0.7,0.8C140.4,74.6,139.7,74.8,139.1,74.8z"/>
<path class="st1" d="M108,71.7c0,0.9,0,1.8,0,2.7c0,0.2-0.1,0.3-0.3,0.3c-0.9,0-0.9,0-0.9-0.9c0-1.6,0-3.1,0-4.7
	c0-0.4-0.1-0.4-0.4-0.4s-0.8,0-1.2,0c-0.2,0-0.2-0.1-0.2-0.2c0-0.7,0-0.7,0.7-0.7c1.3,0,2.6,0,3.9,0c0.3,0,0.3,0.1,0.3,0.3
	c0,0.6,0,0.6-0.6,0.6c-0.3,0-0.6,0-0.9,0s-0.4,0.1-0.4,0.4C108,70,108,70.8,108,71.7z"/>
<path class="st1" d="M145.8,71.7c0-0.9,0-1.8,0-2.7c0-0.3-0.1-0.3-0.3-0.3c-0.4,0-0.9,0-1.4,0c-0.2,0-0.2,0-0.2-0.2
	c0-0.8-0.1-0.8,0.7-0.8h3.9c0.3,0,0.4,0,0.3,0.3c0,0.6,0,0.6-0.6,0.6c-0.3,0-0.6,0-0.9,0s-0.4,0.1-0.4,0.4c0,1.7,0,3.5,0,5.2
	c0,0.3-0.1,0.4-0.4,0.4c-0.8,0-0.8,0-0.8-0.7L145.8,71.7z"/>
<path class="st1" d="M60.3,71.2c0-1.1,0-2.1,0-3.2c0-0.2,0.1-0.3,0.3-0.3c0.9,0,0.9,0,0.9,0.9c0,1.9,0,3.8,0,5.8
	c0,0.3-0.1,0.3-0.3,0.3c-0.8,0-0.8,0-0.8-0.8L60.3,71.2L60.3,71.2z"/>
<path class="st1" d="M112.4,71.3c0-1.1,0-2.1,0-3.2c0-0.3,0.1-0.4,0.3-0.3s0.4,0,0.6,0s0.3,0,0.2,0.2c0,0.1,0,0.2,0,0.3
	c0,2,0,4,0,6.1c0,0.3-0.1,0.3-0.3,0.3c-0.8,0-0.8,0-0.8-0.8S112.4,72.1,112.4,71.3z"/>
<path class="st1" d="M87.7,71.3c0,1,0,2.1,0,3.1c0,0.2,0,0.4-0.3,0.3c-0.8,0-0.8,0-0.8-0.8c0-1.9,0-3.8,0-5.7c0-0.3,0.1-0.4,0.4-0.4
	c0.7,0,0.7,0,0.7,0.7C87.7,69.4,87.7,70.3,87.7,71.3z"/>
<path class="st1" d="M158.4,71.2c0-1,0-2.1,0-3.1c0-0.3,0.1-0.3,0.3-0.3c0.8,0,0.8,0,0.8,0.8c0,1.9,0,3.8,0,5.8c0,0.3,0,0.4-0.4,0.4
	c-0.8,0-0.8,0-0.8-0.8L158.4,71.2L158.4,71.2z"/>
<path class="st1" d="M4.1,73.2c0.3-1.4,0.7-2.6,1-3.9c0.1-0.4,0.2-0.9,0.3-1.3c0-0.1,0.1-0.3,0.3-0.2c1,0,1,0,1.3,0.9
	c0.4,1.4,0.9,2.8,1.2,4.3c0,0,0,0,0.1,0l0.6-2.4C9,69.7,9.2,68.9,9.4,68c0-0.2,0.1-0.3,0.3-0.3c0,0,0,0,0,0c0.9,0,0.9,0,0.7,0.8
	c-0.5,1.9-1,3.9-1.5,5.8c0,0.2-0.1,0.4-0.4,0.3H8.4c-0.3,0-0.7,0.1-0.9-0.1S7.3,74,7.2,73.7c-0.3-1.2-0.7-2.4-1-3.6
	c-0.1-0.3-0.1-0.6-0.2-0.9c-0.4,1.7-0.9,3.4-1.3,5.1c-0.1,0.2-0.2,0.4-0.4,0.3c-0.2,0-0.5,0-0.7,0c-0.2,0-0.3-0.1-0.3-0.2
	c0,0,0,0,0,0c-0.5-2.1-1.1-4.3-1.7-6.4c-0.1-0.3,0-0.3,0.2-0.3c0.9,0,0.9,0,1.1,0.9C3.3,70.1,3.8,71.6,4.1,73.2z"/>
<path class="st1" d="M32.5,71.8c0,0.4,0,0.7,0,1c0,0.6,0,1.1,0,1.7c0,0.2-0.1,0.2-0.2,0.2c-0.9,0-0.9,0-0.9-0.9c0-1.9,0-3.8,0-5.7
	c0-0.3,0.1-0.3,0.3-0.3c0.8-0.1,1.6-0.1,2.4,0c0.9,0,1.6,0.8,1.6,1.7c0.1,0.9-0.5,1.8-1.4,2l-0.5,0.1l2.4,3.1h-1.3
	c-0.2,0-0.2-0.1-0.3-0.2l-1.7-2.4C32.7,72,32.6,71.9,32.5,71.8z M32.5,69.8L32.5,69.8c0,0.3,0,0.6,0,0.9c0,0.1,0,0.2,0.1,0.2
	c0.5,0.1,1.1,0,1.5-0.3c0.3-0.3,0.5-0.7,0.3-1.1c-0.1-0.3-0.4-0.6-0.7-0.7c-0.3-0.1-0.7-0.1-1-0.1c-0.2,0-0.2,0.1-0.2,0.2
	S32.5,69.5,32.5,69.8L32.5,69.8z"/>
<path class="st1" d="M14.2,71.2c0-1.1,0-2.1,0-3.2c0-0.2,0-0.3,0.3-0.3c0.9,0,0.9,0,0.9,0.9c0,0.6,0,1.1,0,1.7c0,0.2,0,0.3,0.3,0.3
	c0.9,0,1.8,0,2.8,0c0.2,0,0.3-0.1,0.3-0.3c0-0.8,0-1.5,0-2.3c0-0.2,0-0.3,0.3-0.3c0.8,0,0.8,0,0.8,0.8c0,1.9,0,3.8,0,5.8
	c0,0.3,0,0.3-0.3,0.3c-0.8,0-0.8,0-0.8-0.8s0-1.3,0-2c0-0.2,0-0.3-0.3-0.3c-0.9,0-1.8,0-2.7,0c-0.2,0-0.3,0.1-0.3,0.3
	c0,0.8,0,1.7,0,2.5c0,0.2-0.1,0.3-0.3,0.3c-0.8,0-0.8,0-0.8-0.9S14.2,72.1,14.2,71.2z"/>
<path class="st1" d="M23.8,71.2c0-1.1,0-2.1,0-3.2c0-0.2,0.1-0.3,0.3-0.3c1,0,2,0,3.1,0c0.2,0,0.3,0,0.3,0.3c0,0.7,0,0.7-0.7,0.7
	h-1.6c-0.2,0-0.3,0.1-0.3,0.3c0,0.5,0,0.9,0,1.4c0,0.2,0.1,0.3,0.3,0.3c0.6,0,1.2,0,1.8,0c0.2,0,0.3,0,0.3,0.3c0,0.6,0,0.6-0.7,0.6
	c-0.5,0-1,0-1.5,0c-0.2,0-0.3,0-0.3,0.3c0,0.5,0,1,0,1.5c0,0.2,0,0.3,0.3,0.3c0.6,0,1.3,0,1.9,0c0.2,0,0.3,0.1,0.3,0.3
	c0,0.7,0,0.7-0.7,0.7c-0.9,0-1.8,0-2.7,0c-0.2,0-0.3-0.1-0.3-0.3C23.8,73.3,23.8,72.3,23.8,71.2z"/>
<path class="st1" d="M39.5,71.2c0-1.1,0-2.1,0-3.2c0-0.2,0.1-0.3,0.3-0.3c1,0,2.1,0,3.1,0c0.2,0,0.3,0.1,0.3,0.3
	c0,0.7,0,0.7-0.7,0.7h-1.6c-0.2,0-0.3,0.1-0.3,0.3c0,0.5,0,1,0,1.4c0,0.2,0.1,0.2,0.3,0.2h1.9c0.2,0,0.3,0.1,0.3,0.3
	c0,0.7,0,0.7-0.7,0.7c-0.5,0-1,0-1.4,0c-0.3,0-0.3,0.1-0.3,0.3c0,0.5,0,1,0,1.4c0,0.3,0.1,0.4,0.4,0.4c0.6,0,1.2,0,1.9,0
	c0.2,0,0.3,0.1,0.3,0.3c0,0.7,0,0.7-0.7,0.7c-0.9,0-1.8,0-2.6,0c-0.3,0-0.3,0-0.3-0.3C39.5,73.3,39.5,72.3,39.5,71.2z"/>
<path class="st2" d="M55.1,36.4v0.2C55,36.5,55,36.4,55.1,36.4z"/>
<path class="st2" d="M48.8,36.6C48.8,36.6,48.8,36.5,48.8,36.6c0-0.1,0-0.1,0-0.1C48.8,36.5,48.8,36.5,48.8,36.6
	C48.8,36.5,48.8,36.6,48.8,36.6z"/>
<path class="st2" d="M42,8.3L42,8.3L42,8.3L42,8.3L42,8.3z"/>
</svg>
