<svg id="Layer_1" data-name="Layer 1" xmlns="http://www.w3.org/2000/svg" viewBox="0 0 230.25 225.43"><defs><style>.cls-1{fill:#e72e2c;}.cls-2{fill:#e62e2c;}</style></defs><title>Kmart</title><path class="cls-1" d="M213.28,168.16a1.71,1.71,0,0,1-1,.09l-103.39,0a2.13,2.13,0,0,1-1.66-.69q-16-16-32-32c-.27-.27-.47-.64-.91-.73a2.11,2.11,0,0,0-.1,1.08q0,15.53,0,31.06c0,.91-.15,1.24-1.17,1.24q-36,0-71.93,0C.2,168.28,0,168,0,167.12q0-83,0-165.93C0,.23.23,0,1.19,0Q37.1,0,73,0c1,0,1.22.21,1.21,1.19,0,10.36,0,20.71,0,31.07a2.68,2.68,0,0,0,.1,1.21c.43-.12.64-.47.91-.74q16-16,31.92-31.93A2.48,2.48,0,0,1,109.05,0q51.55,0,103.1,0h1.18a2.56,2.56,0,0,1-.83,1L130.39,83.1c-1.09,1.08-1.08,1.08,0,2.14l82.36,82.23C212.94,167.66,213.23,167.81,213.28,168.16Z"/><path class="cls-2" d="M58.19,196.1a14.87,14.87,0,0,1,12.4-6.93c5.64-.22,9.26,2.63,11.69,7.42.41-.1.48-.47.66-.72a16.33,16.33,0,0,1,19.41-5.52c4.51,2,6.8,5.56,7.57,10.28a19.86,19.86,0,0,1,.22,3.08c0,6.6,0,13.19,0,19.78,0,.78-.21,1-1,1q-4.89-.08-9.79,0c-.86,0-1.12-.2-1.11-1.1,0-5.89,0-11.79,0-17.68a9.67,9.67,0,0,0-.55-3.53,6.48,6.48,0,0,0-9.39-3.33A7.93,7.93,0,0,0,84.16,206q0,8.73,0,17.48c0,.76-.16,1-1,1q-5-.08-10,0c-.86,0-1-.27-1-1.08,0-6,0-11.92,0-17.88a10.2,10.2,0,0,0-.64-3.91,5.72,5.72,0,0,0-7.72-3.27c-3.06,1.28-4.49,3.8-5.06,6.93a15.18,15.18,0,0,0-.2,2.78c0,5.16,0,10.32,0,15.48,0,.76-.21.95-1,.95-3.46,0-6.92-.05-10.39,0-.86,0-1-.29-1-1.09q0-16,0-32.06c0-.76.16-1,1-1,3.36.05,6.72,0,10.09,0,.68,0,.93.17.91.89C58.16,192.84,58.19,194.47,58.19,196.1Z"/><path class="cls-2" d="M42.65,190.43l-7.6,7.21c-2.42,2.29-4.82,4.59-7.26,6.85-.52.48-.49.73,0,1.24q8.08,8.91,16.12,17.88c.19.21.35.45.53.68-.35.29-.69.18-1,.18-4.93,0-9.86,0-14.79,0a1.78,1.78,0,0,1-1.52-.71q-6.9-8.16-13.85-16.28l-.67-.74a2,2,0,0,0-.14,1.15c0,5.2,0,10.39,0,15.59,0,.79-.22,1-1,1-3.5,0-7,0-10.49,0-.73,0-1-.17-.95-.93q0-21.93,0-43.86c0-.71.21-.88.89-.88,3.53,0,7.06.05,10.59,0,.85,0,1,.3,1,1q0,11.94,0,23.87v1.2c.42-.37.69-.59.94-.83q6.9-6.59,13.78-13.19a1.62,1.62,0,0,1,1.21-.58c4.56,0,9.12,0,13.68,0A4.51,4.51,0,0,1,42.65,190.43Z"/><path class="cls-2" d="M141.84,219.61a20.26,20.26,0,0,1-5.6,4.16,17.59,17.59,0,0,1-6.88,1.64,20.56,20.56,0,0,1-10-1.8,9,9,0,0,1-5.23-8c-.46-6.89,3.33-9.82,8.43-11.34a38.41,38.41,0,0,1,9.12-1.26c3.06-.15,6.12-.13,9.17-.15.55,0,.69-.2.65-.7-.29-3.36-1.9-5.82-6.15-5.93a8.56,8.56,0,0,0-5.11,1.13,3,3,0,0,0-1.5,2c-.1.51-.36.55-.76.55-3.66,0-7.32,0-11,0-.61,0-.73-.23-.67-.77a7.77,7.77,0,0,1,2.22-4.67,16,16,0,0,1,7.9-4.22,35.89,35.89,0,0,1,12.65-.83,22.43,22.43,0,0,1,8.25,2.1,10.5,10.5,0,0,1,6,8,26.46,26.46,0,0,1,.3,4.26c0,6.56,0,13.12,0,19.68,0,.8-.18,1.09-1,1.08-3.23-.05-6.46-.06-9.69,0-.92,0-1.12-.29-1.08-1.13C141.89,222.12,141.84,220.86,141.84,219.61Zm-11-1.58a8.09,8.09,0,0,0,3.1-.44c3.67-1.14,6.67-3,7.5-7.16.16-.81,0-1-.77-1-2.79-.06-5.58,0-8.36.16a10.59,10.59,0,0,0-5.58,1.64,3.49,3.49,0,0,0,.6,6.17A7.79,7.79,0,0,0,130.8,218Z"/><path class="cls-2" d="M190.24,196.47c0-5.53,0-11.05,0-16.58,0-.79.13-1.09,1-1.07,3.43.05,6.85.05,10.28,0,.83,0,1,.27,1,1,0,2.93,0,5.86,0,8.79,0,.81.18,1.09,1,1.07,2.73,0,5.46,0,8.19,0,.75,0,1,.21.95,1q-.07,4.45,0,8.89c0,.83-.28,1-1,1-2.76,0-5.52,0-8.29,0-.64,0-.86.17-.86.83,0,3.66,0,7.32,0,11,0,2.81,1.14,4,3.95,4.25a17.87,17.87,0,0,0,5.15-.42c.74-.14,1.07-.08,1,.81-.06,2.13,0,4.26,0,6.39,0,.42,0,.77-.54.87-4.24.75-8.49,1.37-12.79.49-5.21-1.08-8.27-4.51-8.86-9.82-.35-3.18-.14-6.38-.18-9.57C190.21,202.33,190.24,199.4,190.24,196.47Z"/><path class="cls-2" d="M170.7,197.05c.19-.21.29-.26.32-.34,1.72-4.38,5.25-6.23,9.63-6.85a32.3,32.3,0,0,1,6-.16c.68,0,1,.21,1,1-.05,3,0,5.92,0,8.89,0,.71-.22.91-.91.85a26.33,26.33,0,0,0-8.62.56,9.13,9.13,0,0,0-6.9,8.89c.16,4.49,0,9,.05,13.48,0,.83-.16,1.16-1.08,1.14-3.46-.06-6.92,0-10.38,0-.67,0-.92-.16-.91-.88q0-16.22,0-32.44c0-.66.19-.86.84-.85,3.39,0,6.79,0,10.18,0,.66,0,.86.21.85.86C170.68,193.07,170.7,195,170.7,197.05Z"/><path class="cls-2" d="M229,219.89c-.33,1-.61,2-1,3-.2.49,0,1.32-.89,1.33s-.73-.87-.93-1.38a25.5,25.5,0,0,0-1.16-2.88c0,1.2,0,2.4,0,3.59,0,.32.08.69-.46.68s-.45-.38-.45-.69q0-2.29,0-4.59c0-.34-.13-.8.47-.78s1-.18,1.19.54c.36,1.34.79,2.66,1.28,4.3.5-1.55,1-2.8,1.29-4.08.21-.85.73-.79,1.34-.77.83,0,.48.66.49,1,0,1.46,0,2.92,0,4.39,0,.34,0,.65-.49.65s-.52-.27-.52-.64c0-1.22,0-2.45,0-3.68Z"/><path class="cls-2" d="M220.46,218a2.16,2.16,0,0,1,2.14,1c.14.23.42.58.07.77a.6.6,0,0,1-.92-.24,1.38,1.38,0,0,0-1.54-.65c-.39,0-.73.16-.81.6a.73.73,0,0,0,.53.85c.62.23,1.26.41,1.89.61a1.44,1.44,0,0,1,1.2,1.39,1.78,1.78,0,0,1-1.07,1.76c-1.33.67-3.18.19-3.65-1-.1-.26-.44-.64,0-.84a.58.58,0,0,1,.83.33c.4,1,1.24.84,2,.75a.73.73,0,0,0,.68-.63.72.72,0,0,0-.38-.76,5.83,5.83,0,0,0-1-.41c-.38-.13-.78-.2-1.14-.36a1.57,1.57,0,0,1-1.11-1.6,1.66,1.66,0,0,1,1.42-1.47A7.2,7.2,0,0,1,220.46,218Z"/></svg>