<?xml version="1.0" encoding="utf-8"?>
<!-- Generator: Adobe Illustrator 21.1.0, SVG Export Plug-In . SVG Version: 6.00 Build 0)  -->
<svg version="1.1" id="Layer_1" xmlns="http://www.w3.org/2000/svg" xmlns:xlink="http://www.w3.org/1999/xlink" x="0px" y="0px"
	 viewBox="0 0 224.2 76.4" style="enable-background:new 0 0 224.2 76.4;" xml:space="preserve">
<style type="text/css">
	.st0{fill:#01624E;}
	.st1{fill:#FFFFFF;}
	.st2{fill:#B60138;}
</style>
<title>Fast Food</title>
<path class="st0" d="M112.3,13.2C62.1,7.2,38.7,4.8,2.7,0.5c-1.3,0-2.4-0.1-2.1,1.8c7.8,26.6,8.9,31.1,19,65.7
	c2.1,6.3,5.7,7.9,9.1,7.9h166.8c3.4,0,7-1.7,9.1-7.9c10.2-34.7,11.4-38.9,19.2-65.8c0.1-1.9-0.9-1.8-2.3-1.8
	C185.4,4.8,162.5,7.2,112.3,13.2z"/>
<path class="st1" d="M112.1,16.9c45.3-5.1,72.3-8.5,104.6-12.2c1.2-0.1,2.3-0.8,1.7,1.1c-4.5,15.8-5.9,20.7-14,48.7
	c-1.5,5-3.9,4.5-7.6,4.5H27.3c-3.7,0-5.9,0.5-7.6-4.5c-8-28-9.5-32.9-14-48.7C5.2,3.9,6.3,4.6,7.3,4.6
	C39.9,8.4,66.8,11.8,112.1,16.9z"/>
<path class="st1" d="M199,63.2c-1.5,0-2.7,1.2-2.7,2.7s1.2,2.7,2.7,2.7s2.7-1.2,2.7-2.7C201.7,64.5,200.5,63.2,199,63.2
	C199,63.2,199,63.2,199,63.2z M199,63.7L199,63.7c1.2,0.1,2.2,1.2,2.1,2.4c-0.1,1.1-1,2-2.1,2.1c-1.2,0-2.1-1-2.1-2.2
	c0,0,0-0.1,0-0.1C196.8,64.7,197.8,63.7,199,63.7L199,63.7z M198,64.4v3.1h0.5v-1.3h0.5l0.8,1.3h0.6l-0.9-1.3
	c0.6-0.1,0.8-0.4,0.8-0.9s-0.4-0.8-1.1-0.8L198,64.4z M198.5,65.7v-0.9h0.6c0.5,0,0.7,0.2,0.7,0.5s-0.2,0.5-0.6,0.5L198.5,65.7z"/>
<path class="st1" d="M54,62.5c-2.5-0.1-4.6,1.8-4.7,4.3c0,0,0,0,0,0.1c-0.2,2.6,1.7,5,4.4,5.2c2.6,0.2,5-1.7,5.2-4.4
	c0.2-2.6-1.7-5-4.4-5.2C54.3,62.5,54.1,62.5,54,62.5z M54,64.6c1.3-0.1,2.5,0.9,2.6,2.3c0.1,1.3-0.9,2.5-2.3,2.6c-0.1,0-0.2,0-0.3,0
	c-1.4,0-2.5-1.2-2.5-2.6c0,0,0,0,0,0C51.7,65.6,52.7,64.6,54,64.6z"/>
<path class="st1" d="M76,62.6v4.5c0,1.1-0.1,2.4-1.5,2.4s-1.5-1.3-1.5-2.4v-4.5h-2.2v4.7c0,1.2,0,2.4,0.9,3.2c0.8,0.6,1.8,1,2.8,0.9
	c1,0,2-0.3,2.8-0.9c0.7-0.9,1.1-2,0.9-3.2v-4.7H76z"/>
<path class="st1" d="M94.8,66.5v1.7h1.7c0,0.9-0.8,1.7-1.7,1.7c-0.1,0-0.1,0-0.2,0c-1.4-0.1-2.4-1.4-2.3-2.7c0-1.3,0.8-2.8,2.3-2.8
	c0.9,0.1,1.6,0.7,1.9,1.5l2.1-1.1c-0.7-1.4-2.3-2.3-3.9-2.3c-2.5,0-4.6,2-4.7,4.6c0,2.5,2,4.6,4.6,4.7c1.4,0,2.8-0.6,3.7-1.7
	c0.6-1,0.9-2.2,0.8-3.4L94.8,66.5L94.8,66.5z"/>
<polygon class="st1" points="113.1,66 113.1,62.6 110.9,62.6 110.9,71.3 113.1,71.3 113.1,67.9 116.3,67.9 116.3,71.3 118.6,71.3 
	118.6,62.6 116.3,62.6 116.3,66 113.1,66 "/>
<polygon class="st1" points="130.8,71.3 133.1,71.3 133.1,66 133.1,66 137.2,71.3 139.5,71.3 139.5,62.6 137.2,62.6 137.2,68 
	137.2,68 133.1,62.6 130.8,62.6 130.8,71.3 "/>
<path class="st1" d="M157,62.6v4.6c0,1.2,0,2.3-1.5,2.3s-1.5-1.1-1.5-2.3v-4.6h-2.3v5c-0.1,1.1,0.2,2.2,0.9,3.1
	c0.8,0.7,1.8,1.1,2.8,1.1c1.1,0,2.2-0.3,3-1.1c0.8-0.8,0.8-1.9,0.8-3.1v-5L157,62.6z"/>
<polygon class="st1" points="174.9,64.6 177.4,64.6 177.4,62.6 170.1,62.6 170.1,64.6 172.6,64.6 172.6,71.3 174.9,71.3 174.9,64.6 
	"/>
<path class="st1" d="M194,63.1c-0.9-0.3-1.8-0.5-2.7-0.6c-1.6-0.1-2.9,1.1-3,2.7c0,0.1,0,0.2,0,0.3c0,1.7,0.9,1.9,2.4,2.5
	c0.5,0,1.3,0.2,1.3,0.9c-0.1,0.5-0.5,0.9-1.1,0.8c-0.8-0.1-1.5-0.4-2-0.9l-0.9,1.9c0.9,0.6,2,0.9,3.1,1.1c0.9,0,1.7-0.3,2.5-0.8
	c0.6-0.7,0.9-1.6,0.8-2.5c0-1.3-0.9-2-2.1-2.4l-0.6-0.1c-0.4-0.1-0.9-0.4-0.9-0.8c0-0.5,0.5-0.9,0.9-0.8c0.6,0.1,1.1,0.3,1.5,0.7
	L194,63.1L194,63.1z"/>
<path class="st2" d="M191.1,41.4c2.5,0.1,5.4-1.3,6-2.5s0.4-3.3-1.3-3.3C194.4,35.6,191.7,36.8,191.1,41.4L191.1,41.4z M200.7,45.6
	c-4.7,6.4-11.6,5.6-13.2-0.4c-1.2,2.3-2.8,4.6-5.9,5c-3.7,0.2-4-3.3-3.7-5.3s1.1-3,2.6-7.1c0.9-3-2.1-1.4-3.8,1.4
	c-1.3,3.4-4.1,11-4.1,11c-1.6-0.2-3.1-0.3-4.7-0.2c0.4-1.9,3.1-7.8,4.6-12.2c1.1-3-2.1-1.3-3.9,1.7l-0.1,0.2l-4.3,10.5h-5l1.5-4
	c-0.5,0.6-1,1.2-1.7,1.7c-6.4,4.5-9.5,1.2-10.4-2c-1.8,2.3-4,4.4-5.9,4.1c-3.7-0.1-2.8-5.6-2.1-7.3c1.7-4.8,3.4-6.6,0.1-6.7
	c-0.6,0-4.6,15.4-11.9,16.2c-6.7,0.5-4.1-4.7-3-7.8c1.8-5,3.7-7.4,2.7-9.2c-0.7-1.5-4.9,1.4-6,4.6c-1.7,4-5,12.4-5,12.4l-6.3,0.2
	c0,0,5.2-13.1,10.3-26.5c1.7-4.3-0.9-4.4-2.8-4.3c-1.7,0.1-1.1-1.3,0.1-1.5c6.1-0.5,8.3-0.2,9,0.2c0.9,0.6,1.3,1.7,0.9,2.7
	c-1.1,3-3.1,8-3.4,8.9c-0.8,2.7,0.9,0.2,1.5-0.5c1.8-1.9,3.5-3.9,5.1-6c0.8-0.9,4.4-4.5,6.6-4.5s60.2-0.1,61.7,0
	c1.7,0,3.3-0.6,4.5-1.8c0.5-0.3,1.1-0.3,1.1,0.2c-0.1,0.1-3.1,7-7.1,7h-62.3c-1.3,0-4,1.5-6,4c-1.9,2.3,0.5,1.4,0.5,1.4
	c3.6-0.3,6.7-1.2,1.2,11c-5.3,11.7,2.6,6.3,7.2-7.9c0.2-0.5-1.2-1.1-1.2-2.1c-0.1-1.3-0.5-2.6,1.8-2.6s1.4,2.1,3.2,2.6
	c3.7,1.2,5.7,0,3.8,4.8c-1.9,4.4-3.9,9.9-1.5,9.3c2-0.5,2.6-2.5,3-3.3v-0.5c0.4-4.6,3.1-8.8,5.4-9.7c5.6-2.5,7.7,0.7,7.4,3.7
	c-0.2,3.6-4.3,6-8.9,6.1c-0.1-0.1-0.1,0,0,0.7c0.7,5.2,6.6,2.3,9.8-1.2l4-10.2l5.1-0.1l-1.2,2.9c3.8-4.5,7.8-3.3,7.4,0.7l0.1-0.2
	c4.4-5.7,9.3-3.6,7.6,1.7c-0.2,0.7-2.7,7.7-2.7,7.7s-0.7,2.4,0.8,2.4c1.2,0,3-2.4,3.8-4.5v-0.1c-0.2-4.6,2.6-8.5,4.9-9.7
	c5.6-2.4,7.9,0.8,7.9,3.7c0,3.6-4,6-8.6,6.1c-0.1-0.1-0.1,0,0,0.7c1.2,6.3,7.4,2.1,8.3,0.9C201.9,42.1,201.8,44,200.7,45.6
	L200.7,45.6z M152.4,41.4c2.5,0.1,5.4-1.3,6-2.5s0.6-3.3-1.1-3.3C156,35.5,153.3,36.8,152.4,41.4L152.4,41.4z M64.9,23.6
	c-0.1-1.4,0.9-2.6,2.3-2.8c1.4-0.1,2.6,0.9,2.8,2.3c0,0.2,0,0.3,0,0.5c0,1.4-1.1,2.5-2.5,2.5S64.9,25,64.9,23.6z M96,55
	c1.5-0.9,2.8-2.3,3.6-3.9c-1.5,0.5-2.9,1.3-4.1,2.3C94,54.7,94.7,55.8,96,55L96,55z M88.2,48.1c4-1.2,7.4-6.6,8-8.3
	c1.7-4,3-7.3,3-7.3h4.7c0,0-3.4,8.2-4.8,12.5c-1.4,3.9,2.6,0.6,4.1-3.8c1.4-4,3.2-8.6,3.2-8.6h5.1c0,0-5.8,14.6-6.4,15.9
	c1.8-0.5,4.1,0.8,3.9,1.7c-0.8,2.4-1.3-1.3-4.7-0.2c-1.9,4.5-6,8.5-9.3,8c-4.4-0.6-1.8-6.5,5.4-8.5l0.6-1.8
	c-3.8,3.1-7.3,1.2-6.5-2.5c-2.1,2.8-5.5,4.4-9,4.1c-1.5,0.3-3.1-0.3-4-1.7c-1.2,3.1-2.8,7.2-2.8,7.2h-4.9l2.5-6.3
	c-1.7,1-3.7,1.4-5.7,1.3c-2.3,0.7-4.7-0.5-5.6-2.7c-3.5,4.7-7.4,3-8,0.1c-1.5,1.4-3.1,2.8-4.6,2.6c-3.7-0.1-2.7-5.6-2.1-7.3
	c1.7-4.8,3.4-6.6,0.1-6.7c-0.6,0-4.6,15.4-11.8,16.2c-6.7,0.5-4.1-4.7-3.1-7.8c1.8-5,3.7-7.4,2.7-9.2c-0.7-1.5-4.8,1.4-6,4.6
	c-1.7,4-5,12.4-5,12.4l-6.3,0.2c0,0,5.2-13.1,10.3-26.5c1.7-4.3-1-4.4-2.8-4.3c-1.7,0.1-1.1-1.3,0.2-1.5c6-0.5,8.2-0.2,9,0.2
	c0.9,0.6,1.2,1.7,1,2.7c-1.2,3-3.2,8-3.4,8.9c-1,2.7,1,0.2,1.4-0.5c0.5-0.7,4.4-4.8,5.2-6c0.7-0.9,4.3-4.5,6.6-4.5H64
	c-0.6,0.8-1,1.7-0.9,2.7c0,1,0.4,2,1.1,2.7h-18c-1.3,0-4,1.5-6,4c-1.8,2.3,0.5,1.4,0.5,1.4c3.5-0.3,6.7-1.2,1.2,11
	c-5.3,11.7,2.6,6.3,7.3-7.9c0.1-0.5-1.2-1.1-1.3-2.1c0-1.3-0.3-2.6,1.8-2.6c2.1,0,1.4,2.1,3.2,2.6c3.8,1.2,5.8,0,3.8,4.8
	c-1.8,4.4-3.9,9.9-1.4,9.3c1-0.3,1.8-1.1,2.3-2c2.6-6.9,4.7-12.3,4.7-12.3h4.7c0,0-1.8,4.5-5.2,13.1c-1.2,3,1.3,1.3,3.1-0.6
	c0-1,0.7-2,1.7-2.4c1.9-2.6,8-11.1,8-11.1s0.4,0.2,0,0.9c-0.4,0.7,0.5,4.7,0.9,6c0.6,2,1.7,7.1-1.2,9.5c-0.5,0.4-1,0.8-1.5,1.1
	c1.5-0.3,3-0.9,4.2-1.9l5.7-14.7h4.7c-0.2,0.4-0.3,0.8-0.5,1.2c1.2-1.1,2.8-1.5,4.4-1.3c1.3,0.5,5.7,0.8,0.8,10.8
	C91.1,45.2,89.8,46.9,88.2,48.1L88.2,48.1z M68.1,42.7c2.4,1.2,1.4,4.5-0.2,5c-0.7,0.5,2.5,2.1,3.9-1.2s-0.5-6.6-0.7-7.2
	C70.6,39.8,69.5,41,68.1,42.7L68.1,42.7z M85.7,37.2c-0.3,0.6-2.8,6.7-2.8,6.7c-0.7,1.8,0.3,2.6,1.1,2.7c1.5,0.4,3.1-0.8,4.8-5.2
	C91.4,34.6,86.5,35.5,85.7,37.2z M70.8,20.7c17.3,0,38.2,0,39.1,0.1c1.7,0.1,3.3-0.6,4.5-1.8c0.5-0.3,1.1-0.3,1.1,0.2
	c0,0.1-3,7-7.1,7H70.8c0.6-0.8,0.9-1.7,0.9-2.7C71.7,22.6,71.4,21.6,70.8,20.7L70.8,20.7z"/>
<path class="st1" d="M32.6,64.6h0.5c1.3-0.1,2.4,0.8,2.5,2.1c0,0.1,0,0.3,0,0.4c0.1,1.2-0.9,2.3-2.1,2.4c-0.1,0-0.2,0-0.3,0h-0.5
	L32.6,64.6L32.6,64.6z M30.3,71.3h3.2c2.4,0,4.3-1.9,4.4-4.3c0-2.4-1.9-4.4-4.4-4.5h-3.2V71.3z"/>
</svg>
