<?xml version="1.0" encoding="utf-8"?>
<!-- Generator: Adobe Illustrator 21.1.0, SVG Export Plug-In . SVG Version: 6.00 Build 0)  -->
<svg version="1.1" id="Layer_1" xmlns="http://www.w3.org/2000/svg" xmlns:xlink="http://www.w3.org/1999/xlink" x="0px" y="0px"
	 viewBox="0 0 128.6 101" style="enable-background:new 0 0 128.6 101;" xml:space="preserve">
<style type="text/css">
	.st0{fill:#0468B3;}
	.st1{fill:#FFFFFF;}
	.st2{fill:#FF050C;}
	.st3{fill:#0023D1;}
</style>
<title>CR</title>
<path class="st0" d="M44,76.5c-0.5-0.1-1.1-0.1-1.6-0.2c-1.8-0.2-3.7-0.4-5.5-0.7c-3.2-0.5-6.3-1.4-9.3-2.5c-5.1-1.9-9.8-4.6-14-8.2
	C8.1,60.5,4.1,54.6,2,47.9c-0.7-2.2-1.1-4.4-1.3-6.7c0-0.6-0.1-1.2-0.2-1.8s0-1.1,0-1.7s0.1-1.2,0.2-1.8c0.3-4,1.4-7.9,3.2-11.5
	c3-5.9,7.4-11,12.9-14.7c5.5-3.9,11.8-6.5,18.3-7.9c2.6-0.6,5.3-0.9,8-1.1l1.8-0.1c0.2,0,0.3-0.1,0.5-0.1h2.5c0.2,0,0.4,0.1,0.6,0.1
	C55.2,0.7,62,2.2,68.3,5c6.4,2.7,12,6.9,16.5,12.2c3.6,4.2,6.1,9.3,7.3,14.8c0.4,1.7,0.6,3.5,0.6,5.2c0,0.2,0.1,0.5,0.1,0.7v1.4
	c-0.1,0.6-0.1,1.3-0.2,1.9c-0.3,3.7-1.2,7.4-2.8,10.8c-2.8,6-7.1,11.2-12.5,15c-7.7,5.5-16.8,8.8-26.3,9.4c-0.6,0-1.1,0.1-1.6,0.2
	L44,76.5z M46.7,1.7L46.7,1.7L43.4,2c-2.2,0.1-4.5,0.4-6.7,0.8c-5.4,1-10.7,2.9-15.5,5.6c-5.8,3.2-10.7,7.8-14.3,13.3
	C4,26.2,2.3,31.3,2,36.6c-0.1,2-0.1,4,0.2,5.9c0.5,4,1.8,7.8,3.8,11.3c3.2,5.6,7.7,10.3,13.2,13.7c7.2,4.6,15.5,7.2,24,7.6
	c2.1,0.1,4.3,0.1,6.4,0c2.4-0.1,4.7-0.3,7-0.8c5.6-1,10.9-2.9,15.9-5.8c5.7-3.2,10.5-7.7,14-13.1c2.9-4.5,4.6-9.6,5-14.9
	c0.2-2.5,0-5.1-0.5-7.6c-0.9-4.6-2.8-9-5.6-12.8c-3.9-5.3-8.9-9.6-14.8-12.5C65.4,4.9,59.8,3.1,54,2.4C51.5,2.1,49.1,2,46.7,1.7
	L46.7,1.7z"/>
<path class="st1" d="M46.6,1.8c2.4,0.2,4.9,0.3,7.3,0.6c5.8,0.7,11.4,2.5,16.6,5.2c5.9,2.9,10.9,7.2,14.8,12.5
	c2.8,3.8,4.7,8.2,5.6,12.8c0.5,2.5,0.7,5,0.5,7.6c-0.4,5.3-2.1,10.4-5,14.9c-3.5,5.5-8.4,10-14.1,13.2c-4.9,2.8-10.3,4.8-15.8,5.8
	c-2.3,0.5-4.6,0.7-7,0.8c-2.1,0-4.3,0.1-6.4,0c-8.5-0.5-16.8-3.1-24-7.6c-5.5-3.4-10-8.1-13.2-13.7c-2-3.5-3.2-7.3-3.7-11.3
	c-0.3-2-0.3-4-0.2-5.9C2.3,31.3,4,26.2,6.9,21.7c3.6-5.6,8.5-10.1,14.3-13.3c4.8-2.7,10-4.6,15.5-5.6c2.2-0.4,4.4-0.7,6.7-0.8
	L46.6,1.8L46.6,1.8z M46.1,4.2l-2.8,0.1c-2.3,0.1-4.6,0.4-6.8,0.9c-5.1,1-10,2.8-14.5,5.4c-4.9,2.8-9,6.6-12.3,11.1
	c-3,4.2-4.8,9.1-5.3,14.2c-0.2,2.3-0.1,4.5,0.2,6.8c0.7,4.1,2.2,8,4.4,11.5c3.2,4.9,7.6,9,12.7,11.9c7,4.1,14.9,6.3,23,6.5
	c2.9,0.1,5.8,0,8.6-0.4c3.1-0.4,6.1-1.1,9-2c7.1-2.2,13.5-6.2,18.6-11.7c4.7-5,7.6-11.5,8.1-18.4c0.2-2.4,0-4.7-0.4-7.1
	c-0.9-4.4-2.7-8.6-5.4-12.2c-3.5-4.7-7.9-8.5-13.1-11.1C62.7,6,54.4,4.1,46.1,4.2L46.1,4.2z"/>
<path class="st0" d="M46.1,4.2C54.4,4.1,62.6,6.1,70,9.9c5.1,2.7,9.6,6.5,13.1,11.1c2.7,3.6,4.5,7.8,5.4,12.2
	c0.4,2.3,0.6,4.7,0.4,7.1c-0.5,6.9-3.3,13.4-8.1,18.4c-5,5.5-11.5,9.5-18.6,11.7c-2.9,0.9-5.9,1.6-9,2c-2.9,0.4-5.7,0.5-8.6,0.4
	c-8.1-0.2-16-2.4-23-6.5c-5.1-2.9-9.4-7-12.6-11.9c-2.3-3.5-3.8-7.4-4.4-11.5c-0.4-2.2-0.4-4.5-0.2-6.8c0.5-5.1,2.3-10,5.2-14.2
	c3.2-4.6,7.4-8.4,12.3-11.1c4.5-2.6,9.4-4.4,14.5-5.4c2.3-0.5,4.5-0.8,6.8-0.9L46.1,4.2z M17.8,34.9c0-0.7,0-1.4,0-2
	c0-2.6,0-5.3,0.1-7.9c0-0.3-0.1-0.4-0.4-0.4c-1.1,0-2.2,0-3.2,0c-0.5,0-0.5,0-0.5,0.5c0,7.8,0,15.6,0,23.3v0.5c0.2,0,0.3,0,0.4,0
	c1.1,0,2.2,0,3.3,0c0.4,0,0.5-0.1,0.5-0.5c0-3.1,0-6.2,0-9.3c0-0.4,0.1-0.5,0.5-0.4c1,0.2,1.9,0.8,2.5,1.7c0.6,0.9,0.8,1.9,0.8,3
	c0,1.7,0,3.4,0,5c0,0.3,0.1,0.4,0.4,0.4c1.2,0,2.4,0,3.6,0c0.3,0,0.4-0.1,0.4-0.4c-0.1-1.8-0.1-3.6-0.3-5.3c-0.1-1.3-0.4-2.5-1-3.7
	c-0.5-1.2-1.7-2.1-3-2.2c-0.1,0-0.2-0.1-0.2-0.1c1.7-1,2.9-2.5,3.6-4.4c0.5-1.4,0.7-2.8,0.7-4.2c0-1.3,0-2.6,0.2-3.9
	c0.3-1.7,0.9-3.3,1.9-4.7c1.8-2.4,5.2-2.8,7.6-1c0.4,0.3,0.7,0.6,1,1c0.9,1.2,1.5,2.6,1.8,4.1c0.4,1.9,0.6,3.8,0.5,5.7
	c0,0.3,0.1,0.4,0.4,0.4c1.2,0,2.3,0,3.5,0c0.3,0,0.4-0.1,0.4-0.4c0.1-2.7-0.4-5.3-1.2-7.8c-0.6-2-1.8-3.7-3.4-5.1
	c-2.2-1.7-4.9-2.3-7.6-1.8c-3.2,0.3-6,2.2-7.5,5c-1,1.7-1.6,3.7-1.7,5.7c-0.1,1.3-0.1,2.6-0.3,3.9c-0.2,1.5-0.7,2.9-1.7,4
	C19.3,34.2,18.6,34.7,17.8,34.9L17.8,34.9z M56.7,48.3c0,0.2,0,0.3,0,0.5c0.1,1.7,0,3.4-0.2,5.1c-0.2,1.6-0.6,3.1-1.3,4.6
	c-1.2,2.5-3.1,3.9-6,3.7c-1.6-0.1-3.1-0.9-4-2.1c-0.9-1.2-1.5-2.7-1.8-4.2c-0.3-1.5-0.4-3-0.4-4.5c0-0.2,0-0.4-0.3-0.4
	c-1.2,0-2.4,0-3.6,0c-0.3,0-0.4,0.1-0.3,0.4c0,0.4,0,0.8,0.1,1.3c0.1,2,0.5,4,1.2,5.9c0.7,2.1,2.1,3.9,4,5.1
	c2.4,1.4,5.3,1.9,8.1,1.2c3.2-0.6,5.9-2.9,7.1-5.9c1.1-2.7,1.7-5.7,1.6-8.6c0-5.5,0-11,0-16.6c0-0.4,0-0.8,0-1.2s-0.1-0.3-0.4-0.3
	H57c-0.1,0-0.2,0-0.3,0v0.8c-1-0.7-2.3-1-3.5-0.7c-1.9,0.4-3.5,1.8-4.2,3.6c-0.6,1.3-0.9,2.7-0.9,4.1c-0.1,1.7,0.2,3.5,0.8,5.1
	c1.1,2.9,4.4,4.4,7.3,3.3c0.1,0,0.2-0.1,0.3-0.1C56.6,48.4,56.6,48.3,56.7,48.3L56.7,48.3z M74.4,40.8c0-0.1,0-0.1,0-0.2
	c0.1-1.7-0.3-3.4-1-4.9c-1.1-2.5-3.7-3.8-6.4-3.3c-1.9,0.3-3.6,1.6-4.3,3.4c-1.4,2.9-1.5,6.3-0.3,9.3c1.2,3.3,4.3,4.4,7.3,3.7
	c2.5-0.6,4.6-3.6,4.6-6.5h-0.4c-1,0-1.9,0-2.9,0c-0.4,0-0.5,0.1-0.5,0.4c-0.1,0.6-0.3,1.3-0.6,1.8c-0.5,1-1.7,1.4-2.7,0.9
	c-0.4-0.2-0.7-0.5-0.9-0.9c-0.3-0.6-0.5-1.2-0.6-1.9c-0.1-0.6-0.2-1.2-0.2-1.8L74.4,40.8z M47.3,40.5c0-0.3,0-0.7-0.1-1.1
	c-0.1-1.6-0.5-3.1-1.3-4.4c-1.7-2.8-5.3-3.6-8.1-1.9c-1,0.6-1.7,1.5-2.2,2.5c-0.6,1.2-0.9,2.5-1,3.9c-0.2,1.8,0,3.6,0.6,5.3
	c0.9,2.9,3.9,4.7,6.9,4c1.9-0.3,3.4-1.6,4.2-3.3C47,43.9,47.3,42.2,47.3,40.5L47.3,40.5z M30.5,33.3c-0.1-0.2-0.2-0.4-0.3-0.7
	c0-0.2-0.3-0.4-0.5-0.4c-0.8,0-1.6,0-2.4,0c-0.3,0-0.4,0.1-0.4,0.4c0,5.3,0,10.5,0,15.8c0,0.3,0.1,0.4,0.4,0.4c1,0,2,0,3,0
	c0.6,0,0.6,0,0.6-0.6c0-3.1,0-6.3,0-9.4c0-0.8,0.3-1.5,1-1.9c0.4-0.2,0.8-0.4,1.3-0.5c0.5-0.1,1-0.2,1.5-0.3c0-1.2,0-2.3,0-3.5
	c0-0.1-0.2-0.2-0.2-0.2c-0.5-0.1-1-0.1-1.4-0.2C32,32.4,31.2,32.8,30.5,33.3z M78.8,33.3c-0.1-0.3-0.2-0.4-0.3-0.7
	c0-0.3-0.3-0.4-0.5-0.4c0,0,0,0,0,0c-0.8,0-1.6,0-2.3,0c-0.4,0-0.4,0.1-0.4,0.5c0,5.2,0,10.5,0,15.7c0,0.1,0,0.3,0,0.4h3.4
	c0.6,0,0.6,0,0.6-0.6c0-3.1,0-6.2,0-9.3c0-0.9,0.5-1.7,1.3-2.1c0.3-0.2,0.7-0.3,1-0.4c0.5-0.1,1-0.2,1.5-0.3c0,0,0,0,0-0.1
	c0-1.1,0-2.3,0-3.4c0-0.1-0.1-0.2-0.2-0.3c-0.5-0.1-1-0.1-1.5-0.2C80.3,32.4,79.5,32.8,78.8,33.3L78.8,33.3z M63.3,49.8
	c-0.9,0-1.6,0.7-1.6,1.6c0,0.9,0.7,1.6,1.6,1.6c0.9,0,1.6-0.7,1.6-1.6C64.9,50.6,64.2,49.8,63.3,49.8z"/>
<path class="st1" d="M17.8,34.9c0.8-0.2,1.5-0.7,2-1.3c0.9-1.1,1.5-2.5,1.7-4c0.2-1.3,0.2-2.6,0.3-3.9c0.1-2,0.6-3.9,1.6-5.6
	c1.5-2.8,4.3-4.7,7.5-5c2.7-0.5,5.5,0.2,7.6,1.8c1.6,1.3,2.8,3.1,3.4,5.1c0.9,2.5,1.3,5.2,1.2,7.8c0,0.3-0.1,0.4-0.4,0.4
	c-1.2,0-2.3,0-3.5,0c-0.3,0-0.4-0.1-0.4-0.4c0-1.9-0.1-3.8-0.5-5.7c-0.3-1.5-0.9-2.9-1.8-4.1c-1.8-2.4-5.2-2.8-7.6-1
	c-0.4,0.3-0.7,0.6-1,1c-1,1.4-1.6,3-1.9,4.7c-0.2,1.3-0.3,2.6-0.2,3.9c0,1.4-0.2,2.9-0.7,4.2c-0.6,1.8-1.9,3.4-3.6,4.4
	c0.1,0,0.1,0.1,0.2,0.1c1.3,0.1,2.5,1,3,2.2c0.6,1.1,0.9,2.4,1,3.7c0.2,1.8,0.2,3.6,0.3,5.3c0,0.3-0.1,0.4-0.4,0.4
	c-1.2,0-2.4,0-3.6,0c-0.3,0-0.4-0.1-0.4-0.4c0-1.7,0-3.4,0-5c0-1.1-0.3-2.1-0.8-3c-0.5-0.9-1.3-1.6-2.4-1.8c-0.4-0.1-0.5,0-0.5,0.4
	c0,3.1,0,6.2,0,9.3c0,0.4-0.1,0.5-0.5,0.5c-1.1,0-2.2,0-3.3,0c-0.1,0-0.3,0-0.4,0v-0.5c0-7.8,0-15.6,0-23.3c0-0.5,0-0.5,0.5-0.5
	c1.1,0,2.2,0,3.2,0c0.3,0,0.4,0.1,0.4,0.4c0,2.6,0,5.3-0.1,7.9C17.8,33.6,17.8,34.2,17.8,34.9z"/>
<path class="st1" d="M56.7,48.3c-0.1,0-0.2,0.1-0.3,0.1c-2.9,1.2-6.2-0.1-7.4-2.9c0-0.1-0.1-0.2-0.1-0.3c-0.6-1.6-0.9-3.3-0.8-5.1
	c0-1.4,0.3-2.8,0.9-4.1c0.7-1.8,2.3-3.2,4.2-3.6c1.2-0.3,2.5,0,3.5,0.7v-0.8c0.1,0,0.2,0,0.3,0h3.5c0.3,0,0.4,0.1,0.4,0.3
	s0,0.8,0,1.2c0,5.5,0,11,0,16.6c0.1,3-0.5,5.9-1.6,8.6c-1.2,3.1-3.8,5.3-7.1,5.9c-2.7,0.7-5.6,0.3-8.1-1.2c-1.9-1.2-3.3-3-4-5.1
	c-0.7-1.9-1.2-3.9-1.2-5.9c0-0.4,0-0.8-0.1-1.3c0-0.3,0.1-0.4,0.3-0.4c1.2,0,2.4,0,3.6,0c0.3,0,0.3,0.2,0.3,0.4c0,1.5,0.1,3,0.4,4.5
	c0.2,1.5,0.8,3,1.8,4.2c0.9,1.3,2.4,2.1,4,2.1c2.9,0.2,4.8-1.2,6-3.7c0.7-1.5,1.1-3,1.3-4.6c0.2-1.7,0.3-3.4,0.2-5.1
	C56.8,48.7,56.7,48.5,56.7,48.3z M57.1,40.6c0-0.7-0.1-1.3-0.2-2c-0.1-0.8-0.3-1.6-0.8-2.2c-0.6-0.9-1.9-1.1-2.8-0.5
	c-0.2,0.1-0.4,0.3-0.5,0.5c-0.3,0.4-0.5,0.9-0.6,1.5c-0.4,1.6-0.4,3.3-0.1,4.9c0.1,0.8,0.4,1.6,0.9,2.3c0.7,0.8,1.9,1,2.7,0.3
	c0.1-0.1,0.2-0.2,0.3-0.3c0.3-0.4,0.5-0.8,0.7-1.2C56.9,42.8,57.1,41.7,57.1,40.6z"/>
<path class="st1" d="M74.4,40.8h-8.9c0,0.6,0.1,1.2,0.2,1.8c0.1,0.6,0.3,1.3,0.6,1.9c0.5,1,1.7,1.4,2.7,0.9c0.4-0.2,0.7-0.5,0.9-0.9
	c0.3-0.6,0.4-1.2,0.6-1.8c0.1-0.3,0.2-0.5,0.5-0.4c1,0,1.9,0,2.9,0h0.4c0.1,2.9-2,5.8-4.6,6.5c-3,0.8-6.1-0.3-7.3-3.7
	c-1.2-3-1.1-6.3,0.3-9.3c0.7-1.8,2.4-3.1,4.3-3.4c2.6-0.5,5.3,0.9,6.4,3.3c0.7,1.5,1.1,3.2,1,4.9C74.4,40.7,74.4,40.7,74.4,40.8z
	 M70,38c0.1-1.2-0.8-2.3-2-2.4s-2.3,0.8-2.4,2c0,0.1,0,0.3,0,0.4H70z"/>
<path class="st1" d="M47.3,40.5c0,1.7-0.3,3.4-1,5c-0.7,1.7-2.3,3-4.2,3.3c-3,0.7-6-1.1-6.9-4c-0.6-1.7-0.8-3.5-0.6-5.3
	c0.1-1.3,0.4-2.7,1-3.9c1.4-2.9,4.9-4.2,7.8-2.8c1,0.5,1.9,1.2,2.5,2.2c0.8,1.3,1.3,2.8,1.3,4.4C47.2,39.9,47.3,40.3,47.3,40.5z
	 M43.4,40.6c0-0.4,0-0.9,0-1.3c0-0.9-0.3-1.8-0.7-2.7c-0.5-1-1.7-1.4-2.7-0.9c-0.4,0.2-0.7,0.5-0.9,0.9c-0.2,0.3-0.3,0.7-0.4,1
	c-0.4,1.6-0.5,3.3-0.2,5c0.1,0.8,0.3,1.5,0.8,2.1c0.6,0.9,1.9,1.1,2.8,0.5c0.2-0.1,0.4-0.3,0.5-0.5c0.2-0.3,0.4-0.6,0.5-1
	C43.3,42.7,43.4,41.7,43.4,40.6L43.4,40.6z"/>
<path class="st1" d="M30.5,33.3c0.7-0.6,1.6-0.9,2.4-1c0.5,0,1,0.1,1.5,0.2c0.1,0,0.2,0.2,0.2,0.2c0,1.2,0,2.3,0,3.5
	c-0.5,0.1-1,0.2-1.5,0.3c-0.4,0.1-0.9,0.3-1.3,0.5c-0.7,0.4-1,1.1-1,1.9c0,3.1,0,6.3,0,9.4c0,0.6,0,0.6-0.6,0.6c-1,0-2,0-3,0
	c-0.3,0-0.4-0.1-0.4-0.4c0-5.3,0-10.5,0-15.8c0-0.3,0.1-0.4,0.4-0.4c0.8,0,1.6,0,2.4,0c0.2,0,0.5,0.1,0.5,0.4
	C30.3,32.9,30.4,33.1,30.5,33.3z"/>
<path class="st1" d="M78.8,33.3c0.7-0.6,1.5-0.9,2.4-1c0.5,0,1,0.1,1.5,0.2c0.1,0,0.2,0.2,0.2,0.3c0,1.1,0,2.3,0,3.4c0,0,0,0,0,0.1
	c-0.5,0.1-1,0.2-1.5,0.3c-0.3,0.1-0.7,0.2-1,0.4c-0.8,0.4-1.3,1.2-1.3,2.1c0,3.1,0,6.2,0,9.3c0,0.6,0,0.6-0.6,0.6h-3.4
	c0-0.2,0-0.3,0-0.4c0-5.2,0-10.5,0-15.7c0-0.3,0.1-0.5,0.4-0.5c0.8,0,1.6,0,2.3,0c0.3,0,0.5,0.1,0.5,0.4c0,0,0,0,0,0
	C78.6,32.9,78.7,33.1,78.8,33.3z"/>
<path class="st0" d="M57.1,40.6c0,1.1-0.1,2.2-0.4,3.2c-0.1,0.4-0.4,0.8-0.7,1.2c-0.7,0.8-1.9,1-2.7,0.3c-0.1-0.1-0.2-0.2-0.3-0.3
	c-0.5-0.6-0.8-1.4-0.9-2.3c-0.3-1.6-0.2-3.3,0.1-4.9c0.1-0.5,0.3-1,0.6-1.5c0.6-0.9,1.9-1.1,2.8-0.5c0.2,0.1,0.4,0.3,0.5,0.5
	c0.4,0.7,0.7,1.4,0.8,2.2C57,39.3,57,40,57.1,40.6z"/>
<path class="st0" d="M70,38h-4.5c-0.1-1.2,0.8-2.3,2-2.4c1.2-0.1,2.3,0.8,2.4,2C70.1,37.7,70.1,37.8,70,38z"/>
<path class="st0" d="M43.4,40.6c0.1,1.1-0.1,2.2-0.4,3.2c-0.1,0.4-0.3,0.7-0.5,1c-0.6,0.9-1.9,1.1-2.8,0.5c-0.2-0.1-0.4-0.3-0.5-0.5
	c-0.4-0.6-0.7-1.4-0.8-2.1c-0.3-1.7-0.2-3.4,0.2-5c0.1-0.3,0.2-0.7,0.4-1c0.5-1,1.7-1.4,2.7-0.9c0.4,0.2,0.7,0.5,0.9,0.9
	c0.4,0.8,0.7,1.7,0.7,2.7C43.4,39.7,43.4,40.2,43.4,40.6z"/>
<circle class="st1" cx="63.3" cy="51.5" r="1.7"/>
<circle class="st0" cx="63.3" cy="51.5" r="1.3"/>
<path class="st1" d="M62.6,50.6c0.2,0,0.4,0,0.5,0c0.2,0,0.4,0,0.6,0.1c0.1,0.1,0.2,0.2,0.2,0.4c0,0.2-0.1,0.4-0.3,0.4l0,0
	c0.1,0.1,0.2,0.2,0.2,0.3c0.1,0.2,0.1,0.4,0.2,0.5h-0.4c-0.1-0.1-0.1-0.3-0.1-0.4c0-0.2-0.1-0.3-0.3-0.3H63v0.7h-0.4L62.6,50.6z
	 M63,51.4h0.2c0.2,0,0.3-0.1,0.3-0.3s-0.1-0.3-0.3-0.3H63V51.4z"/>
<path class="st2" d="M71.3,58.4h8c-1,3.8-1.9,7.7-2.9,11.6c-1.4,5.5-2.7,11-4.1,16.5c-0.2,0.6-0.6,1.1-1.2,1.3
	c-5.3,1-10.7,1.7-16.2,0.9c-1.1-0.2-2.2-0.4-3.2-0.8c-3.8-1.3-5.3-3.9-4.3-7.8c0.8-2.9,1.9-5.6,3.3-8.3c2.1-3.9,4.7-7.5,7-11.2
	c0.4-0.8,1.3-1.3,2.3-1.2c1.9,0.1,3.7,0,5.8,0c-0.4,0.6-0.8,1.1-1.1,1.7c-2.6,4.4-5.3,8.8-7.7,13.3c-0.7,1.3-1.1,2.8-1.3,4.2
	c-0.4,1.7,0.6,3.5,2.3,3.9c0.1,0,0.1,0,0.2,0c2.4,0.6,4.9,0.4,7.2-0.6c0.4-0.1,0.7-0.9,0.8-1.4c1.7-7,3.3-13.9,4.9-20.9
	C71,59.4,71.2,59,71.3,58.4z"/>
<path class="st2" d="M104.9,60.3c-3.8,0.3-7.6,0.5-11.3,0.7c-2.5,0.1-2.5,0.1-3.1,2.5l-0.9,3.5l12.5-0.6c-1,1.8-1.8,3.4-2.7,4.8
	c-0.4,0.4-1,0.6-1.5,0.6c-2.8,0.2-5.6,0.4-8.4,0.4c-0.8-0.1-1.5,0.5-1.6,1.3c0,0,0,0.1,0,0.1c-0.4,1.7-0.8,3.3-1.3,5.2l15-1
	c-1.2,2.3-2.3,4.4-3.4,6.4c-0.1,0.2-0.5,0.3-0.7,0.3c-6.5,0.5-12.9,1-19.4,1.4c-0.2,0-0.4,0-0.6-0.1c0.3-1.4,0.6-2.8,0.9-4.1
	c1.8-7.8,3.6-15.6,5.5-23.4c0.2-0.9,0.5-1.4,1.6-1.5c6.1-0.7,12.3-1.6,18.4-2.4c0.3,0,0.6,0,0.8,0L104.9,60.3z"/>
<path class="st2" d="M45.3,74c-0.9,1.7-1.7,3.3-2.6,4.8c-0.3,0.4-0.8,0.6-1.3,0.6c-2.1,0.1-4.2,0.2-6.3,0.1c-1.5,0-2,0.5-2.3,2
	c-0.5,3.4-1.3,6.8-2,10.2c-0.1,0.5-0.4,0.9-0.8,1.2c-2.9,1.6-5.8,3.1-8.8,4.7c-0.2,0-0.4,0-0.6,0c0.4-2,0.9-4,1.3-5.9
	c2-9,4.1-18,6.1-27c0.2-0.7,0.2-1.4,1.3-1.5c6.2-0.3,12.4-0.6,18.6-0.9c0.2,0,0.4,0.1,0.6,0.1c-0.1,1.3-0.2,2.6-0.3,4
	c0,0.9-0.7,0.9-1.3,0.9c-3.4,0.2-6.7,0.5-10.1,0.6c-1.1,0.1-1.7,0.3-1.8,1.5C35,71,34.6,72.4,34.3,74L45.3,74z"/>
<path class="st2" d="M118.4,52.6l-5.3,22.8l12.3-1.1c-1.1,2.3-2.2,4.3-3.3,6.3c-0.2,0.3-0.6,0.5-0.9,0.5c-5.5,0.5-11,1-16.5,1.5
	c-0.2,0-0.4-0.1-0.6-0.1c0.4-1.7,0.7-3.4,1-5c1.6-7.6,3.3-15.1,4.9-22.7c0.3-1.2,0.7-1.7,1.9-1.8C114,53,116,52.8,118.4,52.6z"/>
<path class="st3" d="M82,60.9c0,0.4-0.1,0.8-0.1,1.2c-2.2,8.9-4.4,17.7-6.5,26.6c-0.1,1-0.9,1.8-1.9,1.9c-5.8,0.9-11.6,1.7-17.5,0.4
	c-1.5-0.4-2.8-1.1-4.1-1.9c6.6,1.3,13.1,0.6,19.5-0.6c0.7,0,1.3-0.6,1.4-1.3c2.1-8.8,4.3-17.6,6.5-26.4"/>
<path class="st3" d="M103.4,80.7c0.1,2.4-1,4.2-2.1,6.1c-0.2,0.4-1.1,0.5-1.7,0.6c-4.4,0.4-8.8,0.6-13.2,1c-0.6,0-1.2,0.1-2,0.2
	l0.9,2c-1.2,0.4-2.3,1.2-3.3-0.3c-0.2-0.2-0.6-0.4-0.9-0.4c-1.1-0.1-2,0.7-2.1,1.8c-0.4,1.8,0,3.4,1.2,3.8c0.9,0.4,2,0,2.4-0.9
	c0-0.1,0.1-0.2,0.1-0.3c0.1-0.1,0.2-0.3,0.3-0.4c0.4,0.1,0.7,0.2,1.1,0.3s0.8,0.3,1.2,0.4c-0.4,2.4-1.9,3.4-4.6,3.3s-4.4-1.6-4.6-4
	c-0.4-3.5,0.9-4.5,4-6.1c3.7-1.9,7.6-1,11.4-1.7c2-0.4,4-0.3,6-0.6c0.6-0.2,1.2-0.6,1.6-1.1c0.4-0.4,0.7-1,0.8-1.5
	C100.4,81,101.6,80.5,103.4,80.7z"/>
<path class="st3" d="M33.8,80.1c2.5,0,4.9-0.1,7.3,0c1.1,0.1,2.2-0.5,2.5-1.6c1.1-2.1,1.1-2.1,4-1.8c-0.7,1.7-1.4,3.3-2.2,4.8
	c-0.1,0.3-0.8,0.4-1.2,0.4c-2.3,0.1-4.6,0.2-6.9,0.2c-0.7-0.1-1.4,0.3-1.5,1.1c0,0.1,0,0.1,0,0.2c-0.6,3.5-1.3,7-2,10.5
	c-0.1,0.9-0.6,1.6-1.4,2c-2.9,1.4-5.8,3-8.9,4.7c0.1-0.9,0.3-1.8,0.6-2.7c0.3-0.7,0.7-1.3,1.3-1.7c1.6-1,3.2-1.7,4.8-2.6
	c0.5-0.3,0.9-0.9,1.1-1.5C32.2,88.1,32.9,84.3,33.8,80.1z"/>
<path class="st3" d="M68.6,62.1l-0.7,1.3l1.4-0.3c-0.3,1.5-0.6,2.9-1,4.2c-0.2,0.5-0.6,0.9-1.2,1c-2.7,0.4-4.2,2.2-5.2,4.5
	c-1.3,2.9-2.6,5.7-4,8.7c-1.3-0.1-2.2-1.5-1.6-3.4c0.6-2.1,1.4-4.1,2.4-6c1.6-2.9,3.3-5.7,5.1-8.6C65,61.6,66,61.3,68.6,62.1z"/>
<path class="st3" d="M107.2,85.2c-0.1-1.7,0.7-2.1,2.2-2.2c4-0.2,8-0.7,12-1.1c0.5-0.1,0.9-0.4,1.2-0.8c0.2-0.2,0.4-0.6,0.5-0.9
	c0.7-2.4,2.3-3.5,5-2.9c-1,2-2.1,4.1-3.2,6.1c-0.2,0.2-0.4,0.4-0.7,0.4c-5.6,0.5-11.2,1-16.8,1.5C107.4,85.3,107.3,85.2,107.2,85.2z
	"/>
<path class="st3" d="M114.1,74.5c1.4-6.1,2.8-12.1,4.2-18c0.4-1.6,1.8-0.7,3.1-1.3c-0.5,2.4-1,4.6-1.5,6.7
	c-0.8,3.5-1.6,6.9-2.4,10.4C116.9,74.6,116.9,74.6,114.1,74.5z"/>
<path class="st3" d="M105.1,69.2c-0.9,1.6-1.7,3.2-2.6,4.7c-0.2,0.3-0.9,0.5-1.3,0.5c-2.9,0.2-5.9,0.4-8.8,0.6
	c-0.5,0.1-0.9,0.4-1.2,0.8c-0.8,2.2-0.8,2.2-3.4,1.9c0.3-1.3,0.6-2.7,1-4c0.2-0.4,0.7-0.7,1.1-0.7c2.8-0.2,5.7-0.3,8.5-0.6
	c0.6-0.1,1.6-0.4,1.7-0.9C100.9,69.1,102.8,69,105.1,69.2z"/>
<path class="st3" d="M90.6,66.1c0.2-1.2,0.5-2.4,0.9-3.5c0.3-0.4,0.7-0.7,1.2-0.7c3.8-0.3,7.6-0.6,11.5-0.8c1.4-0.1,1.8-0.4,1.5-1.8
	c-0.1-0.6-0.1-1.3,0-1.9l2-0.1v5.7l-8.6,0.6c-1.1,0.1-2.1,0.2-3.2,0.2c-1.2,0-2.1,0.2-2.3,1.7c0,0.3-0.5,0.6-0.8,0.7
	C92.1,66.1,91.3,66.1,90.6,66.1z"/>
<path class="st3" d="M35.1,73.1c0.1-1.2,0.4-2.4,0.7-3.5c0.3-0.5,0.8-0.9,1.4-1c3.4-0.3,6.9-0.5,10.3-0.7c0.8,0,1.3-0.3,1.4-1.2
	c0.1-2.1,0.3-2.1,2.6-1.8c-0.1,1.4-0.2,2.8-0.5,4.2c-0.1,0.3-0.8,0.7-1.3,0.8c-3.5,0.3-7,0.5-10.5,0.8c-0.5,0.1-0.9,0.3-1.1,0.8
	C37.5,73.5,37.5,73.5,35.1,73.1z"/>
<path class="st3" d="M103.7,97.5h-2.8c0.1-1.2,0.1-2.4,0-3.5c-0.1-0.5-0.6-1-0.9-1.5c-0.4,0.5-1,1-1.1,1.6c-0.1,1.2-0.1,2.3-0.1,3.5
	h-2.5v-7c0.9,0.1,1.9-0.7,2.4,0.6c1-0.4,2-0.6,3-0.6c0.8,0.2,1.4,0.8,1.7,1.5C103.6,93.8,103.7,95.7,103.7,97.5z"/>
<path class="st3" d="M94.7,94.7h-5.3c0.3,1.3,0.9,1.7,2.1,1.3c1-0.2,2-0.4,3.1-0.4c-1.3,2-3.8,2.7-5.9,1.8c-1.7-0.8-2.4-2.8-1.8-4.5
	c0.5-1.9,2.5-2.8,5.1-2.4C93.8,90.8,94.7,92.2,94.7,94.7z M89.2,93l0.2,0.3h2.5l0.2-0.5c-0.5-0.3-1-0.9-1.5-0.8S89.7,92.6,89.2,93
	L89.2,93z"/>
<path class="st3" d="M119.2,94.7h-5.4c0.4,1.3,0.9,1.7,2.1,1.3c1-0.2,2-0.4,3.1-0.4c-1.3,1.9-3.8,2.7-6,1.7
	c-1.6-0.9-2.4-2.8-1.7-4.6c0.6-1.9,2.6-2.8,5.1-2.3C118.3,90.8,119.2,92.2,119.2,94.7z M113.7,92.8l0.2,0.5h2.4l0.2-0.4
	c-0.5-0.3-0.9-0.9-1.4-0.9S114.2,92.5,113.7,92.8L113.7,92.8z"/>
<path class="st3" d="M108.4,88.1l0.1,2.2l1.4,0.2v1.7l-1.4,0.4c0,0.8-0.1,1.6,0,2.4c0,0.3,0.4,0.8,0.6,0.8c1.2,0.1,0.9,0.9,0.9,1.7
	c-0.5,0-1,0.1-1.6,0.1c-1.9,0-2.4-0.5-2.6-2.4c-0.1-1.1,0.6-2.4-0.8-3.2c-0.2-0.4-0.2-0.8,0-1.2C106,89.8,106.5,88.1,108.4,88.1z"/>
<path class="st3" d="M125.8,90.3c-0.1,1.2,0,2.1-1.3,2.1c-0.4,0-1,1.1-1.1,1.7c-0.1,1.1-0.1,2.2,0,3.2h-2.6v-7.1l2.6,0.3l-0.1,0.2
	L125.8,90.3z"/>
</svg>
