<?xml version="1.0" encoding="utf-8"?>
<!-- Generator: Adobe Illustrator 21.1.0, SVG Export Plug-In . SVG Version: 6.00 Build 0)  -->
<svg version="1.1" id="Layer_1" xmlns="http://www.w3.org/2000/svg" xmlns:xlink="http://www.w3.org/1999/xlink" x="0px" y="0px"
	 viewBox="0 0 181 128" style="enable-background:new 0 0 181 128;" xml:space="preserve">
<style type="text/css">
	.st0{fill:#BFBFBF;}
	.st1{fill:#E13929;}
	.st2{fill:#FDFDFD;}
	.st3{fill:#50A3DA;}
	.st4{fill:#4D6BB0;}
	.st5{fill:#EDB467;}
</style>
<title>CR</title>
<path class="st0" d="M144.3,40.5c0-2.9-0.8-5.6-2.4-8c-1.2-1.9-2.8-3.6-4.7-4.8c-7.6-5.2-15-10.5-22.5-15.6
	c-4.7-3.2-9.1-6.9-14.3-9.5c-2.3-1-4.8-1.7-7.3-1.9c-9.4-1.2-16.5,3-23.6,8.3c-8.5,6.3-17.2,12.2-26,18c-1.5,1-2.9,2.2-4.1,3.6
	c-2.4,2.7-3.8,6.2-3.8,9.9c0,2.4,0.6,4.8,1.7,6.9c1.4,2.7,3.5,5,6.1,6.7C52.2,60,61,66,69.5,72.3c7.1,5.3,14.2,9.6,23.6,8.3
	c2.5-0.2,5-0.9,7.3-1.9c5.2-2.6,9.5-6.4,14.3-9.6c7.6-5.2,15-10.6,22.5-15.8c2.6-1.7,4.6-4.2,5.9-7C144,44.6,144.4,42.6,144.3,40.5z
	 M101,74.2c-6.9,4.7-16,4.5-22.8-0.3c-10.5-7.3-20.9-14.5-31.4-21.8H47c-1.7-1.1-3.3-2.4-4.8-3.8c-2-2.1-3.3-4.9-3.4-7.8
	c0.1-2.9,1.3-5.7,3.4-7.8c0.6-0.7,1.3-1.3,2.1-1.9l0.4-0.3l6.5-4.5l81.3,3c-7.4-5.1-14.9-10.3-22.2-15.5
	c7.5,5.1,14.9,10.3,22.2,15.5l0,0l0.3,0.2l2,1.4l0.7,0.5h0.1l0.4,0.4c2.7,2.1,4.4,5.4,4.6,8.8c0,0.1,0,0.2,0,0.2s0,0.1,0,0.2
	c-0.1,3.6-2.2,7.2-6.1,9.9l-31.2,1.3l29.8-0.1C122.5,59.3,111.7,66.8,101,74.2L101,74.2z"/>
<path class="st0" d="M103.3,51.9L47,52.1c0.9,0.6,1.9,1.3,2.8,1.9L103.3,51.9z"/>
<path class="st1" d="M0.5,118.6c0-8.1,0-16.1,0-24.2c0-1.4,0.3-2.1,1.8-2s3.3-0.1,5-0.1l0.3,0.2c-0.2,3.1-0.3,6.2-0.2,9.4
	c0,0.4-0.3,1.1,0.6,0.9c0.1,0,0.2-0.4,0.3-0.6c2.2-2.7,4.5-5.4,6.6-8.2c0.8-1.2,2.2-1.9,3.6-1.8c2,0.1,3.9,0,6.4,0
	c-2.9,3.6-5.4,6.8-8.1,9.9c-1.5,1.7-2.1,2.7,0.4,4c2.1,1.1,2.8,3.6,3.8,5.7c0.4,0.9,0.8,1.8,1.9,1.9c0.9,0.1,2.1-0.5,1.8,1.2
	c-0.2,1.3,0.8,3-1.6,3.6c-4.6,1.3-7.3,0.1-9.1-4.4c-0.6-1.6-1.1-3.4-2.7-4.5c-0.9-0.7-2.1-1-3.2-0.6c-1.3,0.4-0.7,1.6-0.7,2.5
	c-0.1,1.9,0,3.8,0,5.8c0,0.8-0.2,1.4-1.2,1.4C4.5,118.7,2.5,118.7,0.5,118.6z"/>
<path class="st1" d="M87.5,108.7c3.3,2,6.3,3.5,9.7,4c0.5,0.1,1.1,0.2,1.7,0.1c1.1-0.2,2.6-0.1,2.8-1.7c0.2-1.5-1.1-1.8-2.1-2.2
	c-2.2-0.8-4.4-1.4-6.6-2.3c-3.8-1.6-5.3-3.9-5.2-7.5c0.1-2.9,2.4-5.6,5.8-6.6c4.1-1.2,8.5-0.9,12.5,0.7c0.7,0.1,1.2,0.8,1.2,1.6
	c-0.1,1.7,0,3.3,0,5.2c-2.6-0.7-4.9-1.7-7.4-1.8c-0.7,0-1.4,0-2.1,0c-0.8,0.1-1.7,0.1-1.9,1.1s0.6,1.4,1.4,1.7
	c1.7,0.6,3.4,1.3,5.2,1.9c1.7,0.6,3.2,1.4,4.6,2.5c3.1,2.4,3.7,6.9,1.2,10.1c-0.5,0.7-1.2,1.3-2,1.7c-4.9,2.9-12.5,2.4-17.9-0.8
	c-0.6-0.3-0.9-1-0.8-1.6C87.5,112.8,87.5,110.9,87.5,108.7z"/>
<path class="st1" d="M112.1,105.5c0-3.7,0.1-7.4,0-11.1c-0.2-0.9,0.4-1.8,1.4-2c0,0,0.1,0,0.1,0c1.5-0.3,2.9-0.7,4.4-1.3
	c1.5-0.7,1.6,0.1,1.6,1.2c0,2.5,0.1,5,0,7.4c0,1.4,0.4,1.8,1.9,1.4c2.3-0.8,4.7-0.9,7.1-0.4c2.6,0.7,4,2.1,4.1,4.8
	c0.1,3.8,0,7.7,0,11.5c0,0.3,0,0.8-0.1,0.9c-2,1-4.2,0.4-6.3,0.4c-1.3,0-0.9-1.3-0.9-2.1c0-2.4-0.1-4.8,0-7.2
	c0.1-1.9-0.7-3.1-2.6-2.9c-1.6,0.1-3.7,0.1-3.5,2.9c0.2,2.5-0.1,5,0.1,7.4c0.1,1.7-0.5,2-2,2c-5.3,0-5.3,0.1-5.3-5.1
	C112.2,110.8,112.2,108.1,112.1,105.5L112.1,105.5z"/>
<path class="st1" d="M31.7,108.9c1-2,1.9-4.1,2.7-6.3c0.8-2.4,2.6-1.5,4.1-1.7s2.3,0.6,2.8,2c0.6,1.7,1.4,3.3,2.2,5.1
	c1.7-1.3,1.6-3.1,2.1-4.7c0.5-1.7,1.2-2.6,3.3-2.5c4,0.3,4,0.1,2.7,4s-2.5,7.8-3.7,11.6c-0.3,0.9-0.2,2.2-1.6,2
	c-1.7-0.3-3.8,1-4.9-1.3s-2.3-4.3-3.7-7c-0.8,2.7-2.8,4.2-3.4,6.6c-0.5,2-2.2,1.7-3.7,1.8c-1.3,0-2.4,0.1-2.9-1.6
	c-1.4-4.8-3-9.6-4.6-14.4c-0.4-1.3-0.3-1.6,1.2-1.6c5.9,0.1,4.3-0.9,6.2,4.4C30.8,106.4,31.2,107.4,31.7,108.9z"/>
<path class="st1" d="M85.7,118.6c-2.4,0-4.7-0.1-6.9,0c-1.2,0.1-1.7-0.7-2.3-1.4c-1-1.3-2-2.7-3-4c-0.3-0.6-1-0.9-1.6-0.8
	c-1,0.2-0.6,1-0.6,1.6c-0.2,4.6-0.2,4.5-5,4.8c-1.8,0.1-2.3-0.1-2.2-2.1c0.1-7.4,0-14.7,0-22.1c0-0.6-0.2-1.2,0.5-1.4
	c1.9-0.6,3.8-1.2,5.8-1.6c1.2-0.3,0.9,0.8,1,1.4c0,3.8,0,7.5,0,11.3c0,0.9-0.9,2.6,1.3,2.6s4.4-1.2,4-2.8c-0.9-3.6,1.4-2.9,3.4-2.9
	c4.3,0,5.6,2.2,3.4,6.1c-0.4,1-1.1,1.8-2,2.4c-1.8,1-1.1,1.8-0.2,2.8c1.5,1.8,2.8,3.7,4.2,5.5C85.5,118,85.6,118.3,85.7,118.6z"/>
<path class="st1" d="M145.5,119.1c-1.2-0.1-2.6-0.3-3.9-0.5c-4.7-0.9-7.2-4.1-7.2-9.1c0.1-4.6,2.8-7.8,7.4-8.7
	c2.3-0.5,4.6-0.5,6.9-0.1c5.1,1,7.9,4,7.9,9s-2.8,8.1-7.9,9C147.8,118.9,146.7,119,145.5,119.1z M149.3,109.8
	c0.1-2.5-1.3-3.9-3.7-3.9c-2-0.1-3.7,1.4-3.9,3.4c0,0.1,0,0.2,0,0.2c-0.2,2,1.3,3.8,3.4,4c0.1,0,0.2,0,0.4,0
	C147.9,113.7,149.2,112.4,149.3,109.8L149.3,109.8z"/>
<path class="st1" d="M61,109.7c0,2.5,0,5,0,7.4c0,1-0.3,1.4-1.4,1.4c-1.4-0.1-2.9-0.1-4.3,0c-1.1,0-1.6-0.3-1.6-1.5
	c0-4.2,0-8.3,0-12.5c0-1.1,0.4-1.5,1.4-1.8c5.8-1.9,5.8-1.9,5.8,4.3C61,108,61,108.8,61,109.7z"/>
<path class="st1" d="M57.4,98.9c-0.2,0-0.3,0-0.5,0c-1-0.1-2.4,0.5-2.9-0.4c-0.7-1.3-0.3-3-0.2-4.5c0.1-0.8,0.7-0.7,1.3-0.7
	c1.1,0.1,2.2,0.1,3.4,0c1.9-0.2,2.7,0.3,2.6,2.4C60.9,98.9,61,98.9,57.4,98.9z"/>
<path class="st2" d="M90,3.6C94.6,3.8,99,5.3,102.6,8c10.5,7.6,21.2,15,31.9,22.3c8,5.5,8.3,14.6,0.3,20.2
	c-11.2,8-22.5,15.9-33.8,23.7c-6.9,4.7-16,4.5-22.8-0.3c-11.2-7.8-22.3-15.5-33.5-23.3c-6.7-4.7-7.8-12.1-2.5-18
	c2.1-2.3,5-4,7.6-5.8C59.5,20.2,69,13.4,78.6,6.8C82,4.6,86,3.5,90,3.6z M73,64.5c0.3,0.3,0.6,0.9,1,0.5s-0.3-0.7-0.6-0.9
	c-0.4-0.4-0.7-0.8-1.1-1.2c-7.8-7.7-11.4-17-10.7-28c0.4-4,1.1-8,2.1-11.9c-6.2,4.4-11.9,8.2-17.4,12.5c-3.8,3-3.5,7.9,0.7,10.9
	C55.5,52.5,64.3,58.5,73,64.5z M64.3,22.7c8.5,3.6,16.7,6.9,25.6,8.1c8.5,1.3,17.1-1.5,23.2-7.5c1.2-1.1,1-1.6-0.3-2.4
	c-4.7-3.2-9.2-6.6-14-9.7c-5.6-3.6-11.4-4-17.2-0.4c-4.4,2.8-8.6,5.8-12.9,8.8C67.4,20.4,66,21.5,64.3,22.7z M136.1,40.4
	c-0.1-2.3-1.3-4.4-3.2-5.7c-4.7-3.4-9.6-6.7-14.3-10.1c-1.3-0.9-1.9-0.6-2.5,0.6c-5.8,10.3-5.6,20.6-0.2,30.9
	c0.6,1.2,1.2,1.4,2.4,0.6c4.8-3.4,9.6-6.7,14.3-10.1C134.7,45.3,136,43,136.1,40.4L136.1,40.4z M114.7,59.2
	c-1.7-1.4-3.6-2.6-5.7-3.3c-4.9-2-9.9-2.7-14.9-0.7c-6.7,2.7-9.3,8.4-10.7,14.9c-0.3,1.4,0.5,1.9,1.6,2.1c4.5,1.1,9,1.1,13-1.5
	C103.6,67.1,109,63.2,114.7,59.2z"/>
<path class="st1" d="M64.3,22.7c1.7-1.2,3.1-2.2,4.5-3.2c4.3-2.9,8.5-6,12.9-8.8c5.7-3.6,11.6-3.2,17.2,0.4c4.8,3.1,9.3,6.5,14,9.7
	c1.3,0.9,1.4,1.3,0.3,2.4c-6.1,6-14.7,8.8-23.2,7.5C81,29.6,72.8,26.2,64.3,22.7z"/>
<path class="st3" d="M136.1,40.4c-0.1,2.5-1.4,4.9-3.5,6.3c-4.8,3.4-9.6,6.7-14.3,10.1c-1.1,0.8-1.7,0.7-2.4-0.6
	c-5.4-10.3-5.6-20.6,0.2-30.9c0.7-1.2,1.2-1.6,2.5-0.6c4.7,3.4,9.6,6.7,14.3,10.1C134.8,36.1,136,38.2,136.1,40.4z"/>
<path class="st4" d="M73,64.5c-8.7-6-17.4-12-26-18.2c-4.1-3-4.5-7.8-0.7-10.9c5.4-4.3,11.2-8.1,17.4-12.5
	c-1.1,3.9-1.8,7.9-2.2,11.9c-0.8,11,2.9,20.3,10.7,28c0.4,0.4,0.8,0.8,1.1,1.2L73,64.5z"/>
<path class="st5" d="M114.7,59.2c-5.7,4-11.1,7.9-16.7,11.6c-4,2.6-8.4,2.6-13,1.5c-1.1-0.3-1.9-0.7-1.6-2.1
	c1.4-6.5,4-12.2,10.7-14.9c5-2,10-1.3,14.9,0.7C111,56.6,113,57.8,114.7,59.2z"/>
<path class="st4" d="M73.3,64.1c0.4,0.2,1,0.5,0.6,0.9s-0.7-0.2-1-0.5L73.3,64.1z"/>
<path class="st1" d="M180.3,107.6c-1-4.9-5.8-8-10.6-7c-0.1,0-0.2,0-0.3,0.1c-1.5,0.3-3.1,1.4-4.4-0.4c0,0-0.3-0.5-1.1-0.2
	s-4.8,1.7-4.8,1.7v0.5l0,0c0,6,0,12.1,0.1,18.1c0,2.2-1,5,0.5,6.4c1.5,1.4,4.1,0.3,6.2,0.5v-9.1c2.2,0.8,4.6,1,6.9,0.6
	C178.4,117.9,181.4,113.3,180.3,107.6z M169.1,113.5c-2.6-0.1-3-0.6-3-3.6c0-3.3,0.6-4,3.3-3.9c2.5,0,3.9,1.5,3.8,3.9
	S171.7,113.6,169.1,113.5L169.1,113.5z"/>
</svg>
