<svg id="Layer_1" data-name="Layer 1" xmlns="http://www.w3.org/2000/svg" viewBox="0 0 250 250"><defs><style>.cls-1{fill:red;}.cls-2{fill:#f9e8a0;}.cls-3{fill:#414042;}</style></defs><title>Large Store</title><circle class="cls-1" cx="92" cy="192" r="15.9"/><circle class="cls-1" cx="177.1" cy="192" r="15.9"/><path class="cls-2" d="M164,133.9c5.6,0,12.2-2.8,14-8.4l30-56.1a6.9,6.9,0,0,0,0-8.4c-.9-1.9-3.7-3.7-6.6-3.7H76.1L69.5,41.4h-28V58.2H58.3l30.9,64.6L77,143.3c-.9,2.8-.9,5.6-1.9,7.5a16.71,16.71,0,0,0,16.8,16.8h102V150.8H95.7a2,2,0,0,1-1.9-1.9V148l7.5-14H164Z"/><path class="cls-3" d="M177.1,173.2a19.8,19.8,0,0,0-19.7,19.7,19.7,19.7,0,0,0,39.4,0h0A19.87,19.87,0,0,0,177.1,173.2Zm14.1,19.7a15,15,0,1,1-15-15,14.85,14.85,0,0,1,15,15Z"/><path class="cls-3" d="M209.9,60a9.92,9.92,0,0,0-8.4-4.7H77.9L71.3,39.4c-.9-.9-1.9-1.9-2.8-1.9h-28c-.9,0-1.9.9-1.9,2.8V57.1a3,3,0,0,0,2.8,2.8h15l29,61.8L74.2,141.4a34.91,34.91,0,0,0-1.9,9.4A19.8,19.8,0,0,0,92,170.5H194a2,2,0,0,0,1.9-1.9V151.8a3,3,0,0,0-2.8-2.8H95.7l6.6-12.2H164c6.6,0,13.1-3.7,15.9-9.4l29.9-56.1C211.8,66.6,211.8,62.8,209.9,60Zm-3.7,7.5-29.9,56.1c-1.9,4.7-7.5,7.5-12.2,7.5H101.4a3.59,3.59,0,0,0-1.9.9L92,146v1.8a4,4,0,0,0,3.7,3.7h96.4v12.2H92a14.85,14.85,0,0,1-15-15c0-2.8.9-4.7.9-7.5l12.2-20.6v-1.9L60.2,56.3c0-.9-.9-.9-1.9-.9h-15V43.2H67.6l6.6,15.9A2,2,0,0,0,76.1,61H201.5c1.9,0,3.7.9,3.7,2.8C207.1,63.8,207.1,65.6,206.2,67.5Z"/><path class="cls-3" d="M92,173.2a19.8,19.8,0,0,0-19.7,19.7A19.25,19.25,0,0,0,92,212.6a19.8,19.8,0,0,0,19.7-19.7h0C111.6,181.7,103.2,173.2,92,173.2Zm15,19.7a15,15,0,1,1-30,0c0-8.4,7.5-15,15-15a14.85,14.85,0,0,1,15,15Z"/><path class="cls-3" d="M161.2,77.8h-72a2.8,2.8,0,1,1,0-5.6h73A3,3,0,0,1,165,75c-1,1.9-1.9,2.8-3.8,2.8ZM148.1,94.6h-59c-1.9,0-2.8-.9-2.8-1.9a2.91,2.91,0,0,1,2.8-2.8H149a3,3,0,0,1,2.8,2.8,4.51,4.51,0,0,1-3.7,1.9Zm-14,16.9H89.2a2.8,2.8,0,0,1,0-5.6H135a3,3,0,0,1,2.8,2.8c-.9,1.8-1.8,2.8-3.7,2.8Z"/><path class="cls-3" d="M177.1,173.2a19.8,19.8,0,0,0-19.7,19.7,19.7,19.7,0,0,0,39.4,0h0A19.87,19.87,0,0,0,177.1,173.2Zm14.1,19.7a15,15,0,1,1-15-15,14.85,14.85,0,0,1,15,15Z"/><path class="cls-3" d="M209.9,60a9.92,9.92,0,0,0-8.4-4.7H77.9L71.3,39.4c-.9-.9-1.9-1.9-2.8-1.9h-28c-.9,0-1.9.9-1.9,2.8V57.1a3,3,0,0,0,2.8,2.8h15l29,61.8L74.2,141.4a34.91,34.91,0,0,0-1.9,9.4A19.8,19.8,0,0,0,92,170.5H194a2,2,0,0,0,1.9-1.9V151.8a3,3,0,0,0-2.8-2.8H95.7l6.6-12.2H164c6.6,0,13.1-3.7,15.9-9.4l29.9-56.1C211.8,66.6,211.8,62.8,209.9,60Zm-3.7,7.5-29.9,56.1c-1.9,4.7-7.5,7.5-12.2,7.5H101.4a3.59,3.59,0,0,0-1.9.9L92,146v1.8a4,4,0,0,0,3.7,3.7h96.4v12.2H92a14.85,14.85,0,0,1-15-15c0-2.8.9-4.7.9-7.5l12.2-20.6v-1.9L60.2,56.3c0-.9-.9-.9-1.9-.9h-15V43.2H67.6l6.6,15.9A2,2,0,0,0,76.1,61H201.5c1.9,0,3.7.9,3.7,2.8C207.1,63.8,207.1,65.6,206.2,67.5Z"/><path class="cls-3" d="M92,173.2a19.8,19.8,0,0,0-19.7,19.7A19.25,19.25,0,0,0,92,212.6a19.8,19.8,0,0,0,19.7-19.7h0C111.6,181.7,103.2,173.2,92,173.2Zm15,19.7a15,15,0,1,1-30,0c0-8.4,7.5-15,15-15a14.85,14.85,0,0,1,15,15Z"/><path class="cls-3" d="M161.2,77.8h-72a2.8,2.8,0,1,1,0-5.6h73A3,3,0,0,1,165,75c-1,1.9-1.9,2.8-3.8,2.8ZM148.1,94.6h-59c-1.9,0-2.8-.9-2.8-1.9a2.91,2.91,0,0,1,2.8-2.8H149a3,3,0,0,1,2.8,2.8,4.51,4.51,0,0,1-3.7,1.9Zm-14,16.9H89.2a2.8,2.8,0,0,1,0-5.6H135a3,3,0,0,1,2.8,2.8c-.9,1.8-1.8,2.8-3.7,2.8Z"/></svg>