<?xml version="1.0" encoding="utf-8"?>
<!-- Generator: Adobe Illustrator 21.1.0, SVG Export Plug-In . SVG Version: 6.00 Build 0)  -->
<svg version="1.1" id="Layer_1" xmlns="http://www.w3.org/2000/svg" xmlns:xlink="http://www.w3.org/1999/xlink" x="0px" y="0px"
	 viewBox="0 0 221.1 97.4" style="enable-background:new 0 0 221.1 97.4;" xml:space="preserve">
<style type="text/css">
	.st0{fill:#FCB827;}
	.st1{fill:#4E2400;}
</style>
<title>Fast Casual</title>
<path class="st0" d="M89.3,14.1c0,2.2-1.2,3.6-2.1,5.3c-0.6-0.2-0.9-1.1-1-1.7c0-1.3-0.9-2.9,0.1-4.5c1-0.6,2.3-0.3,2.9,0.7
	C89.2,14,89.3,14.1,89.3,14.1L89.3,14.1z"/>
<path class="st0" d="M7.6,0.5c2.5,0.1,4.9,0.3,7.3,0.7c1.9,0.2,3.8,0.2,5.7,0.4l4.5,0.5l8.6,0.1c4.3,0,8.6,0.3,12.8,0.7
	c5.2,0.7,10.5,1.2,15.8,1.3l1.4-0.1l1-0.2l1-0.1l0.8-0.1l1-0.1l1-0.1l4.6-0.2h1.7h2l4.6,0.2h3.4c0.6-0.1,1.2-0.1,1.7,0
	c1.3-0.4,3.4,0.1,4.7,0.1l2.2,0.1c2.1,0.2,5.2,0.2,5.9,2.4c0.3,1.4,0.3,2.8-0.1,4.2c-0.7,3.6-2,6.7-3,10.1L95,28.8l0.3,4.5l-0.2,4
	c0,1.3,0,2.6,0,3.9l-0.4,3.4c-0.1,2,0.1,4-0.1,5.9c-0.3,1.6-0.6,3.2-0.7,4.9c0,1.5-0.2,2.9-0.2,4.3c0.1,3.4,0.3,7,0.3,10.3h-0.1v0.1
	c-0.4,0.1-0.5,0.5-0.8,0.8c-0.5,0.5-1.2,0.7-1.8,0.8c-0.1,0-0.3-0.1-0.3,0.1c-0.2-0.5,0.3-1.3,0.4-1.8c0-0.8,0-1.6,0-2.3
	c-0.2-3.5-0.2-6.9-0.1-10.4l0.5-4.6c0.2-2.8,0.3-5.5,0.4-8.3c0.1-2.6,0.1-5.2,0.2-7.8l-0.2-6.2c0.2-2.4,0.5-4.7,1-7
	c0.6-3,1.5-5.6,2.3-8.5c0.6-2.2,1.6-4.8,0.9-7.3c-0.1-0.4-0.3-0.7-0.6-1c-2.1-2.2-11.5-1.4-14.9-1.3L70.8,5c-4.2,0.1-8,0.7-12.3,0.7
	c-0.8,0.1-1.7,0.1-2.5-0.1l-2.5,0.1L41.2,4.6c-5.5-0.4-10.8-0.3-16.4-0.5l-8.5-0.8L9.8,2.7c-0.8-0.2-3.6,0.1-3.6-1
	c0-0.5,0.8-0.7,0.8-1L7,0.8h0.3L7.6,0.5L7.6,0.5z"/>
<path class="st0" d="M9.5,8.1c0.7,0.3,0.3,2,0.3,2.7l-0.2,2.3C9.7,15,9.7,17,9.8,18.9c0.1,2.1,0.5,4.2,0.4,6.5
	c0,2.2-0.4,4.3-0.6,6.4c-0.3,2.8-1.5,5.1-2.2,7.6c-0.6,2.2-0.8,4.4-0.9,6.6c0,2.9,1.1,5.2,2,7.7c0.6,1.8,1,3.6,1.2,5.5
	c0.1,0.9,0.1,6.4,0.4,6.6c0.4,0.5,1.2,0.5,1.7,0.7c2.2,0.6,4.5,0.9,6.7,0.9v0.1h-0.1v0.1c-0.7,0.5-1.2,1.2-2,1.4
	c-1.4,0.4-7.2-0.4-8-1.4l-0.2-0.5c-0.4-2.9,0-6-0.6-8.7c-0.5-2.6-1.8-4.7-2.6-7.1c-0.4-1.5-0.5-3-0.5-4.5c0-0.1,0-0.2,0-0.3
	c0.2-4.1,1.6-7.6,2.6-11.3c0.7-3.3,1-6.7,0.8-10.1c0-2.5-0.4-4.8-0.6-7.2c0-1.7,0.1-3.4,0.1-5.1c-0.1-1-0.1-2.1,0.1-3.1
	C8,9.2,8.6,8.8,9.3,8.8L9.5,8.1L9.5,8.1z"/>
<path class="st0" d="M72.7,9.4c0.1,0,0.3-0.1,0.3,0.1c-1.3,0.9-0.7,3.4-0.8,5c-0.2,4.9,0.7,26.2-2.3,28.3c-0.7,0.5-1.6,0.8-2.5,0.9
	c-0.1,0-0.3,0-0.3-0.1c0.6-0.4,1.1-0.9,1.3-1.6c0.6-1.7,0.5-3.8,0.6-5.7c0.5-6.3,0-13,0.2-19.4c0-1.7-0.6-4.9,0.3-6.1
	C70.1,9.6,71.6,9.7,72.7,9.4L72.7,9.4z"/>
<path class="st0" d="M37.2,9.8h2.3c-0.4,4.8-0.8,9.5-1.2,14.3c-0.1,2.5,0.2,5.1,0,7.8l-0.5,1.9c-0.1,0.9-0.1,1.9-0.2,2.9l-0.2,0.4
	l-0.3,0.1c-0.3,0-0.5-0.2-0.6-0.5c-0.6-1.7-0.3-4-0.4-5.9c-0.1-4,0.2-8.1,0.3-12C36.6,15.8,36.4,12.5,37.2,9.8L37.2,9.8z"/>
<path class="st0" d="M52,26.5c1.4,0.1,2.7,0.4,4,0.9c3.7,1.8,5.3,6.8,5.3,11h-0.1c-0.8-6.1-6.7-10.8-12.7-7.2
	c-1,0.7-1.9,1.5-2.6,2.5c-0.8,0.8-2,3.1-2,4.2l-0.3-0.1c-0.4-1.3,0.1-2,0.1-3.1c0-3.3,3.9-6.9,6.7-8L52,26.5L52,26.5z"/>
<path class="st0" d="M37.4,58.9l2.3,0.1c2.2,0,4.4,0.7,6.2,2c0.5,0.3,0.9,0.7,1.1,1.2c0.3,0.9-0.3,1.5-0.3,2.3c-1-0.6-2-1.2-3-1.7
	c-2.6-0.8-5.5-0.9-8.2-0.3c-0.9,0.3-1.9,0.7-2.8,1.1l-1.1,0.7l-0.1,0.1c0-0.1-0.1-0.2,0.1-0.2l0.7-0.7v-0.1h-0.1v-0.1
	C27.2,64.8,15,77.6,15,82.9c-1,1.1-1.8,2.5-2.1,4h-0.1v-0.1h-0.1c0-1.9,0.4-3.7,1-5.4C16.4,73.2,22.3,65,30.4,61
	c1.7-1,3.7-1.6,5.7-1.8l1.1-0.1v-0.1L37.4,58.9L37.4,58.9z"/>
<path class="st0" d="M50.4,63.4c0.9,1.3,0.4,3.7,0,5.1c-0.1,0.4-0.6,1.1-0.4,1.5l0.1,0.1l0,0c0.6,0.5,2.3,0.2,3.2,0.2l5.3,0.2l1-0.1
	l1.5-0.1l0.6-0.1l1-0.2l0.8-0.1l0.5-0.1l1.3-0.2l0.8-0.1l0.6-0.1l1-0.1l1-0.1l0.7-0.1l0.7-0.1c0.5-0.2,1.1-0.2,1.7-0.2l1-0.1
	l0.8-0.1l1.2-0.2c0.8-0.3,1.7-0.5,2.5-0.4l0.8-0.1l0.6-0.1l0.6-0.1l1.3-0.1l1-0.1l0.9-0.1l1-0.2l1.7-0.1l1-0.1l0.5-0.1l0.9-0.1v0.2
	c-0.2,0.3-0.3,0.5-0.7,0.6L83,68.4l-1.8,0.3c-1.9,0.2-3.7,0.5-5.6,0.7L71.5,70c-5.1,0.6-10.2,1.3-15.4,1.7c-2.5,0.2-4.9,0.2-7.4,0.1
	l-1.8-0.3C47.8,68.7,49.9,66.6,50.4,63.4L50.4,63.4z"/>
<path class="st0" d="M31.3,69.3L31.3,69.3c0.1,0.1,0.3,0.2,0.1,0.2l-2.9,2.8l-3.6,3.3l-2.7,2.8l-5.6,4.7l-2,2
	c-0.1,0.1-0.5,0.3-0.5,0.4h-0.2c0.2-1.1,0.6-2.1,1.1-3.1c0-0.1,0.1-0.2,0-0.2l4.5-3.4l6.8-5.4l3.1-2.6
	C30.1,70.5,30.7,69.9,31.3,69.3L31.3,69.3z"/>
<path class="st0" d="M44.8,76.2c0.1,0,1.1-0.5,1.1-0.4c0,0-0.6,0.4-0.6,0.4c-0.4,1.3-2.1,2.6-3,3.6L40.4,82l-3.8,3.2l-1.3,1.4
	l-5.1,3.7l-5.5,3.3c-2.5,1.5-5.3,3.5-8.6,3.3c-4.1-0.3-7.3-3.7-7.2-7.9c0-0.2,0.2-2.1,0.3-0.7c0,0.3,0.6,0.9,0.7,1.1
	c1,2.2,3.1,3.8,5.5,4.2c1,0.1,2,0,3-0.1c0.3-0.1,1.6-0.3,1.6-0.6c1.1-0.1,3.5-1.9,4.5-2.5c3.1-1.8,6.1-3.7,9-5.8
	c2.3-1.8,4.3-3.8,6.5-5.8c0.9-0.8,1.7-2,2.7-2.5L44.8,76.2L44.8,76.2z"/>
<path class="st0" d="M28.6,11.9c0.8,1.3,1.3,2.8,1.5,4.4c-0.8-0.2-1.7-0.6-2.6-0.8c-0.9-0.7-2.2-0.8-2.8-2.1
	c-0.2-1.1,0.4-2.1,1.4-2.5C27.2,10.6,27.9,11.3,28.6,11.9L28.6,11.9z"/>
<path class="st0" d="M19.6,17.8c0.1,1.3,0.6,2.5,0.3,4c-2.3-0.1-4.4-1.5-5.5-3.5c-0.3-1.3,0.3-2.6,1.4-3.2c0.6-0.2,1.5-0.5,2.1,0
	l0.4,0.3L19.6,17.8L19.6,17.8z"/>
<path class="st0" d="M79.1,17.7c0,0.1,0.1,0.8-0.3,1.1c-0.1,1.6-0.3,3.5-1.8,4.3c-0.9,0.1-1.8-0.3-2.5-1c-0.5-1.5,1.1-2.6,2-3.4
	C77.4,18.2,78.3,17.5,79.1,17.7L79.1,17.7z"/>
<path class="st0" d="M85.4,26.3l0.3-0.1c0.8,1.2,1.2,2.7,0.9,4.1c-0.5,0.6-1.1,1-1.7,1.3v-0.1c-1.8,0.8-3.9,1.1-5.8,0.8
	c0.4-2.8,2.6-4.9,4.9-6.5C84.3,25.7,85.4,25.6,85.4,26.3L85.4,26.3z"/>
<path class="st0" d="M31.5,26.4c0.1,0.7,0.1,1.4-0.2,2.1c-0.5,0.8-1.8,0.6-2.7,0.5c-1.6-0.7-3.1-1.7-4.4-2.9
	c1.6-0.6,3.3-0.3,4.9-0.9C30,25.2,31,25.7,31.5,26.4z"/>
<path class="st0" d="M18.3,35.4c0.6,0.6,0.6,1.6,0.2,2.3c-0.6,1.8-2.3,2.8-3.1,4.4l-0.9,0.8c-0.3-2.6-1-5.2-0.2-7.8
	C15.2,33.5,17.2,34.8,18.3,35.4L18.3,35.4z"/>
<path class="st0" d="M79.8,45.2l2.3,3.8c-0.8,0.2-1.6,0-2.2-0.5c-2.1,0-4.6-1-5.4-3c0-0.9,0.4-1.7,1.1-2.3
	C77.4,41.5,78.8,43.8,79.8,45.2L79.8,45.2z"/>
<path class="st0" d="M27.6,47.1c0,1.9,0.5,3.7-0.2,5.5c-2-0.9-3.6-2.5-4.5-4.5c-0.1-0.8,0.3-1.5,1-1.9C25,45.3,27.5,45.5,27.6,47.1
	L27.6,47.1z"/>
<path class="st0" d="M56.2,50.4c1.6,0.8,3.2,1.8,4.5,3.1L60,53.9c-2.7,0.4-5.7,0.8-8.1,0.2c-0.5-0.2-0.5-1.3-0.3-2
	c0.2-1.3,1.1-2.3,2.3-2.8C55,49.2,55.3,50.3,56.2,50.4L56.2,50.4z"/>
<path class="st0" d="M16.8,53.6c0.5,0.6,0.6,1.3,0.4,2c-0.8,0.7-1.4,1.4-2,2.3c-1.4,0.9-1.7,2.3-2.9,3.4c0-2.5,0.4-5,1.2-7.4
	c0.3-0.6,0.9-0.7,1.4-1C15.6,52.9,16.2,53.2,16.8,53.6L16.8,53.6z"/>
<path class="st0" d="M84.7,57.6c-0.3,0.9-1.8,1-2.7,1.1c-1.6,0.1-3.2-0.3-4.5-1.2c-0.2-1.1,0.6-1.9,1.3-2.5
	C81,55.3,83,56.2,84.7,57.6L84.7,57.6z"/>
<path class="st0" d="M64.5,63.9c0.6,0.5,0.8,1.5,0.3,2.2c-2,1.4-4.1,2.5-6.4,3.4c0.4-2.2,1.2-4.2,2.3-6.1
	C61.8,62.1,63.7,63,64.5,63.9z"/>
<path class="st1" d="M31.3,4.2c0.4-0.2,0.9,0,1.4,0C39.4,4.4,45,4.8,52,5.6c4.7,0.4,9.5,0.4,14.1-0.3l5.4-0.3l0.2,0.2
	c4.6,0.3,10.5,0.1,15.4,0.2c2.6-0.2,5.2,0,7.7,0.6c1,0.3,1.6,1.2,1.8,2.2c0.1,4.7-1.8,8.9-2.9,13.4l-1.5,8.7
	c0.8,7.8-0.2,15.9-0.3,23.9c-1,2.9-0.3,7.1-0.6,10.1c-0.2,2.6,0.9,4.9-0.3,7.3c-3.3,1.9-7,2.7-10.8,2.3c-0.5-0.2-1,0.3-1.4-0.1
	c-0.7,0.4-2.1,0.1-3.1,0.3c-3.9,0.3-7.1,0.7-11,1.3c0-0.1,0.1-0.1,0.1-0.2c-0.4,0.1-1.1,0.2-1.7,0.3c-6.8,2-13.4-0.3-20.4,1.2
	C37,82.7,29.7,87.8,22.8,91.7c-2.8,2.1-6.4,3.2-9.7,1.6c-2.8-1.6-4.4-4.7-4-7.9c0.2-3.7,1.9-7.2,3.4-10.5l-0.5-0.5
	c-3-0.5-5.6-0.1-8.5-1.2c-0.4-1.1-0.6-2.3-0.4-3.4c-0.1-3,1.3-5.6,0.4-8.6c-1.4-5.9-4.3-12-2.5-18.3L3.6,27l0.1-16.5
	c0-2.3-0.2-5,0.5-7.4c1-1.1,2.1-0.7,3.5-0.7c7.5,0.8,14.2,1.3,21.7,1.7L31.3,4.2L31.3,4.2z M16,75.4c-1.7,3.8-3.8,8-3.2,12.5
	c0.4,1,1.1,1.9,2.1,2.4c3.9,0.5,7.1-1,10.1-3.1c9-5.5,18.9-13.3,22.2-23.7v-1.2c-1-1.8-3.1-2-4.5-3C31.9,56.7,21.2,66.1,16,75.4z
	 M16.3,8.1c-3.1-0.3-6.8-1.3-8.5,1.5C7.9,13.6,7,18.5,8,22.6c0.2,3.9,0.1,7.8-0.5,11.7C6.2,39.3,4.4,44.2,4.7,49l0.2,0.2
	C4.9,51.2,6,53,6.6,54.7c1.8,4.1,1.5,8.6,1.9,13c2.6,0.9,5.3,1.4,8,1.4c2.9-1.5,4.7-4.9,7.2-7.1c3.9-4.4,9.6-6.7,15.4-6.3
	c4.1,0.9,8.7,1.1,11.2,4.8c0.7,4.2-1.6,7.5-3.4,10.8l0.2,0.2c10.1,0.9,21.2-1.4,31.1-2.4c3.1-0.7,6.6-0.5,9.4-1.4
	c0.7-3.5,0.8-8.2,1-12.5c0.7-4.4,0.9-8.8,0.8-13.2l0.1,0.1l-0.1-0.3c-0.1-0.3-0.1-0.9,0-0.9c-0.7-7.6-0.3-15.4,1.5-22.8
	c0.9-2.5,1.5-5,2-7.6c-0.3-0.6-0.8-1-1.4-1.3c-6.1-0.5-12.3-0.5-18.4,0c-1.4,0.4-3.6,0-3.8,1.9l0.2,20.3c-0.2,3.1-0.2,7.4-1,10.7
	c-0.7,1.3-2.3,1.8-3.8,1.9c-8.3-0.3-16.8-0.3-24.7-0.9c-2-0.7-6.3,1.3-6.9-2c-0.9-9.1,1-17.7,0.1-26.8c-0.2-1.8-0.2-4.1-1.1-5.8
	c-3.2-0.5-6.5-0.8-9.8-0.9C20.2,7.9,18.3,7.6,16.3,8.1L16.3,8.1z M52.3,26.5c-3,0-6,2.6-7.7,5.6c-0.8,1.9-1.7,3.7-1,6.1
	c5.6,0.5,11.6,0.5,17.2,0.6l0.7-0.3c-0.1-3-1-6-2.5-8.6C57.3,27.8,54.8,26.6,52.3,26.5L52.3,26.5z M37.3,9.6
	c-1,8.5-1.3,17.1-0.8,25.7c0,0.9,0.1,2.4,1.4,1.9c-0.4-4.3,1.6-8.4,4.4-11.4c3.5-4.1,9.3-4.5,14-3.1c6.9,2.3,7.2,9.9,8.6,16
	c0.2,0.2,0.6,0,0.6-0.2l-0.8-19.6c-0.3-1.6,0-3-0.3-4.7c-0.4-1.2,0.5-2.8-0.4-3.8C55,9.4,45.8,10.1,37.3,9.6z"/>
<path class="st1" d="M86.9,12.3c0.3,2.2-0.7,3.7-1.5,5.5c-0.6-0.2-1-1-1.2-1.6c-0.2-1.3-1.2-2.8-0.4-4.5c0.9-0.7,2.2-0.6,3,0.3
	C86.8,12.1,86.9,12.2,86.9,12.3L86.9,12.3z"/>
<path class="st1" d="M55,50.2c1.6,0.8,3.2,1.8,4.5,3l-0.8,0.4c-2.7,0.4-5.7,0.8-8.1,0.3c-0.5-0.3-0.5-1.3-0.3-2
	c0.2-1.3,1.1-2.3,2.3-2.8C53.7,49,54,50,55,50.2L55,50.2z"/>
<path class="st1" d="M32.2,63.3c-2.8,2.7-5.7,4.9-7.1,8.5c0.2,0.4,0.6,0,0.9,0l7.8-4.5l0.2,0.2c-6.6,5.3-12.1,10-18.9,15
	c0.6-1.8,1.4-3.5,2.4-5C21.2,71.6,26.3,66.8,32.2,63.3L32.2,63.3z"/>
<path class="st1" d="M78,44.1l2.4,3.7c-0.7,0.2-1.6,0.1-2.2-0.3c-2.1,0.1-4.6-0.8-5.6-2.7c0-0.9,0.3-1.7,1-2.3
	C75.5,40.6,76.9,42.8,78,44.1L78,44.1z"/>
<path class="st1" d="M83.9,24.7l0.3-0.1c0.8,1.2,1.1,2.7,0.9,4.1c-0.5,0.6-1.1,1-1.7,1.3V30c-1.8,0.8-3.9,1.1-5.8,0.8
	c0.4-2.8,2.6-4.9,4.9-6.5C82.8,24.1,83.9,23.9,83.9,24.7L83.9,24.7z"/>
<path class="st1" d="M77.7,16.2c0,0.1,0,0.8-0.3,1c-0.3,1.6-0.7,3.4-2.2,4.1c-0.9,0-1.8-0.5-2.4-1.2c-0.3-1.5,1.3-2.5,2.3-3.2
	C75.9,16.5,77,15.9,77.7,16.2L77.7,16.2z"/>
<path class="st1" d="M83.5,56.7c-0.3,0.9-1.8,1-2.7,1.1c-1.6,0.1-3.2-0.3-4.4-1.2c-0.2-1.1,0.6-1.9,1.3-2.5
	C79.8,54.4,81.9,55.3,83.5,56.7z"/>
<path class="st1" d="M63,62c0.7,0.5,1,1.3,0.6,2.1c-1.8,1.7-3.7,3.1-5.8,4.3c0-2.2,0.5-4.4,1.5-6.4C60.1,60.7,62,61.2,63,62z"/>
<path class="st1" d="M16.5,53c0.5,0.6,0.6,1.3,0.4,2c-0.8,0.7-1.4,1.4-2,2.3c-1.4,0.9-1.7,2.3-2.9,3.4c0-2.5,0.4-5,1.2-7.4
	c0.3-0.6,0.9-0.7,1.4-1C15.4,52.3,16,52.5,16.5,53L16.5,53z"/>
<path class="st1" d="M26.7,47.3c0.3,1.9,0.9,3.6,0.4,5.5c-2.1-0.6-3.9-2-5-3.9c-0.1-0.8,0.2-1.5,0.8-2
	C23.9,45.9,26.4,45.7,26.7,47.3L26.7,47.3z"/>
<path class="st1" d="M17.7,35.5c0.6,0.6,0.6,1.6,0.2,2.3c-0.6,1.8-2.3,2.8-3.1,4.4L13.9,43c-0.3-2.6-1-5.2-0.2-7.8
	C14.6,33.6,16.6,34.9,17.7,35.5L17.7,35.5z"/>
<path class="st1" d="M18.9,17.6c0.2,1.3,0.9,2.4,0.8,3.9c-2.3,0.1-4.5-1-5.8-2.9c-0.4-1.2,0-2.6,1-3.4c0.6-0.2,1.5-0.7,2.1-0.3
	l0.4,0.3L18.9,17.6L18.9,17.6z"/>
<path class="st1" d="M31.1,26.8c0.1,0.7,0.1,1.4-0.2,2.1c-0.5,0.8-1.8,0.6-2.7,0.5c-1.6-0.7-3.1-1.7-4.4-2.9
	c1.6-0.6,3.3-0.3,4.9-0.9C29.6,25.6,30.6,26,31.1,26.8z"/>
<path class="st1" d="M28.5,12.3c0.8,1.4,1.3,2.9,1.5,4.4c-0.8-0.2-1.7-0.6-2.6-0.8c-0.9-0.7-2.2-0.8-2.8-2.1
	c-0.2-1.1,0.4-2.1,1.4-2.5C27.1,11,27.8,11.7,28.5,12.3L28.5,12.3z"/>
<path class="st0" d="M190.8,42c0.3,0,1.7,0,1.7,0.5h-0.1v0.1l-3.8,1c-4.9,1.3-9.5,3.3-13.7,6.1c-1.1,0.7-2.2,1.6-3.3,2.4
	c-0.4,0.4-0.9,0.8-1.5,1.1c-1.1,0.4-2.4,0.3-3.4-0.4c-0.8-0.7-0.3-1.5,0.3-2c3.5-2.9,7.5-5.1,11.9-6.5c0.8-0.3,1.6-0.6,2.5-0.7
	c0.9-0.4,1.8-0.6,2.8-0.6c0.6-0.2,1.3-0.4,1.9-0.3l0.5-0.1c0.4-0.2,0.9-0.3,1.4-0.3l0.9-0.1l1-0.1L190.8,42L190.8,42z"/>
<path class="st1" d="M169.6,12.4c1.2,3.7-1.1,7.2-3.6,9.9c-3.9,3.3-8.5,5.6-13.4,6.9c-2,0.6-3.9,0.9-5.7,1.4c-1.2,0.9-1,2.6-1.2,3.9
	c-0.4,4.4-0.6,9.5,3.3,12.1c0.2,0.6-0.1,1.3-0.6,1.6c-0.9,0.3-1.9,0-2.5-0.6c-3.4-3.8-3.1-9.8-2.8-14.5l0.2-0.2
	c-0.1-0.5-0.5-0.9-1-1.1c-1.2,0.3-2.5,0-3.6-0.7c-0.4-1.8-0.2-3.6,0.6-5.2c1.5-0.8,3,0.3,4.6,0.1l0.5-0.7c0.6-2.7-0.1-5.5,2.3-7.3
	c0.6-0.2,1.2,0.1,1.5,0.5c0.4,3.3-1,6.5-1.2,9.4c0.9,0.8,2.2,0,3.3,0c6.1-1.7,12.6-4.5,16.4-9.8c0.6-1.3,1.6-3.1,0.4-4.4
	c-1.9-1.7-4.1-0.8-6.3-1.1c-0.6,0.4-1.5,0-1.9,0.3c-9.5,0.7-19.2,5.1-27.5,9.9c-3.6,1.8-5.7,5.2-7.7,8.6c-0.5,0.4-1,1-1.7,0.6
	c-1.1-1.6,0.5-3,0.9-4.4c1-1.6,2.2-3.5,4.2-3.9l6-5.2c0.2-0.1,0.5,0,0.6,0.3c0,0.2-0.1,0.5,0.2,0.6c10.2-5.1,21.2-10.7,33-9
	C168,10.8,169,11.5,169.6,12.4L169.6,12.4z"/>
<path class="st1" d="M175.4,23.5c0.3,0.8,0.3,1.7-0.1,2.5c-0.7,0.5-1.6,0.6-2.4,0.3c-0.8-1-0.3-2.2-0.1-3.3
	C173.5,22.2,175.2,22.4,175.4,23.5L175.4,23.5z"/>
<path class="st1" d="M198.4,29.2c1.1,1.2,1.8,2.7,2,4.4c-0.1,0.7-0.4,1.5-1.1,1.7c-2.3,0.5-2.3-3.2-4.6-3c-2.8,1.8-5.4,6.1-9.2,4.4
	c-1.4-2.4-2.5,0.8-4,1c-0.9,0.6-2,0.8-3.1,0.6c-0.9-0.2-0.9-2-2-1.2c-2.4,2.5-5.8,5.3-9.4,4c-2.1-2.4-3.7,1.4-5.7,1.8
	c-3,1.3-7.3,3.7-10.3,1c-0.8-0.8-1.1-1.9-0.9-3c1-4.1,5.3-6.7,8.4-9c2.7-1.5,6.4-2.3,9.3-1c2.4,2,0.5,4.3,0.2,6.7
	c0.5,0.8,1.5,0.3,2.2,0.2c2.9-1.1,4.5-4.1,6.1-6.5c0.4-0.2,0.9-0.5,1.3-0.2c1.1,0.9,0.4,3.9,2.7,3.2c2.1-1.3,3.2-4.1,5.3-5.2
	c1.7,0.8,0.6,3.1,1.6,4.4c1.3,0.2,2.1-1.1,3.2-1.5C192.6,29.8,195.6,27.2,198.4,29.2L198.4,29.2z M164,33.7c-3.8,0.8-7.2,3-9.5,6.1
	c-0.3,0.5-0.3,1.4,0.4,1.7c2.8,0.2,5.1-1.4,7.3-3c1.3-1.3,3.4-2.4,3.1-4.4C165,33.6,164.5,33.7,164,33.7L164,33.7z"/>
<path class="st1" d="M109.5,31.7c1,0,1.8-0.1,2.6-0.2c-0.1,0.3-0.1,0.6,0,0.9h-4.3v-7.1c0.3,0,0.6,0.1,0.8,0.1s0.6,0,0.8-0.1
	L109.5,31.7L109.5,31.7z"/>
<path class="st1" d="M112.1,37.7c-0.1,0.3-0.1,0.6,0,0.9c-0.9-0.1-1.8-0.2-2.6-0.2v2.3h1.2c0.5,0,0.9,0,1.4-0.1
	c-0.1,0.3-0.1,0.6,0,0.9c-0.5-0.1-0.9-0.1-1.4-0.1h-1.2v2.6c0.9,0,1.8,0,2.6-0.1c-0.1,0.3-0.1,0.6,0,0.9h-4.3v-7.1H112.1z"/>
<path class="st1" d="M110.8,62.1c-2.5,0-4.2-1.3-4.2-3.7s2-3.7,4.5-3.7c2.5,0,4.2,1.5,4.2,3.7c0,1.7-1.2,3.2-2.9,3.6
	c0.9,0.5,1.9,1,3,1.6c-0.6,0.1-1.1,0.3-1.6,0.6c-0.6-0.4-1.1-0.8-1.7-1.2L110.8,62.1L110.8,62.1z M108.4,58.7c0,1.4,0.7,2.8,2.4,2.8
	s2.5-1.4,2.5-3.3c0-1.3-0.7-2.9-2.4-2.9C109.1,55.3,108.4,56.8,108.4,58.7L108.4,58.7z"/>
<path class="st1" d="M123,54.9c0.3,0,0.6,0.1,0.9,0.1s0.6,0,0.9-0.1v2.9c0,0.7,0,1.3,0.1,2c0,0.5,0.3,0.9,0.6,1.2
	c1,0.7,2.4,0.5,3.1-0.4c0.1-0.1,0.2-0.2,0.2-0.4c0.2-0.7,0.2-1.4,0.2-2.1v-3.1h0.5h0.5v3.7c0,1.2,0,2.3-1.2,3
	c-0.7,0.4-1.4,0.6-2.1,0.6c-1.4,0-2.9-0.4-3.3-1.7c-0.1-0.4-0.2-0.8-0.2-1.3L123,54.9L123,54.9z"/>
<path class="st1" d="M141.8,62.1c-2.5,0-4.2-1.4-4.2-3.7c0-2.1,1.6-3.7,4.5-3.7c3.3,0,4.2,2.1,4.2,3.7
	C146.3,60.4,144.6,62.1,141.8,62.1L141.8,62.1z M139.5,58.7c0,1.4,0.7,2.8,2.4,2.8s2.5-1.6,2.5-3.3c0-1.3-0.7-2.9-2.4-2.9
	S139.5,56.4,139.5,58.7z"/>
<path class="st1" d="M157,62c-0.3,0-0.6-0.1-0.9-0.1s-0.6,0-0.9,0.1v-6.4c-0.7,0-1.4,0.1-2.1,0.1c0.1-0.3,0.1-0.6,0-0.9h5.9
	c-0.1,0.3-0.1,0.6,0,0.9c-0.7-0.1-1.3-0.1-2-0.1L157,62L157,62z"/>
<path class="st1" d="M166.7,54.9c0.3,0,0.6,0.1,0.9,0.1s0.6,0,0.9-0.1V62c-0.3,0-0.6-0.1-0.9-0.1s-0.6,0-0.9,0.1V54.9z"/>
<path class="st1" d="M180.4,54.9c1.8-0.1,3.3,1.2,3.4,2.9c0,0.1,0,0.3,0,0.4c0,2.3-1.8,3.7-4.1,3.7h-3.2v-7.1H180.4z M178.2,61.3h1
	c1.6,0,2.8-0.7,2.8-3.1c0-1.9-1-2.7-2.6-2.7h-1.1L178.2,61.3L178.2,61.3z"/>
<path class="st1" d="M191.5,54.9c0.3,0,0.6,0.1,0.9,0.1s0.6,0,0.9-0.1V62c-0.3,0-0.6-0.1-0.9-0.1s-0.6,0-0.9,0.1V54.9z"/>
<path class="st1" d="M205.8,54.9c-0.1,0.3-0.1,0.6,0,0.9c-0.9-0.1-1.8-0.2-2.6-0.1v2.2h1.2c0.5,0,0.9,0,1.4-0.1
	c-0.1,0.3-0.1,0.6,0,0.9c-0.5-0.1-0.9-0.1-1.4-0.1h-1.2v2.6c0.9,0,1.8-0.1,2.6-0.1c-0.1,0.3-0.1,0.6,0,0.9h-4.3v-7.1L205.8,54.9z"/>
<path class="st1" d="M213.6,54.9h1.1c1.6,1.6,3.3,3.2,4.9,4.9v-4.9h0.5h0.5V62h-1c-1.3-1.3-2.6-2.6-3.8-3.8l-1.2-1.2v5
	c-0.1,0-0.3,0-0.5,0s-0.3,0-0.5,0L213.6,54.9L213.6,54.9z"/>
</svg>
