<?xml version="1.0" encoding="utf-8"?>
<!-- Generator: Adobe Illustrator 21.1.0, SVG Export Plug-In . SVG Version: 6.00 Build 0)  -->
<svg version="1.1" id="Layer_1" xmlns="http://www.w3.org/2000/svg" xmlns:xlink="http://www.w3.org/1999/xlink" x="0px" y="0px"
	 viewBox="0 0 181.1 92.8" style="enable-background:new 0 0 181.1 92.8;" xml:space="preserve">
<style type="text/css">
	.st0{fill:#FCFC04;}
	.st1{fill:#020302;}
	.st2{fill:#201004;}
	.st3{fill:#067C07;}
	.st4{fill:#F2F1F1;}
	.st5{fill:#F10405;}
</style>
<title>CR</title>
<path class="st0" d="M180.5,74.2c0,5.6,0,11.1,0,16.6c0,1.1-0.2,1.4-1.4,1.4c-39,0-77.9,0-116.9,0h-5.9c1.9-0.8,3.5-2.2,4.5-4.1
	c1.1-2.2,0.5-4-0.9-5.6c-1.2-1.5-3.2-2.3-5.1-1.8c-2.1,0.4-3.8,1.6-5.8,2.4c-0.3,0.1-0.7,0.6-1,0.1c-0.9-1.6-2.6-1.4-4-2
	c0.4-0.6,0.9-0.3,1.4-0.3c0.2,0.2,0.4,0.2,0.6,0.2l1.1,0.4c0.7,0.4,1.2,1.6,2.4,0.9c1.7-1.1,3.6-1.9,5.6-2.3
	c0.4-0.1,0.8-0.2,0.8-0.8c-0.1-1.1,0-2.3-0.2-3.4c-0.3-1.7-0.2-3.5-1.7-4.7c-0.8-1.9-1.9-3.7-3.3-5.1c-0.7-0.9-1.4-1.5-1-2.9
	c0.2-0.6,0.8-1.3,0.3-2.1l1.1-3.9c1,0.3,1.8,1.1,2.9,0.8c1.3,0.6,2.6,1,3.9,0.1c2-0.1,3.9-1.2,4.9-3c1.5-2.3,3.7-3.2,5.9-4.3
	c0.3-0.1,0.5-0.4,0.8,0c0.6,0.8,1.1,0.2,1.5-0.1c4.1-2.4,8.1-4.9,12.1-7.3c0.9-0.5,1-1,0.5-1.8c-0.9-1.5-1.6-3.1-2.5-4.7
	c0.8,0,0.8,0.4,1,0.8c0.7,1.2,1.5,2.5,2.2,3.7c0.3,0.6,0.6,0.8,1.3,0.4c2.3-1.4,4.6-2.8,6.9-4.2c0.8-0.5,0.9-1,0.4-1.8
	c-2.9-4.9-5.9-9.8-8.8-14.7c-0.3-0.5-1-1-0.7-1.8c0.1,0.2,0.3,0.2,0.5,0.1h1.3c0.4,0.1,0.7,0.1,1.1,0h3.1l0.1,0.1v-0.1
	c0.2-0.5,0.2-1.1,0.1-1.6c0.5-2.8-0.1-5.6,0.4-8.7c0.7,1.2,1.3,2.2,1.8,3.1c3.2,5.7,6.7,11.2,9.8,17c1.3,2.4,1.3,2.3,3.6,1
	c0.1-0.1,0.3-0.1,0.4-0.2l10.6-6.7c0.4-0.3,1-0.5,0.6-1.3c-1.1-2.1-2.1-4.2-3.1-6.3c-0.3-0.6-0.6-0.7-1.1-0.3
	c-1.2,0.7-2.4,1.2-3.6,1.8c-0.9,0.5-1.3,0.4-1.9-0.5c-2.6-4.1-5.3-8.1-7.8-12.2c-0.5-0.8-0.9-0.9-1.7-0.3c-2.4,1.6-4.9,3-7.5,4.5
	c-0.1-1.3-0.1-2.7,0-4c0.1-0.9-0.2-1.3-1.2-1.3c-2.7,0.1-5.4,0.2-8.1,0.2c-1,0-1.2,0.5-0.9,1.2c1.3,4.1,1.7,8.5,2.9,12.6
	c0.3,0.7,0,1.4-0.6,1.8c-2.1,1.7-4.5,3-6.7,4.5c-0.9,0.6-1.2,1-0.5,2.1c1.9,3,3.7,6.1,5.5,9.2c-1.6,0.6-3.2,1.4-4.6,2.3
	c-1,0.6-1.6,0.6-2.2-0.5c-2.5-4.1-5.1-8.1-7.6-12.1c-0.5-0.8-0.9-1-1.8-0.4c-1.7,1.3-3.5,2.4-5.5,3.3c-0.3,0.1-0.8,0.4-0.9,0
	c-0.2-1-0.8-0.7-1.3-0.5c-1.3,0.3-2.4,0.4-3.1-1.2c-0.7-1.5-2.5-2.2-4-1.6c-0.8,0.2-1-0.1-1.3-0.7c-0.6-1.5-1.4-2.9-2.5-4.1
	c-0.7-1.5-1.5-2.9-2.4-4.3c-0.8-1.1-1.1-2.8-2.9-3.2c-0.9-0.2-1.8-0.6-2.6-0.8c-1.5-0.4-3.1,0.2-4,1.4l0,0c-1.2,0.2-1.7,1.2-2.4,1.9
	L30,14.8l-2.2,0.2c0.9-1.2,0.9-1.2-0.6-3.2c-0.8,0.4-1,1.5-2,1.8l0.5-0.9c1.2-0.9,1.3-1.9,0.5-3.2c-1.4-2.3-2.7-4.8-3.9-7.2
	c-0.3-0.7-0.8-0.9-1.4-0.7c-3.2,0.8-6.2,2.2-8.9,4.1c-3.5,2.7-6.7,5.6-8.9,9.6c-1.2,2.1-1.9,4.4-2,6.8c0.1,1-0.1,2.1-0.5,3
	c0-7.7,0-15.3,0-23c0-1.1,0.2-1.4,1.4-1.4c26.2,0,52.4,0,78.6,0h80.1c0,0.2-0.2,0.5-0.4,0.6c-2,1.4-3.9,2.8-6,4.2
	c-0.7,0.5-0.8,0.8-0.3,1.5c1.1,1.7,2,3.6,3.1,5.5l-0.8-0.2c-4.2-1.3-8-0.7-11.1,2.6c-1,1-1.8,2.1-3.4,2.7c-2,0.7-3.8,2.3-5.6,3.4
	s-4.1,1.7-4.1,4.9c-1.3-1.9-2.3-3.3-3.3-4.7c-0.4-0.7-0.8-0.7-1.6-0.3c-2.2,1.4-4.6,2.7-6.8,4c-0.8,0.4-1,1-0.4,1.8
	c0.6,0.7,1.1,1.5,1.6,2.3c0.9,1.9,2.5,3.6,3,5.7c-0.3,0.1-0.5-0.1-0.7-0.4c-0.7-1.2-1.5-2.4-2.3-3.7c-0.8-1.2-2.3-1.5-3.5-0.7
	c0,0,0,0,0,0c-3.1,1.8-5.4,4.8-6.4,8.2c-1.3,4.4,1.1,10.8,5,12.9c4.3,2.3,8.7,2.6,13.1,0c2-1.1,2.5-2,1.8-3.3
	c-1.3-2.3-2.7-4.7-3.9-7c-0.4-0.7-0.8-0.8-1.3-0.3c-0.7,0.6-1.5,1-2.4,1.1c-0.9,0.1-1.3-0.4-1.6-1.1s0-1.1,0.6-1.5
	c0.6-0.5,1.3-0.8,2-1c1.1-0.2,0.9-0.7,0.4-1.4s-1.2-1.1-0.8-2c0.9,0.2,1,1,1.3,1.7c2.3,3.8,4.5,7.7,6.7,11.5
	c0.3,0.4,0.4,1.2,1.3,0.6c2.5-1.6,5-3.1,7.5-4.7c0.7-0.4,0.9-0.9,0.2-1.7c-0.6-0.8-1.2-1.6-1.7-2.5c0.5-0.2,1.1-0.1,1.5,0.3
	c2.6,1.3,5.1,1.3,7.4-0.7c0.2-0.2,0.4-0.3,0.6-0.4c2.4-1.2,4.4-3.1,7-3.9c4.2-1.2,6.8-3.8,7.6-8.1c0.1-0.8,0.3-1.7,0.3-2.5
	c0.1-1,0.5-0.8,1-0.3c2,1.9,4.3,2,6.8,1c2.5-1.1,4.8-2.5,6.9-4.1c0.5-0.3,0.9-1.1,1.7-0.8v36.4c-1.6-2.8-4.1-3.3-7-3
	c-0.7,0.1-1,0.2-1,0.9c0,2.6,0,5.3,0,8c0,0.4-0.1,0.8,0.6,0.9c3.5,0.6,5.5-0.3,7.3-3.5v11.7c-0.9-0.9-1.9-1.5-3.1-1.9
	c-0.8-0.2-0.8-0.8-0.3-1.4l0.6-0.3c0.1,1,0.9,0.7,1.3,0.6c0.6-0.1,0.8-0.8,1-1.4s-0.4-0.6-0.7-0.8c-1.8-0.9-4-0.4-4.7,1.1
	c-1,1.9-0.4,3.3,1.9,4.4c0.6,0.3,1.3,0.7,1,1.4c-0.3,0.6-1,0.8-1.5,0.5c-0.1-0.1-0.2-0.2-0.3-0.3c-0.3-0.3-0.8-0.9-1.1,0
	c-0.1,0.6-1.3,1.2,0.1,1.9C176.7,76.2,178.3,76,180.5,74.2z M146.8,56.8l0.1-1.5l1.8-0.1c1-0.2,1.1-0.5,0.6-2h-0.6h-3.6
	c-0.9-0.2-0.9,0.4-0.9,1c0,2.6,0,5.2,0,7.8c0,0.4-0.2,0.9,0.5,0.9c0.6,0.2,1.2,0.2,1.8-0.1l0,0c0.3-1,0.4-2.2,0.1-3.2
	c0.1-0.4,0.5-0.3,0.8-0.4c1.9,0.1,1.9,0.1,1.7-1.7c0.1-0.5-0.2-0.6-0.6-0.4l-1.8-0.1L146.8,56.8z M169.8,73.2l-0.1-1.1
	c0.5-0.4,1.2-0.1,1.8-0.3c0.3,0.1,0.6,0.1,0.7-0.3c0.5-1.5-0.1-2-1.9-1.8c-0.8-0.3-0.4-1-0.6-1.4l0.4-0.3c0.5,0.1,1.1,0.1,1.6,0
	c1.2-0.1,0.5-1.1,0.6-1.6s-0.5-0.5-0.9-0.5c-1.1,0-2.1,0-3.1,0c-0.8,0-1.1,0.3-1.1,1.1c0,2.5,0,5.1,0,7.6c0,0.9,0.4,1.1,1.2,1.1
	c0.9-0.1,1.9-0.1,2.9,0c1.1,0.1,1.1-0.4,1.2-1.3c0.1-1.1-0.5-1.1-1.3-1.1c-0.4,0-0.8,0-1.2,0C169.9,73.2,169.8,73.2,169.8,73.2
	L169.8,73.2z M159.2,61.3c1.4-1.5,1.7-3.6,0.8-5.4c-1-2.5-3.9-3.7-6.4-2.7c-1.2,0.5-2.1,1.4-2.7,2.6c-1.1,2.4-0.3,5.3,1.9,6.8
	C154.9,63.8,157.7,63.3,159.2,61.3L159.2,61.3z M154.5,75.2c1.9-0.9,3-3,2.8-5.1c-0.3-2.2-2.2-4.2-4.1-4.5c-2.8-0.4-5.5,1.6-5.8,4.5
	c-0.3,2.3,0.9,4.5,3.1,5.5C151.7,76.3,153.3,76.1,154.5,75.2L154.5,75.2z M76.8,12.2c-0.3-0.2-0.5,0-0.7,0.1l-0.5,0.2l-0.5,0.1
	c-1.9,0.6-3.5,1.8-4.6,3.5c-1.3,1.8-0.4,4.5,1.5,4.9c2.3,0.5,6.5-1.2,7.6-3.2c0.7-1.2,1.5-2.7,0.7-4C79.7,12.5,78.2,11.8,76.8,12.2
	L76.8,12.2z M89.6,61c-0.7,0.8-1.5,1.6-2.3,2.3c-0.5,0.4-1.3,0.4-1.7-0.1c-0.6-0.5-0.6-1.3-0.2-1.8c0,0,0,0,0-0.1
	c0.6-0.8,1.5-1.5,2.4-2c0.7-0.4,0.8-0.7,0.3-1.3c-1.4-2.1-2.7-4.2-4-6.4c-0.4-0.7-0.9-0.9-1.6-0.4c-2.1,1.5-4.2,2.7-5.8,4.9
	c-2.4,3.4-3.6,8.4-0.7,13c1.7,2.7,4,5,7,5.7c4.1,1,7.8-0.5,10.9-3.3c0.8-0.5,1-1.6,0.5-2.4C93,66.5,91.4,63.9,89.6,61L89.6,61z
	 M93,46.8c-0.3-0.3-0.6-0.2-0.9,0.1c-1.9,1.3-3.8,2.6-5.8,3.9c-0.7,0.4-0.7,0.8-0.3,1.5c3.3,5.6,6.5,11.3,9.7,16.9
	c0.5,0.8,0.8,1.1,1.7,0.5c2.2-1.4,4.4-2.8,6.6-4.2c0.6-0.4,0.9-0.8,0.3-1.6c-1.8-2.6-3.5-5.2-4.9-8c-1-1.9-0.2-3.9,1.9-4.3
	c1.2-0.2,1.1-0.6,0.6-1.4c-1.3-2.1-2.5-4.2-3.7-6.3c-0.3-0.6-0.6-0.7-1.1-0.2c-1.1,0.7-2,1.6-2.8,2.6C94,46.5,93.7,47.1,93,46.8
	L93,46.8z M106,37.8l-0.7,0.4c-2,1.2-3.9,2.6-6,3.7c-1,0.6-1,1-0.5,1.8c1.7,3,3.4,6,5.1,9c1.6,2.9,3.2,5.7,4.9,8.6
	c0.3,0.4,0.4,1.2,1.3,0.6c2.3-1.5,4.7-3,7.1-4.5c0.5-0.3,0.7-0.6,0.3-1.2c-3.6-5.9-7.3-11.9-10.9-17.8
	C106.6,38.2,106.5,37.8,106,37.8L106,37.8z M166.1,75.4c-0.7-1-1.4-2-2-2.9c-0.4-0.5-0.8-0.9,0.2-1.4s1.2-1.9,1-3.1
	c-0.2-1.2-1.1-2.1-2.3-2.1c-1.1-0.1-2.1-0.1-3.1-0.1s-1.1,0.3-1.1,1.1c0,2.6,0,5.1,0,7.6c0,0.7,0.2,1,1,1.1c1.4,0.1,1.6-0.6,1.5-1.7
	c0-0.3-0.2-0.8,0.2-0.9s0.6,0.4,0.8,0.7C163.5,75.9,163.5,75.9,166.1,75.4L166.1,75.4z M171.2,58.1c0-3.1-2.1-5.4-5-5.3
	c-2.9,0.2-5,2.7-4.8,5.6c0.2,2.6,2.2,4.6,4.8,4.8C168.8,63.2,171.5,61,171.2,58.1L171.2,58.1z M136,75.8c1.5,0,2.9-0.9,3.3-2.3
	c0.4-2-0.1-3-2.1-3.9c-0.1-0.1-0.2-0.1-0.3-0.1c-0.7-0.1-1.1-0.5-1-1.2c0.2-0.9,0.9-0.4,1.3-0.2c0.6,0.2,1.1,0.3,1.3-0.4
	c0.1-0.4,0.7-0.8,0.1-1.3c-1.5-1-3.5-0.9-4.8,0.4c-1.4,1.7-1,4.5,1.4,4.8c0.7,0.1,1.6,0.6,1.3,1.4c-0.3,0.6-1.4,0.5-1.9,0.2
	c-1.4-0.9-1.4,0.5-1.6,1c-0.4,0.8,0.4,1.1,0.9,1.3C134.6,75.6,135.3,75.8,136,75.8L136,75.8z M142.1,71.8c0,0.8,0.1,1.6,0,2.4
	c-0.1,1,0.1,1.5,1.4,1.5s1.3-0.5,1.3-1.4c-0.1-1.6,0-3.3,0-4.9c0-0.8,0-1.4,1.1-1.3s0.7-0.7,0.8-1.2s-0.1-1-0.9-1
	c-1.5,0-3,0.1-4.5,0c-0.9,0-0.8,0.5-1,1.1c-0.2,0.8,0.2,1.3,0.7,1.3c1.6-0.2,1.2,0.9,1.2,1.7C142.1,70.5,142.1,71.1,142.1,71.8
	L142.1,71.8z"/>
<path class="st0" d="M49.8,92.2c-16.1,0-32.1,0-48.2,0c-1,0-1.1-0.3-1.1-1.2c0-21.1,0-42.1,0-63.2c1.7,0.3,3.1,1.4,4.8,1.8
	C5.4,29.9,5.7,30,5.9,30l0,0c0.3,0.4,0.8,0.4,1.2,0.5l0.3,0.1c0.4,0.4,0.9,0.6,1.5,0.6l0,0c0.3,0.4,0.8,0.6,1.3,0.6l0,0
	c1.9,1,3.9,1.9,5.9,2.7c0.3-0.5,0-0.8,0-1.1c-0.4-2-1.3-4.2,0.1-6.1c1.8-2.3,3-5.1,3.2-8c-0.1,0.3,0,0.7,0.3,0.9
	c-0.3,0.3-0.1,0.5-0.1,0.8l-0.2,2.1L19,24.6l-0.1,0.3l-0.3,0.3l0,0c-0.5,0.5-1,1-1.3,1.7h0.1h-0.1c-1.6,2.5-1.3,5-0.3,7.6l0.2,0.9
	l0.2,0.3c0,0.5,0.2,1.1,0.5,1.5l0.1,0.2l0.1,0.3l0.2,0.5c0,0.3,0.1,0.5,0.3,0.7c0.1,0.7,0.6,1.3,1.2,1.6c1.8,1.3,3.7,2.4,6,1.7
	c0.7-0.2,1.4-0.2,2.1-0.1l0,0c-0.6,1.1-1.5,2-2.5,2.7c-1.8,1.6-3.9,3-5,5.2c-0.9,1-0.7,2.2-0.5,3.4c-0.2,1.3,0.6,2.7-0.7,3.8
	c-0.3,0.3,0.3,0.7,0.5,1.1c0.7,1.1,2,1.8,2.2,3.1c0.3,2,0.8,2.8,2.7,3.1c1.2,0.2,1.1,0.6,0.6,1.4c-2.6,4.8-5.2,9.6-7.8,14.5
	C16.8,81.7,16,82.9,15,84c-0.7,0.7-0.3,2.1-1.3,2.9c-0.2,0.2-0.1,0.4,0.1,0.6c1.2,1.2,1.5,1.3,2.6,0.1c0.1-0.2,0.3-0.3,0.4-0.4
	c1-0.3,1.7-1.3,1.6-2.4c0.1-0.5,0.3-1.1,0.6-1.5c2.8-4.8,5.6-9.7,8.3-14.5c0.8-1.3,1.6-2.7,2.4-4.1c0.6,1.1,0.3,2.1,0.6,3.2
	c0.6,2.2,1,4.7-0.8,6.8c-1,1.2-0.7,1.9,0.9,2.1c0.8,0.1,1.5-0.1,2.1-0.6c0.5-0.3,1.1-0.9,1.6-0.5c1.3,1,3.4,1.5,2.9,3.8
	c-0.1,1,0,2,0.2,3c-0.1,0.1-0.1,0.2-0.1,0.3c-0.5,0.6-0.8,1.4-0.8,2.1l-0.1,0.6c-0.7,1.2-0.6,2.7,0.1,3.9c0.6,1,1.5,1.8,2.7,2.1
	c0.2,0.1,0.1,0.5,0.4,0.4c0.1,0,0.1-0.2,0.1-0.3l0.4,0.2c0,0.2,0.1,0.3,0.3,0.2h0.6c2.6,0.1,5.2-0.7,7.8-0.3l0,0
	c0.2,0.5,0.6,0.1,0.8,0.2L49.8,92.2z"/>
<path class="st1" d="M5.3,29.7c-1.7-0.4-3.1-1.5-4.8-1.8v-3c0.5-0.9,0.6-2,0.5-3c0.1-2.4,0.8-4.7,2-6.8c2.1-4,5.4-6.9,8.9-9.6
	c2.7-1.9,5.7-3.2,8.9-4.1c0.6-0.2,1.1,0.1,1.4,0.7c1.2,2.5,2.6,4.9,4,7.2c0.8,1.3,0.7,2.3-0.5,3.2C24,12.5,24.7,14.2,24,15l0,0
	c-0.8-0.2-1.6,0.4-1.8,1.2c0,0,0,0,0,0l-0.6,0.3c-0.9-0.2-1.5,0-1.8,1l-0.3,0.3c-1.2-0.1-1.5,0.9-1.5,1.7c0,2.6-0.8,5.1-2.3,7.2
	c-0.3,0.6-0.6,1.2-0.8,1.9c-0.5,1.2,0.3,2.2,0.1,3.3c-0.1,0.6,0.2,1.1-1,0.7s-2.5-1.1-3.8-0.8l0,0C10,31.1,9.5,31.3,9,31.3l0,0
	c-0.2-1-1-0.5-1.5-0.6l-0.3-0.1C7,29.9,6.4,30.1,6,30l0,0C5.9,29.7,5.8,29.3,5.3,29.7z"/>
<path class="st2" d="M180.5,19.8c-0.8-0.3-1.2,0.4-1.7,0.8c-2.1,1.6-4.5,3-6.9,4.1c-2.4,1-4.7,0.9-6.8-1c-0.5-0.5-0.9-0.6-1,0.3
	c-0.1,0.8-0.2,1.7-0.3,2.5c-0.8,4.3-3.4,6.9-7.6,8.1c-2.6,0.8-4.7,2.6-7,3.9c-0.2,0.1-0.4,0.2-0.6,0.4c-2.3,2-4.8,2-7.4,0.7
	c-0.4-0.3-1-0.4-1.5-0.3c0.5,0.9,1.1,1.7,1.7,2.5c0.6,0.7,0.5,1.2-0.2,1.7c-2.5,1.6-5,3.1-7.5,4.7c-0.9,0.6-1-0.2-1.3-0.6
	c-2.3-3.8-4.5-7.7-6.7-11.5c-0.4-0.6-0.5-1.5-1.3-1.7l0,0c-0.5-2.2-2-3.8-3-5.7c-0.5-0.8-1-1.6-1.6-2.3c-0.6-0.8-0.3-1.4,0.4-1.8
	c2.3-1.3,4.6-2.6,6.8-4c0.7-0.4,1.1-0.4,1.6,0.3c1,1.4,2,2.9,3.3,4.7c0-3.2,2.4-3.7,4.1-4.9s3.6-2.8,5.6-3.4
	c1.6-0.6,2.4-1.7,3.4-2.7c3.2-3.3,7-3.8,11.1-2.6l0.8,0.2c-1.1-2-2-3.8-3.1-5.5c-0.4-0.7-0.4-1,0.3-1.5c2-1.3,4-2.8,6-4.2
	c0.2-0.1,0.4-0.3,0.4-0.6h0.9c0.4,1.1,1.3,1.7,1.9,2.6c0.4,0.6,0.8,0.5,1.3,0.2c0.8-0.6,1.6-1.1,2.5-1.7c0.4-0.2,0.7-0.6,1.1,0
	c1.6,2.5,3.3,5,5,7.4c0.4,0.6,0.3,0.8-0.3,1.2c-0.9,0.6-1.8,1.3-2.8,1.8s-0.9,1.1-0.4,1.9s1,1.2,1.9,0.7c1.2-0.5,2.4-1.2,3.5-2
	c0.6-0.7,1-0.6,1.4,0.2c1.2,2,2.5,4,3.7,6L180.5,19.8z M136.2,36.7c0.3,0,0.5,0,0.8,0.1c1.9,0.6,3.9,1.3,5.8,2c0.9,0.5,2.1,0.5,3,0
	c1.9-1.3,3.9-2.5,6-3.5c0.3-0.1,0.5-0.4,0.6-0.6c0.1-0.4-0.4-0.3-0.6-0.4c-3.6-1.3-7.3-2.6-11-3.7c-0.8-0.2-1.4-0.8-1.3-1.6
	c0.5-2.1,0.1-4.2,0.8-6.2c0.2-0.7,0.2-1.4,0.2-2.1c0-0.6,0-1-0.8-0.5c-1.4,0.9-2.8,1.8-4.2,2.6c-1.4,0.7-2.3,2.1-2.3,3.7
	c-0.1,1-0.4,1.9-1,2.7c-1.3-1.9-2.6-3.7-3.7-5.6c-0.7-1.2-1.3-1.4-2.4-0.7s-2.2,1.3-3.4,1.8s-1.4,1.3-0.6,2.4c1.7,2.5,3,5.3,4.5,8
	c2,3.5,4,7,6,10.4c0.4,0.6,0.9,1.1,1.7,0.5c1.3-0.9,2.7-1.8,4.1-2.6c1-0.6,1.2-1.1,0.4-2.2C138,39.8,136.7,38.5,136.2,36.7z
	 M143.4,23c0.1,1.4,0.3,2.7,0.7,4c0.5,2.1,1.4,3.8,3.8,4.1c1.3,0.3,2.5,0.7,3.6,1.3c3.7,1.8,8.1,0.3,9.9-3.4
	c0.4-0.7,0.6-1.5,0.7-2.3c0.2-0.9,1-2.1,0.2-2.6s-1.6,0.6-2.4,1s-1.7,0.7-2,1.6c-0.9,2.7-2.1,3.5-4.8,2.7c-1-0.2-1.7-0.9-2-1.9
	c-0.2-0.9,0.9-1.1,1.4-1.5c2.7-1.8,5.4-3.6,8.1-5.3c0.5-0.3,1.3-0.7,0.8-1.4c-1.4-1.8-2-4.1-4.4-5.2c-2.2-1.2-4.7-1.4-7.1-0.8
	C145.8,14.7,143.1,18.7,143.4,23L143.4,23z M169.2,23.8c0.9-0.1,1.7-0.3,2.5-0.6c2.3-1,4.3-2.5,6.4-3.8c0.7-0.4,0.6-0.8,0.2-1.3
	c-0.5-0.5-0.9-1.1-1.2-1.7c-1-2.2-1.4-2.2-3.4-0.9c-0.2,0.1-0.3,0.3-0.5,0.3c-2,1.1-3.6,0.7-4.7-1.4c-0.2-0.5-0.4-0.9-0.6-1.4
	c-0.5-0.7-0.1-1.1,0.4-1.5c0.6-0.5,1.3-1,2.1-1.4c1.1-0.4,1-1.1,0.5-1.9c-0.6-1.1-1.3-2.1-2-3.2c-1.3-1.9-1.8-1.9-3.5-0.6
	c-1.5,1.2-2.2,1.1-3.1-0.5c-0.7-1.2-1.5-1.4-2.7-0.6c-1.1,0.8-2.2,1.5-3.4,2.2c-0.4,0.2-0.9,0.6-0.5,1.3c1.6,2.7,3,5.5,4.9,8.1
	c0.8,1,1.6,2.1,2.3,3.3c1,1.7,2.2,3.2,3.7,4.4C167.3,23.5,168.2,23.8,169.2,23.8L169.2,23.8z M141.2,27c0,0.3,0,0.7-0.1,1
	c-0.2,0.4,0,0.9,0.4,1.1c0.1,0,0.1,0,0.2,0.1c0.4,0.1,0.9,0.5,1.3,0.2s0.1-1-0.2-1.3s-0.1-0.9-0.3-1.2c-0.4-0.8-0.1-2.3-0.8-2.2
	S141.2,26.1,141.2,27L141.2,27z M156,25.7c-1,0.5-2,1.2-2.8,2c1,0.6,2,0.9,2.8,0.2S156.4,26.4,156,25.7L156,25.7z"/>
<path class="st1" d="M39,91.3c-1.2-0.3-2.1-1.1-2.7-2.1c0.5-1.3,0.5-2.7-0.1-3.9l0.1-0.6c1.5-0.3,0.6-1.4,0.8-2.1
	c0-0.1,0-0.2,0.1-0.3c0.5-0.1,0.8-1.2,1.5-0.2c0.1,0.1,0.2-0.4,0.3-0.7h1.5c0.6,0.9,1.3,0.5,2.1,0.3s0.6-0.8,0.5-1.3l0,0
	c1.2-0.5,0.9-1.1,0.1-1.7c-0.5-0.9-1.3,0-1.8-0.3c0.4-0.2,0.7-0.4,1.1-0.6c0.4-0.2,0.6-0.7,0.4-1.1c-0.1-0.5-0.2-1-0.9-0.8
	c0-0.4,0.3-0.6,0.4-0.9c0.2-1,0.8-2.1-0.4-2.9c-0.4-0.7-0.8-1.5-1.1-2.2c-0.2-0.5-0.2-0.9,0.4-1c1.2,0,2.1-1,2.1-2.2
	c0-0.1,0-0.2,0-0.3c0-0.3,0.3-0.6,0.5-0.9c1-0.5,2.1-1,3.2-1.3c1-0.2,2.2-0.7,2.2-2.2c0-0.5,0.4-0.8,0.8-1c0.5,0.8-0.1,1.5-0.3,2.1
	c-0.4,1.4,0.3,2,1,2.9c1.4,1.5,2.5,3.2,3.3,5.1c0.3,1.6,0.6,3.1,1,4.7c0.3,1,0.3,2.1,0.1,3.1c-0.3,0.9-1.3,0.3-2,0.4
	c-0.3,0.1-0.7,0.2-1,0.3c-1.7,0.5-2.9,2.3-4.9,1.8l-1.1-0.4c-0.1-0.5-0.3-0.7-0.6-0.2c-0.5,0.1-1-0.2-1.4,0.3c1.4,0.5,3.1,0.4,4,2
	c0.3,0.5,0.7,0,1-0.1c1.9-0.8,3.7-2,5.8-2.4c1.9-0.4,3.9,0.3,5.1,1.8c1.3,1.7,2,3.5,0.9,5.6c-1,1.9-2.6,3.3-4.5,4.1h-6.6l-0.3-0.4
	c-0.2-0.3-0.6-0.2-0.8-0.2l0,0c-0.2-0.1-0.3-0.3-0.5-0.3c-2.2,0-4.4,0-6.5,0c-0.4,0-0.7,0.1-0.8,0.5h-0.6l-0.3-0.2l-0.4-0.4L39,91.3
	z M44.7,75.1l0.6-0.6c0.1,0.9,0.8,0.8,1.4,0.7s0.2-0.6,0.2-1c-0.2-1.5-0.4-3-0.8-4.5c-0.1-0.6-0.4-0.6-0.8-0.5s-0.7,0.2-0.6,0.8
	c0.1,0.7,0.2,1.5,0.3,2.2h-0.4c-0.1-0.7-0.4-1.4-0.8-2.1c-0.3-0.6-0.7-0.5-1.2-0.4c-0.9,0.2-0.3,0.8-0.2,1c0.6,1.1,1,2.3,1.1,3.5
	C43.4,75.3,43.9,75.2,44.7,75.1L44.7,75.1z M56.1,86.7c-1.6,1.5-3.6,2.5-5.8,2.7C53.8,91.5,55.9,90.6,56.1,86.7z M50.9,71.7
	c0.3,0.6,0.5,1.1,0.7,1.6s0.3,1.2,0.5,1.8c0.1,0.4,0.4,0.8,0.8,0.7s0.4-0.5,0.4-0.9C53.4,73.5,52.4,72.1,50.9,71.7z"/>
<path class="st0" d="M180.5,18.9c-1.3-2-2.5-4-3.7-6c-0.4-0.8-0.8-0.9-1.4-0.2c-1,0.8-2.2,1.5-3.5,2c-0.9,0.5-1.4,0.2-1.9-0.7
	s-0.5-1.4,0.4-1.9s1.8-1.2,2.8-1.8c0.6-0.3,0.6-0.6,0.3-1.2c-1.7-2.5-3.4-4.9-5-7.4c-0.4-0.6-0.7-0.3-1.1,0
	c-0.8,0.6-1.7,1.1-2.5,1.7c-0.5,0.3-0.9,0.4-1.3-0.2c-0.6-0.9-1.5-1.6-1.9-2.6c6,0,12,0,18,0c0.8,0,0.9,0.2,0.9,0.9
	C180.5,7.3,180.5,13.1,180.5,18.9z"/>
<path class="st2" d="M180.5,59.5c-1.8,3.1-3.8,4-7.3,3.5c-0.7-0.1-0.6-0.5-0.6-0.9c0-2.6,0-5.3,0-8c0-0.8,0.3-0.9,1-0.9
	c2.9-0.3,5.4,0.3,7,3L180.5,59.5z M175,57.8c0,0.4,0,0.8,0,1.2c0.1,0.5-0.4,1.4,0.4,1.5c0.8,0.2,1.5-0.2,2-0.8
	c0.8-1,0.8-2.4,0.1-3.4c-0.5-0.8-1.3-1.1-2.2-1c-0.8,0.2-0.3,1.1-0.4,1.7C174.9,57.3,174.9,57.6,175,57.8L175,57.8z M174.9,61.6
	c-1.1-0.8-1.4-1.5-0.9-2.7c0.6-0.9,0.3-2.2-0.6-2.8c-0.2-0.1-0.3-0.2-0.5-0.2c0,1.6,0.1,3.1,0,4.6C172.9,61.8,173.4,62.1,174.9,61.6
	L174.9,61.6z M178.6,58.7c-0.4,1.3-1.2,2.3-2.4,2.9c0.7,0.1,1.6,0.6,2-0.1S179.4,60.1,178.6,58.7L178.6,58.7z M177.1,54.8
	c0.7,0.6,1.3,1.4,1.7,2.2C179.1,55.3,178.8,54.8,177.1,54.8L177.1,54.8z"/>
<path class="st2" d="M180.5,74.2c-2.1,1.8-3.8,2-5.9,0.9c-1.4-0.7-0.2-1.3-0.1-1.9c0.2-0.9,0.8-0.3,1.1,0c0.4,0.5,1.1,0.5,1.6,0.1
	c0.1-0.1,0.2-0.2,0.3-0.3c0.3-0.7-0.4-1.1-1-1.4c-2.3-1.1-2.9-2.5-1.9-4.4c0.8-1.5,2.9-2,4.7-1.1c0.3,0.2,0.9,0.2,0.7,0.8
	s-0.4,1.3-1,1.4c-0.4,0.1-1.3,0.4-1.3-0.6c0.2-0.8,1.2,0.8,1.2-0.3s-0.9-0.5-1.4-0.6c-0.3-0.1-0.6-0.1-0.9,0c-0.9,0.4-1.8,1-1.8,2.1
	s0.7,1.6,1.8,1.5c0.2,1,1.1,1.1,1.8,1.5c0.2,0.1,0.4,0.2,0.5-0.1c0.1-0.2,0.1-0.4,0-0.6c-0.5-1-1.4-0.9-2.3-0.9
	c-0.1-0.3-0.2-0.5-0.4-0.8c-0.5-1-0.4-1.7,0.9-1.6c-0.5,0.6-0.5,1.2,0.3,1.4c1.1,0.4,2.2,1.1,3.1,1.9L180.5,74.2z M178.8,72.8
	c-0.9,0.9-1.6,2.3-3.1,1.2c-0.2-0.2-0.5-0.1-0.7,0.1c-0.2,0.3,0,0.4,0.2,0.6c0.8,0.7,2,0.8,2.9,0.3
	C178.9,74.6,179.2,73.8,178.8,72.8L178.8,72.8z"/>
<path class="st2" d="M42,72.1c1.2,0.8,0.6,1.9,0.4,2.9c0,0.3-0.4,0.5-0.4,0.9c-1,0.4-2,0.7-3.1,1c-1.7,0.3-2,1.2-0.8,2.7l1.4,0.8
	c-0.2,0.3-1.4,0.2-0.5,1.1c0,0.3-0.2,0.8-0.3,0.7c-0.7-1-1,0.1-1.5,0.2c-0.2-1-0.3-2-0.2-3c0.4-2.3-1.6-2.8-2.9-3.8
	c-0.5-0.4-1.1,0.2-1.6,0.5c-0.6,0.5-1.3,0.7-2.1,0.6c-1.6-0.3-1.9-0.9-0.9-2.1c1.8-2.1,1.5-4.5,0.8-6.8c-0.3-1,0.1-2.1-0.6-3.2
	c-0.8,1.4-1.7,2.7-2.4,4.1c-2.8,4.8-5.6,9.7-8.4,14.5c-0.3,0.5-0.5,1-0.6,1.5c0.1,1.1-0.6,2.1-1.6,2.4c-0.2,0.1-0.3,0.2-0.4,0.4
	c-1.1,1.2-1.4,1.2-2.6-0.1c-0.2-0.2-0.3-0.4-0.1-0.6c1-0.7,0.7-2.1,1.3-2.9c1-1.1,1.8-2.2,2.4-3.5c2.6-4.8,5.2-9.7,7.8-14.5
	c0.4-0.8,0.6-1.3-0.6-1.4c-1.9-0.3-2.4-1-2.7-3.1c-0.2-1.4-1.5-2-2.2-3.1c-0.2-0.4-0.9-0.8-0.5-1.1c1.3-1.1,0.4-2.6,0.7-3.8
	c1.1-1,0.3-2.2,0.5-3.4c1.2-2.2,3.2-3.6,5-5.2c1-0.7,1.8-1.6,2.5-2.7c0.5,0.4,1.2,0.5,1.7,0.2c1.1-0.6,2.4-0.8,3.7-0.7
	c-0.8-1.7-1.5-3.2-2.2-4.7c-0.4-0.9-0.8-1.2-1.7-0.3s-2,2-3.7,1.4v-1.3c0.7,0.6,1.7,0.5,2.3-0.1c0,0,0,0,0,0
	c0.5-0.5,1.3-0.8,1.8-1.2s0.7-0.2,1.1,0.1c0.8,0.7,0.6,1.8,1.4,2.4l0,0c0.4,1.3,0.9,2.6,1.7,3.7c0.2,0.4,0.7,0.6,1.2,0.4
	c3.5-0.5,7.2,0.1,10.6-1.8c1.8-1,4.1-0.9,5.2-3c0.6,0.9-0.9,1.3-0.5,2.1c1,2,0.3,4.1,0.5,6.1c0.1,0.7-0.3,0.9-0.9,0.8
	c1.2-1.9,0.4-3.9,0.1-5.8c0.3,1.9-0.6,3.8-0.1,5.8c0.2,0.4-0.6,1.2,0.3,1.2c1.3-0.1,2.1,0.7,3,1.3c0,0.3,0,0.7,0,1
	c-0.3,1.4-0.6,2.8-1,4.2c-0.5,1.9-0.1,2.8,1.8,3.1c2.8,0.5,5.3,0.1,7.4-2.1c0.9-1,1-1.7-0.3-2.2c-1.4-0.6-2.4-1.9-2.6-3.4
	c-0.1-0.6-0.3-1.1-1-0.5c-1,0.9-1.5,0.3-1.9-0.7c-0.5-1.5-1.4-2.7-2.7-3.6c-0.5,0.3-0.4,1.1-1.1,1.2c-0.2-0.7-0.3-1.5-0.3-2.2
	c0-1-0.4-2.1,0.6-2.9c0.6,0.6-0.3,1.7,0.6,2.3c1.6,1,2.9,2.4,3.7,4.1c0.2,0.4,0.4,0.8,0.9,0.5c1.2-0.9,2.7-1.4,3.3-2.9
	c0.2-0.9,0.8-1.6,1.5-2.1c1.4-0.8,1.2-1.8,0.6-3c-1.3-2.2-2.6-4.4-3.9-6.6c-0.4-0.7-0.7-2-1.7-1.9c-0.7,0.1-0.8,1.3-1.2,2
	c-0.9,1.9-2.1,3.6-3.7,5.1c-0.1-0.8-0.7-0.9-1.3-0.9c0-0.5,0.2-1.1,0.4-1.6c0.9-2.5,1.5-5,1.8-7.6c0.1-1.2-0.6-2.3-1.7-2.8
	c-1-0.6-1.9-0.1-2.9,0.4c-1.4,0.6-2.2,1.7-3.4,2.4c-0.6,0.3-1,0.4-1.3-0.2c-0.9-1.6-1.8-3.2-2.6-4.9c-1.3-2.5-1.1-3.6,0.8-5.6
	c-0.3-0.6-0.9-0.5-1.3-1c0.8-0.3,1.7,0.1,2,1c0.1,0.2,0.1,0.3,0.1,0.5l0,0l-0.7,0.4l0.4,0.2c-1.2,0.6-1.7,2-1.2,3.2
	c0,0,0,0.1,0.1,0.1c0.7,1.7,1.6,3.4,2.6,5c0.1,0.2,0.2,0.7,0.6,0.3s0.8-0.5,0.6-1c-0.1-0.2-0.2-0.4-0.4-0.7
	c-0.5-0.7-0.7-1.7-0.4-2.6c0.4-0.9,1.3-0.6,2.2-0.7l-1.6-2.5l0.3-0.5c1.1,1.2,1.9,2.6,2.5,4.1c0.3,0.6,0.4,0.9,1.3,0.7
	c1.5-0.6,3.3,0.1,4,1.6c0.8,1.6,1.8,1.5,3.1,1.2c0.6-0.1,1.1-0.4,1.3,0.5c0.1,0.4,0.5,0.2,0.9,0c2-0.9,3.8-2,5.5-3.3
	c0.9-0.6,1.3-0.4,1.8,0.4c2.5,4.1,5.1,8.1,7.6,12.1c0.7,1.1,1.2,1.2,2.2,0.5c1.5-0.9,3-1.7,4.6-2.3c-1.8-3.1-3.6-6.2-5.5-9.2
	c-0.7-1.1-0.4-1.5,0.5-2.1c2.3-1.5,4.6-2.8,6.7-4.5c0.6-0.4,0.8-1.2,0.6-1.8c-1.2-4.2-1.6-8.5-2.9-12.6c-0.2-0.7,0-1.2,0.9-1.2
	c2.7,0,5.4,0,8.1-0.2c1,0,1.3,0.4,1.2,1.3c-0.1,1.3-0.1,2.7,0,4c2.5-1.5,5.1-2.9,7.5-4.5c0.9-0.6,1.2-0.5,1.7,0.3
	c2.6,4.1,5.3,8.1,7.8,12.2c0.6,0.9,1,1,1.9,0.5c1.2-0.7,2.4-1.2,3.6-1.8c0.6-0.3,0.9-0.3,1.1,0.3c1,2.1,2.1,4.2,3.1,6.3
	c0.4,0.8-0.1,1-0.6,1.3l-10.6,6.7c-0.1,0.1-0.3,0.1-0.4,0.2c-2.3,1.4-2.3,1.4-3.6-1c-3.1-5.8-6.6-11.3-9.8-17
	c-0.5-0.9-1.1-1.9-1.8-3.1c-0.5,3.1,0.1,5.9-0.4,8.7h-1.5c0.1-3.7,0.2-7.5,0.3-11.2c0.1-1.4-0.4-1.6-1.6-1.5
	c-1.1,0.1-2.3,0.1-3.4,0.1c-1.1-0.1-1.5,0.3-1.4,1.4c0.2,2.7,1.2,5.3,1.7,8c0.6,3.5,0.8,3.4,4.4,3.2c-1.2,1.3-2.7,0.8-3.9,0.4
	c-1.6-0.5-1.1,0.3-0.9,1c0,0.1,0,0.1,0,0.2c-0.3,0.8,0.3,1.3,0.7,1.8c2.9,4.9,5.8,9.9,8.8,14.7c0.5,0.8,0.4,1.3-0.4,1.8
	c-2.3,1.3-4.6,2.7-6.9,4.2c-0.7,0.4-1,0.2-1.3-0.4c-0.7-1.3-1.5-2.5-2.2-3.7c-0.2-0.3-0.3-0.8-1-0.8c0.8,1.6,1.6,3.2,2.5,4.7
	c0.5,0.9,0.4,1.3-0.5,1.8C79,45.6,75,48,71,50.5c-0.4,0.3-1,0.9-1.5,0.1c-0.2-0.4-0.5-0.1-0.8,0c-2.2,1.1-4.4,2.1-5.9,4.3
	c-1,1.8-2.8,2.9-4.9,3c-1.3-0.5-2.6-0.5-3.9-0.1c-1.1,0.3-1.9-0.5-2.9-0.8l-1.1,3.9c-0.4,0.2-0.8,0.5-0.8,1c0,1.5-1.2,2-2.2,2.2
	c-1.1,0.4-2.2,0.8-3.2,1.3c-0.1-1.1,0.8-1,1.5-1.3c0.6-0.3,2-0.5,1.9-1.4s-1.3-1.3-2.2-1.6C44.4,61,43.8,61,43.1,61
	c-0.5,0-0.9,0.3-1,0.7c-0.6,1.2-1.8,2-3.1,1.9c-2.2,0.1-4.5,0.1-6.7,0.4c-1.2,0.2-1.1,0.6-1,1.4c0.7,3,1.3,6-0.5,8.9
	c-0.1,0.2-0.4,0.5-0.1,0.8s0.6,0.2,0.8,0.1c0.6-0.1,1.1-0.5,1.4-1.1c0.8-1.8,0.8-1.8,2.1-0.2c0.1,0.1,0.1,0.1,0.2,0.2
	c1.5,2,2.3,2,5.2,1C42.3,74.9,42.2,73.6,42,72.1z M38.4,49.3c0.4,0,0.8,0,1.2,0s0.8,0.4,1.2,0c0.1-0.1,0.1-0.3,0-0.4
	c-0.3-0.4-0.9-0.5-1.3-0.3c-0.5,0.2-1.4-0.3-1.6,0.7c-0.4,0.1-1-0.2-1.2,0.4c-0.2,0.5,0.5,0.7,0.8,0.9c0.4,0.2,0.8,0.4,1.2,0.5
	c-0.2,0.4-0.7,0.5-1.1,0.8c-0.4,0.2-0.6,0.7-0.4,1.2c0,0.1,0.1,0.2,0.1,0.2c2.1,2.1,2.1,4.7,1.7,7.4c-0.1,0.5-0.4,1.2,0.2,1.5
	c0.8,0.3,1-0.6,1.4-1.1c0.1-0.1,0.1-0.4,0.2-0.6c0.9-2.6,1.1-5.4,0.6-8.1c-0.4-2.4-0.3-2.5-2.5-1.6C39.2,50.1,38.5,49.8,38.4,49.3z
	 M35.6,48.6c-0.5-1.7,0.1-3.5-0.8-5.4c-0.4,1.1,0,1.9-0.5,2.7c-0.3-0.5,0-1.3-0.6-1.7c0,1.9-0.6,3.9,0.4,5.7
	c-1.1,0.3-0.8-0.6-0.8-1.1c-0.1-1.6-0.2-3.2-0.3-4.8c0-0.5-0.1-1-0.7-1c-1.3,0-2.5,0.3-3.6,0.9c-2,1.5-4,3.1-5.7,4.9
	c-0.9,0.9-2.2,1.6-2.2,3.2c0,0.5-0.2,1.1,0.3,1.4c0.5,0.2,1.1,0.2,1.5-0.2c0.7-0.6,1.6-1,2.5-1.1c1.3-0.2,2.7-0.4,4-0.7
	c1.6-0.3,2.2,0.2,2.8,1.7c0.5,1.3,0.1,2.9,0.8,3.9c1,1.2,1.4,2.8,1.2,4.4c-0.1,0.9,0.3,1.1,1.1,1.1c1.3,0,2.3-1.3,2.4-3.2
	c0.2-2.5-1.1-4.3-2.8-5.8c-1-0.9-1.1-1.3,0.1-1.9c0.5-0.2,1-0.6,1.4-1c-0.4-0.5-1.1-0.4-1.6-0.8c0-0.4,0.3-0.5,0.7-0.6
	S35.9,48.9,35.6,48.6z M52.8,36.7c2-2.3,3.4-5.1,4-8.1c0.2-1,0.3-1.8-1.1-1.3c-0.4,0.1-0.8,0.1-1.2,0.1c-0.5,0-0.8,0.2-0.7,0.7
	c0.2,2.8-0.9,5.4-1.4,8.1c-0.1,0.3-0.6,0.8,0.2,0.8L52.8,36.7z M69.6,41.8c0-0.9,0.7-1.4,1.1-2.1c0.3-0.3,0.3-0.8,0-1.1
	c-0.3-0.3-0.6,0-0.9,0c-1.5,0.1-2.2,1.2-3.2,2.1c0.7,0.4,1.8,0.2,2.2,1.1c-1.3-0.6-2.8-0.4-4,0.4c-0.1,0.1-0.4,0.1-0.6,0.1
	c-1.6,0.3-2.7,1.7-2.4,3.3c0,0.1,0,0.2,0.1,0.4c0.2,1.2,0.7,2.3,1.5,3.2c0.9,0.9,1.9,2.1,3.4,1.6c1.5-0.7,2.9-1.7,4-3
	c0.3-0.3,0.4-0.9,0-0.9c-1.5,0.1-0.3-0.6-0.4-0.9c0-1.3-0.1-2.7-0.2-4C70.2,41.9,69.8,41.9,69.6,41.8L69.6,41.8z M97.7,5.1
	c0,0-0.2,0-0.3,0.1c-1.1,1.5-2.9,2-4.3,3c-0.8,0.6-0.7,1.1-0.3,1.9c1.8,2.9,3.4,5.9,5.1,8.9s3.5,5.8,5.3,8.8
	c0.4,0.6,0.7,1.2,1.6,0.6c3.1-2,6.3-4,9.5-5.9c0.6-0.2,0.9-0.9,0.6-1.5c0-0.1-0.1-0.2-0.1-0.3c-0.5-1-1-2.1-1.5-3.1
	c-0.3-0.7-0.8-1-1.5-0.5c-1,0.6-2.1,1-3.1,1.6c-1.2,0.7-2,0.4-2.4-0.8c-0.1-0.2-0.2-0.4-0.4-0.6c-2.4-3.8-4.9-7.7-7.4-11.5
	C98.3,5.4,98.3,5.1,97.7,5.1z M72.1,48.1c3.1-1.9,6-3.6,9-5.3c0.9-0.5,1-0.9,0.6-1.8c-0.6-1.1-1.2-2.3-1.8-3.4
	c-0.4-0.7-0.9-0.7-1.5-0.4c-0.9,0.5-1.7,1-2.6,1.5c-0.9,0.7-2.1,0.5-2.8-0.4c-0.2-0.2-0.3-0.5-0.3-0.7c0-0.2-0.1-0.5-0.2-0.7
	c-2.6-3.3-4.5-6.9-6.9-10.4c-0.3-0.7-1-1-1.7-0.7c-0.1,0-0.2,0.1-0.3,0.2c-1.3,0.8-2.6,1.6-3.9,2.5c-0.7,0.4-0.9,0.8-0.4,1.7
	c1.8,2.9,3.4,5.9,5.2,8.8c0.9,1.5,0.9,1.5,2.4,0.2c0.4-0.4,0.9-0.7,1.4-1.1c0.9-0.7,2.1-0.8,3.1-0.1c0.8,0.6,0.3,1.7,0,2.5
	c-0.1,0.3-0.4,0.5-0.3,1C71.3,43.7,71.6,45.8,72.1,48.1L72.1,48.1z M91.2,35.9c-0.1-0.2-0.2-0.3-0.3-0.6c-1.2-2.1-2.5-4.1-3.7-6.2
	c-1.4-2.4-2.8-4.8-4.2-7.2c-0.5-0.8-1-1.1-1.9-0.4s-2.1,1.3-3.1,2s-1.8,1.3-0.7,2.7c0.5,0.8,1,1.6,1.4,2.4c1.9,3.4,3.9,6.8,5.9,10.1
	c0.3,0.5,0.6,1.2,1.5,0.7c1.5-1,3-1.9,4.6-2.8C91,36.5,91.2,36.2,91.2,35.9L91.2,35.9z M45.1,57.3c0.2,0.5,0.2,1,0,1.5
	c-0.1,0.4-0.5,1,0.1,1.2s0.7-0.5,0.8-1c0.9-3.5,1.8-7.1,1.4-10.8c-0.1-1.5-0.6-2-1.9-1.2c-0.7,0.4-1.8-0.1-2.1,1.2
	c-0.1,0.3-0.5,0.1-0.8-0.3c-0.2-0.3-0.6-0.4-0.9-0.2c0,0,0,0-0.1,0c-0.3,0.2,0,0.5,0.1,0.8c0.7,3.6,1.5,7.1,0.4,10.8
	c-0.1,0.4-0.1,0.5,0.3,0.6c1.2,0.4,1.9,0,1.8-1.2C44.4,58.1,44.7,57.8,45.1,57.3z M29.8,62.5c0.8,0,1.3,0,1.9,0
	c0.4,0,0.8-0.2,0.9-0.6c0.8-2.1-1.7-5.6-4-5.5c-2.4,0.1-3.8,1.7-4.9,3.6c-0.5,0.9-1.1,1.8-0.3,2.7c0.8,0.9,2.2,1.1,3.2,0.4
	C27.6,62.6,28.7,62.4,29.8,62.5L29.8,62.5z M51.8,49.1c0.1-0.8-0.3-1-0.9-1c-0.3,0-0.6-0.1-0.9-0.2c-1.3-0.6-1.5,0-1.5,1.2
	c0.2,2.1,0,4.3-0.5,6.4c-0.4,1.3-0.7,2.6-1,3.9c-0.3,1.1,0.4,1.6,1.2,1.9s1-0.6,1.1-1.2c0.3-1.3,0.6-2.5,0.9-3.8
	C50.7,53.9,51.3,51.5,51.8,49.1L51.8,49.1z M26.2,53.4c-1.9,0-4.8,1.8-5.4,3.4c-0.4,1,0.4,1.4,0.9,2s1,0.1,1.2-0.3
	c0.9-1.5,2.2-2.7,3.8-3.4c0.5-0.2,0.5-0.8,0.4-1.3S26.5,53.5,26.2,53.4z M23,72.1c-0.4,0-0.4,0.5-0.5,0.7c-1,2-2,4.1-3.2,5.9
	s-1.5,4.4-3.7,5.7c-0.3,0.2-0.5,0.6-0.1,0.9s0.8,1.1,1.5,0.7c0.4-0.2,0.8-0.7,0.4-1.1c-0.7-0.8-0.1-1.3,0.3-1.9c2-3.2,3.9-6.5,6-9.7
	C24.2,72.5,23.5,72.4,23,72.1L23,72.1z M60.7,47.1c-0.6,0.2-0.7,0.6-0.7,1.1c0.2,1.9,1.6,3.5,3.5,4c0.3,0.1,0.6-0.1,0.8-0.4
	c0.2-0.4,0-0.6-0.2-0.8c-1.1-1-2.3-1.9-2.8-3.4C61.1,47.4,60.8,47.3,60.7,47.1L60.7,47.1z M31.5,56.1c0-0.9-0.1-1.7-0.2-2.5
	c-0.1-0.8-0.9-1.4-1.7-1.3c0,0,0,0-0.1,0c-1.1,0.2-1.2,1.3-1.4,2.2c-0.2,1.1,0.8,0.6,1.2,0.8C30.1,55.7,30.8,55.9,31.5,56.1
	L31.5,56.1z M40.8,42.4c0.4,1.4,0.7,2.5,0.9,3.5c0.2,0.8,1,1.3,1.8,1.1c0.7-0.2,1.2-0.8,1.2-1.5c0-1.3-0.4-2.5-1-3.7
	c-0.1,1.2,0.5,2.5-0.7,2.8S41.8,43.4,40.8,42.4z M40.9,46.8c-0.1-1.7-0.9-1.9-2.2-1.3c-0.5,0.2-0.9,0.3-1.4,0.5
	c-0.5,0.1-0.8,0.5-0.7,1c0,0,0,0.1,0,0.1c0.1,0.7,0.6,0.5,1,0.5C38.7,47.3,39.8,47,40.9,46.8L40.9,46.8z M47.2,40.6
	c-0.7,0.4-2-0.3-2.2,1.2c0,0.4-0.3,1.3,0.8,1.3s2.5-0.9,2.5-1.7S47.9,40.5,47.2,40.6L47.2,40.6z M48.7,43.4
	c-0.8,0.3-1.6,0.6-2.4,0.9s-0.5,0.8-0.5,1.3s0.5,0.3,0.8,0.3C48.8,45.7,48.8,45.7,48.7,43.4z M28.3,63.9c-2.4,1.2-3,2.9-1.8,4.2
	L28.3,63.9z M38,42.9c-0.8,0.2-2.3-0.5-1.6,1.3c0.4,1.2,1.2,0.2,1.7,0.1s1.8,0,1.7-0.8C39.8,42.4,38.6,43.1,38,42.9z M51.9,53.6
	c0.4-0.9,0.4-1.9,0-2.8C51.5,51.8,51.5,52.8,51.9,53.6L51.9,53.6z M24.5,69.7c-0.3,0-0.5,0.3-0.5,0.6c0,0.3,0.2,0.5,0.5,0.5
	c0.4,0,0.7-0.2,0.6-0.6S24.9,69.7,24.5,69.7z"/>
<path class="st1" d="M42.9,17.7c0-0.9-0.7-1.6-1.5-1.6c-0.2,0-0.4,0-0.5,0.1l0,0c-0.2-0.8-0.7-0.7-1.2-0.3c-1-0.1-1.9,0.1-2.7,0.7
	c-1.3,0.9-2.7,1.6-4.2,2.1c-2.5,1.2-4.9,2.6-6,5.5c-1.5,4.1-2.6,8.2-0.9,12.5V38l-0.6-0.1c-0.1,0-0.2-0.2-0.2-0.1s-0.1,0.2,0,0.4
	c1,1.3,2,2.7,2.8,4.1c-0.7-0.1-1.4-0.1-2.1,0.1c-2.3,0.7-4.2-0.4-6-1.7c0.1-0.9,0.1-1.8-1.2-1.6c-0.2-0.2-0.3-0.4-0.3-0.7L18,37.9
	L18,37.5c0-0.1,0-0.2-0.1-0.2c-0.3-0.5-0.5-1-0.5-1.5l-0.2-0.3L17,34.6c0.2-0.2,0.4-0.5,0.3-0.8c0-2.3,0-4.6-0.1-6.8h0.1h-0.1
	c1.2,0,1.3-0.8,1.3-1.7l0,0l0.3-0.3l0.1-0.3c1.2-0.3,0.9-0.9,0.4-1.6l0.2-2.1c0.2-0.2,0.2-0.5,0.1-0.8c-0.3-0.2-0.5-0.6-0.3-0.9
	c0.4-0.1,0.8-0.3,0.7-0.8c1.2-1.6,2.9-2,4.7-2.4c0.4,0.1,0.7-0.6,1.2-0.3c1,0.5,1.5,0,2-0.8l2.2-0.2c0.5,0.2,1,0.3,1.1-0.5
	c0.8-0.7,1.3-1.7,2.4-1.9c0.1,0.4-0.2,0.9,0.4,1.2c0.5-0.6,0.1-0.9-0.4-1.2c0.9-1.4,2.5-2,4.1-1.6c0.9,0.2,1.8,0.6,2.6,0.8
	c1.7,0.3,2.1,2,2.9,3.2c0.9,1.4,1.7,2.8,2.4,4.3l-0.3,0.5c-0.8-0.6-1.5-1.3-2.6-1.2l-0.4-0.2L42.9,17.7c0.1,0.1,0.1,0.4,0.3,0.1
	L42.9,17.7z M32.4,14.4c-0.2,0-0.4,0-0.5,0.3s0.2,0.3,0.4,0.3s0.3-0.1,0.4-0.2C32.8,14.5,32.6,14.5,32.4,14.4z"/>
<path class="st2" d="M124.3,34.5c-0.4,0.9,0.4,1.4,0.8,2s0.7,1.2-0.4,1.4c-0.7,0.2-1.4,0.5-2,1c-0.5,0.4-0.9,0.8-0.6,1.5
	s0.7,1.2,1.6,1.1c0.9-0.1,1.7-0.5,2.4-1.1c0.6-0.5,0.9-0.5,1.3,0.3c1.3,2.4,2.6,4.7,3.9,7c0.7,1.3,0.2,2.1-1.8,3.3
	c-4.4,2.6-8.7,2.3-13.1,0c-3.9-2.1-6.2-8.5-5-12.9c1-3.5,3.2-6.4,6.4-8.2c1.2-0.8,2.7-0.5,3.5,0.7c0,0,0,0,0,0
	c0.8,1.2,1.6,2.4,2.3,3.7C123.8,34.5,124,34.6,124.3,34.5L124.3,34.5z M123.1,51.4c1.9,0,3.7-0.5,5.3-1.5c0.8-0.6,1.9-1,0.9-2.5
	c-0.7-1.1-1.3-2.3-1.9-3.5c-0.7-1.2-1.1-1.6-2.6-1.2c-2.8,0.9-4.5-0.6-4.1-3.4c0.1-1.1,1-1.5,1.7-1.9s0.9-0.9,0.4-1.7
	c-0.7-1-1.3-2-1.8-3.1c-0.9-1.6-1.6-1.9-3.2-0.8c-3.3,2.4-5.4,5.9-5.2,9.9C112.8,46.6,117.5,51.2,123.1,51.4z"/>
<path class="st2" d="M89.6,61c1.7,2.8,3.3,5.5,5,8.1c0.5,0.8,0.3,1.9-0.5,2.4c-3.1,2.9-6.8,4.3-10.9,3.3c-3-0.7-5.3-3-7-5.7
	c-2.9-4.6-1.7-9.7,0.7-13c1.5-2.2,3.7-3.4,5.8-4.9c0.7-0.5,1.1-0.3,1.6,0.4c1.3,2.1,2.7,4.3,4,6.4c0.4,0.7,0.3,1-0.3,1.3
	c-0.9,0.5-1.8,1.2-2.4,2c-0.5,0.5-0.4,1.4,0.1,1.8c0,0,0,0,0.1,0c0.5,0.5,1.2,0.5,1.7,0.1C88.2,62.7,88.9,61.9,89.6,61z M86.2,73.6
	c2.3-0.2,4.5-1.1,6.3-2.6c0.6-0.4,0.8-1.2,0.5-1.8c0-0.1-0.1-0.1-0.1-0.2c-0.8-1.4-1.7-2.7-2.5-4.1c-0.2-0.7-1-1-1.7-0.8
	c-0.2,0.1-0.3,0.1-0.4,0.3c-1.5,1-3.2,0.8-4-0.4c-1-1.3-0.8-3.2,0.5-4.3c1.8-1.7,1.8-1.7,0.5-3.7c-0.1-0.2-0.3-0.4-0.4-0.6
	c-1.9-2.9-1.9-2.9-4.6-0.7c-2.3,1.8-3.8,4.3-4.2,7.1c-0.8,5.6,3,10.7,8.6,11.5C85.2,73.6,85.7,73.6,86.2,73.6L86.2,73.6z"/>
<path class="st2" d="M93,46.8c0.7,0.3,0.9-0.3,1.2-0.7c0.8-1,1.8-1.9,2.8-2.6c0.5-0.4,0.8-0.4,1.1,0.2c1.2,2.1,2.5,4.2,3.7,6.3
	c0.5,0.8,0.6,1.2-0.6,1.4c-2.1,0.4-2.9,2.4-1.9,4.3c1.5,2.8,3.1,5.4,4.9,8c0.6,0.8,0.3,1.2-0.3,1.6c-2.2,1.4-4.4,2.8-6.6,4.2
	c-0.9,0.6-1.2,0.3-1.7-0.5c-3.2-5.7-6.5-11.3-9.8-16.9c-0.4-0.6-0.3-1,0.3-1.5c2-1.3,3.9-2.6,5.8-3.9C92.4,46.7,92.7,46.5,93,46.8z
	 M97,67.9c0.2,0,0.3,0,0.5-0.1c1.7-1,3.4-2.1,5.1-3.1c0.5-0.3,0.2-0.6,0-1c-1.4-2.4-3.1-4.5-4.3-7.1s-1.2-3.8,1-5.9
	c0.4-0.4,0.8-0.9,0.5-1.4c-0.4-1.2-1-2.3-1.8-3.3c-0.4-0.5-0.8-0.6-1.5-0.1c-0.9,0.8-1.5,1.9-1.6,3.1c-0.1,0.7-0.6,1.1-1.1,0.5
	c-1-1.2-1.8-0.8-2.8,0c-0.6,0.5-1.3,0.9-2,1.3c-1.3,0.6-1.3,1.5-0.6,2.6c1.2,1.7,2.2,3.5,3.2,5.3c1.5,2.9,3.1,5.7,4.8,8.5
	C96.6,67.5,96.6,68,97,67.9L97,67.9z"/>
<path class="st2" d="M106.1,37.9c0.4,0,0.5,0.4,0.7,0.7c3.6,5.9,7.3,11.9,10.9,17.9c0.3,0.6,0.2,0.9-0.3,1.2
	c-2.4,1.5-4.7,2.9-7.1,4.5c-0.9,0.6-1.1-0.2-1.3-0.6c-1.6-2.9-3.3-5.7-4.9-8.6c-1.7-3-3.4-6-5.1-9c-0.5-0.8-0.5-1.3,0.5-1.8
	c2-1.1,4-2.4,6-3.7L106.1,37.9z M116.1,56.4c-0.5-0.8-1.1-1.7-1.7-2.6c-2.8-4.2-5.3-8.7-8-12.9c-0.5-0.9-1-0.9-1.7-0.5
	c-1.2,0.7-2.3,1.5-3.5,2.2c-0.8,0.5-0.8,0.9-0.3,1.7c1.1,1.7,2,3.5,3,5.3c1.8,3.2,3.6,6.4,5.4,9.6c0.5,0.9,1,1.1,2,0.4
	c1.5-0.9,2.8-2.1,4.5-2.6C116,56.9,116.1,56.7,116.1,56.4z"/>
<path class="st1" d="M75.6,12.5l0.5-0.2l0.7-0.1c1.4-0.4,2.9,0.3,3.5,1.7c0.8,1.4-0.1,2.8-0.7,4c-1.1,2-5.3,3.7-7.6,3.2
	c-1.9-0.4-2.8-3.1-1.5-4.9c1.1-1.7,2.7-2.9,4.6-3.5L75.6,12.5z"/>
<path class="st2" d="M154.4,75.2c-1.1,0.9-2.7,1.1-4,0.4c-2.6-1.1-3.8-4.2-2.7-6.8c0.9-2.1,3.2-3.4,5.5-3.1c1.8,0.2,3.7,2.3,4.1,4.5
	C157.5,72.2,156.4,74.3,154.4,75.2c0-1-0.4-1.4-1.5-1.3s-2.5,0.6-3.2-1c-0.1-0.1-0.6-0.1-0.9-0.1c-0.1-1.1,0.2-2.3-0.4-3.4
	c0,1.1-0.9,2.4,0.4,3.4c0.5,1.7,2.2,2.7,3.9,2.4C153.4,75.1,153.9,75.2,154.4,75.2z M154.6,70.5c-0.1-1.3-1.1-2.3-2.4-2.4
	c-1.3,0.2-2.3,1.2-2.4,2.5c-0.1,1.4,1,2.5,2.3,2.6C153.6,73.2,154.7,72,154.6,70.5C154.6,70.6,154.6,70.6,154.6,70.5z M155.5,70.9
	c0.2,0.6-0.3,1.5,0.4,1.5s0.9-0.8,0.8-1.5s-0.2-1.6-0.8-1.6C155.1,69.4,155.8,70.4,155.5,70.9L155.5,70.9z M150.4,67
	c1.2,0.4,2.5,0.4,3.8,0C152.9,66.6,151.6,66.6,150.4,67L150.4,67z"/>
<path class="st2" d="M166.2,75.5c-2.7,0.4-2.7,0.4-3.9-1.7c-0.2-0.3-0.3-0.9-0.8-0.7s-0.3,0.6-0.2,0.9c0.1,1.1-0.1,1.8-1.5,1.7
	c-0.8-0.1-1-0.3-1-1.1c0-2.6,0-5.1,0-7.6c0-0.8,0.2-1.2,1.1-1.1s2.1,0,3.1,0.1c1.2,0.1,2.2,1,2.3,2.1c0.2,1.2,0.1,2.4-1,3.1
	s-0.5,0.9-0.2,1.4C164.8,73.5,165.4,74.4,166.2,75.5z M163.9,67.3c-0.2,0.4-0.4,0.8-0.5,1.2c-0.1,0.4,0.3,0.7,0.6,0.9
	s0.5,0.1,0.5-0.1C164.5,68.6,165,67.7,163.9,67.3c-0.7-0.8-3.5-0.9-4.8,0L163.9,67.3z M161.1,68.9c0.3,0.4-0.4,1.2,0.6,1.1
	c0.6,0,1-0.4,1.1-0.9c0,0,0,0,0-0.1c0-0.8-0.4-1-1.1-1.1C160.8,67.9,161.4,68.6,161.1,68.9z M160.1,69.6c-0.6,0.6-1.2,0.9-0.9,1.6
	c0.1,0.2,0.4,0.3,0.6,0.2c0,0,0,0,0,0C160.6,71.1,160.3,70.5,160.1,69.6L160.1,69.6z"/>
<path class="st2" d="M171.2,58.1c0.3,2.9-2.4,5.1-5.1,5.1c-2.9-0.2-5-2.7-4.8-5.6c0.2-2.6,2.2-4.6,4.8-4.8
	C169.1,52.7,171.2,55,171.2,58.1z M167.5,60.6c0.3,0.5-0.6,0.8-0.2,1.2c0.4,0.3,0.9,0.3,1.3,0c1.2-0.7,1.9-2,2-3.3
	c-0.1-1.5-0.7-2.9-1.9-3.8c-0.2-0.2-0.6-0.7-1-0.2s0,0.8,0.4,1c0.1,0.2,0.3,0.3,0.4,0.4c1,0.7,1.3,2,0.8,3.1
	C169,59.6,169,61,167.5,60.6c0-0.6,0.7-0.7,0.9-1.2c0.5-0.9,0.5-2,0-2.8c-0.5-0.9-1.4-1.3-2.4-1.2c-1,0.2-1.8,0.9-2,1.8
	C163.3,59.2,164.9,60.8,167.5,60.6L167.5,60.6z M164.8,54c-2.5,1.4-3.1,3.1-2.2,5.7C163.5,57.8,163.7,55.9,164.8,54L164.8,54z
	 M165.1,61.3c0-0.8-0.9-0.5-1.3-1c-0.2-0.3-0.5,0-0.5,0.3c0,0.6,0.5,1.1,1.1,1.2C164.8,61.9,165.1,61.7,165.1,61.3L165.1,61.3z"/>
<path class="st2" d="M159.2,61.3c-1.5,2-4.3,2.5-6.4,1.2c-2.2-1.5-3-4.3-1.9-6.8c1.1-2.5,4-3.6,6.5-2.5c1.2,0.5,2.1,1.5,2.6,2.7
	C160.8,57.7,160.5,59.8,159.2,61.3c0-1.2,0.9-2.3,0.6-3.6c-0.1-0.4,0.1-0.9-0.4-1.2c-0.2-0.1-0.5-0.1-0.7,0.2
	c-0.3,0.4-0.3,0.9,0,1.3c0.8,0.9,0.2,1.4-0.4,2c-0.4,0.4-0.9,0.7-1,1.3h-1.9c-1.9-0.1-3.4-1.6-3.4-3.5c-0.1-1.1,1.4-2.8,2.6-3.1
	c0.3-0.1,0.9,0.1,0.6-0.5c-0.1-0.4-0.4-0.7-1.1-0.4c-1.3,0.6-2.5,1.4-2.8,2.8c-0.5,1.9,0.3,3.9,1.9,5c1.8,1.3,3.2,1.2,4.1-0.3H159.2
	z M155.3,60.7c1.5,0.2,2.8-0.9,3-2.3c0.2-1.5-0.9-2.8-2.3-3c-1.5-0.2-2.8,0.9-3,2.3c0,0.1,0,0.1,0,0.2
	C152.9,59.3,153.9,60.5,155.3,60.7z M158.3,56c0.3-1.2-0.2-1.6-0.9-1.9c-0.2-0.1-0.5,0-0.6,0.2c0,0.1,0,0.1-0.1,0.2
	C156.7,55.6,158,55.1,158.3,56L158.3,56z"/>
<path class="st2" d="M136,75.8c-0.7-0.1-1.3-0.2-2-0.3c-0.5-0.2-1.4-0.5-0.9-1.3c0.3-0.5,0.2-2,1.6-1c0.5,0.3,1.6,0.5,1.9-0.2
	c0.3-0.8-0.5-1.3-1.3-1.4c-2.4-0.4-2.8-3.1-1.4-4.8c1.3-1.3,3.3-1.4,4.8-0.4c0.7,0.5,0,0.9-0.1,1.3c-0.2,0.7-0.6,0.7-1.3,0.4
	c-0.4-0.2-1.1-0.6-1.3,0.2c-0.2,0.7,0.2,1.1,1,1.2c0.1,0,0.2,0.1,0.3,0.1c1.9,0.9,2.5,1.9,2.1,3.9C138.9,75,137.5,75.9,136,75.8z
	 M135.5,75.1c1.6,0.1,3-1.2,3-2.8c0-0.2,0-0.4,0-0.6c-0.1-0.5-0.5-0.9-1-0.8c0,0-0.1,0-0.1,0c-0.7,0.2,0,0.6,0,0.9
	c0.4,0.9,0,1.9-0.9,2.3c-0.1,0-0.2,0.1-0.3,0.1c-0.6,0.1-0.8-0.5-1.4-0.4c-0.4,0.1-0.9,0-0.9,0.6s0.4,0.6,0.8,0.6L135.5,75.1z
	 M136,70.9l0.4-0.5l-1.6-1.4c-0.2-0.2-0.4-0.4-0.6-0.2c-0.1,0.2-0.2,0.3-0.1,0.5C134,70.7,135.2,70.5,136,70.9L136,70.9z"/>
<path class="st1" d="M147.4,59.1c-0.3,0.1-0.6,0-0.8,0.4c-0.2,1.1-0.2,2.1-0.1,3.2l0,0l-1.8,0.1c-0.6,0-0.5-0.5-0.5-0.9
	c0-2.6,0-5.2,0-7.8c0-0.6,0-1.1,0.9-1c0.1,0.1,0.2,0.1,0.3,0h0.6c0.2,0.3,0.4,0.3,0.6,0h0.9c0.3,0.3,0.8,0.4,1.1,0.1
	c0,0,0,0,0.1-0.1h0.6c0.1,0.7-0.2,1.4-0.6,2l-1.8,0.1c-0.4,0.3-0.5,1-0.2,1.4c0,0,0,0.1,0.1,0.1l0.1,0.1c0.5,0.3,1.2,0.4,1.8,0.1
	c0.4-0.1,0.7-0.1,0.6,0.4C149.2,58.3,148.4,59.1,147.4,59.1z"/>
<path class="st2" d="M142.1,71.8c0-0.6,0-1.3,0-1.9c0-0.8,0.4-1.9-1.2-1.7c-0.6,0.1-0.9-0.4-0.7-1.3c0.2-0.6,0.1-1.1,1-1.1
	c1.5,0.1,3,0,4.5,0c0.8,0,1,0.3,0.9,1s0.2,1.3-0.8,1.2s-1.1,0.5-1.1,1.3c0,1.6,0,3.3,0,4.9c0,0.9-0.1,1.4-1.3,1.4s-1.4-0.5-1.4-1.5
	C142.2,73.4,142.1,72.6,142.1,71.8z M143.5,68.1h-0.5c0,2.1,0,4.3,0,6.4c0,0.4,0.3,0.6,0.7,0.5c0.3-0.1,0.5-0.3,0.4-0.6
	c0-0.1-0.1-0.2-0.2-0.3c-0.5-0.5-0.6-1.2-0.3-1.8C144.8,70.7,143,69.5,143.5,68.1L143.5,68.1z"/>
<path class="st1" d="M169.7,68.3c0.2,0.5-0.2,1.2,0.6,1.4c0,0.9,1.6,0.9,1.2,2.1c-0.6,0.2-1.2-0.1-1.8,0.3c-0.4,0-0.9,0-0.9,0.6
	s0.5,0.5,1,0.5c0.1,0,0.2,0,0.2,0.1c0.1,0.6,0.6,0.5,1,0.6s0.7,0.1,0.7,0.6s-0.4,0.6-0.8,0.6c-0.7,0-1.4,0-2.1,0
	c-1,0.1-1.3-0.4-1.3-1.3c0.1-1.5,0.1-3.1,0-4.6c-0.1-1.4,0.1-2.2,1.7-2.8c2-0.6,2.5-0.5,2.6,1.5c-0.5,0.1-1.1,0.1-1.6,0
	C169.9,67.9,169.7,68,169.7,68.3z"/>
<path class="st2" d="M47.2,81.5c2,0.5,3.2-1.3,4.9-1.8c0.3-0.1,0.7-0.3,1-0.3c0.7-0.1,1.7,0.4,2-0.4c0.3-1,0.2-2.1-0.1-3.1
	c-0.4-1.5-0.7-3.1-1-4.7c1.5,1.2,1.4,3,1.7,4.7c0.2,1.1,0.1,2.3,0.2,3.4c0.1,0.7-0.3,0.8-0.8,0.8c-2,0.4-3.9,1.2-5.6,2.3
	C48.4,83,48,81.9,47.2,81.5z"/>
<path class="st2" d="M27.9,15c-0.4,0.8-1,1.3-2,0.8c-0.6-0.3-0.8,0.4-1.2,0.3c-0.8,0-0.2-0.9-0.7-1.1c0.7-0.7,0-2.5,1.8-2.4
	l-0.5,0.9c1-0.3,1.2-1.4,2-1.8C28.8,13.8,28.8,13.8,27.9,15z"/>
<path class="st2" d="M171.8,67.9c0-2-0.6-2.2-2.6-1.5c-1.6,0.5-1.8,1.4-1.7,2.8c0.1,1.5,0.1,3.1,0,4.6c0,0.9,0.2,1.4,1.3,1.3
	c0.7-0.1,1.4,0,2.1,0c0.4,0,0.8-0.1,0.8-0.6s-0.3-0.6-0.7-0.6s-0.9,0.1-1-0.6c0.4,0,0.8,0,1.2,0c0.8-0.1,1.3,0,1.3,1.1
	c-0.1,0.9-0.1,1.4-1.2,1.3c-0.9-0.1-1.9-0.1-2.9,0c-0.8,0-1.2-0.2-1.2-1.1c0-2.5,0-5.1,0-7.6c0-0.9,0.3-1.1,1.1-1.1
	c1,0.1,2.1,0,3.1,0c0.4,0,1-0.1,0.9,0.5S173,67.8,171.8,67.9z"/>
<path class="st1" d="M83.5,18.8c-0.2-0.7-0.7-1.5,0.9-1c1.2,0.3,2.7,0.8,3.9-0.4h1.5c0.1,0.5,0.1,1.1-0.1,1.6h-0.1v0.1h-3.1
	c-0.3-0.3-0.8-0.3-1.1,0H84L83.5,18.8z"/>
<path class="st1" d="M177.1,67.9c-1.4-0.1-1.4,0.6-0.9,1.6c0.1,0.3,0.2,0.5,0.4,0.8l0,0c-1.1,0-1.8-0.4-1.8-1.5s0.9-1.7,1.8-2.1
	c0.3-0.1,0.6-0.1,0.9,0c0.5,0.1,1.4-0.3,1.4,0.6s-0.9-0.4-1.2,0.3L177.1,67.9z"/>
<path class="st1" d="M54,57.9c1.3-0.4,2.6-0.4,3.9,0.1C56.6,58.9,55.3,58.5,54,57.9z"/>
<path class="st2" d="M171.5,71.8c0.4-1.2-1.2-1.2-1.2-2.1c1.8-0.2,2.4,0.3,1.9,1.8C172.1,71.8,171.8,71.9,171.5,71.8z"/>
<path class="st2" d="M169.8,73.2c-0.4,0-0.9,0.1-1-0.5s0.5-0.6,0.9-0.6L169.8,73.2z"/>
<path class="st2" d="M146.5,62.7c-0.1-1.1,0-2.2,0.1-3.2C146.9,60.6,146.8,61.7,146.5,62.7z"/>
<path class="st2" d="M147.4,59.1c0.9,0,1.7-0.8,1.7-1.7C149.4,59.2,149.4,59.2,147.4,59.1z"/>
<path class="st2" d="M148.6,55.2c0.4-0.6,0.7-1.3,0.6-2C149.8,54.7,149.7,55.1,148.6,55.2z"/>
<path class="st2" d="M148.6,56.9c-0.6,0.3-1.2,0.2-1.8-0.1L148.6,56.9z"/>
<path class="st2" d="M144.7,62.8l1.8-0.1C145.9,63,145.3,63,144.7,62.8z"/>
<path class="st2" d="M31.1,14.3c-0.1,0.8-0.6,0.7-1.1,0.5L31.1,14.3z"/>
<path class="st2" d="M146.8,56.8c-0.4-0.4-0.4-1,0-1.4c0,0,0,0,0.1-0.1L146.8,56.8z"/>
<path class="st2" d="M148.6,53.2c-0.3,0.3-0.8,0.4-1.1,0.1c0,0,0,0-0.1-0.1H148.6z"/>
<path class="st2" d="M45.6,80.9c0.3-0.5,0.5-0.3,0.6,0.2C46,81.1,45.7,81.1,45.6,80.9z"/>
<path class="st3" d="M85.3,19.1c0.3-0.3,0.8-0.3,1.1,0C86,19.2,85.7,19.2,85.3,19.1z"/>
<path class="st2" d="M76.8,12.2l-0.7,0.1C76.3,12.2,76.5,12,76.8,12.2z"/>
<path class="st2" d="M75.6,12.5l-0.5,0.1L75.6,12.5z"/>
<path class="st2" d="M146.5,53.2c-0.2,0.3-0.4,0.3-0.6,0H146.5z"/>
<path class="st3" d="M83.5,18.8l0.5,0.3c-0.2,0.1-0.4,0.1-0.5-0.1c0,0,0,0,0,0C83.5,19,83.5,18.9,83.5,18.8z"/>
<path class="st2" d="M145.3,53.2c-0.1,0.1-0.2,0.1-0.3,0H145.3z"/>
<path class="st2" d="M169.7,68.3c0-0.2,0.2-0.3,0.4-0.3L169.7,68.3z"/>
<polygon class="st3" points="89.5,19 89.6,19 89.6,19 89.6,19.1 "/>
<path class="st4" d="M25.2,37.9l0.6,0.1c1.6,0.6,2.7-0.4,3.7-1.4s1.3-0.6,1.7,0.3c0.7,1.5,1.4,3.1,2.2,4.7c-1.3-0.1-2.5,0.2-3.7,0.7
	c-0.6,0.3-1.3,0.2-1.7-0.2l0,0C27,40.8,26,39.4,25,38.1C25.1,38.1,25.2,38,25.2,37.9z"/>
<path class="st2" d="M20,18.5c0.1,0.5-0.3,0.7-0.7,0.8c-0.2,2.9-1.3,5.7-3.2,8c-1.4,1.9-0.5,4-0.1,6.1c0.1,0.3,0.3,0.6,0,1.1
	c-2-0.7-4-1.6-5.9-2.7c1.4-0.3,2.6,0.4,3.8,0.8s0.8-0.1,1-0.7c0.2-1.1-0.6-2.1-0.1-3.3c0.2-0.7,0.5-1.3,0.8-1.9
	c1.5-2.1,2.4-4.6,2.4-7.2c0-0.8,0.3-1.8,1.5-1.7l-0.3,0.8H20z"/>
<path class="st2" d="M17.2,26.9c0,2.3,0,4.6,0.1,6.8c0,0.3-0.1,0.6-0.3,0.8C16,32,15.6,29.4,17.2,26.9z"/>
<path class="st2" d="M40.8,91.9c0.1-0.4,0.4-0.5,0.8-0.5c2.2,0,4.4,0,6.5,0c0.2,0,0.3,0.2,0.5,0.3C46,91.1,43.4,92,40.8,91.9z"/>
<path class="st2" d="M36.2,85.3c0.6,1.2,0.6,2.7,0.1,3.9C35.6,88,35.5,86.5,36.2,85.3z"/>
<path class="st1" d="M20.3,50.1c-0.2,1.1,0.6,2.4-0.5,3.4C19.7,52.3,19.4,51.1,20.3,50.1z"/>
<path class="st2" d="M18.5,39c1.3-0.2,1.3,0.7,1.2,1.6C19.1,40.3,18.6,39.7,18.5,39z"/>
<path class="st2" d="M37.2,82.6c-0.2,0.7,0.7,1.9-0.8,2.1C36.4,83.9,36.6,83.2,37.2,82.6z"/>
<path class="st2" d="M18.5,25.2c0,0.9-0.1,1.7-1.3,1.7C17.5,26.3,18,25.7,18.5,25.2z"/>
<path class="st2" d="M19.3,23.1c0.6,0.7,0.9,1.3-0.4,1.6L19.3,23.1z"/>
<path class="st2" d="M7.4,30.6c0.5,0.1,1.3-0.4,1.5,0.6C8.4,31.2,7.8,31,7.4,30.6z"/>
<path class="st2" d="M8.9,31.3c0.5,0,1.1-0.2,1.3,0.6C9.7,31.8,9.2,31.6,8.9,31.3z"/>
<path class="st2" d="M5.9,30c0.5,0,1-0.2,1.2,0.5C6.7,30.4,6.3,30.4,5.9,30z"/>
<path class="st2" d="M5.3,29.7c0.5-0.4,0.5,0,0.6,0.3C5.7,30.1,5.5,29.9,5.3,29.7z"/>
<path class="st2" d="M39,91.3l0.5,0.1c0,0.1-0.1,0.3-0.1,0.3C39.1,91.8,39.2,91.4,39,91.3z"/>
<path class="st2" d="M48.6,91.6c0.3,0,0.6-0.1,0.8,0.2C49.2,91.7,48.8,92.1,48.6,91.6z"/>
<path class="st2" d="M19.6,20.2c0.2,0.3,0.1,0.6-0.1,0.8C19.5,20.7,19.4,20.4,19.6,20.2z"/>
<path class="st2" d="M18,37.8l0.2,0.5L18,37.8z"/>
<path class="st2" d="M18.8,24.9l-0.3,0.3L18.8,24.9z"/>
<path class="st2" d="M17.9,37.3c0.1,0.1,0.1,0.1,0.1,0.2L17.9,37.3z"/>
<path class="st2" d="M17.2,35.4l0.2,0.3L17.2,35.4z"/>
<path class="st2" d="M39.9,91.6l0.3,0.2C40,91.9,39.9,91.8,39.9,91.6z"/>
<path class="st0" d="M20,18.5h-0.7l0.3-0.8l0.3-0.3c0.6-0.2,1.2-0.6,1.8-1l0.6-0.3c0.8-0.1,1.4-0.5,1.8-1.2l0,0
	c0.5,0.2-0.1,1.1,0.7,1.1C22.9,16.5,21.1,16.9,20,18.5z"/>
<path class="st2" d="M24,15c-0.3,0.7-1,1.1-1.8,1.2C22.3,15.4,23.1,14.9,24,15C23.9,15,23.9,15,24,15z"/>
<path class="st2" d="M21.6,16.5c-0.5,0.4-1.1,0.8-1.8,1C20.1,16.5,20.7,16.3,21.6,16.5z"/>
<path class="st5" d="M136.2,36.7c0.4,1.8,1.7,3.1,2.7,4.4c0.8,1.1,0.6,1.6-0.4,2.2c-1.4,0.8-2.7,1.7-4.1,2.6
	c-0.8,0.6-1.4,0.1-1.7-0.5c-2-3.4-4.1-6.9-6-10.4c-1.5-2.7-2.8-5.4-4.5-8c-0.7-1.1-0.5-1.8,0.6-2.4s2.3-1.2,3.4-1.8s1.8-0.5,2.4,0.7
	c1.1,1.9,2.4,3.6,3.7,5.6c0.6-0.8,0.9-1.7,1-2.7c-0.1-1.6,0.8-3,2.3-3.7c1.4-0.8,2.8-1.6,4.2-2.6c0.8-0.5,0.8-0.1,0.8,0.5
	c0,0.7-0.1,1.4-0.2,2.1c-0.6,2-0.3,4.2-0.8,6.2c-0.2,0.8,0.4,1.3,1.3,1.6c3.7,1.1,7.4,2.3,11,3.7c0.3,0.1,0.7,0.1,0.6,0.4
	c-0.1,0.3-0.3,0.5-0.6,0.6c-2.1,1.1-4.1,2.2-6,3.5c-0.9,0.5-2.1,0.5-3,0c-1.9-0.7-3.9-1.3-5.8-2C136.9,36.7,136.6,36.7,136.2,36.7z"
	/>
<path class="st5" d="M143.4,23c-0.3-4.3,2.4-8.2,6.5-9.6c2.4-0.7,4.9-0.4,7.1,0.8c2.3,1.1,3,3.4,4.4,5.2c0.5,0.7-0.3,1.1-0.8,1.4
	c-2.7,1.8-5.4,3.5-8.1,5.3c-0.6,0.4-1.6,0.6-1.4,1.5c0.3,0.9,1,1.7,2,1.9c2.7,0.8,4,0,4.8-2.7c0.3-0.9,1.2-1.2,2-1.6s1.7-1.5,2.4-1
	s-0.1,1.7-0.2,2.6c-0.6,4.1-4.3,6.9-8.4,6.3c-0.8-0.1-1.6-0.3-2.3-0.7c-1.1-0.6-2.4-1-3.6-1.3c-2.4-0.3-3.3-2-3.8-4.1
	C143.7,25.7,143.5,24.3,143.4,23z M153.1,17.4c-2.1-0.2-3.9,1.4-4.1,3.5c-0.1,0.7,0.1,1.5,0.5,2.2c0.3,0.7,0.6,0.9,1.3,0.4
	c1.4-0.9,2.8-1.7,4.2-2.6s1.4-1.7,0.2-2.8C154.6,17.6,153.9,17.3,153.1,17.4z"/>
<path class="st5" d="M169.2,23.8c-0.9,0-1.8-0.3-2.6-0.9c-1.5-1.3-2.7-2.8-3.7-4.5c-0.7-1.2-1.4-2.3-2.3-3.3
	c-1.9-2.6-3.3-5.4-4.9-8.1c-0.4-0.7,0.1-1.1,0.5-1.3c1.2-0.6,2.3-1.3,3.4-2.2c1.2-0.8,2-0.6,2.7,0.6c0.9,1.6,1.7,1.7,3.1,0.5
	c1.7-1.3,2.2-1.3,3.5,0.6c0.7,1,1.4,2.1,2,3.2c0.4,0.8,0.6,1.4-0.5,1.9c-0.8,0.4-1.5,0.8-2.1,1.4c-0.5,0.4-0.9,0.8-0.4,1.5
	c0.2,0.4,0.4,0.9,0.6,1.4c1.1,2,2.7,2.5,4.7,1.4c0.2-0.1,0.3-0.2,0.5-0.3c2-1.4,2.4-1.3,3.4,0.9c0.3,0.6,0.7,1.2,1.2,1.7
	c0.4,0.5,0.5,0.9-0.2,1.3c-2.1,1.2-4.1,2.8-6.4,3.8C170.9,23.5,170.1,23.7,169.2,23.8z"/>
<path class="st0" d="M141.2,27c0-0.9-0.4-2.3,0.5-2.4s0.5,1.5,0.8,2.2c0.2,0.4,0.1,0.8,0.3,1.2s0.6,0.9,0.2,1.3s-0.9-0.1-1.3-0.2
	c-0.4-0.1-0.8-0.5-0.7-0.9c0-0.1,0-0.1,0.1-0.2C141.2,27.7,141.2,27.3,141.2,27z"/>
<path class="st0" d="M156,25.7c0.4,0.8,0.8,1.6,0,2.2s-1.8,0.4-2.8-0.2C154,26.8,155,26.2,156,25.7z"/>
<path class="st5" d="M42,72.1c0.2,1.5,0.3,2.8-1.6,3.4c-3,1-3.7,0.9-5.2-1c-0.1-0.1-0.1-0.1-0.2-0.2c-1.2-1.6-1.2-1.6-2.1,0.2
	c-0.3,0.5-0.8,0.9-1.4,1c-0.3,0.1-0.6,0.1-0.8-0.1s0-0.6,0.1-0.8c1.8-2.9,1.2-5.9,0.5-8.9c-0.2-0.9-0.2-1.3,1-1.4
	c2.2-0.3,4.5-0.3,6.7-0.4c1.3,0,2.6-0.7,3.1-1.9c0.1-0.4,0.5-0.8,1-0.7c0.6,0,1.3,0,1.9,0.1c0.9,0.3,2.1,0.7,2.2,1.6s-1.2,1-1.9,1.4
	c-0.7,0.4-1.6,0.2-1.5,1.3c-0.2,0.3-0.5,0.6-0.5,0.9c0.2,1.2-0.6,2.2-1.8,2.4c-0.1,0-0.2,0-0.3,0c-0.6,0.1-0.6,0.6-0.4,1
	C41.2,70.6,41.6,71.3,42,72.1z"/>
<path class="st0" d="M39,81.4c-0.8-0.8,0.3-0.7,0.5-1.1l-1.4-0.8c0.9-0.9,2.1-0.9,3.3-1.2c0.6,0.4,1.4-0.5,1.8,0.3
	c-0.2,0.5-0.2,1.1-0.1,1.7l0,0c-0.5,1.2-1.7,0.8-2.6,1H39z"/>
<path class="st4" d="M41.4,78.3c-1.1,0.3-2.4,0.2-3.3,1.2c-1.2-1.5-0.9-2.4,0.8-2.7c1-0.3,2.1-0.6,3.1-1c0.7-0.2,0.8,0.3,0.9,0.8
	c0.1,0.4,0,0.9-0.4,1.1C42.1,77.9,41.8,78.1,41.4,78.3z"/>
<path class="st4" d="M56.1,86.7c-0.2,3.9-2.3,4.8-5.8,2.7C52.4,89.1,54.5,88.2,56.1,86.7z"/>
<path class="st4" d="M44.9,72.1c-0.1-0.7-0.2-1.5-0.3-2.2c-0.1-0.6,0.1-0.7,0.6-0.8s0.7,0,0.8,0.5c0.4,1.5,0.7,3,0.8,4.5
	c0,0.4,0.4,0.9-0.2,1s-1.2,0.2-1.4-0.7C45.3,73.7,45.2,72.9,44.9,72.1z"/>
<path class="st4" d="M44.7,75.1c-0.8,0.1-1.3,0.2-1.3-0.9c-0.1-1.2-0.5-2.4-1.1-3.5c-0.1-0.3-0.8-0.8,0.2-1c0.5-0.1,0.9-0.3,1.2,0.4
	c0.4,0.6,0.6,1.3,0.8,2.1C44.6,73.1,44.7,74.1,44.7,75.1z"/>
<path class="st4" d="M50.9,71.7c1.5,0.4,2.5,1.8,2.4,3.3c-0.1,0.3-0.1,0.8-0.4,0.9s-0.7-0.3-0.8-0.7c-0.2-0.6-0.3-1.2-0.5-1.8
	S51.1,72.3,50.9,71.7z"/>
<path class="st2" d="M40.5,81.4c0.9-0.2,2.1,0.2,2.6-1c0.1,0.5,0.2,1.1-0.5,1.3S41.1,82.3,40.5,81.4z"/>
<path class="st2" d="M44.7,75.1c0-1,0-2-0.2-3h0.4c0.3,0.8,0.4,1.6,0.3,2.4L44.7,75.1z"/>
<path class="st2" d="M43.1,80.4c-0.1-0.6-0.1-1.2,0.1-1.7C44,79.3,44.3,79.9,43.1,80.4z"/>
<path class="st0" d="M175,57.8c0-0.2,0-0.5,0-0.8c0.1-0.6-0.4-1.5,0.4-1.7c0.9-0.1,1.7,0.2,2.2,1c0.7,1,0.6,2.4-0.2,3.4
	c-0.5,0.6-1.2,0.9-2,0.8c-0.8-0.2-0.3-1-0.4-1.5C174.9,58.6,174.9,58.2,175,57.8z"/>
<path class="st1" d="M174.9,61.6c-1.5,0.5-2,0.2-2-1.1c0.1-1.5,0-2.9,0-4.6c1.1,0.3,1.6,1.4,1.3,2.5c-0.1,0.2-0.1,0.3-0.2,0.5
	C173.4,60.1,173.8,60.8,174.9,61.6z"/>
<path class="st1" d="M178.6,58.7c0.9,1.4,0,2.1-0.4,2.8s-1.3,0.2-2,0.1C177.4,61.1,178.2,60,178.6,58.7z"/>
<path class="st1" d="M177,54.8c1.7,0,2.1,0.5,1.7,2.2C178.3,56.2,177.8,55.5,177,54.8z"/>
<path class="st1" d="M178.8,72.8c0.4,1,0.1,1.8-0.6,2.1c-0.9,0.5-2.1,0.4-2.9-0.3c-0.2-0.1-0.5-0.3-0.2-0.6c0.2-0.2,0.5-0.2,0.7-0.1
	C177.2,75.1,177.8,73.7,178.8,72.8z"/>
<path class="st1" d="M176.6,70.3c0.9,0,1.8-0.1,2.3,0.9c0.1,0.2,0.1,0.4,0,0.6c-0.1,0.2-0.3,0.2-0.5,0.1
	C177.7,71.4,176.7,71.3,176.6,70.3L176.6,70.3z"/>
<path class="st3" d="M25.8,36.7c-1.7-4.3-0.6-8.4,0.9-12.5c1.1-2.9,3.4-4.3,6-5.5c1.5-0.5,2.9-1.2,4.2-2.1c0.8-0.6,1.7-0.8,2.7-0.7
	c0.3,0.4,0.8,0.3,1.2,0.3l0,0c0.3,0.4,1,0.4,1.3,1c-1.9,1.9-2.1,3-0.8,5.6c0.8,1.7,1.7,3.3,2.6,4.9c0.4,0.7,0.8,0.6,1.3,0.2
	c1.2-0.7,2-1.9,3.4-2.4c1-0.4,2-0.9,2.9-0.4c1.1,0.5,1.8,1.7,1.7,2.9c-0.3,2.6-0.9,5.2-1.8,7.6c-0.2,0.5-0.3,1-0.4,1.6l0,0
	c-1.1,2.1-3.4,2.1-5.2,3c-3.4,1.8-7.1,1.3-10.6,1.8c-0.4,0.1-0.9,0-1.2-0.4c-0.8-1.1-1.3-2.4-1.7-3.7c0.7-1.8,1.7-1.3,3.1-0.7
	c2.6,1.2,5.5,1.6,8.4,1.3c0.2,0,0.6,0,0.6-0.5c-0.4,0-0.7,0-1.1,0c-2.8,0.2-5.6-0.2-8.2-1.4c-0.8-0.3-1.6-0.7-0.8-1.9
	c-1.3,0.5-2.1,1.8-2,3.2c-0.8-0.6-0.6-1.8-1.4-2.4c-0.4-0.3-0.6-0.5-1.1-0.1s-1.3,0.7-1.8,1.2C27.5,37.2,26.5,37.3,25.8,36.7
	C25.8,36.7,25.8,36.7,25.8,36.7z M42.3,30.6l0.3-0.3l0.3-0.3l0.3-0.3c0.1-0.1,0.4,0.1,0.3-0.2l-0.3,0.2L42.9,30l-0.3,0.3L42.3,30.6
	L42,30.9c-1,0.1-1.9,0.9-3,0.8c1.1,0.6,2.4,0.2,3-0.8L42.3,30.6z M49.2,32.4L48.9,33c-0.3,0.2-0.3,0.6-0.3,0.9
	c-0.2,0.1-0.3,0.4-0.3,0.6c-1,0.3-1.2,1.2-1.6,1.9c0.8-0.4,1.4-1.1,1.6-1.9l0.3-0.6c0.3-0.2,0.3-0.6,0.3-0.9
	C49.1,32.9,49.2,32.6,49.2,32.4l0.3-0.3c0.5-0.5,0.9-1.2,1.6,0c-0.3-1.5-1.7-2.5-3.2-2.2c-0.2,0-0.4,0.1-0.6,0.2
	c1.4,0,2.4,0.4,2.2,2L49.2,32.4z M36.8,30.3c0.6-0.7-0.2-1.2-0.2-1.8c0-3-1.6-5.2-4-6.9c-0.7-0.7-1.9-0.7-2.6,0
	c-0.2,0.2-0.4,0.5-0.4,0.7c-0.7,1.3-0.9,2.9-0.8,4.4c0.1,0.4,0.1,0.8,0.5,1c-0.1,1.4,0.2,2.8,0.8,4.1c0.4,0.8,0.7,1.2,1.4,0.4
	c0.8-1.3,2.4-1.8,3.8-1.3C35.8,31,36.6,31.2,36.8,30.3z"/>
<path class="st5" d="M97.7,5.1c0.6-0.1,0.6,0.2,0.8,0.6c2.4,3.9,4.9,7.7,7.4,11.5c0.1,0.2,0.3,0.4,0.4,0.6c0.4,1.3,1.2,1.6,2.4,0.8
	c1-0.6,2.1-1,3.1-1.6c0.8-0.4,1.2-0.1,1.5,0.5c0.5,1,1,2.1,1.5,3.1c0.4,0.5,0.3,1.2-0.2,1.6c-0.1,0.1-0.2,0.1-0.3,0.1
	c-3.2,2-6.3,3.9-9.5,5.9c-0.9,0.6-1.2,0-1.6-0.6c-1.8-2.9-3.5-5.8-5.3-8.8s-3.4-5.9-5.1-8.9c-0.5-0.8-0.5-1.3,0.3-1.9
	c1.4-1,3.2-1.5,4.3-3C97.5,5.2,97.7,5.2,97.7,5.1z"/>
<path class="st5" d="M72.1,48.1c-0.4-2.3-0.8-4.4-1.2-6.5c-0.1-0.5,0.2-0.7,0.3-1c0.3-0.8,0.9-1.9,0-2.5c-1-0.6-2.2-0.6-3.1,0.1
	c-0.5,0.3-0.9,0.7-1.4,1.1c-1.4,1.2-1.5,1.3-2.4-0.2c-1.8-2.9-3.4-5.9-5.2-8.8c-0.5-0.9-0.2-1.3,0.4-1.7c1.3-0.8,2.6-1.7,3.9-2.5
	c0.5-0.5,1.3-0.4,1.8,0.2c0.1,0.1,0.1,0.2,0.2,0.3c2.3,3.4,4.3,7.1,6.9,10.4c0.1,0.2,0.2,0.5,0.2,0.7c0.2,1.1,1.3,1.8,2.4,1.5
	c0.3-0.1,0.5-0.2,0.7-0.3c0.8-0.5,1.7-1,2.6-1.5c0.6-0.3,1.1-0.3,1.5,0.4c0.6,1.1,1.2,2.3,1.8,3.4c0.5,0.8,0.3,1.3-0.6,1.8
	C78.1,44.5,75.2,46.2,72.1,48.1z"/>
<path class="st5" d="M91.2,35.9c0,0.3-0.2,0.6-0.5,0.8c-1.5,0.9-3.1,1.9-4.6,2.8c-0.9,0.6-1.2-0.1-1.5-0.7c-2-3.4-4-6.7-5.9-10.1
	c-0.4-0.8-0.9-1.6-1.4-2.4c-1.1-1.4-0.2-2,0.7-2.7s2.1-1.3,3.1-2s1.4-0.4,1.9,0.4c1.4,2.4,2.8,4.8,4.2,7.2c1.2,2.1,2.5,4.1,3.7,6.2
	C90.9,35.5,91.1,35.7,91.2,35.9z"/>
<path class="st5" d="M34.8,49.8c0.5,0.3,1.2,0.2,1.6,0.8c-0.4,0.4-0.9,0.8-1.4,1c-1.2,0.6-1.1,1-0.1,1.9c1.8,1.5,3.1,3.2,2.8,5.8
	c-0.2,1.9-1.2,3.2-2.4,3.2c-0.8,0-1.2-0.2-1.1-1.1c0.2-1.6-0.2-3.2-1.2-4.4c-0.8-1-0.3-2.6-0.8-3.9c-0.6-1.5-1.2-2-2.8-1.7
	c-1.3,0.2-2.6,0.5-4,0.7c-0.9,0.1-1.8,0.5-2.5,1.1c-0.4,0.4-1,0.5-1.5,0.2c-0.6-0.3-0.3-0.9-0.3-1.4c0-1.6,1.3-2.3,2.2-3.2
	c1.8-1.8,3.7-3.5,5.7-4.9c1.1-0.7,2.3-1,3.6-0.9c0.6,0,0.6,0.5,0.7,1c0.1,1.6,0.1,3.2,0.3,4.8c0,0.4-0.3,1.4,0.8,1.1L34.8,49.8z"/>
<path class="st0" d="M52.3,38.1c1.6-1.4,2.8-3.1,3.7-5.1c0.4-0.7,0.5-2,1.2-2c1-0.1,1.2,1.1,1.7,1.9c1.3,2.2,2.6,4.4,3.9,6.6
	c0.7,1.2,0.9,2.1-0.6,3c-0.7,0.5-1.3,1.2-1.5,2.1c-0.5,1.5-2.1,2-3.3,2.9c-0.4,0.3-0.7-0.1-0.9-0.5c-0.8-1.7-2.1-3.1-3.7-4.1
	c-0.9-0.6,0-1.7-0.6-2.3L52,39.4c0,0,0.1-0.1,0.1-0.1c0-0.1-0.1-0.1-0.2-0.2C51.9,38.6,52.2,38.4,52.3,38.1z"/>
<path class="st5" d="M52,45.7c0.7-0.1,0.6-0.9,1.1-1.2c1.3,0.9,2.2,2.2,2.7,3.6c0.4,1,0.9,1.6,1.9,0.7c0.7-0.6,0.9-0.1,1,0.5
	c0.2,1.5,1.2,2.8,2.6,3.4c1.2,0.5,1.2,1.2,0.3,2.2c-2.1,2.2-4.6,2.6-7.4,2.1c-1.9-0.4-2.3-1.2-1.8-3.1c0.4-1.4,0.7-2.8,1-4.2
	c0-0.3,0-0.7,0-1c0.1-0.8,0.4-1.7-0.9-1.9C52,46.7,51.8,46.2,52,45.7z"/>
<path class="st5" d="M88.2,17.4c-3.6,0.2-3.8,0.2-4.4-3.2c-0.5-2.7-1.5-5.3-1.7-8c-0.1-1.1,0.3-1.5,1.4-1.4c1.1,0.1,2.3,0.1,3.4-0.1
	c1.2-0.1,1.7,0.2,1.6,1.5C88.4,9.9,88.4,13.7,88.2,17.4L88.2,17.4z"/>
<path class="st4" d="M69.6,41.8c0.2,0.1,0.6,0.2,0.6,0.3c0.1,1.3,0.2,2.7,0.2,4c0,0.4-1.1,1,0.4,0.9c0.4,0,0.3,0.6,0,0.9
	c-1.1,1.3-2.5,2.3-4,3c-1.5,0.6-2.6-0.6-3.4-1.6c-0.8-0.9-1.3-2-1.5-3.2c-0.5-1.5,0.4-3.1,2-3.6c0.1,0,0.2-0.1,0.4-0.1
	c0.2,0,0.4,0,0.6-0.1c1.2-0.9,2.7-1,4-0.4v-0.1c-0.3,0.6,0.3,1.3,0,1.9c-1.2,0.3-2.3,1-3.9,0.8c0.9,0.8,2.1,1.3,3.3,1.4
	c-0.8-0.7-1.2-1.2,0-1.4c0.3-0.1,0.5-0.5,0.6-0.8c0.9-0.3,0.7-1.2,0.9-1.8L69.6,41.8z M69.4,47.3c0.2,0.2,0.5,0.3,0.7,0.1
	c0.1,0,0.1-0.1,0.1-0.1c0-0.1,0-0.2-0.1-0.2C69.9,46.9,69.6,47.1,69.4,47.3L69.4,47.3z"/>
<path class="st4" d="M45.1,57.3c-0.4,0.5-0.7,0.8-0.7,1.5c0.1,1.2-0.6,1.6-1.8,1.2c-0.4-0.1-0.4-0.3-0.3-0.6
	c1.1-3.6,0.3-7.2-0.4-10.8c-0.1-0.3-0.4-0.6-0.1-0.8c0.3-0.2,0.7-0.2,0.9,0.1c0,0,0,0,0,0.1c0.2,0.3,0.7,0.6,0.8,0.3
	c0.2-1.3,1.4-0.8,2.1-1.2c1.3-0.8,1.7-0.3,1.9,1.2c0.3,3.7-0.5,7.2-1.4,10.8c-0.1,0.4,0,1.2-0.8,1s-0.2-0.8-0.1-1.2
	C45.3,58.3,45.3,57.8,45.1,57.3z M45.4,53.1c-0.9,1.3-0.1,2.6-0.2,3.9c0.4-1.2,0.6-2.4,0.7-3.7V50C45.2,51.3,45.5,52.2,45.4,53.1
	L45.4,53.1z"/>
<path class="st4" d="M29.8,62.5c-1.1-0.1-2.2,0.1-3.1,0.7c-1,0.7-2.4,0.5-3.2-0.4c-0.8-0.9-0.3-1.8,0.3-2.7c1.1-1.9,2.5-3.5,4.9-3.6
	c2.3-0.1,4.8,3.4,3.9,5.5c-0.1,0.4-0.5,0.7-0.9,0.6C31.1,62.5,30.5,62.5,29.8,62.5z"/>
<path class="st5" d="M51.8,49.1c-0.5,2.4-1.1,4.8-1.6,7.1c-0.3,1.3-0.6,2.5-0.9,3.8c-0.2,0.6-0.2,1.5-1.1,1.2s-1.5-0.8-1.2-1.9
	c0.4-1.3,0.7-2.6,1-3.9c0.5-2.1,0.7-4.3,0.5-6.4c0-1.1,0.2-1.8,1.5-1.2c0.3,0.1,0.6,0.2,0.9,0.2C51.5,48.1,51.9,48.3,51.8,49.1z"/>
<path class="st5" d="M39,50.8c2.1-0.9,2-0.8,2.5,1.6c0.5,2.7,0.3,5.5-0.6,8.1c-0.1,0.2-0.1,0.4-0.2,0.6c-0.4,0.5-0.6,1.4-1.4,1.1
	c-0.6-0.2-0.3-1-0.2-1.5c0.3-2.7,0.4-5.3-1.7-7.4C37,52.9,37,52.3,37.4,52c0.1-0.1,0.1-0.1,0.2-0.1c0.4-0.3,0.8-0.3,1.1-0.8
	C38.8,51.1,39,51,39,50.8C39,50.8,39,50.8,39,50.8z"/>
<path class="st4" d="M42.6,18.3c1.1-0.1,1.8,0.6,2.6,1.2l1.6,2.5c-0.9,0.1-1.8-0.2-2.2,0.7c-0.3,0.9-0.2,1.8,0.4,2.6
	c0.1,0.2,0.3,0.4,0.4,0.7c0.2,0.6-0.2,0.8-0.6,1s-0.5-0.1-0.6-0.3c-1-1.6-1.9-3.3-2.6-5C40.9,20.4,41.4,19,42.6,18.3
	C42.6,18.3,42.6,18.3,42.6,18.3z"/>
<path class="st4" d="M52.5,36.9c-0.8-0.1-0.3-0.6-0.2-0.8c0.5-2.7,1.6-5.3,1.4-8.1c0-0.6,0.3-0.7,0.7-0.7c0.4,0,0.8,0,1.2-0.1
	c1.4-0.4,1.3,0.4,1.1,1.3c-0.6,3-2,5.8-4,8.1C52.6,36.6,52.5,36.8,52.5,36.9z"/>
<path class="st5" d="M26.2,53.4c0.3,0.1,0.8-0.1,1,0.4s0.1,1.1-0.4,1.3c-1.6,0.7-2.9,1.9-3.8,3.4c-0.3,0.4-0.7,0.9-1.2,0.3
	s-1.3-1-0.9-2C21.4,55.3,24.3,53.4,26.2,53.4z"/>
<path class="st4" d="M23,72.2c0.5,0.3,1.2,0.3,0.6,1.2c-2,3.2-4,6.4-6,9.7c-0.4,0.6-1,1.1-0.3,1.9c0.3,0.4,0,0.9-0.4,1.1
	c-0.7,0.4-1-0.4-1.5-0.7s-0.2-0.7,0.1-0.9c2.2-1.3,2.5-3.8,3.7-5.7s2.1-4,3.2-5.9C22.6,72.6,22.6,72.2,23,72.2z"/>
<path class="st1" d="M52,45.7c-0.1,0.5,0,1,0.5,1.1c1.3,0.2,1,1.1,0.9,1.9c-0.9-0.6-1.7-1.4-3-1.3c-0.8,0.1-0.1-0.8-0.3-1.2l0,0
	c0.6,0.1,1-0.1,0.9-0.8c-0.2-2,0.5-4.1-0.5-6.1c-0.4-0.7,1.1-1.2,0.5-2.1l0,0c0.7,0,1.2,0.1,1.3,0.9c-0.2,0.3-0.4,0.5-0.4,0.9
	l0.1,0.3l0.2,1.2c-1,0.8-0.6,1.9-0.6,2.9C51.7,44.2,51.8,44.9,52,45.7z"/>
<path class="st5" d="M60.7,47.2c0.2,0.1,0.4,0.3,0.5,0.4c0.5,1.5,1.8,2.4,2.8,3.4c0.2,0.2,0.4,0.4,0.2,0.8c-0.1,0.3-0.5,0.4-0.8,0.4
	c-1.9-0.5-3.3-2.1-3.5-4C60,47.7,60.1,47.3,60.7,47.2z"/>
<path class="st4" d="M31.5,56.1c-0.7-0.2-1.4-0.4-2.1-0.7c-0.4-0.2-1.4,0.3-1.2-0.8c0.2-0.9,0.2-2,1.4-2.2c0.8-0.1,1.6,0.4,1.7,1.2
	c0,0,0,0,0,0.1C31.4,54.5,31.5,55.3,31.5,56.1z"/>
<path class="st4" d="M40.8,42.4c1,1,1,2.5,2.2,2.3s0.6-1.6,0.7-2.8c0.6,1.1,1,2.4,1,3.7c0,0.8-0.7,1.5-1.5,1.5
	c-0.7,0-1.3-0.5-1.5-1.2C41.5,44.8,41.2,43.8,40.8,42.4z"/>
<path class="st4" d="M68.8,41.8c-0.4-1-1.4-0.7-2.2-1.1c1-0.9,1.7-2,3.2-2.1c0.3,0,0.6-0.3,0.9,0c0.3,0.3,0.3,0.8,0,1.1
	c-0.4,0.7-1.1,1.2-1.1,2.1l0,0C69.3,41.6,69,42,68.8,41.8L68.8,41.8z"/>
<path class="st4" d="M40.9,46.8c-1.1,0.2-2.2,0.5-3.3,0.7c-0.4,0.1-0.9,0.2-1-0.5c-0.1-0.5,0.1-0.9,0.6-1.1c0,0,0.1,0,0.1,0
	c0.5-0.1,1-0.3,1.4-0.5C40,44.9,40.8,45.1,40.9,46.8z"/>
<path class="st4" d="M47.2,40.5c0.7,0,1.2,0,1.2,0.7s-1.3,1.7-2.5,1.7s-0.8-0.9-0.8-1.3C45.2,40.2,46.6,40.9,47.2,40.5z"/>
<path class="st4" d="M48.7,43.4c0.1,2.3,0.1,2.3-2,2.4c-0.3,0-0.7,0.3-0.8-0.3s-0.2-1,0.5-1.3S47.9,43.7,48.7,43.4z"/>
<path class="st4" d="M28.3,63.9l-1.8,4.2C25.2,66.8,25.9,65.1,28.3,63.9z"/>
<path class="st4" d="M38,42.9c0.6,0.3,1.7-0.5,1.8,0.6c0.1,0.8-1.1,0.7-1.7,0.8s-1.3,1.1-1.7-0.1C35.8,42.4,37.3,43.1,38,42.9z"/>
<path class="st1" d="M34.8,49.8h-0.6c-1-1.8-0.4-3.8-0.4-5.7c0.6,0.5,0.3,1.2,0.6,1.7c0.1,0.1,0.1,0.2,0,0.3c0,0.5-0.1,1-0.1,1.6
	c0,0.7,0.2,1.1,1,1h0.4c0.4,0.3,0.3,0.6-0.2,0.6S34.8,49.4,34.8,49.8z"/>
<path class="st5" d="M50.1,46.2c-0.5-1.9,0.4-3.8,0.1-5.8C50.4,42.3,51.2,44.3,50.1,46.2L50.1,46.2z"/>
<path class="st5" d="M34.3,46.1c0.1-0.1,0.1-0.2,0-0.3c0.4-0.7,0-1.6,0.5-2.7c0.9,1.9,0.3,3.8,0.8,5.4h-0.4
	C34.4,47.9,35.3,46.7,34.3,46.1z"/>
<path class="st1" d="M39,50.8c0,0.2-0.1,0.3-0.3,0.3c0,0,0,0,0,0c-0.4-0.1-0.8-0.3-1.2-0.5c-0.3-0.2-1-0.4-0.8-0.9s0.8-0.3,1.2-0.4
	l0.5,0.1C38.5,49.8,39.2,50.1,39,50.8z"/>
<path class="st5" d="M38.4,49.3l-0.5-0.1c0.2-1,1-0.4,1.6-0.7c0.5-0.2,1-0.1,1.3,0.3c0.1,0.1,0.1,0.3,0,0.4c-0.4,0.5-0.8,0-1.2,0
	S38.8,49.3,38.4,49.3z"/>
<path class="st1" d="M51.9,53.6c-0.4-0.9-0.4-1.9,0-2.8C52.3,51.8,52.3,52.8,51.9,53.6z"/>
<path class="st1" d="M24.5,69.7c0.4,0,0.7,0.2,0.7,0.5s-0.2,0.6-0.6,0.6c-0.3,0-0.5-0.3-0.5-0.6C24.1,69.9,24.3,69.7,24.5,69.7
	L24.5,69.7z"/>
<path class="st1" d="M52.5,36.9c0-0.2,0.1-0.3,0.3-0.3L52.5,36.9z"/>
<path class="st2" d="M40.8,16.2c-0.4,0-0.9,0.2-1.2-0.3C40.1,15.5,40.5,15.4,40.8,16.2z"/>
<path class="st2" d="M32.4,14.4c0.2,0,0.4,0.1,0.3,0.3c0,0.1-0.2,0.2-0.4,0.2s-0.4,0-0.4-0.3S32.2,14.4,32.4,14.4z"/>
<path class="st2" d="M33.6,12.4c0.4,0.3,0.8,0.6,0.4,1.2C33.4,13.3,33.7,12.8,33.6,12.4L33.6,12.4z"/>
<path class="st2" d="M42.9,17.7l0.4,0.1C43,18.1,43,17.8,42.9,17.7L42.9,17.7z"/>
<path class="st2" d="M25.2,37.9c0,0.1-0.1,0.2-0.2,0.2c-0.1-0.1-0.2-0.2,0-0.4S25.1,37.8,25.2,37.9z"/>
<path class="st5" d="M123.1,51.4c-5.6-0.2-10.3-4.8-10.5-9.8c-0.2-4,1.8-7.5,5.2-9.9c1.5-1.1,2.3-0.8,3.2,0.8
	c0.6,1.1,1.2,2.1,1.8,3.1c0.5,0.8,0.4,1.2-0.4,1.7s-1.6,0.9-1.7,1.9c-0.4,2.8,1.3,4.3,4.1,3.4c1.5-0.5,2,0,2.6,1.2
	c0.6,1.2,1.2,2.4,1.9,3.5c0.9,1.5-0.1,1.9-0.9,2.5C126.8,50.8,124.9,51.4,123.1,51.4z"/>
<path class="st5" d="M86.2,73.6c-5.6,0-10.2-4.5-10.2-10.1c0-0.5,0-1,0.1-1.5c0.4-2.8,1.9-5.4,4.2-7.1c2.7-2.3,2.7-2.2,4.6,0.7
	c0.1,0.2,0.3,0.4,0.4,0.6c1.3,2,1.3,2-0.5,3.7c-1.3,1.1-1.5,2.9-0.5,4.3c0.9,1.1,2.5,1.3,4,0.4c0.5-0.5,1.3-0.5,1.8,0.1
	c0.1,0.1,0.2,0.3,0.3,0.4c0.8,1.4,1.7,2.7,2.5,4.1c0.5,0.6,0.4,1.4-0.2,1.9c-0.1,0-0.1,0.1-0.2,0.1C90.7,72.5,88.5,73.4,86.2,73.6z"
	/>
<path class="st5" d="M97,67.9c-0.4,0.1-0.4-0.4-0.6-0.8c-1.7-2.8-3.3-5.6-4.8-8.5c-1-1.8-2-3.6-3.2-5.3c-0.8-1.1-0.7-1.9,0.6-2.6
	c0.7-0.3,1.4-0.8,2-1.3c1-0.8,1.8-1.2,2.8,0c0.5,0.6,0.9,0.3,1.1-0.4c0.1-1.2,0.7-2.3,1.6-3.1c0.7-0.5,1-0.4,1.5,0.1
	c0.8,1,1.4,2.1,1.8,3.3c0.2,0.6-0.1,1-0.5,1.4c-2.1,2.1-2.2,3.3-1,5.9s2.9,4.7,4.3,7.1c0.2,0.4,0.5,0.7,0,1
	c-1.7,1.1-3.4,2.1-5.1,3.1C97.3,67.9,97.2,67.9,97,67.9z"/>
<path class="st5" d="M116.1,56.4c0,0.4-0.1,0.5-0.3,0.6c-1.7,0.5-3,1.7-4.5,2.6c-1,0.6-1.5,0.5-2-0.4c-1.8-3.2-3.6-6.4-5.4-9.6
	c-1-1.8-1.9-3.6-3-5.3c-0.5-0.8-0.4-1.2,0.3-1.7c1.2-0.7,2.3-1.5,3.5-2.2c0.6-0.4,1.1-0.4,1.7,0.5c2.7,4.3,5.2,8.7,8,12.9
	C115,54.6,115.6,55.6,116.1,56.4z"/>
<path class="st0" d="M154.6,70.5c0.1,1.4-1,2.6-2.4,2.7c0,0-0.1,0-0.1,0c-1.4-0.1-2.4-1.3-2.3-2.6c0.1-1.3,1.1-2.3,2.4-2.5
	C153.5,68.2,154.5,69.2,154.6,70.5z"/>
<path class="st1" d="M154.4,75.2c-0.5-0.1-1.1-0.1-1.6-0.1c-1.7,0.3-3.4-0.7-3.9-2.4l0,0c0.3,0,0.8,0,0.9,0.1c0.6,1.6,2,1.1,3.2,1
	S154.4,74.2,154.4,75.2L154.4,75.2z"/>
<path class="st1" d="M155.5,70.9c0.3-0.5-0.4-1.5,0.5-1.5c0.6,0,0.8,0.8,0.8,1.6s-0.2,1.6-0.8,1.5S155.7,71.4,155.5,70.9z"/>
<path class="st1" d="M150.4,67c1.2-0.4,2.5-0.4,3.8,0C152.9,67.4,151.6,67.4,150.4,67z"/>
<path class="st1" d="M148.9,72.7c-1.2-1-0.4-2.3-0.4-3.4C149.1,70.4,148.8,71.6,148.9,72.7L148.9,72.7z"/>
<path class="st0" d="M161.1,68.9c0.2-0.3-0.3-1,0.5-0.9c0.6,0.1,1.1,0.3,1.1,1.1c0,0.6-0.4,1-1,1c0,0,0,0-0.1,0
	C160.8,70.1,161.4,69.3,161.1,68.9z"/>
<path class="st1" d="M163.9,67.3h-4.8C160.4,66.4,163.2,66.5,163.9,67.3L163.9,67.3z"/>
<path class="st1" d="M164,67.3c1.1,0.4,0.5,1.3,0.5,2c0,0.2-0.3,0.2-0.5,0.1s-0.7-0.5-0.6-0.9C163.5,68,163.7,67.6,164,67.3
	L164,67.3z"/>
<path class="st1" d="M160.2,69.6c0.2,0.9,0.5,1.5-0.3,1.8c-0.2,0.1-0.5,0-0.6-0.2c0,0,0,0,0,0C158.9,70.4,159.6,70.2,160.2,69.6z"/>
<path class="st0" d="M167.4,60.6c-2.5,0.2-4.1-1.4-3.4-3.4c0.2-1,1-1.7,2-1.8c1-0.1,1.9,0.4,2.4,1.2c0.5,0.9,0.5,2,0,2.8
	C168.1,59.8,167.5,60,167.4,60.6L167.4,60.6z"/>
<path class="st1" d="M167.5,60.5c1.5,0.5,1.6-0.9,1.8-1.6c0.5-1.1,0.2-2.4-0.8-3.1c-0.1-0.1-0.3-0.3-0.4-0.4c-0.3-0.3-0.6-0.7-0.4-1
	s0.8,0,1,0.2c1.1,0.9,1.8,2.3,1.8,3.8c-0.1,1.4-0.8,2.6-2,3.3c-0.4,0.3-0.9,0.3-1.3,0c-0.5-0.4,0.4-0.7,0.2-1.2L167.5,60.5z"/>
<path class="st1" d="M164.8,54c-1.1,1.9-1.3,3.7-2.2,5.7C161.7,57.2,162.3,55.4,164.8,54z"/>
<path class="st1" d="M165.1,61.3c-0.1,0.4-0.3,0.6-0.6,0.5c-0.6-0.1-1.1-0.6-1.1-1.2c0-0.3,0.2-0.6,0.5-0.3
	C164.2,60.7,165.1,60.5,165.1,61.3z"/>
<path class="st0" d="M155.3,60.7c-1.5-0.2-2.5-1.6-2.3-3c0.2-1.2,1.1-2.1,2.3-2.3c1.5,0.1,2.6,1.4,2.5,2.8
	C157.7,59.5,156.7,60.6,155.3,60.7z"/>
<path class="st1" d="M157.4,61.3c-1,1.5-2.3,1.7-4.1,0.3c-1.6-1.1-2.3-3.1-1.9-5c0.3-1.4,1.6-2.2,2.8-2.8c0.6-0.3,0.9,0,1.1,0.4
	c0.2,0.6-0.4,0.4-0.6,0.5c-1.2,0.3-2.7,2-2.6,3.1c0,1.9,1.5,3.5,3.4,3.5L157.4,61.3L157.4,61.3z"/>
<path class="st1" d="M157.3,61.3c0.1-0.6,0.6-0.9,1-1.3c0.6-0.6,1.1-1.1,0.4-2c-0.3-0.4-0.3-0.9,0-1.3c0.1-0.2,0.4-0.3,0.7-0.2
	c0.6,0.2,0.3,0.8,0.4,1.2c0.3,1.3-0.6,2.4-0.6,3.6L157.3,61.3L157.3,61.3z"/>
<path class="st1" d="M158.4,56c-0.4-0.9-1.6-0.4-1.6-1.5c0-0.3,0.2-0.4,0.5-0.4c0.1,0,0.1,0,0.2,0.1C158.1,54.4,158.6,54.8,158.4,56
	z"/>
<path class="st1" d="M135.5,75.1h-0.8c-0.4,0-0.8-0.1-0.8-0.6s0.5-0.5,0.9-0.6c0.5-0.1,0.8,0.5,1.4,0.4c0.9-0.2,1.5-1.1,1.3-2.1
	c0-0.1-0.1-0.2-0.1-0.3c-0.1-0.3-0.8-0.7,0-0.9c0.5-0.1,1,0.2,1.1,0.7c0,0,0,0.1,0,0.1c0.3,1.6-0.8,3.1-2.4,3.3
	C135.9,75.1,135.7,75.1,135.5,75.1z"/>
<path class="st1" d="M136,70.9c-0.8-0.4-1.9-0.2-2.1-1.6c0-0.2,0-0.4,0.1-0.5c0.2-0.2,0.4,0,0.6,0.2l1.6,1.4L136,70.9z"/>
<path class="st1" d="M143.5,68.1c-0.4,1.4,1.3,2.6,0.1,4.2c-0.3,0.6-0.2,1.3,0.3,1.8c0.2,0.2,0.2,0.5,0,0.8
	c-0.1,0.1-0.2,0.2-0.3,0.2c-0.4,0.1-0.7-0.1-0.7-0.5c0-2.1,0-4.3,0-6.4L143.5,68.1z"/>
<path class="st2" d="M153.1,17.4c0.8-0.1,1.5,0.2,2,0.8c1.3,1.1,1.2,1.9-0.2,2.8s-2.8,1.7-4.2,2.6c-0.7,0.5-1,0.2-1.3-0.4
	c-1-1.8-0.3-4.2,1.5-5.2C151.6,17.5,152.4,17.3,153.1,17.4z M154.2,19.6c-1.1-0.8-2.6-0.6-3.5,0.4c-0.1,0.1-0.2,0.3-0.3,0.5
	c-0.1,0.4-0.2,0.9,0.1,1.1s0.8-0.1,1-0.4C152.3,20.5,153.2,19.9,154.2,19.6L154.2,19.6z"/>
<path class="st1" d="M36.8,30.3c-0.2,0.9-1,0.7-1.4,0.5c-1.4-0.5-3,0-3.8,1.3c-0.7,0.9-1.1,0.5-1.4-0.4c-0.6-1.3-0.9-2.7-0.8-4.1
	l0.1-0.4c2.2-1.9,3.1-1.7,3.6,1.2c0.3,1.7,1.3,1.5,2.4,1.7c0.3,0.3,0.6,0.3,0.9-0.1V30L36.8,30.3z"/>
<path class="st2" d="M36.8,30.3L36.3,30c-0.5-2.9-1.3-5.6-3.8-7.5c-1.2-0.9-1.8-0.8-2.5,0.4c-0.6,1.4-0.9,2.9-0.7,4.3l-0.1,0.4
	c-0.5-0.2-0.5-0.6-0.5-1c-0.2-1.5,0.1-3,0.8-4.4c0.3-1,1.3-1.5,2.3-1.2c0.3,0.1,0.5,0.2,0.7,0.4c2.3,1.7,3.9,3.9,4,6.9
	C36.6,29.1,37.4,29.6,36.8,30.3z"/>
<path class="st2" d="M32.4,37.8c-0.1-1.4,0.7-2.7,2-3.2c-0.8,1.2,0,1.6,0.8,1.9c2.6,1.1,5.4,1.6,8.2,1.4c0.3,0,0.7,0,1.1,0
	c0,0.5-0.3,0.5-0.6,0.5c-2.8,0.3-5.7-0.1-8.3-1.2C34.2,36.5,33.1,36,32.4,37.8L32.4,37.8z"/>
<path class="st2" d="M49.5,32.1c0.2-1.6-0.8-2-2.2-2c1.4-0.6,3,0,3.6,1.4c0.1,0.2,0.1,0.4,0.2,0.6C50.4,31,50,31.7,49.5,32.1
	L49.5,32.1z"/>
<path class="st2" d="M42,30.9c-0.6,1-1.9,1.4-3,0.8C40.1,31.8,41,31.1,42,30.9L42,30.9z"/>
<path class="st2" d="M48.3,34.5c-0.2,0.8-0.8,1.5-1.6,1.9C47.1,35.7,47.3,34.8,48.3,34.5L48.3,34.5z"/>
<path class="st2" d="M48.6,33.9c0-0.3,0-0.7,0.3-0.9l0,0C48.9,33.4,48.9,33.7,48.6,33.9z"/>
<path class="st2" d="M48.3,34.5c0-0.2,0.1-0.5,0.3-0.6l0,0L48.3,34.5L48.3,34.5z"/>
<path class="st2" d="M49.2,32.4c0,0.2-0.1,0.5-0.3,0.6l0,0L49.2,32.4z"/>
<path class="st2" d="M43.2,29.7l0.3-0.2C43.6,29.8,43.3,29.6,43.2,29.7L43.2,29.7z"/>
<path class="st2" d="M49.2,32.4l0.3-0.3l0,0L49.2,32.4z"/>
<path class="st2" d="M42.9,30l0.3-0.3l0,0L42.9,30z"/>
<path class="st2" d="M42.6,30.3l-0.3,0.3l0,0L42.6,30.3z"/>
<path class="st2" d="M42.9,30l-0.3,0.3l0,0L42.9,30z"/>
<path class="st2" d="M42.3,30.6L42,30.9l0,0L42.3,30.6z"/>
<path class="st2" d="M52,39.3L51.9,39c0.1,0.1,0.1,0.1,0.2,0.2C52.1,39.2,52,39.3,52,39.3z"/>
<path class="st2" d="M68.7,43.5c-0.1,0.3-0.2,0.7-0.6,0.8c-1.1,0.3-0.8,0.8,0,1.4c-1.2-0.1-2.4-0.6-3.3-1.4
	C66.5,44.6,67.5,43.9,68.7,43.5L68.7,43.5z"/>
<path class="st2" d="M68.7,41.7c0.3,0.3,0.6-0.1,0.9,0c-0.3,0.6-0.1,1.5-0.9,1.8l0,0C69.1,43,68.5,42.3,68.7,41.7z"/>
<path class="st2" d="M69.4,47.3c0.3-0.1,0.5-0.4,0.8-0.2c0.1,0.1,0.1,0.2,0.1,0.2c-0.2,0.2-0.5,0.3-0.7,0.1
	C69.4,47.4,69.4,47.3,69.4,47.3z"/>
<path class="st2" d="M45.8,53.3c0,1.3-0.2,2.5-0.7,3.7c0.2-1.3-0.7-2.6,0.2-3.9L45.8,53.3z"/>
<path class="st3" d="M45.8,53.3l-0.4-0.2c0.1-0.9-0.2-1.8,0.4-3.1V53.3z"/>
<path class="st2" d="M34.3,46.1c1,0.6,0.1,1.9,0.9,2.6c-0.8,0.1-1-0.3-1-1C34.2,47.1,34.2,46.6,34.3,46.1z"/>
<path class="st0" d="M154.2,19.6c-1,0.3-2,0.9-2.7,1.7c-0.2,0.3-0.7,0.6-1,0.4s-0.2-0.7-0.1-1.1c0.6-1.2,2.1-1.8,3.3-1.2
	C153.9,19.4,154.1,19.5,154.2,19.6z"/>
<path class="st4" d="M29.4,27.3c-0.2-1.5,0-3,0.7-4.3c0.6-1.2,1.3-1.3,2.5-0.4c2.4,1.9,3.3,4.6,3.8,7.5v0.1l-0.9,0.1
	c-1.1-0.2-2.1,0-2.4-1.7C32.5,25.6,31.6,25.4,29.4,27.3z"/>
<path class="st2" d="M35.4,30.1l0.9-0.1C36,30.5,35.7,30.4,35.4,30.1z"/>
</svg>
