<svg id="Layer_1" data-name="Layer 1" xmlns="http://www.w3.org/2000/svg" viewBox="0 0 250 250"><defs><style>.cls-1{fill:#f9e8a0;}.cls-2{fill:red;}.cls-3{fill:#414042;}</style></defs><title>Liquor_Mixed Drinks</title><path class="cls-1" d="M137.13,128.69h60l.5,21.94s-5.25,14.06-13,17.31-13.5,7.06-18.37,6.19-15.87-2.87-17.69-6.81-10.06-13.25-10.06-21.56A127.17,127.17,0,0,0,137.13,128.69Z"/><path class="cls-1" d="M78.17,54h22.75s-.79,15.54,2.15,21.92,17.06,21.25,17.06,21.25,3,3.94,2.81,14.5,0,28.69,0,28.69v57.56s-2.2,13.33-15.28,13.38-36.42-1.08-36.42-1.08S56.17,207.54,56,196s.63-28.46.63-28.46L56,107.25s.91-10.69,8.41-17.5S79.13,74.56,79.06,66.88A95.63,95.63,0,0,0,78.17,54Z"/><rect class="cls-2" x="56.03" y="128.42" width="67.06" height="44.42"/><rect class="cls-2" x="78.5" y="39.44" width="22.5" height="14.19"/><rect class="cls-2" x="142.75" y="130" width="53.52" height="2.79"/><path class="cls-3" d="M115.32,88.34c-1.32-1.39-2.55-2.69-3.77-4a74.1,74.1,0,0,1-5.64-6.56,14.73,14.73,0,0,1-3-9.35V40.7a3.44,3.44,0,0,0-1.28-3.18H77.89c-1,.61-1.36,1.51-1.34,3.3V68.15a15.72,15.72,0,0,1-3.93,11.06c-2.2,2.44-4.56,5-6.52,7s-3.93,4.32-5.89,6.5a19.64,19.64,0,0,0-5.44,10,37,37,0,0,0-.45,5.8V195a16.82,16.82,0,0,0,14.42,17.41,13.34,13.34,0,0,0,2.3.14h37.48a16.8,16.8,0,0,0,16.74-16.82V107a18.84,18.84,0,0,0-4.64-12.93C118.93,92.15,117.1,90.19,115.32,88.34ZM80.78,41.61H98.83V52.29H80.78Zm40.47,135.65v17.58a13.1,13.1,0,0,1-13.32,13.65H71.55a12.89,12.89,0,0,1-13.17-12.6q0-.37,0-.74V178.59a10.57,10.57,0,0,1,0-1.1l.18-2h62.69Zm-62.78-6.09V130.87h62.65v40.29Zm62.84-62.71c-.2,3.36-.2,6.9-.08,10v8.19H58.37V109.26a37.81,37.81,0,0,1,.18-4.7c.51-4.38,3-7.46,5.89-10.49,1.55-1.71,3.16-3.38,4.75-5,2-2,4.2-4.42,6.31-6.76a17.84,17.84,0,0,0,5-10.08,50.91,50.91,0,0,0,.18-5.5V56.52H99v8.92a61,61,0,0,0,.29,7.25c.55,4.46,3.32,8,6.25,11.2,1.87,2,3.75,3.93,5.66,6s3.52,3.65,5.28,5.62A17.19,17.19,0,0,1,121.31,108.46Z"/><path class="cls-3" d="M197,126.71h-58.4c-.75,0-2.48.2-2.48,2v4.16c0,4.68,0,9.51.31,14.2a31.31,31.31,0,0,0,24.24,27.5L163,175l2.81.55v32.65l-2.26.14H153.13a2.28,2.28,0,0,0-1.63.61,2.12,2.12,0,0,0,1.48,3.45h29.7a2,2,0,0,0,0-3.93H170V175.68l1.3-.33,1.81-.43h.31c1.39-.31,3-.67,4.42-1.14a31.84,31.84,0,0,0,21.86-30.25V129.3C199.69,127.34,199.1,126.71,197,126.71ZM195.31,147c-1.18,12.89-11.51,22.83-25.15,24.18-.88,0-1.77.14-2.63.14A27.6,27.6,0,0,1,141.8,152.8a38.5,38.5,0,0,1-1.59-14.07v-6.07l-.16-1.79h55.28v6.23a87.44,87.44,0,0,1-.08,9.86Z"/></svg>