<?xml version="1.0" encoding="utf-8"?>
<!-- Generator: Adobe Illustrator 21.1.0, SVG Export Plug-In . SVG Version: 6.00 Build 0)  -->
<svg version="1.1" id="Layer_1" xmlns="http://www.w3.org/2000/svg" xmlns:xlink="http://www.w3.org/1999/xlink" x="0px" y="0px"
	 viewBox="0 0 186.1 116" style="enable-background:new 0 0 186.1 116;" xml:space="preserve">
<title>Casual dining</title>
<path d="M17.7,115.1h-1.3c-1.7,0-3.3,0-5,0c-0.3,0-0.6-0.2-0.7-0.4c-1-1.9-1.9-3.7-2.9-5.6c-0.3-0.4-0.9-0.6-1.4-0.5
	c-0.2,0.1-0.1,0.4-0.1,0.6c0,1.8,0,3.5,0,5.3c0,0.5-0.1,0.7-0.5,0.7c-1.6,0-3.3,0-4.9,0c-0.4,0-0.5-0.1-0.5-0.6c0-7.2,0-14.3,0-21.4
	c0-0.5,0.1-0.6,0.5-0.6c2.9,0,5.8,0,8.7,0c1.1,0,2.3,0.2,3.3,0.7c3,1.3,4.5,4.5,4.1,8.5c-0.1,2.2-1.2,4.2-3,5.4
	c-0.4,0.3-0.4,0.5-0.2,0.9c1.2,2.2,2.4,4.4,3.6,6.6C17.6,114.7,17.7,114.9,17.7,115.1z M6.5,101c0,0.6,0,1.2,0,1.8
	c0,0.2,0,0.4,0.2,0.4c1.1,0.1,2.3,0,3.4-0.2c0.7-0.2,1.1-0.8,1.2-1.5c0.2-1.4-0.4-2.5-1.6-2.6c-1-0.1-1.9,0-2.9-0.1
	c-0.2,0-0.3,0.1-0.3,0.4C6.5,99.8,6.5,100.4,6.5,101z"/>
<path d="M66.9,103.8c0-3.5,0-7,0-10.6c0-0.6,0.1-0.8,0.6-0.8c2.6,0.1,5.3-0.1,7.9,0.1c1.4,0.1,2.8,0.5,4.1,1.2
	c3.1,1.8,4.6,5,4.8,9.3c0.1,2.3-0.3,4.7-1.3,6.8c-1.1,2.3-3.2,4-5.7,4.7c-1.3,0.4-2.6,0.5-3.9,0.5c-1.9,0-3.9,0-5.8,0
	c-0.4,0-0.5-0.2-0.5-0.7C66.9,110.8,66.9,107.3,66.9,103.8z M72.8,103.8c0,0.7,0,1.4,0,2.1c0,0.7,0,1.4,0,2.1c0,0.3,0,0.5,0.3,0.5
	c1,0.1,2-0.1,3-0.5c1.5-0.7,2.2-2.1,2.2-4.3s-0.8-3.6-2.2-4.3c-0.9-0.3-1.8-0.5-2.7-0.4c-0.4,0-0.5,0.2-0.5,0.6
	C72.8,101,72.8,102.4,72.8,103.8L72.8,103.8z"/>
<path d="M87.3,103.7c0-3.5,0-7.1,0-10.6c0-0.6,0.1-0.7,0.5-0.7c1.6,0,3.3,0,4.9,0c0.4,0,0.5,0.1,0.5,0.6c0,2.3,0,4.6,0,6.8
	c0,0.5,0.1,0.6,0.4,0.6c1.5,0,3,0,4.5,0c0.4,0,0.5-0.1,0.5-0.6c0-2.2,0-4.5,0-6.7c0-0.5,0.1-0.7,0.5-0.7c1.6,0,3.3,0,4.9,0
	c0.4,0,0.5,0.1,0.5,0.6c0,7.2,0,14.3,0,21.5c0,0.4-0.1,0.6-0.4,0.6c-1.7,0-3.4,0-5.1,0c-0.4,0-0.4-0.2-0.4-0.6c0-2.3,0-4.6,0-7
	c0-0.5-0.1-0.6-0.5-0.6c-1.5,0-3,0-4.4,0c-0.4,0-0.5,0.1-0.5,0.6c0,2.3,0,4.6,0,7c0,0.4-0.1,0.6-0.4,0.6c-1.7,0-3.3,0-5,0
	c-0.4,0-0.4-0.1-0.4-0.6C87.3,110.9,87.3,107.3,87.3,103.7z"/>
<path d="M30.4,115.5c-3.7,0-6.6-1.9-8.5-6.1c-3-6.8,0.1-15.5,6.2-17.2c3.6-1,6.9,0,9.5,3.6c4.5,6.2,2.4,16.2-3.8,19
	C32.8,115.3,31.6,115.6,30.4,115.5z M34.1,103.6c0-0.1,0-0.3,0-0.6c-0.2-2-1-3.5-2.5-4.1c-1.4-0.6-3.1,0-3.8,1.3
	c-0.9,1.5-1.2,3.2-0.8,4.9c0.1,1.5,1.1,2.9,2.5,3.5C31.9,109.6,34.1,107.2,34.1,103.6z"/>
<path d="M117.1,115.5c-4-0.1-7-2.2-8.8-6.9c-2.5-6.8,0.7-14.8,6.5-16.4c3.9-1,7.4,0.1,10,4.2c4.1,6.5,1.5,16.3-4.9,18.5
	C119.1,115.4,118.1,115.5,117.1,115.5z M120.9,103.8c0-2.7-1.4-4.9-3.2-5.1s-3.6,1.2-4,3.8s0.6,5.4,2.5,6.2
	C118.5,109.6,120.9,107.3,120.9,103.8L120.9,103.8z"/>
<path d="M170.4,103.8c0-3.5,0-7,0-10.6c0-0.6,0.1-0.8,0.6-0.8c4.7,0,9.3,0,14,0c0.4,0,0.6,0.1,0.6,0.7c0,1.6,0,3.2,0,4.9
	c0,0.5-0.1,0.7-0.5,0.7c-2.7,0-5.5,0-8.2,0c-0.4,0-0.6,0.1-0.6,0.7c0,1.6,0,1.6,1.2,1.6c2.3,0,4.6,0,6.9,0c0.4,0,0.5,0.1,0.5,0.7
	c0,1.4,0,2.8,0,4.2c0,0.5-0.1,0.6-0.5,0.6c-2.5,0-5,0-7.6,0c-0.4,0-0.6,0.1-0.6,0.7c0,1.7,0,1.7,1.4,1.7c2.5,0,5,0,7.6,0
	c0.4,0,0.5,0.1,0.5,0.6c0,1.7,0,3.4,0,5.1c0,0.4-0.1,0.5-0.4,0.5c-4.8,0-9.6,0-14.3,0c-0.4,0-0.5-0.2-0.5-0.6
	C170.4,110.9,170.4,107.3,170.4,103.8z"/>
<path d="M147.4,99.6c0,2.1,0.1,4.3,0,6.4c-0.1,3.1-0.9,5.8-3,7.6c-1.1,0.9-2.5,1.5-3.9,1.7c-1.6,0.2-3.2,0.1-4.8-0.3
	c-3.2-1-5.1-3.7-5.5-7.9c-0.1-0.8-0.1-1.6-0.1-2.4c0-3.9,0-7.8,0-11.7c0-0.5,0.1-0.7,0.5-0.7c1.7,0,3.3,0,5,0c0.4,0,0.5,0.2,0.5,0.7
	c0,3.7,0,7.4,0,11.1c0,0.7,0,1.4,0.2,2.1c0.4,1.7,1.3,2.5,2.9,2.4c1.3-0.1,2.1-1.1,2.3-2.7c0.1-0.4,0.1-0.8,0.1-1.2
	c0-3.9,0-7.7,0-11.6c0-0.8,0-0.8,0.7-0.8c1.6,0,3.2,0,4.8,0c0.4,0,0.6,0.1,0.6,0.7c0,2.2,0,4.3,0,6.5L147.4,99.6z"/>
<path d="M159.3,115.5c-3.1,0.1-6.1-1.1-8.4-3.3c-0.7-0.6-0.6-0.5-0.1-1.3c0.8-1.3,1.6-2.5,2.5-3.8c0.2-0.3,0.3-0.3,0.6-0.1
	c1.6,1.5,3.7,2.4,5.9,2.4c0.3,0,0.5,0,0.8-0.1c0.4-0.1,0.7-0.4,0.7-0.8c0.1-0.4-0.2-0.8-0.6-1c-0.5-0.2-1-0.4-1.5-0.6
	c-1.6-0.4-3.2-0.9-4.6-1.7c-1.6-0.8-2.7-2.4-3-4.2c-0.6-3.6,0.9-7,3.7-8.4c3.8-1.5,8.2-0.8,11.3,1.9c0.3,0.3,0.4,0.5,0.1,0.9
	c-0.8,1.4-1.6,2.8-2.3,4.1c-0.2,0.4-0.3,0.4-0.6,0.2c-1.3-1.1-2.9-1.8-4.7-1.9c-0.4,0-0.7,0-1.1,0.1c-0.3,0.1-0.5,0.4-0.5,0.8
	c0,0.3,0.1,0.6,0.4,0.8c0.5,0.3,1.2,0.6,1.8,0.7c1.6,0.3,3.1,0.9,4.5,1.7c0.8,0.4,1.5,1,2,1.7c1.9,2.5,1.6,7-0.6,9.4
	c-1.1,1.2-2.6,2-4.3,2.2C160.6,115.5,159.9,115.5,159.3,115.5z"/>
<path d="M43.2,115.1l1.2-3.6c2-6.2,4-12.5,6.1-18.7c0.1-0.4,0.3-0.6,0.7-0.6c1.7,0,3.3,0,5,0c0.3,0,0.4,0.1,0.5,0.4
	c2.4,7.3,4.7,14.6,7.1,21.8c0.1,0.4,0.1,0.6-0.3,0.6c-1.8,0-3.7,0-5.5,0c-0.3,0-0.5-0.1-0.6-0.5c-0.2-0.7-0.4-1.4-0.6-2.1
	c-0.1-0.3-0.2-0.5-0.5-0.5c-1.8,0-3.6,0-5.4,0c-0.3,0-0.4,0.1-0.5,0.5c-0.2,0.7-0.4,1.5-0.7,2.2c-0.1,0.2-0.1,0.4-0.3,0.4H43.2z
	 M53.5,101.2l-1.5,5c-0.1,0.3-0.1,0.5,0.2,0.5h2.6c0.2,0,0.3-0.1,0.2-0.4C54.5,104.6,54.1,103,53.5,101.2L53.5,101.2z"/>
<path d="M64.2,49c-1.1,1-2.1,2.1-3,3.3c-1.6,2.3-2.8,4.9-3.4,7.7c-0.1,0.4-0.3,0.5-0.7,0.5c-15.4,0-30.8,0-46.3,0
	c-2.2,0-4.1-1.8-4.3-4c-0.1-1.5,0.2-3,1-4.3c2.7-5.5,5.5-11.1,8.2-16.6c3.1-6.3,6.2-12.5,9.2-18.8c0.7-1.1,0.4-2.5-0.6-3.2
	c-0.1,0-0.1-0.1-0.2-0.1c-1.2-1.1-1.3-2.9-0.2-4.1c0.2-0.3,0.5-0.5,0.9-0.7c0.5-0.2,1.1-0.4,1.7-0.6l18.2-5.8
	C45.5,2.1,46.2,2,46.9,2c1.2,0,2.2,0.9,2.2,2.1c0,0,0,0.1,0,0.1c0,0.8-0.1,1.5-0.4,2.3C48,8.3,46.9,10,46,11.8
	c-2.7,5.3-5.5,10.7-8.2,16c-3,5.8-5.9,11.7-8.9,17.5c-0.4,0.6-0.5,1.3-0.5,2c0.1,1,0.8,1.5,1.9,1.6c0.4,0,0.8,0,1.2,0L64.2,49
	L64.2,49z"/>
<path d="M132.9,72.9c6.4,0,12.6-1.7,18.1-5c3.6-2.2,6.5-5.3,8.5-8.9c1.5-2.7,2.1-5.9,1.6-8.9c-0.4-2.3-1.8-4.4-3.8-5.7
	c-1.2-0.8-2.3-1.6-3.4-2.6c-1.4-1.3-2.3-3.1-2.7-5c-0.5-2.3-0.5-4.7,0-7.1c1.4-6,6.6-10.2,12.8-10.2c2.1-0.1,4.3,0.3,6.2,1.3
	c2.2,1.1,3.7,3.2,3.9,5.6c0.3,2.2-1.1,4.3-3.2,4.9c-1,0.2-2,0.1-2.9-0.3c-1-0.4-1.7-1.3-1.9-2.4c0-0.3-0.1-0.7-0.3-1
	c-0.3-0.6-1-0.9-1.6-0.7c0,0,0,0-0.1,0c-1,0.4-1.9,1-2.7,1.8c-1.2,1.3-1,2.8-0.4,4.3c0.6,1.3,1.7,2.4,3,3c1.2,0.6,2.4,1.3,3.5,2.1
	c3,2.2,5,5.5,5.4,9.2c0.3,2.7,0,5.3-0.7,7.9c-1.4,5.1-4,9.7-7.6,13.5c-4.1,4.4-9.3,7.7-15,9.5c-4.8,1.7-9.9,2.6-15.1,2.6
	c-7.3,0-14.4-2.2-20.3-6.4c-3-2.1-5.5-4.9-7.3-8.2c-2.3-4.1-2.7-9.1-1.1-13.5c0.7-2.4,2.7-4.3,5.2-4.8c0.8-0.2,1.6-0.2,2.4-0.1
	c1.6,0.4,2.8,1.6,3.2,3.2c0.6,1.9,0.6,3.9,0,5.8c-0.5,2-1.5,3.9-2.9,5.5c-0.8,0.6-1,1.8-0.3,2.7c0.1,0.1,0.1,0.1,0.2,0.2
	c1.6,2.1,3.6,3.8,5.9,4.9c3.1,1.6,6.5,2.5,10,2.8C130.7,72.9,131.8,72.9,132.9,72.9z"/>
<path d="M71.1,77.5c-2.9,0-5.7-0.9-8-2.6c-2.5-1.8-4.1-4.6-4.3-7.7c-0.7-5.8,1.3-11.7,5.5-15.8c2.7-2.7,6.2-4.4,10-4.9
	c1.1-0.2,2.2-0.3,3.3-0.3c0.2,0,0.5,0.2,0.5-0.3s-0.3-0.3-0.5-0.3c-2.1,0-4.1-0.6-5.9-1.6c-2.2-1.4-3.7-3.7-4-6.3
	c-1.1-6.9,2.4-13.8,8.7-16.9c2.2-1.1,4.6-1.8,7-1.9c0.2,0,0.3,0,0.4-0.2c0.8-1.6,2-3,3.6-3.9c0.7-0.5,1.4-0.9,2.2-1.1
	c1.1-0.3,2.2,0.2,2.7,1.2c0.1,0.2,0.2,0.4,0.3,0.6c0.7,1,0.4,2.4-0.7,3.1c-0.1,0-0.2,0.1-0.2,0.1c-0.7,0.5-1.3,1.1-1.7,1.8
	c-0.2,0.3-0.1,0.4,0.1,0.6c2.4,2.2,3.7,5.4,3.6,8.6c-0.2,2.9-1.1,5.6-2.7,8c-1.6,2.6-3.9,4.8-6.6,6.2c-0.3,0.3-0.4,0.8-0.3,1.3
	c0.1,0.1,0.2,0.1,0.3,0.1c4.2,0.3,7.5,3.8,7.6,8c0.2,4.2-0.8,8.5-2.8,12.2c-1.8,3.8-4.7,7-8.3,9.3C78.1,76.7,74.6,77.6,71.1,77.5z
	 M69.7,67.3c0,0.9,0.1,1.8,0.4,2.7c0.2,1,1.2,1.7,2.2,1.6c1.3,0,2.5-0.6,3.3-1.5c1-1,1.7-2.1,2.3-3.3c1.5-3.2,2.6-6.6,3.2-10.1
	c0.3-1.3,0.4-2.6,0.4-3.9c-0.1-1.7-0.9-2.7-2.4-2.8c-0.4,0-0.8,0-1.2,0.1c-1.3,0.3-2.4,1.1-3.2,2.1c-1.5,1.8-2.6,3.8-3.3,6
	C70.5,61.2,69.9,64.2,69.7,67.3L69.7,67.3z M85.6,26.9c0-0.8-0.1-1.6-0.4-2.3c-0.4-1.2-1.7-1.8-2.9-1.4c-0.5,0.1-0.9,0.4-1.2,0.7
	c-0.9,0.7-1.5,1.6-2,2.7c-1.2,2.5-2,5.2-2.3,8c-0.2,1.4-0.2,2.7,0.2,4.1c0.6,1.9,2.1,2.4,3.7,1.3c0.7-0.5,1.3-1.2,1.8-1.9
	C84.3,34.5,85.3,30.7,85.6,26.9L85.6,26.9z"/>
<path d="M109.5,27.3c0.5,0,0.9,0,1.4,0c0.4,0.1,0.8-0.2,1-0.6c0.1-0.2,0.3-0.5,0.4-0.7c0.3-0.5,0.2-1.3-0.4-1.6
	c-0.2-0.1-0.4-0.2-0.6-0.2c-0.7-0.1-1.5,0.1-2.1,0.4c-0.5,0.3-1,0.6-1.5,1.1c-1.2,1.2-3.1,1.2-4.2,0c-0.1-0.1-0.2-0.2-0.3-0.3
	c-0.4-0.4-0.7-0.8-1-1.3c-0.7-0.8-0.6-2,0.2-2.7c0.1,0,0.1-0.1,0.2-0.1c1.1-1,2.4-1.8,3.8-2.5c2.5-1.2,5.2-1.6,7.9-1.2
	c4.1,0.6,6.9,4.5,6.3,8.6c0,0.2-0.1,0.4-0.1,0.6c-0.4,2.3-1.3,4.4-1.9,6.7c-0.4,1.2-0.8,2.4-1.1,3.6c-0.1,0.4-0.2,0.8-0.2,1.3
	c0,0.3,0.2,0.6,0.5,0.6c0,0,0.1,0,0.1,0c1.1,0,1.5,0.6,1.1,1.6c-0.8,2.4-2.8,4.3-5.4,4.8c-1.4,0.4-2.9-0.3-3.6-1.6
	c-0.4-0.6-0.9-0.7-1.5-0.2c-0.6,0.5-1.2,0.9-1.9,1.2c-2.9,1.4-6.3,1.3-9-0.4c-2.2-1.4-3.6-3.8-3.7-6.4c-0.3-4.1,1.8-6.7,5.2-8.5
	c2.4-1.2,5.1-1.9,7.8-2.1C108,27.4,108.8,27.3,109.5,27.3z M105.3,39.6c1.9,0.1,3.7-1.1,4.3-2.9c0.5-1.4,1-2.8,1.3-4.3
	c0.1-0.3,0-0.6-0.3-0.7c-0.1,0-0.1,0-0.2,0c-0.2,0-0.4,0-0.5,0c-1.8,0.1-3.4,0.7-4.9,1.7c-1.1,0.7-1.9,1.7-2.3,3
	C102.1,38.3,103.3,39.7,105.3,39.6L105.3,39.6z"/>
<path d="M136,22l1.5-0.7c1.5-0.8,3-1.3,4.6-1.8c1.2-0.3,2.5-0.3,3.8,0.1c2,0.5,3.5,2.3,3.4,4.4c0,1.4-0.2,2.7-0.7,4
	c-1.2,4.3-2.4,8.5-3.6,12.8c-0.3,0.9-0.3,1.8-0.1,2.8c0.1,0.4,0.1,0.8,0.1,1.2c0,0.6-0.5,1.1-1.2,1.1c0,0,0,0,0,0
	c-2.3,0-4.5,0-6.8,0c-0.6,0-1.2-0.5-1.2-1.2c0,0,0,0,0,0c0-0.8,0.1-1.6,0.4-2.4c1.4-4.4,2.8-8.8,4.3-13.2c0.5-1.7-0.2-2.5-1.9-2.1
	c-1.9,0.4-3.5,1.7-4.4,3.4c-0.4,0.9-0.8,1.8-1.1,2.8l-2.1,5.7c-0.6,1.4-0.6,2.9-0.2,4.4c0.2,0.5,0.2,1,0.1,1.5
	c0,0.6-0.6,1.1-1.2,1.1c-2.7,0-5.4,0-8.1,0c-0.6,0-1.1-0.3-1.3-0.8c-0.2-0.6,0-1.2,0.6-1.5c0.8-0.6,1.4-1.5,1.6-2.4
	c1-3.6,2-7.1,3-10.7c0.3-1,0.5-2,0.8-2.9c0.3-1-0.1-2-1-2.4c-0.6-0.3-0.9-1-0.7-1.6c0.1-0.2,0.2-0.3,0.3-0.4
	c0.2-0.3,0.5-0.5,0.8-0.6c2.4-1.4,5-2.3,7.8-2.6h0.5c1.4,0,2,0.6,1.9,2.1C136,21.8,136,21.9,136,22z"/>
<path d="M39.1,35.7c0-3.5,1.2-6.8,3.3-9.6c2.6-3.8,6.5-6.5,11-7.7c2-0.5,4.1-0.5,6.1,0c3.1,0.7,5.6,3,6.3,6.1c0.8,2.7,0.8,5.5,0,8.2
	c-0.9,4-3,7.6-6.1,10.3c-3.8,3.4-9,4.5-13.8,3c-3.8-1.1-5.9-3.8-6.6-7.7C39.2,37.4,39.1,36.5,39.1,35.7z M47.7,37.6
	c0,0.2,0,0.4,0,0.6c0,0.5,0.1,1,0.2,1.4c0.3,1.4,1.6,2.4,3.1,2.1c0.3-0.1,0.6-0.2,0.9-0.4c1.1-0.6,1.9-1.5,2.6-2.6
	c1.4-2.3,2.4-4.9,2.9-7.6c0.5-1.7,0.6-3.5,0.5-5.3c-0.2-1.8-1.3-2.7-3-2.4c-0.4,0.1-0.8,0.2-1.2,0.4c-0.9,0.6-1.7,1.4-2.3,2.3
	c-1.2,1.8-2.1,3.8-2.7,5.8C48.1,33.9,47.8,35.7,47.7,37.6z"/>
<path d="M117.2,60.5c0.5-0.8,0.9-1.6,1.2-2.5c1-2.8,0.8-5.8-0.3-8.5c-0.2-0.5-0.2-0.5,0.4-0.5h31.8c0.4,0,0.7,0,1.1,0.1
	c1.4,0.1,2.4,1.4,2.3,2.8c-0.1,0.6-0.3,1.1-0.7,1.5c-1.2,1.3-2.6,2.5-3.9,3.7c-2.8,2.6-5.7,5.2-8.5,7.8c-0.8,0.8-1.8,1.4-2.8,1.8
	c-1.5,0.7-3.4,0.3-4.4-1.1c-0.7-1-1.3-2.1-1.8-3.3c-0.3-0.5-0.5-0.9-0.7-1.4c-0.1-0.3-0.4-0.4-0.7-0.4L117.2,60.5L117.2,60.5z"/>
<path d="M29,68.8H1.2c-0.5,0-0.7-0.3-0.6-0.8c0.1-0.4,0.3-0.8,0.5-1.1c0.5-1,1-1.9,1.5-2.9c0.4-0.9,1.4-1.5,2.4-1.4H14h23.8
	c6.2,0,12.5,0,18.7,0c0.5,0,0.6,0.1,0.5,0.6c-0.2,1.7-0.2,3.5,0.1,5.2c0.1,0.4,0,0.4-0.4,0.4c-1.9,0-3.8,0-5.6,0L29,68.8z"/>
<path d="M106.8,49c-1,1.1-1.8,2.3-2.3,3.7c-0.8,2.2-1,4.7-0.6,7c0,0.1,0,0.2,0.1,0.3c0.1,0.4,0,0.4-0.4,0.4c-3.3,0-6.7,0-10,0
	c-0.4,0-0.5-0.1-0.3-0.5c1.1-3.3,1.1-6.9,0-10.2C92.8,49,92.8,49,93.7,49L106.8,49L106.8,49z"/>
<path d="M107,68.8H88.9l0.5-0.7c1.1-1.6,2-3.3,2.6-5.1c0.1-0.3,0.3-0.5,0.6-0.4c3.8,0,7.6,0,11.3,0c0.4,0,0.5,0.1,0.6,0.5
	c0.4,1.9,1.2,3.7,2.3,5.3L107,68.8C107,68.7,107,68.8,107,68.8z"/>
<path d="M122.3,62.6h5.3c1.4,0,1.7,0.3,1.4,1.7c-0.2,1-0.4,2-0.6,3c-0.1,0.9-0.9,1.6-1.8,1.6c0,0-0.1,0-0.1,0h-5.3
	c-0.2,0-0.4,0-0.6-0.1c-1.8-1.1-3.3-2.4-4.7-4c-0.2-0.2-0.4-0.5-0.5-0.8c-0.3-0.4-0.2-0.9,0.2-1.1c0.1-0.1,0.2-0.1,0.4-0.1
	c0.4-0.1,0.9-0.2,1.3-0.1L122.3,62.6z"/>
<path d="M152.1,15.1c1.1,0.1,2,0.7,2.5,1.6c1,1.6,1,3.6-0.1,5.2c-0.5,0.8-1.1,1.5-1.8,2.1c-0.2,0.2-0.4,0.3-0.7,0.3
	c-0.5,0.1-0.7,0-0.5-0.6l0.1-0.4c0.4-0.7,0.1-1.6-0.6-2c-0.1,0-0.2-0.1-0.3-0.1c-1.2-0.5-2-1.8-1.9-3.1c0-1.7,1.4-3.1,3.1-3.1
	C151.9,15.1,152,15.1,152.1,15.1z"/>
<path d="M181.9,21.5c2.1,0,3.7,1.7,3.8,3.7c0,2.1-1.7,3.7-3.7,3.8c-2,0-3.7-1.6-3.8-3.7C178.1,23.3,179.7,21.6,181.9,21.5
	C181.8,21.5,181.8,21.5,181.9,21.5z M178.6,25.3c0,1.8,1.4,3.3,3.2,3.3c0,0,0,0,0.1,0c1.8,0,3.4-1.4,3.4-3.3s-1.4-3.4-3.3-3.4
	C180.2,21.9,178.6,23.3,178.6,25.3C178.6,25.2,178.6,25.2,178.6,25.3z"/>
<path d="M183.9,27.2c-0.4,0-0.8,0-1.1,0s-0.3-0.2-0.4-0.3l-0.5-0.7c-0.1-0.1-0.3-0.2-0.4-0.1c-0.2,0-0.1,0.2-0.1,0.3
	c0,0.1,0,0.2,0,0.2c0.1,0.5-0.1,0.7-0.6,0.6s-0.5-0.1-0.5-0.5c0-1,0-2.1,0-3.1c0-0.3,0.1-0.4,0.4-0.4c0.7,0,1.3,0,2,0.1
	c0.5,0,1,0.4,1.1,0.9c0.2,0.5,0,1.2-0.5,1.5c-0.3,0.2-0.2,0.3-0.1,0.5S183.6,26.7,183.9,27.2z M181.8,25.1c0.4,0,0.8,0,0.8-0.5
	s-0.5-0.4-0.9-0.5s-0.4,0.2-0.4,0.5S181.5,25.2,181.8,25.1L181.8,25.1z"/>
<path d="M171.6,0.5h-50c-1.9,0-3.8,0-5.6,0c-0.1,0-0.2,0-0.2,0H104h-9.1c-1-0.1-2,0.5-2.4,1.4c-0.5,1-1,1.9-1.5,2.9
	c-0.2,0.4-0.4,0.7-0.5,1.2c-0.1,0.5,0.1,0.7,0.6,0.8h50c1.9,0,3.8,0,5.6,0c0.1,0,0.2,0,0.2,0h11.7h9.1c1,0.1,2-0.5,2.4-1.4
	c0.5-1,1-1.9,1.5-2.9c0.2-0.4,0.4-0.7,0.5-1.2C172.3,0.8,172.1,0.5,171.6,0.5z"/>
<path d="M185.6,9.5c-0.1,0.4-0.3,0.8-0.5,1.2c-0.5,1-1,1.9-1.5,2.9c-0.4,0.9-1.4,1.5-2.4,1.4l-9.1,0h-23.8h-15.7h-16.3h-0.2
	c-1.9,0-3.8,0-5.6,0h-50c-0.5,0-0.7-0.3-0.6-0.8c0.1-0.4,0.3-0.8,0.5-1.2c0.5-1,1-1.9,1.5-2.9c0.4-0.9,1.4-1.5,2.4-1.4h9.1h23.8
	h16.3h15.6h0.2c1.9,0,3.8,0,5.6,0h50C185.5,8.8,185.7,9,185.6,9.5z M93.1,15c-0.2-0.7-0.6-1.3-1.3-1.7c-2.1-1.6-5.8,1.7-5.8,1.7
	H93.1z"/>
</svg>
