<?xml version="1.0" encoding="utf-8"?>
<!-- Generator: Adobe Illustrator 21.1.0, SVG Export Plug-In . SVG Version: 6.00 Build 0)  -->
<svg version="1.1" id="Layer_1" xmlns="http://www.w3.org/2000/svg" xmlns:xlink="http://www.w3.org/1999/xlink" x="0px" y="0px"
	 viewBox="0 0 181 57.4" style="enable-background:new 0 0 181 57.4;" xml:space="preserve">
<style type="text/css">
	.st0{fill:#010101;}
	.st1{fill:#090503;}
	.st2{fill:#FE0005;}
	.st3{fill:#FCE400;}
	.st4{fill:#FC7A00;}
	.st5{fill:#FFFFFF;}
</style>
<title>CR</title>
<path class="st0" d="M84.3,37.5c-0.1,0.5-0.2,1-0.3,1.5c-0.4,1.8-1.4,2.2-3,2c-0.9-0.1-1.7-0.5-2.3-1.2c-0.8-0.8-1.9-1.2-3-1.1
	c-5,0.1-10,0-15,0c-1.6,0-1.8-0.3-1.8-1.9c0-0.4,0-0.8,0-1.1c0-0.5,0.2-0.9,0.6-1.2c0.4-0.3,0.9-0.6,1.4-0.9c0.3-0.2,0.7-0.4,1-0.6
	c0.4-0.2,0.5-0.6,0.5-1c0-6.4,0-12.9,0-19.3c0-0.8-0.3-1.6-1-2.1c-0.4-0.3-0.8-0.5-1.2-0.8c-0.4-0.2-0.6-0.7-0.5-1.1
	c0-0.5,0-1.1,0-1.6c0.2-1.1,1.1-1.9,2.3-1.9c0.5,0,1.1,0,1.6,0h8.1c0.5,0,1,0,1.4,0.2c0.9,0.3,1.5,1.1,1.5,2c0,0.5,0,0.9,0,1.4
	c0,0.4-0.2,0.8-0.5,1c-0.4,0.3-0.8,0.6-1.2,0.9c-0.6,0.4-1,1.2-1,1.9c0,6,0,12.1,0,18.1c0,0.4,0.1,0.4,0.4,0.4c2.4,0,4.7,0,7.1-0.1
	c0.3,0,0.4-0.1,0.3-0.4c-0.7-2.7-0.6-5.5,0.3-8.2c1.1-3.6,4-6.4,7.7-7.4c3.7-1.1,7.6-1.1,11.2,0.2c4,1.3,6.9,4.6,7.5,8.7
	c0.6,2.6,0.4,5.2-0.4,7.7c-0.9,3.2-3.2,5.7-6.3,6.9c-4.3,1.7-9.1,1.7-13.4,0C85.5,38.2,84.9,37.9,84.3,37.5z M87.8,25.3
	c0,2.2,0.6,4.3,1.9,6.1c1,1.7,3,2.6,4.9,2.3c1.6-0.1,3-1.2,3.3-2.8c0.7-3,0-6.2-2-8.7c-1-1.3-2.6-2-4.3-1.9c-1.8,0-3.3,1.3-3.6,3
	C87.8,24,87.8,24.7,87.8,25.3z"/>
<path class="st0" d="M146,29.4c-1.9,0-3.7,0-5.6,0c-0.4,0-0.4,0.1-0.3,0.4c0.1,0.2,0.2,0.5,0.4,0.7c1.4,2,3.8,3,6.2,2.7
	c1.6-0.2,3.1-0.7,4.5-1.4l1.1-0.5c0.6-0.3,1.3-0.2,1.8,0.3c0.9,0.8,1.6,1.9,1.8,3.1c0.1,0.5-0.1,0.9-0.4,1.2
	c-0.6,0.7-1.3,1.3-2.1,1.7c-2.9,1.6-6.1,2.3-9.4,2.1c-1.9-0.1-3.7-0.5-5.4-1.2c-3.2-1.3-5.7-4-6.6-7.3c-1-3.2-0.8-6.6,0.4-9.7
	c1.4-3.7,4.6-6.5,8.6-7.2c2.7-0.7,5.5-0.6,8.1,0.2c3.6,1,6.3,4,7,7.6c0.3,1.4,0.2,2.8-0.4,4.2c-0.8,1.9-2.7,3.1-4.7,3.1L146,29.4z
	 M142.9,23.7L142.9,23.7c0.9,0,1.9,0,2.8,0c1,0,2-0.2,3-0.5c0.7-0.2,1.1-1,0.9-1.8c0-0.1,0-0.1-0.1-0.1c-0.1-0.3-0.3-0.6-0.6-0.9
	c-0.8-0.8-1.9-1.2-3-1.2c-2.7,0-5.2,1.7-6.1,4.2c-0.1,0.3-0.1,0.4,0.2,0.4C141,23.6,142,23.7,142.9,23.7L142.9,23.7z"/>
<path class="st0" d="M167.4,40.2c-2.8,0-5.6-0.5-8.2-1.5c-0.6-0.2-1.2-0.6-1.7-1.1c-0.6-0.5-0.9-1.3-0.7-2c0.2-1.1,0.4-2.2,0.7-3.3
	c0.1-0.4,0.2-0.7,0.4-1.1c0.3-0.5,0.8-0.8,1.4-0.8c0.9-0.1,1.7,0.4,2.2,1.1c0.8,1.1,1.9,2,3.2,2.5c1.3,0.4,2.7,0.6,4,0.4
	c0.4-0.1,0.9-0.2,1.2-0.5c0.7-0.4,0.8-1.3,0.4-2c-0.1-0.2-0.3-0.3-0.5-0.4c-0.7-0.4-1.4-0.8-2.2-1c-1.7-0.6-3.5-1-5.2-1.7
	c-0.8-0.3-1.6-0.8-2.4-1.3c-2.2-1.7-3.1-4.6-2.2-7.2c0.7-2.4,2.5-4.2,4.9-5c3.9-1.2,8-1.2,11.9,0c0.7,0.2,1.4,0.7,2,1.2
	c0.5,0.5,0.8,1.3,0.6,2c-0.3,1.2-0.4,2.5-0.8,3.7c-0.2,0.8-0.4,1-1.3,1h-1.3c-0.7,0-1.3-0.3-1.8-0.8c-0.2-0.2-0.4-0.5-0.5-0.8
	c-0.5-1-1.4-1.6-2.5-1.6c-0.7-0.1-1.5-0.1-2.2-0.1c-0.7,0-1.3,0.6-1.3,1.3c0,0.5,0.2,0.9,0.6,1.1c0.7,0.5,1.5,0.8,2.3,1
	c1.7,0.6,3.4,1,5.1,1.7c0.9,0.4,1.7,0.9,2.5,1.4c1.5,1.1,2.4,2.9,2.4,4.7c0.4,3.3-1.5,6.5-4.6,7.8c-1.2,0.5-2.5,0.9-3.9,1
	C169.1,40.1,168.2,40.2,167.4,40.2z"/>
<path class="st0" d="M119.1,31.4c1.2-3,2.6-6,3.8-9c0.2-0.4,0.3-0.8,0.3-1.2c-0.1-0.6-0.3-0.9-0.9-1c-0.4,0-0.8-0.1-1.2-0.3
	c-0.6-0.3-0.9-0.9-0.9-1.5c0-0.5,0-0.9,0-1.4c-0.1-1,0.6-1.9,1.6-2c0.1,0,0.2,0,0.3,0c3.2-0.1,6.4-0.1,9.7,0c1,0,1.8,0.7,1.9,1.7
	c0,0.1,0,0.2,0,0.3c0,0.4,0,0.7,0,1.1c0.1,0.9-0.5,1.7-1.4,1.8c-0.8,0.1-1.5,0.7-1.7,1.6c-2.2,5.5-4.3,10.9-6.5,16.4
	c-0.2,1-1.1,1.6-2.1,1.4h-5.5c-0.9,0.1-1.8-0.5-2-1.4l-6.6-16.5c-0.1-0.3-0.2-0.5-0.4-0.8c-0.2-0.4-0.5-0.6-0.9-0.7
	c-0.4,0-0.7-0.2-1-0.3c-0.5-0.3-0.9-0.8-0.9-1.4c0-0.4,0-0.9,0-1.3c-0.1-1,0.7-1.9,1.7-2c0,0,0.1,0,0.1,0c0.3,0,0.7-0.1,1-0.1h7.9
	c0.5,0,1,0,1.4,0.2c0.8,0.2,1.4,1,1.3,1.8c0,0.5,0,0.9,0,1.4c0.1,0.9-0.5,1.7-1.4,1.9c-0.2,0.1-0.4,0.1-0.6,0.1
	c-0.9,0.1-1.2,0.6-1,1.4c0.1,0.5,0.3,1.1,0.5,1.6c1.1,2.7,2.3,5.3,3.4,8C118.9,31.2,118.9,31.3,119.1,31.4z"/>
<path class="st1" d="M52.2,9.1c-0.1,3.1-1.2,6-3.2,8.4c-3.3,3.9-7,7.5-11,10.6c-2.4,1.8-4.7,3.8-7,5.6c-3.2,2.6-6.4,5.1-9.8,7.4
	c-0.3,0.3-0.7,0.3-1,0c-2.9-2-5.8-4.1-8.5-6.4c-3.1-2.6-5.9-5.6-8.4-8.8c-1.4-1.8-2.3-3.9-2.7-6.2c-0.4-2-0.1-4.1,0.9-5.9
	c0.8-1.4,2.1-2.5,3.5-3.1c0.3-0.1,0.5-0.3,0.7-0.5c0.8-1.1,1.9-1.9,3.1-2.5c0.2-0.1,0.5-0.3,0.6-0.5c0.8-1.1,2-2,3.2-2.5
	c0.2-0.1,0.4-0.2,0.5-0.4c1.6-2.1,4.1-3.5,6.7-3.6c4.4-0.4,8.8,1.3,11.8,4.7c0.3,0.4,0.5,0.1,0.7-0.1c1.9-2.1,4.5-3.6,7.3-4.3
	c2.6-0.7,5.4-0.4,7.9,0.7c2.1,0.9,3.6,2.7,4.3,4.8C52.1,7.4,52.2,8.2,52.2,9.1z M8.6,8.6c-1.1,0.6-2,1.4-2.6,2.4
	c-1,1.8-1.3,3.8-0.9,5.8c0.4,2.5,1.6,4.9,3.3,6.8c4.6,5.3,9.9,10,15.8,13.9c0.2,0.1,0.4,0.1,0.6,0l2.9-2.1c0.1-0.1,0.2-0.1,0.3-0.3
	l-0.5-0.4c-4.7-3.1-9.1-6.7-13-10.8c-1.7-1.7-3.3-3.6-4.5-5.6C8.1,15.5,7.6,12,8.6,8.6L8.6,8.6L8.6,8.6z M4.9,11.6
	c-1.6,0.8-2.8,2.3-3.3,4c-0.5,1.7-0.5,3.5,0,5.3c0.7,2.5,2,4.7,3.8,6.6c4.5,5,9.5,9.3,15.1,13c0.2,0.2,0.5,0.2,0.6,0
	c0.8-0.6,1.7-1.2,2.5-1.8c0.7-0.5,0.7-0.5,0-0.9c-4-2.7-7.8-5.7-11.3-9.1c-2-1.9-3.9-4-5.5-6.2C4.6,19.2,3.7,15.6,4.9,11.6
	C4.9,11.7,5,11.6,4.9,11.6C4.9,11.6,4.9,11.7,4.9,11.6L4.9,11.6z M12.5,8.7c0,0.6,0,1.2,0.1,1.9C13,13,14,15.2,15.5,17
	c2.1,2.6,4.5,5.1,7,7.3c2.9,2.6,6,4.9,9.2,7.1c0.3,0.2,0.4,0.1,0.6-0.1c1.4-1,2.9-2.1,4.3-3.1c4.4-3.2,8.4-7,11.9-11.3
	c2-2.3,3-5.3,3-8.4c0-2.6-1.4-5-3.8-6.2c-2.4-1.3-5.2-1.6-7.8-0.8c-2.9,0.7-5.6,2.2-7.5,4.5c-0.3,0.4-0.5,0.4-0.8,0
	c-0.7-0.7-1.4-1.4-2.2-2c-2.7-2.1-6.1-3.1-9.4-2.8c-2.3,0.1-4.5,1.2-6.1,3C12.9,5.6,12.4,7.2,12.5,8.7L12.5,8.7z M12.4,5.6
	c-1.6,0.8-2.8,2.3-3.4,4c-0.4,1.5-0.5,3.2-0.1,4.7c0.6,2.4,1.7,4.6,3.3,6.4c4.6,5.3,9.9,9.9,15.8,13.8c0.2,0.1,0.4,0.1,0.5,0l2.9-2
	c0.1-0.1,0.3-0.1,0.3-0.3L30,31c-4-2.7-7.7-5.8-11.1-9.2c-1.7-1.7-3.3-3.5-4.7-5.4c-1.5-2.1-2.3-4.5-2.4-7.1C11.9,8,12,6.8,12.4,5.6
	L12.4,5.6z"/>
<path class="st2" d="M163.4,3.6c-0.1,1.3-0.6,2.6-1.5,3.6c-1.4,1.8-3.1,3.4-4.9,4.7c-0.2,0.1-0.3,0.2-0.5,0c-2-1.5-3.8-3.3-5.4-5.3
	c-0.7-0.9-1.1-2-1.1-3.2c0-1.6,1.2-2.9,2.8-2.9c0.2,0,0.4,0,0.6,0c1.1,0.1,2,0.6,2.8,1.4c0.6,0.6,0.6,0.6,1.1,0
	c0.8-0.9,1.9-1.4,3.1-1.4c1.5-0.1,2.9,1,3,2.6C163.5,3.3,163.4,3.5,163.4,3.6z"/>
<path class="st1" d="M179,38.6c0.9,0,1.6,0.7,1.5,1.6c0,0.9-0.7,1.6-1.6,1.5c-0.9,0-1.5-0.7-1.5-1.6C177.4,39.3,178.1,38.6,179,38.6
	C179,38.6,179,38.6,179,38.6z M179,39c-0.7,0.1-1.2,0.7-1.1,1.3c0.1,0.6,0.5,1.1,1.1,1.1c0.6,0,1.2-0.5,1.2-1.1c0,0,0,0,0-0.1
	c0-0.7-0.5-1.2-1.1-1.3C179.1,39,179,39,179,39L179,39z"/>
<path class="st2" d="M12.5,8.8c0-1.6,0.5-3.1,1.4-4.4c1.5-1.8,3.7-2.9,6.1-3c3.4-0.3,6.8,0.7,9.4,2.8c0.8,0.6,1.5,1.3,2.2,2
	c0.3,0.4,0.5,0.4,0.8,0c2-2.3,4.6-3.9,7.5-4.5c2.6-0.7,5.4-0.4,7.8,0.8c2.3,1.2,3.8,3.6,3.8,6.2c0,3.1-1,6-3,8.4
	c-3.5,4.3-7.5,8.1-11.9,11.3c-1.4,1-2.9,2.1-4.3,3.1c-0.2,0.1-0.3,0.2-0.6,0.1c-3.2-2.2-6.3-4.5-9.2-7.1c-2.5-2.2-4.9-4.7-7-7.3
	c-1.6-1.8-2.6-4.1-3-6.4C12.5,10,12.4,9.4,12.5,8.8z"/>
<path class="st3" d="M12.4,5.6C12,6.8,11.9,8,11.9,9.3c0.1,2.5,0.9,5,2.4,7.1c1.4,2,3,3.8,4.7,5.4C22.3,25.2,26,28.3,30,31l1.7,1.2
	c0,0.2-0.2,0.2-0.3,0.3l-2.9,2c-0.2,0.1-0.4,0.1-0.5,0c-5.9-3.8-11.2-8.5-15.8-13.8c-1.6-1.8-2.8-4-3.3-6.4C8.6,12.7,8.6,11.1,9,9.5
	C9.6,7.8,10.8,6.4,12.4,5.6z"/>
<path class="st2" d="M4.9,11.7c-1.3,3.9-0.3,7.5,1.9,10.8c1.6,2.3,3.5,4.3,5.5,6.2c3.5,3.4,7.2,6.4,11.3,9.1c0.7,0.4,0.7,0.5,0,0.9
	c-0.8,0.6-1.7,1.2-2.5,1.8c-0.2,0.2-0.5,0.2-0.6,0c-5.6-3.7-10.7-8-15.1-13c-1.7-1.9-3-4.2-3.7-6.6c-0.5-1.7-0.5-3.5,0-5.3
	C2.1,13.9,3.3,12.5,4.9,11.7L4.9,11.7z"/>
<path class="st4" d="M8.7,8.7c-1,3.2-0.6,6.8,1.2,9.7c1.3,2,2.8,3.9,4.5,5.6c3.9,4.1,8.3,7.7,13,10.8l0.5,0.4c0,0.2-0.2,0.2-0.3,0.3
	l-2.9,2.1c-0.2,0.1-0.4,0.1-0.6,0C18.3,33.7,13,29,8.4,23.7c-1.7-1.9-2.9-4.3-3.3-6.8c-0.4-2-0.1-4.1,0.9-5.8
	C6.6,10.1,7.5,9.2,8.7,8.7L8.7,8.7z"/>
<path class="st4" d="M8.6,8.6L8.6,8.6L8.6,8.6L8.6,8.6z"/>
<path class="st2" d="M4.9,11.7C4.9,11.7,4.9,11.7,4.9,11.7c0.1,0.1,0.1,0.1,0.1,0.1L4.9,11.7z"/>
<path class="st1" d="M178.4,40.2L178.4,40.2c0-0.7,0.3-0.9,1-0.7c0.2,0.1,0.4,0.3,0.3,0.5c-0.3,0.3,0,0.6,0,0.8
	c0,0.1,0.1,0.2-0.1,0.3s-0.3,0-0.3-0.1s0-0.1-0.1-0.2c0-0.2-0.2-0.3-0.3-0.3c0,0,0,0,0,0c-0.2,0-0.1,0.2-0.1,0.3s0,0.3-0.2,0.3
	s-0.2-0.2-0.2-0.3S178.4,40.3,178.4,40.2z M178.9,39.7c-0.1,0-0.2,0-0.2,0.2s0,0.3,0.2,0.3s0.3,0,0.3-0.2S179.1,39.7,178.9,39.7
	L178.9,39.7z"/>
<path class="st0" d="M107.6,52.1c-0.5,0-0.6-0.4-0.6-1.2v-4.4h0.9c0.2,0,0.2-0.1,0.2-0.4l0.1-1H107v-2.1l0,0l-0.7-0.2
	c-0.3,1.3-1.3,2.2-2.5,2.6v1h0.7v4.9c0,1.6,0.5,2.4,1.9,2.4c0.9-0.1,1.8-0.6,2.3-1.3l-0.4-0.7C108,52,107.8,52.1,107.6,52.1z"/>
<path class="st0" d="M114.5,45.1c-0.3-0.2-0.6-0.3-0.9-0.3c-0.6,0-0.9,0.6-1.6,1.8c-0.3-0.8-0.9-1.4-1.6-1.8l-1.6,2.2l0.5,0.7
	l0.3-0.3c0.2,0.2,0.2,0.4,0.2,0.7v4.4h-0.5v1.1h3.8v-1.1h-0.7v-3.6c0-0.9,0.4-1.3,0.9-1.3c0.4,0,0.8,0.2,1.2,0.4l0.9-2.9l-0.8-0.3
	L114.5,45.1z"/>
<polygon class="st0" points="118.7,44.8 118.7,44.8 118.7,44.8 "/>
<path class="st0" d="M101.9,47.5c0-1.7-0.8-2.6-2-2.6c-1,0.1-2,0.7-2.6,1.5l0.1-1.5h-0.1l-3.1,1v1l0.5-0.1v5.8h-0.5v1.1h3.6v-1.1
	h-0.5v-5c0.3-0.4,0.8-0.7,1.3-0.7c0.5,0,0.8,0.4,0.8,1.1v4.5h-0.5v1.1h3.6v-1.1h-0.5L101.9,47.5z"/>
<path class="st0" d="M72.2,51.2c-1.7,0-3-2.3-3-5.2c0-1.7,0.6-2.7,1.4-2.7c0.5,0,0.9,0.6,0.9,1.2c0,0.4-0.1,0.7-0.3,1l0.6,0.9l3.1-3
	l-0.6-1l-0.5,0.4c-0.5-0.8-1.4-1.2-2.3-1.2c-1.5,0.1-2.9,0.9-3.6,2.2c-0.9,1.3-1.3,2.8-1.3,4.4c0,3.3,1.8,5.7,4.5,5.7
	c1.8,0,3.2-1.1,4.3-3.2l-0.8-0.8C74,50.7,73.1,51.2,72.2,51.2z"/>
<path class="st0" d="M92.2,44.8L92.2,44.8l-3.1,1v1l0.5-0.1v4.5c-0.3,0.3-0.6,0.5-1.1,0.6c-0.5,0-0.7-0.4-0.7-1.1v-5.9h-0.1l-3,1v1
	l0.5-0.1v4.5c0,1.7,0.8,2.6,2,2.6c0.9-0.1,1.7-0.6,2.2-1.3l0.3,1h2.9v-1.1h-0.5L92.2,44.8z"/>
<path class="st0" d="M79.6,44.8c-2.3,0-4,1.9-4,4.5s1.7,4.5,4,4.5s4-1.9,4-4.5S81.9,44.8,79.6,44.8z"/>
<path class="st0" d="M123,45.3c-0.5,0-1-0.3-1.5-0.3c-0.9,0-1.3,0.7-2,2.3c-0.3-0.8-0.6-1.6-0.8-2.4l-2.7,1.9l0.3,0.8l0.4-0.2
	l2.8,6.2l-0.2,0.5c-0.1,0.5-0.5,0.8-1,0.8c-0.4,0-0.8-0.2-1.2-0.4l-0.4,2.3c0.3,0.2,0.7,0.3,1.1,0.3c1.1,0,1.9-1,2.6-2.8l2.7-7
	c0.2-0.6,0.4-1.1,0.7-1.6l-0.3-0.4C123.4,45.2,123.2,45.3,123,45.3z"/>
<path class="st0" d="M169.2,47.8c-0.8-0.4-1.2-0.8-1.2-1.2c0-0.2,0.2-0.5,0.4-0.5c0,0,0,0,0.1,0c0.5,0,1.1,0.6,1.9,1.7l1.1-2
	c-0.7-0.6-1.5-1-2.4-1c-1.5,0-2.7,1.1-2.7,2.6c0,0.1,0,0.2,0,0.3c0,1.6,0.8,2.1,2.1,2.9c0.8,0.5,1.3,0.8,1.3,1.3s-0.2,0.5-0.5,0.5
	c-0.6,0-1.4-0.7-2.4-2.1l-1.2,2.2c0.8,0.8,1.8,1.2,2.9,1.2c1.7,0,3.1-1.3,3.1-3c0,0,0,0,0-0.1C171.7,49.3,170.8,48.7,169.2,47.8z"/>
<path class="st0" d="M157.2,44.7l-0.2,0.4c-0.3-0.2-0.6-0.3-0.9-0.3c-0.6,0-0.9,0.6-1.6,1.8c-0.3-0.8-0.9-1.4-1.6-1.8l-1.6,2.2
	l0.5,0.7l0.3-0.3c0.2,0.2,0.2,0.4,0.2,0.7v4.4h-0.5v1.1h3.8v-1.1H155v-3.6c0-0.9,0.4-1.3,0.9-1.3c0.4,0,0.8,0.2,1.2,0.4L158,45l0,0
	L157.2,44.7z"/>
<path class="st0" d="M163.1,51.8c-0.9-0.1-1.6-0.7-1.9-1.5l2.8-1.4c0.9-0.4,1.2-0.4,1.2-0.5c-0.2-0.8-0.5-1.5-1-2.2
	c-0.6-0.8-1.5-1.3-2.5-1.3c-1.8,0-3.5,1.8-3.5,4.6s1.4,4.5,3.4,4.5c1.5,0,3-0.9,3.7-2.3l-0.5-0.7C164.3,51.4,163.7,51.8,163.1,51.8z
	"/>
<path class="st0" d="M146.7,44.8c-2.3,0-4,1.9-4,4.5s1.7,4.5,4,4.5s4-1.9,4-4.5S149,44.8,146.7,44.8z"/>
<path class="st0" d="M132.6,45.5c-1.1-0.5-1.7-0.9-1.7-1.5c0-0.4,0.4-0.7,0.8-0.7c0,0,0,0,0,0c0.6,0,1.6,0.7,3,2.1l1.6-3l-0.8-0.6
	l-0.3,0.6c-0.8-0.5-1.6-0.8-2.5-0.9c-2.1,0.1-3.7,1.9-3.7,4c0,1.1,0.5,2.1,1.4,2.7c1,0.6,2.1,1.1,3.1,1.6c0.7,0.4,1.1,0.7,1.1,1.1
	c0,0.6-0.4,1-1,1c0,0-0.1,0-0.1,0c-1,0-2.3-1-3.8-2.9l-1.7,2.9c1.1,1.2,2.7,1.9,4.3,2c2.4-0.1,4.2-2.1,4.1-4.4
	c0-0.8-0.3-1.6-0.8-2.2C134.7,46.4,133.7,45.9,132.6,45.5z"/>
<path class="st0" d="M141.3,52.1c-0.5,0-0.6-0.4-0.6-1.2v-4.4h0.9c0.2,0,0.2-0.1,0.2-0.4l0.1-1h-1.3v-2.1l-0.7-0.2
	c-0.3,1.3-1.3,2.2-2.5,2.6v1h0.7v4.9c0,1.6,0.5,2.4,1.9,2.4c0.9-0.1,1.8-0.6,2.3-1.3l-0.4-0.7C141.7,52,141.5,52.1,141.3,52.1z"/>
<path class="st5" d="M80.9,50.4c0,1.4-0.3,2.1-0.9,2.1c-0.8,0-1.8-1.8-1.8-4.4c0-1.3,0.3-2,0.9-2C79.9,46.1,80.9,47.9,80.9,50.4z
	 M122,47.2l-1.3,3.3l-1-2.5c0.3-0.7,0.6-1,0.9-1s0.6,0.3,1.1,0.3C121.8,47.3,121.9,47.2,122,47.2L122,47.2z M148.1,50.4
	c0,1.4-0.3,2.1-0.9,2.1c-0.8,0-1.8-1.8-1.8-4.4c0-1.3,0.4-2,0.9-2C147.1,46.1,148.1,47.9,148.1,50.4L148.1,50.4z M162.6,48.1
	l-1.8,0.9c-0.1-0.5-0.2-1-0.2-1.4c0-0.9,0.3-1.3,0.7-1.3S162.3,46.8,162.6,48.1L162.6,48.1z"/>
</svg>
