<?xml version="1.0" encoding="utf-8"?>
<!-- Generator: Adobe Illustrator 21.1.0, SVG Export Plug-In . SVG Version: 6.00 Build 0)  -->
<svg version="1.1" id="Layer_1" xmlns="http://www.w3.org/2000/svg" xmlns:xlink="http://www.w3.org/1999/xlink" x="0px" y="0px"
	 viewBox="0 0 201 40.2" style="enable-background:new 0 0 201 40.2;" xml:space="preserve">
<title>Casual dining</title>
<path d="M11,25.1L7.1,14.4C7,14.5,7,14.6,7,14.6c0,2.5,0,5,0,7.6c0,0.1,0,0.3,0,0.4c0.1,0.2,0.2,0.4,0.5,0.4h0.1
	c0.1,0.4,0.1,0.4-0.4,0.4H3c-0.3,0-0.3,0-0.3-0.4c0-0.1,0-0.1,0.1-0.1h0.1c0.4,0,0.6-0.3,0.7-0.7c0-0.1,0-0.3,0-0.4
	c0-6.5,0-13.1,0-19.6c0-0.2,0-0.4-0.1-0.6C3.5,1.6,3.2,1.3,2.9,1.3c-0.1,0-0.2,0-0.2-0.1c0-0.1,0-0.2,0-0.3c0,0,0,0,0.1-0.1h6.3
	c0.1,0,0.1,0,0.1,0.1c0,0,0,0.1,0,0.1c0,0.1,0,0.2-0.2,0.2C8.8,1.4,8.5,1.7,8.6,2c0,0,0,0.1,0,0.1c0,0.1,0.1,0.2,0.1,0.3
	C9.1,3.6,9.6,4.8,10,6l2.5,6.3l0.1,0.2c0.1,0,0.1-0.1,0.1-0.2l2.1-5.4l0.8-2.1c0.1-0.3,0.2-0.6,0.3-0.9c0-0.1,0-0.3,0-0.4
	C15.8,3.2,15.6,3,15.4,3c-0.1,0-0.2,0-0.2-0.1c0-0.1,0-0.2,0-0.4c0,0,0.1,0,0.1,0h1.3c0.1,0,0.2,0.1,0.2,0.1C17,2.8,17.1,3,17,3.2
	c-0.1,0.4-0.2,0.8-0.4,1.2c-1.2,3-2.3,6-3.5,9c-0.1,0.1-0.1,0.3,0,0.4c0.1,0.2,0.2,0.4,0.2,0.6c0.1-0.1,0.1-0.1,0.1-0.2l4.2-10.7
	c0.2-0.4,0.3-0.8,0.4-1.2c0-0.1,0-0.2,0-0.3c0.1-0.3-0.1-0.7-0.4-0.7c0,0,0,0-0.1,0c-0.1,0-0.2,0-0.2-0.1c0-0.1,0-0.2,0-0.3
	c0,0,0.1,0,0.1,0h6c0.3,0,0.3,0.1,0.3,0.4c0,0.1,0,0.1-0.1,0.1C23.3,1.5,23,1.9,23,2.3c0,0.1,0,0.2,0,0.2c0,6.5,0,13,0,19.5
	c0,0.2,0,0.4,0.1,0.6c0.1,0.2,0.3,0.4,0.5,0.5c0.2,0,0.2,0.1,0.2,0.3s0,0.2-0.2,0.2h-4.3c-0.1,0-0.2,0-0.2,0c0-0.1,0-0.2,0-0.4
	c0,0,0.1,0,0.1,0c0.3,0,0.4-0.3,0.5-0.5c0-0.1,0-0.3,0-0.4c0-5.1,0-10.1,0-15.2c0-0.1,0-0.2,0-0.3c-0.1,0-0.1,0.1-0.1,0.2
	c-0.3,0.8-0.6,1.6-0.9,2.4c0,0.1-0.1,0.3-0.1,0.4c0,4.5,0,8.9,0,13.4c0,0.2,0,0.4,0,0.6c0,0.3-0.2,0.5-0.5,0.5
	c-0.1,0-0.1,0.1-0.1,0.1c0,0,0,0.1,0,0.1c0,0.1,0,0.2,0.2,0.2h0.3c0.9,0,1.8,0,2.7,0c0.2,0,0.4,0.1,0.6,0.2c0.1,0,0,0.1,0,0.1
	c0,0.4,0,0.3-0.3,0.3h-4.3c-0.3,0-0.3,0-0.3-0.3c0-0.1,0-0.1,0.1-0.1c0.3,0,0.5-0.3,0.5-0.6c0-0.1,0-0.2,0-0.4c0-3.7,0-7.3,0-11
	c0-0.1,0-0.2,0-0.2c-1.4,3.7-2.8,7.3-4.2,11c-0.4-1.1-0.8-2.2-1.2-3.3L10.8,17l-1.3-3.6L8.3,10L7.1,6.6C7,6.7,7,6.8,7,6.8
	C7,8,7,9.2,7,10.4c0,0.1,0,0.2,0.1,0.3l3.3,9.1c0.4,1.1,0.8,2.2,1.2,3.3c0.1,0.2,0.1,0.4,0,0.5c-0.2,0.4-0.3,0.9-0.5,1.3
	C11,25,11,25.1,11,25.1z"/>
<path d="M133.1,6.5c-0.1,0.1,0,0.1,0,0.2c0,0.8,0,1.5,0,2.3c0,0.1,0,0.2,0.1,0.3l6.9,11.4c0.4,0.6,0.8,1.3,1.1,1.9
	c0.1,0.3,0.3,0.5,0.4,0.8c0.1,0.4,0,0.7-0.5,0.7H141c-0.1,0-0.2,0-0.2,0.2s0,0.3,0.3,0.3c1.2,0,2.5,0,3.7,0c0.3,0,0.5,0.1,0.8,0.1
	c0.1,0,0.1,0,0.1,0.1s0,0.1,0,0.2s0,0.2-0.2,0.2h-5.6c-0.2,0-0.2,0-0.2-0.2c0,0,0-0.1,0-0.1s0-0.1,0.1-0.1c0.1,0,0.3,0,0.4-0.1
	c0.2-0.1,0.3-0.3,0.3-0.5c0-0.2-0.1-0.5-0.2-0.7c-0.3-0.6-0.6-1.1-1-1.7l-6-9.8c-0.1-0.1-0.1-0.2-0.2-0.3v0.3c0,3.3,0,6.7,0,10
	c0,0.1,0,0.2,0,0.3c0,0.4,0.3,0.7,0.8,0.8c0.1,0,0.1,0,0.1,0.1c0,0.1,0,0.2,0,0.3c0,0-0.1,0-0.1,0h-4.7c-0.3,0-0.3-0.1-0.3-0.4
	c0-0.1,0-0.1,0.1-0.1l0,0c0.5-0.1,0.9-0.6,0.8-1.1c0-6.5,0-13.1,0-19.6c0-0.2,0-0.3-0.1-0.5c-0.1-0.3-0.4-0.5-0.7-0.6
	c-0.2,0-0.2,0-0.2-0.2s0-0.1,0-0.2c0-0.1,0-0.1,0.1-0.1c0,0,0,0,0,0h6.1c0.1,0,0.1,0,0.1,0.1c0,0,0,0.1,0,0.1c0,0.1,0,0.2-0.2,0.2
	c-0.3,0-0.5,0.3-0.5,0.6c0,0,0,0.1,0,0.1c0.1,0.3,0.2,0.5,0.3,0.8l1.3,2.1l5,8c0,0.1,0.1,0.2,0.1,0.2c0.1-0.1,0-0.2,0-0.3
	c0-1.7,0-3.5,0-5.2c0-1.1,0-2.3,0-3.4c0-0.2,0-0.4-0.1-0.6c-0.1-0.3-0.4-0.5-0.7-0.6c-0.2,0-0.2,0-0.2-0.2c0,0,0-0.1,0-0.1
	s0-0.2,0.2-0.2h1.3c0.1,0,0.3,0,0.3,0.2c0.2,0.2,0.3,0.4,0.3,0.7c0,0.1,0,0.2,0,0.3c0,3.7,0,7.5,0,11.2c0,0.2,0,0.3,0.1,0.5
	c0.3,0.4,0.5,0.8,0.8,1.3c0,0.1,0.1,0.1,0.1,0.2c0-0.1,0-0.2,0-0.3c0-2.8,0-5.5,0-8.3c0-1.9,0-3.7,0-5.6c0-0.2,0-0.3-0.1-0.5
	c-0.1-0.3-0.4-0.6-0.7-0.7c-0.1,0-0.2,0-0.2-0.1c0-0.1,0-0.2,0-0.3c0,0,0.1,0,0.1,0h5c0.1,0,0.1,0,0.1,0.1c0,0,0,0,0,0
	c0,0.1,0,0.1,0,0.2s0,0.2-0.1,0.2c-0.5,0.1-0.9,0.5-0.9,1.1c0,1.1,0,2.2,0,3.3c0,5.4,0,10.8,0,16.2c0,0.1,0,0.3,0,0.4
	c0.1,0.4,0.4,0.7,0.8,0.7c0.1,0,0.1,0,0.2,0.1c0,0.1,0,0.2,0,0.4c0,0,0,0-0.1,0h-5.7c-0.1,0-0.1,0-0.1-0.1s0-0.1,0-0.1
	c0-0.2,0-0.2,0.2-0.2c0.1,0,0.2,0,0.3-0.1c0.2-0.1,0.4-0.3,0.3-0.5c0,0,0,0,0,0c0-0.2-0.1-0.5-0.2-0.7c-0.3-0.7-0.7-1.3-1.1-1.9
	l-8.1-13.2C133.2,6.6,133.2,6.5,133.1,6.5z"/>
<path d="M154.2,3.8c-0.3,0.2-0.5,0.4-0.8,0.7c-1.1,1.2-1.9,2.7-2.3,4.2c-0.3,1.2-0.5,2.4-0.6,3.6c-0.1,2.2,0.2,4.3,0.9,6.4
	c0.6,1.5,1.5,2.9,2.7,3.9c1.2,1,2.6,1.7,4.1,2c0.9,0.2,1.8,0.3,2.7,0.2c1.2,0,2.4-0.2,3.5-0.7c0,0,0.1-0.1,0.2,0
	c-0.2,0.1-0.5,0.3-0.7,0.4c-1.2,0.5-2.5,0.9-3.8,0.9c-1.3,0.1-2.6-0.1-3.8-0.4c-1.4-0.4-2.8-1.2-3.8-2.2c-0.9-0.9-1.6-2-2.1-3.2
	c-0.5-1.2-0.8-2.5-1-3.8c-0.1-1.3-0.1-2.6,0-3.9c0.1-1.6,0.6-3.1,1.2-4.6c0.8-1.8,2.2-3.3,4-4.2c0.1,0,0.1-0.1,0.2-0.1
	c1.2-1.2,2.7-2,4.3-2.3c1.9-0.5,4-0.4,5.9,0.2c2.4,0.7,4.3,2.4,5.4,4.6c0.6,1.3,1.1,2.6,1.2,4c0.2,1.4,0.3,2.8,0.1,4.1
	c-0.1,1.7-0.5,3.3-1.3,4.8c-1.3,2.8-3.9,4.8-6.9,5.2c-1.7,0.3-3.4,0.2-5.1-0.3c-2.4-0.7-4.3-2.3-5.5-4.5c-0.6-1.2-1.1-2.5-1.3-3.8
	c-0.3-1.5-0.3-3.1-0.2-4.6c0.1-1.6,0.5-3.1,1.1-4.6c0.3-0.7,0.8-1.4,1.3-2.1L154.2,3.8z M165.9,13.8c0-0.9-0.1-1.9-0.2-2.8
	c-0.2-1-0.5-2-1-2.9c-0.6-1-1.4-1.8-2.5-2.3c-1.5-0.6-3.2-0.7-4.8-0.2c-0.1,0-0.2,0.1-0.2,0.2c-0.3,0.4-0.5,0.7-0.7,1.2
	c-0.5,1.1-0.8,2.4-0.9,3.6c-0.1,1.2-0.1,2.4,0,3.6c0.1,1,0.3,2,0.7,2.9c0.4,1.1,1.1,2,2.1,2.7c0.8,0.5,1.7,0.8,2.6,0.9
	c1,0.1,1.9,0,2.9-0.2c0.2-0.1,0.4-0.2,0.5-0.3c0.5-0.7,0.9-1.6,1.1-2.4C165.7,16.4,165.9,15.1,165.9,13.8L165.9,13.8z M157.3,5.6
	c0.1,0,0.1,0,0.2-0.1c0.3-0.2,0.7-0.3,1-0.4c1.2-0.4,2.4-0.5,3.6-0.2c1.1,0.2,2.1,0.7,2.8,1.5c0.7,0.7,1.2,1.5,1.5,2.4
	c0.3,1,0.6,2.1,0.6,3.1c0.1,1.5,0,2.9-0.2,4.3c-0.2,1.2-0.7,2.3-1.4,3.3l0,0c0.6-0.4,1.1-0.9,1.4-1.6c0.6-1,0.9-2,1.1-3.1
	c0.3-1.9,0.3-3.8,0-5.6c-0.2-1.1-0.6-2.1-1.1-3c-0.7-1.1-1.7-1.9-2.9-2.3C163,3.7,162,3.6,161,3.7c-0.9,0.1-1.8,0.4-2.5,0.9
	C158.1,4.9,157.7,5.2,157.3,5.6L157.3,5.6z"/>
<path d="M58.4,16.7c0.1-0.1,0.1-0.2,0.2-0.3c0.2-0.2,0.5-0.3,0.8-0.3h4c0.2,0,0.2,0,0.2,0.2c0,1.1,0,2.1,0,3.2c0,0.1,0,0.2,0,0.3
	c0.1,0,0.1,0,0.2,0c0.3-0.2,0.5-0.4,0.8-0.6c0.1-0.1,0.1-0.2,0.1-0.3c0-1.2,0-2.4,0-3.6c0-0.2,0-0.2-0.2-0.2h-3.9
	c-0.2,0-0.4,0-0.6,0.2c-0.2,0.1-0.3,0.3-0.4,0.5c0,0.1-0.1,0.2-0.2,0.1h-0.1C59,16,59,16,59,15.8c0-1.4,0-2.8,0-4.2
	c0-0.1,0-0.2,0.1-0.2c0.1,0,0.2,0,0.4,0c0,0,0,0.1,0,0.1c0.1,0.2,0.2,0.4,0.4,0.4c0.2,0.1,0.4,0.1,0.7,0.1h7.7c0.3,0,0.3,0,0.3,0.4
	c0,0.1,0,0.1-0.1,0.1c-0.3,0.1-0.3,0.3-0.3,0.5c0,0.1,0,0.1,0,0.2c0,2,0,4,0,6c0,0.1,0,0.3,0.1,0.4c0,0.1,0.1,0.2,0.2,0.3
	c0.1,0,0.2,0.1,0.1,0.2s0.1,0.3-0.1,0.4s-0.2,0.1-0.3,0.2c-0.7,0.7-1.5,1.2-2.3,1.8c-1.2,0.7-2.5,1.2-3.9,1.4C61,24,60,24,59,24
	c-2.2-0.1-4.3-0.8-6-2.2c-1.4-1.1-2.4-2.6-3.1-4.2c-0.5-1.4-0.8-2.8-0.9-4.2c-0.1-2.5,0.4-4.9,1.5-7.1c0.4-0.7,0.8-1.4,1.3-2
	l0.1-0.2l0,0l-0.3,0.3c-1.5,1.4-2.6,3.2-3.2,5.2c-0.4,1.5-0.6,3-0.6,4.5c0,1.8,0.4,3.6,1.2,5.2c1.3,2.8,3.8,4.8,6.8,5.4
	c1.2,0.2,2.3,0.3,3.5,0.3c1.3,0,2.6-0.3,3.8-0.8c0,0,0.1,0,0.1,0c-0.2,0.1-0.3,0.2-0.5,0.3c-1.1,0.5-2.2,0.9-3.4,1
	c-0.8,0.1-1.5,0.1-2.3,0.1c-2.1,0-4.2-0.6-6-1.8c-1.5-1-2.6-2.5-3.3-4.1c-0.6-1.3-0.9-2.6-1-4c-0.2-2.1,0-4.1,0.7-6.1
	C48.1,7.8,49,6.3,50.3,5c0.6-0.6,1.3-1.2,2.1-1.6c0.1-0.1,0.3-0.2,0.4-0.3C54.2,1.8,56,0.9,58,0.7c2.2-0.3,4.4,0.1,6.5,1
	c0.6,0.3,1.3,0.6,1.9,0.9l0.4,0.2c0.3,0.1,0.7,0.1,1,0c0.1,0,0.1,0,0.2,0c0.2,0.1,0.3,0.2,0.1,0.4l-2.3,3.7C65.7,7,65.5,7,65.4,6.9
	c0,0,0-0.1,0-0.1c0-0.1,0-0.1,0-0.2c0.1-0.5-0.1-1-0.5-1.3c-0.4-0.4-1-0.8-1.6-1c-0.9-0.3-1.9-0.5-2.9-0.5c-0.8,0-1.6,0.1-2.3,0.3
	c-1.5,0.4-2.7,1.4-3.6,2.6C53.8,7.8,53.3,9,53,10.3c-0.2,1.1-0.3,2.3-0.2,3.4c0.1,1.4,0.5,2.8,1.2,4c1,1.6,2.6,2.6,4.4,2.9
	c1.2,0.2,2.5,0.2,3.7-0.2c0.3-0.1,0.2-0.1,0.2-0.3c0-1,0-2.1,0-3.1c0-0.1,0-0.1,0-0.2s0-0.1-0.1-0.1h-3.7
	C58.5,16.8,58.4,16.8,58.4,16.7L58.4,16.7z"/>
<path d="M81.8,16.7c0.2-0.4,0.7-0.6,1.1-0.6h3.9c0.1,0,0.1,0,0.1,0.1s0,0.1,0,0.2c0,1,0,2.1,0,3.1v0.3c0.2-0.1,0.4-0.2,0.6-0.4
	c0.5-0.3,0.5-0.3,0.5-0.9c0-1,0-2.1,0-3.1c0-0.1,0-0.1,0-0.2s0-0.2-0.2-0.2H84c-0.2,0-0.5,0.1-0.7,0.2c-0.2,0.1-0.3,0.3-0.3,0.4
	c0,0.1-0.1,0.2-0.2,0.1h-0.2c-0.1,0-0.1,0-0.1-0.1s0-0.1,0-0.2c0-1.3,0-2.7,0-4c0-0.3,0-0.3,0.3-0.3c0.1,0,0.1,0,0.1,0.1
	c0.1,0.2,0.2,0.4,0.5,0.4C83.6,12,83.8,12,84,12h7.7c0.3,0,0.3,0,0.3,0.3c0,0.1,0,0.1-0.1,0.2c-0.2,0.1-0.3,0.2-0.3,0.4
	c0,0,0,0.1,0,0.2c0,2,0,4.1,0,6.1c0,0.1,0,0.3,0.1,0.4c0,0.1,0.1,0.2,0.2,0.3c0.1,0,0.1,0.1,0.1,0.2s0,0.3-0.1,0.4l-0.4,0.3
	c-0.7,0.6-1.4,1.2-2.2,1.7c-1.2,0.8-2.5,1.2-3.9,1.4c-1,0.2-2.1,0.2-3.2,0.1c-2.3-0.1-4.6-1-6.3-2.5c-1.4-1.3-2.4-2.9-2.9-4.7
	c-0.5-1.6-0.7-3.3-0.5-5c0.1-1.6,0.4-3.2,1-4.7c0.4-1,1-2,1.7-2.9c0.1-0.1,0.1-0.1,0.1-0.2l-0.4,0.4c-1.1,1.1-2,2.4-2.6,3.9
	c-0.6,1.5-0.9,3.1-1,4.8c-0.1,2.1,0.3,4.2,1.2,6.2c1.1,2.5,3.2,4.4,5.7,5.2c1,0.3,2,0.5,3,0.6c1.3,0.1,2.7,0,4-0.3
	c0.5-0.1,1-0.3,1.4-0.4l0.2-0.1c0,0.1-0.1,0.1-0.2,0.1c-1,0.6-2.1,0.9-3.3,1.1c-0.9,0.1-1.8,0.2-2.7,0.2c-2.1,0-4.2-0.6-6-1.9
	c-1.7-1.2-3-3-3.7-5.1c-0.4-1.3-0.7-2.7-0.7-4.1c0-1.9,0.3-3.7,0.9-5.5c0.6-1.7,1.6-3.2,2.9-4.4c0.6-0.5,1.2-0.9,1.8-1.3
	c0.1-0.1,0.2-0.1,0.3-0.2c1.5-1.4,3.3-2.3,5.3-2.5c2.2-0.3,4.4,0.1,6.5,1c0.7,0.3,1.3,0.6,2,1l0.3,0.1c0.3,0.1,0.6,0.1,0.9,0
	c0.2-0.1,0.3,0,0.4,0.1c0,0,0,0.1,0,0.1c0,0,0,0,0,0l-0.2,0.1l-2.3,3.7l-0.1,0.1c0,0.1-0.1,0.1-0.2,0c-0.2-0.1-0.3-0.1-0.2-0.3
	c0.1-0.4-0.1-0.9-0.4-1.2c-0.4-0.4-0.9-0.8-1.4-1c-0.8-0.3-1.6-0.5-2.4-0.6c-0.6-0.1-1.3-0.1-1.9,0C81.3,3.9,80,4.4,79,5.4
	c-1.1,1.1-1.9,2.4-2.3,3.9c-0.4,1.4-0.5,2.8-0.4,4.2c0.1,1.2,0.4,2.3,0.8,3.3c0.6,1.3,1.6,2.3,2.8,3c0.7,0.4,1.5,0.6,2.2,0.7
	c1.1,0.1,2.2,0.1,3.3-0.2l0.2-0.1c0.1,0,0.1-0.1,0.1-0.1c0,0,0-0.1,0-0.2c0-1,0-2,0-3.1c0-1.5,0-0.1,0-0.1c0-0.2,0-0.2-0.2-0.2h-3.6
	C82,16.7,81.9,16.7,81.8,16.7L81.8,16.7z"/>
<path d="M185.3,16.8L185.3,16.8c0.3,0.2,0.3,0.2,0.3,0.5c0,0.6,0.2,1.1,0.7,1.5c0.6,0.5,1.3,1,2.1,1.2c1.4,0.5,2.9,0.8,4.5,0.7
	c0.4,0,0.7-0.1,1.1-0.2c0.1,0,0.2-0.1,0.2-0.2c0.4-0.8,0.5-1.7,0.3-2.5c-0.1-0.5-0.4-0.9-0.9-1.2c-0.5-0.4-1.1-0.6-1.8-0.8
	c-0.9-0.2-1.8-0.4-2.7-0.6c-1.2-0.2-2.3-0.4-3.5-0.8c-0.7-0.2-1.3-0.5-1.9-0.8c-1.3-0.7-2.2-2-2.5-3.5c-0.2-1.2-0.1-2.3,0.2-3.5
	c0.5-1.6,1.7-3,3.2-3.7c0.2-0.1,0.4-0.3,0.6-0.4c0.9-0.9,2-1.5,3.2-1.8c1-0.3,2.1-0.4,3.1-0.4c1.5,0,2.9,0.2,4.3,0.7
	c0.9,0.3,1.7,0.6,2.6,1.1l0.7,0.4c0.1,0.1,0.3,0.1,0.4,0c0.2-0.2,0.4-0.1,0.6,0l-0.6,1.1l-1.6,3.1C198,7,198,7,197.7,6.9
	c-0.1,0-0.1-0.1-0.1-0.2c-0.1-0.8-0.6-1.6-1.3-2c-0.7-0.4-1.4-0.7-2.2-0.8c-1.2-0.2-2.5-0.3-3.8-0.1c-0.8,0.1-1.5,0.3-2.1,0.8
	c-0.3,0.2-0.6,0.5-0.8,0.8c0.1,0,0.1,0,0.2,0c0.7-0.3,1.4-0.5,2.2-0.5c1.1-0.1,2.2,0,3.2,0.2c0.8,0.1,1.6,0.4,2.3,0.9
	c0.5,0.3,0.8,0.7,1.1,1.2c0.1,0.2,0.1,0.4,0,0.6c-0.2,0.3-0.3,0.6-0.4,0.8s-0.1,0.2-0.4,0.1c-0.1,0-0.1-0.1-0.1-0.2
	c-0.1-0.7-0.5-1.4-1.1-1.8c-0.6-0.4-1.2-0.7-1.9-0.9c-1.5-0.4-3.1-0.4-4.7-0.1c-0.5,0.1-0.5,0.1-0.6,0.6c-0.3,1.1,0.1,2.2,1,2.8
	c0.5,0.3,1,0.6,1.6,0.7c0.9,0.3,1.8,0.5,2.7,0.6c1.2,0.2,2.4,0.5,3.6,0.8c0.7,0.2,1.4,0.5,2.1,0.9c1.3,0.8,2.1,2,2.4,3.5
	c0.2,1.2,0.2,2.4-0.2,3.6c-0.5,1.6-1.6,2.9-3,3.7c-1,0.6-2.1,0.9-3.3,1.1c-2.1,0.3-4.3,0.1-6.3-0.5c-0.9-0.3-1.8-0.7-2.6-1.1
	c-0.3-0.2-0.7-0.3-1-0.5c-0.2-0.1-0.4-0.1-0.6,0c-0.1,0-0.4-0.1-0.4-0.2c0,0,0,0,0-0.1l0.1-0.2l2.1-4.2
	C185.2,16.9,185.2,16.8,185.3,16.8z M184.8,3.3L184.8,3.3l-0.2,0.1c-0.7,0.6-1.3,1.4-1.7,2.3c-0.4,1.1-0.6,2.3-0.5,3.5
	c0.1,1.6,1,3,2.4,3.8c0.6,0.4,1.3,0.7,2,0.9c1.2,0.3,2.5,0.6,3.8,0.8c0.9,0.1,1.7,0.3,2.6,0.6c0.6,0.2,1.2,0.4,1.7,0.8
	c0.5,0.4,0.7,0.9,0.8,1.4c0.1,0.7,0,1.5-0.3,2.1c-0.1,0.1-0.1,0.2-0.1,0.3c0.5-0.3,0.9-0.7,1.2-1.2c0.2-0.5,0.4-1,0.4-1.6
	c0.1-0.9-0.3-1.7-1-2.2c-0.3-0.2-0.7-0.4-1.1-0.6c-0.9-0.3-1.8-0.5-2.7-0.7c-1.1-0.2-2.1-0.3-3.2-0.6c-0.9-0.2-1.8-0.6-2.7-1
	c-1.1-0.5-1.9-1.5-2.3-2.6c-0.2-0.6-0.4-1.3-0.4-2c-0.1-1.2,0.2-2.4,0.8-3.5C184.4,3.9,184.6,3.6,184.8,3.3z"/>
<path d="M115.7,17.5h-3.6c-0.2,0-0.2,0-0.3,0.2l-0.2,0.7c0,0.1,0,0.1,0.1,0.1h6.5c0.2,0,0.2,0,0.3,0.2l1.2,3.3l0.4,1
	c0.1,0.2,0.2,0.5,0.2,0.8c0,0.2-0.1,0.3-0.3,0.4c-0.1,0-0.1,0-0.1,0.1c0,0.1,0,0.2,0,0.4c0,0,0.1,0,0.1,0h0.2c1,0,1.9,0,2.9,0
	c0.2,0,0.4,0.1,0.6,0.1c0.1,0,0.1,0.1,0.1,0.2c0,0.4,0,0.3-0.3,0.3h-4.5c-0.3,0-0.3,0-0.3-0.3c0-0.1,0-0.2,0.1-0.2s0.3-0.2,0.3-0.4
	c0-0.2-0.1-0.5-0.2-0.7l-0.7-1.9l-0.8-2.4c-0.1-0.3-0.1-0.2-0.3-0.2h-5.5c-0.3,0-0.3,0-0.3,0.2l-0.9,2.4c-0.1,0.2-0.1,0.4-0.2,0.6
	c0,0,0,0.1,0,0.1c-0.1,0.3,0.1,0.5,0.4,0.6c0,0,0,0,0.1,0c0.1,0,0.2,0,0.2,0.1c0,0.1,0,0.2,0,0.4c0,0,0,0-0.1,0h-4.6
	c-0.1,0-0.2-0.1-0.2-0.2c0,0,0-0.1,0-0.1c0-0.1,0-0.1,0.1-0.2c0,0,0,0,0,0c0.4-0.1,0.7-0.4,0.8-0.8c0.2-0.4,0.3-0.8,0.4-1.2L111,9.8
	l2.4-7.4c0.1-0.2,0.1-0.5,0.1-0.7c0-0.2-0.1-0.3-0.3-0.4c-0.1,0-0.1,0-0.1-0.1s0-0.2,0-0.3s0.1,0,0.1,0h5.6c0.3,0,0.4,0,0.3,0.3
	c0,0.1,0,0.1-0.1,0.2c-0.2,0.1-0.4,0.3-0.3,0.6c0,0.4,0.1,0.8,0.2,1.3l4.2,13l1.8,5.6c0.1,0.3,0.2,0.5,0.3,0.8
	c0.1,0.3,0.3,0.5,0.6,0.5c0.1,0,0.1,0,0.1,0.1c0,0.1,0,0.2,0,0.3c0,0-0.1,0-0.1,0h-4.8c-0.1,0-0.1,0-0.1-0.1s0-0.1,0-0.2
	s0-0.1,0.1-0.1c0.3-0.1,0.4-0.2,0.3-0.5c0-0.2-0.1-0.4-0.1-0.6l-1.5-4.3c0,0,0-0.1,0-0.1c0-0.1-0.1-0.1-0.2-0.1c0,0,0,0,0,0
	L115.7,17.5L115.7,17.5z M115.8,5.2c-0.1,0-0.1,0.1-0.1,0.2c-0.2,0.6-0.4,1.2-0.6,1.8c0,0.1,0,0.3,0,0.4c0.5,1.6,1,3.1,1.4,4.7
	l0.5,1.8c0.1,0.2,0.1,0.2,0.3,0.2h0.8c0.1,0,0.3,0,0.4,0L115.8,5.2z M112.9,14.2h2.9l-1.4-4.6h-0.1L112.9,14.2z"/>
<path d="M36.5,17.5H33c-0.2,0-0.2,0-0.3,0.2s-0.2,0.4-0.2,0.6s0,0.2,0.1,0.2H39c0.3,0,0.2,0,0.3,0.2l0.9,2.7c0.2,0.5,0.4,1,0.6,1.6
	c0.1,0.3,0.2,0.6,0.2,0.9c0,0.1-0.1,0.3-0.2,0.3c-0.2,0.1-0.2,0.1-0.2,0.2s0,0.2,0.2,0.2c1,0,2,0,3,0c0.2,0,0.4,0.1,0.6,0.1
	c0,0,0.1,0,0.1,0.1s0,0.1,0,0.2s0,0.2-0.2,0.2h-4.7c-0.2,0-0.2,0-0.2-0.2s0-0.1,0-0.1s0-0.1,0.1-0.1c0.3-0.1,0.4-0.2,0.3-0.5
	c0-0.2-0.1-0.4-0.1-0.6l-1.5-4.3c-0.1-0.3,0-0.3-0.4-0.3h-5.4c-0.3,0-0.3,0-0.4,0.2c-0.3,0.9-0.6,1.8-0.9,2.6
	c-0.1,0.2-0.1,0.4-0.1,0.6c0,0.2,0.1,0.4,0.4,0.5c0.3,0.1,0.3,0.1,0.3,0.4c0,0.1,0,0.1-0.1,0.1h-4.5c-0.3,0-0.3,0-0.3-0.3
	c0-0.1,0-0.2,0.1-0.2c0.3-0.1,0.6-0.3,0.7-0.6c0.2-0.4,0.3-0.7,0.4-1.1l4.2-12.7l2-6.1c0.1-0.2,0.1-0.5,0.1-0.7
	c0-0.2-0.1-0.5-0.3-0.5c-0.1,0-0.1,0-0.1-0.1s0-0.2,0-0.3s0.1,0,0.1,0h5.6c0.3,0,0.3-0.1,0.3,0.3c0,0.1,0,0.1-0.1,0.2
	c-0.2,0.1-0.4,0.3-0.3,0.6c0,0.4,0.1,0.8,0.2,1.2l1.7,5.3L45,19.6l0.8,2.6c0.1,0.2,0.1,0.3,0.2,0.5c0.1,0.2,0.3,0.3,0.5,0.4
	c0.2,0,0.2,0,0.2,0.3s0,0.2-0.2,0.2h-4.6c-0.1,0-0.2,0-0.2-0.1c0-0.1,0-0.2,0-0.4h0.1c0.3-0.1,0.3-0.2,0.3-0.4c0-0.2,0-0.4-0.1-0.6
	c-0.5-1.5-1-3-1.6-4.4c0-0.1-0.2-0.2-0.3-0.2L36.5,17.5z M39.4,14.3l-2.8-9.1c-0.1,0-0.1,0.1-0.1,0.2c-0.2,0.6-0.4,1.2-0.5,1.7
	c0,0.1,0,0.3,0,0.4c0.5,1.7,1,3.3,1.5,5c0.2,0.5,0.3,1,0.5,1.5c0,0.1,0,0.2,0.2,0.2L39.4,14.3z M35.2,9.6L35.2,9.6
	c-0.5,1.5-1.1,3.1-1.5,4.7h2.9L35.2,9.6z"/>
<path d="M99.9,23.6h-2.6c-0.1,0-0.2,0-0.2,0c0-0.1,0-0.2,0-0.4c0-0.1,0.1,0,0.1,0c0.5-0.1,0.8-0.5,0.8-1.1c0-1.4,0-2.8,0-4.2
	c0-5.1,0-10.3,0-15.4c0-0.2,0-0.4-0.1-0.5c-0.1-0.3-0.3-0.6-0.7-0.6c-0.2,0-0.2-0.1-0.2-0.2s0-0.1,0-0.1s0-0.1,0.1-0.1h5.3
	c0.1,0,0.1,0,0.1,0.1s0,0.1,0,0.2s0,0.2-0.1,0.2c-0.4,0.1-0.8,0.4-0.8,0.9c0,0.1,0,0.2,0,0.3c0,6.5,0,13,0,19.5c0,0.2,0,0.4,0.1,0.5
	c0.1,0.3,0.4,0.5,0.7,0.6c0.1,0,0.2,0,0.2,0.1c0,0.1,0,0.2,0,0.3c0,0.1-0.1,0-0.2,0L99.9,23.6L99.9,23.6z"/>
<path d="M174.6,2.3c-0.2,0.2-0.3,0.5-0.4,0.8c-0.1,0.6-0.1,1.2,0.1,1.7c0.2,0.7,0.8,1.1,1.5,1.2c0.4,0.1,0.8,0.1,1.2,0h0.1
	c0.1,0,0.1,0,0.1,0.1c0,0.2,0,0.5-0.1,0.7c-0.1,0.3-0.2,0.6-0.4,0.9l0.1-0.1c0.6-0.4,1-1.1,1.3-1.7c0.1-0.3,0.2-0.6,0.2-0.9
	c0-0.2,0-0.2-0.2-0.2c-0.3,0.1-0.6,0.1-0.9,0.1c-0.3,0-0.5-0.1-0.8-0.1c-0.6-0.2-1-0.6-1.2-1.2c-0.2-0.6-0.2-1.2-0.1-1.7
	c0.1-0.7,0.7-1.2,1.4-1.4c0.6-0.2,1.2-0.2,1.8-0.1c0.8,0.1,1.5,0.7,1.8,1.4c0.2,0.4,0.3,0.9,0.4,1.4c0.1,1.5-0.4,3-1.5,4.1
	c-0.9,0.9-2,1.7-3.2,2.2c-0.3,0.1-0.6,0.3-0.9,0.3V9.4c-0.3,0.2-0.6,0.3-0.9,0.4l0.7-0.5c0.1-0.1,0.2-0.1,0.2-0.3s0-0.1,0.1-0.1
	c0.6-0.4,1.1-1,1.1-1.7c0-0.1,0-0.2,0-0.4c0-0.2,0-0.2-0.2-0.2l-0.4,0.1c-0.4,0.1-0.8,0-1.2-0.1c-0.7-0.2-1.3-0.9-1.4-1.6
	c-0.1-0.4-0.1-0.9,0-1.3c0.2-0.7,0.7-1.3,1.5-1.4L174.6,2.3z"/>
<path d="M97.6,39.3h-3.5c-0.1,0-0.1,0-0.1-0.1s0-0.2,0-0.2s0.2-0.3,0.2-0.4c0-2.1,0-4.3,0-6.4c0-0.2,0-0.4-0.2-0.4s-0.1-0.1,0-0.2
	s0.1-0.1,0.1-0.1h6.6c0.1,0,0.2,0,0.3,0c0.1,0,0.2-0.1,0.3-0.2c0-0.1,0.1-0.1,0.2-0.1s0.1,0.1,0.1,0.1c0,0.6,0,1.1,0,1.6
	c0,0.1,0,0.1-0.1,0.1s-0.2,0-0.2-0.1s-0.2-0.2-0.3-0.2h-4.8c-0.1,0-0.2,0-0.2,0.2c0,0.5,0,1,0,1.5c0,0.1,0,0.2,0.2,0.2H99
	c0.3,0,0.4-0.1,0.5-0.4c0-0.1,0.1-0.1,0.2-0.1s0.1,0.1,0.1,0.1c0,0.7,0,1.3,0,2c0,0.1,0,0.1-0.1,0.1s-0.2,0-0.2-0.1
	c0-0.2-0.2-0.4-0.5-0.4c0,0,0,0,0,0h-2.8c-0.1,0-0.2,0-0.2,0.1c0,0.6,0,1.1,0,1.7c0,0.2,0,0.2,0.2,0.2h4.6c0.1,0,0.2,0,0.3,0
	c0.1,0,0.3-0.1,0.3-0.3c0-0.1,0.1-0.1,0.2-0.1s0.1,0,0.1,0.1c0,0.6,0,1.2,0,1.8c0,0.1,0,0.1-0.1,0.1s-0.2,0-0.2-0.1
	s-0.2-0.2-0.3-0.2L97.6,39.3L97.6,39.3z"/>
<path d="M128.7,13.2c0,3.3,0,6.5,0,9.8c0,0.2,0,0.4-0.1,0.6c-0.1,0.3-0.4,0.5-0.6,0.5c-0.1,0-0.2,0.1-0.2,0.2c0,0,0,0.1,0,0.1
	c0,0.1,0,0.1,0.1,0.1h0.2c1,0,2,0,3,0c0.2,0,0.4,0.1,0.7,0.2c0,0,0.1,0,0.1,0.1s0,0.1,0,0.1c0,0.3,0,0.3-0.3,0.3h-4.8
	c0,0-0.1,0-0.1,0c0,0,0,0,0,0c0-0.1,0-0.2,0-0.3c0,0,0-0.1,0.1-0.1h0.1c0.4-0.1,0.7-0.4,0.7-0.9c0-0.1,0-0.1,0-0.2
	c0-6.5,0-13,0-19.6c0-0.2,0-0.3-0.1-0.5c-0.1-0.3-0.4-0.5-0.7-0.6c-0.1,0-0.2-0.1-0.2-0.2c0-0.1,0-0.1,0-0.2c0-0.1,0-0.1,0.1-0.1
	h1.4c0.1,0,0.1,0,0.2,0.1c0.2,0.2,0.3,0.4,0.3,0.7c0,0.1,0,0.2,0,0.3C128.7,6.8,128.7,10,128.7,13.2z"/>
<path d="M128.9,37.4h-1.6c-0.1,0-0.2,0.1-0.3,0.2c-0.1,0.3-0.3,0.6-0.4,0.9c0,0.1-0.1,0.2-0.1,0.3c-0.1,0.2-0.1,0.2,0.1,0.3
	c0.1,0,0.1,0.1,0.1,0.2c0,0.1,0,0.1-0.1,0.1h-1.8c-0.1,0-0.2,0-0.2-0.1s0-0.2,0.1-0.2c0.2-0.1,0.3-0.3,0.4-0.4l1.2-2.6l1.5-3.1
	c0.1-0.2,0.2-0.4,0.3-0.6c0.1-0.2,0.1-0.4-0.2-0.5c-0.2-0.1-0.1-0.1-0.1-0.2s0.1-0.1,0.1-0.1h2.2c0.1,0,0.1,0,0.1,0.1s0,0.2-0.1,0.2
	h-0.1c-0.1,0.1-0.2,0.2-0.1,0.4c0,0,0,0,0,0c0,0.1,0.1,0.2,0.1,0.2l2.8,5.5c0.1,0.2,0.2,0.4,0.3,0.6c0.1,0.2,0.2,0.3,0.4,0.4
	c0,0,0.1,0,0.1,0.1c0.1,0.1,0,0.2,0,0.2c0,0-0.1,0-0.1,0h-2.3c-0.1,0-0.1,0-0.2-0.1c0-0.1,0-0.2,0.1-0.2c0.2-0.1,0.2-0.2,0.1-0.4
	s-0.3-0.6-0.4-0.8s-0.1-0.3-0.2-0.4s-0.3,0-0.5,0L128.9,37.4z M130.2,36.3c-0.2-0.5-0.4-0.9-0.6-1.4s-0.4-0.9-0.6-1.4
	c-0.5,0.9-0.9,1.8-1.4,2.7H130.2z"/>
<path d="M96.9,13.3c0,3.3,0,6.5,0,9.8c0,0.2,0,0.3-0.1,0.5c-0.1,0.3-0.4,0.5-0.7,0.6c-0.1,0-0.2,0.1-0.2,0.2c0,0,0,0.1,0,0.1
	c0,0.1,0,0.1,0.1,0.1h0.2c1.1,0,2.3,0,3.4,0c0.2,0,0.5,0.1,0.7,0.1c0.1,0,0.1,0.1,0.1,0.1c0.1,0.3,0,0.4-0.3,0.4h-5.1
	c-0.3,0-0.3,0.1-0.3-0.3c0-0.1,0-0.1,0.2-0.2c0.5-0.1,0.8-0.5,0.8-1c0-0.1,0-0.1,0-0.2c0-6.5,0-12.9,0-19.4c0-0.2,0-0.4-0.1-0.6
	C95.5,3.2,95.3,3,95,2.9c-0.2,0-0.2,0-0.2-0.3s0-0.2,0.2-0.2h1.3c0.1,0,0.2,0,0.3,0.1c0.2,0.2,0.3,0.4,0.3,0.6c0,0.1,0,0.2,0,0.3
	C96.9,6.7,96.9,10,96.9,13.3z"/>
<path d="M2.5,13.2c0,3.2,0,6.5,0,9.7c0,0.2,0,0.4-0.1,0.6c-0.1,0.3-0.3,0.5-0.6,0.5c-0.2,0-0.2,0-0.2,0.3s0,0.2,0.2,0.2
	c1,0,1.9,0,2.9,0c0.2,0,0.4,0.1,0.6,0.2c0,0,0,0.1,0.1,0.1c0,0.3,0,0.4-0.3,0.4H0.8c-0.3,0-0.3,0-0.3-0.4c0-0.1,0-0.1,0.1-0.1h0.1
	c0.3,0,0.6-0.3,0.6-0.7c0-0.1,0-0.3,0-0.4c0-6.5,0-13,0-19.5c0-0.2,0-0.4,0-0.6C1.3,3.2,1,3,0.7,3C0.6,3,0.5,3,0.5,2.9
	c0-0.1,0-0.2,0-0.3c0,0,0.1,0,0.1,0h1.4c0.1,0,0.2,0.1,0.2,0.1C2.4,2.8,2.5,3,2.5,3.2c0,0.1,0,0.3,0,0.4C2.5,6.8,2.5,10,2.5,13.2z"
	/>
<path d="M106.1,25.2H104c-0.2,0-0.2,0-0.2-0.3s0-0.2,0.1-0.2c0.3-0.1,0.5-0.3,0.6-0.6c0.2-0.4,0.3-0.8,0.5-1.2l3.2-9.8l2.9-9
	c0.1-0.2,0.1-0.5,0.1-0.7c0-0.2-0.1-0.4-0.3-0.4c-0.1,0-0.1-0.1-0.1-0.2s0-0.1,0-0.1c0-0.2,0-0.2,0.2-0.2h1.1c0.2,0,0.3,0.1,0.3,0.3
	c0,0.3,0,0.5-0.1,0.8l-1.4,4.4l-3.9,11.9l-1,3c-0.1,0.3-0.2,0.5-0.3,0.7c-0.1,0.3-0.4,0.5-0.6,0.6c-0.1,0-0.2,0.1-0.1,0.2
	s0,0.1,0,0.2s0,0.1,0.1,0.1h3c0.2,0,0.4,0.1,0.6,0.1c0.1,0,0.1,0.1,0.1,0.1c0,0.1,0,0.1,0,0.2s0,0.2-0.2,0.2L106.1,25.2L106.1,25.2z
	"/>
<path d="M27,25.2h-2.2c-0.1,0-0.2,0.1-0.2-0.1s0-0.4,0.2-0.4c0.3-0.1,0.5-0.3,0.6-0.5c0.1-0.2,0.2-0.5,0.3-0.7l2.1-6.3l1.8-5.5
	L32,4.1c0.1-0.2,0.1-0.5,0.1-0.7C32.1,3.2,32,3,31.8,3c-0.1,0-0.1-0.1-0.1-0.2c0,0,0,0,0,0c0-0.1,0-0.1,0-0.2c0-0.1,0.1-0.2,0.2-0.2
	h1.1c0.2,0,0.3,0.1,0.3,0.2c0,0.2,0,0.5,0,0.7l-1.4,4.2l-4,12.3c-0.3,1-0.7,2-1,2.9c-0.1,0.2-0.2,0.5-0.3,0.7
	c-0.1,0.2-0.3,0.4-0.6,0.4c-0.2,0-0.2,0.1-0.2,0.3s0,0.2,0.2,0.2c0.9,0,1.9,0,2.8,0c0.2,0,0.4,0.1,0.6,0.1c0.1,0,0.1,0.1,0.1,0.1
	c0,0.1,0,0.1,0,0.1s0,0.2-0.2,0.2L27,25.2z"/>
<path d="M67.7,35.9c0,0.9,0,1.8,0,2.7c0,0.2,0,0.4,0.2,0.4s0.1,0.1,0.1,0.2s-0.1,0.1-0.1,0.1h-2c-0.1,0-0.2,0-0.2-0.1s0-0.2,0.1-0.2
	s0.2-0.2,0.2-0.4c0-0.5,0-1,0-1.6c0-1.3,0-2.6,0-3.9c0-0.1,0-0.1,0-0.2s0-0.2-0.2-0.2h-2.2c-0.2,0-0.4,0.1-0.4,0.3s-0.1,0.1-0.2,0.1
	s-0.1-0.1-0.1-0.1c0-0.4,0-0.7,0-1.1c0-0.2,0-0.5,0-0.7c0-0.1,0-0.1,0.1-0.1s0.2,0,0.2,0.1s0.3,0.3,0.5,0.3h6.4c0.2,0,0.4,0,0.4-0.3
	s0.1-0.1,0.2-0.1s0.1,0.1,0.1,0.1c0,0.6,0,1.2,0,1.8c0,0.1,0,0.1-0.1,0.1s-0.2,0-0.2-0.1c-0.1-0.2-0.2-0.3-0.4-0.3h-2.2
	c-0.2,0-0.2,0-0.2,0.2C67.7,34,67.7,35,67.7,35.9z"/>
<path d="M120.6,35.9c0,0.9,0,1.8,0,2.7c0,0.2,0,0.4,0.3,0.4s0.1,0.1,0.1,0.2s-0.1,0.1-0.1,0.1h-2c-0.1,0-0.1,0-0.1-0.1
	s0-0.2,0.1-0.2s0.2-0.2,0.2-0.4c0-1.8,0-3.7,0-5.5c0-0.3,0-0.3-0.3-0.3h-2.1c-0.2,0-0.3,0.1-0.4,0.2c0,0.1-0.1,0.1-0.2,0.1
	s-0.1-0.1-0.1-0.2c0-0.6,0-1.2,0-1.8c0-0.1,0-0.1,0.1-0.1s0.2,0,0.2,0.1s0.2,0.3,0.4,0.3h6.5c0.2,0,0.4,0,0.4-0.3s0.1-0.1,0.2-0.1
	s0.1,0.1,0.1,0.1c0,0.6,0,1.2,0,1.8c0,0.1,0,0.1-0.1,0.1s-0.2,0-0.2-0.1c-0.1-0.2-0.2-0.3-0.4-0.3h-2.3c-0.2,0-0.2,0-0.2,0.2
	C120.6,34,120.6,34.9,120.6,35.9z"/>
<path d="M77.9,35.9c0,0.9,0,1.8,0,2.8c0,0.2,0,0.3,0.2,0.4s0.1,0.1,0.1,0.2s-0.1,0.1-0.1,0.1h-2c-0.1,0-0.1,0-0.1-0.1s0-0.2,0.1-0.2
	s0.2-0.2,0.2-0.3c0-1.9,0-3.7,0-5.6c0-0.2,0-0.2-0.2-0.2h-2.1c-0.2,0-0.4,0-0.5,0.3s-0.1,0.1-0.2,0.1s-0.1-0.1-0.1-0.1
	c0-0.6,0-1.2,0-1.8c0-0.1,0-0.1,0.1-0.1s0.2,0,0.2,0.1s0.3,0.3,0.5,0.3h6.4c0.2,0,0.4,0,0.5-0.3s0.1-0.1,0.2-0.1s0.1,0.1,0.1,0.1
	c0,0.6,0,1.2,0,1.8c0,0.1,0,0.1-0.1,0.1s-0.2,0-0.2-0.1s-0.2-0.3-0.4-0.3h-2.2c-0.1,0-0.2,0-0.2,0.2c0,0.4,0,0.8,0,1.2
	S77.9,35.4,77.9,35.9z"/>
<path d="M148.7,34.7c0.1,0,0.1-0.1,0.1-0.1l1.7-2.3c0.1-0.1,0.1-0.2,0.2-0.3c0.1-0.1,0-0.2-0.1-0.2h-0.1c-0.1,0-0.1-0.1-0.1-0.2
	s0.1-0.1,0.1-0.1h2.3c0.1,0,0.1,0,0.1,0.1s0,0.2-0.1,0.2c-0.2,0-0.4,0.2-0.5,0.3c-0.3,0.3-0.5,0.7-0.7,1l-2,2.8
	c-0.1,0.1-0.1,0.2-0.1,0.4c0,0.8,0,1.6,0,2.4c0,0.2,0,0.3,0.2,0.3s0.1,0.1,0.1,0.2s-0.1,0.1-0.2,0.1h-2c-0.1,0-0.1,0-0.1-0.1
	s0-0.2,0.1-0.2s0.3-0.2,0.3-0.4c0-0.8,0-1.5,0-2.3c0-0.1,0-0.3-0.1-0.4c-0.9-1.2-1.8-2.5-2.6-3.7c-0.1-0.2-0.4-0.4-0.6-0.5
	c-0.1,0-0.1-0.1-0.1-0.2c0,0,0-0.1,0.1-0.1c0,0,0,0,0,0h2.9c0.1,0,0.1,0,0.1,0.1s0,0.2-0.1,0.2c0,0-0.1,0-0.1,0
	c-0.1,0-0.1,0.1-0.1,0.2c0,0,0,0,0,0c0.1,0.1,0.1,0.2,0.2,0.3c0.4,0.6,0.7,1.1,1.1,1.6L148.7,34.7z"/>
<path d="M85.7,34.9c0,0.9,0,1.8,0,2.7c0,0.1,0,0.1,0,0.2s0,0.1,0.1,0.1h4.6h0.3c0.2,0,0.3-0.1,0.4-0.3c0-0.1,0.1-0.1,0.2-0.1
	s0.1,0.1,0.1,0.2c0,0.6,0,1.2,0,1.8c0,0.1,0,0.1-0.1,0.1s-0.2,0-0.2-0.1s-0.2-0.2-0.3-0.2h-7.1c-0.1,0-0.2,0-0.2-0.1s0-0.1,0.1-0.2
	C84,39,84,39,84,38.7c0-2.2,0-4.3,0-6.5c0-0.3,0-0.3-0.3-0.4c-0.1,0-0.1-0.1-0.1-0.2s0.1-0.1,0.1-0.1H86c0.1,0,0.1,0,0.1,0.1
	s0,0.1-0.1,0.2c-0.3,0.1-0.3,0.1-0.3,0.4C85.7,33.1,85.7,34,85.7,34.9z"/>
<path d="M50.8,39.3h-3.5c-0.1,0-0.2,0-0.2-0.1s0-0.1,0.1-0.2c0.3-0.1,0.3-0.1,0.3-0.4c0-2.2,0-4.3,0-6.5c0-0.1,0-0.1,0-0.2
	c0-0.2-0.2-0.2-0.3-0.2s-0.2-0.1-0.1-0.2s0-0.1,0.1-0.1h2.3c0.2,0,0.2,0,0.2,0.2s0,0.1-0.1,0.1c-0.3,0.1-0.3,0.1-0.3,0.4
	c0,1.8,0,3.7,0,5.5c0,0.3,0,0.3,0.3,0.3h4.5h0.3c0.2,0,0.3-0.1,0.3-0.3c0-0.1,0.1-0.1,0.2-0.1s0.1,0,0.1,0.1s0,0.3,0,0.4
	c0,0.5,0,0.9,0,1.4c0,0.1,0,0.2-0.1,0.2s-0.2,0-0.2-0.1s-0.1-0.2-0.2-0.2c-0.1,0-0.2,0-0.3,0L50.8,39.3z"/>
<path d="M136.6,35.4c0-1,0-2,0-3.1c0-0.1,0-0.1,0-0.2c0-0.2,0-0.3-0.3-0.4c-0.1,0-0.1,0-0.2-0.1s0-0.2,0.2-0.2h2.3
	c0.1,0,0.1,0,0.1,0.1s0,0.2-0.1,0.2h-0.1c-0.2,0-0.2,0.1-0.2,0.3c0,0.2,0,0.1,0,0.2c0,1.8,0,3.6,0,5.4c0,2.7,0,0.1,0,0.1
	c0,0.2,0,0.2,0.2,0.2h4.6h0.3c0.2,0,0.3-0.1,0.4-0.3c0-0.1,0.1-0.1,0.2-0.1s0.1,0.1,0.1,0.2c0,0.6,0,1.2,0,1.8c0,0.1,0,0.1-0.1,0.1
	s-0.2,0-0.2-0.1s-0.2-0.2-0.3-0.2h-7.1c-0.1,0-0.1,0-0.1-0.1s0-0.1,0.1-0.2c0.3-0.1,0.3-0.1,0.3-0.4
	C136.6,37.5,136.6,36.5,136.6,35.4z"/>
<path d="M111.7,31.5h1.1c0.1,0,0.2,0,0.2,0.1s0,0.2-0.1,0.2s-0.3,0.1-0.3,0.4c0,1.1,0,2.1,0,3.2s0,2.1,0,3.2c0,0.1,0,0.1,0,0.2
	c0,0.2,0,0.3,0.3,0.4s0.1,0.1,0.1,0.2s-0.1,0.1-0.1,0.1h-2.2c-0.1,0-0.1,0-0.1-0.1s0-0.2,0.1-0.2s0.3-0.1,0.3-0.4c0-2.2,0-4.3,0-6.5
	c0-0.3,0-0.3-0.3-0.4s-0.1-0.1-0.1-0.2s0.1-0.1,0.1-0.1L111.7,31.5z"/>
<path d="M58.8,31.5h1.1c0.1,0,0.2,0,0.2,0.1s0,0.2-0.1,0.2s-0.3,0.1-0.3,0.4c0,2.2,0,4.4,0,6.5c0,0.3,0,0.3,0.3,0.4
	c0.1,0,0.1,0.1,0.1,0.2s-0.1,0.1-0.1,0.1h-2.2c-0.1,0-0.2,0-0.2-0.1s0-0.1,0.1-0.2s0.3-0.1,0.3-0.4c0-2.2,0-4.3,0-6.5
	c0-0.2,0-0.3-0.3-0.4s-0.1-0.1-0.1-0.2s0.1-0.1,0.2-0.1L58.8,31.5z"/>
<path d="M183.1,18.4c0.1,0,0.2,0.1,0.3,0.2c0.1,0,0.1,0.1,0.1,0.2c0,0.2,0,0.3,0,0.5c0,0.1,0,0.2-0.1,0.3l-1.4,2.7
	c0,0.1-0.1,0.2,0,0.3c0.1,0.1,0.2,0.2,0.4,0.1c0.1-0.1,0.3-0.1,0.5,0c0.4,0.2,0.8,0.4,1.1,0.6c1.1,0.6,2.3,1.1,3.5,1.4
	c1,0.2,2,0.4,2.9,0.4c1,0,2,0,3-0.2c0.5-0.1,0.9-0.2,1.4-0.4c0.1,0,0.2-0.1,0.3-0.1c-0.1,0.1-0.2,0.1-0.3,0.2c-0.9,0.5-1.9,0.8-3,1
	c-2.2,0.3-4.4,0.1-6.4-0.5c-0.9-0.3-1.8-0.7-2.7-1.2c-0.3-0.2-0.6-0.3-0.9-0.5c-0.1-0.1-0.3-0.1-0.5,0c-0.1,0.1-0.4-0.1-0.4-0.2
	s0-0.1,0.1-0.2l0.9-1.9l1.2-2.4C183,18.5,183,18.4,183.1,18.4z"/>
<path d="M55.4,5.8c0.2-0.2,0.4-0.3,0.6-0.4c0.9-0.5,1.9-0.7,2.9-0.7c1,0,2.1,0.1,3.1,0.4c0.6,0.2,1.2,0.5,1.6,0.9
	c0.3,0.2,0.5,0.6,0.6,0.9c0.1,0.2,0,0.3-0.1,0.4c-0.2,0.3-0.4,0.6-0.6,1c-0.1,0.1-0.1,0.2-0.2,0.1s-0.2-0.1-0.2-0.3
	c0-0.1,0-0.3,0-0.4c-0.1-0.4-0.3-0.8-0.6-1.1c-0.5-0.5-1.1-0.8-1.7-1c-1.5-0.5-3.1-0.6-4.6-0.2l-0.4,0.1L55.4,5.8z"/>
<path d="M78.8,5.8c0.4-0.3,0.8-0.5,1.2-0.6c1-0.3,2-0.5,3.1-0.4c0.9,0,1.7,0.2,2.5,0.5c0.6,0.2,1.1,0.6,1.6,1
	c0.2,0.2,0.4,0.5,0.5,0.8c0,0.1,0,0.2,0,0.3l-0.7,1c0,0.1-0.1,0.2-0.2,0.1s-0.3,0-0.2-0.2c0,0,0-0.1,0-0.1c0.1-0.5-0.1-1.1-0.5-1.4
	c-0.4-0.4-1-0.7-1.5-0.9c-1.6-0.6-3.3-0.7-5-0.3l-0.3,0.1L78.8,5.8z"/>
<path d="M164.4,33.7c0,0.4,0,0.7,0,1.1c0,0.1,0,0.2-0.2,0.2h-2.1c-0.1,0-0.2-0.1-0.2-0.2c0-0.7,0-1.4,0-2.1c0-0.1,0-0.2,0.2-0.2h2.1
	c0.1,0,0.2,0,0.2,0.2C164.4,33,164.4,33.3,164.4,33.7z"/>
<path d="M34.7,33.7c0-0.4,0-0.7,0-1.1c0-0.2,0-0.2,0.2-0.2H37c0.2,0,0.2,0,0.2,0.2c0,0.7,0,1.4,0,2.1c0,0.2,0,0.2-0.2,0.2h-2.1
	c-0.2,0-0.2,0-0.2-0.2C34.7,34.4,34.7,34.1,34.7,33.7z"/>
<path d="M40.2,33.7c0,0.4,0,0.7,0,1.1c0,0.2,0,0.2-0.2,0.2h-2.1c-0.2,0-0.2,0-0.2-0.2c0-0.7,0-1.4,0-2.1c0-0.2,0-0.2,0.2-0.2H40
	c0.2,0,0.2,0,0.2,0.2S40.2,33.3,40.2,33.7z"/>
<path d="M160.2,32.4h1.1c0.1,0,0.2,0,0.2,0.1c0,0.7,0,1.5,0,2.2c0,0.1,0,0.2-0.2,0.2h-2.1c-0.1,0-0.2,0-0.2-0.2c0-0.7,0-1.5,0-2.2
	c0-0.1,0-0.2,0.2-0.1H160.2z"/>
<path d="M163.2,38h-1c-0.1,0-0.2,0-0.2-0.2c0-0.7,0-1.4,0-2.1c0-0.1,0-0.2,0.2-0.2h2.2c0.1,0,0.2,0,0.2,0.2c0,0.7,0,1.4,0,2.2
	c0,0.1-0.1,0.1-0.2,0.1L163.2,38z"/>
<path d="M40.2,36.7c0,0.4,0,0.7,0,1.1c0,0.2,0,0.2-0.2,0.2h-2.1c-0.2,0-0.2,0-0.2-0.2c0-0.7,0-1.4,0-2.1c0-0.2,0-0.2,0.2-0.2H40
	c0.2,0,0.2,0,0.2,0.2S40.2,36.4,40.2,36.7z"/>
<path d="M161.4,36.7c0,0.4,0,0.7,0,1.1c0,0.2,0,0.2-0.2,0.2h-2.1c-0.1,0-0.2,0-0.2-0.2c0-0.7,0-1.4,0-2.1c0-0.1,0.1-0.2,0.2-0.2h2.1
	c0.1,0,0.2,0,0.2,0.2C161.4,36,161.4,36.4,161.4,36.7z"/>
<path d="M35.9,38h-1c-0.2,0-0.2,0-0.2-0.2c0-0.7,0-1.4,0-2.1c0-0.2,0-0.2,0.2-0.2H37c0.2,0,0.2,0,0.2,0.2c0,0.7,0,1.4,0,2.1
	c0,0.2,0,0.2-0.2,0.2H35.9z"/>
<path d="M58.4,16.7c0,0.2,0,0.2-0.2,0.2S58,17,57.9,16.9s-0.1,0-0.1,0c-0.2,0.1-0.4,0.3-0.5,0.5c0,0.1-0.1,0.2-0.2,0.2
	c0,0,0,0-0.1,0h-0.2c-0.1,0-0.1,0-0.1-0.1s0-0.1,0-0.2c0-1.4,0-2.7,0-4.1c0,0,0-0.1,0-0.1c0-0.1,0-0.2,0.2-0.2h0.2
	c0.1,0,0.1,0,0.1,0.1c0,0,0,0,0,0c0.1,0.2,0.3,0.4,0.5,0.4c0.2,0,0.2,0.1,0.2,0.3c0,0.9,0,1.8,0,2.8c0,0.1,0,0.2,0,0.3L58.4,16.7
	L58.4,16.7z"/>
<path d="M81.8,16.7c0,0.2,0,0.2-0.2,0.2s-0.2,0.1-0.3-0.1s-0.1,0-0.1,0c-0.2,0.1-0.4,0.3-0.5,0.5c0,0.1-0.1,0.2-0.2,0.2h-0.2
	c0,0-0.1,0-0.1-0.1c0,0,0,0,0,0c0-0.1,0-0.1,0-0.2c0-1.4,0-2.8,0-4.1c0-0.1,0-0.1,0-0.2c0,0,0,0,0-0.1c0.1-0.1,0.4,0,0.4,0.1
	c0.1,0.2,0.2,0.4,0.5,0.5c0.2,0.1,0.2,0.1,0.2,0.3c0,0.9,0,1.8,0,2.7c0,0.1,0,0.2,0,0.3L81.8,16.7L81.8,16.7z"/>
<path d="M173.8,10c0,0,0,0.1,0,0.1c0,0.3,0,0.7,0,1c0.3,0,0.5-0.2,0.8-0.2c-0.6,0.4-1.2,0.6-1.9,0.8c-0.1,0,0-0.1,0-0.1
	c0-0.3,0-0.5,0-0.8c0-0.1,0-0.2,0.1-0.2L173.8,10z"/>
<path d="M151.8,38.1c-0.4,0-0.8-0.4-0.8-0.8c0-0.4,0.4-0.8,0.8-0.8c0.4,0,0.8,0.4,0.8,0.8C152.6,37.7,152.2,38.1,151.8,38.1
	C151.8,38.1,151.8,38.1,151.8,38.1z M151.2,37.3c0,0.3,0.3,0.6,0.6,0.6c0.3,0,0.6-0.3,0.6-0.6c0-0.3-0.3-0.6-0.6-0.6
	C151.5,36.7,151.2,36.9,151.2,37.3C151.2,37.3,151.2,37.3,151.2,37.3L151.2,37.3z"/>
<path d="M152.2,37.7c-0.1,0-0.2,0-0.2-0.1c0,0,0-0.1,0-0.1c0-0.1-0.1-0.1-0.2-0.1c-0.1,0-0.1,0.1-0.1,0.1s0,0.1,0,0.1s0,0.1-0.1,0.1
	s-0.1,0-0.1-0.1s0-0.4,0-0.6c0,0,0-0.1,0.1-0.1c0,0,0,0,0,0c0.1,0,0.3,0,0.4,0c0.1,0,0.2,0.1,0.1,0.2c0,0,0,0,0,0
	c-0.1,0.1-0.1,0.2,0,0.3C152.2,37.5,152.2,37.6,152.2,37.7z M151.8,37c-0.1,0-0.1,0.1-0.1,0.1s0,0.1,0.1,0.1s0.1,0,0.1-0.1
	S151.9,37.1,151.8,37L151.8,37z"/>
</svg>
