<?xml version="1.0" encoding="utf-8"?>
<!-- Generator: Adobe Illustrator 21.1.0, SVG Export Plug-In . SVG Version: 6.00 Build 0)  -->
<svg version="1.1" id="Layer_1" xmlns="http://www.w3.org/2000/svg" xmlns:xlink="http://www.w3.org/1999/xlink" x="0px" y="0px"
	 viewBox="0 0 175 126" style="enable-background:new 0 0 175 126;" xml:space="preserve">
<style type="text/css">
	.st0{fill:#16499D;}
	.st1{fill:#ED1B3B;}
</style>
<title>CR</title>
<path class="st0" d="M82.2,125.5H25.9c-7.1,0.1-13.4-4.4-15.7-11.1c-2.6-7.6-4.3-15.4-6.5-23.1c-0.9-3-1.6-6-2.5-9
	c-1.1-3.6-0.8-7.5,0.8-11C10.7,51,19.5,30.7,28.5,10.5c2.9-6.5,8.3-9.9,15.3-9.9c25.2-0.2,50.4-0.2,75.6,0c7.1,0,12.7,3.4,15.7,10
	c8.4,18.5,16.6,37,24.9,55.5c0.7,1.5,1.3,3.1,2.1,4.6c1.7,3.5,2,7.4,0.9,11.1c-2.8,10.8-5.8,21.5-8.7,32.3
	c-1.7,6.3-8.7,11.5-15.2,11.5L82.2,125.5z M82.1,119.6h56.5c4.6-0.2,8.7-3.2,10.1-7.6c2.7-9.7,5.2-19.4,7.9-29.1
	c1-3.8,1.8-7.5-0.3-11.2c-2.8-5.1-5-10.5-7.4-15.8c-6.4-14.2-12.7-28.4-19.2-42.6c-2-4.4-5.5-6.9-10.5-6.9H80
	c-11.8,0-23.7-0.1-35.5,0c-5.2,0.1-9.1,2.4-11.2,7.3c-3.4,7.9-6.9,15.8-10.4,23.7L7.6,72.4c-1.4,2.8-1.7,6-0.7,9
	c0.7,2.3,1.2,4.6,1.9,6.9c2.3,8.3,4.4,16.7,7.3,24.8c0.7,1.9,2,3.6,3.7,4.7c2,1.3,4.3,1.9,6.6,1.8C44.9,119.6,63.5,119.6,82.1,119.6
	z"/>
<path class="st0" d="M174.5,120c0,3-2.4,5.5-5.4,5.5c-3,0-5.5-2.4-5.5-5.4c0,0,0,0,0,0c0-3,2.4-5.4,5.5-5.4
	C172.1,114.6,174.5,117,174.5,120z M173.7,120c0.1-2.5-1.8-4.7-4.4-4.8c-2.5-0.1-4.7,1.8-4.8,4.4c0,0.1,0,0.3,0,0.4
	c0,2.5,2,4.6,4.5,4.6C171.6,124.6,173.6,122.6,173.7,120L173.7,120z"/>
<path class="st1" d="M107.4,47.1c-0.8,0.4-0.9,1-1.1,1.5c-5.2,10.3-10.4,20.6-15.5,31c-0.3,0.9-1.2,1.5-2.2,1.4
	c-4.6-0.1-9.2-0.1-13.8,0c-0.9,0.1-1.7-0.5-2-1.3C67.6,69.2,62.3,58.8,57,48.5c-0.1-0.5-0.5-0.9-0.9-1.1c-0.2,1.8-0.4,3.5-0.5,5.2
	c-0.7,9-1.5,17.9-2.2,26.9c-0.1,1.1-0.5,1.3-1.5,1.3c-7.6,0-15.2,0-22.8,0c-2.5,0-2.2,0.2-1.6-2.1c5.4-18.3,10.9-36.6,16.4-54.9
	c0.4-1.4,0.9-2.8,1.2-4.2c0.1-0.7,0.7-1.2,1.5-1.2c0,0,0,0,0,0c6.5,0,13,0,19.4,0c1,0,1.3,0.6,1.5,1.3c4.3,10.9,8.7,21.8,13.1,32.7
	c0.1,0.3,0.2,0.7,0.4,1c0.2,0.4,0.2,1.1,0.7,1.1s0.5-0.7,0.7-1.1c3.3-8.4,6.6-16.9,9.9-25.3c1.1-2.8,2.2-5.6,3.3-8.5
	c0.2-0.8,1-1.3,1.8-1.2c6.3,0,12.6,0,18.8,0c0.9-0.1,1.8,0.5,1.9,1.4c0,0,0,0,0,0c3.6,11.8,7.2,23.6,10.9,35.4
	c2.4,7.8,4.9,15.7,7.3,23.6c0.6,1.9,0.6,1.9-1.3,1.9c-7.6,0-15.2,0-22.8,0c-1.3,0-1.7-0.3-1.8-1.6c-0.8-10-1.7-20.1-2.5-30.1
	C107.6,48.5,107.5,47.9,107.4,47.1z"/>
<path class="st0" d="M31.2,96.9c0.5-2.2,0.9-4.4,1.4-6.7c0.2-1.1,0.7-1.6,1.9-1.6c3.9,0,3.9,0,4.3,3.9s1,7.7,1.5,11.6
	c0.2,1.9,0.3,1.9-1.6,1.9c-0.1,0-0.3,0-0.4,0c-1.6,0.3-1.9-0.5-2-1.9c-0.2-2.8-0.6-5.5-1.1-8.3c-0.8,1.4-0.8,3-1.1,4.5
	s-0.5,3-0.7,4.5c-0.1,0.9-0.4,1.2-1.3,1.2c-3.2,0-3.2,0.1-3.7-3.1c-0.3-2-0.7-4.1-1-6.1c0-0.5-0.2-0.9-0.6-1.1
	c-0.3,2.8-0.7,5.6-0.9,8.3c-0.2,2.1-0.2,2.1-2.2,2.1c-0.5,0-0.9,0-1.4,0c-0.7,0-0.8-0.3-0.7-0.9c0.7-5,1.4-10,2-15
	c0.1-1,0.5-1.4,1.7-1.4c3.9,0,3.9-0.1,4.7,3.6c0.3,1.6,0.7,3.1,1,4.6L31.2,96.9z"/>
<path class="st0" d="M132.2,96.8c0,2.6-0.1,5.2,0,7.9c0,1.2-0.4,1.6-1.5,1.4c-0.9-0.1-2.2,0.6-2.2-1.3c0.1-4.9,0-9.8,0-14.7
	c0-1,0.4-1.3,1.3-1.4c4.2-0.2,4.2-0.2,5.3,3.9c0.5,2.1,1.1,4.2,1.6,6.3h0.4c0-1.3,0-2.6,0-3.9c0-1.7,0-3.4,0-5.1c0-0.8,0.2-1.1,1-1
	c3.3,0.1,2.7-0.4,2.8,2.7c0,4.4,0,8.9,0,13.3c0,1-0.3,1.4-1.4,1.4c-4.3,0-4.3,0.1-5.5-4c-0.5-1.8-1-3.5-1.5-5.3L132.2,96.8z"/>
<path class="st0" d="M69.5,106c-4,0.3-4,0.3-5.2-3.3c-0.3-0.7-0.5-1.4-0.7-2.1c-0.2-0.5-0.4-0.9-0.9-0.8s-0.6,0.6-0.6,1
	c0,1.4,0,2.8,0,4.2c0,0.8-0.3,1.1-1.1,1c-3.5-0.1-2.8,0.4-2.9-2.7c0-4.4,0-8.8,0-13.2c0-1.2,0.5-1.6,1.6-1.6c2.1-0.1,4.1,0,6.2,0.3
	c0.9,0.1,1.7,0.5,2.4,1.2c1.9,2,1.7,7.1-0.4,8.9c-0.7,0.6-0.5,1-0.3,1.6C68.1,102.3,68.8,104,69.5,106z M61.9,94.4
	c0.3,0.9-0.7,2.4,1.3,2.4c1.4,0,2.1-0.8,2.1-2.3s-0.7-2.3-2.1-2.3C61.3,92,62.3,93.5,61.9,94.4L61.9,94.4z"/>
<path class="st0" d="M97.4,97.4c0-2.5,0-5,0-7.4c0-0.9,0.1-1.3,1.1-1.3c3.7,0.1,2.9-0.2,3,3c0,0.6,0,1.1,0,1.7
	c0.1,0.7-0.4,1.7,0.3,2.1c1,0.4,2.1,0.4,3.1,0.1c0.6-0.1,0.5-0.7,0.5-1.1c0-1.5,0.1-3,0-4.6c0-0.9,0.2-1.3,1.2-1.2
	c3.5,0.1,2.9-0.4,2.9,2.7c0,4.3,0,8.7,0,13c0,1.2-0.3,1.7-1.6,1.6c-2.5-0.1-2.5,0-2.5-2.5c0-0.6,0-1.2,0-1.8c0-2.4-1.1-3.2-3.4-2.5
	c-0.6,0.2-0.6,0.6-0.6,1c0,1.5,0,3,0,4.6c0,0.8-0.1,1.2-1.1,1.2c-3.1,0.1-3.1,0.1-3.1-2.9C97.4,101.2,97.4,99.3,97.4,97.4z"/>
<path class="st0" d="M112.4,97.5c0.1-1.2,0.1-2.4,0.2-3.6c0.5-3.8,3.1-5.9,7-5.5s5.5,2.2,5.9,5.9c0.1,1.9,0.1,3.9,0,5.8
	c-0.3,5.3-3.2,6.9-8.1,6.3c-3.1-0.4-4.5-2.1-4.9-5.3C112.5,99.8,112.5,98.6,112.4,97.5z M116.4,97.5c0,1.2,0.1,2.5,0.3,3.7
	c0.1,1.2,1.2,2,2.3,2c1.1,0,2.1-0.8,2.2-1.9c0.6-2.5,0.6-5,0-7.5c-0.2-1.1-1.1-1.9-2.3-1.9c-1.2,0-2.2,0.8-2.3,2
	C116.5,95.1,116.4,96.3,116.4,97.5L116.4,97.5z"/>
<path class="st0" d="M48.7,88.7c3.1,0,3.1,0,3.8,3.1c0.9,4.3,1.8,8.6,2.8,12.9c0.3,1.2-0.1,1.6-1.2,1.4c-0.5-0.1-0.9-0.1-1.4,0
	c-1.2,0.2-1.7-0.4-1.7-1.5c0-1.3-0.7-1.8-1.9-1.6c-0.4,0.1-0.8,0.1-1.2,0c-1.1-0.2-1.5,0.3-1.7,1.4c-0.1,0.5,0.1,1.5-0.6,1.6
	c-1.1,0.1-2.3,0.1-3.5,0c-0.4,0-0.3-0.6-0.2-0.9c1.1-5,2.1-10.1,3.2-15.1c0.2-0.8,0.6-1.2,1.4-1.2C47.3,88.8,48,88.7,48.7,88.7z
	 M48.5,92.5c-0.4,1.9-0.8,3.8-1.1,5.7c-0.1,0.5-0.5,1.2,0.1,1.5c0.8,0.3,1.6,0.3,2.4,0.1c0.3-0.1,0.3-0.4,0.2-0.6
	C49.8,96.9,49.3,94.7,48.5,92.5L48.5,92.5z"/>
<path class="st0" d="M82.1,106.1c-1.3,0.4-2.1-0.3-2.1-1.9c0-0.9-0.5-1.2-1.4-1.1c-0.4,0.1-0.8,0.1-1.2,0c-1.5-0.3-2.2,0.4-2.2,1.8
	c0,1.3-0.8,1.2-1.8,1.2c-2.6,0-2.6,0-2.1-2.5c0.9-4.6,1.9-9.1,2.8-13.7c0.2-0.9,0.5-1.2,1.4-1.2c1.3,0.1,2.6,0.1,3.9,0
	c1,0,1.4,0.3,1.6,1.3c1,4.9,2.1,9.8,3.2,14.7c0.3,1.3-0.1,1.5-1.2,1.4C82.8,106.1,82.5,106.1,82.1,106.1z M77.9,92.7h-0.4L76.3,99
	c-0.2,1,0.6,0.8,1.1,0.8s1.8,0.4,1.8-0.5C79,97.1,78.6,94.8,77.9,92.7L77.9,92.7z"/>
<path class="st0" d="M87.9,99.2c0-1.8-0.1-3.5,0-5.3c0.1-1.2-0.3-1.6-1.5-1.6c-2.3,0.1-2.7-0.6-2.3-2.9c0.1-0.6,0.5-0.7,1-0.7
	c3.2,0,6.4,0,9.6,0c0.7,0,1,0.3,1,1c0.2,2.5,0.1,2.7-2.4,2.6c-1.2,0-1.4,0.4-1.4,1.5c0.1,3.6,0,7.2,0,10.8c0,1.1-0.2,1.6-1.5,1.6
	c-2.8-0.2-2.4,0.4-2.5-2.5C87.9,102.1,87.9,100.6,87.9,99.2z"/>
<path class="st0" d="M167,120c0-0.2,0-0.3,0-0.4c0-2.7,0.6-3.1,3.3-2.5c0.6,0.1,1.1,0.4,1.2,1s0.3,1.5-0.4,1.8
	c-1.3,0.6-0.6,1.2-0.2,1.9c0.2,0.4,1,0.8,0.4,1.2s-0.7-0.5-1-0.9c-0.6-0.6-0.6-1.9-1.7-1.7s-0.4,1.3-0.6,2c-0.1,0.2,0,0.5-0.4,0.6
	s-0.4-0.3-0.4-0.6C167,121.6,167,120.8,167,120z M169,119.7c0.7-0.1,1.6,0.1,1.6-1.1c0-1-0.9-0.9-1.6-1s-1.2,0.1-1.2,1
	S168.2,119.7,169,119.7L169,119.7z"/>
</svg>
