<?xml version="1.0" encoding="utf-8"?>
<!-- Generator: Adobe Illustrator 21.1.0, SVG Export Plug-In . SVG Version: 6.00 Build 0)  -->
<svg version="1.1" id="Layer_1" xmlns="http://www.w3.org/2000/svg" xmlns:xlink="http://www.w3.org/1999/xlink" x="0px" y="0px"
	 viewBox="0 0 181 59.5" style="enable-background:new 0 0 181 59.5;" xml:space="preserve">
<style type="text/css">
	.st0{fill:#F18A05;}
	.st1{fill:#E84B37;}
</style>
<title>Grocery</title>
<path class="st0" d="M31.6,0.5c0,0.1,0.2,0.1,0.2,0.1c2.4,0.2,4.7,0.6,6.9,1.3c9.6,3.1,17,11,19.4,20.9c3.8,15.7-5.8,31.5-21.6,35.3
	c-0.1,0-0.3,0.1-0.4,0.1c-1.4,0.3-2.9,0.5-4.4,0.6c-0.3,0-0.5,0.1-0.8,0.1h-2.3c-0.3,0-0.6,0-0.9-0.1c-1.6-0.1-3.2-0.3-4.7-0.7
	C12.8,55.7,4.6,47.9,1.7,37.7c-0.5-1.8-0.8-3.6-1-5.4c-0.1-0.7-0.1-1.3-0.2-2v-1.8c0.1-0.2,0.1-0.5,0.1-0.8c0.1-1.4,0.3-2.9,0.6-4.3
	c2.2-9.9,9.3-17.9,18.9-21.3c2.9-1,5.9-1.5,9-1.6L31.6,0.5z M31.3,46.6c0,0.6,0,1.3,0,1.9c0.1,2.6,0.4,5.1,0.6,7.7
	c0,0.2,0.1,0.3,0.3,0.2h0.1c1.6-0.1,3.2-0.4,4.7-0.9c11-3.1,18.9-12.8,19.6-24.2c0.2-2.5,0-5.1-0.6-7.6C54.2,16.2,49.3,9.7,42.3,6
	C36.6,3,29.9,2.1,23.5,3.6C11.9,6.4,3.5,16.6,3,28.6c-0.1,2.1,0.1,4.2,0.5,6.3C5.5,45.4,13.7,53.7,24.2,56c1.1,0.2,2.1,0.4,3.2,0.5
	c0.3,0,0.3,0,0.3-0.2c0.1-0.8,0.1-1.6,0.2-2.5c0.1-1.5,0.2-2.9,0.3-4.4c0.1-1.8,0.1-3.7,0-5.5c-0.1-1.2-0.5-2.3-1.2-3.3
	c-0.3-0.4-0.6-0.8-1-1.3c-0.8-1-1.6-1.9-2.3-2.9c-0.7-1-1.2-2-1.5-3.2c-0.3-1.2-0.4-2.4-0.3-3.7c0.1-2,0.6-3.9,1.4-5.7
	c0.7-1.5,1.7-2.9,2.9-4c0.8-0.7,1.7-1.3,2.7-1.6c0.6-0.2,1.2-0.2,1.8,0c1.1,0.3,2.2,0.9,3,1.8c1.1,1.1,2,2.4,2.6,3.9
	c0.7,1.7,1.2,3.4,1.3,5.2c0.1,1.2,0,2.4-0.2,3.6c-0.3,1.3-0.8,2.5-1.6,3.6c-0.6,0.8-1.3,1.7-1.9,2.4c-0.6,0.6-1.1,1.3-1.6,2
	c-0.5,0.7-0.8,1.5-0.9,2.3C31.2,44.2,31.2,45.4,31.3,46.6z"/>
<path class="st1" d="M88.6,26.6c0.4-0.5,0.7-1.1,1-1.6c1-1.8,1.8-3.8,2.7-5.7c1.1-2.3,2.1-4.7,3.4-7c0.8-1.4,1.6-2.7,2.7-3.9
	c0.6-0.8,1.4-1.4,2.3-1.8c1-0.5,2.1-0.6,3.2-0.3c0.3,0.1,0.5,0.2,0.8,0.3c0.1,0.1,0.2,0.2,0.1,0.4c0,0,0,0,0,0
	c-0.3,1.1-0.7,2.2-1,3.3c-1.2,4.2-2.3,8.3-3.3,12.6c-0.4,1.9-0.8,3.8-1.1,5.8c-0.1,0.7-0.2,1.5-0.2,2.2c0.1,0,0.3,0,0.4,0
	c0.6-0.2,1.2-0.5,1.7-1c0.5-0.5,1-1,1.4-1.5c0.5-0.7,1-1.4,1.4-2.2c0.1-0.2,0.2-0.4,0.2-0.6c0.7-2.3,1.8-4.4,3.4-6.2
	c0.9-1.1,2-1.9,3.3-2.4c0.8-0.3,1.7-0.4,2.5-0.3c0.7,0.1,1.3,0.4,1.8,0.9c0.1,0.1,0.2,0.2,0.3,0.3c0.1,0,0.2-0.1,0.2-0.2
	c0.5-0.7,1.3-1.1,2.1-1.2c0.8-0.1,1.5,0,2.3,0.3c0.3,0.1,0.3,0.1,0.2,0.3c-1.1,3.3-2.1,6.6-2.9,10c-0.4,1.4-0.7,2.9-0.9,4.4
	c0,0.2,0,0.3-0.1,0.5c0.2,0.1,0.3,0,0.4-0.1c0.4-0.2,0.8-0.5,1.1-0.9c0.9-0.9,1.6-1.9,2.3-3c0.2-0.4,0.4-0.8,0.6-1.1
	c0.1-0.1,0.1-0.3,0.3-0.2c0.2,0,0.3,0.1,0.4,0.3c0,0.1,0,0.2,0,0.4c0,0.3-0.1,0.7-0.3,1c-0.7,1.8-1.9,3.4-3.4,4.6
	c-0.6,0.5-1.4,0.9-2.2,1c-0.3,0.1-0.7,0.1-1,0c-0.6-0.1-1.1-0.4-1.4-0.9c-0.3-0.6-0.5-1.2-0.6-1.8c-0.1-0.5-0.1-1-0.1-1.5
	c-0.1,0-0.2,0.2-0.2,0.3c-0.5,1-1.2,1.9-2,2.6c-0.6,0.6-1.3,1-2.1,1.2c-1.3,0.4-2.7-0.1-3.7-1.1c-0.5-0.6-0.9-1.4-1-2.3
	c-0.1-0.4-0.1-0.8-0.1-1.2c-0.1,0-0.1,0-0.1,0c-0.8,1.2-1.8,2.2-3,3c-0.7,0.5-1.6,0.9-2.4,1.2c-0.5,0.1-1,0.2-1.5,0.1
	c-0.6-0.1-1.1-0.5-1.4-0.9c-0.3-0.5-0.5-1.1-0.6-1.7c-0.1-0.8-0.1-1.7,0-2.5c0.4-3.5,1-7,1.9-10.4c0.5-2.2,1.1-4.3,1.7-6.4
	c0-0.1,0-0.2,0-0.3c-0.1,0.1-0.2,0.2-0.3,0.3c-1,1.5-1.9,3-2.7,4.7c-1.1,2.1-2,4.3-3,6.5c-0.8,1.8-1.7,3.5-2.7,5.2
	c-1,1.8-2.4,3.3-3.9,4.6c-0.7,0.6-1.5,1-2.4,1.2c-0.4,0.1-0.9,0.1-1.3-0.1c-0.3-0.1-0.3-0.1-0.2-0.4c0.6-1.8,1.1-3.6,1.7-5.3
	c1.8-5.8,3.5-11.5,5.3-17.3l0.6-1.9c0-0.1,0-0.1,0-0.2c-0.1,0.1-0.3,0.2-0.4,0.3c-1,1-1.9,2.2-2.7,3.4c-1.5,2.4-2.8,4.9-3.9,7.5
	c-0.7,1.6-1.4,3.2-2.3,4.8c-1.1,2-2.4,3.9-3.9,5.5c-1,1.1-2.2,2.1-3.5,2.8c-1.7,0.9-3.7,1.1-5.6,0.6c-0.3-0.1-0.7-0.2-1-0.4
	c-1.2-0.6-1.9-1.8-1.9-3.1c-0.1-0.6,0-1.2,0.3-1.7c0.6-1.3,2-1.9,3.4-1.6c1.1,0.3,1.7,1.3,1.5,2.4c-0.1,0.9-0.5,1.7-1.3,2.3
	c-0.4,0.3-0.8,0.5-1.3,0.7c0.2,0.2,0.5,0.4,0.8,0.5c0.7,0.2,1.4,0.3,2.2,0.1c1.2-0.3,2.3-0.9,3.2-1.8c0.8-0.8,1.6-1.8,2.2-2.8
	c1-1.6,1.9-3.3,2.6-5c1.1-2.3,2.2-4.5,3.4-6.7c1-1.8,2.2-3.5,3.5-5.1c1.2-1.4,2.6-2.5,4.2-3.4l0.1-0.1V7.5c-1.8,0-3.6-0.1-5.4-0.1
	c-1.3,0-2.6,0.1-3.8,0.4c-0.7,0.1-1.3,0.4-1.9,0.7c-1,0.6-1.7,1.7-1.7,2.8c0,1,0.2,2,0.6,2.9c0.4,0.9,1.1,1.6,2,1.9
	c-0.2,0.7-0.9,1.1-1.6,0.9c-0.5-0.1-0.9-0.4-1.2-0.8c-0.4-0.6-0.7-1.2-0.8-1.9c-0.5-2.2,0-4.5,1.4-6.3c1.1-1.3,2.5-2.3,4.2-2.8
	c1.6-0.5,3.3-0.7,4.9-0.5c1.6,0.2,3.1,0.5,4.6,0.8c1.5,0.3,3.1,0.4,4.7,0.4c0.6,0,0.7,0.1,0.5,0.7l-4.8,14.3l-1.9,5.4
	C88.6,26.3,88.5,26.4,88.6,26.6c-0.1,0.1-0.1,0.1-0.1,0.1C88.6,26.7,88.6,26.6,88.6,26.6z M108.6,29.6c0,0.1,0,0.3,0,0.4
	c0,0.4,0,0.7,0.1,1.1c0.2,0.6,0.5,0.7,1,0.5c0.3-0.1,0.6-0.4,0.9-0.6c1-1,1.8-2.3,2.3-3.7c0-0.1,0.1-0.2,0.1-0.3
	c0.1-0.8,0.3-1.6,0.5-2.4c0.4-1.8,1-3.6,1.6-5.3c0.1-0.2,0-0.4-0.1-0.5c-0.6-0.7-1.7-0.8-2.4-0.2c-0.1,0.1-0.2,0.2-0.2,0.3
	c-0.4,0.5-0.8,1-1.1,1.6c-0.8,1.5-1.4,3.2-1.8,4.8C108.9,26.6,108.7,28.1,108.6,29.6L108.6,29.6z"/>
<path class="st1" d="M141.9,26.2c-0.2,0.6-0.5,1.2-0.6,1.9c-0.5,1.5-0.8,3-1,4.6c0,0.1,0,0.2-0.2,0.3c-0.9,0.4-1.9,0.6-2.9,0.6h-0.1
	c-0.7,0-1.2-0.5-1.3-1.2c-0.1-0.5-0.1-0.9,0-1.4c0.3-1.8,0.7-3.5,1.1-5.2c1.2-4.9,2.5-9.9,3.7-14.8c0.1-0.5,0.2-1,0.4-1.5
	c0-0.1,0-0.2,0-0.3c-0.3,0-0.6,0-0.9,0.1c-0.9,0.3-1.8,0.8-2.5,1.5c-1,1-1.9,2.1-2.6,3.4c-0.3,0.5-0.6,1-0.8,1.6
	c-0.1,0.1-0.1,0.2-0.1,0.4l0.4,0.1c1.7,0.4,2.8,2,2.5,3.8c0,0.1-0.1,0.3-0.1,0.4c-0.4,1.3-1.7,2.1-3,2c-0.2,0-0.3,0-0.5-0.1
	c-0.7-0.1-1.3-0.7-1.5-1.3c-0.2-0.6-0.2-1.2-0.1-1.8c0-0.4,0.1-0.7,0.2-1.1c0-0.1,0-0.1,0-0.2c-0.1,0.1-0.3,0.2-0.4,0.3
	c-0.7,0.7-1.3,1.6-1.8,2.5c-0.8,1.7-1.5,3.4-2,5.2c-0.7,2.2-1.2,4.5-1.6,6.8c0,0.2-0.1,0.3-0.3,0.3c-0.6,0.2-1.3,0.4-1.9,0.6
	c-0.2,0-0.5,0.1-0.7,0.1c-0.8,0.1-1.5-0.5-1.6-1.3c0-0.1,0-0.1,0-0.2c0-0.5,0-0.9,0.1-1.4c0.4-2.2,1-4.3,1.5-6.4
	c0.4-1.6,0.9-3.2,1.2-4.8c0.1-0.2,0.1-0.5,0.1-0.7c-0.3,0-0.5,0.1-0.8,0.3c-0.5,0.3-0.9,0.7-1.3,1.1c-0.4,0.5-0.8,1-1.1,1.5
	c-0.1,0.1-0.1,0.3-0.3,0.3c-0.2,0-0.3-0.1-0.4-0.3c0-0.1,0-0.2,0-0.3c0-0.3,0.1-0.6,0.3-0.9c0.5-1,1.3-2,2.2-2.7
	c0.7-0.6,1.6-1.1,2.6-1.4c0.6-0.2,1.3-0.2,1.9,0c1,0.2,1.7,1.2,1.5,2.2c0,0.1,0,0.3,0,0.4c0.1,0,0.2-0.2,0.2-0.2
	c0.4-0.6,0.9-1.2,1.5-1.7c0.4-0.3,0.8-0.6,1.2-0.8c0.2-0.1,0.3-0.2,0.4-0.4c1-2.4,2.5-4.6,4.4-6.4c0.8-0.8,1.8-1.5,2.8-2.1
	c0.9-0.5,1.9-0.8,3-0.9c0.3,0,0.7,0,1,0.1c0.9,0.2,1.6,1,1.6,2c0,0.7,0,1.5-0.2,2.2c-0.5,2.4-1.1,4.7-1.8,7
	c-0.4,1.2-0.7,2.3-1.1,3.5c0,0.1-0.1,0.2-0.1,0.3c0.1,0,0.2-0.2,0.3-0.3c1-1.6,2.3-2.9,3.9-3.8c0.8-0.5,1.7-0.8,2.7-1
	c0.5-0.1,1-0.1,1.4,0c1,0.2,1.8,1.1,1.9,2.2c0.1,0.9-0.2,1.8-0.6,2.5c-0.7,1.2-1.8,2.2-3.1,2.8c-0.8,0.4-1.7,0.7-2.6,0.9
	c-0.1,0-0.1,0-0.2,0.1c0,0,0,0.1,0.1,0.1c0.7,0.5,1.3,1.1,1.6,1.9c0.3,0.7,0.6,1.4,0.9,2.1c0.1,0.4,0.3,0.9,0.5,1.3
	c0.3,0.7,0.6,0.7,1.2,0.2c0.4-0.4,0.7-0.8,1-1.2c0.6-0.8,1.1-1.7,1.6-2.6c0.1-0.2,0.1-0.3,0.2-0.5c0.6-4.2,3.4-7.8,7.2-9.6
	c0.9-0.4,2-0.6,3-0.6c0.3,0,0.6,0.1,0.9,0.1c1.3,0.3,2.3,1.4,2.4,2.8c0.1,1.1-0.1,2.2-0.6,3.2c-0.9,2.1-2.8,3.8-5,4.4
	c-0.9,0.3-1.9,0.3-2.8,0.2h-0.1c-0.2,0-0.3,0-0.3,0.2c-0.1,0.7-0.2,1.5-0.1,2.2c0,0.4,0.1,0.7,0.2,1.1c0,0.2,0.1,0.4,0.2,0.6
	c0.4,1,1.5,1.4,2.5,1c0,0,0.1,0,0.1,0c0.5-0.2,0.9-0.5,1.3-0.9c0.6-0.6,1.2-1.3,1.7-2.1c0.5-0.8,1-1.6,1.5-2.4
	c0.1-0.1,0.1-0.3,0.3-0.2c0.2,0,0.4,0.2,0.4,0.3c0,0.2,0,0.4,0,0.6c-0.1,0.4-0.2,0.8-0.4,1.2c-0.7,1.7-1.8,3.1-3.3,4.2
	c-1.1,0.9-2.6,1.4-4,1.4c-2.1,0-4-1.3-4.7-3.3c-0.1-0.4-0.2-0.7-0.3-1.1c0-0.1,0-0.2-0.1-0.3l-0.2,0.3c-0.8,1.4-1.9,2.6-3.2,3.5
	c-0.4,0.3-0.8,0.5-1.2,0.6c-1,0.4-2.1,0-2.7-0.8c-0.3-0.4-0.6-0.8-0.8-1.3c-0.4-0.7-0.6-1.5-0.9-2.2c-0.4-0.9-0.8-1.8-1.4-2.6
	C142.4,26.7,142.2,26.4,141.9,26.2z M158,25.9c0.8,0.1,1.6-0.2,2.3-0.6c0.6-0.4,1.1-1,1.4-1.6c0.7-1.2,1.2-2.5,1.4-3.8
	c0.1-0.5,0.1-1,0.1-1.5c0-0.4-0.3-0.8-0.7-0.8c-0.1,0-0.2,0-0.3,0.1c-0.2,0.1-0.4,0.2-0.5,0.3c-0.2,0.2-0.4,0.4-0.6,0.7
	c-0.3,0.4-0.6,0.8-0.8,1.3c-0.8,1.5-1.5,3.1-1.9,4.7C158.2,25,158.1,25.5,158,25.9L158,25.9z M142.5,24.7c0.1,0,0.1,0,0.2,0h0.4
	c1.2-0.2,2.3-0.7,3.2-1.4c0.7-0.5,1.2-1.2,1.6-1.9c0.3-0.5,0.4-1.1,0.3-1.7c0-0.4-0.3-0.7-0.7-0.8c-0.1,0-0.1,0-0.2,0
	c-0.4,0-0.8,0.2-1.1,0.4c-0.5,0.3-1,0.7-1.4,1.2C143.9,21.7,143.1,23.1,142.5,24.7C142.5,24.7,142.5,24.7,142.5,24.7L142.5,24.7z
	 M142.4,21.9C142.4,21.9,142.4,21.9,142.4,21.9L142.4,21.9C142.4,21.8,142.4,21.8,142.4,21.9C142.4,21.9,142.4,21.9,142.4,21.9
	L142.4,21.9z"/>
<path class="st1" d="M111,47.3l0.6,0.7c1,1.2,2,2.4,3.1,3.6c0.7,0.8,1.5,1.5,2.4,2.1c0.7,0.5,1.5,0.8,2.4,1c0.3,0,0.3,0.1,0.3,0.3
	c0,0.1,0,0.1,0,0.2s-0.1,0.1-0.2,0.1h-0.2c-1.4,0-2.9,0-4.3,0c-0.2,0-0.5-0.1-0.6-0.3l-5.6-7.5c-0.1-0.2-0.3-0.3-0.6-0.3
	c-0.3,0-0.6,0-0.9,0c-0.2,0-0.2,0.1-0.2,0.2c0,0,0,0.1,0,0.1c0,1.4,0,2.7,0,4.1c0,0.5,0,1,0.1,1.5c0.1,0.8,0.7,1.4,1.5,1.4
	c0.3,0.1,0.7,0.1,1,0.1c0.3,0,0.3,0,0.3,0.3c0,0.1,0,0.1,0,0.2s-0.1,0.1-0.2,0.1h-7.9c-0.1,0-0.2-0.1-0.2-0.2s0-0.1,0-0.2
	c0-0.3,0-0.3,0.3-0.3c0.4,0,0.9,0,1.3-0.1c0.5-0.1,1-0.5,1.1-1.1c0.1-0.5,0.2-1.1,0.2-1.7c0-3.8,0-7.6,0-11.3c0-0.5,0-0.9-0.1-1.4
	c-0.1-0.7-0.7-1.3-1.4-1.4c-0.3-0.1-0.7-0.1-1-0.1c-0.3,0-0.3,0-0.3-0.3s0-0.3,0.3-0.3h8c1.2,0,2.3,0.2,3.4,0.7
	c1.2,0.5,2.1,1.5,2.6,2.7c0.8,2,0.1,4.3-1.6,5.6c-0.9,0.6-1.9,1-2.9,1.2L111,47.3z M107.1,42.1c0,1.2,0,2.5,0,3.7
	c0,0.3,0,0.3,0.3,0.3h1.4c0.6,0,1.1,0,1.7-0.1c1.3-0.1,2.4-1,2.9-2.3c0.3-0.9,0.4-1.9,0.2-2.8c-0.2-1.1-0.9-2.1-2-2.6
	c-0.5-0.2-1.1-0.4-1.7-0.3h-2.6c-0.1,0-0.1,0-0.1,0.1c0,0,0,0,0,0c0,0.1,0,0.2,0,0.3C107.1,39.7,107.1,40.9,107.1,42.1L107.1,42.1z"
	/>
<path class="st1" d="M170.7,18.1h-2.9c-0.2,0-0.3-0.1-0.4-0.2c-0.2-0.4-0.1-0.8,0.3-1c0.1,0,0.1-0.1,0.2-0.1
	c0.6-0.1,1.1-0.2,1.7-0.3l1-0.2c1.4-0.4,2.7-1.2,3.6-2.4c0.5-0.7,1-1.4,1.4-2.1c0.1-0.2,0.2-0.4,0.3-0.5c0.2-0.3,0.6-0.4,0.9-0.2
	c0.1,0,0.2,0.2,0.2,0.3c0,0,0,0,0,0c-0.2,0.6-0.3,1.3-0.4,1.9c-0.3,1.1-0.5,2.1-0.8,3.2c-0.1,0.3-0.1,0.3,0.3,0.3h1.8
	c0.3,0,0.5,0,0.6,0.3c0.1,0.3,0,0.6-0.3,0.7c-0.2,0.2-0.5,0.3-0.8,0.3h-1.8c-0.3,0-0.3,0-0.4,0.3c-1.1,4.1-2.3,8.2-3.3,12.3
	c-0.1,0.4-0.2,0.8-0.3,1.2c0.1,0,0.3,0,0.4-0.1c0.3-0.2,0.7-0.4,0.9-0.7c0.8-0.8,1.6-1.7,2.2-2.8c0.3-0.5,0.6-1,0.9-1.6
	c0.1-0.1,0.1-0.3,0.3-0.3c0.2,0,0.4,0.2,0.4,0.4c0,0.2,0,0.4,0,0.6c-0.1,0.4-0.3,0.9-0.5,1.3c-0.7,1.5-1.8,2.9-3.1,4
	c-0.6,0.6-1.4,0.9-2.3,1.1c-0.8,0.2-1.7,0-2.4-0.4c-0.9-0.5-1.4-1.5-1.2-2.6c0.2-1.1,0.5-2.3,0.8-3.4c0.8-3,1.6-6,2.4-9L170.7,18.1z
	"/>
<path class="st1" d="M129.4,55.4h-7.3c-0.2,0-0.3,0-0.2-0.2c0,0,0-0.1,0-0.1c0-0.3,0-0.3,0.3-0.3c0.4,0,0.8,0,1.2-0.1
	c0.6-0.1,1.1-0.6,1.2-1.2c0.1-0.6,0.2-1.2,0.2-1.8c0-3,0-6,0-9.1c0-1,0-1.9-0.1-2.9c0-0.3-0.1-0.6-0.1-0.9c-0.1-0.5-0.6-1-1.1-1.1
	c-0.4-0.1-0.8-0.1-1.3-0.1c-0.3,0-0.3,0-0.3-0.3s0-0.3,0.3-0.3h13.3c0.3,0,0.3,0,0.3,0.3c0.1,1.1,0.2,2.3,0.2,3.4
	c0,0.1,0.1,0.3-0.1,0.3s-0.5,0-0.6-0.2s-0.2-0.7-0.3-1.1c-0.2-0.7-0.8-1.3-1.6-1.4c-0.4-0.1-0.8-0.1-1.1-0.1h-4.9
	c-0.3,0-0.3,0-0.3,0.3c0,2.1,0,4.2,0,6.3c0,0.3,0,0.3,0.3,0.3c1,0,1.9,0,2.9-0.1c0.3,0,0.5-0.1,0.8-0.2c0.5-0.1,0.9-0.5,1-1
	c0.1-0.4,0.2-0.9,0.1-1.4c0-0.1,0-0.3,0.1-0.3c0.2,0,0.4,0,0.5,0c0,0,0.1,0.1,0.1,0.1s0,0.2,0,0.3c0,2.1,0,4.1,0,6.2
	c0,0.4,0,0.4-0.4,0.4c-0.2,0-0.2-0.1-0.2-0.2c0-0.3,0-0.7-0.1-1c0-0.9-0.8-1.7-1.7-1.7c0,0,0,0,0,0c-0.8-0.1-1.5-0.1-2.3-0.1h-0.8
	c-0.1,0-0.2,0-0.2,0.2s0,0.1,0,0.2c0,1.5,0,3.1,0,4.6c0,0.5,0,1.1,0.1,1.6c0.1,0.7,0.7,1.3,1.4,1.4c0.3,0,0.6,0.1,0.9,0.1h3.4
	c0.5,0,1-0.1,1.4-0.2c0.7-0.1,1.2-0.6,1.5-1.3c0.1-0.4,0.2-0.8,0.3-1.2c0-0.1,0-0.2,0.1-0.3c0.2,0,0.3,0,0.5,0
	c0.1,0,0.1,0.1,0.1,0.2c0,0.6,0,1.1-0.1,1.7c0,0.6-0.1,1.2-0.1,1.8c0,0.3,0,0.3-0.3,0.3L129.4,55.4L129.4,55.4z"/>
<path class="st1" d="M147.5,55.4h-7.1c-0.4,0-0.5,0-0.4-0.5c0-0.1,0.1-0.2,0.2-0.2c0.3,0,0.6,0,0.9-0.1c1.4-0.2,1.6-0.9,1.7-1.8
	c0.1-0.4,0.1-0.8,0.1-1.3c0-3.7,0-7.3,0-11c0-0.5,0-1.1-0.1-1.6c-0.1-0.7-0.7-1.3-1.4-1.4c-0.3,0-0.7-0.1-1-0.1
	c-0.3,0-0.3,0-0.3-0.3c0-0.1,0-0.1,0-0.2s0-0.2,0.2-0.2h13.6c0.2,0,0.2,0.1,0.3,0.3c0.1,1.1,0.1,2.3,0.2,3.4c0,0.1,0,0.2,0,0.3
	s0,0.1-0.1,0.1h-0.3c-0.1,0-0.2-0.1-0.2-0.2s-0.1-0.5-0.2-0.7l-0.1-0.3c-0.2-0.9-1-1.5-1.9-1.6c-0.4-0.1-0.8-0.1-1.2-0.1h-4.5
	c-0.3,0-0.3,0-0.3,0.3c0,2.1,0,4.2,0,6.3c0,0.3,0,0.3,0.3,0.3c0.9,0,1.9,0,2.8-0.1c0.3,0,0.5-0.1,0.7-0.1c0.5-0.1,0.9-0.5,1-1
	c0.1-0.4,0.2-0.8,0.2-1.3c0-0.4,0.1-0.5,0.5-0.4c0.1,0,0.1,0.1,0.1,0.1s0,0.2,0,0.3c0,2.1,0,4.2,0,6.2c0,0.4,0,0.4-0.4,0.4
	c-0.2,0-0.2,0-0.2-0.2c0-0.4,0-0.8-0.1-1.2c-0.1-0.7-0.6-1.3-1.3-1.4c-0.4-0.1-0.7-0.1-1.1-0.1h-2.3c-0.3,0-0.3,0-0.3,0.3
	c0,1.7,0,3.4,0,5.1c0,0.5,0.1,1,0.2,1.5c0.1,0.5,0.6,1,1.1,1.1c0.3,0.1,0.6,0.1,0.9,0.1c1.4,0,2.8,0,4.1,0c0.4,0,0.8-0.1,1.2-0.2
	c0.6-0.2,1.1-0.6,1.3-1.2c0.1-0.4,0.2-0.8,0.3-1.2c0-0.1,0-0.2,0.1-0.3c0.2,0,0.3,0,0.5,0c0,0,0.1,0.1,0.1,0.1s0,0.1,0,0.2
	c-0.1,1.1-0.1,2.3-0.2,3.4c0,0.3,0,0.3-0.3,0.3L147.5,55.4L147.5,55.4z"/>
<path class="st1" d="M67.1,52.5c0-1,0-2,0-3.1c0-0.1,0-0.2,0.1-0.3c0.2,0,0.3,0,0.5,0c0.1,0.1,0.1,0.1,0.1,0.2
	c0.1,0.6,0.2,1.2,0.4,1.8c0.7,2.1,2.6,3.5,4.8,3.5c0.7,0.1,1.4,0,2-0.2c1.2-0.4,2.1-1.4,2.3-2.6c0.1-0.7-0.1-1.4-0.5-2
	c-0.4-0.5-0.9-0.9-1.4-1.3c-0.6-0.4-1.1-0.7-1.7-1l-2.8-1.4c-1.2-0.6-2.2-1.5-2.8-2.7c-0.9-1.4-0.9-3.2,0-4.6c0.7-1.2,1.9-2,3.3-2.2
	c1.6-0.3,3.3,0,4.7,1c0.3,0.2,0.3,0.2,0.5-0.1c0.3-0.3,0.5-0.6,0.6-1c0-0.1,0-0.2,0.2-0.2c0.2,0,0.3,0,0.5,0c0,0,0,0.1,0.1,0.1
	c0,0.1,0,0.2,0,0.3c0,2,0,4,0,5.9c0,0.4,0,0.4-0.4,0.4C77,43,77,43,77,42.8c-0.1-0.9-0.3-1.8-0.7-2.6c-0.8-1.9-2.9-2.9-4.8-2.3
	c-1.3,0.3-2.2,1.4-2.1,2.7c0,0.6,0.3,1.3,0.7,1.7c0.3,0.4,0.7,0.7,1.2,0.9c0.7,0.4,1.4,0.8,2.1,1.2l2.6,1.3c0.5,0.2,0.9,0.5,1.3,0.8
	c1.8,1.3,2.4,3.7,1.6,5.8c-0.6,1.8-2.1,3.1-4,3.4c-1.4,0.3-2.9,0.2-4.2-0.4c-0.5-0.2-1-0.5-1.6-0.7c-0.6-0.2-0.5-0.2-0.9,0.2
	c-0.2,0.3-0.4,0.6-0.5,0.9c0,0.1-0.5,0.2-0.6,0.1c-0.1-0.1,0-0.2,0-0.3C67.1,54.5,67.1,53.5,67.1,52.5z"/>
<path class="st1" d="M91.6,45.3c0,2.1,0,4.2,0,6.3c0,0.5,0,1.1,0.1,1.6c0.1,0.8,0.7,1.4,1.5,1.4c0.3,0,0.7,0.1,1,0.1
	c0.3,0,0.3,0,0.3,0.3c0,0.1,0,0.1,0,0.2s-0.1,0.2-0.2,0.2h-7.7c-0.4,0-0.5,0-0.4-0.5c0-0.1,0.1-0.2,0.2-0.2c0.3,0,0.7,0,1-0.1
	c0.9,0,1.7-0.8,1.7-1.7c0,0,0,0,0,0c0.1-0.4,0.1-0.8,0.1-1.3c0-4.4,0-8.8,0-13.2c0-0.3,0-0.3-0.3-0.3c-1.6,0-3.1,0-4.7,0
	c-0.4,0-0.7,0.1-1.1,0.2c-0.5,0.2-1,0.6-1.2,1.1c-0.2,0.4-0.3,0.9-0.4,1.4c0,0.1,0,0.2-0.1,0.2c-0.2,0-0.4,0-0.5,0
	c-0.1,0,0-0.1,0-0.2c0-0.7,0.1-1.5,0.2-2.2c0-0.5,0.1-1,0.1-1.5c0-0.1,0.1-0.2,0.2-0.2h18c0.4,0,0.4-0.1,0.4,0.4
	c0.1,1.1,0.2,2.3,0.2,3.4c0,0.3,0,0.3-0.3,0.3s-0.3,0-0.4-0.3c-0.1-0.4-0.2-0.8-0.4-1.2c-0.2-0.6-0.7-1.1-1.4-1.2
	c-0.6-0.1-1.2-0.2-1.8-0.2c-1.3,0-2.5,0-3.8,0c-0.3,0-0.3,0-0.3,0.3C91.7,40.7,91.7,43,91.6,45.3L91.6,45.3z"/>
<path class="st1" d="M167.9,45.5c0,1.9,0,3.8,0,5.6c0,0.6,0,1.3,0.1,1.9c0,0.1,0,0.1,0,0.2c0.1,0.8,0.7,1.4,1.5,1.4
	c0.3,0.1,0.7,0.1,1,0.1c0.2,0,0.3,0.1,0.2,0.2c0,0,0,0.1,0,0.1c0,0.3,0,0.3-0.3,0.3h-7.7c-0.1,0-0.3,0.1-0.3-0.1
	c-0.1-0.2-0.1-0.4,0-0.5c0-0.1,0.1-0.1,0.2-0.1c0.3,0,0.7,0,1-0.1c0.8,0,1.5-0.7,1.6-1.5c0.1-0.7,0.1-1.3,0.1-2c0-4.2,0-8.3,0-12.5
	c0-0.1,0-0.1,0-0.2s-0.1-0.2-0.2-0.2h-0.1c-1.3,0-2.5,0-3.8,0c-0.6,0-1.1,0.1-1.7,0.2c-0.7,0.1-1.3,0.6-1.5,1.3
	c-0.1,0.4-0.3,0.8-0.4,1.2c0,0.2-0.1,0.3-0.3,0.2h-0.2c-0.2,0-0.3,0-0.2-0.2c0,0,0,0,0-0.1c0.1-1.2,0.2-2.4,0.2-3.6
	c0-0.1,0.1-0.2,0.2-0.2h18.2c0.2,0,0.2,0.1,0.3,0.3c0.1,1.2,0.1,2.3,0.2,3.5c0,0.1,0,0.2,0,0.3s0,0.1,0,0.1s-0.3,0-0.5,0
	s-0.1-0.1-0.2-0.2c-0.1-0.2-0.1-0.5-0.2-0.7s-0.1-0.3-0.1-0.4c-0.2-0.8-0.9-1.4-1.7-1.5c-0.5-0.1-1-0.1-1.5-0.1h-3.8
	c-0.3,0-0.3,0-0.3,0.4C168,40.9,167.9,43.2,167.9,45.5z"/>
<path class="st1" d="M54.4,29.7c0,1.2-0.1,2.5-0.4,3.7c-0.1,0.5-0.3,1-0.6,1.4c-0.5,0.8-1.5,1.2-2.4,0.8c-3.7-1.2-7.4-2.4-11.2-3.6
	c-0.2-0.1-0.5-0.1-0.6-0.3c-0.1-0.2-0.1-0.4,0-0.7c0.1-1,0-2.1-0.1-3.1c0-0.2,0-0.2,0.3-0.3l4.2-1.4l7.3-2.4
	c0.3-0.1,0.5-0.2,0.8-0.2c0.5,0,0.9,0.1,1.3,0.5c0.3,0.3,0.6,0.7,0.7,1.1c0.3,0.7,0.5,1.5,0.6,2.3C54.3,28.3,54.4,29,54.4,29.7z"/>
<path class="st1" d="M8.2,23.7c0.3,0,0.5,0,0.7,0.1l11.3,3.7c0.3,0.1,0.3,0,0.3,0.4c-0.1,1-0.2,2-0.1,3c0,0.2,0,0.4,0,0.6
	s0,0.3-0.3,0.4l-3.8,1.2l-7.2,2.3c-0.2,0.1-0.3,0.1-0.5,0.1c-0.6,0.2-1.2,0-1.6-0.4c-0.3-0.3-0.6-0.7-0.8-1.2
	c-0.3-0.7-0.4-1.4-0.5-2.2c-0.1-1.2-0.2-2.4-0.1-3.6c0-0.9,0.2-1.8,0.5-2.7c0.2-0.5,0.4-0.9,0.8-1.3C7.2,23.9,7.7,23.7,8.2,23.7z"/>
<path class="st1" d="M38.8,26.1c-0.1-0.1-0.1-0.2-0.1-0.3c-0.3-1.3-0.8-2.5-1.5-3.7c-0.1-0.2-0.1-0.4,0-0.6c2.1-2.9,4.3-5.9,6.4-8.8
	c0.3-0.5,0.8-0.8,1.4-0.9c0.3,0,0.7,0,1,0.2c0.5,0.2,1,0.5,1.4,0.8c1.8,1.6,3.3,3.6,4.2,5.8c0.3,0.6,0.4,1.2,0.3,1.8
	c0,0.8-0.5,1.5-1.3,1.7c-0.7,0.3-1.5,0.5-2.2,0.7l-9.4,3L38.8,26.1z"/>
<path class="st1" d="M51.9,39.2c0,0.7-0.2,1.3-0.5,1.9c-0.6,1.2-1.3,2.4-2.2,3.4c-0.6,0.8-1.3,1.5-2.1,2.2c-0.4,0.3-0.8,0.6-1.3,0.7
	c-0.8,0.4-1.8,0.1-2.3-0.7l-5-6.9c-0.5-0.7-1-1.4-1.5-2c-0.1-0.1-0.1-0.3,0-0.5c0.8-1.1,1.4-2.3,1.7-3.6c0.1-0.3,0.1-0.3,0.3-0.2
	l3.3,1.1l8,2.6h0.1C51.4,37.4,52,38.3,51.9,39.2z"/>
<path class="st1" d="M8,20.3c0-0.6,0.2-1.2,0.4-1.7c0.5-1.1,1.1-2.2,1.9-3.2c0.7-0.9,1.4-1.8,2.3-2.6c0.4-0.4,0.9-0.6,1.4-0.8
	c0.9-0.4,1.9-0.1,2.4,0.7l6.1,8.5c0.1,0.2,0.1,0.4,0,0.5c-0.7,1.2-1.2,2.5-1.6,3.8c0,0.1,0,0.1-0.1,0.2c0,0.2-0.1,0.2-0.2,0.1
	l-0.8-0.3L9.4,22.2c-0.3-0.1-0.6-0.2-0.8-0.4C8.2,21.4,8,20.9,8,20.3z"/>
<path class="st1" d="M8,39.4c-0.2-0.9,0.4-1.9,1.3-2.1l11-3.6c0.3-0.1,0.3-0.1,0.4,0.2c0.4,1.3,1,2.6,1.9,3.7c0.2,0.3,0.2,0.3,0,0.6
	l-6.3,8.7c-0.5,0.8-1.4,1.1-2.3,0.7c-0.6-0.2-1.2-0.6-1.7-1c-1-0.9-1.9-1.9-2.6-3.1c-0.6-0.8-1.1-1.7-1.5-2.6
	C8.2,40.4,8.1,39.9,8,39.4z"/>
<path class="st1" d="M36,20.2c-0.1-0.1-0.2-0.2-0.3-0.3c-1-1.3-2.4-2.3-3.9-3c-0.2-0.1-0.4-0.2-0.6-0.2c-0.1,0-0.3-0.1-0.2-0.3
	c0,0,0,0,0-0.1c0-0.2,0-0.3,0-0.5c0-2.6,0-5.3,0-7.9c-0.1-1,0.6-1.8,1.5-2c0.7-0.2,1.3-0.2,2-0.1c2,0.3,3.8,0.8,5.6,1.7
	C40.8,8,41.4,8.4,41.9,9c0.3,0.3,0.5,0.6,0.6,1c0.2,0.5,0,1.1-0.3,1.6l-1.9,2.7l-4.1,5.6L36,20.2z"/>
<path class="st1" d="M23.8,20l-0.5-0.7l-5.4-7.5l0,0c-0.7-0.8-0.6-2,0.1-2.7c0,0,0,0,0,0c0.5-0.5,1-0.9,1.7-1.2
	c1.6-0.8,3.3-1.4,5-1.7C25.3,6,26,6,26.6,6c0.4,0,0.8,0.1,1.2,0.3c0.6,0.3,1,0.9,1,1.6c0,2.8,0,5.6,0,8.4c0,0.2,0,0.3-0.2,0.3
	c-1.9,0.5-3.5,1.5-4.7,3L23.8,20z"/>
<path class="st1" d="M35.8,39l0.9,1.2l5.5,7.6c0.1,0.1,0.2,0.3,0.3,0.4c0.3,0.5,0.3,1.1,0,1.6c-0.2,0.4-0.5,0.8-0.9,1.1
	c-0.7,0.6-1.4,1-2.2,1.4c-1.4,0.6-2.9,1-4.4,1.3c-0.5,0.1-1,0.1-1.4,0.1c-0.2,0-0.2,0-0.3-0.2c-0.2-2.5-0.4-5-0.4-7.5
	c0-0.9,0.1-1.8,0.2-2.7c0.1-0.4,0.2-0.9,0.5-1.2c0.3-0.4,0.6-0.8,0.9-1.2L35.8,39z"/>
<path class="st1" d="M24,39.3c0.8,0.9,1.6,1.9,2.2,2.9c0.2,0.4,0.3,0.9,0.4,1.4c0.2,1.4,0.2,2.9,0.1,4.3c0,1-0.1,2.1-0.2,3.1
	c0,0.7-0.1,1.5-0.2,2.2c0,0.4,0,0.4-0.4,0.3c-1.4-0.1-2.8-0.4-4.2-0.9c-0.9-0.3-1.8-0.7-2.6-1.2c-0.4-0.2-0.8-0.5-1.1-0.9
	c-0.1-0.1-0.2-0.2-0.2-0.3c-0.6-0.7-0.6-1.8,0-2.5L22,42l1.8-2.5C23.8,39.5,23.9,39.4,24,39.3z"/>
<path class="st1" d="M177.8,38.7v-1.5h-0.6V37h1.4v0.2h-0.6v1.4L177.8,38.7z"/>
<path class="st1" d="M178.8,38.7v-1.6h0.4l0.4,1.2l0.1,0.2l0.1-0.3l0.4-1.1h0.3v1.6h-0.2v-1.4l-0.5,1.4h-0.2l-0.5-1.4v1.4
	L178.8,38.7z"/>
</svg>
