<?xml version="1.0" encoding="utf-8"?>
<!-- Generator: Adobe Illustrator 21.1.0, SVG Export Plug-In . SVG Version: 6.00 Build 0)  -->
<svg version="1.1" id="Layer_1" xmlns="http://www.w3.org/2000/svg" xmlns:xlink="http://www.w3.org/1999/xlink" x="0px" y="0px"
	 viewBox="0 0 181 20.4" style="enable-background:new 0 0 181 20.4;" xml:space="preserve">
<style type="text/css">
	.st0{fill:#EA2F25;}
	.st1{fill:#EC1E28;}
</style>
<title>Grocery</title>
<path class="st0" d="M20.9,1.9c0.9-1,4.5-1.8,5.5-1.2c0.4,0.2,0.4,1.6-0.1,1.7C25.2,2.9,25.1,4,25,5c-0.4,3.6-0.6,7.2-1,10.8
	c-0.1,1.1,0.7,2,0.7,3c0,0.8-0.3,1.1-1.1,1.1c-1.4-0.1-2.9-0.1-4.3,0c-0.9,0.1-1.2-0.3-1.2-1.1l0,0c0.5-0.1,0.2-0.5,0.3-0.8l0,0
	c0.7-0.1,1.3-0.7,1.5-1.4c0.3-2.1,0.4-4.2,0.6-6.3l-0.2-0.1l-1.6,3.5c-0.8,1.7-1.7,3.4-2.5,5c-0.2,0.4-0.2,1-0.9,0.9h-0.4
	c-2.9-0.1-2.9-0.1-2.8-3c0.1-2.2,0.3-4.4,0.4-6.6h-0.2l-1.6,3.8c-0.8,1.9-1.9,3.6-3.2,5.2c-0.4,0-0.6,0.2-0.9,0.4
	c-1.6,0.8-3.5,0.5-4.9-0.6c-1.4-1-1.3-2.3-0.9-3.8c0.7-1,1.8-1.4,3-1.3c0.9,0.2,1.9,0.4,1.6,1.7c-0.1,0.3,0,0.6,0.3,0.8
	c1,0.4,1.3-0.5,1.5-1c1.7-3.5,3.3-7,5-10.6c0.4-0.8,1-1.7-0.4-2.3c-0.1-0.1-0.1-0.5-0.2-0.7c-0.1-0.7,0.1-1.1,1-1
	c1.4,0.2,3.2-0.6,4,0.3c0.7,0.7,0.2,2.5,0.2,3.8s0,2.8,0,4.2c0,0.7,0,1.3,0,2c0.8-1.4,1.6-2.9,2.3-4.4L20.9,1.9z"/>
<path class="st0" d="M97.8,18.3c0-0.5,0.5-0.7,0.8-1c0.8,0,1.5-0.7,1.6-1.5c0.9-3.6,1.9-7.3,2.8-10.9c0.3-1.3-0.1-1.8-1.5-1.4
	c-0.6,0.2-1.1,0.6-0.4,1.3c0.3,0.2,0.5,0.6,0.4,1c-0.4,0-0.6,0.3-0.9,0.5c-1.3,0.4-2.7,0.5-3.7-0.6s-0.5-2.1-0.2-3.2
	c0.8-1,2-1.5,3.3-1.4c3,0.1,6,0.1,9,0.2c0.7,0,1.4,0.2,2.1,0.4c2.1,0.6,3.4,2.7,2.9,4.9c-0.1,0.5-0.4,1-0.7,1.4
	c-0.3,0.6-0.7,1.1-1.1,1.5c-0.9,0.7-0.7,1.2-0.1,2c1.4,1.7,1.4,4.2,0,5.9c-0.2,0.3-0.7,0.4-0.4,0.9l0,0c-0.1-0.1-0.3-0.1-0.4,0
	c-1,0.2-1.9,0.9-3,1c-3.1,0.4-6.2,0-9.4,0.2C97.9,19.6,97.5,19.4,97.8,18.3z M109.6,6c0.3-0.9-0.2-1.9-1.2-2.2c-0.1,0-0.2,0-0.3-0.1
	c-1.4-0.2-1,0.9-1.2,1.6c-0.2,0.8-0.4,1.7-0.7,2.5c-0.2,0.6,0,0.8,0.6,0.6c0.3-0.1,0.6-0.2,0.9-0.3C107.8,8,109.4,7.1,109.6,6
	L109.6,6z M105,12.7c-0.3,0.9-0.6,1.8-0.8,2.6c-0.1,0.6-0.7,1.5-0.3,1.8s1.4,0.1,2.1-0.1l0.2-0.1c1.6-0.8,2.4-2.5,2-4.3
	c-0.3-1.1-1.3-1.7-2.4-1.6C104.8,11.1,105.3,12.1,105,12.7z"/>
<path class="st0" d="M50.5,14.6c0.1,1.3,0.1,2.6,1.6,3.2c0.6,0.2,0.1,0.8,0.3,1.1c0,0.7-0.3,1.1-1.1,1c-0.5-0.1-1-0.1-1.5,0
	c-1.1,0.2-2.2-0.5-2.4-1.7c0,0,0,0,0,0c-0.3-1-0.6-1.9-1-2.9c-0.1-0.3-0.2-0.6-0.6-0.5s-0.3,0.4-0.3,0.6c-0.2,1-1,2.1,0.2,3
	c0.1,0.1,0,0.5,0,0.7c-0.2,0.4-0.4,0.9-1,0.8c-1.3,0-2.6,0-3.9-0.1c-0.3,0-0.8,0.2-1-0.2c-0.2-0.5,0-1,0.4-1.4
	c0.9-0.6,1-1.5,1.3-2.4c0.4-1.4,0.7-2.8,1-4.2c0.4-1.7,1.3-3.4,0-5.1c-0.1-0.8,0.3-1,1.1-1c2.1,0.1,4.2,0,6.2,0
	c1.6,0,3.1,0.3,3.8,1.9c0.7,1.5,0.4,3.4-0.7,4.6c-0.2,0.3-0.4,0.5-0.6,0.8C51.4,13.2,50.4,13.3,50.5,14.6z M47.7,11.9
	c1.1-0.3,1.8-1.3,1.8-2.4c0.2-1.4-0.3-2.1-1.7-2.1c-1.2,0-0.7,1.1-0.9,1.7c-0.2,0.6-0.3,1.2-0.4,1.8c-0.1,0.4-0.4,0.9-0.1,1.2
	C46.8,12.3,47.3,12.2,47.7,11.9z"/>
<path class="st0" d="M63.7,11.3c0.3,1.4,0.6,2.8,0.9,4.2c0.2,1.1,0.8,2,1.7,2.6c0,1.2-0.4,1.9-1.8,1.7c-0.3,0-0.6,0-0.9,0
	C62,20,61.4,19.3,61,17.9s-0.7-2.4-1.1-3.7c-0.5,1.2-1,2.3-0.6,3.4c0.4,0.7,0.4,1.5,0.2,2.3h-0.8H53l0.1-1.4c0-0.2,0-0.3,0.2-0.4
	c0.9-0.2,1.6-0.9,1.7-1.8c0.6-2.5,1.3-5.1,1.9-7.6c0.1-0.6,0.2-1.1-0.5-1.4c-0.3-0.1-0.5-0.4-0.5-0.7c0.1-0.8,0.5-1.1,1.4-1.1
	c1.6,0.1,3.1,0.1,4.7,0c0.9,0,1.1,0.3,1,1L62.5,7c-0.9,0.8-1.5,1.9-1.8,3.1l1.5-1.3c0.9-0.5,1.9-1,1.6-2.3c0.1-0.9,0.7-1.1,1.6-1.1
	c0.9,0.1,1.8,0.1,2.7,0c0.8-0.1,1.1,0.2,1,1c-0.3,0.5-0.8,0.5-1.3,0.7C66.3,8.4,65,9.8,63.7,11.3z"/>
<path class="st0" d="M127.3,15.1l0.5-1.1c0.8-0.2,1.4-0.1,1.6,0.8c0.3,2.1,1.5,3,3.3,2.6c0.8,0,1.5-0.6,1.5-1.4
	c0.2-0.8-0.3-1.7-1.1-2c-0.9-0.4-1.7-0.7-2.6-1c-1.8-0.7-2.4-1.7-2.4-3.7c0-0.8,0.6-1.5,0.5-2.3c2.2-2.3,5.7-2.8,8.4-1.2
	c0.3,0.2,0.7,0.3,1,0c0.8-0.7,1.4-0.2,1.9,0.3c-0.2,0.5-0.4,1.1-0.4,1.7c-0.4,0.6-0.6,1.2-0.7,1.8c-0.1,0.5-0.3,0.9-0.9,0.7
	s-1-0.4-1.1-1.2c-0.2-0.9-0.8-1.6-1.7-1.9c-0.9-0.6-2.2-0.4-2.8,0.6c-0.2,0.3-0.3,0.5-0.3,0.9c0,0.6,0.4,1.1,0.9,1.2
	c0.8,0.3,1.6,0.5,2.4,0.8l2.2,1.3c1.4,1.9,1.2,4.2-0.9,6.3c-0.3,0.1-0.8,0-0.5,0.6l0,0c-0.2-0.2-0.4-0.1-0.6,0
	c-2.1,0.8-4.1,1.2-6.2,0c-0.4-0.2-0.9-0.2-1.2,0.1c-0.3,0.2-0.7,0.3-1.1,0.3c-0.6,0.1-0.8-0.1-0.6-0.8
	C126.8,17.5,127.1,16.3,127.3,15.1z"/>
<path class="st0" d="M25.3,18.5l0.6-0.7c0.3-0.1,0.7-0.1,0.4-0.5l0,0c0.8,0.1,1-0.5,1.3-0.9c0.9-1.3,1.6-2.7,2.3-4.2
	c0.8-1.8,2.9-3.3,1.5-5.6c0-0.8,0.4-1.1,1.2-1c1.4,0.1,2.9,0.1,4.3,0c0.8,0,1,0.2,1,1c0,3,0,6,0,8.9c-0.1,1.1,0.4,2.2,1.4,2.8
	c0,1.2-0.5,1.7-1.8,1.6s-2.3,0-3.4,0c-0.9,0-1.3-0.6-0.8-1.4c0.2-0.2,0.4-0.5,0.6-0.6c0.3-0.3,0.4-0.8,0.2-1.2
	c-0.1-0.5-0.6-0.3-1-0.3c-0.7,0-1.4,0-2.2,0c-1,0.1-1.4,0.6-1,1.6c0.8,1.1,0.7,1.7-0.5,2c-1-0.1-2-0.1-3,0
	C25.6,19.9,25.1,19.5,25.3,18.5z M34.2,9.5c-0.7,0.9-1.2,2-1.7,3.1c-0.4,1-0.1,1.1,0.8,1.1c0.7,0,0.9-0.2,0.9-0.9
	C34.2,11.8,34.2,10.8,34.2,9.5L34.2,9.5z"/>
<path class="st0" d="M76.4,11.8c-0.3,0.6-0.5,1.3-0.6,2c-0.1,0.5-0.3,0.9-1,0.9c-0.2,0-0.5-0.1-0.7-0.2c-1.1-1-1.3-1-1.6,0.5
	c-0.1,0.2-0.1,0.5-0.1,0.8c-0.3,0.6-0.8,1.4-0.6,1.9s1.3,0.1,2,0.1H74c0.9,0,1.6-0.8,1.6-1.7c0.3-0.4,0.2-1.1,1-1.1
	c1.3,0,1.4,0,1.1,1.3c-0.3,1-0.6,2-0.8,3c0,0.4-0.4,0.7-0.8,0.7c0,0,0,0-0.1,0c-2.8,0-5.7,0-8.5-0.1c-0.4,0-1,0.3-1.1-0.3
	c-0.1-0.5,0.1-1,0.5-1.4c0.9-0.5,1-1.4,1.3-2.3c0.5-1.8,1-3.7,1.5-5.5c0.3-1.1,1-2.3-0.2-3.3c-0.1-0.1,0-0.3,0-0.5
	c0.2-0.8,0.6-1.1,1.5-1.1c2.8,0.1,5.7,0.1,8.5,0c0.9,0,1.1,0.3,0.8,1.1c-0.3,1-0.5,2-0.7,3.1c-0.1,0.7-0.5,0.8-1.2,0.8s-1-0.3-0.9-1
	c0.2-1.3-0.5-1.7-1.7-1.8s-1.5,0.6-1.5,1.6c-0.4,0.8-0.5,1.7-0.5,2.5c0.9-0.1,1.1-1.3,2.1-1C77,10.6,76.2,11.4,76.4,11.8z"/>
<path class="st0" d="M154.9,6.3c0.2-0.9,0.7-1.1,1.6-1.1c2.7,0.1,5.5,0.1,8.2,0c0.9,0,1.2,0.3,1,1.1s-0.5,1.9-0.7,2.9
	c-0.1,0.6-0.2,1.2-0.9,1.1s-1.4-0.3-1.2-1.3s-0.5-1.6-1.6-1.7s-1.5,0.5-1.5,1.6c-0.4,0.8-0.6,1.6-0.7,2.5c1,0,1.2-1.3,2.2-1
	c0.9,0.1,0.4,0.8,0.5,1.3c-0.2,0.7-0.5,1.4-0.6,2.1c-0.1,0.6-0.4,0.8-0.9,0.8c-0.3,0-0.5-0.1-0.7-0.2c-1.2-0.9-1.2-1-1.6,0.6
	c-0.1,0.2-0.1,0.5-0.2,0.7c-0.8,2-0.8,2,1.3,1.9h0.3c1,0,1.7-0.8,1.7-1.8c0.3-0.3,0.2-0.9,0.8-1c1.3-0.3,1.6,0,1.3,1.3
	c-0.2,0.9-0.6,1.9-0.7,2.8c-0.1,0.6-0.4,0.8-0.9,0.8h-9.6c0-0.8,0-1.4,0.4-1.7c0.6-0.4,1-1,1.1-1.7c0.2-0.7,0.4-1.4,0.6-2.1
	C154.3,11.5,156.4,9.1,154.9,6.3z"/>
<path class="st0" d="M112,18.2l0.6-0.7c0.2,0,0.3,0,0.3-0.3l0,0c0.6,0.1,0.9-0.4,1.1-0.8c1.2-2.1,2.4-4.2,3.5-6.3
	c0.6-1.2,1.8-2.3,0.5-3.7c0,0,0-0.1,0-0.1c0.1-0.8,0.5-1.1,1.3-1c1.4,0.1,2.7,0.1,4.1,0c0.9-0.1,1.1,0.3,1.1,1.2
	c-0.1,2.8,0,5.6,0,8.4c-0.1,1,0.2,2,0.9,2.7c0.5,0.4,0.6,1,0.4,1.6c-0.3,0.7-0.8,0.4-1.3,0.4c-1.2,0-2.5,0-3.7,0
	c-0.3,0-0.8,0.2-0.9-0.3c-0.2-0.4-0.1-1,0.3-1.3c0.1-0.1,0.2-0.1,0.3-0.2c0.4-0.3,0.6-0.9,0.4-1.4c-0.1-0.6-0.7-0.4-1-0.4
	c-0.7-0.1-1.4-0.1-2.2,0c-0.8,0.1-1.4,0.6-0.9,1.6c0.8,1.1,0.6,1.7-0.5,2c-0.9-0.1-1.7-0.1-2.6,0C112.7,19.7,112,19.4,112,18.2z
	 M120.9,9.6c-0.6,0.9-1.5,1.7-1.6,2.8c0,0.3-0.5,0.5-0.1,0.8c0.4,0.2,0.9,0.3,1.3,0.2c0.5-0.1,0.4-0.5,0.4-0.8
	C120.9,11.7,120.9,10.6,120.9,9.6L120.9,9.6z"/>
<path class="st0" d="M165.9,18.4l0.3-0.6c1.1,0,1.5-0.8,1.7-1.7c0.6-2.2,1.1-4.3,1.6-6.5c0.1-0.7,1-1.6,0-2s-1.1,0.9-1.6,1.4
	c-0.3,0.5-0.3,1.2-1,1.3c-1.2,0.1-1.4-0.4-1-1.5c0.2-0.8,0.4-1.7,0.6-2.6c0.2-0.9,0.8-1.1,1.6-1.1c3.4,0.1,6.8,0,10.3,0
	c-0.4,1.5-0.8,2.9-1.1,4.4c-0.1,0.6-0.5,0.6-0.9,0.7c-1,0-1.3-0.4-1-1.4c0.1-0.5,0-1.2-0.6-1.3s-0.8,0.6-0.9,1.2s0.2,1.1-0.3,1.6
	c-0.7,2.1-1.3,4.2-1.8,6.3c-0.1,0.4,0,0.9,0.4,1.1c0.7,0.7,0.4,1.4-0.6,1.7c-1.5,0-3-0.1-4.5,0C166.1,19.6,165.8,19.2,165.9,18.4z"
	/>
<path class="st0" d="M88.1,9.8c-0.9,2.3-1.3,4.7-1.9,7c-0.1,0.5,0,0.9,0.4,1.3c0.7,0.8,0.4,1.4-0.7,1.7c-1.4,0-2.9-0.1-4.3-0.1
	c-1,0-1.6-0.1-1.1-1.3c0-0.2,0-0.3,0.3-0.4c0.9-0.3,1.5-1.1,1.7-2C82.9,14,83.5,12,84,9.9c0.2-0.7,0.9-1.7-0.1-2s-1.1,0.8-1.4,1.4
	c-0.4,0.4-0.4,1.2-1.1,1.3c-1.1,0.1-1.5-0.3-1.1-1.4c0.3-0.9,0.5-1.8,0.7-2.7s0.5-1.1,1.4-1.1c3.4,0.1,6.9,0,10.4,0
	C92.4,7,92,8.4,91.7,9.8c-0.1,0.6-0.5,0.7-1,0.8c-0.9,0-1.2-0.5-1-1.3C89.8,8.8,90,8,89.3,7.9s-0.9,0.7-1.1,1.3
	C88.1,9.4,88.1,9.6,88.1,9.8z"/>
<path class="st0" d="M148.8,11c0.3,1.4,0.6,2.8,0.9,4.2c0.2,1.1,0.8,2,1.6,2.6c0,1.2-0.4,1.9-1.8,1.7c-0.3,0-0.6,0-0.9,0
	c-1.5,0.2-2.2-0.5-2.5-1.9s-0.7-2.4-1.1-3.7c-0.5,1.2-1,2.3-0.6,3.4c0.4,0.7,0.4,1.5,0.1,2.3h-0.8h-5.7l0.1-1.4c0-0.2,0-0.3,0.2-0.4
	c0.9-0.2,1.6-0.9,1.7-1.8c0.6-2.5,1.3-5.1,1.9-7.6c0.1-0.6,0.2-1.1-0.5-1.4c-0.3-0.1-0.5-0.4-0.5-0.7c0.1-0.8,0.5-1.1,1.4-1.1
	c1.6,0.1,3.1,0.1,4.7,0c0.9,0,1.1,0.3,1,1l-0.6,0.5c-0.9,0.8-1.5,1.9-1.8,3.1l1.5-1.3c0.9-0.5,1.9-1,1.6-2.3
	c0.1-0.9,0.7-1.1,1.6-1.1c0.9,0.1,1.8,0.1,2.6,0c0.8-0.1,1.1,0.2,1,1c-0.3,0.5-0.9,0.5-1.3,0.7C151.5,8.1,150.1,9.5,148.8,11z"/>
<path class="st1" d="M180.5,17.3c0,1.3-1,2.4-2.3,2.4c0,0-0.1,0-0.1,0c-1.3,0-2.4-1.1-2.4-2.4s1.1-2.4,2.4-2.4c1.3,0,2.4,1,2.4,2.3
	C180.5,17.2,180.5,17.2,180.5,17.3z M180,17.3c0-1.1-0.9-1.9-1.9-1.9s-1.9,0.9-1.9,1.9s0.9,1.9,1.9,1.9S180,18.4,180,17.3z"/>
<path class="st1" d="M177,18.7V16h1c0.2,0,0.3,0,0.5,0.1c0.1,0.1,0.2,0.1,0.3,0.3c0.1,0.1,0.1,0.3,0.1,0.4c0,0.2-0.1,0.3-0.2,0.5
	c-0.1,0.1-0.3,0.2-0.5,0.3c0.1,0,0.1,0.1,0.2,0.1c0.1,0.1,0.2,0.2,0.3,0.4l0.4,0.7h-0.4l-0.3-0.6c-0.1-0.2-0.2-0.3-0.2-0.4
	c0-0.1-0.1-0.1-0.2-0.2c0,0-0.1-0.1-0.1-0.1h-0.5v1.2H177z M177.3,17.2h0.7c0.1,0,0.2,0,0.3-0.1c0.1,0,0.1-0.1,0.2-0.2
	c0-0.1,0.1-0.2,0.1-0.2c0-0.1,0-0.2-0.1-0.3c-0.1-0.1-0.2-0.1-0.4-0.1h-0.7L177.3,17.2z"/>
</svg>
