<?xml version="1.0" encoding="utf-8"?>
<!-- Generator: Adobe Illustrator 21.1.0, SVG Export Plug-In . SVG Version: 6.00 Build 0)  -->
<svg version="1.1" id="Layer_1" xmlns="http://www.w3.org/2000/svg" xmlns:xlink="http://www.w3.org/1999/xlink" x="0px" y="0px"
	 viewBox="0 0 181 102.1" style="enable-background:new 0 0 181 102.1;" xml:space="preserve">
<style type="text/css">
	.st0{fill:#E71737;}
	.st1{fill:#E51837;}
</style>
<title>Grocery</title>
<path class="st0" d="M162.2,91.2h-10.3c-7.7,0-15.4,0-23.1,0c-6.5,0.1-12.9,0.1-19.4,0.4c-13.2,0.6-26.5,1.3-39.7,2.1
	c-7.7,0.5-15.4,1.4-23.1,2.4c-8,0.9-15.8,2.7-23.4,5.4c-0.6,0.2-1.4-0.1-2.1-0.2c0-0.6,0.1-1.2,0.3-1.7c0.9-3,2.5-4.6,5.9-4.8
	c7.7-0.6,15.3-2,22.9-2.6c12.9-1,25.9-1.8,38.9-2.4c9.4-0.4,18.9-0.5,28.4-0.7c9.2-0.2,18.4-0.3,27.6-0.3c5.1,0,10.2,0.1,15.2,0.1
	C161.8,88.8,162.4,89.3,162.2,91.2z"/>
<path d="M100.5,84.4c-5.3,0-9.3-3.7-9.3-8.9c-0.2-4.9,3.7-9,8.6-9.2c0.2,0,0.4,0,0.6,0c5.7,0,9.8,3.8,9.8,9.1
	C110.1,80.7,106.1,84.4,100.5,84.4z M100.5,82c4,0,6.9-2.7,6.9-6.6c-0.2-3.7-3.4-6.6-7.1-6.5c-3.6,0.2-6.4,3.1-6.5,6.6
	c0,3.5,2.8,6.4,6.4,6.4C100.3,82,100.4,82,100.5,82L100.5,82z"/>
<path d="M144.9,66.7h2.3c0.1,0.4,0.1,0.7,0.1,1.1c0,3.3,0,6.6,0,9.9c0,3.5-1.8,5.8-5.3,6.5c-1.4,0.3-2.9,0.3-4.3,0.1
	c-3.2-0.4-5.6-3.2-5.5-6.5c-0.1-3.3,0-6.6,0-9.9c0-1,0.4-1.2,1.3-1.3s1.3,0.4,1.3,1.3c0,3,0,6.1,0,9.1c0.1,4.3,4.1,6.6,7.9,4.4
	c1.7-0.9,2.1-2.5,2.1-4.2c0-2.9,0-5.9,0-8.8C144.9,67.9,144.9,67.4,144.9,66.7z"/>
<path d="M32.8,70.3c-2.6-1.1-5.1-2-7.9-1.3c-3.3,0.8-5.4,4.1-4.8,7.4c0.3,3.2,3.1,5.6,6.3,5.4c2.3-0.3,4.5-0.7,6.7-1.2
	c0.6,1.8,0.3,2.4-1.9,3.1c-4,1.1-7.9,1.3-11.1-1.8c-2.9-2.8-3.6-7.1-1.8-10.6c1.9-3.6,6-5.6,10-4.9c0.9,0.1,1.8,0.3,2.7,0.6
	C33.1,67.7,33.1,67.7,32.8,70.3z"/>
<path d="M17,7c2-3.5,5.8-5.7,9.9-5.4c4.3,0.1,7.1,2.9,9.8,6c0.6-0.8,1.1-1.3,1.5-1.9c2.9-3.9,5.4-4.7,10.1-3.5c4.1,1,7.1,4.7,7.2,9
	c-0.1,3.9-0.4,7.9-0.8,11.8c-1,10.5-2,21-3,31.4c-0.1,1.1-0.2,2.2-0.4,3.3c-0.4,1.9-2.5,3.1-4,2c-1.3-0.9-2.2-2.2-2.6-3.6
	c-1.5-9.6-2.7-19.3-4-28.9c-0.1-0.8-0.6-2.2-1-2.2c-1.4-0.1-1.5,1.2-1.7,2.3c-1.5,9.8-3,19.6-4.5,29.5c-0.4,2.6-2,4-4,3
	c-1.6-0.7-2.8-2.2-3.1-4c-1.6-9.9-3.2-19.8-4.9-29.7c-0.1-0.5-0.6-1.3-0.8-1.3c-0.6,0.1-1.2,0.4-1.6,0.8c-0.3,0.5-0.5,1.1-0.5,1.7
	c-1.4,9.9-2.8,19.8-4.2,29.7c0,1.3-0.9,2.5-2.1,2.9c-1.3,0.5-2.7-0.1-3.3-1.4c-0.7-1-1.2-2.2-1.5-3.4c-1.7-13.3-3.4-26.7-5-40.1
	c-0.2-1.8-0.5-3.5-0.7-5.2c-0.5-3.1,1-6.2,3.8-7.6c2.3-1.1,6.3-0.9,8.4,1.6C14.9,4.8,15.8,5.7,17,7z"/>
<path d="M142.6,27.1c1.1-1.9,3.1-3.2,5.3-3.4c4.3-0.5,8.2,2.5,8.7,6.8c0.1,0.7,0.1,1.4,0,2.2c-1.1,7.1-1.7,14.2-2.5,21.3
	c-0.2,1.5-0.5,3.1-1,4.5c-0.6,1.9-2.4,2.1-3.9,0.6s-1.5-3.1-1.8-4.8c-0.7-4.2-1.3-8.4-2-12.7c-0.1-0.2-0.2-0.5-0.3-0.7l-0.5-0.1
	c-0.3,0.9-0.5,1.8-0.7,2.7c-0.5,4.4-0.9,8.8-1.4,13.2c-0.3,2.7-2.7,4.2-4.4,2.7c-1-0.8-1.8-1.9-2.1-3.2c-0.8-3.8-1.3-7.7-1.8-11.6
	c-0.6-4.9-1.1-9.9-1.6-14.8c-0.1-1.1,0-2.2,0.4-3.3c0.9-2.3,3.4-3.5,5.8-2.7c0.6,0.2,1.1,0.5,1.5,0.9
	C140.9,25.5,141.6,26.2,142.6,27.1z"/>
<path d="M67.3,33.7c-0.4-0.1-0.8-0.2-1.1-0.3c-2.3,0-4.4-1.1-5.7-3c-1.3-1.7-1.3-3.2,0.1-4.7c3.6-4.1,9.8-4.5,13.9-0.9
	c0.5,0.5,1,1,1.4,1.5c0.8,1.1,1.3,2.5,1.4,3.8c1.3,8,1.4,16.1,0.3,24.1c-0.1,0.8-0.3,1.7-0.6,2.5c-0.5,1.5-1.2,2.9-3,3.2
	c-1.9,0.4-2.8,0.1-4.3-1.6c-5,3.1-10.3,1.3-13.2-4.6c-2.5-5-1.4-10.6,3.1-14.5C62,37.3,64.6,35.6,67.3,33.7z M65.4,48.9
	c0.3,0.2,0.8,0.8,1.3,0.9c1.3,0,2.4-1.1,2.4-2.5c0-0.9-0.5-1.3-1.4-1.3C66.3,46.2,65.2,47.4,65.4,48.9
	C65.4,48.9,65.4,48.9,65.4,48.9z"/>
<path d="M118.1,15.1c-0.3,1.1,0.3,1.8,1.4,2.6c1.8,1.1,3.3,2.7,2.9,5.1c-0.2,1.6-1.4,2.9-2.9,3.3c-1,0.3-1.2,0.9-1.3,1.9
	c-0.8,9.6-1.7,19.2-2.6,28.7c-0.3,2.6-1.5,3.6-3.6,3.3c-1.7-0.5-2.9-1.8-3.4-3.4c-0.5-3.6-0.9-7.3-1.3-11
	c-0.6-6.2-1.1-12.4-1.7-18.7c0-0.4-0.5-0.8-0.9-1.2c-0.9-1.1-2.2-2-2.8-3.3c-1.1-2.3,0.1-4.7,2.6-5.5c1-0.3,1.1-0.8,1.2-1.7
	c0.1-2.1,0.4-4.1,0.9-6.1c1.2-3.9,5.4-4.8,8.4-1.9C117.4,9.5,118.1,11,118.1,15.1z"/>
<path d="M167.7,60.1c-2.8,0.2-5.4-1.1-6.9-3.5c-0.6-0.9-0.9-1.9-0.9-2.9c0-1.5,1-2.3,2.6-2.2c0.5,0,1,0.1,1.4,0.1
	c1.8,0.1,2.3-0.8,1.4-2.4c-1.4-2.7-3-5.3-4.2-8.1c-1.6-3.2-2.1-6.8-1.4-10.3c0.9-5.2,5.9-8.7,11.1-7.8c1.7,0.3,3.3,1.1,4.6,2.2
	c2.1,1.8,4.4,3.7,4.9,6.7c0.2,1.3,0.1,2.6-0.3,3.9c-0.8,2.3-2.8,3.2-5.1,2.4c-0.8-0.3-1.5-0.8-2.4-1c-0.6-0.2-1.6-0.4-2,0
	c-0.4,0.6-0.5,1.3-0.3,2c0.9,2.6,2.1,5.2,2.9,7.8c0.7,2.1,1.1,4.3,1.3,6.6C174.7,57.9,172.4,60.1,167.7,60.1z"/>
<path d="M93.1,38.8c-0.5,4.5-0.8,8.7-1.3,12.9c-0.3,2.1-0.8,4.1-1.4,6.1c-0.7,2.4-3.3,2.8-5.1,1c-1.6-1.5-1.8-3.5-2.1-5.4
	c-0.8-6.9-1.5-13.8-2.1-20.7c0-1.5,0.1-3.1,0.3-4.6c0.2-2.2,1.8-4,3.9-4.6c1.9-0.7,4-0.1,5.3,1.3c0.8,0.7,1.3,0.8,2.2,0.1
	c1.7-1.4,3.6-2.4,5.7-1.2s4.1,3,4.2,5.8c0.4,4.7-3.2,8.8-7.9,9.2c-0.2,0-0.4,0-0.7,0C93.8,38.9,93.4,38.8,93.1,38.8z"/>
<path d="M121.2,31.8c0.1-1.6,0.4-3.2,0.7-4.8c0.9-3.2,4.4-4.1,7-2c2.4,1.8,3.1,4.3,2.9,7.1c-0.6,8.1-1.2,16.3-1.8,24.4
	c-0.2,2.9-1.8,4.3-3.9,3.4c-1.7-0.7-2.9-2.2-3-4.1C122.4,47.8,121.8,39.7,121.2,31.8z"/>
<path d="M121.6,13.3c-0.1-2.1,0.5-4.2,1.8-5.8c1-1.5,3.1-1.9,4.6-0.9c0.2,0.1,0.4,0.3,0.6,0.5c3.5,3.1,4.3,8.3,2,12.3
	c-1.6,2.7-4,2.8-6.2,0.6C122.5,18.4,121.5,15.9,121.6,13.3z"/>
<path d="M157.6,17.5c0.2-1.5,0.5-2.9,0.9-4.3c1.1-2.6,4.2-3,6.4-1.3c1.9,1.5,2.9,3.4,2.2,5.7c-0.7,2.7-2.8,4.8-5.5,5.5
	c-1.6,0.5-3.6-1.1-3.8-2.9c0-0.9,0-1.8,0-2.7L157.6,17.5z"/>
<path class="st1" d="M15.7,6c2-3.6,5.8-5.7,9.9-5.5c4.3,0.1,7.1,2.9,9.8,6c0.6-0.8,1.1-1.3,1.5-1.9c2.9-3.9,5.4-4.7,10.1-3.5
	c4.1,1,7.1,4.7,7.2,9c-0.1,3.9-0.4,7.9-0.8,11.8c-1,10.5-2,21-3,31.4c-0.1,1.1-0.2,2.2-0.4,3.3c-0.4,1.9-2.5,3.1-4,2
	c-1.3-0.9-2.2-2.2-2.6-3.6c-1.5-9.6-2.7-19.3-4-28.9c-0.1-0.8-0.6-2.2-1-2.2c-1.4-0.1-1.5,1.2-1.7,2.3c-1.5,9.8-3,19.6-4.5,29.5
	c-0.4,2.6-2,4-4,3c-1.6-0.7-2.8-2.2-3.1-4C23.6,44.9,22,35,20.3,25.1c-0.1-0.5-0.6-1.3-0.8-1.3c-0.6,0.1-1.2,0.4-1.6,0.8
	c-0.3,0.5-0.5,1.1-0.5,1.7c-1.4,9.9-2.8,19.8-4.2,29.7c0,1.3-0.9,2.5-2.1,2.9c-1.3,0.5-2.7-0.1-3.3-1.4c-0.7-1-1.2-2.2-1.5-3.4
	c-1.7-13.3-3.4-26.7-5-40.1c-0.2-1.8-0.5-3.5-0.7-5.2c-0.5-3.1,1-6.2,3.8-7.6c2.3-1.1,6.3-0.9,8.4,1.6C13.6,3.8,14.6,4.7,15.7,6z"/>
<path class="st1" d="M141.3,26.1c1.1-1.9,3.1-3.2,5.3-3.4c4.3-0.5,8.2,2.5,8.7,6.8c0.1,0.7,0.1,1.4,0,2.2
	c-1.1,7.1-1.7,14.2-2.5,21.3c-0.2,1.5-0.5,3.1-1,4.5c-0.6,1.9-2.4,2.1-3.9,0.6s-1.5-3.1-1.8-4.8c-0.7-4.2-1.3-8.4-2-12.7
	c-0.1-0.2-0.2-0.5-0.3-0.7l-0.5-0.1c-0.3,0.9-0.5,1.8-0.7,2.7c-0.5,4.4-0.9,8.8-1.4,13.2c-0.3,2.7-2.7,4.2-4.4,2.7
	c-1-0.8-1.8-1.9-2.1-3.2c-0.8-3.8-1.3-7.7-1.8-11.6c-0.6-4.9-1.1-9.9-1.6-14.8c-0.1-1.1,0-2.2,0.4-3.3c0.9-2.3,3.4-3.5,5.8-2.7
	c0.6,0.2,1.1,0.5,1.5,0.9C139.6,24.5,140.3,25.2,141.3,26.1z"/>
<path class="st1" d="M66,32.7c-0.4-0.1-0.8-0.2-1.1-0.3c-2.3,0-4.4-1.1-5.7-3c-1.3-1.7-1.3-3.2,0.1-4.7c3.6-4.1,9.8-4.5,13.9-0.9
	c0.5,0.5,1,1,1.4,1.5c0.8,1.1,1.3,2.4,1.5,3.8c1.3,8,1.4,16.1,0.3,24.1c-0.1,0.8-0.3,1.7-0.6,2.5c-0.5,1.5-1.2,2.9-3,3.2
	c-1.9,0.4-2.8,0.1-4.3-1.6c-5,3.1-10.3,1.3-13.2-4.6c-2.5-5-1.4-10.6,3.1-14.5C60.7,36.3,63.3,34.7,66,32.7z M64.1,48
	c0.3,0.2,0.8,0.8,1.3,0.9c1.3,0,2.4-1.1,2.4-2.5c0-0.9-0.5-1.3-1.4-1.3C64.9,45.2,63.9,46.5,64.1,48C64,47.9,64.1,47.9,64.1,48z"/>
<path class="st1" d="M116.7,14.1c-0.3,1.1,0.3,1.8,1.4,2.6c1.8,1.1,3.3,2.7,2.9,5.1c-0.2,1.6-1.4,2.9-2.9,3.3
	c-1,0.3-1.2,0.9-1.3,1.9c-0.8,9.6-1.7,19.2-2.6,28.7c-0.3,2.6-1.5,3.6-3.6,3.3c-1.7-0.5-2.9-1.8-3.4-3.4c-0.5-3.6-0.9-7.3-1.3-11
	c-0.6-6.2-1.1-12.4-1.7-18.7c0-0.4-0.5-0.8-0.9-1.2c-0.9-1.1-2.2-2-2.8-3.3c-1.1-2.3,0.1-4.7,2.6-5.5c1-0.3,1.1-0.8,1.2-1.7
	c0.1-2.1,0.4-4.1,0.9-6.1c1.2-3.9,5.4-4.8,8.4-1.9C116.2,8.5,116.7,10.1,116.7,14.1z"/>
<path class="st1" d="M166.4,59.1c-2.8,0.2-5.4-1.1-6.9-3.5c-0.6-0.9-0.9-1.9-0.9-2.9c0-1.5,1-2.3,2.6-2.2c0.5,0,1,0.1,1.4,0.1
	c1.8,0.1,2.3-0.8,1.4-2.4c-1.4-2.7-3-5.3-4.2-8.1c-1.6-3.2-2.1-6.8-1.4-10.3c0.9-5.2,5.9-8.7,11.1-7.8c1.7,0.3,3.3,1.1,4.6,2.2
	c2.1,1.8,4.4,3.7,4.9,6.7c0.2,1.3,0.1,2.6-0.3,3.9c-0.8,2.3-2.8,3.2-5.1,2.4c-0.8-0.3-1.5-0.8-2.4-1c-0.6-0.2-1.6-0.4-2,0
	c-0.4,0.6-0.5,1.3-0.3,2c0.9,2.6,2.1,5.2,2.9,7.8c0.7,2.1,1.1,4.3,1.3,6.6C173.4,57,171.2,59.1,166.4,59.1z"/>
<path class="st1" d="M91.9,37.9c-0.5,4.5-0.8,8.7-1.3,12.9c-0.3,2.1-0.8,4.1-1.4,6.1c-0.7,2.4-3.3,2.8-5.1,1
	c-1.6-1.5-1.8-3.5-2.1-5.4c-0.8-6.9-1.5-13.8-2.1-20.7c0-1.5,0.1-3.1,0.3-4.6c0.2-2.2,1.8-4,3.9-4.6c1.9-0.7,4-0.1,5.3,1.3
	c0.8,0.7,1.3,0.8,2.2,0.1c1.7-1.4,3.6-2.4,5.7-1.2s4.1,3,4.2,5.8c0.4,4.7-3.2,8.8-7.9,9.2c-0.2,0-0.4,0-0.7,0
	C92.5,37.9,92.1,37.9,91.9,37.9z"/>
<path class="st1" d="M119.9,30.8c0.1-1.6,0.4-3.2,0.7-4.8c0.9-3.2,4.4-4.1,7-2c2.4,1.8,3.1,4.3,2.9,7.1c-0.6,8.1-1.2,16.3-1.8,24.4
	c-0.2,2.9-1.8,4.3-3.9,3.4c-1.7-0.7-2.9-2.2-3-4.1C121.1,46.8,120.5,38.8,119.9,30.8z"/>
<path class="st1" d="M120.3,12.4c-0.1-2.1,0.5-4.2,1.8-5.9c1-1.5,3.1-1.9,4.6-0.9c0.2,0.1,0.4,0.3,0.6,0.5c3.5,3.1,4.3,8.3,2,12.3
	c-1.6,2.7-4,2.8-6.2,0.6C121.2,17.4,120.2,14.9,120.3,12.4z"/>
<path class="st1" d="M156.3,16.5c0.2-1.5,0.5-2.9,0.9-4.3c1.1-2.6,4.2-3,6.4-1.3c1.9,1.5,2.9,3.4,2.2,5.7c-0.7,2.7-2.8,4.8-5.5,5.5
	c-1.6,0.5-3.6-1.1-3.8-2.9c0-0.9,0-1.8,0-2.7L156.3,16.5z"/>
<path d="M41.4,84.5c-3.2,0.2-5.9-2.3-6.1-5.5c0-0.1,0-0.2,0-0.3c0-3.3,2.6-6,5.9-6.1c0.1,0,0.2,0,0.4,0c3.3-0.1,6,2.5,6.1,5.8
	c0,0.2,0,0.3,0,0.5C47.6,82.1,45.1,84.5,41.4,84.5z M41.4,74.7c-2-0.1-3.7,1.5-3.8,3.5c0,0.1,0,0.1,0,0.2c0,2.1,1.7,3.8,3.8,3.8
	c0,0,0.1,0,0.1,0c2.1,0.1,3.8-1.6,3.9-3.7c0.1-2.1-1.6-3.8-3.7-3.9C41.7,74.7,41.5,74.7,41.4,74.7L41.4,74.7z"/>
<path d="M115.1,73.3c0.7-0.4,1.4-0.7,2.2-0.9c1.9-0.5,3.8,0.5,4.3,2.4c0,0.1,0.1,0.3,0.1,0.4c0.3,2.7,0.4,5.4,0.3,8.1
	c0,0.3-0.9,0.8-1.3,0.8c-0.5-0.1-0.9-0.5-1-1c-0.1-2.1,0-4.2-0.1-6.3c0-1.1-0.4-2.3-1.6-2.5c-1,0-1.9,0.2-2.7,0.8
	c-0.5,0.5-0.7,1.1-0.7,1.8c-0.1,2-0.1,4,0,5.9c0,0.8-0.2,1.3-1.2,1.3s-1.4-0.3-1.3-1.3c0-2.9,0-5.8,0.1-8.6c0-0.6,0.3-1.6,0.6-1.7
	c0.7,0,1.5,0.1,2.2,0.4L115.1,73.3z"/>
<path d="M57.1,83.5c-0.9,0.4-1.8,0.7-2.7,0.9c-1.9,0.4-3.7-0.8-4-2.7c0-0.1,0-0.2,0-0.3c-0.2-2.7-0.3-5.4-0.2-8.1
	c0-0.3,0.8-0.7,1.2-0.7c0.5,0.1,0.8,0.4,1,0.8c0.1,1.9,0,3.7,0.1,5.6c0,0.9,0.2,1.9,0.7,2.7c0.7,0.6,1.6,0.8,2.4,0.6
	c1.2-0.1,2-1.2,2-2.3c0-2,0-4.1,0-6.1c0-0.8,0-1.4,1.2-1.4S60,73.1,60,74c0,2.9,0,5.8-0.1,8.6c0,0.5-0.3,1.5-0.6,1.5
	c-0.7,0-1.4-0.1-2-0.3L57.1,83.5z"/>
<path d="M65.7,73.5c1.6-1.1,3.2-1.8,5-0.7c1.3,0.8,2.1,2.2,2,3.7c0.1,2.1,0,4.3,0,6.4c0,0.9-0.3,1.3-1.2,1.3s-1.1-0.4-1.1-1.3
	c0-2.3-0.1-4.6-0.3-6.8c0-1.1-0.9-1.9-2-1.9c-0.1,0-0.2,0-0.4,0c-1.4,0.1-2.4,1.2-2.6,2.6c0,2,0,4,0,6.1c0,0.8-0.1,1.3-1.1,1.3
	c-1,0-1.2-0.5-1.1-1.3c0-2.9,0-5.9,0-8.8c0-0.5,0.3-1.5,0.6-1.5c0.7,0,1.3,0.2,1.9,0.5L65.7,73.5z"/>
<path d="M149.6,81.2c1,0.5,2,0.9,3.1,1.1c0.6,0.1,1.4-0.5,2.1-0.8c-0.3-0.6-0.6-1.2-1.1-1.7c-0.9-0.8-2.1-1.3-3-2.1
	c-1.1-0.7-1.4-2.2-0.8-3.3c1.1-1.8,3.4-2.5,5.3-1.8c1.5,0.3,2,1.2,1.5,2.8c-0.9-0.4-1.8-0.7-2.7-0.9c-0.6,0.1-1.3,0.2-1.8,0.5
	c0.2,0.6,0.5,1.1,0.9,1.6c0.8,0.6,1.7,1,2.6,1.6c1.3,0.8,2,2.4,1.6,3.9c-0.5,1.4-1.9,2.3-3.4,2.3c-0.9,0-1.8-0.1-2.7-0.3
	C149.6,83.8,149.1,82.8,149.6,81.2z"/>
<path d="M74.4,74.2l4.1-3.9l0.2,2.2c0.8-0.1,1.7-0.1,2.5,0c0.5,0.1,0.9,0.5,1,1c0,0.4-0.6,0.9-1,1c-0.8,0.1-1.7,0.1-2.6,0
	c0,2.1-0.1,4.1,0,6.1c0.1,1.3,1,1.8,2.3,1.4c0.5-0.1,1-0.4,1.5-0.5c0.7,1.7,0.4,2.3-1.3,2.6c-2.7,0.5-5.1-0.5-5-3.9
	c0-1.3,0-2.6,0-3.9s-0.1-2.3-1.9-1.9L74.4,74.2z"/>
<path d="M161.8,78.9c-0.2-0.3-0.3-0.6-0.4-0.9c-0.3-3-0.6-5.9-0.9-8.9c-0.1-0.3,0-0.5,0.1-0.8c0.4-0.7,0.9-1.3,1.3-2
	c0.4,0.6,1.3,1.2,1.3,1.9c0.1,2,0.1,3.9-0.1,5.9c-0.1,1.6-0.6,3.2-0.8,4.8L161.8,78.9z"/>
<path d="M162.3,81.1c0.4,0.6,1,1.2,1,1.8c0.1,0.7-0.3,1.4-1,1.5c-0.2,0-0.4,0-0.6,0c-0.7-0.3-1.2-0.9-1.3-1.6c0-0.5,0.8-1.1,1.2-1.7
	L162.3,81.1z"/>
</svg>
