<?xml version="1.0" encoding="utf-8"?>
<!-- Generator: Adobe Illustrator 21.1.0, SVG Export Plug-In . SVG Version: 6.00 Build 0)  -->
<svg version="1.1" id="Layer_1" xmlns="http://www.w3.org/2000/svg" xmlns:xlink="http://www.w3.org/1999/xlink" x="0px" y="0px"
	 viewBox="0 0 236 170.2" style="enable-background:new 0 0 236 170.2;" xml:space="preserve">
<style type="text/css">
	.st0{fill:#F8E79F;}
	.st1{fill:#414042;}
	.st2{fill:#FF0000;}
</style>
<g>
	<path class="st0" d="M177.6,81.5v3.8V81.5c-0.9,0-0.9,0-0.9-0.9c0-3.8,0-8.5,0-12.3v-6.6c0-5.7-1.9-7.6-7.6-7.6H87.5
		c-17.1,0-33.2,0-50.3,0c-0.9,0-3.8,0-4.7,1.9c-0.9,1.9-0.9,4.7-0.9,4.7c0,3.8,0,6.6,0,10.4v4.7c0,1.9,0,4.7,0,4.7
		c-0.9,0.9-2.8,0.9-4.7,0.9c-8.5,0.9-15.2,5.7-19,14.2C5,101.4,4.1,108,5,116.6c1.9,15.2,10.4,24.7,25.6,24.7c0,0,0,0,0,0.9
		c0,3.8,0,7.6,0,11.4v3.8c0,2.8,0,4.7,1.9,6.6c1.9,1.9,3.8,1.9,6.6,1.9h129.9c5.7,0,7.6-1.9,7.6-7.6c0-5.7,0-10.4,0-16.1
		c0-0.9,0-0.9,0.9-1.9c0,0,0.9,0,1.9,0h0.9c9.5-0.9,17.1-5.7,20.9-15.2c1.9-5.7,2.8-11.4,1.9-19C201.4,90,192.8,81.5,177.6,81.5z
		 M109.3,108c-5.7,0-11.4-5.7-11.4-11.4s5.7-11.4,11.4-11.4c5.7,0,11.4,5.7,11.4,11.4C120.7,101.4,115,107.1,109.3,108z
		 M139.7,137.4c-5.7,0-12.3-5.7-12.3-11.4c0-5.7,5.7-11.4,11.4-11.4s11.4,5.7,11.4,11.4C151.1,131.7,145.4,137.4,139.7,137.4z"/>
	<path class="st1" d="M139.7,113.7c-5.7,0-11.4,5.7-11.4,11.4c0,5.7,5.7,11.4,12.3,11.4c5.7,0,11.4-5.7,11.4-11.4
		C151.1,120.3,145.4,113.7,139.7,113.7z M139.7,128.9c-1.9,0-2.8-0.9-2.8-2.8s0.9-2.8,2.8-2.8c1.9,0,2.8,0.9,2.8,2.8
		S141.6,128.9,139.7,128.9z"/>
	<path class="st1" d="M109.3,84.3C103.7,84.3,98,90,98,95.7c0,5.7,5.7,11.4,11.4,11.4c5.7,0,11.4-5.7,11.4-11.4
		C120.7,90,115,84.3,109.3,84.3z M109.3,98.5c-1.9,0-2.8-0.9-2.8-2.8s0.9-2.8,2.8-2.8s2.8,0.9,2.8,2.8S111.2,98.5,109.3,98.5z"/>
</g>
<path class="st2" d="M213.7,87.1c14.2-4.7,19-12.3,17.1-26.6c-0.9-7.6-2.8-13.3-6.6-19c-5.7-7.6-12.3-11.4-21.8-9.5h-0.9
	c-1.9,0-3.8,0.9-3.8-1.9l-0.9-4.7c-0.9-3.8-1.9-8.5-2.8-12.3c0-0.9-0.9-2.8-1.9-3.8c-1.9-0.9-2.8-0.9-4.7,0
	C143.5,18.9,48.6,38.8,47.7,39.7h-2.8l2.8,12.3h129.9c3.8,0,3.8,0,3.8,4.7v5.7c0,4.7,0,8.5,0,13.3c0,0.9,0,1.9,0.9,2.8
	c0.9,0.9,1.9,1.9,2.8,1.9c9.5,1.9,15.2,7.6,19,16.1c0.9,0.9,0.9,2.8,0.9,3.8c0,1.9,0.9,2.8,0.9,4.7s0.9,3.8,0.9,5.7
	c0,1.9,0,4.7-0.9,7.6l10.4-1.9c0,0,0,0,0-0.9c-0.9-2.8-1.9-6.6-2.8-9.5l-0.9-5.7c-0.9-2.8-1.9-6.6-1.9-9.5
	C211.8,88.1,211.8,88.1,213.7,87.1z"/>
<path class="st1" d="M104.6,49.2c23.7,0,47.4,0,71.1,0c5.7,0,6.6,0.9,6.6,6.6s0,12.3,0,18c0,1.9,0,2.8,1.9,2.8
	c14.2,3.8,20.9,13.3,23.7,26.6c1.9,8.5,0.9,16.1-2.8,23.7c-3.8,8.5-10.4,15.2-19.9,17.1c-1.9,0-2.8,0.9-2.8,2.8c0,5.7,0,11.4,0,17.1
	c0,3.8-1.9,5.7-5.7,5.7c-48.4,0-96.8,0-145.1,0c-3.8,0-5.7-1.9-5.7-5.7c0-5.7,0-11.4,0-17.1c0-1.9,0-2.8-1.9-2.8
	c-14.2-2.8-20.9-12.3-22.8-25.6c-1.9-10.4,0-20.9,5.7-30.4c3.8-5.7,9.5-10.4,17.1-11.4c1.9,0,2.8-0.9,2.8-2.8c0-6.6,0-12.3,0-19
	c0-4.7,1.9-5.7,5.7-5.7C56.2,49.2,79.9,49.2,104.6,49.2L104.6,49.2z M104.6,57.7c-22.8,0-44.6,0-66.4,0c-2.8,0-3.8,0.9-2.8,2.8
	c0,4.7,0,10.4,0,15.2c0,7.6,0,7.6-7.6,8.5c-7.6,1.9-13.3,5.7-16.1,12.3c-2.8,5.7-2.8,12.3-1.9,19c0.9,12.3,7.6,20.9,20.9,21.8
	c2.8,0,4.7,1.9,4.7,4.7c0,4.7,0,10.4,0,15.2c0,4.7,0,4.7,4.7,4.7c16.1,0,32.3,0,47.4,0c27.5,0,55,0,82.5,0c3.8,0,3.8,0,3.8-3.8
	c0-5.7,0-10.4,0-16.1c0-1.9,0.9-3.8,2.8-4.7c0.9-0.9,2.8-0.9,3.8-0.9c8.5-0.9,14.2-4.7,17.1-13.3c1.9-5.7,2.8-11.4,1.9-17.1
	c-0.9-14.2-8.5-21.8-21.8-21.8c-2.8,0-4.7-1.9-4.7-4.7c0-5.7,0-12.3,0-18c0-3.8,0-3.8-3.8-3.8C148.2,57.7,126.4,57.7,104.6,57.7z"/>
<path class="st1" d="M104.6,49.2c23.7,0,47.4,0,71.1,0c5.7,0,6.6,0.9,6.6,6.6s0,12.3,0,18c0,1.9,0,2.8,1.9,2.8
	c14.2,3.8,20.9,13.3,23.7,26.6c1.9,8.5,0.9,16.1-2.8,23.7c-3.8,8.5-10.4,15.2-19.9,17.1c-1.9,0-2.8,0.9-2.8,2.8c0,5.7,0,11.4,0,17.1
	c0,3.8-1.9,5.7-5.7,5.7c-48.4,0-96.8,0-145.1,0c-3.8,0-5.7-1.9-5.7-5.7c0-5.7,0-11.4,0-17.1c0-1.9,0-2.8-1.9-2.8
	c-14.2-2.8-20.9-12.3-22.8-25.6c-1.9-10.4,0-20.9,5.7-30.4c3.8-5.7,9.5-10.4,17.1-11.4c1.9,0,2.8-0.9,2.8-2.8c0-6.6,0-12.3,0-19
	c0-4.7,1.9-5.7,5.7-5.7C56.2,49.2,79.9,49.2,104.6,49.2L104.6,49.2z M104.6,57.7c-22.8,0-44.6,0-66.4,0c-2.8,0-3.8,0.9-2.8,2.8
	c0,4.7,0,10.4,0,15.2c0,7.6,0,7.6-7.6,8.5c-7.6,1.9-13.3,5.7-16.1,12.3c-2.8,5.7-2.8,12.3-1.9,19c0.9,12.3,7.6,20.9,20.9,21.8
	c2.8,0,4.7,1.9,4.7,4.7c0,4.7,0,10.4,0,15.2c0,4.7,0,4.7,4.7,4.7c16.1,0,32.3,0,47.4,0c27.5,0,55,0,82.5,0c3.8,0,3.8,0,3.8-3.8
	c0-5.7,0-10.4,0-16.1c0-1.9,0.9-3.8,2.8-4.7c0.9-0.9,2.8-0.9,3.8-0.9c8.5-0.9,14.2-4.7,17.1-13.3c1.9-5.7,2.8-11.4,1.9-17.1
	c-0.9-14.2-8.5-21.8-21.8-21.8c-2.8,0-4.7-1.9-4.7-4.7c0-5.7,0-12.3,0-18c0-3.8,0-3.8-3.8-3.8C148.2,57.7,126.4,57.7,104.6,57.7z"/>
<path class="st1" d="M235.5,64.4c0,10.4-4.7,20.9-17.1,26.6c-1.9,0.9-1.9,1.9-0.9,2.8c0.9,5.7,2.8,11.4,3.8,16.1
	c0,0.9,0,1.9,0.9,2.8c0,2.8-0.9,4.7-2.8,4.7c-1.9,0.9-4.7-0.9-4.7-2.8c-0.9-3.8-1.9-8.5-2.8-13.3c-0.9-3.8-1.9-7.6-2.8-12.3
	c-0.9-2.8,0.9-4.7,2.8-5.7c12.3-4.7,17.1-11.4,16.1-24.7c-0.9-6.6-1.9-12.3-5.7-17.1c-4.7-6.6-11.4-10.4-19.9-8.5
	c-0.9,0-1.9,0-2.8,0c-2.8,0-3.8-0.9-4.7-3.8c-0.9-5.7-2.8-11.4-3.8-17.1c-0.9-1.9-0.9-2.8-3.8-2.8C143.5,19.8,99.9,30.2,56.2,40.7
	c-0.9,0-2.8,0.9-3.8,0.9c-3.8,0.9-5.7,0-6.6-2.8c-1.9-1.9-0.9-3.8,2.8-4.7c6.6-1.9,14.2-2.8,20.9-4.7c39.8-9.5,79.7-19,118.6-28.5
	c5.7-0.9,6.6,0,7.6,4.7c0.9,5.7,2.8,10.4,3.8,16.1c0,1.9,0.9,2.8,2.8,2.8c15.2,0,23.7,8.5,29.4,21.8
	C234.6,52.1,235.5,56.8,235.5,64.4z"/>
<path class="st1" d="M235.5,64.4c0,10.4-4.7,20.9-17.1,26.6c-1.9,0.9-1.9,1.9-0.9,2.8c0.9,5.7,2.8,11.4,3.8,16.1
	c0,0.9,0,1.9,0.9,2.8c0,2.8-0.9,4.7-2.8,4.7c-1.9,0.9-4.7-0.9-4.7-2.8c-0.9-3.8-1.9-8.5-2.8-13.3c-0.9-3.8-1.9-7.6-2.8-12.3
	c-0.9-2.8,0.9-4.7,2.8-5.7c12.3-4.7,17.1-11.4,16.1-24.7c-0.9-6.6-1.9-12.3-5.7-17.1c-4.7-6.6-11.4-10.4-19.9-8.5
	c-0.9,0-1.9,0-2.8,0c-2.8,0-3.8-0.9-4.7-3.8c-0.9-5.7-2.8-11.4-3.8-17.1c-0.9-1.9-0.9-2.8-3.8-2.8C143.5,19.8,99.9,30.2,56.2,40.7
	c-0.9,0-2.8,0.9-3.8,0.9c-3.8,0.9-5.7,0-6.6-2.8c-1.9-1.9-0.9-3.8,2.8-4.7c6.6-1.9,14.2-2.8,20.9-4.7c39.8-9.5,79.7-19,118.6-28.5
	c5.7-0.9,6.6,0,7.6,4.7c0.9,5.7,2.8,10.4,3.8,16.1c0,1.9,0.9,2.8,2.8,2.8c15.2,0,23.7,8.5,29.4,21.8
	C234.6,52.1,235.5,56.8,235.5,64.4z"/>
<path class="st1" d="M146.3,92.8c0,0.9-0.9,1.9-1.9,2.8c-11.4,11.4-22.8,22.8-35.1,35.1c-1.9,1.9-4.7,1.9-6.6,0.9
	c-1.9-1.9-1.9-4.7,0-6.6c11.4-11.4,23.7-23.7,35.1-35.1c1.9-1.9,2.8-1.9,5.7-0.9C145.4,90,146.3,90.9,146.3,92.8z"/>
<path class="st1" d="M146.3,92.8c0,0.9-0.9,1.9-1.9,2.8c-11.4,11.4-22.8,22.8-35.1,35.1c-1.9,1.9-4.7,1.9-6.6,0.9
	c-1.9-1.9-1.9-4.7,0-6.6c11.4-11.4,23.7-23.7,35.1-35.1c1.9-1.9,2.8-1.9,5.7-0.9C145.4,90,146.3,90.9,146.3,92.8z"/>
<path class="st1" d="M151.1,126c0,5.7-5.7,11.4-11.4,11.4s-12.3-5.7-12.3-11.4c0-5.7,5.7-11.4,11.4-11.4
	C145.4,113.7,151.1,120.3,151.1,126z M139.7,128.9c1.9,0,2.8-0.9,2.8-2.8s-0.9-2.8-2.8-2.8c-1.9,0-2.8,0.9-2.8,2.8
	C135.9,127.9,137.8,128.9,139.7,128.9z"/>
<path class="st1" d="M109.3,84.3c5.7,0,11.4,5.7,11.4,11.4c0,5.7-5.7,11.4-11.4,11.4c-5.7,0-11.4-5.7-11.4-11.4
	C98,90,103.7,84.3,109.3,84.3z M112.2,95.7c0-1.9-0.9-2.8-2.8-2.8s-2.8,0.9-2.8,2.8s0.9,2.8,2.8,2.8S112.2,97.6,112.2,95.7z"/>
<path class="st1" d="M74.2,113.7c-3.8,0-8.5,0-12.3,0c-2.8,0-4.7-1.9-4.7-4.7c0-1.9,1.9-3.8,4.7-3.8c8.5,0,16.1,0,24.7,0
	c2.8,0,4.7,1.9,4.7,4.7s-1.9,4.7-4.7,4.7C81.8,113.7,78,113.7,74.2,113.7z"/>
<path class="st1" d="M74.2,113.7c-3.8,0-8.5,0-12.3,0c-2.8,0-4.7-1.9-4.7-4.7c0-1.9,1.9-3.8,4.7-3.8c8.5,0,16.1,0,24.7,0
	c2.8,0,4.7,1.9,4.7,4.7s-1.9,4.7-4.7,4.7C81.8,113.7,78,113.7,74.2,113.7z"/>
</svg>
