<svg id="Layer_1" data-name="Layer 1" xmlns="http://www.w3.org/2000/svg" viewBox="0 0 250 250"><defs><style>.cls-1{fill:#f8e79f;}.cls-2{fill:#414042;}.cls-3{fill:red;}</style></defs><title>Mass Merc.</title><path class="cls-1" d="M184.65,121.3v0c-.95,0-.95,0-.95-.95v-19c0-5.69-1.9-7.59-7.59-7.59H44.27c-.95,0-3.79,0-4.74,1.9a12.69,12.69,0,0,0-.95,4.74v19.92c-.95.95-2.85.95-4.74.95-8.54.95-15.18,5.69-19,14.23C12,141.22,11.07,147.86,12,156.4c1.9,15.18,10.43,24.66,25.61,24.66v16.13c0,2.85,0,4.74,1.9,6.64s3.79,1.9,6.64,1.9H176.11c5.69,0,7.59-1.9,7.59-7.59V182c0-.95,0-.95.95-1.9h2.85c9.49-.95,17.07-5.69,20.87-15.18a40.53,40.53,0,0,0,1.9-19C208.37,129.84,199.83,121.3,184.65,121.3Zm-68.29,26.56c-5.69,0-11.38-5.69-11.38-11.38s5.69-11.38,11.38-11.38,11.38,5.69,11.38,11.38C127.74,141.22,122,146.91,116.36,147.86Zm30.35,29.4c-5.69,0-12.33-5.69-12.33-11.38s5.69-11.38,11.38-11.38,11.38,5.69,11.38,11.38C158.09,171.58,152.4,177.27,146.71,177.27Z"/><path class="cls-2" d="M146.71,153.55c-5.69,0-11.38,5.69-11.38,11.38s5.69,11.38,12.33,11.38c5.69,0,11.38-5.69,11.38-11.38C158.09,160.19,152.4,153.55,146.71,153.55Zm0,15.18a2.85,2.85,0,1,1,2.85-2.85A2.52,2.52,0,0,1,146.71,168.73Z"/><path class="cls-2" d="M116.36,124.15c-5.69,0-11.38,5.69-11.38,11.38s5.69,11.38,11.38,11.38,11.38-5.69,11.38-11.38S122,124.15,116.36,124.15Zm0,14.23a2.85,2.85,0,1,1,2.85-2.85A2.52,2.52,0,0,1,116.36,138.38Z"/><path class="cls-3" d="M220.7,127c14.23-4.74,19-12.33,17.07-26.56-.95-7.59-2.85-13.28-6.64-19-5.69-7.59-12.33-11.38-21.82-9.49h-.95c-1.9,0-3.79.95-3.79-1.9l-.95-4.74c-.95-3.79-1.9-8.54-2.85-12.33a7.19,7.19,0,0,0-1.9-3.79,4.31,4.31,0,0,0-4.74,0C150.5,58.7,55.65,78.62,54.7,79.57H51.86L54.7,91.9H184.65c3.79,0,3.79,0,3.79,4.74v19a3.48,3.48,0,0,0,.95,2.85c.95.95,1.9,1.9,2.85,1.9,9.49,1.9,15.18,7.59,19,16.13.95.95.95,2.85.95,3.79,0,1.9.95,2.85.95,4.74s.95,3.79.95,5.69a23.57,23.57,0,0,1-.95,7.59l10.43-1.9v-.95c-.95-2.85-1.9-6.64-2.85-9.49l-.95-5.69a33.7,33.7,0,0,1-1.9-9.49C218.8,127.94,218.8,127.94,220.7,127Z"/><path class="cls-2" d="M111.61,89.05h71.14c5.69,0,6.64.95,6.64,6.64v18c0,1.9,0,2.85,1.9,2.85,14.23,3.79,20.87,13.28,23.71,26.56a34.07,34.07,0,0,1-2.85,23.71c-3.79,8.54-10.43,15.18-19.92,17.07a2.52,2.52,0,0,0-2.85,2.85v17.07q0,5.69-5.69,5.69H38.58q-5.69,0-5.69-5.69V186.75c0-1.9,0-2.85-1.9-2.85-14.23-2.85-20.87-12.33-22.76-25.61a43.07,43.07,0,0,1,5.69-30.35c3.79-5.69,9.49-10.43,17.07-11.38a2.52,2.52,0,0,0,2.85-2.85v-19c0-4.74,1.9-5.69,5.69-5.69Zm0,8.54H45.22q-4.27,0-2.85,2.85v15.18c0,7.59,0,7.59-7.59,8.54-7.59,1.9-13.28,5.69-16.13,12.33-2.85,5.69-2.85,12.33-1.9,19,.95,12.33,7.59,20.87,20.87,21.82A4.48,4.48,0,0,1,42.37,182v15.18c0,4.74,0,4.74,4.74,4.74H177.06c3.79,0,3.79,0,3.79-3.79V182a5.22,5.22,0,0,1,2.85-4.74c.95-.95,2.85-.95,3.79-.95,8.54-.95,14.23-4.74,17.07-13.28,1.9-5.69,2.85-11.38,1.9-17.07-.95-14.23-8.54-21.82-21.82-21.82a4.48,4.48,0,0,1-4.74-4.74v-18c0-3.79,0-3.79-3.79-3.79Z"/><path class="cls-2" d="M111.61,89.05h71.14c5.69,0,6.64.95,6.64,6.64v18c0,1.9,0,2.85,1.9,2.85,14.23,3.79,20.87,13.28,23.71,26.56a34.07,34.07,0,0,1-2.85,23.71c-3.79,8.54-10.43,15.18-19.92,17.07a2.52,2.52,0,0,0-2.85,2.85v17.07q0,5.69-5.69,5.69H38.58q-5.69,0-5.69-5.69V186.75c0-1.9,0-2.85-1.9-2.85-14.23-2.85-20.87-12.33-22.76-25.61a43.07,43.07,0,0,1,5.69-30.35c3.79-5.69,9.49-10.43,17.07-11.38a2.52,2.52,0,0,0,2.85-2.85v-19c0-4.74,1.9-5.69,5.69-5.69Zm0,8.54H45.22q-4.27,0-2.85,2.85v15.18c0,7.59,0,7.59-7.59,8.54-7.59,1.9-13.28,5.69-16.13,12.33-2.85,5.69-2.85,12.33-1.9,19,.95,12.33,7.59,20.87,20.87,21.82A4.48,4.48,0,0,1,42.37,182v15.18c0,4.74,0,4.74,4.74,4.74H177.06c3.79,0,3.79,0,3.79-3.79V182a5.22,5.22,0,0,1,2.85-4.74c.95-.95,2.85-.95,3.79-.95,8.54-.95,14.23-4.74,17.07-13.28,1.9-5.69,2.85-11.38,1.9-17.07-.95-14.23-8.54-21.82-21.82-21.82a4.48,4.48,0,0,1-4.74-4.74v-18c0-3.79,0-3.79-3.79-3.79Z"/><path class="cls-2" d="M242.51,104.23c0,10.43-4.74,20.87-17.07,26.56-1.9.95-1.9,1.9-.95,2.85.95,5.69,2.85,11.38,3.79,16.13a3.48,3.48,0,0,0,.95,2.85c0,2.85-.95,4.74-2.85,4.74-1.9.95-4.74-.95-4.74-2.85-.95-3.79-1.9-8.54-2.85-13.28-.95-3.79-1.9-7.59-2.85-12.33-.95-2.85.95-4.74,2.85-5.69,12.33-4.74,17.07-11.38,16.13-24.66-.95-6.64-1.9-12.33-5.69-17.07-4.74-6.64-11.38-10.43-19.92-8.54h-2.85c-2.85,0-3.79-.95-4.74-3.79-.95-5.69-2.85-11.38-3.79-17.07-.95-1.9-.95-2.85-3.79-2.85L63.24,80.52c-.95,0-2.85.95-3.79.95-3.79.95-5.69,0-6.64-2.85-1.9-1.9-.95-3.79,2.85-4.74C62.29,72,69.88,71,76.52,69.13c39.84-9.49,79.68-19,118.57-28.46,5.69-.95,6.64,0,7.59,4.74.95,5.69,2.85,10.43,3.79,16.13a2.52,2.52,0,0,0,2.85,2.85c15.18,0,23.71,8.54,29.4,21.82C241.56,91.9,242.51,96.64,242.51,104.23Z"/><path class="cls-2" d="M242.51,104.23c0,10.43-4.74,20.87-17.07,26.56-1.9.95-1.9,1.9-.95,2.85.95,5.69,2.85,11.38,3.79,16.13a3.48,3.48,0,0,0,.95,2.85c0,2.85-.95,4.74-2.85,4.74-1.9.95-4.74-.95-4.74-2.85-.95-3.79-1.9-8.54-2.85-13.28-.95-3.79-1.9-7.59-2.85-12.33-.95-2.85.95-4.74,2.85-5.69,12.33-4.74,17.07-11.38,16.13-24.66-.95-6.64-1.9-12.33-5.69-17.07-4.74-6.64-11.38-10.43-19.92-8.54h-2.85c-2.85,0-3.79-.95-4.74-3.79-.95-5.69-2.85-11.38-3.79-17.07-.95-1.9-.95-2.85-3.79-2.85L63.24,80.52c-.95,0-2.85.95-3.79.95-3.79.95-5.69,0-6.64-2.85-1.9-1.9-.95-3.79,2.85-4.74C62.29,72,69.88,71,76.52,69.13c39.84-9.49,79.68-19,118.57-28.46,5.69-.95,6.64,0,7.59,4.74.95,5.69,2.85,10.43,3.79,16.13a2.52,2.52,0,0,0,2.85,2.85c15.18,0,23.71,8.54,29.4,21.82C241.56,91.9,242.51,96.64,242.51,104.23Z"/><path class="cls-2" d="M153.35,132.69c0,.95-.95,1.9-1.9,2.85l-35.1,35.1a5.84,5.84,0,0,1-6.64.95,4.58,4.58,0,0,1,0-6.64l35.1-35.1c1.9-1.9,2.85-1.9,5.69-.95C152.4,129.84,153.35,130.79,153.35,132.69Z"/><path class="cls-2" d="M153.35,132.69c0,.95-.95,1.9-1.9,2.85l-35.1,35.1a5.84,5.84,0,0,1-6.64.95,4.58,4.58,0,0,1,0-6.64l35.1-35.1c1.9-1.9,2.85-1.9,5.69-.95C152.4,129.84,153.35,130.79,153.35,132.69Z"/><path class="cls-2" d="M158.09,165.88c0,5.69-5.69,11.38-11.38,11.38s-12.33-5.69-12.33-11.38,5.69-11.38,11.38-11.38C152.4,153.55,158.09,160.19,158.09,165.88Zm-11.38,2.85a2.85,2.85,0,1,0-2.85-2.85C142.92,167.78,144.81,168.73,146.71,168.73Z"/><path class="cls-2" d="M116.36,124.15c5.69,0,11.38,5.69,11.38,11.38s-5.69,11.38-11.38,11.38S105,141.22,105,135.53,110.67,124.15,116.36,124.15Zm2.85,11.38a2.85,2.85,0,1,0-2.85,2.85A2.52,2.52,0,0,0,119.2,135.53Z"/><path class="cls-2" d="M81.26,153.55H68.93a4.48,4.48,0,0,1-4.74-4.74c0-1.9,1.9-3.79,4.74-3.79H93.59a4.74,4.74,0,0,1,0,9.49A58.34,58.34,0,0,0,81.26,153.55Z"/><path class="cls-2" d="M81.26,153.55H68.93a4.48,4.48,0,0,1-4.74-4.74c0-1.9,1.9-3.79,4.74-3.79H93.59a4.74,4.74,0,0,1,0,9.49A58.34,58.34,0,0,0,81.26,153.55Z"/></svg>