<svg id="Layer_1" data-name="Layer 1" xmlns="http://www.w3.org/2000/svg" viewBox="0 0 150 150"><defs><style>.cls-1{fill:#ffca05;}.cls-2{fill:#d71635;}.cls-3{fill:#231f20;}.cls-4{fill:#03943f;}</style></defs><title>Dine</title><path class="cls-1" d="M130.17,98.94H34.07a5.5,5.5,0,1,0,0,11h96.1a5.5,5.5,0,1,0,0-11"/><path class="cls-2" d="M109.46,49.15c2.66,0,4.53.74,5,2.55s-2.15,5.88-3.43,6a17.47,17.47,0,0,0-5.65.89c-2.32.83-7.06,10.4,4.11,16.15,7.66,4,15.73-1.11,14.13-12.16-.3-2-3.35-4.78-5-4.86s-3.17-1-3-2.5c.21-1.94.85-2.41,2.93-2s5,1.41,6.5,3.17a14.29,14.29,0,0,1,3.26,10c-1.18,12.29-8.9,16.22-20.44,14.55-6.21-.91-15.9-6.09-11.91-20,3.2-11.15,10.89-11.76,13.58-11.75"/><path class="cls-3" d="M95.4,39a5,5,0,0,1-4.75,1.16c-2.07-.52-2.29-2-1.77-3.3.79-2,1.06-2.21,2.68-2.69,2-.59,3.56-.91,4.29.32A3.47,3.47,0,0,1,95.4,39"/><path class="cls-3" d="M54.9,72.58a9.08,9.08,0,0,1-3.86,5c-2.67,1.39-6.75,1.62-8.52.4a7.6,7.6,0,0,1-3.69-6.86A7.4,7.4,0,0,1,44,63.82c2.19-.55,4.19-.82,5.66.67.67.78,2.16,2.27.12,2.13a4.92,4.92,0,0,0-4,1,6.52,6.52,0,0,0-1.9,3.63c-.38,3.82,7,2.45,7.57-2.55.18-1.68-1.34-7.07-1.35-7.1C49.05,58,48,57,46.58,57.13c-2.67.22-1.31,2.72-2.71,3.7a3.34,3.34,0,0,1-3.83-3c-.35-2.79,2.29-5.86,5-6.29s5.95,0,8.06,2.64,3.4,7.84,4.26,12a12.34,12.34,0,0,0,2.23,5c.41.36.21,1-.15,1.44a2.48,2.48,0,0,1-2.06.79,4.3,4.3,0,0,1-2.47-.87"/><path class="cls-4" d="M118.1,53c-1-.05-1.68-1.58-1.78-2.29.37-1.66,2.75-2.81,4-3.45,1.92-1,3.63-1.68,7.39-.94,2.36.47,1,2.42-1.75,2.46-2.3,0-2.85.62-4.55,1.71-.77.49-2.5,2.55-3.28,2.51"/><path class="cls-3" d="M7.8,79.06c-1-8.46-2.72-16.38-3-20.19-.08-1.14-.33-8.21,2.58-7.12A57.58,57.58,0,0,1,23.2,62.42c2.18-9,3.63-14.15,4.19-15.3,1.52-3.13,3.21-1.66,4.89,0a6.68,6.68,0,0,1,2.14,4.09c.42,2.57,3.64,21.14,4.64,28.16.47,3.34,1.24,6.83,1.68,9.55.13.82.92,4.78-.52,5.1-1.79.4-4.34-.78-4.41-2.79,0-.42-.23-1.67-.56-3.39s-.76-3.86-1.19-6.06C33.19,77.37,32.3,72.73,32.2,71c-.14-2.25-1.6-8.88-2.19-11.48-.39,1.78-1.14,5.34-1.46,7.1-.42,2.32-1.46,7.85-7.71,2.82a59.87,59.87,0,0,0-8.92-6.16c.42,2.08,2.07,10.24,3.18,15.27,1,4.49,7.2,25.26.46,27.21-3.39,1-4.93.62-5.52-.74a5.9,5.9,0,0,1-.31-2.26c0-.84,0-1.76,0-2.67-.45-6.41-1.48-17.19-1.92-21"/><path class="cls-3" d="M142.59,64.55a4.94,4.94,0,0,1-3,1,1.86,1.86,0,0,1-1.07-.29c-1-.77,1.59-2.16,1.82-4,.09-.74-.34-1.47-2.68-1.6-1.63-.08-3.82,1.09-2.91,3.33.49,1.18,1.51,3.44,2.43,6.22,3.65,11.08,2.84,22-11.74,24.69-6,1.11-10.37-1.33-11.22-4.35s.09-6.28,2.59-7.08c2.88-.92,4.75-.1,5.72,1a3.15,3.15,0,0,1,.79,1.66c0,.45-.08,1-.64,1a3.48,3.48,0,0,0-2.4.9c-.45.46-.43.87.05,1.14,3.36,1.86,14.26-3.45,12.15-17.55A22.4,22.4,0,0,0,131,66.14a28.43,28.43,0,0,1-1.6-5.26c-.59-3.58.44-6.9,6.27-8.55,5.37-1.52,13.9,6.66,6.93,12.22"/><path class="cls-3" d="M89,49.71a9.25,9.25,0,0,1,.54-4.2c1-2.3,5.54-2.79,5.79-.88.19,1.44-1.94,15.09-2.45,17.47-.25,1.2-.45,2.46-.62,3.51a20.81,20.81,0,0,1-.45,2.31c-.55,1.56-1.48,3.42-2.27,3.68s-1.71-.24-2.55-.12-1.5-.88-1.41-2.63a41.16,41.16,0,0,1,1.09-5.21c.55-2.19,1.16-4.53,1.46-6A35.16,35.16,0,0,0,89,49.71"/><path class="cls-3" d="M83.55,45.74c1.58-.22,4.32-.29,3.46,2.27-.76,2.23-4,13.6-5.09,17.24l-1.28,4.33a13.68,13.68,0,0,1,4.94-1.09,19,19,0,0,1,2.49,0c1.35.27,1.75,1.8,3.42,1.81.68,0,1.34-.16,2-.16,1.07,0,.57.8.14,1.24-2.32,2.45-7.71,2.08-10.83,2.83-2.64.64-3.75,1.91-5.65,3.49a5.36,5.36,0,0,1-1.44.93c-1.17.46-4.8-2-4.24-3.84s3.11-8.36,4.14-11.09c.92-2.4,3.58-9.69,4.2-11.41a41,41,0,0,0-5.91,1.18c-1.83.49-3.52,1.6-5.5,1.42-1.51-.14-2.78-3.08-1.39-4,2.79-1.84,5.71-2.39,8.83-3.28,1.77-.5,5.86-1.56,7.7-1.82"/><path class="cls-3" d="M62.17,58.78c2.72-.14,5.17-.24,7.69-1.49a5.48,5.48,0,0,1,3.21-.55c.92.17,1.63.77,1.26,1.84-.56,1.62-8.85,19.2-10.6,23.22a10.41,10.41,0,0,1,4-1c1.63-.1,3.53,0,6.15,0a7.39,7.39,0,0,1,3.19,1.14,12.57,12.57,0,0,0,5.6,1.18c.52,0,.86.34.34.67-1.39.88-7.41,2.18-8.82,2.23-2.07.08-4,.51-8.87,2.23a50.66,50.66,0,0,0-6.85,3.28,12.36,12.36,0,0,1-1.57.73c-.94.34-1.5-1.11-1.69-1.73a9,9,0,0,1-.39-3.3c.19-1.81,4.24-11,6.91-15.76,2.13-3.82,3.57-6.72,4.06-7.73a41.94,41.94,0,0,1-4.47,0,5.79,5.79,0,0,0-4,1.36c-1.53,1.26-3.14-1.18-.92-4.24,1.28-1.75,3.37-2,5.7-2.08"/><path class="cls-3" d="M130.17,98.94H34.07a5.5,5.5,0,1,0,0,11h96.1a5.5,5.5,0,1,0,0-11m0-1.07a6.58,6.58,0,1,1,0,13.13H34.07a6.58,6.58,0,1,1,0-13.13Z"/><rect class="cls-3" x="35.51" y="101.33" width="1.55" height="6.22"/><polygon class="cls-3" points="45.14 101.33 39.08 101.33 39.08 102.47 41.34 102.47 41.34 107.55 42.89 107.55 42.89 102.47 45.14 102.47 45.14 101.33"/><path class="cls-3" d="M50,105.24H48l.92-2.42Zm-.13-3.91H48l-2.51,6.22h1.64l.46-1.23h2.79l.51,1.23H52.6Z"/><polygon class="cls-3" points="59.45 106.41 56.26 106.41 56.26 101.33 54.7 101.33 54.7 107.55 59.45 107.55 59.45 106.41"/><rect class="cls-3" x="61.85" y="101.33" width="1.55" height="6.22"/><path class="cls-3" d="M70.08,105.24H68.17l.91-2.42ZM70,101.33H68.16l-2.51,6.22h1.64l.47-1.23h2.78l.51,1.23h1.67Z"/><polygon class="cls-3" points="81.13 101.33 79.58 101.33 79.58 105.13 76.26 101.33 74.84 101.33 74.84 107.55 76.39 107.55 76.39 103.57 79.83 107.55 81.13 107.55 81.13 101.33"/><polygon class="cls-3" points="92.63 106.41 89.59 106.41 89.59 104.92 92.43 104.92 92.43 103.78 89.59 103.78 89.59 102.47 92.56 102.47 92.56 101.33 88.04 101.33 88.04 107.55 92.63 107.55 92.63 106.41"/><path class="cls-3" d="M99.25,105.24H97.33l.91-2.42Zm-.13-3.91h-1.8l-2.51,6.22h1.64l.47-1.23H99.7l.51,1.23h1.67Z"/><polygon class="cls-3" points="108.15 101.33 102.09 101.33 102.09 102.47 104.35 102.47 104.35 107.55 105.9 107.55 105.9 102.47 108.15 102.47 108.15 101.33"/><polygon class="cls-3" points="115.18 106.41 112.14 106.41 112.14 104.92 114.98 104.92 114.98 103.78 112.14 103.78 112.14 102.47 115.11 102.47 115.11 101.33 110.59 101.33 110.59 107.55 115.18 107.55 115.18 106.41"/><path class="cls-3" d="M119.39,102.47h.79c.58,0,.88.24.88.7s-.42.72-.85.72h-.82Zm-1.55-1.14v6.22h1.55V105h.45c.84,0,1.09,1.19,1.75,2.52h1.71c-.88-1.82-1.07-2.59-1.71-2.91a1.62,1.62,0,0,0,1.07-1.52,1.87,1.87,0,0,0-2-1.79Z"/><polygon class="cls-3" points="126.08 107.55 127.63 107.55 127.63 104.64 130.08 101.33 128.21 101.33 126.85 103.28 125.5 101.33 123.62 101.33 126.08 104.64 126.08 107.55"/><path class="cls-3" d="M137.42,113.36v-1h.65c.34,0,.7.07.7.46s-.37.52-.78.52Zm0,.41H138l.84,1.38h.54l-.91-1.4a.83.83,0,0,0,.83-.88c0-.62-.37-.9-1.12-.9h-1.21v3.18h.48Zm-1.66-.22a2.24,2.24,0,1,1,2.24,2.3,2.23,2.23,0,0,1-2.24-2.3m2.24,2.76a2.75,2.75,0,1,0-2.8-2.76,2.74,2.74,0,0,0,2.8,2.76"/></svg>