<?xml version="1.0" encoding="utf-8"?>
<!-- Generator: Adobe Illustrator 21.1.0, SVG Export Plug-In . SVG Version: 6.00 Build 0)  -->
<svg version="1.1" id="Layer_1" xmlns="http://www.w3.org/2000/svg" xmlns:xlink="http://www.w3.org/1999/xlink" x="0px" y="0px"
	 viewBox="0 0 202 139" style="enable-background:new 0 0 202 139;" xml:space="preserve">
<style type="text/css">
	.st0{fill:#ED1D2F;}
	.st1{fill:none;}
	.st2{fill:#FDC82F;}
</style>
<title>Fast Food</title>
<path class="st0" d="M154,110.9h6V91.2h-6V110.9z M182.1,91.2h4.1l-1.4,5.4h-3L182.1,91.2 M193.2,94.1c4,0,7.8,1,7.8,4.9h-5.7
	c0-1.4-0.8-2-2.1-2c-0.8,0-1.9,0.3-1.9,1.6c0,2.1,3.3,1.6,6,2.5c2.5,0.7,4.2,2.2,4.2,4.6c0,3.7-2.9,5.7-8.3,5.7
	c-5.7,0-7.8-2-7.8-5.7h5.8c-0.1,1.1,0.7,2.1,1.8,2.2c0.1,0,0.2,0,0.3,0c1.5,0,2.1-0.6,2.1-1.6c0-2.1-4-2.1-6.3-2.9
	c-1.9-0.5-3.1-2.3-3-4.2C186,97.1,187.6,94.1,193.2,94.1 M70.3,104.9c-0.9,3.9-4.4,6.5-8.3,6.5c-4.9,0-8.6-3.7-8.6-9.1
	s3.3-9.1,8.6-9.1c4-0.2,7.6,2.6,8.3,6.5h-5.6c-0.3-1.2-1.4-2.1-2.7-2.1c-2.5,0-3.1,2.6-3.1,4.7s0.7,4.7,3.1,4.7
	c1.3,0,2.4-0.9,2.7-2.1H70.3 M28.8,91.2H36l3.1,11.7l3.1-11.7h7.2l3.1,20.2h-5.9l-1.6-11.8l-3.2,11.8h-5.4l-3.2-11.8l-1.6,11.8h-5.9
	L28.8,91.2 M120.8,101.3v9.7h-5.9V93.7h5.9V95c1.5-1.2,2.9-1.8,5.9-1.8c3.4,0,6,2.2,6,4.6V111h-6v-9.5c-0.1-1.6-1.4-2.8-2.9-2.9
	C122.3,98.6,121,99.7,120.8,101.3 M173.8,95.4v-4.2h6v19.8h-6v-1c-0.8,0.7-1.8,1.4-4.4,1.4c-2.9,0-7.5-1.6-7.5-8.6s4.6-8.7,7.9-8.7
	C171.2,94,172.7,94.4,173.8,95.4L173.8,95.4z M167.6,102.9c0,2.7,1.3,4.4,3.3,4.4c1.2,0,2.3-0.6,2.9-1.7v-5.2
	c-0.4-1.3-1.6-2.1-2.9-2C168.8,98.4,167.6,100.2,167.6,102.9 M95,102.3c0-5.4,3.5-9.1,9.1-9.1s9.1,3.7,9.1,9.1s-3.5,9.1-9.1,9.1
	S95,107.7,95,102.3L95,102.3z M107.5,102.3c0-2.1-0.7-4.7-3.4-4.7s-3.4,2.6-3.4,4.7s0.7,4.7,3.4,4.7S107.5,104.4,107.5,102.3
	 M72.4,91.2h10.3c6.5,0,10.8,4,10.8,10.1s-4.4,10.1-10.8,10.1H72.4V91.2z M79.2,106.7h3.1c2,0,4.5-1.2,4.5-5.3S84.3,96,82.3,96h-3.1
	V106.7 M143.6,93.3c4.3,0,7.8,1.6,8,5v12.7h-6v-1.7c-1.5,1.4-3.5,2.2-5.5,2.2c-3,0.1-5.4-2.3-5.5-5.3c0-2.8,1.8-6,8.7-6
	c1.8,0,2.3-0.7,2.3-1.6c0-1-1.2-1.6-2.2-1.6s-2.1,0.4-2.1,1.5h-5.6C135.6,96,137.3,93.3,143.6,93.3L143.6,93.3z M143.2,103
	c-1.4,0-2.7,0.7-2.7,2.2c0,0.9,0.5,1.7,2,1.7c1.5,0.1,2.8-1,3.1-2.5v-1.6C144.9,103,144.1,103.1,143.2,103"/>
<path class="st0" d="M167.6,132.8h2c1,0,1.6,0.5,1.6,1.2c0,0.6-0.5,1.1-1.1,1.1l0,0c0.9,0.3,1.1,1,1.1,1.8h-0.9c0-1-0.3-1.5-1.2-1.5
	h-0.7v1.5h-0.8L167.6,132.8z M168.4,134.8h0.9c0.7,0,1-0.3,1-0.7s-0.2-0.6-0.9-0.6h-1L168.4,134.8z M169.2,131.3
	c2,0,3.6,1.6,3.6,3.6l0,0c0,2-1.6,3.6-3.5,3.6c0,0,0,0,0,0l0,0c-2,0-3.6-1.6-3.6-3.6l0,0C165.6,133,167.2,131.4,169.2,131.3
	L169.2,131.3z M169.2,138.1c1.8,0,3.2-1.4,3.2-3.2c0-1.8-1.4-3.2-3.2-3.2c-1.8,0-3.2,1.4-3.2,3.2C166,136.7,167.4,138.1,169.2,138.1
	L169.2,138.1"/>
<path class="st1" d="M114.7,13.9c-9.5,0-18,24.7-21.2,72.4H139C133.7,44.6,123,13.9,114.7,13.9z"/>
<path class="st2" d="M142.3,138.5H163c0-7.5-0.4-15.2-1.1-22.9h-20.3C142,123.1,142.3,130.7,142.3,138.5z"/>
<path class="st2" d="M71.4,130.6h20.7c0-5.2,0-10.2,0.1-15h-21C71.3,120.4,71.4,125.4,71.4,130.6z"/>
<path class="st2" d="M114.7,13.9c8.3,0,19,30.7,24.3,72.4h18.8c-8.8-45.8-27.3-85.8-43.6-85.8C94.9,0.5,84.8,41.3,81.8,64
	C78.7,41.3,68.6,0.5,49.4,0.5c-22.5,0-48.8,75.4-48.9,138h20.7c0-65.5,16-124.6,27.6-124.6c9.5,0,18,24.7,21.2,72.4h23.4
	C96.7,38.6,105.2,13.9,114.7,13.9z"/>
</svg>
