<?xml version="1.0" encoding="utf-8"?>
<!-- Generator: Adobe Illustrator 21.1.0, SVG Export Plug-In . SVG Version: 6.00 Build 0)  -->
<svg version="1.1" id="Layer_1" xmlns="http://www.w3.org/2000/svg" xmlns:xlink="http://www.w3.org/1999/xlink" x="0px" y="0px"
	 viewBox="0 0 181 71" style="enable-background:new 0 0 181 71;" xml:space="preserve">
<style type="text/css">
	.st0{fill:#E4302E;}
	.st1{fill:#3F49A0;}
</style>
<title>Supercenters</title>
<path class="st0" d="M10.8,22.5c0.1-0.1,0.2-0.3,0.3-0.5c0.6-1.2,1.4-2.3,2.4-3.2c1.2-1.1,2.7-1.8,4.3-2.1c1.8-0.4,3.6-0.3,5.4,0.1
	c2.3,0.5,4.2,2.2,5,4.4c0.2,0.4,0.3,0.8,0.4,1.2c0.2-0.1,0.2-0.3,0.3-0.4c0.5-1,1.1-2,1.9-2.8c1.2-1.3,2.8-2.1,4.5-2.5
	c2.5-0.6,5-0.5,7.4,0.3c2.8,0.8,4.8,3.2,5.2,6.1c0.2,1.4,0.4,2.8,0.4,4.2c0.2,4,0.1,7.9,0.1,11.9c0,5.4,0,10.9,0,16.3
	c0,0.6,0.1,0.5-0.5,0.5h-10c-0.3,0-0.3,0-0.3-0.3c0-0.1,0-0.3,0-0.4c0-8.1,0-16.3,0-24.4c0-1.3-0.1-2.7-0.3-4c0-0.1,0-0.2-0.1-0.2
	c-0.2-1.1-1.2-2-2.3-2c-0.8-0.1-1.6,0-2.3,0.2c-0.9,0.2-1.7,0.9-2,1.8c-0.3,0.8-0.4,1.7-0.5,2.5c-0.1,1.4-0.2,2.8-0.2,4.3
	c0,7.3,0,14.7,0,22c0,0.7,0.1,0.6-0.6,0.6h-9.9c-0.4,0-0.4,0-0.4-0.4c0-2.2,0-4.4,0-6.6c0-5.8,0-11.7,0-17.5c0-1.1,0-2.2-0.1-3.3
	c0-0.6-0.2-1.2-0.3-1.8c-0.2-0.7-0.7-1.2-1.4-1.4c-1.2-0.4-2.5-0.3-3.7,0.2c-0.7,0.4-1.3,1-1.5,1.8c-0.3,0.8-0.4,1.6-0.5,2.4
	c-0.1,1.5-0.2,2.9-0.2,4.4c0,7.3,0,14.5,0,21.7c0,0.6,0,0.6-0.5,0.6H1c-0.5,0-0.5,0.1-0.5-0.5c0-12.6,0-25.3,0-37.9
	c0-0.7,0-0.6,0.6-0.6h9.3c0.3,0,0.4,0,0.4,0.4c0,1.5,0,2.9,0,4.4C10.7,22.2,10.7,22.4,10.8,22.5z"/>
<path class="st0" d="M144.8,38.5h-9.6c-0.5,0-0.5,0-0.5,0.5c0,1.1,0,2.3,0,3.4c0,1.2,0.2,2.5,0.6,3.7c0.4,1.6,1.7,2.9,3.4,3.2
	c2.4,0.6,4.8-0.6,5.8-2.9c0.4-0.8,0.6-1.6,0.7-2.5c0-0.1,0-0.2,0.1-0.3c0-0.2,0.1-0.3,0.3-0.2h9c0.4,0,0.4,0,0.4,0.4
	c-0.4,2-1.1,4-2,5.9c-1.8,3.7-5.3,6.2-9.4,6.9c-2.8,0.6-5.7,0.5-8.5-0.1c-3.3-0.8-6.2-2.8-8.1-5.6c-1.5-2.3-2.5-5-3-7.7
	c-0.4-2.5-0.6-5-0.5-7.6c0.1-2.4,0.4-4.8,1-7.1c0.7-2.9,2.2-5.6,4.4-7.8c2.1-2.1,4.8-3.5,7.7-3.9c1.2-0.2,2.5-0.3,3.7-0.2
	c3.7,0.1,7.3,1.7,9.9,4.3c1.5,1.5,2.6,3.4,3.2,5.4c0.6,1.9,1,3.8,1.3,5.7c0.3,2,0.3,4,0.4,6c0,0.6,0,0.6-0.6,0.6L144.8,38.5z
	 M139.7,32.2h4.7c0.4,0,0.4,0,0.4-0.4c0.1-0.7,0.1-1.5,0-2.2c-0.1-1-0.3-2-0.6-2.9c-0.4-1.1-1.1-2-2.1-2.5c-0.8-0.4-1.6-0.6-2.4-0.5
	c-1.4,0-2.7,0.7-3.4,1.9c-0.3,0.5-0.6,1.1-0.8,1.7c-0.4,1.5-0.7,3.1-0.6,4.7c0,0,0,0.1,0,0.1c0,0.1,0.1,0.2,0.2,0.2c0,0,0,0,0,0
	L139.7,32.2L139.7,32.2z"/>
<path class="st0" d="M74.3,38.5h-9.7c-0.6,0-0.5,0-0.5,0.5c0,1.1,0,2.2,0,3.3c0,1.3,0.2,2.5,0.6,3.7c0.4,1.6,1.7,2.9,3.4,3.2
	c2.4,0.6,4.8-0.6,5.8-2.8c0.4-0.8,0.6-1.7,0.8-2.6c0.1-0.6,0-0.5,0.6-0.5h8.7c0.5,0,0.5,0,0.4,0.5c-0.5,2.5-1.4,4.8-2.7,6.9
	c-1.7,2.8-4.5,4.7-7.6,5.5c-3.3,0.9-6.8,0.9-10.1-0.1c-2.8-0.8-5.3-2.5-7.1-4.9c-1.6-2.2-2.8-4.8-3.3-7.5c-0.3-1.5-0.5-3-0.6-4.5
	c-0.1-2-0.1-4,0.1-6c0.2-2.6,0.8-5.2,1.8-7.6c1.1-2.7,2.9-5,5.3-6.7c1.7-1.2,3.7-2.1,5.8-2.4c1.2-0.2,2.5-0.3,3.7-0.2
	c4.4,0.1,8.5,2.2,11.2,5.7c1,1.4,1.7,2.9,2.2,4.5c0.5,1.4,0.8,2.9,1,4.4c0.3,2.3,0.5,4.5,0.5,6.8c0,0.1,0,0.2,0,0.3
	s-0.1,0.3-0.3,0.3L74.3,38.5L74.3,38.5z M69.2,32.2h4.5c0.5,0,0.5,0,0.6-0.5c0-0.7,0-1.5-0.1-2.2c-0.1-1-0.3-1.9-0.6-2.8
	c-0.3-1-1.1-1.9-2-2.5c-0.9-0.5-2-0.7-3-0.6c-1,0.1-2,0.6-2.6,1.4c-0.5,0.6-0.9,1.3-1.1,2.1c-0.4,1.5-0.7,3.1-0.7,4.7
	c0,0.3,0,0.3,0.3,0.3H69.2L69.2,32.2z"/>
<path class="st0" d="M118.3,38.3c0,6,0,11.9,0,17.9c0,1.9-0.1,3.9-0.3,5.8c-0.1,1.1-0.3,2.2-0.7,3.2c-0.6,1.7-1.9,3.2-3.6,4.1
	c-1.3,0.7-2.7,1.1-4.1,1.2c-1.6,0.1-3.2,0.1-4.9-0.1c-0.7-0.1-1.3-0.2-2-0.3c-0.3,0-0.3-0.1-0.3-0.4c0-0.7,0-1.4,0-2.1
	c0-2,0-3.9,0-5.9c0-0.1,0-0.2,0-0.3c0-0.3,0-0.3,0.3-0.3c0.8,0.1,1.6,0.1,2.4,0c0.4-0.1,0.7-0.2,1-0.4c0.4-0.3,0.7-0.7,0.8-1.1
	c0.2-0.6,0.3-1.2,0.3-1.9c0.1-0.8,0.1-1.6,0.1-2.4c0-10,0-20,0-30c0-2.5,0-5,0-7.5c0-0.1,0-0.2,0-0.3s0.1-0.3,0.3-0.3h10
	c0.5,0,0.5-0.1,0.5,0.5C118.3,24.6,118.3,31.5,118.3,38.3L118.3,38.3z"/>
<path class="st0" d="M169.6,26.5c0.1-0.1,0.2-0.3,0.2-0.5c0.5-1.7,1.1-3.3,2-4.8c0.7-1.4,1.8-2.5,3.1-3.4c1-0.6,2.3-1,3.5-1
	c0.6,0,1.1,0,1.7,0.1c0.5,0.1,0.5,0.1,0.5,0.6c0,2.5,0,4.9,0,7.4c0,0.8,0,1.6,0,2.4c0,0.4,0,0.4-0.4,0.3c-1.4-0.2-2.8-0.1-4.1,0.3
	c-1.5,0.5-2.8,1.6-3.5,3.1c-0.7,1.2-1.1,2.6-1.3,4c-0.2,1.5-0.4,2.9-0.3,4.4c0,5.4,0,10.9,0,16.3c0,0.6,0.1,0.6-0.5,0.6h-9.9
	c-0.4,0-0.4,0-0.4-0.4c0-2.6,0-5.1,0-7.7c0-10.1,0-20.2,0-30.3c0-0.7-0.1-0.6,0.6-0.6h8.5c0.5,0,0.5,0,0.5,0.5c0,2.8,0,5.5,0,8.3
	C169.5,26.2,169.5,26.3,169.6,26.5z"/>
<path class="st0" d="M100.5,36.7c0,6.3,0,12.6,0,18.9c0,0.6,0.1,0.6-0.6,0.6h-9.8c-0.4,0-0.5,0.1-0.5-0.5c0-12.7,0-25.3,0-38
	c0-19,0-0.1,0-0.1c0-0.4,0-0.4,0.4-0.4h10.2c0.1,0,0.2,0.1,0.2,0.2s0,0.3,0,0.4C100.5,24.2,100.5,30.4,100.5,36.7z"/>
<path class="st1" d="M95.1,0.5c3.4,0,6.1,2.8,6,6.2c0,3.4-2.8,6.1-6.2,6c-3.4,0-6.1-2.8-6-6.2c0,0,0-0.1,0-0.1
	C89,3.1,91.8,0.5,95.1,0.5z"/>
<path class="st1" d="M112.7,0.5c3.4,0,6.1,2.7,6.1,6.1c0,3.4-2.7,6.1-6.1,6.1c-3.4,0-6.1-2.7-6.1-6.1c0,0,0,0,0,0
	C106.7,3.2,109.4,0.5,112.7,0.5z"/>
<path class="st0" d="M174.9,50.4c1.6,0,2.9,1.3,2.8,2.9s-1.3,2.9-2.9,2.8c-1.6,0-2.8-1.3-2.9-2.8c0,0,0,0,0-0.1
	C172,51.7,173.3,50.4,174.9,50.4C174.9,50.4,174.9,50.4,174.9,50.4z M177.2,53.3c0-0.1,0-0.3,0-0.4c-0.1-1.3-1.3-2.2-2.5-2.1
	c-0.2,0-0.4,0.1-0.6,0.1c-1.3,0.5-1.9,2-1.4,3.3c0.1,0.3,0.3,0.6,0.5,0.8c0.9,0.9,2.3,0.9,3.2,0c0,0,0.1-0.1,0.1-0.1
	C177,54.5,177.2,53.9,177.2,53.3L177.2,53.3z"/>
<path class="st0" d="M175.4,53.4c0.3,0.2,0.5,0.5,0.5,0.8c0,0.2,0.1,0.3,0.1,0.5s0.1,0.2-0.1,0.3s-0.3,0-0.4-0.1
	c0-0.1-0.1-0.2-0.1-0.3c0-0.2-0.1-0.4-0.1-0.5c-0.1-0.2-0.2-0.4-0.5-0.5c-0.5-0.1-0.6,0-0.6,0.5c0,0.2,0,0.5,0,0.7s-0.1,0.2-0.2,0.2
	s-0.2,0-0.2-0.2s0-0.5,0-0.8c0-0.6,0-1.2,0-1.8c0-0.3,0-0.3,0.3-0.4c0.4-0.1,0.7-0.1,1.1,0c0.4,0,0.6,0.3,0.7,0.6
	c0.1,0.4-0.1,0.7-0.4,0.9C175.5,53.3,175.4,53.3,175.4,53.4z M174.3,52.6c0,0.6,0.2,0.8,0.8,0.5h0.1c0.3-0.1,0.4-0.4,0.3-0.6
	c-0.2-0.4-0.5-0.5-0.9-0.4C174.3,52.1,174.3,52.1,174.3,52.6L174.3,52.6z"/>
</svg>
