<?xml version="1.0" encoding="utf-8"?>
<!-- Generator: Adobe Illustrator 21.1.0, SVG Export Plug-In . SVG Version: 6.00 Build 0)  -->
<svg version="1.1" id="Layer_1" xmlns="http://www.w3.org/2000/svg" xmlns:xlink="http://www.w3.org/1999/xlink" x="0px" y="0px"
	 viewBox="0 0 224.3 150.7" style="enable-background:new 0 0 224.3 150.7;" xml:space="preserve">
<style type="text/css">
	.st0{fill:#000001;}
	.st1{fill:#FEFEFE;}
	.st2{fill:#070708;}
	.st3{fill:#F7F8F8;}
	.st4{fill:#BEBEBE;}
	.st5{fill:#FCFDFD;}
	.st6{fill:#414142;}
	.st7{fill:#BEBEBF;}
	.st8{fill:#C0C0C0;}
	.st9{fill:#7F7E80;}
	.st10{fill:#424243;}
	.st11{fill:#7F7F80;}
	.st12{fill:#858586;}
	.st13{fill:#FEE616;}
	.st14{fill:#F9A535;}
	.st15{fill:#4F90CC;}
	.st16{fill:#ED3124;}
	.st17{fill:#FDFDFD;}
	.st18{fill:#4E90CB;}
	.st19{fill:#FDE516;}
	.st20{fill:#FBFBFB;}
	.st21{fill:#EA3023;}
	.st22{fill:#F2A133;}
	.st23{fill:#F5DE15;}
	.st24{fill:#EFD915;}
	.st25{fill:#F3A233;}
	.st26{fill:#AEAEAF;}
	.st27{fill:#86591D;}
	.st28{fill:#F2A032;}
	.st29{fill:#111112;}
	.st30{fill:#020101;}
</style>
<title>Fast Food</title>
<path class="st0" d="M175.8,150.2c-0.6-0.3-1.2-0.4-1.9-0.4c-2.6-0.5-5-1.7-7-3.4c-0.6-0.6-1.5-0.8-2.3-0.7
	c-3.9,0.2-7.8-0.2-11.7-1.1c-1.7-0.3-3.4-0.7-5-1.1c-2.2-0.7-2.9-1.8-3-4.1c-0.1-2.7,0.9-5.2,2.6-7.2c1.5-1.9,3.3-3.4,5.5-4.5
	c2.4-1.2,5.2-1.2,7.6-0.1c2.6,1.1,5,2.3,7.4,3.7c0.4,0.3,0.7,0.4,0.9-0.3c0.4-1.3,0.9-2.5,1.4-3.9c-3.3,0.7-6.7,0.1-9.6-1.6
	c-2.9-1.9-4.5-4.7-5.6-8.1c-0.4,1.2-0.8,2.4-1.3,3.6c-1.2,2.4-2.6,4.5-5.3,5.5c-3.8,1.4-7.8,0-10.3-3.5c-1.8-2.7-2.9-5.7-3.2-8.9
	c-0.6-4.1-0.6-8.2,0.1-12.2c0.6-3.5,2.4-6.6,5-9c3.4-3.1,8.5-2.5,11.5,1.2c1.6,2.1,2.7,4.5,3.4,7c0,0.2,0,0.4,0.3,0.5
	c0.9-3.8,3.3-7.1,6.8-9c3.4-2,7.7-2.1,11.1-0.2c0-1.2,0-2.3-0.2-3.4c-0.4-3.5-1-7-1.9-10.4c-0.1-0.5-0.4-0.6-0.8-0.7
	c-2.3-0.6-4.6-1-6.9-1.3c-2.5-0.5-4.9-1.5-7-3c-0.3-0.2-0.7-0.4-1.1-0.3c-1.1,0.1-2.1,0-3.2-0.3c-0.5-0.2-0.7-0.1-0.8,0.5
	c-0.4,2.4-1.2,4.7-2.3,6.9c-1.4,3-4.2,5.1-7.5,5.5c-2.2,0.4-4.4-0.6-5.6-2.5c-0.3-0.5-0.5-1-0.9-1.6c-0.7,0.8-1.4,1.5-2.1,2.2
	c-1.2,1.3-2.7,2.3-4.3,2.9c-1.6,0.7-3.5,0-4.3-1.5c-0.9-1.6-1.4-3.3-1.6-5.1c-0.3-2.7-0.3-5.3,0-8c0-0.3,0.2-0.7-0.1-0.8
	s-0.5,0.2-0.8,0.3c-0.8,0.5-1.6,0.9-2.5,1.3c-0.6,0.2-1,0.7-1,1.3c-0.4,2.4-1.1,4.8-2.1,7c-1.1,2.3-2.6,4.2-5.3,4.7
	c-5.1,0.9-8.8-1.2-10.7-6.2c-0.8,1-1.5,2-2.3,2.9c-1,1.2-2.4,2.1-4,2.4c-4.5,0.9-8.4-1.4-9.9-6c-0.2-0.7-0.4-1.5-0.6-2.3
	c-0.8,1.7-1.7,3.2-2.7,4.7c-0.7,1-1.5,1.9-2.5,2.8c-4.5,4.1-9.8,2.4-12.9-0.8c-1.6-1.9-2.7-4.2-3.2-6.6l-0.2-1
	c-0.4,0.8-0.8,1.5-1.2,2.2c-2,3.5-4.6,6.2-8.6,7.3c-5.2,1.4-9.5-0.7-11.5-5.7l-0.1-0.3c-1,1.4-2.1,2.8-3.4,3.9
	c-0.6,0.5-1.2,1-1.8,1.4c-2.9,2.1-5.9,1.8-8.4-0.8c-1.5-1.6-2.2-3.8-2.2-5.9c0.1-3.4,0.6-6.8,1.6-10.1c0.2-1,0.5-2,0.7-3
	c0.1-0.4,0-0.9-0.3-1.2c-0.9,1.8-1.9,3.6-2.6,5.4c-1.9,4.8-3.6,9.6-5.2,14.5c-0.1,0.3-0.2,0.7-0.3,1c-0.7,1.8-2.7,2.7-4.5,2
	c-0.2-0.1-0.3-0.1-0.5-0.2c-0.7-0.3-1-1-0.9-1.7c0.4-3.7,0.7-7.3,1.1-11c0.2-2.1,0.3-4.2,0.3-6.3c0-0.4-0.2-0.8-0.6-1
	c-0.3-0.2-0.8-0.1-1,0.2c-0.6,0.6-1.1,1.4-1.4,2.2c-1.4,3.5-2.2,7.2-3.3,10.8c-0.5,1.6-0.9,3.3-1.4,4.9c-0.7,2-1.9,2.5-3.9,1.8
	c-1.3-0.4-2-1.7-1.8-3c0.2-1.4,0.4-2.8,0.8-4.2c0.9-5.1,2-10.2,2.4-15.4c0.1-1.6,0.2-3.2-0.8-4.7c-0.2-0.3-0.2-0.6,0-0.9
	c0.4-0.9,0.8-2,2-2.2s2.1,0.7,2.7,1.6c0.8,1.3,1.4,2.9,1.6,4.4c0,0.3,0.1,0.6,0.3,0.9c1.8-2.6,4.2-3.8,7.3-2.9
	c2.3,0.7,2.6,3,3.2,4.9c0.3-0.1,0.3-0.4,0.4-0.7c0.8-1.9,1.5-3.8,3.1-5.1c2.2-1.9,5.3-2.5,8.1-1.7c1.1,0.3,2,1.3,2,2.5
	c0.2,2.8-0.1,5.7-0.8,8.4c-0.7,2.9-1.2,5.8-1.5,8.8c0,0.6,0.1,0.8,0.7,0.8c1.4,0.1,2.9,0.2,4.3,0.4c0.4,0.1,0.8-0.2,0.9-0.5
	c1-2,1.8-4,2.4-6.2c0.4-1.5,0.4-3.1,0.7-4.7c0.7-4.1,2.8-7.9,5.8-10.8c1.1-1,2.3-1.7,3.8-2.1c3.2-0.8,5.6,1,5.7,4.3
	c0.1,3.4-0.9,6.7-2.8,9.5c-2.1,3.2-4.7,6.1-7.6,8.6c-0.5,0.3-0.7,0.9-0.7,1.5c0.1,0.6,0.1,1.1,0.2,1.7c0.2,2,1.8,3.5,3.8,3.6
	c3.6,0.5,6.2-0.9,8.4-3.5c1.8-2.3,3.3-4.8,4.3-7.5c0.2-0.9,0.2-1.9,0.1-2.8c-0.1-8.9,0.2-17.7,1.1-26.5c0.4-4.7,1.3-9.4,2.7-13.9
	c0.9-2.7,2-5.4,3.4-7.9c1.2-2.4,3.6-4,6.3-4.2c1.8-0.3,3.6,0.7,4.3,2.3c1.5,3,2.3,6.3,2.2,9.6c0,7.8-1.8,15.2-4.6,22.5
	c-2.2,5.8-5.1,11.4-8.7,16.5c-0.5,0.6-0.7,1.4-0.6,2.2c0.5,3.4,1.1,6.7,2.8,9.8c1.5,2.8,3.3,3,5.2,0.4c2.3-3.4,4.2-7,5.8-10.8
	c0.5-1.1,0.9-2.1,1.3-3.2c0.1-0.3,0.2-0.7,0.2-1.1c-0.1-5.4,0.1-10.7,0.6-16.1c0.5-5.1,1.6-10.1,3-15c0.7-2.6,1.5-5.2,2.5-7.7
	c0.4-1,1.3-1.8,2.4-1.9c3.1-0.6,5.2,0.5,6.5,3.3c1.7,3.8,2.2,8,1.6,12.1c-1,6.9-3.1,13.6-6.3,19.7c-1.2,2.1-2.7,4-4.3,5.8
	c-0.3,0.4-0.7,0.9-1.1,1.3c-1.4,1.2-1.9,3.1-1.4,4.9c0.4,2.6,1,5.2,1.8,7.6c0.7,1.9,2.4,3.3,4.4,3.6c1.4,0.3,2.8-0.2,3.7-1.3
	c1.3-1.5,2.3-3.2,3.2-5c0.2-0.8,0.3-1.5,0.2-2.3c0.6-5.7,2.3-11.2,5.2-16.2c0.7-1.3,1.7-2.5,2.9-3.4c0.8-0.6,1.7-1,2.8-1.1
	c1-0.2,1.9,0.5,2.1,1.4c0,0,0,0.1,0,0.1c0.1,0.4,0.2,0.4,0.5,0.4c2,0.1,3.8,1.3,4.6,3.1c1.3,2.7,1.7,5.8,1.1,8.8
	c-0.1,0.6-0.1,1.2-0.2,1.8s0.1,0.6,0.6,0.4c1.8-0.7,3.1-2.2,3.6-4.1c0.1-0.3,0.2-0.6,0.3-0.9c0.3-3.4,2.5-5.4,5.1-7.1
	c0.7-0.4,1.4-1,2.2-0.6s0.9,1.4,0.9,2.2c0.1,2.7-0.7,5.4-1.1,8c-0.6,2.8-0.9,5.7-0.9,8.6c0.1,1.5,0.3,3,0.7,4.5
	c0.1,0.3,0.2,0.6,0.3,0.9c0.2,0.4,0.3,0.8,0.8,0.8s0.7-0.3,0.9-0.7c1.1-1.9,1.8-3.9,2.1-6c0.6-2.9,0.9-5.9,1.7-8.7
	c0.2-0.8,0.5-1.5,0.8-2.3c0.6-1.5,2-2.5,3.6-2.8c0.8-0.3,1.6,0.1,1.9,0.9c0,0.1,0.1,0.3,0.1,0.4c0.3,1.9,0.3,3.8-0.1,5.7
	c-0.5,2.6-0.9,5.3-1.2,7.9c-0.1,1.2,0.1,2.4,0.5,3.6c0.5,1.2,1.4,1.4,2.4,0.5c0.3-0.3,0.6-0.6,0.8-1c1.1-1.7,1.8-3.5,2.3-5.5
	c0.4-2,0-4.2-0.9-6c-0.9-2-1.7-4-2.4-6.1c-0.9-2.5,0-4.3,1.9-5.7c0.3-0.3,0.7-0.5,1-0.7c-3.8-4.6-7.2-9.4-10.3-14.4
	c-0.4-0.6-0.8-1.3-1.1-2c-0.1-0.4-0.6-0.7-1-0.5c0,0,0,0,0,0c-2.5,0.5-4.9,0.8-7.5,0.9c-2.4,0.1-4.7-1-6.1-2.9
	c-0.3-0.4-0.7-0.6-1.2-0.6c-0.9,0-1.7-0.6-2-1.4c-1.1-2.6-3.3-3.9-5.7-5c-0.9-0.3-1.6-0.9-2.1-1.7c-0.2-0.3-0.5-0.4-0.8-0.5
	c-0.8-0.2-1.6-0.4-2.3-0.7c-1.2-0.3-2.1-1.4-2.1-2.7c0-0.6-0.3-0.8-0.9-0.9s-1.1-0.2-1.6-0.2c-2,0-3.8-2.4-4-4.5
	c-0.4-3.6,2.7-6.9,5.5-7.6c1.3-0.3,2.5-1,3.4-1.9c1.5-1.7,3.7-2.7,5.9-2.8c1.2,0,2.4-0.4,3.3-1.3c1.6-1.4,3.8-2.1,6-1.9
	c2.2,0.2,4.3-0.3,6.2-1.4c0.8-0.4,1.7-0.7,2.6-0.7c0.5-0.2,1,0.1,1.4-0.1h0.2c1.5,0.1,3,0.4,4.4,0.9c1.8,0.8,3.2,2.1,4.2,3.7
	c0.7,1.2,0.7,2.7-0.1,3.9c-0.3,0.5-0.2,1.1,0.3,1.5c0,0,0,0,0,0c4.6,4.4,8.3,9.6,10.8,15.4c1.5,3.4,3.5,6.6,6,9.3
	c1,1,1.6,2.3,1.6,3.7c0.1,0.7-0.3,1.4-1,1.7c-3.6,1.7-7.1,1.8-10.4-0.5c-1.9-1.2-3.8-2.2-5.9-3.5c0.7,1.7,1.7,3.3,2.9,4.7
	c1.9,1.9,4,3.7,6.3,5.2c1.5,1.1,1.5,1.1,3.1,0.1c3-1.8,6.2-3.4,9.6-4.7c1.1-0.4,1.9-1.2,2.2-2.3c0.4-1.3,0.9-2.6,1.5-3.8
	c0.3-0.4,0.2-1.1-0.2-1.4c0,0-0.1,0-0.1-0.1c-1.2-1.1-1.1-1.8,0.2-2.8c0.9-0.6,0.9-0.6,1.3-1.2c-1.3-0.1-2.6-0.3-3.8-0.6
	c-1.8-0.3-3.4-1.1-4.8-2.3c-1.4-1.2-2.1-3.1-1.7-4.9c0.2-0.9,0.7-1.7,1.5-2.2c1.1-0.8,2.5-1.2,3.8-1.1c1.5,0.2,2.8-0.5,4.2-0.8
	c0.3-0.1,0.5-0.3,0.6-0.6c0.5-1.2,1.1-2.4,1.8-3.6c-0.3-0.5-0.8-0.1-1.2-0.2c-1.1-0.1-2.1-0.6-3-1.3c-2.1-1.5-2.2-5.3,0.8-6.3
	c0.7-0.3,1.4-0.7,1.9-1.3c0.7-0.8,1.8-1.2,2.8-1c3.2,0.5,6.4,0.5,9.6,0.9c2.8,0.3,5.6,0.9,8.3,1.9c0.5,0.2,1.1,0.2,1.6,0.2
	c2.1-0.1,4.2,0.2,6.2,0.7c0.4,0.1,0.8,0.3,1.2,0.4c2.1,0.6,3.7,2.4,4,4.7c0.2,1.1,0.3,2.3,0.3,3.4c-0.2,2-1.3,3.7-2.9,4.8
	c-1.3,0.8-2,2.2-1.8,3.7c0,1.4,0,2.7-0.2,4.1c0,2.8,0.4,5.6,0.4,8.5c0,0.8,0.5,1.6,1.2,2c2.8,2,4.6,4.9,6.6,7.6
	c2.1,3,3.4,6.3,4.7,9.7c1.2,3,2,6.2,2.4,9.4c0.3,2.2,1.1,4.3,2.3,6.2c0.4,0.6,0.7,1.2,1,1.8c1.5,2.2,2.1,4.9,1.6,7.5
	c-0.3,1.7-0.1,3.5-0.4,5.2c0,0.7-0.3,1.4-0.6,2c-0.8,1.2-2.4,1.5-3.6,0.7c-0.2-0.1-0.3-0.2-0.5-0.4c-0.4-0.4-0.7-0.8-0.8-1.3
	c-0.2-1-0.8-1.8-1.6-2.4c-0.7-0.5-1.4-3.9-1.1-4.7c0.1-0.2,0.2-0.4,0.3-0.6c0.5-0.6,0.4-1.4-0.1-1.9c-0.1-0.1-0.2-0.1-0.3-0.2
	c-0.5-0.3-0.8,0-1,0.3c-0.7,0.9-1.5,1.6-2.5,2.2c-1.2,0.7-2.6,0.8-3.9,0.4c-1-0.2-1.8-1.1-2-2.2c-0.3-1.1,0.3-2.2,1.2-2.6
	c1.3-0.7,2.3-2,2.6-3.5c0.4-1.9,1.5-3.5,3.1-4.5c0.3-0.2,0.5-0.6,0.4-1c-0.4-3.9-1.9-7.5-4.4-10.5c-1.2-1.4-2.5-2.6-3.9-3.7
	c-0.2,1.1-0.1,2.2,0.1,3.2c0.4,1.6,0.9,3.1,1.4,4.7c0.6,2,0.9,4.1,1,6.2c0.1,3.7-1.7,6.2-5,7.6c-3.1,1.3-6.3,2.2-9.7,2.6
	c-1.6,0.2-1.7,0.2-1.4,1.8c0.5,3.8,1.4,7.5,2,11.3c0.1,0.5,0.4,0.7,0.9,0.7c0.8-0.1,1.5,0,2.3,0c0.7-0.1,1.3,0.4,1.4,1.1
	c1,3.5,2.1,7.1,3.1,10.6c1,3.5,2.1,7.1,3.2,10.6c0.1,0.4,0.2,0.8,0.3,1.2c1.8-7,3.7-14,5.4-21c0.1-0.3,0.2-0.7,0.3-1
	c0.1-0.6,0.7-1,1.2-0.9c0,0,0,0,0,0c2.6,0.2,5.2,0.2,7.9,0c0.9-0.1,1.3,0.2,1.3,1.2c-0.1,3.6,0.2,7.3-0.1,10.9c0,0.1,0,0.2,0,0.4
	c0,4.8,0.1,9.5-0.2,14.3c0,0.6,0,1.3,0.2,1.9c0,1,0.8,1.7,1.8,1.7c0,0,0,0,0,0c0.6,0.1,0.9,0.3,0.9,0.9c0.1,2.8,0.1,2.5-2.3,2.5
	h-11.1c-1.4,0-1.7-0.3-1.5-1.8c0.1-0.6,0.1-1.2,0.1-1.8c0-0.7,0.4-1.1,1-1c1.6,0.2,2.1-0.7,2.3-2.4c0.3-3.1,0.3-6.2,0.1-9.3
	c-0.1-1.8-0.1-3.6-0.1-5.4c0-0.4,0-0.7,0.1-1.1c-1.9,6.5-3.5,13.1-5,19.7c-0.5,1.6-0.2,3.4,0.7,4.8c1,1.6,2,3.2,3.2,4.6
	c1.8,2.5,2.9,5.5,3.2,8.6c0.3,2.4,0.2,4.9-0.3,7.3c-0.4,2.1-0.6,2.2-2.7,2.2H195c-2.4,0-4.9-0.2-7.3-0.1c-0.9,0-1.8,0-2.7,0.1h-0.4
	c-0.3-0.2-0.6,0-0.9-0.1s-0.7-0.1-1,0.1H175.8z"/>
<path class="st1" d="M0.5,121.5V96.7c0.1-0.1,0.2-0.1,0.3-0.2c1.3-0.3,2.6,0.6,2.9,1.9c0.3,1.2,0.5,2.5,0.5,3.8
	c0.2,4.8,0.4,9.6,0.4,14.3c0,1.2-0.1,2.3-0.5,3.4c-0.4,1.4-1.7,2.2-3.1,1.9C0.8,121.8,0.6,121.6,0.5,121.5z"/>
<path class="st2" d="M223.8,125.5c-0.3,0-0.6,0-0.6-0.4c0-0.4,0-0.9-0.2-1.3c-0.1,0.3-0.2,0.7-0.3,1c-0.1,0.3-0.1,0.7-0.5,0.7
	s-0.4-0.4-0.5-0.6c-0.1-0.3-0.2-0.6-0.4-0.8c0,0.4-0.1,0.8-0.1,1.1c0,0.2,0,0.3-0.3,0.4s-0.3-0.2-0.3-0.3c0-0.7,0.1-1.3,0.1-2
	c0-0.2,0.2-0.3,0.3-0.3s0.5,0,0.6,0.3s0.3,0.8,0.4,1.2c0.5-0.5,0.2-1.3,1-1.5c0.5-0.1,0.3,0.4,0.6,0.5L223.8,125.5z"/>
<path class="st3" d="M185,150.2c0.3-0.4,0.7-0.1,1-0.2c2.9-0.3,5.9-0.3,8.8,0c0.1,0,0.1,0,0.1,0.1c0,0.1,0,0.1-0.1,0.1L185,150.2z"
	/>
<path class="st4" d="M194.9,150.2c0,0,0-0.1,0-0.1h6.3c0,0,0.1,0.1,0,0.1s0,0-0.1,0L194.9,150.2z"/>
<path class="st5" d="M201.1,150.2c0,0,0-0.1,0-0.1h2.9c0.1,0,0.1,0.1,0.1,0.1s0,0.1-0.1,0.1H201.1z"/>
<path class="st6" d="M0.5,121.5l0.4,0.1c0.1,0.6,0.1,1.3-0.1,1.9c-0.1,0.1-0.2,0.1-0.2,0.1c0,0,0,0,0,0V121.5z"/>
<path class="st7" d="M0.7,96.7H0.5V95c0,0,0.1,0,0.1,0C1,95.5,1.1,96.2,0.7,96.7z"/>
<path class="st8" d="M204.1,150.2c0,0,0-0.1,0-0.1h1.6c0,0,0,0.1,0,0.1L204.1,150.2z"/>
<path class="st9" d="M132.3,0.6c-0.4,0.4-0.9,0.1-1.4,0.1c0,0,0-0.1,0-0.1H132.3z"/>
<path class="st7" d="M0.7,125.6H0.5v-1.2c0.1-0.1,0.2,0,0.3,0c0,0,0,0,0,0C1,124.8,1,125.3,0.7,125.6z"/>
<path class="st10" d="M182.7,150.2c0.3-0.3,0.7-0.1,1.1-0.1c0,0,0,0.1,0,0.1c-0.1,0.1,0,0-0.1,0L182.7,150.2z"/>
<path class="st11" d="M0.7,124.4H0.5v-0.9h0.2C0.9,123.8,0.9,124.1,0.7,124.4C0.7,124.4,0.7,124.4,0.7,124.4z"/>
<path class="st12" d="M183.8,150.2c0,0,0-0.1,0-0.1c0.3,0.1,0.6-0.2,0.9,0.1H183.8z"/>
<path class="st0" d="M0.7,124.4v-0.9c0.1-0.6-0.2-1.3,0.2-1.9c1.9,0.1,2.7-0.5,3.1-2.4c0.2-1.1,0.3-2.2,0.3-3.3
	c0-5.1,0-10.3-0.5-15.4c-0.1-0.6-0.2-1.3-0.3-1.9c-0.4-1.6-1.1-2.1-2.8-2.1L0.6,95c0-0.8,0.1-1.7,0.1-2.5c0-0.5,0.1-0.7,0.7-0.7
	c2.9-0.1,5.9-0.1,8.8-0.2c0.6,0,0.7,0.4,0.8,0.8l5,17.1c0.6,2,1.2,4,1.9,6.2c0.6-2.2,1.1-4.1,1.6-6.1c1.4-5.6,2.9-11.1,4.3-16.7
	c0.1-0.5,0.3-0.7,0.8-0.7c5.5-0.1,11-0.1,16.4-0.2c3.2-0.1,6.3,0,9.5,0.1c0.8,0,1.2,0.2,1.1,1.1c0,1.1,0.1,2.2,0.2,3.3
	c0.1,0.6-0.2,0.8-0.7,0.8s-0.9,0.1-1.3,0.2c-1.2,0-2.2,1-2.2,2.2c0,0.1,0,0.2,0,0.2c-0.1,1.8-0.2,3.6-0.2,5.4
	c-0.2,3.5,0,6.9,0.5,10.4c0.1,0.6,0.3,1.1,0.5,1.7c0.3,1.2,1.2,2.2,2.5,2.4c1.7,0.4,3.4-0.1,4.6-1.3c0.7-1,1-2.2,1-3.4
	c0.2-3,0.3-5.9,0.1-8.9c0-3.1,0-6.1,0-9.2c0-1.3,0-2.6-0.1-4c0-0.3,0-0.6,0.4-0.5c2.8,0.1,5.7-0.2,8.6,0c0.5,0,0.7,0.2,0.7,0.7
	c0,1.1-0.1,2.3,0,3.4c0,0.6-0.2,0.7-0.7,0.6s-1,0-1.6,0c-0.8-0.1-1.6,0.4-1.8,1.3c0,0.1,0,0.3,0,0.4c-0.1,0.7,0,1.4,0,2.1
	c0,5.5,0,11.1-0.5,16.6c-0.3,2.7-0.8,5.3-2.7,7.4c-1.4,1.6-3.3,2.6-5.3,2.8c-2.7,0.4-5.5,0.2-8.1-0.6c-2.4-0.7-4.4-2.5-5.3-4.9
	c-1.1-2.6-1.8-5.4-2.1-8.3c-0.5-4.4-0.6-8.8-0.5-13.2c0-0.5,0-0.9-0.1-1.4c-0.3-1.9-0.7-2.3-2.6-2.6c-0.5-0.1-0.9-0.1-1.4-0.1
	c-1.3,0-1.8,0.4-1.8,1.8c0,2.2,0,4.3-0.1,6.5c-0.1,4.4,0,8.8-0.2,13.1c-0.1,1,0,2,0.2,2.9c0.1,1,1,1.8,2,1.7c0,0,0.1,0,0.1,0
	c0.5,0,0.5,0.1,0.6,0.6c0.1,2.3,0.1,2.3-2.2,2.3c-3.2,0-6.4,0-9.6,0c-0.8,0-1-0.2-0.9-1s0.1-1.7,0.1-2.5c0-0.5,0.2-0.6,0.7-0.7
	c2-0.2,2.4-0.4,2.6-2.5c0.2-3.5,0.3-7,0.1-10.6c0-2,0-4,0-6.1h-0.3c-0.5,1.7-1,3.3-1.4,5c-1.6,5.7-3,11.5-4.2,17.3
	c-0.1,0.5-0.3,0.6-0.8,0.6c-1,0-2.1-0.1-3.1,0c-0.7,0-0.9-0.2-1.1-0.8c-2.1-7.1-4.4-14.2-6.4-21.4c0-0.1-0.1-0.2-0.1-0.3
	c-0.2,1.9-0.3,3.7-0.3,5.6c-0.1,3.4-0.4,6.7-0.3,10.1c0,0.1,0,0.2,0,0.4c0.2,2.4,0.8,3,3.2,2.9c0.4,0,0.5,0.1,0.5,0.5
	c0,1.1,0,2.3,0,3.5c0,0.6-0.2,0.6-0.7,0.6c-3.3-0.2-6.6-0.3-9.9-0.3L0.7,124.4z"/>
<path class="st0" d="M109.8,94.3c-0.3,0-0.6-0.1-0.8-0.1c-1-0.2-2,0.5-2.1,1.5c0,0,0,0,0,0.1c-0.2,1.3-0.3,2.6-0.2,3.9
	c-0.1,3.9-0.1,7.7-0.1,11.6c0,2.3,0.1,4.6,0.3,6.9c0.2,1.7,0.9,2.5,2.8,2.7c0.6,0.1,0.9,0.3,0.8,0.9s0.2,0.7,0.7,0.7
	c1.3,0.2,2.5-0.6,2.8-1.9c0.2-0.7,0.3-1.4,0.3-2.1c0-6.2,0.1-12.4,0.2-18.6c0-0.7,0-1.3-0.2-2c-0.1-1.1-0.9-1.9-2-1.9
	c-0.4-0.1-0.5-0.2-0.5-0.6c0-1,0-2.1-0.1-3.1c0-0.3,0-0.5,0.4-0.5c4.4,0.1,8.7-0.1,13,0.7c0.7,0.1,1.5,0.3,2.2,0.6
	c3,0.9,5,3.8,4.9,6.9c0.2,2.6-0.8,5.2-2.7,7c-0.2,0.2-0.3,0.5-0.2,0.8c0.9,3.5,1.7,7,2.7,10.4c0.7,2.3,1.4,2.9,3.9,3
	c0.4,0,0.5,0.1,0.5,0.5c0,1.2,0,2.3,0.1,3.4c0,0.4-0.1,0.6-0.6,0.6c-2.5,0-5.1,0.1-7.6,0.2h-0.7c-1.9,0-1.9,0-1.9-1.9
	c0-0.7,0-1.4-0.1-2.1c0-0.5,0.1-0.6,0.6-0.6c1.5,0,1.8-0.3,1.6-1.8c-0.5-3.4-1.4-6.7-2.6-9.8c-0.2-0.4-0.3-0.5-0.8-0.4
	c-0.9,0.2-1.7,0.4-2.6,0.5c-0.3,0.1-0.4,0.1-0.5,0.5c-0.1,3.2-0.4,6.4-0.3,9.7c0.1,1.5,0.3,1.7,1.8,2c0.8,0.1,1.1,0.4,1,1.2
	c-0.1,0.8-0.1,1.6,0,2.4c0,0.6-0.1,0.7-0.7,0.7c-2.9-0.1-5.9-0.1-8.8-0.1c-1.1,0-2.2,0-3.3,0c-0.2,0-0.6,0.1-0.6-0.3
	c0.1-0.9-0.5-0.7-0.9-0.7c-3.8,0-7.7,0.1-11.5,0.1c-0.5,0-0.7-0.1-0.7-0.7c0.1-1.2,0-2.4,0-3.6c0-0.4,0-0.5,0.5-0.6
	c2.2-0.2,3.2-1.3,3.3-3.5c0.1-1.9-0.1-3.8-0.1-5.7c0-0.4-0.2-0.5-0.5-0.5c-2,0-4,0-6.1,0c-0.4,0-0.5,0.2-0.5,0.6
	c-0.1,3.8-0.2,7.6-0.3,11.3c0,0.5,0,0.9-0.1,1.4c-0.1,1.2-0.1,1.2-1.2,1.3c-2.7,0.2-5.3,0.3-8,0.3c-0.6,0-0.7-0.2-0.7-0.7
	c0.1-1.1,0.1-2.1,0.1-3.2c0-0.4,0.2-0.5,0.6-0.6c1.5-0.1,1.8-0.4,1.9-1.9c0.2-1.8,0.2-3.7,0.1-5.5c0-5.3,0-10.6,0-15.8
	c0-0.8-0.1-1.6-0.3-2.3c-0.3-0.8-0.7-1.5-1.7-1.5c-0.4,0-0.5-0.2-0.4-0.6c0-0.8,0-1.5,0-2.3c0-0.5,0.2-0.6,0.6-0.6
	c3.2-0.2,6.4,0,9.6,0.1c0.6,0,0.4,0.4,0.4,0.7c-0.1,2.1-0.1,4.3-0.1,6.4s0,4.4,0,6.6c0,0.8,0.1,1.1,1,1.1c1.7,0.1,3.3,0.1,5,0.1
	c0.4,0,0.6-0.1,0.6-0.6c0.2-2.8,0.2-5.7,0-8.6c-0.2-1.5-0.6-2-2.2-2.1c-0.6,0-0.7-0.2-0.7-0.7c0-0.8,0-1.7,0-2.5
	c0-0.4,0-0.6,0.6-0.6c3.6,0.2,7.1,0.2,10.7,0c0.3,0,0.6,0,0.6,0.5C109.8,92.2,109.8,93.2,109.8,94.3z"/>
<path class="st0" d="M72.9,126.6c-1.1,0-2.1-0.1-3.2-0.3c-2.1-0.2-3.7-1.9-4-3.9c-0.2-1.6-0.3-3.3-0.2-4.9c0-0.3,0.2-0.5,0.4-0.5
	c0,0,0,0,0,0c1.8-0.3,3.6,0.1,5.4,0c0.4,0,0.3,0.3,0.3,0.6c0,0.6,0,1.3,0,1.9s0.2,1.3,1,1.5c0.7,0.2,1.4-0.2,1.7-0.9
	c0.9-2,1.3-4.1,0-6.2c-1-1.7-2.3-3.2-3.8-4.5c-3.1-2.8-3.6-6.2-3.2-10.1c0.1-2.4,1.1-4.6,2.7-6.4c2.9-3,7.4-2.5,10.2-0.9
	c0.9,0.6,1.5,1.6,1.6,2.7c0.2,1.2,0.4,2.5,0.4,3.8c0,0.4,0,0.5-0.4,0.5c-1.6,0-3.1-0.1-4.7-0.1c-0.5,0-0.7-0.1-0.7-0.7
	c0-0.9-0.1-1.8-0.3-2.6c-0.2-0.4-0.4-0.9-0.9-0.9s-0.8,0.4-1,0.9c-1.1,2.5-0.7,5.5,1.1,7.6c1.1,1.2,2.2,2.3,3.3,3.4
	c2.3,2,3.7,4.9,3.7,8c0.1,1.8,0,3.6-0.2,5.4c-0.2,1.4-0.8,2.8-1.6,4c-1.3,2-3.3,2.6-5.5,2.8C74.3,126.6,73.6,126.6,72.9,126.6z"/>
<path class="st13" d="M177.4,23.5c-0.5,0.3-0.7,0.9-0.5,1.4c0,0,0,0,0,0c2.1-0.5,3.8-2,4.7-3.9c0.2-0.5,0.7-0.7,1.2-0.5c0,0,0,0,0,0
	c0.5,0.1,1.4,0.5,1.5-0.2s-0.8-0.6-1.3-0.7s-0.7-0.3-0.7-0.9c0.1-2-0.7-3.9-2.3-5.2c2.6,0.1,5,0.2,7.4,1.5c3.3,1.8,6.4,4,9.1,6.6
	c0.5,0.4,0.7,1,0.6,1.6c-0.4,4.8-0.4,9.6-0.4,14.4c-0.1,1.4,0.7,2.8,1.9,3.5c0.9,0.6,1.8,1.4,2.5,2.2c5.7,6.1,9.5,13.6,10.9,21.8
	c0.4,1.3,0.5,2.7,0.3,4.1c-0.1,0.3,0.1,0.5,0.3,0.7c1,1.7,2,3.4,3.1,5.1c1.3,1.7,1.8,3.9,1.5,6.1c-0.4,2.2-0.3,4.4-0.5,6.6
	c0,0.5-0.1,0.9-0.6,1.1c-0.5,0.2-1.1,0.1-1.4-0.3c-0.9-0.7-1.2-1.9-0.9-3c0.8-3.4-0.7-6.1-2.9-8.4c-1-1.1-1.8-0.9-2.8,0.2
	c-0.6,0.8-1.3,1.5-2,2.2c-0.7,0.7-1.7,1-2.7,0.8c-0.7-0.1-1.2-0.6-1.3-1.3c-0.1-0.7,0.4-1,0.9-1.2c0.9-0.3,1.6-1,1.9-1.9
	c0.3-0.7,0.6-1.4,0.8-2.2c0.4-1.7,1.5-3.1,3-3.8c0.5-0.2,0.8-0.7,0.6-1.2c-0.5-4-1.4-7.9-3.7-11.4c-2.3-3.2-4.8-6.2-7.6-9.1
	c-0.3-0.3-0.6-0.7-0.9-1.1s-0.4-0.5-0.7-0.3s-0.3,0.5-0.3,0.8c0.1,1.2,0.6,2.2,1.4,3.1c0.2,0.2,0.4,0.3,0.4,0.6
	c-0.4,3,0.5,5.9,1.2,8.8c0.6,2.1,1.1,4.2,1.5,6.3c0.2,1.6-0.1,3.2-0.8,4.6c-0.2,0.4-0.6,0.7-1.1,0.8c-4.2,0.5-8.4,0.2-12.5-0.9
	c-6.2-1.6-12.5-2.7-18.8-3.3c-4.4-0.4-8.8-0.5-13.2-0.2c-0.6,0-1.4,0.4-1.8-0.2c-0.6-0.8-0.8-1.9-0.5-2.9c0.3-0.9,0.8-1.8,1.5-2.5
	c2-2.3,4.1-4.6,6.1-7c3.1-3.9,5.6-8.2,7.4-12.9c0.7-1.8,1.6-3.4,2.4-5.2c0.1-0.2,0.2-0.3,0.3-0.5c0.2-0.4,0.4-0.2,0.6-0.1
	c0.4,0.2,0.1,0.3,0,0.5c-0.7,0.8-0.7,1.9-0.1,2.8c0.5,0.9,1.6,1.4,2.6,1.2c0.3-0.1,0.6-0.1,0.6-0.4s-0.3-0.4-0.6-0.5
	s-0.5-0.2-0.7-0.2c-0.9-0.3-1.2-0.8-1-1.6c0.2-0.9,0.6-1.2,1.7-1c2.4,0.4,4.8,0.3,7.1-0.4c2.5-0.7,4.6-2.3,5.9-4.5
	c0.6-0.9,1.2-1.8,1.9-2.8c0,0.4,0,0.6,0,0.8s-0.1,0.7,0.3,0.8s0.6-0.3,0.8-0.6c0.3-1,0-2-0.7-2.8c-1.5-0.8-3.4-0.2-4.2,1.3
	c0.6,0,1.2-0.1,1.8-0.3c0.5-0.1,0.9-0.1,0.6,0.7c-0.9,2.1-2.3,3.9-4.1,5.3c-1.3,1-2.9,1.5-4.5,1.7c-3.2,0.4-6.1-0.1-8.5-2.6
	c-0.5-0.5-0.5-0.8,0.1-1.1c0.9-0.4,1.7-1,2.4-1.7c0.2-0.3,0.4-0.1,0.6,0c0.5,0.1,1.1,0.2,1.6,0.1c0.3,0,0.5-0.1,0.6-0.4
	s-0.2-0.4-0.4-0.5c-1.2-0.7-2.5-1.1-3.9-1.1c-1.8,0-3.7-0.1-5.5-0.3c-1.8-0.3-3.3-1.7-3.9-3.4c-0.5-1.2,0.1-2.6,1.3-3.2
	c1.5-0.9,3.4-1.1,5-0.4c0.8,0.2,1.5,0.5,2.3,0.9c1.3,0.5,2.6,0.7,4,0.7c0.3,0.1,0.6-0.1,0.8-0.3c0.3-0.3,0.7-0.1,1,0
	C175.8,23,176.7,22.9,177.4,23.5z"/>
<path class="st13" d="M191.7,136.1c-1.6-0.4-3.1-1.1-4.4-2.1c-2.5-1.9-5.3-3.3-8.3-4.3c-0.4-0.1-0.5-0.2-0.3-0.6
	c1.1-3.1,1.6-6.5,1.5-9.8c0-8.7-0.6-17.4-1.8-26c-0.6-5-1.5-9.9-2.4-14.8c-0.1-0.4-0.3-1.1-0.1-1.2c0.6-0.2,1.2-0.6,2-0.3
	c1.7,0.7,3.5,1,5.3,0.7c0.6-0.1,0.8,0.1,0.9,0.7c0.5,3.2,0.9,6.4,1.4,9.6c1,6.5,1.8,13,4.1,19.1c1.6,3.9,3.4,7.7,5.4,11.5
	c2.5,5.1,5.5,9.9,8.9,14.4c2.9,3.9,3.9,8.9,2.5,13.5c0,0.2-0.1,0.3-0.2,0.5c-0.6,1.6-0.6,1.6-2.2,1.6l-26.5-0.1
	c-1.7,0-3.4-0.2-5-0.6c-2-0.4-3.5-1.6-5-2.7c-0.5-0.4-0.7-1-0.6-1.5c0.4-4.8,2.2-8.8,6.5-11.4c2.3-1.5,5.3-1.6,7.7-0.2
	c2.2,1.1,4.3,2.3,6.4,3.7C189.2,136.7,190.3,136.8,191.7,136.1z"/>
<path class="st14" d="M136.6,11.6c-0.9-0.2-1.8-0.2-2.6,0.1c-1.5,0.3-3.1,0.2-4.6-0.3c-1.2-0.6-2.6-0.3-3.4,0.8
	c-1,1.2-2.4,1.5-3.8,1.9c-1.1,0.2-2.2,0.5-3.3,0.9c-1.7,0.7-2.8,2.4-3,4.2c0.1,0.2,0.6-0.1,0.5,0.3c-1,0.9-2.5,1.3-3.8,0.9
	c0.4,1.4,1.1,1.8,2.4,1.3c0.8-0.3,1.5-0.7,2.3-1.1c0.8-0.6,1.9-0.4,2.5,0.4c0,0.1,0.1,0.1,0.1,0.2c0.6,0.6,1.3,1.1,2.2,1.3
	c1.6,0.5,3.2,0.9,4.9,1.2c0.8,0.1,1.6,0.5,2.1,1.2c0.1,0.2,0.3,0.3,0.4,0.5c1.4,2.6,3.8,3.1,6.4,2.7c0.6-0.1,0.9,0,1.1,0.6
	c0.1,0.4,0.3,0.7,0.6,1c0.2,0.4,0.7,0.6,1.1,0.4c0.5-0.2,1.1-0.1,1.5,0.2c1.3,0.6,2.6,1.3,3.7,2.1c3.3,3,6.8,5.5,10.7,7.7
	c-1.5,0.3-2.9,0-4.3-0.6c-1.3-0.7-2.5-1.5-3.7-2.4c-0.9-0.9-2.1-1.5-3.3-1.7c-0.7-0.2-1.4-0.6-1.9-1.2c-1.1-1.3-2.5-2.3-4.1-2.8
	c-0.9-0.4-1.7-0.9-2.3-1.6c-0.9-0.8-2.1-1.3-3.3-1.2c-0.9,0-1.8-0.2-2.6-0.7c-1.7-1-3.4-1.9-5.1-2.9c-0.7-0.4-1.2-1.1-2-1.5
	c-1.8-0.8-3.5-1.3-5.4-0.3c-0.5,0.3-1,0-1.4-0.1c-2.8-1-5.8-1.4-8.8-1.3c-1.1,0.1-2.1,0-3.2-0.2c-0.3-0.1-0.7-0.1-1-0.2
	c-2.8-0.8-3.8-3.3-2.4-5.8c0.9-1.9,2.6-3.2,4.7-3.6c1.5-0.2,2.8-1,3.7-2.2c1-1.3,2.5-2.1,4.2-2.1c1.9,0,3.7-0.8,4.9-2.2
	c0.8-0.9,1.9-1.4,3.1-1.4c1.7,0,3.4-0.4,5,0.2c0.3,0.1,0.4-0.1,0.6-0.3c3.3-2.5,6.7-3,10.5-1.1c1.5,0.5,2.6,1.6,3.3,3
	c0.4,0.8,0.4,1.8-0.1,2.6c-0.5,0.6-0.8,1.4-0.9,2.2C138.3,11.3,137.3,11.2,136.6,11.6z"/>
<path class="st13" d="M163.7,144.5c-5.3-0.3-10.6-1.1-15.7-2.6c-0.4-0.1-0.8-0.4-0.8-0.9c-0.5-1.5-0.5-3.1,0.1-4.6
	c1.1-2.9,3-5.3,5.6-6.9c2.9-1.8,5.9-1.4,8.8,0c2.2,1.1,4.3,2.4,6.4,3.7c0.5,0.3,0.5,0.5,0.2,1c-1.4,2-2.3,4.4-2.7,6.8
	c-0.1,0.9-0.2,1.8-0.1,2.8c0.1,0.7-0.2,0.9-0.8,0.8C164.3,144.5,164,144.5,163.7,144.5z"/>
<path class="st13" d="M136.6,11.6c0.6-0.7,1.6-0.5,2.3-1c0.2,0.9,0.9,1.3,1.7,1.6c1.1,0.4,2.1,1.2,2.6,2.3c-1.7-0.3-3.5-0.2-5.3,0.2
	c-1.6,0.3-2.9,1.5-3.5,3c-0.5,1.5,0,3.2,1.2,4.3c2.2,2.2,5.4,3.3,8.5,3c1.3-0.2,2.4-0.9,3.1-2c1-1.1,1-1.1,1.6,0.2
	c1,2.1,2,4.2,3,6.3s2.9,4,4.4,5.8c0.8,0.9,1.4,1.8,1.9,2.9c0.1,0.2,0.4,0.5,0.1,0.7c-0.2,0.3-0.6,0.4-0.9,0.3
	c-1.8-0.3-3.5-0.9-5-1.9c-1.5-1-2.9-2-4.2-3.2c-0.3-0.2-0.2-0.4-0.1-0.6c0.6-1.3,0.2-2.9-1-3.8c-1.2-1.2-3-1.4-4.5-0.5
	c-0.4,0.4-1,0.4-1.5,0.1c-0.7-0.5-1.5-0.7-2.4-0.7c-0.4,0.1-0.5-0.3-0.7-0.5c-0.2-0.5-0.5-1-0.8-1.4c-0.6-0.5-1.4-0.5-2.1-0.2
	c-1.5,0.5-3.2,0.1-4.3-1.2c-0.7-0.9-1.5-1.7-2.4-2.5c-0.2-0.2-0.2-0.3-0.1-0.6c1.3-3.6-0.3-6.4-4-7.3L124,15
	c1.3-0.6,2.5-1.4,3.5-2.4c0.2-0.3,0.7,0,1,0c1.9,0.3,3.9,0.8,5.8,0.5C135.3,12.9,136.1,12.4,136.6,11.6z"/>
<path class="st13" d="M170.1,132.2c1.5-3.6,2.7-7.4,3.6-11.2c1.2-5.4,1.7-11,1.2-16.6c-0.4-4.7-0.6-9.4-0.9-14.1
	c-0.3-4.4-0.8-8.8-1.5-13.2c0-0.2,0-0.3-0.1-0.5c0.7-0.1,1.3,0.3,1.5,1c1.4,3.1,2.3,6.5,2.8,9.9c1.4,8.4,2.2,16.9,2.3,25.4
	c0.1,3.1,0,6.2-0.2,9.3c-0.1,2.4-0.8,4.7-1.9,6.8c-0.2,0.4-0.6,0.7-1.1,0.8c-1.5,0.4-3,1-4.3,1.8C171.1,131.7,170.6,132,170.1,132.2
	z"/>
<path class="st13" d="M165.3,43.1c-1.6,3.8-3.8,7.4-6.3,10.7c-0.1,0.2-0.4,0.4-0.6,0.5c-1.3,0.5-2.5,1.1-3.8,1.5
	c-3.3,1.1-6-0.1-8.3-2.5c-2.1-2.1-3.5-4.7-5.4-7c-1.5-2.1-3-4.3-4.3-6.6c-0.8-1.2-0.6-1.7,0.8-2.3c0.6-0.1,1.2-0.5,1.6-0.9
	c0.1-0.2,0.4-0.1,0.6,0c0.8,0.2,1.5,0.7,1.8,1.5c1.5,4.3,5.3,6.6,8.4,9.4c0.8,0.7,1.8,1.3,2.7,1.9c0.3,0.2,0.4,0.3,0.7,0
	c2.5-2,5.3-3.6,8.4-4.8C162.8,44.2,164,43.7,165.3,43.1z"/>
<path class="st1" d="M87.1,60.9c0-2.9-0.1-5.6,0-8.3c0.1-3,0.2-5.9,0.5-8.9c0.4-4.3,1.5-8.5,3.1-12.6c0.2-0.6,0.6-1.1,0.9-1.7
	c1.2-1.5,2.7-1.4,3.5,0.3c1.1,2.3,1.7,4.7,1.6,7.3c-0.2,5.4-1.7,10.6-4.4,15.3C90.9,55.2,89.1,57.9,87.1,60.9z"/>
<path class="st15" d="M171.4,6.2c2.5,0,5.1,0.1,7.6,0.3c2.7,0.2,5.4,0.6,8.1,1.3c0.9,0.2,1.8,0.7,2.4,1.5c0.4,0.5,1,0.8,1.6,0.9
	c0.3,0.1,0.6,0.2,0.8-0.1s-0.2-0.5-0.5-0.7L191,9.2c0.2-0.3,0.5-0.4,0.9-0.3c1.7,0.2,3.5,0.4,5.2,0.7c2.1,0.4,3.9,1.4,4.5,3.6
	c0.7,2.6,0.4,5.1-1.7,7c-0.8,0.8-2.2,0.9-3.1,0.2c-0.7-0.5-1.3-1-1.9-1.6c-2.8-2.5-6.1-4.4-9.6-5.7c-1.6-0.6-3.1-1.5-4.3-2.6
	c-2.5-2.3-5.6-3.7-9-4.1C171.8,6.4,171.5,6.3,171.4,6.2z"/>
<path class="st1" d="M141.8,108c0-3.6,0.4-7.3,1.3-10.8c0.2-0.7,0.5-1.4,0.9-2c0.3-0.7,1.1-1.1,1.8-0.8c0.3,0.1,0.6,0.4,0.7,0.7
	c0.7,1.2,1.2,2.5,1.4,3.9c1.5,6.3,1.6,12.9,0.3,19.2c-0.2,0.8-0.5,1.6-0.9,2.3c-1,1.5-2.5,1.5-3.5,0c-0.7-1.1-1.1-2.4-1.3-3.7
	C142,113.9,141.7,111,141.8,108z"/>
<path class="st1" d="M68,64.9c-0.1-3.5-0.1-6.9,0.1-10.3c0.1-5.9,1.1-11.7,2.8-17.4c0.6-1.8,1.4-3.6,2.3-5.3
	c0.2-0.3,0.4-0.6,0.6-0.9c0.4-0.5,0.9-0.5,1.3,0.1c0.4,0.8,0.7,1.6,0.9,2.5c1.1,5,0.3,10-0.9,14.9c-1.5,5.5-3.7,10.8-6.6,15.8
	C68.3,64.5,68.1,64.7,68,64.9z"/>
<path class="st13" d="M139.8,35.1c-2.4,1.5-5.2,2.5-8,2.9c-1.7,0.3-3.4,0.5-5.2,0.4c-2.4,0-5-0.8-5.8-4.3c-0.3-1.2-0.6-2.3-1.1-3.5
	c-0.5-1.5-1.5-2.9-2.8-3.9c-1.6-1.1-0.7-2.5,0.4-3c1.3-0.6,2.8-0.5,4,0.3c2.5,1.6,4.3,3.6,4.5,6.7c0,0.5,0.1,1,0.3,1.5
	c0.2,0.7,0.6,0.8,1.1,0.4c0.2-0.1,0.4-0.3,0.6-0.5c0.4-0.4,0.8-0.9,1.3-1.3c1-1.2,2.7-1.4,3.9-0.4c1.1,0.7,2.2,1.5,3.2,2.3
	c0.8,0.8,2,0.9,2.9,1.7C139.4,34.7,139.7,34.8,139.8,35.1z"/>
<path class="st1" d="M163.4,108.7c0-1.8,0.2-3.6,0.4-5.4c0.2-1.2,0.6-2.3,1.2-3.4c1.3-2.2,3.3-2.2,4.6,0c0.8,1.6,1.3,3.3,1.5,5.1
	c0.5,3.9,0.3,7.8-0.5,11.6c-0.2,1-0.5,1.9-1.1,2.7c-0.4,1-1.5,1.4-2.5,1c-0.2-0.1-0.4-0.2-0.6-0.4c-1.1-0.9-2-2.1-2.3-3.5
	C163.5,114,163.2,111.4,163.4,108.7z"/>
<path class="st16" d="M142.5,23.8c-2.2,0-4.3-0.8-5.9-2.3c-1.3-1.1-1.4-3-0.4-4.2c0.4-0.4,0.8-0.8,1.4-0.9c0.9-0.4,1.9-0.6,2.9-0.6
	c0.9,0.1,1.8,0.1,2.7-0.1c0.6-0.2,1.1,0.2,1.4,0.7c1,1.4,1.9,2.9,2.8,4.5c0.2,0.3,0.1,0.6-0.1,0.9C146.2,23.1,144.4,24,142.5,23.8z"
	/>
<path class="st14" d="M162.7,68.5c4,0.2,8,0.8,11.9,1.6c1.8,0.4,3.6,0.8,5.4,1.1c0.5,0.1,0.5,0.2,0.3,0.7c-0.4,1-0.9,1.9-1.5,2.7
	c-0.8,1.2-2.3,1.7-3.6,1.4c-2.1-0.4-4.1-1.1-5.9-2.2c-2.1-1.1-4-2.5-5.7-4.1C163.2,69.4,162.9,69,162.7,68.5z"/>
<path class="st1" d="M106.9,67.9c1.1,3.1,3.9,5.2,7.2,5.5c0.4,0.1,0.6,0.1,0.5,0.6c-0.4,2.6-1.5,5.1-3.1,7.1
	c-1.5,1.8-2.7,1.6-3.5-0.5c-1.1-3.3-1.6-6.7-1.3-10.1C106.7,69.6,106.8,68.8,106.9,67.9z"/>
<path class="st14" d="M152.9,68.2c0.5,0.2,1.1,0.3,1.6,0.2c2.1-0.2,4.1-0.1,6.2-0.1c0.5,0,0.7,0.4,0.9,0.7c1.9,2.4,4.3,4.5,7,6
	c0.8,0.4,1.6,0.8,2.4,1.1c0.2,0.1,0.3,0.2,0.3,0.4s-0.2,0.2-0.4,0.2c-6.1-0.5-12-1.8-16.6-6.3C153.7,69.8,153.2,69,152.9,68.2z"/>
<path class="st1" d="M45,71c0.2-3.2,0.5-6.1,2-8.8c0.5-0.9,1.1-1.8,1.8-2.5c0.5-0.4,1-0.8,1.6-1c0.9-0.5,1.9-0.1,2.4,0.7
	c0.2,0.4,0.3,0.9,0.1,1.3c-0.1,1.4-0.6,2.7-1.4,3.9C49.8,67.2,47.5,69.3,45,71z"/>
<path class="st13" d="M170.4,18.9c0.6-2.3,2.2-3.7,4.1-4.9c-0.7-0.6-1.3-0.1-2,0.2c0.1-0.7,0.6-1.2,1.3-1.2c1.7,0,3.5,0.1,5.1,0.4
	c0.1,0,0.2,0.1,0.2,0.1c0.9,1.5,1.9,3,1.7,4.8c-0.1,0.6-0.2,0.8-0.9,0.7c-0.9-0.2-1.8-0.3-2.7-0.4c-0.7-0.1-1.3,0-1.9,0.3
	c-0.6,0.3-1.3,0.3-1.9,0.1C172.4,18.9,171.4,18.8,170.4,18.9z"/>
<path class="st16" d="M123.2,16.2c1.5,0,3,0.6,4,1.8c1,1.2,1,3-0.1,4.1c-0.2,0.2-0.4,0.1-0.6,0.1c-1.9-0.2-3.8-0.8-5.5-1.8
	c-0.6-0.3-1.2-0.7-1.8-1s-0.8-0.8-0.3-1.4c0.9-0.9,2-1.5,3.3-1.7C122.5,16.3,122.8,16.2,123.2,16.2z"/>
<path class="st14" d="M193,73.4c-3.8,1.7-7.4,3.1-11.3,3.1h-0.6c-1.8-0.1-1.9-0.3-1.1-1.8c0.6-0.9,1-1.8,1.3-2.8
	c0.1-0.5,0.4-0.3,0.6-0.2c2.4,0.5,4.7,0.9,7.1,1.3C190.3,73.1,191.5,73.2,193,73.4z"/>
<path class="st13" d="M119.7,34.1c0.1,0.5-0.2,0.5-0.5,0.4c-0.3-0.2-0.6-0.4-0.8-0.7c-0.4-0.5-0.8-1-1.1-1.6c-0.9-1.5-2.3-2.7-4-3.4
	c-1.5-0.5-2.4-1.9-2.3-3.5c0-1.3-0.1-1.3,1.3-1.1c0.8,0.1,1.7,0.2,2.5,0.3c0.2,0,0.5-0.1,0.5,0.3c-0.2,1.6,0.8,2.6,1.8,3.5
	C118.7,29.8,119.7,31.9,119.7,34.1z"/>
<path class="st1" d="M115.6,67.4c0,0.8,0,1.6-0.2,2.3c-0.1,0.5-0.3,0.7-0.8,0.7h-0.2c-3.2-0.3-4.3-1.3-3.5-5.6
	c0.1-1,0.7-1.9,1.5-2.4c0.6-0.5,1.4-0.4,1.9,0.1c0.1,0.1,0.2,0.3,0.3,0.5C115.3,64.3,115.6,65.8,115.6,67.4z"/>
<path class="st17" d="M177.4,23.5l-3.4-0.8c0-0.5-0.4-0.6-0.7-0.5c-0.9,0-1.9-0.2-2.8-0.5c-0.6-0.2-0.6-0.6-0.6-1.1s0.5-0.4,0.8-0.5
	s0.6,0,0.9-0.1c0.5-0.1,0.7,0,0.8,0.6c0.2,0.7,0.9,1.1,1.6,1c0.4-0.1,0.7-0.4,0.9-0.7c0.3-1.1,1.2-1,2-1c0.3,0,0.5,0.1,0.4,0.5
	c-0.2,1,0.3,2,1.3,2.2c0.1,0,0.2,0,0.3,0C178.4,23,178,23.3,177.4,23.5z"/>
<path class="st18" d="M178.5,12c-1.1-0.2-2.2-0.6-3.2-1.2c-1.1-0.5-2.3-1-3.4-1.5C171,9,170,8.8,169,8.9c-1.8,0.2-2.5,0.8-2.6,2.6
	c-0.8-0.9-0.6-2.3,0.3-3.1c0,0,0.1-0.1,0.1-0.1c1.4-1,3.2-1.2,4.8-0.6c1.1,0.4,2.1,0.9,3,1.6L178.5,12z"/>
<path class="st19" d="M110.2,26.4c-1.2-0.3-2.3-0.6-3.4-0.9c-0.9-0.2-1.4-1-1.3-1.9c0-0.3,0.1-0.4,0.4-0.4l4.2,0.6
	c0.2,0,0.4,0.1,0.3,0.4C110.2,25,110.1,25.7,110.2,26.4z"/>
<path class="st20" d="M156.7,56.2c-0.3,0.4-0.4,0.7-0.6,0.9l-2.8,3.3c-0.2-1-0.4-1.9-0.6-2.7c0-0.2,0-0.3,0.1-0.3
	C154.1,57.2,155.3,56.6,156.7,56.2z"/>
<path class="st21" d="M143.5,30.5c1.3-0.6,2.8,0,3.4,1.3c0,0.1,0,0.1,0.1,0.2c0.1,0.3,0.1,0.7-0.2,1c-0.2,0.2-0.5-0.2-0.7-0.4
	C145.2,32,144.3,31.3,143.5,30.5z"/>
<path class="st22" d="M191.2,75.4c2.1-0.7,3.9-2.1,6.1-2.3c-1.8,1.2-3.8,2-5.9,2.4C191.3,75.7,191.2,75.6,191.2,75.4z"/>
<path class="st23" d="M213,83c0.1,0.4,0.1,0.8,0.1,1.2c0,0.3,0.1,0.8-0.3,0.9c-0.4,0.1-0.9-0.2-1-0.6c-0.2-0.4,0-0.8,0.3-1
	C212.4,83.2,212.7,83.1,213,83z"/>
<path class="st24" d="M212.1,81.4c0.3,0,0.7,0,0.6,0.4c-0.1,0.5-0.6,0.6-1,0.7s-0.5,0-0.4-0.4C211.4,81.7,211.7,81.4,212.1,81.4z"/>
<path class="st25" d="M116.4,19.4l-0.5-0.3c0.6,0.1,1.2-0.1,1.5-0.6C117.3,19.3,116.7,19.2,116.4,19.4z"/>
<path class="st26" d="M171,14.6c-0.4-0.4-1,0-1.4-0.3c0.5,0,0.9,0,1.4,0S171.1,14.5,171,14.6z"/>
<path class="st27" d="M190.7,75.8c-0.2,0.2-0.4,0.2-0.6,0l0.6-0.2C190.7,75.6,190.8,75.6,190.7,75.8
	C190.7,75.7,190.7,75.8,190.7,75.8z"/>
<path class="st28" d="M190.7,75.8v-0.2l0.5-0.2l0.2,0.2C191.2,75.7,191,75.8,190.7,75.8z"/>
<path class="st29" d="M219.5,122.9h0.8c0.1,0,0.3,0,0.3,0.2c0,0.1-0.1,0.2-0.2,0.3c0,0,0,0-0.1,0c-0.7-0.1-0.4,0.5-0.5,0.8
	s0.3,1.3-0.2,1.3s-0.2-0.8-0.3-1.3s0.1-0.9-0.6-0.8c-0.1,0-0.2,0-0.3-0.2c0,0,0,0,0-0.1c0-0.2,0.2-0.2,0.3-0.2H219.5z"/>
<path class="st1" d="M121.2,100.2c0-1.3,0-2.6,0-4c0-0.6,0.2-0.8,0.8-0.7c0.8,0,1.5,0.2,2.3,0.4c2.1,0.6,3.3,2.8,2.7,5c0,0,0,0,0,0
	c-0.5,2.2-2.3,3.9-4.6,4.1c-1,0.1-1.1,0-1.1-1c0-1.3,0-2.5,0-3.8L121.2,100.2z"/>
<path class="st30" d="M104.3,15.4c-0.2-1,0.2-1.5,1.2-1.7c3.9-1,5.9,2.6,5.5,5.3c0,0.2-0.1,0.3-0.1,0.5c0,0.3-0.2,0.4-0.5,0.4
	s-0.4-0.2-0.4-0.5c0-0.6-0.1-1.1-0.2-1.7c-0.5-1.9-2.4-3.1-4.3-2.7c-0.2,0-0.3,0.1-0.5,0.2L104.3,15.4z"/>
</svg>
