<?xml version="1.0" encoding="utf-8"?>
<!-- Generator: Adobe Illustrator 21.1.0, SVG Export Plug-In . SVG Version: 6.00 Build 0)  -->
<svg version="1.1" id="Layer_1" xmlns="http://www.w3.org/2000/svg" xmlns:xlink="http://www.w3.org/1999/xlink" x="0px" y="0px"
	 viewBox="0 0 229.2 99.6" style="enable-background:new 0 0 229.2 99.6;" xml:space="preserve">
<style type="text/css">
	.st0{fill:#C5BAB1;}
	.st1{fill:#A80333;}
	.st2{fill:#EAEAEA;}
	.st3{fill:#E7E7E7;}
	.st4{fill:#E8E8E8;}
	.st5{fill:#FBFBFB;}
	.st6{fill:#FAFAFA;}
</style>
<title>Fine Dining</title>
<path d="M0.5,78.3c0.8-0.2,1-0.7,1-1.5C1.4,70.8,1.9,64.9,2.4,59c0.2-2.4,0.4-4.7,0.6-7.1c0.1-0.8,0-1.6-0.2-2.4
	c0-0.3-0.2-0.5-0.4-0.6c-0.2-0.1-0.6-0.2-0.5-0.5s0.4-0.3,0.7-0.3h6c0.5,0,1,0,1.5,0c0.3,0,0.5,0.1,0.5,0.4s-0.3,0.3-0.5,0.3
	c-1,0.2-1,0.3-0.5,1.1c1.7,2.6,3.3,5.4,4.7,8.2c1.6,3.3,3,6.6,4.4,10c0.3,0.8,0.7,1.5,1,2.4c0.2-0.2,0.4-0.4,0.5-0.6
	c2.6-4.8,4.8-9.8,7.2-14.7c0.8-1.7,1.6-3.3,2.4-5c0.3-0.5,0.2-0.9-0.4-1.1c-0.1,0-0.2-0.1-0.2-0.1c-0.2-0.1-0.5-0.2-0.4-0.5
	s0.4-0.4,0.7-0.4c0.9,0,1.7,0,2.6,0.1c2,0.1,4,0,6,0.1c0.2,0,0.5-0.1,0.6,0.2s-0.2,0.4-0.4,0.5c-0.5,0.1-0.8,0.6-0.7,1.1
	c0,4.1,0.1,8.2,0.1,12.2c0,3.4,0,6.9,0,10.4c0,1.5,0,3.1,0,4.6c0,0.5,0.1,0.9,0.6,1c0.3,0.1,0.5,0.2,0.4,0.5s-0.3,0.3-0.5,0.3
	c-2.6-0.4-5.3,0.1-7.9,0c-0.1,0-0.2,0-0.3,0c-0.2,0-0.4,0.1-0.5-0.2c-0.1-0.2,0.1-0.5,0.3-0.5c0.7-0.3,0.8-0.8,0.8-1.4
	c0-7.1,0-14.2-0.1-21.3c0-0.7-0.1-1.5-0.1-2.3c-0.3,0.2-0.6,0.4-0.7,0.8c-2.7,5.6-5.2,11.2-8,16.7c-1.4,2.7-2.7,5.5-4.1,8.2
	c-0.1,0.2-0.2,0.5-0.5,0.5s-0.4-0.3-0.5-0.5c-0.9-1.6-1.7-3.2-2.5-4.8c-1.4-3-3-6-4.8-8.8c-1.5-2.7-2.8-5.4-4-8.2
	c-0.4-0.8-0.7-1.7-1.1-2.5H4.1c0,0.3,0,0.6,0,0.9c-0.1,3.1-0.2,6.1-0.1,9.2c0,3.6,0.6,7.1,1.7,10.5c0.4,1.3,1.3,2.3,2.5,3
	c0.2,0.1,0.6,0.2,0.4,0.6S8.2,79,8,78.9c-2.5-0.2-4.9-0.3-7.4-0.1L0.5,78.3z"/>
<path class="st0" d="M124.4,0.5c1.8,0.4,3.4,1.3,4.7,2.7c1.1,1.2,1.6,2.9,1.4,4.6c-0.1,0.6-0.4,1.1-0.9,1.3
	c-1.2,0.7-2.5,1.2-3.8,1.5c-0.2,0-0.4,0.1-0.5-0.1s0.1-0.3,0.3-0.4c0.3-0.3,0.7-0.6,1-0.9c1.6-1.5,1.7-2.4,0.9-4.6
	c-0.5-1.3-1.5-2.4-2.7-3c-1.3-0.6-2.8-0.4-3.9,0.5c-1.4,0.9-1.6,2.3-1.6,3.8c0,4.5,2.5,7.5,5.7,10.1c1.1,0.8,2.1,1.7,3.1,2.7
	c2.2,2.3,1.9,5.1,0.2,7.4c-1.6,2-3.4,3.8-5.6,5.2c-0.8,0.6-1.6,1.2-2.4,1.8c-0.2,0.2-0.4,0.3-0.7,0.2l1.5-1.9c1.6-1.8,3-3.9,3.9-6.2
	c0.9-2,1.1-4.2,0.4-6.3c-0.3-0.7-0.7-1.4-1.3-1.9c-1.6-1.3-3.3-2.4-5.1-3.3c-1.1-0.7-2.2-1.6-3.1-2.6c-1.8-2.1-1.6-5.6-0.1-7.7
	c1.1-1.4,2.6-2.4,4.3-2.9c0.2-0.1,0.4-0.2,0.7-0.3L124.4,0.5z"/>
<path class="st1" d="M116.4,50.9c-2.6-0.5-5.1-1.3-7.4-2.3c-2.9-1.2-5.4-3.1-7.3-5.5c-2-2.3-2.5-5.6-1.2-8.4
	c1.2-2.9,3.6-5.1,6.5-6.3c0.5-0.2,1.1-0.4,1.6-0.6c0.3-0.1,0.6-0.3,0.8,0.2c-0.2,0.5-0.8,0.6-1.2,0.9c-0.7,0.5-1.3,1.2-1.8,1.9v0.4
	c0.3,0.4,0.5,0.7,0.7,1.2c0.2,0.4,0.6,0.8,0.9,1.2c1.3,0.9,2.7,1.6,4.3,2c6.9,1.8,14.2,2,21.2,0.4c1.8-0.3,3.5-1,5-1.9
	c0.5-0.3,1-0.7,1.3-1.2c0.3-0.5,0.4-1,0.3-1.6c-0.1-0.4-0.1-0.8-0.2-1.2c-0.3-0.7-0.9-1-1.4-1.3c-0.3-0.2-0.6-0.4-0.8-0.6
	c0.2-0.3,0.5-0.1,0.7,0c2.2,0.6,4.1,1.9,5.5,3.7c0.4,0.5,0.8,1,1.2,1.5c0.1,0.3,0.5,0.3,0.7,0.2c0,0,0.1,0,0.1-0.1
	c0.8-0.5,1.6-0.9,2.5-1.3c2.2-1,4.5-1.6,6.9-2c1.7-0.4,3.3,0.5,4.1,2c1.1,1.9,0.4,4.4-1.5,5.5c-1,0.6-2.3,0.7-3.4,0.3
	c-1.1-0.4-2-1.3-2.4-2.4c-0.1-0.5-0.6-0.8-1.1-0.7c-1.4,0-2.8,0.5-4,1.4c-0.3,0.2-0.5,0.6-0.4,0.9c0.3,4.7-2.5,7.5-6.1,9.9
	c-3.2,2-6.8,3.3-10.5,3.9c-2.8,0.5-5.6,0.6-8.4,0.5c-0.4,0-0.7,0-1.1,0c-1,0-2-0.1-2.9-0.2C117.1,51.2,116.8,50.9,116.4,50.9z"/>
<path d="M156.1,63.6c0-4.4,0-8.9,0-13.3c0-0.6,0-1.1-0.6-1.4c-0.2-0.1-0.3-0.3-0.2-0.5c0.1-0.2,0.3-0.3,0.5-0.3c0.6,0,1.3,0,1.9,0
	c4.1,0.1,8.2,0.1,12.3,0.5c4,0.3,7.8,1.7,11.2,3.9c3.4,2.2,5,7,3.6,10.5c-1,2.2-2.7,4.1-4.8,5.2c-4.1,2.4-8.9,3.5-13.6,3.3
	c-0.8,0-1.6,0.1-2.4,0.1c-0.4,0-0.5,0.2-0.5,0.6c0,1.8,0.1,3.6,0.1,5.4c0,0.5,0.4,0.5,0.7,0.6s0.5,0.2,0.5,0.5S164.2,79,164,79h-8.4
	c-0.2,0-0.5,0.1-0.6-0.2s0.2-0.4,0.4-0.4c0.6-0.2,0.9-0.7,0.8-1.3c0-4.5,0-8.9,0-13.4L156.1,63.6z"/>
<path d="M134.7,72.3c0.7,0.4,1.5,0.8,2.3,1.1c1.7,0.8,3.2,2.1,4.3,3.6c1.3,1.8,1.3,4.2,0.1,6c-1.1,1.9-2.7,3.3-4.7,4.2
	c-2.5,1.2-5.2,1.9-7.9,2.1c-2.9,0-5.7-1.1-7.7-3.2c-1.4-1.4-1.6-3.6-0.5-5.2c0.9-1.3,2.2-2.3,3.7-2.8c2.5-0.8,5.1-0.9,7.6-0.2
	c0.6,0.2,1.1,0.4,1.6,0.8c1.1,0.7,1.5,2,1,3.2c-0.4,1-1.3,1.8-2.4,1.8c-1.4,0.2-2.8-0.1-4.2,0.1c-0.2,0.1-0.4-0.1-0.4-0.2
	c-0.1-0.2,0.1-0.4,0.3-0.5s0.6-0.3,0.9-0.5c0.6-0.3,0.9-1.1,0.5-1.7c-0.3-0.8-1-1.4-1.8-1.6c-1.9-0.3-3.8-0.1-5,1.6
	c-1,1.3-1.4,3,0,4.5c0.7,0.8,1.6,1.4,2.6,1.7c3,0.8,6,0.8,8.6-1.1c3.1-2.3,3.8-6.7,1.5-9.8c-0.7-0.9-1.5-1.6-2.5-2.1
	c-1.8-1.1-4.2-0.9-5.8,0.5c-0.5,0.4-0.9,0.9-1.1,1.6c-0.1,0.5-0.4,0.6-0.8,0.3c-0.7-0.8-1.6-1.4-2.6-1.9c-0.1,0-0.2-0.1-0.2-0.2
	c0-0.2,0.2-0.3,0.4-0.3c1.4,0.1,2.5-0.7,3.8-1.2c0.2-0.1,0.6-0.1,0.6-0.4s-0.3-0.4-0.6-0.5c-1.3-0.5-2.4-1.3-3.5-2.2
	c-1.4-1.4-2.6-2.9-2.4-5.1c0.2-1.6,0.9-3.1,2.1-4.1c1.4-1.4,3.2-2.3,5.2-2.8h0.1c0.4-0.1,0.9,0.2,1.1-0.3s-0.1-0.8-0.2-1.2
	c-0.2-0.6-0.4-1.3-0.7-1.9c-0.2-0.5-0.1-0.6,0.4-0.7c2-0.1,3.9-0.4,5.9-1c0.2-0.1,0.4-0.2,0.6,0.1s-0.1,0.4-0.2,0.5
	c-0.8,1-1.5,2.1-2.1,3.3c-0.2,0.5-0.1,0.8,0.4,1c1.9,0.7,3.6,1.7,5.2,2.9c0.9,0.6,1.6,1.4,2.1,2.3c1.6,2.7,0.8,5.6-1.9,7.4
	c-0.9,0.6-1.9,1.2-2.9,1.8C135.1,72,134.9,72.1,134.7,72.3z"/>
<path d="M102.7,69c0,2.8,0,5.7,0,8.5c0,0.3,0.2,0.6,0.5,0.7c0.3,0.1,0.6,0.2,0.5,0.6s-0.4,0.2-0.7,0.2c-2,0.1-4,0.1-5.9,0.1
	c-0.3,0-0.6,0.1-0.7-0.2s0.2-0.4,0.4-0.6c0.2-0.2,0.4-0.6,0.3-0.9c0-1.5,0-3,0-4.6c0-4.5-0.1-9-0.1-13.6c0-0.6-0.2-0.9-0.8-0.9
	c-0.1,0-0.3,0-0.4-0.1c-0.3-0.1-0.4-0.4-0.4-0.6c0-0.3,0.3-0.3,0.6-0.3c0.8,0,1.6,0.2,2.5,0.1c1.1-0.1,2.3,0,3.4-0.1
	c0.4,0,0.6,0.1,0.7,0.5s0.2,0.3,0.4,0.2c3.2-1.7,6.3-1.1,9.2,0.8c2.4,1.4,4.2,3.8,4.9,6.5c0.8,3.3,1,6.7,0.8,10.1c0,0.7,0,1.4,0,2.1
	c0,0.5,0.1,0.8,0.6,0.9c0.2,0.1,0.5,0.2,0.4,0.4s-0.3,0.3-0.5,0.3c-2.2,0.1-4.4,0-6.6,0c-0.2,0-0.3,0-0.4-0.2c0-0.2,0-0.3,0.2-0.4
	c1-0.4,0.8-1.2,0.8-2c-0.1-2.7-0.1-5.4-0.3-8c0-2.7-0.8-5.3-2.2-7.6c-0.6-1-1.5-1.8-2.5-2.3c-1.6-0.5-3.4,0-4.6,1.3
	c-0.2,0.2-0.2,0.5-0.2,0.8C102.6,63.4,102.6,66.2,102.7,69L102.7,69z"/>
<path d="M185,68.1c0-6,4.8-10.9,10.8-10.9c0.1,0,0.1,0,0.2,0c6.1,0.1,11.1,5.1,11.1,11.2c0.1,6.1-5.3,10.8-10.6,11
	c-6.1,0.2-11.3-4.6-11.5-10.7C185,68.4,185,68.2,185,68.1z"/>
<path d="M87.8,94.3c1.2-0.4,2.4-0.9,3.6-1.2c5.5-1.8,11.2-3.1,16.9-3.9c4.9-0.6,9.9,0.1,14.5,2c4,1.6,8.1,2.9,12.3,3.9
	c3.9,0.9,7.9,1.7,11.9,2.3l1.2,0.2c0.1,0,0.3,0,0.3,0.1s-0.1,0.2-0.3,0.2c-1.3,0.4-2.7,0.6-4.1,0.8c-8.5,1-17.2,0.1-25.3-2.7
	c-3.5-1.3-7.2-2.3-10.9-2.9c-2.7-0.3-5.3-0.3-8,0c-3.6,0.3-7.1,0.9-10.6,1.5c-0.5,0.1-1,0.1-1.5,0.1L87.8,94.3z"/>
<path d="M53.2,66.2h-6.3c-0.8,0-1,0.2-1.1,1c-0.1,1.6,0,3.3,0.2,4.9c0.1,1.1,0.5,2.2,1.1,3.1c1.5,2.4,3.6,3.3,6.4,2.2
	c3-0.9,4.8-3.8,4.3-6.9c0-0.2-0.1-0.5,0.2-0.6c0.2-0.1,0.5,0,0.7,0.2c0.8,0.8,1.6,1.6,2.6,2.2c0.5,0.4,0.5,0.6-0.1,0.9
	c-0.3,0.2-0.6,0.4-0.7,0.7c-0.7,1.3-1.7,2.4-3,3.2c-2.7,1.7-6,2.3-9.2,1.6c-3.4-0.7-6.3-3-7.8-6.2c-1-2.3-1.1-4.9-0.3-7.3
	c1.4-5.5,6.9-9,12.5-8c2.4,0.4,4.6,1.8,5.9,3.8c0.7,1,1.4,2.1,1.8,3.3c0.1,0.3,0.2,0.7,0.2,1c0,0.6-0.2,0.7-0.8,0.7
	C57.5,66.2,55.4,66.2,53.2,66.2L53.2,66.2z"/>
<path d="M74.4,67.7c0-3.1,0-6.2,0-9.3c0-0.3,0.1-0.6-0.2-0.7s-0.5,0.1-0.7,0.3c-0.6,0.4-1.2,0.8-1.8,1.2c-0.2,0.1-0.4,0.3-0.6,0.2
	S71,59,71,58.8c0-0.5,0-1,0-1.5c0.1-0.7,0.4-1,1.1-1c0.4,0,0.9,0,1.3,0c0.5,0.1,0.9-0.3,1-0.7c0-0.1,0-0.2,0-0.3
	c0-1.9-0.1-3.9-0.1-5.8c0-0.4-0.3-0.6-0.6-0.6s-0.6-0.1-0.5-0.5s0.4-0.3,0.6-0.3c0.6-0.1,1.2,0,1.7,0.1c1.5,0.1,3.1,0.1,4.6-0.1
	c0.2,0,0.4,0,0.6,0c0.2,0,0.3,0.1,0.3,0.3c0.1,0.2,0,0.4-0.2,0.5c-0.2,0.1-0.4,0.2-0.6,0.2c-0.3,0.1-0.5,0.4-0.5,0.7
	c0,2.1,0.1,4.1,0.1,6.2c0,0.5,0.3,0.5,0.7,0.6c0.9,0.1,1.9-0.1,2.8-0.4c0.3-0.1,0.7-0.3,0.9,0s0.1,0.6,0.1,1
	c-0.1,0.5-0.3,0.9-0.4,1.4c-0.1,0.4-0.5,0.7-1,0.7c-0.8-0.1-1.5-0.3-2.3-0.5c-0.4-0.1-0.7,0-0.7,0.5c0.1,5.8-0.1,11.5,0,17.3
	c0,0.9,0.2,1.5,1.1,1.7c0.1,0.1,0.3,0.1,0.4,0.3c0.2,0.2,0.3,0.4,0.2,0.7c-0.1,0.3-0.3,0.3-0.5,0.3c-0.4,0-0.8,0-1.3-0.1
	C77.9,79,76,79,74,79.2c-0.3,0-0.7,0.2-0.9-0.2s0.2-0.7,0.6-0.8c0.6-0.2,0.7-0.6,0.7-1.1c0-3.1,0-6.2,0-9.3L74.4,67.7z"/>
<path d="M215.7,68.4c0,2.9,0,5.9,0,8.8c0,0.4,0.2,0.8,0.6,0.9c0.5,0.2,1.1,0.4,1,1s-0.9,0.3-1.3,0.2c-2.2-0.2-4.4-0.2-6.6,0
	c-0.2,0-0.5,0.1-0.6-0.2s0.1-0.4,0.3-0.6c0.2-0.1,0.3-0.2,0.5-0.3c0.4-0.1,0.6-0.5,0.6-0.9c0-6.3,0-12.7-0.1-19
	c0-0.7-0.1-0.7-0.8-0.4c-0.7,0.4-1.4,0.9-2,1.4c-0.5,0.4-0.7,0.3-0.7-0.4c0-0.5,0-1,0-1.5c0-0.5,0.3-0.8,0.8-0.8c0,0,0.1,0,0.1,0
	c0.5,0,0.9,0,1.4,0c0.9,0,1.2-0.4,1.2-1.3c0-1.8-0.1-3.7-0.1-5.5c0.1-0.4-0.2-0.8-0.6-0.8c0,0,0,0-0.1,0c-0.2,0-0.5,0-0.5-0.3
	s0.4-0.3,0.6-0.3c1.6,0.1,3.2,0.2,4.8,0.1c0.6,0,1.2-0.1,1.9-0.1c0.2,0,0.5-0.1,0.5,0.3s-0.1,0.4-0.4,0.5c-0.8,0.1-0.8,0.6-0.8,1.2
	c0,1.8,0,3.7,0,5.5c0,0.8,0.2,1,1,1c0.9,0,1.7-0.2,2.6-0.5c0.2-0.1,0.6-0.3,0.8,0c0.2,0.3,0.2,0.6,0,0.9c-0.2,0.5-0.4,1-0.5,1.5
	c-0.1,0.5-0.5,0.6-0.9,0.6c-0.7,0-1.3-0.2-1.9-0.4c-0.9-0.2-1-0.1-1,0.8c0,2.9,0,5.8,0,8.8L215.7,68.4z"/>
<path d="M65.6,78.9c-1,0-2.1,0-3.1-0.1c-0.2,0-0.5,0-0.6-0.3c-0.1-0.3,0.1-0.5,0.3-0.6c0.6-0.2,0.6-0.6,0.6-1.1c0-5.3,0-10.6-0.1-16
	c0-3.7-0.1-7.5-0.1-11.2c0.1-0.4-0.2-0.7-0.6-0.8c-0.3-0.1-0.7-0.2-0.5-0.6s0.4-0.4,0.8-0.3c1.6,0.1,3.2,0.1,4.7,0
	c0.6,0,1.1,0,1.7,0.1c0.2,0,0.3,0,0.4,0.2c0.1,0.2,0,0.4-0.2,0.4c0,0,0,0,0,0c-0.7,0.2-0.7,0.7-0.7,1.4c0,5.4,0,10.8,0.1,16.2
	c0,3.5,0,7,0,10.5c0,0.6,0.1,1.1,0.7,1.3c0.3,0.1,0.4,0.4,0.3,0.7c0,0,0,0,0,0c-0.1,0.3-0.4,0.3-0.7,0.3L65.6,78.9z"/>
<path d="M87.3,68.3c0-3.1-0.1-6.1-0.1-9.2c0-0.4-0.2-0.8-0.6-0.9c-0.3-0.1-0.7-0.3-0.6-0.7s0.5-0.4,0.9-0.4c2.1,0.2,4.1,0,6.2,0.1
	c0.3,0,0.7-0.2,0.8,0.2s-0.2,0.6-0.5,0.8c-0.3,0.2-0.5,0.5-0.4,0.8C93,65,93.1,71,93.1,76.9c0,0.6,0,1.1,0.7,1.3
	c0.2,0.1,0.4,0.3,0.3,0.5c0,0,0,0.1,0,0.1C94,79,93.8,79.1,93.5,79c-1.5-0.1-2.9-0.1-4.4-0.1c-0.7,0-1.4,0.1-2.1,0.1
	c-0.3,0-0.6,0-0.6-0.4c-0.1-0.2,0.1-0.5,0.3-0.5c0,0,0.1,0,0.1,0c0.6,0,0.5-0.4,0.5-0.8C87.3,74.4,87.3,71.3,87.3,68.3z"/>
<path d="M53.6,23.7c2.8,0.1,5.8-0.1,8.8-0.1c0.8,0,1,0.3,0.7,1c-0.2,0.7-0.3,1.4-0.4,2.2c-0.1,0.3-0.1,0.6-0.4,0.7s-0.5-0.2-0.7-0.4
	c-1-1-2.2-1.6-3.6-1.8c-0.4-0.1-0.9-0.2-1.4-0.3s-0.6,0-0.6,0.5C56,26.8,56,28.1,56,29.5c0,3.9,0,7.9,0.1,11.8
	c0,0.5-0.1,1.1,0.5,1.4c0.3,0.2,0.2,0.4-0.1,0.5c-0.2,0-0.3,0-0.5,0c-1.6-0.1-3.2-0.1-4.9,0c-0.2,0-0.5,0.1-0.6-0.2s0.1-0.4,0.3-0.5
	c0.4-0.2,0.3-0.5,0.3-0.8c0-4-0.1-7.9-0.1-11.9c0-1.3,0-2.7,0-4c0-0.8-0.2-1.1-1-1c-1.8,0-3.4,0.8-4.6,2.2c-0.2,0.2-0.2,0.5-0.6,0.5
	s-0.4-0.4-0.4-0.7c-0.1-0.9-0.3-1.8-0.6-2.6c-0.2-0.5,0.2-0.6,0.5-0.5l5.5,0.1L53.6,23.7z"/>
<path d="M73.8,38.9c0.2-1.8,0-3.7-0.5-5.4c-0.6-1.9-2.3-3.1-4.3-3c-0.9,0-1.1,0.3-1.1,1.2c0,0.7,0.1,1.5,0.1,2.2c0,2.6,0,5.2,0,7.8
	c0,0.4,0,0.8,0.5,0.9c0.2,0,0.3,0.2,0.2,0.3c0,0,0,0,0,0c0,0.2-0.2,0.3-0.3,0.3c0,0,0,0,0,0c-1.5-0.2-2.9,0.1-4.4,0
	c-0.1,0-0.3,0-0.3-0.2c0-0.1,0-0.3,0.2-0.3c0.5-0.2,0.5-0.7,0.5-1.1c0-5.6,0-11.1,0-16.7c0-0.3,0-0.7-0.3-0.8
	c-0.1,0-0.2-0.2-0.2-0.3c0,0,0,0,0,0c0.1-0.1,0.2-0.2,0.3-0.2h4.1c0.1,0,0.2,0.1,0.2,0.2c0,0.2-0.1,0.3-0.2,0.3
	c-0.4,0.2-0.6,0.6-0.4,1c0.1,1.3,0.1,2.5,0,3.8c0,0.8,0.1,0.8,0.8,0.7c3.9-0.8,7.7,1.7,8.5,5.5c0.1,0.4,0.1,0.7,0.1,1.1
	c0.2,1.8,0,3.6,0,5.4c0,0.5-0.1,1,0.5,1.2c0.2,0.1,0.2,0.3,0.1,0.4c0,0.1-0.2,0.2-0.3,0.2c-1.4-0.2-2.8-0.2-4.2-0.1
	c-0.1,0-0.3,0-0.3-0.2c0-0.2,0-0.3,0.2-0.4c0.4-0.2,0.4-0.5,0.4-0.9C73.8,40.8,73.8,39.9,73.8,38.9z"/>
<path d="M87,35.2c-1.2,0-2.4,0-3.7,0c-0.6,0-0.9,0.3-0.9,0.8c-0.1,1.5,0,3,0.6,4.3c0.6,1.5,2.1,2.3,3.7,2c1.6-0.2,2.9-1.3,3.3-2.9
	c0.1-0.5,0.1-1,0.1-1.5c0-0.4,0.3-0.5,0.6-0.3c0.5,0.5,1.1,0.9,1.6,1.3c0.3,0.3,0.5,0.5-0.1,0.7c-0.1,0.1-0.3,0.2-0.3,0.3
	c-1,1.7-2.7,2.9-4.7,3.1c-2.9,0.6-6-0.5-7.7-3c-1.6-2.1-1.3-5.7,0.4-7.9c1.9-2.6,5.3-3.6,8.3-2.4c1.3,0.6,2.3,1.6,3,2.9
	c0.3,0.4,0.5,0.8,0.7,1.3c0.4,0.9,0.1,1.3-0.9,1.3s-1.7,0-2.6,0L87,35.2L87,35.2z"/>
<path class="st0" d="M119.2,30.9c0.1-0.7,0.3-1.4,0.3-2.1c0.3-1.6-0.1-3.2-1.1-4.4c-1-0.9-2.1-1.6-3.4-2c-1.9-0.6-3.9-1.2-5.8-2
	c-0.9-0.3-1.7-0.8-2.4-1.4c-0.7-0.7-0.9-1.6-0.7-2.5c0.4-1.9,1.3-3.6,2.6-5c0.7-0.8,1.5-1.5,2.3-2.3c0.2-0.2,0.4-0.4,0.6-0.3
	s0.1,0.4,0.1,0.7c-0.3,1.1-0.4,2.1-0.5,3.2c-0.2,2.6,1,5.1,3.1,6.6c1.3,1.1,2.7,2.2,4,3.2c0.7,0.6,1.3,1.2,1.8,1.9
	c0.4,0.7,0.6,1.4,0.5,2.2c-0.1,1.3-0.4,2.6-1,3.8C119.6,30.7,119.4,30.9,119.2,30.9z"/>
<path class="st0" d="M129.8,29c-0.1,0-0.2,0-0.2-0.1s0.1-0.3,0.2-0.3c2.5-1.7,4.1-4.4,4.4-7.4c0-1.2-0.5-2.3-1.4-3l-1-0.8
	c-0.9-0.6-1.3-1.8-0.7-2.7c0.1-0.1,0.2-0.2,0.2-0.3c0.8-1.2,1.9-2.2,3.2-2.9c0.2-0.1,0.5-0.3,0.7-0.2s0,0.5-0.1,0.7
	c-0.5,1.1-0.9,2.2-1.1,3.4c-0.2,1,0.1,2,0.7,2.8c0.4,0.6,0.8,1.2,1.2,1.8c1.6,2.4,0.9,4.2-0.9,5.9c-1.4,1.2-3,2.3-4.7,3.1L129.8,29z
	"/>
<path d="M89.3,48c1.3,0,2.6,0,3.9,0c0.5,0,0.5,0.3,0.3,0.6c-1.3,1.9-2,4-3.2,5.9c-0.3,0.5-0.6,0.5-0.8,0c-0.6-1.1-1.1-2.2-1.7-3.3
	c-0.4-0.7-0.8-1.4-1.2-2.2c-0.5-0.9-0.3-1.2,0.7-1.2L89.3,48L89.3,48z"/>
<path class="st2" d="M106.5,30.8c0-0.6,0.4-1.1,0.8-1.4c0.7-0.5,1.4-1,2.1-1.4c0.2,0.2,0.2,0.5-0.1,0.6s-0.6,0.4-0.8,0.4
	c-0.6,0.1-1,0.5-1.1,1.1C107.3,30.5,106.7,30.4,106.5,30.8z"/>
<path class="st2" d="M108,33.5c-0.9-0.5-1.5-1.3-1.6-2.3c0.2-0.1,0.4-0.3,0.5,0.2c0.2,0.5,0.4,1,0.7,1.5c0.1,0.1,0.2,0.2,0.3,0.1
	c0.4-0.3,0.4,0.2,0.6,0.3C108.4,33.5,108.2,33.3,108,33.5z"/>
<path class="st3" d="M139.9,30c0.7,0.7,0.7,1.9,0,2.6c0,0-0.1,0.1-0.1,0.1c0.1-0.6,0.1-1.3,0-1.9C139.7,30.5,139.8,30.2,139.9,30z"
	/>
<path class="st4" d="M116.4,50.9l4.1,0.5c-0.8-0.1-1.6,0.1-2.4,0C117.4,51.4,116.9,51.2,116.4,50.9z"/>
<path class="st5" d="M163.6,59.8c0-3.1,0-6.3,0-9.4c0-0.5,0.1-0.7,0.6-0.7c3.5,0,6.8,0.7,9.5,3.2c3.1,2.8,4.5,6.3,3.2,10.5
	c-0.9,2.9-3.1,4.7-5.8,5.8c-2.3,0.8-4.7,1.1-7.1,0.8c-0.4,0-0.4-0.3-0.4-0.6c0-1.3,0-2.6,0-3.9C163.6,63.5,163.6,61.7,163.6,59.8
	L163.6,59.8z"/>
<path class="st5" d="M134.6,66.4c0.1,1.7-0.5,3.3-1.7,4.5c-1.3,1.2-3.4,1.1-4.6-0.2c-2.4-3.3-2.3-7.8,0.3-11
	c0.2-0.2,0.4-0.6,0.8-0.4s0.3,0.5,0.4,0.8c0.1,0.5,0.2,1,0.4,1.5c0.1,0.3,0.4,0.5,0.7,0.5s0.4-0.4,0.5-0.6c0.1-0.5,0.2-1,0.3-1.6
	s0.4-0.6,0.8-0.3c0.6,0.3,1,0.9,1.2,1.5C134.2,62.7,134.5,64.6,134.6,66.4z"/>
<path class="st5" d="M190.9,67.4c0-2.7,0.9-5.4,2.4-7.6c1.6-2.1,3.6-2.2,5.3-0.1c1.1,1.5,1.9,3.3,2.1,5.1c0.7,3.4,0.4,6.9-0.9,10.2
	c-0.4,1.1-1.1,2.1-2,2.8c-1.2,1-2.9,0.8-3.9-0.3c-0.8-0.8-1.5-1.8-1.9-2.9C191.2,72.3,190.8,69.8,190.9,67.4z"/>
<path class="st5" d="M50.1,64.5h-3.5c-0.2,0-0.5,0-0.5-0.4c0.1-2.1,0.5-4.1,2.3-5.4c0.9-0.6,2-0.8,3-0.4c2.2,0.8,3.5,2.9,3.1,5.2
	c-0.1,0.6-0.3,0.9-1,0.9C52.4,64.5,51.2,64.5,50.1,64.5L50.1,64.5z"/>
<path class="st6" d="M85,34.1c-0.6,0-1.3,0-1.9,0c-0.4,0-0.5-0.1-0.5-0.5c0-1.1,0.5-2.2,1.4-2.9c1.1-0.8,2.6-0.5,3.3,0.6
	c0.1,0.1,0.2,0.3,0.2,0.4c0,0.1,0.1,0.1,0.1,0.2c0.6,1.9,0.3,2.2-1.4,2.1C85.8,34.1,85.4,34.1,85,34.1L85,34.1z"/>
<path d="M225.3,82.8c1.9,0,3.4-1.5,3.4-3.4s-1.5-3.4-3.4-3.4s-3.4,1.5-3.4,3.4S223.4,82.8,225.3,82.8L225.3,82.8z M225.3,82.2
	c-1.6,0-2.9-1.3-2.9-2.9s1.3-2.9,2.9-2.9s2.9,1.3,2.9,2.9S226.8,82.2,225.3,82.2L225.3,82.2z"/>
<path d="M224.5,79.7h0.7l1,1.7h0.7l-1.1-1.7c0.6,0,1-0.4,1-1c0,0,0-0.1,0-0.1c0-0.8-0.5-1.1-1.4-1.1h-1.5v3.9h0.6L224.5,79.7
	L224.5,79.7z M224.5,79.2V78h0.8c0.4,0,0.9,0.1,0.9,0.6s-0.4,0.6-1,0.6H224.5z"/>
</svg>
