<?xml version="1.0" encoding="utf-8"?>
<!-- Generator: Adobe Illustrator 21.1.0, SVG Export Plug-In . SVG Version: 6.00 Build 0)  -->
<svg version="1.1" id="Layer_1" xmlns="http://www.w3.org/2000/svg" xmlns:xlink="http://www.w3.org/1999/xlink" x="0px" y="0px"
	 viewBox="0 0 229.8 78.5" style="enable-background:new 0 0 229.8 78.5;" xml:space="preserve">
<style type="text/css">
	.st0{fill:#B0BC22;}
	.st1{fill:#ECF2CE;}
	.st2{fill:#EAEFC6;}
	.st3{fill:#EAF0C9;}
	.st4{fill:#D0DA80;}
	.st5{fill:#BCCD4D;}
	.st6{fill:#CDD879;}
	.st7{fill:#C6006F;}
	.st8{fill:#A9C41F;}
	.st9{fill:#E0ECBA;}
	.st10{fill:#FFFFFF;}
	.st11{fill:#F48987;}
	.st12{fill:#E693A2;}
	.st13{fill:#FBFDF7;}
	.st14{fill:#FBFCF5;}
	.st15{fill:#FDFEFA;}
	.st16{fill:#FAFEFB;}
	.st17{fill:#F48A88;}
	.st18{fill:#C6016F;}
	.st19{fill:#E174B1;}
	.st20{fill:#FEFCFC;}
</style>
<title>Fast Food</title>
<path class="st0" d="M25.4,77.9L23,77.6c-1-0.1-2-0.5-3-0.7c-1-0.2-1.9-0.6-2.8-1c-1.5-0.7-3-1.5-4.3-2.4c-0.3-0.2-0.5-0.4-0.8-0.6
	c-0.4-0.4-1-0.6-1.6-0.6C10,72.2,9.5,72,9,71.7c-0.5-0.3-1-0.8-1.2-1.4c-0.1-0.3-0.3-0.5-0.6-0.6c-0.2,0-0.3-0.1-0.5-0.2
	c-0.9-0.3-1.7-1.1-2-2c-0.2-0.4-0.3-0.8-0.3-1.3c0-0.2-0.1-0.3-0.3-0.4l-0.2-0.1c-0.9-0.3-1.7-0.8-2.2-1.6c-0.2-0.2-0.3-0.5-0.4-0.8
	c-0.3-1-0.6-2.1-0.7-3.1c-0.3-3.3,0.2-6.7,1.6-9.8c1.4-3,3.4-5.7,5.9-7.9C8.6,42,9.3,41.5,10,41c0.3-0.3,0.3-0.3,0.1-0.6
	c-0.3-0.5-0.6-1.1-0.8-1.7C9.1,38.1,9,37.6,9,37c-0.1-1.4-0.2-2.8-0.4-4.3c0-0.2-0.1-0.4-0.2-0.6c-0.5-1.8-0.4-3.7,0.4-5.3
	c0.8-1.8,2.1-3.4,3.7-4.5c1.5-1.2,3-2.3,4.6-3.4c0.9-0.6,1.7-1.2,2.6-1.8c0.4-0.2,0.7-0.4,1-0.7c0.1-0.1,0.2-0.2,0.1-0.3
	c0,0,0,0,0,0c-0.1-0.3-0.3-0.5-0.4-0.8c-1.1-1.9-1.6-4.1-1.3-6.3c0.2-3,2-5.7,4.6-7.1c1.3-0.7,2.7-1.2,4.2-1.3
	c0.7-0.1,1.5-0.1,2.2,0c1.6,0.1,3.1,0.6,4.5,1.4c1.5,0.8,2.9,1.7,4.2,2.9c1,0.9,1.8,2.1,2.3,3.3c0.6,1.3,1,2.7,1.2,4.1
	c0.2,1.5,0.2,3,0.1,4.5c-0.3,3.2-1.2,6.2-2.7,9.1c-0.2,0.4-0.3,0.7-0.5,1.1c-0.1,0.3-0.1,0.5,0,0.8c0.1,0.4,0.3,0.8,0.6,1.2
	c1.1,1.6,2.4,3,4,4.2c0.6,0.4,1.1,0.9,1.5,1.4c0.6,0.7,1,1.6,1,2.6c0,0.3,0,0.5,0,0.8c-0.1,0.5,0.1,1,0.3,1.5
	c0.7,1.3,1.5,2.4,2.5,3.5c0.3,0.4,0.7,0.8,1,1.2c0.8,0.9,1.3,2.1,1.4,3.3c0.1,0.9-0.1,1.7-0.4,2.5c-0.2,0.6-0.6,1.1-1.1,1.6
	c-0.3,0.3-0.5,0.8-0.5,1.3c0,0.6,0.1,1.3,0.2,1.9c0.2,0.8,0.4,1.7,0.8,2.5c0.2,0.4,0.3,0.9,0.4,1.3c0,0.1,0,0.3,0.2,0.3
	s0.1,0.1,0.1,0.2c0.2,1.2,0.3,2.4,0.3,3.6c-0.1,1.2-0.5,2.4-1.1,3.5c-0.7,1.1-1.8,1.9-3.1,2.3h-0.1c-0.6,0.2-1.1,0.5-1.5,1
	c-1.5,1.7-3.2,3.3-5.1,4.6c-0.4,0.3-0.8,0.6-1.2,0.8c-1.9,1.1-4,2-6.1,2.5c-1.3,0.3-2.5,0.6-3.8,0.7c-0.1,0-0.3,0-0.4,0.1
	s-0.3,0-0.5,0s-0.3,0-0.5,0h-1.3c-0.2-0.1-0.3,0-0.5,0h-0.5C25.7,78,25.5,78,25.4,77.9z"/>
<path class="st1" d="M30,0.6h-2.2c0,0,0-0.1,0-0.1L30,0.6C30,0.5,30,0.6,30,0.6z"/>
<path class="st2" d="M28.7,77.9h0.5V78L28.7,77.9C28.6,78,28.6,78,28.7,77.9L28.7,77.9z"/>
<path class="st3" d="M25.4,77.9h0.5c0,0,0,0,0,0.1s0,0,0,0L25.4,77.9C25.4,78,25.4,78,25.4,77.9z"/>
<path class="st4" d="M25.9,78C25.9,78,25.9,78,25.9,78l0.5-0.1c0,0,0,0,0,0.1s0,0,0,0L25.9,78z"/>
<path class="st5" d="M26.3,78C26.3,78,26.3,78,26.3,78c0.2-0.1,0.3-0.2,0.5,0H26.3z"/>
<path class="st6" d="M28.7,77.9C28.6,78,28.6,78,28.7,77.9L28.2,78C28.3,77.9,28.5,77.9,28.7,77.9z"/>
<path class="st0" d="M136.5,57.5h-6.7c-1.2,0-2.4-0.2-3.4-0.7c-1.8-0.8-3.1-2.3-3.7-4.1c-0.4-1.1-0.6-2.4-0.6-3.6c0-1.5,0-3,0-4.6
	c0-0.3,0-0.7-0.1-1c-0.1-0.5-0.4-0.8-0.9-0.9c-0.5-0.1-1,0.1-1.4,0.6c-0.4,0.5-0.6,1.1-0.6,1.7c0,1.2,0,2.4,0,3.6s0,2.5,0,3.7
	c0,0.7-0.1,1.3-0.3,1.9c-0.5,1.6-1.9,2.8-3.6,3.1c-0.4,0.1-0.7,0.1-1.1,0.1h-13c-1.4,0-2.7-0.2-4-0.7l-0.3-0.1c-0.5-0.2-1-0.2-1.4,0
	c-0.8,0.3-1.6,0.6-2.5,0.7c-0.4,0-0.8,0.1-1.2,0.1c-1.7,0-3.3,0-5,0c-0.8,0-1.5-0.1-2.3-0.3c-1.1-0.3-2.1-0.9-2.8-1.7
	c-1.1-1.2-1.9-2.6-2.2-4.2c-0.1-0.4-0.1-0.9-0.1-1.3c0-1.8,0-3.6,0-5.4c0-0.3,0-0.7-0.1-1c-0.1-0.4-0.4-0.6-0.8-0.6
	c-0.8-0.2-1.7,0.3-1.9,1.1c-0.2,0.5-0.3,1.1-0.3,1.7c0,2.2,0,4.3,0,6.4c0,0.5,0,1.1,0,1.6c0,0.7-0.3,1.5-0.7,2.1
	c-0.5,0.7-1.3,1.2-2.2,1.2c-0.8,0.1-1.6,0.1-2.3,0c-1.6-0.1-2.9-1.4-3-3c0-0.7,0-1.3,0-2c0-2.4,0-4.9,0-7.3c0-0.3,0-0.7-0.1-1
	c0-0.4-0.3-0.8-0.8-0.9c-0.5-0.2-1-0.1-1.3,0.3c-0.6,0.6-0.9,1.4-0.9,2.3c0,2.4,0,4.8,0,7.1c0,0.6,0,1.3-0.1,1.9
	c-0.3,1.5-1.6,2.6-3.1,2.7c-0.7,0-1.3,0-2,0c-1.1,0-2-0.6-2.6-1.5c-0.4-0.6-0.6-1.2-0.6-1.9c0-5.3,0-10.6,0-15.9
	c0-0.3,0.1-0.6,0.3-0.9c0.1-0.1,0.2-0.2,0.3-0.3c0.7-1,1.8-1.5,3-1.5c0.8,0,1.5,0,2.3,0.1c0.5,0.1,1,0,1.5-0.1
	c0.5-0.2,1.1-0.3,1.7-0.4c1.5-0.2,3,0,4.4,0.5c0.7,0.2,1.4,0.5,2,0.9c0.3,0.2,0.8,0.2,1.2,0c0.7-0.5,1.6-0.9,2.4-1.1
	c0,0,0.1,0,0.1,0c0.3-0.3,0.6-0.2,1-0.3c0.8,0,1.5,0,2.3,0c4.3,0.2,7.9,3.3,8.6,7.6c0.1,0.7,0.2,1.4,0.2,2.1c0,1.5,0,3,0,4.5
	c0,0.4,0,0.4,0.4,0.4h1.8c0-0.5-0.1-1.1-0.2-1.6c-0.2-1.2-0.2-2.4,0.1-3.6c0.7-4.1,3.6-7.5,7.6-8.9c1-0.4,2-0.6,3-0.6
	c0.8,0,1.6,0,2.4,0.1c1.5,0.3,2.9,0.8,4.2,1.7c0.9,0.6,1.8,1.4,2.6,2.2c0.3,0.3,0.6,0.7,0.8,1.1c0.1,0.1,0.1,0.3,0.3,0.4
	c0-0.7,0-1.4,0.1-2c0.1-1.5,1.2-2.8,2.7-3c0.8-0.1,1.6-0.1,2.3,0c0.5,0.1,1.1,0.1,1.6,0.1c0.2,0,0.3-0.1,0.4-0.1
	c1.9-0.6,3.9-0.7,5.8-0.1c2.3,0.6,4.2,2,5.4,4c0.6,1.1,1,2.3,1.2,3.6c0.2,1.7,0.3,3.3,0.2,5c0,0.5,0,1,0,1.4c0,0.2,0,0.3,0.3,0.3
	c0.4,0,0.8,0,1.2,0c0.2,0,0.3-0.1,0.3-0.3c0-0.6,0-1.3,0-1.9c0-1.1,0.1-2.1,0.3-3.2c0.3-1.6,1-3.2,1.9-4.5c1.3-1.8,3.1-3.2,5.2-4.1
	c1.1-0.4,2.3-0.7,3.6-0.7c1.2,0,2.4,0.1,3.6,0.3c1.6,0.3,3.1,1.1,4.3,2.2c1.3,1.2,1.9,2.9,1.8,4.7c-0.1,1-0.5,2-1.1,2.9
	c-0.6,0.8-1.4,1.4-2.4,1.7c-1,0.3-2.1,0.3-3.1,0.1c-1.3-0.4-2.4-1.2-3-2.4c-0.1-0.2-0.2-0.5-0.4-0.7s-0.3-0.3-0.6-0.1
	c-1.5,0.9-2,2.8-1.1,4.3c0.1,0.2,0.2,0.3,0.4,0.5c0.7,0.7,1.7,1.2,2.7,1.2c1.4,0.1,2.8,0,4.1,0c0.9,0,1.8,0,2.7,0h0.4
	c0.2,0,0.4-0.1,0.4-0.3c0.7-2,1.5-3.9,2.3-5.8c0.2-0.5,0.3-1,0.2-1.5c0-5.6,0-11.2,0-16.7c0-1,0-1.9,0.1-2.8c0.2-2.2,1.5-4.1,3.4-5
	c1.2-0.5,2.5-0.8,3.8-0.7c1.6,0.1,3.1,0.7,4.2,1.8c0.9,0.8,1.4,1.9,1.6,3.1c0.2,1,0.2,2,0.1,3c-0.5,2.9-1.1,5.8-1.9,8.6
	c-0.1,0.4-0.2,0.8-0.3,1.3c-0.1,0.4-0.1,0.4,0.4,0.5s0.7,0.1,1.1,0.2c3.3,0.8,5.9,3.4,6.7,6.7c0.3,1.2,0.4,2.5,0.4,3.7
	c0,1.1,0,2.3,0,3.5c0,0.4,0,0.4,0.4,0.4h2.9c0.4,0,0.4,0,0.4-0.4c0-3.1,0-6.2,0-9.3c0-0.7,0-1.3,0.2-2c0.4-1.4,1.6-2.4,3.1-2.4
	c0.8-0.1,1.7-0.1,2.5,0c0.5,0.1,1,0.3,1.3,0.6c0.8,0.6,1.2,1.6,1.3,2.6c0,2.9,0,5.9,0,8.8c0,0.6,0,1.2,0.1,1.8c0,0.3,0,0.3,0.3,0.3
	h1.6c0.3,0,0.3,0,0.3-0.4c-0.1-0.6-0.1-1.2-0.3-1.7c-0.2-1.1-0.1-2.2,0.1-3.2c0.4-2.3,1.5-4.4,3.2-6.1c1.5-1.5,3.5-2.5,5.6-3
	c1.3-0.2,2.6-0.3,3.9-0.1c0.8,0.1,1.5,0.3,2.3,0.5l0.8,0.2c0.2,0,0.2,0,0.2-0.2c0.2-1.3,0.2-2.7,0-4c-0.1-0.3-0.1-0.6-0.1-0.9
	c-0.1-0.8,0.1-1.5,0.6-2.1c0.6-0.9,1.3-1.8,2.1-2.6c0.3-0.3,0.5-0.7,0.4-1.2c0-0.6,0-1.2,0.2-1.8c0.5-1.7,2-2.9,3.7-3.1
	c0.5-0.1,1.1-0.1,1.6,0c1.7,0.2,3.2,1.3,3.8,3c0.3,0.7,0.4,1.5,0.4,2.2c0,0.5,0,1.1,0,1.6c0,0.4,0.1,0.7,0.4,1c0.8,1,1.5,2.1,2,3.2
	c0.2,0.6,0.4,1.2,0.4,1.9c0,0.6,0.1,1.1,0.1,1.7c0,0.2,0.1,0.3,0.3,0.2s0.6-0.1,0.9-0.1c1.2-0.2,2.3,0.3,3.1,1.2
	c0.7,0.9,1.2,1.9,1.4,3c0.1,0.5,0,1.1-0.2,1.6c-0.2,0.4-0.4,0.8-0.8,1.2c-0.3,0.3-0.3,0.5,0,0.8s0.5,0.5,0.8,0.8
	c1.3,1.2,2.2,2.8,2.7,4.4c0.8,2.4,0.3,5.1-1.3,7.2c-0.4,0.5-0.8,0.9-1.3,1.4c-0.3,0.4-0.9,0.6-1.4,0.4c-0.2-0.1-0.4-0.2-0.3-0.4
	c0.5-0.5,1.1-0.9,1.7-1.4c1.1-1.2,1.7-2.7,1.8-4.3c0.2-2.2-0.6-4.4-2.2-5.9c-0.4-0.5-0.9-0.9-1.3-1.4c-0.2-0.3-0.5-0.6-0.6-1
	c-0.3-0.6-0.3-0.7,0.3-1.1c1-0.7,1.3-1.9,0.8-2.9c-0.2-0.5-0.5-1-0.8-1.5c-0.6-0.9-1.8-1.3-2.8-0.9c-0.4,0.2-0.9,0.4-1.3,0.7
	c-0.5,0.3-0.7,0.2-0.7-0.4c0-0.8,0.1-1.6,0.1-2.3c0-1.8-0.6-3.6-1.8-5c-0.1-0.2-0.3-0.4-0.5-0.6c-0.5-0.5-0.7-1.3-0.6-2
	c0.1-1,0-2-0.3-3c-0.3-0.9-0.9-1.7-1.9-2.1c-1.5-0.7-3.3-0.4-4.5,0.8c-0.5,0.5-0.8,1.2-0.8,1.9c0,0.1,0,0.1,0,0.2
	c0.1,1.1-0.3,2.2-1.2,3c-0.6,0.6-1.1,1.3-1.5,2c-0.5,0.7-0.6,1.6-0.4,2.4c0.1,0.3,0.2,0.7,0.3,1c0.1,0.4,0.1,0.7,0,1.1
	c-0.4,1.2-0.4,2.4,0,3.5c0,0.1,0,0.1,0,0.2c0.1,0.4,0,0.6-0.5,0.4c-0.7-0.3-1.3-0.6-1.9-0.9c-0.7-0.3-1.4-0.6-2.1-0.7
	c-5.6-0.9-10.9,2.9-11.9,8.5c-0.1,0.8-0.2,1.6-0.1,2.4c0.1,0.6,0.2,1.2,0.3,1.8c0.1,0.4,0.2,0.8,0.2,1.2s0,0.6-0.6,0.6
	c-1.1,0-2.1,0-3.2,0c-0.8,0-0.9-0.1-0.9-0.9c0-3.5,0-7,0-10.6c0-0.4,0-0.9-0.2-1.3c-0.3-0.9-1.2-1.5-2.1-1.5c-0.5,0-1,0-1.5,0
	c-1,0-2,0.7-2.2,1.7c-0.1,0.4-0.1,0.8-0.1,1.1c0,3.5,0,6.9,0,10.4c0,0.8-0.1,0.9-1,1h-3.9c-0.2,0-0.3,0-0.5,0
	c-0.3,0-0.5-0.3-0.5-0.5c0,0,0,0,0,0c0-0.1,0-0.3,0-0.5c0-1.8,0-3.6,0-5.3c0-2.5-1.2-4.9-3.1-6.5c-0.7-0.6-1.6-1-2.5-1.3
	c-0.9-0.2-1.8-0.4-2.7-0.4c-0.6-0.1-0.7-0.2-0.6-0.8c0.2-0.9,0.4-1.8,0.7-2.6c0.8-2.7,1.4-5.5,1.8-8.4c0.1-0.7,0.1-1.4,0-2.1
	c-0.5-2.5-2.6-4.3-5.1-4.4c-1.3-0.1-2.6,0.3-3.7,1c-1.4,1-2.2,2.6-2.2,4.4c-0.1,6.1,0,12.3,0,18.4c0,1.1-0.2,2.1-0.6,3.1
	c-0.7,1.5-1.3,3.1-1.9,4.7c0,0.1-0.1,0.2-0.1,0.4c-0.2,0.7-0.8,1.1-1.5,1c-2.3,0.1-4.6,0-6.9,0.1c-1.4,0-2.7-0.5-3.6-1.4
	c-1.7-1.5-1.9-4.1-0.4-5.8c0.5-0.5,1.1-0.9,1.7-1.2c1-0.3,1-0.3,1.4,0.6c0.4,1.1,1.3,2,2.4,2.5c1.5,0.7,3.3,0.4,4.4-0.8
	c1.7-1.7,1.7-4.5,0-6.2c-1-1-2.3-1.7-3.6-2.1c-5.5-1.7-11.4,1.4-13.1,6.9c-0.1,0.3-0.2,0.5-0.2,0.8c-0.1,0.5-0.2,1.1-0.2,1.6
	c0,1.3,0,2.7,0,4.1c0,0.6-0.1,0.8-0.7,0.8c-0.9,0-1.8,0-2.7,0c-0.6,0-0.7-0.2-0.7-0.8c0-1.9,0-3.8,0-5.8c0-3-1.6-5.7-4.2-7.1
	c-2.2-1.2-4.8-1.3-7.1-0.5c-0.5,0.2-1.1,0.2-1.6,0.1c-0.8-0.2-1.7-0.3-2.6-0.1c-1.2,0.1-2,1.2-1.9,2.4c0,2.5,0,5,0,7.5
	c0,1.3-0.1,2.5-0.1,3.7c0,0.5-0.1,0.6-0.6,0.6c-2.3,0.1-4.5,0.1-6.8,0.1c-0.8,0-1.6-0.1-2.4-0.1c-0.5,0-0.6-0.2-0.3-0.6
	c0.3-0.4,0.6-0.7,0.9-1c1.2-1.1,2.3-2.3,3.5-3.4c1-0.9,1.8-1.9,2.7-2.8c0.8-0.8,0.9-2,0.2-2.9c-0.5-0.7-1.2-1.2-1.9-1.7
	c-1.1-0.9-2.3-1.5-3.7-1.9c-4.2-1.1-8.6,0.5-11,4.1c-1.2,1.7-1.9,3.7-1.9,5.8c0,1.1,0.1,2.2,0.4,3.2c0.4,1.2,0.3,1.3-0.9,1.3h-2.7
	c-0.8,0-0.8-0.1-0.8-0.8c0-1.6,0-3.3,0-4.9c0-1.4-0.2-2.7-0.8-4c-1.9-4.1-6.6-6-10.8-4.4c-0.6,0.2-1.1,0.6-1.6,0.9
	c-0.5,0.5-1.2,0.5-1.7,0.1c-0.5-0.3-1-0.6-1.5-0.9c-1.9-0.9-4-1-6-0.3c-0.7,0.2-1.5,0.3-2.2,0.1c-0.8-0.2-1.7-0.2-2.5,0
	c-1,0.2-1.8,1.2-1.8,2.2c0,0.1,0,0.3,0,0.4c0,4.9,0,9.8,0,14.7c0,0.4,0.1,0.8,0.2,1.2c0.3,0.9,1.2,1.5,2.1,1.4h1.3
	c1.3,0,2.4-1.1,2.4-2.4c0,0,0,0,0-0.1c0-2.4,0-4.9,0-7.3c0-0.6,0-1.1,0.1-1.7c0.1-0.9,0.6-1.8,1.3-2.3c1-0.8,2.5-0.5,3.3,0.5
	c0.2,0.2,0.3,0.5,0.4,0.8c0.1,0.4,0.1,0.8,0.1,1.2c0,2.9,0,5.8,0,8.7c0,0.8,0.3,1.5,0.9,2c0.3,0.3,0.7,0.5,1.1,0.5
	c0.7,0.1,1.4,0.1,2.1,0c1.3-0.1,2.2-1.2,2.2-2.5c0-2.8,0-5.6,0-8.5c0-1.2,0.5-2.3,1.5-2.9c0.8-0.5,1.8-0.6,2.7-0.1
	c0.4,0.2,0.6,0.5,0.7,0.8c0.2,0.5,0.3,1.1,0.3,1.7c0,1.8,0,3.6,0,5.3c0,1.1,0.3,2.2,0.8,3.2c0.8,1.5,2.2,2.7,3.9,3.1
	c0.6,0.2,1.3,0.3,1.9,0.2c1.6,0,3.3,0,4.9,0c1,0,2-0.2,2.9-0.7c0.7-0.4,1.6-0.5,2.4-0.1c1.4,0.5,2.9,0.8,4.4,0.8
	c2.3,0,4.7-0.2,7-0.1c1.6,0.1,3.3,0.1,4.9,0.1c0.5,0,1-0.1,1.5-0.1c1.7-0.3,3-1.8,2.9-3.6c0.1-2.5,0-5.1,0-7.6c0-1,0.3-2,1-2.7
	c0.4-0.5,1-0.7,1.6-0.7h0.5c1-0.1,1.9,0.6,2.1,1.6c0.1,0.4,0.2,0.8,0.2,1.2c0,1.7,0,3.4,0,5.1c0,1.2,0.2,2.3,0.7,3.4
	c1.1,2.2,3.4,3.5,5.8,3.5c0.9-0.1,1.9-0.1,2.8,0c0.5,0.1,1,0.1,1.5,0c0.9-0.1,1.9,0,2.9-0.1c0.1,0,0.1,0,0.2,0
	c0.1,0,0.1,0.1,0.1,0.2c0,0,0,0,0,0C137.1,56.8,136.9,57.2,136.5,57.5z"/>
<path class="st7" d="M136.5,57.5l0.6-1.1c0-0.3,0.4-0.4,0.6-0.6c1.8-1.5,4.3-1.7,6.3-0.6c0.5,0.3,1,0.8,1.2,1.3
	c0.1,0.3,0.1,0.6,0,0.9c0,0.3,0,0.6,0,0.9c0,0.5-0.2,0.9-0.4,1.3c-0.1,0.1-0.2,0.3-0.2,0.4l1.2-0.1c0.6-0.1,1.1,0,1.6,0.3
	c0.6,0.3,1.2,0.3,1.8,0.1c1.4-0.6,2.9-0.5,4.2,0.1c0.4,0.3,1,0.3,1.4,0c0.5-0.3,1.1-0.4,1.6-0.4h4c0.5,0,1,0.1,1.4,0.3
	c0.5,0.2,1.1,0.2,1.6,0c0.4-0.2,0.8-0.3,1.3-0.4c1.1-0.2,2.3,0,3.3,0.5c0.3,0.2,0.6,0.2,0.9,0c0.5-0.3,1-0.4,1.6-0.4
	c0.6,0,1.2-0.1,1.8-0.1c1.7-0.2,3.4,0.6,4.3,2c0.4,0.6,0.6,1.2,0.7,1.9c0,0,0,0.1,0,0.1c0,0.6,0.3,1.2,0.9,1.4
	c0.6,0.3,1,0.9,1.1,1.6c0.1,0.6,0.1,1.2,0,1.8c-0.2,0.9-0.7,1.6-1.6,1.9c-1.3,0.6-2.8,0.6-4.1-0.1c-0.2-0.1-0.4-0.2-0.6-0.4
	c-0.1-0.1-0.3-0.1-0.4,0c-0.1,0.1-0.3,0.2-0.4,0.3c-0.7,0.5-1.7,0.7-2.5,0.4c-0.8-0.3-1.7-0.3-2.4,0c-1,0.3-2,0.3-2.9,0.1
	c-0.2,0-0.5-0.2-0.7-0.1s-0.2,0.4-0.3,0.6c-0.7,1.4-1.8,2.5-3.3,3.1c-0.4,0.2-0.9,0.3-1.3,0.3c-1.4,0.1-2.7-0.9-2.8-2.3
	c0,0,0-0.1,0-0.1c-0.1-0.6,0-1.2,0.2-1.7c0.1-0.2,0.1-0.3-0.2-0.4s-0.4-0.2-0.6-0.2c-0.4-0.1-0.8-0.1-1.1,0.2
	c-1.9,1.2-4.3,1.2-6.1-0.1c-0.4-0.3-0.8-0.6-1.3-1c-0.4,0.9-1.2,1.6-2.1,1.8c-1,0.1-2-0.1-2.8-0.6c-0.2,0.3-0.3,0.6-0.4,0.9
	c-0.6,1.5-2,2.6-3.6,2.9c-1.1,0.2-2.2-0.2-2.8-1.1c-0.4-0.7-0.6-1.5-0.5-2.3c0.1-0.6,0.3-1.1,0.8-1.4c0.1-0.1,0.2-0.2,0.4-0.3
	c0.4-0.2,0.5-0.6,0.5-0.9c0-0.6,0-1.1,0-1.7c0-0.2-0.1-0.4-0.3-0.4c-0.1,0-0.3-0.1-0.4-0.1c-1.1-0.3-1.8-1.3-1.9-2.4
	c-0.1-0.9,0.2-1.8,0.8-2.5c0.4-0.4,0.8-0.6,1.3-0.7c0.4-0.1,0.4-0.1,0.5-0.5C136.2,58.9,136.4,58.2,136.5,57.5z"/>
<path class="st7" d="M223.5,55.8l0.3,0.3l0.2,0.3c0.4,0.5,0.7,1.1,0.6,1.8c0,0.5,0,1,0,1.4c0,0.2,0,0.4,0.3,0.5
	c0.2,0.1,0.4,0.2,0.5,0.3c0.7,0.4,1.2,1.1,1.2,1.9c0,0.4,0,0.9,0,1.3c0,0.3-0.1,0.6-0.3,0.9c-0.1,0.2-0.3,0.4-0.4,0.6
	c-0.1,0.1-0.1,0.3,0,0.4c0.1,0.2,0.2,0.4,0.3,0.6c0.5,0.9,0.6,2,0.2,2.9c-0.2,0.6-0.6,1.1-1.2,1.4c-1.5,0.8-3.3,0.8-4.8-0.2
	c-0.9-0.7-1.5-1.8-1.6-2.9c0-0.3,0-0.6,0-0.9s0-0.3-0.4-0.2h-0.1c-0.4,0.1-0.7,0.4-0.6,0.8c0,0.4,0,0.9,0,1.3c0,1.4-1.2,2.5-2.6,2.5
	c0,0-0.1,0-0.1,0c-0.5,0-1-0.1-1.5-0.1c-0.2,0-0.5,0-0.7,0.1c-0.7,0.2-1.4,0.2-2.1,0.1c-0.5-0.1-1.1-0.1-1.6,0
	c-0.9,0.1-1.8,0.1-2.7-0.2c-0.7-0.2-0.6-0.3-0.9,0.4c-0.4,1.1-1.2,1.9-2.2,2.5c-0.5,0.3-1,0.5-1.6,0.6c-1.3,0.2-2.5-0.6-2.9-1.8
	c-0.1-0.4-0.2-0.8-0.3-1.3c0-0.2-0.1-0.4-0.3-0.5c-0.5-0.3-1-0.6-1.4-0.9c-0.1-0.1-0.2-0.1-0.3,0l-0.4,0.3c-1.5,1-3.3,1.3-5,0.7
	l-0.5-0.2c-0.4-0.1-0.3-0.2-0.5,0.2c-0.5,1.3-1.5,2.4-2.7,3c-0.7,0.4-1.4,0.5-2.2,0.3c-1-0.2-1.7-1-1.9-2c-0.1-0.4-0.1-0.8-0.2-1.2
	c0-0.2-0.1-0.4-0.3-0.6c-0.2-0.1-0.3-0.3-0.5-0.5c-0.9-0.7-1.5-1.8-1.6-2.9c-0.2-1.5-0.2-2.9,0-4.4c0.1-1.5,1.4-2.6,2.9-2.5
	c0.2,0,0.5,0.1,0.7,0.2c0.3,0.1,0.6,0.2,1,0.3c0.2,0.1,0.4,0.1,0.6,0c0.1-0.1,0.3-0.1,0.4-0.2c1-0.5,2.1-0.4,3,0.2
	c0.4,0.2,0.8,0.2,1.2,0c1.2-0.6,2.6-0.7,3.9-0.4c0.7,0.2,1.4,0.5,2,1c0.2,0.2,0.6,0.2,0.8,0c0.4-0.3,0.8-0.5,1.2-0.7
	c0.7-0.3,1.5-0.5,2.3-0.4c0.8,0.1,1.7,0.2,2.5,0.1c0.4,0,0.7,0,1.1,0.1c0.4,0.1,0.7,0.1,1.1,0c0.9-0.3,1.8-0.1,2.5,0.3
	c0.2,0.1,0.5,0.1,0.7,0c0.4-0.2,0.8-0.3,1.2-0.3c0.1,0,0.1-0.2,0.3-0.2c0.8,0,1.5,0.2,2.2,0.7c0.2,0.2,0.5,0.2,0.7,0
	c0.6-0.4,1.2-0.6,1.9-0.6c0.8-0.1,1.7-0.1,2.5-0.1c0.3,0,0.7,0.1,1,0.2s0.3,0,0.4-0.3c0.1-0.8,0.1-1.7,0.1-2.5
	c0-0.4,0.3-0.6,0.5-0.9c1-1,2.5-1.2,3.9-0.7C223.5,55.7,223.5,55.8,223.5,55.8z"/>
<path class="st0" d="M219.5,56.6l-0.5,0.8c-1.2-0.1-2.4-0.5-3.4-1.1c-0.2-0.1-0.5-0.3-0.7-0.5c-0.7-0.5-1.1-1.3-1.1-2.2
	c-0.1-1-0.1-2,0-2.9c0.1-0.5,0.3-1,0.6-1.4c0.7-1,2-1.6,3.3-1.3l0.8,0.1c0.1,0,0.1,0,0.1-0.1c-0.6-0.7-1.2-1.4-1.7-2.1
	c-1-1.3-1.5-3-1.4-4.6c0-0.3,0-0.6,0-0.9c-0.1-0.1-0.2,0-0.3,0c-1.2,0.5-2.5,0.7-3.8,0.6c-0.6,0-1.3,0-1.9-0.1
	c-0.2-0.1-0.5,0.1-0.5,0.3c0,0,0,0,0,0c0,0.1,0,0.1-0.1,0.2c-0.2,0.9-0.7,1.6-1.4,2.2l-3.4,3.4l-0.6,0.7h1.1c0.8,0,1.6,0.3,2.3,0.9
	c0.7,0.6,1.1,1.4,1.1,2.3c0,0.6,0,1.3,0,1.9c0,1.3-0.7,2.4-1.8,3c-1.2,0.7-2.5,1.1-3.8,1.2c-0.9,0.1-1.8,0.2-2.7,0.2
	c-1.3,0-2.5-0.2-3.7-0.6l-0.7-0.3c-0.4-0.2-0.8-0.2-1.2,0c-1.3,0.6-2.7,0.9-4.1,0.8c-1.5,0-3.1,0-4.6,0c-0.9,0-1.8-0.2-2.7-0.5
	c-0.4-0.2-0.9-0.2-1.4,0c-1.1,0.4-2.3,0.5-3.4,0.5c-1.7,0-3.4,0.1-5.1,0c-3-0.2-5.7-2.2-6.6-5.1c-0.2-0.8-0.3-1.5-0.4-2.3
	c-0.1-1.6,0-3.2-0.1-4.8c0-0.4,0-0.7,0-1.1c0-0.2,0-0.5-0.1-0.7c-0.1-0.2-0.3-0.4-0.6-0.5c-0.8-0.2-1.6,0.1-1.9,0.9
	c-0.3,0.5-0.4,1-0.4,1.6c0,1.4,0,2.7,0,4.1s0,2.7,0,4c0,0.5-0.1,1-0.2,1.4c-0.4,1.3-1.6,2.1-2.9,2.2c-1,0.1-1.9,0-2.9-0.1
	c-0.4-0.1-0.8,0-1.2,0.1c-1.1,0.4-2.3,0.6-3.5,0.5c-2.3,0-4.5,0-6.8,0c-0.1-0.3-0.1-0.6-0.1-0.9c0.2-0.2,0.4-0.1,0.6-0.1
	c1.9,0,3.8,0,5.7,0c0.7,0,1.4-0.1,2.2-0.1c0.7-0.1,1.3-0.3,1.9-0.6c0.4-0.2,0.8-0.2,1.1,0c0.9,0.3,1.9,0.4,2.8,0.3
	c1.3-0.1,2.2-1.2,2.1-2.5c0-2.7,0-5.4,0-8.1c0-1.1,0.4-2.2,1.1-3c1-1,2.7-1,3.7,0.1c0,0,0.1,0.1,0.1,0.1c0.3,0.5,0.4,1.1,0.4,1.7
	c0,1.9-0.1,3.8,0,5.7c0,2.2,1.1,4.3,3,5.6c0.9,0.6,1.9,0.9,2.9,0.9c2,0,4.1,0,6.1,0c0.7,0,1.4-0.2,2.1-0.4c0.7-0.3,1.5-0.3,2.2,0.1
	c0.6,0.3,1.3,0.4,2,0.4c1.1,0.1,2.1,0.1,3.2,0.1l3.1-0.1c0.7-0.1,1.4-0.3,2.1-0.6c0.7-0.4,1.5-0.4,2.2,0c1.4,0.6,3,0.8,4.6,0.7
	c1.2-0.1,2.5-0.2,3.7-0.6c0.3-0.1,0.6-0.2,0.8-0.3c1.8-0.8,2.3-1.7,2.2-3.8c0-0.2,0-0.4-0.1-0.6c-0.1-1.1-1-2-2.1-2
	c-0.6,0-1.1,0.1-1.6,0.4c-0.7,0.4-1.5,0.7-2.3,0.8c-0.3,0-0.6,0.1-0.8-0.1s0.1-0.5,0.3-0.7c0.1-0.2,0.3-0.4,0.5-0.5c2-2,4-4,6-5.9
	c0.6-0.5,1-1.3,0.9-2.1c0-0.2,0-0.5,0-0.7c0-0.6,0.1-0.7,0.6-0.5c0.7,0.2,1.5,0.4,2.2,0.5c1.7,0.2,3.4-0.1,4.9-0.9
	c0.3-0.1,0.5-0.3,0.8-0.4c0.4-0.2,0.6-0.1,0.6,0.4s-0.1,0.8-0.2,1.3c-0.3,2.1,0.3,4.2,1.7,5.8c0.7,0.9,1.5,1.6,2.1,2.5
	c0.2,0.3,0.4,0.6,0.4,0.9c0,0.4-0.2,0.6-0.6,0.6c-0.6,0.1-1.2-0.1-1.7-0.6c-0.6-0.5-1.3-0.6-2-0.5c-0.9,0.1-1.6,0.8-1.7,1.6
	c-0.2,0.9-0.2,1.9,0,2.9c0.3,0.9,1,1.7,1.9,2c0.7,0.3,1.4,0.5,2.1,0.6C219.2,56.4,219.4,56.4,219.5,56.6z"/>
<path class="st0" d="M186.6,27.4c0,0.3,0,0.6,0,0.8c0,0.7-0.3,1.3-0.7,1.9c-0.3,0.4-0.6,0.7-1,1c-0.7,0.6-1.6,1-2.5,1
	c-0.7,0-1.3,0-2-0.2c-0.9-0.3-1.7-0.8-2.2-1.5c-1.7-2-1.4-5,0.7-6.7c0.6-0.5,1.3-0.8,2-1c0.9-0.2,1.9-0.1,2.8,0.2
	c0.6,0.2,1.1,0.5,1.5,1c0.3,0.3,0.6,0.7,0.9,1.1c0.4,0.6,0.6,1.3,0.6,1.9C186.6,27.1,186.6,27.3,186.6,27.4L186.6,27.4z"/>
<path class="st8" d="M229.3,38.9c0,0,0,0.1,0,0.1c0.1,0.3,0,0.7-0.3,0.9c-0.3,0.3-0.7,0.5-1.1,0.6c-0.9,0.2-1.7-0.4-1.8-1.3
	c-0.2-0.9,0.4-1.7,1.3-1.8c0.3-0.1,0.7,0,1,0.1l0.2,0.1C229.2,38,229.3,38.1,229.3,38.9z"/>
<path class="st9" d="M218.7,48.1c0.1,0,0.2,0.1,0.1,0.1s-0.2,0-0.2,0L218.7,48.1z"/>
<path class="st10" d="M42.7,40.6c0.7-0.4,1.3-0.8,1.8-1.3c0.5-0.4,0.5-0.4,0.8,0.2c1,1.9,2.3,3.7,3.8,5.2c1,1.1,1.5,2.5,1.3,4
	c-0.1,0.5-0.3,1-0.6,1.4c-0.3,0.4-0.7,0.8-1.1,1.2l-0.1,0.1l0,0c-0.2,0.3-0.6,0.5-0.9,0.7c-1.4,0.7-2.9,1.2-4.4,1.5
	c-2.2,0.4-4.3,0.7-6.5,0.9c-2.6,0.3-5.3,0.1-7.9,0.2c-3.3,0-6.6,0.7-9.7,2.1c-4.3,2-7.6,5.5-9.4,9.9c-0.2,0.6-0.5,1.2-0.7,1.8
	c-0.1,0.3-0.4,0.5-0.7,0.4c0,0-0.1,0-0.1,0c-0.2-0.1-0.5-0.1-0.7-0.1c-1.3-0.2-2.1-1.4-1.9-2.7c0.2-3.4,1.4-6.6,3.5-9.2
	c1.8-2.2,3.9-4,6.3-5.5c1.8-1.2,3.8-2.3,5.7-3.2c2.2-1,4.4-1.9,6.6-2.7c3.2-1.1,6.6-2.1,9.9-2.8C39.5,41.9,41.1,41.4,42.7,40.6z"/>
<path class="st11" d="M42.7,40.6c-0.4,0.3-0.8,0.5-1.3,0.7c-1.5,0.6-3.1,1.1-4.7,1.5c-4.3,1-8.4,2.3-12.5,4c-2.5,1-4.9,2.2-7.1,3.6
	c-1.5,0.9-3,1.9-4.4,3c-1.9,1.5-3.6,3.3-4.8,5.4c-1,1.8-1.7,3.7-2,5.8c-0.1,0.7-0.1,1.5,0,2.2c0.1,0.6,0.5,1.1,1,1.4
	c0.5,0.3,1.1,0.4,1.6,0.5c0.2,0,0.3-0.1,0.4-0.3l0.8-1.9c1.1-2.8,2.9-5.4,5.2-7.3c2.4-2,5.2-3.4,8.2-4.1c1.5-0.4,3.1-0.6,4.6-0.7
	c1.8-0.1,3.7,0,5.5-0.1c1.4,0,2.8-0.1,4.2-0.3c1-0.1,2.1-0.2,3.1-0.3c1.4-0.2,2.8-0.5,4.1-0.9c0.9-0.3,1.8-0.6,2.7-1
	c0.4-0.2,0.8-0.5,1.2-0.7c0,0.2,0,0.4-0.1,0.6c-0.2,0.6-0.2,1.2-0.1,1.8c0.2,1.4,0.6,2.8,1.2,4.1c0.7,1.6,0.9,3.4,0.8,5.1
	c-0.1,1-0.4,1.9-0.9,2.8c-0.2,0.3-0.5,0.5-0.8,0.7c-0.7,0.4-1.4,0.8-2.1,1l-0.9,0.3c-0.1,0-0.1,0-0.2-0.1c-1.5-1.1-3.2-1.9-5-2.5
	c-2.9-1-5.9-1.6-8.9-1.8c-3.4-0.3-6.8-0.1-10,0.6c-2.7,0.6-5.2,1.8-7.3,3.6c-0.8,0.8-1.6,1.7-2.2,2.7c-0.1,0.1-0.2,0.3-0.4,0.4
	c-0.5,0.2-1.1,0.2-1.6,0C9.4,70.3,9,69.8,9,69.2c0-0.4-0.1-0.4-0.5-0.5c-0.4,0-0.8-0.1-1.3-0.3c-1-0.3-1.7-1.2-1.7-2.2
	c0-0.6,0-1.1,0.1-1.7c0.2-1.1,0.4-2.3,0.8-3.3c0.7-1.9,1.8-3.7,3.1-5.2c1.3-1.4,2.7-2.7,4.3-3.9c2.6-1.9,5.4-3.5,8.3-4.8
	c2.3-1,4.6-1.9,7-2.7c2.6-0.9,5.2-1.5,7.9-2.2c1.7-0.4,3.4-0.9,5-1.7C42.3,40.7,42.5,40.6,42.7,40.6z"/>
<path class="st11" d="M12.6,40.1c-0.3-0.1-0.7-0.3-1-0.5c-0.4-0.3-0.6-0.7-0.7-1.1c-0.1-0.4-0.2-0.9-0.3-1.3
	c-0.2-0.6-0.2-1.2-0.2-1.8c0-1.4-0.2-2.9-0.6-4.3c-0.2-0.5-0.2-1-0.1-1.5c0-0.3,0.1-0.7,0.1-1c0.1-0.4,0.3-0.8,0.5-1.2
	c0.1-0.1,0.2-0.3,0.2-0.4c0.2-0.7,0.6-1.3,1.2-1.7c0.1,0,0.1-0.1,0.2-0.2c0.5-0.7,1.1-1.3,1.8-1.7c0.6-0.5,1.3-1,1.8-1.5
	c0.7-0.6,1.5-1.1,2.2-1.7c0.3-0.3,0.7-0.6,1-0.8c1.2-0.8,2.4-1.5,3.6-2.1c0.6-0.3,0.7-0.6,0.3-1.2c-0.3-0.5-0.6-1-0.9-1.5
	c-0.6-0.9-1-1.9-1.1-3c-0.1-0.5-0.2-1-0.2-1.4c0-1.6,0.5-3.2,1.4-4.5c0.8-1.2,2-2.2,3.3-2.8c0.8-0.3,1.6-0.6,2.4-0.8
	c0.6,0,1.3,0,1.9,0.1c3,0.4,5.5,2.5,6.5,5.4c0.5,1.5,0.6,3.1,0.3,4.6c-0.3,2.3-1,4.5-2.3,6.4c-1.3,1.8-3,3.3-4.9,4.4
	c-2.2,1.2-4.5,2.3-6.6,3.6c-1.9,1.1-3.7,2.5-5.4,4c-1.4,1.2-2.5,2.6-3.4,4.2c-0.8,1.5-1.1,3.2-1,4.9C12.6,39.8,12.7,40,12.6,40.1z"
	/>
<path class="st10" d="M12.6,40.1c-0.2-1.6,0-3.3,0.7-4.8c0.8-1.8,2-3.4,3.5-4.7c0.9-0.9,1.9-1.7,2.9-2.5c1.4-1,2.8-1.9,4.2-2.7
	c1.6-0.9,3.2-1.7,4.8-2.6c1.3-0.7,2.4-1.5,3.4-2.5c1-1,1.9-2.1,2.5-3.4c0.6-1.4,1.1-2.8,1.3-4.3c0.1-0.9,0.2-1.7,0.2-2.6
	c0-1.5-0.4-3.1-1.3-4.3c-1.1-1.8-2.9-3-5-3.5c-0.7-0.2-1.3-0.2-2-0.2c-0.2,0-0.3,0-0.5-0.1c1.4-0.2,2.9-0.1,4.3,0.4
	c1.5,0.4,2.9,1.1,4.2,2c2.5,1.7,4.2,4.2,4.8,7.1c0.5,2.2,0.5,4.5,0.1,6.7c-0.1,0.4-0.1,0.8-0.2,1.2c-0.3,1.5-0.8,2.9-1.4,4.3
	c-0.3,0.8-0.7,1.6-1,2.4c-0.3,0.6-0.7,1.2-1.1,1.7c-2.9,2.8-6.2,5.2-9.9,6.8c-1,0.4-2,0.8-3,1.1c-1.3,0.3-2.5,0.8-3.7,1.3
	c-0.8,0.3-1.6,0.6-2.4,1c-1.6,0.8-3.2,1.7-4.7,2.6C12.8,40.7,12.8,40.7,12.6,40.1z"/>
<path class="st10" d="M11.5,70.6c0.5-0.9,1.1-1.8,1.8-2.6c1.2-1.3,2.6-2.3,4.1-2.9c1.8-0.8,3.7-1.4,5.7-1.7c1.4-0.2,2.8-0.4,4.3-0.4
	c1.2,0,2.3,0,3.5,0c1.2,0.1,2.4,0.2,3.5,0.5c1.5,0.2,3,0.6,4.4,1c2,0.6,3.9,1.4,5.7,2.4c0.4,0.2,0.7,0.4,1,0.8
	c-2,2.6-4.5,4.7-7.3,6.3c-1,0.6-2.2,1.1-3.3,1.5c-2.1,0.7-4.3,1.1-6.5,1.2c-2.9,0.2-5.9-0.2-8.7-1.2c-1.5-0.5-2.9-1.2-4.3-2
	C14.1,72.5,12.8,71.6,11.5,70.6z"/>
<path class="st11" d="M48.5,51.2C48.5,51.2,48.6,51.1,48.5,51.2L48.5,51.2C48.6,51.2,48.6,51.2,48.5,51.2z"/>
<path class="st10" d="M219.5,56.6c-0.9-0.2-1.8-0.4-2.6-0.8c-0.3-0.1-0.5-0.3-0.8-0.4c-0.9-0.5-1.4-1.5-1.4-2.5c0-0.6,0-1.2,0.1-1.8
	c0.2-1.2,1.2-2,2.4-2c0.6,0,1.1,0.1,1.6,0.5c0.1,0.1,0.3,0.2,0.5,0.4c0.4,0.2,0.9,0.3,1.4,0.3c0.1,0,0.1-0.1,0.2-0.2
	c0.1-0.3,0.1-0.7-0.2-1c-0.5-0.7-1.1-1.4-1.7-2c-0.8-0.9-1.5-1.9-1.9-2.9c-0.5-1.1-0.6-2.3-0.4-3.5c0.1-0.6,0.2-1.2,0.2-1.8
	c-0.1-0.1-0.3,0-0.4,0.1l-1.2,0.6c-1.4,0.7-3,0.9-4.5,0.8c-0.9-0.1-1.8-0.3-2.7-0.7c-0.1,0.1-0.1,0.2-0.1,0.4c0,0.4,0,0.9,0,1.3
	c0,0.5-0.2,1.1-0.6,1.4c-1.2,1.2-2.4,2.4-3.6,3.6l-3,3c-0.3,0.3-0.5,0.6-0.6,0.9c0.6,0.1,1.2,0,1.8-0.2c0.5-0.2,0.9-0.4,1.3-0.6
	c0.5-0.2,1-0.3,1.6-0.3c1.2,0.1,2.2,1,2.2,2.2c0.1,0.7,0.1,1.3,0,2c-0.1,0.8-0.5,1.5-1.1,1.9c-0.9,0.6-1.9,1-3,1.2
	c-1,0.2-2,0.3-3.1,0.3c-1.4,0-2.8-0.2-4.1-0.7c-1.5-0.6-1.1-0.5-2.3,0c-1,0.4-2.1,0.7-3.1,0.6c-1,0-2.1,0-3.1,0s-1.8,0-2.7-0.1
	c-0.3,0-0.6-0.1-0.8-0.2c-0.2-0.1-0.4-0.1-0.6-0.2c-0.7-0.3-1.5-0.4-2.2-0.1c-0.7,0.3-1.4,0.4-2.1,0.4c-2,0-4,0.1-5.9,0
	c-2.4,0-4.5-1.4-5.4-3.6c-0.5-1-0.7-2-0.7-3.1c0-1.8,0-3.5,0-5.3c0-0.4,0-0.8-0.1-1.2c0-0.5-0.3-0.9-0.7-1.1
	c-0.7-0.5-1.6-0.6-2.4-0.3c-0.3,0.1-0.5,0.3-0.7,0.5c-0.7,0.8-1.1,1.8-1.1,2.8c0,1,0,2,0,2.9c0,1.7-0.1,3.5,0,5.2
	c0,1.4-1,2.5-2.4,2.6c-1,0.1-2.1,0-3-0.4c-0.2-0.1-0.4-0.1-0.5,0l-0.3,0.1c-1,0.5-2.2,0.8-3.3,0.7c-2.2,0-4.4,0-6.6,0H145
	c-0.1-0.1-0.1-0.1-0.2-0.2c-0.7-1-1.9-1.7-3.2-1.7c-0.5-0.1-1.1-0.1-1.6,0c-0.8,0.1-1.6,0.5-2.3,1l-0.8,0.7
	c-1.4,0.1-2.9,0.1-4.3,0.1c-1.2,0-2.3,0-3.5,0c-1.1,0-2.2-0.4-3.1-1c-1.7-1-2.8-2.8-3-4.8c-0.1-0.7-0.1-1.4-0.1-2.1c0-1.5,0-3,0-4.5
	c0-0.5-0.1-1.1-0.4-1.5c-0.3-0.5-0.8-0.8-1.4-0.8h-0.3c-0.9-0.1-1.8,0.3-2.2,1.1c-0.4,0.6-0.6,1.3-0.6,2.1c0,2.5,0,5,0,7.5
	c0,0.7-0.2,1.4-0.5,2c-0.3,0.7-0.9,1.3-1.7,1.6c-0.7,0.3-1.4,0.4-2.1,0.4h-5.3c-2.2,0-4.4,0-6.7,0c-1.7,0.1-3.4-0.3-5-0.9
	c-0.5-0.2-1-0.2-1.5,0.1c-0.2,0.1-0.5,0.2-0.8,0.3c-0.8,0.3-1.6,0.5-2.4,0.5c-1.8,0-3.6,0-5.4,0c-3.1,0-5.7-2.2-6.3-5.2
	c-0.1-0.5-0.2-1-0.2-1.6c0-1.8,0-3.7,0-5.5c0-0.5-0.1-1-0.3-1.4c-0.2-0.5-0.6-0.8-1.1-0.9c-0.3-0.1-0.7-0.1-1-0.1
	c-0.6,0-1.1,0.2-1.5,0.6c-0.7,0.7-1.2,1.6-1.2,2.6c0,2.8,0,5.6,0,8.4c0,1.4-1,2.5-2.4,2.7c-0.7,0.1-1.5,0-2.2-0.1
	c-0.2,0-0.4-0.1-0.6-0.2c-0.8-0.5-1.2-1.3-1.2-2.2c0-2.3,0-4.6,0-7c0-0.8,0-1.6,0-2.4c0-0.5-0.1-0.9-0.3-1.4
	c-0.1-0.3-0.3-0.6-0.6-0.7c-0.4-0.2-0.7-0.3-1.1-0.3c-0.9-0.1-1.7,0.4-2.2,1.1c-0.5,0.8-0.8,1.7-0.7,2.6c0,2.6,0,5.3,0,7.9
	c0,1.2-0.8,2.2-1.9,2.6c-0.2,0-0.4,0.1-0.5,0.1c-0.5,0-1,0-1.6,0c-0.9,0-1.6-0.5-2-1.3c-0.2-0.5-0.4-1-0.3-1.5c0-4.2,0-8.5,0-12.7
	c0-0.7,0-1.3,0-2c-0.1-1.4,0.9-2.6,2.3-2.7c0.1,0,0.2,0,0.2,0c0.7-0.1,1.4,0,2.1,0.2c0.6,0.2,1.2,0.1,1.7-0.1c1-0.4,2.1-0.5,3.2-0.5
	c1.4,0,2.7,0.4,3.9,1.1c0.4,0.2,0.7,0.4,1.1,0.7c0.4,0.3,0.9,0.2,1.2-0.1c0.3-0.3,0.7-0.5,1.1-0.8c1.3-0.7,2.9-1,4.4-0.9
	c4,0.2,7.2,3.2,7.8,7.1c0.1,0.9,0.2,1.9,0.2,2.8c0,1.4,0,2.8,0,4.2c0,0.1,0,0.2,0,0.3s0.1,0.2,0.2,0.2c1.4,0,2.8,0,4.1,0l0,0
	c0-0.4-0.1-0.8-0.2-1.1c-0.4-1.4-0.5-2.8-0.3-4.3c0.2-2,1.1-3.9,2.3-5.4c1-1.2,2.2-2.2,3.6-2.9c2.7-1.3,5.8-1.3,8.6,0
	c1.3,0.7,2.6,1.5,3.6,2.6c0.7,0.6,1,1.6,0.8,2.6c-0.1,0.3-0.2,0.7-0.5,0.9c-1.5,1.6-3.1,3.1-4.6,4.6l-2.2,2.1
	c-0.3,0.2-0.5,0.5-0.6,0.8c0.1,0.1,0.2,0.1,0.3,0.1c2.3,0.1,4.5,0.1,6.8,0.1h2.6c0.4,0,0.4,0,0.4-0.4c0.1-3.2,0-6.4,0-9.5
	c0-0.7,0-1.3,0-2c0-1,0.7-1.9,1.7-2.2c0.9-0.3,1.8-0.3,2.7,0c0.8,0.2,1.6,0.1,2.3-0.2c0.9-0.3,1.8-0.4,2.7-0.3
	c4.2,0,7.7,3.1,8.2,7.3c0.1,1,0.1,2.1,0.1,3.1c0,1.3,0,2.6,0,3.8c0,0.4,0,0.4,0.4,0.5c1,0.1,2,0.1,3,0c0.4,0,0.4,0,0.4-0.5
	c0-1.2,0-2.4,0-3.6c0-2.2,0.7-4.3,1.9-6c0.9-1.4,2.2-2.5,3.7-3.2c1.2-0.7,2.5-1.1,3.8-1.2c1.1-0.1,2.3,0,3.4,0.2
	c1.1,0.2,2.2,0.6,3.1,1.1c0.7,0.5,1.4,1.1,1.9,1.8c0.6,0.8,0.9,1.8,0.8,2.8c0,1.2-0.5,2.3-1.4,3.1c-1.5,1.4-3.9,1.5-5.5,0.1
	c-0.4-0.4-0.8-0.9-1-1.4c-0.2-0.4-0.4-0.8-0.6-1.2c-0.1-0.2-0.2-0.3-0.4-0.2c0,0,0,0,0,0c-1.9,0.4-3.2,2-3.3,3.9
	c0,0.7,0.1,1.3,0.4,1.9c0.6,1.2,1.7,2,3,2.4c0.4,0.1,0.8,0.1,1.2,0.1h6.2c0.4,0,0.9,0,1.3,0c0.3,0,0.6-0.2,0.7-0.5
	c0.2-0.6,0.5-1.2,0.7-1.8c0.6-1.4,1.1-2.8,1.7-4.2c0.3-0.6,0.4-1.3,0.4-1.9c0-5.1,0-10.2,0-15.3c0-1.2,0-2.5,0-3.7
	c0-1.2,0.4-2.3,1.1-3.2c0.9-1.3,2.3-2.1,3.9-2.3c0.7-0.1,1.5,0,2.2,0.1c1.5,0.3,2.8,1.3,3.6,2.6c0.4,0.6,0.6,1.4,0.6,2.1
	c0,0.8,0,1.7-0.1,2.5c-0.5,2.9-1.1,5.7-1.9,8.5c-0.2,0.6-0.3,1.3-0.5,1.9c-0.1,0.5-0.1,0.5,0.4,0.5c1,0.1,1.9,0.2,2.9,0.5
	c1.9,0.5,3.5,1.8,4.4,3.5c0.9,1.4,1.3,3.1,1.3,4.7c0,1.8,0,3.5,0,5.3c0,0.1,0,0.2,0,0.3s0.1,0.3,0.3,0.3s0.4,0,0.6,0
	c1.3,0,2.6,0,4,0c0.9,0,0.9,0,0.9-0.9c0-3.4,0-6.8,0-10.2c0-0.5,0-1,0.2-1.5c0.3-1,1.2-1.7,2.2-1.7c0.7,0,1.4,0,2.1,0.1
	c0.9,0.2,1.6,0.9,1.8,1.8c0.1,0.5,0.1,0.9,0.1,1.4c0,3.3,0,6.6,0,9.9c0,0.2,0,0.5,0,0.7s0.1,0.3,0.3,0.3s0.5,0,0.7,0h2.9
	c0.6,0,0.5,0,0.4-0.6s-0.2-1.3-0.4-1.9c-0.5-2.2-0.1-4.6,1-6.6c0.9-1.7,2.2-3.2,3.9-4.1c1.3-0.8,2.8-1.3,4.3-1.4
	c1.7-0.2,3.3,0.1,4.8,0.8c0.6,0.3,1.1,0.5,1.7,0.8c0.2,0.1,0.4,0.2,0.6,0.2c0-0.3-0.1-0.6-0.2-0.9c-0.3-0.9-0.3-2,0-2.9
	c0.2-0.6,0.1-1.3-0.1-1.9c-0.1-0.3-0.2-0.7-0.2-1.1c-0.1-0.7,0.1-1.4,0.6-2c0.6-0.8,1.2-1.6,1.9-2.4c0.4-0.4,0.7-1,0.6-1.7
	c0-0.3,0-0.6,0-0.9c0-1,0.5-2,1.4-2.5c1.7-1.3,4.2-0.9,5.5,0.9c0.5,0.6,0.7,1.4,0.8,2.1c0.1,0.7,0.1,1.4,0,2.2
	c-0.1,0.6,0.1,1.2,0.5,1.6c0.5,0.5,0.9,1.1,1.3,1.8c0.9,1.5,1.2,3.2,1,4.9c-0.1,0.6-0.1,1.2-0.1,1.8c0.2,0,0.4-0.1,0.6-0.3
	c0.3-0.2,0.6-0.4,0.9-0.5c0.6-0.3,1.2-0.4,1.8-0.3c0.5,0.1,1,0.4,1.3,0.8c0.5,0.6,0.9,1.4,1.1,2.1c0.3,0.9,0.1,1.8-0.6,2.5
	c-0.2,0.2-0.4,0.4-0.6,0.5c-0.1,0.1-0.2,0.2-0.2,0.3c0,0,0,0,0,0.1c0.2,0.5,0.5,0.9,0.8,1.3c0.5,0.5,0.9,1.1,1.4,1.6
	c1,1.1,1.7,2.4,1.9,3.9c0.4,3.1-0.5,5.5-3.2,7.4l-0.4,0.3c-0.5-0.1-0.9-0.2-1.4-0.2C221.1,55.6,220.2,55.9,219.5,56.6z"/>
<path class="st10" d="M103.9,49.1c0.1-0.2,0.2-0.3,0.3-0.4c1.7-1.6,3.3-3.3,5-4.9c0.6-0.5,1-1.2,1.3-1.9c0,0,0.1-0.1,0.1-0.1
	c0.1,0.1,0,0.2,0,0.2c0.1,2.3,0.1,4.6,0,6.9c0,0.3,0,0.3-0.3,0.3h-3c-1,0-2,0.1-2.9,0C104.1,49.2,104,49.2,103.9,49.1z"/>
<path class="st10" d="M142.9,58.8l-0.7-0.4c-0.3-0.2-0.8-0.3-1.2-0.3c-0.7,0-1.3,0.5-1.3,1.2c-0.1,0.9-0.1,1.9-0.1,2.8
	c0,0.2,0.1,0.3,0.3,0.3h1.8c0.4,0,0.4,0,0.4,0.3c0.1,0.8,0.1,0.8-0.7,0.8c-0.5,0-0.9,0-1.4,0s-0.5,0-0.5,0.5c0,1.6,0,3.3,0,4.9
	c0,0.8-0.3,1.6-0.9,2.2c-0.4,0.4-0.9,0.6-1.4,0.7c-0.2,0-0.3,0-0.3-0.2c0,0,0-0.1,0-0.1c-0.1-0.2-0.1-0.4-0.1-0.6
	c0-0.2,0.3-0.2,0.5-0.3c0.7-0.3,1.1-1,1.1-1.8c0-1.6,0.1-3.2,0-4.8c0-0.4,0-0.4-0.5-0.5s-1.2,0-1.8,0c-0.2,0-0.3,0-0.3-0.3
	c0-1-0.1-0.8,0.8-0.8c0.4,0,0.9,0,1.3,0s0.4,0,0.4-0.4s0-1.1,0-1.7c0-0.4,0-0.8,0.1-1.2c0.2-1.1,1.2-2,2.3-2c0.6,0,1.2,0.1,1.8,0.3
	c0.2,0.1,0.3,0.2,0.3,0.4C142.9,58,142.9,58.3,142.9,58.8z"/>
<path class="st10" d="M158.9,65.9c1.7,0.3,2.9,1.9,2.6,3.6c0,0.3-0.1,0.5-0.2,0.8c-0.5,1.1-1.5,1.8-2.6,2c-0.1,0.1-0.3,0-0.3-0.1
	c0,0,0,0,0,0c-0.1-0.3-0.1-0.5-0.1-0.8c0-0.1,0.1-0.1,0.2-0.2s0.4-0.1,0.6-0.2c1.1-0.4,1.6-1.6,1.2-2.7c-0.2-0.7-0.9-1.2-1.6-1.2
	c-0.5-0.1-1.1,0.1-1.5,0.4c-0.1,0.1-0.2,0.1-0.2,0.1c-0.2,0.1-0.3,0.3-0.5,0.2s-0.4-0.4-0.6-0.6c-0.1-0.1,0-0.1,0-0.2l0.2-0.2
	c0.8-0.8,1.6-1.6,2.4-2.4c0.3-0.3,0.6-0.6,0.7-1h-3c-0.4,0-0.4,0-0.4-0.4c-0.1-0.7,0-0.7,0.6-0.7h4.4c0.4,0,0.4,0,0.4,0.4
	c0,0.3-0.1,0.6-0.3,0.7l-2.1,2.1C158.6,65.8,158.7,65.9,158.9,65.9z"/>
<path class="st10" d="M154.3,65.4c0,1.8-1.5,3.2-3.2,3.2s-3.2-1.5-3.2-3.2c0-1.7,1.4-3.1,3.1-3.2C152.8,62.1,154.3,63.5,154.3,65.4
	C154.3,65.3,154.3,65.3,154.3,65.4z"/>
<path class="st10" d="M168.3,63.6c-0.5,0.6-1.1,1.1-1.6,1.6s-1.2,1.1-1.7,1.7c-0.3,0.3-0.2,0.5,0.2,0.5c0.6,0.1,1.2,0,1.8-0.2
	l0.8-0.4c0,0.4,0,0.8,0,1.1c0,0.1-0.1,0.2-0.2,0.3l-0.1,0.1c-1.5,0.7-3.2,0.4-4.3-0.8c-1.1-1.4-0.9-3.4,0.4-4.5
	c0.7-0.5,1.5-0.8,2.3-0.7c0.2,0,0.5,0.1,0.7,0.2C167.2,62.6,167.8,63,168.3,63.6z"/>
<path class="st10" d="M177.1,66.6c0,0.6,0,1,0,1.5c0,0.1-0.1,0.2-0.2,0.3c-0.4,0.2-0.9,0.3-1.3,0.2c-0.7-0.1-1.3-0.6-1.5-1.4
	c-0.1-0.3-0.1-0.7-0.1-1c0-0.6,0-1.1,0-1.7c0-0.5-0.3-1-0.7-1.2c-0.5-0.2-1.1-0.1-1.5,0.3c-0.4,0.3-0.6,0.8-0.6,1.3
	c0,0.9,0,1.9,0,2.8c0,0.1,0,0.3,0,0.4s-0.1,0.2-0.2,0.2h-0.1c-0.9,0-0.9,0-0.9-0.8c0-1.6,0-3.2,0-4.7c0-0.1,0-0.2,0-0.3
	s0.1-0.3,0.3-0.2h0.3c0.6,0.1,1.1,0,1.7-0.1c1.3-0.3,2.6,0.4,2.9,1.7c0,0.2,0.1,0.3,0.1,0.5c0,0.6,0,1.1,0,1.7c0,0.2,0,0.4,0,0.6
	c0,0.6,0.4,0.9,1.1,0.6c0.2-0.1,0.4-0.2,0.5-0.4L177.1,66.6z"/>
<path class="st10" d="M144.6,66.3c0,0.6,0,1.3-0.1,1.9c0,0.2-0.1,0.3-0.3,0.3c-0.8,0-0.8,0-0.8-0.8c0-1.6,0-3.3,0-4.9
	c0-0.4,0-0.4,0.4-0.4c0.2,0,0.3,0,0.5,0c0.4,0.1,0.7,0,1.1-0.1c0.4-0.1,0.7-0.1,1.1,0c0.5,0.1,0.8,0.6,0.6,1.1c0,0,0,0,0,0.1
	c-0.1,0.5-0.6,0.8-1.1,0.7c-0.1,0-0.1,0-0.1-0.1c-0.2-0.1-0.3-0.1-0.5-0.2c-0.2-0.1-0.3-0.1-0.4,0.1c-0.2,0.3-0.3,0.6-0.3,1
	C144.6,65.4,144.6,65.8,144.6,66.3z"/>
<path class="st12" d="M158.9,65.9c-0.2,0-0.3,0-0.3-0.2s0.1-0.2,0.3-0.2C158.8,65.7,158.8,65.8,158.9,65.9z"/>
<path class="st10" d="M202.7,68l-0.8,0.4c-1,0.5-2.2,0.3-3.1-0.4c-1-0.7-1.4-1.8-1.2-3c0.2-1.7,1.8-3,3.6-2.7
	c0.4,0.1,0.8,0.2,1.2,0.4c0.2,0.1,0.3,0.1,0.4,0s0.6-0.2,1-0.2c0.1,0,0.2,0.1,0.2,0.2s0,0.1,0,0.2c0,2,0,4,0,6.1c0,1-0.5,2-1.3,2.5
	c-0.1,0.1-0.3,0.2-0.4,0.2c-0.2,0.1-0.6,0.3-0.7,0.1s-0.1-0.5-0.2-0.8c0-0.1,0.1-0.2,0.1-0.2s0.4-0.3,0.7-0.4
	c0.4-0.3,0.7-0.8,0.7-1.3C202.7,68.7,202.7,68.3,202.7,68z"/>
<path class="st10" d="M188.3,65.8c0,1,0.1,2.1,0,3.1c-0.1,0.9-0.5,1.8-1.3,2.3c-0.3,0.2-0.7,0.4-1.1,0.4c-0.2,0-0.3,0-0.3-0.2
	c0,0,0-0.1,0-0.1c-0.2-0.7-0.2-0.7,0.5-1c0.5-0.2,0.9-0.7,1-1.3c0-0.2,0.1-0.5,0.1-0.7c0-0.2,0-0.3-0.3-0.2l-0.4,0.2
	c-1.2,0.5-2.7-0.1-3.2-1.3c-0.1-0.3-0.2-0.5-0.2-0.8c0-1.2,0-2.4,0-3.6c0-0.2,0.1-0.3,0.3-0.3c1,0,0.8-0.1,0.8,0.8s0,1.7,0,2.5
	c0,0.3,0,0.5,0.1,0.8c0.1,0.5,0.4,0.9,0.9,1c0.5,0.2,1.1,0,1.4-0.4c0.3-0.4,0.5-0.9,0.5-1.4c0-0.7,0-1.4,0-2.1c0-0.3,0-0.6,0-0.8
	s0-0.2,0.2-0.3c0.8-0.1,0.9,0,0.9,0.8S188.3,64.9,188.3,65.8z"/>
<path class="st10" d="M196.3,65.4c0,1.8-1.4,3.2-3.2,3.2c-1.8,0-3.2-1.4-3.2-3.2s1.4-3.2,3.2-3.2C194.9,62.2,196.3,63.6,196.3,65.4z
	"/>
<path class="st10" d="M213,66.7c0,0.5,0,0.9,0,1.4c0,0.1-0.1,0.2-0.2,0.3c-0.8,0.4-1.7,0.3-2.4-0.2c-0.3-0.3-0.3-0.3-0.6,0
	c-1.1,0.8-2.6,0.6-3.4-0.5c-0.3-0.4-0.5-0.9-0.5-1.4c0-1.2,0-2.4,0-3.6c0-0.2,0.1-0.3,0.3-0.3c0.8,0,0.8,0,0.8,0.8s0,1.7,0,2.5
	c0,0.3,0,0.7,0.2,1c0.2,0.7,0.9,1,1.6,0.8c0,0,0.1,0,0.1,0c0.7-0.2,1.1-0.9,1.1-1.6c0-0.9,0-1.9,0-2.8c0-0.8,0-0.6,0.6-0.6
	s0.6-0.1,0.6,0.6c0,1.1,0,2.2,0,3.4c0,0.1,0,0.3,0,0.4c0,0.8,0.6,0.9,1.1,0.6c0.2-0.1,0.3-0.2,0.4-0.3
	C212.8,66.9,212.9,66.7,213,66.7z"/>
<path class="st10" d="M224.4,66.6c0,0.5,0,0.9,0,1.4c0,0.2-0.2,0.4-0.4,0.4c-0.2,0.1-0.5,0.1-0.7,0.1c-0.9,0.1-1.8-0.5-1.9-1.5
	c0,0,0,0,0,0c-0.1-0.3-0.1-0.5-0.1-0.8c0-0.8,0-1.7,0-2.5c0-0.3,0-0.4-0.4-0.4s-0.9,0-1.3,0s-0.4,0-0.4-0.4c0-0.7,0-0.7,0.7-0.7
	c0.3,0,0.6,0,0.9,0s0.4,0,0.4-0.5c0-0.9,0-1.8,0-2.6c0-0.4,0-0.7,0-1.1c0-0.2,0.1-0.3,0.2-0.2c0.2,0,0.4,0,0.6,0
	c0.2,0,0.3,0.1,0.3,0.3c0,0.7,0,1.5,0,2.2c0,0.5,0,1.1,0,1.6c0,0.2,0.1,0.3,0.3,0.3c0.5,0.1,1,0,1.5,0s0.4,0,0.4,0.4
	c0,0.9,0.1,0.7-0.7,0.7h-1.1c-0.2,0-0.3,0.1-0.3,0.3c0,1,0,2,0,3c0,0.4,0.2,0.7,0.6,0.7c0.2,0,0.4,0,0.6-0.2
	C223.9,67.1,224.1,66.9,224.4,66.6z"/>
<path class="st10" d="M214.5,65.4c0-0.9,0-1.8,0-2.7c0-0.3,0-0.3,0.3-0.3c0.2,0,0.4,0,0.5,0.1c0.3,0.1,0.7,0.1,1-0.1
	c0.3-0.1,0.6-0.2,0.9-0.2c0.6,0,1,0.5,0.9,1.1c0,0.1,0,0.1,0,0.2c-0.1,0.5-0.6,0.8-1.1,0.7c-0.1,0-0.2,0-0.2-0.1l-0.2-0.1
	c-0.4-0.2-0.4-0.2-0.7,0.2c-0.2,0.4-0.3,0.8-0.3,1.2c0,0.9,0,1.8,0,2.7c0,0.5,0.1,0.5-0.4,0.5c-0.7,0-0.7,0-0.7-0.7
	S214.6,66.2,214.5,65.4L214.5,65.4z"/>
<path class="st10" d="M181.9,31.3c-2.1,0-3.8-1.7-3.8-3.8c0,0,0,0,0,0c0-2.1,1.8-3.8,3.9-3.8s3.8,1.8,3.8,3.9
	C185.7,29.6,184,31.3,181.9,31.3z"/>
<path class="st13" d="M226.9,38.1c0.4-0.4,1-0.5,1.4-0.2c0.6,0.3,0.8,0.9,0.6,1.5c-0.1,0.1-0.1,0.2-0.2,0.3
	c-0.1-0.1-0.2-0.3-0.2-0.4c0-0.3-0.1-0.6-0.1-1c0-0.2-0.1-0.3-0.3-0.3h-0.2c-0.3,0-0.6-0.1-0.8,0.1s0,0.5-0.1,0.7c0,0,0,0.1,0,0.1
	C226.8,38.6,226.9,38.4,226.9,38.1z"/>
<path class="st14" d="M227.7,39.1l0.6,0.9c-0.4,0.2-0.8,0.2-1.2,0C227.3,39.7,227.5,39.4,227.7,39.1z"/>
<path class="st15" d="M226.9,38.1c0.2,0.2,0,0.5,0.1,0.8c0,0.3,0,0.5,0,0.8c-0.3,0-0.4-0.3-0.4-0.5
	C226.5,38.7,226.6,38.3,226.9,38.1z"/>
<path class="st16" d="M227.7,38.8c-0.1,0-0.1-0.1-0.1-0.1c0,0,0,0,0,0c0-0.1,0.1-0.1,0.1-0.1c0,0,0,0,0,0c0.1,0,0.2,0.1,0.1,0.2
	S227.8,38.8,227.7,38.8z"/>
<path class="st0" d="M23.3,9.9C23.4,9,23.6,8.1,24,7.3c0.1-0.3,0.4-0.5,0.6-0.7c0.7-0.7,1.6-1.2,2.6-1.4c0.4,0,0.9,0,1.3,0.2
	c0.3,0,0.5,0.1,0.8,0.2c1.2,0.2,2.1,1.1,2.4,2.2c0.4,1.5-0.1,3.2-1.2,4.3c-0.4,0.5-0.8,0.9-1.3,1.3c-0.2,0.2-0.3,0.4-0.5,0.6
	c-0.1,0.2-0.3,0.4-0.5,0.5c-0.5,0.3-1,0.7-1.5,1.1C26.5,15.9,26,16,25.6,16c-0.3,0-0.6-0.2-0.7-0.4c-0.2-0.4-0.3-0.8-0.5-1.2
	c-0.2-0.6-0.5-1.2-0.7-1.8C23.4,11.8,23.3,10.8,23.3,9.9z"/>
<path class="st7" d="M23.3,67.7c-0.5-0.1-1-0.1-1.5-0.1c0-0.9,0.4-1.7,1-2.3c0.8-0.7,2.1-0.7,2.8,0.2c0.1,0.1,0.1,0.1,0.2,0.2
	c0.8,1.4,0.6,3.1-0.5,4.3c-0.8,0.8-2,0.8-2.8,0c-0.3-0.3-0.5-0.6-0.5-0.9c-0.1-0.4-0.1-0.4,0.3-0.6C22.6,68.3,23,68,23.3,67.7z"/>
<path class="st7" d="M32.1,67.3l1.4,0.1c0.3,0,0.3,0,0.3,0.3c-0.1,0.8-0.4,1.5-1,2c-0.8,0.7-2,0.7-2.7,0c-0.1-0.1-0.2-0.2-0.3-0.3
	c-0.9-1.4-0.6-3.2,0.6-4.3c0.8-0.8,2.1-0.7,2.8,0.1c0.3,0.3,0.4,0.6,0.5,1c0.1,0.2,0,0.3-0.2,0.4C33,66.7,32.5,67,32.1,67.3z"/>
<path class="st17" d="M28.1,73.3c-0.9,0-1.7-0.6-1.8-1.5c-0.1-0.2,0-0.4,0.2-0.4c0,0,0,0,0,0c0.2-0.1,0.3,0.1,0.3,0.2
	c0.1,0.2,0.2,0.3,0.3,0.5c0.3,0.6,1,0.8,1.6,0.4c0.3-0.2,0.5-0.4,0.6-0.7c0.1-0.2,0.1-0.4,0.2-0.6c0-0.1,0.2-0.2,0.3-0.2
	c0.1,0,0.2,0.1,0.2,0.3c0,0.4,0,0.8-0.2,1.1C29.4,72.9,28.8,73.3,28.1,73.3z"/>
<path class="st7" d="M181.9,53.1l-0.8,0.6c-0.7,0.5-1.6,0.8-2.5,0.8c-1.8,0-3.7,0-5.5,0c-2.1,0-3.9-1.5-4.3-3.5
	c-0.1-0.9-0.2-1.8-0.1-2.7c0-1.5,0.1-2.9,0-4.4c0-1.9-1.3-3.6-3.2-4c-1.6-0.4-3.3,0.1-4.4,1.4c-1,1.1-1.5,2.5-1.5,3.9
	c0,2.7,0,5.4,0,8.2c0,0.5-0.1,0.7-0.6,0.7c-0.4,0-0.9,0-1.3-0.1c-0.1,0-0.1-0.1-0.2-0.2s-0.1-0.5-0.1-0.7c0-1,0-2.1,0-3.1
	c0-0.2,0-0.4,0-0.6h-0.1l-0.3,0.7c-0.3,0.7-0.5,1.4-0.9,2.1c-0.5,1.4-1.9,2.3-3.4,2.3h-8.6c-2.3,0-4.6-0.9-6.3-2.5
	c-0.1-0.1-0.2-0.2-0.3-0.2c-0.1,0.1-0.1,0.2-0.1,0.3s0,0.4,0,0.6c0,1-0.7,1.8-1.7,1.9c-0.1,0-0.1,0-0.2,0h-1.7c-1.5,0-2.9,0-4.4,0
	c-2.3,0-4.2-1.7-4.4-4c0-0.3,0-0.6,0-0.8c0-1.7,0-3.4,0-5.1c0-0.7-0.1-1.4-0.3-2.1c-0.4-1.4-1.6-2.5-3.1-2.7c-2-0.5-4.1,0.5-5,2.4
	c-0.5,0.9-0.8,1.9-0.8,2.9c0,2.5,0,4.9,0,7.4c0,0.3-0.1,0.7-0.2,1c-0.3,0.6-0.8,0.9-1.4,0.9c-4.6,0-9.2,0-13.8,0
	c-1.2,0-2.5-0.4-3.5-1l-0.8-0.4c-0.4-0.2-0.4-0.2-0.7,0.1c-0.6,0.6-1.4,1-2.2,1.2c-0.4,0.1-0.7,0.2-1.1,0.2c-1.9,0-3.8,0-5.7,0
	c-0.9,0-1.7-0.3-2.4-0.8c-0.9-0.7-1.5-1.8-1.7-2.9c-0.1-0.4-0.1-0.8-0.1-1.2c0-1.7,0-3.4,0-5c0-0.6-0.1-1.2-0.3-1.8
	c-0.4-1.6-1.8-2.8-3.5-2.9c-2.2-0.3-4.3,1.1-5,3.2c-0.3,0.7-0.4,1.5-0.4,2.3c0,2.7,0,5.4,0,8.2c0,0.6,0.1,0.5-0.5,0.6
	c-0.4,0.1-0.9,0.1-1.3,0c-0.2,0-0.3-0.1-0.4-0.3c0,0,0,0,0-0.1c0-0.4,0-0.7,0-1.1c0-2.7,0-5.4,0-8.2c0-0.9-0.2-1.8-0.7-2.7
	c-0.6-1.1-1.7-1.9-3-2c-1.9-0.3-3.7,0.6-4.6,2.3c-0.5,0.8-0.8,1.8-0.8,2.8c0,2.5,0,5,0,7.5c0,0.4-0.1,0.9-0.1,1.3
	c0,0.2-0.1,0.3-0.3,0.3c-0.5,0.1-1.1,0.1-1.6,0c-0.2,0-0.3-0.1-0.3-0.3c0-1.1,0-2.1,0-3.2c0-3.8,0-7.5,0-11.3c0-0.3,0-0.6,0-1
	c0-0.1,0.1-0.2,0.2-0.2c0,0,0,0,0,0c0.6-0.1,1.2-0.1,1.7,0c0.1,0,0.2,0.1,0.2,0.2c0,0,0,0,0,0c0,0.2,0.1,0.5,0.1,0.7s0,0.6,0,0.8
	c0.2,0.1,0.2-0.1,0.3-0.1l0.6-0.6c0.9-0.9,2.1-1.4,3.4-1.5c1.2-0.1,2.5,0.1,3.6,0.7c1,0.5,1.8,1.2,2.3,2.1l0.4,0.7l0.7-1
	c0.8-1.3,2.1-2.1,3.6-2.3c2-0.4,4,0.1,5.6,1.4c1,0.9,1.6,2.1,1.9,3.3c0.2,0.7,0.2,1.4,0.2,2.1c0,1.7,0,3.4,0,5.1
	c0,0.6,0.2,1.3,0.5,1.8c0.4,0.6,1.1,0.9,1.8,0.9c1.6,0,3.2,0,4.8,0c0.9,0,1.7-0.3,2.5-0.8c0.2-0.1,0.2-0.2,0.1-0.4
	c-0.1-0.3-0.3-0.6-0.5-0.9c-2.1-3.6-1.2-8.2,2-10.8c1.7-1.4,3.9-2.1,6.2-1.8c1.5,0.2,2.8,0.7,4,1.7c0.5,0.4,0.9,0.7,1.4,1.2
	c0.4,0.4,0.4,0.6,0,1l-3.4,3.4L98.5,50c-0.2,0.2-0.4,0.4-0.6,0.6s-0.2,0.4,0.1,0.6c0.2,0.2,0.5,0.3,0.8,0.4c1,0.4,2,0.6,3,0.6
	c2.5,0,4.9,0,7.4,0h3.2c0.4,0,0.9-0.1,1.3-0.1c0.2,0,0.2-0.1,0.2-0.2s0-0.3,0-0.4c0-4.1,0-8.3,0-12.4c0-0.2,0-0.4,0-0.6
	c0-0.7,0-0.7,0.7-0.7c0.4,0,0.8,0,1.2,0.1c0.3,0,0.3,0.1,0.3,0.4s0,0.5,0,0.7s0,0.4,0,0.6c0.2,0.1,0.2,0,0.3-0.1s0.3-0.3,0.5-0.5
	c1.2-1.2,2.9-1.8,4.6-1.6c1,0.1,1.9,0.3,2.7,0.7c1.7,0.9,2.9,2.6,3.2,4.6c0.1,1,0.2,2,0.1,3c0,1.3,0,2.6,0,3.8
	c0,0.5,0.1,1.1,0.4,1.6c0.3,0.6,0.9,1,1.5,1c0.3,0,0.6,0.1,0.9,0h3.6c0.4,0,0.9,0,1.3-0.1c0.3,0,0.3,0,0.3-0.3c0-0.5,0-1.1,0-1.6
	c0-1.5,0-2.9,0-4.4c0.1-3.8,2.7-7.1,6.3-8c2.3-0.6,4.7-0.3,6.7,1c0.8,0.5,1.3,1.3,1.4,2.2c0.2,1.2-0.7,2.4-1.9,2.5
	c-0.2,0-0.3,0-0.5,0c-0.6-0.1-1.1-0.4-1.5-0.8c-0.4-0.5-0.6-1-0.5-1.6c0-0.2,0.1-0.4,0.1-0.6c0.1-0.3,0.1-0.4-0.3-0.5
	c-1-0.3-2-0.4-3-0.1c-2.4,0.5-4.2,2.4-4.7,4.8c-0.5,2.1,0.2,4.3,1.9,5.7c1.3,1.3,3,2,4.8,2c2.2,0,4.4,0,6.6,0c0.2,0,0.5,0,0.7,0
	c0.5,0,1-0.1,1.5-0.3c0.3-0.1,0.6-0.3,0.8-0.6c0.2-0.3,0.3-0.5,0.4-0.8c0.9-2.3,1.8-4.6,2.7-6.8c0.2-0.6,0.4-1.2,0.4-1.9
	c0-6.2,0-12.4,0-18.7c0-0.6,0.1-1.1,0.3-1.7c0.4-1.4,1.6-2.3,3-2.3c0.6-0.1,1.2,0,1.8,0.2c1.5,0.5,2.4,2,2.2,3.5
	c-0.1,1.4-0.4,2.8-0.7,4.1c-0.8,3.7-1.8,7.4-2.8,11.1c0,0.1,0,0.2-0.1,0.4c0.5-0.3,1-0.5,1.5-0.7c2.6-0.8,5.4,0,7.1,2.1
	c0.6,0.8,1,1.8,1.2,2.9c0.2,1.1,0.2,2.3,0.2,3.4c0,1.2,0,2.5,0,3.7c0,1.2,0.9,2.3,2.1,2.3c0.1,0,0.1,0,0.2,0h5.2
	c1.2,0,2.2-0.9,2.3-2.1c0-0.6,0-1.1,0-1.7c0-3.3,0-6.6,0-9.9c0-0.5,0-0.6,0.5-0.6c0.4,0,0.7,0,1.1,0c0.4,0,0.5,0,0.5,0.5
	c0,1.4,0,2.7,0,4.1c0,2.2,0,4.4,0,6.5c0,0.4,0,0.8,0.1,1.2c0.1,0.9,0.7,1.6,1.6,1.8c0.3,0.1,0.6,0.1,0.9,0.1h4.5
	c0.9,0,1.7-0.3,2.4-0.8c0.1-0.1,0.2-0.2,0.1-0.3c0,0,0,0,0,0c-0.1-0.2-0.2-0.5-0.3-0.7c-1.8-2.8-1.7-6.3,0.1-9.1
	c1.3-2.1,3.5-3.5,6-3.8c2.2-0.3,4.4,0.4,6.1,1.8c0.4,0.3,0.7,0.6,1.1,0.9s0.5,0.7,0,1.1l-3.8,3.9L198,49c-0.4,0.4-0.8,0.8-1.3,1.1
	c-0.3,0.2-0.5,0.5-0.6,0.8c-0.1,0.1-0.1,0.2,0.1,0.3c0.9,0.6,1.9,1,3,1c0.9,0,1.7,0,2.6-0.2c0.6-0.1,1.1-0.3,1.6-0.5
	c0.3-0.1,0.6-0.3,0.8-0.4c0.6-0.2,0.6-0.4,0.7,0.4c0.1,0.5,0,1.1-0.1,1.6c0,0.2-0.2,0.2-0.3,0.3c-0.8,0.4-1.7,0.7-2.5,0.8
	c-1.3,0.2-2.6,0.3-3.9,0.1c-1.1-0.1-2.2-0.5-3.1-1.1c-0.7-0.5-0.6-0.5-1.3,0.1c-0.9,0.8-2,1.2-3.2,1.1c-1.8,0-3.6,0-5.3,0
	c-1,0-2-0.3-2.8-1L181.9,53.1z"/>
<path class="st7" d="M216.8,52.4c0-0.4,0.1-0.7,0.1-1.1c0-0.2,0.1-0.2,0.3-0.2c0.3,0.1,0.5,0.2,0.7,0.4c0.7,0.5,1.6,0.8,2.4,0.7
	c1.4,0,2.6-1.1,2.6-2.5c0-0.2,0-0.3,0-0.5c-0.1-0.7-0.4-1.3-0.9-1.9c-0.5-0.7-1.1-1.3-1.7-2c-0.5-0.6-0.9-1.2-1.3-1.9
	c-1.1-2.1-0.4-4.6,1.5-5.9c0.8-0.5,0.9-0.4,1.3,0.3c0.1,0.3,0.3,0.6,0.4,0.9c0.1,0.1,0,0.3-0.1,0.4c-0.2,0.2-0.5,0.4-0.7,0.6
	c-0.6,0.6-0.8,1.5-0.5,2.4c0.3,0.8,0.7,1.5,1.4,2.1c0.6,0.7,1.2,1.4,1.8,2.2c0.7,1,1,2.2,1,3.4c0,2.2-1.5,4-3.6,4.5
	c-1.2,0.3-2.5,0.1-3.7-0.4c-0.2-0.1-0.4-0.2-0.6-0.4c-0.2-0.1-0.3-0.3-0.3-0.5C216.8,52.8,216.8,52.6,216.8,52.4z"/>
<path class="st0" d="M207.5,32.3c1.1-1.1,2.4-2,3.9-2.6c0.9-0.4,1.7-1,2.4-1.7l0.2-0.2c0.2,0,0.2,0.2,0.3,0.3
	c0.4,0.6,0.9,1.1,1.5,1.4c0.2,0.1,0.3,0.2,0.4,0.4c0.3,0.2,0.3,0.6,0.1,0.8c0,0-0.1,0.1-0.1,0.1c-0.3,0.3-0.6,0.5-1,0.7
	c-0.4,0.2-0.8,0.3-1.2,0.4c-1.5,0.5-2.9,1.2-4.3,2c-0.6,0.4-1.2,0.9-1.6,1.4c-0.2,0.3-0.4,0.6-0.5,1c-0.5-0.4-0.8-0.9-0.8-1.5
	c0-0.4,0-0.9,0.1-1.3C207,33,207.1,32.5,207.5,32.3z"/>
<path class="st11" d="M207.5,32.3c-0.2,0.4-0.4,0.8-0.6,1.2c0-0.1,0-0.2,0-0.2c0.1-0.5,0.1-1-0.1-1.4c-0.2-0.5-0.2-1.1,0-1.7
	c0.4-1,1-2,1.7-2.7c0.5-0.6,1-1.1,1.6-1.7c0.2-0.2,0.2-0.3,0.1-0.5c-0.2-0.3-0.4-0.7-0.4-1.2c-0.2-0.8,0.2-1.6,0.9-2
	c0.8-0.4,1.7-0.2,2.2,0.4c0.3,0.3,0.4,0.6,0.5,1c0.2,0.9-0.1,1.9-0.8,2.6c-0.5,0.5-1.1,1-1.7,1.5c-0.8,0.6-1.5,1.2-2.2,1.8
	c-0.4,0.5-0.8,1-1.2,1.5C207.2,31.4,207.2,31.9,207.5,32.3z"/>
<path class="st11" d="M208.4,37.1c0.3-0.4,0.7-0.7,1.1-0.9c1-0.5,2-0.8,3.1-1c1.2-0.2,2.4-0.5,3.6-0.9c0.2-0.1,0.5-0.2,0.7-0.2
	s0.4,0,0.3,0.3c0,0.2-0.1,0.4-0.1,0.5c-0.9,2.7-3.8,4.3-6.5,3.4c-0.7-0.2-1.4-0.6-1.9-1.1L208.4,37.1z"/>
<path class="st7" d="M151.1,67.4c-1.1,0-2-0.9-2-2c0-1.1,0.8-2,1.9-2.1l0,0c0.6,0,0.6,0,0.7,0.5c0,0.5,0.5,1,1,1
	c0.4,0.1,0.4,0.1,0.4,0.5C153.1,66.5,152.2,67.4,151.1,67.4C151.1,67.4,151.1,67.4,151.1,67.4z"/>
<path class="st18" d="M166.4,63.6c-0.7,0.8-1.5,1.6-2.4,2.4c-0.2,0.2-0.3,0.1-0.4-0.1c-0.2-0.8,0-1.6,0.6-2.1
	C164.9,63.3,165.7,63.2,166.4,63.6z"/>
<path class="st7" d="M200.7,63.4c1.1,0,2,0.9,2,2c0,1.1-0.9,2-2,2s-2-0.9-2-2C198.6,64.3,199.6,63.4,200.7,63.4z"/>
<path class="st7" d="M193.2,63.4h0.2c0.2,0,0.3,0.1,0.3,0.2c0,0.1,0,0.2,0,0.3c0,0.5,0.4,1,0.9,1c0,0,0,0,0,0
	c0.5,0.1,0.5,0.1,0.5,0.6c0,0.9-0.6,1.6-1.4,1.8c-0.9,0.2-1.8-0.1-2.3-0.9c-0.4-0.8-0.3-1.7,0.2-2.4C192,63.6,192.6,63.3,193.2,63.4
	z"/>
<path class="st7" d="M181.9,29.3c-1,0-1.9-0.8-1.9-1.9c0,0,0-0.1,0-0.1c0.1-1,0.9-1.9,2-1.8c1,0.1,1.9,0.9,1.8,2
	C183.8,28.5,182.9,29.3,181.9,29.3z"/>
<path class="st10" d="M28,6.9c0.7,0,1.3,0.4,1.8,0.9c0.5,0.5,0.6,1.3,0.3,2c-0.3,0.6-0.7,1.1-1.1,1.6c-0.7,0.8-1.5,1.5-2.3,2.2
	l-0.2,0.2c-0.5,0.3-0.7,0.3-0.9-0.3c-0.4-0.9-0.6-1.8-0.7-2.8c-0.1-0.6,0-1.2,0.1-1.8C25.4,7.6,26.7,6.7,28,6.9z"/>
<path class="st10" d="M194.3,49.3c-0.7-1-1.1-2.3-1-3.6c0-2.5,1.6-4.8,4-5.7c1.9-0.8,4-0.4,5.5,0.9
	C202.4,41.5,194.7,49.1,194.3,49.3z"/>
<path class="st10" d="M104.3,41c-0.6,0.7-8,8-8.5,8.3c-0.4-0.5-0.7-1-0.8-1.6c-0.9-3.3,1-6.8,4.3-7.8
	C101.1,39.4,102.9,39.8,104.3,41z"/>
<path class="st10" d="M159.6,33.3c0-3.4,0-6.7,0-10.1c0-0.3,0-0.7,0.2-1c0.2-0.4,0.5-0.6,0.9-0.6h0.2c0.8,0,1.1,0.2,1.3,1
	c0.1,0.5,0.1,0.9,0,1.4c-0.3,1.8-0.6,3.7-1,5.5s-0.9,3.8-1.4,5.7c-0.2,0-0.1-0.2-0.1-0.3C159.6,34.3,159.7,33.8,159.6,33.3z"/>
<path class="st19" d="M159.6,33.3c0.1,0.5,0.1,0.9,0.1,1.4c0,0.2-0.1,0.3,0.1,0.5s0,0.3-0.2,0.5c0-0.4,0-0.8,0-1.2
	C159.6,34,159.6,33.6,159.6,33.3z"/>
<path class="st20" d="M211.7,24c0,0.3-0.2,0.6-0.4,0.8c-0.1,0.1-0.1,0.1-0.2,0.1c-0.3-0.2-0.4-0.5-0.3-0.9c0.1-0.3,0.3-0.4,0.6-0.4
	C211.6,23.7,211.7,23.8,211.7,24z"/>
</svg>
