<svg id="Layer_1" data-name="Layer 1" xmlns="http://www.w3.org/2000/svg" viewBox="0 0 250 250"><defs><style>.cls-1{fill:#f9e8a0;}.cls-2{fill:none;}.cls-3{fill:#414042;}.cls-4{fill:red;}</style></defs><title>Midscale Family Style</title><path class="cls-1" d="M22.37,47.79V187.41h204V47.79ZM64.84,99.26A8.36,8.36,0,1,1,73.2,90.9,8.52,8.52,0,0,1,64.84,99.26Zm119,0a8.36,8.36,0,1,1,8.36-8.36A8.52,8.52,0,0,1,183.87,99.26Z"/><circle class="cls-2" cx="183.87" cy="90.9" r="8.36"/><path class="cls-1" d="M183.23,107a3.87,3.87,0,0,0-2.57.64l-10.29,7.08c-.64.64-1.93.64-3.22.64H154.28a2.57,2.57,0,1,0,0,5.15h16.09c.64,0,.64,0,1.29-.64l7.72-5.15v27H163.28a7.14,7.14,0,0,0-7.08,7.08v29.6h-6.43A2.77,2.77,0,0,0,147.2,181h0a2.77,2.77,0,0,0,2.57,2.57h14.16A2.77,2.77,0,0,0,166.5,181V152h19.95a7.14,7.14,0,0,0,7.08-7.08V111.49a6.45,6.45,0,0,0-6.43-6.43h-3.86Z"/><path class="cls-1" d="M192.88,182.27V165.54h10.94a2.77,2.77,0,0,0,2.57-2.57V112.77a3.22,3.22,0,0,0-6.43,0v47H175.51a2.77,2.77,0,0,0-2.57,2.57V163a2.77,2.77,0,0,0,2.57,2.57h10.94v17.37h-7.72c-.64,0-.64,0-.64.64s0,.64.64.64h23.16c.64,0,.64,0,.64-.64h0c0-.64,0-.64-.64-.64h-9Z"/><path class="cls-3" d="M178.73,187.41a3.86,3.86,0,0,1,0-7.72h5.15V169.4h-7.72a5.77,5.77,0,0,1-5.79-5.79V163a5.77,5.77,0,0,1,5.79-5.79h21.23V113.42a6.43,6.43,0,1,1,12.87,0v50.19a5.77,5.77,0,0,1-5.79,5.79h-7.72v10.29h5.15a4.15,4.15,0,0,1,3.86,3.86h0a4.15,4.15,0,0,1-3.86,3.86H178.73m14.16-5.15V165.54h10.94a2.77,2.77,0,0,0,2.57-2.57V112.77a3.22,3.22,0,0,0-6.43,0v47H175.51a2.77,2.77,0,0,0-2.57,2.57V163a2.77,2.77,0,0,0,2.57,2.57h10.94v17.37h-7.72c-.64,0-.64,0-.64.64s0,.64.64.64h23.16c.64,0,.64,0,.64-.64h0c0-.64,0-.64-.64-.64h-9Z"/><path class="cls-3" d="M149.77,187.41a5.77,5.77,0,0,1-5.79-5.79h0a5.77,5.77,0,0,1,5.79-5.79H153V149.45a10.16,10.16,0,0,1,10.29-10.29h12.23V121.78l-2.57,1.93c-.64.64-1.93.64-3.22.64H153.63a5.79,5.79,0,0,1,0-11.58H166.5c.64,0,.64,0,1.29-.64l10.94-7.08a5.84,5.84,0,0,1,4.5-1.93h4.5a9.9,9.9,0,0,1,9.65,9.65v33.46a10.16,10.16,0,0,1-10.29,10.29H170.36v25.74a5.77,5.77,0,0,1-5.79,5.79h-14.8M183.23,107a3.87,3.87,0,0,0-2.57.64l-10.29,7.08c-.64.64-1.93.64-3.22.64H154.28a2.57,2.57,0,1,0,0,5.15h16.09c.64,0,.64,0,1.29-.64l7.72-5.15v27H163.28a7.14,7.14,0,0,0-7.08,7.08v29.6h-6.43A2.77,2.77,0,0,0,147.2,181h0a2.77,2.77,0,0,0,2.57,2.57h14.16A2.77,2.77,0,0,0,166.5,181V152h19.95a7.14,7.14,0,0,0,7.08-7.08V111.49a6.45,6.45,0,0,0-6.43-6.43h-3.86Z"/><path class="cls-3" d="M183.87,102.48a10.84,10.84,0,0,1-10.94-10.94A11.28,11.28,0,0,1,183.87,80.6a10.94,10.94,0,1,1,0,21.88m0-19.95a8.36,8.36,0,1,0,8.36,8.36,8.52,8.52,0,0,0-8.36-8.36"/><path class="cls-4" d="M125.32,72.24h-.64a10.16,10.16,0,0,1-10.29-10.29h21.23A10.16,10.16,0,0,1,125.32,72.24Z"/><polygon class="cls-4" points="235.99 187.41 12.72 187.41 12.72 201.57 22.37 201.57 230.2 201.57 235.99 201.57 235.99 187.41"/><rect class="cls-3" x="19.16" y="48.43" width="6.43" height="140.27"/><rect class="cls-3" x="223.77" y="49.72" width="6.43" height="138.98"/><path class="cls-3" d="M239.85,204.79H10.15v-19.3H239.85ZM17.23,198.35H233.42v-6.43H17.23Z"/><path class="cls-3" d="M124.68,75.46a13.59,13.59,0,0,1-13.51-13.51V60.66h26.38v1.93C138.19,69.66,132.4,75.46,124.68,75.46ZM115,63.87a10.28,10.28,0,0,0,9.65,8.36,9.74,9.74,0,0,0,9.65-8.36Z"/><rect class="cls-3" x="123.39" y="49.72" width="3.22" height="12.23"/><path class="cls-3" d="M245,45.21H5v6.43H245Z"/><path class="cls-1" d="M61.62,107a6.45,6.45,0,0,0-6.43,6.43v33.46A7.14,7.14,0,0,0,62.27,154H82.21v29a2.77,2.77,0,0,0,2.57,2.57H98.94a2.77,2.77,0,0,0,2.57-2.57h0a2.77,2.77,0,0,0-2.57-2.57H92.51v-29.6a7.14,7.14,0,0,0-7.08-7.08H69.34v-27l7.72,5.15c.64,0,.64.64,1.29.64H94.44a2.57,2.57,0,0,0,0-5.15H81.57c-1.29,0-1.93-.64-3.22-.64l-9.65-9a4.86,4.86,0,0,0-2.57-.64Z"/><path class="cls-1" d="M47.47,182.27c-.64,0-.64.64,0,0l-.64.64c0,.64,0,.64.64.64H70.63c.64,0,.64,0,.64-.64s0-.64-.64-.64h-9V164.89H72.56a2.77,2.77,0,0,0,2.57-2.57v-.64a2.77,2.77,0,0,0-2.57-2.57H48.75v-47a3.22,3.22,0,0,0-6.43,0v50.19a2.77,2.77,0,0,0,2.57,2.57H55.83v16.73H47.47Z"/><path class="cls-3" d="M70.63,187.41H47.47a4.15,4.15,0,0,1-3.86-3.86h0a4.15,4.15,0,0,1,3.86-3.86h5.15V169.4H44.89a5.77,5.77,0,0,1-5.79-5.79V113.42a6.43,6.43,0,1,1,12.87,0v43.75H73.2A5.77,5.77,0,0,1,79,163v.64a5.77,5.77,0,0,1-5.79,5.79H64.84v10.29H70a4.15,4.15,0,0,1,3.86,3.86c.64,1.93-1.29,3.86-3.22,3.86m-23.16-5.15c-.64,0-.64.64,0,0l-.64.64c0,.64,0,.64.64.64H70.63c.64,0,.64,0,.64-.64s0-.64-.64-.64h-9V164.89H72.56a2.77,2.77,0,0,0,2.57-2.57v-.64a2.77,2.77,0,0,0-2.57-2.57H48.75v-47a3.22,3.22,0,0,0-6.43,0v50.19a2.77,2.77,0,0,0,2.57,2.57H55.83v16.73H47.47Z"/><path class="cls-3" d="M98.94,187.41H84.79A5.77,5.77,0,0,1,79,181.62V155.88H62.27A10.16,10.16,0,0,1,52,145.59V112.13c0-4.5,4.5-9,9.65-9h4.5a11.93,11.93,0,0,1,4.5,1.29l10.29,7.08c.64,0,.64.64,1.29.64H95.08a5.79,5.79,0,1,1,0,11.58H79a5.8,5.8,0,0,1-3.22-.64l-2.57-1.93v17.37H85.43a10.16,10.16,0,0,1,10.29,10.29v26.38h3.22a5.77,5.77,0,0,1,5.79,5.79h0c.64,3.86-1.93,6.43-5.79,6.43M61.62,107a6.45,6.45,0,0,0-6.43,6.43v33.46A7.14,7.14,0,0,0,62.27,154H82.21v29a2.77,2.77,0,0,0,2.57,2.57H98.94a2.77,2.77,0,0,0,2.57-2.57h0a2.77,2.77,0,0,0-2.57-2.57H92.51v-29.6a7.14,7.14,0,0,0-7.08-7.08H69.34v-27l7.72,5.15c.64,0,.64.64,1.29.64H94.44a2.57,2.57,0,0,0,0-5.15H81.57c-1.29,0-1.93-.64-3.22-.64l-9.65-9a4.86,4.86,0,0,0-2.57-.64Z"/><path class="cls-3" d="M64.84,102.48A10.84,10.84,0,0,1,53.9,91.54,11.28,11.28,0,0,1,64.84,80.6a10.94,10.94,0,0,1,0,21.88m0-19.95A8.36,8.36,0,1,0,73.2,90.9a8.52,8.52,0,0,0-8.36-8.36"/><rect class="cls-1" x="88.65" y="125" width="71.42" height="8.36"/><rect class="cls-4" x="120.17" y="172.61" width="8.36" height="12.23"/><path class="cls-3" d="M111.81,187.41a1.93,1.93,0,0,1,0-3.86H117V178.4a6.39,6.39,0,0,1,4.5-6.43V137.23H89.29a4.4,4.4,0,0,1-4.5-4.5v-3.86H81.57a1.93,1.93,0,1,1,0-3.86h34.1c.64-.64.64-.64.64-1.29.64-.64.64-.64,1.29-.64h2.57v-3.22a5.07,5.07,0,0,0-5.15-5.15,1.93,1.93,0,0,1,0-3.86c1.93,0,3.22.64,5.15,1.29l.64-2.57a7.53,7.53,0,0,1-5.15-7.08,7.08,7.08,0,0,1,14.16,0,6.39,6.39,0,0,1-4.5,6.43v6.43h3.22a1.93,1.93,0,0,1,0,3.86,3.45,3.45,0,0,0-3.22,3.22l3.22.64c.64,0,1.29,0,1.29.64l.64.64h34.75a1.93,1.93,0,0,1,0,3.86h-2.57v3.22a4.4,4.4,0,0,1-4.5,4.5H126.61v34.75a7.53,7.53,0,0,1,5.15,7.08v5.15h5.15a1.93,1.93,0,1,1,0,3.86H111.81Zm12.87-12.87a3.45,3.45,0,0,0-3.22,3.22v5.15h5.79v-5.15C127.25,176.47,126,174.54,124.68,174.54ZM89.93,128.86v3.22h69.49v-3.22Zm34.75-29a3.22,3.22,0,1,0,3.22,3.22C127.25,101.19,126,99.91,124.68,99.91Z"/></svg>