<svg id="Layer_1" data-name="Layer 1" xmlns="http://www.w3.org/2000/svg" viewBox="0 0 250 250"><defs><style>.cls-1{fill:#f9e8a0;}.cls-2{fill:#414042;}.cls-3{fill:red;}</style></defs><title>Midscale BuffetCafeteria</title><path class="cls-1" d="M88.32,68.42,69.67,79.9H87.6A12.09,12.09,0,0,0,99.8,67.71H88.32Z"/><path class="cls-1" d="M48.16,68.42H87.6A12.09,12.09,0,0,1,75.41,80.62H59.63C53.9,79.9,48.16,74.88,48.16,68.42Z"/><path class="cls-1" d="M88.32,92.09,74,105.72l13.63-2.15A12.09,12.09,0,0,0,99.8,91.37H88.32Z"/><path class="cls-1" d="M48.16,92.09H87.6a12.09,12.09,0,0,1-12.19,12.19l-7.89-2.15-7.89,2.15C53.9,103.57,48.16,98.55,48.16,92.09Z"/><path class="cls-1" d="M125.62,123.65,39.55,139.43V150.9l160.66,44.47a25.32,25.32,0,0,0,12.19,2.87V139.43Z"/><rect class="cls-1" x="38.12" y="115.76" width="173.57" height="23.67"/><path class="cls-1" d="M200.21,151.62H39.55V199c14.34,0,14.34-7.89,28.69-7.89S82.58,199,96.93,199s14.34-7.89,28.69-7.89S140,199,154.31,199s14.34-7.89,28.69-7.89c8.61,0,12.19,2.87,16.5,5l.72-44.47Z"/><path class="cls-2" d="M120.6,112.89H99.8c1.43-1.43,2.15-3.59,2.87-5.74h1.43a2.87,2.87,0,0,0,0-5.74H99.8c1.43-1.43,2.15-3.59,2.87-5.74h1.43a2.87,2.87,0,1,0,0-5.74H99.8c1.43-1.43,2.15-3.59,2.87-5.74h1.43A3.09,3.09,0,0,0,107,81.33c0-1.43-1.43-4.3-2.87-4.3H99.8c1.43-1.43,2.15-3.59,2.87-5.74h1.43a2.87,2.87,0,0,0,0-5.74H44.57a3.09,3.09,0,0,0-2.87,2.87,2.63,2.63,0,0,0,2.87,2.87H46A8.14,8.14,0,0,0,48.16,77H44.57C42.42,77,41,78.46,41,79.9s1.43,2.87,3.59,2.87H46c.72,2.15,1.43,4.3,2.87,5.74h-4.3a3.09,3.09,0,0,0-2.87,2.87c0,1.43.72,3.59,2.87,3.59H46c.72,2.15,1.43,4.3,2.87,5.74h-4.3a2.87,2.87,0,1,0,0,5.74H46c.72,2.15,1.43,4.3,2.87,5.74H38.12A3.09,3.09,0,0,0,35.25,115v23.67a3.09,3.09,0,0,0,2.87,2.87h147a2.87,2.87,0,1,0,0-5.74H41V117.91H210.25v17.93H197.34a2.87,2.87,0,0,0,0,5.74h12.19v53.07a32.75,32.75,0,0,1-10-3.59,27.68,27.68,0,0,0-15.78-4.3,27.68,27.68,0,0,0-15.78,4.3c-3.59,2.15-6.45,3.59-12.91,3.59s-9.32-1.43-12.91-3.59a27.68,27.68,0,0,0-15.78-4.3,27.68,27.68,0,0,0-15.78,4.3c-3.59,2.15-6.45,3.59-12.91,3.59s-10-.72-13.63-2.87a27.68,27.68,0,0,0-15.78-4.3,27.68,27.68,0,0,0-15.78,4.3c-.72.72-1.43.72-2.15,1.43-2.15.72-4.3,2.15-7.17,2.15V151.62a3.09,3.09,0,0,0-2.87-2.87,3.09,3.09,0,0,0-2.87,2.87V199a3.09,3.09,0,0,0,2.87,2.87,26.75,26.75,0,0,0,8.61-1.43v10a2.87,2.87,0,0,0,5.74,0V197.52a.7.7,0,0,0,.72-.72c3.59-2.15,6.45-3.59,12.91-3.59s9.32,1.43,12.91,3.59a27.68,27.68,0,0,0,15.78,4.3,27.68,27.68,0,0,0,15.78-4.3c3.59-2.15,6.45-3.59,12.91-3.59s9.32,1.43,12.91,3.59a27.68,27.68,0,0,0,15.78,4.3,27.68,27.68,0,0,0,15.78-4.3c3.59-2.15,6.45-3.59,12.91-3.59s9.32,1.43,12.91,3.59a.7.7,0,0,1,.72.72v12.91a2.87,2.87,0,1,0,5.74,0v-10a26.75,26.75,0,0,0,8.61,1.43,3.09,3.09,0,0,0,2.87-2.87V141.58a2.63,2.63,0,0,0,.72-2.15V115.76a3.09,3.09,0,0,0-2.87-2.87h-7.17m-4.3,0H127.05m-38.73,0h-28a9.32,9.32,0,0,1-8.61-5.74H96.21C95.49,110,91.91,112.89,88.32,112.89Zm0-12.19h-28A9.32,9.32,0,0,1,51.74,95H96.21C95.49,98.55,91.91,100.7,88.32,100.7Zm0-11.48h-28a9.32,9.32,0,0,1-8.61-5.74H96.21C95.49,86.35,91.91,89.22,88.32,89.22Zm0-12.19h-28a8.65,8.65,0,0,1-8.61-5.74H96.21C95.49,74.88,91.91,77,88.32,77Z"/><circle class="cls-3" cx="195.19" cy="163.1" r="2.87"/><circle class="cls-3" cx="183.71" cy="174.57" r="2.87"/><path class="cls-1" d="M162.2,48.34c15.06,0,27.25,11.48,28.69,26.54H132.79C134.94,59.82,147.13,48.34,162.2,48.34Z"/><path class="cls-1" d="M188.73,89.22a36.42,36.42,0,0,1-53.07,0Z"/><path class="cls-2" d="M110.56,118.63H213.83c-.72-1.43-.72-3.59-.72-5.74h-.72l-5-26.54V74.16h-10A35.16,35.16,0,0,0,165.78,42.6V38.3H160v4.3a35.16,35.16,0,0,0-31.56,31.56h-10V88.5l-5,24.39H112m50.2-64.55c15.06,0,27.25,11.48,28.69,26.54H132.79C134.94,59.82,147.13,48.34,162.2,48.34ZM123.47,79.9h77.46v4.3H123.47Zm65.27,9.32a36.42,36.42,0,0,1-53.07,0ZM122,112.89h-2.87l4.3-23.67h2.87Zm5.74,0,4.3-20.8c7.17,8.61,18.65,13.63,30.84,13.63a40.93,40.93,0,0,0,31.56-14.34l4.3,21.52Zm76,0-5-23.67h2.87l5,23.67Z"/><path class="cls-3" d="M165.78,57.66c1.43.72,2.87.72,4.3,1.43l2.87-5c-1.43-.72-3.59-1.43-5-2.15Z"/><path class="cls-3" d="M176.54,56.95l-2.87,4.3a21.08,21.08,0,0,1,7.17,8.61l5-2.15C183,63.4,180.13,59.1,176.54,56.95Z"/><rect class="cls-1" x="123.47" y="79.9" width="77.46" height="4.3"/></svg>