<svg id="Layer_1" data-name="Layer 1" xmlns="http://www.w3.org/2000/svg" viewBox="0 0 235.05 175"><defs><style>.cls-1{fill:#f9e8a0;}.cls-2{fill:red;}.cls-3{fill:#414042;}</style></defs><title>Midscale</title><rect class="cls-1" x="18.01" y="2.57" width="199.88" height="136.4"/><path class="cls-2" d="M125,109.56h0a13.55,13.55,0,0,1-13.73-13.73h27.45A13.55,13.55,0,0,1,125,109.56Z" transform="translate(-7.48 -37.5)"/><polygon class="cls-2" points="226.47 139.83 7.72 139.83 7.72 153.55 17.16 153.55 220.47 153.55 226.47 153.55 226.47 139.83"/><polygon class="cls-1" points="7.72 153.55 17.16 153.55 17.16 172.43 220.47 172.43 220.47 153.55 226.47 153.55 7.72 153.55"/><rect class="cls-3" x="13.73" y="3.43" width="6.86" height="137.25"/><rect class="cls-3" x="214.46" y="4.29" width="6.86" height="136.4"/><path class="cls-3" d="M237.38,193.63H13.48V174.75H238.24v18.87Zm-217.89-6H231.37v-6H19.49Z" transform="translate(-7.48 -37.5)"/><path class="cls-3" d="M231.37,212.5H21.2V187.62H230.51V212.5Zm-203.31-6H224.51V193.63H28.06Z" transform="translate(-7.48 -37.5)"/><path class="cls-3" d="M125,113a17.21,17.21,0,0,1-17.16-17.16V94.12h34.31v2.57C142.16,105.27,134.44,113,125,113ZM112.13,98.41a13,13,0,0,0,25.74,0Z" transform="translate(-7.48 -37.5)"/><rect class="cls-3" x="115.81" y="4.29" width="4.29" height="54.04"/><polygon class="cls-2" points="90.07 90.07 90.07 91.79 89.22 101.22 145.83 101.22 145.83 90.07 90.07 90.07"/><path class="cls-3" d="M127.57,141.3h23.16a5.54,5.54,0,0,0,5.15-5.15v-6h3.43a2.57,2.57,0,0,0,0-5.15H91.54a2.57,2.57,0,0,0,0,5.15H95v6a5.54,5.54,0,0,0,5.15,5.15h23.16v33.46h4.29Zm-27.45-5.15h0l-.86-6v-.86h51.47v6.86Z" transform="translate(-7.48 -37.5)"/><path class="cls-3" d="M155,155c0-1.72,1.72-3.43,3.43-2.57h25.74v22.3h4.29v-24l6-44.61c0-.86,0-.86-.86-1.72s-.86-.86-1.72-.86-1.72.86-2.57,1.72l-5.15,42.89H158.46a8.24,8.24,0,0,0-7.72,6c-.86,2.57,0,13.73,2.57,20.59h3.43C155.88,169.61,155,156.74,155,155Z" transform="translate(-7.48 -37.5)"/><path class="cls-3" d="M89.83,155c0-1.72-1.72-3.43-3.43-2.57H60.66v22.3H55.51v-24l-6-44.61c0-.86,0-.86.86-1.72s.86-.86,1.72-.86,1.72.86,2.57,1.72l5.15,42.89H85.54a8.24,8.24,0,0,1,7.72,6c.86,2.57,0,13.73-2.57,20.59H88.11C89,169.61,89.83,156.74,89.83,155Z" transform="translate(-7.48 -37.5)"/><path class="cls-3" d="M242.52,37.5H7.48v6h235Z" transform="translate(-7.48 -37.5)"/></svg>