<svg id="Layer_1" data-name="Layer 1" xmlns="http://www.w3.org/2000/svg" viewBox="0 0 250 250"><defs><style>.cls-1{fill:#fdfefd;stroke:#000;stroke-miterlimit:10;stroke-width:0.5px;}.cls-2{fill:#c41230;}.cls-3{fill:#8b0b05;}.cls-4{fill:#0f4b7d;}.cls-5{fill:#00477f;}</style></defs><title>Military ShoppetteMini Mart</title><path class="cls-1" d="M112.47,53.85c3.55,1.25,5.81,3.87,7.66,7s4,6.41,6.23,9.92c2.5-3.69,5-7,7.12-10.61a14,14,0,0,1,7-6.18,2.73,2.73,0,0,1,1.26-.52c8.13.11,16.26-.49,24.38.3,6.72,3.07,7.83,7.11,3.64,13.44C162.51,78.14,155.29,89.11,148,100c-1.18,1.75-1.43,3-.22,4.88,7.7,12,15.21,24.22,22.9,36.27,1.95,3,2.81,6.08,1.14,9.39-1.76,3.51-5,4-8.56,3.91-6.36-.1-12.72-.14-19.08,0-4.44.1-7.49-2-9.71-5.53-3-4.72-5.81-9.56-9-14.92-3.06,4.55-6.16,8.62-8.67,13-3.07,5.4-7.17,8-13.55,7.47-5.75-.44-11.56-.2-17.34-.07-8.48.2-10.23-7.49-6.92-12.63,5.75-9,11.9-17.66,17.87-26.48,2.1-3.1,3.93-6.43,6.32-9.29s1.5-5.07-.16-7.68C96.4,88.12,90,77.81,83.51,67.52c-4-6.41-3-10.41,3.62-13.7,6.63-.87,13.29-.21,19.93-.35C108.85,53.43,110.72,53,112.47,53.85Z"/><path class="cls-2" d="M139.79,102.48c-2.13,4.61-5.36,8.51-8.13,12.72-6.83,10.39-13.83,20.68-20.64,31.09a5.66,5.66,0,0,1-5.36,2.94c-6.46-.11-12.93,0-19.39-.05-3.85,0-4.74-1.7-2.55-5,7.53-11.33,15.14-22.6,22.71-33.9,1.71-2.56,3.37-5.15,5.06-7.72.89-1.51,2.37-1.66,3.89-1.68,6.54-.1,13.07-.06,19.61,0A7.9,7.9,0,0,1,139.79,102.48Z"/><path class="cls-3" d="M139.79,102.48l-28.3.09L87.92,64.94c-.88-1.4-2.37-2.81-1.24-4.68,1-1.66,2.81-1.3,4.4-1.3,5.43,0,10.86.1,16.28,0,3.61-.09,5.9.8,8,4.35,3.24,5.4,6.9,10.62,10.16,16C130.23,87.07,135.65,94.38,139.79,102.48Z"/><path class="cls-4" d="M143.1,107.06l18.85,30c1.63,2.59,3.32,5.14,4.87,7.78s.73,4.29-2.28,4.34c-7,.1-14.09,0-21.13,0a4.33,4.33,0,0,1-3.95-2.32c-3.32-5.39-6.66-10.77-10.09-16.09a2.66,2.66,0,0,1,.12-3.4C133.95,120.83,138.34,114.2,143.1,107.06Z"/><path class="cls-5" d="M153.48,59c3.23,0,6.47-.06,9.7,0,4,.09,4.91,1.73,2.79,4.93-7,10.47-14,20.9-20.9,31.37-1.1,1.66-1.85,2.15-3.11.08-3.67-6-7.46-11.9-11.25-17.8a3.11,3.11,0,0,1,0-4c2.67-3.75,5.25-7.57,7.68-11.48a6.21,6.21,0,0,1,6-3.15C147.47,59,150.48,59,153.48,59Z"/><path class="cls-1" d="M49.38,185.25H39.69v7.33H50.52v3.74H35v-25H50v3.74H39.69v6.44h9.69Z"/><path class="cls-1" d="M68.41,196.32l-2.78-5c-1.11-1.92-1.83-3.26-2.55-4.7H63c-.61,1.44-1.3,2.78-2.33,4.7l-2.56,5H52.7l7.63-12.62L53,171.37h5.38l2.78,5.15c.84,1.55,1.45,2.78,2.14,4.18h.08c.69-1.55,1.22-2.67,2-4.18l2.75-5.15h5.38L66,183.55l7.82,12.77Z"/><path class="cls-1" d="M94.42,195.58a16.68,16.68,0,0,1-6.64,1.11c-8.16,0-13.12-5-13.12-12.55,0-8.22,5.87-13.18,13.73-13.18a15.14,15.14,0,0,1,6.25,1.11l-1,3.63a12.82,12.82,0,0,0-5-1c-5.22,0-9,3.18-9,9.18,0,5.48,3.32,9,9,9a13.46,13.46,0,0,0,5.11-.93Z"/><path class="cls-1" d="M103.11,171.37v10H114v-10h4.69v25H114v-11H103.11v11H98.42v-25Z"/><path class="cls-1" d="M129.2,189.25l-2.2,7.07h-4.84l8.24-25h6l8.35,25h-5l-2.33-7.07Zm7.36-3.44-2-6.14c-.5-1.52-.92-3.22-1.3-4.66h-.08c-.38,1.44-.76,3.18-1.22,4.66l-2,6.14Z"/><path class="cls-1" d="M148.3,196.32v-25h5.34l6.64,10.7a68,68,0,0,1,4.39,8.37h.08c-.31-3.33-.42-6.55-.42-10.36v-8.7h4.35v25h-4.84l-6.71-11a86.05,86.05,0,0,1-4.61-8.63h-.11c.19,3.22.23,6.51.23,10.62v8.92Z"/><path class="cls-1" d="M194.67,195.17a26.12,26.12,0,0,1-8.27,1.41c-4.35,0-7.63-1.07-10.07-3.33a12.16,12.16,0,0,1-3.59-9.18c0-7.89,5.8-13,14.3-13a17.51,17.51,0,0,1,6.83,1.18l-1,3.67a14.21,14.21,0,0,0-5.83-1.07c-5.49,0-9.34,3.15-9.34,9s3.59,9,8.92,9a9.23,9.23,0,0,0,3.55-.52v-6.22H185.6v-3.59h9.08Z"/><path class="cls-1" d="M213.86,185.25h-9.69v7.33H215v3.74H199.48v-25h14.95v3.74H204.17v6.44h9.69Z"/></svg>