<?xml version="1.0" encoding="utf-8"?>
<!-- Generator: Adobe Illustrator 21.1.0, SVG Export Plug-In . SVG Version: 6.00 Build 0)  -->
<svg version="1.1" id="Layer_1" xmlns="http://www.w3.org/2000/svg" xmlns:xlink="http://www.w3.org/1999/xlink" x="0px" y="0px"
	 viewBox="0 0 201 57.7" style="enable-background:new 0 0 201 57.7;" xml:space="preserve">
<style type="text/css">
	.st0{fill:#6E1E1F;}
</style>
<title>Casual dining</title>
<path class="st0" d="M20.9,16.5c-0.3,0.7-0.6,1.3-0.9,2c-0.4,1.1-0.9,2.2-1.5,3.3c-0.5,0.8-0.7,1.8-1.1,2.7c-0.9,1.6-1.5,3.4-2.2,5
	c-0.1,0.3-0.3,0.6-0.4,0.9c-0.1,0.1-0.1,0.4-0.3,0.3s-0.2-0.2-0.3-0.4c-0.8-1.7-1.6-3.3-2.4-4.9c-0.2-0.5-0.4-1-0.7-1.4
	c-1.6-2.1-2.3-4.7-3.5-7c0.2,0.8,0.2,1.5,0.2,2.3c-0.1,1.7,0.2,3.4,0.1,5.1c0,1.8,0,3.7,0,5.5c0,0.3-0.1,0.4-0.5,0.4
	c-2.1,0-4.3,0-6.4,0c-0.4,0-0.5-0.1-0.5-0.5c0-2.4-0.1-4.8,0.1-7.1c0-0.5,0-1.1,0.1-1.7c0-0.3-0.1-0.6-0.1-0.9
	C0.6,15,0.6,9.8,0.7,4.6c0-0.7,0-1.4,0-2.1c0-0.5,0.1-0.6,0.6-0.6c2.1,0,4.1,0,6.2,0C7.7,1.9,8,2,8.1,2.3c1.1,3.1,2.7,5.9,3.9,8.9
	c0.5,1.2,1,2.3,1.4,3.5c0.4,0.9,0.7,1.9,1,2.8c0.3-0.5,0.5-1,0.7-1.5c0.3-0.8,0.6-1.6,1-2.4c0.7-1.6,1.5-3.1,2.2-4.8
	s1.5-3.1,2.2-4.6c0.2-0.5,0.3-1.2,0.9-1.6c0.2-0.1,0.4-0.2,0.6-0.2c2,0,4.1,0,6.1,0c0.4,0,0.5,0.1,0.5,0.5c0,3.5,0,7,0,10.6
	c0,1.6,0,3.2,0,4.8c0,0.6,0,1.2-0.2,1.8c-0.2,0.5,0.1,0.8,0.1,1.1c0,2.8,0,5.6,0,8.3c0,0.5-0.2,0.6-0.6,0.6c-1.3,0-2.6,0.1-3.9,0
	c-0.9-0.1-1.8-0.1-2.7-0.2c-0.3,0-0.2-0.2-0.2-0.4c0-0.9,0-1.7,0.1-2.6c0-0.5,0-1-0.1-1.5c0.1-1.6-0.1-3.1,0-4.6
	c0-0.9-0.2-1.9-0.2-2.8C20.9,17.4,21.1,17,20.9,16.5z M3.8,19.3c0,0-0.1,0.1-0.1,0.1c0.5,0.4-0.1,0.5-0.3,0.7s-0.1,0.2,0,0.3
	c0.1,0,0.2,0,0.3,0c0.2,0,0.1-0.1,0-0.2C3.6,20,3.9,20,4,20c0.1-0.1,0.3-0.1,0.2-0.3C4.1,19.5,4,19.4,3.8,19.3L3.8,19.3z"/>
<path class="st0" d="M143.2,1.9c0.3,0.2-0.1,0.5,0.1,0.6c0.5,0.2,0.9,0.6,1.4,0.4c0.2-0.1,0.5-0.1,0.7,0c0.3,0.1,0.7,0.3,1,0.1
	c0.2-0.1,0.3,0.1,0.5,0.2c0.4,0.2,0.7,0.4,1.1,0.1s0.6,0.2,0.7,0.5s0.1,0.2,0.2,0.3c1.6,0.6,2.9,1.9,3.6,3.4c0.7,1.8,1,3.8,0.7,5.7
	c-0.2,1.6-1,3.2-2.1,4.4c-0.6,0.6-1.3,1.1-2.1,1.5c-0.6,0.3-0.7,0.4-0.3,1c0.6,0.9,1.2,1.9,1.5,2.9c0.1,0.2,0.3,0.2,0.4,0.4
	c0.5,1.3,1.1,2.5,1.8,3.7c0.5,0.9,1,1.7,1.4,2.7h-7.3c-1.5,0-1.5,0-2.1-1.4c-0.8-1.9-1.6-3.8-2.5-5.7c-0.4-0.7-0.7-1.4-1-2.1
	c-0.1-0.2-0.2-0.3-0.4-0.3c-0.8,0-1.5,0-2.3,0c-0.3,0-0.4,0.1-0.4,0.4c0,2.5,0,4.9,0,7.4c0.1,0.6,0.1,1.3-0.1,1.9
	c0,0.1-0.2,0.3,0.1,0.3s0.5,0.2,0.6-0.2s-0.2-1,0.4-1.3c0,0,0-0.2,0-0.2c-0.6-0.2-0.3-0.7-0.3-1c-0.1-2.1,0.2-4.1,0.1-6.2
	c0-0.4,0.1-0.4,0.4-0.4s0.6,0,0.9,0c0.8,0,1,0.5,0.7,1.2c0,0.2,0,0.4,0,0.6c0,2.7,0,5.4,0,8.1c0,0.4-0.1,0.6-0.6,0.6
	c-2.3-0.2-4.6-0.1-6.8-0.1c-0.4,0-0.4-0.2-0.4-0.5s-0.1-0.5-0.5-0.5c-0.7,0-1.3,0-2,0c-0.5,0-0.5-0.2-0.5-0.6c0.1-4.1,0-8.2,0-12.3
	c0-2.6,0-5.2,0-7.9c0-2.1,0-4.2,0-6.4c0-0.6,0.3-0.7,0.8-0.7c1.8,0,3.7,0.1,5.5,0c0.7,0,1.4,0.1,2.2,0s1.6,0,2.4,0
	c0.3,0,0.6,0.2,0.8-0.2c0-0.1,0.1,0,0.2,0.1c0.2,0.2,0.6,0.2,0.8,0c0.1-0.1,0.1-0.2,0.1-0.3C142.8,2,143,2,143.2,1.9z M137.9,11.1
	c0,0.8,0,1.7,0,2.5c0,0.4,0.1,0.5,0.5,0.5c1.5,0,3,0,4.5,0c0.7,0,1.4-0.2,1.9-0.6c0.8-0.7,1.2-1.9,0.9-2.9c-0.1-1.1-0.9-2-2-2.2
	c-1.8-0.1-3.5,0.1-5.2-0.2c-0.5-0.1-0.6,0.1-0.6,0.6C138,9.5,137.9,10.3,137.9,11.1z M147.2,3.8c0-0.4-0.2-0.6-0.6-0.5
	c-0.4,0.2-0.8,0.5-1,0.9c0,0.1,0,0.2,0,0.2s0.2,0.1,0.3,0s0.2-0.3,0.4-0.1s0.2,0.1,0.3,0s0.1-0.4,0.5-0.3
	C147.1,4,147.2,3.9,147.2,3.8L147.2,3.8z M142.4,4c-0.1,0.1-0.2,0.3-0.2,0.4c0,0.3,0.2,0.2,0.4,0.2s0.3-0.1,0.3-0.3
	S142.6,4.1,142.4,4L142.4,4z"/>
<path class="st0" d="M187.3,22.4c-1.8-0.3-3.7-0.8-5.5-1.4c-0.4-0.2-1.1-0.2-1.1-1c0-0.2-0.3-0.4-0.5,0c-0.1,0.2-0.2,0.3-0.3,0.2
	c-0.5-0.5-1.3-0.7-1.8-1.3c-0.1-0.1-0.2-0.1-0.1-0.3c0.1-0.1,0.2-0.1,0.3,0c1.1,0.5,2.3,0.9,3.5,1.2c1.1,0.3,2.2,0.6,3.4,0.7
	c0.8,0.2,1.6,0.6,2.3,1c0-0.7-0.3-1.1-1.1-1.4c-0.9-0.3-1.8-0.6-2.7-0.8c-1-0.2-2-0.4-3-0.7c-1-0.2-1.9-0.5-2.9-0.8
	c-1.8-0.8-3.4-1.8-4.1-3.8c-0.7-2-0.8-4.2-0.3-6.2c0.4-1.4,1.2-2.6,2.3-3.6c1-0.9,2.1-1.5,3.4-1.9c2.3-0.6,4.7-0.8,7.1-0.6
	c1.5,0.1,3.1,0.4,4.6,0.7c1,0.2,1.9,0.6,2.7,1.1c0.5,0.3,1,0.7,1.5,1c0.3,0.2,0.3,0.3,0.2,0.6c-0.8,1.5-1.6,2.9-2.5,4.4
	c-0.3,0.4-0.5,0.8-0.8,1.2c-0.2,0.4-0.4,0.1-0.6,0c-1.3-0.9-2.8-1.6-4.4-1.9c-1.4-0.4-2.9-0.4-4.3-0.2c-0.6,0.1-1.2,0.6-1.3,1.3
	c0,0.6,0.4,1.2,0.9,1.4c1.1,0.5,2.2,0.8,3.4,1c1,0.1,2,0.4,3,0.8c0.3,0.1,0.6,0.2,0.9,0.2c0.3,0.1,0.6,0.2,0.1,0.6
	c1.7,0.1,3.4,0.8,4.6,2.1c1.2,1.2,1.8,2.8,1.8,4.5c0.1,1.5,0,3.1-0.5,4.6c-0.5,1.4-1.4,2.6-2.5,3.4c-1.6,1.1-3.5,1.8-5.5,1.8
	c-1.2,0.1-2.4,0.1-3.6,0.1c-2.4-0.1-4.8-0.5-7-1.3c-1.5-0.6-2.9-1.4-4.3-2.2c-0.4-0.2-0.4-0.5-0.2-0.7c0.6-0.8,0.8-1.8,1.6-2.5
	c0.2-0.1,0.1-0.4,0.3-0.6s0.4,0.4,0.5,0c0-0.1-0.4-0.2-0.3-0.5c0.2-0.7,0.5-1.4,1-1.9c0.2-0.3,0.6-0.1,0.8,0.1c1.4,1,3,1.7,4.7,2.1
	c1.8,0.5,3.7,0.6,5.6,0.2C186.9,22.8,187.2,22.8,187.3,22.4z"/>
<path class="st0" d="M116.3,30.1c-2.2,0-4.3,0.1-6.5,0s-4.1-0.1-6.2-0.1c-0.5,0-0.6-0.3-0.6-0.7c0-1.3,0-2.7,0-4
	c0-5.3,0-10.6,0-15.9c0-2.2,0-4.3,0-6.5c0-0.5,0.1-0.6,0.6-0.6c1.1,0,2.2,0,3.3,0c0.2,0,0.5-0.1,0.6,0.3c0,0.2,0.4,0.2,0.4,0
	c-0.1-0.5,0.3-0.3,0.5-0.3h15.4c0.3,0,0.8-0.1,0.4,0.5c-0.2,0.3,0,0.7,0,1.1c-0.1,0.6-0.1,1.2-0.1,1.8c0.1,0.7,0.1,1.3,0.1,2
	c0.1,1.1,0,1.1-1.1,1.1c-4,0-7.9,0-11.9,0c-0.5,0-0.6,0.1-0.6,0.6c0,1,0,2,0,3c0,0.4,0.1,0.6,0.5,0.6c2.3,0,4.6,0,7,0
	c0.5,0,0.6,0.1,0.6,0.6c0,1.7,0,3.3-0.1,5c0,0.3-0.1,0.4-0.4,0.4c-2.2,0-4.4,0-6.6,0c-0.3,0-0.6,0-0.9,0s-0.3,0.1-0.3,0.3
	c0,1.3,0,2.6,0,3.9c0,0.4,0.2,0.4,0.5,0.4h3.9c3.1,0,6.1,0,9.2,0c0.5,0,0.6,0.1,0.6,0.6c0,1.8,0,3.7,0,5.5c0,0.5-0.2,0.6-0.6,0.6
	C121.4,30.1,118.9,30.1,116.3,30.1z M109,11.3c0.1,0.4,0.6,0,0.6,0.4c0,0.2-0.2,0.3,0.1,0.4c0.1,0,0.2,0,0.2-0.1
	c0.1-0.2,0-0.5,0.2-0.7C109.7,11.4,109.4,10.8,109,11.3L109,11.3z"/>
<path class="st0" d="M52.6,21.6c-0.1-0.1-0.3-0.1-0.4-0.2c-0.1-0.1-0.1-0.2-0.2-0.1s-0.1,0.2,0,0.3s0.1,0.2-0.1,0.2
	s-0.2,0.1-0.3-0.1s-0.3-0.5-0.2-0.7c0.1-0.3,0.2-0.7,0.1-1.1c0-5.6,0-11.2,0-16.8c0-0.5,0.1-0.7,0.7-0.7c2.2,0,4.4,0,6.5,0
	c0.5,0,0.7,0.1,0.6,0.6c0,0.2,0,0.3,0,0.4c0,0.5,0,0.8,0.7,0.5c0.4-0.2,0.7,0.1,1.1,0.1c0.2,0,0.2,0.2,0.2,0.4
	c-0.1,1.8,0.1,3.6-0.1,5.4c-0.1,1.3,0,2.7,0,4c0,1.6,0.2,3.2,0.1,4.8c-0.1,0.3,0,0.6,0.1,0.9c0.2,0.4-0.3,0.3-0.5,0.5
	c0.6-0.1,0.6,0.2,0.4,0.6c0,0.1,0,0.3,0,0.4c0.1,0.4,0.1,0.7,0,1.1c-0.2,0.4-0.7,0.1-1,0.2c-0.1,0-0.2,0.1-0.3,0.2
	c-0.3,0.2-0.4,0.1-0.4-0.3c0-3.1,0-6.1,0-9.2c0-0.8,0-1.6,0.1-2.4h-0.2c0,0.2,0,0.3,0,0.4c0,1.7,0,3.3,0,5c0,1.1-0.1,2.2-0.2,3.3
	c-0.1,1,0,2-0.1,3c0,0.2-0.4,0.3-0.2,0.7s0.3,0.3,0.6,0.3c0.6-0.1,1.3-0.1,1.8,0.1c0.1,0,0.2,0.1,0.2,0c0.3-0.5,0.8-0.3,1.2-0.3
	c2.6,0,5.3,0,7.9,0c0.4,0,0.6,0.1,0.6,0.6c0,1.9,0,3.8,0,5.7c0,0.4-0.1,0.6-0.6,0.5c-1.5-0.1-3-0.1-4.6-0.1c-4.8,0.1-9.5,0-14.3,0.1
	C51,30,51,30,51,29.1c0-0.7,0-1.4,0-2.1c0-0.4,0-0.8,0.5-1c0.1,0,0.1-0.1,0.1-0.1c-0.1-0.6,0.4-1.3-0.1-1.8c-0.1-0.1-0.1-0.1,0-0.2
	c0.3-0.3,0.3-0.4-0.1-0.7c-0.1-0.1-0.2-0.2-0.1-0.3C51.8,22.5,51.9,21.8,52.6,21.6z"/>
<path class="st0" d="M76.4,26.6c-0.1-2.9,0.2-5.8,0.1-8.7c0-0.2-0.1-0.4,0.3-0.5s0.1-0.3,0-0.4c-0.2-0.3-0.3-0.7-0.3-1.1
	c0.2-4.3,0.1-8.5,0.1-12.8c0-0.3,0.1-0.6,0.1-0.9c0-0.3,0.2-0.2,0.4-0.2c1.3,0,2.7,0,4,0.1c0.5,0.1,0.9,0,1.4-0.2
	c0.2-0.1,0.9,0.3,1.3,0.1c0.8-0.3,0.8,0.2,0.8,0.8s0,1,0,1.5c0,0.2,0.1,0.4-0.2,0.4c-0.1,0-0.1,0.1-0.1,0.2c0.6,1.1,0.2,2.2,0.3,3.4
	c0.1,1.8-0.2,3.7-0.1,5.5c0,0.3,0.1,0.6-0.2,0.8s0.3,0.2,0.2,0.5c-0.1,1.2,0.2,2.5-0.2,3.7c-0.1,0.3,0.2,0.4,0.2,0.6
	c0.1,0.9,0.1,1.8,0,2.8c0,0.4,0.1,0.9,0.2,1.3c0,0.2,0.3,0.1,0.4,0.1c0.8,0,1.7,0,2.6,0c0.3,0,0.6,0,0.7,0.4c0,0.1,0.1,0.2,0.2,0.2
	c0,0,0.1,0,0.1,0c0.2,0,0.1-0.2,0.1-0.3c-0.2-0.3,0.1-0.3,0.3-0.3c2.5,0,5,0.1,7.5,0.1c0.4,0,0.3,0.3,0.3,0.5
	c0.1,1.4-0.1,2.8-0.1,4.3c0,0.5,0,1.1,0,1.6c0,0.3-0.1,0.4-0.4,0.4c-2.1-0.2-4.2,0-6.3-0.2s-4.1,0-6.2-0.1c-0.7-0.1-1.3-0.1-2,0
	c-1.6,0.6-3.2,0.1-4.7,0.3c-0.5,0.1-0.7-0.1-0.7-0.6C76.5,28.7,76.4,27.6,76.4,26.6z"/>
<path class="st0" d="M43.2,10.6c0,2.7-0.1,5.5,0,8.2c0,0.8,0.1,1.6,0.1,2.4c0,2.6,0,5.2,0,7.8c0,0.5-0.2,0.6-0.6,0.6
	c-2.2,0-4.5,0-6.7,0c-0.4,0-0.5-0.1-0.6-0.6c-0.2-1.9-0.3-3.8-0.2-5.7c0.1-1.3,0.1-2.7,0-4c0-1.5,0.1-3-0.1-4.6
	c-0.1-0.3,0-0.7,0.2-1c0.1-0.2-0.1-0.3-0.1-0.6c0.1-2.6,0-5.2,0-7.8c0-1,0-2,0-3c0-0.4,0.1-0.5,0.5-0.5c2.3,0,4.6,0,6.9,0
	c0.4,0,0.5,0.1,0.5,0.5C43.2,5.1,43.2,7.8,43.2,10.6L43.2,10.6z"/>
<path class="st0" d="M85.7,48.5c0-2.6,0-5.3,0-7.9c0-0.6,0.2-0.9,0.8-0.8c0.5,0,1,0,1.5,0c0.4,0,0.5,0.1,0.5,0.5c0,2,0,4,0,6
	c0,0.5,0.1,0.6,0.6,0.6c1.9,0,3.7,0,5.6,0c0.5,0,0.7-0.2,0.7-0.7c0-1.9,0-3.9,0-5.8c0-0.4,0.1-0.6,0.6-0.6c1,0,1.9,0,2.9,0
	c0.4,0,0.5,0.1,0.5,0.5c-0.1,2.8,0.2,5.6,0.1,8.4c-0.1,2.3,0.1,4.6,0.1,6.9c0,0.5-0.1,0.9-0.1,1.4c0,0.2-0.2,0.2-0.3,0.2h-3.3
	c-0.3,0-0.4-0.1-0.4-0.4c0-1.2,0-2.4,0-3.6c0-1.1,0-2.2,0-3.4c0-0.3-0.1-0.3-0.3-0.3c-2.1,0-4.1,0-6.2,0c-0.5,0-0.4,0.3-0.4,0.6
	c0,2.1,0,4.3,0,6.4c0,0.6-0.2,0.8-0.8,0.8c-0.5,0-1,0-1.5,0c-0.5,0-0.6-0.1-0.6-0.6C85.7,53.9,85.7,51.2,85.7,48.5z"/>
<path class="st0" d="M117.2,39.2c2.5-0.2,4.8,0.9,6.2,3c0.7,1,1.2,2.2,1.3,3.5c0,0.7,0.1,1.4,0.3,2c0.1,0.3,0,0.4-0.2,0.5
	s-0.4,0.4,0,0.7c0.2,0.1,0.2,0.3,0.2,0.5c-0.1,1.1-0.3,2.1-0.7,3.1c-0.1,0.3-0.3,0.6-0.6,0.9c-0.2,0.1-0.2,0.7-0.4,0
	c0-0.1-0.2,0-0.2,0.1s-0.4,0.1-0.2,0.3c0.3,0.6-0.4,0.7-0.5,1.2c-0.2,0.5-0.7,0.8-1.2,0.7c-0.2,0-0.4,0-0.4,0.1
	c-0.3,0.7-0.9,0.6-1.5,0.7c-1.5,0.3-3,0.2-4.4-0.2c-1.9-0.6-3.5-2.1-4.2-4.1c-0.7-1.7-0.9-3.5-0.7-5.3c0-1.2,0.2-2.3,0.6-3.4
	c0.6-1.6,1.8-2.9,3.3-3.7C114.9,39.2,116,39,117.2,39.2z M117.2,41.9c-2,0-3.7,1.3-4.1,3.2c-0.1,0.6-0.2,1.1-0.3,1.7
	c-0.3,1.9,0.1,3.8,1,5.5c0.8,1.5,3.8,2.3,5.4,1.5c1.1-0.5,1.9-1.5,2.3-2.6c0.6-1.7,0.7-3.6,0.4-5.4C121.4,43,119.6,42.1,117.2,41.9
	L117.2,41.9z M121.3,53.7c0.3-0.1,0.7,0.3,0.8-0.2c0.1-0.1-0.2-0.6-0.3-0.6C121.4,52.9,121.6,53.5,121.3,53.7L121.3,53.7z"/>
<path class="st0" d="M188.7,38.7c1.7,0,3.4,0,5.1,0c0.4,0,0.6,0.1,0.6,0.6c-0.1,0.6,0.2,1.5-0.1,1.9s-1.2,0.1-1.8,0.1
	c-1.7,0-3.3,0-5,0c-0.4,0-0.6,0-0.5,0.6c0.1,1,0.1,2.1,0,3.1c0,0.4,0.1,0.6,0.6,0.6c1,0,1.9,0,2.9,0c0.4,0,0.6,0.1,0.6,0.5
	c0,0.5,0,1.1,0,1.6c0,0.4-0.1,0.6-0.6,0.6c-1,0-2,0-3,0c-0.3,0-0.4,0.1-0.4,0.4c0,1.5,0,3,0,4.4c0,0.3,0.1,0.4,0.4,0.4
	c1.8,0,3.6,0,5.4,0c0.6,0,1.1-0.1,1.7-0.1c0.3,0,0.5,0,0.4,0.5c-0.1,0.5-0.1,1,0,1.5c0,0.5-0.2,0.6-0.6,0.5s-0.8,0-1.2-0.3
	c-0.1,0-0.2,0-0.2,0c-0.7,0.3-1.5,0.3-2.3,0.2c-2.4,0.1-4.8,0-7.1,0c-0.4,0-0.6-0.1-0.6-0.6c0.3-5.3,0.1-10.6,0.1-16
	c0-0.4,0.1-0.5,0.5-0.5C185.2,38.7,186.9,38.7,188.7,38.7z"/>
<path class="st0" d="M17,56.3c-0.9,0-1.8,0-2.7,0c-0.6,0-0.6-0.7-0.7-1.1c0-0.5-0.2-0.9-0.5-1.2c-0.3-0.3-0.5-0.8-0.5-1.2
	c-0.1-0.4-0.3-0.5-0.7-0.5c-1.5,0-3.1,0-4.6,0c-0.5,0-1,0-1.6,0c-0.3,0-0.5,0.2-0.5,0.5c-0.3,1-0.6,2-0.9,2.9
	c-0.1,0.3-0.2,0.4-0.6,0.4c-0.7,0.1-1.3,0.1-2,0.1c-0.5,0-0.6-0.1-0.4-0.6c0.5-1.5,1.1-3,1.6-4.6s0.8-2.8,1.3-4.2
	c0.3-0.6,0.5-1.3,0.7-2c0-0.1,0.1-0.2,0.2-0.3c1.2-0.8,1-2.1,1.5-3.2C7,40.7,7.3,40,7.6,39.2c0.1-0.2,0.2-0.3,0.4-0.3
	c0.8,0,1.5,0,2.3,0s0.7,0.6,0.8,1c0.5,1.9,1.2,3.7,1.9,5.5c0.1,0.3-0.1,0.3-0.2,0.4s-0.3,0.2-0.2,0.4s0.2,0.1,0.3,0.1
	c0.5-0.1,0.5,0.4,0.6,0.7c0.3,1,0.5,1.9,0.8,2.9c0.5,1.6,1.1,3.2,1.7,4.8c0.2,0.6,0.1,1.4,1.1,1.6L17,56.3z M10.6,49.9
	c-0.5-2.5-1.5-4.8-2.2-7.2c-0.1,0.6-0.4,1.1-0.5,1.7c-0.2,1.4-0.6,2.7-1.2,3.9c-0.2,0.4-0.2,0.9-0.5,1.3c-0.1,0.2,0,0.3,0.2,0.4
	c0.8,0.1,1.6-0.3,2.4,0.2C9.3,49.7,10,50.1,10.6,49.9L10.6,49.9z"/>
<path class="st0" d="M55.5,41.7c-1.3,0-2.5,0-3.8,0c-0.4,0-0.6,0.1-0.6,0.5c0,1,0,2,0,3c0,0.4,0.2,0.5,0.5,0.5
	c1.3,0.1,2.6-0.2,4-0.1c0.5,0,0.7,0.1,0.7,0.7c0,0.5,0,1.1,0,1.6c0,0.4-0.2,0.5-0.5,0.5c-0.8,0.1-1.6,0.1-2.4,0
	c-0.6-0.1-1.1,0-1.7-0.1c-0.4,0-0.5,0-0.5,0.5c0,1.5,0.2,3,0.1,4.6c0,0.5,0.3,0.4,0.6,0.4c2.6,0,5.1,0,7.7,0c0.6,0,0.8,0.1,0.7,0.7
	s0,1-0.1,1.4s-0.3,0.5-0.7,0.5c-1.3-0.1-2.7-0.1-4-0.1c-2.2,0.1-4.3,0-6.5,0.1c-0.5,0-0.7-0.1-0.6-0.6c0.1-2.6,0-5.2,0.1-7.7
	c0-2.3,0-4.7,0-7c0-0.5,0-1,0-1.6c0-0.1,0-0.4,0.2-0.3c0.4,0.3,0.7,0,1,0c3.3,0,6.5,0,9.8,0c0.4,0,0.6,0.1,0.6,0.6c0,0.5,0,1,0,1.5
	c0,0.5-0.1,0.7-0.6,0.6C58,41.7,56.7,41.7,55.5,41.7z"/>
<path class="st0" d="M145.8,45.3c0-2.1,0-3.8,0-5.6c0-0.4,0.1-0.6,0.5-0.5c0.6,0,1.2,0,1.9,0c0.4,0,0.5,0.1,0.5,0.5
	c0,1.8,0.1,3.7,0,5.5c0.1,0.8,0,1.6-0.1,2.4c-0.6,1.6-0.1,3.4-0.8,5c-0.6,2-2.3,3.6-4.4,4c-0.2,0-0.9,0.4-0.8-0.4
	c0,0-0.3-0.3-0.5-0.1s-0.5,0-0.3,0.3s-0.1,0.3-0.2,0.3c-1.7,0.3-3.5-0.2-4.8-1.4c-1-1-1.6-2.3-1.8-3.7c-0.2-1.5-0.2-3.1-0.1-4.6
	c0.1-2.4,0.1-4.8,0.1-7.1c0-0.4,0.1-0.5,0.5-0.4c0.6,0,1.2,0,1.8,0c0.5,0,0.6,0.2,0.7,0.7c0,0.7-0.1,1.5,0,2.2c0.1,1.5,0,3.1,0,4.6
	c0,1,0,2.1,0,3.1c0,0.9,0.3,1.8,0.8,2.6c0.5,0.7,1.1,1.1,1.9,1.3c0.9,0.2,1.8,0.2,2.7,0c1.2-0.5,2.1-1.5,2.3-2.8
	C145.9,49,145.7,47,145.8,45.3z"/>
<path class="st0" d="M167.7,47.4c0.5-0.5,0.8-0.2,1.2-0.1c1.1,0.3,2,0.9,2.6,1.8c0.7,0.8,0.9,2,0.5,3c-0.1,0.2,0,0.4-0.1,0.6
	s-0.2,0.8-0.7,0.4c-0.1,0.3,0.1,0.3,0.2,0.5s0.2,0.3,0,0.3c-0.6,0-0.4,0.6-0.6,0.8c-0.5,0.5-1,1-1.6,1.3c-0.8,0.3-1.7,0.5-2.5,0.6
	c-1.9,0.1-3.9,0.1-5.6-1.1c-0.7-0.4-1.2-1-1.9-1.5c-0.1-0.1-0.1-0.2-0.1-0.4c0,0,0-0.1,0.1-0.1c0.5-0.4,1-0.9,1.4-1.4
	c0.2-0.2,0.4-0.2,0.6,0c0.8,0.7,1.8,1.2,2.9,1.5c1.2,0.3,2.4,0.3,3.6,0.1c0.7-0.1,1.5-1.1,1.6-1.9c0.1-0.8-0.3-1.7-1.1-2
	c-1.1-0.5-2.2-0.8-3.4-1c-1.2-0.2-2.4-0.7-3.4-1.3c-1.4-1-2-2.7-1.6-4.3c0.4-2.1,1.7-3.2,3.7-3.7c2.1-0.6,4.4-0.3,6.3,0.8
	c0.2,0.1,0.4,0.3,0.6,0.4c1.2,0.9,0.8,1,0,1.8h-0.1c-1,1.4-1.8,0.1-2.7-0.2c-1.5-0.5-3-0.9-4.5,0.1c-0.7,0.5-0.9,1.6-0.4,2.3
	c0.1,0.1,0.1,0.2,0.2,0.3c0.8,0.6,1.7,1,2.6,1.1c0.4,0.1,0.8,0.3,1.3,0.3C167.5,46.5,167.8,46.8,167.7,47.4z"/>
<path class="st0" d="M26.5,51.2c0-1.5,0-2.9,0-4.4c0-2.3,0-4.7,0-7c0-0.4,0.1-0.5,0.5-0.5c1.1,0,2.2,0,3.3,0c0.4,0,0.5,0.2,0.5,0.5
	c-0.1,1.8-0.1,3.5,0,5.3c0,2.7,0,5.4,0,8.2c0,0.4,0.2,0.5,0.6,0.5c1.2,0,2.4,0,3.6,0c1,0,2,0.1,2.9,0.1c0.2,0,0.4,0,0.3,0.3
	c0.1,0.5,0,1.1-0.1,1.6c0,0-0.1,0-0.1,0.1c0,0.7,0,0.7-0.7,0.7c-2.5,0-5,0.1-7.4,0c-0.9,0-1.8,0-2.8,0c-0.4,0-0.6-0.1-0.6-0.6
	C26.6,54.4,26.5,52.8,26.5,51.2z"/>
<path class="st0" d="M44.1,26.8c0.1-0.9,0-2,0.1-3.1c0.1-0.9,0-1.9,0-2.8c0-0.8,0-1.6-0.2-2.4C44,18.1,44,17.6,44,17.2
	c0-4.3,0-8.5,0-12.8c0-0.5,0.1-0.7,0.6-0.6c1.3,0,1.2,0,1.3,1.3c0.3,4.6,0,9.3,0.1,13.9c0,2.6,0,5.1,0,7.7c0,1.1,0,2.1,0.1,3.2
	c0,0.5-0.2,1-0.2,1.6c0,0.3-0.2,0.2-0.4,0.2c-1.5,0-3,0-4.6,0c-0.9,0-1.7,0-2.6,0c-0.7,0-0.3-0.5-0.4-0.7s0-0.5,0.4-0.5
	c1.6,0,3.2,0,4.8,0c0.6,0,0.8-0.1,0.8-0.8C44.1,28.8,44.1,27.9,44.1,26.8z"/>
<path class="st0" d="M196.8,18.8c0.6,0.5,1.1,1.2,1.3,2c0.3,1,0.5,2.1,0.5,3.2c0,0.4-0.1,0.9-0.3,1.3c-0.2,0.5-0.3,1-0.3,1.6
	c-0.2,1.3-0.9,2.5-1.9,3.4c-0.7,0.7-1.5,1.3-2.5,1.6c-0.5,0.2-0.9,0.4-1.4,0.6c-0.6,0.2-1.2,0.4-1.9,0.4c-1.2,0.1-2.4,0.2-3.6,0.1
	c-0.3-0.1-0.6,0-0.9,0.2c-0.2,0.1-0.7-0.1-1.1-0.2c-1-0.2-2-0.2-3-0.5c-2.3-0.5-4.5-1.3-6.5-2.4c-0.1-0.1-0.2-0.2-0.1-0.3
	s0.2-0.3,0.4-0.2c1,0.4,2,0.7,3,0.9c1.8,0.4,3.6,0.7,5.5,0.7c2.2,0,4.4-0.2,6.5-0.8c1.1-0.3,2.1-0.9,3-1.6c1.5-1.2,2.5-2.9,2.9-4.7
	c0.4-1.4,0.4-2.9,0.1-4.3c0-0.1,0-0.2,0-0.3C196.8,19.2,196.8,19.1,196.8,18.8z"/>
<path class="st0" d="M30.9,10.2c0,1.8,0,3.6,0,5.4c0,0.5-0.1,1.1-0.1,1.6c0.1,1.5,0.1,2.9,0,4.4c0,0.7,0,1.3,0,2
	c0,0.3,0.1,0.6-0.2,0.7c0,0-0.1,0.1-0.1,0.2c0.7,0.8,0.2,1.7,0.2,2.5c0,1.4,0,2.8,0,4.2c0,0.7-0.2,0.8-0.8,0.8c-2,0-4,0-6,0
	c-0.3,0-0.6,0-0.5-0.4c0.1-0.3-0.3-0.7,0.4-0.8c1.5-0.1,3-0.1,4.6-0.1c0.5,0,0.7-0.1,0.7-0.7c0-2.5,0-5.1,0-7.6
	c0.1-1.6,0-3.1-0.1-4.7c-0.1-1.5-0.2-3.1-0.1-4.7c0.2-2.9,0.1-5.7,0.1-8.6C29,4.1,29.1,4,29.5,4c1.3,0,1.3,0,1.3,1.2
	C30.9,6.9,30.9,8.5,30.9,10.2z"/>
<path class="st0" d="M116,32.4c-3.4,0-6.7,0-10.1,0c-0.5,0-0.7-0.1-0.7-0.7c0-1.1,0-1.1,1.1-1.1c6,0,12.1,0,18.1,0
	c0.5,0,0.7-0.1,0.7-0.7c0-1.2,0-2.4,0-3.6c0-0.4,0.1-0.6,0.5-0.5s1-0.2,1.3,0.1s0,0.8,0,1.3c-0.2,1.5-0.2,2.9-0.1,4.4
	c0,0.7-0.2,0.8-0.8,0.8C122.7,32.4,119.3,32.4,116,32.4z"/>
<path class="st0" d="M156.5,12.9c0.1,1.5-0.2,3-0.9,4.3c-0.7,1.3-1.7,2.4-3,3.1c-0.3,0.2-0.6,0.3-0.8,0.6c-0.3,0.2,0,0.7,0.2,1
	c0.4,0.4,0.5,1,0.4,1.5c0,0.2-0.1,0.3-0.3,0.4s-0.3-0.1-0.4-0.2c-0.7-1.3-1.4-2.6-2.1-3.9c-0.2-0.4,0-0.4,0.3-0.6c2-1,3.4-2.8,4-4.9
	c0.2-0.6,0.3-1.3,0.3-2c0.1-1.5,0-2.9-0.3-4.4c-0.2-0.6-0.4-1.2-0.7-1.8c-0.1-0.1-0.2-0.3,0-0.4s0.3,0,0.4,0.1
	c1.6,1.2,2.6,3.1,2.7,5.2C156.5,11.6,156.5,12.3,156.5,12.9z"/>
<path class="st0" d="M98.3,25.6c0.1,0,0.3,0,0.4,0c0.5-0.1,0.5,0.2,0.4,0.5c-0.1,0.8-0.1,1.6,0,2.4c0,1.1,0,2.2-0.1,3.3
	c0,0.1,0,0.3-0.4,0.4c-1,0.1-2.1,0.1-3.1,0.1c-3.5,0-7,0-10.5,0c-0.8,0-1.7-0.1-2.5-0.2c-0.3-0.1-0.6,0.1-0.9,0.1
	c-0.8,0-1.5-0.1-2.3-0.2c-0.8,0-0.3-0.7-0.4-1s0.2-0.4,0.5-0.3c1.2,0.1,2.4,0.2,3.6,0.1c1.7,0,3.5,0,5.2,0s3.2,0,4.8,0.1
	c1.2,0,2.4,0.2,3.7,0.1c0.5,0,0.6-0.2,0.6-0.6c0-1.2,0-2.4,0-3.6C97.3,25.6,97.3,25.6,98.3,25.6z"/>
<path class="st0" d="M62.3,30.6h8.1c1.3,0,1.3,0,1.3-1.3s0-2.3,0-3.5c0-0.4,0-0.7,0.5-0.5c0.3,0.1,0.6,0.1,0.9,0
	c0.3,0,0.5,0.1,0.4,0.4c-0.1,0.5-0.1,0.9,0,1.4c-0.1,1.1-0.1,2.3-0.1,3.4c0,0.4,0.1,0.8,0.1,1.3c0.1,0.4-0.1,0.4-0.4,0.4
	c-1.6,0-3.1,0-4.7-0.2c-1.1-0.1-2.1-0.1-3.2-0.1c-0.3,0-0.7-0.1-0.9-0.3c-0.2-0.2-0.3,0.5-0.8,0.5c-0.7-0.1-1.5,0-2.2,0
	c-2.5,0-5,0-7.5,0c-0.6,0-0.6-0.3-0.6-0.7s-0.1-0.7,0.6-0.7C56.7,30.6,59.5,30.6,62.3,30.6z"/>
<path class="st0" d="M184.6,9.3c2.6-0.2,4.8,1,7,2.3c0.8,0.5,0.7,0.5,1.2-0.3c0.8-1.3,1.6-2.6,2.4-3.9c0-0.1,0.1-0.1,0.1-0.2
	c0.5-1,0.5-1,1.5-0.4c0.2,0.1,0.4,0.3,0.7,0.5c0.9,0.6,1,0.6,0.4,1.6c-1,1.6-2,3.1-3,4.7c-0.2,0.3-0.3,0.4-0.7,0.2
	c-1.8-1.2-3.8-2-5.9-2.2c-0.9-0.1-1.8,0-2.8,0.1c-1.1,0.1-2.1-0.2-3-0.8c-0.4-0.3-0.3-1.1,0.2-1.2C183.3,9.3,183.9,9.3,184.6,9.3z"
	/>
<path class="st0" d="M169.5,3.9c-0.7,0.6-1.4,1.2-2,1.8c-0.3,0.2-0.4,0.6-0.3,0.9c0.2,0.9,0.3,1.7,0.4,2.6c-0.6-0.2-1.2-0.5-1.7-0.9
	c-0.6-0.4-1.1-0.6-1.8-0.1c-0.7,0.4-1.4,0.8-2.2,1.1c0.1-1,0.2-1.8,0.3-2.7c0.1-0.4,0-0.9-0.4-1.3c-0.5-0.5-1-1-1.5-1.5
	c-0.1-0.1-0.3-0.2-0.2-0.3c0.1-0.1,0.2-0.1,0.3-0.2c0.6-0.1,1.2-0.1,1.8-0.1c0.8,0,1.1-0.3,1.4-1c0.2-0.6,0.6-1,0.7-1.6
	c0-0.1,0.1-0.2,0.2-0.2c0.1,0,0.2,0.1,0.3,0.2c0.4,0.6,0.7,1.3,1,2c0.2,0.6,0.8,1,1.4,0.8C168,3.6,168.8,3.7,169.5,3.9z"/>
<path class="st0" d="M118.1,9.5c2.1,0,4.1,0,6.2,0c0.5,0,0.6-0.1,0.6-0.6c0-1.3,0-2.5,0-3.8c0-0.4,0-0.6,0.5-0.4
	c0.2,0.1,0.4,0.1,0.6,0c0.6-0.1,0.8,0.4,0.7,0.7c-0.1,1.6-0.1,3.2-0.1,4.8c0,1-0.1,1.1-1.1,0.8c-0.2,0-0.3,0-0.5,0
	c-3.7,0-7.5,0-11.2,0c-0.5,0-0.8,0.1-0.7,0.7c0.1,0.4-0.1,0.5-0.5,0.5c-1.4,0-1.4,0-1.4-1.4s0-1.4,1.4-1.4L118.1,9.5z"/>
<path class="st0" d="M85.7,14.6c-0.9-0.2-0.5-0.9-0.5-1.4s0-0.8,0-1.2c-0.1-1.4,0-2.8,0-4.2c0-0.1-0.1-0.3,0.1-0.4s0.4-0.2,0-0.3
	c-0.2,0-0.1-0.2-0.1-0.4c0-0.8,0-1.5,0.1-2.3c0,0,0-0.1,0-0.1c0.5-0.4,1.1-0.1,1.6-0.2c0.3-0.1,0.3,0.2,0.3,0.4
	c-0.1,1.9,0.1,3.8-0.1,5.7C87,11.9,87.2,13.5,87,15c-0.1,1.2,0,2.4-0.1,3.6s0.1,2.2,0.1,3.4c0,0.7-0.2,0.8-0.8,0.7h-0.1
	c-0.3-0.2-0.8,0.1-0.9-0.2c-0.1-0.6-0.2-1.3-0.2-1.9c0-0.3,0.1-0.5,0.1-0.8c0-1,0-2,0-3c0-0.6,0.3-1.1,0-1.7S85.7,15,85.7,14.6z"/>
<path class="st0" d="M115.4,19.5c1.2,0,2.4,0,3.6,0c0.4,0,0.5-0.1,0.5-0.5c0-1.3,0-2.5,0-3.8c0-0.4,0.1-0.5,0.5-0.5
	c1.7,0,1.4-0.2,1.4,1.4s-0.1,3.1-0.1,4.7c0,0.5-0.4,0.5-0.6,0.5c-1.6,0-3.2,0.1-4.9,0c-0.7,0.1-1.5,0-2.2-0.1
	c-0.4-0.1-0.5,0.2-0.6,0.6c0,1.1,0,1.1-1.2,1.1c-0.5,0-0.6-0.1-0.6-0.6c0-0.7,0-1.4,0-2.2c0-0.5,0.1-0.6,0.6-0.6
	C113.1,19.5,114.2,19.5,115.4,19.5z"/>
<path class="st0" d="M8.4,20.3c0.2,0.1,0.4,0.3,0.5,0.6c0.1,0.3,0.2,0.7,0.4,1c0.8,1.3,1.2,2.9,1,4.4c-0.1,1.1,0,2.2,0,3.3
	c-0.1,0.6-0.1,1.1,0,1.7c0.1,0.4-0.1,0.5-0.5,0.5c-2.1,0-4.2,0-6.3,0c-0.5,0-0.6-0.3-0.6-0.7s0.3-0.5,0.6-0.5h2.8
	c0.6,0,1.1,0.4,1.8,0.3c0.3,0,0.5-0.1,0.5-0.5c0-2.5,0-5.1,0-7.6C8.4,22,8.4,21.2,8.4,20.3z"/>
<path class="st0" d="M20.4,20.2c0,1.1,0,2.2,0.1,3.2c0,0.4-0.1,0.6-0.5,0.5c0.5,0.5,0.6,1.2,0.5,1.9c-1,2-1.9,4-2.9,6
	c-0.1,0.3-0.4,0.5-0.4,0.8c0,0.1-0.2,0.3-0.3,0c-0.3-0.8-0.7-1.5-1-2.3c0-0.1,0-0.2,0-0.3c0.5-1.1,0.9-2.2,1.4-3.3s1.3-2.3,1.8-3.5
	c0.4-0.9,0.7-1.8,1-2.7C20,20.4,20.2,20.2,20.4,20.2z M18.7,27.3c-0.1-0.3-0.4-0.5-0.3-0.8c0,0-0.1-0.1-0.2-0.1S18,26.5,18,26.6
	c0,0.4,0.3,0.6,0.4,0.9c0.1,0,0.1,0,0.2,0C18.6,27.5,18.7,27.4,18.7,27.3L18.7,27.3z"/>
<path class="st0" d="M75.8,47.2c-0.4,0.7-1.2,1-1.4,1.7c-0.1,0.7,0,1.4,0.2,2.1c-0.6-0.1-1.1-0.4-1.6-0.7c-0.3-0.2-0.7-0.2-1,0
	c-0.4,0.3-0.8,0.5-1.3,0.7c-0.2-0.5,0-0.9,0.1-1.4c0.1-0.5-0.1-1-0.5-1.3c-0.3-0.3-0.7-0.6-1-0.8c0.6-0.5,1.2-0.3,1.7-0.4
	c0.3-0.1,0.6-0.3,0.7-0.5c0.2-0.5,0.5-1,0.8-1.4c0.5,0.6,0.5,1.5,1.1,1.8C74.3,47.1,75,47.2,75.8,47.2z"/>
<path class="st0" d="M151.6,30.5h3.4c0.3,0,0.5,0,0.2-0.4c-0.9-1.7-1.8-3.4-2.7-5.1c-0.1-0.2-0.1-0.5,0.1-0.8
	c0.1-0.1,0.1-0.3,0.3-0.3s0.3,0.1,0.3,0.3l1.8,3.5c0.6,1.2,1.1,2.3,1.7,3.4c0.2,0.4,0.3,0.6-0.3,0.6c-1.8,0-3.5,0-5.3,0
	c-0.9,0-1.7-0.1-2.6-0.1c-0.2,0-0.8-0.7-0.7-1s0.3-0.1,0.4-0.1H151.6z"/>
<path class="st0" d="M195.3,37.8c-0.1-1.4,1-2.5,2.3-2.6c0.1,0,0.2,0,0.3,0c1.4-0.1,2.6,1,2.6,2.4c0,0.1,0,0.2,0,0.3
	c0,1.4-1.1,2.5-2.4,2.5c-0.1,0-0.2,0-0.3,0c-1.4,0-2.5-1.1-2.5-2.4C195.3,37.9,195.3,37.9,195.3,37.8z M199.1,39.2
	c-0.5,0.1-0.8,0.1-0.9-0.4c0-0.3-0.2-0.6-0.5-0.6s-0.2,0.4-0.2,0.6s-0.1,0.4-0.4,0.4s-0.4-0.1-0.4-0.4s0-0.9,0-1.3
	c0-1.2,0-1.2,1.2-1.1c0.1,0,0.2,0.1,0.4,0.1c0.8,0.2,0.9,0.7,0.4,1.3c0,0.1-0.3,0-0.1,0.2c0.4,0.3,0.2,0.8,0.5,1.1
	c0.7-0.7,0.8-1.8,0.1-2.5c0,0,0,0,0,0c-0.6-0.8-1.8-0.9-2.6-0.3c0,0-0.1,0.1-0.1,0.1c-0.8,0.8-0.9,2-0.1,2.9
	c0.6,0.7,1.7,0.9,2.5,0.2C199,39.4,199.1,39.3,199.1,39.2L199.1,39.2z M197.9,37.1c-0.2,0-0.3,0-0.3,0.3s0.1,0.3,0.3,0.3
	s0.4,0,0.4-0.3S198.1,37.1,197.9,37.1L197.9,37.1z"/>
<path class="st0" d="M14.3,15.7c-0.3-0.3-0.6-0.7-0.6-1.2c-0.5-1.5-1.1-3-1.8-4.4c-0.8-2-1.8-4-2.7-5.9c-0.1-0.2,0-0.3,0.2-0.3
	c0.4-0.1,0.8,0.1,0.9,0.5c0.5,1.1,0.9,2.1,1.3,3.2c0.7,1.7,1.4,3.3,2.2,4.9c0.3,0.6,0.5,1.2,0.8,1.8S14.5,15.2,14.3,15.7z"/>
<path class="st0" d="M171.4,5.3c-0.7,0.7-1.3,1.4-1.9,2c-0.2,0.1-0.3,0.4-0.3,0.6c0.1,0.9,0.2,1.8,0.3,2.7c-0.8,0-1-0.2-1.2-1
	s-0.3-1.8-0.4-2.7c0-0.1-0.1-0.1-0.1-0.2c0-0.4,1.5-1.6,1.9-1.5S170.7,5.2,171.4,5.3z"/>
<path class="st0" d="M166.3,9.3c-0.7,0.5-1.6,1-2.4,1.3c0-0.7-0.1-1.4,0.5-1.8S165.6,9.1,166.3,9.3z"/>
<path class="st0" d="M166.7,2c0.1,0.3,0.4,0.5,0.2,0.8c-0.1,0.1-0.2,0.1-0.3,0C166.4,2.5,166.5,2.3,166.7,2z"/>
<path class="st0" d="M145,10.1c-1.2,0-2.4,0-3.5,0c-0.5,0-0.6,0.2-0.6,0.7c0,0.8,0,1.6,0,2.4c0,0.4-0.1,0.5-0.5,0.5
	c-1.8,0-1.8,0.1-1.8-1.7c0-0.8,0-1.5,0-2.2c0-0.3,0-0.5,0.4-0.5c1.4,0,2.9,0,4.3,0C144,9,144.7,9.4,145,10.1z"/>
</svg>
