<?xml version="1.0" encoding="utf-8"?>
<!-- Generator: Adobe Illustrator 21.1.0, SVG Export Plug-In . SVG Version: 6.00 Build 0)  -->
<svg version="1.1" id="Layer_1" xmlns="http://www.w3.org/2000/svg" xmlns:xlink="http://www.w3.org/1999/xlink" x="0px" y="0px"
	 viewBox="0 0 201.1 121.8" style="enable-background:new 0 0 201.1 121.8;" xml:space="preserve">
<style type="text/css">
	.st0{fill:#C33B2E;}
</style>
<title>Casual dining</title>
<path class="st0" d="M100.9,8.7c-19.8,6.6-38.8,56-37.8,63.1c1.3,3.8,1.4,4.3,1.4,4.3s3-13.4,7.7-22.9c0,0-1.3,7.3,2.7,19.1
	c8.7,26,21.2,32.5,22.7,32c0,0-4.7-5.2-8.7-17C71.5,35.5,100.4,8.9,100.9,8.7z"/>
<path class="st0" d="M61.7,28.6c-15.7,5.3-23.1,75.9-43.5,82.8c-9.1,3-12.7-6.7-8.8-14.5c-5.4,1.8-10.8,8.5-8.2,16.3
	c1.8,5.4,7.1,10.1,16.1,7.1c18-6,29-57.5,29.8-55.2c7.3,21.7,19.3,27.4,22.3,26.4c0,0-4.3-3.3-8.9-16.9C56.6,62.8,55,42.2,61.7,28.6
	z"/>
<path class="st0" d="M108.9,54.1c-2.6,7.3-6.8,20-8.8,20.6c-0.8,0.3-0.9-0.5-0.9-0.9c-0.2-4,5.4-30.9,5.9-33.3c0,0-5.4,1.8-6.8,2.3
	c0,0-2.2,9-3.9,18.2c-1.1,6-2.3,11.9-1.3,14.8c0.6,1.9,2.4,4.1,5.7,3c6.4-2.1,9.8-15.3,11.3-19.7c0.9-2.4,1.9-5.2,2.8-8l-3.4,1.2
	C109.3,53.1,109.1,53.6,108.9,54.1z"/>
<path class="st0" d="M152.9,57.3c-0.3,0.1-0.8,0.3-1-0.4c-0.3-1,0.2-4,0.9-8.3c1.3-7.8,4.5-16.7,3.1-20.6c-0.5-1.7-2.3-3.9-6-2.7
	c-4.7,1.6-8.2,9.1-9.4,11.5c0.3-2.2-1.1-8-6-6.3c-3.6,1.2-7.1,6.7-9.5,11.6c0.3-2.2-0.1-8.3-5.3-6.6c-3.8,1.3-6.5,7.3-8.7,13.2
	l3.4-1.1c1.5-4,2.9-7.1,3.7-7.3s0.9,0.5,0.9,0.9c0.2,4-5.6,30.5-6,32.8c0,0,5.4-1.8,6.8-2.3c2.1-11.2,6.6-34.8,13.3-37.1
	c0.7-0.2,1,0,1.1,0.5c0.8,2.2-2.9,17.8-5.6,33.5l6.8-2.3c1.1-6.1,5.7-34.6,13.5-37.2c0.5-0.2,1-0.2,1.1,0.3
	c0.3,0.8-1.5,6.4-2.4,11.5c-1.5,8.3-3.3,14.1-2.1,17.8c0.5,1.6,2,3.9,5.9,2.6c3.2-1.1,6.3-6.6,6.3-6.6c-0.4-0.9-0.6-1.9-0.6-2.9
	C157.1,51.7,154.6,56.7,152.9,57.3z"/>
<path class="st0" d="M98.7,33.5c0.3,1.8,2,2.9,3.7,2.6c0.2,0,0.4-0.1,0.6-0.2c2.3-1,3.5-3.6,2.8-6c-0.6-2.2-2.3-3.2-4.2-2.6
	C99.2,28.3,97.9,31,98.7,33.5z"/>
<path class="st0" d="M187.7,14.4c-0.6-1.7,2.4-5.4,2-6.9s-1.5-1.5-3.1-1s-2.6,4.9-1.4,8.3c2,5.9,4.1,8,6.1,14
	c3.5,10.6-0.1,16.1-4.1,17.4c-2.8,0.9-3.9-0.7-3.5-1.2s3.6-2.1,2.4-5.5c-0.5-1.8-2.3-2.9-4.1-2.4c-0.1,0-0.1,0-0.2,0
	c-2,0.7-3.6,3.8-2.7,6.7c0.3,0.9,2.9,7,11.1,4.3c5.1-1.7,13-7.9,9.3-18.8C197.2,22.4,189.2,18.8,187.7,14.4z"/>
<path class="st0" d="M183,18.3l-10.1,25.5c-1.8,4.1-3.8,7.9-5.2,8.3c-0.8,0.3-0.9-0.5-0.9-0.9c-0.2-4,5.4-30.9,5.9-33.3
	c0,0-5.4,1.8-6.8,2.3c0,0-2.2,9-3.9,18.2c-1.1,6-2.3,11.9-1.3,14.8c0.6,1.8,2.3,4.1,5.6,3c3.8-1.3,7-6.9,9.7-13.4l8.4-21.3
	C183.6,20,183.3,19.2,183,18.3z"/>
<path class="st0" d="M23.1,65.2c8.1-2.7,11.4-11.4,11-12.9c-0.1-0.4-2.6,4.5-9.2,6.6c-5.3,1.6-10.9-1.2-12.8-6.4
	C10.3,47.1,13,41.8,18.5,40c9.4-3.2,21.2,0.5,28.8-2.1c5.7-1.9,6.5-6.2,5.7-8.4c-0.9-2.7-4.3-4.4-5.6-3.9c0,0,4,5.8-5.7,9
	c-9.4,3.2-13.2-1.1-25.9,3.1C9.7,39.7,0,46.9,3.3,56.8C5.5,63.2,12.1,68.9,23.1,65.2z"/>
<path class="st0" d="M166.2,10.8c0.3,1.8,2,2.9,3.7,2.6c0.2,0,0.4-0.1,0.6-0.2c2.3-1,3.5-3.6,2.8-6c-0.6-2.2-2.3-3.2-4.2-2.6
	C166.8,5.7,165.5,8.3,166.2,10.8z"/>
<path class="st0" d="M176.6,2.6c0.3-0.4,0.6-0.8,0.9-1.1c0.3-0.4,0.8-0.7,1.3-0.9c0.7-0.2,1.4-0.1,2,0.3c0.7,0.5,1.2,1.2,1.5,2.1
	c0.3,0.8,0.3,1.6,0.2,2.4c-0.1,0.8-0.4,1.6-0.8,2.4c-0.4,0.8-0.8,1.5-1.3,2.2c-0.5,0.7-1,1.3-1.5,1.9l-1-0.4l-0.2-0.4
	c0.7-0.8,1.2-1.8,1.6-2.8c0.3-0.8,0.4-1.8,0.2-2.7c-0.2-0.6-0.5-1.1-1-1.4c-0.5-0.4-1.1-0.6-1.7-0.7L176.6,2.6z"/>
</svg>
