<?xml version="1.0" encoding="utf-8"?>
<!-- Generator: Adobe Illustrator 21.1.0, SVG Export Plug-In . SVG Version: 6.00 Build 0)  -->
<svg version="1.1" id="Layer_1" xmlns="http://www.w3.org/2000/svg" xmlns:xlink="http://www.w3.org/1999/xlink" x="0px" y="0px"
	 viewBox="0 0 181 55.7" style="enable-background:new 0 0 181 55.7;" xml:space="preserve">
<style type="text/css">
	.st0{fill:#F58337;}
	.st1{fill:#008752;}
</style>
<title>Grocery</title>
<path class="st0" d="M86.1,47.1c-0.1,0.1-0.3,0.2-0.4,0.3l-4,5.4l-0.9,1.2c-0.4,0.6-1.1,1.1-1.9,1.2c-0.7,0.1-1.1-0.4-1.4-0.9
	c-0.6-1-0.9-2.1-0.9-3.2c0-0.5-0.1-0.6-0.5-0.4c-0.3,0.1-0.6,0.3-0.8,0.4c-0.9,0.4-2,0-2.4-0.9c-0.5-1-0.7-2.1-0.6-3.2
	c0-0.2,0-0.3,0-0.6c-0.5,0.1-1,0.1-1.3,0.6c-0.5,0.9-1.1,1.8-1.8,2.6c-0.6,0.7-1.3,1.4-2.1,1.9c-0.5,0.3-1.1,0.5-1.7,0.5
	c-0.8,0-1.5-0.5-1.7-1.2c-0.2-0.7-0.4-1.4-0.5-2.1c0-0.2,0-0.5,0-0.7c-0.6,0.1-1.1,0.1-1.5,0.7c-0.9,1.4-2.1,2.7-3.5,3.7
	c-0.4,0.3-0.9,0.5-1.4,0.6c-1,0.3-1.7-0.3-2.2-1.2c-0.5-1-0.7-2.2-0.5-3.4c0.1-1.8,0.6-3.5,1.5-5c0.8-1.5,1.9-2.9,3.1-4
	c0.8-0.7,1.7-1.2,2.8-1.4c0.9-0.1,1.8,0.3,2.3,1.1c0.5,0.6,0.7,1.4,0.6,2.1c-0.2,1.6-0.7,3.2-1.3,4.7c-0.1,0.2-0.1,0.4-0.2,0.6
	c0.4,0,0.6-0.1,0.8-0.4c0.6-1.9,1.5-3.7,2.7-5.4c0.8-1.2,1.9-2.1,3.2-2.6c1.2-0.5,2.6,0,3.1,1.2c0.4,0.9,0.5,1.9,0.3,2.9
	c-0.1,0.6-0.3,1.2-0.5,1.7c0,0.2-0.1,0.3-0.1,0.5l0.1,0.1c0.1-0.1,0.3-0.2,0.3-0.3c0.3-0.5,0.6-1.1,0.8-1.6c0.6-1.5,1.5-2.8,2.6-3.9
	c0.8-0.9,1.8-1.5,3-1.8c0.6-0.1,1.1,0,1.6,0.3l0.2,0.1c0.6,0.5,0.7,0.4,1.1-0.2s0.7-1.1,1-1.6c0.1-0.1,0.1-0.3,0.2-0.4h-0.3
	c-1.5,0-3.1,0-4.6,0c-2.2,0.1-4.3,0.2-6.5,0.4c-1.6,0.1-3.1,0.3-4.7,0.4s-3.4,0.4-5.1,0.7s-3.3,0.6-5,0.9c-0.2,0.1-0.4,0.2-0.5,0.4
	c-0.9,1.5-1.7,3-2.6,4.4c-1.4,2.3-2.9,4.6-4.4,6.8c-1.2,1.7-2.5,3.3-3.7,4.9l-0.2,0.2c-0.2-0.2-0.5-0.3-0.6-0.5
	c-0.3-0.6-0.6-1.1-0.8-1.8c-0.2-1,0.1-1.9,0.8-2.6c0.7-0.9,1.5-1.7,2.2-2.7c1.6-2.3,3.1-4.7,4.7-7c0.2-0.3,0.3-0.5,0.4-0.8
	c0-0.1,0-0.2,0-0.3c-0.1,0-0.2,0-0.3,0c-1.5,0.2-3,0.5-4.6,0.7c-1.2,0.1-2.4,0.1-3.6,0.2c-0.4,0-0.8-0.2-1.1-0.5
	c-0.3-0.3-0.3-0.9,0-1.2c0.8-0.8,1.8-1.3,2.9-1.5c0.1,0,0.2,0,0.4,0.1C46,36.8,46,36.9,45.9,37c-0.4,0.3-0.8,0.6-1.1,0.8
	c-0.1,0.1-0.1,0.1-0.2,0.2v0.1c0.3,0,0.6,0,0.9,0l6.7-0.9c0.3,0,0.6-0.1,0.9-0.2c0.4,0,0.7-0.3,0.9-0.6c0.9-1.7,1.9-3.4,2.8-5.1
	c0.6-1.2,1.2-2.3,1.7-3.5c0-0.1,0.1-0.2,0.1-0.3c0-0.2,0-0.4-0.3-0.3c-0.9,0.2-1.8,0.4-2.6,0.6c-2.2,0.9-4.3,2.1-6.1,3.6
	c-0.4,0.3-0.9,0.6-1.3,0.8c-0.5,0.3-1.1,0.2-1.4-0.2c-0.2-0.2-0.2-0.5,0-0.7c0.6-0.7,1.1-1.4,1.7-2.1c0.1-0.2,0.3-0.3,0.5-0.4
	c0.4-0.3,0.5-0.3,0.7,0.3c0.2-0.1,0.3-0.1,0.5-0.2c1.1-0.7,2.2-1.4,3.4-2.1c1-0.6,2-0.9,3.1-1.1c1.2-0.2,2.4,0.2,3.2,1
	c0.6,0.5,0.8,1.3,0.6,2c-0.2,0.9-0.5,1.8-0.8,2.6c-0.6,1.5-1.2,2.9-1.8,4.4c0,0.1-0.1,0.2-0.1,0.3l1.9-0.2c2.2-0.3,4.4-0.6,6.6-0.8
	s4.3-0.4,6.5-0.6c1.6-0.1,3.3-0.2,4.9-0.3c1.3-0.1,2.5-0.1,3.8-0.1c0.5,0,1,0,1.5,0.1c0.8,0.1,1.6-0.3,1.9-1
	c0.9-1.2,1.8-2.3,2.8-3.4c0.7-0.8,1.5-1.6,2.3-2.5c0.2,0.2,0.4,0.5,0.5,0.8c0.2,0.7,0.1,1.6-0.4,2.2c-1.1,1.6-2.2,3.2-3.2,4.8
	s-2.2,3.3-3.3,5.1c-0.8,1.2-1.5,2.5-2.1,3.8c-1,2-1.8,4.1-2.4,6.2c-0.1,0.5-0.3,1-0.4,1.5c-0.1,0.4-0.1,0.8-0.2,1.1
	c0,0.3,0,0.6,0.3,0.7c0.3,0.2,0.6,0.2,0.9,0c0.4-0.4,0.8-0.8,1.2-1.3c1.1-1.4,2.3-2.8,3.4-4.3c0.9-1.1,1.7-2.3,2.5-3.4
	c0.4-0.5,0.7-1,1.1-1.5l0.1,0.1c0,0.2,0,0.4,0,0.5c0,0.3,0,0.7,0.1,1c0.2,0.5,0.5,1,0.7,1.5c0.4,0.7,1.1,1.2,1.9,1.5
	c1.9,0.6,4,0.4,5.9-0.4c1.1-0.5,2.2-1.1,3.3-1.8c1.2-0.8,2.3-1.8,3.1-2.9c0.8-0.9,1.3-1.9,1.6-3.1c0.1-0.4-0.2-0.8-0.6-0.9
	c0,0-0.1,0-0.1,0c-1.6-0.1-3.2,0-4.8,0.3c-1.2,0.2-2.5,0.4-3.7,0.5c-1,0-2,0-3-0.2c-0.6-0.1-1.1-0.5-1.3-1c-0.7-1-1.1-2.2-1-3.4
	c0.2-1.1,0.7-2.2,1.4-3.1c1.2-1.6,2.8-2.8,4.5-3.7c1.9-0.9,3.9-1.5,6-1.5c1.3-0.1,2.6,0.1,3.9,0.5c0.2,0.1,0.5,0,0.6-0.2
	c0.2-0.3,0.4-0.6,0.6-0.8s0.4-0.5,0.7-0.4c0.3,0.2,0.5,0.5,0.4,0.9c-0.2,0.6-0.5,1.2-0.7,1.8c-0.4,0.8-0.8,1.6-1.3,2.4
	c-0.1,0.1-0.2,0.3-0.2,0.4c-0.3,0.4-0.8,0.4-0.9-0.1c-0.3-1.3-1.3-1.5-2.3-1.7c-1.6-0.3-3.2-0.2-4.7,0.4c-1.4,0.5-2.6,1.4-3.6,2.4
	c-0.8,0.8-1.5,1.7-2,2.7c-0.1,0.2-0.2,0.5-0.1,0.7c0,0.3,0.2,0.6,0.6,0.6c0,0,0,0,0,0c0.9,0.1,1.8,0.1,2.7,0.1
	c1.3-0.1,2.5-0.2,3.8-0.4c0.6-0.1,1.1-0.2,1.6-0.2c0.7,0,1.5,0,2.2,0.2c0.5,0.1,1.1,0.3,1.6,0.5c0.6,0.3,1.2,0.8,1.5,1.4
	c0.4,0.6,0.6,1.3,0.7,1.9c0.1,0.8-0.1,1.6-0.4,2.3c-0.7,1.6-1.7,3.1-3,4.3c-1.1,1.1-2.4,2.1-3.7,3c-2,1.4-4.3,2.3-6.8,2.7
	c-1.2,0.2-2.5,0-3.7-0.4c-1.5-0.6-2.6-1.8-3-3.4L86.1,47.1z M74.3,48c0,0.1,0,0.2,0,0.3c0.1,0.6,0.7,1.2,1.2,0.9
	c0.4-0.2,0.7-0.4,1.1-0.7c0.5-0.5,0.8-1.2,0.9-1.9c0.5-1.3,0.9-2.6,1.4-3.9c0.4-0.8,0.8-1.6,1.2-2.4c0.2-0.3,0.2-0.5-0.1-0.7
	c-0.4-0.3-0.9-0.3-1.3,0c-1,0.7-1.9,1.7-2.5,2.7c-0.4,0.8-0.8,1.6-1.2,2.4C74.6,45.8,74.4,46.9,74.3,48L74.3,48z M67.4,44
	c-0.1,0.1-0.2,0.2-0.3,0.3c-0.7,1.1-1.2,2.4-1.5,3.7c-0.1,0.5-0.2,1-0.2,1.6c0,0.2,0.1,0.3,0.2,0.5c0.1,0.1,0.3,0,0.4-0.1
	c1.2-0.9,2.2-2.1,2.9-3.4c0.1-0.1,0.1-0.3,0-0.4c-0.6-0.5-1-1.1-1.3-1.8C67.6,44.1,67.5,44,67.4,44L67.4,44z M58.4,45.5
	c-0.1,0.2-0.3,0.3-0.3,0.5c-0.7,1-1.2,2.2-1.6,3.4c-0.1,0.4-0.2,0.9-0.1,1.4c0,0.4,0.2,0.5,0.6,0.2s0.6-0.4,0.8-0.6
	c0.8-0.7,1.4-1.5,1.9-2.4c0.1-0.1,0.1-0.3,0-0.4c-0.3-0.4-0.6-0.9-0.9-1.3C58.6,46.1,58.5,45.8,58.4,45.5L58.4,45.5z M60.8,46.2
	c0.2-0.4,0.4-0.8,0.6-1.2c0.5-1,0.7-2.2,0.5-3.3c0-0.2-0.2-0.5-0.4-0.6c-0.3,0-0.5,0-0.8,0.2c-0.3,0.2-0.5,0.5-0.6,0.8
	c-0.6,1.1-0.6,2.4-0.1,3.5C60.2,46,60.5,46.2,60.8,46.2L60.8,46.2z M69,43.1c0,0.5,0.2,1,0.5,1.4c0.2,0.2,0.6,0.3,0.7,0
	c0.3-0.7,0.5-1.3,0.7-2c0.2-0.5,0.2-1.1-0.1-1.7c-0.2-0.5-0.7-0.6-1.1-0.1C69.2,41.3,68.9,42.2,69,43.1L69,43.1z"/>
<path class="st1" d="M0.5,0.5h0.4c3.5,0,7.1,0,10.6,0c0.3,0,0.5,0.1,0.6,0.4c0.6,1.3,1.2,2.6,1.8,3.9l2.5,5.6l2.6,5.7l2.3,5.2
	c0.1,0.1,0.2,0.3,0.3,0.4c0.2-0.5,0.4-0.8,0.6-1.2l2-4.7c1-2.3,2-4.7,3.1-7c0.8-1.8,1.6-3.5,2.3-5.3C30,2.8,30.4,2,30.7,1.1
	c0-0.2,0.2-0.3,0.4-0.3c2.1,0,4.2,0,6.3,0c1.4,0,2.8,0,4.2,0c0.2,0,0.4,0,0.4,0.3s0,0.4-0.3,0.4c-1,0-1.9,0.4-2.6,1.1
	c-0.6,0.7-0.9,1.6-0.9,2.5c0,4.3,0,8.6,0,12.9c0,3,0,6,0,9c-0.1,1.2,0.5,2.4,1.5,3.1c0.5,0.3,1.1,0.4,1.7,0.6c0.2,0,0.3,0.1,0.5,0.1
	v0.8H27.5v-0.8c0.4-0.1,0.8-0.1,1.2-0.2c1.4-0.3,2.4-1.6,2.5-3c0-0.3,0.1-0.6,0.1-0.9c0-7.2,0-14.4,0-21.5V4.6h-0.1
	c-0.1,0.1-0.2,0.2-0.2,0.3C30,6.9,29.1,9,28.2,11.1c-0.9,2.1-1.8,4.1-2.6,6.2c-0.7,1.5-1.3,3-2,4.5c-0.7,1.7-1.5,3.4-2.2,5.2
	c-0.6,1.4-1.2,2.8-1.8,4.3c-0.2,0.4-0.5,0.3-0.8,0.3s-0.4-0.1-0.5-0.3c-0.8-2-1.7-3.9-2.5-5.9c-0.7-1.5-1.3-3.1-2-4.6
	c-1-2.2-2-4.3-2.9-6.5c-0.8-1.9-1.6-3.7-2.5-5.6C7.8,7.3,7.2,6,6.6,4.6c0-0.1-0.2-0.2-0.2-0.2H6.3c0,0.2,0,0.3,0,0.5
	c0,5.7,0,11.3,0,17c0,1.7,0,3.4,0,5.1c-0.1,1.2,0.5,2.3,1.5,3c0.5,0.3,1.1,0.5,1.7,0.5h0.4v0.8H1v-0.8c0.7,0,1.4-0.2,2-0.5
	c1-0.6,1.6-1.7,1.5-2.9c0-2,0-3.9,0-5.9c0-5.4,0-10.8,0-16.1c0.1-0.9-0.1-1.8-0.5-2.6C3.7,2,3.2,1.6,2.5,1.5C2,1.4,1.4,1.3,0.7,1.3
	C0.6,1.3,0.5,1.3,0.5,1.1S0.5,0.7,0.5,0.5z"/>
<path class="st1" d="M146.3,31.5v-0.8c0.4-0.1,0.8-0.1,1.1-0.2c1.5-0.3,2.6-1.7,2.6-3.2c0.1-2.6,0.1-5.3,0.1-7.9c0-4.6,0-9.2,0-13.8
	c0-0.8-0.1-1.6-0.5-2.3c-0.5-1-1.6-1.7-2.7-1.8c-0.2,0-0.4,0-0.6,0V0.9h2h5c1.1,0,2.3,0,3.4,0c1.9,0,3.9,0,5.8,0
	c1.7,0,3.3,0.1,4.9,0.4c2,0.4,3.9,1,5.6,2c1.8,1,3.4,2.3,4.7,4c1.2,1.6,2.1,3.5,2.4,5.6c0.3,1.6,0.4,3.1,0.3,4.7
	c-0.1,2-0.5,4-1.2,5.9c-0.6,1.7-1.7,3.3-3.1,4.4c-0.9,0.6-1.8,1.2-2.8,1.6c-1.8,0.8-3.7,1.4-5.7,1.7c-1.1,0.2-2.3,0.3-3.5,0.3
	c-5.8,0-11.6,0-17.3,0L146.3,31.5z M157.5,16c0,3.7,0,7.5,0,11.2c0,0.6,0.2,1.3,0.6,1.7c0.6,0.6,1.4,0.9,2.3,1
	c0.8,0.1,1.6,0.1,2.4,0.1c1.1,0,2.2-0.2,3.3-0.5c1.5-0.5,2.7-1.5,3.6-2.8c0.8-1.4,1.4-2.9,1.7-4.5c0.4-1.6,0.6-3.3,0.5-5
	c0-1.2-0.1-2.5-0.2-3.7c-0.2-2.5-1-5-2.2-7.1c-0.6-1-1.4-1.9-2.4-2.6c-1-0.7-2.1-1-3.3-1c-1.7,0-3.4,0-5.1,0.1
	c-0.6,0-1.1,0.5-1.1,1.1c0,0,0,0,0,0c-0.1,0.4-0.1,0.9-0.1,1.3C157.5,8.9,157.5,12.5,157.5,16z"/>
<path class="st0" d="M130.6,47.5l-1.3,0.4c-0.8,0.2-1.7-0.1-2.2-0.7c-0.2-0.3-0.4-0.5-0.5-0.8c-0.1-0.2-0.2-0.2-0.4,0
	c-0.5,0.6-1,1.1-1.6,1.7c-0.7,0.7-1.9,0.6-2.5-0.2c-0.2-0.2-0.3-0.4-0.4-0.6c-0.7-1.4-0.6-3.1,0.1-4.5c0.3-0.4,0.6-0.8,0.9-1.1
	c0.2-0.2,0.4-0.4,0.2-0.7c-0.2,0.1-0.3,0.2-0.4,0.3c-0.6,0.6-1.4,1.1-2.2,1.3c-0.1,0.1-0.3,0.2-0.4,0.3c-0.6,1-1.2,2-1.8,3
	c-0.7,1-1.7,1.8-2.9,2.3c-1,0.4-2.1,0-2.7-0.9c-0.2-0.3-0.3-0.6-0.5-0.9s-0.3-0.3-0.5-0.1c-0.5,0.5-0.9,1-1.4,1.5
	c-0.4,0.4-0.8,0.7-1.2,1c-0.8,0.6-1.7,0.2-2.2-0.6c-0.4-0.7-0.5-1.5-0.3-2.2c0.3-2.7,1.1-5.3,2.4-7.7c0.7-1.5,1.5-3,2.3-4.5
	c0-0.1,0-0.2,0.1-0.3c-0.5,0-0.9,0.1-1.3,0.1c-1.4,0.3-2.8,0.5-4.2,0.8l-2.1,0.4c-0.8,0.1-1.6,0-2.2-0.4c-0.6-0.3-0.8-1-0.6-1.6
	c0.2-0.4,0.5-0.5,0.8-0.2c0.1,0.1,0.3,0.1,0.5,0.1l4.6-0.8c0.8-0.1,1.7-0.3,2.5-0.4c1.2-0.2,2.3-0.3,3.5-0.6
	c0.3-0.1,0.5-0.4,0.6-0.7c0.7-1,1.4-2,2.1-3c0.5,0.3,0.8,0.9,0.6,1.5c-0.1,0.4-0.2,0.8-0.4,1.2l-0.2,0.5l1.4-0.1
	c1.7-0.2,3.5-0.3,5.2-0.5c2.3-0.2,4.5-0.4,6.8-0.4c2-0.1,4,0,6.1,0c2,0,3.9,0.2,5.8,0.5c0.3,0.1,0.5,0.1,0.8,0.2v0.2
	c-0.1,0.1-0.2,0.1-0.4,0.1c-1.1,0-2.3,0.1-3.4,0.1s-2.4,0.1-3.6,0.2s-2.5,0.1-3.7,0.2s-2.7,0.2-4.1,0.4s-2.6,0.2-3.9,0.4
	c-2.1,0.3-4.2,0.5-6.3,0.8c-0.6,0.1-1.2,0.1-1.8,0.3c-0.3,0.1-0.5,0.2-0.7,0.5c-1.1,2.1-2.2,4.2-3.2,6.3c-0.7,1.5-1.2,3-1.8,4.6
	c-0.2,0.6-0.3,1.3-0.3,1.9c0,0.3,0.2,0.4,0.4,0.2c1.1-0.6,2-1.4,2.9-2.3c0.1-0.1,0.2-0.3,0.2-0.4c0.1-1.7,0.5-3.3,1.2-4.8
	c0.5-1.1,1.1-2.1,1.8-3c0.6-0.7,1.3-1.3,2.1-1.8c0.9-0.7,2.2-0.7,3,0.1c0.5,0.4,0.8,1,0.9,1.6c0.2,1.1,0.3,2.2,0.2,3.3
	c0,0.2,0,0.5,0,0.7s0.2,0.3,0.4,0.2s0.7-0.5,1-0.7c0.2-0.2,0.3-0.4,0.3-0.7c-0.1-1.4,0.2-2.9,0.9-4.1c0.2-0.3,0.5-0.6,0.8-0.7
	c0.3-0.2,0.8,0,0.9,0.3c0,0.1,0.1,0.2,0.1,0.3c0,0.6-0.2,1.2-0.3,1.9c-0.1,0.5-0.3,0.9-0.5,1.4c-0.3,0.8-0.3,1.6,0.1,2.3
	c0.3,0.8,0.4,1.7,0.3,2.5c-0.1,0.8-0.5,1.5-1.1,2c-0.4,0.3-0.7,0.7-0.9,1.2c0,0.1,0,0.4,0.1,0.5c0.2,0.1,0.3,0.1,0.5,0.1
	c0.7-0.3,1.4-0.8,2-1.4c0.4-0.3,0.5-0.8,0.5-1.3c0.1-1.7,0.6-3.3,1.2-4.8c0.6-1.5,1.6-2.8,2.9-3.8c0.6-0.4,1.2-0.8,1.9-1.1
	c0.6-0.3,1.3-0.3,1.9-0.1c0.9,0.4,1.5,1.3,1.4,2.3c-0.2,2.3-1.3,4.4-3.1,6c-0.7,0.6-1.5,1.1-2.4,1.4c-0.5,0.2-1,0.1-1.4-0.1
	c-0.2-0.2-0.4-0.1-0.5,0.1c-0.3,0.7-0.4,1.6-0.1,2.4c0.2,0.5,0.6,0.7,1.1,0.7c0.9-0.1,1.7-0.6,2.3-1.4c0.8-1,1.6-2.1,2.4-3.2
	s1.4-2.1,2.1-3.2c0.9-1.3,1.8-2.5,2.6-3.8c0.3-0.5,0.6-1,0.9-1.4c0.2-0.3,0.4-0.5,0.6-0.6c0.3-0.2,0.7-0.2,0.9,0.1
	c0.1,0.1,0.2,0.3,0.1,0.5c-0.1,0.6-0.2,1.2-0.4,1.8c-0.3,1-0.8,1.9-1,2.9c-0.2,0.9-0.2,1.8-0.2,2.7c0,0.4,0.2,0.5,0.6,0.4
	c1.2-0.4,2.4-0.8,3.7-1.1c2-0.5,4-0.7,6-0.6c0.6,0,1.2,0.1,1.7,0.3c0.7,0.3,1.3,0.8,1.6,1.5c0.2,0.4,0.3,0.9,0.4,1.4
	c0.1,0.3-0.1,0.6-0.4,0.6c-0.1,0-0.2,0-0.2,0c-1.8-0.2-3.6-0.3-5.4-0.2c-2.4,0.1-4.9,0.5-7.2,1h-0.1c-0.6-0.1-1.1,0.4-1.2,1
	c0,0,0,0,0,0c-0.3,1.3-1,2.5-1.9,3.5c-1.1,1.3-2.6,2.1-4.3,2.6c-0.6,0.2-1.2-0.1-1.6-0.6c-0.4-0.5-0.6-1.1-0.6-1.7
	C130.6,48.2,130.6,47.8,130.6,47.5z M116,39c-0.2,0.2-0.5,0.4-0.6,0.6c-0.6,1.1-1.1,2.3-1.4,3.5c-0.1,0.6-0.1,1.2,0,1.8
	c0.1,0.5,0.5,0.9,0.9,0.7c0.2-0.1,0.5-0.2,0.7-0.4c1-0.7,1.8-1.8,2.2-3c0-0.1,0-0.3-0.1-0.4c-0.3-0.5-0.7-0.9-1-1.4
	C116.4,40,116.1,39.5,116,39L116,39z M133.5,36.4c-0.1-0.2-0.1-0.6-0.3-0.7s-0.6,0-0.8,0.2c-0.5,0.5-1,1-1.5,1.5
	c-0.6,0.8-1.1,1.7-1.4,2.6c-0.2,0.3,0,0.7,0.3,0.9c0.1,0.1,0.3,0.1,0.4,0c0.5-0.1,0.9-0.3,1.2-0.7c0.5-0.8,1-1.6,1.5-2.4
	C133.3,37.4,133.5,36.9,133.5,36.4z M136.6,44.7c-0.1,0-0.1,0-0.2,0c-1.4,0.4-2.7,1-3.8,2c-0.5,0.4-0.6,1.2-0.1,1.7
	c0,0.1,0.1,0.1,0.2,0.1c0.5,0.1,0.9,0,1.3-0.2c0.9-0.6,1.7-1.4,2.2-2.4C136.4,45.6,136.6,45.2,136.6,44.7L136.6,44.7z M118.9,37.3
	c-0.1-0.3-0.1-0.6-0.2-0.8s-0.4-0.5-0.7-0.2c-0.3,0.2-0.5,0.5-0.7,0.7c-0.2,0.2-0.3,0.4-0.4,0.6c-0.2,0.8,0.1,1.7,0.8,2.2
	c0.2,0.1,0.4,0.1,0.5-0.1c0,0,0-0.1,0-0.1C118.7,38.9,118.9,38.1,118.9,37.3z M135.6,42.6c0.1,0,0.2,0,0.3,0
	c0.6-0.2,1.2-0.5,1.7-0.7c0.1-0.1,0.2-0.2,0.3-0.3c0-0.8,0-1.6,0-2.4C137,40.2,136.2,41.3,135.6,42.6L135.6,42.6z"/>
<path class="st1" d="M121,1.2V0.7c0.2,0,0.3,0,0.5,0c3.6,0,7.1,0,10.7,0c1,0,2,0,2.9,0.1c1.7,0.1,3.4,0.8,4.7,1.9
	c0.9,0.7,1.5,1.6,1.9,2.7c0.7,1.7,0.3,3.6-0.9,4.9c-0.9,0.9-1.9,1.7-3,2.3c-0.1,0.1-0.3,0.1-0.4,0.2c-0.1,0.1-0.1,0.3-0.1,0.4
	c1.6,2.7,3.3,5.4,5,8.2c0.3,0.6,0.8,1,1.4,1.1c0.1,0,0.2,0,0.3,0c0.2,0,0.3,0.1,0.3,0.3s-0.1,0.3-0.3,0.3h-6.4
	c-0.2,0-0.4-0.1-0.5-0.3c-1.1-1.7-2.2-3.4-3.3-5.2l-2.7-4.3c-0.1-0.1-0.1-0.2-0.3-0.2c-0.5,0-0.9,0-1.4,0c0,0.2,0,0.3,0,0.4
	c0,2,0,4,0,6.1c-0.1,0.9,0.3,1.8,1,2.3c0.5,0.3,1.1,0.5,1.7,0.7c0.1,0.4,0.1,0.4-0.4,0.4h-10.3h-0.4v-0.5c0.5-0.1,1-0.3,1.4-0.5
	c0.9-0.5,1.4-1.4,1.3-2.4c0-1.9,0-3.8,0-5.7c0-3.4,0-6.9,0-10.3c0.1-1.3-0.8-2.5-2.2-2.6c0,0,0,0,0,0C121.4,1.3,121.2,1.3,121,1.2z
	 M129.5,11.7c0.8,0,1.5,0,2.2,0c0.7,0,1.3-0.2,2-0.3c1.1-0.3,2-1.1,2.3-2.2c0.4-1.2,0.4-2.4,0.2-3.6c-0.2-1.3-1.1-2.4-2.4-2.9
	c-0.8-0.3-1.8-0.4-2.7-0.4c-1,0-1.8,0.5-1.8,1.7c0,2.4,0,4.8,0,7.3L129.5,11.7z"/>
<path class="st1" d="M61.9,22.7c0,0.5,0,0.5-0.5,0.5h-5.8c-0.5,0-0.5,0-0.5-0.5c0.4-0.1,0.8-0.2,1.2-0.4c0.8-0.5,1.3-1.3,1.2-2.3
	c0-3.4,0-6.9,0.1-10.3c0-1.8,0-3.7,0-5.5c0-0.3-0.1-0.6-0.2-0.9c-0.3-0.5-0.7-0.9-1-1.4c-0.3-0.4-0.7-0.6-1.2-0.6
	C55,0.9,55,0.8,55.5,0.8h6c0.2,0,0.5,0.1,0.6,0.3c0.7,0.9,1.5,1.8,2.3,2.7l3.3,3.8l3.2,3.7l2.6,3c0.1,0.1,0.2,0.2,0.4,0.3
	c0-0.2,0-0.3,0-0.4c0-3.4,0-6.8,0-10.1c0.1-0.6-0.1-1.3-0.5-1.8c-0.3-0.4-0.8-0.7-1.3-0.7l-0.7-0.1c-0.4-0.1-0.2-0.3-0.3-0.6h6.8
	v0.5c-0.5,0.1-1,0.2-1.4,0.4c-0.7,0.4-1.2,1.1-1.1,1.9c0,6.4,0,12.7,0,19.1c0,0.1,0,0.3,0,0.4c0,0.1-0.2,0.2-0.2,0.2
	c-0.3,0-0.7,0-1,0c-0.2,0-0.3-0.1-0.4-0.3c-1.2-1.4-2.4-2.9-3.6-4.4l-4.6-5.5l-4.1-4.9l-2-2.4c-0.1-0.1-0.2-0.2-0.3-0.2
	c0,0.6,0,1.2,0,1.7c0,4.1,0,8.3,0,12.4c-0.1,1.2,0.6,2.3,1.7,2.7C61.1,22.6,61.5,22.7,61.9,22.7z"/>
<path class="st1" d="M119.9,22.7v0.6h-10.3c-0.5,0-0.5,0-0.5-0.6l1-0.1c1.1-0.1,1.6-0.8,1.2-1.9s-0.8-2.3-1.2-3.4
	c0-0.2-0.2-0.3-0.4-0.3h-6.8c-0.1,0-0.3,0.1-0.4,0.2c-0.5,1.1-0.9,2.2-1.4,3.3l0,0c-0.3,1.4,0.3,2,1.6,2.1h0.4v0.6h-6.5
	c0-0.3-0.1-0.6,0.4-0.6c0.7-0.1,1.2-0.5,1.5-1.1c0.4-0.7,0.7-1.5,1-2.3c0.6-1.3,1.1-2.7,1.6-4c0.9-2.1,1.7-4.2,2.6-6.3
	c1-2.4,1.9-4.7,2.9-7.1c0-0.1,0.1-0.2,0.1-0.3c0.1-0.3,0.2-0.7,0.4-0.8c0.5-0.1,0.9-0.1,1.4,0c0.1,0,0.2,0.3,0.3,0.5
	c0.6,1.3,1.1,2.6,1.7,3.9s1.1,2.6,1.7,3.9c0.6,1.4,1.2,2.9,1.9,4.4l2.6,6c0.3,0.6,0.6,1.3,0.8,1.9c0.3,0.8,1.1,1.4,2,1.3h0.1
	L119.9,22.7z M106.5,7.7h-0.2c-1.1,2.6-2.1,5.2-3.2,7.9h6.1L106.5,7.7z"/>
<path class="st1" d="M78.9,0.8h10.6c0.1,0.5,0.1,0.6-0.4,0.6c-0.5,0-0.9,0.1-1.4,0.3c-0.5,0.2-0.7,0.7-0.6,1.1c0,0,0,0.1,0.1,0.1
	c0.4,0.9,0.9,1.8,1.3,2.6l2.4,4.7c0.3,0.6,0.6,1.1,0.9,1.7c0.1,0.1,0.1,0.2,0.2,0.2c0.1-0.1,0.1-0.2,0.2-0.2
	c0.9-1.9,1.7-3.7,2.6-5.6c0.4-0.9,0.9-1.7,1.3-2.6c0.1-0.3,0.2-0.6,0.2-0.8c0.1-0.6-0.3-1.3-0.9-1.4c-0.1,0-0.1,0-0.2,0
	c-0.4-0.1-0.7-0.1-1.1-0.1V0.8h7.1c0.1,0.5,0.1,0.5-0.4,0.6c-1,0.1-1.9,0.6-2.5,1.3c-0.3,0.5-0.6,1-0.9,1.6c-0.5,1-1,2.1-1.5,3.1
	c-1.1,2.2-2.1,4.4-3.2,6.6c0,0.1,0,0.2,0,0.4c0,1.8,0,3.7,0,5.5c-0.1,0.7,0.2,1.5,0.6,2.1c0.5,0.5,1.1,0.7,1.8,0.7
	c0.2,0,0.4,0,0.4,0.3s-0.1,0.3-0.4,0.3H84.6c-0.2,0-0.4,0-0.4-0.3s0.1-0.3,0.3-0.3c1.4,0.1,2.6-1,2.7-2.4c0-0.1,0-0.2,0-0.3
	c0-1.7,0-3.5,0-5.2c0-0.3-0.1-0.5-0.2-0.7c-1-1.8-1.9-3.5-2.9-5.3L81.6,4C81.3,3.5,81,3,80.7,2.5c-0.3-0.6-0.9-1.1-1.6-1.1
	C78.8,1.3,78.8,1.3,78.9,0.8z"/>
<path class="st1" d="M43.1,1.4c0-0.6,0-0.6,0.5-0.6h10.2c0.3,0,0.5,0.1,0.4,0.4c0,0.1-0.1,0.2-0.3,0.2c-0.3,0.1-0.7,0.1-1,0.2
	c-0.7,0.2-1.1,0.8-1.1,1.4c0,0.3-0.1,0.7-0.1,1c0,5.2,0,10.5,0,15.7c-0.1,0.7,0.2,1.5,0.6,2.1c0.3,0.4,0.8,0.6,1.3,0.7l0.6,0.1
	c0.1,0.6,0.1,0.6-0.5,0.6H43v-0.5c0.6-0.1,1.3-0.3,1.9-0.6c0.9-0.5,1.4-1.4,1.3-2.4c0-5.4,0-10.7,0-16.1c0.1-1.1-0.8-2.1-1.9-2.2
	C43.9,1.5,43.5,1.5,43.1,1.4z"/>
</svg>
