<?xml version="1.0" encoding="utf-8"?>
<!-- Generator: Adobe Illustrator 21.1.0, SVG Export Plug-In . SVG Version: 6.00 Build 0)  -->
<svg version="1.1" id="Layer_1" xmlns="http://www.w3.org/2000/svg" xmlns:xlink="http://www.w3.org/1999/xlink" x="0px" y="0px"
	 viewBox="0 0 181 62.8" style="enable-background:new 0 0 181 62.8;" xml:space="preserve">
<style type="text/css">
	.st0{fill:#EE3D34;}
	.st1{fill:#006AB7;}
</style>
<title>Grocery</title>
<path class="st0" d="M0.5,44.1v-3.2h168.6v3.2L0.5,44.1z"/>
<path class="st1" d="M5,12c0,0.2,0,0.4,0,0.5C5,18.7,5,24.8,5,31c0.1,1.1-0.7,2.1-1.8,2.3c-1,0.2-2-0.4-2.3-1.4c0,0,0,0,0-0.1
	c-0.1-0.4-0.1-0.7-0.1-1.1c0-9,0-17.9,0-26.9c0-1,0.2-1.9,1.2-2.4c1.2-0.5,2.5-0.1,3.2,1.1c2.5,4.8,4.9,9.6,7.4,14.4l4.8,9.4
	c0.1,0.1,0.1,0.2,0.3,0.4c0.1-0.2,0.2-0.3,0.3-0.4l6.1-11.9c2-4,4.1-7.9,6.1-11.9C30.7,1.5,31.9,1,33,1.3c1,0.2,1.7,1.2,1.6,2.2
	c0,3,0,5.9,0,8.9c0,6.2,0,12.3,0,18.5c0.1,0.9-0.3,1.8-1.1,2.2c-1,0.5-2.2,0.1-2.7-0.8c-0.1-0.2-0.2-0.5-0.2-0.8
	c0-0.4-0.1-0.8-0.1-1.2c0-5.8,0-11.7,0-17.5c0-0.2,0-0.5,0-0.8h-0.1c-0.2,0.3-0.4,0.6-0.5,1l-7.9,15l-2.1,3.9
	c-0.3,0.7-0.9,1.2-1.7,1.3c-1,0.1-2.1-0.4-2.5-1.4c-1.1-2.1-2.3-4.3-3.4-6.4l-6.9-13l-0.2-0.4L5,12z"/>
<path class="st1" d="M130.2,18.2c-0.3,0.7-0.6,1.3-0.8,1.9c-1.6,3.9-3.3,7.8-4.9,11.7c-0.3,0.8-0.8,1.4-1.7,1.5
	c-0.8,0-1.5-0.5-1.8-1.3c-0.4-1-0.8-1.9-1.2-2.9c-2.1-5-4.1-10-6.2-15c-0.4-0.7-0.4-1.6,0-2.3c0.5-0.6,1.2-0.9,2-0.8
	c0.7,0.1,1.3,0.6,1.5,1.3l3,7.3l2.4,5.9c0.1,0.2,0.1,0.3,0.3,0.6c0.2-0.5,0.4-0.8,0.6-1.2l5.2-12.2c0.1-0.4,0.3-0.7,0.5-1
	c0.5-0.7,1.4-0.9,2.1-0.4c0.2,0.1,0.4,0.3,0.5,0.5c0.4,0.7,0.7,1.4,1,2.2l4.9,11.9c0,0.1,0.1,0.2,0.2,0.3c0.2-0.5,0.4-1,0.6-1.4
	l4.7-11.9c0.1-0.1,0.1-0.2,0.1-0.3c0.1-0.7,0.7-1.3,1.4-1.4c0.8-0.2,1.6,0.1,2.1,0.8c0.3,0.4,0.5,1,0.3,1.5
	c-0.4,1.2-0.8,2.3-1.3,3.5c-2,4.9-4,9.8-6,14.8c-0.2,0.5-0.5,0.9-0.8,1.3c-0.6,0.7-1.7,0.7-2.3,0.1c-0.2-0.2-0.4-0.5-0.5-0.8
	c-1.8-4.5-3.6-9-5.5-13.5C130.4,18.5,130.3,18.4,130.2,18.2z"/>
<path class="st1" d="M165.1,29.7c-0.5,0.4-0.9,0.7-1.3,0.9c-2.3,1.7-5.1,2.5-7.9,2.4c-2.2-0.1-4.2-1.1-5.6-2.7
	c-1.4-1.6-1.4-4.6-0.1-6.6c1.4-2.2,3.7-3.7,6.3-4.2c1.4-0.3,2.8-0.4,4.2-0.5c1.2-0.1,2.5,0,3.7,0h0.5c0-1.8-1.3-3.5-3.1-3.8
	c-2.4-0.6-5-0.1-7.1,1.3c-0.4,0.3-0.8,0.7-1.1,1.1c-0.4,0.8-1.3,1.1-2.1,0.8c-0.9-0.2-1.5-1-1.6-1.9c-0.1-0.7,0.2-1.5,0.7-2
	c1.5-1.8,3.7-3,6-3.4c2.5-0.5,5.1-0.4,7.5,0.4c2.6,0.9,4.4,3.3,4.8,6c0.1,0.6,0.1,1.1,0.1,1.7c0,3.9,0,7.9,0,11.8
	c0.1,1.1-0.7,2.1-1.8,2.2c-0.3,0-0.7,0-1-0.2c-0.8-0.3-1.3-1-1.3-1.8C165.1,30.8,165.1,30.3,165.1,29.7z M165.1,24.2
	c0-0.1,0-0.3,0-0.4c0.1-0.4-0.1-0.6-0.6-0.6c-0.4,0-0.8,0-1.3,0c-1.9-0.1-3.8,0-5.6,0.4c-1.4,0.2-2.6,1-3.5,2.1
	c-0.8,1.1-0.8,2.4,0.9,3c1.1,0.3,2.4,0.4,3.5,0.1c2.3-0.4,4.4-1.5,6-3.2C165,25.2,165.2,24.7,165.1,24.2L165.1,24.2z"/>
<path class="st1" d="M76.1,33.3c-2.2,0.1-4.3-0.5-6.2-1.6c-1.2-0.7-2.2-1.6-3-2.8c-0.5-0.8-0.7-1.7-0.4-2.6c0.4-1.1,1.6-1.7,2.7-1.4
	c0.4,0.1,0.7,0.4,0.8,0.7c0.7,1.8,2.3,3.1,4.3,3.3c1.9,0.4,4,0.3,5.8-0.4c0.6-0.2,1.2-0.5,1.2-1.3c0-0.8-0.4-1.4-1.1-1.7
	c-1-0.4-2.1-0.8-3.2-1.1c-2.3-0.6-4.5-1.4-6.7-2.4c-1.4-0.6-2.5-1.7-3.2-3.1c-0.7-1.9-0.2-4,1.3-5.3c1.6-1.5,3.8-2.5,6-2.6
	c1.7-0.2,3.4-0.1,5.1,0.4c2.1,0.6,3.9,2.1,5,4c0.6,1.1,0.2,2.5-0.9,3.1c-0.4,0.2-0.8,0.3-1.2,0.3c-0.6,0-1.1-0.3-1.3-0.8
	c-0.3-1-0.9-1.8-1.8-2.4c-1.3-0.7-2.7-0.9-4.1-0.8c-1,0-2.1,0.3-3,0.8c-0.5,0.3-0.9,0.7-1,1.3c-0.1,0.6,0,1,0.6,1.2
	c1.1,0.4,2.2,0.8,3.3,1.2c2.4,0.6,4.7,1.5,6.9,2.6c1.5,0.7,2.7,2,3.3,3.6c0.8,2,0,4.3-1.7,5.6c-1.6,1.2-3.5,1.9-5.6,2.1
	C77.5,33.2,76.8,33.2,76.1,33.3z"/>
<path class="st1" d="M105.4,29.9c-0.4,0.3-0.6,0.4-0.8,0.7c-1.6,1.4-3.5,2.3-5.6,2.6c-2.2,0.2-4.4-0.4-6.2-1.7
	c-1.9-1.2-3.2-3.2-3.6-5.4c-0.1-0.5-0.1-1.1-0.2-1.6c0-3.7,0-7.5,0-11.2c0-0.3,0-0.7,0.1-1c0.3-1.1,1.4-1.7,2.5-1.3
	c0.6,0.2,1.1,0.7,1.3,1.3c0.1,0.4,0.2,0.8,0.2,1.3c0,3.6,0,7.3,0,10.9c0,3,1.9,4.5,4.6,4.6c3.2,0.1,6.1-1.8,7.4-4.8
	c0.1-0.3,0.1-0.5,0.1-0.8c0-3.3,0-6.7,0-10.1c0-0.4,0-0.7,0.1-1.1c0.2-0.9,1.1-1.6,2-1.5c0.9,0,1.8,0.7,1.9,1.6
	c0.1,0.3,0.1,0.7,0.1,1c0,5.8,0,11.6,0,17.3c0,1.2-0.5,2.1-1.4,2.3c-1,0.4-2.2,0-2.6-1.1c-0.1-0.3-0.2-0.5-0.2-0.8
	C105.4,30.9,105.4,30.4,105.4,29.9z"/>
<path class="st1" d="M52.9,21.8c0-1.9,0-3.8,0-5.6c0-0.4-0.1-0.5-0.5-0.5c-0.7,0-1.4,0-2.2,0c-1.1,0-2-0.9-2-2.1s0.9-2,2.1-2
	c0.7,0,1.4,0,2.1,0c0.3,0,0.5-0.1,0.5-0.4c0-1,0-2.1,0-3.1c-0.1-1.1,0.8-2.1,1.9-2.1s2.1,0.8,2.1,1.9c0,1.1,0,2.1,0,3.2
	c0,0.4,0.1,0.6,0.6,0.6c1.1,0,2.1,0,3.2,0c0.8,0,1.6,0.5,1.8,1.2c0.3,0.8,0.1,1.7-0.5,2.2c-0.4,0.3-0.8,0.5-1.3,0.5
	c-1,0.1-2.1,0.1-3.2,0.1c-0.4,0-0.6,0.1-0.6,0.6c0,3.3,0,6.6,0,9.8c0,0.6,0.1,1.2,0.2,1.8c0,0.3,0.3,0.6,0.7,0.6c0,0,0,0,0,0
	c1,0,2,0,3,0c1.1-0.1,2.1,0.7,2.2,1.8c0,0.2,0,0.3,0,0.5c0,0.9-0.7,1.7-1.6,1.8c-0.5,0-1,0-1.5,0c-0.9,0-1.8-0.1-2.7,0
	c-1.9,0.1-3.6-1.3-3.9-3.1c-0.2-0.8-0.3-1.6-0.3-2.5C52.8,25.2,52.9,23.5,52.9,21.8z"/>
<path class="st1" d="M40.6,22c0-2.9,0-5.8,0-8.7c0-0.5,0.1-1.1,0.3-1.5c0.4-0.7,1.3-1.1,2.1-0.9c0.7,0,1.3,0.5,1.5,1.2
	c0.1,0.3,0.2,0.7,0.2,1c0,6,0,12,0,17.9c0.1,1-0.4,1.9-1.4,2.2c-1.4,0.3-2.7-0.3-2.7-1.8c-0.1-2,0-4.1,0-6.1
	C40.6,24.2,40.6,23.1,40.6,22z"/>
<path d="M8,60.5l1.9-3.8c0.6-1.2,1.2-2.4,1.8-3.5c0.1-0.3,0.4-0.5,0.8-0.4c0.4,0.1,0.4,0.4,0.4,0.7c0,2.6,0,5.3,0,7.9
	c0,0.2-0.1,0.4-0.2,0.6c-0.3,0.3-0.8,0-0.8-0.5c0-0.8,0-1.6,0-2.5c0-1.2,0-2.3-0.1-3.6c-0.1,0.2-0.2,0.3-0.3,0.5
	c-1,1.9-1.9,3.7-2.9,5.5c-0.1,0.2-0.4,0.5-0.6,0.5c-0.3-0.1-0.5-0.3-0.7-0.5c-1-1.9-2-3.7-3-5.6l-0.3-0.5c0,0.3,0,0.4,0,0.6
	c0,1.7,0,3.5,0,5.2c0,0.2,0,0.4-0.1,0.5c-0.1,0.2-0.3,0.3-0.5,0.3c-0.1,0-0.3-0.2-0.4-0.3c0-0.1,0-0.3,0-0.4c0-2.6,0-5.2,0-7.8
	c0-0.6,0.3-0.9,0.8-0.7c0.2,0.1,0.4,0.3,0.5,0.5c1.1,2.1,2.2,4.2,3.3,6.3L8,60.5z"/>
<path d="M180.5,7.2c0,3-2.4,5.5-5.4,5.5c-3,0-5.5-2.4-5.5-5.4c0-3,2.4-5.5,5.4-5.5c0,0,0.1,0,0.1,0C178,1.8,180.5,4.2,180.5,7.2
	C180.5,7.2,180.5,7.2,180.5,7.2z M179.4,7.2c-0.1-2.4-2.1-4.3-4.6-4.2c-2.4,0.1-4.3,2.1-4.2,4.6c0.1,2.4,2.1,4.2,4.4,4.2
	c2.4,0,4.4-2,4.3-4.4C179.4,7.2,179.4,7.2,179.4,7.2L179.4,7.2z"/>
<path d="M39.3,58.2c0,1,0,2,0,3c0,0.2,0,0.4,0,0.5c-0.1,0.2-0.3,0.3-0.5,0.4c-0.1,0-0.3-0.3-0.4-0.4s0-0.2,0-0.3c0-2.5,0-5.1,0-7.6
	c0-0.7,0.1-0.8,0.8-0.8h4.2c1.3-0.1,2.4,0.9,2.5,2.2c0.1,1-0.6,2-1.5,2.3l-0.5,0.2c1.5,0.7,1.9,2,2.1,3.5c0,0.1,0,0.2,0,0.3
	c0,0.3-0.3,0.6-0.6,0.6c0,0,0,0,0,0c-0.4,0.1-0.4-0.3-0.5-0.5c-0.2-0.7-0.4-1.5-0.6-2.2c-0.2-0.7-0.9-1.1-1.6-1.1
	C41.4,58.2,40.4,58.2,39.3,58.2z M39.3,57.2c1.2,0,2.3,0,3.5,0c0.3,0,0.7-0.1,0.9-0.3c0.6-0.4,1-1.1,0.9-1.8
	c-0.2-0.6-0.7-1.1-1.3-1.1c-1.2,0-2.4,0-3.6,0c-0.2,0-0.3,0.2-0.4,0.3C39.2,55.2,39.3,56.2,39.3,57.2L39.3,57.2z"/>
<path class="st1" d="M45.5,3.4c-0.1,1.6-1.3,2.8-2.9,2.9c-1.6,0-2.9-1.3-2.9-2.9c0-1.6,1.3-2.9,2.9-2.9l0,0
	C44.1,0.5,45.4,1.8,45.5,3.4z"/>
<path d="M163.6,56.8h3.9c0.3,0,0.6,0.1,0.6,0.5s-0.3,0.5-0.6,0.5h-3.9c0,1,0,1.9,0,2.8c0,0.4,0.3,0.4,0.6,0.4h3.7c0.1,0,0.3,0,0.4,0
	s0.4,0.3,0.4,0.5s-0.2,0.3-0.4,0.5s-0.2,0-0.3,0h-4.6c-0.7,0-0.9-0.2-0.9-0.9c0-2.4,0-4.8,0-7.2c0-0.7,0.1-0.9,0.9-0.9h4.6
	c0.4,0,0.7,0.1,0.7,0.5s-0.4,0.5-0.7,0.5c-1.3,0-2.6,0-3.9,0c-0.4,0-0.6,0.1-0.6,0.6C163.6,55.2,163.6,56,163.6,56.8z"/>
<path d="M138.1,62.3c-0.2-0.2-0.5-0.4-0.7-0.7c-0.3-0.6-0.6-1.3-0.9-1.9c-0.1-0.3-0.3-0.4-0.6-0.4c-1.2,0-2.5,0-3.7,0
	c-0.3,0-0.6,0.1-0.6,0.4c-0.3,0.6-0.6,1.2-0.9,1.9c-0.1,0.2-0.2,0.4-0.4,0.5c-0.2,0.1-0.5,0.1-0.6-0.1c-0.1-0.1-0.1-0.3-0.1-0.4
	c0.1-0.3,0.2-0.5,0.3-0.8c1.2-2.5,2.5-5,3.7-7.6c0.1-0.2,0.3-0.4,0.5-0.4c0.1,0,0.4,0.2,0.5,0.4c1.3,2.6,2.5,5.2,3.7,7.8
	c0.1,0.2,0.2,0.4,0.1,0.6C138.5,61.9,138.3,62.1,138.1,62.3z M135.9,58.3l-1.8-3.9l-1.9,3.9H135.9z"/>
<path d="M30,61.7c-0.1,0.1-0.2,0.4-0.3,0.3c-0.3,0-0.5-0.1-0.7-0.3c-0.3-0.5-0.5-1-0.7-1.5c-0.1-0.6-0.7-1-1.3-0.9c0,0,0,0,0,0
	c-1,0.1-2.1,0-3.1,0c-0.3,0-0.6,0.1-0.7,0.4c-0.3,0.6-0.5,1.2-0.8,1.8c-0.1,0.1-0.2,0.3-0.3,0.4c-0.2,0.1-0.4,0.1-0.6,0.1
	c-0.1,0-0.2-0.3-0.2-0.5c0-0.2,0.1-0.3,0.1-0.5c1.3-2.6,2.6-5.3,3.9-7.9c0.1-0.2,0.3-0.4,0.5-0.4s0.4,0.2,0.5,0.4
	c1.2,2.6,2.5,5.2,3.7,7.8C29.9,61.2,30,61.5,30,61.7z M25.6,54.4l-1.8,3.9h3.6c0-0.1-0.1-0.2-0.1-0.3L25.6,54.4z"/>
<path d="M55.2,57.4c0,1.3,0,2.5,0,3.7c0,0.2,0,0.3,0,0.5c0,0.3-0.2,0.5-0.5,0.5s-0.3-0.3-0.5-0.5s0-0.2,0-0.3c0-2.6,0-5.2,0-7.8
	c0-0.2,0.1-0.5,0.2-0.7c0.2-0.1,0.3-0.1,0.5,0c0.2,0.1,0.2,0.3,0.3,0.6c0,0.9,0,1.9,0,2.8c0,0.1,0,0.2,0,0.4
	c0.2-0.1,0.3-0.2,0.5-0.3l4.5-3.2c0.1-0.1,0.3-0.2,0.4-0.2s0.5,0.1,0.6,0.2c0.1,0.2,0,0.5-0.2,0.6c-0.7,0.5-1.3,0.9-2,1.4l-2.8,1.9
	c0.2,0.2,0.3,0.3,0.4,0.4l4.5,3.6l0.1,0.1c0.3,0.2,0.6,0.5,0.3,0.9s-0.5,0.3-1-0.1l-5.1-4.1L55.2,57.4z"/>
<path d="M70.9,56.8h3.9c0.3,0,0.6,0.1,0.6,0.5s-0.3,0.5-0.6,0.5H71c0,1,0,1.9,0,2.8c0,0.4,0.3,0.4,0.6,0.4h3.9c0.4,0,0.7,0,0.7,0.5
	s-0.4,0.5-0.7,0.5h-4.7c-0.6,0-0.8-0.2-0.8-0.8c0-2.5,0-4.9,0-7.4c0-0.6,0.1-0.8,0.8-0.8h4.7c0.4,0,0.7,0,0.7,0.5s-0.4,0.5-0.8,0.5
	c-1.3,0-2.5,0-3.8,0c-0.4,0-0.6,0.1-0.6,0.6C71,55.3,70.9,56,70.9,56.8z"/>
<path d="M101.1,58.1c0,0.9,0,1.8,0,2.7c0,0.2,0,0.5,0,0.8c-0.1,0.2-0.2,0.4-0.5,0.5c-0.3,0.1-0.5-0.2-0.5-0.5c0-0.1,0-0.2,0-0.3
	c0-2.5,0-5,0-7.5c0-0.8,0.1-0.8,0.8-0.8c1.1,0,2.3,0.1,3.5,0c1.3-0.1,2.5,1,2.6,2.3c0,0.5-0.1,1-0.3,1.4c-0.4,1-1.4,1.6-2.4,1.5
	L101.1,58.1z M101.1,57.1c1.1,0,2.1,0,3.1,0c0.8-0.1,1.5-0.7,1.5-1.6c0.1-0.8-0.4-1.5-1.2-1.6c0,0-0.1,0-0.1,0c-1,0-1.9,0-2.9,0
	c-0.3,0-0.4,0.1-0.4,0.4C101.1,55.3,101.1,56.1,101.1,57.1L101.1,57.1z"/>
<path d="M146.6,57.5c0-1.5,0.6-2.9,1.7-3.9c1.3-1,3.1-1.2,4.6-0.3c0.6,0.4,1.1,1,1.3,1.7c0.1,0.3,0,0.6-0.3,0.7c0,0,0,0-0.1,0
	c-0.3,0.1-0.5,0-0.6-0.2c-0.3-0.9-1.1-1.6-2.1-1.7c-1.1-0.2-2.2,0.3-2.7,1.2c-0.8,1.3-1,2.9-0.4,4.3c0.4,1.1,1.4,1.8,2.5,1.8
	c1.1,0,2.1-0.6,2.6-1.6c0.1-0.2,0.3-0.5,0.5-0.5c0.5-0.1,0.7,0.4,0.5,0.9c-0.9,1.8-2.9,2.7-4.8,2.1
	C147.5,61.2,146.6,59.9,146.6,57.5z"/>
<path d="M88.4,53.9c0,0.5,0,0.9,0,1.4c0,1.9,0,3.9,0,5.8c0,0.1,0,0.2,0,0.3c0,0.4-0.1,0.6-0.5,0.6s-0.5-0.3-0.5-0.7
	c0-0.6,0-1.1,0-1.7c0-1.7,0-3.5,0-5.2v-0.6h-2.6c-0.2,0-0.4,0-0.5,0S84,53.6,84,53.5s0.2-0.3,0.4-0.5s0.2,0,0.3,0h6.6
	c0.3,0,0.6,0.1,0.6,0.5S91.6,54,91.3,54L88.4,53.9L88.4,53.9z"/>
<path d="M115.1,57.3c0-1.2,0-2.4,0-3.7c0-0.1,0-0.3,0-0.4s0.3-0.4,0.4-0.4c0.2,0.1,0.4,0.2,0.5,0.4c0,0.2,0,0.5,0,0.7
	c0,2.1,0,4.3,0,6.4c0,0.5,0.2,0.6,0.6,0.6c1.3,0,2.7,0,4,0h0.4c0.3,0,0.6,0.2,0.5,0.5c0,0.3-0.2,0.5-0.5,0.5c0,0,0,0-0.1,0h-5.5
	c-0.4,0-0.6-0.3-0.6-0.7C115.2,59.9,115.1,58.6,115.1,57.3z"/>
<path d="M173,4.1c1,0,1.9,0,2.8,0c0.9-0.1,1.7,0.7,1.8,1.6c0,0.2,0,0.4-0.1,0.6c-0.2,0.8-0.8,1.1-1.5,1.3l1.7,2.6
	c-0.9,0.2-1,0.2-1.4-0.6c-0.3-0.5-0.6-0.9-0.9-1.4c-0.3-0.7-0.8-0.8-1.5-0.6v2.6H173V4.1z M174,4.9v1.9c0.6,0,1.2,0,1.8,0
	c0.5,0,0.8-0.4,0.8-0.9c0,0,0,0,0,0c0-0.4-0.3-0.8-0.7-0.9c0,0,0,0,0,0C175.2,4.9,174.6,4.9,174,4.9z"/>
</svg>
