<svg xmlns="http://www.w3.org/2000/svg" viewBox="0 0 864 864"><defs><style>.a{fill:#f7c269;}.b{fill:#3c3b3c;}.c{fill:#f7c268;}.d{fill:#3d3b3b;}.e{fill:#dd4826;}.f{fill:#a4bda1;}</style></defs><title>MOES_logo_trans_yellow</title><path class="a" d="M431.91,793c-197.51.21-361.17-159.27-361-361.52.16-199.18,162-363,366.21-360.45C632,73.48,793.35,231.39,793.09,432.6S629.86,793.28,431.91,793ZM113.6,432.29C114,606,253.76,750.58,432.38,750.37c177-.22,317.15-143,318-316.77.87-178.15-143.36-318.31-315.25-320C260.56,111.89,113.79,252.7,113.6,432.29Z"/><path class="b" d="M113.6,432.29c.19-179.59,147-320.4,321.52-318.69,171.89,1.69,316.12,141.85,315.25,320-.84,173.81-141,316.55-318,316.77C253.76,750.58,114,606,113.6,432.29ZM432.13,138.51c-162.15,0-293.48,131.1-293.77,292.84-.29,159.47,128.34,294.42,294,294.31,163.6-.11,295.47-134.13,293.29-298.09C723.55,268.69,593.08,138,432.13,138.51Z"/><path class="c" d="M432.13,138.51c161-.51,291.42,130.18,293.53,289.06,2.18,164-129.69,298-293.29,298.09-165.67.11-294.3-134.84-294-294.31C138.65,269.61,270,138.51,432.13,138.51Zm122,182.94a19,19,0,0,1,3.13,0c2.39.58,5.71-3.89,7.19,1.15a39.83,39.83,0,0,1,1.51,8.81c.1,1.77-1.69,1.08-2.68.93-4.44-.66-8.85-1.44-13.28-2.14-20-3.17-40-6.26-60-9.53-3.49-.57-5,.45-5.93,3.89-2,7.2-4.57,14.23-6.6,21.42-.86,3-1.93,4.19-5.2,3.06-3.76-1.29-7.81-1.73-11.53-3.09-13.35-4.88-26.64-6.22-40-.16-3,1.37-3.88.47-3.37-2.67,2.73-16.72,5.21-33.48,8.2-50.16.7-3.88-.08-4.6-3.67-4.31-13.92,1.14-27.85,2.2-41.79,3.08-3.26.21-5.56,1.77-7.93,3.65-16.16,12.82-32.39,25.54-48.47,38.45-2.73,2.2-4.41,2.42-6-.9a27,27,0,0,0-2.45-3.77c-6.41-8.8-10.73-19.13-20-25.83a181.89,181.89,0,0,1-18.13-14.85c-5.16-4.86-10.35-6.91-17.72-6.13-15.52,1.65-31.17,2.21-46.78,3-3.14.16-3.9,1.37-3.93,4.19-.07,5.49-.47,11-.63,16.45-.65,22.58-2.53,45.12.68,67.71,4,28,7.24,56,10.83,84,.32,2.48,1.1,4.95-2.65,5.66-2.16.41-1.32,2.41-1.18,3.75,2.23,20.32,4.54,40.63,6.74,61,.24,2.19.88,3.26,3.3,3.22q32.92-.51,65.86-.86c2.3,0,2.8-.9,2.4-3.05-1-5.38-1.86-10.8-2.69-16.21-5.22-34-10.5-67.95-15.57-102-1.78-12-3-24-4.51-36.2,4.94.92,7.24,3.5,8,8,.8,5.08,2.09,10.08,3.24,15.1,4.63,20.21,9.29,40.42,14.23,61.89,1.8-4.34,3.5-7.42,4.38-10.72,5.37-20.2,18.22-35,33.92-47.89.62-.5,1.22-1.17,2.3-.33.36,1.67-.83,3-1.51,4.44q-9.2,19.09-18.5,38.14a20.11,20.11,0,0,0-2.09,6.58c-2.66,23.28-5.32,46.56-8.29,69.8-.49,3.83.43,4.8,4.09,5.34,21.87,3.25,43.91,5.05,65.85,7.64,2.67.31,3.42-.51,3.47-3.16.15-7.14.55-14.28.95-21.42.51-9.25,1.12-18.5,1.75-28.83,4.44,3.44,8.39,5.92,11.61,9.14,4.22,4.22,8.79,4.82,14.48,4.13,13.2-1.6,26.49-2.41,39.72-3.76,3.65-.37,4.63.74,4.26,4.31-.84,7.93-1.29,15.9-2,23.85-.21,2.26.28,3.64,2.59,4.61,28.94,12.22,57.73,24.76,86.92,36.38,3.47,1.38,4.72.92,5.63-3,3.42-14.85,7.31-29.58,11.05-44.42,1.28.75,1.41,1.94,1.8,3a139,139,0,0,1,6,23.6c1.53,9,6.58,13.45,15.61,13.82a46.45,46.45,0,0,0,10.94-.43,285.52,285.52,0,0,0,54.61-17,8.62,8.62,0,0,0,3.76-3.13q11.76-16.44,23.62-32.8a11.57,11.57,0,0,0,2.16-7c.27-14.63.57-29.26,1-43.89a7.71,7.71,0,0,0-2.4-5.7c-10.13-11.42-20.27-22.82-31.5-33.25,1.33-1.51,2.9-1.35,4.29-1.69,7.12-1.78,14.17-3.68,20-8.49,5-4.12,6.88-9.37,5.32-15.58-3.2-12.72-6.69-25.36-9.91-38.07-.69-2.71-2-3.19-4.59-2.91-9.74,1.07-19.53,1.78-29.26,2.91-3.4.39-4.44-.35-3.82-3.84,2.4-13.45-.83-25.94-8.17-37.07-3.52-5.35-4.54-9.59-.32-14.57.11-.13-.15-.57-.3-1l-7.45-.36L621,273.13c-8.23-2.61-15.75-5.15-23.37-7.37-4.9-1.42-9.22.33-12.84,3.64-5,4.61-8,10.61-7.73,17.25s-1.88,10.81-8.45,12.52c-.66.17-2.41-.07-2,1.43,1.43,4.76-1.5,7.79-4.11,10.95S557.43,317.56,554.1,321.45ZM390.73,584.84c-1.93-5.76-3.34-10.18-4.88-14.55-.56-1.59-.8-4-3.57-2.28-1.89,1.21-5.32,1.25-3.84,5,2.72,7,5.5,13.9,8.07,20.93,1,2.66,2.95,2,4.86,2.23,2.15.25,2.91-1,3.44-2.7,1.1-3.63,2.26-7.24,3.72-11.86,1.57,4.77,2.86,8.49,4,12.25.52,1.68,1.44,2.58,3.23,2.26,1.51-.26,3.54.9,4.39-1.24,3-7.57,6.12-15.1,8.77-22.79,1.14-3.28-2.55-3.35-4.32-4.36-2.28-1.29-2.23,1.11-2.68,2.33-1.58,4.31-3.08,8.64-5.11,14.38-1.5-5-2.61-8.56-3.61-12.13-.64-2.26-1-4.16-4.29-4.29-3.7-.15-4,2.14-4.65,4.5C393.21,576.22,392.16,579.87,390.73,584.84Zm167.32,8.53c-1,4.51-1.3,4.84-6,5.57-1.59.25-3.38-.23-3.32,2.44.07,2.82,2,2.58,3.79,2.64A12.68,12.68,0,0,0,566,591.71c.19-6.46.06-12.93.06-19.39,0-3.41,1-7.84-5.17-5-.64.29-1.81-.51-2.73-.84-6.25-2.27-11.66-.89-15.08,3.86-3.91,5.43-3.94,14.87-.06,20.21C546.19,595,551,595.94,558.05,593.37Zm-216-17.86c0,5.49.16,11-.06,16.47-.13,3.13,1,3.95,4,3.93,3.18,0,4-1.23,3.86-4.17-.2-3.64.11-7.32-.08-11s.84-6.44,4.95-6.44c4.33,0,4.2,3.5,4.27,6.5.1,4,.15,8,0,12-.13,3.05,1.69,3,3.84,3,2,0,3.61-.05,3.56-2.8-.14-6.48.13-13-.21-19.46-.27-5.3-4.38-8.15-9.76-7.36-6.49.95-6.49.95-6.58-6.18a12.5,12.5,0,0,1,0-1.5c.36-3.41-2-3.09-4.2-3.19s-3.72.33-3.63,3.19C342.22,564.19,342.09,569.85,342.09,575.51Zm101.77,21.66a19.17,19.17,0,0,0,7.79-1.41c3.09-1.14,2.17-3.92,1.89-6-.41-3.08-2.43-1-3.77-.7-3.75.79-7.55,2-10.63-1.57-.64-.74-1.32-1.6-.94-2.68.44-1.25,1.63-.94,2.55-1,4.32-.05,8.64,0,13-.07,1.36,0,3.25.58,3.2-1.9-.16-9.22-5.93-17-15.87-15.25-7.82,1.37-12.57,8.54-11.74,17.16C430.08,591.93,435.69,597.09,443.86,597.17Zm-139-16.87h.26c0-3.48-.19-7,.05-10.45s-1.83-3.41-4.37-3.54c-3-.16-3.69,1.07-3.58,3.76.17,4.15,0,8.3.06,12.45,0,3.36-2.4,4.29-4.9,4.46-2.73.19-4.16-1.52-4.11-4.41.08-4.32-.17-8.65.08-13,.19-3.33-1.71-3.25-4-3.3s-3.78.31-3.68,3.19c.17,5,0,10,0,14.94.1,8.59,5.18,11.95,13.2,8.79,1.33-.52,2-1.43,3.93.33,3,2.78,7,.29,7-3.81C304.92,586.61,304.89,583.45,304.89,580.3Zm-35.54-1.08c0-9.35-5.29-15.23-13.85-15.38-7.71-.14-12.94,5.42-13,13.79,0,9.55,5.07,15.39,13.61,15.52C264.35,593.28,269.34,588,269.35,579.22Zm207,17.39c6.26.33,10.87-2.89,11.69-7.74,1-6-1.2-9.23-6.65-10.9-2.16-.66-6.8.74-5.95-3.09.69-3.15,4.73-1.54,7.41-1.08.64.11,1.26.41,1.9.55s1.08-.2,1.38-.94a4.79,4.79,0,0,0-3.85-6.88,15.06,15.06,0,0,0-8.33.46c-4.44,1.78-6.23,5.13-6,9.79.25,4.49,3.23,6.25,7,7.15,1.29.3,2.64.31,3.93.6s2.25,1,2.28,2.29c0,1.59-1.06,2.31-2.53,2.52a15.56,15.56,0,0,1-8.28-1c-.84-.35-1.92-1.79-2.87,0-1.26,2.41.31,6.46,3,7.21A54.68,54.68,0,0,0,476.34,596.61ZM230.87,570.93c.29-6.76-.48-7.62-7.56-8.37-3.78-.39-7,.68-8.53,4.51-1.44,3.64.55,8.35,4.2,10.12,1.63.8,3.45,1.19,5.15,1.83,1.52.58,3.65,1,3,3.2s-2.81,1.46-4.29,1.07c-2.59-.68-5.08-1.74-7.72-2.68.29,6.95.29,6.95,7.16,8.83,6,1.64,9.88.3,11.31-3.9,1.66-4.92-.91-9.73-6.39-11.8-1.54-.59-3.17-1-4.73-1.51-1-.35-1.9-1-1.59-2.16s1.51-1,2.48-1.08C225.89,568.9,228.1,570.26,230.87,570.93Zm87.54,8.94c.06,3.45-.22,6.44.75,9.37a10.91,10.91,0,0,0,4.29,5.91c2.63,1.81,3.55-.63,4.81-1.87,1-1,3.21-2.1,1.1-4-4.84-4.27-2.58-9.93-3.06-15-.15-1.56,1-1.67,2.2-2,2.6-.73,1.9-4,1.14-4.22-5-1.18-3.27-4.95-3.29-7.84,0-2.61-1.14-2.91-3.34-2.89-3.16,0-5.05.76-4.69,4.51.2,2.12.93,4.61-1.81,6.15-.54.3-.69,2.78-.17,3.2C319.54,573.76,318,577.24,318.41,579.87Zm182.78,1.6c-.32,5.21-.14,10.11,4.4,13.65,1.94,1.52,3.41,1,4.57-.77.88-1.32,4.05-2.38,2.19-4.08-4.28-3.93-3.16-8.76-3.35-13.45-.07-1.65-.26-3.13,2.25-3.56,3.13-.53,1.76-4.34,1.14-4.43-5.13-.74-3.06-4.53-3.35-7.21-.19-1.72,0-3.62-2.56-3-2,.46-5-.82-5.33,2.81-.24,2.91.89,6.2-2.61,8.16-.39.22-.34,2.49.11,2.75C502.72,574.63,500.53,578.47,501.19,581.47Zm135.49-13.1h-.15c.25-3.82.45-7.64.78-11.44.2-2.24.18-4.28-2.86-3.75-2.3.41-6-1.63-5.88,3.51.13,8.14-.29,16.29-.36,24.44a17.86,17.86,0,0,0,.69,6.39c.91,2.41,2.68,5.23,5.76,3.75,2.32-1.12,5.68-3.09,1.92-6.64-1.15-1.09-.83-2.82-.74-4.31C636.1,576.33,636.4,572.35,636.68,568.37Zm-40.24,5.72c2-10.43-1.19-10.4-7.22-7.38-1.27.64-1.92-.05-3-.44-4.8-1.75-7.34.15-7.37,5.12,0,6.8,0,13.6-.17,20.4-.07,2.57.65,3.58,3.37,3.32,2.37-.23,4.67.27,4.51-3.43-.18-4.3.3-8.63.1-12.93s2.43-5.38,5.93-5.4A19.51,19.51,0,0,1,596.44,574.09Zm52.35-1.53c0,4.63-.13,8.78.06,12.92.08,2,1.54,3.25,3.45,3.82,1.62.48,2.56-.64,3.15-1.81.77-1.55,3.51-2.64,1.33-5-1.52-1.66-1.16-3.71-1.06-5.69.39-7.29.72-14.58,1.23-21.86.19-2.75-1-3.44-3.47-3.34-2.18.08-3.77.07-3.81,3.07C649.58,560.78,649.09,566.91,648.79,572.56ZM616,578.73c0-3.49,0-7,0-10.45,0-1.65.64-4.28-2.45-3.46-2.21.58-6-1.27-5.88,3.75a160.23,160.23,0,0,1-.51,19.85c-.44,4.54,1.13,5.22,5.15,5,3.2-.2,3.91-1.39,3.76-4.22C615.82,585.69,616,582.21,616,578.73Zm53.78-246.88c0,6.79,4.72,12.34,10.44,12.33a9.41,9.41,0,0,0,9.37-9.59c.11-6.23-5.38-12.47-11.08-12.6C673.22,321.86,669.71,325.83,669.74,331.85Zm-58,230.33c2.64.37,4.31.07,4.33-3.38s-1.46-3.68-4.15-3.62c-2.52.05-4.28,0-4.23,3.5C607.74,562,609,562.67,611.75,562.18Z"/><path class="d" d="M554.1,321.45c3.33-3.89,5.95-6.85,8.47-9.9s5.54-6.19,4.11-10.95c-.45-1.5,1.3-1.26,2-1.43,6.57-1.71,8.67-5.79,8.45-12.52s2.7-12.64,7.73-17.25c3.62-3.31,7.94-5.06,12.84-3.64,7.62,2.22,15.14,4.76,23.37,7.37l-12.38,12.33,7.45.36c.15.46.41.9.3,1-4.22,5-3.2,9.22.32,14.57,7.34,11.13,10.57,23.62,8.17,37.07-.62,3.49.42,4.23,3.82,3.84,9.73-1.13,19.52-1.84,29.26-2.91,2.57-.28,3.9.2,4.59,2.91,3.22,12.71,6.71,25.35,9.91,38.07,1.56,6.21-.33,11.46-5.32,15.58-5.84,4.81-12.89,6.71-20,8.49-1.39.34-3,.18-4.29,1.69,11.23,10.43,21.37,21.83,31.5,33.25a7.71,7.71,0,0,1,2.4,5.7c-.44,14.63-.74,29.26-1,43.89a11.57,11.57,0,0,1-2.16,7Q661.7,512.33,650,528.78a8.62,8.62,0,0,1-3.76,3.13,285.52,285.52,0,0,1-54.61,17,46.45,46.45,0,0,1-10.94.43c-9-.37-14.08-4.86-15.61-13.82a139,139,0,0,0-6-23.6c-.39-1.09-.52-2.28-1.8-3-3.74,14.84-7.63,29.57-11.05,44.42-.91,3.94-2.16,4.4-5.63,3-29.19-11.62-58-24.16-86.92-36.38-2.31-1-2.8-2.35-2.59-4.61.72-7.95,1.17-15.92,2-23.85.37-3.57-.61-4.68-4.26-4.31-13.23,1.35-26.52,2.16-39.72,3.76-5.69.69-10.26.09-14.48-4.13-3.22-3.22-7.17-5.7-11.61-9.14-.63,10.33-1.24,19.58-1.75,28.83-.4,7.14-.8,14.28-.95,21.42-.05,2.65-.8,3.47-3.47,3.16-21.94-2.59-44-4.39-65.85-7.64-3.66-.54-4.58-1.51-4.09-5.34,3-23.24,5.63-46.52,8.29-69.8a20.11,20.11,0,0,1,2.09-6.58q9.28-19.05,18.5-38.14c.68-1.42,1.87-2.77,1.51-4.44-1.08-.84-1.68-.17-2.3.33-15.7,12.85-28.55,27.69-33.92,47.89-.88,3.3-2.58,6.38-4.38,10.72-4.94-21.47-9.6-41.68-14.23-61.89-1.15-5-2.44-10-3.24-15.1-.71-4.53-3-7.11-8-8,1.51,12.2,2.73,24.24,4.51,36.2,5.07,34,10.35,68,15.57,102,.83,5.41,1.7,10.83,2.69,16.21.4,2.15-.1,3-2.4,3.05q-32.94.36-65.86.86c-2.42,0-3.06-1-3.3-3.22-2.2-20.32-4.51-40.63-6.74-61-.14-1.34-1-3.34,1.18-3.75,3.75-.71,3-3.18,2.65-5.66-3.59-28-6.86-56.07-10.83-84-3.21-22.59-1.33-45.13-.68-67.71.16-5.48.56-11,.63-16.45,0-2.82.79-4,3.93-4.19,15.61-.77,31.26-1.33,46.78-3,7.37-.78,12.56,1.27,17.72,6.13a181.89,181.89,0,0,0,18.13,14.85c9.26,6.7,13.58,17,20,25.83a27,27,0,0,1,2.45,3.77c1.63,3.32,3.31,3.1,6,.9,16.08-12.91,32.31-25.63,48.47-38.45,2.37-1.88,4.67-3.44,7.93-3.65,13.94-.88,27.87-1.94,41.79-3.08,3.59-.29,4.37.43,3.67,4.31-3,16.68-5.47,33.44-8.2,50.16-.51,3.14.36,4,3.37,2.67,13.34-6.06,26.63-4.72,40,.16,3.72,1.36,7.77,1.8,11.53,3.09,3.27,1.13,4.34,0,5.2-3.06,2-7.19,4.64-14.22,6.6-21.42.94-3.44,2.44-4.46,5.93-3.89,20,3.27,40,6.36,60,9.53,4.43.7,8.84,1.48,13.28,2.14,1,.15,2.78.84,2.68-.93a39.83,39.83,0,0,0-1.51-8.81c-1.48-5-4.8-.57-7.19-1.15A19,19,0,0,0,554.1,321.45ZM368.35,350.22c-2.29,9.09-4.4,17.58-6.57,26.07a4.68,4.68,0,0,1-2.65,3.46c-2.41.83-3.1,2.72-3.84,4.78-4.85,13.44-9.92,26.8-14.58,40.31-3.19,9.26-7.92,18.12-9.29,27.84-2.44,17.23-4,34.59-6,51.89-.3,2.59.24,4.27,3,4.57,10.72,1.13,21.45,2.2,32.17,3.35,2.52.27,3.53-.57,3.63-3.24.51-12.61,1.19-25.21,1.85-37.82.13-2.49,0-4.61-3.13-5.24-1.8-.36-2.68-1.36-1.88-3.61,4.89-13.85,9.6-27.76,14.46-41.9,1.89,1.66,1.95,3.61,2.47,5.29,3.23,10.3,6.34,20.63,9.53,30.94.54,1.72.88,3.55,2.44,4.8q7.39,5.91,14.71,11.91a5.27,5.27,0,0,0,4.05,1.52c12.81-1.34,25.64-2.64,38.38-3.94.32-1.57-.44-2.54-.92-3.57-2.6-5.55-2.57-5.44,3.23-7.32,6.48-2.11,12.84-4.56,19.34-6.61,2.67-.85,5.24-2.53,8.37-2.15-1.25,3.24-4.83,4.57-5.13,8.08-1.27,15.05-2.47,30.1-3.91,45.13-.34,3.65,1.07,5.29,4.32,6.58q28.47,11.38,56.78,23.14c3.64,1.53,4.63.22,5.44-2.93,3.61-14,7.26-27.93,11.09-41.84,1-3.63.08-4.64-3.6-4.31-12.46,1.09-24.78,1.21-36.71-3.89-3.57-1.53-4.92-2.69-4.08-6.7,2.12-10.06,3.91-20.2,5.51-30.36.49-3.07,1.83-3.61,4.33-2.89,4.95,1.42,9.91,2.82,14.8,4.4,2.36.76,3.67.37,4.47-2.18,2.34-7.44,4.9-14.81,7.32-22.23,1-3-.13-4.09-3.34-4.25-6.12-.29-12.21-1.19-18.33-1.57-2.78-.17-3.34-1.28-2.92-3.77,1.57-9.49,3-19,4.58-28.49.26-1.61-.38-4.3,2.46-4,3.23.35,7.46-1.45,9.29,2.64a4.15,4.15,0,0,0,3.56,2.7q12.4,2.65,24.78,5.46c2.68.61,3.7-.33,4.41-3,2.89-11.08,6.07-22.09,9.2-33.11.75-2.61.82-4.51-2.72-4.76-3-.21-5.9-.86-8.84-1.32q-29.74-4.68-59.49-9.34c-1.68-.26-3.63-.34-4.15,1.74-2.55,10.12-7.18,19.66-8.17,30.21-.26,2.72,1.21,6.93-1.37,7.76-2.35.76-4.67-3-7-4.78-4-3.14-7.33-7.42-12.4-9q-10-3.12-20.11-5.66c-3.48-.86-6.93-2.21-10.75-1.21q-17.81,4.67-35.69,9c-3.46.83-3.8,2.24-2.11,5.09,1.14,1.91,2.69,4.08.28,6.27L387.8,388.24c1.86-8.57,4.83-16.46,7.28-24.51,4.58-15.12,6.26-30.86,9.25-46.33,2.2-11.38,2.17-11.65-9.34-10.52-5.93.58-11.82.55-17.21,5-18.93,15.66-38.45,30.62-57.66,45.94-2.63,2.09-4.34,2.44-6.33-.74-3.18-5.06-6.51-10-10.07-14.83-6.9-9.28-11.74-20.12-21-27.62-5.93-4.81-11.8-9.71-17.49-14.8a7.35,7.35,0,0,0-5.8-2.09c-10.94.61-21.88,1.22-32.83,1.67-2.72.11-3.29,1.37-3.34,3.75-.11,5.48-.36,10.95-.7,16.42-2.1,33.73,2.82,66.95,7.24,100.19,2.2,16.6,5.05,33.12,7.58,49.68.35,2.34.65,4.7-2.73,5.31-2.64.48-2.63,2.59-2.4,4.68q1.72,16.1,3.44,32.17c.3,2.76,1.56,4,4.56,3.83,10.3-.48,20.6-.77,30.91-1,2.64-.06,3-1.05,2.45-3.39-.79-3.56-1.15-7.21-1.83-10.79-3.08-16.31-5.77-32.72-7.21-49.23-2.17-25-3.41-50-5-75-.11-1.66.15-3.47-1.72-4.34-2.95-1.36-3.13-4-3.33-6.7-.51-7-1.13-13.89-1.68-20.83-.11-1.41-1.11-3.28.42-4.09s2.66.89,3.85,1.7c9.08,6.15,18.06,12.44,27.24,18.43,3.14,2.05,4.91,3.73,1.75,7.16-1.37,1.49-.66,3.41-.29,5.24,2.77,13.49,6.29,26.8,10.08,40,.63,2.19.39,4.83,2.33,6.46C316.59,391.11,340.67,369.39,368.35,350.22ZM607.21,492.35c-11.65,0-21.93.06-32.22,0-3,0-4.64.15-3.36,4.06a225.83,225.83,0,0,1,7.94,32.37c1,5.81,1.71,6.22,7.52,4.94,12.65-2.77,25-6.49,37.4-10.31,5.48-1.69,11.76-2.23,15.58-7.15,6.51-8.39,12.59-17.12,18.92-25.65a10.2,10.2,0,0,0,1.77-6.57c0-10.65-.15-21.3.07-31.94a10,10,0,0,0-2.78-7.65c-11.79-12.17-23.32-24.63-37.48-34.22-7.59-5.15-8.25-13.67-1.75-20.19,1.89-1.9,3.41-3.72,4.47.51.44,1.75,1.65,2.3,3.39,2.06,9.05-1.24,18.1-2.47,26.65-5.93,3.24-1.31,4.64-3.29,3.55-7-1.91-6.52-3.69-13.09-5.14-19.72-.88-4-2.92-4.88-6.7-4.27-7.19,1.17-14.43,2.27-21.69,2.81-3.49.26-5.06,1.4-6.52,4.61-5,10.82-11.34,20.43-24.26,23-1.91.38-2.51,1.83-2.87,3.62-1.13,5.69-2.41,11.35-3.64,17-.64,3-.07,5.23,2.63,7.29,4.75,3.61,9.1,7.74,13.65,11.63.74.63,1.94,1.74,2.4,1.52,4.41-2.06,5.85,1.77,8,3.95,3.7,3.81,7.2,7.82,10.76,11.78,1.87,2.08,3.78,4,4.67,6.91,1.79,5.7,3.82,11.33,5.9,16.94,1.67,4.49.48,7.68-3.71,10-6.71,3.7-13.6,7-21.14,8.59C605.65,486.09,603.19,486.94,607.21,492.35Zm-28-14.88v-.25c3.49,0,7,0,10.48,0,1.12,0,2.44.33,3.17-.89,2.36-3.94,6.41-4.27,10.31-5.12a41.46,41.46,0,0,0,10.36-3.48c1.64-.85,2.85-1.91,2.15-3.9-1.64-4.66-3.09-9.24-6.19-13.44-3.23-4.38-8.43-4.66-12.08-7.86-7.38-6.46-14.71-13-22.56-18.9-5.79-4.31-9.24-8.53-5.37-15.86,1.25-2.35.87-4.19-2.58-4.74-11-1.72-21.94-3.72-32.89-5.71-5-.92-3.19,3.41-4.3,5.44-1.29,2.38-.31,3.39,2.29,4,7.26,1.74,14.43,3.86,21.67,5.72,2.58.66,3.48,1.53,2.51,4.48q-7.68,23.18-14.86,46.52c-.89,2.89-2.12,3.16-4.66,2.17-3.4-1.31-6.94-2.24-10.41-3.39-6-2-5.79-2-6.62,4.22-.68,5.15,3,4,5.44,3.91,12.29-.46,24.57-1.29,36.87-1.72,1.6-.05,5.21-2.25,4.83,2.36-.56,6.64-.6,6.62,6,6.46C574.9,477.43,577.06,477.47,579.23,477.47Zm6.61-101.42c4.12,1,7.2-.48,10.06-2.57a32.26,32.26,0,0,0,11.93-15.57c1.8-5.15,2.76-10.66,5-15.58,5.24-11.44,2.85-22.24-1.75-33-1-2.43-3.25-6.31-4.74-5.85-3.28,1-7.75-.22-9.54,1.84-3,3.45-7.46,4.07-10.36,7.21-1.7,1.85-3.35,2.47-4.94-.42-.68-1.24-1.35-3.49-3.56-2.63a5,5,0,0,0-3.25,4.6c-.27,4.51-.19,9,1.51,13.24,2.85,7.09,5.73,14.13,6,21.92,0,.48.11,1.33.33,1.38,5.64,1.43,2.48,5.67,2.67,8.7s-.08,6.43,1.1,9.33C587.34,371.29,587.45,373.56,585.84,376.05Zm11.82-98.27c-1.55-1.19-2.73-.92-3.48.05-6.66,8.6-4.89,19.46-8,29.36,6.71-4.77,6.71-4.77,5.19-7.36,1.42-.7,3.25-.42,4.47-1.78-1.27-1-3.3.65-4.19-1.51C589.77,292.11,593.34,280.31,597.66,277.78Z"/><path class="d" d="M390.73,584.84c1.43-5,2.48-8.62,3.55-12.27.69-2.36,1-4.65,4.65-4.5,3.3.13,3.65,2,4.29,4.29,1,3.57,2.11,7.12,3.61,12.13,2-5.74,3.53-10.07,5.11-14.38.45-1.22.4-3.62,2.68-2.33,1.77,1,5.46,1.08,4.32,4.36-2.65,7.69-5.76,15.22-8.77,22.79-.85,2.14-2.88,1-4.39,1.24-1.79.32-2.71-.58-3.23-2.26-1.16-3.76-2.45-7.48-4-12.25-1.46,4.62-2.62,8.23-3.72,11.86-.53,1.74-1.29,3-3.44,2.7-1.91-.21-3.9.43-4.86-2.23-2.57-7-5.35-14-8.07-20.93-1.48-3.8,1.95-3.84,3.84-5,2.77-1.76,3,.69,3.57,2.28C387.39,574.66,388.8,579.08,390.73,584.84Z"/><path class="d" d="M558.05,593.37c-7.08,2.57-11.86,1.6-15-2.79-3.88-5.34-3.85-14.78.06-20.21,3.42-4.75,8.83-6.13,15.08-3.86.92.33,2.09,1.13,2.73.84,6.19-2.87,5.16,1.56,5.17,5,0,6.46.13,12.93-.06,19.39A12.68,12.68,0,0,1,552.53,604c-1.83-.06-3.72.18-3.79-2.64-.06-2.67,1.73-2.19,3.32-2.44C556.75,598.21,557.09,597.88,558.05,593.37Zm.68-12.88c-.26-3.35,1.31-7.78-4.37-8.18-3.5-.25-6.26,3.16-6.24,7.41,0,4.76,2.59,8.37,6,8.26C559.29,587.81,558.9,584.06,558.73,580.49Z"/><path class="d" d="M342.09,575.51c0-5.66.13-11.32-.06-17-.09-2.86,1.27-3.3,3.63-3.19s4.56-.22,4.2,3.19a12.5,12.5,0,0,0,0,1.5c.09,7.13.09,7.13,6.58,6.18,5.38-.79,9.49,2.06,9.76,7.36.34,6.47.07,13,.21,19.46.05,2.75-1.57,2.79-3.56,2.8-2.15,0-4,0-3.84-3,.18-4,.13-8,0-12-.07-3,.06-6.5-4.27-6.5-4.11,0-5.15,2.73-4.95,6.44s-.12,7.33.08,11c.16,2.94-.68,4.16-3.86,4.17-3,0-4.13-.8-4-3.93C342.25,586.5,342.09,581,342.09,575.51Z"/><path class="d" d="M443.86,597.17c-8.17-.08-13.78-5.24-14.56-13.38-.83-8.62,3.92-15.79,11.74-17.16,9.94-1.73,15.71,6,15.87,15.25,0,2.48-1.84,1.88-3.2,1.9-4.32.07-8.64,0-13,.07-.92,0-2.11-.29-2.55,1-.38,1.08.3,1.94.94,2.68,3.08,3.56,6.88,2.36,10.63,1.57,1.34-.28,3.36-2.38,3.77.7.28,2.08,1.2,4.86-1.89,6A19.17,19.17,0,0,1,443.86,597.17Zm-.17-23.74c-2.79-.25-6,1.91-5.79,4.27.31,3.37,3.08,1.06,4.66,1.58a8.93,8.93,0,0,0,3.46,0c1-.1,2.5.61,3-1,.35-1.25-.53-2.24-1.31-3.07A6.44,6.44,0,0,0,443.69,573.43Z"/><path class="d" d="M304.89,580.3c0,3.15,0,6.31,0,9.46,0,4.1-4.07,6.59-7,3.81-1.89-1.76-2.6-.85-3.93-.33-8,3.16-13.1-.2-13.2-8.79-.06-5,.12-10,0-14.94-.1-2.88,1.35-3.24,3.68-3.19s4.23,0,4,3.3c-.25,4.3,0,8.63-.08,13-.05,2.89,1.38,4.6,4.11,4.41,2.5-.17,4.94-1.1,4.9-4.46,0-4.15.11-8.3-.06-12.45-.11-2.69.59-3.92,3.58-3.76,2.54.13,4.62,0,4.37,3.54s-.05,7-.05,10.45Z"/><path class="d" d="M269.35,579.22c0,8.81-5,14.06-13.23,13.93-8.54-.13-13.66-6-13.61-15.52.05-8.37,5.28-13.93,13-13.79C264.06,564,269.35,569.87,269.35,579.22Zm-7.14.46c0-5.62-3-9.64-6.7-9.25-4.57.48-5.07,4.09-5.11,7.68-.06,5.15,3,9.2,6.64,8.8C261.67,586.41,261.85,582.69,262.21,579.68Z"/><path class="d" d="M476.34,596.61a54.68,54.68,0,0,1-5.8-1c-2.7-.75-4.27-4.8-3-7.21,1-1.83,2-.39,2.87,0a15.56,15.56,0,0,0,8.28,1c1.47-.21,2.57-.93,2.53-2.52,0-1.34-1.1-2-2.28-2.29s-2.64-.3-3.93-.6c-3.81-.9-6.79-2.66-7-7.15-.25-4.66,1.54-8,6-9.79a15.06,15.06,0,0,1,8.33-.46,4.79,4.79,0,0,1,3.85,6.88c-.3.74-.63,1.1-1.38.94s-1.26-.44-1.9-.55c-2.68-.46-6.72-2.07-7.41,1.08-.85,3.83,3.79,2.43,5.95,3.09,5.45,1.67,7.66,4.91,6.65,10.9C487.21,593.72,482.6,596.94,476.34,596.61Z"/><path class="d" d="M230.87,570.93c-2.77-.67-5-2-7.54-1.94-1,0-2.16-.14-2.48,1.08s.61,1.81,1.59,2.16c1.56.55,3.19.92,4.73,1.51,5.48,2.07,8.05,6.88,6.39,11.8-1.43,4.2-5.31,5.54-11.31,3.9-6.87-1.88-6.87-1.88-7.16-8.83,2.64.94,5.13,2,7.72,2.68,1.48.39,3.64,1,4.29-1.07s-1.45-2.62-3-3.2c-1.7-.64-3.52-1-5.15-1.83-3.65-1.77-5.64-6.48-4.2-10.12,1.51-3.83,4.75-4.9,8.53-4.51C230.39,563.31,231.16,564.17,230.87,570.93Z"/><path class="d" d="M318.41,579.87c-.39-2.63,1.13-6.11-2.07-8.7-.52-.42-.37-2.9.17-3.2,2.74-1.54,2-4,1.81-6.15-.36-3.75,1.53-4.48,4.69-4.51,2.2,0,3.33.28,3.34,2.89,0,2.89-1.71,6.66,3.29,7.84.76.18,1.46,3.49-1.14,4.22-1.23.35-2.35.46-2.2,2,.48,5.11-1.78,10.77,3.06,15,2.11,1.86-.07,2.95-1.1,4-1.26,1.24-2.18,3.68-4.81,1.87a10.91,10.91,0,0,1-4.29-5.91C318.19,586.31,318.47,583.32,318.41,579.87Z"/><path class="d" d="M501.19,581.47c-.66-3,1.53-6.84-2.54-9.15-.45-.26-.5-2.53-.11-2.75,3.5-2,2.37-5.25,2.61-8.16.31-3.63,3.35-2.35,5.33-2.81,2.59-.6,2.37,1.3,2.56,3,.29,2.68-1.78,6.47,3.35,7.21.62.09,2,3.9-1.14,4.43-2.51.43-2.32,1.91-2.25,3.56.19,4.69-.93,9.52,3.35,13.45,1.86,1.7-1.31,2.76-2.19,4.08-1.16,1.75-2.63,2.29-4.57.77C501.05,591.58,500.87,586.68,501.19,581.47Z"/><path class="d" d="M636.68,568.37c-.28,4-.58,8-.84,11.94-.09,1.49-.41,3.22.74,4.31,3.76,3.55.4,5.52-1.92,6.64-3.08,1.48-4.85-1.34-5.76-3.75a17.86,17.86,0,0,1-.69-6.39c.07-8.15.49-16.3.36-24.44-.09-5.14,3.58-3.1,5.88-3.51,3-.53,3.06,1.51,2.86,3.75-.33,3.8-.53,7.62-.78,11.44Z"/><path class="d" d="M596.44,574.09a19.51,19.51,0,0,0-3.85-.74c-3.5,0-6.13,1-5.93,5.4s-.28,8.63-.1,12.93c.16,3.7-2.14,3.2-4.51,3.43-2.72.26-3.44-.75-3.37-3.32.17-6.8.14-13.6.17-20.4,0-5,2.57-6.87,7.37-5.12,1.08.39,1.73,1.08,3,.44C595.25,563.69,598.44,563.66,596.44,574.09Z"/><path class="d" d="M648.79,572.56c.3-5.65.79-11.78.88-17.91,0-3,1.63-3,3.81-3.07,2.51-.1,3.66.59,3.47,3.34-.51,7.28-.84,14.57-1.23,21.86-.1,2-.46,4,1.06,5.69,2.18,2.38-.56,3.47-1.33,5-.59,1.17-1.53,2.29-3.15,1.81-1.91-.57-3.37-1.84-3.45-3.82C648.66,581.34,648.79,577.19,648.79,572.56Z"/><path class="b" d="M616,578.73c0,3.48-.14,7,0,10.43.15,2.83-.56,4-3.76,4.22-4,.26-5.59-.42-5.15-5a160.23,160.23,0,0,0,.51-19.85c-.14-5,3.67-3.17,5.88-3.75,3.09-.82,2.42,1.81,2.45,3.46C616,571.76,616,575.24,616,578.73Z"/><path class="d" d="M669.74,331.85c0-6,3.48-10,8.73-9.86,5.7.13,11.19,6.37,11.08,12.6a9.41,9.41,0,0,1-9.37,9.59C674.46,344.19,669.77,338.64,669.74,331.85Zm18,2.62c0-5.6-4.56-10.87-9.43-10.82-4.19,0-6.81,3.11-6.87,8-.06,5.78,4,10.79,8.74,10.83C684.49,342.55,687.65,339.18,687.69,334.47Z"/><path class="b" d="M611.75,562.18c-2.72.49-4-.23-4-3.5-.05-3.51,1.71-3.45,4.23-3.5,2.69-.06,4.16.28,4.15,3.62S614.39,562.55,611.75,562.18Z"/><path class="e" d="M368.35,350.22c-27.68,19.17-51.76,40.89-70.16,68.87-1.94-1.63-1.7-4.27-2.33-6.46-3.79-13.24-7.31-26.55-10.08-40-.37-1.83-1.08-3.75.29-5.24,3.16-3.43,1.39-5.11-1.75-7.16-9.18-6-18.16-12.28-27.24-18.43-1.19-.81-2.43-2.46-3.85-1.7s-.53,2.68-.42,4.09c.55,6.94,1.17,13.88,1.68,20.83.2,2.73.38,5.34,3.33,6.7,1.87.87,1.61,2.68,1.72,4.34,1.61,25,2.85,50.06,5,75,1.44,16.51,4.13,32.92,7.21,49.23.68,3.58,1,7.23,1.83,10.79.53,2.34.19,3.33-2.45,3.39-10.31.23-20.61.52-30.91,1-3,.14-4.26-1.07-4.56-3.83q-1.71-16.08-3.44-32.17c-.23-2.09-.24-4.2,2.4-4.68,3.38-.61,3.08-3,2.73-5.31-2.53-16.56-5.38-33.08-7.58-49.68-4.42-33.24-9.34-66.46-7.24-100.19.34-5.47.59-10.94.7-16.42.05-2.38.62-3.64,3.34-3.75,10.95-.45,21.89-1.06,32.83-1.67a7.35,7.35,0,0,1,5.8,2.09c5.69,5.09,11.56,10,17.49,14.8,9.27,7.5,14.11,18.34,21,27.62,3.56,4.79,6.89,9.77,10.07,14.83,2,3.18,3.7,2.83,6.33.74,19.21-15.32,38.73-30.28,57.66-45.94,5.39-4.47,11.28-4.44,17.21-5,11.51-1.13,11.54-.86,9.34,10.52-3,15.47-4.67,31.21-9.25,46.33-2.45,8-5.42,15.94-7.28,24.51L399,378.1c2.41-2.19.86-4.36-.28-6.27-1.69-2.85-1.35-4.26,2.11-5.09q17.88-4.29,35.69-9c3.82-1,7.27.35,10.75,1.21q10.14,2.52,20.11,5.66c5.07,1.59,8.36,5.87,12.4,9,2.32,1.8,4.64,5.54,7,4.78,2.58-.83,1.11-5,1.37-7.76,1-10.55,5.62-20.09,8.17-30.21.52-2.08,2.47-2,4.15-1.74q29.74,4.65,59.49,9.34c2.94.46,5.87,1.11,8.84,1.32,3.54.25,3.47,2.15,2.72,4.76-3.13,11-6.31,22-9.2,33.11-.71,2.7-1.73,3.64-4.41,3q-12.37-2.8-24.78-5.46a4.15,4.15,0,0,1-3.56-2.7c-1.83-4.09-6.06-2.29-9.29-2.64-2.84-.31-2.2,2.38-2.46,4-1.57,9.49-3,19-4.58,28.49-.42,2.49.14,3.6,2.92,3.77,6.12.38,12.21,1.28,18.33,1.57,3.21.16,4.31,1.26,3.34,4.25-2.42,7.42-5,14.79-7.32,22.23-.8,2.55-2.11,2.94-4.47,2.18-4.89-1.58-9.85-3-14.8-4.4-2.5-.72-3.84-.18-4.33,2.89-1.6,10.16-3.39,20.3-5.51,30.36-.84,4,.51,5.17,4.08,6.7,11.93,5.1,24.25,5,36.71,3.89,3.68-.33,4.59.68,3.6,4.31-3.83,13.91-7.48,27.87-11.09,41.84-.81,3.15-1.8,4.46-5.44,2.93q-28.29-11.82-56.78-23.14c-3.25-1.29-4.66-2.93-4.32-6.58,1.44-15,2.64-30.08,3.91-45.13.3-3.51,3.88-4.84,5.13-8.08-3.13-.38-5.7,1.3-8.37,2.15-6.5,2.05-12.86,4.5-19.34,6.61-5.8,1.88-5.83,1.77-3.23,7.32.48,1,1.24,2,.92,3.57-12.74,1.3-25.57,2.6-38.38,3.94a5.27,5.27,0,0,1-4.05-1.52q-7.32-6-14.71-11.91c-1.56-1.25-1.9-3.08-2.44-4.8-3.19-10.31-6.3-20.64-9.53-30.94-.52-1.68-.58-3.63-2.47-5.29-4.86,14.14-9.57,28.05-14.46,41.9-.8,2.25.08,3.25,1.88,3.61,3.15.63,3.26,2.75,3.13,5.24-.66,12.61-1.34,25.21-1.85,37.82-.1,2.67-1.11,3.51-3.63,3.24-10.72-1.15-21.45-2.22-32.17-3.35-2.79-.3-3.33-2-3-4.57,2-17.3,3.56-34.66,6-51.89,1.37-9.72,6.1-18.58,9.29-27.84,4.66-13.51,9.73-26.87,14.58-40.31.74-2.06,1.43-3.95,3.84-4.78a4.68,4.68,0,0,0,2.65-3.46C364,367.8,366.06,359.31,368.35,350.22Zm27,70.07a11.71,11.71,0,0,0,.74,2.23c6.19,12.33,12.43,24.61,24.24,32.87,2.06,1.44,3.4,1.88,5.67.67q18.25-9.75,36.68-19.19a7.35,7.35,0,0,0,3.39-3.38c2.86-5.44,5.64-10.92,8.67-16.26a6,6,0,0,0-.18-6.88q-8.65-14-17-28.12c-1.23-2.07-2.44-2.59-4.82-1.89-16.88,5-33.8,9.78-50.72,14.62-1.67.48-3.18,1.05-3.47,3.06C397.52,405.25,396.48,412.47,395.36,420.29Z"/><path class="e" d="M607.21,492.35c-4-5.41-1.56-6.26,2-7,7.54-1.59,14.43-4.89,21.14-8.59,4.19-2.31,5.38-5.5,3.71-10-2.08-5.61-4.11-11.24-5.9-16.94-.89-2.86-2.8-4.83-4.67-6.91-3.56-4-7.06-8-10.76-11.78-2.12-2.18-3.56-6-8-3.95-.46.22-1.66-.89-2.4-1.52-4.55-3.89-8.9-8-13.65-11.63-2.7-2.06-3.27-4.32-2.63-7.29,1.23-5.68,2.51-11.34,3.64-17,.36-1.79,1-3.24,2.87-3.62,12.92-2.56,19.3-12.17,24.26-23,1.46-3.21,3-4.35,6.52-4.61,7.26-.54,14.5-1.64,21.69-2.81,3.78-.61,5.82.25,6.7,4.27,1.45,6.63,3.23,13.2,5.14,19.72,1.09,3.69-.31,5.67-3.55,7-8.55,3.46-17.6,4.69-26.65,5.93-1.74.24-2.95-.31-3.39-2.06-1.06-4.23-2.58-2.41-4.47-.51-6.5,6.52-5.84,15,1.75,20.19,14.16,9.59,25.69,22.05,37.48,34.22a10,10,0,0,1,2.78,7.65c-.22,10.64-.12,21.29-.07,31.94a10.2,10.2,0,0,1-1.77,6.57c-6.33,8.53-12.41,17.26-18.92,25.65-3.82,4.92-10.1,5.46-15.58,7.15-12.35,3.82-24.75,7.54-37.4,10.31-5.81,1.28-6.53.87-7.52-4.94a225.83,225.83,0,0,0-7.94-32.37c-1.28-3.91.32-4.09,3.36-4.06C585.28,492.41,595.56,492.35,607.21,492.35Z"/><path class="c" d="M579.23,477.47c-2.17,0-4.33,0-6.49,0-6.55.16-6.51.18-6-6.46.38-4.61-3.23-2.41-4.83-2.36-12.3.43-24.58,1.26-36.87,1.72-2.4.09-6.12,1.24-5.44-3.91.83-6.2.6-6.21,6.62-4.22,3.47,1.15,7,2.08,10.41,3.39,2.54,1,3.77.72,4.66-2.17q7.21-23.33,14.86-46.52c1-2.95.07-3.82-2.51-4.48-7.24-1.86-14.41-4-21.67-5.72-2.6-.62-3.58-1.63-2.29-4,1.11-2-.71-6.36,4.3-5.44,11,2,21.9,4,32.89,5.71,3.45.55,3.83,2.39,2.58,4.74-3.87,7.33-.42,11.55,5.37,15.86,7.85,5.86,15.18,12.44,22.56,18.9,3.65,3.2,8.85,3.48,12.08,7.86,3.1,4.2,4.55,8.78,6.19,13.44.7,2-.51,3.05-2.15,3.9a41.46,41.46,0,0,1-10.36,3.48c-3.9.85-8,1.18-10.31,5.12-.73,1.22-2,.88-3.17.89-3.5,0-7,0-10.48,0Z"/><path class="c" d="M585.84,376.05c1.61-2.49,1.5-4.76.44-7.39-1.18-2.9-.89-6.19-1.1-9.33s3-7.27-2.67-8.7c-.22-.05-.32-.9-.33-1.38-.24-7.79-3.12-14.83-6-21.92-1.7-4.21-1.78-8.73-1.51-13.24a5,5,0,0,1,3.25-4.6c2.21-.86,2.88,1.39,3.56,2.63,1.59,2.89,3.24,2.27,4.94.42,2.9-3.14,7.38-3.76,10.36-7.21,1.79-2.06,6.26-.82,9.54-1.84,1.49-.46,3.71,3.42,4.74,5.85,4.6,10.75,7,21.55,1.75,33-2.25,4.92-3.21,10.43-5,15.58a32.26,32.26,0,0,1-11.93,15.57C593,375.57,590,377,585.84,376.05Z"/><path class="f" d="M597.66,277.78c-4.32,2.53-7.89,14.33-6,18.76.89,2.16,2.92.52,4.19,1.51-1.22,1.36-3,1.08-4.47,1.78,1.52,2.59,1.52,2.59-5.19,7.36,3.15-9.9,1.38-20.76,8-29.36C594.93,276.86,596.11,276.59,597.66,277.78Z"/><path class="c" d="M558.73,580.49c.17,3.57.56,7.32-4.61,7.49-3.41.11-6-3.5-6-8.26,0-4.25,2.74-7.66,6.24-7.41C560,572.71,558.47,577.14,558.73,580.49Z"/><path class="c" d="M443.7,573.42a6.51,6.51,0,0,1,4,1.86c.78.83,1.66,1.82,1.31,3.07-.46,1.58-1.92.87-3,1a8.93,8.93,0,0,1-3.46,0c-1.58-.52-4.35,1.79-4.66-1.58C437.68,575.34,440.9,573.18,443.7,573.42Z"/><path class="c" d="M262.21,579.68c-.36,3-.54,6.73-5.17,7.23-3.66.4-6.7-3.65-6.64-8.8,0-3.59.54-7.2,5.11-7.68C259.22,570,262.16,574.06,262.21,579.68Z"/><path class="c" d="M687.69,334.47c0,4.71-3.2,8.08-7.56,8-4.75,0-8.8-5-8.74-10.83.06-4.93,2.68-8,6.87-8C683.13,323.6,687.72,328.87,687.69,334.47Z"/><path class="b" d="M395.36,420.29c1.12-7.82,2.16-15,3.19-22.27.29-2,1.8-2.58,3.47-3.06,16.92-4.84,33.84-9.66,50.72-14.62,2.38-.7,3.59-.18,4.82,1.89q8.35,14.14,17,28.12a6,6,0,0,1,.18,6.88c-3,5.34-5.81,10.82-8.67,16.26a7.35,7.35,0,0,1-3.39,3.38q-18.42,9.42-36.68,19.19c-2.27,1.21-3.61.77-5.67-.67-11.81-8.26-18-20.54-24.24-32.87A11.71,11.71,0,0,1,395.36,420.29Zm19.89-3.16a2.71,2.71,0,0,0,0,1c2.4,5.69,6.24,10.52,9.55,15.66.8,1.23,2.07.47,3.14-.07,6.81-3.44,13.73-6.68,20.43-10.34,5.59-3.05,6.69-8.08,3.46-13.53-1.1-1.85-2.28-3.67-3.25-5.59-1.17-2.3-2.62-2.88-5.23-2.1-7,2.1-14.08,3.84-21.13,5.7C416.58,409.35,415.2,411.17,415.25,417.13Z"/><path class="f" d="M415.25,417.13c-.05-6,1.33-7.78,7-9.28,7.05-1.86,14.14-3.6,21.13-5.7,2.61-.78,4.06-.2,5.23,2.1,1,1.92,2.15,3.74,3.25,5.59,3.23,5.45,2.13,10.48-3.46,13.53-6.7,3.66-13.62,6.9-20.43,10.34-1.07.54-2.34,1.3-3.14.07-3.31-5.14-7.15-10-9.55-15.66A2.71,2.71,0,0,1,415.25,417.13Z"/><path class="c" d="M679.4,328.58c1.22.07,2.32.46,2.46,1.82s-.69,2.07-2.07,2.08-2.09-.6-2-2.05C677.78,329.31,678.08,328.52,679.4,328.58Z"/><path class="d" d="M676.68,327.6a17.78,17.78,0,0,1,2.7-.2,4.52,4.52,0,0,1,3,.78,2.46,2.46,0,0,1,.84,2,2.6,2.6,0,0,1-1.77,2.45v0a2.52,2.52,0,0,1,1.37,1.89,19.77,19.77,0,0,0,.76,2.73h-1.84a15,15,0,0,1-.65-2.31c-.27-1.28-.74-1.68-1.75-1.71h-.9v4h-1.77Zm1.77,4.32h1.06c1.2,0,2-.63,2-1.61s-.75-1.56-1.91-1.56a4.59,4.59,0,0,0-1.1.09Z"/><path class="d" d="M676.68,327.6a17.78,17.78,0,0,1,2.7-.2,4.52,4.52,0,0,1,3,.78,2.46,2.46,0,0,1,.84,2,2.6,2.6,0,0,1-1.77,2.45v0a2.52,2.52,0,0,1,1.37,1.89,19.77,19.77,0,0,0,.76,2.73h-1.84a15,15,0,0,1-.65-2.31c-.27-1.28-.74-1.68-1.75-1.71h-.9v4h-1.77Zm1.77,4.32h1.06c1.2,0,2-.63,2-1.61s-.75-1.56-1.91-1.56a4.59,4.59,0,0,0-1.1.09Z"/></svg>