<?xml version="1.0" encoding="utf-8"?>
<!-- Generator: Adobe Illustrator 21.1.0, SVG Export Plug-In . SVG Version: 6.00 Build 0)  -->
<svg version="1.1" id="Layer_1" xmlns="http://www.w3.org/2000/svg" xmlns:xlink="http://www.w3.org/1999/xlink" x="0px" y="0px"
	 viewBox="0 0 151 57.3" style="enable-background:new 0 0 151 57.3;" xml:space="preserve">
<style type="text/css">
	.st0{fill:#014A91;}
	.st1{fill:#FFFFFF;}
	.st2{fill:#D82A2F;}
</style>
<title>CR</title>
<path class="st0" d="M29.6,0.7c-0.2,3.8-1.2,7.5-1.8,11.3c-0.4,2.8-1,5.5-1.5,8.3c-0.1,0.8-0.3,1.2-1.2,1.2c-1.5-0.1-3-0.1-4.5,0
	c-1,0-1.1-0.4-0.9-1.2c0.6-2.9,1.2-5.8,1.7-8.8c0.2-0.5,0.2-1,0-1.4c-1.7,3.3-3.3,6.4-4.8,9.6c-0.4,1.3-1.7,2.1-3.1,1.9
	c-2.8-0.2-2.8,0-3.1-2.8C10,15.8,9.5,12.9,8.8,10c-0.5,3.2-1,6.4-1.4,9.6c-0.2,1.3-0.6,2-2,1.8s-3.1-0.1-4.6-0.1v-1
	C0.8,20.3,1,20.1,1,20C2.2,13.6,3.3,7.2,4.4,0.8H13l1.8,11l0.3,0.1l5.2-11.1H29.6z"/>
<path class="st1" d="M13.8,21.6h-0.3h-0.3c-2.5-0.2-2.6-0.2-3-2.9c-0.3-2.2-0.7-5-1.4-7.8l-0.3,1.9c-0.3,2.2-0.7,4.6-1,6.8
	c-0.2,1.3-0.6,2.1-2.2,2c-1.1-0.1-2.2-0.1-3.2-0.1H0.5v-1.2l0,0l0.1-0.1c0.1,0,0.1-0.1,0.1-0.2c1-5.6,2-11.3,3-16.9l0.4-2.5h8.9
	l1.8,11H15l5.2-11.1h9.6v0.2c-0.2,2.4-0.5,4.8-1.1,7.2c-0.3,1.3-0.5,2.7-0.7,4.1s-0.5,3-0.8,4.5c-0.2,1.3-0.5,2.5-0.7,3.8
	c-0.1,0.9-0.4,1.3-1.4,1.3c-1.5-0.1-3-0.1-4.5,0c-0.4,0.1-0.7,0-1-0.3c-0.2-0.3-0.2-0.8-0.1-1.1c0.4-2,0.8-3.9,1.2-5.9
	c0.2-1,0.4-1.9,0.6-2.9v-0.2c0.1-0.3,0.1-0.5,0.1-0.8l-1.3,2.5c-1.2,2.3-2.3,4.5-3.4,6.7C16.3,20.9,15.1,21.7,13.8,21.6z M8.7,9.2
	L8.9,10c0.7,2.9,1.2,5.7,1.6,8.7c0.3,2.5,0.3,2.5,2.7,2.7h0.3c1.3,0.2,2.6-0.6,3-1.8c1.1-2.3,2.2-4.4,3.4-6.7l1.5-2.8l0.2-0.3
	l0.1,0.3c0.2,0.4,0.2,0.9,0.1,1.4v0.2c-0.2,1-0.4,1.9-0.6,2.9c-0.4,1.9-0.8,3.9-1.2,5.9c-0.1,0.5-0.1,0.7,0,0.8s0.3,0.2,0.7,0.2
	c1.5-0.1,3-0.1,4.5,0c0.8,0,0.9-0.2,1-1c0.2-1.3,0.4-2.6,0.7-3.8c0.3-1.5,0.6-3,0.8-4.5s0.5-2.8,0.7-4.1c0.5-2.3,0.8-4.6,1-7h-9
	L15.2,12l-0.5-0.2l-1.8-11H4.5L4.1,3c-1,5.6-2,11.3-3,16.9c0,0.1-0.1,0.3-0.2,0.3l-0.1,0.1v0.8h1.3c1.1,0,2.2,0,3.2,0.1
	c1.4,0.1,1.7-0.4,1.8-1.7c0.3-2.3,0.6-4.6,1-6.9c0.1-0.9,0.3-1.8,0.4-2.8L8.7,9.2z"/>
<path class="st0" d="M125,0.7c-1,5.5-2,11-3,16.5c-0.7,4.3-0.7,4.3-4.9,4.3h-0.5c-2.2,0-2.2,0-1.8-2.2c0.3-1.5,0.5-2.9,0.8-4.4
	c0.2-0.9-0.1-1.3-1.1-1.3c-4.5-0.2-4.5-0.2-5.3,4.2c-0.7,3.7-0.7,3.7-4.6,3.7c-2.9,0-2.9,0-2.4-2.8c1-6,2.1-12,3.1-18h6.6
	c-0.1,2-0.4,4-0.9,6c-0.1,0.8,0,1.2,1,1.2c1.3-0.1,2.5,0,3.8,0c0.6,0,1-0.1,1.1-0.8c0.3-2.1,0.7-4.2,1-6.3L125,0.7z"/>
<path class="st1" d="M117.2,21.6h-0.5c-1.2,0-1.7,0-2-0.3s-0.2-0.9,0.1-2l0,0c0.1-0.7,0.3-1.5,0.4-2.2s0.3-1.4,0.4-2.2
	c0.1-0.3,0.1-0.6-0.1-0.8c-0.1-0.2-0.4-0.2-0.9-0.3h-0.1c-4.2-0.2-4.2-0.2-5.1,4.1c-0.7,3.8-0.8,3.8-4.7,3.8c-1.5,0-2.2,0-2.6-0.4
	s-0.2-1.1,0-2.5v-0.2c0.7-4.2,1.4-8.4,2.2-12.7l0.9-5.4h7v0.2c0,1.5-0.2,3-0.6,4.4c-0.1,0.5-0.2,1.1-0.3,1.6s-0.1,0.7,0.1,0.8
	s0.4,0.2,0.7,0.2c1,0,2,0,3,0h0.8c0.6,0,0.9-0.1,1-0.7c0.2-1.5,0.5-3.1,0.7-4.6l0.3-1.8V0.6h7.3v0.2c-0.3,1.6-0.6,3.3-0.9,4.9
	c-0.7,3.8-1.4,7.7-2.1,11.5v0.2C121.5,21.5,121.4,21.6,117.2,21.6z M112.8,13.4c0.5,0,1.1,0,1.8,0h0.1c0.4,0,0.8,0.1,1.1,0.4
	c0.2,0.3,0.2,0.7,0.1,1.1c-0.1,0.7-0.3,1.4-0.4,2.2s-0.3,1.5-0.4,2.2l0,0c-0.2,1-0.3,1.6-0.1,1.8s0.7,0.2,1.7,0.2h0.5
	c4.1,0,4,0,4.7-4v-0.2c0.7-3.8,1.4-7.7,2.1-11.5c0.3-1.6,0.6-3.2,0.9-4.8h-6.6l-0.3,1.6c-0.2,1.5-0.5,3-0.7,4.6
	c-0.1,0.9-0.7,1-1.3,1h-0.8c-1,0-2,0-3,0c-0.4,0.1-0.7,0-1-0.3c-0.2-0.3-0.3-0.7-0.1-1.1c0.1-0.6,0.2-1.1,0.3-1.6
	c0.3-1.4,0.5-2.8,0.6-4.2h-6.3l-0.9,5.1c-0.7,4.2-1.4,8.4-2.2,12.7v0.1c-0.2,1.3-0.3,1.9-0.1,2.2s1,0.3,2.3,0.3c3.7,0,3.7,0,4.4-3.6
	C109.9,14,110,13.4,112.8,13.4L112.8,13.4z"/>
<path class="st0" d="M71.2,0.7C71.3,1,71.5,1,71.7,1.1c2.5,0.5,4.3,1.8,4.8,4.4c0.5,3.2-0.7,5.8-3.3,7.1c-1,0.5-0.9,0.9-0.5,1.7
	c1,1.9,1.8,3.9,2.8,5.8c0.6,1.2,0.2,1.4-0.9,1.3c-2-0.1-4.3,0.6-5.9-0.3s-1.6-3.5-2.3-5.3c-0.2-0.3-0.3-0.7-0.4-1.1S65.7,14,65.2,14
	s-0.5,0.5-0.6,0.9c-0.3,1.7-0.6,3.5-0.8,5.2c-0.1,1-0.5,1.4-1.6,1.3c-1.2-0.1-2.4-0.1-3.7,0c-1.2,0.1-1.5-0.4-1.3-1.5
	c1-5.3,1.9-10.5,2.8-15.8c0.2-1.1,0.3-2.3,0.5-3.4L71.2,0.7z M66.7,9.6c1.8,0,3.1-0.7,3.1-1.8c0-1.6-1.2-1.6-2.3-1.7
	c-2.2-0.1-1.3,1.7-1.7,2.7S66.2,9.6,66.7,9.6z"/>
<path class="st1" d="M70.9,21.8c-0.8,0-1.6-0.1-2.3-0.5c-1.1-0.6-1.4-2-1.8-3.4c-0.2-0.7-0.4-1.4-0.6-2c-0.2-0.3-0.3-0.7-0.4-1.1
	v-0.1c-0.1-0.4-0.2-0.6-0.5-0.5s-0.3,0.2-0.4,0.6v0.1c-0.3,1.7-0.6,3.5-0.8,5.2c-0.2,1.1-0.7,1.6-1.8,1.5c-1.2-0.1-2.4-0.1-3.6,0
	c-0.5,0.1-0.9,0-1.3-0.3c-0.3-0.4-0.3-0.9-0.2-1.4c1-5.3,1.9-10.5,2.8-15.8c0.1-0.8,0.3-1.6,0.3-2.3c0.1-0.4,0.1-0.7,0.2-1.1V0.5
	h10.9v0.1c0.1,0.1,0.2,0.2,0.4,0.2c2.9,0.6,4.5,2.1,4.9,4.5c0.6,3.2-0.7,6-3.4,7.3c-0.4,0.2-0.6,0.4-0.7,0.6s0,0.5,0.3,0.9
	c0.4,0.9,0.8,1.8,1.3,2.6c0.5,1.1,1,2.2,1.6,3.2c0.3,0.6,0.4,1,0.2,1.3s-0.7,0.3-1.3,0.3c-0.7,0-1.3,0-2,0.1
	C72,21.8,71.4,21.8,70.9,21.8z M65.3,13.9c0.5,0,0.7,0.4,0.8,0.8v0.1c0.1,0.4,0.3,0.7,0.4,1.1c0.3,0.6,0.5,1.3,0.6,2
	c0.3,1.4,0.7,2.7,1.6,3.2c1.2,0.5,2.5,0.6,3.7,0.3c0.7-0.1,1.3-0.1,2-0.1c0.4,0,0.9,0,1-0.2s0-0.5-0.2-0.9c-0.6-1.1-1.1-2.2-1.6-3.2
	c-0.4-0.8-0.8-1.7-1.3-2.6c-0.2-0.3-0.3-0.8-0.3-1.2c0.1-0.3,0.4-0.5,0.9-0.8c2.6-1.3,3.8-3.8,3.2-6.9c-0.4-2.3-1.9-3.7-4.6-4.3
	c-0.2,0-0.5-0.1-0.6-0.3H60.7l-0.1,0.9c-0.1,0.8-0.2,1.6-0.3,2.3c-0.9,5.3-1.8,10.5-2.8,15.8c-0.1,0.6-0.1,0.9,0.1,1.1
	s0.5,0.3,1,0.2c1.2-0.1,2.5-0.1,3.7,0c0.9,0.1,1.3-0.3,1.4-1.2c0.3-1.8,0.5-3.5,0.8-5.2v-0.1c0-0.3,0.1-0.8,0.7-0.9L65.3,13.9z
	 M66.9,9.9h-0.3c-0.3,0-0.7,0-0.9-0.3c-0.1-0.2-0.1-0.5,0-0.8c0.1-0.3,0.1-0.7,0.1-1c-0.1-0.5,0.1-1.1,0.4-1.5C66.5,6,67,5.9,67.5,6
	l0,0c1.1,0.1,2.5,0.1,2.5,1.9c0,0.4-0.2,0.9-0.5,1.2C68.7,9.6,67.8,9.9,66.9,9.9L66.9,9.9z M66.7,9.5c0.9,0.1,1.8-0.2,2.5-0.7
	c0.3-0.3,0.4-0.6,0.4-1c0-1.4-1-1.5-2.2-1.5l0,0c-0.4-0.1-0.8,0-1.1,0.3c-0.3,0.4-0.4,0.8-0.3,1.3c0,0.4,0,0.7-0.1,1.1
	c-0.1,0.2-0.1,0.4,0,0.5S66.4,9.5,66.7,9.5L66.7,9.5z"/>
<path class="st0" d="M54.5,0.7c-0.6,5-1.5,9.9-2.6,14.8c-0.9,3.4-3.3,5.4-6.7,6.1c-2.2,0.5-4.4,0.5-6.6-0.1c-4-1-6-3.8-5.3-7.8
	c0.7-4.4,1.5-8.7,2.3-13.1h6.7c0,0.4-0.1,0.8-0.1,1.2c-0.6,3.7-1.3,7.4-1.9,11.1c-0.3,1.8,0.4,2.8,1.7,3.1c1.8,0.3,3.3-0.3,3.6-2
	c1-4.4,1.8-8.8,2.4-13.3H54.5z"/>
<path class="st1" d="M42.1,22.2c-1.2,0-2.3-0.1-3.5-0.4c-4.1-1-6.1-3.9-5.4-8c0.5-3,1-6.1,1.6-9.1c0.2-1.3,0.5-2.7,0.7-4V0.6h7v0.2
	c0,0.1,0,0.2,0,0.4s-0.1,0.5-0.1,0.8c-0.2,1.1-0.4,2.3-0.6,3.4c-0.4,2.5-0.9,5.1-1.3,7.6c-0.3,1.7,0.3,2.7,1.6,2.9
	c1.8,0.3,3.1-0.4,3.4-1.9c1-4.4,1.8-8.8,2.4-13.3V0.6h7v0.2c-0.6,5-1.5,10-2.7,14.9c-0.8,3.3-3.1,5.4-6.8,6.3
	C44.2,22.1,43.1,22.2,42.1,22.2z M35.7,0.9c-0.2,1.3-0.4,2.5-0.7,3.8c-0.5,3-1.1,6.1-1.6,9.1c-0.7,4,1.2,6.7,5.2,7.7
	c2.1,0.5,4.4,0.5,6.5,0.1c3.6-0.8,5.8-2.8,6.6-6c1.1-4.8,2-9.7,2.6-14.6H48c-0.5,4.4-1.3,8.8-2.4,13.2c-0.4,1.7-1.8,2.5-3.8,2.1
	c-1.5-0.3-2.1-1.4-1.8-3.3c0.4-2.6,0.8-5.1,1.3-7.6c0.2-1.1,0.4-2.3,0.6-3.4c0-0.3,0.1-0.5,0.1-0.8V0.9L35.7,0.9z"/>
<path class="st0" d="M93.5,0.7c0.3,0.6,0.9,0.3,1.3,0.5C97.4,2,99,3.6,99.4,6.3c0.4,2.8-0.8,5.6-3.3,7.1c-2.1,1.1-4.5,1.6-6.9,1.3
	c-1.2-0.1-1.7,0.4-1.8,1.5c0,0.4-0.1,0.8-0.2,1.1c-0.3,1.3,0.1,3.4-1,3.8c-1.8,0.8-3.9,0.2-5.9,0.2c-0.6,0-0.5-0.4-0.4-0.8
	c1.2-6.6,2.4-13.3,3.6-19.9H93.5z M89.7,9.7c1.8,0,3.1-0.8,3-1.9c-0.1-1.4-1.1-1.6-2.2-1.7c-2.1-0.1-1.2,1.6-1.6,2.6
	C88.6,9.3,88.8,9.8,89.7,9.7L89.7,9.7z"/>
<path class="st1" d="M83.9,21.8c-0.6,0-1.2,0-1.8-0.1s-1.2-0.1-1.8-0.1l0,0c-0.2,0-0.4-0.1-0.5-0.2c-0.1-0.3-0.2-0.6-0.1-0.8
	l2.9-16.3l0.7-3.7h10.2v0.1C93.7,1,93.9,1,94.3,1c0.2,0,0.3,0,0.5,0.1c2.8,0.9,4.4,2.6,4.7,5.2c0.5,2.9-0.9,5.8-3.4,7.3
	c-2.1,1.1-4.6,1.6-7,1.3c-0.4-0.1-0.9,0-1.2,0.3c-0.3,0.3-0.4,0.7-0.4,1.1c0,0.3-0.1,0.6-0.1,0.8c0,0.1-0.1,0.2-0.1,0.3
	c-0.1,0.4-0.1,0.9-0.1,1.3c-0.1,1.1-0.1,2.2-1,2.6C85.5,21.6,84.7,21.8,83.9,21.8z M80.4,21.3c0.6,0,1.2,0,1.8,0.1
	c1.3,0.2,2.7,0.1,4-0.3c0.6-0.3,0.7-1.3,0.8-2.3c0-0.5,0.1-0.9,0.1-1.4c0-0.1,0.1-0.2,0.1-0.3c0.1-0.2,0.1-0.5,0.1-0.8
	c0-0.5,0.1-1,0.5-1.3c0.4-0.3,0.9-0.4,1.5-0.3c2.3,0.3,4.7-0.2,6.8-1.3c2.4-1.4,3.7-4.2,3.2-6.9c-0.3-2.5-1.8-4.1-4.5-4.9
	c-0.1,0-0.3,0-0.4,0c-0.4,0.1-0.8-0.1-1-0.4h-9.7L83,4.4l-2.9,16.3c0,0.2-0.1,0.4,0,0.6C80.1,21.3,80.2,21.3,80.4,21.3L80.4,21.3z
	 M89.4,9.9c-0.3,0-0.5-0.1-0.7-0.3c-0.2-0.3-0.2-0.7-0.1-1c0.1-0.3,0.1-0.6,0.1-0.9c-0.1-0.5,0.1-1,0.4-1.4C89.5,6,90,5.9,90.4,5.9
	c1.1,0.1,2.3,0.3,2.4,1.8c0,0.5-0.2,0.9-0.5,1.2c-0.7,0.6-1.7,1-2.7,0.9L89.4,9.9z M90.2,6.3c-0.3,0-0.6,0.1-0.8,0.2
	c-0.3,0.3-0.4,0.8-0.3,1.2c0,0.3,0,0.7-0.1,1c-0.1,0.2-0.1,0.5,0,0.7c0.2,0.2,0.4,0.2,0.6,0.1l0,0c0.9,0.1,1.8-0.2,2.4-0.8
	c0.3-0.3,0.4-0.6,0.4-1c-0.1-1.3-1-1.4-2.1-1.5L90.2,6.3z"/>
<path class="st0" d="M150.3,1.1c-1.3,0.8-2.1,2.2-3.1,3.4c-2,2.3-3.9,4.7-5.9,7c-1,1.1-1.5,2.4-1.7,3.8c-0.2,1.8-0.7,3.5-0.9,5.2
	c-0.1,0.8-0.4,1-1.2,1c-1.5,0-3-0.1-4.5,0c-1,0-1.3-0.3-1.1-1.3c0.3-1.6,0.5-3.3,0.9-4.9c0.4-1.4,0.2-3-0.5-4.3
	c-1.4-2.9-2.7-5.8-4-8.8c-0.2-0.5-0.6-1-0.5-1.6h7.3l2.3,6.4l4.4-6.4c2.6,0,5.1,0,7.6,0C149.9,0.8,150.4,0.4,150.3,1.1z"/>
<path class="st1" d="M133,21.6c-0.3,0-0.7-0.1-0.9-0.3c-0.2-0.3-0.3-0.8-0.1-1.2c0.1-0.7,0.3-1.4,0.4-2.1c0.1-0.9,0.3-1.8,0.5-2.8
	c0.4-1.4,0.2-2.9-0.4-4.2c-1.1-2.2-2.1-4.4-3-6.7l-0.9-2.1c0-0.1-0.1-0.2-0.2-0.3c-0.3-0.4-0.4-0.9-0.3-1.3V0.6h7.6l2.2,6.2l4.2-6.2
	h1.7c2,0,4,0,6.1,0c0,0,0.1,0,0.1,0c0.2-0.1,0.4-0.1,0.5,0c0.1,0.1,0.2,0.3,0.1,0.5v0.1h-0.1c-0.9,0.6-1.6,1.4-2.2,2.3
	c-0.3,0.4-0.6,0.8-0.9,1.1c-0.9,1-1.8,2.1-2.6,3.1c-1.1,1.3-2.1,2.6-3.3,3.9c-0.9,1-1.5,2.4-1.6,3.7c-0.1,0.9-0.3,1.8-0.4,2.6
	s-0.3,1.7-0.5,2.6c0,0.6-0.5,1.1-1.1,1.1c-0.1,0-0.2,0-0.2,0c-1.7,0-3.1-0.1-4.5,0L133,21.6z M128.2,0.9c0,0.4,0.1,0.7,0.3,1
	c0.1,0.1,0.1,0.2,0.2,0.3l0.9,2.1c1,2.2,1.9,4.5,3,6.6c0.7,1.4,0.8,2.9,0.5,4.4c-0.2,0.9-0.4,1.8-0.5,2.7c-0.1,0.7-0.2,1.4-0.4,2.2
	c-0.1,0.4-0.1,0.7,0.1,0.9s0.4,0.2,0.8,0.2c1.4-0.1,2.8,0,4.5,0c0.7,0,0.9-0.2,1-0.8c0.1-0.9,0.3-1.8,0.5-2.6s0.3-1.7,0.4-2.6
	c0.1-1.5,0.8-2.8,1.7-3.9c1.1-1.3,2.2-2.6,3.3-3.8c0.9-1,1.7-2.1,2.6-3.1c0.3-0.3,0.6-0.7,0.9-1.1c0.6-0.9,1.3-1.7,2.2-2.3
	c0-0.1,0-0.1,0-0.1s-0.2,0-0.2,0c-0.1,0-0.2,0-0.2,0c-2,0-4.1,0-6.1,0h-1.5l-4.5,6.6l-2.4-6.6L128.2,0.9z"/>
<path class="st0" d="M111.1,56.6c-0.3-0.8-1.1-1.3-1.6-1.9c-1.2-1.3-2.4-2.5-3.6-3.8c-0.5-0.6-0.9-0.7-1.5-0.1L97,54.7l-0.2-0.2
	l4.8-6.7c0.9-0.6,0.4-1.1-0.1-1.6c-1.2-1.3-2.5-2.6-4-4.1c2.8,0,5.1,0,7.3,0c0.7,0.1,1.3-0.2,1.7-0.7c1.2-1.8,2.6-3.6,3.9-5.4
	c0.3-0.2,0.4-0.8,1-0.7c0.1,0,0.1,0.4,0.1,0.6c0,1.8,0,3.6,0,5.4c-0.1,1,0.6,0.7,1.1,0.7c2.4,0,4.7,0.1,7.1,0.3
	c-2.3,1.3-4.5,2.6-6.9,3.7c-0.9,0.3-1.5,1.3-1.4,2.3c0.1,2.8,0.1,5.5,0.1,8.3L111.1,56.6z"/>
<path class="st1" d="M111.6,56.8H111v-0.1c-0.2-0.5-0.6-0.9-1-1.3c-0.2-0.2-0.4-0.4-0.6-0.6l-1.1-1.1c-0.8-0.9-1.7-1.8-2.5-2.7
	c-0.3-0.3-0.5-0.4-0.7-0.4c-0.2,0-0.4,0.1-0.6,0.3l0,0l-7.5,4l-0.4-0.4l4.9-6.9c0.3-0.2,0.4-0.3,0.4-0.5s-0.3-0.5-0.5-0.8
	c-0.9-0.9-1.7-1.8-2.7-2.8l-1.3-1.3l-0.3-0.3h7.7c0.6,0.1,1.2-0.1,1.6-0.6c0.9-1.3,1.8-2.6,2.8-3.9l1.1-1.5l0,0
	c0.1-0.1,0.2-0.2,0.3-0.3c0.2-0.3,0.5-0.5,0.8-0.4c0.2,0,0.2,0.3,0.2,0.5c0,0.1,0,0.2,0,0.2v5.4c0,0.3,0,0.4,0.1,0.5
	s0.4,0.1,0.6,0.1h0.3h0.7c2.1,0,4.2,0.1,6.4,0.3l0.5,0.1l-0.4,0.3l-2,1.1c-1.6,0.9-3.2,1.8-4.9,2.6c-0.9,0.3-1.4,1.2-1.3,2.1
	c0.1,2,0.1,4,0.1,5.9c0,0.8,0,1.6,0,2.4L111.6,56.8z M111.2,56.5L111.2,56.5c0.1-0.7,0.1-1.5,0.1-2.2c0-1.9,0-3.9-0.1-5.9
	c-0.1-1.1,0.5-2.1,1.5-2.4c1.6-0.8,3.3-1.8,4.9-2.6l1.5-0.8c-1.9-0.2-3.9-0.3-5.8-0.3h-1c-0.3,0.1-0.6,0-0.9-0.2
	c-0.2-0.2-0.2-0.5-0.1-0.8v-5.4c0-0.1,0-0.1,0-0.2s0-0.2,0-0.2c-0.2,0-0.3,0.1-0.4,0.3c-0.1,0.1-0.2,0.2-0.3,0.3l-1.1,1.5
	c-0.9,1.3-1.9,2.6-2.8,3.9c-0.4,0.6-1.1,0.9-1.8,0.8h-6.9l1,1.1c1,1,1.8,1.9,2.7,2.8c0.4,0.4,0.7,0.7,0.6,1.1
	c-0.1,0.3-0.2,0.6-0.5,0.7L97,54.4l0,0l7.3-3.8c0.2-0.2,0.5-0.4,0.8-0.4c0.4,0,0.7,0.2,0.9,0.6c0.8,0.9,1.7,1.8,2.5,2.7l1.1,1.1
	c0.2,0.2,0.4,0.4,0.6,0.6C110.6,55.5,110.9,56,111.2,56.5L111.2,56.5z"/>
<path class="st0" d="M26.2,38.3c0.6-3.7,1.3-8.1,2.1-12.6c0.1-0.6,0.4-0.7,0.9-0.7c1.7,0,3.4,0,5.2,0c1,0,0.7,0.5,0.6,1.1
	c-0.6,3.5-1.2,7.1-1.9,10.6c-0.3,2,0.2,3.2,1.7,3.6c1.6,0.4,3.2-0.5,3.7-2.1c0-0.1,0-0.2,0.1-0.3c0.8-3.6,1.4-7.3,2-10.9
	c0.2-1.5,0.7-2.2,2.4-2c1.2,0.1,2.3,0.1,3.5,0c0.8,0,1.2,0.1,1,1.1c-0.8,4-1.5,7.9-2.1,11.9c-1,6.3-5.8,8.5-11.3,8.2
	c-1.6,0-3.2-0.5-4.6-1.2C27.1,43.7,26,41.9,26.2,38.3z"/>
<path class="st1" d="M35,46.4c-0.3,0-0.7,0-1,0c-1.6,0-3.2-0.5-4.7-1.2c-2.5-1.4-3.4-3.3-3.3-6.8l0,0l0.4-2.5
	c0.5-3.1,1.1-6.6,1.7-10.1c0.1-0.5,0.6-0.9,1.1-0.9H30c1.5,0,3,0,4.4,0c0.3,0,0.6,0,0.8,0.2c0.1,0.3,0.1,0.6,0,0.8
	c0,0.1,0,0.2,0,0.2c-0.3,1.6-0.6,3.3-0.9,4.9c-0.3,1.9-0.7,3.8-1,5.7c-0.2,1.3-0.2,3,1.6,3.4c0.8,0.2,1.6,0.1,2.3-0.3
	c0.7-0.5,1.1-1.2,1.3-2c0.8-3.8,1.5-7.4,2-10.9c0.2-1.5,0.8-2.4,2.6-2.1c0.9,0.1,1.8,0.1,2.7,0.1h0.8c0.4,0,0.8,0,1,0.3
	c0.2,0.3,0.2,0.7,0.1,1C46.8,30,46.1,34,45.5,38C44.6,43.4,40.8,46.4,35,46.4z M26.4,38.3c-0.2,3.4,0.7,5.2,3.1,6.5
	c1.4,0.7,3,1.1,4.6,1.2c6.2,0.4,10.3-2.6,11.1-8.1c0.6-4,1.3-8,2.1-11.9c0.1-0.4,0.1-0.6,0-0.8s-0.4-0.2-0.8-0.1h-0.8
	c-0.9,0.1-1.9,0-2.8-0.1c-1.6-0.2-2,0.4-2.2,1.8c-0.6,3.5-1.2,7.2-2,10.9c-0.2,0.9-0.7,1.7-1.4,2.2c-0.7,0.5-1.7,0.6-2.5,0.4
	c-1.6-0.4-2.2-1.7-1.8-3.8c0.3-1.9,0.7-3.8,1-5.7c0.3-1.6,0.6-3.3,0.9-4.9c0-0.1,0-0.2,0.1-0.3s0.1-0.4,0-0.5s-0.2-0.1-0.5-0.1
	c-1.5,0-3,0-4.4,0h-0.7c-0.5,0-0.7,0.2-0.8,0.6c-0.6,3.5-1.2,7-1.7,10.1L26.4,38.3z"/>
<path class="st0" d="M67.3,45.6c0.1-0.6,0.4-1.2,0.8-1.7c3.6-5.8,7.2-11.7,10.7-17.5c0.5-1,1.5-1.6,2.6-1.4c1.5,0.1,3,0.1,4.5,0
	c0.8,0,1.1,0.3,1.2,1c1.1,6.2,2.1,12.4,3.3,18.6c0.1,0.8,0,1.1-0.9,1.1c-1-0.1-2.1-0.1-3.1,0c-1.8,0.1-3.5,0.2-3.2-2.4
	c0.1-0.6-0.4-0.7-0.9-0.7c-1.7,0-3.4,0-5.2,0c-1.1,0-1.3,0.8-1.5,1.5c-0.3,1.2-1.6,1.9-2.8,1.7C71,45.5,69.1,45.6,67.3,45.6z
	 M79,37.3h2.7c0.5,0,1-0.1,0.8-0.7c-0.3-1.3-0.1-2.8-0.7-4.3L79,37.3z"/>
<path class="st1" d="M85.4,45.9c-1.1,0.2-2.2-0.5-2.5-1.6c-0.1-0.3-0.1-0.7,0-1c0-0.1,0-0.2-0.1-0.3c-0.1-0.1-0.5-0.1-0.8-0.1h-1.5
	c-1.2,0-2.4,0-3.6,0c-0.8,0-1.1,0.6-1.3,1.2l-0.1,0.2c-0.4,1.3-1.7,2.1-3,1.8c-1.2-0.1-2.5-0.1-3.8-0.1h-1.7h-0.2v-0.2
	c0.1-0.5,0.3-1.1,0.6-1.5l0.2-0.3l3.4-5.5c2.4-3.9,4.9-8,7.3-12c0.5-1.1,1.6-1.7,2.8-1.5c1.4,0.1,2.8,0.1,4.1,0h0.3
	c0.8,0,1.2,0.3,1.4,1.2c1.1,6.4,2.3,13,3.3,18.6c0.1,0.3,0.1,0.7-0.1,1c-0.2,0.2-0.6,0.3-0.9,0.3c-1-0.1-2.1-0.1-3.1,0
	C86,45.9,85.7,45.9,85.4,45.9z M82.1,42.4c0.4-0.1,0.7,0,1,0.3c0.1,0.2,0.2,0.4,0.2,0.6c-0.1,0.6,0,1.3,0.4,1.8
	c0.5,0.5,1.5,0.5,2.7,0.4c1.1-0.1,2.1-0.1,3.2,0c0.3,0,0.5,0,0.6-0.1s0.1-0.4,0.1-0.8C89.2,39,88,32.5,86.9,26
	c-0.1-0.7-0.4-0.9-1-0.9h-0.3c-1.4,0-2.8,0.1-4.2,0c-1-0.2-2,0.4-2.5,1.3c-2.4,4-4.9,8.1-7.3,12L68.3,44L68,44.3
	c-0.3,0.3-0.5,0.7-0.6,1.1H69c1.3,0,2.5,0,3.8,0.1c1.1,0.3,2.3-0.4,2.6-1.6l0.1-0.2c0.2-0.6,0.5-1.4,1.6-1.4s2.4,0,3.6,0L82.1,42.4z
	 M81.7,37.5h-3l3.1-5.5l0.1,0.3c0.3,0.8,0.5,1.7,0.5,2.6c0,0.6,0.1,1.1,0.2,1.7c0.1,0.2,0.1,0.5-0.1,0.7
	C82.3,37.4,82,37.5,81.7,37.5L81.7,37.5z M80.7,37.2h1c0.2,0,0.5,0,0.6-0.1c0.1-0.1,0.1-0.3,0-0.4c-0.1-0.6-0.2-1.1-0.2-1.7
	c0-0.7-0.1-1.5-0.3-2.2l-2.4,4.4L80.7,37.2L80.7,37.2z"/>
<path class="st0" d="M60.4,24.3c2.3,0,4.5,0.6,6.5,1.8c0.8,0.5,0.9,1,0.1,1.6c-0.5,0.5-1.1,1-1.6,1.5c-1,1.1-1.9,2.4-3.6,0.8
	c-0.3-0.2-0.7-0.2-1-0.2c-1.1-0.1-2.3-0.2-2.6,1.1s1,1.3,1.8,1.7s1.4,0.5,2.1,0.9c4.7,2.2,5.2,7.6,1.1,10.7C59.7,47,52.5,46.9,49,44
	c-0.6-0.5-0.8-0.9-0.1-1.4c0.5-0.4,1-0.8,1.5-1.3c1.3-1.5,2.6-2.6,4.6-0.9c0.8,0.5,1.8,0.6,2.7,0.3c0.6,0,1.2-0.5,1.3-1.1
	c0-0.6-0.3-1.1-0.9-1.3c-1-0.4-2-0.8-2.9-1.2c-4.3-1.8-5.3-6.5-2.1-9.9C55,25.3,57.7,24.2,60.4,24.3z"/>
<path class="st1" d="M56.5,46.4c-2.7,0.1-5.4-0.7-7.6-2.3c-0.3-0.2-0.5-0.5-0.6-0.9c0-0.3,0.2-0.6,0.5-0.8c0.5-0.4,1-0.8,1.4-1.3
	c1.2-1.4,2.6-2.8,4.8-1c0.8,0.4,1.7,0.5,2.6,0.3c0.7-0.1,1.1-0.4,1.1-0.9c0-0.5-0.3-1-0.8-1.1l-1.4-0.5c-0.5-0.2-1-0.4-1.6-0.6
	c-3.2-1.1-4.8-4.6-3.7-7.7c0.3-0.9,0.9-1.8,1.6-2.4c1.8-1.9,4.1-2.8,7.4-3l0,0c2.3,0,4.6,0.7,6.6,1.8c0.5,0.3,0.7,0.6,0.8,0.9
	s-0.2,0.6-0.6,1c-0.5,0.5-1.1,1-1.5,1.5l-0.2,0.3c-0.4,0.5-0.9,0.9-1.5,1.2c-0.8,0.2-1.6,0-2.1-0.6C61.6,30,61.3,30,61.1,30h-0.2
	c-1.3-0.1-2.2-0.1-2.4,1c-0.2,0.8,0.3,1,1.2,1.3c0.2,0.1,0.4,0.1,0.6,0.2l0.9,0.4c0.4,0.2,0.8,0.3,1.3,0.5c3.2,1.2,4.8,4.8,3.5,8
	c-0.5,1.2-1.3,2.3-2.4,3C61.4,45.8,59,46.5,56.5,46.4z M53.1,39.6c-0.9,0-1.7,0.7-2.6,1.7c-0.5,0.5-1,1-1.5,1.4
	c-0.3,0.2-0.4,0.4-0.4,0.5s0.1,0.4,0.5,0.6c3.5,2.9,10.6,3,14.2,0.3c2.7-1.7,3.6-5.4,1.8-8.1c-0.7-1.1-1.7-1.9-2.8-2.3
	c-0.4-0.2-0.8-0.4-1.2-0.5l-0.9-0.4c-0.2-0.1-0.3-0.1-0.5-0.2c-0.8-0.3-1.7-0.6-1.4-1.7c0.3-1.4,1.8-1.3,2.8-1.3h0.2
	c0.3,0,0.6,0.1,0.9,0.2c0.6,0.6,1.2,0.8,1.7,0.6c0.5-0.3,1-0.7,1.4-1.2l0.2-0.3c0.5-0.5,1-1,1.6-1.5c0.3-0.3,0.5-0.5,0.5-0.7
	s-0.2-0.4-0.6-0.6c-1.9-1.1-4.2-1.8-6.4-1.8c-3.2,0.1-5.5,1-7.2,2.8c-1.4,1.4-2.1,3.4-1.7,5.4c0.5,1.9,1.9,3.5,3.7,4.2
	c0.5,0.2,1,0.4,1.5,0.6l1.4,0.5c0.6,0.2,1.1,0.8,1,1.4c-0.1,0.7-0.7,1.2-1.4,1.2c-1,0.3-2,0.1-2.9-0.4C54.4,40,53.8,39.7,53.1,39.6z
	"/>
<path class="st2" d="M110.3,35.9c-1.3,1.8-2.6,3.6-3.9,5.4c-0.4,0.5-1,0.8-1.7,0.7c-2.3,0-4.5,0-7.3,0c1.5,1.6,2.8,2.9,4,4.1
	c0.5,0.5,1,1,0.1,1.6c-0.6-0.8-1.3-0.3-1.9,0l-10.3,5.6c-0.4-0.6,0.1-0.8,0.2-1c2-2.7,4-5.5,6.1-8.1c0.9-1.1,1-1.8-0.1-2.9
	c-1.8-1.6-3.3-3.5-5.3-5.5c3.6,0,6.7-0.1,9.9,0c1,0.1,2.1-0.4,2.6-1.3c2-2.9,4.2-5.7,6.6-8.3c0,2.7,0,5.4,0,8.2
	C109.3,35.2,109.2,35.9,110.3,35.9z"/>
<path class="st1" d="M89.3,53.6l-0.1-0.1c-0.3-0.3-0.3-0.8,0-1c0,0,0.1,0,0.1-0.1l0.1-0.1l1.2-1.7c1.6-2.1,3.2-4.3,4.8-6.4
	c0.9-1.1,0.9-1.7-0.1-2.6c-1.2-1.1-2.4-2.4-3.6-3.7c-0.5-0.6-1.1-1.2-1.7-1.8l-0.3-0.3h3.4c2.4,0,4.7,0,6.9,0c1,0.1,1.9-0.4,2.5-1.3
	c2-2.9,4.2-5.7,6.6-8.3l0.3-0.3v2.7c0,2,0,4,0,5.9v0.2c-0.1,0.3,0,0.7,0.2,1c0.2,0.1,0.4,0.2,0.6,0.2h0.3l-0.2,0.3l-1.1,1.5
	c-0.9,1.3-1.9,2.6-2.8,3.9c-0.4,0.6-1.1,0.9-1.8,0.8h-6.9l1,1.1c1,1,1.8,1.9,2.7,2.8c0.4,0.4,0.7,0.7,0.6,1.1
	c-0.1,0.3-0.3,0.6-0.6,0.7l-0.1,0.1l-0.1-0.1c-0.4-0.6-0.9-0.4-1.5-0.1l-0.2,0.1l-7.6,4.1L89.3,53.6z M90.6,36.1l1.4,1.5
	c1.2,1.3,2.4,2.6,3.6,3.7s1,2,0.1,3.1c-1.7,2.1-3.3,4.3-4.8,6.4l-1.2,1.7c0,0.1-0.1,0.1-0.1,0.2c-0.2,0.2-0.3,0.3-0.2,0.6l2.6-1.4
	l7.6-4.1l0.2-0.1c0.5-0.3,1.2-0.7,1.8,0c0.1-0.1,0.3-0.2,0.3-0.4c0-0.3-0.3-0.5-0.5-0.8c-0.9-0.9-1.7-1.8-2.7-2.8l-1.3-1.3l-0.3-0.3
	h7.7c0.6,0.1,1.2-0.1,1.6-0.6c0.9-1.3,1.8-2.6,2.8-3.9l0.9-1.3c-0.2,0-0.4-0.1-0.6-0.3c-0.3-0.4-0.4-0.8-0.3-1.2v-0.2c0-2,0-4,0-5.9
	v-1.9c-2.2,2.6-4.3,5.2-6.3,8c-0.6,0.9-1.6,1.5-2.7,1.4c-2.3-0.1-4.5,0-6.9,0L90.6,36.1z"/>
<path class="st2" d="M111.4,41.3c0-1.8,0-3.6,0-5.4h9.3l0.1,0.3L111.4,41.3z"/>
<path class="st1" d="M111.3,41.6v-5.9h9.5l0.3,0.5L111.3,41.6z M111.6,36v5l9-4.9v-0.1L111.6,36z"/>
<path class="st2" d="M104.4,50.7c0.6-0.6,1-0.4,1.5,0.1c1.2,1.3,2.4,2.6,3.6,3.8c-0.1,0.8-0.3,1.2-1,0.4
	C107.1,53.6,105.7,52.2,104.4,50.7z"/>
<path class="st1" d="M109.1,55.6c-0.2,0-0.4-0.2-0.8-0.5c-0.9-1-1.9-2.1-2.9-3.1l-1.2-1.3l-0.1-0.1l0.1-0.1c0.2-0.2,0.5-0.4,0.8-0.4
	c0.4,0,0.7,0.2,0.9,0.6c0.8,0.9,1.7,1.8,2.5,2.7l1.1,1.1l0.1,0.1v0.1c0,0.4-0.1,0.9-0.4,0.9L109.1,55.6z M104.6,50.7l1.1,1.1
	c0.9,1,1.9,2,2.9,3.1c0.4,0.4,0.5,0.4,0.5,0.4s0.1-0.1,0.2-0.6l-1-1.1c-0.8-0.9-1.7-1.8-2.5-2.7c-0.3-0.3-0.5-0.4-0.7-0.4
	C104.9,50.5,104.7,50.6,104.6,50.7L104.6,50.7z"/>
</svg>
