<?xml version="1.0" encoding="utf-8"?>
<!-- Generator: Adobe Illustrator 21.1.0, SVG Export Plug-In . SVG Version: 6.00 Build 0)  -->
<svg version="1.1" id="Layer_1" xmlns="http://www.w3.org/2000/svg" xmlns:xlink="http://www.w3.org/1999/xlink" x="0px" y="0px"
	 viewBox="0 0 206.2 125.9" style="enable-background:new 0 0 206.2 125.9;" xml:space="preserve">
<style type="text/css">
	.st0{fill:#ED1B24;}
	.st1{fill:#202020;}
	.st2{fill:#828282;}
	.st3{fill:#838383;}
	.st4{fill:#222222;}
	.st5{fill:#FEFEFE;}
	.st6{fill:#FBFBFB;}
	.st7{fill:#242424;}
	.st8{fill:#E7E7E7;}
</style>
<title>Fast Casual</title>
<path class="st0" d="M120.8,125.4c-11.4-0.1-22.7-0.7-34-2c-5.5-0.6-11.1-1.3-16.6-2.2c-0.3-0.1-0.8,0.1-0.9-0.4s-0.3-1.2,0.3-1.8
	c2.1-1.7,3.4-4.2,3.8-6.9c0.5-4.1-0.5-7.6-3.7-10.3c-0.5-0.4-0.4-0.9-0.3-1.4s0.5-0.4,0.8-0.4c7.8-1.3,15.8-2.4,23.7-3.2
	c9.2-1,18.5-1.5,27.8-1.5c10.9,0.1,21.8,0.8,32.6,2.2c5.7,0.7,11.5,1.5,17.2,2.4c0.3,0.1,0.8-0.1,0.9,0.4c0.1,0.5,0,1-0.4,1.3
	c-4.3,3.6-5.4,9.7-2.7,14.6c0.7,1.2,1.6,2.3,2.7,3.1c0.6,0.4,0.4,0.9,0.4,1.4s-0.5,0.4-0.8,0.4c-10.4,1.6-20.8,2.8-31.3,3.5
	C133.8,125.1,127.3,125.3,120.8,125.4z"/>
<path class="st1" d="M42.2,87.9c0.1-0.3,0.1-0.6,0.1-0.9c-0.3-15-0.6-30-0.7-45.1c0-3.4,0.3-6.8,0.5-10.3c0.3-5.4,0.6-10.7,1-16.1
	c0.1-2.8,0.5-5.6,1.4-8.3c0.3-0.8,0.6-1.5,1.1-2.1c0.7-1.1,2-1.6,3.3-1.5c0.9,0,1.7,0.6,2,1.5c0.3,0.8,0.4,1.7,0.4,2.6
	c-0.1,2.5-0.4,5.1-0.8,7.6c-0.9,6.2-1.6,12.4-2.1,18.6c-0.7,7.7-1,15.4-1,23.1c0,9.3,0.5,18.7,1.5,27.9c0.4,3.9,1.2,7.7,1.1,11.6
	c0,1.4-0.2,2.8-0.7,4.2c-1.2,3.1-4.4,3.9-6.9,1.8c-1.1-1-2.1-2.2-2.8-3.5c-2.6-4.9-4.8-9.9-6.8-15.1c-6.7-17.5-12-35.5-15.9-53.8
	c-0.1-0.4,0-1-0.4-1s-0.4,0.6-0.5,1c-1.7,6.1-2.9,12.2-3.5,18.5c-1.2,9.9-1.7,19.8-1.5,29.7c0,5.9,0.4,11.8,1.2,17.7
	c0.4,2.2,0.7,4.4,0.9,6.6c0,1-0.1,1.9-0.3,2.9c-0.3,1.6-2,2.7-3.6,2.4c-0.6-0.1-1.1-0.4-1.6-0.9c-0.8-0.7-1.4-1.6-1.7-2.7
	c-0.6-2.5-1-5.1-1.1-7.7c-0.5-8.5-0.5-17.1,0.1-25.6c0.5-8.6,1.5-17.2,2.7-25.8C8.2,39.2,8.8,33,9.8,26.9c0.5-3.7,1.4-7.4,2.6-11
	c0.4-1.1,0.9-2.1,1.5-3c1.3-1.8,2.7-2.5,4.3-2.1c1.8,0.5,3.1,2.1,3.1,4c0.3,4.1,0.9,8.2,1.6,12.2c3.1,17.3,7.9,34.2,14.4,50.6
	c1.4,3.4,3,6.7,4.6,10C41.9,87.7,41.9,87.9,42.2,87.9z"/>
<path class="st1" d="M85.2,80.7c-0.4,0.7-0.8,1.4-1.2,2c-1.7,2.8-3.9,5.2-6.4,7.2c-5.6,4.4-11.8,3.3-16.2,0.2
	c-3.1-2.2-5.3-5.4-6.4-9c-3.2-9.6-1.9-18.6,4.2-26.8c1-1.4,2.2-2.5,3.7-3.4c3.2-2.2,7.5-1.5,9.8,1.7c0.3,0.4,0.6,0.9,0.8,1.4
	c1.4,3.3,1.7,7,0.7,10.5c-1.7,6.9-5.6,12.1-12.2,15c-0.5,0.2-0.5,0.5-0.3,0.9c1.4,3.5,4.9,5.6,8.6,5.3c3-0.2,5.7-1.7,7.6-3.9
	c1.7-2,3-4.2,4-6.6c0.5-1.2,1-2.4,1.6-3.6c0.3-1,0.9-1.9,1.5-2.6c0.2-0.2,0.2-0.5,0.2-0.8c0.4-3.8,1.2-7.6,2.3-11.3
	c0.4-1.5,1-2.9,1.8-4.2c1.5-2.3,3.5-2.6,5.5-0.6c1.3,1.2,1.7,3.1,0.8,4.7c-1.8,3.8-3.1,7.7-3.9,11.9c-0.6,3-0.8,6.1-0.5,9.1
	c0.1,1.2,0.4,2.3,1.7,2.7s2.1-0.5,2.7-1.4c1.5-2.2,2.7-4.7,3.5-7.2c1.7-4.5,2.8-9.2,4-13.9c0.3-1.2,0.7-2.4,1.4-3.5
	c0.8-1.7,2.9-2.4,4.5-1.5c0.2,0.1,0.4,0.2,0.6,0.4c1,0.6,1.6,1.7,1.6,2.9c0,2.2-0.4,4.4-0.5,6.6c-0.4,4.5-0.4,9.1,0.1,13.6
	c0.1,1.1,0.4,2.3,0.8,3.3c0.2,0.5,0.5,0.9,0.8,1.3c0.8,0.8,2,0.8,2.8,0.1c0,0,0,0,0.1-0.1c0.7-0.7,1.2-1.5,1.5-2.4
	c1.1-3.1,1.8-6.2,2-9.5c0.6-5.7,0.1-11.4-1.5-16.9c-0.4-1.3-0.6-2.7-0.5-4.1c0.1-1.7,0.7-2.7,1.9-3c1.5-0.5,3.1,0.2,3.8,1.6
	c1.1,2,1.8,4.2,2.1,6.5c0.9,6.3,0.9,12.7-0.1,19c-0.4,3.8-1.3,7.6-2.7,11.3c-0.5,1.5-1.3,2.9-2.2,4.1c-1.8,2.8-5.6,3.6-8.4,1.7
	c-0.3-0.2-0.6-0.4-0.8-0.6c-1.4-1.2-2.5-2.8-3.3-4.5c-1.8-3.9-2.6-8.1-2.3-12.4c0-0.3,0.2-0.8-0.2-0.8c-0.3,0-0.2,0.5-0.3,0.8
	c-0.7,4.9-2.2,9.6-4.5,14c-0.6,1.2-1.3,2.3-2.2,3.3c-2.1,2.3-4.6,2.5-7.1,0.7c-2.4-1.9-4.1-4.5-4.8-7.5L85.2,80.7z"/>
<path class="st1" d="M144.4,67c-0.6,0.9-1,1.9-1.4,2.9c-1.2,3.4-2,6.9-2.4,10.4c-0.4,2.3-0.5,4.5-1,6.8c-0.1,0.8-0.4,1.6-0.9,2.3
	c-0.5,0.9-1.6,1.2-2.5,0.7c-1.5-0.6-2.6-1.8-3-3.3c-0.5-2.2-0.8-4.4-0.8-6.6c-0.4-9.2-0.1-18.4,0.3-27.6c0.4-8.6,1.2-17.1,2-25.6
	c0.5-6.6,1.6-13.1,3.3-19.4c0.5-1.9,1.3-3.7,2.5-5.3c0.9-1.3,2.6-2,4.1-1.5c1.3,0.3,2.2,1.4,2.2,2.7c0,0.9-0.1,1.7-0.4,2.6
	c-2.1,7.3-3.4,14.8-4.8,22.2c-1,5.7-2,11.3-2.7,17.1c-0.4,3.8-0.6,7.7-0.8,11.5c-0.1,3.6-0.2,7.2-0.3,10.8c0,0.3-0.1,0.7,0.1,1
	c0.3-0.2,0.3-0.6,0.4-0.8c1.2-4,3-7.8,5.3-11.3c2.6-3.6,6.1-6.5,10.2-8.4c2.7-1.3,4.3,0,5.2,1.7c0.6,0.9,0.3,2.2-0.6,2.8
	c-0.2,0.1-0.3,0.2-0.5,0.2c-3.7,1.7-6.5,4.5-9.1,7.6c-0.2,0.3-0.3,0.6-0.3,1c0.3,3.5,1.2,7,2.5,10.3c0.4,1,0.9,2.1,1.3,3.1
	c1.7,4,4.7,7.4,8.5,9.6c1,0.6,1.5,1.8,1.1,2.9c-0.1,1.1-1,2-2.1,2.2c-0.8,0.1-1.6,0-2.4-0.3c-2.2-1.1-4.2-2.6-5.7-4.6
	c-3.3-4.1-5.6-8.9-6.7-14.1L144.4,67z"/>
<path class="st1" d="M187,96c-4.1-0.1-8.1-1.6-11.2-4.4c-4.5-3.8-7.1-9.4-7.2-15.3c0-0.9,0.1-1.7,0.5-2.5c0.6-1.3,2.2-1.8,3.4-1.1
	c0.2,0.1,0.3,0.2,0.4,0.3c0.5,0.4,0.7,1,0.7,1.7c0.1,1.7,0.3,3.4,0.8,5.1c1,4.2,4,7.6,8,9.2c1.3,0.6,2.8,0.7,4.2,0.4
	c1.4-0.3,2.4-1.5,2.4-2.9c0-1.4-0.5-2.8-1.3-4c-1-1.5-2.1-2.8-3.5-4c-2.1-1.8-4.2-3.6-6.2-5.5c-2.5-2.2-4.5-5-5.8-8.1
	c-2-5.2-0.9-10.2,3.4-13.8c4-3.6,9.4-5.2,14.7-4.2c4.2,0.7,6.5,3.4,7.6,7.3c1.2,4-0.2,8.3-3.5,10.7c-1.8,1.5-4,2.5-6.3,3
	c-2,0.4-4-0.9-4.3-2.9c0,0,0-0.1,0-0.1c-0.2-0.8,0.2-1.6,0.9-1.9c0.6-0.3,1.2-0.6,1.9-0.8c1.2-0.4,2.4-0.9,3.5-1.6
	c2-1.3,2.7-2.9,2-4.7c-0.7-2-2.7-3.3-4.8-3.1c-4.2,0.5-7.7,3.6-8.8,7.7c-0.3,1.8-0.1,3.6,0.7,5.2c1.1,2.2,2.6,4.2,4.5,5.9
	c1.8,1.7,3.7,3.3,5.6,5c2.5,2.1,4.5,4.8,5.8,7.8c0.8,1.8,1,3.8,0.7,5.7c-0.6,3.2-3.3,5.5-6.9,6C188.1,95.9,187.4,95.9,187,96z"/>
<path class="st2" d="M16.4,31.1c0.3,1.5,0.7,2.9,1,4.4c4,17.6,9.3,34.9,16,51.7c1.6,4.2,3.5,8.4,5.6,12.3c0.7,1.2,1.6,2.3,2.6,3.3
	c0.8,0.8,1.8,1.3,2.9,1.5c0.6,0.1,0.4,0.3,0.2,0.6c-1.2,1.8-3.6,2.3-5.5,1.2c-1.5-1-2.7-2.3-3.5-3.9c-2.2-4.2-4.2-8.5-5.9-12.9
	c-6.2-15.8-11.3-32-15.1-48.5c-0.3-1.1-0.3-2.3-0.1-3.5c0.4-1.8,0.8-3.7,1.3-5.5c0.1-0.3,0.2-0.6,0.3-0.9L16.4,31.1z"/>
<path class="st2" d="M12.6,13.9c-1.4,3.2-2.3,6.6-2.9,10c-1,5.6-1.6,11.4-2.3,17c-0.6,4.6-1.2,9.2-1.8,13.8
	C4.8,60.6,4.3,66.5,4,72.4c-0.3,4.9-0.5,9.9-0.4,14.8c0,5.1,0.3,10.3,1.1,15.3c0.1,0.6,0.3,1.2,0.4,1.8c0.4,1.7,1.7,3.1,3.3,3.8
	c0.4,0.2,0.4,0.4,0.3,0.7c-0.6,1.6-2.3,2.3-3.9,1.8c-0.2-0.1-0.3-0.1-0.5-0.2c-1.2-0.7-2-1.8-2.4-3.1c-0.5-2-0.9-4.1-1-6.2
	c-0.7-8.9-0.7-17.8-0.1-26.7C1.4,66,2.3,57.6,3.5,49.2C4.4,43,5,36.8,5.9,30.6c0.5-4.1,1.4-8,2.7-11.9c0.4-1.3,1.1-2.5,2-3.6
	C11.2,14.5,11.8,14.1,12.6,13.9z"/>
<path class="st2" d="M138.7,3.7c-0.3,0.8-0.6,1.5-0.9,2.2c-1.4,4.1-2.3,8.4-2.8,12.7c-1.1,8.1-1.7,16.3-2.4,24.4
	c-0.5,6.6-0.8,13.2-1,19.8c-0.1,4.6-0.2,9.3-0.1,13.9c0,2.9,0.3,5.8,0.6,8.6c0.1,2.1,1.3,3.9,3,5c0.2,0.1,0.3,0.4,0.3,0.6
	c-0.2,0.7-0.5,1.3-1,1.8c-0.6,0.6-1.6,0.8-2.3,0.3c-1.4-0.6-2.5-1.9-2.9-3.4c-0.5-2.2-0.8-4.4-0.8-6.6c-0.4-8.2-0.1-16.5,0.2-24.7
	c0.2-4.6,0.4-9.1,0.8-13.7c0.8-8.6,1.3-17.3,2.7-25.8c0.5-4.1,1.6-8.1,3.2-11.8c0.4-0.9,1-1.7,1.6-2.4
	C137.5,4.2,138.1,3.8,138.7,3.7z"/>
<path class="st2" d="M44,6.7c-1.7,5.3-1.6,10.7-1.9,16C41.6,28.9,41.3,35,41,41.1c-0.1,2.2,0,4.4,0.1,6.6c0.2,9.8,0.3,19.6,0.5,29.4
	c0,2.5,0.1,4.9,0.1,7.4c0,0.3,0,0.5,0,0.8c-0.1-0.1-0.2-0.1-0.2-0.1c-1-2.1-2.1-4.3-3-6.5c-0.1-0.3-0.1-0.7-0.1-1
	c-0.1-7.2-0.2-14.3-0.3-21.5c-0.1-3.5-0.2-7.1-0.2-10.6c0-2.9,0.3-5.8,0.4-8.6c0.3-4.7,0.5-9.4,0.8-14.1c0.1-3.4,0.4-6.8,1-10.2
	c0.2-1.4,0.7-2.8,1.5-4.1C42,7.7,42.9,7,44,6.7z"/>
<path class="st2" d="M57.8,55c-0.9,1.2-1.6,2.5-2.2,3.8c-4.1,9-4,17.9,0.8,26.6c2.7,5.1,8,8.2,13.7,8c1.3,0,2.7-0.3,3.9-0.7
	c-0.1,0.3-0.3,0.5-0.6,0.6c-4.8,3.5-10.7,3.4-15.8-0.1c-2.8-2-4.9-4.7-6-7.9c-3.7-9.8-2.6-19,3.5-27.6c0.6-0.8,1.3-1.6,2.1-2.3
	C57.3,55.1,57.6,55,57.8,55z"/>
<path class="st2" d="M172.4,53.7c0,0.1-0.1,0.2-0.1,0.3c-2.2,3.8-2.1,7.8-0.4,11.8c1.6,3.3,3.9,6.3,6.8,8.7c2,1.8,4.2,3.5,6.1,5.5
	c1.2,1.1,2.2,2.5,3,4c0.4,0.8,0.6,1.7,0.6,2.6c-0.1,1.4-1.3,2.5-2.7,2.4c0,0,0,0,0,0c-0.2,0-0.4-0.1-0.5-0.3c-0.6-3.1-2.7-5.3-5-7.4
	c-1.5-1.4-3.1-2.8-4.7-4.1c-0.8-0.6-1.3-1.6-1.3-2.6c0.1-1.4-1-2.6-2.4-2.6c0,0,0,0-0.1,0c-0.2,0-0.4,0-0.6,0
	c-0.3,0.1-0.6-0.1-0.8-0.4c-1.9-2.6-2.9-5.7-2.9-8.9C167.7,59,169.5,55.7,172.4,53.7z"/>
<path class="st2" d="M190.1,96.3c-0.8,0.9-1.8,1.6-3,2c-3.2,1.1-6.6,1-9.7-0.4c-6.8-2.9-10.8-8.1-12.3-15.3
	c-0.4-1.6-0.4-3.2-0.1-4.9c0.1-1.1,1-2,2.1-2.2c0.8-0.1,0.9,0,0.9,0.7c0.4,8.6,4.3,15,12,18.8C183.1,96.6,186.7,97,190.1,96.3z"/>
<path class="st2" d="M144.2,68.8c0.2,0.7,0.3,1.1,0.4,1.6c1.2,5.5,3.7,10.7,7.3,15c1.6,1.9,3.6,3.4,5.9,4.3c0.4,0.2,0.5,0.4,0.4,0.8
	c-0.5,1.5-2.1,2.3-3.6,1.8c-0.1,0-0.2-0.1-0.3-0.1c-1.7-0.7-3.3-1.7-4.5-3c-3.7-3.7-6.3-8.3-7.6-13.4c-0.1-0.2-0.1-0.4-0.1-0.6
	c0.4-2.1,1-4.1,1.9-6C144,69.1,144.1,69,144.2,68.8z"/>
<path class="st2" d="M118.3,63.8c0,4.5-0.6,9-1.9,13.3c-0.3,1-0.7,2-1.4,2.9c-0.3,0.4-0.7,0.8-1.2,0.9c-0.6,0.1-0.8-0.1-0.6-0.7
	c0.7-2.4,1.2-4.9,1.5-7.5c0.7-5.8,0.3-11.7-1.3-17.3c-0.5-1.5-0.7-3.1-0.6-4.7c0.1-1.8,1-2.8,2.5-2.9c0.3,0,0.7,0,0.6,0.4
	c0,2.4,0.8,4.7,1.3,7C118,58,118.3,60.9,118.3,63.8z"/>
<path class="st1" d="M172.5,42.4c0.1,1.9-0.2,3.9-0.9,5.7c-0.1,0.3-0.3,0.7-0.5,1c-0.8,1.5-1.8,1.8-3.1,1.3
	c-1.6-0.7-2.2-1.9-1.8-3.4c0.2-0.6,0.4-1.2,0.6-1.8c0.7-1.8,0.7-3.8-0.1-5.6c-0.4-0.9-0.8-1.8-1.1-2.7c-0.3-0.6-0.5-1.2-0.6-1.8
	c-0.4-1,0.2-2.2,1.2-2.5c0.5-0.2,0.9-0.1,1.4,0c1.1,0.3,2,1.1,2.6,2.1C171.7,36.9,172.5,39.6,172.5,42.4z"/>
<path class="st2" d="M115.4,90.8c-1.4,2-3.9,2.8-6.1,2.1c-2-0.6-3.8-2-4.8-3.9c-1.1-1.8-2-3.7-2.5-5.7c-0.1-0.3-0.1-0.6,0-0.9
	c0.4-1.1,0.8-2.3,1.2-3.4s0.7-2.3,1-3.6c0.2,0.6,0.3,1.2,0.3,1.8c0.4,2.9,1.4,5.6,2.7,8.1c0.7,1.3,1.6,2.4,2.8,3.4
	c1.3,1.2,3.1,1.8,4.8,1.8h0.5C115.2,90.6,115.3,90.7,115.4,90.8z"/>
<path class="st3" d="M166.8,42.4c0,0.9-0.2,1.7-0.5,2.6c-0.2,0.5-0.4,1-0.6,1.6c-0.7,1.6,0,3.4,1.5,4.1c0,0,0,0,0,0
	c0.6,0.3,0.6,0.6,0.3,1.1c0,0,0,0.1-0.1,0.1c-1.1,2.2-3.4,2.3-4.8,0.3c-0.4-0.6-0.5-1.4-0.2-2.2c0.2-0.8,0.5-1.5,0.8-2.3
	c0.5-1.5,0.5-3.2,0-4.7c-0.4-1-0.8-2-1.2-3c-0.3-0.6-0.6-1.3-0.7-2c-0.3-0.7-0.1-1.5,0.5-2c0.7-0.6,1.6-0.7,2.4-0.4
	c0.2,0.1,0.4,0.2,0.5,0.4c0.5,1.5,1.3,2.8,1.8,4.3C166.7,41,166.8,41.7,166.8,42.4z"/>
<path class="st2" d="M75.4,82.9l0.7-1.1c1.2-2.2,2.3-4.4,3.2-6.7c0.4-1.2,1-2.2,1.8-3.2c0.2-0.2,0.2-0.5,0.2-0.8
	c0.4-4.3,1.4-8.5,2.8-12.6c0.4-1.3,1.1-2.5,1.9-3.6c0.4-0.5,0.8-0.9,1.4-1.1c0.1-0.1,0.3-0.1,0.4,0s0,0.3,0,0.4
	c-1.7,4.4-2.7,9-3.2,13.7c0,0.2-0.1,0.5-0.2,0.7c-1.1,1.6-1.9,3.3-2.6,5.1c-1,2.5-2.3,4.8-3.9,7C77.1,81.6,76.3,82.3,75.4,82.9z"/>
<path class="st2" d="M85,82.3c1.6,4.5,3.8,8.3,9,9.1c-1.2,1.9-3.5,2.7-5.6,2c-2.7-1.1-4.3-3.3-5.6-5.7c-0.6-0.8-0.5-2,0.3-2.7
	C83.8,84.2,84.4,83.3,85,82.3z"/>
<path class="st2" d="M103,55.8c0,0.1,0,0.1,0,0.2c-1.7,5.7-2.9,11.6-5.2,17.2c-0.7,1.8-1.5,3.6-2.6,5.2c-0.4,0.6-0.9,1.1-1.5,1.4
	c-0.2,0.1-0.3,0.1-0.5,0s0-0.3,0-0.4c2.8-5.8,4.3-12,5.8-18.2c0.3-1.2,0.7-2.3,1.2-3.4c0.4-1,1.2-1.7,2.2-2.1
	C102.7,55.6,102.9,55.4,103,55.8z"/>
<path class="st3" d="M181.7,55.6c2-1.6,4.1-2.8,6.8-2.4c1.2,0.2,2.1,1,2.6,2.1c0.8,1.3,0.5,2.9-0.6,3.8c-0.2,0.2-0.5,0.4-0.8,0.6
	c-0.4,0.3-0.8,0.7-1.1,0.6s-0.2-0.7-0.3-1.1c-0.5-2.4-2.7-4-5.1-3.7c-0.5,0.1-1,0.2-1.5,0.2L181.7,55.6z"/>
<path class="st3" d="M190.7,67.6c0,0.3-0.2,0.3-0.4,0.4c-1.7,1.2-3.5,2.1-5.5,2.7c-0.5,0.2-1.1,0-1.4-0.4c-1.1-1.1-2-2.3-2.9-3.6
	c-0.3-0.4-0.2-0.7,0.2-1c0.2-0.1,0.4-0.2,0.6-0.3c0.4-0.2,0.9-0.4,1.4-0.4c0.6,0,0.5,0.8,0.7,1.2c0.9,1.6,2.7,2.5,4.6,2.2
	C189,68.2,189.8,67.9,190.7,67.6z"/>
<path class="st4" d="M200,48.4c-0.1-1.5,1.1-2.7,2.5-2.8c0.1,0,0.1,0,0.2,0c1.5-0.1,2.8,1.1,2.9,2.6s-1.1,2.8-2.6,2.9
	c-0.1,0-0.2,0-0.3,0c-1.4,0.1-2.7-1-2.8-2.5C200,48.6,200,48.5,200,48.4z"/>
<path class="st3" d="M143.3,55.8c-1.9,2.9-3.5,6-4.7,9.2c0.1-1.6-0.4-3.2,0.6-4.6c0.6-0.9,1.2-1.8,1.9-2.6c0.7-0.7,1.4-1.4,2-2.1
	L143.3,55.8z"/>
<path class="st5" d="M80.4,109.5c0-1.9,0-3.7,0-5.6c0-0.5,0.2-0.7,0.7-0.6c2.3,0.2,4.7,0.3,7,0.4c0.4,0,0.6,0.2,0.6,0.6
	c0.1,2,0.1,2-1.9,2c-0.8,0-1.7-0.1-2.5-0.1c-0.4,0-0.5,0.1-0.5,0.5c-0.1,1.4-0.1,1.4,1.3,1.4c0.8,0,1.6,0,2.4,0
	c0.4,0,0.5,0.2,0.6,0.6c0.1,2.1,0.1,2.1-2,2.1c-0.6,0-1.2,0-1.8,0c-0.4,0-0.5,0.1-0.5,0.5c-0.1,1.6-0.1,1.6,1.4,1.5
	c1,0,2.1,0,3.1-0.1c0.4,0,0.6,0.1,0.6,0.6c0.1,2,0.1,2-1.9,2.1s-3.8,0.2-5.7,0.3c-0.6,0-0.8-0.1-0.7-0.7
	C80.4,113.3,80.4,111.4,80.4,109.5z"/>
<path class="st5" d="M139.9,104.3c1.4-0.2,2.8-0.1,4.1,0.2c1.4,0.2,2.3,1.5,2.1,2.9c-0.2,0.8-0.7,1.6-1.4,2.1c-0.5,0.4-0.5,0.6,0,1
	c0.4,0.5,0.8,1.1,1,1.7c0.4,0.8,0.8,1.6,1.2,2.3c0.3,0.5,0.1,0.6-0.4,0.6c-0.8-0.1-1.6-0.1-2.4-0.1c-0.3,0-0.6-0.2-0.7-0.5
	c-0.5-1-1-1.9-1.5-2.9c-0.1-0.3-0.4-0.6-0.8-0.7c-0.9-0.2-1.1,0-1.1,0.9s0,1.6,0,2.4c0,0.4-0.1,0.6-0.5,0.6c-0.7,0-1.5,0-2.2,0
	c-0.4,0-0.5-0.2-0.5-0.6c0-3.1,0-6.2,0-9.4c0-0.4,0.1-0.6,0.5-0.6C138.2,104.4,139.1,104.3,139.9,104.3z"/>
<path class="st5" d="M103.5,114.8c-1.7,0.1-1.7,0.1-2.2-1.5c-0.2-0.5-0.4-0.7-1-0.7c-0.8,0.1-1.7,0.1-2.5,0
	c-0.4-0.1-0.7,0.2-0.8,0.5c-0.7,1.9-0.7,1.9-2.7,1.9c-1.1,0-1.1,0.1-0.7-0.9c1.2-3.1,2.3-6.3,3.5-9.4c0.1-0.4,0.5-0.7,0.9-0.6
	c0,0,0,0,0,0c0.8,0.1,1.6,0.1,2.4,0.1c0.3,0,0.7,0.2,0.8,0.5c1.3,3.2,2.6,6.3,3.9,9.5c0.2,0.4,0.1,0.6-0.4,0.6
	S103.9,114.8,103.5,114.8z"/>
<path class="st5" d="M123,109.6c0-1.5,0-3,0-4.5c0-0.4,0.1-0.6,0.6-0.6c2.4,0,4.7,0,7.1-0.1c0.4,0,0.5,0.1,0.6,0.5
	c0.1,1.8,0.1,1.8-1.7,1.8c-0.9,0-1.8,0-2.7,0c-0.7,0-0.5,0.4-0.6,0.8s0,0.8,0.6,0.7c1,0,2.1,0,3.1,0c0.5,0,0.6,0.1,0.6,0.6
	c-0.1,2,0.3,1.6-1.6,1.7c-0.7,0-1.4,0-2.2,0c-0.4,0-0.5,0.1-0.5,0.5c-0.1,1.2-0.1,1.2,1.1,1.2s2.3,0,3.4,0c0.5,0,0.6,0.1,0.6,0.6
	c0,1.7,0.1,1.7-1.6,1.7c-2,0-3.9-0.1-5.9-0.1c-0.7,0-0.9-0.1-0.9-0.9C123.1,112.4,123,110.9,123,109.6z"/>
<path class="st5" d="M156.2,107.9c0.7-1.3,1.3-2.5,1.9-3.7c0.2-0.6,0.7-0.9,1.3-0.9c0.6,0,1.3,0,1.9-0.1c0.5-0.1,0.6,0.1,0.4,0.6
	c-1.2,2.1-2.3,4.3-3.5,6.4c-0.3,0.4-0.4,0.9-0.4,1.4c0,1.1,0,2.2,0,3.2c0,0.5-0.1,0.7-0.6,0.6c-0.7-0.1-1.3-0.1-2-0.1
	c-0.5,0-0.7-0.2-0.7-0.7c0-1.1,0-2.2,0-3.2c0-0.4-0.1-0.9-0.3-1.2c-1.1-1.9-2.3-3.9-3.4-5.9c-0.3-0.5-0.2-0.6,0.4-0.6
	c0.8,0,1.6-0.1,2.4-0.1c0.3-0.1,0.7,0.1,0.8,0.5C154.8,105.4,155.4,106.6,156.2,107.9z"/>
<path class="st5" d="M112.8,104.5c1.5,0,2.9,0,4.4,0c0.5,0,0.7,0.1,0.7,0.7c0,1.6,0,1.6-1.6,1.6c-1.9,0-1.9,0-1.9,1.9s0,3.6,0,5.3
	c0,0.5-0.1,0.6-0.6,0.6c-0.6,0-1.3,0-1.9,0c-0.6,0.1-0.7-0.2-0.7-0.8c0-2.1,0-4.2,0-6.3c0-0.7-0.2-0.9-0.9-0.8s-1.3,0-2,0
	c-0.4,0-0.5-0.1-0.5-0.5c-0.1-1.9-0.2-1.8,1.7-1.8c1.1,0,2.2,0,3.3,0L112.8,104.5z"/>
<path class="st5" d="M60.1,71.9c0.1-4.1,1.2-8.1,3-11.8c0.5-1,1.2-1.9,2-2.6c1.8-1.4,3.5-0.8,4,1.4c0.2,1,0.2,2.1,0,3.1
	c-0.5,2.7-1.6,5.2-3.2,7.5c-1.3,1.9-3,3.4-5.1,4.4c-0.5,0.3-0.7,0.2-0.7-0.4S60.1,72.5,60.1,71.9z"/>
<path class="st6" d="M202.8,50.5c-1.2-0.1-2-1.1-2-2.2c0.1-1,0.9-1.9,2-2c1.1-0.1,2.1,0.8,2.1,2c0,0.1,0,0.1,0,0.2
	c0,1.1-0.8,2-1.9,2.1C202.9,50.5,202.9,50.5,202.8,50.5z"/>
<path class="st0" d="M140.1,107.6c0-1.2,0-1.3,1.3-1.2c0.6,0,1.3,0,1.5,0.9c0.2,0.6-0.2,1.3-0.9,1.4c-0.2,0.1-0.4,0.1-0.6,0.1
	C139.8,108.8,140.1,108.9,140.1,107.6z"/>
<path class="st0" d="M99.2,106.9l1.1,3.2c0.1,0.3,0,0.4-0.3,0.4h-1.8c-0.3,0-0.4-0.1-0.3-0.4c0.4-1.1,0.7-2.2,1.1-3.3L99.2,106.9z"
	/>
<path class="st3" d="M62.6,72.1c0.4-0.8,0.8-1.5,1.2-2.3c0.8-1.8,1.4-3.6,1.7-5.6c0.2-1.1,0-2.2-0.4-3.2c-0.1-0.2-0.2-0.3-0.3-0.5
	S64,60.2,64,59.8c0.1-0.4,0.4-0.7,0.7-1.1c0.4-0.5,0.9-0.9,1.4-1.2c0.7-0.4,1.6-0.2,2,0.5c0,0.1,0.1,0.1,0.1,0.2
	c0.4,0.8,0.5,1.6,0.4,2.4c-0.4,4.1-2.3,8-5.3,10.9c-0.2,0.2-0.4,0.3-0.6,0.5L62.6,72.1z"/>
<path class="st7" d="M202.6,46.9c1.3,0,1.5,0.4,1,1.5c-0.2,0.4,0.2,0.6,0.3,1c0,0.2,0.3,0.4,0,0.5c-0.2,0.1-0.5,0.1-0.6-0.1
	c0,0,0,0,0-0.1v-0.1c-0.2-0.3-0.2-0.8-0.6-0.8s-0.1,0.6-0.2,0.8s-0.1,0.3-0.3,0.3s-0.3-0.1-0.3-0.3c0-0.8,0-1.6,0-2.4
	C201.9,46.6,202.4,47,202.6,46.9z"/>
<path class="st8" d="M203.2,47.7c0,0.2-0.2,0.4-0.4,0.4c0,0,0,0,0,0c-0.2,0-0.3-0.1-0.3-0.3s0-0.5,0.3-0.4S203.1,47.5,203.2,47.7z"
	/>
</svg>
