<?xml version="1.0" encoding="utf-8"?>
<!-- Generator: Adobe Illustrator 21.1.0, SVG Export Plug-In . SVG Version: 6.00 Build 0)  -->
<svg version="1.1" id="Layer_1" xmlns="http://www.w3.org/2000/svg" xmlns:xlink="http://www.w3.org/1999/xlink" x="0px" y="0px"
	 viewBox="0 0 181 43.6" style="enable-background:new 0 0 181 43.6;" xml:space="preserve">
<style type="text/css">
	.st0{fill:#EB2027;}
	.st1{fill:#231F20;}
	.st2{font-family:'ArialMT';}
	.st3{font-size:10.3997px;}
	.st4{letter-spacing:3;}
</style>
<title>Grocery</title>
<path class="st0" d="M9.4,0.9l12.4,15.6V5.7c0.1-1.1-0.1-2.1-0.7-3.1c-0.8-0.8-1.9-1.1-3-1V0.9h8.3v0.7c-0.7,0-1.5,0.2-2.2,0.5
	c-0.4,0.2-0.7,0.6-0.9,1.1c-0.3,0.8-0.4,1.7-0.3,2.5v21h-0.6l-17-21v16c-0.1,1.1,0.2,2.2,1,2.9c0.7,0.5,1.5,0.8,2.3,0.8h0.6v0.7h-9
	v-0.7c1,0.1,2.1-0.2,2.9-0.9c0.6-0.8,0.9-1.8,0.8-2.8V3.9L3.7,3.3c-0.4-0.5-0.9-1-1.4-1.3C1.7,1.7,1.1,1.6,0.5,1.6V0.9H9.4z"/>
<path class="st0" d="M40.9,0.5C47.8,0,53.8,5.1,54.4,12c0,0.5,0.1,1,0,1.5c0,3.1-0.9,6-2.8,8.4c-2.5,3.2-6,4.8-10.5,4.8
	s-8-1.5-10.6-4.6c-2-2.4-3-5.5-2.9-8.6c-0.1-3.5,1.3-6.9,3.9-9.4C33.9,1.6,37.4,0.3,40.9,0.5z M41.1,1.7c-2.3,0-4.1,1.2-5.3,3.5
	c-1,1.9-1.5,4.7-1.5,8.3c0,4.3,0.8,7.5,2.3,9.5c1,1.4,2.7,2.2,4.4,2.2c1.1,0,2.3-0.3,3.2-0.9c1.2-1,2.1-2.3,2.6-3.8
	c0.7-2.2,1-4.5,0.9-6.8c0.1-2.5-0.2-5.1-0.9-7.5c-0.4-1.4-1.3-2.6-2.4-3.5C43.4,2.1,42.3,1.7,41.1,1.7z"/>
<path class="st0" d="M71.4,12.7c1.8,0.3,3.5,1,5,2c1.4,1.1,2.1,2.7,2.1,4.4c0,1.8-0.8,3.6-2.3,4.7c-1.9,1.5-4.6,2.3-8.2,2.3H55.3
	v-0.7c0.8,0.1,1.6-0.1,2.4-0.3c0.4-0.2,0.7-0.5,0.9-0.9c0.2-0.8,0.3-1.7,0.3-2.6V5.3c0.1-0.9,0-1.7-0.3-2.6
	c-0.2-0.4-0.5-0.7-0.9-0.8c-0.8-0.3-1.6-0.4-2.4-0.3V0.9h12.1c2.1-0.1,4.2,0.1,6.1,0.8c1.2,0.5,2.1,1.3,2.8,2.3c0.7,1,1,2.1,1,3.3
	c0,1.2-0.5,2.4-1.3,3.2C74.7,11.6,73.1,12.4,71.4,12.7z M64.7,13.7v8.1v0.9c-0.1,1,0.6,1.9,1.6,2c0.1,0,0.3,0,0.4,0
	c1,0,1.9-0.2,2.7-0.7c0.8-0.4,1.5-1.1,1.9-1.9c0.5-0.9,0.7-1.8,0.7-2.8c0-1.1-0.3-2.2-0.8-3.2c-0.5-0.9-1.3-1.6-2.3-2
	C67.5,13.8,66.1,13.6,64.7,13.7z M64.7,12.2c1.3,0.1,2.6-0.1,3.9-0.6c0.8-0.4,1.5-0.9,1.9-1.7c0.9-1.7,0.9-3.8,0-5.5
	c-0.4-0.7-1.1-1.3-1.9-1.6c-1.3-0.4-2.6-0.6-3.9-0.5L64.7,12.2z"/>
<path class="st0" d="M98.4,14v7.8c-0.1,0.8,0,1.6,0.2,2.4c0.2,0.4,0.5,0.7,0.8,0.9c0.5,0.3,1.1,0.4,1.7,0.4h0.8v0.7H88.8v-0.7h0.8
	c0.6,0,1.2-0.1,1.8-0.4c0.3-0.2,0.6-0.5,0.7-0.9c0.2-0.8,0.3-1.6,0.2-2.3V5.2c0.1-0.8,0-1.6-0.2-2.4c-0.2-0.4-0.5-0.7-0.8-0.8
	c-0.5-0.3-1.1-0.4-1.7-0.4h-0.8V0.9H102v0.7h-0.8c-0.6,0-1.2,0.1-1.8,0.4c-0.3,0.2-0.6,0.5-0.8,0.9c-0.2,0.8-0.3,1.6-0.2,2.3v7.1
	h8.9V5.2c0.1-0.8,0-1.6-0.2-2.4c-0.2-0.4-0.5-0.7-0.8-0.8c-0.5-0.3-1.1-0.4-1.7-0.4h-0.8V0.9h13.2v0.7h-0.8c-0.6,0-1.2,0.1-1.8,0.4
	c-0.3,0.2-0.6,0.5-0.8,0.9c-0.2,0.8-0.3,1.6-0.2,2.3v16.6c-0.1,0.8,0,1.6,0.2,2.4c0.2,0.4,0.5,0.7,0.8,0.9c0.5,0.3,1.1,0.4,1.7,0.4
	h0.8v0.7h-13.2v-0.7h0.8c0.6,0,1.2-0.1,1.8-0.4c0.3-0.2,0.6-0.5,0.8-0.9c0.2-0.8,0.3-1.6,0.2-2.3V14L98.4,14z"/>
<path class="st0" d="M131.1,25.4v0.7h-13.2v-0.7h0.8c0.6,0,1.2-0.1,1.8-0.4c0.3-0.2,0.6-0.5,0.7-0.9c0.2-0.8,0.3-1.6,0.2-2.3V5.2
	c0.1-0.8,0-1.6-0.2-2.4c-0.2-0.4-0.5-0.7-0.8-0.8c-0.5-0.3-1.1-0.4-1.7-0.4h-0.8V0.9h13.2v0.7h-0.8c-0.6,0-1.2,0.1-1.8,0.4
	c-0.3,0.2-0.6,0.5-0.8,0.9c-0.2,0.8-0.3,1.6-0.2,2.3v16.6c-0.1,0.8,0,1.6,0.2,2.4c0.2,0.4,0.5,0.7,0.8,0.9c0.5,0.3,1.1,0.4,1.7,0.4
	L131.1,25.4z"/>
<path class="st0" d="M155.6,17.3l-0.9,8.9h-22.4v-0.7h0.8c0.6,0,1.2-0.1,1.8-0.4c0.3-0.2,0.6-0.5,0.7-0.9c0.2-0.8,0.3-1.6,0.2-2.3
	V5.2c0.1-0.8,0-1.6-0.2-2.4c-0.2-0.4-0.5-0.7-0.8-0.8c-0.5-0.3-1.1-0.4-1.7-0.4h-0.8V0.9h13.4v0.7h-1.1c-0.6,0-1.2,0.1-1.8,0.4
	c-0.3,0.2-0.6,0.5-0.8,0.9c-0.2,0.8-0.3,1.6-0.2,2.3v16.1c-0.1,0.8,0,1.7,0.2,2.5c0.2,0.4,0.5,0.7,0.9,0.8c0.7,0.2,1.5,0.2,2.3,0.2
	h2.1c1.2,0,2.3-0.2,3.4-0.7c1-0.5,1.7-1.3,2.3-2.2c0.8-1.4,1.4-2.9,1.9-4.5L155.6,17.3z"/>
<path class="st0" d="M180.5,17.3l-0.9,8.8h-22.4v-0.7h0.8c0.6,0,1.2-0.1,1.8-0.4c0.4-0.2,0.6-0.5,0.8-0.9c0.2-0.8,0.3-1.6,0.2-2.3
	V5.2c0.1-0.8,0-1.6-0.2-2.4c-0.2-0.4-0.5-0.7-0.8-0.8c-0.5-0.3-1.1-0.4-1.7-0.4h-0.8V0.9h13.3v0.7h-1c-0.6,0-1.2,0.1-1.8,0.4
	c-0.3,0.2-0.6,0.5-0.8,0.9c-0.2,0.8-0.3,1.6-0.2,2.3v16.1c-0.1,0.8,0,1.7,0.2,2.5c0.2,0.4,0.5,0.7,0.9,0.8c0.7,0.2,1.5,0.2,2.3,0.2
	h2.1c1.2,0,2.3-0.2,3.4-0.7c1-0.5,1.7-1.3,2.3-2.2c0.8-1.4,1.4-2.9,1.9-4.5L180.5,17.3z"/>
<text transform="matrix(1 0 0 1 62.92 39.7137)" class="st1 st2 st3 st4">FOODS</text>
<rect x="7.7" y="35.1" class="st1" width="49.4" height="1.4"/>
<rect x="120" y="35.1" class="st1" width="49.4" height="1.4"/>
</svg>
