<?xml version="1.0" encoding="utf-8"?>
<!-- Generator: Adobe Illustrator 21.1.0, SVG Export Plug-In . SVG Version: 6.00 Build 0)  -->
<svg version="1.1" id="Layer_1" xmlns="http://www.w3.org/2000/svg" xmlns:xlink="http://www.w3.org/1999/xlink" x="0px" y="0px"
	 viewBox="0 0 194.3 110.3" style="enable-background:new 0 0 194.3 110.3;" xml:space="preserve">
<style type="text/css">
	.st0{fill:#553023;}
	.st1{fill:#FEC401;}
	.st2{fill:#B02A27;}
	.st3{fill:#FFFFFF;}
</style>
<title>Fast Casual</title>
<path class="st0" d="M16.9,77.1h158.9v32.8H16.9V77.1z"/>
<path class="st0" d="M193.8,86.9c0,0-36.3-3.3-96.5-3.3S1.8,86.9,1.8,86.9V2C1.8,2,37.1,4,97.3,4S193.8,2,193.8,2V86.9z"/>
<path class="st1" d="M192.3,85c0,0-36-3.1-95.9-3.2S0.5,85,0.5,85V0.5c0,0,36.1,2,95.9,2s95.9-2,95.9-2V85z"/>
<path class="st2" d="M190.9,84.1c0,0-35.5-3.1-94.5-3.1S1.9,84.1,1.9,84.1V1.5c0,0,35.6,2,94.5,2s94.5-2,94.5-2V84.1z"/>
<path class="st3" d="M36.5,102.2c0.1-1.1,0.3-2.1,0.5-3.2l2.3-9.2h2.5l2.2,9.3c0.2,1,0.4,2,0.4,3h0.2c0.1-1,0.3-2.1,0.6-3.1l1.3-5
	c0.2-0.8,0.5-1.7,0.9-2.4c-0.5,0-0.9-0.1-1.4-0.2c-0.1-0.5-0.2-1-0.2-1.5h4.7c0,0.5-0.1,1-0.2,1.5c-0.3,0.1-0.7,0.1-1.1,0.1
	l-3.9,12.8h-2.3l-2.2-9.2c-0.2-1.1-0.4-2.2-0.5-3.3h-0.2c-0.1,1.1-0.3,2.3-0.5,3.4l-2.3,9.1h-2.5l-3.6-12.6c-0.4,0-0.7-0.1-1-0.2
	c-0.1-0.5-0.2-1-0.3-1.5h5.5c0,0.5-0.1,1-0.3,1.5c-0.4,0.1-1.1,0.1-1.6,0.1c0.4,0.8,0.7,1.6,0.9,2.4l1.2,5c0.2,1,0.4,2,0.5,3.1H36.5
	L36.5,102.2z M59.1,99.2c0,3.4-1.9,5.4-4.8,5.4c-3.1,0-4.8-1.8-4.8-5.4c-0.2-2.6,1.7-4.8,4.3-5c0.2,0,0.3,0,0.5,0
	C57.2,94.1,59.2,95.9,59.1,99.2 M54.3,103c1.6,0,2.4-1.5,2.4-3.8c0-2-1-3.5-2.4-3.5s-2.4,1.4-2.4,3.5C51.9,101.5,52.8,103,54.3,103
	 M64.3,96.3c0.2-1.3,1.3-2.2,2.6-2.2c0.3,0,0.7,0,1,0.2c0.2,0.5,0.3,1,0.3,1.5c0,0.2,0,0.5-0.1,0.7c-0.5-0.2-1-0.3-1.5-0.3
	c-1,0-1.9,0.6-2.3,1.5v4.9c0.7,0.1,1.4,0.2,2,0.4c0.1,0.4,0.1,0.8,0.1,1.2h-6c0-0.4,0.1-0.8,0.3-1.2c0.4-0.2,0.8-0.4,1.2-0.5V96
	h-1.4c0-0.5,0.2-1,0.4-1.4c0.6-0.2,1.2-0.3,1.9-0.3c0.4,0,0.8,0,1.2,0.2v1.9L64.3,96.3L64.3,96.3z M68.9,91.1c0-0.5,0.2-1,0.4-1.5
	c0.6-0.2,1.3-0.3,2-0.3c0.4,0,0.9,0.1,1.3,0.2v13.1c0.5,0.1,1.1,0.2,1.6,0.3c0.1,0.3,0.1,0.5,0.1,0.8c0,0.2,0,0.3,0,0.5h-5.5
	c0-0.4,0.1-0.8,0.3-1.2c0.4-0.2,0.8-0.4,1.2-0.5V91.2L68.9,91.1L68.9,91.1z M82.2,91.1h-1.4c0-0.5,0.2-1,0.4-1.5
	c0.6-0.2,1.3-0.3,2-0.3c0.4,0,0.9,0.1,1.3,0.2v11.6c0,0.5,0.1,1,0.2,1.5h1.5c0,0.1,0,0.2,0,0.3c0,0.4-0.1,0.7-0.2,1.1
	c-1,0.3-2,0.4-3.1,0.4c-0.3-0.5-0.4-1-0.5-1.5h-0.2c-0.6,1.1-1.8,1.7-3.1,1.6c-1.8,0-3.8-1.2-3.8-4.9c0-3.4,2-5.6,4.9-5.6
	c0.7,0,1.3,0.2,1.9,0.5L82.2,91.1L82.2,91.1z M82.2,96c-0.5-0.2-1-0.3-1.5-0.3c-2,0-2.9,1.5-2.9,3.6s1,3.5,2.3,3.5
	c0.8,0,1.5-0.4,2-1.1L82.2,96L82.2,96z M96.8,96.2l2.5-3.4c0.3-0.4,0.6-0.8,1-1.1c-0.4,0-1-0.1-1.3-0.2c-0.1-0.5-0.2-1-0.2-1.5h5.1
	c0,0.5-0.1,1.1-0.3,1.6c-0.4,0.1-0.8,0.1-1.2,0.1l-3.9,5l4.7,5.8l1.3-0.1c0,0.6-0.1,1.2-0.4,1.7c-0.8,0.2-1.7,0.3-2.6,0.4l-5.2-6.9
	h-0.9v4.8c0.5,0,1,0.1,1.5,0.2c0.1,0.5,0.2,1,0.1,1.5h-5.9c0.1-0.5,0.2-1,0.3-1.4c0.5-0.1,1-0.2,1.5-0.3V91.7
	c-0.4,0-1.1-0.1-1.4-0.2c-0.1-0.5-0.1-1,0-1.5H97c0.1,0.5,0.1,1,0,1.5c-0.5,0.1-0.9,0.2-1.4,0.2v4.6H96.8L96.8,96.2z M105.5,96
	c0-0.5,0.2-1,0.4-1.4c0.6-0.2,1.3-0.3,2-0.3c0.4,0,0.9,0,1.3,0.2v8.2c0.5,0,1,0.2,1.5,0.3c0.1,0.3,0.1,0.5,0.1,0.8
	c0,0.2,0,0.3,0,0.5h-5.4c0-0.4,0.1-0.8,0.3-1.2c0.4-0.2,0.8-0.4,1.2-0.5V96L105.5,96L105.5,96z M109.7,90.7c0.1,0.8-0.5,1.4-1.2,1.5
	c-0.1,0-0.2,0-0.2,0c-0.7,0.1-1.4-0.4-1.5-1.2c0-0.1,0-0.2,0-0.3c0-0.8,0.6-1.4,1.3-1.4c0,0,0.1,0,0.1,0c0.7-0.1,1.4,0.5,1.4,1.2
	C109.7,90.6,109.7,90.6,109.7,90.7 M113.3,91.9c0.6-0.3,1.2-0.4,1.9-0.4v2.9h2.9c0.1,0.5,0.1,1,0.1,1.6h-3v5.1
	c0,1.2,0.3,1.7,1.3,1.7c0.6,0,1.3-0.1,1.9-0.3c0,0.1,0,0.2,0,0.3c0,0.4-0.1,0.8-0.3,1.1c-0.8,0.4-1.7,0.6-2.6,0.6
	c-1.7,0-2.6-0.9-2.6-3.1c0-1.3,0-3.6,0.1-5.4h-1.5c0-0.5,0.1-1,0.3-1.4c0.4-0.2,0.8-0.3,1.1-0.4L113.3,91.9L113.3,91.9z M125.4,95.8
	c-0.3-0.1-0.7-0.2-1-0.2c-1.6,0-2.7,1.1-2.7,3.5s1.2,3.7,2.9,3.7c0.9,0,1.8-0.2,2.7-0.6c0,0.5-0.1,1.1-0.4,1.5
	c-1,0.5-2.1,0.7-3.2,0.8c-2.8,0-4.6-2.1-4.6-5c-0.2-2.8,1.9-5.2,4.7-5.4c0.2,0,0.3,0,0.5,0c1,0,2,0.2,2.9,0.7c0,0.3,0.1,0.5,0.1,0.8
	c0,0.7-0.1,1.4-0.3,2c-0.6,0-1.2-0.2-1.7-0.4L125.4,95.8L125.4,95.8z M132.5,102.6c0.5,0.1,0.9,0.2,1.4,0.3c0.1,0.4,0.1,0.8,0.1,1.3
	h-5.3c0-0.4,0.1-0.8,0.3-1.2c0.4-0.2,0.8-0.4,1.2-0.5V91.2h-1.4c0-0.5,0.2-1,0.4-1.5c0.6-0.2,1.3-0.3,2-0.3c0.4,0,0.9,0.1,1.3,0.2
	V93c0,0.9-0.1,2-0.1,2.9h0.2c0.6-1.2,1.8-2,3.2-1.8c1.7,0,3.2,0.5,3.2,3.7c0,1.6,0,3.3-0.1,4.8c0.5,0,1,0.2,1.5,0.3
	c0.1,0.3,0.1,0.5,0.1,0.8c0,0.2,0,0.3,0,0.5h-5.1c0-0.4,0.1-0.8,0.3-1.2c0.3-0.2,0.7-0.4,1.1-0.5v-4.4c0-1.4-0.5-2.3-1.8-2.3
	c-1,0-1.8,0.5-2.4,1.3L132.5,102.6L132.5,102.6z M143.5,99.7c-0.1,1.6,1.2,2.9,2.8,3c0.1,0,0.2,0,0.3,0c1,0,2-0.2,3-0.6
	c0,0.5-0.1,1.1-0.4,1.5c-1,0.5-2.2,0.8-3.3,0.8c-3,0-4.8-2.2-4.8-5c0-3.1,1.9-5.4,4.9-5.4c2.6,0,3.7,1.8,3.7,4.5
	c0,0.4,0,0.7-0.1,1.1L143.5,99.7L143.5,99.7z M147.4,98.2c0.1-1.2-0.3-2.7-1.7-2.7c-1.2,0-2.1,1.1-2.2,2.7H147.4L147.4,98.2z
	 M154.9,102.6c0.5,0.1,0.9,0.2,1.4,0.3c0.1,0.4,0.1,0.8,0.1,1.3h-5.3c0-0.4,0.1-0.8,0.3-1.2c0.4-0.2,0.8-0.4,1.2-0.5V96h-1.5
	c0-0.5,0.2-1,0.4-1.4c0.6-0.2,1.2-0.4,1.9-0.3c0.4,0,0.8,0,1.1,0.2v1.5h0.3c0.6-1.2,1.9-1.9,3.3-1.8c1.6,0,3.2,0.5,3.2,3.7
	c0,1.6-0.1,3.3-0.1,4.8c0.5,0,1,0.2,1.5,0.3c0.1,0.3,0.1,0.5,0.1,0.8c0,0.2,0,0.3,0,0.5h-5.1c0-0.4,0.1-0.8,0.3-1.2
	c0.3-0.2,0.7-0.4,1.1-0.5v-4.3c0-1.4-0.4-2.3-1.7-2.3c-0.9,0-1.7,0.5-2.3,1.2L154.9,102.6L154.9,102.6z"/>
<path class="st0" d="M15.5,17.2h7.8l3.8,10.5c1.1,3.1,2,5.8,2.6,8.1h0.4l-0.2-5.6v-13h7.4v33h-7.8l-3.8-10.5c-1.1-3.1-2-5.8-2.6-8.1
	h-0.4l0.2,5.6v13h-7.4V17.2z"/>
<path class="st3" d="M14,15.8h7.8l3.8,10.5c1.1,3.1,2,5.8,2.6,8.1h0.4l-0.2-5.6v-13h7.4v33.2h-7.8l-3.8-10.5c-1.1-3.1-2-5.8-2.6-8.1
	h-0.4l0.2,5.6v13H14V15.8z"/>
<path class="st0" d="M52.7,17.2c3.7-0.1,7.2,1.5,9.4,4.4c2.3,2.9,3.5,6.9,3.5,11.9s-1.2,9.1-3.5,12.1c-2.1,2.9-5.4,4.6-9,4.5
	c-3.6,0.2-7.1-1.6-9-4.7c-2.2-3.5-3.3-7.6-3.2-11.7c0-3,0.5-5.9,1.5-8.7c0.8-2.3,2.3-4.4,4.3-5.9C48.5,17.9,50.6,17.2,52.7,17.2
	 M53.5,23.9c-1.6,0-3,1.1-3.6,2.6c-0.9,2.2-1.3,4.7-1.2,7.1c-0.1,2.4,0.3,4.9,1.2,7.2c0.8,1.7,1.9,2.6,3.3,2.6
	c1.4,0,2.5-0.9,3.3-2.7c0.9-2.3,1.4-4.7,1.3-7.1c0.1-2.4-0.3-4.9-1.3-7.1C55.7,24.8,54.7,23.9,53.5,23.9"/>
<path class="st3" d="M51.4,15.8c3.7-0.2,7.2,1.5,9.5,4.4c2.3,2.9,3.5,6.9,3.5,12s-1.2,9.1-3.5,12.2c-2.1,2.9-5.4,4.6-9,4.6
	c-3.6,0.1-7-1.7-8.9-4.7c-2.2-3.5-3.3-7.6-3.2-11.8c0-3,0.5-6,1.5-8.8c0.8-2.3,2.3-4.4,4.3-5.9C47.3,16.5,49.3,15.8,51.4,15.8
	 M52.2,22.5c-1.5,0-2.7,0.9-3.6,2.6c-0.9,2.3-1.3,4.7-1.2,7.1c-0.1,2.5,0.3,4.9,1.2,7.2c0.8,1.7,1.9,2.6,3.3,2.6
	c1.4,0,2.5-0.9,3.3-2.7c0.9-2.3,1.3-4.7,1.2-7.2c0.1-2.4-0.3-4.9-1.3-7.2C54.4,23.3,53.4,22.5,52.2,22.5"/>
<path class="st0" d="M79.8,17.2c3.7-0.2,7.2,1.5,9.4,4.4c2.3,2.9,3.5,6.9,3.5,11.9s-1.2,9.1-3.5,12.1c-2.1,2.9-5.4,4.6-9,4.5
	c-3.6,0.1-7-1.7-8.9-4.7c-2.2-3.5-3.3-7.5-3.2-11.6c0-3,0.5-5.9,1.5-8.7c0.8-2.3,2.3-4.4,4.3-5.9C75.7,17.9,77.7,17.2,79.8,17.2
	 M80.6,23.9c-1.6,0-3,1.1-3.6,2.6c-0.9,2.2-1.3,4.7-1.2,7.1c-0.1,2.4,0.3,4.9,1.2,7.2c0.8,1.7,1.9,2.6,3.3,2.6s2.5-0.9,3.3-2.7
	c0.9-2.3,1.4-4.7,1.3-7.1c0.1-2.4-0.3-4.9-1.3-7.1C82.8,24.8,81.8,23.9,80.6,23.9"/>
<path class="st3" d="M78.5,15.8c3.7-0.2,7.2,1.5,9.5,4.4c2.3,2.9,3.5,6.9,3.5,12s-1.2,9.1-3.5,12.2c-2.1,2.9-5.4,4.6-9,4.6
	c-3.6,0.1-7-1.7-8.9-4.7c-2.2-3.5-3.3-7.6-3.2-11.8c0-3,0.5-6,1.5-8.8c0.8-2.3,2.3-4.4,4.3-5.9C74.4,16.5,76.5,15.8,78.5,15.8
	 M79.4,22.5c-1.5,0-2.7,0.9-3.6,2.6c-0.9,2.3-1.3,4.7-1.2,7.1c-0.1,2.5,0.3,4.9,1.2,7.2c0.8,1.7,1.9,2.6,3.3,2.6
	c1.4,0,2.5-0.9,3.3-2.7c0.9-2.3,1.4-4.7,1.3-7.2c0.1-2.4-0.3-4.9-1.3-7.2C81.6,23.4,80.6,22.5,79.4,22.5"/>
<path class="st0" d="M96.1,17.2h9.6c2.6-0.1,5.1,0.6,7.2,2c2,1.4,3.4,3.5,4.1,5.8c0.8,2.7,1.3,5.5,1.2,8.3c0,5.1-1.1,9.2-3.4,12.3
	c-2.3,3.1-5.7,4.6-10.1,4.6h-8.6V17.2z M103.8,23.6v20.2h0.5c4,0,6-3.6,6-10.8c0.1-2.3-0.3-4.6-1.2-6.7c-0.8-1.6-2.4-2.7-4.2-2.6
	L103.8,23.6z"/>
<path class="st3" d="M94.7,15.8h9.6c2.6-0.1,5.1,0.6,7.2,2c2,1.4,3.4,3.5,4.1,5.8c0.8,2.7,1.3,5.5,1.2,8.3c0,5.1-1.1,9.2-3.4,12.3
	c-2.3,3.1-5.7,4.6-10.1,4.6h-8.6L94.7,15.8z M102.4,22.2v20.2h0.5c4,0,6-3.6,6-10.9c0.1-2.3-0.3-4.6-1.3-6.8
	c-0.8-1.6-2.4-2.7-4.2-2.6L102.4,22.2L102.4,22.2z"/>
<path class="st0" d="M121.7,17.2h7.7v26.3H140v6.8h-18.3"/>
<path class="st3" d="M120.2,15.8h7.7v26.4h10.6v6.8h-18.3"/>
<path class="st0" d="M142.5,17.2h18.8v6.7h-11.2v6.1h10.4v6.4h-10.4v7.1h11.1v6.7h-18.8"/>
<path class="st3" d="M141.1,15.8H160v6.7h-11.1v6.1h10.4V35h-10.4v7.1H160v6.8h-18.9"/>
<path class="st0" d="M164,40.1c2.5,2.3,4.9,3.4,7.2,3.4c1.1,0,2.2-0.4,3-1.1c0.8-0.6,1.2-1.6,1.2-2.6c0-0.8-0.3-1.6-0.9-2.2
	c-0.6-0.6-0.2-2.8-1.9-3.6c-2.3-1.1-5.1-2.1-6.4-3.5s-2.3-1.9-2.3-4c0-2.6,1-5,2.9-6.7c2.1-1.9,4.8-2.8,7.6-2.7
	c2.4,0,4.7,0.6,6.8,1.7v7.6c-2.1-1.9-4.1-2.9-6-2.9c-0.9,0-1.8,0.3-2.5,0.8c-0.6,0.5-1,1.2-1,2c0,0.8,0.3,1.5,0.9,2
	c0.9,0.8,2,1.4,3.1,1.8c2.1,0.8,4,2.1,5.6,3.7c1.3,1.6,2,3.6,1.9,5.6c0,2.9-1.2,5.6-3.3,7.6c-2.2,2.1-5.1,3.2-8.1,3.1
	c-2.8-0.1-5.5-0.8-8-2.2L164,40.1z"/>
<path class="st3" d="M162.8,38.9c2.5,2.3,4.9,3.5,7.2,3.5c1.1,0,2.2-0.4,3-1.1c0.8-0.6,1.2-1.6,1.2-2.6c0-0.8-0.3-1.6-0.9-2.2
	c-1-0.9-2.1-1.6-3.4-2.2c-2-0.9-3.8-2.1-5.3-3.7c-1.3-1.4-1.9-3.3-1.9-5.2c0-2.6,1-5,2.9-6.8c2.1-1.9,4.8-2.9,7.6-2.8
	c2.4,0,4.7,0.6,6.8,1.7v7.7c-2.1-2-4.1-2.9-6-2.9c-0.9,0-1.8,0.3-2.5,0.8c-0.6,0.5-1,1.2-1,2c0,0.8,0.3,1.5,0.9,2
	c0.9,0.8,2,1.4,3.1,1.8c2.1,0.8,4,2.1,5.6,3.7c1.3,1.6,2,3.6,1.9,5.6c0,2.9-1.2,5.7-3.3,7.6c-2.2,2.1-5.1,3.2-8.1,3.2
	c-2.8-0.1-5.5-0.8-8-2.2L162.8,38.9L162.8,38.9z"/>
<path class="st0" d="M87.8,55.3c1.9-0.1,3.7,0.8,4.9,2.3c1.3,1.8,1.9,4,1.8,6.2c0.1,2.2-0.5,4.4-1.8,6.3c-1.1,1.5-2.8,2.4-4.7,2.3
	c-1.9,0.1-3.6-0.9-4.6-2.4c-1.1-1.8-1.7-3.9-1.6-6.1c0-1.5,0.2-3.1,0.8-4.5c0.4-1.2,1.2-2.2,2.2-3C85.7,55.7,86.8,55.3,87.8,55.3
	 M88.3,58.8c-0.8,0-1.6,0.6-1.8,1.3c-0.5,1.2-0.7,2.4-0.6,3.7c-0.1,1.3,0.2,2.5,0.6,3.7c0.2,0.8,0.9,1.3,1.7,1.4
	c0.7,0,1.3-0.5,1.7-1.4c0.5-1.2,0.7-2.4,0.7-3.7c0.1-1.3-0.2-2.5-0.7-3.7C89.4,59.3,88.9,58.8,88.3,58.8"/>
<path class="st3" d="M87.3,54.5c1.9-0.1,3.7,0.8,4.9,2.3c1.3,1.8,1.9,4,1.8,6.2c0.1,2.2-0.5,4.4-1.8,6.3c-1.1,1.5-2.8,2.4-4.7,2.3
	c-1.9,0.1-3.6-0.9-4.6-2.4c-1.1-1.8-1.7-3.9-1.6-6.1c0-1.5,0.2-3.1,0.8-4.5c0.4-1.2,1.2-2.2,2.2-3C85.2,55,86.2,54.6,87.3,54.5
	 M87.7,58.1c-0.8,0-1.6,0.6-1.8,1.3c-0.5,1.2-0.7,2.4-0.6,3.7c-0.1,1.3,0.2,2.5,0.6,3.7c0.2,0.8,0.9,1.3,1.7,1.3
	c0.7,0,1.3-0.5,1.7-1.4c0.5-1.2,0.7-2.4,0.7-3.7c0.1-1.3-0.2-2.5-0.7-3.7C88.9,58.5,88.3,58.1,87.7,58.1"/>
<path class="st0" d="M80.8,71.7C80,72.1,79,72.4,78,72.4c-1.9,0-3.6-0.9-4.6-2.4c-1.2-1.8-1.8-3.9-1.7-6.1c0-1.4,0.2-2.9,0.7-4.3
	c0.4-1.3,1.2-2.4,2.3-3.2c1-0.8,2.2-1.2,3.5-1.2c0.9,0,1.8,0.2,2.6,0.6v4.1c-0.5-0.6-1.3-1.1-2.1-1.2c-0.9,0-1.8,0.5-2.2,1.4
	c-0.6,1.2-0.9,2.6-0.8,3.9c-0.1,1.2,0.2,2.5,0.8,3.5c0.4,0.8,1.2,1.3,2.1,1.3c0.8-0.1,1.5-0.4,2.2-0.9L80.8,71.7L80.8,71.7z"/>
<path class="st3" d="M80.2,70.9c-0.9,0.4-1.8,0.7-2.8,0.7c-1.8,0-3.6-0.9-4.6-2.4c-1.2-1.8-1.8-3.9-1.7-6c0-1.4,0.2-2.9,0.7-4.2
	c0.4-1.3,1.2-2.4,2.3-3.2c1-0.8,2.2-1.2,3.5-1.2c0.9,0,1.8,0.2,2.6,0.6v3.8c-0.5-0.6-1.3-0.9-2.1-0.9c-0.9,0-1.8,0.5-2.2,1.4
	c-0.6,1.2-0.9,2.6-0.8,3.9c-0.1,1.2,0.2,2.4,0.8,3.5c0.4,0.8,1.2,1.3,2.1,1.3c0.8-0.1,1.5-0.4,2.1-0.9L80.2,70.9L80.2,70.9z"/>
<path class="st0" d="M96.3,55.3h4.4l2.4,6.6l2.4-6.6h4.4v17.1H106V66c0-1.6,0.1-3.3,0.2-4.9h-0.3c-0.3,1.2-0.6,2.3-1,3.4l-1.8,5
	l-1.7-5c-0.4-1.1-0.7-2.3-1-3.4h-0.3c0.1,1.5,0.2,3.2,0.2,4.9v6.4h-3.9L96.3,55.3L96.3,55.3z"/>
<path class="st3" d="M95.6,54.6h4.3l2.4,6.5l2.4-6.5h4.4v17h-3.9v-6.4c0-1.6,0.1-3.3,0.2-4.9h-0.3c-0.3,1.1-0.6,2.3-1,3.4l-1.8,5
	l-1.7-5c-0.4-1.1-0.7-2.2-1-3.4h-0.3c0.1,1.5,0.2,3.2,0.2,4.9v6.4h-3.9L95.6,54.6L95.6,54.6z"/>
<path class="st0" d="M112.1,55.3h6.1c1.3-0.1,2.7,0.4,3.7,1.3c0.9,1,1.4,2.3,1.3,3.6c0,0.8-0.1,1.7-0.4,2.4c-0.3,0.9-1,1.6-1.8,2.1
	c-1,0.6-2.2,0.9-3.5,0.9h-1.3v6.8h-4L112.1,55.3L112.1,55.3z M116.1,58.6v3.7h0.9c0.6,0,1.1-0.2,1.6-0.5c0.4-0.4,0.6-0.9,0.6-1.4
	c0-0.5-0.1-0.9-0.4-1.3c-0.4-0.3-0.9-0.5-1.3-0.4L116.1,58.6L116.1,58.6z"/>
<path class="st3" d="M111.2,54.6h6.1c1.3-0.1,2.7,0.4,3.6,1.3c0.9,1,1.4,2.3,1.3,3.6c0,0.8-0.2,1.6-0.4,2.4c-0.3,0.9-1,1.6-1.8,2.1
	c-1,0.6-2.2,0.9-3.4,0.9h-1.3v6.8h-4V54.6z M115.2,57.9v3.6h0.9c0.6,0,1.1-0.2,1.6-0.5c0.4-0.4,0.6-0.9,0.6-1.4
	c0-0.5-0.1-0.9-0.4-1.3c-0.4-0.3-0.8-0.5-1.3-0.4L115.2,57.9z"/>
<path class="st0" d="M126.3,55.3h4.1l4.5,17.1h-4.5l-0.6-3.4h-3.3l-0.6,3.4h-4.1L126.3,55.3L126.3,55.3z M128.2,59.9l-1.1,6h2.2
	L128.2,59.9L128.2,59.9z"/>
<path class="st3" d="M125.3,54.6h3.9l4.5,17h-4.3l-0.6-3.4h-3.3l-0.6,3.4h-4.1L125.3,54.6L125.3,54.6z M127.2,59.2l-1.1,5.9h2.2
	L127.2,59.2z"/>
<path class="st0" d="M135.9,55.3h4.1l2,5.4c0.6,1.6,1,3,1.3,4.2h0.2l-0.1-2.9v-6.7h3.7v17.1h-4l-2-5.4c-0.6-1.6-1-3-1.3-4.2h-0.2
	l0.1,2.9v6.7h-3.8L135.9,55.3L135.9,55.3z"/>
<path class="st3" d="M134.9,54.6h4l1.9,5.4c0.6,1.6,1,3,1.3,4.2h0.2l-0.1-2.9v-6.7h3.8v17h-4l-1.9-5.4c-0.6-1.6-1-3-1.3-4.2h-0.2
	l0.1,2.9v6.7h-3.8L134.9,54.6L134.9,54.6z"/>
<path class="st0" d="M148.5,55.3h4.5l1.5,5.4l1.4-5.4h4.6l-4,9.3v7.9h-4v-7.9"/>
<path class="st3" d="M147.4,54.6h4.5l1.4,5.4l1.4-5.4h4.5l-4,9.2v7.8h-4v-7.8"/>
<path class="st0" d="M68.4,64.5c0,5.7-4.6,10.3-10.3,10.2c-5.7,0-10.3-4.6-10.2-10.3c0-5.7,4.6-10.2,10.3-10.2
	C63.8,54.1,68.4,58.7,68.4,64.5C68.4,64.4,68.4,64.4,68.4,64.5"/>
<path class="st1" d="M67.8,63.2c0,5.7-4.6,10.3-10.3,10.3c-5.7,0-10.3-4.6-10.3-10.3s4.6-10.3,10.3-10.3c0,0,0,0,0,0
	C63.2,52.9,67.8,57.5,67.8,63.2"/>
<path class="st0" d="M60.3,67.8c-0.2-0.6,0.1-1.7-0.5-1.4c-0.6,0.2-0.9,0.9-0.7,1.4c0,0,0,0,0,0l0.2,0.4c-0.4,0.3-0.8,0.4-1.3,0.4
	c-1.4,0-2.6-1.2-2.6-2.6s1.2-2.6,2.6-2.6h0.9v-2.2h-0.9c-0.8,0-1.5-0.7-1.5-1.5c0-0.8,0.7-1.5,1.5-1.5c0.7,0,1.3,0.5,1.4,1.2l0,0
	c0,0.6,0.5,1.1,1.1,1.1c0.4,0,0.8-0.2,1-0.6l0,0v-0.1c0.1-0.2,0.1-0.3,0.1-0.5c0-0.8-0.3-1.5-0.7-2.1c-0.7-0.9-1.8-1.4-2.9-1.3
	c-2,0-3.7,1.7-3.7,3.7l0,0c0,0.8,0.3,1.6,0.8,2.3l0.1,0.1l-0.1,0.1c-2.1,1.6-2.5,4.6-0.9,6.7c0.9,1.2,2.3,1.9,3.8,1.9
	c0.9,0,1.8-0.2,2.6-0.7C60.3,69.3,61.2,70.3,60.3,67.8"/>
<path class="st3" d="M60.6,66.5c-0.2-0.6-0.9-0.9-1.5-0.6c-0.6,0.2-0.9,0.9-0.6,1.4l0.2,0.4c-1.2,0.8-2.7,0.4-3.5-0.7
	c-0.3-0.4-0.4-0.9-0.4-1.4c0-1.4,1.2-2.6,2.6-2.6h0.9v-2.2h-0.9c-0.8,0-1.5-0.7-1.5-1.5c0-0.8,0.7-1.5,1.5-1.5
	c0.7,0,1.3,0.5,1.4,1.2l0,0c0,0.6,0.5,1.1,1.1,1.1c0.4,0,0.8-0.2,1-0.6l0,0v-0.1c0.1-0.2,0.1-0.3,0.1-0.5c0-0.8-0.3-1.5-0.7-2.1
	c-0.7-0.9-1.8-1.3-2.9-1.3c-2,0-3.7,1.7-3.7,3.7c0,0.8,0.3,1.6,0.8,2.3l0.1,0.1l-0.1,0.1c-2.1,1.6-2.5,4.6-0.9,6.7
	c0.9,1.2,2.3,1.9,3.8,1.9c0.9,0,1.7-0.3,2.5-0.7c0.8,1,1.8,1.8,3,2.3c0.7-0.5,1.4-1,2-1.6c-1.9-0.6-3.5-2-4.3-3.8"/>
<path class="st0" d="M162.6,55.3c0.4,0,0.7,0.1,1,0.4c0.3,0.3,0.4,0.6,0.4,1c0,0.8-0.6,1.4-1.4,1.4s-1.4-0.6-1.4-1.4l0,0
	c0-0.3,0.1-0.5,0.2-0.7c0.1-0.2,0.3-0.4,0.5-0.5C162.1,55.4,162.3,55.3,162.6,55.3 M162.6,55.6c-0.6,0-1.1,0.5-1.1,1.1c0,0,0,0,0,0
	c0,0.6,0.5,1.1,1.1,1.1s1.1-0.5,1.1-1.1C163.7,56.1,163.2,55.6,162.6,55.6 M162,57.4V56h0.7c0.1,0,0.3,0,0.4,0.1
	c0.1,0.1,0.1,0.2,0.1,0.3c0,0.1,0,0.2-0.1,0.3c-0.1,0.1-0.2,0.1-0.3,0.1c0.1,0,0.1,0,0.1,0.1c0.1,0.1,0.1,0.2,0.2,0.3l0.2,0.3h-0.4
	l-0.1-0.2c0-0.1-0.1-0.2-0.2-0.3c-0.1-0.1-0.1-0.1-0.2-0.1h-0.1v0.6L162,57.4L162,57.4z M162.3,56.6h0.2c0.1,0,0.2,0,0.3,0
	c0.1,0,0.1-0.1,0.1-0.2c0-0.1,0-0.1-0.1-0.1c-0.1,0-0.2,0-0.2,0h-0.3V56.6L162.3,56.6z"/>
</svg>
