<?xml version="1.0" encoding="utf-8"?>
<!-- Generator: Adobe Illustrator 21.1.0, SVG Export Plug-In . SVG Version: 6.00 Build 0)  -->
<svg version="1.1" id="Layer_1" xmlns="http://www.w3.org/2000/svg" xmlns:xlink="http://www.w3.org/1999/xlink" x="0px" y="0px"
	 viewBox="0 0 180.9 61.3" style="enable-background:new 0 0 180.9 61.3;" xml:space="preserve">
<style type="text/css">
	.st0{fill:#016F51;}
	.st1{fill:#FDFDFD;}
	.st2{fill:#C51733;}
	.st3{fill:#6E3F05;}
	.st4{fill:#FBE48F;}
</style>
<title>Grocery</title>
<path class="st0" d="M180.4,23.6c0,12.2,0,24.5,0,36.7c0,0.4-0.1,0.4-0.4,0.4H1c-0.4,0-0.5-0.1-0.5-0.4c0-12.1,0-24.3,0-36.4l24,0.1
	c0.4,0,0.5-0.1,0.5-0.5c0-1.9,0-3.9,0-5.8c0-0.4,0.1-0.5,0.5-0.5c2.2,0,4.5,0,6.7,0c5.2,0,10.4,0,15.5,0c0.4,0,0.5-0.2,0.5-0.5
	c0-1.9,0-3.7,0-5.6c0-0.3,0.1-0.6,0.4-0.8c3.2-1.8,6.6-3.4,10.2-4.6c8.3-2.8,16.9-4.5,25.7-5c0.7,0,1.4,0,2.1-0.2h8.3
	c0.1,0.1,0.2,0.1,0.3,0.1c2,0.1,4,0.3,6,0.5c3.9,0.5,7.8,1.2,11.7,2.2c7,1.7,13.7,4.1,20.2,7.2c0.3,0.1,0.5,0.4,0.4,0.7
	c0,1.8,0,3.5,0,5.3c0,0.4,0.1,0.6,0.6,0.6h22.4c0.5,0,0.6,0.1,0.6,0.6c0,1.8,0,3.6,0,5.4c0,0.4,0.1,0.5,0.5,0.5h22.6L180.4,23.6z
	 M152.1,57.2L152.1,57.2h24.2c0.4,0,0.5-0.1,0.5-0.5c0-1,0-1.9,0-2.9c0-8.7,0-17.5,0-26.2c0-0.4-0.1-0.4-0.5-0.4c-1.8,0-3.7,0-5.5,0
	h-17.3c-0.4,0-0.5-0.1-0.5-0.5c0-1.8,0-3.6,0-5.4c0-0.5-0.1-0.6-0.6-0.6c-7.4,0-14.8,0-22.1,0c-0.5,0-0.6-0.2-0.6-0.6c0-2,0-4,0-5.9
	c0-0.4-0.2-0.7-0.5-0.8c-3.8-1.9-7.8-3.5-11.8-4.8c-7.9-2.5-16-3.9-24.2-4.3c-4.6-0.2-9.3,0-13.9,0.6C75,5.4,70.8,6.3,66.7,7.5
	c-5.1,1.4-10.1,3.3-14.8,5.6c-0.4,0.1-0.6,0.5-0.5,0.8c0,2,0,4.1,0,6.1c0,0.4-0.1,0.5-0.5,0.5H29c-0.4,0-0.5,0.1-0.5,0.5
	c0,2,0,4.1,0,6.1c0,0.3,0,0.4-0.4,0.4c-0.8,0-1.6,0-2.4,0H5.4H5.3c-0.4-0.1-0.5,0.1-0.5,0.5c0,1.9,0,3.7,0,5.6c0,3.1,0,6.3-0.1,9.4
	c0,4.4,0,8.9,0,13.3c0,0.4,0.1,0.6,0.5,0.6c7.8,0,15.6,0,23.4,0c6.6,0,13.3,0,19.9,0s13.4,0,20.1,0h39.7c6.6,0,13.2,0,19.7,0
	C136.1,57.2,144.1,57.2,152.1,57.2L152.1,57.2z"/>
<path class="st1" d="M152.1,57.2c-8,0-16,0-24,0c-6.6,0-13.2,0-19.7,0H68.6c-6.7,0-13.4,0-20.1,0s-13.3,0-19.9,0
	c-7.8,0-15.6,0-23.4,0c-0.5,0-0.5-0.1-0.5-0.6c0-4.4,0-8.9,0-13.3c0-3.1,0-6.3,0.1-9.4c0-1.9,0-3.7,0-5.6c0-0.4,0.1-0.5,0.5-0.5h0.1
	h20.4c0.8,0,1.6,0,2.4,0c0.3,0,0.4-0.1,0.4-0.4c0-2,0-4.1,0-6.1c0-0.4,0.1-0.5,0.5-0.5h21.7c0.4,0,0.5-0.1,0.5-0.5c0-2,0-4.1,0-6.1
	c0-0.4,0.2-0.7,0.5-0.8c4.8-2.3,9.7-4.2,14.8-5.6c4.1-1.2,8.3-2.1,12.5-2.6c4.6-0.6,9.3-0.8,13.9-0.6c8.2,0.4,16.4,1.8,24.2,4.3
	c4.1,1.3,8,2.8,11.8,4.8c0.3,0.1,0.5,0.4,0.5,0.8c0,2,0,4,0,5.9c0,0.5,0.1,0.6,0.6,0.6c7.4,0,14.8,0,22.1,0c0.5,0,0.6,0.1,0.6,0.6
	c0,1.8,0,3.6,0,5.4c0,0.4,0.1,0.5,0.5,0.5h17.4c1.8,0,3.7,0,5.5,0c0.4,0,0.5,0.1,0.5,0.4c0,8.7,0,17.5,0,26.2c0,1,0,1.9,0,2.9
	c0,0.4-0.1,0.5-0.5,0.5h-24.2V57.2z M90.6,55.6h83.8c0.4,0,0.6-0.1,0.6-0.6c0-8.5,0-16.9,0-25.4c0-0.5-0.1-0.6-0.6-0.6
	c-7.6,0-15.2,0-22.8,0c-0.4,0-0.5-0.1-0.5-0.5c0-1.8,0-3.6,0-5.4c0-0.5-0.1-0.6-0.6-0.6h-22.1c-0.5,0-0.6-0.2-0.6-0.6
	c0-2.2,0-4.5,0-6.7c0-0.3-0.1-0.6-0.4-0.7c-3.9-1.9-8-3.5-12.1-4.8c-8.9-3-18.3-4.3-27.8-4C81.1,6,74.5,7.1,68.2,9
	c-5,1.4-9.9,3.2-14.7,5.3c-0.4,0.1-0.6,0.5-0.5,0.8c0,2.3,0,4.6,0,6.9c0,0.7,0.1,0.6-0.6,0.6c-7.2,0-14.4,0-21.6,0
	c-0.5,0-0.6,0.2-0.6,0.6c0,1.8,0,3.5,0,5.3c0,0.5-0.1,0.6-0.6,0.6c-7.5,0-15.1,0-22.6,0c-0.7,0-0.6-0.1-0.6,0.6c0,8.5,0,16.9,0,25.4
	c0,0.5,0.1,0.5,0.6,0.5L90.6,55.6z"/>
<path class="st2" d="M90.6,55.6H6.9c-0.4,0-0.6-0.1-0.6-0.5c0-8.5,0-16.9,0-25.4C6.3,29,6.2,29,7,29c7.5,0,15.1,0,22.6,0
	c0.5,0,0.6-0.1,0.6-0.6c0-1.8,0-3.5,0-5.3c0-0.4,0.1-0.6,0.6-0.6c7.2,0,14.4,0,21.6,0c0.7,0,0.6,0.1,0.6-0.6c0-2.3,0-4.6,0-6.9
	c-0.1-0.4,0.2-0.7,0.5-0.8c4.8-2.1,9.7-3.8,14.7-5.3c6.4-1.8,12.9-2.9,19.5-3.2c9.4-0.3,18.8,1,27.8,4c4.1,1.4,8.2,3,12.1,4.8
	c0.3,0.1,0.4,0.4,0.4,0.7c0,2.2,0,4.5,0,6.7c0,0.4,0.1,0.6,0.6,0.6h22.1c0.5,0,0.6,0.1,0.6,0.6c0,1.8,0,3.6,0,5.4
	c0,0.4,0.1,0.5,0.5,0.5c7.6,0,15.2,0,22.8,0c0.5,0,0.6,0.1,0.6,0.6c0,8.5,0,16.9,0,25.4c0,0.5-0.1,0.6-0.6,0.6L90.6,55.6z
	 M90.6,53.9h82.1c0.4,0,0.5-0.1,0.5-0.5c0-7.4,0-14.8,0-22.2c0-0.4-0.1-0.6-0.6-0.6h-23.1c-0.4,0-0.5-0.1-0.5-0.5c0-1.7,0-3.4,0-5.1
	c0-0.4-0.1-0.6-0.6-0.6h-21.8c-0.4,0-0.5-0.1-0.5-0.5c0-2.5,0-5,0-7.6c0-0.3-0.1-0.6-0.5-0.7c-2.5-1.1-5-2.2-7.6-3.1
	c-7.8-3-16-4.8-24.4-5.2C87.7,7.2,81.5,7.7,75.4,9c-6.9,1.4-13.6,3.6-20,6.4c-0.3,0.1-0.4,0.3-0.4,0.6c0,2.6,0,5.2,0,7.8
	c0,0.5-0.1,0.6-0.6,0.6c-7.4,0-14.7,0-22.1,0c-0.4,0-0.5,0.1-0.5,0.5c0,1.9,0,3.7,0,5.6c0,0.5-0.2,0.6-0.6,0.5H8.6
	c-0.5,0-0.6,0.1-0.6,0.6c0,7.2,0,14.5,0,21.7C8,54.1,7.9,54,8.6,54L90.6,53.9z"/>
<path class="st1" d="M90.6,54h-82C8,54,8,54.1,8,53.3c0-7.2,0-14.5,0-21.7C8,31.1,8.2,31,8.6,31h22.7c0.4,0,0.6-0.1,0.6-0.5
	c0-1.9,0-3.7,0-5.6c0-0.4,0.1-0.5,0.5-0.5c7.4,0,14.7,0,22.1,0c0.5,0,0.6-0.1,0.6-0.6c0-2.6,0-5.2,0-7.8c0-0.3,0.1-0.5,0.4-0.6
	c6.4-2.8,13.1-4.9,20-6.3c6.1-1.2,12.3-1.7,18.4-1.5c8.3,0.4,16.6,2.2,24.4,5.2c2.6,1,5.1,2,7.6,3.1c0.3,0.1,0.5,0.4,0.5,0.7
	c0,2.5,0,5,0,7.6c0,0.4,0.1,0.5,0.5,0.5h21.8c0.4,0,0.6,0.1,0.6,0.6c0,1.7,0,3.4,0,5.1c0,0.4,0.1,0.5,0.5,0.5h23.1
	c0.4,0,0.6,0.1,0.6,0.6c0,7.4,0,14.8,0,22.2c0,0.4-0.1,0.5-0.5,0.5L90.6,54z M74.9,23.3c-0.2,1.3-0.7,2.5-1.3,3.6
	c-0.3,0.6-0.7,1.1-1.2,1.5c-1.2,1.1-2.2,2.4-2.8,3.9c0.5-0.4,0.9-1,1.2-1.6c0.2-0.7,0.7-1.2,1.3-1.6c-0.1,1-0.4,2-1,2.8
	c0.7-0.4,1.1-1.1,1.2-1.8c0-0.4,0.2-0.7,0.4-1c0.4-0.6,0.8-1.1,1.3-1.6c0.9-1.1,1.7-2.2,2.3-3.5c0.4,0.6,0.9,1.2,1.5,1.7
	c1.7,1.4,3.7,2.5,5.8,3.1c4,1.3,8.1,1.8,12.3,1.6c3.4-0.1,6.7-0.7,9.9-1.9c2.2-0.7,4.3-2,5.9-3.8c0.8-0.9,1.3-2,1.4-3.3
	c0-1.6-0.7-3.1-1.9-4.2c-1.8-1.6-3.9-2.8-6.2-3.5c-4.2-1.3-8.6-1.8-13-1.5c-4.2,0.2-8.3,1.2-12,3.2c0.1-0.4,0.2-0.8,0.3-1.2
	c0.3-1.2,0-2.6-0.9-3.5c0-0.2-0.2-0.3-0.4-0.5c-0.4-0.5-1.2-0.5-1.7-0.1c-0.2,0.1-0.3,0.3-0.3,0.6c-0.2,0.4-0.3,0.9-0.2,1.3
	c0,1.1,0,2.2-0.1,3.3c0,0.3-0.1,0.3-0.4,0.4c-1,0.2-2,0.2-2.9,0.5c-0.8,0-1.5,0.2-2.2,0.6c-0.7,0.6-1.2,1.4-1.5,2.3
	c-0.4,0.6-0.2,1.3,0.3,1.7c0.1,0,0.1,0.1,0.2,0.1c0.4,0.2,0.7,0.4,1.1,0.7c-1.3,0.8-2.6,1.7-3.8,2.7c-0.3,0.2-0.6,0.5-0.7,0.9
	c-0.3,0.5-0.1,1.1,0.4,1.4c0,0,0.1,0,0.1,0.1c0.6,0.3,1.3,0.4,2,0.3c1.7-0.1,3.3-0.9,4.5-2.1C74,24.4,74.4,23.8,74.9,23.3z
	 M110.3,40.5c0.1,0.1,0.1,0.2,0.2,0.2c0.2,1.7,0.5,3.4,0.7,5.1c0.2,1.6,0.4,3.1,0.6,4.7c0,0.3,0.1,0.4,0.5,0.4c0.7,0,1.4,0,2.1,0
	c0.3,0,0.5-0.1,0.5-0.4c0.4-2.7,0.7-5.5,1.1-8.2c0-0.6,0.1-1.1,0.4-1.6c0.1,1.1,0.1,2.2,0.1,3.2c0,2.2,0.1,4.4,0.1,6.6
	c0,0.2,0,0.4,0.3,0.4c1,0,2,0,3,0c0.2,0,0.3,0,0.3-0.3c-0.1-0.9-0.1-1.8-0.2-2.7c-0.1-2.4-0.3-4.8-0.4-7.1c-0.1-1.9-0.3-3.8-0.4-5.6
	c0-0.3-0.1-0.3-0.3-0.3c-1.4,0-2.7,0-4,0c-0.2,0-0.3,0-0.4,0.3c-0.2,1.3-0.4,2.7-0.6,4l-0.5,3.7c-0.2-0.6-0.3-1.1-0.4-1.7
	c-0.3-2-0.6-4-0.9-5.9c0-0.2,0-0.3-0.3-0.3c-1.4,0-2.8,0-4.1,0c-0.2,0-0.3,0.1-0.3,0.3c-0.1,0.9-0.1,1.8-0.2,2.7
	c-0.2,2.4-0.3,4.8-0.4,7.2c-0.1,1.9-0.2,3.7-0.3,5.5c0,0.3,0.1,0.4,0.4,0.4c0.9,0,1.8,0,2.7,0c0.3,0,0.5-0.1,0.5-0.4
	c0-1.6,0.1-3.2,0.1-4.8S110.3,42.3,110.3,40.5L110.3,40.5z M18.3,42.7c-0.1-0.1-0.2-0.2-0.2-0.3c-0.6-2.4-1.2-4.8-1.8-7.2
	c-0.1-0.3-0.2-0.4-0.5-0.4c-1,0-2.1,0-3.1,0c-0.3,0-0.4,0-0.4,0.4c0,5.1,0,10.3,0,15.4c0,0.3,0.1,0.4,0.3,0.4c0.9,0,1.9,0,2.8,0
	c0.4,0,0.4-0.1,0.4-0.5c0-2.2,0-4.4,0-6.6c0-0.2-0.1-0.3,0.1-0.5c0.6,2.4,1.3,4.7,1.9,7c0.1,0.4,0.3,0.6,0.7,0.6c1,0,2,0,2.9,0
	c0.3,0,0.4-0.1,0.4-0.4c0-5.1,0-10.2,0-15.4c0-0.3-0.1-0.4-0.4-0.4c-0.9,0-1.8,0-2.7,0c-0.4,0-0.5,0.1-0.5,0.5
	C18.3,37.7,18.3,40.2,18.3,42.7L18.3,42.7z M53.9,42.8c0,2.5,0,5,0,7.6c0,0.4,0.1,0.5,0.5,0.5c1,0,2,0,3,0c0.3,0,0.4-0.1,0.4-0.4
	c0-1.6,0-3.1,0-4.7c0-1.1,0-1.1,1.2-1.1c0.4,0,0.5,0.1,0.5,0.4c0,1.8,0,3.6,0,5.4c0,0.3,0.1,0.4,0.4,0.4c1.1,0,2.1,0,3.2,0
	c0.3,0,0.4-0.1,0.4-0.4c0-5.1,0-10.2,0-15.4c0-0.3-0.1-0.4-0.4-0.4c-1.1,0-2.1,0-3.2,0c-0.3,0-0.4,0.1-0.4,0.4c0,1.4,0,2.8,0,4.2
	c0,1.2,0,1.1-1.2,1.2c-0.4,0-0.5-0.1-0.5-0.5c0-1.6,0-3.2,0-4.8c0-0.4-0.1-0.5-0.5-0.5c-1,0-1.9,0-2.9,0c-0.5,0-0.6,0.1-0.6,0.6
	C53.9,37.8,53.9,40.3,53.9,42.8L53.9,42.8z M44.4,50.8c-0.1-0.3-0.2-0.4-0.2-0.6c-0.8-2-1.6-4-2.3-6c-0.1-0.3-0.2-0.5,0.2-0.8
	c0.9-0.5,1.6-1.4,1.8-2.4c0.2-0.8,0.2-1.6,0.1-2.5c-0.3-2.2-2.1-3.8-4.3-3.8c-1.5,0-3.1,0-4.6,0c-0.3,0-0.4,0.1-0.4,0.4
	c0,5.1,0,10.2,0,15.4c0,0.4,0.1,0.4,0.4,0.4c1,0,2,0,3,0c0.4,0,0.5-0.1,0.5-0.5c0-1.6,0-3.2,0-4.8c0-0.1-0.1-0.3,0.1-0.5
	c0.1,0.1,0.1,0.3,0.1,0.4l1.4,4.9c0.1,0.2,0.1,0.4,0.4,0.4C41.8,50.8,43,50.8,44.4,50.8L44.4,50.8z M135.3,45L135.3,45
	c0.1,0.1,0.2,0.3,0.2,0.4c0.5,1.6,0.9,3.3,1.4,4.9c0.1,0.3,0.2,0.5,0.6,0.5c1.1,0,2.1,0,3.2,0c0.4,0,0.5-0.1,0.3-0.5
	c-0.8-2.1-1.6-4.2-2.4-6.3c-0.1-0.3-0.1-0.4,0.2-0.6c0.9-0.5,1.6-1.4,1.9-2.4c0.1-0.6,0.2-1.3,0.1-1.9c0-2.4-2-4.4-4.4-4.4
	c-1.5,0-3.1,0-4.6,0c-0.3,0-0.4,0.1-0.4,0.4c0,5.1,0,10.2,0,15.4c0,0.3,0.1,0.4,0.4,0.4c1,0,2,0,3,0c0.5,0,0.6-0.1,0.6-0.6
	C135.2,48.5,135.3,46.8,135.3,45L135.3,45z M33.5,42.8c0-0.3,0-0.7,0-1c0-1.6-0.4-3.1-1-4.5c-0.9-2.3-3.6-3.5-5.9-2.6
	c-0.2,0.1-0.3,0.1-0.5,0.2c-1.1,0.7-2,1.7-2.3,3c-0.9,2.8-1,5.7-0.3,8.5c0.2,1.4,0.9,2.7,1.9,3.6c1.9,1.6,4.8,1.3,6.4-0.6
	c0.3-0.4,0.5-0.7,0.7-1.2C33.2,46.6,33.5,44.7,33.5,42.8z M145.9,41.1c0-0.3,0-0.5,0-0.7c0-1.8,0-3.5,0-5.3c0-0.3,0-0.4-0.4-0.4
	c-1.1,0-2.1,0-3.2,0c-0.3,0-0.3,0.1-0.3,0.3c0,5.1,0,10.3,0,15.4c0,0.3,0.1,0.4,0.4,0.4c1,0,2,0,3,0c0.4,0,0.5-0.1,0.5-0.5
	c0-1.3,0-2.6,0-3.9c0-0.8,0-1.7,0-2.6c0.1,0.1,0.1,0.2,0.2,0.4c0.6,2.1,1.1,4.1,1.7,6.2c0.1,0.3,0.2,0.4,0.5,0.4c1.1,0,2.2,0,3.3,0
	c0.6,0,0.6,0,0.4-0.5c-0.9-2.6-1.7-5.1-2.6-7.7c-0.1-0.3-0.1-0.7,0-1c0.8-2,1.6-4.1,2.4-6.2c0.1-0.2,0.2-0.5,0.3-0.8
	c-1.3,0-2.5,0-3.7,0c-0.3,0-0.3,0.2-0.4,0.4c-0.5,1.7-1.1,3.4-1.6,5.1C146.2,40.5,146.1,40.8,145.9,41.1L145.9,41.1z M72.1,41.4
	c-0.7,0-1.4,0-2.1,0c-0.3,0-0.4,0.1-0.4,0.4c0,0.7,0,1.5,0,2.2s0,0.8,0.8,0.8c0.2,0,0.4-0.1,0.4,0.2c0,0.6-0.1,1.1-0.3,1.6
	c-0.2,0.4-0.7,0.6-1.2,0.3c-0.1-0.1-0.2-0.2-0.3-0.3c-0.2-0.3-0.3-0.6-0.3-0.9c-0.2-1.8-0.3-3.6-0.1-5.4c0-0.6,0.1-1.1,0.4-1.6
	c0.2-0.5,0.7-0.7,1.2-0.5c0.2,0.1,0.3,0.2,0.4,0.4c0.2,0.2,0.3,0.5,0.4,0.7c0.1,0.4,0.3,0.4,0.6,0.3c0.6-0.3,1.3-0.5,1.9-0.8
	c1.1-0.4,1.1-0.4,0.7-1.6c-0.5-1.5-1.9-2.6-3.4-2.7C68.8,34,67,34.8,66,36.3c-0.5,0.7-0.8,1.5-1,2.4c-0.5,2-0.6,4.1-0.4,6.2
	c0.1,1.4,0.5,2.8,1.3,4c1,1.7,3.1,2.5,5,2c1.5-0.3,2.7-1.4,3.1-2.9c0.6-2.1,0.9-4.3,0.7-6.5c0-0.3-0.2-0.2-0.3-0.2L72.1,41.4z
	 M125.5,34.7c-0.6,0-1.3,0-1.9,0c-0.2,0-0.3,0-0.4,0.3c-0.1,0.4-0.2,0.9-0.3,1.3c-0.9,4.7-1.8,9.4-2.7,14.1c-0.1,0.4,0,0.4,0.3,0.4
	c1,0,2.1,0,3.1,0c0.3,0,0.4-0.1,0.4-0.3c0.1-0.6,0.1-1.1,0.2-1.7c0-0.2,0.1-0.4,0.3-0.3c0.6,0,1.1,0,1.7,0c0.2,0,0.3,0.1,0.3,0.3
	c0,0.6,0.1,1.1,0.2,1.7c0,0.3,0.1,0.4,0.4,0.4c1,0,2.1,0,3.1,0c0.3,0,0.4,0,0.3-0.4c-0.4-1.9-0.7-3.9-1.1-5.8
	c-0.6-3.2-1.2-6.4-1.8-9.6c0-0.3-0.1-0.3-0.4-0.3C126.8,34.7,126.1,34.7,125.5,34.7L125.5,34.7z M83.2,50.8c0.5,0,1,0,1.5,0
	s0.5-0.1,0.4-0.5c-1-5.1-1.9-10.1-2.9-15.2c-0.1-0.4-0.2-0.4-0.5-0.4c-1.2,0-2.4,0-3.6,0c-0.4,0-0.5,0.1-0.5,0.5
	c-1,5.1-1.9,10.2-2.9,15.3c-0.1,0.3,0,0.4,0.3,0.4c1,0,2.1,0,3.1,0c0.3,0,0.4-0.1,0.4-0.4c0.1-0.6,0.2-1.2,0.2-1.7
	c0-0.2,0.1-0.3,0.3-0.3c0.6,0,1.1,0,1.7,0c0.3,0,0.3,0.1,0.4,0.4c0.1,0.6,0.2,1.1,0.2,1.7c0,0.3,0.1,0.3,0.4,0.3L83.2,50.8z
	 M93.8,42.8c0,2.5,0,5.1,0,7.6c0,0.2,0,0.4,0.3,0.4c2.1,0,4.2,0,6.3,0c0.3,0,0.3-0.1,0.3-0.3c0-1.2,0-2.3,0-3.5
	c0-0.3-0.1-0.4-0.4-0.4c-0.8,0-1.5,0-2.3,0c-0.3,0-0.4-0.1-0.3-0.3c0-0.5,0-1,0-1.5c0-0.3,0.1-0.4,0.4-0.4c0.7,0,1.3,0,2,0
	c0.2,0,0.4,0,0.3-0.3c0-1.1,0-2.1,0-3.2c0-0.3-0.1-0.3-0.4-0.3c-0.6,0-1.3,0-1.9,0c-0.3,0-0.4-0.1-0.4-0.4c0-0.4,0-0.8,0-1.3
	c0-0.3,0.1-0.4,0.4-0.4c0.7,0,1.5,0,2.2,0c0.3,0,0.4-0.1,0.4-0.4c0-1,0-2.1,0-3.1c0-0.3-0.1-0.4-0.4-0.4c-2,0-4,0-6.1,0
	c-0.4,0-0.4,0.1-0.4,0.5C93.8,37.7,93.8,40.2,93.8,42.8L93.8,42.8z M152.7,42.8c0,2.6,0,5.1,0,7.7c0,0.3,0,0.4,0.4,0.4
	c2.1,0,4.2,0,6.2,0c0.3,0,0.4-0.1,0.4-0.4c0-1.1,0-2.3,0-3.5c0-0.3-0.1-0.4-0.4-0.4c-0.8,0-1.5,0-2.3,0c-0.3,0-0.4-0.1-0.3-0.3
	c0-0.5,0-1,0-1.5c0-0.3,0.1-0.4,0.4-0.3c0.7,0,1.3,0,2,0c0.3,0,0.4-0.1,0.4-0.4c0-1,0-2.1,0-3.1c0-0.3-0.1-0.4-0.4-0.4
	c-0.7,0-1.4,0-2,0c-0.2,0-0.3-0.1-0.3-0.3c0-0.4,0-0.9,0-1.3s0.1-0.4,0.4-0.4c0.7,0,1.5,0,2.2,0c0.3,0,0.4-0.1,0.4-0.4
	c0-1,0-2.1,0-3.1c0-0.3-0.1-0.4-0.4-0.4c-2,0-4,0-6.1,0c-0.3,0-0.4,0.1-0.4,0.4C152.7,37.7,152.7,40.2,152.7,42.8L152.7,42.8z
	 M86.8,44.9c0,1.9,0,3.7,0,5.6c0,0.4,0.1,0.4,0.4,0.4c1,0,2,0,3,0c0.4,0,0.5-0.1,0.5-0.5c0-1.6,0-3.3,0-4.9c0-2.1,0-4.1,0-6.2
	c0-0.4,0.1-0.5,0.5-0.4s1,0,1.5,0c0.3,0,0.4-0.1,0.3-0.4c0-1.1,0-2.3,0-3.4c0-0.2,0-0.3-0.3-0.3c-2.7,0-5.3,0-7.9,0
	c-0.3,0-0.3,0.1-0.3,0.3c0,1.2,0,2.3,0,3.5c0,0.3,0.1,0.3,0.3,0.3c0.5,0,1.1,0,1.6,0c0.3,0,0.4,0.1,0.4,0.4
	C86.8,41.1,86.8,43,86.8,44.9L86.8,44.9z M46.8,44.9c0,1.9,0,3.7,0,5.6c0,0.4,0.1,0.5,0.5,0.4c1,0,1.9,0,2.9,0
	c0.4,0,0.6-0.1,0.6-0.5c0-3.7,0-7.4,0-11.1c0-0.3,0.1-0.4,0.4-0.4c0.5,0,1,0,1.6,0c0.3,0,0.4,0,0.4-0.3c0-1.1,0-2.3,0-3.4
	c0-0.3-0.1-0.4-0.3-0.4h-7.9c-0.2,0-0.3,0-0.3,0.3c0,1.1,0,2.3,0,3.5c0,0.3,0.1,0.3,0.3,0.3c0.5,0,1,0,1.5,0s0.6,0.1,0.5,0.5
	C46.8,41.2,46.8,43,46.8,44.9L46.8,44.9z M162.5,44.9c0,1.8,0,3.6,0,5.5c0,0.5,0.1,0.6,0.6,0.6c0.9,0,1.9,0,2.8,0
	c0.4,0,0.5-0.1,0.5-0.5c0-3.7,0-7.3,0-11c0-0.4,0.1-0.5,0.5-0.5s1,0,1.6,0c0.2,0,0.3-0.1,0.3-0.3c0-1.2,0-2.4,0-3.6
	c0-0.2-0.1-0.3-0.3-0.3h-8c-0.2,0-0.3,0.1-0.3,0.3c0,1.2,0,2.3,0,3.5c0,0.2,0.1,0.3,0.3,0.3c0.5,0,1,0,1.6,0c0.4,0,0.5,0.1,0.5,0.4
	C162.5,41.1,162.5,43,162.5,44.9L162.5,44.9z"/>
<path class="st0" d="M110.3,40.5c0,1.8-0.1,3.5-0.1,5.2s-0.1,3.2-0.1,4.8c0,0.4-0.1,0.4-0.5,0.4c-0.9,0-1.8,0-2.7,0
	c-0.3,0-0.4-0.1-0.4-0.4c0.1-1.9,0.2-3.7,0.3-5.5c0.1-2.4,0.3-4.8,0.4-7.2c0.1-0.9,0.1-1.8,0.2-2.7c0-0.2,0.1-0.3,0.3-0.3
	c1.4,0,2.8,0,4.1,0c0.3,0,0.3,0.1,0.3,0.3c0.3,2,0.6,4,0.9,5.9c0.1,0.6,0.2,1.1,0.4,1.7l0.5-3.7c0.2-1.3,0.4-2.7,0.6-4
	c0-0.3,0.1-0.3,0.4-0.3c1.4,0,2.7,0,4,0c0.3,0,0.3,0.1,0.3,0.3c0.1,1.9,0.2,3.8,0.4,5.6c0.1,2.4,0.3,4.8,0.4,7.1
	c0.1,0.9,0.1,1.8,0.2,2.7c0,0.3-0.1,0.3-0.3,0.3c-1,0-2,0-3,0c-0.3,0-0.3-0.2-0.3-0.4c0-2.2-0.1-4.4-0.1-6.6c0-1.1,0-2.2-0.1-3.2
	c-0.2,0.5-0.3,1-0.4,1.6c-0.4,2.7-0.7,5.5-1.1,8.2c0,0.3-0.2,0.4-0.5,0.4c-0.7,0-1.4,0-2.1,0c-0.4,0-0.4-0.1-0.5-0.4
	c-0.2-1.6-0.4-3.1-0.6-4.7c-0.2-1.7-0.5-3.4-0.7-5.1C110,38.1,110.4,40.6,110.3,40.5z"/>
<path class="st0" d="M18.3,42.7c0-2.5,0-5,0-7.5c0-0.4,0.1-0.5,0.5-0.5c0.9,0,1.8,0,2.7,0c0.3,0,0.4,0.1,0.4,0.4
	c0,5.1,0,10.2,0,15.4c0,0.3-0.1,0.4-0.4,0.4c-1,0-2,0-2.9,0c-0.5,0-0.6-0.1-0.7-0.6c-0.6-2.4-1.3-4.7-1.9-7
	c-0.1,0.2-0.1,0.3-0.1,0.5c0,2.2,0,4.4,0,6.6c0,0.3,0,0.5-0.4,0.5c-0.9,0-1.9,0-2.8,0c-0.3,0-0.3-0.1-0.3-0.4c0-5.1,0-10.3,0-15.4
	c0-0.3,0.1-0.4,0.4-0.4c1,0,2.1,0,3.1,0c0.3,0,0.4,0.1,0.5,0.4c0.6,2.4,1.2,4.8,1.8,7.2C18.2,42.5,18.3,42.6,18.3,42.7z"/>
<path class="st0" d="M53.9,42.8c0-2.5,0-5,0-7.5c0-0.5,0.1-0.6,0.6-0.6c1,0,1.9,0,2.9,0c0.4,0,0.5,0.1,0.5,0.5c0,1.6,0,3.2,0,4.8
	c0,0.4,0.1,0.5,0.5,0.5c1.2,0,1.2,0,1.2-1.2c0-1.4,0-2.8,0-4.2c0-0.3,0.1-0.4,0.4-0.4c1.1,0,2.1,0,3.2,0c0.3,0,0.4,0.1,0.4,0.4
	c0,5.1,0,10.2,0,15.4c0,0.3-0.1,0.4-0.4,0.4c-1.1,0-2.1,0-3.2,0c-0.3,0-0.4-0.1-0.4-0.4c0-1.8,0-3.6,0-5.4c0-0.4-0.1-0.5-0.5-0.4
	c-1.2,0-1.2,0-1.2,1.1c0,1.6,0,3.1,0,4.7c0,0.3-0.1,0.4-0.4,0.4c-1,0-2,0-3,0c-0.4,0-0.5-0.1-0.5-0.5C53.9,47.8,53.9,45.3,53.9,42.8
	z"/>
<path class="st0" d="M44.4,50.8c-1.3,0-2.6,0-3.9,0c-0.3,0-0.3-0.2-0.4-0.4l-1.4-4.9c0-0.1-0.1-0.2-0.1-0.4
	c-0.1,0.2-0.1,0.3-0.1,0.5c0,1.6,0,3.2,0,4.8c0,0.4-0.1,0.5-0.5,0.5c-1,0-2,0-3,0c-0.3,0-0.4,0-0.4-0.4c0-5.1,0-10.2,0-15.4
	c0-0.3,0.1-0.4,0.4-0.4c1.5,0,3.1,0,4.6,0c2.2,0,4,1.7,4.3,3.8c0.1,0.8,0.1,1.7-0.1,2.5c-0.2,1-0.9,1.9-1.8,2.4
	c-0.4,0.2-0.4,0.4-0.2,0.8c0.8,2,1.6,4,2.3,6C44.3,50.4,44.3,50.6,44.4,50.8z M38.5,40c0,0.4,0,0.8,0,1.2c0,0.2-0.1,0.5,0.1,0.6
	c0.3,0.1,0.6,0,0.8-0.2c0.2-0.1,0.3-0.3,0.4-0.5c0.3-0.7,0.3-1.5,0-2.3c-0.1-0.4-0.5-0.6-0.9-0.7c-0.3,0-0.4,0-0.4,0.4
	S38.5,39.5,38.5,40z"/>
<path class="st0" d="M135.3,45.1c0,1.7,0,3.5,0,5.2c0,0.5-0.1,0.6-0.6,0.6c-1,0-2,0-3,0c-0.3,0-0.4-0.1-0.4-0.4c0-5.1,0-10.2,0-15.4
	c0-0.3,0.1-0.4,0.4-0.4c1.5,0,3.1,0,4.6,0c2.4,0,4.4,2,4.4,4.4c0.1,0.6,0,1.3-0.1,1.9c-0.3,1-0.9,1.9-1.9,2.4
	c-0.3,0.1-0.3,0.3-0.2,0.6c0.8,2.1,1.6,4.2,2.4,6.3c0.2,0.4,0.1,0.5-0.3,0.5c-1.1,0-2.1,0-3.2,0c-0.4,0-0.5-0.1-0.6-0.5
	c-0.4-1.6-0.9-3.3-1.4-4.9C135.4,45.3,135.3,45.2,135.3,45.1L135.3,45.1z M136.7,40c0-0.2,0-0.4,0-0.5c0-0.6-0.4-1.1-1-1.3
	c-0.3-0.1-0.5,0-0.5,0.4c0,0.9,0,1.9,0,2.8c0,0.7,0.2,0.8,0.8,0.4c0.2-0.1,0.4-0.3,0.5-0.5C136.7,40.8,136.8,40.4,136.7,40L136.7,40
	z"/>
<path class="st0" d="M33.5,42.8c0.1,1.9-0.3,3.8-1,5.5c-1,2.3-3.6,3.4-5.9,2.5c-0.4-0.2-0.8-0.4-1.2-0.7c-1-1-1.6-2.2-1.9-3.6
	c-0.7-2.8-0.5-5.8,0.3-8.5c0.4-1.3,1.2-2.3,2.3-3c2.2-1.2,5-0.3,6.1,1.9c0.1,0.1,0.1,0.3,0.2,0.4c0.6,1.4,1,3,1,4.5
	C33.5,42.1,33.5,42.5,33.5,42.8z M29.5,42.7c0-0.7,0-1.3,0-2c0-0.6-0.1-1.1-0.3-1.6c-0.1-0.4-0.5-0.7-0.9-0.7
	c-0.4,0-0.8,0.3-0.9,0.7c-0.1,0.3-0.2,0.6-0.2,0.8c-0.2,1.7-0.2,3.3-0.1,5c0,0.6,0.1,1.1,0.4,1.6c0.2,0.4,0.7,0.6,1.2,0.4
	c0.2-0.1,0.3-0.2,0.4-0.4c0.1-0.2,0.2-0.4,0.2-0.6C29.5,44.8,29.5,43.7,29.5,42.7z"/>
<path class="st0" d="M145.9,41.1c0.2-0.3,0.3-0.6,0.4-0.9c0.6-1.7,1.1-3.4,1.6-5.1c0.1-0.2,0.1-0.4,0.4-0.4c1.2,0,2.5,0,3.7,0
	c0,0.3-0.1,0.5-0.3,0.8c-0.8,2.1-1.6,4.1-2.4,6.2c-0.1,0.3-0.1,0.7,0,1c0.9,2.6,1.8,5.1,2.6,7.7c0.2,0.5,0.2,0.5-0.4,0.5
	c-1.1,0-2.2,0-3.3,0c-0.4,0-0.5-0.1-0.5-0.4c-0.6-2.1-1.1-4.1-1.7-6.2c0-0.1-0.1-0.2-0.2-0.4c0,0.9,0,1.8,0,2.6c0,1.3,0,2.6,0,3.9
	c0,0.4-0.1,0.6-0.5,0.5c-1,0-2,0-3,0c-0.3,0-0.4,0-0.4-0.4c0-5.1,0-10.3,0-15.4c0-0.3,0.1-0.3,0.3-0.3c1.1,0,2.1,0,3.2,0
	c0.3,0,0.4,0.1,0.4,0.4c0,1.8,0,3.5,0,5.3C145.9,40.6,145.9,40.8,145.9,41.1z"/>
<path class="st0" d="M72.1,41.4h2.1c0.2,0,0.3,0,0.3,0.2c0.2,2.2-0.1,4.4-0.7,6.5c-0.4,1.5-1.6,2.6-3.1,2.9c-1.9,0.5-4-0.3-5-2
	c-0.7-1.2-1.2-2.6-1.3-4c-0.3-2.1-0.1-4.2,0.4-6.2c0.2-0.8,0.5-1.6,1-2.4c1-1.5,2.8-2.3,4.6-1.9c1.6,0.2,2.9,1.2,3.4,2.7
	c0.5,1.1,0.5,1.1-0.7,1.6c-0.6,0.3-1.3,0.5-1.9,0.8c-0.3,0.1-0.5,0.2-0.6-0.3c-0.1-0.3-0.2-0.5-0.4-0.7c-0.3-0.4-0.8-0.6-1.3-0.3
	c-0.2,0.1-0.3,0.2-0.4,0.4c-0.2,0.5-0.4,1.1-0.4,1.6c-0.2,1.8-0.1,3.6,0.1,5.4c0,0.3,0.2,0.6,0.3,0.9c0.2,0.4,0.7,0.6,1.2,0.3
	c0.1-0.1,0.2-0.2,0.3-0.3c0.2-0.5,0.3-1,0.3-1.6c0-0.3-0.2-0.2-0.4-0.2c-0.8,0-0.8,0-0.8-0.8s0-1.5,0-2.2c0-0.3,0.1-0.4,0.4-0.4
	C70.7,41.4,71.4,41.4,72.1,41.4z"/>
<path class="st0" d="M125.5,34.7c0.6,0,1.3,0,1.9,0c0.2,0,0.3,0.1,0.4,0.3c0.6,3.2,1.2,6.4,1.8,9.6c0.4,1.9,0.7,3.9,1.1,5.8
	c0.1,0.3,0,0.4-0.3,0.4c-1,0-2.1,0-3.1,0c-0.3,0-0.4-0.1-0.4-0.4c0-0.6-0.1-1.1-0.2-1.7c0-0.2-0.1-0.3-0.3-0.3c-0.6,0-1.1,0-1.7,0
	c-0.3,0-0.3,0.1-0.3,0.3c0,0.6-0.1,1.1-0.2,1.7c0,0.3-0.1,0.4-0.4,0.3c-1,0-2.1,0-3.1,0c-0.3,0-0.4,0-0.3-0.4
	c0.9-4.7,1.8-9.4,2.7-14.1c0.1-0.4,0.2-0.9,0.3-1.3c0-0.3,0.1-0.3,0.4-0.3C124.2,34.7,124.9,34.7,125.5,34.7z M125.6,39.8
	c-0.1,0.2-0.1,0.2-0.1,0.3c-0.2,1.3-0.4,2.7-0.5,4c-0.1,1.2-0.1,1.2,1.1,1.1c0.2,0,0.3-0.1,0.3-0.3C126,43.3,125.8,41.6,125.6,39.8z
	"/>
<path class="st0" d="M83.2,50.8h-1.6c-0.2,0-0.3-0.1-0.4-0.3c0-0.6-0.1-1.1-0.2-1.7c0-0.3-0.1-0.4-0.4-0.4c-0.6,0-1.1,0-1.7,0
	c-0.2,0-0.3,0.1-0.3,0.3c-0.1,0.6-0.1,1.2-0.2,1.7c0,0.3-0.1,0.4-0.4,0.4c-1,0-2.1,0-3.1,0c-0.3,0-0.4-0.1-0.3-0.4
	c1-5.1,1.9-10.2,2.9-15.3c0.1-0.3,0.2-0.5,0.5-0.5c1.2,0,2.4,0,3.6,0c0.3,0,0.4,0,0.5,0.4c0.9,5.1,1.9,10.1,2.9,15.2
	c0.1,0.4,0,0.6-0.4,0.5S83.7,50.8,83.2,50.8z M80,39.8L80,39.8c-0.3,1.4-0.4,2.9-0.6,4.3c-0.2,1.1-0.2,1,0.9,1.1
	c0.4,0,0.5-0.1,0.4-0.5c-0.1-1-0.3-2.1-0.4-3.1C80.2,41,80.1,40.4,80,39.8z"/>
<path class="st0" d="M79.7,15.5c3.7-1.9,7.8-3,12-3.2c4.4-0.3,8.8,0.2,13,1.5c2.3,0.7,4.5,1.8,6.2,3.5c1.2,1,1.9,2.6,1.9,4.2
	c-0.1,1.2-0.5,2.4-1.4,3.3c-1.6,1.7-3.6,3-5.9,3.8c-3.2,1.1-6.5,1.8-9.9,1.9c-4.2,0.2-8.3-0.3-12.3-1.6c-2.1-0.6-4.1-1.7-5.8-3.1
	c-0.6-0.5-1-1.1-1.5-1.7c0.2-1.1,0.3-2.2,0.3-3.3l0.8-1.2c0.1,0.2,0,0.3-0.1,0.4c-0.6,1.4-0.3,3,0.7,4.1c0.6,0.7,1.3,1.3,2.1,1.8
	c2.4,1.4,5,2.3,7.7,2.7c3.1,0.5,6.2,0.7,9.3,0.4c2.9-0.2,5.7-0.8,8.4-1.8c1.7-0.6,3.3-1.6,4.6-2.8c1.7-1.6,1.7-4.2,0.2-5.8
	c0,0,0,0,0,0c-0.8-0.9-1.8-1.7-2.9-2.2c-2.7-1.3-5.7-2.2-8.7-2.4c-3.9-0.5-7.9-0.3-11.8,0.5c-3.2,0.7-6.3,1.7-8.5,4.2
	C78.6,17.4,79.2,16.5,79.7,15.5z"/>
<path class="st0" d="M93.8,42.8c0-2.5,0-5.1,0-7.6c0-0.4,0.1-0.5,0.4-0.5c2,0,4,0,6.1,0c0.4,0,0.4,0.1,0.4,0.4c0,1,0,2.1,0,3.1
	c0,0.3-0.1,0.4-0.4,0.4c-0.7,0-1.5,0-2.2,0c-0.3,0-0.4,0.1-0.4,0.4c0,0.4,0,0.8,0,1.3c0,0.3,0.1,0.4,0.4,0.4c0.6,0,1.3,0,1.9,0
	c0.3,0,0.4,0,0.4,0.3c0,1.1,0,2.1,0,3.2c0,0.3-0.1,0.3-0.3,0.3c-0.7,0-1.3,0-2,0c-0.3,0-0.4,0.1-0.4,0.4c0,0.5,0,1,0,1.5
	c0,0.3,0.1,0.3,0.3,0.3c0.8,0,1.5,0,2.3,0c0.3,0,0.4,0.1,0.4,0.4c0,1.2,0,2.3,0,3.5c0,0.3-0.1,0.3-0.3,0.3c-2.1,0-4.2,0-6.3,0
	c-0.4,0-0.3-0.2-0.3-0.4C93.8,47.9,93.8,45.3,93.8,42.8z"/>
<path class="st0" d="M152.7,42.7c0-2.5,0-5.1,0-7.6c0-0.3,0.1-0.4,0.4-0.4c2,0,4,0,6.1,0c0.3,0,0.4,0.1,0.4,0.4c0,1,0,2.1,0,3.1
	c0,0.3-0.1,0.4-0.4,0.4c-0.7,0-1.5,0-2.2,0c-0.3,0-0.4,0.1-0.4,0.4s0,0.9,0,1.3c0,0.2,0.1,0.3,0.3,0.3c0.7,0,1.4,0,2,0
	c0.3,0,0.4,0.1,0.4,0.4c0,1,0,2.1,0,3.1c0,0.3-0.1,0.4-0.4,0.4c-0.7,0-1.3,0-2,0c-0.3,0-0.4,0-0.4,0.3c0,0.5,0,1,0,1.5
	c0,0.3,0.1,0.3,0.3,0.3c0.8,0,1.5,0,2.3,0c0.3,0,0.4,0.1,0.4,0.4c0,1.1,0,2.3,0,3.5c0,0.3-0.1,0.4-0.4,0.4c-2.1,0-4.2,0-6.2,0
	c-0.3,0-0.4-0.1-0.4-0.4C152.7,47.9,152.7,45.3,152.7,42.7z"/>
<path class="st0" d="M86.8,44.8c0-1.9,0-3.8,0-5.6c0-0.3-0.1-0.4-0.4-0.4c-0.5,0-1.1,0-1.6,0c-0.2,0-0.3,0-0.3-0.3
	c0-1.2,0-2.3,0-3.5c0-0.3,0.1-0.3,0.3-0.3c2.7,0,5.3,0,7.9,0c0.3,0,0.3,0.1,0.3,0.3c0,1.1,0,2.3,0,3.4c0,0.3-0.1,0.4-0.3,0.4
	c-0.5,0-1,0-1.5,0s-0.5,0.1-0.5,0.4c0,2.1,0,4.1,0,6.2c0,1.6,0,3.3,0,4.9c0,0.4-0.1,0.5-0.5,0.5c-1,0-2,0-3,0
	c-0.3,0-0.4-0.1-0.4-0.4C86.8,48.6,86.8,46.7,86.8,44.8z"/>
<path class="st0" d="M46.8,44.8c0-1.8,0-3.7,0-5.5c0-0.4-0.1-0.6-0.5-0.5s-1,0-1.5,0c-0.3,0-0.3-0.1-0.3-0.3c0-1.1,0-2.3,0-3.5
	c0-0.3,0.1-0.3,0.3-0.3h7.9c0.3,0,0.3,0.1,0.3,0.4c0,1.1,0,2.3,0,3.4c0,0.3-0.1,0.4-0.4,0.3c-0.5,0-1,0-1.6,0
	c-0.3,0-0.4,0.1-0.4,0.4c0,3.7,0,7.4,0,11.1c0,0.5-0.1,0.6-0.6,0.5c-1,0-1.9,0-2.9,0c-0.4,0-0.5-0.1-0.5-0.4
	C46.8,48.5,46.8,46.7,46.8,44.8z"/>
<path class="st0" d="M162.5,44.8c0-1.9,0-3.7,0-5.6c0-0.4-0.1-0.5-0.5-0.4c-0.5,0-1,0-1.6,0c-0.2,0-0.3-0.1-0.3-0.3
	c0-1.2,0-2.3,0-3.5c0-0.2,0.1-0.3,0.3-0.3h8c0.2,0,0.3,0.1,0.3,0.3c0,1.2,0,2.4,0,3.6c0,0.2-0.1,0.3-0.3,0.3c-0.5,0-1,0-1.6,0
	s-0.5,0.1-0.5,0.5c0,3.7,0,7.3,0,11c0,0.4-0.1,0.6-0.5,0.5c-0.9,0-1.9,0-2.8,0c-0.4,0-0.6-0.1-0.6-0.6
	C162.6,48.4,162.5,46.6,162.5,44.8z"/>
<path class="st3" d="M73.1,16.3c1-0.3,1.9-0.3,2.9-0.5c0.3,0,0.4-0.1,0.4-0.4c0.1-1.1,0.1-2.2,0.1-3.3c0-0.5,0.1-0.9,0.2-1.3
	c0.2-0.6,0.8-1,1.4-0.8c0.2,0.1,0.4,0.2,0.6,0.3c0.2,0.1,0.4,0.2,0.4,0.5c-0.6,0-0.7,0.5-0.7,0.9c-0.1,1.2-0.3,2.4-0.7,3.5
	c-0.5,1.6-1.2,3.1-2.2,4.4c-1.1,1.2-2.2,2.2-3.6,3.1c-1,0.6-2,1.3-3,2.1c-0.9,0.9-0.9,1.4,0,2.3c-0.7,0.1-1.4,0-2-0.3
	c-0.5-0.2-0.8-0.8-0.6-1.3c0,0,0-0.1,0.1-0.1c0.2-0.3,0.4-0.6,0.7-0.9c1.2-1,2.5-1.9,3.8-2.7c1-0.6,2.1-1.3,3.2-1.9
	c0.4-0.2,0.4-0.4,0.2-0.8C73.8,18.1,73.4,17.2,73.1,16.3z"/>
<path class="st4" d="M69,27c-0.9-0.9-0.9-1.4,0-2.3c1-0.8,2-1.5,3-2.1c1.3-0.9,2.5-1.9,3.6-3.1c1-1.3,1.7-2.8,2.2-4.4
	c0.4-1.1,0.6-2.3,0.7-3.5c0-0.4,0.1-0.9,0.7-0.9c0.9,1,1.2,2.3,0.9,3.5c-0.1,0.4-0.2,0.8-0.3,1.2c-0.5,1-1.2,2-1.6,3
	c-0.3,0.3-0.5,0.6-0.7,1l-0.8,1.2c0-0.3,0-0.6,0.2-0.8c0.6-0.8,1.2-1.7,1.7-2.6c0.1-0.2,0.3-0.4,0.1-0.5s-0.3,0.1-0.5,0.2
	c-0.4,0.4-0.7,0.8-1.1,1.2c-0.8,1-1.5,2.1-2,3.3c-0.1,0.2-0.2,0.4,0,0.5s0.2,0.3,0.1,0.4S75,22.9,75,23.2c-0.5,0.6-1,1.2-1.5,1.7
	C72.3,26.1,70.7,26.8,69,27z"/>
<path class="st4" d="M73.1,16.3c0.3,0.9,0.7,1.8,1.2,2.6c0.3,0.4,0.2,0.6-0.2,0.8C73,20.3,72,21,70.9,21.6c-0.3-0.3-0.7-0.5-1.1-0.7
	c-0.6-0.3-0.9-1-0.6-1.6c0-0.1,0.1-0.1,0.1-0.2c0.3-0.9,0.9-1.6,1.5-2.3C71.6,16.5,72.3,16.3,73.1,16.3z"/>
<path class="st3" d="M74.9,23.3c0.1-0.3,0.1-0.6,0.2-0.8s0.1-0.3-0.1-0.4s0-0.3,0-0.5c0.5-1.2,1.2-2.3,2-3.3
	c0.3-0.4,0.7-0.8,1.1-1.2c0.1-0.1,0.3-0.4,0.5-0.2s0,0.4-0.1,0.5c-0.5,0.9-1.1,1.7-1.7,2.6c-0.2,0.2-0.2,0.5-0.2,0.8
	c0,1.1-0.1,2.2-0.3,3.3c-0.6,1.3-1.4,2.4-2.3,3.5c-0.4,0.5-0.9,1.1-1.3,1.6c-0.2,0.3-0.3,0.6-0.4,1c-0.1,0.8-0.5,1.5-1.2,1.8
	c0.6-0.8,0.9-1.8,1-2.8c-0.6,0.3-1.1,0.9-1.3,1.6c-0.2,0.6-0.6,1.2-1.2,1.6c0.6-1.5,1.6-2.8,2.8-3.9c0.5-0.4,0.9-0.9,1.2-1.5
	C74.2,25.8,74.7,24.5,74.9,23.3z M75.8,23c0.1-0.5,0.2-1,0.2-1.5c-0.2,0.3-0.3,0.6-0.4,1c-0.4,1.4-0.9,2.7-1.4,4c0,0-0.1,0.1,0,0.1
	l0.1-0.1C75.1,25.6,75.7,24.3,75.8,23z"/>
<path class="st1" d="M38.5,40c0-0.5,0-1,0-1.5s0.1-0.4,0.4-0.4c0.4,0.1,0.7,0.3,0.9,0.7c0.3,0.7,0.3,1.5,0,2.3
	c-0.1,0.2-0.2,0.4-0.4,0.5c-0.2,0.2-0.5,0.3-0.8,0.2c-0.2-0.1-0.1-0.4-0.1-0.6C38.5,40.8,38.5,40.4,38.5,40z"/>
<path class="st1" d="M136.7,40c0.1,0.4,0,0.9-0.2,1.3c-0.1,0.2-0.3,0.4-0.5,0.5c-0.6,0.3-0.8,0.2-0.8-0.4c0-0.9,0-1.9,0-2.8
	c0-0.4,0.2-0.4,0.5-0.4c0.6,0.2,1,0.7,1,1.3C136.7,39.6,136.7,39.8,136.7,40z"/>
<path class="st1" d="M29.5,42.7c0.1,1.1,0,2.2-0.2,3.2c0,0.2-0.1,0.4-0.2,0.6c-0.2,0.4-0.7,0.6-1.2,0.4c-0.2-0.1-0.3-0.2-0.4-0.4
	C27.2,46,27,45.4,27,44.8c-0.1-1.7-0.1-3.3,0.1-5c0-0.3,0.1-0.6,0.2-0.8c0.1-0.4,0.5-0.7,0.9-0.7c0.4,0,0.8,0.3,0.9,0.7
	c0.2,0.5,0.3,1.1,0.3,1.6C29.5,41.3,29.5,42,29.5,42.7z"/>
<path class="st1" d="M125.6,39.8c0.2,1.8,0.4,3.4,0.7,5c0,0.2,0,0.3-0.3,0.3c-1.2,0.1-1.2,0.1-1.1-1.1c0.1-1.3,0.3-2.7,0.5-4
	C125.4,40.1,125.4,40,125.6,39.8z"/>
<path class="st1" d="M80,39.8c0.1,0.6,0.2,1.2,0.3,1.8c0.1,1,0.3,2.1,0.4,3.1c0.1,0.4,0,0.5-0.4,0.5c-1,0-1,0-0.9-1.1
	C79.6,42.7,79.7,41.3,80,39.8L80,39.8z"/>
<path class="st2" d="M77.4,19.5c0.2-0.4,0.4-0.7,0.7-1c2.3-2.5,5.3-3.5,8.5-4.2c3.9-0.8,7.9-0.9,11.8-0.5c3,0.3,6,1.1,8.7,2.4
	c1.1,0.5,2.1,1.3,2.9,2.2c1.6,1.6,1.6,4.2-0.1,5.8c0,0,0,0,0,0c-1.3,1.3-2.8,2.2-4.6,2.8c-2.7,1-5.5,1.6-8.4,1.8
	c-3.1,0.3-6.2,0.1-9.3-0.4c-2.7-0.4-5.3-1.3-7.7-2.7c-0.8-0.5-1.5-1.1-2.1-1.8c-1-1.1-1.3-2.7-0.7-4.1
	C77.4,19.8,77.4,19.6,77.4,19.5z M94.9,13.9c-3.6-0.1-7.2,0.4-10.7,1.4c-2,0.5-3.8,1.5-5.3,2.9c-1.7,1.3-2,3.7-0.7,5.4
	c0.2,0.3,0.4,0.5,0.7,0.7c1.3,1.2,2.8,2.1,4.5,2.7c3.2,1.1,6.5,1.6,9.8,1.7c3.8,0.1,7.7-0.4,11.3-1.6c1.8-0.6,3.5-1.5,4.9-2.8
	c1.6-1.3,1.9-3.7,0.6-5.4c-0.2-0.2-0.3-0.4-0.5-0.6c-1.1-1.1-2.5-1.9-3.9-2.4C102.2,14.6,98.5,13.9,94.9,13.9L94.9,13.9z"/>
<path class="st1" d="M74.2,26.5c0.6-1.3,1-2.6,1.4-4l0.2,0.6C75.7,24.3,75.1,25.5,74.2,26.5L74.2,26.5z"/>
<path class="st0" d="M75.8,23l-0.2-0.6c0-0.4,0.2-0.7,0.4-1C76,22,76,22.5,75.8,23z"/>
<path class="st1" d="M74.2,26.5L74.2,26.5C74.1,26.6,74.2,26.5,74.2,26.5L74.2,26.5z"/>
<path class="st4" d="M94.8,13.9c3.7,0,7.4,0.7,10.8,2c1.5,0.5,2.8,1.4,3.9,2.4c1.6,1.3,1.8,3.7,0.5,5.4c-0.2,0.2-0.4,0.4-0.6,0.5
	c-1.4,1.3-3.1,2.2-4.9,2.8c-3.7,1.2-7.5,1.7-11.3,1.6c-3.4,0-6.7-0.6-9.9-1.7c-1.7-0.5-3.3-1.4-4.6-2.6c-1.7-1.3-2-3.7-0.7-5.4
	c0.2-0.3,0.4-0.5,0.7-0.7c1.5-1.3,3.3-2.3,5.3-2.9C87.6,14.3,91.2,13.8,94.8,13.9z M92.4,22.4L92.4,22.4c0.3,0.3,0.7,0.1,1.1,0.2
	c-0.1,0.3-0.3,0.2-0.5,0.2c-0.8,0-1.6,0-2.3,0.1c-0.7,0-1.4,0.3-2,0.6c-0.4,0.1-0.5,0.6-0.4,0.9c0.1,0.1,0.2,0.3,0.3,0.3
	c0.2,0.2,0.4,0.3,0.7,0.4c0,0.1,0.1,0.1,0.2,0.1c1.4,0.1,2.8-0.1,4.1-0.8c0.3-0.2,0.6-0.3,0.9-0.3c0.5,0,1-0.2,1.4-0.6
	c0.1-0.1,0.4-0.3,0-0.4c-0.4-0.2-0.7-0.6-0.9-1c0-0.2-0.3-0.2-0.4-0.3c0,0,0,0-0.1,0c0.3,0,0.5-0.2,0.7-0.4c0.1,0.3,0,0.7,0.4,0.9
	c0.6,0.4,1.1,0.2,1.6,0l0.1,0.1c0.2,0.3,0.4,0.2,0.6,0.1c0.3-0.1,0.6-0.2,0.9-0.4c0.1,0.1,0.2,0.2,0.3,0.3c0.1,0.2,0.3,0.2,0.6,0.2
	c0.6-0.1,1.1-0.2,1.6-0.5l0.3,0.2c0,0.1,0.1,0.1,0.2,0.1l0,0c0.2,0.2,0.6,0.3,0.9,0.2c0.8-0.1,1.5-0.5,2-1c0.5-0.6,1.4-0.9,2.1-0.6
	c-0.3,0.1-0.7,0.2-1,0.2c-0.6,0.1-1,0.8-0.7,1.2s0.8,0.2,1.2,0.2c0,0.2-0.2,0.1-0.3,0.2c-0.3,0-0.6,0-0.9,0
	c-1.2-0.1-2.3,0.1-3.4,0.6c-0.9,0.5-0.9,0.9-0.1,1.6c0,0.1,0.1,0.1,0.2,0.1l0,0c0.1,0.2,0.4,0.2,0.6,0.2c1.2,0.1,2.5-0.1,3.6-0.6
	c0.5-0.3,1-0.5,1.5-0.6c0.4-0.1,0.8-0.2,1.1-0.5c0.2-0.1,0.3-0.3,0-0.4c-0.1-0.1-0.2-0.2-0.4-0.2c-0.1,0-0.2-0.1-0.2-0.2
	c0-0.5-0.3-0.7-0.7-0.8c0.6-0.4,1.1-1,1.2-1.7c0-0.1-0.1-0.2-0.2-0.2c-0.2-0.2-0.4-0.2-0.6-0.1s-0.6,0.2-0.8,0.3
	c0.1-0.3,0.4-0.5,0-0.8c-0.1-0.1-0.2-0.2-0.3-0.2c-0.7-0.1-1.3,0.4-1.4,1c0,0.2-0.1,0.4-0.3,0.5c0-0.2,0-0.5-0.2-0.6
	c-0.3-0.5-0.8-0.3-1.3-0.4c0.1-0.2,0.4-0.3,0.5-0.5c0.4-0.3,0.7-0.6,1-1c0.2-0.2,0.5-0.5,0.1-0.8s-0.7-0.2-1-0.1
	c-1.6,0.6-3,1.7-4.1,3c-0.1,0.1-0.1,0.4-0.4,0.3c0-0.2,0.1-0.3-0.2-0.4c-0.6-0.3-1.3-0.4-1.9-0.4c-0.6,0.1-1.1,0.4-1.5,0.8
	c-0.1,0.1-0.1,0.3-0.4,0.2c0-0.2,0.3-0.5-0.1-0.7c-0.1-0.2-0.4-0.2-0.6-0.1L94,20c0.1-0.3,0.4-0.5,0-0.8C94,19.1,93.9,19,93.8,19
	c-0.7-0.1-1.4,0.4-1.5,1.1c0,0.1,0,0.3-0.1,0.4c-0.4,0.5-0.9,1-1.5,1.3c0.4-0.4,0.8-0.8,1.1-1.3c0.2-0.2,0.4-0.4,0-0.6
	c-0.3-0.4-0.9-0.5-1.3-0.2c-0.2,0.1-0.3,0.3-0.5,0s-0.5-0.2-0.8,0s-0.4,0.3-0.7,0.5s-0.2,0.2-0.3-0.1c-0.2-0.5-0.8-0.8-1.3-0.6
	c0,0,0,0,0,0c-0.8,0.2-1.5,0.8-1.9,1.6c-0.3,0.4-0.2,0.9,0.2,1.2c0,0,0,0,0,0c0.3,0.3,0.7,0.4,1.1,0.2c0.5-0.2,0.9-0.4,1.2-0.8
	c0,0.2,0.1,0.4,0.3,0.5c0.2,0.2,0.6,0.3,0.8,0.1c0,0,0.1-0.1,0.1-0.1l0.4-0.5c-0.1,0.3,0,0.5,0.3,0.6c0.1,0.1,0.3,0.2,0.5,0.2
	c0.5,0,1-0.2,1.4-0.5c0.2-0.2,0.4-0.4,0.7-0.5c0,0.2-0.3,0.5,0,0.7L92.4,22.4z M99.4,19.4c0.4,0.1,0.7-0.3,0.9-0.5l-0.1-0.1
	c-0.2-0.2-0.5-0.4-0.8-0.1C99.3,18.9,99.2,19.1,99.4,19.4C99.4,19.4,99.4,19.4,99.4,19.4L99.4,19.4z M85.4,18.4c0-0.1,0-0.1-0.1-0.1
	c-0.6-0.7-1.6-0.9-2.4-0.6c-1.6,0.6-2.9,1.9-3.4,3.6c-0.4,0.9-0.1,1.8,0.7,2.4l0.1,0.1l0,0c0.5,0.3,1.2,0.3,1.7,0
	c0.1,0.1,0.2,0.2,0.3,0.2c0.3,0.2,0.5,0.2,0.8-0.2c0.3-0.6,0.8-1.1,1.4-1.5c0.4-0.2,0.6-0.7,0.4-1.1c0,0,0-0.1,0-0.1
	c-0.1-0.1-0.1-0.2-0.3-0.2c-0.9-0.3-1.8-0.1-2.6,0.5c-0.2,0.2-0.5,0.4-0.4,0.7s0.4,0.1,0.7,0.2c0,0,0,0,0,0.1
	c-0.2,0.4-0.6,0.5-1.1,0.5c0-0.3,0-0.5,0.1-0.8c0.5-1.3,1.3-2.4,2.4-3.2c0.1-0.1,0.3-0.2,0.4-0.2c-0.1,0.1-0.2,0.3-0.3,0.4
	c-0.3,0.3-0.3,0.6,0.1,0.9c0.4,0.3,1,0.3,1.3-0.1C85.6,19.6,85.8,18.9,85.4,18.4L85.4,18.4z"/>
<path class="st2" d="M107.3,21.8c0.4,0.1,0.7,0.3,0.7,0.8c0,0.2,0.1,0.2,0.2,0.2c0.2,0,0.3,0.1,0.4,0.2c-0.3,0.4-0.7,0.7-1.2,0.8
	c-0.3,0.1-0.6,0-0.9,0.2c-1.4,0.8-3.1,1.2-4.7,1l0,0c0-0.1-0.1-0.1-0.2-0.1c-0.8-0.6-0.7-1.1,0.1-1.6c1.1-0.4,2.2-0.6,3.4-0.6
	c0.3,0,0.6,0,0.9,0c0.1,0,0.3,0,0.3-0.2s-0.1-0.2-0.3-0.2l-0.9-0.1c-0.3-0.4,0.1-1.1,0.7-1.2c0.3,0,0.7-0.1,1-0.2
	c0.1,0,0.3,0,0.3-0.2c-0.3,0-0.5,0-0.8,0c-0.8-0.3-1.3,0.2-1.8,0.6c-0.7,0.7-1.7,1.1-2.7,1l0,0l-0.2-0.1l-0.3-0.2
	c-0.1-0.2-0.3-0.1-0.4,0c-0.6,0.2-1.2,0.3-1.8,0.3c-0.1-0.1-0.2-0.2-0.3-0.3c0-0.2,0-0.3-0.3-0.2c-0.4,0.3-0.8,0.4-1.3,0.4l-0.1-0.1
	c-0.1-0.2-0.2-0.2-0.4-0.1c-0.4,0.2-0.8,0.2-1.3,0.1c-0.4-0.2-0.4-0.6-0.4-0.9c0.1-0.2,0.2-0.4,0.3-0.7c0.1,0,0.2-0.1,0.1-0.2l0,0
	c0.2,0.1,0.3-0.1,0.4-0.2c0.4-0.4,1-0.7,1.5-0.8c0.7,0,1.3,0.1,1.9,0.4l-1.2,1.8c0.3,0,0.4-0.2,0.5-0.3s0.2,0,0.2-0.2l0,0
	c0.4-0.1,0.7-0.5,0.7-0.9l0,0c0.3,0.1,0.3-0.2,0.4-0.3c1.1-1.3,2.5-2.4,4.1-3c0.3-0.1,0.7-0.3,1,0.1c0,0.3-0.1,0.5-0.3,0.7
	c-0.9,1.1-2.1,2-3.4,2.6c-0.5,0.3-1,0.7-1.3,1.3c-0.1,0.1-0.1,0.3,0.1,0.3s0.9-0.1,1.1-0.5c0.2-0.3,0.4-0.6,0.7-0.9
	c0.4-0.3,0.7-0.6,1.2-0.9c0.1,0,0.2,0,0.2-0.1l0,0c0.4,0,1-0.2,1.3,0.4c0.1,0.5-0.2,0.8-0.4,1.2c0.3-0.1,0.5-0.3,0.6-0.5
	c0.2-0.1,0.2-0.3,0.3-0.5c0.2-0.6,0.8-1.1,1.4-1c0.1,0,0.2,0.1,0.3,0.2c0,0.3-0.2,0.6-0.4,0.8c0.1,0.1,0.2,0.1,0.3,0
	c0.3-0.1,0.6-0.2,0.8-0.3s0.4-0.1,0.6,0.1c-0.3,0.8-0.4,1.8-1.6,1.8L107.3,21.8z M103.4,18.4l-1.1,0.9l0.1,0.1
	C102.8,19.1,103.2,18.8,103.4,18.4c0.3-0.1,0.5-0.2,0.6-0.5L103.4,18.4z M96.6,21.8c0.8-0.2,1.4-0.8,1.6-1.6c0-0.3-0.2-0.2-0.3-0.1
	c-0.5,0.4-1,0.9-1.4,1.4C96.3,21.7,96.3,21.9,96.6,21.8L96.6,21.8z M104.6,24.1c0.1-0.1,0.2,0,0.3-0.2l-2.1,0.1
	c-0.3,0-0.6,0.1-0.9,0.2c-0.1,0.1-0.4,0.2,0,0.3C102.8,24.7,103.7,24.6,104.6,24.1L104.6,24.1z M104.1,20.1
	c-0.5,0.1-0.9,0.4-1.1,0.9C103.4,20.8,103.8,20.5,104.1,20.1L104.1,20.1z M103.6,21.5c-0.4,0-0.7,0-1,0.1c-0.1,0-0.2,0.1-0.2,0.3
	c0,0,0,0,0,0c0,0,0.1,0.1,0.1,0.1C102.8,21.6,103.2,21.8,103.6,21.5L103.6,21.5z"/>
<path class="st2" d="M88.1,22.3c-0.2-0.1-0.3-0.3-0.3-0.5l0.8-0.9c-0.5,0.2-0.9,0.5-1.2,0.9c-0.5,0.6-1.3,0.8-2,0.6
	c-0.4-0.2-0.6-0.8-0.3-1.2c0,0,0,0,0,0c0.3-0.8,1-1.4,1.9-1.6c0.5-0.2,1.1,0,1.3,0.6c0,0,0,0,0,0c0.1,0.3,0.2,0.2,0.3,0.1
	s0.4-0.3,0.7-0.5s0.6-0.3,0.8,0s0.3,0.1,0.5,0c0.4-0.3,1-0.2,1.3,0.2c0,0.2-0.1,0.4-0.3,0.5l-1,1.1c-0.1,0.1-0.2,0.1-0.1,0.2
	s0.2,0,0.2,0c0.6-0.3,1.1-0.8,1.5-1.3c0.1-0.1,0.1-0.3,0.1-0.4c0.1-0.7,0.8-1.2,1.5-1.1c0.1,0,0.2,0.1,0.3,0.2
	c0,0.3-0.2,0.6-0.4,0.9l0.4-0.1l0.8-0.3c0.2-0.1,0.4-0.1,0.6,0.1c-0.1,0.3-0.2,0.5-0.3,0.8c-0.1,0.5-0.5,0.9-1.1,0.9
	c-0.4,0-0.7,0.1-1.1,0.3c0.4-0.1,0.8-0.2,1.2-0.2h0.2h0.1c0.2,0,0.4,0.1,0.4,0.3c0.1,0.4,0.4,0.8,0.9,1c-0.2,0.4-0.6,0.6-1.1,0.7
	c-0.8,0.2-1.6,0.5-2.4,0.8c-1,0.3-2.1,0.5-3.1,0.5c-0.3,0-0.5-0.2-0.7-0.4c-0.3-0.2-0.4-0.6-0.2-1c0.1-0.1,0.2-0.2,0.3-0.3
	c0.6-0.4,1.3-0.6,2-0.6c0.8,0,1.6,0,2.3-0.1c0.2,0,0.4,0.1,0.5-0.2s-0.1-0.2-0.2-0.2h-0.9l-0.1-0.1c-0.3-0.2,0-0.5,0-0.7l0,0
	c0.1,0,0.2-0.2,0.2-0.3l0,0c0.1,0,0.1,0,0.1-0.1l0,0c0.5-0.1,1-0.1,1.5-0.3c0.1,0,0.2,0,0.2-0.2c-0.1,0-0.3,0-0.4,0
	c-0.7-0.2-1.5,0.1-2,0.7c-0.5,0.7-1.3,1-2.2,0.9c-0.2-0.1-0.3-0.4-0.3-0.6c0.2-0.3,0.4-0.6,0.6-0.9c-0.4,0.3-0.8,0.7-1.1,1.1
	C88.8,22.1,88.5,22.3,88.1,22.3z M86.4,21.4c0-0.5,0.4-0.9,0.9-1c0.2,0,0.3-0.1,0.2-0.3s-0.2-0.1-0.3,0c-0.5,0.4-1,0.9-1.2,1.5
	c-0.1,0.1-0.1,0.3,0.2,0.3c0.2,0,0.4-0.1,0.5-0.3C86.7,21.5,86.4,21.4,86.4,21.4z M91.9,24.1c0.1,0,0.2,0,0.3-0.2
	c-0.8-0.1-1.6,0-2.5,0.1c-0.2,0-0.4,0.1-0.6,0.2c-0.2,0.1-0.3,0.2,0,0.3C90,24.7,91,24.6,91.9,24.1L91.9,24.1z"/>
<path class="st2" d="M80.2,23.8L80.2,23.8l-0.1-0.1c-0.7-0.6-1-1.5-0.7-2.4c0.6-1.6,1.8-2.9,3.4-3.6c0.8-0.4,1.8-0.2,2.4,0.6
	c0,0.1,0,0.2,0.1,0.1l0,0c0,1.3-0.4,1.8-1.6,1.7c-0.4-0.3-0.4-0.5-0.1-0.9c0.1-0.1,0.2-0.3,0.3-0.4c-0.2-0.2-0.3-0.3-0.6,0
	c-1.1,0.9-2,2-2.4,3.4c-0.1,0.2-0.1,0.5,0.1,0.7c0.4,0,0.8-0.1,1.1-0.5c0,0,0-0.1,0-0.1c-0.2-0.1-0.6,0.1-0.7-0.2s0.2-0.5,0.4-0.7
	c0.7-0.6,1.6-0.7,2.5-0.5c0.1,0,0.2,0.1,0.3,0.3c0,0.4-0.2,0.8-0.5,1c-0.7,0.3-0.9,0.9-1.3,1.5c-0.1,0.2-0.4,0.4-0.6,0.4
	c-0.2,0-0.2-0.2-0.3-0.2c-0.1-0.1-0.2-0.2-0.3-0.1c0,0,0,0,0,0C81.2,23.9,80.7,23.9,80.2,23.8z"/>
<path class="st0" d="M100.2,21.9c-0.3,0-0.3-0.1-0.1-0.3c0.3-0.5,0.7-1,1.3-1.3c1.3-0.6,2.4-1.5,3.4-2.6c0.2-0.2,0.3-0.4,0.3-0.7
	c0.4,0.3,0.1,0.6-0.1,0.8c-0.3,0.4-0.6,0.7-1,1c-0.2,0.2-0.4,0.3-0.5,0.5l0,0c-0.1,0-0.1,0-0.2,0.1c-0.4,0.2-0.8,0.5-1.2,0.9
	C101.3,20.7,100.6,21.2,100.2,21.9z"/>
<path class="st0" d="M101.7,25c1.6,0.2,3.3-0.2,4.7-1c0.3-0.2,0.6-0.1,0.9-0.2c0.5-0.1,0.9-0.4,1.2-0.8c0.3,0.1,0.2,0.3,0,0.4
	c-0.3,0.3-0.7,0.5-1.2,0.5c-0.6,0.1-1.1,0.3-1.6,0.5c-1.1,0.5-2.3,0.7-3.6,0.6C102.1,25.1,101.9,25.1,101.7,25z"/>
<path class="st0" d="M89.2,25.1c1.1,0,2.1-0.2,3.1-0.5c0.8-0.4,1.6-0.7,2.4-0.8c0.4-0.1,0.8-0.3,1.1-0.7c0.4,0.2,0.1,0.3,0,0.4
	c-0.4,0.3-0.9,0.5-1.4,0.6c-0.3,0-0.6,0.1-0.9,0.3c-1.2,0.7-2.7,0.9-4.1,0.8C89.4,25.1,89.3,25.2,89.2,25.1z"/>
<path class="st0" d="M81.1,22.9c-0.3-0.2-0.2-0.4-0.1-0.7c0.4-1.4,1.2-2.5,2.4-3.4c0.3-0.3,0.4-0.2,0.6,0c-0.1,0-0.3,0-0.4,0.2
	c-1,0.8-1.8,1.9-2.3,3.1C81.2,22.3,81.1,22.6,81.1,22.9z"/>
<path class="st0" d="M101.8,22.4c1,0.1,2-0.3,2.7-1c0.6-0.4,1-0.9,1.8-0.6c0.3,0,0.5,0,0.8,0c-0.1,0.2-0.2,0.2-0.3,0.2
	c-0.8-0.3-1.6,0-2.1,0.6c-0.5,0.5-1.2,0.9-2,1C102.3,22.7,102,22.6,101.8,22.4z"/>
<path class="st0" d="M89.7,22.4c0.8,0.2,1.7-0.2,2.2-0.9c0.5-0.6,1.3-0.9,2-0.7c0.1,0,0.3,0,0.4,0c0,0.2-0.1,0.2-0.2,0.2
	c-0.2,0-0.5,0-0.7-0.1c-0.3-0.1-0.6,0-0.8,0.3c0,0,0,0,0,0.1l0,0l-0.1,0.1l0,0c-0.1,0.1-0.3,0.1-0.2,0.3l0,0c-0.3,0-0.5,0.3-0.7,0.5
	c-0.4,0.3-0.9,0.5-1.4,0.5C90,22.6,89.8,22.5,89.7,22.4z"/>
<path class="st0" d="M82.3,24c0.3,0,0.5-0.2,0.6-0.4c0.4-0.5,0.7-1.1,1.3-1.5c0.3-0.2,0.5-0.6,0.5-1c0.2,0.4,0.1,0.9-0.2,1.1
	c0,0-0.1,0-0.1,0c-0.6,0.4-1,0.9-1.4,1.5C82.8,24.2,82.6,24.2,82.3,24z"/>
<path class="st0" d="M85.4,22.3c0.7,0.3,1.5,0,2-0.6c0.3-0.4,0.7-0.7,1.2-0.9l-0.8,0.9c-0.3,0.4-0.8,0.6-1.2,0.8
	C86.2,22.7,85.8,22.6,85.4,22.3z"/>
<path class="st0" d="M83.8,20.1c1.2,0.1,1.6-0.4,1.6-1.7c0.3,0.5,0.2,1.2-0.3,1.6C84.8,20.4,84.2,20.4,83.8,20.1z"/>
<path class="st0" d="M107.3,21.8l-0.6-0.1c1.3,0,1.3-1,1.6-1.8c0.1,0,0.2,0.1,0.2,0.2C108.3,20.8,107.9,21.4,107.3,21.8z"/>
<path class="st0" d="M90.8,21.8c-0.1,0-0.2,0-0.2,0s0-0.2,0.1-0.2l1-1.1c0.1-0.1,0.3-0.3,0.3-0.5c0.3,0.2,0.1,0.4,0,0.6
	C91.5,21,91.2,21.4,90.8,21.8z"/>
<path class="st0" d="M94.1,21.6c0.5,0,1-0.4,1.1-0.9c0.1-0.3,0.2-0.6,0.3-0.8c0.4,0.2,0,0.4,0.1,0.7l0,0c-0.1,0-0.1,0.1-0.1,0.2
	c-0.1,0.2-0.2,0.4-0.3,0.7c-0.2,0.2-0.4,0.3-0.7,0.4l0,0h-0.2L94.1,21.6z"/>
<path class="st0" d="M88.1,22.3c0.3,0.1,0.7-0.1,0.8-0.4c0.3-0.4,0.7-0.8,1.1-1.1c-0.2,0.3-0.4,0.6-0.6,0.9L89,22.2
	c-0.2,0.3-0.5,0.3-0.8,0.2C88.2,22.3,88.1,22.3,88.1,22.3z"/>
<path class="st0" d="M98.7,21.4c-0.2,0.1-0.2,0.3-0.5,0.3l1.3-1.8c0.2,0.1,0.1,0.3,0.2,0.4l0,0c-0.3,0.2-0.6,0.5-0.7,0.9l0,0
	C98.7,21.2,98.7,21.4,98.7,21.4z"/>
<path class="st2" d="M99.4,19.4c-0.2-0.2-0.2-0.5-0.1-0.7c0,0,0.1-0.1,0.1-0.1c0.2-0.2,0.5-0.1,0.8,0.1C100,19,99.7,19.3,99.4,19.4z
	"/>
<path class="st0" d="M99.2,22.4c0.6,0,1.2-0.1,1.8-0.3c0.1,0,0.3-0.2,0.4,0c-0.5,0.3-1.1,0.4-1.7,0.5C99.5,22.6,99.3,22.5,99.2,22.4
	z"/>
<path class="st0" d="M97.4,22.4c0.5,0,0.9-0.2,1.3-0.4c0.2-0.2,0.3,0,0.3,0.2c-0.3,0.1-0.6,0.3-0.9,0.4
	C97.8,22.6,97.5,22.6,97.4,22.4z"/>
<path class="st0" d="M80.2,23.8c0.5,0.1,1,0.1,1.4-0.1c0.1-0.1,0.2,0,0.3,0.1c0,0,0,0,0,0C81.4,24.1,80.8,24.1,80.2,23.8z"/>
<path class="st0" d="M95.6,22.3c0.4,0.1,0.9,0.1,1.3-0.1c0.1-0.1,0.3-0.1,0.4,0.1C96.7,22.6,96.1,22.8,95.6,22.3z"/>
<path class="st0" d="M104.8,20.5c-0.2,0.2-0.4,0.4-0.6,0.5c0.3-0.3,0.6-0.7,0.4-1.2C104.9,20,104.8,20.3,104.8,20.5z"/>
<path class="st0" d="M94.1,20.1l-0.4,0.1c0.2-0.3,0.4-0.6,0.4-0.9C94.5,19.5,94.2,19.8,94.1,20.1z"/>
<path class="st0" d="M106.8,20c-0.1,0.1-0.2,0.1-0.3,0c0.1-0.3,0.4-0.5,0.4-0.8C107.3,19.5,106.9,19.8,106.8,20z"/>
<path class="st0" d="M105,22.4l0.9,0.1c0.1,0,0.3,0,0.3,0.2C105.8,22.5,105.4,22.7,105,22.4z"/>
<path class="st0" d="M92.3,22.4h0.9c0.1,0,0.2,0,0.2,0.2C93.1,22.6,92.7,22.7,92.3,22.4z"/>
<path class="st0" d="M99.4,19.4c0.3-0.2,0.6-0.4,0.8-0.6l0.1,0.1C100.1,19.1,99.9,19.5,99.4,19.4z"/>
<path class="st0" d="M101.4,24.9c0.1,0,0.2,0,0.2,0.1C101.6,25,101.5,24.9,101.4,24.9z"/>
<path class="st0" d="M85.4,18.4c-0.1,0-0.1-0.1-0.1-0.1S85.4,18.4,85.4,18.4z"/>
<path class="st0" d="M101.6,22.4l0.2,0.1C101.8,22.4,101.7,22.4,101.6,22.4z"/>
<path class="st3" d="M94.5,21.8L94.5,21.8C94.5,21.8,94.6,21.8,94.5,21.8L94.5,21.8z"/>
<path class="st0" d="M80.1,23.7l0.1,0.1L80.1,23.7z"/>
<path class="st0" d="M92.3,22.4L92.3,22.4L92.3,22.4z"/>
<path class="st4" d="M104.6,24.1c-0.8,0.5-1.8,0.6-2.8,0.4c0.1-0.2,0.3-0.3,0.5-0.3C103.1,24.1,103.8,24,104.6,24.1z"/>
<path class="st4" d="M100.2,21.9c0.4-0.7,1-1.2,1.8-1.4c-0.3,0.3-0.5,0.6-0.7,0.9C101.1,21.8,100.6,21.8,100.2,21.9z"/>
<path class="st0" d="M104.6,24.1c-0.7,0-1.5,0-2.2,0.2c-0.2,0-0.4,0.1-0.5,0.3c-0.3-0.2-0.1-0.3,0-0.3c0.3-0.1,0.6-0.2,0.9-0.2
	l2.1-0.1C104.8,24.1,104.6,24,104.6,24.1z"/>
<path class="st0" d="M96.5,21.8c-0.2,0-0.3-0.1-0.2-0.3c0.4-0.5,0.9-1,1.4-1.4c0.1-0.1,0.3-0.2,0.3,0.1
	C97.5,20.7,96.9,21.2,96.5,21.8z"/>
<path class="st4" d="M96.5,21.8c0.4-0.6,0.9-1.2,1.6-1.6C97.9,21,97.3,21.6,96.5,21.8z"/>
<path class="st0" d="M104.1,20.1c-0.3,0.4-0.7,0.7-1.1,0.9C103.2,20.5,103.6,20.1,104.1,20.1z"/>
<path class="st0" d="M103.6,21.5c-0.3,0.4-0.8,0.2-1.1,0.4c0,0-0.1-0.1-0.1-0.1c0-0.1,0.1-0.3,0.2-0.3c0,0,0,0,0,0
	C102.9,21.5,103.2,21.5,103.6,21.5z"/>
<path class="st0" d="M103.4,18.4c-0.3,0.3-0.7,0.7-1.1,0.9l-0.1-0.1L103.4,18.4L103.4,18.4z"/>
<path class="st4" d="M98.9,21.3c0.1-0.4,0.4-0.7,0.7-0.9C99.5,20.8,99.3,21.1,98.9,21.3z"/>
<path class="st0" d="M103.4,18.4l0.6-0.5C103.9,18.1,103.7,18.3,103.4,18.4L103.4,18.4z"/>
<path class="st4" d="M98.7,21.4c0-0.1,0.1-0.2,0.2-0.2C98.9,21.4,98.8,21.4,98.7,21.4z"/>
<path class="st4" d="M95.4,20.8c0-0.1,0-0.2,0.1-0.2C95.7,20.7,95.6,20.7,95.4,20.8z"/>
<path class="st4" d="M103.2,19.6c0-0.1,0.1-0.1,0.2-0.1C103.4,19.6,103.3,19.6,103.2,19.6z"/>
<path class="st4" d="M91.8,24.1C91,24.6,90,24.7,89,24.5c0.2-0.2,0.5-0.3,0.8-0.3C90.5,24.1,91.1,24,91.8,24.1z"/>
<path class="st0" d="M91.8,24.1c-0.7,0-1.3,0-2,0.1c-0.3,0-0.5,0.1-0.8,0.3c-0.3-0.1-0.2-0.2,0-0.3c0.2-0.1,0.4-0.1,0.6-0.2
	c0.8-0.1,1.6-0.2,2.5-0.1C92,24,91.9,24,91.8,24.1z"/>
<path class="st0" d="M86.1,22c-0.3,0-0.2-0.2-0.2-0.3c0.3-0.6,0.7-1.1,1.2-1.5c0.1-0.1,0.3-0.2,0.3,0s-0.1,0.2-0.2,0.3
	c-0.5,0.1-0.9,0.5-0.9,1C86.2,21.5,86.1,21.7,86.1,22z"/>
<path class="st4" d="M92.5,21.3c0.1-0.3,0.4-0.5,0.7-0.4c0,0,0,0,0.1,0c0.2,0,0.5,0.1,0.7,0.1C93.6,21.1,93.1,21.2,92.5,21.3z"/>
<path class="st3" d="M94.1,21.6l0.2,0.1c-0.4,0-0.8,0.1-1.2,0.2C93.4,21.7,93.7,21.6,94.1,21.6z"/>
<path class="st4" d="M86.1,22c0-0.2,0.1-0.4,0.3-0.6c0.1,0.1,0.3,0.2,0.2,0.3C86.5,21.8,86.3,22,86.1,22z"/>
<path class="st4" d="M92.3,21.6c0-0.2,0.1-0.2,0.2-0.3C92.5,21.5,92.4,21.6,92.3,21.6z"/>
<path class="st4" d="M92.4,21.4l0.1-0.1C92.6,21.3,92.5,21.4,92.4,21.4z"/>
</svg>
