<?xml version="1.0" encoding="utf-8"?>
<!-- Generator: Adobe Illustrator 21.1.0, SVG Export Plug-In . SVG Version: 6.00 Build 0)  -->
<svg version="1.1" id="Layer_1" xmlns="http://www.w3.org/2000/svg" xmlns:xlink="http://www.w3.org/1999/xlink" x="0px" y="0px"
	 viewBox="0 0 181.1 81.8" style="enable-background:new 0 0 181.1 81.8;" xml:space="preserve">
<style type="text/css">
	.st0{fill:#687818;}
	.st1{fill:#687819;}
	.st2{fill:#FEFEFE;}
</style>
<title>Grocery</title>
<path class="st0" d="M114.2,41.7h59.1c2.2-0.1,4.4,0.8,5.8,2.6c1,1.2,1.5,2.7,1.5,4.2c0.1,1.1,0,2.3-0.2,3.4c-0.8,3-3.4,5.1-6.5,5.1
	h-119c-3.8,0.2-6.9-2.8-7.1-6.5c0-0.2,0-0.4,0-0.6c-0.1-1.4,0.1-2.7,0.6-4c1.1-2.6,3.7-4.2,6.6-4.1L114.2,41.7L114.2,41.7z M64.8,53
	c-0.3-0.2-0.5-0.5-0.5-0.9c0-1.8,0-3.5,0-5.3c0-0.4-0.1-0.9,0.4-1.2H62c0.2,0.6-1.1,3.6-2,4.5l-1.7-3.4c-0.2-0.4-0.5-0.7,0-1.1h-2.7
	c0.4,0.3,0.3,0.6,0.3,1c0,1.8,0,3.6,0,5.4c0.1,0.4-0.1,0.8-0.5,1.1c0.7,0.1,1.5,0.1,2.2,0c-0.4-0.6-0.6-2.9-0.3-5.2L60,53l2.7-5.1
	c0.1,1.2,0.1,2.4,0.1,3.7c0,0.5,0.1,1-0.4,1.4L64.8,53z M101.6,53c-0.5-0.3-0.9-0.7-1.2-1.2c-0.3-0.5-0.6-0.9-0.9-1.3
	c-0.3-0.3-0.4-0.5,0.2-0.7c0.7-0.2,1.2-0.7,1.3-1.4c0.3-1.1-0.3-2.3-1.5-2.7c-0.2-0.1-0.4-0.1-0.6-0.1c-1.2-0.1-2.3-0.1-3.5-0.1
	h-1.8c0.2,0.3,0.3,0.7,0.3,1.1c0,1.8,0,3.6,0,5.4c0.1,0.4-0.1,0.8-0.4,1H96c-0.3-0.2-0.5-0.4-0.5-0.6c0-0.7,0-1.3,0-2
	c0-0.3,0.1-0.3,0.4-0.3c1-0.1,1.9,0,2.3,1.1c0.2,0.3,0.4,0.7,0.6,0.9c0.2,0.3,0.4,0.6,0,0.9L101.6,53z M137.3,45
	c-0.3,0.6-0.6,0.5-1,0.5h-6c0.3,0.3,0.4,0.8,0.3,1.2c0,1.6,0,3.2,0,4.8c0.1,0.5,0,1.1-0.4,1.5h5.9c0.4,0,0.9-0.1,1.2,0.4v-2.3
	c-0.1,0.4-0.5,0.6-0.8,0.5h-3.4c-1,0-0.9,0.1-0.9-0.9s0-1,1-1h1.4c0.4-0.1,0.8,0.1,1,0.4V48c-0.2,0.4-0.6,0.6-1,0.5
	c-0.6,0-1.2,0-1.8,0s-0.7-0.2-0.6-0.6c0-0.1,0-0.2,0-0.3c-0.1-0.5,0.1-0.7,0.7-0.7c1.1,0,2.3,0,3.4,0c0.4-0.1,0.8,0.1,1,0.4
	L137.3,45z M172.5,46.3v-0.2c-0.5,0.3-0.9-0.1-1.3-0.2c-1.3-0.6-2.8-0.6-4.2-0.1c-1,0.4-1.6,1.4-1.5,2.4c0.1,0.9,0.8,1.5,1.9,1.6
	c0.9,0.1,1.8,0.2,2.7,0.3c0.4,0,0.7,0.2,0.7,0.6c0,0.3-0.2,0.6-0.4,0.8c-1.5,0.6-3.2,0.3-4.3-0.9c-0.3,0.6-0.6,1.2-0.8,1.9
	c0.3-0.2,0.7-0.1,0.9,0.1c0.4,0.2,0.9,0.3,1.3,0.4c1.4,0.3,2.8,0.1,4-0.7c0.9-0.6,1.2-1.8,0.6-2.8c-0.2-0.3-0.6-0.6-0.9-0.8
	c-0.6-0.2-1.1-0.4-1.7-0.4c-0.6,0-1.3-0.1-1.9-0.2c-0.3,0-0.5-0.2-0.6-0.5c0-0.3,0.1-0.5,0.4-0.7c0.2-0.1,0.4-0.2,0.7-0.3
	c1.3-0.3,2.6,0.2,3.4,1.2L172.5,46.3z M119.9,45.6h-3.1c0,0.3,0.4,0.4,0.2,0.6c-0.9,0.8-1.9,1.6-2.8,2.4c0-1-0.4-2,0.2-3h-2.2
	c0.4,0.3,0.3,0.7,0.3,1c0,1.8,0,3.6,0,5.4c0.1,0.4-0.1,0.8-0.5,1c0.8,0.1,1.6,0.1,2.4,0c-0.6-1-0.5-2.3,0.4-3.2
	c0.3-0.2,0.4-0.2,0.6,0.1c0.6,0.8,1.2,1.5,1.8,2.2c0.1,0.2,0.4,0.4,0,0.6c-0.1,0.1,0,0.2,0.1,0.2h2.8c-1.3-1.2-2.5-2.6-3.6-4
	c-0.3-0.3-0.3-0.5,0.1-0.7c0.8-0.6,1.5-1.2,2.3-1.9C119.3,46.1,119.7,46,119.9,45.6L119.9,45.6z M77.8,45.6c0.4,0.3,0.3,0.6,0.1,1
	c-0.7,1.4-1.3,2.8-2,4.2c-0.2,0.8-0.7,1.6-1.3,2.2H77c-0.7-0.6-0.1-1,0-1.5s0.5-0.3,0.8-0.3c0.7,0,1.4,0,2.1,0c0.2,0,0.5,0,0.6,0.3
	c0.2,0.5,0.8,1,0.2,1.6h2.7c-0.5-0.4-0.8-0.9-1-1.4c-0.8-1.6-1.5-3.2-2.3-4.8c-0.2-0.4-0.4-0.8,0.1-1.2L77.8,45.6z M155,45.2
	c-0.3,0.4-0.7,0.3-1,0.3H149c-0.4,0-0.8,0.1-1-0.4v2.3c0.1-0.3,0.5-0.5,0.9-0.5c0.4,0,0.8,0,1.2,0c0.5-0.1,0.7,0.1,0.7,0.7
	c0,1.4,0,2.8,0,4.2c0,0.4,0.1,0.9-0.4,1.2h2.4c-0.1-0.3-0.3-0.4-0.3-0.7c0-1.7,0-3.4,0-5c0-0.2-0.1-0.4,0.2-0.4
	c0.9,0.1,1.7-0.2,2.6,0.3L155,45.2z"/>
<path class="st1" d="M10.6,9.1c0,0.4,0,0.6,0,0.8c0,7.9,0,15.8,0,23.7c0,1.9,0.1,3.8,0.3,5.7c0.2,2.3,1,3.1,3.4,3.3
	c0.9,0.1,1.8,0.2,2.7,0.2c0.3,0,0.5,0.1,0.5,0.5c0,0.7,0,1.4,0,2.1c0,0.4-0.1,0.4-0.5,0.4c-5.2,0-10.5,0-15.7,0
	c-0.4,0-0.5-0.1-0.5-0.5c0-0.8-0.2-1.7,0.1-2.2s1.3-0.3,2-0.4c2.2-0.5,2.6-0.8,2.9-3c0.3-2.5,0.4-5.1,0.4-7.6c0-8.2,0-16.4,0-24.6
	c0-0.6,0-1.3,0-1.9C5.9,4.5,5.6,4.1,4.6,3.8C3.4,3.5,2.2,3.4,1,3.4c-0.4,0-0.5-0.1-0.5-0.5c0-0.7,0-1.3,0-1.9c0-0.4,0.1-0.4,0.5-0.4
	h14.4c0.2,0,0.4,0.1,0.6,0.3c7.7,8.9,15.1,18,21.1,28.2c0.5,0.9,1,1.9,1.6,2.8c0-0.2,0-0.5,0-0.7c0-4,0-7.9-0.1-11.9
	s-0.1-7.7-0.4-11.5c0-0.6-0.1-1.1-0.2-1.7c-0.1-1.3-1.2-2.3-2.5-2.3c-1.1-0.1-2.1-0.2-3.2-0.3c-0.5,0-0.7-0.2-0.6-0.7
	c0-0.6,0-1.1,0-1.7c0-0.5,0.1-0.6,0.6-0.6c3.7,0,7.3,0,11,0c1.5,0,3,0,4.5,0c0.6,0,0.7,0.2,0.6,0.7c0,0.6,0,1.2,0,1.8
	c0,0.3-0.1,0.5-0.4,0.5c-0.8,0.1-1.5,0.2-2.3,0.2c-0.9,0-1.7,0.6-2.1,1.4c-0.4,1-0.6,2-0.6,3c-0.5,12.3-0.2,24.6-0.2,36.9
	c0,0.6-0.1,0.8-0.7,0.8c-1.8,0-3.7,0-5.5,0c-0.4,0-0.8-0.2-0.9-0.5c-5.6-9.1-11.4-18-17.7-26.6c-2.3-3.1-4.6-6.1-7-9
	C11,9.5,10.9,9.4,10.6,9.1z"/>
<path class="st1" d="M84.2,27.6c-1.3-0.4-2.4-1.1-3.4-2.1c-3.3-3.8-3-9.5,0.7-12.8c2-1.7,4.6-2.8,7.2-2.9c2.8-0.4,5.6-0.1,8.1,0.9
	c0.1,0,0.2,0.1,0.2,0.1c1,0.8,2,0.5,3,0.1c1.6-0.6,3.1-1.1,4.7-1.7c0.3-0.1,0.5-0.2,0.7,0.1s0.6,0.4,0.5,1c-0.4,1.2-0.7,2.4-1,3.6
	c0,0.3-0.3,0.5-0.6,0.6c-0.8,0.1-1.5,0.3-2.3,0.4c-0.5,0.1-0.5,0.2-0.3,0.7c1.4,3.2,1.4,6.3-0.8,9.2c-1.5,1.9-3.6,3.1-6,3.5
	c-2,0.5-4.1,0.6-6.2,0.4c-1,0-1.9,0.4-2.5,1.2c-0.5,0.6-0.4,1.4,0.2,1.9c0.1,0,0.1,0.1,0.2,0.1c1,0.7,2.2,1.1,3.5,1.1
	c2.7,0.3,5.4,0.3,8.1,0.7c2.2,0.2,4.4,0.7,6.4,1.4c0.4,0.2,1,0.3,1.1,0.7s-0.6,0.5-0.9,0.7c-1.1,0.8-2.2,1.5-3.3,2.2
	c-0.3,0.2-0.7,0.3-1,0.1c-4-1.4-8.4-1-12.1,1.1C88.3,40,88.1,40,87.9,40c-2.5-0.4-4.8-1.6-6.7-3.3c-2.7-2.7-2.2-6.3,1-8.2
	C82.9,28.1,83.5,27.8,84.2,27.6z M95.2,19.8c0-2.7-0.6-4.5-1.7-5.8c-1-1.4-3-1.7-4.4-0.7c-0.3,0.2-0.5,0.4-0.7,0.7
	c-2.3,3.1-2.3,7.2-0.1,10.3c1,1.5,3,1.9,4.5,0.8c0.4-0.2,0.7-0.6,0.9-0.9C94.6,23,95.1,21.4,95.2,19.8L95.2,19.8z"/>
<path class="st1" d="M111.8,27.6c-1.5-0.4-2.8-1.3-3.8-2.5c-3.1-4-2.4-9.7,1.6-12.8c0.4-0.3,0.8-0.6,1.3-0.8
	c2.7-1.5,5.7-2.1,8.8-1.8c2.1,0.1,4.3,0.6,6.1,1.7c0.2,0.1,0.5,0.1,0.8,0l5.8-2.1c0.3-0.1,0.5-0.3,0.8,0.1s0.6,0.5,0.4,1.1
	c-0.4,1.2-0.7,2.3-1,3.5c0,0.3-0.3,0.5-0.6,0.6c-0.9,0.1-1.9,0.3-2.9,0.5c0.7,1.3,1.1,2.8,1.2,4.3c0.2,3.6-1.9,6.8-5.3,8.2
	c-2.5,1.1-5.3,1.5-8,1.3c-1-0.1-2.1,0.2-2.9,0.8c-0.6,0.4-0.8,1.2-0.4,1.9c0.1,0.2,0.2,0.3,0.4,0.4c0.7,0.5,1.5,0.9,2.4,1
	c2.4,0.5,4.8,0.8,7.2,1.4c4,0.9,7.8,2.7,10.9,5.5l0.3,0.3c0,0.1,0.1,0.1,0.1,0.2c-0.2,0.1-0.4,0.1-0.6,0.1h-7.7
	c-0.3,0-0.6,0-0.8-0.2c-3.8-1.9-8.2-2.3-12.3-1.2c-0.4,0.1-0.9,0.1-1.3,0c-1.7-0.4-3.3-1.4-4.4-2.8c-1.7-2-1.4-5,0.7-6.7
	c0.1-0.1,0.2-0.1,0.3-0.2C109.9,28.4,110.8,27.9,111.8,27.6z M122.5,19.2c0-1.8-0.5-3.5-1.5-4.9c-1.6-2.2-4.1-2.2-5.7,0
	c-1.9,3-1.9,6.8,0,9.7c1.7,2.3,4.2,2.3,5.8,0C122.1,22.6,122.6,20.9,122.5,19.2L122.5,19.2z"/>
<path class="st1" d="M67,34.6c-1.8,1.4-3.9,2.4-6.2,3c-2,0.5-4,0.4-5.9-0.3c-2.4-0.8-3.5-2.8-4-5.1c-0.2-1-0.3-2-0.3-3
	c0-4.3,0-8.7,0-13c0-1.4-0.3-1.7-1.7-1.8c-1.5-0.2-1.5-0.2-1.5-1.8c0-0.4,0.1-0.6,0.6-0.7c3-0.4,5.9-0.9,8.8-1.4c0.7-0.1,1,0.2,1,1
	c0,5.8,0,11.6,0,17.4c0,0.5,0.1,1.1,0.2,1.6c0.4,2,2.3,3.4,4.4,3.1c2.1,0,3.9-1.5,4.3-3.6c0.1-0.5,0.2-1,0.2-1.5c0-4.1,0-8.3,0-12.4
	c0-0.3,0-0.6-0.1-0.9c-0.1-0.4-0.5-0.7-0.9-0.8c-0.6-0.1-1.1-0.2-1.7-0.3c-0.3,0-0.4-0.2-0.4-0.5c0-0.4,0-0.8,0-1.3
	c0-0.4,0.1-0.5,0.5-0.5c2.1-0.3,4.2-0.7,6.3-1l2.2-0.4c1-0.2,1.3,0.1,1.3,1.1c0,6.9,0,13.9,0,20.8c0,0.2,0,0.4,0,0.6
	c0,0.9,0.7,1.7,1.7,1.7c0,0,0,0,0.1,0c0.6,0,1.3-0.1,1.6,0.2s0,1.1,0.1,1.6s-0.1,0.8-0.7,0.7c-2.9,0-5.9,0-8.8,0
	c-0.5,0-0.7-0.1-0.7-0.6C67.3,36,67.1,35.4,67,34.6z"/>
<path class="st1" d="M148.1,24c-2.2,0-4.4,0-6.6,0c-0.4,0-0.6,0.1-0.6,0.6c0,2.4,0.6,4.7,1.8,6.8c1.5,2.4,3.7,3.1,6.6,2.3
	c2.3-0.6,4.1-2.2,4.9-4.4c0.2-0.4,0.3-0.6,0.7-0.2c0.1,0.1,0.3,0.2,0.4,0.3c1.4,0.8,1.4,0.8,0.7,2.3c-1.5,3.2-3.7,5.6-7.3,6.2
	c-4.7,0.8-9.1,0.1-12.5-3.7c-1.5-1.7-2.4-3.8-2.8-6.1c-0.6-2.9-0.5-5.9,0.3-8.8c1.4-4.9,4.8-7.7,9.7-8.6c2.1-0.4,4.2-0.2,6.3,0.4
	c3.7,0.9,6.5,4,6.9,7.8c0.2,0.9,0.2,1.8,0.3,2.7c0.2,1.2-0.7,2.3-1.9,2.5c-0.2,0-0.4,0-0.5,0c-0.4,0-0.8,0-1.1,0L148.1,24z
	 M145,21.1c1.1,0,2.3,0,3.4,0c0.4,0.1,0.9-0.2,0.9-0.7c0,0,0,0,0-0.1c0.4-2,0-4-1.1-5.6c-0.9-1.4-2.8-1.9-4.2-1
	c-0.1,0.1-0.2,0.1-0.3,0.2c-0.5,0.4-1,0.9-1.3,1.5c-0.8,1.7-1.3,3.5-1.4,5.3c0,0.4,0.2,0.4,0.5,0.4H145z"/>
<path class="st1" d="M98.2,59.1c1,0,1.9,0,2.9,0c0.5,0,0.6,0.1,0.6,0.6c0.2,6.1,3.5,11.6,8.7,14.6c6.9,4.1,15.7,2.6,20.8-3.6
	c2.7-3.1,4.3-7.1,4.4-11.2c0-0.4,0.1-0.5,0.5-0.5c2,0,3.9,0,5.9,0c0.5,0,0.6,0.1,0.6,0.6c-0.4,4.7-2.3,9.2-5.4,12.8
	c-8.6,10.3-23.9,11.6-34.1,3c-4.1-3.4-7-8.2-8.1-13.4c-0.2-0.9-0.3-1.8-0.4-2.6c0-0.4,0.1-0.4,0.4-0.4
	C96.1,59.1,97.1,59.1,98.2,59.1z"/>
<path class="st1" d="M162.1,23.2c0-2.8,0-5.6,0-8.4c0-0.6-0.2-0.7-0.7-0.7s-1.3,0-2,0c-0.4,0-0.6-0.1-0.5-0.5c0,0,0-0.1,0-0.1
	c-0.1-0.7-0.1-1.4,0.1-2.1c0.3-0.7,1.3-0.3,1.9-0.5c2.4-0.8,4.3-2.7,5.1-5.1c0.5-1.3,0.5-1.3,1.9-1.3s1.5,0,1.5,1.4s0,3,0,4.6
	c0,0.5,0.2,0.6,0.6,0.6c1.5,0,3,0,4.5,0c0.4,0,0.5,0.1,0.5,0.5c0,0.7,0,1.3,0,2c0,0.4-0.1,0.5-0.5,0.5c-1.5,0-3,0-4.6,0
	c-0.4,0-0.6,0.1-0.6,0.6c0,5,0,10,0,15.1c0,0.5,0.1,1,0.2,1.5c0.2,1.6,1.6,2.9,3.3,2.7c0.2,0,0.4-0.1,0.5-0.1
	c0.6-0.1,1.2-0.3,1.8-0.4c0.4-0.1,0.5,0,0.6,0.3c0.6,1.8,0.9,1.3-0.8,2.3c-2,1.3-4.3,1.9-6.6,2c-3.1,0.2-5.7-2.1-6-5.2
	c-0.1-0.5-0.1-1.1-0.1-1.7C162.1,28.5,162.1,25.9,162.1,23.2z"/>
<path class="st1" d="M105.6,79.1c-1.8,0.9-3.8,1.4-5.8,1.7c-7.4,1.3-15-1-20.5-6.1c-4.3-3.9-7-9.3-7.4-15.1c0-0.4,0-0.6,0.5-0.5
	c2,0,3.9,0,5.9,0c0.5,0,0.5,0.2,0.5,0.6c0.6,7.6,4.3,13,11.2,16.2c3.4,1.5,7.2,1.6,10.7,0.5c0.3-0.1,0.7-0.1,0.9,0.1
	C102.9,77.3,104.2,78.2,105.6,79.1z"/>
<path class="st2" d="M64.8,53h-2.4c0.5-0.4,0.4-0.9,0.4-1.4c0-1.2,0-2.4-0.1-3.7L60,53l-2.6-5.1c-0.3,2.2-0.1,4.6,0.3,5.2
	c-0.7,0.1-1.5,0.1-2.2,0c0.4-0.2,0.6-0.6,0.5-1.1c0-1.8,0-3.6,0-5.4c0-0.4,0.1-0.7-0.3-1h2.7c-0.4,0.4-0.1,0.8,0,1.1l1.7,3.4
	c0.9-0.9,2.2-3.9,2-4.5h2.6c-0.4,0.4-0.4,0.8-0.4,1.2c0,1.8,0,3.5,0,5.3C64.3,52.5,64.4,52.8,64.8,53z"/>
<path class="st2" d="M101.6,53h-2.8c0.4-0.4,0.2-0.6,0-0.9c-0.2-0.3-0.4-0.6-0.6-0.9c-0.4-1.1-1.3-1.2-2.3-1.1
	c-0.2,0-0.4,0.1-0.4,0.3c0,0.7,0,1.3,0,2c0,0.3,0.2,0.4,0.5,0.6h-2.5c0.3-0.2,0.5-0.6,0.4-1c0-1.8,0-3.6,0-5.4
	c0.1-0.4,0-0.7-0.3-1.1h1.8c1.2,0,2.3-0.1,3.5,0.1c1.2,0,2.2,0.9,2.2,2.1c0,0.2,0,0.4-0.1,0.6c-0.1,0.7-0.7,1.2-1.3,1.4
	c-0.5,0.2-0.4,0.4-0.2,0.7c0.3,0.4,0.6,0.9,0.9,1.3C100.7,52.2,101.1,52.7,101.6,53z M97.1,48.9L97.1,48.9c0.5,0,1,0,1.5-0.1
	s0.9-0.3,0.9-1c0-0.5-0.4-0.9-0.8-0.9c0,0-0.1,0-0.1,0c-0.9,0-1.8,0-2.7-0.1c-0.3,0-0.3,0.1-0.4,0.4c-0.2,1.6-0.2,1.6,1.4,1.6
	L97.1,48.9z"/>
<path class="st2" d="M137.3,45v2.3c-0.2-0.3-0.6-0.5-1-0.4c-1.1,0-2.3,0-3.4,0c-0.6,0-0.8,0.2-0.7,0.7c0,0.1,0,0.2,0,0.3
	c-0.1,0.5,0.1,0.7,0.6,0.6s1.2,0,1.8,0c0.4,0.1,0.8-0.1,1-0.5v2.1c-0.2-0.3-0.6-0.5-1-0.4h-1.4c-1,0-1,0-1,1s-0.1,0.9,0.9,0.9h3.4
	c0.4,0.1,0.7-0.2,0.8-0.5v2.3c-0.3-0.4-0.8-0.4-1.2-0.4h-5.9c0.3-0.4,0.5-1,0.4-1.5c0-1.6,0-3.2,0-4.8c0.1-0.4,0-0.8-0.3-1.2h6
	C136.7,45.5,137.1,45.6,137.3,45z"/>
<path class="st2" d="M172.5,46.3l-0.9,1.7c-0.8-1-2.1-1.5-3.4-1.2c-0.2,0-0.5,0.1-0.7,0.3c-0.3,0.1-0.4,0.4-0.4,0.7
	c0,0.3,0.3,0.5,0.6,0.5c0.6,0.1,1.3,0.1,1.9,0.2c0.6,0,1.2,0.2,1.7,0.4c1,0.4,1.5,1.6,1.1,2.6c-0.2,0.4-0.4,0.7-0.8,0.9
	c-1.2,0.8-2.6,1-4,0.7c-0.5-0.1-0.9-0.2-1.3-0.4c-0.3-0.2-0.6-0.2-0.9-0.1c0.2-0.7,0.5-1.3,0.8-1.9c1.1,1.2,2.8,1.5,4.3,0.9
	c0.3-0.1,0.5-0.4,0.4-0.8c-0.1-0.4-0.4-0.5-0.7-0.6c-0.9-0.1-1.8-0.1-2.7-0.3c-1.2-0.2-1.8-0.8-1.9-1.6c-0.2-1.1,0.5-2.1,1.5-2.4
	c1.3-0.5,2.8-0.5,4.2,0.1c0.4,0.1,0.7,0.5,1.3,0.2L172.5,46.3z"/>
<path class="st2" d="M119.9,45.6c-0.2,0.4-0.6,0.5-0.9,0.8c-0.7,0.6-1.5,1.3-2.3,1.9c-0.3,0.3-0.3,0.4-0.1,0.7
	c1.1,1.4,2.3,2.8,3.6,4h-2.8c-0.1,0-0.2-0.1-0.1-0.2c0.3-0.2,0.1-0.4,0-0.6c-0.6-0.7-1.2-1.5-1.8-2.2c-0.2-0.3-0.4-0.3-0.6-0.1
	c-0.8,0.8-1,2.2-0.4,3.2c-0.8,0.1-1.6,0.1-2.4,0c0.4-0.2,0.5-0.6,0.5-1c0-1.8,0-3.6,0-5.4c0-0.4,0.1-0.7-0.3-1h2.2
	c-0.6,0.9-0.1,1.9-0.2,3c0.9-0.8,1.9-1.6,2.8-2.4c0.3-0.2-0.1-0.4-0.2-0.6L119.9,45.6z"/>
<path class="st2" d="M77.8,45.6h2.5c-0.5,0.4-0.3,0.8-0.1,1.2c0.8,1.6,1.5,3.2,2.3,4.8c0.2,0.6,0.5,1.1,1,1.4h-2.7
	c0.6-0.6,0-1.1-0.2-1.6c-0.1-0.3-0.3-0.3-0.6-0.3c-0.7,0-1.4,0-2.1,0c-0.3,0-0.7-0.1-0.8,0.3s-0.7,0.9,0,1.5h-2.4
	c0.6-0.6,1.1-1.3,1.3-2.2c0.7-1.4,1.3-2.8,2-4.2C78.1,46.2,78.2,45.9,77.8,45.6z M78.9,47.6l-1.1,2.2c-0.1,0.2,0,0.3,0.2,0.3h1.5
	c0.3,0,0.4-0.1,0.3-0.4C79.6,49,79.3,48.3,78.9,47.6L78.9,47.6z"/>
<path class="st2" d="M155.1,45.2v2c-0.8-0.5-1.7-0.2-2.6-0.3c-0.3,0-0.2,0.2-0.2,0.4c0,1.7,0,3.4,0,5c0,0.3,0.2,0.4,0.3,0.7h-2.4
	c0.5-0.3,0.4-0.8,0.4-1.2c0-1.4,0-2.8,0-4.2c0-0.6-0.2-0.7-0.7-0.7c-0.4,0-0.8,0-1.2,0c-0.4-0.1-0.7,0.1-0.9,0.5v-2.3
	c0.3,0.5,0.7,0.4,1,0.4h5.1C154.4,45.5,154.8,45.6,155.1,45.2z"/>
<path class="st1" d="M97.1,48.9H97c-1.6,0-1.6,0-1.4-1.6c0-0.3,0.1-0.4,0.4-0.4c0.9,0,1.8,0,2.7,0.1c0.5,0,0.9,0.3,0.9,0.8
	c0,0,0,0.1,0,0.1c0,0.6-0.4,0.9-0.9,1S97.6,48.9,97.1,48.9L97.1,48.9z"/>
<path class="st1" d="M78.9,47.5c0.3,0.8,0.6,1.5,1,2.2c0.2,0.3,0,0.4-0.3,0.4h-1.5c-0.2,0-0.3-0.1-0.2-0.3L78.9,47.5z"/>
</svg>
