<?xml version="1.0" encoding="utf-8"?>
<!-- Generator: Adobe Illustrator 21.1.0, SVG Export Plug-In . SVG Version: 6.00 Build 0)  -->
<svg version="1.1" id="Layer_1" xmlns="http://www.w3.org/2000/svg" xmlns:xlink="http://www.w3.org/1999/xlink" x="0px" y="0px"
	 viewBox="0 0 201.1 59.8" style="enable-background:new 0 0 201.1 59.8;" xml:space="preserve">
<style type="text/css">
	.st0{fill:#6EB43F;}
	.st1{fill:#010101;}
	.st2{fill:#FDFEFD;}
</style>
<title>Casual dining</title>
<path class="st0" d="M0.5,22.2c0.1-0.8,0.3-1.7,0.4-2.6c1.3-5.7,4.1-10.3,9.4-13C14.6,4.4,19.5,4,24,5.5c4.9,1.4,8.4,5.6,9,10.7
	c1.1,5.8-0.4,11.9-4.2,16.5c-2.9,3.6-7.1,5.8-11.6,6.2c-2.8,0.4-5.7,0-8.3-1.1c-4.1-1.6-7-5.2-7.9-9.5c-0.2-0.8-0.3-1.5-0.5-2.3
	C0.5,24.7,0.5,23.4,0.5,22.2z M9.6,23.3c-0.1,1.9,0.3,3.7,1.2,5.4c0.9,1.7,2.6,2.9,4.6,3c2.4,0.2,4.7-0.9,6.1-2.9
	c1.6-2.1,2.5-4.6,2.7-7.2c0.3-2,0-4.1-0.8-6c-0.9-2.4-3.4-3.9-5.9-3.7c-2.1,0.2-4,1.3-5.2,3C10.6,17.3,9.6,20.3,9.6,23.3z"/>
<path class="st1" d="M111.9,59.3l-4.4-5.1l-1.5-1.8c0,0.3,0,0.5,0,0.6c0,1.9,0,3.8,0,5.6c0,0.2,0,0.3-0.3,0.4
	c-1.1,0-1.1,0.1-1.1-1.1c0.1-2.6,0.1-5.3,0.1-7.9c0-0.2-0.1-0.4,0.1-0.5s0.3,0.1,0.4,0.3l5.3,6.2l0.3,0.4c0.2-0.1,0.1-0.3,0.1-0.4
	c0-1.9,0.1-3.9-0.1-5.8c0-0.3,0.1-0.4,0.4-0.4c1.1,0,1.1,0,1,1c-0.1,2.7-0.1,5.4-0.1,8.1c0,0.1,0,0.2-0.1,0.4L111.9,59.3z"/>
<path class="st1" d="M76.8,59.3c0-0.1-0.1-0.1-0.2-0.1c-1.5-0.4-2.5-1.8-2.4-3.3c0-1.9,0-3.8-0.1-5.7c0-0.3,0.1-0.3,0.3-0.3
	c1.1,0,1.1,0,1.1,1c0,1.7,0,3.4,0,5.1c0.1,1.3,1.3,2.3,2.6,2.1c1.2-0.1,2.1-1.1,2.2-2.4c0-1.9,0.1-3.8-0.1-5.7
	c0-0.4,0.3-0.3,0.4-0.3c0.3,0.1,1-0.4,1,0.2c0.1,1.9,0,3.8,0,5.6c0.1,1.7-1.2,3.3-2.9,3.5c0,0,0,0.1,0,0.1L76.8,59.3z"/>
<path class="st1" d="M49.2,59.3c-0.4-0.1-0.8-0.3-1.2-0.4c-0.4-0.1-0.6-0.4-0.6-0.8c0,0,0-0.1,0-0.1c0-0.2,0-0.5,0.1-0.8
	c0.7,0.5,1.6,0.8,2.4,0.9c1.1,0.1,1.8-0.5,1.8-1.5c0-0.4-0.2-0.7-0.5-0.9c-0.4-0.3-0.9-0.7-1.4-0.9c-0.3-0.2-0.7-0.4-1-0.6
	c-0.8-0.5-1.3-1.4-1.1-2.3c0.2-1.1,1-1.9,2-2.1c0.9-0.2,1.8-0.1,2.6,0.3c0.4,0.2,0.5,0.4,0.3,0.8s-0.3,0.6-0.8,0.3
	c-0.6-0.4-1.3-0.5-1.9-0.2c-0.6,0.2-1,0.8-0.8,1.5c0.1,0.2,0.2,0.4,0.4,0.6c0.4,0.3,0.8,0.5,1.2,0.8c0.4,0.2,0.8,0.4,1.1,0.7
	c0.9,0.5,1.4,1.6,1.2,2.6c-0.2,1.1-1,1.9-2,2.2c-0.1,0-0.2,0-0.3,0.1L49.2,59.3z"/>
<path class="st1" d="M200.5,37.3c-0.3,0.6-0.8,1.2-1.5,1.4c-1.2,0.3-2.4-0.4-2.7-1.5c-0.3-1,0.2-2.1,1.1-2.6c1.1-0.5,2.3,0,2.9,1
	c0.1,0.1,0,0.3,0.2,0.3L200.5,37.3z M198.4,34.8c-1,0-1.8,0.7-1.9,1.7c0,0,0,0,0,0.1c0,1,0.8,1.8,1.8,1.8c1,0,1.8-0.8,1.8-1.8
	C200.2,35.7,199.4,34.9,198.4,34.8z"/>
<path class="st1" d="M72.9,7.5C72,12.8,71.3,18,70.4,23.2c0.3-0.1,0.3-0.3,0.5-0.5c1.3-2.1,3.2-3.8,5.3-4.9c1.3-0.6,2.7-0.8,4.1-0.6
	c1.6,0.2,2.8,1.4,2.9,3c0.1,1.5,0,3-0.3,4.5c-0.4,2.5-0.8,5-1.2,7.5c-0.2,1.4,0.2,1.8,1.6,1.4l0.5-0.1c0,0.4,0,0.7-0.1,1.1
	c-0.1,1-0.2,1.9-0.4,2.9c0,0.2,0,0.4-0.3,0.5c-2.2,0.8-4.6,1-6.9,0.7c-1.3-0.1-2.3-1.3-2.3-2.6c0-1.7,0.1-3.3,0.5-4.9
	c0.3-2,0.7-4,0.9-6.1c0.1-0.5,0.2-1.1-0.3-1.4c-0.5-0.3-1.1-0.2-1.6,0.1c-0.8,0.4-1.4,1-2,1.7c-1.2,1.5-2,3.3-2.2,5.2
	c-0.3,2.4-0.8,4.8-1,7.2c0,0.3-0.1,0.3-0.3,0.3h-7.1c-0.3,0-0.3-0.1-0.3-0.4c0.9-4.7,1.5-9.5,2.3-14.2c0.6-4,1.2-8,1.8-12
	c0.2-1.1,0.3-2.1,0.4-3.2C65,8.2,65.1,8,65.4,8C67.9,8,70.4,7.8,72.9,7.5z"/>
<path class="st1" d="M59.1,29.2l-0.8,4.6l-0.4,2.5c0,0.3-0.1,0.5-0.4,0.7c-5.2,2.4-10.3,2.8-15.5,0.1c-3.3-1.8-5.6-5.1-6-8.9
	c-1-5.3,0.6-10.8,4.3-14.8c3.1-3.4,7.4-5.3,12-5.3c3.1-0.1,6.1,0.7,8.8,2.2c0.3,0.1,0.5,0.4,0.4,0.7c0,0,0,0.1-0.1,0.1
	c-0.7,1.9-1.4,3.8-2.1,5.7c0,0.1-0.1,0.2-0.1,0.3c-1.3-1-2.8-1.7-4.4-2c-4.7-1-9.3,1.9-10.4,6.6c0,0.1-0.1,0.3-0.1,0.4
	c-0.4,1.6-0.4,3.4,0.1,5c0.8,2.7,3.1,4.6,5.8,4.8c2.9,0.3,5.8-0.5,8.2-2.2L59.1,29.2z"/>
<path class="st1" d="M107.5,33.5c-0.2,1.4-0.4,2.8-0.6,4.1c0,0.2-0.1,0.3-0.3,0.3c-2,0.8-4.2,1-6.3,0.7c-1.3-0.2-2.3-1.2-2.4-2.6
	c-0.1-0.9,0-1.8,0.1-2.7c-0.2,0.1-0.3,0.3-0.4,0.5c-1,2.1-2.8,3.7-4.9,4.6c-2.6,1.2-5.7,0-6.9-2.7c-0.2-0.5-0.4-1.1-0.4-1.7
	c-1.1-5.9,1.3-11.8,6.1-15.3c2.5-2.1,6-2.4,8.9-0.9c0.3,0.1,0.5,0.3,0.7,0.5c0.3,0.4,0.9,0.4,1.3,0.2c1.2-0.6,2.4-1.1,3.6-1.6
	c0.5,0,1.1,0.1,1.5,0.4c0.1,0.1,0,0.3,0,0.4c-0.6,3.8-1.1,7.6-1.7,11.4c-0.2,1-0.3,2-0.4,3c0,0.1,0,0.2,0,0.3c0,1,0.3,1.2,1.3,1
	C106.9,33.6,107.2,33.6,107.5,33.5z M92.8,30.1c0,0.6,0.1,1.2,0.3,1.7c0.3,0.8,1.2,1.2,2,0.9c0,0,0.1,0,0.1,0c0.4-0.1,0.7-0.4,1-0.6
	c0.7-0.7,1.3-1.6,1.7-2.5c0.7-1.8,1.1-3.6,1.3-5.5c0.2-1,0-1.3-1.1-1.5c-0.7-0.1-1.5,0-2.1,0.5c-0.6,0.4-1.1,0.9-1.5,1.5
	C93.4,26.3,92.9,28.2,92.8,30.1L92.8,30.1z"/>
<path class="st1" d="M156.1,47.3l0.9-1.6c1.6-2.8,3.1-5.6,4.7-8.3c0.2-0.3,0.3-0.7,0.1-1.1c-1.6-5.8-3.2-11.6-5-17.3
	c-0.3-1-0.3-1,0.8-1.1c2-0.1,4-0.3,6.1-0.4c0.5,0,0.6,0.1,0.7,0.6c0.7,3.6,1.5,7.2,2.2,10.8c0,0.1,0.1,0.2,0.1,0.3
	c1-2.3,2-4.6,2.9-6.9c0.6-1.4,1.1-2.7,1.7-4.1c0.1-0.2,0.1-0.3,0.4-0.3c2.6,0,5.1,0,7.7-0.2c-0.1,0.3-0.2,0.5-0.3,0.8
	c-4,7.7-8,15.4-12.1,23.2c-0.9,1.7-1.8,3.3-2.6,5c-0.1,0.2-0.2,0.3-0.4,0.3c-2.5,0.1-5.1,0.2-7.6,0.5
	C152.5,47.7,156.1,47.3,156.1,47.3z"/>
<path class="st1" d="M155.3,30.4l-0.7,3.9c-0.1,0.5-0.2,0.9-0.3,1.4c0,0.6-0.4,1.1-1,1.3c-2.6,1.3-5.4,2-8.3,1.9
	c-2.9-0.2-5.4-1.1-7.1-3.7c-1.1-1.8-1.6-3.9-1.3-6c0.3-4.9,3.3-9.1,7.8-11c2.4-1.1,5.1-1.3,7.6-0.5c2,0.5,3.6,2.2,3.9,4.3
	c0.4,1.8-0.3,3.6-1.6,4.8c-1.7,1.4-3.6,2.4-5.7,2.9c-1.3,0.4-2.7,0.7-4.1,1c-0.4,0.1-0.5,0.2-0.4,0.6c0.3,1.5,1.8,2.5,3.3,2.2
	c1.3-0.1,2.5-0.5,3.7-1c0.7-0.3,1.4-0.6,2-0.9S154.5,30.8,155.3,30.4z M144.3,27.3c1.4-0.3,2.7-0.9,3.9-1.6c0.7-0.4,1.2-1.1,1.3-1.9
	c0.1-0.7-0.3-1.4-1.1-1.6c-0.1,0-0.2,0-0.2,0c-0.7,0-1.4,0.2-1.9,0.7C145.1,24.1,144.4,25.7,144.3,27.3L144.3,27.3z"/>
<path class="st1" d="M186.7,38.9c-2.7,0-5.3-0.8-7.7-2.1c-0.3-0.1-0.5-0.5-0.4-0.8c0.3-1.4,0.6-2.9,0.8-4.3c0.1-0.5,0.2-0.4,0.5-0.2
	c1.7,1,3.5,1.7,5.4,2.2c0.8,0.2,1.6,0.2,2.3,0.1c0.5-0.1,0.9-0.5,1-1c0.1-0.5-0.1-1-0.5-1.2c-0.7-0.5-1.5-0.9-2.3-1.3
	c-0.8-0.4-1.6-0.8-2.4-1.3c-4-2.5-3.3-7.9-0.2-10.1c1.5-1,3.2-1.6,4.9-1.7c2.6-0.2,5.2,0.4,7.6,1.6c0.4,0.2,0.5,0.3,0.3,0.8
	c-0.6,1.3-1.1,2.5-1.7,3.8c-0.1,0.4-0.2,0.5-0.6,0.2c-1-0.7-2.2-1.1-3.3-1.3c-0.6-0.1-1.3-0.1-1.9,0.1c-0.5,0.2-0.8,0.6-0.9,1.1
	c-0.1,0.5,0.2,1,0.6,1.2c0.7,0.5,1.4,0.9,2.2,1.2c0.9,0.4,1.8,0.9,2.7,1.5c2.6,1.7,3.4,5.3,1.6,7.9c-0.1,0.1-0.2,0.3-0.3,0.4
	c-1.3,1.6-3.2,2.7-5.2,3C188.3,38.8,187.5,38.9,186.7,38.9z"/>
<path class="st1" d="M135.8,33.5c-0.2,1.4-0.4,2.8-0.5,4.1c0,0.2-0.1,0.3-0.3,0.3c-2.2,0.8-4.5,1-6.8,0.7c-1.4-0.1-2.4-1.3-2.3-2.7
	c0-1.4,0.1-2.9,0.4-4.3c0.6-4,1.2-8.1,1.8-12.1c0.4-2.8,0.9-5.7,1.3-8.5c0.1-0.8,0.2-1.7,0.3-2.6c0-0.3,0.1-0.5,0.5-0.5
	c2.4,0,4.7-0.2,7.1-0.5c0.3,0,0.3,0,0.3,0.3c-0.9,4.6-1.4,9.3-2.1,13.9c-0.5,3.6-1.1,7.1-1.6,10.7c0,0.1,0,0.2,0,0.3
	c-0.1,0.8,0.2,1.1,1,1C135.1,33.7,135.4,33.6,135.8,33.5z"/>
<path class="st1" d="M118.6,23.1c0.7-1.2,1.5-2.4,2.4-3.4c1.2-1.3,2.8-2.2,4.5-2.5c0.6-0.1,0.6-0.1,0.6,0.5
	c-0.3,2.2-0.6,4.3-0.9,6.4c-0.1,0.5-0.2,0.7-0.8,0.7c-2.9-0.4-5.6,1.3-6.6,4c-0.3,1-0.5,2-0.5,3c-0.3,2-0.7,4-0.8,6
	c0,0.2-0.1,0.3-0.3,0.3H109c-0.3,0-0.3-0.1-0.2-0.3c0.9-4.9,1.6-9.8,2.3-14.7c0.2-1.5,0.3-3.1,0.2-4.7c0-0.4,0-0.5,0.5-0.5
	c2.1,0,4.3-0.2,6.4-0.6c0.5-0.1,0.6,0,0.6,0.5C118.9,19.6,118.8,21.3,118.6,23.1c-0.1,0-0.1,0.1-0.1,0.2L118.6,23.1z"/>
<path class="st0" d="M34.7,14.7c0.4-3.4,0.6-6.8,1.2-10.2c0.1-0.6,0.3-1.2,0.5-1.8c0.5-1.3,1.7-2.2,3.1-2.2c1.5-0.1,2.9,0.6,3.8,1.8
	c0.3,0.6,0.4,1.2,0.1,1.8c-0.4,1.1-1,2.1-1.7,3c-2,2.7-4,5.4-6.1,8.1c-0.1,0.2-0.2,0.5-0.5,0.4c-0.3-0.1-0.5-0.5-0.5-0.8
	C34.6,14.8,34.7,14.8,34.7,14.7z"/>
<path class="st1" d="M145,54.1c1.3,0.4,2.1,1.7,1.7,3c-0.3,1-1.2,1.8-2.3,1.8c-1.2,0.1-2.4,0.2-3.6,0.1c-0.2,0-0.3-0.1-0.2-0.3
	c0.1-2.9,0.1-5.7,0-8.6c0-0.1-0.1-0.3,0.1-0.3c1.3,0,2.7-0.3,4,0.2c1,0.3,1.7,1.3,1.6,2.3C146.3,53.2,145.8,53.8,145,54.1z
	 M142,56.3c0,0.4,0,0.8,0,1.2c0,0.1,0,0.3,0.2,0.3c0.8,0.1,1.6,0.1,2.3-0.1c0.6-0.2,1-0.8,1-1.4c0-0.6-0.4-1.1-1-1.3
	c-0.5-0.2-1-0.2-1.4-0.2c-1.1,0-1.1,0-1.1,1C142,56,142,56.2,142,56.3L142,56.3z M142,52.3c0,0.4,0,0.8,0,1.1c0,0.2,0,0.3,0.2,0.3
	c0.6,0.1,1.1,0,1.7-0.1c0.7-0.1,1.2-0.6,1.2-1.3c0-0.7-0.4-1.1-1.2-1.3c-0.2,0-0.4-0.1-0.5-0.1C142,50.9,142,50.9,142,52.3L142,52.3
	z"/>
<path class="st1" d="M91.6,59c-0.5,0.1-0.9,0.1-1.3,0.2c-0.3,0-0.3-0.1-0.4-0.3l-1.9-3c-0.4-0.3-1-0.5-1.6-0.4
	c-0.2,0.1-0.1,0.3-0.1,0.4c0,0.9,0,1.9,0,2.9c0,0.3-0.1,0.4-0.4,0.4c-1.1,0-1.1,0-1-1c0.1-2.6,0.1-5.1,0-7.7c0-0.4,0-0.5,0.4-0.5
	c0.9,0,1.8-0.1,2.7,0c0.3,0,0.5,0.1,0.8,0.1c1,0.2,1.8,1,2,2.1c0.2,1.1-0.3,2.3-1.4,2.8c-0.4,0.3-0.5,0.4-0.2,0.8
	C90.1,56.7,90.8,57.8,91.6,59z M86.3,52.6v0.3c0,1.6,0,1.6,1.6,1.4c0.9-0.1,1.6-0.8,1.6-1.7c0.1-0.9-0.6-1.6-1.4-1.7c0,0,0,0,0,0
	c-0.5,0-1,0-1.5,0c-0.3,0-0.2,0.2-0.2,0.3C86.3,51.7,86.3,52.2,86.3,52.6z"/>
<path class="st1" d="M34.4,55.2c0.8,1.3,1.7,2.5,2.7,3.8l-1.4,0.2c-0.3,0-0.3-0.2-0.4-0.3l-2-3.1c-0.5-0.3-1-0.4-1.5-0.3
	c-0.1,0.1-0.1,0.2-0.1,0.4c0,1,0,1.9,0,2.9c0,0.3-0.1,0.3-0.3,0.3c-1.1,0-1.1,0-1.1-1c0.1-2.6,0.1-5.1,0-7.7c0-0.3,0-0.5,0.4-0.5
	c0.9,0,1.9-0.1,2.8,0c0.3,0,0.7,0.1,1,0.3c0.9,0.3,1.6,1.1,1.7,2c0.2,1-0.3,2.1-1.2,2.7C34.9,54.9,34.7,55,34.4,55.2z M31.8,52.6
	v0.3c0,1.6,0,1.6,1.6,1.4c0.9-0.1,1.6-0.8,1.6-1.7c0.1-0.9-0.6-1.6-1.4-1.7c0,0,0,0-0.1,0c-0.5,0-1,0-1.5,0c-0.2,0-0.2,0.1-0.2,0.3
	C31.8,51.7,31.8,52.2,31.8,52.6z"/>
<path class="st1" d="M163.7,55.2c0.9,1.3,1.7,2.5,2.7,3.8l-1.4,0.2c-0.2,0-0.3-0.2-0.4-0.3l-2-3.1c-0.5-0.3-1-0.4-1.6-0.2
	c-0.1,0.1-0.1,0.2-0.1,0.4c0,0.9,0,1.9,0,2.9c0,0.3-0.1,0.4-0.4,0.4c-1,0-1,0-1-1c0-2.6,0.1-5.3,0-7.9c0-0.1-0.1-0.3,0.2-0.3
	c1.2-0.1,2.3-0.1,3.5,0.1c1.1,0.2,2,1,2.2,2.1c0.2,1.2-0.4,2.4-1.5,2.9L163.7,55.2z M161.1,52.6c0,0.5,0,1,0,1.4
	c0,0.2,0.1,0.3,0.3,0.3c0.5,0,0.9,0,1.4,0c0.9-0.1,1.6-0.8,1.5-1.7c0.1-0.8-0.5-1.6-1.4-1.7c0,0-0.1,0-0.1,0c-0.5-0.1-0.9,0-1.4,0
	c-0.2,0-0.3,0.1-0.3,0.3C161.1,51.7,161.1,52.2,161.1,52.6L161.1,52.6z"/>
<path class="st1" d="M157.2,59L157.2,59c-1.3,0.2-1.3,0.2-1.8-1c-0.2-0.4-0.4-0.8-0.5-1.2c-0.1-0.3-0.4-0.5-0.7-0.5
	c-1,0-1.9,0-2.9,0c-0.3,0-0.6,0.2-0.6,0.5c-0.2,0.6-0.5,1.2-0.7,1.8c-0.1,0.3-0.3,0.5-0.6,0.4c0,0,0,0,0,0c-0.3,0-0.6,0-1,0l1.4-3
	c0.9-2,1.9-4,2.8-6.1c0.1-0.2,0.2-0.3,0.4-0.4s0.2,0.2,0.3,0.3c1.4,3,2.8,6,4.2,9C157.2,58.9,157.2,59,157.2,59z M154.1,55.3
	l-1.4-3.2l-1.4,3.2H154.1z"/>
<path class="st1" d="M93.3,59.1l2.3-5c0.6-1.4,1.3-2.7,1.8-4.1c0.1-0.2,0.1-0.3,0.3-0.3S98,49.8,98,50c1.4,3,2.8,5.9,4.2,8.9
	c0,0.1,0,0.1,0,0.2c-1.4,0.2-1.3,0.2-1.9-1c-0.2-0.5-0.3-1.3-0.8-1.5s-1.1-0.1-1.7-0.1s-1.2,0-1.8,0c-0.2,0-0.4,0.1-0.5,0.3
	c-0.2,0.6-0.5,1.2-0.7,1.8c-0.1,0.4-0.3,0.6-0.8,0.5C93.9,59.1,93.6,59.1,93.3,59.1z M99.1,55.3l-1.4-3.2l-1.4,3.2H99.1z"/>
<path class="st1" d="M63.3,59.1c0.6-1.2,1.1-2.3,1.6-3.5c0.8-1.9,1.7-3.7,2.5-5.6c0.1-0.2,0.2-0.3,0.4-0.4S68,49.8,68,50l4.2,9.1
	c0,0,0,0.1-0.1,0.1c-1.3,0.1-1.3,0.1-1.8-1.1c-0.2-0.5-0.3-1.2-0.8-1.5s-1.1-0.1-1.7-0.1c-0.5,0-0.9,0-1.4,0
	c-0.6-0.1-0.9,0.2-1.1,0.7s-0.4,1-0.6,1.5c-0.1,0.3-0.3,0.5-0.6,0.4C64,59.1,63.6,59.1,63.3,59.1z M69.2,55.3l-1.4-3.2l-1.4,3.2
	H69.2z"/>
<path class="st1" d="M39.8,54.9c0-1.6,0-3.2-0.1-4.8c0-0.3,0-0.4,0.3-0.4c1.5,0.1,3,0.1,4.4,0c0.3,0,0.4,0.1,0.4,0.4
	c-0.1,0.8,0,0.8-0.8,0.8s-1.7,0-2.6,0c-0.3,0-0.4,0.1-0.4,0.4c0,0.7,0,1.3,0,2c0,0.3,0.1,0.4,0.4,0.4c0.8,0,1.5,0,2.3,0
	c0.2,0,0.6-0.1,0.4,0.3s0.3,0.9-0.4,0.9s-1.5,0-2.3,0c-0.3,0-0.4,0-0.4,0.4c0,0.8,0,1.6,0,2.4c0,0.3,0.1,0.4,0.4,0.4
	c1.1,0,2.1,0,3.2,0c0.3,0,0.5,0,0.4,0.4c0,0.1,0,0.2,0,0.3c0,0.3-0.1,0.4-0.4,0.4c-1.5,0-3,0-4.6,0c-0.3,0-0.4,0-0.4-0.4
	C39.8,57.5,39.8,56.2,39.8,54.9z"/>
<path class="st1" d="M119.5,55c0,1.2,0,2.4,0,3.7c0,0.3-0.1,0.4-0.4,0.4c-1.1,0-1,0-1-1c0-2.2,0-4.4,0-6.6c0-0.4-0.1-0.6-0.6-0.5
	c-0.7,0-1.5,0-2.2,0c-0.3,0-0.4-0.1-0.4-0.4c0.1-0.8,0.1-0.8,0.8-0.8c2.1,0.1,4.2,0.1,6.4,0c0.4,0,0.5,0.1,0.4,0.4
	c0,0.1,0,0.3,0,0.4c0,0.3-0.1,0.4-0.4,0.4c-0.7,0-1.5,0-2.2,0c-0.5,0-0.5,0.1-0.5,0.6C119.5,52.7,119.5,53.9,119.5,55L119.5,55z"/>
<path class="st1" d="M59.5,55.1c0,1.2,0,2.4,0,3.6c0,0.3,0,0.4-0.4,0.4c-1,0-1,0-1-1c0.1-2.2,0.1-4.5,0-6.7c0-0.3-0.1-0.4-0.4-0.4
	c-0.8,0-1.5,0-2.3,0c-0.3,0-0.5,0-0.4-0.4c0-0.1,0-0.3,0-0.4c0-0.3,0.1-0.4,0.4-0.4c2.2,0.1,4.5,0.1,6.7,0c0.4,0,0.4,0.1,0.4,0.4
	c-0.1,0.8-0.1,0.8-0.8,0.8c-0.6,0-1.1,0-1.7,0s-0.6,0.1-0.6,0.6c0,1.2,0,2.4,0,3.6L59.5,55.1z"/>
<path class="st1" d="M182.7,15.8c0,0.8-0.3,1.7-0.8,2.4c-0.4,0.7-1,1.4-1.6,2c-0.1,0.1-0.2,0.4-0.4,0.1s-0.6-0.3-0.3-0.7
	c0.3-0.4,0.6-0.8,0.9-1.3c0.6-1.1,0.4-1.6-0.6-2.2c-0.1-0.1-0.2-0.1-0.2-0.3c0-0.7,0.4-1.4,1-1.8c0.6-0.3,1.4-0.1,1.7,0.6
	C182.6,14.9,182.7,15.3,182.7,15.8z"/>
<path class="st1" d="M131.4,56.2c0,0.1,0,0.3,0,0.4c0,0.7-0.3,0.9-0.9,0.7c-0.2-0.1-0.2-0.2-0.1-0.3c0-0.6,0-1.1,0.1-1.7
	c0-0.3-0.1-0.4-0.4-0.4c-0.5,0-1,0-1.5,0c-0.3,0-0.4-0.1-0.3-0.4s-0.3-0.7,0.3-0.6s1,0,1.5,0c0.3,0,0.4-0.1,0.4-0.4
	c0-0.5,0-1.1-0.1-1.6c0-0.3,0-0.4,0.3-0.4c0.1,0,0.3,0,0.4,0c0.3-0.1,0.4,0,0.4,0.4c-0.1,0.6,0,1.1,0,1.7c0,0.3,0.1,0.4,0.3,0.3
	c0.5,0,1.1,0,1.6,0c0.3,0,0.3,0,0.3,0.3c0,0.5-0.2,0.8-0.7,0.7c-0.2,0-0.4,0-0.6,0c-1,0-1,0-0.9,0.9C131.4,56,131.4,56.1,131.4,56.2
	z"/>
<path class="st2" d="M118.6,23.1l-0.1,0.2C118.5,23.2,118.5,23.1,118.6,23.1L118.6,23.1z"/>
<path class="st1" d="M199.3,37.6c-0.3,0.1-0.4,0.1-0.6-0.1c-0.1-0.1-0.2-0.3-0.3-0.4c-0.1-0.1-0.1-0.2-0.3-0.2s-0.1,0.2-0.1,0.3
	c0,0.1,0,0.2,0,0.3c0,0.1-0.1,0.2-0.2,0.2s-0.2-0.1-0.2-0.2c0-0.6,0-1.2,0-1.8c0-0.1,0-0.1,0.1-0.1c0.4-0.1,0.9-0.1,1.3,0.2
	c0.2,0.2,0.3,0.6,0.1,0.8c0,0-0.1,0.1-0.1,0.1c-0.2,0.2-0.1,0.3,0,0.4S199.2,37.4,199.3,37.6z M198.3,35.9c-0.3,0-0.3,0.1-0.3,0.3
	s-0.1,0.4,0.2,0.4s0.5-0.1,0.5-0.4S198.5,35.9,198.3,35.9L198.3,35.9z"/>
</svg>
