<?xml version="1.0" encoding="utf-8"?>
<!-- Generator: Adobe Illustrator 21.1.0, SVG Export Plug-In . SVG Version: 6.00 Build 0)  -->
<svg version="1.1" id="Layer_1" xmlns="http://www.w3.org/2000/svg" xmlns:xlink="http://www.w3.org/1999/xlink" x="0px" y="0px"
	 viewBox="0 0 201 67.5" style="enable-background:new 0 0 201 67.5;" xml:space="preserve">
<style type="text/css">
	.st0{fill:#FFFFFF;}
	.st1{fill:#F2EEDF;}
	.st2{fill:#384D5B;}
	.st3{fill:#AB2430;}
	.st4{fill:#EFE8DB;}
</style>
<title>Casual dining</title>
<rect x="3.1" y="2.7" class="st0" width="163.4" height="62.3"/>
<path class="st1" d="M194.6,18.8c-0.1,0.8,0.3,1.6,1.1,2c0.2,0.1,0.3,0.1,0.5,0.1c0.8,0.1,1.4,0.9,1.3,1.7c0,0.1,0,0.2-0.1,0.3
	c-0.4,1,0.1,2.2,1.1,2.6c0,0,0,0,0.1,0c0.7,0.3,1.1,1.1,0.8,1.9c0,0,0,0.1-0.1,0.1c-0.1,0.2-0.2,0.4-0.3,0.6c-0.3,0.8,0,1.7,0.7,2.2
	c1,0.8,1,1.5,0.2,2.5c-0.6,0.7-0.6,1.8,0,2.5c0.8,0.9,0.8,1.7-0.1,2.4c-0.7,0.5-1,1.4-0.8,2.3c0,0.1,0.1,0.3,0.2,0.4
	c0.5,0.7,0.3,1.6-0.3,2.1c-0.1,0.1-0.2,0.1-0.3,0.2c-0.5,0.2-1,0.7-1.2,1.2c-0.2,0.4-0.2,0.9,0,1.3c0.3,0.8,0,1.6-0.8,2
	c-0.1,0.1-0.3,0.1-0.4,0.1c-0.2,0.1-0.5,0.2-0.7,0.3c-0.6,0.4-1,1.1-0.9,1.8c0.1,0.6-0.2,1.2-0.7,1.6c-0.3,0.2-0.6,0.3-0.9,0.3
	c-1.1-0.1-2.1,0.8-2.1,2c0,0,0,0,0,0c-0.1,0.7-0.7,1.3-1.5,1.3c-0.2,0-0.4,0-0.6-0.1c-1-0.1-1.9,0.5-2.1,1.4c-0.2,0.8-1,1.3-1.8,1.1
	c-0.1,0-0.1,0-0.2-0.1c-0.7-0.3-1.5-0.3-2.1,0.1c-0.4,0.3-0.5,0.7-0.8,1c-0.5,0.6-1.3,0.7-1.9,0.3c-0.5-0.4-1.1-0.5-1.7-0.5
	c-0.4,0-0.7,0.2-1,0.5c-0.3,0.4-0.7,0.6-1.2,0.7c-0.5,0.1-1-0.1-1.3-0.5c-0.4-0.5-1.1-0.8-1.8-0.7c-0.3,0-0.6,0.1-0.9,0.3
	c-0.6,0.6-1.5,0.6-2.1,0c-0.1-0.1-0.2-0.3-0.3-0.4c-0.6-1-1.8-1.3-2.7-0.8c-0.8,0.3-1.7-0.1-2-0.9c0,0,0-0.1,0-0.1
	c-0.2-1-1.2-1.6-2.2-1.4c0,0,0,0-0.1,0c-0.8,0.2-1.7-0.2-1.9-1c0-0.1-0.1-0.2-0.1-0.4c0-1-0.9-1.9-1.9-1.8c-0.1,0-0.2,0-0.2,0
	c-0.8-0.1-1.4-0.8-1.5-1.6c0.1-0.4,0-0.9-0.1-1.3c-0.3-0.6-0.8-0.9-1.4-1.1c-0.9-0.1-1.4-0.9-1.3-1.8c0-0.1,0.1-0.3,0.1-0.4
	c0.3-0.9-0.1-1.8-0.9-2.3c-0.3-0.1-0.6-0.4-0.9-0.6c-0.4-0.5-0.4-1.2-0.1-1.8c0.6-0.9,0.4-2-0.5-2.6c0,0,0,0-0.1,0
	c-0.2-0.2-0.4-0.4-0.6-0.7c-0.3-0.5-0.2-1.1,0.2-1.5c0.3-0.3,0.5-0.6,0.6-1c0.2-0.6,0-1.3-0.4-1.8c-0.6-0.5-0.7-1.4-0.2-2.1
	c0.1-0.2,0.3-0.3,0.4-0.4c0.8-0.6,1-1.7,0.6-2.6c-0.5-0.7-0.4-1.6,0.3-2.1c0.2-0.1,0.3-0.2,0.5-0.3c1-0.5,1.4-1.6,1-2.6
	c-0.2-0.8,0.2-1.7,1.1-1.9c0,0,0.1,0,0.1,0c1-0.1,1.8-1.1,1.6-2.1c0,0,0,0,0,0c-0.1-0.7,0.3-1.5,1-1.7c0.2-0.1,0.3-0.1,0.5-0.1
	c1.1,0,2-0.8,2.1-1.8c0-0.7,0.6-1.3,1.3-1.4c0.2,0,0.3,0,0.5,0c1,0.3,2.1-0.3,2.4-1.3c0,0,0,0,0,0c0.2-0.8,1-1.3,1.8-1.2
	c0.1,0,0.2,0.1,0.3,0.1c0.7,0.4,1.6,0.3,2.2-0.2c0.2-0.2,0.4-0.4,0.5-0.6c0.3-0.7,1.2-1.1,1.9-0.8c0.1,0,0.2,0.1,0.3,0.2
	c0.8,0.7,2,0.7,2.7-0.1c0,0,0.1-0.1,0.1-0.1c0.5-0.6,1.5-0.7,2.1-0.2c0.1,0.1,0.2,0.1,0.2,0.2c0.6,0.8,1.8,1,2.6,0.3l0.3-0.2
	c0.6-0.4,1.5-0.3,1.9,0.4c0,0,0,0.1,0.1,0.1c0.8,1.2,1.4,1.5,2.8,0.9c0.8-0.3,1.7,0.1,2.1,1c0,0,0,0.1,0,0.1c0.3,1,1.3,1.6,2.4,1.3
	c0.7-0.1,1.4,0.2,1.7,0.7c0.1,0.3,0.2,0.7,0.3,1.1c0.2,0.8,1,1.4,1.9,1.4c0.6,0,1.1,0.3,1.5,0.7C194.5,17.9,194.6,18.4,194.6,18.8z
	 M173.6,40.5L173.6,40.5c0-1.2,0-2.3,0-3.5c0.1-1.3-0.8-2.6-2.1-2.8c-1.4-0.4-2.8,0.5-3.2,1.8c-0.1,0.2-0.1,0.4-0.1,0.7
	c0,1.1,0,2.2,0,3.3c0,0.6,0.3,1.2,0.8,1.5c0.8,0.5,1.7,0.4,2.4-0.1c0.1-0.1,0.2-0.2,0.3-0.1s0.1,0.2,0.1,0.3c0,0.8,0,1.6,0,2.5
	s-0.3,1-1,1c-0.5,0.1-0.9-0.3-1-0.8c0-0.1,0-0.1,0-0.2c-0.1-1-0.1-1-1-1h-0.3c-0.1,0-0.2,0-0.2,0.2c-0.1,0.7,0,1.5,0.3,2.2
	c0.7,1.2,2.2,1.6,3.5,1c1-0.4,1.6-1.4,1.6-2.5C173.7,42.8,173.6,41.7,173.6,40.5L173.6,40.5z M187.7,42.6c0-0.6,0-1.1,0-1.6
	c0-0.6-0.2-1.1-0.6-1.5c-0.7-0.6-1.8-0.6-2.5,0c-0.1,0.1-0.2,0.2-0.4,0.1s-0.1-0.2-0.1-0.4c0-0.3,0-0.6,0-0.8c0-0.6,0-1.2,0-1.8
	c0-0.4,0.3-0.8,0.7-0.8c0,0,0.1,0,0.1,0c0.7,0,1,0.3,1,1c0,1.1,0,1.1,1.1,1.1h0.2c0.1,0,0.3-0.1,0.3-0.2c0,0,0,0,0,0
	c0.1-0.6,0.1-1.3-0.1-1.9c-0.5-1.4-2.1-2-3.4-1.5c-0.3,0.1-0.5,0.2-0.7,0.4c-0.7,0.6-1.1,1.5-1,2.4c0,2.3,0,4.5,0,6.8
	c-0.1,1.4,0.9,2.7,2.3,2.8c1.4,0.3,2.7-0.6,3-2C187.7,44,187.8,43.3,187.7,42.6L187.7,42.6z M178,34.3h-1.5c-1.2,0-1.2,0-1.2,1.2
	c0,0.5,0,0.6,0.6,0.6h2.5c0.2,0,0.4-0.1,0.3,0.3c-0.6,1.4-1.2,2.8-1.6,4.3c-0.5,1.8-0.9,3.6-1,5.5c0,0.3,0.1,0.4,0.4,0.4
	s0.7,0,1.1,0s0.5-0.1,0.5-0.5c0.1-1.9,0.4-3.9,0.9-5.8c0.4-1.5,1-3,1.6-4.5c0.1-0.3,0.2-0.6,0.2-0.9c0-0.4-0.1-0.5-0.5-0.5
	C179.5,34.3,178.8,34.3,178,34.3L178,34.3z M165.5,40.4L165.5,40.4c0-1.8,0-3.7,0-5.5c0-0.2,0.1-0.6-0.3-0.6s-0.7-0.2-0.8,0.3
	c-0.1,0.2-0.2,0.4-0.4,0.4c-0.3,0.1-0.4,0.3-0.4,0.6c0,3.3,0,6.5,0,9.8c0,0.2,0,0.5,0,0.7s0.1,0.3,0.3,0.3h1.2
	c0.1,0,0.3-0.1,0.3-0.2c0,0,0,0,0,0c0-0.2,0-0.4,0-0.6C165.5,43.9,165.5,42.2,165.5,40.4z M186.3,23.5L186.3,23.5c0,0.5,0,0.9,0,1.4
	c0,0.2,0,0.4,0.3,0.4c0.5,0.1,1.1,0,1.6-0.1c0.6-0.2,1-0.7,1.1-1.4c0.2-0.7-0.2-1.5-0.9-1.8c-0.6-0.2-1.3-0.3-1.9-0.2
	c-0.2,0-0.2,0.2-0.2,0.3C186.4,22.6,186.4,23,186.3,23.5L186.3,23.5z M167.3,21.8h-0.4c-0.6,0-0.6,0-0.6,0.6c0,0.8,0,1.5,0,2.3
	c0,0.4,0.2,0.6,0.6,0.5s0.3-0.4,0.3-0.7s-0.1-0.4,0.1-0.4s0.2,0.2,0.3,0.3c0.3,0.5,0.5,0.9,1.2,0.8c0.2,0,0.3-0.1,0.2-0.3
	c-0.1-0.2-0.3-0.5-0.4-0.7c-0.3-0.3-0.2-0.4,0-0.7c0.3-0.4,0.3-1,0-1.3C168.3,21.8,167.8,21.7,167.3,21.8z M172.3,21.8
	c-0.3,0-0.6,0-0.7,0.3c-0.3,0.8-0.6,1.7-0.9,2.5c-0.1,0.2-0.3,0.4,0.1,0.5s0.6,0.1,0.8-0.2c0.1-0.5,0.6-0.3,0.9-0.4
	c0.3-0.1,0.5,0.1,0.6,0.3c0,0,0,0,0,0c0.1,0.3,0.5,0.3,0.8,0.2s0.1-0.3,0.1-0.5c-0.3-0.8-0.6-1.6-0.9-2.4
	C172.7,21.9,172.6,21.8,172.3,21.8L172.3,21.8z M182.5,23.5L182.5,23.5c0,0.4,0,0.9,0,1.3c0,0.3,0.1,0.4,0.4,0.4s0.8,0,1.1,0
	s0.5,0,0.5-0.4s-0.2-0.4-0.5-0.4h-0.4c-0.1,0-0.3-0.1-0.3-0.2c0-0.1,0.1-0.3,0.2-0.3c0,0,0,0,0,0h0.3c0.3,0,0.5,0,0.5-0.4
	s-0.2-0.5-0.5-0.4c-0.1,0-0.2,0-0.4,0c-0.1,0-0.2-0.1-0.2-0.2c0,0,0,0,0,0c0-0.1,0.1-0.2,0.2-0.3c0,0,0,0,0,0c0.2,0,0.3,0,0.5,0
	c0.3,0,0.3-0.2,0.4-0.4s-0.1-0.4-0.3-0.4s-0.9,0-1.3,0c-0.3,0-0.4,0.1-0.4,0.4C182.5,22.6,182.5,23,182.5,23.5z M170.3,31h0.2
	c0.7-0.1,1.2-0.6,1.3-1.3c0.1-0.4-0.2-0.7-0.8-0.9h-0.1c-0.1,0-0.2-0.1-0.2-0.2c0-0.1,0.1-0.2,0.2-0.3s0.3,0,0.5,0
	c0.3,0.1,0.4-0.2,0.6-0.4c0.1,0,0.1-0.1,0-0.2c0,0,0,0,0,0c-0.6-0.4-1.5-0.2-1.9,0.4c-0.1,0.1-0.1,0.2-0.1,0.3
	c-0.2,0.6-0.1,0.9,0.5,1.2l0.3,0.1c0.1,0,0.2,0.1,0.2,0.3c0,0.2-0.1,0.2-0.2,0.3c-0.3,0.2-0.5,0-0.7-0.1s-0.4,0.1-0.6,0.3
	s0,0.4,0.3,0.4C169.9,31,170.1,31,170.3,31L170.3,31z M162,23.5c0,0.4,0.1,0.7,0.3,1c0.5,0.7,1.4,0.9,2.1,0.6
	c0.4-0.2,0.2-0.5,0.2-0.8s-0.3,0-0.4,0c-0.5,0.2-1.1-0.1-1.2-0.7c0-0.1,0-0.2,0-0.3c0.1-0.7,0.4-0.9,1.3-0.8c0.1,0,0.4,0.2,0.4-0.1
	s0.1-0.6-0.3-0.7c-0.9-0.3-1.9,0.2-2.2,1.1C162,23.1,162,23.3,162,23.5L162,23.5z M175.4,23.5L175.4,23.5c0,0.4,0,0.8,0,1.3
	s0.1,0.5,0.5,0.4s0.4-0.3,0.4-0.6c0-0.6,0-0.6,0.6-0.7c0.3,0,0.4-0.2,0.4-0.4s-0.1-0.4-0.4-0.4h-0.4c-0.2,0-0.3-0.1-0.3-0.3
	s0.1-0.3,0.3-0.3h0.5c0.4,0,0.3-0.2,0.4-0.5s-0.1-0.3-0.3-0.3c-0.4,0-0.9,0-1.3,0c-0.3,0-0.3,0.1-0.3,0.3
	C175.5,22.6,175.5,23,175.4,23.5L175.4,23.5z M174.8,28.6c-0.3,0-0.6,0-0.6,0.3c0,0.6-0.2,1.1-0.3,1.7c0,0.2,0,0.3,0.2,0.3
	s0.6,0,0.6-0.4c0-0.4,0.1-0.7,0.2-1.1c0.1-0.2,0.2-0.3,0.4-0.2s0.2,0.2,0.2,0.4c0,0.3-0.1,0.6-0.2,0.9c0,0.2-0.1,0.4,0.2,0.4
	s0.6,0.1,0.6-0.2c0.1-0.5,0.2-1,0.2-1.5c0-0.5-0.3-0.7-0.7-0.7S175.1,28.8,174.8,28.6L174.8,28.6z M179.4,23.9L179.4,23.9
	c0,0.3,0,0.6,0,0.9s0.2,0.4,0.5,0.4s0.4-0.1,0.4-0.4c0-0.6,0-1.2,0-1.8c0-0.3,0.1-0.4,0.4-0.4s0.4-0.2,0.4-0.4s-0.2-0.4-0.4-0.4
	c-0.5,0-1,0-1.5,0c-0.3,0-0.4,0.1-0.4,0.4s0,0.5,0.3,0.4s0.4,0.1,0.4,0.4S179.4,23.6,179.4,23.9L179.4,23.9z M180.5,31
	c0.4,0.1,0.8-0.1,1.1-0.4c0.1-0.1,0.2-0.2,0.1-0.3s-0.2-0.1-0.3-0.1c-0.2,0-0.5,0.1-0.7,0.2c-0.2,0-0.4,0-0.5-0.3s0.2-0.2,0.4-0.2
	c0.3,0,0.6,0,0.9,0c0.4,0.1,0.4-0.1,0.4-0.4c0-0.2-0.1-0.5-0.3-0.6c-0.6-0.5-1.5-0.4-1.9,0.2c0,0,0,0.1-0.1,0.1
	c-0.3,0.4-0.4,0.9-0.1,1.4C179.8,30.9,180.2,31.1,180.5,31L180.5,31z M185.3,29.2h-1.4c-0.2,0-0.4,0-0.4,0.3s0.1,0.4,0.4,0.4h2.9
	c0.3,0,0.3-0.1,0.3-0.3s-0.1-0.3-0.3-0.3C186.4,29.2,185.9,29.2,185.3,29.2L185.3,29.2z M178.2,31c0.1,0,0.2,0,0.3,0
	c0.2-0.1,0.2-0.3,0.2-0.5s-0.1-0.2-0.3-0.2c-0.4,0.1-0.6-0.1-0.6-0.5c0-0.3,0.3-0.6,0.7-0.6c0,0,0,0,0.1,0c0.4,0.1,0.3-0.2,0.4-0.3
	s-0.1-0.3-0.3-0.4c-0.7,0-1.4,0.4-1.6,1.1c-0.2,0.5,0.2,1.1,0.7,1.2C177.9,31,178.1,31,178.2,31L178.2,31z M166,29.2h-1.5
	c-0.2,0-0.3,0.1-0.3,0.3s0,0.3,0.2,0.3h3c0.3,0,0.3-0.2,0.3-0.4s-0.1-0.3-0.3-0.3L166,29.2z M173,28.7c-0.3-0.1-0.4,0-0.5,0.3
	c-0.1,0.5-0.1,1-0.2,1.5c0,0.2-0.1,0.4,0.2,0.5s0.5,0,0.6-0.4c0-0.5,0.1-1,0.2-1.5c0.2-0.3,0.2-0.5-0.2-0.4L173,28.7z M173.1,28.3
	c0.3-0.1,0.5-0.2,0.5-0.6c0-0.2-0.1-0.4-0.3-0.4c0,0,0,0-0.1,0c-0.3,0-0.5,0.2-0.5,0.5c0,0,0,0,0,0
	C172.7,28.1,172.9,28.3,173.1,28.3c0.1,0,0.1,0,0.1,0L173.1,28.3z"/>
<path class="st2" d="M168.2,0.5c0.2,0.7,0.2,1.5,0.2,2.3c0,2.8,0,5.6,0,8.3c0,0.5-0.1,0.5-0.5,0.4c-0.6-0.3-1.3-0.3-1.9-0.2
	c-0.4,0.1-0.7,0.3-1,0.6c-0.1,0.1-0.3,0.2-0.4,0.3c0-0.6,0-1.1,0-1.7c0-1.9,0-3.8,0-5.7c0-0.7-0.2-0.9-0.9-0.9c-0.9,0-1.9,0-2.8,0
	H5.2C4.6,4,4.4,4.1,4.4,4.8c0,1,0,1.9,0,2.9c0,18,0,36,0,53.9c0,0.4,0,0.8,0,1.2c0,0.5,0.2,0.8,0.8,0.8h155.7h2.8
	c0.7,0,0.9-0.2,0.9-0.9c0-2.1,0-4.1,0-6.2c0-0.1,0-0.2,0-0.3s0.2,0,0.3,0.1c0.7,0.9,1.9,1.1,2.9,0.6c0.6-0.2,0.6-0.2,0.6,0.4
	c0,2.9,0,5.9,0,8.8c0,0.4-0.1,0.7-0.3,1H0.9c-0.3,0-0.4-0.1-0.4-0.4c0-21.9,0-43.8,0-65.7c0-0.3,0.1-0.4,0.4-0.4H168.2z"/>
<path class="st2" d="M84.4,5.7h77.8c0.3,0,0.5,0.2,0.5,0.4c0,0,0,0.1,0,0.1c0,2.3,0,4.6,0,6.9c0,0.3-0.1,0.4-0.4,0.4
	c-1.3,0.1-2.3,1.1-2.4,2.4c0,0.4-0.3,0.7-0.7,0.6c0,0,0,0,0,0c-1.5,0-2.8,1.2-2.8,2.8c0,0.1,0,0.2,0,0.2c0.1,0.5-0.2,0.7-0.8,0.9
	c-0.2,0-0.4,0.1-0.6,0.2c-0.4,0.2-0.4,0.2-0.4-0.2c0-1,0-2-0.1-3c-0.2-2.1-1.6-3.9-3.6-4.7c-1.8-0.7-3.8-0.5-5.4,0.4
	c-0.8,0.5-1.5,1.2-1.9,2.1c-0.6,1.3-0.8,2.7-0.8,4.1c0,5.9,0,11.8,0,17.7c-0.1,1.5,0.4,2.9,1.2,4.1c1,1.4,2.5,2.2,4.2,2.2
	c1,0.1,2-0.1,2.9-0.4c0.3-0.1,0.6-0.3,0.8-0.5c0.1-0.1,0.3-0.1,0.4,0c0,0,0,0,0,0c0.3,0.3,0.7,0.6,1.1,0.8c0.3,0.1,0.5,0.5,0.4,0.8
	c0,0,0,0,0,0c-0.2,0.5-0.2,1.1,0,1.7c0.2,0.8,0.8,1.4,1.6,1.7h0.1c0.7,0.3,1,0.1,0.9,1.3c0,1.5,1.2,2.6,2.6,2.7
	c0.6,0,0.8,0.2,0.9,0.8c0.2,1.2,1.1,2.1,2.3,2.2c0.4,0,0.5,0.1,0.5,0.5c0,2,0,4,0,6c0,0.5-0.2,0.7-0.7,0.7H7.7c-0.2,0-0.4,0-0.7,0
	c-0.4,0.1-0.8-0.1-0.9-0.4c0-0.1,0-0.2,0-0.2c0-0.4,0-0.8,0-1.2c0-17.4,0-34.8,0-52.2c0-0.4,0-0.9,0-1.3s0.2-0.8,0.8-0.8h77.6V5.7z
	 M25.9,28L25.9,28c0-3,0-5.9,0-8.9c0-1-0.1-2-0.4-2.9C25,14.8,24,13.7,22.8,13c-1.1-0.6-2.3-0.8-3.5-0.6C18,12.5,16.8,13.1,16,14
	c-1.2,1.5-1.9,3.4-1.8,5.3c-0.1,5.2,0,10.3,0,15.5c0,1.2,0,2.5,0.1,3.7c0.1,1.1,0.6,2.2,1.4,3.1c1.8,1.9,4.6,2.5,6.9,1.4
	c2.1-0.9,3.4-3,3.3-5.3C26,34.5,25.9,31.2,25.9,28z M77.3,28.4L77.3,28.4c0,4.8,0,9.6,0,14.3c0,0.6,0.1,0.7,0.7,0.7h2.1
	c1.2,0,1.2,0,1.2-1.2c0-3.7,0-7.3,0-11c0-0.5,0.2-0.8,0.8-0.8h2.3c0.6,0,0.8,0.2,0.8,0.8c0,3.5,0,7,0,10.5c0,0.3,0,0.6,0,0.9
	c0,0.5,0.2,0.8,0.8,0.8h2.6c0.3,0.1,0.6-0.1,0.6-0.4c0-0.1,0-0.1,0-0.2c0-0.2,0-0.3,0-0.5c0-9.4,0-18.8,0-28.2c0-0.1,0-0.2,0-0.3
	c0-0.4-0.2-0.6-0.6-0.7h-2.7c-0.1,0-0.2,0.1-0.3,0.1c-0.2,0.2-0.3,0.5-0.3,0.8c0,3.9,0,7.7,0,11.6c0,0.7-0.1,0.8-0.8,0.8h-2.2
	c-0.6,0-0.8-0.2-0.8-0.8c0-2.7,0-5.5,0-8.2c0-1.2,0-2.5,0-3.7c0-0.3-0.2-0.6-0.5-0.7c0,0,0,0-0.1,0c-0.8,0-1.7,0-2.5,0
	c-0.8,0-0.9,0.1-0.9,1C77.4,19,77.4,23.7,77.3,28.4L77.3,28.4z M41.7,27.9c0,1.8,0,3.5,0,5.3c0,3,0,6,0,9c0,0.6,0.2,0.8,0.8,0.8
	s1.3,0,1.9,0c1.7,0.1,3.3,0,5-0.2c1.2-0.2,2.2-1,2.9-2c0.7-1.2,1.1-2.7,1-4.1c0-4.4,0-8.8,0-13.2c0-1.6,0-3.2,0-4.8
	c0-1.4-0.5-2.7-1.3-3.8c-1.2-1.3-2.9-2.1-4.6-2.1c-1.5-0.1-3.1,0-4.6,0c-0.8,0-0.9,0.2-0.9,0.9C41.7,18.5,41.7,23.2,41.7,27.9
	L41.7,27.9z M132.2,27.7c0-2.8,0-5.6,0-8.4c0-0.5,0-0.9,0-1.4c0-0.9,0.7-1.7,1.6-1.8c0.8-0.1,1.5,0.3,1.8,1c0.3,0.6,0.4,1.2,0.4,1.8
	c0,1.2,0,2.3,0,3.5c0,0.6,0.2,0.8,0.8,0.8h1.6c1.2,0,1.3,0,1.2-1.2c0.1-1.8,0.1-3.6-0.2-5.4c-0.2-1-0.6-1.9-1.3-2.7
	c-1.3-1.4-3.3-2.1-5.3-1.6c-1.3,0.2-2.4,0.8-3.2,1.8c-1,1.3-1.5,2.9-1.5,4.6c0,6.3,0,12.6,0,18.8c0,1,0.2,2,0.7,2.9
	c0.5,1.2,1.5,2.1,2.7,2.6c1.1,0.5,2.3,0.4,3.4-0.1c0.6-0.4,1.2-0.8,1.8-1.2c0.3-0.2,0.5-0.2,0.6,0.2c0.1,0.4,0.4,0.8,0.7,1
	c0.3,0.1,0.7,0.1,1,0.1c0.7,0,0.8-0.1,0.8-0.8c0-4.4,0-8.8,0-13.2c0-0.8-0.1-0.9-0.9-0.9h-4c-0.4,0-0.7,0.2-0.7,0.6c0,0,0,0.1,0,0.1
	c0,0.6,0,1.3,0,1.9c0,0.3,0.2,0.6,0.6,0.7c0,0,0.1,0,0.1,0h0.4c0.4,0,0.7,0.3,0.8,0.7c0,0,0,0.1,0,0.1c0,1.9,0,3.8,0,5.7
	c0,0.4-0.1,0.8-0.3,1.2c-0.5,0.9-1.5,1.2-2.4,0.7c-0.1,0-0.1-0.1-0.2-0.1c-0.7-0.5-1.1-1.4-1-2.3C132.2,34.1,132.2,30.9,132.2,27.7
	L132.2,27.7z M119.9,13.2h-1.4c-0.5-0.1-0.9,0.3-0.9,0.7c0,0,0,0.1,0,0.1c-0.1,0.8-0.1,1.6-0.3,2.3c-0.3,1.7-0.5,3.5-0.7,5.3
	c-0.3,2.1-0.6,4.2-0.9,6.3c-0.2,1.5-0.4,3-0.6,4.5c-0.3,1.9-0.5,3.8-0.7,5.7c-0.1,0.6-0.2,1.2-0.2,1.8c-0.1,1-0.3,1.9-0.4,2.9
	c0,0.5,0.1,0.7,0.6,0.6c0.7,0,1.4,0,2.1,0s0.9-0.1,0.9-0.8c0.2-1.4,0.3-2.9,0.5-4.3c0.1-0.5,0.3-0.7,0.8-0.7h1.9
	c0.7,0,0.9,0.1,0.9,0.9c0.1,1.4,0.3,2.9,0.4,4.3c0,0.4,0.2,0.6,0.6,0.6c1,0,2,0,3,0c0.3,0,0.6-0.2,0.6-0.5c0-0.1,0-0.1,0-0.2
	c-0.2-0.7-0.3-1.5-0.4-2.2c-0.2-1.3-0.3-2.6-0.5-3.9c-0.3-2.3-0.6-4.6-1-6.9c-0.4-2.9-0.7-5.7-1.1-8.6c-0.3-2.4-0.7-4.8-1-7.2
	c0-0.3-0.3-0.6-0.6-0.7C121,13.2,120.4,13.2,119.9,13.2L119.9,13.2z M66.8,27.8L66.8,27.8c0-2.7,0-5.3,0-8c0-0.6,0-1.1,0-1.7
	c0-0.7,0.4-1.3,1-1.6c0.6-0.3,1.4-0.3,2,0.2c0.6,0.6,1,1.4,0.9,2.3c0,1.3,0,2.6,0,3.8c0,0.5,0.2,0.8,0.7,0.8c0.7,0,1.4,0,2,0
	c0.5,0,0.7-0.2,0.7-0.7c0-1.6,0-3.3,0-4.9c0-1.5-0.6-2.9-1.6-4c-1.1-1.1-2.6-1.6-4.1-1.5c-1.8,0-3.5,0.9-4.4,2.5
	c-0.8,1.3-1.3,2.9-1.3,4.5c0,5.8,0,11.6,0,17.3c0,0.9,0.1,1.8,0.3,2.7c0.4,1.4,1.2,2.5,2.4,3.3c1.2,0.7,2.5,1,3.9,0.8
	c0.9,0,1.8-0.4,2.6-0.9c1.4-1.1,2.2-2.7,2.2-4.4c0.1-1.7,0-3.4,0-5.1c0-0.3-0.2-0.6-0.5-0.6c0,0-0.1,0-0.1,0c-0.7,0-1.5,0-2.3,0
	c-0.5,0-0.6,0.2-0.6,0.7c0,1.4,0,2.8,0,4.3c0,0.4,0,0.7-0.1,1.1c-0.3,0.9-1.2,1.4-2.2,1.3c-1-0.3-1.6-1.2-1.6-2.2
	C66.8,34.2,66.8,31,66.8,27.8z M104.4,27.7L104.4,27.7c0-2.9,0-5.9,0-8.8c0-0.5,0-1.1,0.2-1.6c0.5-0.9,1.7-1.3,2.7-0.8
	c0.6,0.5,1,1.2,1,2c0.1,1.4,0,2.8,0,4.2c0,0.6,0.2,0.8,0.7,0.8s1.4,0,2,0c0.5,0,0.7-0.2,0.7-0.7c0-1.3,0-2.6,0-3.8
	c0.1-1.3-0.2-2.5-0.7-3.7c-0.5-1-1.3-1.9-2.4-2.4c-1-0.5-2.2-0.6-3.3-0.5c-1.3,0.1-2.5,0.7-3.3,1.7c-1.2,1.4-1.8,3.2-1.7,5
	c0,6,0,12.1,0,18.1c0,1.2,0.2,2.4,0.8,3.4c0.9,1.6,2.5,2.7,4.3,2.9c1.1,0.2,2.3,0,3.3-0.5c1.6-0.9,2.7-2.5,2.8-4.4
	c0.2-1.8,0.1-3.7,0.1-5.6c0-0.4-0.3-0.6-0.7-0.6h-2c-0.6,0-0.7,0.2-0.7,0.8c0,1.5,0,3,0,4.5c0,0.4-0.1,0.7-0.2,1.1
	c-0.4,0.9-1.5,1.3-2.5,0.8c-0.1-0.1-0.3-0.1-0.4-0.2c-0.6-0.6-0.9-1.4-0.9-2.3C104.5,33.9,104.5,30.8,104.4,27.7L104.4,27.7z
	 M29.4,28L29.4,28c0,4.8,0,9.6,0,14.3c0,0.5,0.2,0.7,0.7,0.7h8c0.5,0,0.7-0.2,0.7-0.6c0-0.8,0-1.6,0-2.3c0-0.6-0.2-0.8-0.8-0.8h-3.9
	c-0.6,0-0.8-0.2-0.8-0.8c0-8.3,0-16.6,0-24.9c0-0.6-0.2-0.8-0.8-0.8h-2.2c-0.8,0-0.9,0.2-0.9,0.9C29.5,18.5,29.5,23.2,29.4,28
	L29.4,28z M92.9,28.4c0,2.7,0,5.4,0,8.1c0,2.1,0,4.2,0,6.3c0,0.6,0.1,0.7,0.7,0.7h2.6c0.4,0,0.7-0.2,0.7-0.6c0-0.1,0-0.1,0-0.2
	c0-0.5,0-0.9,0-1.4c0-8.8,0-17.7,0-26.5c0-0.3,0-0.5,0-0.8c0-0.4-0.2-0.7-0.6-0.7c0,0-0.1,0-0.1,0h-2.2c-0.8,0-1,0.1-1,1
	C92.9,19,92.9,23.7,92.9,28.4L92.9,28.4z M132.2,52c0.2,0.1,0.3,0.3,0.4,0.6c0.3,0.7,0.6,1.4,0.8,2.1c0.1,0.3,0.3,0.3,0.5,0.3
	c0.5,0,0.5-0.4,0.6-0.7c0.3-0.7,0.5-1.3,0.8-2c0-0.1,0.1-0.2,0.2-0.2s0.1,0.1,0.1,0.2c0,0.5,0.2,1,0.2,1.6c0,1.1,0.1,1.1,1.2,1.1
	c0.4,0,0.5-0.2,0.4-0.5c-0.1-0.7-0.2-1.3-0.4-2s-0.2-1.4-0.4-2.2c-0.2-0.9-0.2-0.9-1.2-0.9c-0.3,0-0.5,0.1-0.6,0.4
	c-0.3,0.7-0.5,1.4-0.8,2.1c0,0.1-0.1,0.2-0.2,0.2s-0.1-0.1-0.2-0.2c-0.2-0.6-0.4-1.2-0.7-1.8s-0.3-0.7-1.1-0.7
	c-0.6,0-0.6,0.1-0.7,0.6s-0.2,1.3-0.3,1.9c-0.1,0.9-0.3,1.8-0.4,2.7c0,0.2,0,0.3,0.2,0.4c1,0.2,1.2,0,1.3-1c0-0.1,0-0.1,0-0.2
	C132.1,53.2,132.2,52.6,132.2,52L132.2,52z M148.2,50.9L148.2,50.9c-2,0-3.9,0-5.9,0c-1.3,0-1-0.3-1.1,1.1c0,0.3,0.1,0.5,0.5,0.5
	h12.5c1.1,0,1.1,0.1,1.1-1.1c0-0.4-0.1-0.5-0.5-0.5C152.6,50.9,150.4,50.9,148.2,50.9L148.2,50.9z M20.7,50.9h-6c-1,0-1-0.1-1,1
	c0,0.5,0.1,0.6,0.6,0.6h12.4c1,0,1,0,1-1.1c0-0.4-0.1-0.6-0.6-0.6C25,50.9,22.8,50.9,20.7,50.9L20.7,50.9z M121.5,52.1
	c0,1.7,1.3,3,3,3c0,0,0.1,0,0.1,0c1.6,0,3-1.4,3-3c0-1.7-1.3-3-3-3c0,0-0.1,0-0.1,0c-1.6-0.1-2.9,1.1-3,2.7
	C121.5,51.9,121.5,52,121.5,52.1z M118.5,52.1c0-1.7-1.3-3.1-3-3.1c-1.7,0-3.1,1.3-3.1,3c0,1.6,1.2,3,2.8,3.1c1.6,0.2,3.1-1,3.3-2.7
	C118.5,52.3,118.5,52.2,118.5,52.1L118.5,52.1z M75.5,55h0.4c0.1,0,0.2,0,0.2-0.1s0-0.2-0.1-0.3l-0.4-0.5c-0.4-0.4-0.4-0.4,0-0.7
	c0.2-0.1,0.4-0.3,0.3-0.5c-0.1-0.3-0.3-0.5-0.6-0.7c-0.2-0.1-0.3,0.1-0.5,0.3c-0.4,0.4-0.4,0.4-0.8,0c-0.2-0.2-0.3-0.4,0.1-0.5
	c0.7-0.4,0.9-1.2,0.6-1.9c0-0.1-0.1-0.2-0.2-0.2c-0.6-0.7-1.6-0.9-2.5-0.4c-0.7,0.4-1,1.3-0.6,2c0,0,0,0.1,0,0.1
	c0.1,0.2,0.2,0.4-0.1,0.5c-0.1,0.1-0.3,0.1-0.4,0.2c-0.7,0.5-0.8,1.5-0.3,2.2c0.1,0.1,0.2,0.3,0.4,0.4c0.8,0.5,1.9,0.5,2.7,0
	c0.1-0.1,0.3-0.2,0.4-0.1C74.6,55,75,54.9,75.5,55L75.5,55z M105.1,52.2L105.1,52.2c0,0.8,0,1.6,0,2.4c0,0.1,0,0.3,0.1,0.3
	c0.4,0.1,0.8,0.1,1.2,0c0.2,0,0.1-0.2,0.1-0.3c0-0.4,0-0.8,0-1.2c0-0.1,0-0.3,0.1-0.3s0.3,0.1,0.3,0.2l0.8,1.4
	c0.1,0.1,0.2,0.3,0.4,0.3c0.4,0,0.8,0,1.2,0c0.3,0,0.3-0.1,0.1-0.3c-0.4-0.5-0.7-1.1-1-1.6c-0.2-0.3-0.2-0.4,0.1-0.6
	c0.6-0.5,0.8-1.2,0.5-1.9c-0.2-0.6-0.7-1-1.3-1.1c-0.8-0.1-1.5-0.1-2.3-0.1c-0.3,0-0.4,0.1-0.4,0.4C105,50.6,105,51.4,105.1,52.2
	L105.1,52.2z M93.6,55h0.6c0.2,0,0.2-0.1,0.2-0.3L94,53.4c-0.4-1.2-0.9-2.4-1.3-3.6c-0.1-0.3-0.3-0.5-0.6-0.4c-0.2,0-0.4,0-0.5,0
	c-0.7,0-0.7,0-0.9,0.6l-1.7,4.4c-0.1,0.4-0.1,0.5,0.3,0.5h0.7c0.2,0,0.4,0,0.4-0.3c0.2-0.7,0.6-0.8,1.3-0.8c0.1,0,0.3,0,0.4,0
	c0.3-0.1,0.6,0.1,0.7,0.4c0,0,0,0,0,0C92.8,54.9,93.1,55.1,93.6,55L93.6,55z M63.5,55c0.9,0,0.9,0,0.7-0.6c-0.5-1.3-1-2.7-1.5-4
	c-0.3-0.9-0.3-0.9-1.3-0.9h-0.3c-0.3,0-0.5,0.2-0.6,0.4c-0.2,0.5-0.4,1-0.6,1.6l-1.2,3.2c-0.1,0.2,0,0.4,0.2,0.4s0.7,0,1,0
	c0.1,0,0.3-0.1,0.3-0.3c0.1-0.7,0.6-0.9,1.2-0.8c0.2,0,0.4,0,0.5,0c0.3,0,0.6,0.1,0.6,0.4C62.7,54.8,63,55.1,63.5,55L63.5,55z
	 M53.5,55h2c0.3,0,0.4-0.1,0.4-0.4c0-0.1,0-0.2,0-0.3c0-0.4-0.1-0.5-0.5-0.5h-1.2c-0.8,0-0.8,0-0.4-0.7c0.6-1.1,1.3-2.1,1.9-3.2
	c0.1-0.1,0.1-0.2,0.1-0.4c-0.1-0.1-0.2-0.1-0.4-0.1h-1.6h-2.1c-0.3,0-0.4,0.1-0.4,0.4c0,0.1,0,0.2,0,0.4c0,0.4,0.1,0.5,0.5,0.5
	s0.9,0,1.3,0s0.4,0.1,0.2,0.4c-0.7,1.1-1.3,2.2-2,3.4c-0.1,0.1-0.2,0.3-0.1,0.4s0.3,0.1,0.4,0.1L53.5,55z M46.1,55h2
	c0.1,0,0.3,0,0.3-0.1c0.1-0.3,0.1-0.6,0-0.9c-0.1-0.2-0.3-0.2-0.6-0.2h-1.4c-0.3,0-0.3-0.1-0.2-0.4s0.3-0.5,0.5-0.8l1.6-2.7
	c0.2-0.4,0.2-0.4-0.2-0.4c-1.2,0-2.3,0-3.4,0c-0.7,0-0.7,0-0.7,0.8c0,0.4,0.2,0.5,0.5,0.5h1.1c0.2,0,0.3-0.1,0.5,0.1s0,0.3-0.1,0.5
	l-1.9,3.3c-0.2,0.3-0.1,0.4,0.3,0.4L46.1,55z M31.7,52.2L31.7,52.2c0,0.4,0,0.7,0,1s0,0.7,0,1.1c0,0.6,0,0.6,0.6,0.6
	c1,0,0.9,0.1,0.9-0.9c0-1.2-0.1-1,1-1h0.1c0.6,0,1.2-0.3,1.5-0.9c0.3-0.6,0.2-1.4-0.2-2c-0.2-0.3-0.6-0.6-1-0.6
	c-0.9-0.1-1.8-0.1-2.7-0.1c-0.3,0-0.3,0.2-0.3,0.4C31.7,50.6,31.7,51.4,31.7,52.2z M97.6,52.2L97.6,52.2c0,0.6,0,1.2,0,1.8
	c0,1.1-0.2,1,1.1,1c0.3,0,0.3-0.1,0.3-0.4s0-0.8,0-1.1s0.1-0.4,0.4-0.4c0.4,0,0.8,0,1.2-0.1c0.9-0.3,1.4-1.4,1.1-2.3
	c0-0.1,0-0.1-0.1-0.2c-0.1-0.5-0.6-0.9-1.1-1c-0.8-0.1-1.7-0.1-2.5-0.1c-0.4,0-0.5,0.1-0.5,0.5C97.6,50.6,97.6,51.4,97.6,52.2z
	 M83.5,52.8L83.5,52.8c0,0.4,0,0.7,0,1.1c0,1.1-0.2,1,1.1,1c0.4,0,0.5-0.1,0.5-0.5c0-1.1,0-2.2,0-3.3c0-0.4,0.1-0.5,0.5-0.5
	c0.6,0,0.6,0,0.6-0.6c0-0.1,0-0.2,0-0.3c0-0.3-0.1-0.4-0.4-0.4c-0.9,0-1.8,0-2.7,0c-0.7,0-0.6,0-0.7,0.7s0,0.7,0.6,0.7
	c0.4,0,0.5,0.1,0.5,0.5C83.4,51.8,83.5,52.3,83.5,52.8L83.5,52.8z M39.2,52.2L39.2,52.2c0,0.6,0,1.3,0,1.9c0,1-0.1,0.9,0.9,0.9
	c0.5,0,0.6-0.1,0.6-0.6c0-1.3,0-2.7,0-4c0-1,0-1-1-1c-0.3,0-0.4,0.1-0.4,0.4C39.2,50.6,39.2,51.4,39.2,52.2L39.2,52.2z M157,13.8
	c0-0.6-0.5-1.1-1.1-1.2c-0.6,0-1.1,0.5-1.1,1.1c0,0.6,0.5,1.2,1.1,1.2C156.4,14.8,156.9,14.3,157,13.8z"/>
<path class="st3" d="M193.6,19.5c-0.1,0.8,0.3,1.6,1,1.9c0.1,0.1,0.3,0.1,0.5,0.1c0.8,0.1,1.3,0.9,1.2,1.7c0,0.1,0,0.1,0,0.2
	c-0.4,1,0.1,2.1,1,2.5c0,0,0,0,0.1,0c0.7,0.3,1.1,1.1,0.8,1.8c0,0.1,0,0.1-0.1,0.2c-0.1,0.2-0.2,0.4-0.3,0.6c-0.3,0.8,0,1.6,0.6,2.1
	c0.9,0.8,1,1.5,0.2,2.4c-0.6,0.7-0.6,1.7,0,2.4c0.8,0.9,0.8,1.6-0.1,2.3c-0.7,0.5-1,1.4-0.7,2.2c0,0.1,0.1,0.3,0.2,0.4
	c0.4,0.6,0.3,1.5-0.3,2c-0.1,0.1-0.2,0.1-0.3,0.1c-0.5,0.2-0.9,0.6-1.1,1.1c-0.1,0.4-0.1,0.8,0,1.2c0.3,0.7,0,1.6-0.7,1.9
	c-0.1,0.1-0.3,0.1-0.5,0.1c-0.2,0.1-0.4,0.2-0.6,0.3c-0.6,0.4-0.9,1-0.8,1.7c0.1,0.6-0.2,1.1-0.6,1.5c-0.2,0.2-0.5,0.3-0.8,0.3
	c-1.1,0-1.9,0.8-2,1.9c-0.1,0.7-0.7,1.2-1.4,1.2c-0.2,0-0.4,0-0.6-0.1c-0.9-0.1-1.7,0.5-2,1.3c-0.2,0.8-1,1.2-1.7,1
	c-0.1,0-0.2-0.1-0.3-0.1c-0.6-0.3-1.4-0.2-2,0.1c-0.4,0.2-0.5,0.6-0.8,0.9c-0.4,0.5-1.2,0.7-1.8,0.3c-0.5-0.4-1.1-0.5-1.6-0.4
	c-0.4,0-0.7,0.2-0.9,0.5c-0.3,0.4-0.7,0.6-1.2,0.7c-0.5,0.1-0.9-0.1-1.2-0.5c-0.4-0.5-1-0.7-1.7-0.7c-0.3,0-0.6,0.1-0.9,0.3
	c-0.6,0.5-1.4,0.5-2,0c-0.1-0.1-0.2-0.2-0.3-0.4c-0.5-0.9-1.7-1.2-2.6-0.8c-0.7,0.3-1.6,0-1.9-0.8c0,0,0-0.1,0-0.1
	c-0.2-1-1.2-1.5-2.1-1.3c0,0,0,0-0.1,0c-0.8,0.2-1.6-0.2-1.8-1c0-0.1,0-0.2-0.1-0.3c0-1-0.8-1.8-1.8-1.7c-0.1,0-0.1,0-0.2,0
	c-0.8-0.1-1.4-0.7-1.4-1.5c0.1-0.4,0-0.9-0.1-1.3c-0.2-0.5-0.7-0.9-1.3-1c-0.8-0.1-1.4-0.9-1.3-1.7c0-0.1,0.1-0.3,0.1-0.4
	c0.3-0.8-0.1-1.7-0.9-2.1c-0.3-0.1-0.6-0.3-0.8-0.6c-0.4-0.5-0.4-1.2-0.1-1.7c0.6-0.8,0.4-1.9-0.5-2.5c0,0,0,0,0,0
	c-0.2-0.2-0.4-0.4-0.6-0.7c-0.2-0.5-0.2-1,0.2-1.4c0.3-0.3,0.4-0.6,0.6-1c0.2-0.6,0-1.2-0.4-1.7c-0.6-0.5-0.7-1.4-0.2-2
	c0.1-0.2,0.3-0.3,0.4-0.4c0.8-0.6,1-1.6,0.5-2.4c-0.5-0.6-0.4-1.5,0.2-2c0.1-0.1,0.3-0.2,0.5-0.2c0.9-0.4,1.3-1.5,0.9-2.5
	c-0.2-0.8,0.2-1.6,1-1.8c0,0,0.1,0,0.1,0c1-0.1,1.7-1,1.5-2c0,0,0,0,0,0c-0.1-0.7,0.3-1.4,1-1.6c0.2-0.1,0.3-0.1,0.5-0.1
	c1,0.1,1.9-0.7,2-1.8c0.1-0.6,0.6-1.1,1.2-1.3c0.1,0,0.3,0,0.4,0c1,0.3,2-0.2,2.3-1.2c0.2-0.8,0.9-1.3,1.7-1.1
	c0.1,0,0.2,0.1,0.3,0.1c0.7,0.4,1.5,0.3,2.1-0.2c0.2-0.2,0.4-0.3,0.5-0.6c0.3-0.7,1.1-1,1.8-0.7c0.1,0,0.2,0.1,0.3,0.2
	c0.7,0.7,1.9,0.6,2.6-0.1c0,0,0.1-0.1,0.1-0.1c0.5-0.6,1.4-0.7,2-0.2c0.1,0.1,0.1,0.1,0.2,0.2c0.6,0.8,1.7,0.9,2.5,0.3l0.3-0.2
	c0.6-0.4,1.4-0.3,1.8,0.3c0,0,0.1,0.1,0.1,0.1c0.8,1.1,1.4,1.4,2.6,0.9c0.8-0.3,1.7,0.1,2,0.9c0,0,0,0.1,0,0.1
	c0.3,1,1.3,1.5,2.2,1.2c0.6-0.1,1.3,0.1,1.6,0.7c0.1,0.3,0.2,0.7,0.2,1c0.2,0.8,0.9,1.3,1.8,1.3c0.5,0,1.1,0.2,1.4,0.7
	C193.6,18.8,193.7,19.2,193.6,19.5z M173.7,40.2L173.7,40.2c0-1.1,0-2.2,0-3.3c0.1-1.3-0.8-2.4-2-2.7c-1.3-0.3-2.7,0.4-3,1.8
	c-0.1,0.2-0.1,0.4-0.1,0.6c0,1,0,2.1,0,3.2c0,0.6,0.3,1.1,0.7,1.4c0.7,0.4,1.6,0.4,2.3-0.1c0.1-0.1,0.1-0.2,0.3-0.1s0.1,0.2,0.1,0.3
	c0,0.8,0,1.6,0,2.3s-0.3,0.9-0.9,0.9c-0.5,0-0.9-0.3-0.9-0.8c0,0,0-0.1,0-0.1c0-0.9,0-0.9-1-0.9h-0.3c-0.1,0-0.2,0-0.2,0.2
	c-0.1,0.7,0,1.4,0.3,2.1c0.7,1.1,2.1,1.6,3.3,1c0.9-0.4,1.5-1.3,1.5-2.4C173.8,42.4,173.7,41.3,173.7,40.2L173.7,40.2z M187.1,42.2
	c0-0.6,0-1,0-1.5c0-0.5-0.2-1.1-0.6-1.4c-0.7-0.6-1.7-0.6-2.4,0c-0.1,0.1-0.2,0.2-0.3,0.1s-0.1-0.2-0.1-0.3s0-0.5,0-0.8
	c0-0.6,0-1.2,0-1.8c0-0.4,0.3-0.8,0.7-0.8c0,0,0.1,0,0.1,0c0.6,0,0.9,0.3,0.9,1c0,1,0,1,1.1,1h0.2c0.1,0,0.2-0.1,0.2-0.2
	c0,0,0,0,0,0c0.1-0.6,0-1.2-0.1-1.8c-0.5-1.3-2-1.9-3.2-1.4c-0.2,0.1-0.5,0.2-0.7,0.4c-0.7,0.6-1,1.4-0.9,2.3c0,2.2,0,4.3,0,6.5
	c-0.1,1.3,0.9,2.5,2.2,2.7c1.3,0.2,2.6-0.6,2.8-1.9C187.1,43.5,187.1,42.9,187.1,42.2L187.1,42.2z M177.9,34.3h-1.4
	c-1.1,0-1.1,0-1.1,1.1c0,0.5,0,0.5,0.5,0.5h2.4c0.2,0,0.4-0.1,0.3,0.3c-0.6,1.3-1.1,2.7-1.5,4.1c-0.5,1.7-0.8,3.4-1,5.2
	c0,0.3,0.1,0.4,0.4,0.4s0.7,0,1,0s0.4-0.1,0.5-0.5c0.1-1.8,0.4-3.7,0.8-5.4c0.4-1.5,0.9-2.9,1.4-4.3c0.1-0.3,0.2-0.6,0.2-0.9
	c0-0.3-0.1-0.5-0.5-0.5C179.3,34.3,178.6,34.3,177.9,34.3L177.9,34.3z M166.1,40L166.1,40c0-1.7,0-3.5,0-5.2c0-0.2,0.1-0.5-0.3-0.5
	s-0.7-0.2-0.7,0.3c0,0.2-0.2,0.4-0.4,0.4c-0.3,0.1-0.3,0.3-0.3,0.6c0,3.1,0,6.2,0,9.3c0,0.2,0,0.4,0,0.7s0.1,0.3,0.3,0.3h1.2
	c0.1,0,0.2-0.1,0.3-0.2c0,0,0,0,0-0.1c0-0.2,0-0.4,0-0.5C166,43.4,166.1,41.7,166.1,40L166.1,40z M185.8,24L185.8,24
	c0,0.4,0,0.9,0,1.3c0,0.2,0,0.3,0.3,0.3c0.5,0.1,1,0,1.5-0.1c0.6-0.2,1-0.7,1.1-1.3c0.2-0.7-0.2-1.4-0.8-1.7
	c-0.6-0.2-1.2-0.2-1.8-0.2c-0.2,0-0.2,0.2-0.2,0.3C185.8,23.2,185.8,23.6,185.8,24L185.8,24z M167.7,22.4h-0.3c-0.6,0-0.6,0-0.6,0.6
	c0,0.7,0,1.5,0,2.2c0,0.4,0.2,0.6,0.6,0.5s0.3-0.4,0.3-0.6s-0.1-0.4,0.1-0.4s0.2,0.2,0.2,0.3c0.3,0.4,0.5,0.9,1.1,0.8
	c0.2,0,0.3-0.1,0.2-0.3c-0.1-0.2-0.3-0.4-0.4-0.6c-0.2-0.2-0.2-0.4,0-0.6c0.3-0.4,0.3-0.9,0-1.3C168.6,22.5,168.2,22.3,167.7,22.4
	L167.7,22.4z M172.4,22.4c-0.3,0-0.6,0-0.7,0.3c-0.3,0.8-0.6,1.6-0.9,2.4c-0.1,0.2-0.2,0.4,0.1,0.5s0.6,0.1,0.7-0.2
	c0.1-0.5,0.5-0.3,0.8-0.3c0.2-0.1,0.5,0.1,0.6,0.3c0,0,0,0,0,0c0.1,0.3,0.4,0.3,0.7,0.2s0.1-0.3,0.1-0.4c-0.3-0.8-0.6-1.5-0.8-2.3
	C172.9,22.5,172.7,22.3,172.4,22.4L172.4,22.4z M182.2,24L182.2,24c0,0.4,0,0.8,0,1.3c0,0.3,0.1,0.4,0.4,0.4s0.7,0,1.1,0
	s0.4,0,0.4-0.4s-0.2-0.4-0.5-0.4h-0.3c-0.1,0-0.2-0.1-0.3-0.2c0-0.1,0.1-0.3,0.2-0.3c0,0,0,0,0,0h0.3c0.3,0,0.5,0,0.5-0.4
	s-0.1-0.4-0.5-0.4c-0.1,0-0.2,0-0.3,0c-0.1,0-0.2-0.1-0.2-0.2c0,0,0,0,0,0c0-0.1,0.1-0.2,0.2-0.2c0,0,0,0,0,0c0.1,0,0.3,0,0.5,0
	c0.3,0,0.3-0.2,0.3-0.4s-0.1-0.4-0.3-0.4s-0.8,0-1.2,0c-0.3,0-0.4,0.1-0.3,0.3C182.2,23.2,182.2,23.6,182.2,24L182.2,24z
	 M170.6,31.1h0.2c0.6-0.1,1.1-0.6,1.2-1.2c0.1-0.4-0.2-0.6-0.8-0.8h-0.1c-0.1,0-0.2-0.1-0.2-0.2c0-0.1,0.1-0.2,0.2-0.2s0.3,0,0.5,0
	c0.3,0.1,0.4-0.2,0.5-0.4c0.1,0,0.1-0.1,0-0.2c0,0,0,0,0,0c-0.6-0.4-1.4-0.3-1.8,0.3c-0.1,0.1-0.1,0.2-0.2,0.3
	c-0.2,0.6-0.1,0.8,0.5,1.1l0.3,0.1c0.1,0,0.2,0.1,0.2,0.3c0,0.2-0.1,0.2-0.2,0.3c-0.3,0.2-0.5,0-0.7-0.1s-0.4,0.1-0.5,0.3
	s0,0.3,0.2,0.4C170.1,31.1,170.4,31.2,170.6,31.1L170.6,31.1z M162.7,24.1c0,0.4,0.1,0.7,0.3,1c0.5,0.6,1.3,0.8,2,0.5
	c0.4-0.2,0.2-0.5,0.2-0.7s-0.2,0-0.4,0c-0.5,0.2-1,0-1.2-0.5c-0.1-0.2-0.1-0.3,0-0.5c0.1-0.7,0.4-0.9,1.2-0.8c0.1,0,0.4,0.2,0.4-0.1
	s0.1-0.5-0.3-0.7c-0.9-0.3-1.8,0.2-2.1,1C162.7,23.6,162.7,23.8,162.7,24.1L162.7,24.1z M175.5,24L175.5,24c0,0.4,0,0.8,0,1.2
	s0.1,0.5,0.5,0.4s0.4-0.3,0.3-0.6c0-0.6,0-0.6,0.6-0.6c0.3,0,0.4-0.2,0.4-0.4s-0.1-0.4-0.4-0.3h-0.3c-0.2,0-0.3-0.1-0.2-0.3
	s0.1-0.3,0.3-0.3h0.5c0.3,0,0.3-0.2,0.3-0.4s-0.1-0.3-0.3-0.3c-0.4,0-0.8,0-1.3,0c-0.2,0-0.3,0.1-0.3,0.3
	C175.5,23.2,175.5,23.6,175.5,24L175.5,24z M174.9,28.9c-0.3,0-0.6,0-0.6,0.3c0,0.6-0.2,1.1-0.3,1.6c0,0.2,0,0.3,0.2,0.3
	s0.6,0,0.6-0.4c0-0.3,0.1-0.7,0.2-1c0.1-0.2,0.2-0.3,0.4-0.2s0.2,0.2,0.2,0.4c0,0.3-0.1,0.6-0.2,0.8c0,0.1-0.1,0.4,0.2,0.4
	s0.5,0.1,0.6-0.2c0.1-0.5,0.2-0.9,0.2-1.4c0-0.4-0.2-0.7-0.7-0.7S175.2,29.1,174.9,28.9L174.9,28.9z M179.2,24.4L179.2,24.4
	c0,0.3,0,0.6,0,0.9s0.2,0.4,0.5,0.4s0.4-0.1,0.4-0.4c0-0.6,0-1.1,0-1.7c0-0.3,0.1-0.4,0.4-0.4s0.4-0.1,0.4-0.4s-0.1-0.4-0.4-0.4
	c-0.5,0-1,0-1.5,0c-0.3,0-0.4,0.1-0.4,0.4s0,0.4,0.3,0.4s0.4,0.1,0.3,0.4S179.3,24.1,179.2,24.4L179.2,24.4z M180.3,31.1
	c0.4,0.1,0.8-0.1,1-0.4c0.1-0.1,0.2-0.2,0.1-0.3s-0.2-0.1-0.3-0.1c-0.2,0-0.4,0.1-0.6,0.2c-0.2,0-0.4,0-0.4-0.3s0.2-0.2,0.4-0.2
	c0.3,0,0.6,0,0.9,0c0.4,0.1,0.4-0.1,0.4-0.4c0-0.2-0.1-0.4-0.3-0.6c-0.6-0.4-1.4-0.3-1.8,0.2c0,0,0,0,0,0.1
	c-0.3,0.4-0.3,0.9-0.1,1.3C179.7,31.1,180,31.2,180.3,31.1L180.3,31.1z M184.9,29.5h-1.3c-0.2,0-0.4,0-0.4,0.3s0.1,0.4,0.3,0.4h2.8
	c0.2,0,0.3-0.1,0.3-0.3s-0.1-0.3-0.3-0.3C185.8,29.5,185.3,29.5,184.9,29.5L184.9,29.5z M178.1,31.1c0.1,0,0.2,0,0.3,0
	c0.2-0.1,0.2-0.3,0.2-0.4s-0.1-0.2-0.2-0.2c-0.4,0.1-0.5-0.1-0.6-0.4c0-0.3,0.3-0.6,0.6-0.6c0,0,0.1,0,0.1,0
	c0.3,0.1,0.3-0.2,0.4-0.3s-0.1-0.3-0.3-0.4c-0.7,0-1.3,0.4-1.5,1.1c-0.1,0.5,0.2,1.1,0.7,1.2C177.9,31.2,178,31.2,178.1,31.1
	L178.1,31.1z M166.5,29.5h-1.4c-0.2,0-0.3,0.1-0.3,0.3s0,0.3,0.2,0.3h2.9c0.3,0,0.3-0.2,0.3-0.4s-0.1-0.2-0.3-0.2L166.5,29.5z
	 M173.2,28.9c-0.3,0-0.4,0-0.4,0.3c-0.1,0.5-0.1,1-0.2,1.4c0,0.2-0.1,0.4,0.2,0.4s0.5,0,0.6-0.3c0-0.5,0.1-1,0.2-1.4
	C173.6,29,173.6,28.9,173.2,28.9L173.2,28.9z M173.3,28.6c0.3-0.1,0.5-0.2,0.5-0.5c0-0.2-0.1-0.3-0.3-0.4c0,0,0,0-0.1,0
	c-0.3,0-0.5,0.2-0.5,0.5c0,0,0,0,0,0C172.9,28.4,173.1,28.6,173.3,28.6L173.3,28.6z"/>
<path class="st2" d="M150.8,27.8c0,3,0,6.1,0,9.1c0.1,0.7-0.1,1.4-0.5,2c-0.3,0.5-0.8,0.8-1.4,0.8c-0.6-0.1-1.1-0.4-1.4-1
	c-0.3-0.5-0.4-1.1-0.4-1.6c0-6.2,0-12.4,0-18.6c-0.1-0.6,0.1-1.2,0.5-1.6c0.5-0.6,1.4-0.8,2.1-0.4c0.7,0.2,1.1,0.8,1.1,1.5
	c0,2.4,0,4.8,0,7.3C150.8,26,150.8,26.9,150.8,27.8z"/>
<path class="st4" d="M25.9,28c0,3.2,0.1,6.4,0,9.7C26,40,24.7,42,22.6,43c-2.3,1.1-5.1,0.6-6.9-1.4c-0.8-0.9-1.3-2-1.4-3.1
	c-0.1-1.2-0.2-2.5-0.1-3.7c0-5.2,0-10.3,0-15.5c-0.1-1.9,0.6-3.8,1.8-5.3c0.8-0.9,2-1.5,3.2-1.6c1.2-0.2,2.5,0,3.5,0.6
	c1.3,0.7,2.3,1.8,2.8,3.2c0.3,0.9,0.5,1.9,0.4,2.9C25.9,22.1,25.9,25,25.9,28L25.9,28z M18.2,27.7c0,3.1,0,6.2,0,9.3
	c-0.1,0.7,0.2,1.5,0.6,2.1c0.4,0.6,1.2,0.8,1.9,0.4c0,0,0.1-0.1,0.1-0.1c0.7-0.5,1.1-1.4,1-2.2c0-6.3,0-12.6,0-18.9
	c0.1-0.7-0.2-1.3-0.8-1.7c-0.8-0.6-2-0.4-2.6,0.4c-0.3,0.4-0.4,0.8-0.3,1.3C18.2,21.4,18.2,24.6,18.2,27.7L18.2,27.7z"/>
<path class="st4" d="M77.4,28.4c0-4.7,0-9.4,0-14.2c0-0.8,0.1-0.9,0.9-1c0.8,0,1.7,0,2.5,0c0.3,0,0.6,0.3,0.6,0.6c0,0,0,0,0,0.1
	c0,1.2,0,2.5,0,3.7c0,2.7,0,5.5,0,8.2c0,0.6,0.2,0.8,0.8,0.8h2.2c0.7,0,0.8-0.1,0.8-0.8c0-3.9,0-7.7,0-11.6c0-0.3,0.1-0.6,0.3-0.8
	c0.1-0.1,0.2-0.1,0.3-0.1h2.7c0.4,0,0.6,0.2,0.6,0.7c0,0.1,0,0.2,0,0.3c0,9.4,0,18.8,0,28.2c0,0.2,0,0.3,0,0.5
	c0,0.3-0.2,0.5-0.5,0.6c-0.1,0-0.1,0-0.2,0h-2.6c-0.5,0-0.8-0.2-0.8-0.8c0-0.3,0-0.6,0-0.9c0-3.5,0-7,0-10.5c0-0.6-0.2-0.8-0.8-0.8
	h-2.3c-0.5,0-0.8,0.2-0.8,0.8c0,3.7,0,7.3,0,11c0,1.2,0,1.2-1.2,1.2h-2.1c-0.6,0-0.7-0.1-0.7-0.7C77.4,38,77.4,33.2,77.4,28.4
	L77.4,28.4z"/>
<path class="st4" d="M41.7,27.9c0-4.7,0-9.4,0-14.2c0-0.8,0.2-0.9,0.9-0.9c1.5,0,3.1-0.1,4.6,0c1.8,0,3.5,0.7,4.6,2.1
	c0.9,1.1,1.3,2.4,1.3,3.8c0,1.6,0,3.2,0,4.8c0,4.4,0,8.8,0,13.2c0.1,1.4-0.3,2.9-1,4.1c-0.6,1-1.7,1.8-2.9,2c-1.7,0.2-3.3,0.3-5,0.2
	c-0.6,0-1.3,0-1.9,0s-0.8-0.1-0.8-0.8c0-3,0-6,0-9C41.7,31.5,41.7,29.7,41.7,27.9z M45.7,27.9c0,3.5,0,7,0,10.5
	c0,0.8,0.1,0.9,0.9,0.9h0.6c0.8,0,1.4-0.5,1.7-1.2c0.3-0.8,0.4-1.6,0.3-2.4c0-5.1,0-10.3,0-15.4c0.1-0.8,0-1.7-0.2-2.5
	c-0.1-0.4-0.4-0.8-0.8-1c-0.6-0.2-1.2-0.2-1.8-0.2c-0.6,0-0.8,0.2-0.8,0.8C45.7,20.9,45.7,24.4,45.7,27.9L45.7,27.9z"/>
<path class="st4" d="M132.2,27.8c0,3.2,0,6.4,0,9.5c-0.1,0.9,0.3,1.7,1,2.3c0.8,0.6,1.9,0.4,2.5-0.4c0-0.1,0.1-0.1,0.1-0.2
	c0.2-0.4,0.3-0.8,0.3-1.2c0-1.9,0-3.8,0-5.7c0-0.4-0.3-0.7-0.7-0.8c0,0-0.1,0-0.1,0H135c-0.3,0-0.6-0.2-0.7-0.6c0,0,0-0.1,0-0.1
	c0-0.6,0-1.3,0-1.9c0-0.4,0.3-0.7,0.6-0.7c0,0,0.1,0,0.1,0h4c0.8,0,0.9,0.1,0.9,0.9c0,4.4,0,8.8,0,13.2c0,0.7-0.1,0.8-0.8,0.8
	c-0.3,0-0.7,0-1-0.1c-0.4-0.2-0.6-0.6-0.7-1c-0.1-0.4-0.3-0.4-0.6-0.2c-0.5,0.5-1.1,0.9-1.8,1.2c-1.1,0.5-2.3,0.6-3.4,0.1
	c-1.2-0.4-2.2-1.4-2.7-2.6c-0.4-0.9-0.7-1.9-0.7-2.9c0-6.3,0-12.6,0-18.8c0-1.6,0.5-3.2,1.5-4.6c0.8-1,1.9-1.7,3.2-1.8
	c1.9-0.4,3.9,0.2,5.3,1.6c0.7,0.8,1.2,1.7,1.3,2.7c0.2,1.8,0.3,3.6,0.2,5.3c0,1.2,0,1.2-1.2,1.2h-1.6c-0.6,0-0.8-0.2-0.8-0.8
	c0-1.2,0-2.3,0-3.5c0-0.6-0.1-1.2-0.4-1.8c-0.4-0.7-1.1-1.1-1.8-1c-0.9,0.1-1.6,0.9-1.6,1.8c0,0.5,0,0.9,0,1.4
	C132.3,22.2,132.2,25,132.2,27.8z"/>
<path class="st4" d="M119.9,13.2c0.6,0,1.1,0,1.7,0c0.3,0,0.6,0.3,0.6,0.7c0.3,2.4,0.7,4.8,1,7.2c0.4,2.9,0.7,5.7,1.1,8.6
	c0.3,2.3,0.6,4.6,1,6.9c0.2,1.3,0.3,2.6,0.5,3.9c0.1,0.7,0.2,1.5,0.4,2.2c0.1,0.3,0,0.6-0.3,0.7c-0.1,0-0.1,0-0.2,0c-1,0-2,0-3,0
	c-0.4,0-0.6-0.3-0.6-0.6c-0.1-1.4-0.3-2.9-0.4-4.3c-0.1-0.7-0.2-0.9-0.9-0.9h-1.9c-0.5,0-0.7,0.2-0.8,0.7c-0.3,1.4-0.4,2.9-0.5,4.3
	c-0.1,0.7-0.2,0.8-0.9,0.8s-1.4,0-2.1,0c-0.5,0-0.6-0.1-0.6-0.6c0.1-1,0.2-2,0.4-2.9c0.1-0.6,0.2-1.2,0.2-1.8
	c0.3-1.9,0.5-3.8,0.7-5.7c0.2-1.5,0.4-3,0.6-4.5c0.3-2.1,0.6-4.2,0.9-6.3c0.3-1.8,0.4-3.5,0.7-5.3c0.1-0.8,0.2-1.5,0.3-2.3
	c0-0.5,0.3-0.8,0.8-0.9c0,0,0.1,0,0.1,0L119.9,13.2z M120.1,21.6h-0.1c-0.1,0.3-0.2,0.5-0.2,0.8c-0.3,3.2-0.7,6.3-1,9.4
	c-0.1,0.5-0.1,1-0.1,1.5c0,0.3,0.1,0.5,0.4,0.6c0,0,0.1,0,0.1,0c0.5,0,0.9,0,1.4,0c0.5,0,0.6-0.3,0.6-0.8c-0.1-1.3-0.3-2.7-0.4-4
	c-0.2-2.2-0.4-4.5-0.6-6.7C120,22.2,120.1,21.9,120.1,21.6L120.1,21.6z"/>
<path class="st4" d="M66.8,27.8c0,3.2,0,6.4,0,9.7c0,1,0.6,1.9,1.6,2.2c0.9,0.2,1.8-0.4,2.2-1.3c0.1-0.3,0.1-0.7,0.1-1.1
	c0-1.4,0-2.8,0-4.3c0-0.5,0.1-0.7,0.6-0.7c0.7,0,1.5,0,2.3,0c0.3,0,0.6,0.2,0.6,0.5c0,0,0,0.1,0,0.1c0,1.7,0,3.4,0,5.1
	c0,1.7-0.8,3.4-2.2,4.4c-0.7,0.6-1.6,0.9-2.6,0.9c-1.3,0.1-2.7-0.1-3.9-0.8c-1.2-0.8-2.1-1.9-2.4-3.3c-0.2-0.9-0.4-1.8-0.3-2.7
	c0-5.8,0-11.6,0-17.3c0-1.6,0.4-3.2,1.3-4.5c0.9-1.6,2.6-2.5,4.4-2.5c1.5-0.1,3,0.4,4.1,1.5c1,1.1,1.6,2.5,1.6,4c0,1.6,0,3.3,0,4.9
	c0,0.5-0.2,0.7-0.7,0.7c-0.7,0-1.4,0-2,0c-0.5,0-0.7-0.2-0.7-0.8c0-1.3,0-2.6,0-3.8c0.1-0.9-0.3-1.7-0.9-2.3c-0.6-0.5-1.4-0.5-2-0.2
	c-0.6,0.3-1,0.9-1,1.6c0,0.6,0,1.1,0,1.7C66.8,22.4,66.8,25,66.8,27.8L66.8,27.8z"/>
<path class="st4" d="M104.5,27.7c0,3.1,0,6.2,0,9.3c-0.1,0.8,0.3,1.7,0.9,2.3c0.8,0.6,1.9,0.5,2.6-0.2c0.1-0.1,0.2-0.2,0.2-0.4
	c0.1-0.3,0.2-0.7,0.2-1.1c0-1.5,0-3,0-4.5c0-0.6,0.2-0.8,0.7-0.8h2c0.4,0,0.7,0.2,0.7,0.6c0,1.9,0.1,3.7-0.1,5.6
	c-0.1,1.9-1.2,3.5-2.8,4.4c-1,0.5-2.2,0.7-3.3,0.5c-1.8-0.1-3.5-1.2-4.3-2.9c-0.6-1-0.8-2.2-0.8-3.4c0-6,0-12.1,0-18.1
	c-0.1-1.8,0.5-3.6,1.7-5c0.8-1,2-1.6,3.3-1.7c1.1-0.2,2.3,0,3.3,0.5c1,0.5,1.9,1.3,2.4,2.4c0.5,1.2,0.7,2.4,0.7,3.7
	c0,1.3,0,2.6,0,3.8c0,0.5-0.2,0.7-0.7,0.7c-0.7,0-1.4,0-2,0s-0.7-0.2-0.7-0.8c0-1.4,0-2.8,0-4.2c0-0.8-0.4-1.5-1-2
	c-0.9-0.5-2.1-0.2-2.7,0.8c-0.2,0.5-0.2,1.1-0.2,1.6C104.6,21.8,104.6,24.8,104.5,27.7L104.5,27.7z"/>
<path class="st4" d="M29.5,28c0-4.7,0-9.5,0-14.2c0-0.8,0.2-0.9,0.9-0.9h2.3c0.6,0,0.8,0.2,0.8,0.8c0,8.3,0,16.6,0,24.9
	c0,0.6,0.2,0.8,0.8,0.8h3.9c0.6,0,0.8,0.1,0.8,0.8c0,0.8,0,1.6,0,2.3c0,0.5-0.2,0.6-0.7,0.6h-8c-0.5,0-0.7-0.2-0.7-0.7
	C29.6,37.5,29.6,32.7,29.5,28L29.5,28z"/>
<path class="st4" d="M92.9,28.4c0-4.7,0-9.4,0-14.1c0-0.8,0.1-1,1-1h2.3c0.4-0.1,0.7,0.2,0.8,0.6c0,0,0,0.1,0,0.1c0,0.3,0,0.5,0,0.8
	c0,8.8,0,17.7,0,26.5c0,0.5,0,0.9,0,1.4c0.1,0.4-0.2,0.7-0.5,0.8c-0.1,0-0.1,0-0.2,0h-2.6c-0.5,0-0.7-0.1-0.7-0.7c0-2.1,0-4.2,0-6.3
	C93,33.8,92.9,31.1,92.9,28.4z"/>
<path class="st4" d="M132.2,52c0,0.6-0.1,1.2-0.2,1.8c0,0.1,0,0.1,0,0.2c-0.1,1-0.3,1.2-1.3,1c-0.2,0-0.2-0.2-0.2-0.4
	c0.1-0.9,0.3-1.8,0.4-2.7c0.1-0.6,0.2-1.3,0.3-1.9s0.1-0.6,0.7-0.6c0.8,0,0.8,0,1.1,0.7s0.5,1.2,0.7,1.8c0,0.1,0.1,0.2,0.2,0.2
	s0.2-0.1,0.2-0.2c0.3-0.7,0.6-1.4,0.8-2.1c0.1-0.3,0.3-0.4,0.6-0.4c1,0,1,0,1.2,0.9c0.1,0.7,0.2,1.4,0.4,2.2s0.2,1.3,0.4,2
	c0.1,0.4,0,0.5-0.4,0.5c-1.1,0-1.1,0-1.2-1.1c0-0.5-0.2-1-0.2-1.6c0-0.1,0-0.2-0.1-0.2s-0.1,0.1-0.2,0.2c-0.3,0.7-0.5,1.4-0.8,2
	c-0.1,0.3-0.1,0.7-0.6,0.7c-0.2,0-0.4,0-0.5-0.3c-0.3-0.7-0.6-1.4-0.8-2.1C132.5,52.3,132.4,52.1,132.2,52z"/>
<path class="st4" d="M148.3,50.9c2.2,0,4.3,0,6.5,0c0.4,0,0.5,0.1,0.5,0.5c0,1.2,0.1,1.1-1.1,1.1h-12.4c-0.4,0-0.5-0.1-0.5-0.5
	c0-1.4-0.2-1.1,1.1-1.1C144.4,50.9,146.3,50.9,148.3,50.9L148.3,50.9z"/>
<path class="st4" d="M20.7,50.9c2.2,0,4.3,0,6.5,0c0.4,0,0.5,0.2,0.6,0.6c0,1.1,0,1.1-1,1.1H14.2c-0.5,0-0.5-0.1-0.6-0.6
	c0-1.2,0-1,1-1L20.7,50.9L20.7,50.9z"/>
<path class="st4" d="M121.5,52.1c-0.1-1.6,1.2-2.9,2.7-3c0.1,0,0.2,0,0.3,0c1.7-0.1,3,1.2,3.1,2.9c0,0,0,0.1,0,0.1c0,1.6-1.4,3-3,3
	c-1.7,0.1-3-1.2-3.1-2.9C121.5,52.2,121.5,52.2,121.5,52.1z M124.6,50.5c-0.9,0-1.6,0.7-1.6,1.6c0,0,0,0,0,0.1
	c-0.1,0.8,0.6,1.5,1.4,1.6c0.1,0,0.1,0,0.2,0c0.9,0,1.6-0.6,1.6-1.5c0,0,0-0.1,0-0.1C126.1,51.3,125.4,50.6,124.6,50.5L124.6,50.5z"
	/>
<path class="st4" d="M118.5,52.1c0,1.7-1.3,3-3,3c-0.1,0-0.2,0-0.3,0c-1.6-0.2-2.8-1.6-2.7-3.3c0.2-1.6,1.6-2.8,3.3-2.7
	C117.3,49.3,118.5,50.6,118.5,52.1z M117,52.1c0-0.9-0.6-1.6-1.5-1.6c-0.9,0-1.6,0.6-1.7,1.5c0,0,0,0.1,0,0.1c0,0.8,0.6,1.6,1.4,1.6
	c0,0,0.1,0,0.1,0c0.8,0.1,1.6-0.6,1.6-1.4C117,52.3,117,52.2,117,52.1L117,52.1z"/>
<path class="st4" d="M75.5,54.9c-0.4,0-0.9,0.1-1.2-0.3c-0.1-0.1-0.3,0-0.4,0.1c-0.8,0.5-1.9,0.5-2.7,0c-0.7-0.5-0.9-1.4-0.5-2.1
	c0.1-0.2,0.2-0.3,0.4-0.4c0.1-0.1,0.2-0.2,0.4-0.2c0.3-0.1,0.2-0.3,0.1-0.5c-0.5-0.7-0.3-1.6,0.4-2.1c0,0,0.1-0.1,0.1-0.1
	c0.8-0.4,1.8-0.3,2.5,0.4c0.5,0.6,0.4,1.5-0.2,1.9c-0.1,0.1-0.1,0.1-0.2,0.2c-0.3,0.2-0.3,0.3-0.1,0.5c0.4,0.4,0.4,0.4,0.8,0
	c0.1-0.1,0.3-0.4,0.5-0.3c0.3,0.1,0.5,0.4,0.6,0.7c0.1,0.2-0.2,0.4-0.3,0.5c-0.4,0.4-0.4,0.3,0,0.7l0.4,0.5c0.1,0.1,0.2,0.1,0.1,0.3
	s-0.1,0.1-0.2,0.1L75.5,54.9z M72.7,53.9l0.3-0.1c0.4-0.1,0.5-0.3,0.2-0.6s-0.3-0.3-0.5-0.5c-0.1-0.1-0.2-0.1-0.3,0c0,0,0,0,0,0
	c-0.3,0.1-0.4,0.4-0.4,0.7C72,53.8,72.3,53.9,72.7,53.9L72.7,53.9z M73.7,50.7c0-0.3-0.2-0.4-0.5-0.4c0,0,0,0,0,0
	c-0.3,0-0.5,0.1-0.5,0.4s0.4,0.7,0.5,0.7S73.6,50.9,73.7,50.7L73.7,50.7z"/>
<path class="st4" d="M105,52.2c0-0.8,0-1.6,0-2.4c0-0.3,0.1-0.4,0.4-0.4c0.8,0,1.5,0,2.3,0.1c0.6,0.1,1.1,0.5,1.3,1.1
	c0.3,0.7,0.1,1.5-0.5,1.9c-0.3,0.2-0.3,0.3-0.1,0.6c0.4,0.5,0.7,1.1,1,1.6c0.1,0.2,0.1,0.3-0.1,0.3c-0.4,0-0.8,0-1.2,0
	c-0.2,0-0.3-0.1-0.4-0.3l-0.8-1.4c-0.1-0.1-0.1-0.3-0.3-0.2s-0.1,0.2-0.1,0.3c0,0.4,0,0.8,0,1.2c0,0.1,0,0.3-0.1,0.3
	c-0.4,0.1-0.8,0.1-1.2,0c-0.1,0-0.1-0.2-0.1-0.3C105,53.8,105,53,105,52.2L105,52.2z M106.4,51.2c0,0.3-0.1,0.7,0.4,0.7
	s0.8-0.3,0.8-0.7s-0.3-0.6-0.8-0.7S106.5,50.9,106.4,51.2L106.4,51.2z"/>
<path class="st4" d="M93.6,54.9c-0.5,0.1-0.8-0.1-0.9-0.6c-0.1-0.3-0.4-0.5-0.7-0.4c0,0,0,0,0,0c-0.1,0-0.3,0-0.4,0
	c-0.6-0.1-1.1,0.1-1.3,0.8c-0.1,0.3-0.2,0.3-0.4,0.3h-0.7c-0.4,0-0.5-0.1-0.3-0.5l1.7-4.4c0.2-0.6,0.3-0.6,0.9-0.6
	c0.2,0,0.4,0,0.5,0c0.3,0,0.6,0.2,0.6,0.4c0.4,1.2,0.9,2.4,1.3,3.6l0.5,1.2c0.1,0.2,0,0.3-0.2,0.3L93.6,54.9z M91.6,52.8
	c0.5,0,0.6-0.1,0.4-0.6c-0.1-0.2-0.2-0.4-0.2-0.6c0-0.1,0-0.2-0.1-0.2c-0.1,0-0.2,0.1-0.2,0.2c-0.1,0.2-0.2,0.5-0.3,0.7
	C91,52.7,91.1,52.8,91.6,52.8L91.6,52.8z"/>
<path class="st4" d="M63.5,54.9c-0.5,0.1-0.8-0.1-0.9-0.6c-0.1-0.3-0.3-0.5-0.6-0.4c-0.2,0-0.4,0-0.5,0c-0.6-0.1-1,0.1-1.2,0.8
	c0,0.1-0.2,0.2-0.3,0.3c-0.3,0-0.7,0-1,0s-0.3-0.2-0.2-0.4l1.2-3.2c0.2-0.5,0.4-1,0.6-1.6c0.1-0.3,0.3-0.4,0.6-0.4h0.3
	c1,0,1,0,1.3,0.9c0.5,1.3,1,2.6,1.5,4C64.4,54.9,64.4,55,63.5,54.9z M61.6,52.8c0.2,0,0.5,0,0.4-0.4c-0.1-0.3-0.2-0.7-0.3-1
	c-0.1-0.2-0.2-0.2-0.3,0c-0.1,0.3-0.2,0.5-0.3,0.8C61,52.8,61,52.8,61.6,52.8z"/>
<path class="st4" d="M53.5,54.9h-1.8c-0.2,0-0.3,0-0.4-0.1s0.1-0.3,0.1-0.4c0.7-1.1,1.3-2.2,2-3.4c0.2-0.3,0.1-0.4-0.2-0.4
	s-0.9,0-1.3,0s-0.5-0.1-0.5-0.5c0-0.1,0-0.2,0-0.4c0-0.3,0.1-0.4,0.4-0.4h2.1h1.6c0.1,0,0.3,0,0.4,0.1c0,0.1,0,0.3-0.1,0.4
	c-0.6,1.1-1.3,2.1-1.9,3.2c-0.4,0.7-0.4,0.7,0.4,0.7h1.1c0.3,0,0.5,0.1,0.5,0.5c0,0.1,0,0.2,0,0.3c0,0.3-0.1,0.4-0.4,0.4L53.5,54.9
	L53.5,54.9z"/>
<path class="st4" d="M46.1,54.9h-1.9c-0.4,0-0.5-0.1-0.3-0.4l1.9-3.3c0.1-0.1,0.2-0.3,0.1-0.5s-0.3-0.1-0.5-0.1h-1.1
	c-0.3,0-0.5-0.1-0.5-0.5c0-0.7,0-0.7,0.7-0.8c1.2,0,2.3,0,3.4,0c0.4,0,0.4,0.1,0.2,0.4l-1.6,2.7c-0.2,0.3-0.3,0.5-0.5,0.8
	s-0.1,0.4,0.2,0.4h1.4c0.2,0,0.5,0,0.6,0.2c0.1,0.3,0.1,0.6,0,0.9c0,0.1-0.2,0.1-0.3,0.1L46.1,54.9L46.1,54.9z"/>
<path class="st4" d="M31.7,52.2c0-0.8,0-1.6,0-2.4c0-0.2,0-0.4,0.3-0.4c0.9-0.1,1.8,0,2.7,0.1c0.4,0.1,0.8,0.3,1,0.6
	c0.4,0.6,0.4,1.4,0.2,2C35.6,52.6,35,53,34.3,53h-0.1c-1.1,0-1-0.2-1,1c0,0.9,0.1,0.9-0.9,0.9c-0.6,0-0.6,0-0.6-0.6
	c0-0.4,0-0.7,0-1.1S31.8,52.4,31.7,52.2L31.7,52.2z M33.2,51.2c0.1,0.3-0.2,0.8,0.4,0.8c0.5,0.1,0.9-0.3,1-0.7c0,0,0-0.1,0-0.1
	c0-0.4-0.3-0.6-0.9-0.6S33.2,50.9,33.2,51.2L33.2,51.2z"/>
<path class="st4" d="M97.6,52.2c0-0.8,0-1.5,0-2.3c0-0.4,0.1-0.5,0.5-0.5c0.8,0,1.7,0,2.5,0.1c0.5,0.1,1,0.5,1.1,1
	c0.4,0.9,0.1,2-0.8,2.4c-0.1,0-0.1,0.1-0.2,0.1c-0.4,0.1-0.8,0.1-1.2,0.1c-0.3,0-0.5,0.1-0.4,0.4s0,0.8,0,1.1S99,55,98.8,55
	c-1.3,0-1.1,0.1-1.1-1C97.6,53.4,97.6,52.8,97.6,52.2L97.6,52.2z M99,51.2c0,0.3-0.1,0.8,0.4,0.8c0.5,0,0.9-0.3,0.9-0.8
	c0-0.4-0.3-0.7-0.9-0.7S99,50.9,99,51.2L99,51.2z"/>
<path class="st4" d="M83.5,52.8c0-0.5,0-1.1,0-1.6c0-0.4-0.1-0.5-0.5-0.5c-0.6,0-0.7,0-0.6-0.7s-0.1-0.7,0.7-0.7c0.9,0,1.8,0,2.7,0
	c0.3,0,0.5,0.1,0.4,0.4c0,0.1,0,0.2,0,0.3c0,0.6,0,0.7-0.6,0.6c-0.4,0-0.5,0.1-0.5,0.5c0,1.1,0,2.2,0,3.3c0,0.4-0.1,0.5-0.5,0.5
	c-1.3,0-1.1,0.1-1.1-1C83.5,53.6,83.5,53.2,83.5,52.8L83.5,52.8z"/>
<path class="st4" d="M39.2,52.1c0-0.8,0-1.6,0-2.4c0-0.3,0.1-0.4,0.4-0.4c1,0,1,0,1,1c0,1.3,0,2.7,0,4c0,0.5-0.1,0.6-0.6,0.6
	c-1.1,0-0.9,0.2-0.9-0.9C39.2,53.4,39.2,52.7,39.2,52.1L39.2,52.1z"/>
<path class="st4" d="M157,13.8c-0.1,0.6-0.5,1-1.1,1.1c-0.6,0-1.1-0.5-1.1-1.2c0.1-0.6,0.5-1.1,1.1-1.1
	C156.5,12.6,157,13.1,157,13.8z M155.8,12.9c-0.4,0-0.8,0.4-0.8,0.8c0,0,0,0,0,0c-0.1,0.4,0.2,0.8,0.7,0.8c0.1,0,0.1,0,0.2,0
	c0.5,0,0.8-0.4,0.8-0.8C156.6,13.3,156.3,12.9,155.8,12.9L155.8,12.9z"/>
<path class="st4" d="M173.7,40.2c0,1.1,0,2.2,0,3.3c0.1,1-0.5,2-1.5,2.4c-1.2,0.6-2.6,0.1-3.3-1c-0.3-0.7-0.4-1.4-0.3-2.1
	c0-0.1,0.1-0.2,0.2-0.2h0.3c0.9,0,0.9,0,1,0.9c0,0.5,0.3,0.9,0.8,0.9c0,0,0.1,0,0.1,0c0.6,0,0.9-0.3,0.9-0.9s0-1.6,0-2.3
	c0-0.1,0.1-0.2-0.1-0.3s-0.2,0-0.3,0.1c-0.7,0.5-1.6,0.5-2.3,0.1c-0.5-0.3-0.7-0.9-0.7-1.4c0-1.1,0-2.1,0-3.2c0-1.4,1.1-2.5,2.5-2.5
	c0.2,0,0.4,0,0.6,0.1c1.2,0.2,2.1,1.4,2,2.7C173.7,37.9,173.7,39,173.7,40.2L173.7,40.2z M172,38L172,38c0-0.5,0-0.9,0-1.4
	c0-0.5-0.4-0.8-0.8-0.8c-0.4,0-0.8,0.3-0.9,0.7c0,0.1,0,0.1,0,0.2c0,0.9,0,1.8,0,2.7c0,0.6,0.3,0.8,1,0.8c0.4,0,0.7-0.3,0.7-0.8
	S172,38.4,172,38L172,38z"/>
<path class="st4" d="M187.1,42.2c0,0.6,0,1.3-0.1,1.9c-0.3,1.3-1.5,2.2-2.8,1.9c-1.3-0.2-2.3-1.3-2.2-2.7c0-2.2,0-4.3,0-6.5
	c-0.1-0.9,0.3-1.7,0.9-2.3c1.1-0.9,2.6-0.7,3.5,0.3c0.2,0.2,0.3,0.4,0.4,0.7c0.2,0.6,0.2,1.2,0.1,1.8c0,0.1-0.1,0.2-0.2,0.2
	c0,0,0,0,0,0h-0.2c-1.1,0-1.1,0-1.1-1c0-0.7-0.3-1-0.9-1c-0.4,0-0.8,0.3-0.8,0.7c0,0,0,0.1,0,0.1c0,0.6,0,1.2,0,1.8
	c0,0.3,0,0.5,0,0.8s-0.1,0.3,0.1,0.3s0.2,0,0.3-0.1c0.7-0.6,1.7-0.6,2.4,0c0.4,0.3,0.6,0.9,0.6,1.4
	C187.1,41.2,187.1,41.6,187.1,42.2z M185.5,42.3L185.5,42.3c0-0.2,0-0.4,0-0.6s0-0.4,0-0.6c0-0.5-0.4-0.9-0.9-0.9s-0.9,0.4-0.9,0.9
	c0,0.9,0,1.7,0,2.6c0,0.5,0.3,0.9,0.8,0.9c0,0,0.1,0,0.1,0c0.5,0,0.9-0.4,0.8-0.9c0,0,0,0,0,0C185.5,43.2,185.5,42.8,185.5,42.3
	L185.5,42.3z"/>
<path class="st4" d="M177.9,34.3c0.7,0,1.4,0,2,0c0.3,0,0.5,0.1,0.5,0.5c0,0.3-0.1,0.6-0.2,0.9c-0.6,1.4-1,2.9-1.4,4.3
	c-0.5,1.8-0.8,3.6-0.8,5.4c0,0.3-0.1,0.5-0.5,0.5s-0.7,0-1,0s-0.4-0.1-0.4-0.4c0.2-1.8,0.5-3.5,1-5.2c0.4-1.4,0.9-2.8,1.5-4.1
	c0.1-0.3-0.1-0.3-0.3-0.3H176c-0.5,0-0.6,0-0.5-0.5c0-1.1,0-1.1,1.1-1.1L177.9,34.3z"/>
<path class="st4" d="M166.1,40c0,1.7,0,3.4,0,5.1c0,0.2,0,0.4,0,0.5c0,0.1-0.1,0.2-0.2,0.2c0,0,0,0-0.1,0h-1.2
	c-0.2,0-0.3-0.1-0.3-0.3s0-0.4,0-0.7c0-3.1,0-6.2,0-9.3c0-0.3,0-0.5,0.3-0.6c0.2,0,0.4-0.2,0.4-0.4c0.1-0.5,0.4-0.3,0.7-0.3
	s0.3,0.3,0.3,0.5C166.1,36.6,166.1,38.3,166.1,40L166.1,40z"/>
<path class="st4" d="M185.8,24c0-0.4,0-0.9,0-1.3c0-0.2,0-0.3,0.2-0.3c0.6-0.1,1.2,0,1.8,0.2c0.6,0.3,1,1,0.8,1.7
	c-0.1,0.6-0.5,1.1-1.1,1.3c-0.5,0.1-1,0.1-1.5,0.1c-0.2,0-0.3-0.2-0.3-0.3C185.8,24.9,185.8,24.4,185.8,24L185.8,24z M186.7,24
	L186.7,24c0,0.1,0,0.3,0,0.4c-0.1,0.4,0.1,0.4,0.4,0.4c0.5-0.2,0.8-0.7,0.7-1.2c0,0,0-0.1-0.1-0.1c-0.2-0.3-0.5-0.5-0.9-0.4
	c-0.3,0.1-0.2,0.4-0.2,0.6C186.7,23.8,186.7,23.9,186.7,24L186.7,24z"/>
<path class="st4" d="M167.7,22.4c0.5-0.1,1,0.1,1.3,0.4c0.3,0.4,0.3,0.9,0,1.3c-0.2,0.2-0.3,0.4,0,0.6c0.2,0.2,0.3,0.4,0.4,0.6
	c0.1,0.2,0.1,0.3-0.2,0.3c-0.6,0.1-0.9-0.3-1.1-0.8c-0.1-0.1-0.1-0.3-0.2-0.3s-0.1,0.3-0.1,0.4s0.1,0.6-0.3,0.6s-0.6,0-0.6-0.5
	c0-0.7,0-1.5,0-2.2c0-0.5,0-0.5,0.6-0.6L167.7,22.4z M167.7,23.4c0,0.2-0.2,0.5,0.2,0.5c0.2,0,0.4-0.1,0.4-0.3c0,0,0,0,0-0.1
	c0-0.3-0.2-0.4-0.4-0.4S167.7,23.2,167.7,23.4L167.7,23.4z"/>
<path class="st4" d="M172.4,22.4c0.3-0.1,0.4,0.1,0.6,0.4c0.3,0.8,0.6,1.6,0.8,2.3c0.1,0.2,0.2,0.4-0.1,0.4s-0.6,0.1-0.7-0.2
	c-0.1-0.2-0.3-0.4-0.5-0.4c0,0,0,0,0,0c-0.3,0.1-0.7-0.2-0.8,0.3c-0.1,0.3-0.4,0.3-0.7,0.2s-0.1-0.3-0.1-0.5
	c0.3-0.8,0.6-1.6,0.9-2.4C171.9,22.4,172.1,22.4,172.4,22.4z M172.3,24.4c0.2,0,0.3-0.1,0.3-0.3s-0.1-0.5-0.3-0.5s-0.1,0.4-0.2,0.6
	S172.2,24.4,172.3,24.4L172.3,24.4z"/>
<path class="st4" d="M182.2,24.1c0-0.4,0-0.9,0-1.3c0-0.2,0.1-0.3,0.3-0.3c0.4,0,0.8,0,1.2,0s0.3,0.1,0.3,0.4s0,0.4-0.3,0.4
	c-0.1,0-0.3,0-0.5,0c-0.1,0-0.2,0.1-0.2,0.2c0,0,0,0,0,0c0,0.1,0.1,0.2,0.2,0.2c0,0,0,0,0,0c0.1,0,0.2,0,0.3,0
	c0.3,0,0.5,0.1,0.5,0.4s-0.2,0.4-0.5,0.4h-0.3c-0.1,0-0.2,0.1-0.3,0.2c0,0,0,0,0,0c0,0.2,0.1,0.2,0.3,0.2h0.3c0.3,0,0.5,0,0.5,0.4
	s-0.2,0.4-0.4,0.4s-0.7,0-1.1,0s-0.4-0.1-0.4-0.4C182.2,24.9,182.2,24.5,182.2,24.1L182.2,24.1z"/>
<path class="st4" d="M170.6,31.2c-0.2,0-0.5-0.1-0.7-0.1c-0.2-0.1-0.4-0.2-0.2-0.4s0.2-0.5,0.5-0.3s0.4,0.3,0.7,0.1
	c0.1-0.1,0.2-0.1,0.2-0.3c0-0.1-0.1-0.2-0.2-0.3l-0.3-0.1c-0.6-0.2-0.7-0.5-0.5-1.1c0.2-0.7,1-1,1.7-0.8c0.1,0,0.2,0.1,0.3,0.2
	c0.1,0,0.1,0.1,0,0.2c0,0,0,0,0,0c-0.1,0.2-0.2,0.5-0.5,0.4c-0.2-0.1-0.3-0.1-0.5,0s-0.2,0.1-0.2,0.2c0,0.1,0.1,0.2,0.2,0.2h0.1
	c0.6,0.2,0.9,0.5,0.8,0.8c0,0.6-0.5,1.2-1.2,1.2L170.6,31.2z"/>
<path class="st4" d="M162.7,24.1c0-0.9,0.7-1.7,1.6-1.8c0.2,0,0.4,0,0.6,0.1c0.4,0.1,0.3,0.4,0.3,0.7s-0.3,0.2-0.4,0.1
	c-0.8-0.1-1.1,0.1-1.2,0.8c-0.1,0.5,0.2,1,0.7,1c0.2,0,0.3,0,0.5,0c0.1,0,0.3-0.3,0.4,0s0.2,0.5-0.2,0.7c-0.7,0.3-1.5,0.1-2-0.5
	C162.8,24.9,162.7,24.5,162.7,24.1z"/>
<path class="st4" d="M175.5,24c0-0.4,0-0.9,0-1.3c0-0.2,0.1-0.3,0.3-0.3c0.4,0,0.8,0,1.3,0c0.2,0,0.3,0.1,0.3,0.3s0,0.5-0.3,0.4
	h-0.5c-0.2,0-0.3,0.1-0.3,0.3s0.1,0.3,0.2,0.3h0.3c0.2,0,0.4,0.1,0.4,0.3s-0.1,0.4-0.4,0.4c-0.6,0-0.6,0.1-0.6,0.6
	c0,0.3,0,0.5-0.3,0.6s-0.5,0-0.5-0.4S175.5,24.4,175.5,24L175.5,24z"/>
<path class="st4" d="M174.9,28.9c0.3,0.2,0.6-0.1,0.9-0.1s0.7,0.2,0.7,0.7c0,0.5-0.1,0.9-0.2,1.4c-0.1,0.3-0.4,0.2-0.6,0.2
	s-0.2-0.2-0.2-0.4c0.1-0.3,0.1-0.6,0.2-0.8c0-0.2,0-0.3-0.2-0.4s-0.3,0.1-0.4,0.2c-0.2,0.3-0.2,0.7-0.2,1c0,0.4-0.3,0.4-0.6,0.4
	S174,31,174,30.8c0.1-0.6,0.2-1.1,0.3-1.6C174.3,28.9,174.6,28.9,174.9,28.9z"/>
<path class="st4" d="M179.3,24.4c0-0.3,0-0.6,0-0.8s0-0.4-0.3-0.4s-0.3-0.2-0.3-0.4s0.1-0.4,0.4-0.4c0.5,0,1,0,1.5,0
	c0.3,0,0.4,0.1,0.4,0.4s-0.1,0.4-0.4,0.4s-0.4,0.1-0.4,0.4c0,0.6,0,1.1,0,1.7c0,0.3-0.1,0.4-0.4,0.4s-0.5,0-0.5-0.4
	S179.3,24.7,179.3,24.4L179.3,24.4z"/>
<path class="st4" d="M180.3,31.2c-0.3,0.1-0.7-0.1-0.8-0.4c-0.2-0.4-0.2-0.9,0.1-1.3c0.4-0.6,1.2-0.7,1.8-0.3c0,0,0,0,0.1,0
	c0.2,0.1,0.3,0.4,0.3,0.6c0,0.3,0,0.5-0.4,0.4c-0.3,0-0.6,0-0.9,0c-0.2,0-0.4,0-0.4,0.2s0.3,0.3,0.4,0.3c0.2-0.1,0.4-0.1,0.6-0.2
	c0.1,0,0.2,0,0.3,0.1s0,0.2-0.1,0.3C181.1,31.1,180.7,31.2,180.3,31.2z M180.6,29.7c0.1-0.1,0.4,0.1,0.4-0.1c0-0.1-0.1-0.2-0.2-0.2
	c0,0,0,0-0.1,0c-0.2,0-0.4,0-0.4,0.2S180.4,29.8,180.6,29.7L180.6,29.7z"/>
<path class="st4" d="M184.9,29.5c0.5,0,0.9,0,1.4,0c0.2,0,0.3,0.1,0.3,0.3s-0.1,0.3-0.3,0.3h-2.8c-0.3,0-0.3-0.1-0.3-0.4
	s0.2-0.3,0.4-0.3L184.9,29.5L184.9,29.5z"/>
<path class="st4" d="M178.1,31.2c-0.6,0-1-0.4-1-1c0-0.1,0-0.2,0-0.3c0.2-0.7,0.8-1.1,1.5-1.1c0.2,0,0.4,0.2,0.3,0.4s0,0.4-0.4,0.3
	c-0.3,0-0.6,0.2-0.7,0.5c0,0,0,0.1,0,0.1c0,0.3,0.2,0.5,0.6,0.4c0.1,0,0.2,0,0.2,0.2s0,0.4-0.2,0.4
	C178.3,31.2,178.2,31.2,178.1,31.2z"/>
<path class="st4" d="M166.5,29.5h1.4c0.2,0,0.3,0,0.3,0.2s0,0.4-0.3,0.4H165c-0.2,0-0.2-0.2-0.2-0.3s0.1-0.3,0.3-0.3L166.5,29.5
	L166.5,29.5z"/>
<path class="st4" d="M173.2,28.9c0.4-0.1,0.4,0.1,0.3,0.4c-0.1,0.5-0.2,0.9-0.2,1.4c-0.1,0.4-0.3,0.4-0.6,0.3s-0.2-0.3-0.2-0.4
	c0.1-0.5,0.1-1,0.2-1.4C172.8,28.9,173,28.9,173.2,28.9z"/>
<path class="st4" d="M173.3,28.6c-0.2,0-0.4-0.2-0.4-0.4c0-0.3,0.2-0.5,0.5-0.5c0,0,0,0,0,0c0.2,0,0.4,0.1,0.4,0.3c0,0,0,0,0,0.1
	C173.8,28.3,173.5,28.5,173.3,28.6z"/>
<path class="st2" d="M18.2,27.7c0-3.2,0-6.3,0-9.5c-0.1-1,0.6-1.9,1.6-2c0.4,0,0.9,0.1,1.3,0.3c0.5,0.4,0.8,1,0.8,1.7
	c0,6.3,0,12.6,0,18.9c0.1,0.9-0.3,1.7-1,2.2c-0.6,0.5-1.4,0.4-1.9-0.2c0,0-0.1-0.1-0.1-0.1c-0.5-0.6-0.7-1.3-0.6-2.1
	C18.2,33.9,18.2,30.8,18.2,27.7z"/>
<path class="st2" d="M45.7,28c0-3.5,0-7.1,0-10.6c0-0.6,0.2-0.8,0.8-0.8c0.6-0.1,1.2,0,1.8,0.2c0.4,0.2,0.7,0.6,0.8,1
	c0.2,0.8,0.2,1.6,0.2,2.5c0,5.1,0,10.3,0,15.4c0.1,0.8,0,1.6-0.3,2.4c-0.3,0.7-0.9,1.2-1.7,1.2h-0.6c-0.8,0-0.9-0.1-0.9-0.9
	C45.7,34.9,45.7,31.5,45.7,28z"/>
<path class="st2" d="M120.1,21.6c0,0.3,0,0.6,0,0.9c0.2,2.2,0.4,4.5,0.6,6.7c0.1,1.3,0.3,2.7,0.4,4c0,0.5-0.1,0.7-0.6,0.8
	c-0.5,0-0.9,0-1.4,0c-0.3,0-0.5-0.2-0.5-0.5c0,0,0-0.1,0-0.1c0-0.5,0.1-1,0.1-1.5c0.4-3.1,0.7-6.3,1-9.4c0-0.3,0.1-0.6,0.2-0.8
	L120.1,21.6z"/>
<path class="st2" d="M124.6,50.5c0.9,0,1.6,0.7,1.6,1.6c0,0.9-0.7,1.6-1.6,1.6c0,0-0.1,0-0.1,0c-0.8,0-1.5-0.6-1.6-1.4
	c0-0.1,0-0.1,0-0.2C122.9,51.3,123.6,50.5,124.6,50.5C124.5,50.5,124.5,50.5,124.6,50.5z"/>
<path class="st2" d="M117,52.2c0.1,0.8-0.6,1.6-1.4,1.6c-0.1,0-0.1,0-0.2,0c-0.9,0-1.5-0.7-1.6-1.5c0,0,0-0.1,0-0.1
	c0-0.9,0.7-1.6,1.6-1.6c0,0,0.1,0,0.1,0C116.4,50.6,117,51.3,117,52.2z"/>
<path class="st2" d="M72.6,54c-0.3-0.1-0.6-0.1-0.7-0.5c-0.1-0.3,0.1-0.6,0.4-0.7c0.1-0.1,0.2-0.1,0.3,0c0,0,0,0,0,0
	c0.2,0.2,0.3,0.3,0.5,0.5s0.2,0.5-0.2,0.6L72.6,54z"/>
<path class="st2" d="M73.6,50.7c0,0.3-0.3,0.7-0.5,0.7s-0.5-0.5-0.5-0.7s0.3-0.4,0.5-0.4C73.4,50.2,73.6,50.4,73.6,50.7
	C73.6,50.7,73.6,50.7,73.6,50.7z"/>
<path class="st2" d="M106.4,51.2c0.1-0.3-0.1-0.7,0.4-0.7s0.8,0.3,0.8,0.7s-0.3,0.7-0.8,0.7S106.5,51.5,106.4,51.2z"/>
<path class="st2" d="M91.6,52.8c-0.5,0-0.6-0.1-0.4-0.6c0.1-0.2,0.2-0.5,0.3-0.7c0-0.1,0.1-0.2,0.2-0.2c0.1,0,0.1,0.1,0.1,0.2
	c0,0.3,0.2,0.4,0.2,0.6C92.1,52.8,92.1,52.8,91.6,52.8z"/>
<path class="st2" d="M61.6,52.8c-0.5,0-0.6-0.1-0.5-0.5c0.1-0.3,0.2-0.6,0.3-0.8c0.1-0.2,0.2-0.2,0.3,0c0.1,0.3,0.3,0.7,0.3,1
	C62.1,52.9,61.7,52.8,61.6,52.8z"/>
<path class="st2" d="M33.2,51.2c0.1-0.3-0.2-0.7,0.4-0.7s0.9,0.2,0.9,0.6c0,0.5-0.4,0.9-0.9,0.8c0,0-0.1,0-0.1,0
	C33,51.9,33.2,51.5,33.2,51.2z"/>
<path class="st2" d="M99,51.2c0-0.3-0.1-0.7,0.4-0.7s0.9,0.3,0.9,0.7c0,0.5-0.5,0.8-0.9,0.8C98.9,51.9,99,51.5,99,51.2z"/>
<path class="st2" d="M155.8,12.9c0.5,0,0.9,0.4,0.9,0.8c0,0,0,0,0,0c0,0.5-0.4,0.8-0.8,0.8c-0.4,0-0.8-0.3-0.8-0.7
	c0-0.1,0-0.1,0-0.2C155,13.3,155.3,12.9,155.8,12.9C155.8,12.9,155.8,12.9,155.8,12.9z M156.1,14.2c0-0.1,0-0.2,0-0.2
	s0.3-0.4,0.2-0.6s-0.4-0.1-0.6-0.1c-0.1,0-0.2,0-0.3,0c0,0-0.1,0.1-0.1,0.1c0,0.3,0,0.5,0,0.8c0,0.1,0.2,0.2,0.2,0
	C155.7,13.8,155.9,14,156.1,14.2L156.1,14.2z"/>
<path class="st3" d="M172,38c0,0.5,0,0.9,0,1.4s-0.3,0.8-0.7,0.8c-0.6,0-1-0.3-1-0.8c0-0.9,0-1.8,0-2.8c0-0.4,0.3-0.8,0.7-0.9
	c0.1,0,0.1,0,0.2,0c0.5,0,0.8,0.4,0.8,0.8C172,37,172,37.5,172,38L172,38z"/>
<path class="st3" d="M185.5,42.3c0,0.4,0,0.9,0,1.3c0,0.5-0.4,0.9-0.8,0.9c0,0,0,0,0,0c-0.5,0-0.9-0.3-0.9-0.8c0,0,0-0.1,0-0.1
	c0-0.9,0-1.7,0-2.6c0-0.5,0.4-0.9,0.9-0.9s0.9,0.4,0.9,0.9c0,0.2,0,0.4,0,0.6S185.5,42.1,185.5,42.3L185.5,42.3z"/>
<path class="st3" d="M186.7,24c0-0.1,0-0.2,0-0.3c0-0.2-0.1-0.6,0.2-0.6c0.3-0.1,0.7,0.1,0.9,0.4c0.2,0.5,0,1.1-0.5,1.3
	c0,0-0.1,0-0.1,0.1c-0.3,0-0.5,0-0.4-0.4C186.7,24.4,186.7,24.2,186.7,24L186.7,24z"/>
<path class="st3" d="M167.7,23.4c0-0.2-0.1-0.4,0.2-0.3s0.4,0.1,0.4,0.4c0,0.2-0.2,0.4-0.4,0.4c0,0,0,0-0.1,0
	C167.6,23.9,167.7,23.6,167.7,23.4z"/>
<path class="st3" d="M172.3,24.4c-0.1,0-0.3,0-0.2-0.2s0-0.5,0.2-0.6s0.3,0.3,0.3,0.5S172.5,24.4,172.3,24.4z"/>
<path class="st2" d="M180.6,29.8c-0.1,0-0.3,0-0.3-0.1s0.3-0.2,0.4-0.2c0.1,0,0.2,0.1,0.2,0.2c0,0,0,0,0,0.1
	C180.9,29.8,180.7,29.7,180.6,29.8z"/>
<path class="st4" d="M156.1,14.2c-0.2-0.1-0.3-0.4-0.5,0c0,0.1-0.2,0.1-0.2,0c0-0.3,0-0.5,0-0.8c0,0,0.1-0.1,0.1-0.1
	c0.1,0,0.2,0,0.3,0c0.2,0,0.4-0.1,0.6,0.1s0,0.4-0.2,0.6S156.1,14.1,156.1,14.2z"/>
</svg>
