<?xml version="1.0" encoding="utf-8"?>
<!-- Generator: Adobe Illustrator 21.1.0, SVG Export Plug-In . SVG Version: 6.00 Build 0)  -->
<svg version="1.1" id="Layer_1" xmlns="http://www.w3.org/2000/svg" xmlns:xlink="http://www.w3.org/1999/xlink" x="0px" y="0px"
	 viewBox="0 0 181 181" style="enable-background:new 0 0 181 181;" xml:space="preserve">
<style type="text/css">
	.st0{fill:#54311A;}
	.st1{fill:#A1B22A;}
	.st2{fill:#E2DDD7;}
</style>
<title>Casual dining</title>
<rect x="0.5" y="0.5" class="st0" width="180" height="180"/>
<rect x="0.5" y="25.2" class="st0" width="180" height="130.6"/>
<path class="st1" d="M62.1,140.5h1.3v6.1h-1.3V140.5z"/>
<path class="st1" d="M71.4,140.5v1.1h-2.2v5h-1.3v-5h-2.2v-1.1H71.4z"/>
<path class="st1" d="M73.4,146.6l2.6-6.1h1.3l2.6,6.1h-1.3l-0.4-0.9h-2.9l-0.4,0.9L73.4,146.6z M76.6,142.1l-1,2.3h1.9L76.6,142.1z"
	/>
<path class="st1" d="M83.5,140.5v5H87v1.1h-4.8v-6.1H83.5z"/>
<path class="st1" d="M89.4,140.5h1.3v6.1h-1.3V140.5z"/>
<path class="st1" d="M93,146.6l2.6-6.1h1.3l2.6,6.1h-1.4l-0.4-0.9h-2.9l-0.4,0.9L93,146.6z M96.3,142.1l-1,2.3h1.9L96.3,142.1z"/>
<path class="st1" d="M101.8,146.6v-6.1h0.4l4.1,3.8v-3.8h1.3v6.1h-0.5l-4-3.8v3.8L101.8,146.6z"/>
<path class="st1" d="M114.7,140.5h1.3v2.4l2.2-2.4h1.5l-2.5,2.9l3.1,3.3h-1.7L116,144v2.6h-1.3L114.7,140.5z"/>
<path class="st1" d="M122.3,140.5h1.3v6.1h-1.3V140.5z"/>
<path class="st1" d="M131.5,140.5v1.1h-2.2v5H128v-5h-2.2v-1.1H131.5z"/>
<path class="st1" d="M134.5,145.8c-1.2-1.1-1.3-3-0.1-4.2c0,0,0.1-0.1,0.1-0.1c0.6-0.6,1.4-0.9,2.3-0.9c0.9,0,1.7,0.3,2.4,0.8
	l-0.9,0.9c-0.4-0.3-1-0.5-1.5-0.5c-0.5,0-1,0.2-1.4,0.5c-0.4,0.3-0.5,0.8-0.5,1.3c0,0.5,0.2,1,0.5,1.4c0.4,0.3,0.9,0.5,1.4,0.5
	c0.5,0,1.1-0.2,1.5-0.5l0.9,0.9c-0.7,0.5-1.5,0.8-2.4,0.8C136,146.6,135.1,146.3,134.5,145.8z"/>
<path class="st1" d="M141.9,146.6v-6.1h1.3v2.4h3v-2.4h1.3v6.1h-1.3v-2.5h-3v2.5L141.9,146.6z"/>
<path class="st1" d="M150.3,146.6v-6.1h4.8v1.1h-3.5v1.3h2.6v1.1h-2.6v1.4h3.5v1.1H150.3z"/>
<path class="st1" d="M157.7,146.6v-6.1h0.4l4.1,3.8v-3.8h1.3v6.1H163l-4-3.8v3.8L157.7,146.6z"/>
<path class="st2" d="M145.5,107.3c0.9-0.2,1.9-0.2,2.8-0.1c0.6,0,0.8,0.4,0.8,0.9c-0.1,1.2,0.4,1,1.1,0.4c2.2-1.6,5.1-2.1,7.7-1.3
	c2.9,0.9,4.7,3.2,4.9,6.6c0.1,2.4,0.1,4.8,0.1,7.2c0,0.5,0,1.1,0.1,1.6c0.1,1.1,0.3,2.2,1.4,2.6c1.1,0.4,2.4,0.1,3.2-0.7
	c0.2-0.2,0.4-0.3,0.6-0.4c0.7-0.3,1-1.9,2-1.1c1.3,1.1,1.4,3.6,0.3,4.5c-1.6,1.5-3.7,2.2-5.8,2c-3.4-0.3-5.6-2.8-5.8-6.8
	c-0.1-2.5,0-5-0.1-7.5c0-1.6,0-3.2-1.8-3.9c-1.8-0.8-3.8-0.3-5.2,1.1c-1.9,1.9-2.9,4.5-2.8,7.2c0,2.7,0,5.4,0,8.1
	c0,1-0.2,1.5-1.4,1.4c-3.2-0.1-2.7,0.4-2.8-2.8c0-0.5,0-1,0-1.5c-0.6-0.2-0.7,0.2-0.9,0.4c-4.4,4.9-10.8,5.7-16.2,2
	c-0.8-0.6-1.1-0.1-1.5,0.3c-2.6,2.2-5.6,2.4-7.9,0.6c-0.7-0.7-1.3-1.5-1.9-2.3c-1.3,1.7-3.2,2.9-5.3,3.4c-4.6,1.2-9.3-1.5-10.8-6
	c-1.5-3.8-1.3-8.1,0.6-11.7c1.4-3.1,4.6-5,8-4.8c2-0.1,3.9,0.5,5.5,1.5c0.8,0.5,0.7,0,0.7-0.6c0-3.3,0.1-6.5,0-9.8
	c0-1.4,0.4-1.8,1.8-1.8c2.9,0.1,2.3-0.1,2.4,2.4c0,7.2,0,14.4,0,21.6c-0.2,1.5,0.2,3.1,1.1,4.3c0.6,0.8,1.8,1,2.7,0.4c0,0,0,0,0,0
	c0.9-0.5,1.9-1,1.4-2.6c-1.4-4.3-1-8.4,1.9-12c2.1-2.8,5.6-4.2,9.1-3.6c3.2,0.3,5.7,2.7,6.1,5.9c0.3,3.3-1.8,6.4-5,7.3
	c-2.2,0.6-4.6,0.6-6.8,0c-0.5-0.1-1-0.3-1.5-0.4c-0.1,2.8,1.9,5.3,4.6,5.7c4.3,0.7,7.6-0.9,10.1-4.3c0.7-0.9,1.2-1.9,1.8-2.9
	c0.7-0.3,0.5-0.9,0.5-1.5C145.5,113.5,145.5,110.4,145.5,107.3z M115.1,118.1c0-1.2-0.2-2.4-0.6-3.6c-0.7-2.3-2.8-3.9-5.1-3.9
	c-2.3-0.1-4.4,1.5-5,3.7c-0.9,2.4-0.8,5.1,0.1,7.5c0.6,2.1,2.6,3.5,4.8,3.5c2.2,0.1,4.2-1.1,5-3.1
	C114.8,120.9,115.1,119.5,115.1,118.1L115.1,118.1z M133.5,116.3c0.6,0,1.2-0.1,1.8-0.3c1.4-0.3,2.4-1.6,2.3-3.1
	c-0.1-1.3-1.2-2.1-2.9-2.3c-2.5-0.2-4.9,1.2-5.9,3.5c-0.3,0.7-0.2,1,0.5,1.3C130.7,115.9,132.1,116.2,133.5,116.3z"/>
<path class="st2" d="M74,125.8c-3.6,3.6-7,4.5-10.9,2.9c-2.1-0.8-3.8-2.5-4.7-4.6c-1.8-3.9-1.8-8.5,0.1-12.4
	c2.2-4.6,7.6-6.6,12.2-4.4c0.3,0.1,0.5,0.3,0.8,0.4c0.4,0.2,0.7,0.4,1.2,0.8c-0.2-1.8,1-1.4,2-1.4c2.2,0,2.2,0,2.2,2.1
	c0,3.6,0,7.2,0,10.8c0,1.3,0.2,2.5,0.6,3.7c0.2,0.9,1,1.6,2,1.7c1.1,0,1.6-0.7,2-1.6c0.7-1.6,1-3.3,1-5.1c0.3-3.8-0.1-7.7-1.1-11.4
	c-0.3-0.9-0.1-1.4,0.8-1.5c0.5-0.1,0.9-0.2,1.4-0.4c0.6-0.4,1.5-0.2,1.9,0.4c0,0.1,0.1,0.1,0.1,0.2c0.7,0.9,1.8,1.4,3,1.4
	c1,0.1,2,0,3,0.1c2.8-0.1,5.3,2.1,5.4,4.9c0,0.2,0,0.4,0,0.6c0.1,3.1-0.2,6.2,0.2,9.4s1.3,6,3.8,8.2c2.7,2.4,5.9,2.7,9.2,2.2
	c0.8-0.3,1.6,0.2,1.8,0.9c0,0.1,0,0.1,0.1,0.2c1,2.8,1.1,2.7-1.9,3c-6.4,0.6-11.7-1.4-14.9-7.2c-1.5-2.9-2.3-6.1-2.2-9.4
	c0-2.4-0.1-4.7,0-7.1c0-1.2-0.5-1.6-1.6-1.6c-1.4,0.1-2.8,0-4.2-0.3c-1-0.3-0.8,0.4-0.8,1c0.2,3.9,0.5,7.9-0.6,11.7
	c-0.7,2.6-1.9,4.8-4.9,5.5C78.2,129.9,76.3,129,74,125.8z M72.5,118.3c0.1-1.8-0.4-3.6-1.3-5.1c-1-1.8-3.1-2.8-5.1-2.5
	c-1.9,0.1-3.6,1.4-4.2,3.2c-0.9,2.3-1.1,4.9-0.3,7.3c0.8,2.6,2.5,4.1,4.9,4.1c2.5,0.1,4.7-1.5,5.4-3.9
	C72.3,120.5,72.5,119.4,72.5,118.3z"/>
<path class="st2" d="M50.7,123.9c-1.1,1.3-2.3,2.6-3.7,3.6c-8.6,5.6-19.5,1.4-21.7-8.6c-1.6-7.3-0.4-14.1,5.5-19.2
	c4.5-3.9,9.9-4.5,15.4-2.1c3.1,1.3,5.1,4.4,5.1,7.7c0.2,3.4-1.6,6.5-4.5,8.1c-0.9,0.6-1.5,0.5-1.8-0.6c-0.1-0.5-0.3-0.9-0.5-1.3
	c-0.5-0.8-0.3-1.3,0.6-1.9c2.2-1.5,2.9-4.5,1.4-6.7c-0.7-1-1.7-1.8-3-2.1c-4.7-1.4-9.8,0.5-12.4,4.7c-2.5,4-3,8.8-1.6,13.3
	c0.9,3.6,3.9,6.3,7.6,6.8c3.8,0.8,7.7-0.5,10.1-3.4c2.1-2.5,3.3-5.6,3.4-8.8c0.1-1.1,0.3-1.5,1.5-1.5c2.7,0.1,2.7,0,2.7,2.6
	c0,4.6,0,9.2,0,13.8c0.1,2.7-0.5,5.5-1.8,7.9c-2.6,4.1-8,5.4-12.2,2.9c-0.5-0.4-0.7-0.7-0.4-1.3c0.1-0.2,0.1-0.4,0.2-0.5
	c0.3-0.7,0.5-1.7,1-2.1s1.3,0.6,1.9,0.8c2.8,1,5.3,0,6.3-2.8S50.7,127.3,50.7,123.9z"/>
<path class="st2" d="M79.3,90.3c3.3-5,5.8-9.9,4.1-15.8c-0.2-0.7,0-1,0.7-1.3c2.8-0.9,2.7-0.9,4.6,1.2c0.8,0.9,1.8,1.8,2.6,2.7
	c0.7,0.7,1,0.5,1.4-0.3c1.7-3.4,5.4-5.5,9.2-5.2c3.6,0.2,6.5,2.5,6.9,5.7c0.5,3.6-1.5,6.4-5.2,7.6c-2.5,0.7-5.2,0.6-7.6-0.4
	c-1.1-0.4-1.2-0.1-1.1,0.9c0.7,4.8,5.4,7.2,10.2,5.1c1.4-0.6,2.6-1.5,3.6-2.6c0.7-0.8,1-0.6,1.4,0.3c1.3,3,1.2,3.5-1.6,5.2
	c-4.8,2.8-10.7,2.5-14.3-0.7c-2.8-2.5-3.7-5.8-3.5-9.4c0.2-1-0.2-2-1.1-2.5c-0.6-0.5-1.2-1-1.8-1.5c-0.5,3.8-1.8,7.4-3.9,10.6
	c-0.9,1.6-2,3.1-3.1,4.5c-0.3,0.5-0.9,0.7-1.5,0.7c-2.9,0.1-2.9,0.1-3.8-2.7c-2-6.1-4.6-12-7.7-17.6c-0.8-1.3-0.6-1.3,0.9-1.5
	c2.3-0.3,3.5,0.6,4.4,2.7C75.5,80.6,77.5,85.2,79.3,90.3z M100.4,81.3c0.9,0,1.8-0.1,2.7-0.5c1.1-0.4,1.9-1.5,1.8-2.7
	c-0.1-1.4-1.1-2-2.3-2.3c-2.8-0.6-5.6,0.9-6.6,3.6c-0.2,0.6,0,0.8,0.4,0.9C97.7,80.9,99.1,81.2,100.4,81.3L100.4,81.3z"/>
<path class="st2" d="M40.5,77.5c0,5-0.8,9.1-3.5,12.7c-5.2,6.5-14.6,7.6-21.1,2.4c-1.2-1-2.3-2.1-3.1-3.4
	c-4.5-6.8-3.7-17.6,1.8-23.7c1.1-1.2,1.2-1.2,1.8,0.2c0.1,0.2,0.1,0.4,0.2,0.5c0.8,1.4,0.6,2.5-0.2,3.9c-2.9,4.6-3.2,10.4-0.8,15.3
	c1.6,4,5.6,6.6,10,6.3c4.6-0.1,8-2.3,9.7-6.6c2.3-5.5,1.8-11.8-1.3-16.9c-1.4-2.5-4.1-4-7-3.9c-0.7,0-1.4,0.1-2.1,0.4
	c-1.5,0.6-2.3,2.1-1.9,3.6c0.3,1.4,1.5,2.3,2.9,2.3c1.1,0,2.2-0.2,3.2-0.7c0.7-0.3,1-0.1,1.3,0.5c1.4,2.9,1.2,3.2-2,4
	c-5.6,1.3-10.1-2.2-9.5-7.6c0.4-3.3,2.9-6,6.2-6.5c5.8-1.1,11.2,2.1,13.7,8.1C39.9,71.4,40.5,74.4,40.5,77.5z"/>
<path class="st2" d="M43.1,74.9c-0.1-2.8,0-5.6,0.2-8.4c0.2-1.5,0.7-3,1.4-4.3c1.4-2.4,4.5-3.2,6.8-1.8c0.7,0.4,1.3,1,1.7,1.7
	c1.1,1.9,1.7,4,1.6,6.2c0,6.9-2.2,13.1-5.7,18.9c-1,1.7-0.7,2.8,1.2,3.7c1.1,0.5,2.4,0.6,3.5,0.3c1.4-0.3,2.7-0.9,3.7-1.8
	c1.3-0.9,2-2.4,1.8-3.9c-0.3-3.6-0.1-7.3-0.2-10.9c0-0.8,0.3-1.2,1.2-1.2c3-0.1,2.9-0.1,3,2.8c0.1,3.6-0.3,7.3,0.3,10.9
	c0.1,0.4,0.2,0.8,0.3,1.3c1.1,3.2,4.1,3.9,6.6,1.7c1.6-1.4,1.6-1.4,2.3,0.6c0.9,2.4,0.8,2.4-1.3,3.7c-3.2,1.9-7.4,1.2-9.8-1.7
	c-0.6-0.7-0.9-0.7-1.6-0.1c-2,1.8-4.6,2.8-7.4,2.8c-4.2,0.1-7.1-1.9-8.6-5.8c-0.7-2.1-1.1-4.3-1.2-6.5C43,80.6,43.1,78.3,43.1,74.9z
	 M47.2,68.4c-0.3,4.3-0.2,8.6-0.1,12.9c-0.1,0.7,0,1.4,0.2,2c0.9-2,1.7-4.1,2.2-6.2c0.5-2,0.7-4.1,1.1-6.1c0.5-2,0.3-4-0.4-5.9
	c-0.2-0.6-0.4-1.3-1.2-1.3s-1,0.7-1.2,1.3C47.4,66.1,47.2,67.2,47.2,68.4z"/>
<path class="st2" d="M63.7,67.5c0,1.3-1,2.3-2.2,2.4c-1.3,0.1-2.4-0.9-2.4-2.2s0.9-2.4,2.2-2.4S63.6,66.1,63.7,67.5
	C63.7,67.5,63.7,67.5,63.7,67.5z"/>
<path class="st1" d="M167.1,132.4c0.2,0.1,0.3,0.2,0.4,0.3l-0.4,0.4c-0.1-0.2-0.3-0.3-0.6-0.3c-0.2,0-0.4,0.1-0.5,0.2
	c-0.1,0.1-0.1,0.2,0,0.3c0.1,0.1,0.3,0.2,0.5,0.2c0.2,0,0.5,0.1,0.7,0.3c0.2,0.2,0.3,0.4,0.3,0.7c0,0.3-0.1,0.5-0.3,0.6
	c-0.2,0.2-0.5,0.3-0.8,0.3c-0.2,0-0.5,0-0.7-0.1c-0.2-0.1-0.3-0.2-0.5-0.3l0.4-0.4c0.2,0.2,0.4,0.3,0.7,0.3c0.3,0,0.4-0.1,0.5-0.2
	c0.1-0.1,0.1-0.2,0-0.4c-0.1-0.1-0.2-0.2-0.5-0.2c-0.2,0-0.5-0.1-0.6-0.2c-0.2-0.1-0.3-0.4-0.3-0.6c0-0.3,0.1-0.5,0.3-0.7
	c0.2-0.2,0.4-0.2,0.7-0.3C166.7,132.3,166.9,132.3,167.1,132.4z"/>
<path class="st1" d="M168.2,135.4v-3.2h0.2l1.3,1.6l1.3-1.6h0.2v3.2h-0.6v-1.8l-0.9,1.1l-0.9-1.1v1.8H168.2z"/>
<path class="st1" d="M118.9,64.3l2.2,0.2c1.8,0.2,3.6,0.4,5.4,0.7c0.6,0.1,0.6,0.1,0.6-0.5c0-0.1,0-0.3,0-0.4c0.2-0.7,0.2-1.3,0.1-2
	c-0.4-1.5-1-3-1.7-4.4c-0.1-0.1-0.2-0.2-0.4-0.2c-1.9-0.3-3.7-1.2-5-2.6c-1.4-1.4-2.7-3.1-3.7-4.8c-2-3.3-3.7-6.7-5.5-10.1
	c0-0.1-0.1-0.2-0.1-0.3s0.2,0,0.3,0c4.8,1.1,9,3.8,12.2,7.6c1.2,1.4,2,3.1,2.6,4.8c0.5,1.4,0.7,2.9,0.6,4.4c0,0.2,0,0.5,0.1,0.7
	c0.2,0.4,0.5,0.8,0.7,1.3c0.1,0.3,0.3,0.5,0.6,0.5s0.4-0.3,0.5-0.6c0.5-1.6,1.1-3.1,1.8-4.6c0.2-0.3,0.3-0.6,0.4-0.9
	c0.3-2.4,0.1-4.9-0.6-7.2c-0.1-0.3-0.2-0.4-0.5-0.3c-0.6,0.1-1.2,0.1-1.8-0.1c-2.2-0.9-3.4-3.2-2.9-5.4c0.2-1.4,1.2-2.5,2.5-2.9
	c1.1-0.5,2.4-0.5,3.5,0.1c0.9,0.5,1.6,1.2,2,2.1c1.1,1.8,0.6,4.2-1.2,5.5c-0.3,0.1-0.4,0.5-0.3,0.8c0.3,0.9,0.5,1.7,0.6,2.7
	c0.1,0.6,0.1,1.2,0.2,1.8c0,0.1,0,0.3,0.2,0.3s0.3-0.1,0.3-0.2c0.8-1.1,1.6-2.1,2.6-3.1c1.3-1.3,2.6-2.5,4.1-3.6
	c0.1-0.1,0.3-0.2,0.4-0.4c1.7-3,3.9-5.6,6.7-7.6c2.3-1.7,5-3,7.7-3.9c1.7-0.5,3.5-0.8,5.3-0.9c1.6-0.1,3.1-0.1,4.7,0.1
	c0.1,0,0.3,0,0.3,0.1s-0.1,0.2-0.2,0.3c-2.5,2.2-5,4.5-7.6,6.5c-2.7,2.2-5.8,4.1-9,5.5c-2.2,1-4.7,1.4-7.2,1c-0.2-0.1-0.4,0-0.6,0.1
	c-1.1,0.8-2.1,1.7-3,2.6c-1.2,1.2-2.3,2.6-3.2,4c-0.9,1.4-1.6,2.8-2.2,4.3c-0.2,0.4,0,0.4,0.3,0.4s0.9-0.2,1.4-0.3
	c1.6-0.1,3.1-0.8,4.3-1.8c2.1-2,4.7-3.5,7.5-4.3c3.2-0.8,6.4-1.3,9.6-1.5c1.4-0.2,2.9-0.3,4.3-0.4c0.3,0,0.7-0.2,0.9,0.1
	s-0.2,0.5-0.4,0.8c-1.2,1.3-2.6,2.5-4.1,3.5c-2.1,1.4-4.3,2.6-6.7,3.5c-1.9,0.7-3.9,1.2-5.9,1.4c-2.3,0.3-4.6,0.2-6.8-0.3
	c-0.2,0-0.3,0-0.5,0c-1.2,0.2-2.3,0.5-3.5,0.7c-0.6,0.1-1.1,0.5-1.3,1.1c-0.8,2.5-1.2,5.2-1.3,7.8c-0.2,2.8,0,5.5,0.3,8.3
	c0.4,2.9,1.4,5.7,2.9,8.2c1.6,2.7,3.7,5.1,6.2,7c1.2,0.9,2.4,1.7,3.8,2.5c0.2,0.1,0.5,0.3,0.8,0.1s0.1-0.5,0.1-0.7
	c-0.3-1-0.6-1.9-0.8-2.9c-0.1-0.9-0.5-1.8-1-2.5c-0.3-0.5-0.6-1-0.8-1.6c-0.8-1.6-1.4-3.2-1.8-4.9c-0.3-1.3-0.5-2.7-0.6-4.1
	c0-1.1,0-2.1,0-3.2c0-0.2,0-0.4-0.2-0.5c-1.2-0.5-2.4-1-3.6-1.4s-2.6-0.8-3.9-1.2c-0.4-0.1-0.6-0.3-0.5-0.7s0-1.1,0-1.6
	s0.1-0.7,0.7-0.6c2.4,0.5,4.8,1.2,7.1,2.1c0.9,0.4,0.9,0.4,1.2-0.7c0.7-2.5,1.7-4.8,3.2-6.9c0.1-0.1,0.1-0.2,0.3-0.2
	s0.2,0.2,0.2,0.3c0.2,0.6,0.3,1.2,0.4,1.8c0.8,2.7,1.5,5.5,2,8.3c0.7,3.3,1,6.7,0.7,10.1c-0.2,2.2-0.9,4.2-2.2,6
	c-0.1,0.1-0.2,0.3-0.1,0.5c0.4,1.9,0.9,3.8,1.7,5.6c0.1,0.3,0.3,0.5,0.6,0.6c1,0.4,2,0.8,3.1,1.2c2.8,0.9,5.6,1.5,8.5,1.9
	c1.2,0.1,2.5,0.2,3.7,0.3c1.5,0.1,2.9,0.1,4.4,0c1.2,0,2.4-0.2,3.7-0.2c0.4,0,0.8,0.2,1,0.6c0.4,0.9,0.7,1.7,1,2.6
	c0.2,0.7,0,1-0.7,1.1c-2,0.2-3.9,0.3-5.9,0.2c-3,0-6-0.3-8.9-0.9c-3.2-0.6-6.3-1.5-9.3-2.7c-4.2-1.6-8-4.1-11.2-7.2
	c-0.3-0.3-0.6-0.4-1-0.4c-0.5,0-1-0.1-1.5-0.1c-1.1-0.1-2.2,0-3.3,0.3c-0.2,0-0.3,0.1-0.2,0.3c0.4,1.1,0.1,2.3-0.6,3.2
	c-1,1.3-2.6,2.1-4.2,1.9c-2.3,0-4.1-1.9-4-4.2c0-0.3,0-0.6,0.1-0.9c0.4-1.7,1.8-3,3.5-3.3c1.6-0.5,3.3,0,4.3,1.4
	c0.2,0.3,0.5,0.4,0.8,0.3c1.1-0.3,2.2-0.4,3.4-0.3c0.2,0,0.4,0.1,0.5-0.1s-0.1-0.3-0.2-0.5c-0.7-0.8-1.3-1.7-1.9-2.6
	c-0.4-0.7-1.1-1.3-1.8-1.6c-2.2-1-4.2-2.1-6.2-3.4c-0.2-0.1-0.3-0.2-0.5-0.2c-3.1-0.5-6-2.1-8-4.5c-2.2-2.7-3.8-6-4.4-9.4
	c-0.1-0.5-0.3-0.7-0.8-0.8c-3-0.4-6-1.2-8.8-2.3c-2.8-1.1-5.7-2-8.6-2.5c-1.1-0.3-2.2-0.2-3.2,0.3c-0.1,0.1-0.2,0.1-0.4,0.2
	c-3.4,1.3-6.9,2-10.5,2.3c-1.4,0.1-2.8,0-4.1-0.2c-2.1-0.3-4.1-0.9-5.9-1.7c-1.3-0.6-2.5-1.3-3.7-2.1c-0.2-0.1-0.4-0.3-0.4-0.6
	s0.3-0.4,0.5-0.5s0.4-0.2,0.6-0.2c3.4-1.3,7-2.1,10.6-2.6c2-0.2,4-0.2,6,0.1c3.1,0.4,6.2,1.5,8.8,3.1c0.6,0.4,1.3,0.7,2,0.8
	c0.6,0.1,1.1,0.2,1.6,0.3c0.1,0,0.3,0.1,0.5,0c0-0.1,0-0.1,0-0.1l-0.2-0.2c-1.5-1.2-2.8-2.5-3.9-4c-1.1-1.5-2.1-3-3-4.7
	c-0.2-0.5-0.7-0.9-1.3-1c-1.1-0.1-2.2-0.3-3.3-0.4c-4-0.6-7.7-2.2-10.8-4.7c-2.8-2.3-5.3-4.8-7.8-7.5c-0.1-0.1-0.2-0.2-0.2-0.3
	s0.2-0.1,0.3-0.1c1.3,0,2.7,0,4,0.2c2.5,0.3,4.9,0.8,7.2,1.7c2.3,0.8,4.4,1.9,6.4,3.4c2.5,1.7,4.4,4.1,5.7,6.8
	c0.4,0.9,0.8,1.7,1.3,2.5c1.5,2.5,3.3,4.6,5.5,6.5c1.7,1.3,3.5,2.5,5.5,3.3c0.2,0.2,0.5,0.2,0.8,0c0.2-0.2,0.1-0.5,0-0.7
	c-0.3-0.7-0.5-1.3-0.8-1.9c-0.2-0.6-0.4-1.1-0.6-1.6c-0.8-1.2-1.6-2.4-2.3-3.7c-1.2-2-2.1-4-2.9-6.2c-1.2-3.1-1.6-6.4-1.2-9.7
	c0.4-2.9,1.2-5.7,2.5-8.3c0-0.1,0.1-0.1,0.1-0.1c0,0,0,0,0,0c0,0,0,0.1,0.1,0.1c2.2,4.6,4,9.4,5.4,14.4c0.8,2.8,1.1,5.7,0.9,8.6
	c-0.1,1.5-0.5,2.9-1.1,4.3c-0.1,0.2-0.1,0.4-0.1,0.7c0.5,1.7,1.2,3.3,2,4.8c0.2,0.3,0.4,0.5,0.8,0.6c2,0.5,3.9,0.9,5.9,1.1
	c0.4,0,0.4,0,0.4-0.3c-0.2-2.1-0.3-4.1-0.1-6.2c0.1-0.8,0.2-1.5,0.3-2.3c0-0.1,0-0.2,0.1-0.2s0.1,0.1,0.2,0.1
	c0.2,0.2,0.4,0.5,0.6,0.7c2.5,2.9,4.8,6,6.8,9.2c1.4,2.2,2.6,4.5,3.6,6.8c1,2.3,1.7,4.7,2.2,7.1c0,0.3,0.1,0.5,0.3,0.7
	c1.3,0.9,2.7,1.8,4.1,2.5c0.3,0.2,0.7,0.5,1.1,0.1s0.1-0.7,0-1.1c-0.8-2.1-1.3-4.3-1.5-6.6c-0.2-1.8-0.2-3.7-0.1-5.5
	c0-0.3-0.1-0.5-0.4-0.5c-1.7-0.3-3.3-0.6-5-0.8c-0.7-0.1-1.3-0.3-1.5-1c0-0.1-0.1-0.2-0.1-0.2L118.9,64.3z"/>
<path class="st1" d="M146.9,73.7c0-0.2-0.1-0.3,0.1-0.4s0.3,0.1,0.4,0.1c0.4,0.4,0.9,0.7,1.3,1.1c1.4,1.2,2.7,2.6,3.8,4
	c2,2.3,3.6,5,4.8,7.8c0.2,0.4,0,0.6-0.3,0.7c-0.7,0.2-1.4,0.4-2.1,0.6c-1.1,0.3-1.2,0.2-1.7-0.8l-0.1-0.2c-0.7-1.4-1.4-2.8-2.3-4.1
	c-1-1.6-2.1-3-3.4-4.4c-0.1-0.1-0.1-0.2-0.1-0.3C147.2,76.4,147.1,75,146.9,73.7z"/>
<path class="st0" d="M111.4,60c0.1,0.4,0.2,0.8,0.3,1.2c0.7,2.8,1.7,5.5,2.9,8.2c1.3,2.8,3,5.4,5.2,7.7c0.1,0.1,0.1,0.1,0.2,0.2
	c0.1,0.1,0.3,0.2,0.4,0.1s0.1-0.3,0-0.4c-0.4-0.8-0.8-1.7-1.3-2.5c-1.5-2.6-3-5.3-4.4-7.9c-1.1-2.1-2.1-4.2-3-6.3
	c0-0.1-0.1-0.1-0.1-0.2s-0.1-0.2-0.2-0.2S111.4,59.9,111.4,60z"/>
<path class="st0" d="M68.7,39.2c0,0.2,0.2,0.3,0.3,0.3c2.2,1.2,4.2,2.5,6.3,3.8s4,2.3,6.1,3.4c0.8,0.4,1.7,0.8,2.6,1.2
	c0.2,0.1,0.3,0.2,0.5,0s-0.1-0.3-0.2-0.5c-1.1-1-2.2-1.9-3.4-2.7c-1.6-1.1-3.3-2.1-5-3c-2.1-1.1-4.4-2-6.7-2.6
	C69,39.1,68.8,39,68.7,39.2z"/>
<path class="st0" d="M95.2,36.8c0,3.8,0.5,7.5,1.5,11.2c0.5,1.8,1.1,3.5,1.8,5.1c0.1,0.2,0.1,0.5,0.4,0.4s0.1-0.3,0.1-0.5
	c-0.4-3-0.9-5.9-1.6-8.8c-0.5-2.4-1-4.8-1.5-7.2c-0.1-0.6-0.2-1.2-0.3-1.8c0-0.1,0-0.4-0.2-0.4s-0.2,0.2-0.2,0.4
	C95.2,35.6,95.2,36.2,95.2,36.8z"/>
<path class="st0" d="M154.7,36.1c1.3-0.8,2.6-1.4,3.9-2.1c0.1-0.1,0.4-0.1,0.3-0.3s-0.3-0.1-0.5,0c-1.6,0.4-3.2,1-4.8,1.6
	c-3.1,1.3-6.1,2.9-8.8,4.9c-0.7,0.5-1.4,1-2.1,1.6c-0.1,0.1-0.2,0.1-0.2,0.2c-0.1,0.1-0.1,0.3,0,0.4c0.1,0.1,0.2,0.1,0.3,0
	c0.3-0.2,0.7-0.3,1-0.5c3.4-1.9,6.9-3.7,10.3-5.5C154.4,36.2,154.5,36.2,154.7,36.1L154.7,36.1z"/>
<path class="st0" d="M141.3,74.6c0,3,0.3,6,1,9c0.1,0.2,0.1,0.5,0.3,0.4s0.3-0.3,0.3-0.5c0.1-2.4,0.1-4.7-0.1-7.1
	c-0.2-2.8-0.4-5.6-0.5-8.3c0-0.6-0.1-1.3-0.1-1.9c0-0.1,0.1-0.3-0.2-0.4s-0.2,0.2-0.2,0.3c-0.2,1.3-0.3,2.6-0.4,4
	S141.3,73.1,141.3,74.6z"/>
<path class="st0" d="M76.6,58.9c-2.7-0.1-5.3,0.2-7.9,0.2c-0.2,0-0.7-0.1-0.7,0.2s0.4,0.2,0.6,0.2c1.6,0.2,3.1,0.4,4.7,0.5
	c2.5,0.2,5,0.2,7.4,0.2c1.8,0,3.6-0.2,5.3-0.4c0.1,0,0.3,0,0.3-0.2s-0.2-0.2-0.3-0.2c-1.1-0.1-2.2-0.3-3.3-0.3
	C80.7,58.9,78.7,58.8,76.6,58.9z"/>
<path class="st0" d="M125,55.9c0.2-0.1,0.1-0.2,0.1-0.4c-0.2-0.7-0.5-1.3-0.8-1.9c-2.1-3.8-5-7.1-8.6-9.6c-0.2-0.2-0.4-0.3-0.7-0.5
	c-0.1-0.1-0.3-0.3-0.5-0.1s0.1,0.3,0.2,0.4c1.2,1.1,2.3,2.3,3.4,3.6c1,1.2,1.9,2.4,2.9,3.6c1.2,1.6,2.5,3.1,3.7,4.7
	C124.8,55.8,124.9,55.9,125,55.9z"/>
<path class="st0" d="M140.3,55.1c2.1-0.3,4.2-0.7,6.2-1.3c2.5-0.8,5-1.8,7.4-3.1c0.3-0.1,0.5-0.2,0.7-0.4c0.1-0.1,0.2-0.1,0.2-0.3
	s-0.2-0.1-0.3,0l-2.9,1c-3.3,1.1-6.4,2.3-9.8,3.2c-0.6,0.2-1.1,0.3-1.6,0.5c-0.2,0.1-0.5,0.1-0.4,0.4s0.3,0.1,0.5,0.2L140.3,55.1z"
	/>
<path class="st0" d="M125.2,88.9c-1.2,0-2.3,0.6-2.9,1.6c-0.1,0.1-0.1,0.4,0,0.5c0,0,0.1,0.1,0.1,0.1c0.7,0.5,0.7,0.5,1.3,0
	c0.8-0.7,1.8-1.1,2.8-1.2c0.2,0,0.4,0,0.4-0.2s-0.1-0.3-0.3-0.4C126.1,89.1,125.7,88.9,125.2,88.9z"/>
<path class="st0" d="M126.4,40.1c0.2,0.3,0.5,0.5,0.7,0.7c0.2,0.2,0.3-0.1,0.5-0.2c0.8-0.8,1.9-1.2,3-1c0.1,0,0.2,0.1,0.3-0.1
	c0-0.1,0-0.2-0.1-0.2c-0.6-0.6-1.6-0.9-2.4-0.7c-0.8,0.1-1.6,0.7-1.9,1.4C126.4,40,126.4,40.1,126.4,40.1z"/>
</svg>
