<?xml version="1.0" encoding="utf-8"?>
<!-- Generator: Adobe Illustrator 21.1.0, SVG Export Plug-In . SVG Version: 6.00 Build 0)  -->
<svg version="1.1" id="Layer_1" xmlns="http://www.w3.org/2000/svg" xmlns:xlink="http://www.w3.org/1999/xlink" x="0px" y="0px"
	 viewBox="0 0 181 99.9" style="enable-background:new 0 0 181 99.9;" xml:space="preserve">
<style type="text/css">
	.st0{fill:#F2CB47;}
	.st1{fill:#ED1B30;}
	.st2{fill:#0466B3;}
</style>
<title>CR</title>
<g>
	<path class="st0" d="M90.5,99.4c-29.6,0-59.2,0-88.9,0c-0.9,0-1.1-0.2-1.1-1.1c0-32.2,0-64.4,0-96.6c0-0.9,0.2-1.1,1.1-1.1
		c59.2,0,118.5,0,177.7,0c0.9,0,1.1,0.2,1.1,1.1c0,32.2,0,64.4,0,96.7c0,0.9-0.2,1.1-1.1,1.1C149.7,99.4,120.1,99.4,90.5,99.4z
		 M97.6,73.5c0.3,0,0.5,0,0.7,0c5.5-0.4,10.8-1.5,16.2-2.4c8.6-1.4,17.2-2.3,25.9-1.6c1.6,0.2,3.1,0.4,4.6,0.8
		c0.6,0.1,1.3,0.3,1.5-0.6c0.5-2.2-0.8-4.5-3-5.2c-1.6-0.3-3.3-0.5-5-0.5c-9.2-0.1-18.3,1.5-27.4,2.6c-4.7,0.5-9.4,1.4-14.1,1.6
		c-3.8,0.2-4.4-0.8-4.4-4c0-1.6-0.6-2-2.2-2.3c-2.4-0.2-4.8,0-7.1,0.4c-8.8,1.2-17.5,2.9-26.3,3.4c-6.1,0.4-12.3,0.5-18.1-2.1
		c-0.4-0.2-0.6-0.2-0.7,0.3c-0.4,2.4,0.8,4.7,3,5.7c0.9,0.3,1.8,0.6,2.7,0.8c5.2,1,10.6,1.1,15.8,0.3c6.6-0.9,13.1-2,19.7-2.9
		c3.1-0.5,6.2-0.8,9.3-0.8c1.9,0,2.3,0.5,2.4,2.3c-0.1,1.9,1.2,3.5,3.1,3.8C95.4,73.4,96.5,73.6,97.6,73.5L97.6,73.5z M82.8,39.1
		c0.3-0.7,0.5-1.2,0.7-1.7c1-2.1,2-4.2,3.2-6.3c0.3-0.5,0.8-1.1-0.1-1.6s-4.5,0.8-4.8,1.5c0,0.1-0.1,0.1-0.1,0.2
		c-0.6,2.7-2.1,5-2.9,7.6c-0.5,1.6-1.7,1.8-3.1,2c0.4-0.9,0.8-1.8,1.2-2.8c0.3-1.1-0.1-1.5-1.2-1.5c-1.1,0-2.2,0.3-3.2,0.8
		c-0.6,0.1-1,0.7-0.9,1.3c0,0,0,0.1,0,0.1c0.2,2.3-0.9,3.7-3.1,4.3c-1,0.3-1.9,0.6-2.9,1c-0.9,0.3-1.4,1-1,1.9s1.3,0.8,2,0.6
		c0.7-0.2,1.3-0.5,2-0.8c0.1,0.4,0,0.9-0.2,1.3c-1.2,2.8-2.3,5.5-3.5,8.3c-0.5,1.1-0.9,2.3-1.1,3.5c-0.1,0.6,0.1,1,0.8,1
		c2.3-0.1,4.3-1.5,5.2-3.6c1.2-3.5,2.4-7.1,3.6-10.6c0.6-1.7,1.3-2.1,3.1-2c-0.6,1.5-1.1,3.1-1.7,4.6s-1.2,3.1-1.8,4.6
		c-0.6,1.4-1,2.9-1.4,4.4c-0.1,0.5-0.2,1,0.5,1.1c0.9,0.1,3.8-1.3,4.3-2.1c1.2-2,2.4-4,3.6-5.9c0.2-0.4,0.4-0.8,0.9-1
		c-0.4,2-0.3,3.9-0.7,5.9s0.4,3.6,3,3.1c1.4-0.3,2.8-0.9,4-1.7c0.8-0.5,1-0.3,1.3,0.4c0.6,1.3,2,2.1,3.5,2c4.6-0.2,7.8-2.6,10.7-5.9
		c0.2-0.2,0.3-0.4,0.3-0.7c0.1-0.4-0.1-0.8-0.4-1c0,0,0,0-0.1,0c-1.4-0.1-2.8,0.4-3.9,1.4c-1,1.8-2.6,3.2-4.5,4
		c-1.1,0.4-1.8,0-2.2-1.1c-0.5-1.3-0.2-2.3,0.7-2.7c2.1-0.9,4-2.4,5.4-4.2c1.1-1.2,1.5-2.9,1.2-4.5c-0.2-1-0.8-1.7-1.9-1.5
		c-3.4,0.5-6.2,1.8-7.7,5.2c-0.7,1.3-1.2,2.7-1.7,4.1c-0.2,1-0.9,1.8-1.7,2.2c-0.3,0.2-0.6,0.6-1,0.4s-0.1-0.6-0.1-0.9
		c0.2-2.8,1.1-5.3,1.6-8c0.1-0.5,0.2-1-0.3-1.3c-1.1-0.6-4.4,0.1-5.1,1.2c-0.6,1-1.4,1.9-2.3,2.6c0.5-1.9,1.3-3.5,1.9-5.2
		c0.2-0.7,0.8-1.2,1.5-1.3c1.2-0.3,2.4-0.5,3.6-0.8c0.6-0.2,1.3-0.4,1.1-1.2s-0.8-0.9-1.6-0.7C84.8,38.9,83.8,39.1,82.8,39.1
		L82.8,39.1z M42.1,38.7c-0.5,5.1-2.1,10.1-4.9,14.5c-0.9,1.5-2,2.9-3.4,4c-2.3,1.7-4,1.4-5.3-1.2c-1.3-2.6-1.8-5.5-1.4-8.4
		c0.9-6.3,4-12,8.7-16.2c0.2-0.2,0.5-0.5,0.6-0.7c0.2-0.3,0.3-0.6,0.1-0.9c-0.2-0.3-0.6-0.3-0.9-0.2c-0.8,0.1-1.7,0.3-2.6,0.4
		c-1.5,0.1-2.8,0.8-3.7,2c-3.5,4.8-6.5,9.9-7.3,16c-0.5,3.3-0.1,6.7,1.4,9.8c0.8,1.8,2.6,2.9,4.6,2.8c1.2-0.1,2.5-0.2,3.7-0.5
		c3.3-0.7,6.4-1.8,8.7-4.5c1.2-1.3,2.2-2.7,3.2-4.2c2.9-4.4,4.4-9.6,4.4-14.9c-0.1-3.9-2.6-5.9-6.4-5.1c-8.4,1.8-11.3,7.1-12.7,13.7
		c-0.3,1.5,0.2,1.9,1.7,1.3c0.4-0.2,0.8-0.3,1.3-0.4c1.1-0.2,2-1.1,2.1-2.2c0.6-2.4,1.6-4.7,2.9-6.8c0.5-0.9,1.2-1.6,2.1-2.1
		c1.3-0.7,2.2-0.4,2.7,1C42,36.6,42.2,37.6,42.1,38.7L42.1,38.7z M111.6,50.4c1.4,3.3,2.8,6.3,4.3,9.3c0.6,1.2,1.3,2.3,2.2,3.3
		c0.3,0.4,0.7,0.6,1.2,0.3c0.8-0.5,1.9-0.4,2.3-1.5c0.1-0.2-0.1-0.4-0.2-0.6c-2.4-4.1-3.7-8.6-5.2-13c-0.4-1.1-0.1-1.6,1.1-1.9
		c3.3-0.8,6.5-1.8,9.2-4.1c4.3-3.6,3.8-8.3-1.2-11c-4.5-2.4-9.2-2.7-14.1-2c-4.1,0.5-8.1,2-11.5,4.5c-1.1,0.8-1.9,1.9-2.4,3.2
		c-0.4,1.2,0.3,1.9,1.5,1.6s2.3-0.6,3.5-0.9c1.3-0.3,2.5-1,3.5-1.9c4.4-3.6,9.4-5.2,15-3.9c4.1,0.9,4.6,4.9,2.2,7.6
		c-2.1,2.3-4.9,4-7.9,4.9c-0.4,0.1-0.9,0.6-1.3,0.1s0.1-0.9,0.3-1.3c1.1-2.2,2.2-4.3,3.2-6.5c0.6-1.2,0.1-1.8-1.2-1.8
		c-1,0-2,0.2-2.9,0.5c-0.4,0.1-0.7,0.4-0.8,0.8c-0.9,3.4-2.6,6.5-4.1,9.6c-1.7,3.5-3.1,7.2-4.4,10.8c-0.2,0.5-0.2,1.2,0.2,1.6
		c0.4,0.5,0.9,0.3,1.5,0.1c0.9-0.3,1.7-0.6,2.6-0.7c0.6-0.1,1-0.5,1.1-1.1C110,54.4,110.7,52.3,111.6,50.4L111.6,50.4z M141.1,48.6
		c0.6-1.3,1.1-2.6,1.6-3.8c0.3-0.7,0.3-1.2-0.4-1.5s-4.1,0.7-4.5,1.2c-0.1,0.1-0.1,0.2-0.1,0.3c-0.2,1.3-0.5,2.5-1,3.7
		c-1,2.8-2,5.6-2.9,8.4c-0.1,0.3-0.3,0.7,0.1,1c0.3,0.2,0.7,0.2,1.1,0c0.5-0.3,1.1-0.5,1.7-0.7c1.2-0.2,2.2-1.1,2.6-2.2
		c1-2.7,3.1-4.5,5-6.9c-0.7,2.3-1.3,4.7-1.7,7.1c-0.4,2.3,0.9,3.6,3.2,3c2.9-0.8,5.5-2.2,7.8-4.1c1.2-1,2.3-2.1,3.1-3.5
		c0.2-0.3,0.6-1-0.1-1c-1.6,0.1-3.4,0.1-4.6,1.7c-1.2,1.6-2.8,2.9-4.6,3.6c0.6-2.2,1.4-4.4,2.4-6.5c0.5-0.9,0.8-2,1-3
		c0.1-0.7-0.2-1.3-0.8-1.7c-1.1-0.7-4.2-0.1-5.1,1C143.8,46.2,142.5,47.5,141.1,48.6L141.1,48.6z M51.6,47.9l-0.2-0.1
		c0.5-1,1-2,1.5-3.1c0.2-0.4,0.5-0.8,0.2-1.3c-0.3-0.4-0.9-0.6-1.4-0.4c-2.2,0.4-4.2,1-4.7,3.7c-0.1,0.3-0.2,0.7-0.4,1L43.2,56
		c-0.2,0.5-0.4,1.1,0.1,1.5c0.4,0.5,1,0.6,1.6,0.4c1.9-0.8,3.7-1.7,4.6-3.8c0.6-1.3,1.3-2.6,2.2-3.7c-0.2,1.8-0.5,3.3-0.5,4.8
		c-0.1,2.4,1.3,3.4,3.6,2.7c3.1-0.9,5.5-2.9,8.2-4.5c0.2-0.2,0.4-0.4,0.5-0.7c0.5-0.9,0.2-1.4-0.8-1.5c-1.2-0.1-2.4,0.4-3,1.4
		c-0.7,0.9-1.5,1.5-2.5,1.9c-0.8,0.4-1.2,0.2-1.1-0.7c0-0.3,0.1-0.6,0.2-1c0.5-2.3,1.1-4.6,1.9-6.8c0.4-1.2,0-1.6-1.3-1.5
		c-1.6,0-3.2,0.8-4.1,2.2C52.3,47.1,52,47.5,51.6,47.9L51.6,47.9z M128.7,51.9l0.4,0.4c-0.4,1-0.8,2-1.1,3c-0.3,0.8-0.7,1.6,0,2.4
		c0.6,0.7,1.4,0,2.2-0.2c1.5-0.2,2.6-1.4,2.9-2.8c0.5-1.7,1.2-3.4,1.9-5.1s1.2-3.2,1.8-4.8c0.3-0.8-0.3-1.2-0.9-1.1
		c-1.9,0.3-3.7,0.6-4.6,2.7c-1.1,2.1-2.6,4-4.4,5.6c0.3-1.3,0.7-2.6,1.2-3.9c0.3-0.9,0.7-1.8,1.2-2.7c0.3-0.4,0.3-1-0.1-1.3
		c-0.1-0.1-0.2-0.2-0.4-0.2c-1.4-0.7-4.7,0.7-5,2.2c-0.3,1-0.6,2-1,3c-1,2.2-1.7,4.6-2.3,7c-0.2,1.2,0.2,1.6,1.4,1.4
		c1.4-0.2,2.8-0.9,3.7-2C126.7,54.2,127.7,53.1,128.7,51.9L128.7,51.9z"/>
	<path class="st1" d="M97.6,73.5c-1.1,0.1-2.2,0-3.3-0.3c-1.8-0.4-3.1-2-3.1-3.8c-0.1-1.8-0.5-2.3-2.4-2.3c-3.1,0-6.2,0.3-9.3,0.9
		c-6.6,0.9-13.1,2.1-19.7,2.9c-5.3,0.8-10.6,0.7-15.8-0.3c-0.9-0.2-1.8-0.5-2.7-0.8c-2.2-1-3.4-3.3-3-5.7c0.1-0.5,0.3-0.5,0.7-0.3
		c5.8,2.6,11.9,2.5,18.1,2.1c8.8-0.6,17.6-2.2,26.3-3.4c2.3-0.5,4.7-0.6,7.1-0.4c1.6,0.2,2.2,0.7,2.2,2.3c0.1,3.1,0.7,4.1,4.4,4
		c4.7-0.3,9.4-1.1,14.1-1.6c9.1-1,18.2-2.7,27.4-2.6c1.7,0,3.4,0.1,5,0.5c2.2,0.7,3.5,3,3,5.2c-0.3,0.9-1,0.7-1.5,0.6
		c-1.5-0.4-3.1-0.6-4.6-0.8c-8.7-0.7-17.3,0.2-25.9,1.6c-5.4,0.9-10.8,2-16.2,2.4C98.1,73.5,97.9,73.5,97.6,73.5z"/>
	<path class="st2" d="M82.8,39.1c1.1,0,2.1-0.1,3.1-0.4c0.8-0.2,1.4,0,1.6,0.7s-0.5,1.1-1.1,1.2c-1.2,0.3-2.4,0.6-3.6,0.8
		c-0.7,0.1-1.3,0.6-1.5,1.3c-0.6,1.7-1.3,3.2-1.9,5.2c0.9-0.7,1.7-1.6,2.3-2.6c0.7-1.1,4-1.8,5.1-1.2c0.6,0.3,0.5,0.8,0.3,1.3
		c-0.6,2.7-1.5,5.3-1.6,8c0,0.3-0.3,0.7,0.1,0.9s0.7-0.2,1-0.4c0.9-0.5,1.5-1.3,1.7-2.2c0.5-1.4,1-2.8,1.7-4.1
		c1.5-3.3,4.3-4.7,7.7-5.2c1.1-0.2,1.7,0.6,1.9,1.5c0.3,1.6-0.1,3.3-1.2,4.5c-1.4,1.8-3.3,3.3-5.4,4.2c-1,0.4-1.2,1.4-0.7,2.7
		c0.4,1.1,1.1,1.6,2.2,1.1c1.9-0.8,3.5-2.2,4.5-3.9c1.1-1,2.5-1.5,3.9-1.4c0.4,0.1,0.6,0.5,0.5,0.9c0,0,0,0,0,0.1
		c-0.1,0.2-0.2,0.5-0.3,0.7c-2.9,3.2-6.1,5.7-10.7,5.9c-1.5,0.1-2.9-0.7-3.5-2c-0.3-0.6-0.5-0.9-1.3-0.4c-1.2,0.8-2.6,1.4-4,1.7
		c-2.6,0.5-3.4-1.1-3-3.1s0.3-3.9,0.7-5.9c-0.6,0.2-0.7,0.6-0.9,1c-1.3,1.9-2.5,3.9-3.7,5.9c-0.5,0.8-3.3,2.3-4.3,2.1
		c-0.8-0.1-0.6-0.7-0.5-1.1c0.3-1.5,0.8-2.9,1.3-4.3c0.6-1.5,1.2-3.1,1.8-4.6s1.2-3.1,1.7-4.6c-1.8-0.1-2.6,0.4-3.1,2
		c-1.2,3.5-2.4,7.1-3.6,10.6c-0.9,2.1-2.9,3.5-5.2,3.7c-0.7,0-0.9-0.4-0.8-1c0.2-1.2,0.6-2.4,1.1-3.5c1.2-2.8,2.4-5.5,3.5-8.3
		c0.3-0.4,0.3-0.8,0.2-1.3c-0.7,0.3-1.3,0.6-2,0.8c-0.8,0.2-1.7,0.4-2-0.6s0.2-1.6,1-1.9c0.9-0.4,1.9-0.7,2.9-1
		c2.2-0.6,3.3-2,3.1-4.3c-0.1-0.6,0.2-1.2,0.8-1.3c0,0,0,0,0.1,0c1-0.5,2.1-0.7,3.2-0.8c1.1,0,1.5,0.5,1.2,1.5
		c-0.3,1-0.7,1.9-1.2,2.8c1.4-0.3,2.6-0.5,3.1-2c0.8-2.6,2.3-4.9,2.9-7.6c0-0.1,0.1-0.2,0.1-0.2c0.4-0.7,4.2-1.9,4.8-1.5
		s0.3,1.1,0.1,1.6c-1.2,2-2.3,4.1-3.2,6.3C83.3,37.9,83.1,38.4,82.8,39.1z M93.3,50.2c1.8-0.7,2.8-2.6,2.4-4.5
		C94.7,47.1,93.9,48.6,93.3,50.2L93.3,50.2z"/>
	<path class="st2" d="M42.1,38.7c0-1-0.1-2.1-0.4-3.1c-0.5-1.4-1.3-1.8-2.7-1c-0.9,0.5-1.6,1.2-2.1,2.1c-1.3,2.1-2.3,4.4-2.9,6.8
		c-0.1,1.1-1,2-2.1,2.2c-0.4,0.1-0.9,0.3-1.3,0.4c-1.4,0.5-2,0.2-1.7-1.3c1.4-6.6,4.3-11.9,12.7-13.7c3.8-0.8,6.3,1.2,6.4,5.1
		c0,5.3-1.5,10.5-4.4,14.9c-1,1.5-2.1,2.9-3.2,4.2c-2.3,2.7-5.4,3.8-8.7,4.5c-1.2,0.3-2.4,0.5-3.7,0.5c-1.9,0.1-3.8-1-4.5-2.8
		c-1.4-3-1.9-6.5-1.3-9.8c0.8-6.1,3.7-11.2,7.3-16c0.9-1.2,2.2-1.9,3.7-2c0.9-0.1,1.7-0.3,2.6-0.4c0.3-0.1,0.7-0.1,0.9,0.2
		c0.2,0.3,0.1,0.7-0.1,0.9c-0.2,0.3-0.4,0.5-0.6,0.7c-4.7,4.2-7.8,9.9-8.7,16.2c-0.5,2.9,0,5.8,1.3,8.5c1.3,2.6,3,2.9,5.3,1.2
		c1.4-1.1,2.6-2.5,3.4-4C40,48.8,41.7,43.8,42.1,38.7z"/>
	<path class="st2" d="M111.6,50.4c-0.9,1.9-1.7,3.9-2.2,6c-0.1,0.6-0.5,1-1.1,1.1c-0.9,0.2-1.8,0.4-2.6,0.7c-0.5,0.2-1,0.4-1.5-0.1
		c-0.4-0.4-0.5-1.1-0.2-1.6c1.4-3.7,2.8-7.3,4.4-10.8c1.5-3.2,3.2-6.2,4.1-9.6c0.1-0.4,0.4-0.7,0.8-0.8c0.9-0.3,1.9-0.5,2.9-0.5
		c1.3,0,1.7,0.7,1.2,1.8c-1,2.2-2.1,4.3-3.2,6.5c-0.2,0.4-0.7,0.9-0.3,1.3s0.9,0,1.3-0.1c3-0.9,5.7-2.6,7.9-4.9
		c2.4-2.7,2-6.7-2.2-7.6c-5.6-1.3-10.6,0.3-15,3.9c-1,0.9-2.2,1.6-3.5,1.9c-1.2,0.2-2.3,0.6-3.5,0.9s-2-0.4-1.5-1.6
		c0.4-1.3,1.3-2.4,2.4-3.2c3.4-2.4,7.3-4,11.5-4.5c4.8-0.6,9.6-0.4,14.1,2c5,2.7,5.5,7.4,1.2,11c-2.7,2.2-5.9,3.3-9.2,4.1
		c-1.2,0.3-1.4,0.8-1.1,1.9c1.5,4.4,2.7,9,5.2,13c0.1,0.2,0.3,0.3,0.2,0.6c-0.4,1.1-1.6,1-2.3,1.5c-0.5,0.3-0.9,0.1-1.2-0.3
		c-0.9-1-1.6-2.1-2.2-3.3C114.4,56.7,113,53.6,111.6,50.4z"/>
	<path class="st2" d="M141.1,48.6c1.4-1.1,2.7-2.3,3.7-3.8c0.9-1.1,4.1-1.7,5.1-1c0.6,0.3,0.9,1,0.8,1.7c-0.2,1-0.5,2.1-1,3
		c-0.9,2.1-1.7,4.3-2.4,6.5c1.9-0.7,3.5-2,4.6-3.6c1.2-1.6,2.9-1.6,4.6-1.7c0.7,0,0.4,0.7,0.1,1c-0.8,1.3-1.9,2.5-3.1,3.5
		c-2.3,1.9-4.9,3.3-7.8,4.1c-2.3,0.5-3.6-0.7-3.2-3c0.4-2.4,0.9-4.8,1.7-7.1c-1.9,2.4-4,4.2-5,6.9c-0.4,1.1-1.4,2-2.6,2.2
		c-0.6,0.2-1.1,0.4-1.7,0.7c-0.3,0.2-0.7,0.2-1.1,0c-0.4-0.3-0.2-0.7-0.1-1c1-2.8,2-5.6,2.9-8.4c0.5-1.2,0.8-2.4,1-3.7
		c0-0.1,0-0.2,0.1-0.3c0.4-0.6,3.9-1.6,4.5-1.2s0.8,0.8,0.4,1.5C142.1,46,141.6,47.3,141.1,48.6z"/>
	<path class="st2" d="M51.6,47.9c0.4-0.4,0.7-0.8,1-1.2c0.9-1.4,2.4-2.2,4.1-2.2c1.2-0.1,1.6,0.3,1.3,1.5c-0.8,2.2-1.4,4.5-1.9,6.8
		c-0.1,0.3-0.1,0.7-0.2,1c-0.1,1,0.3,1.1,1.1,0.7c1-0.4,1.8-1.1,2.5-1.9c0.6-1,1.8-1.6,3-1.4c1,0.1,1.3,0.6,0.8,1.5
		c-0.1,0.3-0.3,0.5-0.5,0.7c-2.7,1.6-5.1,3.6-8.2,4.5c-2.3,0.6-3.7-0.3-3.6-2.7c0.1-1.5,0.3-3,0.5-4.8c-0.9,1.1-1.6,2.4-2.2,3.7
		c-0.9,2.1-2.7,3-4.6,3.8c-0.6,0.2-1.2,0-1.6-0.4c-0.5-0.4-0.3-1-0.1-1.5l3.4-8.2c0.2-0.3,0.3-0.7,0.4-1c0.4-2.6,2.5-3.2,4.7-3.7
		c0.5-0.2,1.1,0,1.4,0.4c0.3,0.5,0,0.9-0.2,1.3c-0.5,1-1,2-1.5,3.1L51.6,47.9z"/>
	<path class="st2" d="M128.7,52c-1,1.1-2,2.3-3,3.4c-1,1.1-2.3,1.8-3.7,2c-1.2,0.3-1.6-0.2-1.4-1.4c0.5-2.4,1.2-4.7,2.2-6.9
		c0.4-1,0.7-2,1-3c0.3-1.5,3.6-2.9,5-2.2c0.5,0.1,0.8,0.6,0.6,1.1c0,0.1-0.1,0.3-0.2,0.4c-0.5,0.9-0.9,1.8-1.2,2.7
		c-0.5,1.3-0.9,2.6-1.2,3.9c1.8-1.5,3.4-3.4,4.4-5.6c0.9-2.1,2.8-2.4,4.6-2.7c0.6-0.1,1.2,0.3,0.9,1.1c-0.6,1.6-1.2,3.2-1.8,4.8
		s-1.4,3.4-1.9,5.1c-0.3,1.4-1.4,2.6-2.9,2.8c-0.7,0.1-1.5,1-2.2,0.2c-0.7-0.8-0.2-1.6,0-2.4c0.3-1,0.7-2,1.1-3L128.7,52z"/>
</g>
</svg>
