<?xml version="1.0" encoding="utf-8"?>
<!-- Generator: Adobe Illustrator 21.1.0, SVG Export Plug-In . SVG Version: 6.00 Build 0)  -->
<svg version="1.1" id="Layer_1" xmlns="http://www.w3.org/2000/svg" xmlns:xlink="http://www.w3.org/1999/xlink" x="0px" y="0px"
	 viewBox="0 0 181 37.4" style="enable-background:new 0 0 181 37.4;" xml:space="preserve">
<style type="text/css">
	.st0{fill:#CC1C00;}
</style>
<title>Drug Logos</title>
<path class="st0" d="M77.1,36.9H2.2c-1.9,0-1.9,0-1.5-1.8c0.3-1.5,0.7-2.9,0.9-4.4c0.1-0.9,0.5-1.1,1.3-1c0.2,0,0.5,0,0.8,0h149.7
	c1.9,0,1.9,0,1.5,1.8c-0.3,1.4-0.6,2.7-0.9,4.1c-0.2,1.1-0.6,1.4-1.7,1.4c-7.2-0.1-14.4,0-21.5,0L77.1,36.9z"/>
<path class="st0" d="M104.3,27.5c-2.2,0-4.3,0-6.5,0c-0.9,0-1.1-0.3-1-1.1c1.7-8,3.4-16,5.1-24c0.1-0.7,0.4-1.1,1.3-1.1
	c3.6,0.1,7.2-0.1,10.8,0.1c6,0.3,9.3,3.7,9.2,9.8c0,4.4-1.5,8.7-4.3,12.1c-2.1,2.7-5.5,4.3-8.9,4.2L104.3,27.5z M110.8,7.4
	c-0.7,0.3-1.9-0.6-2.2,0.9c-0.9,4.1-1.7,8.2-2.6,12.3c-0.1,0.3-0.3,0.7,0.3,0.7c2.3,0.1,4.6,0.2,6.4-1.8c1.6-2.1,2.6-4.6,2.7-7.2
	C115.8,8.7,114.6,7.4,110.8,7.4L110.8,7.4z"/>
<path class="st0" d="M5.9,15.2c0.3-5.1,3.2-10.2,9-13.2c8.2-4.3,16.9,1,16.8,10.2c0.2,6.2-3.3,11.9-8.9,14.7
	C14.5,31.4,5.9,26.1,5.9,15.2z M13.7,16.4c0,0.2,0,0.5,0,0.8c0.2,1.8,0.5,3.6,2.5,4.3c1.9,0.7,3.4-0.3,4.6-1.7
	c2.3-2.4,3.3-5.7,2.8-9c0-1.5-0.9-2.8-2.3-3.4c-1.5-0.5-3.1,0-4.1,1.2C15,10.6,13.7,13.5,13.7,16.4z"/>
<path class="st0" d="M168.9,27.5c-5.7,1.9-9.5-1.8-9.2-6.9c0.1-3.2,1-6.3,2.6-9c1.8-3,4.6-4.2,8-4.2c0.3,0,0.7,0,1,0.2
	c2.5,1.7,5.2,0.8,7.9,0.9c1.1,0.1,1.6,0.2,1.2,1.5c-1.4,6.2-2.7,12.4-4,18.5c-0.3,1.5-0.9,3-1.7,4.3c-1.3,2.7-4.1,4.3-7.1,4.1
	c-3.5-0.1-7,0-10.5,0c-1,0-1.3-0.3-1-1.3c0.4-1.5,0.8-3,1-4.6c0.2-1.1,0.6-1.5,1.8-1.5c2.5,0.1,5,0,7.5,0
	C167.6,29.7,168.7,28.8,168.9,27.5z M166.7,19.8c0,1.3-0.1,2.5,1.2,2.8s2.2-0.4,2.8-1.5c0.9-1.6,1.4-3.5,1.4-5.3c0-1-0.2-2-1.3-2.3
	s-1.9,0.4-2.5,1.3C167.3,16.3,166.8,18,166.7,19.8z"/>
<path class="st0" d="M146.2,8.4c3.5,0,3.5,0,2.7,3.4c-0.6,2.6-1.2,5.2-1.7,7.8c-0.2,0.9-0.5,2.1,0.9,2.5s1.9-0.7,2.2-1.8
	c0.8-3.5,1.6-6.9,2.3-10.4c0.2-1.1,0.6-1.5,1.8-1.4c1.6,0.1,3.1,0.1,4.7,0c0.8,0,1.1,0.1,0.9,1.1c-1.2,5.6-2.4,11.3-3.5,16.9
	c-0.2,0.8-0.5,1.1-1.3,1c-1.9-0.2-3.9,0.4-5.8-0.4c-0.2-0.1-0.6,0.2-0.8,0.2c-0.7,0.2-1.3,0.4-2,0.6c-4.5,0.8-7.2-1.8-6.5-6.3
	c0.7-4.1,1.7-8.2,2.5-12.2c0.1-0.7,0.4-1,1.2-1S145.4,8.4,146.2,8.4z"/>
<path class="st0" d="M70.5,19c0-5,3-9.4,7.6-11.3c4.3-1.9,9.4,0,11.3,4.3c0.4,0.8,0.6,1.7,0.7,2.6c0.7,5.7-2.7,11.2-8.1,13.2
	C76,29.6,70.5,25.5,70.5,19z M83.6,15.8c0-0.3,0-0.5,0-0.8c-0.1-1.1-0.3-2.2-1.4-2.6c-1.1-0.3-2.2,0.1-2.8,1.1
	c-1.9,2-2.7,4.8-2.2,7.5c0.4,2.1,2,2.6,3.6,1.2C82.6,20.6,83.6,18.2,83.6,15.8L83.6,15.8z"/>
<path class="st0" d="M47.3,14c-0.8,0-1.4,0-2,0c-0.7,0.2-1.3-0.2-1.5-0.9c0,0,0-0.1,0-0.1c-0.5-1.2-1.9-1.7-3-1.2
	c-0.2,0.1-0.4,0.2-0.6,0.4c-0.8,0.7-0.6,1.4,0.3,1.7c1.1,0.4,2.3,0.8,3.4,1.2c2.4,0.8,4.7,1.8,5,4.8c0.2,2.9-1.4,5.7-4.1,7
	c-3.3,1.6-7,1.7-10.4,0.4c-2.1-0.7-3.4-2.7-3.2-4.9c0.1-0.9,0.3-1.5,1.4-1.4c1.1,0.1,2.1,0.1,3.2,0c1,0,1.8-0.1,2.3,1.3
	c0.3,1.2,2.6,1.4,3.6,0.6c0.6-0.4,0.7-1.2,0.3-1.8c-0.1-0.1-0.2-0.3-0.4-0.4c-0.4-0.3-0.9-0.6-1.5-0.7c-1.1-0.3-2.1-0.6-3.2-0.9
	c-3.7-1.2-4.8-4.1-2.7-7.4c2.4-4,9.5-5.7,13.6-3.3c0.4,0.3,0.8,0.6,1.2,0.9c1.2,1.1,1.7,2.8,1.2,4.4C49.7,14.6,48.1,13.7,47.3,14z"
	/>
<path class="st0" d="M66.7,15.3c-0.5,0-1,0-1.5,0c-1.1,0.1-1.8,0-2.1-1.4c-0.3-1.7-1.7-2-3.1-1c-2.1,1.5-3.6,5.6-2.9,8.1
	c0.5,2,1.9,2.4,3.5,1.1c0.3-0.2,0.6-0.5,0.8-0.9c0.7-1.6,2-1.9,3.5-1.7c1.1,0.1,2.1,0.1,3.2,0c1.2-0.1,1.6,0.2,1,1.4
	c-1.2,2.8-3.4,5-6.2,6.2c-6.1,2.6-12-1-12.4-7.7c-0.2-6,3.9-11.3,9.8-12.5c4.6-0.7,9,2.4,9.8,7.1c0.1,0.8-0.1,1.2-1,1.2
	C68.3,15.3,67.5,15.3,66.7,15.3z"/>
<path class="st0" d="M139.3,15.1c-2.1-1.7-5.3-1.4-7,0.7c-0.3,0.4-0.6,0.9-0.8,1.4c-0.5,1.6-0.9,3.2-1.2,4.8
	c-0.3,1.3-0.6,2.6-0.7,3.8s-0.6,1.8-2,1.7c-1.4-0.1-2.8-0.1-4.2,0c-0.7,0-1-0.1-0.8-0.9c1.3-5.7,2.5-11.4,3.6-17.1
	c0.2-0.8,0.4-1.1,1.3-1.1c1.5,0.1,3.3-0.4,4.6,0.1s2-0.3,2.9-0.6c0.4-0.2,0.9-0.3,1.3-0.3c3.9-0.4,4.6,0.3,3.8,4.1
	C139.8,12.8,139.6,13.8,139.3,15.1z"/>
</svg>
