<svg id="Layer_1" data-name="Layer 1" xmlns="http://www.w3.org/2000/svg" viewBox="0 0 250 250"><defs><style>.cls-1{fill:#f9e8a0;}.cls-2{fill:#414042;}</style></defs><title>Other</title><circle class="cls-1" cx="125" cy="125" r="87.17"/><path class="cls-2" d="M187.39,126.5H62.61a1.5,1.5,0,0,1,0-3H187.39a1.5,1.5,0,1,1,0,3Z"/><path class="cls-2" d="M125,188.89a1.5,1.5,0,0,1-1.5-1.5V62.61a1.5,1.5,0,0,1,3,0V187.39A1.5,1.5,0,0,1,125,188.89Z"/><path class="cls-2" d="M125,214a89,89,0,1,1,89-89A89.1,89.1,0,0,1,125,214Zm0-175a86,86,0,1,0,86,86A86.1,86.1,0,0,0,125,39Z"/></svg>