<svg id="Layer_1" data-name="Layer 1" xmlns="http://www.w3.org/2000/svg" viewBox="0 0 250 250"><defs><style>.cls-1{fill:#f9e8a0;}.cls-2{fill:red;}.cls-3{fill:#414042;}</style></defs><title>Other Alcoholic Beverages</title><path class="cls-1" d="M100.87,52.46a19.86,19.86,0,0,1,21.25,0L121.93,82s16.62,7,18.56,20.51,1.7,100.4,1.7,100.4l-56.2,1s-7.5.18-6.44-7.76.94-84.31.94-84.31S79.33,94.74,100.29,82Z"/><path class="cls-2" d="M120.78,130.08s12.15,12,45.52.27c0,0,5.45,26.56-1.13,32.48s-20.5,15.4-31.75,8.66-14.75-14.74-14-23.83S120.78,130.08,120.78,130.08Z"/><path class="cls-3" d="M146.42,178.53c0-1.08,1.93-2.43,3.11-2.69,12-2.63,23.2-12.88,21.51-27.39q-1.32-11.38-2.67-22.76l-1.57-12.5c-.28-2.47-1.38-3.47-3.77-3.47H144.8a31.89,31.89,0,0,0-17.54-27.13,4.86,4.86,0,0,1-2.91-5V67.88c-.12-4.11-.14-8.37,0-12.56,0-.19,0-.37,0-.56a51.58,51.58,0,0,1,1-7.08c.18-1,.36-2,.52-3,0-.21,0-.41.07-.62a10.86,10.86,0,0,0-3.22-6.55H100.87A10.86,10.86,0,0,0,97.65,44c0,.21,0,.41.07.62.16,1,.34,2,.52,3a51.59,51.59,0,0,1,1,7.08c0,.19,0,.37,0,.56.14,4.19.12,8.45,0,12.56v9.73a4.86,4.86,0,0,1-2.91,5A31.89,31.89,0,0,0,78.8,112v85.66c0,5,2.79,8.49,6.74,8.57,8.93.2,17.94.21,26.27.12,8.33.08,17.34.08,26.27-.12a6.14,6.14,0,0,0,3.23-1V208h-2.75a42.67,42.67,0,0,0-4.92,0c-1.55.14-3,.66-3.19,1.12a4.13,4.13,0,0,0,.44,2.41c.12.32.24.64.34.94h25.93c.94-1.79,1.2-2.91.84-3.53s-1.65-1-4-1H146.3V201.3C146.3,193.46,146.3,186,146.42,178.53Zm-6.18-44.36A35,35,0,0,1,128.68,133c-4-1.1-5.38-3.29-4.54-7.3.5-2.43.8-4.84,1.14-7.4.14-1.14.3-2.29.46-3.45v-.42h14.49Zm0,61.59c0,5.74-.34,6.14-6.36,6.14H89.74c-6,0-6.36-.4-6.36-6.14v-83a29.85,29.85,0,0,1,4.33-16.33,26.25,26.25,0,0,1,4.76-5.54,29.45,29.45,0,0,1,8.16-5.27l.22-.11.27-.11.44-.18A4.23,4.23,0,0,0,103.82,81c-.16-8-.14-16.05,0-23.5a5.63,5.63,0,0,1,.59-1.83,6,6,0,0,1,.61-1.1,11.17,11.17,0,0,0,.62-1.16c.14-.34.34-.66.52-1a4,4,0,0,0,.66-1.43c0-.09,0-.17,0-.26,0-.3-.6-.88-1.79-1.51a4.41,4.41,0,0,0-1.53-.34h-1.08V48.8h0V42.36h18.74V48.8h0v.06h-1.08a4.41,4.41,0,0,0-1.53.34c-1.18.62-1.79,1.2-1.79,1.51,0,.09,0,.17,0,.26a4,4,0,0,0,.66,1.43c.18.34.38.66.52,1a11.17,11.17,0,0,0,.62,1.16,6,6,0,0,1,.61,1.1,5.63,5.63,0,0,1,.6,1.83c.14,7.44.16,15.47,0,23.5a4.23,4.23,0,0,0,2.25,4.26l.44.18.28.11.23.11a29.45,29.45,0,0,1,8.16,5.27,26.25,26.25,0,0,1,4.75,5.53,28.55,28.55,0,0,1,4.2,13.26h-15c-2.55,0-3.61,1-4,3.71-1.3,11.58-2.71,23.06-3.81,31.75-1.2,9.69.62,16.49,6,22.07a30.61,30.61,0,0,0,17,8.83Zm3.87-24.06,0,0h-.32a23.94,23.94,0,0,1-17.68-8.21,18.06,18.06,0,0,1-4.41-14.37c.4-2.77.68-5.54,1-8.49.14-1.38.28-2.81.44-4.25v-.66l.6.24c10.43,4,20.75,3.77,32.49-1,1-.42,2.57-1,2.83-2a2,2,0,0,0-.5-1.69,4.7,4.7,0,0,0-4-.46,52.42,52.42,0,0,1-9.69,2.82V114.41h17.56l1,8.49c.8,6.52,1.59,13,2.35,19.48.16,1.28.28,2.57.42,3.83s.24,2.35.38,3.53a18.06,18.06,0,0,1-4.9,14.21A24,24,0,0,1,144.12,171.7Z"/><path class="cls-3" d="M102.06,94.65h-.34A5.06,5.06,0,0,0,99,95.87a19.36,19.36,0,0,0-8.33,16.27v72.66a9.11,9.11,0,0,0,.16,3.31,6.38,6.38,0,0,0,1.69,2.25l.6.62.44-.52a12.2,12.2,0,0,0,1.67-2.29,3.23,3.23,0,0,0,0-1.57v-73.2a16.53,16.53,0,0,1,6.48-14,4.66,4.66,0,0,0,1.42-3.59A1.83,1.83,0,0,0,102.06,94.65Z"/><path class="cls-3" d="M160.67,148.25c-.4-.74-1.18-2.11-1.89-2.21a1.83,1.83,0,0,0-1.4.24c-.6.48-.74,1.63-.88,2.73a2.65,2.65,0,0,1-.12,1,8.75,8.75,0,0,1-2.57,5.8,28.89,28.89,0,0,1-5.6,3c-1.14.49-2.3,1-3.39,1.59l-.18.09a7.69,7.69,0,0,0-2,1.81l-.54.6.64.62a4.13,4.13,0,0,0,2,1.36,14.41,14.41,0,0,0,10.55-4,17.18,17.18,0,0,0,5.7-12Z"/></svg>