<?xml version="1.0" encoding="utf-8"?>
<!-- Generator: Adobe Illustrator 21.1.0, SVG Export Plug-In . SVG Version: 6.00 Build 0)  -->
<svg version="1.1" id="Layer_1" xmlns="http://www.w3.org/2000/svg" xmlns:xlink="http://www.w3.org/1999/xlink" x="0px" y="0px"
	 viewBox="0 0 180.9 46.3" style="enable-background:new 0 0 180.9 46.3;" xml:space="preserve">
<style type="text/css">
	.st0{fill:#FAB700;}
	.st1{fill:#003574;}
</style>
<title>Mass</title>
<path class="st0" d="M104.3,10.7L93.9,4.1c0.8-0.2,1.7,0,2.4,0.4c3,1.2,6,2.4,9,3.6c0.2,0.1,0.4,0.2,0.6,0s0-0.4-0.1-0.6
	c-1-1.9-1.9-3.9-3-5.8c-0.1-0.2-0.2-0.5-0.3-0.7c0.6,0.1,0.8,0.6,1.2,0.9c1.7,1.6,3.4,3.2,5.1,4.8c0.3,0.3,0.5,0.3,0.6-0.2
	c0.3-1.7,0.7-3.4,1-5c0-0.2,0-0.5,0.4-0.7l1.6,6.5c1.3-1.2,2.4-2.3,3.6-3.3c0.8-0.7,1.5-1.4,2.3-2.1c0.1-0.1,0.3-0.3,0.5-0.2
	s0.1,0.3,0,0.5c-0.9,1.4-1.8,2.9-2.6,4.3c-0.3,0.5-0.6,1.1-0.9,1.6l0.1,0.2l10.6-4.6l0.2,0.3c-2.8,2.3-5.9,4.3-8.8,6.8l13.5-1.4v0.2
	l-2.8,0.8c-2.6,0.8-5.2,1.5-7.8,2.3c-1.6,0.5-3.2,0.8-4.8,0.8c-3.6-0.1-7.2,0-10.8,0c-1.2-0.1-2.4-0.4-3.6-0.8
	c-1.6-0.4-3.1-1-4.7-1.5c-1.8-0.6-3.6-1.1-5.5-1.6c-0.3-0.1-0.6,0-1-0.4C94.8,9.4,99.5,10.3,104.3,10.7z"/>
<path class="st1" d="M20.7,0c0.2,0.2,0.4,0.3,0.7,0.3c4.8,0.1,7.9,3.3,9.1,7.5c0.4,1.6,0.6,3.3,0.6,4.9c0.1,1.4,0,2.9,0,4.4
	c0,0.3,0,0.7,0.5,0.4c5.2-3,10.8-3.3,16.5-2.5c1.9,0.2,3.8,1.1,5.2,2.4c1.6,1.5,2.4,3.6,2.4,5.8c0,3.2,0,6.4,0,9.6
	c0,1,0.1,2.1,0.2,3.1c0,0.6,0.3,1.2,0.7,1.6c0.4,0.3,0.6,0.8,0.5,1.3c0,1.7,0,3.4,0,5c0,0.4,0,0.7-0.6,0.7c-3.6,0-7.2,0-10.9,0
	c-0.5,0-0.6-0.2-0.6-0.6s0-0.9,0-1.6c-1.7,1.3-3.6,2.3-5.6,2.8h-4c-0.2-0.3-0.5-0.3-0.8-0.3c-2-0.5-3.7-1.8-4.6-3.7
	c-1.1-2.3-1.4-4.9-0.6-7.4c0.3-1.2,1-2.3,1.9-3.2c1.7-1.6,3.8-2.2,5.8-3c1.9-0.7,3.8-1.2,5.7-1.8s2-0.9,1.6-2.8
	c0-0.1-0.1-0.3-0.1-0.4c-0.1-0.8-0.8-1.3-1.6-1.3c-0.8-0.1-1.5,0.3-1.8,1.1c-0.3,0.7-0.4,1.5-0.4,2.3c0,0.5-0.1,0.7-0.6,0.7
	c-3.1,0-6.2,0-9.2,0c-0.3,0-0.6,0.1-0.6-0.5c-0.3,1.1-0.9,2.2-1.6,3.1c-1.7,2-4,3.3-6.6,3.6c-2.2,0.3-4.4,0.3-6.6,0.3
	c-1.3,0-1.3,0-1.3,1.3c0,0.1,0,0.3,0,0.4c0,1-0.1,2,0.8,2.7c0.3,0.2,0.5,0.6,0.5,1c0,2.2,0,4.4,0,6.6c0,0.5-0.1,0.7-0.7,0.7
	c-4.9,0-9.7,0-14.6,0v-7.9c0.9-0.6,1.4-1.7,1.3-2.8c0-7.8,0-15.5,0-23.3c0.1-1-0.4-2.1-1.3-2.6c0-2.5,0-4.9,0-7.4C0,0.1,0.2,0,0.8,0
	C7.4,0,14,0,20.7,0z M13.8,15.9c0,1.7,0,3.4,0,5.1c0,1.4,0,1.4,1.4,1.4c2,0,3-0.8,3.2-2.8c0.3-2.8,0.3-5.5-0.2-8.3
	c-0.2-0.8-0.7-1.4-1.4-1.7c-0.8-0.2-1.5-0.3-2.3-0.3c-0.6-0.1-0.7,0.1-0.7,0.7C13.8,11.9,13.8,13.9,13.8,15.9z M44.7,34.3
	c0-0.5,0-1.1,0-1.6c0-0.2,0-0.5-0.3-0.4c-1.3,0.5-2.7,0.8-3.7,1.9c-0.5,0.7-0.6,1.5-0.3,2.3c0.3,0.9,1,0.8,1.7,0.7
	c0.3,0,0.7-0.1,1-0.2c0.9,0,1.7-0.8,1.7-1.8c0-0.1,0-0.2,0-0.2C44.7,34.8,44.7,34.6,44.7,34.3L44.7,34.3z"/>
<path class="st1" d="M125.4,45.3c-0.8-0.4-1.8-0.3-2.6-0.7c-2.5-1.3-3.4-3.5-3.8-6.1c-0.2-1.5-0.3-3.1-0.2-4.6c0-4-0.2-8.1,0.2-12.1
	c0.1-1.8,0.7-3.4,1.8-4.8c1.3-1.4,3-2.2,4.9-2.4c2.1-0.3,4.2,0,6.2,0.8c0.5,0.2,1,0.5,1.3,0.9c0.1,0.1,0.2,0.3,0.5,0.2
	s0.3-0.3,0.3-0.4c0-5.3,0-10.7-0.1-16c0,0,0-0.1,0-0.1h11.2c0,0.1-0.1,0.2-0.1,0.3c0,11.8,0,23.5,0,35.3c-0.1,0.6,0.1,1.1,0.5,1.5
	c0-0.2,0.1-0.3,0.1-0.4c0-0.2,0.1-0.4,0.1-0.6c0-2.6,1.3-5,3.5-6.4c1.6-0.9,3.4-1.7,5.2-2.2c2.1-0.7,4.2-1.4,6.3-2.1
	c0.2-0.1,0.6,0,0.6-0.5c0.1-0.8,0-1.6-0.3-2.3c-0.4-1-0.8-1.3-1.8-1.3s-1.4,0.3-1.8,1.3c-0.2,0.6-0.3,1.3-0.3,2
	c0,0.5-0.1,0.7-0.6,0.7c-3,0-6,0-9.1,0c-0.4,0-0.6-0.1-0.6-0.6c0-2,0-4.1,0-6.1c0-0.3,0.1-0.6,0.4-0.7c1.4-1,2.9-1.7,4.4-2.2
	c3.1-1,6.3-1.4,9.6-1.2c1.6,0.1,3.1,0.3,4.6,0.7c2.4,0.5,4.4,2,5.5,4.2c0.7,1.6,1,3.3,0.9,5c0.1,3.7-0.1,7.5,0.1,11.2
	c0,0.8,0.3,1.5,0.8,2c0.3,0.2,0.5,0.6,0.4,1c0,1.8,0,3.5,0,5.3c0,0.6-0.2,0.7-0.7,0.7c-3.2,0-6.4,0-9.6,0c-0.5,0.1-1,0.1-1.5-0.1
	c-0.5-0.3,0-0.9-0.1-1.4c0-0.1,0-0.1,0-0.2c0-0.4-0.2-0.4-0.4-0.2c-1.6,1.1-3.4,2-5.3,2.5h-3.8c0-0.2-0.2-0.1-0.3-0.2
	c-2-0.4-3.8-1.5-4.9-3.3c-0.2-0.3-0.4-0.6-0.7-1c0,1.1,0,2,0,2.9c0,0.7-0.1,0.9-0.9,0.9c-3.2-0.1-6.4,0-9.5,0c-1.4,0-1.4,0-1.6-1.4
	c0,0-0.1-0.1-0.1-0.1c-0.9,0.6-1.9,1-2.8,1.4c-0.8,0.3-1.7,0.5-2.5,0.7L125.4,45.3z M133.9,30L133.9,30c0-2,0-4,0-6
	c0-0.3,0.1-0.6-0.3-0.8c-0.9-0.8-2.4-0.7-3.2,0.2c-0.3,0.4-0.5,0.9-0.6,1.3c-0.2,1.7-0.2,3.5-0.2,5.3c-0.1,1.7,0,3.3,0.2,5
	c0.4,2,1.5,2.4,3.4,1.8c0.4-0.1,0.6-0.4,0.5-0.8C133.9,34,133.9,32,133.9,30z M161.2,32.2c-1.4,0.6-2.8,0.8-3.9,1.8
	c-0.6,0.6-0.8,1.5-0.5,2.3c0.4,0.9,0.8,1.1,1.8,0.9c0.7-0.1,1.4-0.3,2-0.6c0.3-0.1,0.6-0.4,0.5-0.8
	C161.2,34.6,161.2,33.5,161.2,32.2L161.2,32.2z"/>
<path class="st1" d="M179.9,19.6c-0.4,1-1.2,1.9-2.2,2.3c-1.5,0.5-3.2,0-4.2-1.4c-0.9-1.4-0.7-3.2,0.6-4.3c1.2-1.1,3-1.2,4.4-0.3
	c0.7,0.5,1.2,1.3,1.4,2.2L179.9,19.6z M179.2,18.8c0.1-1.4-0.9-2.7-2.4-2.8c-0.1,0-0.1,0-0.2,0c-1.6-0.1-2.9,1-3.1,2.6
	c-0.1,1.6,1,2.9,2.6,3.1c0.1,0,0.2,0,0.3,0c1.4,0.1,2.6-1,2.7-2.4C179.2,19.1,179.2,18.9,179.2,18.8L179.2,18.8z"/>
<path class="st1" d="M70.6,16.9c1.3-0.7,2.7-1.3,4.1-1.8c3.5-1,6.8-0.7,9.6,1.9c0.4,0.4,0.7,0.2,1,0c1.8-1.3,3.9-2.1,6.1-2.4
	c2.9-0.3,5.5,0.1,7.7,2.2c1.4,1.5,2.1,3.5,2.1,5.5c0.2,4.1,0.1,8.2,0.1,12.3c0,1.2,0,2.4,1.1,3.2c0.2,0.2,0.2,0.4,0.2,0.7
	c0,1.8,0,3.6,0,5.4c0,0.6-0.2,0.7-0.8,0.7c-3.5,0-6.9,0-10.4,0c-0.5,0-0.7-0.2-0.8-0.7c-0.3-1.4-0.4-2.7-0.4-4.1
	c-0.1-3.9-0.1-7.7-0.1-11.6c0.1-1.1,0.1-2.2,0-3.3c-0.2-1.4-1.6-2.4-3-2.2c-0.3,0.1-0.7,0.2-0.9,0.3c-0.2,0.1-0.2,0.3-0.2,0.5
	c0.1,4.1-0.2,8.3,0.2,12.4c0.1,0.6,0.4,1.2,0.8,1.6c0.3,0.2,0.4,0.6,0.4,0.9c0,1.8,0,3.6,0,5.4c0,0.5-0.1,0.7-0.7,0.7
	c-3.5,0-7,0-10.4,0c-0.5,0-0.7-0.1-0.8-0.6c-0.3-1.8-0.5-3.7-0.5-5.5c0-3.2-0.1-6.5-0.1-9.7c0.1-1.1,0.1-2.3,0-3.4
	c-0.3-2.6-2-2.7-3.9-2.2c-0.3,0.1-0.3,0.3-0.3,0.5c0.1,4.2-0.2,8.3,0.2,12.5c0.1,0.6,0.4,1.2,0.9,1.5c0.3,0.2,0.4,0.6,0.4,0.9
	c0,1.8,0,3.6,0,5.4c0,0.5-0.1,0.6-0.7,0.6c-4.2,0-8.3,0-12.5,0c-0.5,0-0.6-0.2-0.6-0.7c0-1.8,0-3.6,0-5.4c0-0.3,0-0.5,0.2-0.7
	c0.8-0.7,1.2-1.7,1.1-2.7c0-3.5,0-7,0-10.4c0.1-1-0.3-2.1-1.1-2.7c-0.2-0.1-0.2-0.3-0.2-0.5c0-1.9,0-3.8,0-5.8
	c0-0.5,0.1-0.7,0.7-0.7c3.5,0,7,0,10.5,0c0.6,0,0.8,0.2,0.8,0.8C70.5,16.2,70.5,16.6,70.6,16.9z"/>
<path class="st1" d="M116.6,24.9c0,2.9,0,5.8,0,8.7c-0.1,1.1,0.1,2.2,0.4,3.3c0.1,0.1,0.1,0.4,0.2,0.4c0.9,0.6,0.7,1.5,0.7,2.4
	c0,1.4,0,2.8,0,4.2c0,0.4,0,0.7-0.6,0.7c-4.2,0-8.4,0-12.6,0c-0.5,0-0.6-0.2-0.6-0.6c0-1.8,0-3.6,0-5.4c0-0.3,0.1-0.6,0.4-0.8
	c0.7-0.5,1-1.4,1-2.2c0-3.7,0-7.4,0-11c0.1-1-0.3-1.9-1-2.6c-0.2-0.2-0.3-0.4-0.3-0.7c0-1.9,0-3.7,0-5.6c0-0.4,0.1-0.6,0.6-0.6
	c3.8,0,7.5,0,11.3,0c0.5,0,0.5,0.3,0.5,0.7C116.6,18.8,116.6,21.9,116.6,24.9z"/>
<path class="st1" d="M175.2,18.7c0-0.2,0-0.5,0-0.7c0.1-0.4-0.3-1.1,0.2-1.2c0.8-0.2,1.7-0.1,2.4,0.4c0.4,0.3,0.3,1.5-0.1,1.6
	c-0.8,0.2-0.4,0.4-0.2,0.8c0.1,0.2,0.2,0.4,0.3,0.6c0.1,0.1,0.4,0.3,0.1,0.5c-0.2,0.1-0.4,0-0.5-0.2c0,0,0,0,0,0
	c-0.3-0.4-0.5-0.8-0.7-1.2c-0.1-0.3-0.4-0.4-0.7-0.3c-0.4,0.1-0.2,0.4-0.3,0.6c-0.1,0.4,0.3,1.1-0.3,1.1s-0.2-0.7-0.3-1.1
	C175.1,19.3,175.1,19,175.2,18.7z M176.4,18.4c0.5,0,1,0.1,1-0.6s-0.7-0.5-1.1-0.6s-0.5,0.2-0.5,0.6
	C175.7,18.4,175.9,18.5,176.4,18.4z"/>
</svg>
