<svg id="Layer_1" data-name="Layer 1" xmlns="http://www.w3.org/2000/svg" viewBox="0 0 101.96 101.96"><defs><style>.cls-1{fill:#c02827;}.cls-2{fill:#1a1b21;}.cls-3{fill:#fff;}.cls-4{fill:#231f20;}</style></defs><title>Panda Express(Responsive)</title><path class="cls-1" d="M50.48,0A51,51,0,0,0,0,50.2,51,51,0,0,0,86.48,87.57a51,51,0,0,0,1.09-72.09A50.62,50.62,0,0,0,51.75,0Zm0,1.79c.41,0,.83,0,1.23,0a49.19,49.19,0,0,1,33.51,84.5A49.2,49.2,0,0,1,16.72,15.67,48.85,48.85,0,0,1,50.49,1.79ZM51,17.36A33.67,33.67,0,1,0,84.63,51,33.67,33.67,0,0,0,51,17.36ZM9.78,53.87a1.41,1.41,0,1,0,1.42,1.41A1.41,1.41,0,0,0,9.78,53.87Zm82.56,0a1.41,1.41,0,1,0,1.41,1.41A1.41,1.41,0,0,0,92.34,53.87Z"/><path class="cls-2" d="M53.44,5,48,5a.49.49,0,0,0-.33.13.51.51,0,0,0-.13.33l.07,7.69a.47.47,0,0,0,.46.46l5.48,0a.47.47,0,0,0,.46-.46v-.9a.46.46,0,0,0-.46-.45l-4.09,0V10.18l3.63,0a.45.45,0,0,0,.45-.46h0v-.9A.45.45,0,0,0,53,8.33l-3.64,0V6.81l4.08,0a.43.43,0,0,0,.32-.14.44.44,0,0,0,.14-.33V5.41A.46.46,0,0,0,53.45,5Zm4.18.48a.46.46,0,0,0-.45.36.4.4,0,0,0,0,.3l2,4L55.47,13a.49.49,0,0,0-.16.24.51.51,0,0,0,.07.36.45.45,0,0,0,.27.2l1,.23h.14a.83.83,0,0,0,.5-.16L60,11.78l1.5,3.1a.85.85,0,0,0,.51.4l1,.23h0a.46.46,0,0,0,.53-.35.48.48,0,0,0,0-.31q-1-2.1-2-4.2L63,9.47l2-1.56a.41.41,0,0,0,.17-.26.46.46,0,0,0-.34-.56l-1-.22-.14,0a.85.85,0,0,0-.5.16L60.65,9,59.21,6.08a.85.85,0,0,0-.51-.4l-1-.23Zm-22,2.15-.18,0-.69.25a.65.65,0,0,0-.4.52l-.13,1.41L33.58,17a.45.45,0,0,0,.17.39.43.43,0,0,0,.29.1.31.31,0,0,0,.13,0l1-.35a.65.65,0,0,0,.4-.52l.13-1.48,3.77-1.4,1.06,1a.62.62,0,0,0,.47.17.47.47,0,0,0,.17,0l1-.35a.45.45,0,0,0,.16-.74l-6.17-6h0a.65.65,0,0,0-.46-.16Zm32.28.56h-.1a.73.73,0,0,0-.34.41,1.31,1.31,0,0,0-.09.28A1.34,1.34,0,0,0,67.8,10L65,15.78l0,.12a.44.44,0,0,0,.24.48l.87.42a.45.45,0,0,0,.34,0,.47.47,0,0,0,.25-.23l1-2.06,1.49.72a3.86,3.86,0,0,0,2.42.38,2.75,2.75,0,0,0,2-1.59v0a2.89,2.89,0,0,0,.25-.77c.25-1.33-.53-2.57-2.07-3.31L68.13,8.21a.48.48,0,0,0-.24-.06ZM36,10.26l2,2-2.18.8Zm33.44.6,1.49.71c.76.37,1.12.86,1,1.38a1.71,1.71,0,0,1-.09.3v0a1,1,0,0,1-.73.55,1.9,1.9,0,0,1-1.17-.2l-1.49-.72,1-2Zm-42,1.45a4.79,4.79,0,0,0-2.7.93l-3.06,2.17a.42.42,0,0,0-.19.27.66.66,0,0,0,.19.49,1.18,1.18,0,0,0,1,.48,1.26,1.26,0,0,0,.43-.08l3.71,5.21a.44.44,0,0,0,.62.11h0l2.29-1.63a4.28,4.28,0,0,0,1.2-6.14v0a4.18,4.18,0,0,0-3.48-1.8Zm50.06,1.11a.48.48,0,0,0-.37.17l-4.89,6a.45.45,0,0,0,.06.63l.74.61a.52.52,0,0,0,.27.1.46.46,0,0,0,.36-.17l1.64-2,1.27,1-.11,3.47a.8.8,0,0,0,.27.6l.8.65a.49.49,0,0,0,.28.11.45.45,0,0,0,.47-.45l.11-3.36a3.77,3.77,0,0,0,.75.11A2.47,2.47,0,0,0,81.21,20l0,0a2.54,2.54,0,0,0,.58-2,3.78,3.78,0,0,0-1.46-2.24l-2.6-2.13A.44.44,0,0,0,77.48,13.42Zm-50.12.74a2.42,2.42,0,0,1,2,1.05l0,0a2.47,2.47,0,0,1-.74,3.56l-1.14.81-2.89-4.07,1.14-.81a2.84,2.84,0,0,1,1.59-.56Zm50.33,1.66L79.12,17c1.13.93,1,1.43.69,1.76h0a.82.82,0,0,1-.71.33A2,2,0,0,1,78,18.58l-1.51-1.25ZM18.77,18.19a.42.42,0,0,0-.31.15l-.62.71a.41.41,0,0,0-.1.32.42.42,0,0,0,.15.31l3.59,3.12L15,22.7h0a.86.86,0,0,0-.55.26l-.41.47a.44.44,0,0,0,.05.63l5.83,5.06a.45.45,0,0,0,.31.11.48.48,0,0,0,.32-.15l.61-.71a.44.44,0,0,0,0-.63h0l-3.64-3.16,6.54.1h0a.77.77,0,0,0,.5-.21L25,24a.45.45,0,0,0,0-.64l-5.83-5.06A.46.46,0,0,0,18.77,18.19Zm67,2.84a.5.5,0,0,0-.31.1l-6.06,4.74a.46.46,0,0,0-.09.64h0l3.37,4.31a.47.47,0,0,0,.65.08l.7-.55a.46.46,0,0,0,.09-.64h0l-2.51-3.22,1.27-1,2.24,2.86a.46.46,0,0,0,.64.08l.71-.55a.47.47,0,0,0,.08-.65l-2.24-2.86,1.23-1L88,26.64a.46.46,0,0,0,.34.18.5.5,0,0,0,.31-.1l.7-.55a.44.44,0,0,0,.17-.31.42.42,0,0,0-.09-.34l-3.37-4.31a.5.5,0,0,0-.31-.18Zm4.33,8.71a2.36,2.36,0,0,0-.83.21h0c-1.24.58-1.56,1.72-1.12,3.93.34,1.69.09,1.8-.11,1.9a.81.81,0,0,1-.31.06,1.38,1.38,0,0,1-1-.89,3.24,3.24,0,0,1-.24-2.24.5.5,0,0,0-.39-.53l-.87-.14a.49.49,0,0,0-.54.36,5,5,0,0,0,.4,3.28,3.18,3.18,0,0,0,2.54,2,2.35,2.35,0,0,0,1.2-.23h0c1.19-.56,1.53-1.75,1.11-3.86-.35-1.75-.08-1.87.13-2a.42.42,0,0,1,.22,0,1.28,1.28,0,0,1,1,.83,3.31,3.31,0,0,1,.3,1.64h0v0a.55.55,0,0,0,0,.25.49.49,0,0,0,.34.27l.87.18a.48.48,0,0,0,.35-.07.49.49,0,0,0,.19-.28,4.45,4.45,0,0,0-.45-2.75,3.18,3.18,0,0,0-2.53-1.93Zm-79.78.35a.64.64,0,0,0-.45.19.72.72,0,0,0-.11.15l-.33.66a.66.66,0,0,0,.07.65l.88,1.11,4.49,5.65a.45.45,0,0,0,.39.17.49.49,0,0,0,.27-.13.36.36,0,0,0,.08-.12L16,37.5a.64.64,0,0,0-.07-.65L15,35.69l1.77-3.61,1.48,0a.72.72,0,0,0,.46-.2.4.4,0,0,0,.1-.15l.46-.91a.47.47,0,0,0,0-.43.44.44,0,0,0-.37-.21l-8.62-.12ZM12,31.94l2.83.1-1,2.08Zm-2.8,5.28H9c-1.35.08-2.37,1.13-2.72,2.8L5.4,43.94a.41.41,0,0,0,0,.32.69.69,0,0,0,.48.24.93.93,0,0,0,.29,0,1.32,1.32,0,0,0,1-.7l6.26,1.33a.45.45,0,0,0,.53-.34h0l.2-.94a.45.45,0,0,0-.35-.53h0l-2.23-.47L12,41.25a3.89,3.89,0,0,0-.21-2.44,2.73,2.73,0,0,0-2-1.52h0a2.54,2.54,0,0,0-.61-.07Zm84.2,1a2.75,2.75,0,0,0-.57,0h0c-1.34.29-1.92,1.33-2,3.59-.06,1.71-.33,1.77-.55,1.81l-.15,0c-.41,0-.77-.46-.91-1.12a3.26,3.26,0,0,1,.27-2.24.45.45,0,0,0-.26-.59l-.81-.34a.4.4,0,0,0-.15,0,.47.47,0,0,0-.45.25,5.07,5.07,0,0,0-.37,3.29A3,3,0,0,0,90,45.51a2.56,2.56,0,0,0,.62,0h0c1.29-.27,1.89-1.35,2-3.5.06-1.78.34-1.84.57-1.89h.09c.33,0,.74.35.89,1.06a3.46,3.46,0,0,1-.08,1.66v0a.52.52,0,0,0,0,.25.49.49,0,0,0,.27.34l.81.37a.33.33,0,0,0,.17,0,.45.45,0,0,0,.43-.26A4.43,4.43,0,0,0,96,40.76a3,3,0,0,0-2.6-2.56Zm-84.25.88a1.08,1.08,0,0,1,.31,0h0a1,1,0,0,1,.71.57,1.94,1.94,0,0,1,.08,1.19l-.35,1.62L7.66,42,8,40.4c.17-.82.56-1.29,1.1-1.32Z"/><path class="cls-2" d="M13.22,64.62a3.49,3.49,0,0,0-1.44.31A3.33,3.33,0,0,0,10,69.4l.09.2,0,.06a.75.75,0,0,0,.07.12l0,.07,0,.08v0l.05.07.06.09,0,.07.06.08,0,.06.07.08.05.06.08.08,0,0,.08.08.05,0a2.47,2.47,0,0,0,.27.21l0,0,.1.07,0,0,.11.07h0l0,0,0,0,.06,0,.06,0,.07,0h0l.11,0a.39.39,0,0,0,.18,0,.49.49,0,0,0,.46-.32l.17-.41a.52.52,0,0,0-.26-.66l-.19-.1-.05,0-.13-.08,0,0,0,0-.1-.08-.06,0-.09-.09-.13-.15,0,0h0l0,0-.07-.12,0,0,0,0-.11-.21a1.78,1.78,0,0,1,0-1.43,2.11,2.11,0,0,1,1.09-1.05,2.25,2.25,0,0,1,.88-.19A1.77,1.77,0,0,1,15,67.26a1.31,1.31,0,0,1,.08.21v.07c0,.06,0,.12,0,.19v0l0,.13V68a.71.71,0,0,1,0,.15v.05a.66.66,0,0,0,0,.14v.07l0,.17v0a1.33,1.33,0,0,1-.05.19.51.51,0,0,0,.33.62l.5.15a.51.51,0,0,0,.63-.33,1.14,1.14,0,0,0,.06-.25v0a2.21,2.21,0,0,0,.05-.25v0a2.45,2.45,0,0,0,0-.27v0a1.22,1.22,0,0,0,0-.27v0a1.33,1.33,0,0,0,0-.28v0l-.06-.28v0l-.09-.3,0,0c0-.11-.08-.22-.12-.33a3.36,3.36,0,0,0-3.1-2.07Zm74.11,0a.5.5,0,0,0-.46.28l-.22.48a.5.5,0,0,0,0,.38.48.48,0,0,0,.26.28L90,67.5l-4.4,1a.84.84,0,0,0-.54.43l-.2.42a.52.52,0,0,0,0,.39.46.46,0,0,0,.26.27L90.2,72.4a.49.49,0,0,0,.66-.23h0l.23-.48a.5.5,0,0,0,0-.38.48.48,0,0,0-.26-.28l-3.17-1.48,4.55-1a.84.84,0,0,0,.54-.43l.16-.33a.5.5,0,0,0,0-.38.48.48,0,0,0-.25-.29l-5.15-2.39a.45.45,0,0,0-.2,0Zm-69.5,5.89a.54.54,0,0,0-.28.08l-4.68,3.21a.51.51,0,0,0-.12.7l.3.44a.48.48,0,0,0,.42.21.54.54,0,0,0,.28-.08l1.75-1.2L16.93,76l-1.76,1.2a.51.51,0,0,0-.12.7l.3.44a.49.49,0,0,0,.69.13h0l4.67-3.21a.47.47,0,0,0,.21-.32.45.45,0,0,0-.08-.37l-.3-.45a.53.53,0,0,0-.7-.13l-1.72,1.18L16.7,73.07l1.72-1.18a.49.49,0,0,0,.13-.69l-.3-.45a.53.53,0,0,0-.42-.21Zm66.06.84a.48.48,0,0,0-.41.2l-2.37,3.3a.5.5,0,0,0,.12.7l4.6,3.3a.54.54,0,0,0,.3.1.49.49,0,0,0,.4-.21l2.4-3.34a.48.48,0,0,0,.08-.37.46.46,0,0,0-.2-.32l-.34-.25a.52.52,0,0,0-.29-.09.5.5,0,0,0-.41.2L86,77.09l-1-.71,1.52-2.13a.5.5,0,0,0-.11-.7l-.35-.25a.47.47,0,0,0-.28-.09.51.51,0,0,0-.41.21l-1.53,2.13L83,75v-.11h-.12l1.75-2.44a.5.5,0,0,0-.12-.7l-.34-.24a.44.44,0,0,0-.29-.09ZM22.48,76.66a.5.5,0,0,0-.34.13L18,80.64a.51.51,0,0,0,0,.71l.37.39a.5.5,0,0,0,.71,0l4.16-3.85a.49.49,0,0,0,0-.7h0l-.37-.39a.51.51,0,0,0-.37-.16Zm57.1.28a.5.5,0,0,0-.35.14l-.39.37a.49.49,0,0,0-.15.36.52.52,0,0,0,.14.35l1.46,1.5-1.81,1.76L77,79.92a.48.48,0,0,0-.36-.15.52.52,0,0,0-.35.14l-.38.38a.48.48,0,0,0,0,.7l4,4.07a.48.48,0,0,0,.36.15.52.52,0,0,0,.35-.14l.38-.38a.52.52,0,0,0,.16-.35A.47.47,0,0,0,81,84L79.5,82.46l1.8-1.76,1.48,1.53a.51.51,0,0,0,.71,0h0l.39-.38a.5.5,0,0,0,0-.71h0l-4-4.06a.51.51,0,0,0-.36-.15ZM25,79.27a.53.53,0,0,0-.39.18l-3.55,4.43a.5.5,0,0,0,.08.7l.41.32a.42.42,0,0,0,.31.11.5.5,0,0,0,.39-.18l2.19-2.73-.08,4.67a.85.85,0,0,0,.29.63l.29.23a.49.49,0,0,0,.7-.08l3.55-4.42a.5.5,0,0,0,.1-.37.44.44,0,0,0-.18-.33l-.41-.33a.47.47,0,0,0-.31-.11.51.51,0,0,0-.39.19l-2.11,2.63L26,80.29a.9.9,0,0,0-.3-.63l-.36-.28a.49.49,0,0,0-.31-.11ZM74.18,82.2h-.35l-.16,0-.15,0-.06,0h-.12l-.06,0h0l-.08,0,0,0h0l-.11,0-.05,0h0l-.1,0-.07,0-.08,0h0l-.06,0-.1,0h0l-.06,0-.18.12A3.42,3.42,0,0,0,70.72,85a3.49,3.49,0,0,0,.52,2.57,3.42,3.42,0,0,0,2.86,1.59A3.35,3.35,0,0,0,76,88.62l.18-.12.05,0,.11-.08.06,0,.05,0,0,0,.06,0,.09-.08,0-.06,0,0,0-.05,0-.06.06-.07,0-.07,0,0,0-.06,0,0,.05-.08,0,0,0,0,0,0v0l0-.09s0-.1.08-.16l0,0v0l0-.08,0-.06,0-.1,0-.06v0l0-.06,0-.07,0-.09,0-.12a.49.49,0,0,0-.38-.59l-.44-.1a.53.53,0,0,0-.6.36,1.72,1.72,0,0,0-.07.21l0,.06-.06.14,0,.07h0a.31.31,0,0,1,0,.1l0,.06a1,1,0,0,1-.08.11l0,.07-.09.11,0,0-.11.1,0,0,0,0-.2.15a1.76,1.76,0,0,1-1,.28,2.15,2.15,0,0,1-2-2.44A1.7,1.7,0,0,1,73,84.05a1.18,1.18,0,0,1,.19-.11h.06l.13-.06h.07l.12,0h.08l.12,0h.49l.2,0a.5.5,0,0,0,.56-.42l.07-.52a.51.51,0,0,0-.42-.57h-.52Zm-42.9,1.7a.51.51,0,0,0-.44.26l-2.66,5a.46.46,0,0,0,0,.38.55.55,0,0,0,.24.3L32,91.77a.49.49,0,0,0,.67-.2h0l.2-.37a.51.51,0,0,0-.2-.68L30,89.08,30.55,88l2.31,1.23a.46.46,0,0,0,.23.06.51.51,0,0,0,.45-.26l.2-.38a.5.5,0,0,0,0-.38.49.49,0,0,0-.24-.29l-2.32-1.23.55-1,2.67,1.42a.5.5,0,0,0,.68-.21l.2-.37a.5.5,0,0,0-.21-.68h0L31.51,84A.59.59,0,0,0,31.28,83.9Zm37.14,1.41a.48.48,0,0,0-.2,0l-4.13,1.77a.51.51,0,0,0-.27.27.48.48,0,0,0,0,.39l.18.42a.51.51,0,0,0,.46.3.41.41,0,0,0,.19,0l1.27-.54H66l1.84,4.29a.49.49,0,0,0,.46.3.48.48,0,0,0,.2,0l.5-.21a.51.51,0,0,0,.27-.65h0l-1.86-4.33,1.36-.58a.5.5,0,0,0,.26-.65l-.18-.43a.51.51,0,0,0-.46-.3ZM38.26,87.15a2,2,0,0,0-2,1.36c-.4,1.22.27,1.93,1.48,2.68,1,.6,1,.82.95,1.09a.55.55,0,0,1-.57.34,1.59,1.59,0,0,1-.45-.08l-.23-.09,0,0h0l-.14-.07-.07,0-.12-.08-.06,0,0,0-.1-.08-.06,0-.12-.12-.06,0-.09-.12,0,0a2.43,2.43,0,0,1-.14-.2l0,0a.53.53,0,0,0-.43-.22.43.43,0,0,0-.25.07l-.4.25a.48.48,0,0,0-.18.64l0,0,0,0,.05.07,0,0,0,0,.2.24,0,0a3.19,3.19,0,0,0,.26.26l.15.14.12.1.17.12h0l.27.17,0,0,.09,0,.21.1,0,0,0,0h0a2.11,2.11,0,0,0,.34.13,3.33,3.33,0,0,0,1,.17,2,2,0,0,0,2-1.4c.33-1-.09-1.79-1.42-2.62-1.09-.67-1.09-.87-1-1.14a.49.49,0,0,1,.52-.32,1.46,1.46,0,0,1,.39.07l.17.07h0l.11.06.06,0,.1.06,0,0,0,0,.09.07.06,0,.09.08.06.06.11.11,0,0a.93.93,0,0,1,.13.15.53.53,0,0,0,.7.1l.37-.28a.5.5,0,0,0,.12-.69l0,0,0,0v0l-.14-.16-.06-.06,0,0-.13-.14-.06-.06,0,0L40.39,88l0,0-.07-.06h0l-.13-.09-.27-.16,0,0-.28-.13,0,0h-.06a3,3,0,0,0-.32-.12,2.8,2.8,0,0,0-.91-.15Zm23.61.64-.13,0-.53.15a.52.52,0,0,0-.3.23.51.51,0,0,0,0,.38L62.4,94a.49.49,0,0,0,.61.35l.53-.15a.49.49,0,0,0,.34-.61l-1.53-5.46a.5.5,0,0,0-.48-.37Zm-18.25.83a.5.5,0,0,0-.49.43l-.82,5.61a.49.49,0,0,0,.1.37.46.46,0,0,0,.32.2l4.07.59a.5.5,0,0,0,.56-.42l.06-.43a.49.49,0,0,0-.09-.37.53.53,0,0,0-.33-.19L44,94l.18-1.22,2.59.38a.51.51,0,0,0,.57-.42l.06-.42a.51.51,0,0,0-.43-.57h0l-2.59-.37.17-1.16,3,.43a.51.51,0,0,0,.57-.42l.06-.42a.51.51,0,0,0-.42-.57h0l-4-.58Zm15,0h0l-.48.06a1,1,0,0,0-.59.35l-2,2.81-.3-2.27a.49.49,0,0,0-.49-.43h-.07l-.53.07a.51.51,0,0,0-.33.19.5.5,0,0,0-.1.37l.74,5.63a.5.5,0,0,0,.56.42h0l.54-.07a.45.45,0,0,0,.33-.19.53.53,0,0,0,.1-.37l-.19-1.42.62-.84,2.09,2.12a.85.85,0,0,0,.66.23l.54-.07.08,0a.46.46,0,0,0,.33-.44.47.47,0,0,0-.12-.32l-2.67-2.69L59,89.41l0,0a.46.46,0,0,0,.06-.23.47.47,0,0,0-.47-.47Z"/><path class="cls-3" d="M48.28,28c-.31,0-.61,0-.91,0a17,17,0,0,0-5.58,1.23l0,0a17,17,0,0,0-6,4.12h0a17,17,0,0,0-2.56,3.55l-.07.12s0,0,0,.05a20.65,20.65,0,0,0-2,8.79A13.41,13.41,0,0,0,33,52.39a13,13,0,0,0,1.12,1.72l.24.3.24.28s0,0,0,0l.23.26,0,0,.22.23c1.4,1.5,3.2,2.43,5.06,4.2.22.2.43.42.64.6a6,6,0,0,0,1.19.83h0l.09,0a8.3,8.3,0,0,0,.86.38,9.19,9.19,0,0,0,3.4.59c2.87,0,5.25-1.38,7.62-2.69.81-.44,1.62-.87,2.44-1.28.58-.28,1.2-.58,1.59-.79l1-.62c6.86-4.16,6.24-11.91,6.24-11.91A17,17,0,0,0,48.31,28Zm18.48,6.65a9.54,9.54,0,0,1-1.63,2.55,22.28,22.28,0,0,1,4.09,6.52,33.79,33.79,0,0,1,2.19,12s0,.76,1.43.78A2.68,2.68,0,0,0,74.25,56c1.12-.78,2.15-2.41,2.17-5.11v0c0-.11,0-.23,0-.35a17.55,17.55,0,0,0-2.33-8.13,10.67,10.67,0,0,0-.57-.91,31.68,31.68,0,0,0-6.75-6.83Z"/><path class="cls-2" d="M36.44,25.49c-4.5.06-9.61,5.37-3.35,11.6h0s0,0,0-.05l.07-.12a17,17,0,0,1,2.56-3.55v0a17.28,17.28,0,0,1,6-4.12h0a6,6,0,0,0-4.46-3.66,4.39,4.39,0,0,0-.89-.06Zm24.42.3a6.45,6.45,0,0,0-.76,0c-1.77.2-3.7,1.75-5,3.57A17,17,0,0,1,65.28,44.62S65.9,52.37,59,56.54l-.19.12-.08.05-.24.14,0,0-.25.14h0l-.23.13,0,0h-.17l-.08,0h-.1l0,0h0l0,0h0l-.1.05h0l0,0h0l0,0h0l0,0h0l0,0h0l-.11.05h0l-.05,0h0l0,0h0l0,0h0l0,0h0l-.1,0h0l0,0h0l0,0h0l0,0h0l0,0h0l-.06,0h0l-.05,0h-.06c-.82.4-1.63.83-2.44,1.27-2.37,1.32-4.75,2.7-7.62,2.7H46A9.19,9.19,0,0,1,43,61.32a6.6,6.6,0,0,1-.86-.38l-.09,0h0a6,6,0,0,1-1.19-.82c-.21-.19-.43-.4-.64-.61-1.86-1.76-3.66-2.7-5.06-4.2L34.89,55l0-.05-.23-.26,0,0-.24-.28h0l-.24-.3L34.05,54l0,0L34,53.93l0,0-.06-.08v0l-.07-.09v0l-.05-.08,0,0-.06-.07s0,0,0,0l-.07-.1v0l-.06-.08,0,0-.05-.08v0a1.37,1.37,0,0,1-.13-.2v0l0-.09,0,0-.12-.21h0l0-.09v0L33,52.39c-.18-.32-.35-.65-.51-1a13.91,13.91,0,0,0-1.55,3.49,20.49,20.49,0,0,0-.87,10c.77,3.94,2.31,7.58,5.25,10.23a12.31,12.31,0,0,0,6.74,3.14c2.33.33,4.48-1,4.48-3.55,0-1.8-1.49-3.53-1.64-5.29-.22-2.57,1.35-4.87,4-4.61a3.31,3.31,0,0,1,3,3,5.75,5.75,0,0,1-.9,3.94c-.94,1.72-2,3.09-2,4.67h0a1.16,1.16,0,0,0,0,.13v.06a1.11,1.11,0,0,0,0,.17s0,.08,0,.12,0,.1,0,.14l0,.15,0,.12a3.91,3.91,0,0,0,3.17,2.83,10,10,0,0,0,2.38.11C57.69,80,63.91,78.65,68.49,70c0,0,9.58.73,9.58-15.08h0c0-.35,0-.71,0-1.06,0-.58-.08-1.15-.15-1.73h0l-.09-.6c-.05-.32-.11-.64-.17-1a21.34,21.34,0,0,0-.75-2.71A24.69,24.69,0,0,0,74,42.09l-.35-.51.07.11c.09.14.24.37.41.67a17.56,17.56,0,0,1,2.33,8.14c0,.11,0,.23,0,.35v0h0c0,2.7-1,4.33-2.17,5.11a2.68,2.68,0,0,1-1.41.49c-1.45,0-1.43-.78-1.43-.78a33.79,33.79,0,0,0-2.19-12,22.42,22.42,0,0,0-4.09-6.52,9.8,9.8,0,0,0,1.63-2.55c2.06-4.89-2.08-8.75-5.9-8.83ZM40.24,43c-1.57,0-3.28,1.33-3.94,4C35.48,50.38,38,52.67,39,52.67A1.45,1.45,0,0,0,40.17,52a2.59,2.59,0,0,0,.39-.8,12.32,12.32,0,0,1,1.65-3c1.57-2.41.54-4.4-.71-5A2.78,2.78,0,0,0,40.24,43Zm11.65.49a3,3,0,0,0-1.14.2c-1.35.54-2.56,2.54-1.08,5.15a13.12,13.12,0,0,1,1.5,3.23,2.48,2.48,0,0,0,.41.93l0,0a1.48,1.48,0,0,0,.28.28,1.42,1.42,0,0,0,.88.35h0c1.06,0,3.7-2.21,3.09-5.7C55.38,45,53.58,43.52,51.89,43.48Zm-12.64,3.3a1,1,0,0,1,1,.93v.08a.93.93,0,1,1-1.86-.12,1,1,0,0,1,.89-.89Zm13.18.77a1,1,0,0,1,1,.93v.08a.94.94,0,0,1-1,.87.92.92,0,0,1-.87-1,1,1,0,0,1,.9-.89ZM43,56a.56.56,0,0,0-.56.55.59.59,0,0,0,.13.36c.79.93,2.07.72,2.31,1.85a.53.53,0,0,0,0,.15h0A.36.36,0,0,0,45,59a.52.52,0,0,0,.42.2.56.56,0,0,0,.5-.32l0-.09c.3-1.05,1.74-.82,2.61-1.58a.65.65,0,0,0,.15-.18.57.57,0,0,0,.06-.25.55.55,0,0,0-.51-.55,24.17,24.17,0,0,1-2.66.07A19,19,0,0,1,43,56Z"/><path class="cls-4" d="M87.13,90.51a2.62,2.62,0,1,0,2.61,2.62A2.61,2.61,0,0,0,87.13,90.51Zm0,.46a2.16,2.16,0,0,1,0,4.31h0a2.15,2.15,0,1,1,0-4.3h0Zm-1,.88a0,0,0,0,0,0,0h0v2.49a0,0,0,0,0,0,0h.38s0,0,0,0h0v-.82s0,0,0,0h.5l0,0,.59.84a.09.09,0,0,0,.06,0h.46s0,0,0,0l-.65-.91s0,0,0,0a.77.77,0,0,0,.58-.77c0-.51-.37-.82-1-.82Zm.45.41h.62c.34,0,.54.15.54.43s-.21.43-.53.43h-.63a0,0,0,0,1,0,0h0V92.3s0,0,0,0Z"/></svg>