<?xml version="1.0" encoding="utf-8"?>
<!-- Generator: Adobe Illustrator 21.1.0, SVG Export Plug-In . SVG Version: 6.00 Build 0)  -->
<svg version="1.1" id="Layer_1" xmlns="http://www.w3.org/2000/svg" xmlns:xlink="http://www.w3.org/1999/xlink" x="0px" y="0px"
	 viewBox="0 0 217.8 94.5" style="enable-background:new 0 0 217.8 94.5;" xml:space="preserve">
<style type="text/css">
	.st0{fill:#009470;}
	.st1{fill:#FFFFFF;}
	.st2{fill:#ED1B2E;}
	.st3{fill:#009470;stroke:#ED1B2E;stroke-width:0.22;stroke-miterlimit:2.61;}
	.st4{fill:#ED1B2E;stroke:#ED1B2E;stroke-width:0.45;stroke-miterlimit:2.61;}
	.st5{fill:none;stroke:#ED1B2E;stroke-width:0.45;stroke-miterlimit:2.61;}
	.st6{fill:#009470;stroke:#009470;stroke-width:0.45;stroke-miterlimit:2.61;}
	.st7{fill:none;stroke:#009470;stroke-width:1.01;stroke-miterlimit:2.61;}
</style>
<title>Papa John&amp;apos;s Pizza</title>
<path class="st0" d="M202.4,39.1c-14.8-8.6-49.1-17.2-63.5-18.4l0,0L128,19.8l0,0c-11.6-0.9-18-1.5-23-1.5s-11.3,0.5-23,1.5l0,0
	l-10.8,0.9l0,0c-14.5,1.2-48.7,9.8-63.5,18.4c-7,4-7.7,6.8-7.7,16.3l0,0v24.1l0,0c0,2,0.2,4.8,2.3,7c2.4,2.5,5.4,2.5,8.9,2.5h187.7
	c3.5,0,6.6,0,8.9-2.5c2-2.2,2.3-5,2.3-7l0,0V55.4l0,0C210.1,45.9,209.4,43.1,202.4,39.1L202.4,39.1z"/>
<path class="st1" d="M207.8,79.5c0,1.5-0.2,3.7-1.6,5.2c-1.7,1.8-4,1.8-7.3,1.8H11.2c-3.3,0-5.6,0-7.3-1.8c-1.4-1.5-1.6-3.7-1.6-5.2
	l0,0V55.4l0,0c0-9.1,0.8-10.8,6.5-14.1c14.6-8.4,48.3-17,62.6-18.1l0,0l10.9-0.9l0,0c11.6-0.9,18-1.5,22.8-1.5s11.2,0.5,22.8,1.5
	l0,0l10.9,0.9l0,0c14.3,1.1,48,9.7,62.6,18.1c5.7,3.3,6.5,5,6.5,14.1l0,0V79.5z"/>
<path class="st2" d="M200.8,42.3c-14.5-8.3-47.9-16.8-62.1-18l0,0l-10.9-0.9l0,0c-11.6-0.9-17.9-1.5-22.7-1.5s-11.1,0.5-22.7,1.5
	l0,0l-10.8,0.9l0,0c-14.2,1.1-47.7,9.6-62.1,18c-5.4,3.1-5.9,4.3-5.9,13.1l0,0v24.1l0,0c0,2.1,0.4,3.4,1.3,4.4
	c1.3,1.4,3.4,1.4,6.5,1.4H199c3.1,0,5.1,0,6.5-1.4c0.9-0.9,1.3-2.3,1.3-4.4l0,0V55.4l0,0C206.7,46.6,206.1,45.4,200.8,42.3
	L200.8,42.3z"/>
<path class="st1" d="M205.5,79.5c0,4.6-2.1,4.6-6.9,4.6H11.5c-4.8,0-6.9,0.1-6.9-4.6V55.4c0-8.5,0.5-9.2,5.3-12
	c13.8-7.9,46.9-16.6,61.6-17.8l7.8-0.6l0,0l-1.3-2l0,0c0,0,6.1-2.8,26.6-2.8s28,3,28,3l0,0l-1.5,1.9l0,0l7.4,0.6
	c14.8,1.2,47.9,9.9,61.7,17.8c4.8,2.8,5.3,3.4,5.3,12L205.5,79.5L205.5,79.5z"/>
<path class="st0" d="M130.1,70.7c0.9-0.4,1.4-1.4,1.4-2.3l0,0v-26l0,0c0-3-3-3.5-3.8-1.3c1.2-0.4,2.7,0.4,2.7,2.6l0,0v26l0,0
	C130.3,70,130.2,70.3,130.1,70.7z"/>
<path class="st0" d="M129.3,82.3c-5.4,0-11.6-5.5-11.8-12l0,0V40.7l0,0c-0.2-2.9,0.7-5.7,2.4-8c-2,1.8-3.6,4.7-3.6,9.2l0,0v29.6l0,0
	c0.2,6.5,6.4,12,11.8,12c3.4,0.1,6.7-1.3,8.9-3.9C134.9,81.4,132.2,82.4,129.3,82.3L129.3,82.3z"/>
<path class="st0" d="M33.9,80.8v-7.3l0,0c0,0,0.8-0.4,0.8-2.2l0,0v-1.8h-3.3v1.2h2.2v1.8l0,0c0,1.8-0.8,2.2-0.8,2.2l0,0V82h8.9v-1.2
	H33.9z"/>
<path class="st0" d="M23.5,80.8v-7.3l0,0c0,0,0.8-0.4,0.8-2.2l0,0l4-29.8l-1,0.3l-4.1,30.7l0,0c0,1.8-0.8,2.2-0.8,2.2l0,0V82h8.7
	v-1.2H23.5z"/>
<polygon class="st0" points="33.3,64.1 34.6,64.1 33.2,49.5 32.5,55.9 33.3,64.1 33.3,64.1 "/>
<path class="st0" d="M98.2,79.2v-8.9l0,0c-0.4-0.2-0.8-0.4-1.2-0.7l0,0v10.8l0,0c3.5,2.4,10.7,5,14.5-0.1
	C107.6,83.7,101.4,81.3,98.2,79.2L98.2,79.2z"/>
<path class="st0" d="M104.2,41.6v24.9l0,0c0.1,1.1-0.1,2.3-0.6,3.3c1.1-0.5,1.7-1.9,1.7-4.5l0,0V40.4l0,0c0-2.4-1.1-3.1-1.1-3.1l0,0
	V30h-1.2v8.6l0,0C103.1,38.6,104.2,39.2,104.2,41.6L104.2,41.6z"/>
<path class="st0" d="M196.8,82c-3.2,0.1-5.9-0.6-8.4-4.4l0,0v-7h-1.2v8.3l0,0c2.5,3.8,5.2,4.6,8.4,4.4c1.8-0.1,3.8-1.4,5.2-3.2
	C199.7,81.1,198.3,81.8,196.8,82L196.8,82z"/>
<path class="st3" d="M193.7,68.9c1.5,0.5,3.2,0.5,3.2,3.5c0,0.8-0.1,1.6-0.3,2.4c0.8-0.2,1.5-1.2,1.5-3.6c0-3-1.7-3-3.2-3.5
	c-1.5-0.6-2.8-1.5-3.9-2.7c-1.8-2-2.7-4.5-2.6-7.2c0-3.7,0.9-6.7,2.3-8.7c-2.2,1.8-3.5,5.4-3.5,9.9c-0.1,2.6,0.8,5.2,2.6,7.2
	C190.9,67.4,192.3,68.3,193.7,68.9L193.7,68.9z"/>
<path class="st0" d="M198,58.1c0-5.1-2.4-4.9-3-3c0.9-0.1,1.9,0.9,1.9,4.3h5.8v-1.2L198,58.1z"/>
<path class="st0" d="M155,81v-7.5l0,0c0,0,1.1-0.6,1.1-3.1l0,0V62h-3.8v1.2h2.7v8.4l0,0c0,2.4-1.1,3.1-1.1,3.1l0,0v7.5h11.1V81H155z
	"/>
<path class="st0" d="M142.7,81v-7.5l0,0c0,0,1.3-0.6,1.3-3.1l0,0V44.6l0,0c0.1-1.3-0.4-2.5-1.3-3.4l0,0v-9.1l-1.2-0.2v10.6l0,0
	c1,0.8,1.5,2.1,1.3,3.4l0,0v25.8l0,0c0,2.4-1.3,3.1-1.3,3.1l0,0v7.5h10.7V81L142.7,81z"/>
<path class="st0" d="M154.9,46.8v6.9h1.2v-8.1l0,0c0-2.4-0.9-3.1-0.9-3.1l0,0v-7.8l-1.2-0.3v9.3l0,0C154,43.7,154.9,44.3,154.9,46.8
	L154.9,46.8z"/>
<path class="st0" d="M58.6,68h-4.9v1.2h3.7c2.1-0.1,4-1,5.3-2.6C61.5,67.4,60.1,67.9,58.6,68L58.6,68z"/>
<path class="st0" d="M44.4,80.8v-7.3l0,0c0,0,1.1-0.6,1.1-3.1l0,0V46.8l0,0c0-1-0.4-2-1.1-2.7l0,0v-6.6l0,0L43.2,38l0,0v7.3l0,0
	c0.7,0.7,1.1,1.7,1.1,2.7l0,0v23.6l0,0c0,2.4-1.1,3.1-1.1,3.1l0,0V82h10.5v-1.3H44.4z"/>
<path class="st0" d="M55.3,59.1c1.3-0.4,1.7-2.7,1.7-3.7l0,0v-9.8l0,0c0-3.5-1.7-3.7-2.2-3.7h-1.1v1.2l0,0c0.5,0,2.1,0.3,2.1,3.7
	l0,0v9.8l0,0C55.8,57.5,55.7,58.3,55.3,59.1L55.3,59.1z"/>
<polygon class="st0" points="179,80.9 174.8,64.2 174.8,70.1 177.8,82.1 185,82.1 185,80.9 179,80.9 179,80.9 "/>
<path class="st0" d="M168,80.9v-7.4l0,0c0.7-0.1,1.2-0.8,1.1-1.5c0-0.1,0-0.1,0-0.2l0,0V47.9l0,0c0.1-1.2-0.3-2.5-1-3.4l0,0v-6.8
	l-1.2-0.3v8.3l0,0c0.8,1,1.2,2.2,1,3.4l0,0V73l0,0c0.2,0.7-0.2,1.5-0.9,1.7c-0.1,0-0.1,0-0.2,0l0,0v7.4h7.7v-1.2L168,80.9z"/>
<path class="st0" d="M178.9,51c0.3,0.8,0.5,1.6,0.5,2.5l0,0v0.1l1,6l0.1-7.4l0,0c0.1-1.2-0.2-2.5-1-3.4l0,0v-7.5l-1.2-0.4v6.8
	L178.9,51z"/>
<path class="st0" d="M7.8,80.8v-7.3l0,0c0,0,0.9-0.5,0.9-2.3l0,0V56l0,0c0-0.8-0.3-1.5-0.9-2l0,0v-4.8l0,0l-1.2,0.5l0,0v5.5l0,0
	c0.6,0.5,0.9,1.2,0.9,2l0,0v15.1l0,0c0,1.8-0.9,2.3-0.9,2.3l0,0V82h8.1v-1.2H7.8z"/>
<path class="st0" d="M16.1,64.6c1.1-0.2,1.4-2,1.4-2.8l0,0v-7.3l0,0c0-2.6-1.3-2.8-1.7-2.8H15v1.3l0,0c0.5,0.1,1.4,0.6,1.4,2.7l0,0
	V63l0,0C16.4,63.5,16.3,64.1,16.1,64.6L16.1,64.6z"/>
<polygon class="st0" points="78.4,60.6 79.7,60.6 77.5,40.5 76.8,46.5 78.4,60.6 78.4,60.6 "/>
<path class="st0" d="M79.2,80.8v-7.3l0,0c0,0,1.1-0.6,1.1-3.1l0,0v-2.4h-5.5v1.2h4.4v2.4l0,0c0,2.4-1.1,3.1-1.1,3.1l0,0V82h12.2
	v-1.2H79.2z"/>
<path class="st0" d="M64.9,80.8v-7.3l0,0c0,0,1.1-0.6,1.1-3.1l0,0v-0.4l5.2-37.9l-1,0.1l-5.3,39v0.4l0,0c0,2.4-1.1,3.1-1.1,3.1l0,0
	V82h11v-1.2H64.9z"/>
<path class="st0" d="M18.8,69.3H15v1.2h2.6c1.5-0.1,2.9-1,3.7-2.3C20.6,68.9,19.7,69.2,18.8,69.3L18.8,69.3z"/>
<path class="st4" d="M15.9,80.8H7.8v-7.3l0,0c0,0,0.9-0.5,0.9-2.3l0,0V56l0,0c0-0.8-0.3-1.5-0.9-2l0,0v-5.5l0,0
	c4.4-1.9,8.1-3.2,8.1-3.2c2.8-0.4,5.2,0,6.7,1.6c0.9,1,1.3,2.8,1.3,5.2v10c0,3.8-2,6.9-5.1,7.1H15v1.8l0,0c0,1.8,0.9,2.3,0.9,2.3
	l0,0V80.8z M15,51.6v12.9h0.9c1.3,0,1.7-2,1.7-2.8l0,0v-7.3l0,0c0-2.6-1.3-2.8-1.7-2.8L15,51.6L15,51.6z"/>
<path class="st4" d="M194.9,69.3h-6.5v8.3l0,0c2.5,3.8,5.2,4.6,8.4,4.4s7.1-4.2,7.1-7.8l0,0v-6.9l0,0c0-4.3-2.3-5.5-4.5-6.9
	c-2.2-1.4-4.5-0.8-4.5-4.3c0-2.8,3.2-4,3.2,2h5.8v-7.6l0,0c-4.8-4.7-7.5-4.2-9.7-3.8c-3.5,0.7-5.8,5-5.8,11
	c-0.1,2.6,0.8,5.2,2.6,7.2c1.1,1.2,2.4,2.1,3.9,2.7c1.4,0.5,3.2,0.5,3.2,3.5c0,4.8-3.2,4.1-3.2,2.2l0,0L194.9,69.3L194.9,69.3z"/>
<path class="st4" d="M188.9,48.1l0.5,0.8l1.5-1.6l0,0c1.7-1.8,1-4.1-1.2-4.1c-1.8,0-1.8,2.7-0.6,3c0.7,0.2,0.7,0.5,0.4,1L188.9,48.1
	L188.9,48.1z"/>
<path class="st4" d="M24.3,71.2l4.1-30.7l10.1-2.8l3.3,33.6l0,0c0,1.8,0.8,2.2,0.8,2.2h0.1v7.3h-8.9v-7.3l0,0c0,0,0.8-0.4,0.8-2.2
	l0,0v-1.8h-3.3v1.8l0,0c0,1.8,0.8,2.2,0.8,2.2l0,0v7.3h-8.7v-7.3l0,0C23.5,73.4,24.4,73,24.3,71.2L24.3,71.2z M31.7,64.1h2.8
	l-1.4-14.6L31.7,64.1L31.7,64.1z"/>
<path class="st4" d="M115.2,41.2c0-2.4,1.1-3.1,1.1-3.1l0,0v-9.1l-12.1-0.3v8.6l0,0c0,0,1.1,0.6,1.1,3.1l0,0v24.9l0,0
	c0,5.7-3.1,5.7-7.1,3.1l0,0v10.8l0,0c4.8,3.3,17,7.1,17-10l0,0L115.2,41.2L115.2,41.2z"/>
<path class="st4" d="M166.1,73.5c0,0-1-0.6-1-3.1l0,0L165,47.5l0,0c-0.1-1.3,0.4-2.5,1.3-3.4l0,0V36l-11.1-2.8v9.3l0,0
	c0,0,0.9,0.6,0.9,3.1l0,0v8.1h-3.8v-8.1l0,0c-0.1-1.3,0.4-2.5,1.3-3.4l0,0v-9.5l-10.9-2v10.6l0,0c1,0.8,1.5,2.1,1.3,3.4l0,0v25.8
	l0,0c0,2.4-1.3,3.1-1.3,3.1l0,0v7.5h10.7v-7.5l0,0c0,0-1.1-0.6-1.1-3.1l0,0V62h3.8v8.4l0,0c0,2.4-1.1,3.1-1.1,3.1l0,0V81h11.1
	L166.1,73.5L166.1,73.5z"/>
<path class="st5" d="M166.1,73.5c0,0-1-0.6-1-3.1 M165,70.4L165,47.5 M165,47.5c-0.1-1.3,0.4-2.5,1.3-3.4 M166.3,44.1V36l-11.1-2.8
	v9.3 M155.2,42.5c0,0,0.9,0.6,0.9,3.1 M156.1,45.5v8.1h-3.8v-8.1 M152.3,45.5c-0.1-1.3,0.4-2.5,1.3-3.4 M153.6,42.2v-9.5l-10.9-2
	v10.6 M142.7,41.2c1,0.8,1.5,2.1,1.3,3.4 M144,44.6v25.8 M144,70.4c0,2.4-1.3,3.1-1.3,3.1 M142.7,73.4v7.5h10.7v-7.5 M153.4,73.4
	c0,0-1.1-0.6-1.1-3.1 M152.3,70.4V62h3.8v8.4 M156.1,70.4c0,2.4-1.1,3.1-1.1,3.1 M155,73.5V81h11.1v-7.5"/>
<path class="st4" d="M168,73.5c0.7-0.1,1.2-0.8,1.1-1.5c0-0.1,0-0.1,0-0.2l0,0V47.9l0,0c0.1-1.2-0.3-2.5-1-3.4l0,0v-8.3l8.8,2.4
	l3.7,21.1l0.1-7.4l0,0c0.1-1.2-0.2-2.5-1-3.4l0,0v-9.2l8.1,2.9v7.3l0,0c-1,0.8-1.5,2.1-1.3,3.4l0,0v27.7H179l-4.1-16.7v6.9l0,0
	c0,2.4,0.8,2.3,0.8,2.3l0,0v7.4H168L168,73.5L168,73.5z"/>
<path class="st5" d="M168,73.5c0.7-0.1,1.2-0.8,1.1-1.5c0-0.1,0-0.1,0-0.2 M169,71.7V47.9 M169,47.9c0.1-1.2-0.3-2.5-1-3.4
	 M168,44.4v-8.3l8.8,2.4l3.7,21.1l0.1-7.4 M180.5,52.2c0.1-1.2-0.2-2.5-1-3.4 M179.5,48.8v-9.2l8.1,2.9v7.3 M187.6,49.9
	c-1,0.8-1.5,2.1-1.3,3.4 M186.2,53.2v27.7H179l-4.1-16.7v6.9 M174.9,71.2c0,2.4,0.8,2.3,0.8,2.3 M175.7,73.5v7.4H168v-7.4"/>
<path class="st4" d="M53.7,41.9v17.3h1.1c1.7,0,2.2-2.7,2.2-3.8l0,0v-9.8l0,0c0-3.5-1.7-3.7-2.2-3.7C54.9,41.9,53.7,41.9,53.7,41.9z
	 M54.9,80.8H44.4v-7.3l0,0c0,0,1.1-0.6,1.1-3.1l0,0V46.8l0,0c0-1-0.4-2-1.1-2.7l0,0v-7.3l0,0c3.3-1.5,6.9-2.6,10.5-3.3
	c3.6-0.6,6.7,0,8.6,2.2c1.2,1.3,2.7,2.8,2.6,7.2c0,0,0,14.1,0,14.4c0.1,8.2-3.4,10.4-7.4,10.7h-4.9v2.4l0,0c0,2.4,1.1,3.1,1.1,3.1
	l0,0L54.9,80.8L54.9,80.8z"/>
<path class="st4" d="M66,69.9l5.3-39l14.2-1.4l4.7,40.8l0,0c0,2.4,1.1,3.1,1.1,3.1l0,0v7.3H79.2v-7.3l0,0c0,0,1.1-0.6,1.1-3.1l0,0
	v-2.4h-5.5v2.4l0,0c0,2.4,1.1,3.1,1.1,3.1l0,0v7.3h-11v-7.3l0,0c0,0,1.1-0.6,1.1-3.1L66,69.9L66,69.9z M75.3,60.6h4.4l-2.3-20.1
	C77.5,40.5,75.4,60.6,75.3,60.6z"/>
<path class="st4" d="M105.1,20.6c9.6,0,25.6,1.4,25.5,2.4c0,0-4.2,2.6-1.5,2.9c1.7,0.2,3.5,0.2,3.5,0.2c3.4,0,8.6,2,12.3,2.9l0,0
	l1,0.3l-0.1-1.1l-1.1-9.4l5.2-5.5l0.7-0.8l-1.2-0.4l0,0c0,0-9.4-2.6-12.2-2.6l0,0l0.7-3.7l0,0c0.5-2.2-12.1-5.7-32.7-5.7l0,0
	c-20.6,0-33.5,2.9-33,5.2l0,0L73,9.5l0,0c-2.8,0-12.2,2.6-12.2,2.6l0,0l-1.2,0.4l0.7,0.8l5.2,5.6l-1.1,9.4l-0.1,1.1l1-0.3l0,0
	c3.7-0.9,8.9-2.9,12.3-2.9c0,0,1.7,0,3.5-0.2c2.7-0.2-1.5-2.9-1.5-2.9C79.4,22.1,95.4,20.6,105.1,20.6L105.1,20.6z"/>
<path class="st6" d="M105.1,19c11.3-0.2,26.7,1.7,27.5,2.9c0,0,2.9-14.5,3.1-15.3c0.3-1.2-13.2-4.8-30.6-4.8S73.9,5,74.2,6.2
	c0.2,0.8,3.3,15.8,3.3,15.8C78.4,20.7,93.8,18.9,105.1,19L105.1,19z"/>
<path class="st6" d="M76.1,24l1.2,0.5l0,0c-0.9,0-1.9,0.2-2.8,0.3c-2.3,0.5-5.4,1.5-8.3,2.2l0,0l1-9l-5-4.8l0,0c0,0,8.9-2.2,11-2.2
	l0,0L76.1,24L76.1,24z"/>
<path class="st6" d="M134,24l-1.2,0.5l0,0c0.9,0,1.9,0.2,2.8,0.3c2.3,0.5,5.4,1.5,8.3,2.2l0,0l-1-9l5-4.8l0,0c0,0-8.9-2.2-11-2.2
	l0,0L134,24L134,24z"/>
<path class="st1" d="M80.5,17.1v-0.4l1.1-0.1l-0.9-9.7L79.7,7V6.5L86.4,6l0,0c3.1-0.3,3.8,1.2,3.9,2.7s-0.2,3.2-3.3,3.6l0,0l-2,0.2
	l0.4,3.9l1.3-0.1v0.4L80.5,17.1z M84.9,12l0.6-0.1l0,0c1-0.2,1.6-1.1,1.5-2.1l0,0l-0.2-1.6l0,0c-0.2-0.9-1-1.6-1.9-1.6l0,0h-0.5
	L84.9,12L84.9,12z"/>
<polygon class="st1" points="92,16.1 91.9,15.7 93,15.6 92.5,5.8 91.4,5.9 91.4,5.5 97.1,5.1 97.1,5.5 96,5.6 96.5,15.3 97.6,15.3 
	97.6,15.7 92,16.1 92,16.1 "/>
<path class="st1" d="M107.5,4.9v0.5l-4.6,9.8h0.8c1.4,0,2.8-1.1,3.3-3.7h0.4l-0.1,4.1l-8.3,0.1V15l4.5-9.6h-0.5
	c-1.8,0-3,1.6-3.4,3.3h-0.4L99.5,5L107.5,4.9L107.5,4.9z"/>
<path class="st1" d="M118.5,5.3v0.5l-5.1,9.4h0.8l0,0c1.4,0.1,2.9-0.9,3.5-3.4l0,0h0.5l-0.3,4l-8.3-0.4v-0.6l5.1-9.3h-0.5l0,0
	c-1.8-0.1-3.1,1.4-3.6,3.1l0,0h-0.4l0.4-3.7L118.5,5.3L118.5,5.3z"/>
<path class="st1" d="M119.3,16.1v-0.4h0.3l0,0c0.5,0,0.9-0.8,1.2-1.4l0,0l3.8-8.3l2.2,0.1l2.6,10.5l0.8,0.1v0.4l-5.4-0.5v-0.4l1,0.1
	l-0.7-3.2l-2.9-0.3l-0.6,1.5l0,0c-0.5,1.1,0,1.5,0.4,1.5l0,0h0.4v0.4L119.3,16.1L119.3,16.1z M124.1,8.8l-1.7,3.7l2.6,0.3L124.1,8.8
	L124.1,8.8z"/>
<path class="st4" d="M117.5,40.7c0-10.2,7.7-12,11.8-12c4.1,0,11.6,2.4,11.6,12l0,0v28.5l0,0c0,10.9-6.8,13.1-11.6,13.1
	c-5.4,0-11.6-5.5-11.8-12l0,0L117.5,40.7L117.5,40.7z M127.4,68.4c0,3.3,4,3.3,4,0l0,0v-26l0,0c0-3.6-4-3.6-4,0l0,0V68.4z"/>
<path class="st1" d="M208.4,91.2c0.1-1.1,1.1-1.9,2.2-1.8c1.1,0.1,1.9,1.1,1.8,2.2c-0.1,1-0.9,1.8-2,1.8
	C209.2,93.3,208.3,92.3,208.4,91.2z M212,91.2c0-0.9-0.8-1.5-1.6-1.5c-0.9,0-1.5,0.8-1.5,1.6c0,0.8,0.7,1.5,1.6,1.5
	C211.3,92.8,212,92.1,212,91.2C212,91.2,212,91.2,212,91.2z M211.4,92.3h-0.5l-0.5-1h-0.3v1h-0.5V90h1c0.5,0,0.8,0.1,0.8,0.7
	c0,0.3-0.2,0.6-0.5,0.6c0,0-0.1,0-0.1,0l0,0L211.4,92.3L211.4,92.3z M210.6,91c0.2,0,0.4-0.1,0.4-0.3s-0.3-0.2-0.5-0.2h-0.5V91
	L210.6,91z"/>
<path class="st7" d="M212.9,86.9c1.7-0.2,3.2,1.1,3.3,2.7c0.2,1.7-1.1,3.2-2.7,3.3s-3.2-1.1-3.3-2.7c0-0.1,0-0.2,0-0.3
	C210.1,88.3,211.3,87,212.9,86.9z"/>
<path class="st0" d="M211.4,91.7l0.7-3.6h0.8c0.4,0,0.7,0.1,1,0.3c0.2,0.2,0.4,0.5,0.3,0.8c0,0.3-0.1,0.6-0.3,0.8
	c-0.2,0.2-0.6,0.4-0.9,0.4l0.7,1.3h-0.4l-0.8-1.6h0.1c0.3,0,0.6-0.1,0.9-0.2c0.2-0.2,0.3-0.4,0.3-0.7c0-0.1,0-0.2-0.1-0.3
	c0-0.1-0.1-0.2-0.2-0.2c-0.1-0.1-0.2-0.1-0.3-0.1c-0.2,0-0.4,0-0.6,0h-0.3l-0.6,3.2L211.4,91.7z"/>
</svg>
