<?xml version="1.0" encoding="utf-8"?>
<!-- Generator: Adobe Illustrator 21.1.0, SVG Export Plug-In . SVG Version: 6.00 Build 0)  -->
<svg version="1.1" id="Layer_1" xmlns="http://www.w3.org/2000/svg" xmlns:xlink="http://www.w3.org/1999/xlink" x="0px" y="0px"
	 viewBox="0 0 201 81.4" style="enable-background:new 0 0 201 81.4;" xml:space="preserve">
<style type="text/css">
	.st0{fill:#005230;}
	.st1{fill:#F8E09B;}
	.st2{fill:#B32119;}
	.st3{fill:#FDFDFD;}
	.st4{fill:#101C13;}
	.st5{fill:#FDFDFC;}
	.st6{fill:#FADF9A;}
	.st7{fill:#131E14;}
	.st8{fill:#F6FAF9;}
	.st9{fill:#F5F9F8;}
	.st10{fill:#F7FAFA;}
	.st11{fill:#B22119;}
</style>
<title>Midscale</title>
<path class="st0" d="M103.9,0c1.5,0,3.7,0.1,5.9,0.2c4.4,0.2,8.8,0.4,13.2,0.6c2.9,0.1,5.7,0.3,8.5,0.4l10.9,0.6
	c3,0.2,5.9,0.3,8.9,0.5c3.2,0.2,6.4,0.4,9.6,0.6c2.7,0.2,5.3,0.4,8,0.6c3.1,0.3,6.2,0.5,9.3,0.8c2.3,0.2,4.6,0.4,6.8,0.7
	c2.6,0.3,5.2,0.5,7.8,1c1.3,0.2,2.5,0.7,3.7,1.4c2.3,1.4,3.6,3.8,3.5,6.5c0,1.4-0.1,2.8-0.1,4.2c-0.2,3.7-0.4,7.5-0.7,11.2
	c-0.2,3.7-0.5,7.5-0.8,11.2c-0.2,3.2-0.5,6.4-0.8,9.6c-0.1,1.3-0.2,2.7-0.4,4c-0.2,2.3-1.9,4.3-4.1,4.9c-1.5,0.4-3,0.8-4.5,1.1
	l-25.1,6.1c-9.7,2.4-19.5,4.7-29.2,7c-6.1,1.4-12.1,2.9-18.2,4.2c-4,0.9-7.9,1.7-11.9,2.4c-1.1,0.2-2.2,0.4-3.3,0.5
	c-1.2,0.1-2.5,0-3.7-0.3c-6.3-1-12.5-2.4-18.7-3.8c-12-2.7-23.9-5.6-35.8-8.5c-8.5-2.1-17-4.1-25.5-6.2l-9.4-2.3l-0.3-0.1
	c-2.6-0.5-4.5-2.8-4.6-5.5c-0.4-3.6-0.7-7.2-0.9-10.9c-0.3-4.3-0.6-8.7-0.9-13.1c-0.3-5-0.7-9.9-0.8-14.9c-0.1-1,0-2.1,0.3-3.1
	C0.8,10,1.9,8.5,3.5,7.5C4.8,6.7,6.2,6.2,7.8,6c2.5-0.4,4.9-0.6,7.4-0.9c2.3-0.3,4.6-0.5,6.9-0.7c1.8-0.2,3.5-0.3,5.3-0.5
	c2.5-0.2,5-0.4,7.5-0.6c2.3-0.2,4.6-0.3,6.8-0.5c2.8-0.2,5.7-0.4,8.5-0.5l6.6-0.4l9.4-0.5l4.3-0.2c4-0.2,8-0.4,12-0.6
	C86.6,0.3,90.8,0.1,95,0C97.7,0,100.4,0,103.9,0z M98.9,3.7c-1.6,0-4.3,0.1-7,0.2C87.7,4,83.6,4.2,79.4,4.4l-5.3,0.3l-9.5,0.5
	c-2.4,0.1-4.7,0.3-7.1,0.4C53.5,5.7,49.3,6,45.2,6.3c-3,0.2-6,0.4-9,0.6c-3.3,0.3-6.7,0.6-10,0.8c-2.5,0.2-4.9,0.4-7.4,0.7
	c-3.2,0.3-6.4,0.7-9.6,1.1c-0.9,0.1-1.8,0.3-2.7,0.6c-1.8,0.5-3,2.2-2.8,4.1c0,2.4,0.2,4.7,0.3,7.1c0.1,2.6,0.3,5.3,0.5,7.9
	c0.2,2.4,0.3,4.9,0.5,7.3c0.2,3.2,0.5,6.3,0.7,9.5c0.2,2.5,0.4,5,0.7,7.6c0,1,0.7,1.8,1.7,2.1L9.4,56l27.9,6.8
	c7.7,1.9,15.3,3.7,23,5.6c8.1,2,16.3,3.9,24.5,5.7c4.3,1,8.7,1.9,13.1,2.6c1.1,0.2,2.3,0.2,3.4,0.1c2-0.3,4-0.6,5.9-1
	c5.4-1.1,10.8-2.3,16.2-3.5c12.1-2.8,24.1-5.7,36.2-8.6l27.8-6.8l4.5-1.1c1-0.2,1.7-1,1.8-2.1c0.3-3,0.6-6,0.8-9
	c0.1-1.6,0.2-3.1,0.4-4.7c0.2-2.4,0.4-4.9,0.5-7.3c0.1-1.8,0.2-3.7,0.4-5.6c0.3-3.7,0.5-7.4,0.6-11.2c0-0.8,0.1-1.5,0-2.3
	c0-1.2-0.7-2.3-1.7-2.9c-0.6-0.4-1.3-0.7-2-0.8c-1.2-0.3-2.5-0.5-3.8-0.6c-2.1-0.3-4.1-0.5-6.2-0.7c-2.1-0.2-4.1-0.4-6-0.6
	c-1.8-0.2-3.6-0.3-5.4-0.5c-2.6-0.2-5.1-0.4-7.7-0.6c-1.8-0.1-3.6-0.3-5.4-0.4L149.7,6L143,5.5L133.6,5l-5-0.3
	c-3.4-0.2-6.7-0.3-10-0.5c-2.3-0.1-4.5-0.2-6.7-0.3C107.9,3.8,104,3.7,98.9,3.7L98.9,3.7z"/>
<path class="st1" d="M98.9,3.7c5.1,0,9,0.2,13,0.3c2.3,0.1,4.5,0.2,6.7,0.3c3.4,0.2,6.7,0.3,10,0.5l5,0.3l9.4,0.5l6.7,0.4l8.3,0.5
	c1.8,0.1,3.6,0.2,5.4,0.4c2.6,0.2,5.2,0.4,7.7,0.6c1.8,0.2,3.6,0.3,5.4,0.5c2,0.2,4,0.4,6,0.6c2,0.2,4.1,0.5,6.2,0.7
	c1.3,0.1,2.5,0.3,3.8,0.6c0.7,0.2,1.4,0.4,2,0.8c1,0.6,1.7,1.7,1.7,2.9c0,0.8,0,1.5,0,2.3c-0.2,3.7-0.4,7.4-0.6,11.2
	c-0.1,1.8-0.2,3.7-0.4,5.6c-0.2,2.4-0.3,4.9-0.5,7.3c-0.1,1.6-0.2,3.1-0.4,4.7c-0.2,3-0.5,6-0.8,9c0,1-0.8,1.9-1.8,2.1l-4.5,1.1
	l-27.8,6.8c-12,2.9-24.1,5.9-36.2,8.6c-5.4,1.2-10.8,2.5-16.2,3.5c-2,0.4-3.9,0.8-5.9,1c-1.1,0.1-2.3,0.1-3.4-0.1
	C93.4,75.9,89,75,84.7,74c-8.2-1.8-16.3-3.7-24.5-5.7c-7.7-1.8-15.3-3.7-23-5.6L9.3,56L8,55.6c-1-0.2-1.7-1.1-1.7-2.1
	c-0.3-2.5-0.5-5-0.7-7.6c-0.2-3.2-0.5-6.3-0.7-9.5c-0.2-2.4-0.3-4.9-0.5-7.3c-0.2-2.6-0.4-5.3-0.5-7.9c-0.1-2.4-0.3-4.7-0.3-7.1
	c-0.2-1.9,1-3.6,2.8-4.1c0.9-0.3,1.8-0.5,2.7-0.6c3.2-0.4,6.4-0.8,9.6-1.1c2.5-0.3,4.9-0.5,7.4-0.7c3.3-0.3,6.7-0.6,10-0.8
	c3-0.2,6-0.4,9-0.6c4.1-0.3,8.3-0.5,12.4-0.8c2.4-0.1,4.7-0.3,7.1-0.4L74,4.6l5.3-0.3c4.2-0.2,8.3-0.4,12.5-0.5
	C94.6,3.7,97.3,3.6,98.9,3.7z M15.4,49.5c-0.2,0-0.4,0-0.6,0H7.7c-0.5,0-0.5,0-0.4,0.5c0.1,1,0.2,2,0.3,3c0.1,1.2,0.2,1.3,1.4,1.6
	l16.4,4l25.1,6.2c9.1,2.2,18.2,4.4,27.3,6.5c6.2,1.4,12.3,2.8,18.6,3.9c2.2,0.4,4.4,0.5,6.5,0.1c3.8-0.7,7.6-1.5,11.3-2.3
	c6.6-1.4,13.2-3,19.8-4.6c8.6-2.1,17.3-4.1,25.9-6.2c9.1-2.2,18.3-4.5,27.4-6.7l4.1-1c0.6,0,1-0.5,1-1.1c0.1-1.2,0.2-2.4,0.4-3.6
	c0-0.1,0-0.2-0.1-0.3c-0.2-0.1-0.4-0.1-0.5-0.1h-73.7v-0.1l1.2-1.2h0.7h71.9c0.6,0,0.6,0,0.6-0.6c0.1-1.1,0.2-2.2,0.3-3.3
	c0.2-2.2,0.4-4.4,0.5-6.6c0.1-1.8,0.3-3.7,0.4-5.6c0.2-2.7,0.4-5.5,0.5-8.2c0.1-1.5,0.2-3,0.3-4.5c0.1-1.8,0.2-3.7,0.2-5.5
	c0.1-1.2-0.6-2.2-1.7-2.6c-0.8-0.3-1.7-0.6-2.6-0.6l-5-0.6c-1.9-0.2-3.8-0.4-5.6-0.6c-1.7-0.2-3.4-0.3-5-0.5
	c-1.9-0.2-3.8-0.4-5.7-0.5c-1.6-0.1-3.2-0.3-4.8-0.4l-7.4-0.5c-1.4-0.1-2.7-0.2-4-0.3L146,6.9l-4.5-0.3l-7.3-0.4l-5-0.3l-8.3-0.4
	c-2-0.1-4-0.2-6-0.3c-3.5-0.2-7-0.3-10.5-0.4c-5.3-0.1-10.6,0-16,0.2l-2.8,0.1l-9.3,0.4l-5,0.3l-7.5,0.4L59,6.6l-7.3,0.4l-4.3,0.2
	l-6.4,0.4l-3.6,0.3L32,8.4c-1.4,0.1-2.9,0.2-4.3,0.4l-6.5,0.6c-1.9,0.2-3.8,0.4-5.8,0.6c-2.1,0.2-4.2,0.5-6.2,0.8
	c-0.9,0.1-1.7,0.3-2.5,0.6c-1.1,0.4-1.8,1.4-1.7,2.5c0,0.2,0,0.4,0,0.6c0,2.2,0.2,4.4,0.3,6.6c0.1,1.3,0.1,2.7,0.2,4
	c0.1,2.1,0.3,4.3,0.4,6.4C6,33.2,6.1,35,6.3,36.7c0.2,2.4,0.4,4.7,0.5,7.1c0.1,1.4,0.2,2.7,0.3,4.1c0,0.3,0.1,0.4,0.4,0.4
	s0.8,0,1.2,0l6.2,0C15.2,48.6,15.3,49,15.4,49.5z"/>
<path class="st2" d="M15,48.3H8.8c-0.4,0-0.8,0-1.2,0s-0.4-0.1-0.4-0.4c-0.1-1.4-0.2-2.7-0.3-4.1c-0.2-2.4-0.4-4.7-0.5-7.1
	C6.1,35,6,33.3,5.9,31.6c-0.1-2.1-0.3-4.3-0.4-6.4c-0.1-1.3-0.2-2.7-0.2-4c-0.1-2.2-0.3-4.4-0.3-6.6c0-0.2,0-0.4,0-0.6
	c0-1.1,0.6-2.2,1.7-2.5c0.8-0.3,1.7-0.6,2.5-0.6c2.1-0.3,4.2-0.5,6.2-0.8c1.9-0.2,3.8-0.4,5.8-0.6l6.5-0.6c1.4-0.1,2.9-0.3,4.3-0.4
	L37.3,8l3.6-0.3l6.4-0.5L51.7,7L59,6.6l4.8-0.3L71.3,6l5-0.3l9.3-0.4l2.9-0.1c5.3-0.2,10.6-0.4,16-0.2c3.5,0.1,7,0.2,10.5,0.4
	c2,0.1,4,0.2,6,0.3l8.3,0.4l5,0.3l7.2,0.4l4.5,0.3l7.1,0.4c1.4,0.1,2.7,0.2,4,0.3l7.4,0.5c1.6,0.1,3.2,0.2,4.8,0.4
	c1.9,0.2,3.8,0.3,5.7,0.5c1.7,0.2,3.4,0.3,5,0.5c1.9,0.2,3.8,0.4,5.6,0.6l5,0.6c0.9,0.1,1.8,0.3,2.6,0.6c1.1,0.4,1.8,1.5,1.7,2.6
	c0,1.8-0.1,3.7-0.2,5.5c-0.1,1.5-0.2,3-0.3,4.5c-0.2,2.7-0.4,5.5-0.5,8.2c-0.1,1.8-0.2,3.7-0.4,5.6c-0.2,2.2-0.3,4.4-0.5,6.6
	c-0.1,1.1-0.2,2.2-0.3,3.3c0,0.6,0,0.6-0.6,0.6h-71.9h-0.7c0.1-0.1,0.1-0.2,0.1-0.2c0.9-1.1,1.6-2.4,2.1-3.7c1-2.6,1.5-5.4,1.5-8.2
	c0.2-3,0.1-6-0.3-9c-0.1-0.7-0.3-1.3-0.7-1.9c-0.1-0.2-0.2-0.4-0.5-0.3l0,0c0-0.2-0.1-0.2-0.2-0.3c-0.4-0.6-1-1-1.7-1.2
	c-0.7-0.2-1.5-0.2-2.2-0.1c-1,0.2-1.8,1.1-2,2.1c-0.1,1-0.1,1.9-0.1,2.9c0,1.2-0.1,2.4-0.4,3.6c-0.5,1.9-2.1,3.3-4,3.7
	c-1.2,0.1-2.5-0.2-3.4-1.1c0-0.2-0.2-0.3-0.3-0.3l0,0c0-0.1,0-0.2-0.1-0.2l0,0c0-0.2,0-0.3-0.1-0.5c-0.7-1.3-1-2.8-1-4.3
	c0-0.8,0-1.7,0.1-2.5c0.1-1,0.2-2.1,0.5-3.1c0.3-1.3,1-2.4,2-3.2c1-0.7,2.2-1,3.4-0.7c0.8,0.2,1.5,0.6,2.1,1c0.6,0.3,1.1,0.7,1.7,1
	c0.2,0.2,0.5,0.3,0.9,0.2c0.2-0.1,0.5,0,0.7-0.1c0.6,0,1.2-0.3,1.7-0.6c0.7-0.6,1.3-1.4,1.6-2.3c0.2-0.4,0.2-0.8,0-1.2
	c-0.3-0.9-0.9-1.7-1.6-2.3c-1.6-1.7-3.7-2.9-6.1-3.1c-1.7-0.2-3.4-0.2-5.1,0.2c-2,0.4-3.9,1.4-5.4,2.8c-2.1,2-3.6,4.6-4.1,7.5
	c-0.6,2.8-0.7,5.7-0.2,8.6c0.4,2.8,1.8,5.5,3.9,7.4l0.8,0.7c0,0.1,0.1,0.1,0.1,0.1l0,0l0,0c0.1,0.4,0.5,0.6,0.9,0.8
	c1.1,0.7,2.3,1.2,3.5,1.6c1.9,0.5,4,0.5,5.9,0c0.4-0.1,0.8-0.2,1.1-0.3c-0.2,0.9-0.7,1.7-1.5,2.2c-1.2,0.9-2.7,1.3-4.2,1.2
	c-1.6-0.1-3.2-0.7-4.5-1.6c-0.3-0.2-0.7-0.5-1-0.7c-0.3-0.2-0.7-0.4-1.1-0.5c-0.2-0.1-0.5-0.1-0.8,0.1c-0.5,0.3-0.8,0.7-0.9,1.2
	c-0.1,0.4-0.2,0.9-0.3,1.4c-0.1,0.4-0.1,0.8,0,1.2c0.2,0.7,0.5,1.3,0.9,1.9H64.7l-0.2-2.4c0-0.4,0-0.9,0.1-1.3
	c0.1-0.4,0.2-0.4,0.6-0.4c0.8,0.1,1.6,0.2,2.3,0.1c1.2,0,2.4-0.4,3.4-1c1.4-1,2.6-2.4,3.2-4c0.3-0.6,0.5-1.3,0.7-1.9
	c0,0.2,0,0.3,0,0.4c0,1,0.3,2,0.8,2.9c0.4,0.6,0.9,1.2,1.4,1.6l0.1,0.1l0,0l0,0c0,0.1,0.1,0.2,0.2,0.2l0,0c0,0.1,0,0.1,0.1,0.1
	c0,0,0,0,0,0l0,0c0,0.2,0.1,0.2,0.2,0.3c0.3,0.2,0.7,0.4,1.1,0.6c0.9,0.4,2,0.7,3,0.7c1.1,0.2,2.3,0,3.3-0.5
	c0.7-0.4,1.5-0.6,2.3-0.5l0.3,0.1c0.1,0.4,0.5,0.7,0.9,0.8c1.2,0.3,2.4,0,3.4-0.6c0.3-0.2,0.6-0.5,0.8-0.9c0.3-0.6,0.5-1.2,0.6-1.9
	c0.1-1.4,0.2-2.9,0.2-4.3c0.1-2.6,0-5.2-0.3-7.8c-0.1-1.1-0.5-2.1-1.2-3.1c-0.2-0.3-0.3-0.6-0.7-0.7l0,0c0-0.1-0.1-0.2-0.2-0.2
	l-0.4-0.4c-0.4-0.5-0.9-0.8-1.4-1.1c-1.2-0.5-2.6-0.8-3.9-0.8c-2.5-0.1-4.9,0.6-7,1.9c-0.7,0.5-1.3,1.2-1.5,2
	c-0.3,0.7-0.1,1.6,0.4,2.2c0.2,0.3,0.5,0.5,0.7,0.7c0.4,0.7,1.3,1.1,2.1,0.8c0.9-0.3,1.9-0.7,2.7-1.2c0.8-0.5,1.7-0.7,2.7-0.7
	c0.2,0.3-0.1,0.5-0.3,0.6c-1.1,0.6-2.2,1.1-3.4,1.5c-1.3,0.5-2.5,1-3.7,1.7c-0.9,0.5-1.6,1.2-2.3,2c-0.4,0.5-0.7,1.1-0.9,1.7
	c-0.1-0.3,0.1-0.5,0.1-0.8c0.1-2.2-0.1-4.3-0.7-6.4c-0.2-0.7-0.6-1.4-1.1-2c-0.2-0.3-0.3-0.7-0.7-0.8l0,0c0-0.2-0.1-0.3-0.2-0.3
	c-0.4-0.5-0.9-1-1.5-1.4c-1.7-1.1-3.7-1.6-5.7-1.5c-2.3,0.2-4.4,0.9-6.3,2.1c-0.2,0.1-0.4,0.4-0.5,0.7c-0.7,3-1.1,6-1.2,9
	c-0.1,2.5-0.1,5.1,0,7.6c0.1,2.1,0.2,4.2,0.3,6.3H23.2c-0.1-0.8-0.1-1.7-0.2-2.5c-0.2-1.7-0.2-3.4-0.3-5.1c0-0.9,0.1-1.7,0.1-2.6
	c0-0.6,0.3-0.8,0.9-0.5c0.2,0.1,0.4,0.3,0.7,0.4c1.4,0.6,2.8,0.9,4.3,1c1.4,0,2.7-0.3,4-0.8c1.5-0.6,2.8-1.5,3.9-2.6
	c1.5-1.6,2.5-3.6,3.1-5.8c0.2-0.7,0.3-1.4,0.5-2.1c0.1,0.1,0.2,0.3,0.3,0.5c0.3,0.4,0.7,0.7,1.1,0.9c0,0.2,0,0.3,0.2,0.4
	c0.3,0.3,0.7,0.4,1.1,0.5c0.5,0,1-0.1,1.4-0.4c0.7-0.3,1.4-0.7,2.1-1.1c0.8-0.4,1.6-0.7,2.5-0.6c0.1,0.3-0.1,0.4-0.2,0.5
	c-0.6,0.4-1.3,0.8-2,1.1c-0.9,0.3-1.9,0.7-2.8,1c-1.3,0.4-2.6,1.2-3.6,2.1c-2.6,2.3-2.8,6.2-0.5,8.8c0.3,0.3,0.6,0.6,0.9,0.9
	c0,0.1,0.1,0.1,0.1,0.1l0,0l0,0c0,0.1,0.1,0.2,0.2,0.2l0,0c0,0.1,0,0.2,0.1,0.3c0.3,0.2,0.6,0.5,1,0.6c2.4,1,5,1,7.3-0.2
	c0.2-0.1,0.5-0.1,0.8,0c0.7,0.4,1.5,0.7,2.3,0.8c2,0.3,3.9-1,4.2-3c0-0.1,0-0.2,0-0.3c0.1-1.6,0.2-3.2,0.2-4.8c0-1.4,0-2.9-0.1-4.3
	c-0.1-1.4-0.3-2.7-0.5-4c-0.2-1-0.6-1.9-1.3-2.7C55,25,54.9,25,54.8,25l0,0c0-0.2-0.2-0.3-0.3-0.4L53.9,24c-0.6-0.6-1.2-1-2-1.2
	c-3.1-0.9-6.4-0.5-9.2,1c-1,0.5-1.9,1.3-2.4,2.4c-0.1-0.2-0.1-0.4-0.1-0.7c0-1.6-0.2-3.2-0.8-4.7c-0.3-1.1-0.8-2.1-1.5-3
	c-0.2-0.5-0.6-0.9-1-1.2l0,0c0-0.2-0.2-0.4-0.4-0.5c-0.1-0.1-0.1-0.1-0.2-0.2c-1.6-2-3.8-3.4-6.3-4.1c-2.6-0.7-5.4-1-8.1-0.6
	c-3.3,0.4-6.5,1.7-9.1,3.7c-1.1,0.8-2,1.8-2.7,2.9c-0.1,0.2-0.2,0.5-0.2,0.8C10,20,10.6,21.3,11.7,22c0,0.1,0,0.3,0.2,0.3
	c0.3,0.3,0.7,0.5,1.1,0.6c0.9,0.3,1.9,0.2,2.7-0.4c0.2-0.1,0.3-0.3,0.5-0.2c0,0.2,0,0.3-0.1,0.4c-0.8,3.4-1.3,6.9-1.5,10.4
	c-0.2,3-0.3,6.1-0.2,9.2C14.4,44.3,14.6,46.3,15,48.3z M154.9,41.9c0,0.1,0.1,0.1,0.1,0.1l0,0l0,0c0,0.1,0.1,0.2,0.2,0.2l0,0
	c0.1,0.5,0.5,0.6,0.9,0.8c0.1,0.1,0.2,0.1,0.3,0.2c2.4,1.6,5.3,2,8.1,1.2c1.8-0.5,3.3-1.5,4.4-3c1.2-1.6,1.9-3.5,2.1-5.6
	c0.1-1.3,0.2-2.5,0.1-3.8c0-0.5-0.1-1.1-0.2-1.6c-0.2-1.2-0.7-2.3-1.4-3.2c-0.2-0.4-0.5-0.7-0.8-0.9l-0.3-0.4c-0.9-1.1-2-2-3.3-2.6
	c-1.8-0.8-3.8-1-5.7-0.8c-2.1,0.3-4,1.3-5.4,2.8c-1.2,1.3-2.1,2.9-2.4,4.6c-0.2,1-0.3,2-0.3,3c0-0.1-0.1-0.1-0.1-0.2
	c-0.1-1.6-0.4-3.2-0.8-4.8c-0.3-0.9-0.7-1.8-1.4-2.5c-0.1-0.1-0.1-0.1-0.2-0.1l0,0c0-0.2-0.1-0.3-0.3-0.3l-0.2-0.2
	c-1.1-1.4-2.9-2.1-4.6-1.9c-1.2,0.1-2.3,0.5-3.3,1.2c-0.1,0.1-0.3,0.2-0.4,0.3l-0.6-0.5c-1.3-1.3-3.4-1.3-4.8-0.2
	c-0.5,0.4-0.8,0.9-0.9,1.6c-0.3,1.9-0.6,3.8-0.7,5.8c-0.2,1.8-0.2,3.6,0,5.4c0.1,0.7,0.1,1.5,0.2,2.2c0.1,1.2,0.3,2.4,0.8,3.6
	c0.2,0.5,0.5,1,1.1,1.2c0,0.2,0.1,0.3,0.2,0.4c0.9,0.7,2.2,1,3.3,0.8c1.2-0.3,2-1.4,2-2.6c-0.1-0.7-0.1-1.4-0.1-2.1
	c-0.1-1.5-0.2-2.9-0.3-4.4c-0.1-1.5,0-3,0.2-4.4c0-0.5,0.2-0.9,0.5-1.2c0.5-0.6,1.4-0.8,2.1-0.7c0.3,0.3,0.5,0.7,0.6,1.1
	c0.2,0.7,0.3,1.4,0.3,2.1c0,0.7,0,1.4,0,2.1c0.1,0.9,0.1,1.8-0.1,2.7c-0.2,1-0.4,2.1-0.5,3.2c-0.2,1.3,0.4,2.6,1.5,3.3
	c0.2,0.4,0.5,0.7,1,0.8c0.9,0.3,1.9,0.2,2.7-0.2c0.6-0.2,1.1-0.7,1.3-1.3c0.8-2.1,1.2-4.3,1.4-6.5c0-0.5,0.1-1,0.1-1.6
	c0.1,0.1,0.1,0.3,0.1,0.4c0.2,2.1,1.1,4,2.5,5.6c0.3,0.3,0.6,0.6,0.9,0.9L154.9,41.9L154.9,41.9z M132.1,15.5L132.1,15.5l-0.1-0.1
	c-0.1-0.1-0.2-0.3-0.3-0.4c-0.9-1-2.2-1.5-3.5-1.3c-0.9,0.1-1.7,0.6-2.3,1.3c-1.1,1.7-1.3,3.8,0.8,5.3l0,0c0,0.2,0.2,0.3,0.3,0.4
	c0.7,0.6,1.6,0.9,2.5,0.9c1.6,0.1,3-0.9,3.5-2.4c0.4-0.8,0.4-1.8,0.1-2.6c-0.2-0.4-0.4-0.9-0.9-1.1l0,0L132.1,15.5z M174.4,33.5
	L174.4,33.5c0,0.1,0.1,0.3,0.2,0.3c0.3,0.3,0.7,0.5,1,0.7c0.7,0.4,1.5,0.7,2.4,0.9l3.6,0.9c0.3,0.6,0.2,1-0.2,1.3
	c-0.5,0.4-1.2,0.6-1.9,0.5c-0.6-0.1-1.3-0.4-1.8-0.7c-0.6-0.3-1.2-0.6-1.8-0.9c-0.6-0.2-1.3-0.3-1.9-0.1c-1.5,0.5-2.4,2.1-1.9,3.7
	c0,0,0,0,0,0c0.3,0.7,0.7,1.3,1.3,1.8c0.1,0.1,0.3,0.2,0.4,0.3c0.2,0.5,0.6,0.7,1,0.9c0.2,0.2,0.4,0.3,0.6,0.4
	c1.9,1,4.1,1.4,6.3,1.2c1.5-0.1,2.9-0.6,4.3-1.3c0.5-0.3,1-0.6,1.5-1c0.5-0.5,0.9-1.1,1.1-1.8c0.9-2,0.8-4.3-0.3-6.3
	c-0.2-0.3-0.3-0.7-0.7-0.8l0,0c0-0.1-0.1-0.2-0.2-0.2c-0.8-1-1.8-1.7-2.9-2.1c-0.7-0.3-1.4-0.5-2.2-0.7c-1-0.3-2-0.5-3-0.8v-0.3
	c-0.1-0.5,0.3-1,0.9-1.1c0,0,0.1,0,0.1,0c0.4-0.1,0.8-0.1,1.2,0c0.8,0.2,1.7,0.5,2.5,0.8c0.9,0.4,1.8,0.5,2.7,0.2
	c0.6-0.2,1-0.6,1.3-1.1c0.7-1.2,0.4-2.7-0.8-3.6c-0.5-0.6-1.1-1.1-1.8-1.4c-2.3-1.1-4.9-1.5-7.4-0.9c-0.8,0.2-1.6,0.5-2.4,0.8
	c0-0.3,0.3-0.3,0.4-0.4c1.8-1.2,3.5-2.4,5.3-3.6c0.3-0.2,0.4-0.4,0.4-0.7c0.1-0.5-0.2-1-0.7-1.2l0,0c0-0.1-0.1-0.2-0.2-0.2
	c-0.3-0.3-0.6-0.7-0.9-1.1c-2.4-2.5-5.6-4.1-9-4.4c-0.4-0.1-0.8-0.1-1.2,0c-0.5,0.1-0.7,0.3-0.7,0.9s0,1,0,1.5
	c0,3.4-0.1,6.8-0.1,10.2c0,0.4,0.1,0.9,0.2,1.3c0,0.2,0.1,0.3,0.3,0.3h0.3c0,0.1,0,0.2,0,0.3c0.1,0.4,0.2,0.5,0.6,0.4
	c0.3-0.1,0.5-0.2,0.7-0.3c0.8-0.5,1.5-1.1,2.3-1.6c0.1-0.1,0.3-0.3,0.5-0.2c-0.5,0.5-1,1.1-1.3,1.7c-1.2,2.5-0.5,5.5,1.6,7.3
	C174.2,33.5,174.3,33.5,174.4,33.5L174.4,33.5z M131,24.4c-0.3-0.5-0.7-0.8-1.2-1c-1.2-0.5-2.5-0.3-3.6,0.3
	c-0.3,0.2-0.5,0.4-0.6,0.8c-0.6,1.5-0.9,3.1-1,4.7c-0.2,2.8-0.2,5.5,0,8.3c0.1,0.9,0.1,1.8,0.1,2.7c-0.1,1.3,0.5,2.5,1.6,3.2
	c0,0.3,0.3,0.4,0.5,0.6c0.7,0.5,1.4,0.7,2.2,0.8c1.4,0.2,2.8-0.8,3-2.2c0-0.2,0-0.3,0-0.5c0-2.3-0.1-4.6-0.1-6.8
	c0-2.9-0.1-5.7,0.1-8.6C132.1,25.7,131.7,24.8,131,24.4L131,24.4z M187.9,18.7c0-1.3-1-2.5-2.3-2.5c0,0,0,0-0.1,0
	c-1.4,0-2.5,1.1-2.5,2.5s1.1,2.5,2.5,2.5C186.8,21.2,187.9,20,187.9,18.7C187.9,18.7,187.9,18.7,187.9,18.7L187.9,18.7z"/>
<path class="st0" d="M192.7,49.6c0.1,0.1,0.1,0.2,0.1,0.3c-0.1,1.2-0.3,2.4-0.4,3.6c0,0.6-0.4,1-1,1.1l-4.1,1
	c-9.1,2.2-18.2,4.5-27.3,6.7c-8.6,2.1-17.2,4.2-25.9,6.2c-6.6,1.6-13.2,3.1-19.8,4.6c-3.8,0.8-7.5,1.6-11.3,2.3
	c-2.2,0.4-4.4,0.3-6.5-0.1c-6.2-1.1-12.4-2.5-18.6-3.9c-9.1-2.1-18.2-4.3-27.3-6.5l-25.2-6.1L9,54.7c-1.2-0.3-1.3-0.4-1.4-1.6
	c-0.1-1-0.2-2-0.3-3c0-0.5,0-0.5,0.4-0.5h7c0.2,0,0.4,0,0.6,0l0,0l0.1,0.1c0.2,0.3,0.4,0.5,0.7,0.7c0.1,0.1,0.2,0.2,0.3,0.2l0,0
	c0,0.2,0.1,0.3,0.2,0.4c0.3,0.2,0.7,0.4,1.1,0.5c0.7,0.2,1.5,0.2,2.3,0.1c1.1,0,2.2-0.7,2.7-1.7c0.1-0.2,0.2-0.3,0.4-0.3h34.5
	c0.3,0.5,0.7,0.9,1.1,1.2c0,0.1,0.1,0.2,0.2,0.1l0,0c0,0.3,0.2,0.4,0.4,0.5c0.7,0.4,1.5,0.6,2.3,0.6c1.3,0,2.4-0.8,2.7-2
	c0-0.2,0.2-0.4,0.5-0.4c0,0,0,0,0,0H102c0.2,0,0.5,0.1,0.7-0.1v-0.1l0.1,0.1c0,0.2,0.2,0.3,0.4,0.2l0,0c0,0.2,0.2,0.3,0.3,0.2l0,0
	c0,0.2,0.1,0.3,0.3,0.4c0.6,0.4,1.2,0.7,1.9,1c1.4,0.5,2.8,0.8,4.3,0.9c1.2,0,2.4-0.1,3.6-0.4c1.6-0.3,3-1,4.3-1.9
	c0.3-0.2,0.6-0.3,1-0.3h73.9L192.7,49.6z M99,72.7c-0.6-0.1-1-0.5-1.3-0.9c-0.4-0.5-0.7-1.1-0.9-1.6c0-0.1-0.1-0.2-0.1-0.3
	c-0.1-0.1-0.2-0.2-0.4-0.2c-0.2,0.1-0.1,0.2-0.1,0.3s0.2,0.4,0,0.6c-0.2,0-0.4-0.1-0.6-0.2c-0.5-0.3-1-0.6-1.5-0.9
	c-0.2-0.1-0.4-0.3-0.5-0.1s0.1,0.3,0.2,0.5c0.6,0.7,1.4,1.3,2.1,1.9c0.9,0.6,1.8,1.1,2.8,1.3c0.9,0.3,1.8,0.1,2.5-0.5
	c0.1-0.1,0.3-0.3,0.3-0.4c0.2-0.8,0.4-1.5,0.8-2.2c0-0.1,0-0.2-0.1-0.3c-0.1-0.1-0.2-0.1-0.3,0c-0.2,0.1-0.3,0.3-0.4,0.4
	c-0.3,0.2-0.4,0.2-0.6,0c-0.2-0.3-0.4-0.6-0.5-0.9c-0.1-0.3-0.1-0.6-0.1-0.9s-0.1-0.4-0.4-0.3s-0.3,0.2-0.3,0.4s0,0.5,0,0.8
	c0,0.4-0.1,0.7-0.3,1c-0.3,0.4-0.5,0.4-0.8,0c-0.1-0.2-0.3-0.3-0.5-0.4c-0.1,0-0.2,0-0.3,0c-0.1,0.1-0.1,0.2,0,0.3
	c0.1,0.5,0.3,0.9,0.4,1.4c0.1,0.6,0.5,1.2,1.1,1.6L99,72.7z M118.4,58.5c0-0.2,0-0.3,0-0.5c0-1.1,0.1-2.2,0.1-3.3
	c0-0.5-0.2-0.6-0.7-0.7c-0.2,0-0.5,0-0.7,0.1c-0.2,0-0.3,0.2-0.3,0.4c0,0,0,0,0,0c0.1,2.7,0,5.4-0.2,8.1c0,0.8-0.1,1.6-0.1,2.4
	s0.3,0.9,1,0.9h0.3c0.3,0.1,0.5-0.1,0.6-0.4c0,0,0,0,0-0.1c0.1-0.9,0.1-1.7,0-2.6c0-0.2,0-0.5,0-0.7l0,0l0,0v-3.6l0,0L118.4,58.5z
	 M87.9,58.5c-0.2,0.4-0.4,0.8-0.6,1.1s-0.3,0.7-0.6,1.1c-0.4,0.7-0.8,1.4-1.1,2.1c-0.3,0.7-0.9,1.3-0.9,2.1c-0.3,0.1-0.1,0.3,0,0.3
	c0.2,0.3,0.6,0.6,1,0.6c1.3,0,2.7,0,4,0c0.6,0,1.1-0.4,1.2-1c0.1-0.3,0-0.7-0.4-0.8c-0.1-0.1-0.3-0.1-0.4,0
	c-0.3,0.1-0.6,0.1-0.9,0.1h-2.4c-0.1-0.1,0-0.2,0-0.3c0.6-1.2,1.2-2.4,1.9-3.6c0.4-0.7,0.8-1.4,1.2-2.2c0.5-0.9,0.9-1.8,1.3-2.7
	c0.2-0.3,0.1-0.7-0.1-0.9c-0.1-0.1-0.2-0.1-0.4-0.1c-0.2-0.1-0.5-0.1-0.7-0.1c-1.3,0.1-2.5,0.1-3.8,0.1c-0.2,0-0.4,0-0.6-0.1
	c-0.3-0.1-0.7,0.1-0.7,0.4c0,0,0,0,0,0c0,0.3-0.1,0.5-0.1,0.8c0,0.3,0.1,0.4,0.4,0.4s0.6,0,1,0l2.3-0.1c0.2,0,0.3,0,0.3,0.3
	s0.2,0.2-0.1,0.3s-0.2,0.3-0.2,0.4c0,0.4-0.3,0.8-0.4,1.1C88.1,58.1,88,58.2,87.9,58.5L87.9,58.5z M98.7,56.8c0.3-0.5,0.5-1,0.8-1.5
	c0.1-0.1,0.1-0.2,0.1-0.4c0-0.4-0.1-0.5-0.4-0.6c-0.3-0.1-0.5-0.1-0.8-0.1c-1,0-2.1,0.1-3.1,0.1c-0.5,0.1-1,0.1-1.5,0
	c-0.2-0.1-0.6,0.2-0.6,0.5c0,0.1,0,0.3,0,0.4c0,0.6,0.1,0.8,0.8,0.7l2.9-0.1c0.2,0,0.4,0,0.6,0.1c-0.3,0.4-0.5,0.9-0.7,1.3
	c-1.3,2.3-2.6,4.7-3.8,7.1c-0.1,0.2-0.2,0.3-0.2,0.5c-0.1,0.4,0.1,0.8,0.5,1c0.1,0,0.1,0,0.2,0c0.3,0.1,0.7,0.1,1,0
	c0.3-0.1,0.7-0.1,1,0c0.1,0.1,0.3,0.1,0.4,0c0.4-0.1,0.9-0.1,1.3-0.1c0.4,0,0.8,0,1.2,0s0.5-0.2,0.6-0.6s0.2-0.8-0.2-1.1
	C98.5,64,98.4,64,98.2,64c-0.3,0-0.5,0.1-0.8,0.1c-0.7,0.2-1.5,0.3-2.3,0.2c-0.3,0-0.4-0.1-0.3-0.4s0.3-0.8,0.6-1.2
	c0.9-1.7,1.8-3.3,2.7-5c0.1-0.1,0.1-0.2,0.1-0.3C98.5,57.3,98.6,57,98.7,56.8L98.7,56.8z M104.2,54.4c-0.8,0-1.5,0-2.2,0
	s-0.9,0.3-0.9,1c0,0.9,0.1,1.8,0,2.8c-0.1,1.2-0.1,2.3-0.1,3.5s0,2.1-0.1,3.2c-0.1,0.7,0.3,1,1,1c0.2,0,0.5,0,0.7,0
	c0.7,0.1,1.3,0.1,2,0.1c0.5-0.1,1-0.1,1.6,0c0.1,0,0.3,0,0.4,0c0.3,0,0.4-0.2,0.5-0.6s0.2-0.8-0.2-1c-0.1-0.1-0.2-0.1-0.3-0.1
	c-0.2,0-0.4,0-0.6,0c-1,0-1.9,0-2.9,0c-0.6,0-0.7-0.1-0.6-0.6c0-0.8,0-1.6,0.1-2.4c0-0.4,0.1-0.5,0.6-0.5c0.8,0.1,1.7,0,2.5,0.1
	s1-0.2,1-1c0-0.3-0.2-0.6-0.5-0.6c-0.2,0-0.3-0.1-0.5-0.1c-0.6,0.1-1.2,0-1.8,0c-0.3,0-0.5,0.1-0.8,0.1s-0.5-0.1-0.5-0.4
	c0-0.8,0-1.7,0-2.5c0-0.4,0.1-0.4,0.4-0.4c0.4,0,0.9,0,1.4,0c0.8,0,1.6,0,2.4-0.1c0.2,0,0.4-0.2,0.4-0.4c0.1-0.2,0.1-0.3,0.1-0.5
	c0-0.4-0.2-0.7-0.6-0.7c0,0-0.1,0-0.1,0C105.8,54.3,105,54.3,104.2,54.4L104.2,54.4z M110.6,54.2L110.6,54.2c-0.4,0-0.8,0-1.2,0
	s-0.4,0.1-0.5,0.5c0,0.1,0,0.2,0,0.3c0.1,1.6,0.2,3.1,0.1,4.7c0,0.7,0,1.4,0,2.1c0.1,1,0.1,2-0.1,3c-0.1,0.7-0.1,0.7,0.6,1
	c0.2,0.1,0.4,0.1,0.6,0c0.2-0.1,0.4-0.1,0.6-0.3c0.2-0.2,0.2-0.5,0.1-0.8c-0.3-1.2-0.5-2.4-0.4-3.6c0-0.5,0.2-0.7,0.7-0.7
	c0.4,0,0.7,0,1.1,0c0.3,0,0.6,0.2,0.7,0.6c0.1,0.4,0.1,0.7,0.2,1.1c0.2,1,0.3,2,0.3,3c0,0.4,0.3,0.8,0.7,0.9c0.3,0.1,0.7,0.1,1-0.2
	c0.3-0.3,0.2-0.6,0.1-0.9c-0.2-0.4-0.3-0.8-0.4-1.2c-0.2-0.9-0.4-1.9-0.5-2.8c-0.2-0.6,0-1.3,0.4-1.8c0.1-0.1,0.2-0.3,0.2-0.4
	c0.3-0.9,0.3-1.8,0.1-2.7c-0.4-0.9-1.2-1.6-2.2-1.8C111.9,54.3,111.2,54.2,110.6,54.2L110.6,54.2z M73.4,63.2c0,0.4,0,1.2,0,1.9
	c0,0.3,0.1,0.5,0.3,0.6c0.3,0.2,0.6,0.5,1,0.1h0.1c0.5-0.1,0.5-0.2,0.5-0.6c0-1-0.2-2.1-0.1-3.1c0-0.2,0-0.5-0.1-0.7
	c-0.1-0.3,0-0.3,0.3-0.3c0.5,0,1,0,1.5,0c1.4,0,2.6-1,2.7-2.4c0.1-0.5,0.1-1.1,0.1-1.6c-0.1-1.5-1.2-2.7-2.7-2.8
	c-0.6,0-1.2,0-1.8-0.1c-0.5,0-1,0.1-1.4,0.3c-0.2,0.1-0.4,0.4-0.4,0.6c0,0.7,0,1.4,0,2.1c-0.1,1.2-0.1,2.4-0.1,3.6
	C73.4,61.4,73.3,62.1,73.4,63.2L73.4,63.2z M125.6,65.8h0.2c0.5-0.1,0.6-0.2,0.6-0.7c0-0.3-0.1-0.6-0.2-0.8c-0.6-3.1-1.4-6.2-2-9.3
	c-0.1-0.8-0.4-1-1.2-1c-0.5-0.1-1.1,0.3-1.1,0.8c0,0,0,0.1,0,0.1c-0.1,0.3,0,0.6-0.1,0.8c-0.3,1.8-0.7,3.5-1,5.3
	c-0.2,0.8-0.4,1.6-0.6,2.3c-0.1,0.6-0.2,1.1-0.4,1.7c-0.1,0.2-0.1,0.4,0,0.6c0,0.3,0.2,0.4,0.5,0.4l0.9-0.1c0.1,0,0.2-0.1,0.3-0.3
	c0.2-0.4,0.3-0.9,0.4-1.4c0.1-0.5,0.2-0.6,0.7-0.6h1.6c0.3,0,0.4,0.1,0.5,0.4c0.1,0.4,0.1,0.8,0.2,1.1
	C124.9,65.6,125,65.7,125.6,65.8L125.6,65.8z M83.1,64.9c0-0.3,0-0.7,0-1c0-1.2,0.1-2.4,0-3.6s0.1-2.5,0.1-3.8c0-0.5,0-0.9,0.1-1.4
	c0-0.3,0-0.6-0.2-0.9C83,54.1,82.9,54,82.7,54c-0.4,0-0.7,0.1-1,0.3c-0.3,0.2-0.1,0.5-0.2,0.8c0,0.1,0,0.1,0,0.2
	c0.1,2.1-0.1,4.2-0.1,6.3c0,1.1,0,2.2-0.1,3.3c-0.1,0.9,0,1,0.9,1.1c0.7,0.1,0.9-0.1,0.9-0.8C83.1,65,83.1,64.9,83.1,64.9L83.1,64.9
	z M103.5,70.9v-0.3c0-0.1,0-0.1,0-0.2c-0.1-0.2-0.2-0.2-0.3,0c0,0.1-0.1,0.1-0.1,0.2c-0.3,1-1,1.9-2,2.3c-0.1,0.1-0.2,0.1-0.2,0.2
	c1.8-0.3,5.2-2.3,5.7-3.5C105.4,69.6,104.6,70.4,103.5,70.9L103.5,70.9z"/>
<path class="st3" d="M16.2,50.3c-0.3-0.2-0.5-0.4-0.7-0.7c0-0.1,0-0.1-0.1-0.1l0,0c-0.1-0.4-0.2-0.8-0.4-1.2
	c-0.4-1.9-0.6-3.9-0.5-5.9c0-3.1,0-6.1,0.2-9.2c0.2-3.5,0.7-7,1.5-10.4c0-0.1,0-0.3,0.1-0.4l0,0c0.1,0,0.1-0.1,0.1-0.1
	c0.4-0.5,1-1,1.6-1.3c0.4-0.2,0.8-0.3,1.1-0.4h0.7c1.1-0.2,2.1,0.3,2.7,1.2c0.3,0.8,0.4,1.7,0.1,2.6c-0.3,1.6-0.3,3.3,0,4.9
	c0,0.6,0.4,1.2,0.9,1.5c0.2,0.1,0.3,0.2,0.5,0.3c1.9,1.2,4.4,0.9,6-0.7c0.6-0.5,1-1.2,1.3-1.9c0.9-1.9,1-4,0.5-6
	c-0.2-1.1-0.8-2.1-1.7-2.9c0.1-0.1,0.1-0.2,0-0.2c-0.1-0.1-0.2-0.1-0.2,0l0,0l0,0c-0.2-0.3-0.5-0.5-0.8-0.7c-1.6-0.9-3.4-1.3-5.2-1
	c-1.7,0.3-3.3,0.8-4.8,1.6c-1.5,0.8-3,1.7-4.4,2.7c-0.2,0.1-0.3,0.2-0.5,0.3c-0.8,0.2-1.7,0.1-2.5-0.3c-1.1-0.7-1.8-1.9-1.6-3.2
	c0-0.3,0.1-0.6,0.2-0.8c0.7-1.1,1.6-2.1,2.6-2.9c2.6-2,5.8-3.3,9.1-3.7c2.7-0.3,5.4-0.1,8.1,0.6c2.5,0.7,4.7,2.1,6.3,4.1
	c0.1,0.1,0.1,0.1,0.2,0.2c0.1,0.2,0.2,0.3,0.4,0.5l0,0l0.9,1.4l0.2,0.4c0.7,1.4,1.2,3,1.4,4.6c0.3,2.7-0.1,5.5-1.2,8
	c-0.7,1.9-2,3.5-3.5,4.8c-3.7,2.7-7.5,3.1-11.6,1l-0.2-0.1c-0.2-0.1-0.5,0-0.7,0.2c0,0.1-0.1,0.2-0.1,0.2c-0.1,0.8-0.1,1.6-0.1,2.4
	c0,2.7,0.3,5.4,0.4,8.1c0.1,1.3-0.7,2.5-1.9,2.9c-0.5,0.2-1.1,0.3-1.6,0.3c-0.8,0-1.6-0.1-2.4-0.4l0,0
	C16.5,50.3,16.3,50.3,16.2,50.3z"/>
<path class="st4" d="M192.7,49.6h-73.9c-0.4,0-0.7,0.1-1,0.3c-1.3,0.9-2.8,1.6-4.3,1.9c-1.2,0.3-2.4,0.4-3.6,0.4
	c-1.5,0-2.9-0.3-4.3-0.9c-0.7-0.3-1.3-0.6-1.9-1c-0.1-0.1-0.3-0.2-0.3-0.4c0.5,0.2,1,0.5,1.5,0.7c2.2,0.9,4.5,1.1,6.8,0.7
	c3.9-0.5,7.3-3,8.9-6.5c1.1-2.3,1.7-4.8,1.9-7.4c0.3-3.1,0.3-6.1,0-9.2c0-1.1-0.2-2.3-0.6-3.4c0.3,0,0.4,0.2,0.5,0.3
	c0.4,0.6,0.6,1.3,0.7,1.9c0.4,3,0.5,6,0.3,9c-0.1,2.8-0.6,5.6-1.5,8.2c-0.5,1.3-1.2,2.6-2.1,3.7c-0.1,0.1-0.1,0.1-0.1,0.2l-1.3,1.2
	v0.1h73.7C192.3,49.5,192.5,49.4,192.7,49.6z"/>
<path class="st3" d="M122,24.8c0.3,1.1,0.5,2.2,0.6,3.4c0.3,3.1,0.3,6.1,0,9.2c-0.2,2.5-0.8,5-1.9,7.4c-1.6,3.6-5,6-8.9,6.5
	c-2.3,0.4-4.7,0.2-6.8-0.7c-0.5-0.2-1-0.5-1.5-0.7l0,0c-0.1-0.1-0.2-0.2-0.3-0.2l0,0c-0.1-0.1-0.2-0.2-0.3-0.2l-0.1-0.1l-1.2-1
	c-0.4-0.6-0.7-1.2-0.9-1.9c-0.1-0.4-0.1-0.8,0-1.2c0.1-0.4,0.2-0.9,0.3-1.4c0.1-0.5,0.5-1,0.9-1.2c0.2-0.1,0.5-0.2,0.8-0.1
	c0.4,0.1,0.7,0.3,1.1,0.5c0.4,0.2,0.7,0.4,1,0.7c1.3,0.9,2.9,1.5,4.5,1.6c1.5,0.1,3-0.3,4.2-1.2c0.8-0.5,1.3-1.3,1.5-2.2
	c0.1-0.1,0.1-0.2,0.1-0.3s0-0.4-0.2-0.5s-0.3-0.1-0.5,0c-2.4,1-5,1.1-7.4,0.4c-1.2-0.3-2.4-0.9-3.5-1.6l0,0l0,0
	c0-0.1-0.1-0.1-0.1-0.1l-0.8-0.7c-2.1-2-3.4-4.6-3.9-7.4c-0.5-2.9-0.4-5.8,0.2-8.6c0.5-2.9,1.9-5.5,4.1-7.5c1.5-1.4,3.3-2.4,5.4-2.8
	c1.7-0.4,3.4-0.5,5.1-0.2c2.3,0.3,4.5,1.4,6.1,3.1c0.3,0.4,0.6,0.9,0.8,1.3c0.3,0.6,0.3,1.2,0,1.8c-0.2,0.4-0.4,0.7-0.6,1.1
	c-0.5,0.7-1.2,1.2-2,1.4c-0.9,0.3-1.9,0.2-2.7-0.4c-0.4-0.3-0.8-0.5-1.3-0.8c-0.4-0.3-0.9-0.5-1.4-0.7c-0.6-0.3-1.3-0.4-2-0.3
	c-1.3,0.2-2.4,0.9-3.1,1.9c-0.4,0.6-0.7,1.3-0.9,2c-0.5,2-0.7,4-0.6,6.1c0,1,0.2,1.9,0.5,2.9c0.3,0.9,0.7,1.6,1.3,2.3l0,0
	c0,0.1,0.1,0.1,0.1,0.2l0,0c0.1,0.1,0.2,0.3,0.3,0.3c1,0.8,2.2,1.2,3.4,1.1c1.9-0.4,3.5-1.8,4-3.7c0.3-1.2,0.4-2.4,0.4-3.6
	c0-1,0-1.9,0.1-2.9c0.2-1,1-1.9,2-2.1c0.7-0.1,1.5-0.1,2.2,0.1c0.7,0.1,1.3,0.5,1.7,1.2C121.9,24.7,121.8,24.8,122,24.8L122,24.8z"
	/>
<path class="st3" d="M59,50.8c-0.5-0.3-0.8-0.7-1.1-1.2c0,0,0-0.1,0-0.1l-0.3-1.2c-0.2-2.1-0.3-4.2-0.3-6.3c-0.1-2.6-0.1-5.1,0-7.6
	c0.2-3,0.6-6,1.2-9c0.1-0.3,0.2-0.5,0.5-0.7c1.9-1.2,4.1-2,6.3-2.1c2-0.1,4,0.4,5.7,1.5c0.6,0.4,1.1,0.9,1.5,1.4
	c0,0.1,0.1,0.3,0.2,0.3l0,0c0.2,0.3,0.3,0.6,0.6,0.9l0.1,0.1c0,0,0,0.1,0.1,0.1c0.1,0.4,0.3,0.7,0.4,1.2c0.6,2.4,0.8,5,0.5,7.5
	c-0.2,2-1,3.9-2.2,5.4c-0.9,1.2-2.2,2-3.6,2.4c-1.3,0.3-2.6,0.3-3.8,0.1c-0.6-0.1-0.6-0.1-0.7,0.5c-0.1,0.7-0.1,1.5,0,2.2
	C64,47,64,47.8,64,48.7c-0.1,1.5-1.4,2.7-2.9,2.6c0,0-0.1,0-0.1,0c-0.6,0-1.3-0.1-1.9-0.3l0,0C59.1,50.8,59,50.8,59,50.8z
	 M64.7,38.3c0.6,0.3,1.4,0.2,1.8-0.3c0.6-0.6,1-1.4,1.2-2.3c0.2-1,0.2-2,0.3-3c0.1-1.1-0.1-2.2-0.4-3.3c-0.1-0.3-0.2-0.6-0.4-0.9
	c-0.4-0.8-1.4-1-2.1-0.6c-0.2,0.1-0.3,0.2-0.4,0.4C64.2,28.8,64,29.4,64,30c0,1.1-0.1,2.1-0.2,3.2c-0.1,1.4-0.1,2.7,0.1,4.1
	C63.9,37.8,64.3,38.2,64.7,38.3z"/>
<path class="st3" d="M40.3,26.1c0.5-1,1.3-1.9,2.4-2.4c2.8-1.5,6.1-1.9,9.2-1c0.8,0.2,1.4,0.6,2,1.2l0.5,0.5
	c0.1,0.2,0.2,0.3,0.3,0.4l0,0c0.3,0.6,0.6,1.2,0.8,1.8c0.3,1.5,0.5,3,0.6,4.5c0.1,3,0,6-0.2,9c-0.1,1.8-1.6,3.2-3.4,3.2
	c-1.1,0-2.1-0.3-3-0.8c-0.3-0.2-0.6-0.2-0.9,0c-1.7,0.8-3.5,1.1-5.4,0.8c-0.8-0.2-1.6-0.4-2.3-0.7l0,0c0-0.1-0.1-0.2-0.2-0.2l0,0
	l0,0c0-0.1-0.1-0.1-0.1-0.1c-2.7-2.1-3.3-6-1.2-8.7c0.3-0.3,0.5-0.6,0.9-0.9c1-1,2.3-1.7,3.6-2.1c0.9-0.3,1.9-0.7,2.8-1
	c0.7-0.3,1.4-0.6,2-1.1c0.2-0.1,0.4-0.3,0.2-0.5c-0.2-0.6-0.3-0.7-0.8-0.8c-0.3,0-0.6,0-0.8,0c-0.7,0.2-1.3,0.4-1.9,0.8
	c-0.7,0.4-1.4,0.7-2.1,1c-0.5,0.2-1.1,0.3-1.7,0.1c-0.5-0.3-0.9-0.7-1.1-1.2c-0.1-0.2-0.1-0.3-0.3-0.5C40.1,27,40.2,26.5,40.3,26.1z
	 M49.3,34.7c0-0.2,0-0.5-0.1-0.7c-0.1-0.2-0.2-0.3-0.4-0.2c-0.5,0.2-1.1,0.4-1.7,0.5c-0.4,0.1-0.8,0.3-1.2,0.5
	c-0.8,0.5-1.2,1.4-1,2.3c0,0.5,0.3,0.9,0.7,1.1c0.7,0.4,1.6,0.4,2.2-0.1c0.5-0.3,1-0.7,1.2-1.3C49.3,36.1,49.4,35.4,49.3,34.7
	L49.3,34.7z"/>
<path class="st3" d="M78.1,29.2c-0.3-0.2-0.5-0.4-0.7-0.7c-0.5-0.6-0.6-1.4-0.4-2.2c0.2-0.8,0.8-1.5,1.5-2c2.1-1.3,4.5-2,7-1.9
	c1.3,0,2.7,0.3,3.9,0.8c0.5,0.3,1,0.6,1.4,1.1l0.4,0.4c0,0.1,0.1,0.2,0.2,0.2l0,0c0.5,0.8,0.8,1.7,1,2.7c0.3,1.9,0.4,3.8,0.4,5.8
	c0,2.2-0.1,4.4-0.3,6.6c0,0.7-0.2,1.3-0.6,1.9c-0.3,0.5-0.7,0.9-1.2,1.2c-1,0.5-2.1,0.6-3.2,0.4l-0.3-0.1c-0.4-0.7-1.2-0.9-1.9-0.7
	c-0.5,0.1-0.9,0.3-1.3,0.5c-0.4,0.2-0.8,0.3-1.2,0.4c-1,0.1-2.1,0-3.1-0.2c-0.8-0.2-1.5-0.4-2.2-0.7l0,0c0-0.1,0-0.1-0.1-0.1l0,0
	c0-0.1-0.1-0.1-0.2-0.2l0,0l0,0c0-0.1-0.1-0.1-0.1-0.1c-0.6-0.5-1-1-1.4-1.6c-0.5-0.9-0.8-1.9-0.8-2.9c0-0.2,0-0.3,0-0.4l0.3-1.7
	c0.2-0.6,0.6-1.2,0.9-1.7c0.6-0.8,1.4-1.5,2.3-2c1.2-0.7,2.4-1.2,3.7-1.7c1.2-0.4,2.3-0.9,3.4-1.5c0.2-0.1,0.5-0.3,0.3-0.6
	c0-0.4-0.3-0.7-0.7-0.7c-0.3-0.1-0.6-0.1-0.9,0c-0.7,0.1-1.3,0.4-1.9,0.7c-0.7,0.3-1.3,0.7-2.1,1C79.4,29.3,78.7,29.4,78.1,29.2z
	 M82.4,38.3c1,0.5,2.3,0.2,3-0.7c0.5-0.8,0.8-1.7,0.7-2.7c0.1-0.2-0.1-0.3-0.1-0.5c0-0.4,0-0.4-0.4-0.3s-1,0.2-1.5,0.3
	c-0.5,0.1-1.1,0.3-1.5,0.6c-0.7,0.4-1.1,1.2-1,2C81.6,37.6,81.9,38,82.4,38.3z"/>
<path class="st3" d="M151.3,32.9c0.1-1,0.2-2,0.3-3c0.3-1.7,1.2-3.4,2.4-4.6c1.4-1.5,3.3-2.5,5.4-2.8c1.9-0.3,3.9,0,5.7,0.8
	c1.3,0.6,2.4,1.5,3.3,2.6l0.3,0.4l0.7,1.1c0.5,0.9,0.7,1.8,0.8,2.8c0,0.4,0.1,0.8,0.1,1.2c0.2,1.9,0,3.9-0.5,5.7
	c-0.4,1.8-1.4,3.4-2.8,4.7c-2.2,1.9-5.1,2.6-7.9,2c-1-0.2-1.9-0.6-2.8-1l-1.1-0.7l0,0c0-0.1-0.1-0.1-0.2-0.2l0,0l0,0
	c0-0.1-0.1-0.1-0.1-0.1l0,0c0-0.1-0.1-0.1-0.1-0.1c-0.3-0.3-0.6-0.6-0.9-0.9c-1.4-1.6-2.3-3.5-2.5-5.6c0-0.1,0-0.3-0.1-0.4
	L151.3,32.9z M163,29L163,29c-1.1-1.2-3-1.3-4.2-0.1c0,0-0.1,0.1-0.1,0.1c-0.4,0.5-0.7,1-0.9,1.6c-0.4,1.3-0.4,2.7-0.1,4
	c0.2,1,0.8,1.8,1.5,2.5c1.2,0.9,2.8,0.6,3.7-0.6c0-0.1,0.1-0.1,0.1-0.2c0.8-1.4,1.2-2.9,1-4.5c-0.1-1-0.4-1.9-0.9-2.7
	C163.1,29.1,163.1,29,163,29z"/>
<path class="st5" d="M135,43.4c-0.5-0.3-0.9-0.7-1.1-1.3c-0.4-1.1-0.7-2.3-0.8-3.6c-0.1-0.7-0.1-1.5-0.2-2.2c-0.2-1.8-0.2-3.6,0-5.4
	c0.1-1.9,0.4-3.9,0.7-5.8c0.1-0.6,0.4-1.2,0.9-1.6c1.4-1.2,3.5-1.1,4.8,0.2l0.6,0.5c0.1,0,0.2-0.2,0.4-0.3c1-0.7,2.1-1.1,3.3-1.2
	c1.8-0.2,3.5,0.5,4.6,1.9l0.2,0.2c0,0.1,0.1,0.3,0.3,0.3l0,0c0.4,0.7,0.7,1.4,0.9,2.2c0.3,1.4,0.6,2.8,0.7,4.2
	c0.3,3.5-0.1,6.9-1.2,10.2c-0.3,0.9-1.1,1.6-2.1,1.9c-0.8,0.2-1.6,0.2-2.4-0.1c-1.1-0.7-1.7-2-1.5-3.3c0.1-1.1,0.3-2.1,0.5-3.2
	c0.2-0.9,0.2-1.8,0.1-2.7c0-0.7,0-1.4,0-2.1c0-0.7-0.1-1.4-0.3-2.1c-0.1-0.4-0.3-0.8-0.6-1.1c-0.4-0.8-1.3-1-2.1-0.6
	c-0.1,0.1-0.2,0.1-0.3,0.2l-0.2,0.2c-0.4,0.3-0.7,0.8-0.8,1.3c-0.2,2.1-0.3,4.3-0.1,6.4c0.1,1.6,0.3,3.1,0.3,4.7
	c0,0.4-0.1,0.8-0.3,1.1c-0.4,0.9-1.3,1.4-2.3,1.4C136.5,44,135.7,43.8,135,43.4z"/>
<path class="st5" d="M174.2,33.3c-2.1-1.8-2.8-4.8-1.6-7.3c0.3-0.7,0.8-1.2,1.3-1.7l0,0c0,0,0.1,0,0.1,0c0,0,0,0,0,0l0,0
	c0.1,0,0.2-0.1,0.2-0.2l0,0c0.1,0,0.1,0,0.1-0.1c0,0,0,0,0,0l0,0c0.1,0,0.1,0,0.1-0.1l0,0l0,0c0.1,0,0.2-0.1,0.2-0.2l0,0
	c0.1,0,0.1,0,0.1-0.1l0,0c0.1,0,0.2-0.1,0.2-0.2l0,0c0.1,0,0.1,0,0.1-0.1l0,0l0,0c0.1,0,0.2,0,0.2-0.1l0,0c0.1,0,0.2,0,0.2-0.1l0,0
	c0.8-0.3,1.6-0.6,2.4-0.8c2.5-0.6,5.1-0.3,7.4,0.9c0.7,0.3,1.3,0.8,1.8,1.4l0.1,0.3c0.7,1.3,0.2,2.8-1.1,3.5
	c-0.6,0.3-1.2,0.4-1.8,0.2c-0.5-0.1-0.9-0.2-1.3-0.3c-0.6-0.2-1.3-0.5-1.9-0.6c-0.6-0.2-1.3-0.2-1.9-0.1c-0.5,0.1-0.9,0.7-0.7,1.2
	c0,0.1,0.1,0.2,0.1,0.3c0.1,0.3,0.4,0.5,0.7,0.6c1,0.4,2,0.6,3,0.8c0.7,0.2,1.5,0.4,2.2,0.7c1.2,0.4,2.2,1.2,2.9,2.1
	c0,0.1,0.1,0.2,0.2,0.2l0,0c0,0.3,0.3,0.6,0.4,0.9c0.9,2.4,0.5,5.2-1.2,7.1c-0.2,0.2-0.3,0.4-0.5,0.5c-2.5,1.7-5.6,2.4-8.6,1.8
	c-0.9-0.2-1.8-0.5-2.6-0.8l-1.2-0.8c-0.1-0.2-0.3-0.2-0.4-0.3c-0.5-0.5-1-1.1-1.3-1.8c-0.5-1.5,0.3-3.2,1.9-3.7c0,0,0,0,0,0
	c0.6-0.2,1.3-0.1,1.9,0.1c0.6,0.3,1.2,0.6,1.8,0.9c0.6,0.3,1.2,0.6,1.8,0.7c0.7,0.1,1.3-0.1,1.9-0.5c0.4-0.3,0.4-0.7,0.2-1.3
	c-0.1-0.4-0.5-0.6-0.8-0.7c-0.6-0.2-1.2-0.3-1.8-0.5c-1.6-0.3-3.1-0.8-4.6-1.6l0,0C174.4,33.4,174.3,33.4,174.2,33.3z"/>
<path class="st5" d="M126.3,43.3c-1.1-0.7-1.7-2-1.6-3.2c-0.1-0.9,0-1.8-0.1-2.7c-0.2-2.8-0.2-5.5,0-8.3c0.1-1.6,0.4-3.2,1-4.7
	c0.1-0.3,0.3-0.6,0.6-0.8c1.1-0.7,2.4-0.8,3.6-0.3c0.5,0.2,0.9,0.5,1.2,1c0,0.1,0,0.2,0.1,0.3c0.2,0.4,0.3,0.8,0.2,1.3
	c-0.1,1.6-0.2,3.1-0.2,4.7c0,2.4,0.1,4.7,0.1,7.1c0,1.2,0.1,2.4,0.1,3.7c0.1,0.7-0.2,1.4-0.8,1.9c-0.6,0.5-1.3,0.7-2,0.7
	C127.7,43.9,126.9,43.7,126.3,43.3z"/>
<path class="st5" d="M169.7,25.6h-0.3c-0.2,0-0.3-0.1-0.3-0.3c-0.1-0.4-0.2-0.9-0.2-1.3c0-3.4,0.1-6.8,0.1-10.2c0-0.5,0-1,0-1.5
	s0.2-0.8,0.7-0.9c0.4-0.1,0.8-0.1,1.2,0c3.4,0.4,6.6,2,9,4.4c0.3,0.3,0.6,0.7,0.9,1.1l0.2,0.2l0,0c0.1,0.6-0.3,1.2-0.8,1.4
	c0,0-0.1,0.1-0.1,0.1l-9.6,6.6C170.2,25.4,169.9,25.5,169.7,25.6z"/>
<path class="st6" d="M101.5,48.3l1.2,1.1v0.1c-0.3,0-0.5,0-0.8,0H65c-0.2,0-0.3,0-0.3-0.3s0-0.6,0-1L101.5,48.3L101.5,48.3z"/>
<path class="st4" d="M40.3,26.1c-0.2,0.5-0.2,1-0.2,1.5c-0.2,0.7-0.3,1.4-0.5,2.1c-0.5,2.2-1.6,4.1-3.1,5.8c-1.1,1.1-2.4,2-3.9,2.6
	c-1.3,0.5-2.6,0.8-4,0.8c-1.5-0.1-2.9-0.4-4.3-1c-0.2-0.1-0.5-0.3-0.7-0.4c-0.5-0.3-0.9-0.1-0.9,0.5c0,0.9-0.2,1.7-0.1,2.6
	c0.1,1.7,0.2,3.4,0.3,5.1c0.1,0.8,0.1,1.7,0.2,2.5c0,0.4,0,0.8-0.1,1.2c0.2,0.1,0.5,0.1,0.7,0.1h34c0,0,0,0.1,0,0.1H23.3
	c-0.2,0-0.3,0.1-0.4,0.3c-0.5,1-1.6,1.7-2.7,1.7c-0.8,0.1-1.5,0-2.3-0.1c-0.4-0.1-0.8-0.3-1.1-0.5c-0.2-0.1-0.3-0.2-0.2-0.4
	c0.8,0.3,1.6,0.4,2.4,0.4c0.5,0,1.1-0.1,1.6-0.3c1.2-0.4,2-1.6,1.9-2.9c-0.1-2.7-0.5-5.4-0.4-8.1c0-0.8,0-1.6,0.1-2.4
	c0-0.3,0.2-0.5,0.5-0.5c0.1,0,0.2,0,0.2,0.1l0.2,0.1c4.1,2.1,8,1.7,11.6-1c1.6-1.2,2.8-2.9,3.5-4.8c1.1-2.5,1.5-5.3,1.2-8
	c-0.2-1.6-0.6-3.2-1.4-4.6L37.9,18c0-0.1,0-0.2,0.1-0.2c0.6,0.9,1.1,1.8,1.5,2.9c0.6,1.5,0.8,3.1,0.8,4.7
	C40.2,25.6,40.3,25.9,40.3,26.1z"/>
<path class="st6" d="M57.8,49.5h-34c-0.2,0-0.5,0-0.7-0.1c0.1-0.4,0.1-0.8,0.1-1.2h34.3L57.8,49.5z"/>
<path class="st5" d="M126.7,20.3L126.7,20.3c-2-1.4-1.8-3.6-0.8-5.3c0.5-0.7,1.3-1.2,2.3-1.3c1.3-0.2,2.6,0.3,3.5,1.3
	c0.1,0.1,0.2,0.3,0.3,0.4l0.1,0.1l0,0c0,0.1,0,0.1,0.1,0.1l0,0c0,0.1,0,0.2,0.1,0.3c0.3,0.7,0.4,1.5,0.1,2.3
	c-0.1,0.4-0.3,0.7-0.5,1.1c-0.2,0.5-0.6,0.8-1,1.1C129.7,21.2,128,21.2,126.7,20.3z"/>
<path class="st4" d="M64.7,48.3c0,0.3,0,0.6,0,1s0.1,0.3,0.3,0.3H102c0.3,0,0.5,0,0.8,0c-0.2,0.2-0.5,0.1-0.7,0.1h-37
	c-0.2,0-0.5,0.1-0.5,0.3c0,0,0,0,0,0c-0.4,1.2-1.5,2-2.7,2c-0.8,0-1.6-0.2-2.3-0.6c-0.2-0.1-0.4-0.2-0.4-0.5
	c0.6,0.2,1.2,0.3,1.8,0.3c1.5,0.1,2.8-1.1,2.9-2.6c0.1-0.9,0-1.7-0.1-2.6c-0.1-0.7-0.1-1.5,0-2.2c0.1-0.6,0.2-0.6,0.7-0.5
	c1.3,0.3,2.6,0.2,3.8-0.1c1.5-0.4,2.7-1.2,3.7-2.4c1.2-1.6,2-3.5,2.3-5.5c0.3-2.5,0.2-5-0.5-7.5c-0.1-0.4-0.3-0.8-0.4-1.2l-0.1-0.1
	l-0.1-0.1l0.1-0.1c0.5,0.6,0.9,1.3,1.1,2c0.6,2.1,0.8,4.3,0.7,6.4c0,0.3-0.2,0.5-0.1,0.8l-0.3,1.7c-0.2,0.6-0.4,1.3-0.7,1.9
	c-0.6,1.6-1.7,3-3.2,4c-1,0.6-2.2,1-3.4,1c-0.8,0-1.6,0-2.3-0.1c-0.4-0.1-0.5,0-0.6,0.4c-0.1,0.4-0.1,0.8-0.1,1.3L64.7,48.3z"/>
<path class="st7" d="M41,42.7c0.8,0.3,1.5,0.5,2.3,0.7c1.8,0.3,3.7,0.1,5.4-0.8c0.3-0.2,0.6-0.2,0.9,0c0.9,0.6,1.9,0.8,3,0.8
	c1.8-0.1,3.2-1.5,3.3-3.2c0.2-3,0.3-6,0.2-9c-0.1-1.5-0.3-3-0.6-4.5c-0.2-0.6-0.4-1.2-0.8-1.8c0.1,0,0.2,0.1,0.3,0.2
	c0.7,0.8,1.1,1.7,1.3,2.7c0.2,1.3,0.4,2.7,0.5,4c0.1,1.3,0.1,2.9,0.1,4.3c0,1.6-0.1,3.2-0.2,4.8c-0.2,2-1.9,3.5-3.9,3.3
	c-0.1,0-0.2,0-0.3,0c-0.8-0.1-1.6-0.4-2.3-0.8c-0.2-0.1-0.5-0.1-0.8,0c-2.3,1.1-5,1.2-7.3,0.2c-0.4-0.2-0.7-0.4-1-0.6
	C41,42.9,41,42.8,41,42.7z"/>
<path class="st7" d="M107.5,34c-0.6-0.7-1.1-1.4-1.3-2.3c-0.3-0.9-0.5-1.9-0.5-2.9c-0.1-2,0.1-4.1,0.6-6.1c0.2-0.7,0.5-1.4,0.9-2
	c0.7-1.1,1.8-1.8,3.1-1.9c0.7-0.1,1.4,0.1,2,0.3c0.5,0.2,0.9,0.4,1.4,0.7c0.4,0.2,0.8,0.5,1.3,0.8c0.8,0.6,1.8,0.7,2.7,0.4
	c0.8-0.2,1.5-0.7,2-1.4c0.2-0.3,0.4-0.7,0.6-1.1c0.3-0.6,0.3-1.2,0-1.8c-0.2-0.5-0.5-0.9-0.8-1.3c0.7,0.6,1.3,1.4,1.6,2.3
	c0.2,0.4,0.2,0.8,0,1.2c-0.3,0.9-0.8,1.7-1.6,2.3c-0.5,0.3-1.1,0.6-1.7,0.6c-0.2,0-0.5,0-0.7,0.1c-0.3,0-0.6,0-0.9-0.2
	c-0.6-0.3-1.1-0.7-1.7-1c-0.7-0.4-1.4-0.8-2.1-1c-1.2-0.3-2.4-0.1-3.4,0.7c-1,0.8-1.7,1.9-2,3.2c-0.3,1-0.4,2-0.5,3.1
	c-0.1,0.8-0.1,1.7-0.1,2.5c0,1.5,0.3,2.9,1,4.3C107.5,33.7,107.6,33.9,107.5,34z"/>
<path class="st4" d="M156.4,42.8c0.9,0.4,1.8,0.8,2.8,1c2.8,0.6,5.7-0.1,7.9-2c1.4-1.2,2.4-2.8,2.8-4.7c0.5-1.9,0.7-3.8,0.5-5.7
	c0-0.4-0.1-0.8-0.1-1.2c-0.1-1-0.4-2-0.8-2.8c0-0.1,0-0.1,0.1-0.2c0.8,0.9,1.2,2,1.4,3.2c0.1,0.5,0.1,1.1,0.2,1.6
	c0,1.3,0,2.5-0.1,3.8c-0.2,2-0.9,3.9-2.1,5.6c-1.1,1.5-2.7,2.5-4.4,3c-2.7,0.8-5.7,0.4-8.1-1.2c-0.1-0.1-0.2-0.1-0.3-0.2
	C156.2,42.9,156.3,42.8,156.4,42.8z"/>
<path class="st7" d="M126.3,43.3c0.7,0.4,1.4,0.6,2.2,0.6c0.7,0,1.4-0.3,2-0.7c0.6-0.5,0.8-1.2,0.8-1.9c0-1.2,0-2.4-0.1-3.7
	c0-2.4-0.1-4.7-0.1-7.1c0-1.6,0-3.1,0.2-4.7c0.1-0.4,0-0.9-0.2-1.3c-0.1-0.1-0.1-0.2-0.1-0.3c0.7,0.5,1.1,1.3,1,2.2
	c-0.2,2.9-0.2,5.7-0.1,8.6c0,2.3,0.1,4.6,0.1,6.8c0.1,1.5-1,2.7-2.5,2.8c-0.2,0-0.3,0-0.5,0c-0.8-0.1-1.6-0.3-2.2-0.8
	C126.5,43.8,126.3,43.6,126.3,43.3z"/>
<path class="st7" d="M87.7,43.5c1.1,0.3,2.2,0.1,3.2-0.4c0.5-0.2,1-0.7,1.2-1.2c0.3-0.6,0.5-1.2,0.6-1.9c0.1-2.2,0.3-4.4,0.3-6.6
	c0-1.9-0.1-3.9-0.4-5.8c-0.2-0.9-0.5-1.8-1-2.7c0.3,0.1,0.5,0.4,0.7,0.7c0.6,0.9,1,2,1.2,3.1c0.3,2.6,0.4,5.2,0.3,7.8
	c0,1.4-0.1,2.9-0.2,4.3c-0.1,0.7-0.3,1.3-0.6,1.9c-0.2,0.3-0.5,0.6-0.8,0.9c-1,0.7-2.3,0.9-3.4,0.6C88.1,44.2,87.8,43.9,87.7,43.5z"
	/>
<path class="st7" d="M144.8,43.6c0.8,0.2,1.6,0.3,2.4,0.1c1-0.2,1.8-0.9,2.1-1.9c1.1-3.3,1.5-6.8,1.2-10.2c-0.1-1.4-0.4-2.8-0.7-4.2
	c-0.2-0.7-0.5-1.5-0.9-2.2c0.1,0,0.2,0,0.2,0.1c0.6,0.7,1.1,1.6,1.4,2.5c0.4,1.6,0.7,3.2,0.8,4.8c0,0.1,0,0.1,0.1,0.2l0.1,2
	c0,0.5-0.1,1-0.1,1.6c-0.1,2.2-0.6,4.4-1.4,6.5c-0.3,0.6-0.7,1.1-1.3,1.3c-0.9,0.4-1.8,0.5-2.7,0.2
	C145.3,44.4,144.9,44.1,144.8,43.6z"/>
<path class="st4" d="M174.9,42.9c0.8,0.4,1.7,0.6,2.6,0.8c3,0.6,6.1,0,8.6-1.8c0.2-0.1,0.4-0.3,0.5-0.5c1.7-2,2.2-4.7,1.2-7.1
	c-0.1-0.3-0.4-0.6-0.4-0.9c0.4,0.1,0.6,0.5,0.7,0.8c1.1,1.9,1.2,4.2,0.3,6.3c-0.3,0.7-0.7,1.3-1.1,1.8c-0.4,0.4-0.9,0.7-1.5,1
	c-1.3,0.7-2.8,1.2-4.3,1.3c-2.2,0.3-4.4-0.2-6.3-1.2c-0.2-0.1-0.5-0.3-0.6-0.4C174.8,43,174.9,42.9,174.9,42.9z"/>
<path class="st4" d="M135,43.4c0.7,0.4,1.5,0.6,2.3,0.5c1,0,1.8-0.6,2.3-1.4c0.2-0.3,0.3-0.7,0.3-1.1c-0.1-1.6-0.2-3.1-0.3-4.7
	c-0.2-2.1-0.1-4.3,0.1-6.4c0.1-0.5,0.4-1,0.8-1.3l0.2-0.2c0.7-0.6,1.6-0.5,2.2,0.2c0.1,0.1,0.1,0.2,0.2,0.3
	c-0.8-0.2-1.6,0.1-2.1,0.7c-0.3,0.3-0.5,0.7-0.5,1.2c-0.2,1.5-0.3,2.9-0.2,4.4c0.1,1.5,0.1,2.9,0.3,4.4c0.1,0.7,0.1,1.4,0.1,2.1
	c0,1.2-0.8,2.3-2,2.6c-1.2,0.2-2.4-0.1-3.3-0.8C135.1,43.8,135,43.6,135,43.4z"/>
<path class="st4" d="M19.1,20.4c-0.4,0.2-0.8,0.3-1.1,0.4c-0.6,0.3-1.2,0.7-1.6,1.3c-0.1,0-0.1,0-0.1,0.1l0,0
	c-0.2-0.1-0.4,0.1-0.5,0.2c-0.8,0.6-1.8,0.7-2.7,0.4c-0.4-0.1-0.8-0.3-1.1-0.6c-0.1-0.1-0.2-0.2-0.2-0.3c0.8,0.4,1.7,0.4,2.5,0.3
	c0.2-0.1,0.4-0.2,0.5-0.3c1.4-1,2.9-1.9,4.4-2.7c1.5-0.8,3.1-1.3,4.8-1.6c1.8-0.3,3.7,0.1,5.3,1.1c0.3,0.2,0.5,0.4,0.7,0.6
	c-0.2,0-0.3,0-0.5-0.2c-1.6-0.8-3.4-1.1-5.1-0.8c-1.8,0.3-3.5,0.9-5.1,1.8C19.3,20.3,19.2,20.3,19.1,20.4z"/>
<path class="st4" d="M169.7,25.6c0.3-0.1,0.5-0.2,0.7-0.4l9.6-6.6c0,0,0.1-0.1,0.1-0.1c0.6-0.2,0.9-0.8,0.8-1.4
	c0.5,0.2,0.7,0.7,0.7,1.2c0,0.3-0.2,0.6-0.4,0.7c-1.8,1.2-3.6,2.4-5.3,3.6c-0.2,0.1-0.4,0.2-0.4,0.4l0,0c-0.1,0-0.2,0-0.2,0.1l0,0
	c-0.1,0-0.2,0-0.2,0.1l0,0l0,0c0,0-0.1,0-0.1,0c0,0,0,0,0,0.1l0,0c-0.1,0-0.2,0-0.2,0.2l0,0c-0.1,0-0.1,0-0.1,0.1c0,0,0,0,0,0l0,0
	c-0.1,0-0.2,0-0.2,0.2l0,0l0,0c-0.1,0-0.1,0-0.1,0.1l0,0c-0.1,0-0.1,0-0.1,0.1c0,0,0,0,0,0l0,0c-0.1,0-0.2,0-0.2,0.2l0,0
	c-0.1,0-0.1,0-0.1,0.1l0,0c-0.2-0.1-0.4,0.1-0.5,0.2c-0.8,0.5-1.5,1-2.3,1.6c-0.2,0.2-0.5,0.3-0.7,0.3c-0.4,0.1-0.5,0-0.6-0.4
	C169.6,25.9,169.6,25.8,169.7,25.6z"/>
<path class="st7" d="M179.2,29.6c-0.3-0.1-0.5-0.3-0.7-0.6c-0.3-0.5-0.1-1.1,0.4-1.4c0.1-0.1,0.2-0.1,0.3-0.1
	c0.6-0.1,1.3-0.1,1.9,0.1c0.6,0.2,1.3,0.4,1.9,0.6c0.4,0.2,0.9,0.3,1.3,0.4c1.4,0.4,2.8-0.5,3.1-1.9c0.2-0.6,0.1-1.3-0.2-1.8
	l-0.1-0.3c1.1,0.8,1.5,2.3,0.8,3.6c-0.3,0.5-0.8,0.9-1.3,1.1c-0.9,0.3-1.9,0.2-2.7-0.2c-0.8-0.3-1.6-0.6-2.5-0.8
	c-0.4-0.1-0.8-0.1-1.2,0c-0.6,0-1,0.4-1,1c0,0,0,0.1,0,0.1L179.2,29.6z"/>
<path class="st7" d="M126.7,20.3c1.3,0.8,3,0.8,4.2-0.1c0.4-0.2,0.8-0.6,1-1.1c0.1-0.4,0.3-0.7,0.5-1.1c0.3-0.7,0.2-1.6-0.1-2.3
	c-0.1-0.1-0.1-0.2-0.1-0.3c0.5,0.2,0.7,0.7,0.9,1.1c0.3,0.8,0.3,1.7-0.1,2.6c-0.5,1.5-1.9,2.4-3.4,2.4c-0.9,0-1.8-0.3-2.5-0.9
	C126.9,20.7,126.7,20.6,126.7,20.3z"/>
<path class="st7" d="M103.4,39.7c1.1,0.7,2.3,1.2,3.5,1.6c2.4,0.7,5,0.6,7.4-0.4c0.2-0.1,0.3-0.1,0.5,0s0.3,0.3,0.2,0.5
	s0,0.2-0.1,0.3c-0.4,0.1-0.8,0.2-1.1,0.3c-1.9,0.5-4,0.5-5.9,0c-1.3-0.3-2.4-0.8-3.5-1.6C104,40.3,103.6,40.1,103.4,39.7z"/>
<path class="st7" d="M77.5,42.7c0.7,0.3,1.5,0.5,2.2,0.7c1,0.2,2.1,0.2,3.1,0.2c0.4-0.1,0.8-0.2,1.2-0.4c0.4-0.2,0.9-0.4,1.3-0.5
	c0.7-0.3,1.5,0,1.9,0.7c-0.8-0.1-1.6,0.1-2.3,0.5c-1,0.5-2.2,0.7-3.3,0.5c-1-0.1-2.1-0.3-3-0.7c-0.4-0.2-0.7-0.4-1.1-0.6
	C77.6,42.9,77.5,42.9,77.5,42.7z"/>
<path class="st4" d="M41.5,29.3c0.5,0.2,1.1,0.1,1.7-0.1c0.7-0.3,1.4-0.6,2.1-1c0.6-0.3,1.2-0.6,1.9-0.8c0.3,0,0.6,0,0.8,0
	c0.5,0.1,0.7,0.2,0.8,0.8c-0.9,0-1.7,0.2-2.5,0.6c-0.7,0.4-1.4,0.7-2.1,1.1c-0.4,0.2-0.9,0.4-1.4,0.4c-0.4,0-0.8-0.2-1.1-0.5
	C41.5,29.6,41.5,29.4,41.5,29.3C41.5,29.3,41.5,29.3,41.5,29.3z"/>
<path class="st7" d="M78.1,29.2c0.7,0.2,1.4,0.2,2-0.1c0.7-0.3,1.4-0.7,2.1-1c0.6-0.3,1.3-0.6,1.9-0.7c0.3-0.1,0.6-0.1,0.9,0
	c0.4,0,0.7,0.3,0.7,0.7c-0.9,0-1.9,0.2-2.7,0.7c-0.9,0.5-1.8,0.9-2.7,1.2C79.5,30.3,78.6,30,78.1,29.2z"/>
<path class="st4" d="M187.9,18.6c0,1.3-1.1,2.4-2.4,2.5c0,0,0,0,0,0c-1.4,0-2.5-1.1-2.5-2.5s1.1-2.5,2.5-2.5c1.3,0,2.4,1.1,2.5,2.4
	C187.9,18.5,187.9,18.6,187.9,18.6z M183.4,18.6c0,1.1,1,2,2.1,2c1.1,0,2-1,2-2.1c0-1.1-0.9-2-2-2C184.3,16.5,183.4,17.5,183.4,18.6
	L183.4,18.6z"/>
<path class="st7" d="M174.4,33.5c1.4,0.8,3,1.3,4.6,1.6c0.6,0.2,1.2,0.3,1.8,0.5c0.4,0.1,0.7,0.4,0.8,0.7l-3.6-0.9
	c-0.8-0.2-1.6-0.5-2.4-0.9c-0.3-0.2-0.7-0.4-1-0.7C174.4,33.7,174.4,33.6,174.4,33.5z"/>
<path class="st7" d="M38,17.8c-0.1,0-0.1,0.1-0.1,0.2L37,16.6C37.4,16.9,37.8,17.4,38,17.8z"/>
<path class="st7" d="M156.4,42.8c-0.1,0-0.2,0-0.2,0.1c-0.4-0.2-0.8-0.3-0.9-0.8L156.4,42.8z"/>
<path class="st7" d="M174.9,42.9c-0.1,0-0.2,0-0.2,0.1c-0.4-0.3-0.8-0.4-1-0.9L174.9,42.9z"/>
<path class="st7" d="M73.4,26.5l-0.1,0.1c-0.2-0.3-0.4-0.6-0.6-0.9C73.1,25.8,73.2,26.2,73.4,26.5z"/>
<path class="st7" d="M169.5,27.2c-0.1,0-0.1,0.1-0.1,0.2l-0.7-1.1C169.1,26.5,169.4,26.8,169.5,27.2z"/>
<path class="st7" d="M37,16.6c-0.2-0.1-0.3-0.3-0.4-0.5C36.8,16.2,37,16.4,37,16.6z"/>
<path class="st7" d="M54.8,24.9c-0.1-0.1-0.2-0.3-0.3-0.4C54.6,24.6,54.8,24.7,54.8,24.9z"/>
<path class="st7" d="M108,34.6c-0.1-0.1-0.3-0.2-0.3-0.3C107.8,34.3,108,34.4,108,34.6z"/>
<path class="st7" d="M72.7,25.7c-0.1-0.1-0.2-0.2-0.2-0.3C72.6,25.4,72.7,25.6,72.7,25.7z"/>
<path class="st7" d="M148.8,25.3c-0.1-0.1-0.2-0.2-0.3-0.3C148.7,25,148.8,25.1,148.8,25.3z"/>
<path class="st7" d="M174.2,33.3c0.1,0,0.2,0.1,0.2,0.2S174.2,33.5,174.2,33.3z"/>
<path class="st4" d="M122,24.8c-0.1,0-0.1-0.2-0.2-0.3C122,24.6,122.1,24.7,122,24.8z"/>
<path class="st7" d="M91.5,25c-0.1-0.1-0.1-0.2-0.2-0.2C91.4,24.8,91.5,24.9,91.5,25z"/>
<path class="st7" d="M155,42c0.1,0,0.2,0.1,0.2,0.2C155.2,42.1,155.1,42.1,155,42z"/>
<path class="st7" d="M77.2,42.4c0.1,0,0.2,0.1,0.2,0.2C77.3,42.6,77.2,42.6,77.2,42.4z"/>
<path class="st4" d="M181,17.2l-0.2-0.2C180.9,17,181,17.1,181,17.2z"/>
<path class="st4" d="M187.5,33.5c-0.1,0-0.1-0.2-0.2-0.2C187.5,33.3,187.5,33.4,187.5,33.5z"/>
<path class="st7" d="M40.8,42.5c0.1,0,0.2,0.1,0.2,0.2C40.8,42.7,40.8,42.7,40.8,42.5z"/>
<path class="st7" d="M107.7,34.3c-0.1,0-0.1-0.1-0.1-0.2C107.6,34.1,107.6,34.1,107.7,34.3z"/>
<path class="st7" d="M132.1,15.5l-0.1-0.1L132.1,15.5z"/>
<path class="st7" d="M132.2,15.6c-0.1,0-0.1-0.1-0.1-0.1L132.2,15.6z"/>
<path class="st7" d="M103.3,39.6c0.1,0,0.1,0,0.1,0.1C103.4,39.7,103.3,39.7,103.3,39.6z"/>
<path class="st7" d="M154.8,41.8c0.1,0,0.1,0,0.1,0.1L154.8,41.8z"/>
<path class="st7" d="M154.9,41.9c0.1,0,0.1,0,0.1,0.1C155,42,154.9,42,154.9,41.9z"/>
<path class="st7" d="M77.1,42.4c0.1,0,0.1,0,0.1,0.1L77.1,42.4z"/>
<path class="st7" d="M40.6,42.4c0.1,0,0.1,0,0.1,0.1C40.7,42.6,40.7,42.5,40.6,42.4z"/>
<path class="st7" d="M77.4,42.6c0.1,0,0.1,0.1,0.1,0.1C77.5,42.7,77.4,42.6,77.4,42.6C77.4,42.6,77.4,42.6,77.4,42.6z"/>
<path class="st8" d="M104.1,54.3c0.8,0,1.6,0,2.5-0.1c0.4,0,0.7,0.2,0.7,0.6c0,0,0,0.1,0,0.1c0,0.2-0.1,0.3-0.1,0.5
	c0,0.2-0.2,0.3-0.4,0.4c-0.8,0.1-1.6,0.2-2.4,0.1c-0.4,0-0.9,0-1.4,0c-0.3,0-0.4,0.1-0.4,0.4c0,0.8,0,1.7,0,2.5
	c0,0.3,0.2,0.4,0.5,0.4c0.4,0,0.5-0.1,0.8-0.1c0.6,0,1.2,0.1,1.8,0c0.2,0,0.3,0,0.5,0.1c0.3,0,0.5,0.3,0.5,0.6c0,0.8-0.1,1-1,1
	s-1.7,0-2.5-0.1c-0.4,0-0.5,0-0.6,0.5c0,0.8-0.1,1.6-0.1,2.4c0,0.5,0.1,0.6,0.6,0.6c1,0,1.9,0,2.9,0c0.2,0,0.4,0,0.6,0
	c0.1,0,0.2,0,0.3,0.1c0.4,0.3,0.2,0.7,0.2,1s-0.2,0.5-0.5,0.6c-0.1,0-0.3,0-0.4,0c-0.5-0.1-1-0.1-1.6,0c-0.7,0.1-1.3,0-2-0.1
	c-0.2,0-0.5,0-0.7,0c-0.7,0.1-1.1-0.3-1-1c0.1-1.1,0-2.1,0.1-3.2s0.1-2.3,0.1-3.5c0-0.9,0-1.8,0-2.8c0-0.7,0.2-1,0.9-1
	S103.4,54.3,104.1,54.3z M103.8,54.4C103.8,54.4,103.8,54.4,103.8,54.4c-0.1,0.1-0.1,0.2,0,0.2c0,0,0.1,0,0.1-0.1
	C103.9,54.5,103.9,54.4,103.8,54.4L103.8,54.4z"/>
<path class="st9" d="M110.5,54.2c0.7,0,1.4,0.1,2.1,0.1c1,0.2,1.8,0.8,2.2,1.8c0.3,0.9,0.2,1.8-0.1,2.7c0,0.1-0.1,0.3-0.2,0.4
	c-0.5,0.5-0.6,1.2-0.4,1.8c0.1,0.9,0.3,1.9,0.5,2.8c0.1,0.4,0.2,0.8,0.4,1.2c0.1,0.3,0.2,0.6-0.1,0.9c-0.3,0.2-0.7,0.3-1,0.2
	c-0.4-0.1-0.7-0.5-0.7-0.9c0-1-0.1-2-0.3-3c-0.1-0.4-0.1-0.7-0.2-1.1c-0.1-0.3-0.3-0.6-0.7-0.6c-0.4,0-0.7,0-1.1,0
	c-0.5,0.1-0.7,0.2-0.7,0.7c-0.1,1.2,0.1,2.4,0.4,3.6c0.1,0.3,0.1,0.6-0.1,0.8c-0.1,0.2-0.4,0.2-0.6,0.3c-0.2,0.1-0.4,0.1-0.6,0
	c-0.6-0.3-0.6-0.3-0.6-1c0.1-1,0.2-2,0.1-3c-0.1-0.7,0-1.4,0-2.1c0-1.6,0-3.1-0.1-4.7c0-0.1,0-0.2,0-0.3c0-0.4,0.1-0.5,0.5-0.5
	s0.8,0,1.2,0L110.5,54.2z M110.2,57.8c0,0.2,0,0.5,0,0.7c0,0.4,0.3,0.7,0.7,0.8c0.3,0,0.6,0,0.8,0c1.1,0,1.4-0.3,1.7-1.4v-0.1
	c0.2-1.1-0.6-2.1-1.7-2.3c-0.3,0-0.6,0-0.8,0c-0.1,0-0.2,0.1-0.3,0.1s-0.3,0.1-0.3,0.3s0.1,0.4,0,0.6
	C110.2,56.9,110.2,57.4,110.2,57.8L110.2,57.8z M114.4,63.4c-0.1,0.5,0.2,1.1,0.2,1.6c0,0.1,0.1,0.1,0.2,0.1s0.1-0.1,0-0.1
	C114.6,64.5,114.5,63.9,114.4,63.4L114.4,63.4z M110.3,64.9c-0.1,0.1,0,0.2,0,0.2s-0.1,0.2,0.1,0.2s0.1,0,0.1,0
	c0.1-0.1,0.1-0.1,0-0.2c0,0,0,0,0,0C110.4,65,110.4,64.9,110.3,64.9L110.3,64.9z M113.6,60.3c0.1-0.1,0.1-0.1,0.1-0.2
	c0-0.1,0.1-0.2-0.1-0.3C113.5,59.9,113.4,60.1,113.6,60.3L113.6,60.3z M114.7,65.7L114.7,65.7c0-0.1,0.1-0.2,0.1-0.4s0-0.1-0.1,0
	L114.7,65.7z M110.5,55.3L110.5,55.3c-0.1,0,0,0.1,0,0.1c0,0,0.1,0,0.1,0c0,0,0,0,0-0.1C110.6,55.3,110.5,55.3,110.5,55.3
	L110.5,55.3z M114.1,62.9c0-0.1,0-0.1-0.1-0.1s-0.1,0.1-0.1,0.1s0,0.2,0.1,0.1C114.1,63,114.2,63,114.1,62.9
	C114.2,62.9,114.1,62.9,114.1,62.9L114.1,62.9z M111.6,55.3C111.6,55.3,111.6,55.3,111.6,55.3C111.5,55.2,111.5,55.2,111.6,55.3
	c-0.1-0.1-0.1,0-0.1,0C111.4,55.3,111.5,55.3,111.6,55.3C111.5,55.3,111.5,55.3,111.6,55.3L111.6,55.3z M113.6,65.1
	C113.6,65.1,113.5,65.1,113.6,65.1c-0.1,0.1-0.1,0.1-0.1,0.1C113.6,65.3,113.6,65.3,113.6,65.1C113.6,65.1,113.7,65.1,113.6,65.1
	L113.6,65.1z"/>
<path class="st8" d="M73.4,63.1c-0.1-1,0-1.7,0-2.4c0-1.2,0-2.4,0.1-3.6c0-0.7,0-1.4,0-2.1c0-0.3,0.1-0.5,0.4-0.6
	c0.4-0.3,0.9-0.4,1.4-0.3c0.6,0.1,1.2,0,1.8,0.1c1.5,0.2,2.6,1.4,2.7,2.8c0,0.5,0,1.1-0.1,1.6C79.4,60,78.2,61,76.8,61
	c-0.5,0-1,0-1.5,0c-0.2,0-0.4,0.1-0.3,0.3c0.1,0.2,0.1,0.5,0.1,0.7c0,1,0.2,2.1,0.1,3.1c0,0.5,0,0.5-0.5,0.6h-0.1
	c-0.4,0.4-0.7,0.1-1-0.1c-0.2-0.1-0.4-0.4-0.3-0.6C73.4,64.3,73.4,63.6,73.4,63.1z M75,56.8c0,0.3,0,0.7-0.1,1c0,0.3,0,0.7-0.1,1
	s0,0.4,0.2,0.4c0.4,0.1,0.8,0.2,1.2,0.1c0.4,0,0.8-0.2,1.1-0.5c0.7-1,0.4-2.3-0.6-3c0,0,0,0,0,0c-0.3-0.2-0.6-0.2-0.9-0.2
	c-0.1,0-0.3,0-0.4,0c-0.4,0-0.4,0.1-0.4,0.4C75,56.3,75,56.5,75,56.8z"/>
<path class="st10" d="M125.6,65.7c-0.6,0-0.7-0.1-0.8-0.6c-0.1-0.4-0.2-0.8-0.2-1.1c0-0.3-0.2-0.4-0.5-0.4h-1.6
	c-0.5,0-0.6,0.1-0.7,0.6c0,0.5-0.2,1-0.4,1.4c-0.1,0.1-0.1,0.2-0.3,0.3l-0.9,0.1c-0.3,0-0.4-0.1-0.5-0.4c-0.1-0.2-0.1-0.4,0-0.6
	c0.2-0.6,0.3-1.1,0.4-1.7c0.2-0.8,0.4-1.6,0.6-2.3c0.4-1.8,0.7-3.5,1-5.3c0.1-0.3,0-0.6,0.1-0.8c0-0.6,0.5-1,1-1c0,0,0.1,0,0.1,0
	c0.8,0,1,0.2,1.2,1c0.6,3.1,1.3,6.2,2,9.3c0.1,0.3,0.1,0.6,0.2,0.8c0.1,0.6,0,0.7-0.6,0.7L125.6,65.7z M123,62.1h0.8
	c0.3,0,0.4-0.1,0.3-0.4s-0.1-0.7-0.1-1c-0.1-0.9-0.4-1.8-0.6-2.7c0-0.1-0.1-0.2-0.2-0.2c-0.1,0-0.2,0.1-0.2,0.2
	c-0.1,0.3-0.1,0.5-0.2,0.8c-0.2,0.9-0.4,1.9-0.6,2.8c-0.1,0.4,0,0.4,0.3,0.5S122.9,62.1,123,62.1z M120.6,65.3L120.6,65.3
	c-0.1,0,0,0.1,0,0.1s0.1,0,0.1-0.1S120.6,65.3,120.6,65.3z"/>
<path class="st8" d="M98.3,57.4c0,0.1-0.1,0.2-0.1,0.3c-0.9,1.7-1.8,3.3-2.7,5c-0.2,0.4-0.4,0.8-0.6,1.2s-0.1,0.4,0.3,0.4
	c0.8,0,1.5,0,2.3-0.2C97.7,64,98,64,98.2,64c0.2,0,0.3,0,0.4,0.1c0.4,0.3,0.3,0.7,0.2,1.1s-0.2,0.6-0.6,0.6s-0.8,0-1.2,0
	c-0.4,0-0.9,0-1.3,0.1c-0.1,0.1-0.3,0.1-0.4,0c-0.3-0.1-0.7-0.1-1,0c-0.3,0.1-0.7,0.1-1,0c-0.4,0-0.7-0.4-0.7-0.8c0-0.1,0-0.1,0-0.2
	c0-0.2,0.1-0.4,0.2-0.5c1.2-2.4,2.4-4.8,3.8-7.1c0.3-0.4,0.5-0.9,0.7-1.3c-0.2-0.1-0.4-0.1-0.6-0.1l-2.9,0.1c-0.6,0-0.8-0.1-0.8-0.7
	c0-0.1,0-0.3,0-0.4c0-0.3,0.4-0.6,0.6-0.5c0.5,0.1,1,0.1,1.5,0c1,0,2.1,0,3.1-0.1c0.3,0,0.5,0,0.8,0.1c0.4,0.1,0.5,0.3,0.4,0.6
	c0,0.1-0.1,0.3-0.1,0.4c-0.3,0.5-0.5,1-0.8,1.5c-0.1,0-0.2-0.2-0.3,0c-0.1,0.2-0.2,0.4-0.2,0.6C98.1,57.4,98.2,57.4,98.3,57.4z
	 M93.7,65.6c-0.1,0-0.1,0-0.1,0.1s0,0.1,0.1,0.1c0,0,0.1,0,0.1-0.1c0,0,0,0,0,0C93.8,65.6,93.8,65.6,93.7,65.6L93.7,65.6z"/>
<path class="st9" d="M88.2,57.9c0.1-0.4,0.4-0.7,0.4-1.1c0-0.1,0.1-0.4,0.2-0.4s0.1-0.1,0.1-0.3s-0.1-0.3-0.3-0.3l-2.3,0.1
	c-0.3,0-0.6,0-1,0s-0.4-0.1-0.4-0.4c0-0.3,0-0.5,0.1-0.8c0.1-0.3,0.4-0.6,0.7-0.5c0,0,0,0,0,0c0.2,0,0.4,0.1,0.6,0.1
	c1.3,0,2.5,0,3.8-0.1c0.2,0,0.5,0,0.7,0.1c0.3,0,0.6,0.3,0.6,0.6c0,0.1,0,0.3-0.1,0.4c-0.4,0.9-0.9,1.8-1.3,2.7
	c-0.4,0.8-0.8,1.5-1.2,2.2c-0.7,1.2-1.3,2.4-1.9,3.6c0,0.1-0.1,0.2,0,0.3h2.4c0.3,0,0.6,0,0.9-0.1c0.3-0.1,0.7,0.1,0.8,0.4
	c0,0.1,0,0.3,0,0.4c-0.1,0.6-0.6,1-1.2,1c-1.3,0-2.7,0-4,0c-0.4,0-0.8-0.3-1-0.6c-0.1-0.1-0.3-0.3,0-0.3c-0.1-0.9,0.6-1.4,0.9-2.1
	c0.3-0.7,0.7-1.4,1.1-2.1c0.2-0.4,0.3-0.7,0.6-1.1s0.4-0.8,0.6-1.1h0.2c0.2,0,0.2,0,0.4-0.3c0.3-0.2,0.3-0.2,0.3-0.5
	c-0.2,0-0.2,0.3-0.4,0.4h-0.1L88.2,57.9z M85.8,55.5c0-0.1,0-0.1-0.1-0.1c0,0,0,0,0,0c-0.1,0-0.1-0.1-0.1-0.2s-0.2-0.1-0.2,0
	C85.4,55.4,85.5,55.6,85.8,55.5C85.7,55.6,85.8,55.5,85.8,55.5z M86.3,61.8c0,0.1,0.1,0.1,0.1,0.1s0.1,0,0.1-0.1
	c0-0.1,0-0.1-0.1-0.1c0,0,0,0,0,0C86.4,61.8,86.4,61.8,86.3,61.8z"/>
<path class="st8" d="M83.1,64.8c0,0.1,0,0.1,0,0.2c0,0.7-0.2,0.9-0.9,0.8c-0.9-0.1-1-0.2-0.9-1.1c0.1-1.1,0.1-2.2,0.1-3.3
	c0-2.1,0.3-4.2,0.1-6.3c0-0.1,0-0.1,0-0.2c0-0.3-0.1-0.6,0.2-0.8c0.3-0.2,0.6-0.3,1-0.3c0.2,0,0.2,0.1,0.3,0.2
	c0.2,0.3,0.3,0.6,0.2,0.9c-0.1,0.5-0.1,0.9-0.1,1.4c0,1.3-0.2,2.5-0.1,3.8s0,2.4,0,3.6C83.1,64.2,83.1,64.5,83.1,64.8z"/>
<path class="st10" d="M118.3,65.5c0,0.3-0.3,0.4-0.5,0.4c0,0,0,0-0.1,0h-0.3c-0.7,0-1-0.2-1-0.9s0-1.6,0.1-2.4
	c0.1-2.7,0.3-5.4,0.2-8.1c0-0.2,0.1-0.4,0.3-0.4c0,0,0,0,0,0c0.2-0.1,0.5-0.1,0.7-0.1c0.5,0.1,0.6,0.2,0.7,0.7
	c0.1,1.1-0.1,2.2-0.1,3.3c0,0.2,0,0.3,0,0.5c0,0,0,0,0,0.1v3.6l0,0c0,0.2,0,0.5,0,0.7c-0.2-0.1-0.2-0.1-0.2,0.1c0,0.4,0,0.9,0,1.3
	S118,65.1,118.3,65.5z"/>
<path class="st1" d="M99.1,72.6c-0.5-0.4-0.9-0.9-1.1-1.6c-0.1-0.5-0.3-0.9-0.4-1.4c0-0.1-0.1-0.2,0-0.3c0.1,0,0.2,0,0.3,0
	c0.2,0.1,0.4,0.3,0.5,0.4c0.3,0.4,0.6,0.3,0.8,0c0.2-0.3,0.3-0.6,0.3-1c0-0.3,0-0.5,0-0.8s0.1-0.3,0.3-0.4s0.3,0.1,0.4,0.3
	s0.1,0.6,0.1,0.9c0.1,0.4,0.2,0.7,0.5,0.9c0.2,0.3,0.4,0.3,0.6,0c0.1-0.2,0.3-0.3,0.4-0.4c0.1-0.1,0.2-0.1,0.3,0
	c0.1,0.1,0.1,0.2,0.1,0.3c-0.3,0.7-0.6,1.5-0.8,2.2c-0.1,0.2-0.2,0.3-0.3,0.4c-0.7,0.6-1.6,0.8-2.5,0.5c-1-0.2-2-0.7-2.8-1.3
	c-0.8-0.5-1.5-1.2-2.1-1.9c-0.1-0.1-0.3-0.3-0.2-0.5s0.4,0,0.5,0.1c0.5,0.3,1,0.6,1.5,0.9c0.2,0.1,0.4,0.2,0.6,0.2
	c0.2-0.2,0-0.4,0-0.6s-0.1-0.3,0.1-0.3c0.2,0,0.3,0,0.4,0.2c0,0.1,0.1,0.2,0.1,0.3c0.2,0.6,0.5,1.2,0.9,1.6c0.3,0.5,0.8,0.8,1.3,0.9
	c0.1,0.1,0.3,0.1,0.4,0.1L99.1,72.6z M99.9,70.6c-0.4,0.7-0.3,1.5,0.2,2.1C100.2,72.1,100.1,71.3,99.9,70.6L99.9,70.6z"/>
<path class="st1" d="M103.5,70.8c1.1-0.4,1.9-1.2,3-1.4c-0.5,1.2-3.9,3.3-5.7,3.5c0-0.2,0.1-0.2,0.2-0.2c1-0.4,1.7-1.3,2-2.3
	c0-0.1,0-0.1,0.1-0.2c0.1-0.1,0.2-0.1,0.3,0c0,0.1,0,0.1,0,0.2L103.5,70.8z"/>
<path class="st1" d="M118.3,65.5c-0.3-0.3-0.2-0.8-0.2-1.2s0-0.9,0-1.3c0-0.2,0.1-0.2,0.2-0.1C118.4,63.7,118.4,64.6,118.3,65.5z"/>
<path class="st1" d="M98.3,57.4c-0.1,0-0.2,0-0.2-0.1c0.1-0.2,0.1-0.4,0.2-0.6c0.1-0.1,0.2,0,0.3,0C98.6,57,98.5,57.2,98.3,57.4z"/>
<path class="st1" d="M88.1,58.4h-0.2c0-0.2,0.1-0.4,0.3-0.5l0.1,0.1L88.1,58.4z"/>
<path class="st4" d="M103.2,49.7c0.1,0,0.3,0.1,0.3,0.2C103.3,49.9,103.2,49.9,103.2,49.7z"/>
<path class="st0" d="M99.1,72.6l0.3,0.1c-0.1,0.1-0.3,0.1-0.4-0.1L99.1,72.6z"/>
<path class="st4" d="M102.8,49.4c0.1,0,0.3,0.1,0.3,0.2C103,49.7,102.9,49.6,102.8,49.4z"/>
<path class="st4" d="M16.2,50.3c0.1,0,0.3,0.1,0.3,0.2C16.4,50.5,16.3,50.4,16.2,50.3z"/>
<path class="st4" d="M59,50.8c0.1,0,0.2,0,0.2,0.1C59.1,50.9,59,50.9,59,50.8z"/>
<path class="st1" d="M15.4,49.5c0.1,0,0.1,0,0.1,0.1L15.4,49.5z"/>
<path class="st1" d="M118.4,58.5C118.3,58.5,118.3,58.5,118.4,58.5L118.4,58.5L118.4,58.5z"/>
<polygon class="st1" points="118.3,62.1 118.3,62.1 118.4,62.1 "/>
<path class="st11" d="M19.1,20.4c0-0.1,0.2-0.2,0.3-0.3c1.6-0.9,3.3-1.5,5.1-1.8c1.7-0.3,3.5,0,5.1,0.8c0.1,0.1,0.3,0.1,0.4,0.1l0,0
	l0.1,0.1c0.8,0.8,1.4,1.8,1.7,2.9c0.5,2,0.3,4.1-0.5,6c-0.3,0.7-0.7,1.4-1.3,2c-1.6,1.6-4.1,1.9-6,0.7c-0.2-0.1-0.3-0.2-0.5-0.3
	c-0.2-0.7-0.3-1.5-0.3-2.3c0-0.1,0-0.1,0-0.2c-0.1-0.7-0.1-1.4,0-2.1c0.2-0.8,0.3-1.7,0.3-2.5c0-0.8-0.3-1.6-1-2
	c-0.6-0.9-1.7-1.4-2.7-1.2L19.1,20.4z"/>
<path class="st7" d="M22.5,21.6c0.7,0.4,1,1.2,1,2c0,0.8-0.1,1.7-0.3,2.5c-0.1,0.7-0.1,1.4,0,2.1c0,0.1,0,0.1,0,0.2
	c0,0.8,0.1,1.5,0.3,2.3c-0.5-0.3-0.9-0.9-0.9-1.5c-0.3-1.6-0.3-3.3,0-4.9C22.8,23.3,22.8,22.4,22.5,21.6z"/>
<path class="st2" d="M16.3,22.3c0-0.1,0-0.1,0.1-0.1C16.4,22.2,16.3,22.2,16.3,22.3z"/>
<path class="st4" d="M30.2,19.4L30,19.3C30.1,19.3,30.2,19.3,30.2,19.4C30.2,19.4,30.2,19.4,30.2,19.4z"/>
<path class="st11" d="M67.2,28.5c0.2,0.3,0.4,0.6,0.4,0.9c0.4,1.1,0.5,2.2,0.4,3.3c-0.1,1-0.1,2-0.3,3c-0.1,0.9-0.5,1.7-1.2,2.3
	c-0.5,0.5-1.2,0.6-1.8,0.3c-0.1-0.7-0.1-1.4-0.2-2.2c-0.1-0.5,0.1-1,0.1-1.6c0-0.9,0.1-1.8,0.2-2.6c0-0.5,0.1-0.9,0.1-1.4
	c0-0.4,0.2-0.9,0.4-1.3c0.2-0.4,0.7-0.7,1.2-0.7C66.6,28.5,66.9,28.5,67.2,28.5z"/>
<path class="st7" d="M67.2,28.5c-0.3,0-0.5,0-0.8,0c-0.5,0-1,0.3-1.2,0.7c-0.2,0.4-0.4,0.8-0.4,1.3c0,0.5-0.1,0.9-0.1,1.4
	c0,0.9-0.2,1.7-0.2,2.6c0,0.5-0.1,1-0.1,1.6c0.1,0.7,0.2,1.4,0.2,2.2c-0.4-0.1-0.7-0.5-0.8-0.9c-0.2-1.4-0.2-2.7-0.1-4.1
	c0.1-1.1,0.2-2.1,0.2-3.2c0-0.6,0.2-1.2,0.5-1.8c0.5-0.7,1.5-0.8,2.2-0.3C66.9,28.2,67.1,28.4,67.2,28.5z"/>
<path class="st7" d="M73.3,26.7L73.3,26.7C73.3,26.8,73.3,26.8,73.3,26.7z"/>
<path class="st11" d="M49.3,34.7c0,0.7-0.1,1.3-0.3,2c-0.2,0.6-0.6,1-1.2,1.3c-0.7,0.5-1.5,0.5-2.2,0.1c0-0.4,0-0.7,0-1.1
	c0.2-0.8,0.8-1.5,1.6-1.7C47.9,35,48.6,34.8,49.3,34.7z"/>
<path class="st4" d="M49.3,34.7c-0.7,0.1-1.4,0.4-2.1,0.6c-0.8,0.3-1.4,0.9-1.6,1.7c0,0.4,0,0.7,0,1.1c-0.4-0.2-0.7-0.6-0.7-1.1
	c-0.2-0.9,0.2-1.8,1-2.2c0.4-0.2,0.8-0.4,1.2-0.5c0.6-0.1,1.1-0.3,1.7-0.5c0.2-0.1,0.3,0,0.4,0.2C49.3,34.2,49.4,34.4,49.3,34.7z"/>
<path class="st11" d="M86,34.9c0.1,0.9-0.2,1.9-0.7,2.7c-0.7,0.9-2,1.2-3,0.7c-0.1-0.3-0.1-0.7-0.1-1c0.1-0.7,0.6-1.3,1.3-1.7
	C84.3,35.2,85.2,35,86,34.9z"/>
<path class="st4" d="M86,34.9c-0.9,0.1-1.7,0.3-2.4,0.7c-0.7,0.3-1.1,0.9-1.3,1.7c-0.1,0.3,0,0.7,0.1,1c-0.5-0.2-0.8-0.7-0.8-1.2
	c-0.1-0.8,0.3-1.6,1-2c0.5-0.3,1-0.5,1.5-0.6c0.5-0.1,1-0.2,1.5-0.3s0.4-0.1,0.4,0.3C86,34.6,86.1,34.7,86,34.9z"/>
<path class="st11" d="M163.2,29.2c0.5,0.8,0.8,1.8,0.9,2.7c0.2,1.6-0.2,3.2-1,4.5c-0.8,1.2-2.4,1.6-3.7,0.8c-0.1,0-0.1-0.1-0.2-0.1
	c-0.1-0.1-0.1-0.2-0.2-0.3c-1-1.7-1.2-3.8-0.5-5.7c0.3-1,1.1-1.8,2.1-2.1c0.5-0.1,1.1-0.1,1.7,0c0.2,0.1,0.4,0.2,0.6,0.1l0,0
	C163,29.2,163.1,29.2,163.2,29.2z"/>
<path class="st7" d="M163,29c-0.2,0.1-0.4,0-0.6-0.1c-0.5-0.1-1.1-0.1-1.7,0c-1,0.3-1.9,1.1-2.1,2.1c-0.7,1.9-0.6,4,0.5,5.7
	c0.1,0.1,0.1,0.2,0.2,0.3c-0.8-0.6-1.3-1.5-1.5-2.5c-0.4-1.3-0.3-2.7,0.1-4c0.2-0.6,0.5-1.1,0.9-1.6c1.1-1.2,3-1.3,4.2-0.2
	C162.9,29,163,29,163,29z"/>
<path class="st7" d="M163.2,29.2c-0.1,0-0.2,0-0.1-0.1S163.1,29.1,163.2,29.2z"/>
<path class="st2" d="M174.7,23.6c0-0.1,0.1-0.2,0.2-0.2C174.9,23.6,174.8,23.6,174.7,23.6z"/>
<path class="st2" d="M174,24.2c0-0.2,0.1-0.2,0.2-0.2S174.1,24.2,174,24.2z"/>
<path class="st2" d="M175.1,23.4c0-0.2,0.1-0.2,0.2-0.1C175.3,23.4,175.2,23.4,175.1,23.4z"/>
<path class="st2" d="M175.3,23.3c0-0.1,0.1-0.2,0.2-0.1C175.5,23.3,175.4,23.3,175.3,23.3z"/>
<path class="st2" d="M174.4,23.9c0-0.2,0.1-0.2,0.2-0.2S174.5,23.8,174.4,23.9z"/>
<path class="st2" d="M174.1,24c0-0.1,0-0.1,0.1-0.1c0,0,0,0,0,0C174.3,24,174.2,24.1,174.1,24C174.2,24.1,174.2,24,174.1,24z"/>
<path class="st2" d="M174.6,23.7c0-0.1,0.1-0.1,0.1-0.1c0,0,0,0,0,0C174.7,23.7,174.7,23.7,174.6,23.7z"/>
<path class="st2" d="M174.3,24c0-0.1,0.1-0.1,0.1-0.1C174.4,23.9,174.3,24,174.3,24z"/>
<path class="st2" d="M174.9,23.5c0-0.1,0-0.1,0.1-0.1c0,0,0,0,0.1,0C175.1,23.5,175,23.5,174.9,23.5z"/>
<path class="st2" d="M173.9,24.3c0-0.1,0-0.1,0.1-0.1C174,24.2,173.9,24.3,173.9,24.3C173.9,24.3,173.9,24.3,173.9,24.3z"/>
<path class="st11" d="M183.4,18.6c0-1.2,0.9-2.1,2.1-2.1c1.2,0,2.1,0.9,2.2,2.1c0,1.2-0.9,2.1-2.1,2.2
	C184.4,20.8,183.4,19.9,183.4,18.6C183.4,18.7,183.4,18.6,183.4,18.6z M186,18.9c0.1-0.2,0.3-0.2,0.4-0.3c0.2-0.2,0.4-0.5,0.3-0.8
	c-0.1-0.3-0.3-0.5-0.7-0.5c-0.4,0-0.8,0-1.2,0c-0.2,0-0.3,0-0.3,0.2c0,0.7,0,1.5,0,2.2c0,0.1,0.1,0.2,0.2,0.2c0,0,0,0,0,0
	c0.2,0,0.2-0.1,0.2-0.3s0-0.4,0-0.6s-0.1-0.3,0.1-0.4c0.2-0.1,0.4,0,0.5,0.2c0.1,0.2,0.3,0.4,0.4,0.7s0.1,0.3,0.3,0.3
	c0.1,0.1,0.2,0.1,0.3,0c0.1-0.1,0-0.1,0-0.2L186,18.9z"/>
<path class="st1" d="M103.8,54.4c0.1,0,0.1,0,0.1,0.1c0,0,0,0-0.1,0.1C103.8,54.6,103.8,54.6,103.8,54.4
	C103.8,54.4,103.8,54.5,103.8,54.4z"/>
<path class="st0" d="M110.2,57.8c-0.1-0.4,0-0.9,0.2-1.3c0.1-0.1,0-0.4,0-0.6s0-0.4,0.3-0.3s0.2,0,0.3-0.1c1.1-0.3,2.2,0.4,2.4,1.4
	c0.1,0.3,0.1,0.5,0,0.8v0.1c-0.3,1.1-0.6,1.4-1.7,1.4c-0.3,0-0.6,0-0.8,0c-0.4,0-0.7-0.4-0.7-0.8C110.2,58.3,110.2,58.1,110.2,57.8z
	"/>
<path class="st0" d="M114.4,63.4c0.1,0.6,0.3,1.1,0.4,1.7c0,0,0,0.1,0,0.1s-0.2-0.1-0.2-0.1C114.6,64.4,114.3,63.9,114.4,63.4z"/>
<path class="st0" d="M110.3,64.9c0.1,0,0.1,0.1,0.2,0.2c0.1,0.1,0.1,0.1,0,0.2c0,0,0,0,0,0c0,0-0.1,0.1-0.1,0s0-0.1-0.1-0.2
	S110.2,65,110.3,64.9z"/>
<path class="st1" d="M113.6,60.3c-0.1-0.2,0-0.3,0.1-0.5c0.1,0.1,0.1,0.2,0.1,0.3C113.7,60.1,113.6,60.2,113.6,60.3z"/>
<path class="st0" d="M114.7,65.7v-0.4c0.1,0,0.1,0,0.1,0S114.7,65.6,114.7,65.7L114.7,65.7z"/>
<path class="st0" d="M110.5,55.3c0.1,0,0.1,0,0.1,0.1c0,0,0,0.1,0,0.1c0,0,0,0-0.1,0C110.5,55.5,110.4,55.4,110.5,55.3L110.5,55.3z"
	/>
<path class="st0" d="M114.1,62.9c0,0.1,0,0.1-0.1,0.1c0,0,0,0,0,0c-0.1,0-0.1-0.1-0.1-0.1s0-0.1,0.1-0.1S114.1,62.9,114.1,62.9z"/>
<path class="st1" d="M111.6,55.3C111.6,55.3,111.5,55.3,111.6,55.3c-0.1,0-0.1,0-0.1-0.1c0,0,0,0,0,0c0,0,0.1,0,0.1,0
	C111.6,55.2,111.6,55.3,111.6,55.3z"/>
<path class="st1" d="M113.6,65.1C113.6,65.1,113.7,65.1,113.6,65.1c0.1,0.1,0.1,0.2,0,0.1C113.6,65.2,113.6,65.2,113.6,65.1
	C113.6,65.2,113.6,65.1,113.6,65.1z"/>
<path class="st0" d="M75,56.8c0-0.3,0-0.5,0-0.7c0-0.4,0.1-0.5,0.4-0.4c0.1,0,0.3,0,0.4,0c0.3-0.1,0.6,0,0.9,0.2c1,0.7,1.3,2,0.6,3
	c0,0,0,0,0,0c-0.3,0.3-0.7,0.5-1.1,0.5c-0.4,0-0.8,0-1.2-0.1c-0.2,0-0.3-0.2-0.2-0.4s0-0.7,0.1-1C75,57.5,75,57.2,75,56.8z"/>
<path class="st0" d="M123,62.1c-0.1,0-0.4,0-0.6,0s-0.4-0.1-0.3-0.5c0.2-0.9,0.4-1.9,0.6-2.8c0.1-0.3,0.1-0.5,0.2-0.8
	c0-0.1,0.1-0.2,0.2-0.2c0.1,0,0.2,0.1,0.2,0.2c0.2,0.9,0.5,1.8,0.6,2.7c0,0.3,0.1,0.7,0.1,1s-0.1,0.4-0.3,0.4L123,62.1z"/>
<path class="st0" d="M120.6,65.3c0,0,0.1,0,0.1,0.1s0,0.1-0.1,0.1S120.5,65.4,120.6,65.3C120.5,65.2,120.5,65.3,120.6,65.3z"/>
<path class="st0" d="M93.7,65.6c0.1,0,0.1,0,0.1,0.1c0,0-0.1,0.1-0.1,0.1c0,0,0,0,0,0c0,0-0.1,0-0.1-0.1S93.7,65.6,93.7,65.6z"/>
<path class="st1" d="M85.8,55.5C85.8,55.5,85.7,55.5,85.8,55.5c-0.3,0-0.4-0.2-0.4-0.4c0-0.1,0.2-0.1,0.2,0s0,0.1,0.1,0.2
	c0.1,0,0.1,0,0.1,0.1C85.9,55.5,85.8,55.5,85.8,55.5z"/>
<path class="st1" d="M88.4,58c0.2-0.1,0.2-0.3,0.4-0.4C88.8,57.9,88.8,57.9,88.4,58C88.4,58.1,88.4,58.1,88.4,58z"/>
<path class="st0" d="M88.4,58C88.4,58,88.4,58.1,88.4,58c-0.2,0.4-0.2,0.4-0.4,0.4l0.3-0.4H88.4z"/>
<path class="st1" d="M86.3,61.8c0,0,0.1-0.1,0.1-0.1c0.1,0,0.1,0,0.1,0.1c0,0,0,0,0,0c0,0.1-0.1,0.1-0.1,0.1S86.3,61.9,86.3,61.8z"
	/>
<path class="st0" d="M99.9,70.6c0.2,0.7,0.3,1.4,0.2,2.1C99.6,72.1,99.5,71.3,99.9,70.6z"/>
<path class="st7" d="M186,18.9l0.6,0.9c0,0.1,0.1,0.1,0,0.2c-0.1,0.1-0.2,0.1-0.3,0c-0.1-0.1-0.2-0.2-0.3-0.3s-0.3-0.4-0.4-0.7
	c-0.1-0.2-0.3-0.3-0.5-0.2c-0.2,0.1-0.1,0.2-0.1,0.4s0,0.4,0,0.6s0,0.3-0.2,0.3c-0.1,0-0.2-0.1-0.2-0.2c0,0,0,0,0,0
	c0-0.7,0-1.5,0-2.2c0-0.2,0.1-0.2,0.3-0.2c0.4,0,0.8,0,1.2,0c0.3,0,0.6,0.2,0.7,0.5c0.1,0.3,0,0.6-0.3,0.8
	C186.3,18.7,186.1,18.7,186,18.9z M185.6,18.4c0.1,0,0.2,0,0.3,0c0.2,0,0.4-0.3,0.4-0.5c0-0.2-0.2-0.3-0.4-0.4c-0.3,0-0.6,0-0.8,0
	c-0.1,0-0.1,0-0.2,0.1c-0.2,0.2-0.1,0.6,0.2,0.7c0.1,0.1,0.2,0.1,0.3,0.1L185.6,18.4z"/>
<path class="st11" d="M185.6,18.4h-0.2c-0.3,0-0.5-0.2-0.6-0.5c0-0.1,0-0.2,0.1-0.3c0-0.1,0.1-0.1,0.2-0.1c0.3,0,0.6,0,0.8,0
	c0.2,0,0.4,0.3,0.4,0.5c0,0.2-0.2,0.3-0.4,0.4C185.8,18.4,185.7,18.4,185.6,18.4z"/>
</svg>
