<?xml version="1.0" encoding="utf-8"?>
<!-- Generator: Adobe Illustrator 21.1.0, SVG Export Plug-In . SVG Version: 6.00 Build 0)  -->
<svg version="1.1" id="Layer_1" xmlns="http://www.w3.org/2000/svg" xmlns:xlink="http://www.w3.org/1999/xlink" x="0px" y="0px"
	 viewBox="0 0 209.5 82" style="enable-background:new 0 0 209.5 82;" xml:space="preserve">
<style type="text/css">
	.st0{fill:#4C1131;}
</style>
<title>Paradise Bakery &amp;amp; Cafe</title>
<path class="st0" d="M117.7,53.9c-1.6,1-2.6,1.7-3.7,2.5c-0.7,0.5-1.3,1-1.9,1.5c-1.8,1.3-4.1,2.1-5.6,0.6c-1-1-0.7-3.4-0.9-5.2
	c0-0.7,0.2-1.4,0.4-2c-2.7,2.2-5.1,4.4-7.7,6.2c-1.7,1.3-3.6,2.3-5.7,2.9c-3.1,0.9-5.3-1.9-4.3-5c2.3-6.7,5.6-12.7,11.4-16.9
	c1.8-1.3,3.8-2.2,6-2.6c3.6-0.7,4.8,0.7,6,5.9l3.6,0.7c-1.4,3.6-2.8,7-4.1,10.3c-0.1,0.5-0.2,1.1-0.1,1.6c0.6-0.1,1.5,0.1,1.9-0.3
	c3.8-3.6,7.7-7.1,11.3-11c2.5-2.8,5-5.3,8.6-6.7c4.3-1.7,5.9-1.1,8.2,3.2c1.8-3,3.5-5.8,5.3-8.5c4.3-6.6,8.1-13.5,13-19.5
	C164.6,5.1,171.4,0,180.8,0c1.1,0,2.1,0.4,2.9,1.2c-2.5,1.4-5.1,2.7-7.7,3.8c-6.1,2.2-10.3,6.8-14.3,11.4
	c-8,9.3-14.4,19.6-20.1,30.4c-0.8,1.9-1.5,3.8-2,5.8c-0.1,0.7-0.1,1.3,0,2c0.7-0.1,1.7,0,2.2-0.5c3-2.6,6.1-5.3,8.8-8.2
	c2.1-2.3,3.8-5,5.8-7.4c0.5-0.8,1.2-1.3,2-1.7c1.3-0.1,2.6-0.1,3.9,0c-0.4,1-0.9,2-1.4,2.9c-3.1,4.8-6.4,9.6-9.5,14.5
	c-0.3,0.9-0.5,1.8-0.6,2.7c7.3-1.9,11.4-7.6,17-11.1l0.8,0.6c-0.6,1.4-1.3,2.7-2.2,3.9c-4,4.4-9,7.7-14.5,9.7
	c-0.4,0.2-0.8,0.3-1.3,0.4c-4.6,1.1-5.6,0.4-6.1-4.1c-1.6,0.6-3.1,1.3-4.8,1.8c-3.4,1.2-5.4-0.5-5-4.1c0.1-0.8,0.2-1.7,0.3-3.3
	c-2.8,2.5-5.1,4.7-7.5,6.6c-1.5,1.2-3.1,2.1-4.8,2.9c-3.1,1.3-4.8,0.1-5-3.3C117.7,56.2,117.7,55.4,117.7,53.9z M94,54.9l0.7,0.9
	c1.1-0.3,2.1-0.8,3-1.4c3.5-2.9,6.7-6,10.3-8.9c2-1.6,1.5-3.2,0.4-4.9c-1.2-1.8-2.9-1.5-4.5-0.4C98.4,43.8,96.3,49.4,94,54.9
	L94,54.9z M123.6,55.1c3.5-0.2,13.8-9.4,15.2-13.5c-2.5-2.3-4-2.6-6.3-0.9C127.7,44.1,124.5,49.3,123.6,55.1L123.6,55.1z"/>
<path class="st0" d="M0,65.2c3.9-1.8,7.2-3.3,10.4-4.9c6.2-3.2,10-8.9,13.9-14.3c5.2-7.3,9.8-15,14.6-22.6
	c3.2-5.1,6.3-10.2,9.5-15.2c0.5-0.8,1-1.6,1.5-2.5c-4.6-1.3-13.5,1.3-16.1,4.8c-2.3,3-1.4,6.2-0.5,9.4c0.2,0.9,0.3,1.7,0.3,2.6
	c-0.8-0.4-2-0.6-2.4-1.3c-1.4-2.3-3-4.6-3.8-7.2c-1.2-4,0.2-6.4,3.8-8.5C38.2,1.4,46.2,0,54,1.5c4.2,0.8,8.5,1.3,12.4,2.8
	c11,4.1,11.2,14.2,4.9,21.6c-5.8,6.8-13.7,9.5-22.1,11c-4.1,0.7-8.4,0.7-12.5,1.2c-1.1,0.2-2,0.8-2.7,1.6
	c-3.9,5.6-7.4,11.4-11.4,16.8c-5.1,6.9-12.3,9.8-20.8,9.5C1.4,66,0.9,65.6,0,65.2z M37.5,34.2l0.4,1c5-0.7,10-1,14.9-2.1
	c4.6-1,8.8-3.3,12.3-6.5c4.2-3.9,5.8-9,4.2-13.6c-1.7-5-5.8-6.9-10.6-7.9c-1.8-0.4-3-0.1-4,1.6c-2.6,4.3-5.5,8.4-8.1,12.6
	C43.5,24.1,40.5,29.2,37.5,34.2L37.5,34.2z"/>
<path class="st0" d="M70.5,57.1c-0.9,0.7-1.7,1.4-2.6,2.1c-1.2,1-2.4,1.8-3.8,2.4c-2.6,0.9-4.4-0.4-4.1-3.1c0.2-2.4,0.9-4.8,1.5-7.7
	c-2.4,2.1-4.5,4.2-6.9,5.8c-2.3,1.4-4.8,2.5-7.5,3c-2.2,0.4-2.7-1.6-2.5-3.5c0.4-5.5,3.1-10,6.6-14.1c3-3.5,6.6-6.2,11.4-6.8
	c2.7-0.4,4.1,0.7,3.9,3.5c0,0.7-0.2,1.4-0.5,2.1c-0.4,0.7-0.9,1.4-1.5,2c-0.4-0.7-1.2-1.3-1.3-2.1c-0.3-2.5-1.9-2.5-3.4-1.5
	c-1.6,0.9-2.9,2.1-3.9,3.6c-1.9,3.1-3.5,6.4-5.2,9.6c-0.2,0.4,0.1,1.1,0.2,1.7c0.6-0.1,1.2,0,1.7-0.3c4.2-3,8.3-6.1,12.5-9.1
	c1.7-1.2,3.4-2.4,5.8-0.8c-2,4.3-5.2,8-5.6,13c4.3-2.9,8.9-5.3,11.1-10.3c1.3-2.9,2.6-5.7,3.7-8.6c1-2.7,3-1.9,5.2-1.8v3.2
	c1.7-1,3.2-2.3,5.1-3s4.3-1.2,5.2,1.3s-1.1,3.7-2.5,5c-0.4-0.2-0.6-0.2-0.7-0.3c-1.9-3.3-2.5-3.5-5.2-0.7
	c-4.2,4.6-7.8,9.7-10.5,15.4c-0.9,1.7-1.3,4.1-3.9,4.3c-0.9,0-1.7-0.1-2.5-0.3c0.1-0.8,0.2-1.5,0.4-2.3c0.1-0.4,0.3-0.8,0.5-1.2
	L70.5,57.1z"/>
<path class="st0" d="M185.4,49.5c-0.4,1.1-0.8,2.2-1,3.4c-0.5,3.4,1.4,5.1,4.7,3.9c2.4-0.8,4.8-2,6.9-3.5c3.1-2.3,6-5.1,9-7.6
	c0.9-0.8,1.9-1.4,2.8-2.2l0.7,0.5c-0.3,1.1-0.8,2.2-1.5,3.1c-5,5.5-10.7,9.9-17.8,12.4c-1.5,0.4-3,0.7-4.5,0.7
	c-4,0.2-5.8-1.9-5.6-5.9c0.4-7.6,10.4-17.7,17.3-17.7c1.6,0,4.3,0.5,4.6,1.5c0.5,1.4-0.3,3.7-1.2,5
	C196.3,47.6,191.1,48.5,185.4,49.5z M186.2,47.3l0.5,0.5c1.4-0.7,2.8-1.5,4.1-2.3c1.7-1.2,3.3-2.6,4.8-4.1c0.3-0.3,0.2-1.1,0.2-1.7
	c-0.6,0-1.6-0.3-1.9,0.1C191.4,42.2,188.8,44.7,186.2,47.3L186.2,47.3z"/>
<path class="st0" d="M184.9,38.2c-1.4-0.5-2.9-1.4-4.3-1.3c-3.1,0.3-5.7,2-6,5.4c-0.1,2.1,0.2,4.2,0.9,6.3c1.2,4.7,1,8.9-2.7,12.6
	c-4.3,4.3-14.4,6.6-19.7,3.9c-0.7-0.5-1.4-1.1-1.9-1.7l0.4-0.8c0.9,0.1,1.8,0.2,2.7,0.4c8.9,2.3,20.8-6.1,16.6-17c-2-5,0-8.8,5-10.7
	c2.7-0.9,5.6-1.5,8.5-1.8c1.4-0.2,3.6-0.2,3.5,1.8c0,1.3-1.5,2.6-2.3,4L184.9,38.2z"/>
<path class="st0" d="M164.4,28.6c-0.6-0.6-1.2-1.2-1.7-1.9c1.4-1.5,2.8-3.2,4.6-4.1c1.2-0.6,2.6,0.5,2.5,2.2
	C169.8,26.8,167.7,28.5,164.4,28.6z"/>
<path class="st0" d="M81.8,18c0.2-2.9,0.2-5.8-0.1-8.7c2,0,4.1-0.2,6.1,0c2.6,0.2,3.2,1.4,2.1,3.8c-0.3,0.6,0.1,0.7,0.3,1
	c1.3,2,0.6,3.7-1.8,3.9C86.2,18.1,84.1,18,81.8,18z M86.3,16.4c0.9-0.3,2.6,0.3,2.4-1.2s-1.9-0.9-3-1c-0.7-0.1-1.8-0.4-1.7,1
	C84.1,17.2,85.6,15.9,86.3,16.4L86.3,16.4z M86.2,12.6c2,0,2.5-0.2,2.3-0.8c-0.4-1.3-1.6-0.7-2.4-0.8c-0.4,0-0.8,0-1.2,0
	c-0.6,0-0.8,0.3-0.8,0.9s0.3,0.8,0.9,0.8L86.2,12.6z"/>
<path class="st0" d="M135.8,18c-1.6,0.1-3.1,0.8-3.5-1.5c-0.1-0.3-0.4-0.6-0.6-0.8c-0.3-0.9-1.4-1.4-2.3-1.1c0,0,0,0,0,0
	c-1,0.4-0.4,1.4-0.5,2.2c0,0.4,0.1,0.8,0.2,1.1c-2,0.6-2.8,0.3-2.5-2c0.2-1.9,0.2-3.9-0.1-5.8c-0.1-0.8,0-1,0.8-1
	c1.9,0,3.7,0,5.6,0.1c1.2-0.1,2.3,0.8,2.6,2c0.4,1.1-0.2,2.3-1.3,2.8c-0.9,0.4-0.6,0.8-0.2,1.4C134.5,16.2,135.1,17,135.8,18z
	 M130.7,13c0.9-0.2,2.5,0.3,2.5-1c0-1.7-1.7-1.1-2.8-1.2c-0.8-0.1-1.7-0.3-1.6,1.1C128.8,13.6,129.9,12.9,130.7,13L130.7,13z"/>
<path class="st0" d="M121.7,12.3c0.2,0.8,0.2,1.7,0,2.5c-0.9-0.4-2-0.5-3-0.4c-0.8,0-1.1,0.4-1.1,1.1c0,0.8,0.5,0.9,1.1,0.9
	c1.4,0.1,2.9,0,4.3-0.1c0.9-0.1,1,0.2,0.9,0.8s0.4,1.3-0.7,1.2c-2.3-0.1-4.5-0.1-6.8-0.1c-0.7,0-1,0-1-1c0.1-2.3,0.1-4.5,0-6.8
	c-0.1-1,0.3-1.1,1.1-1.1c2.2,0,4.4,0,6.6-0.1c1,0,0.7,0.6,0.7,1s0.3,1.1-0.8,0.9c-1.4-0.1-2.9-0.2-4.3-0.2c-0.6,0-1.1,0.1-1.1,0.9
	s0.4,0.9,1,0.9C119.7,12.8,120.7,12.6,121.7,12.3z"/>
<path class="st0" d="M113.6,9.5c-1.1,0.9-2.1,1.8-3.2,2.5c-0.8,0.6-0.9,1.1-0.2,1.8c1.2,1.3,2.3,2.6,3.6,4.1
	c-1.6,0.2-3.1,0.7-3.8-1.3c-0.2-0.3-0.4-0.6-0.7-0.8c-0.6-0.5-0.8-1.8-2-1.4s-1,1.6-0.8,2.5c0.3,1.1-0.3,1.1-1,1.1s-1.4,0.2-1.3-1.1
	c0.2-2.3,0.2-4.5,0-6.8c-0.1-1.2,0.5-1.1,1.2-1s1.5-0.2,1.1,1c-0.1,0.7-0.1,1.4,0,2.1C109.2,11.8,110.2,7.8,113.6,9.5z"/>
<path class="st0" d="M102.6,18.1c-1.4,0-2.8,0.7-3.2-1.5c-0.2-1.1-4.3-0.9-4.4,0.2c-0.3,1.9-1.3,1.4-2.5,1.2c1.2-2.9,3-5.3,3.6-8.3
	c0.2-0.8,0.7-0.5,1.1-0.5c0.6,0,1.4-0.4,1.6,0.4C99.4,12.7,101.4,15.1,102.6,18.1z M98.1,14.5c0-0.9-0.4-1.8-1.1-2.4
	c-0.2,1-1,1.5-0.8,2.4H98.1z"/>
<path class="st0" d="M146.4,9.3c-0.9,1.1-1.5,2.2-2.3,3.1c-1.2,1.2-1.8,3-1.3,4.7c0.3,1.1-0.3,1-0.9,1s-1.6,0.5-1.4-0.8
	c0.8-3.6-2-5.4-3.7-8.1c1.5,0,3.1-1.1,3.7,1.4c0.1,0.6,0.6,1.6,1.4,1.7s1.2-1,1.4-1.6C143.6,8.9,144.8,9,146.4,9.3z"/>
<path class="st0" d="M118.7,74.7c0.1,1.6,0.7,3.2-1.8,2.2c-0.4,0-0.7,0-1.1,0c-0.8-0.1-1.4,0.1-1.4,1.1s0.6,1,1.3,1
	c1.4,0.1,2.7,0,4.1-0.1c0.9-0.1,1.3-0.1,1.3,0.9c0,0.8,0,1.2-1.1,1.1c-2.2-0.2-4.4-0.2-6.6-0.1c-0.9,0-1.2-0.1-1.1-1.2
	c0.1-2.2,0.1-4.4,0-6.6c-0.1-1.1,0.2-1.5,1.3-1.4c2.2,0.1,4.4,0,6.6-0.1c1.1-0.1,0.8,0.5,0.8,1s0.3,1.3-1,1
	c-1.4-0.2-2.8-0.2-4.3-0.1c-0.6,0-1.1,0-1.2,0.9s0.5,1,1.2,1C116.7,75.4,117.7,75.2,118.7,74.7z"/>
<path class="st0" d="M99.7,80.9c-1.5,0-3,0.6-3.4-1.6c-0.2-1.1-4.1-0.9-4.7,0.2c-0.8,1.5-0.8,1.5-2.5,1.1c1.1-2.9,3.1-5.4,3.7-8.5
	c0.2-0.8,0.7-0.6,1.1-0.5c0.6,0.1,1.5-0.4,1.6,0.4C96.2,75.2,98.3,77.7,99.7,80.9z M93,77.1c0.8-0.1,1.8,0.4,2-0.3s-0.4-1.5-0.9-2.1
	C93.5,75.4,93.1,76.2,93,77.1L93,77.1z"/>
<path class="st0" d="M87.3,72.5c-0.4,1.6-1.1,2.2-2.7,1.1c-1-0.6-2.3-0.6-3.3-0.1c-1.2,0.4-2,1.6-1.8,2.9c0.1,1.2,0.9,2.2,2.1,2.4
	c1.4,0.5,2.9,0.2,4.1-0.6c0.8-0.6,1-0.7,1.5,0.2s0.1,1.2-0.7,1.5c-1.7,0.9-3.7,1.2-5.6,0.7c-2-0.4-3.5-2.2-3.6-4.3
	c-0.1-2.1,1.3-3.9,3.3-4.5C82.9,71.1,85.1,71.8,87.3,72.5z"/>
<path class="st0" d="M108,77.5c-0.3-0.2-0.7-0.3-1-0.5c-2.8-0.6-3.4,0-3.1,2.8c0,0.4,0.7,0.8,0,1c-0.7,0.1-1.4,0.1-2.1,0
	c-0.7-0.1-0.2-0.6-0.2-1c0-2.4,0.1-4.7,0-7.1c-0.1-0.9-0.1-1.1,0.8-1.1c2.4,0,4.9-0.1,7.3-0.1c1,0,0.6,0.7,0.7,1.1s0.3,1.1-0.8,0.9
	c-1.4-0.2-2.8-0.2-4.3-0.2c-0.6,0-1.3-0.2-1.4,0.9s0.7,1,1.4,1c0.4,0,0.7,0,1.1,0C108.2,74.7,108.4,75.8,108,77.5z"/>
<path class="st0" d="M116.5,69.8c1.2-2.5,1.2-2.5,3.5-2.4C118.8,69.5,118.1,69.9,116.5,69.8z"/>
</svg>
