<?xml version="1.0" encoding="utf-8"?>
<!-- Generator: Adobe Illustrator 21.1.0, SVG Export Plug-In . SVG Version: 6.00 Build 0)  -->
<svg version="1.1" id="Layer_1" xmlns="http://www.w3.org/2000/svg" xmlns:xlink="http://www.w3.org/1999/xlink" x="0px" y="0px"
	 viewBox="0 0 227.4 42.1" style="enable-background:new 0 0 227.4 42.1;" xml:space="preserve">
<style type="text/css">
	.st0{fill:#FFFFFF;}
</style>
<title>Fast Food</title>
<path class="st0" d="M207.8,28.1l-0.3-1.8c-2.2,2-3.8,4.9-7,2.7c-1.5-1-2.6-4.3-1.5-6.8c1.9-0.1,3.9-0.2,5.8-0.4
	c0.8-0.1,1.5-0.5,2-1.1c1-1.5,0.1-5.8-1.1-7.1c-1-1.2-2.5-1.7-4-1.4c-3,0.7-5.4,3-6.1,6c-0.4,1.2-0.9,2.4-1.5,3.6
	c0.3,0.7,0.6,1.4,0.8,2.1c0.2,0.9,0,1.8,0.1,2.7c0.3,2.4,1.2,4.5,3.7,5.4c2.3,1,5,0.5,6.7-1.3L207.8,28.1c-0.4,0.8-0.8,1.7-1.1,2.6
	c-0.7,2.4,0.2,3.7,2.8,3.7c3.4,0,5.9-1.8,8-4.1c0.3-0.3,0.3-0.9,0.4-1.3l-0.4-0.4c-0.5,0.3-1.3,0.4-1.4,0.8
	c-0.4,2.2-2.2,2.2-3.7,2.4c-1.5,0.3-2.1-0.7-1.9-2.1c0.5-3.2,4.2-5.7,7.2-5c0.9,3.1,1.7,6,2.5,8.9c0.4,1.5,1.1,2.5,2.7,2.4
	c1.6-0.1,3-1.2,3.6-2.7c-2,0.7-2.5-0.6-2.9-1.8c-0.4-1.3-0.7-2.7-0.8-4.1c-0.3-2.4-0.3-2.4,1.6-4c-0.5-0.2-1-0.5-1.5-0.8
	c-0.5-0.3-0.8-0.8-1.1-1.3c-0.4-1.7-1-3.3-1.6-4.9c-0.6-0.9-1.5-1.4-2.6-1.5c-2.8,0.1-5.9,0.1-7.4,3.3c-0.3,0.6-0.5,1.3-0.6,2
	c0,0.1,0.7,0.6,0.9,0.5c0.8-0.2,1.5-0.6,2.1-1.2c0.5-0.5,0.4-1.5,0.8-2.1c0.4-0.5,0.9-0.8,1.5-0.9c0.5,0,1,0.2,1.4,0.6
	c0.7,1.7,1.2,3.4,1.8,5c-1.4,0.5-2.7,1.1-4,1.8C211.9,25.2,209.8,26.7,207.8,28.1z M43.4,16.7l3.1-0.2c-0.2,3-0.4,5.7-0.4,8.5
	c0,3.1,0.1,6.2,0.3,9.3c0.3,1.6,1.8,2.8,3.4,2.8c1.6-0.2,3.9-1.7,4.1-3c0-0.3-0.1-0.6-0.3-0.9c-0.2-0.1-0.6,0.1-0.9,0.2
	c-0.5,0.2-1.3,0.8-1.5,0.7c-0.7-0.5-1.1-1.2-1.4-2c-0.6-5-0.5-10,0.4-15c0.1-0.5,0.5-0.9,1-1c1.5-0.1,3,0.1,4.5,0.2
	c-0.7,1.7-0.3,3.7,1,5c0.9,1,1.7,2.2,2.6,3.2c1.4,1.6,2.8,3.1,3.1,5.2c0.1,1-0.3,2.1-1,2.8c-0.9,0.4-2,0.3-2.8-0.2
	c-0.8-0.5-1-1.7-1.6-2.5c-0.4-0.5-0.9-0.9-1.4-1.3c-0.4,0.5-1.1,1.1-1,1.5c0.1,1.2,0.6,2.3,1.3,3.3c2.4,2.4,5.9,2,8.3-0.6
	s2.6-6.1,0.3-8.5c-1.8-2-3.5-4.1-5.3-6.1c-0.8-0.9-1.1-2-0.1-2.7c0.9-0.5,1.9-0.8,2.9-0.7c1.5,0,1,1.6,1.5,2.4
	c0.4,0.5,0.9,0.9,1.5,1.1c0.2,0.1,1-0.5,1-0.8c0.1-1.4,0.1-2.9,0.1-4c-0.9-0.2-1.8-0.3-2.7-0.5c-2.6-0.7-4.8-0.5-6.6,1.7
	c-0.3,0.3-0.6,0.5-0.9,0.8L56,14.9h-5.3c-0.3-1.9-0.4-3.5-0.7-5.1c-0.6-3.1-3.6-3.6-5.6-2c2.5,1.3,1.8,3.7,2,5.8
	c0.1,0.9-0.2,1.4-1.2,1.7C44.5,15.5,43.1,15.2,43.4,16.7c-0.2-0.1-0.4-0.2-0.5-0.4c-1.6-4.3-5.6-5.2-8.9-1.9
	c-1.3,1.5-2.2,3.4-2.7,5.3c-0.3,0.7-0.8,1.5-1.3,2.1l0.6,3.2c0.2,1.7,0.5,3.3,1,4.9c1.1,2.9,4.4,4.3,7.2,3.1c0.6-0.2,1.2-0.6,1.7-1
	c0.6-0.5,1.2-1.1,1.7-1.7c0.5-0.8,1-1.7,1.3-2.6l-0.6-0.4L41.5,29c-2.1,2.3-4.8,2.3-6.2-0.7c-0.7-1.6-0.7-3.5-1-5.4
	c2.3-0.1,4.3-0.3,6.2-0.3c1.4,0.1,2.6-0.9,2.7-2.3c0-0.1,0-0.2,0-0.3C43.3,18.9,43.3,17.8,43.4,16.7z M124.6,24.7
	c0.2,0.6,0.4,1.3,0.6,1.9c0.2,1.2,0.1,2.5,0.4,3.6c0.3,1.9,1.4,3.6,3,4.6c2.7,1.5,5.6,0.6,7.6-2.1c0.7-1,1.2-2.1,1.8-3.1l-0.6-0.4
	c-0.5,0.5-1,1-1.4,1.6c-2,2.6-4.4,2.6-6-0.3c-0.5-1.1-0.9-2.3-1.3-3.6c-0.5-1.5,0-2.1,1.6-2.2c1.6,0,3.2-0.2,4.8-0.5
	c0.6-0.1,1.2-0.9,1.6-1.4c0.3-0.4,0.4-0.8,0.6-1.3h0.4c0.1,0.8,0.3,1.6,0.4,2.4c0.3,1.9,0.7,3.7,1.2,5.5c1.1,2.5,3.8,3.8,6.4,3.1
	c2.3-0.7,4.3-2.5,5.3-4.7c0.1-0.3,0-0.6,0-1.2c-0.9,0.9-1.7,1.7-2.7,2.5c-2.2,1.6-4,1.3-5.2-1.2c-0.6-1.4-0.9-2.9-1.1-4.5
	c0-0.3,0.7-1,1.1-1.1c1.7-0.2,3.5-0.4,5.2-0.4c1.3-0.1,2.3-0.4,2.2-2c0.1-1.6,0-3.1-0.2-4.7c-0.4-2.3-2.5-3.8-4.8-3.5
	c-0.1,0-0.2,0-0.3,0.1c-2.1,0.6-4.2,1.5-5.2,3.8c-0.6,1.3-0.9,2.7-1.5,4c-0.2,0.5-0.8,0.8-1.2,1.2c-0.3-0.4-0.6-0.9-0.8-1.3
	c-0.2-0.8-0.1-1.7-0.5-2.3c-0.6-1.1-1.5-1.9-2.6-2.5c-1.7-0.6-3.6-0.1-4.8,1.2c-1,1.1-2,2.4-2.7,3.3l-6.4-0.4
	c0.2-3.8,0.4-7.7,0.7-11.5c0.1-0.9,0.5-1.8,1-2.5c0.6-1,1.4-1.1,2.2-0.1c0.4,0.4,0.9,0.6,1.5,0.8c0.2-0.6,0.6-1.2,0.5-1.7
	c-0.2-0.6-0.6-1-1.2-1.2c-2.6-0.6-6.4,1.8-7.5,4.3s-0.9,5.2-1,7.9c-0.1,1.5,0,3.1,0,4.7l-3.6,0.2c-1.1-4-0.4-11.6,0.5-14.7
	c0.5-1.8,1.8-2.3,3.7-2.1c0.6,0.1,1.3-0.5,2-0.8c-0.6-0.4-1.1-1.2-1.7-1.2c-3.8-0.1-8.4,3.6-8.5,7.6c0,2.8,0,5.5,0,8.3
	c0,1,0.5,2.4,0,3s-1.9,0.6-3.1,0.9c0-0.6-0.1-1-0.1-1.5c-0.2-2.9-2.1-5.4-4.3-5.9s-5,1-6.2,3.5c-0.9,1.5-1.5,3.2-1.8,5
	c-0.3,3.2-0.8,6.5,1.3,9.4c1.4,2,4.1,2.6,6.3,1.4c2.3-1.4,3.9-3.6,4.4-6.2c0.3-1.5,0.5-2.9,0.5-4.4l2.9,0.5c0.1,1.9,0.3,3.8,0.4,5.7
	s-0.2,3.8-0.3,5.7c-0.1,1.9-1.4,2.9-2.8,2.5c-0.4-0.1-0.9-0.1-1.3,0c0.3,0.4,0.5,0.9,0.8,1.1c0.7,0.3,1.4,0.5,2.1,0.5
	c1.7-0.1,4.1-2.5,4.2-4.2c0.3-3.6,0.5-7.1,0.8-10.7c0-0.6,0.2-1.5,0.5-1.6c1.2-0.3,2.5-0.4,3.7-0.5c0.2,4.5,0.6,8.6,0.6,12.7
	c0,4.7-0.6,5.4-3.7,5.7c0.8,1.4,2.5,1.9,3.8,1.1c0.1-0.1,0.2-0.2,0.4-0.2c1.6-1.3,2.6-3.3,2.6-5.4c0.2-3.9,0.1-7.8,0-11.7
	c-0.1-2.6,0.4-3,2.8-2.6c0.9,0.1,1.9,0.1,2.8,0L124.6,24.7z M12.1,34.8c-3,0-2.9-1.8-3-3.5c0-0.8-0.2-1.6-0.2-2.4c0-2.6,0-5.1,0-7.8
	c0.4,0,0.6,0,0.9-0.1c5.2-0.7,11.1-4.2,11.8-10.2c0.6-5-0.1-8.2-4.5-10.1c-1.9-0.6-3.9-0.9-5.9-0.8C8,0,4.9,0,1.8,0.3
	C1.2,0.3,0.6,1.1,0,1.5c0.5,0.4,1,1,1.6,1.1C2.7,2.7,3.9,2.7,5,2.6v31.9l-2.6,0.3v0.7c2.8,0.1,5.6,0.1,8.4,0.1
	C11.1,35.7,11.4,35.3,12.1,34.8z M93.7,4.1C92,2.4,89.6,1.6,87.3,2c-5.6,0.7-9.3,4.2-11.5,9.1c-1.1,2.8-1.7,5.7-1.8,8.8
	c-0.1,3.2,0.3,6.4,1.1,9.4c0.7,2.2,1.9,4.2,3.6,5.7c3.2,2.8,7.2,2.9,11,1.3c2-0.7,3.6-2.3,4.3-4.4c-1.4-0.9-1.9,0.4-2.4,1
	c-1,1.3-2.7,2-4.4,1.9c-3.8-0.3-7.1-3.2-8.4-7.2c-1.8-5.2-1.8-10.8,0-16c0.9-2.6,2.1-5.1,4.6-6.7c1.6-1.2,3.8-1.4,5.6-0.6
	c1.8,0.9,2.8,2.8,2.4,4.8c-0.1,0.7-0.1,1.4,0,2.1c0.3,0.6,0.9,1.5,1.4,1.6c0.7-0.1,1.3-0.6,1.6-1.3c0.5-2.9,0.9-5.9,1.3-8.8
	l-0.4-0.3L93.7,4.1z M191.9,34.2c-0.2-1.2-0.5-2.4-0.5-3.6c-0.1-1,0.2-2.1,0.1-3.1c-0.1-1.4-0.4-2.7-0.3-4.1c0-1.1,0.5-2.1,0.6-3.2
	c0.3-5.3,0.5-10.5,0.7-15.8c0-0.4,0.5-1.1,0.7-1.1c1.8-0.2,3.7-0.1,5.5,0.2c1.9,0.5,3.2,0.3,4.3-1.6c-0.5-0.2-1.1-0.4-1.6-0.5
	c-4.7-0.1-9.4,0-14.2-0.1c-1.8,0-3.8,0.3-5.4-0.3c-2.2-0.8-3.4,0.1-5.2,1.3c3.7,2.3,7.5,0,11.1,0.8v31.3l-3.1,0.2
	c1.1,1,7.4,0.9,9.5-0.1L191.9,34.2z M180.3,17.8c-2.1,0.5-3.9,1-5.7,1.3c-1.3,0.2-2.5,0.3-3.8,0.5c-0.6,0.2-1.2,0.4-1.7,0.7l0.1,0.5
	c0.6,0.2,1.2,0.3,1.8,0.3c1.3-0.1,2.5,0.3,2.6,1.6c0.1,0.8-0.8,1.7-1.4,2.8c-0.8-0.9-1.2-1.3-1.6-1.8c-0.5-0.9-1.2-1.7-1.9-2.4
	c-1.6-1.3-1.8-3.3-0.3-4.6c0.7-0.5,1.3-1.1,1.8-1.8c0.4-0.7,0.5-1.6,0.3-2.4c-0.2-0.5-1.3-0.8-2-0.8c-3.6,0.2-6.4,3.8-5.7,7.2
	c0.2,0.7-0.1,1.5-0.7,1.8c-1.3,1-2.5,2.2-3.6,3.5c-2.1,2.6-1.1,5.4,1.9,6.7c2.2,1,4.7,0.8,6.8-0.4c2-1,3.4-1.1,5.4,0.4
	c1.9,1.6,5.8-0.4,6.1-2.8c-0.7,0.1-1.4,0.3-2.2,0.4c-1.3,0.1-2.5-0.6-3.2-1.7c-0.2-0.2,0.1-1,0.4-1.3c1.7-1.4,2.3-3.1,1.6-4.8
	C176.7,18.9,179.7,20.7,180.3,17.8L180.3,17.8z M16.4,23.5c0.3,1,0.5,1.9,0.7,2.7c0.4,1.9,0.5,3.8,1.2,5.5c0.8,2.1,2.8,3.4,5,3.4
	c2.9,0,4.4-1.8,5.8-3.8c0.4-0.6,0.7-1.3,0.9-2L29.3,29c-0.3,0.4-0.6,0.9-1,1.3c-1.1,1.4-2.3,2.5-4.3,1.9c-1.5-0.4-2.7-2.3-2.8-4.2
	c-0.2-0.9-0.4-1.8-0.8-2.7c0.6-0.4,1.2-0.6,1.9-0.8c1.5-0.2,3-0.1,4.5-0.3c0.7-0.1,1.9-0.6,2-1c0.2-2.1,0.1-4.2-0.2-6.3
	c-0.4-1.9-2.2-3.1-4.1-2.7c-3.2,0.5-5.8,2.9-6.5,6C17.8,21.4,18,23.1,16.4,23.5z M56,14c0.9-0.8,1.8-1.8,2.4-2.8
	c0.3-0.7,0.6-2-0.8-2.2c-1-0.1-2.3,1.6-2.1,2.6C55.6,12.2,55.8,12.8,56,14z"/>
<path d="M124.6,24.7l1.3-3.9c-0.9,0.1-1.9,0.1-2.8,0c-2.4-0.5-2.9,0-2.8,2.6c0.1,3.9,0.3,7.8,0,11.7c0,2.1-1,4.1-2.6,5.4
	c-1.2,1-3,0.7-4-0.5c-0.1-0.1-0.2-0.2-0.2-0.4c3.1-0.4,3.7-1.1,3.7-5.7c0-4.1-0.3-8.2-0.6-12.7c-1.2,0.1-2.5,0.2-3.7,0.5
	c-0.3,0.1-0.5,1-0.5,1.6c-0.3,3.6-0.5,7.1-0.8,10.7c-0.2,1.7-2.5,4-4.2,4.2c-0.7,0-1.5-0.2-2.1-0.5c-0.4-0.2-0.6-0.7-0.8-1.1
	c0.4-0.1,0.9-0.1,1.3,0c1.4,0.4,2.6-0.7,2.8-2.5s0.3-3.8,0.3-5.7s-0.2-3.8-0.4-5.7l-2.9-0.5c-0.1,1.5-0.3,3-0.5,4.4
	c-0.5,2.6-2.1,4.8-4.4,6.2c-2.1,1.3-4.9,0.7-6.3-1.4c-2.1-2.9-1.7-6.2-1.3-9.4c0.3-1.8,0.9-3.5,1.8-5c1.3-2.5,4.1-4,6.2-3.5
	s4.1,3,4.3,5.9c0,0.5,0.1,0.9,0.1,1.5c1.1-0.3,2.5-0.3,3.1-0.9s0-2,0-3c0-2.8,0-5.5,0-8.3c0.1-4,4.6-7.6,8.5-7.6
	c0.6,0,1.1,0.8,1.7,1.2c-0.7,0.3-1.4,0.8-2,0.8c-1.9-0.3-3.2,0.3-3.7,2.1c-0.9,3.1-1.6,10.7-0.5,14.7l3.6-0.2c0-1.6,0-3.1,0-4.7
	c0.1-2.7-0.1-5.3,1-7.9s4.9-4.8,7.5-4.3c0.6,0.2,1,0.7,1.2,1.2c0.1,0.5-0.3,1.2-0.5,1.7c-0.5-0.2-1-0.5-1.5-0.8
	c-0.8-1-1.6-0.9-2.2,0.1c-0.5,0.8-0.9,1.6-1,2.5c-0.3,3.8-0.5,7.7-0.7,11.5l6.4,0.4c0.7-0.9,1.6-2.2,2.7-3.3
	c1.2-1.3,3.1-1.8,4.8-1.2c1.1,0.6,2,1.4,2.6,2.5c0.4,0.6,0.3,1.6,0.5,2.3c0.2,0.5,0.4,0.9,0.8,1.3c0.4-0.4,1-0.7,1.2-1.2
	c0.6-1.3,0.9-2.7,1.5-4c1-2.2,3-3.2,5.2-3.8c2.2-0.6,4.5,0.8,5.1,3.1c0,0.1,0.1,0.2,0.1,0.3c0.2,1.5,0.2,3.1,0.2,4.7
	c0,1.6-0.9,1.9-2.2,2c-1.7,0-3.5,0.2-5.2,0.4c-0.4,0.1-1.1,0.8-1.1,1.1c0.1,1.5,0.5,3.1,1.1,4.5c1.2,2.5,3,2.8,5.2,1.2
	c0.9-0.8,1.8-1.6,2.7-2.5c0,0.6,0.1,0.9,0,1.2c-1,2.2-2.9,3.9-5.3,4.7c-2.6,0.7-5.4-0.6-6.4-3.1c-0.5-1.8-0.9-3.7-1.2-5.5
	c-0.2-0.8-0.3-1.6-0.4-2.4h-0.4c-0.1,0.5-0.3,0.9-0.6,1.3c-0.5,0.6-1,1.3-1.6,1.4c-1.6,0.3-3.2,0.4-4.8,0.5
	c-1.6,0.1-2.1,0.8-1.6,2.2c0.3,1.2,0.7,2.4,1.3,3.6c1.6,2.9,4,2.9,6,0.3c0.4-0.6,0.9-1.1,1.4-1.6l0.6,0.4c-0.6,1-1.1,2.1-1.8,3.1
	c-1.9,2.7-4.9,3.6-7.6,2.1c-1.6-1-2.7-2.7-3-4.6c-0.3-1.2-0.2-2.4-0.4-3.6C125,26,124.8,25.4,124.6,24.7z M95.8,23.7
	c0.6,2.1,1.1,4,1.8,6c0.3,0.6,0.9,1,1.5,1.1c0.7-0.1,1.3-0.6,1.6-1.2c1.8-3.8,1.8-8.2,0.2-12c-0.3-0.7-1.2-1.7-1.6-1.6
	c-0.8,0.2-1.6,0.8-1.9,1.6C96.6,19.5,96.3,21.5,95.8,23.7z M147.3,20.8c-0.2-1.9-0.2-3.4-0.5-4.9c-0.3-0.7-0.7-1.3-1.1-1.9
	c-0.7,0.5-1.7,0.8-2,1.5c-0.6,1.7-1.1,3.3-1.4,5c0.4,0.1,0.8,0.2,1.3,0.2C144.6,20.8,145.8,20.8,147.3,20.8L147.3,20.8z M132,16.5
	c-2.3,1-3.6,4.3-2.8,7.1l4.1-0.4C133.5,20.8,133.8,18.5,132,16.5z"/>
<path d="M43.4,16.7c-0.3-1.6,1.2-1.3,1.8-1.4c1.1-0.2,1.3-0.7,1.2-1.7c-0.2-2.1,0.5-4.5-2-5.8c2-1.6,5-1.1,5.6,2
	c0.3,1.6,0.5,3.2,0.7,5.1h5.3l0.1,0.4c0.3-0.2,0.6-0.5,0.9-0.8c1.8-2.2,4-2.5,6.6-1.7c0.8,0.3,1.8,0.3,2.7,0.5c0,1.1,0.1,2.6-0.1,4
	c0,0.3-0.8,0.9-1,0.8c-0.6-0.2-1.1-0.6-1.5-1.2c-0.5-0.8-0.1-2.3-1.5-2.4c-1-0.1-2,0.2-2.9,0.7c-1,0.7-0.7,1.8,0.1,2.7
	c1.8,2,3.5,4.1,5.3,6.1c2.2,2.4,2.1,5.8-0.3,8.5s-5.9,2.9-8.3,0.6c-0.7-0.9-1.2-2.1-1.3-3.3c-0.1-0.4,0.7-1,1-1.5
	c0.5,0.4,1,0.8,1.4,1.3c0.6,0.8,0.8,2,1.6,2.5c0.8,0.5,1.9,0.6,2.8,0.2c0.7-0.7,1.1-1.8,1-2.8c-0.3-2.1-1.8-3.7-3.1-5.2
	c-0.9-1-1.7-2.1-2.6-3.2c-1.3-1.3-1.7-3.3-1-5c-1.5-0.1-3-0.2-4.5-0.2c-0.5,0.1-0.9,0.5-1,1c-0.8,5-1,10-0.4,15
	c0.3,0.8,0.7,1.5,1.4,2c0.1,0.1,1-0.5,1.5-0.7c0.3-0.1,0.7-0.3,0.9-0.2c0.2,0.2,0.3,0.6,0.3,0.9c-0.2,1.3-2.5,2.8-4.1,3
	c-1.7,0-3.1-1.2-3.4-2.8c-0.3-3.1-0.4-6.2-0.3-9.3c0-2.8,0.3-5.5,0.4-8.5l-3.1,0.1L43.4,16.7z"/>
<path d="M12.1,34.8c-0.7,0.5-1,0.9-1.2,0.9c-2.8,0-5.6-0.1-8.4-0.1v-0.7l2.6-0.3V2.6C3.9,2.7,2.8,2.7,1.6,2.6C1.1,2.5,0.6,1.8,0,1.5
	C0.6,1,1.2,0.3,1.8,0.3C4.9,0.1,8,0,11.1,0c2-0.1,4,0.2,5.9,0.8c4.4,1.9,5.1,5.1,4.5,10.1c-0.7,6-6.5,9.5-11.8,10.2
	c-0.3,0-0.6,0.1-0.9,0.1c0,2.6,0,5.2,0,7.7c0,0.8,0.2,1.6,0.2,2.4C9.2,33.1,9.2,34.8,12.1,34.8z M8.8,19.3c3,0.1,5.8-1.2,6.9-3.5
	c0.9-1.8,1.5-3.7,1.9-5.7c0.8-4.4-2.4-7.8-7-7.6c-0.5,0.1-1,0.6-1.2,1.1C9.1,5.4,8.9,7.2,8.9,9.1C8.8,12.5,8.8,15.9,8.8,19.3z"/>
<path d="M93.7,4.1l1.6-1.7l0.4,0.3c-0.4,2.9-0.7,5.9-1.3,8.8c-0.3,0.7-0.9,1.2-1.6,1.3c-0.5,0-1.2-0.9-1.4-1.6
	c-0.1-0.7-0.1-1.4,0-2.1c0.3-2-0.6-3.9-2.4-4.8c-1.8-0.8-4-0.6-5.6,0.6c-2.5,1.6-3.7,4-4.6,6.7c-1.8,5.2-1.8,10.8,0,16
	c1.3,4,4.7,6.9,8.4,7.2c1.7,0.2,3.4-0.5,4.4-1.8c0.5-0.6,1-1.9,2.4-1c-0.7,2-2.3,3.6-4.3,4.4c-3.8,1.6-7.8,1.5-11-1.3
	c-1.7-1.5-3-3.5-3.6-5.7c-0.9-3.1-1.2-6.3-1.1-9.4c0-3,0.6-6,1.8-8.8C78,6.2,81.6,2.7,87.3,2C89.6,1.6,92,2.4,93.7,4.1z"/>
<path d="M191.9,34.2l2.1,0.5c-2.1,1-8.4,1.1-9.5,0.1l3.1-0.2V3.3c-3.6-0.8-7.4,1.5-11.1-0.8c1.8-1.2,3-2.1,5.2-1.3
	c1.6,0.6,3.6,0.2,5.4,0.3c4.7,0,9.4,0,14.2,0.1c0.6,0.1,1.1,0.3,1.6,0.5c-1,1.9-2.4,2.1-4.3,1.6c-1.8-0.3-3.6-0.4-5.5-0.2
	c-0.3,0-0.7,0.7-0.7,1.1c-0.3,5.3-0.4,10.5-0.7,15.8c-0.1,1.1-0.6,2.1-0.6,3.2c0,1.4,0.3,2.7,0.3,4.1c0,1-0.2,2.1-0.1,3.1
	C191.4,31.8,191.7,33,191.9,34.2z"/>
<path d="M180.3,17.8c-0.6,2.9-3.6,1-4.9,2.8c0.6,1.8,0,3.5-1.6,4.8c-0.3,0.3-0.6,1.1-0.4,1.3c0.6,1.1,1.9,1.8,3.2,1.7
	c0.7-0.1,1.4-0.2,2.2-0.4c-0.3,2.4-4.2,4.3-6.1,2.8c-1.9-1.6-3.3-1.5-5.4-0.4c-2.1,1.2-4.6,1.4-6.8,0.4c-3-1.4-4-4.1-1.9-6.7
	c1.1-1.3,2.3-2.4,3.6-3.5c0.6-0.4,0.9-1.1,0.7-1.8c-0.8-3.4,2.1-7,5.7-7.2c0.7,0,1.8,0.3,2,0.8c0.2,0.8,0.1,1.7-0.3,2.4
	c-0.5,0.7-1.1,1.3-1.8,1.8c-1.5,1.3-1.3,3.3,0.3,4.6c0.7,0.7,1.3,1.6,1.9,2.4c0.4,0.5,0.8,0.9,1.6,1.8c0.6-1.1,1.4-2,1.4-2.8
	c-0.1-1.3-1.3-1.7-2.6-1.6c-0.6,0-1.2-0.1-1.8-0.3l-0.1-0.5c0.6-0.3,1.1-0.5,1.7-0.7c1.3-0.2,2.6-0.2,3.8-0.5
	C176.4,18.8,178.2,18.3,180.3,17.8z M168.5,27.9l-4.9-6.7c-2.5,2.2-3.4,4.4-2.4,5.8C162.7,29.1,165.4,29.5,168.5,27.9L168.5,27.9z
	 M166.8,16.9c0.9-1.1,2.4-1.7,1.4-3.2c-0.5-0.3-1.2-0.4-1.8-0.1C165.6,14.7,165.6,15.8,166.8,16.9L166.8,16.9z"/>
<path d="M207.8,28.1c2.1-1.4,4.1-2.8,6.2-4.1c1.3-0.7,2.6-1.3,4-1.8c-0.5-1.6-1.1-3.3-1.8-5c-0.3-0.4-0.8-0.7-1.4-0.6
	c-0.6,0.1-1.1,0.4-1.5,0.9c-0.4,0.6-0.3,1.6-0.8,2.1c-0.6,0.6-1.3,1-2.1,1.2c-0.2,0.1-0.9-0.4-0.9-0.5c0.1-0.7,0.3-1.4,0.6-2
	c1.5-3.2,4.6-3.1,7.4-3.3c1,0.1,2,0.7,2.6,1.5c0.6,1.6,1.2,3.2,1.6,4.9c0.2,0.5,0.6,1,1.1,1.3c0.5,0.3,1,0.6,1.5,0.8
	c-1.9,1.6-1.9,1.6-1.6,4c0.2,1.4,0.4,2.7,0.8,4.1c0.4,1.2,0.9,2.4,2.9,1.8c-0.5,1.5-1.9,2.6-3.6,2.7c-1.6,0.1-2.3-0.9-2.7-2.4
	c-0.8-2.9-1.6-5.8-2.5-8.9c-2.9-0.7-6.7,1.8-7.2,5c-0.2,1.4,0.5,2.4,1.9,2.1c1.4-0.2,3.3-0.3,3.7-2.4c0.1-0.3,0.9-0.5,1.4-0.8
	l0.4,0.4c-0.1,0.4-0.1,1-0.4,1.3c-2.2,2.3-4.7,4.1-8,4.1c-2.5,0-3.5-1.3-2.8-3.7c0.3-0.9,0.7-1.8,1.1-2.7L207.8,28.1z"/>
<path d="M43.4,16.7c0,1.1-0.1,2.2-0.1,3.2c0,1.4-1.1,2.5-2.4,2.5c-0.1,0-0.2,0-0.2,0c-1.9,0.1-3.8,0.2-6.2,0.3
	c0.3,1.9,0.3,3.9,1,5.5c1.4,3.1,4.1,3,6.2,0.7l1.5-1.7l0.6,0.4c-0.4,0.9-0.8,1.7-1.3,2.6c-0.5,0.6-1.1,1.2-1.7,1.7
	c-2.3,2.1-5.8,1.9-7.9-0.4c-0.4-0.5-0.8-1.1-1-1.7c-0.5-1.6-0.8-3.2-1-4.9l-0.6-3.2c0.5-0.6,0.9-1.3,1.3-2.1c0.4-2,1.3-3.8,2.7-5.3
	c3.3-3.3,7.3-2.4,8.9,1.9C43.1,16.4,43.3,16.6,43.4,16.7L43.4,16.7z M39.7,21c-0.2-1.8-0.3-3.5-0.6-5.1c-0.1-0.6-0.7-1-1-1.6
	c-0.6,0.4-1.6,0.8-1.8,1.4c-0.6,1.7-1.1,3.5-1.5,5.3L39.7,21z"/>
<path d="M207.9,28l-2.7,2.5c-1.7,1.8-4.4,2.4-6.7,1.3c-2.4-1-3.4-3-3.7-5.4c-0.1-0.9,0.1-1.8-0.1-2.7c-0.2-0.7-0.4-1.4-0.8-2.1
	c0.6-1.2,1.1-2.3,1.5-3.6c0.8-3,3.1-5.3,6.1-6c1.5-0.3,3,0.2,4,1.4c1.3,1.4,2.2,5.7,1.1,7.1c-0.5,0.6-1.2,1-2,1.1
	c-1.9,0.3-3.9,0.3-5.8,0.4c-1.1,2.6,0,5.8,1.5,6.8c3.2,2.2,4.8-0.8,7-2.7L207.9,28L207.9,28z M203.4,20.5c-0.1-1.8-0.1-3.4-0.3-4.9
	c-0.1-0.6-0.8-1.4-1.1-1.4c-0.7,0.1-1.4,0.4-1.8,1.1c-0.6,1.7-1.2,3.4-1.7,5.1c0.3,0.1,0.7,0.2,1,0.2
	C200.6,20.5,201.8,20.5,203.4,20.5L203.4,20.5z"/>
<path d="M16.4,23.5c1.6-0.3,1.3-2.1,1.7-3.3c0.7-3.1,3.3-5.5,6.5-6c1.9-0.3,3.7,0.9,4.1,2.7c0.4,2.1,0.4,4.2,0.2,6.3
	c0,0.4-1.3,0.8-2,1c-1.5,0.2-3,0.1-4.5,0.3c-0.7,0.2-1.3,0.4-1.9,0.8c0.3,0.9,0.6,1.8,0.8,2.7c0.2,1.9,1.4,3.8,2.8,4.2
	c1.9,0.6,3.2-0.6,4.3-1.9c0.3-0.4,0.7-0.9,1-1.3l0.6,0.3c-0.2,0.7-0.6,1.4-0.9,2c-1.4,2-2.9,3.8-5.8,3.8c-2.2,0.1-4.2-1.3-5-3.4
	c-0.7-1.7-0.8-3.7-1.2-5.5C16.9,25.3,16.7,24.5,16.4,23.5z M21.4,22.5c3.8,1,5.1-0.2,4.3-3.8c-0.1-0.5-0.2-0.9-0.4-1.3
	c-0.4-1.2-1.6-1.5-2.3-0.4C21.8,18.5,21.2,20.5,21.4,22.5L21.4,22.5z"/>
<path d="M56,14c-0.3-1.3-0.4-1.8-0.5-2.4c-0.2-1,1.2-2.7,2.1-2.6c1.4,0.2,1.2,1.5,0.8,2.2C57.8,12.3,57,13.2,56,14z"/>
<path class="st0" d="M95.8,23.7c0.5-2.1,0.9-4.2,1.6-6.1c0.4-0.8,1.1-1.4,1.9-1.6c0.4-0.1,1.3,0.9,1.6,1.6c1.6,3.8,1.6,8.2-0.2,12
	c-0.3,0.6-0.9,1.1-1.6,1.2c-0.7-0.1-1.2-0.5-1.5-1.1C96.9,27.7,96.4,25.7,95.8,23.7z"/>
<path class="st0" d="M147.3,20.8c-1.6,0-2.7,0-3.9,0c-0.4-0.1-0.8-0.1-1.2-0.3c0.4-1.7,0.9-3.4,1.5-5.1c0.3-0.7,1.3-1,2-1.5
	c0.5,0.6,0.9,1.2,1.1,1.9C147.1,17.4,147.1,18.9,147.3,20.8z"/>
<path class="st0" d="M132,16.5c1.8,2,1.4,4.3,1.3,6.7l-4.1,0.4C128.5,20.8,129.8,17.5,132,16.5z"/>
<path class="st0" d="M8.8,19.3c0-3.4-0.1-6.8,0-10.2c0.1-1.9,0.3-3.7,0.6-5.6c0.2-0.5,0.6-0.9,1.2-1.1c4.6-0.2,7.9,3.2,7,7.6
	c-0.4,2-1,3.9-1.9,5.7C14.6,18,11.8,19.3,8.8,19.3z"/>
<path class="st0" d="M168.5,27.9c-3.1,1.6-5.8,1.2-7.2-0.9c-1-1.4-0.1-3.6,2.4-5.8L168.5,27.9z"/>
<path class="st0" d="M166.8,17c-1.2-1.1-1.2-2.3-0.4-3.3c0.6-0.3,1.2-0.2,1.8,0.1C169.2,15.3,167.7,15.9,166.8,17z"/>
<path class="st0" d="M39.7,21h-5c0.4-1.8,0.9-3.6,1.5-5.3c0.2-0.6,1.2-0.9,1.8-1.4c0.4,0.5,0.9,1,1,1.6C39.4,17.5,39.5,19.2,39.7,21
	z"/>
<path class="st0" d="M203.4,20.5c-1.6,0-2.8,0-3.9,0c-0.3,0-0.7-0.1-1-0.2c0.5-1.7,1-3.4,1.7-5.1c0.4-0.6,1.1-1,1.8-1.1
	c0.4,0,1.1,0.9,1.1,1.4C203.3,17.1,203.3,18.7,203.4,20.5z"/>
<path class="st0" d="M21.4,22.5c-0.2-2,0.4-4,1.7-5.6c0.7-1.1,1.9-0.8,2.3,0.4c0.2,0.4,0.3,0.9,0.4,1.3
	C26.5,22.2,25.1,23.5,21.4,22.5z"/>
</svg>
