<svg id="Layer_1" data-name="Layer 1" xmlns="http://www.w3.org/2000/svg" viewBox="0 0 150 150"><defs><style>.cls-1{fill:#ed3024;}.cls-2{fill:#ffcd34;}.cls-3{fill:#76bc21;}.cls-4{fill:#c9da2f;}.cls-5{fill:#f8c10a;}</style></defs><title>Dine</title><path class="cls-1" d="M37.91,68.34a14.79,14.79,0,0,0-.33,3.1c0,.08,0,.25,0,.48v.46a10.09,10.09,0,0,0,.36,3.17,3.87,3.87,0,0,0,1.42,1.78,4.77,4.77,0,0,0,6.27-.93,8,8,0,0,0,1.29-4.87c0-4.34-1.55-6.5-4.64-6.5a4.46,4.46,0,0,0-2.79.94,4.07,4.07,0,0,0-1.55,2.37m-.49-4v1a5.78,5.78,0,0,1,5-2.54,6.47,6.47,0,0,1,5.17,2.24,9.07,9.07,0,0,1,1.92,6.09,10,10,0,0,1-2,6.59A6.71,6.71,0,0,1,42,80.26a5.85,5.85,0,0,1-4.59-2V81a12.73,12.73,0,0,0,.06,1.6c.14.67.45,1,1,1a4.08,4.08,0,0,0,.68-.1,3.3,3.3,0,0,1,.69-.1.94.94,0,0,1,1,1.07c0,.72-.46,1.08-1.36,1.08A11.38,11.38,0,0,1,38,85.4a16.23,16.23,0,0,0-2.14-.1,9.39,9.39,0,0,0-1.3.07c-.87.1-1.44.16-1.72.16a1.36,1.36,0,0,1-.94-.34,1,1,0,0,1-.39-.78c0-.69.37-1,1.1-1a4.21,4.21,0,0,1,.61.08,4.15,4.15,0,0,0,.8.12.72.72,0,0,0,.76-.64A23.89,23.89,0,0,0,35,79.41V66.85q0-1.5-.84-1.5a3.59,3.59,0,0,0-.69.11,3.18,3.18,0,0,1-.73.12c-.79,0-1.19-.36-1.19-1.08s.48-1,1.43-1a7.28,7.28,0,0,1,.78,0c.54,0,.95.06,1.21.06s.47,0,.84-.05.64,0,.82,0c.54,0,.81.31.81.91"/><path class="cls-1" d="M54.93,69.29q0,.45.72.45h7.8q.69,0,.69-.45a4.06,4.06,0,0,0-1.31-3A4.27,4.27,0,0,0,59.76,65a4.91,4.91,0,0,0-3.33,1.31,3.87,3.87,0,0,0-1.5,3m11.81.82a4,4,0,0,1-.16,1.51c-.11.18-.43.27-1,.27H55.26a.89.89,0,0,0-.56.12.45.45,0,0,0-.13.37A5.88,5.88,0,0,0,56,76.47a4.86,4.86,0,0,0,6.28.86,3.61,3.61,0,0,0,1.55-2l.29-.94a1,1,0,0,1,1.08-.78,1.08,1.08,0,0,1,1.21,1.23,4.71,4.71,0,0,1-2.15,3.76,7.79,7.79,0,0,1-4.88,1.64A6.88,6.88,0,0,1,54,78a9,9,0,0,1-2-6.17,9.48,9.48,0,0,1,2.14-6.44,7.07,7.07,0,0,1,5.6-2.47,6.76,6.76,0,0,1,5.05,2,7.15,7.15,0,0,1,2,5.19"/><path class="cls-1" d="M78.2,75.21V73.13c0-.89.41-1.34,1.17-1.34s1.14.5,1.14,1.5c0,2.37-.3,4-.91,4.95a4.45,4.45,0,0,1-4,1.89,4.09,4.09,0,0,1-3.68-1.66,7.7,7.7,0,0,1-.81-4.1V66.56q0-.69-.63-.69H69.37a1.2,1.2,0,0,1-.88-.34,1.15,1.15,0,0,1,0-1.64,1,1,0,0,1,.77-.36h1.27c.37,0,.55-.21.55-.62V59.56a1.11,1.11,0,0,1,1.27-1.24c.78,0,1.17.41,1.17,1.24V63c0,.33.19.49.59.49h3.54c.83,0,1.24.38,1.24,1.14s-.44,1.2-1.33,1.2H74c-.31,0-.46.23-.46.69v8q0,3.42,2.28,3.42c1.54,0,2.34-.92,2.41-2.77"/><path class="cls-1" d="M85.13,69.29q0,.45.72.45h7.8q.69,0,.69-.45a4.06,4.06,0,0,0-1.31-3A4.27,4.27,0,0,0,90,65a4.91,4.91,0,0,0-3.33,1.31,3.87,3.87,0,0,0-1.5,3m11.81.82a4,4,0,0,1-.16,1.51c-.11.18-.43.27-1,.27H85.46a.89.89,0,0,0-.56.12.45.45,0,0,0-.13.37,5.88,5.88,0,0,0,1.47,4.09,4.86,4.86,0,0,0,6.28.86,3.61,3.61,0,0,0,1.55-2l.29-.94a1,1,0,0,1,1.08-.78,1.08,1.08,0,0,1,1.21,1.23,4.71,4.71,0,0,1-2.15,3.76,7.79,7.79,0,0,1-4.88,1.64A6.85,6.85,0,0,1,84.19,78a9,9,0,0,1-2-6.17,9.48,9.48,0,0,1,2.14-6.44,7.07,7.07,0,0,1,5.6-2.47,6.76,6.76,0,0,1,5,2,7.15,7.15,0,0,1,2,5.19"/><path class="cls-1" d="M104.26,64.36v.89a5.69,5.69,0,0,1,8.22-1.09,4.29,4.29,0,0,1,1.42,3.31,3.57,3.57,0,0,1-.72,2.32,2.3,2.3,0,0,1-1.89.9,1.84,1.84,0,0,1-1.27-.46,1.43,1.43,0,0,1-.52-1.1,1.3,1.3,0,0,1,.39-.93,1.25,1.25,0,0,1,.92-.41,1.83,1.83,0,0,1,.42.1,1.61,1.61,0,0,0,.19-.72,1.93,1.93,0,0,0-.83-1.59,3.19,3.19,0,0,0-2.06-.65,3.29,3.29,0,0,0-3.39,2.28,13.07,13.07,0,0,0-.52,4.23v2.14c0,1.46,0,2.27,0,2.44.1,1.24.44,1.86,1,1.86a4,4,0,0,0,.89-.11,2.56,2.56,0,0,1,.62-.08.92.92,0,0,1,1,1c0,.75-.44,1.12-1.33,1.12h-.13c-.33,0-.82,0-1.48-.11a13.05,13.05,0,0,0-1.48-.11c-.87,0-1.55,0-2,.06l-1.82.16c-.89,0-1.34-.38-1.34-1.14s.42-1,1.25-1a2.93,2.93,0,0,1,.49,0l.49.1a3.15,3.15,0,0,0,.46.06c.55,0,.85-.5.89-1.5V74.72l-.1-7.38c-.06-1.28-.39-1.92-1-1.92a3.72,3.72,0,0,0-.72.08,4.73,4.73,0,0,1-.72.08c-.71,0-1.07-.34-1.07-1s.47-1.12,1.4-1.12a9.8,9.8,0,0,1,1,.08,7.23,7.23,0,0,0,1,.08,5.86,5.86,0,0,0,.85-.08,2.22,2.22,0,0,1,.62-.08q.84,0,.84.93"/><path class="cls-1" d="M37.91,96.77a14.76,14.76,0,0,0-.33,3.09c0,.09,0,.26,0,.49v.46a10.09,10.09,0,0,0,.36,3.17,3.85,3.85,0,0,0,1.42,1.77,4.75,4.75,0,0,0,6.27-.92A8,8,0,0,0,46.89,100q0-6.51-4.64-6.51a4.46,4.46,0,0,0-2.79,1,4.07,4.07,0,0,0-1.55,2.37m-.49-4v1a5.79,5.79,0,0,1,5-2.53,6.44,6.44,0,0,1,5.17,2.24,9.07,9.07,0,0,1,1.92,6.09,10,10,0,0,1-2,6.59A6.7,6.7,0,0,1,42,108.68a5.84,5.84,0,0,1-4.59-2v2.7a12.53,12.53,0,0,0,.06,1.59c.14.68.45,1,1,1a3.83,3.83,0,0,0,.68-.09,3.3,3.3,0,0,1,.69-.1.94.94,0,0,1,1,1.07c0,.72-.46,1.08-1.36,1.08a13.58,13.58,0,0,1-1.46-.13,16.23,16.23,0,0,0-2.14-.1,11.58,11.58,0,0,0-1.3.06c-.87.11-1.44.17-1.72.17a1.41,1.41,0,0,1-.94-.34,1,1,0,0,1-.39-.79c0-.68.37-1,1.1-1a3.13,3.13,0,0,1,.61.08,3.94,3.94,0,0,0,.8.11.71.71,0,0,0,.76-.63,23.89,23.89,0,0,0,.18-3.53V95.28q0-1.5-.84-1.5a3.59,3.59,0,0,0-.69.11,3.18,3.18,0,0,1-.73.12c-.79,0-1.19-.36-1.19-1.08s.48-1,1.43-1l.78,0c.54,0,.95.07,1.21.07s.47,0,.84,0,.64,0,.82,0c.54,0,.81.31.81.91"/><path class="cls-1" d="M55.55,90.17a1.84,1.84,0,0,1-1.83-1.83,1.68,1.68,0,0,1,.54-1.26,1.82,1.82,0,0,1,2.57,0,1.68,1.68,0,0,1,.54,1.26,1.84,1.84,0,0,1-1.82,1.83m1.69,8.52v4.23q0,1.64,0,1.92c.11,1,.4,1.47.88,1.47a6,6,0,0,0,.81-.14,1.5,1.5,0,0,1,.49-.06c.83,0,1.24.36,1.24,1.06a1,1,0,0,1-.41.77,1.62,1.62,0,0,1-1,.32,12.44,12.44,0,0,1-1.58-.15,14.2,14.2,0,0,0-1.59-.14,14.89,14.89,0,0,0-1.89.13,16.22,16.22,0,0,1-1.7.16c-.87,0-1.3-.36-1.3-1.09s.37-1.06,1.11-1.06a5.87,5.87,0,0,1,.77.08,4.86,4.86,0,0,0,.78.09c.52,0,.84-.7.95-2.09V95.86c-.11-1.36-.44-2-1-2a3.33,3.33,0,0,0-.74.12,3.67,3.67,0,0,1-.7.11c-.79,0-1.18-.35-1.18-1s.47-1.11,1.43-1.11c.41,0,.7,0,.88,0a13.11,13.11,0,0,0,1.33.13,5.11,5.11,0,0,0,.8-.08,6.64,6.64,0,0,1,.79-.08c.64,0,.95.43.95,1.27a3.61,3.61,0,0,1,0,.39c0,.18,0,.31,0,.39s0,.85-.06,2c0,.89,0,1.8,0,2.73"/><path class="cls-1" d="M67.52,96.77a15.54,15.54,0,0,0-.32,3.09,4.15,4.15,0,0,1,0,.49v.46a10.09,10.09,0,0,0,.36,3.17,3.92,3.92,0,0,0,1.42,1.77,4.75,4.75,0,0,0,6.27-.92A8,8,0,0,0,76.5,100q0-6.51-4.63-6.51a4.47,4.47,0,0,0-2.8,1,4.12,4.12,0,0,0-1.55,2.37m-.49-4v1a5.82,5.82,0,0,1,5-2.53,6.46,6.46,0,0,1,5.18,2.24,9.07,9.07,0,0,1,1.92,6.09,10,10,0,0,1-2,6.59,6.69,6.69,0,0,1-5.45,2.45,5.86,5.86,0,0,1-4.59-2v2.7A11.84,11.84,0,0,0,67.1,111c.13.68.44,1,.94,1a4,4,0,0,0,.69-.09,3.23,3.23,0,0,1,.68-.1.94.94,0,0,1,1,1.07c0,.72-.45,1.08-1.36,1.08a13.58,13.58,0,0,1-1.46-.13,16.23,16.23,0,0,0-2.14-.1,11.71,11.71,0,0,0-1.3.06c-.86.11-1.44.17-1.72.17a1.43,1.43,0,0,1-.94-.34,1,1,0,0,1-.39-.79c0-.68.37-1,1.1-1a3,3,0,0,1,.61.08,4.11,4.11,0,0,0,.81.11.71.71,0,0,0,.75-.63,23.89,23.89,0,0,0,.18-3.53V95.28q0-1.5-.84-1.5a3.59,3.59,0,0,0-.69.11,3.11,3.11,0,0,1-.72.12q-1.2,0-1.2-1.08c0-.69.48-1,1.44-1l.78,0c.54,0,.94.07,1.2.07s.48,0,.85,0,.64,0,.81,0c.54,0,.81.31.81.91"/><path class="cls-1" d="M84.54,97.72q0,.45.72.45h7.81c.45,0,.68-.15.68-.45a4.05,4.05,0,0,0-1.3-3,4.31,4.31,0,0,0-3.07-1.27A5,5,0,0,0,86,94.77a3.87,3.87,0,0,0-1.5,3m11.82.82a3.83,3.83,0,0,1-.17,1.5c-.11.19-.42.28-1,.28H84.87a.91.91,0,0,0-.56.12.47.47,0,0,0-.13.37,5.88,5.88,0,0,0,1.47,4.09,4.73,4.73,0,0,0,3.66,1.64,4.61,4.61,0,0,0,2.62-.79,3.55,3.55,0,0,0,1.55-2l.3-.94a1,1,0,0,1,1.07-.79,1.08,1.08,0,0,1,1.21,1.24A4.68,4.68,0,0,1,93.91,107,7.79,7.79,0,0,1,89,108.68a6.85,6.85,0,0,1-5.43-2.29,9,9,0,0,1-2-6.17,9.49,9.49,0,0,1,2.15-6.44,7,7,0,0,1,5.6-2.47,6.74,6.74,0,0,1,5,2,7.15,7.15,0,0,1,2,5.19"/><path class="cls-1" d="M103.68,92.79v.89a5.69,5.69,0,0,1,8.22-1.09,4.27,4.27,0,0,1,1.41,3.3,3.66,3.66,0,0,1-.71,2.33,2.3,2.3,0,0,1-1.89.9,1.87,1.87,0,0,1-1.27-.46,1.4,1.4,0,0,1-.52-1.11,1.3,1.3,0,0,1,.39-.92,1.23,1.23,0,0,1,.91-.41,1.83,1.83,0,0,1,.42.1,1.64,1.64,0,0,0,.2-.72A2,2,0,0,0,110,94a3.22,3.22,0,0,0-2.07-.65,3.29,3.29,0,0,0-3.38,2.27,12.87,12.87,0,0,0-.52,4.23V102c0,1.46,0,2.27,0,2.44q.17,1.86,1,1.86a3.92,3.92,0,0,0,.88-.11,2.71,2.71,0,0,1,.63-.09.92.92,0,0,1,1.05,1c0,.75-.45,1.12-1.34,1.12h-.13c-.32,0-.82,0-1.48-.11a13.46,13.46,0,0,0-1.48-.12c-.87,0-1.55,0-2,.07l-1.82.16c-.89,0-1.33-.38-1.33-1.14s.41-1,1.24-1a2.85,2.85,0,0,1,.5,0l.49.09a2.31,2.31,0,0,0,.46.07c.55,0,.84-.5.89-1.5v-1.66l-.1-7.39c-.07-1.28-.39-1.92-1-1.92a3.88,3.88,0,0,0-.71.09,5,5,0,0,1-.72.08c-.72,0-1.07-.35-1.07-1s.46-1.12,1.39-1.12a9.59,9.59,0,0,1,1,.08,7.47,7.47,0,0,0,1,.08,5.87,5.87,0,0,0,.84-.08,2.28,2.28,0,0,1,.62-.08c.57,0,.85.31.85.93"/><path class="cls-2" d="M37.91,125.2a14.76,14.76,0,0,0-.33,3.09c0,.09,0,.25,0,.49v.46a10.09,10.09,0,0,0,.36,3.17,3.85,3.85,0,0,0,1.42,1.77,4.77,4.77,0,0,0,6.27-.93,7.92,7.92,0,0,0,1.29-4.86q0-6.51-4.64-6.51a4.46,4.46,0,0,0-2.79,1,4,4,0,0,0-1.55,2.37m-.49-4v1a5.8,5.8,0,0,1,5-2.54A6.44,6.44,0,0,1,47.57,122a9,9,0,0,1,1.92,6.08,10,10,0,0,1-2,6.59A6.71,6.71,0,0,1,42,137.11a5.84,5.84,0,0,1-4.59-2v2.7a12.65,12.65,0,0,0,.06,1.59c.14.67.45,1,1,1a3.23,3.23,0,0,0,.68-.1,4.16,4.16,0,0,1,.69-.1.94.94,0,0,1,1,1.08c0,.72-.46,1.07-1.36,1.07a11.38,11.38,0,0,1-1.46-.13,18.2,18.2,0,0,0-2.14-.1,11.28,11.28,0,0,0-1.3.07,16.92,16.92,0,0,1-1.72.16,1.4,1.4,0,0,1-.94-.33,1,1,0,0,1-.39-.79c0-.68.37-1,1.1-1a3.38,3.38,0,0,1,.61.09,4.84,4.84,0,0,0,.8.11.71.71,0,0,0,.76-.63,24.07,24.07,0,0,0,.18-3.54V123.7c0-1-.3-1.49-.84-1.49a2.93,2.93,0,0,0-.69.11,3.06,3.06,0,0,1-.73.11c-.79,0-1.19-.35-1.19-1.07s.48-1,1.43-1l.78,0c.54.05.95.07,1.21.07s.47,0,.84,0a7.69,7.69,0,0,1,.82-.05c.54,0,.81.3.81.91"/><path class="cls-2" d="M55.55,118.59a1.79,1.79,0,0,1-1.29-.53,1.76,1.76,0,0,1-.54-1.29,1.7,1.7,0,0,1,.54-1.27,1.85,1.85,0,0,1,2.57,0,1.7,1.7,0,0,1,.54,1.27,1.76,1.76,0,0,1-.54,1.29,1.78,1.78,0,0,1-1.28.53m1.69,8.53v4.23q0,1.64,0,1.92c.11,1,.4,1.46.88,1.46a5.35,5.35,0,0,0,.81-.13,1.5,1.5,0,0,1,.49-.06c.83,0,1.24.35,1.24,1.06a1,1,0,0,1-.41.77,1.62,1.62,0,0,1-1,.32,12.44,12.44,0,0,1-1.58-.15,12.12,12.12,0,0,0-1.59-.14,16.8,16.8,0,0,0-1.89.12c-.85.11-1.42.17-1.7.17-.87,0-1.3-.36-1.3-1.09s.37-1.06,1.11-1.06a5.87,5.87,0,0,1,.77.08,4.62,4.62,0,0,0,.78.08c.52,0,.84-.69.95-2.08v-8.33c-.11-1.37-.44-2.05-1-2.05a3.86,3.86,0,0,0-.74.11,3.15,3.15,0,0,1-.7.12c-.79,0-1.18-.35-1.18-1s.47-1.11,1.43-1.11c.41,0,.7,0,.88,0a13.11,13.11,0,0,0,1.33.13,6.76,6.76,0,0,0,.8-.08,6.64,6.64,0,0,1,.79-.08c.64,0,.95.42.95,1.27q0,.12,0,.39c0,.17,0,.3,0,.39s0,.84-.06,2c0,.89,0,1.8,0,2.73"/><path class="cls-2" d="M62.74,133.26l10.61-10.79h-5a18.35,18.35,0,0,0-3.06.14.73.73,0,0,0-.62.77,2.54,2.54,0,0,0,.07.58,9.32,9.32,0,0,1,.16,1.6q0,1.23-1.08,1.23c-.73,0-1.1-.47-1.1-1.43a7.62,7.62,0,0,1,0-.84,11.42,11.42,0,0,0,.13-1.4,9.09,9.09,0,0,0-.08-1,9.29,9.29,0,0,1-.08-1c0-.67.54-1,1.62-1,.34,0,.8,0,1.39,0s1.13.09,1.39.09h7.44c1.37,0,2,.5,2,1.51,0,.45-.41,1.1-1.23,1.93L64.92,134.48h7.74c1.28,0,1.92-.38,1.92-1.13v-.63a6.46,6.46,0,0,0-.06-1c0-.84-.07-1.24-.07-1.2a1.38,1.38,0,0,1,.33-.94,1,1,0,0,1,.81-.39c.7,0,1,.42,1,1.24a11.17,11.17,0,0,1-.06,1.14,16.45,16.45,0,0,0-.13,1.69,7.17,7.17,0,0,0,.1,1,8.81,8.81,0,0,1,.09,1c0,.84-.48,1.25-1.43,1.23H63.81a1.85,1.85,0,0,1-1.33-.49,1.61,1.61,0,0,1-.52-1.24,2.3,2.3,0,0,1,.78-1.63"/><path class="cls-2" d="M79.92,133.26l10.61-10.79h-5a18.35,18.35,0,0,0-3.06.14.73.73,0,0,0-.62.77,2.54,2.54,0,0,0,.07.58,8.42,8.42,0,0,1,.16,1.6c0,.82-.36,1.23-1.07,1.23s-1.11-.47-1.11-1.43a7.62,7.62,0,0,1,0-.84,12,12,0,0,0,.14-1.4,7.36,7.36,0,0,0-.09-1,9.29,9.29,0,0,1-.08-1c0-.67.54-1,1.62-1,.34,0,.81,0,1.39,0s1.13.09,1.39.09h7.45c1.36,0,2,.5,2,1.51,0,.45-.41,1.1-1.23,1.93L82.1,134.48h7.75c1.28,0,1.92-.38,1.92-1.13v-.63a5.24,5.24,0,0,0-.07-1q-.06-1.26-.06-1.2a1.43,1.43,0,0,1,.32-.94,1,1,0,0,1,.81-.39c.7,0,1,.42,1,1.24a8.94,8.94,0,0,1-.07,1.14c-.08.78-.13,1.35-.13,1.69a7.17,7.17,0,0,0,.1,1,9.3,9.3,0,0,1,.1,1q0,1.26-1.44,1.23H81a1.88,1.88,0,0,1-1.34-.49,1.61,1.61,0,0,1-.52-1.24,2.3,2.3,0,0,1,.78-1.63"/><path class="cls-2" d="M106.77,130.5v-2.31a4.07,4.07,0,0,1-1.51.91,14.37,14.37,0,0,1-2.83.46q-3.71.36-3.7,2.73a2.37,2.37,0,0,0,.9,2,3.79,3.79,0,0,0,2.42.71,4.74,4.74,0,0,0,3.43-1.19,4.36,4.36,0,0,0,1.29-3.27m3.64,6.48a3,3,0,0,1-3.28-2.31,5.86,5.86,0,0,1-5.21,2.44,6.38,6.38,0,0,1-4.21-1.3,4.27,4.27,0,0,1-1.58-3.48,4.22,4.22,0,0,1,2.31-4,6,6,0,0,1,1.51-.64c.42-.09,1.28-.22,2.56-.37a9.78,9.78,0,0,0,3.56-.82,2.08,2.08,0,0,0,.83-1.92,2.57,2.57,0,0,0-.93-2.1,4,4,0,0,0-2.59-.76,5,5,0,0,0-2.73.81c-.32.22-.49.45-.49.69,0,.08.1.19.3.32a1.29,1.29,0,0,1,.45,1.11,1.39,1.39,0,0,1-.47,1.07,1.67,1.67,0,0,1-1.19.43,1.89,1.89,0,0,1-1.41-.59,2,2,0,0,1-.57-1.43,3.76,3.76,0,0,1,1.8-3.12,7.31,7.31,0,0,1,4.38-1.31q5.92,0,5.92,5.69V132a12.57,12.57,0,0,0,.07,1.86c.13.75.5,1.13,1.11,1.13s1.13-.69,1.13-2.07v-1.58a.9.9,0,0,1,1-1q1,0,1,1.56v2q-.06,3.12-3.32,3.12"/><path class="cls-1" d="M109.56,30A22.34,22.34,0,1,1,87.22,7.62,22.34,22.34,0,0,1,109.56,30Z"/><path class="cls-3" d="M117.61,33.79c0-.46,0-.9-.06-1.35H80.67c0,.45-.07.89-.07,1.35a18.51,18.51,0,1,0,37,0Z"/><path class="cls-4" d="M80.65,32.44c0,.45-.05.9-.05,1.35A18.51,18.51,0,0,0,93.44,51.41a22.36,22.36,0,0,0,16-19Z"/><path class="cls-5" d="M117.92,27.36A21.35,21.35,0,0,0,106.75,8L95.12,27.44Z"/><path class="cls-1" d="M116,50.34a2,2,0,1,1-2-1.93A1.94,1.94,0,0,1,116,50.34Zm-3.47,0A1.5,1.5,0,0,0,114,51.88a1.48,1.48,0,0,0,1.47-1.53,1.49,1.49,0,1,0-3,0Zm1.19,1h-.45V49.41a5.94,5.94,0,0,1,.74-.06,1,1,0,0,1,.66.16.47.47,0,0,1,.2.41.5.5,0,0,1-.4.46v0c.19.06.28.21.34.47a2.1,2.1,0,0,0,.14.47h-.47a1.49,1.49,0,0,1-.15-.47c0-.2-.15-.29-.4-.29h-.21Zm0-1.08h.21c.25,0,.45-.08.45-.28s-.13-.3-.41-.3a.73.73,0,0,0-.25,0Z"/><path class="cls-2" d="M118.47,134a2,2,0,1,1-2-1.92A1.94,1.94,0,0,1,118.47,134ZM115,134a1.5,1.5,0,0,0,1.51,1.54,1.48,1.48,0,0,0,1.47-1.52,1.49,1.49,0,1,0-3,0Zm1.19,1h-.45v-1.92a4.48,4.48,0,0,1,.74-.06,1.05,1.05,0,0,1,.66.15.47.47,0,0,1,.2.41.49.49,0,0,1-.4.46v0c.19.06.28.21.34.47a1.91,1.91,0,0,0,.14.47H117a1.49,1.49,0,0,1-.15-.47c0-.2-.15-.29-.4-.29h-.21Zm0-1.08h.21c.25,0,.45-.08.45-.28s-.13-.29-.41-.29l-.25,0Z"/></svg>