<?xml version="1.0" encoding="utf-8"?>
<!-- Generator: Adobe Illustrator 21.1.0, SVG Export Plug-In . SVG Version: 6.00 Build 0)  -->
<svg version="1.1" id="Layer_1" xmlns="http://www.w3.org/2000/svg" xmlns:xlink="http://www.w3.org/1999/xlink" x="0px" y="0px"
	 viewBox="0 0 198 113.6" style="enable-background:new 0 0 198 113.6;" xml:space="preserve">
<style type="text/css">
	.st0{fill:#A09F9F;}
	.st1{filter:url(#b);}
	.st2{mask:url(#a);}
	.st3{opacity:0.75;}
	.st4{fill:#FFFFFF;}
</style>
<filter  color-interpolation-filters="sRGB" filterUnits="userSpaceOnUse" id="b">
	<feColorMatrix  values="-1 0 0 0 1 0 -1 0 0 1 0 0 -1 0 1 0 0 0 1 0"></feColorMatrix>
</filter>
<title>CR</title>
<g>
	<rect class="st0" width="197" height="112.6"/>
	<defs>
		<filter id="Adobe_OpacityMaskFilter" filterUnits="userSpaceOnUse" x="0" y="0" width="197" height="112.6">
			<feColorMatrix  type="matrix" values="1 0 0 0 0  0 1 0 0 0  0 0 1 0 0  0 0 0 1 0"/>
		</filter>
	</defs>
	<mask maskUnits="userSpaceOnUse" x="0" y="0" width="197" height="112.6" id="a">
		<g class="st1">
			
				<image style="overflow:visible;enable-background:new    ;" width="202" height="118" xlink:href="E4607934.jpg"  transform="matrix(1 0 0 1 -2.5 -2.72)">
			</image>
		</g>
	</mask>
	<g class="st2">
		<g class="st3">
			<rect class="st4" width="197" height="112.6"/>
		</g>
	</g>
	<path d="M55.9,21.1c2.5-0.4,5.1-0.6,7.6-0.5c3.5,0,6,0.7,7.6,2c1.7,1.4,2.7,3.5,2.7,5.7c0.1,2.2-0.7,4.4-2.3,6
		c-1.9,1.8-4.8,2.6-8.1,2.6c-0.6,0-1.3,0-1.9-0.1v8.9h-5.6V21.1z M61.5,32.4c0.6,0.1,1.3,0.2,1.9,0.2c3,0,4.8-1.5,4.8-4.1
		c0-2.3-1.6-3.7-4.4-3.7c-0.8,0-1.6,0.1-2.3,0.2L61.5,32.4z"/>
	<path d="M80.6,38.4c0.2,2.3,2.5,3.4,5.1,3.4c1.7,0,3.4-0.2,5-0.7l0.7,3.8c-2.1,0.8-4.3,1.2-6.6,1.1c-6.1,0-9.7-3.6-9.7-9.2
		c0-4.6,2.8-9.7,9.1-9.7c5.8,0,8.1,4.6,8.1,9c0,0.7-0.1,1.5-0.2,2.2L80.6,38.4z M87.3,34.6c0-1.4-0.6-3.7-3.2-3.7
		c-2.4,0-3.3,2.2-3.5,3.7H87.3z"/>
	<path d="M102.1,22.4v5.2h4v4.1h-4v6.6c0,2.2,0.5,3.2,2.2,3.2c0.6,0,1.1,0,1.7-0.2v4.3c-1.2,0.4-2.4,0.5-3.7,0.5
		c-1.6,0.1-3.1-0.5-4.2-1.6c-1-1.1-1.6-2.8-1.6-5.4v-7.4h-2.4v-4.1h2.4v-3.9L102.1,22.4z"/>
	<path d="M109.4,33.5c0-2.7-0.1-4.4-0.1-6h4.9l0.2,3.3h0.1c0.7-2.2,2.6-3.7,4.9-3.7c0.4,0,0.8,0.1,1.2,0.1v5.3
		c-0.5-0.1-1-0.1-1.5-0.2c-1.8-0.2-3.5,1.1-3.9,2.8c-0.1,0.4-0.1,0.8-0.1,1.3v9.2h-5.6L109.4,33.5z"/>
	<path d="M141.1,36.4c0,6.6-4.7,9.7-9.6,9.7c-5.3,0-9.4-3.5-9.4-9.3s3.9-9.6,9.7-9.6C137.4,27.2,141.1,31,141.1,36.4z M127.9,36.6
		c0,3.1,1.3,5.4,3.7,5.4c2.2,0,3.6-2.2,3.6-5.4c0-2.7-1-5.4-3.6-5.4S127.9,33.9,127.9,36.6L127.9,36.6z"/>
	<path d="M51.9,74.1h-9.2v5.9h10.3v4.6H37V59.7h15.4v4.6h-9.7v5.2h9.2V74.1z"/>
	<path d="M60.9,66.6l1.8,3c0.5,0.9,1,1.9,1.5,2.7h0.1c0.5-1,0.9-1.9,1.4-2.8l1.6-2.9h6.1l-6,8.6l6,9.5h-6.3l-1.8-3.3
		c-0.5-0.9-1-1.8-1.4-2.7h-0.1c-0.4,1-0.9,1.9-1.4,2.7l-1.7,3.3h-6.2l6.1-9.2l-6-8.9L60.9,66.6z"/>
	<path d="M75.8,72.6c0-2.4-0.1-4.4-0.2-6.1h4.9l0.3,2.5h0.1c1.4-1.9,3.6-3,6-2.9c4,0,7.5,3.4,7.5,9.2c0,6.6-4.2,9.7-8.2,9.7
		c-1.8,0.1-3.6-0.7-4.7-2.1h-0.1v9h-5.6L75.8,72.6z M81.4,76.9c0,0.4,0,0.8,0.1,1.2c0.3,1.5,1.7,2.7,3.3,2.7c2.4,0,3.9-2,3.9-5.1
		c0-2.9-1.3-5.1-3.8-5.1c-1.7,0-3.1,1.2-3.4,2.9c-0.1,0.3-0.1,0.7-0.1,1L81.4,76.9z"/>
	<path d="M97.9,72.5c0-2.7-0.1-4.4-0.2-6h4.8l0.2,3.3h0.1c0.7-2.2,2.6-3.7,4.9-3.7c0.4,0,0.8,0,1.2,0.1v5.3c-0.5-0.1-1-0.1-1.5-0.1
		c-1.8-0.2-3.5,1.1-3.9,2.9c-0.1,0.4-0.1,0.8-0.1,1.3v9.2h-5.6L97.9,72.5z"/>
	<path d="M116,77.4c0.2,2.3,2.5,3.4,5.1,3.4c1.7,0,3.4-0.2,5-0.7l0.7,3.8c-2.1,0.8-4.3,1.2-6.6,1.1c-6.1,0-9.7-3.6-9.7-9.2
		c0-4.6,2.9-9.7,9.1-9.7c5.9,0,8.1,4.6,8.1,9c0,0.7-0.1,1.5-0.2,2.2L116,77.4z M122.7,73.6c0-1.4-0.6-3.7-3.2-3.7
		c-2.4,0-3.3,2.1-3.5,3.7H122.7z"/>
	<path d="M131.2,79.8c1.5,0.8,3.1,1.3,4.9,1.4c1.7,0,2.4-0.6,2.4-1.5s-0.6-1.4-2.7-2.1c-3.7-1.3-5.2-3.3-5.1-5.4
		c0-3.4,2.9-5.9,7.4-5.9c1.8,0,3.5,0.3,5.1,1l-1,3.9c-1.2-0.6-2.6-1-3.9-1c-1.4,0-2.1,0.6-2.1,1.5s0.7,1.3,2.9,2.1
		c3.4,1.2,4.9,2.9,4.9,5.6c0,3.4-2.7,5.9-7.8,5.9c-2,0-4-0.4-5.9-1.3L131.2,79.8z"/>
	<path d="M147.3,79.8c1.5,0.8,3.1,1.3,4.9,1.4c1.7,0,2.4-0.6,2.4-1.5s-0.6-1.4-2.7-2.1c-3.7-1.3-5.2-3.3-5.1-5.4
		c0-3.4,2.9-5.9,7.4-5.9c1.8,0,3.5,0.3,5.1,1l-1,3.9c-1.2-0.6-2.6-1-3.9-1c-1.4,0-2.1,0.6-2.1,1.5s0.7,1.3,2.9,2.1
		c3.4,1.2,4.9,2.9,4.9,5.6c0,3.4-2.7,5.9-7.8,5.9c-2,0-4-0.4-5.9-1.3L147.3,79.8z"/>
</g>
</svg>
