<?xml version="1.0" encoding="utf-8"?>
<!-- Generator: Adobe Illustrator 21.1.0, SVG Export Plug-In . SVG Version: 6.00 Build 0)  -->
<svg version="1.1" id="Layer_1" xmlns="http://www.w3.org/2000/svg" xmlns:xlink="http://www.w3.org/1999/xlink" x="0px" y="0px"
	 viewBox="0 0 181 32.2" style="enable-background:new 0 0 181 32.2;" xml:space="preserve">
<style type="text/css">
	.st0{fill:#243444;}
	.st1{fill:#689550;}
</style>
<title>Grocery</title>
<path class="st0" d="M7.9,19.2h6.8c3.2,0,4.6-1.9,4.6-4.1S17.9,11,14.7,11H7.9V19.2z M3.4,19.2V6.7H15c5.4,0,8.8,3.6,8.8,8.4
	c0,4.8-3.3,8.4-8.8,8.4H7.9V31H3.4v-7.6H2.1c-1.2,0-2.1-1-2.1-2.1c0-1.2,1-2.1,2.1-2.1c0,0,0,0,0,0H3.4z M27.3,6.2
	c1.2,0,2.2,1,2.2,2.2s-1,2.2-2.2,2.2c-1.2,0-2.2-1-2.2-2.2S26.1,6.2,27.3,6.2C27.3,6.2,27.3,6.2,27.3,6.2z M25.3,12.2h4v18.5h-4
	L25.3,12.2z M45.9,18.2c-1-1.7-2.8-2.8-4.8-2.7c-3.3,0-6,2.7-6,6s2.7,6,6,6c2,0,3.8-1.1,4.8-2.8l3.5,2.1c-1.8,2.8-5,4.5-8.3,4.5
	c-5.4,0.3-10-3.8-10.3-9.2c-0.3-5.4,3.8-10,9.2-10.3c0.4,0,0.7,0,1.1,0c3.4-0.1,6.5,1.6,8.3,4.5L45.9,18.2L45.9,18.2z M50.8,19.2
	V6.7h4v12.6h0.5l6.3-7h4.8l-8,8.7l8.3,9.8H62L55.7,23h-0.9v7.7h-4L50.8,19.2z M75.5,12.2h4v2.3h0.1c1.3-1.9,3.4-2.9,5.7-2.8
	c3.9,0,7.2,3.3,7.2,7.8v11.2h-4V20.4c0-3.4-1.8-4.7-4.4-4.7c-2.4-0.1-4.4,1.7-4.6,4.1c0,0.2,0,0.4,0,0.6v10.4h-4L75.5,12.2
	L75.5,12.2z M102.7,23.7c1.8,2,4.4,3.2,7.1,3.3c3.4,0,5.7-1.3,5.7-3.6c0-5.4-15.5-0.2-15.5-10c0-4.3,4.5-7.2,9.9-7.2
	c3.6-0.2,7,1.2,9.6,3.7l-3.3,2.9c-1.7-1.8-4-2.9-6.5-2.9c-3.7,0-5.1,1.8-5.1,3.3c0,5.4,15.5,0,15.5,10c0,5-5.1,8-10.6,8
	c-3.9,0-7.6-1.6-10.3-4.4L102.7,23.7L102.7,23.7z M137.2,28.4L137.2,28.4c-1.6,1.8-3.8,2.8-6.2,2.8c-5.3,0-9.6-4.2-9.6-9.5
	c0-0.1,0-0.2,0-0.3c0.1-5.4,4.4-9.7,9.8-9.8c2.3-0.1,4.5,0.9,5.9,2.8h0.1v-2.3h4v18.5h-4L137.2,28.4z M131.5,27.4
	c3.3,0.1,6-2.6,6.1-5.9c0.1-3.3-2.6-6-5.9-6.1c-3.3-0.1-6,2.6-6.1,5.9c0,0,0,0.1,0,0.1C125.6,24.7,128.3,27.4,131.5,27.4z
	 M142.4,12.2h4.4l4.1,11.5v-0.1l4.1-11.4h4.4l-6.8,18.6h-4L142.4,12.2L142.4,12.2z M177,26.7c-2,2.7-5.2,4.4-8.6,4.5
	c-5.4,0.3-10-3.8-10.3-9.2c-0.3-5.4,3.8-10,9.2-10.3c0.4,0,0.7,0,1.1,0c5.5,0.2,9.8,4.9,9.6,10.4c0,0,0,0,0,0v0.7h-15.4
	c0.4,2.8,2.8,4.9,5.7,4.9c2.1,0,4.1-1.1,5.4-2.9L177,26.7z M173.4,19.5c-0.6-2.5-2.9-4.3-5.5-4.3c-2.6,0-4.8,1.8-5.2,4.3H173.4z"/>
<path class="st1" d="M73.5,13.8c0-0.2-0.3-0.5-0.5-1.5c-0.2-1.2-0.3-1.8,0.5-1.8c1.8-0.1,3.4-1.1,4.3-2.7c1.1-1.7,1.5-3.7,1.2-5.7
	c-0.1-0.6-0.2-1.2-0.4-1.8c-0.3-0.7-0.6-0.3-1,0.1c-1.1,1.1-2.6,0.9-4.8,1.8c-2,0.8-3.8,2.5-3.4,4.8c0.2,1.2,0.7,2.2,1.6,3
	c0.6,0.5,0.3,1.3,0.4,2.5c0,0.7,0.2,1.3,0.6,1.8C72.1,14.5,73.4,14,73.5,13.8L73.5,13.8z"/>
<path class="st0" d="M176.8,12.4c0-0.2,0-0.4,0.1-0.6c0.2-0.4,0.5-0.7,0.8-0.8c0.4-0.2,0.8-0.2,1.2,0c0.2,0.1,0.4,0.2,0.5,0.3
	c0.1,0.1,0.3,0.3,0.3,0.5c0.1,0.2,0.1,0.4,0.1,0.6c0,0.2,0,0.4-0.1,0.6c-0.2,0.4-0.5,0.7-0.8,0.8c-0.4,0.2-0.8,0.2-1.2,0
	c-0.2-0.1-0.4-0.2-0.5-0.3c-0.1-0.1-0.3-0.3-0.3-0.5C176.9,12.9,176.8,12.6,176.8,12.4z M177.1,12.4c0,0.2,0,0.4,0.1,0.5
	c0.1,0.2,0.2,0.3,0.3,0.4c0.1,0.1,0.3,0.2,0.4,0.3c0.3,0.1,0.7,0.1,1,0c0.2-0.1,0.3-0.2,0.4-0.3c0.1-0.1,0.2-0.3,0.3-0.4
	c0.1-0.2,0.1-0.3,0.1-0.5c0-0.2,0-0.4-0.1-0.5c-0.1-0.2-0.2-0.3-0.3-0.4c-0.3-0.2-0.6-0.4-0.9-0.4c-0.2,0-0.4,0-0.5,0.1
	c-0.2,0.1-0.3,0.2-0.4,0.3c-0.1,0.1-0.2,0.3-0.3,0.4C177.1,12.1,177,12.2,177.1,12.4L177.1,12.4z M177.8,11.5h0.7
	c0.2,0,0.3,0,0.5,0.1c0.1,0.1,0.2,0.2,0.2,0.4c0,0.1,0,0.3-0.1,0.4c-0.1,0.1-0.2,0.1-0.3,0.1l0.5,0.8h-0.3l-0.5-0.8H178v0.8h-0.3
	L177.8,11.5L177.8,11.5z M178.1,12.3h0.5h0.2c0,0,0.1,0,0.1-0.1c0-0.1,0-0.1,0-0.2c0,0,0-0.1,0-0.2c0,0-0.1-0.1-0.1-0.1h-0.1H178
	L178.1,12.3L178.1,12.3z"/>
</svg>
