<svg xmlns="http://www.w3.org/2000/svg" viewBox="0 0 665.68 491.95"><defs><style>.cls-1{fill:#fe0c00;}.cls-2{fill:#040301;}.cls-3{fill:#ff0c00;}</style></defs><title>Pie Five_1</title><g id="Layer_2" data-name="Layer 2"><g id="Layer_1-2" data-name="Layer 1"><path class="cls-1" d="M308.32.24V144.86L433.44,72.59c16.32,28.5,19.94,85.49-14.64,129.36A125.85,125.85,0,0,1,265,236.8c-52.86-26-80.73-86.24-66-143.25C214.54,33.35,267.14,2.58,308.32.24Z"/><path d="M23.86,405.73v45H0V314.31H21.79v10.33c.89-.26,1.43-.25,1.63-.5,16-20,52.29-17.79,69.86,4.37,22,27.75,13.07,71.36-18.28,85.05-17.18,7.5-34,6.8-48.88-6.28C25.69,406.9,25.17,406.62,23.86,405.73Zm-1.32-40.52c0,.62.07,2.39.29,4.15,2,16.73,18.41,29.15,34.09,25.87,13.23-2.76,22.62-13.51,24.2-27.71,1.51-13.53-6-27-17.91-32.33C43.81,326.55,22.63,341.58,22.54,365.21Z"/><path d="M263.56,375.09h-77.7a34.46,34.46,0,0,0,1.46,4.36c11.16,21.79,39.61,20.11,48.24,5.56a4,4,0,0,1,2.65-1.92c7.78-.15,15.57-.09,23.43-.09-3.95,22.68-34.45,39.47-60.39,33.66-29.54-6.61-47.25-37.22-38.89-67.21,8.23-29.54,38.55-46.37,67-37.05C259.62,322.34,270.34,356,263.56,375.09Zm-23.43-19.63c-.64-13-13-23.5-26.88-23.23s-27.19,11.46-27.34,23.23Z"/><path d="M640.29,375.09h-77.7a33.05,33.05,0,0,0,1.45,4.36c11.16,21.79,39.61,20.11,48.24,5.56a4,4,0,0,1,2.65-1.92c7.78-.15,15.57-.09,23.43-.09-4,22.68-34.45,39.47-60.39,33.66-29.54-6.61-47.25-37.22-38.89-67.21,8.24-29.54,38.55-46.37,67-37.05C636.35,322.34,647.07,356,640.29,375.09Zm-23.43-19.63c-.64-13-13-23.5-26.89-23.23s-27.18,11.46-27.33,23.23Z"/><path class="cls-2" d="M332.6,103V.5c22.21-4.73,74.89,25.18,89.28,50.91Z"/><path d="M382.87,313.9v21.44H357.51v79.09H333.34c-.08-1.68-.25-3.38-.25-5.08q0-33.69,0-67.37c0-6.27,0-6.27-6.26-6.59a20.37,20.37,0,0,1-2-.33V314.2l7.91-.53c.86-4.27,1.4-8.37,2.54-12.3,4.26-14.62,16.39-23.65,31.58-23.73,5.16,0,10.31,0,15.91,0v24c-4.94,0-9.78-.22-14.59.05-7.51.42-10.73,4.26-10.31,12.22Z"/><path d="M489.72,381.19,514,314.06s16.63-.12,25.18-.12c-.63,1.76-1,3.08-1.56,4.36-12.49,30.78-37.46,96.59-37.46,96.59H479s-27.12-68.61-38.23-96.12c-.55-1.35-1-2.73-1.71-4.8,8.53,0,25.59.16,25.59.16Z"/><polygon points="120.93 314.1 145 314.1 145.11 414.83 120.93 414.83 120.93 314.1"/><path d="M401,314.08h23.48V414.46H401Z"/><path d="M120.83,300.49V278h23.75v22.5Z"/><path d="M424.6,278v22.56H400.92V278Z"/><path class="cls-3" d="M448.12,475.57a9.47,9.47,0,0,1-8.83,6.34,9.81,9.81,0,0,1,0-19.6,9.33,9.33,0,0,1,7.59,4l7.38-5.18a19.14,19.14,0,1,0,2.32,17.53Z"/><path class="cls-3" d="M157,455.21a12.94,12.94,0,0,0-5.17-1H134v36.21h10.18L144,479.64c11.7,1.32,20.37-2.83,20.37-13.39A11.47,11.47,0,0,0,157,455.21Zm-7.41,17.08h-5.87V462.24h5.87a5,5,0,1,1,0,10.05Z"/><rect class="cls-3" x="187.25" y="454.18" width="9.3" height="36.21"/><polygon class="cls-3" points="221.05 454.18 252.39 454.18 252.39 461.61 234.42 481.83 252.39 481.83 252.39 490.51 220.56 490.51 220.56 482.75 238.16 462.48 220.98 462.67 221.05 454.18"/><polygon class="cls-3" points="274.95 454.18 306.28 454.18 306.28 461.61 288.32 481.83 306.28 481.83 306.28 490.51 274.45 490.51 274.45 482.75 292.05 462.48 274.88 462.67 274.95 454.18"/><path class="cls-3" d="M351.76,453.61h-9.83l-15.42,36.9h10.75l2.82-7h13.45l2.55,7.06h11.3Zm-9.05,22.28,3.89-10.11,4.17,10.11Z"/><rect class="cls-3" x="520.03" y="480.14" width="10.37" height="10.37"/><path class="cls-3" d="M492.62,453a19.49,19.49,0,1,0,19.49,19.48A19.48,19.48,0,0,0,492.62,453Zm0,28.93a9.81,9.81,0,1,1,9.44-9.8A9.63,9.63,0,0,1,492.62,481.91Z"/><path d="M655.72,316.84a10.2,10.2,0,0,1,4.9,1.29,9.18,9.18,0,0,1,3.73,3.68,10.26,10.26,0,0,1,1.33,5,10.13,10.13,0,0,1-1.31,4.95,9.23,9.23,0,0,1-3.69,3.69,10,10,0,0,1-9.92,0,9.23,9.23,0,0,1-3.69-3.69,10,10,0,0,1-1.32-4.95,10.16,10.16,0,0,1,1.34-5,9.24,9.24,0,0,1,3.73-3.68A10.23,10.23,0,0,1,655.72,316.84Zm0,1.65a8.42,8.42,0,0,0-4.08,1.08,7.6,7.6,0,0,0-3.11,3.07,8.43,8.43,0,0,0-1.13,4.17,8.31,8.31,0,0,0,1.11,4.13,7.77,7.77,0,0,0,3.08,3.07,8.26,8.26,0,0,0,8.27,0,7.75,7.75,0,0,0,3.07-3.07,8.31,8.31,0,0,0,0-8.3,7.6,7.6,0,0,0-3.11-3.07A8.48,8.48,0,0,0,655.72,318.49Zm-4.37,13.83V321.59H655a8.92,8.92,0,0,1,2.73.3,2.73,2.73,0,0,1,1.35,1,2.76,2.76,0,0,1,.5,1.57,2.87,2.87,0,0,1-.84,2.05,3.31,3.31,0,0,1-2.23,1,3,3,0,0,1,.92.57,12.37,12.37,0,0,1,1.58,2.13l1.31,2.1h-2.12l-1-1.69a8.56,8.56,0,0,0-1.81-2.5,2.16,2.16,0,0,0-1.38-.37h-1v4.56Zm1.73-6h2.1a3.36,3.36,0,0,0,2.05-.45,1.44,1.44,0,0,0,.55-1.19,1.5,1.5,0,0,0-.26-.85,1.65,1.65,0,0,0-.73-.56,5.66,5.66,0,0,0-1.74-.18h-2Z"/></g></g></svg>