<svg id="Layer_1" data-name="Layer 1" xmlns="http://www.w3.org/2000/svg" viewBox="0 0 250 250"><defs><style>.cls-1{fill:#f9e8a0;}.cls-2{fill:red;}.cls-3{fill:#414042;}</style></defs><title>Pizza Place</title><path class="cls-1" d="M40.26,124.46l126.66-67S166,38.65,176.87,37.4,196,39.15,200,55.57s18.67,86.91-1.17,150.08c0,0-14.17,13.88-24.42,5.81s-12.87-11.19-12.87-11.19L43.7,137.15Z"/><circle class="cls-2" cx="151.49" cy="91.9" r="11.5"/><circle class="cls-2" cx="96.25" cy="126.87" r="11.57"/><circle class="cls-2" cx="145.01" cy="141.63" r="11.19"/><path class="cls-3" d="M209.79,90.72a252.64,252.64,0,0,0-9.71-44.48,19.12,19.12,0,0,0-9.71-11.32,17.13,17.13,0,0,0-15.37,0,19,19,0,0,0-11.32,21L37.52,123.07l4,16.18,123.74,66.32a16.42,16.42,0,0,0,9.71,9.71,23.93,23.93,0,0,0,8.09,1.62,23.62,23.62,0,0,0,7.28-1.62c4.85-2.43,8.9-6.47,10.51-11.32a216.67,216.67,0,0,0,11.32-52.57A388.2,388.2,0,0,0,209.79,90.72ZM164.5,198.28,46.42,135.2,44,126.3l121.32,65.51A17.81,17.81,0,0,0,164.5,198.28Zm2.43-12.13L49.65,123.07,165.31,61.6a225.78,225.78,0,0,1,7.28,35.59C175.82,119.83,177.44,153,166.92,186.15Zm38.82-34.78c-1.62,17.79-4.85,34.78-10.51,51-1.62,3.24-4,6.47-7.28,8.09a12,12,0,0,1-10.51,0c-6.47-3.24-8.9-9.71-7.28-16.18,12.94-36.4,11.32-72.79,8.09-97.05A241.18,241.18,0,0,0,171.78,64c.81-2.43,4.85-8.9,12.13-10.51l-.81-5.66a23.08,23.08,0,0,0-12.94,8.9c-1.62-6.47,1.62-13.75,7.28-16.18a10.26,10.26,0,0,1,4.85-.81A15,15,0,0,1,188,41.38c3.24,1.62,5.66,4.85,7.28,8.09a240.89,240.89,0,0,1,9.71,43.67A280.36,280.36,0,0,1,205.75,151.37Z"/><path class="cls-3" d="M183.1,197.47,188,199.9c.81-.81,1.62-3.24,2.43-5.66l-4.85-1.62Q183.1,196.26,183.1,197.47Z"/><path class="cls-3" d="M194.42,123.88a179.1,179.1,0,0,1-7.28,61.47L192,187a186.59,186.59,0,0,0,7.28-63.08Z"/><path class="cls-3" d="M150.75,106.08a14.56,14.56,0,1,0-14.56-14.56C137,99.61,143.47,106.08,150.75,106.08Zm0-23.45a8.9,8.9,0,1,1-8.9,8.9A9,9,0,0,1,150.75,82.63Z"/><path class="cls-3" d="M95.75,111.74a14.56,14.56,0,1,0,14.56,14.56A14.5,14.5,0,0,0,95.75,111.74Zm0,23.45a8.9,8.9,0,1,1,8.9-8.9A9,9,0,0,1,95.75,135.2Z"/><path class="cls-3" d="M144.28,127.11a14.56,14.56,0,1,0,14.56,14.56A14.5,14.5,0,0,0,144.28,127.11Zm0,22.65a8.9,8.9,0,1,1,8.9-8.9A9,9,0,0,1,144.28,149.76Z"/><polygon class="cls-3" points="123.25 99.61 126.48 99.61 128.91 99.61 128.91 91.52 123.25 91.52 123.25 99.61"/><rect class="cls-3" x="68.25" y="115.79" width="5.66" height="8.09"/><rect class="cls-3" x="133.76" y="110.13" width="5.66" height="8.09"/><polygon class="cls-3" points="120.01 119.83 120.01 111.74 114.35 111.74 114.35 119.83 116.78 119.83 120.01 119.83"/><polygon class="cls-3" points="156.41 116.6 156.41 124.68 158.84 124.68 162.07 124.68 162.07 116.6 158.84 116.6 156.41 116.6"/><polygon class="cls-3" points="156.41 161.89 156.41 170.78 162.07 170.78 162.07 161.89 158.84 161.89 156.41 161.89"/><polygon class="cls-3" points="164.5 142.48 166.92 142.48 169.35 142.48 169.35 134.39 164.5 134.39 164.5 142.48"/><polygon class="cls-3" points="115.97 149.76 118.4 149.76 120.82 149.76 120.82 140.86 115.97 140.86 115.97 149.76"/></svg>