<svg id="Layer_1" data-name="Layer 1" xmlns="http://www.w3.org/2000/svg" viewBox="0 0 250 250"><defs><style>.cls-1{fill:#f9e8a0;}.cls-2{fill:red;}.cls-3{fill:#414042;}</style></defs><title>Plain or Flavored Milk</title><polygon class="cls-1" points="88 56.13 88.63 37.38 160.13 38.25 160.63 57.19 183.33 78.75 182.38 212.83 68.13 212.83 67.84 77.78 88 56.13"/><polygon class="cls-2" points="88.44 56.13 160.13 56.56 137.31 78.75 68.13 77.5 88.44 56.13"/><path class="cls-3" d="M183.68,75l-21-19.79V38.6a3.6,3.6,0,0,0-3.6-3.6H89.53a3.6,3.6,0,0,0-3.6,3.6V55.3L66.14,75.66a3.59,3.59,0,0,0-1,2.51V211.4a3.6,3.6,0,0,0,3.6,3.6H181.22a3.6,3.6,0,0,0,3.6-3.6V77.61A3.59,3.59,0,0,0,183.68,75Zm-26-35V53.8H90.93V40ZM89.5,58.8h65L138,75.23H73.53ZM70.11,80.23h66.48V210H70.11ZM179.82,210H141.59V78.74L160.4,60l0,0,19.4,18.28Z"/><rect class="cls-3" x="101.49" y="63.92" width="17.5" height="5"/><rect class="cls-3" x="80.51" y="103.03" width="45.54" height="5"/><rect class="cls-3" x="80.51" y="117.72" width="46.04" height="5"/><rect class="cls-3" x="80.28" y="131.83" width="45.54" height="5"/></svg>