<?xml version="1.0" encoding="utf-8"?>
<!-- Generator: Adobe Illustrator 21.1.0, SVG Export Plug-In . SVG Version: 6.00 Build 0)  -->
<svg version="1.1" id="Layer_1" xmlns="http://www.w3.org/2000/svg" xmlns:xlink="http://www.w3.org/1999/xlink" x="0px" y="0px"
	 viewBox="0 0 181.6 74.5" style="enable-background:new 0 0 181.6 74.5;" xml:space="preserve">
<style type="text/css">
	.st0{fill:#EEC448;}
	.st1{fill:#A83642;}
	.st2{fill:#3B2C63;}
</style>
<title>Plaid Pantry</title>
<rect x="2.7" y="9.7" class="st0" width="47.5" height="39.9"/>
<path class="st1" d="M149.3,0.5c0.4,1.9-0.3,3.8-0.5,5.6c-0.7,5.4-1.5,10.8-2.1,16.3c-0.1,0.9-0.4,1.2-1.3,1.2c-1.3,0-2.5-0.1-3.7,0
	c-1.4,0.1-2.5,0-2.1-2.1c-1.1,0.8-2.3,1.4-3.6,2c-6.4,2-11.2-2.2-10-8.8c1.3-7.1,8.2-10.3,14.5-6.6c0.1,0,0.3,0.1,0.4,0.1
	c0.3-2.6,0.9-5.1,0.9-7.7L149.3,0.5z M140.1,14.5c0.1-1.6-1-3-2.6-3.1c-0.3,0-0.7,0-1,0.1c-1.3,0.2-2.4,1.2-2.7,2.5
	c-0.4,1.5-0.8,3.1,0.3,4.5c0.5,0.5,1.2,0.8,1.9,0.8C138.5,19.3,140.1,17.4,140.1,14.5z"/>
<path class="st1" d="M91,0.5c0.7,1.4,0.1,2.8-0.1,4.1c-0.7,5.8-1.6,11.6-2.3,17.4c-0.2,1.2-0.6,1.7-1.9,1.6c-1.5-0.1-2.9-0.1-4.4,0
	c-1.2,0.1-1.6-0.3-1.4-1.5c0.6-4.4,1.2-8.8,1.8-13.2c0.3-2.6,0.7-5.2,1.1-7.7c0-0.3-0.1-0.5-0.3-0.7L91,0.5z"/>
<path class="st1" d="M125.6,0.5c0.4,1.3-0.1,2.5-0.2,3.8c-0.1,0.6-0.6,0.7-1.1,0.7h-5.4c-1,0-1.2-0.4-1.1-1.3c0.3-1,0.4-2.2,0.2-3.2
	L125.6,0.5z"/>
<path class="st2" d="M26.3,54.7H4c-1.2,0-1.6-0.2-1.5-1.5c0.1-2.1,0.1-4.2,0-6.4c-0.1-0.9,0.4-1.7,1.3-2c14.8-6.4,29.7-7.1,44.6-0.4
	c1.3,0.4,2.1,1.7,1.9,3c-0.1,1.9-0.1,3.8,0,5.7c0.1,1.2-0.4,1.4-1.5,1.4C41.3,54.6,33.8,54.7,26.3,54.7z"/>
<path class="st1" d="M26.5,7h22c1.3,0,1.8,0.3,1.8,1.7c-0.1,2.1-0.1,4.1,0,6.2c0.1,0.8-0.4,1.6-1.2,1.9c-15.2,6.6-30.3,7.2-45.5,0
	c-0.7-0.2-1.2-1-1.1-1.7c0.1-2.1,0.1-4.2,0-6.3C2.5,7.4,2.9,7,4.2,7C11.7,7,19.1,7,26.5,7z"/>
<path class="st1" d="M62.8,34.2c1.9-1.9,4.6-2.9,7.3-2.7c3.6,0,6.5,2.9,6.5,6.5c0,0,0,0,0,0l0,0c0.3,7-4.1,11.3-10.9,10.7
	c-1.5-0.2-2.9-0.8-4.1-1.7c-0.3,2.2-0.7,4.3-0.9,6.4c-0.1,1.1-0.6,1.4-1.6,1.4c-1.7-0.1-3.5-0.1-5.2,0c-0.8,0-0.9-0.3-0.8-1.1
	c0.9-6.9,1.9-13.8,2.8-20.8c0.1-0.9,0.5-1.1,1.3-1.1c1.3,0,2.6,0.1,3.9,0S63.4,31.9,62.8,34.2z M69.2,39.3c0.2-1.1-0.3-2.2-1.3-2.8
	c-1-0.6-2.2-0.6-3.3,0c-1.6,0.8-1.9,2.3-2.1,3.9c-0.3,1.4,0.4,2.8,1.7,3.3c1.4,0.5,3,0.1,3.9-1.1C68.7,41.7,69.1,40.5,69.2,39.3
	L69.2,39.3z"/>
<path class="st1" d="M66.2,9.2c2-1.9,4.7-2.9,7.4-2.6c3.3,0.3,5.3,1.8,6,5c1,3.5,0,7.2-2.6,9.7c-2.7,2.6-6,3.1-9.5,2.1
	c-0.9-0.2-1.6-1.5-2.5-0.8c-0.7,0.5-0.3,1.8-0.5,2.7c0,0.2-0.1,0.4-0.1,0.6c-0.2,1.3,0.2,3-0.8,3.6c-1,0.6-2.5,0.2-3.8,0.2
	c-3.7,0-3.6,0-3-3.6c0.9-5.9,1.7-11.9,2.4-17.9c0.1-1,0.5-1.4,1.5-1.4c1.2,0.1,2.4,0.1,3.6,0C65.6,6.9,66.6,7.1,66.2,9.2z
	 M68.6,19.2c1.4,0.1,2.7-0.7,3.2-2c0.6-1.6,1.2-3.3-0.1-4.9c-0.5-0.6-1.3-1-2.2-0.9c-1.5,0-2.8,0.9-3.3,2.2c-0.6,1.6-1,3.2,0.2,4.8
	C67,19,67.8,19.3,68.6,19.2z"/>
<path class="st1" d="M158.2,32.2c2.5-0.7,5-0.2,7.5-0.3c0.8,0,0.7,0.9,0.8,1.4c0.7,3,1.5,6,2.5,9c0.7-1.4,1.4-2.9,2.1-4.3
	c0.8-1.7,1.6-3.3,2.4-5c0.2-0.7,0.9-1.2,1.7-1.2c1.7,0.1,3.4,0,5,0c0.8,0,1.2,0.1,0.7,1c-3.6,6.2-7.2,12.5-10.9,18.6
	c-2,3.4-5.5,3.7-9,3.7c-0.4,0-0.9-0.1-1.3-0.1c-3-0.4-2.9-0.4-2.9-3.3c0-1.1,0.2-1.4,1.4-1.2c2,0.4,4,0.5,5.5-1.4
	c0.4-0.3,0.5-0.8,0.3-1.3c-2-5.2-3.7-10.6-6-15.8L158.2,32.2z"/>
<path class="st1" d="M92.8,11.6c0.8-2.3,2.8-4,5.2-4.4c3.8-0.8,7.7-0.8,11.5-0.1c3.2,0.6,4.5,2.8,4.2,6s-1.4,6.5-0.7,9.8
	c0.1,0.7-0.3,0.7-0.8,0.7h-5.4c-1.3,0-0.9-1.1-1.3-1.9c-2.5,1.7-5.5,2.5-8.6,2.2c-0.8,0-1.5-0.1-2.2-0.3c-1.8-0.5-3.3-1.3-3.6-3.3
	c-0.3-2.1,0.9-4.2,2.9-5c1.9-0.7,3.8-1.2,5.8-1.4c1.9-0.2,3.7-0.6,5.6-1.2c0.4-0.2,1-0.2,1-0.8c0-0.6-0.3-1.1-0.9-1.3
	c-1.7-0.5-3.6-0.2-5,0.9c-0.5,0.6-1.2,0.8-1.9,0.7c-1.8-0.2-3.6-0.3-5.3-0.5C93.1,11.7,92.9,11.7,92.8,11.6z M105.9,15.7l-4.4,1
	c-0.4,0.1-0.8,0.2-1.2,0.4c-0.9,0.4-1.7,0.9-1.5,2s1.1,1.2,2,1.3C103.5,20.6,105.3,19.1,105.9,15.7z"/>
<path class="st1" d="M90.9,31.5c1.6,0,3.2,0.1,4.8,0.4c2.9,0.7,4.4,2.5,4.1,5.5c-0.2,2.4-0.6,4.8-0.9,7.3c-0.2,0.9-0.2,1.8,0,2.7
	c0.4,0.9-0.1,1.1-0.9,1.1h-3.9c-1.1,0-2.2,0.2-2.5-1.3c-0.2-0.8-0.7-0.1-1,0c-2.8,1.7-6,1.9-9.1,1.5c-2.4-0.3-4.1-1.8-4.3-3.7
	c-0.1-2.2,1.3-4.3,3.5-4.9c2.4-0.9,5-1,7.4-1.6c1.2-0.3,2.3-0.5,3.5-0.8c0.5-0.1,0.9-0.3,0.8-1c0-0.5-0.4-0.9-0.8-1.1
	c-1.8-0.6-3.7-0.2-5.1,1c-0.4,0.5-1,0.7-1.6,0.6c-1.7-0.2-3.3-0.3-5-0.5c-0.8-0.1-0.9-0.3-0.6-1c0.9-1.8,2.5-3,4.5-3.5
	C86.1,31.5,88.5,31.3,90.9,31.5z M87,45.2c2.6,0,4.5-1.4,4.9-3.4c0.2-0.8,0.1-1.3-0.9-1c-1.4,0.4-2.9,0.7-4.4,1.1
	c-1,0.3-1.8,0.9-1.6,2.1S86.3,45.1,87,45.2z"/>
<path class="st1" d="M110.6,33.9c0.6-0.1,1.1-0.4,1.5-0.8c2.6-1.7,5.8-2.2,8.7-1.2c2,0.7,3.3,2.7,3,4.9c-0.4,3.5-0.9,7-1.3,10.5
	c-0.1,0.9-0.5,1.2-1.4,1.1c-1.6-0.1-3.3-0.1-4.9,0c-1.1,0-1.4-0.4-1.3-1.4c0.4-2.5,0.7-5,1-7.6c0.1-1.2,0.3-2.4-1.4-2.8
	c-1.5-0.4-3,0.3-3.7,1.6c-0.9,1.8-0.9,3.9-1.2,5.9c-0.5,4.3-0.5,4.4-4.9,4.4c-3.2,0-3.3,0-2.8-3.3c0.5-4,1.1-8.1,1.6-12.1
	c0.1-0.9,0.4-1.3,1.3-1.2h3.7C110.5,31.8,110.5,31.8,110.6,33.9z"/>
<path class="st1" d="M133.9,48.8c-1.4,0.1-2.8-0.1-4.1-0.4c-1.4-0.4-2.3-1.7-2.3-3.2c0-2.3,0.2-4.5,0.7-6.8c0.2-1.3,0.1-2.2-1.6-1.9
	c-0.8,0.1-1.1-0.2-0.9-1c0.1-0.6,0.2-1.2,0.2-1.8c0.1-1.2,0.4-2.1,1.9-1.9c1,0.2,1.4-0.4,1.3-1.3c-0.1-1.2,0.7-2.2,1.9-2.4
	c1.7-0.6,3.4-1.3,5.1-2.1c0.8-0.3,1.2-0.3,1.1,0.7c-0.2,1.3-0.3,2.6-0.5,3.9c-0.2,0.9,0.1,1.2,1.1,1.3c3.1,0.1,3,0.2,2.5,3.2
	c-0.2,1.1-0.6,1.5-1.7,1.4h-0.8c-1.4-0.2-2.1,0.4-2.1,1.8s-0.3,2.6-0.4,3.9c-0.2,2,0.2,2.4,2.2,2c1.5-0.3,1.4,0.3,1.4,1.4
	c0,3,0,3-3.1,3.2L133.9,48.8z"/>
<path class="st1" d="M158.1,32.1c-0.4,1.7-1.7,2.9-2.5,4.3c-0.4,0.6-0.9,0.2-1.3,0.1c-2.1-0.4-3.3,0.2-4.2,2.1
	c-1.1,2.2-1.2,4.7-1.5,7.1c-0.4,2.6-0.3,2.6-3,2.6h-5c0.7-5.1,1.3-10.1,2-15.2c0.1-1,0.5-1.5,1.6-1.4c1.2,0.1,2.4,0.1,3.6,0
	c1.4-0.1,2.6,0,2,2.1C152.3,31,155.1,31,158.1,32.1L158.1,32.1z"/>
<path class="st1" d="M118.9,23.6c-3.7,0-3.7,0-3.2-3.8c0.5-3.7,1-7.3,1.4-10.9c0.1-1.4,0.6-2,2.1-1.8c1.5,0.1,2.9,0.1,4.4,0
	c0.9,0,1.3,0.3,1.2,1.2c-0.7,4.9-1.3,9.8-2,14.6c-0.1,0.7-0.5,0.7-1,0.7L118.9,23.6z"/>
<path class="st2" d="M6.9,70.7L9.5,71c-0.4,0.9-1.1,1.7-1.9,2.2c-0.9,0.5-1.9,0.8-3,0.8c-1.1,0-2.1-0.3-3-0.9
	c-0.8-0.6-1.2-1.6-1.1-2.6c0-0.9,0.2-1.8,0.7-2.6c0.5-0.8,1.2-1.5,2-1.9c0.9-0.5,2-0.7,3-0.7c1-0.1,2,0.2,2.8,0.8
	c0.7,0.5,1.1,1.2,1.2,2l-2.6,0.2c0-0.4-0.2-0.7-0.5-1C6.8,67.1,6.4,67,6,67c-0.5,0-1,0.2-1.5,0.5c-0.5,0.4-0.8,0.9-1,1.4
	c-0.2,0.6-0.3,1.2-0.4,1.8c0,0.4,0.1,0.8,0.4,1.1c0.3,0.3,0.7,0.4,1.1,0.4c0.4,0,0.9-0.1,1.3-0.4C6.4,71.6,6.7,71.1,6.9,70.7z"/>
<path class="st2" d="M11.3,70.4c-0.1-1.4,0.5-2.8,1.6-3.7c1.2-1,2.6-1.4,4.1-1.4c1.2-0.1,2.5,0.3,3.5,1c0.8,0.7,1.3,1.7,1.2,2.7
	c0,1.4-0.5,2.6-1.6,3.5c-1.1,1-2.6,1.5-4.2,1.5c-0.9,0-1.7-0.1-2.5-0.5c-0.7-0.3-1.2-0.7-1.6-1.3C11.4,71.7,11.3,71,11.3,70.4z
	 M19,68.8c0-0.5-0.2-1-0.6-1.3C18,67.2,17.5,67,17,67c-0.6,0-1.1,0.1-1.6,0.4c-0.5,0.3-0.8,0.8-1.1,1.3c-0.2,0.5-0.4,1-0.4,1.6
	c0,0.5,0.2,1,0.6,1.4c0.4,0.4,0.9,0.5,1.5,0.5c0.7,0,1.4-0.3,1.9-0.8C18.6,70.8,19,69.8,19,68.8z"/>
<path class="st2" d="M24.8,65.5h2.6l-0.3,1.1c0.6-0.4,1.2-0.8,1.8-1c0.6-0.2,1.2-0.3,1.8-0.3c0.7,0,1.4,0.2,1.9,0.6
	c0.5,0.4,0.7,1,0.7,1.6c0,0.6-0.2,1.1-0.3,1.7l-1.2,4.7h-2.7l1.2-4.7c0.1-0.4,0.2-0.8,0.3-1.3c0-0.3-0.1-0.5-0.3-0.7
	c-0.2-0.2-0.5-0.3-0.8-0.3c-0.5,0-0.9,0.2-1.3,0.4c-0.5,0.3-0.9,0.6-1.1,1.1c-0.3,0.6-0.5,1.3-0.7,2l-0.9,3.4h-2.7L24.8,65.5z"/>
<path class="st2" d="M39.5,73.8h-2.4l-2-8.3h2.7l0.7,3.6c0.2,1,0.3,1.6,0.3,2c0.1-0.1,0.3-0.4,0.7-1c0.4-0.6,0.6-0.9,0.7-1.1
	l2.5-3.5h2.9L39.5,73.8z"/>
<path class="st2" d="M54.9,70.4h-6.8c0,0.1,0,0.2,0,0.2c0,0.5,0.2,1,0.6,1.3c0.4,0.3,0.9,0.5,1.4,0.5c0.9,0,1.7-0.4,2.1-1.2l2.4,0.3
	c-0.4,0.8-1.1,1.4-1.9,1.8C51.9,73.8,51,74,50.1,74c-1.2,0.1-2.3-0.3-3.3-1.1c-0.8-0.7-1.3-1.7-1.3-2.8c0-1.1,0.4-2.2,1.1-3
	c1.1-1.2,2.8-1.9,4.4-1.8c1.1-0.1,2.1,0.3,2.9,0.9c0.7,0.7,1.1,1.6,1,2.6C55.1,69.4,55.1,69.9,54.9,70.4z M52.7,69
	c0-0.1,0-0.2,0-0.2c0-0.5-0.1-1-0.5-1.4c-0.4-0.3-0.9-0.5-1.3-0.5c-0.5,0-1.1,0.2-1.5,0.5c-0.5,0.4-0.8,0.9-0.9,1.6H52.7z"/>
<path class="st2" d="M58.1,65.5h2.6l-0.3,1.1c0.6-0.4,1.2-0.8,1.8-1c0.6-0.2,1.2-0.3,1.8-0.3c0.7,0,1.4,0.2,1.9,0.6
	c0.5,0.4,0.7,1,0.7,1.6c0,0.6-0.2,1.1-0.3,1.7l-1.2,4.7h-2.7l1.2-4.7c0.1-0.4,0.2-0.8,0.3-1.3c0-0.3-0.1-0.5-0.3-0.7
	c-0.2-0.2-0.5-0.3-0.8-0.3c-0.5,0-0.9,0.2-1.3,0.4c-0.5,0.3-0.9,0.6-1.1,1.1c-0.3,0.6-0.5,1.3-0.7,2l-0.9,3.4H56L58.1,65.5z"/>
<path class="st2" d="M69.8,65.5h2.7l-2.1,8.3h-2.7L69.8,65.5z M70.6,62.4h2.7l-0.5,2h-2.7L70.6,62.4z"/>
<path class="st2" d="M82.9,70.4h-6.8c0,0.1,0,0.2,0,0.2c0,0.5,0.2,1,0.6,1.3c0.4,0.3,0.9,0.5,1.4,0.5c0.9,0,1.7-0.4,2.1-1.2l2.4,0.3
	c-0.4,0.8-1.1,1.4-1.9,1.8C79.9,73.8,79,74,78,74c-1.2,0.1-2.3-0.3-3.3-1.1c-0.8-0.7-1.3-1.7-1.3-2.8c0-1.1,0.4-2.2,1.1-3
	c1.1-1.2,2.8-1.9,4.4-1.8c1.1-0.1,2.1,0.3,2.9,0.9c0.7,0.7,1.1,1.6,1.1,2.6C83.1,69.4,83,69.9,82.9,70.4z M80.6,69
	c0-0.1,0-0.2,0-0.2c0-0.5-0.1-1-0.5-1.4c-0.4-0.3-0.9-0.5-1.3-0.5c-0.5,0-1.1,0.2-1.5,0.5c-0.5,0.4-0.8,0.9-0.9,1.6H80.6z"/>
<path class="st2" d="M86,65.5h2.6l-0.3,1.1c0.6-0.4,1.2-0.8,1.8-1c0.6-0.2,1.2-0.3,1.8-0.3c0.7,0,1.4,0.2,1.9,0.6
	c0.5,0.4,0.7,1,0.7,1.6c0,0.6-0.2,1.1-0.3,1.7L93,73.8h-2.7l1.2-4.7c0.1-0.4,0.2-0.8,0.3-1.3c0-0.3-0.1-0.5-0.3-0.7
	c-0.2-0.2-0.5-0.3-0.8-0.3c-0.5,0-0.9,0.2-1.3,0.4c-0.5,0.3-0.9,0.6-1.1,1.1c-0.3,0.6-0.5,1.3-0.7,2l-0.9,3.4h-2.7L86,65.5z"/>
<path class="st2" d="M102.4,70.7l2.6,0.4c-0.4,0.9-1.1,1.7-2,2.3c-0.9,0.5-1.9,0.8-3,0.8c-1.1,0-2.1-0.3-3-0.9
	c-0.8-0.6-1.2-1.6-1.1-2.6c0-0.9,0.2-1.8,0.7-2.6c0.5-0.8,1.2-1.5,2-1.9c0.9-0.5,2-0.7,3-0.7c1-0.1,2,0.2,2.8,0.8
	c0.7,0.5,1.1,1.2,1.2,2l-2.6,0.2c0-0.4-0.2-0.7-0.5-1c-0.3-0.2-0.7-0.3-1.1-0.3c-0.5,0-1,0.2-1.5,0.5c-0.5,0.4-0.8,0.9-1,1.4
	c-0.2,0.6-0.3,1.2-0.4,1.8c0,0.4,0.1,0.8,0.4,1.1c0.3,0.3,0.7,0.4,1.1,0.4c0.4,0,0.9-0.1,1.3-0.4C101.9,71.6,102.2,71.2,102.4,70.7z
	"/>
<path class="st2" d="M116.1,70.4h-6.8c0,0.1,0,0.2,0,0.2c0,0.5,0.2,1,0.6,1.3c0.4,0.3,0.9,0.5,1.4,0.5c0.9,0,1.7-0.4,2.1-1.2
	l2.4,0.3c-0.4,0.8-1.1,1.4-1.9,1.8c-0.8,0.4-1.7,0.6-2.6,0.6c-1.2,0.1-2.3-0.3-3.3-1.1c-0.8-0.7-1.3-1.7-1.3-2.8
	c0-1.1,0.4-2.2,1.1-3c1.1-1.2,2.8-1.9,4.4-1.8c1.1-0.1,2.1,0.3,2.9,0.9c0.7,0.7,1.1,1.6,1.1,2.6C116.3,69.4,116.2,69.9,116.1,70.4z
	 M113.8,69c0-0.1,0-0.2,0-0.2c0-0.5-0.1-1-0.5-1.4c-0.4-0.3-0.9-0.5-1.3-0.5c-0.5,0-1.1,0.2-1.5,0.5c-0.5,0.4-0.8,0.9-0.9,1.6H113.8
	z"/>
<path class="st2" d="M122.1,71.5l2.6-0.3c0.2,0.4,0.5,0.8,0.9,1c0.4,0.2,0.9,0.3,1.4,0.3c0.5,0,1-0.1,1.5-0.3
	c0.2-0.1,0.4-0.3,0.4-0.6c0-0.2-0.1-0.3-0.2-0.4c-0.3-0.2-0.7-0.3-1.1-0.4c-1-0.2-2-0.6-3-1.1c-0.6-0.3-0.9-0.9-0.9-1.6
	c0-0.7,0.3-1.3,0.9-1.7c1.1-0.7,2.4-1.1,3.7-1c1-0.1,2,0.1,2.9,0.6c0.6,0.3,1.1,0.9,1.3,1.6l-2.5,0.4c-0.1-0.3-0.4-0.5-0.6-0.7
	c-0.5-0.2-0.9-0.3-1.4-0.3c-0.4,0-0.8,0-1.2,0.2c-0.2,0.1-0.4,0.3-0.4,0.5c0,0.2,0.2,0.4,0.4,0.5c0.5,0.2,1,0.3,1.5,0.4
	c0.9,0.2,1.8,0.5,2.6,0.9c0.6,0.3,0.9,0.9,0.9,1.6c0,0.8-0.5,1.6-1.2,2c-1,0.6-2.2,0.9-3.4,0.9c-1.2,0.1-2.3-0.2-3.4-0.7
	C123,73,122.4,72.3,122.1,71.5z"/>
<path class="st2" d="M133.9,67.2l0.4-1.7h1.3l0.3-1.3l3.1-1.5l-0.7,2.9h1.6l-0.4,1.7H138l-0.9,3.5c-0.1,0.4-0.2,0.7-0.2,1.1
	c0,0.2,0.1,0.3,0.2,0.4c0.2,0.1,0.5,0.2,0.7,0.1l0.9-0.1l-0.4,1.7c-0.5,0.1-1,0.1-1.4,0.1c-0.7,0.1-1.4-0.1-2.1-0.5
	c-0.4-0.3-0.7-0.8-0.6-1.3c0.1-0.6,0.2-1.2,0.4-1.8l0.8-3.3L133.9,67.2z"/>
<path class="st2" d="M140,70.4c-0.1-1.4,0.5-2.8,1.6-3.7c1.2-1,2.6-1.4,4.1-1.4c1.2-0.1,2.5,0.3,3.5,1c0.8,0.7,1.3,1.7,1.2,2.7
	c0,1.3-0.6,2.6-1.6,3.5c-1.1,1-2.6,1.5-4.2,1.5c-0.9,0-1.7-0.1-2.5-0.5c-0.7-0.3-1.2-0.7-1.6-1.3C140.2,71.7,140,71,140,70.4z
	 M147.8,68.8c0-0.5-0.2-1-0.6-1.3c-0.4-0.3-0.9-0.5-1.4-0.5c-0.6,0-1.1,0.1-1.6,0.4c-0.5,0.3-0.8,0.8-1.1,1.3
	c-0.2,0.5-0.4,1-0.4,1.6c0,0.5,0.2,1,0.6,1.4c0.4,0.4,0.9,0.5,1.5,0.5c0.7,0,1.4-0.3,1.9-0.8C147.4,70.8,147.8,69.8,147.8,68.8
	L147.8,68.8z"/>
<path class="st2" d="M153.4,65.5h2.5l-0.4,1.6c0.7-1,1.8-1.7,3.1-1.8c0.4,0,0.9,0.1,1.3,0.2l-1,1.8c-0.7-0.2-1.6-0.1-2.2,0.3
	c-0.5,0.3-0.9,0.7-1.1,1.2c-0.4,0.7-0.6,1.5-0.8,2.3l-0.7,2.6h-2.7L153.4,65.5z"/>
<path class="st2" d="M168.7,70.4h-6.8c0,0.1,0,0.2,0,0.2c0,0.5,0.2,1,0.6,1.3c0.4,0.3,0.9,0.5,1.4,0.5c0.9,0,1.7-0.4,2.1-1.2
	l2.4,0.3c-0.4,0.8-1.1,1.4-1.9,1.8c-0.8,0.4-1.7,0.6-2.6,0.6c-1.2,0.1-2.3-0.3-3.3-1.1c-0.8-0.7-1.3-1.7-1.3-2.8
	c0-1.1,0.4-2.2,1.1-3c1.1-1.2,2.8-1.9,4.4-1.8c1.1-0.1,2.1,0.3,2.9,0.9c0.7,0.7,1.1,1.6,1.1,2.6C168.9,69.4,168.8,69.9,168.7,70.4z
	 M166.4,69c0-0.1,0-0.2,0-0.2c0-0.5-0.1-1-0.5-1.4c-0.4-0.3-0.9-0.5-1.3-0.5c-0.5,0-1.1,0.2-1.5,0.5c-0.5,0.4-0.8,0.9-0.9,1.6H166.4
	z"/>
<path class="st2" d="M169.4,71.5l2.6-0.3c0.2,0.4,0.5,0.8,0.9,1c0.4,0.2,0.9,0.3,1.4,0.3c0.5,0,1-0.1,1.5-0.3
	c0.2-0.1,0.4-0.3,0.4-0.6c0-0.2-0.1-0.3-0.2-0.4c-0.3-0.2-0.7-0.3-1.1-0.4c-1-0.2-2-0.6-3-1.1c-0.6-0.3-0.9-0.9-0.9-1.6
	c0-0.7,0.3-1.3,0.9-1.7c1.1-0.7,2.4-1.1,3.7-1c1-0.1,2,0.1,2.9,0.6c0.6,0.3,1.1,0.9,1.3,1.6l-2.5,0.4c-0.1-0.3-0.4-0.5-0.6-0.7
	c-0.5-0.2-0.9-0.3-1.4-0.3c-0.4,0-0.8,0-1.2,0.2c-0.2,0.1-0.4,0.3-0.4,0.5c0,0.2,0.2,0.4,0.4,0.5c0.5,0.2,1,0.3,1.5,0.4
	c0.9,0.2,1.8,0.5,2.6,0.9c0.6,0.3,0.9,0.9,0.9,1.6c0,0.8-0.5,1.6-1.2,2c-1,0.6-2.2,0.9-3.4,0.9c-1.2,0.1-2.3-0.2-3.4-0.7
	C170.2,73,169.6,72.3,169.4,71.5z"/>
</svg>
