<?xml version="1.0" encoding="utf-8"?>
<!-- Generator: Adobe Illustrator 21.1.0, SVG Export Plug-In . SVG Version: 6.00 Build 0)  -->
<svg version="1.1" id="Layer_1" xmlns="http://www.w3.org/2000/svg" xmlns:xlink="http://www.w3.org/1999/xlink" x="0px" y="0px"
	 viewBox="0 0 181.7 41.5" style="enable-background:new 0 0 181.7 41.5;" xml:space="preserve">
<style type="text/css">
	.st0{fill:#413A95;}
	.st1{font-family:'CooperBlackStd';}
	.st2{font-size:36.7888px;}
	.st3{letter-spacing:-1;}
	.st4{fill:#039790;}
</style>
<title>Grocery</title>
<text transform="matrix(0.97 0 0 1 28.8412 31.775)" class="st0 st1 st2">Plumb</text>
<text transform="matrix(0.97 0 0 1 153.5248 31.775)" class="st0 st1 st2 st3">’</text>
<text transform="matrix(0.97 0 0 1 163.3412 31.775)" class="st0 st1 st2">s</text>
<ellipse transform="matrix(0.9108 -0.4128 0.4128 0.9108 -10.0231 10.8752)" class="st0" cx="20.2" cy="28.6" rx="5.4" ry="4.4"/>
<ellipse transform="matrix(0.9108 -0.4128 0.4128 0.9108 -5.8314 10.276)" class="st0" cx="20.9" cy="18.6" rx="5.4" ry="4.4"/>
<ellipse class="st0" cx="10.7" cy="23.3" rx="5.9" ry="4.6"/>
<path class="st4" d="M11.6,16.9c0,0-8.2-2.1-11.1-9.3C0.5,7.6,9.1,9,11.6,16.9z"/>
<path class="st4" d="M13.4,15.7c0,0-5.3-6.7-3.3-14.1C10.1,1.6,16.1,7.9,13.4,15.7z"/>
</svg>
