<?xml version="1.0" encoding="utf-8"?>
<!-- Generator: Adobe Illustrator 21.1.0, SVG Export Plug-In . SVG Version: 6.00 Build 0)  -->
<svg version="1.1" id="Layer_1" xmlns="http://www.w3.org/2000/svg" xmlns:xlink="http://www.w3.org/1999/xlink" x="0px" y="0px"
	 viewBox="0 0 215.4 106.2" style="enable-background:new 0 0 215.4 106.2;" xml:space="preserve">
<style type="text/css">
	.st0{fill:#FFFFFF;}
</style>
<title>Fast Casual</title>
<path class="st0" d="M0.7,53.1c0.1,5.1,0.2,10.1,0.7,15.2c0.2,2,0.5,4,0.8,6c0,0.3,0.1,0.4,0.4,0.4c0.9,0,1.7,0.1,2.6,0.1
	c1.5,0,3-0.1,4.4-0.1c0.8,0,0.8-0.1,0.7-0.9c-0.5-2.8-1-5.7-1.4-8.5c-0.1-1-0.1-1.9-0.1-2.9c0-0.5,0.3-0.9,0.8-1.1
	c0.5-0.2,1.1-0.4,1.6-0.6c0.8-0.2,1.6-0.3,2.4-0.5c2.8-0.8,5-2.8,6.2-5.5c1.7-3.4,2.4-7.1,2.3-10.9c-0.1-2.8-1-5.5-2.6-7.8
	c-1.3-1.9-3.4-3-5.7-3c-3.8,0-7.4,1.1-10.6,3.2c-1,0.6-1.7,1.6-2,2.7c-0.2,0.8-0.4,1.7-0.4,2.5C0.8,45.2,0.7,49.2,0.7,53.1z
	 M144.3,70.9l0.3-0.1c1.4-0.2,2.8-0.6,4.1-1.2c2.1-0.8,3.8-2.4,4.7-4.4c0.3-0.7,0.5-1.4,0.7-2.1c0.5-2.5,0.8-5,0.8-7.5
	c0.1-1.7,0.1-3.4,0-5.1c-0.5-4.7-4-7.1-8-7.4c-1.3-0.1-2.6,0-4,0c-0.6,0-1.3,0-1.9,0.1c-2,0.1-3.6,1.8-3.6,3.8c-0.1,1.7,0,3.3,0,5
	c0,3.2,0.1,6.3,0.1,9.4c0,4.2-0.1,8.4,0.3,12.5c0.1,1.2,0.3,2.3,0.8,3.4c0.3,1,1.3,1.6,2.3,1.4c1.2-0.1,2.3-0.1,3.5-0.2h0.2
	c0.8-0.1,1.1-0.4,0.9-1.2s-0.4-1.8-0.5-2.8C144.7,73.4,144.5,72.1,144.3,70.9L144.3,70.9z M198.4,74.5c0-0.7,0-1.4,0-2.1
	c0-3.2,0.1-6.5,0-9.7c-0.1-3.6-0.4-7.1-0.5-10.7c-0.1-1.6-0.5-3.2-1.3-4.6c-1-2-2.7-3.4-4.8-4.1c-1.7-0.5-3.6-0.5-5.3-0.1
	c-1,0.2-1.8,0.7-2.4,1.5c-0.4,0.5-0.7,1-1,1.6c-0.8,1.6-0.8,3.5,0.1,5c0.1,0.2,0.3,0.4,0.5,0.6c0.2,0.2,0.6,0.3,0.8,0.1
	c0,0,0.1-0.1,0.1-0.1c0.2-0.3,0.3-0.6,0.4-0.8c0.2-0.4,0.4-0.7,0.6-1c1.7-1.6,4.3-1.5,5.9,0.1c0.2,0.2,0.3,0.4,0.5,0.6
	c0.4,0.6,0.6,1.4,0.4,2.2c-0.1,0.6-0.5,1.2-1.1,1.4c-0.3,0.1-0.5,0.2-0.8,0.2c-1,0.1-2,0.5-2.8,1.1c-1.6,1-3,2.3-4,3.9
	c-1.6,2.7-2.2,5.9-1.6,8.9c0.6,3.7,3.9,6.4,7.6,6.3c1.9-0.1,3.7,0,5.6-0.1C196.2,74.6,197.3,74.5,198.4,74.5L198.4,74.5z M76,58.4
	c0-0.7,0-1.4,0-2.1c-0.1-2.9-0.8-5.8-1.8-8.5c-0.6-1.8-1.9-3.4-3.6-4.3c-2.6-1.6-6-1.2-8.2,0.9c-1.2,1.1-2.2,2.5-2.7,4.1
	c-1.2,3.3-1.8,6.8-1.8,10.3c0,3.2,0.6,6.4,1.6,9.4c0.8,2.4,2.5,4.5,4.8,5.7c2.5,1.5,5.7,1,7.6-1.2c1-1,1.8-2.2,2.3-3.5
	C75.6,65.7,76.3,62,76,58.4z M39.9,58.7c-0.1-1.3-0.1-2.6-0.2-3.9c-0.3-2.3-0.8-4.5-1.6-6.7c-0.5-1.6-1.5-2.9-2.8-3.9
	c-2-1.6-4.8-2-7.1-0.9c-2.1,1-3.7,2.8-4.4,5c-1.1,2.8-1.7,5.8-1.9,8.8c-0.1,1.5,0,3.1,0.1,4.6c0.2,2.3,0.7,4.5,1.4,6.6
	c0.8,2.4,2.4,4.4,4.6,5.6c2.5,1.6,5.8,1.1,7.8-1.1c1.4-1.5,2.4-3.2,3-5.1C39.6,64.9,40.1,61.8,39.9,58.7L39.9,58.7z M135.9,58.9
	c0.1-3.4-0.5-6.9-1.6-10.1c-0.5-1.7-1.5-3.2-2.9-4.3c-2.5-2.1-6.2-2.2-8.7-0.1c-1.4,1.1-2.4,2.5-3,4.2c-2.3,6.3-2.5,13.1-0.4,19.5
	c0.5,1.8,1.5,3.5,2.9,4.8c1.2,1.2,2.7,1.9,4.4,2.2c2,0.3,4.1-0.6,5.4-2.1c1.4-1.7,2.5-3.6,3.1-5.8C135.7,64.4,136.1,61.7,135.9,58.9
	L135.9,58.9z M170.1,58.3c0-0.2,0-0.4,0-0.6c0-1.6,0.2-3.2,0.6-4.7c0.3-1.5,1.6-2.7,3.1-2.9c0.5,0,1,0,1.5,0.1
	c0.7,0.1,1.3,0.4,1.7,1c0.7,1,1.6,0.8,2.1-0.3c0.1-0.1,0.1-0.2,0.1-0.3c0.4-1.2,0.5-2.4,0.2-3.6c-0.2-1.5-1.2-2.7-2.6-3.3
	c-0.6-0.3-1.3-0.5-2-0.6c-1.6-0.3-3.2,0-4.5,0.9c-1.4,0.9-2.6,2.1-3.3,3.6c-0.4,0.8-0.8,1.5-1.1,2.3c-1.3,3.1-2,6.4-1.9,9.8
	c0.1,2.4,0.4,4.8,0.9,7.1c0.5,2.7,1.8,5.1,3.7,7c1.6,1.6,3.8,2.3,6,1.8c1.4-0.2,2.6-1,3.3-2.1c1.6-2.3,2.4-4.9,2.4-7.7
	c0-0.4-0.1-0.8-0.2-1.1c-0.2-0.5-0.7-0.8-1.2-0.8c-0.5,0-0.9,0.3-1,0.7c-0.2,0.4-0.3,0.8-0.4,1.2c-0.1,0.5-0.3,1-0.7,1.4
	c-0.6,0.6-1.3,0.9-2.1,1c-1.9,0.2-2.8-0.4-3.3-1.9C170.5,63.8,170.1,61.1,170.1,58.3L170.1,58.3z M41.1,51.1L41.1,51.1
	c0,2-0.1,4-0.1,6c-0.1,2.9-0.1,5.8,0.1,8.7c0.2,1.7,0.2,3.3,0.3,5c0.1,1.1,0.2,2.1,0.4,3.1c0.1,0.6,0.3,0.7,0.9,0.6
	c1.1-0.1,2.1-0.1,3.2-0.1c0.6,0,1.2,0,1.8,0s0.7-0.1,0.7-0.6c0-0.2,0-0.4,0-0.6c-0.4-3.1-0.8-6.1-1.1-9.2c-0.2-2.5-0.1-5-0.1-7.5
	c0-5.4-0.3-10.7,0.5-16.1c0.1-1.6,0.4-3.3,0.9-4.9c0.1-0.3,0.1-0.7,0.1-1c0.1-0.7-0.4-1.4-1.2-1.5c-0.1,0-0.2,0-0.2,0
	C46,33,44.7,33,43.4,33c-0.4,0-0.8,0.2-1,0.6c-0.2,0.3-0.3,0.6-0.4,1c-0.2,0.9-0.3,1.9-0.4,2.8C41.5,42,41.3,46.6,41.1,51.1z
	 M54.3,33L54.3,33l-0.8-0.1l-0.8-0.1c-0.6-0.1-1.2,0.3-1.4,0.9c-0.1,0.2-0.2,0.5-0.3,0.8c-0.2,0.7-0.3,1.5-0.3,2.2
	c-0.2,3.4-0.3,6.9-0.4,10.3c-0.1,3.8-0.2,7.6-0.3,11.4c0,2-0.1,3.9,0,5.9s0.2,4,0.4,5.9c0.1,1.2,0.2,2.3,0.4,3.5
	c0.1,0.7,0.3,0.8,1,0.7c1.7-0.1,3.3-0.1,5-0.1c0.3,0,0.5-0.1,0.5-0.4c0-0.2,0-0.4,0-0.7c-0.1-0.6-0.2-1.2-0.3-1.8
	c-0.3-2.4-0.6-4.9-0.8-7.3s-0.1-5-0.2-7.4s-0.1-5.1,0-7.7c0-2.2,0.1-4.5,0.3-6.7c0.2-1.9,0.5-3.8,0.8-5.7c0.1-0.6,0.3-1.2,0.4-1.8
	c0.2-0.8-0.2-1.6-0.9-1.8C56.5,33,56.3,33,56.2,33C55.6,33,54.9,33,54.3,33L54.3,33z M199.9,51.8h-0.1c0,1.6,0,3.2,0,4.8
	c0,2.9-0.1,5.8,0,8.6c0,2,0.2,4,0.4,6c0.1,1.2,0.2,2.3,0.4,3.5c0.1,0.8,0.3,0.8,1.1,0.8c1.6-0.1,3.3-0.1,5-0.1
	c0.4,0,0.6-0.1,0.6-0.5c0-0.3,0-0.6,0-0.9c-0.6-3.7-1-7.4-1.1-11.2c0-4.3-0.1-8.6-0.1-12.9c0-2.1,0.1-4.3,0.3-6.4
	c0.2-1.9,0.5-3.8,0.8-5.7c0.1-0.7,0.4-1.4,0.5-2.1c0.2-0.7-0.3-1.5-1-1.7c-0.1,0-0.3,0-0.5,0c-1-0.1-2,0-3.1-0.1
	c-1.4-0.1-1.8,0.2-2.2,1.6c0,0.1,0,0.2-0.1,0.2c-0.1,1.7-0.4,3.3-0.4,5C200.1,44.4,200,48.1,199.9,51.8L199.9,51.8z M103.3,58.6
	L103.3,58.6c0,3.9,0,7.7,0,11.6c0,1.1,0.1,2.1,0.2,3.2c0.2,1.2,0.7,1.5,1.8,1.4s2.5-0.1,3.8-0.2c0.3,0,0.5,0,0.8,0.1
	c0.3,0.1,0.6,0,0.7-0.3c0.1-0.2,0.1-0.3,0.1-0.5c0-0.8-0.1-1.7-0.2-2.5c-0.3-3.3-0.7-6.5-0.8-9.8c0-2.3-0.2-4.5-0.2-6.8
	c-0.1-1.4,0.3-2.7,1.2-3.8c0.7-1.1,2.2-1.5,3.3-0.8c0.3,0.2,0.5,0.4,0.7,0.6c0.3,0.3,0.5,0.6,0.8,0.9c0.4,0.5,0.7,0.5,1.1,0
	c0.4-0.6,0.8-1.3,1.1-2c0.7-1.4,0.8-2.9,0.4-4.4c-0.2-1-1-1.8-2-2c-1.6-0.3-3.2,0.2-4.3,1.4c-0.5,0.5-1,0.9-1.6,1.3
	c-0.1,0.1-0.3,0.1-0.5,0.1c0-0.2,0-0.3-0.1-0.5c0-0.3,0.1-0.6,0-0.9c0.1-0.6-0.4-1.1-1-1.1c0,0,0,0,0,0c-0.2,0-0.4,0-0.6,0
	c-0.8,0-1.6-0.1-2.3-0.1c-0.5,0-1,0-1.5,0.1c-0.4,0-0.8,0.3-0.8,0.8c-0.1,0.4-0.1,0.8-0.1,1.2c0,1.4,0.1,2.7,0.1,4.1
	C103.3,52.6,103.3,55.6,103.3,58.6L103.3,58.6z M156.3,58.7L156.3,58.7c0,3.4,0,6.8,0.2,10.1c0.1,1.5,0.3,3.1,0.5,4.6
	c0,0.8,0.6,1.4,1.4,1.4c0,0,0.1,0,0.1,0c1,0.1,2.1,0.1,3.1,0.1s1.4-0.4,1.3-1.4c-0.1-1.9-0.2-3.8-0.3-5.7c-0.1-2.1-0.4-4.2-0.5-6.3
	c-0.1-3.7-0.1-7.4-0.1-11.1c0-0.8,0-1.7,0.1-2.5s0.2-1.9,0.2-2.8s-0.3-1.4-1.3-1.7c-0.9-0.2-1.8-0.1-2.7,0.1
	c-0.9,0.1-1.6,0.8-1.7,1.6c-0.2,1-0.3,2-0.3,3.1C156.3,51.8,156.3,55.2,156.3,58.7L156.3,58.7z M162.1,36.8c-0.1-0.5-0.3-1-0.4-1.5
	c-0.6-1.4-2.1-2.1-3.5-1.5c-0.4,0.2-0.8,0.4-1.1,0.8c-1.1,1.3-1.1,3.3,0,4.6c0.9,1.1,2.6,1.3,3.7,0.4c0.1-0.1,0.3-0.2,0.4-0.4
	C161.7,38.5,162,37.7,162.1,36.8L162.1,36.8z"/>
<path d="M92.1,0.5c2,1.9,3.6,4.2,4.8,6.7c1.9,3.2,3.3,6.6,4.4,10.1c0.3,1,0.4,2,0.7,3c0,0,0.1-0.1,0.1-0.2c2-3.8,4.7-7.2,7.9-10
	c4.4-3.8,9.7-6.6,15.4-8.1c0.3-0.1,0.6,0,0.7,0.2c0.7,0.9,1.1,2.1,1.1,3.3c0,0.6-0.1,1.2-0.1,1.8c0,0.2-0.2,0.3-0.4,0.4
	c-5.1,0.7-10,2.6-14.3,5.4c-2.1,1.4-4.1,3-5.9,4.8l-0.1,0.2c0.1,0,0.1,0,0.2,0c4.8-2.4,9.9-4.2,15.2-5.4c4.7-1.2,9.6-1.9,14.5-1.9
	c1.4,0,2.8,0.1,4.2,0.1c0.2,0,0.4,0.1,0.5,0.3c0.4,0.9,0.6,1.9,0.6,2.9c0,1.4-0.3,2.9-0.9,4.2c-0.2,0.4-0.3,0.5-0.8,0.4
	c-1.8-0.4-3.6-0.7-5.5-0.7c-5.9-0.1-11.8,0.2-17.6,1c-3.2,0.3-6.3,0.9-9.4,1.6c-0.7,0.2-1.4,0.4-2.2,0.7v0.1
	c1.1-0.1,2.1-0.3,3.2-0.4c3.5-0.4,7-0.4,10.4,0c3.4,0.4,6.7,1.2,9.8,2.5c2.7,1.1,5.3,2.7,7.5,4.8c0.2,0.1,0.3,0.4,0.1,0.6
	c0,0,0,0-0.1,0.1c-1.2,1.9-2.8,3.5-4.7,4.7c-0.3,0.2-0.6,0.2-0.8-0.1c0,0,0,0,0-0.1c-3-3-6.6-5.4-10.5-7.1
	c-3.6-1.6-7.4-2.5-11.3-2.7c-2.2-0.1-4.4,0.1-6.5,0.6c-0.3,0.1-0.3,0.2-0.3,0.4c0.1,4.4,0,8.8-0.4,13.2c-0.1,0.7-0.2,1.5-0.3,2.2
	c-0.1,0.6-0.4,1.2-1,1.4c-0.7,0.3-1.4,0.6-2.2,0.9l0.2,1c0.8,3.5,1.4,7,1.8,10.5c0.2,1,0.1,2-0.4,2.9c-0.4,0.8-1.2,1.4-2.1,1.6
	c0,0.1,0,0.2,0,0.2c0.8,2.7,1.3,5.5,1.6,8.3c0.2,2.1,0.3,4.2,0.2,6.3c0,0.4-0.1,0.9-0.2,1.3c0,0.3-0.2,0.4-0.5,0.4
	c-1.6-0.1-3.3-0.3-4.9-0.3c-1.4,0-2.8,0.1-4.2,0.3c-0.5,0-0.7,0-0.7-0.6c0-1.3-0.1-2.5,0-3.8c0.1-3.1,0.6-6.1,1.5-9
	c0.3-1,0.8-1.9,1.2-2.8c0.1-0.1,0.1-0.3,0-0.4c-0.3-0.4-0.6-0.8-1-1.2c-1-0.8-1.5-2.2-1.1-3.5c0.6-2.8,1.5-5.6,2.5-8.2
	c0.4-1.2,0.9-2.4,1.4-3.6c-0.3-0.2-0.5-0.3-0.8-0.5c-1.7-1.3-1.9-2-1.2-4c0.8-2.2,1.7-4.2,2.9-6.2c1.4-2.5,2.9-4.8,4.8-7
	c0-0.1,0.1-0.1,0.1-0.2c-0.7-0.3-1.3-0.5-1.9-0.7c-2.4-0.7-4.9-1.1-7.4-1.1c-4.4-0.2-8.7,0.5-12.8,2c-2.6,1-5.1,2.4-7.3,4.2
	c-0.2,0.2-0.4,0.2-0.6,0.1c-1.2-0.5-2.2-1.4-3-2.4c-1-1.3-1.7-2.7-2.3-4.2c-0.1-0.3,0-0.4,0.2-0.5c2.1-1.8,4.6-3.1,7.2-3.9
	c5.1-1.6,10.5-1.8,15.7-0.6c3.7,0.8,7.2,2,10.6,3.7l0.3,0.2h0.1l-0.1-0.1c-4.1-2.7-8.4-4.9-12.9-6.6c-4.3-1.6-8.9-2.4-13.5-2.4h-3.9
	c0-0.1,0-0.1,0.1-0.2c1.3-2.1,3-3.8,5-5.2c0.4-0.3,0.8-0.4,1.3-0.3c5.6,0.7,11.1,2.6,15.9,5.6c3.1,1.8,6.1,4,8.8,6.4
	c0.1,0.1,0.2,0.1,0.3,0.1c-0.1-0.3-0.3-0.6-0.4-0.9c-0.9-1.5-1.9-2.8-3-4.1c-2.2-2.6-4.6-4.9-7.2-7.1c-0.8-0.7-1.8-1.3-2.8-1.9
	c0.3-0.4,0.6-0.8,1-1.2c1.2-1.1,2.8-1.9,4.4-2.1c0.1,0,0.2,0,0.3-0.1L92.1,0.5z"/>
<path d="M98,105.7c-0.2-0.1-0.4-0.3-0.3-0.5c0-5.5,0-10.9,0-16.4c0-0.4,0.1-0.5,0.5-0.5s0.8,0,1.2,0c0.6,0,0.7,0.1,0.9,0.7l1.5,5.5
	c0.2,0.7,0.4,1.4,0.6,2.1c0,0.1,0.1,0.3,0.2,0.4h0.1c0-0.2,0.1-0.4,0.1-0.6c0-2.5,0-4.9,0-7.4c0-0.7,0-0.8,0.8-0.8h1.4
	c0.3,0,0.4,0.1,0.4,0.5c0,0.8,0,1.7,0,2.5c0,4.5,0,9.1,0,13.6c0,0.3,0,0.6-0.3,0.8h-1.4c-0.3-0.2-0.6-0.5-0.6-0.8
	c-0.7-2.6-1.4-5.2-2.1-7.7c-0.1-0.3-0.2-0.6-0.3-0.9h-0.2c0,0.3-0.1,0.6-0.1,0.9c0,2.6,0,5.3,0,7.9c0,0.3-0.1,0.5-0.4,0.6L98,105.7z
	"/>
<path d="M66.6,105.7c-0.3-0.1-0.3-0.3-0.3-0.5c0-5.5,0-10.9,0-16.4c0-0.4,0.1-0.5,0.5-0.5s0.7,0,1.1,0c0.7,0,0.8,0.1,1,0.8l1.6,5.7
	c0.2,0.6,0.3,1.2,0.5,1.8c0.1,0.2,0.1,0.3,0.2,0.4h0.1c0-0.2,0.1-0.5,0.1-0.7c0-2.5,0-4.9,0-7.4c0-0.6,0.1-0.6,0.6-0.6s1.1,0,1.6,0
	c0.3,0,0.4,0.1,0.4,0.4c0,5.5,0,11,0,16.4c0,0.2-0.1,0.5-0.3,0.6h-1.4c-0.3-0.1-0.5-0.4-0.6-0.8c-0.1-0.3-0.1-0.5-0.2-0.8
	c-0.7-2.4-1.3-4.7-1.9-7.1c-0.1-0.3-0.2-0.5-0.3-0.8h-0.2c0,0.3-0.1,0.5-0.1,0.8c0,2.7,0,5.4,0,8.1c0,0.3-0.1,0.5-0.4,0.6
	L66.6,105.7z"/>
<path d="M171.3,105.7c-0.2-0.1-0.4-0.4-0.3-0.6c0-5.4,0-10.7,0-16.1c0-0.6,0.1-0.7,0.8-0.7c0.8,0,1.7,0,2.5,0c0.5,0,0.9,0.1,1.4,0.2
	c1.5,0.4,2.6,1.8,2.5,3.4c0,0.8,0,1.6,0,2.4c0.1,1-0.5,1.9-1.4,2.3l-0.1,0.1c0,0,0,0,0,0.1l0.3,0.1c0.7,0.2,1.2,0.9,1.3,1.6
	c0,0.1,0,0.3,0,0.4c0,2.1,0,4.1,0,6.2c0,0.3,0,0.4-0.3,0.6h-2.2c-0.1-0.2-0.2-0.4-0.2-0.6c0-1.9,0-3.7,0-5.6c0-0.2,0-0.4-0.1-0.6
	c-0.1-0.8-0.4-1-1.2-1c-0.6,0-0.6,0-0.6,0.6c0,2.1,0,4.3,0,6.4c0,0.3,0,0.6-0.4,0.7L171.3,105.7z M173.6,93.2c0,0.6,0,1.3,0,1.9
	c0,0.2,0,0.4,0.3,0.5c0.7,0.1,1.3-0.4,1.4-1c0,0,0-0.1,0-0.1c0.1-0.8,0.1-1.7,0-2.5c-0.1-0.8-0.5-1.1-1.3-1.1
	c-0.4,0-0.5,0.2-0.5,0.5C173.6,92,173.6,92.6,173.6,93.2L173.6,93.2z"/>
<path d="M129.3,105.7c-0.1,0-0.2,0-0.3-0.1c-0.1-0.1-0.2-0.2-0.3-0.3c0-0.1,0-0.2,0-0.4c0-5.3,0-10.6,0-15.9c0-0.7,0-0.7,0.7-0.8
	c0.4,0,0.9,0,1.4,0s0.6,0.1,0.6,0.6c0,1.8,0,3.7,0,5.5c0,0.2,0,0.3,0,0.5c0.1,0.2,0.2,0.3,0.4,0.4c0.3,0,0.6,0,0.9,0
	c0.4,0,0.5-0.2,0.5-0.5c0-1.4,0-2.9,0-4.3c0-0.6,0-1.2,0-1.8c0-0.4,0.1-0.5,0.5-0.5c0.6,0,1.1,0,1.7,0c0.4,0,0.5,0.1,0.5,0.5
	c0,2.1,0,4.2,0,6.4c0,3.2,0,6.3,0,9.5c0,0.8,0,0.8-0.8,1H134c-0.8-0.2-0.8-0.2-0.8-1c0-2.1,0-4.1,0-6.2c0-0.4-0.1-0.5-0.5-0.5
	s-0.5,0-0.8,0c-0.6,0-0.6,0.1-0.6,0.7c0,2.1,0,4.2,0,6.3c0,0.6,0,0.6-0.6,0.8L129.3,105.7z"/>
<path d="M12.4,105.7c-0.2-0.1-0.4-0.3-0.3-0.5c0-5.4,0-10.9,0-16.3c0-0.4,0.1-0.6,0.5-0.6h1.6c0.4,0,0.5,0.2,0.5,0.6
	c0,1.9,0,3.7,0,5.6c0,0.2,0,0.3,0,0.5c0,0.2,0.2,0.4,0.4,0.4c0,0,0,0,0.1,0h1c0.3,0,0.5-0.2,0.5-0.5s0-0.4,0-0.6c0-1.8,0-3.7,0-5.5
	c0-0.5,0-0.5,0.5-0.5h1.8c0.3,0,0.4,0.1,0.4,0.4c0,5.5,0,11,0,16.4c0,0.3-0.1,0.4-0.4,0.4c-0.1,0-0.3,0-0.4,0.1h-1h-0.2
	c-0.7-0.1-0.7-0.1-0.7-0.7c0-1.7,0-3.4,0-5.1c0-0.4,0-0.9,0-1.3S16.6,98,16.2,98s-0.5,0-0.8,0c-0.6,0-0.6,0.1-0.6,0.6
	c0,2.1,0,4.1,0,6.1c0,0.8,0,0.8-0.7,0.9L12.4,105.7z"/>
<path d="M88.7,105.7c-0.1,0-0.1-0.1-0.2-0.1c-1.7-0.2-2.9-1.7-2.8-3.4c0-0.9,0-1.7,0-2.5c0-2.7,0-5.3,0-8c0-1.7,1.2-3.2,2.9-3.4
	c2.1-0.3,3.7,0.7,4.2,2.5c0.1,0.3,0.1,0.6,0.1,0.9c0,3.5,0,7,0,10.5c0,0.5-0.1,1-0.3,1.5c-0.4,1-1.3,1.7-2.4,1.8l-0.4,0.1
	L88.7,105.7z M88.3,97c0,1.6,0,3.1,0,4.6c0,0.2,0,0.4,0.1,0.7c0,0.4,0.4,0.7,0.8,0.7c0.4,0.1,0.8-0.2,0.9-0.7
	c0.1-0.2,0.1-0.4,0.1-0.7c0-3.1,0-6.3,0-9.4c0-0.3-0.1-0.7-0.2-1c-0.2-0.4-0.6-0.6-1-0.4c-0.2,0.1-0.4,0.2-0.4,0.4
	c-0.1,0.3-0.2,0.7-0.2,1C88.3,93.9,88.3,95.5,88.3,97L88.3,97z"/>
<path d="M43.9,105.7c-0.5-0.1-0.6-0.4-0.6-0.9c0-5.3,0-10.5,0-15.8c0-0.6,0.1-0.7,0.6-0.7s1,0,1.5,0c0.3,0,0.5,0.2,0.5,0.6
	c0,1.9,0,3.8,0,5.8c0,0.1,0,0.3,0,0.5h0.1c0-0.1,0.1-0.3,0.2-0.4c0.6-2,1.1-3.9,1.6-5.9c0-0.3,0.3-0.5,0.6-0.5c0,0,0,0,0,0h1.8
	c0.2,0,0.4,0.1,0.5,0.1c-0.1,0.4-0.2,0.8-0.3,1.1c-0.6,1.8-1.2,3.5-1.7,5.3c-0.2,0.5-0.2,1.1,0,1.6c0.8,2.8,1.6,5.7,2.4,8.6
	c0.2,0.5,0.2,0.5-0.4,0.7h-2c-0.2-0.2-0.3-0.4-0.4-0.6c-0.5-2.1-1.1-4.2-1.6-6.3c0-0.2-0.1-0.4-0.2-0.6c-0.2,0.2-0.3,0.3-0.3,0.4
	c-0.2,0.4-0.3,0.8-0.3,1.3c0,1.7,0,3.3,0,5c0,0.7,0,0.7-0.7,1L43.9,105.7z"/>
<path d="M162,105.7l-0.6-0.1c-1.5-0.4-2.5-1.7-2.5-3.2c0-3.6,0-7.2,0-10.8c0-1.9,1.6-3.4,3.5-3.4c0.2,0,0.3,0,0.5,0
	c1.8,0.1,3.3,1.6,3.3,3.4c0,0.4,0,0.9,0,1.3c0,0.3-0.1,0.4-0.3,0.4l-2,0.1c-0.3,0-0.4-0.1-0.4-0.4s0-0.8,0-1.2c0-0.5-0.4-0.9-0.8-1
	c-0.5,0-0.8,0.3-0.9,0.8c0,0.2-0.1,0.5-0.1,0.7c0,3.1,0,6.2,0,9.3c0,0.3,0,0.5,0.1,0.8c0.1,0.5,0.6,0.8,1.1,0.7
	c0.4-0.1,0.7-0.4,0.7-0.8c0-1.1,0-2.3,0-3.4c0-0.3-0.2-0.4-0.5-0.4c-0.4,0-0.5-0.2-0.5-0.6c0-1-0.3-1.1,1.1-1.2c0.7,0,1.4,0,2.1,0
	c0.4,0,0.6,0.2,0.6,0.6c0,2.6,0,5.2,0,7.9c0,0.2-0.1,0.4-0.2,0.6h-0.6l-0.7-1.1c-0.4,0.6-1,1-1.7,1.1L162,105.7z"/>
<path d="M0.5,91.2l0.2-0.5c0.4-1.3,1.5-2.2,2.8-2.4c1.4-0.3,2.9,0.2,3.6,1.4c0.4,0.6,0.6,1.3,0.6,2c0,0.4,0,0.8,0,1.2
	c0,0.2-0.1,0.4-0.3,0.4c0,0-0.1,0-0.1,0c-0.6,0-1.2,0-1.8,0C5.2,93.4,5,93.3,5,93c0-0.4,0-0.7,0-1.1c0-0.3-0.2-0.6-0.4-0.8
	c-0.3-0.3-0.8-0.4-1.1-0.1c-0.1,0.1-0.2,0.2-0.2,0.3c-0.1,0.4-0.2,0.8-0.2,1.2c0,3,0,6,0,8.9c0,0.3,0,0.6,0.1,0.9
	c0.1,0.5,0.5,0.8,0.9,0.7c0,0,0,0,0.1,0c0.5,0,0.8-0.4,0.8-0.9c0-0.4,0-0.8,0-1.2c0-0.3,0.1-0.5,0.5-0.5h1.7c0.3,0,0.5,0.1,0.5,0.4
	c0,0.9-0.1,1.8-0.2,2.6c-0.3,1.1-1.2,2-2.4,2.1l-0.3,0.1H3.5c-0.1,0-0.1-0.1-0.2-0.1c-1.4-0.2-2.5-1.3-2.7-2.6c0-0.1,0-0.1-0.1-0.2
	C0.5,98.9,0.5,95,0.5,91.2z"/>
<path d="M34.8,105.7l-0.6-0.2c-1.5-0.4-2.5-1.8-2.5-3.3c0-3.5,0-7,0-10.5c-0.1-1.6,1-3,2.5-3.4c1.6-0.5,3.3,0.1,4.1,1.5
	c0.3,0.6,0.5,1.2,0.5,1.9c0,0.4,0,0.8,0,1.2c0,0.2-0.1,0.4-0.3,0.4c-0.6,0-1.3,0-1.9,0c-0.3,0-0.4-0.1-0.4-0.4c0-0.4,0-0.7,0-1.1
	c0-0.3-0.2-0.6-0.4-0.9c-0.3-0.3-0.8-0.3-1.1-0.1c-0.1,0.1-0.1,0.2-0.2,0.3c-0.1,0.3-0.2,0.7-0.2,1c0,3.1,0,6.2,0,9.4
	c0,0.3,0,0.5,0.1,0.8c0.1,0.5,0.6,0.7,1.1,0.6c0.3-0.1,0.6-0.4,0.6-0.7c0-0.4,0-0.8,0-1.2s0-0.6,0.6-0.6s1,0,1.5,0
	c0.2,0,0.5,0.1,0.5,0.4c0,0.7,0,1.4-0.1,2.1c-0.1,1.4-1.2,2.5-2.7,2.7c-0.1,0-0.1,0-0.2,0.1L34.8,105.7z"/>
<path d="M141.2,105.7c-0.1-0.2-0.2-0.4-0.3-0.7c0-5.3,0-10.6,0-15.9c0-0.7,0.2-0.8,0.8-0.8c1.6,0,3.3,0,4.9,0c0.4,0,0.5,0.1,0.5,0.4
	c0,0.5,0,1,0,1.5c0,0.3-0.1,0.5-0.5,0.5c-0.8,0-1.5,0-2.3,0c-0.6,0-0.7,0.1-0.7,0.7c0,1.1,0,2.2,0,3.3c0,0.5,0.1,0.6,0.6,0.6
	s0.8,0,1.2,0c0.2,0,0.4,0.1,0.4,0.3c0,0.6,0,1.2,0,1.8c0,0.2-0.1,0.3-0.4,0.3c-0.5,0-0.9,0-1.4,0c-0.2,0-0.5,0.2-0.5,0.4
	c0,0,0,0.1,0,0.1c0,1.4,0,2.9,0,4.3c0,0.5,0.1,0.6,0.6,0.6c0.8,0,1.6,0,2.5,0c0.4,0,0.5,0.1,0.5,0.5c0,0.5,0,1,0,1.6
	c0,0.2-0.1,0.3-0.1,0.4L141.2,105.7z"/>
<path d="M55.8,105.7c-0.1-0.2-0.2-0.5-0.3-0.7c0-5.3,0-10.5,0-15.8c0-0.1,0-0.2,0-0.4c0-0.3,0.2-0.6,0.5-0.6c0,0,0.1,0,0.1,0h5.2
	c0.2,0,0.3,0.1,0.3,0.3c0,0.6,0,1.2,0,1.7c0,0.3-0.1,0.4-0.4,0.4H59c-0.7,0-0.8,0.1-0.8,0.8c0,1.1,0,2.2,0,3.3
	c0,0.4,0.1,0.6,0.6,0.6s0.8,0,1.2,0s0.4,0.1,0.4,0.4c0,0.6,0,1.1,0,1.7c0,0.3-0.1,0.4-0.4,0.4c-0.4,0-0.9,0-1.3,0
	c-0.2,0-0.5,0.2-0.5,0.4c0,0,0,0.1,0,0.1c0,1.5,0,2.9,0,4.4c0,0.4,0.2,0.5,0.6,0.5h2.5c0.2,0,0.4,0,0.4,0.3c0,0.7,0,1.3,0,2
	c0,0.1-0.1,0.1-0.1,0.2L55.8,105.7z"/>
<path d="M119.6,105.7c-0.1-0.1-0.2-0.3-0.2-0.4c0-4.6,0-9.2,0-13.8c0-0.6-0.1-0.8-0.7-0.8h-1c-0.3,0-0.4-0.1-0.5-0.4
	c0-0.6,0-1.2,0-1.7c0-0.2,0.1-0.3,0.4-0.3h6.4c0.2,0,0.3,0.1,0.4,0.3c0,0,0,0.1,0,0.1c0,0.6,0,1.2,0,1.7c0,0.2-0.1,0.3-0.4,0.3h-1.2
	c-0.6,0-0.7,0.1-0.7,0.7c0,4.6,0,9.2,0,13.7c0,0.3,0,0.5-0.3,0.6L119.6,105.7z"/>
<path d="M190.8,105.7c-0.2-0.2-0.4-0.5-0.3-0.8c0-5.2,0-10.4,0-15.6c0-0.9,0-0.9,0.9-0.9c0.4,0,0.8,0,1.2,0s0.5,0.1,0.5,0.6
	c0,4.2,0,8.4,0,12.7c0,0.4,0,0.7,0,1.1s0.1,0.6,0.6,0.6c0.8,0,1.5,0,2.3,0c0.4,0,0.5,0.1,0.5,0.5c0,0.7-0.1,1.3-0.1,2L190.8,105.7z"
	/>
<path d="M201.2,105.7c-0.1-0.2-0.3-0.4-0.3-0.7c0-5.4,0-10.8,0-16.2c0-0.3,0.1-0.5,0.5-0.5c0.5,0,1.1,0,1.6,0s0.6,0.1,0.6,0.6
	c0,4.5,0,8.9,0,13.4c0,0.1,0,0.2,0,0.3c0,0.5,0.1,0.6,0.6,0.6c0.8,0,1.5,0,2.3,0c0.4,0,0.5,0.1,0.5,0.5c0,0.5,0,1,0,1.6
	c0,0.1-0.1,0.3-0.1,0.4L201.2,105.7z"/>
<path d="M183.5,105.7c-0.1,0-0.3,0-0.4-0.1c-0.1-0.1-0.2-0.2-0.2-0.3c0-0.1,0-0.2,0-0.3c0-5.4,0-10.8,0-16.1c0-0.6,0-0.6,0.6-0.6
	s1,0,1.5,0s0.6,0.1,0.6,0.6c0,1.5,0,3,0,4.5c0,3.8,0,7.7,0,11.5c0,0.8,0,0.6-0.6,0.8L183.5,105.7z"/>
<path d="M24.9,105.7c-0.6-0.1-0.6-0.1-0.6-0.7c0-5.3,0-10.7,0-16.1c0-0.5,0-0.6,0.5-0.6s1.1,0,1.7,0c0.3,0,0.4,0.1,0.4,0.5
	c0,5.5,0,11,0,16.4c0,0.3-0.1,0.4-0.4,0.4c-0.1,0-0.3,0-0.4,0.1H24.9z"/>
<path class="st0" d="M68.5,105.7c0.3-0.1,0.4-0.3,0.4-0.6c0-2.7,0-5.4,0-8.1c0-0.3,0-0.5,0.1-0.8h0.2c0.1,0.3,0.2,0.5,0.3,0.8
	c0.7,2.4,1.3,4.7,1.9,7.1c0.1,0.3,0.2,0.5,0.2,0.8c0,0.3,0.3,0.6,0.6,0.8L68.5,105.7z"/>
<path class="st0" d="M99.9,105.7c0.3-0.1,0.4-0.3,0.4-0.6c0-2.6,0-5.3,0-7.9c0-0.3,0-0.6,0.1-0.9h0.2c0.1,0.3,0.2,0.6,0.3,0.9
	c0.7,2.6,1.4,5.1,2.1,7.7c0.1,0.4,0.3,0.7,0.6,0.8L99.9,105.7z"/>
<path class="st0" d="M14,105.7c0.7-0.1,0.7-0.1,0.7-0.9c0-2.1,0-4.1,0-6.1c0-0.6,0.1-0.6,0.6-0.6c0.3,0,0.5,0,0.8,0s0.5,0.2,0.5,0.5
	s0,0.9,0,1.3c0,1.7,0,3.4,0,5.1c0,0.7,0,0.7,0.7,0.7h0.2L14,105.7z"/>
<path class="st0" d="M130.8,105.7c0.6-0.1,0.6-0.1,0.6-0.8c0-2.1,0-4.2,0-6.3c0-0.6,0.1-0.7,0.6-0.7c0.3,0,0.5,0,0.8,0
	s0.5,0.1,0.5,0.5c0,2.1,0,4.1,0,6.2c0,0.8,0,0.8,0.8,1L130.8,105.7z"/>
<path class="st0" d="M173.3,105.7c0.3-0.1,0.4-0.4,0.4-0.7c0-2.1,0-4.3,0-6.4c0-0.6,0-0.6,0.6-0.6c0.8,0,1.1,0.2,1.2,1
	c0,0.2,0.1,0.4,0.1,0.6c0,1.9,0,3.7,0,5.6c0,0.2,0.1,0.4,0.2,0.6L173.3,105.7z"/>
<path class="st0" d="M45.4,105.7c0.7-0.2,0.7-0.2,0.7-1c0-1.7,0-3.3,0-5c0-0.4,0.2-0.8,0.3-1.3c0-0.1,0.2-0.2,0.3-0.4
	c0.1,0.3,0.1,0.5,0.2,0.6c0.5,2.1,1,4.2,1.6,6.3c0.1,0.2,0.2,0.4,0.4,0.6L45.4,105.7z"/>
<path d="M214.9,37.7c-0.1,0.3-0.2,0.6-0.4,0.9c-0.8,1.4-2.6,1.9-3.9,1.1c-1.4-0.8-1.9-2.6-1.1-3.9s2.6-1.9,3.9-1.1
	c0.7,0.4,1.2,1.1,1.4,1.8c0,0.1,0,0.1,0.1,0.2V37.7z M214.3,37.2c0-1.3-1.1-2.3-2.4-2.3c-1.3,0-2.3,1.1-2.3,2.3c0,1.3,1,2.4,2.3,2.4
	C213.2,39.6,214.3,38.5,214.3,37.2C214.3,37.2,214.3,37.2,214.3,37.2z"/>
<path class="st0" d="M0.5,102.8c0,0.1,0.1,0.1,0.1,0.2c0.3,1.4,1.3,2.4,2.7,2.6c0.1,0,0.1,0,0.2,0.1h-3L0.5,102.8z"/>
<path class="st0" d="M163,105.7c0.7-0.2,1.3-0.6,1.7-1.1l0.7,1.1H163z"/>
<path d="M0.7,53.1c0.1-3.9,0.1-7.8,0.2-11.8c0-0.9,0.2-1.7,0.4-2.5c0.3-1.1,1-2.1,2-2.7c3.2-2,6.8-3.1,10.6-3.2c2.3,0,4.4,1.1,5.7,3
	c1.7,2.3,2.6,5,2.6,7.8c0.2,3.8-0.6,7.5-2.3,10.9c-1.2,2.6-3.4,4.6-6.2,5.4c-0.8,0.2-1.6,0.3-2.4,0.5c-0.5,0.2-1.1,0.3-1.6,0.6
	c-0.5,0.2-0.8,0.6-0.8,1.1c-0.1,1,0,1.9,0.1,2.9c0.4,2.9,0.9,5.7,1.4,8.5c0.1,0.8,0.1,0.9-0.7,0.9c-1.5,0.1-3,0.1-4.4,0.1
	c-0.9,0-1.7-0.1-2.6-0.1c-0.3,0-0.4-0.1-0.4-0.4c-0.3-2-0.6-4-0.8-6C0.8,63.2,0.8,58.1,0.7,53.1z M8.1,48.6L8.1,48.6
	c0,0.4,0,0.9,0,1.3c0,1,0,2,0.1,3c0,1,0.8,1.9,1.8,1.9c0.2,0,0.5,0,0.7-0.1c0.3-0.1,0.7-0.2,1-0.3c1.8-0.8,3.1-2.4,3.6-4.3
	c0.5-2,0.7-4.1,0.6-6.2c0-1-0.2-1.9-0.5-2.8C15,40,14,39.3,12.8,39.4c-0.5,0-1,0.1-1.5,0.1c-1.2,0-2.3,0.8-2.6,2
	c-0.4,1.2-0.7,2.4-0.7,3.6C8.1,46.3,8.1,47.4,8.1,48.6L8.1,48.6z"/>
<path d="M144.3,70.8c0.2,1.3,0.4,2.5,0.6,3.8c0.1,0.9,0.3,1.9,0.5,2.8s-0.1,1.1-0.9,1.2h-0.2c-1.2,0.1-2.3,0.1-3.5,0.2
	c-1,0.2-2-0.4-2.3-1.4c-0.4-1.1-0.7-2.3-0.8-3.4c-0.4-4.2-0.3-8.4-0.3-12.5c0-3.1-0.1-6.3-0.1-9.4c0-1.7-0.1-3.3,0-5
	c0-2,1.5-3.7,3.6-3.8c0.6-0.1,1.3-0.1,1.9-0.1c1.3,0,2.6-0.1,4,0c4,0.3,7.5,2.7,8,7.4c0.1,1.7,0.1,3.4,0,5.1c0,2.5-0.3,5-0.8,7.5
	c-0.2,0.7-0.4,1.5-0.7,2.1c-0.9,2-2.6,3.6-4.7,4.4c-1.3,0.6-2.7,1-4.1,1.2L144.3,70.8z M144,64.4c0.6,0,1.2-0.1,1.8-0.2
	c1.6-0.5,2.8-1.7,3.3-3.3c0.4-1.2,0.6-2.5,0.6-3.8c0-2-0.2-4-0.3-6c0-0.7-0.4-1.4-1-1.8c-0.6-0.4-1.2-0.6-1.8-0.8
	c-1.1-0.4-2.3,0.2-2.7,1.3c-0.1,0.3-0.1,0.6-0.1,0.9c0,1.3,0.1,2.7,0.1,4c0,2.5,0.1,4.9,0.1,7.4C144,62.8,144,63.5,144,64.4z"/>
<path d="M198.4,74.5c-1.1,0-2.1,0.1-3.2,0.1c-1.9,0-3.7,0-5.6,0.1c-3.7,0.1-7-2.6-7.6-6.3c-0.6-3.1,0-6.3,1.6-8.9c1-1.6,2.4-3,4-3.9
	c0.8-0.6,1.8-0.9,2.8-1.1c0.3,0,0.6-0.1,0.8-0.2c0.6-0.2,1-0.7,1.1-1.4c0.1-0.8,0-1.6-0.4-2.2c-1.3-1.9-3.8-2.4-5.8-1.2
	c-0.2,0.1-0.4,0.3-0.6,0.5c-0.2,0.3-0.4,0.6-0.6,1c-0.1,0.3-0.3,0.6-0.4,0.8c-0.2,0.3-0.5,0.4-0.8,0.2c-0.1,0-0.1-0.1-0.1-0.1
	c-0.2-0.2-0.3-0.4-0.5-0.6c-0.9-1.5-1-3.4-0.1-5c0.3-0.5,0.6-1.1,1-1.6c0.6-0.8,1.4-1.3,2.4-1.5c1.7-0.4,3.6-0.4,5.3,0.1
	c2.1,0.7,3.8,2.2,4.8,4.1c0.8,1.4,1.2,3,1.3,4.6c0.2,3.6,0.4,7.1,0.5,10.6c0.1,3.2,0,6.4,0,9.7C198.4,73.1,198.4,73.8,198.4,74.5z
	 M187.7,65.2c0,0.6,0.1,1.1,0.3,1.7c0.2,1.1,1.1,2,2.3,2.3c0.6,0.1,1.2-0.1,1.8-0.3c0.6-0.1,1.1-0.6,1.2-1.3
	c0.1-0.8,0.1-1.6,0.1-2.4c0-1.2-0.1-2.5,0-3.7c0.1-1-0.5-1.8-1.5-2c-0.1,0-0.2,0-0.3,0c-1.1,0-2.1,0.6-2.6,1.6
	C188.1,62.2,187.7,63.7,187.7,65.2z"/>
<path d="M76,58.4c0.3,3.7-0.4,7.4-1.8,10.7c-0.6,1.3-1.3,2.5-2.3,3.6c-1.9,2.2-5.1,2.7-7.6,1.2c-2.3-1.2-4-3.3-4.8-5.8
	c-1-3-1.6-6.2-1.6-9.4c0-3.5,0.6-7,1.8-10.3c0.6-1.6,1.5-3,2.7-4.1c2.2-2.1,5.6-2.5,8.2-0.9c1.7,0.9,3,2.5,3.6,4.3
	c1,2.7,1.6,5.6,1.8,8.5C76,57,76,57.7,76,58.4z M70.4,57.5h-0.1c0-0.5,0-1,0-1.5c-0.1-1.5-0.2-3-0.3-4.4c-0.1-1.1-0.5-2.1-1.1-2.9
	c-0.8-1.1-2.3-1.3-3.3-0.5c-0.3,0.2-0.5,0.5-0.7,0.8c-0.5,0.8-0.8,1.7-0.8,2.6c-0.2,1.6-0.3,3.3-0.4,4.9c-0.1,2.3,0,4.7,0.4,7
	c0.1,1.2,0.5,2.3,1.2,3.3c0.6,1.1,2,1.4,3.1,0.8c0.4-0.2,0.7-0.6,0.9-0.9c0.5-0.8,0.8-1.7,0.8-2.7C70.1,61.8,70.3,59.6,70.4,57.5z"
	/>
<path d="M39.9,58.7c0.1,3.1-0.3,6.2-1.3,9.2c-0.6,1.9-1.6,3.6-3,5.1c-2,2.2-5.3,2.7-7.8,1.1c-2.2-1.2-3.8-3.3-4.6-5.6
	c-0.8-2.1-1.2-4.4-1.4-6.6c-0.2-1.5-0.2-3.1-0.1-4.6c0.2-3,0.8-6,1.9-8.8c0.8-2.2,2.4-4,4.4-5c2.3-1.1,5.1-0.8,7.1,0.9
	c1.4,0.9,2.4,2.3,2.9,3.8c0.8,2.2,1.4,4.4,1.7,6.7C39.8,56.1,39.8,57.4,39.9,58.7z M34.2,58.1h-0.1c0-0.8,0-1.6,0-2.5
	c0-1.6-0.1-3.1-0.5-4.6c-0.2-0.7-0.5-1.4-0.9-2c-0.8-1.1-2.2-1.3-3.3-0.6c-0.3,0.2-0.6,0.5-0.7,0.8c-0.2,0.3-0.3,0.5-0.4,0.8
	c-0.3,1-0.5,2-0.6,3c-0.4,3.3-0.4,6.6,0,9.9c0.1,1.2,0.4,2.5,1,3.6c0.3,0.6,0.8,1.1,1.4,1.4c1.1,0.5,2.3,0,2.8-1.1c0,0,0,0,0,0
	c0.4-0.8,0.7-1.7,0.8-2.6C34,62.2,34.1,60.1,34.2,58.1z"/>
<path d="M135.9,58.9c0.1,2.8-0.2,5.6-1,8.2c-0.6,2.1-1.6,4.1-3.1,5.8c-1.3,1.6-3.3,2.4-5.4,2.1c-1.6-0.3-3.2-1-4.4-2.2
	c-1.4-1.3-2.4-3-2.9-4.8c-2.1-6.4-1.9-13.2,0.4-19.5c0.6-1.6,1.6-3.1,3-4.2c2.6-2.1,6.2-2,8.7,0.1c1.4,1.1,2.4,2.6,2.9,4.3
	C135.4,52,136,55.5,135.9,58.9z M130.3,58.2c-0.1-2.2-0.2-4.2-0.4-6.3c0-1.1-0.4-2.1-1.1-3c-0.8-1-2.3-1.2-3.3-0.4
	c-0.3,0.2-0.5,0.4-0.6,0.7c-0.2,0.4-0.4,0.9-0.6,1.3c-0.4,1.6-0.7,3.2-0.7,4.9c-0.2,2.8-0.1,5.6,0.4,8.4c0.1,1.1,0.5,2.1,1,3
	c0.3,0.6,0.9,1.1,1.6,1.2c1.1,0.3,2.2-0.4,2.5-1.4c0.4-0.8,0.6-1.7,0.7-2.5C130,62.2,130.1,60.2,130.3,58.2L130.3,58.2z"/>
<path d="M170.1,58.3c0,2.8,0.4,5.5,1.3,8.1c0.5,1.5,1.4,2.1,3.3,1.9c0.8-0.1,1.5-0.4,2.1-1c0.4-0.4,0.7-0.9,0.7-1.4
	c0.1-0.4,0.2-0.8,0.4-1.2c0.1-0.4,0.5-0.7,1-0.7c0.5,0,1,0.3,1.2,0.8c0.1,0.4,0.2,0.7,0.2,1.1c0,2.7-0.9,5.4-2.4,7.7
	c-0.8,1.1-2,1.9-3.3,2.1c-2.2,0.5-4.4-0.2-6-1.8c-1.9-1.9-3.2-4.3-3.7-7c-0.5-2.4-0.8-4.7-0.9-7.1c-0.1-3.4,0.5-6.7,1.9-9.8
	c0.3-0.8,0.8-1.6,1.1-2.3c0.8-1.5,1.9-2.7,3.3-3.6c1.4-0.8,3-1.1,4.5-0.9c0.7,0.1,1.4,0.3,2,0.6c1.4,0.6,2.4,1.8,2.6,3.3
	c0.3,1.2,0.2,2.5-0.2,3.6c0,0.1-0.1,0.2-0.1,0.3c-0.5,1.1-1.4,1.2-2.1,0.3c-0.4-0.6-1-0.9-1.7-1c-0.5-0.1-1-0.1-1.5-0.1
	c-1.5,0.2-2.8,1.3-3.1,2.9c-0.4,1.5-0.6,3.1-0.6,4.7C170.1,57.9,170.1,58.1,170.1,58.3z"/>
<path d="M41.1,51.1c0.2-4.6,0.3-9.1,0.5-13.7c0.1-0.9,0.2-1.9,0.4-2.8c0.1-0.4,0.2-0.7,0.4-1c0.2-0.4,0.6-0.6,1-0.6
	c1.3,0,2.6,0.1,3.9,0.1c0.7,0,1.4,0.5,1.4,1.3c0,0.1,0,0.2,0,0.3c0,0.3,0,0.7-0.1,1c-0.4,1.6-0.7,3.2-0.9,4.9
	c-0.8,5.3-0.5,10.7-0.5,16.1c0,2.5,0,5,0.1,7.5c0.2,3.1,0.7,6.1,1.1,9.2c0,0.2,0,0.4,0,0.6c0,0.5-0.3,0.6-0.7,0.6s-1.2,0-1.8,0
	c-1.1,0-2.1,0-3.2,0.1c-0.6,0-0.8-0.1-0.9-0.6c-0.2-1-0.3-2.1-0.4-3.1c-0.1-1.7-0.2-3.3-0.3-5c-0.2-2.9-0.2-5.8-0.1-8.7
	C41,55.1,41.1,53.1,41.1,51.1L41.1,51.1z"/>
<path d="M54.3,33c0.7,0,1.3,0,2,0c0.8,0,1.5,0.6,1.5,1.4c0,0.2,0,0.3-0.1,0.5c-0.1,0.6-0.3,1.2-0.4,1.8c-0.3,1.9-0.6,3.8-0.8,5.7
	c-0.2,2.2-0.3,4.5-0.3,6.7c0,2.6,0,5.1,0,7.7s0,5,0.2,7.4s0.5,4.9,0.8,7.3c0.1,0.6,0.2,1.2,0.3,1.8c0,0.2,0,0.4,0,0.7
	c-0.1,0.3-0.3,0.4-0.5,0.4c-1.7,0-3.3,0-5,0.1c-0.7,0-0.9,0-1-0.7c-0.2-1.2-0.3-2.3-0.4-3.5c-0.2-2-0.3-4-0.4-5.9s0-3.9,0-5.9
	c0.1-3.8,0.2-7.6,0.3-11.4c0.1-3.4,0.3-6.9,0.4-10.3c0.1-0.7,0.2-1.5,0.3-2.2c0.1-0.3,0.1-0.5,0.3-0.8c0.2-0.6,0.8-1,1.4-0.9
	l0.8,0.1L54.3,33L54.3,33z"/>
<path d="M199.9,51.8c0.1-3.7,0.2-7.3,0.4-11c0.1-1.7,0.3-3.3,0.4-5c0-0.1,0-0.2,0.1-0.2c0.4-1.4,0.8-1.7,2.2-1.6
	c1,0.1,2,0.1,3.1,0.1c0.8-0.1,1.4,0.5,1.5,1.2c0,0.2,0,0.3,0,0.5c-0.1,0.7-0.4,1.4-0.5,2.1c-0.3,1.9-0.6,3.8-0.8,5.7
	c-0.2,2.1-0.3,4.3-0.3,6.4c0,4.3,0.1,8.6,0.1,12.9c0.1,3.8,0.5,7.5,1.1,11.2c0,0.3,0,0.6,0,0.9c0,0.3-0.3,0.5-0.6,0.5
	c-1.6,0-3.3,0-5,0.1c-0.8,0-1,0-1.1-0.8c-0.2-1.2-0.3-2.3-0.4-3.5c-0.2-2-0.4-4-0.4-6c-0.1-2.9,0-5.8,0-8.6c0-1.6,0-3.2,0-4.8
	L199.9,51.8z"/>
<path d="M103.3,58.7c0-3,0-6.1,0-9.1c0-1.4-0.1-2.7-0.1-4.1c0-0.4,0-0.8,0.1-1.2c0-0.4,0.4-0.7,0.8-0.8c0.5,0,1-0.1,1.5-0.1
	c0.8,0,1.6,0,2.3,0.1c0.2,0,0.4,0,0.6,0c0.6,0,1,0.5,1,1.1c0,0,0,0,0,0c0,0.3,0,0.6,0,0.9c0,0.2,0,0.3,0.1,0.5c0.2,0,0.4,0,0.5-0.1
	c0.6-0.4,1.1-0.8,1.6-1.3c1.1-1.2,2.7-1.7,4.3-1.4c1,0.2,1.8,1,2,2c0.4,1.5,0.3,3-0.4,4.4c-0.3,0.7-0.7,1.4-1.1,2
	c-0.3,0.5-0.6,0.5-1.1,0c-0.3-0.3-0.5-0.6-0.8-0.9c-0.8-1-2.3-1.2-3.4-0.4c-0.2,0.2-0.4,0.4-0.6,0.7c-0.8,1.1-1.2,2.4-1.2,3.8
	c0.1,2.3,0.2,4.5,0.2,6.8c0.1,3.3,0.5,6.6,0.8,9.8c0.1,0.8,0.1,1.7,0.2,2.5c0,0.2,0,0.3-0.1,0.5c-0.1,0.3-0.3,0.4-0.7,0.3
	c-0.3-0.1-0.5-0.1-0.8-0.1c-1.3,0-2.5,0.1-3.8,0.2c-1.2,0.1-1.7-0.3-1.8-1.4c-0.1-1.1-0.2-2.1-0.2-3.2
	C103.4,66.3,103.4,62.4,103.3,58.7L103.3,58.7z"/>
<path d="M156.3,58.7c0-3.5,0-7,0-10.4c0-1,0.1-2.1,0.3-3.1c0.1-0.9,0.8-1.6,1.7-1.6c0.9-0.2,1.8-0.2,2.7-0.1c1,0.3,1.4,0.7,1.3,1.7
	s-0.2,1.9-0.2,2.8s-0.1,1.7-0.1,2.5c0,3.7,0,7.4,0.1,11.1c0.1,2.1,0.3,4.2,0.5,6.3c0.1,1.9,0.3,3.8,0.3,5.7c0,0.9-0.4,1.3-1.3,1.4
	s-2.1,0-3.1-0.1c-0.8,0-1.4-0.6-1.5-1.3c0,0,0-0.1,0-0.1c-0.2-1.5-0.4-3-0.5-4.6C156.3,65.5,156.3,62.1,156.3,58.7L156.3,58.7z"/>
<path d="M162.1,36.9c0,0.8-0.4,1.6-0.9,2.3c-0.9,1.1-2.6,1.3-3.7,0.4c-0.1-0.1-0.3-0.2-0.4-0.4c-1.1-1.3-1.1-3.3,0-4.6
	c1-1.1,2.7-1.3,3.8-0.3c0.3,0.3,0.6,0.6,0.8,1.1C161.8,35.8,162,36.3,162.1,36.9z"/>
<path class="st0" d="M173.6,93.2c0-0.6,0-1.2,0-1.8c0-0.4,0.1-0.5,0.5-0.5c0.8,0,1.2,0.3,1.3,1.1c0.1,0.8,0.1,1.7,0,2.5
	c-0.1,0.7-0.7,1.2-1.4,1.1c0,0-0.1,0-0.1,0c-0.3,0-0.3-0.2-0.3-0.5C173.6,94.5,173.6,93.9,173.6,93.2z"/>
<path class="st0" d="M88.3,97c0-1.6,0-3.1,0-4.7c0-0.3,0.1-0.7,0.2-1c0.2-0.4,0.6-0.6,1-0.4c0.2,0.1,0.4,0.2,0.4,0.4
	c0.1,0.3,0.2,0.7,0.2,1c0,3.1,0,6.3,0,9.4c0,0.2,0,0.5-0.1,0.7c-0.1,0.4-0.5,0.7-0.9,0.7c-0.4,0-0.8-0.3-0.8-0.7
	c0-0.2-0.1-0.4-0.1-0.7C88.3,100.1,88.3,98.6,88.3,97z"/>
<path class="st0" d="M214.3,37.2c0,1.3-1,2.4-2.3,2.4c-1.3,0-2.4-1-2.4-2.3c0,0,0,0,0,0c0-1.3,1.1-2.3,2.4-2.3
	C213.2,34.9,214.3,35.9,214.3,37.2z M212.6,37.5l0.1-0.1c0.5-0.2,0.6-0.4,0.6-0.9c0-0.4-0.3-0.7-0.7-0.7c0,0,0,0-0.1,0
	c-0.6,0-1.1,0-1.7,0v2.8h0.6v-1.2c0.3-0.1,0.5,0,0.6,0.3s0.2,0.3,0.2,0.5c0.1,0.4,0.4,0.5,0.9,0.4L212.6,37.5z"/>
<path class="st0" d="M8.1,48.6c0-1.1,0-2.3,0-3.4c0-1.2,0.2-2.5,0.7-3.6c0.3-1.2,1.4-2,2.6-2c0.5,0,1-0.1,1.5-0.1
	c1.1-0.1,2.2,0.6,2.5,1.7c0.3,0.9,0.5,1.8,0.5,2.8c0.1,2.1-0.1,4.2-0.6,6.2c-0.5,1.9-1.8,3.5-3.6,4.3c-0.3,0.2-0.7,0.3-1,0.3
	c-1,0.3-2-0.2-2.4-1.1c-0.1-0.2-0.1-0.4-0.1-0.6c-0.1-1-0.1-2-0.1-3C8.1,49.5,8.1,49.1,8.1,48.6L8.1,48.6z"/>
<path class="st0" d="M144,64.4c0-0.9,0-1.6,0-2.3c0-2.5,0-4.9-0.1-7.4c0-1.3-0.1-2.7-0.1-4c-0.1-1.1,0.7-2.2,1.9-2.3
	c0.3,0,0.6,0,0.9,0.1c0.6,0.2,1.2,0.5,1.8,0.8c0.6,0.4,1,1,1,1.8c0.1,2,0.2,4,0.3,6c0,1.3-0.2,2.6-0.6,3.8c-0.4,1.6-1.7,2.8-3.3,3.3
	C145.2,64.3,144.6,64.4,144,64.4z"/>
<path class="st0" d="M187.7,65.2c0-1.5,0.4-2.9,1.1-4.2c0.5-1,1.5-1.6,2.6-1.6c1,0,1.8,0.7,1.8,1.7c0,0.1,0,0.2,0,0.3
	c-0.1,1.2,0,2.5,0,3.7c0,0.8,0,1.6-0.1,2.4c0,0.7-0.5,1.2-1.2,1.3c-0.6,0.3-1.2,0.4-1.8,0.3c-1.1-0.3-2-1.2-2.3-2.3
	C187.8,66.3,187.7,65.7,187.7,65.2z"/>
<path class="st0" d="M70.4,57.5c-0.1,2.1-0.3,4.3-0.4,6.4c-0.1,0.9-0.4,1.9-0.8,2.7c-0.5,1.1-1.9,1.6-3,1c-0.4-0.2-0.7-0.5-0.9-0.9
	c-0.6-1-1-2.1-1.2-3.3c-0.4-2.3-0.5-4.7-0.4-7c0.1-1.6,0.2-3.3,0.4-4.9c0.1-0.9,0.4-1.8,0.8-2.6c0.6-1.2,2.1-1.6,3.2-1
	c0.3,0.2,0.6,0.4,0.8,0.7c0.6,0.8,1,1.8,1.1,2.9c0.2,1.5,0.2,3,0.3,4.4c0,0.5,0,1,0,1.5L70.4,57.5z"/>
<path class="st0" d="M34.2,58.1c-0.2,2.1-0.2,4.1-0.5,6.2c-0.1,0.9-0.4,1.8-0.8,2.6c-0.4,1.1-1.7,1.6-2.8,1.2c0,0,0,0,0,0
	c-0.6-0.3-1.2-0.8-1.5-1.4c-0.6-1.1-0.9-2.3-1-3.6c-0.4-3.3-0.4-6.6,0-9.9c0.1-1,0.4-2,0.6-3c0.1-0.3,0.2-0.6,0.4-0.8
	c0.6-1.2,2-1.6,3.2-1c0.3,0.2,0.6,0.4,0.8,0.7c0.4,0.6,0.7,1.3,0.9,2c0.3,1.5,0.5,3.1,0.5,4.6c0,0.8,0,1.6,0,2.5L34.2,58.1z"/>
<path class="st0" d="M130.3,58.2c-0.1,1.9-0.2,4-0.4,6c-0.1,0.9-0.4,1.7-0.7,2.5c-0.4,1.1-1.5,1.7-2.5,1.4c-0.7-0.2-1.3-0.6-1.6-1.2
	c-0.5-0.9-0.9-1.9-1-3c-0.4-2.8-0.5-5.6-0.4-8.4c0-1.6,0.2-3.3,0.7-4.9c0.1-0.5,0.3-0.9,0.6-1.3c0.6-1.1,2.1-1.6,3.2-0.9
	c0.3,0.2,0.5,0.4,0.7,0.6c0.7,0.9,1.1,1.9,1.1,3C130,54,130.1,56.1,130.3,58.2z"/>
<path d="M212.6,37.5l0.6,1.1c-0.4,0.2-0.8,0-0.9-0.4c-0.1-0.2-0.2-0.3-0.2-0.5s-0.3-0.4-0.6-0.3v1.2h-0.6v-2.8c0.6,0,1.1,0,1.7,0
	c0.4,0,0.7,0.3,0.7,0.6c0,0,0,0,0,0.1c0,0.5-0.1,0.7-0.6,0.9L212.6,37.5z M211.5,37c0.3,0,0.6,0,0.9,0c0.2-0.1,0.3-0.2,0.3-0.4
	c0-0.2-0.2-0.3-0.4-0.4C211.3,36.2,211.4,36.1,211.5,37L211.5,37z"/>
<path class="st0" d="M211.5,37c-0.1-0.9-0.1-0.8,0.9-0.8c0.2,0,0.3,0.2,0.4,0.4c0,0.2-0.2,0.3-0.3,0.4C212.1,37,211.8,37,211.5,37z"
	/>
</svg>
