<?xml version="1.0" encoding="utf-8"?>
<!-- Generator: Adobe Illustrator 21.1.0, SVG Export Plug-In . SVG Version: 6.00 Build 0)  -->
<svg version="1.1" id="Layer_1" xmlns="http://www.w3.org/2000/svg" xmlns:xlink="http://www.w3.org/1999/xlink" x="0px" y="0px"
	 viewBox="0 0 207.8 74.5" style="enable-background:new 0 0 207.8 74.5;" xml:space="preserve">
<style type="text/css">
	.st0{fill:#FFFFFF;}
	.st1{fill:#DC1F26;}
</style>
<title>Fast Casual</title>
<path class="st0" d="M101.9,52.9H12.8c-1.5,0-3,0-4.5,0c-4.1-0.1-7.5,3-7.6,7.1c-0.1,2.2-0.1,4.5,0,6.7C0.9,71.1,4,74,8.5,74h187.3
	c4.1,0,7.4-3.3,7.4-7.4c0-2.1,0-4.2,0-6.3c0-0.7-0.1-1.4-0.3-2.1c-1-3.2-4.1-5.4-7.5-5.2L101.9,52.9z M171.5,30c0-0.3,0-0.6,0-0.8
	c0-1.2-0.1-2.4-0.2-3.6c-0.3-2.6-2.4-4.6-5-4.8c-2-0.3-4-0.1-5.9,0.5c-3.6,1-6.6,3.4-8.4,6.7c-0.7,1.5-1.4,3.1-1.9,4.7
	c-0.6,1.7-1.2,3.3-2,4.8c-1,1.9-3,3.1-5.2,3c-0.8,0-1.3-0.4-1.2-1.2c0-0.8,0.2-1.6,0.5-2.3c0.9-1.9,1.9-3.8,2.9-5.7
	c2.7-5.5,5.4-11.1,8.1-16.6c0.6-1.3,1.3-2.7,1.8-4.1c0.6-1.6-0.2-3.5-1.9-4.1c-0.1,0-0.3-0.1-0.4-0.1c-0.3-0.1-0.7-0.2-1-0.3
	c-0.6-0.2-1.2-0.1-1.6,0.4c-0.8,0.8-1.5,1.6-2.1,2.5c-3.9,7.5-7.7,15-11.5,22.5c-0.6,1.3-1.4,2.6-2.4,3.7c-1.4,1.4-2.8,2.8-4.3,4.1
	c-0.5,0.4-1.1,0.8-1.7,1.1c-0.9,0.4-1.4,0.1-1.6-0.8c-0.2-1-0.3-2.1-0.3-3.1c0.3-3,1.2-5.9,2.7-8.5c2.6-4.7,5.4-9.3,8.4-13.8
	c0.9-1.3,1.6-2.7,2.2-4.2c0.5-1.1,0.1-2.4-1-3c-0.1-0.1-0.3-0.1-0.4-0.1c-1.4-0.7-3.2-0.4-4.3,0.8c-0.8,0.8-1.5,1.7-2.2,2.6
	c-1.8,2.5-3.5,5.1-5.3,7.6c-2.2,3.4-3.8,7.1-4.7,11c-0.4,1.6-0.8,3.2-1.2,4.7c-0.2,0.8-0.8,1.5-1.6,1.6c-0.4,0.1-0.8,0.3-1.1,0.5
	c-0.6,0.4-1.3,0.8-1.9,1.3c-1.4,0.9-2.8,1.9-4.2,2.8c-0.9,0.6-1.5,0.3-1.9-0.7c-0.7-1.5-0.5-3.2,0.4-4.5c0.3-0.4,0.6-0.8,0.9-1.2
	c1.1-1.3,2.2-2.6,3.2-4c0.7-0.9,1.3-1.8,1.7-2.8c0.5-1,0.2-2.3-0.7-3c-1.5-1.3-3.8-1.4-5.3-0.1c-2.3,1.9-4.2,4.2-5.6,6.9
	c-0.8,1.6-1.6,3.2-2.4,4.9c-0.2,0.7-0.9,1.2-1.6,1.2c-0.7,0.1-1.3,0.4-1.7,1c-0.3,0.3-0.5,0.7-0.7,1c-0.8,1.1-1.9,2-3.1,2.5
	c-0.8,0.3-1.7,0.2-2.3-0.4c-0.7-0.5-1-1.3-0.7-2.1c0.2-0.7,0.4-1.3,0.7-2c1.4-3.3,3.2-6.4,5.4-9.3c0.5-0.7,1.3-1.2,2.2-1.3
	c0.7-0.1,1.3-0.2,1.9-0.3c2.1-0.5,2.1-0.2,2.1-2.6c0-0.9-0.4-1.3-1.3-1.3c-0.6,0-1.3,0-1.9,0s-0.8-0.3-0.6-0.9
	c0.1-0.2,0.2-0.3,0.3-0.5c0.5-0.9,1.1-1.8,1.6-2.7c0.7-1.2,0.7-2.6,0-3.8c-0.6-1-1.3-1.9-2-2.7c-0.3-0.5-0.9-0.6-1.4-0.3
	c-0.1,0.1-0.2,0.2-0.3,0.3c-0.4,0.5-0.7,0.9-0.9,1.5c-1.8,3.4-3.7,6.8-5.5,10.1c-0.3,0.6-0.8,0.9-1.4,0.9c-1.4,0-2.9,0-4.3,0.1
	c-0.7-0.1-1.3,0.4-1.3,1.1c0,0.2,0,0.4,0.1,0.6c0.2,0.9,0.9,1.7,1.8,2c0.5,0.2,1.1,0.3,1.6,0.4c0.8,0.2,0.9,0.4,0.6,1.1
	s-0.7,1.2-1.1,1.8c-0.8,1.3-1.5,2.6-2.1,3.9c-0.5,1.4-1,2.8-1.3,4.2c-0.3,1.2-0.3,2.4,0,3.6c0.4,2,1.9,3.6,3.9,4.1
	c2.7,0.8,5.7,0.4,8.1-1c1.7-1,3.1-2.4,4.1-4.1c0.2-0.3,0.4-0.5,0.7-0.9c0.5,1,0.8,1.9,1.2,2.7c0.5,1.3,1.7,2.2,3.1,2.5
	c1.9,0.3,3.9,0.3,5.8,0c1.9-0.4,3.6-1.3,5.1-2.5c0.5-0.4,1-0.8,1.6-1.2s0.8-0.2,1,0.3c0.2,0.4,0.2,0.8,0.4,1.2
	c0.5,1.8,2,3.1,3.8,3.5c1.1,0.2,2.3,0.1,3.3-0.4c3-1,5.5-3,7.2-5.7c0.3-0.4,0.6-1,1.3-0.8s0.5,0.8,0.5,1.2c0,2.3,1.7,4.3,4,4.7
	c0.8,0.1,1.6,0.1,2.4,0.1c2.2,0,4.3-1.1,5.6-3c0.3-0.4,0.5-0.7,0.8-1.1c0.8-1.1,1.2-1.1,1.9,0.1c0.5,1,1.4,1.9,2.5,2.3
	c2.3,1.3,5,1.5,7.5,0.6c0.7-0.3,1.4-0.5,2.1-0.8c2.9-1,5.3-3.1,6.8-5.8c0.7-1.4,1.3-2.9,1.6-4.5c0.1-0.3,0.1-0.6,0.5-0.6
	c1.7,0,3.3-0.7,4.4-2c0.7-0.8,1.4-1.6,2-2.4c0.1-0.2,0.2-0.4,0.1-0.7c0-0.1-0.4-0.2-0.6-0.1c-0.3,0.1-0.7,0.2-1,0.3
	c-1.1,0.5-2.3,1-3.4,1.4C172.3,29.9,171.9,30,171.5,30L171.5,30z M45.2,11.1c0-2-0.7-4-1.9-5.6c-1.8-2.2-4.4-3.7-7.3-4
	c-4.6-0.8-9.3-1.1-14-1c-4.4,0.1-8.8,0.6-13.1,1.4C7.6,2,6.5,2.9,6,4.1C5.3,6.1,6,8.7,9,8.9C10.8,9,12.6,9,14.5,9
	c0.4,0,0.9,0.1,1.1,0.4c0.1,0.4,0.1,0.8-0.2,1.2c-2.6,4.4-5.2,8.8-8,13.2c-2.6,3.9-4.7,8.1-6.3,12.5c-1.2,2.9-0.4,6.3,2.1,8.2
	c0.6,0.7,1.6,0.8,2.3,0.2c0.1-0.1,0.1-0.1,0.2-0.2c0.7-0.6,1.2-1.2,1.8-1.9c2.5-3.4,4.3-7.2,6.4-10.8c0.2-0.6,0.8-1,1.4-1.1
	c1.6-0.2,3.2-0.3,4.7-0.5c2.2-0.2,4.5-0.3,6.7-0.7c7.2-1.3,12.5-5.4,16.4-11.4C44.4,16,45.2,13.6,45.2,11.1z M58.4,41.3
	c0,1.1,0.5,2.2,1.2,3.1c0.6,0.8,1.5,1.2,2.5,1.1c1,0,1.9-0.5,2.6-1.2c0.7-0.7,1.2-1.5,1.6-2.4c1.5-3.4,3.3-6.6,5.3-9.7
	c1.4-1.9,3.3-3.5,5.4-4.6c0.4-0.3,0.7-0.1,0.7,0.4c0,0.3-0.1,0.7-0.3,1c-0.3,0.6-0.3,1.4,0,2c0.2,0.5,0.7,0.8,1.2,0.8
	c1.7,0.1,3.2-0.6,4.2-2c0.4-0.7,0.9-1.4,1.3-2.1c0.6-1,0.6-2.3,0.3-3.4c-0.4-1.9-2.2-3.2-4.2-2.8c-0.3,0.1-0.5,0.1-0.8,0.2
	c-0.7,0.2-1.4,0.6-2,0.8c-0.7,0.4-1.5,0.7-2.3,0.9c-0.5,0.1-0.9,0.1-1.4-0.1c-0.8-0.3-1.5-0.7-2.3-0.9c-1.7-0.4-3.4-0.2-4.6,1.3
	c-0.8,1.2-1.6,2.5-2.3,3.8c-0.2,0.4-0.4,0.5-0.8,0.3c-0.2-0.1-0.3-0.2-0.5-0.3c-0.6-0.4-1.3-0.4-1.9-0.1c-0.6,0.3-1.1,0.6-1.6,1
	c-0.5,0.3-1,0.7-1.5,1c-0.8,0.4-1.3,0.1-1.4-0.8s-0.1-1.5-0.1-2.3c-0.2-2.3-1.6-5.1-4.5-5.6c-1.4-0.3-2.9-0.3-4.4,0
	c-3.1,0.9-6,2.3-8.5,4.2c-3.2,2.2-5.6,5.4-6.7,9.2c-0.8,2.9-0.7,5.8,1.4,8.2c1.1,1.5,2.6,2.6,4.4,3.1c1.1,0.2,2.1,0.3,3.2,0.1
	c6.4-0.7,11-3.9,13.6-9.9c0.2-0.4,0.4-0.8,0.6-1.2c0.2-0.4,0.7-0.7,1.2-0.6c1.2,0.1,2.4-0.2,3.4-0.8c0.2-0.1,0.4-0.1,0.6-0.1
	c0,0.3,0.1,0.5,0.1,0.8c0,0.2-0.1,0.3-0.2,0.4c-0.7,1.7-1.4,3.3-2,5C58.7,39.8,58.6,40.5,58.4,41.3z M196,20.1c-2,0-4.1,0.3-6,0.9
	c-2.9,0.9-5.3,2.4-6.6,5.2c-1.2,2-0.7,4.6,1.2,6c1.1,0.9,2.2,1.6,3.4,2.3c1.3,0.8,2.6,1.3,3.9,2.1c1.1,0.5,1.5,1.9,1,3
	c-0.2,0.4-0.5,0.7-0.9,0.9c-1.1,0.6-2.4,0.9-3.6,0.7c-3-0.4-5.9-1.5-8.4-3.2c-0.7-0.7-1.9-0.6-2.5,0.1c-0.3,0.4-0.5,0.8-0.5,1.3
	c-0.2,1.6,0.5,3.2,1.9,4c1,0.6,2.1,1.1,3.1,1.4c3.1,1.2,6.5,1.4,9.7,0.5c3.6-0.9,6.4-3.6,7.4-7.2c1.1-2.9-0.4-6-3.2-7.1
	c-1.3-0.6-2.6-1.2-3.9-1.9c-0.7-0.3-1.1-1.1-1-1.8c0.6-3,3-3.8,5.5-3.2c0.6,0.2,0.7,0.6,0.3,1.1c-0.1,0.2-0.3,0.3-0.5,0.4
	c-0.4,0.4-0.7,0.8-1,1.2c-0.4,0.6-0.3,1.5,0.3,1.9c0.2,0.1,0.5,0.2,0.7,0.2c0.7,0.1,1.5,0.2,2.2,0.2c1,0,1.9-0.4,2.3-1.3
	c0.3-0.5,0.6-1.1,0.9-1.7c0.9-2.1-0.1-4.6-2.2-5.6c-0.1,0-0.2-0.1-0.3-0.1C198.2,20.3,197.1,20.2,196,20.1L196,20.1z M187.7,15.5
	c0.2-1.6-0.9-3.1-2.6-3.3c-0.4-0.1-0.7-0.1-1.1-0.2c-4.3-0.5-6.8,3.3-6.2,6.8c0.2,0.9,0.6,1.7,1.3,2.3c0.6,0.6,0.5,0.9-0.1,1.4
	c-0.3,0.2-0.6,0.4-0.9,0.7c-0.3,0.2-0.5,0.5-0.7,0.7c-0.4,0.6-0.2,1,0.5,1.1c0.5,0,1,0,1.5-0.2c1-0.3,2-0.7,2.9-1.2
	c0.8-0.5,1.6-1.1,2.2-1.8c0.9-1.1,1.7-2.3,2.4-3.6C187.6,17.3,187.8,16.4,187.7,15.5L187.7,15.5z M116.7,20.7c3.4,0,6.1-2.7,6.1-6.1
	c0-1.9-1.6-3.4-3.5-3.4c-0.2,0-0.4,0-0.5,0c-1.8,0.3-3.4,1.3-4.5,2.8c-0.5,0.7-0.8,1.5-1,2.3C112.9,18.8,114.4,20.6,116.7,20.7
	L116.7,20.7z"/>
<path d="M101.9,52.9h93.5c3.4-0.1,6.4,2,7.5,5.2c0.2,0.7,0.3,1.4,0.3,2.1c0,2.1,0,4.2,0,6.3c0,4.1-3.3,7.4-7.4,7.4H8.4
	c-4.4,0-7.6-2.8-7.8-7.2c-0.1-2.2-0.1-4.5,0-6.7c0.2-4.1,3.6-7.2,7.6-7.1c1.5,0,3,0,4.5,0L101.9,52.9z M61.5,68c1.5,0,2.9,0,4.3,0
	c0.4,0,0.7-0.1,1-0.3c0.9-0.4,1.4-1.3,1.4-2.3c0.1-0.9-0.5-1.7-1.4-2c0,0,0-0.1,0,0.1c0.4-0.4,0.8-0.8,1.1-1.2
	c0.6-1,0.2-2.2-0.7-2.7c-0.2-0.1-0.5-0.2-0.8-0.3c-1.6-0.3-3.2-0.3-4.8-0.4L61.5,68z M13.9,59.1V68c1.4,0,2.8,0.1,4.2,0
	c1.2,0,2.3-0.9,2.5-2.1c0.3-1.1-0.2-2.2-1.3-2.5c0,0-0.1,0-0.1,0c0.9-0.5,1.1-0.9,1.2-1.7c0.3-1.1-0.4-2.2-1.4-2.4
	c-0.2-0.1-0.4-0.1-0.6-0.1C16.8,59,15.4,59.1,13.9,59.1z M175.9,68.1c1.2,0,2.3,0,3.4,0c1,0,1.9-0.4,2.7-1c1.2-1.1,1.8-2.9,1.4-4.5
	c-0.1-1.4-1-2.7-2.4-3.2c-1.6-0.7-3.4-0.3-5.1-0.4L175.9,68.1z M110.9,68.1v-3.4c0.5-0.2,1.2,0,1.4,0.6c0,0,0,0,0,0.1
	c0.5,0.9,1,1.6,1.5,2.5c0.1,0.1,0.2,0.3,0.4,0.3c0.6,0,1.3,0,2,0l-2.6-3.9l0.4-0.2c1-0.6,1.5-1.7,1.2-2.8c-0.1-1-0.9-1.8-1.9-1.9
	c-1.4-0.2-2.9-0.2-4.3-0.3V68L110.9,68.1z M81.4,68.1h1.9v-3.4c0.5-0.3,1.1-0.2,1.4,0.3c0.1,0.1,0.1,0.2,0.1,0.3
	c0.5,0.9,1,1.7,1.6,2.5c0.1,0.1,0.2,0.3,0.4,0.3c0.6,0,1.3,0,2,0l-2.6-3.9l0.3-0.2c1.1-0.5,1.6-1.7,1.3-2.9c-0.2-1.1-1.1-2-2.3-2
	c-1.3-0.1-2.6,0-3.9,0L81.4,68.1z M97.9,59.4c-1.6-0.7-3.5-0.8-5.2-0.1c-1,0.5-1.8,1.4-2.1,2.4c-0.3,1.2-0.3,2.4,0,3.6
	c0.3,1.4,1.5,2.5,3,2.7c1.4,0.2,2.8,0.1,4.2-0.4V63h-3.5v1.6H96c0,0.6,0,1.1,0,1.6c0,0.2-0.1,0.3-0.3,0.3c-1.2,0.5-2.6-0.1-3-1.4
	c-0.1-0.1-0.1-0.3-0.1-0.5c-0.1-0.4-0.1-0.8-0.1-1.2c-0.1-1.5,1-2.9,2.5-3c0.4,0,0.8,0,1.1,0.1c0.4,0.1,0.8,0.2,1.2,0.4L97.9,59.4z
	 M173.9,68.1c-0.1-0.2-0.1-0.4-0.2-0.6c-0.8-2.3-1.6-4.5-2.4-6.8c-0.2-0.6-0.3-1.3-0.7-1.6s-1.1-0.1-1.7-0.1c-0.4,0-0.6,0.1-0.7,0.5
	c-0.9,2.7-1.9,5.4-2.8,8c-0.1,0.2-0.1,0.4-0.2,0.6c0.6,0,1.1,0,1.6,0c0.3,0.1,0.6-0.1,0.6-0.4c0,0,0-0.1,0-0.1
	c0.1-0.4,0.3-0.9,0.4-1.3c0-0.2,0.2-0.4,0.5-0.4c0,0,0,0,0,0c0.8,0,1.7,0,2.5,0c0.4,0,0.5,0.1,0.6,0.4c0.2,0.6,0.3,1.1,0.5,1.7
	L173.9,68.1z M156.1,68.1c-0.1-0.2-0.1-0.4-0.2-0.6c-0.8-2.3-1.6-4.6-2.4-6.9c-0.2-0.5-0.3-1.3-0.7-1.5s-1.1-0.1-1.7-0.1
	s-0.6,0.1-0.8,0.5c-0.9,2.7-1.9,5.4-2.8,8.1c-0.1,0.1-0.1,0.3-0.1,0.5c0.6,0,1.1,0,1.7,0c0.2,0,0.4-0.2,0.5-0.4
	c0.2-0.4,0.3-0.9,0.4-1.4c0.1-0.3,0.2-0.4,0.5-0.4c0.8,0,1.6,0,2.4,0c0.4,0,0.6,0.1,0.7,0.5c0.1,0.4,0.2,0.9,0.4,1.3
	c0.1,0.1,0.2,0.3,0.4,0.3C154.8,68.1,155.4,68.1,156.1,68.1L156.1,68.1z M76.5,59.1c0,0.3,0,0.5,0,0.7c0,1.7,0,3.4,0,5
	c0,1.3-0.7,1.9-2,1.8c-1.1-0.1-1.6-0.6-1.6-1.9c0-1.7,0-3.3,0-5c0-0.2,0-0.4,0-0.6h-2c0,2.2-0.1,4.3,0,6.4c0,1.2,0.8,2.2,1.9,2.4
	c0.9,0.2,1.8,0.3,2.7,0.2c1.7-0.1,2.9-1.6,2.8-3.2c0,0,0-0.1,0-0.1c0-1.6,0-3.2,0-4.9V59L76.5,59.1z M25.3,60.6h3.2v-1.5h-5.2v9h5.2
	v-1.6h-3.2v-2.3h3v-1.6h-3L25.3,60.6z M106.3,59.1h-5.2v9h5.2v-1.6h-3.4v-2.3h3v-1.6h-3v-2h3.2L106.3,59.1z M33.3,64.2h3v-1.6h-3v-2
	h3.2V59h-5.2v9h5.2v-1.6h-3.3V64.2z M191.6,59.5c-1-0.5-2.2-0.7-3.3-0.6c-1.4,0-2.5,1.2-2.5,2.6c0,0.1,0,0.1,0,0.2
	c0.1,1,0.7,1.8,1.6,2.2c0.6,0.3,1.2,0.6,1.8,1c0.4,0.2,0.6,0.6,0.5,1c-0.1,0.4-0.5,0.7-0.9,0.6c-0.8-0.1-1.6-0.3-2.4-0.4
	c-0.2-0.1-0.5-0.2-0.7-0.3c0,0.5,0,0.9,0,1.4s0.1,0.5,0.4,0.6c1.1,0.4,2.4,0.5,3.5,0.2c1.4-0.3,2.2-1.7,1.9-3.1
	c-0.2-0.7-0.6-1.3-1.3-1.7c-0.7-0.4-1.4-0.7-2.1-1.1c-0.4-0.2-0.6-0.6-0.4-1c0.1-0.4,0.5-0.7,0.9-0.6c0.3,0,0.6,0,0.9,0.1
	c0.4,0.1,0.9,0.3,1.4,0.4L191.6,59.5z M117.8,65.9c0,0.5,0,0.9,0,1.4c0,0.2,0.2,0.4,0.4,0.5c1.1,0.5,2.4,0.5,3.6,0.2
	c1-0.2,1.8-1,1.9-2c0.2-1-0.2-2.1-1.1-2.6c-0.4-0.3-0.8-0.5-1.3-0.7c-0.4-0.2-0.8-0.4-1.1-0.6c-0.2-0.2-0.3-0.5-0.3-0.9
	c0.1-0.3,0.4-0.5,0.7-0.6c0.4-0.1,0.7-0.1,1.1,0c0.5,0.1,0.9,0.3,1.4,0.4l0.6-1.5c-1.1-0.6-2.4-0.8-3.7-0.6c-1,0.1-1.8,0.9-2,1.8
	c-0.3,1.1,0.1,2.2,1.1,2.8c0.3,0.2,0.7,0.4,1.1,0.6c0.4,0.2,0.9,0.4,1.3,0.7c0.4,0.2,0.5,0.6,0.4,1c-0.2,0.3-0.5,0.5-0.8,0.6
	c-0.4,0.1-0.9,0-1.3-0.1C119,66.3,118.4,66.1,117.8,65.9L117.8,65.9z M145.8,59.5c-1.1-0.6-2.3-0.8-3.5-0.6c-1.2,0.1-2.2,1-2.3,2.2
	c-0.1,1.2,0.6,2.4,1.7,2.8c0.6,0.3,1.1,0.6,1.6,0.9c0.4,0.2,0.6,0.6,0.5,1.1c-0.1,0.4-0.5,0.7-1,0.7c-0.4,0-0.8,0-1.3-0.1
	c-0.6-0.1-1.1-0.4-1.8-0.6c0,0.5,0,0.9,0,1.3s0.1,0.5,0.5,0.7c1.1,0.4,2.3,0.5,3.5,0.2c1.4-0.3,2.2-1.6,2-2.9c0-0.1,0-0.2-0.1-0.2
	c-0.2-0.7-0.7-1.3-1.4-1.6c-0.6-0.3-1.2-0.6-1.7-0.9s-0.8-0.6-0.6-1.1c0.1-0.5,0.6-0.8,1.1-0.7c0.5,0.1,1,0.2,1.5,0.3
	c0.2,0.1,0.4,0.1,0.6,0.2L145.8,59.5z M41.3,64.5h3v-1.6h-3v-2.3h3.2v-1.6h-5.1v9h1.9L41.3,64.5z M158.1,68.1h5.6v-1.6H160v-7.4
	h-1.9V68.1z M133.5,63.5c0-1.2-0.5-1.9-1.5-2c-0.9-0.2-1.8,0.3-2,1.2c0,0.1,0,0.1,0,0.2c-0.1,0.5,0,0.9,0.1,1.4
	c0.1,0.7,0.8,1.2,1.5,1.2C132.9,65.5,133.6,64.8,133.5,63.5L133.5,63.5z M54.5,63.5c0-1.2-0.6-1.9-1.7-2c-1.4,0-2.1,1-1.8,2.6
	c0.1,0.8,0.8,1.4,1.5,1.4C53.9,65.5,54.6,64.8,54.5,63.5L54.5,63.5z"/>
<path class="st1" d="M171.5,30c0.4,0,0.8-0.1,1.2-0.2c1.1-0.5,2.3-1,3.4-1.4c0.3-0.2,0.7-0.3,1-0.3c0.2,0,0.6,0,0.6,0.1
	c0.1,0.2,0,0.5-0.1,0.7c-0.7,0.8-1.4,1.6-2,2.4c-1.1,1.3-2.7,2-4.4,2c-0.5,0-0.5,0.3-0.5,0.6c-0.3,1.6-0.8,3.1-1.6,4.5
	c-1.5,2.7-3.9,4.7-6.8,5.8c-0.7,0.3-1.4,0.5-2.1,0.8c-2.5,0.9-5.2,0.6-7.5-0.6c-1-0.5-1.9-1.3-2.4-2.3c-0.7-1.2-1.1-1.3-1.9-0.1
	c-0.3,0.4-0.5,0.7-0.8,1.1c-1.3,1.9-3.3,3-5.6,3c-0.8,0-1.6,0-2.4-0.1c-2.3-0.4-4-2.4-4-4.7c0-0.5,0.2-1-0.5-1.2s-1,0.3-1.3,0.8
	c-1.7,2.6-4.2,4.6-7.2,5.7c-1,0.5-2.2,0.6-3.3,0.4c-1.8-0.4-3.3-1.8-3.8-3.5c-0.1-0.4-0.2-0.8-0.4-1.2c-0.2-0.6-0.5-0.7-1-0.3
	s-1.1,0.8-1.6,1.2c-1.5,1.2-3.2,2.1-5.1,2.5c-1.9,0.3-3.9,0.3-5.8,0c-1.4-0.2-2.5-1.2-3.1-2.5c-0.4-0.9-0.8-1.7-1.2-2.7
	c-0.3,0.4-0.5,0.7-0.7,0.9c-1,1.7-2.4,3.1-4.1,4.1c-2.5,1.4-5.4,1.8-8.1,1c-2-0.5-3.5-2.1-3.9-4.1c-0.3-1.2-0.3-2.4,0-3.6
	c0.3-1.4,0.8-2.8,1.3-4.2c0.6-1.3,1.3-2.6,2.1-3.8c0.3-0.6,0.8-1.2,1.1-1.8s0.2-1-0.6-1.1c-0.5-0.1-1.1-0.2-1.6-0.4
	c-0.9-0.3-1.6-1.1-1.8-2c-0.3-0.6,0.1-1.3,0.7-1.6c0.2-0.1,0.4-0.1,0.6-0.1c1.4,0,2.9-0.1,4.3-0.1c0.6,0,1.2-0.3,1.4-0.9
	c1.8-3.4,3.7-6.8,5.5-10.1c0.3-0.5,0.6-1,0.9-1.5c0.3-0.5,0.9-0.6,1.4-0.3c0.1,0.1,0.2,0.2,0.3,0.3c0.7,0.8,1.4,1.8,2,2.7
	c0.7,1.2,0.7,2.6,0,3.8c-0.5,0.9-1.1,1.8-1.6,2.7c-0.1,0.2-0.2,0.3-0.3,0.5c-0.2,0.5,0,0.8,0.6,0.9s1.3,0,1.9,0
	c0.9,0,1.2,0.4,1.3,1.3c0,2.4,0.1,2.2-2.1,2.6c-0.6,0.1-1.3,0.3-1.9,0.3c-0.9,0.1-1.7,0.6-2.2,1.3c-2.1,2.9-3.9,6-5.4,9.3
	c-0.3,0.6-0.4,1.3-0.7,2c-0.3,0.8,0,1.6,0.7,2.1c0.6,0.6,1.5,0.7,2.3,0.4c1.2-0.5,2.3-1.4,3.1-2.5c0.3-0.3,0.5-0.7,0.7-1
	c0.4-0.6,1-0.9,1.7-1c0.7-0.1,1.4-0.5,1.6-1.2c0.8-1.6,1.7-3.2,2.4-4.9c1.4-2.7,3.3-5,5.6-6.9c1.6-1.3,3.8-1.2,5.3,0.1
	c0.9,0.7,1.2,2,0.7,3c-0.5,1-1.1,2-1.7,2.8c-1,1.4-2.1,2.6-3.2,4c-0.3,0.4-0.6,0.8-0.9,1.2c-0.9,1.3-1.1,3-0.4,4.5
	c0.4,1,0.9,1.3,1.9,0.7c1.4-0.9,2.8-1.9,4.2-2.8c0.6-0.4,1.2-0.9,1.9-1.3c0.3-0.2,0.7-0.4,1.1-0.5c0.8-0.1,1.5-0.8,1.6-1.6
	c0.4-1.6,0.8-3.2,1.2-4.7c0.9-3.9,2.4-7.6,4.7-11c1.8-2.5,3.5-5.1,5.3-7.6c0.7-1,1.4-1.9,2.2-2.7c1.1-1.2,2.8-1.5,4.3-0.8
	c1.2,0.3,1.9,1.6,1.5,2.8c0,0.1-0.1,0.3-0.1,0.4c-0.6,1.5-1.3,2.9-2.2,4.2c-3,4.5-5.8,9.1-8.4,13.8c-1.5,2.6-2.5,5.5-2.7,8.5
	c0,1,0.1,2.1,0.3,3.1c0.2,0.9,0.8,1.2,1.6,0.8c0.6-0.3,1.2-0.6,1.7-1.1c1.5-1.3,2.9-2.7,4.3-4.1c1-1.1,1.8-2.3,2.4-3.7
	C140.3,24,144.1,16.4,148,9c0.6-0.9,1.3-1.8,2.1-2.5c0.4-0.4,1-0.6,1.6-0.4c0.3,0.1,0.7,0.2,1,0.3c1.7,0.4,2.7,2.1,2.3,3.8
	c0,0.1-0.1,0.3-0.1,0.4c-0.5,1.4-1.1,2.8-1.8,4.1c-2.7,5.5-5.4,11.1-8.1,16.6c-0.9,1.9-2,3.8-2.9,5.7c-0.3,0.7-0.5,1.5-0.5,2.3
	c-0.1,0.8,0.4,1.2,1.2,1.2c2.2,0.1,4.2-1.1,5.2-3c0.8-1.6,1.4-3.2,2-4.8c0.5-1.6,1.2-3.1,1.9-4.7c1.7-3.3,4.7-5.7,8.4-6.7
	c1.9-0.6,3.9-0.7,5.9-0.5c2.6,0.2,4.7,2.2,5,4.8c0.1,1.2,0.2,2.4,0.2,3.6C171.6,29.4,171.5,29.6,171.5,30z M157.3,37.1
	c0.1,0.7,0.1,1.3,0.2,2c0.1,0.8,0.8,1.4,1.6,1.3c0,0,0,0,0,0c1.2,0,2.3-0.5,3.2-1.3c1.2-1.1,2.2-2.4,3.1-3.8
	c0.5-0.7,1.1-1.3,1.8-1.8c0.6-0.5,0.7-0.6,0.1-1.2c-0.6-0.5-1.1-1.1-1.6-1.7c-0.5-0.7-0.4-1.1,0.2-1.7c0.2-0.2,0.5-0.4,0.7-0.6
	c0.8-0.5,1.1-1.4,0.8-2.3c-0.3-1-0.6-1.2-1.6-0.8c-2.3,1-4.3,2.5-5.8,4.5C158.2,31.8,157.2,34.4,157.3,37.1z"/>
<path class="st1" d="M45.2,11.1c-0.1,2.5-0.8,4.9-2.2,7c-3.9,6-9.3,10-16.4,11.4c-2.2,0.4-4.5,0.5-6.7,0.7c-1.6,0.2-3.2,0.3-4.7,0.5
	c-0.6,0.1-1.1,0.5-1.4,1.1c-2.1,3.6-3.8,7.5-6.4,10.8c-0.5,0.7-1.1,1.3-1.8,1.9c-0.6,0.7-1.6,0.8-2.3,0.2c-0.1-0.1-0.1-0.1-0.2-0.2
	c-2.4-2-3.3-5.3-2.1-8.2c1.6-4.4,3.7-8.6,6.2-12.5c2.8-4.3,5.4-8.8,8-13.2c0.2-0.3,0.3-0.8,0.2-1.2c-0.1-0.3-0.7-0.4-1.1-0.4
	C12.6,9,10.8,9,8.9,8.9C6,8.7,5.3,6.2,6,4.1C6.5,2.9,7.6,2,8.9,1.9c4.3-0.8,8.7-1.2,13.2-1.3c4.7-0.1,9.4,0.2,14,1
	c2.9,0.3,5.5,1.8,7.3,4C44.6,7.1,45.2,9.1,45.2,11.1z M32.2,7.1v0.2C29.9,6.9,28.3,8,27,9.8c-0.2,0.3-0.4,0.6-0.6,0.9l-6.6,10.8
	c-0.2,0.4-0.4,0.7-0.6,1.1c-0.4,0.8-0.1,1.3,0.8,1.2c0.1,0,0.3,0,0.4-0.1c0.9-0.2,1.8-0.5,2.7-0.7c5.8-1.4,10.3-4.7,14.4-8.7
	c1.6-1.5,1.6-4,0.2-5.5c-0.5-0.6-1.2-1-2-1.1C34.5,7.4,33.4,7.3,32.2,7.1L32.2,7.1z"/>
<path class="st1" d="M58.4,41.3c0.1-0.7,0.3-1.5,0.6-2.2c0.6-1.7,1.3-3.4,2-5c0.1-0.1,0.1-0.3,0.2-0.4c0-0.3,0-0.5-0.1-0.8
	c-0.2,0-0.4,0.1-0.6,0.1c-1,0.6-2.2,0.8-3.4,0.8c-0.5-0.1-0.9,0.2-1.2,0.6c-0.2,0.4-0.4,0.8-0.6,1.2c-2.5,6-7.2,9.2-13.6,9.9
	c-1.1,0.1-2.2,0.1-3.2-0.1c-1.8-0.5-3.3-1.6-4.4-3.2c-2-2.4-2.2-5.3-1.4-8.2c1-3.8,3.4-7,6.7-9.2c2.6-1.8,5.5-3.2,8.5-4.1
	c1.4-0.3,2.9-0.3,4.4,0c2.8,0.6,4.2,3.3,4.5,5.6c0.1,0.8,0.1,1.5,0.1,2.3s0.6,1.2,1.4,0.8c0.5-0.3,1-0.7,1.5-1
	c0.5-0.4,1.1-0.7,1.6-1c0.6-0.3,1.4-0.3,1.9,0.1c0.2,0.1,0.3,0.2,0.5,0.3c0.4,0.2,0.6,0.1,0.8-0.3c0.7-1.3,1.4-2.6,2.2-3.7
	c1.1-1.5,2.8-1.7,4.6-1.3c0.8,0.2,1.5,0.7,2.3,0.9c0.4,0.2,0.9,0.2,1.4,0.1c0.8-0.3,1.5-0.6,2.3-0.9c0.7-0.3,1.3-0.6,2-0.8
	c1.8-0.8,3.9,0,4.7,1.8c0.1,0.2,0.2,0.5,0.2,0.8c0.4,1.1,0.3,2.3-0.3,3.4c-0.4,0.7-0.8,1.4-1.3,2.1c-0.9,1.4-2.5,2.1-4.2,2
	c-0.5,0-1-0.3-1.2-0.8c-0.3-0.6-0.3-1.4,0-2c0.2-0.3,0.3-0.7,0.3-1c0.1-0.5-0.2-0.7-0.7-0.4c-2.1,1.1-4,2.7-5.4,4.6
	c-2.1,3.1-3.9,6.3-5.3,9.7c-0.4,0.9-0.9,1.7-1.6,2.4C64,45,63,45.4,62,45.4c-1,0.1-1.9-0.3-2.5-1.1C58.9,43.5,58.5,42.4,58.4,41.3z
	 M43.6,40.6c1.2-0.1,2.3-0.6,3.1-1.5c1.7-1.7,3.2-3.7,4.4-5.8c0.1-0.2,0.2-0.3,0.2-0.5c0.1-0.3,0-0.6-0.4-0.6
	c-0.2,0-0.4-0.1-0.6-0.3c-1-1-1.2-2.5-0.6-3.8c0.2-0.5,0.5-0.9,0.8-1.3c0.3-0.4,0.5-0.9,0.2-1.3s-0.8-0.3-1.2-0.2
	c-1.4,0.5-2.7,1.3-3.7,2.3c-1.3,1.4-2.6,2.7-3.8,4.2c-1,1.1-1.7,2.3-2.1,3.7c-0.6,2.1,0.7,4.3,2.9,4.9C43,40.5,43.3,40.6,43.6,40.6
	L43.6,40.6z"/>
<path class="st1" d="M196,20.1c1.1,0.1,2.3,0.2,3.4,0.5c2.2,0.8,3.4,3.2,2.6,5.4c0,0.1-0.1,0.2-0.1,0.3c-0.3,0.6-0.6,1.1-0.9,1.7
	c-0.5,0.8-1.4,1.3-2.3,1.3c-0.7,0-1.5,0-2.2-0.2c-0.8,0-1.3-0.7-1.3-1.4c0-0.3,0.1-0.5,0.2-0.7c0.3-0.4,0.6-0.8,1-1.2
	c0.1-0.2,0.3-0.3,0.5-0.4c0.4-0.5,0.3-1-0.3-1.1c-2.5-0.6-4.9,0.2-5.5,3.2c-0.1,0.8,0.3,1.6,1,1.8c1.3,0.7,2.6,1.3,3.9,1.9
	c2.9,1.1,4.3,4.3,3.2,7.1c-1,3.6-3.8,6.3-7.4,7.2c-3.2,0.9-6.6,0.7-9.7-0.5c-1.1-0.4-2.1-0.9-3.1-1.4c-1.4-0.8-2.1-2.4-1.9-4
	c-0.1-1,0.7-1.9,1.7-1.9c0.5,0,1,0.1,1.3,0.5c2.5,1.7,5.4,2.8,8.4,3.2c1.3,0.2,2.5,0,3.6-0.7c1.1-0.6,1.5-1.9,0.9-3
	c-0.2-0.4-0.5-0.7-0.9-0.9c-1.3-0.7-2.7-1.3-3.9-2.1c-1.2-0.7-2.3-1.4-3.4-2.3c-1.9-1.4-2.4-4-1.2-6c1.4-2.8,3.8-4.3,6.6-5.2
	C192,20.5,194,20.1,196,20.1z"/>
<path class="st1" d="M187.7,15.4c0,0.9-0.2,1.8-0.6,2.6c-0.7,1.2-1.5,2.4-2.4,3.6c-0.6,0.7-1.4,1.3-2.2,1.8
	c-0.9,0.5-1.9,0.9-2.9,1.2c-0.5,0.2-1,0.2-1.5,0.2c-0.7,0-0.9-0.5-0.5-1.1c0.2-0.3,0.4-0.5,0.7-0.7c0.3-0.2,0.6-0.4,0.9-0.7
	c0.6-0.5,0.7-0.8,0.1-1.4c-0.7-0.6-1.1-1.5-1.2-2.3c-0.6-3.5,1.9-7.3,6.2-6.8c0.4,0,0.7,0.1,1.1,0.2
	C186.8,12.3,187.9,13.8,187.7,15.4z"/>
<path class="st1" d="M116.8,20.6c-2.4,0-3.9-1.9-3.4-4.4c0.2-0.8,0.5-1.6,1-2.3c1.1-1.5,2.7-2.5,4.5-2.8c1.9-0.3,3.6,0.9,4,2.8
	c0,0.2,0,0.4,0,0.5C122.9,17.9,120.1,20.6,116.8,20.6z"/>
<path class="st0" d="M61.5,68v-9.1c1.6,0.1,3.3,0.1,4.8,0.4c1.1,0.1,1.9,1.1,1.8,2.2c0,0.3-0.1,0.5-0.2,0.8c-0.3,0.4-0.6,0.9-1,1.2
	c0-0.1,0-0.1,0-0.1c0.9,0.3,1.4,1.1,1.4,2c0.1,1-0.5,1.9-1.4,2.3c-0.3,0.2-0.6,0.3-1,0.3C64.4,68.1,63,68,61.5,68z M63.5,66.4
	c0.6,0,1.2,0,1.8,0c0.6,0,1-0.4,1-1c0,0,0-0.1,0-0.1c0-0.5-0.4-1-0.9-1.1c-0.6-0.1-1.2-0.1-1.8-0.1L63.5,66.4z M63.5,62.6
	c0.6,0,1.1,0,1.7-0.1c0.5-0.1,0.9-0.5,0.8-1c0-0.4-0.4-0.8-0.8-0.8c-0.5-0.1-1.1,0-1.6,0L63.5,62.6z"/>
<path class="st0" d="M13.9,59.1c1.5,0,3-0.1,4.4,0c1.1-0.1,2.1,0.8,2.1,1.9c0,0.2,0,0.4-0.1,0.6c-0.1,0.7-0.3,1.1-1.2,1.7
	c1.1,0.3,1.7,1.3,1.5,2.4c0,0,0,0.1,0,0.1c-0.2,1.2-1.2,2.1-2.5,2.1c-1.4,0.1-2.8,0-4.2,0L13.9,59.1z M15.8,66.4c0.6,0,1.2,0,1.8,0
	c0.6,0,1-0.5,1-1c0,0,0,0,0-0.1c0-0.5-0.4-1-0.9-1.1c-0.6-0.1-1.2-0.1-1.8-0.1V66.4z M15.8,62.6c0.6,0,1.2,0,1.7-0.1
	c0.5,0,0.8-0.4,0.8-0.9c0,0,0-0.1,0-0.1c0-0.5-0.3-0.9-0.7-0.9c0,0-0.1,0-0.1,0c-0.6,0-1.1,0-1.7,0L15.8,62.6z"/>
<path class="st0" d="M175.9,68.1v-9c1.7,0.1,3.4-0.3,5.1,0.4c1.3,0.5,2.3,1.7,2.4,3.2c0.4,1.6-0.2,3.4-1.4,4.5c-0.8,0.6-1.7,1-2.7,1
	C178.2,68.1,177.1,68.1,175.9,68.1z M177.9,66.4c1.6,0.2,2.6-0.1,3.1-1.1c0.7-1.2,0.6-2.6-0.1-3.8c-0.7-1.1-1.9-1-3-0.9L177.9,66.4z
	"/>
<path class="st0" d="M111,68.1h-1.9v-9.1c1.4,0.1,2.9,0.1,4.3,0.3c1,0.1,1.8,0.9,1.9,1.9c0.3,1.1-0.2,2.2-1.2,2.8l-0.4,0.2l2.6,3.9
	c-0.7,0-1.4,0-2,0c-0.1,0-0.3-0.2-0.4-0.3c-0.5-0.8-1.1-1.6-1.5-2.5c-0.2-0.5-0.8-0.8-1.3-0.6c0,0,0,0-0.1,0L111,68.1z M111,63
	c0.8,0,1.7,0.2,2.1-0.6c0.2-0.4,0.2-0.8,0-1.2c-0.5-0.7-1.4-0.5-2.1-0.5L111,63z"/>
<path class="st0" d="M81.5,68v-8.9c1.3,0,2.7-0.1,3.9,0c1.2,0,2.1,0.9,2.3,2c0.3,1.2-0.3,2.3-1.3,2.9l-0.3,0.2l2.6,3.9
	c-0.7,0-1.4,0-2,0c-0.1,0-0.3-0.2-0.4-0.3c-0.5-0.8-1.1-1.6-1.6-2.5c-0.2-0.5-0.8-0.8-1.3-0.6c0,0-0.1,0-0.1,0v3.4L81.5,68z
	 M83.5,60.6V63c0.8,0,1.6,0.2,2.1-0.5c0.2-0.4,0.2-0.9,0.1-1.3C85.2,60.4,84.3,60.7,83.5,60.6L83.5,60.6z"/>
<path class="st0" d="M97.9,59.4L97.3,61c-0.4-0.1-0.8-0.3-1.2-0.4c-1.4-0.5-3,0.3-3.5,1.7c-0.1,0.4-0.2,0.8-0.1,1.1
	c0,0.4,0,0.8,0.1,1.2c0.2,1.3,1.4,2.1,2.7,1.9c0.2,0,0.3-0.1,0.5-0.1c0.1-0.1,0.3-0.2,0.3-0.3c0-0.5,0-1,0-1.6h-1.7V63h3.5v4.7
	c-1.3,0.5-2.8,0.6-4.2,0.4c-1.5-0.2-2.7-1.3-3-2.7c-0.3-1.2-0.3-2.4,0-3.6c0.3-1.1,1-2,2.1-2.4C94.4,58.7,96.3,58.7,97.9,59.4z"/>
<path class="st0" d="M173.8,68.1h-2.1c-0.2-0.5-0.4-1.1-0.5-1.7c-0.1-0.3-0.2-0.4-0.6-0.4c-0.8,0-1.7,0-2.5,0
	c-0.2,0-0.5,0.1-0.5,0.4c0,0,0,0,0,0c-0.1,0.4-0.3,0.9-0.4,1.3c0,0.3-0.3,0.5-0.6,0.5c0,0-0.1,0-0.1,0c-0.5,0-1,0-1.6,0
	c0.1-0.2,0.1-0.4,0.2-0.6c0.9-2.7,1.9-5.3,2.8-8c0.1-0.4,0.3-0.6,0.7-0.5c0.6,0.1,1.3-0.2,1.7,0.1s0.5,1,0.7,1.6
	c0.8,2.3,1.6,4.5,2.4,6.8C173.7,67.7,173.8,67.8,173.8,68.1z M170.6,64.3l-1.2-3.7l-1.1,3.7H170.6z"/>
<path class="st0" d="M156,68.1c-0.6,0-1.2,0-1.8,0c-0.1,0-0.3-0.2-0.4-0.3c-0.2-0.4-0.3-0.8-0.4-1.3c-0.1-0.4-0.2-0.5-0.7-0.5
	c-0.8,0-1.6,0-2.4,0c-0.3,0-0.4,0.1-0.5,0.4c-0.1,0.5-0.3,0.9-0.4,1.4c-0.1,0.2-0.3,0.3-0.5,0.4c-0.5,0-1.1,0-1.7,0
	c0-0.2,0.1-0.4,0.1-0.5c0.9-2.7,1.9-5.4,2.8-8.1c0.1-0.4,0.3-0.6,0.8-0.5s1.3-0.2,1.7,0.1s0.5,1,0.7,1.5c0.8,2.3,1.6,4.6,2.4,6.9
	C155.9,67.7,155.9,67.8,156,68.1z M150.5,64.3h2.3l-1.1-3.6h-0.1L150.5,64.3z"/>
<path class="st0" d="M76.4,59h2v0.9c0,1.6,0,3.2,0,4.9c0.2,1.6-1,3.1-2.6,3.3c0,0-0.1,0-0.1,0c-0.9,0.1-1.8,0-2.7-0.2
	c-1.1-0.3-1.9-1.3-1.9-2.4c-0.1-2.1,0-4.2,0-6.4h1.9c0,0.2,0,0.4,0,0.6c0,1.7,0,3.3,0,5c0,1.3,0.5,1.8,1.6,1.9c1.3,0.1,2-0.5,2-1.8
	c0-1.7,0-3.4,0-5C76.4,59.5,76.4,59.3,76.4,59z"/>
<path class="st0" d="M25.3,60.6v2h3v1.6h-3v2.3h3.2v1.6h-5.2v-9h5.2v1.5H25.3z"/>
<path class="st0" d="M106.2,59.1v1.5h-3.3v2h3v1.6h-3v2.3h3.2V68H101v-9L106.2,59.1z"/>
<path class="st0" d="M33.3,64.2v2.3h3.3V68h-5.2v-9h5.2v1.5h-3.2v2h3v1.6L33.3,64.2z"/>
<path class="st0" d="M191.6,59.5L191,61c-0.5-0.1-0.9-0.3-1.4-0.4c-0.3-0.1-0.6-0.1-0.9-0.1c-0.4,0-0.8,0.2-0.9,0.6
	c-0.1,0.4,0.1,0.8,0.4,1c0.7,0.4,1.4,0.7,2.1,1.1c1.2,0.7,1.7,2.2,1,3.5c-0.3,0.6-0.9,1.1-1.7,1.3c-1.2,0.3-2.4,0.2-3.5-0.2
	c-0.3-0.1-0.5-0.3-0.4-0.6s0-0.9,0-1.4c0.2,0.1,0.5,0.2,0.7,0.3c0.8,0.2,1.6,0.3,2.4,0.4c0.4,0.1,0.8-0.2,0.9-0.6
	c0.1-0.4-0.1-0.8-0.5-1c-0.6-0.3-1.2-0.6-1.8-1c-0.9-0.4-1.5-1.2-1.6-2.2c-0.1-1.4,0.9-2.6,2.2-2.8c0.1,0,0.1,0,0.2,0
	C189.4,58.8,190.5,59,191.6,59.5z"/>
<path class="st0" d="M117.8,65.9c0.6,0.2,1.2,0.4,1.8,0.6c0.4,0.1,0.9,0.1,1.3,0.1c0.3-0.1,0.6-0.3,0.8-0.6c0.2-0.4,0-0.8-0.4-1
	c-0.4-0.3-0.8-0.5-1.3-0.7c-0.4-0.2-0.7-0.4-1.1-0.6c-0.9-0.6-1.4-1.7-1.1-2.8c0.2-1,1-1.7,2-1.8c1.3-0.2,2.6,0,3.7,0.6l-0.6,1.5
	c-0.5-0.1-1-0.3-1.4-0.4c-0.4-0.1-0.7-0.1-1.1,0c-0.3,0.1-0.6,0.3-0.7,0.6c0,0.3,0.1,0.6,0.3,0.9c0.3,0.3,0.7,0.5,1.1,0.6
	c0.4,0.2,0.9,0.4,1.3,0.7c0.9,0.5,1.3,1.6,1.1,2.6c-0.1,1-0.9,1.8-1.9,2c-1.2,0.3-2.4,0.2-3.6-0.2c-0.2-0.1-0.3-0.3-0.4-0.5
	C117.7,66.9,117.8,66.4,117.8,65.9z"/>
<path class="st0" d="M145.8,59.6l-0.6,1.5c-0.2-0.1-0.4-0.2-0.6-0.2c-0.5-0.1-1-0.2-1.5-0.3c-0.5-0.1-1,0.2-1.1,0.7
	c-0.1,0.5,0.2,0.9,0.6,1.1s1.2,0.6,1.7,0.9c0.7,0.3,1.2,0.9,1.4,1.6c0.4,1.3-0.3,2.7-1.7,3.1c-0.1,0-0.2,0-0.2,0.1
	c-1.2,0.3-2.4,0.2-3.5-0.2c-0.3-0.1-0.5-0.3-0.5-0.7s0-0.8,0-1.3c0.6,0.2,1.2,0.4,1.8,0.6c0.4,0.1,0.8,0.1,1.3,0.1
	c0.5,0.1,0.9-0.2,1-0.7c0.1-0.4-0.1-0.9-0.5-1.1c-0.5-0.3-1.1-0.6-1.6-0.9c-1.1-0.4-1.8-1.6-1.7-2.8c0.1-1.2,1.1-2.2,2.3-2.2
	C143.5,58.8,144.7,59,145.8,59.6z"/>
<path class="st0" d="M41.3,64.5V68h-1.9v-9h5.1v1.6h-3.2v2.3h3v1.6L41.3,64.5z"/>
<path class="st0" d="M158.1,68v-9h1.9v7.4h3.6V68L158.1,68z"/>
<path class="st0" d="M133.6,63.5c0,1.3-0.7,2-2,2c-0.7,0-1.3-0.5-1.5-1.2c-0.1-0.4-0.1-0.9-0.1-1.4c0.1-0.9,0.9-1.5,1.8-1.4
	c0.1,0,0.1,0,0.2,0C133,61.6,133.6,62.3,133.6,63.5z"/>
<path class="st0" d="M54.6,63.4c0,1.4-0.7,2-2,2c-0.8,0-1.4-0.6-1.5-1.4c-0.3-1.5,0.4-2.6,1.8-2.6C54,61.5,54.6,62.2,54.6,63.4z"/>
<path class="st0" d="M157.3,37.1c0-2.7,0.9-5.3,2.7-7.3c1.5-2,3.5-3.5,5.8-4.5c1-0.4,1.3-0.2,1.6,0.8c0.4,0.9,0,1.8-0.8,2.3
	c-0.3,0.2-0.5,0.4-0.7,0.6c-0.6,0.6-0.7,1-0.2,1.7c0.5,0.6,1,1.2,1.6,1.7c0.6,0.6,0.6,0.7-0.1,1.2c-0.7,0.5-1.3,1.1-1.8,1.8
	c-0.8,1.4-1.9,2.7-3.1,3.8c-0.8,0.8-2,1.3-3.2,1.3c-0.8,0.1-1.5-0.5-1.6-1.3c0,0,0,0,0,0C157.4,38.4,157.3,37.7,157.3,37.1z"/>
<path class="st0" d="M32.2,7.1c1.2,0.2,2.4,0.3,3.5,0.6c2.1,0.5,3.4,2.6,2.9,4.7c-0.2,0.8-0.6,1.4-1.1,2c-4.1,4-8.7,7.3-14.4,8.7
	c-0.9,0.2-1.8,0.5-2.7,0.7c-0.1,0-0.3,0.1-0.4,0.1c-0.9,0.1-1.2-0.3-0.8-1.2c0.2-0.4,0.4-0.8,0.6-1.1l6.6-10.8
	c0.2-0.3,0.4-0.6,0.6-0.9c1.2-1.8,2.9-2.9,5.2-2.5L32.2,7.1z"/>
<path class="st0" d="M43.6,40.6c-2.2-0.1-3.9-1.9-3.9-4.1c0-0.3,0.1-0.6,0.1-0.9c0.4-1.4,1.1-2.6,2.1-3.7c1.2-1.4,2.5-2.8,3.8-4.2
	c1-1.1,2.3-1.9,3.7-2.3c0.4-0.1,0.9-0.3,1.2,0.2s0.1,0.9-0.2,1.3c-0.3,0.4-0.6,0.9-0.8,1.3c-0.6,1.2-0.4,2.8,0.6,3.8
	c0.2,0.2,0.4,0.2,0.6,0.3c0.4,0.1,0.5,0.3,0.4,0.6c-0.1,0.2-0.1,0.4-0.2,0.5c-1.2,2.1-2.7,4-4.4,5.8C45.9,40,44.8,40.5,43.6,40.6z"
	/>
<path d="M63.5,66.4v-2.3c0.6,0,1.2,0,1.8,0.1c0.5,0.1,0.9,0.5,0.9,1.1c0.1,0.5-0.3,1-0.9,1.1c0,0-0.1,0-0.1,0
	C64.6,66.5,64.1,66.5,63.5,66.4z"/>
<path d="M63.5,62.6v-2c0.6,0,1.1,0,1.6,0c0.5,0.1,0.9,0.5,0.8,1c0,0.4-0.4,0.8-0.8,0.8C64.6,62.6,64.1,62.6,63.5,62.6z"/>
<path d="M15.8,66.4v-2.3c0.6,0,1.2,0,1.8,0.1c0.5,0.1,0.9,0.5,0.9,1.1c0.1,0.5-0.3,1-0.9,1.1c0,0,0,0-0.1,0
	C17,66.5,16.4,66.5,15.8,66.4z"/>
<path d="M15.8,62.6v-1.9c0.6,0,1.1,0,1.7,0c0.5,0,0.8,0.4,0.8,0.8c0,0,0,0.1,0,0.1c0,0.5-0.3,0.9-0.7,0.9c0,0,0,0-0.1,0
	C17,62.6,16.4,62.6,15.8,62.6z"/>
<path d="M177.9,66.4v-5.8c1.1,0,2.4-0.2,3,0.9c0.7,1.1,0.7,2.6,0.1,3.8C180.5,66.3,179.5,66.6,177.9,66.4z"/>
<path d="M111,63v-2.4c0.8,0,1.6-0.2,2.1,0.5c0.2,0.4,0.2,0.8,0,1.2C112.7,63.2,111.8,63,111,63z"/>
<path d="M83.5,60.6c0.8,0,1.7-0.2,2.2,0.6c0.2,0.4,0.2,0.9-0.1,1.3c-0.5,0.7-1.3,0.5-2.1,0.5L83.5,60.6z"/>
<path d="M170.6,64.3h-2.3l1.1-3.7L170.6,64.3z"/>
<path d="M150.5,64.3l1.1-3.5h0.1l1.1,3.6L150.5,64.3z"/>
<path class="st1" d="M204.9,16c0.4,0,0.8,0.1,1.2,0.3c0.4,0.2,0.7,0.5,0.9,0.9c0.2,0.4,0.3,0.8,0.3,1.2c0,0.4-0.1,0.8-0.3,1.2
	c-0.2,0.4-0.5,0.7-0.9,0.9c-0.7,0.4-1.6,0.4-2.4,0c-0.4-0.2-0.7-0.5-0.9-0.9c-0.2-0.4-0.3-0.8-0.3-1.2c0-0.4,0.1-0.8,0.3-1.2
	c0.2-0.4,0.5-0.7,0.9-0.9C204.1,16.1,204.5,16,204.9,16L204.9,16z M204.9,16.5c-0.3,0-0.6,0.1-0.9,0.2c-0.3,0.2-0.6,0.4-0.7,0.7
	c-0.2,0.3-0.3,0.6-0.3,1c0,0.4,0.1,0.7,0.3,1c0.2,0.3,0.4,0.5,0.7,0.7c0.6,0.3,1.3,0.3,1.9,0c0.3-0.2,0.5-0.4,0.7-0.7
	c0.2-0.3,0.2-0.7,0.2-1c0-0.4-0.1-0.7-0.3-1c-0.2-0.3-0.4-0.5-0.7-0.7C205.5,16.5,205.2,16.5,204.9,16.5L204.9,16.5z M203.8,19.7
	v-2.5h1.3c0.1,0,0.3,0,0.4,0.1c0.1,0.1,0.2,0.1,0.2,0.2c0.1,0.1,0.1,0.2,0.1,0.4c0,0.2-0.1,0.3-0.2,0.5c-0.1,0.1-0.3,0.2-0.5,0.2
	c0.1,0,0.1,0.1,0.2,0.1c0.1,0.1,0.1,0.1,0.2,0.2l0.2,0.3l0.3,0.5h-0.6l-0.2-0.4c-0.1-0.2-0.2-0.4-0.4-0.5c-0.1-0.1-0.2-0.1-0.4-0.1
	h-0.1v1.1L203.8,19.7z M204.3,18.2h0.2c0.2,0,0.4,0,0.6,0c0.1,0,0.1-0.1,0.2-0.1c0.1-0.1,0.1-0.3,0-0.4c0-0.1-0.1-0.1-0.2-0.1
	c-0.2,0-0.4,0-0.6,0h-0.2L204.3,18.2L204.3,18.2z"/>
</svg>
