<svg id="Layer_1" data-name="Layer 1" xmlns="http://www.w3.org/2000/svg" viewBox="0 0 250 250"><defs><style>.cls-1{fill:#f9e8a0;}.cls-2{fill:#fff;}.cls-3{fill:#ed1c24;}.cls-4,.cls-6{stroke:#231f20;stroke-miterlimit:10;}.cls-4{stroke-width:0.1px;}.cls-5{fill:#f6d056;}.cls-6{stroke-width:0.25px;}</style></defs><title>Pretzel Shop</title><polygon class="cls-1" points="56.89 98.22 57.39 196.31 191.72 195.81 192.33 97.26 56.89 98.22"/><polygon class="cls-2" points="156.42 53.89 181.51 53.89 205.39 97.26 165.15 97.53 156.42 53.89"/><polygon class="cls-3" points="124.99 53.89 123.71 97.89 166.76 97.51 156.42 53.89 124.99 53.89"/><polygon class="cls-2" points="83.56 97.89 124.94 97.74 125.63 53.89 93.46 53.89 83.56 97.89"/><polygon class="cls-3" points="68.97 53.89 43.72 98.22 83.56 97.89 93.46 53.89 68.97 53.89"/><path class="cls-3" d="M46.26,98.72s-4.88.08-2.54,5.88,6.71,15.08,18.5,14.63,19.5-11.5,19.5-11.5,3.79-10.29-1-9.46S46.26,98.72,46.26,98.72Z"/><path class="cls-2" d="M87.26,98.72s-4.87.08-2.54,5.88,6.71,15.08,18.5,14.63,19.5-11.5,19.5-11.5,3.79-10.29-1-9.46S87.26,98.72,87.26,98.72Z"/><path class="cls-3" d="M128.26,98.72s-4.87.08-2.54,5.88,6.71,15.08,18.5,14.63,19.5-11.5,19.5-11.5,3.79-10.29-1-9.46S128.26,98.72,128.26,98.72Z"/><path class="cls-2" d="M169.26,98.72s-4.87.08-2.54,5.88,6.71,15.08,18.5,14.63,19.5-11.5,19.5-11.5,3.79-10.29-1-9.46S169.26,98.72,169.26,98.72Z"/><path class="cls-4" d="M57.57,197.9a2.24,2.24,0,0,1-1.28-.64V122.74c0-1.93-.64-3.21-2.57-3.85-5.78-2.57-9-7.07-10.92-12.85a28,28,0,0,1-.64-3.21v-4.5l.64-.64,5.77-10.28c5.11-11.56,11.54-22.48,18-33.4.64-.64.64-1.28,1.28-1.93H181.57c.64.64,1.28.64,1.28,1.28,5.72,9.64,10.88,19.27,16,28.27a73.23,73.23,0,0,1,6.42,12.21l2.57,4.5v1.93c-.64,8.35-5.14,14.13-12.21,18-1.93.64-2.57,2.57-2.57,4.5v71.95h0V196c0,.64,0,1.28-1.93,1.28h-133c0,.64,0,.64-.64.64Zm1.93-3.21h131V120.81h-3.21q-11.56,0-19.27-9.64L166.09,108l-1.93,3.21a21.46,21.46,0,0,1-18,9.64c-7.71,0-13.49-3.21-18.63-9.64L125.6,108l-1.93,3.21c-4.5,5.78-10.92,9.64-18.63,9.64a22.57,22.57,0,0,1-18.63-9.64l-2.57-2.57-2.57,3.21Q74.57,121.5,62,121.5H58.82v73.23ZM168,102.18a18.84,18.84,0,0,0,18.63,15.42h0a18.84,18.84,0,0,0,18.63-15.42l.64-3.21H168Zm-82.23,0a18.84,18.84,0,0,0,18.63,15.42h1.93c8.35-.64,16.06-8.35,16.7-15.42V99.62H85.16Zm41.11,0c.66,7.71,8.36,15.42,18.66,15.42h.64c9.64-.64,16.7-8.35,18-15.42l.64-3.21H126.92Zm-82.23,0q0,4.82,3.85,9.64a22.13,22.13,0,0,0,14.78,6.42h0c10.28,0,17.34-9,18-15.42v-2.56H44.69Zm27-46.89q-2.89,0-3.85,1.93c-4.5,9-9.64,17.34-14.13,25.7l-4.5,7.71a.63.63,0,0,1-.62.64h0l-2,4.49h156.1l-1.93-3.85v-.64l-1.93-3.85c-5.73-9.65-11.51-19.89-17.24-30.2-.64-1.28-2.57-1.93-3.85-1.93H71.66Z"/><path class="cls-5" d="M121.75,182.36a9.66,9.66,0,0,0,5.19-.17l5.15-2.06s7.88,4.4,9.2,4.4,3.42-.53,3.84-1.55,1.53-3.44-.08-4.31-4.67-2.64-4-3.23,9.47-7.7,8.27-16.24-7.58-14.21-12.71-15-12.42.69-12.42.69-10.79-3.19-16,.52-13.5,12.54-7.92,21.25,8.48,8.54,7.46,9.19-8.25,2.75-5.15,7.88a3.48,3.48,0,0,0,4.46,1.17c2.92-1.29,7-3.75,7-3.75a5.82,5.82,0,0,1,4.09-.19C120.1,181.69,121.75,182.36,121.75,182.36Z"/><path class="cls-6" d="M143.66,177c-.85-.43-1.28-.43-2.14-.85,8.12-6,9-13.24,8.54-17.94a16.41,16.41,0,0,0-7.26-12c-3.42-2.56-7.69-3.42-12.39-3.42a17.14,17.14,0,0,0-6.41,1.28,17.14,17.14,0,0,0-6.41-1.28,18.29,18.29,0,0,0-12.39,3.42,17.51,17.51,0,0,0-7.26,12c-.43,4.7.43,11.53,8.12,17.52L103.5,177a4.44,4.44,0,0,0-2.56,5.55,3.85,3.85,0,0,0,2.56,2.56,3.2,3.2,0,0,0,2.14.43,2.57,2.57,0,0,0,1.71-.43,53.51,53.51,0,0,0,9-4.27,23.74,23.74,0,0,0,6.84,2.14h2.14s3-.85,6.41-2.14c3.42,1.71,6.41,3,8.12,3.84a5.93,5.93,0,0,0,3.84,0,5,5,0,0,0,2.56-2.56C147.07,180.42,145.79,177.86,143.66,177Zm-12.82-32.47a16.21,16.21,0,0,1,11.11,3,14.28,14.28,0,0,1,6.41,10.68c.43,4.7-.43,11.11-8.54,17.09a20,20,0,0,1-6-3.42.42.42,0,0,0,.43-.43c6-3.84,9-8.12,8.12-12.82-.85-6-6-8.54-11.11-8.54a15.21,15.21,0,0,0-5.55-5.13C127.42,145,129.13,144.54,130.84,144.54Zm1.71,7.69c3.84,0,8.12,2.56,8.54,7.26.43,4.27-2.14,8.12-7.69,11.11-.43,0-.43.43-.85.43-.85-.43-1.28-.85-2.14-1.28a19.55,19.55,0,0,0,3.42-10.25A18.41,18.41,0,0,0,132.55,152.23Zm-32.47,6a15.66,15.66,0,0,1,6.41-10.68,17,17,0,0,1,10.25-3H118a13.64,13.64,0,0,1,6,1.28h.43a19.53,19.53,0,0,1,6.41,5.55,14.63,14.63,0,0,1,1.71,7.69,15.38,15.38,0,0,1-3,9.4l-1.28-1.28q-2.56-2.56-2.56-3.84a9.74,9.74,0,0,0,1.28-4.7,8.61,8.61,0,0,0-1.28-4.7c-.43-.43-1.71-3.84-7.26-3.84h-.85c-4.7,0-9.83,2.56-10.68,8.54-.43,4.7,2.14,9,8.12,12.82h0c-2.14,1.28-5.13,2.56-6,3.42C100.51,169.32,99.66,162.91,100.08,158.21Zm24.78.85a5.42,5.42,0,0,1-.43,2.56c-.43-.43-.43-1.28-.43-2.56,0-.85,0-2.14.43-2.56C124.43,157.35,124.86,158.21,124.86,159.06ZM118,169.74a9.34,9.34,0,0,1-2.14,1.28c-.43,0-.43-.43-.85-.43-5.55-3.42-8.12-7.26-7.69-11.11.43-4.7,4.7-6.84,8.54-7.26a20.13,20.13,0,0,0-1.71,7.26A25.24,25.24,0,0,0,118,169.74ZM115.89,180a53.51,53.51,0,0,1-9,4.27,2.72,2.72,0,0,1-2.56,0,3.34,3.34,0,0,1-1.71-1.71,3.45,3.45,0,0,1,1.71-3.84c1.28-.43,2.56-1.28,3.84-1.71h0l1.28-.43h0c1.71-.85,5.13-2.56,6.41-3.84.85-.43,1.71-1.28,2.56-1.71a38.92,38.92,0,0,0,4.27,4.27C120.59,177,116.32,179.57,115.89,180Zm9,2.14h-1.71a27,27,0,0,1-5.55-1.71,51.83,51.83,0,0,0,6-4.27,36.17,36.17,0,0,0,6,4.27A12.31,12.31,0,0,1,124.86,182.13Zm20.08,0a3.34,3.34,0,0,1-1.71,1.71,2.72,2.72,0,0,1-2.56,0,52.21,52.21,0,0,1-8.54-4.27c-8.54-5.13-12.39-10.68-12.82-10.68h0c-2.14-3.42-3.42-6.41-3.42-10.25a14,14,0,0,1,1.71-7.26c3.84,0,5.13,1.71,5.55,2.56a7.22,7.22,0,0,0-1.28,4.27,8.61,8.61,0,0,0,1.28,4.7,1.32,1.32,0,0,0,.43.85v.43h0c1.28,2.14,5.55,7.26,15.38,11.53,1.28.43,2.14.85,3.42,1.28Q145.58,180.21,144.94,182.13Z"/></svg>