<?xml version="1.0" encoding="utf-8"?>
<!-- Generator: Adobe Illustrator 21.1.0, SVG Export Plug-In . SVG Version: 6.00 Build 0)  -->
<svg version="1.1" id="Layer_1" xmlns="http://www.w3.org/2000/svg" xmlns:xlink="http://www.w3.org/1999/xlink" x="0px" y="0px"
	 viewBox="0 0 181.1 47.8" style="enable-background:new 0 0 181.1 47.8;" xml:space="preserve">
<style type="text/css">
	.st0{fill:#CB293D;}
	.st1{fill:#053C75;}
</style>
<title>Grocery</title>
<path class="st0" d="M108.5,0.5c0.4,0.4,0.5,1.1,0.2,1.6c-0.7,1.6-1.3,3.3-1.9,5c-0.5,0.8-0.9,1.8-1,2.8c-0.5,1-0.9,2.1-1.1,3.2
	c-0.2,0.7-0.8,1.4-0.6,2.2c-0.1,0.2-0.3,0.5-0.4,0.7c-0.5,1.5-0.9,2.9-1.4,4.4l-0.4,1.2c-1.8,5.1-2.9,10.5-4.2,15.8
	c-0.5,1.6-0.8,3.2-1,4.9L95.9,45c-1.2,0.7-2.5,1.2-3.8,1.6c-0.2,0.1-0.5,0.1-0.7,0.3h-1.1l-2-2c-0.9-0.9-1.7-1.9-2.5-3
	c-1.1-1.3-2.1-2.6-2.9-4.1c-0.9-1.2-0.8-3,0.4-4c0.3-0.3,0.7-0.6,0.8-1.1c0.5,0,0.7-0.4,1.1-0.7c1.3-0.9,1.9-0.9,3,0.4
	c0.1,0.1,0.3,0.2,0.4,0.3c0.6,0.9,1.3,1.7,2.1,2.4c0.3,0.5,0.6,1,1.2,0.9s0.6-0.8,0.8-1.3c1.6-5.8,3.1-11.7,4.6-17.5
	c0.7-2.5,1.4-5,2.2-7.4c0.4-0.9,0.8-1.8,1.1-2.8c1.2-3,3.8-4.6,6.4-6c0.3-0.1,0.6-0.2,0.7-0.5L108.5,0.5z"/>
<path class="st1" d="M100.5,7.1c-0.3,1-0.6,1.9-1.1,2.8H19.7c-3.6-0.1-7.1,1.1-10,3.3C5,16.8,3,21.7,3.4,27.6
	c0.7,8.3,7.7,14.7,16,14.7H85c0.3,0,0.7,0.2,0.9-0.2c0.7,1.1,1.6,2.1,2.5,3c-0.4,0-0.8,0-1.2,0H19.5c-9.1,0.2-17-6.3-18.5-15.3
	C-1.3,19.6,5.2,9.6,15.4,7.5C16.7,7.2,18,7,19.4,7h80.7L100.5,7.1z"/>
<path class="st1" d="M95.9,45l0.7-2.8h60.8c0.7,0,1.5,0,2.2-0.1c9.5-1.2,16.2-10.2,13.4-20.5c-1.9-7.2-8.1-11.7-15.7-11.7h-50.5
	h-1.1c0.1-1,0.5-1.9,1-2.8c17,0,33.9,0,50.9,0c9-0.1,16.8,6.3,18.4,15.2c2.3,12.2-6.1,21.6-16.6,22.7c-0.9,0.1-1.8,0.1-2.8,0.1h-60
	C96.5,45.1,96.2,45,95.9,45z"/>
<path class="st1" d="M104.1,15.2c3.8,0,7.6-0.2,11.4,0.1c5.9,0.6,6.5,6.4,4.4,9.5c-0.9,1.2-1.9,2.2-3.2,3.1
	c-0.3,0.2-0.6,0.3-0.4,0.7c1.7,3.2,3.8,6.2,6.2,9c0-1.3,0-2.3,0-3.4c0-6.1,0-12.1,0-18.2c0-0.7,0.2-0.9,0.9-0.9
	c1.4,0.1,2.8,0.1,4.2,0c0.9-0.1,1,0.3,1,1c-0.1,1,0,1.9,0,3.1c0.4-1.1,0.8-2.3,1.1-3.5c0-0.4,0.4-0.7,0.8-0.7c0,0,0.1,0,0.1,0
	c4.8,0,9.6,0,14.5,0c0.6,0,0.8,0.2,0.9,0.8c0.2,1,0.6,1.9,1,2.9c0-1,0-2,0-3c0-0.5,0.1-0.6,0.6-0.6c4.2,0,8.4,0,12.6,0
	c0.4,0,0.6,0.1,0.7,0.6c0.3,1.3,0.7,2.6,1.1,3.9c0.2,0.6,0,0.7-0.5,0.7c-2.5,0-5,0-7.5,0c-0.7,0-1,0.1-0.9,0.8s-0.4,1.9,0.2,2.4
	s1.5,0.1,2.3,0.1h5.8c-0.4,1.6-0.9,3.2-1.3,4.7c-0.1,0.5-0.4,0.5-0.8,0.5c-1.9,0-3.7,0-5.6,0c-0.6,0-0.7,0.1-0.7,0.7
	c0,0.9,0,1.7,0,2.6c0,0.6,0.1,0.7,0.7,0.7c2.8,0,5.6,0,8.3,0c0.6,0,0.8,0.1,0.6,0.7c-0.4,1.3-0.7,2.6-1.1,4
	c-0.1,0.4-0.3,0.5-0.7,0.5c-4.4,0-8.8,0-13.2,0c-0.7,0-0.6-0.4-0.6-0.9c0-5.3,0-10.5,0-15.8c0-0.8-0.2-1-1-1c-1.4,0.1-2.8,0.1-4.3,0
	c-0.7,0-0.9,0.2-0.9,0.9c0,5.2,0,10.5,0,15.7c0,0.8-0.2,1.1-1,1c-1.4-0.1-2.8-0.1-4.2,0c-0.7,0-0.9-0.1-0.9-0.9c0-5.3,0-10.5,0-15.8
	c0-0.8-0.2-1-1-0.9c-1.5,0.1-3,0.1-4.4,0c-0.7,0-0.8,0.2-0.8,0.8c0,5.3,0,10.6,0,15.9c0,0.7-0.1,1-0.9,0.9c-0.7-0.1-1.3,0.1-1.9,0
	c-2.6-0.5-4.5,0.9-6.4,2.3c-1.6,1.3-1.6,1.3-2.9-0.3c-2.9-3.8-5.4-7.8-7.3-12.2c-0.2-0.5,0-0.7,0.3-0.9c1.4-0.9,2.6-1.9,3.8-3.1
	c0.5-0.5,0.8-1.1,0.9-1.7c0.2-0.6-0.2-1.3-0.8-1.5c-0.1,0-0.1,0-0.2,0c-0.6-0.1-1.2-0.2-1.8-0.2c-3,0-6,0-9,0
	c0.5-1.5,0.9-2.9,1.4-4.4C103.8,15.8,103.9,15.5,104.1,15.2z"/>
<path class="st1" d="M83,38c-2.2,0-4.4,0-6.6,0c-0.8,0-0.9-0.3-0.9-1c0-5.8,0-11.7,0-17.5c0-1.2,0-2.4,0-3.6c0-0.4,0.1-0.7,0.6-0.7
	c4.2,0,8.4,0,12.6,0c0.4,0,0.6,0.2,0.7,0.6c0.3,1.3,0.7,2.6,1.1,3.9c0.2,0.6,0,0.7-0.6,0.7c-2.5,0-5.1,0-7.6,0
	c-0.6,0-0.8,0.2-0.8,0.8c0.1,0.8-0.3,1.9,0.2,2.4s1.6,0.1,2.4,0.2c1.7,0,3.4,0,5.1,0c0.5,0,0.7,0.1,0.5,0.6c-0.4,1.3-0.7,2.7-1.1,4
	c-0.1,0.4-0.3,0.5-0.7,0.5c-1.9,0-3.7,0-5.6,0c-0.5,0-0.8,0.1-0.8,0.7c0.1,0.9,0.1,1.7,0,2.6c0,0.6,0.2,0.7,0.7,0.7s1.2,0,1.9,0
	c0,0.5-0.5,0.8-0.8,1.1C82.1,34.9,82,36.7,83,38z"/>
<path class="st1" d="M88.5,32.9H89c2.5,0,2.5,0,1.6,2.4C89.8,34.5,89.1,33.7,88.5,32.9z"/>
<path class="st1" d="M31.6,20.3c0.4-1.7,0.8-3.1,1.2-4.6c0-0.3,0.3-0.5,0.6-0.5c4.1,0.1,8.2-0.2,12.3,0.2c2.4,0.1,4.4,1.7,4.9,4
	c0.7,2.6-0.1,5.3-2.2,7c-0.6,0.6-1.3,1.1-2,1.6c-0.3,0.2-0.4,0.4-0.2,0.8c1.3,2.4,2.7,4.6,4.3,6.7c0.4,0.5,0.7,1,1.1,1.5
	c0.1,0.2,0.3,0.5,0.5,0.4s0.2-0.4,0.2-0.6c0-3.5,0-7.1,0-10.6c0-3.4,0-6.7,0-10.1c0-0.6,0.2-0.8,0.8-0.8c1.4,0,2.9,0.1,4.3,0
	c0.8,0,0.9,0.3,0.9,1c0,6.3,0,12.5,0,18.8c0,0.8,0,1.6,0,2.4c0,0.5-0.2,0.6-0.6,0.6c-1.4,0-2.8,0.1-4.3,0c-0.8,0-1.5,0.3-2.1,0.8
	c-1.1,0.7-2.1,1.4-3.1,2.2c-0.5,0.4-0.9,0.4-1.3-0.1c-2.4-3-4.5-6.2-6.2-9.6c-0.6-1.1-1.1-2.3-1.7-3.4c-0.1-0.1-0.2-0.2-0.3-0.4
	c-0.2,0.3-0.2,0.7-0.2,1.1c0,2.9,0,5.7,0,8.6c0,0.6-0.1,0.8-0.7,0.8c-1.6,0-3.1,0-4.7,0c-0.4,0-0.6-0.1-0.6-0.6c0-5.2,0-10.5,0-15.7
	c0-0.5,0.2-0.6,0.7-0.6c1.5,0,3.1,0,4.6,0c0.6,0,0.8,0.1,0.7,0.7c0,1.8,0,3.5,0,5.5c1.3-0.8,2.6-1.7,3.8-2.8
	c0.6-0.5,1.1-1.1,1.4-1.9c0.5-1.2,0.1-2-1.2-2.2c-0.5-0.1-1-0.1-1.5-0.1h-6.8c-0.9,0-1.9-0.3-2.5,0.1s-0.1,1.5-0.3,2.3
	c-0.5,2.2-1.6,4.1-3.3,5.5c-2,1.8-4.4,3.3-6.9,4.3c-0.5,0.1-0.8,0.6-0.7,1.1c0,1.2,0,2.4,0,3.6c0,0.5-0.2,0.7-0.7,0.6
	c-1.6,0-3.2,0-4.8,0c-0.5,0-0.6-0.1-0.6-0.6c0-5.2,0-10.5,0-15.7c0-0.5,0.2-0.6,0.7-0.6c1.6,0,3.1,0,4.7,0c0.6,0,0.7,0.2,0.7,0.7
	c0,1.7,0,3.4,0,5.3c1.6-0.8,3.1-1.9,4.2-3.3c0.6-0.6,0.7-1.5,0.5-2.2c-0.4-0.8-1.2-0.9-1.9-1c-3-0.2-6-0.1-9-0.1
	c-0.7,0-0.9-0.1-0.7-0.8c0.4-1.3,0.7-2.6,1.1-3.8c0.1-0.3,0.2-0.5,0.6-0.5c3.4,0.1,6.7-0.2,10.1,0.1C28.4,15.6,30.7,16.9,31.6,20.3z
	"/>
<path class="st1" d="M74.8,20.5c-1.9,0-3.7-0.1-5.4,0c-2.4,0.2-3.5,1.4-3.6,3.8c-0.3,4.4,3.1,8.2,7.5,8.5c0,0,0.1,0,0.1,0
	c1.7,0.1,1.7,0.1,1.3,1.8c-0.2,0.9-0.5,1.8-0.7,2.6C73.8,37.8,73.6,38,73,38c-6.5,0.2-12.1-4.5-13.2-10.9c-0.3-1.8-0.3-3.6,0-5.4
	c0.6-3.4,3.4-6,6.8-6.3c2.1-0.2,4.2-0.2,6.3-0.2c0.3,0,0.5,0.1,0.6,0.4L74.8,20.5z"/>
<path class="st1" d="M102.8,29.4c0-2.5,0-5.1,0-7.6c0-0.6,0.2-0.8,0.7-0.7c1.6,0,3.1,0,4.7,0c0.4,0,0.6,0.1,0.6,0.6
	c0,5.2,0,10.5,0,15.7c0,0.5-0.1,0.7-0.6,0.6c-1.5,0-3.1,0-4.6,0c-0.6,0-0.8-0.1-0.8-0.8C102.8,34.6,102.8,32,102.8,29.4z"/>
<path class="st1" d="M177.3,47.3c-1.8,0-3.3-1.5-3.3-3.3s1.5-3.3,3.3-3.3s3.3,1.5,3.3,3.3c0,0,0,0,0,0
	C180.6,45.8,179.1,47.3,177.3,47.3z M177.3,41.5c-1.4,0-2.5,1.1-2.5,2.5c0,1.4,1.1,2.5,2.5,2.5c1.4,0,2.5-1.1,2.5-2.5
	S178.7,41.5,177.3,41.5C177.3,41.5,177.3,41.5,177.3,41.5z"/>
<path class="st1" d="M176.3,42.5c0.3,0,0.5-0.1,0.8-0.1c0.3,0,0.7,0.1,0.9,0.3c0.2,0.2,0.3,0.4,0.3,0.6c0,0.4-0.2,0.7-0.6,0.8l0,0
	c0.3,0.1,0.4,0.4,0.5,0.6c0.1,0.3,0.1,0.6,0.3,0.9h-0.4c-0.1-0.2-0.2-0.5-0.2-0.8c-0.1-0.4-0.3-0.6-0.6-0.6h-0.4v1.4h-0.4
	L176.3,42.5z M176.7,44h0.4c0.4,0,0.7-0.2,0.7-0.6s-0.3-0.6-0.7-0.6c-0.1,0-0.3,0-0.4,0V44z"/>
</svg>
