<?xml version="1.0" encoding="utf-8"?>
<!-- Generator: Adobe Illustrator 21.1.0, SVG Export Plug-In . SVG Version: 6.00 Build 0)  -->
<svg version="1.1" id="Layer_1" xmlns="http://www.w3.org/2000/svg" xmlns:xlink="http://www.w3.org/1999/xlink" x="0px" y="0px"
	 viewBox="0 0 181 38.4" style="enable-background:new 0 0 181 38.4;" xml:space="preserve">
<style type="text/css">
	.st0{fill:#3E902D;}
</style>
<title>Grocery</title>
<path class="st0" d="M6.8,37.1H3.7c-0.9,0-1.9,0-2.8,0c-0.3,0-0.5-0.1-0.4-0.4c0,0,0-0.1,0-0.1c0-7.3,0-14.7,0-22
	c0-2.7,0.7-5.3,2.2-7.6c2.1-3.2,5.4-5.3,9.2-5.9c7.5-1.2,14.7,3.9,15.9,11.4C29.1,20,24,27.1,16.5,28.4c-3.2,0.5-6.5-0.1-9.3-1.7
	L7,26.6H6.8L6.8,37.1z M14.3,7.3c-4.1,0-7.4,3.3-7.4,7.4c0,4.1,3.3,7.4,7.4,7.4c4.1,0,7.4-3.3,7.4-7.3C21.7,10.7,18.4,7.4,14.3,7.3z
	"/>
<path class="st0" d="M72.7,1.9h6.2v11c0.2-0.1,0.4-0.2,0.6-0.3c1.8-1.2,3.9-2,6-2.2c2.7-0.3,5.4,0.3,7.8,1.7c3.7,2,6.3,5.7,6.9,9.9
	c1.2,7.2-3.4,14.1-10.5,15.7c-7.7,1.6-15.2-3.3-16.8-11c-0.2-1-0.3-2-0.3-3c0-7.1,0-14.2,0-21.3C72.7,2.2,72.7,2.1,72.7,1.9z
	 M86.5,16.8c-4.1,0-7.4,3.3-7.4,7.4c0,4.1,3.3,7.4,7.4,7.4c4.1,0,7.4-3.3,7.4-7.4c0,0,0,0,0-0.1C93.9,20,90.6,16.8,86.5,16.8
	C86.6,16.8,86.5,16.8,86.5,16.8L86.5,16.8z"/>
<path class="st0" d="M61.7,11c0,0.3,0,0.5,0,0.7c0,4.7,0,9.5,0,14.2c0,5.8-4.2,10.8-9.9,11.7c-6.2,1-12-3.1-13.2-9.2
	c-0.2-1-0.3-1.9-0.3-2.9c0-4.6,0-9.2,0-13.8c0-0.2,0-0.4,0-0.6c0.2,0,0.4,0,0.5,0c1.6,0,3.3,0,4.9,0c0.4,0,0.6,0.1,0.6,0.6
	c0,4.1-0.1,8.1-0.1,12.2c0,1.2,0.1,2.5,0.3,3.7c0.8,3.1,3.8,4.9,6.9,4.2c1.6-0.4,3-1.5,3.8-3c0.4-0.8,0.5-1.7,0.5-2.5
	c0-4.8,0-9.6,0-14.3c0-0.7,0-0.7,0.7-0.7L61.7,11L61.7,11z"/>
<path class="st0" d="M147.8,11c2.2,0,4.4,0,6.5,0c0.2,0,0.4,0.2,0.4,0.3c1.2,2,2.4,3.9,3.6,5.9c0.1,0.2,0.2,0.3,0.3,0.5
	c0.1-0.2,0.2-0.4,0.3-0.5c1-1.9,1.9-3.8,2.9-5.8c0.1-0.3,0.4-0.5,0.7-0.5c1.9,0,3.9,0,5.8,0h0.5c-0.1,0.2-0.2,0.4-0.3,0.5
	c-2,4-4,8-6,12c-0.2,0.3-0.2,0.6,0,0.9c2.4,4,4.9,8.1,7.3,12.2l0.3,0.5h-0.5c-1.8,0-3.7,0-5.5,0c-0.3,0-0.6-0.2-0.8-0.4
	c-1.2-2.1-2.5-4.1-3.8-6.1l-0.4-0.6c-0.1,0.2-0.2,0.4-0.3,0.5c-1.1,2-2.2,4.1-3.2,6.1c-0.1,0.4-0.5,0.6-0.9,0.5c-1.9,0-3.9,0-5.9,0
	c0.1-0.2,0.2-0.4,0.2-0.5c2-4,4.1-8.1,6.2-12.1c0.3-0.4,0.3-0.8,0-1.2c-2.4-3.9-4.8-7.9-7.2-11.8L147.8,11z"/>
<path class="st0" d="M118,37h-6.2V1.9h6.2V37z"/>
<path class="st0" d="M131,37.1v-26c0.2,0,0.3,0,0.5,0c1.8,0,3.5,0,5.3,0c0.4,0,0.5,0.1,0.5,0.6c0,8.3,0,16.7,0,25
	c0,0.4-0.1,0.6-0.6,0.5c-1.7,0-3.5,0-5.2,0L131,37.1z"/>
<path class="st0" d="M130.6,4.2c0.1-2.1,1.9-3.8,4-3.7c2,0.1,3.6,1.7,3.7,3.7c0.1,2.1-1.5,4-3.6,4.1c-2.1,0.1-4-1.5-4.1-3.6
	C130.6,4.5,130.6,4.4,130.6,4.2z"/>
<path class="st0" d="M177.8,37.2c-1.5,0-2.7-1.2-2.7-2.7c0-1.5,1.2-2.7,2.7-2.7c1.5,0,2.7,1.2,2.7,2.7S179.3,37.2,177.8,37.2
	L177.8,37.2z M177.8,32.2c-1.3,0-2.3,1-2.3,2.3s1,2.3,2.3,2.3c1.3,0,2.3-1,2.3-2.3l0,0C180.1,33.3,179.1,32.2,177.8,32.2L177.8,32.2
	z"/>
<path class="st0" d="M176.6,36v-2.8h1.2c0.2,0,0.4,0,0.7,0.1c0.1,0.1,0.3,0.1,0.3,0.3c0.1,0.1,0.1,0.3,0.1,0.4
	c0,0.2-0.1,0.4-0.2,0.5c-0.2,0.1-0.3,0.2-0.6,0.3c0.1,0.1,0.2,0.1,0.3,0.2c0.1,0.1,0.2,0.3,0.3,0.5l0.3,0.6h-0.7l-0.4-0.6
	c-0.1-0.1-0.2-0.3-0.3-0.4c0-0.1-0.1-0.1-0.2-0.1c-0.1,0-0.2,0-0.3,0h-0.1V36L176.6,36z M177.1,34.3h0.4c0.2,0,0.3,0,0.5,0
	c0.1,0,0.1-0.1,0.2-0.1c0-0.1,0.1-0.1,0.1-0.2c0-0.1,0-0.2-0.1-0.2c-0.1-0.1-0.1-0.1-0.2-0.1h-0.9L177.1,34.3z"/>
</svg>
