<svg id="Layer_1" data-name="Layer 1" xmlns="http://www.w3.org/2000/svg" viewBox="0 0 250 250"><defs><style>.cls-1{fill:#f9e8a0;}.cls-2{fill:red;}.cls-3{fill:#414042;}</style></defs><title>QSR Snack</title><path class="cls-1" d="M115.85,114c-3.9,14.95-18.19,17.54-37,19.49C56.71,135.45,48.92,112.7,50.22,114H27.47l16.24,84.47h75.38L136,114Z"/><rect class="cls-2" x="43.72" y="184.18" width="78.63" height="13.65"/><path class="cls-1" d="M45,112.7V66.57H60v-6.5H74.91v15.6H89.2V52.27h16.24v14.3h13.65V112.7l-4.55,1.3s-6.5,21.44-31.84,20.14S51.52,123.1,50.22,116V114Z"/><path class="cls-3" d="M44.37,199.13c-.65,0-1.95-.65-1.95-1.3,0,0-16.89-83.17-16.89-83.82,0,0-2.6-14.3,3.9-22.09a13.89,13.89,0,0,1,11.7-5.85h1.3V66.57a1.72,1.72,0,0,1,1.95-1.95h13V58.77c.65-.65,1.3-1.95,1.95-1.95H74.26a1.72,1.72,0,0,1,1.95,1.95v14.3h11V52.27c.65-1.3,1.3-1.95,2.6-1.95H104.8a1.72,1.72,0,0,1,1.95,1.95v13h13a1.72,1.72,0,0,1,1.95,1.95V85.41H123q7.8,1,11.7,5.85c6.5,8.45,3.9,22.09,3.9,22.09l-16.89,83.82c0,.65-.65,1.3-1.95,1.3H44.37Zm1.3-3.25h72.78l16.24-80.57H115.2v1.3c-2.6,10.4-16.89,18.84-33.14,18.84S51.52,127,48.92,116.6v-1.3H29.42Zm30.54-64.33H87.9V77H76.21Zm15.6-.65,1.95-.65A32.64,32.64,0,0,0,102.2,127l.65-.65V54.22h-11Zm-30.54-4.55.65.65a32.64,32.64,0,0,0,8.45,3.25l1.95.65V60.72h-11Zm45.49-1.95,2.6-3.9a10.83,10.83,0,0,0,2.6-7.15,1.72,1.72,0,0,1,1.95-1.95h3.9V69.17h-11Zm-60.43-13h3.9a1.72,1.72,0,0,1,1.95,1.95,9.77,9.77,0,0,0,2.6,7.15l2.6,3.9V67.87h-11Zm75.38,0h13.65v-1.3c0-3.9,0-11.7-3.9-16.24-1.3-2.6-4.55-4.55-8.45-4.55H121V111.4ZM41.12,89.31c-3.9,0-6.5,1.95-9.1,4.55-3.9,5.2-3.9,13-3.9,16.24v1.3h14.3V88.66Z"/><path class="cls-3" d="M41.12,188.08H123c-.65-1.3,1.3-2.6.65-3.9H42.42A9.24,9.24,0,0,1,41.12,188.08Z"/><path class="cls-1" d="M223.71,181.58v5.2a11.39,11.39,0,0,1-11,11H122.34a11.39,11.39,0,0,1-11-11v-5.2a3.75,3.75,0,0,1,3.9-3.9h24.69l8.45,8.45,8.45-8.45h62.38c2.6-.65,4.55,1.3,4.55,3.9Z"/><path class="cls-1" d="M223.71,155.59a3.75,3.75,0,0,1-3.9,3.9h-104c-1.3,0-1.95-.65-3.25-1.3a5,5,0,0,1-1.3-3.25,21.72,21.72,0,0,1,14.3-20.14l11.7,11.7a5.05,5.05,0,0,0,7.15-7.15l-4.55-4.55h14.95l12.35,12.35a5.05,5.05,0,0,0,7.15-7.15l-4.55-5.2h15.6l12.35,12.35a5.05,5.05,0,0,0,7.15-7.15l-5.2-5.2h2.6a23.66,23.66,0,0,1,14.95,5.85,21.15,21.15,0,0,1,6.5,14.95Z"/><path class="cls-1" d="M219.16,168.59v9.1H157.43l9.1-9.1Z"/><rect class="cls-1" x="115.85" y="159.49" width="103.32" height="9.1"/><path class="cls-2" d="M204.87,139.35a5.05,5.05,0,0,1-7.15,7.15l-12.35-11.7h14.95Z"/><path class="cls-2" d="M175,139.35a5.05,5.05,0,1,1-7.15,7.15l-13-11.7h14.95Z"/><path class="cls-2" d="M165.88,168.59l-9.1,9.1-8.45,8.45-17.54-17.54Z"/><path class="cls-2" d="M144.44,139.35a5.05,5.05,0,0,1-7.15,7.15l-11.7-11.7a19.22,19.22,0,0,1,6.5-1.3h7.15Z"/><path class="cls-1" d="M140.54,177H115.85v-9.1h15.6Z"/><path class="cls-3" d="M122.34,199.13a13,13,0,0,1-13-13v-5.2a6.24,6.24,0,0,1,4.55-5.85v-14.3c-2.6-1.3-4.55-3.25-4.55-5.85a23,23,0,0,1,22.74-22.74h70.18A23,23,0,0,1,225,154.94a6.24,6.24,0,0,1-4.55,5.85v14.3c2.6,1.3,4.55,3.25,4.55,5.85v5.85a13,13,0,0,1-13,13H122.34ZM115.85,179a2.8,2.8,0,0,0-2.6,2.6v5.2a8.88,8.88,0,0,0,9.1,9.1h90.32a8.88,8.88,0,0,0,9.1-9.1v-5.2a2.8,2.8,0,0,0-2.6-2.6H158.08l-7.8,7.8c-.65,0-.65.65-1.3.65s-.65,0-1.3-.65l-7.8-7.8Zm32.49,3.9,13-12.35-26-.65Zm13.65-7.8,55.23.65v-5.2H166.53Zm-44.19,0H136l-4.55-5.2H117.79Zm0-8.45h99.42v-5.2H117.14v5.2Zm7.8-29.24a19.23,19.23,0,0,0-12.35,18.19,2.8,2.8,0,0,0,2.6,2.6h104a2.8,2.8,0,0,0,2.6-2.6c0-9.75-7.15-18.19-16.89-18.84l1.3,1.95a7.07,7.07,0,0,1,0,9.75,7.91,7.91,0,0,1-10.4,0l-11.7-11.7H175l1.3,1.95a7.07,7.07,0,0,1,0,9.75,7.91,7.91,0,0,1-10.4,0l-11.7-11.7h-9.75l1.3,1.95a7.07,7.07,0,0,1,0,9.75,7.91,7.91,0,0,1-10.4,0l-9.75-11ZM199,145.84a3.38,3.38,0,0,0,2.6,1.3,4.93,4.93,0,0,0,2.6-1.3,4,4,0,0,0,0-5.2l-4.55-4.55h-9.75Zm-30.54,0a3.38,3.38,0,0,0,2.6,1.3,4.93,4.93,0,0,0,2.6-1.3,4,4,0,0,0,0-5.2l-4.55-4.55h-9.75Zm-36.39-9.75h-2.6l8.45,9.1a3.91,3.91,0,0,0,6.5-2.6,4.93,4.93,0,0,0-1.3-2.6l-4.55-4.55Z"/></svg>