<svg id="Layer_1" data-name="Layer 1" xmlns="http://www.w3.org/2000/svg" viewBox="0 0 250 250"><defs><style>.cls-1{fill:red;}.cls-2{fill:#f8e79f;}.cls-3{fill:#414042;}</style></defs><title>QSR Mexican</title><path class="cls-1" d="M23.5,82.06l43.2,30.4.8-2.4a18,18,0,0,1,13.6-10.4h1.6l4.8-47.2Z"/><path class="cls-1" d="M107.5,73.26h3.2a16.28,16.28,0,0,1,12,4.8l1.6,1.6,1.6-1.6a17.42,17.42,0,0,1,6.4-4l2.4-.8-14.4-23.2Z"/><path class="cls-1" d="M165.1,43.66v52.8h2.4c5.6-.8,12,.8,16,5.6l.8.8,40.8-24Zm32.8,32.8a1.6,1.6,0,1,1-1.6-1.6A1.72,1.72,0,0,1,197.9,76.46Zm-23.2-9.6a1.6,1.6,0,1,1-1.6-1.6A1.72,1.72,0,0,1,174.7,66.86Zm9.6,16.8a1.6,1.6,0,1,1-1.6-1.6A1.72,1.72,0,0,1,184.3,83.66Z"/><path class="cls-2" d="M27.5,112.46v3.2c0,2.4,0,5.6.8,8v2.4h40v.8h-40l.8,3.2a97,97,0,0,0,190.4,0l.8-3.2H195.5v-.8h24.8v-2.4c0-2.4.8-5.6.8-8v-3.2Zm54.4,14.4-4-.8a.78.78,0,0,1,.8-.8h3.2Zm103.2,0-93.6-.8a.78.78,0,0,1,.8-.8h92.8Z"/><path class="cls-2" d="M185.1,106.86a2.79,2.79,0,0,0-.8-1.6c-4.8-6.4-13.6-8-20-5.6l-4.8,2.4-.8-.8a11,11,0,0,1,3.2-2.4l1.6-.8V84.46l-4.8,2.4c-.8.8-1.6.8-2.4,1.6l.8.8h0l-1.6-1.6a17.12,17.12,0,0,0-16.8-13.6h-1.6c-4.8,0-9.6,3.2-12.8,7.2l2.4,1.6-3.2-1.6c-4-5.6-12-8.8-19.2-6.4-5.6,1.6-9.6,6.4-11.2,12.8l3.2.8h-4a25,25,0,0,0-8-4c-8.8-1.6-18.4,4-20,13.6l3.2.8h-4c-5.6-5.6-15.2-5.6-21.6,0a16.6,16.6,0,0,0-4.8,8l-.8,4h152Z"/><path class="cls-2" d="M187.5,109.26l.8,2.4h24.8l-.8-4c-1.6-4.8-4.8-9.6-9.6-11.2l-1.6-.8-16,8.8,1.6,2.4A2.94,2.94,0,0,1,187.5,109.26Z"/><path class="cls-3" d="M92.3,130.06h92.8a3.2,3.2,0,1,0,0-6.4H92.3a3.2,3.2,0,1,0,0,6.4Z"/><path class="cls-3" d="M78.7,130.06h3.2a3.2,3.2,0,1,0,0-6.4h-4a3.44,3.44,0,0,0-3.2,3.2C74.7,128.46,76.3,130.06,78.7,130.06Z"/><path class="cls-3" d="M230.7,75.66l-65.6-37.6c-.8-.8-1.6-.8-3.2,0a4.16,4.16,0,0,0-1.6,3.2v40.8c-.8,0-1.6.8-2.4.8a20.21,20.21,0,0,0-18.4-12l-16-26.4a4,4,0,0,0-6.4,0l-15.2,28c-4.8,1.6-8.8,5.6-11.2,10.4a14.83,14.83,0,0,0-5.6-1.6c-1.6,0-2.4-.8-4-.8-8,0-16,4.8-19.2,12a28.76,28.76,0,0,0-8.8-1.6c-4,0-8,1.6-12,3.2L26.7,83.66l57.6-25.6-1.6,14.4c0,1.6,1.6,4,3.2,4s4-1.6,4-3.2l2.4-20a4.16,4.16,0,0,0-1.6-3.2,2.43,2.43,0,0,0-3.2,0L18.7,79.66a2.55,2.55,0,0,0-2.4,2.4,4.16,4.16,0,0,0,1.6,3.2l18.4,13.6a29.57,29.57,0,0,0-4,8.8H26.7a3.44,3.44,0,0,0-3.2,3.2,101.6,101.6,0,1,0,203.2,0,3.44,3.44,0,0,0-3.2-3.2h-5.6a21.61,21.61,0,0,0-8-13.6l22.4-12.8a4.16,4.16,0,0,0,1.6-3.2C232.3,77.26,232.3,76.46,230.7,75.66ZM121.1,54.06l11.2,18.4a32.43,32.43,0,0,0-7.2,4c-4-3.2-8.8-5.6-13.6-5.6Zm-76.8,47.2a12.85,12.85,0,0,1,8.8-4,12,12,0,0,1,8.8,3.2c1.6,1.6,2.4,1.6,4,.8q1.2,0,2.4-2.4c1.6-6.4,7.2-11.2,13.6-11.2h2.4c2.4.8,4.8,1.6,6.4,3.2.8.8,2.4.8,3.2.8a3.61,3.61,0,0,0,2.4-2.4c1.6-4.8,4.8-8.8,9.6-10.4h0a10.15,10.15,0,0,1,4.8-.8,14,14,0,0,1,11.2,5.6c.8,1.6,1.6,1.6,2.4,1.6h0a6.06,6.06,0,0,0,3.2-1.6c2.4-3.2,6.4-4.8,10.4-5.6h.8c6.4,0,12,4.8,13.6,11.2a2.12,2.12,0,0,0,2.4,2.4h.8a2.94,2.94,0,0,0,2.4-.8c.8-.8,1.6-.8,1.6-1.6v7.2c-.8.8-2.4,1.6-3.2,2.4q-2.4,2.4,0,4.8t4.8,0a17.49,17.49,0,0,1,4-2.4c1.6-.8,3.2-.8,5.6-.8a14,14,0,0,1,11.2,5.6c0,.8.8.8.8,1.6H39.5A12.44,12.44,0,0,1,44.3,101.26Zm174.4,21.6H196.3a3.2,3.2,0,1,0,0,6.4h20.8c-8.8,43.2-47.2,76-92.8,76s-84-32-92-75.2h36a3.2,3.2,0,1,0,0-6.4H30.7c0-2.4-.8-4.8-.8-8H218.7Zm-8.8-14.4H190.7c0-.8-.8-1.6-.8-2.4l12-7.2C205.9,100.46,208.3,103.66,209.9,108.46Zm-24.8-8c-4-4-8.8-6.4-14.4-6.4h-3.2V46.86l54.4,32Z"/><circle class="cls-3" cx="196.3" cy="76.46" r="3.2"/><circle class="cls-3" cx="181.9" cy="83.66" r="3.2"/><circle class="cls-3" cx="173.1" cy="67.66" r="3.2"/><circle class="cls-3" cx="73.1" cy="72.46" r="3.2"/><circle class="cls-3" cx="54.7" cy="83.66" r="3.2"/></svg>