<svg id="Layer_1" data-name="Layer 1" xmlns="http://www.w3.org/2000/svg" viewBox="0 0 250 250"><defs><style>.cls-1{fill:#f9e8a0;}.cls-2{fill:red;}.cls-3{fill:#414042;}</style></defs><title>QSR Burger</title><path class="cls-1" d="M62.78,193.24s-27.13,2.47-27.13-20.55V153s-7.4-2.47-7.4-13.15c0,0,0-8.22,6.58-10.69-4.11-2.47-8.22-10.69,0-13.15,0-4.11,8.22-69.89,85.51-60H159.8s50.15,4.93,54.26,60c0,0,12.33,2.47,1.64,12.33,4.11,3.29,12.33,18.09-.82,23.84-.82,6.58,0,18.09,0,18.09s-1.64,20.55-19.73,23Z"/><path class="cls-2" d="M38.12,154.6a19.53,19.53,0,0,1-8.22-17.27c.82-11.51,14-8.22,17.27-5.76s18.91,8.22,33.71.82,19.73-7.4,29.6,0,24.67,1.64,32.07-2.47c8.22-4.11,18.09-3.29,26.31,1.64s22.2,4.93,32.89-1.64,18.91,3.29,18.91,6.58,1.64,14.8-7.4,17.27c-9.87,0-87.15.82-87.15.82L89.92,176,52.09,154.6Z"/><path class="cls-3" d="M220.64,129.11a7.48,7.48,0,0,0,3.29-6.58c0-4.11-2.47-7.4-5.76-8.22-1.64-32.89-28.78-60-62.49-60H94.85c-33.71,0-60.84,26.31-62.49,60-3.29.82-5.76,4.11-5.76,8.22,0,2.47,1.64,4.93,3.29,6.58A16.23,16.23,0,0,0,25,140.62a15.57,15.57,0,0,0,7.4,13.15v18.09a23.86,23.86,0,0,0,23.84,23.84h137.3a23.86,23.86,0,0,0,23.84-23.84V153.78a16.74,16.74,0,0,0,7.4-13.15c.82-4.93-.82-9-4.11-11.51Zm-185-9.87H59.49v-5.76H38.94C40.58,83.89,65.25,60,94.85,60h60.84a56.79,56.79,0,0,1,56.73,53.44H68.54v5.76H214.89a2.63,2.63,0,0,1,2.47,2.47c0,.82-.82,3.29-2.47,3.29H211.6a41.39,41.39,0,0,0-13.15,4.11c-3.29,1.64-6.58,3.29-14,3.29H182c-4.93,0-8.22-1.64-11.51-3.29-4.11-1.64-8.22-4.11-16.44-4.11h-4.11c-5.76.82-9,2.47-12.33,3.29a3,3,0,0,1-2.47.82,70.47,70.47,0,0,1-10.69,2.47H122.8c-2.47,0-4.93-.82-6.58-.82a40.08,40.08,0,0,1-5.76-2.47c-4.11-1.64-8.22-4.11-16.44-4.11s-12.33,2.47-16.44,4.11c-3.29,1.64-5.76,3.29-11.51,3.29H63.61c-6.58,0-9.87-1.64-14-3.29-.82-.82-4.11-3.29-10.69-3.29H35.65a2.63,2.63,0,0,1-2.47-2.47c0-2.47.82-3.29,2.47-3.29Zm176.77,44.4H149.11v5.76h63.31v3.29a18.25,18.25,0,0,1-18.09,18.09H57a18.25,18.25,0,0,1-18.09-18.09V157.07h9l41.93,23,41.93-23h78.93v6.58Zm-152.1-7.4h60l-29.6,16.44ZM210,150.49H41.41a9.5,9.5,0,0,1-9.87-9.87,9.77,9.77,0,0,1,8.22-9.87c4.93.82,7.4,1.64,9.87,3.29a40.55,40.55,0,0,0,14.8,4.11h1.64c8.22,0,12.33-2.47,16.44-4.11,3.29-1.64,6.58-3.29,14-3.29h6.58c2.47.82,4.11,1.64,6.58,2.47s4.93,2.47,9,3.29H131c4.93-.82,8.22-2.47,10.69-3.29h0c3.29-1.64,6.58-3.29,14-3.29h6.58c2.47.82,4.11,1.64,6.58,2.47s4.93,2.47,9,3.29h9c7.4,0,11.51-2.47,14.8-4.11,2.47-1.64,5.76-2.47,9.87-3.29a9.77,9.77,0,0,1,8.22,9.87c0,8.22-4.93,12.33-9.87,12.33Z"/><rect class="cls-3" x="91.56" y="66.63" width="9.04" height="5.76"/><rect class="cls-3" x="106.36" y="79.78" width="9.04" height="5.76"/><rect class="cls-3" x="76.76" y="79.78" width="9.04" height="5.76"/><rect class="cls-3" x="164.73" y="79.78" width="9.04" height="5.76"/><rect class="cls-3" x="135.96" y="79.78" width="9.04" height="5.76"/><rect class="cls-3" x="121.16" y="66.63" width="9.04" height="5.76"/><rect class="cls-3" x="149.93" y="66.63" width="9.04" height="5.76"/></svg>