<svg id="Layer_1" data-name="Layer 1" xmlns="http://www.w3.org/2000/svg" viewBox="0 0 250 250"><defs><style>.cls-1{fill:#f9e8a0;}.cls-2{fill:red;}.cls-3{fill:#414042;}</style></defs><title>QSR Ice CreamYogurt</title><path class="cls-1" d="M173.13,89.06c-1.51-6-6-9.78-12.79-11.29-1.51-.75-2.26-.75-1.51-3,1.51-10.54-2.26-18.81-10.54-24.83-12-9-31.61-9.78-44.4-1.51-9.78,6-14.3,15.05-12.79,27.09,0,.75,0,1.51-1.51,2.26h-.75A36.69,36.69,0,0,0,83.58,80a17,17,0,0,0-7.53,11.29,16.22,16.22,0,0,0,3.76,12.79q5.64,6.77,15.8,6.77h57.19c2.26,0,4.52,0,6-.75a23.24,23.24,0,0,0,12-8.28C173.88,98.09,173.88,93.57,173.13,89.06Z"/><polygon class="cls-2" points="127.22 199.68 154.32 114.64 95.62 114.64 127.22 199.68"/><path class="cls-3" d="M127.23,211.72C125.72,208,101.64,145.5,91.1,116.9c-.75-1.51-1.51-2.26-3-2.26-9-3-15.05-8.28-16.56-18.06-.75-7.53,2.26-13.55,8.28-18.81,1.51-1.51,3.76-2.26,6-3.76.75,0,.75-.75.75-1.51,0-13.55,6.77-23.33,18.06-30.1,15.8-8.28,36.12-6,48.92,6,6.77,7.53,10.54,15.05,9.78,24.08,0,1.51.75,1.51,1.51,2.26,7.53,3.76,12,9,13.55,17.31a18.19,18.19,0,0,1-4.52,15.05,25.35,25.35,0,0,1-12.79,8.28c-1.51,0-1.51.75-2.26,2.26-9.78,30.85-30.1,94.07-30.1,94.82C128.73,211.72,128,211.72,127.23,211.72ZM125,110.88h28.6a16.57,16.57,0,0,0,6-.75c9.78-2.26,15.05-11.29,12.79-20.32-1.51-6-6-9-12-10.54-2.26-.75-3-1.51-2.26-3.76.75-10.54-2.26-18.06-10.54-24.83-11.29-9-30.85-9.78-42.9-1.51-9.78,6-13.55,15.05-12,25.59a4.14,4.14,0,0,1-2.26,3.76,22.53,22.53,0,0,0-6,3c-8.28,5.27-9.78,15.8-3,22.58a19,19,0,0,0,15.05,6.77Zm3,85.79c9-27.09,17.31-54.18,25.59-80.52H97.12C106.91,143.24,117.44,169.58,128,196.67Z"/><path class="cls-3" d="M112.17,50.68v5.27c-8.28,2.26-9,9-10.54,15.8V74h-6c0-2.26.75-4.52.75-6.77a24.73,24.73,0,0,1,5.27-12C105.4,52.93,108.41,50.68,112.17,50.68Z"/></svg>