<svg id="Layer_1" data-name="Layer 1" xmlns="http://www.w3.org/2000/svg" viewBox="0 0 250 250"><defs><style>.cls-1{fill:#414042;}.cls-2{fill:#f9e8a0;}.cls-3{fill:red;}</style></defs><title>QSR Coffee</title><path class="cls-1" d="M193.39,187.93h-34c8.69-4,15-8.69,19.75-15,22.12-3.16,32.39-22.12,32.39-38.71,0-11.85-6.32-22.12-15-24.49A11.23,11.23,0,0,0,195,105c-1.58-1.58-3.16-1.58-4.74-1.58H51.18A11.23,11.23,0,0,0,46.44,105c-1.58,1.58-1.58,3.16-1.58,4.74,0,31.6,5.53,64,37.13,77.43H47.23a8.77,8.77,0,0,0-8.69,8.69c0,4,2.37,7.11,7.11,7.9l37.92,2.37a1.7,1.7,0,0,1,1.58,1.58,8.69,8.69,0,0,0,7.9,4.74h49.77c4,0,7.11-2.37,7.9-5.53,0-.79.79-.79,1.58-.79l41.08-2.37h.79c4.74-.79,7.11-4,7.11-7.9A7.92,7.92,0,0,0,193.39,187.93Zm-7.9-24.49c.79-.79.79-1.58,1.58-2.37,7.11-13.43,8.69-29.23,8.69-43.45,4.74,2.37,7.9,8.69,7.9,16.59,0,11.06-4.74,24.49-19,30C185.49,164.23,185.49,164.23,185.49,163.44Z"/><path class="cls-1" d="M110.43,77.32c0,4.74,2.37,9.48,7.11,15a4,4,0,0,0,4.74,0q2.37-2.37,0-4.74c-3.16-4-4.74-7.11-4.74-10.27s1.58-6.32,4.74-9.48a19.13,19.13,0,0,0,7.11-14.22c0-5.53-2.37-10.27-7.11-15q-2.37-2.37-4.74,0t0,4.74c3.16,4,4.74,7.11,4.74,10.27s-1.58,6.32-4.74,9.48Q110.43,70.21,110.43,77.32Z"/><path class="cls-1" d="M143.62,77.32c0,4.74,2.37,9.48,7.11,15a3.36,3.36,0,0,0,4.74-4.74c-3.16-4-4.74-7.11-4.74-10.27s1.58-6.32,4.74-9.48a19.13,19.13,0,0,0,7.11-14.22c0-5.53-2.37-10.27-7.11-15q-2.37-2.37-4.74,0t0,4.74c3.16,4,4.74,7.11,4.74,10.27s-1.58,5.53-4.74,9.48Q143.62,70.21,143.62,77.32Z"/><path class="cls-1" d="M80.41,77.32c0,4.74,2.37,9.48,7.11,15a3.36,3.36,0,0,0,4.74-4.74c-3.16-4-4.74-7.11-4.74-10.27S89.1,71,92.26,67.84a19.13,19.13,0,0,0,7.11-14.22c0-5.53-2.37-10.27-7.11-15q-2.37-2.37-4.74,0t0,4.74c3.16,4,4.74,7.11,4.74,10.27s-1.58,5.53-4.74,9.48Q80.41,70.21,80.41,77.32Z"/><path class="cls-2" d="M51.18,110.51c0,40.29,8.69,78.22,68.74,78.22s68.74-37.92,68.74-78.22Z"/><path class="cls-3" d="M46.44,197.41l37.92,2.37c3.16,0,5.53,2.37,7.11,4.74.79.79,1.58,1.58,2.37,1.58h50.56c.79,0,1.58-.79,2.37-1.58,1.58-2.37,4-4.74,7.11-4.74l40.29-2.37c1.58,0,1.58-.79,1.58-1.58a1.7,1.7,0,0,0-1.58-1.58h-147a1.7,1.7,0,0,0-1.58,1.58C44.86,196.62,44.86,197.41,46.44,197.41Z"/></svg>