<svg id="Layer_1" data-name="Layer 1" xmlns="http://www.w3.org/2000/svg" viewBox="0 0 250 250"><defs><style>.cls-1{fill:red;}.cls-2{fill:#f8e79f;}.cls-3{fill:#414042;}</style></defs><title>QSR Other</title><path class="cls-1" d="M164.77,199.91c-9.28-2-26.52-5.3-39.77-5.3-15.25,0-35.13,4-43.09,5.3l-2.65.66.66,2.65c2,2.65,5.3,5.3,8.62,5.3h71.59a11.33,11.33,0,0,0,8.62-4.64l1.33-2-2.65-.66C166.76,200.57,165.44,200.57,164.77,199.91Z"/><path class="cls-2" d="M113.07,113.07l2,.66v-55H101.8v50.38l.66.66A65.16,65.16,0,0,0,113.07,113.07Z"/><path class="cls-2" d="M93.84,101.8l1.33-.66-1.33.66,2,2,2.65,2.65V72H85.23V95.83l.66.66C89.87,97.16,92.52,99.15,93.84,101.8Z"/><path class="cls-2" d="M80.59,94.51h2V81.25H69.32V93.84h9.94A2.05,2.05,0,0,0,80.59,94.51Z"/><path class="cls-2" d="M121.69,116.38h9.94V43.47H118.37v72.92h1.33C120.36,115.72,121,116.38,121.69,116.38Z"/><path class="cls-2" d="M169.41,94.51h9.94V81.25H166.1V93.84h2A2.05,2.05,0,0,0,169.41,94.51Z"/><path class="cls-2" d="M146.21,109.09l.66-.66V58.71H133.62v55l2-.66C139.58,112.41,143.56,111.08,146.21,109.09Z"/><path class="cls-2" d="M154.83,101.8h0c2-2.65,4.64-5.3,8-6l1.33-.66V72H150.85v34.47l2.65-2.65C153.5,103.12,154.17,102.46,154.83,101.8Z"/><path class="cls-1" d="M180.68,97.82h0c-.66,0-1.33-.66-2-.66h-9.28a8.41,8.41,0,0,0-4,.66c-3.31.66-6,3.31-8,6-1.33,2-4,4-6,6l-1.33.66.66,1.33-1.33-1.33A45.14,45.14,0,0,1,135.61,117l-2.65.66c-1.33.66-2.65.66-4.64.66a16.1,16.1,0,0,1-8,0c-1.33,0-2.65-.66-4-.66l-2.65-.66a45.14,45.14,0,0,1-13.92-6.63h-2a31.42,31.42,0,0,1-6.63-6.63c-1.33-2.65-4.64-4.64-7.29-6h0c-2,0-3.31-.66-4.64-.66H68c-4,1.33-5.3,5.3-5.3,8.62v8l2.65-.66A9.58,9.58,0,0,1,70,111.74h9.28A17.6,17.6,0,0,1,93.84,119c6,8.62,20.55,14.58,30.49,14.58s24.53-6,30.49-14.58a17.6,17.6,0,0,1,14.58-7.29h9.28a12.29,12.29,0,0,1,4.64,1.33l2.65,1.33v-8C186,101.8,184,98.48,180.68,97.82Z"/><path class="cls-2" d="M178.69,115.06h-9.28a16.11,16.11,0,0,0-11.93,6c-6.63,9.94-22.54,15.91-33.14,15.91S98.48,131,91.19,121a14.17,14.17,0,0,0-11.93-6H70c-3.31,0-5.3,2-6.63,5.3h0V121c.66,8.62,1.33,17.9,2.65,26.52l.66,2.65c0,2,.66,4,.66,6L68,160.8c.66,2,.66,4,1.33,6s.66,3.31,1.33,5.3a20.49,20.49,0,0,1,1.33,5.3c.66,3.31,2,6.63,2.65,9.94,0,.66.66,1.33.66,2.65.66,2,1.33,4,2,6.63l.66,1.33h1.33c4.64-1.33,21.87-4.64,37.12-5.3h8a38,38,0,0,1,8,.66c12.59.66,25.85,4,32.48,4.64l5.3,1.33,1.33-2.65c.66-2.65,1.33-4.64,2-7.29l.66-2a55.22,55.22,0,0,0,2.65-9.94c.66-1.33.66-3.31,1.33-4.64v-.66c.66-1.33.66-3.31,1.33-4.64.66-2,.66-4,1.33-6.63l.66-3.31c.66-2.65.66-4.64,1.33-7.29v-2c1.33-9.28,2-18.56,2.65-27.18v-.66A6.46,6.46,0,0,0,178.69,115.06Z"/><path class="cls-3" d="M180,185.32l2-6c.66-2,.66-4,1.33-5.3s.66-3.31,1.33-4.64c.66-2,.66-4.64,1.33-6.63,0-1.33.66-2.65.66-3.31.66-2.65.66-5.3,1.33-7.29v-1.33a324,324,0,0,0,3.31-43.75v-.66c0-5.3-2.65-9.94-6-11.93V76.61H169.41V66.67H153.5V53.41H137.59V37.5H113.73V53.41H97.16V66.67H81.25v9.94H65.34V93.84c-4,2-6.63,6.63-6.63,11.93v.66A306.46,306.46,0,0,0,62,149.53a2.44,2.44,0,0,0,.66,2c.66,2.65.66,4.64,1.33,7.29,0,1.33.66,2.65.66,4,.66,2,.66,4,1.33,6.63.66,2,.66,3.31,1.33,5.3S68,178,68.66,180s1.33,4,2,6.63c.66,1.33.66,2.65,1.33,4,1.33,3.31,2,7.29,3.31,10.61v2h0c2,5.3,8,9.28,13.92,9.28H160.8a15.52,15.52,0,0,0,14.58-11.27h0v-1.33a65.16,65.16,0,0,0,3.31-10.61c.66-.66.66-2.65,1.33-4Zm1.33-37.12v2c-.66,2.65-.66,4.64-1.33,7.29,0,1.33-.66,2.65-.66,3.31-.66,2-.66,4-1.33,6-.66,1.33-.66,3.31-1.33,4.64-.66,2-.66,3.31-1.33,5.3-.66,3.31-2,6.63-2.65,9.94,0,.66-.66,1.33-.66,2-.66,2.65-1.33,4.64-2,7.29-1.33,0-2.65-.66-4-.66-9.28-2-27.18-5.3-41.1-5.3-15.91,0-37.78,4-45.08,6-.66-2-1.33-4-2-6.63,0-.66-.66-2-.66-2.65a55.22,55.22,0,0,1-2.65-9.94c-.66-1.33-.66-3.31-1.33-4.64-.66-2-1.33-3.31-1.33-5.3-.66-2-.66-4-1.33-6,0-1.33-.66-2.65-.66-4-.66-2-.66-4.64-1.33-6.63a4,4,0,0,0-.66-2.65c-1.33-8.62-2-17.23-2.65-26.52v-.66c.66-1.33,2-4.64,5.3-4.64h9.28c4,0,8.62,2,10.61,5.3,7.29,9.94,23.2,16.57,34.47,16.57,10.61,0,27.18-6.63,34.47-16.57a13.84,13.84,0,0,1,10.61-5.3h9.28c3.31,0,4.64,3.31,5.3,4.64h0c-.66,9.94-2,18.56-3.31,27.84Zm-116-41.76h0c0-3.31,1.33-6.63,4-7.29H79.92a8.41,8.41,0,0,1,4,.66h0a13.9,13.9,0,0,1,7.29,5.3h0a31.42,31.42,0,0,0,6.63,6.63h0l1.33.66h.66c4.64,2.65,9.28,5.3,14.58,6.63h0l2.65.66h0c1.33,0,2.65.66,4,.66h8c1.33,0,3.31-.66,4.64-.66h0l2.65-.66h0a71.05,71.05,0,0,0,14.58-6.63h.66l1.33-.66h0a31.42,31.42,0,0,0,6.63-6.63h0c2-2.65,4.64-4,7.29-5.3a7.21,7.21,0,0,1,3.31-.66h10.61c2.65.66,4,4,4,6.63v5.3a12.49,12.49,0,0,0-5.3-1.33h-9.28a19.76,19.76,0,0,0-15.91,8c-6,8.62-19.89,13.92-29.17,13.92s-23.2-5.3-29.17-13.92a19.77,19.77,0,0,0-15.91-8H70.64a12.49,12.49,0,0,0-5.3,1.33v-4.64ZM178.69,82.58v9.28h-9.94V82.58ZM162.12,73.3V93.84c-3.31,1.33-6,4-8.62,6.63h0l-1.33,1.33V73.3ZM146.21,60v47.73c-2.65,2-6.63,2.65-9.94,3.31V60ZM120.36,44.13h9.94v70.27h-9.94ZM103.79,60h9.94v51a58.33,58.33,0,0,1-9.94-3.31ZM87.88,73.3h9.94v29.17l-2-2h0a19.49,19.49,0,0,0-8-6.63ZM71.31,82.58h9.94v9.28H71.31Zm89.49,123.3H89.2a10.1,10.1,0,0,1-7.29-4c8.62-2,28.5-5.3,43.09-5.3,13.26,0,30.49,3.31,39.77,5.3,1.33,0,2,.66,2.65.66a8.16,8.16,0,0,1-6.63,3.31Z"/><path class="cls-3" d="M125,136.93a28.5,28.5,0,1,0,28.5,28.5C154.17,149.53,140.91,136.93,125,136.93ZM125,186a21.36,21.36,0,0,1-21.21-21.21A21.21,21.21,0,1,1,125,186Z"/><path class="cls-3" d="M135.61,161.46H129v-6.63a4,4,0,0,0-8,0v6.63h-6.63a4,4,0,0,0,0,8H121V176a4,4,0,0,0,8,0v-6.63h6.63a4,4,0,0,0,0-8Z"/></svg>