<svg id="Layer_1" data-name="Layer 1" xmlns="http://www.w3.org/2000/svg" viewBox="0 0 250 250"><defs><style>.cls-1{fill:red;}.cls-2{fill:#f8e79f;}.cls-3{fill:#414042;}</style></defs><title>QSR Sandwich</title><path class="cls-1" d="M74.29,62.88s27,1.64,36,21.26,27,24.53,30.25,31.89,1.64,17.17,1.64,17.17Z"/><path class="cls-1" d="M154.42,145.45s27.8-2.45,36,34.34l-3.27-.82Z"/><path class="cls-2" d="M40.77,46.52s1.64-8.18,9-4.91L208.38,200.23a7.65,7.65,0,0,1,.82,5.72c-.82,3.27-4.91,3.27-4.91,3.27H46.5s-4.91-.82-4.91-7.36S40.77,46.52,40.77,46.52Z"/><path class="cls-3" d="M210,197l-10.63-10.63c-4.91-4.91-7.36-11.45-9.81-18A48.87,48.87,0,0,0,183,155.27c-9-10.63-17.17-13.08-28.62-13.9l-8.18-8.18c0-2.45,2.45-17.17-12.26-27-13.9-9.81-18-17.17-23.71-27-7.36-13.08-19.62-16.35-29.43-18.8a40.48,40.48,0,0,1-10.63-3.27L53,40a8.7,8.7,0,0,0-9.81-1.64C40,40,37.5,43.25,37.5,46.52v157a9.07,9.07,0,0,0,9,9h157c4.09,0,7.36-2.45,8.18-5.72A8.7,8.7,0,0,0,210,197Zm-31.89-37.61c2.45,2.45,4.09,7.36,5.72,11.45v.82L161,148.73c7.36.82,12.26,3.27,17.17,10.63ZM80,67c9,2.45,19.62,4.91,26.16,15.53,4.91,9.81,9.81,18,24.53,28.62,7.36,5.72,9.81,12.26,9.81,16.35L80,67ZM206.75,204.32c0,.82-.82,2.45-3.27,2.45H46.5a3.52,3.52,0,0,1-3.27-3.27v-157c0-2.45,1.64-3.27,2.45-3.27h1.64a2.53,2.53,0,0,1,1.64.82L195.3,190.42h0l10.63,10.63a2.88,2.88,0,0,1,.82,3.27Z"/><path class="cls-3" d="M117.63,132.37a3.71,3.71,0,0,0-4.09,0L57.12,188.79a3.71,3.71,0,0,0,0,4.09,3,3,0,0,0,2.45.82,3,3,0,0,0,2.45-.82l56.41-56.41a8.89,8.89,0,0,0-.82-4.09Z"/><path class="cls-3" d="M59.58,169.17a3,3,0,0,0,2.45-.82L105.36,125a3.71,3.71,0,0,0,0-4.09,3.71,3.71,0,0,0-4.09,0L57.12,164.26a3.71,3.71,0,0,0,0,4.09c.82,0,1.64.82,2.45.82Z"/><path class="cls-3" d="M129.89,145.45a3.71,3.71,0,0,0-4.09,0L82.47,188.79a3.71,3.71,0,0,0,0,4.09,4.09,4.09,0,0,0,4.91,0l43.33-43.33c.82-1.64.82-3.27-.82-4.09Z"/><path class="cls-3" d="M143,157.72a3.71,3.71,0,0,0-4.09,0l-31.07,31.07a3.71,3.71,0,0,0,0,4.09,4.09,4.09,0,0,0,4.91,0l31.07-31.07c0-.82,0-3.27-.82-4.09Z"/><path class="cls-3" d="M151.15,170l-18.8,18.8a3.71,3.71,0,0,0,0,4.09,4.09,4.09,0,0,0,4.91,0l18-18.8a3.71,3.71,0,0,0,0-4.09c-1.64-.82-3.27-.82-4.09,0Z"/><path class="cls-3" d="M59.58,143.82A3,3,0,0,0,62,143L93.1,111.93a3.71,3.71,0,0,0,0-4.09,3.71,3.71,0,0,0-4.09,0L57.12,138.91a3.71,3.71,0,0,0,0,4.09,3,3,0,0,0,2.45.82Z"/><path class="cls-3" d="M59.58,119.29a3,3,0,0,0,2.45-.82l18.8-18.8a3.71,3.71,0,0,0,0-4.09,3.71,3.71,0,0,0-4.09,0l-19.62,18a3.71,3.71,0,0,0,0,4.09c.82.82,1.64,1.64,2.45,1.64Z"/><path class="cls-3" d="M59.58,93.95A3,3,0,0,0,62,93.13l6.54-6.54a3.71,3.71,0,0,0,0-4.09,3.71,3.71,0,0,0-4.09,0L57.12,89a3.71,3.71,0,0,0,0,4.09,3,3,0,0,0,2.45.82Z"/><path class="cls-3" d="M163.41,182.25l-6.54,6.54a3.71,3.71,0,0,0,0,4.09,4.09,4.09,0,0,0,4.91,0l6.54-6.54a3.71,3.71,0,0,0,0-4.09c-1.64-.82-4.09-.82-4.91,0Z"/></svg>