<svg id="Layer_1" data-name="Layer 1" xmlns="http://www.w3.org/2000/svg" viewBox="0 0 250 250"><defs><style>.cls-1{fill:#f9e8a0;}.cls-2{fill:red;}.cls-3{fill:#414042;}</style></defs><title>QSR Pizza</title><path class="cls-1" d="M164.26,200.11,46.69,136.69l-2.32-12.38,119.89-65s1.55-15.47,10.06-18.56,15.47.77,18.56,9.28,10.06,40.22,10.06,47.18,6.19,41-2.32,80.44c-3.87,16.24-5.41,30.94-21.66,31.71C179.73,209.39,172.77,210.94,164.26,200.11Z"/><circle class="cls-2" cx="96.97" cy="125.86" r="10.83"/><circle class="cls-2" cx="144.15" cy="140.55" r="10.83"/><circle class="cls-2" cx="150.34" cy="93.37" r="10.83"/><path class="cls-3" d="M206,92.6a241.62,241.62,0,0,0-9.28-42.54,18.29,18.29,0,0,0-9.28-10.83,16.38,16.38,0,0,0-14.7,0,18.2,18.2,0,0,0-10.83,20.11L41.28,122.76l3.87,15.47,118.34,63.43a15.71,15.71,0,0,0,9.28,9.28,22.88,22.88,0,0,0,7.73,1.55,22.58,22.58,0,0,0,7-1.55c4.64-2.32,8.51-6.19,10.06-10.83a207.22,207.22,0,0,0,10.83-50.28C209.12,132,209.12,112.71,206,92.6Zm-42.54,96.69a17,17,0,0,0-.77,6.19L49.79,135.14l-2.32-8.51,116,62.65ZM165,183.1,52.88,123.54,163.49,64.75a215.93,215.93,0,0,1,7,34C173.54,119.67,175.09,151.38,165,183.1Zm37.13-32.49c-1.55,17-4.64,33.26-10.06,48.73-1.55,3.09-3.87,6.19-7,7.73a11.47,11.47,0,0,1-10.06,0c-6.19-3.09-8.51-9.28-7-15.47C180.5,156.8,179,122,175.86,98.79a230.65,230.65,0,0,0-6.19-31.71c.77-2.32,4.64-8.51,11.6-10.06l-.77-5.41a22.07,22.07,0,0,0-12.38,8.51h0c-1.55-6.19,1.55-13.15,7-15.47a9.81,9.81,0,0,1,4.64-.77,14.34,14.34,0,0,1,5.41,1.55c3.09,1.55,5.41,4.64,7,7.73a230.37,230.37,0,0,1,9.28,41.77C203.71,112.71,204.48,132,202.16,150.61Z"/><path class="cls-3" d="M180.5,194.7l4.64,2.32c.77-.77,1.55-3.09,2.32-5.41l-4.64-1.55Q180.5,193.54,180.5,194.7Z"/><path class="cls-3" d="M191.33,124.31a171.28,171.28,0,0,1-7,58.78l4.64,1.55a178.44,178.44,0,0,0,7-60.33Z"/><path class="cls-3" d="M150.34,107.29a13.92,13.92,0,1,0-13.92-13.92A13.86,13.86,0,0,0,150.34,107.29Zm0-22.43a8.51,8.51,0,1,1-8.51,8.51A8.58,8.58,0,0,1,150.34,84.86Z"/><path class="cls-3" d="M97.74,112.71a13.92,13.92,0,1,0,13.92,13.92C111.66,118.9,104.7,112.71,97.74,112.71Zm0,21.66a8.51,8.51,0,1,1,8.51-8.51A8.58,8.58,0,0,1,97.74,134.37Z"/><path class="cls-3" d="M143.38,126.63a13.92,13.92,0,1,0,13.92,13.92A13.86,13.86,0,0,0,143.38,126.63Zm0,22.43a8.51,8.51,0,1,1,8.51-8.51A8.58,8.58,0,0,1,143.38,149.06Z"/><polygon class="cls-3" points="124.04 101.11 126.36 101.11 128.68 101.11 128.68 93.37 124.04 93.37 124.04 101.11"/><rect class="cls-3" x="70.67" y="115.8" width="5.41" height="7.73"/><rect class="cls-3" x="133.32" y="111.16" width="5.41" height="7.73"/><polygon class="cls-3" points="120.17 120.44 120.17 111.94 114.76 111.94 114.76 120.44 117.08 120.44 120.17 120.44"/><polygon class="cls-3" points="154.98 116.58 154.98 125.08 157.3 125.08 160.39 125.08 160.39 116.58 157.3 116.58 154.98 116.58"/><polygon class="cls-3" points="154.98 160.66 154.98 168.4 160.39 168.4 160.39 160.66 157.3 160.66 154.98 160.66"/><polygon class="cls-3" points="162.71 142.1 165.03 142.1 168.13 142.1 168.13 134.37 162.71 134.37 162.71 142.1"/><polygon class="cls-3" points="116.31 148.29 118.63 148.29 120.95 148.29 120.95 140.55 116.31 140.55 116.31 148.29"/></svg>