<?xml version="1.0" encoding="utf-8"?>
<!-- Generator: Adobe Illustrator 21.1.0, SVG Export Plug-In . SVG Version: 6.00 Build 0)  -->
<svg version="1.1" id="Layer_1" xmlns="http://www.w3.org/2000/svg" xmlns:xlink="http://www.w3.org/1999/xlink" x="0px" y="0px"
	 viewBox="0 0 221.9 91.6" style="enable-background:new 0 0 221.9 91.6;" xml:space="preserve">
<style type="text/css">
	.st0{fill:#008652;}
	.st1{fill:#FEF100;}
	.st2{fill:#FEFEFE;}
	.st3{fill:#FBFDFC;}
	.st4{fill:#010000;}
	.st5{fill:#008752;}
	.st6{fill:#018752;}
	.st7{fill:#038854;}
	.st8{fill:#028753;}
	.st9{fill:#FBFCFC;}
	.st10{fill:#020200;}
	.st11{fill:#048854;}
	.st12{fill:#FDF000;}
	.st13{fill:#FCEF00;}
</style>
<title>Casual dining</title>
<path class="st0" d="M139.9,59.7c0,5.8,0,11.5,0,17.3c0,2.4-0.7,4.7-2,6.7c-1.8,2.8-4.9,4.4-8.2,4.4c-11.9,0-23.8,0-35.6,0
	c-27.6,0-55.2-0.1-82.8,0.1C5.4,88.1,0.6,83.4,0.5,77.6c0,0,0-0.1,0-0.1c0-1,0-1.9,0-2.9c0-20.1,0-40.3,0-60.4
	c-0.2-3.4,1.2-6.7,3.6-9C5.8,3.6,8,2.7,10.3,2.7h1.4c39.1,0,78.2,0.1,117.3-0.1c7-0.1,11,5.6,11,11.2s0,11.3,0,17c0,0.4,0,0.7,0,1.1
	c0,0.4-0.3,0.7-0.6,1c-1.6,1.6-3.2,3.3-4.9,4.8c-4.5,4.3-4.6,11.5-0.2,15.9c0.1,0.1,0.1,0.1,0.2,0.2c1.6,1.6,3.3,3.3,4.9,4.9
	C139.6,59,139.9,59.2,139.9,59.7z"/>
<path class="st1" d="M139.9,59.7c-1.9-1.9-3.7-3.8-5.6-5.7c-4.6-4.3-4.7-11.5-0.4-16.1c0.1-0.1,0.2-0.2,0.3-0.3l5.6-5.7
	c0.2-0.2,0.5-0.4,0.7-0.7L167.8,4c2.7-2.9,6.8-4.1,10.7-3.2c2.1,0.4,4,1.4,5.5,2.9c11.3,11.3,22.7,22.7,34.1,34.1
	c4.4,4.4,4.5,11.5,0.1,15.9c-0.1,0.1-0.1,0.1-0.2,0.2c-11.3,11.3-22.5,22.5-33.8,33.8c-4.4,4.5-11.5,4.6-16,0.2
	c-0.1-0.1-0.2-0.2-0.2-0.2l-27.2-27.2C140.5,60.2,140.2,59.9,139.9,59.7z"/>
<path class="st2" d="M16,16.6c5.3-0.1,9.8,4,10.1,9.3c0.3,2,0.1,4.1-0.4,6.1c-0.1,0.5-0.3,0.9-0.5,1.4s-0.9,0.9-0.6,1.4
	s0.8,0.7,1.2,1c1.3,1,1.3,1,0.2,2.3s-1.2,1.4-2.4,0.2c-0.7-0.9-2-1-2.9-0.3C15.8,40.2,7.6,39,5.9,30.5c-0.5-2.2-0.5-4.6,0-6.8
	C7.1,19.3,10.9,16.6,16,16.6z"/>
<path class="st2" d="M128.9,20.9c2.3,0.7,2.9,2.5,3,4.4c0.1,0.8,0.1,1.7,0.2,2.5c0,0.8,0.3,1.6,0.9,2.2c0.2,0.1,0.3,0.3,0.2,0.6
	c-0.1,0.2-0.3,0.1-0.5,0.2c-1.3,0.1-2.5,0.1-3.8,0.3c-0.5,0-0.7-0.1-0.8-0.6c-0.4-1.4-0.6-2.8-0.7-4.2c0-0.2,0-0.5-0.1-0.7
	c-0.3-1.9-1.1-2.6-3-2.5c-1.6,0-3.2,0.2-4.8,0.3c-0.6,0-0.5,0.3-0.5,0.7c0.2,2.3,0.3,4.5,0.5,6.8c0.1,0.7-0.1,0.9-0.8,0.9
	c-1,0-1.9,0.1-2.9,0.2c-0.5,0-0.7,0-0.7-0.6c-0.3-4.5-0.7-9.1-1-13.6c-0.2-2-0.3-4.1-0.5-6.1c0-0.5,0-0.7,0.5-0.7
	c3.9-0.2,7.7-0.7,11.5-0.6c3.3,0,6,2.6,6,5.9c0,0.8-0.2,1.6-0.5,2.4C130.9,19.5,130,20.4,128.9,20.9z"/>
<path class="st2" d="M101.2,11.6c3-0.2,5.3-0.3,7.7-0.5c0.6,0,0.8,0.1,0.8,0.7c0,0.8,0.1,1.6,0.2,2.3c0.1,0.5-0.1,0.7-0.6,0.7
	c-3.4,0.2-6.7,0.5-10.1,0.7c-0.6,0-0.7,0.2-0.6,0.7c0.1,1,0.2,2.1,0.3,3.2c0,0.5,0.2,0.6,0.7,0.6c3-0.2,6-0.4,8.9-0.6
	c0.7-0.1,1,0.1,0.9,0.9c0,0.7,0.1,1.4,0.2,2.1c0.1,0.5-0.1,0.7-0.6,0.8c-2.5,0.1-5,0.3-7.5,0.5s-2.4,0.1-2.1,2.5
	c0.1,0.7,0.2,1.4,0.2,2.2s0.2,0.9,1,0.9c3.4-0.3,6.8-0.4,10.2-0.7c0.7-0.1,0.9,0.1,0.9,0.8c0,0.8,0.1,1.5,0.2,2.3
	c0.1,0.6-0.1,0.7-0.7,0.8c-3.9,0.2-7.8,0.5-11.6,0.7c-1,0.1-2,0.1-3.1,0.2c-0.6,0.1-0.9,0-1-0.8c-0.2-3.7-0.5-7.3-0.8-11
	c-0.2-2.8-0.4-5.6-0.7-8.4c-0.1-0.7,0.1-0.8,0.8-0.9C97.1,11.9,99.5,11.8,101.2,11.6z"/>
<path class="st2" d="M77.4,21.8c2.4-2.8,4.7-5.6,7-8.4c0.3-0.4,0.8-0.7,1.3-0.7c1.6-0.1,3.2-0.2,5-0.3l-3,3.4
	c-1.6,1.8-3.1,3.6-4.8,5.3c-0.4,0.4-0.3,0.7,0,1.1c3.2,3.7,6.4,7.4,9.7,11.2c-0.4,0.1-0.7,0.1-1,0.1c-1.2,0.1-2.5,0.1-3.7,0.2
	c-0.7,0.1-1.3-0.2-1.7-0.7c-2-2.4-4-4.8-6-7.2c-0.2-0.3-0.5-0.5-0.7-0.8c-0.1,0.1-0.2,0.2-0.3,0.3c-1.4,1-2,2.8-1.5,4.5
	c0.2,1.3,0.3,2.7,0.3,4c0,0.5-0.1,0.7-0.6,0.7c-1.1,0-2.2,0.1-3.3,0.2c-0.5,0-0.6-0.1-0.6-0.6c-0.5-6.5-1-13.1-1.5-19.6
	c-0.1-0.6,0.1-0.8,0.7-0.9c1,0,2-0.1,3.1-0.2c0.5-0.1,0.6,0.2,0.6,0.6c0.2,2.4,0.3,4.7,0.5,7.1C77.1,21.3,77.2,21.6,77.4,21.8z"/>
<path class="st2" d="M47.3,28.9c0,1-0.1,2-0.2,3c-0.4,2.1-1.9,3.9-3.9,4.6c-2.3,0.9-4.9,1.2-7.4,0.7c-3.2-0.6-5-2.6-5.6-5.9
	c-0.5-2.7-0.5-5.4-0.7-8.1c-0.2-2-0.3-4-0.5-6c-0.1-0.6,0-0.9,0.7-0.9c1,0,2.1-0.1,3.2-0.2c0.6-0.1,0.7,0.2,0.8,0.7
	c0.3,4.1,0.6,8.2,0.9,12.3c0,0.4,0.1,0.7,0.1,1.1c0.3,2.3,2.3,3.9,4.6,3.6c0.7-0.1,1.3-0.3,1.9-0.7c1-0.6,1.6-1.7,1.5-2.9
	c0.1-2.6-0.3-5.1-0.5-7.7c-0.1-2.1-0.3-4.2-0.5-6.2c-0.1-0.7,0.2-0.8,0.8-0.8c1,0,2.1-0.1,3.2-0.2c0.5,0,0.6,0.1,0.7,0.6
	C46.6,20.2,46.9,24.6,47.3,28.9z"/>
<path class="st2" d="M70.9,34.8c-1.4,0.1-2.9,0.2-4.3,0.3c-0.4,0-0.5-0.2-0.6-0.5c-0.4-1.1-0.9-2.1-1.3-3.2
	c-0.1-0.4-0.4-0.6-0.8-0.5c-2.3,0.2-4.6,0.3-6.9,0.4c-0.3,0-0.6,0.2-0.6,0.5c0,0,0,0,0,0C56,33,55.7,34,55.5,35.1
	c-0.1,0.5-0.3,0.8-0.9,0.8c-1.1,0-2.1,0.1-3.2,0.2c-0.8,0.1-0.8-0.2-0.6-0.8c1.6-5.6,3.2-11.1,4.7-16.7c0.3-1.1,0.7-2.3,1-3.4
	c0.1-0.5,0.3-0.7,0.8-0.7c1.3,0,2.6-0.1,3.9-0.2c0.3-0.1,0.7,0.1,0.8,0.4c2.9,6.6,5.9,13.2,8.8,19.8C70.9,34.6,70.9,34.7,70.9,34.8z
	"/>
<path class="st2" d="M78.5,41.4l0.8-0.1c1.5-0.1,1.5-0.1,1.6,1.4s0.1,1.5-1.4,1.5c-2.6,0.1-5.2,0.3-7.8,0.4c-0.6,0-0.9,0.2-0.7,0.8
	c0,0.1,0,0.3,0,0.4c0.2,2.4,0.2,2.4,2.6,2.2c2-0.2,4-0.2,6-0.4c0.6,0,0.8,0.1,0.8,0.7c-0.1,0.7,0.5,1.6,0,2.1s-1.3,0.1-2,0.2
	c-2,0.1-4.1,0.3-6.1,0.4c-0.7,0-1,0.1-0.8,0.9c0.2,0.9,0.2,1.8,0.2,2.7c0,0.6,0.2,0.8,0.8,0.7c2.9-0.2,5.9-0.4,8.8-0.6
	c0.7,0,0.9,0.1,1,0.8c0.2,2.2,0.2,2.2-1.9,2.3c-3.8,0.2-7.6,0.4-11.4,0.7c-0.7,0-0.9-0.1-0.9-0.8c-0.4-4.7-0.8-9.5-1.2-14.2
	c0-0.3,0-0.5-0.1-0.8c-0.2-0.7,0.2-0.9,0.8-0.9C71.4,41.8,74.9,41.6,78.5,41.4L78.5,41.4z"/>
<path class="st2" d="M40.4,43.2c1.7-0.1,3.4,0.3,4.8,1.1c1.2,0.7,2.1,1.9,2.4,3.3c0.1,0.5,0,0.7-0.5,0.7c-0.4,0-0.9,0-1.3,0
	c-1,0.1-2,0.5-2.3-1.1c-0.1-0.4-0.6-0.7-1-0.8c-1.5-0.6-3.1-0.5-4.5,0.1c-0.7,0.3-1.2,1-1.1,1.8c0.1,0.9,0.7,1.2,1.4,1.4
	c1.9,0.5,3.9,0.6,5.9,1c0.4,0.1,0.9,0.2,1.3,0.3c1.9,0.3,3.4,1.9,3.5,3.9c0.2,1.9-0.7,3.7-2.4,4.6c-2,1.1-4.3,1.6-6.6,1.3
	c-1.5,0-3-0.5-4.3-1.3c-1.1-0.8-1.9-2-2.2-3.3c-0.1-0.4,0-0.5,0.4-0.5c0.9,0,1.8-0.1,2.7-0.2c0.3-0.1,0.7,0.1,0.8,0.5c0,0,0,0,0,0.1
	c0.3,1,1.2,1.8,2.3,1.9c1.3,0.2,2.7,0.1,3.9-0.3c0.5-0.1,0.9-0.4,1.2-0.9c0.5-0.7,0.4-1.7-0.3-2.2c-0.2-0.1-0.4-0.2-0.6-0.3
	c-1.5-0.4-3.1-0.7-4.7-0.9c-1-0.1-2-0.4-3-0.6c-2.4-0.7-3.7-3.3-2.9-5.6c0.2-0.5,0.4-1,0.7-1.4c1.3-1.7,3.2-2.2,5.1-2.4
	C39.7,43.2,40.1,43.2,40.4,43.2z"/>
<path class="st2" d="M107.8,46.6c2.2-2.3,4.2-4.5,6.2-6.8c0.3-0.4,0.9-0.6,1.4-0.6c1.3,0,2.7-0.1,4-0.2l0.2,0.3
	c-0.7,0.6-1.4,1.2-2.1,1.8c-1.6,1.6-3.1,3.2-4.6,4.7c-0.4,0.4-0.4,0.6,0,1c2.5,2.6,5,5.2,7.5,7.8l1,1l-4.8,0.3
	c-0.4,0-0.5-0.3-0.7-0.5c-1.8-2-3.7-3.9-5.4-5.9c-0.4-0.5-0.6-0.5-1.1,0c-0.9,0.6-1.3,1.7-1.1,2.8c0.2,1.1,0.2,2.3,0.3,3.5
	c0,0.4,0,0.6-0.5,0.6c-1,0-1.9,0.1-2.9,0.2c-0.4,0-0.5-0.2-0.5-0.5c-0.3-3.7-0.6-7.4-0.9-11.2c-0.1-1.4-0.2-2.9-0.4-4.3
	c-0.1-0.5,0-0.8,0.6-0.8c0.7,0,1.4,0,2.2-0.1c0.9-0.2,1.1,0.2,1.2,1C107.5,42.7,107.6,44.5,107.8,46.6z"/>
<path class="st2" d="M95.9,72.5c2,1.2,2.8,2.8,2.3,4.8c-0.3,2-2,3.6-4.1,3.8c-2.8,0.4-5.7,0.1-8.5,0.2c-0.7,0-0.5-0.5-0.5-0.8
	c-0.1-4.2-0.2-8.4-0.2-12.6c0-0.9-0.4-2,0.1-2.5s1.6-0.2,2.4-0.2c2.2-0.2,4.5-0.1,6.7,0.1c2.2,0.3,3.7,2.3,3.5,4.5
	c0,0.3-0.1,0.6-0.2,0.8C97.2,71.4,96.7,72.1,95.9,72.5z"/>
<path class="st2" d="M84.4,57.9l3.9-12.5c0.4-1.4,0.9-2.8,1.3-4.1c0.1-0.3,0.2-0.6,0.6-0.6c1.1,0,2.3-0.1,3.4-0.2
	c0.5,0,0.7,0.2,0.9,0.6c2.5,5,5,10.1,7.4,15.1c0.3,0.6,0.2,0.7-0.4,0.8c-1,0-2,0.1-3.1,0.2c-0.3,0.1-0.6-0.1-0.7-0.4
	c-0.3-0.8-0.7-1.6-1.1-2.4c-0.2-0.4-0.3-0.6-0.8-0.5c-2,0.1-4,0.3-5.9,0.4c-0.3,0-0.6,0.2-0.6,0.5c-0.2,0.8-0.5,1.7-0.7,2.5
	c-0.1,0.3-0.1,0.6-0.5,0.6C86.9,57.8,85.8,57.8,84.4,57.9z"/>
<path class="st2" d="M35.9,73c-1-1-1.6-2.4-1.4-3.9c0-0.3,0.1-0.6,0.2-0.9c0.5-1.4,2-2.2,3.9-2.3c1.6-0.1,3.1,0.8,3.8,2.3
	c0.6,1.5,0.2,3.1-1,4.2l-0.1,0.1c-0.4,0.3-1.1,0.7-1,0.9c0.2,0.5,0.5,0.9,0.9,1.3c0.4,0.5,0.8,0.9,1.2,1.4c0.5-0.6,0.7-1.3,0.8-2
	c0-0.5,0.2-0.6,0.7-0.6c0.2,0,0.4,0,0.6,0c1.7,0,1.7,0,1.3,1.7c-0.2,0.9-0.6,1.8-1.1,2.5c-0.4,0.5-0.3,0.8,0.1,1.1
	c0.8,0.9,1.6,1.8,2.6,2.9c-1.3,0-2.4,0-3.5,0c-0.5,0-0.7-0.5-0.9-0.8c-0.3-0.5-0.6-0.5-1-0.1c-2.4,2-5.9,1.8-8-0.5
	c-1.6-1.8-1.3-4.6,0.5-6.1c0,0,0,0,0,0C34.7,73.8,35.3,73.4,35.9,73z"/>
<path class="st2" d="M107.4,81.1c-1.8,0-3.6,0-5.4,0c-0.5,0-0.7-0.1-0.7-0.6c-0.1-4.9-0.2-9.9-0.3-14.8c0-0.5,0.2-0.6,0.6-0.6
	c3.5,0,7,0,10.5-0.1c0.4,0,0.6,0.1,0.7,0.6c0.1,2.2,0.2,2.2-2,2.2c-1.9,0-3.9,0.1-5.8,0.1c-0.5,0-0.7,0.2-0.6,0.7c0,0.7,0,1.4,0,2.1
	c0,0.6,0.2,0.7,0.7,0.7c2.1-0.1,4.2-0.1,6.3-0.1c0.6,0,0.8,0.1,0.8,0.7c0.1,2.1,0.1,2.1-2,2.1c-1.7,0-3.4,0.1-5.1,0
	c-0.6,0-0.7,0.2-0.7,0.7c0,0.9,0,1.8,0,2.7c0,0.6,0.2,0.8,0.8,0.7c2.4-0.1,4.9-0.1,7.3-0.1c0.6,0,0.8,0.1,0.8,0.8
	c0.1,2.1,0.1,2.1-2,2.1h-2h-2L107.4,81.1z"/>
<path class="st2" d="M68.7,71.3c0-1.7,0-3.4,0-5.1c0-0.6,0.1-0.8,0.7-0.7c0.9,0.1,2-0.3,2.5,0.1s0.2,1.6,0.2,2.4
	c0.2,2.8,0,5.6,0.3,8.4c0,1.4,1.1,2.6,2.5,2.6c0.1,0,0.3,0,0.4,0c1.9,0,2.9-0.8,3-2.6c0.1-1.6,0-3.1,0-4.7c0-1.9-0.1-3.8-0.1-5.7
	c0-0.5,0.1-0.7,0.7-0.7c0.7,0,1.4,0,2.1,0c0.6-0.1,0.7,0.2,0.7,0.7c0,3,0.1,6.1,0.2,9.1c0,0.3,0,0.7,0,1c-0.2,3.6-2,5.4-5.6,5.6
	c-0.9,0.1-1.7,0-2.6-0.1c-2.7-0.3-4.6-2.6-4.6-5.2c-0.1-1.7,0-3.4,0-5.1L68.7,71.3z"/>
<path class="st2" d="M62.3,42.3c2.3,0,2.3,0,2.5,1.9c0.1,0.8-0.2,1-0.9,1c-1.3,0-2.5,0.2-3.8,0.2c-0.6,0-0.9,0.1-0.8,0.9
	c0.4,4.1,0.7,8.2,1,12.3c0,0.5,0,0.7-0.6,0.7c-0.9,0-1.7,0.1-2.6,0.2c-0.6,0.1-0.8-0.2-0.8-0.7c-0.2-2.5-0.4-5-0.6-7.5
	c-0.1-1.6-0.3-3.3-0.4-5c0-0.5-0.2-0.7-0.7-0.6c-1.4,0.1-2.9,0.2-4.3,0.3c-0.5,0-0.8-0.1-0.8-0.6c0-0.8-0.5-1.7,0-2.2
	s1.4-0.2,2.1-0.3C55.2,42.8,58.9,42.5,62.3,42.3z"/>
<path class="st2" d="M55.1,73.6c0-2.4,0-4.8,0-7.2c0-0.6,0.2-0.8,0.8-0.8c0.8,0.1,2-0.3,2.4,0.1s0.2,1.6,0.2,2.5
	c0.1,3.3,0.2,6.5,0.2,9.8c0,0.6,0.2,0.8,0.8,0.7c2.2-0.1,4.3-0.1,6.5-0.1c0.6,0,0.7,0.1,0.7,0.7c0,2.2,0.1,2.2-2.1,2.2
	c-2.8,0-5.5,0.1-8.3,0.1c-0.6,0-0.8-0.1-0.8-0.8c0-2.4,0-4.9,0-7.3L55.1,73.6z"/>
<path class="st3" d="M127.6,59.1c2,0,3.7,1.7,3.7,3.7c0,2-1.7,3.7-3.7,3.7c-2,0-3.7-1.7-3.7-3.7c0-2,1.5-3.7,3.5-3.7
	C127.4,59.1,127.5,59.1,127.6,59.1z"/>
<path class="st4" d="M218.9,45.5c-0.1,2.5-1,4.8-2.6,6.7c-0.6,0.8-1.3,1.5-2,2.2c-10.1,10.2-20.2,20.3-30.4,30.4
	c-0.8,0.7-1.6,1.4-2.4,2.1c-3.7,2.9-7,2.9-10.8,0c-1.1-0.9-2.1-1.8-3.1-2.8L138,54.5c-1.4-1.3-2.5-2.8-3.4-4.4c-1.5-2.7-1.5-6,0-8.7
	c0.7-1.3,1.7-2.5,2.7-3.6l31.1-31.1c1.1-1.1,2.3-2,3.6-2.8c2.5-1.6,5.8-1.6,8.3,0.1c1.6,1,3,2.2,4.3,3.5l29.3,29.3
	c1.4,1.3,2.7,2.9,3.7,4.6C218.4,42.6,218.8,44,218.9,45.5z"/>
<path class="st0" d="M21.1,31.9c-0.7-0.5-1.3-1-1.8-1.5c-0.4-0.3-0.6-0.4-0.9,0.1c-0.5,0.7-1.5,1.3-1.5,2c0,0.7,1.2,1.1,1.8,1.7
	l0.2,0.3c-2.6,1.5-5.9,0.7-7.4-1.9c0,0-0.1-0.1-0.1-0.1c-1.4-2.6-1.7-5.7-0.7-8.6c0.6-2.1,2.6-3.6,4.9-3.5c2.1-0.3,4.2,0.8,5.2,2.7
	C22.1,25.8,22.3,29,21.1,31.9z"/>
<path class="st5" d="M127.4,16.8c0.1,1.2-0.7,2.3-1.9,2.5c-2.1,0.3-4.1,0.5-6.2,0.5c-0.4,0-0.4-0.2-0.4-0.5
	c-0.1-1.5-0.2-3.1-0.4-4.6c0-0.4,0.1-0.5,0.5-0.6c1.8-0.1,3.7-0.3,5.5-0.3S127.4,14.9,127.4,16.8z"/>
<path class="st5" d="M59.5,19.2l3.2,7.7c0.2,0.4,0,0.4-0.4,0.5c-1.4,0.1-2.9,0.2-4.3,0.3c-0.5,0-0.6-0.1-0.5-0.6
	C58.2,24.5,58.8,22,59.5,19.2z"/>
<path class="st6" d="M90.7,78.4c-0.8,0-1.7,0.3-2.2-0.1s-0.2-1.4-0.2-2.1c-0.1-2-0.1-2.1,2-2.1c0.9,0,1.8,0,2.6,0
	c1-0.1,1.9,0.7,2,1.7c0,0.1,0,0.2,0,0.3c0.2,1.1-0.6,2-1.6,2.2c-0.1,0-0.2,0-0.3,0C92.2,78.4,91.5,78.4,90.7,78.4L90.7,78.4z"/>
<path class="st5" d="M90.7,68c0.8,0,1.5-0.1,2.3,0c0.8,0,1.5,0.6,1.5,1.4c0,0,0,0,0,0.1c0.2,0.8-0.4,1.6-1.2,1.8c0,0-0.1,0-0.1,0
	c-1.6,0.2-3.1,0.3-4.7,0.2c-0.2,0-0.3-0.1-0.3-0.4s0-0.4,0-0.6c0.1-0.8-0.4-1.9,0.2-2.4S89.9,68,90.7,68L90.7,68z"/>
<path class="st6" d="M90.4,51.2l1.9-6.7l2.7,6.1c0.2,0.4-0.1,0.4-0.3,0.4L90.4,51.2z"/>
<path class="st6" d="M38.2,79.8c-1.2,0.1-2.2-0.7-2.5-1.8c-0.1-1.2,0.5-2.3,1.6-2.8c0.3-0.1,0.4,0,0.5,0.2c0.8,1,1.6,1.9,2.4,2.9
	c0.2,0.3,0.3,0.4,0,0.7C39.7,79.4,39,79.7,38.2,79.8z"/>
<path class="st7" d="M38.6,68.3c0.7,0,1.3,0.5,1.3,1.2c0,0,0,0.1,0,0.1c0,0.6-0.9,1.9-1.4,1.9s-1.3-1.4-1.3-1.9
	C37.3,68.8,37.9,68.3,38.6,68.3C38.6,68.3,38.6,68.3,38.6,68.3z"/>
<path class="st8" d="M124.5,62.7c0-1.7,1.4-3,3.1-3c1.7,0,3,1.4,3,3.1c0,1.7-1.4,3-3.1,3C125.8,65.8,124.5,64.4,124.5,62.7z"/>
<path class="st1" d="M217.9,45.5c0,2.2-0.9,4.3-2.3,6c-0.6,0.8-1.2,1.5-1.9,2.3c-10.1,10.1-20.2,20.2-30.3,30.3
	c-1.1,1.1-2.3,2.1-3.6,2.9c-2.2,1.6-5.2,1.6-7.4,0c-1.1-0.7-2.2-1.6-3.2-2.5c-10.5-10.5-21-21-31.4-31.5c-1-1-1.8-2.1-2.4-3.3
	c-1.4-2.4-1.4-5.3-0.1-7.7c0.6-1.2,1.4-2.3,2.4-3.3c10.5-10.5,20.9-20.9,31.4-31.4c0.9-0.9,2-1.8,3.1-2.4c2.3-1.6,5.4-1.7,7.7-0.1
	c1.2,0.7,2.3,1.6,3.3,2.6c10.4,10.4,20.8,20.8,31.2,31.2c1.3,1.2,2.3,2.7,3,4.4C217.8,43.8,217.9,44.6,217.9,45.5z"/>
<path class="st9" d="M128.5,63c0.5,0.2,0.8,0.7,0.7,1.2c0,0.3,0.1,0.6-0.4,0.6c-0.4,0-0.7,0-0.7-0.5c0-0.2,0-0.4-0.1-0.5
	c-0.2-0.4-0.5-0.4-0.8-0.4s-0.2,0.4-0.3,0.6c0,0.2,0.2,0.8-0.5,0.9c-0.4,0-0.6,0-0.6-0.5c0-1,0-2,0-3.1c0-0.3,0-0.5,0.4-0.5
	c0.7,0,1.3,0,2,0.1c0.5,0,0.9,0.4,1,0.8C129.4,62.2,129.1,62.8,128.5,63z"/>
<path d="M151.8,51.7c0.5-2.7,1-5.4,1.6-8.2c0.1-0.5,0.3-0.7,0.8-0.7c2,0,2,0,2.5,2c0.5,2.3,1,4.6,1.5,7l1.5-6.6
	c0-0.2,0.1-0.3,0.1-0.5c0.5-2,0.5-2,2.5-1.8c0.4,0,0.5,0.2,0.4,0.5c-1.1,3.8-2.2,7.6-3.2,11.5c0,0.3-0.3,0.5-0.6,0.5
	c-2,0.1-2,0.1-2.4-1.9c-0.5-2.5-1-5-1.5-7.4c-0.7-3.7-0.1-0.1-0.1-0.1c-0.6,2.9-1.2,5.7-1.7,8.6c-0.1,0.7-0.4,0.9-1.1,0.9
	c-1.6-0.1-1.5,0-2-1.5c-1-3.4-1.9-6.8-2.9-10.1c-0.2-0.6-0.2-0.8,0.6-0.8c2,0,2,0,2.5,1.9c0.5,2.1,0.9,4.2,1.4,6.3
	C151.5,51.3,151.6,51.5,151.8,51.7z"/>
<path d="M162.7,31.3c1.4,0.6,2.1,2.1,1.8,3.6c-0.2,1.5-1.3,2.6-2.7,3c-1.8,0.2-3.7,0.3-5.5,0.2c-2.1,0-2.1,0-2.1-2.1
	c0-3.2,0-6.4,0-9.6c0-0.6,0.2-0.8,0.8-0.8c2.1-0.1,4.3,0,6.4,0.2c1.7,0.2,2.9,1.7,2.7,3.4c0,0.2-0.1,0.4-0.2,0.7
	C163.8,30.5,163.3,31,162.7,31.3z"/>
<path d="M190.8,53.8c-1.4,1.8-3.9,2.4-6,1.4c-2.4-0.9-3.3-2.9-3.5-5.3c-0.1-0.9,0-1.7,0.2-2.6c0.7-3.3,4-5.4,7.3-4.7
	c0.8,0.2,1.5,0.5,2.2,0.9c0.9,0.6,1.6,1.5,1.8,2.6c0.1,0.5,0,0.7-0.5,0.6s-1,0-1.4,0c-0.3,0-0.6-0.1-0.7-0.4
	c-0.8-1.5-2.6-2.1-4.2-1.3c-0.6,0.3-1,0.8-1.3,1.3c-0.9,1.7-1,3.7-0.1,5.5c0.6,1.1,1.8,1.8,3.1,1.6c1.2,0,2.3-0.8,2.7-2
	c0.2-0.5,0.2-0.8-0.5-0.7c-0.3,0-0.5,0-0.8,0c-1.6,0-1.6,0-1.4-1.6c0-0.4,0.2-0.5,0.6-0.5c1.4,0,2.8,0,4.2,0c0.4,0,0.5,0.1,0.5,0.5
	c0,1.9,0,3.8,0,5.7c0,0.3,0,0.6-0.4,0.5s-1.1,0.4-1.4-0.4C190.9,54.6,190.8,54.2,190.8,53.8z"/>
<path d="M171.7,46.8c-0.2,0.3-0.2,0.6-0.1,0.9c0,2.4,0,4.7,0,7c0,0.5-0.1,0.7-0.6,0.7c-1.8,0-1.8,0.1-1.8-1.8c0-3.3,0-6.6,0-9.9
	c0-0.6,0.2-0.7,0.8-0.8c1.3-0.3,2.6,0.5,3,1.7c1,2.1,2.3,4,3.4,6c0.1,0.3,0.3,0.5,0.6,0.9c0-2.7,0-5.2,0-7.7c0-0.9,0.3-1.1,1.1-1
	c0.3,0,0.5,0,0.8,0c0.4,0,0.6,0.1,0.6,0.6c0,3.8,0,7.6,0,11.4c0,0.2,0.1,0.5-0.1,0.5c-0.8,0.1-1.5,0.1-2.3,0c-0.4,0-0.4-0.4-0.6-0.7
	c-1.4-2.4-2.8-4.8-4.1-7.2L171.7,46.8z"/>
<path d="M166.8,31.8c0-1.8,0-3.7,0-5.5c0-0.5,0.1-0.8,0.7-0.8c2.6,0,5.2,0,7.8,0c0.6,0,0.7,0.2,0.7,0.7c0,1.5,0,1.5-1.4,1.5
	s-3,0-4.4,0c-0.6,0-0.8,0.2-0.8,0.8c0,1.9,0,1.9,1.9,1.9c1.2,0,2.4,0,3.5,0c0.5,0,0.7,0.1,0.7,0.6c0,1.6,0,1.6-1.5,1.6
	c-1.3,0-2.6,0-3.9,0c-0.5,0-0.7,0.2-0.7,0.7c0,0.7,0,1.3,0,2c0,0.5,0.1,0.6,0.6,0.6c1.8,0,3.7,0,5.5,0c0.6,0,0.9,0.1,0.8,0.8
	c0,0.2,0,0.5,0,0.7c0.1,0.6-0.1,0.7-0.7,0.7c-2.7,0-5.4,0-8.1,0c-0.5,0-0.7-0.2-0.7-0.7C166.8,35.5,166.8,33.7,166.8,31.8z"/>
<path d="M179.3,64c-0.6,0.1-1,0-1.3-0.8c-0.5-1.3-3.2-1.4-4.1-0.4c-0.5,0.5-0.4,1.3,0.1,1.7c0.2,0.1,0.4,0.2,0.6,0.3
	c1.2,0.4,2.4,0.6,3.6,0.9c2.2,0.6,3.1,1.5,3.1,3.3c0.1,1.9-1.3,3.5-3.1,3.9c-1.6,0.4-3.2,0.3-4.7-0.3c-1.3-0.5-2.2-1.7-2.3-3.1
	c-0.1-0.4,0.1-0.6,0.5-0.6c0.3,0,0.6,0,0.9,0c0.6,0,1.1,0,1.2,0.8c0.2,0.6,0.7,1,1.2,1.1c0.9,0.3,1.9,0.2,2.8-0.1
	c0.6-0.2,1-0.7,1-1.3c0-0.6-0.4-1.1-1-1.2c-1-0.3-2-0.5-3.1-0.8l-0.7-0.2c-2-0.6-2.7-1.5-2.8-3.3c-0.1-1.7,1.1-3.3,2.8-3.6
	c1.5-0.5,3.1-0.4,4.5,0.2c1.1,0.5,1.9,1.4,2.2,2.6c0.2,0.7,0.1,1.1-0.7,1C179.7,64,179.5,63.9,179.3,64z"/>
<path d="M196,51.5c0.6-0.2,1.1,0,1.3,0.9c0.1,0.4,0.5,0.7,0.9,0.8c1,0.4,2.2,0.4,3.2,0c0.5-0.2,0.9-0.7,0.9-1.2
	c0-0.6-0.4-1.1-0.9-1.2c-0.8-0.3-1.6-0.5-2.4-0.7c-0.5-0.1-0.9-0.2-1.4-0.4c-2-0.6-2.8-1.6-2.8-3.3c-0.1-1.8,1.2-3.3,2.9-3.6
	c1.5-0.4,3.1-0.3,4.5,0.3c1.1,0.5,2,1.6,2.1,2.8c0.1,0.4,0,0.7-0.5,0.7c-0.4,0-0.7,0-1.1,0c-0.4,0.1-0.9-0.1-1-0.6c0,0,0,0,0-0.1
	c-0.5-1.4-3.3-1.7-4.3-0.6c-0.4,0.5-0.4,1.3,0.1,1.7c0.2,0.1,0.4,0.2,0.6,0.3c1.4,0.4,2.8,0.7,4.2,1.1c1.3,0.3,2.3,1.4,2.4,2.7
	c0.2,1.6-0.7,3.2-2.2,3.9c-1.9,0.8-4,0.8-5.9,0c-1.1-0.5-1.8-1.4-2.1-2.6c-0.2-0.7-0.1-1.1,0.7-1C195.6,51.6,195.8,51.6,196,51.5z"
	/>
<path d="M182.7,25.3c2.5,0,4.1,1.1,4.7,3c0.3,1,0.2,1-0.8,1c-0.3,0-0.5,0-0.8,0c-0.4,0.1-0.8-0.1-0.9-0.5c0,0,0,0,0-0.1
	c-0.5-1.4-3.3-1.8-4.3-0.7c-0.5,0.5-0.4,1.3,0.1,1.7c0.2,0.1,0.3,0.2,0.5,0.3c1.1,0.3,2.3,0.6,3.4,0.9c0.3,0.1,0.6,0.2,1,0.3
	c1.2,0.3,2.2,1.4,2.3,2.6c0.3,1.5-0.4,3-1.7,3.7c-2.1,1.2-4.6,1.2-6.7,0c-0.4-0.2-0.8-0.6-1.1-1c-0.4-0.6-0.9-1.5-0.6-2.1
	s1.4-0.1,2.1-0.2c0.3,0,0.3,0.2,0.3,0.4c0.2,0.9,0.9,1.5,1.8,1.5c1.1,0.1,2.2,0.2,3.1-0.7c0.5-0.5,0.5-1.2,0-1.7
	c-0.1-0.2-0.3-0.3-0.5-0.3c-0.9-0.3-1.8-0.5-2.7-0.8c-0.5-0.1-1-0.2-1.5-0.4c-1.6-0.3-2.7-1.7-2.5-3.3c0-1.6,1-3.1,2.6-3.5
	C181.2,25.3,182,25.2,182.7,25.3z"/>
<path d="M159,65c0-1.4,0-2.7,0-4.1c0-0.5,0.1-0.7,0.6-0.7c2,0,2-0.1,2,1.9c0,2,0,4.1,0,6.1s1.2,2.9,3.1,2.4c1-0.1,1.7-1.1,1.6-2.1
	c0-2.5,0-5.1,0-7.6c0-0.7,0.2-0.9,0.9-0.8c1.8,0,1.8,0,1.8,1.8s-0.1,3.9,0,5.9c0.1,4.3-2.8,5.4-5.9,5.1c-2.8-0.3-4-1.7-4.2-4.5
	C158.9,67.3,159,66.1,159,65L159,65z"/>
<path d="M194,72.7h-0.6c-0.7,0.1-1.4,0.1-2.1-0.1c-0.6-0.3-0.5-1.3-0.8-1.9c-0.1-0.4-0.4-0.6-0.8-0.5c0,0,0,0,0,0
	c-1.1,0-2.2,0-3.3,0c-0.4-0.1-0.8,0.2-0.9,0.6c0,0,0,0,0,0c-0.7,2-0.7,2-2.8,1.9h-0.6c0.2-0.6,0.4-1.1,0.6-1.6
	c1.2-3.4,2.4-6.7,3.6-10.1c0.1-0.5,0.6-0.8,1.1-0.8c2.2,0,2.2,0,2.9,2.1L194,72.7z"/>
<path class="st10" d="M192.6,32.9c0-1.5,0-3,0-4.4c0-0.6-0.2-0.8-0.8-0.7c-0.8,0-1.6,0-2.4,0c-0.5,0-0.7-0.2-0.7-0.7
	c0-1.6-0.1-1.6,1.5-1.6c2.6,0,5.2,0,7.8,0c0.7,0,1,0.2,0.9,0.9c0,0.3,0,0.5,0,0.8c0,0.4-0.2,0.5-0.5,0.5c-0.7,0-1.4,0.1-2.1,0
	c-0.9-0.1-1.2,0.1-1.2,1.1c0.1,2.7,0,5.5,0,8.2c0,0.7-0.2,1-0.9,1c-1.7-0.1-1.7,0-1.7-1.8L192.6,32.9z"/>
<path d="M166.8,49.1c0,1.9,0,3.7,0,5.6c0,0.5-0.1,0.6-0.6,0.7c-1.9,0-1.9,0-1.9-1.9c0-3.3,0-6.5,0-9.8c0-0.7,0.1-0.9,0.8-0.9
	c1.8,0,1.8,0,1.8,1.8C166.8,46.2,166.8,47.6,166.8,49.1z"/>
<path class="st11" d="M127.4,61.5c0.4,0,0.8,0.1,0.8,0.6s-0.3,0.5-0.7,0.6S127,62.4,127,62S127,61.4,127.4,61.5z"/>
<path class="st1" d="M158.8,32.6c0.5,0,1.1,0,1.6,0c0.8,0,1.5,0.6,1.5,1.5c0,0,0,0.1,0,0.1c0.1,0.9-0.6,1.6-1.4,1.7c0,0-0.1,0-0.1,0
	c-1.1,0.1-2.2,0-3.2,0c-0.4,0-0.5-0.1-0.5-0.5s0-0.5,0-0.8C156.8,32.5,156.8,32.5,158.8,32.6z"/>
<path class="st12" d="M158.7,30.4c-2.1,0-2,0-2-2.1c0-0.4,0.1-0.6,0.6-0.6c0.9,0,1.9,0,2.8,0s1.5,0.5,1.5,1.3s-0.6,1.3-1.6,1.4
	C159.6,30.4,159.2,30.4,158.7,30.4z"/>
<path class="st13" d="M188.1,63l1.6,5c-1,0-1.9,0-2.7,0c-0.4,0-0.4-0.2-0.3-0.4L188.1,63z"/>
</svg>
