<?xml version="1.0" encoding="utf-8"?>
<!-- Generator: Adobe Illustrator 21.1.0, SVG Export Plug-In . SVG Version: 6.00 Build 0)  -->
<svg version="1.1" id="Layer_1" xmlns="http://www.w3.org/2000/svg" xmlns:xlink="http://www.w3.org/1999/xlink" x="0px" y="0px"
	 viewBox="0 0 164.9 131.6" style="enable-background:new 0 0 164.9 131.6;" xml:space="preserve">
<style type="text/css">
	.st0{fill:#FFE01B;stroke:#006BB6;stroke-width:7.2727;stroke-miterlimit:3.8637;}
	.st1{fill:#006BB6;}
</style>
<title>Grocery</title>
<path class="st0" d="M160.8,33.6v93.8H4.1V33.6C4.1,33.6,81.4-32.7,160.8,33.6L160.8,33.6z"/>
<path class="st1" d="M20.7,98.2h29.8c0.8,1.1,1.8,2,2.8,2.9H20.7V98.2z"/>
<path class="st1" d="M145.6,98.2v2.9H68.9c0.8-0.8,1.5-1.8,2.1-2.9H145.6z"/>
<path class="st1" d="M21.7,115.8c-0.7-1.1-1-2.3-1-3.6c0-1.5,0.4-2.9,1.3-4.1c0.7-1.1,1.9-1.7,3.2-1.7c2.5,0,4.6,2.2,4.6,5.8
	c0,2.6-1.3,4.8-3.1,5.4c-0.1,0-0.2,0.1-0.2,0.2c0,0.1,0,0.1,0.1,0.1c0.3,0.3,0.5,0.7,0.7,1.1c0.4,0.8,0.7,1.2,1.5,1.2
	c0.3,0,0.5-0.1,0.7-0.1s0.2,0.1,0.2,0.3c0,0.7-1.7,0.8-2.1,0.8c-0.8,0-1.5-0.2-2.1-0.6c-0.7-0.5-1.1-1.2-1.1-2.1c0-0.1,0-0.3,0-0.4
	c0-0.1,0-0.1,0-0.2c0-0.2-0.2-0.2-0.3-0.2C23.1,117.4,22.2,116.7,21.7,115.8L21.7,115.8z M27.2,115.3c0.3-0.9,0.4-1.8,0.4-2.7
	c0-2-0.7-5.6-2.5-5.6c-1.6,0-2.1,2.8-2.1,4.6c0,1.2,0.2,2.5,0.6,3.6c0.4,1.1,1.1,2,2,2C26.3,117.2,26.9,116.3,27.2,115.3L27.2,115.3
	z"/>
<path class="st1" d="M36.7,115.6c0,0.4,0.2,0.6,0.6,0.6c0.1,0,0.2,0.1,0.2,0.2c0,0,0,0,0,0c0,0.3-0.4,0.4-0.6,0.4l-1.3,0.5
	c-0.2,0.1-0.3,0.2-0.5,0.2c-0.2,0-0.2-0.4-0.2-0.6s0.1-0.6-0.1-0.6s-0.2,0.1-0.2,0.2c-0.5,0.6-1.1,0.9-1.8,1c-0.6,0-1.1-0.3-1.4-0.8
	c-0.3-0.7-0.5-1.4-0.4-2.1v-2.8c0-0.4,0-0.9-0.1-1.3c-0.1-0.3-0.4-0.3-0.6-0.4c-0.2,0-0.3-0.2-0.3-0.4c0-0.3,0.2-0.3,0.4-0.3
	c0.4,0,0.8,0,1.2,0s0.8,0,1.2,0c0.2,0,0.2,0,0.2,0.3v4.6c0,0.5,0,0.9,0.2,1.4c0.1,0.3,0.4,0.5,0.7,0.5c0.4-0.1,0.7-0.3,0.9-0.6
	c0.2-0.3,0.2-0.7,0.2-1.1v-2.8c0-0.4,0-0.9-0.1-1.3c-0.1-0.2-0.4-0.4-0.6-0.4c-0.2,0-0.3-0.2-0.3-0.3c0-0.3,0.2-0.3,0.4-0.3
	c0.4,0,0.8,0,1.2,0s0.8,0,1.2,0c0.2,0,0.2,0.3,0.2,0.6L36.7,115.6L36.7,115.6z"/>
<path class="st1" d="M43.2,115c0,0.3-0.1,1.1,0.3,1.1c0.1,0,0.2-0.1,0.3-0.2s0.2-0.2,0.3-0.2s0.2,0.1,0.2,0.2c0,0.3-0.2,0.5-0.3,0.7
	c-0.3,0.4-0.8,0.7-1.4,0.8c-0.5,0-0.7-0.2-0.9-0.8c0-0.1-0.1-0.4-0.2-0.4s-0.9,1.4-2.2,1.4c-0.7,0-1.3-0.7-1.3-1.7
	c0-0.6,0.2-1.2,0.7-1.7c0.4-0.4,0.9-0.7,1.4-0.9c0.4-0.2,0.8-0.5,1.2-0.8c0.1-0.1,0.1-0.1,0.1-0.2v-0.6c0-0.6,0.1-1.8-0.6-1.8
	c-0.4,0-0.7,0.6-0.9,1.1s-0.2,0.7-0.5,0.9c-0.3,0.2-0.6,0.3-1,0.4c-0.2,0-0.4-0.1-0.4-0.3c0,0,0,0,0-0.1c0.1-0.6,0.4-1.2,0.8-1.6
	c0.6-0.6,1.5-0.9,2.3-0.9c0.6,0,1.1,0.1,1.6,0.5c0.4,0.4,0.5,0.9,0.4,1.4L43.2,115L43.2,115z M41.4,113.8c0-0.1,0-0.7-0.1-0.7
	c-0.3,0.2-0.6,0.4-0.9,0.7c-0.4,0.3-0.7,0.8-0.7,1.3c0,0.5,0.3,1,0.7,1c0.4,0,0.7-0.3,0.9-0.7c0.1-0.3,0.1-0.5,0.1-0.8V113.8
	L41.4,113.8z"/>
<path class="st1" d="M47.2,115.9c0,0.4,0.3,0.7,0.7,0.8c0.2,0,0.4,0.1,0.4,0.4s-0.1,0.3-0.3,0.3c-0.6,0-1.2,0-1.8,0s-1.2,0-1.8,0
	c-0.2,0-0.3,0-0.3-0.3c0-0.2,0.1-0.4,0.3-0.4c0,0,0,0,0,0c0.8-0.1,0.8-0.7,0.8-0.8v-8c0-0.9,0-1.1-0.7-1.3c-0.1,0-0.3-0.1-0.3-0.3
	c0-0.3,0.4-0.4,0.5-0.4c0.6-0.1,1.1-0.3,1.7-0.6c0.1-0.1,0.3-0.2,0.5-0.2c0.3,0,0.2,0.6,0.2,0.8L47.2,115.9L47.2,115.9z"/>
<path class="st1" d="M51.2,115c0,0.5,0,0.9,0.1,1.4c0.1,0.3,0.4,0.2,0.7,0.3c0.2,0,0.3,0.2,0.3,0.4c0,0.3-0.2,0.3-0.4,0.3
	c-0.5,0-1.1,0-1.6,0s-1,0-1.6,0c-0.2,0-0.4,0-0.4-0.3c0-0.2,0.1-0.3,0.3-0.4c0.2,0,0.6-0.1,0.6-0.3c0.1-0.5,0.1-0.9,0.1-1.4v-2.5
	c0-0.7,0-1.1-0.6-1.2c-0.2,0-0.4,0-0.4-0.3s0.4-0.4,0.5-0.4c0.6-0.2,1.2-0.6,1.6-1.2c0.1-0.2,0.3-0.3,0.4-0.3c0.2,0,0.2,0.4,0.2,0.6
	L51.2,115L51.2,115z M49.1,107.2c-0.1-0.7,0.4-1.3,1.1-1.3c0,0,0,0,0,0c0.7,0,1.1,0.6,1.1,1.3c0,0,0,0,0,0.1c0,0.9-0.5,1.4-1.1,1.4
	S49.1,108,49.1,107.2L49.1,107.2z"/>
<path class="st1" d="M54.9,113.9c0,0.6,0,2.3,0.6,2.3c0.4,0,0.7-0.5,0.9-0.5s0.2,0.1,0.2,0.2c-0.1,0.3-0.2,0.5-0.3,0.7
	c-0.4,0.5-1,0.8-1.6,0.9c-0.5,0-0.9-0.3-1.2-0.7c-0.3-0.6-0.4-1.3-0.4-1.9v-3.6c0-0.2,0-0.5,0-0.7c0-0.1-0.2-0.2-0.3-0.2
	c-0.2,0-0.6,0.1-0.6-0.2s0.3-0.4,0.4-0.5c0.8-0.4,1.3-1.1,1.7-1.9c0.1-0.2,0.2-0.6,0.4-0.6s0.2,0.4,0.2,0.6v1.2
	c0,0.5,0.1,0.5,0.4,0.5h0.7c0.3,0,0.4-0.1,0.4,0.3s-0.1,0.5-0.4,0.5h-0.6c-0.4,0-0.4,0-0.4,0.7L54.9,113.9L54.9,113.9z"/>
<path class="st1" d="M61.7,111.4c0.1-0.2,0.1-0.5,0.2-0.7c0-0.3-0.2-0.5-0.5-0.5c0,0,0,0,0,0c-0.2,0-0.5,0-0.5-0.4s0.3-0.3,0.4-0.3
	c0.4,0,0.7,0,1.1,0s0.7,0,1.1,0c0.2,0,0.3,0,0.3,0.3c0,0.2-0.1,0.4-0.3,0.4c0,0,0,0,0,0c-0.3,0.1-0.4,0-0.6,0.4
	c-0.2,0.5-0.4,1-0.6,1.5l-1.9,5.5l-0.7,2.2c-0.3,1-0.2,1.3-1,1.3c-0.6,0-1.1-0.1-1.1-1c0-0.3,0-0.6,0.2-0.9c0.2-0.3,0.5-0.3,0.7-0.3
	s0.7,0.1,0.9-0.3c0.1-0.3,0.2-0.5,0.3-0.8c0-0.3-0.1-0.6-0.2-0.9l-1.9-5.2c-0.2-0.4-0.3-0.9-0.6-1.3c-0.2-0.3-0.3-0.3-0.5-0.3
	S56,110,56,109.7s0.2-0.3,0.4-0.3c0.6,0,1.1,0,1.7,0s1,0,1.5,0c0.2,0,0.4,0,0.4,0.3s-0.2,0.3-0.3,0.4s-0.5,0.1-0.5,0.4
	c0,0.3,0.1,0.5,0.2,0.8l0.9,2.7c0,0.1,0.2,0.5,0.3,0.5s0.2-0.4,0.3-0.6L61.7,111.4L61.7,111.4z"/>
<path class="st1" d="M70.2,110.6c0,0.5,0,0.8,0.4,0.8c0.4,0,0.7,0,1.1-0.1c0.3-0.1,0.5-0.5,0.6-0.9c0.1-0.2,0.1-0.6,0.4-0.6
	s0.3,0.2,0.3,0.4c0,0.5,0,1-0.1,1.5s0,1,0.1,1.5c0,0.2-0.1,0.5-0.3,0.5c-0.6,0-0.2-1.7-1.5-1.7h-0.5c-0.4,0-0.4,0.3-0.4,0.7v2.2
	c0,1-0.1,1.4,0.7,1.6c0.2,0,0.4,0.1,0.4,0.4s-0.1,0.3-0.3,0.3c-0.7,0-1.3-0.1-1.9-0.1s-1.2,0.1-1.8,0.1c-0.2,0-0.3-0.1-0.3-0.3
	c0-0.2,0.1-0.4,0.3-0.4c0.8-0.2,0.8-0.5,0.8-1.6v-6.1c0-1,0.1-1.5-0.8-1.7c-0.2,0-0.4,0-0.4-0.3s0.1-0.3,0.3-0.3
	c1.2,0,2.3,0.1,3.5,0.1c0.8,0,1.6-0.1,2.4-0.1c0.3,0,0.4,0,0.4,0.5v1.7c0,0.2-0.1,0.5-0.3,0.5s-0.4-0.4-0.5-0.7
	c-0.1-0.4-0.3-0.7-0.6-0.9c-0.4-0.2-0.8-0.3-1.2-0.2c-0.2,0-0.6,0-0.7,0.1s-0.1,0.4-0.1,0.6L70.2,110.6L70.2,110.6z"/>
<path class="st1" d="M74.1,113.4c-0.1-2.1,1.4-3.9,3.6-4.1c0.9,0,1.7,0.4,2.3,1c0.8,0.8,1.2,1.9,1.2,3c0,2.6-1.8,4.3-3.6,4.3
	S74.1,116,74.1,113.4L74.1,113.4z M79.1,113.7c0-0.9-0.1-1.7-0.4-2.5c-0.2-0.6-0.7-1.3-1.2-1.3c-1.1,0-1.4,1.9-1.4,3.1s0.4,4,1.7,4
	C78.9,117,79.1,114.8,79.1,113.7L79.1,113.7z"/>
<path class="st1" d="M81.7,113.4c-0.1-2.1,1.4-3.9,3.5-4.1c0.9,0,1.7,0.4,2.3,1c0.8,0.8,1.2,1.9,1.1,3c0,2.6-1.8,4.3-3.6,4.3
	S81.7,116,81.7,113.4L81.7,113.4z M86.7,113.7c0-0.9-0.1-1.7-0.4-2.5c-0.2-0.6-0.7-1.3-1.2-1.3c-1.1,0-1.4,1.9-1.4,3.1s0.4,4,1.7,4
	C86.4,117,86.7,114.8,86.7,113.7L86.7,113.7z"/>
<path class="st1" d="M95.6,115.3c0,0.2-0.1,0.7,0.1,0.7s0.4-0.6,0.6-0.6s0.2,0.3,0.2,0.4c0,0.6,0,0.5-0.3,0.7l-1.7,0.8
	c-0.2,0.1-0.3,0.2-0.5,0.2c-0.2,0-0.2-0.2-0.3-0.4v-0.4c0-0.1,0-0.2-0.1-0.2s-0.7,1-1.8,1c-1.6,0-2.7-1.8-2.7-4
	c0-2.5,1.5-4.3,3.3-4.3c0.3,0,0.5,0,0.7,0.1c0.1,0.1,0.3,0.1,0.4,0.1V108c0-0.7,0.1-1.2-0.5-1.2c-0.2,0-0.4,0-0.4-0.3
	s0.5-0.4,0.7-0.4c0.6-0.1,1.2-0.4,1.7-0.8c0.1-0.1,0.1-0.1,0.2-0.1c0.3,0,0.3,0.5,0.3,0.7L95.6,115.3L95.6,115.3z M93.6,112.2
	c0-0.5,0-1.1-0.1-1.6c-0.1-0.3-0.4-0.6-0.8-0.6c-1.1,0-1.5,1.9-1.5,3.1s0.5,3.1,1.7,3.1c0.3,0,0.5-0.1,0.7-0.3L93.6,112.2
	L93.6,112.2z"/>
<path class="st1" d="M108,115.7c0,0.6,0,0.8-0.4,1.1c-0.7,0.5-1.5,0.8-2.4,0.8c-1.2,0-2.4-0.4-3.3-1.3c-1-1.2-1.6-2.7-1.6-4.3
	c0-1.6,0.6-3.1,1.6-4.3c0.9-0.9,2.2-1.4,3.5-1.4c0.6,0,1.3,0.1,1.9,0.4c0.3,0.1,0.3,0.2,0.4,0.7l0.1,0.9c0,0.2,0,0.3,0.1,0.5
	c0,0.2-0.1,0.3-0.2,0.3c-0.6,0-0.6-2.1-2.3-2.1c-0.9,0.1-1.7,0.7-2.1,1.6c-0.5,1-0.7,2.2-0.7,3.4c0,1.1,0.2,2.3,0.6,3.3
	c0.3,0.9,1.1,1.6,2.1,1.7c0.5,0,1-0.3,1.3-0.7c0.4-0.5,0.6-1,0.8-1.6c0.1-0.2,0.1-0.4,0.3-0.4s0.3,0.4,0.3,0.7L108,115.7L108,115.7z
	"/>
<path class="st1" d="M111,112.6c-0.3,0-0.4-0.1-0.4,0.4c0,1.7,0.8,3.3,2.2,3.3c1,0,1.4-0.9,1.7-0.9c0.1,0,0.2,0.1,0.2,0.3
	c0,0.3-0.5,0.8-0.6,1c-0.6,0.5-1.3,0.9-2.1,0.9c-1.8,0-3.3-1.8-3.3-4.2s1.7-4,3.4-4c0.7,0,1.4,0.3,1.9,0.8c0.5,0.5,0.8,1.1,0.8,1.8
	c0,0.6-0.3,0.7-0.7,0.7L111,112.6L111,112.6z M112.4,111.8c0.3-0.1,0.5-0.4,0.5-0.9c0-0.6-0.3-1.1-0.8-1.1c-0.4,0-0.8,0.3-1,0.6
	c-0.2,0.4-0.3,0.8-0.4,1.2c0,0.3,0.2,0.3,0.4,0.3C111.5,112,112,111.9,112.4,111.8L112.4,111.8z"/>
<path class="st1" d="M118,110.5c0.2,0,0.8-1.2,2.1-1.2c0.6,0,1.2,0.3,1.6,0.7c0.4,0.6,0.6,1.4,0.5,2.2v2.9c0,0.5,0,0.9,0.1,1.4
	c0.1,0.2,0.4,0.2,0.6,0.3c0.2,0,0.3,0.2,0.3,0.4c0,0.3-0.2,0.3-0.4,0.3c-0.4,0-0.9,0-1.3,0s-1.2,0-1.7,0c-0.1,0-0.3-0.1-0.3-0.3
	c0-0.2,0.1-0.3,0.3-0.4c0.2,0,0.4-0.2,0.5-0.4c0.1-0.4,0.1-0.9,0.1-1.3v-2.5c0-0.5-0.1-1-0.2-1.5c-0.1-0.4-0.5-0.6-0.9-0.6
	c-0.4,0-0.7,0.2-0.9,0.5c-0.3,0.4-0.3,0.8-0.3,1.4v2.8c0,0.4,0,0.9,0.1,1.3c0.1,0.2,0.3,0.3,0.5,0.4c0.2,0.1,0.3,0.2,0.3,0.4
	c0,0.3-0.1,0.3-0.3,0.3c-0.6,0-1.1,0-1.7,0s-0.9,0-1.3,0c-0.2,0-0.4,0-0.4-0.3c0-0.2,0.1-0.3,0.3-0.4c0.2-0.1,0.5-0.1,0.6-0.3
	c0.1-0.4,0.2-0.9,0.1-1.4v-2.5c0-0.7,0-1.1-0.6-1.2c-0.2,0-0.4,0-0.4-0.3s0.4-0.4,0.5-0.4c0.6-0.2,1.2-0.6,1.6-1.2
	c0.1-0.2,0.3-0.3,0.4-0.3c0.2,0,0.2,0.4,0.2,0.6L118,110.5L118,110.5z"/>
<path class="st1" d="M125.9,113.9c0,0.6-0.1,2.3,0.6,2.3c0.4,0,0.7-0.5,0.9-0.5s0.1,0.1,0.1,0.2c-0.1,0.3-0.2,0.5-0.4,0.7
	c-0.4,0.5-1,0.8-1.6,0.9c-0.5,0-0.9-0.3-1.2-0.7c-0.3-0.6-0.4-1.3-0.4-1.9v-3.6c0-0.2,0-0.5,0-0.7c0-0.1-0.2-0.2-0.3-0.2
	c-0.2,0-0.6,0.1-0.6-0.2s0.3-0.4,0.4-0.5c0.8-0.4,1.3-1.1,1.7-1.9c0.1-0.2,0.2-0.6,0.4-0.6s0.2,0.4,0.2,0.6v1.2
	c0,0.5,0.1,0.5,0.4,0.5h0.6c0.3,0,0.4-0.1,0.4,0.3s-0.1,0.5-0.4,0.5h-0.6c-0.4,0-0.4,0-0.4,0.7L125.9,113.9L125.9,113.9z"/>
<path class="st1" d="M130,112.6c-0.3,0-0.4-0.1-0.4,0.4c0,1.7,0.8,3.3,2.2,3.3c1,0,1.4-0.9,1.7-0.9c0.1,0,0.2,0.1,0.2,0.3
	c0,0.3-0.5,0.8-0.6,1c-0.6,0.5-1.3,0.9-2.1,0.9c-1.8,0-3.3-1.8-3.3-4.2s1.7-4,3.4-4c0.7,0,1.4,0.3,1.9,0.8c0.5,0.5,0.8,1.1,0.8,1.8
	c0,0.6-0.3,0.7-0.7,0.7L130,112.6L130,112.6z M131.5,111.8c0.3-0.1,0.5-0.4,0.5-0.9c0-0.6-0.3-1.1-0.8-1.1c-0.4,0-0.8,0.3-1,0.6
	c-0.2,0.4-0.3,0.8-0.4,1.2c0,0.3,0.2,0.3,0.4,0.3C130.6,112,131.1,111.9,131.5,111.8L131.5,111.8z"/>
<path class="st1" d="M137,110.6c0.2,0,0.7-1.3,1.8-1.3c0.7,0.1,1.1,0.7,1.1,1.3c0,0.8-0.5,1.4-1,1.4c-0.8,0-0.9-1-1.3-1
	c-0.6,0-0.5,1.8-0.5,2.3v1.7c0,0.5,0,0.9,0,1.4c0.1,0.3,0.4,0.2,0.7,0.3c0.2,0,0.3,0.2,0.3,0.4c0,0.3-0.2,0.3-0.4,0.3
	c-0.5,0-1.1,0-1.6,0s-1,0-1.6,0c-0.2,0-0.4,0-0.4-0.3c0-0.2,0.1-0.3,0.3-0.4c0.2,0,0.6-0.1,0.6-0.3c0.1-0.5,0.1-0.9,0.1-1.4v-2.5
	c0-0.7,0-1.1-0.6-1.2c-0.2,0-0.4,0-0.4-0.3s0.4-0.4,0.5-0.4c0.6-0.2,1.2-0.6,1.6-1.2c0.1-0.2,0.3-0.3,0.4-0.3c0.2,0,0.2,0.4,0.2,0.6
	L137,110.6L137,110.6z"/>
<path class="st1" d="M140,115.4c0-0.3,0-0.6,0.3-0.6c0.6,0,0.4,2.1,2,2.1c0.6,0,1.2-0.5,1.2-1.1c0-0.6-0.4-1.1-1-1.3
	c-0.9-0.4-2.5-1-2.5-2.6c0-1.4,1.1-2.6,2.5-2.6c0,0,0,0,0,0c0.6,0,1.2,0.1,1.7,0.3c0.3,0.1,0.4,0.2,0.4,0.7v0.4c0,0.2,0,0.8-0.3,0.8
	s-0.3-0.3-0.4-0.4c-0.4-0.7-0.6-1.2-1.3-1.2c-0.5,0-1,0.3-1,0.8c0,0,0,0.1,0,0.1c0,0.6,0.6,0.9,0.9,1l0.7,0.3
	c1.1,0.3,1.8,1.3,1.8,2.4c0,0.9-0.3,1.7-0.9,2.3c-0.5,0.5-1.3,0.7-2,0.7c-0.6,0-1.2-0.2-1.8-0.5c-0.3-0.2-0.3-0.4-0.3-0.9L140,115.4
	L140,115.4z"/>
<path class="st1" d="M142.2,81h1.1c-1.5,8.4-10.6,11.6-16.6,11.1c-6.4-0.5-15.6-3.4-15.5-17.3c0.1-14.7,15.3-19.4,22-14.3
	c2,1.5,2.9,1.7,4,0.9c1.1-0.7,2-1.5,2.9-2.5h3.5l0.4,0.3V71l-0.4,0.3h-3.7l-0.4-0.3c-3.8-8.5-7.4-11-10.9-10.5
	c-5.5,0.9-7.8,5.5-7.8,14.2s2.1,14,9.2,15.2C133.4,90.5,140.6,88,142.2,81L142.2,81z"/>
<path class="st1" d="M73.6,58.9h35.1l0.4,0.4v11.5l-0.4,0.3h-3.2l-0.4-0.3c0,0-4.7-10.8-7.2-10.8H92c-2.1,0-2.3,0.2-2.3,2.9v10.4
	l0.3,0.3c0,0,1.4,0.1,2.2,0.1c2.8,0,5.1-6.4,5.1-6.4l0.6-0.3h3.3l0.4,0.3v13.4l-0.4,0.3h-3.3l-0.6-0.3c0,0-2.2-5.9-5.1-5.9
	c-0.7,0-1.5,0.1-2.2,0.1l-0.3,0.3V87c0,1.5,1,3.6,3,3.6h1.9v1.1H73.6v-1.1h2.6c1.7,0,2.9-1.9,2.9-3.3V63c0-2.6-0.1-2.7-2.1-2.8
	L73.6,60L73.6,58.9L73.6,58.9z"/>
<path class="st1" d="M21.7,33.2c-1.1,0-2-0.9-2-2s0.9-2,2-2c1.1,0,2,0.9,2,2c0,0.5-0.2,1-0.5,1.4c2.1,3.8,7.2,1.4,5.7-3
	c-1.1-0.1-1.9-1-1.8-2.2c0.1-1.1,1-1.9,2.2-1.8c1.1,0.1,1.9,1,1.8,2.2c0,0.6-0.4,1.1-0.8,1.5c1.6,4.4,7.6,2.3,6.5-2.3
	c-1.1-0.3-1.7-1.3-1.5-2.4c0.3-1.1,1.3-1.7,2.4-1.5c1.1,0.3,1.7,1.3,1.5,2.4c-0.1,0.6-0.5,1-1,1.3c0.2,4.8,6.6,4.4,6.4-0.8
	c-1-0.4-1.5-1.6-1.1-2.6c0.4-1,1.6-1.5,2.6-1.1s1.5,1.6,1.1,2.6c-0.2,0.5-0.6,0.9-1.1,1.1c-0.1,5.2,6.2,5.6,6.4,0.8
	c-1-0.6-1.3-1.8-0.7-2.7s1.8-1.3,2.7-0.7c1,0.6,1.3,1.8,0.7,2.7c-0.3,0.5-0.8,0.8-1.3,0.9c-1.1,4.6,4.9,6.7,6.5,2.2
	c-0.9-0.6-1.1-1.9-0.5-2.8c0.6-0.9,1.9-1.1,2.8-0.5c0.9,0.6,1.1,1.9,0.5,2.8c-0.3,0.5-0.9,0.8-1.5,0.9c-1.5,4.4,3.6,6.9,5.7,3
	c-0.7-0.8-0.7-2.1,0.2-2.8c0.8-0.7,2.1-0.7,2.8,0.2s0.7,2.1-0.2,2.8c-0.5,0.4-1.1,0.6-1.7,0.5c-1,1.9-4.6,8.4-6.1,11.1
	c-9-6.9-25.3-6.9-34.2,0c-1.5-2.6-5-9.1-6.1-11C21.9,33.1,21.8,33.1,21.7,33.2L21.7,33.2z"/>
<path class="st1" d="M33,67.9c0,14.8,6.2,19.8,6.2,19.8c5.9-2,8.9-2.3,13.4-1.1c0,0,5.8-6.9,5.8-18.7C58.4,36.7,33,36.7,33,67.9
	L33,67.9z M71.7,67.9c0,17.4-11.7,22.8-11.7,22.8c4.1,3,7.2,1.1,11.5-3c0.3,1.9,0.7,14.9-10.8,14.9c-5,0-8.9-5.1-11.2-8.7
	c-10.8,1.1-30.3-2.6-30.3-26C19.1,33.4,71.7,33.4,71.7,67.9L71.7,67.9z M45.3,92.3c1,0,2-0.4,2.8-1.1c0,0-1.9-2.2-4.2-2.2
	c-1,0-2,0.2-2.9,0.6C41,89.5,43.3,92.3,45.3,92.3L45.3,92.3z"/>
<path class="st1" d="M143.8,88.6c1,0,1.8,0.8,1.8,1.8c0,1-0.8,1.8-1.8,1.8c-1,0-1.8-0.8-1.8-1.8c0,0,0,0,0,0
	C142.1,89.4,142.8,88.6,143.8,88.6C143.8,88.6,143.8,88.6,143.8,88.6z M143.8,88.8c-0.8,0-1.5,0.7-1.5,1.5s0.7,1.5,1.5,1.5
	s1.5-0.7,1.5-1.5S144.7,88.8,143.8,88.8L143.8,88.8z M143.5,91.4h-0.3v-2c0.2,0,0.4,0,0.6,0c0.2,0,0.4,0,0.6,0.1
	c0.1,0.1,0.2,0.3,0.2,0.4c0,0.2-0.2,0.4-0.4,0.5l0,0c0.2,0,0.3,0.2,0.3,0.5c0,0.2,0.1,0.3,0.1,0.5h-0.3c-0.1-0.2-0.1-0.3-0.1-0.5
	c0-0.2-0.2-0.4-0.4-0.4c0,0,0,0,0,0h-0.2L143.5,91.4L143.5,91.4z M143.5,90.3h0.2c0.3,0,0.5-0.1,0.5-0.3s-0.1-0.4-0.5-0.4h-0.2V90.3
	z"/>
</svg>
