<?xml version="1.0" encoding="utf-8"?>
<!-- Generator: Adobe Illustrator 21.1.0, SVG Export Plug-In . SVG Version: 6.00 Build 0)  -->
<svg version="1.1" id="Layer_1" xmlns="http://www.w3.org/2000/svg" xmlns:xlink="http://www.w3.org/1999/xlink" x="0px" y="0px"
	 viewBox="0 0 137.7 151" style="enable-background:new 0 0 137.7 151;" xml:space="preserve">
<style type="text/css">
	.st0{fill:#EF091D;}
	.st1{fill:#020101;}
	.st2{fill:#FEFDFD;}
</style>
<title>CR</title>
<path class="st0" d="M0.5,98.4V12.9c0,0,0.1,0,0.1,0c0.2-1.5,0.6-3,1.3-4.4c0.9-2,2.3-3.7,4.1-5.1c1.8-1.4,3.8-2.3,6-2.7
	c0.1,0,0.3,0,0.3-0.2h112.7c0.4,0.3,0.8,0.2,1.2,0.3c3.6,0.7,6.8,2.8,8.8,5.9c1,1.4,1.7,3.1,2,4.8c0.1,0.6,0.2,1.3,0.3,1.9v84.5
	c-0.1,0-0.1,0.1-0.1,0.1c-0.1,0.9-0.2,1.9-0.5,2.8c-0.7,2.5-2.1,4.8-4.1,6.5c-2.5,2.1-5.7,3.3-9,3.2H16.4c-1.2,0-2.3,0-3.5,0
	c-1.6-0.1-3.3-0.5-4.7-1.2c-2-0.9-3.7-2.4-5-4.2c-0.9-1.4-1.6-2.8-2.1-4.4C0.8,99.9,0.8,99.1,0.5,98.4z M113.3,17.9
	c-0.2,0-0.3,0-0.5,0H72.1c-0.4,0-0.5,0.1-0.5,0.5c0,3,0,5.9,0,8.9c0,0.3,0,0.6,0,0.9c-0.1-0.1-0.2-0.1-0.2-0.2
	c-1.1-1.4-2.3-2.6-3.5-3.8c-1-0.9-2-1.7-3.1-2.4c-4.4-3.1-9.6-5-15-5.5c-2.9-0.3-5.9-0.1-8.8,0.4c-4.1,0.8-7.9,2.4-11.3,4.8
	c-1.9,1.4-3.7,3-5.3,4.8c-2,2.3-3.7,4.8-5,7.6c-1.1,2.2-2,4.6-2.6,7c-0.6,2.1-1,4.3-1.2,6.4c-0.3,2.8-0.3,5.6-0.1,8.3
	c0.1,1.3,0.3,2.6,0.5,3.8c0.3,1.8,0.7,3.6,1.4,5.3c0.5,1.3,0.9,2.7,1.6,4c0.7,1.4,1.5,2.8,2.3,4.1c1.1,1.7,2.3,3.2,3.6,4.7
	c1.2,1.3,2.5,2.5,3.9,3.6c-0.1,0.2,0.1,0.3,0.2,0.4c1.6,1.7,3.3,3.1,5,4.7c0.9,0.9,2,1.6,3,2.4c1.2,0.9,2.4,1.8,3.7,2.6
	c1.3,0.8,2.6,1.5,3.9,2.1c1.3,0.6,2.7,1.2,4.2,1.6c1.3,0.4,2.7,0.7,4.1,0.9c1.4,0.2,2.8,0.4,4.3,0.4c1.3,0,2.6,0,3.8-0.2
	c1.1-0.1,2.2-0.3,3.2-0.6c1.5-0.4,2.9-0.8,4.3-1.4c2.2-0.9,4.2-2.1,6.2-3.3c0.1,0,0.1,0.1,0.2,0.1l2.3,2.2c1.3,1.2,2.5,2.5,3.7,3.7
	c1.8,1.7,3.6,3.5,5.4,5.2c0.4,0.4,0.5,0.4,0.9,0c0.6-0.7,1.4-1.4,2-2.1c2-2,4-4,5.9-6.1c0.2-0.2,0.4-0.2,0.6-0.2h15.1
	c0.2,0,0.3-0.1,0.3-0.3c0-0.5,0.1-0.9,0.1-1.4c0-17,0-34,0-51c0-0.4,0-0.8-0.1-1.2s0.1-0.4,0.4-0.4h11.7c0.3,0,0.4-0.1,0.4-0.4
	c0-0.7,0-1.4,0-2.1c0-3.3,0-6.5,0-9.8c0-0.2,0.1-0.3-0.1-0.5l-2.8-2.4l-5-4.4C114.9,19.2,114.1,18.6,113.3,17.9z"/>
<path class="st1" d="M106.6,150.5c0-0.1,0-0.3,0-0.4c0-3.4,0-6.9,0-10.3c0-4.5,0-9,0-13.6c0-0.4,0.1-0.5,0.5-0.5c1.4,0,2.8,0,4.2,0
	c0.3,0,0.4,0.1,0.4,0.4s0,0.8,0,1.3c0.3-0.4,0.6-0.6,0.9-0.9c3-2.6,7.5-2.2,10.1,0.8c0.2,0.2,0.3,0.4,0.4,0.6c1,1.3,1.6,2.9,1.9,4.5
	c0.5,2.5,0.3,5.1-0.8,7.4c-0.4,0.8-0.9,1.6-1.4,2.3c-1,1.3-2.5,2.3-4.1,2.6c-1.4,0.3-3,0.2-4.3-0.4c-1-0.4-1.9-1.1-2.5-2
	c-0.1,2.8,0,5.4-0.1,8.1L106.6,150.5z M120.3,134.9c0.1-1.9-0.6-3.8-2-5.1c-0.9-0.9-2.3-1.2-3.5-0.8c-1.5,0.6-2.7,2-3,3.6
	c-0.5,1.6-0.5,3.3,0.1,4.8c0.3,1.2,1,2.2,2,2.9c1.9,1.3,3.9,0.6,5.1-1.1C119.9,137.9,120.4,136.4,120.3,134.9z"/>
<path class="st2" d="M77.1,93.2L74.8,91c-0.1-0.1-0.1-0.1-0.2-0.1c0-0.1-0.1-0.2-0.2-0.3l-2.3-2.2c-2.3-2.3-4.7-4.5-7-6.8
	c-0.3-0.3-0.4-0.2-0.7,0c-1.1,0.8-2.3,1.5-3.5,2.1c-1.8,1-3.8,1.8-5.8,2.3c-2,0.6-4.1,0.9-6.1,1.1c-1.6,0.1-3.3,0.1-4.9,0
	c-2.2-0.2-4.4-0.6-6.6-1.4c-1.9-0.6-3.6-1.4-5.3-2.4c-1.2-0.7-2.3-1.5-3.5-2.3c-1.4-1.1-2.7-2.4-3.9-3.7c-1.3-1.4-2.5-3-3.6-4.7
	c-0.9-1.3-1.7-2.7-2.4-4.1c-0.6-1.3-1-2.7-1.6-4c-0.6-1.7-1.1-3.5-1.3-5.3c-0.2-1.3-0.4-2.5-0.5-3.8c-0.2-2.8-0.2-5.6,0.1-8.3
	c0.2-2.2,0.7-4.3,1.2-6.4c0.6-2.4,1.5-4.8,2.6-7c1.3-2.7,3-5.3,5-7.6c1.6-1.8,3.3-3.4,5.3-4.8c3.4-2.4,7.2-4.1,11.3-4.8
	c2.9-0.5,5.9-0.7,8.8-0.4c5.4,0.4,10.6,2.3,15,5.5c1.1,0.7,2.1,1.5,3.1,2.4c1.3,1.2,2.5,2.4,3.6,3.8c0.1,0.1,0.1,0.1,0.2,0.2
	c0-0.3,0-0.6,0-0.9c0-3,0-5.9,0-8.9c0-0.4,0.1-0.5,0.5-0.5h40.8c0.2,0,0.3,0,0.5,0c0,0.2,0,0.3,0,0.5c0,3.8,0,7.5,0,11.3
	c0,0.4-0.1,0.5-0.5,0.5h-11.6c-0.4,0-0.4,0.1-0.4,0.4c0,17.8,0,35.6,0,53.4c0,0.5-0.1,0.5-0.6,0.5c-4.8,0-9.6,0-14.4,0
	c-0.3,0-0.5,0.1-0.7,0.3c-0.4,0.5-0.9,0.9-1.3,1.4C81.7,88.5,79.4,90.8,77.1,93.2z M43.5,74.7c0,0.1,0.1,0.1,0.2,0.1
	c0,0,0.1,0.1,0.1,0.1c2,0.6,4.2,0.7,6.2,0.3c2-0.4,3.7-1.4,5.2-2.8c0.2-0.2,0.2-0.2,0-0.4c-0.5-0.4-0.9-0.9-1.4-1.3
	c-1.9-1.8-3.8-3.6-5.7-5.4c-0.3-0.2-0.3-0.4,0-0.6c1.3-1.3,2.6-2.6,3.9-3.9s2.6-2.7,4.1-4.3c0.2-0.2,0.3-0.3,0.5,0
	c1.3,1.2,2.5,2.4,3.8,3.7l1.6,1.6c0.3-0.6,0.4-1.3,0.6-2c0.2-0.9,0.4-1.7,0.6-2.6c0.2-1.4,0.3-2.7,0.3-4.1c0.2-3.8-0.3-7.6-1.4-11.2
	c-0.6-1.9-1.4-3.7-2.4-5.4c-0.7-1.2-1.5-2.4-2.4-3.4c-1.3-1.5-2.9-2.8-4.7-3.7c-1.8-0.9-3.8-1.3-5.8-1.3c-2.4,0.1-4.7,0.9-6.6,2.4
	c-1.6,1.2-3,2.6-4.1,4.3c-1,1.5-1.9,3.1-2.6,4.8c-0.6,1.5-1.1,3.1-1.5,4.7c-0.2,0.8-0.3,1.7-0.5,2.5c-0.2,1.3-0.3,2.6-0.4,3.9
	c0,1.2,0,2.4,0.1,3.5c0.1,1.4,0.3,2.9,0.6,4.3c0.4,1.8,0.9,3.5,1.5,5.2c0.6,1.5,1.3,3,2.2,4.4c0.8,1.3,1.8,2.5,2.9,3.6
	c1.2,1.2,2.7,2.2,4.3,2.9C43,74.6,43.3,74.7,43.5,74.7L43.5,74.7z M85.5,84.4c0-0.2,0-0.4,0-0.5c0-17.8,0-35.5,0-53.3
	c0-0.4-0.1-0.4-0.4-0.4H73.5c-0.1,0-0.2-0.1-0.3,0.1c0.9,1.4,1.6,2.9,2.3,4.4c1.2,2.6,2.2,5.2,2.8,8c0.4,1.6,0.7,3.3,0.9,4.9
	c0.1,1,0.2,1.9,0.2,2.9c0,1.8,0,3.7-0.1,5.6c-0.1,2-0.4,4-0.9,5.9c-0.3,1.2-0.6,2.3-1.1,3.4c-1,2.5-2.4,4.8-4.1,6.9
	c-0.1,0.2-0.1,0.2,0,0.4c0.7,0.7,1.4,1.4,2.1,2l7.2,6.9L85.5,84.4z"/>
<path class="st1" d="M77.1,93.2c2.3-2.4,4.6-4.7,6.8-7.1c0.4-0.5,0.9-0.9,1.3-1.4c0.2-0.2,0.4-0.3,0.7-0.3c4.8,0,9.6,0,14.4,0
	c0.4,0,0.6-0.1,0.6-0.5c0-17.8,0-35.6,0-53.3c0-0.4,0.1-0.4,0.4-0.4h11.6c0.4,0,0.5-0.1,0.5-0.5c0-3.8,0-7.5,0-11.3
	c0-0.2,0-0.3,0-0.5c0.8,0.7,1.6,1.3,2.3,2l5,4.4l2.8,2.4c0.2,0.1,0.1,0.3,0.1,0.5c0,3.3,0,6.5,0,9.8c0,0.7,0,1.4,0,2.1
	c0,0.3-0.1,0.4-0.4,0.4h-11.7c-0.3,0-0.4,0.1-0.4,0.4s0.1,0.8,0.1,1.2c0,17,0,34,0,51c0,0.5,0,0.9-0.1,1.4c0,0.2-0.1,0.3-0.3,0.3
	H95.7c-0.2,0-0.5,0-0.6,0.2c-1.9,2-3.9,4-5.9,6.1c-0.7,0.7-1.4,1.4-2,2.1c-0.3,0.4-0.4,0.4-0.9,0c-1.9-1.7-3.6-3.5-5.4-5.2
	C79.6,95.7,78.4,94.4,77.1,93.2z"/>
<path class="st1" d="M28.7,81.1c1.2,0.8,2.3,1.6,3.5,2.3c1.7,0.9,3.5,1.7,5.3,2.4c2.1,0.7,4.3,1.2,6.6,1.4c1.6,0.1,3.3,0.1,4.9,0
	c2.1-0.2,4.1-0.5,6.1-1.1c2-0.6,3.9-1.3,5.8-2.3c1.2-0.6,2.4-1.3,3.5-2.1c0.3-0.2,0.4-0.2,0.7,0c2.3,2.3,4.7,4.5,7,6.8l2.3,2.2
	c0.1,0.1,0.2,0.1,0.2,0.3c-2,1.3-4.1,2.4-6.2,3.3c-1.4,0.6-2.9,1.1-4.3,1.4c-1.1,0.3-2.1,0.5-3.2,0.6c-1.3,0.2-2.6,0.3-3.8,0.2
	c-1.4,0-2.9-0.2-4.3-0.4c-1.4-0.2-2.7-0.5-4.1-0.9c-1.4-0.4-2.8-1-4.2-1.6c-1.4-0.6-2.7-1.3-3.9-2.1c-1.2-0.8-2.4-1.6-3.6-2.5
	c-1-0.8-2-1.5-3-2.4c-1.7-1.6-3.4-3-5-4.7C28.8,81.4,28.7,81.3,28.7,81.1z"/>
<path class="st1" d="M12.1,131c0.1-0.8,0-1.8,0.3-2.9c0.4-2.2,1.3-4.3,2.6-6.1c1.4-2,3.4-3.5,5.7-4.4c2.1-0.8,4.4-0.9,6.6-0.3
	c2,0.5,3.8,1.5,5.3,2.9c0.8,0.8,1.5,1.6,2.1,2.5c0.9,1.4,1.6,2.9,1.9,4.6c0.5,2,0.5,4.1,0.2,6.2c-0.3,1.6-0.8,3.1-1.6,4.6
	c-0.4,0.7-0.8,1.3-1.3,1.9c-0.2,0.2-0.2,0.3,0,0.4c0.8,0.8,1.5,1.5,2.3,2.3c0.2,0.2,0.2,0.3,0,0.5c-0.8,0.8-1.6,1.5-2.3,2.3
	c-0.2,0.2-0.3,0.2-0.6,0c-0.8-0.8-1.6-1.6-2.3-2.4c-0.1-0.2-0.4-0.2-0.5-0.1c0,0,0,0,0,0c-2.9,1.8-6.6,2.1-9.8,0.9
	c-1.4-0.5-2.6-1.3-3.7-2.3c-1.7-1.4-2.9-3.3-3.7-5.3C12.5,134.7,12.1,132.9,12.1,131z M31.7,130.4c-0.1-1.6-0.5-3.2-1.2-4.7
	c-0.3-0.7-0.7-1.3-1.1-1.8c-0.7-1-1.7-1.7-2.8-2.1c-2.5-0.9-5.3-0.1-6.9,2.1c-1.4,1.8-2.2,3.9-2.4,6.2c-0.2,2.1,0.2,4.2,1.2,6.1
	c0.7,1.5,1.9,2.7,3.3,3.6c1.6,0.9,3.6,1,5.2,0.2c0.3-0.1,0.3-0.2,0.1-0.4c-0.6-0.6-1.1-1.1-1.7-1.7c-0.2-0.2-0.2-0.3,0-0.4
	c0.8-0.8,1.6-1.6,2.4-2.4c0.2-0.2,0.3-0.2,0.5,0c0.5,0.5,0.9,1,1.4,1.4s0.4,0.7,0.9-0.1C31.4,134.4,31.8,132.4,31.7,130.4z"/>
<path class="st1" d="M67.4,132.3c1.2-1.1,2.3-2.2,3.5-3.4c1-0.9,1.9-1.9,2.9-2.9c0.1-0.1,0.3-0.2,0.5-0.2h5.5c0.1,0.1,0,0.1-0.1,0.2
	c-2.2,2.2-4.4,4.3-6.6,6.5c-0.2,0.2-0.2,0.2-0.1,0.4c1.2,1.8,2.4,3.7,3.6,5.5l3.9,5.8c-0.1,0.1-0.3,0.1-0.4,0.1c-1.7,0-3.4,0-5.2,0
	c-0.3,0-0.5-0.1-0.6-0.4c-1.6-2.6-3.1-5.1-4.7-7.7c-0.1-0.2-0.2-0.3-0.4-0.1c-0.5,0.5-1,1-1.6,1.5c-0.2,0.1-0.2,0.3-0.2,0.6
	c0,1.9,0,3.8,0,5.6c0,0.3-0.1,0.4-0.4,0.4c-1.3,0-2.7,0-4.1,0c-0.3,0-0.4-0.1-0.4-0.4c0-8.2,0-16.4,0-24.6c0-0.3,0.1-0.4,0.4-0.4
	c1.4,0,2.7,0,4.1,0c0.4,0,0.4,0.1,0.4,0.4c0,4.2,0,8.4,0,12.6C67.4,132.1,67.4,132.2,67.4,132.3z"/>
<path class="st1" d="M49.4,142.7c-0.7,0.5-1.4,1-2.1,1.4c-2.1,1.1-4.5,1-6.5-0.3c-1.9-1.1-3.1-3.2-3-5.4c0-4.1,0-8.1,0-12.2
	c0-0.3,0.1-0.4,0.4-0.4c1.3,0,2.6,0,4,0c0.4,0,0.5,0.1,0.5,0.5c0,3.8,0,7.6,0,11.4c-0.1,1.2,0.6,2.2,1.7,2.6c1.4,0.5,3,0.2,4.1-0.8
	c0.7-0.7,1-1.6,1-2.5c0-3.6,0-7.3,0-10.9c0-0.4,0.1-0.4,0.4-0.4c1.4,0,2.8,0,4.2,0c0.3,0,0.4,0.1,0.4,0.4c0,5.9,0,11.9,0,17.8
	c0,0.2,0,0.4-0.3,0.4c-1.4,0-2.8,0-4.2,0c-0.3,0-0.4-0.1-0.4-0.4S49.4,143.2,49.4,142.7z"/>
<path class="st1" d="M83.9,119c3.4,0,6.8,0,10.1,0c0.4,0,0.4,0.1,0.4,0.4c0,1.1,0,2.2,0,3.4c0,0.3-0.1,0.4-0.4,0.4
	c-2.4,0-4.8,0-7.2,0c-0.3,0-0.4,0.1-0.4,0.4c0,6.8,0,13.5,0,20.3c0,0.4-0.1,0.5-0.5,0.5c-1.5,0-3,0-4.4,0c-0.4,0-0.5-0.1-0.5-0.5
	c0-6.7,0-13.4,0-20.1c0-0.4-0.1-0.5-0.5-0.5c-2.3,0-4.5,0-6.8,0c-0.4,0-0.5-0.1-0.5-0.5c0-1.1,0-2.2,0-3.4c0-0.3,0.1-0.4,0.4-0.4
	C77.1,119,80.5,119,83.9,119z"/>
<path class="st1" d="M93.6,127.7c0.7-0.8,1.6-1.5,2.6-2c0.9-0.3,1.9-0.5,2.8-0.4c0.2,0,0.2,0.1,0.2,0.2c0,1.2,0,2.4,0,3.6
	c0,0.2-0.1,0.2-0.3,0.3c-0.4,0-0.9,0.1-1.3,0.1c-0.9,0.1-1.7,0.4-2.3,1c-0.8,0.6-1.3,1.4-1.7,2.3c-0.1,0.3-0.1,0.7-0.1,1
	c0,3.4,0,6.7,0,10.1c0,0.3-0.1,0.4-0.4,0.4c-1.4,0-2.8,0-4.2,0c-0.3,0-0.4-0.1-0.4-0.4c0-5.9,0-11.9,0-17.8c0-0.3,0.1-0.4,0.4-0.4
	c1.4,0,2.8,0,4.2,0c0.3,0,0.4,0.1,0.4,0.4C93.6,126.6,93.6,127.1,93.6,127.7z"/>
<path class="st1" d="M60.8,135.1c0,2.9,0,5.9,0,8.8c0,0.4-0.1,0.4-0.4,0.4c-1.3,0-2.7,0-4,0c-0.3,0-0.4-0.1-0.4-0.4
	c0-5.9,0-11.9,0-17.8c0-0.3,0.1-0.3,0.4-0.3c1.4,0,2.7,0,4.1,0c0.3,0,0.4,0.1,0.4,0.4C60.8,129.2,60.8,132.1,60.8,135.1z"/>
<path class="st1" d="M100,135.1c0-3,0-5.9,0-8.9c0-0.3,0.1-0.4,0.4-0.4c1.4,0,2.7,0,4,0c0.3,0,0.4,0.1,0.4,0.4c0,5.9,0,11.9,0,17.8
	c0,0.3-0.1,0.4-0.4,0.4c-1.4,0-2.7,0-4,0c-0.3,0-0.4-0.1-0.4-0.4C100,140.9,100,138,100,135.1L100,135.1z"/>
<path class="st1" d="M58.4,119c0.7,0,1.4,0,2.1,0c0.2,0,0.3,0.1,0.3,0.3c0,1.1,0,2.2,0,3.4c0,0.2-0.1,0.3-0.3,0.3
	c-1.4,0-2.8,0-4.2,0c-0.2,0-0.3-0.1-0.3-0.3c0-1.1,0-2.2,0-3.4c0-0.2,0.1-0.3,0.3-0.3C57,119,57.7,119,58.4,119z"/>
<path class="st1" d="M102.4,119c0.7,0,1.4,0,2.1,0c0.2,0,0.3,0.1,0.3,0.3c0,1.1,0,2.2,0,3.4c0,0.2-0.1,0.3-0.3,0.3
	c-1.4,0-2.8,0-4.2,0c-0.2,0-0.3,0-0.3-0.3c0-1.1,0-2.2,0-3.4c0-0.2,0.1-0.3,0.3-0.3C101,119,101.7,119,102.4,119z"/>
<path class="st1" d="M128.2,142.5c0,1-0.8,1.9-1.8,1.9c0,0,0,0,0,0c-1.1,0-1.9-0.9-1.9-1.9s0.9-1.9,1.9-1.9c1,0,1.8,0.8,1.9,1.8
	C128.2,142.4,128.2,142.5,128.2,142.5z M127.8,142.5c0.1-0.9-0.5-1.6-1.4-1.7c-0.9-0.1-1.6,0.5-1.7,1.4c0,0.1,0,0.2,0,0.2
	c0,0.9,0.6,1.6,1.5,1.6c0,0,0.1,0,0.1,0c0.8,0,1.5-0.6,1.6-1.4C127.9,142.6,127.9,142.5,127.8,142.5L127.8,142.5z"/>
<path class="st0" d="M59.7,36.3c1,1.7,1.8,3.5,2.4,5.4c1.1,3.6,1.5,7.4,1.4,11.2c-0.1,1.4-0.2,2.8-0.3,4.1c-0.1,0.9-0.3,1.7-0.6,2.6
	c-0.1,0.7-0.3,1.4-0.6,2l-1.6-1.6c-1.3-1.2-2.5-2.4-3.8-3.7c-0.2-0.2-0.3-0.1-0.5,0c-1.3,1.4-2.7,2.8-4.1,4.3
	c-1.4,1.4-2.7,2.7-3.9,3.9c-0.3,0.3-0.2,0.4,0,0.6c1.9,1.8,3.8,3.6,5.7,5.4c0.5,0.4,0.9,0.9,1.4,1.3c0.2,0.2,0.2,0.3,0,0.4
	c-1.4,1.4-3.2,2.3-5.2,2.8c-2.1,0.4-4.2,0.3-6.2-0.3c0,0-0.1,0-0.1-0.1c0-0.1-0.1-0.1-0.2-0.1l0,0c0.1-0.1,0.1-0.2,0-0.3
	c-0.5-1-0.9-2.1-1.3-3.2c-0.4-1-0.7-2-0.9-3.1c-0.3-1.6-0.6-3.2-0.8-4.8c-0.1-1.8-0.2-3.5-0.1-5.3c0.1-1.6,0.4-3.3,0.9-4.8
	c0.4-1.6,0.9-3.1,1.7-4.6c0.3-0.6,0.6-1.3,1-1.9c1.5-2.7,3.6-5,6.1-6.9c2.6-1.9,5.7-3.1,9-3.5C59.3,36.4,59.5,36.4,59.7,36.3z"/>
<path class="st1" d="M59.7,36.3c-0.2,0.1-0.4,0.1-0.7,0.1c-3.3,0.4-6.4,1.6-9,3.5c-2.5,1.8-4.6,4.2-6.1,6.9c-0.4,0.6-0.6,1.3-1,1.9
	c-0.7,1.4-1.3,3-1.7,4.6c-0.5,1.6-0.8,3.2-0.9,4.8c-0.1,1.8-0.1,3.5,0.1,5.3c0.2,1.6,0.5,3.2,0.8,4.8c0.2,1,0.5,2.1,0.9,3.1
	c0.4,1.1,0.8,2.2,1.3,3.2c0.1,0.1,0.1,0.2,0,0.3c-0.2,0-0.5-0.1-0.7-0.2c-1.6-0.7-3.1-1.7-4.3-2.9c-1.1-1.1-2.1-2.3-2.9-3.6
	c-0.9-1.4-1.6-2.9-2.2-4.4c-0.6-1.7-1.1-3.4-1.5-5.2c-0.3-1.4-0.5-2.8-0.6-4.3c-0.1-1.2-0.1-2.4-0.1-3.6c0-1.3,0.2-2.6,0.4-3.9
	c0.1-0.8,0.3-1.7,0.5-2.5c0.4-1.6,0.9-3.2,1.5-4.7c0.7-1.7,1.5-3.3,2.5-4.8c1.1-1.7,2.5-3.2,4.1-4.4c1.9-1.5,4.2-2.3,6.6-2.4
	c2,0,4,0.4,5.8,1.3c1.8,0.9,3.4,2.2,4.7,3.7C58.2,33.9,59,35.1,59.7,36.3z"/>
<path class="st1" d="M85.5,84.4l-2.9-2.8l-7.2-6.9c-0.7-0.7-1.4-1.4-2.1-2c-0.2-0.2-0.1-0.2,0-0.4c1.7-2.1,3-4.5,4.1-6.9
	c0.5-1.1,0.8-2.2,1.1-3.4c0.4-2,0.7-3.9,0.9-5.9c0.1-1.8,0.2-3.7,0.1-5.6c0-1-0.1-1.9-0.2-2.9c-0.2-1.7-0.5-3.3-0.9-4.9
	c-0.7-2.8-1.6-5.4-2.8-8c-0.7-1.5-1.5-3-2.3-4.4c0.1-0.1,0.2-0.1,0.3-0.1h11.5c0.4,0,0.4,0.1,0.4,0.4c0,17.8,0,35.5,0,53.3
	C85.5,84,85.5,84.2,85.5,84.4z"/>
<path class="st1" d="M43.5,74.7c0.1,0,0.1,0,0.2,0.1S43.5,74.8,43.5,74.7z"/>
<path class="st1" d="M127.2,143.5c-0.2,0.1-0.4,0.1-0.5-0.1s-0.3-0.4-0.4-0.6c-0.1-0.1-0.2-0.2-0.4-0.1c-0.2,0-0.1,0.2-0.1,0.3
	c0,0.2,0,0.3,0,0.5c0,0.1,0,0.2-0.2,0.2s-0.2-0.1-0.2-0.2c0-0.6,0-1.2,0-1.9c0-0.2,0.1-0.2,0.2-0.2c0.3,0,0.6,0,0.9,0.1
	c0.3,0,0.5,0.2,0.5,0.5c0.1,0.3-0.1,0.6-0.4,0.7c-0.2,0.1-0.2,0.1-0.1,0.3S127.1,143.3,127.2,143.5z M126.2,142.3
	c0.3,0,0.6,0,0.6-0.4s-0.4-0.2-0.7-0.3s-0.3,0.1-0.3,0.3S126,142.3,126.2,142.3L126.2,142.3z"/>
</svg>
