<?xml version="1.0" encoding="utf-8"?>
<!-- Generator: Adobe Illustrator 21.1.0, SVG Export Plug-In . SVG Version: 6.00 Build 0)  -->
<svg version="1.1" id="Layer_1" xmlns="http://www.w3.org/2000/svg" xmlns:xlink="http://www.w3.org/1999/xlink" x="0px" y="0px"
	 viewBox="0 0 201 47" style="enable-background:new 0 0 201 47;" xml:space="preserve">
<style type="text/css">
	.st0{fill:#C3161C;}
	.st1{fill:#EC1C24;}
	.st2{fill:#FFFFFF;}
	.st3{fill:#134B8D;}
</style>
<title>CR</title>
<g>
	<path class="st0" d="M90.4,43.9H51.2c-14.2,0-28.4,0-42.6,0c-0.7,0-1.3-0.1-1.9-0.3c-1.3-0.3-2.1-1.5-1.8-2.8c0,0,0-0.1,0-0.1
		c0.4-1.5,0.9-2.9,1.6-4.3c3.9-8.8,7.9-17.6,11.8-26.5c1.7-3.9,5-5.9,9-6.7c0.6-0.1,1.3-0.2,1.9-0.1h162.8c0.5,0,1.1,0,1.6,0.1
		c1.4,0.1,2.6,1.3,2.5,2.7c0,0.3-0.1,0.5-0.2,0.8c-0.4,1.3-0.9,2.5-1.4,3.7c-4,8.9-7.9,17.8-12,26.7c-1.8,4.2-5.9,6.8-10.4,6.7
		c-27.3,0.1-54.5,0-81.8,0L90.4,43.9z M49.1,22.7c0.4-0.1,0.6-0.2,0.9-0.3c2.8-0.9,5-3,6.1-5.7c0.8-2.3,0-4.2-2.3-4.9
		c-1.4-0.4-2.8-0.6-4.2-0.6c-3.3-0.1-6.5,0-9.8,0c-0.5-0.1-1,0.2-1.2,0.7C35.3,18,32,24.2,28.6,30.4c-0.4,0.8-0.8,1.6-1.3,2.5
		c0.4,0,0.6,0.1,0.8,0.1c1.9,0,3.8,0,5.7,0c0.5,0,0.9-0.2,1.1-0.6c1-1.6,1.9-3.2,2.6-4.9c0.5-1.7,2.2-2.6,3.9-2.2
		c1.9,0.2,2.5,1,1.7,2.7c-0.2,0.4-0.5,0.8-0.7,1.2c-0.4,0.7-0.7,1.5-1,2.2c-0.2,0.5-0.3,1.1-0.3,1.6h7c0.1-1.7,0.6-3.3,1.5-4.7
		c0.3-0.5,0.5-1,0.7-1.5C51.2,24.3,50.5,23.7,49.1,22.7z M113.8,16.9l-8.6,16c0.4,0,0.6,0.1,0.9,0.1c1.7,0,3.4,0,5.1,0
		c0.6,0.1,1.1-0.3,1.3-0.8c2.6-4.9,5.3-9.7,7.9-14.6c0.2-0.4,0.6-0.7,1.1-0.7c1.5,0,2.9,0,4.4,0c0.4,0,0.8-0.2,1-0.6
		c0.8-1.5,1.7-3,2.5-4.4c0.1-0.2,0.2-0.4,0.2-0.6c-0.2,0-0.4-0.1-0.6-0.1l-17-0.1c-0.4,0-0.7,0.2-0.9,0.5c-0.9,1.5-1.7,3.1-2.6,4.6
		c-0.1,0.2-0.2,0.4-0.3,0.6H113.8z M134.4,22.1c1.6,0,3.1,0,4.6,0c0.4,0,0.9-0.2,1.2-0.5c0.8-0.9,1.9-1.5,3.1-1.5
		c0.8,0,1,0.4,0.8,1.1c-0.3,0.8-1.1,1.4-2,1.5c-1.7,0.3-3.5,0.3-5.2,0.6c-3.5,0.5-6.4,2.9-7.4,6.3c-0.6,1.3,0,2.8,1.3,3.4
		c0.4,0.2,0.7,0.2,1.1,0.2c2.2,0.2,4.3-0.2,6.2-1.3l0.6-0.3l-0.4,1.2c2.1,0,4,0,5.9,0c0.1,0,0.3-0.4,0.4-0.6c0-0.4,0.1-0.8,0.2-1.2
		c1.1-2.2,2.3-4.4,3.4-6.8c0.8-1.5,1.5-3.1,2.1-4.7c0.4-1,0-2.1-0.9-2.5c-0.2-0.1-0.3-0.1-0.5-0.1c-0.9-0.3-1.8-0.4-2.7-0.5
		c-2.8-0.3-5.6,0.3-8,1.5C136.6,19,135.3,20.4,134.4,22.1L134.4,22.1z M58.5,33c1.9,0,3.7,0,5.6,0c0.7,0,1-0.2,0.8-0.9
		c0-0.3,0-0.6,0.2-0.9c0.2-0.4,0.4-0.8,0.6-1.2c1.3-2.6,2.7-5.3,4.1-7.9c0.3-0.6,0.6-1.1,0.8-1.7c0.7-2,0-3.2-2.1-3.7
		c-2-0.4-4-0.4-6,0c-3,0.4-5.7,2-7.4,4.6c-0.2,0.2-0.3,0.5-0.5,0.8c1.6,0,3.1,0,4.6,0c0.4,0,0.8-0.2,1.1-0.5c0.7-0.9,1.8-1.5,3-1.5
		c0.9,0,1.1,0.5,0.8,1.3c-0.4,0.8-1.1,1.3-2,1.4c-1.7,0.2-3.4,0.3-5.1,0.6c-3.5,0.5-6.3,2.9-7.4,6.2c-0.7,2,0.3,3.5,2.4,3.7
		c2.1,0.2,4.1-0.2,5.9-1.2l0.8-0.4L58.5,33z M101,28.3l-0.2-0.3c-1.2,0-2.4,0-3.6,0c-1-0.2-1.9,0.1-2.7,0.8
		c-0.3,0.3-0.6,0.4-0.9,0.4c-0.7,0.1-1.3,0-2-0.1c-0.7-0.2-0.9-1.1-0.7-1.9c0.2-0.8,0.7-0.8,1.4-0.8h9.5c0.4,0,0.8,0,1-0.5
		c0.6-1.3,1.1-2.7,1.6-4.1c0.6-2.5-0.4-4.4-2.6-5c-0.9-0.2-1.7-0.3-2.6-0.3c-2.4,0.1-4.8,0.9-6.8,2.2c-3.5,2.2-6.1,5.6-7.1,9.6
		c-0.7,2,0.4,4.2,2.4,4.9c0.2,0.1,0.4,0.1,0.6,0.1c0.5,0.1,1.1,0.2,1.7,0.2c2.9,0.1,5.7-0.8,8-2.5C99,30.2,99.9,29.2,101,28.3
		L101,28.3z M81,22.9c0.1,0,0.2,0.1,0.3,0.1H85c2,0,2,0,2.2-2c0.5-1.9-0.6-3.9-2.6-4.5c-0.2-0.1-0.4-0.1-0.6-0.1
		c-2-0.4-4-0.2-5.9,0.4c-4.4,1.4-7.2,4.4-9.2,8.5c-0.4,0.9-0.7,1.8-0.9,2.8c-0.4,3.1,1.4,5.2,4.6,5.2c5.2,0.1,9-2.4,11.9-6.6
		c0.1-0.1,0.1-0.3,0.2-0.4c-1.6,0-3.2,0-4.7,0c-0.6-0.1-1.2,0.2-1.5,0.7c-0.6,1-1.6,1.6-2.7,1.7c-1.1,0.1-1.5-0.5-1.3-1.5
		c0.5-2,1.5-3.8,2.9-5.2c0.5-0.5,1-0.8,1.7-1C80.5,20.7,81.3,21.3,81,22.9L81,22.9z M161.2,23.1h3.6c2.3,0,2.3,0,2.6-2.3
		c0.3-1.8-0.8-3.5-2.6-3.9c-1.6-0.5-3.3-0.5-4.9-0.2c-6,1.1-9.5,5-11.5,10.5c-0.4,1.1-0.5,2.2-0.2,3.3c0.6,1.9,2.5,3.2,4.5,3
		c5.2,0.1,8.9-2.4,11.8-6.6c0.1-0.1,0.1-0.2,0.2-0.4c-0.1,0-0.3-0.1-0.4-0.1c-1.6,0-3.2,0-4.8,0c-0.3,0-0.6,0.3-0.8,0.5
		c-0.7,0.6-1.4,1.2-2.2,1.7c-0.5,0.2-1.2,0.1-1.7-0.2c-0.3-0.2-0.3-1-0.2-1.5c0.5-1.7,1.4-3.3,2.6-4.7c0.4-0.5,0.9-0.8,1.4-1.1
		c1.7-0.8,2.4-0.2,2.4,1.5C161.2,22.9,161.2,23,161.2,23.1L161.2,23.1z M136.9,17c-2.8-0.5-5.6,0.4-7.8,2.2l0.9-1.9
		c-1.7,0-3.2,0-4.7,0c-0.5-0.1-0.9,0.2-1.1,0.6c-1.9,3.7-3.9,7.4-5.9,11.1l-2,3.8c0.1,0,0.2,0.1,0.4,0.1c1.6,0,3.3,0,4.9,0
		c0.3-0.1,0.5-0.2,0.7-0.5c0.5-0.9,0.9-1.9,1.4-2.8c1.1-1.8,2.1-3.7,3.3-5.4c1.1-1.6,2.9-2.5,4.9-2.3c1.4,0.3,2.9-0.6,3.3-2
		C135.7,19,136.3,18,136.9,17L136.9,17z M168.7,34.9c1.1,0,2-0.8,2.1-1.9c0,0,0-0.1,0-0.1c0-1.1-0.9-2-2-2c0,0,0,0,0,0
		c-1.1,0-2,0.9-2,2C166.6,33.9,167.5,34.8,168.7,34.9C168.6,34.8,168.7,34.8,168.7,34.9L168.7,34.9z"/>
	<path class="st0" d="M41.5,20.2c0.7-1.4,1.4-2.7,2.1-4C43.8,16,44,16,44.2,16c1.1,0,2.1,0,3.2,0c1.1,0,1.6,0.8,1.1,1.8
		c-0.5,1.4-1.8,2.4-3.3,2.4C44.1,20.2,42.9,20.2,41.5,20.2z"/>
	<path class="st0" d="M141.7,25.9c-1,1.8-2.1,3.2-4.1,3.5c-0.1,0-0.3,0-0.4,0c-0.3-0.1-0.8-0.2-0.9-0.5s0.1-0.7,0.3-0.9
		c0.5-0.5,1-0.9,1.6-1.2C139.2,26.4,140.4,26.2,141.7,25.9z"/>
	<path class="st0" d="M61.9,25.9c-1,1.8-2.1,3.2-4.2,3.5c-0.2,0-0.5,0-0.7,0c-0.8-0.1-1-0.6-0.5-1.1c0.5-0.6,1.2-1.1,1.9-1.4
		C59.5,26.4,60.7,26.1,61.9,25.9z"/>
	<path class="st0" d="M93.3,23.1c0.7-1.4,2.2-2.3,3.8-2.4c0.5,0,0.9,0.2,1.2,0.6c0.1,0.5,0.1,1,0,1.5c-0.1,0.2-0.2,0.3-0.4,0.3
		C96.4,23.2,95,23.1,93.3,23.1z"/>
	<polygon class="st1" points="18.5,3.7 18.1,4.7 198.2,4.7 198.2,3.7 	"/>
	<polygon class="st1" points="16.5,8.9 196.6,8.9 196.6,7.9 16.9,7.9 	"/>
	<polygon class="st1" points="14.9,13.6 195,13.6 195,11.9 15.3,11.9 	"/>
	<polygon class="st1" points="12.4,18.1 192.5,18.1 192.5,16 12.8,16 	"/>
	<polygon class="st1" points="9.5,22.3 190.3,22.3 190.3,20 9.9,20 	"/>
	<polygon class="st1" points="8.4,26.8 189.1,26.8 189.1,24.2 8.8,24.2 	"/>
	<polygon class="st1" points="6.8,30.9 187.5,30.9 187.5,28.4 7.1,28.4 	"/>
	<polygon class="st1" points="5.4,35.2 186.1,35.2 186.1,32.8 5.8,32.8 	"/>
	<polygon class="st1" points="3.8,39.2 184.6,39.2 184.6,37.2 4.2,37.2 	"/>
	<polygon class="st1" points="1.9,43.3 182.7,43.3 182.7,41.7 2.3,41.7 	"/>
	<path class="st2" d="M49.1,22.7c1.5,1,2,1.6,1.2,4c-0.2,0.5-0.4,1-0.7,1.5c-0.9,1.4-1.4,3-1.5,4.7h-7c0.1-0.5,0.2-1.1,0.3-1.6
		c0.3-0.8,0.7-1.5,1-2.2c0.2-0.4,0.5-0.8,0.7-1.2c0.8-1.7,0.1-2.5-1.7-2.7c-1.7-0.4-3.4,0.6-3.9,2.2c-0.8,1.7-1.7,3.3-2.6,4.9
		c-0.2,0.4-0.6,0.7-1.1,0.6c-1.9,0-3.8,0-5.7,0c-0.2,0-0.5,0-0.8-0.1c0.5-0.9,0.9-1.7,1.3-2.5c3.4-6.2,6.7-12.4,10.1-18.6
		c0.2-0.5,0.7-0.8,1.2-0.7c3.3,0,6.5,0,9.8,0c1.4,0,2.8,0.2,4.2,0.6c2.3,0.7,3.2,2.6,2.3,4.9c-1.1,2.7-3.3,4.8-6.1,5.7
		C49.8,22.5,49.5,22.6,49.1,22.7z M41.5,20.2c1.4,0,2.5,0,3.7,0c1.5,0,2.8-1,3.3-2.4c0.5-1,0-1.8-1.1-1.8c-1.1,0-2.1,0-3.2,0
		c-0.2,0-0.4,0.1-0.6,0.2C43,17.5,42.3,18.8,41.5,20.2z"/>
	<path class="st3" d="M33.9,33.8L33.9,33.8c-1.3,0-2.5,0-3.8,0h-2c-0.2,0-0.4,0-0.6,0l-1.6-0.1l1.1-2l0.9-1.6l2.5-4.7
		c2.5-4.6,5-9.3,7.5-13.9c0.4-0.7,1.1-1.2,1.9-1.1h3.8c2,0,4,0,6,0c1.5,0,3,0.2,4.4,0.7c1.2,0.3,2.2,1.1,2.8,2.2
		c0.5,1.2,0.5,2.6,0,3.8c-1.1,2.8-3.3,5-6.2,6.1c0.9,0.9,1,2,0.3,4c-0.2,0.6-0.5,1.1-0.8,1.7c-0.8,1.3-1.3,2.8-1.4,4.3v0.8h-8.9
		l0.2-1c0-0.2,0-0.3,0.1-0.5c0-0.4,0.1-0.9,0.3-1.3c0.2-0.6,0.5-1.2,0.8-1.8l0.2-0.5c0.1-0.2,0.2-0.4,0.3-0.6
		c0.1-0.2,0.2-0.4,0.3-0.6c0.3-0.8,0.2-1,0.2-1.1c0-0.1-0.3-0.3-1.2-0.4c-1.7-0.2-2.4,0.3-3,1.7c-0.5,1.2-1.1,2.3-1.7,3.3
		c-0.3,0.5-0.6,1.1-0.9,1.6C35.3,33.4,34.6,33.8,33.9,33.8z M31.2,32.1h2.6c0.2,0,0.2,0,0.3-0.2c0.3-0.6,0.6-1.1,1-1.7
		c0.6-1,1.2-2,1.6-3.1c0.6-2,2.7-3.2,4.7-2.7c1,0,1.9,0.4,2.5,1.2c0.4,0.8,0.3,1.8-0.1,2.6c-0.1,0.3-0.3,0.5-0.4,0.8
		c-0.1,0.2-0.2,0.3-0.3,0.5L43,29.9c-0.3,0.5-0.5,1.1-0.8,1.6c-0.1,0.2-0.1,0.3-0.1,0.5h5.2c0.2-1.5,0.8-3,1.6-4.3
		c0.3-0.4,0.5-0.9,0.6-1.4c0.7-1.9,0.3-2.2-0.9-3l-1.4-0.9l1.9-0.7l0.5-0.2c3-1.2,4.8-2.8,5.6-5.2c0.3-0.8,0.3-1.7,0-2.5
		c-0.4-0.7-1.1-1.2-1.8-1.4c-1.3-0.4-2.6-0.6-4-0.6c-2,0-4,0-6,0h-3.8c-0.3,0-0.3,0-0.4,0.3c-2.5,4.7-5,9.3-7.5,13.9l-2.5,4.7
		l-0.7,1.3L31.2,32.1L31.2,32.1z M43.9,21h-3.8l1.2-2.2c0.6-1,1.1-2,1.6-3c0.3-0.4,0.8-0.7,1.3-0.7c1.2,0,2.2,0,3.2,0
		c0.7,0,1.4,0.3,1.9,0.9c0.3,0.6,0.3,1.4,0,2c-0.6,1.7-2.2,2.8-4,2.9L43.9,21z M43,19.3c0.8,0,1.6,0,2.3,0c1.2,0,2.2-0.8,2.6-1.9
		c0.1-0.3,0.1-0.4,0.1-0.5c0-0.1-0.2-0.1-0.5-0.1c-1,0-1.9,0-3.1,0C43.9,17.6,43.4,18.5,43,19.3L43,19.3z"/>
	<path class="st2" d="M113.8,16.8h-5.6c0.1-0.2,0.2-0.4,0.3-0.6c0.9-1.5,1.7-3.1,2.6-4.6c0.2-0.4,0.5-0.6,0.9-0.5l17,0.1
		c0.2,0,0.4,0,0.6,0.1c-0.1,0.2-0.2,0.4-0.2,0.6c-0.8,1.5-1.7,3-2.5,4.4c-0.2,0.4-0.6,0.6-1,0.6c-1.5,0-2.9,0-4.4,0
		c-0.5,0-0.9,0.2-1.1,0.7c-2.6,4.9-5.3,9.7-7.9,14.6c-0.2,0.5-0.7,0.8-1.3,0.8c-1.7,0-3.4,0-5.1,0c-0.2,0-0.5,0-0.9-0.1L113.8,16.8z
		"/>
	<path class="st3" d="M111.2,33.8L111.2,33.8c-1.2,0-2.4,0-3.5,0h-1.6h-0.6l-1.6-0.2l8.5-15.9h-5.3l0.5-1.4c0.1-0.2,0.1-0.3,0.2-0.5
		l1-1.8c0.5-0.9,1.1-1.9,1.6-2.8c0.3-0.6,0.9-1,1.6-1l11.9,0.1h5.1c0.2,0,0.3,0,0.5,0l1.3,0.2l-0.5,1.2c-0.1,0.2-0.1,0.3-0.2,0.5
		l-0.9,1.6c-0.6,1-1.1,1.9-1.6,2.9c-0.3,0.7-1,1.1-1.8,1c-0.7,0-1.4,0-2,0s-1.6,0-2.4,0c-0.2,0-0.2,0-0.4,0.2
		c-1.2,2.3-2.5,4.6-3.7,6.9c-1.4,2.6-2.8,5.2-4.2,7.8C112.9,33.3,112.1,33.8,111.2,33.8z M109,32.1c0.7,0,1.5,0,2.2,0
		c0.3,0,0.3,0,0.5-0.4c1.4-2.6,2.8-5.2,4.2-7.8c1.2-2.3,2.5-4.6,3.7-6.9c0.3-0.7,1.1-1.2,1.9-1.1c0.8,0,1.6,0,2.3,0
		c0.8,0,1.4,0,2.1,0c0.2,0,0.2,0,0.3-0.2c0.5-1,1.1-2,1.7-2.9l0.6-1h-4.4l-11.9-0.1c-0.1,0-0.1,0-0.2,0.1c-0.5,0.9-1.1,1.9-1.6,2.8
		l-0.7,1.2h5.6L106.6,32L109,32.1L109,32.1z"/>
	<path class="st2" d="M134.4,22.1c0.9-1.7,2.3-3.1,3.9-4c2.5-1.3,5.2-1.8,8-1.5c0.9,0,1.8,0.2,2.7,0.5c1,0.2,1.7,1.1,1.6,2.2
		c0,0.2-0.1,0.3-0.1,0.5c-0.6,1.6-1.3,3.2-2.1,4.7c-1.1,2.2-2.3,4.4-3.4,6.8c-0.1,0.4-0.2,0.8-0.2,1.2c-0.1,0.2-0.2,0.6-0.4,0.6
		c-1.9,0-3.9,0-5.9,0l0.4-1.2l-0.6,0.3c-1.9,1-4.1,1.5-6.2,1.3c-1.4,0-2.6-1.1-2.7-2.5c0-0.4,0.1-0.8,0.2-1.1c1-3.4,3.9-5.8,7.4-6.3
		c1.7-0.3,3.5-0.4,5.2-0.6c0.9-0.1,1.6-0.7,2-1.5c0.3-0.7,0-1.1-0.8-1.1c-1.2,0-2.4,0.5-3.1,1.5c-0.3,0.4-0.7,0.5-1.2,0.5
		C137.5,22.1,136.1,22.1,134.4,22.1z M141.7,25.9c-1.3,0.3-2.5,0.5-3.6,1c-0.6,0.3-1.2,0.7-1.6,1.2c-0.2,0.2-0.4,0.7-0.3,0.9
		s0.6,0.4,0.9,0.5c0.1,0,0.3,0,0.4,0C139.7,29.1,140.7,27.7,141.7,25.9z"/>
	<path class="st3" d="M132.9,34.2c-0.4,0-0.7,0-1.1,0c-1.2-0.1-2.2-0.6-2.9-1.6c-0.6-1-0.7-2.1-0.3-3.2c1-3.1,3.4-5.6,6.6-6.5H133
		l0.7-1.2c1-1.8,2.4-3.3,4.2-4.4c2.6-1.4,5.5-2,8.5-1.7c1,0,1.9,0.2,2.9,0.5c0.8,0.2,1.5,0.8,1.9,1.5c0.3,0.7,0.3,1.5,0,2.2
		c-0.6,1.5-1.2,3-2,4.4l-0.2,0.4c-0.6,1.1-1.1,2.3-1.7,3.4c-0.6,1.1-1.1,2.2-1.7,3.3c0,0.1,0,0.3,0,0.4c0,0.2,0,0.5-0.1,0.7
		c-0.1,0.3-0.4,1.2-1.2,1.3c-1.6,0-3.1,0-4.8,0h-2.4l0.2-0.5C135.9,33.9,134.4,34.2,132.9,34.2z M143.1,19.3h0.2
		c0.9-0.1,1.6,0.6,1.7,1.4c0,0.3,0,0.6-0.2,0.9c-0.4,1.1-1.4,1.9-2.6,2c-0.8,0.1-1.5,0.2-2.3,0.3c-0.9,0.1-1.9,0.2-2.9,0.4
		c-3.2,0.4-5.8,2.7-6.8,5.8c-0.2,0.6-0.2,1.2,0.1,1.7c0.4,0.5,1,0.8,1.6,0.8c2,0.2,4-0.2,5.8-1.2l0.4-0.2l1.9-0.9l-0.6,1.9h0.1
		c1.5,0,2.9,0,4.3,0l0,0c0-0.1,0-0.2,0-0.4c0-0.4,0.1-0.7,0.2-1c0.6-1.1,1.1-2.2,1.7-3.3c0.6-1.1,1.2-2.2,1.7-3.4l0.2-0.4
		c0.7-1.4,1.3-2.8,1.9-4.2c0.1-0.3,0.1-0.6,0-0.9c-0.2-0.3-0.5-0.6-0.9-0.6c-0.8-0.2-1.6-0.4-2.5-0.4c-2.6-0.3-5.2,0.2-7.5,1.4
		c-1.1,0.6-2.1,1.5-2.8,2.5c1.1,0,2.1,0,3.1,0c0.2,0,0.4-0.1,0.5-0.2C140.3,19.9,141.7,19.3,143.1,19.3L143.1,19.3z M144.2,32.1
		L144.2,32.1z M143.1,20.9c-0.9,0-1.7,0.4-2.3,1.1l1.1-0.1c0.6,0,1.1-0.4,1.3-1l0,0H143.1z M137.3,30.3c-0.1,0-0.3,0-0.4-0.1
		l-0.2-0.1c-0.5-0.1-0.9-0.4-1.2-0.8c-0.3-0.7-0.1-1.4,0.4-2c0.5-0.6,1.2-1,1.9-1.4c0.8-0.3,1.7-0.5,2.6-0.7l1.1-0.3l1.9-0.5l-1,1.7
		c-1,1.7-2.2,3.5-4.7,3.9C137.6,30.3,137.4,30.3,137.3,30.3L137.3,30.3z M137.4,28.6L137.4,28.6z M137.2,28.5L137.2,28.5h0.1h0.2
		c0.9-0.1,1.8-0.6,2.4-1.4c-0.5,0.1-1,0.3-1.5,0.4C137.9,27.8,137.5,28.2,137.2,28.5L137.2,28.5z"/>
	<path class="st2" d="M58.5,33l0.4-1.2L58,32.2c-1.8,1-3.9,1.4-5.9,1.2c-2.1-0.2-3.2-1.7-2.4-3.7c1-3.3,3.9-5.8,7.4-6.2
		c1.7-0.3,3.4-0.4,5.1-0.6c0.9-0.1,1.6-0.6,2-1.4c0.4-0.8,0.1-1.3-0.8-1.3c-1.2,0-2.3,0.5-3,1.5c-0.3,0.3-0.7,0.5-1.1,0.5
		c-1.5,0-2.9,0-4.6,0c0.2-0.4,0.3-0.6,0.5-0.8c1.7-2.5,4.4-4.1,7.3-4.5c2-0.4,4-0.4,6,0c2.1,0.4,2.8,1.6,2.1,3.7
		c-0.2,0.6-0.5,1.2-0.8,1.7c-1.3,2.6-2.7,5.3-4.1,7.9c-0.2,0.4-0.4,0.8-0.6,1.2c-0.1,0.3-0.2,0.6-0.2,0.9C65,32.9,64.7,33,64,33
		C62.2,33,60.4,33,58.5,33z M61.9,25.9c-1.2,0.2-2.4,0.5-3.5,0.9c-0.7,0.3-1.4,0.8-1.9,1.4c-0.5,0.6-0.2,1,0.5,1.1
		c0.2,0,0.5,0,0.7,0C59.8,29.1,60.8,27.7,61.9,25.9L61.9,25.9z"/>
	<path class="st3" d="M53.1,34.2c-0.4,0-0.7,0-1.1,0c-1.2,0-2.3-0.6-2.9-1.6c-0.6-1-0.7-2.2-0.2-3.2c1-3.1,3.4-5.5,6.5-6.4h-2.2
		l0.9-1.6c0.1-0.2,0.2-0.4,0.3-0.6c1.8-2.7,4.7-4.4,7.9-4.9c2.1-0.4,4.2-0.4,6.3,0c1.8,0.1,3.2,1.6,3.1,3.4c0,0.5-0.2,1-0.4,1.4
		c-0.2,0.6-0.5,1.2-0.8,1.8c-1,2-2,4-3.1,6l-1.2,2.3c-0.1,0.3-0.3,0.5-0.4,0.8c-0.1,0.1-0.1,0.3-0.1,0.4c0.2,0.5,0.1,1-0.2,1.4
		c-0.4,0.4-0.9,0.6-1.4,0.5c-1.3,0-2.5,0-3.9,0h-2.7l0.2-0.5C56.1,33.9,54.6,34.2,53.1,34.2z M63.3,19.3L63.3,19.3
		c0.7-0.1,1.3,0.2,1.6,0.7c0.3,0.5,0.3,1.2,0,1.8c-0.5,1-1.5,1.7-2.6,1.8c-0.7,0.1-1.5,0.2-2.2,0.3c-1,0.1-1.9,0.2-2.9,0.4
		c-3.2,0.4-5.8,2.6-6.7,5.7c-0.3,0.6-0.3,1.2,0,1.8c0.4,0.5,1,0.8,1.7,0.8c1.9,0.2,3.8-0.2,5.5-1.1l0.5-0.2l2-0.9l-0.6,1.9h0.5
		c1.3,0,2.6,0,3.8,0c0-0.4,0-0.9,0.2-1.3c0.1-0.3,0.3-0.6,0.5-0.9l1.2-2.3c1-2,2-4,3-5.9c0.3-0.5,0.5-1.1,0.7-1.6
		c0.3-0.5,0.3-1.2,0.1-1.7c-0.4-0.5-0.9-0.8-1.5-0.8c-1.9-0.3-3.8-0.3-5.7,0c-2.5,0.4-4.8,1.7-6.4,3.8c1.1,0,2.1,0,3.1,0
		c0.2,0,0.4-0.1,0.5-0.2C60.6,20,61.9,19.3,63.3,19.3z M63.3,20.9c-0.9,0-1.7,0.4-2.3,1.1l1.1-0.1c0.6,0,1.1-0.4,1.3-0.9v-0.1
		L63.3,20.9z M57.4,30.3c-0.2,0-0.3,0-0.5,0c-0.6,0-1.2-0.4-1.4-1c-0.2-0.5,0-1.1,0.4-1.5c0.6-0.7,1.4-1.3,2.2-1.6
		c0.8-0.3,1.6-0.5,2.5-0.7l1.1-0.3l1.9-0.5l-1,1.7c-1.1,1.8-2.3,3.6-4.8,3.9L57.4,30.3z M57.4,28.6h0.3c0.9-0.1,1.8-0.6,2.4-1.4
		c-0.4,0.1-0.9,0.2-1.3,0.4C58.2,27.8,57.7,28.2,57.4,28.6L57.4,28.6z"/>
	<path class="st2" d="M101,28.2c-1,0.9-2,1.9-3.2,2.7c-2.3,1.7-5.1,2.6-8,2.5c-0.6,0-1.1-0.1-1.7-0.2c-2.1-0.4-3.5-2.4-3.1-4.5
		c0-0.2,0.1-0.4,0.1-0.6c1-4,3.6-7.4,7.1-9.6c2-1.4,4.3-2.1,6.8-2.2c0.9,0,1.8,0.1,2.6,0.3c2.2,0.6,3.2,2.5,2.6,5
		c-0.4,1.4-1,2.8-1.6,4.1c-0.2,0.5-0.6,0.5-1,0.5h-9.5c-0.6,0-1.2-0.1-1.4,0.8c-0.2,0.8,0,1.7,0.7,1.9c0.7,0.2,1.4,0.2,2,0.1
		c0.4,0,0.7-0.2,0.9-0.4c0.7-0.6,1.7-0.9,2.6-0.8c1.2,0,2.4,0,3.6,0L101,28.2z M93.3,23.1c1.7,0,3.1,0,4.6,0c0.2,0,0.3-0.1,0.4-0.3
		c0.1-0.5,0.1-1,0-1.5C98,21,97.5,20.8,97,20.8C95.4,20.8,94,21.7,93.3,23.1L93.3,23.1z"/>
	<path class="st3" d="M90.1,34.3h-0.3c-0.6,0-1.2-0.1-1.8-0.2c-1.3-0.3-2.4-1.1-3.1-2.2c-0.7-1.2-0.8-2.6-0.5-3.9
		c1.1-4.2,3.7-7.8,7.4-10.1c2.1-1.5,4.6-2.3,7.2-2.4c1,0,1.9,0.1,2.9,0.4c2.6,0.7,3.9,3.1,3.2,6c-0.3,1-0.6,2-1,2.9
		c-0.2,0.4-0.4,0.9-0.5,1.3c-0.3,0.7-1,1.1-1.8,1h-0.4l0.8,1.2l-0.6,0.5l-1,0.9c-0.7,0.7-1.4,1.3-2.2,1.9
		C96,33.4,93.1,34.3,90.1,34.3z M99.3,17.3h-0.2c-2.3,0.1-4.5,0.8-6.3,2.1c-3.3,2-5.8,5.3-6.7,9.1c-0.3,0.9-0.2,1.8,0.3,2.6
		c0.5,0.7,1.3,1.2,2.1,1.4c0.5,0.1,1,0.2,1.5,0.2c2.7,0.1,5.3-0.8,7.5-2.3c0.6-0.5,1.2-1,1.8-1.5h-1.9c-1,0-1.6,0-2,0.5
		c-0.4,0.4-0.9,0.7-1.5,0.7c-0.8,0.1-1.6,0.1-2.4-0.1c-1.1-0.5-1.7-1.7-1.3-2.9c0.2-1,1.1-1.6,2.1-1.4c0,0,0,0,0,0h9.8
		c0.2-0.5,0.4-0.9,0.5-1.3c0.4-0.9,0.7-1.7,1-2.7c0.5-2-0.2-3.5-2-4C100.7,17.4,100,17.3,99.3,17.3L99.3,17.3z M91.6,27.2L91.6,27.2
		c-0.1,0.6,0,1,0.2,1.1c0.6,0.1,1.1,0.2,1.7,0.1c0.2,0,0.3-0.1,0.4-0.2c0.5-0.6,1.2-0.9,2-1h-3.8C91.9,27.2,91.8,27.2,91.6,27.2z
		 M95.2,24h-3.5l0.8-1.3c0.9-1.7,2.6-2.7,4.4-2.8c0.8,0,1.5,0.4,2,1c0.2,0.5,0.3,1.1,0.1,1.7c0,0.1,0,0.2,0,0.3
		c-0.1,0.6-0.6,1-1.2,1L95.2,24z M95,22.3h2.4c0-0.2,0-0.4,0-0.6c-0.2-0.1-0.3-0.1-0.5-0.1C96.3,21.6,95.6,21.9,95,22.3L95,22.3z
		 M97.8,22.3L97.8,22.3z"/>
	<path class="st2" d="M81.1,22.9c0.2-1.6-0.5-2.3-2-1.8c-0.6,0.2-1.2,0.5-1.7,1c-1.4,1.5-2.4,3.3-2.9,5.2c-0.3,1,0.2,1.6,1.3,1.5
		c1.1-0.1,2.1-0.8,2.7-1.7c0.3-0.5,0.9-0.8,1.5-0.7c1.5,0,3.1,0,4.7,0c0,0.1-0.1,0.3-0.2,0.4c-2.9,4.1-6.7,6.7-11.9,6.6
		c-3.2,0-5-2.1-4.6-5.2c0.2-1,0.5-1.9,0.9-2.8c1.9-4,4.8-7.1,9.2-8.5c1.9-0.6,3.9-0.8,5.9-0.4c2,0.2,3.5,1.9,3.3,4
		c0,0.2-0.1,0.4-0.1,0.6c-0.3,2-0.3,2-2.2,2h-3.7C81.2,23,81.1,23,81.1,22.9z"/>
	<path class="st3" d="M72.9,34.3h-0.2c-1.6,0.1-3.2-0.6-4.3-1.8c-1-1.2-1.4-2.8-1.1-4.4c0.2-1.1,0.5-2.1,1-3c2.2-4.7,5.4-7.6,9.7-9
		c2-0.7,4.2-0.8,6.3-0.4c2.4,0.2,4.2,2.4,4,4.9c0,0.2-0.1,0.5-0.1,0.7c-0.4,2.4-0.8,2.7-3.1,2.7h-3.7c-0.2,0-0.3-0.1-0.5-0.1
		l-0.6-0.2v-0.7c0.1-0.6,0-0.9-0.1-0.9c-0.1,0-0.3-0.1-0.8,0.1c-0.5,0.1-0.9,0.4-1.3,0.8c-1.3,1.4-2.2,3-2.7,4.9c0,0.1,0,0.3,0,0.4
		l0,0c0.1,0,0.3,0,0.4,0c0.9-0.1,1.7-0.6,2.1-1.4c0.5-0.7,1.3-1.1,2.2-1.1c1.1,0,2.2,0,3.3,0h2.6l-0.4,1.3c0,0.2-0.1,0.3-0.2,0.5
		C82.1,32,77.9,34.3,72.9,34.3z M82,17.2c-1.2,0-2.4,0.2-3.5,0.6c-3.8,1.2-6.7,3.9-8.7,8.1c-0.4,0.8-0.7,1.7-0.8,2.6
		c-0.2,1.1,0,2.2,0.7,3.1c0.8,0.8,1.9,1.3,3.1,1.2c4.3,0.1,7.7-1.7,10.5-5.4c-1.1,0-2.2,0-3.2,0c-0.3-0.1-0.7,0.1-0.8,0.4
		c-0.7,1.2-2,1.9-3.3,2.1c-0.7,0.1-1.4-0.1-1.8-0.6c-0.4-0.5-0.5-1.2-0.3-1.9c0.5-2.1,1.6-4,3.1-5.6c0.6-0.6,1.3-1,2-1.2
		c0.8-0.4,1.7-0.3,2.4,0.2c0.5,0.4,0.7,1,0.7,1.6h3.1c0.4,0,0.8,0,1.2-0.1c0-0.1,0.1-0.6,0.2-1.2c0.4-1.5-0.4-3.1-1.9-3.5
		c-0.2-0.1-0.4-0.1-0.6-0.1C83.3,17.3,82.6,17.2,82,17.2z"/>
	<path class="st2" d="M161.2,23.1c0-0.1-0.1-0.1-0.1-0.2c0-1.8-0.8-2.3-2.4-1.5c-0.6,0.3-1,0.6-1.4,1.1c-1.2,1.3-2.1,2.9-2.6,4.7
		c-0.1,0.5-0.1,1.3,0.2,1.5c0.5,0.3,1.1,0.4,1.7,0.2c0.8-0.5,1.5-1.1,2.2-1.7c0.3-0.2,0.6-0.5,0.8-0.5c1.6,0,3.2,0,4.8,0
		c0.1,0,0.3,0,0.4,0.1c0,0.1-0.1,0.3-0.2,0.4c-2.9,4.1-6.7,6.7-11.8,6.6c-2,0.1-3.9-1.1-4.5-3c-0.3-1.1-0.2-2.3,0.2-3.3
		c2-5.5,5.6-9.4,11.5-10.5c1.6-0.3,3.3-0.3,4.9,0.2c1.8,0.4,2.9,2.2,2.6,3.9c-0.3,2.3-0.3,2.3-2.6,2.3L161.2,23.1z"/>
	<path class="st3" d="M153,34.3h-0.2c-2.4,0.2-4.6-1.3-5.3-3.6c-0.4-1.3-0.3-2.6,0.2-3.9c2.3-6.3,6.3-9.9,12.1-11
		c1.8-0.4,3.6-0.3,5.3,0.2c2.2,0.5,3.5,2.7,3.1,4.8c-0.3,2.7-0.7,3-3.3,3h-4.2l-0.4-0.8v-0.3c0-0.7-0.2-1-0.2-1
		c-0.1,0-0.4-0.1-1,0.2c-0.4,0.2-0.8,0.5-1.2,0.9c-1.1,1.2-2,2.7-2.4,4.3c0,0.2,0,0.5,0,0.7c0.2,0.1,0.5,0.1,0.7,0
		c0.5-0.3,1-0.6,1.4-1c0.2-0.2,0.5-0.4,0.8-0.6l0.1-0.1c0.3-0.3,0.7-0.5,1.2-0.6c1.3,0,2.6,0,3.8,0h1c0.2,0,0.3,0,0.4,0.1l1.1,0.2
		l-0.4,1c0,0.2-0.1,0.3-0.2,0.4C162,32.1,158,34.3,153,34.3z M162.1,17.2c-0.7,0-1.4,0.1-2,0.2c-5.2,1-8.8,4.3-10.9,10
		c-0.4,0.9-0.4,1.9-0.2,2.8c0.6,1.6,2.1,2.5,3.7,2.4c4.2,0.1,7.7-1.7,10.5-5.4c-1.2,0-2.5,0-3.7,0c0,0-0.1,0.1-0.2,0.2l-0.2,0.1
		c-0.2,0.2-0.5,0.4-0.7,0.6c-0.5,0.5-1.1,0.9-1.7,1.2c-0.8,0.4-1.8,0.3-2.5-0.2c-0.8-0.6-0.6-2-0.5-2.4c0.5-1.9,1.5-3.6,2.8-5
		c0.5-0.5,1.1-1,1.7-1.3c0.8-0.5,1.8-0.5,2.6-0.1c0.6,0.4,0.9,1.1,0.9,1.8h2.9c0.5,0,1,0,1.5-0.1c0.1-0.5,0.2-1,0.2-1.5
		c0.3-1.4-0.6-2.8-2-3.1C163.8,17.3,163,17.2,162.1,17.2L162.1,17.2z"/>
	<path class="st2" d="M136.9,17c-0.6,1.1-1.3,2-1.7,3.1c-0.4,1.4-1.8,2.3-3.3,2c-1.9-0.2-3.8,0.7-4.9,2.3c-1.2,1.7-2.2,3.5-3.3,5.4
		c-0.5,0.9-0.9,1.9-1.4,2.8c-0.1,0.2-0.4,0.4-0.7,0.5c-1.6,0-3.3,0-4.9,0c-0.1,0-0.2-0.1-0.4-0.1l2-3.8c2-3.7,3.9-7.4,5.9-11.1
		c0.2-0.4,0.6-0.7,1.1-0.6c1.5,0,3,0,4.7,0l-0.9,1.9C131.3,17.3,134.1,16.5,136.9,17z"/>
	<path class="st3" d="M119.5,33.8h-2.7c-0.2,0-0.3,0-0.5-0.1l-1.1-0.3l4-7.5c1.5-2.8,3-5.5,4.4-8.3c0.3-0.7,1-1.2,1.8-1.1
		c1.1,0,2.2,0,3.3,0h2.7l-0.2,0.5c1.8-0.9,3.9-1.2,5.9-0.9l1.1,0.2l-0.6,1c-0.2,0.3-0.4,0.7-0.6,1c-0.4,0.6-0.8,1.3-1.1,2
		c-0.5,1.8-2.3,2.8-4.1,2.5c-1.6-0.1-3.2,0.6-4.1,2c-1,1.4-1.9,2.9-2.7,4.4l-0.5,0.9c-0.3,0.5-0.5,1-0.7,1.4
		c-0.2,0.5-0.4,0.9-0.7,1.3c-0.3,0.5-0.8,0.8-1.4,0.9L119.5,33.8z M117.7,32.1c1.3,0,2.6,0,3.9,0l0,0c0.2-0.4,0.4-0.8,0.6-1.2
		s0.5-1.1,0.8-1.6l0.5-0.9c0.9-1.5,1.8-3.1,2.8-4.4c1.2-1.9,3.4-2.9,5.6-2.7c1.3,0.1,1.9-0.2,2.4-1.5c0.3-0.7,0.7-1.4,1.1-2
		c-2.2,0-4.3,0.8-5.9,2.2l-2.7,2.1l1.8-3.9h-0.1c-1.1,0-2.2,0-3.3,0c-0.1,0-0.1,0-0.2,0l0,0c0,0-0.1,0.1-0.1,0.2
		c-1.5,2.8-3,5.6-4.4,8.3L117.7,32.1z"/>
	<circle class="st0" cx="168.7" cy="32.9" r="1.8"/>
	<path class="st2" d="M168.7,34.9c-1.2,0-2.1-0.9-2.1-2.1c0-1.2,0.9-2.1,2.1-2.1c1.2,0,2.1,0.9,2.1,2.1
		C170.8,34,169.9,34.9,168.7,34.9C168.7,34.9,168.7,34.9,168.7,34.9z M168.7,31.3c-0.8,0-1.5,0.7-1.5,1.5c0,0.8,0.7,1.5,1.5,1.5
		c0.8,0,1.5-0.7,1.5-1.5C170.3,32,169.6,31.3,168.7,31.3C168.8,31.3,168.7,31.3,168.7,31.3L168.7,31.3z"/>
	<path class="st2" d="M168,31.8c0.2,0,0.4,0,0.5,0c0.2,0,0.5,0,0.6,0.2c0.1,0.1,0.2,0.3,0.2,0.4c0,0.3-0.2,0.5-0.4,0.6l0,0
		c0.2,0.1,0.3,0.2,0.3,0.4c0,0.2,0.1,0.4,0.2,0.6h-0.3c-0.1-0.2-0.1-0.3-0.1-0.5c-0.1-0.3-0.2-0.4-0.4-0.4h-0.3V34H168L168,31.8z
		 M168.3,32.8h0.3c0.3,0,0.5-0.2,0.5-0.4s-0.2-0.4-0.5-0.4c-0.1,0-0.2,0-0.3,0V32.8z"/>
	<path class="st0" d="M111,0.5h84.1c0.7,0,1.5,0.1,2.2,0.3c2.1,0.4,3.5,2.5,3.1,4.7c0,0.1,0,0.1,0,0.2c-0.4,1.5-1,2.9-1.7,4.3
		c-4.4,9.8-8.9,19.7-13.4,29.4c-2.1,4.5-6,6.8-11,7.1c-0.4,0-0.8,0-1.2,0H6.3c-0.7,0-1.5,0-2.2-0.2c-3-0.7-4.3-3.3-3.1-6.3
		c0.8-1.8,1.6-3.6,2.4-5.4c4.1-8.9,8.1-17.9,12.2-26.8c1.9-4.5,6.4-7.4,11.2-7.2C55,0.5,82.9,0.5,111,0.5z M90.5,44.9h81.6
		c0.7,0,1.5,0,2.2-0.2c3.9-0.9,7.3-2.8,9-6.6c4.4-9.7,8.8-19.5,13.2-29.3c0.3-0.8,0.6-1.6,0.7-2.5c0.3-1.8-0.9-3.6-2.7-4
		C193.7,2.1,192.8,2,192,2H29.6c-0.2,0-0.4,0-0.6,0c-5.1,0.3-9.2,2.5-11.4,7.2c-4.4,9.6-8.7,19.3-13,28.9c-0.3,0.6-0.5,1.3-0.6,2
		c-0.6,2,0.6,4,2.6,4.6c0.4,0.1,0.7,0.1,1.1,0.1c0.4,0,0.7,0,1.1,0L90.5,44.9z"/>
	<path class="st2" d="M90.5,44.9H8.7c-0.4,0-0.7,0-1.1,0c-2.1,0-3.7-1.6-3.8-3.7c0-0.3,0-0.7,0.1-1c0.1-0.7,0.3-1.3,0.6-2
		c4.3-9.7,8.6-19.3,13-28.9c2.2-4.7,6.3-6.9,11.4-7.2c0.2,0,0.4,0,0.6,0H192c0.8,0,1.7,0.1,2.5,0.3c1.8,0.4,3,2.2,2.7,4
		c-0.1,0.9-0.3,1.7-0.7,2.5c-4.4,9.8-8.7,19.6-13.2,29.3c-1.7,3.7-5.1,5.7-9,6.6c-0.7,0.1-1.5,0.2-2.2,0.2L90.5,44.9z M90.4,43.9
		L90.4,43.9c27.3,0,54.5,0,81.8,0c4.5,0.1,8.6-2.5,10.4-6.7c4.1-8.9,8-17.8,12-26.7c0.6-1.2,1.1-2.5,1.4-3.7
		c0.5-1.4-0.2-2.9-1.6-3.4c-0.2-0.1-0.5-0.1-0.8-0.2c-0.5-0.1-1.1-0.1-1.6-0.1H29.3c-0.6,0-1.3,0-1.9,0.1c-4,0.9-7.2,2.8-9,6.7
		c-3.9,8.7-7.9,17.5-11.8,26.3c-0.6,1.4-1.2,2.8-1.6,4.3c-0.3,1.3,0.4,2.5,1.7,2.9c0,0,0,0,0,0c0.6,0.2,1.3,0.3,1.9,0.3
		c14.2,0,28.4,0,42.6,0L90.4,43.9z"/>
</g>
</svg>
