<svg xmlns="http://www.w3.org/2000/svg" xmlns:xlink="http://www.w3.org/1999/xlink" viewBox="0 0 212.21 106.53"><defs><style>.cls-1,.cls-24,.cls-26,.cls-3{fill:none;}.cls-2{fill:#d1181f;}.cls-24,.cls-3{stroke:#231f20;}.cls-24,.cls-26,.cls-3{stroke-miterlimit:3.86;}.cls-3{stroke-width:1.14px;}.cls-4{clip-path:url(#clip-path);}.cls-5{fill:url(#linear-gradient);}.cls-6{fill:#febd11;}.cls-7{clip-path:url(#clip-path-2);}.cls-8{fill:url(#linear-gradient-2);}.cls-9{clip-path:url(#clip-path-3);}.cls-10{fill:url(#linear-gradient-3);}.cls-11{clip-path:url(#clip-path-4);}.cls-12{fill:url(#linear-gradient-4);}.cls-13,.cls-20{fill:#b12c1b;}.cls-13,.cls-21,.cls-27,.cls-28{fill-rule:evenodd;}.cls-14{clip-path:url(#clip-path-5);}.cls-15{fill:url(#linear-gradient-5);}.cls-16{clip-path:url(#clip-path-6);}.cls-17{fill:#9d5614;}.cls-18{clip-path:url(#clip-path-7);}.cls-19{fill:url(#linear-gradient-6);}.cls-21,.cls-22{fill:#fff200;}.cls-23,.cls-28{fill:#231f20;}.cls-24{stroke-width:4.56px;}.cls-25,.cls-27{fill:#fff;}.cls-26{stroke:#fff;stroke-width:2.09px;}</style><clipPath id="clip-path"><path class="cls-1" d="M60.71,90.46c0,5.84,31.79,10.57,71,10.57s71-4.73,71-10.57-31.79-10.58-71-10.58-71,4.74-71,10.58"/></clipPath><linearGradient id="linear-gradient" x1="-107.18" y1="636.08" x2="-106.18" y2="636.08" gradientTransform="matrix(0, 22.64, 22.64, 0, -14272.14, 2506.09)" gradientUnits="userSpaceOnUse"><stop offset="0" stop-color="#febd11"/><stop offset="1" stop-color="#fff200"/></linearGradient><clipPath id="clip-path-2"><path class="cls-1" d="M201.9,90.46c-3.89,6.17-31.1,10.39-67.34,10.39-15.25,0-29.42-.46-40.81-1.79a315.4,315.4,0,0,0,41.45,2.51c36.24,0,64.86-4.41,68-11.17-.38,0-.82.06-1.26.06"/></clipPath><linearGradient id="linear-gradient-2" x1="-40.82" y1="672.66" x2="-39.82" y2="672.66" gradientTransform="matrix(0, -11.42, -11.42, 0, 7830.19, -397.89)" gradientUnits="userSpaceOnUse"><stop offset="0" stop-color="#9d5614"/><stop offset="0.56" stop-color="#a45d16"/><stop offset="0.79" stop-color="#febd11"/><stop offset="1" stop-color="#fff"/></linearGradient><clipPath id="clip-path-3"><path class="cls-1" d="M201.88,90.51c.46,0,.89-.08,1.29-.11-1.59-2-10.59-6-18.57-6.38,6.87,1.45,14.19,4,17.28,6.49"/></clipPath><linearGradient id="linear-gradient-3" x1="-31.41" y1="677.84" x2="-30.41" y2="677.84" gradientTransform="matrix(0, -9.42, -9.42, 0, 6576.16, -204.51)" gradientUnits="userSpaceOnUse"><stop offset="0" stop-color="#fff"/><stop offset="0.36" stop-color="#fff"/><stop offset="1" stop-color="#ffe01b"/></linearGradient><clipPath id="clip-path-4"><path class="cls-1" d="M193,89c0,5.68-31.75,10.3-70.92,10.3-12.95,0-25.08-.51-35.52-1.39l.79.15a319,319,0,0,0,40.32,2.35c23.59,0,45.45-2.21,57.71-5.47,6.33-1.68,9.8-3.85,9.94-5.75.18-2.31-5.16-4.2-11.17-5.2H184c5.7,1.49,9,3.2,9,5"/></clipPath><linearGradient id="linear-gradient-4" x1="-111.87" y1="633.69" x2="-110.87" y2="633.69" gradientTransform="matrix(0, 18.68, 18.68, 0, -11698.06, 2172.58)" gradientUnits="userSpaceOnUse"><stop offset="0" stop-color="#9d5614"/><stop offset="0.26" stop-color="#a45d16"/><stop offset="0.4" stop-color="#febd11"/><stop offset="0.6" stop-color="#fff"/><stop offset="1" stop-color="#fffbcc"/></linearGradient><clipPath id="clip-path-5"><path class="cls-1" d="M60,90.38c.39,0,.83-.07,1.27-.07,3.88-6.17,31.1-10.38,67.33-10.38,15.23,0,29.36.45,40.74,1.78a314.53,314.53,0,0,0-41.38-2.5c-36.24,0-64.87,4.41-68,11.17"/></clipPath><linearGradient id="linear-gradient-5" x1="-87.32" y1="652.74" x2="-86.32" y2="652.74" gradientTransform="matrix(116.93, 0, 0, -116.93, 10237.06, 76406.87)" gradientUnits="userSpaceOnUse"><stop offset="0" stop-color="#fffbcc"/><stop offset="0.01" stop-color="#fffbcd"/><stop offset="0.22" stop-color="#fffde8"/><stop offset="0.42" stop-color="#fffff9"/><stop offset="0.56" stop-color="#fff"/><stop offset="0.71" stop-color="#fffef2"/><stop offset="0.98" stop-color="#fffbcf"/><stop offset="1" stop-color="#fffbcc"/></linearGradient><clipPath id="clip-path-6"><path class="cls-1" d="M60,90.38c1.62,2,11,6.17,19.12,6.4-5.7-1.48-8.94-3.19-8.94-5,0-5.69,31.75-10.3,70.92-10.3,12.94,0,25.07.5,35.52,1.38-12.37-2.24-29.61-3.64-48.66-3.64-36.24,0-64.87,4.41-68,11.17"/></clipPath><clipPath id="clip-path-7"><path class="cls-1" d="M77.76,85.82c-6.33,1.68-9.8,3.85-9.94,5.75C67.65,93.89,73,95.77,79,96.78h.12c-5.7-1.48-8.94-3.19-8.94-5,0-5.69,31.75-10.3,70.92-10.3,12.94,0,25.07.5,35.52,1.38l-.83-.14a318.2,318.2,0,0,0-40.28-2.36c-23.6,0-45.45,2.22-57.72,5.47"/></clipPath><linearGradient id="linear-gradient-6" x1="-103.92" y1="635.46" x2="-102.92" y2="635.46" gradientTransform="matrix(-25.13, 0, 0, 25.13, -2477.64, -15880.32)" xlink:href="#linear-gradient-2"/></defs><title>Asset 5</title><g id="Layer_2" data-name="Layer 2"><g id="Layer_1-2" data-name="Layer 1"><path class="cls-2" d="M.57,54.15c0-28.61,47-51.8,104.86-51.8S210.3,25.54,210.3,54.15,163.35,106,105.43,106,.57,82.77.57,54.15"/><path class="cls-3" d="M.57,54.15c0-28.61,47-51.8,104.86-51.8S210.3,25.54,210.3,54.15,163.35,106,105.43,106,.57,82.77.57,54.15Z"/><g class="cls-4"><rect class="cls-5" x="60.71" y="79.88" width="142.02" height="21.15"/></g><path class="cls-6" d="M203.17,90.4c-3.1,6.76-31.72,11.17-68,11.17-19,0-36.28-1.4-48.65-3.65,10.44.88,22.57,1.39,35.52,1.39C161.24,99.31,193,94.69,193,89c0-1.82-3.25-3.53-9-5,8.12.23,17.51,4.39,19.13,6.4"/><g class="cls-7"><rect class="cls-8" x="93.75" y="90.4" width="109.42" height="11.17"/></g><g class="cls-9"><rect class="cls-10" x="184.6" y="84.02" width="18.56" height="6.49"/></g><g class="cls-11"><rect class="cls-12" x="86.55" y="83.99" width="108.94" height="16.42"/></g><path class="cls-13" d="M103.68,12.56a5.21,5.21,0,0,0-3,1.27,12.47,12.47,0,0,0-3.09,3.43A5.74,5.74,0,0,0,96.49,20a1.61,1.61,0,0,0,1.37,1.44,3.46,3.46,0,0,0,1.91-.7,23.48,23.48,0,0,0,2.59-2c.17-.15.22-.15.25.08a4.25,4.25,0,0,0,0,.85,1.87,1.87,0,0,0,1.84,1.8c1.73,0,4.43-2.3,5.68-4.43.25-.47.4-.91.26-1.13s-.38-.19-.68.05c-1.77,2.13-3.66,3.62-4.29,3.62-.42,0-.68-.34-.67-1.2A10.49,10.49,0,0,1,106.07,14c.08-.22.23-.51-.53-.91a.52.52,0,0,0-.66.08c-.17.09-.31.09-.36-.05a1.19,1.19,0,0,0-.84-.52m-1.05,1.84a.72.72,0,0,1,.65.52,1,1,0,0,1-.18.8,9.17,9.17,0,0,1-1,1.25,15.94,15.94,0,0,1-1.7,1.66,2.38,2.38,0,0,1-1,.57c-.22,0-.27-.35-.18-.66a8.45,8.45,0,0,1,1.92-3c.8-.83,1.25-1.12,1.5-1.12"/><path class="cls-13" d="M113.53,7.62c-.6,0-.94.27-1,1a3.62,3.62,0,0,0,.12,1.23A1.77,1.77,0,0,0,113.8,11c.52.17.91.15.91-.34a10.25,10.25,0,0,1,.2-2c.15-.61-.58-1-1.38-1m-3.68,14a5.08,5.08,0,0,0,1.68-.34,14.59,14.59,0,0,0,5.29-4.3c.37-.52.46-.91.33-1.13s-.39-.2-.72.12c-1.57,1.54-4.33,3.74-5.2,3.74-.53,0-.57-.34-.29-1.1A21.8,21.8,0,0,1,113.22,14a1,1,0,0,0-.33-1.25.79.79,0,0,0-.47-.14c-.79,0-2.55,1.63-3,2.64a.82.82,0,0,0,0,.81c.14.22.13.37,0,.71a23.9,23.9,0,0,0-.89,2.38,1.7,1.7,0,0,0,0,1.47,1.5,1.5,0,0,0,1.33,1"/><path class="cls-6" d="M60,90.38c3.09-6.76,31.72-11.17,68-11.17,19,0,36.29,1.4,48.66,3.64C166.14,82,154,81.47,141.07,81.47c-39.17,0-70.92,4.61-70.92,10.3,0,1.82,3.24,3.53,8.94,5C71,96.55,61.59,92.39,60,90.38"/><g class="cls-14"><rect class="cls-15" x="59.97" y="79.21" width="109.34" height="11.17"/></g><g class="cls-16"><path class="cls-17" d="M59.25,90.37a13.33,13.33,0,0,0,2-.1c1,2.32,16,6.87,24.11,7.54-7.78.37-23.44-3.84-25.87-7.24Z"/></g><g class="cls-18"><rect class="cls-19" x="109.19" y="33.59" width="25.86" height="109.96" transform="translate(23.24 202.5) rotate(-85)"/></g><path class="cls-20" d="M121.29,12.57a6,6,0,0,0-3.21,1.07,3.61,3.61,0,0,0-1.69,2.4,2.49,2.49,0,0,0,.26,1,8.71,8.71,0,0,0,.88,1.38,2.46,2.46,0,0,1,.61,1.15c0,.15-.23.34-.59.34a1.85,1.85,0,0,1-.82-.15.59.59,0,0,0-.68-.05,3,3,0,0,0-1,.69.58.58,0,0,0-.23.51c.1.54,1.14.91,1.88.91a3.24,3.24,0,0,0,1-.21,10.1,10.1,0,0,0,2-1,2.16,2.16,0,0,0,.71-1.25,3.34,3.34,0,0,0-1-2.06,2.89,2.89,0,0,1-.8-1.58c0-.75,1.92-1.39,3.63-1.38.46,0,.88-.2.89-.67a.82.82,0,0,0-.46-.76,2.53,2.53,0,0,0-1.44-.34"/><path class="cls-13" d="M127.79,7.65c-.6,0-.94.27-1,1a3.56,3.56,0,0,0,.12,1.22A1.73,1.73,0,0,0,128.06,11c.52.18.9.15.91-.34a9.47,9.47,0,0,1,.2-2c.15-.62-.58-1-1.38-1m-3.68,14a5.18,5.18,0,0,0,1.68-.34A14.62,14.62,0,0,0,131.08,17c.37-.51.46-.91.32-1.13s-.38-.19-.71.12c-1.57,1.55-4.33,3.75-5.2,3.75-.53,0-.58-.35-.29-1.11A21.71,21.71,0,0,1,127.48,14a1,1,0,0,0-.33-1.25.8.8,0,0,0-.47-.15c-.79,0-2.55,1.64-3,2.64a.82.82,0,0,0,0,.81c.13.22.13.37,0,.72a21.45,21.45,0,0,0-.89,2.37,1.73,1.73,0,0,0,0,1.48,1.51,1.51,0,0,0,1.33,1"/><path class="cls-20" d="M133,12.17a1.83,1.83,0,0,0-1.61,1.15,32.13,32.13,0,0,0-2.12,6.1,1.46,1.46,0,0,0,.06,1.23,1,1,0,0,0,.82.47,1,1,0,0,0,.75-.49A30.69,30.69,0,0,1,135.15,16c.42-.34.56-.44.64-.34s0,.24-.12.51a16.93,16.93,0,0,0-.61,2c-.62,2.38.29,3.65,1.66,3.65s3.73-1,6.07-4.52c.45-.61.48-1,.35-1.2a.33.33,0,0,0-.47.07c-1.68,1.74-4,3.94-5,3.94-.44,0-.87-.49-.43-2A20.22,20.22,0,0,1,138.49,15c.26-.49.54-.9.65-1.12a.9.9,0,0,0-.22-1.25,1.33,1.33,0,0,0-.85-.27.76.76,0,0,0-.63.36,1.45,1.45,0,0,1-.45.47,9.92,9.92,0,0,0-1.22.73,25.91,25.91,0,0,0-3.07,2.45c-.25.3-.44.19-.32-.08a10.1,10.1,0,0,1,.8-1.83c.25-.4.5-.64.75-.64a.34.34,0,0,0,.33-.32,1.38,1.38,0,0,0-1.29-1.3"/><path class="cls-13" d="M85.35,11.28a6.24,6.24,0,0,1,.35-.86,4.51,4.51,0,0,1,.89-1.37,2.94,2.94,0,0,1,1.21-.41c.44-.06,1-.07,1.8-.2,1.19-.18,4.47-.26,4.81-.26,2.53.05,4.41,1.09,5.14,2.21A2.72,2.72,0,0,1,99.9,12c0,1.9-2.76,3.49-4.69,4.38-.3.12-.74.28-1.13.41l-.53.17-.19.06-.13.06-.28.14.19.24c1.44,1.88,2.28,3.08,3.82,4.87.94,1.09,1.35,1.56,2.23,2.43-.22.16-2,1.32-2.52.85a46,46,0,0,1-6.74-7.88l-.27-.42-.19.46c-.51,1.3-2.93,7.2-3.36,7.56a.33.33,0,0,1-.16.09,2.43,2.43,0,0,1-.39.1,6.77,6.77,0,0,1-1.13.06,3.38,3.38,0,0,1-1-.16.43.43,0,0,1-.18-.12C83.71,24,88,13.68,89,11.2l.16-.4-.43,0c-1.06.14-2,.27-3.38.43m10.73-.55A7.28,7.28,0,0,0,94,10.5c-.39,0-1.19,0-1.62.05l-.16,0-.06.15c-.68,2-1.3,3.28-1.83,4.74l-.13.34h.37a12.5,12.5,0,0,0,3-.92c1.73-.76,3.64-2.08,3.65-2.84a1.34,1.34,0,0,0-1.12-1.31"/><path class="cls-21" d="M83.32,10.28a4.78,4.78,0,0,1,.34-.87A4.92,4.92,0,0,1,84.54,8a3,3,0,0,1,1.22-.41c.44-.06.95-.08,1.8-.2,1.18-.17,4.47-.25,4.81-.25,2.53,0,4.41,1.08,5.14,2.2A2.72,2.72,0,0,1,97.86,11c0,1.9-2.76,3.49-4.7,4.38-.29.13-.73.28-1.12.41l-.53.17-.19.07-.13.05-.28.14.19.24c1.44,1.88,2.28,3.08,3.82,4.87.94,1.09,1.35,1.56,2.23,2.43-.23.16-2,1.32-2.52.85a45.7,45.7,0,0,1-6.74-7.89l-.28-.41-.18.46c-.52,1.3-2.93,7.19-3.36,7.55a.37.37,0,0,1-.16.1,1.73,1.73,0,0,1-.39.09,5.15,5.15,0,0,1-1.13.06,3,3,0,0,1-1-.16.46.46,0,0,1-.18-.11C81.67,23,86,12.67,87,10.19l.16-.4-.43.06-3.36.43M94,9.72A7.32,7.32,0,0,0,92,9.49c-.39,0-1.19,0-1.62,0l-.16,0-.06.15c-.68,2-1.3,3.28-1.84,4.74l-.12.34h.37a12.47,12.47,0,0,0,3-.92c1.73-.77,3.65-2.08,3.66-2.84A1.35,1.35,0,0,0,94,9.72"/><path class="cls-21" d="M102.46,11.61a5.29,5.29,0,0,0-3,1.27,12.28,12.28,0,0,0-3.08,3.43,5.77,5.77,0,0,0-1.1,2.77c0,.93,1,1.44,1.37,1.45a3.49,3.49,0,0,0,1.91-.71,22.55,22.55,0,0,0,2.59-2c.17-.14.22-.14.25.08a4.31,4.31,0,0,0,0,.85,1.86,1.86,0,0,0,1.83,1.8c1.73,0,4.44-2.3,5.68-4.43.26-.47.4-.91.27-1.13s-.38-.2-.69,0c-1.76,2.13-3.66,3.62-4.29,3.62-.41,0-.68-.34-.67-1.2A10.49,10.49,0,0,1,104.85,13c.09-.22.23-.51-.53-.91a.53.53,0,0,0-.66.08c-.17.09-.3.09-.36,0a1.15,1.15,0,0,0-.84-.52m-1,1.84a.72.72,0,0,1,.65.51,1,1,0,0,1-.18.81,8.92,8.92,0,0,1-.95,1.25,15.23,15.23,0,0,1-1.71,1.67,2.56,2.56,0,0,1-1,.56c-.22,0-.27-.34-.18-.67a8.66,8.66,0,0,1,1.92-3c.81-.83,1.25-1.12,1.5-1.12"/><path class="cls-21" d="M112.31,6.67c-.6,0-.93.27-1,1a3.17,3.17,0,0,0,.12,1.23A1.73,1.73,0,0,0,112.58,10c.52.17.91.14.92-.34a9.55,9.55,0,0,1,.2-2c.14-.61-.59-1-1.39-1m-3.68,14a5.08,5.08,0,0,0,1.68-.34,14.55,14.55,0,0,0,5.3-4.31c.36-.51.45-.91.32-1.12s-.38-.2-.72.12c-1.56,1.54-4.32,3.74-5.2,3.74-.52,0-.57-.34-.28-1.1A20.88,20.88,0,0,1,112,13a1,1,0,0,0-.33-1.25,1.38,1.38,0,0,0-.63-.17c-.79,0-2.66,3.61-3,4a11.51,11.51,0,0,0-.78,2.56,1.7,1.7,0,0,0,0,1.47,1.49,1.49,0,0,0,1.32,1"/><path class="cls-22" d="M120.07,11.62a6,6,0,0,0-3.21,1.07,3.66,3.66,0,0,0-1.69,2.4,2.85,2.85,0,0,0,.26,1,8.71,8.71,0,0,0,.88,1.38,2.46,2.46,0,0,1,.61,1.15c0,.15-.22.34-.58.34a1.94,1.94,0,0,1-.82-.15.57.57,0,0,0-.68,0,2.76,2.76,0,0,0-1,.68.57.57,0,0,0-.23.51c.1.54,1.14.91,1.88.91a3.13,3.13,0,0,0,1-.22,9.51,9.51,0,0,0,2-1,2.11,2.11,0,0,0,.71-1.25,3.34,3.34,0,0,0-1-2.06,2.86,2.86,0,0,1-.79-1.58c0-.75,1.92-1.39,3.62-1.39.47,0,.88-.19.89-.66a.83.83,0,0,0-.45-.76,2.56,2.56,0,0,0-1.45-.34"/><path class="cls-21" d="M126.57,6.7c-.6,0-.94.27-1,1A3.45,3.45,0,0,0,125.68,9,1.76,1.76,0,0,0,126.84,10c.52.18.91.15.92-.34a10.06,10.06,0,0,1,.19-2c.15-.62-.58-1-1.38-1m-3.68,13.94a4.79,4.79,0,0,0,1.68-.33A14.64,14.64,0,0,0,129.86,16c.37-.52.46-.91.33-1.13s-.39-.19-.72.12c-1.57,1.54-4.33,3.75-5.2,3.75-.52,0-.57-.35-.29-1.11a21.47,21.47,0,0,1,2.28-4.58,1,1,0,0,0-.33-1.25,1.8,1.8,0,0,0-.7-.09c-.79,0-2.66,3.76-2.8,4.1a21.61,21.61,0,0,0-.9,2.38,1.73,1.73,0,0,0,0,1.48,1.49,1.49,0,0,0,1.33,1"/><path class="cls-22" d="M131.75,11.22a1.83,1.83,0,0,0-1.61,1.15,32.32,32.32,0,0,0-2.11,6.1,1.45,1.45,0,0,0,.06,1.23,1,1,0,0,0,.81.47c.17,0,.44-.08.75-.49a29.75,29.75,0,0,1,4.29-4.63c.41-.34.55-.44.63-.34s0,.24-.12.51a16.93,16.93,0,0,0-.61,2c-.62,2.38.29,3.65,1.67,3.66s3.72-1,6.06-4.53c.45-.61.49-1,.35-1.2s-.33-.08-.46.07c-1.68,1.74-4.06,3.94-5.05,3.94-.44,0-.86-.49-.43-2a19.75,19.75,0,0,1,1.3-3.16c.25-.5.53-.91.65-1.13a.91.91,0,0,0-.23-1.25,1.3,1.3,0,0,0-.84-.27,1.49,1.49,0,0,0-.78.39c-.48.34-.73.54-1.53,1.17s-2.56,2-3.07,2.45c-.25.29-.44.2-.32-.08a10.1,10.1,0,0,1,.8-1.83,6.2,6.2,0,0,0,.7-1.21c0-.51-.14-1-.91-1"/><path class="cls-13" d="M143,18.87c0,.22.1.39.3.39.66,0,2.05-1.22,2.44-1.58a8.45,8.45,0,0,0,1.49-1.6,1.76,1.76,0,0,1,.94-.66,1,1,0,0,0,.36-.12.42.42,0,0,0,.14-.27c0-.17-.34-.47-.92-.47a4.72,4.72,0,0,0-3.38,1.74A5.69,5.69,0,0,0,143,18.87m5.47-6.22c1.48,0,1.91,1,1.89,1.55a1.69,1.69,0,0,1-.84,1.3c-.22.12-.28.22-.2.27s.07.46,0,.71a52.6,52.6,0,0,1-1.64,6.23,6.08,6.08,0,0,1-2.43,3,8.47,8.47,0,0,1-3.7,1.31,5.32,5.32,0,0,1-1.18-.11,3,3,0,0,0-.91-.12c-.63,0-1.85-.44-1.84-1.11s1.09-1.27,1.67-1.27a2.4,2.4,0,0,1,1.25.54,2.33,2.33,0,0,0,1.31.55c.79,0,1.94-.42,3.16-2a5.93,5.93,0,0,0,.85-2c.27-1.09.41-1.76.48-2.11s-.08-.17-.25-.05A16.36,16.36,0,0,1,144,20.71a6.65,6.65,0,0,1-2.54.86c-.65,0-1.19-.81-1.18-1.5a6.83,6.83,0,0,1,1.91-3.9A12.82,12.82,0,0,1,146,13.33a6.81,6.81,0,0,1,2.51-.68"/><path class="cls-21" d="M147.47,11.64a6.81,6.81,0,0,0-2.51.68,12.82,12.82,0,0,0-3.76,2.84,6.83,6.83,0,0,0-1.91,3.9c0,.68.52,1.5,1.18,1.5A6.65,6.65,0,0,0,143,19.7a17.14,17.14,0,0,0,2.09-1.37c.16-.12.27-.15.24.05s-.2,1-.47,2.11a5.85,5.85,0,0,1-.85,2c-1.22,1.6-2.37,2-3.16,2a2.36,2.36,0,0,1-1.31-.55,2.32,2.32,0,0,0-1.25-.54c-.58,0-1.66.68-1.67,1.27s1.21,1.11,1.84,1.11a2.75,2.75,0,0,1,.91.13,6.09,6.09,0,0,0,1.18.09,8.31,8.31,0,0,0,3.7-1.3,6,6,0,0,0,2.42-3,49.89,49.89,0,0,0,1.66-6.23c0-.25.11-.59,0-.71s0-.15.2-.27a1.67,1.67,0,0,0,.84-1.3,1.66,1.66,0,0,0-1.89-1.55M142,17.86a5.57,5.57,0,0,1,1.36-2.57,4.72,4.72,0,0,1,3.38-1.74c.57,0,.93.3.92.47a.42.42,0,0,1-.14.27,1,1,0,0,1-.36.12,1.71,1.71,0,0,0-.94.66,8.22,8.22,0,0,1-1.49,1.59c-.39.37-1.78,1.6-2.44,1.6-.19,0-.3-.18-.29-.4"/><path class="cls-23" d="M204.27,54.11a1.43,1.43,0,0,1,.55.54,1.54,1.54,0,0,1,.22.79,1.49,1.49,0,0,1-.43,1.06,1.4,1.4,0,0,1-2,0,1.49,1.49,0,0,1-.43-1.06,1.53,1.53,0,0,1,.41-1,1.4,1.4,0,0,1,1.08-.45,1.46,1.46,0,0,1,.64.17m-1.51-.33a1.76,1.76,0,0,0-.7.66,1.92,1.92,0,0,0-.27,1,1.82,1.82,0,0,0,.52,1.32,1.75,1.75,0,0,0,2.55,0,1.92,1.92,0,0,0,0-2.63,1.73,1.73,0,0,0-1.32-.56,1.76,1.76,0,0,0-.78.21m.42,2.66v-.82h.1a.38.38,0,0,1,.28.11,1.45,1.45,0,0,1,.25.39l.16.32h.48l-.22-.4a2.52,2.52,0,0,0-.22-.34.43.43,0,0,0-.19-.13.72.72,0,0,0,.39-.19.53.53,0,0,0,.13-.36.62.62,0,0,0-.15-.4.66.66,0,0,0-.49-.16h-.91v2Zm0-1.67h.35a.46.46,0,0,1,.29.07.22.22,0,0,1,.11.2.25.25,0,0,1-.11.21.64.64,0,0,1-.33.06h-.31Z"/><path class="cls-23" d="M96.46,75.37,96,74.52c-3.05,3.07-5.36,4.9-9,5.38-4.06.54-6.15-3-5.81-5-1.75,2.34-8.44,10.39-15,6.79A7.78,7.78,0,0,1,65,80.81a25.15,25.15,0,0,1-1.94,3.46c-4.25,6.62-12.62,16.17-25.6,17.7-9,1.06-14.47-1.86-19-7C13.77,89.54,12.62,82.52,13,76a81.93,81.93,0,0,1,6.87-28A92.54,92.54,0,0,1,33.72,25.72c6.46-7.8,13.87-13.42,21.51-16.14A26.37,26.37,0,0,1,64.6,8.05C75,8.21,83.8,20,78,31.93a27.29,27.29,0,0,1-8.86,10.76,2.24,2.24,0,0,1-1.87.57c-3-.88-7.74-4.75-8.11-8-.14-1.24.81-2,1.47-2.66,2.66-2.88,3.75-3.9,7.67-8.51,1.55-1.82,2.58-3.76,2-5.15-1.11-2.68-3.67-2.88-7.08-2-1.78.46-7.34,2.85-13.58,9.35a65.26,65.26,0,0,0-11.21,17C33.16,54.47,29,65.73,29.4,74.58c.16,3.37,1.07,7.86,3.78,11.11s7.21,4.3,10.73,4.24c8.88-.12,17.43-17.78,17.63-20.26A42.29,42.29,0,0,1,66.28,53.1C71.76,42.38,79.8,33.78,88,35.56a7.51,7.51,0,0,1,5.92,5.59,19.22,19.22,0,0,1,1-2.34c.62-1.16,1.64-1.36,3.26-1.89,2.15-.72,3.31-8.64,6-8.69,1.74,0,6.29.82,5.6,3.57-.32,1.31-14.25,32-15.17,33.86-2.54,5.22-.1,4.69,1.19,4.06a18.55,18.55,0,0,0,6.19-5.46c4.78-10.92,11.7-27,12-27.78s.65-2,1.79-2.33c2.33-.7,7.36-1.92,10-1.92.75,0,1.42.19,1.14.85-.41,1-1.31,2.37-1.84,3.82,2.71-3.38,6.76-13.85,11.19-12.61,6.38,1.81,9.73,7.8,7.83,12.53s-9.89,23.46-10.52,25.09c-1,2.5,5.23-.47,6.49-2.41a31.3,31.3,0,0,1,2.11-11.28c2.57-6.41,8.26-18.68,17.53-22.6,5.59-2.36,10.22-.11,12.17,2.57s2.27,7.75.54,11.61a28.49,28.49,0,0,1-7.25,10.12c-3.43,3.12-7.81,5.51-14.13,7.35-.18,3.75-1.2,2.89.31,4,1.18.89,12.4-5.55,15.6-9.19a99.11,99.11,0,0,0,8.09-11c4.53-6.74,10.88-17,16-22.26a6.3,6.3,0,0,1,1.6-1.21,1.62,1.62,0,0,1,.77-.16c1.15.07,4.06,6.46,3.35,7.39a1,1,0,0,1-.45.32,8.86,8.86,0,0,0-1.14.61c-1.76,1.22-3.41,2.92-3,5.1s4.81,10,5.47,13.85c.42,2.44,13.74-10.43,13.26-8.19.17,2.87.25,4.2.35,7-1.42,2.46-2.55,4.5-3.75,6.75a6.8,6.8,0,0,0-2.42-.06c-3.47.47-8.19,4.92-10.33,8-1.93,2.75-6,7-11.08,7.62-5.68.65-9.19-1.6-10.79-4.16a11.88,11.88,0,0,1-1-1.94l1.78-2.23a3.73,3.73,0,0,0,.92.86,8.69,8.69,0,0,0,4.4,1.28c3.78.06,7-2.05,8.36-6.61,1.39-4.87-1-14.6-1.07-16a17,17,0,0,1,0-3.29c-2.6,4.51-6.77,11.06-9.17,14.58-3.61,5.29-8.62,12.7-16.62,19-3,2.4-9.16,6.6-15.48,3.45-2.33-1.15-4.49-2.75-5.19-5.63l-.26.53c-2.18,2.75-7.47,9.39-14.25,7.47-4.33-1.23-6.81-6-7.58-7.38-2.61-4.61,8.53-15.55,10.39-19.89.46-1,1.36-4.23-.4-4.48-2.39-.33-5.89,2.93-7.51,6.77-1.76,4.21-10.18,23.62-11,25.32a2.06,2.06,0,0,1-1.4,1.29c-1.93.32-8.24,1.62-10.27,1.45-.66-.06-.85-.35-1.13-.91M89.64,50.64c.9-2.11.51-4.59-1.13-5.51-1.23-.7-3.85.19-5.12,1.65A39.66,39.66,0,0,0,77,56.7a51.75,51.75,0,0,0-2.82,7.12c-1.1,3.77-1.67,7.34,1.39,8,2.54.59,6.12-1.68,7.1-4.14,2.19-5.44,4.84-12.09,7-17.07m75.78-14c.34-2.71-1.46-2.91-3.19-1.63-5.72,4.21,2.35,8.22,3.19,1.63m10.77-13.43c-2.92,1.09-4.15-.09-5.35-1.8-1-1.43,5.55-2.25,5.9-3.36a13.8,13.8,0,0,1-1.52-.81,3.5,3.5,0,0,1-1.48-1.92c-1.4-3.49.88-9.32,6.09-10,4.24-.58,6.52,2.45,6.22,5.88-.24,2.75-1.37,6.49-5.87,9.89a18.14,18.14,0,0,1-4,2.16"/><path class="cls-23" d="M149.33,46.59c6.08-3,12.53-9.1,13.36-15.7.35-2.71-1.46-2.9-3.19-1.63-5.72,4.21-9.75,14.9-10.17,17.33M86.91,44.87c.91-2.1.51-4.58-1.12-5.51-1.24-.7-3.86.19-5.13,1.65a39.89,39.89,0,0,0-6.39,9.93,51.13,51.13,0,0,0-2.83,7.11c-1.1,3.77-1.4,8.26,1.65,9,2.54.57,5.86-2.61,6.85-5.07,2.18-5.44,4.84-12.09,7-17.07m7.51,24.39c.24-.7.72-1.41,1.09-2.36C92.46,70,88,73.65,84.32,74.14c-4.07.53-6.16-3-5.82-5-1.75,2.33-8.43,10.39-15,6.78A7.2,7.2,0,0,1,62.26,75a23,23,0,0,1-1.93,3.46C56.08,85.12,47.7,94.67,34.72,96.21c-9,1.05-14.46-1.87-18.95-7-4.73-5.43-5.87-12.44-5.48-19a81.81,81.81,0,0,1,6.87-28A91.91,91.91,0,0,1,31,20c6.45-7.8,13.86-13.42,21.5-16.14a26.2,26.2,0,0,1,9.38-1.52c10.42.16,19.19,12,13.42,23.87a27.2,27.2,0,0,1-8.86,10.76,2.23,2.23,0,0,1-1.86.58c-3-.89-7.75-4.76-8.12-8-.14-1.23.81-2,1.47-2.66C60.6,24,61.69,23,65.6,18.35c1.55-1.83,2.59-3.77,2-5.15-1.1-2.69-3.67-2.89-7.08-2C58.76,11.65,53.21,14,47,20.55a64.67,64.67,0,0,0-11.2,17C30.44,48.7,26.24,60,26.67,68.81c.17,3.37,1.08,7.86,3.79,11.11s7.2,4.3,10.72,4.25c8.88-.13,15.64-7.87,17.14-9.42a19.82,19.82,0,0,0,1.82-2.46,16.43,16.43,0,0,1-1.32-8.39,42.23,42.23,0,0,1,4.73-16.57C69,36.62,77.07,28,85.23,29.79a7.52,7.52,0,0,1,5.92,5.59,21.79,21.79,0,0,1,1-2.33c.63-1.17,1.64-1.37,3.26-1.9A26.83,26.83,0,0,1,103,29.6c1.75,0,2,.66,1,2.92C103.56,33.77,92.75,58,91.83,59.9c-2.54,5.21-.1,4.68,1.18,4.06a18.71,18.71,0,0,0,6.2-5.47c4.78-10.92,11.69-27,12.05-27.78s.64-2,1.78-2.32a46,46,0,0,1,10-1.92c.76,0,1.42.18,1.15.84-.42,1-1.31,2.37-1.85,3.83,2.72-3.38,8-6.57,12.48-5.61s6,6.31,4.15,11-7.5,18-8.13,19.57c-1,2.5.25,3.58,1.87,2.77s3.37-3.23,4.62-5.18a31.42,31.42,0,0,1,2.12-11.27C142,36,147.72,23.78,157,19.86c5.6-2.37,10.23-.12,12.17,2.56s2.27,7.75.54,11.62a28.52,28.52,0,0,1-7.24,10.12c-3.43,3.12-7.81,5.5-14.14,7.34-.18,3.75,0,5,1.51,6.21,1.18.89,4.18.55,6.64-1.11a48.18,48.18,0,0,0,9-8.08,111.43,111.43,0,0,0,8.66-11.59c4.53-6.74,9.11-18.61,14.21-23.84a6.19,6.19,0,0,1,1.6-1.22,1.58,1.58,0,0,1,.76-.16c1.15.07,4.07,6.47,3.36,7.39a1.06,1.06,0,0,1-.45.33,8.37,8.37,0,0,0-1.15.6c-1.76,1.23-3.4,2.92-3,5.1.47,2.33,4.81,10,5.47,13.86a16,16,0,0,1-.07,6.55c2.59-3.11,8.78-8.47,13.69-7.72-1.43,2.45-2.55,4.49-3.76,6.74a6.57,6.57,0,0,0-2.41-.05c-3.48.46-8.2,4.92-10.33,8-1.93,2.75-6,7-11.09,7.63-5.68.65-9.18-1.61-10.78-4.17a11.59,11.59,0,0,1-1-1.94L171,51.77a3.72,3.72,0,0,0,.93.85,8.7,8.7,0,0,0,4.4,1.29c3.77.06,7-2.06,8.35-6.62,1.39-4.86-1-14.59-1.06-16a16.28,16.28,0,0,1,0-3.29c-2.6,4.51-6.76,11.06-9.17,14.59-3.61,5.28-8.61,12.69-16.62,19-3.05,2.4-9.15,6.6-15.48,3.45-2.32-1.15-3.74-3.5-4.45-6.38a2.35,2.35,0,0,1-.19.25c-2.17,2.74-8.27,10.42-15,8.5-4.33-1.22-5.21-5.18-4-9.3a184,184,0,0,1,6.85-18c.45-1,1.36-4.23-.4-4.48-2.4-.32-5.9,2.94-7.51,6.77-1.77,4.21-10.18,23.63-11,25.32a2,2,0,0,1-1.39,1.29c-1.94.32-8.25,1.63-10.27,1.46-.67-.06-.69-.56-.45-1.26"/><path class="cls-24" d="M149.33,46.59c6.08-3,12.53-9.1,13.36-15.7.35-2.71-1.46-2.9-3.19-1.63-5.72,4.21-9.75,14.9-10.17,17.33M86.91,44.87c.91-2.1.51-4.58-1.12-5.51-1.24-.7-3.86.19-5.13,1.65a39.89,39.89,0,0,0-6.39,9.93,51.13,51.13,0,0,0-2.83,7.11c-1.1,3.77-1.4,8.26,1.65,9,2.54.57,5.86-2.61,6.85-5.07,2.18-5.44,4.84-12.09,7-17.07m7.51,24.39c.24-.7.72-1.41,1.09-2.36C92.46,70,88,73.65,84.32,74.14c-4.07.53-6.16-3-5.82-5-1.75,2.33-8.43,10.39-15,6.78A7.2,7.2,0,0,1,62.26,75a23,23,0,0,1-1.93,3.46C56.08,85.12,47.7,94.67,34.72,96.21c-9,1.05-14.46-1.87-18.95-7-4.73-5.43-5.87-12.44-5.48-19a81.81,81.81,0,0,1,6.87-28A91.91,91.91,0,0,1,31,20c6.45-7.8,13.86-13.42,21.5-16.14a26.2,26.2,0,0,1,9.38-1.52c10.42.16,19.19,12,13.42,23.87a27.2,27.2,0,0,1-8.86,10.76,2.23,2.23,0,0,1-1.86.58c-3-.89-7.75-4.76-8.12-8-.14-1.23.81-2,1.47-2.66C60.6,24,61.69,23,65.6,18.35c1.55-1.83,2.59-3.77,2-5.15-1.1-2.69-3.67-2.89-7.08-2C58.76,11.65,53.21,14,47,20.55a64.67,64.67,0,0,0-11.2,17C30.44,48.7,26.24,60,26.67,68.81c.17,3.37,1.08,7.86,3.79,11.11s7.2,4.3,10.72,4.25c8.88-.13,15.64-7.87,17.14-9.42a19.82,19.82,0,0,0,1.82-2.46,16.43,16.43,0,0,1-1.32-8.39,42.23,42.23,0,0,1,4.73-16.57C69,36.62,77.07,28,85.23,29.79a7.52,7.52,0,0,1,5.92,5.59,21.79,21.79,0,0,1,1-2.33c.63-1.17,1.64-1.37,3.26-1.9A26.83,26.83,0,0,1,103,29.6c1.75,0,2,.66,1,2.92C103.56,33.77,92.75,58,91.83,59.9c-2.54,5.21-.1,4.68,1.18,4.06a18.71,18.71,0,0,0,6.2-5.47c4.78-10.92,11.69-27,12.05-27.78s.64-2,1.78-2.32a46,46,0,0,1,10-1.92c.76,0,1.42.18,1.15.84-.42,1-1.31,2.37-1.85,3.83,2.72-3.38,8-6.57,12.48-5.61s6,6.31,4.15,11-7.5,18-8.13,19.57c-1,2.5.25,3.58,1.87,2.77s3.37-3.23,4.62-5.18a31.42,31.42,0,0,1,2.12-11.27C142,36,147.72,23.78,157,19.86c5.6-2.37,10.23-.12,12.17,2.56s2.27,7.75.54,11.62a28.52,28.52,0,0,1-7.24,10.12c-3.43,3.12-7.81,5.5-14.14,7.34-.18,3.75,0,5,1.51,6.21,1.18.89,4.18.55,6.64-1.11a48.18,48.18,0,0,0,9-8.08,111.43,111.43,0,0,0,8.66-11.59c4.53-6.74,9.11-18.61,14.21-23.84a6.19,6.19,0,0,1,1.6-1.22,1.58,1.58,0,0,1,.76-.16c1.15.07,4.07,6.47,3.36,7.39a1.06,1.06,0,0,1-.45.33,8.37,8.37,0,0,0-1.15.6c-1.76,1.23-3.4,2.92-3,5.1.47,2.33,4.81,10,5.47,13.86a16,16,0,0,1-.07,6.55c2.59-3.11,8.78-8.47,13.69-7.72-1.43,2.45-2.55,4.49-3.76,6.74a6.57,6.57,0,0,0-2.41-.05c-3.48.46-8.2,4.92-10.33,8-1.93,2.75-6,7-11.09,7.63-5.68.65-9.18-1.61-10.78-4.17a11.59,11.59,0,0,1-1-1.94L171,51.77a3.72,3.72,0,0,0,.93.85,8.7,8.7,0,0,0,4.4,1.29c3.77.06,7-2.06,8.35-6.62,1.39-4.86-1-14.59-1.06-16a16.28,16.28,0,0,1,0-3.29c-2.6,4.51-6.76,11.06-9.17,14.59-3.61,5.28-8.61,12.69-16.62,19-3.05,2.4-9.15,6.6-15.48,3.45-2.32-1.15-3.74-3.5-4.45-6.38a2.35,2.35,0,0,1-.19.25c-2.17,2.74-8.27,10.42-15,8.5-4.33-1.22-5.21-5.18-4-9.3a184,184,0,0,1,6.85-18c.45-1,1.36-4.23-.4-4.48-2.4-.32-5.9,2.94-7.51,6.77-1.77,4.21-10.18,23.63-11,25.32a2,2,0,0,1-1.39,1.29c-1.94.32-8.25,1.63-10.27,1.46C94.2,70.46,94.18,70,94.42,69.26Z"/><path class="cls-23" d="M173.11,21.33c-2.92,1.1-2.9-.78-1.64-2a9.78,9.78,0,0,0,2.71-3.42,16.66,16.66,0,0,1-1.51-.81,3.5,3.5,0,0,1-1.48-1.92c-1.4-3.48.87-9.32,6.09-10,4.24-.58,6.52,2.44,6.22,5.88-.25,2.75-1.38,6.49-5.88,9.89a22.73,22.73,0,0,1-4.51,2.4"/><path class="cls-25" d="M173.55,19.4a13.57,13.57,0,0,0,7.42-7c1.88-4.75-.14-7.74-3.43-7.42a5.73,5.73,0,0,0-4.91,4.69c-.43,1.93.11,3.45,1.35,4.09.35.18,1.49.66,1.69,1,.94,1.62-.73,3.29-2.12,4.67"/><path class="cls-25" d="M149.33,45.1c6.08-3,12.53-9.11,13.36-15.7.35-2.71-1.46-2.9-3.19-1.63-5.72,4.22-9.75,14.9-10.17,17.33M86.91,43.38c.91-2.11.51-4.58-1.12-5.51-1.24-.7-3.86.19-5.13,1.65a40,40,0,0,0-6.39,9.92,51.76,51.76,0,0,0-2.83,7.12c-1.1,3.77-1.4,8.25,1.65,9,2.54.58,5.86-2.59,6.85-5.06,2.18-5.44,4.84-12.08,7-17.07m7.51,24.39c.24-.7.72-1.41,1.09-2.36-3.05,3.08-7.56,6.75-11.19,7.23-4.07.54-6.16-3-5.82-5C76.75,70,70.07,78,63.54,74.42a7.78,7.78,0,0,1-1.28-.87A23.49,23.49,0,0,1,60.33,77c-4.25,6.62-12.63,16.17-25.61,17.7-9,1.06-14.46-1.86-18.95-7C11,82.28,9.9,75.26,10.29,68.7a81.81,81.81,0,0,1,6.87-28.05A91.91,91.91,0,0,1,31,18.46C37.45,10.66,44.86,5,52.5,2.32A26.43,26.43,0,0,1,61.88.79C72.3,1,81.07,12.77,75.3,24.67a27.28,27.28,0,0,1-8.86,10.76,2.18,2.18,0,0,1-1.86.57c-3-.88-7.75-4.75-8.12-8-.14-1.24.81-1.95,1.47-2.66,2.67-2.88,3.76-3.89,7.67-8.5,1.55-1.83,2.59-3.77,2-5.16C66.52,9,64,8.82,60.54,9.7c-1.78.46-7.33,2.85-13.58,9.35a65,65,0,0,0-11.2,17c-5.32,11.16-9.52,22.42-9.09,31.27.17,3.37,1.08,7.86,3.79,11.11s7.2,4.29,10.72,4.25c8.88-.13,15.64-7.87,17.14-9.43a19,19,0,0,0,1.82-2.45,16.45,16.45,0,0,1-1.32-8.39,42.23,42.23,0,0,1,4.73-16.57C69,35.12,77.07,26.52,85.23,28.29a7.53,7.53,0,0,1,5.92,5.6,21.79,21.79,0,0,1,1-2.33c.63-1.17,1.64-1.37,3.26-1.9A26.83,26.83,0,0,1,103,28.11c1.75,0,2,.65,1,2.92-.49,1.24-11.3,25.48-12.22,27.38-2.54,5.21-.1,4.68,1.18,4.06A18.71,18.71,0,0,0,99.21,57C104,46.08,110.9,30,111.26,29.22s.64-2,1.78-2.33a46.64,46.64,0,0,1,10-1.91c.76,0,1.42.18,1.15.84-.42,1-1.31,2.37-1.85,3.83,2.72-3.38,8-6.57,12.48-5.61s6,6.31,4.15,11-7.5,17.94-8.13,19.57c-1,2.5.25,3.58,1.87,2.77s3.37-3.24,4.62-5.18A31.42,31.42,0,0,1,139.47,41c2.56-6.42,8.25-18.69,17.52-22.6,5.6-2.37,10.23-.11,12.17,2.56,2.05,2.82,2.27,7.75.54,11.62a28.39,28.39,0,0,1-7.24,10.11c-3.43,3.12-7.81,5.51-14.14,7.35-.18,3.74,0,5.06,1.51,6.2,1.18.91,4.18.56,6.64-1.1a48.18,48.18,0,0,0,9-8.08,110.59,110.59,0,0,0,8.66-11.6c4.53-6.74,9.11-18.59,14.21-23.84a5.86,5.86,0,0,1,1.6-1.2,1.48,1.48,0,0,1,.76-.17c1.15.07,4.07,6.47,3.36,7.39a1,1,0,0,1-.45.32,9.71,9.71,0,0,0-1.15.61c-1.76,1.23-3.4,2.92-3,5.1s4.81,10,5.47,13.86a16,16,0,0,1-.07,6.55c2.59-3.12,8.78-8.47,13.69-7.72-1.43,2.45-2.55,4.48-3.76,6.73a7,7,0,0,0-2.41-.05c-3.48.47-8.2,4.92-10.33,8-1.93,2.75-6,7-11.09,7.62-5.68.65-9.18-1.6-10.78-4.16a11.59,11.59,0,0,1-1-1.94L171,50.27a3.81,3.81,0,0,0,.93.87,8.74,8.74,0,0,0,4.4,1.27c3.77.07,7-2,8.35-6.61,1.39-4.87-1-14.6-1.06-16a16.28,16.28,0,0,1,0-3.29C181,31,176.87,37.58,174.46,41.1c-3.61,5.29-8.61,12.7-16.62,19-3.05,2.41-9.15,6.61-15.48,3.47-2.32-1.16-3.74-3.51-4.45-6.39a2.23,2.23,0,0,1-.19.24c-2.17,2.75-8.27,10.43-15,8.51-4.33-1.22-5.21-5.18-4-9.3a183,183,0,0,1,6.85-18c.45-1.05,1.36-4.24-.4-4.47-2.4-.34-5.9,2.92-7.51,6.76-1.77,4.21-10.18,23.63-11,25.32a2,2,0,0,1-1.39,1.29c-1.94.32-8.25,1.62-10.27,1.45-.67-.06-.69-.55-.45-1.25"/><path class="cls-23" d="M173.11,21.33c-2.92,1.1-2.9-.78-1.64-2a9.78,9.78,0,0,0,2.71-3.42,16.66,16.66,0,0,1-1.51-.81,3.5,3.5,0,0,1-1.48-1.92c-1.4-3.48.87-9.32,6.09-10,4.24-.58,6.52,2.44,6.22,5.88-.25,2.75-1.38,6.49-5.88,9.89a22.73,22.73,0,0,1-4.51,2.4"/><path class="cls-25" d="M173.55,19.4a13.57,13.57,0,0,0,7.42-7c1.88-4.75-.14-7.74-3.43-7.42a5.73,5.73,0,0,0-4.91,4.69c-.43,1.93.11,3.45,1.35,4.09.35.18,1.49.66,1.69,1,.94,1.62-.73,3.29-2.12,4.67"/><path class="cls-25" d="M80.76,85.47a2.82,2.82,0,0,0-2.35.72A2.64,2.64,0,0,0,78,88v5.56a2,2,0,0,0,1.43,2.29,5.66,5.66,0,0,0,1.3.1h4.44V92.1l-.55-.76L82.5,93.78H80.89V87.65H82.5v1.21H85V85.47l-.68-.91Z"/><path class="cls-26" d="M80.76,85.47a2.82,2.82,0,0,0-2.35.72A2.64,2.64,0,0,0,78,88v5.56a2,2,0,0,0,1.43,2.29,5.66,5.66,0,0,0,1.3.1h4.44V92.1l-.55-.76L82.5,93.78H80.89V87.65H82.5v1.21H85V85.47l-.68-.91Z"/><polygon class="cls-27" points="86.17 89.04 86.77 89.04 86.77 94.14 85.57 94.58 86.17 95.96 89.2 95.96 89.2 92.45 89.12 93.83 90.48 95.96 93.53 95.96 93.53 94.14 92.94 94.14 92.94 89.04 93.53 89.04 93.53 87.22 92.92 86.32 90.48 87.22 90.48 90.61 89.2 90.61 89.2 87.22 88.56 86.32 86.17 87.22 86.17 89.04"/><polygon class="cls-26" points="86.17 89.04 86.77 89.04 86.77 94.14 85.57 94.58 86.17 95.96 89.2 95.96 89.2 92.45 89.12 93.83 90.48 95.96 93.53 95.96 93.53 94.14 92.94 94.14 92.94 89.04 93.53 89.04 93.53 87.22 92.92 86.32 90.48 87.22 90.48 90.61 89.2 90.61 89.2 87.22 88.56 86.32 86.17 87.22 86.17 89.04"/><polygon class="cls-25" points="94.66 89.04 95.25 89.04 95.25 94.14 93.92 94.23 94.66 95.96 98.31 95.96 98.31 94.14 97.71 94.14 97.71 89.04 98.31 89.04 98.31 87.22 97.7 86.32 94.66 87.22 94.66 89.04"/><polygon class="cls-26" points="94.66 89.04 95.25 89.04 95.25 94.14 93.92 94.23 94.66 95.96 98.31 95.96 98.31 94.14 97.71 94.14 97.71 89.04 98.31 89.04 98.31 87.22 97.7 86.32 94.66 87.22 94.66 89.04"/><path class="cls-25" d="M101.81,87.22a2.33,2.33,0,0,0-2,.6,2.16,2.16,0,0,0-.39,1.52V94a1.67,1.67,0,0,0,1.19,1.91,5,5,0,0,0,1.09.08h3.7v-3l-.52-.88-1.66,2.1h-1.34V89h1.34v1h2.08V87.22l-.64-.89Z"/><path class="cls-26" d="M101.81,87.22a2.33,2.33,0,0,0-2,.6,2.16,2.16,0,0,0-.39,1.52V94a1.67,1.67,0,0,0,1.19,1.91,5,5,0,0,0,1.09.08h3.7v-3l-.52-.88-1.66,2.1h-1.34V89h1.34v1h2.08V87.22l-.64-.89Z"/><polygon class="cls-25" points="113.31 86.49 109.7 91.01 109.7 87.22 109.08 86.33 106.64 87.22 106.64 89.04 107.23 89.04 107.23 94.14 105.73 94.43 106.64 95.96 109.7 95.96 109.7 92.62 111.02 92.62 110.44 95.34 111.02 95.96 114.09 95.96 114.09 94.14 113.43 94.14 113.43 91.01 111.88 91.01 113.02 89.04 113.83 89.04 113.83 87.22 113.31 86.49"/><polygon class="cls-26" points="113.31 86.49 109.7 91.01 109.7 87.22 109.08 86.33 106.64 87.22 106.64 89.04 107.23 89.04 107.23 94.14 105.73 94.43 106.64 95.96 109.7 95.96 109.7 92.62 111.02 92.62 110.44 95.34 111.02 95.96 114.09 95.96 114.09 94.14 113.43 94.14 113.43 91.01 111.88 91.01 113.02 89.04 113.83 89.04 113.83 87.22 113.31 86.49"/><polygon class="cls-25" points="115 89.04 115.58 89.04 115.58 94.14 114.83 94.14 114.83 95.96 121.5 95.96 121.5 93.02 120.97 92.27 119.3 94.14 118 94.14 118 92.31 119.83 92.31 119.83 90.7 118 90.7 118 89.04 119.3 89.04 119.3 90.08 121.35 90.08 121.35 87.22 120.73 86.27 115 87.22 115 89.04"/><polygon class="cls-26" points="115 89.04 115.58 89.04 115.58 94.14 114.83 94.14 114.83 95.96 121.5 95.96 121.5 93.02 120.97 92.27 119.3 94.14 118 94.14 118 92.31 119.83 92.31 119.83 90.7 118 90.7 118 89.04 119.3 89.04 119.3 90.08 121.35 90.08 121.35 87.22 120.73 86.27 115 87.22 115 89.04"/><path class="cls-25" d="M130.32,86.5l-2.22,4.22a11.4,11.4,0,0,0,.08,1.62,5.94,5.94,0,0,0-.55-1.28l-2-3.84h-2.89V89h.59v5.1l-1.35.79.76,1h2.8l0-4.25a7.86,7.86,0,0,0,0-.83,8.78,8.78,0,0,0,.72,1.68l1,2.57.8.83h2.88V94.14h-.59V89h.59V87.22Z"/><path class="cls-26" d="M130.32,86.5l-2.22,4.22a11.4,11.4,0,0,0,.08,1.62,5.94,5.94,0,0,0-.55-1.28l-2-3.84h-2.89V89h.59v5.1l-1.35.79.76,1h2.8l0-4.25a7.86,7.86,0,0,0,0-.83,8.78,8.78,0,0,0,.72,1.68l1,2.57.8.83h2.88V94.14h-.59V89h.59V87.22Z"/><polygon class="cls-25" points="136.34 87.65 137.07 87.65 137.07 93.78 136.34 93.78 135.55 95.17 136.34 95.96 140.73 95.96 140.73 93.78 140.04 93.78 140.04 91.53 142.26 91.53 142.26 89.63 140.04 89.63 140.04 87.65 141.65 87.65 141.65 88.8 144.22 88.8 144.22 85.47 143.57 84.61 136.34 85.47 136.34 87.65"/><polygon class="cls-26" points="136.34 87.65 137.07 87.65 137.07 93.78 136.34 93.78 135.55 95.17 136.34 95.96 140.73 95.96 140.73 93.78 140.04 93.78 140.04 91.53 142.26 91.53 142.26 89.63 140.04 89.63 140.04 87.65 141.65 87.65 141.65 88.8 144.22 88.8 144.22 85.47 143.57 84.61 136.34 85.47 136.34 87.65"/><polygon class="cls-25" points="145.09 89.04 145.68 89.04 145.68 94.14 145.09 94.14 144.36 95.31 145.09 95.96 148.75 95.96 148.75 94.14 148.14 94.14 148.14 89.04 148.75 89.04 148.75 87.22 148.18 86.4 145.09 87.22 145.09 89.04"/><polygon class="cls-26" points="145.09 89.04 145.68 89.04 145.68 94.14 145.09 94.14 144.36 95.31 145.09 95.96 148.75 95.96 148.75 94.14 148.14 94.14 148.14 89.04 148.75 89.04 148.75 87.22 148.18 86.4 145.09 87.22 145.09 89.04"/><path class="cls-25" d="M157.4,86.6l-2.25,4.12a11.4,11.4,0,0,0,.08,1.62,5.94,5.94,0,0,0-.55-1.28l-2-3.84h-2.88V89h.59v5.1l-1.24.59.65,1.23h2.8l-.06-4.25a7.86,7.86,0,0,0-.05-.83,8.34,8.34,0,0,0,.73,1.68l1.08,2.6.76.8h2.87V94.14h-.59V89h.59V87.22Z"/><path class="cls-26" d="M157.4,86.6l-2.25,4.12a11.4,11.4,0,0,0,.08,1.62,5.94,5.94,0,0,0-.55-1.28l-2-3.84h-2.88V89h.59v5.1l-1.24.59.65,1.23h2.8l-.06-4.25a7.86,7.86,0,0,0-.05-.83,8.34,8.34,0,0,0,.73,1.68l1.08,2.6.76.8h2.87V94.14h-.59V89h.59V87.22Z"/><path class="cls-27" d="M161,87.2c-.73,0-1.49,0-1.94.65a2.72,2.72,0,0,0-.29,1.51v4.53c0,.75,0,1.36.67,1.77A2.65,2.65,0,0,0,161,96H165V90.67L162,92.49h.74v1.65h-1.4l3.62-4.38V87.2l-.61-.85Z"/><path class="cls-26" d="M161,87.2c-.73,0-1.49,0-1.94.65a2.72,2.72,0,0,0-.29,1.51v4.53c0,.75,0,1.36.67,1.77A2.65,2.65,0,0,0,161,96H165V90.67L162,92.49h.74v1.65h-1.4l3.62-4.38V87.2l-.61-.85Z"/><polygon class="cls-25" points="166.13 89.04 166.72 89.04 166.72 94.14 165.61 94.92 166.13 95.96 172.63 95.96 172.63 93.02 172.13 92.33 170.43 94.14 169.13 94.14 169.13 92.31 170.97 92.31 170.97 90.7 169.13 90.7 169.13 89.04 170.43 89.04 170.43 90.08 172.49 90.08 172.49 87.22 171.89 86.3 166.13 87.22 166.13 89.04"/><polygon class="cls-26" points="166.13 89.04 166.72 89.04 166.72 94.14 165.61 94.92 166.13 95.96 172.63 95.96 172.63 93.02 172.13 92.33 170.43 94.14 169.13 94.14 169.13 92.31 170.97 92.31 170.97 90.7 169.13 90.7 169.13 89.04 170.43 89.04 170.43 90.08 172.49 90.08 172.49 87.22 171.89 86.3 166.13 87.22 166.13 89.04"/><path class="cls-27" d="M174,89h.57v5.1H174l-.85.88L174,96h3V92.41h1.38v2.65c0,.82.37.89,1.3.9h1.7V94.14h-.6V93.2a1.79,1.79,0,0,0-.35-1.18,1.54,1.54,0,0,0-.91-.45c1.29-.41,1.3-1.18,1.3-2.33a1.9,1.9,0,0,0-.49-1.58,2.48,2.48,0,0,0-1.68-.44H174V89m4.43,1.73H177V89h1.38Z"/><path class="cls-26" d="M174,89h.57v5.1H174l-.85.88L174,96h3V92.41h1.38v2.65c0,.82.37.89,1.3.9h1.7V94.14h-.6V93.2a1.79,1.79,0,0,0-.35-1.18,1.54,1.54,0,0,0-.91-.45c1.29-.41,1.3-1.18,1.3-2.33a1.9,1.9,0,0,0-.49-1.58,2.48,2.48,0,0,0-1.68-.44H174V89m4.43,1.73H177V89h1.38Z"/><path class="cls-25" d="M184.51,87.22a2.14,2.14,0,0,0-1.62.48,1.77,1.77,0,0,0-.43,1.34v1.45a1.84,1.84,0,0,0,.49,1.43,2.08,2.08,0,0,0,1.54.47h1.8v1.75h-1.38v-.85l-3.07,1.39.75,1.28h4a2.61,2.61,0,0,0,1.29-.22,1.78,1.78,0,0,0,.83-1.81v-1.4a1.64,1.64,0,0,0-.65-1.58,2.83,2.83,0,0,0-1.53-.31h-1.65V89h1.38v.76h2.18V87.22l-.64-.92Z"/><path class="cls-26" d="M184.51,87.22a2.14,2.14,0,0,0-1.62.48,1.77,1.77,0,0,0-.43,1.34v1.45a1.84,1.84,0,0,0,.49,1.43,2.08,2.08,0,0,0,1.54.47h1.8v1.75h-1.38v-.85l-3.07,1.39.75,1.28h4a2.61,2.61,0,0,0,1.29-.22,1.78,1.78,0,0,0,.83-1.81v-1.4a1.64,1.64,0,0,0-.65-1.58,2.83,2.83,0,0,0-1.53-.31h-1.65V89h1.38v.76h2.18V87.22l-.64-.92Z"/><path class="cls-23" d="M79.88,84.49a2.8,2.8,0,0,0-2.34.73A2.6,2.6,0,0,0,77.08,87V92.6a2,2,0,0,0,1.42,2.28,5.2,5.2,0,0,0,1.31.11h4.44V91.12H81.63v1.69H80V86.68h1.61v1.2h2.5V84.49Z"/><path class="cls-26" d="M79.88,84.49a2.8,2.8,0,0,0-2.34.73A2.6,2.6,0,0,0,77.08,87V92.6a2,2,0,0,0,1.42,2.28,5.2,5.2,0,0,0,1.31.11h4.44V91.12H81.63v1.69H80V86.68h1.61v1.2h2.5V84.49Z"/><polygon class="cls-23" points="85.3 88.06 85.89 88.06 85.89 93.17 85.3 93.17 85.3 94.99 88.33 94.99 88.33 91.47 89.6 91.47 89.6 94.99 92.65 94.99 92.65 93.17 92.07 93.17 92.07 88.06 92.65 88.06 92.65 86.24 89.6 86.24 89.6 89.64 88.33 89.64 88.33 86.24 85.3 86.24 85.3 88.06"/><polygon class="cls-26" points="85.3 88.06 85.89 88.06 85.89 93.17 85.3 93.17 85.3 94.99 88.33 94.99 88.33 91.47 89.6 91.47 89.6 94.99 92.65 94.99 92.65 93.17 92.07 93.17 92.07 88.06 92.65 88.06 92.65 86.24 89.6 86.24 89.6 89.64 88.33 89.64 88.33 86.24 85.3 86.24 85.3 88.06"/><polygon class="cls-23" points="93.79 88.06 94.38 88.06 94.38 93.17 93.42 93.17 93.42 94.02 93.79 94.99 97.44 94.99 97.44 93.17 96.84 93.17 96.84 88.06 97.44 88.06 97.44 86.24 93.79 86.24 93.79 88.06"/><polygon class="cls-26" points="93.79 88.06 94.38 88.06 94.38 93.17 93.42 93.17 93.42 94.02 93.79 94.99 97.44 94.99 97.44 93.17 96.84 93.17 96.84 88.06 97.44 88.06 97.44 86.24 93.79 86.24 93.79 88.06"/><path class="cls-23" d="M100.94,86.24a2.33,2.33,0,0,0-2,.61,2.18,2.18,0,0,0-.38,1.51V93a1.65,1.65,0,0,0,1.19,1.9,4.34,4.34,0,0,0,1.08.09h3.7V91.77h-2.18v1.4h-1.34V88.06h1.34v1h2.08V86.24Z"/><path class="cls-26" d="M100.94,86.24a2.33,2.33,0,0,0-2,.61,2.18,2.18,0,0,0-.38,1.51V93a1.65,1.65,0,0,0,1.19,1.9,4.34,4.34,0,0,0,1.08.09h3.7V91.77h-2.18v1.4h-1.34V88.06h1.34v1h2.08V86.24Z"/><polygon class="cls-23" points="110.62 86.24 108.83 90.03 108.83 86.24 105.76 86.24 105.76 88.06 106.35 88.06 106.35 93.17 105.76 93.17 105.76 94.99 108.83 94.99 108.83 91.64 110.14 91.64 110.14 94.99 113.22 94.99 113.22 93.17 112.56 93.17 112.56 90.03 111.01 90.03 112.15 88.06 112.95 88.06 112.95 86.24 110.62 86.24"/><polygon class="cls-26" points="110.62 86.24 108.83 90.03 108.83 86.24 105.76 86.24 105.76 88.06 106.35 88.06 106.35 93.17 105.76 93.17 105.76 94.99 108.83 94.99 108.83 91.64 110.14 91.64 110.14 94.99 113.22 94.99 113.22 93.17 112.56 93.17 112.56 90.03 111.01 90.03 112.15 88.06 112.95 88.06 112.95 86.24 110.62 86.24"/><polygon class="cls-23" points="114.12 88.06 114.71 88.06 114.71 93.17 114.12 93.17 114.12 94.99 120.62 94.99 120.62 92.04 118.43 92.04 118.43 93.17 117.12 93.17 117.12 91.33 118.97 91.33 118.97 89.72 117.12 89.72 117.12 88.06 118.43 88.06 118.43 89.11 120.48 89.11 120.48 86.24 114.12 86.24 114.12 88.06"/><polygon class="cls-26" points="114.12 88.06 114.71 88.06 114.71 93.17 114.12 93.17 114.12 94.99 120.62 94.99 120.62 92.04 118.43 92.04 118.43 93.17 117.12 93.17 117.12 91.33 118.97 91.33 118.97 89.72 117.12 89.72 117.12 88.06 118.43 88.06 118.43 89.11 120.48 89.11 120.48 86.24 114.12 86.24 114.12 88.06"/><path class="cls-23" d="M127.22,86.24v3.51a11.33,11.33,0,0,0,.08,1.61,6.4,6.4,0,0,0-.55-1.28l-2-3.84h-2.88v1.82h.59v5.11h-.59V95h2.8l-.05-4.26c0-.34,0-.48-.06-.82a8.67,8.67,0,0,0,.73,1.67L127.11,95H130V93.17h-.58V88.06H130V86.24Z"/><path class="cls-26" d="M127.22,86.24v3.51a11.33,11.33,0,0,0,.08,1.61,6.4,6.4,0,0,0-.55-1.28l-2-3.84h-2.88v1.82h.59v5.11h-.59V95h2.8l-.05-4.26c0-.34,0-.48-.06-.82a8.67,8.67,0,0,0,.73,1.67L127.11,95H130V93.17h-.58V88.06H130V86.24Z"/><polygon class="cls-23" points="135.47 86.67 136.19 86.67 136.19 92.81 135.47 92.81 135.47 94.99 139.85 94.99 139.85 92.81 139.16 92.81 139.16 90.56 141.38 90.56 141.38 88.65 139.16 88.65 139.16 86.67 140.77 86.67 140.77 87.82 143.35 87.82 143.35 84.49 135.47 84.49 135.47 86.67"/><polygon class="cls-26" points="135.47 86.67 136.19 86.67 136.19 92.81 135.47 92.81 135.47 94.99 139.85 94.99 139.85 92.81 139.16 92.81 139.16 90.56 141.38 90.56 141.38 88.65 139.16 88.65 139.16 86.67 140.77 86.67 140.77 87.82 143.35 87.82 143.35 84.49 135.47 84.49 135.47 86.67"/><polygon class="cls-23" points="144.22 88.06 144.81 88.06 144.81 93.17 144.22 93.17 144.22 94.99 147.87 94.99 147.87 93.17 147.27 93.17 147.27 88.06 147.87 88.06 147.87 86.24 144.22 86.24 144.22 88.06"/><polygon class="cls-26" points="144.22 88.06 144.81 88.06 144.81 93.17 144.22 93.17 144.22 94.99 147.87 94.99 147.87 93.17 147.27 93.17 147.27 88.06 147.87 88.06 147.87 86.24 144.22 86.24 144.22 88.06"/><path class="cls-23" d="M154.28,86.24v3.51a11.33,11.33,0,0,0,.08,1.61,7.82,7.82,0,0,0-.55-1.28l-2-3.84H148.9v1.82h.59v5.11h-.59V95h2.8l0-4.26a7.52,7.52,0,0,0-.05-.82,8.07,8.07,0,0,0,.73,1.67L154.16,95H157V93.17h-.59V88.06H157V86.24Z"/><path class="cls-26" d="M154.28,86.24v3.51a11.33,11.33,0,0,0,.08,1.61,7.82,7.82,0,0,0-.55-1.28l-2-3.84H148.9v1.82h.59v5.11h-.59V95h2.8l0-4.26a7.52,7.52,0,0,0-.05-.82,8.07,8.07,0,0,0,.73,1.67L154.16,95H157V93.17h-.59V88.06H157V86.24Z"/><path class="cls-23" d="M160.17,86.23c-.73,0-1.5,0-1.94.64a2.67,2.67,0,0,0-.3,1.52v4.53c0,.74,0,1.35.68,1.76a2.58,2.58,0,0,0,1.48.31h4.06V89.7h-3.06v1.82h.74v1.65h-1.41V88.05h1.41v.73h2.22V86.23Z"/><path class="cls-26" d="M160.17,86.23c-.73,0-1.5,0-1.94.64a2.67,2.67,0,0,0-.3,1.52v4.53c0,.74,0,1.35.68,1.76a2.58,2.58,0,0,0,1.48.31h4.06V89.7h-3.06v1.82h.74v1.65h-1.41V88.05h1.41v.73h2.22V86.23Z"/><polygon class="cls-23" points="165.26 88.06 165.26 93.17 165.26 94.99 171.76 94.99 171.76 92.04 169.56 92.04 169.56 93.17 168.26 93.17 168.26 91.33 170.1 91.33 170.1 89.72 168.26 89.72 168.26 88.06 169.56 88.06 169.56 89.11 171.61 89.11 171.61 86.24 165.26 86.24 165.26 88.06"/><polygon class="cls-26" points="165.26 88.06 165.26 93.17 165.26 94.99 171.76 94.99 171.76 92.04 169.56 92.04 169.56 93.17 168.26 93.17 168.26 91.33 170.1 91.33 170.1 89.72 168.26 89.72 168.26 88.06 169.56 88.06 169.56 89.11 171.61 89.11 171.61 86.24 165.26 86.24 165.26 88.06"/><path class="cls-28" d="M173.11,88.06h.58v5.11h-.58V95h3V91.43h1.38v2.65c0,.82.37.89,1.3.91h1.7V93.17h-.6v-.94a1.75,1.75,0,0,0-.34-1.18,1.56,1.56,0,0,0-.91-.46c1.28-.41,1.29-1.17,1.29-2.33a1.89,1.89,0,0,0-.48-1.57,2.45,2.45,0,0,0-1.69-.45h-4.7v1.82m4.43,1.74h-1.38V88.06h1.38Z"/><path class="cls-26" d="M173.11,88.06h.58v5.11h-.58V95h3V91.43h1.38v2.65c0,.82.37.89,1.3.91h1.7V93.17h-.6v-.94a1.75,1.75,0,0,0-.34-1.18,1.56,1.56,0,0,0-.91-.46c1.28-.41,1.29-1.17,1.29-2.33a1.89,1.89,0,0,0-.48-1.57,2.45,2.45,0,0,0-1.69-.45h-4.7v1.82m4.43,1.74h-1.38V88.06h1.38Z"/><path class="cls-23" d="M183.63,86.24a2.09,2.09,0,0,0-1.61.49,1.69,1.69,0,0,0-.43,1.33v1.45a1.85,1.85,0,0,0,.48,1.43,2,2,0,0,0,1.55.47h1.8v1.76H184v-.86h-2.32V95h4a2.61,2.61,0,0,0,1.29-.22,1.78,1.78,0,0,0,.83-1.81v-1.4a1.65,1.65,0,0,0-.65-1.59,2.85,2.85,0,0,0-1.53-.31H184v-1.6h1.38v.76h2.18V86.24Z"/><path class="cls-26" d="M183.63,86.24a2.09,2.09,0,0,0-1.61.49,1.69,1.69,0,0,0-.43,1.33v1.45a1.85,1.85,0,0,0,.48,1.43,2,2,0,0,0,1.55.47h1.8v1.76H184v-.86h-2.32V95h4a2.61,2.61,0,0,0,1.29-.22,1.78,1.78,0,0,0,.83-1.81v-1.4a1.65,1.65,0,0,0-.65-1.59,2.85,2.85,0,0,0-1.53-.31H184v-1.6h1.38v.76h2.18V86.24Z"/><path class="cls-23" d="M79.88,84.49a2.8,2.8,0,0,0-2.34.73A2.6,2.6,0,0,0,77.08,87V92.6a2,2,0,0,0,1.42,2.28,5.2,5.2,0,0,0,1.31.11h4.44V91.12H81.63v1.69H80V86.68h1.61v1.2h2.5V84.49Z"/><polygon class="cls-23" points="85.3 88.06 85.89 88.06 85.89 93.17 85.3 93.17 85.3 94.99 88.33 94.99 88.33 91.47 89.6 91.47 89.6 94.99 92.65 94.99 92.65 93.17 92.07 93.17 92.07 88.06 92.65 88.06 92.65 86.24 89.6 86.24 89.6 89.64 88.33 89.64 88.33 86.24 85.3 86.24 85.3 88.06"/><polygon class="cls-23" points="93.79 88.06 94.38 88.06 94.38 93.17 93.79 93.17 93.79 94.99 97.44 94.99 97.44 93.17 96.84 93.17 96.84 88.06 97.44 88.06 97.44 86.24 93.79 86.24 93.79 88.06"/><path class="cls-23" d="M100.94,86.24a2.33,2.33,0,0,0-2,.61,2.18,2.18,0,0,0-.38,1.51V93a1.65,1.65,0,0,0,1.19,1.9,4.34,4.34,0,0,0,1.08.09h3.7V91.77h-2.18v1.4h-1.34V88.06h1.34v1h2.08V86.24Z"/><polygon class="cls-23" points="110.62 86.24 108.83 90.03 108.83 86.24 105.76 86.24 105.76 88.06 106.35 88.06 106.35 93.17 105.76 93.17 105.76 94.99 108.83 94.99 108.83 91.64 110.14 91.64 110.14 94.99 113.22 94.99 113.22 93.17 112.56 93.17 112.56 90.03 111.01 90.03 112.15 88.06 112.95 88.06 112.95 86.24 110.62 86.24"/><polygon class="cls-23" points="114.12 88.06 114.71 88.06 114.71 93.17 114.12 93.17 114.12 94.99 120.62 94.99 120.62 92.04 118.43 92.04 118.43 93.17 117.12 93.17 117.12 91.33 118.97 91.33 118.97 89.72 117.12 89.72 117.12 88.06 118.43 88.06 118.43 89.11 120.48 89.11 120.48 86.24 114.12 86.24 114.12 88.06"/><path class="cls-23" d="M127.22,86.24v3.51a11.33,11.33,0,0,0,.08,1.61,6.4,6.4,0,0,0-.55-1.28l-2-3.84h-2.88v1.82h.59v5.11h-.59V95h2.8l-.05-4.26c0-.34,0-.48-.06-.82a8.67,8.67,0,0,0,.73,1.67L127.11,95H130V93.17h-.58V88.06H130V86.24Z"/><polygon class="cls-23" points="135.47 86.67 136.19 86.67 136.19 92.81 135.47 92.81 135.47 94.99 139.85 94.99 139.85 92.81 139.16 92.81 139.16 90.56 141.38 90.56 141.38 88.65 139.16 88.65 139.16 86.67 140.77 86.67 140.77 87.82 143.35 87.82 143.35 84.49 135.47 84.49 135.47 86.67"/><polygon class="cls-23" points="144.22 88.06 144.81 88.06 144.81 93.17 144.22 93.17 144.22 94.99 147.87 94.99 147.87 93.17 147.27 93.17 147.27 88.06 147.87 88.06 147.87 86.24 144.22 86.24 144.22 88.06"/><path class="cls-23" d="M154.28,86.24v3.51a11.33,11.33,0,0,0,.08,1.61,7.82,7.82,0,0,0-.55-1.28l-2-3.84H148.9v1.82h.59v5.11h-.59V95h2.8l0-4.26a7.52,7.52,0,0,0-.05-.82,8.07,8.07,0,0,0,.73,1.67L154.16,95H157V93.17h-.59V88.06H157V86.24Z"/><path class="cls-23" d="M160.17,86.23c-.73,0-1.5,0-1.94.64a2.67,2.67,0,0,0-.3,1.52v4.53c0,.74,0,1.35.68,1.76a2.58,2.58,0,0,0,1.48.31h4.06V89.7h-3.06v1.82h.74v1.65h-1.41V88.05h1.41v.73h2.22V86.23Z"/><polygon class="cls-23" points="165.26 88.06 165.84 88.06 165.84 93.17 165.26 93.17 165.26 94.99 171.76 94.99 171.76 92.04 169.56 92.04 169.56 93.17 168.26 93.17 168.26 91.33 170.1 91.33 170.1 89.72 168.26 89.72 168.26 88.06 169.56 88.06 169.56 89.11 171.61 89.11 171.61 86.24 165.26 86.24 165.26 88.06"/><path class="cls-28" d="M173.11,88.06h.58v5.11h-.58V95h3V91.43h1.38v2.65c0,.82.37.89,1.3.91h1.7V93.17h-.6v-.94a1.75,1.75,0,0,0-.34-1.18,1.56,1.56,0,0,0-.91-.46c1.28-.41,1.29-1.17,1.29-2.33a1.89,1.89,0,0,0-.48-1.57,2.45,2.45,0,0,0-1.69-.45h-4.7v1.82m4.43,1.74h-1.38V88.06h1.38Z"/><path class="cls-23" d="M183.63,86.24a2.09,2.09,0,0,0-1.61.49,1.69,1.69,0,0,0-.43,1.33v1.45a1.85,1.85,0,0,0,.48,1.43,2,2,0,0,0,1.55.47h1.8v1.76H184v-.86h-2.32V95h4a2.61,2.61,0,0,0,1.29-.22,1.78,1.78,0,0,0,.83-1.81v-1.4a1.65,1.65,0,0,0-.65-1.59,2.85,2.85,0,0,0-1.53-.31H184v-1.6h1.38v.76h2.18V86.24Z"/></g></g></svg>