<?xml version="1.0" encoding="utf-8"?>
<!-- Generator: Adobe Illustrator 21.1.0, SVG Export Plug-In . SVG Version: 6.00 Build 0)  -->
<svg version="1.1" id="Layer_1" xmlns="http://www.w3.org/2000/svg" xmlns:xlink="http://www.w3.org/1999/xlink" x="0px" y="0px"
	 viewBox="0 0 181 67.1" style="enable-background:new 0 0 181 67.1;" xml:space="preserve">
<style type="text/css">
	.st0{fill:#FFFFFF;}
	.st1{fill:#E4412B;}
</style>
<title>Grocery</title>
<path class="st0" d="M27.2,10C10,16.2,0.5,24.6,0.5,33.6c0,9,9.5,17.4,26.7,23.6c16.9,6.1,39.4,9.5,63.3,9.5s46.4-3.4,63.3-9.5
	c17.2-6.2,26.7-14.6,26.7-23.6S171,16.2,153.8,10c-16.9-6.1-39.4-9.5-63.3-9.5S44.1,3.9,27.2,10"/>
<path class="st1" d="M90.5,65.7c49.2,0,89.1-14.4,89.1-32.2S139.7,1.4,90.5,1.4S1.4,15.8,1.4,33.6S41.3,65.7,90.5,65.7"/>
<path class="st0" d="M41.8,35.1c1.2,3.8,5.7,16.3,14.3,22.4c0,0,1.3,0.8,1.2,1.5c0,0,0.1,1.5-1.7,1.2c0,0-5,0.1-8.3-2.1
	c-3.1-3-5.6-6.5-7.5-10.4c0,0-4.2-9-5.3-12.6c-0.1-0.2-0.1-0.4-0.2-0.6L34,32.6c0,0-0.5-1.3,1.5-1.3l3.9-0.1
	c1.9-0.1,3.7-0.8,5.2-2.1c2.8-3.1,4.6-6.9,5.2-11c0,0,0.7-5.5-5.8-5.6c0,0-7-0.6-8.2,6.3l-3.9,16.3l-3,12.6c0,0-0.8,3.5-3.3,3.4
	l-5.5,0.1c0,0-2.4-2,0.6-3.1c0,0,1.6,0.5,2.4-4.1l2.1-8.9l3.5-14.6c0,0,1.5-5.1-0.9-4.5c0,0-1.4-0.1-1.1-1.1c0-0.8,0.6-1.4,1.3-1.6
	L41,9.9c0,0,8-1.1,11,0.1c3.2,1.1,5.3,4.2,5.1,7.6c0.1,4.2-1.6,8.3-4.6,11.3c0,0-5.7,5.3-11.1,5.1C41.4,33.9,41.5,34.4,41.8,35.1"/>
<path class="st0" d="M85.9,48.7c0.1-0.7,0.2-1.4,0.4-2.1c-0.5,0.8-1,1.5-1.7,2.1c-1.4,1.6-3.3,2.5-5.3,2.7c0,0-2.2,0.3-3.2-2.7
	c-0.2-0.7-0.4-1.5-0.4-2.2c-0.5,0.8-1,1.5-1.7,2.2c-1.2,1.5-3,2.5-5,2.7c-1.6-0.1-3.1-1.2-3.6-2.7c-0.4-1.1-0.5-2.2-0.3-3.3
	c-0.8,1.2-1.7,2.3-2.9,3.3c-2.2,2.1-5.2,3.1-8.3,2.8c0,0-1.8,0-2.9-2.8c-0.7-2.1-1.1-4.3-1-6.4c0.2-2.4,0.7-4.8,1.4-7.1
	c0.6-2.1,1.6-4.1,2.8-5.8c0,0,5.6-9,10.6-9.1c0,0,1.7-1.1,5.1,1.3c1.5,0.4,3.2,0.2,4.6-0.5c0,0,2.5-1.4,2.4,0.6l-3.3,13.5l-1.6,6.6
	c0,0,0.2,6.3,3.7,1.1l1.9-7.7l4.1-16.8c0,0,1.2-4.2-1.7-3.4c0,0-2-1.2-0.2-2.4c2.2-2,4.8-3.5,7.6-4.5c0,0,3.9-1.4,3,2.1l-6,25
	l-1.2,5.2c0,0-1.2,7.1,2.8,3.8c0,0,0.5,0.2,2.5-6.1c0,0,0.4-1.2,0.9-2.9c1.1-3.6,2.4-9.2-0.1-8.2c0,0-3.1-0.2-0.6-2.4
	c0,0,5.8-4.1,8.4-4c0,0,2.7-0.5,1.7,2.1c0,0-2.5,5.7,1.1,1.4c0,0,3.2-3.8,7.6-4c0,0,5.4-0.4,5.5,5.1c0.2,3.3-0.1,6.6-0.9,9.9
	c-1.1,5.3-4,10.1-8.3,13.5c-0.6,0.5-1.3,1-2,1.4c0,0-5.1,3.3-9.1-0.8c0,0-1.6,7.5-2.8,9.8c0,0,0,3-5.5,3.2c0,0-3.8,0.5-4-1
	c0,0-0.6-1.3,2.7-2.3C83.2,58.9,84.1,59.1,85.9,48.7 M67.9,31.9c1.1-7.8-1-8.6-1-8.6C62.7,20.4,59,32,59,32c-2.6,6.9-2,10.8-2,10.8
	c1.6,4.5,5.2,1,5.2,1c4.2-3,5.7-11.8,5.7-11.8L67.9,31.9z M105.6,28.6c-2.6-7-7.6,1-7.6,1C92.1,41.1,94.4,46,94.4,46
	c1.8,3.8,5.3,0.6,5.3,0.6C103.7,41.5,105.8,35.1,105.6,28.6L105.6,28.6z"/>
<path class="st0" d="M147.1,30.6c1.9,1.1,3.9,1.8,6.1,2.2c0,0,5.2,1.5,4.8,6.5c0,0,0.3,9.3-15.5,11.5c0,0-5.6,0.3-7-2.8
	c0,0-7.4,7.6-9.4-1.3c0.1-3.2,0.7-6.3,2-9.2c0,0,1.2-4.2,2.1-6.9c0-0.1,0.1-0.2,0.1-0.3s1.7-4.4-1.9-4.3c0,0-2.3-0.7-6.2,4.6l0,0
	c-0.3,0.3-1.9,2.5-3.5,9.8c0,0-1.4,7.1-1.8,7.7c0,0-0.8,2.3-2.9,2.4h-4.7c0,0-2.2-0.6-0.6-2c0,0,1.6-0.4,2.3-3.2l3.5-14.8l2.5-10.4
	c0,0,1.2-3.9-1.5-3.6c0,0-2.8-0.4-0.2-2.5c0,0,4.6-3.2,7.1-3.8c0,0,3.7-1.5,3.1,1.7c0,0-4.3,15.5-2.9,14c0,0,4.1-5.9,11.1-6
	c0,0,5,0.3,4.5,5.4c0,0-0.3,1.9-1.1,5.3c-0.7,2.9-1.8,7-3.4,11.9c0,0-0.8,2.3,1.2,2.3c0,0,1.4,0.1,2.6-2.4c0,0,2.9-4.7,3.8-1.1
	c0,0-0.5,3.7-0.1,3.7c0,0-0.3,1.4,4.1,2.2c0,0,5.1-0.3,5.8-4.1c0,0,0.6-4.8-5.2-5.2c0,0-7.6-2.2-7.2-7.2v-0.1c0,0-1-6.6,9.1-9.7
	c0,0,7.6-1.9,11.3,1.1c0,0,3.1,1.6,0.5,4.8c0,0-1.7,2.7-3.2,2.6c0,0-1.8,0.2-1.7-2.3c0,0,1-3.2-4.4-3.7c0,0-5.5,0.5-5.3,4.3
	C144.9,27.6,144.6,29.1,147.1,30.6"/>
<path class="st0" d="M96.3,59.1h-0.6v-2.6h1c0.7,0,1.1,0.2,1.1,0.8c0,0.3-0.2,0.6-0.5,0.7c0,0-0.1,0-0.1,0l0.7,1.1h-0.7L96.6,58
	h-0.3L96.3,59.1 M96.8,57.6c0.3,0,0.4,0,0.4-0.3s-0.3-0.3-0.5-0.3h-0.4v0.6L96.8,57.6L96.8,57.6z M96.7,60.2c-1.3,0-2.4-1.1-2.4-2.5
	s1.1-2.4,2.5-2.4c1.3,0,2.4,1.1,2.4,2.4c0,1.3-1,2.4-2.3,2.4C96.8,60.3,96.7,60.3,96.7,60.2L96.7,60.2z M96.7,55.9
	c-1,0-1.9,0.8-1.9,1.9c0,1,0.8,1.9,1.9,1.9l0,0c1-0.1,1.8-1,1.7-2.1C98.3,56.7,97.6,56,96.7,55.9z"/>
</svg>
