<svg id="Layer_1" data-name="Layer 1" xmlns="http://www.w3.org/2000/svg" viewBox="0 0 250 250"><defs><style>.cls-1{fill:red;}.cls-2{fill:#f9e8a0;}.cls-3{fill:#414042;}</style></defs><title>Restaurants</title><rect class="cls-1" x="37.81" y="148.88" width="39.29" height="13.57"/><rect class="cls-1" x="173.52" y="148.16" width="39.29" height="13.57"/><path class="cls-2" d="M82.09,146H40a1.89,1.89,0,0,1-2.14-2.14v-10A1.89,1.89,0,0,1,40,131.74H82.09a1.89,1.89,0,0,1,2.14,2.14v10A1.89,1.89,0,0,1,82.09,146Z"/><path class="cls-2" d="M211.38,146H168.52a1.89,1.89,0,0,1-2.14-2.14v-9.29a1.89,1.89,0,0,1,2.14-2.14h42.86a1.89,1.89,0,0,1,2.14,2.14v9.29A3.22,3.22,0,0,1,211.38,146Z"/><rect class="cls-2" x="84.95" y="98.16" width="81.43" height="15.71"/><rect class="cls-1" x="118.52" y="164.59" width="12.14" height="17.86"/><path class="cls-3" d="M105,186.74a2.86,2.86,0,0,1,0-5.71h9.29v-8.57a10.73,10.73,0,0,1,7.86-10.71h.71V118.16H88.52A6.75,6.75,0,0,1,81.38,111h0v-8.57h-5c-1.43,0-2.86-1.43-2.86-3.57A2.62,2.62,0,0,1,76.38,96h97.86a3.07,3.07,0,0,1,2.86,2.86c0,1.43-.71,3.57-2.86,3.57h-5V111a7.16,7.16,0,0,1-7.14,7.14H128.52v42.14h.71A11.61,11.61,0,0,1,137.09,171v8.57h8.57a2.86,2.86,0,0,1,0,5.71h0Zm20.71-20a4.88,4.88,0,0,0-5,5v8.57h10v-8.57a4.88,4.88,0,0,0-5-5ZM87.81,102.45V111h75v-9.29h-75Z"/><path class="cls-3" d="M77.09,186.74a3.37,3.37,0,0,1-3.57-3.57h0V166.74H40v16.43a3.37,3.37,0,0,1-3.57,3.57,3.37,3.37,0,0,1-3.57-3.57V131L25,66.74a2.62,2.62,0,0,1,.71-2.14c.71-.71,1.43-1.43,2.14-1.43h0c1.43,0,3.57.71,3.57,2.86l7.86,61.43H77.09c6.43,0,12.14,5,12.14,10.71.71,5.71-2.86,10.71-7.86,11.43h-.71v33.57A3.37,3.37,0,0,1,77.09,186.74ZM40,160.31H74.24v-10H40Zm0-16.43H77.09c2.86,0,5-1.43,5-4.29.71-2.86-.71-5-3.57-5H40Zm174.29,42.86a3.37,3.37,0,0,1-3.57-3.57h0V166.74H176.38v16.43a3.57,3.57,0,1,1-7.14,0V149.59h-.71c-5.71-1.43-9.29-7.86-7.86-13.57a12.23,12.23,0,0,1,11.43-8.57h37.86L217.81,66c0-1.43,1.43-2.86,3.57-2.86a5.42,5.42,0,0,1,2.86,1.43,2.62,2.62,0,0,1,.71,2.14L217.09,131v52.14C217.09,185.31,215.66,186.74,214.24,186.74Zm-37.86-26.43h34.29v-10H176.38Zm-2.86-25.71c-2.86,0-5,1.43-5,4.29s1.43,5,4.29,5h37.86v-9.29Z"/></svg>