<?xml version="1.0" encoding="utf-8"?>
<!-- Generator: Adobe Illustrator 21.1.0, SVG Export Plug-In . SVG Version: 6.00 Build 0)  -->
<svg version="1.1" id="Layer_1" xmlns="http://www.w3.org/2000/svg" xmlns:xlink="http://www.w3.org/1999/xlink" x="0px" y="0px"
	 viewBox="0 0 147.1 176" style="enable-background:new 0 0 147.1 176;" xml:space="preserve">
<style type="text/css">
	.st0{fill:#F9E8A0;}
	.st1{fill:#FF0000;}
	.st2{fill:#414042;}
</style>
<path class="st0" d="M48.6,44.7c0,0-0.8-41,38.6-41.8c8.7,0.8,37,7.9,36.2,41.8H48.6z"/>
<g>
	<circle class="st1" cx="45.4" cy="159" r="13.4"/>
	<circle class="st1" cx="117.1" cy="159" r="13.4"/>
</g>
<path class="st0" d="M106.1,110.1c4.7,0,10.2-2.4,11.8-7.1l25.2-47.3c1.6-2.4,1.6-4.7,0-7.1c-0.8-1.6-3.2-3.2-5.5-3.2H32l-5.5-14.2
	H2.9v14.2H17l26,54.4l-10.2,17.3c-0.8,3.2-0.8,4.7-1.6,7.1c0,7.9,6.3,14.2,14.2,14.2h85.9v-14.2H48.6c-0.8,0-1.6-0.8-1.6-1.6v-0.8
	l6.3-11.8H106.1z"/>
<g>
	<g>
		<path class="st2" d="M90.3,0.6C68.3-1,49.3,14.8,47,36.1c0,0.8,0.8,1.6,1.6,1.6s2.4-0.8,2.4-1.6c0-3.9,1.6-7.9,3.2-11.8
			C62.7,6.9,84-1,101.3,7.7c11.8,5.5,18.9,16.5,19.7,29.1c0,0.8,0.8,1.6,2.4,1.6l0,0c0.8,0,1.6-0.8,1.6-2.4
			C124.2,17.9,109.2,3,90.3,0.6z"/>
		<path class="st2" d="M87.9,24.2c2.4,0,3.9,0.8,6.3,2.4l0.8,0.8l2.4-5.5l-0.8-0.8c-1.6-1.6-3.9-2.4-6.3-2.4l0.8-5.5l-5.5-0.8
			l-0.8,5.5c-4.7,0.8-8.7,3.9-8.7,8.7c-0.8,5.5,3.9,8.7,8.7,11c3.9,2.4,5.5,3.2,4.7,5.5v0.8l7.1-0.8v-0.8c0.8-5.5-3.9-8.7-7.9-11
			c-3.9-1.6-5.5-3.9-5.5-6.3c0-0.8,0-1.6,0.8-2.4C84.8,24.2,86.4,24.2,87.9,24.2z"/>
	</g>
	<g>
		<g>
			<path class="st2" d="M117.1,175.5c-8.7,0-16.5-7.1-16.5-16.5s7.1-16.5,16.5-16.5c8.7,0,16.5,7.1,16.5,16.5l0,0
				C133.6,168.4,125.8,175.5,117.1,175.5z M117.1,147.1c-7.1,0-12.6,5.5-12.6,12.6c0,7.1,5.5,12.6,12.6,12.6
				c7.1,0,12.6-5.5,12.6-12.6l0,0C128.9,152.7,123.4,147.1,117.1,147.1L117.1,147.1z M45.4,175.5c-8.7,0-16.5-7.1-16.5-16.5
				s7.1-16.5,16.5-16.5c8.7,0,16.5,7.1,16.5,16.5l0,0C61.9,168.4,54.9,175.5,45.4,175.5z M45.4,147.1c-7.1,0-12.6,5.5-12.6,12.6
				c0,7.1,5.5,12.6,12.6,12.6S58,166.8,58,159.7l0,0C58,152.7,52.5,147.1,45.4,147.1L45.4,147.1z M131.3,140H45.4
				c-8.7,0-16.5-7.1-16.5-16.5c0-2.4,0.8-5.5,1.6-7.9l9.5-16.5l-24.4-52H2.9c-1.6,0-2.4-0.8-2.4-1.6l0,0v-15c0-0.8,0.8-2.4,2.4-2.4
				l0,0h23.6c0.8,0,1.6,0.8,1.6,1.6l5.5,13.4h104.8c3.2,0,5.5,1.6,7.1,3.9c1.6,3.2,1.6,6.3,0,8.7l0,0L120.2,103
				c-2.4,5.5-7.9,8.7-13.4,7.9H54.1l-5.5,10.2h81.9c0.8,0,2.4,0.8,2.4,2.4l0,0v14.2C132.9,139.3,132.1,140,131.3,140L131.3,140z
				 M4.4,43.1H17c0.8,0,1.6,0.8,1.6,0.8l26,54.4c0,0.8,0,1.6,0,1.6l-10.2,17.3c-0.8,1.6-0.8,3.9-0.8,6.3c0,7.1,5.5,12.6,12.6,12.6
				l0,0h83.5v-10.2H48.6c-1.6,0-3.2-1.6-3.2-3.2v-0.8v-0.8l6.3-11.8c0-0.8,0.8-0.8,1.6-0.8h52.8c3.9,0,8.7-2.4,10.2-6.3L141.5,55
				c0.8-1.6,0.8-3.2,0-4.7c-0.8-1.6-2.4-2.4-3.2-2.4H32.8c-0.8-0.8-1.6-0.8-1.6-1.6l-6.3-13.4H5.2L4.4,43.1z"/>
			<path class="st2" d="M103.7,62.8H43c-0.8,0-2.4-0.8-2.4-2.4c0-0.8,0.8-2.4,2.4-2.4h61.4c0.8,0,2.4,0.8,2.4,2.4
				C106.1,62.1,105.3,62.8,103.7,62.8L103.7,62.8z M92.7,77H43c-0.8,0-2.4-0.8-2.4-2.4c0-0.8,0.8-2.4,2.4-2.4h50.4
				c0.8,0,2.4,0.8,2.4,2.4C95,76.2,94.2,77,92.7,77L92.7,77z M80.9,91.2H43c-0.8,0-2.4-0.8-2.4-2.4c0-0.8,0.8-2.4,2.4-2.4h38.6
				c0.8,0,2.4,0.8,2.4,2.4C83.2,90.4,82.4,91.2,80.9,91.2L80.9,91.2z"/>
		</g>
		<g>
			<path d="M117.1,175.5c-8.7,0-16.5-7.1-16.5-16.5s7.1-16.5,16.5-16.5c8.7,0,16.5,7.1,16.5,16.5l0,0
				C133.6,168.4,125.8,175.5,117.1,175.5z M117.1,147.1c-7.1,0-12.6,5.5-12.6,12.6c0,7.1,5.5,12.6,12.6,12.6
				c7.1,0,12.6-5.5,12.6-12.6l0,0C128.9,152.7,123.4,147.1,117.1,147.1L117.1,147.1z M45.4,175.5c-8.7,0-16.5-7.1-16.5-16.5
				s7.1-16.5,16.5-16.5c8.7,0,16.5,7.1,16.5,16.5l0,0C61.9,168.4,54.9,175.5,45.4,175.5z M45.4,147.1c-7.1,0-12.6,5.5-12.6,12.6
				c0,7.1,5.5,12.6,12.6,12.6S58,166.8,58,159.7l0,0C58,152.7,52.5,147.1,45.4,147.1L45.4,147.1z M131.3,140H45.4
				c-8.7,0-16.5-7.1-16.5-16.5c0-2.4,0.8-5.5,1.6-7.9l9.5-16.5l-24.4-52H2.9c-1.6,0-2.4-0.8-2.4-1.6l0,0v-15c0-0.8,0.8-2.4,2.4-2.4
				l0,0h23.6c0.8,0,1.6,0.8,1.6,1.6l5.5,13.4h104.8c3.2,0,5.5,1.6,7.1,3.9c1.6,3.2,1.6,6.3,0,8.7l0,0L120.2,103
				c-2.4,5.5-7.9,8.7-13.4,7.9H54.1l-5.5,10.2h81.9c0.8,0,2.4,0.8,2.4,2.4l0,0v14.2C132.9,139.3,132.1,140,131.3,140L131.3,140z
				 M4.4,43.1H17c0.8,0,1.6,0.8,1.6,0.8l26,54.4c0,0.8,0,1.6,0,1.6l-10.2,17.3c-0.8,1.6-0.8,3.9-0.8,6.3c0,7.1,5.5,12.6,12.6,12.6
				l0,0h83.5v-10.2H48.6c-1.6,0-3.2-1.6-3.2-3.2v-0.8v-0.8l6.3-11.8c0-0.8,0.8-0.8,1.6-0.8h52.8c3.9,0,8.7-2.4,10.2-6.3L141.5,55
				c0.8-1.6,0.8-3.2,0-4.7c-0.8-1.6-2.4-2.4-3.2-2.4H32.8c-0.8-0.8-1.6-0.8-1.6-1.6l-6.3-13.4H5.2L4.4,43.1z"/>
			<path d="M103.7,62.8H43c-0.8,0-2.4-0.8-2.4-2.4c0-0.8,0.8-2.4,2.4-2.4h61.4c0.8,0,2.4,0.8,2.4,2.4
				C106.1,62.1,105.3,62.8,103.7,62.8L103.7,62.8z M92.7,77H43c-0.8,0-2.4-0.8-2.4-2.4c0-0.8,0.8-2.4,2.4-2.4h50.4
				c0.8,0,2.4,0.8,2.4,2.4C95,76.2,94.2,77,92.7,77L92.7,77z M80.9,91.2H43c-0.8,0-2.4-0.8-2.4-2.4c0-0.8,0.8-2.4,2.4-2.4h38.6
				c0.8,0,2.4,0.8,2.4,2.4C83.2,90.4,82.4,91.2,80.9,91.2L80.9,91.2z"/>
		</g>
	</g>
</g>
</svg>
