<svg id="Layer_1" data-name="Layer 1" xmlns="http://www.w3.org/2000/svg" viewBox="0 0 250 250"><defs><style>.cls-1{fill:#f9e8a0;}.cls-2{fill:red;}.cls-3{fill:#414042;}</style></defs><title>Retailers</title><path class="cls-1" d="M100,81.72s-.79-41,38.6-41.75c8.67.79,37,7.88,36.24,41.75Z"/><circle class="cls-2" cx="96.86" cy="195.95" r="13.39"/><circle class="cls-2" cx="168.55" cy="195.95" r="13.39"/><path class="cls-1" d="M157.52,147.11c4.73,0,10.24-2.36,11.82-7.09l25.21-47.27a5.91,5.91,0,0,0,0-7.09A6.63,6.63,0,0,0,189,82.51H83.47L78,68.33H54.32V82.51H68.5l26,54.36L84.26,154.2c-.79,3.15-.79,4.73-1.58,7.09a14.12,14.12,0,0,0,14.18,14.18h85.87V161.29H100a1.69,1.69,0,0,1-1.58-1.58v-.79l6.3-11.82Z"/><path class="cls-3" d="M141.77,37.6c-22.06-1.58-41,14.18-43.33,35.45A1.69,1.69,0,0,0,100,74.63c.79,0,2.36-.79,2.36-1.58,0-3.94,1.58-7.88,3.15-11.82C114.19,43.9,135.46,36,152.79,44.69a33.93,33.93,0,0,1,19.69,29.15c0,.79.79,1.58,2.36,1.58h0c.79,0,1.58-.79,1.58-2.36C175.64,54.93,160.67,40,141.77,37.6Z"/><path class="cls-3" d="M139.4,61.24c2.36,0,3.94.79,6.3,2.36l.79.79,2.36-5.51-.79-.79a9,9,0,0,0-6.3-2.36l.79-5.51L137,49.42l-.79,5.51c-4.73.79-8.67,3.94-8.67,8.67-.79,5.51,3.94,8.67,8.67,11,3.94,2.36,5.51,3.15,4.73,5.51v.79l7.09-.79v-.79c.79-5.51-3.94-8.67-7.88-11-3.94-1.58-5.51-3.94-5.51-6.3a2.89,2.89,0,0,1,.79-2.36C136.25,61.24,137.83,61.24,139.4,61.24Z"/><path class="cls-3" d="M168.55,212.49A16.64,16.64,0,0,1,152,195.95a16.15,16.15,0,0,1,16.54-16.54,16.64,16.64,0,0,1,16.54,16.54h0A16.64,16.64,0,0,1,168.55,212.49Zm0-28.36a12.6,12.6,0,1,0,12.6,12.6h0c-.79-7.09-6.3-12.6-12.6-12.6ZM96.86,212.49a16.64,16.64,0,0,1-16.54-16.54,16.15,16.15,0,0,1,16.54-16.54,16.64,16.64,0,0,1,16.54,16.54h0A16.15,16.15,0,0,1,96.86,212.49Zm0-28.36a12.6,12.6,0,1,0,12.6,12.6h0a12.44,12.44,0,0,0-12.6-12.6ZM182.73,177H96.86A16.64,16.64,0,0,1,80.32,160.5a28,28,0,0,1,1.58-7.88l9.45-16.54-24.42-52H54.32c-1.58,0-2.36-.79-2.36-1.58h0v-15a2.52,2.52,0,0,1,2.36-2.36H78a1.69,1.69,0,0,1,1.58,1.58L85,80.14H189.82a8.27,8.27,0,0,1,7.09,3.94c1.58,3.15,1.58,6.3,0,8.67h0L171.7,140a12.76,12.76,0,0,1-13.39,7.88H105.53L100,158.13h81.93a2.52,2.52,0,0,1,2.36,2.36h0v14.18c0,1.58-.79,2.36-1.58,2.36ZM55.9,80.14H68.5a2.75,2.75,0,0,1,1.58.79l26,54.36v1.58L85.83,154.2c-.79,1.58-.79,3.94-.79,6.3a12.44,12.44,0,0,0,12.6,12.6h83.51V162.86H100a3.39,3.39,0,0,1-3.15-3.15v-1.58l6.3-11.82c0-.79.79-.79,1.58-.79h52.78c3.94,0,8.67-2.36,10.24-6.3L193,92a5,5,0,0,0,0-4.73,4.22,4.22,0,0,0-3.15-2.36H84.26c-.79-.79-1.58-.79-1.58-1.58L76.38,69.9H56.68Z"/><path class="cls-3" d="M155.16,99.84H94.5a2.36,2.36,0,0,1,0-4.73h61.45a2.52,2.52,0,0,1,2.36,2.36c-.79,1.58-1.58,2.36-3.15,2.36Zm-11,14.18H94.5a2.36,2.36,0,0,1,0-4.73h50.42a2.52,2.52,0,0,1,2.36,2.36c-.79,1.58-1.58,2.36-3.15,2.36ZM132.31,128.2H94.5a2.36,2.36,0,1,1,0-4.73h38.6a2.52,2.52,0,0,1,2.36,2.36c-.79,1.58-1.58,2.36-3.15,2.36Z"/><path d="M168.55,212.49A16.64,16.64,0,0,1,152,195.95a16.15,16.15,0,0,1,16.54-16.54,16.64,16.64,0,0,1,16.54,16.54h0A16.64,16.64,0,0,1,168.55,212.49Zm0-28.36a12.6,12.6,0,1,0,12.6,12.6h0c-.79-7.09-6.3-12.6-12.6-12.6ZM96.86,212.49a16.64,16.64,0,0,1-16.54-16.54,16.15,16.15,0,0,1,16.54-16.54,16.64,16.64,0,0,1,16.54,16.54h0A16.15,16.15,0,0,1,96.86,212.49Zm0-28.36a12.6,12.6,0,1,0,12.6,12.6h0a12.44,12.44,0,0,0-12.6-12.6ZM182.73,177H96.86A16.64,16.64,0,0,1,80.32,160.5a28,28,0,0,1,1.58-7.88l9.45-16.54-24.42-52H54.32c-1.58,0-2.36-.79-2.36-1.58h0v-15a2.52,2.52,0,0,1,2.36-2.36H78a1.69,1.69,0,0,1,1.58,1.58L85,80.14H189.82a8.27,8.27,0,0,1,7.09,3.94c1.58,3.15,1.58,6.3,0,8.67h0L171.7,140a12.76,12.76,0,0,1-13.39,7.88H105.53L100,158.13h81.93a2.52,2.52,0,0,1,2.36,2.36h0v14.18c0,1.58-.79,2.36-1.58,2.36ZM55.9,80.14H68.5a2.75,2.75,0,0,1,1.58.79l26,54.36v1.58L85.83,154.2c-.79,1.58-.79,3.94-.79,6.3a12.44,12.44,0,0,0,12.6,12.6h83.51V162.86H100a3.39,3.39,0,0,1-3.15-3.15v-1.58l6.3-11.82c0-.79.79-.79,1.58-.79h52.78c3.94,0,8.67-2.36,10.24-6.3L193,92a5,5,0,0,0,0-4.73,4.22,4.22,0,0,0-3.15-2.36H84.26c-.79-.79-1.58-.79-1.58-1.58L76.38,69.9H56.68Z"/><path d="M155.16,99.84H94.5a2.36,2.36,0,0,1,0-4.73h61.45a2.52,2.52,0,0,1,2.36,2.36c-.79,1.58-1.58,2.36-3.15,2.36Zm-11,14.18H94.5a2.36,2.36,0,0,1,0-4.73h50.42a2.52,2.52,0,0,1,2.36,2.36c-.79,1.58-1.58,2.36-3.15,2.36ZM132.31,128.2H94.5a2.36,2.36,0,1,1,0-4.73h38.6a2.52,2.52,0,0,1,2.36,2.36c-.79,1.58-1.58,2.36-3.15,2.36Z"/></svg>