<?xml version="1.0" encoding="utf-8"?>
<!-- Generator: Adobe Illustrator 21.1.0, SVG Export Plug-In . SVG Version: 6.00 Build 0)  -->
<svg version="1.1" id="Layer_1" xmlns="http://www.w3.org/2000/svg" xmlns:xlink="http://www.w3.org/1999/xlink" x="0px" y="0px"
	 viewBox="0 0 181 70.7" style="enable-background:new 0 0 181 70.7;" xml:space="preserve">
<style type="text/css">
	.st0{fill:#2B4E09;}
</style>
<title>Grocery</title>
<path class="st0" d="M109.7,39.5c-4.5,2.8-9.2,3-14.1,2.3c-5.6-0.9-8.5-4.2-8.7-10.2c-0.1-3.5,0.1-7.1,0.2-10.6
	c0-1.8-0.2-3.6-0.7-5.3c-1.1-3.7-3.7-5.7-7.4-6.5c-0.6-0.1-1.8,0.2-1.6-1s1.1-1.6,2.4-1.2c3.4,1,6.9,1.5,10.5,1.5
	c3.5-0.2,7-0.9,10.3-2.1c0,1.5,0,2.8,0,4.1c0,3.3-0.4,2.9,3.1,3c1,0,1.9,0,2.9,0s1.3,0.4,1.2,1.4c-0.2,2.8-1.6,4.3-4.5,4.4
	c-2.6,0.1-2.8,0.3-2.8,3c0,3.8,0,7.5,0.1,11.3c0,1,0.2,1.9,0.4,2.9c0.5,1.9,2.5,3.1,4.4,2.6c0.5-0.1,0.9-0.3,1.3-0.6
	c2.3-1.6,3.6-4.2,3.4-7c0-6.5,0-13.1,0-19.6c0-4.2-1.2-5.2-5.3-4.7c0.4-1.5,0.4-1.6,1.7-1.6c5.2,0,10.4,0,15.6,0
	c1.3,0,1.6,0.5,1.6,1.7c-0.1,4-0.1,7.9-0.1,11.9c0,0.6,0,1.2,0,2.1c3.3-2,7.1-3.1,11-3c1.5,0,3.1,0.3,4.5,0.8
	c3.1,1.2,4.9,3.4,4.8,6.8c0,3.8-0.1,7.7-0.1,11.5c0,3.1,1.8,4.8,4.3,4c2-0.7,3.5-2.5,3.7-4.6c0-0.6,0-1.1,0.1-1.7s-0.1-1.1,0.5-1.2
	c0.6,0,1.1,0.4,1.2,1c0.1,0.5,0.2,1,0.2,1.4c0.7,5.1,5.4,8.6,10.4,7.9c0.2,0,0.4-0.1,0.6-0.1c1.6-0.2,3-1.3,3.5-2.9
	c0.5-1.5-0.4-2.7-1.4-3.7c-0.8-0.7-1.8-1.3-2.8-1.9c-1.8-1-3.7-2-5.5-2.9c-6.5-3.1-6-11.8-1.6-15.5c5-4.3,10.7-4.7,16.7-2.9
	c4,1.2,4,1.3,5.1-2.6c1.3,0.2,1.7,0.9,1.7,2.2c-0.1,3.6,0,7.2,0,10.8c0,0.5,0.2,1.3-0.5,1.4s-1.2-0.3-1.5-0.9
	c-0.6-1.2-1-2.4-1.2-3.7c-0.7-3.2-3.8-5.2-7-4.5c-0.4,0.1-0.7,0.2-1.1,0.3c-2.9,1.2-3.4,3.9-1,5.9c1.6,1.3,3.4,2.4,5.2,3.5
	c2.1,1.2,4,2.8,5.4,4.8c2.2,3,2.1,7-0.1,9.9c-3.8,5.5-11.8,7.6-18.1,4.8c-1.1-0.5-2.1-1.1-3.2-1.6c-2.2-1-2.9-0.6-3.5,1.8
	c-0.1,0.6,0.1,1.8-0.9,1.7s-1-1.2-1-2c0-1.5,0-3,0-4.7c-1.1,0.2-1.5,1-2.1,1.5c-4.5,3.8-9.4,5.6-15.2,3.5c-2.5-0.7-4.2-3-4.1-5.6
	c-0.1-4.4-0.1-8.9-0.2-13.3c0-1-0.1-2.1-0.3-3.1c-0.3-1.6-1.9-2.6-3.5-2.2c0,0,0,0-0.1,0c-1.8,0.3-2.9,1-2.8,3.1
	c0.1,5.1,0,10.1,0,15.2c0,2.9,1,4,3.9,4.4c0.5,0.1,1.4-0.3,1.5,0.6s-0.8,0.8-1.4,0.8h-23.1c-0.4,0-0.9,0.2-1-0.4
	c-0.1-0.5,0.2-1,0.7-1.1c0.7-0.2,1.3-0.3,2-0.4C108.9,43.6,109.6,42.6,109.7,39.5z"/>
<path class="st0" d="M28.7,41.4c-0.2,1.2-1.3,2.1-2.5,1.9c-7.8,0-15.7,0-23.6,0c-0.5,0-1.5,0.4-1.5-0.5s0.7-1.3,1.6-1.3
	c0.7,0,1.4,0,2.1-0.1c1.7,0,3.1-1.3,3.2-3c0.2-0.9,0.2-1.8,0.3-2.7c0-8.8,0-17.7,0-26.5c0-3.7-1.5-6.2-4.2-6.9C2.9,2.1,1.7,2,0.5,2
	c0.1-1.2,0.8-1.4,1.8-1.4c11.3,0,22.5-0.1,33.8,0.1c7.9,0.1,12.3,5.8,11,13.5c-0.6,3.3-2.8,5.6-5.5,7.2c-1.7,1-1.7,1.7,0.1,2.5
	c2.5,1.2,3.6,3.5,4.1,6c0.5,2.3,0.8,4.7,1.3,7c0.1,0.8,0.3,1.5,0.6,2.2c0.6,1.6,1.4,3.1,3.4,3.2s2.9-1.4,3.8-2.9
	c0.7-1-0.1-1.3-0.7-1.8c-2.7-2.1-4.6-5.1-5.3-8.5c-1.7-8,3.5-15.6,12.2-17.9c9-2.4,18.5,2,21.5,9.9s-1.4,16.3-9.8,19.3
	c-4.5,1.7-9.5,1.6-14-0.2c-0.9-0.6-2-0.3-2.6,0.5c0,0,0,0,0,0c-4.5,5.4-12,7.2-18.5,4.5c-2.8-1-4.8-3.6-5-6.6
	c-0.3-2.9-0.4-5.8-0.7-8.7c-0.3-2.9-1.1-3.5-3.8-3.7c-0.3,0-0.7,0-1,0c-4.2-0.1-4.7,0.4-4.7,4.6c0,2.4,0,4.7,0,7.1
	c0.1,2.6,1,3.4,3.6,3.6C26.7,41.4,27.6,41.4,28.7,41.4z M71,25.9c0-2.6,0-5.1,0-7.7c-0.1-3.1-2.1-5.3-4.9-5.4c-2.8,0-5.1,2.2-5.2,5
	c0,0.1,0,0.2,0,0.3c-0.1,5.3-0.1,10.5,0,15.8c0,3.2,2.3,5.5,5.1,5.4s4.9-2.3,5-5.6C71,31.1,71,28.5,71,25.9z M22.4,13.2
	c0,1.8,0,3.6,0,5.4c0,0.5,0,1.1,0.7,1.3c3.9,1.5,8.4-0.7,9.1-4.8c1.1-7.1-2.3-9.8-8.8-8.9c-0.9,0.1-0.9,0.7-0.9,1.3
	C22.4,9.5,22.4,11.4,22.4,13.2z"/>
<path class="st0" d="M149.3,18.2c-1.6,0.5-3.3,0.6-4.9,0.1c-3.3-1.1-5.3-4.4-4.6-7.9c0.6-3.4,3.6-5.7,7-5.6c3.4,0.1,6.2,2.6,6.7,6
	c0.5,4.6-1.4,8.2-4.5,11.3c-0.4,0.4-0.9,0.8-1.5,0.4c-0.7-0.5-0.1-0.9,0.1-1.4L149.3,18.2z"/>
<path class="st0" d="M65.8,58.4c0.9-0.5,1.5-0.8,2-1c2-0.9,4.4,0,5.3,2c0.1,0.2,0.2,0.4,0.2,0.6c0.8,2.9,0.4,5.9,0.3,8.9
	c0,1.5-1.5,0.7-2.4,0.9s-1.4-0.2-1.4-1.3c0-1.9,0-3.8,0-5.6c0-1.4-0.3-2.6-2-2.6s-2.1,1.3-2.1,2.7c0,1.8,0,3.6,0,5.4
	c0.1,1.6-1,1.4-2,1.4s-1.9,0.1-1.9-1.4c0.1-5.1,0.1-10.3,0-15.4c0-1.7,1.1-1.2,2-1.3s2-0.2,1.9,1.4S65.8,56.4,65.8,58.4z"/>
<path class="st0" d="M38.6,64.8c-0.7,0-1.4,0-2.1,0s-1.5-0.3-1.7,0.4s0.7,1.3,1.4,1.6c1.3,0.5,2.7,0.6,4.1,0.2
	c1.1-0.3,1.3,0.1,1.5,1s0.1,1.4-1,1.6c-1.8,0.5-3.7,0.5-5.6,0.1c-3.6-1-5.3-4.6-4-8.5c0.9-3.1,4.1-4.9,7.2-4
	c2.9,0.8,4.7,3.7,4.1,6.6c0,0.6-0.5,1-1.1,0.9c0,0,0,0-0.1,0C40.5,64.8,39.5,64.8,38.6,64.8L38.6,64.8z M36.8,62.3
	c0.7-0.4,2.1,0.6,2.2-0.8c0.1-1.1-0.9-1.9-2.1-1.8c-1.1-0.1-2,0.7-2.1,1.8c0,0,0,0.1,0,0.1C34.9,62.8,36.2,61.9,36.8,62.3z"/>
<path class="st0" d="M82.3,63.6c0-1.6,0-3.2,0-4.8c0-0.4-0.2-1.1,0.5-1.2c0.5-0.1,1.1-0.2,1.3,0.4c0.4,1.4,0.9,0.5,1.4,0.1
	c2.1-1.4,3.8-1.3,5.6,0.5c0.8,0.8,1,0.5,1.6-0.1c1.2-1.3,3-1.7,4.6-1c1.6,0.6,2.6,2.1,2.5,3.8c0.1,2.4,0.1,4.9,0.1,7.3
	c0,0.7-0.2,1.2-1,1.2s-1.1-0.5-1.1-1.3c0-2,0-4,0-6c-0.1-2.2-1.1-3.4-2.6-3.3s-2.8,1.4-2.9,3.4s0,3.9,0,5.8c0,0.7,0,1.4-1,1.4
	s-1-0.7-1-1.4c0-2,0.1-4,0-6c-0.1-1.6-0.5-3.1-2.5-3.3c-1.7,0-3,1.3-3,3c0,0,0,0.1,0,0.1c-0.1,2-0.1,4-0.1,6c0,0.8,0.1,1.6-1.1,1.6
	s-1-0.9-1-1.6C82.3,66.7,82.3,65.1,82.3,63.6z"/>
<path class="st0" d="M9.7,69.8C8.4,70.1,8,69.3,8,67.9c0.1-1.8,0-3.6,0-5.4c0-1,0.3-1.9-1.1-2.5c-0.7-0.5-0.8-1.5-0.2-2.2
	c0.1-0.1,0.2-0.2,0.3-0.3c1.3-0.5,1.1-1.4,1.3-2.3c0.6-2.6,3.2-4.3,5.8-3.7c1,0.2,1,0.8,0.9,1.5s0.3,1.5-0.9,1.5
	c-0.7-0.1-1.4,0.2-1.8,0.8c-0.4,0.9-1,2,0.8,2c1,0,1.3,0.5,1.3,1.4s0,1.6-1.1,1.5S12,60.8,12,61.8c0,2,0,4,0,6S12,69.9,9.7,69.8z"/>
<path class="st0" d="M51.4,70c-0.9,0-1.9-0.1-2.8-0.3c-1.3-0.3-1.2-1-1-2s0.8-1.1,1.7-0.7c0.2,0.1,0.4,0.1,0.6,0.1
	c1.1,0.1,2.5,0.7,2.9-0.7s-1.2-1.4-2.1-1.8c-2.3-1-3.3-2.3-3.1-4.1s1.8-3.2,4.2-3.4c0.9-0.1,1.8,0,2.7,0.1c1,0.1,1.7,0.5,1.4,1.8
	s-0.8,1.3-1.8,0.9c-0.5-0.2-1.1-0.2-1.6-0.2c-0.5,0-1,0.3-1.1,0.8c-0.1,0.6,0.3,0.9,0.8,1.1s1,0.4,1.5,0.6c2.4,1,3.3,2.4,2.9,4.4
	c-0.3,1.8-1.9,3-4.1,3.2C52.1,70,51.8,70,51.4,70z"/>
<path class="st0" d="M134.3,62.7c2.1-1.7,3.1-3.8,4.9-5c0.4-0.3,1.2,0,2,0c-0.7,1.6-2,2.6-3.1,3.7c-0.9,0.9-1,1.6-0.1,2.6
	c1.4,1.7,2.7,3.6,4.2,5.6c-1.1,0.7-2.6,0.4-3.3-0.8c-0.1-0.1-0.1-0.2-0.1-0.2c-0.7-1.2-1.6-2.3-2.4-3.4c-0.3-0.4-0.4-1-1.1-0.7
	c-0.5,0.2-0.8,0.6-0.8,1.1c-0.1,1-0.1,1.9,0,2.9c0,0.8-0.1,1.4-1.1,1.4s-1.2-0.5-1.2-1.3c0-5.2,0-10.4,0-15.6c0-0.7,0.2-1.2,1-1.2
	s1.2,0.3,1.2,1.2C134.3,56,134.3,59.1,134.3,62.7z"/>
<path class="st0" d="M114.8,65.1c0,1.1,0,2.2,0,3.3c0,0.4,0.3,1-0.4,1.3c-0.4,0.1-1.1,0.3-1.3-0.2c-0.6-1.3-1.1-0.4-1.7-0.1
	c-1.5,1-3.5,1-4.9-0.1c-1.2-0.9-1.7-2.5-1.2-3.9c0.5-1.8,2-2.5,3.7-3c0.4-0.1,0.8-0.1,1.2-0.2c0.8-0.3,2.2,0.4,2.2-1.2
	c0-1.4-1.1-2-2.4-2.1c-0.9,0-1.8,0.2-2.6,0.5c-0.4,0.1-0.8,0.3-1-0.2s-0.2-0.9,0.4-1.2c1.8-0.9,3.8-1,5.7-0.2
	c1.8,0.8,2.3,2.3,2.3,4.1c0,1.1,0,2.2,0,3.3H114.8z M109.4,68.5c1.8,0,3.3-1.4,3.3-3.2c0-0.1,0-0.2,0-0.2c0-1-0.3-1.5-1.4-1.5
	c-2.2,0.1-3.8,1.1-3.8,2.7c-0.1,1.1,0.6,2.1,1.7,2.2C109.3,68.5,109.3,68.5,109.4,68.5L109.4,68.5z"/>
<path class="st0" d="M152,64c-0.8,0-1.5,0-2.3,0s-1.6-0.3-1.9,0.4c-0.2,0.8,0,1.7,0.6,2.3c1.3,1.7,3.1,1.8,5.1,1.6
	c0.6-0.1,1.6-0.9,1.9,0.3s-1,1.1-1.7,1.2c-2.6,0.5-5.3,0.5-7-2c-1.6-2.4-1.7-5.5-0.2-7.9c1.2-2.2,3.8-3.3,6.3-2.5
	c2.2,0.8,3.7,3,3.6,5.4c0,0.9-0.4,1.2-1.3,1.2L152,64L152,64z M150.9,62.5c0.3,0,0.6,0,0.8,0c0.8-0.2,2.1,0.6,2.3-0.6
	c0.2-1.2-0.6-2.4-1.8-2.8c-0.8-0.4-1.8-0.4-2.6,0.1c-1.1,0.6-2.1,1.6-1.8,2.8s1.6,0.4,2.4,0.5C150.4,62.5,150.7,62.5,150.9,62.5
	L150.9,62.5z"/>
<path class="st0" d="M23.1,59.1c0.2-0.4,0.5-0.8,0.9-1.2c0.7-0.6,1.8-1.1,2.5-0.6c0.9,0.7,0.3,1.9,0.3,2.9c0,0.6-0.6,0.4-1,0.4
	c-2,0.2-2.7,1.4-2.7,3.3c0,1.3-0.1,2.6,0,3.9c0.1,1.5-0.3,2-1.9,2s-1.9-0.7-1.9-2.1c0.1-2.8,0-5.5,0-8.3c0-0.8-0.6-2,0.9-2.1
	c1.2-0.1,2.5-0.4,2.4,1.7L23.1,59.1z"/>
<path class="st0" d="M175,70c-0.2-0.1-1-0.2-1.7-0.4c-0.6-0.2-1-0.4-0.7-1.2s0.6-0.7,1.3-0.4c0.8,0.4,1.7,0.5,2.6,0.4
	c0.9-0.1,1.6-0.7,1.7-1.6c0.1-0.8-0.3-1.6-1-1.9c-0.8-0.4-1.6-0.7-2.4-1.2c-1.4-0.6-2.2-2.1-1.9-3.6c0.3-1.6,1.6-2.8,3.2-2.9
	c1-0.2,2.1-0.1,3.1,0.3c0.5,0.2,0.9,0.5,0.7,1.1s-0.4,0.8-1.1,0.6c-1.4-0.4-3.2-0.9-3.7,1s1.5,2,2.6,2.6c2.4,1.2,3.1,2.4,2.6,4.6
	C179.8,69.1,178.1,70.1,175,70z"/>
<path class="st0" d="M162.4,63.7c0-0.9,0-1.8,0-2.7s0.1-1.9-1.3-1.8c-0.5,0-0.7-0.4-0.7-0.9c0-0.4,0.2-0.7,0.6-0.7c0,0,0,0,0,0
	c1.1,0,1.4-0.6,1.4-1.6s0.7-1.1,1.4-1.2c1-0.1,0.7,0.7,0.7,1.2c-0.1,1.6,0.8,1.7,2,1.6c0.6,0,1.3-0.1,1.3,0.9s-0.8,0.8-1.2,0.7
	c-1.8-0.3-2.1,0.7-2,2.2s0,2.8,0,4.2s0.3,2.9,2.3,2.7c0.5,0,0.7,0.2,0.8,0.7s-0.3,0.9-0.8,1c-1.7,0.6-3.5-0.4-4.1-2.1
	c-0.1-0.2-0.1-0.5-0.2-0.7C162.4,66,162.4,64.9,162.4,63.7L162.4,63.7z"/>
<path class="st0" d="M123.2,59.2c0.9-0.8,1.4-1.6,2.4-1.8c0.6-0.1,1.3-0.3,1.5,0.6c0.1,0.6,0.1,1.2-0.8,1.3c-2.3,0.4-3,2-3,4.1
	c0,1.7,0,3.5,0,5.2c0,0.7-0.1,1.2-1,1.2s-1.2-0.4-1.2-1.3c0-3,0-6.1,0-9.1c0-0.6-0.6-1.6,0.7-1.8S122.8,58.5,123.2,59.2z"/>
<path class="st0" d="M166.9,10.8c-2,0-3.7-1.7-3.7-3.7s1.7-3.7,3.7-3.7c2,0,3.7,1.7,3.7,3.7S169,10.8,166.9,10.8L166.9,10.8z
	 M166.9,4c-1.7,0-3.1,1.4-3.1,3.1s1.4,3.1,3.1,3.1c1.7,0,3.1-1.4,3.1-3.1C170,5.4,168.6,4,166.9,4z"/>
<path class="st0" d="M165.9,5.2c0.3-0.1,0.7-0.1,1-0.1c0.4,0,0.8,0.1,1.1,0.3c0.2,0.2,0.3,0.5,0.3,0.7c0,0.5-0.3,0.9-0.7,1l0,0
	c0.3,0.1,0.5,0.4,0.6,0.8c0.1,0.4,0.2,0.7,0.3,1.1h-0.5c-0.1-0.3-0.2-0.6-0.3-0.9c-0.1-0.5-0.3-0.7-0.8-0.8h-0.5V9h-0.5L165.9,5.2z
	 M166.4,7h0.5c0.5,0,0.9-0.3,0.9-0.7s-0.4-0.7-0.9-0.7c-0.2,0-0.3,0-0.5,0V7z"/>
</svg>
