<?xml version="1.0" encoding="utf-8"?>
<!-- Generator: Adobe Illustrator 21.1.0, SVG Export Plug-In . SVG Version: 6.00 Build 0)  -->
<svg version="1.1" id="Layer_1" xmlns="http://www.w3.org/2000/svg" xmlns:xlink="http://www.w3.org/1999/xlink" x="0px" y="0px"
	 viewBox="0 0 237.8 58.4" style="enable-background:new 0 0 237.8 58.4;" xml:space="preserve">
<style type="text/css">
	.st0{fill:#423B3C;}
	.st1{fill:#006A56;}
	.st2{fill:#FF5635;}
	.st3{fill:#FFFFFF;}
	.st4{fill:#030000;}
	.st5{fill:#050001;}
	.st6{fill:#029DD6;}
	.st7{fill:#B1DD48;}
	.st8{fill:#F3A036;}
</style>
<title>Fast Food</title>
<path class="st0" d="M234.7,48.2L5.6,51.7L1,8l236.4-5.6L234.7,48.2z"/>
<path class="st1" d="M234.3,47.2L5.1,50.7L0.5,7l236.4-5.6L234.3,47.2z"/>
<path class="st0" d="M99.1,44.1l4.3,13.8l56-4.1l0.4-13.6L99.1,44.1L99.1,44.1z"/>
<path class="st2" d="M98.4,43.3l4.3,13.8l56-4.1l0.4-13.6L98.4,43.3L98.4,43.3z"/>
<path class="st3" d="M106.3,45.6l3.5-0.2c0.9-0.2,1.9,0,2.7,0.5c0.6,0.4,1,1,1,1.7c0.1,1.2-0.6,2.3-1.8,2.6
	c-0.6,0.2-1.2,0.2-1.8,0.3h-0.7l0.2,2.8l-2.7,0.1L106.3,45.6L106.3,45.6z M109.6,49c1-0.1,1.3-0.4,1.3-1.1s-0.4-1-1.5-1H109l0.1,2.1
	L109.6,49z M116.1,45l2.7-0.2l0.5,7.8l-2.7,0.2L116.1,45z M126.6,46.2l-4.1,0.2l-0.1-1.9l8.4-0.5l-3.6,6.2L131,50l0.1,1.9l-8.1,0.5
	L126.6,46.2L126.6,46.2z M138,45.5l-4.1,0.2l-0.1-1.9l8.4-0.5l-3.6,6.2l3.8-0.2l0.1,1.9l-8.1,0.5L138,45.5L138,45.5z M148.5,43
	l2.9-0.2l4.1,7.6l-2.7,0.2l-0.6-1.2l-3.6,0.2l-0.4,1.3l-2.7,0.2L148.5,43L148.5,43z M151.5,48l-1.4-3l-1,3.2L151.5,48L151.5,48z"/>
<path class="st4" d="M10,12.1h6.3c3.5,0,4.9,0.3,6.3,1.7c1.8,1.8,2.7,4.3,2.6,6.9c0,3.3-1.3,5.6-3.9,6.9c1,1,1.7,2.2,2,3.6
	c0.3,1,0.6,2,1.5,5.6l0.5,1.9c0.5,1.8,0.5,2.1,0.9,3.1l0.2,0.5h-5.6L20.4,41l-1-4.5c-1.1-4.8-1.6-6.4-2.5-6.8
	c-0.5-0.2-1-0.3-1.5-0.3v12.7H10V12.1z M16.2,24.2c2.8,0,3.7-0.8,3.7-3.5s-0.8-3.4-3.8-3.4h-0.8v6.9H16.2z M33.9,21.2
	c4.6,0,7.7,4.5,7.7,11.1c0,6.1-3.3,10.7-7.7,10.7s-7.7-4.5-7.7-10.7C26.2,25.7,29.4,21.2,33.9,21.2L33.9,21.2z M33.9,38.3
	c1.7,0,2.5-2,2.5-6c0-4.5-0.8-6.4-2.5-6.4s-2.5,1.9-2.5,6.4C31.4,36.3,32.2,38.3,33.9,38.3L33.9,38.3z M53.1,39.7L53.1,39.7
	c-1.4,2.2-2.6,3-4.3,3c-2.8,0-4.7-1.9-5.1-5.2c-0.2-1.4-0.3-2.7-0.2-4.1V21.8h5V32c0,4.9,0.3,5.8,1.9,5.8c1.4,0,2.3-1.1,2.8-3.2
	V21.8h5v20.4h-5L53.1,39.7L53.1,39.7z M60.7,21.8h5v2.9h0.1c1.1-2.3,2.6-3.3,4.5-3.3c1.9,0,3.6,1.2,4.3,3c0.6,1.6,0.9,3.3,0.8,5
	v12.8h-5V31.4c0-4.2-0.4-5.3-1.9-5.3c-1.2,0-2.1,1.1-2.7,3.2v12.9h-5L60.7,21.8L60.7,21.8z M87.5,40.2c-1.5,1.7-2.8,2.4-4.3,2.4
	c-3.4,0-6.1-4.5-6.1-10.4c0-6.4,2.6-10.8,6.2-10.8c1.6,0,2.7,0.5,4.3,2.3v-9.6h5v28.1h-5C87.5,42.2,87.5,40.2,87.5,40.2z M87.5,28
	c-1-1.2-1.6-1.7-2.5-1.7c-1.8,0-2.8,2.1-2.8,5.9c0,3.6,1,5.7,2.6,5.7c1,0,1.8-0.7,2.7-2.1L87.5,28L87.5,28z M163.6,17.4h-5.4v-5.2
	h16v5.2H169v24.9h-5.4L163.6,17.4z M187.1,40.7c-1.8,1.3-2.9,1.9-4.1,1.9c-1.6,0-2.4-0.9-2.6-2.8c-1.7,2.1-2.9,2.9-4.6,2.9
	c-2.3,0-4.1-2.3-4.1-5c0-3,1.6-5,5.4-7c1-0.5,1.6-0.8,3-1.4v-0.7c0-1.9-0.6-2.8-2-2.8c-1.7,0-3.3,0.9-5.4,3.1v-4.7
	c1.7-1.8,4-2.8,6.5-2.8c3.1,0,5.1,1.3,5.6,3.7c0.2,1.1,0.3,2.2,0.2,3.3v7.2c0,1.9,0.1,2.2,0.5,2.2c0.6-0.1,1.1-0.4,1.4-0.8
	L187.1,40.7L187.1,40.7L187.1,40.7z M180.2,32.1c-3.2,1.7-4,2.4-4,4.1c0,1.4,0.6,2.2,1.7,2.2c0.8,0,1.2-0.3,2.3-1.4L180.2,32.1
	L180.2,32.1L180.2,32.1z M188.7,14.2h5v8.7c1-0.9,2.4-1.4,3.8-1.4c3.7,0,6.5,4.5,6.5,10.3c0,6.2-2.8,10.7-6.6,10.7
	c-1.5,0-2.8-0.7-3.7-1.9v1.7h-5V14.2z M193.7,35.9c0.4,1,1.4,1.7,2.4,1.9c1.8,0,2.7-2,2.7-5.8c0-3.6-1.1-5.9-2.9-5.9
	c-0.9,0.1-1.8,0.6-2.3,1.3L193.7,35.9z M206.1,14.2h5v28h-5V14.2z M226.2,40.6c-1.7,1.3-3.8,2-5.9,2c-4.5,0-7.3-3.9-7.3-10.1
	s3-11,7-11c3.1,0,5.4,2.4,6.2,6.5c0.3,1.7,0.5,3.4,0.4,5.1H218c0.2,3.5,1.6,5.4,4.1,5.4c1.5-0.1,3-0.6,4.1-1.6L226.2,40.6
	L226.2,40.6z M222,30.1c0-3.3-0.6-5-1.9-5s-2,1.5-2.1,5H222L222,30.1z"/>
<path class="st3" d="M11.4,10.7h6.3c3.5,0,4.9,0.3,6.3,1.7c1.8,1.8,2.7,4.3,2.6,6.9c0,3.3-1.3,5.6-3.9,6.9c1,1,1.7,2.2,2,3.6
	c0.3,1,0.6,2,1.5,5.6l0.5,1.9c0.5,1.8,0.5,2.1,0.9,3.1l0.2,0.5h-5.6l-0.2-1.2l-1-4.5c-1.1-4.8-1.6-6.4-2.5-6.8
	c-0.5-0.2-1-0.3-1.5-0.3v12.7h-5.4V10.7z M17.6,22.8c2.8,0,3.7-0.8,3.7-3.5s-0.8-3.4-3.8-3.4h-0.8v6.9H17.6L17.6,22.8z M35.3,19.8
	c4.6,0,7.7,4.5,7.7,11.1c0,6.1-3.3,10.7-7.7,10.7s-7.7-4.5-7.7-10.7C27.6,24.3,30.8,19.8,35.3,19.8L35.3,19.8z M35.3,37
	c1.7,0,2.5-2,2.5-6c0-4.5-0.8-6.4-2.5-6.4s-2.5,1.9-2.5,6.4C32.8,34.9,33.6,36.9,35.3,37L35.3,37z M54.5,38.2L54.5,38.2
	c-1.4,2.2-2.6,3-4.3,3c-2.8,0-4.7-1.9-5.1-5.2c-0.2-1.4-0.3-2.7-0.2-4.1V20.4h5v10.2c0,4.9,0.3,5.8,1.9,5.8c1.4,0,2.3-1.1,2.8-3.2
	V20.4h5v20.4h-5L54.5,38.2L54.5,38.2z M62.1,20.4h5v2.9h0.1c1.1-2.3,2.6-3.3,4.5-3.3c1.9,0,3.6,1.2,4.3,3c0.6,1.6,0.9,3.3,0.8,5
	v12.8h-5V30c0-4.2-0.4-5.3-1.9-5.3c-1.2,0-2.1,1.1-2.7,3.2v12.9h-5L62.1,20.4L62.1,20.4L62.1,20.4z M88.9,38.8
	c-1.5,1.7-2.8,2.4-4.3,2.4c-3.4,0-6.1-4.5-6.1-10.4c0-6.3,2.6-10.8,6.2-10.8c1.6,0,2.7,0.5,4.3,2.3v-9.6h5v28.1h-5V38.8z M88.9,26.6
	c-1-1.2-1.6-1.7-2.5-1.7c-1.8,0-2.8,2.1-2.8,5.9c0,3.6,1,5.7,2.6,5.7c1,0,1.8-0.7,2.7-2.1L88.9,26.6L88.9,26.6L88.9,26.6z M165,15.9
	h-5.4v-5.3h16v5.3h-5.2v24.9H165L165,15.9L165,15.9z M188.5,39.2c-1.8,1.3-2.9,1.9-4.1,1.9c-1.6,0-2.4-0.9-2.6-2.8
	c-1.7,2.1-2.9,2.9-4.6,2.9c-2.3,0-4.1-2.3-4.1-5c0-3,1.6-5,5.4-7c1-0.5,1.6-0.8,3-1.4v-0.7c0-1.9-0.6-2.8-2-2.8
	c-1.7,0-3.3,0.9-5.4,3.1v-4.6c1.7-1.8,4-2.8,6.5-2.8c3.1,0,5.1,1.3,5.6,3.7c0.2,1.1,0.3,2.2,0.2,3.3v7.3c0,1.9,0.1,2.2,0.5,2.2
	c0.6-0.1,1.1-0.4,1.4-0.8L188.5,39.2L188.5,39.2L188.5,39.2z M181.6,30.6c-3.2,1.7-4,2.4-4,4.1c0,1.4,0.6,2.2,1.7,2.2
	c0.8,0,1.2-0.3,2.3-1.4L181.6,30.6L181.6,30.6L181.6,30.6z M190.1,12.7h5v8.7c1-0.9,2.4-1.4,3.8-1.4c3.7,0,6.5,4.5,6.5,10.3
	c0,6.2-2.8,10.7-6.6,10.7c-1.5,0-2.8-0.7-3.7-1.9v1.8h-5V12.7z M195.1,34.4c0.4,1,1.4,1.7,2.4,1.9c1.8,0,2.7-2,2.7-5.8
	c0-3.6-1.1-5.9-2.9-5.9c-0.9,0.1-1.8,0.6-2.3,1.3L195.1,34.4z M207.5,12.7h5v28.1h-5V12.7z M227.6,39.2c-1.7,1.3-3.8,2-5.9,2
	c-4.5,0-7.3-3.9-7.3-10.2s3-11,7-11c3.1,0,5.4,2.4,6.2,6.5c0.3,1.7,0.5,3.4,0.4,5.1h-8.6c0.2,3.5,1.6,5.4,4.1,5.4
	c1.5-0.1,3-0.6,4.1-1.6L227.6,39.2L227.6,39.2z M223.4,28.7c0-3.3-0.6-5-1.9-5s-2,1.5-2.1,5H223.4L223.4,28.7z"/>
<path class="st5" d="M113.1,38.2l6.9-11.1l-4.2-19.3l-17.7,3.8l4.2,19.3L113.1,38.2z M138.7,29.7l8.6,9.7l5.6-29.2l-19.2-3.7
	l-5.8,29.7L138.7,29.7L138.7,29.7z"/>
<path d="M115.5,2.2v20c0.8,5.1,4.9,9.3,10,9.3c5.1,0,9.3-4.1,9.3-9.3c0,0,0,0,0,0l0,0v-20L115.5,2.2z"/>
<path class="st6" d="M114.5,36.9l-6.2-28.5l-8.8,1.9l4.2,19.3L114.5,36.9z"/>
<path class="st7" d="M112.5,27.6l2,9.2l6.9-11.1l-2-9.2L112.5,27.6z"/>
<path class="st8" d="M110.5,18.4l2,9.3l6.9-11.1l-2-9.3L110.5,18.4z"/>
<path class="st2" d="M110.5,18.4l6.9-11.2l0.1-0.8l-9.2,2L110.5,18.4L110.5,18.4z"/>
<path class="st7" d="M140.6,28.9l4.2-21.7l-9.5-1.9l-5.9,30.2L140.6,28.9L140.6,28.9z"/>
<path class="st6" d="M150.7,29l-1.8,9.4l-8.3-9.4l1.8-9.4C142.4,19.5,150.7,29,150.7,29z"/>
<path class="st8" d="M152.6,19.1l-1.9,9.9l-8.3-9.4l1.9-9.9L152.6,19.1L152.6,19.1z"/>
<path class="st2" d="M154.5,9.1l-1.8,10l-8.3-9.5l0.5-2.4L154.5,9.1L154.5,9.1z M126.6,0.5h-9.3v20c0,5.1,4.1,9.3,9.3,9.3
	c0,0,0,0,0,0l0,0L126.6,0.5z"/>
<path class="st8" d="M133.6,26.6c-1.8,2-4.3,3.2-7,3.1v-9.9L133.6,26.6L133.6,26.6z"/>
<path class="st6" d="M126.6,10.9v8.9l7,6.8c1.5-1.7,2.3-3.9,2.3-6.1v-0.6L126.6,10.9L126.6,10.9z"/>
<path class="st8" d="M135.9,10.6v9.3l-9.3-9V1.6L135.9,10.6z"/>
<path class="st6" d="M135.9,0.5v10.1l-9.3-9V0.5H135.9z"/>
<path class="st3" d="M230.6,40.7h-0.3v-1.4h0.5c0.4,0,0.6,0.1,0.6,0.4c0,0.2-0.1,0.3-0.3,0.4c0,0,0,0-0.1,0l0.4,0.6h-0.3l-0.3-0.6
	h-0.1L230.6,40.7z M230.8,39.9c0.1,0,0.2,0,0.2-0.2s-0.1-0.1-0.3-0.1h-0.2v0.3L230.8,39.9z M230.8,41.3c-0.7,0-1.3-0.6-1.3-1.3
	c0-0.7,0.6-1.3,1.3-1.3c0.7,0,1.3,0.6,1.3,1.3C232.1,40.7,231.6,41.3,230.8,41.3C230.9,41.3,230.8,41.3,230.8,41.3L230.8,41.3z
	 M230.8,39c-0.5,0.1-0.9,0.7-0.7,1.2c0.1,0.4,0.4,0.6,0.7,0.7l0,0c0.6,0,1-0.4,1-1S231.4,39,230.8,39L230.8,39z"/>
</svg>
