<?xml version="1.0" encoding="utf-8"?>
<!-- Generator: Adobe Illustrator 21.1.0, SVG Export Plug-In . SVG Version: 6.00 Build 0)  -->
<svg version="1.1" id="Layer_1" xmlns="http://www.w3.org/2000/svg" xmlns:xlink="http://www.w3.org/1999/xlink" x="0px" y="0px"
	 viewBox="0 0 229.4 73.8" style="enable-background:new 0 0 229.4 73.8;" xml:space="preserve">
<style type="text/css">
	.st0{fill:#5BAA46;}
	.st1{fill:#BA664B;}
</style>
<title>Fast Casual</title>
<polyline class="st0" points="194.6,7.4 193.7,7.3 193.1,7.3 192.5,7.6 192.1,7.8 191.5,8 191,8 190.4,8.4 189.8,8.4 188.6,8.8 
	187.5,8.8 186.5,10 185.9,10.3 186.1,10.9 186.7,11.1 186.5,11.7 186.5,12.1 186.3,12.5 186.9,13.2 186.9,14.4 187.3,14.8 187.5,15 
	188.1,15.7 188.3,16.1 188.3,16.3 189,16.9 189.4,17.3 189.8,17.8 190.2,18.2 190.4,18.8 190.8,19.2 191.2,19.8 191.2,20 
	191.3,20.5 191.2,20.9 190.8,21.3 190.8,21.7 190.6,22.1 190.4,22.5 190,22.8 190.4,24 191,24.6 191.2,25.2 191.7,25.5 192.5,25.5 
	193.1,25.2 194.1,25 194.6,24.4 195.4,23.8 196,23.4 196.2,23 196.4,22.7 196.6,22.3 196.8,21.9 196.8,21.5 197,21.1 197.3,20.7 
	197.5,20.3 197.9,20.2 197.9,19.6 198.3,19.2 198.1,18.6 198.5,18.2 198.3,17.8 198.3,16.7 198.1,16.3 198.1,15.9 198.3,15.5 
	198.3,14.6 197.7,14.2 197.7,13.8 197.3,13.4 197.3,12.6 197.2,12.1 196.6,11.3 196.4,10.5 196,10 195.8,9.2 195.4,8.4 195.2,7.6 
	"/>
<path class="st0" d="M149.8,54v0.2l0.2,0.4l-0.2,0.2V55c0,0.4-0.2,0.6-0.2,0.8l0.2,0.8v1.7l0.2,0.6c0,0.4-0.6,0.8,0,0.8V60
	c0,0.8-0.2,1.5-0.2,2.1c0.2,0.2-2.1,0-2.7-0.2c-1.7,0.4-3.9,0-5,0.2h-4.9l-0.6-0.4l-0.2-0.2c-0.1-1.1-0.1-2.2,0-3.3
	c-0.1-1-0.1-2.1,0-3.1c0.4-0.6,0-1,0-1.5v-6.2c-0.2-0.2-0.2-0.4-0.2-0.8c0-1.2,0.8-3.3,0.8-4l-0.4-0.2l-0.4-0.4c0-1,0.4-2.1,0.4-3.3
	v-0.8l0.2-0.2c0,0-0.4-1-0.2-1.3v-1.3h0.8c0.4,0.1,0.8,0.2,1.2,0.2c0.8,0,3.1,0.2,3.5,0.2h7.6l0.2,0.2l0.2,0.4
	c0.4,0.6,0.7,1.2,0.8,1.9c0.2,0.6,0.2,1.3,0.4,2.3v1.3l0.4,1.4c-0.4,0-0.2,0.8-0.2,0.8v1.7l-0.4,0.6l-0.4,1.4v0.8
	c-0.2,0.8-0.3,1.7-0.4,2.5l-0.6,0.8l-0.2,0.4c0.3,0.3,0.4,0.7,0.4,1.1v0.8"/>
<path class="st0" d="M187.5,27.1l0.4,1l0.6,1l0.4,1.2l0.4,1.2l0.8,0.8l0.4,1.2l-0.2,1.2l0.4,1.9v1.9l0.4,1v1l0.2,0.8l-0.4,1v2.7
	l-0.2,1.7l0.2,1l-0.8,1l-0.2,1.7v0.6l0.2,1.4l-0.6,0.8l-0.2,1.9l-0.2,1.7l-1.6,1.3l-1.2,0.4l-1.2,0.6l-1.4,0.2l-0.8,1.1l-1.2,0.6
	l-1.4,0.2l-1,0.8h-1.4l-1.4,0.2h-1.4l-1.4,0.2l-1.4,0.4l-1.4-0.6h-3.9l-1.4-0.4L165,61l-1-1l-1.2-0.6l-1-0.8l-0.8-0.8l-1-1.2
	l-0.6-1.4v-3.9l-1-1.9v-0.8l0.4-1.2l-0.4-1v-0.4l0.2-0.8v-1.1l-0.4-1.3l0.4-2.3l0.2-1.2l0.8-1.2v-2.6l0.4-2.5l-0.2-1l0.4-0.8
	l0.5-0.7l0.2-0.6l-0.2-1.2l1-1l1.2-0.8l1.6-1.3l0.4-0.2l0.8-1h1.6l1.4-0.8l3.3-0.2l1.7,0.4l1.6,0.2h3.3l1.6,0.8l1.6,0.2l1.6,0.2
	l1.6,0.6l1.6,0.2 M177.8,33.4l-1.2,0.6h-1.4l-1.4-0.2l-2.7,0.8l-1.4,0.8l-0.4,1l-0.2,1l-0.4,1v1.2l0.6,1l0.2,0.6v3.7l-0.4,0.8l0.2,1
	l-0.2,1.3v1.4l0.6,1l0.6,1.4l1,1l1,0.6l1,1.1l1.4-0.4l1.2-0.2l1.2,0.2l1-0.6l0.8-0.6l-0.2-1.4l0.2-1.2l-0.2-1.2l0.4-1.4l0.2-1.1
	l0.4-1.2l-0.6-1.2l0.8-1.4l-0.6-1.2l0.4-1.2l-0.2-2.5l-0.4-1.2l-0.6-1.3l0.2-1.2L177.8,33.4z"/>
<path class="st0" d="M209.5,56.7l0.4-0.2c0.4,0.6,1.9,0.2,2.1,0.6l1.4-0.4l0.6-1.1h0.4c0.4-0.6,0.2-1.4,0.4-1.7l-0.2-1.5
	c0-0.4-0.2-0.8-0.2-1.1c0-0.2,0-0.8-0.4-0.6c0-0.4-0.2-0.8-0.2-1.1c-0.6-0.4-1.2-0.8-1.7-1.4l-0.4-0.8c-0.4,0-0.4-0.6-0.4-0.6
	c-0.4-0.4-0.9-0.7-1.4-1c-0.4-0.4-0.9-0.7-1.4-1l-0.4-0.2l-0.8-0.2c-0.1-0.3-0.3-0.6-0.6-0.8l-0.6-0.6l-0.4-0.4l-0.4-0.6
	c-0.6-0.8-1.4-1.4-1.9-2.1l-1-1c-0.6-0.2-0.4-0.6-0.6-0.8c-0.2-0.4-0.8-1.2-1-1.2c0,0-0.4-0.6-0.6-1v0.2L200,36v-0.1
	c0-0.2-0.2-0.2-0.2-0.6v-0.4l-0.2-0.6l-0.6-1.2c-0.2-0.5-0.4-0.9-0.6-1.3v-0.6c-0.2-1-0.2-2-0.2-3.1c0-0.3,0.1-0.7,0.2-1
	c0.2-0.4,0.4,0,0-0.4v-0.4c0-0.4,0.6-0.8,0.8-1.3l-0.2-0.4c0.1-0.5,0.5-1,1-1.2c0.2-0.4,0.5-0.8,0.8-1.2c0.6-0.8,1.3-1.6,2.1-2.1
	c0.5-0.5,1.1-0.8,1.7-1.2c0-0.4,0.6-0.4,0.8-0.6l0.8-0.4l0.4-0.2l0.4-0.2l0.6-0.4c0.3-0.2,0.7-0.2,1-0.2h0.4c0.4,0,0.6-0.2,1-0.2
	l0.6-0.2c0.4,0.2,0.8,0,1.2,0c0.7-0.1,1.4-0.1,2.1,0c0.4,0,0.6,0.4,1,0.4l0.2-0.4c0.8,0.2,1.7,0.4,2.7,0.6c0.5,0,1.1,0.1,1.6,0.4
	l0.4-0.2l0.4,0.4c0.4,0,1.9,0.4,1.9,0.6h0.2l1.6,0.6c0.5,0.2,0.9,0.5,1.4,0.8h0.4l0.6,0.2v0.6l-0.4,0.8c0.2,0-0.4,2.1-0.8,2.1
	c0.4,0,0,3.7,0.6,3.1c-0.7,1-1.1,2.2-1.2,3.5l-0.8-0.4c-0.5-0.2-1-0.2-1.6-0.2c-1.1-0.7-2.4-1.1-3.7-1.3l-0.4-0.2
	c-0.8-0.2-1.7-1.2-2.5-1.3c-0.6,0-1.7,1.2-1.9,1c-0.4,0.4-1,2.3-0.4,2.1c-0.4,1,0,1.9,1,1.9c0.5,0.8,1.1,1.4,1.9,1.7
	c0.6,0.6,1.7,2.1,2.5,1.9l0.2,0.2c0.2,0.8,0.7,1.4,1.4,1.9c0,0.3,0.1,0.5,0.2,0.8c0.2,0.6,0.2,0,0.6,0.2c0.4,0.4,0.8,0.6,1,0.8
	c0.6,0.8,1.9,1.9,1.7,1.9c0.2,0.2,0.4,0.5,0.4,0.8c0.1,1,0.3,1.9,0.6,2.9l0.4,1l0.2,0.2v0.6c0,0.6-0.1,1.2-0.2,1.7
	c0.2,0.6,0.2,1.3,0.2,1.9l0.6,1c0,0.3,0,0.7-0.2,1v0.4c0.2,0.4,0.2,0.9,0.2,1.4c0,0.3,0,0.7-0.2,1v1.5c0,0.4,0.2,0.8,0,1v0.4
	c0.1,0.4,0.2,0.8,0.2,1.1l0.2,0.4v1l-0.2,0.4c-0.2,0.8-0.2,1.5-0.6,1.9c0,0.8-0.2,1.6-0.4,2.3c0,0.3-0.1,0.7-0.2,1
	c0.6,0,0.4,0.2,0.2,0.4l-0.2,1.7c-0.4,0.4-0.2-0.8-0.4-0.4c-0.2,0-0.4,0.4-0.6,0.8l0.2,0.2l-0.2,0.2v0.6l-0.2,0.4
	c-0.4,0.4-0.4,0.8-1,1.2l-0.8-0.4l-0.4,0.2c-0.2,0.4-0.4,0.4-0.6,0.6c-0.2,0-0.4,0.2-0.8,0.4c-0.2,0-0.4,0.2-0.8,0.4h-0.8L218,72
	l-0.2,0.2c-0.4,0.2-0.6,0.4-0.8,0.4l-0.4,0.4h-0.8l-0.4-0.2h-0.7l-0.6,0.2l-0.8-0.2h-0.6c-0.4,0.2-0.8,0-1.2,0
	c-0.9-0.2-1.8-0.2-2.7-0.2v-0.2h-0.6l-0.2,0.2l-0.4-0.7l-0.2,0.2l-0.6-0.2l-1.7-0.2l-0.4,0.2l-1.6-0.2c-0.4-0.2-1-0.2-1.6-0.4
	l-0.4,0.2l-0.6-0.2l-0.6-0.2c-0.4,0-0.8,0-1.2-0.2c-1.1-0.5-2.1-1-3.1-1.7l-0.4-0.4l-0.4-1v-0.8c0-0.6,0.8-1.4,0.8-1.7
	c0.2-0.2,0.8-0.4,0.8-0.8l-0.2-0.8c0.4,0,0.6-1.1,0.6-1.1c0.2-0.4,0.4-0.9,0.6-1.4c0-0.4,0.6,0.8,0.4,0v-1c0.2-0.4,0.4-0.6,0.4-1
	l0.4-0.2h0.4c-0.2-0.2-0.6-0.4-0.6-0.8s0.4-0.6,0.6-1l0.2-0.6c0.4-0.4,0.4-0.6,0.4-0.6l0.2-0.4c0.4,0,0.6-0.4,0.8-0.4h0.4l0.4,0.2
	l-0.2,0.2h0.4c0.3,0,0.5,0,0.8-0.2c0.9,0.1,1.7,0.3,2.5,0.6c0.6-0.2,1.2-0.2,1.7,0l0.4,0.4l1.4,0.2l0.4,0.2l0.6-0.4"/>
<path class="st0" d="M57.9,60.8l-1.9-0.6c-0.3-0.2-0.6-0.4-1-0.6c-1.2-0.3-2.3-0.6-3.5-1c-0.4-0.2-1-0.4-1.4-0.6v-1
	c-0.2-1-0.4-1.7-0.6-2.5c0-0.4,0-0.8-0.2-1.1v-0.8c0-0.5-0.1-0.9-0.2-1.4v-0.8l-0.2-1.7c0-1.9,0.2-4.2,0.2-5l-0.2-0.2l-0.4-0.4
	c0-1-0.2-1.9-0.4-2.9c0.2-0.8,0.2-1.6,0-2.3v-1.1l0.2-0.2l-0.2-0.8c-0.2-0.4-0.2-0.8-0.2-1.2v-0.4l-0.2-0.2V34l0.2-0.6l-0.2-0.8
	l-0.2-0.8v-1.3l0.2-0.2l-0.2-1.7V28c0.2,0.2,0.2-0.2-0.2-0.6c0,0,0.2-1.9,0.2-2.5c-0.1-1.2-0.1-2.4,0-3.7c0.4,0.2,1.2-0.2,1.9-0.2
	h1.4l0.6,0.2c0.4,0,0.8-0.8,1.2-0.8l1,0.6l0.2,0.2c0.4,0,0.6,0.2,1,0.2h4.8c0.4-0.1,0.8-0.2,1.2-0.2c0.6,0.4,1,1.7,1.2,2.3v0.6
	c-0.2,1.4,0,2.7,0.6,4c-0.8,0-0.4,4.4-0.8,4.2c0.4,1.5,0.8,1.5,0.8,2.1c0.2,0.8-0.2,2.5,0.4,3.7c-0.3,0.4-0.3,1,0,1.3
	c-0.1,1.1-0.2,2.2-0.2,3.3c0,1.4,0,2.3,0.6,3.1c0,0.6,0,0,0.6,0.2c1.2,1.4,3.7,1.5,3.7,1.5l1.6-0.6v-0.6l0.4-0.2l0.2-0.4l0.4-0.8
	c0-0.4,0.2-0.6,0.2-1c-0.1-1.5-0.3-3-0.6-4.4v-1c0-0.4,0.2-0.4,0.2-0.6c0.1-0.4,0.2-0.8,0.2-1.2c0-1.5-0.2-3.3-0.2-4.8l-0.2-1.3
	c0.1-0.7,0.1-1.4,0-2.1v-1.9l-0.6-1.3v-4.7h1.2l0.4-0.2l-0.2,0.4h0.8l0.2-0.2c0.2-0.4,1.2,0,1.2-0.2l0.4-0.2l1.3-0.2l0.4,0.2
	c0.5-0.2,1-0.2,1.6-0.2l0.6-0.2l0.2,0.2h1.6c1.6,0,3.1,0.2,4.6,0.4l0.2,0.2h0.2c0,0.4,0.6,0.8,0.6,1.5c0,1-0.6,2.3,0.4,3.7
	c-1,0.2-0.8,3.3,0,3.1c-0.8,1.2-0.2,1.3-0.2,1.3c0.2,1-0.6,1.7-0.4,2.7c0,1,0.8,1.7,0.8,2.7s-0.2,1.9-0.2,3.1v3.5
	c-0.2,1.9-0.7,3.7-1.6,5.4c0.2,1.4-0.2,5.4,0.2,5.6c-0.3,0.7-0.6,1.4-0.8,2.1c-0.3,0.4-0.7,0.8-1.2,1.1c-0.4,0.4-1,1.2-1.2,1.2
	c0,0.2-1.6,0.2-2.5,0.6c-1.1,0.5-2.1,1.2-2.9,2.1l-0.6,0.2c-1.3,0-2.6,0.1-3.9,0.4c-0.6,0.2-1.4,1-1.7,1c-0.4,0.2-0.9,0.2-1.3,0.2
	c-0.8,0-1.6,0-2.3-0.2c-0.7-0.1-1.4-0.1-2.1,0c-0.7,0-1.3-0.1-1.9-0.3l-0.4-0.2l-0.8-0.4l-1-0.2L57.9,60.8z"/>
<polyline class="st1" points="177,72.9 176.6,73.3 177.6,73.1 177,72.9 "/>
<path class="st0" d="M150.1,6.3c2-1.5,4.7-1.5,6.8-0.2c-2.5,0.2-0.8,2.9-1.4,5.4l0.4,0.4c0.6,1.3,0.4,2.1,0.8,3.5l0.2,0.6
	c1.4,1.3,2.3,3.1,4.4,1.3c-0.7,2.8-3.1,4.9-6,5l-0.2,0.4c-0.8,1.2-1.6,1.5-1.9,2.3c1.6,2.3,0,6.2-1.9,8.1c0.8-1.5-1.6-2.1-3.3-3.3
	l-1.2-1.2c-0.8,0.2-1.7,0.1-2.5-0.2c-0.9,2-3.3,2.8-5.3,1.9c-0.4-0.2-0.7-0.4-1.1-0.7c-2.3-2.3-4.1-0.4-4.8,0.2
	c-0.2-3.1,1.4-5,2.7-5.4l-0.2-0.6c-0.4-0.6-0.8-1.2-1.2-1.9c-1-0.4-1.7-1.2-2.7-1.3c-1.2,0-2.3,1.5-2.3,1.5
	c-0.6-4.2,1.7-7.5,5.2-7.3l0.8-1.9c-0.8-1.7,0.6-3.7-2.7-3.7c1.2-3.1,5.4-3.3,7.9-1.2V7.9l0.2,0.2h1l0.6,0.4l0.4-0.2l0.2,0.2
	l0.2,0.2h0.8l0.2,0.2h0.6l0.2,0.4c0.4,0.2,0.4,0,0.8,0.2l0.4,0.2l0.2,0.2l0.2,0.2l0.2,0.2l0.4,0.2l0.4,0.4l0.3,0.1l0.2,0.2h0.2
	l0.4,0.4h0.2v0.4l0.4,0.4l0.8,1l0.4,0.8c0.2,0.4,0.4,0.8,0.6,1.2l-0.2,0.2l0.2,0.2h0.2v0.3l-0.4,0.2v0.2h0.4
	c0.2,0.8,0.2,1.7-0.2,2.5v0.8h-0.1l-0.2,0.2l-0.2,0.6l-0.6,0.2v0.2h-0.2v0.2c-0.2,0.2-0.5,0.4-0.8,0.6l-0.4,0.2v0.2h-0.2l-0.6,0.4
	V22c-0.3,0.2-0.7,0.3-1.1,0.4l-0.4,0.2h-0.4l-0.4,0.2h-0.2l-0.4,0.2c-0.5,0-0.9,0-1.4-0.2c-0.4,0-0.8-0.2-1.2-0.4l-0.4-0.2h-0.2
	c-0.4-0.2-0.6-0.6-1-0.8c-0.2-0.2-0.5-0.4-0.8-0.6l-0.2-0.6h-0.2l-0.2-1c-0.4,0.2-0.6-0.4-0.2-0.2c-0.4-0.2-0.6-1.5-0.8-1.3l0.2-1.3
	l0.2-0.2l0.2-0.6l0.2-0.4c0.3-0.3,0.6-0.6,1-0.8v-0.4h0.2l0.6-0.2c0.4-0.2,0.9-0.2,1.4-0.2l0.6,0.6l0.2-0.4l0.2,0.6l0.6,0.2
	c0.2,0,0.4,0.2,0.6,0.6c0,0.2,0.2-0.4,0,0.2c0.2-0.4,0.4,0,0.4,0c0,0.2,0.4,0.6,0.4,1c0,0.3-0.1,0.5-0.2,0.8l0.2,0.4l-0.2,0.2
	c0,0.4,0,0.2-0.2,0.2l0,0l0.2,0.2c0,0.4-0.8,0.6-1.2,0.4h-0.2v-0.2l-0.4,0.2l-0.4,0.2h-0.2l-0.4,0.2l0.2-0.4l-0.4-0.2l-0.4-0.6
	l-0.4-0.2c-0.5-0.5-0.5-1.2-0.2-1.7l-0.2,0.2l-0.2,0.4l-0.2,0.2v0.2c0,0.4,0,0.8-0.2,0.8v0.4c0,0.3,0.1,0.6,0.4,0.8
	c-0.2,0-0.2,0.4,0.2,0c-0.4,0.6,0,0.8,0,0.4c0,0.3,0.2,0.5,0.4,0.6c0.1,0,0.1,0,0.2,0c0.5,0.4,1,0.6,1.6,0.8l-0.2,0.2l0.6-0.2
	c0.3,0,0.7,0.1,1,0.2h1.2l0.4,0.2h0.2l0.2-0.2v-0.2h0.6l0.4-0.6l0.2-0.2l0.4-0.4l0.2-0.2c0.6-0.7,0.8-1.8,0.6-2.7v-0.4
	c0-0.4,0.2-0.4,0-0.8l-0.4-0.2c-0.2-0.4-0.4-0.9-0.6-1.3l-0.4-0.8l-0.2-0.4l-0.2,0.2l-0.4-0.6c-0.4-0.4-0.6-0.8-1-1l-0.4-0.2h-0.4
	l-0.4-0.2c0,0-1.4-0.2-1.6-0.6c0.2,0.4-1.2,0-1.4,0.4l-0.2-0.2l-0.4,0.6c0-0.6-1.2,0-0.2,0.2h-1c-0.6,0.4-1.1,0.8-1.6,1.3H138v-0.2
	l-0.2,0.2l-0.4,0.4c-0.2,0.4-0.4,0.6-0.6,1l-0.2,0.2h0.2l-0.2,0.2h-0.2l-0.2,0.4L136,15l0.2,0.2v0.2c-0.2,0.6-0.3,1.1-0.4,1.7
	c-0.3,0.3-0.3,0.8-0.2,1.2l0.2,0.4c-0.3,0.3-0.4,0.7-0.2,1l0.4,0.6l-0.2,0.2c0.2,0.9,0.7,1.7,1.4,2.3c0.3,0.5,0.7,0.9,1.2,1.3
	l0.2,0.2l-0.2,0.4h0.2l0.4,0.4c0.4,0.4,0.8,0.8,1.4,1l0.6-0.2l0.2,0.4l0.4-0.4h1l0.6,0.4h0.8v0.2l0.6-0.4h0.2v0.2h0.4v-0.3h0.4
	c0.8,0,1.6,0.4,2.1-0.2v-0.2h-0.2l1.2-0.6c0.4,0,0.8,0,1.2-0.2l0.2-0.2l1-0.8c0.2-0.2,0.4,0.2,0.6-0.2c0.5-0.5,0.8-1.1,1.2-1.7
	l0.6-0.2l-0.2,0.2l0.4-0.2c0-0.2,0.2-0.2,0.2-0.6l0.4-0.8l0.2-0.2h-0.3l0.2-0.4h0.2l0.2-0.4v-0.4l-0.2-0.2H154V17l0.2-0.2l-0.2-0.2
	v-1.9c0.2-0.4,0.2-0.8,0-1.2c-0.1-0.3-0.3-0.6-0.6-0.8c-0.4-0.4-0.6-1-0.4-1c-0.4-0.2-0.8-0.4-0.8-0.8v-0.1l-0.2-0.2
	c-0.2-0.6-0.6-1-1.2-1.3l-0.2-0.2L150.5,9l-0.4-0.2V8.6l-0.2,0.2V8.6l-0.4-0.2L148.9,8h-0.8l-0.6-0.2h-0.8l-0.2-0.2l-0.2,0.2
	L146,7.6h-0.2c-0.2,0,0-0.2-0.4-0.2h-1c-0.4-0.2-0.8-0.4-1.2-0.8c-1.4-1.3-0.4-3.1,1-2.9c-0.8,0.4,0.2,2.1,1.6,2.3h1
	c0.7-0.2,1.5-0.3,2.3-0.2C149.6,6.1,149.7,6.1,150.1,6.3"/>
<path class="st0" d="M128.3,42.1v-1.7c0.1-0.4,0.1-0.8,0-1.2c0-1.2,0-2.3-0.2-3.5c-0.2-1.2-0.4-2.3-0.6-3.5c0-0.4,0-0.8-0.2-1.2
	c0.6,0-0.2-1.3-0.6-1.5c-0.1-0.4-0.2-0.7-0.4-1l0.2-0.2l-0.2-0.2c0-0.8-0.2-0.8-0.2-0.8c-0.4-0.5-1-0.8-1.6-1L124,26
	c-0.2-0.2-0.6-0.2-1-0.4c-0.4-0.2-0.8-0.4-1.2-0.8c-0.2,0-0.6-0.4-1-0.4l-0.4,0.2c-0.2-0.4-0.4-0.6-0.8-0.6l-0.6-0.2l-1.2-0.2
	c-1.4-0.2-2.7-0.4-4.1-0.8l-1.7-0.2H112l-0.2-0.2c-0.8-0.6-0.6,0.2-1.3,0c-0.6-0.2-1.4-0.2-1.9-0.4l-2.3-0.6c-0.4-0.2-0.6-0.2-1-0.4
	c0.3-1.3,0.4-2.6,0.4-3.8c0-0.8-0.2-1.3-0.2-2.1c0.1-0.5,0-1.1-0.2-1.5c-0.2-0.9-0.3-1.9-0.3-2.8c0.2-0.6,0-1.3,0.2-1.9
	c0.2-0.8,0.4-3.1,0.6-3.1c0,0,0.2,0.2,0.2-0.2c0.2-0.8,0.3-1.7,0.4-2.5c-0.1-0.9-0.4-1.7-1-2.3c-1.7-0.2-3.3-0.2-4.4-0.4h-2.3
	c-0.5,0-1.1,0.1-1.6,0.4l-0.6-0.2l-1.2,0.2h-0.6c0,0.4-1,0-1.2,0.4c-0.4,0-0.6,0.2-1,0.6l-0.4,0.4v0.2c0.2,1.7,0.2,3.5,0.2,5.2
	c0,1,0.2,3.8-0.2,4.6c-0.2,0.6,0.2,1.3,0.2,2.1v1.9c-0.8,0,0,1.2,0,1.9v5.6l0.2,0.8c0,1.9-0.8,5.2-0.8,6.2l0.2,0.2
	c0.3,0.1,0.6,0.4,0.6,0.8c0,1.5-0.4,3.3-0.4,4.8V44c0.2,1.6,0.3,3.2,0.4,4.8c0,0.4-0.2,0.8-0.6,0.8v1.5c0.3,1.6,0.5,3.2,0.6,4.8v0.6
	c0,0.4,0.2,0.8,0.4,1.1c1.2,0.7,2.5,1.2,3.9,1.5c0.8,0.2,1.7,0.2,2.5,0.2l1.6,0.6h1.2c0.5,0,1,0,1.6-0.2c1.6,0.4,3.3,0.5,5,0.4
	c0.4,0.2,0.6,0.4,1,0.4c0.4,0.2,1,0,1.4,0s0.8,0.4,1.2,0.4l0.8-0.2L113,60c0.4-0.2,1.9,0,2.3-0.2c0.2-0.2,1.2-0.2,1.7-0.4l0.4-0.2
	l0.8-0.4l0.8-0.6l0.2-0.2l0.4-0.2h0.4l1.6-0.8c0.4-0.2,0.6-0.6,1-0.8c0,0.2,0.2,0,0.2-0.4l0.8-0.6c0.6-0.4,0.4-2.1,1.2-2.1
	c0.9-1.1,1.6-2.3,2.2-3.6L127,49l0.2-0.4c0.2-0.7,0.4-1.4,0.4-2.1c0.2,0.2,0.8-1.5,0.8-1.9s0.2-1,0.2-1.4S128.3,42.5,128.3,42.1z
	 M120.9,39.4v1h-0.4v0.5l0.2,0.2c-0.4,1.3-1.1,2.5-2,3.5c-0.2,0-0.6,0.8-1,1.2c-0.6,0.4-1.2,0.6-1.9,0.6c-1,0.4-2,0.6-3.1,0.8v0.2
	l-0.4,0.4h-0.2l-0.6-0.2l-0.4-0.2h-2.4c-0.4,0-1.4-0.2-1.2-0.4c0,0-0.8-0.8-0.6-1.1c-0.4,0.2,0.2-2.5,0.6-3.3
	c-0.4-0.4,0-2.5,0.2-2.9c-0.2-0.8-0.4-3.1-0.6-4.4c0.4-0.6,0.6-2.5,0.8-2.3c0-0.4,0.8-0.4,0.8-0.6c0.6-0.3,1.3-0.5,1.9-0.6
	c0.4,0.2,0.9,0.3,1.4,0.4c0.3,0,0.7,0,1,0.2h0.2c0.4,0,0.8,0.1,1.2,0.4c0.6,0.2,1.4,0.4,2.1,0.6c0.9,0.4,1.7,0.8,2.5,1.3l0.6-0.2
	l0.2,0.2c0.6,0.9,1.1,1.9,1.6,2.9c0,0.4,0,0.8-0.2,1.2C121.5,38.6,121.1,39,120.9,39.4z"/>
<path class="st0" d="M43.2,68.8l-0.8-0.2c0-1,0.4-0.4-0.2-1.5c-0.5-1-0.7-2.1-0.8-3.3C41.2,61,41,59.2,41,55.8
	c-0.1-2.3,0.1-4.6,0.4-6.9c-0.2-1.1-0.2-2.2-0.2-3.3c-0.6-2.3-1.5-4.4-1.7-5.4c-0.4-1-0.6-1.7-1-2.7c-0.2-0.8-0.4-1.7-0.4-2.5
	c-0.5-1.1-1.2-2.1-1.9-3.1c-0.6-0.3-1.1-0.8-1.5-1.3c-0.6-0.8-1.2-0.8-1.5-1.5c1.4-0.2,2.3-1.2,3.7-2.5c0.6-0.6,2.5-4.6,2.9-4.6
	s0.4-1.9,0.8-3.1v-2.1c0.2,0,0.2-0.8,0-1.3c-0.2-1.3-0.4-2.6-0.4-3.8l-0.2-0.6C39,10.1,38.4,9,38.1,7.8c-0.4-0.8-0.6-0.4-1.4-1
	l-0.4-0.4c0.2-0.2-0.2-0.4-0.8-0.8h-0.2c-0.3-0.3-0.7-0.5-1.2-0.6c-0.4-0.2-1-1.3-2.1-1.7c0,0-0.2-0.6-2.1-0.6
	c0.2-0.2-0.8-0.4-1.9-0.4c-0.8-0.2-1.7-0.4-2.9-0.8l-0.4,0.3L24,1.7c-0.5,0-1.1-0.1-1.5-0.4h-0.2l-0.2,0.2h-0.4c-1,0-2.1,0-3.1-0.2
	l-0.4-0.2h-0.6c0,0.4-3.9-0.2-4.3-0.2s-0.8,0.2-1.2,0.2H12l-0.2,0.2c-0.6-0.1-1.2-0.2-1.7-0.2C9.7,1.3,9.4,1.4,9,1.3L8.3,1.7
	c-0.2,0-1.9-0.6-1.9,0c0,0-1.7,0.4-2.1,0.4s-0.6,0.2-1,0.4c-1,0.3-2,0.8-2.7,1.5c0.3,0.3,0.6,0.7,0.6,1.2c0,1,0.2,5.2,0.2,6.3
	c0.2,0.8-0.6,3.5-0.6,4.4s1,1.7,1,2.7s-0.2,1.9-0.2,3.1c-0.1,1.2-0.1,2.3,0,3.5c0,0.4-0.4,1-0.4,1.5v1.2c0.2,0.6-0.2,1.3-0.2,1.9
	v5.6c0,0.4-0.2,0.6-0.2,1.2l0.2,0.6c0,1.9,0.6,4.4,0.6,5.4v0.2l-0.8,0.8v0.2c0.1,0.3,0.2,0.7,0.2,1c0,1.2,0.2,2.5,0.2,3.7v1.9
	c0,0.6,0.2,1,0,1.4v0.8l0.2,0.4c0,0.4-0.2,1.5-0.2,1.5v1.5c0,1.5-0.4,3.3-0.4,4.8l0.6,0.8v0.4c1,0.5,2.1,0.8,3.3,1H6
	c0.4,0.1,0.9,0.1,1.4,0h0.2c0.8,0,1.6-0.2,2.3-0.4c0.4-0.2,1.2-0.4,1.4-0.2l0.8,0.2h0.2c0.7,0,1.4,0,2.1-0.2L15,62
	c-0.2-0.4-0.4-0.9-0.4-1.4c-0.2-0.6-0.4-1.3-0.4-1.9l-0.2-1v-0.9c0-0.4-0.4-0.6-0.4-1c0-0.6,0.2-1.7,0.2-2.3
	c-0.1-1.3,0.1-2.6,0.6-3.9c-0.5-2-0.8-4.1-1-6.2l0.2-0.6c0.2-0.5,0.4-1.1,0.4-1.7l0.2-0.8c0.1-0.4,0.2-0.9,0.2-1.3v-0.4
	c1,0,1.9,0.2,2.7,0.2l1,0.2l0.4-0.2l0.6,0.4l0.2-0.2c1.2,0.3,2.4,0.9,3.5,1.5c0.2,0,0.2-0.2,0.4,0.2c0.8,0.2,1.2,0.8,1.7,1.5
	l0.6,0.6l0.4,0.2c0.2,0.4,0.4,1,0.6,1.4s0.4,0.6,0.6,1c0.4,0,1,1.5,0.8,1.7l0.2,0.4c0.8,1.4,1,3,0.8,4.6v1.4c0.6,0,0.6,1.5,0.6,1.7
	c0,0.4-0.2,1.2-0.2,1.9v1.5c0.1,0.8,0,1.7-0.2,2.5v0.4c0.4,0,0.2,4.4,0.4,5.4c0,0.4,0.4,0.6,0.8,1.9c0,0.6-0.2,0.8-0.2,1.7
	c0.4,0,0.6,0.2,1,0.2h4.8c0.4,0,0.6-0.2,1-0.2l0.2-0.2l1-0.6h1.2c0.4-0.2,0.8-0.2,1.2-0.2c1.4-0.2,2.7,0.8,3.1-0.2L43.2,68.8z
	 M25.2,21.1v0.2c-0.4,0.6-0.8,1.9-1.3,2.3L22.1,25c-0.8,0-0.6,1-1.2,1.2l-1,0.2h-0.4l-0.2,0.2c-0.5,0-0.9,0.2-1.4,0.4h-1
	c-0.8-0.2-2.3-0.2-2.5,0.2h-0.2c-0.8-0.4-3.5-0.2-4.3-0.6l0.2,0.2c-0.6,0.4-0.2-1.5-0.2-2.1c-0.4-0.8-0.4-1.9-0.8-2.7
	c0.3-0.8,0.4-1.7,0.4-2.5c0.1-0.9,0.2-1.8,0.4-2.7c-0.2-0.6,0.4-1.3,0.4-1.7v-0.2l0.4-0.2c0.3,0,0.5-0.1,0.8-0.2
	c1-0.2,1.9-0.3,2.9-0.2c0.8,0.4,4.3,0.4,4.6,0.4l1.4,0.4c0.6,0.1,1.1,0.4,1.5,0.8c-0.2,0.2,1.5,1,1.9,1.5
	C24.9,18.3,25.3,19.7,25.2,21.1L25.2,21.1z"/>
<path class="st0" d="M227.9,68.4c0.2,0.1,0.4,0.3,0.5,0.5c0.1,0.2,0.2,0.5,0.2,0.8c0,0.4-0.1,0.7-0.4,1c-0.5,0.6-1.3,0.6-1.9,0.1
	c0,0-0.1-0.1-0.1-0.1c-0.3-0.3-0.4-0.6-0.4-1c0-0.4,0.1-0.7,0.4-1C226.6,68.2,227.3,68.1,227.9,68.4 M226.4,68
	c-0.3,0.1-0.5,0.4-0.7,0.6c-0.2,0.3-0.3,0.6-0.3,1c0,0.5,0.2,0.9,0.5,1.3c0.6,0.7,1.7,0.7,2.4,0.1c0,0,0,0,0.1-0.1
	c0.7-0.7,0.7-1.8,0-2.5c-0.3-0.4-0.8-0.5-1.3-0.5C226.8,67.9,226.6,68,226.4,68 M226.8,70.6v-0.8h0.1c0.1,0,0.2,0,0.3,0.1
	c0.1,0.1,0.2,0.2,0.2,0.4l0.1,0.3h0.4l-0.2-0.4c-0.1-0.1-0.1-0.2-0.2-0.3c0-0.1-0.1-0.1-0.2-0.1c0.1,0,0.3-0.1,0.4-0.2
	c0.1-0.1,0.1-0.2,0.1-0.4c0-0.1,0-0.3-0.1-0.4c-0.1-0.1-0.3-0.2-0.5-0.1h-0.9v1.9H226.8z M226.8,69h0.3c0.1,0,0.2,0,0.3,0.1
	c0.1,0,0.1,0.1,0.1,0.2c0,0.1,0,0.2-0.1,0.2c-0.1,0-0.2,0.1-0.3,0.1h-0.3L226.8,69z"/>
</svg>
