<?xml version="1.0" encoding="utf-8"?>
<!-- Generator: Adobe Illustrator 21.1.0, SVG Export Plug-In . SVG Version: 6.00 Build 0)  -->
<svg version="1.1" id="Layer_1" xmlns="http://www.w3.org/2000/svg" xmlns:xlink="http://www.w3.org/1999/xlink" x="0px" y="0px"
	 viewBox="0 0 207.1 28" style="enable-background:new 0 0 207.1 28;" xml:space="preserve">
<style type="text/css">
	.st0{fill:#C51218;}
	.st1{fill:#E2E2E2;}
</style>
<title>Casual dining</title>
<path class="st0" d="M22.4,15.2c-0.5,0-0.6,0.1-0.6,0.6c0.1,0.7,0,1.3-0.2,2c-0.1,0.4-0.3,0.8-0.8,0.8c-0.5,0-0.9-0.3-1-0.7
	c-0.1-0.2-0.2-0.5-0.2-0.7c-0.2-0.8-0.2-1.7-0.2-2.6c-0.1-2.3-0.9-3.3-3.1-3.8l-0.9-0.2c1.3-0.1,2.6-0.5,3.8-1.2
	c1.5-1,2.3-2.8,2-4.5c-0.1-1.7-1.2-3.2-2.8-3.7c-1.2-0.4-2.4-0.6-3.7-0.6H2.2c-1.7,0-1.7,0-1.6,1.8c0,0.4,0.1,0.5,0.5,0.5
	c0.6,0,1.3,0,1.9,0c0.6,0,1,0.4,1,1c0,0,0,0.1,0,0.1c0,4.5,0,9.1,0,13.6c0.1,0.5-0.3,1-0.9,1.1c0,0-0.1,0-0.1,0c-0.3,0-0.6,0-0.9,0
	c-1.6,0-1.6,0-1.6,1.6c0,0.6,0.2,0.7,0.7,0.7c3.1,0,6.2,0,9.3,0c1.8,0,1.8,0,1.7-1.8c0-0.4-0.1-0.5-0.5-0.5c-0.7,0-1.4,0-2,0
	c-0.5,0.1-1.1-0.3-1.1-0.9c0-0.1,0-0.2,0-0.3c0-1.9,0-3.7,0-5.6c0-0.4,0.1-0.5,0.5-0.5c0.9,0,1.8,0,2.7,0.1c2.1,0.2,3.1,1.1,3.5,3.2
	c0.2,1.3,0.1,2.6,0.3,3.9c0.1,1.3,1,2.5,2.3,2.8c3.4,1,5.9-0.6,6.2-4.1c0-0.1,0-0.3,0-0.4C24,14.7,24.2,15.3,22.4,15.2z M14.7,8.8
	C12.8,9.3,10.9,9,8.9,9.1c-0.4,0-0.4-0.2-0.4-0.5c0-0.9,0-1.8,0-2.7s0-1.7,0-2.5c0-0.4,0.1-0.6,0.6-0.6c1.4,0,2.9,0,4.3,0
	c0.5,0,1,0.1,1.4,0.3c1.3,0.3,2.2,1.6,2,2.9C17,7.3,16,8.6,14.7,8.8L14.7,8.8z"/>
<path class="st0" d="M57.3,7.1c-2.5-1.6-5.9-1-7.7,1.4c0-2.5,0-4.8,0-7.1c0-0.4,0-0.7-0.6-0.6c-1.8,0-3.5,0-5.3,0
	c-0.2,0-0.4,0-0.4,0.1c-0.1,0.6-0.1,1.1,0,1.7c0.1,0.4,0.5,0.2,0.8,0.2c1.4,0,1.6,0.2,1.6,1.7c0,5.2,0,10.4,0,15.6
	c0,0.2,0,0.4,0,0.6s0.1,0.3,0.3,0.4c0.9,0.3,1.9-0.1,2.3-0.9c0.4-0.7,0.7-0.6,1.2-0.1c2.7,2.3,6.7,2,9-0.7c0.5-0.5,0.8-1.1,1.1-1.8
	c0.6-1.7,0.8-3.5,0.6-5.3C60.2,10.1,59.1,8.2,57.3,7.1z M55.8,16.4c-0.2,1.5-1.5,2.6-3,2.5c-1.5,0.2-2.8-0.9-3-2.4c0,0,0,0,0,0
	c-0.1-0.8-0.2-1.7-0.2-2.5c0-1.1,0.1-2.3,0.4-3.3c0.4-1.4,1.8-2.3,3.2-2.1c1.4,0,2.6,1.1,2.6,2.5C56.2,12.8,56.2,14.7,55.8,16.4
	L55.8,16.4z"/>
<path class="st0" d="M79.1,7.1c0-0.3-0.1-0.5-0.5-0.5c-2.3,0-4.5,0-6.8,0c-0.3,0-0.4,0.1-0.4,0.4c-0.2,1.5-0.1,1.6,1.3,1.6
	c0.9,0,1.3,0.5,0.9,1.3c-0.9,2.2-1.8,4.3-2.8,6.7c-1-2.4-2-4.6-3-6.7c-0.4-0.9-0.1-1.2,0.8-1.2c1.3,0,1.3,0,1.3-1.3
	c0-0.1,0-0.2,0-0.2c0-0.3-0.1-0.5-0.5-0.5c-2.8,0-5.5,0-8.3,0c-0.4,0-0.5,0.2-0.5,0.5c0,0.2,0,0.5,0,0.7c-0.1,0.6,0.2,0.8,0.8,0.8
	c1.1,0,2,0.6,2.4,1.6c1.3,2.8,2.7,5.5,4,8.3c1.2,2.4,1.2,2.4-0.2,4.8c-0.7,1.3-2.1,2-3.5,1.8c-0.5,0-0.9-0.2-1.1-0.6h0.5
	c0.8,0.1,1.6-0.5,1.8-1.3c0.1-0.8-0.3-1.6-1-2c-1.1-0.7-2.6-0.3-3.3,0.8c-0.1,0.2-0.2,0.5-0.3,0.7c-0.5,1.8,0.6,3.7,2.4,4.2
	c2.1,0.8,4.5,0.1,6-1.6c1-1.2,1.7-2.6,2.3-4c1.6-3.7,3.3-7.4,4.9-11.2c0.2-0.8,1-1.4,1.8-1.5c0.8,0,1-0.4,0.9-1.1
	C79.1,7.6,79.1,7.4,79.1,7.1z"/>
<path class="st0" d="M42.8,18.9h-0.4c-1.4,0-1.6-0.3-1.6-1.6c0-3.3,0-6.6,0-9.9c0-0.6-0.2-0.7-0.7-0.7c-1.7,0-3.3,0-4.9,0
	s-1.5,0-1.4,1.5c0,0.4,0.2,0.5,0.6,0.5c0.5,0,1.1,0,1.6,0c0.6,0,1.1,0.4,1.1,1c0,0.1,0,0.2,0,0.2c0,1.8,0,3.6,0,5.3
	c-0.1,2-1.7,3.6-3.7,3.7c-1.2,0.2-2.4-0.6-2.6-1.8c0-0.2,0-0.4,0-0.6c0-0.6,0-1.2,0-1.9c0-2.4,0-4.9,0-7.3c0-0.5-0.1-0.7-0.7-0.7
	c-1.8,0-3.6,0-5.4,0c-0.4,0-0.6,0.1-0.6,0.6c0,1.5,0,1.5,1.4,1.5c1.3,0,1.5,0.2,1.5,1.5c0,2.3,0,4.6,0,7c-0.2,2.1,1.4,3.9,3.5,4.1
	c0,0,0.1,0,0.1,0c2.5,0.5,5-0.4,6.5-2.4c0,0.5,0,1,0,1.5s0.2,0.6,0.6,0.6c1.8,0,3.6-0.1,5.4,0c0.8,0,1-0.2,1-1
	C43.8,18.7,44,18.9,42.8,18.9z"/>
<path class="st1" d="M100.2,1.3c0-0.6-0.1-0.7-0.7-0.7c-3.1,0-6.2,0-9.2,0s-6.1,0-9.2,0c-0.7,0-0.9,0.1-0.9,0.9c0.1,2,0,3.9,0,5.9
	c0,1.4,0,1.3,1.4,1.4c0.8,0,1.1-0.2,1.1-1C82.5,4.7,84,3.1,87.1,3c0.7,0,0.8,0.2,0.8,0.8c0,4.3,0,8.5,0,12.8c0,2.2,0,2.2-2.2,2.2
	c-1.6,0-1.5,0-1.6,1.6c0,0.6,0.2,0.8,0.8,0.8c3.2,0,6.4,0,9.6,0c1.8,0,1.7,0,1.7-1.8c0-0.4-0.1-0.6-0.6-0.5c-0.7,0-1.5,0-2.2,0
	c-0.5,0-1-0.3-1-0.8c0-0.1,0-0.2,0-0.2c0-0.4,0-0.9,0-1.3c0-4.2,0-8.5,0-12.7c0-0.3-0.2-0.7,0.4-0.7c2.6,0.1,4.7,1.1,4.8,4.4
	c0.1,1.6,0.1,1.6,1.7,1.6c0.5,0,0.7,0,0.7-0.6C100.1,5.9,100.1,3.6,100.2,1.3z"/>
<path class="st1" d="M171.3,18.9c-0.2,0-0.4,0-0.6,0c-1.6,0-1.8-0.2-1.8-1.8c0-5.1,0-10.3,0-15.4c0-0.7-0.1-1-0.9-1
	c-1.6,0.1-3.2,0-4.8,0c-1.4,0-1.4,0-1.4,1.4c0,0.5,0.2,0.6,0.7,0.6s1,0,1.5,0c0.5-0.1,1,0.3,1.1,0.9c0,0,0,0.1,0,0.1
	c0,1.6,0,3.2,0,4.8l-0.2,0.1c0-0.1-0.1-0.2-0.1-0.3c-2-2.6-5.7-3-8.3-1c-0.7,0.6-1.3,1.3-1.7,2.1c-1.3,2.4-1.5,5.3-0.4,7.9
	c0.9,2.9,3.9,4.5,6.8,3.8c1.6-0.4,2.9-1.3,3.8-2.6c0,0.6,0,1.1,0,1.7s0.1,0.6,0.6,0.6c1.6,0,3.1,0,4.7,0s1.5,0,1.4-1.5
	C171.8,18.9,171.7,18.8,171.3,18.9z M164.5,16.9c-0.6,1.4-2,2.3-3.6,2.1c-1.1-0.1-2.1-0.9-2.4-2c0-0.1-0.1-0.3-0.1-0.4
	c-0.2-0.9-0.4-1.8-0.4-2.7c0-0.8,0.1-1.7,0.3-2.5c0-0.1,0-0.2,0.1-0.3c0.2-1.2,1.2-2.2,2.4-2.4c1.3-0.2,2.6,0.4,3.4,1.5
	c0.5,0.7,0.8,1.6,0.9,2.5C165.2,14.1,165,15.5,164.5,16.9L164.5,16.9z"/>
<path class="st1" d="M206.6,7.6c0-0.2,0-0.4,0-0.6c0-0.3-0.1-0.4-0.4-0.4c-2.2,0-4.5,0-6.7,0c-0.4,0-0.4,0.1-0.5,0.5
	c-0.1,1.5-0.1,1.5,1.4,1.6c0.9,0,1.3,0.5,0.9,1.3c-0.9,2.2-1.8,4.3-2.8,6.6c-1-2.3-1.9-4.3-2.9-6.4c-0.6-1.3-0.4-1.6,1-1.5
	c0.9,0.1,1.1-0.2,1-1c0-0.1,0-0.2,0-0.3c0.1-0.6-0.2-0.8-0.8-0.7c-2.4,0-4.8,0-7.1,0c-1.3,0-1.3,0-1.3,1.3c0,0.6,0.2,0.8,0.8,0.8
	c0.9-0.1,1.8,0.4,2.2,1.2l5.1,10.5c0.2,0.2,0.2,0.5,0.1,0.8c-0.4,0.8-0.8,1.7-1.2,2.5c-0.7,1.2-2.1,1.9-3.5,1.6
	c-0.4,0-0.8-0.3-1-0.6h0.4c0.8,0.1,1.6-0.4,1.8-1.3c0.2-0.9-0.2-1.7-1-2.1c-1.1-0.7-2.6-0.3-3.3,0.9c-0.1,0.2-0.2,0.4-0.3,0.6
	c-0.5,1.7,0.4,3.4,2,4.1c2.2,1,4.8,0.4,6.3-1.5c0.9-1.1,1.6-2.4,2.2-3.8c1.7-3.8,3.3-7.6,5-11.4c0.3-0.8,0.8-1.4,1.7-1.5
	S206.7,8.4,206.6,7.6z"/>
<path class="st1" d="M190,18c0.1-0.3,0.1-0.7,0.1-1c0.1-1.4,0-1.3-1.3-1.4c-0.6,0-0.8,0.2-0.8,0.8c0.1,0.7,0,1.5-0.2,2.2
	c-0.1,0.4-0.4,0.6-0.8,0.5c-0.3-0.1-0.6-0.3-0.6-0.7c0-0.3,0-0.5,0-0.8c0-2.2,0-4.5,0-6.7c0.2-2-1.2-3.8-3.2-4.2
	c-2.2-0.6-4.6-0.6-6.9,0.2c-0.7,0.2-1.3,0.6-1.8,1.1c-0.7,0.8-1,1.9-0.6,2.9c0.6,1.3,2.1,1.8,3.4,1.2c0.2-0.1,0.4-0.2,0.5-0.3
	c0.5-0.5,0.6-1.2,0.4-1.8c-0.2-0.9-1-1-2-1.1c1.3-0.9,3-1.1,4.5-0.7c0.9,0.1,1.6,0.8,1.7,1.7c0.2,1-0.3,1.9-1.2,2.4
	c-0.6,0.3-1.2,0.5-1.9,0.7c-1.5,0.3-2.9,0.7-4.3,1.3c-1.6,0.7-2.4,2.5-2,4.2c0.2,1.6,1.5,2.8,3.1,2.9c2.4,0.4,4.7,0,6.4-2
	c0.5,1.1,0.8,1.5,1.6,1.8c2,1,4.3,0.2,5.3-1.8C189.8,18.9,189.9,18.5,190,18z M182.5,16.7c-0.3,1.4-1.5,2.3-2.9,2.4
	c-0.8,0.2-1.6-0.2-2-0.9c-0.4-0.9-0.2-1.9,0.6-2.6c0.4-0.3,0.8-0.5,1.2-0.7l3.3-1.4C182.7,14.5,182.6,15.6,182.5,16.7z"/>
<path class="st1" d="M119.8,18.9c-0.2,0-0.3,0-0.5,0c-1.4,0-1.6-0.3-1.6-1.7c0-3.2,0-6.5,0-9.7c0-0.6-0.1-0.8-0.8-0.8
	c-1.6,0.1-3.2,0-4.9,0c-1.4,0-1.4,0-1.4,1.4c0,0.5,0.2,0.7,0.7,0.6c0.5,0,1,0,1.5,0c0.6-0.1,1.1,0.4,1.2,1c0,0.1,0,0.2,0,0.3
	c0,1.7,0,3.5,0,5.2c-0.1,1.6-1.1,3-2.6,3.6c-2.2,0.8-3.7-0.3-3.7-2.6c0-2.9,0-5.9,0-8.8c0-0.3,0.2-0.7-0.4-0.7h-5.9
	c-0.2,0-0.3,0.1-0.3,0.3c-0.3,1.4-0.1,1.7,1.4,1.7c1.3,0,1.5,0.3,1.5,1.5c0,2.4,0,4.8,0,7.1c-0.1,2,1.4,3.7,3.4,3.9
	c2.7,0.4,5-0.2,6.7-2.7c0,0.8,0,1.3,0,1.8s0.1,0.6,0.6,0.6c1.7,0,3.4,0,5.1,0c1.1,0,1.1,0,1.1-1.1C120.8,19,120.6,18.7,119.8,18.9z"
	/>
<path class="st1" d="M149.5,13.1c-1.3-0.6-2.6-1-3.9-1.3c-1-0.2-1.9-0.5-2.8-0.9c-0.5-0.2-0.8-0.9-0.5-1.4c0.1-0.2,0.2-0.3,0.3-0.4
	c0.3-0.3,0.6-0.4,1-0.5c2.2-0.6,4.5,0.5,5.4,2.6c0.2,0.5,0.5,0.7,1,0.6c0.3,0,0.5,0,0.8,0c0.4,0,0.5-0.1,0.5-0.5c0-1.4,0-2.8,0-4.1
	c0-0.2,0-0.3-0.1-0.4s-1.7,0-1.9,0.3c-0.3,0.6-0.6,0.5-1.1,0.3c-2.3-1.4-5.2-1.5-7.6-0.2c-1.5,0.7-2.4,2.3-2.2,3.9
	c0.1,1.5,1.1,2.8,2.6,3.2c1.3,0.5,2.5,0.9,3.9,1.1c1,0.2,1.9,0.5,2.8,0.9c0.7,0.3,1,1.1,0.6,1.8c-0.1,0.2-0.3,0.4-0.5,0.6
	c-0.3,0.3-0.8,0.4-1.2,0.5c-2.4,0.5-4.9-0.8-5.7-3.2c-0.2-0.6-0.5-0.9-1.1-0.8c-0.2,0-0.4,0-0.6,0c-0.7-0.1-1,0.1-0.9,0.8
	c0,0.6,0,1.3,0,1.9c0,0.8,0,1.5,0,2.3c0,0.2-0.1,0.5,0.1,0.5c0.6,0,1.2,0,1.8,0c0.4,0,0.4-0.4,0.6-0.6s0.3-0.4,0.7-0.1
	c2.3,1.4,5,1.7,7.5,0.9c1.8-0.4,3.1-1.8,3.2-3.6C152.3,15.4,151.5,14.1,149.5,13.1z"/>
<path class="st1" d="M130.6,6.4c-3.5-0.9-7.1,1-8.5,4.3c-0.7,1.9-0.8,4-0.2,6c0.5,2.1,2.2,3.8,4.3,4.3c1.8,0.5,3.7,0.5,5.4,0
	c2-0.5,3.5-2,4-4c0.3-1.2,0.3-1.2-0.9-1.2c-0.3,0-0.6,0-1,0s-0.6,0.1-0.7,0.5c-0.4,1.7-2,2.9-3.8,2.7c-1.7,0-3.2-1.3-3.4-3
	c-0.1-0.4-0.1-0.8-0.1-1.2s0.1-0.7,0.6-0.7c1.5,0,3,0,4.5,0s3,0,4.4,0c0.5,0,0.6-0.1,0.7-0.6C136.2,10.1,133.9,7.1,130.6,6.4z
	 M131.7,11.9c-0.1,0.3-0.3,0.3-0.5,0.3h-4.9c-0.2,0-0.4,0-0.5-0.3c-0.1-1.7,1.1-3.3,2.9-3.4c0.2,0,0.4,0,0.5,0
	C130.9,8.7,132,10.3,131.7,11.9L131.7,11.9z"/>
</svg>
