<?xml version="1.0" encoding="utf-8"?>
<!-- Generator: Adobe Illustrator 21.1.0, SVG Export Plug-In . SVG Version: 6.00 Build 0)  -->
<svg version="1.1" id="Layer_1" xmlns="http://www.w3.org/2000/svg" xmlns:xlink="http://www.w3.org/1999/xlink" x="0px" y="0px"
	 viewBox="0 0 181 69" style="enable-background:new 0 0 181 69;" xml:space="preserve">
<style type="text/css">
	.st0{fill:#EB3B43;}
	.st1{fill:#FEFEFE;}
	.st2{fill:#020202;}
	.st3{fill:#FDF002;}
</style>
<title>CR</title>
<g>
	<path class="st0" d="M179.7,53.8c-0.6-1.3-1.4-2.5-2.5-3.5c-1.4-1.2-3.2-1.8-5-2l-1.6,0.1l-3.9-0.1l-0.6,0.4
		c-2.7,1.8-5.8,2.7-9,2.7c-0.9,0-1.7-0.1-2.6-0.2c-1.2-0.2-2.5-0.5-3.6-1.1c-1.1-0.5-2.2-1.1-3.2-1.8H147H141c0,0,0,0.1,0,0.2
		s0-0.1,0-0.2l-2.7-0.1c-1.3,1.4-3.2,2.2-5.1,2c-2-0.1-4,0-6,0c-0.8,0-1.5-0.2-2.2-0.5c-0.4-0.2-0.8-0.2-1.1,0
		c-2.6,1.1-5.4,1.6-8.3,1.5c-2.8-0.1-5.4-0.9-7.7-2.5c-0.3-0.2-0.6-0.3-0.9-0.1c-1.9,1-3.9,1.6-6,1.9c-2.5,0.3-5.1-0.3-7.3-1.6
		c-0.3-0.2-0.7-0.2-1,0c-2.6,1.4-5.6,2-8.6,1.8c-2.3-0.1-4.6-0.9-6.6-2.1c-0.2-0.2-0.6-0.2-0.8,0c-2.4,1.3-5.1,1.9-7.8,1.6
		c-1.5-0.1-3-0.5-4.4-1.3c-0.3-0.2-0.7-0.2-1,0c-2,1.1-4.3,1.7-6.7,1.7c-2.1,0-4.2-0.7-6-1.9c-0.3-0.3-0.7-0.3-1,0
		c-1.9,1.2-4,1.8-6.2,1.9c-2.5,0.2-5.1-0.6-7-2.3h-3.9c-0.1,0.1-0.3,0.3-0.4,0.4c-2,2.1-4.4,3.8-7.1,5.1c-0.5,0.1-1,0.4-1.4,0.6
		l0.8,2.7l0,0c0.1,0,0.3,0.1,0.4-0.1c0.2-0.6,0.6-0.4,1-0.4l0,0c0.2-0.7,0.3-1.4,0.5-2.1c0.1-0.3,0.2-0.4,0.5-0.4c0.2,0,0.3,0,0.5,0
		c0.8,0,0.8,0,0.7,0.7l0,0L28,55.9v0.2c0,0.1,0,0.2-0.1,0.3c-0.5,2.2-1,4.4-1.4,6.6c-0.1,0.3-0.2,0.3-0.5,0.3
		c-1.3,0.1-1.3,0.1-1.6-1.2s-0.8-2.8-1.1-4.1c-0.1,0-0.1-0.2-0.2-0.1c-0.5,1.7-0.9,3.4-1.4,5.1c-0.1,0.3-0.2,0.4-0.5,0.4
		c-1.2,0-1.2,0-1.5-1.1s-0.5-2.3-0.8-3.4c0-0.2-0.1-0.5-0.2-0.7v-0.3l0,0l-0.4-2.1c-1.6,0-3.2,0-4.8-0.2c-1.1-0.2-2.1-0.5-3.2-0.9
		c-0.2,0.5-0.3,1.1-0.3,1.6c-0.1,0.2,0,0.4-0.1,0.7c-0.1,1.6-0.1,3.2,0.1,4.8c0.1,0.2,0.2,0.5,0.2,0.7l0.3,0.7
		c0.9,2,2.5,3.7,4.5,4.6c1.1,0.5,2.2,0.8,3.4,0.8c50.9,0,101.8,0,152.7,0c4.4,0.1,8.2-2.9,9.1-7.3C180.8,58.8,180.6,56.2,179.7,53.8
		z M35,63.2c-1.2,0-1.2,0-1.2-1.2c0-0.9,0-1.7,0-2.6s-0.4-1.3-1-1.4c-0.7-0.1-1.3,0.4-1.4,1.1c-0.1,0.9-0.2,1.9-0.1,2.8
		c0,1.2,0,1.1-1.2,1.2c-0.4,0-0.5-0.1-0.5-0.5c0-2.4,0-4.9,0-7.3c0-0.2,0-0.4,0-0.6c-0.2-0.7-0.2-0.7,0.8-0.7c0,0,0-0.1,0-0.1
		s0,0.1,0,0.1c0.9,0.1,0.9,0.1,0.9,1c0,0.7,0,1.4,0,2.1c0.3,0,0.4-0.2,0.6-0.3c1-0.7,2.4-0.5,3.2,0.5c0.3,0.4,0.5,0.9,0.4,1.5
		c0,1.3,0,2.6,0,3.9C35.4,63.1,35.3,63.2,35,63.2z M42.4,58.5c-1,2.1-2,4.3-3,6.5c-0.1,0.4-0.5,0.7-0.9,0.6c-0.4,0-0.7,0-1.1,0
		c0.4-0.9,0.8-1.7,1.2-2.5c0.1-0.3,0.1-0.6,0-0.8c-0.8-1.8-1.5-3.7-2.3-5.6c0.5,0,1,0,1.5,0c0.3,0,0.3,0.2,0.4,0.4
		c0.4,1,0.8,2,1.3,3c0,0.2,0.1,0.4,0.3,0.5c0.5-1.1,1.1-2.3,1.6-3.4c0.1-0.4,0.5-0.6,0.9-0.6c0.4,0,0.7,0,1.1,0L42.4,58.5z
		 M57.4,55.3c-0.6,2.4-1.1,4.9-1.7,7.3c-0.1,0.4-0.2,0.5-0.7,0.5c-1.1,0-1.1,0-1.4-1.1c-0.4-1.3-0.7-2.6-1.1-3.9
		c0-0.2-0.1-0.4-0.3-0.6c-0.5,1.6-0.9,3.3-1.3,4.9c-0.1,0.5-0.3,0.7-0.9,0.6c-0.2,0-0.4,0-0.6,0c-0.3,0-0.4-0.1-0.4-0.3
		c-0.6-2.7-1.2-5.5-1.8-8.2c-0.1-0.3,0-0.4,0.3-0.4c1.3-0.1,1.3-0.1,1.6,1.2s0.6,2.8,1,4.2h0.1l0.8-2.9c0.2-0.7,0.4-1.4,0.6-2.1
		c0.1-0.4,0.3-0.5,0.7-0.5c0.1,0,0.2,0,0.2,0c0.6-0.1,0.8,0.2,0.9,0.7c0.4,1.4,0.8,2.9,1.2,4.3c0,0.1,0,0.3,0.2,0.4
		c0.4-1.6,0.8-3.2,1.1-4.8c0.1-0.5,0.3-0.6,0.7-0.6C57.6,54.3,57.6,54.3,57.4,55.3L57.4,55.3z M61.8,63.3c-1.9-0.1-3.3-1.6-3.2-3.5
		c0.1-1.9,1.6-3.3,3.5-3.2c1.8,0.1,3.3,1.6,3.2,3.4c0,1.9-1.5,3.3-3.4,3.3C61.9,63.3,61.8,63.3,61.8,63.3L61.8,63.3z M69.7,57.1
		c-0.1,0.2-0.2,0.4-0.3,0.7C69.4,58,69.3,58.1,69,58c-0.5-0.1-0.7,0.3-0.8,0.6c-0.2,0.6-0.2,1.2-0.2,1.8c0,0.8,0,1.6,0,2.4
		c0,0.1,0,0.1,0,0.2c-0.4,0.5-0.9,0.1-1.3,0.2c-0.2,0-0.4,0-0.4-0.3c0-2,0-3.9,0-5.9c0-0.3,0.1-0.4,0.3-0.3c0.2,0,0.4,0,0.5,0
		c0.4,0,0.8-0.1,0.6,0.6c0.4-0.5,1-0.8,1.7-0.7C69.7,56.6,69.9,56.7,69.7,57.1L69.7,57.1z M74.3,62.4c-0.6-0.8-1.3-1.5-2-2.2
		c0,0.9,0,1.6,0,2.4c0,0.5-0.2,0.6-0.6,0.6c-1.1,0-1.1,0-1.1-1.1c0-2.5,0-5,0-7.5c0-0.4,0.1-0.6,0.6-0.6c1.1,0,1.1,0,1.1,1.1
		c0,1.3,0,2.7,0,4.2c0.7-0.8,1.4-1.5,2-2.2c0.3-0.4,0.7-0.5,1.1-0.5c0.4,0,0.8,0,1.4,0c-0.9,1-1.6,1.9-2.4,2.7
		c-0.3,0.3-0.3,0.5,0,0.8c0.9,0.9,1.8,1.9,2.8,3C76,63.1,75,63.5,74.3,62.4L74.3,62.4z M87.8,63.2c-0.2,0-0.3,0-0.3-0.2
		c0-0.1-0.1-0.1-0.1-0.2c-0.2-0.5-0.3-1.1-0.6-1.4s-1-0.1-1.6-0.1H85c-1.3-0.2-2.2,0.1-2.4,1.6c0,0.3-0.2,0.4-0.5,0.4
		c-0.4,0-0.9,0-1.4,0l1.1-3c0.7-1.8,1.4-3.6,2.1-5.5c0.1-0.3,0.3-0.5,0.6-0.4c1.3,0,1.3,0,1.8,1.2l2.9,7.7L87.8,63.2z M95.9,63.2
		c-0.3,0-0.6,0-0.9,0c-0.3,0-0.4-0.1-0.4-0.4c0-1,0-1.9,0-2.9c0-0.2,0-0.4,0-0.6c-0.1-0.7-0.4-1.1-0.9-1.2c-0.6-0.1-1.2,0.3-1.4,0.8
		c-0.2,0.4-0.2,0.8-0.2,1.2c0,0.9,0,1.8,0,2.7c0,0.3-0.1,0.4-0.4,0.4c-1.3,0.1-1.3,0.1-1.3-1.3c0-1.5,0-3.1,0-4.6
		c0-0.6,0.2-0.7,0.7-0.6c0.1,0,0.3,0,0.4,0c0.4-0.1,0.7,0,0.6,0.7c0.7-0.7,1.7-1,2.7-0.7c0.9,0.2,1.5,1,1.5,1.8c0.1,1.5,0,2.9,0,4.4
		C96.3,63.1,96.1,63.2,95.9,63.2L95.9,63.2z M103.2,58.5c-1,2.1-2,4.2-2.9,6.4c-0.1,0.5-0.6,0.8-1.1,0.7c-1-0.1-1-0.1-0.5-0.9
		c0.9-1.2,0.9-2.8,0.1-4.1c-0.6-1.2-1.1-2.5-1.6-3.8c0,0,0-0.1,0-0.1c1.6-0.1,1.6-0.1,2.2,1.4c0.4,0.8,0.7,1.7,1.1,2.6l1.3-2.8
		c0.6-1.4,0.6-1.4,2.3-1.2L103.2,58.5z M112.1,61.9c-0.1,0.3-0.2,0.5-0.3,0.8c-0.1,0.5-0.4,0.6-0.8,0.6c-0.3,0-0.6-0.2-0.6-0.4
		c-0.4-1-0.8-2.1-1.2-3.2c-0.4,1.1-0.9,2.1-1.2,3.2c-0.1,0.4-0.4,0.5-0.8,0.5s-0.6-0.2-0.7-0.5c-0.6-1.8-1.3-3.6-2-5.5
		c-0.1-0.2-0.1-0.3-0.2-0.6c0.4,0,0.8,0,1.2,0s0.4,0.1,0.5,0.4c0.4,1,0.7,2.1,1.1,3.3c0.4-1.1,0.9-2.1,1.2-3.1
		c0.1-0.4,0.3-0.5,0.7-0.5s0.6,0.1,0.7,0.5c0.4,1,0.8,2,1.2,3.2c0.4-1,0.7-2,1-2.9c0.2-0.6,0.4-0.8,1-0.7c0.3,0,0.6,0,0.9,0
		L112.1,61.9z M120.4,63.2c-1.3,0.1-1.3,0.1-1.3-1.2c0-0.9,0-1.7,0-2.6s-0.4-1.3-1-1.3c-0.7-0.1-1.3,0.4-1.4,1.1c-0.1,1-0.2,2-0.1,3
		c0,1,0,1-1,1c-0.6,0-0.7-0.1-0.7-0.7c0-2.6,0-5.3,0-7.9c0-0.4,0.1-0.5,0.5-0.5c1.1,0,1.1,0,1.1,1.1c0,0.7,0,1.3,0,2.1
		c0.6-0.5,1.3-0.8,2-0.8c1.1-0.1,2,0.8,2.1,1.9c0,0,0,0.1,0,0.1c0.1,1.4,0,2.9,0,4.3C120.7,63.1,120.6,63.2,120.4,63.2L120.4,63.2z
		 M128.4,60.5c-0.7,0-1.5,0-2.2,0s-1.5,0-2.3,0c-0.4,0-0.4,0.1-0.3,0.4c0.6,1,1.8,1.3,2.8,0.8c0,0,0,0,0,0c0.2-0.1,0.4-0.4,0.6-0.3
		s0.8,0.3,1.1,0.5c0.1,0.1,0.1,0.1,0,0.2l-0.1,0.1c-1,1.1-2.5,1.4-3.9,0.9c-1.3-0.3-2.3-1.4-2.3-2.8c-0.2-1.3,0.4-2.6,1.5-3.3
		c1.1-0.7,2.6-0.8,3.7-0.1c1.1,0.6,1.7,1.8,1.7,3.1C128.8,60.4,128.7,60.5,128.4,60.5L128.4,60.5z M133.1,57.1
		c-0.1,0.2-0.1,0.4-0.2,0.6c-0.1,0.3-0.1,0.5-0.6,0.4s-0.7,0.3-0.8,0.7c-0.1,0.6-0.2,1.2-0.2,1.8c0,0.8,0,1.6,0,2.4
		c0,0.3-0.1,0.4-0.4,0.4c-1.3,0.1-1.3,0.1-1.3-1.3c0-1.6,0-3.2,0-4.7c0-0.4,0.1-0.6,0.6-0.5c0.1,0,0.2,0,0.4,0
		c0.4-0.1,0.7,0,0.6,0.6c0.4-0.5,1-0.7,1.6-0.7C133.2,56.5,133.4,56.7,133.1,57.1L133.1,57.1z M140.2,60.5c-1.6,0-3.2,0-4.8,0
		c0.2,1,1.1,1.6,2.1,1.4c0.2,0,0.4-0.1,0.6-0.3c0.5-0.3,1.1-0.3,1.6,0c0.4,0.2,0.5,0.3,0.1,0.7c-1,1-2.6,1.3-3.9,0.8
		c-1.2-0.4-2.1-1.5-2.2-2.8c-0.2-1.3,0.4-2.6,1.5-3.3c1.1-0.7,2.6-0.8,3.7-0.1c1.1,0.6,1.8,1.8,1.7,3.1
		C140.7,60.4,140.5,60.5,140.2,60.5L140.2,60.5z M148.4,57.5c0.5,0,1,0,1.5,0s0.5,0.1,0.5,0.5c0,1.1,0,1.1-1.1,1.1
		c-0.6,0-1.1,0-1.7,0c-0.3,0-0.4,0.1-0.4,0.4c0,0.5,0,1.1,0,1.6c0,0.3,0.1,0.4,0.4,0.4c0.8,0,1.5,0,2.3,0c0.3,0,0.4,0.1,0.4,0.4
		c0,1.2,0,1.2-1.2,1.2s-2.1,0-3.2,0c-0.3,0-0.5-0.1-0.5-0.4c0-2.7,0-5.3,0-8c0-0.4,0.1-0.5,0.5-0.5c0.6,0,1.3,0,2,0s1.3,0,2,0
		c0.3,0,0.4,0.1,0.4,0.4c0,1.3,0.1,1.3-1.2,1.3c-0.5,0-1,0-1.5,0c-0.3,0-0.4,0-0.4,0.4C147.3,57.5,147.3,57.5,148.4,57.5L148.4,57.5
		z M152.7,63.2c-1,0-1,0-1-1.1v-3.6l0,0c0-1.3,0-2.7,0-4c0-0.4,0.1-0.5,0.5-0.5c1.1,0,1.1,0,1.1,1.1c0,2.5,0,4.9,0,7.4
		C153.4,63,153.3,63.2,152.7,63.2L152.7,63.2z M158.9,61.8c-0.3,0.9-1.1,1.5-2.1,1.5h-0.2c-0.7,0-1.5-0.2-2-0.8
		c-0.3-0.2-0.4-0.4,0-0.7c0.1-0.1,0.1-0.1,0.2-0.2c0.3-0.5,0.6-0.7,1.2-0.2c0.3,0.2,0.6,0.3,0.9,0.3c0.2,0,0.4-0.2,0.5-0.4
		c0.1-0.2-0.1-0.5-0.3-0.6c-0.3-0.2-0.5-0.3-0.8-0.5c-0.4-0.2-0.7-0.4-1.1-0.6c-0.8-0.6-0.9-1.7-0.3-2.4c0.2-0.3,0.5-0.5,0.8-0.6
		c1-0.4,2.2-0.1,2.9,0.6c0.2,0.2,0.3,0.4,0,0.6c-0.1,0.1-0.2,0.2-0.3,0.3c-0.3,0.4-0.6,0.6-1,0.1c-0.1-0.1-0.3-0.2-0.4-0.2
		c-0.3-0.1-0.6-0.1-0.7,0.2s0.1,0.4,0.4,0.6c0.4,0.2,0.9,0.4,1.3,0.6C158.7,59.9,159.2,60.9,158.9,61.8L158.9,61.8z M166.4,60.5
		c-0.8,0-1.5,0-2.3,0s-1.5,0-2.3,0c-0.4,0-0.4,0.1-0.3,0.4c0.5,0.9,1.6,1.3,2.5,0.8c0,0,0.1,0,0.1-0.1c0.8-0.5,1.2,0,1.8,0.2
		c0.2,0.1,0.2,0.2,0,0.3s-0.2,0.2-0.2,0.3c-1,1-2.6,1.2-3.9,0.7c-1.3-0.4-2.1-1.5-2.2-2.8c-0.2-1.3,0.4-2.5,1.5-3.2
		c1.1-0.7,2.6-0.8,3.7-0.1c1.1,0.6,1.7,1.8,1.7,3.1C166.9,60.4,166.8,60.5,166.4,60.5L166.4,60.5z M170.7,63.3c-0.6,0-1-0.4-1.1-0.9
		c0,0,0,0,0,0c0.1-0.6,0.6-1,1.2-1c0.5,0,0.9,0.4,1,1C171.7,62.9,171.3,63.3,170.7,63.3L170.7,63.3z M172.9,58.1
		c-0.7,0.7-1.4,1.2-1.4,2.3c0,0.4-0.5,0.1-0.8,0.2c-1,0-1-0.1-0.9-1c0.1-0.7,0.5-1.3,1-1.8c0.3-0.2,0.5-0.5,0.8-0.7
		c0.4-0.3,0.4-0.8,0.1-1.2c-0.1-0.2-0.3-0.3-0.5-0.3c-0.6-0.2-1.3,0.1-1.6,0.7c0,0,0,0,0,0.1c-0.1,0.3-0.2,0.3-0.4,0.3s-0.3,0-0.4,0
		c-0.9,0-1-0.1-0.7-0.9c0.5-1.4,2-2.1,3.4-1.8c1.3,0.2,2.2,1.3,2.1,2.6C173.6,57.1,173.4,57.6,172.9,58.1L172.9,58.1z"/>
	<path class="st0" d="M21.6,57.2l0.6-2.3c-0.8,0.1-1.6,0.4-2.4,0.4l0.5,1.9L21.6,57.2z"/>
	<path class="st0" d="M175.5,48.5c-2.3,0-4.1-1.8-4.1-4.1c0-2.3,1.8-4.1,4.1-4.1c2.3,0,4.1,1.8,4.1,4.1S177.8,48.5,175.5,48.5
		C175.5,48.5,175.5,48.5,175.5,48.5z M175.5,41.3c-1.7,0-3.1,1.4-3.1,3.1s1.4,3.1,3.1,3.1s3.1-1.4,3.1-3.1l0,0
		C178.7,42.7,177.2,41.3,175.5,41.3L175.5,41.3z"/>
	<path class="st0" d="M2.7,48.5l-0.1-0.1C2.4,48,2.3,47.8,2,47.5c-2.7-5.9-1.8-11.4,2.1-16.3c2.3-2.7,5.4-4.7,8.9-5.5
		c0.5-0.1,0.7-0.3,0.6-0.9c-0.2-5.6,2.4-9.7,6.9-12.8C24,9.8,27.9,8.3,32,7.7c1.6-0.3,3.2-0.4,4.8-0.5c0.3,0,0.5-0.2,0.7-0.4
		c1.7-2,3.9-3.7,6.4-4.8c3.2-1.6,6.8-1.9,10.3-1c1.7,0.6,3.2,1.5,4.4,2.8c1.9,2,2.7,4.7,2.3,7.4c-0.3,2-1.3,3.8-2.7,5.1
		c-0.2,0.2-0.4,0.4-0.3,0.7c0.2,0.8,0.3,1.7,0.3,2.5c0,0.3,0.1,0.3,0.4,0.4c0.8,0.1,1.6,0.2,2.4,0.3c1,0.2,1.9,0.6,2.7,1.2
		c0.3,0.2,0.6,0.2,0.9,0.1c2.6-1.1,5.4-1.5,8.2-1c1.2,0.2,2.3,0.7,3.3,1.3c0.4,0.5,0.7,0.5,1.1,0c2-1.5,4-3,6-4.5
		c2.1-1.6,4.9-2,7.3-1c2.2,1,3.6,3.2,3.6,5.6c0.7-0.5,1.4-1.1,2.1-1.7c1.1-0.9,2.2-1.8,3.3-2.6c1.1-0.9,2.4-1.6,3.9-1.8
		c1.6-0.2,3.3,0.1,4.6,1c0.5,0.4,1,0.8,1.4,1.3c0.9,1.1,1.4,2.5,1.4,3.9c0,0.5,0.7,1.1,1,1c0.5-0.2,1.1-0.5,1.6-0.8
		c1.5-0.6,3.1-1,4.7-1.2c3.3-0.5,6.7,0.3,9.5,2.1c0.2,0.2,0.6,0.2,0.8,0c2.6-1.4,5.6-2,8.6-1.8c1.3,0.1,2.6,0.5,3.7,1.1
		c0.3,0.1,0.6,0.1,0.8,0c1.5-0.6,3-0.8,4.6-0.8c-0.3-0.9-0.6-1.9-0.7-2.9c-0.2-5.1,3.7-9.4,8.8-9.7c1.9-0.1,3.8,0.4,5.5,1.5
		c0.2,0.2,0.5,0.4,0.7,0.5h0.1c0.8,0.8,1.5,1.6,2.1,2.6c1.1,2,1.4,4.3,0.9,6.6c0,0.2,0,0.3,0.2,0.4c1.5,0.4,2.8,0.9,4.1,1.7l0.1,0.1
		c0.1,0.1,0.2,0.2,0.4,0.3c1.7,1.2,3.1,2.8,4,4.8c1.3,2.5,0.9,5.5-0.8,7.7c-0.2,0.2-0.3,0.6-0.1,0.9c0.7,1.8,0.8,3.7,0.3,5.6
		c-0.7,2.8-2.4,5.3-4.8,7l-0.6,0.4c-2.7,1.8-5.8,2.7-9,2.7c-0.9,0-1.7-0.1-2.6-0.2c-1.2-0.2-2.5-0.5-3.6-1.1
		c-1.1-0.5-2.2-1.1-3.2-1.8c-0.1-0.3-0.4-0.2-0.5-0.4c-1-1-2-2-2.8-3.2c-0.8-1.3-1.2-2.7-1.3-4.2c0-0.5-0.2-0.6-0.6-0.7
		c-0.8-0.1-0.8-0.1-1.1,0.7c-0.1,0.3-0.2,0.6-0.3,0.9c-0.8,2.3-1.7,4.6-2.8,6.8c-1.3,1.5-3.2,2.2-5.1,2c-2-0.1-4,0-6,0
		c-0.8,0-1.5-0.2-2.2-0.5c-0.4-0.2-0.8-0.2-1.1,0c-2.6,1.1-5.4,1.6-8.3,1.5c-2.8-0.1-5.4-0.9-7.7-2.5c-0.3-0.2-0.6-0.3-0.9-0.1
		c-1.9,1-3.9,1.6-6,1.9c-2.5,0.3-5.1-0.3-7.3-1.6c-0.3-0.2-0.7-0.2-1,0c-2.6,1.4-5.6,2-8.6,1.8c-2.3-0.1-4.6-0.9-6.6-2.1
		c-0.2-0.2-0.6-0.2-0.8,0c-2.4,1.3-5.1,1.9-7.8,1.6c-1.5-0.1-3-0.5-4.4-1.3c-0.3-0.2-0.7-0.2-1,0c-2,1.1-4.3,1.7-6.7,1.7
		c-2.1,0-4.2-0.7-6-1.9c-0.3-0.3-0.7-0.3-1,0c-1.9,1.2-4,1.8-6.2,1.9c-2.5,0.2-5.1-0.6-7-2.3c-0.8-0.7-1.4-1.6-1.8-2.6l-2.1,2.6
		c-0.1,0.1-0.3,0.3-0.4,0.4c-2,2.1-4.4,3.8-7.1,5.1c-0.5,0.1-1,0.4-1.4,0.6c-0.6,0.1-1.2,0.2-1.7,0.5c-0.8,0.1-1.6,0.4-2.4,0.4
		l-1.6,0.2c-1.6,0-3.2,0-4.8-0.2c-1.1-0.2-2.1-0.5-3.2-0.9c-0.4-0.2-0.8-0.4-1.3-0.6c-2.3-1.1-4.2-2.7-5.8-4.6l0,0
		C3.1,49.1,2.9,48.8,2.7,48.5z M53.2,24.4c2.5-2.7,3.1-6.1,1.6-9.1c-0.3-0.5-0.3-0.8,0.2-1.2c0.7-0.7,1.4-1.4,2.1-2.1
		c1.4-1.5,1.8-3.7,0.8-5.5c-1-2.1-3.1-3.4-5.4-3.4c-2.5-0.1-5.1,0.5-7.2,1.8c-1.9,1.3-3.6,2.8-5.1,4.4c-0.2,0.2-0.5,0.4-0.8,0.3
		c-2.1,0-4.3,0.2-6.3,0.6c-3.3,0.6-6.5,1.9-9.3,3.7c-1.4,1.1-2.7,2.3-3.9,3.6c-1,0.9-1.7,2.1-2.3,3.3c-0.9,2-1,4.2-0.3,6.3
		c0.2,0.4,0,0.5-0.3,0.5c-2.3,0.3-4.4,1.2-6.3,2.4c-1,0.8-2,1.7-2.9,2.7c-1.2,1.1-2.2,2.3-2.9,3.8c-2.3,5.2-1.3,10.7,4,13.9
		c3.8,2.3,7.9,2.5,12.2,1.3c3.1-1,5.9-2.7,8.2-5.1c3-2.9,5.5-6.4,7.4-10.1c0.5-0.9,0.9-1.9,1.4-2.9c0,0.6-0.1,1.1-0.3,1.6
		c-0.7,2.4-0.9,5-0.8,7.5c0.2,2.3,1.8,4.1,4.1,4.6c2.5,0.5,5.1-0.2,7.1-1.7c0.7-0.6,1.4-1.2,2.1-1.8c1.2,2.3,3.6,3.7,6.2,3.6
		c2.4,0,4.7-0.9,6.6-2.5c0.4-0.3,0.6-0.3,0.9,0c1.6,1.5,3.8,2.2,6,2.1c2.3-0.2,4.5-1,6.3-2.4c0.4-0.3,0.6-0.2,1,0.1
		c1.8,1.7,4.1,2.7,6.6,2.8c3,0.2,6-0.7,8.4-2.4c0.3-0.2,0.6-0.6,0.9-0.6c0.3,0,0.4,0.5,0.7,0.8l0.2,0.2c1.7,1.6,4.2,2.3,6.5,1.8
		c2.3-0.4,4.4-1.3,6.1-2.8c0.3-0.3,0.5-0.3,0.8,0.1c1.8,2,4.3,3.3,7.1,3.4c2.5,0.2,4.9-0.3,7.2-1.2c1.1-0.5,2.2-1,3.3-1.6
		c-0.2,0.5-0.3,1-0.5,1.4s-0.1,0.6,0.4,0.6c2.7,0,5.4,0,8.1,0c1.4,0,1.4,0,1.9-1.3c0.1-0.4,0.3-0.6,0.7-0.5s0.6-0.1,0.8-0.5
		c1.1-2.8,2.1-5.6,3.2-8.4c0.2-0.5,0.3-0.6,0.8-0.3c2.7,1.6,6.2,1,8.1-1.5c0.3-0.4,0.7-0.7,1.1-1c0,0.1,0.1,0.1,0.1,0.2
		c0.5,0.8,0.2,1.9-0.6,2.4c0,0,0,0,0,0c-0.6,0.4-1,1-1.6,1.5c-1,0.9-1.5,2.3-1.4,3.6c0.2,1.6,1.1,3,2.4,3.9c2.6,2.3,6.1,3.4,9.6,2.9
		c2.7-0.3,5.2-1.5,7.2-3.5c0.4-0.4,0.8-0.8,1.2-1.2c1.6-1.3,2.6-3.2,2.8-5.3c0.1-1.6-0.4-3.2-1.5-4.4c-0.1-0.1-0.4-0.3-0.2-0.4
		c0.4-0.4,0.5-1,1-1.3c1.7-1,2.3-3.1,1.4-4.8c-0.5-1-1.2-1.9-2-2.6c-2.5-2.1-5.9-2.9-9.1-2.2l-0.9,0.2c0.8-0.8,1.5-1.6,2-2.6
		c0.9-1.5,1.2-3.2,0.8-4.8c-0.4-2.1-2.1-3.7-4.2-4c-2.1-0.4-4.2,0.4-5.4,2.1c-0.2,0.3-0.5,0.6-0.8,0.8c-1.3,0.9-2,2.4-2.1,3.9
		c0,1.5,0.5,2.9,1.6,3.9c0.3,0.3,0.3,0.4-0.1,0.6c-0.4,0.2-0.8,0.7-0.9,1.1c-0.1,0.4-0.3,0.3-0.5,0.3c-0.9-0.3-1.9-0.4-2.8-0.2
		c-1.3,0.2-2.5,0.7-3.6,1.4c-0.2,0.1-0.3,0.3-0.6,0c-1.7-1.8-3.9-2.1-6.3-1.8c-2.2,0.4-4.3,1.2-6.1,2.4c-0.2,0.1-0.3,0.3-0.1,0.5
		s0.1,0.3-0.1,0.5s-0.4,0.1-0.5-0.2c-1.4-2.5-3.7-3.4-6.3-3.6c-4.1-0.3-8.1,1.3-10.9,4.4c-0.2,0.3-0.5,0.6-0.8,0.8
		c0.3-1.3,0.7-2.5,1-3.7c0.1-0.4,0-0.4-0.3-0.4c-1,0-2.1,0-3.1,0c-0.4,0-0.5-0.2-0.4-0.5c0.2-0.8,0.4-1.6,0.5-2.4
		c0.4-1.1-0.1-2.3-1.2-2.9c-1.2-0.6-2.6-0.4-3.6,0.4c-1,0.8-2,1.6-3.1,2.4l-3.8,3.1c-0.1,0.1-0.3,0.3-0.3,0.1s-0.4-0.3-0.5-0.3
		c-1.5,0-2.9,0-4.4,0c-0.3,0-0.5,0-0.4-0.4c0.2-0.9,0.4-1.8,0.6-2.7c0.3-1.2-0.4-2.4-1.6-2.8c-1.2-0.4-2.5-0.1-3.5,0.8
		c-2.4,1.8-4.8,3.7-7.2,5.5c-0.1,0.1-0.3,0.2-0.3,0.3c-0.1,0.6-0.6,0.8-1,1.1s-0.8,0.5-1,1c0-0.1-0.1-0.2-0.1-0.2
		c0-1.9-1.5-3.6-3.4-3.9c-1.5-0.3-3.1-0.2-4.6,0.2c-1.4,0.4-2.8,1-4.1,1.9c-0.2,0.1-0.4,0.3-0.5-0.1c-1-2-2.8-2.6-4.9-2.5
		c-1.9,0.1-3.8,0.7-5.4,1.8C53.6,24.3,53.5,24.4,53.2,24.4L53.2,24.4z"/>
	<path class="st1" d="M50.1,59.7l0.8-2.9c0.2-0.7,0.4-1.4,0.6-2.1c0.1-0.4,0.3-0.5,0.7-0.5c0.1,0,0.2,0,0.2,0
		c0.6-0.1,0.8,0.2,0.9,0.7c0.4,1.4,0.8,2.9,1.2,4.3c0,0.1,0,0.3,0.2,0.4c0.4-1.6,0.8-3.2,1.1-4.8c0.1-0.5,0.3-0.6,0.7-0.6
		c1.1,0,1.1,0,0.8,1.1c-0.6,2.4-1.1,4.9-1.7,7.3c-0.1,0.4-0.2,0.5-0.7,0.5c-1.1,0-1.1,0-1.4-1.1c-0.4-1.3-0.7-2.6-1.1-3.9
		c0-0.2-0.1-0.4-0.3-0.6c-0.5,1.6-0.9,3.3-1.3,4.9c-0.1,0.5-0.3,0.7-0.9,0.6c-0.2,0-0.4,0-0.6,0c-0.3,0-0.4-0.1-0.4-0.3
		c-0.6-2.7-1.2-5.5-1.8-8.2c-0.1-0.3,0-0.4,0.3-0.4c1.3-0.1,1.3-0.1,1.6,1.2S49.7,58.3,50.1,59.7L50.1,59.7z"/>
	<path class="st1" d="M80.7,63.2l1.1-3c0.7-1.8,1.4-3.6,2.1-5.5c0.1-0.3,0.3-0.5,0.6-0.4c1.3,0,1.3,0,1.8,1.2l2.9,7.7h-1.6
		c-0.2,0-0.3,0-0.3-0.2c0-0.1-0.1-0.1-0.1-0.2c-0.2-0.5-0.3-1.1-0.6-1.4s-1-0.1-1.6-0.1H85c-1.3-0.2-2.2,0.1-2.4,1.6
		c0,0.3-0.2,0.4-0.5,0.4C81.7,63.2,81.2,63.2,80.7,63.2z M86.1,59.6L85,56.7l-1.1,2.9L86.1,59.6z"/>
	<path class="st1" d="M113.9,56.7l-1.9,5.2c-0.1,0.3-0.2,0.5-0.3,0.8c-0.1,0.5-0.4,0.6-0.8,0.6c-0.3,0-0.6-0.2-0.6-0.4
		c-0.4-1-0.8-2.1-1.2-3.2c-0.4,1.1-0.9,2.1-1.2,3.2c-0.1,0.4-0.4,0.5-0.8,0.5s-0.6-0.2-0.7-0.5c-0.6-1.8-1.3-3.6-2-5.5
		c-0.1-0.2-0.1-0.3-0.2-0.6c0.4,0,0.8,0,1.2,0s0.4,0.1,0.5,0.4c0.4,1,0.7,2.1,1.1,3.3c0.4-1.1,0.9-2.1,1.2-3.1
		c0.1-0.4,0.3-0.5,0.7-0.5s0.6,0.1,0.7,0.5c0.4,1,0.8,2,1.2,3.2c0.4-1,0.7-2,1-2.9c0.2-0.6,0.4-0.8,1-0.7
		C113.3,56.7,113.6,56.7,113.9,56.7z"/>
	<path class="st1" d="M148,54.3c0.7,0,1.3,0,2,0c0.3,0,0.4,0.1,0.4,0.4c0,1.3,0.1,1.3-1.2,1.3c-0.5,0-1,0-1.5,0
		c-0.3,0-0.4,0-0.4,0.4c0,1.2-0.1,1.2,1.1,1.2c0.5,0,1,0,1.5,0s0.5,0.1,0.5,0.5c0,1.1,0,1.1-1.1,1.1c-0.6,0-1.1,0-1.7,0
		c-0.3,0-0.4,0.1-0.4,0.4c0,0.5,0,1.1,0,1.6c0,0.3,0.1,0.4,0.4,0.4c0.8,0,1.5,0,2.3,0c0.3,0,0.4,0.1,0.4,0.4c0,1.2,0,1.2-1.2,1.2
		s-2.1,0-3.2,0c-0.3,0-0.5-0.1-0.5-0.4c0-2.7,0-5.3,0-8c0-0.4,0.1-0.5,0.5-0.5C146.8,54.3,147.4,54.3,148,54.3z"/>
	<path class="st1" d="M29.6,54.8c-0.2-0.7-0.2-0.7,0.8-0.7s0.9,0.1,0.9,1c0,0.7,0,1.4,0,2.1c0.3,0,0.4-0.2,0.6-0.3
		c1-0.7,2.4-0.5,3.2,0.5c0.3,0.4,0.5,0.9,0.4,1.5c0,1.3,0,2.6,0,3.9c0,0.4-0.1,0.4-0.4,0.4c-1.2,0-1.2,0-1.2-1.2c0-0.9,0-1.7,0-2.6
		s-0.4-1.3-1-1.4c-0.7-0.1-1.3,0.4-1.4,1.1c-0.1,0.9-0.2,1.9-0.1,2.8c0,1.2,0,1.1-1.2,1.2c-0.4,0-0.5-0.1-0.5-0.5c0-2.4,0-4.9,0-7.3
		C29.6,55.2,29.6,55,29.6,54.8z"/>
	<path class="st1" d="M116.5,57.3c0.6-0.5,1.3-0.8,2-0.8c1.1-0.1,2,0.8,2.1,1.9c0,0,0,0.1,0,0.1c0.1,1.4,0,2.9,0,4.3
		c0,0.3-0.1,0.3-0.3,0.3c-1.3,0.1-1.3,0.1-1.3-1.2c0-0.9,0-1.7,0-2.6s-0.4-1.3-1-1.3c-0.7-0.1-1.3,0.4-1.4,1.1c-0.1,1-0.2,2-0.1,3
		c0,1,0,1-1,1c-0.6,0-0.7-0.1-0.7-0.7c0-2.6,0-5.3,0-7.9c0-0.4,0.1-0.5,0.5-0.5c1.1,0,1.1,0,1.1,1.1
		C116.5,55.9,116.5,56.5,116.5,57.3z"/>
	<path class="st1" d="M126.1,60.4c-0.8,0-1.5,0-2.3,0c-0.4,0-0.4,0.1-0.3,0.4c0.6,1,1.8,1.3,2.8,0.8c0,0,0,0,0,0
		c0.2-0.1,0.4-0.4,0.6-0.3s0.8,0.3,1.1,0.5c0.1,0.1,0.1,0.1,0,0.2l-0.1,0.1c-1,1.1-2.5,1.4-3.9,0.9c-1.3-0.3-2.3-1.4-2.3-2.8
		c-0.2-1.3,0.4-2.6,1.5-3.3c1.1-0.7,2.6-0.8,3.7-0.1c1.1,0.6,1.7,1.8,1.7,3.1c0,0.3-0.1,0.4-0.4,0.4
		C127.6,60.4,126.9,60.4,126.1,60.4z M127.1,59.1c-0.2-0.7-0.9-1.1-1.6-1.2c-0.7-0.1-1.4,0.2-1.8,0.8c-0.2,0.3-0.1,0.3,0.2,0.3
		H127.1z"/>
	<path class="st1" d="M135.4,60.4c0.2,1,1.1,1.6,2.1,1.4c0.2,0,0.4-0.1,0.6-0.3c0.5-0.3,1.1-0.3,1.6,0c0.4,0.2,0.5,0.3,0.1,0.7
		c-1,1-2.6,1.3-3.9,0.8c-1.2-0.4-2.1-1.5-2.2-2.8c-0.2-1.3,0.4-2.6,1.5-3.3c1.1-0.7,2.6-0.8,3.7-0.1c1.1,0.6,1.8,1.8,1.7,3.1
		c0,0.4-0.1,0.4-0.4,0.4C138.6,60.4,137,60.4,135.4,60.4z M135.5,59.1h3.4c-0.2-0.7-0.9-1.2-1.6-1.1
		C136.5,57.9,135.8,58.4,135.5,59.1L135.5,59.1z"/>
	<path class="st1" d="M164.2,60.4c-0.8,0-1.5,0-2.3,0c-0.4,0-0.4,0.1-0.3,0.4c0.5,0.9,1.6,1.3,2.5,0.8c0,0,0.1,0,0.1-0.1
		c0.8-0.5,1.2,0,1.8,0.2c0.2,0.1,0.2,0.2,0,0.3s-0.2,0.2-0.2,0.3c-1,1-2.6,1.2-3.9,0.7c-1.3-0.4-2.1-1.5-2.2-2.8
		c-0.2-1.3,0.4-2.5,1.5-3.2c1.1-0.7,2.6-0.8,3.7-0.1c1.1,0.6,1.7,1.8,1.7,3.1c0,0.3-0.1,0.4-0.4,0.4C165.7,60.4,165,60.4,164.2,60.4
		z M161.7,59.1h3.4c-0.2-0.7-0.9-1.1-1.6-1.1C162.8,57.9,162,58.4,161.7,59.1L161.7,59.1z"/>
	<path class="st1" d="M72.3,59.3c0.7-0.8,1.4-1.5,2-2.2c0.3-0.4,0.7-0.5,1.1-0.5c0.4,0,0.8,0,1.4,0c-0.9,1-1.6,1.9-2.4,2.7
		c-0.3,0.3-0.3,0.5,0,0.8c0.9,0.9,1.8,1.9,2.8,3c-1.1-0.1-2.1,0.3-2.8-0.8c-0.6-0.8-1.3-1.5-2-2.2c0,0.9,0,1.6,0,2.4
		c0,0.5-0.2,0.6-0.6,0.6c-1.1,0-1.1,0-1.1-1.1c0-2.5,0-5,0-7.5c0-0.4,0.1-0.6,0.6-0.6c1.1,0,1.1,0,1.1,1.1
		C72.3,56.5,72.3,57.8,72.3,59.3z"/>
	<path class="st1" d="M65.3,59.9c0,1.9-1.5,3.4-3.4,3.4c-1.9,0-3.4-1.5-3.4-3.4c0-1.9,1.5-3.4,3.4-3.4C63.8,56.5,65.3,58,65.3,59.9z
		 M61.9,58.1c-1,0-1.8,0.8-1.8,1.8c0,1,0.8,1.8,1.8,1.8c1,0,1.8-0.7,1.8-1.7c0,0,0-0.1,0-0.1c0.1-0.9-0.7-1.8-1.6-1.8
		C62,58.1,61.9,58.1,61.9,58.1z"/>
	<path class="st1" d="M92,57.3c0.7-0.7,1.7-1,2.7-0.7c0.9,0.2,1.5,1,1.5,1.8c0.1,1.5,0,2.9,0,4.4c0,0.3-0.1,0.3-0.4,0.3
		c-0.3,0-0.6,0-0.9,0c-0.3,0-0.4-0.1-0.4-0.4c0-1,0-1.9,0-2.9c0-0.2,0-0.4,0-0.6c-0.1-0.7-0.4-1.1-0.9-1.2c-0.6-0.1-1.2,0.3-1.4,0.8
		c-0.2,0.4-0.2,0.8-0.2,1.2c0,0.9,0,1.8,0,2.7c0,0.3-0.1,0.4-0.4,0.4c-1.3,0.1-1.3,0.1-1.3-1.3c0-1.5,0-3.1,0-4.6
		c0-0.6,0.2-0.7,0.7-0.6c0.1,0,0.3,0,0.4,0C91.9,56.6,92.2,56.7,92,57.3z"/>
	<path class="st1" d="M97.1,56.7c1.6-0.1,1.6-0.1,2.2,1.4c0.4,0.8,0.7,1.7,1.1,2.6l1.3-2.8c0.6-1.4,0.6-1.4,2.3-1.2l-0.8,1.8
		c-1,2.1-2,4.2-2.9,6.4c-0.1,0.5-0.6,0.8-1.1,0.7c-1-0.1-1-0.1-0.5-0.9c0.9-1.2,0.9-2.8,0.1-4.1c-0.6-1.2-1.1-2.5-1.6-3.8
		C97.1,56.8,97.1,56.7,97.1,56.7z"/>
	<path class="st1" d="M37.5,65.5c0.4-0.9,0.8-1.7,1.2-2.5c0.1-0.3,0.1-0.6,0-0.8c-0.8-1.8-1.5-3.7-2.3-5.6c0.5,0,1,0,1.5,0
		c0.3,0,0.3,0.2,0.4,0.4c0.4,1,0.8,2,1.3,3c0,0.2,0.1,0.4,0.3,0.5c0.5-1.1,1.1-2.3,1.6-3.4c0.1-0.4,0.5-0.6,0.9-0.6
		c0.4,0,0.7,0,1.1,0l-0.8,1.9c-1,2.1-2,4.3-3,6.5c-0.1,0.4-0.5,0.7-0.9,0.6C38.2,65.5,37.8,65.5,37.5,65.5z"/>
	<path class="st1" d="M156.6,63.3c-0.7,0-1.5-0.2-2-0.8c-0.3-0.2-0.4-0.4,0-0.7c0.1-0.1,0.1-0.1,0.2-0.2c0.3-0.5,0.6-0.7,1.2-0.2
		c0.3,0.2,0.6,0.3,0.9,0.3c0.2,0,0.4-0.2,0.5-0.4c0.1-0.2-0.1-0.5-0.3-0.6c-0.3-0.2-0.5-0.3-0.8-0.5c-0.4-0.2-0.7-0.4-1.1-0.6
		c-0.8-0.6-0.9-1.7-0.3-2.4c0.2-0.3,0.5-0.5,0.8-0.6c1-0.4,2.2-0.1,2.9,0.6c0.2,0.2,0.3,0.4,0,0.6c-0.1,0.1-0.2,0.2-0.3,0.3
		c-0.3,0.4-0.6,0.6-1,0.1c-0.1-0.1-0.3-0.2-0.4-0.2c-0.3-0.1-0.6-0.1-0.7,0.2s0.1,0.4,0.4,0.6c0.4,0.2,0.9,0.4,1.3,0.6
		c0.9,0.4,1.3,1.4,1.1,2.3c-0.3,0.9-1.1,1.5-2.1,1.5L156.6,63.3z"/>
	<path class="st1" d="M170.8,60.5c-1,0-1-0.1-0.9-1c0.1-0.7,0.5-1.3,1-1.8c0.3-0.2,0.5-0.5,0.8-0.7c0.4-0.3,0.4-0.8,0.1-1.2
		c-0.1-0.2-0.3-0.3-0.5-0.3c-0.6-0.2-1.3,0.1-1.6,0.7c0,0,0,0,0,0.1c-0.1,0.3-0.2,0.3-0.4,0.3s-0.3,0-0.4,0c-0.9,0-1-0.1-0.7-0.9
		c0.5-1.4,2-2.1,3.4-1.8c1.3,0.2,2.2,1.3,2.1,2.6c0,0.6-0.3,1.1-0.7,1.5c-0.7,0.7-1.4,1.2-1.4,2.3C171.5,60.8,171,60.5,170.8,60.5z"
		/>
	<path class="st1" d="M151.7,58.5c0-1.3,0-2.7,0-4c0-0.4,0.1-0.5,0.5-0.5c1.1,0,1.1,0,1.1,1.1c0,2.5,0,4.9,0,7.4
		c0,0.5-0.1,0.7-0.6,0.6c-1,0-1,0-1-1.1S151.7,59.8,151.7,58.5L151.7,58.5z"/>
	<path class="st1" d="M131.2,57.2c0.4-0.5,1-0.7,1.6-0.7c0.3,0,0.5,0.2,0.3,0.5c-0.1,0.2-0.1,0.4-0.2,0.6c-0.1,0.3-0.1,0.5-0.6,0.4
		s-0.7,0.3-0.8,0.7c-0.1,0.6-0.2,1.2-0.2,1.8c0,0.8,0,1.6,0,2.4c0,0.3-0.1,0.4-0.4,0.4c-1.3,0.1-1.3,0.1-1.3-1.3c0-1.6,0-3.2,0-4.7
		c0-0.4,0.1-0.6,0.6-0.5c0.1,0,0.2,0,0.4,0C131,56.6,131.3,56.7,131.2,57.2z"/>
	<path class="st1" d="M67.8,57.3c0.4-0.5,1-0.8,1.7-0.7c0.3,0,0.5,0.1,0.3,0.5c-0.1,0.2-0.2,0.4-0.3,0.7C69.4,58,69.3,58.1,69,58
		c-0.5-0.1-0.7,0.3-0.8,0.6c-0.2,0.6-0.2,1.2-0.2,1.8c0,0.8,0,1.6,0,2.4c0,0.1,0,0.1,0,0.2c-0.4,0.5-0.9,0.1-1.3,0.2
		c-0.2,0-0.4,0-0.4-0.3c0-2,0-3.9,0-5.9c0-0.3,0.1-0.4,0.3-0.3c0.2,0,0.4,0,0.5,0C67.5,56.6,67.9,56.6,67.8,57.3z"/>
	<path class="st1" d="M20.9,59.8l-0.5-2.1l0,0v-0.5l-0.5-1.9l-1.6,0.2l0.4,2.1V58c0.1,0.2,0.2,0.4,0.2,0.7c0.3,1.1,0.5,2.3,0.8,3.4
		s0.3,1.2,1.5,1.1c0.3,0,0.4-0.1,0.5-0.4c0.5-1.7,0.9-3.4,1.4-5.1h-1.5L20.9,59.8z"/>
	<path class="st1" d="M27.6,54.3c-0.2,0-0.3,0-0.5,0c-0.3,0-0.4,0.1-0.5,0.4c-0.2,0.7-0.3,1.4-0.5,2.1l0,0l-0.7,3.1
		c-0.3-0.9-0.6-1.7-0.8-2.6l0,0l-0.8-2.7c-0.6,0.1-1.2,0.2-1.7,0.5l-0.6,2.3l-0.1,0.5H23c0.2-0.1,0.1,0.1,0.2,0.1
		c0.4,1.4,0.8,2.8,1.1,4.1s0.3,1.2,1.6,1.2c0.3,0,0.4-0.1,0.5-0.3c0.5-2.2,1-4.4,1.4-6.6c0.1-0.1,0.1-0.2,0.1-0.3
		c0,0-0.1-0.1-0.1-0.1s0.1-0.1,0.2-0.1l0.3-0.8C28.4,54.3,28.4,54.3,27.6,54.3z"/>
	<path class="st1" d="M170.8,63.3c-0.6,0-1-0.4-1.1-0.9c0,0,0,0,0,0c0.1-0.6,0.6-1,1.2-1c0.5,0,0.9,0.4,1,1
		C171.8,62.9,171.3,63.3,170.8,63.3z"/>
	<path class="st1" d="M28,56c0,0-0.1-0.1-0.1-0.1s0.1-0.1,0.2-0.1L28,56z"/>
	<path class="st2" d="M53.2,24.3c0.3,0.1,0.4-0.1,0.6-0.2c1.6-1.1,3.5-1.7,5.4-1.8c2.1,0,3.9,0.5,4.9,2.5c0.2,0.4,0.3,0.2,0.5,0.1
		c1.3-0.8,2.6-1.4,4.1-1.9c1.5-0.4,3-0.5,4.6-0.2c1.9,0.3,3.3,1.9,3.4,3.9c0,0.1,0,0.2,0.1,0.2c0.2-0.5,0.6-0.7,1-1s0.9-0.5,1-1.1
		c0-0.1,0.2-0.2,0.3-0.3c2.4-1.8,4.8-3.7,7.2-5.5c1-0.8,2.3-1.1,3.5-0.8c1.2,0.4,1.9,1.6,1.6,2.8c-0.2,0.9-0.4,1.8-0.6,2.7
		c-0.1,0.4,0,0.4,0.4,0.4c1.5,0,2.9,0,4.4,0c0.2,0,0.5-0.2,0.5,0.3s0.2,0,0.3-0.1l3.8-3.1c1-0.8,2-1.7,3.1-2.4
		c1-0.9,2.4-1.1,3.6-0.4c1,0.6,1.5,1.8,1.2,2.9c-0.2,0.8-0.3,1.6-0.5,2.4c-0.1,0.4-0.1,0.5,0.4,0.5c1,0,2.1,0,3.1,0
		c0.4,0,0.4,0.1,0.3,0.4c-0.4,1.2-0.7,2.4-1,3.7c0.3-0.2,0.6-0.5,0.8-0.8c2.7-3.1,6.8-4.7,10.9-4.4c2.6,0.2,5,1.2,6.3,3.6
		c0.1,0.2,0.2,0.3,0.5,0.2s0.3-0.2,0.1-0.5s-0.1-0.3,0.1-0.5c1.8-1.2,3.9-2.1,6.1-2.4c2.4-0.3,4.5-0.1,6.3,1.8
		c0.2,0.3,0.4,0.1,0.6,0c1.1-0.7,2.3-1.2,3.6-1.4c0.9-0.1,1.9-0.1,2.8,0.2c0.3,0.1,0.4,0.1,0.5-0.3c0.1-0.5,0.4-0.9,0.9-1.1
		c0.4-0.2,0.4-0.3,0.1-0.6c-1.1-1-1.7-2.5-1.6-3.9c0.1-1.6,0.8-3,2.1-3.9c0.3-0.2,0.6-0.5,0.8-0.8c1.2-1.7,3.4-2.5,5.4-2.1
		c2.1,0.3,3.8,1.9,4.2,4c0.3,1.7,0,3.4-0.8,4.8c-0.5,1-1.2,1.8-2,2.6l0.9-0.2c3.2-0.7,6.6,0.1,9.1,2.2c0.8,0.7,1.5,1.6,2,2.6
		c0.9,1.7,0.3,3.8-1.4,4.8c-0.5,0.3-0.7,0.9-1,1.3c-0.1,0.2,0.1,0.3,0.2,0.4c1.1,1.2,1.6,2.8,1.5,4.4c-0.2,2-1.2,3.9-2.8,5.3
		c-0.4,0.4-0.8,0.8-1.2,1.2c-1.9,1.9-4.4,3.2-7.2,3.5c-3.5,0.5-7-0.5-9.6-2.9c-1.3-0.9-2.1-2.4-2.4-3.9c-0.2-1.4,0.3-2.7,1.4-3.6
		c0.6-0.5,1-1.1,1.6-1.6c0.8-0.5,1.1-1.5,0.6-2.4c0,0,0,0,0,0c0-0.1,0-0.1-0.1-0.2c-0.4,0.3-0.8,0.6-1.1,1c-1.9,2.5-5.4,3.2-8.1,1.5
		c-0.5-0.3-0.6-0.2-0.8,0.3c-1.1,2.8-2.1,5.6-3.2,8.4c-0.2,0.4-0.4,0.6-0.8,0.5s-0.6,0.1-0.7,0.5c-0.5,1.3-0.5,1.3-1.9,1.3
		c-2.7,0-5.4,0-8.1,0c-0.5,0-0.6-0.1-0.4-0.6s0.3-0.9,0.5-1.4c-1.1,0.6-2.1,1.1-3.3,1.6c-2.3,1-4.7,1.4-7.2,1.2
		c-2.7-0.2-5.3-1.4-7.1-3.4c-0.3-0.4-0.5-0.3-0.8-0.1c-1.8,1.4-3.9,2.4-6.1,2.8c-2.3,0.5-4.8-0.2-6.5-1.8l-0.2-0.2
		c-0.3-0.3-0.4-0.8-0.7-0.8s-0.6,0.4-0.9,0.6c-2.5,1.7-5.4,2.6-8.4,2.4c-2.4-0.1-4.8-1.1-6.6-2.8c-0.3-0.3-0.5-0.4-1-0.1
		c-1.8,1.4-4,2.3-6.3,2.4c-2.2,0.1-4.4-0.6-6-2.1c-0.4-0.3-0.5-0.4-0.9,0c-1.8,1.6-4.1,2.5-6.5,2.5c-2.6,0.1-5-1.3-6.2-3.6
		c-0.6,0.6-1.3,1.2-2.1,1.8c-2,1.6-4.6,2.2-7.1,1.7c-2.2-0.4-3.9-2.3-4.1-4.6c-0.2-2.5,0.1-5.1,0.8-7.5c0.1-0.5,0.2-1.1,0.3-1.6
		c-0.5,1-0.9,1.9-1.4,2.9c-1.9,3.8-4.4,7.2-7.4,10.1c-2.3,2.4-5.1,4.1-8.2,5.1c-4.2,1.2-8.3,1-12.2-1.3c-5.3-3.2-6.3-8.7-4-13.9
		c0.7-1.5,1.7-2.7,2.9-3.8c0.9-1,1.9-1.9,2.9-2.7c1.9-1.3,4-2.1,6.3-2.4c0.4-0.1,0.5-0.1,0.3-0.5c-0.8-2-0.7-4.3,0.3-6.3
		c0.5-1.3,1.3-2.4,2.3-3.3c1.2-1.3,2.5-2.5,3.9-3.6c2.8-1.9,6-3.1,9.3-3.7c2.1-0.4,4.2-0.6,6.3-0.6c0.3,0,0.6-0.1,0.8-0.3
		c1.5-1.7,3.2-3.2,5.1-4.4c2.2-1.3,4.7-2,7.2-1.8c2.3,0,4.4,1.4,5.4,3.4c0.9,1.8,0.6,4-0.8,5.5c-0.7,0.7-1.4,1.4-2.1,2.1
		c-0.5,0.4-0.5,0.7-0.2,1.2C56.3,18.3,55.7,21.6,53.2,24.3z M95.9,39.9L95.9,39.9c0,2.1,1.6,4,3.7,4.1c1.5,0.2,3.1,0.1,4.5-0.5
		c1.7-0.7,3.3-1.7,4.7-3c0.4-0.3,0.5-0.3,0.7,0.1c0.6,1,1.3,1.8,2.2,2.4c2.4,1.7,5.4,2.3,8.3,1.5c3.1-0.7,6-2.2,8.5-4.2
		c0.4-0.3,0.8-0.7,1.4-1.1c-0.5,1.5-0.9,2.8-1.4,4.1c-0.1,0.4-0.1,0.5,0.4,0.5c1.9,0,3.8,0,5.8,0c0.4,0.1,0.7-0.2,0.8-0.5
		c1.2-3.2,2.4-6.4,3.7-9.6c0.3-0.8,0.9-1.5,1.6-1.8c0.5-0.3,1.1-0.2,1.5,0.3c0.3,0.3,0.6,0.6,1,0.8c2.2,1.3,4.9,0.6,6.2-1.6
		c0.5-0.8,0.7-1.6,0.6-2.5c0.2-1.8-1.2-3.4-3-3.6c-0.1,0-0.3,0-0.4,0c-1.4,0-2.8,0.5-4,1.3c-0.6,0.4-1.2,0.9-1.7,1.4
		c0-0.8-0.3-1.5-0.9-2c-0.7-0.7-1.7-1.1-2.8-1.2c-2.1-0.1-4.2,0.4-6,1.5c-0.4,0.2-0.3,0.4-0.1,0.7c0.6,0.8,0.9,1.8,0.9,2.8
		c-0.1,2-0.4,3.9-1.1,5.7c-0.1,0.2-0.2,0.3-0.4,0.4c-2.3,1.6-5,2.6-7.7,3.1c-1.1,0.2-2.3,0.2-3.4,0c-1-0.2-1.8-1-2-2
		c-0.1-0.3,0-0.5,0.4-0.5c0.7-0.1,1.3-0.2,2-0.4c2-0.3,3.9-1.2,5.5-2.5c1.5-1.3,2.3-3.3,1.9-5.2c-0.4-2.2-2-3.3-4.1-3.7
		c-4.2-0.9-7.7,0.4-10.7,3.4c-2.1,2.2-3.3,5-3.5,8c0,0.2,0,0.4-0.3,0.6c-0.9,0.6-1.9,1-3,1.2c-1,0.2-2-0.4-2.2-1.5
		c0-0.1,0-0.1,0-0.2c-0.1-0.5-0.1-1.1,0-1.7c0.3-1.7,0.7-3.3,1.1-5c0.1-0.3,0.2-0.4,0.5-0.4c0.9,0,1.9,0,2.9,0
		c0.2,0,0.4-0.1,0.5-0.3c0,0,0,0,0,0c0.3-1,0.5-2,0.8-3c0.1-0.3,0-0.4-0.3-0.4c-1,0-2.1,0-3.1,0c-0.4,0-0.4-0.1-0.3-0.4
		c0.3-1.4,0.6-2.9,0.9-4.3c0.2-0.9-0.3-1.4-1.3-1.3c-0.5,0.1-0.9,0.3-1.2,0.6l-6.5,5.3c-0.1,0.1-0.3,0.2-0.3,0.4
		c-0.3,1.1-0.6,2.3-0.9,3.5c0.7,0,1.3,0,1.9,0c0.4,0,0.5,0,0.4,0.5c-0.5,1.9-1,3.9-1.5,5.8c0,0.2-0.1,0.3-0.3,0.4
		c-1.9,1.3-4.1,2.2-6.4,2.5c-2.6,0.3-3.8-0.9-3.5-3.6c0.2-1.7,0.7-3.3,1-4.9c0.1-0.5,0.3-0.7,0.8-0.7c1.4,0,2.8,0,4.2,0
		c0.4,0,0.5-0.1,0.6-0.5c0.1-0.9,0.3-1.8,0.6-2.7c0.1-0.5,0-0.6-0.5-0.6c-1.6,0-3.2,0-4.8,0c0.4-1.7,0.7-3.3,1.1-4.9
		c0.2-0.8-0.2-1.2-1-1.2c-0.6,0-1.2,0.3-1.6,0.7l-6.7,5.3c-0.2,0.1-0.3,0.3-0.4,0.6c-0.3,1-0.6,2-0.9,3c-0.1,0.3,0,0.4,0.3,0.4
		c0.5,0,1,0,1.5,0c0.4,0,0.5,0,0.4,0.4c-0.5,2-1,4-1.5,6c0,0.2-0.1,0.3-0.2,0.5c-1.4,1.1-3.2,1.8-5,1.9c-1.4,0-2-0.7-1.9-2.1
		c0.2-1.3,0.6-2.6,1.2-3.8c0.8-1.6,1.2-3.4,1.3-5.2c0.1-1.4-1-2.7-2.4-2.8c0,0-0.1,0-0.1,0c-2-0.2-4,0.2-5.7,1.2
		c-0.2,0.1-0.3,0.2-0.2,0.5c1.2,3.1,1,6.5-0.6,9.4c-0.4,0.8-1,1.3-1.8,1.6c-1.8,0.7-3.2-0.3-3-2.3c0.1-0.9,0.3-1.7,0.7-2.5
		c0.6-1.7,1-3.5,1-5.3c0.1-1.6-1.2-2.9-2.8-3c-2.1-0.2-4.2,0.4-5.9,1.6c-0.2,0.2-0.3,0.3-0.2,0.6c1.2,2.6,1,5.6-0.4,8.1
		c-0.6,1.1-1.9,1.6-3.1,1.2c-0.5-0.2-0.9-0.6-1-1.1c-0.1-0.4-0.1-0.9-0.1-1.3c0.2-1.2,0.2-2.4,0.1-3.6c-0.2-1.4-0.9-2.7-2.1-3.5
		c0.8-0.2,1.5-0.5,2.2-0.9c0.7-0.3,1.3-0.8,1.9-1.3c3.7-3.1,3.3-8.1-0.9-10.5c-1.4-0.8-3-1.4-4.6-1.6c-0.5-0.1-0.5-0.3-0.3-0.6
		c0.1-0.1,0.1-0.2,0.2-0.3c1-1.4,2.7-2.2,4.4-2c0.4,0,0.7,0,0.6,0.6c0,0.2,0,0.5,0.1,0.7c0.3,0.9,1,1.7,2,1.8c1,0.3,2.1-0.1,2.8-1
		c1.2-1.5,1-3.8-0.6-5c-0.2-0.2-0.5-0.3-0.7-0.4c-1.7-0.8-3.6-1-5.4-0.4c-3.3,0.9-6.1,3-7.9,5.9c-0.2,0.3-0.5,0.5-0.8,0.4
		c-2-0.1-4,0-6,0.3c-3.3,0.4-6.5,1.5-9.3,3.3c-2.3,1.3-4.1,3.4-4.9,6c-0.9,3.4,0.4,5.7,3.8,6.5c2,0.4,4.1,0.5,6.1,0.2
		c1.1-0.2,2.3-0.4,3.4-0.7c-0.4,0.6-0.7,1.1-1,1.6c-1.3,2.2-3,4.1-5,5.8c-0.9,0.8-2.1,1.3-3.3,1.4c-1.3,0.1-2.6-0.6-3.3-1.7
		c-0.6-1.2-0.4-2.6,0.5-3.5c0.3-0.3,0.5-0.6,0.8-0.8c-0.1-0.1-0.2-0.1-0.3-0.1c-4.2-0.9-8.6,0.2-11.8,3.1c-2.7,2.3-3.9,6-3.1,9.4
		c0.6,3,2.6,4.9,5.3,6.1c4.4,2,8.8,1.4,13-0.8c3-1.8,5.6-4.3,7.3-7.3c2.1-3.4,3.9-6.9,5.2-10.7c0.1-0.3,0.4-0.6,0.7-0.5
		c0,0,0,0,0.1,0c1.9,0.2,2.8,1.4,2.5,3.4c-0.1,0.8-0.3,1.6-0.5,2.4c-0.5,2-0.8,4.1-0.7,6.2c0,1.8,1.4,3.4,3.2,3.6c1,0.1,2,0,3-0.3
		c1.8-0.7,3.4-1.8,4.7-3.3c0.6-0.6,1.1-1.3,1.7-1.9c0,0.1,0.1,0.1,0.1,0.1s0,0.3,0,0.5c0,1.9,1.2,3.7,3,4.4c1.9,0.7,4,0.6,5.8-0.4
		c1.5-0.6,2.8-1.6,3.9-2.7l0.4,0.5c1.8,2.4,4.9,3.4,7.7,2.4c1.9-0.6,3.7-1.7,5.2-3.2l0.1,0.1l0.2,0.3c1.2,1.6,3,2.8,4.9,3.3
		c2.8,0.7,5.8,0.2,8.3-1.4C93.6,41.8,94.8,40.9,95.9,39.9L95.9,39.9z M160.9,24c-2.1,0-4.1,0.8-5.7,2.2c-2.5,2.1-2.9,5.9-0.8,8.5
		c0.1,0.1,0.1,0.1,0.2,0.2c0.7,0.8,1.5,1.4,2.4,1.9c1,0.6,2,1.2,3,1.9c0.4,0.3,0.8,0.6,0.6,1.2c-0.2,0.5-0.6,0.8-1.1,0.8
		c-1.6,0.4-3.3-0.5-4-2c-0.2-0.4-0.4-0.8-0.7-1.1c-0.9-0.9-2.2-1.3-3.4-0.9c-1.2,0.4-2,1.6-1.8,2.9c0.1,1,0.6,1.8,1.3,2.4
		c2.9,2.9,7.2,3.8,11.1,2.4c2.1-0.6,3.8-2,4.9-3.8c1.2-1.8,1-4.2-0.5-5.7c-0.7-0.8-1.6-1.6-2.5-2.1c-1-0.6-2-1.2-3-1.8
		c-0.4-0.2-0.8-0.5-1.1-0.8c-0.4-0.3-0.4-0.9-0.1-1.3c0.1-0.1,0.3-0.2,0.4-0.3c0.2-0.1,0.5-0.1,0.8-0.2c1.3-0.1,2.6,0.4,3.5,1.4
		c0.3,0.3,0.6,0.6,0.9,0.9c0.8,0.7,1.9,0.7,2.7,0.1c0.8-0.6,1.1-1.8,0.5-2.7c-0.3-0.6-0.6-1.1-1.1-1.6
		C165.7,24.8,163.4,23.9,160.9,24L160.9,24z M154.6,20.4c-0.5,0.7-1.2,1.3-1.9,1.8c-0.3,0.2-0.5,0.4-0.4,0.8
		c0.1,0.3,0.4,0.6,0.8,0.6c0.4,0.1,0.9,0,1.3-0.2c2.5-1,4.4-3.1,5-5.8c0.6-2-0.6-4-2.6-4.6c-0.5-0.1-1-0.2-1.4-0.1
		c-1.5,0.1-2.7,1-3.3,2.4c-0.5,1.2-0.3,2.7,0.6,3.7C153.1,19.6,153.8,20.1,154.6,20.4L154.6,20.4z M91.8,32.9L91.8,32.9
		c-0.8,0-1.7,0-2.5,0c-0.3,0-0.4,0.1-0.5,0.4c-0.2,0.8-0.3,1.6-0.4,2.4c0,1.1,0.2,1.5,1.3,1.5c1.2-0.1,2.4-0.4,3.5-0.9
		c0.5-0.1,0.9-0.6,1-1.1c0.1-0.6,0.3-1.3,0.5-1.9c0.1-0.3,0-0.4-0.3-0.4C93.5,32.9,92.7,32.9,91.8,32.9z M28.5,30.9
		c-1.2,0.2-2.3,0.2-3.5,0.1c-0.7-0.1-1.3,0.1-1.8,0.6c-0.6,0.3-0.8,1-0.5,1.6c0.1,0.3,0.4,0.5,0.7,0.6c0.6,0.3,1.3,0.3,2,0
		C26.6,33.2,27.7,32.2,28.5,30.9L28.5,30.9z M74.6,36.8c0.7-0.1,1.3-0.2,1.9-0.5c0.2-0.1,0.3-0.2,0.3-0.3c0.2-0.9,0.4-1.8,0.7-2.7
		c0.1-0.3,0-0.3-0.2-0.3h-1.6c-0.1,0-0.3,0-0.3,0.1c-0.5,1-0.8,2.1-1,3.2C74.3,36.7,74.4,36.8,74.6,36.8L74.6,36.8z M124.2,37.4
		c1.2-0.3,2.4-0.8,3.5-1.4c0.2-0.1,0.3-0.2,0.4-0.3c0.4-1.3,0.6-2.6,0.6-3.9C128,34.3,125.7,35.5,124.2,37.4L124.2,37.4z M107,33
		c-1.4-0.1-1.4-0.1-1.7,1.2c0,0.1-0.1,0.2-0.1,0.3c-0.1,0.6-0.2,1.2-0.1,1.9c0,0.2,0.2,0.3,0.4,0.3c0.2,0,0.4,0,0.4-0.3
		C106.1,35.2,106.5,34.1,107,33L107,33z M64,31.4c-0.2,0.7-0.4,1.3-0.6,2c-0.2,0.6-0.4,1.2-0.4,1.8c0,0.2-0.2,0.5,0.2,0.6
		s0.3-0.3,0.4-0.4C63.9,34,64.1,32.7,64,31.4L64,31.4z M51.2,34c0.5-1.4,0.6-3,0.2-4.4c0-0.1-0.1-0.3-0.2-0.2S51,29.6,51,29.7
		c0.2,1.2,0.1,2.3-0.1,3.5C51,33.5,50.9,33.7,51.2,34L51.2,34z M50.7,26.6l0.1,0.2c0.4-0.3,0.8-0.6,1.1-0.8c0.2-0.1,0.2-0.2,0.1-0.4
		s-0.2,0.1-0.3,0.1C51.5,26,51.1,26.3,50.7,26.6L50.7,26.6z M151.6,27.6c0.2-0.2,0.4-0.4,0.6-0.7C151.3,27,151.3,27,151.6,27.6
		L151.6,27.6z"/>
	<path class="st0" d="M26.1,56.8l-0.7,3.1c-0.3-0.9-0.6-1.7-0.8-2.6c0.1,0,0.3,0.1,0.4-0.1C25.3,56.6,25.8,56.8,26.1,56.8z"/>
	<path class="st0" d="M86.2,59.6h-2.2l1.1-2.9L86.2,59.6z"/>
	<path class="st0" d="M127.1,59.1H124c-0.3,0-0.4,0-0.2-0.3c0.4-0.6,1.1-0.9,1.8-0.8C126.3,58,126.9,58.5,127.1,59.1z"/>
	<path class="st0" d="M135.5,59.1c0.3-0.8,1-1.2,1.8-1.1c0.7,0,1.4,0.5,1.6,1.1H135.5z"/>
	<path class="st0" d="M161.7,59.1c0.3-0.8,1-1.2,1.8-1.1c0.7,0,1.4,0.5,1.6,1.1H161.7z"/>
	<path class="st0" d="M61.9,58.1c0.9,0,1.7,0.7,1.8,1.7c0,0,0,0.1,0,0.1c0,1-0.8,1.8-1.8,1.8c-1,0-1.8-0.8-1.8-1.8c0,0,0,0,0,0
		C60.1,58.9,60.8,58.1,61.9,58.1C61.8,58.1,61.9,58.1,61.9,58.1z"/>
	<path class="st0" d="M20.3,57.2h1.3l-0.1,0.5l-0.6,2.1l-0.5-2.1L20.3,57.2z"/>
	<path class="st3" d="M96,39.9c-1.1,1-2.4,1.9-3.7,2.7c-2.5,1.6-5.5,2.1-8.3,1.4c-2-0.5-3.7-1.7-4.9-3.3l-0.2-0.3l-0.1-0.1
		c-1.4,1.4-3.2,2.5-5.2,3.2c-2.8,0.9-5.9-0.1-7.7-2.4l-0.4-0.5c-1,1.2-2.2,2.1-3.6,2.8c-1.8,1-3.9,1.1-5.8,0.4c-1.8-0.7-3-2.4-3-4.4
		c0-0.2,0-0.3,0-0.5s0,0-0.1-0.1c-0.6,0.6-1.1,1.3-1.7,1.9c-1.2,1.5-2.8,2.6-4.7,3.3c-1,0.3-2,0.4-3,0.3c-1.8-0.2-3.2-1.7-3.2-3.6
		c-0.1-2.1,0.1-4.2,0.6-6.2c0.2-0.8,0.4-1.6,0.5-2.4c0.3-2-0.6-3.1-2.5-3.4c-0.3-0.1-0.7,0.1-0.8,0.4c0,0,0,0,0,0.1
		c-1.4,3.7-3.1,7.3-5.2,10.7c-1.8,3-4.3,5.6-7.3,7.3c-4.2,2.2-8.6,2.8-13,0.8c-2.7-1.2-4.7-3.1-5.3-6.1c-0.8-3.5,0.4-7.1,3.1-9.4
		c3.2-2.9,7.6-4,11.8-3.1c0.1,0,0.2,0,0.3,0.1c-0.3,0.3-0.6,0.6-0.8,0.8c-0.9,1-1.1,2.4-0.5,3.5c0.7,1.2,1.9,1.8,3.3,1.7
		c1.2-0.1,2.3-0.6,3.3-1.4c2-1.6,3.7-3.6,5-5.8c0.3-0.5,0.6-1,1-1.6c-1.1,0.3-2.2,0.5-3.4,0.7c-2,0.3-4.1,0.3-6.1-0.2
		c-3.4-0.8-4.7-3.1-3.8-6.5c0.8-2.6,2.5-4.7,4.9-6c2.9-1.7,6-2.8,9.3-3.3c2-0.3,4-0.4,6-0.3c0.3,0,0.7-0.1,0.8-0.4
		c1.8-2.9,4.6-5,7.9-5.9c1.8-0.6,3.7-0.5,5.4,0.4c1.8,0.9,2.4,3.1,1.5,4.8c-0.1,0.2-0.2,0.4-0.4,0.6c-0.7,0.9-1.8,1.3-2.8,1
		c-1-0.2-1.7-0.9-2-1.8c-0.1-0.2-0.1-0.5-0.1-0.7c0.1-0.5-0.2-0.6-0.6-0.6c-1.7-0.2-3.4,0.6-4.4,2c-0.1,0.1-0.1,0.2-0.2,0.3
		c-0.2,0.3-0.3,0.5,0.3,0.6c1.6,0.3,3.1,0.8,4.5,1.6c4.2,2.4,4.6,7.4,0.9,10.5c-0.6,0.5-1.2,0.9-1.9,1.3c-0.7,0.3-1.5,0.6-2.2,0.9
		c1.2,0.8,2,2.1,2.1,3.5c0.1,1.2,0.1,2.4-0.1,3.6c-0.1,0.5,0,0.9,0.1,1.3c0.1,0.5,0.5,0.9,1,1.1c1.2,0.4,2.6-0.1,3.3-1.2
		c1.4-2.5,1.6-5.5,0.4-8.1c-0.1-0.3-0.1-0.4,0.2-0.6c1.7-1.2,3.8-1.8,5.9-1.6c1.6,0.1,2.8,1.4,2.8,3c0,1.8-0.4,3.6-1,5.3
		c-0.3,0.8-0.5,1.7-0.7,2.5c-0.2,1.9,1.2,2.9,3,2.2c0.8-0.3,1.4-0.9,1.8-1.6c1.6-2.9,1.8-6.3,0.6-9.4c-0.1-0.3,0-0.4,0.2-0.5
		c1.7-1,3.7-1.4,5.7-1.2c1.4,0,2.6,1.2,2.6,2.6c0,0,0,0.1,0,0.1c-0.1,1.8-0.5,3.6-1.3,5.2c-0.6,1.2-1,2.5-1.2,3.8
		c-0.1,1.4,0.6,2.1,1.9,2.1c1.8-0.1,3.6-0.8,5-1.9c0.1-0.1,0.2-0.3,0.2-0.5c0.5-2,1-4,1.5-6c0.1-0.4,0-0.5-0.4-0.4c-0.5,0-1,0-1.5,0
		c-0.3,0-0.4-0.1-0.3-0.4c0.3-1,0.6-2,0.9-3c0.1-0.2,0.2-0.4,0.4-0.6l6.7-5.1c0.4-0.4,1-0.6,1.6-0.7c0.8,0,1.1,0.4,1,1.2
		c-0.3,1.6-0.7,3.2-1.1,4.9c1.6,0,3.2,0,4.8,0c0.5,0,0.6,0.1,0.5,0.6c-0.2,0.9-0.4,1.8-0.6,2.7c-0.1,0.4-0.2,0.5-0.6,0.5
		c-1.4,0-2.8,0-4.2,0c-0.6,0-0.7,0.2-0.8,0.7c-0.3,1.7-0.8,3.3-1,4.9c-0.3,2.6,0.8,3.9,3.5,3.6c2.3-0.3,4.5-1.2,6.4-2.5
		c0.1-0.1,0.2-0.3,0.3-0.4c0.5-1.9,1-3.9,1.5-5.8c0.1-0.4,0-0.5-0.4-0.5c-0.6,0-1.3,0-1.9,0c0.3-1.2,0.6-2.3,0.9-3.5
		c0.1-0.2,0.2-0.3,0.3-0.4l6.5-5.3c0.3-0.3,0.8-0.5,1.2-0.6c0.9-0.1,1.4,0.4,1.3,1.3c-0.3,1.4-0.6,2.9-0.9,4.3
		c-0.1,0.3,0,0.4,0.3,0.4c1,0,2.1,0,3.1,0c0.3,0,0.4,0.1,0.3,0.4c-0.3,1-0.6,2-0.8,3c0,0.2-0.2,0.4-0.5,0.4c0,0,0,0,0,0
		c-0.9,0-1.9,0-2.9,0c-0.3,0-0.4,0.1-0.5,0.4c-0.3,1.7-0.8,3.3-1.1,5c-0.1,0.5-0.1,1.1,0,1.7c0.1,1,1,1.8,2.1,1.7c0.1,0,0.1,0,0.2,0
		c1.1-0.2,2.1-0.6,3-1.2c0.3-0.2,0.2-0.4,0.3-0.6c0.2-3,1.4-5.8,3.5-8c3-2.9,6.5-4.3,10.7-3.4c2,0.4,3.7,1.5,4.1,3.7
		c0.4,2-0.4,3.9-1.9,5.2c-1.6,1.3-3.5,2.1-5.5,2.5c-0.7,0.2-1.3,0.3-2,0.4c-0.4,0-0.4,0.2-0.4,0.5c0.2,1,1,1.8,2,2
		c1.1,0.2,2.3,0.2,3.4,0c2.8-0.5,5.4-1.6,7.7-3.1c0.2-0.1,0.3-0.2,0.4-0.4c0.6-1.9,1-3.8,1.1-5.7c0-1-0.3-2-0.9-2.8
		c-0.2-0.3-0.2-0.5,0.1-0.7c1.8-1,3.9-1.5,6-1.5c1,0,2,0.5,2.8,1.2c0.5,0.5,0.8,1.2,0.9,2c0.6-0.5,1.1-1,1.7-1.4
		c1.2-0.8,2.6-1.3,4-1.3c1.8-0.1,3.4,1.3,3.4,3.1c0,0.1,0,0.3,0,0.4c0.1,2.5-1.8,4.6-4.3,4.7c-0.9,0-1.8-0.2-2.5-0.6
		c-0.4-0.2-0.7-0.4-1-0.8c-0.3-0.5-1-0.6-1.5-0.3c-0.8,0.3-1.4,1-1.6,1.8c-1.2,3.2-2.4,6.4-3.7,9.6c-0.1,0.3-0.4,0.6-0.8,0.5
		c-1.9,0-3.8,0-5.8,0c-0.4,0-0.5-0.1-0.4-0.5c0.5-1.3,0.9-2.6,1.4-4.1c-0.5,0.4-0.9,0.8-1.4,1.1c-2.5,2-5.4,3.5-8.5,4.2
		c-2.9,0.7-5.9,0.2-8.3-1.5c-0.9-0.7-1.7-1.5-2.2-2.4c-0.2-0.4-0.4-0.4-0.7-0.1c-1.4,1.3-3,2.3-4.7,3c-1.4,0.6-3,0.8-4.5,0.5
		C97.6,44,95.9,42.2,96,39.9C96,39.9,96,39.9,96,39.9c0.2,0,0.2,0,0.1-0.1L96,39.9z M38.5,15.9c-1.9-0.1-3.8,0.3-5.5,1.2
		c-1,0.5-1.7,1.3-2,2.3c-0.5,1.2,0.1,2.5,1.3,3c0,0,0,0,0,0c0.6,0.3,1.3,0.5,2,0.5c1,0.1,1,0.1,1.4-0.8C36.6,20,37.6,18,38.5,15.9
		L38.5,15.9z M40,22.9c0.8,0,1.5-0.1,2.3-0.3c1.7-0.4,3.2-1.6,4-3.2c0.5-1,0.1-2.2-0.9-2.7c0,0-0.1,0-0.1-0.1
		c-0.6-0.3-1.3-0.5-1.9-0.6c-0.2-0.1-0.4,0.1-0.5,0.3c0,0,0,0,0,0c-0.3,0.6-0.5,1.2-0.8,1.8L40,22.9z M118.6,33.1
		c1.3,0,2.6-0.4,3.8-1.1c0.4-0.2,0.8-0.6,1.1-0.9c0.5-0.6,0.5-1.5-0.1-2c-0.2-0.2-0.5-0.3-0.9-0.4c-0.8-0.2-1.7,0-2.4,0.5
		c-1.1,0.7-1.9,1.7-2.3,2.9C117.4,33.3,117.5,33,118.6,33.1L118.6,33.1z"/>
	<path class="st3" d="M160.9,24c2.4-0.1,4.8,0.8,6.5,2.5c0.5,0.5,0.8,1,1.1,1.6c0.5,0.9,0.3,2-0.5,2.7c-0.8,0.6-2,0.6-2.7-0.1
		c-0.3-0.3-0.6-0.6-0.9-0.9c-0.9-1-2.2-1.5-3.5-1.4c-0.3,0-0.5,0.1-0.8,0.2c-0.5,0.1-0.8,0.6-0.6,1.1c0,0.2,0.1,0.3,0.3,0.4
		c0.3,0.3,0.7,0.6,1.1,0.8c1,0.6,2,1.2,3,1.8c1,0.6,1.8,1.3,2.5,2.1c1.5,1.5,1.7,3.9,0.5,5.7c-1.1,1.8-2.8,3.2-4.9,3.8
		c-3.8,1.5-8.2,0.6-11.1-2.4c-0.7-0.6-1.2-1.5-1.3-2.4c-0.1-1.3,0.6-2.5,1.8-2.9c1.2-0.4,2.5-0.1,3.4,0.9c0.3,0.4,0.5,0.7,0.7,1.1
		c0.7,1.5,2.4,2.4,4,2c0.5,0,0.9-0.4,1.1-0.8c0.1-0.6-0.2-0.9-0.6-1.2c-1-0.7-2-1.3-3-1.9c-0.9-0.5-1.7-1.2-2.4-1.9
		c-2.2-2.5-2-6.3,0.4-8.5c0.1-0.1,0.1-0.1,0.2-0.2C156.8,24.8,158.8,24,160.9,24z"/>
	<path class="st3" d="M154.5,20.4c-0.8-0.3-1.5-0.8-2-1.5c-0.9-1-1.1-2.4-0.6-3.7c0.5-1.4,1.8-2.3,3.3-2.4c2-0.2,3.9,1.2,4.1,3.3
		c0.1,0.5,0,1-0.1,1.4c-0.6,2.6-2.5,4.8-5,5.8c-0.4,0.1-0.8,0.2-1.2,0.2c-0.4,0-0.7-0.2-0.8-0.6c-0.1-0.4,0.1-0.6,0.4-0.8
		C153.4,21.7,154,21.1,154.5,20.4z"/>
	<path class="st0" d="M91.8,32.9c0.8,0,1.7,0,2.5,0c0.3,0,0.4,0.1,0.3,0.4c-0.2,0.6-0.4,1.2-0.5,1.9c-0.1,0.5-0.5,1-1,1.1
		c-1.1,0.5-2.3,0.8-3.5,0.9c-1.1,0-1.3-0.4-1.3-1.5c0.1-0.8,0.2-1.6,0.4-2.4c0.1-0.3,0.2-0.4,0.5-0.4C90.1,32.9,91,32.9,91.8,32.9
		L91.8,32.9z"/>
	<path class="st0" d="M28.5,30.9c-0.7,1.3-1.8,2.3-3.2,2.9c-0.6,0.3-1.3,0.3-2,0c-0.6-0.2-1-0.9-0.8-1.5c0.1-0.3,0.3-0.5,0.6-0.7
		c0.5-0.4,1.2-0.6,1.8-0.6C26.1,31.1,27.3,31.1,28.5,30.9z"/>
	<path class="st0" d="M74.6,36.7c-0.2,0-0.4-0.1-0.3-0.4c0.2-1.1,0.5-2.2,1-3.2c0.1-0.2,0.2-0.1,0.3-0.1h1.6c0.2,0,0.3,0,0.2,0.3
		c-0.2,0.9-0.4,1.8-0.7,2.7c0,0.2-0.1,0.3-0.3,0.3C75.9,36.5,75.3,36.7,74.6,36.7z"/>
	<path class="st0" d="M124.2,37.4c1.5-1.8,3.8-3.1,4.4-5.7c0,1.3-0.2,2.7-0.6,3.9c0,0.2-0.2,0.3-0.4,0.3
		C126.6,36.6,125.4,37.1,124.2,37.4z"/>
	<path class="st0" d="M107,33c-0.5,1.1-0.8,2.2-1,3.4c0,0.2-0.2,0.3-0.4,0.3c-0.2,0-0.4-0.1-0.4-0.3c-0.1-0.6-0.1-1.3,0.1-1.9
		c0-0.1,0-0.2,0.1-0.3C105.5,32.9,105.5,32.9,107,33z"/>
	<path class="st0" d="M64,31.3c0.1,1.3-0.1,2.6-0.5,3.9c-0.1,0.2-0.1,0.5-0.4,0.4s-0.2-0.4-0.2-0.6c0-0.6,0.2-1.2,0.4-1.8
		C63.5,32.7,63.8,32,64,31.3z"/>
	<path class="st0" d="M51.2,34c-0.3-0.3-0.2-0.6-0.2-0.8c0.2-1.2,0.2-2.3,0.1-3.5c0-0.1-0.1-0.3,0.1-0.3s0.2,0.1,0.2,0.2
		C51.8,31.1,51.7,32.6,51.2,34z"/>
	<path class="st0" d="M50.8,26.6c0.3-0.3,0.7-0.6,1.1-0.9c0.1-0.1,0.1-0.3,0.3-0.1s0.1,0.3-0.1,0.4c-0.4,0.3-0.8,0.5-1.1,0.8
		L50.8,26.6z"/>
	<path class="st0" d="M151.6,27.5c-0.3-0.5-0.3-0.5,0.6-0.7C152,27.1,151.8,27.4,151.6,27.5z"/>
	<path class="st0" d="M176.4,45c0.5,0.5,1,1.1,1.3,1.7c-0.5,0.2-0.9,0-1.1-0.4c-0.2-0.4-0.4-0.7-0.7-1c-0.2-0.2-0.6-0.3-0.9-0.2
		c-0.3,0.1-0.1,0.4-0.2,0.6c0,0.2,0,0.5,0,0.7c0,0.3-0.1,0.3-0.4,0.3s-0.3-0.1-0.3-0.3c0-1.2,0-2.4,0-3.7c0-0.2,0-0.3,0.3-0.3
		c0.6,0,1.2,0,1.8,0.1c0.6,0,1.1,0.4,1.1,1c0.1,0.6-0.3,1.2-0.9,1.4L176.4,45z M175.6,43.1c-0.3,0.1-0.8-0.2-0.8,0.5
		s0.2,0.7,0.7,0.7c0.8,0,1.2-0.2,1.1-0.6C176.6,43,176,43.2,175.6,43.1L175.6,43.1z"/>
	<path class="st2" d="M38.5,15.9C37.6,18,36.6,20,35.7,22c-0.4,0.9-0.4,0.9-1.4,0.8c-0.7,0-1.4-0.2-2-0.5c-1.2-0.5-1.8-1.8-1.3-3
		c0,0,0,0,0,0c0.3-1,1-1.9,2-2.3C34.7,16.2,36.6,15.8,38.5,15.9z M33.2,21.1c0.2,0,0.3,0,0.3-0.2c0.2-0.4,0.7-0.9,0.5-1.3
		c-0.1-0.2-0.8,0.2-1.2,0.3h-0.1c-0.2,0.1-0.3,0.3-0.2,0.5c0,0,0,0.1,0.1,0.1C32.6,20.8,32.9,21,33.2,21.1L33.2,21.1z"/>
	<path class="st2" d="M40,22.8l2.1-4.8c0.3-0.6,0.6-1.2,0.8-1.8c0.1-0.2,0.3-0.3,0.5-0.3c0,0,0,0,0,0c0.7,0.1,1.3,0.3,1.9,0.6
		c1,0.4,1.5,1.6,1.1,2.6c0,0,0,0.1-0.1,0.1c-0.8,1.6-2.3,2.8-4,3.2C41.5,22.7,40.8,22.9,40,22.8z"/>
	<path class="st2" d="M118.6,33.1c-1.1,0-1.2,0.2-0.8-1c0.5-1.2,1.3-2.2,2.3-2.9c0.7-0.5,1.5-0.7,2.4-0.5c0.8,0.1,1.4,0.7,1.4,1.5
		c0,0.3-0.1,0.6-0.4,0.9c-0.3,0.4-0.7,0.7-1.1,0.9C121.3,32.7,120,33,118.6,33.1z"/>
	<path class="st2" d="M96,39.9l0.1-0.1C96.1,39.9,96.1,39.9,96,39.9L96,39.9z"/>
	<path class="st0" d="M33.2,21.1c-0.3-0.1-0.6-0.3-0.8-0.6c-0.1-0.2-0.1-0.4,0.1-0.5c0,0,0.1,0,0.1-0.1h0.1c0.4-0.1,1.1-0.5,1.2-0.3
		c0.2,0.4-0.3,0.8-0.5,1.3C33.5,21,33.4,21.1,33.2,21.1z"/>
</g>
</svg>
