<?xml version="1.0" encoding="utf-8"?>
<!-- Generator: Adobe Illustrator 21.1.0, SVG Export Plug-In . SVG Version: 6.00 Build 0)  -->
<svg version="1.1" id="Layer_1" xmlns="http://www.w3.org/2000/svg" xmlns:xlink="http://www.w3.org/1999/xlink" x="0px" y="0px"
	 viewBox="0 0 231.4 38.6" style="enable-background:new 0 0 231.4 38.6;" xml:space="preserve">
<style type="text/css">
	.st0{fill:#78BF43;}
	.st1{fill:#F36C24;}
	.st2{fill:#FEFEFE;}
	.st3{font-family:'ArialMT';}
	.st4{font-size:4.24px;}
</style>
<title>Fast Casual</title>
<path d="M126.7,37.8l-5-12.4l-5.1,12.5l-10.5-25.9h30.1c1,0,1,0,0.6,0.9c-2.8,6.9-5.6,13.8-8.3,20.7
	C127.9,34.9,127.3,36.3,126.7,37.8z"/>
<path d="M149.8,11.4c7.3,0.1,13.3,6,13.2,13.4c-0.1,7.3-6,13.3-13.4,13.2s-13.3-6-13.2-13.4c0-0.1,0-0.1,0-0.2
	C136.6,17.5,142.5,11.2,149.8,11.4z"/>
<path d="M86.7,24.7c0-4,0-8.1,0-12.2c0-0.6,0.1-0.8,0.8-0.8c2,0,3.9,0,5.9,0c5.8,0.2,10.4,3.2,12.1,8.8c1.5,4.9,0.6,9.5-3,13.3
	c-2.1,2.1-4.8,3.4-7.8,3.6c-2.4,0.2-4.8,0.1-7.2,0.1c-0.5,0-0.7-0.1-0.7-0.7C86.7,32.8,86.7,28.8,86.7,24.7z"/>
<path d="M175.8,26.6l8.2,10.9c-1.6,0-3.1,0-4.5,0c-0.4,0-0.5-0.3-0.6-0.5c-2.1-3.1-4.3-6.2-6.4-9.4c-0.6-0.6-1.4-0.9-2.2-0.6
	c-0.4,0.2-0.2,0.5-0.2,0.8c0,3,0,5.9,0,8.9c0,0.7-0.2,0.9-0.8,0.9c-0.7-0.1-1.3-0.1-2,0c-0.7,0.1-0.9-0.2-0.9-0.8c0-3.2,0-6.4,0-9.6
	c0-4.8,0-9.7,0-14.5c0-0.6,0.1-0.9,0.8-0.9c1.9,0.1,3.7,0,5.6,0c2.5,0.1,4.9,0.5,6.7,2.5c3.4,3.6,2.4,10.3-2.9,12.1L175.8,26.6z"/>
<path d="M206.9,37.6h-4.3c-0.2,0-0.4-0.1-0.5-0.3c-3.1-3.4-6.2-6.8-9.4-10.1c-0.2-0.2-0.4-0.7-0.8-0.5c-0.5,0.2-0.8,0.7-0.8,1.2
	c0,3,0,5.9,0,8.9c0,0.7-0.2,0.9-0.9,0.9c-0.7,0-1.5,0-2.2,0c-0.5,0-0.6-0.1-0.6-0.6c0-8.2,0-16.4,0-24.6c0-0.5,0.2-0.6,0.6-0.6
	c0.7,0,1.5,0,2.2,0c0.7-0.1,1,0.1,1,0.9c-0.1,2.9,0,5.8,0,8.7v1c0.4-0.1,0.5-0.4,0.8-0.6c3.2-3.2,6.4-6.4,9.6-9.6
	c0.3-0.3,0.7-0.5,1.2-0.5c1.3,0,2.6,0,3.9,0c0,0.4-0.3,0.6-0.5,0.8c-3.7,3.7-7.3,7.3-11,11c-0.5,0.5-0.4,0.7,0,1.1
	c3.9,4.2,7.8,8.3,11.7,12.5C206.9,37.2,207,37.3,206.9,37.6z"/>
<path d="M41.8,37.6c-1.3,0-2.3,0-3.4,0c-0.4,0.1-0.8-0.2-0.9-0.6c-0.8-1.9-1.6-3.7-2.4-5.6c-0.1-0.4-0.5-0.7-0.9-0.6
	c-2.9,0-5.8,0-8.7,0c-0.4,0-0.8,0.2-0.9,0.6c-0.8,1.8-1.6,3.5-2.3,5.3c-0.3,0.6-0.6,1-1.3,0.9c-1-0.1-2,0-3.1,0l12.1-26.7L41.8,37.6
	z"/>
<path d="M71,10.9L76.4,23c2.1,4.7,4.2,9.3,6.3,14c0.2,0.5,0.1,0.6-0.4,0.6c-0.9,0-1.8,0-2.6,0c-0.5,0.1-0.9-0.2-1.1-0.7
	c-0.8-1.9-1.6-3.7-2.4-5.6c-0.1-0.4-0.6-0.7-1-0.6c-2.8,0-5.5,0.1-8.2,0c-0.7-0.1-1.3,0.3-1.5,1c-0.7,1.8-1.5,3.5-2.3,5.3
	c-0.1,0.4-0.5,0.6-0.9,0.6c-1.1,0-2.2,0-3.4,0L71,10.9z"/>
<path d="M8.9,11.4c2.9-0.2,5.6,1.3,7,3.9c0.3,0.4,0.3,0.7-0.2,0.9c-0.7,0.4-1.4,0.8-2,1.2c-0.4,0.3-0.6,0.2-0.9-0.2
	c-0.8-1.6-2.5-2.5-4.3-2.3c-1.4,0.1-2.6,1.1-3,2.5c-0.4,1.3,0.2,2.7,1.5,3.3c0.9,0.5,1.8,0.9,2.7,1.3c1.7,0.7,3.3,1.5,4.8,2.6
	c2.9,2.3,3.1,6.1,1.5,9.1c-1.6,2.9-4.8,4.6-8.1,4.2c-4-0.4-6.3-2.9-7.3-6.5c-0.1-0.5,0-0.8,0.5-0.9c0.8-0.1,1.5-0.4,2.3-0.6
	c0.4-0.1,0.7-0.2,0.8,0.4c0.2,1.1,0.7,2.2,1.5,3c1.6,1.3,3.8,1.5,5.5,0.4c1.7-1,2.4-3.1,1.8-4.9c-0.2-0.7-0.7-1.3-1.4-1.8
	c-1.7-1-3.4-1.8-5.1-2.6c-1.8-0.9-3.5-1.9-4.3-3.9c-1.3-3.5,0.4-7.4,3.9-8.7c0.3-0.1,0.7-0.2,1-0.3C7.7,11.5,8.3,11.4,8.9,11.4z"/>
<path d="M216.1,11.4c3.3-0.1,5.5,1.5,7,4.1c0.2,0.3,0.1,0.5-0.2,0.7c-0.7,0.4-1.4,0.9-2.1,1.4c-0.4,0.2-0.6,0.2-0.8-0.2
	c-0.3-0.6-0.7-1.1-1.2-1.5c-1.6-1.4-4-1.2-5.3,0.4c-0.4,0.4-0.6,1-0.8,1.5c-0.3,1,0.1,2,1,2.6c1.6,1,3.3,1.9,5,2.5
	c1.7,0.7,3.1,1.7,4.2,3.1c1.9,3.1,1.4,7.1-1.2,9.7c-3.2,3.3-8.4,3.4-11.7,0.2c-1.3-1.2-2.1-2.8-2.4-4.5c-0.1-0.4,0.1-0.5,0.4-0.6
	c0.9-0.3,1.7-0.4,2.6-0.7c0.4-0.1,0.6,0,0.7,0.4c0.4,1.8,1.1,3.4,3.1,3.9c3.3,0.9,6.4-1.4,5.8-5c-0.3-1.3-1.2-2.3-2.4-2.8
	c-1.3-0.6-2.6-1.2-4-1.9c-1.7-0.8-3.3-1.7-4.3-3.4c-1.7-3.3-0.3-7.4,3-9c0.5-0.3,1.1-0.5,1.6-0.6C214.9,11.5,215.5,11.4,216.1,11.4z
	"/>
<path d="M44.7,24.6c0-3.9,0-7.9,0-11.8c0-0.8,0.3-1,1-1c0.7,0.1,1.3,0.1,2,0c0.6,0,0.7,0.2,0.7,0.7c0,3.8,0,7.6,0,11.5
	c0,3.1,0,6.2,0,9.3c0,0.6,0.2,0.8,0.8,0.8c2.3,0,4.7,0,7,0c0.7,0,0.8,0.2,0.8,0.8c-0.1,0.8,0.3,1.9-0.2,2.4s-1.5,0.2-2.3,0.2
	c-3,0-6,0-9,0c-0.6,0-0.8-0.2-0.8-0.8C44.7,32.7,44.7,28.6,44.7,24.6L44.7,24.6z"/>
<path class="st0" d="M126.8,0.5c1.8,0,1.7,0,1.6,1.8c-0.2,2.4-0.5,4.8-0.7,7.2c0,0.6-0.3,0.6-0.8,0.6s-1,0.2-1.1-0.6
	c-0.2-1.9-0.4-3.8-0.5-5.7c-0.1-0.9-0.1-1.8-0.3-2.7c-0.1-0.6,0.1-0.7,0.6-0.7S126.4,0.5,126.8,0.5z"/>
<path class="st0" d="M115.8,0.5c1.7,0,1.8,0,1.6,1.7c-0.2,2.5-0.5,5-0.7,7.5c-0.1,0.7-0.6,0.5-1,0.6s-0.8,0.1-0.9-0.6
	c-0.2-2.7-0.5-5.4-0.8-8.1c-0.1-0.7,0-1.2,0.9-1.1C115.2,0.5,115.5,0.5,115.8,0.5z"/>
<path class="st0" d="M113,3.8c0.4,1.5,0.7,3.1,1,4.6c0,0.1,0,0.2,0,0.3c0.3,1.5,0.3,1.4-1.2,1.5c-0.8,0-0.8-0.5-0.9-1
	c-0.4-1.7-0.8-3.3-1.2-5c0.1-0.3,0.3-0.4,0.6-0.4C111.9,3.9,112.4,3.9,113,3.8z"/>
<path class="st0" d="M130.3,3.9c0.3,0,0.5,0,0.7,0c0.6,0,0.8,0.1,0.6,0.8c-0.4,1.5-0.7,2.9-1,4.4c-0.1,0.4,0,0.9-0.4,1
	c-0.6,0.1-1.2,0.1-1.8,0c-0.3,0-0.1-0.2-0.1-0.4c0.3-1.7,0.7-3.4,0.9-5.1C129.3,3.8,129.8,3.9,130.3,3.9z"/>
<path class="st0" d="M120.7,4.1c-0.3,1.9-0.7,3.8-1.3,5.6c-0.2,0.9-1.2,0.4-1.8,0.4s-0.3-0.6-0.2-0.9c0.3-1.8,0.6-3.6,1.1-5.3
	c0.7-0.1,1.3-0.1,2-0.1C120.6,3.9,120.7,3.9,120.7,4.1z"/>
<path class="st0" d="M123.1,3.9c0.7-0.1,1.1,0.1,1.2,1c0.2,1.5,0.6,3,0.9,4.5c0.1,0.5-0.1,0.7-0.6,0.7c-1.4,0.1-1.5,0-1.8-1.3
	s-0.6-2.5-0.9-3.8S121.7,3.9,123.1,3.9z"/>
<path class="st0" d="M113,3.8c-0.4,0.1-0.9,0.2-1.3,0.1c-0.3,0-0.6,0.1-0.8,0.3c-0.1-0.4,0.1-0.5,0.5-0.5L113,3.8z"/>
<path class="st0" d="M120.7,4.1c-0.7-0.4-1.5-0.1-2.2-0.2c0.7-0.2,1.5-0.2,2.2-0.1C120.8,3.8,120.8,4,120.7,4.1z"/>
<path class="st1" d="M126.7,29.8l-3.9-9.8c-0.5-1.3-1.1-2.7-1.6-4c-0.2-0.6-0.1-0.8,0.5-0.8c3.3,0,6.7,0,10,0c0.8,0,0.6,0.4,0.4,0.8
	l-4,10.2L126.7,29.8z"/>
<path class="st1" d="M116.5,29.8l-3.5-8.9c-0.7-1.6-1.3-3.3-1.9-4.9c-0.3-0.7-0.1-0.8,0.6-0.8c1.7,0,3.4,0,5.1,0
	c0.5-0.1,0.9,0.2,1,0.7c0.6,1.6,1.3,3.2,2,4.9c0.1,0.2,0.2,0.5,0.1,0.8L116.5,29.8z"/>
<path class="st2" d="M140.2,24.7c-0.1-5.3,4-9.6,9.3-9.7c0.1,0,0.2,0,0.4,0c5.4-0.1,9.8,4.2,9.9,9.6s-4.2,9.8-9.6,9.9
	c-5.4,0.1-9.8-4.2-9.9-9.6C140.2,24.8,140.2,24.7,140.2,24.7z"/>
<path class="st2" d="M90.4,24.7c0-2.9,0-5.7,0-8.6c0-0.6,0.1-0.8,0.8-0.8c2.3-0.2,4.5,0.3,6.6,1.2c3.5,1.9,4.8,5.4,4.6,8.9
	c-0.1,2.1-0.9,4.1-2.3,5.6c-1.8,1.8-4.2,2.9-6.7,3c-0.7,0.1-1.5,0-2.2,0s-0.8-0.2-0.7-0.8C90.4,30.4,90.4,27.5,90.4,24.7L90.4,24.7z
	"/>
<path class="st2" d="M170.1,19.5c0-1.1,0-2.2,0-3.3c0-0.6,0.2-0.7,0.7-0.7c1.5-0.1,3,0.1,4.4,0.5c1.3,0.4,2.2,1.5,2.4,2.9
	c0.3,1.6-0.4,3.2-1.9,4c-1.7,0.9-3.5,0.7-5.2,0.7c-0.4,0-0.4-0.3-0.4-0.6C170.1,21.8,170.1,20.6,170.1,19.5z"/>
<path class="st2" d="M29.9,19.4l3.4,8h-6.4c-0.4,0-0.5-0.1-0.3-0.5C27.7,24.5,28.7,22.1,29.9,19.4z"/>
<path class="st2" d="M71,19.4c1.1,2.6,2.1,5,3.2,7.4c0.2,0.5,0.1,0.6-0.4,0.6c-1.9,0-3.8,0-5.7,0c-0.4,0-0.6-0.1-0.4-0.5L71,19.4z"
	/>
<text transform="matrix(1 0 0 1 224.7971 16.0705)" class="st3 st4">TM</text>
</svg>
