<?xml version="1.0" encoding="utf-8"?>
<!-- Generator: Adobe Illustrator 21.1.0, SVG Export Plug-In . SVG Version: 6.00 Build 0)  -->
<svg version="1.1" id="Layer_1" xmlns="http://www.w3.org/2000/svg" xmlns:xlink="http://www.w3.org/1999/xlink" x="0px" y="0px"
	 viewBox="0 0 242 141.3" style="enable-background:new 0 0 242 141.3;" xml:space="preserve">
<style type="text/css">
	.st0{fill:#005841;}
	.st1{fill:none;stroke:#005841;stroke-width:1.4579;}
	.st2{fill:#A90432;}
	.st3{fill:none;stroke:#A90432;stroke-width:0.8273;}
	.st4{fill:none;stroke:#005841;stroke-width:0.8623;}
	.st5{fill:none;stroke:#FFFFFF;stroke-width:1.1534;}
	.st6{fill:#FFFFFF;}
</style>
<title>Casual dining</title>
<path class="st0" d="M205,77.1c0-0.7-8,0.9-8,0.9s-1.8-0.4-5.7,1.6c-1.3,0.6-3.8,0.9-5.2,2.3c-0.8,0.7-2.1,0.3-3.7,1.9
	s-16.3,6.4-14.8,5.3s-4.7,0-6.6,0.2c-4.1,0.4-3.9-0.4-5-0.2s-1.6-1.5-5.8-0.6c-1.6,0.3-3.9,0.1-6.6-0.1c-1.1-1-2.9-0.4-2.9-0.4
	s-1-0.2-0.9-0.9s4.4-0.5,5.6-0.1c3.1,1.2,3.2-1.1,3.2-1.1s-3.3,0.3-3.6-0.2s-4-0.3-4.8-0.7s-4.4-0.7-4.3-0.3c0.3,1,2.7,0.8,2.5,1.7
	s0.3,2.3-0.2,2.7c-3.4,2.7,0.7,6.1,0.7,6.8s0.4,0.4,1.8,0.7c0.3,0.1,1.3,1.5,2.6,1.6c7.4,4.2,14.9,0.4,14.2-0.4
	c-1.6-1.9-3.4-3.7-5.2-5.4c0,1.2,14,1.4,13.6-0.3c14.5-4.2,13.7-5.1,18.2-7.5S202.4,77.8,205,77.1"/>
<path class="st0" d="M83,86.8c0.4-0.1,0.9-0.1,1.3-0.1c0.2,0.1,0.7,0.3,0.5,0.5s-0.7,0.1-1.3,0.1c-0.4,0-0.7,0-1-0.3L83,86.8"/>
<path class="st0" d="M78.5,87.2c0.1-0.2,0.9-0.1,1.4-0.1s1.7,0.1,1.3,0.3s-0.7,0.3-1.6,0.4S78.5,87.3,78.5,87.2"/>
<path class="st0" d="M128,128.2c-0.8,0,1-0.1,1.1,0.3c1,1.9,0,3.1-0.2,3.1c-3,0.7-2.7,2.2-2.5,2.3c0.6,0.2,1.5-0.9,1.7-1.2
	c0.2-0.3,0.6-0.1,0.7,0.1c0.8,0.8-1.7,2.8-1.7,2.8s0.5,1.8-1,2.1s-1.8,0.6-1.8,0.6c0,0.4,2.5-0.4,3.2-0.6c1,1.1-0.3,1.2-0.9,1.6
	c-1.4,0.9-3.1,1.4-4.8,1.5c0,0-4,0.2-4.6-0.2s-0.9-1.3-1.6-1.4s-1.9-1.8-1.9-1.8s0.8-0.3,0.3-0.5c-1-0.3-1.7-2.3-2-4.4
	c-0.2-1.4,0.1-2.8,0.9-3.9c0.4-0.9-0.1-4.4-0.1-4.4s-3-12.7-2.5-13.6c0.2-0.4-1.5-1.8-1.3-2.8s-1.4-2-1.4-3.1
	c0.2-1.8,0.6-3.7,1.1-5.4c0.4-1.2-0.9-3.7-0.9-3.7s-0.2,1.1-0.8,0.9c-0.7-0.2-1.4,0-1.9,0.6c-3.2,3.6-5.1,3.1-6.1,3.5
	c-5.2,1.8-7.6-0.1-7.6-0.1s2.9-5.2,2.9-5.9s2.2-1.9,1.8-2.1C95,91.9,82.2,93.3,81,93.3s-4.1-0.7-5.3-0.9s-16.8-7.6-18.9-8.3
	c-4.9-1.8-15.2-3.6-16.2-3.8C40,80.2,39.5,80,39,79.7c0,0,6.5-0.2,7.4-0.2c2.9,0.6,5.8,1.3,8.6,2.1c0.9,0.4,4.8,1.2,5.5,1.8
	c5.8,3.3,7.9,3.1,7.8,3c0.8,0.1,1.5,0.4,2.1,0.9c0.5,1.3,2.3,1,2.3,1s3,0.7,2.4,1.3s10.7,0.3,10.7,0.3v-0.5l5-0.3l0.3,0.7
	c0,0,8.9-1.9,9.6-1.5s0.2-0.6,0.2-0.6c0.8,0.1,1.5-0.1,2.2-0.4c1.5-0.6-1.3-0.8-1.3-0.8l-3.7,0.1l-0.6-0.2c0,0,0.6,0.4-0.3,0.4
	s-5.5,0.5-6,0.3s1.1-0.7,1.1-0.7l5.3-0.3l2.7-0.6l3.2-0.4c0.7-0.2,1.4-0.3,2.1-0.2c0.8,0.1,0.9,1.2,1.1,1.1c5.7-1.9,8-2.8,8.9-3.2
	c1.4-0.4,2.9-0.7,4.4-0.6c1.8-0.1,0.9,1,0.9,1s-4.3,2.1-5.3,2.8s-3.5,1.8-3.9,2s-0.5,0.1-1.2,0.3s-1.6,2-1.6,2s0.6,0.2,0.6,0.6
	s0.1,1,0.1,1s3.1,5,3.6,7.6c0.1,0.6,0.7,0.2,1.9,1.5c0.3,0.6-0.3,2.1-0.3,2.1l-0.6-0.1l-0.7-0.4l1.3,1.8l0.3,2.6
	c0,0,1.2,1.8,0.4,2.1c-0.3,0,1.1,4.9,0.6,4.9s1.4,3.8,0.6,5.3c-0.2,0.4-1.1-0.4-1.1-0.4c0,1.5,0.2,3.1,0.6,4.6
	c0.2,0.4,0.5,0.3,1.1,0.4s0.6,4.1,0.6,4.1l-0.7,0.2c0,0,1.1,1.7,1.2,2.1s0.7,3.2,0.4,3.6c-0.1,0.2-0.7,0.3-0.4,0.7
	c0.9,1.5-0.5,1.2-0.5,1.2s0.1,0.9,0.4,0.5s3.1,0.3,1.5,2c-0.8,0.6,3.3,0.6,3,0c-1.5-1.6,1.8-2.1,1.8-2.1s-1.8-1.8,0.3-2.2
	c0.7-0.4-0.9,0,1.6-5.8C127.4,128.1,128.8,128.2,128,128.2"/>
<path class="st0" d="M126.5,125c-0.1-0.1,0.8-1.2,0.8,0.3c1.2,1.6,0.2,1.9,0.2,2.2c-0.2,0.4-0.6,0.5-1,0.4c-0.1-0.5-0.2-0.9-0.2-1.4
	C126.2,125.1,126.3,125.8,126.5,125"/>
<path class="st0" d="M128.1,109.4c1-1.5,1.4,0.3,1.4,0.3l-1,2.4v2.8c-0.5,0.7-0.9,1.6-1.1,2.4c-0.1,0.5-0.7,0-0.6-0.3
	c0.2-0.8,0.7-5.1,0.7-5.1l0.7-1.8L128.1,109.4"/>
<path class="st0" d="M134.2,107.3c0.3-1.3-1.3-0.4-1.4-0.1c-0.8,0.9-1.6,1.7-2.5,2.4c-0.4,0.9-0.6,1.9-0.7,2.8c0.2,0.8,0.9,0,0.9,0
	s0.2-1,0.6-0.6c-0.9,2.7-0.9,3.1-0.8,3.5s0.9,0.4,0.9,0.4c0,0.9-0.3,1.7-0.8,2.4c-0.2,0.2-0.2,0.6,0,0.8c0.1,0.1,0.3,0.2,0.5,0.1
	c0.7-0.1-0.1-0.3,0.5-0.6s0.4-2.9,0.4-2.9s-0.5,0.1-0.4-0.6c0.1-0.5,0.3-0.9,0.6-1.3C132.1,113.8,133.8,108.5,134.2,107.3"/>
<path class="st0" d="M136.4,101.5c-0.1-0.2-1.3,1.9-1.5,1.7c-1.2-1.3-3.3-1.3-4.5,0c0,0-0.1,0.1-0.1,0.1c-0.4,0.4-0.9,3.2-1.9,4.5
	c0.7,1.3,4.2-0.1,4-1c-0.3-1.1,0.9-0.9,0.9-0.9c0-0.9,0.7-1.6,1.6-1.8c0,0-0.4-0.4,0.6-0.1s0.9-0.9,1.3-1.3
	C137.4,101.7,136.4,101.6,136.4,101.5"/>
<polyline class="st0" points="130.6,119.9 129.7,121.1 130.3,123.3 130.6,124.2 131.3,120.8 130.6,119.9 "/>
<polyline class="st0" points="131.3,132 129.2,135.4 129.4,136 130.8,134.2 132.2,132.2 131.3,132 "/>
<polyline class="st0" points="150.3,85.9 151.7,86.1 152.6,85.9 152.6,85.2 151,85.2 150.3,85.9 "/>
<polyline class="st0" points="154.2,85.5 153.9,86.1 155.3,86.1 157.3,86.4 155.5,85.2 154.2,85.5 "/>
<path class="st1" d="M126.5,137.7h91.7c0-1.9,1.5-3.4,3.4-3.5v-10.5c-0.9-0.1-1.8-0.6-2.4-1.2c-0.4-0.7-0.7-1.4-0.9-2.2h-86.7"/>
<path class="st1" d="M115.6,120.3H25.8c0,1.9-1.5,3.5-3.4,3.5v10.5c0.9,0.1,1.8,0.6,2.4,1.2c0.4,0.7,0.7,1.4,0.9,2.2h92.4"/>
<path class="st0" d="M30.2,131.8c0.2,0.1,0.3,0.2,0.5,0.3c1.1,0.4,2.3,0.6,3.5,0.6c2.2,0,2.4-0.7,2.4-1c0-0.6-1-0.8-1.7-1l-1.2-0.3
	c-1.7-0.5-3.9-1.1-3.9-3.2c0-1,0.6-2,1.5-2.4c1.5-0.7,3.2-1,4.8-0.9c1.5,0,3.1,0.2,4.6,0.6l0.1,0.1l-0.2,2.3l-0.2,0.1
	c-0.3-0.2-0.7-0.3-1.1-0.5c-0.8-0.3-1.7-0.4-2.6-0.4c-0.5,0-1,0-1.4,0.2c-0.3,0.1-0.5,0.4-0.5,0.7c0,0.6,1.1,0.8,1.6,1l1.3,0.4
	c0.9,0.2,1.7,0.5,2.5,0.9c0.8,0.4,1.4,1.2,1.4,2.2c-0.1,0.8-0.4,1.5-1,2c-1.4,1.3-3.9,1.6-6.3,1.6c-1.5,0-3-0.1-4.5-0.5l-0.2-0.1
	c0.1-0.8,0.2-1.6,0.2-2.5L30.2,131.8"/>
<path class="st0" d="M51.6,126.3c0,0.9,0,1.9,0,2.8c0,1.8,0,3.6,0.1,5.5l-0.2,0.1c-2.1,0-2.7,0-5,0l-0.1-0.1c0.1-3.1,0.1-4,0.1-8.3
	l-3.8,0.1l-0.1-0.1l0.2-2.2l0.2-0.1h12.7c-0.1,0.7-0.2,1.5-0.2,2.2l-0.2,0.1L51.6,126.3"/>
<path class="st0" d="M62.5,130.3v2.1c1.9,0,3.6,0,6.1-0.1l0.1,0.1l-0.2,2.2l-0.2,0.1c-3.3,0-3.8,0-4.6,0c-2.7,0-4,0-6.3,0.1
	l-0.1-0.1c0.1-1.7,0.1-2.6,0.1-4.7c0-1.9,0-3.8-0.2-5.8l0.2-0.1h10.8l0.1,0.1l-0.2,2.1l-0.2,0.1h-5.5v1.9l5.3-0.1l0.2,0.1l-0.2,2
	l-0.2,0.1L62.5,130.3"/>
<path class="st0" d="M75.2,132.1l-0.9,2.5l-0.2,0.1h-4.4l-0.1-0.1l5.2-10.4l0.2-0.1H81l0.2,0.1l4.9,10.5l-0.2,0.1h-2.5
	c-0.8,0-1.6,0-2.5,0l-0.2-0.1l-0.9-2.6L75.2,132.1 M79,129.9l-0.6-1.6l-0.8-2.3c-0.3,0.8-0.4,1.1-1,2.3l-0.5,1.5H79L79,129.9z"/>
<path class="st0" d="M92.8,129.2c0,0.8,0.1,1.5,0.1,2.3c0,1,0.1,2.1,0.2,3.1l-0.1,0.1c-2.1,0-2.7,0-4.9,0l-0.2-0.1
	c0.1-1.6,0.1-2.7,0.1-4.3c0-2.1-0.1-4.1-0.3-6.2l0.1-0.1c2.1,0,2.7,0,5,0l0.1,0.1l-0.2,4.6l3-3.3l1.2-1.3l0.2-0.1h5.3l0.1,0.1
	c-1.7,1.4-3.4,2.8-5,4.4l3.1,3.6c0.7,0.8,1.5,1.6,2.3,2.3l-0.1,0.1l-5.5,0.1l-0.2-0.1c-0.8-1-0.9-1.2-1.8-2.4L92.8,129.2"/>
<path class="st0" d="M148,134.6c0-0.9,0.1-2.3,0.1-3.2c0-0.4,0-0.8,0-1.2h-2c-0.9,0-1.7,0-2.8,0v4.4l-0.1,0.1h-5.1l-0.1-0.1
	c0.1-4.1,0.1-5.5,0.1-6c0-1.5-0.1-2.8-0.1-4.5l0.1-0.1h2c1.1,0,2,0,3.2-0.1l0.1,0.1v3.8h4.7l-0.1-3.7l0.1-0.1h5.1l0.1,0.1
	c0,1.9-0.1,3.9-0.1,5.8c0,1.9,0,2.9,0.1,4.7l-0.1,0.1C150.9,134.7,150.2,134.7,148,134.6L148,134.6"/>
<path class="st0" d="M169.6,132.7c-1.7,1.8-4.9,2.1-6.9,2.1c-5.1,0-7.9-1.9-7.9-5.4c-0.1-1.3,0.4-2.6,1.3-3.6c1-1.1,2.9-2.1,6.7-2.1
	c1.9-0.1,3.8,0.3,5.6,1.1c1.5,0.9,2.5,2.5,2.4,4.3C170.9,130.5,170.5,131.8,169.6,132.7 M162.9,126.1c-2.2,0-2.8,1.5-2.8,3.4
	c0,1,0.1,3.1,2.7,3.1s2.7-2.1,2.7-3.3C165.5,127.6,165,126.1,162.9,126.1L162.9,126.1z"/>
<path class="st0" d="M178.3,124.1c-0.1,2-0.1,4-0.1,6c-0.1,0.6,0,1.2,0.3,1.7c0.5,0.7,1.3,1,2.1,0.9c0.6,0,1.2-0.1,1.7-0.4
	c0.8-0.5,0.8-1.2,0.8-2.3c0-2.7-0.1-4.2-0.2-5.8l0.1-0.1h4.4l0.1,0.1l-0.1,6.2v0.6c0.1,1.5-0.8,2.8-2.2,3.3
	c-1.6,0.6-3.3,0.8-4.9,0.8c-1.7,0-4.5-0.2-5.9-1.3c-0.9-0.7-1.3-1.8-1.2-2.9v-0.5c0-3.1,0-3.7-0.1-6l0.1-0.1c2.2,0,2.8,0,5.2,0
	l0.1,0.1"/>
<path class="st0" d="M189.9,131.8c0.2,0.1,0.3,0.2,0.5,0.3c1.1,0.4,2.3,0.6,3.5,0.6c2.2,0,2.4-0.7,2.4-1c0-0.6-1-0.8-1.7-1l-1.2-0.3
	c-1.6-0.5-3.9-1.1-3.9-3.2c0-1,0.6-2,1.5-2.4c1.5-0.7,3.2-1,4.8-0.9c1.5,0,3.1,0.2,4.6,0.6l0.1,0.1l-0.2,2.3l-0.2,0.1
	c-0.3-0.2-0.7-0.3-1.1-0.5c-0.8-0.3-1.7-0.4-2.6-0.4c-0.5,0-1,0-1.4,0.2c-0.3,0.1-0.5,0.4-0.5,0.7c0,0.6,1.1,0.8,1.6,1l1.3,0.4
	c0.9,0.2,1.7,0.5,2.6,0.9c0.8,0.4,1.4,1.2,1.4,2.2c-0.1,0.8-0.4,1.5-1,2c-1.4,1.3-3.9,1.6-6.3,1.6c-1.5,0-3-0.1-4.5-0.5l-0.2-0.1
	c0.1-0.8,0.2-1.6,0.2-2.4h0.2"/>
<path class="st0" d="M208.6,130.3v2.1c1.9,0,3.6,0,6.1-0.1l0.1,0.1l-0.2,2.2l-0.2,0.1c-3.3,0-3.9,0-4.6,0c-2.6,0-4,0-6.3,0.1
	l-0.1-0.1c0.1-1.7,0.1-2.6,0.1-4.7c0-1.9,0-3.8-0.2-5.8l0.1-0.1h10.8l0.1,0.1l-0.2,2.1l-0.1,0.1h-5.6v1.9l5.3-0.1l0.1,0.1l-0.2,2
	l-0.2,0.1L208.6,130.3"/>
<path class="st2" d="M206,76.1c0-0.7-8,0.9-8,0.9s-1.8-0.4-5.7,1.6c-1.3,0.6-3.8,0.9-5.2,2.3c-0.8,0.7-2.1,0.3-3.7,1.9
	s-16.3,6.4-14.8,5.3s-4.7,0-6.6,0.2c-4.1,0.4-3.9-0.4-5-0.2s-1.6-1.5-5.8-0.6c-1.6,0.3-3.9,0.1-6.6-0.1c-1.1-1-2.9-0.4-2.9-0.4
	s-1-0.2-0.9-0.9s4.4-0.5,5.6-0.1c3.1,1.2,3.2-1.1,3.2-1.1s-3.3,0.3-3.6-0.2s-4-0.4-4.8-0.7s-4.4-0.7-4.3-0.3c0.3,1,2.7,0.8,2.5,1.7
	s0.3,2.3-0.2,2.7c-3.4,2.7,0.7,6.1,0.7,6.8s0.4,0.4,1.8,0.7c0.3,0.1,1.3,1.5,2.6,1.6c7.4,4.2,14.9,0.4,14.2-0.4
	c-1.6-1.9-3.4-3.7-5.2-5.4c0,1.2,14,1.4,13.6-0.3c14.5-4.2,13.7-5.1,18.2-7.5S203.4,76.8,206,76.1"/>
<path class="st3" d="M206,76.1c0-0.7-8,0.9-8,0.9s-1.8-0.4-5.7,1.6c-1.3,0.6-3.8,0.9-5.2,2.3c-0.8,0.7-2.1,0.3-3.7,1.9
	s-16.3,6.4-14.8,5.3s-4.7,0-6.6,0.2c-4.1,0.4-3.9-0.4-5-0.2s-1.6-1.5-5.8-0.6c-1.6,0.3-3.9,0.1-6.6-0.1c-1.1-1-2.9-0.4-2.9-0.4
	s-1-0.2-0.9-0.9s4.4-0.5,5.6-0.1c3.1,1.2,3.2-1.1,3.2-1.1s-3.3,0.3-3.6-0.2s-4-0.4-4.8-0.7s-4.4-0.7-4.3-0.3c0.3,1,2.7,0.8,2.5,1.7
	s0.3,2.3-0.2,2.7c-3.4,2.7,0.7,6.1,0.7,6.8s0.4,0.4,1.8,0.7c0.3,0.1,1.3,1.5,2.6,1.6c7.4,4.2,14.9,0.4,14.2-0.4
	c-1.6-1.9-3.4-3.7-5.2-5.4c0,1.2,14,1.4,13.6-0.3c14.5-4.2,13.7-5.1,18.2-7.5S203.4,76.8,206,76.1z"/>
<path class="st2" d="M84,85.8c0.4-0.1,0.9-0.1,1.3-0.1c0.2,0.1,0.7,0.3,0.5,0.5s-0.7,0.1-1.3,0.1c-0.4,0-0.7-0.1-1-0.3L84,85.8"/>
<path class="st3" d="M84,85.8c0.4-0.1,0.9-0.1,1.3-0.1c0.2,0.1,0.7,0.3,0.5,0.5s-0.7,0.1-1.3,0.1c-0.4,0-0.7-0.1-1-0.3L84,85.8z"/>
<path class="st2" d="M79.5,86.1c0.1-0.2,0.9-0.1,1.4-0.1s1.6,0.1,1.3,0.3s-0.7,0.3-1.6,0.3S79.5,86.3,79.5,86.1"/>
<path class="st3" d="M79.5,86.1c0.1-0.2,0.9-0.1,1.4-0.1s1.6,0.1,1.3,0.3s-0.7,0.3-1.6,0.3S79.5,86.3,79.5,86.1z"/>
<path class="st2" d="M129,127.1c-0.8,0,1-0.1,1.1,0.3c1,1.9,0,3.1-0.2,3.1c-3,0.7-2.7,2.2-2.6,2.3c0.6,0.2,1.5-0.9,1.7-1.3
	s0.6-0.1,0.7,0.1c0.8,0.8-1.6,2.8-1.6,2.8s0.4,1.8-1,2.1c-1.4,0.3-1.8,0.6-1.8,0.6c0,0.4,2.5-0.4,3.2-0.6c1,1.1-0.3,1.2-0.9,1.6
	c-1.4,0.9-3.1,1.4-4.8,1.5c0,0-4,0.2-4.6-0.2s-0.9-1.3-1.6-1.4s-1.9-1.8-1.9-1.8s0.8-0.3,0.3-0.4c-1-0.3-1.7-2.3-2-4.4
	c-0.2-1.4,0.1-2.8,0.8-3.9c0.4-0.9-0.1-4.4-0.1-4.4s-3-12.7-2.6-13.6c0.2-0.4-1.5-1.8-1.2-2.8s-1.4-2-1.4-3.1
	c0.2-1.8,0.6-3.7,1.1-5.4c0.4-1.2-0.9-3.7-0.9-3.7s-0.2,1.1-0.8,0.9c-0.7-0.2-1.4,0-1.9,0.6c-3.2,3.6-5.1,3.1-6.1,3.5
	c-5.2,1.8-7.6-0.1-7.6-0.1s2.9-5.2,2.9-5.9s2.2-1.9,1.8-2.1C96,90.9,83.3,92.3,82,92.3s-4.1-0.7-5.3-0.8s-16.8-7.5-18.9-8.3
	c-4.9-1.8-15.2-3.6-16.2-3.8c-0.6-0.1-1.1-0.3-1.6-0.6c0,0,6.5-0.2,7.4-0.2c2.9,0.6,5.8,1.3,8.6,2.1c0.9,0.4,4.8,1.2,5.6,1.8
	c5.8,3.3,7.9,3.1,7.8,2.9c0.8,0.1,1.5,0.5,2.1,0.9c0.5,1.3,2.3,1,2.3,1s3,0.7,2.4,1.3s10.7,0.3,10.7,0.3v-0.5l5-0.3l0.3,0.7
	c0,0,8.9-1.9,9.6-1.5s0.2-0.6,0.2-0.6c0.8,0.1,1.5-0.1,2.2-0.4c1.5-0.6-1.3-0.8-1.3-0.8l-3.7,0.1l-0.6-0.2c0,0,0.6,0.4-0.3,0.4
	s-5.5,0.5-6,0.3s1.1-0.7,1.1-0.7l5.3-0.3l2.7-0.6l3.2-0.4c0.7-0.2,1.4-0.3,2.1-0.2c0.8,0.1,0.9,1.2,1.1,1.1c5.7-1.9,8-2.8,8.9-3.2
	c1.4-0.4,2.9-0.7,4.4-0.6c1.8-0.1,0.9,1,0.9,1s-4.3,2.1-5.3,2.8s-3.5,1.8-3.9,2s-0.5,0.1-1.2,0.3s-1.6,2-1.6,2s0.6,0.2,0.6,0.6
	s0.1,1,0.1,1s3.1,5,3.6,7.6c0.1,0.6,0.7,0.2,1.9,1.5c0.3,0.6-0.3,2.1-0.3,2.1l-0.6-0.1l-0.7-0.4l1.3,1.8l0.3,2.6
	c0,0,1.2,1.8,0.4,2.1c-0.3,0,1.1,4.9,0.6,4.9s1.4,3.8,0.6,5.3c-0.2,0.4-1.1-0.4-1.1-0.4c0,1.5,0.2,3.1,0.6,4.6
	c0.2,0.3,0.5,0.3,1.1,0.4s0.6,4.1,0.6,4.1l-0.7,0.2c0,0,1.1,1.7,1.3,2.1s0.7,3.2,0.4,3.6c-0.1,0.2-0.7,0.3-0.5,0.7
	c0.9,1.5-0.4,1.2-0.4,1.2s0.1,0.9,0.4,0.5s3.1,0.3,1.5,2c-0.8,0.6,3.3,0.6,3,0c-1.5-1.6,1.8-2.1,1.8-2.1s-1.8-1.8,0.3-2.1
	c0.7-0.4-0.9,0,1.6-5.8C128.4,127,129.8,127.2,129,127.1"/>
<path class="st3" d="M129,127.1c-0.8,0,1-0.1,1.1,0.3c1,1.9,0,3.1-0.2,3.1c-3,0.7-2.7,2.2-2.6,2.3c0.6,0.2,1.5-0.9,1.7-1.3
	s0.6-0.1,0.7,0.1c0.8,0.8-1.6,2.8-1.6,2.8s0.4,1.8-1,2.1c-1.4,0.3-1.8,0.6-1.8,0.6c0,0.4,2.5-0.4,3.2-0.6c1,1.1-0.3,1.2-0.9,1.6
	c-1.4,0.9-3.1,1.4-4.8,1.5c0,0-4,0.2-4.6-0.2s-0.9-1.3-1.6-1.4s-1.9-1.8-1.9-1.8s0.8-0.3,0.3-0.4c-1-0.3-1.7-2.3-2-4.4
	c-0.2-1.4,0.1-2.8,0.8-3.9c0.4-0.9-0.1-4.4-0.1-4.4s-3-12.7-2.6-13.6c0.2-0.4-1.5-1.8-1.2-2.8s-1.4-2-1.4-3.1
	c0.2-1.8,0.6-3.7,1.1-5.4c0.4-1.2-0.9-3.7-0.9-3.7s-0.2,1.1-0.8,0.9c-0.7-0.2-1.4,0-1.9,0.6c-3.2,3.6-5.1,3.1-6.1,3.5
	c-5.2,1.8-7.6-0.1-7.6-0.1s2.9-5.2,2.9-5.9s2.2-1.9,1.8-2.1C96,90.9,83.3,92.3,82,92.3s-4.1-0.7-5.3-0.8s-16.8-7.5-18.9-8.3
	c-4.9-1.8-15.2-3.6-16.2-3.8c-0.6-0.1-1.1-0.3-1.6-0.6c0,0,6.5-0.2,7.4-0.2c2.9,0.6,5.8,1.3,8.6,2.1c0.9,0.4,4.8,1.2,5.6,1.8
	c5.8,3.3,7.9,3.1,7.8,2.9c0.8,0.1,1.5,0.5,2.1,0.9c0.5,1.3,2.3,1,2.3,1s3,0.7,2.4,1.3s10.7,0.3,10.7,0.3v-0.5l5-0.3l0.3,0.7
	c0,0,8.9-1.9,9.6-1.5s0.2-0.6,0.2-0.6c0.8,0.1,1.5-0.1,2.2-0.4c1.5-0.6-1.3-0.8-1.3-0.8l-3.7,0.1l-0.6-0.2c0,0,0.6,0.4-0.3,0.4
	s-5.5,0.5-6,0.3s1.1-0.7,1.1-0.7l5.3-0.3l2.7-0.6l3.2-0.4c0.7-0.2,1.4-0.3,2.1-0.2c0.8,0.1,0.9,1.2,1.1,1.1c5.7-1.9,8-2.8,8.9-3.2
	c1.4-0.4,2.9-0.7,4.4-0.6c1.8-0.1,0.9,1,0.9,1s-4.3,2.1-5.3,2.8s-3.5,1.8-3.9,2s-0.5,0.1-1.2,0.3s-1.6,2-1.6,2s0.6,0.2,0.6,0.6
	s0.1,1,0.1,1s3.1,5,3.6,7.6c0.1,0.6,0.7,0.2,1.9,1.5c0.3,0.6-0.3,2.1-0.3,2.1l-0.6-0.1l-0.7-0.4l1.3,1.8l0.3,2.6
	c0,0,1.2,1.8,0.4,2.1c-0.3,0,1.1,4.9,0.6,4.9s1.4,3.8,0.6,5.3c-0.2,0.4-1.1-0.4-1.1-0.4c0,1.5,0.2,3.1,0.6,4.6
	c0.2,0.3,0.5,0.3,1.1,0.4s0.6,4.1,0.6,4.1l-0.7,0.2c0,0,1.1,1.7,1.3,2.1s0.7,3.2,0.4,3.6c-0.1,0.2-0.7,0.3-0.5,0.7
	c0.9,1.5-0.4,1.2-0.4,1.2s0.1,0.9,0.4,0.5s3.1,0.3,1.5,2c-0.8,0.6,3.3,0.6,3,0c-1.5-1.6,1.8-2.1,1.8-2.1s-1.8-1.8,0.3-2.1
	c0.7-0.4-0.9,0,1.6-5.8C128.4,127,129.8,127.1,129,127.1z"/>
<path class="st2" d="M127.4,123.9c-0.1-0.1,0.8-1.2,0.8,0.3c1.2,1.6,0.2,1.9,0.2,2.2c-0.2,0.4-0.6,0.6-1,0.4
	c-0.1-0.5-0.2-0.9-0.2-1.4C127.2,124.1,127.3,124.8,127.4,123.9"/>
<path class="st3" d="M127.4,123.9c-0.1-0.1,0.8-1.2,0.8,0.3c1.2,1.6,0.2,1.9,0.2,2.2c-0.2,0.4-0.6,0.6-1,0.4
	c-0.1-0.5-0.2-0.9-0.2-1.4C127.2,124.1,127.3,124.8,127.4,123.9"/>
<path class="st2" d="M129.1,108.4c1-1.5,1.4,0.3,1.4,0.3l-1,2.4v2.8c-0.5,0.7-0.8,1.6-1.1,2.4c-0.1,0.5-0.7,0-0.6-0.3
	c0.2-0.8,0.7-5.1,0.7-5.1l0.7-1.8L129.1,108.4"/>
<path class="st3" d="M129.1,108.4c1-1.5,1.4,0.3,1.4,0.3l-1,2.4v2.8c-0.5,0.7-0.8,1.6-1.1,2.4c-0.1,0.5-0.7,0-0.6-0.3
	c0.2-0.8,0.7-5.1,0.7-5.1l0.7-1.8L129.1,108.4z"/>
<path class="st2" d="M135.1,106.2c0.3-1.2-1.3-0.4-1.4-0.1c-0.8,0.9-1.6,1.7-2.5,2.4c-0.4,0.9-0.6,1.9-0.7,2.8c0.2,0.8,0.9,0,0.9,0
	s0.2-1,0.6-0.6c-0.9,2.7-0.9,3.1-0.8,3.5s0.9,0.4,0.9,0.4c0,0.9-0.3,1.7-0.8,2.4c-0.2,0.2-0.2,0.6,0,0.8c0.1,0.1,0.3,0.2,0.5,0.1
	c0.7-0.1-0.1-0.3,0.5-0.6s0.4-2.9,0.4-2.9s-0.5,0.1-0.4-0.6c0.1-0.5,0.3-0.9,0.5-1.3C133,112.9,134.8,107.5,135.1,106.2"/>
<path class="st3" d="M135.1,106.2c0.3-1.2-1.3-0.4-1.4-0.1c-0.8,0.9-1.6,1.7-2.5,2.4c-0.4,0.9-0.6,1.9-0.7,2.8c0.2,0.8,0.9,0,0.9,0
	s0.2-1,0.6-0.6c-0.9,2.7-0.9,3.1-0.8,3.5s0.9,0.4,0.9,0.4c0,0.9-0.3,1.7-0.8,2.4c-0.2,0.2-0.2,0.6,0,0.8c0.1,0.1,0.3,0.2,0.5,0.1
	c0.7-0.1-0.1-0.3,0.5-0.6s0.4-2.9,0.4-2.9s-0.5,0.1-0.4-0.6c0.1-0.5,0.3-0.9,0.5-1.3C133,112.9,134.8,107.5,135.1,106.2z"/>
<path class="st2" d="M137.4,100.5c-0.1-0.2-1.3,1.9-1.5,1.7c-1.2-1.3-3.2-1.3-4.5-0.1c-0.1,0.1-0.1,0.1-0.2,0.2
	c-0.4,0.4-0.9,3.2-1.9,4.5c0.7,1.3,4.2-0.1,4-1c-0.3-1.1,0.9-0.9,0.9-0.9c0-0.9,0.7-1.6,1.6-1.9c0,0-0.4-0.3,0.6-0.1s1-0.9,1.3-1.3
	C138.4,100.7,137.4,100.6,137.4,100.5"/>
<path class="st3" d="M137.4,100.5c-0.1-0.2-1.3,1.9-1.5,1.7c-1.2-1.3-3.2-1.3-4.5-0.1c-0.1,0.1-0.1,0.1-0.2,0.2
	c-0.4,0.4-0.9,3.2-1.9,4.5c0.7,1.3,4.2-0.1,4-1c-0.3-1.1,0.9-0.9,0.9-0.9c0-0.9,0.7-1.6,1.6-1.9c0,0-0.4-0.3,0.6-0.1s1-0.9,1.3-1.3
	C138.3,100.7,137.4,100.6,137.4,100.5z"/>
<polyline class="st2" points="131.6,118.9 130.7,120 131.3,122.3 131.6,123.2 132.2,119.8 131.6,118.9 "/>
<polygon class="st3" points="131.6,118.9 130.7,120 131.3,122.3 131.6,123.2 132.2,119.8 "/>
<polyline class="st2" points="132.2,130.9 130.2,134.3 130.4,135 131.8,133.2 133.1,131.2 132.2,130.9 "/>
<polygon class="st3" points="132.2,130.9 130.2,134.3 130.4,135 131.8,133.2 133.1,131.2 "/>
<polyline class="st2" points="151.3,84.9 152.6,85.1 153.6,84.9 153.6,84.2 152,84.2 151.3,84.9 "/>
<polygon class="st3" points="151.3,84.9 152.6,85.1 153.6,84.9 153.6,84.2 152,84.2 "/>
<polyline class="st2" points="155.1,84.4 154.9,85.1 156.3,85.1 158.3,85.3 156.5,84.2 155.1,84.4 "/>
<polygon class="st3" points="155.1,84.4 154.9,85.1 156.3,85.1 158.3,85.3 156.5,84.2 "/>
<path class="st4" d="M234.1,30.8l1.2,0.6c0,0-2.7,8-2.5,12.7s0,4.9,0,4.9l-1.1-0.3c0,0-0.4-5.2-1.8-7.2s-3.4-4.2-5.1-3.9
	s-5.3,4.6-1.3,10.7s5.9,6.6,10.6,9c0.6,0.3,0.3,4,0.3,4s3.4,4.2,3.8,5.7s5.3,15.8,1.1,23.2c0,0-2.3,5.2-10,6.9s-9.8,0.3-17.6-7.3
	c0,0-2.6,6.9-5,7.8l-1.1-0.2c0,0,2.5-6.8,2.8-10.3s1-11.7,1-11.7l2.3,0.3c0,0-0.6,4.6,0.4,6.8s2.7,8,6.7,8.8s7.1-0.1,8.8-3.2
	s2.4-7.4-1.6-16s-5.2-10.5-10.2-12.3l-0.1-4.3c0,0-6-6.3-3.8-13.8s6.7-9.7,9.6-10.1s7.7,2.8,9.6,5.9L234.1,30.8z M133.6,3.3L135,4
	c-0.7,1.8-1.3,3.6-1.7,5.5c-0.3,2.2-0.3,6.6-0.3,6.6l-1.5,0.2c0,0-0.6-3.8-1.8-5.7s-2.9-3.1-5.8-1.6c-2.9,1.5-3.1,5.1-3.4,6.3
	s-0.4,12,1.4,16.4s3.7,6.5,4.6,7.1s3.2,0,3.2,0l-0.1-12.9c0.4-0.6,0.3-1.3-0.3-1.7c-0.1,0-0.1-0.1-0.2-0.1c-1.2-0.8-2.7-1.3-4.1-1.3
	c-1.2,0.2,0.5-2.4,3.4-2.6c2.9-0.1,3.8,0.9,5.1,1.3s5.7-0.1,5.7-0.1l0.1,0.9l-3.1,2.6l-0.3,23L131,42c-2.3,1-4.7,1.5-7.2,1.3
	c-3.7-0.3-4-0.9-5.1-1.4c-2.2-1.1-4-3-5-5.3c-1.1-2.9-1.5-10.3-1.5-10.3l-2-2.9l2-4.1c0,0,0.2-8.3,3.1-12c2.1-2.7,5.2-4.2,8.6-4.3
	c2,0,5.4,1.9,7.8,4.3L133.6,3.3z M87.7,44.7v-1.8c0,0,2.2-0.3,2.9-1.5s1-14,1-14l-1.1-1.7L92,24V11.7c-1.8-0.2-3.5,0.8-4.2,2.4
	c-0.9,1.8-1.5,3.7-2,5.7l-1.4-0.6l1.9-9.7l18.9-4l3.5,10l-0.5,1.1l-3.2-5.6c0,0-0.9-1.5-2.2-1.5c-0.9,0-1.9,0.2-2.8,0.5l-0.1,13.4
	l1.5,1.2l-1.6,1.6l0.1,14l4.2,0.6v2.3c0,0-4.6,0-8.1,0.3C93.8,43.6,87.7,44.7,87.7,44.7z M83.3,34.2c0,0-0.5,6.4-3.6,8.6
	c-1.8,1.3-4,1.9-6.2,1.8l-0.1-12.4l1.5-3.1l-1.5-2l0.5-7.8c0,0,0.5-3.1,2.2-4.4c1-0.8,2.1-1.5,3.2-2.1l0.3-1.7c0,0-5.5,0.7-9.2,1.6
	c-3,0.8-5.9,1.8-8.8,3v1.5c0.9-0.3,1.8-0.3,2.6,0.2c1.4,0.8,1.2,1.7,1.4,2.6s0,8.6,0,8.6l-2,3.5l1.7,2.2l0.1,12.8
	c0,1.6-0.6,3.1-1.6,4.3c-0.3,0.3-4.9,2.4-4.8,2.4c-0.9-0.2-1.7-3.4-1.7-3.4l-2.1-9.7l0.5-3.7l-2.1-2c-0.3-0.6-0.6-1.2-0.8-1.8
	c-0.5-1.4-0.4-9.4-0.4-9.4l2.4-2.9l-0.1-2.3l-14,8.4L41,28c0.9,0,1.8,0.1,2.6,0.5c0.6,0.5,0.4,2.8,0.4,2.8s-0.5,12-1,13.4
	c-0.3,1.2-0.8,2.3-1.4,3.4c-0.6,1.1-2,3.1-2,3.1l1.5,1.8l-1,15.4L36.9,72c0,0-1.7-2.9-3-4.8s-3-3.9-3-3.9l0.2-4c0,0-5.8-3.3-8.4-6.7
	s-5-6-3.8-9.7s2.5-3.7,3.1-3.7c1.6,0.2,3.1,1.1,4.1,2.4c1.1,1.7,2,6,2.1,7.2s1.5,1.4,1.5,1.4s0.2-7.1,0.7-9.5s1.4-5.8,1.4-5.8
	l-1.5-0.9l-1.4,5.7c0,0-4.1-6.3-8-6S12,36,10,40.1s-0.7,9.7,0.1,11.7s2.4,5.6,2.6,6.2c0.1,0.9,0.1,1.7,0,2.6L12.4,62l1.4,0.9
	c0,0,6.4,4,7.3,6.3c0,0,7.8,14,5,19.2s-4.2,5.6-9.7,5.2c-4.1-0.3-7.6-13.7-7.7-15.7H6.1c0,0-0.2,9.4-0.8,11.5s-2.8,9.7-2.8,9.7
	l0.6,0.3l5.3-7.5c0,0,3.5,4.8,7.2,6.2s16.9,2.5,20.9-7.6c1.7-4,2.1-8.4,1.3-12.6l8-9.8l-1.5-1.5h-0.9l0.5-15.1l3.1,1.7l2.9-3.8
	l1.2,8l-2,4.1l0.5,2c0,0,10-7.2,18.5-10.5S85,46.9,85,46.9L85,34.1L83.3,34.2z M47.6,48l-2.9-0.3v-0.5L47.4,33l2.4,11.2L47.6,48z"/>
<path class="st5" d="M138.5,7.7L138.5,7.7C138.5,7.6,138.5,7.7,138.5,7.7z"/>
<path class="st4" d="M208.3,54.3c-0.9-1.9-1.4-4-1.5-6.2c0-1,0.1-2,0.3-2.9c-10.6-6-9.6-10-10.2-12c-0.4-2,0.4-4.1,2-5.4
	c1.2-0.8,2.6,0.6,4.4,2.2s3,7.1,3,7.1s1.8,0.3,1.9-0.3s1.2-11,1.2-11l-1.4-0.2l-1.4,3.5c-1-1.5-2.1-2.8-3.5-3.9
	c-2.3-1.9-4.8-1.7-7.7-1c-3.3,0.7-5.7,3.5-5.9,6.9c-0.2,3.3,0.6,6.7,2.2,9.6c0.5,1.1,0.3,2.3-0.5,3.2c4.4,2.2,5.2,3.7,7.9,8.3
	c1.8,3.1,2.1,6.9,1,10.3c-0.4,1.2-1.4,2.2-2.6,2.4c-1,0.1-1.9-0.2-2.6-0.9c-4-1.7-4.7-12.6-4.7-12.6l-2.9,0.1V54c0,0,0.4,2-0.3,2.8
	s-0.5,1.1-1.7,0.3c-0.8-0.6-1.3-1.4-1.5-2.3L183.3,43l0.6-2.4l-1.1-1.1c0,0-1.4-18-1.1-19.1s1.1-0.8,1.1-0.8l1.1-0.2l-0.1-1.6
	c-1.7-1.2-3.4-2.2-5.2-3.1c-1.8-0.8-7.1-2.2-7.1-2.2l-0.5,1.7c0,0,1.7,0.9,2.8,1.6c1.1,0.6,0.1,1.7,0.1,1.7l-4.6,17.2l-2.3,2.8
	l1.1,1.2c-0.2,1.8-0.6,3.6-1.3,5.4c-0.9,2.4-2.2,2.8-3.1,2.9s-2.3,0.6-1.5-0.6s1.1-6.3,1.1-6.3l-2-0.2c0,0,0,2.9-1.3,2.9
	s-0.8-0.8-0.9-1.7s0-6.8-0.6-8.6c-0.6-1.4-1.6-2.6-2.9-3.4c0,0,1.5-0.9,3.5-2.1s2.9-3.4,3-6.9s-0.8-5.4-2.3-7.2s-4.7-2.9-8-4.2
	s-13.4-3-13.4-3l-0.2,2c0.4,0,0.8,0.1,1.2,0.2c0.8,0.1,1.5,0.6,1.8,1.4l-0.1,15.5l-1.2,1.7l1.4,1.2l-0.1,12.4l-3.5,1.6l-0.2,2.1
	c2.5,0,4.9,0.2,7.4,0.5c2.2,0.5,4.4,1.1,6.6,1.9l0.2-1.7c-0.8-0.5-1.5-1-2.1-1.6c-0.7-0.8-1.2-1.8-1.4-2.9c0,0,0.1-9.5,0.5-9.5
	c1,0,1.9,0.4,2.6,1.1c1.1,0.9,0.9,3.4,0.9,3.4s0.4,9.4,0.7,10.6s2.1,3.7,4.3,4c1.3,0.1,2.6-0.4,3.4-1.5l0.8,0.2l0.3,1.7
	c0,0,2.1,0.6,4,1.3c1.7,0.8,3.4,1.8,4.9,2.9c0,0,0.5-2.6,0-3.1c-0.7-0.7-1.3-1.5-1.5-2.5c-0.3-1.2,0.6-6.8,0.6-6.8l2.8,2l4-1.2
	c0,0,0.6,8.8-0.1,9.7s-2.5,0.4-2.5,0.4v1.7l12.1,6.4l-1.6,6.3c0,0,0.6,0.6,1.2,0.3s3.3-6.3,3.3-6.3c1.8,5.5,6.1,8.5,11.5,8.2
	s7.1-4.3,8.3-6.7S209.1,55.5,208.3,54.3z M149.2,27.9l0.6-16.7c0,0,6.3,0.7,6.1,8.7S149.2,27.9,149.2,27.9z M173.2,40.5l-1.5-1.2
	l3.8-12l0.4,13L173.2,40.5z"/>
<path class="st2" d="M81.9,32.1c0,0-0.5,6.4-3.6,8.6c-1.8,1.3-4,1.9-6.2,1.8L72,30l1.6-3.1l-1.5-2l0.5-7.8c0,0,0.5-3.1,2.2-4.4
	c1-0.8,2.1-1.5,3.2-2.1l0.3-1.7c0,0-5.5,0.7-9.2,1.7c-3,0.8-5.9,1.8-8.8,3v1.5c0.8-0.4,1.8-0.3,2.6,0.2c1.4,0.8,1.2,1.7,1.4,2.6
	s0,8.6,0,8.6l-2,3.5l1.7,2.2l0,12.7c0,1.6-0.6,3.1-1.6,4.3c-1.5,1.7-2.2,2.9-4.8,2.4c-0.9-0.2-1.7-3.4-1.7-3.4l-2.1-9.7l0.5-3.6
	l-2.1-2c-0.3-0.6-0.6-1.2-0.8-1.8c-0.5-1.4-0.4-9.4-0.4-9.4l2.5-2.9l-0.1-2.3l-14,8.4l0.1,1.1c0.9,0,1.8,0.1,2.6,0.5
	c0.6,0.5,0.4,2.8,0.4,2.8s-0.5,12-1,13.4c-0.3,1.2-0.8,2.3-1.4,3.4c-0.6,1.1-2,3.1-2,3.1l1.5,1.8l-1,15.4l-3.3,3.8
	c0,0-1.7-2.9-3-4.8c-1.3-1.9-3.1-3.8-3.1-3.8l0.2-4c0,0-5.8-3.3-8.4-6.7s-5-6-3.8-9.7s2.5-3.7,3.1-3.7c1.6,0.2,3.1,1,4.1,2.3
	c1.1,1.7,2,6,2.1,7.2s1.5,1.4,1.5,1.4s0.2-7.1,0.7-9.5s1.4-5.9,1.4-5.9l-1.5-0.9l-1.4,5.7c0,0-4.1-6.3-8-6S10.6,33.9,8.6,38
	s-0.7,9.7,0.1,11.7s2.4,5.6,2.6,6.2c0.1,0.9,0.1,1.7,0,2.6l-0.3,1.4l1.4,0.9c0,0,6.4,4,7.3,6.3c0,0,7.8,14,5,19.2s-4.2,5.6-9.7,5.2
	c-4.1-0.3-7.6-13.7-7.8-15.7H4.7c0,0-0.2,9.4-0.8,11.5L1,96.9l0.6,0.3l5.3-7.5c0,0,3.5,4.8,7.2,6.2s16.9,2.5,21-7.6
	c1.7-4,2.1-8.4,1.3-12.6l8-9.8l-1.5-1.5h-0.9l0.5-15.1l3.1,1.7l2.9-3.8l1.2,8l-2,4.1l0.5,2c0,0,10-7.2,18.5-10.5s16.9-6.2,16.9-6.2
	L83.5,32L81.9,32.1 M46.2,45.9l-2.9-0.3v-0.5l2.7-14.3L48.3,42L46.2,45.9z"/>
<path class="st4" d="M81.9,32.1c0,0-0.5,6.4-3.6,8.6c-1.8,1.3-4,1.9-6.2,1.8L72,30l1.6-3.1l-1.5-2l0.5-7.8c0,0,0.5-3.1,2.2-4.4
	c1-0.8,2.1-1.5,3.2-2.1l0.3-1.7c0,0-5.5,0.7-9.2,1.7c-3,0.8-5.9,1.8-8.8,3v1.5c0.8-0.4,1.8-0.3,2.6,0.2c1.4,0.8,1.2,1.7,1.4,2.6
	s0,8.6,0,8.6l-2,3.5l1.7,2.2l0,12.7c0,1.6-0.6,3.1-1.6,4.3c-1.5,1.7-2.2,2.9-4.8,2.4c-0.9-0.2-1.7-3.4-1.7-3.4l-2.1-9.7l0.5-3.6
	l-2.1-2c-0.3-0.6-0.6-1.2-0.8-1.8c-0.5-1.4-0.4-9.4-0.4-9.4l2.5-2.9l-0.1-2.3l-14,8.4l0.1,1.1c0.9,0,1.8,0.1,2.6,0.5
	c0.6,0.5,0.4,2.8,0.4,2.8s-0.5,12-1,13.4c-0.3,1.2-0.8,2.3-1.4,3.4c-0.6,1.1-2,3.1-2,3.1l1.5,1.8l-1,15.4l-3.3,3.8
	c0,0-1.7-2.9-3-4.8c-1.3-1.9-3.1-3.8-3.1-3.8l0.2-4c0,0-5.8-3.3-8.4-6.7s-5-6-3.8-9.7s2.5-3.7,3.1-3.7c1.6,0.2,3.1,1,4.1,2.3
	c1.1,1.7,2,6,2.1,7.2s1.5,1.4,1.5,1.4s0.2-7.1,0.7-9.5s1.4-5.9,1.4-5.9l-1.5-0.9l-1.4,5.7c0,0-4.1-6.3-8-6S10.6,33.9,8.6,38
	s-0.7,9.7,0.1,11.7s2.4,5.6,2.6,6.2c0.1,0.9,0.1,1.7,0,2.6l-0.3,1.4l1.4,0.9c0,0,6.4,4,7.3,6.3c0,0,7.8,14,5,19.2s-4.2,5.6-9.7,5.2
	c-4.1-0.3-7.6-13.7-7.8-15.7H4.7c0,0-0.2,9.4-0.8,11.5L1,96.9l0.6,0.3l5.3-7.5c0,0,3.5,4.8,7.2,6.2s16.9,2.5,21-7.6
	c1.7-4,2.1-8.4,1.3-12.6l8-9.8l-1.5-1.5h-0.9l0.5-15.1l3.1,1.7l2.9-3.8l1.2,8l-2,4.1l0.5,2c0,0,10-7.2,18.5-10.5s16.9-6.2,16.9-6.2
	L83.5,32L81.9,32.1z M46.2,45.9l-2.9-0.3v-0.5l2.7-14.3L48.3,42L46.2,45.9z"/>
<path class="st2" d="M86.3,42.6v-1.8c0,0,2.2-0.3,2.9-1.5s1-14,1-14l-1.1-1.7l1.4-1.6l0.1-12.3c-1.8-0.2-3.5,0.8-4.2,2.4
	c-0.9,1.8-1.5,3.7-2,5.7L83,17l1.9-9.7l18.9-4l3.5,10l-0.5,1.1l-3.2-5.6c0,0-0.9-1.5-2.2-1.5c-0.9,0-1.9,0.2-2.8,0.5l-0.1,13.4
	l1.5,1.2L98.5,24l0.1,14l4.1,0.6V41c0,0-4.6,0-8.2,0.3C92.4,41.4,86.3,42.6,86.3,42.6"/>
<path class="st4" d="M86.3,42.6v-1.8c0,0,2.2-0.3,2.9-1.5s1-14,1-14l-1.1-1.7l1.4-1.6l0.1-12.3c-1.8-0.2-3.5,0.8-4.2,2.4
	c-0.9,1.8-1.5,3.7-2,5.7L83,17l1.9-9.7l18.9-4l3.5,10l-0.5,1.1l-3.2-5.6c0,0-0.9-1.5-2.2-1.5c-0.9,0-1.9,0.2-2.8,0.5l-0.1,13.4
	l1.5,1.2L98.5,24l0.1,14l4.1,0.6V41c0,0-4.6,0-8.2,0.3C92.4,41.4,86.3,42.6,86.3,42.6z"/>
<path class="st2" d="M132.2,1.2l1.4,0.6c-0.7,1.8-1.3,3.6-1.7,5.5c-0.3,2.2-0.4,6.6-0.4,6.6l-1.5,0.2c0,0-0.6-3.8-1.8-5.7
	c-1.2-1.9-2.9-3.1-5.8-1.6s-3.1,5-3.4,6.3s-0.4,12,1.4,16.5s3.7,6.5,4.6,7.1c0.9,0.6,3.2,0,3.2,0L128,23.7c0.4-0.6,0.3-1.3-0.3-1.7
	c-0.1,0-0.1-0.1-0.2-0.1c-1.2-0.8-2.7-1.3-4.1-1.3c-1.2,0.2,0.5-2.4,3.4-2.6s3.8,0.9,5.1,1.3s5.7-0.1,5.7-0.1l0.1,0.9l-3.1,2.6
	l-0.3,23l-4.9-5.8c-2.3,1-4.7,1.5-7.2,1.3c-3.7-0.3-4-1-5.1-1.4c-2.2-1.1-4-3-5-5.3c-1.1-2.9-1.5-10.3-1.5-10.3l-2-2.9l2-4.1
	c0,0,0.2-8.3,3.1-12c2.1-2.7,5.2-4.2,8.6-4.3c2,0,5.4,1.9,7.8,4.3L132.2,1.2"/>
<path class="st4" d="M132.2,1.2l1.4,0.6c-0.7,1.8-1.3,3.6-1.7,5.5c-0.3,2.2-0.4,6.6-0.4,6.6l-1.5,0.2c0,0-0.6-3.8-1.8-5.7
	c-1.2-1.9-2.9-3.1-5.8-1.6s-3.1,5-3.4,6.3s-0.4,12,1.4,16.5s3.7,6.5,4.6,7.1c0.9,0.6,3.2,0,3.2,0L128,23.7c0.4-0.6,0.3-1.3-0.3-1.7
	c-0.1,0-0.1-0.1-0.2-0.1c-1.2-0.8-2.7-1.3-4.1-1.3c-1.2,0.2,0.5-2.4,3.4-2.6s3.8,0.9,5.1,1.3s5.7-0.1,5.7-0.1l0.1,0.9l-3.1,2.6
	l-0.3,23l-4.9-5.8c-2.3,1-4.7,1.5-7.2,1.3c-3.7-0.3-4-1-5.1-1.4c-2.2-1.1-4-3-5-5.3c-1.1-2.9-1.5-10.3-1.5-10.3l-2-2.9l2-4.1
	c0,0,0.2-8.3,3.1-12c2.1-2.7,5.2-4.2,8.6-4.3c2,0,5.4,1.9,7.8,4.3L132.2,1.2z"/>
<path class="st6" d="M137,5.5L137,5.5C137,5.5,137,5.5,137,5.5"/>
<path class="st2" d="M206.9,52.1c-0.9-1.9-1.4-4-1.5-6.2c0-1,0.1-2,0.3-2.9c-10.6-6-9.6-10-10.2-12c-0.4-2,0.4-4.1,2-5.4
	c1.2-0.8,2.6,0.6,4.4,2.2s3,7.1,3,7.1s1.8,0.3,1.9-0.3s1.1-10.9,1.1-10.9l-1.4-0.2l-1.4,3.5c-1-1.5-2.1-2.8-3.5-3.9
	c-2.3-1.9-4.8-1.7-7.7-1c-3.3,0.7-5.7,3.5-5.9,6.9c-0.1,3.3,0.6,6.6,2.3,9.5c0.5,1.1,0.3,2.3-0.5,3.2c4.4,2.2,5.2,3.7,7.9,8.3
	c1.8,3.1,2.1,6.9,1,10.3c-0.4,1.2-1.4,2.2-2.6,2.4c-1,0.1-1.9-0.2-2.6-0.9c-4-1.7-4.7-12.6-4.7-12.6l-2.9,0.1v2.3c0,0,0.4,2-0.3,2.8
	s-0.5,1.1-1.7,0.3c-0.8-0.6-1.3-1.4-1.5-2.3l-0.6-11.8l0.6-2.5l-1.1-1.1c0,0-1.4-18-1.1-19.1s1.1-0.8,1.1-0.8l1.1-0.2l-0.1-1.5
	c-1.7-1.2-3.4-2.2-5.2-3.1c-1.8-0.8-7.1-2.2-7.1-2.2l-0.5,1.7c0,0,1.7,0.9,2.8,1.6s0.1,1.7,0.1,1.7l-4.5,17.2l-2.3,2.8l1.1,1.2
	c-0.2,1.8-0.6,3.6-1.3,5.4c-0.9,2.4-2.2,2.8-3.1,2.9s-2.3,0.6-1.5-0.6s1.1-6.3,1.1-6.3l-2-0.2c0,0,0,2.9-1.2,2.9s-0.8-0.8-0.9-1.7
	s0-6.8-0.6-8.6c-0.6-1.4-1.6-2.6-2.9-3.4c0,0,1.5-0.9,3.6-2.1s2.9-3.4,3-6.9s-0.8-5.4-2.3-7.2s-4.7-3-8-4.2s-13.4-3-13.4-3l-0.2,2
	c0.4,0,0.8,0.1,1.2,0.2c0.8,0.1,1.5,0.6,1.8,1.4L140,22.6l-1.2,1.7l1.4,1.2l-0.1,12.4l-3.5,1.7l-0.2,2.2c2.5,0,4.9,0.2,7.4,0.5
	c2.2,0.5,4.4,1.1,6.6,1.9l0.2-1.7c-0.8-0.5-1.5-1-2.1-1.6c-0.7-0.8-1.2-1.8-1.4-2.9c0,0,0.1-9.5,0.5-9.5c1,0,1.9,0.4,2.6,1.1
	c1.1,0.9,0.9,3.4,0.9,3.4s0.4,9.4,0.7,10.6s2.1,3.7,4.3,4c1.3,0.1,2.6-0.4,3.4-1.5l0.8,0.2l0.3,1.7c0,0,2.1,0.6,4,1.3
	c1.7,0.8,3.4,1.8,4.9,2.9c0,0,0.5-2.6,0-3.1c-0.7-0.7-1.3-1.5-1.5-2.5c-0.3-1.2,0.6-6.8,0.6-6.8l2.8,2l4-1.2c0,0,0.6,8.8-0.1,9.7
	s-2.5,0.4-2.5,0.4v1.7l12.1,6.4l-1.6,6.3c0,0,0.6,0.6,1.2,0.3s3.3-6.3,3.3-6.3c1.8,5.5,6.1,8.5,11.5,8.2s7.1-4.3,8.3-6.7
	S207.6,53.3,206.9,52.1 M147.7,25.7l0.6-16.8c0,0,6.3,0.8,6.1,8.7S147.7,25.7,147.7,25.7z M171.7,38.3l-1.5-1.2l3.8-12l0.4,13
	L171.7,38.3z"/>
<path class="st4" d="M206.9,52.1c-0.9-1.9-1.4-4-1.5-6.2c0-1,0.1-2,0.3-2.9c-10.6-6-9.6-10-10.2-12c-0.4-2,0.4-4.1,2-5.4
	c1.2-0.8,2.6,0.6,4.4,2.2s3,7.1,3,7.1s1.8,0.3,1.9-0.3s1.1-10.9,1.1-10.9l-1.4-0.2l-1.4,3.5c-1-1.5-2.1-2.8-3.5-3.9
	c-2.3-1.9-4.8-1.7-7.7-1c-3.3,0.7-5.7,3.5-5.9,6.9c-0.1,3.3,0.6,6.6,2.3,9.5c0.5,1.1,0.3,2.3-0.5,3.2c4.4,2.2,5.2,3.7,7.9,8.3
	c1.8,3.1,2.1,6.9,1,10.3c-0.4,1.2-1.4,2.2-2.6,2.4c-1,0.1-1.9-0.2-2.6-0.9c-4-1.7-4.7-12.6-4.7-12.6l-2.9,0.1v2.3c0,0,0.4,2-0.3,2.8
	s-0.5,1.1-1.7,0.3c-0.8-0.6-1.3-1.4-1.5-2.3l-0.6-11.8l0.6-2.5l-1.1-1.1c0,0-1.4-18-1.1-19.1s1.1-0.8,1.1-0.8l1.1-0.2l-0.1-1.5
	c-1.7-1.2-3.4-2.2-5.2-3.1c-1.8-0.8-7.1-2.2-7.1-2.2l-0.5,1.7c0,0,1.7,0.9,2.8,1.6s0.1,1.7,0.1,1.7l-4.5,17.2l-2.3,2.8l1.1,1.2
	c-0.2,1.8-0.6,3.6-1.3,5.4c-0.9,2.4-2.2,2.8-3.1,2.9s-2.3,0.6-1.5-0.6s1.1-6.3,1.1-6.3l-2-0.2c0,0,0,2.9-1.2,2.9s-0.8-0.8-0.9-1.7
	s0-6.8-0.6-8.6c-0.6-1.4-1.6-2.6-2.9-3.4c0,0,1.5-0.9,3.6-2.1s2.9-3.4,3-6.9s-0.8-5.4-2.3-7.2s-4.7-3-8-4.2s-13.4-3-13.4-3l-0.2,2
	c0.4,0,0.8,0.1,1.2,0.2c0.8,0.1,1.5,0.6,1.8,1.4L140,22.6l-1.2,1.7l1.4,1.2l-0.1,12.4l-3.5,1.7l-0.2,2.2c2.5,0,4.9,0.2,7.4,0.5
	c2.2,0.5,4.4,1.1,6.6,1.9l0.2-1.7c-0.8-0.5-1.5-1-2.1-1.6c-0.7-0.8-1.2-1.8-1.4-2.9c0,0,0.1-9.5,0.5-9.5c1,0,1.9,0.4,2.6,1.1
	c1.1,0.9,0.9,3.4,0.9,3.4s0.4,9.4,0.7,10.6s2.1,3.7,4.3,4c1.3,0.1,2.6-0.4,3.4-1.5l0.8,0.2l0.3,1.7c0,0,2.1,0.6,4,1.3
	c1.7,0.8,3.4,1.8,4.9,2.9c0,0,0.5-2.6,0-3.1c-0.7-0.7-1.3-1.5-1.5-2.5c-0.3-1.2,0.6-6.8,0.6-6.8l2.8,2l4-1.2c0,0,0.6,8.8-0.1,9.7
	s-2.5,0.4-2.5,0.4v1.7l12.1,6.4l-1.6,6.3c0,0,0.6,0.6,1.2,0.3s3.3-6.3,3.3-6.3c1.8,5.5,6.1,8.5,11.5,8.2s7.1-4.3,8.3-6.7
	S207.6,53.4,206.9,52.1z M147.7,25.7l0.6-16.8c0,0,6.3,0.8,6.1,8.7S147.7,25.7,147.7,25.7z M171.7,38.3l-1.5-1.2l3.8-12l0.4,13
	L171.7,38.3z"/>
<path class="st2" d="M232.7,28.6l1.2,0.6c0,0-2.6,8-2.5,12.7s0,4.9,0,4.9l-1.1-0.3c0,0-0.4-5.2-1.8-7.2s-3.4-4.2-5.1-3.9
	s-5.2,4.6-1.3,10.8s5.9,6.6,10.6,9c0.6,0.3,0.3,4,0.3,4s3.4,4.2,3.8,5.7s5.3,15.9,1.1,23.2c0,0-2.3,5.2-10,6.9s-9.8,0.3-17.6-7.3
	c0,0-2.6,6.9-5,7.8l-1.1-0.2c0,0,2.5-6.7,2.8-10.3s1-11.7,1-11.7l2.3,0.3c0,0-0.6,4.6,0.4,6.8s2.7,8,6.7,8.8s7.1-0.1,8.8-3.2
	s2.4-7.4-1.6-16s-5.2-10.5-10.2-12.3l-0.1-4.3c0,0-6-6.3-3.8-13.8s6.7-9.6,9.6-10.1s7.7,2.8,9.6,5.9L232.7,28.6"/>
<path class="st4" d="M232.7,28.6l1.2,0.6c0,0-2.6,8-2.5,12.7s0,4.9,0,4.9l-1.1-0.3c0,0-0.4-5.2-1.8-7.2s-3.4-4.2-5.1-3.9
	s-5.2,4.6-1.3,10.8s5.9,6.6,10.6,9c0.6,0.3,0.3,4,0.3,4s3.4,4.2,3.8,5.7s5.3,15.9,1.1,23.2c0,0-2.3,5.2-10,6.9s-9.8,0.3-17.6-7.3
	c0,0-2.6,6.9-5,7.8l-1.1-0.2c0,0,2.5-6.7,2.8-10.3s1-11.7,1-11.7l2.3,0.3c0,0-0.6,4.6,0.4,6.8s2.7,8,6.7,8.8s7.1-0.1,8.8-3.2
	s2.4-7.4-1.6-16s-5.2-10.5-10.2-12.3l-0.1-4.3c0,0-6-6.3-3.8-13.8s6.7-9.6,9.6-10.1s7.7,2.8,9.6,5.9L232.7,28.6z"/>
<path class="st0" d="M233.5,100.2c0-1.7,1.3-3,3-3s3,1.3,3,3s-1.3,3-3,3S233.5,101.9,233.5,100.2 M236.5,102.7
	c1.4,0,2.5-1.1,2.5-2.4c0-1.4-1.1-2.5-2.4-2.5c-1.4,0-2.5,1.1-2.5,2.4c0,0,0,0,0,0c0,1.3,1,2.4,2.3,2.5
	C236.5,102.7,236.5,102.7,236.5,102.7L236.5,102.7z M235.9,101.9h-0.5v-3.4h1.3c0.8,0,1.2,0.3,1.2,1c0,0.5-0.4,0.9-0.8,0.9
	c0,0,0,0,0,0l1,1.5h-0.6l-0.9-1.5h-0.6L235.9,101.9z M236.5,100c0.4,0,0.8,0,0.8-0.6s-0.4-0.5-0.8-0.5h-0.7v1.1H236.5L236.5,100z"/>
</svg>
