<?xml version="1.0" encoding="utf-8"?>
<!-- Generator: Adobe Illustrator 21.1.0, SVG Export Plug-In . SVG Version: 6.00 Build 0)  -->
<svg version="1.1" id="Layer_1" xmlns="http://www.w3.org/2000/svg" xmlns:xlink="http://www.w3.org/1999/xlink" x="0px" y="0px"
	 viewBox="0 0 236 84.9" style="enable-background:new 0 0 236 84.9;" xml:space="preserve">
<style type="text/css">
	.st0{fill:#DA0710;}
</style>
<title>Fast Food</title>
<path class="st0" d="M220.8,29.7c0.3,0.7,0.4,1.4,0.3,2.1c0,13.3,0,26.7,0,40c0,4.1-2.3,6.4-6.4,6.4c-15.5,0-31,0-46.5,0
	c-2.5,0-4.5-0.8-5.8-3.1c-0.5-1-0.8-2.2-0.8-3.4c0-15.6,0-31.1,0-46.7c0-4.1,2.4-6.4,6.5-6.4c12.9,0,25.8,0,38.7,0
	c1.2,0.1,2.3-0.5,3-1.5c4-5.3,8.2-10.5,12.2-15.8c0.8-1,1.4-1.5,2.5-0.4c0.3,0.3,0.6,0.5,0.9,0.7c0.9,0.5,0.8,1.1,0.1,1.8
	c-10.2,12.3-20.4,24.5-30.6,36.8l-19.6,23.7l-1,1.2c-0.3,0.4-0.6,0.7-1.1,0.3s-0.3-0.8,0-1.2l4.6-5.9c1-1.3,2-2.6,3-3.8
	c0.5-0.7,0.5-1.1-0.5-1.1h-14.1c-0.8,0-1,0.4-1,1.1c0,5.8,0,11.6,0,17.4c0,1.8,0.9,2.5,2.6,2.5c9.1,0,18.2,0,27.4,0
	c1.1,0,1.4-0.4,1.4-1.5c0-5,0-10,0-15c0-0.8,0.3-1.6,0.8-2.3c1.5-1.7,3-3.4,4.5-5.1c0.5-0.6,1.3-0.9,2.1-0.9c3.9,0,7.9,0,11.8,0
	c1.2,0,1.7-0.3,1.7-1.6c-0.1-4.3,0.1-8.5,0-12.8c-0.1-1.4,0.4-2.9,1.5-3.8C219.5,31.2,220.1,30.5,220.8,29.7z M181.5,36.2
	L181.5,36.2c0-4.2,0-8.3,0-12.5c0-1-0.3-1.3-1.3-1.3c-4.1,0-8.2,0-12.4,0c-1.9,0-2.8,0.9-2.8,2.7c0,7.8,0,15.5,0,23.3
	c0,1.2,0.4,1.5,1.6,1.5c4.4,0,8.7-0.1,13,0c1.5,0,1.8-0.5,1.8-1.9C181.5,44.2,181.5,40.2,181.5,36.2L181.5,36.2z M217.5,63.6
	L217.5,63.6c0-2.8,0-5.6,0-8.3c0-1.2-0.3-1.6-1.6-1.6c-4.8,0.1-9.5,0-14.3,0c-1.1,0-1.5,0.3-1.4,1.4c0,6,0,12,0,18
	c0,1.2,0.4,1.6,1.6,1.6c4.3-0.1,8.5,0,12.8,0c2.2,0,2.9-0.7,3-2.9C217.5,69,217.5,66.3,217.5,63.6z M185.5,48.7l20.1-25.9
	c-0.5-0.3-1-0.4-1.6-0.3c-5.8,0-11.6,0-17.4,0c-1.4,0-1.6,0.5-1.6,1.7c0,7.5,0,15.1,0,22.6C185.1,47.5,185.2,48.1,185.5,48.7z"/>
<path class="st0" d="M0.6,45.4c0-0.9,0-1.8,0-2.6c0-0.5-0.2-1.3,0.2-1.6s1,0.3,1.5,0.5c2.1,1.3,4.4,2.4,6.8,3.1
	c3.5,0.8,7,1.2,10.5-0.1c1.8-0.5,3-2,3.2-3.8c0.2-1.9-0.9-3.7-2.6-4.5c-2.2-1.1-4.5-1.9-6.9-2.4c-2.1-0.6-4.1-1.3-6.1-2.2
	c-5.8-2.8-7.3-8-5.8-13.6c1.4-5.2,5.1-7.9,10.2-8.9c5.6-1.1,11.3-0.2,16.4,2.3c0.7,0.3,1.1,1,1,1.7c0,2,0,4,0,6
	c0,1.6-0.1,1.7-1.5,0.9c-3.1-1.7-6.3-3.1-9.9-3.3c-1.6-0.1-3.2,0-4.8,0.4c-0.6,0.2-1.1,0.4-1.7,0.7c-1.4,0.7-2.2,2.2-2.1,3.8
	c0,1.6,1,2.4,2.3,3c3,1.4,6.2,1.9,9.2,3s5.8,2.4,7.9,5c4.3,5.4,3.5,13.2-1.9,17.6c-1.4,1.2-3.1,2-5,2.4c-6.7,1.7-13.7,0.9-19.9-2.3
	c-0.7-0.2-1.2-1-1.1-1.7C0.6,47.6,0.6,46.5,0.6,45.4z"/>
<path class="st0" d="M89.2,30.5c0-7,0-14,0-21c0-1.9,0-1.9,1.8-1.9c1.6,0,3.2,0.1,4.9,0c1.2-0.1,1.5,0.4,1.5,1.5
	c-0.1,6-0.1,12,0,17.9c0,0.7-0.4,1.8,0.5,2.1s1.3-0.6,1.8-1c2.9-2.5,5.5-5.3,7.7-8.3c0.5-0.7,1.3-1.1,2.2-1.1c2.7,0.1,5.5,0,8.2,0
	c0.4,0,0.8-0.2,1,0.2s-0.2,0.8-0.5,1.1c-3.7,5-8,9.6-12.8,13.6c-0.9,0.8-1,1.1,0,1.9c5.6,4.3,10.3,9.6,14.1,15.6
	c0.2,0.2,0.3,0.5,0.4,0.7c0.7,1,0.3,1.2-0.7,1.2c-2.7,0-5.4-0.1-8.1,0c-0.9,0.1-1.7-0.4-2.1-1.2c-1.9-3.3-4.3-6.4-7.1-9
	c-0.4-0.4-0.9-0.8-1.4-1.2c-0.6-0.5-1.3-0.9-2.2-0.5c-0.8,0.4-1.2,1.2-1.1,2.1c0,2.6,0,5.3,0,7.9c0,1.8,0,1.8-1.8,1.8s-3.3-0.1-5,0
	c-1,0-1.3-0.3-1.3-1.3C89.3,44.5,89.3,37.5,89.2,30.5L89.2,30.5z"/>
<path class="st0" d="M62.9,37.7c0.1,2.2,0,4.3-0.2,6.5c-0.3,3.1-2.2,5.7-5,7.1c-5.9,3.1-13.1,3-18.9-0.4c-3.8-2.1-5.1-5.7-4.8-9.9
	c0.1-3.8,2.3-7.2,5.8-8.8c4-2.1,8.4-2.4,12.8-2.3c0.5,0,1.3,0.3,1.5-0.2s-0.3-1.1-0.7-1.6c-1.3-1.6-3.2-2.4-5.3-2.4
	c-3.3,0-6.5,0.6-9.6,1.7C37,28,37,27.9,37,26.3s0-3.2,0-4.9c0-0.6,0.1-1,0.7-1.2c5.3-1.8,10.6-2.7,16.1-1.1
	c5.9,1.7,9.1,6.4,9.2,12.9C63,33.7,62.9,35.5,62.9,37.7z M50.5,37.7c-1.9,0-3.9,0.3-5.7,0.9c-2,0.8-2.8,1.9-2.7,3.6s1.1,2.6,3.1,3.1
	c2,0.5,4,0.6,6,0.2c2.9-0.5,3.8-1.6,3.8-4.6c0-0.6,0-1.2,0-1.8c0-0.8-0.3-1.2-1.1-1.2C52.9,37.8,51.9,37.7,50.5,37.7L50.5,37.7z"/>
<path class="st0" d="M151.4,30.2c0,3.1,0.1,6.2,0,9.3c-0.2,5.1-1.9,9.4-6.6,12.1c-5.2,3.1-13.9,2.4-18.3-1.6
	c-2.8-2.6-4.4-6.3-4.3-10.2c-0.1-6.4,0-12.8,0-19.2c0-1.3,0.3-1.9,1.8-1.8c1.6,0.1,3.2,0.1,4.9,0c1.1-0.1,1.4,0.4,1.4,1.4
	c0,5.9,0,11.8,0,17.8c0,0.6,0,1.2,0.1,1.8c0.2,2.2,0.7,4.3,3,5.2c2.6,1.2,5.6,1,8-0.5c1.4-0.9,1.7-2.3,2-3.8
	c0.2-1.8,0.3-3.7,0.2-5.5c0-5,0-9.9,0-14.9c0-1,0.2-1.5,1.4-1.4c1.7,0.1,3.3,0.1,5,0c1.2-0.1,1.6,0.3,1.6,1.6c-0.1,3.3,0,6.6,0,9.8
	L151.4,30.2z"/>
<path class="st0" d="M67.2,35.9c0-5.2,0-10.4,0-15.7c0-1.1,0.3-1.5,1.4-1.4c1.7,0.1,3.4,0.1,5.1,0c1.2-0.1,1.6,0.4,1.6,1.6
	c-0.1,1.6,0,1.6,1.4,0.8c2.6-1.4,5.3-2.4,8.2-3c0.9-0.2,1.2,0.1,1.2,0.9c0,1.7-0.1,3.4,0,5.1c0.2,0.9-0.4,1.8-1.3,2
	c-0.1,0-0.1,0-0.2,0c-2.7,0.6-5.1,2.1-6.8,4.2c-1.7,2.2-2.6,4.9-2.5,7.6c0,4.5,0,9,0,13.5c0,1.1-0.3,1.5-1.4,1.4
	c-1.7-0.1-3.3-0.1-5,0c-1.2,0.1-1.7-0.3-1.7-1.6C67.2,46.2,67.1,41,67.2,35.9L67.2,35.9z"/>
<path class="st0" d="M211.6,22.5c0.6-0.8,0.9-1.2,1.2-1.7c2-2.5,4.9-2.4,6.9,0.1c1.2,1.5,1.2,1.5,2.5,0c3.3-3.9,6.6-7.8,9.8-11.7
	c0.7-0.8,1.1-0.9,2-0.2c2,1.8,2,1.7,0.3,3.7l-30.2,33.9l-21.6,24.3c-0.3,0.3-0.5,0.5-0.7,0.8s-0.6,0.5-1.1,0.2s-0.3-0.7,0-1.1
	l4.1-4.9c3-3.6,6-7.2,9.1-10.9c0.3-0.3,0.8-0.7,0.6-1.2s-0.8-0.3-1.3-0.3c-2,0-4.1,0-6.1,0c-0.3,0-0.7,0.1-0.8-0.3
	c0-0.2,0.2-0.5,0.3-0.7c1.1-1.8,2.4-3,4.8-2.6c1.8,0.1,3.7,0.2,5.5,0.1c0.7,0,1.4-0.3,1.8-0.8c6.1-7.3,12.1-14.6,18.2-21.9
	c0.8-1,0.9-2.4,0.2-3.6c-0.4-1-1.5-1.5-2.5-1.3C213.7,22.5,212.8,22.5,211.6,22.5z"/>
<path class="st0" d="M107.1,75.5c0-2.1,0-4.3,0-6.4c0-3.4,1.2-5.2,4-6c3.5-0.9,7,0.3,8.3,3.1c1.4,2.9,1.4,6.3,0.1,9.3
	c-1.1,2.5-3.3,3.3-5.9,3.4c-1,0-1.9,0-2.9-0.3c-1.2-0.3-1.5,0.1-1.4,1.2s0,2.1,0,3.2c0,0.8-0.3,1.1-1.1,1.1s-1.1-0.3-1.1-1.1
	C107.1,80.5,107.1,78,107.1,75.5z M109.3,71.7L109.3,71.7c0,1.2,0,2.3,0,3.5c-0.1,0.5,0.2,0.9,0.6,1.1c2.6,1.6,6,0.7,7.5-1.8
	c0.5-0.8,0.7-1.7,0.8-2.6c0.1-0.9,0-1.8-0.1-2.8c-0.3-2.6-2.7-4.5-5.3-4.2c-0.6,0.1-1.1,0.2-1.6,0.5c-1.1,0.4-1.9,1.5-1.9,2.6
	C109.2,69.3,109.3,70.5,109.3,71.7L109.3,71.7z"/>
<path class="st0" d="M135.1,71.5c0,0.7,0,1.4,0,2.1c0,2.9-1.2,4.4-4.1,5.1c-2,0.5-4.2,0.3-6.1-0.5c-1.7-0.6-2.7-2.2-2.7-4
	c-0.2-1.9,0.9-3.6,2.6-4.4c2.1-0.9,4.5-1.2,6.8-0.9c1.2,0.1,1.4-0.3,1-1.3c-0.4-1.4-1.6-2.3-3.1-2.4c-1.5-0.2-3.1,0-4.5,0.4
	c-0.5,0.1-1.1,0.4-1.2-0.3s-0.3-1.4,0.7-1.7c2.3-0.7,4.7-0.8,7-0.1c2.3,0.7,3.5,2.5,3.6,5.4C135.1,69.6,135.1,70.5,135.1,71.5
	L135.1,71.5z M129.9,70.9c-1.3-0.1-2.6,0.2-3.8,0.6c-1.3,0.5-2,1.9-1.5,3.3c0.3,0.8,0.9,1.4,1.7,1.6c1.3,0.5,2.8,0.6,4.2,0.2
	c2.2-0.6,3-1.9,2.4-4.6c-0.3-1.7-1.9-0.8-2.9-1.1C129.9,70.9,129.9,70.9,129.9,70.9L129.9,70.9z"/>
<path class="st0" d="M104.4,71.4c0,0.9,0,1.9,0,2.8c0.1,1.9-1.2,3.6-3,4.2c-2.3,0.8-4.8,0.8-7-0.2c-1.7-0.6-2.8-2.3-2.8-4.1
	c-0.1-1.9,0.9-3.6,2.6-4.3c2.2-0.9,4.5-1.2,6.8-0.8c1.2,0.1,1.2-0.4,1-1.3c-0.3-1.3-1.5-2.3-2.9-2.5c-1.6-0.2-3.2-0.1-4.8,0.4
	c-0.4,0.1-1,0.4-1.1-0.4s-0.3-1.4,0.5-1.6c2.7-0.7,5.4-1.1,8,0.2c1.8,0.9,2.5,2.6,2.6,4.6C104.6,69.3,104.5,70.3,104.4,71.4
	L104.4,71.4z M99.1,70.9c-1.3-0.1-2.7,0.2-3.9,0.8c-1.2,0.6-1.8,2.1-1.1,3.4c0.3,0.6,0.8,1,1.3,1.2c1.4,0.7,3.1,0.8,4.6,0.3
	c2-0.6,2.9-2,2.4-4.6c-0.3-1.7-1.9-0.8-2.9-1.1C99.4,70.9,99.2,70.9,99.1,70.9z"/>
<path class="st0" d="M137.7,71.6c0-1.9,0-3.9,0-5.8c-0.1-0.7,0.3-1.3,0.9-1.5c2.3-1.2,4.9-1.6,7.5-1.3c2.6,0.4,4.3,2,4.4,4.6
	c0.1,3.4,0,6.8,0.1,10.1c0,0.8-0.4,1-1.1,1s-1-0.4-1-1.1c0-2.8,0-5.6,0-8.5c0-3-1.4-4.3-4.4-4c-3.9,0.3-4.1,0.5-4.1,4.4
	c0,2.6,0,5.3,0,7.9c0,0.9-0.2,1.4-1.2,1.4s-1-0.6-1-1.4C137.7,75.5,137.7,73.6,137.7,71.6L137.7,71.6z"/>
<path class="st0" d="M89.3,72.1c0,2.6,0,5.3,0,7.9c-0.1,3-1.7,4.5-4.4,4.3c-0.5,0-1,0-1-0.8c0-0.6-0.1-1.1,0.8-1.3
	c2.1-0.3,2.4-0.8,2.4-3c0-4.9,0-9.9,0-14.8c0-0.5-0.3-1.3,0.7-1.4s1.5-0.1,1.5,1.1C89.2,66.8,89.3,69.5,89.3,72.1z"/>
<path class="st0" d="M181,66.5c-1.3,0.1-2.3-0.9-2.4-2.2c0,0,0,0,0,0c-0.1-1.3,0.9-2.4,2.2-2.4c1.3-0.1,2.4,0.9,2.4,2.2
	C183.3,65.3,182.3,66.4,181,66.5C181,66.5,181,66.5,181,66.5z"/>
<path class="st0" d="M89.9,59.9c0.1,0.9-0.6,1.7-1.5,1.7c-0.1,0-0.1,0-0.2,0c-0.9,0-1.7-0.7-1.7-1.6c0,0,0-0.1,0-0.1
	c0-1,0.8-1.8,1.7-1.8C89.1,58.2,89.8,59,89.9,59.9z"/>
<path class="st0" d="M224.8,75.5h0.8l0,0l0.7,1.4h0.6l-0.7-1.5c0.2,0,0.4-0.1,0.6-0.3c0.1-0.2,0.2-0.4,0.2-0.6
	c0-0.3-0.1-0.5-0.3-0.7c-0.3-0.1-0.6-0.2-0.9-0.2h-1.3v3.2h0.5L224.8,75.5z M224.8,74h0.8c0.2,0,0.4,0,0.6,0.1
	c0.2,0.1,0.2,0.3,0.2,0.5c0,0.2-0.1,0.3-0.2,0.4c-0.2,0.1-0.4,0.1-0.6,0.1h-0.8V74z"/>
<path class="st0" d="M223.5,77.3c0.3,0.3,0.6,0.5,0.9,0.6c0.3,0.1,0.7,0.2,1.1,0.2h0.1c0.3,0,0.6-0.1,0.9-0.2
	c0.4-0.1,0.7-0.4,0.9-0.6c0.3-0.3,0.5-0.6,0.6-0.9c0.2-0.3,0.2-0.7,0.2-1.1c0-0.4-0.1-0.7-0.2-1.1c-0.1-0.3-0.3-0.7-0.6-0.9
	c-0.3-0.3-0.6-0.5-0.9-0.6c-0.3-0.1-0.6-0.2-0.9-0.2h-0.1c-0.4,0-0.7,0.1-1.1,0.2c-0.3,0.1-0.6,0.3-0.9,0.6
	c-0.3,0.3-0.5,0.6-0.6,0.9c-0.1,0.3-0.2,0.7-0.2,1.1c0,0.4,0.1,0.7,0.2,1.1C223.1,76.7,223.3,77,223.5,77.3z M223.2,74.4
	c0.1-0.3,0.3-0.6,0.6-0.8c0.5-0.5,1.1-0.7,1.8-0.7h0.1c0.3,0,0.6,0.1,0.8,0.2c0.3,0.1,0.6,0.3,0.8,0.6c0.2,0.2,0.4,0.5,0.5,0.8
	c0.1,0.3,0.2,0.7,0.2,1c0,0.3-0.1,0.7-0.2,1c-0.1,0.3-0.3,0.6-0.5,0.8c-0.2,0.2-0.5,0.4-0.8,0.6c-0.3,0.1-0.5,0.2-0.8,0.2h-0.1
	c-0.3,0-0.7,0-1-0.2c-0.3-0.1-0.6-0.3-0.8-0.6c-0.2-0.2-0.4-0.5-0.5-0.8c-0.1-0.3-0.2-0.6-0.2-0.9C223,75,223.1,74.7,223.2,74.4
	L223.2,74.4z"/>
</svg>
