<?xml version="1.0" encoding="utf-8"?>
<!-- Generator: Adobe Illustrator 21.1.0, SVG Export Plug-In . SVG Version: 6.00 Build 0)  -->
<svg version="1.1" id="Layer_1" xmlns="http://www.w3.org/2000/svg" xmlns:xlink="http://www.w3.org/1999/xlink" x="0px" y="0px"
	 viewBox="0 0 181 40" style="enable-background:new 0 0 181 40;" xml:space="preserve">
<style type="text/css">
	.st0{fill:#ED1C24;}
</style>
<title>Grocery</title>
<path class="st0" d="M0.5,24.5c0.1-0.2,0.1-0.4,0.2-0.6c0.3-0.7,1-1.1,1.7-1c0.5,0.1,0.9,0.4,1,0.9c0.4,1.3,1,2.6,1.7,3.8
	c1.8,3.2,4.4,5.8,7.6,7.6c1.6,1,3.5,1.4,5.4,1.4c0.8,0,1.5-0.2,2.2-0.4c1.5-0.4,2.6-1.8,2.6-3.4c0.2-1.5-0.5-3-1.8-3.7
	c-1.2-0.8-2.5-1.4-3.9-1.9c-3.2-1.3-6.4-2.5-9.6-3.8c-1.1-0.5-2.1-1-3.1-1.6c-1.7-1-2.8-2.6-3.2-4.5c-0.4-1.8-0.6-3.7-0.4-5.5
	c0.1-1.9,0.8-3.7,2-5.2c2.4-3.2,6-5.4,10-5.9c1.7-0.2,3.4-0.2,5.1,0.1c2.5,0.3,4.9,0.6,7.3,1c1,0.1,2,0,3-0.3c0.5-0.1,1-0.2,1.5-0.2
	c0.8-0.1,1.5,0.4,1.6,1.2c0,0.1,0,0.2,0,0.2c0.1,1.1,0.1,2.2,0,3.3s0,2.4-0.1,3.5s0,2.2-0.1,3.3c0.1,0.5-0.3,1-0.9,1.1h-0.1
	c-0.8,0.3-1.7-0.1-2-0.8c-0.9-1.4-1.8-2.9-2.8-4.3c-0.9-1.4-2.1-2.6-3.5-3.5c-1.7-1.3-3.9-1.8-6-1.3c-0.8,0.1-1.5,0.3-2.2,0.7
	c-1.2,0.7-1.9,2-1.7,3.4c0.1,0.6,0.4,1.1,0.9,1.4c0.8,0.7,1.8,1.3,2.8,1.6c2.2,0.9,4.5,1.7,6.8,2.5c2.7,1,5.4,2.2,7.9,3.6
	c1.6,0.9,3,2.1,4,3.7c0.8,1.3,1.2,2.7,1.3,4.1c0.1,1.6,0,3.2-0.4,4.8c-0.7,2.3-2.2,4.3-4.1,5.6c-2.3,1.6-4.9,2.8-7.7,3.4
	c-2.6,0.7-5.2,0.9-7.8,0.8c-1.5-0.1-3-0.3-4.6-0.5s-3.1-0.4-4.6-0.4c-1.1,0-2.2,0.1-3.3,0.3c-0.2,0-0.5,0-0.7,0
	c-1,0.1-1.8-0.7-1.9-1.6c0,0,0-0.1,0-0.1c-0.1-0.6-0.1-1.3-0.1-1.9c0-3.2,0-6.4,0-9.5c0-0.2,0-0.3-0.1-0.4C0.5,25,0.5,24.7,0.5,24.5
	z"/>
<path class="st0" d="M114.8,12.1c-0.2,0.2-0.4,0.3-0.6,0.5c-0.8,1.3-1.6,2.6-2.4,4c-0.5,0.8-0.9,1.7-1.3,2.6
	c-0.2,0.4-0.5,0.8-0.8,1.1c-0.3,0.4-0.9,0.4-1.2,0.1c0,0-0.1-0.1-0.1-0.1c-0.4-0.3-0.7-0.7-0.9-1.2c-0.9-1.6-1.7-3.2-2.6-4.8
	c-0.3-0.5-0.6-1-0.9-1.5c-0.1-0.2-0.3-0.4-0.4-0.5c-0.3-0.3-0.5-0.2-0.6,0.1c-0.1,0.4-0.1,0.8-0.1,1.2c0,1.2,0.1,2.5,0.1,3.7
	c0,0.6,0.2,0.7,0.8,0.8h0.2c1,0.1,1.5,0.6,1.2,1.8c0,0.3-0.3,0.5-0.5,0.5c-0.5,0-0.9,0-1.4,0.1h-3.8c-0.7,0-1-0.2-1.1-0.7
	c-0.2-0.6,0.1-1.2,0.7-1.4c0,0,0,0,0,0c0.5-0.1,0.8-0.5,0.9-1c0.2-1.6,0.4-3.3,0.6-4.9c0.1-1.1,0.2-2.2,0.2-3.3c0-0.6,0-1.2-0.1-1.8
	c-0.1-0.5-0.3-0.7-0.8-0.8c-0.3,0-0.5-0.1-0.8-0.1c-0.6-0.2-0.8-0.5-0.7-1.3s0.3-0.9,0.8-1c0.6,0,1.2-0.1,1.8-0.1c1.2,0,2.4,0,3.5,0
	c0.6-0.1,1.2,0.3,1.5,0.8c0.9,1.7,1.9,3.3,2.9,5c0.4,0.6,0.7,1.2,1.1,1.8c0.1,0.2,0.2,0.3,0.4,0.5c0.4,0.5,0.6,0.5,0.9,0
	c0.4-0.6,0.8-1.3,1.2-1.9c0.9-1.7,1.7-3.4,2.5-5.2c0.4-0.9,0.6-1,1.6-1c1.5,0,3,0,4.5,0c0.2,0,0.3,0,0.5,0c0.4,0,0.8,0.3,0.8,0.8
	c0,0.3,0,0.6,0,0.9c0,0.3-0.3,0.5-0.6,0.5c-0.8,0.1-0.8,0.2-0.9,1c0,1.1,0,2.2,0,3.3s0.1,2.4,0.2,3.6s0.3,2.3,0.4,3.4
	c0,0.3,0.3,0.6,0.6,0.6c0.7,0.2,1.1,0.9,0.9,1.6c0,0.1-0.1,0.3-0.2,0.4c-0.2,0.2-0.4,0.3-0.6,0.4c-0.9,0-1.7,0-2.6,0
	c-1.6,0-3.1,0-4.7,0h-0.4c-0.7-0.1-1-0.3-1.1-1c-0.1-0.6,0.2-1.2,0.8-1.3c0,0,0.1,0,0.1,0c0.6,0,1-0.5,1-1.1c0.2-1.5,0.1-3-0.2-4.5
	C115,12.4,114.9,12.3,114.8,12.1z"/>
<path class="st0" d="M157.5,12.5l2.3,2.6c0.5,0.5,1,1.1,1.5,1.6c0.3,0.3,0.7,0.5,1.2,0.5c0.4,0,0.5,0.2,0.6,0.5
	c0.1,0.9-0.3,1.8-1.1,2.2c-0.5,0.3-1.1,0.4-1.8,0.4c-1.1,0-2.2,0-3.3,0c-0.6,0.1-1.1-0.2-1.4-0.8c-0.3-0.6-0.6-1.1-0.9-1.7l-2.1-4.2
	c-0.1-0.2-0.2-0.4-0.5-0.4c-0.3,0-0.5,0.3-0.4,0.5c0,1.1,0,2.1,0.1,3.2c0,0.4,0.3,0.6,0.7,0.7s0.5,0.1,0.8,0.2
	c0.5,0.1,0.8,0.5,0.8,1c0.1,1.2-0.1,1.4-1.4,1.4h-5c-0.8,0-1.6,0.1-2.3,0c-0.3,0-0.6-0.1-0.9-0.3c-0.5-0.6-0.4-1.5,0.2-1.9
	c0.1-0.1,0.1-0.1,0.2-0.1c0.4-0.1,0.8-0.5,0.7-1c0-1.6,0.1-3.2,0.1-4.9c0-1.4-0.1-2.8-0.1-4.3c0-0.1,0-0.3,0-0.4
	c0-0.6-0.1-1-0.8-1.1c-0.5-0.1-0.7-0.6-0.6-1.4c0-0.5,0.3-0.9,0.8-1c0.2-0.1,0.4-0.1,0.6-0.1h9.9c1.9-0.1,3.7,1.1,4.4,2.9
	c0.6,1.5,0.4,3.2-0.7,4.5c-0.3,0.3-0.7,0.6-1.1,0.9L157.5,12.5z M154,8.5c0-0.8-0.5-1.5-1.2-1.8c-0.6-0.3-1.2-0.1-1.3,0.6
	c-0.1,0.9-0.1,1.8,0,2.8c0,0.3,0.2,0.5,0.5,0.5c0,0,0,0,0,0C153.2,10.6,154,9.7,154,8.5C154,8.6,154,8.6,154,8.5L154,8.5z"/>
<path class="st0" d="M86.3,12.1c0,0.9,0,1.7,0,2.6c0.1,0.4-0.2,0.9-0.7,0.9c-0.1,0-0.2,0-0.2,0c-0.9,0-1.1-0.2-1.3-1
	c0-0.2-0.1-0.4-0.2-0.7c-0.1-0.3-0.4-0.6-0.7-0.7c-0.4-0.1-0.6,0-0.6,0.4c0,1,0.1,2,0.2,3c0,0.4,0.3,0.7,0.8,0.7
	c1.3,0.2,2.7-0.1,3.9-0.9c0.5-0.4,0.8-0.8,1-1.4c0.1-0.4,0.4-0.7,0.8-0.8c0.5-0.2,1.1,0.1,1.2,0.7c0,0.1,0,0.1,0,0.2
	c0,0.5,0,0.9,0,1.4c-0.1,1-0.2,1.9-0.3,2.9c-0.1,0.7-0.3,0.9-1.1,0.9c-1.4,0-2.8-0.1-4.2-0.1c-1.9,0-3.8,0-5.7,0c-1,0-1.9,0-2.9,0
	c-0.7,0-1.1-0.3-1.2-0.8c-0.3-0.6,0-1.4,0.6-1.7c0.4-0.2,0.7-0.6,0.7-1c0.1-1,0.2-2,0.2-3c0-1.9,0-3.9-0.1-5.8
	c0-0.4-0.1-0.8-0.1-1.1s-0.2-0.4-0.5-0.5c-0.3-0.1-0.6-0.2-0.8-0.4c-0.3-0.6-0.3-1.2,0-1.8c0.2-0.3,0.6-0.4,0.9-0.4
	c1.3,0,2.5,0.1,3.8,0c2.5,0,5,0,7.6-0.1c0.6,0,1.1,0,1.7,0s0.9,0.3,0.9,0.9c0,1.3,0,2.6,0,3.9c0,0.6-0.2,0.9-0.7,1
	c-0.5,0.2-1.1-0.1-1.3-0.6c-0.1-0.1-0.1-0.2-0.2-0.3c-0.3-1.2-1.5-2-2.7-2c-0.7,0-1.3-0.1-2-0.1c-0.5,0-0.6,0.1-0.6,0.6
	c0,0.8,0,1.5,0,2.3c0,0.4,0.2,0.6,0.6,0.6c0.5,0,0.9-0.3,1-0.8c0.3-0.8,0.9-0.9,1.6-0.8c0.4,0,0.7,0.3,0.7,0.7c0,0,0,0.1,0,0.1
	C86.3,10.3,86.3,11.2,86.3,12.1z"/>
<path class="st0" d="M53.2,20.4c-1.3,0-2.6,0-3.9,0s-1.5-0.8-1.4-1.8c0.1-0.3,0.3-0.6,0.6-0.6c0.6-0.2,0.7-0.4,0.7-1
	s-0.4-0.7-0.9-0.7h-3.2c-0.4,0-0.8,0.3-0.9,0.7c-0.1,0.3,0,0.6,0.3,0.8c0,0,0.1,0,0.1,0c0.7,0.2,1.1,0.9,0.9,1.6
	c0,0.1-0.1,0.2-0.1,0.2c-0.1,0.3-0.4,0.6-0.7,0.6c-0.3,0-0.7,0.1-1,0.1h-3.9c-0.8,0-1.2-0.3-1.2-1.2s0.2-1.2,1-1.5
	c0.4-0.1,0.8-0.3,1-0.7c0.4-0.9,0.9-1.8,1.3-2.7c1.3-3.1,2.6-6.2,3.9-9.2c0.1-0.2,0.2-0.3,0.2-0.5c0.2-0.5,0.7-0.7,1.2-0.7
	c0.8,0,1.7,0,2.5,0c0.6-0.1,1.2,0.3,1.4,0.9c1.5,3.5,3,7.1,4.5,10.6c0.2,0.5,0.5,1,0.8,1.5c0.2,0.4,0.7,0.8,1.2,0.9
	c0.5,0.1,0.9,0.6,0.8,1.1c0,1.2-0.2,1.4-1.4,1.4S54.4,20.4,53.2,20.4z M46.7,13.6h0.7c0.5,0,0.6-0.2,0.5-0.6c-0.3-0.7-0.5-1.3-0.8-2
	c-0.1-0.3-0.4-0.3-0.6,0c-0.3,0.7-0.7,1.4-0.9,2.1c-0.1,0.3,0.1,0.5,0.4,0.5L46.7,13.6z"/>
<path class="st0" d="M138.3,20.4c-1.3,0-2.6,0-3.9,0s-1.5-1-1.3-1.8c0.1-0.3,0.3-0.5,0.6-0.6c0.6-0.2,0.7-0.4,0.7-0.9
	c0-0.4-0.4-0.8-0.9-0.7c0,0,0,0-0.1,0h-3.2c-0.4,0-0.8,0.3-0.9,0.7c-0.1,0.3,0,0.6,0.3,0.8c0,0,0.1,0,0.1,0c0.9,0.2,1,0.8,0.8,1.8
	c-0.1,0.4-0.4,0.6-0.7,0.7c-0.3,0-0.7,0.1-1,0.1h-3.9c-0.8,0-1.1-0.3-1.2-1.1s0.1-1.3,1-1.6c0.4-0.1,0.8-0.4,1-0.7
	c0.4-0.8,0.8-1.6,1.1-2.4c1.4-3.2,2.7-6.3,4-9.5c0-0.1,0.1-0.2,0.1-0.3c0.2-0.7,0.8-1.1,1.5-1c0.8,0.1,1.5,0,2.3,0
	c0.6-0.1,1.2,0.3,1.4,0.9c1.5,3.6,3,7.1,4.5,10.7c0.2,0.5,0.5,1,0.8,1.5c0.2,0.4,0.6,0.7,1,0.8c0.9,0.3,1,0.5,1,1.5
	c0,0.8-0.3,1.1-1.1,1.1L138.3,20.4L138.3,20.4z M131.8,13.6h0.7c0.4,0,0.6-0.2,0.4-0.6c-0.3-0.7-0.5-1.3-0.8-2
	c-0.1-0.3-0.4-0.3-0.6,0c-0.3,0.7-0.6,1.4-0.9,2.1c-0.1,0.3,0.1,0.5,0.4,0.5S131.5,13.6,131.8,13.6L131.8,13.6z"/>
<path class="st0" d="M65.4,12.9c0.2-0.2,0.3-0.4,0.5-0.6c0.9-1.4,1.5-2.9,1.8-4.4c0.1-0.5-0.1-1-0.6-1.3l-0.3-0.2
	c-0.7-0.3-1-1.2-0.8-1.9c0.1-0.4,0.6-0.7,1-0.6c0.9,0,1.8,0,2.7,0s2,0,3.1-0.1c0.2,0,0.5,0,0.7,0.1C73.7,4,73.9,4.1,74,4.3
	c0.4,0.7,0.3,1.6-0.4,2c0,0-0.1,0-0.1,0.1c-0.8,0.3-1.4,0.9-1.8,1.7c-1.8,3.4-3.5,6.7-5.3,10.1c-0.3,0.6-0.7,1.3-1.2,1.8
	c-0.5,0.7-1.3,1-2.1,0.8c-0.5-0.1-0.9-0.3-1.1-0.7c-0.3-0.4-0.6-0.9-0.8-1.3c-1.5-3.3-3-6.6-4.6-9.8c-0.3-0.8-0.8-1.5-1.2-2.2
	c-0.1-0.2-0.3-0.3-0.4-0.3c-0.8-0.2-1.3-0.9-1.1-1.7c0-0.1,0.1-0.2,0.1-0.3c0.1-0.3,0.5-0.5,0.8-0.5c0.7,0,1.5,0,2.2,0H63
	c0.2,0,0.4,0,0.7,0.1c0.5,0,0.9,0.3,1,0.8c0.2,0.6,0,1.2-0.5,1.5l-0.4,0.2C63.3,6.8,63,7.4,63.2,8c0.4,1.6,1,3.2,1.9,4.6
	c0.1,0.1,0.1,0.2,0.2,0.2C65.3,12.9,65.4,12.9,65.4,12.9z"/>
<path class="st0" d="M171.8,3.9h6.9c0.9,0,1.2,0.3,1.2,1.2c0.1,1.2,0.1,2.5,0.1,3.7c0,0.7-0.2,1-0.7,1.1c-0.6,0.2-1.2-0.1-1.4-0.6
	c0,0,0,0,0,0c-0.2-0.3-0.3-0.7-0.5-1c-0.3-0.6-0.8-1-1.4-1.1c-0.5-0.1-0.7,0-0.8,0.5c-0.1,1.1-0.2,2.3-0.3,3.4
	c-0.1,1.8-0.1,3.7,0.1,5.5c0.1,0.8,0.3,1.1,1.1,1.3s0.9,0.4,0.9,1.2c0,1.2-0.2,1.4-1.4,1.4c-1.6,0-3.2-0.1-4.8-0.1
	c-0.8,0-1.6,0.1-2.5,0.1c-0.4,0-0.8,0-1.2-0.1c-0.4,0-0.8-0.3-0.8-0.8c0-0.3,0-0.7,0-1c0.1-0.4,0.4-0.7,0.8-0.8l0.2-0.1
	c1.1-0.2,1.3-0.2,1.4-1.7c0.2-2.8,0.2-5.6-0.1-8.4c0-0.6-0.2-0.7-0.7-0.7c-0.6-0.1-1.2,0.2-1.5,0.8c-0.3,0.5-0.6,1.1-0.9,1.6
	c-0.3,0.5-0.8,0.7-1.3,0.6c-0.5,0-0.9-0.4-0.9-0.9c0-0.6,0-1.1,0.1-1.7c0.1-0.8,0.1-1.7,0.2-2.5c0-0.6,0.4-1,1-1c0,0,0,0,0.1,0
	L171.8,3.9z"/>
<path class="st0" d="M97.3,30.6c0.2-0.3,0.4-0.5,0.5-0.8c0.7-1.4,1.5-2.9,2.2-4.3c0.2-0.6,0.8-1,1.5-0.9c1,0.1,2,0,3,0
	c0.3,0,0.6,0,0.8,0.4c0.2,0.4,0.1,0.8-0.1,1.1c-0.1,0.1-0.2,0.2-0.4,0.2c-0.4,0-0.5,0.2-0.5,0.5c0,1.1,0,2.2,0,3.3
	c0.1,1.3,0.2,2.6,0.3,3.9c0,0.3,0.2,0.6,0.6,0.6c0.4,0.1,0.6,0.5,0.5,1.1s-0.3,0.7-0.8,0.7l-3.5-0.1c-0.5,0-1.1,0-1.6,0
	S99,36,99,35.6c-0.1-0.6,0.1-0.9,0.7-1c0.3-0.1,0.6-0.4,0.6-0.7c0.1-1,0.1-2-0.1-3c0-0.1-0.1-0.3-0.1-0.5c-0.2,0.2-0.4,0.5-0.6,0.7
	c-0.6,1.1-1.3,2.3-1.9,3.5c-0.2,0.5-0.5,0.9-0.8,1.4c-0.2,0.4-0.7,0.6-1.1,0.4c-0.2-0.1-0.3-0.2-0.4-0.4c-0.4-0.5-0.7-1-1-1.6
	c-0.6-1.1-1.2-2.2-1.8-3.2c-0.2-0.2-0.3-0.5-0.5-0.7h-0.1c-0.1,0.2-0.1,0.4-0.2,0.6c0,1,0,2,0.1,3c0,0.4,0.2,0.6,0.6,0.6
	c0.1,0,0.2,0,0.3,0c0.5,0.1,0.9,0.6,0.8,1.1c0,0.1-0.1,0.3-0.2,0.4c-0.1,0.1-0.3,0.2-0.5,0.3c-0.4,0-0.8,0-1.1,0h-2.3
	c-0.6,0-0.8-0.1-0.9-0.6c-0.1-0.4,0.1-0.9,0.5-1c0,0,0,0,0.1,0c0.3-0.1,0.5-0.4,0.5-0.7c0.1-1.4,0.3-2.8,0.4-4.2
	c0.1-0.8,0.1-1.5,0.1-2.3c0-0.2,0-0.4-0.1-0.6c-0.1-0.2-0.3-0.3-0.4-0.5c-0.1-0.1-0.2,0-0.3-0.1c-0.5,0-0.9-0.5-0.8-1
	c0-0.1,0-0.2,0.1-0.3c0.1-0.3,0.4-0.5,0.7-0.4c0.5,0,1,0,1.5,0c0.7,0,1.3,0,2,0c0.4,0,0.9,0.2,1.1,0.6c0.7,1.2,1.3,2.3,2,3.5
	c0.3,0.5,0.6,0.9,0.9,1.4C96.9,30.2,97.1,30.4,97.3,30.6z"/>
<path class="st0" d="M139.3,29.6c0.1-0.1,0.3-0.2,0.4-0.3c0.7-0.7,1.3-1.4,2-2.1c0.1-0.1,0.2-0.3,0.3-0.4c0.1-0.2,0-0.3-0.2-0.4
	c-0.5-0.2-0.8-0.7-0.6-1.3c0-0.1,0.1-0.2,0.1-0.2c0.1-0.2,0.3-0.3,0.5-0.3c0.6,0,1.3,0,1.9,0h2.4c0.2,0,0.4,0,0.6,0
	c0.2,0.1,0.4,0.3,0.4,0.4c0.1,0.3,0.1,0.7,0,1c-0.1,0.2-0.2,0.3-0.4,0.4c-0.5,0.1-1.1,0.4-1.5,0.8l-1.8,1.6
	c-0.2,0.1-0.2,0.4-0.1,0.5c0,0,0,0,0,0c0.9,1.3,1.7,2.5,2.5,3.8c0.4,0.6,0.9,1.1,1.6,1.4c0.4,0.2,0.5,0.7,0.4,1.3
	c-0.1,0.3-0.3,0.5-0.8,0.5h-4c-0.3,0-0.5-0.1-0.7-0.4l-2.1-3.5c-0.1-0.1-0.2-0.3-0.3-0.4c-0.2,0.1-0.5,0.3-0.5,0.4
	c0,0.6,0,1.2,0.1,1.7c0,0.1,0.3,0.2,0.4,0.2c0.6,0.1,0.8,0.4,0.7,1.1s-0.3,0.8-0.9,0.8c-1.1,0-2.2,0-3.3-0.1c-0.6,0-1.1,0-1.7,0.1
	c-0.4,0-0.7-0.1-0.8-0.5c-0.1-0.6-0.1-1,0.4-1.2c0.4-0.2,0.7-0.6,0.6-1.1c0-2.1-0.1-4.2-0.1-6.3c0-0.3-0.2-0.7-0.5-0.8
	c-0.5-0.3-0.6-1-0.4-1.5c0.2-0.2,0.4-0.3,0.6-0.3c0.6,0,1.1,0,1.7,0c0.9,0,1.9,0,2.8-0.1c0.6,0,0.8,0.1,0.9,0.5
	c0.2,0.5,0,1.1-0.5,1.3c-0.2,0.1-0.4,0.3-0.4,0.6c0,0.8,0,1.6,0,2.4C139.2,29.5,139.2,29.6,139.3,29.6z"/>
<path class="st0" d="M129.8,30.6c0.8,0.9,1.6,1.8,2.4,2.7c0.2,0.3,0.6,0.5,1,0.5c0.3,0,0.4,0.3,0.4,0.5c0.1,0.9-0.6,1.7-1.5,1.7
	c-1,0.1-2,0.1-3,0.1c-0.5,0-0.7-0.4-0.9-0.7c-0.3-0.6-0.6-1.3-1-2s-0.6-1.3-1-1.9c-0.1-0.1-0.2-0.2-0.3-0.2c-0.1,0-0.2,0.2-0.2,0.3
	c0,0.7,0,1.4,0,2.1c0,0.3,0.3,0.6,0.6,0.6c0.1,0,0.3,0.1,0.4,0.1c0.5,0.3,0.7,1,0.4,1.5c0,0,0,0,0,0.1c-0.1,0.1-0.3,0.2-0.5,0.2
	c-0.5,0-1.1,0-1.6,0h-3.6c-0.8,0-1.1-0.3-1-1.1c0-0.3,0.2-0.6,0.5-0.7c0.3-0.1,0.5-0.4,0.5-0.7c0-2.2-0.1-4.4-0.1-6.6
	c0.1-0.4-0.2-0.7-0.5-0.8c-0.4-0.1-0.5-0.5-0.5-0.9c0-0.4,0.2-0.7,0.5-0.8c0.2-0.1,0.4-0.1,0.6-0.1h6.7c1.2-0.1,2.4,0.5,3,1.6
	c0.9,1.4,0.4,3.3-1,4.2C130,30.5,129.9,30.5,129.8,30.6z M125.6,28L125.6,28c0,0.3,0,0.5,0,0.8s0.2,0.5,0.6,0.5
	c0.6-0.1,1-0.5,1.1-1.1c0.1-0.7-0.3-1.4-1-1.6c-0.2-0.1-0.5,0-0.6,0.2c0,0,0,0.1,0,0.1C125.6,27.3,125.5,27.7,125.6,28L125.6,28z"/>
<path class="st0" d="M84.5,30.7l2.5,2.8c0.2,0.3,0.5,0.4,0.9,0.4c0.3,0,0.4,0.2,0.4,0.4c0.1,0.9-0.5,1.7-1.4,1.8c0,0-0.1,0-0.1,0
	c-1,0.1-2,0.1-3,0.1c-0.4,0-0.7-0.2-0.8-0.6c-0.3-0.5-0.5-1.1-0.8-1.6c-0.4-0.8-0.8-1.6-1.2-2.4c-0.1-0.1-0.2-0.2-0.3-0.3
	c-0.1,0.1-0.3,0.3-0.3,0.4c0,0.7,0,1.5,0.1,2.2c0,0.1,0.2,0.3,0.4,0.4c0.1,0.1,0.2,0.1,0.4,0.1c0.5,0.1,0.9,0.6,0.8,1.1
	c0,0.1-0.1,0.3-0.1,0.4c-0.1,0.1-0.2,0.2-0.4,0.3c-0.3,0-0.7,0-1.1,0h-4.2H76c-0.5,0-0.8-0.2-0.8-0.6c-0.1-0.6,0-1,0.5-1.2
	c0.3-0.1,0.4-0.3,0.4-0.6c0-0.5,0.1-0.9,0.1-1.4c0-1.8-0.1-3.6-0.2-5.4c0-0.3-0.1-0.5-0.4-0.6c-0.4-0.1-0.6-0.5-0.6-0.9
	c0-0.5,0.2-0.8,0.6-0.9c0.2,0,0.3-0.1,0.5-0.1h6.8c1.2-0.1,2.3,0.5,2.9,1.6c0.9,1.5,0.4,3.4-1,4.3L84.5,30.7z M80.3,28
	c0,0.3,0,0.6,0.1,0.9s0.2,0.4,0.5,0.4c0.6-0.1,1-0.5,1.1-1c0.1-0.7-0.2-1.4-0.8-1.7c-0.2-0.2-0.6-0.1-0.7,0.2c0,0.1-0.1,0.2-0.1,0.2
	C80.3,27.4,80.3,27.7,80.3,28z"/>
<path class="st0" d="M56.1,24.6c1.1,0,2.3,0,3.4,0c2,0,3.6,1.5,3.7,3.5c0,0,0,0,0,0c0.3,1.8-1,3.5-2.8,3.8c-0.2,0-0.4,0-0.6,0
	c-0.7,0-1.4,0-2.1-0.1c-0.3,0-0.5,0.1-0.4,0.4s0,0.9,0.1,1.3c0,0.4,0.4,0.8,0.8,0.8c0,0,0.1,0,0.1,0h0.2c0.5-0.1,1,0.3,1.1,0.9
	c0,0.2,0,0.4-0.1,0.6c-0.1,0.3-0.5,0.5-0.8,0.4c-0.7,0-1.4-0.1-2,0c-1.1,0-2.2,0-3.3,0h-0.8c-0.5,0-0.8-0.2-0.8-0.6
	c-0.1-0.6,0-1,0.5-1.2c0.3-0.1,0.4-0.3,0.4-0.6c0-1.4,0.1-2.7,0.1-4c0-1,0-1.9-0.1-2.9c0-0.2-0.1-0.5-0.3-0.5
	c-0.5-0.1-0.8-0.7-0.6-1.2c0,0,0,0,0,0c0.1-0.4,0.4-0.6,0.9-0.6L56.1,24.6L56.1,24.6z M57,28.2L57,28.2c0,0.4,0,0.8,0,1.2
	s0.3,0.5,0.6,0.5c0.8,0,1.4-0.7,1.3-1.5c0,0,0-0.1,0-0.1c0-0.8-0.6-1.5-1.4-1.6c-0.2-0.1-0.4,0.1-0.5,0.3c0,0,0,0.1,0,0.1
	C57,27.5,57,27.8,57,28.2L57,28.2z"/>
<path class="st0" d="M48.1,24.6c0.6,0,1.2,0,1.8,0s0.8,0.2,0.8,0.7c0.1,0.7-0.1,1.2-0.6,1.2c-0.2,0-0.4,0.2-0.4,0.5
	c0,0.3,0,0.6,0,0.8c0,1.5,0,3,0,4.6c0,2-1.4,3.7-3.4,3.9c-1.6,0.3-3.2,0.3-4.7-0.1c-1.7-0.4-2.9-1.9-2.9-3.6c0-1.6,0-3.2,0-4.8
	c0-0.3,0-0.7-0.1-1c-0.1-0.2-0.2-0.4-0.4-0.6c-0.4-0.2-0.7-0.7-0.5-1.1c0.1-0.4,0.3-0.5,0.9-0.5s1,0,1.6,0c1.2,0,2.3,0,3.5,0
	c0.5,0,0.8,0.2,0.8,0.7c0,0.8-0.2,1.1-0.7,1.2c-0.3,0-0.6,0.2-0.6,0.5c-0.1,0.3-0.1,0.6-0.1,0.9c-0.1,1.4-0.1,2.8,0,4.2
	c0.2,1.3,1.5,2.1,2.7,1.9c0.2,0,0.3-0.1,0.5-0.2c0.7-0.3,1.1-1,1-1.7c0-1.6,0-3.2-0.1-4.7c0-0.7-0.2-0.8-0.9-0.9
	c-0.5-0.1-0.9-0.6-0.8-1.2c0-0.1,0.1-0.3,0.2-0.4c0.2-0.2,0.4-0.3,0.7-0.3C46.8,24.7,47.4,24.7,48.1,24.6L48.1,24.6z"/>
<path class="st0" d="M156.1,30.4c0,0.6,0,1.2,0,1.8s-0.2,0.7-0.6,0.8c-0.4,0.1-0.8-0.1-1-0.5c0,0,0-0.1,0-0.1c0-0.2-0.1-0.4-0.1-0.5
	c-0.1-0.2-0.2-0.4-0.4-0.5c-0.3-0.2-0.5-0.1-0.5,0.3c0,0.7,0.1,1.4,0.2,2c0,0.3,0.3,0.5,0.6,0.5c0.9,0.1,1.8-0.1,2.6-0.6
	c0.3-0.3,0.5-0.6,0.7-0.9c0.1-0.2,0.2-0.4,0.4-0.5c0.3-0.3,0.8-0.2,1,0.1c0.1,0.1,0.1,0.2,0.1,0.3c0.1,0.1,0.1,0.3,0.1,0.4
	c-0.1,0.9-0.1,1.9-0.3,2.8c-0.1,0.5-0.2,0.6-0.7,0.6c-1.3,0-2.5-0.1-3.8-0.1s-2.8,0-4.2,0.1c-0.4,0-0.8,0-1.2,0
	c-0.3,0-0.6-0.2-0.7-0.6c-0.2-0.4,0-0.9,0.4-1.1c0.5-0.2,0.6-0.6,0.6-1.1c0.1-2.1,0.1-4.2,0-6.4c0-0.7-0.1-0.7-0.6-0.8
	c-0.1,0-0.1,0-0.2-0.1c-0.3-0.3-0.4-0.8-0.2-1.2c0.1-0.3,0.4-0.5,0.7-0.5h2.9h6.3c0.5,0,0.7,0.2,0.7,0.7c0,0.9,0,1.8,0,2.7
	c0,0.5-0.2,0.7-0.5,0.8c-0.4,0.1-0.8-0.1-0.9-0.5c0-0.1-0.1-0.1-0.1-0.2c-0.3-0.9-1.1-1.5-2.1-1.4c-0.4,0-0.8,0-1.2,0
	s-0.4,0.1-0.4,0.4c0,0.5,0,1,0,1.4c0,0.2-0.1,0.5,0.2,0.5c0.3,0.1,0.5,0,0.7-0.3c0.1-0.1,0.1-0.2,0.2-0.4c0.3-0.5,0.9-0.6,1.4-0.4
	c0.1,0.2,0.2,0.4,0.2,0.6C156.1,29.2,156.1,29.8,156.1,30.4z"/>
<path class="st0" d="M71.6,30.4c0,0.6,0,1.2,0,1.8s-0.1,0.6-0.6,0.7c-0.4,0.1-0.8-0.1-1-0.5c0,0,0,0,0,0c-0.1-0.2-0.1-0.3-0.1-0.5
	c0-0.2-0.1-0.3-0.3-0.5c-0.1-0.1-0.3-0.2-0.5-0.2c-0.1,0-0.2,0.3-0.2,0.4c0,0.6,0.1,1.2,0.1,1.9c0,0.3,0.3,0.6,0.6,0.6
	c0.9,0.1,1.8-0.1,2.5-0.6c0.3-0.3,0.5-0.5,0.8-0.9c0.1-0.1,0.1-0.3,0.2-0.4c0.2-0.3,0.5-0.4,0.9-0.3c0.3,0.1,0.5,0.3,0.5,0.7
	c0,0.3,0,0.7,0,1c-0.1,0.7-0.1,1.4-0.2,2.1c-0.1,0.5-0.2,0.6-0.7,0.6c-1.3,0-2.7-0.1-4-0.1s-2.6,0.1-3.9,0.1c-0.4,0-0.8,0-1.2,0
	c-0.3,0-0.6-0.2-0.7-0.6c-0.1-0.4-0.1-0.9,0.3-1.1c0.4-0.2,0.6-0.6,0.6-1c0-2.1,0-4.2,0-6.2c0-0.1-0.1-0.3-0.1-0.4
	c0-0.2-0.1-0.4-0.4-0.4c0,0,0,0,0,0c-0.7-0.1-0.7-0.6-0.6-1.2c0-0.4,0.3-0.6,0.8-0.6c1.8,0,3.7,0,5.6,0.1c1.1,0,2.2,0,3.3-0.1
	c0.6,0,0.8,0.2,0.8,0.8c0,0.9,0,1.8,0,2.7c0,0.3-0.2,0.6-0.4,0.7c-0.3,0.1-0.7,0-0.9-0.3c-0.1-0.1-0.2-0.2-0.2-0.4
	c-0.3-0.9-1.1-1.5-2-1.4c-0.4,0-0.8,0-1.2,0S69,26.9,69,27.2c0,0.5,0,1,0,1.4c0,0.2-0.1,0.5,0.2,0.5c0.3,0.1,0.6,0,0.7-0.3
	c0.1-0.1,0.1-0.2,0.2-0.4c0.3-0.5,0.9-0.6,1.3-0.4c0.1,0.1,0.2,0.3,0.2,0.5C71.6,29.2,71.6,29.8,71.6,30.4z"/>
<path class="st0" d="M116.4,36.3h-2.7c-0.8,0-1.1-0.3-1.1-1.1c0-0.3,0.2-0.6,0.5-0.6c0.3-0.1,0.4-0.3,0.4-0.6s-0.2-0.5-0.4-0.5
	c-0.8,0-1.6,0-2.5,0c-0.3,0-0.5,0.3-0.5,0.6c0,0.3,0.2,0.4,0.4,0.5c0.4,0.1,0.6,0.5,0.5,1c0,0.4-0.3,0.7-0.7,0.8c-0.1,0-0.2,0-0.3,0
	H107c-0.5,0-0.8-0.2-0.9-0.7c-0.1-0.6,0.1-1.1,0.6-1.2c0.7-0.2,1-0.7,1.2-1.3c0.9-2,1.7-4.1,2.6-6.1l0.7-1.6
	c0.1-0.5,0.6-0.7,1.1-0.7c0.5,0,1.1,0,1.6,0c0.4,0,0.8,0.2,1,0.6c1,2.5,2,4.9,3.1,7.4c0.2,0.4,0.4,0.8,0.6,1.1
	c0.2,0.3,0.5,0.6,0.8,0.7c0.5,0.1,0.7,0.6,0.6,1.3c-0.1,0.4-0.3,0.6-0.8,0.6L116.4,36.3z M111.9,31.4h0.3c0.4,0,0.5-0.1,0.4-0.5
	s-0.3-0.8-0.5-1.2c0-0.1-0.1-0.2-0.2-0.2c-0.1,0-0.2,0.1-0.3,0.2c-0.1,0.3-0.2,0.5-0.4,0.8C110.9,31.4,111,31.4,111.9,31.4z"/>
<path class="st0" d="M171.3,34c0-0.5,0.1-0.9,0.1-1.2c0-0.3,0.3-0.6,0.6-0.7c0.3-0.1,0.6,0.1,0.8,0.4c0.1,0.2,0.3,0.4,0.4,0.5
	c0.7,0.9,1.8,1.4,2.9,1.2c0.3,0,0.6-0.2,0.6-0.5c0-0.3-0.1-0.6-0.4-0.7c-0.6-0.3-1.2-0.5-1.8-0.7c-0.8-0.3-1.6-0.8-2.1-1.5
	c-1.3-1.9-0.8-4.4,1.1-5.7c1-0.7,2.2-0.9,3.4-0.6c0.6,0.2,1.4,0.2,2,0c0.4-0.1,0.8,0.1,1,0.5c0,0.1,0,0.1,0,0.2
	c0.1,0.8,0.2,1.6,0.3,2.4c0.1,0.6-0.1,0.9-0.5,1s-0.7,0-1-0.4c-0.5-0.8-1.4-1.4-2.4-1.6c-0.2,0-0.5,0-0.7,0.1
	c-0.3,0.1-0.5,0.4-0.3,0.7c0.1,0.1,0.2,0.3,0.3,0.3c0.4,0.2,0.9,0.4,1.4,0.6c0.8,0.3,1.6,0.7,2.2,1.2c1.6,1.5,1.8,4,0.3,5.6
	c0,0-0.1,0.1-0.1,0.1c-0.7,0.6-1.6,1-2.5,1.1c-1.3,0.2-2.7,0.1-3.9-0.4c-0.2,0-0.4,0-0.5,0c-0.5,0.1-0.8-0.1-0.9-0.5
	S171.4,34.5,171.3,34z"/>
<path class="st0" d="M165.1,24.6h4.8c0.7,0,0.9,0.2,0.9,0.9c0,0.9,0.1,1.7,0.1,2.6c0,0.6-0.1,0.8-0.6,0.9c-0.4,0.1-0.9-0.1-1-0.5
	c-0.1-0.3-0.3-0.5-0.5-0.8c-0.1-0.2-0.3-0.4-0.5-0.5c-0.6-0.4-0.9-0.2-0.9,0.5c-0.2,1.8-0.2,3.7-0.1,5.5c0,0.2,0.1,0.3,0.1,0.5
	c0,0.4,0.3,0.7,0.6,0.8c0.8,0.1,0.9,0.8,0.7,1.5c-0.1,0.3-0.4,0.4-0.6,0.4c-0.5,0-1-0.1-1.6-0.1c-1.4,0-2.8,0-4.2,0.1
	c-1,0-1.1-0.6-0.9-1.5c0.1-0.3,0.4-0.4,0.7-0.5c0.7-0.2,0.8-0.2,0.8-0.9c0-1.8,0-3.6,0-5.4c0-0.3,0-0.5-0.1-0.8
	c0-0.2-0.2-0.4-0.3-0.4c0,0,0,0,0,0c-0.4-0.1-0.8,0.1-1,0.4c-0.2,0.4-0.4,0.7-0.6,1.1c-0.1,0.3-0.5,0.5-0.8,0.5
	c-0.4,0.1-0.8-0.2-0.8-0.6c0-0.1,0-0.1,0-0.2c0-0.7,0.1-1.4,0.1-2c0-0.3,0-0.5,0.1-0.8c0-0.4,0.3-0.8,0.7-0.8c0,0,0.1,0,0.1,0
	L165.1,24.6z"/>
</svg>
