<?xml version="1.0" encoding="utf-8"?>
<!-- Generator: Adobe Illustrator 21.1.0, SVG Export Plug-In . SVG Version: 6.00 Build 0)  -->
<svg version="1.1" id="Layer_1" xmlns="http://www.w3.org/2000/svg" xmlns:xlink="http://www.w3.org/1999/xlink" x="0px" y="0px"
	 viewBox="0 0 159.8 69.6" style="enable-background:new 0 0 159.8 69.6;" xml:space="preserve">
<style type="text/css">
	.st0{fill:#DB2927;}
	.st1{fill:#015599;}
</style>
<title>Grocery</title>
<path class="st0" d="M0.5,13.5c0.1-0.3,0.1-0.5,0.1-0.8C0.8,11.1,1.2,9.5,2,8.1c0.9-1.6,2.2-2.9,3.7-3.9C7.4,3,9.3,2.2,11.3,1.7
	c2-0.5,4-0.8,6-1c2.2-0.2,4.4-0.3,6.7-0.2c2.2,0.1,4.4,0.2,6.5,0.5c1.8,0.2,3.6,0.5,5.3,0.8c0.3,0.1,0.3,0.1,0.3,0.3
	c0,3.4,0,6.9,0,10.3c0,5.1,0,0.1,0,0.1s-0.2,0-0.3,0c-2.1-0.7-4.2-1.2-6.4-1.6c-2.4-0.4-4.9-0.5-7.3-0.4c-1.1,0-2.2,0.2-3.2,0.5
	c-0.5,0.1-0.9,0.4-1.3,0.7c-0.6,0.5-0.9,1.3-0.7,2.1c0.1,0.4,0.4,0.8,0.7,1c0.5,0.4,1.1,0.7,1.7,0.8c1.1,0.4,2.3,0.6,3.4,0.8
	c2,0.4,4,0.8,6,1.3c1.9,0.5,3.7,1.3,5.4,2.3c2.6,1.6,4.3,4.3,4.7,7.4c0.3,2.1,0.2,4.3-0.4,6.4c-0.6,2.1-1.9,4-3.6,5.5
	c-1.5,1.2-3.2,2.2-5.1,2.9c-1.8,0.6-3.7,1.1-5.6,1.3C21,44,18,44.1,15,43.9c-1.3,0-2.5-0.1-3.8-0.2c-1.4-0.1-2.7-0.3-4.1-0.5
	c-1.9-0.3-3.8-0.7-5.7-1.1H1.2C1.1,42.1,1,42,1,41.8c0,0,0-0.1,0-0.1c0-3.4,0-6.8,0-10.2c0-0.1,0-0.2,0-0.3s0.2,0,0.3,0
	c2.5,1,5.1,1.7,7.8,2.1c2.4,0.4,4.8,0.6,7.3,0.5c1.4,0,2.7-0.2,4-0.6c0.7-0.2,1.3-0.5,1.8-1c0.6-0.6,0.7-1.6,0.2-2.4
	c-0.2-0.2-0.4-0.5-0.7-0.6c-0.4-0.3-0.9-0.5-1.4-0.7c-1.2-0.4-2.3-0.7-3.5-0.9c-2-0.4-4-0.8-6-1.4C8.8,25.8,7.1,25,5.4,24
	c-2.6-1.7-4.3-4.3-4.7-7.4c-0.1-0.4-0.1-0.8-0.2-1.2c0-0.2,0-0.4-0.1-0.5L0.5,13.5z"/>
<path class="st0" d="M43.8,21.7v-0.3c0-2.7,0-5.3,0-8c0,0,0-0.1,0-0.1c0-0.2,0.1-0.3,0.2-0.3l1.5-0.4c1.8-0.5,3.6-0.8,5.4-1.1
	c2.2-0.2,4.4-0.3,6.7-0.3c1.4,0,2.8,0.1,4.3,0.2c2.1,0.2,4.2,0.6,6.2,1.3c1.6,0.6,3.1,1.4,4.4,2.5c1.4,1.3,2.5,3,3,4.9
	c0.4,1.3,0.5,2.7,0.5,4.1c0,6.2,0,12.4,0,18.7c0,0.1,0,0.1,0,0.2s0,0.2-0.2,0.2H62.2c-0.1,0-0.2,0-0.2-0.2s0-0.2,0-0.2
	c0-1.2,0-2.5,0-3.7c0-0.1,0-0.2,0-0.4c-0.2,0-0.2,0.1-0.3,0.3c-0.4,0.6-0.9,1.2-1.4,1.8c-1.2,1.2-2.7,2.1-4.3,2.6
	c-1.9,0.6-3.9,0.8-5.9,0.6c-1.6-0.1-3.1-0.5-4.5-1.1c-1.6-0.7-3.1-1.8-4.1-3.3c-0.7-1.1-1.2-2.4-1.3-3.8c-0.2-1.6,0-3.2,0.5-4.7
	c0.6-2.1,1.9-3.9,3.8-5.1c1.6-1,3.4-1.8,5.3-2.1c1.4-0.3,2.9-0.5,4.4-0.6c1.5-0.1,3-0.1,4.5,0c1.1,0.1,2.2,0.2,3.2,0.3H62
	c0.3,0,0.3,0,0.3-0.3c0-1.4-0.8-2.7-2.1-3.3c-0.8-0.4-1.7-0.7-2.6-0.8c-1.1-0.2-2.3-0.2-3.4-0.2c-2.1,0-4.2,0.4-6.2,1
	c-1.3,0.4-2.6,0.9-3.9,1.5C44,21.7,43.9,21.7,43.8,21.7z M60.6,29.5c-0.9,0-1.7,0-2.6,0.1c-0.7,0.1-1.5,0.3-2.2,0.6
	c-0.9,0.3-1.5,1.1-1.7,2c-0.1,0.6-0.1,1.2,0,1.8c0.2,0.8,0.8,1.5,1.6,1.8c0.8,0.3,1.7,0.3,2.6,0.2c1.3-0.2,2.5-1,3.1-2.2
	c0.7-1.3,1-2.7,0.9-4.1c0-0.2-0.1-0.2-0.3-0.2L60.6,29.5z"/>
<path class="st0" d="M129.4,43.9c-1-0.1-2-0.2-3-0.4c-2.3-0.4-4.6-1.2-6.7-2.4c-2.5-1.5-4.5-3.7-5.7-6.4c-0.7-1.7-1.2-3.6-1.4-5.4
	c-0.1-1.3-0.2-2.7-0.1-4c0.1-2.2,0.7-4.4,1.8-6.4c0.9-1.7,2.3-3.2,3.9-4.3c1.8-1.2,3.9-2.1,6-2.6c1.5-0.4,3.1-0.6,4.6-0.7
	c1.3-0.1,2.7-0.1,4-0.1c2.2,0,4.5,0.5,6.6,1.3c2.9,1.1,5.3,3.2,6.7,6c0.9,1.8,1.5,3.7,1.9,5.7c0.2,1.5,0.4,2.9,0.4,4.4
	c0,0.1,0,0.2,0,0.2l-1.1,2.4h-19.6c-0.2,0-0.2,0-0.2,0.2c0.1,0.9,0.4,1.8,1.1,2.6c0.6,0.6,1.4,1.1,2.2,1.3c1.1,0.4,2.3,0.6,3.6,0.6
	c2.3,0.1,4.6,0,6.9-0.4c1.6-0.3,3.2-0.7,4.7-1.4c0,0,0.1-0.1,0.2,0v0.2c-0.3,0.8-0.6,1.6-0.9,2.4c0,0.1-0.1,0.1-0.3,0.1l-0.8,0.1
	c-0.6,0-1.3,0.2-1.9,0.4c-0.8,0.3-1.3,1-1.4,1.8c0,0.3,0,0.7,0,1c0,0.4,0.3,0.8,0.7,0.9c0.3,0.1,0.6,0.1,0.9,0.1h1.5
	c0.2,0,0.5,0.1,0.7,0.2c0.1,0,0.1,0.1,0.1,0.2c0,0,0,0,0,0c-0.1,0.4-0.3,0.8-0.4,1.2c-1.6,0.4-3.2,0.7-4.8,0.9
	c-0.5,0.1-1.1,0.1-1.6,0.2c-0.1,0-0.3,0-0.4,0.1l-0.4-0.3c-0.6-0.5-1.4-0.8-2.2-0.9c-1.2-0.1-2.4,0.1-3.5,0.4
	C130.6,43.2,130,43.5,129.4,43.9z M131.4,24.6h3.6c0.3,0,0.3,0,0.3-0.3c0-0.5,0-1-0.1-1.6c-0.1-0.9-0.3-1.7-0.7-2.5
	c-0.4-0.8-1-1.4-1.8-1.7c-1.7-0.6-3.6,0.1-4.4,1.7c-0.6,1.2-0.9,2.6-0.8,4c0,0.3,0,0.3,0.3,0.3L131.4,24.6z"/>
<path class="st0" d="M84.3,41.9l-4.8-16.2l-4-13.4c0-0.1-0.1-0.2-0.1-0.3s0.2-0.1,0.2-0.1h15c0.3,0,0.3,0,0.4,0.3l1.1,5.6l1.5,7.8
	l1.2,6.4c0,0.1,0.1,0.3,0.1,0.4c0.1-0.1,0.1-0.2,0.1-0.4c0.8-4.3,1.6-8.7,2.5-13l1.3-7c0.1-0.3,0.1-0.3,0.4-0.3h14.4
	c0.1,0,0.1,0,0.1,0.1s0,0.2-0.1,0.3L105,40.4c-0.3,0.8-0.5,1.7-0.8,2.5c-0.1,0.4,0,0.3-0.4,0.3H91.4l-0.2-0.3
	c-0.7-0.9-1.6-1.5-2.7-1.7c-0.7-0.1-1.5-0.1-2.3,0.1C85.6,41.4,84.9,41.6,84.3,41.9z"/>
<path class="st1" d="M144.2,42.7c0.1-0.4,0.3-0.8,0.4-1.2c0-0.1,0-0.2-0.1-0.2c0,0,0,0,0,0c-0.2-0.1-0.4-0.2-0.7-0.2h-1.5
	c-0.3,0-0.6,0-0.9-0.1c-0.4-0.1-0.7-0.5-0.7-0.9c0-0.3,0-0.7,0-1c0.1-0.8,0.7-1.5,1.4-1.8c0.6-0.2,1.2-0.4,1.9-0.4l0.8-0.1
	c0.1,0,0.2,0,0.3-0.1c0.3-0.8,0.7-1.6,0.9-2.4c0.4-1,0.8-2.1,1.2-3.1l1.1-2.4c0.2-0.3,0.4-0.7,0.6-1c0.2-0.3,0.5-0.7,0.9-0.9
	c1.1-0.8,2.7-0.6,3.6,0.4c0.6,0.7,0.7,1.7,0.3,2.5c-0.4,0.7-0.8,1.4-1.2,2.1l-2,3.2c-0.1,0.2-0.2,0.4-0.3,0.6
	c-0.1,0.3,0,0.6,0.4,0.6c0.4,0,0.7,0,1.1-0.1c1.6-0.3,3.2-0.7,4.8-1.2c0.4-0.2,0.9-0.2,1.3-0.1c0.9,0.2,1.5,1,1.5,1.8
	c0,0.9-0.5,1.8-1.2,2.3c-0.3,0.3-0.7,0.4-1.1,0.4c-0.2,0-0.4,0-0.7,0c-0.7-0.1-1.4,0-2,0.2c-1.6,0.4-3.1,0.8-4.6,1.4l-0.4,0.1
	c-0.9,0.4-0.8,0.3-1.1,1.2c-0.4,1.3-0.8,2.7-1.1,4.1c-0.4,1.8-0.8,3.6-1.1,5.4c-0.2,1.3-0.3,2.7-0.2,4c0.1,0.5,0.2,1,0.3,1.5
	c0.1,0.3,0.2,0.5,0.4,0.7c0.3,0.4,0.7,0.6,1.2,0.6c1,0,2.1-0.2,3-0.7c1.7-0.9,3.4-2,4.8-3.3c0.2-0.2,0.4-0.4,0.6-0.6
	c0.3-0.4,0.8-0.6,1.4-0.6c0.6,0,1.1,0.5,1.1,1.1c0.2,0.8-0.1,1.7-0.7,2.2c-1.7,1.7-3.6,3.2-5.6,4.5c-1.2,0.7-2.5,1.2-3.9,1.4
	c-1,0.2-2,0.2-2.9-0.1c-1.3-0.4-2.4-1.2-3.1-2.4c-0.7-1.2-1.1-2.4-1.3-3.8c-0.1-0.4-0.1-0.9-0.1-1.4c0-0.9,0.1-1.8,0.3-2.8
	c0.7-3.1,1.5-6.3,2.5-9.3C144.2,43,144.2,42.8,144.2,42.7z"/>
<path class="st1" d="M84.3,41.9c0.6-0.2,1.2-0.4,1.9-0.5c0.7-0.1,1.5-0.2,2.3-0.1c1.1,0.2,2.1,0.8,2.7,1.7l0.2,0.3
	c0.1,0.3,0.3,0.6,0.5,0.9c0.2,0.4,0.3,0.9,0.3,1.4c0,1.4-0.2,2.9-0.5,4.3c-0.1,0.6-0.1,1.2,0,1.8c0.1,0.6,0.4,1.2,0.7,1.7
	c0.5,0.8,1.4,1.3,2.4,1.4c1.2,0.1,2.3-0.2,3.3-0.8c0.4-0.2,0.8-0.5,1.1-0.8c0.2-0.1,0.4-0.3,0.6-0.4c0.4-0.2,0.9-0.1,1.1,0.2
	c0.6,0.6,0.7,1.5,0.4,2.2c-0.2,0.5-0.5,0.9-0.9,1.3c-0.9,0.9-2.1,1.7-3.3,2.1c-0.6,0.3-1.3,0.5-2,0.6c-1,0.1-2,0-3-0.3
	c-0.8-0.2-1.5-0.6-2.2-1.1c-0.4-0.3-0.8-0.7-1.1-1.2c-0.1-0.2-0.2-0.4-0.4-0.6c-0.1,0.1-0.3,0.2-0.4,0.4c-0.9,1.2-2,2.2-3.3,3
	c-1.1,0.7-2.3,1.1-3.6,1.3c-1.5,0.1-3-0.3-4.2-1.1c-0.6-0.4-1.1-0.8-1.5-1.3c-0.6-0.8-1-1.8-1-2.8c-0.1-1.4,0.2-2.8,0.8-4.1
	c0.9-1.9,2-3.7,3.4-5.2c0.8-0.9,1.7-1.8,2.7-2.6C82.3,42.9,83.2,42.3,84.3,41.9L84.3,41.9z M80.7,56.6c0.6,0,1.2-0.2,1.7-0.4
	c1-0.5,1.8-1.2,2.6-2c1.2-1.3,2.2-2.8,2.9-4.4c0.4-0.7,0.7-1.5,0.9-2.4c0.1-0.4,0.1-0.7,0-1.1c-0.1-0.4-0.4-0.7-0.8-0.8
	c-0.4,0-0.7,0-1.1,0.1c-0.6,0.2-1.2,0.5-1.8,0.9c-1.8,1.2-3.5,2.7-4.8,4.4c-0.4,0.5-0.8,1.1-1.1,1.8c-0.3,0.7-0.4,1.4-0.3,2.1
	C78.9,55.8,79.7,56.5,80.7,56.6z"/>
<path class="st1" d="M129.4,43.9c0.6-0.4,1.3-0.7,2-0.9c1.1-0.4,2.3-0.5,3.5-0.4c0.8,0.1,1.6,0.4,2.2,0.9l0.4,0.3
	c0.5,0.5,0.8,1,1.1,1.6c0.4,0.9,0.5,1.9,0.4,2.9c-0.1,1.7-0.5,3.4-1.2,5c-0.7,1.6-1.5,3.1-2.6,4.4c-0.8,0.9-1.6,1.7-2.5,2.5
	c-0.6,0.6-1.4,1-2.1,1.4c-1.3,0.6-2.7,0.9-4.1,0.8c-1.8-0.1-3.4-0.9-4.7-2.2c-0.6-0.7-1-1.5-1.1-2.4c-0.2-1.4,0-2.8,0.6-4.1
	c0.5-1.3,1.2-2.6,2-3.7c1.4-1.9,3-3.6,4.8-5.1C128.5,44.5,128.9,44.2,129.4,43.9z M125.5,55.9c0,0.2,0,0.5,0.1,0.7
	c0.2,1.1,1.3,1.8,2.4,1.5c0.4-0.1,0.7-0.2,1.1-0.4c1-0.5,1.9-1.2,2.6-2c1-1.2,1.9-2.4,2.6-3.8c0.4-0.8,0.8-1.6,1.1-2.5
	c0.1-0.4,0.2-0.9,0.2-1.4c0-0.6-0.4-1-1-1c0,0-0.1,0-0.1,0c-0.3,0-0.6,0.1-0.9,0.2c-0.6,0.2-1.1,0.5-1.7,0.8c-1.6,1-3,2.2-4.2,3.6
	c-0.6,0.7-1.2,1.4-1.6,2.2C125.8,54.5,125.6,55.2,125.5,55.9L125.5,55.9z"/>
<path class="st1" d="M108.8,69.1c-2.6,0.1-4.9-1.8-5.4-4.3c-0.2-0.8-0.2-1.6,0-2.4c1-4.1,1.9-8.3,2.7-12.5c0.3-1.6,0.6-3.2,0.8-4.8
	c0.1-0.7,0.1-1.4,0.2-2.2c0-1.2,0.2-2.4,0.6-3.5c0.1-0.4,0.3-0.8,0.6-1.2c0.4-0.6,1.2-1,1.9-0.9c1.2,0,2.4,0.7,3.1,1.7
	c0.4,0.6,0.5,1.3,0.4,2c-0.3,1.1-0.6,2.2-1,3.3c-1,3.1-2.2,6.2-3.2,9.3c-0.6,1.8-1,3.6-1.4,5.5c-0.2,1.1-0.3,2.2-0.3,3.3
	c0,0.4,0.1,0.7,0.4,1c0.5,0.5,1.2,0.8,1.9,0.9c1,0.1,2,0,2.9-0.5c1-0.4,1.9-0.9,2.8-1.5c1-0.6,1.9-1.3,2.9-2
	c0.3-0.2,0.6-0.4,0.9-0.5c0.5-0.3,1.1-0.1,1.4,0.4c0,0.1,0.1,0.2,0.1,0.2c0.1,0.3,0,0.6-0.2,0.8c-0.4,0.5-0.8,1-1.2,1.4
	c-1.7,1.8-3.6,3.4-5.7,4.7c-1.1,0.7-2.3,1.2-3.5,1.5C109.7,69.1,109.2,69.1,108.8,69.1z"/>
<path class="st1" d="M157,32.9c-1.1,0-2-0.9-2-2c0-1.1,0.9-2,2-2s2,0.9,2,2C159,32,158.1,32.9,157,32.9z M157,29.2
	c-0.9,0-1.7,0.8-1.7,1.7s0.8,1.7,1.7,1.7c0.9,0,1.7-0.8,1.7-1.7C158.8,30,158,29.2,157,29.2C157,29.2,157,29.2,157,29.2L157,29.2z"
	/>
<path class="st1" d="M156.1,32v-2.1h0.9c0.2,0,0.3,0,0.5,0.1c0.1,0,0.2,0.1,0.2,0.2c0.1,0.1,0.1,0.2,0.1,0.3c0,0.1,0,0.3-0.1,0.4
	c-0.1,0.1-0.3,0.2-0.4,0.2c0.1,0,0.2,0.1,0.2,0.2c0.1,0.1,0.2,0.2,0.2,0.3L158,32h-0.5l-0.3-0.5c-0.1-0.1-0.1-0.2-0.2-0.3
	c0,0-0.1-0.1-0.1-0.1c-0.1,0-0.1,0-0.2,0h-0.1V32L156.1,32z M156.5,30.8h0.3c0.1,0,0.3,0,0.4,0c0,0,0.1,0,0.1-0.1c0-0.1,0-0.1,0-0.2
	c0-0.1,0-0.1-0.1-0.2c0,0-0.1-0.1-0.2-0.1h-0.6L156.5,30.8z"/>
</svg>
