<?xml version="1.0" encoding="utf-8"?>
<!-- Generator: Adobe Illustrator 21.1.0, SVG Export Plug-In . SVG Version: 6.00 Build 0)  -->
<svg version="1.1" id="Layer_1" xmlns="http://www.w3.org/2000/svg" xmlns:xlink="http://www.w3.org/1999/xlink" x="0px" y="0px"
	 viewBox="0 0 218.4 188.9" style="enable-background:new 0 0 218.4 188.9;" xml:space="preserve">
<style type="text/css">
	.st0{fill:#DD1D39;}
	.st1{fill:#5CAC46;}
	.st2{fill:#161615;}
	.st3{fill:#151514;}
	.st4{fill:#CDCDCD;}
	.st5{fill:#FEFEFE;}
</style>
<title>Fast Food</title>
<path class="st0" d="M56.6,61.8c-1.7,0-3.4,0-5.1,0c-0.3,0.1-0.7-0.1-0.8-0.5C46,50.8,41.2,40.4,36.4,29.9c-1.7-3.6-3.3-7.3-5-10.9
	c-0.2-0.3-0.1-0.4,0.2-0.6c7.7-3.7,15.6-6.9,23.6-9.5c6.9-2.2,13.9-4,20.9-5.3c4.5-0.9,9-1.5,13.6-2c3.5-0.4,7-0.6,10.4-0.8
	c4.7-0.2,9.3-0.3,14-0.1c4.2,0.1,8.4,0.4,12.5,0.8C145.6,3.2,164,8.2,181.2,16c1.9,0.8,3.7,1.7,5.5,2.5c0.4,0.2,0.4,0.3,0.2,0.7
	c-4.5,9.8-9,19.6-13.5,29.3c-2,4.3-3.9,8.5-5.9,12.8c-0.1,0.3-0.4,0.5-0.7,0.5c-3.4,0-6.9,0-10.3,0c-0.5,0-0.6-0.1-0.4-0.5
	c5.7-12.3,11.3-24.6,17-36.8c0.2-0.4,0.2-0.6-0.3-0.8c-9.8-4.1-20-7.3-30.5-9.5c-4.7-1-9.3-1.7-14-2.3c-3.9-0.5-7.9-0.8-11.9-0.9
	c-3.5-0.2-7-0.2-10.5-0.2c-3.8,0.1-7.5,0.3-11.2,0.6c-7.5,0.6-14.8,1.8-22.1,3.4c-9.3,2.1-18.3,5-27.1,8.7c-0.5,0.2-0.3,0.4-0.2,0.7
	l13.9,30.4c1,2.2,2,4.3,3,6.5c0.2,0.4,0.1,0.6-0.3,0.5C60.1,61.8,58.4,61.8,56.6,61.8z"/>
<path class="st1" d="M109.2,188.5l-3.8-8.3l-12.6-27.5l-12.3-26.9c-1.1-2.5-2.3-5-3.5-7.5c-0.2-0.4-0.2-0.6,0.3-0.6
	c3.5,0,6.9,0,10.4,0c0.3,0,0.6,0.2,0.7,0.5c6.8,14.9,13.6,29.8,20.5,44.7c0.1,0.2,0.2,0.4,0.3,0.6l1.6-3.5l14.6-31.8
	c1.5-3.3,3-6.6,4.6-9.9c0.1-0.3,0.4-0.5,0.8-0.5c3.4,0,6.9,0,10.3,0c0.6,0,0.6,0,0.4,0.6L127.8,148l-16.4,35.6L109.2,188.5z"/>
<path d="M63.8,89.7c2.4,1.3,4.1,3.4,4.8,6c1.1,4.3,0.6,8.4-2.3,11.9c-1.9,2.2-4.5,3.6-7.3,4c-1.1,0.2-2.3,0.3-3.4,0.3
	c-5.9,0-11.7,0-17.6,0c-0.5,0-0.6-0.1-0.6-0.6c0-14.1,0-28.1,0-42.2c0-0.5,0.1-0.6,0.6-0.6c5.8,0,11.6,0,17.4,0c3-0.1,6,0.8,8.4,2.5
	c4.8,3.7,6.1,10.5,3,15.7c-0.4,0.6-0.8,1.1-1.3,1.6C65,88.8,64.4,89.3,63.8,89.7z"/>
<path d="M183.3,111.9h-2.7c-2.5,0-5,0-7.5,0c-0.3,0-0.6-0.1-0.7-0.4c-2.6-5.3-5.2-10.7-7.8-16c-0.1-0.3-0.4-0.5-0.7-0.5
	c-1.4,0-2.8,0-4.2,0c-0.4,0-0.5,0.1-0.5,0.5c0,5.3,0,10.5,0,15.8c0,0.5-0.1,0.6-0.6,0.6c-2.7,0-5.4,0-8.1,0c-0.4,0-0.5-0.1-0.5-0.5
	c0-14.1,0-28.3,0-42.4c0-0.3,0.1-0.5,0.4-0.5c5.7,0,11.4,0,17.1,0c3.6-0.1,7.1,1.3,9.8,3.7c2.1,1.9,3.4,4.5,3.8,7.3
	c0.5,2.9,0.1,5.8-1.3,8.4c-1.2,2.3-3.3,4.2-5.7,5.2c-0.4,0.2-0.4,0.3-0.2,0.6c3,5.7,6,11.5,8.9,17.3L183.3,111.9z"/>
<path d="M112.6,90.2c0-7,0-14,0-21.1c0-0.5,0.1-0.6,0.6-0.6c5.6,0,11.2,0,16.8,0c3.7-0.1,7.3,1.3,10,3.8c2.1,2,3.4,4.6,3.8,7.5
	c0.5,2.9,0,5.9-1.5,8.5c-1.2,2.2-3.2,3.9-5.5,4.9c-0.3,0.2-0.4,0.3-0.2,0.7c3,5.8,6,11.6,9,17.4c0,0.1,0.1,0.1,0.1,0.2
	c0.2,0.4,0.2,0.5-0.3,0.5c-3.2,0-6.4,0-9.6,0c-0.3,0-0.7-0.2-0.8-0.5c-2.6-5.3-5.2-10.7-7.8-16c-0.1-0.3-0.3-0.4-0.6-0.4
	c-1.4,0-2.9,0-4.3,0c-0.4,0-0.5,0.2-0.5,0.5c0,5.2,0,10.5,0,15.7c0,0.5-0.1,0.7-0.6,0.7c-2.7,0-5.4,0-8.1,0c-0.4,0-0.5-0.1-0.5-0.6
	C112.6,104.3,112.6,97.3,112.6,90.2z"/>
<path d="M185.6,90.3c0-2.7,0-5.3,0.2-8c0.4-7.5,6.4-13.5,13.9-14c3.2-0.4,6.4,0.1,9.4,1.5c4.5,2,7.6,6.2,8.3,11.1
	c0.3,1.9,0.4,3.9,0.4,5.8c0,3.4,0.1,6.8-0.1,10.2c-0.2,3-0.7,6-2.4,8.5c-2.6,4-7,6.5-11.7,6.8c-3.3,0.4-6.6-0.2-9.6-1.6
	c-4.5-2.2-7.5-6.6-8-11.5C185.7,96.1,185.5,93.2,185.6,90.3z"/>
<path d="M104,111.9c-1.4,0-2.9,0-4.3,0c-0.3,0.1-0.6-0.1-0.6-0.4c0,0,0,0,0,0c-0.7-2.2-1.5-4.4-2.2-6.6c0-0.3-0.3-0.5-0.6-0.5
	c-4.5,0-8.9,0-13.4,0c-0.3-0.1-0.6,0.2-0.7,0.5c-0.7,2.2-1.5,4.4-2.2,6.6c-0.1,0.3-0.4,0.5-0.7,0.5c0,0,0,0,0,0c-2.8,0-5.6,0-8.5,0
	c-0.7,0-0.7,0-0.4-0.6l11-30.2c1.5-4,2.9-8.1,4.4-12.1c0.1-0.3,0.4-0.5,0.7-0.5c2.1,0,4.1,0,6.2,0c0.3,0,0.6,0.2,0.7,0.5
	c4,11,8,22,12,33c1.2,3.1,2.3,6.3,3.4,9.4c0.2,0.4,0.2,0.6-0.3,0.5C106.9,111.9,105.4,111.9,104,111.9z"/>
<path d="M15.8,112.3c-3.8,0.1-7.6-0.8-11-2.6c-1.5-0.9-2.9-2-4.1-3.3c-0.2-0.2-0.2-0.3,0-0.5c1.9-1.8,3.7-3.7,5.5-5.5
	c0.1-0.1,0.2-0.2,0.4,0c2.5,2.5,5.6,3.4,9,3.6c1.7,0.1,3.5-0.1,5.1-0.6c3-1.1,3.4-4,2.6-6.1c-0.5-1.2-1.5-2.1-2.8-2.3
	c-2.3-0.5-4.6-0.7-6.9-1.1c-2.1-0.3-4.2-1-6.1-2c-2.4-1.3-4.1-3.6-4.8-6.2c-0.9-3.2-0.7-6.5,0.5-9.6c1.4-3.4,4.3-6,7.9-6.9
	c5.5-1.8,11.5-1.3,16.6,1.3c1.4,0.8,2.7,1.7,3.9,2.9c0.2,0.2,0.2,0.3,0,0.4c-1.8,1.8-3.7,3.6-5.5,5.4c-0.2,0.2-0.3,0.1-0.4,0
	c-2.1-2.2-4.8-2.8-7.7-2.9c-1.4-0.1-2.8,0.1-4.1,0.6c-2.1,0.9-3.2,3.2-2.6,5.4c0.4,1.2,1.3,2.2,2.6,2.6c1.2,0.4,2.4,0.6,3.7,0.8
	c2.4,0.3,4.7,0.7,7.1,1.3c4.5,1.3,7.7,5.2,7.9,9.9c0.3,2.4,0,4.8-0.8,7.1c-1.4,3.3-4.2,5.9-7.6,7.1C21.5,112,18.6,112.4,15.8,112.3z
	"/>
<path d="M82.9,37.3c-0.3-1.9-0.6-3.8-1-5.7c-0.1-0.8-0.2-0.8,0.6-0.9l0.7-0.1c0.8-0.1,0.8-0.1,0.9,0.7c0.6,3.7,1.3,7.5,1.9,11.2
	c0.1,0.5,0,0.7-0.6,0.8c-1.4,0.2-1.4,0.2-2.2-1l-3.2-5.6c-0.1-0.1-0.1-0.2-0.3-0.3c0.2,1.1,0.3,2.1,0.5,3.1c0.2,1.4,0.5,2.7,0.7,4.1
	c0.1,0.3,0,0.5-0.4,0.5c-0.2,0-0.3,0-0.5,0.1c-0.4,0.1-0.9,0.3-1.2,0.1s-0.2-0.8-0.3-1.1c-0.6-3.5-1.2-7.1-1.8-10.6
	c-0.1-0.8-0.2-0.8,0.6-0.9c1.4-0.3,1.4-0.3,2.2,1l3.1,5C83.1,37.6,82.9,37.4,82.9,37.3z"/>
<path d="M121.4,35.9c-0.7,0.7-1.7,0.9-2.6,0.7c-1-0.1-1.8-1-1.8-2c-0.1-1.3,0-2.6,0.4-3.9c0.5-1.5,1.6-2.2,3.3-2
	c0.3,0,0.5,0.1,0.8,0.1c1.5,0.2,2.5,1.5,2.4,3c0,0,0,0,0,0c0,1.7-0.2,3.5-0.3,5.2c0,0.9-0.1,1.8-0.2,2.7c-0.2,1.3-1.3,2.2-2.6,2.2
	c-0.4,0-0.8,0-1.1,0c-1.6-0.1-2.8-1.5-2.7-3.1c0-0.1,0-0.3,0.1-0.4c0.1-0.2,0.2-0.2,0.4-0.2c0.5,0,0.9,0.1,1.4,0.1s0.4,0.2,0.4,0.5
	c0,0.2,0,0.4,0,0.6c0,0.5,0.4,0.9,0.9,0.9c0,0,0.1,0,0.1,0c0.6,0,1-0.3,1.1-0.8C121.3,38.2,121.3,37.1,121.4,35.9z"/>
<path d="M136.9,36.4c0.8-0.6,1.8-0.7,2.7-0.4c0.9,0.3,1.5,1.1,1.5,2.1c0,1.3-0.2,2.5-0.6,3.7c-0.4,1.3-1.6,2.2-3,1.9
	c-0.4,0-0.8-0.1-1.2-0.2c-1.5-0.3-2.5-1.7-2.2-3.2c0-0.1,0-0.1,0-0.2c0.3-2.1,0.6-4.2,1-6.2c0-0.3,0.1-0.5,0.1-0.8
	c0.5-2.1,1.6-2.9,3.8-2.5c1.6,0.1,2.8,1.5,2.7,3.1c0,0.2-0.1,0.5-0.1,0.7c0,0.3-0.1,0.4-0.4,0.3c-0.2,0-0.4-0.1-0.6-0.1
	c-0.3-0.1-0.8,0-1-0.2s0-0.6,0.1-0.9c0-0.5-0.3-1-0.9-1c0,0,0,0,0,0c-0.5-0.1-1,0.2-1.1,0.8C137.2,34.2,137.1,35.2,136.9,36.4z"/>
<path d="M96.5,35.3c-0.1-1-0.1-2-0.2-3c-0.2-1.7,1-3.3,2.7-3.5c0.1,0,0.2,0,0.3,0c1.3-0.3,2.7,0.1,3.5,1.2c0.6,0.8,0.8,1.8,0.8,2.9
	c0,0.2-0.2,0.2-0.3,0.2l-1.8,0.1c-0.2,0-0.3-0.1-0.3-0.3c0-0.4,0-0.7-0.1-1.1c0-0.6-0.6-1.1-1.2-1.1c0,0-0.1,0-0.1,0
	c-0.7,0.1-1.1,0.5-1,1.4c0.1,1.3,0.2,2.7,0.3,4c0.1,0.9,0.1,1.8,0.2,2.7c-0.1,0.6,0.4,1.2,1,1.2c0.2,0,0.3,0,0.5-0.1
	c0.5,0,0.9-0.5,0.8-1c0-0.5,0-1.1-0.1-1.6c0-0.2,0-0.3,0.3-0.3c0.6,0,1.2-0.1,1.8-0.1c0.2,0,0.4-0.1,0.4,0.2
	c0.1,0.9,0.1,1.8-0.1,2.7c-0.1,0.2-0.1,0.3-0.2,0.5c-1,1.4-2.8,2-4.4,1.5c-1.4-0.3-2.4-1.6-2.4-3C96.7,37.6,96.6,36.4,96.5,35.3
	L96.5,35.3z"/>
<path d="M128.3,34.1c0.5-0.4,1.1-0.6,1.7-0.6c1.3-0.1,2.4,0.9,2.5,2.2c0,0.2,0,0.3,0,0.5c0,1.2-0.1,2.5-0.4,3.7
	c-0.4,2.3-1.9,3.1-4.3,2.5c-1.6-0.2-2.6-1.7-2.4-3.3c0-0.2,0.1-0.4,0.2-0.6c0.1-0.2,0.1-0.2,0.3-0.2l0.6,0.1c0.4,0,0.9,0,1.2,0.2
	s0,0.7,0,1.1c0,0.6,0.5,1.1,1.1,1.1c0.4,0,0.8-0.2,1-0.6c0.2-0.6,0.3-1.2,0.3-1.9c0.1-0.6,0.1-1.2,0.2-1.8c0.1-0.5-0.1-1-0.5-1.2
	c-0.5-0.2-1.1-0.1-1.4,0.3c-0.2,0.3-0.6,0.5-0.9,0.4c-1.2-0.1-1.3-0.1-1.1-1.4c0.3-1.7,0.5-3.3,0.6-5c0-0.3,0.1-0.4,0.4-0.3
	c1.7,0.2,3.4,0.4,5.1,0.6c0.2,0,0.3,0.1,0.3,0.3c-0.1,0.3-0.1,0.7-0.1,1c0,0.5-0.3,0.5-0.7,0.5c-0.9-0.1-1.8-0.2-2.7-0.3
	c-0.3,0-0.4,0-0.4,0.3C128.6,32.5,128.4,33.2,128.3,34.1z"/>
<path d="M94.4,29.2c-0.6,2.5-1.2,4.8-1.9,7.2c-0.1,0.7-0.1,1.4,0,2.1c0.1,1.1,0.2,2.2,0.4,3.3c0,0.4-0.1,0.5-0.4,0.5
	c-0.5,0-1,0.1-1.5,0.2c-0.3,0.1-0.4,0-0.4-0.3c-0.1-1.3-0.3-2.6-0.4-3.9c-0.1-0.9-0.4-1.7-0.9-2.5c-0.9-1.8-1.8-3.5-2.7-5.2
	c-0.2-0.4-0.1-0.5,0.3-0.5c0.5,0,1-0.1,1.5-0.2c0.2-0.1,0.5,0,0.6,0.3c0,0,0,0,0,0c0.7,1.4,1.3,2.8,2,4.3c0.3-1.4,0.6-2.6,0.8-3.9
	s0.2-1.1,1.3-1.3L94.4,29.2z"/>
<path d="M113.8,34.9c0,2,0,4,0,6c0,0.4-0.1,0.5-0.5,0.5c-0.6,0-1.3,0.2-1.6-0.1s-0.1-1-0.1-1.5c0-2.7,0.1-5.3,0.1-8
	c0-0.4-0.1-0.5-0.5-0.5c-0.2,0-0.3,0-0.5,0c-1.2-0.1-0.9,0.1-0.9-1c0-0.2,0.1-0.3,0.3-0.4c0.9-0.4,1.7-0.8,2.4-1.4
	c0.4-0.3,0.9-0.1,1.3-0.1c0.2,0,0.1,0.3,0.1,0.4c0,2,0,4,0,6L113.8,34.9z"/>
<path class="st2" d="M147.7,118.9c0,0.5,0,1.1,0,1.6c0,0.2,0.2,0.5-0.3,0.5s-0.3-0.3-0.3-0.5c0-0.7,0-1.4,0-2c0-0.2-0.2-0.5,0.2-0.5
	s0.7-0.2,0.8,0.3s0.4,1.1,0.6,1.7c0.3-0.5,0.5-1.1,0.7-1.7c0.1-0.5,0.5-0.4,0.8-0.4s0.2,0.3,0.2,0.5c0,0.7,0,1.4,0,2.1
	c0,0.2,0,0.4-0.3,0.4s-0.3-0.2-0.3-0.4c0-0.6,0-1.1,0-1.8c-0.2,0.5-0.5,1.1-0.6,1.6c-0.1,0.2,0,0.6-0.4,0.6s-0.4-0.4-0.4-0.6
	c-0.2-0.5-0.4-1-0.6-1.5L147.7,118.9z"/>
<path d="M107.3,41.4c-1.1,0.1-1.1,0.1-1.1-1.2c0-0.9,0-0.9,0.9-0.9c0.4,0,1-0.2,1.3,0.1s0.1,0.8,0.1,1.3
	C108.4,41.4,108.4,41.4,107.3,41.4z"/>
<path class="st3" d="M145,119.7c0-0.2,0-0.4,0-0.6c0.1-0.5,0-0.8-0.7-0.7c-0.1,0-0.3,0-0.3-0.2s0.1-0.3,0.3-0.3h2
	c0.2,0,0.3,0,0.3,0.3s-0.2,0.3-0.3,0.2c-0.6-0.1-0.7,0.2-0.7,0.7s0,1,0,1.5c0,0.2-0.1,0.3-0.3,0.3s-0.3-0.1-0.3-0.3
	S145,120.1,145,119.7z"/>
<path class="st4" d="M82.9,37.3c0,0.1,0.1,0.2,0.1,0.3c0,0.1,0.1,0.2-0.1,0.2s-0.1-0.1-0.1-0.2L82.9,37.3z"/>
<path class="st5" d="M51.5,94.1c1.2,0,2.6,0,4,0c1.9,0,3.6,1.3,4.2,3.1c0.6,2,0,4.2-1.7,5.5c-0.9,0.6-1.9,0.9-2.9,0.8
	c-2.7,0-5.3,0-8,0c-0.4,0-0.5-0.1-0.5-0.5c0-2.9,0-5.7,0-8.6c0-0.4,0.1-0.5,0.5-0.5C48.5,94.1,49.9,94.1,51.5,94.1z"/>
<path class="st5" d="M46.6,81.3c0-1.3,0-2.6,0-3.9c0-0.4,0.1-0.5,0.5-0.5c2.4,0,4.9,0,7.4,0c0.6,0,1.1,0.1,1.7,0.2
	c1.5,0.3,2.7,1.5,3,3.1c0.5,1.6,0,3.3-1.3,4.4c-0.9,0.7-2.1,1.1-3.3,1.1c-2.5,0-5,0-7.5,0c-0.3,0-0.4-0.1-0.4-0.4
	C46.6,84,46.6,82.6,46.6,81.3z"/>
<path class="st5" d="M159.2,82c0-1.6,0-3.1,0-4.7c0-0.4,0.1-0.4,0.4-0.4c2.4,0,4.7,0,7,0c2.3-0.1,4.4,1.3,5.1,3.5
	c1,2.6-0.3,5.5-2.9,6.4c-0.5,0.2-1.1,0.3-1.7,0.3c-2.6,0.1-5.1,0-7.7,0c-0.4,0-0.3-0.2-0.3-0.4C159.2,85.1,159.2,83.6,159.2,82z"/>
<path class="st5" d="M121.8,82c0-1.6,0-3.1,0-4.7c0-0.3,0.1-0.4,0.4-0.4c2.4,0,4.8,0,7.2,0c2.8-0.1,5.2,2.1,5.3,4.9
	c0.1,2.8-2.1,5.2-4.9,5.3c-2.5,0.1-5.1,0-7.6,0c-0.4,0-0.4-0.2-0.4-0.4C121.8,85.1,121.8,83.6,121.8,82z"/>
<path class="st5" d="M194.8,90.2c0-2.6,0.1-5.2,0.3-7.8c0.7-6.1,7.4-7,10.6-4.6c1.5,1.1,2.4,2.8,2.5,4.7c0.3,3.1,0.5,6.2,0.4,9.3
	c0,1.8-0.1,3.6-0.3,5.4c-0.1,1.6-0.6,3.2-1.6,4.5c-1.7,2-4.4,2.8-6.9,2c-2.4-0.6-4.2-2.5-4.6-5c-0.4-2.6-0.5-5.3-0.4-8
	C194.8,90.5,194.8,90.4,194.8,90.2z"/>
<path class="st5" d="M85,96.5L89.6,83l4.5,13.4H85z"/>
<path class="st5" d="M121.6,32.8c0,0.3,0,0.7-0.1,1c0,0.6-0.6,1.1-1.2,1.1c0,0,0,0,0,0c-0.6,0-1-0.4-1-1.2s0.1-1.5,0.1-2.3
	c0-0.6,0.5-1,1.1-1c0,0,0,0,0.1,0c0.7,0,1.1,0.5,1.1,1.3C121.6,32.1,121.6,32.5,121.6,32.8L121.6,32.8z"/>
<path class="st5" d="M136.2,40.6c0.1-0.7,0.3-1.6,0.4-2.5c0.1-0.3,0.8-0.7,1.3-0.7s0.9,0.3,0.9,0.8c0,1.1-0.2,2.1-0.6,3.2
	c-0.2,0.5-0.7,0.7-1.3,0.5S136.2,41.5,136.2,40.6z"/>
</svg>
