<?xml version="1.0" encoding="utf-8"?>
<!-- Generator: Adobe Illustrator 21.1.0, SVG Export Plug-In . SVG Version: 6.00 Build 0)  -->
<svg version="1.1" id="Layer_1" xmlns="http://www.w3.org/2000/svg" xmlns:xlink="http://www.w3.org/1999/xlink" x="0px" y="0px"
	 viewBox="0 0 221.9 137.5" style="enable-background:new 0 0 221.9 137.5;" xml:space="preserve">
<style type="text/css">
	.st0{fill:#231F20;}
	.st1{fill:#C1D841;}
	.st2{fill:#FCFCFC;}
	.st3{fill:#FDFDFD;}
	.st4{fill:#EA1E25;}
	.st5{fill:#FEFEFE;}
	.st6{fill:#FDFEFD;}
	.st7{fill:#F1F1F1;}
	.st8{fill:#021A01;}
	.st9{fill:#2A2728;}
	.st10{fill:#BCD340;}
</style>
<title>Fast Casual</title>
<path class="st0" d="M221.4,40.7v56.2h-20.9h-1.9h-0.5h-41.1h-0.4h-0.6h-38.5H116h-0.7H75h-0.8h-1H0.5V40.7h72.8h1h0.5h40.4h0.4h0.6
	h39.2h1.6h0.4h40.6h0.6h0.9H221.4z M174.2,82.3l-0.3-0.7c-2.3-4.6-4.6-9.3-7-13.9c-0.2-0.4-0.2-0.6,0.2-0.9c1.1-0.8,2.3-1.5,3.4-2.3
	c0.4-0.3,0.6-0.2,0.8,0.2c2.3,4.7,4.6,9.5,6.9,14.2c0.2,0.4,0.2,0.8,0,1.2c-1.4,2.8-2.8,5.7-4.2,8.5c-0.2,0.3-0.2,0.5,0.3,0.5
	c2,0.2,4,0.4,6,0.6c0.4,0.1,0.8-0.1,0.9-0.5c0,0,0,0,0,0c3.7-8.3,7.4-16.7,11.2-25c0.5-1.1,1-2.3,1.5-3.4c-2.4,0-4.6,0-6.9,0
	c-0.4,0-0.4,0.2-0.6,0.5l-2.6,6.5l-1.9,4.6c-1.8-3.7-3.5-7.3-5.2-11c-0.1-0.4-0.4-0.6-0.8-0.6c-2.7,0-5.3,0-8,0
	c-0.4,0-0.8,0.1-1.1,0.3c-2.1,1.3-4.2,2.6-6.3,3.9c-0.2,0.1-0.5,0.5-0.7,0.3s-0.1-0.5-0.1-0.7c0-3.7,0-7.5,0-11.2
	c0-0.4-0.1-0.6-0.6-0.6c-1.9,0.2-3.9,0.4-5.9,0.5c-0.4,0-0.4,0.2-0.4,0.5c0,9.3,0,18.7,0,28c0,0.4,0.1,0.5,0.5,0.5
	c1.9,0,3.8,0,5.7,0c0.5,0,0.6-0.2,0.6-0.7c0-4,0-8,0-12c0-0.2,0-0.5,0.1-0.7l0.2,0.3l6.1,12.6c0.1,0.2,0.2,0.4,0.5,0.4
	C169.1,82.3,171.6,82.3,174.2,82.3L174.2,82.3z M112.5,54.4c-0.1,0-0.1,0-0.2,0c-2.1,0.8-4.2,1.6-6.3,2.4c-0.3,0.1-0.3,0.3-0.3,0.5
	c0,0.6,0,1.2,0,1.8s0.2,1.2-0.1,1.6s-1,0.1-1.5,0.1h-0.2c-0.2,0-0.3,0.1-0.4,0.3c-0.3,1.9-0.7,3.7-1.1,5.6c0.9,0,1.8,0,2.8,0
	c0.5,0,0.6,0.1,0.6,0.6c0,1.7,0,3.4,0,5.2c0,1.8,0,3.6,0.2,5.3c0.4,2.9,1.8,4.4,4.6,4.9c0.4,0.1,0.9,0,1.3,0.1
	c0.3,0.1,0.6-0.1,0.7-0.4c0.5-0.9,1.1-1.8,1.6-2.6l2.1-3.5c-0.4,0-0.9,0-1.3,0c-1.3,0.1-2.3-0.9-2.4-2.2c0-0.2,0-0.3,0-0.5
	c0-2.2,0-4.4,0-6.6c0-0.4,0.1-0.6,0.6-0.6c3.7,0,7.4,0,11,0c0.1,0,0.2-0.1,0.3,0.1l-9.6,15.5h18.2c0.2,0,0.4,0.1,0.5-0.2
	c0.5-1.9,1.1-3.9,1.7-5.9h-9.6l9.3-15.2h-0.9c-7,0-13.9,0-20.8,0c-0.5,0-0.6-0.1-0.6-0.6C112.5,58.3,112.5,56.4,112.5,54.4
	L112.5,54.4z M11.1,73.8c-1.4,1.8-2.8,3.6-4.1,5.4c-0.2,0.2-0.1,0.3,0.1,0.5s0.3,0.3,0.5,0.4c4.4,3.2,10.1,3.8,15.1,1.6
	c2.5-1,4.3-3.3,4.8-5.9c0.9-4.9-0.7-8.5-5.3-10.3c-1.4-0.6-2.9-1-4.3-1.5c-0.6-0.2-1.2-0.4-1.7-0.8c-0.9-0.5-1.2-1.5-0.7-2.4
	c0.2-0.4,0.5-0.6,0.9-0.8c0.7-0.4,1.5-0.6,2.4-0.5c1.5,0.2,3,0.8,4.1,1.9c0.2,0.2,0.4,0.4,0.7,0c1.2-1.5,2.3-3,3.5-4.4
	c0.2-0.3,0.1-0.4-0.1-0.6c-0.7-0.5-1.4-1-2.1-1.4c-4.3-2.2-8.7-2.6-13-0.1c-2.9,1.5-4.6,4.7-4.2,8c0.1,3.1,2.1,5.7,4.9,6.8
	c1.5,0.7,3.1,1.1,4.6,1.7c0.8,0.2,1.5,0.6,2.1,1c0.8,0.5,1.1,1.6,0.5,2.5c-0.1,0.2-0.3,0.4-0.5,0.5c-0.4,0.3-0.9,0.5-1.5,0.6
	C15.2,76.4,12.8,75.6,11.1,73.8z M56.2,61.9c0-0.4,0-0.6,0-0.9c0-2.5,0-5,0-7.6c0-0.6-0.2-0.7-0.8-0.7c-1.9,0.2-3.7,0.4-5.6,0.5
	c-0.4,0-0.5,0.2-0.5,0.5c0,9.3,0,18.6,0,27.9c0,0.4,0.2,0.5,0.5,0.5c1.9,0,3.7,0,5.6,0c0.5,0,0.7-0.1,0.7-0.6c0-3.9,0-7.8,0-11.8
	c0-0.6,0.1-1.1,0.2-1.7c0.4-1.3,1.6-2.2,3-2c1.3,0,2.4,0.9,2.7,2.2c0.1,0.5,0.2,1.1,0.2,1.7c0,3.9,0,7.7,0,11.6
	c0,0.6,0.2,0.7,0.7,0.7c1.8,0,3.6,0,5.4,0c0.6,0,0.7-0.2,0.7-0.8c0-4.1,0-8.2,0-12.3c0-0.9-0.1-1.9-0.2-2.8
	c-0.6-3.6-2.6-5.8-6.2-6.2C60.4,59.8,58,60.4,56.2,61.9L56.2,61.9z M91.1,60.1c-1.5,0-3,0.3-4.4,0.8c-5.8,2.1-8.8,8.5-6.7,14.3
	c0.2,0.6,0.5,1.3,0.9,1.9c2.8,4.5,8.2,6.7,13.3,5.4c6.1-1.3,10-7.3,8.7-13.5c0-0.2-0.1-0.4-0.1-0.5C101.1,63.4,96.4,60,91.1,60.1
	L91.1,60.1z M201.3,75.1c-1.1,1.5-2.2,3-3.3,4.4c-0.3,0.3,0,0.4,0.2,0.6c2.9,2.4,6.8,3.3,10.5,2.5c3.5-0.4,6.1-3.3,6.2-6.9
	c0.1-3.4-1.4-5.6-4.7-6.6c-0.9-0.3-1.8-0.4-2.7-0.6c-0.7-0.1-1.3-0.3-1.9-0.7c-0.4-0.2-0.6-0.7-0.5-1.1c0.1-0.4,0.4-0.7,0.8-0.8
	c0.2-0.1,0.5-0.1,0.8-0.1c1.2-0.1,2.5,0.3,3.4,1c0.3,0.2,0.4,0.2,0.7-0.1c1.1-1.1,2.1-2.2,3.2-3.3c0.2-0.2,0.2-0.3,0-0.6
	c-2.8-2.5-6.7-3.4-10.2-2.3c-4.8,1.4-6.6,7.5-3.4,11.2c1.1,1.1,2.5,1.8,4,2.1c1.1,0.3,2.2,0.4,3.3,0.8c0.5,0.2,1,0.4,1,1.1
	s-0.4,1-1.1,1.2c-0.2,0.1-0.4,0.1-0.6,0.1C204.8,77.4,202.7,76.7,201.3,75.1L201.3,75.1z M138.1,75.4c-1.1,1.5-2.2,2.9-3.3,4.3
	c-0.2,0.3-0.1,0.4,0.1,0.6c3.5,2.9,7.4,3.3,11.6,2c3.4-1.1,5.1-3.9,4.8-7.4c-0.2-3.2-2-5-5.6-5.8h-0.1c-1-0.2-2-0.4-3-0.8
	c-0.8-0.3-1.2-0.8-1.1-1.4s0.6-0.8,1.5-0.9c1.2-0.1,2.5,0.2,3.4,1c0.3,0.2,0.4,0.2,0.7,0c1-1.1,2.1-2.2,3.1-3.2
	c0.3-0.3,0.3-0.5,0-0.7c-2.4-2.2-5.7-3.1-8.9-2.5c-4.1,0.7-6.4,3.5-6.1,7.6c0,2.3,1.4,4.5,3.6,5.4c1,0.4,2,0.7,3.1,0.9
	c0.8,0.1,1.6,0.4,2.4,0.7c0.4,0.1,0.7,0.5,0.7,0.9c0,0.4-0.2,0.8-0.6,1c-0.2,0.1-0.5,0.2-0.8,0.3C141.6,77.3,139.6,77.2,138.1,75.4
	L138.1,75.4z M40.6,82.8c0.8,0,1.6-0.1,2.4-0.2c2-0.3,3.8-1.1,5.4-2.3c0.3-0.3,0.3-0.5,0.1-0.8c-1-1.3-2-2.6-3-3.9
	c-0.3-0.4-0.5-0.5-0.9-0.1c-2.1,1.8-6.7,1.9-8.2-1.9c-1-2.1-0.5-4.7,1.3-6.3c2.1-1.6,5.1-1.5,7.1,0.1c0.3,0.2,0.4,0.2,0.7-0.1
	c0.9-1.3,1.8-2.7,2.8-3.9c0.4-0.5,0.3-0.8-0.2-1.1c-2.2-1.6-5-2.4-7.7-2.2c-4.5,0.2-8.1,2.2-10,6.4c-2.5,4.9-1.1,11,3.4,14.2
	C35.6,82.2,38.1,82.9,40.6,82.8L40.6,82.8z M78,67.6c0-4.7,0-9.5,0-14.2c0-0.5-0.1-0.6-0.6-0.6c-1.9,0.2-3.8,0.3-5.7,0.5
	c-0.4,0-0.5,0.2-0.5,0.6c0,9.3,0,18.7,0,28c0,0.4,0.1,0.5,0.5,0.5c1.9,0,3.8,0,5.6,0c0.5,0,0.6-0.1,0.6-0.6C78,77,78,72.3,78,67.6
	L78,67.6z M192.8,56.2c2.3,1.2,2.8,2.8,1.9,5.1c-0.4,1-0.9,2-1.4,2.9c-0.2,0.3-0.2,0.5,0.2,0.7c1,0.4,1.9,0.8,2.8,1.3
	c0.3,0.2,0.4,0.1,0.6-0.2c0.8-1.2,1.5-2.3,2.2-3.5c0.6-1.1,1-2.2,1.3-3.4c0.4-2.2-0.5-4.5-2.3-5.8c-0.3-0.2-0.5-0.3-0.8-0.1
	C195.7,54.3,194.3,55.3,192.8,56.2L192.8,56.2z M195.6,78.8c0-1.9-1.5-3.5-3.5-3.6c0,0-0.1,0-0.1,0c-2-0.1-3.6,1.5-3.7,3.4
	c-0.1,2,1.5,3.6,3.4,3.7c0.1,0,0.2,0,0.4,0C194,82.4,195.6,80.8,195.6,78.8C195.6,78.8,195.6,78.8,195.6,78.8z"/>
<path class="st1" d="M132.3,137c-0.5-0.2-1-0.3-1.6-0.2c-24.5-2.1-46.1-17.2-56.3-39.6c0-0.1-0.1-0.2-0.1-0.3H75h40.3h0.7
	c8.4,6.1,19.2,8.1,29.2,5.4c4.1-1,7.9-2.8,11.3-5.4h0.4h41.1h0.5c-0.1,0.2-0.1,0.4-0.2,0.5c-10.3,22.2-31.8,37.3-56.2,39.3
	c-0.7,0-1.4,0.1-2.1,0.2L132.3,137z M123.9,124.9l2.1,0.2c1.5,0.2,1.5,0.2,2.2-1.2c0.1-0.1,0.1-0.2,0.2-0.4c0.1-0.4,0.4-0.5,0.8-0.4
	c0.7,0.1,1.4,0.1,2.1,0.2s1.4-0.1,1.9,0.2s0.5,1.2,0.6,1.8c0,0.3,0.3,0.5,0.6,0.5c0.8,0.1,1.6,0.1,2.4,0.2s0.7,0,0.5-0.7l-3.1-11
	c-0.5-1.6-0.5-1.6-2.2-1.8l-0.7-0.1c-1.3-0.1-1.3-0.1-1.8,1l-0.5,1L123.9,124.9z M154.1,114.6c-0.2,0-0.2-0.2-0.3-0.3
	c-0.2-0.4-0.3-0.8-0.5-1.2s-0.1-0.5,0.3-0.6c1-0.3,1.9-0.7,2.9-1.1c0.3-0.1,0.4-0.2,0.3-0.6c-0.3-0.6-0.5-1.2-0.7-1.9
	c-0.1-0.4-0.3-0.4-0.6-0.3c-2,0.8-4,1.5-6,2.3c-0.4,0.1-0.5,0.3-0.3,0.6s0.4,1,0.6,1.4c1.2,3.3,2.5,6.5,3.7,9.8
	c0.1,0.2,0.1,0.6,0.5,0.4c2.1-0.8,4.2-1.6,6.3-2.4c0.3-0.1,0.3-0.2,0.2-0.5c-0.3-0.7-0.5-1.3-0.8-2c-0.1-0.4-0.3-0.3-0.6-0.2
	c-0.6,0.2-1.2,0.4-1.7,0.7c-1.6,0.6-1.6,0.6-2.2-1c-0.1-0.4-0.1-0.5,0.3-0.6c0.9-0.3,1.8-0.7,2.7-1c0.3-0.1,0.4-0.2,0.3-0.6
	c-0.3-0.6-0.5-1.3-0.7-1.9c-0.1-0.3-0.2-0.4-0.6-0.2c-0.9,0.4-1.7,0.7-2.6,1L154.1,114.6z M123.1,115.3c0.4-1.2,0.8-2.4,1.3-3.5
	c0.1-0.2,0-0.4-0.2-0.5c-1.5-1.4-3.6-2-5.7-1.7c-3.6,0.5-6.2,3.7-5.9,7.4c0.4,3.7,3.6,6.4,7.3,6.3c0.2,0,0.4,0,0.5-0.2
	c0.4-1.1,0.8-2.3,1.2-3.5c-2.7,0.8-4.7,0.1-5.4-1.9c-0.6-1.8,0.3-3.8,2-4.6C120.1,112.3,122,113.2,123.1,115.3L123.1,115.3z
	 M146.1,111.9l-6.8,1.1c-0.3,0-0.3,0.2-0.2,0.4c0.1,0.5,0.2,1,0.3,1.5c0.6,3.5,1.1,7,1.7,10.4c0.1,0.4,0.2,0.5,0.6,0.4
	c0.8-0.2,1.6-0.3,2.5-0.4c0.4,0,0.4-0.2,0.3-0.5c-0.2-1.3-0.4-2.6-0.7-3.9c-0.1-0.4-0.1-0.7,0.5-0.8c0.9-0.1,1.8-0.3,2.7-0.4
	c0.3,0,0.4-0.1,0.3-0.4c-0.1-0.7-0.3-1.4-0.4-2.2c0-0.3-0.2-0.4-0.4-0.3c-0.6,0.1-1.1,0.2-1.6,0.3c-1.6,0.3-1.6,0.3-1.9-1.3
	c-0.1-0.4,0-0.6,0.4-0.6c1-0.2,2.1-0.4,3.1-0.5c0.3,0,0.4-0.1,0.3-0.4c-0.1-0.7-0.3-1.4-0.4-2.1C146.3,112,146.3,111.8,146.1,111.9
	L146.1,111.9z"/>
<path class="st1" d="M74.3,40.7c1.8-4,4-7.8,6.5-11.4c6.8-9.7,16.1-17.4,26.8-22.4c6-2.8,12.4-4.7,19-5.7c2-0.3,3.9-0.5,5.9-0.6
	c0.1,0,0.3,0,0.4-0.1h7.5c0.1,0.2,0.4,0.1,0.5,0.1c1.1,0.1,2.2,0.2,3.3,0.3c15.2,1.8,29.4,8.6,40.3,19.5c4.1,4.1,7.7,8.7,10.6,13.7
	c1.3,2.1,2.4,4.3,3.4,6.5H198h-40.7H157c-0.1-0.1-0.2-0.2-0.3-0.3c-10.3-7.5-23.9-8.7-35.4-3.2c-2,0.9-3.9,2.1-5.7,3.5h-0.4H74.8
	L74.3,40.7z M108.8,25.5c0.4-1.5-0.2-3-1.5-3.9c-1.2-0.9-2.4-0.5-3.6,0.2c-0.2,0.1-0.4,0.3-0.6,0.4l-2.8,2c-1,0.7-1,0.7-0.3,1.8
	c2.2,3,4.3,6.1,6.5,9.1c0.1,0.2,0.2,0.6,0.6,0.3c1.6-1.2,3.4-2.3,4.9-3.6c0.9-0.7,1.4-1.7,1.5-2.8C113.5,26.4,111.3,24.9,108.8,25.5
	L108.8,25.5z M161.6,31.4c-0.1-0.3-0.1-0.6-0.2-0.8c-0.4-1.7-0.8-3.4-1.2-5.1c-0.1-0.5,0-0.7,0.5-0.6c0.3,0.1,0.7,0,1-0.1
	c1.4-0.4,2.4-1.5,2.8-2.9c0.4-1.3,0.1-2.7-0.9-3.6c-0.5-0.4-1-0.8-1.6-1.1c-1.5-0.7-3-1.3-4.5-2c-0.3-0.1-0.4-0.1-0.6,0.2
	c-1.6,3.7-3.3,7.4-5,11c-0.1,0.3-0.1,0.5,0.2,0.6c0.8,0.3,1.5,0.7,2.3,1c0.3,0.2,0.5,0.1,0.6-0.3c0.5-1.2,1-2.3,1.6-3.5
	c0.1-0.2,0.1-0.4,0.3-0.4c0.3,1.7,0.5,3.4,0.8,5.2c0,0.2,0,0.4,0.3,0.6L161.6,31.4z M141.2,24.1c-0.1-0.2-0.2-0.4-0.4-0.5
	c-1.7-1.8-3.4-3.7-5.1-5.5c-0.4-0.4-0.4-0.6-0.1-1.1c1.4-1.7,2.7-3.5,4-5.3c0.1-0.2,0.3-0.3,0.3-0.5c-0.4,0-0.8,0-1.2,0
	c-1-0.1-1.9,0-2.8,0.3c-0.7,0.4-1.1,1.4-1.6,2.1l-0.1,0.1l-2.1,3c-0.2-0.2-0.1-0.3-0.2-0.4c-0.1-1.4-0.2-2.8-0.2-4.2
	c0-0.4-0.2-0.6-0.6-0.5c-0.8,0.1-1.6,0.1-2.4,0.1c-0.3,0-0.5,0.1-0.5,0.5c0.1,1.7,0.2,3.4,0.3,5.1c0.1,2.3,0.3,4.5,0.3,6.8
	c0,0.6,0.2,0.7,0.8,0.7c0.7-0.1,1.5-0.1,2.2-0.1c0.4,0,0.5-0.1,0.5-0.5c-0.1-0.9-0.1-1.9-0.2-2.8c0-0.7-0.1-1.4-0.1-2.1
	c0.3,0.1,0.4,0.3,0.5,0.4c1.3,1.5,2.6,3,3.8,4.4c0.2,0.2,0.5,0.4,0.8,0.3C138.6,24.3,139.8,24.2,141.2,24.1L141.2,24.1z M115,29.4
	l1.7-0.6c1.6-0.6,1.6-0.6,1.7-2.3c0-0.1,0-0.2,0-0.3c-0.1-0.4,0.2-0.6,0.5-0.7c0.7-0.2,1.4-0.5,2.1-0.8c0.6-0.2,1.1-0.6,1.6-0.5
	s0.8,0.8,1.2,1.3c0.1,0.1,0.1,0.1,0.2,0.2c0.1,0.2,0.4,0.3,0.6,0.2c1-0.4,2-0.8,3-1.1c0-0.1,0-0.1-0.1-0.2
	c-2.9-3.4-5.8-6.7-8.7-10.1c-0.2-0.2-0.5-0.3-0.7-0.1c-0.8,0.3-1.6,0.6-2.5,0.9c-0.4,0.1-0.6,0.4-0.6,0.8c0,3.4-0.1,6.8-0.1,10.3
	C115,27.4,115,28.4,115,29.4z M146.9,17.3c0.1-0.6,0.2-1,0.3-1.5c0.1-0.5,0.2-0.4,0.6-0.4c1,0.2,2,0.4,3,0.6c0.4,0.1,0.5,0,0.6-0.4
	c0.1-0.6,0.2-1.2,0.4-1.8c0.1-0.3,0-0.5-0.4-0.6c-2.1-0.4-4.3-0.8-6.4-1.3c-0.3-0.1-0.4,0-0.5,0.3c-0.8,4-1.6,7.9-2.4,11.9
	c-0.1,0.4,0,0.5,0.4,0.6l6.4,1.3c0.3,0.1,0.4,0,0.4-0.3c0.1-0.7,0.3-1.4,0.4-2.1c0.1-0.3,0-0.4-0.3-0.5c-0.7-0.1-1.3-0.3-2-0.4
	s-1.2-0.1-1.4-0.4s0.1-1,0.2-1.5s0.2-0.6,0.7-0.5c0.9,0.2,1.8,0.3,2.6,0.6c0.5,0.1,0.6-0.1,0.6-0.5c0.1-0.6,0.2-1.2,0.4-1.8
	c0.1-0.4,0-0.5-0.4-0.5c-1-0.2-1.9-0.4-2.9-0.6C147.1,17.5,146.9,17.5,146.9,17.3z M177.6,27.9c-1.1-0.8-2-1.6-3-2.4
	c-0.2-0.1-0.4-0.1-0.6,0c-1,0.3-2.1,0.6-3.1,1c-0.4,0.1-0.6,0.1-0.5-0.4c0.1-0.7,0-1.5,0.2-2.2c0.3-0.9-0.1-2-1-2.4
	c-0.7-0.5-1.4-1-2.1-1.6c0,0.3,0,0.4-0.1,0.5c-0.1,2.4-0.2,4.8-0.3,7.2c0,0.4-0.1,0.7-0.4,1c-1.1,1.4-2.1,2.7-3.2,4.1
	c-0.2,0.3-0.2,0.4,0.1,0.7c0.6,0.5,1.3,1,1.9,1.5c0.3,0.3,0.5,0.3,0.8-0.1c1-1.3,2.1-2.6,3.1-4c0.3-0.4,0.7-0.6,1.1-0.7
	C172.7,29.4,175,28.7,177.6,27.9z"/>
<path class="st2" d="M174.2,82.3c-2.6,0-5.1,0-7.6,0c-0.4,0-0.4-0.2-0.5-0.4l-6.2-12.6l-0.2-0.3c-0.1,0.2-0.1,0.5-0.1,0.7
	c0,4,0,8,0,12c0,0.5-0.1,0.7-0.6,0.7c-1.9,0-3.8,0-5.7,0c-0.4,0-0.5-0.1-0.5-0.5c0-9.3,0-18.7,0-28c0-0.3,0-0.5,0.4-0.5
	c2-0.1,3.9-0.3,5.9-0.5c0.5,0,0.6,0.1,0.6,0.6c0,3.7,0,7.5,0,11.2c0,0.3-0.1,0.6,0.1,0.7s0.5-0.2,0.7-0.3c2.1-1.3,4.2-2.6,6.3-3.9
	c0.3-0.2,0.8-0.4,1.2-0.4c2.7,0,5.3,0,8,0c0.4,0,0.7,0.2,0.9,0.6c1.7,3.6,3.4,7.3,5.2,11l1.9-4.6l2.6-6.4c0.1-0.3,0.1-0.5,0.6-0.5
	c2.3,0,4.5,0,6.9,0c-0.5,1.2-1,2.3-1.5,3.4c-3.7,8.3-7.5,16.7-11.2,25c-0.1,0.4-0.5,0.6-0.9,0.5c0,0,0,0,0,0c-2-0.2-4-0.4-6-0.6
	c-0.5,0-0.4-0.2-0.3-0.5c1.4-2.8,2.8-5.7,4.2-8.5c0.2-0.4,0.2-0.8,0-1.2c-2.3-4.7-4.6-9.5-6.9-14.2c-0.2-0.4-0.4-0.5-0.8-0.2
	c-1.1,0.8-2.2,1.6-3.4,2.3c-0.4,0.3-0.4,0.4-0.2,0.9c2.3,4.6,4.7,9.2,7,13.9L174.2,82.3z"/>
<path class="st3" d="M112.5,54.4c0,1.9,0,3.9,0,5.8c0,0.5,0.1,0.6,0.6,0.6c7,0,13.9,0,20.9,0h0.8l-9.3,15.2h9.6
	c-0.6,2-1.1,3.9-1.7,5.9c-0.1,0.3-0.3,0.2-0.5,0.2h-18.1l9.6-15.5c-0.1-0.2-0.2-0.1-0.3-0.1c-3.7,0-7.4,0-11,0
	c-0.4,0-0.6,0.1-0.6,0.6c0,2.2,0,4.4,0,6.6c-0.2,1.2,0.6,2.4,1.9,2.6c0.2,0,0.3,0,0.5,0c0.4,0,0.9,0,1.3,0l-2.1,3.5
	c-0.5,0.9-1.1,1.8-1.6,2.6c-0.1,0.3-0.4,0.4-0.7,0.4c-0.4-0.1-0.9,0-1.3-0.1c-2.8-0.5-4.2-2-4.6-4.9c-0.2-1.8-0.3-3.6-0.2-5.3
	c0-1.7,0-3.4,0-5.2c0-0.4-0.1-0.6-0.6-0.6c-0.9,0-1.8,0-2.8,0c0.4-1.9,0.7-3.8,1.1-5.6c0-0.2,0.2-0.3,0.4-0.3h0.2
	c0.5,0,1.3,0.2,1.5-0.1s0.1-1,0.1-1.6s0-1.2,0-1.8c0-0.3,0-0.4,0.3-0.5c2.1-0.8,4.2-1.6,6.3-2.4C112.3,54.4,112.4,54.4,112.5,54.4z"
	/>
<path class="st3" d="M11.1,73.8c1.6,1.8,4.1,2.7,6.5,2.2c0.5-0.1,1-0.3,1.5-0.6c0.8-0.5,1.1-1.6,0.5-2.5c-0.1-0.2-0.3-0.4-0.5-0.5
	c-0.7-0.4-1.4-0.8-2.1-1c-1.5-0.5-3.1-1-4.6-1.7c-2.9-1.1-4.8-3.8-4.9-6.9c-0.4-3.3,1.3-6.5,4.2-8c4.3-2.4,8.7-2.1,13,0.1
	c0.7,0.4,1.4,0.9,2.1,1.4c0.3,0.2,0.3,0.3,0.1,0.6c-1.2,1.5-2.4,2.9-3.5,4.4c-0.3,0.3-0.4,0.2-0.7,0c-1.1-1.1-2.5-1.7-4.1-1.9
	c-0.8-0.1-1.6,0.1-2.4,0.5c-0.9,0.4-1.3,1.4-0.9,2.3c0.2,0.4,0.4,0.7,0.8,0.9c0.5,0.3,1.1,0.6,1.7,0.8c1.4,0.5,2.9,0.9,4.3,1.5
	c4.6,1.8,6.2,5.3,5.3,10.3c-0.4,2.7-2.3,4.9-4.8,5.9c-4.9,2.2-10.7,1.6-15.1-1.6c-0.2-0.1-0.3-0.3-0.5-0.4S6.8,79.3,7,79.1
	C8.4,77.4,9.7,75.6,11.1,73.8z"/>
<path class="st2" d="M56.2,61.9c1.8-1.5,4.1-2.1,6.4-1.7c3.6,0.5,5.7,2.6,6.2,6.2c0.1,0.9,0.2,1.9,0.2,2.8c0,4.1,0,8.2,0,12.3
	c0,0.6-0.1,0.8-0.7,0.8c-1.8,0-3.6,0-5.4,0c-0.5,0-0.7-0.1-0.7-0.7c0-3.9,0-7.7,0-11.6c0-0.6,0-1.1-0.2-1.7
	c-0.2-1.3-1.4-2.2-2.7-2.2c-1.4-0.2-2.6,0.7-3,2c-0.1,0.5-0.2,1.1-0.2,1.7c0,3.9,0,7.8,0,11.8c0,0.5-0.2,0.6-0.7,0.6
	c-1.9,0-3.7,0-5.6,0c-0.4,0-0.5-0.1-0.5-0.5c0-9.3,0-18.7,0-27.9c0-0.4,0-0.5,0.5-0.5c1.9-0.1,3.7-0.3,5.6-0.5
	c0.6-0.1,0.8,0.1,0.8,0.7c0,2.5,0,5,0,7.6C56.2,61.3,56.2,61.5,56.2,61.9z"/>
<path class="st4" d="M91.1,60.2c5.3-0.2,10,3.2,11.6,8.3c1.6,6-2,12.2-8,13.9c-0.2,0-0.4,0.1-0.5,0.1c-5.1,1.3-10.5-0.9-13.3-5.4
	c-3.1-5.3-1.3-12.2,4-15.3c0.6-0.3,1.2-0.6,1.9-0.9C88.1,60.4,89.6,60.1,91.1,60.2z M96.3,71.5c0-2.8-2.3-5.1-5.1-5.1
	c-2.8,0-5.1,2.3-5.1,5.1s2.3,5.1,5.1,5.1C94,76.6,96.2,74.3,96.3,71.5L96.3,71.5z"/>
<path class="st2" d="M201.3,75.1c1.4,1.6,3.5,2.3,5.5,2c0.2,0,0.4-0.1,0.6-0.1c0.7-0.2,1.1-0.6,1.1-1.2s-0.5-0.9-1-1.1
	c-1.1-0.4-2.2-0.5-3.3-0.8c-1.5-0.3-2.9-1-4-2.1c-3.2-3.6-1.4-9.7,3.4-11.2c3.6-1.1,7.5-0.2,10.3,2.3c0.2,0.2,0.3,0.3,0,0.6
	c-1.1,1.1-2.2,2.2-3.2,3.3c-0.2,0.3-0.4,0.3-0.7,0.1c-1-0.7-2.2-1.1-3.4-1c-0.3,0-0.5,0.1-0.8,0.1c-0.4,0.1-0.7,0.4-0.8,0.8
	c0,0.4,0.2,0.9,0.5,1.1c0.6,0.3,1.2,0.6,1.9,0.7c0.9,0.2,1.8,0.4,2.7,0.6c3.3,1,4.8,3.1,4.7,6.5c0,3.5-2.7,6.5-6.2,6.9
	c-3.7,0.8-7.6-0.1-10.5-2.5c-0.2-0.2-0.4-0.3-0.2-0.6C199.1,78.1,200.1,76.6,201.3,75.1z"/>
<path class="st2" d="M138.1,75.4c1.5,1.8,3.4,1.9,5.5,1.7c0.3,0,0.5-0.1,0.8-0.3c0.4-0.2,0.6-0.6,0.6-1c0-0.4-0.3-0.8-0.7-0.9
	c-0.8-0.3-1.6-0.5-2.4-0.7c-1.1-0.2-2.1-0.5-3.1-0.9c-2.2-0.9-3.6-3-3.6-5.3c-0.3-4,2-6.8,6.1-7.6c3.2-0.6,6.5,0.3,8.9,2.5
	c0.3,0.3,0.4,0.4,0,0.7c-1.1,1.1-2.1,2.1-3.1,3.2c-0.2,0.3-0.4,0.3-0.7,0c-1-0.8-2.2-1.1-3.4-1c-0.9,0.1-1.4,0.4-1.5,0.9
	s0.3,1.1,1.1,1.4c1,0.3,2,0.6,3,0.8h0.1c3.7,0.8,5.4,2.6,5.6,5.8c0.2,3.6-1.4,6.4-4.8,7.4c-4.1,1.3-8.1,0.9-11.6-2
	c-0.2-0.2-0.4-0.3-0.1-0.6C135.9,78.3,136.9,76.9,138.1,75.4z"/>
<path class="st2" d="M40.5,82.9c-2.5,0-4.9-0.7-7-2.1c-4.5-3.2-6-9.3-3.5-14.2c2-4.2,5.5-6.2,10-6.4c2.8-0.2,5.5,0.6,7.7,2.2
	c0.5,0.3,0.6,0.6,0.2,1.1c-1,1.3-1.9,2.6-2.8,3.9c-0.2,0.3-0.3,0.3-0.7,0.1c-2.1-1.7-5-1.7-7.1-0.1c-1.8,1.6-2.3,4.2-1.3,6.3
	c1.6,3.8,6.2,3.7,8.2,1.9c0.4-0.4,0.6-0.3,0.9,0.1c1,1.3,2,2.6,3,3.9c0.3,0.3,0.3,0.5-0.1,0.8c-1.5,1.2-3.3,2-5.3,2.3
	C42.1,82.8,41.4,82.8,40.5,82.9z"/>
<path class="st5" d="M78,67.6c0,4.7,0,9.4,0,14.1c0,0.5-0.2,0.6-0.6,0.6c-1.9,0-3.8,0-5.6,0c-0.4,0-0.5-0.1-0.5-0.5
	c0-9.3,0-18.7,0-28c0-0.4,0.1-0.5,0.5-0.6c1.9-0.1,3.8-0.3,5.7-0.5c0.5-0.1,0.6,0.1,0.6,0.6C78,58.1,78,62.9,78,67.6z"/>
<path class="st6" d="M115.6,40.7c1.8-1.4,3.7-2.6,5.7-3.5c11.5-5.5,25.1-4.2,35.4,3.2c0.1,0.1,0.2,0.2,0.3,0.3h-1.6h-39.2
	L115.6,40.7z"/>
<path class="st6" d="M156.5,96.9c-3.4,2.5-7.2,4.3-11.3,5.4c-10,2.7-20.8,0.8-29.2-5.4h1.4h38.5H156.5z"/>
<path class="st2" d="M192.8,56.3c1.5-1,3-1.9,4.4-2.9c0.3-0.2,0.6-0.1,0.8,0.1c1.8,1.3,2.7,3.6,2.3,5.8c-0.3,1.2-0.7,2.3-1.3,3.4
	c-0.6,1.2-1.4,2.3-2.2,3.5c-0.2,0.3-0.3,0.3-0.6,0.2c-0.9-0.4-1.9-0.9-2.8-1.3c-0.4-0.2-0.4-0.3-0.2-0.7c0.6-0.9,1-1.9,1.4-2.9
	C195.6,59,195,57.5,192.8,56.3z"/>
<path class="st7" d="M195.6,78.8c0,1.9-1.5,3.6-3.5,3.6c0,0,0,0-0.1,0c-2,0.1-3.7-1.4-3.8-3.4c-0.1-2,1.4-3.7,3.4-3.8
	c0.1,0,0.2,0,0.4,0c1.9,0,3.6,1.5,3.6,3.4C195.6,78.7,195.6,78.7,195.6,78.8z M192,75.9c-1.6,0-2.9,1.2-2.9,2.8c0,0,0,0.1,0,0.1
	c0,1.6,1.2,3,2.9,3c0,0,0,0,0,0c1.6,0,2.8-1.3,2.8-2.9c0,0,0,0,0,0c0.1-1.5-1.1-2.9-2.6-3C192.1,75.9,192.1,75.9,192,75.9L192,75.9z
	"/>
<path class="st8" d="M123.9,124.9l5.1-10.4l0.5-1c0.6-1.1,0.6-1.1,1.8-1l0.7,0.1c1.8,0.2,1.7,0.2,2.2,1.8l3.1,11
	c0.2,0.7,0.2,0.7-0.5,0.7s-1.6-0.1-2.4-0.2c-0.3,0-0.5-0.2-0.6-0.5c-0.2-0.6-0.1-1.5-0.6-1.8s-1.3-0.2-1.9-0.2s-1.4-0.1-2.1-0.2
	c-0.4-0.1-0.7,0-0.8,0.4c0,0.1-0.1,0.2-0.2,0.4c-0.7,1.4-0.7,1.4-2.2,1.2L123.9,124.9z M131.5,116.6c-0.6,1.3-1.1,2.5-1.6,3.6
	c-0.1,0.3-0.1,0.4,0.2,0.4c0.7,0,1.3,0.1,2,0.2c0.3,0,0.4-0.1,0.3-0.3L131.5,116.6z"/>
<path class="st8" d="M154.1,114.6l0.4-0.1c0.9-0.3,1.7-0.6,2.6-1c0.3-0.1,0.5-0.1,0.6,0.2c0.2,0.6,0.4,1.3,0.7,1.9
	c0.2,0.4,0,0.4-0.3,0.6c-0.9,0.3-1.8,0.7-2.7,1c-0.4,0.1-0.4,0.3-0.3,0.6c0.6,1.6,0.6,1.6,2.2,1c0.6-0.2,1.2-0.4,1.7-0.7
	c0.3-0.1,0.5-0.1,0.6,0.2c0.2,0.7,0.5,1.3,0.8,2c0.1,0.3,0,0.4-0.2,0.5c-2.1,0.8-4.2,1.6-6.3,2.4c-0.5,0.2-0.4-0.2-0.5-0.4
	c-1.2-3.2-2.5-6.5-3.7-9.8c-0.2-0.5-0.3-1-0.6-1.4s0-0.5,0.3-0.6c2-0.7,4-1.5,6-2.3c0.3-0.1,0.5-0.1,0.6,0.3
	c0.2,0.6,0.4,1.3,0.7,1.9c0.1,0.4,0,0.5-0.3,0.6c-1,0.4-1.9,0.7-2.9,1.1c-0.4,0.1-0.4,0.3-0.3,0.6s0.3,0.8,0.5,1.2
	C153.9,114.5,153.9,114.6,154.1,114.6z"/>
<path class="st8" d="M123.1,115.3c-1-2.1-3-3-4.8-2.3c-1.7,0.8-2.6,2.8-2,4.6c0.7,1.9,2.6,2.6,5.4,1.9c-0.4,1.2-0.8,2.3-1.2,3.5
	c-0.1,0.3-0.3,0.2-0.5,0.2c-3.7,0.2-6.9-2.6-7.3-6.3c-0.3-3.6,2.3-6.9,5.9-7.4c2.1-0.3,4.1,0.3,5.7,1.7c0.2,0.1,0.2,0.3,0.2,0.5
	C123.9,112.9,123.5,114.1,123.1,115.3z"/>
<path class="st8" d="M146,111.9c0.3-0.1,0.3,0.1,0.3,0.3c0.1,0.7,0.2,1.4,0.4,2.1c0.1,0.3,0,0.4-0.3,0.4c-1,0.2-2.1,0.4-3.1,0.5
	c-0.4,0.1-0.5,0.2-0.4,0.6c0.3,1.6,0.3,1.6,1.9,1.3c0.6-0.1,1.1-0.2,1.6-0.3c0.3-0.1,0.4,0,0.4,0.3c0.1,0.7,0.2,1.4,0.4,2.2
	c0.1,0.3-0.1,0.4-0.3,0.4c-0.9,0.1-1.8,0.4-2.7,0.4c-0.6,0.1-0.6,0.3-0.5,0.8c0.2,1.3,0.4,2.6,0.7,3.9c0.1,0.3,0,0.5-0.3,0.5
	c-0.8,0.1-1.7,0.2-2.5,0.4c-0.4,0.1-0.5-0.1-0.6-0.4c-0.6-3.5-1.1-7-1.7-10.4c-0.1-0.5-0.2-1-0.3-1.5c0-0.2-0.1-0.4,0.2-0.4
	L146,111.9z"/>
<path class="st8" d="M108.8,25.5c2.6-0.6,4.7,1,4.6,3.4c-0.1,1.1-0.6,2.1-1.5,2.8c-1.5,1.3-3.3,2.4-4.9,3.6
	c-0.4,0.3-0.5-0.1-0.6-0.3c-2.2-3-4.3-6.1-6.5-9.1c-0.7-1-0.7-1,0.3-1.8l2.8-2c0.2-0.1,0.4-0.3,0.6-0.4c1.2-0.7,2.4-1,3.6-0.2
	C108.5,22.4,109.1,24,108.8,25.5z M108.6,27.9c-0.5,0.1-0.9,0.3-1.3,0.6c-1,0.6-1,0.6-0.3,1.6c0.3,0.3,0.5,0.7,0.8,1
	c0.1,0.1,0.2,0.3,0.4,0.2c0.6-0.3,1.2-0.8,1.6-1.4c0.3-0.7,0-1.4-0.6-1.7C109,27.9,108.8,27.9,108.6,27.9z M105.1,24.3
	c-0.3,0-1.4,0.5-1.5,0.7c-0.1,0.4,0.4,0.6,0.5,1c0.1,0.1,0.1,0.2,0.2,0.3c0.7,0.9,0.9,0.9,1.6,0c0.1-0.1,0.1-0.2,0.2-0.3
	c0.3-0.6,0-1.3-0.6-1.6C105.3,24.3,105.2,24.3,105.1,24.3z"/>
<path class="st8" d="M161.6,31.4l-3.6-1.6c-0.3-0.1-0.2-0.3-0.3-0.6c-0.3-1.7-0.5-3.4-0.8-5.2c-0.3,0-0.3,0.3-0.3,0.4
	c-0.5,1.2-1.1,2.3-1.6,3.5c-0.1,0.3-0.3,0.4-0.6,0.3c-0.8-0.4-1.5-0.7-2.3-1c-0.4-0.2-0.4-0.3-0.2-0.6c1.7-3.7,3.3-7.3,5-11
	c0.1-0.3,0.3-0.4,0.6-0.2c1.5,0.7,3,1.4,4.5,2c0.6,0.3,1.1,0.6,1.5,1.1c1,0.9,1.4,2.3,0.9,3.6c-0.3,1.4-1.4,2.5-2.8,2.9
	c-0.3,0.1-0.7,0.1-1,0.1c-0.5-0.1-0.6,0.1-0.5,0.6c0.4,1.7,0.8,3.4,1.2,5.1C161.4,30.8,161.5,31,161.6,31.4z M160.9,20.5
	c-0.1-0.8-0.8-1.1-1.4-1.5c-0.3-0.2-0.5-0.2-0.7,0.2s-0.4,1-0.6,1.5c-0.5,1.2-0.5,1.2,0.8,1.5c0.8,0.2,1.7-0.3,1.9-1.1
	C161,20.9,161,20.7,160.9,20.5z"/>
<path class="st8" d="M141.2,24.1c-1.3,0.1-2.6,0.1-3.8,0.2c-0.3,0-0.6-0.1-0.8-0.3c-1.3-1.5-2.6-3-3.8-4.4c-0.1-0.1-0.2-0.3-0.5-0.4
	c0,0.7,0.1,1.4,0.1,2.1c0,0.9,0.1,1.9,0.2,2.8c0,0.4-0.1,0.5-0.5,0.5c-0.7,0-1.5,0-2.2,0.1c-0.6,0.1-0.7-0.1-0.8-0.7
	c-0.1-2.3-0.2-4.5-0.3-6.8c-0.1-1.7-0.2-3.4-0.3-5.1c0-0.4,0.1-0.5,0.5-0.5c0.8,0,1.6-0.1,2.4-0.1c0.4,0,0.6,0.1,0.6,0.5
	c0,1.4,0.1,2.8,0.2,4.2c0,0.1,0,0.3,0.2,0.4l2.1-3l0.1-0.1c0.5-0.7,0.9-1.8,1.6-2.1c0.9-0.3,1.9-0.4,2.8-0.3c0.4,0,0.8,0,1.2,0
	c0,0.2-0.2,0.3-0.3,0.5c-1.3,1.8-2.6,3.6-4,5.3c-0.3,0.4-0.3,0.7,0.1,1.1c1.7,1.8,3.4,3.7,5.1,5.5C141,23.7,141.1,23.9,141.2,24.1z"
	/>
<path class="st8" d="M115,29.4c0-1.1,0-2.1,0-3.1c0-3.4,0.1-6.8,0.1-10.3c-0.1-0.4,0.2-0.7,0.6-0.8c0.8-0.3,1.7-0.6,2.5-0.9
	c0.2-0.1,0.5-0.1,0.7,0.1c2.9,3.4,5.8,6.7,8.7,10.1c0,0,0,0.1,0.1,0.2c-1,0.4-2,0.7-3,1.1c-0.2,0.1-0.4,0-0.6-0.2
	c-0.1-0.1-0.1-0.1-0.2-0.2c-0.4-0.4-0.7-1.2-1.2-1.3s-1.1,0.3-1.6,0.5c-0.7,0.3-1.4,0.5-2.1,0.8c-0.4,0.1-0.6,0.3-0.5,0.7
	c0,0.1,0,0.2,0,0.3c-0.1,1.7-0.1,1.7-1.7,2.3L115,29.4z M118.4,18.8c0,1.3,0,2.6,0,3.8c0,0.3,0.1,0.3,0.3,0.2
	c0.6-0.3,1.3-0.5,1.9-0.7c0.3-0.1,0.2-0.3,0.1-0.5L118.4,18.8z"/>
<path class="st8" d="M146.9,17.3c0,0.2,0.2,0.2,0.4,0.3c0.9,0.2,1.9,0.4,2.9,0.6c0.3,0.1,0.5,0.2,0.4,0.5c-0.2,0.6-0.3,1.2-0.4,1.8
	c-0.1,0.4-0.2,0.6-0.6,0.5c-0.9-0.2-1.8-0.3-2.6-0.6c-0.4-0.1-0.6,0-0.7,0.5s-0.5,1.2-0.2,1.5s0.9,0.3,1.4,0.4s1.3,0.3,2,0.4
	c0.3,0.1,0.4,0.2,0.3,0.5c-0.2,0.7-0.3,1.4-0.4,2.1c0,0.3-0.1,0.3-0.4,0.3l-6.5-1.3c-0.3-0.1-0.5-0.2-0.4-0.6
	c0.8-4,1.6-7.9,2.4-11.9c0.1-0.3,0.2-0.4,0.5-0.3c2.1,0.4,4.3,0.9,6.4,1.3c0.4,0.1,0.5,0.3,0.4,0.6c-0.1,0.6-0.3,1.2-0.4,1.8
	c-0.1,0.4-0.2,0.5-0.6,0.4c-1-0.2-2-0.4-3-0.6c-0.4-0.1-0.5,0-0.6,0.4C147.1,16.2,147.1,16.8,146.9,17.3z"/>
<path class="st8" d="M177.6,27.9c-2.5,0.8-4.9,1.5-7.3,2.2c-0.4,0.1-0.8,0.4-1.1,0.7c-1,1.3-2.1,2.6-3.1,4c-0.3,0.4-0.5,0.4-0.8,0.1
	c-0.6-0.5-1.2-1-1.9-1.5c-0.3-0.2-0.3-0.4-0.1-0.7c1.1-1.4,2.1-2.7,3.2-4.1c0.2-0.3,0.4-0.6,0.4-1c0.1-2.4,0.2-4.8,0.3-7.2
	c0-0.1,0-0.3,0.1-0.5c0.7,0.6,1.4,1.1,2.1,1.6c0.9,0.4,1.3,1.5,1,2.4c-0.1,0.7-0.1,1.5-0.2,2.2c0,0.5,0.1,0.5,0.5,0.4
	c1-0.3,2.1-0.7,3.1-1c0.2-0.1,0.4-0.1,0.6,0C175.5,26.4,176.5,27.1,177.6,27.9z"/>
<path class="st0" d="M96.3,71.5c0,2.8-2.3,5.1-5.1,5.1c-2.8,0-5.1-2.3-5.1-5.1s2.3-5.1,5.1-5.1C94,66.4,96.2,68.7,96.3,71.5z"/>
<path class="st9" d="M192,75.9c1.6,0,2.8,1.3,2.8,2.8c0,0.1,0,0.1,0,0.2c0,1.6-1.2,2.9-2.8,2.9c0,0,0,0-0.1,0c-1.6,0-2.9-1.4-2.9-3
	c0,0,0,0,0,0c0-1.6,1.2-2.9,2.8-2.9C191.9,75.9,192,75.9,192,75.9z M192.6,79.1l0.3-0.1c0.6-0.2,0.9-0.8,0.7-1.3
	c-0.1-0.5-0.5-0.9-1-0.9c-0.6-0.1-1.1,0-1.7,0c-0.3,0-0.3,0.1-0.3,0.4c0,1.1,0,2.3,0,3.4c0,0.2,0.1,0.3,0.3,0.3s0.4-0.1,0.3-0.3
	c0-0.3,0-0.6,0-0.9c0-0.2-0.1-0.4,0.2-0.5s0.5-0.1,0.7,0.2s0.4,0.7,0.6,1.1c0.1,0.3,0.5,0.5,0.8,0.5c0.1,0,0.1-0.1,0.2-0.1
	L192.6,79.1z"/>
<path class="st10" d="M131.5,116.6l0.9,3.9c0.1,0.3,0,0.4-0.3,0.3c-0.7-0.1-1.3-0.1-2-0.2c-0.3,0-0.4-0.1-0.2-0.4
	C130.4,119.1,130.9,117.9,131.5,116.6z"/>
<path class="st10" d="M108.6,27.9c0.7,0,1.3,0.6,1.3,1.3c0,0.2,0,0.4-0.1,0.6c-0.4,0.6-1,1.1-1.6,1.5c-0.2,0.2-0.3-0.1-0.4-0.2
	c-0.3-0.3-0.5-0.7-0.8-1c-0.7-0.9-0.7-0.9,0.3-1.6C107.7,28.2,108.2,28,108.6,27.9z"/>
<path class="st10" d="M105.1,24.3c0.7,0.1,1.2,0.6,1.1,1.3c0,0.1,0,0.3-0.1,0.4c-0.1,0.1-0.1,0.2-0.2,0.3c-0.7,0.9-0.9,0.9-1.6,0
	c-0.1-0.1-0.1-0.2-0.2-0.3c-0.2-0.3-0.6-0.5-0.5-1C103.7,24.8,104.7,24.3,105.1,24.3z"/>
<path class="st10" d="M160.9,20.5c0.1,0.9-0.5,1.6-1.3,1.8c-0.2,0-0.4,0-0.7-0.1c-1.3-0.3-1.3-0.3-0.8-1.5c0.2-0.5,0.5-1,0.6-1.5
	s0.3-0.4,0.7-0.2C160.2,19.4,160.9,19.8,160.9,20.5z"/>
<path class="st10" d="M118.4,18.8l2.3,3c0.2,0.2,0.3,0.3-0.1,0.5c-0.6,0.2-1.3,0.4-1.9,0.7c-0.3,0.1-0.3,0-0.3-0.2
	C118.4,21.4,118.4,20.1,118.4,18.8z"/>
<path class="st7" d="M192.6,79.1l1.1,1.7c-0.3,0.2-0.7,0.1-0.9-0.2c0-0.1-0.1-0.1-0.1-0.2c-0.2-0.4-0.4-0.7-0.6-1.1
	s-0.4-0.3-0.7-0.2s-0.1,0.3-0.2,0.5c0,0.3,0,0.6,0,0.9c0,0.3-0.1,0.3-0.3,0.3s-0.3-0.1-0.3-0.3c0-1.1,0-2.3,0-3.4
	c0-0.2,0-0.4,0.3-0.4c0.6,0,1.1,0,1.7,0c0.5,0,0.9,0.4,1,0.9c0.2,0.6-0.2,1.2-0.7,1.3L192.6,79.1z M191.8,78.5h0.4
	c0.4,0,0.7-0.2,0.7-0.6s-0.3-0.6-0.7-0.6c-0.1,0-0.3,0-0.4,0c-0.5-0.1-0.7,0.1-0.6,0.6S191.3,78.6,191.8,78.5L191.8,78.5z"/>
<path class="st9" d="M191.8,78.5c-0.5,0.1-0.6-0.1-0.6-0.6s0.2-0.7,0.6-0.6c0.1,0,0.3,0,0.4,0c0.4,0,0.7,0.2,0.7,0.6
	s-0.3,0.6-0.7,0.6L191.8,78.5z"/>
</svg>
