<?xml version="1.0" encoding="utf-8"?>
<!-- Generator: Adobe Illustrator 21.1.0, SVG Export Plug-In . SVG Version: 6.00 Build 0)  -->
<svg version="1.1" id="Layer_1" xmlns="http://www.w3.org/2000/svg" xmlns:xlink="http://www.w3.org/1999/xlink" x="0px" y="0px"
	 viewBox="0 0 181 23" style="enable-background:new 0 0 181 23;" xml:space="preserve">
<style type="text/css">
	.st0{fill:#EE3A43;}
</style>
<title>Grocery</title>
<path class="st0" d="M126.6,22.4l1.6-5.2l1.4-4.5l1.6-5.2l1.6-4.8c0.2-0.6,0.4-1.3,0.6-1.9c0.1-0.1,0.2-0.2,0.3-0.2h5.8
	c0.3,0,0.3,0.1,0.2,0.3c-0.3,1-0.6,2-0.9,3.1c-0.4,1.4-0.8,2.8-1.3,4.2s-0.9,2.5-1.3,3.8c0,0.1-0.1,0.2-0.1,0.4
	c0.1,0,0.3-0.1,0.4-0.2c1.6-1,3.2-2,4.8-3c0.9-0.6,1.9-0.9,2.9-0.9c2,0,4,0,6.1,0.1l-0.3,0.3l-8.6,6.4c-0.2,0.1-0.3,0.2-0.1,0.4
	c0.5,0.8,1.1,1.6,1.6,2.4c0.1,0.2,0.3,0.3,0.5,0.2c1.3,0,2.6,0,4,0c1.2,0,2.4-0.2,3.5-0.8c0.8-0.4,1.4-1,1.8-1.8c1-1.9,2-3.8,3-5.6
	c0.9-1.9,2.1-3.6,3.5-5.2c1.6-1.7,3.6-2.9,5.8-3.6c1.4-0.4,2.8-0.6,4.3-0.6h6.5c0.1,0,0.1,0,0.2,0c-0.1,1.1-0.4,2.2-0.9,3.2
	c-0.3,0.5-0.9,0.9-1.5,1c-0.6,0.1-1.1,0.2-1.7,0.3c-0.8,0.1-1.7,0.1-2.5,0.1c-0.9,0.1-1.8,0.5-2.6,1c-1.1,0.7-2,1.7-2.6,2.8
	c-1.1,1.9-2.1,3.9-3.2,5.8c-0.7,1.5-1.7,2.8-2.8,4c-1.2,1.2-2.5,2.2-4,3c-0.6,0.3-1.3,0.5-2.1,0.5H143c-1.3,0-2.7,0-4,0
	c-0.3,0-0.5-0.1-0.7-0.4c-1.1-1.5-2.2-3.1-3.3-4.6c-0.1-0.1-0.1-0.2-0.3-0.3c-0.2,0.4-0.3,0.7-0.4,1.1c-0.5,1.3-1,2.6-1.5,3.9
	c0,0.2-0.2,0.3-0.4,0.3L126.6,22.4L126.6,22.4z"/>
<path class="st0" d="M41,22.4c0.3-1,0.6-1.9,0.9-2.8c0.6-1.7,1.1-3.4,1.7-5c0.8-2.5,1.7-5,2.5-7.4c0.7-2.1,1.4-4.2,2.1-6.3
	c0-0.2,0.2-0.3,0.4-0.3l5.8,0.1c0.2,0,0.3,0.1,0.2,0.3c-0.5,1.6-1.1,3.2-1.6,4.8c-0.3,0.8-0.6,1.7-0.9,2.5c-0.1,0.2,0,0.3,0.2,0.3
	c1.5,0,3.1-0.1,4.6,0c1.7,0,3.4,0.1,5.1,0.2c0.5,0,0.9,0.3,1.1,0.8c0.2,0.4,0.3,0.7,0.4,1.1c0.1,0.7,0.1,1.4-0.2,2.1
	c-0.7,2.2-1.4,4.4-2.1,6.7c-0.3,1-0.6,1.9-0.9,2.9c-0.1,0.2-0.1,0.3-0.3,0.3c-1.2,0-2.4,0-3.6,0c-0.5,0-1-0.1-1.4-0.3
	c-0.5-0.1-0.8-0.5-0.8-1c0-0.8,0.1-1.6,0.4-2.3l1.6-4.7c0.2-0.4,0.1-0.9-0.1-1.2c-0.2-0.3-0.5-0.5-0.8-0.5c-1.4,0-2.9,0-4.3,0
	c-0.2,0-0.5,0.1-0.5,0.4c-0.4,1.2-0.8,2.3-1.2,3.4c-0.7,2-1.4,3.9-2.1,5.9c0,0.2-0.2,0.4-0.5,0.3c-1.8,0-3.7,0-5.5,0L41,22.4z"/>
<path class="st0" d="M0.5,22.4l0.6-1.9c0.2-0.6,0.4-1.2,0.6-1.8c0-0.2,0.2-0.3,0.4-0.3c1.3,0,2.6,0,3.9-0.1c1.2,0,2.4-0.2,3.5-0.7
	c1.3-0.6,2.4-1.5,3.3-2.6c1.2-1.6,2.1-3.2,2.9-5c0.7-1.4,1.4-2.8,2.3-4.1c1.3-2,3.2-3.5,5.3-4.3c1-0.4,2.1-0.7,3.2-0.8
	c1.2-0.1,2.4-0.2,3.6-0.2c1.6,0,3.2,0,4.9,0c0.3,0,0.4,0.1,0.3,0.4c-0.1,0.9-0.3,1.8-0.6,2.6c-0.3,0.7-1,1.2-1.8,1.2
	c-1.1,0.1-2.3,0.3-3.4,0.4c-1.6,0.1-3.1,0.8-4.2,2c-1,1.1-1.8,2.3-2.5,3.6c-1,1.8-1.9,3.6-2.9,5.3c-0.9,1.7-2.2,3.2-3.8,4.4
	c-1,0.7-2.1,1.2-3.3,1.4c-2.8,0.5-5.6,0.8-8.5,0.6H0.8L0.5,22.4z"/>
<path class="st0" d="M62.9,22.4c0.1-0.4,0.2-0.7,0.3-1l1.9-5.8c0.7-2.3,1.5-4.6,2.2-6.8c0-0.2,0.2-0.3,0.4-0.3h15.5
	c1.1,0,2.1,0.8,2.4,1.9c0,0.2,0,0.4,0,0.6c-0.3,1-0.5,1.9-0.8,2.9c-0.3,1.2-0.6,2.3-0.9,3.5l-0.9,3.5c-0.1,0.4-0.2,0.8-0.3,1.3
	c0,0.2-0.2,0.3-0.3,0.3c0,0,0,0,0,0h-4.2c-0.2,0-0.3,0-0.5,0c-0.5,0.1-1.1-0.3-1.2-0.8c0-0.1,0-0.2,0-0.3c0-0.4,0-0.8,0.2-1.2
	c0.6-2.2,1.2-4.4,1.8-6.7c0.1-0.2,0-0.5-0.2-0.6c-0.3-0.3-0.7-0.4-1.1-0.4H74c-0.2,0-0.4,0-0.7,0c-0.2,0-0.4,0.1-0.4,0.3
	c-0.5,1.5-1.1,3-1.6,4.5s-1.1,3.3-1.7,5c-0.1,0.2-0.2,0.2-0.4,0.2h-5.9L62.9,22.4z"/>
<path class="st0" d="M109,8.4l-0.5,1.4c-0.6,1.6-1.1,3.3-1.7,4.9c-0.7,2-1.3,4-2,6.1c-0.1,0.4-0.3,0.8-0.4,1.3
	c0,0.2-0.2,0.4-0.5,0.4c0,0,0,0,0,0c-0.4,0-0.9,0-1.4,0H88.9c-1.3,0-2.5-1-2.6-2.4c0-0.4,0.1-0.7,0.2-1.1c0.6-2,1.2-4,1.8-6
	c0.4-1.4,0.8-2.9,1.2-4.3c0-0.2,0.1-0.3,0.3-0.2h6.1c0.1,0,0.2,0,0.2,0l-0.5,1.4c-0.5,1.5-1,2.9-1.4,4.4c-0.3,0.9-0.5,1.7-0.6,2.6
	c-0.2,0.5,0.1,1.1,0.7,1.2c0.1,0,0.3,0.1,0.4,0H99c0.2,0,0.4-0.1,0.4-0.3c0.9-2.4,1.9-4.8,2.8-7.2c0.3-0.7,0.5-1.3,0.8-2
	c0-0.2,0.3-0.4,0.5-0.3c1.7,0,3.4,0,5.1,0L109,8.4z"/>
<path class="st0" d="M42.7,8.4c-0.2,0.9-0.4,1.6-0.7,2.4c-0.2,0.9-1.1,1.5-2,1.4c-1.4,0-2.7,0-4.1,0.1c-1,0-2,0.1-3,0.2
	c-1.1,0.2-1.9,0.9-2.2,2c-0.3,0.9-0.3,1.8-0.1,2.7c0.2,0.5,0.7,0.9,1.2,0.9h7.5c0.5,0,0.5,0,0.3,0.5c-0.4,1.2-0.8,2.3-1.2,3.5
	c0,0.2-0.2,0.3-0.4,0.3c-2.3,0-4.7,0.1-7,0.1c-1.3,0-2.7-0.1-4-0.5c-1.5-0.3-2.8-1.5-3.1-3c-0.3-1.2-0.3-2.4,0-3.6
	c0.3-1.6,1-3.1,2-4.4c0.9-1.2,2.2-2,3.7-2.4c1.8-0.4,3.7-0.5,5.6-0.3c0.7,0,1.3,0,2,0L42.7,8.4L42.7,8.4z"/>
<path class="st0" d="M127.7,8.4c-0.2,0.8-0.4,1.6-0.7,2.4c-0.2,0.9-1.1,1.5-2,1.4c-1.7,0-3.4,0-5,0.1c-0.7,0-1.4,0.1-2.1,0.2
	c-1.1,0.2-1.9,1-2.2,2c-0.3,0.8-0.3,1.7-0.1,2.5c0.1,0.6,0.7,1,1.3,1h7.4h0.5c-0.1,0.3-0.2,0.6-0.3,0.9c-0.4,1-0.7,2-1.1,3
	c0,0.2-0.2,0.3-0.4,0.3c-1.6,0-3.1,0-4.7,0s-2.9,0-4.3-0.1c-1.2,0-2.4-0.4-3.5-1.1c-0.8-0.6-1.4-1.5-1.6-2.4c-0.5-2.3,0-4.8,1.3-6.8
	c0.7-1.3,1.8-2.3,3.1-2.9c0.8-0.3,1.6-0.6,2.4-0.7c1.5-0.2,3.1-0.2,4.6-0.1c0.6,0,1.1,0,1.6,0h5.7L127.7,8.4z"/>
<path class="st0" d="M178.8,3.9c-0.9,0-1.7-0.8-1.7-1.7c0-0.9,0.8-1.7,1.7-1.7c0.9,0,1.7,0.8,1.7,1.7v0
	C180.5,3.1,179.7,3.9,178.8,3.9z M178.8,0.7c-0.8,0-1.5,0.7-1.5,1.5c0,0.8,0.7,1.5,1.5,1.5c0.8,0,1.5-0.7,1.5-1.5
	C180.3,1.4,179.6,0.7,178.8,0.7C178.8,0.7,178.8,0.7,178.8,0.7L178.8,0.7z"/>
<path class="st0" d="M178.1,3.1V1.4h0.8c0.1,0,0.3,0,0.4,0c0.1,0,0.2,0.1,0.2,0.2c0.1,0.1,0.1,0.2,0.1,0.3c0,0.1,0,0.2-0.1,0.3
	c-0.1,0.1-0.2,0.2-0.4,0.2c0.1,0,0.1,0.1,0.2,0.2c0.1,0.1,0.1,0.2,0.2,0.3l0.2,0.4h-0.4L179,2.7c-0.1-0.1-0.1-0.2-0.2-0.3
	c0,0-0.1-0.1-0.1-0.1h-0.2h-0.1v0.8L178.1,3.1z M178.5,2.1h0.3c0.1,0,0.2,0,0.3,0c0,0,0.1,0,0.1-0.1c0,0,0-0.1,0-0.1
	c0,0,0-0.1,0-0.2c0,0-0.1-0.1-0.1-0.1h-0.6L178.5,2.1z"/>
</svg>
