<svg id="Layer_1" data-name="Layer 1" xmlns="http://www.w3.org/2000/svg" xmlns:xlink="http://www.w3.org/1999/xlink" viewBox="0 0 250 250"><defs><style>.cls-1{fill:#fff;}.cls-2,.cls-3{fill:#f1f2f2;}.cls-2{stroke:#474646;stroke-linecap:round;stroke-linejoin:round;stroke-width:0.5px;}.cls-4{fill:#6f0f10;}.cls-5{fill:#700f10;}.cls-6{fill:#710f11;}.cls-7{fill:#720f11;}.cls-8{fill:#731011;}.cls-9{fill:#741012;}.cls-10{fill:#751012;}.cls-11{fill:#761012;}.cls-12{fill:#761112;}.cls-13{fill:#771113;}.cls-14{fill:#781113;}.cls-15{fill:#791113;}.cls-16{fill:#7a1213;}.cls-17{fill:#7b1214;}.cls-18{fill:#7c1214;}.cls-19{fill:#7d1214;}.cls-20{fill:#7e1214;}.cls-21{fill:#7f1315;}.cls-22{fill:#801315;}.cls-23{fill:#811315;}.cls-24{fill:#821316;}.cls-25{fill:#831416;}.cls-26{fill:#841416;}.cls-27{fill:#851416;}.cls-28{fill:#861417;}.cls-29{fill:#871417;}.cls-30{fill:#881517;}.cls-31{fill:#891517;}.cls-32{fill:#8a1518;}.cls-33{fill:#8b1518;}.cls-34{fill:#8c1518;}.cls-35{fill:#8d1618;}.cls-36{fill:#8e1618;}.cls-37{fill:#8f1619;}.cls-38{fill:#901619;}.cls-39{fill:#911619;}.cls-40{fill:#921619;}.cls-41{fill:#931619;}.cls-42{fill:#94171a;}.cls-43{fill:#95171a;}.cls-44{fill:#96171a;}.cls-45{fill:#97171a;}.cls-46{fill:#97171b;}.cls-47{fill:#98171b;}.cls-48{fill:#99181b;}.cls-49{fill:#9a181b;}.cls-50{fill:#9b181b;}.cls-51{fill:#9c181c;}.cls-52{fill:#9d181c;}.cls-53{fill:#9e181c;}.cls-54{fill:#a0181c;}.cls-55{fill:#a1191c;}.cls-56{fill:#a2191d;}.cls-57{fill:#a3191d;}.cls-58{fill:#a4191d;}.cls-59{fill:#a5191d;}.cls-60{fill:#a6191d;}.cls-61{fill:#a7191d;}.cls-62{fill:#a8191e;}.cls-63{fill:#a91a1e;}.cls-64{fill:#aa1a1e;}.cls-65{fill:#ab1a1e;}.cls-66{fill:#ac1a1e;}.cls-67{fill:#ad1a1e;}.cls-68{fill:#ae1a1f;}.cls-69{fill:#af1a1f;}.cls-70{fill:#b01a1f;}.cls-71{fill:#b11a1f;}.cls-72{fill:#b21a1f;}.cls-73{fill:#b31a1f;}.cls-74{fill:#b41b20;}.cls-75{fill:#b51b20;}.cls-76{fill:#b61b20;}.cls-77{fill:#b71b20;}.cls-78{fill:#b81b20;}.cls-79{fill:#b91b20;}.cls-80{fill:#ba1b20;}.cls-81{fill:#bc1b20;}.cls-82{fill:#bd1b21;}.cls-83{fill:#be1b21;}.cls-84{fill:#bf1b21;}.cls-85{fill:#c01b21;}.cls-86{fill:#c11b21;}.cls-87{fill:#c21b21;}.cls-88{fill:#c31b21;}.cls-89{fill:#c41b22;}.cls-90{fill:#c51b22;}.cls-91{fill:#c61c22;}.cls-92{fill:#c71c22;}.cls-93{fill:#c81c22;}.cls-94{fill:#ca1c22;}.cls-95{fill:#cb1c22;}.cls-96{fill:#cc1c22;}.cls-97{fill:#cd1c22;}.cls-98{fill:#ce1c23;}.cls-99{fill:#cf1c23;}.cls-100{fill:#d01c23;}.cls-101{fill:#d11c23;}.cls-102{fill:#d21c23;}.cls-103{fill:#d41c23;}.cls-104{fill:#d51c23;}.cls-105{fill:#d61c23;}.cls-106{fill:#d71c23;}.cls-107{fill:#d81c23;}.cls-108{fill:#d91c23;}.cls-109{fill:#da1d24;}.cls-110{fill:#dc1d24;}.cls-111{fill:#dd1d24;}.cls-112{fill:#de1d24;}.cls-113{fill:#df1d24;}.cls-114{fill:#e11d24;}.cls-115{fill:#e21d24;}.cls-116{fill:#e41d24;}.cls-117{fill:#e51d24;}.cls-118{fill:#e71d24;}.cls-119{fill:#e91c24;}.cls-120{fill:#eb1c24;}.cls-121{fill:#ed1c24;}.cls-122{fill:url(#linear-gradient);}.cls-123{fill:url(#linear-gradient-2);}.cls-124{fill:url(#linear-gradient-3);}.cls-125{fill:url(#linear-gradient-4);}.cls-126{fill:url(#linear-gradient-5);}.cls-127{fill:url(#linear-gradient-6);}.cls-128{fill:#58595b;}.cls-129{fill:#595a5c;}.cls-130{fill:#595a5d;}.cls-131{fill:#5a5b5d;}.cls-132{fill:#5b5c5e;}.cls-133{fill:#5c5c5f;}.cls-134{fill:#5c5d5f;}.cls-135{fill:#5d5e60;}.cls-136{fill:#5e5f61;}.cls-137{fill:#5e5f62;}.cls-138{fill:#5f6062;}.cls-139{fill:#606163;}.cls-140{fill:#606164;}.cls-141{fill:#616264;}.cls-142{fill:#626365;}.cls-143{fill:#626366;}.cls-144{fill:#636466;}.cls-145{fill:#646567;}.cls-146{fill:#646568;}.cls-147{fill:#656668;}.cls-148{fill:#666769;}.cls-149{fill:#66676a;}.cls-150{fill:#67686a;}.cls-151{fill:#67696b;}.cls-152{fill:#68696c;}.cls-153{fill:#696a6c;}.cls-154{fill:#696b6d;}.cls-155{fill:#6a6b6e;}.cls-156{fill:#6b6c6e;}.cls-157{fill:#6b6d6f;}.cls-158{fill:#6c6d70;}.cls-159{fill:#6d6e70;}.cls-160{fill:#6d6f71;}.cls-161{fill:#6e6f72;}.cls-162{fill:#6e7072;}.cls-163{fill:#6f7073;}.cls-164{fill:#707174;}.cls-165{fill:#707274;}.cls-166{fill:#717275;}.cls-167{fill:#717375;}.cls-168{fill:#727476;}.cls-169{fill:#737477;}.cls-170{fill:#737577;}.cls-171{fill:#747578;}.cls-172{fill:#747679;}.cls-173{fill:#757779;}.cls-174{fill:#76777a;}.cls-175{fill:#76787a;}.cls-176{fill:#77797b;}.cls-177{fill:#78797c;}.cls-178{fill:#787a7c;}.cls-179{fill:#797a7d;}.cls-180{fill:#797b7e;}.cls-181{fill:#7a7c7e;}.cls-182{fill:#7b7c7f;}.cls-183{fill:#7b7d7f;}.cls-184{fill:#7c7d80;}.cls-185{fill:#7c7e81;}.cls-186{fill:#7d7f81;}.cls-187{fill:#7d7f82;}.cls-188{fill:#7e8082;}.cls-189{fill:#7f8083;}.cls-190{fill:#7f8184;}.cls-191{fill:#808284;}.cls-192{fill:#808285;}.cls-193{fill:#818385;}.cls-194{fill:#828386;}.cls-195{fill:#828487;}.cls-196{fill:#838587;}.cls-197{fill:#838588;}.cls-198{fill:#848688;}.cls-199{fill:#858689;}.cls-200{fill:#85878a;}.cls-201{fill:#86888a;}.cls-202{fill:#86888b;}.cls-203{fill:#87898b;}.cls-204{fill:#88898c;}.cls-205{fill:#888a8d;}.cls-206{fill:#898b8d;}.cls-207{fill:#898b8e;}.cls-208{fill:#8a8c8e;}.cls-209{fill:#8a8c8f;}.cls-210{fill:#8b8d90;}.cls-211{fill:#8c8e90;}.cls-212{fill:#8c8e91;}.cls-213{fill:#8d8f92;}.cls-214{fill:#8e9093;}.cls-215{fill:#8f9193;}.cls-216{fill:#8f9194;}.cls-217{fill:#909295;}.cls-218{fill:#909395;}.cls-219{fill:#919396;}.cls-220{fill:#929496;}.cls-221{fill:#929497;}.cls-222{fill:#939598;}.cls-223{fill:#939698;}.cls-224{fill:#949699;}.cls-225{fill:#959799;}.cls-226{fill:#95979a;}.cls-227{fill:#96989b;}.cls-228{fill:#97999b;}.cls-229{fill:#97999c;}.cls-230{fill:#989a9c;}.cls-231{fill:#989a9d;}.cls-232{fill:#999b9e;}.cls-233{fill:#9a9c9e;}.cls-234{fill:#9a9c9f;}.cls-235{fill:#9b9da0;}.cls-236{fill:#9b9ea0;}.cls-237{fill:#9c9ea1;}.cls-238{fill:#9d9fa1;}.cls-239{fill:#9d9fa2;}.cls-240{fill:#9ea0a3;}.cls-241{fill:#9fa1a3;}.cls-242{fill:#9fa1a4;}.cls-243{fill:#a0a2a5;}.cls-244{fill:#a0a3a5;}.cls-245{fill:#a1a3a6;}.cls-246{fill:#a2a4a6;}.cls-247{fill:#a2a4a7;}.cls-248{fill:#a3a5a8;}.cls-249{fill:#a4a6a8;}.cls-250{fill:#a4a6a9;}.cls-251{fill:#a5a7aa;}.cls-252{fill:#a5a8aa;}.cls-253{fill:#a6a8ab;}.cls-254{fill:#a7a9ab;}.cls-255{fill:#a7aaac;}.cls-256{fill:#a8aaad;}.cls-257{fill:#a9abad;}.cls-258{fill:#a9abae;}.cls-259{fill:#aaacaf;}.cls-260{fill:#abadaf;}.cls-261{fill:#abadb0;}.cls-262{fill:#acaeb0;}.cls-263{fill:#adafb1;}.cls-264{fill:#adafb2;}.cls-265{fill:#aeb0b2;}.cls-266{fill:#aeb1b3;}.cls-267{fill:#afb1b4;}.cls-268{fill:#b0b2b4;}.cls-269{fill:#b0b2b5;}.cls-270{fill:#b1b3b6;}.cls-271{fill:#b2b4b6;}.cls-272{fill:#b2b4b7;}.cls-273{fill:#b3b5b7;}.cls-274{fill:#b4b6b8;}.cls-275{fill:#b4b6b9;}.cls-276{fill:#b5b7b9;}.cls-277{fill:#b6b8ba;}.cls-278{fill:#b6b8bb;}.cls-279{fill:#b7b9bb;}.cls-280{fill:#b8babc;}.cls-281{fill:#b8babd;}.cls-282{fill:#b9bbbd;}.cls-283{fill:#babcbe;}.cls-284{fill:#bbbdbf;}.cls-285{fill:#bcbec0;}.cls-286{fill:#bdbfc1;}.cls-287{fill:#bec0c2;}.cls-288{fill:#bfc1c3;}.cls-289{fill:#c0c2c4;}.cls-290{fill:#c1c3c5;}.cls-291{fill:#c2c3c6;}.cls-292{fill:#c2c4c6;}.cls-293{fill:#c3c5c7;}.cls-294{fill:#c4c5c8;}.cls-295{fill:#c4c6c8;}.cls-296{fill:#c5c7c9;}.cls-297{fill:#c6c7c9;}.cls-298{fill:#c6c8ca;}.cls-299{fill:#c7c9cb;}.cls-300{fill:#c8c9cb;}.cls-301{fill:#c8cacc;}.cls-302{fill:#c9cbcd;}.cls-303{fill:#cacbcd;}.cls-304{fill:#caccce;}.cls-305{fill:#cbcdce;}.cls-306{fill:#cccdcf;}.cls-307{fill:#ccced0;}.cls-308{fill:#cdcfd0;}.cls-309{fill:#cecfd1;}.cls-310{fill:#ced0d2;}.cls-311{fill:#cfd1d2;}.cls-312{fill:#d0d1d3;}.cls-313{fill:#d0d2d3;}.cls-314{fill:#d1d2d4;}.cls-315{fill:#d2d3d5;}.cls-316{fill:#d2d4d5;}.cls-317{fill:#d3d4d6;}.cls-318{fill:#d4d5d7;}.cls-319{fill:#d4d6d7;}.cls-320{fill:#d5d6d8;}.cls-321{fill:#d6d7d8;}.cls-322{fill:#d6d8d9;}.cls-323{fill:#d7d8da;}.cls-324{fill:#d8d9da;}.cls-325{fill:#d8dadb;}.cls-326{fill:#d9dadc;}.cls-327{fill:#dadbdc;}.cls-328{fill:#dadcdd;}.cls-329{fill:#dbdcdd;}.cls-330{fill:#dcddde;}.cls-331{fill:#dcdddf;}.cls-332{fill:#dddedf;}.cls-333{fill:#dedfe0;}.cls-334{fill:#dedfe1;}.cls-335{fill:#dfe0e1;}.cls-336{fill:#e0e1e2;}.cls-337{fill:#e1e2e3;}.cls-338{fill:#e2e3e4;}.cls-339{fill:#e3e4e5;}.cls-340{fill:#e4e4e6;}.cls-341{fill:#e4e5e6;}.cls-342{fill:#e5e6e7;}.cls-343{fill:#e6e6e7;}.cls-344{fill:#e6e7e8;}.cls-345{fill:#e7e8e9;}.cls-346{fill:#e8e8e9;}.cls-347{fill:#e8e9ea;}.cls-348{fill:#e9eaeb;}.cls-349{fill:#eaeaeb;}.cls-350{fill:#eaebec;}.cls-351{fill:#ebecec;}.cls-352{fill:#ececed;}.cls-353{fill:#ecedee;}.cls-354{fill:#edeeee;}.cls-355{fill:#eeeeef;}.cls-356{fill:#eeeff0;}.cls-357{fill:#eff0f0;}.cls-358{fill:#f0f0f1;}.cls-359{fill:#f0f1f1;}.cls-360{fill:#f2f2f3;}.cls-361{fill:#f2f3f3;}.cls-362{fill:#f3f3f4;}.cls-363{fill:#f4f4f5;}.cls-364{fill:#f4f5f5;}.cls-365{fill:#f5f6f6;}.cls-366{fill:#f6f6f7;}.cls-367{fill:#f7f7f7;}.cls-368{fill:#f7f8f8;}.cls-369{fill:#f8f9f9;}.cls-370{fill:#f9f9fa;}.cls-371{fill:#fafafa;}.cls-372{fill:#fbfbfb;}.cls-373{fill:#fcfcfd;}.cls-374{fill:#fefefe;}.cls-375{mask:url(#mask);}.cls-376{opacity:0.38;isolation:isolate;fill:url(#linear-gradient-7);}</style><linearGradient id="linear-gradient" x1="48.05" y1="1240.51" x2="48.05" y2="1279.67" gradientTransform="translate(0 -1140)" gradientUnits="userSpaceOnUse"><stop offset="0" stop-color="#f04d36"/><stop offset="0.42" stop-color="#ee352a"/><stop offset="0.81" stop-color="#ed1c24"/></linearGradient><linearGradient id="linear-gradient-2" x1="48.05" y1="1240.57" x2="48.05" y2="1279.67" gradientTransform="translate(0 -1140)" gradientUnits="userSpaceOnUse"><stop offset="0" stop-color="#f36e51"/><stop offset="0.18" stop-color="#f15e43"/><stop offset="0.6" stop-color="#ee352a"/><stop offset="0.81" stop-color="#ed1c24"/></linearGradient><linearGradient id="linear-gradient-3" x1="48.05" y1="1240.62" x2="48.05" y2="1279.68" gradientTransform="translate(0 -1140)" gradientUnits="userSpaceOnUse"><stop offset="0" stop-color="#f58a6c"/><stop offset="0.36" stop-color="#f15f43"/><stop offset="0.66" stop-color="#ee352a"/><stop offset="0.81" stop-color="#ed1c24"/></linearGradient><linearGradient id="linear-gradient-4" x1="48.05" y1="1240.67" x2="48.05" y2="1279.67" gradientTransform="translate(0 -1140)" gradientUnits="userSpaceOnUse"><stop offset="0" stop-color="#f8a68b"/><stop offset="0.13" stop-color="#f69173"/><stop offset="0.45" stop-color="#f15f43"/><stop offset="0.69" stop-color="#ee352a"/><stop offset="0.81" stop-color="#ed1c24"/></linearGradient><linearGradient id="linear-gradient-5" x1="48.05" y1="1240.73" x2="48.05" y2="1279.67" gradientTransform="translate(0 -1140)" gradientUnits="userSpaceOnUse"><stop offset="0" stop-color="#fbc3ae"/><stop offset="0.25" stop-color="#f69173"/><stop offset="0.52" stop-color="#f15f43"/><stop offset="0.71" stop-color="#ee352a"/><stop offset="0.81" stop-color="#ed1c24"/></linearGradient><linearGradient id="linear-gradient-6" x1="48.05" y1="1240.79" x2="48.05" y2="1279.67" gradientTransform="translate(0 -1140)" gradientUnits="userSpaceOnUse"><stop offset="0" stop-color="#fde1d4"/><stop offset="0.04" stop-color="#fdd7c7"/><stop offset="0.32" stop-color="#f69274"/><stop offset="0.56" stop-color="#f15f43"/><stop offset="0.73" stop-color="#ee352a"/><stop offset="0.81" stop-color="#ed1c24"/></linearGradient><mask id="mask" x="24.54" y="103.26" width="45.29" height="44.44" maskUnits="userSpaceOnUse"><g id="g"><path class="cls-1" d="M58.88,111.26a18.27,18.27,0,0,0-8.4-2.39c-4.38,0-6.76,2-6.76,4.42,0,2.75,3.64,4.84,9.73,8.72,7,4.48,10.7,8,10.7,13.14s-6.24,11.35-18,11.35c-5.42,0-11.44-1.31-15.31-4.18l3.79-4.78c2.75,1.61,5.94,3.34,10.63,3.34,4.31,0,8.1-1.85,8.1-5.79,0-4.6-7-7.64-11.15-10.27-5-3.28-9.29-5.85-9.29-11.41s7.06-10.15,16.5-10.15c5.94,0,10.7,1.73,13.15,3.64Z"/></g></mask><linearGradient id="linear-gradient-7" x1="47.19" y1="1287.7" x2="47.19" y2="1267.71" gradientTransform="translate(0 -1140)" gradientUnits="userSpaceOnUse"><stop offset="0" stop-color="#ed1c24"/><stop offset="1" stop-color="#f1f2f2"/></linearGradient></defs><title>Sedano&amp;apos;s Supermarket</title><path class="cls-2" d="M102.12,132.05A7.27,7.27,0,0,1,99.26,138a11.38,11.38,0,0,1-7.38,2.3,14.84,14.84,0,0,1-8.72-2.77L85.39,134a10.08,10.08,0,0,0,6,2.35,5.18,5.18,0,0,0,3.36-1,3.55,3.55,0,0,0,1.3-2.85q0-2.1-3.23-5-1.51-1.34-4.7-3.9-3.65-2.9-3.65-6.33A6.29,6.29,0,0,1,87.15,112,10.92,10.92,0,0,1,94,109.91a12.82,12.82,0,0,1,7.46,2.39l-2.27,3.23a8.48,8.48,0,0,0-4.74-1.68,4.3,4.3,0,0,0-2.76.84,2.74,2.74,0,0,0-1,2.22q0,1.68,2.68,3.94l4.53,3.77Q102.11,128.07,102.12,132.05Z"/><path class="cls-2" d="M122.33,129.12c0,.06-.18.17-.54.34s-.55.29-.55.38H108.62a7.13,7.13,0,0,0,1.8,5,6.23,6.23,0,0,0,4.66,1.84,10.47,10.47,0,0,0,5.45-1.67l1.55,2.89a16.52,16.52,0,0,1-8.18,2.35,10.66,10.66,0,0,1-7.63-2.85,11.09,11.09,0,0,1-3.48-8.47,10.41,10.41,0,0,1,3.1-7.8,10.27,10.27,0,0,1,7.46-2.85q5.7,0,7.8,4.61A15.32,15.32,0,0,1,122.33,129.12Zm-4.95-2.1v-1q-.34-4.74-4-4.74-4.36,0-4.61,5.75Z"/><path class="cls-2" d="M144.35,140.18H139v-3.52a9.28,9.28,0,0,1-7.09,3.6,8.4,8.4,0,0,1-7-3.35,12,12,0,0,1-2.39-7.63,11.25,11.25,0,0,1,2.81-7.84,9.1,9.1,0,0,1,7.09-3.14,8,8,0,0,1,6.58,3.23V109h5.36v31.19ZM139,129a8.81,8.81,0,0,0-1.51-5.41,4.64,4.64,0,0,0-3.94-2,4.47,4.47,0,0,0-3.81,2,9.26,9.26,0,0,0-1.39,5.41,10.66,10.66,0,0,0,1.43,5.83A4.43,4.43,0,0,0,133.6,137a4.5,4.5,0,0,0,3.9-2.18A10.1,10.1,0,0,0,139,129Z"/><path class="cls-2" d="M164.87,140.14H159a11.7,11.7,0,0,1-.6-3.18,8.45,8.45,0,0,1-6.71,3.31,6,6,0,0,1-6-5.9q0-.09,0-.18,0-3.77,3.81-6a19.64,19.64,0,0,1,5.58-2.1q1.38-.34,3.48-.8-.84-3.78-4.24-3.78a8.27,8.27,0,0,0-5.28,2.27l-1.8-2.6a13.12,13.12,0,0,1,8.3-2.85q5,0,7,2.85a6.5,6.5,0,0,1,1.09,2.27,20.57,20.57,0,0,1,.29,4.07v5.62A22.36,22.36,0,0,0,164.87,140.14Zm-6.3-9.73v-2l-2.22.54q-5.32,1.3-5.32,4.49a3.17,3.17,0,0,0,.8,2.22,2.73,2.73,0,0,0,2.05.88,4.57,4.57,0,0,0,4.24-3.1,8.64,8.64,0,0,0,.44-3Z"/><path class="cls-2" d="M186.88,140.22h-5.54V127.77a8.58,8.58,0,0,0-.67-3.94,3.59,3.59,0,0,0-3.4-1.76q-3.44,0-4.44,2.89a11.52,11.52,0,0,0-.38,3.48v11.77h-5.57V118.8h5.57v2.81a9.4,9.4,0,0,1,7.17-3.31q5,0,6.63,3.94a17.23,17.23,0,0,1,.63,5.62Z"/><path class="cls-2" d="M210.36,129.12a11,11,0,0,1-3.06,8,10.47,10.47,0,0,1-7.84,3.14,10.72,10.72,0,0,1-7.92-3.11,10.91,10.91,0,0,1-3.06-8,10.4,10.4,0,0,1,3.1-7.8,10.86,10.86,0,0,1,8-3.06,10.6,10.6,0,0,1,10.82,10.38q0,.22,0,.44Zm-5.74,0a10.19,10.19,0,0,0-1.38-5.74,4.52,4.52,0,0,0-7.63.08,10.15,10.15,0,0,0-1.38,5.66,10.82,10.82,0,0,0,1.38,5.91,4.36,4.36,0,0,0,3.86,2.14,4.23,4.23,0,0,0,3.77-2.14,10.82,10.82,0,0,0,1.38-5.87Z"/><path class="cls-2" d="M214.41,115.71c0,3.83-5.9,6.3-5.9,6.3s2.23-2.64.24-4.87a2.53,2.53,0,0,1-.42-1.6,2.56,2.56,0,0,1,.88-2,3.13,3.13,0,0,1,2.1-.8,3,3,0,0,1,2.31.84A2.9,2.9,0,0,1,214.41,115.71Z"/><path class="cls-2" d="M227.8,134a5.51,5.51,0,0,1-2.22,4.53,8.83,8.83,0,0,1-5.66,1.76,11,11,0,0,1-7-2.43l1.8-2.93a7.29,7.29,0,0,0,4.48,2.1,3.2,3.2,0,0,0,2.14-.67,2.35,2.35,0,0,0,.84-1.89,2.72,2.72,0,0,0-.67-1.8,19,19,0,0,0-2.94-2.43,21.5,21.5,0,0,1-3.06-2.51,5.36,5.36,0,0,1-1.43-3.61,5,5,0,0,1,2-4.15,7.91,7.91,0,0,1,5.16-1.64,11,11,0,0,1,6,1.72l-1.64,2.64a6.06,6.06,0,0,0-3.52-1.18,3,3,0,0,0-1.89.59,1.83,1.83,0,0,0-.71,1.47q0,1.26,2.89,3.39a22.74,22.74,0,0,1,4.28,3.78A5,5,0,0,1,227.8,134Z"/><path class="cls-3" d="M229.06,137.85a1.75,1.75,0,0,1,.38-.56,1.79,1.79,0,0,1,.56-.37,1.76,1.76,0,0,1,.68-.13,1.75,1.75,0,0,1,1.62,1.05,1.7,1.7,0,0,1,.14.69,1.73,1.73,0,0,1-.14.7,1.77,1.77,0,0,1-.38.56,1.71,1.71,0,0,1-.56.37,1.77,1.77,0,0,1-.68.13,1.79,1.79,0,0,1-.68-.13,1.74,1.74,0,0,1-.56-.37,1.76,1.76,0,0,1-.38-.56,1.73,1.73,0,0,1-.14-.7A1.69,1.69,0,0,1,229.06,137.85Zm.29,1.29a1.47,1.47,0,0,0,.31.48,1.41,1.41,0,0,0,.46.32,1.43,1.43,0,0,0,.58.12,1.4,1.4,0,0,0,.57-.12,1.42,1.42,0,0,0,.46-.32,1.46,1.46,0,0,0,.31-.48,1.58,1.58,0,0,0,.11-.6A1.54,1.54,0,0,0,232,138a1.43,1.43,0,0,0-.76-.79,1.41,1.41,0,0,0-.57-.12,1.43,1.43,0,0,0-1.34.9,1.54,1.54,0,0,0-.11.59,1.57,1.57,0,0,0,.13.56Zm1.45-1.62a.84.84,0,0,1,.54.15.54.54,0,0,1,.18.44.5.5,0,0,1-.16.41.69.69,0,0,1-.39.15l.59.91h-.34l-.56-.88h-.34v.88H230v-2.06Zm-.14.91H231a.27.27,0,0,0,.12-.1.35.35,0,0,0,0-.19.29.29,0,0,0,0-.16.27.27,0,0,0-.1-.09h-.74v.65h.33Z"/><circle class="cls-4" cx="48.05" cy="125.11" r="28.93"/><ellipse class="cls-5" cx="48.06" cy="125.12" rx="28.89" ry="28.9"/><ellipse class="cls-6" cx="48.06" cy="125.12" rx="28.85" ry="28.86"/><ellipse class="cls-7" cx="48.06" cy="125.13" rx="28.81" ry="28.83"/><ellipse class="cls-8" cx="48.07" cy="125.13" rx="28.78" ry="28.8"/><ellipse class="cls-9" cx="48.07" cy="125.14" rx="28.74" ry="28.77"/><ellipse class="cls-10" cx="48.08" cy="125.14" rx="28.7" ry="28.73"/><ellipse class="cls-11" cx="48.08" cy="125.14" rx="28.66" ry="28.7"/><ellipse class="cls-12" cx="48.09" cy="125.15" rx="28.62" ry="28.67"/><ellipse class="cls-13" cx="48.09" cy="125.15" rx="28.58" ry="28.63"/><ellipse class="cls-14" cx="48.09" cy="125.16" rx="28.54" ry="28.6"/><ellipse class="cls-15" cx="48.1" cy="125.16" rx="28.51" ry="28.57"/><ellipse class="cls-16" cx="48.1" cy="125.17" rx="28.47" ry="28.54"/><ellipse class="cls-17" cx="48.11" cy="125.17" rx="28.43" ry="28.5"/><ellipse class="cls-18" cx="48.11" cy="125.17" rx="28.39" ry="28.47"/><ellipse class="cls-19" cx="48.12" cy="125.18" rx="28.35" ry="28.44"/><ellipse class="cls-20" cx="48.12" cy="125.18" rx="28.31" ry="28.41"/><ellipse class="cls-21" cx="48.12" cy="125.19" rx="28.28" ry="28.37"/><ellipse class="cls-21" cx="48.13" cy="125.19" rx="28.24" ry="28.34"/><ellipse class="cls-22" cx="48.13" cy="125.2" rx="28.2" ry="28.31"/><ellipse class="cls-23" cx="48.14" cy="125.2" rx="28.16" ry="28.27"/><ellipse class="cls-24" cx="48.14" cy="125.2" rx="28.12" ry="28.24"/><ellipse class="cls-25" cx="48.15" cy="125.21" rx="28.08" ry="28.21"/><ellipse class="cls-26" cx="48.15" cy="125.21" rx="28.04" ry="28.18"/><ellipse class="cls-27" cx="48.15" cy="125.22" rx="28.01" ry="28.14"/><ellipse class="cls-28" cx="48.16" cy="125.22" rx="27.97" ry="28.11"/><ellipse class="cls-29" cx="48.16" cy="125.23" rx="27.93" ry="28.08"/><ellipse class="cls-30" cx="48.17" cy="125.23" rx="27.89" ry="28.05"/><ellipse class="cls-31" cx="48.17" cy="125.23" rx="27.85" ry="28.01"/><ellipse class="cls-32" cx="48.18" cy="125.24" rx="27.81" ry="27.98"/><ellipse class="cls-33" cx="48.18" cy="125.24" rx="27.78" ry="27.95"/><ellipse class="cls-34" cx="48.18" cy="125.25" rx="27.74" ry="27.91"/><ellipse class="cls-35" cx="48.19" cy="125.25" rx="27.7" ry="27.88"/><ellipse class="cls-36" cx="48.19" cy="125.26" rx="27.66" ry="27.85"/><ellipse class="cls-37" cx="48.2" cy="125.26" rx="27.62" ry="27.82"/><ellipse class="cls-38" cx="48.2" cy="125.26" rx="27.58" ry="27.78"/><ellipse class="cls-39" cx="48.21" cy="125.27" rx="27.55" ry="27.75"/><ellipse class="cls-40" cx="48.21" cy="125.27" rx="27.51" ry="27.72"/><ellipse class="cls-41" cx="48.21" cy="125.28" rx="27.47" ry="27.69"/><ellipse class="cls-42" cx="48.22" cy="125.28" rx="27.43" ry="27.65"/><ellipse class="cls-43" cx="48.22" cy="125.29" rx="27.39" ry="27.62"/><ellipse class="cls-44" cx="48.23" cy="125.29" rx="27.35" ry="27.59"/><ellipse class="cls-45" cx="48.23" cy="125.29" rx="27.31" ry="27.56"/><ellipse class="cls-46" cx="48.24" cy="125.3" rx="27.28" ry="27.52"/><ellipse class="cls-47" cx="48.24" cy="125.3" rx="27.24" ry="27.49"/><ellipse class="cls-48" cx="48.24" cy="125.31" rx="27.2" ry="27.46"/><ellipse class="cls-49" cx="48.25" cy="125.31" rx="27.16" ry="27.42"/><ellipse class="cls-50" cx="48.25" cy="125.32" rx="27.12" ry="27.39"/><ellipse class="cls-51" cx="48.26" cy="125.32" rx="27.08" ry="27.36"/><ellipse class="cls-52" cx="48.26" cy="125.32" rx="27.05" ry="27.33"/><ellipse class="cls-53" cx="48.27" cy="125.33" rx="27.01" ry="27.29"/><ellipse class="cls-54" cx="48.27" cy="125.33" rx="26.97" ry="27.26"/><ellipse class="cls-55" cx="48.27" cy="125.34" rx="26.93" ry="27.23"/><ellipse class="cls-56" cx="48.28" cy="125.34" rx="26.89" ry="27.2"/><ellipse class="cls-57" cx="48.28" cy="125.35" rx="26.85" ry="27.16"/><ellipse class="cls-58" cx="48.29" cy="125.35" rx="26.81" ry="27.13"/><ellipse class="cls-59" cx="48.29" cy="125.35" rx="26.78" ry="27.1"/><ellipse class="cls-60" cx="48.3" cy="125.36" rx="26.74" ry="27.06"/><ellipse class="cls-61" cx="48.3" cy="125.36" rx="26.7" ry="27.03"/><ellipse class="cls-62" cx="48.3" cy="125.37" rx="26.66" ry="27"/><path class="cls-63" d="M48.31,98.4a27,27,0,1,0,26.62,27.38q0-.19,0-.38a26.8,26.8,0,0,0-26.6-27Z"/><ellipse class="cls-64" cx="48.31" cy="125.38" rx="26.58" ry="26.93"/><ellipse class="cls-65" cx="48.32" cy="125.38" rx="26.55" ry="26.9"/><ellipse class="cls-66" cx="48.32" cy="125.38" rx="26.51" ry="26.87"/><ellipse class="cls-67" cx="48.32" cy="125.39" rx="26.47" ry="26.84"/><path class="cls-68" d="M48.33,98.59a26.81,26.81,0,1,0,26.43,27.19q0-.19,0-.39A26.62,26.62,0,0,0,48.33,98.59Z"/><ellipse class="cls-69" cx="48.33" cy="125.4" rx="26.39" ry="26.77"/><ellipse class="cls-70" cx="48.34" cy="125.4" rx="26.35" ry="26.74"/><ellipse class="cls-71" cx="48.34" cy="125.41" rx="26.32" ry="26.71"/><ellipse class="cls-72" cx="48.35" cy="125.41" rx="26.28" ry="26.67"/><ellipse class="cls-73" cx="48.35" cy="125.41" rx="26.24" ry="26.64"/><path class="cls-74" d="M48.35,98.81a26.61,26.61,0,1,0,26.2,27q0-.2,0-.41A26.41,26.41,0,0,0,48.35,98.81Z"/><ellipse class="cls-75" cx="48.36" cy="125.42" rx="26.16" ry="26.57"/><ellipse class="cls-76" cx="48.36" cy="125.43" rx="26.12" ry="26.54"/><ellipse class="cls-77" cx="48.37" cy="125.43" rx="26.08" ry="26.51"/><ellipse class="cls-78" cx="48.37" cy="125.43" rx="26.05" ry="26.48"/><path class="cls-79" d="M48.38,99a26.45,26.45,0,1,0,26,26.9q0-.23,0-.46A26.23,26.23,0,0,0,48.38,99Z"/><ellipse class="cls-80" cx="48.38" cy="125.44" rx="25.97" ry="26.41"/><ellipse class="cls-81" cx="48.38" cy="125.45" rx="25.93" ry="26.38"/><ellipse class="cls-82" cx="48.39" cy="125.45" rx="25.89" ry="26.35"/><ellipse class="cls-83" cx="48.39" cy="125.46" rx="25.85" ry="26.31"/><path class="cls-84" d="M48.4,99.18a26.28,26.28,0,1,0,25.81,26.75q0-.23,0-.47A26.05,26.05,0,0,0,48.4,99.18Z"/><ellipse class="cls-85" cx="48.4" cy="125.46" rx="25.78" ry="26.25"/><path class="cls-86" d="M48.41,99.25a26.22,26.22,0,1,0,25.74,26.7q0-.24,0-.49A26,26,0,0,0,48.41,99.25Z"/><ellipse class="cls-87" cx="48.41" cy="125.47" rx="25.7" ry="26.18"/><ellipse class="cls-88" cx="48.41" cy="125.48" rx="25.66" ry="26.15"/><path class="cls-89" d="M48.42,99.37a26.12,26.12,0,0,0,0,52.23,26.12,26.12,0,0,0,0-52.23Z"/><path class="cls-90" d="M48.42,99.4a26.09,26.09,0,0,0,0,52.17,26.09,26.09,0,0,0,0-52.17Z"/><path class="cls-91" d="M48.43,99.44a26.06,26.06,0,0,0,0,52.1,26.06,26.06,0,0,0,0-52.1Z"/><ellipse class="cls-92" cx="48.43" cy="125.5" rx="25.51" ry="26.02"/><ellipse class="cls-93" cx="48.44" cy="125.5" rx="25.47" ry="25.99"/><ellipse class="cls-94" cx="48.44" cy="125.5" rx="25.43" ry="25.95"/><path class="cls-95" d="M48.44,99.59c-14,0-25.39,11.61-25.39,25.92s11.37,25.92,25.39,25.92,25.39-11.61,25.39-25.92S62.47,99.59,48.44,99.59Z"/><path class="cls-96" d="M48.45,99.62c-14,0-25.35,11.59-25.35,25.89S34.45,151.4,48.45,151.4,73.8,139.81,73.8,125.51,62.45,99.62,48.45,99.62Z"/><ellipse class="cls-97" cx="48.45" cy="125.52" rx="25.32" ry="25.85"/><ellipse class="cls-98" cx="48.46" cy="125.52" rx="25.28" ry="25.82"/><ellipse class="cls-99" cx="48.46" cy="125.52" rx="25.24" ry="25.79"/><path class="cls-100" d="M48.47,99.77c-13.92,0-25.2,11.53-25.2,25.76s11.28,25.76,25.2,25.76,25.2-11.53,25.2-25.76S62.38,99.77,48.47,99.77Z"/><path class="cls-101" d="M48.47,99.81c-13.9,0-25.16,11.52-25.16,25.72s11.27,25.73,25.16,25.73,25.16-11.52,25.16-25.73S62.37,99.81,48.47,99.81Z"/><path class="cls-102" d="M48.47,99.85c-13.87,0-25.12,11.5-25.12,25.69s11.25,25.69,25.12,25.69,25.12-11.5,25.12-25.69S62.35,99.85,48.47,99.85Z"/><path class="cls-103" d="M48.48,99.88c-13.85,0-25.08,11.49-25.08,25.66S34.62,151.2,48.48,151.2s25.08-11.49,25.08-25.66S62.33,99.88,48.48,99.88Z"/><path class="cls-104" d="M48.48,99.92c-13.83,0-25,11.47-25,25.63s11.21,25.63,25,25.63,25-11.47,25-25.63S62.32,99.92,48.48,99.92Z"/><path class="cls-105" d="M48.49,100c-13.81,0-25,11.46-25,25.59s11.2,25.59,25,25.59,25-11.46,25-25.59S62.3,100,48.49,100Z"/><path class="cls-106" d="M48.49,100c-13.79,0-25,11.44-25,25.56s11.18,25.56,25,25.56,25-11.44,25-25.56S62.28,100,48.49,100Z"/><path class="cls-107" d="M48.5,100c-13.77,0-24.93,11.43-24.93,25.53s11.16,25.53,24.93,25.53,24.93-11.43,24.93-25.53S62.26,100,48.5,100Z"/><path class="cls-108" d="M48.5,100.07c-13.75,0-24.89,11.42-24.89,25.49s11.15,25.5,24.89,25.5,24.89-11.41,24.89-25.5S62.25,100.07,48.5,100.07Z"/><path class="cls-109" d="M48.5,100.1c-13.73,0-24.85,11.4-24.85,25.46S34.78,151,48.5,151s24.85-11.4,24.85-25.46S62.23,100.1,48.5,100.1Z"/><path class="cls-110" d="M48.51,100.14c-13.7,0-24.82,11.39-24.82,25.43S34.8,151,48.51,151s24.82-11.39,24.82-25.43S62.21,100.14,48.51,100.14Z"/><path class="cls-111" d="M48.51,100.18c-13.68,0-24.78,11.37-24.78,25.4S34.83,151,48.51,151s24.78-11.37,24.78-25.4S62.2,100.18,48.51,100.18Z"/><path class="cls-112" d="M48.52,100.22c-13.66,0-24.74,11.36-24.74,25.36s11.08,25.37,24.74,25.37,24.74-11.36,24.74-25.37S62.18,100.22,48.52,100.22Z"/><path class="cls-113" d="M48.52,100.25c-13.64,0-24.7,11.34-24.7,25.33s11.06,25.33,24.7,25.33,24.7-11.34,24.7-25.33S62.16,100.25,48.52,100.25Z"/><path class="cls-114" d="M48.53,100.29c-13.62,0-24.66,11.33-24.66,25.3s11,25.3,24.66,25.3,24.66-11.33,24.66-25.3S62.15,100.29,48.53,100.29Z"/><path class="cls-115" d="M48.53,100.33c-13.6,0-24.62,11.31-24.62,25.27s11,25.27,24.62,25.27,24.62-11.31,24.62-25.27S62.13,100.33,48.53,100.33Z"/><path class="cls-116" d="M48.53,100.36c-13.58,0-24.59,11.3-24.59,25.23s11,25.23,24.59,25.23,24.58-11.3,24.58-25.23S62.11,100.36,48.53,100.36Z"/><path class="cls-117" d="M48.54,100.4C35,100.4,24,111.68,24,125.6s11,25.2,24.55,25.2S73.1,139.52,73.1,125.6,62.1,100.4,48.54,100.4Z"/><path class="cls-118" d="M48.54,100.44C35,100.44,24,111.71,24,125.61s11,25.17,24.51,25.17S73,139.51,73,125.61,62.08,100.44,48.54,100.44Z"/><path class="cls-119" d="M48.55,100.47c-13.51,0-24.47,11.25-24.47,25.13s11,25.14,24.47,25.14S73,139.49,73,125.61,62.06,100.47,48.55,100.47Z"/><ellipse class="cls-120" cx="48.55" cy="125.61" rx="24.43" ry="25.1"/><ellipse class="cls-121" cx="48.56" cy="125.62" rx="24.39" ry="25.07"/><circle class="cls-121" cx="48.05" cy="125.11" r="22.77"/><circle class="cls-121" cx="48.05" cy="125.88" r="20.94"/><circle class="cls-121" cx="48.05" cy="126.64" r="19.11"/><ellipse class="cls-121" cx="48.05" cy="120.06" rx="23.77" ry="19.61"/><ellipse class="cls-122" cx="48.05" cy="120.09" rx="23.68" ry="19.58"/><ellipse class="cls-123" cx="48.05" cy="120.12" rx="23.59" ry="19.55"/><ellipse class="cls-124" cx="48.05" cy="120.15" rx="23.5" ry="19.53"/><ellipse class="cls-125" cx="48.05" cy="120.17" rx="23.41" ry="19.5"/><ellipse class="cls-126" cx="48.05" cy="120.2" rx="23.32" ry="19.47"/><path class="cls-127" d="M71.28,120.23c0-10.74-10.4-19.44-23.23-19.44s-23.23,8.7-23.23,19.44S35.22,139.67,48,139.67,71.28,131,71.28,120.23Z"/><path class="cls-3" d="M58.88,111.26a18.27,18.27,0,0,0-8.4-2.39c-4.38,0-6.76,2-6.76,4.42,0,2.75,3.64,4.84,9.73,8.72,7,4.48,10.7,8,10.7,13.14s-6.24,11.35-18,11.35c-5.42,0-11.44-1.31-15.31-4.18l3.79-4.78c2.75,1.61,5.94,3.34,10.63,3.34,4.31,0,8.1-1.85,8.1-5.79,0-4.6-7-7.64-11.15-10.27-5-3.28-9.29-5.85-9.29-11.41s7.06-10.15,16.5-10.15c5.94,0,10.7,1.73,13.15,3.64Z"/><path class="cls-128" d="M48,153.63A28.63,28.63,0,1,1,76.68,125,28.63,28.63,0,0,1,48,153.63Zm0-59.14A30.51,30.51,0,1,0,78.56,125h0A30.51,30.51,0,0,0,48,94.49Z"/><path class="cls-129" d="M48,153.63A28.63,28.63,0,1,1,76.68,125,28.63,28.63,0,0,1,48,153.63Zm0-59.14A30.51,30.51,0,1,0,78.56,125h0A30.5,30.5,0,0,0,48.07,94.49Z"/><path class="cls-130" d="M48,153.63A28.63,28.63,0,1,1,76.69,125,28.63,28.63,0,0,1,48,153.63Zm0-59.14A30.5,30.5,0,1,0,78.55,125,30.5,30.5,0,0,0,48,94.49h0Z"/><path class="cls-131" d="M48,153.64A28.64,28.64,0,1,1,76.69,125,28.64,28.64,0,0,1,48,153.64ZM48,94.5A30.5,30.5,0,1,0,78.55,125,30.5,30.5,0,0,0,48,94.5Z"/><path class="cls-132" d="M48,153.64A28.64,28.64,0,1,1,76.69,125,28.64,28.64,0,0,1,48,153.64ZM48,94.5A30.5,30.5,0,1,0,78.55,125,30.5,30.5,0,0,0,48,94.5Z"/><path class="cls-133" d="M48,153.64A28.64,28.64,0,1,1,76.69,125,28.64,28.64,0,0,1,48,153.64ZM48,94.5A30.5,30.5,0,1,0,78.55,125,30.5,30.5,0,0,0,48,94.5Z"/><path class="cls-134" d="M48,153.64A28.64,28.64,0,1,1,76.7,125,28.64,28.64,0,0,1,48,153.64ZM48,94.5A30.49,30.49,0,1,0,78.55,125,30.49,30.49,0,0,0,48,94.5h0Z"/><path class="cls-135" d="M48,153.65A28.65,28.65,0,1,1,76.7,125h0A28.65,28.65,0,0,1,48,153.65Zm0-59.14A30.49,30.49,0,1,0,78.54,125,30.49,30.49,0,0,0,48,94.51Z"/><path class="cls-136" d="M48,153.65A28.65,28.65,0,1,1,76.7,125h0A28.65,28.65,0,0,1,48,153.65Zm0-59.14A30.49,30.49,0,1,0,78.54,125,30.49,30.49,0,0,0,48,94.51Z"/><path class="cls-137" d="M48,153.65A28.65,28.65,0,1,1,76.7,125h0A28.65,28.65,0,0,1,48,153.65Zm0-59.14A30.49,30.49,0,1,0,78.54,125,30.49,30.49,0,0,0,48,94.51Z"/><path class="cls-138" d="M48,153.65A28.65,28.65,0,1,1,76.71,125,28.65,28.65,0,0,1,48,153.65Zm0-59.14A30.49,30.49,0,1,0,78.54,125,30.49,30.49,0,0,0,48,94.51Z"/><path class="cls-139" d="M48,153.66A28.66,28.66,0,1,1,76.71,125,28.66,28.66,0,0,1,48,153.66Zm0-59.14A30.48,30.48,0,1,0,78.54,125,30.48,30.48,0,0,0,48,94.52Z"/><path class="cls-140" d="M48,153.66A28.66,28.66,0,1,1,76.71,125,28.66,28.66,0,0,1,48,153.66Zm0-59.14A30.48,30.48,0,1,0,78.53,125h0A30.48,30.48,0,0,0,48.05,94.52Z"/><path class="cls-141" d="M48,153.66A28.66,28.66,0,1,1,76.71,125,28.66,28.66,0,0,1,48,153.66Zm0-59.14A30.48,30.48,0,1,0,78.53,125h0A30.48,30.48,0,0,0,48.05,94.52Z"/><path class="cls-142" d="M48,153.66A28.66,28.66,0,1,1,76.72,125,28.66,28.66,0,0,1,48,153.66Zm0-59.14A30.48,30.48,0,1,0,78.53,125h0A30.48,30.48,0,0,0,48.05,94.52Z"/><path class="cls-143" d="M48,153.67A28.67,28.67,0,1,1,76.72,125h0A28.67,28.67,0,0,1,48,153.67Zm0-59.14A30.47,30.47,0,1,0,78.53,125,30.47,30.47,0,0,0,48,94.53Z"/><path class="cls-144" d="M48,153.67A28.67,28.67,0,1,1,76.72,125h0A28.67,28.67,0,0,1,48,153.67Zm0-59.14A30.47,30.47,0,1,0,78.52,125,30.47,30.47,0,0,0,48,94.53Z"/><path class="cls-145" d="M48,153.67A28.67,28.67,0,1,1,76.72,125h0A28.67,28.67,0,0,1,48,153.67Zm0-59.14A30.47,30.47,0,1,0,78.52,125,30.47,30.47,0,0,0,48,94.53Z"/><path class="cls-146" d="M48,153.67A28.67,28.67,0,1,1,76.73,125,28.67,28.67,0,0,1,48,153.67Zm0-59.14A30.47,30.47,0,1,0,78.52,125,30.47,30.47,0,0,0,48,94.53Z"/><path class="cls-147" d="M48,153.68A28.68,28.68,0,1,1,76.73,125h0A28.68,28.68,0,0,1,48,153.68Zm0-59.14A30.47,30.47,0,1,0,78.52,125h0A30.47,30.47,0,0,0,48,94.53h0Z"/><path class="cls-148" d="M48,153.68A28.68,28.68,0,1,1,76.73,125h0A28.68,28.68,0,0,1,48,153.68Zm0-59.14A30.46,30.46,0,1,0,78.52,125,30.46,30.46,0,0,0,48,94.54Z"/><path class="cls-149" d="M48,153.68A28.68,28.68,0,1,1,76.73,125h0A28.68,28.68,0,0,1,48,153.68Zm0-59.14A30.46,30.46,0,1,0,78.51,125,30.46,30.46,0,0,0,48,94.54Z"/><path class="cls-150" d="M48,153.68A28.68,28.68,0,1,1,76.74,125,28.68,28.68,0,0,1,48,153.68Zm0-59.14A30.46,30.46,0,1,0,78.51,125,30.46,30.46,0,0,0,48,94.54Z"/><path class="cls-151" d="M48,153.69A28.69,28.69,0,1,1,76.74,125h0A28.69,28.69,0,0,1,48,153.69Zm0-59.15A30.46,30.46,0,1,0,78.51,125,30.46,30.46,0,0,0,48,94.54Z"/><path class="cls-152" d="M48,153.69A28.69,28.69,0,1,1,76.74,125h0A28.69,28.69,0,0,1,48,153.69Zm0-59.15A30.46,30.46,0,1,0,78.51,125,30.46,30.46,0,0,0,48,94.54Z"/><path class="cls-153" d="M48,153.69A28.69,28.69,0,1,1,76.74,125h0A28.69,28.69,0,0,1,48,153.69Zm0-59.15A30.45,30.45,0,1,0,78.5,125,30.45,30.45,0,0,0,48,94.54Z"/><path class="cls-154" d="M48,153.7A28.7,28.7,0,1,1,76.75,125h0A28.7,28.7,0,0,1,48,153.7Zm0-59.15A30.45,30.45,0,1,0,78.5,125,30.45,30.45,0,0,0,48,94.55Z"/><path class="cls-155" d="M48,153.7A28.7,28.7,0,1,1,76.75,125h0A28.7,28.7,0,0,1,48,153.7Zm0-59.15A30.45,30.45,0,1,0,78.5,125,30.45,30.45,0,0,0,48,94.55Z"/><path class="cls-156" d="M48,153.7A28.7,28.7,0,1,1,76.75,125h0A28.7,28.7,0,0,1,48,153.7Zm0-59.15A30.45,30.45,0,1,0,78.5,125,30.45,30.45,0,0,0,48,94.55Z"/><path class="cls-157" d="M48,153.7A28.7,28.7,0,1,1,76.75,125h0A28.7,28.7,0,0,1,48,153.7Zm0-59.15A30.44,30.44,0,1,0,78.5,125,30.44,30.44,0,0,0,48,94.55h0Z"/><path class="cls-158" d="M48,153.7A28.71,28.71,0,1,1,76.76,125h0A28.71,28.71,0,0,1,48,153.7Zm0-59.15A30.44,30.44,0,1,0,78.49,125,30.44,30.44,0,0,0,48,94.55h0Z"/><path class="cls-159" d="M48,153.71A28.71,28.71,0,1,1,76.76,125,28.71,28.71,0,0,1,48,153.71Zm0-59.15A30.44,30.44,0,1,0,78.49,125h0A30.44,30.44,0,0,0,48,94.56Z"/><path class="cls-160" d="M48,153.71A28.71,28.71,0,1,1,76.76,125,28.71,28.71,0,0,1,48,153.71Zm0-59.15A30.44,30.44,0,1,0,78.49,125h0A30.44,30.44,0,0,0,48,94.56Z"/><path class="cls-161" d="M48,153.71A28.71,28.71,0,1,1,76.76,125,28.71,28.71,0,0,1,48,153.71Zm0-59.15A30.44,30.44,0,1,0,78.49,125h0A30.44,30.44,0,0,0,48,94.56Z"/><path class="cls-162" d="M48,153.72A28.72,28.72,0,1,1,76.77,125h0A28.72,28.72,0,0,1,48,153.72Zm0-59.15A30.43,30.43,0,1,0,78.49,125,30.43,30.43,0,0,0,48,94.57Z"/><path class="cls-163" d="M48,153.72A28.72,28.72,0,1,1,76.77,125h0A28.72,28.72,0,0,1,48,153.72Zm0-59.15A30.43,30.43,0,1,0,78.48,125,30.43,30.43,0,0,0,48,94.57Z"/><path class="cls-164" d="M48,153.72A28.72,28.72,0,1,1,76.77,125h0A28.72,28.72,0,0,1,48,153.72Zm0-59.15A30.43,30.43,0,1,0,78.48,125,30.43,30.43,0,0,0,48,94.57Z"/><path class="cls-165" d="M48,153.72A28.72,28.72,0,1,1,76.77,125h0A28.72,28.72,0,0,1,48,153.72Zm0-59.15A30.43,30.43,0,1,0,78.48,125,30.43,30.43,0,0,0,48,94.57Z"/><path class="cls-166" d="M48,153.73A28.73,28.73,0,1,1,76.78,125h0A28.73,28.73,0,0,1,48,153.73Zm0-59.15A30.43,30.43,0,1,0,78.48,125h0A30.42,30.42,0,0,0,48.07,94.57h0Z"/><path class="cls-167" d="M48,153.73A28.73,28.73,0,1,1,76.78,125h0A28.73,28.73,0,0,1,48,153.73Zm0-59.15A30.42,30.42,0,1,0,78.47,125,30.42,30.42,0,0,0,48,94.58Z"/><path class="cls-168" d="M48,153.73A28.73,28.73,0,1,1,76.78,125h0A28.73,28.73,0,0,1,48,153.73Zm0-59.15A30.42,30.42,0,1,0,78.47,125,30.42,30.42,0,0,0,48,94.58Z"/><path class="cls-169" d="M48,153.73A28.73,28.73,0,1,1,76.78,125h0A28.73,28.73,0,0,1,48,153.73Zm0-59.15A30.42,30.42,0,1,0,78.47,125,30.42,30.42,0,0,0,48,94.58Z"/><path class="cls-170" d="M48,153.74A28.74,28.74,0,1,1,76.79,125,28.74,28.74,0,0,1,48,153.74Zm0-59.15A30.42,30.42,0,1,0,78.47,125h0A30.42,30.42,0,0,0,48,94.58h0Z"/><path class="cls-171" d="M48,153.74A28.74,28.74,0,1,1,76.79,125,28.74,28.74,0,0,1,48,153.74Zm0-59.15A30.41,30.41,0,1,0,78.47,125,30.41,30.41,0,0,0,48,94.59Z"/><path class="cls-172" d="M48,153.74A28.74,28.74,0,1,1,76.79,125,28.74,28.74,0,0,1,48,153.74Zm0-59.15A30.41,30.41,0,1,0,78.46,125h0A30.41,30.41,0,0,0,48.05,94.59Z"/><path class="cls-173" d="M48,153.74A28.74,28.74,0,1,1,76.79,125,28.74,28.74,0,0,1,48,153.74Zm0-59.15A30.41,30.41,0,1,0,78.46,125h0A30.41,30.41,0,0,0,48.05,94.59Z"/><path class="cls-174" d="M48,153.75A28.75,28.75,0,1,1,76.8,125,28.75,28.75,0,0,1,48,153.75ZM48,94.6A30.41,30.41,0,1,0,78.46,125h0A30.41,30.41,0,0,0,48.05,94.59h0Z"/><path class="cls-175" d="M48,153.75A28.75,28.75,0,1,1,76.8,125,28.75,28.75,0,0,1,48,153.75ZM48,94.6A30.41,30.41,0,1,0,78.46,125h0A30.41,30.41,0,0,0,48.05,94.59h0Z"/><path class="cls-176" d="M48,153.75A28.75,28.75,0,1,1,76.8,125,28.75,28.75,0,0,1,48,153.75ZM48,94.6A30.4,30.4,0,1,0,78.46,125,30.4,30.4,0,0,0,48,94.6Z"/><path class="cls-177" d="M48,153.75A28.75,28.75,0,1,1,76.8,125,28.75,28.75,0,0,1,48,153.75ZM48,94.6A30.4,30.4,0,1,0,78.45,125,30.4,30.4,0,0,0,48,94.6Z"/><path class="cls-178" d="M48,153.76A28.76,28.76,0,1,1,76.81,125h0A28.76,28.76,0,0,1,48,153.76ZM48,94.6A30.4,30.4,0,1,0,78.45,125,30.4,30.4,0,0,0,48,94.6Z"/><path class="cls-179" d="M48,153.76A28.76,28.76,0,1,1,76.81,125h0A28.76,28.76,0,0,1,48,153.76ZM48,94.6A30.4,30.4,0,1,0,78.45,125,30.4,30.4,0,0,0,48,94.6Z"/><path class="cls-180" d="M48,153.76A28.76,28.76,0,1,1,76.81,125h0A28.76,28.76,0,0,1,48,153.76ZM48,94.6A30.39,30.39,0,1,0,78.45,125,30.39,30.39,0,0,0,48,94.6h0Z"/><path class="cls-181" d="M48,153.76A28.76,28.76,0,1,1,76.82,125,28.76,28.76,0,0,1,48,153.76ZM48,94.6A30.39,30.39,0,1,0,78.44,125,30.39,30.39,0,0,0,48,94.6h0Z"/><path class="cls-182" d="M48,153.77A28.77,28.77,0,1,1,76.82,125,28.77,28.77,0,0,1,48,153.77Zm0-59.16A30.39,30.39,0,1,0,78.44,125,30.39,30.39,0,0,0,48,94.61Z"/><path class="cls-183" d="M48,153.77A28.77,28.77,0,1,1,76.82,125,28.77,28.77,0,0,1,48,153.77Zm0-59.16A30.39,30.39,0,1,0,78.44,125,30.39,30.39,0,0,0,48,94.61Z"/><path class="cls-184" d="M48,153.77A28.77,28.77,0,1,1,76.82,125,28.77,28.77,0,0,1,48,153.77Zm0-59.16A30.39,30.39,0,1,0,78.44,125,30.39,30.39,0,0,0,48,94.61Z"/><path class="cls-185" d="M48,153.77A28.77,28.77,0,1,1,76.83,125,28.77,28.77,0,0,1,48,153.77Zm0-59.16A30.38,30.38,0,1,0,78.44,125,30.38,30.38,0,0,0,48,94.61h0Z"/><path class="cls-186" d="M48,153.78A28.78,28.78,0,1,1,76.83,125h0A28.78,28.78,0,0,1,48,153.78Zm0-59.16A30.38,30.38,0,1,0,78.43,125,30.38,30.38,0,0,0,48,94.62Z"/><path class="cls-187" d="M48,153.78A28.78,28.78,0,1,1,76.83,125h0A28.78,28.78,0,0,1,48,153.78Zm0-59.16A30.38,30.38,0,1,0,78.43,125,30.38,30.38,0,0,0,48,94.62Z"/><path class="cls-188" d="M48,153.78A28.78,28.78,0,1,1,76.83,125h0A28.78,28.78,0,0,1,48,153.78Zm0-59.16A30.38,30.38,0,1,0,78.43,125,30.38,30.38,0,0,0,48,94.62Z"/><path class="cls-189" d="M48,153.78A28.78,28.78,0,1,1,76.84,125,28.78,28.78,0,0,1,48,153.78Zm0-59.16A30.38,30.38,0,1,0,78.43,125,30.38,30.38,0,0,0,48,94.62Z"/><path class="cls-190" d="M48,153.79A28.79,28.79,0,1,1,76.84,125h0A28.79,28.79,0,0,1,48,153.79Zm0-59.16A30.37,30.37,0,1,0,78.42,125,30.37,30.37,0,0,0,48,94.63Z"/><path class="cls-191" d="M48,153.79A28.79,28.79,0,1,1,76.84,125h0A28.79,28.79,0,0,1,48,153.79Zm0-59.16A30.37,30.37,0,1,0,78.42,125,30.37,30.37,0,0,0,48,94.63Z"/><path class="cls-192" d="M48,153.79A28.79,28.79,0,1,1,76.84,125h0A28.79,28.79,0,0,1,48,153.79Zm0-59.16A30.37,30.37,0,1,0,78.42,125,30.37,30.37,0,0,0,48,94.63Z"/><path class="cls-193" d="M48,153.79A28.79,28.79,0,1,1,76.85,125,28.79,28.79,0,0,1,48,153.79Zm0-59.16A30.37,30.37,0,1,0,78.42,125,30.37,30.37,0,0,0,48,94.63Z"/><path class="cls-194" d="M48,153.8A28.8,28.8,0,1,1,76.85,125,28.8,28.8,0,0,1,48,153.8Zm0-59.16A30.36,30.36,0,1,0,78.42,125,30.36,30.36,0,0,0,48,94.64Z"/><path class="cls-195" d="M48,153.8A28.8,28.8,0,1,1,76.85,125,28.8,28.8,0,0,1,48,153.8Zm0-59.16A30.36,30.36,0,1,0,78.41,125,30.36,30.36,0,0,0,48,94.64Z"/><path class="cls-196" d="M48,153.8A28.8,28.8,0,1,1,76.85,125,28.8,28.8,0,0,1,48,153.8Zm0-59.16A30.36,30.36,0,1,0,78.41,125,30.36,30.36,0,0,0,48,94.64Z"/><path class="cls-197" d="M48,153.8A28.8,28.8,0,1,1,76.86,125,28.8,28.8,0,0,1,48,153.8Zm0-59.16A30.36,30.36,0,1,0,78.41,125,30.36,30.36,0,0,0,48,94.64Z"/><path class="cls-198" d="M48,153.81A28.81,28.81,0,1,1,76.86,125,28.81,28.81,0,0,1,48,153.81Zm0-59.16A30.36,30.36,0,1,0,78.41,125h0A30.36,30.36,0,0,0,48.05,94.64h0Z"/><path class="cls-199" d="M48,153.81A28.81,28.81,0,1,1,76.86,125,28.81,28.81,0,0,1,48,153.81Zm0-59.16A30.35,30.35,0,1,0,78.41,125,30.35,30.35,0,0,0,48,94.65Z"/><path class="cls-200" d="M48,153.81A28.81,28.81,0,1,1,76.86,125,28.81,28.81,0,0,1,48,153.81Zm0-59.16A30.35,30.35,0,1,0,78.4,125,30.35,30.35,0,0,0,48,94.65Z"/><path class="cls-201" d="M48,153.81A28.81,28.81,0,1,1,76.87,125,28.81,28.81,0,0,1,48,153.81Zm0-59.16A30.35,30.35,0,1,0,78.4,125,30.35,30.35,0,0,0,48,94.65Z"/><path class="cls-202" d="M48,153.82A28.82,28.82,0,1,1,76.87,125,28.82,28.82,0,0,1,48,153.82Zm0-59.16A30.35,30.35,0,1,0,78.4,125h0A30.35,30.35,0,0,0,48,94.65h0Z"/><path class="cls-203" d="M48,153.82A28.82,28.82,0,1,1,76.87,125,28.82,28.82,0,0,1,48,153.82Zm0-59.16A30.35,30.35,0,1,0,78.4,125h0A30.34,30.34,0,0,0,48.07,94.65h0Z"/><path class="cls-204" d="M48,153.82A28.82,28.82,0,1,1,76.87,125,28.82,28.82,0,0,1,48,153.82Zm0-59.16A30.34,30.34,0,1,0,78.39,125h0A30.34,30.34,0,0,0,48,94.66Z"/><path class="cls-205" d="M48,153.82A28.82,28.82,0,1,1,76.88,125,28.82,28.82,0,0,1,48,153.82Zm0-59.17A30.34,30.34,0,1,0,78.39,125,30.34,30.34,0,0,0,48,94.65Z"/><path class="cls-206" d="M48,153.83A28.83,28.83,0,1,1,76.88,125,28.83,28.83,0,0,1,48,153.83Zm0-59.17A30.34,30.34,0,1,0,78.39,125h0A30.34,30.34,0,0,0,48,94.66Z"/><path class="cls-207" d="M48,153.83A28.83,28.83,0,1,1,76.88,125,28.83,28.83,0,0,1,48,153.83Zm0-59.17A30.34,30.34,0,1,0,78.39,125h0A30.34,30.34,0,0,0,48,94.66Z"/><path class="cls-208" d="M48,153.83A28.83,28.83,0,1,1,76.88,125,28.83,28.83,0,0,1,48,153.83Zm0-59.17A30.33,30.33,0,1,0,78.39,125,30.33,30.33,0,0,0,48,94.66h0Z"/><path class="cls-209" d="M48,153.83A28.84,28.84,0,1,1,76.89,125h0a28.83,28.83,0,0,1-28.83,28.83Zm0-59.17A30.33,30.33,0,1,0,78.38,125,30.33,30.33,0,0,0,48,94.66h0Z"/><path class="cls-210" d="M48,153.84A28.84,28.84,0,1,1,76.89,125h0A28.84,28.84,0,0,1,48,153.84Zm0-59.17A30.33,30.33,0,1,0,78.38,125,30.33,30.33,0,0,0,48,94.67Z"/><path class="cls-211" d="M48,153.84A28.84,28.84,0,1,1,76.89,125h0A28.84,28.84,0,0,1,48,153.84Zm0-59.17A30.33,30.33,0,1,0,78.38,125,30.33,30.33,0,0,0,48,94.67Z"/><path class="cls-212" d="M48,153.84A28.84,28.84,0,1,1,76.89,125h0A28.84,28.84,0,0,1,48,153.84Zm0-59.17A30.33,30.33,0,1,0,78.38,125,30.33,30.33,0,0,0,48,94.67Z"/><path class="cls-213" d="M48,153.84A28.85,28.85,0,1,1,76.9,125h0a28.84,28.84,0,0,1-28.84,28.84Zm0-59.17A30.32,30.32,0,1,0,78.38,125,30.32,30.32,0,0,0,48,94.67h0Z"/><path class="cls-213" d="M48,153.85A28.85,28.85,0,1,1,76.9,125,28.85,28.85,0,0,1,48,153.85Zm0-59.17A30.32,30.32,0,1,0,78.37,125h0A30.32,30.32,0,0,0,48.05,94.68Z"/><path class="cls-214" d="M48,153.85A28.85,28.85,0,1,1,76.9,125,28.85,28.85,0,0,1,48,153.85Zm0-59.17A30.32,30.32,0,1,0,78.37,125h0A30.32,30.32,0,0,0,48.05,94.68Z"/><path class="cls-215" d="M48,153.85A28.85,28.85,0,1,1,76.9,125,28.85,28.85,0,0,1,48,153.85Zm0-59.17A30.32,30.32,0,1,0,78.37,125h0A30.32,30.32,0,0,0,48.05,94.68Z"/><path class="cls-216" d="M48,153.86A28.86,28.86,0,1,1,76.91,125,28.86,28.86,0,0,1,48,153.86Zm0-59.17A30.31,30.31,0,1,0,78.37,125,30.31,30.31,0,0,0,48,94.69Z"/><path class="cls-217" d="M48,153.86A28.86,28.86,0,1,1,76.91,125,28.86,28.86,0,0,1,48,153.86Zm0-59.17A30.31,30.31,0,1,0,78.36,125,30.31,30.31,0,0,0,48,94.69Z"/><path class="cls-218" d="M48,153.86A28.86,28.86,0,1,1,76.91,125,28.86,28.86,0,0,1,48,153.86Zm0-59.17A30.31,30.31,0,1,0,78.36,125,30.31,30.31,0,0,0,48,94.69Z"/><path class="cls-219" d="M48,153.86A28.86,28.86,0,1,1,76.91,125,28.86,28.86,0,0,1,48,153.86Zm0-59.17A30.31,30.31,0,1,0,78.36,125,30.31,30.31,0,0,0,48,94.69Z"/><path class="cls-220" d="M48,153.87A28.87,28.87,0,1,1,76.92,125h0A28.87,28.87,0,0,1,48,153.87ZM48,94.7A30.31,30.31,0,1,0,78.36,125h0A30.31,30.31,0,0,0,48,94.69h0Z"/><path class="cls-221" d="M48,153.87A28.87,28.87,0,1,1,76.92,125h0A28.87,28.87,0,0,1,48,153.87ZM48,94.7A30.3,30.3,0,1,0,78.36,125,30.3,30.3,0,0,0,48,94.7Z"/><path class="cls-222" d="M48,153.87A28.87,28.87,0,1,1,76.92,125h0A28.87,28.87,0,0,1,48,153.87ZM48,94.7A30.3,30.3,0,1,0,78.35,125,30.3,30.3,0,0,0,48,94.7Z"/><path class="cls-223" d="M48,153.87A28.87,28.87,0,1,1,76.92,125h0A28.87,28.87,0,0,1,48,153.87ZM48,94.7A30.3,30.3,0,1,0,78.35,125,30.3,30.3,0,0,0,48,94.7Z"/><path class="cls-224" d="M48,153.88A28.88,28.88,0,1,1,76.93,125,28.88,28.88,0,0,1,48,153.88Zm0-59.17A30.3,30.3,0,1,0,78.35,125h0a30.3,30.3,0,0,0-30.3-30.3h0Z"/><path class="cls-225" d="M48,153.88A28.88,28.88,0,1,1,76.93,125,28.88,28.88,0,0,1,48,153.88Zm0-59.17A30.3,30.3,0,1,0,78.35,125h0A30.29,30.29,0,0,0,48.07,94.7h0Z"/><path class="cls-226" d="M48,153.88A28.88,28.88,0,1,1,76.93,125,28.88,28.88,0,0,1,48,153.88Zm0-59.17A30.29,30.29,0,1,0,78.34,125h0A30.29,30.29,0,0,0,48,94.71Z"/><path class="cls-227" d="M48,153.88A28.88,28.88,0,1,1,76.93,125,28.88,28.88,0,0,1,48,153.88Zm0-59.17A30.29,30.29,0,1,0,78.34,125h0A30.29,30.29,0,0,0,48,94.71Z"/><path class="cls-228" d="M48,153.89A28.89,28.89,0,1,1,76.94,125,28.89,28.89,0,0,1,48,153.89Zm0-59.17A30.29,30.29,0,1,0,78.34,125h0A30.29,30.29,0,0,0,48,94.71Z"/><path class="cls-229" d="M48,153.89A28.89,28.89,0,1,1,76.94,125,28.89,28.89,0,0,1,48,153.89Zm0-59.17A30.29,30.29,0,1,0,78.34,125h0A30.29,30.29,0,0,0,48,94.71Z"/><path class="cls-230" d="M48,153.89A28.89,28.89,0,1,1,76.94,125,28.89,28.89,0,0,1,48,153.89Zm0-59.18A30.28,30.28,0,1,0,78.34,125,30.28,30.28,0,0,0,48,94.71h0Z"/><path class="cls-231" d="M48,153.89A28.89,28.89,0,1,1,76.94,125,28.89,28.89,0,0,1,48,153.89Zm0-59.18A30.28,30.28,0,1,0,78.33,125,30.28,30.28,0,0,0,48,94.71h0Z"/><path class="cls-232" d="M48,153.9A28.9,28.9,0,1,1,76.95,125h0A28.9,28.9,0,0,1,48,153.9Zm0-59.18A30.28,30.28,0,1,0,78.33,125,30.28,30.28,0,0,0,48,94.72Z"/><path class="cls-233" d="M48,153.9a28.9,28.9,0,1,1,.05,0Zm0-59.18A30.28,30.28,0,1,0,78.33,125,30.28,30.28,0,0,0,48,94.72Z"/><path class="cls-234" d="M48,153.9a28.9,28.9,0,1,1,.05,0Zm0-59.18A30.28,30.28,0,1,0,78.33,125,30.28,30.28,0,0,0,48,94.72Z"/><path class="cls-235" d="M48,153.9a28.9,28.9,0,1,1,.05,0Zm0-59.18A30.27,30.27,0,1,0,78.33,125,30.27,30.27,0,0,0,48,94.72h0Z"/><path class="cls-236" d="M48,153.91A28.91,28.91,0,1,1,77,125a28.91,28.91,0,0,1-29,28.91Zm0-59.18A30.27,30.27,0,1,0,78.32,125h0A30.27,30.27,0,0,0,48,94.73Z"/><path class="cls-237" d="M48,153.91A28.91,28.91,0,1,1,77,125a28.91,28.91,0,0,1-29,28.91Zm0-59.18A30.27,30.27,0,1,0,78.32,125h0A30.27,30.27,0,0,0,48,94.73Z"/><path class="cls-238" d="M48,153.91A28.91,28.91,0,1,1,77,125a28.91,28.91,0,0,1-29,28.91Zm0-59.18A30.27,30.27,0,1,0,78.32,125h0A30.27,30.27,0,0,0,48,94.73Z"/><path class="cls-239" d="M48,153.91A28.91,28.91,0,1,1,77,125a28.91,28.91,0,0,1-29,28.91Zm0-59.18A30.27,30.27,0,1,0,78.32,125h0A30.26,30.26,0,0,0,48.07,94.73Z"/><path class="cls-240" d="M48,153.92A28.92,28.92,0,1,1,77,125a28.92,28.92,0,0,1-29,28.92Zm0-59.18A30.26,30.26,0,1,0,78.31,125,30.26,30.26,0,0,0,48,94.74Z"/><path class="cls-241" d="M48,153.92A28.92,28.92,0,1,1,77,125a28.92,28.92,0,0,1-29,28.92Zm0-59.18A30.26,30.26,0,1,0,78.31,125,30.26,30.26,0,0,0,48,94.74Z"/><path class="cls-242" d="M48,153.92A28.92,28.92,0,1,1,77,125a28.92,28.92,0,0,1-29,28.92Zm0-59.18A30.26,30.26,0,1,0,78.31,125,30.26,30.26,0,0,0,48,94.74Z"/><path class="cls-243" d="M48,153.92A28.92,28.92,0,1,1,77,125a28.92,28.92,0,0,1-29,28.92Zm0-59.18A30.26,30.26,0,1,0,78.31,125,30.26,30.26,0,0,0,48,94.74Z"/><path class="cls-244" d="M48,153.93A28.93,28.93,0,1,1,77,125a28.93,28.93,0,0,1-29,28.93Zm0-59.18A30.25,30.25,0,1,0,78.31,125,30.25,30.25,0,0,0,48,94.75Z"/><path class="cls-245" d="M48,153.93A28.93,28.93,0,1,1,77,125a28.93,28.93,0,0,1-29,28.93Zm0-59.18A30.25,30.25,0,1,0,78.3,125,30.25,30.25,0,0,0,48,94.75Z"/><path class="cls-246" d="M48,153.93A28.93,28.93,0,1,1,77,125a28.93,28.93,0,0,1-29,28.93Zm0-59.18A30.25,30.25,0,1,0,78.3,125,30.25,30.25,0,0,0,48,94.75Z"/><path class="cls-247" d="M48,153.93A28.93,28.93,0,1,1,77,125a28.93,28.93,0,0,1-29,28.93Zm0-59.18A30.25,30.25,0,1,0,78.3,125,30.25,30.25,0,0,0,48,94.75Z"/><path class="cls-248" d="M48,153.94A28.94,28.94,0,1,1,77,125a28.94,28.94,0,0,1-29,28.94Zm0-59.18A30.25,30.25,0,1,0,78.3,125h0A30.25,30.25,0,0,0,48.05,94.75h0Z"/><path class="cls-249" d="M48,153.94A28.94,28.94,0,1,1,77,125a28.94,28.94,0,0,1-29,28.94Zm0-59.18A30.24,30.24,0,1,0,78.3,125,30.24,30.24,0,0,0,48,94.76Z"/><path class="cls-250" d="M48,153.94A28.94,28.94,0,1,1,77,125a28.94,28.94,0,0,1-29,28.94Zm0-59.18A30.24,30.24,0,1,0,78.29,125,30.24,30.24,0,0,0,48,94.76Z"/><path class="cls-251" d="M48,153.94A28.94,28.94,0,1,1,77,125a28.94,28.94,0,0,1-29,28.94Zm0-59.18A30.24,30.24,0,1,0,78.29,125,30.24,30.24,0,0,0,48,94.76Z"/><path class="cls-252" d="M48,153.95A29,29,0,1,1,77,125h0A29,29,0,0,1,48,153.95Zm0-59.18A30.24,30.24,0,1,0,78.29,125h0A30.24,30.24,0,0,0,48,94.76h0Z"/><path class="cls-253" d="M48,153.95A29,29,0,1,1,77,125h0A29,29,0,0,1,48,153.95Zm0-59.18A30.23,30.23,0,1,0,78.29,125,30.23,30.23,0,0,0,48,94.77h0Z"/><path class="cls-254" d="M48,154a29,29,0,1,1,29-29,29,29,0,0,1-29,29Zm0-59.18A30.23,30.23,0,1,0,78.28,125v0A30.23,30.23,0,0,0,48.05,94.77h0Z"/><path class="cls-255" d="M48,154a29,29,0,1,1,29-29,29,29,0,0,1-29,29Zm0-59.18A30.23,30.23,0,1,0,78.28,125v0A30.23,30.23,0,0,0,48.05,94.77h0Z"/><path class="cls-256" d="M48,154a29,29,0,1,1,29-29,29,29,0,0,1-29,29Zm0-59.19A30.23,30.23,0,1,0,78.28,125v0A30.23,30.23,0,0,0,48.05,94.77h0Z"/><path class="cls-257" d="M48,154a29,29,0,1,1,29-29,29,29,0,0,1-29,29Zm0-59.19A30.23,30.23,0,1,0,78.28,125v0A30.23,30.23,0,0,0,48.05,94.77h0Z"/><path class="cls-258" d="M48,154a29,29,0,1,1,29-29,29,29,0,0,1-29,29Zm0-59.19A30.22,30.22,0,1,0,78.28,125v0A30.22,30.22,0,0,0,48.06,94.78h0Z"/><path class="cls-259" d="M48,154a29,29,0,1,1,29-29,29,29,0,0,1-29,29Zm0-59.19A30.22,30.22,0,1,0,78.27,125v0A30.22,30.22,0,0,0,48,94.78h0Z"/><path class="cls-260" d="M48,154a29,29,0,1,1,29-29,29,29,0,0,1-29,29Zm0-59.19A30.22,30.22,0,1,0,78.27,125v0A30.22,30.22,0,0,0,48,94.78h0Z"/><path class="cls-261" d="M48,154a29,29,0,1,1,29-29,29,29,0,0,1-29,29Zm0-59.19A30.22,30.22,0,1,0,78.27,125v0A30.22,30.22,0,0,0,48,94.78h0Z"/><path class="cls-262" d="M48,154a29,29,0,1,1,29-29,29,29,0,0,1-29,29Zm0-59.19A30.22,30.22,0,1,0,78.27,125v0a30.21,30.21,0,0,0-30.2-30.22h0Z"/><path class="cls-263" d="M48,154a29,29,0,1,1,29-29,29,29,0,0,1-29,29Zm0-59.19A30.21,30.21,0,1,0,78.26,125v0A30.21,30.21,0,0,0,48.05,94.79h0Z"/><path class="cls-264" d="M48,154a29,29,0,1,1,29-29,29,29,0,0,1-29,29Zm0-59.19A30.21,30.21,0,1,0,78.26,125v0A30.21,30.21,0,0,0,48.05,94.79h0Z"/><path class="cls-265" d="M48,154a29,29,0,1,1,29-29,29,29,0,0,1-29,29Zm0-59.19A30.21,30.21,0,1,0,78.26,125v0A30.21,30.21,0,0,0,48.05,94.79h0Z"/><path class="cls-266" d="M48,154a29,29,0,1,1,29-29,29,29,0,0,1-29,29Zm0-59.19A30.21,30.21,0,1,0,78.26,125v0A30.21,30.21,0,0,0,48.05,94.79h0Z"/><path class="cls-267" d="M48,154a29,29,0,1,1,29-29,29,29,0,0,1-29,29Zm0-59.19A30.2,30.2,0,1,0,78.26,125,30.2,30.2,0,0,0,48,94.81h0Z"/><path class="cls-268" d="M48,154a29,29,0,1,1,29-29,29,29,0,0,1-29,29Zm0-59.19A30.2,30.2,0,1,0,78.25,125h0A30.2,30.2,0,0,0,48,94.8Z"/><path class="cls-269" d="M48,154a29,29,0,1,1,29-29,29,29,0,0,1-29,29Zm0-59.19A30.2,30.2,0,1,0,78.25,125h0A30.2,30.2,0,0,0,48,94.8Z"/><path class="cls-270" d="M48,154a29,29,0,1,1,29-29,29,29,0,0,1-29,29Zm0-59.19A30.2,30.2,0,1,0,78.25,125h0A30.2,30.2,0,0,0,48,94.8Z"/><path class="cls-271" d="M48,154a29,29,0,1,1,29-29,29,29,0,0,1-29,29Zm0-59.19A30.2,30.2,0,1,0,78.25,125h0A30.2,30.2,0,0,0,48,94.8Z"/><path class="cls-272" d="M48,154a29,29,0,1,1,29-29,29,29,0,0,1-29,29Zm0-59.19A30.19,30.19,0,1,0,78.25,125,30.19,30.19,0,0,0,48,94.81Z"/><path class="cls-273" d="M48,154a29,29,0,1,1,29-29,29,29,0,0,1-29,29Zm0-59.19A30.19,30.19,0,1,0,78.24,125h0A30.19,30.19,0,0,0,48,94.81Z"/><path class="cls-274" d="M48,154a29,29,0,1,1,29-29,29,29,0,0,1-29,29Zm0-59.19A30.19,30.19,0,1,0,78.24,125h0A30.19,30.19,0,0,0,48,94.81Z"/><path class="cls-275" d="M48,154a29,29,0,1,1,29-29,29,29,0,0,1-29,29Zm0-59.19A30.19,30.19,0,1,0,78.24,125h0A30.19,30.19,0,0,0,48,94.81Z"/><path class="cls-276" d="M48,154a29,29,0,1,1,29-29,29,29,0,0,1-29,29Zm0-59.19A30.18,30.18,0,1,0,78.24,125,30.18,30.18,0,0,0,48,94.81Z"/><path class="cls-277" d="M48,154a29,29,0,1,1,29-29,29,29,0,0,1-29,29Zm0-59.19A30.18,30.18,0,1,0,78.23,125,30.18,30.18,0,0,0,48,94.81h0Z"/><path class="cls-278" d="M48,154a29,29,0,1,1,29-29,29,29,0,0,1-29,29Zm0-59.19A30.18,30.18,0,1,0,78.23,125,30.18,30.18,0,0,0,48,94.81h0Z"/><path class="cls-279" d="M48,154a29,29,0,1,1,29-29,29,29,0,0,1-29,29Zm0-59.19A30.18,30.18,0,1,0,78.23,125,30.18,30.18,0,0,0,48,94.81h0Z"/><path class="cls-280" d="M48,154a29,29,0,1,1,29-29,29,29,0,0,1-29,29Zm0-59.19A30.18,30.18,0,1,0,78.23,125,30.18,30.18,0,0,0,48,94.81h0Z"/><path class="cls-281" d="M48,154a29,29,0,1,1,29-29,29,29,0,0,1-29,29Zm0-59.19A30.17,30.17,0,1,0,78.23,125,30.17,30.17,0,0,0,48,94.81h0Z"/><path class="cls-282" d="M48,154a29,29,0,1,1,29-29,29,29,0,0,1-29,29Zm0-59.2A30.17,30.17,0,1,0,78.22,125,30.17,30.17,0,0,0,48,94.8h0Z"/><path class="cls-283" d="M48,154a29,29,0,1,1,29-29,29,29,0,0,1-29,29Zm0-59.2A30.17,30.17,0,1,0,78.22,125,30.17,30.17,0,0,0,48,94.8h0Z"/><path class="cls-283" d="M48,154a29,29,0,1,1,29-29,29,29,0,0,1-29,29Zm0-59.2A30.17,30.17,0,1,0,78.22,125,30.17,30.17,0,0,0,48,94.8h0Z"/><path class="cls-284" d="M48,154a29,29,0,1,1,29-29,29,29,0,0,1-29,29Zm0-59.2A30.17,30.17,0,1,0,78.22,125,30.17,30.17,0,0,0,48,94.8h0Z"/><path class="cls-285" d="M48,154a29,29,0,1,1,29-29,29,29,0,0,1-29,29Zm0-59.2A30.16,30.16,0,1,0,78.22,125,30.16,30.16,0,0,0,48,94.8h0Z"/><path class="cls-285" d="M48,154a29,29,0,1,1,29-29,29,29,0,0,1-29,29Zm0-59.2A30.16,30.16,0,1,0,78.21,125,30.16,30.16,0,0,0,48,94.8h0Z"/><path class="cls-286" d="M48,154a29,29,0,1,1,29-29,29,29,0,0,1-29,29Zm0-59.2A30.16,30.16,0,1,0,78.21,125,30.16,30.16,0,0,0,48,94.8h0Z"/><path class="cls-287" d="M48,154a29,29,0,1,1,29-29,29,29,0,0,1-29,29Zm0-59.2A30.16,30.16,0,1,0,78.21,125,30.16,30.16,0,0,0,48,94.8h0Z"/><path class="cls-287" d="M48,154a29,29,0,1,1,29-29,29,29,0,0,1-29,29Zm0-59.2A30.15,30.15,0,1,0,78.21,125,30.15,30.15,0,0,0,48,94.8h0Z"/><path class="cls-288" d="M48,154a29,29,0,1,1,29-29,29,29,0,0,1-29,29Zm0-59.2A30.15,30.15,0,1,0,78.2,125,30.15,30.15,0,0,0,48,94.8h0Z"/><path class="cls-289" d="M48,154a29,29,0,1,1,29-29,29,29,0,0,1-29,29Zm0-59.2A30.15,30.15,0,1,0,78.2,125,30.15,30.15,0,0,0,48,94.8h0Z"/><path class="cls-289" d="M48,154.05A29,29,0,1,1,77.1,125a29.05,29.05,0,0,1-29,29.05Zm0-59.2A30.15,30.15,0,1,0,78.2,125h0A30.15,30.15,0,0,0,48,94.85Z"/><path class="cls-290" d="M48,154.05A29.05,29.05,0,1,1,77.11,125,29,29,0,0,1,48,154.05Zm0-59.2A30.15,30.15,0,1,0,78.2,125h0A30.15,30.15,0,0,0,48,94.85Z"/><path class="cls-291" d="M48,154.06A29.06,29.06,0,1,1,77.11,125h0A29.06,29.06,0,0,1,48,154.06Zm0-59.2A30.14,30.14,0,1,0,78.2,125,30.14,30.14,0,0,0,48,94.86Z"/><path class="cls-292" d="M48,154.06A29.06,29.06,0,1,1,77.11,125h0A29.06,29.06,0,0,1,48,154.06Zm0-59.2A30.14,30.14,0,1,0,78.19,125,30.14,30.14,0,0,0,48,94.86Z"/><path class="cls-293" d="M48,154.06A29.06,29.06,0,1,1,77.11,125h0A29.06,29.06,0,0,1,48,154.06Zm0-59.2A30.14,30.14,0,1,0,78.19,125,30.14,30.14,0,0,0,48,94.86Z"/><path class="cls-294" d="M48,154.06A29.06,29.06,0,1,1,77.11,125h0A29.06,29.06,0,0,1,48,154.06Zm0-59.2A30.14,30.14,0,1,0,78.19,125,30.14,30.14,0,0,0,48,94.86Z"/><path class="cls-295" d="M48,154.07A29.07,29.07,0,1,1,77.12,125,29.07,29.07,0,0,1,48,154.07Zm0-59.2A30.14,30.14,0,1,0,78.19,125h0A30.14,30.14,0,0,0,48.05,94.86h0Z"/><path class="cls-296" d="M48,154.07A29.07,29.07,0,1,1,77.12,125,29.07,29.07,0,0,1,48,154.07Zm0-59.2A30.13,30.13,0,1,0,78.18,125h0A30.13,30.13,0,0,0,48,94.87Z"/><path class="cls-297" d="M48,154.07A29.07,29.07,0,1,1,77.12,125,29.07,29.07,0,0,1,48,154.07Zm0-59.2A30.13,30.13,0,1,0,78.18,125h0A30.13,30.13,0,0,0,48,94.87Z"/><path class="cls-298" d="M48,154.07A29.07,29.07,0,1,1,77.13,125,29.07,29.07,0,0,1,48,154.07Zm0-59.2A30.13,30.13,0,1,0,78.18,125h0A30.13,30.13,0,0,0,48,94.87Z"/><path class="cls-299" d="M48,154.08A29.08,29.08,0,1,1,77.13,125h0A29.08,29.08,0,0,1,48,154.08Zm0-59.2A30.13,30.13,0,1,0,78.18,125h0A30.13,30.13,0,0,0,48,94.87h0Z"/><path class="cls-300" d="M48,154.08A29.08,29.08,0,1,1,77.13,125h0A29.08,29.08,0,0,1,48,154.08Zm0-59.2A30.12,30.12,0,1,0,78.18,125,30.12,30.12,0,0,0,48,94.88Z"/><path class="cls-301" d="M48,154.08A29.08,29.08,0,1,1,77.13,125h0A29.08,29.08,0,0,1,48,154.08Zm0-59.2A30.12,30.12,0,1,0,78.17,125h0A30.12,30.12,0,0,0,48,94.88Z"/><path class="cls-302" d="M48,154.08A29.08,29.08,0,1,1,77.14,125,29.08,29.08,0,0,1,48,154.08Zm0-59.2A30.12,30.12,0,1,0,78.17,125h0A30.12,30.12,0,0,0,48,94.88Z"/><path class="cls-303" d="M48,154.09A29.09,29.09,0,1,1,77.14,125h0A29.09,29.09,0,0,1,48,154.09Zm0-59.2A30.12,30.12,0,1,0,78.17,125h0A30.12,30.12,0,0,0,48,94.88Z"/><path class="cls-304" d="M48,154.09A29.09,29.09,0,1,1,77.14,125h0A29.09,29.09,0,0,1,48,154.09Zm0-59.21A30.12,30.12,0,1,0,78.17,125h0A30.12,30.12,0,0,0,48,94.88Z"/><path class="cls-305" d="M48,154.09A29.09,29.09,0,1,1,77.14,125h0A29.09,29.09,0,0,1,48,154.09Zm0-59.21A30.11,30.11,0,1,0,78.17,125,30.11,30.11,0,0,0,48,94.88h0Z"/><path class="cls-306" d="M48,154.09A29.09,29.09,0,1,1,77.15,125,29.09,29.09,0,0,1,48,154.09Zm0-59.21A30.11,30.11,0,1,0,78.16,125,30.11,30.11,0,0,0,48,94.88h0Z"/><path class="cls-307" d="M48,154.1A29.1,29.1,0,1,1,77.15,125,29.1,29.1,0,0,1,48,154.1Zm0-59.21A30.11,30.11,0,1,0,78.16,125h0A30.11,30.11,0,0,0,48.05,94.89Z"/><path class="cls-308" d="M48,154.1A29.1,29.1,0,1,1,77.15,125,29.1,29.1,0,0,1,48,154.1Zm0-59.21A30.11,30.11,0,1,0,78.16,125h0A30.11,30.11,0,0,0,48.05,94.89Z"/><path class="cls-309" d="M48,154.1A29.1,29.1,0,1,1,77.15,125,29.1,29.1,0,0,1,48,154.1Zm0-59.21A30.11,30.11,0,1,0,78.16,125h0A30.1,30.1,0,0,0,48.07,94.89Z"/><path class="cls-310" d="M48,154.1A29.1,29.1,0,1,1,77.16,125,29.1,29.1,0,0,1,48,154.1Zm0-59.21A30.1,30.1,0,1,0,78.15,125,30.1,30.1,0,0,0,48,94.89h0Z"/><path class="cls-311" d="M48,154.11A29.11,29.11,0,1,1,77.16,125,29.11,29.11,0,0,1,48,154.11ZM48,94.9A30.1,30.1,0,1,0,78.15,125,30.1,30.1,0,0,0,48,94.9Z"/><path class="cls-312" d="M48,154.11A29.11,29.11,0,1,1,77.16,125,29.11,29.11,0,0,1,48,154.11ZM48,94.9A30.1,30.1,0,1,0,78.15,125,30.1,30.1,0,0,0,48,94.9Z"/><path class="cls-313" d="M48,154.11A29.11,29.11,0,1,1,77.16,125,29.11,29.11,0,0,1,48,154.11ZM48,94.9A30.1,30.1,0,1,0,78.15,125,30.1,30.1,0,0,0,48,94.9Z"/><path class="cls-314" d="M48,154.11A29.11,29.11,0,1,1,77.17,125,29.11,29.11,0,0,1,48,154.11ZM48,94.9A30.09,30.09,0,1,0,78.15,125,30.09,30.09,0,0,0,48,94.9h0Z"/><path class="cls-315" d="M48,154.12A29.12,29.12,0,1,1,77.17,125h0A29.12,29.12,0,0,1,48,154.12Zm0-59.21A30.09,30.09,0,1,0,78.14,125,30.09,30.09,0,0,0,48,94.91Z"/><path class="cls-316" d="M48,154.12A29.12,29.12,0,1,1,77.17,125h0A29.12,29.12,0,0,1,48,154.12Zm0-59.21A30.09,30.09,0,1,0,78.14,125,30.09,30.09,0,0,0,48,94.91Z"/><path class="cls-317" d="M48,154.12A29.12,29.12,0,1,1,77.17,125h0A29.12,29.12,0,0,1,48,154.12Zm0-59.21A30.09,30.09,0,1,0,78.14,125,30.09,30.09,0,0,0,48,94.91Z"/><path class="cls-318" d="M48,154.12A29.12,29.12,0,1,1,77.18,125,29.12,29.12,0,0,1,48,154.12Zm0-59.21A30.09,30.09,0,1,0,78.14,125,30.09,30.09,0,0,0,48,94.91Z"/><path class="cls-319" d="M48,154.13A29.13,29.13,0,1,1,77.18,125,29.13,29.13,0,0,1,48,154.13Zm0-59.21A30.08,30.08,0,1,0,78.14,125,30.08,30.08,0,0,0,48,94.92Z"/><path class="cls-320" d="M48,154.13A29.13,29.13,0,1,1,77.18,125,29.13,29.13,0,0,1,48,154.13Zm0-59.21A30.08,30.08,0,1,0,78.13,125h0A30.08,30.08,0,0,0,48,94.92Z"/><path class="cls-321" d="M48,154.13A29.13,29.13,0,1,1,77.18,125,29.13,29.13,0,0,1,48,154.13Zm0-59.21A30.08,30.08,0,1,0,78.13,125h0A30.08,30.08,0,0,0,48,94.92Z"/><path class="cls-322" d="M48,154.13A29.13,29.13,0,1,1,77.19,125,29.13,29.13,0,0,1,48,154.13Zm0-59.21A30.08,30.08,0,1,0,78.13,125h0A30.08,30.08,0,0,0,48,94.92Z"/><path class="cls-323" d="M48,154.14A29.14,29.14,0,1,1,77.19,125,29.14,29.14,0,0,1,48,154.14Zm0-59.21A30.07,30.07,0,1,0,78.13,125,30.07,30.07,0,0,0,48,94.93h0Z"/><path class="cls-324" d="M48,154.14A29.14,29.14,0,1,1,77.19,125,29.14,29.14,0,0,1,48,154.14Zm0-59.21A30.07,30.07,0,1,0,78.12,125,30.07,30.07,0,0,0,48,94.93Z"/><path class="cls-325" d="M48,154.14A29.14,29.14,0,1,1,77.19,125,29.14,29.14,0,0,1,48,154.14Zm0-59.21A30.07,30.07,0,1,0,78.12,125,30.07,30.07,0,0,0,48,94.93Z"/><path class="cls-326" d="M48,154.14A29.14,29.14,0,1,1,77.2,125,29.14,29.14,0,0,1,48,154.14Zm0-59.21A30.07,30.07,0,1,0,78.12,125,30.07,30.07,0,0,0,48,94.93Z"/><path class="cls-327" d="M48,154.15A29.15,29.15,0,1,1,77.2,125h0A29.15,29.15,0,0,1,48,154.15Zm0-59.21A30.07,30.07,0,1,0,78.12,125h0A30.07,30.07,0,0,0,48.05,94.93h0Z"/><path class="cls-328" d="M48,154.15A29.15,29.15,0,1,1,77.2,125h0A29.15,29.15,0,0,1,48,154.15Zm0-59.21A30.06,30.06,0,1,0,78.12,125,30.06,30.06,0,0,0,48,94.94Z"/><path class="cls-329" d="M48,154.15A29.15,29.15,0,1,1,77.2,125h0A29.15,29.15,0,0,1,48,154.15Zm0-59.21A30.06,30.06,0,1,0,78.11,125,30.06,30.06,0,0,0,48,94.94Z"/><path class="cls-330" d="M48,154.15A29.16,29.16,0,1,1,77.21,125h0A29.16,29.16,0,0,1,48,154.15Zm0-59.21A30.06,30.06,0,1,0,78.11,125,30.06,30.06,0,0,0,48,94.94Z"/><path class="cls-331" d="M48,154.16A29.16,29.16,0,1,1,77.21,125,29.16,29.16,0,0,1,48,154.16Zm0-59.22A30.06,30.06,0,1,0,78.11,125h0A30.06,30.06,0,0,0,48,94.94Z"/><path class="cls-332" d="M48,154.16A29.16,29.16,0,1,1,77.21,125,29.16,29.16,0,0,1,48,154.16Zm0-59.22A30.06,30.06,0,1,0,78.11,125h0A30.06,30.06,0,0,0,48,94.94Z"/><path class="cls-333" d="M48,154.16A29.16,29.16,0,1,1,77.21,125,29.16,29.16,0,0,1,48,154.16Zm0-59.22A30,30,0,1,0,78.1,125,30,30,0,0,0,48,94.94h0Z"/><path class="cls-334" d="M48,154.17A29.17,29.17,0,1,1,77.22,125h0A29.17,29.17,0,0,1,48,154.17Zm0-59.22A30,30,0,1,0,78.1,125,30,30,0,0,0,48,94.95Z"/><path class="cls-335" d="M48,154.17A29.17,29.17,0,1,1,77.22,125h0A29.17,29.17,0,0,1,48,154.17Zm0-59.22A30,30,0,1,1,48,95Z"/><path class="cls-336" d="M48,154.17A29.17,29.17,0,1,1,77.22,125h0A29.17,29.17,0,0,1,48,154.17Zm0-59.22A30,30,0,1,1,48,95Z"/><path class="cls-336" d="M48,154.17A29.17,29.17,0,1,1,77.22,125h0A29.17,29.17,0,0,1,48,154.17Zm0-59.22A30,30,0,1,1,48,95Z"/><path class="cls-337" d="M48,154.18A29.18,29.18,0,1,1,77.23,125h0A29.18,29.18,0,0,1,48,154.18ZM48,95a30,30,0,1,0,30,30A30,30,0,0,0,48,95Z"/><path class="cls-338" d="M48,154.18A29.18,29.18,0,1,1,77.23,125h0A29.18,29.18,0,0,1,48,154.18ZM48,95a30,30,0,1,0,30,30A30,30,0,0,0,48,95Z"/><path class="cls-338" d="M48,154.18A29.18,29.18,0,1,1,77.23,125h0A29.18,29.18,0,0,1,48,154.18ZM48,95a30,30,0,1,0,30,30A30,30,0,0,0,48,95Z"/><path class="cls-339" d="M48,154.18A29.18,29.18,0,1,1,77.23,125h0A29.18,29.18,0,0,1,48,154.18ZM48,95a30,30,0,1,0,30,30A30,30,0,0,0,48,95Z"/><path class="cls-340" d="M48,154.19A29.19,29.19,0,1,1,77.24,125h0A29.19,29.19,0,0,1,48,154.19ZM48,95a30,30,0,1,0,30,30A30,30,0,0,0,48,95Z"/><path class="cls-341" d="M48,154.19A29.19,29.19,0,1,1,77.24,125h0A29.19,29.19,0,0,1,48,154.19ZM48,95a30,30,0,1,0,30,30A30,30,0,0,0,48,95Z"/><path class="cls-342" d="M48,154.19A29.19,29.19,0,1,1,77.24,125h0A29.19,29.19,0,0,1,48,154.19ZM48,95a30,30,0,1,0,30,30A30,30,0,0,0,48,95Z"/><path class="cls-343" d="M48,154.19A29.19,29.19,0,1,1,77.24,125h0A29.19,29.19,0,0,1,48,154.19ZM48,95a30,30,0,1,0,30,30A30,30,0,0,0,48,95Z"/><path class="cls-344" d="M48,154.2A29.2,29.2,0,1,1,77.25,125h0A29.2,29.2,0,0,1,48,154.2ZM48,95a30,30,0,1,0,30,30A30,30,0,0,0,48,95Z"/><path class="cls-345" d="M48,154.2A29.2,29.2,0,1,1,77.25,125h0A29.2,29.2,0,0,1,48,154.2ZM48,95a30,30,0,1,0,30,30A30,30,0,0,0,48,95Z"/><path class="cls-346" d="M48,154.2A29.2,29.2,0,1,1,77.25,125h0A29.2,29.2,0,0,1,48,154.2ZM48,95a30,30,0,1,0,30,30A30,30,0,0,0,48,95Z"/><path class="cls-347" d="M48,154.2A29.2,29.2,0,1,1,77.25,125h0A29.2,29.2,0,0,1,48,154.2ZM48,95a30,30,0,1,0,30,30A30,30,0,0,0,48,95Z"/><path class="cls-348" d="M48,154.21A29.21,29.21,0,1,1,77.26,125,29.21,29.21,0,0,1,48,154.21ZM48,95a30,30,0,1,0,30,30A30,30,0,0,0,48,95Z"/><path class="cls-349" d="M48,154.21A29.21,29.21,0,1,1,77.26,125,29.21,29.21,0,0,1,48,154.21ZM48,95a30,30,0,1,0,30,30A30,30,0,0,0,48,95Z"/><path class="cls-350" d="M48,154.21A29.21,29.21,0,1,1,77.26,125,29.21,29.21,0,0,1,48,154.21ZM48,95a30,30,0,1,0,30,30A30,30,0,0,0,48,95Z"/><path class="cls-351" d="M48,154.21A29.21,29.21,0,1,1,77.27,125,29.21,29.21,0,0,1,48,154.21ZM48,95a30,30,0,1,0,30,30A30,30,0,0,0,48,95Z"/><path class="cls-352" d="M48,154.22A29.22,29.22,0,1,1,77.27,125,29.22,29.22,0,0,1,48,154.22ZM48,95a30,30,0,1,0,30,30A30,30,0,0,0,48,95Z"/><path class="cls-353" d="M48,154.22A29.22,29.22,0,1,1,77.27,125,29.22,29.22,0,0,1,48,154.22ZM48,95a30,30,0,1,0,30,30A30,30,0,0,0,48,95Z"/><path class="cls-354" d="M48,154.22A29.22,29.22,0,1,1,77.27,125,29.22,29.22,0,0,1,48,154.22ZM48,95a30,30,0,1,0,30,30A30,30,0,0,0,48,95Z"/><path class="cls-355" d="M48,154.22A29.22,29.22,0,1,1,77.28,125,29.22,29.22,0,0,1,48,154.22ZM48,95a30,30,0,1,0,30,30A30,30,0,0,0,48,95Z"/><path class="cls-356" d="M48,154.23A29.23,29.23,0,1,1,77.28,125h0A29.23,29.23,0,0,1,48,154.23ZM48,95a30,30,0,1,0,30,30A30,30,0,0,0,48,95Z"/><path class="cls-357" d="M48,154.23A29.23,29.23,0,1,1,77.28,125h0A29.23,29.23,0,0,1,48,154.23ZM48,95a30,30,0,1,0,30,30A30,30,0,0,0,48,95Z"/><path class="cls-358" d="M48,154.23A29.23,29.23,0,1,1,77.28,125h0A29.23,29.23,0,0,1,48,154.23ZM48,95a30,30,0,1,0,30,30A30,30,0,0,0,48,95Z"/><path class="cls-359" d="M48,154.23A29.23,29.23,0,1,1,77.29,125,29.23,29.23,0,0,1,48,154.23ZM48,95a30,30,0,1,0,30,30A30,30,0,0,0,48,95Z"/><path class="cls-3" d="M48,154.24A29.24,29.24,0,1,1,77.29,125,29.24,29.24,0,0,1,48,154.24ZM48,95a30,30,0,1,0,30,30A30,30,0,0,0,48,95h0Z"/><path class="cls-360" d="M48,154.24A29.24,29.24,0,1,1,77.29,125,29.24,29.24,0,0,1,48,154.24ZM48,95a30,30,0,1,0,30,30A30,30,0,0,0,48,95h0Z"/><path class="cls-361" d="M48,154.24A29.24,29.24,0,1,1,77.29,125,29.24,29.24,0,0,1,48,154.24ZM48,95a30,30,0,1,0,30,30A30,30,0,0,0,48,95h0Z"/><path class="cls-362" d="M48,154.24A29.24,29.24,0,1,1,77.3,125,29.24,29.24,0,0,1,48,154.24ZM48,95a30,30,0,1,0,30,30A30,30,0,0,0,48,95h0Z"/><path class="cls-363" d="M48,154.25A29.25,29.25,0,1,1,77.3,125,29.25,29.25,0,0,1,48,154.25ZM48,95a30,30,0,1,0,30,30A30,30,0,0,0,48,95h0Z"/><path class="cls-364" d="M48,154.25A29.25,29.25,0,1,1,77.3,125,29.25,29.25,0,0,1,48,154.25ZM48,95a30,30,0,1,0,30,30A30,30,0,0,0,48,95h0Z"/><path class="cls-365" d="M48,154.25A29.25,29.25,0,1,1,77.3,125,29.25,29.25,0,0,1,48,154.25ZM48,95a30,30,0,1,0,30,30A30,30,0,0,0,48,95h0Z"/><path class="cls-366" d="M48,154.25A29.25,29.25,0,1,1,77.31,125,29.25,29.25,0,0,1,48,154.25ZM48,95a30,30,0,1,0,30,30A30,30,0,0,0,48,95h0Z"/><path class="cls-367" d="M48,154.26A29.26,29.26,0,1,1,77.31,125h0A29.26,29.26,0,0,1,48,154.26ZM48,95a30,30,0,1,0,30,30A30,30,0,0,0,48,95h0Z"/><path class="cls-368" d="M48,154.26A29.26,29.26,0,1,1,77.31,125h0A29.26,29.26,0,0,1,48,154.26ZM48,95a30,30,0,1,0,30,30A30,30,0,0,0,48,95h0Z"/><path class="cls-369" d="M48,154.26A29.26,29.26,0,1,1,77.31,125h0A29.26,29.26,0,0,1,48,154.26ZM48,95a30,30,0,1,0,30,30A30,30,0,0,0,48,95h0Z"/><path class="cls-370" d="M48,154.26A29.26,29.26,0,1,1,77.32,125,29.26,29.26,0,0,1,48,154.26ZM48,95a30,30,0,1,0,30,30A30,30,0,0,0,48,95h0Z"/><path class="cls-371" d="M48,154.27A29.27,29.27,0,1,1,77.32,125,29.27,29.27,0,0,1,48,154.27ZM48,95a30,30,0,1,0,30,30A30,30,0,0,0,48,95h0Z"/><path class="cls-372" d="M48,154.27A29.27,29.27,0,1,1,77.32,125,29.27,29.27,0,0,1,48,154.27ZM48,95a30,30,0,1,0,30,30A30,30,0,0,0,48,95h0Z"/><path class="cls-373" d="M48,154.27A29.27,29.27,0,1,1,77.32,125,29.27,29.27,0,0,1,48,154.27ZM48,95a30,30,0,1,0,30,30A30,30,0,0,0,48,95h0Z"/><path class="cls-374" d="M48,154.27A29.27,29.27,0,1,1,77.33,125,29.27,29.27,0,0,1,48,154.27ZM48,95a30,30,0,1,0,30,30A30,30,0,0,0,48,95h0Z"/><path class="cls-1" d="M48,154.28A29.28,29.28,0,1,1,77.33,125,29.28,29.28,0,0,1,48,154.28Zm0-59.23a21.21,21.21,0,1,0,.05,0H48Z"/><g class="cls-375"><polygon class="cls-376" points="24.54 127.71 69.83 127.71 69.83 141.84 66.82 145.18 63.48 147.7 32.5 147.7 27.64 144.31 24.54 140.46 24.54 127.71"/></g></svg>