<?xml version="1.0" encoding="utf-8"?>
<!-- Generator: Adobe Illustrator 21.1.0, SVG Export Plug-In . SVG Version: 6.00 Build 0)  -->
<svg version="1.1" id="Layer_1" xmlns="http://www.w3.org/2000/svg" xmlns:xlink="http://www.w3.org/1999/xlink" x="0px" y="0px"
	 viewBox="0 0 126.7 150.9" style="enable-background:new 0 0 126.7 150.9;" xml:space="preserve">
<style type="text/css">
	.st0{fill:#FE0A0B;}
	.st1{fill:#FE0000;}
	.st2{fill:#FFDD01;}
</style>
<title>CR</title>
<path class="st0" d="M23.9,113.9c-0.3-2.3-0.6-4.6-0.8-6.8c-0.6-4.8-1.1-9.5-1.7-14.3c0,0,0-0.1,0-0.1c0.2-1.9-0.9-3-2.4-4.1
	c-5.5-3.8-10.9-7.8-16.3-11.8c-0.5-0.4-0.9-1-1-1.6c-3.3-16.9,0.1-32.6,9.7-46.8C18.3,18,28.3,9.9,39.9,5.2c9.5-4,19.9-5.5,30.2-4.3
	c18.5,2.2,33.1,11.1,44.1,25.9c5,6.7,8.5,14.4,10.4,22.5c1.5,6.3,2,12.9,1.3,19.4c-0.2,2.2-0.6,4.4-0.9,6.6
	c-0.1,0.6-0.4,1.2-0.9,1.5l-15.1,11c-0.9,0.6-1.7,1.3-2.6,1.8c-0.6,0.4-0.9,1-0.9,1.6c-0.4,3.7-0.8,7.3-1.3,11s-0.9,7.3-1.3,10.9
	c-0.1,0.7-0.4,0.8-1,0.8c-10.1,0-20.3,0-30.4,0c-0.8,0-1.5,0.3-2.1,0.8c-3.6,3-8.9,2.9-12.4-0.3c-0.3-0.3-0.8-0.4-1.2-0.4
	c-8-0.1-16-0.1-24-0.1L23.9,113.9L23.9,113.9z M69.6,79.6h-0.1c0-0.2,0-0.3,0.1-0.5c0.7-3.5,1.4-7.1,2.1-10.6L81.8,18
	c0.5-2.4,0.5-2.4-1.8-3.5c-4.1-1.8-8.5-2.6-12.9-2.3c-0.7,0-1,0.3-1,1c-0.4,10.1-0.8,20.2-1.2,30.3c-0.5,11.8-0.9,23.5-1.4,35.3
	c0,0.2,0,0.4-0.1,0.6c-0.1-0.2-0.2-0.5-0.2-0.8c-0.5-12.1-1-24.1-1.4-36.2c-0.4-9.8-0.8-19.6-1.2-29.3c0-0.7-0.3-1-1-1
	c-2.1,0.1-4.2,0.1-6.3,0.3c-2.9,0.3-5.7,1.3-8.2,2.8c-0.5,0.2-0.7,0.8-0.6,1.3c4,19.8,8,39.6,11.9,59.3c0.3,1.3,0.5,2.6,0.8,3.9
	c-0.2-0.3-0.3-0.5-0.4-0.9c-0.8-2.8-1.6-5.5-2.4-8.3L39.9,19.3c-0.3-0.9-0.3-1-1.3-0.7c-1.4,0.4-2.7,1-4,1.7c-3,1.7-5.7,3.9-7.9,6.5
	c-0.5,0.5-0.6,1.3-0.2,1.9c8.3,17.6,16.6,35.2,24.9,52.8c0.1,0.3,0.2,0.5,0.3,0.8l-0.1,0.1L22.8,32.5c-0.8,0.8-1.6,1.4-2.2,2.2
	c-2,2.5-3.7,5.3-5,8.3c-0.4,0.8-0.6,1.7-0.9,2.6c-0.2,0.5,0,1.1,0.4,1.5C25.4,59.7,35.7,72.3,46,85c0.1,0.1,0.2,0.3,0.3,0.4
	l-0.1,0.1l-32.5-33c-0.3,0.8-0.7,1.4-0.9,2c-1.7,4.9-2,10.1-0.7,15.1c0.1,0.5,0.4,0.9,0.8,1.2c5.9,4.3,11.8,8.5,17.7,12.8
	c0.4,0.2,0.7,0.6,0.7,1.1c0.7,5.7,1.5,11.4,2.2,17.2c0.1,0.7,0.3,0.9,1.1,0.9c7.2,0,14.3,0,21.5,0c0.5,0,1,0.2,1.4,0.5
	c1.2,0.9,2.5,1.8,3.9,2.6c1.1,0.7,2.6,0.7,3.7,0.1c1.4-0.8,2.8-1.7,4.1-2.6c0.4-0.4,1-0.5,1.6-0.5c7.1,0,14.3,0,21.4,0
	c0.7,0,0.9-0.2,1-0.9c0.7-5.7,1.4-11.3,2.1-17c0-0.6,0.3-1.1,0.8-1.4c5.9-4.3,11.9-8.5,17.8-12.8c0.3-0.2,0.5-0.5,0.6-0.8
	c1.2-4.4,1.2-9.1,0-13.5c-0.4-1.3-0.9-2.6-1.5-4.1L80.3,85.7c0-0.2,0-0.4,0.2-0.5l8.1-9.9c7.7-9.4,15.4-18.8,23.1-28.3
	c0.4-0.4,0.5-1,0.4-1.5c-0.1-0.3-0.1-0.6-0.3-0.9c-1.4-3.9-3.6-7.5-6.2-10.7c-0.5-0.5-1.1-1-1.7-1.5L75.2,82.2c0-0.2,0-0.5,0.1-0.7
	c8.3-17.7,16.6-35.3,24.9-53c0.3-0.5,0.2-1.1-0.1-1.5c-0.2-0.3-0.4-0.6-0.7-0.8c-2.1-2.3-4.6-4.3-7.3-5.8c-1.4-0.7-2.8-1.3-4.3-1.8
	c-0.5-0.2-0.8,0-1,0.6c-0.4,1.5-0.8,3-1.3,4.4L71.4,72.8L69.6,79.6z"/>
<path class="st1" d="M17.8,150.3c-3.7-0.2-7.4-0.4-11.1-0.6c-1.5-0.1-2.9-0.7-4-1.7c-0.3-0.2-0.5-0.6-0.7-0.9
	c-0.3-1.4-0.5-2.8-0.7-4.2c-0.1-0.5,0.3-0.8,0.8-0.8c0.8,0,1.7-0.1,2.5-0.1c2.2,0,4.3,0,6.5,0.1c1,0,1.1,0.1,1.2,1.1
	c-0.1,1.3,0.9,2.4,2.2,2.5c0,0,0.1,0,0.1,0c2,0.2,4.1,0.2,6.1,0.1c1.8-0.1,2.8-1.9,2.3-3.9c-0.4-1.6-1.2-2.2-3-2.3
	c-2.9-0.1-5.8,0-8.7-0.1c-1.8-0.1-3.5-0.2-5.2-0.5c-2.3-0.4-4-2.3-3.9-4.6c0-1.5,0.1-2.9,0.2-4.4c0.2-2,1.7-3.6,3.6-3.9
	c1.9-0.4,3.9-0.7,5.9-0.8c3.7-0.1,7.3-0.2,11-0.1c2.3,0,4.6,0.2,6.9,0.6c2.1,0.3,3.7,1.6,3.7,4.1c0,0.6,0,1.3,0,1.9s-0.3,1-1,1
	c-2.9,0-5.9,0-8.8,0c-0.6,0-0.8-0.2-0.8-0.8c0,0,0,0,0-0.1c-0.1-2.6-0.8-2.7-2.9-3c-2.2-0.3-4.4-0.2-6.6,0.4
	c-0.4,0.1-0.7,0.3-0.9,0.6c-0.9,1.1-0.5,3.6,0.7,4.3c0.6,0.3,1.4,0.5,2.1,0.5c1.7,0.1,3.5,0.2,5.2,0.1c3.1,0,6.2,0.3,9.2,0.9
	c1.9,0.3,3.5,1.7,3.9,3.6c0.7,2.3,0.7,4.8,0,7.1c-0.6,1.7-2,2.9-3.8,3.1c-2.7,0.5-5.5,0.7-8.3,0.6h-3.6L17.8,150.3z"/>
<path class="st1" d="M38.1,137.7c0-3.8,0-7.5,0-11.3c0-0.7,0.2-0.9,1.1-0.9c2.2,0,4.4,0,6.6,0c1.8,0,1.9,0.1,1.9,1.9
	c0,1.8,0,3.4,0,5.1c0,0.9,0.2,1.1,1,0.8c2.8-1,5.7-0.8,8.6-0.6c1.8,0.1,3.5,0.5,5.2,1.1c1.6,0.5,2.7,2.1,2.5,3.7
	c0,3.9-0.2,7.8-0.3,11.8c0.1,0.4-0.2,0.7-0.6,0.8c0,0,0,0-0.1,0c-0.2,0-0.3,0.1-0.5,0.1c-2.2,0-4.5,0-6.7,0c-1,0-1.2-0.1-1.1-1.2
	c0-2.9,0.1-5.7,0.1-8.6c0.2-0.9-0.2-1.9-1-2.4c-0.4-0.2-0.8-0.4-1.2-0.5c-1.3-0.3-2.7-0.3-4,0.1c-1.3,0.1-2.2,1.3-2.1,2.5
	c0,2.7-0.1,5.5-0.1,8.2c0,1.6,0,1.6-1.6,1.6c-2.3,0-4.6,0-6.9,0c-0.7,0-0.9-0.3-0.9-0.9c0-3.8,0-7.5,0-11.3L38.1,137.7z"/>
<path class="st1" d="M87.9,142.8c-2.7,0-5.3,0-8,0c-1,0-1.2,0.2-1.1,1.2c-0.1,1.4,1,2.7,2.4,2.7c0.1,0,0.2,0,0.3,0
	c1.1,0.1,2.1,0.1,3.2,0.1c1.3,0.1,2.4-0.7,2.7-1.9c0.1-0.5,0.6-0.8,1.1-0.7c2.4,0,4.9,0,7.3,0c1.1,0,1.3,0.4,1.1,1.4
	c-0.2,1.4-0.9,2.7-2,3.5c-0.8,0.5-1.8,0.9-2.7,1.1c-1.1,0.2-2.1,0.4-3.2,0.3c-4.6,0-9.1-0.1-13.7-0.3c-1.5,0-3-0.5-4.3-1.4
	c-1.1-0.9-1.7-2.2-1.8-3.6c-0.5-2.9-0.4-5.9,0.3-8.7c0.4-1.9,2-3.4,3.9-3.6c2.1-0.4,4.3-0.7,6.5-0.7c3.9,0,7.8,0.1,11.7,0.4
	c3.3,0.3,5.3,1.8,5.5,6c0.1,1,0,2.1,0,3.1s-0.2,1.1-1.1,1.1c-2.4,0-4.9,0-7.3,0L87.9,142.8L87.9,142.8z M83.3,139h3.4
	c0.6,0,0.8-0.3,0.7-0.9c-0.1-0.8-0.7-1.5-1.5-1.8c-1.8-0.6-3.7-0.6-5.4-0.1c-0.7,0.2-1.2,0.8-1.4,1.4c-0.4,0.9-0.1,1.3,0.9,1.4
	S82.2,139,83.3,139z"/>
<path class="st1" d="M115.8,137.9c0-3.8,0-7.6,0-11.4c0-0.6,0.2-0.9,0.9-0.9c2.5,0,5,0,7.6,0c0.9,0,1,0.1,1,1c0,6.7,0,13.3,0,20
	c0,0.9,0,1.8,0,2.7c0,0.7-0.3,0.9-1,0.9c-2.6,0-5.2,0-7.8,0c-0.6,0-0.8-0.3-0.8-0.8c0-1.2,0-2.4,0-3.6
	C115.7,143.2,115.7,140.5,115.8,137.9L115.8,137.9z"/>
<path class="st1" d="M101.3,137.8c0-3.8,0-7.5,0-11.3c0-1,0-1,1-1c2.5,0,5.1,0,7.6,0c0.7,0,0.9,0.2,0.9,0.9
	c-0.1,5.8-0.1,11.6-0.1,17.4c0,1.8-0.1,3.6-0.1,5.4c0,0.7-0.2,1-1,1c-2.4,0-4.8,0-7.2,0c-1,0-1.1-0.1-1.1-1.1
	C101.3,145.4,101.3,141.6,101.3,137.8L101.3,137.8z"/>
<path class="st2" d="M69.6,79.6l1.9-6.8l14.1-49.2c0.4-1.5,0.9-3,1.3-4.4c0.1-0.6,0.5-0.8,1-0.6c1.5,0.5,2.9,1.1,4.3,1.8
	c2.7,1.5,5.2,3.5,7.3,5.8c0.2,0.3,0.4,0.6,0.7,0.8c0.4,0.4,0.4,1,0.1,1.5c-8.3,17.6-16.6,35.3-24.9,53c-0.1,0.2-0.2,0.5-0.1,0.7
	l28.7-49.7c0.6,0.4,1.1,0.9,1.6,1.4c2.7,3.2,4.8,6.8,6.2,10.7c0.1,0.3,0.2,0.6,0.3,0.9c0.2,0.5,0,1.1-0.4,1.5
	c-7.7,9.4-15.4,18.8-23.1,28.3l-8.1,9.9c-0.1,0.1-0.2,0.3-0.2,0.5L113,52.4c0.6,1.5,1.1,2.7,1.5,4.1c1.2,4.4,1.2,9.1,0,13.5
	c-0.1,0.3-0.3,0.6-0.6,0.8c-5.9,4.3-11.8,8.6-17.8,12.8c-0.5,0.3-0.8,0.8-0.8,1.4c-0.7,5.7-1.4,11.3-2.1,17c-0.1,0.7-0.3,0.9-1,0.9
	c-7.1,0-14.3,0-21.4,0c-0.6,0-1.1,0.2-1.6,0.5c-1.3,1-2.7,1.8-4.1,2.6c-1.2,0.6-2.6,0.6-3.7-0.1c-1.3-0.8-2.6-1.7-3.9-2.6
	c-0.4-0.3-0.9-0.5-1.4-0.5c-7.2,0-14.3,0-21.5,0c-0.7,0-1-0.2-1.1-0.9c-0.7-5.7-1.4-11.4-2.2-17.2c-0.1-0.5-0.3-0.9-0.7-1.1
	c-5.9-4.3-11.8-8.5-17.7-12.8c-0.4-0.3-0.7-0.7-0.8-1.2c-1.3-5-1.1-10.3,0.7-15.1c0.3-0.6,0.6-1.3,0.9-2l32.5,33l0.1-0.1
	c-0.1-0.1-0.2-0.3-0.3-0.4C35.7,72.3,25.4,59.7,15,47.1c-0.4-0.4-0.5-1.1-0.3-1.6c0.3-0.9,0.6-1.8,0.9-2.6c1.3-3,3-5.8,5-8.3
	c0.6-0.8,1.4-1.4,2.2-2.2l28.8,49.8l0.1-0.1c-0.1-0.3-0.2-0.5-0.3-0.8c-8.3-17.6-16.5-35.2-24.8-52.8c-0.4-0.6-0.3-1.4,0.2-1.9
	c2.2-2.6,4.9-4.8,7.9-6.5c1.3-0.7,2.6-1.2,4-1.7c0.9-0.3,1-0.2,1.3,0.7l14.6,51.3c0.8,2.8,1.6,5.5,2.4,8.3c0.1,0.3,0.2,0.6,0.4,0.9
	c-0.3-1.3-0.5-2.6-0.8-3.9c-4-19.8-8-39.6-11.9-59.3c-0.2-0.5,0.1-1.1,0.6-1.3c2.5-1.5,5.3-2.5,8.1-2.8c2.1-0.3,4.2-0.2,6.3-0.3
	c0.7,0,0.9,0.2,1,1c0.4,9.8,0.8,19.6,1.2,29.3c0.5,12.1,1,24.1,1.4,36.2c0,0.3,0.1,0.5,0.2,0.8c0-0.2,0.1-0.4,0.1-0.6
	c0.5-11.8,0.9-23.6,1.4-35.3c0.4-10.1,0.8-20.2,1.2-30.3c0-0.7,0.3-1,1-1c4.4-0.3,8.9,0.5,12.9,2.3c2.3,1,2.3,1.1,1.8,3.5L71.6,68.5
	c-0.7,3.5-1.4,7.1-2.1,10.6c0,0.2,0,0.3-0.1,0.5L69.6,79.6z"/>
</svg>
