<?xml version="1.0" encoding="utf-8"?>
<!-- Generator: Adobe Illustrator 21.1.0, SVG Export Plug-In . SVG Version: 6.00 Build 0)  -->
<svg version="1.1" id="Layer_1" xmlns="http://www.w3.org/2000/svg" xmlns:xlink="http://www.w3.org/1999/xlink" x="0px" y="0px"
	 viewBox="0 0 181 36.8" style="enable-background:new 0 0 181 36.8;" xml:space="preserve">
<style type="text/css">
	.st0{fill:#C7132C;}
</style>
<title>Grocery</title>
<path class="st0" d="M51.1,36.2l8-17c-1.7,0.6-3.1,0.9-4.4,1.5c-0.4,0.2-0.7,0.9-0.9,1.4c-1,2.5-2.7,4.7-5,6.1
	c-3.4,2.1-6.4,1.2-8.3-2.4l-0.4-0.8c-1.4,1-2.6,1.9-4,2.7s-2.9,1.6-4.3,0.4c-1.4-1.3-0.9-2.9-0.2-4.4c1-2.2,2-4.3,3-6.5
	c0.3-0.5,0.5-1,0.6-1.5c0.1-0.6-0.1-1.1-0.4-1.6c-0.2-0.2-1.1,0-1.4,0.3c-1,0.8-1.8,1.8-2.5,2.9c-1.4,2.6-2.5,5.4-3.8,8
	c-1.6,3.3-1.6,3.3-5.6,2.7c0.5-1.2,1-2.3,1.5-3.4c3-6.3,6.1-12.5,8.9-18.8c0.7-1.6,1.6-2.5,3.4-2.2c0.6,0,1.3,0,1.9,0l-3.9,8.5
	c0.9-0.4,1.4-0.6,1.9-0.8c1.5-0.6,3-0.6,4.1,0.6s0.9,2.6,0.3,4c-1.3,2.6-2.5,5.3-3.7,7.9c-0.2,0.6-0.4,1.2-0.6,1.8
	c2.2-0.3,4-1.9,4.6-4.1c0.8-3.1,1.9-6.1,4.4-8.2c1-0.9,2.2-1.6,3.5-2c3.1-0.8,5.8,0.9,6.5,4.2c0.3,1.1,0.3,2.2,0.5,3.5
	c3-0.9,5.6-2.1,6.9-5.2c0.9-1.6,2.9-2.2,4.6-1.6c0.2,0.1,0.2,0.7,0.3,1c0.8-0.3,1.6-0.8,2.4-1c1.6-0.7,3.5,0,4.3,1.7
	c0.2,0.4,0.3,0.9,0.3,1.3c0.4,4.5-2.8,10.5-6.8,12.6c-2.6,1.4-4.5,0.8-6.4-2.2l-5.1,10.6L51.1,36.2z M48.9,15.1
	c-3.3,1.2-5.7,5.8-4.7,8.9c0.5,1.6,1.7,2.2,3.2,1.4c1.8-0.9,3.1-2.6,3.5-4.6C48.3,19.6,48.3,19.4,48.9,15.1L48.9,15.1z M69.4,18.5
	c0-2.5-1-3.4-2.7-2.8c-2.2,0.8-4.2,4.4-3.7,6.7c0.4,1.9,1.7,2.5,3.4,1.4C68.2,22.6,69.3,20.6,69.4,18.5z"/>
<path class="st0" d="M126.5,0.5c0.2,0.1,0.4,0.2,0.6,0.3c4.5,0.6,4.7,4,3.1,7.1c-1.7,3.3-4.5,3-7.7,2.8c0.7-0.4,1.3-0.8,1.9-1.3
	c1.2-1,2.3-2.2,3.2-3.5c0.9-1.4,0.2-2.6-1.5-2.7c-3.1-0.2-8,2.9-9,5.8c-0.7,1.3-0.2,2.9,1,3.6c0.7,0.5,1.4,0.9,2.1,1.3
	c3.8,2.1,5.1,6.9,3,10.7c-0.4,0.8-1,1.5-1.7,2c-3.7,3.3-9,4-13.5,2c-3.6-1.7-4.9-4.5-3.9-8.3c0.2-0.7,0.4-1.4,0.7-2
	c0.4-0.8,0.8-1.6,1.3-2.5l4.1,2.3c-0.6,1.6-1.1,3.3-1.4,5c-0.3,1.8,0.8,3.5,2.6,3.8c0.3,0.1,0.7,0.1,1,0c1.6,0,3.2-0.4,4.6-1.1
	c3.4-2,3.5-6,0.4-8.5c-0.8-0.6-1.7-1.1-2.5-1.7c-3.2-2.2-4-5.2-2.2-8.7c1.9-3.7,5.3-5.3,9.2-6.2c0.4-0.1,0.9-0.3,1.3-0.4L126.5,0.5z
	"/>
<path class="st0" d="M0.6,21.6l2.2-5.3L7,18.5c-0.6,1.8-1,3.6-1.3,5.4c-0.2,1.9,1.1,3.1,2.9,3.4c4.3,0.8,8-1.9,7.8-5.8
	c-0.1-1-0.5-2-1.2-2.8c-1-1-2.1-1.9-3.4-2.6c-4.5-2.7-3.9-6.9-1.4-9.9c4-4.7,9.3-6,15.2-4.8c1.9,0.3,3.2,2.1,2.9,4
	c0,0.2-0.1,0.4-0.2,0.6C27.8,7.7,27,9,26,10.2c-0.6,0.6-1.4,0.9-2.3,1c-1.3,0.1-2.6,0.1-3.8,0c1.5-1.1,2.9-2.4,4.2-3.7
	c0.7-0.8,1-1.8,0.9-2.8c-0.4-1.3-1.8-1.1-2.9-0.9c-2.9,0.5-5.5,2.1-7.3,4.5c-1.6,2-1.2,3.7,0.8,5.1c0.6,0.4,1.3,0.8,2,1.2
	c3.6,2,4.9,6.6,2.8,10.2c-0.4,0.8-1,1.4-1.6,2c-4.2,3.9-11,4.6-15.3,1.4c-1.2-1-2.2-2.2-2.9-3.5C0.5,23.7,0.4,22.6,0.6,21.6z"/>
<path class="st0" d="M143.5,26.3c-4.5,3.6-5.8,3.5-7.6-0.5c-0.7,0.6-1.3,1.2-2,1.7c-3.7,2.7-7.6,1.2-8.4-3.3
	c-0.8-4.3,1.9-9.7,5.9-11.8c3.1-1.6,5.6-0.7,8,1.9c0.9-2.9,3-2.1,5.3-2.1c-0.7,1.5-1.2,2.8-1.8,4c-1,2.2-2.1,4.4-3,6.7
	c-0.3,0.6,0.1,1.5,0.2,2.3c0.7-0.2,1.6-0.1,2.1-0.6c0.9-0.8,1.6-1.7,2.1-2.8c1.3-2.3,2.4-4.8,3.4-7.3c0.7-1.9,1.8-2.6,3.7-2.2
	c0.5,0.1,0.9,0.1,1.4,0.1c-1.7,3.9-3.4,7.6-5,11.4c-0.4,0.9-1,1.9,0.1,2.5c0.8,0.1,1.6-0.1,2.1-0.7c2-2.1,3.9-4.3,5.8-6.4
	c-2.6-2.4-2.3-5.9,0.4-7.5c0.7-0.4,1.6-0.4,2.3-0.2c0.4,0.2,0.8,1.2,0.7,1.8c-0.1,1.3-0.3,2.5-0.6,3.8c1.1,0.6,2.4,0.1,2.9-0.9
	c0,0,0-0.1,0.1-0.1c1.7-2.8,3.8-5.1,7.2-5.7c2.2-0.5,4.4,0.9,4.9,3.1c0.1,0.6,0.1,1.3,0,1.9c-0.9,3.6-3.7,5.4-6.8,6.7
	c-0.4,0.2-0.9,0.3-1.4,0.4c-1.1,0.2-2.1,0.4-1.6,1.9s1.5,2.1,2.7,1.7c1.7-0.8,3.3-1.8,4.8-2.8l0.9,0.5c-1.3,3.4-5.3,5.9-8.1,5.2
	c-3.3-0.8-4.4-3.6-3.8-9.7c-1.3-0.6-2.9-0.1-3.6,1.3c-1.9,2.7-4.1,5.2-6.6,7.5C148,30,144.9,30.3,143.5,26.3z M137.2,18.2
	c0-2.8-1.5-4.2-3.4-3.4c-2.7,1.1-5,5.9-4.2,8.7c0.6,2,1.9,2.5,3.7,1.4C135.8,23.3,136.8,20.8,137.2,18.2L137.2,18.2z M164,20.9
	c2.9-0.5,5.4-2.1,7.1-4.4c0.7-0.9,1.2-2,0.1-3s-2.1-0.4-3.1,0.2C165.8,15.4,164.3,18,164,20.9z"/>
<path class="st0" d="M78,27.8l4.6-10.4l1-2.3c1.3-2.9,1.3-2.9,4.8-2.7l-0.2,1.8c1-0.6,2-1.1,3.2-1.5c1-0.2,2.6-0.4,3.1,0.2
	c0.7,1,0.9,2.2,0.5,3.4c-0.9,2.6-2.2,5-3.2,7.5c-0.2,0.6-0.2,1.3-0.2,1.9c0.7-0.3,1.3-0.6,1.9-1c0.7-0.5,1-2,2.3-1.1
	c-0.1,0.9-0.5,1.7-1.1,2.4c-1,1-2.1,1.7-3.4,2.2c-1,0.3-2.2,0.2-3.1-0.4c-0.7-0.9-0.9-2.1-0.7-3.2c0.6-2.3,1.7-4.4,2.5-6.6
	c0.1-0.7,0.2-1.3,0.1-2c-0.6,0.2-1.5,0.2-1.9,0.6c-1.1,1.2-2.1,2.5-3,3.9c-0.8,1.5-1.5,3-2.1,4.5C81.7,28.1,81.7,28.1,78,27.8z"/>
<path class="st0" d="M79.9,13l1.1-0.9c-1-1.7-0.8-2.9,0.7-3.8c1.2-0.7,2.1-0.2,2.2,1.2c0.1,1.9-1.4,3.4-3.3,3.5
	C80.4,13,80.2,13,79.9,13z"/>
<path class="st0" d="M177.9,30.2c-1.4,0-2.6-1.2-2.6-2.6c0-1.4,1.2-2.6,2.6-2.6c1.4,0,2.6,1.2,2.6,2.6l0,0
	C180.5,29.1,179.3,30.2,177.9,30.2z M177.9,25.4c-1.2,0-2.2,1-2.2,2.2c0,1.2,1,2.2,2.2,2.2c1.2,0,2.2-1,2.2-2.2c0,0,0,0,0,0
	C180.1,26.4,179.1,25.4,177.9,25.4z"/>
<path class="st0" d="M177,28.9v-2.3h1c0.2,0,0.4,0,0.5,0.1c0.1,0,0.2,0.1,0.3,0.2c0.1,0.1,0.1,0.2,0.1,0.4c0,0.2,0,0.3-0.1,0.4
	c-0.1,0.1-0.3,0.2-0.4,0.2c0.1,0.1,0.2,0.1,0.2,0.2c0.1,0.1,0.2,0.2,0.3,0.4l0.3,0.4h-0.5l-0.3-0.5c-0.1-0.1-0.2-0.2-0.2-0.3
	c0,0-0.1-0.1-0.1-0.1c-0.1,0-0.2,0-0.2,0h-0.1v0.9L177,28.9z M177.5,27.6h0.3c0.1,0,0.3,0,0.4,0c0.1,0,0.1-0.1,0.1-0.1
	c0-0.1,0-0.1,0-0.2c0-0.1,0-0.1-0.1-0.2c0,0-0.1-0.1-0.2-0.1h-0.7L177.5,27.6z"/>
</svg>
