<?xml version="1.0" encoding="utf-8"?>
<!-- Generator: Adobe Illustrator 21.1.0, SVG Export Plug-In . SVG Version: 6.00 Build 0)  -->
<svg version="1.1" id="Layer_1" xmlns="http://www.w3.org/2000/svg" xmlns:xlink="http://www.w3.org/1999/xlink" x="0px" y="0px"
	 viewBox="0 0 181 59.9" style="enable-background:new 0 0 181 59.9;" xml:space="preserve">
<title>Mass</title>
<path d="M94.3,24.9c0.1,9.8-7.4,15.8-15.7,16.4c-4.3,0.4-8.5-0.7-12-3.2c-4.7-3.3-6.8-9.8-5.5-15.8c1.7-7.6,8.6-12.3,16.1-12.8
	c3.9-0.4,7.8,0.7,11,2.9C92.4,15.4,94.3,19.7,94.3,24.9z M79.9,37.5c3.8-0.2,7.1-2.5,8.7-6c3.1-6.7-0.5-14.8-7.5-17.4
	c-5.9-2.2-12.3,0.2-14.8,5.4C62.8,26.8,68.3,37.7,79.9,37.5L79.9,37.5z"/>
<path d="M164.2,9.2c8.4-0.5,15.5,5.9,16,14.3c0,0.6,0,1.2,0,1.8c-0.4,7.2-4.6,12.8-11.5,14.9c-6.3,1.8-12.4,1-17.4-3.5
	c-3.9-3.5-5.2-8.3-4.3-13.4c1.2-8.1,8.2-14.1,16.5-14.1L164.2,9.2z M175.6,26.3c0-5.9-3.8-11.2-9.5-12.9c-5.2-1.7-11.1,0.6-13.6,5.1
	c-4.1,7.7,1.4,17.7,10.2,18.6C170.1,37.9,175.8,32.7,175.6,26.3z"/>
<path d="M11.8,40.6c-3.3-0.1-6.5-1-9.3-2.8c-1.5-1-2.3-2.8-1.9-4.6c0.2-0.8,0.5-1.6,1.4-1.8c0.9-0.2,1.8,0.1,2.4,0.8
	c1.1,1.7,2.5,3.1,4.3,4.2c2.5,1.4,5.5,1.3,7.9-0.2c2.4-1.4,4.1-3.4,3.8-6.4c-0.3-2.3-1.5-4.4-3.2-5.9c-3-2.8-6.7-4.8-9.8-7.5
	S3,10.3,4.2,6.8C5.6,3.1,9,0.7,12.8,0.5c2.4,0,4.7,0.3,7,1.1c1.6,0.6,2.7,2.2,2.5,3.9c-0.1,0.8-0.2,1.5-1,1.8
	C20.6,7.8,19.7,7.6,19,7c-0.6-0.6-1.2-1.3-1.9-1.9c-1-1.1-2.4-1.7-3.9-1.7C9.9,3.3,8,6.3,9.6,9.3c1.2,2.2,2.9,4,5,5.3
	c3.5,2.3,7,4.6,9.2,8.4c3.3,5.4,1.5,12.5-3.9,15.8c-0.8,0.5-1.6,0.8-2.4,1.1C15.7,40.4,13.7,40.7,11.8,40.6z"/>
<path d="M30.1,24.9c0-4.7,0-9.3,0-14c0-0.8,0.1-1.1,1-1c0.9,0.1,1.8,0.1,2.6-0.1c1.3-0.3,1.4,0.3,1.4,1.3c0,3.4,0,6.8,0,10.2
	c0,1,0.3,1.4,1.4,1.4c4.3,0,8.7-0.1,13,0.1c0.9,0.1,1.4-0.2,1.4-1.3c-0.1-3.5,0-7,0-10.5c0-1,0.3-1.4,1.3-1.2c0.7,0.1,1.5,0.1,2.2,0
	c1.4-0.3,1.5,0.4,1.5,1.5c0,9.2,0,18.4,0,27.6c0,0.9-0.2,1.4-1.3,1.3c-1.2-0.1-2.7,0.5-3.5-0.2s-0.2-2.3-0.2-3.5
	c-0.1-3-0.1-6.1,0-9.1c0-0.9-0.2-1.2-1.1-1.2c-4.5,0-9,0-13.4,0c-1.1,0-1.2,0.5-1.2,1.4c0,3.7,0,7.5,0,11.2c0,1.2-0.3,1.6-1.5,1.4
	s-2.6,0.5-3.3-0.3s-0.2-2.1-0.2-3.3C30.1,32.8,30.1,28.8,30.1,24.9L30.1,24.9z"/>
<path d="M128.8,20.3c3.4-3.3,6.6-6.3,9.8-9.4c0.5-0.5,1.1-0.8,1.8-0.8c1.4,0,2.8,0,4.4,0c-1,1.2-2.1,2.4-3.3,3.4
	c-2.9,2.8-5.8,5.4-8.7,8.1c-0.6,0.4-0.7,1.1-0.3,1.7c0.1,0.1,0.1,0.2,0.2,0.2c2.9,4,5.8,8,8.8,12c0.5,0.7,1.1,1.4,1.8,1.9
	c0.8,0.8,2,1.1,3.1,0.7c0.6-0.2,1-0.2,1.3,0.4s0,1-0.6,1.4c-3.1,1.7-7,0.8-9.1-2c-2.9-4-5.9-7.9-8.6-12.1c0-0.1-0.2,0-0.5-0.1
	c0,2,0,3.9,0,5.9c0,2.7-0.1,5.3,0,8c0,0.8-0.2,1.1-1,1c-1-0.1-2-0.1-3.1,0c-0.8,0.1-0.9-0.3-0.9-1c0-9.4,0.1-18.8,0.1-28.1
	c0-0.9,0.1-1.4,1.2-1.2c0.8,0.1,1.7,0.1,2.5,0c1-0.1,1.3,0.3,1.2,1.2c-0.1,2.6,0,5.2,0,7.8C128.7,19.5,128.7,19.8,128.8,20.3z"/>
<path d="M99,25.3c0-4.6,0-9.2,0-13.7c0-1.1,0.3-1.4,1.4-1.4c3.7,0,7.5-0.4,11.1,0.5c2.7,0.7,5.1,1.7,6.6,4.2
	c2.3,4.1,0.9,9.3-3.1,11.6c-0.5,0.3-1,0.5-1.5,0.7c-2,0.7-4.2,0.8-6.2,0.3c-0.5-0.1-1-0.3-1.4-0.6c-0.6-0.3-0.8-1-0.4-1.6
	c0,0,0,0,0,0c0.3-0.6,0.9-0.4,1.4-0.2c2.5,1.3,5.5,0.3,6.7-2.1c0.1-0.1,0.1-0.3,0.2-0.4c1.4-3.6,0.3-6.7-3-8.2
	c-1.9-0.8-4.1-1.1-6.2-0.9c-0.7,0.1-0.9,0.3-0.9,1c0,8.3,0,16.6,0,24.9c0,0.8-0.1,1.1-1,1c-1-0.1-2-0.1-2.9,0c-0.7,0-0.9-0.2-0.9-1
	C99,34.7,99,30,99,25.3L99,25.3z"/>
<path d="M37,49.7c-0.6,1.3-1.1,2.2-1.6,3.1c-0.2,0.4-0.5,0.9-1.1,0.7s-0.6-0.7-0.5-1.2c0.1-0.7-0.1-1.5-0.3-2.2
	c-0.6,1.2-1.2,2.4-1.8,3.5c-0.2,0.4-0.2,1.2-0.9,0.9s-0.3-0.9-0.3-1.4c0.1-1.4,0.3-2.9,0.5-4.3c0-0.2,0.1-0.5-0.2-0.6
	c-0.6,0-0.4,0.9-1.2,0.9c-0.1-0.9,0.3-1.9,1.1-2.4c0.6-0.4,1.1,0,1.1,0.7s-0.1,1.7-0.1,2.5c0,0.4-0.3,0.8,0.1,1.2
	c0.6-1.1,1.2-2.1,1.8-3.1c0.3-0.4,0.4-1.2,1.2-0.9s0.3,0.9,0.2,1.4c-0.1,0.9-0.2,1.9-0.3,2.8l0.4,0.1c0.6-1.2,1.1-2.4,1.7-3.6
	c0.2-0.5,0.3-1.3,1-1.2s0.3,0.9,0.3,1.4c-0.1,1.2,0,2.4,0.2,3.6c0.1,0.7,0.1,1.4,1.1,1.5c0.2,0,0.4,0.2,0.4,0.4c0,0,0,0,0,0.1
	c0,0.3-0.2,0.4-0.5,0.4c-0.9,0.3-1.5,0-1.7-0.9C37.3,52.3,37.2,51.2,37,49.7z"/>
<path d="M81,49c-0.7,1.1-1.2,1.9-1.7,2.7c-0.2,0.5-0.8,0.8-1.4,0.7c-0.7-0.2-0.4-0.8-0.5-1.3s0.2-1.1-0.1-1.8
	c-1.1,0.9-1.4,2.3-2.3,3.3c-0.3,0.3-0.4,1-1,0.8s-0.4-0.8-0.3-1.3c0.2-1.3,0.4-2.6,0.6-3.9c-0.1,0-0.3-0.1-0.4-0.1
	c-0.4,0.1-0.4,1.1-1,0.6s0.1-0.9,0.4-1.3c0.3-0.5,0.9-0.7,1.5-0.6c0.7,0.2,0.4,0.9,0.4,1.3c-0.1,0.9-0.2,1.7-0.3,2.9
	c1.1-1.2,1.4-2.5,2.4-3.3c0.4-0.3,0.7-0.8,1.2-0.6c0.7,0.3,0.2,0.8,0.1,1.2c-0.2,0.9-0.2,1.8,0,2.7c0.9-1.4,1.6-2.6,2.4-3.8
	c0.2-0.3,0.3-0.8,0.8-0.6s0.3,0.7,0.3,1.1c0,0.9,0,1.9,0.1,2.8s0,1.9,1.4,1.9c0.2,0,0.3,0.1,0.3,0.3c0,0,0,0.1,0,0.1
	c0,0.2-0.2,0.4-0.5,0.4c-0.9,0.1-1.7-0.1-1.9-1.1S81.2,50.2,81,49z"/>
<path d="M88.7,50.6c-0.8,1-1.2,2-2,2.7c-0.4,0.3-0.8,0.6-1.4,0.4s-0.5-0.8-0.6-1.2c-0.1-1.3-0.2-2.5-0.3-3.8c0-0.5,0.2-1.2,0.8-1.1
	s0.3,0.8,0.3,1.2c0,1,0,2,0,2.9c0,0.3-0.1,0.6,0.2,0.8s0.5-0.1,0.7-0.4c1-1.2,1.9-2.4,1.7-4.1c-0.1-0.5-0.1-1,0.6-1.1
	s0.5,0.6,0.6,0.9c0.7,2.6,1.1,5.2,1,7.9c-0.3,3.6-2.8,4.8-5.7,2.9c-0.8-0.5-1.4-1.2-1.8-2c-0.2-0.3-0.3-0.8,0-1s0.6,0.2,0.8,0.6
	c0.5,1.1,1.6,2,2.8,2.3c1.6,0.4,2.3,0,2.7-1.5C89.5,54.8,89.4,52.6,88.7,50.6z"/>
<path d="M44.2,50.2c-0.3,1.2-0.8,2.5-1.4,3.6c-0.3,0.4-0.5,1-1.2,0.8s-1.1-0.4-1.1-1.2c-0.1-1.5-0.3-3.1-0.5-4.6
	c0-0.5,0.1-1.2,0.8-1.1s0.3,0.7,0.3,1c0.1,1.6-0.2,3.3,0.9,5c0.9-2,1.8-3.7,1.7-5.8c0-0.4-0.4-1,0.3-1.2s0.6,0.6,0.8,1
	c0.9,2.6,1.2,5.3,1,8c-0.3,2.8-1.3,3.7-4.1,3.6c-0.7-0.1-1.4-0.2-2.2-0.3c-0.4-0.1-0.9-0.2-0.7-0.8s0.5-0.5,0.9-0.3
	c0.2,0.1,0.3,0.2,0.5,0.2c3.4,0.9,4.6-0.2,4.5-3.2C44.8,53.4,44.6,51.7,44.2,50.2z"/>
<path d="M140.9,53c1-1.4,1.8-3.1,2.1-4.9c0.1-0.5,0-1.2,0.7-1.2s0.5,0.7,0.6,1.1c0.7,2.4,0.9,5,0.7,7.5c-0.4,3.6-2.9,3.6-5.3,2.8
	c-0.5-0.2-0.8-0.7-0.9-1.2c-0.1-0.3-0.1-0.6,0.2-0.7s0.4,0.1,0.6,0.3c0.2,0.4,0.6,0.7,1,0.9c1.6,0.7,2.8,0.3,3.2-1.4
	c0.4-2.1,0.3-4.2-0.1-6.2c-0.9,0.6-0.8,1.6-1.3,2.3s-0.7,2-1.9,1.8s-0.7-1.5-0.8-2.3c-0.2-1.4-0.1-2.8-0.1-4.2
	c0-0.5,0.1-1.2,0.8-1.1s0.3,0.7,0.3,1C140.5,49.4,140.6,51.2,140.9,53z"/>
<path d="M111,50.5c-0.7,1.3-1.2,2.3-1.7,3.3c-0.3,0.5-0.7,1.1-1.4,0.9s-0.8-0.9-0.8-1.5c-0.1-1.2-0.1-2.3-0.2-3.5
	c0-0.6,0.1-1.1,0.7-1.1s0.3,0.7,0.3,1c0,1.1,0,2.1,0,3.2c0,0.2-0.1,0.5,0.2,0.6s0.5-0.2,0.6-0.4c0.7-1.4,1.3-2.8,1.7-4.3
	c0.1-0.4,0-0.8,0.6-0.8s0.6,0.4,0.7,0.7c0.8,2.6,0.9,5.3,0.6,8c-0.3,1.2-0.7,2.3-2,2.6c-1.6,0.4-3.2,0-4.4-1.1
	c-0.4-0.4-0.6-1-0.2-1.4s0.6,0.3,0.8,0.6c0.9,1.3,2.2,1.2,3.4,1s1.4-1.1,1.6-2.1C111.7,54.4,111.6,52.4,111,50.5z"/>
<path d="M139.3,54.1c-1.3,1.1-1.9,1.1-2.4-0.1c-0.4-1.2-0.7-2.5-0.9-3.8c-0.5,0.8-0.9,1.6-1.4,2.4c-0.3,0.4-0.6,0.9-1.2,0.8
	s-0.5-0.8-0.6-1.3c0-0.7-0.1-1.3-0.3-2c-0.7,1.2-1.4,2.4-2.1,3.7c-0.2,0.3-0.4,0.7-0.8,0.6s-0.4-0.6-0.4-0.9c0.2-1.5,0.4-3,0.6-4.4
	c0.1-0.4,0.2-0.8,0.6-0.7s0.3,0.5,0.3,0.8c-0.1,0.8-0.2,1.6-0.3,2.5c0.8-0.4,0.9-1.1,1.3-1.6s0.8-1.1,1.2-1.7
	c0.2-0.3,0.5-0.4,0.9-0.3c0.4,0.2,0.2,0.6,0.2,0.9c-0.3,1-0.3,2.1-0.2,3.1c0.8-1.2,1.6-2.4,2.2-3.7c0.2-0.4,0.4-0.9,0.9-0.8
	s0.3,0.6,0.3,1.1c0,1.2,0,2.4,0.1,3.6C137.4,53.3,137.6,54.3,139.3,54.1z"/>
<path d="M60.7,58.3c-1,0-1.3-0.7-1.6-1.5c-0.6-1.9-0.9-4-0.9-6c0-0.8,0.5-2.4-1.4-1.2c-0.2,0.1-0.4,0.1-0.6-0.1c0,0,0,0,0-0.1
	c-0.1-0.2,0-0.5,0.2-0.5c0,0,0,0,0,0c1.8-0.4,1.7-1.9,1.7-3.3c0-1.1,0.5-2.1,1.3-2.8c0.4-0.3,0.9-0.5,1.3,0s-0.1,0.8-0.6,1
	c-0.7,0.3-1.5,2.8-1.2,3.5c0.2,0.5,0.5,0.3,0.8,0.2c0.6-0.1,1.2-0.3,1.8-0.4c0.3,0,0.6-0.1,0.7,0.3s-0.2,0.5-0.5,0.6h-0.1
	c-2.6,0.8-2.6,0.8-2.5,3.4c0,1.7,0.2,3.4,0.7,5.1c0.2,0.5,0.3,1.1,1.1,1.1c0.3,0,0.7,0,0.6,0.5S61,58.3,60.7,58.3z"/>
<path d="M151.6,48.1c0.7,1.2,1.6,2.2,2.5,3.3c0.6,0.7,1.6,1.5,0.9,2.5s-1.9,0.9-2.9,0.6s-2.2-0.7-2.5-2c-0.1-0.4-0.1-0.8,0.3-1
	s0.5,0.3,0.6,0.7c0.3,0.8,2.4,1.8,3.2,1.6s0.3-0.8,0-1.2c-0.9-1.1-1.8-2.2-2.7-3.3c-0.4-0.5-0.9-1.1-0.5-1.7s1.2-0.5,1.8-0.3
	c0.8,0.1,1.5,0.4,2,0.9c0.3,0.3,0.5,0.6,0.2,1s-0.7,0-0.9-0.2C153,48.4,152.6,47.8,151.6,48.1z"/>
<path d="M103.6,44.6c-0.1,0.6-0.1,1-0.1,1.4c-0.2,1.9-0.2,1.9,1.7,1.6c0.4-0.1,0.7-0.2,0.8,0.3s-0.3,0.5-0.6,0.7
	c-0.6,0.3-1.6,0-1.9,0.7s-0.1,1.7-0.1,2.6c0,0.2,0,0.4,0.1,0.6c0.1,0.4,0,1,0.6,1.2s0.9-0.3,1.2-0.7c0.1-0.2,0.2-0.6,0.6-0.4
	s0.2,0.5,0.1,0.8c-0.3,0.8-1.1,1.3-2,1.3c-0.9,0-1.1-0.7-1.2-1.4c-0.1-0.6-0.2-1.2-0.2-1.8c0-0.8,0.1-1.8-1.2-0.9
	c-0.2,0.1-0.4,0.1-0.5-0.1c0,0,0-0.1-0.1-0.1c-0.1-0.2,0-0.4,0.2-0.6c0,0,0,0,0.1,0c2.1-0.6,1.5-2.3,1.5-3.8c0-0.3,0-0.6,0-1
	c0-0.4,0.3-0.8,0.7-0.8c0,0,0.1,0,0.1,0C103.8,43.9,103.6,44.4,103.6,44.6z"/>
<path d="M164,48.4c1.5-0.1,2.7,1.1,2.8,2.5c0,0.2,0,0.3,0,0.5c0.1,1.9-1.3,3.6-3.3,3.7c-1.6,0-2.5-1-2.5-3
	C161,49.7,162.1,48.4,164,48.4z M162,51.6c0,1.5,0.7,2.5,1.9,2.4c1.1-0.2,2-1.1,2-2.3c0-1.3-0.7-2.5-1.5-2.5
	c-1.1-0.2-2.2,0.6-2.4,1.8C162,51.2,162,51.4,162,51.6L162,51.6z"/>
<path d="M97.4,48.8c0.8,1.4,2,2.1,2.9,3.1c0.5,0.5,1.2,1,0.8,1.9s-1.2,0.9-2,0.9c-1,0-1.9-0.3-2.8-0.8c-0.4-0.3-0.7-0.8-0.7-1.3
	c0-0.3,0.1-0.6,0.4-0.6s0.4,0.2,0.5,0.4c0.6,1.1,1.9,1.7,3.2,1.4c0.7-0.2,0.4-0.6,0.1-0.9c-1-0.9-2-1.8-2.9-2.8
	c-0.4-0.4-1.1-0.9-0.7-1.6s1.2-0.7,1.9-0.6c0.6,0.1,1.2,0.3,1.7,0.6c0.4,0.2,0.6,0.5,0.4,0.9s-0.6,0.2-0.9-0.1
	C98.8,48.9,98,48.7,97.4,48.8z"/>
<path d="M156.8,49.8h-0.3c-0.5,0-0.9,1-1.3,0.4s0.4-0.9,0.9-1.1c0.8-0.3,0.8-1,0.8-1.6s-0.1-1.5,0-2.2c0-0.4,0.4-0.8,0.8-0.7
	c0,0,0.1,0,0.1,0c0.5,0.1,0.4,0.5,0.3,0.9c0,0.2-0.1,0.4-0.1,0.6c-0.3,2-0.3,2,1.7,1.6c0.3-0.1,0.7-0.3,0.8,0.2s-0.3,0.5-0.6,0.7
	c-2.1,0.9-2.1,0.9-2,3.1c0,0.3,0,0.6,0.1,1s0.1,0.8,0.5,0.9s0.8-0.1,1-0.5s0.4-0.8,0.8-0.5s0,0.8-0.2,1.1c-0.4,0.7-1.2,1-1.9,0.9
	c-0.8-0.1-0.9-0.9-1-1.5C157,51.9,156.9,50.9,156.8,49.8z"/>
<path d="M116.5,51.6c0-1.4,0.3-2.7,1-3.9c0.5-0.8,1.2-1.4,2.1-1s0.5,1.4,0.2,2.1c-0.3,0.9-0.9,1.6-1.7,2.1c-0.5,0.2-0.7,0.8-0.5,1.3
	c0,0,0,0.1,0.1,0.1c0.3,0.7,0.9,0.7,1.4,0.5c0.6-0.2,1.2-0.5,1.6-1c0.2-0.3,0.5-0.4,0.8-0.1s0,0.6-0.3,0.8c-0.5,0.4-1.1,0.8-1.6,1.1
	C117.9,54.5,116.5,53.5,116.5,51.6z M118.1,49.6c0.7-0.3,0.7-1,1-1.5c0.2-0.3,0.1-0.7-0.3-0.6c-0.7,0.2-0.7,1-1,1.6
	c-0.1,0.2-0.1,0.4,0,0.5C117.9,49.6,118,49.6,118.1,49.6L118.1,49.6z"/>
<path d="M173,51.1c0.1-1.2,0.4-2.3,1.1-3.3c0.3-0.8,1.2-1.1,2-0.8c0.9,0.4,0.5,1.3,0.2,2c-0.4,0.9-1,1.6-1.7,2.1
	c-0.5,0.3-0.7,0.9-0.4,1.4c0,0,0.1,0.1,0.1,0.1c0.4,0.7,1,0.6,1.6,0.3c0.5-0.3,1-0.6,1.5-1c0.2-0.1,0.5-0.4,0.7-0.1s0,0.4-0.1,0.6
	c-1,1-2.4,1.6-3.8,1.4C173.4,53.9,173,52.9,173,51.1z M174.5,50.1c0.6-0.5,1-1.2,1.1-2c0-0.1-0.3-0.2-0.3-0.2
	c-0.6,0.4-1,1.2-1.1,1.9C174.3,49.9,174.3,49.9,174.5,50.1L174.5,50.1z"/>
<path d="M63.7,54.2c-0.7,0.2-1.5-0.3-1.7-1c0-0.1,0-0.1,0-0.2c-0.4-1.8,0-3.7,1-5.2c0.4-0.7,1.3-1,2.1-0.6c0.8,0.4,0.3,1.2,0.1,1.9
	c-0.4,0.9-1,1.7-1.8,2.2c-0.5,0.3-0.7,1-0.3,1.6c0,0,0,0,0,0c0.3,0.6,0.9,0.4,1.4,0.3c0.6-0.2,1.2-0.6,1.7-1
	c0.2-0.2,0.5-0.6,0.8-0.1s-0.1,0.6-0.3,0.8C65.8,53.7,64.7,54.1,63.7,54.2z M64.3,47.6c-0.8,0.9-1.4,1.5-1.3,2.7
	C63.9,49.7,64.4,48.7,64.3,47.6L64.3,47.6z"/>
<path d="M50.6,48.4c0-1.1,0-2.1,0-3.2c0-0.6,0.3-1.2,1-1.1s0.3,0.8,0.3,1.2c-0.4,2.7-0.4,5.5,0,8.2c0.1,0.6,0.2,1.2,0.9,1.4
	c0.2,0.1,0.4,0.2,0.3,0.5s-0.4,0.3-0.6,0.3c-1.2-0.1-1.5-1.1-1.6-2C50.6,51.9,50.5,50.1,50.6,48.4z"/>
<path d="M169.1,50.9c0.4-1.3,1.1-2.4,2.1-3.3c0.4-0.3,0.9-0.5,1.4-0.5c0.5,0.1,0.7,0.5,0.6,0.9c0,0.2-0.2,0.4-0.5,0.4
	c-0.1,0-0.2,0-0.3-0.1c-0.7-0.6-0.9,0-1.2,0.4c-1.1,1.2-1.6,2.8-1.2,4.4c0.1,0.4,0.3,0.9-0.2,1.1s-0.7-0.4-0.9-0.8
	c-0.4-1.5-1-2.9-1.8-4.2c-0.2-0.2-0.2-0.6,0-0.8c0,0,0.1,0,0.1-0.1c0.3-0.2,0.6-0.2,0.8,0.1c0,0.1,0.1,0.1,0.1,0.2
	C168.5,49.3,168.7,50,169.1,50.9z"/>
<path d="M113.7,47.6c0-0.8,0-1.7,0-2.5c0-0.5,0.1-1.2,0.8-1.1c0.9,0.1,0.4,0.8,0.4,1.2c-0.3,2.1-0.3,4.2-0.1,6.3
	c0,0.8,0.1,1.6,0.9,2.1c0.2,0.1,0.4,0.3,0.2,0.6c-0.2,0.2-0.4,0.3-0.6,0.2c-0.6-0.1-1.1-0.6-1.1-1.3
	C113.8,51.2,113.6,49.4,113.7,47.6z"/>
<path d="M53.6,50.3c0-0.7,0-1.3,0.1-2c0.1-0.4,0.4-0.8,0.9-0.7s0.3,0.6,0.2,0.9c-0.3,1.2-0.4,2.4-0.2,3.6c0,0.4,0.2,0.8,0.4,1.1
	c0.2,0.2,0.7,0.3,0.4,0.7c-0.2,0.2-0.4,0.2-0.6,0.3c-0.4,0.1-0.8-0.2-0.8-0.6C53.7,52.6,53.6,51.4,53.6,50.3z"/>
<path d="M68.5,54.2c-0.4,0-0.7-0.2-0.7-0.6s0.3-0.9,0.8-0.9c0.4,0,0.7,0.3,0.7,0.7c0,0,0,0,0,0c0,0.4-0.3,0.7-0.7,0.8
	C68.5,54.2,68.5,54.2,68.5,54.2z"/>
<path d="M180.5,53.8c0,0.4-0.4,0.6-0.8,0.5c-0.3,0-0.6-0.3-0.6-0.6c0-0.1,0-0.1,0-0.2c0.1-0.4,0.2-0.8,0.7-0.7
	S180.5,53.1,180.5,53.8z"/>
<path d="M55,45.5c0,0.4,0,0.9-0.6,0.9s-0.5-0.4-0.5-0.8s0-0.9,0.5-0.9S55,45.1,55,45.5z"/>
<path d="M123.7,53.4c0,0.7-0.3,1-0.8,0.9c-0.4,0-0.6-0.3-0.6-0.7c0,0,0-0.1,0-0.1c0-0.5,0.3-0.8,0.8-0.8
	C123.4,52.8,123.7,53.1,123.7,53.4z"/>
</svg>
