<?xml version="1.0" encoding="UTF-8"?> <svg xmlns="http://www.w3.org/2000/svg" id="Layer_1" data-name="Layer 1" viewBox="0 0 100 91.55"> <defs> <style>.cls-1{fill:#efafcf;}.cls-2{fill:#5d2c24;}.cls-3{fill:#e8457c;}.cls-4{fill:#fff;}</style> </defs> <title>Smallcakes_Logo</title> <g id="_Group_" data-name="&lt;Group&gt;"> <g id="_Group_2" data-name="&lt;Group&gt;"> <circle id="_Path_" data-name="&lt;Path&gt;" class="cls-1" cx="50.1" cy="45.34" r="45.34"></circle> <circle id="_Path_2" data-name="&lt;Path&gt;" class="cls-2" cx="50.1" cy="45.34" r="42.23"></circle> <g id="_Group_3" data-name="&lt;Group&gt;"> <circle id="_Path_3" data-name="&lt;Path&gt;" class="cls-3" cx="6.85" cy="40.23" r="0.84"></circle> <circle id="_Path_4" data-name="&lt;Path&gt;" class="cls-3" cx="10.9" cy="64.03" r="0.84"></circle> <circle id="_Path_5" data-name="&lt;Path&gt;" class="cls-3" cx="13.28" cy="68.33" r="0.84"></circle> <circle id="_Path_6" data-name="&lt;Path&gt;" class="cls-3" cx="16.07" cy="72.27" r="0.84"></circle> <circle id="_Path_7" data-name="&lt;Path&gt;" class="cls-3" cx="19.35" cy="75.9" r="0.84"></circle> <circle id="_Path_8" data-name="&lt;Path&gt;" class="cls-3" cx="22.94" cy="79.18" r="0.84"></circle> <circle id="_Path_9" data-name="&lt;Path&gt;" class="cls-3" cx="26.92" cy="81.97" r="0.84"></circle> <circle id="_Path_10" data-name="&lt;Path&gt;" class="cls-3" cx="31.21" cy="84.35" r="0.84"></circle> <circle id="_Path_11" data-name="&lt;Path&gt;" class="cls-3" cx="35.66" cy="86.23" r="0.84"></circle> <circle id="_Path_12" data-name="&lt;Path&gt;" class="cls-3" cx="40.34" cy="87.57" r="0.84"></circle> <circle id="_Path_13" data-name="&lt;Path&gt;" class="cls-3" cx="45.15" cy="88.41" r="0.84"></circle> <circle id="_Path_14" data-name="&lt;Path&gt;" class="cls-3" cx="50" cy="88.69" r="0.84"></circle> <circle id="_Path_15" data-name="&lt;Path&gt;" class="cls-3" cx="54.89" cy="88.41" r="0.84"></circle> <circle id="_Path_16" data-name="&lt;Path&gt;" class="cls-3" cx="59.76" cy="87.57" r="0.84"></circle> <circle id="_Path_17" data-name="&lt;Path&gt;" class="cls-3" cx="64.4" cy="86.23" r="0.84"></circle> <circle id="_Path_18" data-name="&lt;Path&gt;" class="cls-3" cx="68.84" cy="84.35" r="0.84"></circle> <circle id="_Path_19" data-name="&lt;Path&gt;" class="cls-3" cx="73.23" cy="81.97" r="0.84"></circle> <circle id="_Path_20" data-name="&lt;Path&gt;" class="cls-3" cx="77.14" cy="79.15" r="0.84"></circle> <circle id="_Path_21" data-name="&lt;Path&gt;" class="cls-3" cx="80.7" cy="75.9" r="0.84"></circle> <circle id="_Path_22" data-name="&lt;Path&gt;" class="cls-3" cx="84.08" cy="72.27" r="0.84"></circle> <circle id="_Path_23" data-name="&lt;Path&gt;" class="cls-3" cx="86.8" cy="68.33" r="0.84"></circle> <circle id="_Path_24" data-name="&lt;Path&gt;" class="cls-3" cx="89.28" cy="64.03" r="0.84"></circle> <circle id="_Path_25" data-name="&lt;Path&gt;" class="cls-3" cx="7.69" cy="35.52" r="0.84"></circle> <circle id="_Path_26" data-name="&lt;Path&gt;" class="cls-3" cx="9" cy="30.82" r="0.84"></circle> <circle id="_Path_27" data-name="&lt;Path&gt;" class="cls-3" cx="10.9" cy="26.31" r="0.84"></circle> <circle id="_Path_28" data-name="&lt;Path&gt;" class="cls-3" cx="13.23" cy="22.07" r="0.84"></circle> <circle id="_Path_29" data-name="&lt;Path&gt;" class="cls-3" cx="16.02" cy="18.07" r="0.84"></circle> <circle id="_Path_30" data-name="&lt;Path&gt;" class="cls-3" cx="19.33" cy="14.44" r="0.84"></circle> <circle id="_Path_31" data-name="&lt;Path&gt;" class="cls-3" cx="22.91" cy="11.23" r="0.84"></circle> <circle id="_Path_32" data-name="&lt;Path&gt;" class="cls-3" cx="26.91" cy="8.39" r="0.84"></circle> <circle id="_Path_33" data-name="&lt;Path&gt;" class="cls-3" cx="31.19" cy="6.07" r="0.84"></circle> <circle id="_Path_34" data-name="&lt;Path&gt;" class="cls-3" cx="35.66" cy="4.16" r="0.84"></circle> <circle id="_Path_35" data-name="&lt;Path&gt;" class="cls-3" cx="40.36" cy="2.81" r="0.84"></circle> <circle id="_Path_36" data-name="&lt;Path&gt;" class="cls-3" cx="45.2" cy="1.97" r="0.84"></circle> <circle id="_Path_37" data-name="&lt;Path&gt;" class="cls-3" cx="50" cy="1.75" r="0.84"></circle> <circle id="_Path_38" data-name="&lt;Path&gt;" class="cls-3" cx="54.89" cy="1.97" r="0.84"></circle> <circle id="_Path_39" data-name="&lt;Path&gt;" class="cls-3" cx="59.68" cy="2.81" r="0.84"></circle> <circle id="_Path_40" data-name="&lt;Path&gt;" class="cls-3" cx="64.43" cy="4.16" r="0.84"></circle> <circle id="_Path_41" data-name="&lt;Path&gt;" class="cls-3" cx="68.94" cy="6.07" r="0.84"></circle> <circle id="_Path_42" data-name="&lt;Path&gt;" class="cls-3" cx="73.12" cy="8.39" r="0.84"></circle> <circle id="_Path_43" data-name="&lt;Path&gt;" class="cls-3" cx="77.12" cy="11.23" r="0.84"></circle> <circle id="_Path_44" data-name="&lt;Path&gt;" class="cls-3" cx="80.7" cy="14.44" r="0.84"></circle> <circle id="_Path_45" data-name="&lt;Path&gt;" class="cls-3" cx="83.96" cy="18.07" r="0.84"></circle> <circle id="_Path_46" data-name="&lt;Path&gt;" class="cls-3" cx="86.8" cy="22.07" r="0.84"></circle> <circle id="_Path_47" data-name="&lt;Path&gt;" class="cls-3" cx="89.18" cy="26.34" r="0.84"></circle> <circle id="_Path_48" data-name="&lt;Path&gt;" class="cls-3" cx="91.09" cy="30.81" r="0.84"></circle> <circle id="_Path_49" data-name="&lt;Path&gt;" class="cls-3" cx="92.34" cy="35.51" r="0.84"></circle> <circle id="_Path_50" data-name="&lt;Path&gt;" class="cls-3" cx="93.17" cy="40.3" r="0.84"></circle> </g> </g> <g id="_Group_4" data-name="&lt;Group&gt;"> <rect id="_Rectangle_" data-name="&lt;Rectangle&gt;" class="cls-3" y="42.88" width="100" height="17.88"></rect> <g id="_Group_5" data-name="&lt;Group&gt;"> <path id="_Compound_Path_" data-name="&lt;Compound Path&gt;" class="cls-4" d="M8.13,46.3h.53c.23,0,.56.78,1,2.32V49c0,.1-.12.2-.36.31l-.89-.21A3.62,3.62,0,0,0,6,50.1v.11c2,1.35,3.17,2.59,3.5,3.7.11,0,.23.39.36,1.16S9.2,56.74,8,57.61a6.38,6.38,0,0,1-2.34.53H5.35c-1.62-.18-2.43-.43-2.43-.74C2.44,57,2.2,55.83,2.2,54l.09-.11h.18A9.12,9.12,0,0,0,4.9,55.07H6.15l.18-.21v-.31A10,10,0,0,0,3.19,52L2.2,51V50.1c0-.91,1-1.9,2.87-3A7,7,0,0,1,8.13,46.3Z"></path> <path id="_Compound_Path_2" data-name="&lt;Compound Path&gt;" class="cls-4" d="M12.39,46.32h.28q3.24.66,3.24,2.19l.65.78,1.11-1.87a5.45,5.45,0,0,1,2.68-1.1h.28q.6.36,1,5.28v5.83c0,.51-.28.77-.83.77H20a2,2,0,0,1-1.49-.44l.19-6.16a4.6,4.6,0,0,0-1.76,2.64l-.37.32h-.28l-.84-1.86c-.18-.09-.37-.43-.55-1-.15,0-.33-.19-.56-.55v.11l.19,6.49A2,2,0,0,1,13,58.2H12.2c-.55,0-.83-.26-.83-.77V51.6Q11.79,46.68,12.39,46.32Z"></path> <path id="_Compound_Path_3" data-name="&lt;Compound Path&gt;" class="cls-4" d="M27.7,46.29h2c.72,0,1.29.82,1.71,2.45q2.39,5.82,2.38,8.46c.13,0,.19.19.19.56l-.28.44-1.14-.11H30.94c-.16,0-.38-.86-.67-2.57l-.09-.1c0-.37-.29-.56-.86-.56a5.06,5.06,0,0,0-1.71-.33c-.38.12-.57.57-.57,1.33q-.21,0-.48,1.11c-.38.74-.63,1.11-.76,1.12h-.57L24.85,58l-.28.12a1.41,1.41,0,0,1-1.24-.56v-.11q0-1.5,3.61-9.9C27.26,46.76,27.51,46.35,27.7,46.29Zm1.24,3.45-.85,2.45v.11c0,.27.53.46,1.61.56l.1-.12v-.11l-.67-2.89Z"></path> <path id="_Compound_Path_4" data-name="&lt;Compound Path&gt;" class="cls-4" d="M38.24,46.32h.39l.28.33-.09.34.09,1.35v.22L39,52l-.1,3c0,.42,1.06.72,3.16.9a6.25,6.25,0,0,1,.38,2l-.29.23h-.47c-3.32-.09-5-.39-5-.89q-1.05-2.88-1.05-9.09C35.66,47.38,36.52,46.74,38.24,46.32Z"></path> <path id="_Compound_Path_5" data-name="&lt;Compound Path&gt;" class="cls-4" d="M46.52,46.32h.38l.29.33-.1.34.1,1.35v.22l.1,3.48-.1,3c0,.42,1.05.72,3.16.9a6.12,6.12,0,0,1,.39,2l-.29.23H50c-3.32-.09-5-.39-5-.89q-1-2.88-1-9.09C43.93,47.38,44.79,46.74,46.52,46.32Z"></path> <path id="_Compound_Path_6" data-name="&lt;Compound Path&gt;" class="cls-4" d="M57.21,46.23h.65a3.38,3.38,0,0,1,.93,2.53,8.11,8.11,0,0,1-1.94,1,3.12,3.12,0,0,0-1.49,2.74q0,1.89,3.24,2.86l.1.1v.66c-.47,1.39-.93,2.09-1.39,2.09q-2.19,0-4.35-2.75a4.28,4.28,0,0,1-.64-1.86V51.94A6.17,6.17,0,0,1,54.9,47,4.12,4.12,0,0,1,57.21,46.23Z"></path> <path id="_Compound_Path_7" data-name="&lt;Compound Path&gt;" class="cls-4" d="M64.7,46.29h2c.72,0,1.29.82,1.7,2.45q2.36,5.82,2.36,8.46c.13,0,.19.19.19.56l-.28.44-1.13-.11H67.91c-.15,0-.38-.86-.66-2.57l-.09-.1c0-.37-.28-.56-.85-.56a5,5,0,0,0-1.7-.33c-.37.12-.56.57-.56,1.33-.14,0-.3.37-.47,1.11-.38.74-.63,1.11-.76,1.12h-.57L61.88,58l-.28.12a1.4,1.4,0,0,1-1.23-.56v-.11q0-1.5,3.58-9.9Q64.42,46.38,64.7,46.29Zm1.23,3.45-.84,2.45v.11c0,.27.53.46,1.59.56l.1-.12v-.11l-.66-2.89Z"></path> <path id="_Compound_Path_8" data-name="&lt;Compound Path&gt;" class="cls-4" d="M78.75,46.29c.64,0,1,.71,1,2.13v.45a22.42,22.42,0,0,1-1.93,3c1.48,1.41,2.21,2.61,2.21,3.6v1.9c0,.4-.48.63-1.44.68a35.64,35.64,0,0,0-2.69-4.61v4.38l-.29.34h-.39c-1.73-.37-2.59-1.08-2.59-2.13V56c0-4.34.41-7.37,1.25-9.11l1.73-.33A5.18,5.18,0,0,1,76,48.65l-.09,1.57C77.28,49.07,78,47.91,78,46.74A1.11,1.11,0,0,1,78.75,46.29Z"></path> <path id="_Compound_Path_9" data-name="&lt;Compound Path&gt;" class="cls-4" d="M87.53,46.38H88l.29.22c-.08,1.33-.27,2-.58,2-2,.2-2.94.5-2.94.88V51l.28.11a2.75,2.75,0,0,1,1.24-.22h.76l.29.33v2l-.29.33h-.76c-.76,0-1.14-.07-1.14-.22l-.38.11v1.33c0,.45.26.67.76.67L88,56l.29,1.89-.29.22H84.11c-1.71-.36-2.57-1.07-2.57-2.11v-.11c0-4.27.41-7.27,1.24-9A18.21,18.21,0,0,1,87.53,46.38Z"></path> <path id="_Compound_Path_10" data-name="&lt;Compound Path&gt;" class="cls-4" d="M95.87,46.33h.54c.23,0,.56.77,1,2.31V49c0,.1-.12.21-.36.31l-.91-.21a3.69,3.69,0,0,0-2.46,1v.11q3.06,2,3.55,3.68c.11,0,.23.39.36,1.16s-.63,1.66-1.91,2.52a6.27,6.27,0,0,1-2.36.53h-.27c-1.63-.18-2.45-.42-2.45-.73-.49-.44-.73-1.56-.73-3.37L90,53.9h.18a9.78,9.78,0,0,0,2.46,1.16h1.27l.18-.21v-.31A10.15,10.15,0,0,0,90.87,52l-1-1v-.85q0-1.36,2.91-2.94A7.05,7.05,0,0,1,95.87,46.33Z"></path> </g> </g> <g id="_Group_6" data-name="&lt;Group&gt;"> <path id="_Compound_Path_11" data-name="&lt;Compound Path&gt;" class="cls-4" d="M20.25,64.42h.88l1.05,4.29h-.7l-.23-1.07H20.13l-.24,1.07h-.7Zm0,2.66h.87l-.43-2Z"></path> <path id="_Compound_Path_12" data-name="&lt;Compound Path&gt;" class="cls-4" d="M30.32,64.34a1.82,1.82,0,0,1,.75.14l0,.62a1.39,1.39,0,0,0-.68-.16c-.68,0-1.1.55-1.1,1.62s.43,1.62,1.12,1.62a1.47,1.47,0,0,0,.69-.15l.05.62a2.2,2.2,0,0,1-.76.13c-1.12,0-1.79-.86-1.79-2.22S29.21,64.34,30.32,64.34Z"></path> <path id="_Compound_Path_13" data-name="&lt;Compound Path&gt;" class="cls-4" d="M34.6,67.2V64.42h.67v2.77c0,.68.2,1,.66,1s.66-.31.66-1V64.42h.67V67.2c0,1.13-.53,1.58-1.33,1.58S34.6,68.33,34.6,67.2Z"></path> <path id="_Compound_Path_14" data-name="&lt;Compound Path&gt;" class="cls-4" d="M42.11,67.14H41.7v1.57H41V64.42h1.08a1.37,1.37,0,0,1,0,2.72ZM42,65H41.7v1.55H42c.41,0,.61-.25.61-.77S42.45,65,42,65Z"></path> <path id="_Compound_Path_15" data-name="&lt;Compound Path&gt;" class="cls-4" d="M48.71,64.34a1.84,1.84,0,0,1,.76.14l0,.62a1.44,1.44,0,0,0-.69-.16c-.68,0-1.1.55-1.1,1.62s.44,1.62,1.12,1.62a1.51,1.51,0,0,0,.7-.15l0,.62a2.14,2.14,0,0,1-.75.13c-1.12,0-1.79-.86-1.79-2.22S47.61,64.34,48.71,64.34Z"></path> <path id="_Compound_Path_16" data-name="&lt;Compound Path&gt;" class="cls-4" d="M53.84,64.42h.88l1.05,4.29h-.7l-.23-1.07H53.72l-.24,1.07h-.7Zm0,2.66h.87l-.43-2Z"></path> <path id="_Compound_Path_17" data-name="&lt;Compound Path&gt;" class="cls-4" d="M61.73,64.42l-1.06,2,1.25,2.28h-.77L60,66.52v2.19h-.67V64.42H60v1.94l1-1.94Z"></path> <path id="_Compound_Path_18" data-name="&lt;Compound Path&gt;" class="cls-4" d="M65.52,64.42h2.12V65H66.19v1.21h1.35v.59H66.19v1.32h1.49v.59H65.52Z"></path> <path id="_Compound_Path_19" data-name="&lt;Compound Path&gt;" class="cls-4" d="M72.54,67H72.1v1.73h-.67V64.42h1.19a1.14,1.14,0,0,1,1.19,1.28,1.19,1.19,0,0,1-.63,1.17L74,68.71h-.71Zm0-.59c.39,0,.58-.23.58-.69s-.19-.7-.58-.7H72.1v1.39Z"></path> <path id="_Compound_Path_20" data-name="&lt;Compound Path&gt;" class="cls-4" d="M78.29,67l-1.15-2.59h.68l.81,1.92.8-1.92h.68L79,67v1.7h-.67Z"></path> </g> <g id="_Group_7" data-name="&lt;Group&gt;"> <path id="_Path_51" data-name="&lt;Path&gt;" class="cls-4" d="M47,28.13A11.25,11.25,0,0,1,45.42,28l-1-.17c-.37-.07-.75-.14-1.12-.18a11.84,11.84,0,0,1-4-1.42,3.27,3.27,0,0,1-1.34-3.07,3.8,3.8,0,0,1,1.34-2.67,4.83,4.83,0,0,1,2.32-1.35,1.53,1.53,0,0,0,.42-.19,3.41,3.41,0,0,1,.33-.17.87.87,0,0,1,.3-.07h.09l0,0s.05,0,.08,0l.36-.11.71-.21.3-.07.38-.09.55-.14c-.1-.13-.15-.15-.15-.15a.62.62,0,0,0-.2,0h-.41a3.39,3.39,0,0,1-2.71-1.55,1.35,1.35,0,0,1-.06-1.3,4.1,4.1,0,0,1,1.07-1.43A22.21,22.21,0,0,1,45,11.67a7.91,7.91,0,0,1,2-1.17l.06-.07.11-.12a.25.25,0,0,1,.14-.06l.28-.05a.25.25,0,0,1,.12-.25.28.28,0,0,1,.13,0A.26.26,0,0,1,48,10l0,0L48.2,10a.84.84,0,0,1,.37-.1l.15,0a.23.23,0,0,1,.17.16.26.26,0,0,1,0,.24l-.24.29a4.32,4.32,0,0,0-.43.55,1.51,1.51,0,0,0-.25,1.1.94.94,0,0,0,.4.64,2.15,2.15,0,0,0,1.16.34h.25a7.41,7.41,0,0,0,2.8-.71,4.67,4.67,0,0,1,1.81-.34,6.42,6.42,0,0,1,.74,0,12.4,12.4,0,0,1,2,.4,4.11,4.11,0,0,1,1.7,1.07,2.06,2.06,0,0,1,.71,2,5.49,5.49,0,0,1-.7,1.66l0,.09A4.05,4.05,0,0,1,56.87,19l-.14.07a14.76,14.76,0,0,1-3.51,1.34l-.66.18,0,0-.08.1a.26.26,0,0,1-.18.07.28.28,0,0,1-.13,0,.32.32,0,0,0-.19-.05,1.35,1.35,0,0,0-.44.11l-.26.09s0,.1.07.11l.12,0a5.19,5.19,0,0,0,.92.19l.64,0A8.16,8.16,0,0,0,55.19,21l.28-.08c.3-.08.62-.17.92-.27l.51-.22.27-.13a.22.22,0,0,1,.11,0,.25.25,0,0,1,.19.09h0a.39.39,0,0,0,.17-.06l.19-.08.71-.26c.71-.26,1.44-.53,2.17-.76a1.78,1.78,0,0,1,.6-.08l.45,0h0a.81.81,0,0,1,.55.34,3.44,3.44,0,0,1,.7,2.6A5.18,5.18,0,0,1,61.53,25,7.66,7.66,0,0,1,58.75,27a7.06,7.06,0,0,1-1.85.45c-1,.11-2.06.14-3,.16H53.8c-.28,0-.56,0-.83,0l-.8,0-.45,0c-1,.08-1.91.25-2.84.42A10.34,10.34,0,0,1,47,28.13Z"></path> <path id="_Compound_Path_21" data-name="&lt;Compound Path&gt;" class="cls-3" d="M48.57,10.16h.08c-.25.31-.48.57-.68.85a1.52,1.52,0,0,0,.22,2.1,2.38,2.38,0,0,0,1.29.38h.26a7.69,7.69,0,0,0,2.9-.72,4.27,4.27,0,0,1,1.71-.33c.24,0,.48,0,.71,0a13.93,13.93,0,0,1,1.92.4,3.73,3.73,0,0,1,1.59,1,1.8,1.8,0,0,1,.64,1.79,5.46,5.46,0,0,1-.72,1.67,4.18,4.18,0,0,1-1.88,1.49,14.72,14.72,0,0,1-3.45,1.32l-.71.19c-.06,0-.1.1-.18.18a.63.63,0,0,0-.32-.08,5.13,5.13,0,0,0-.89.24c-.17,0,0,.5.18.56a6,6,0,0,0,1.1.24l.66,0a8.31,8.31,0,0,0,2.26-.3c.4-.11.81-.22,1.21-.35s.51-.23.81-.36a.26.26,0,0,0,.2.1,1.63,1.63,0,0,0,.46-.17c1-.34,1.9-.71,2.86-1a1.58,1.58,0,0,1,.53-.07l.47,0a.63.63,0,0,1,.37.24,3.18,3.18,0,0,1,.65,2.42,5,5,0,0,1-1.47,2.8,7.42,7.42,0,0,1-2.7,1.87,6.36,6.36,0,0,1-1.78.44c-1,.11-2,.14-2.93.16H53.8c-.55,0-1.09-.06-1.63-.06a3.7,3.7,0,0,0-.47,0c-1,.08-1.91.25-2.86.42a10.07,10.07,0,0,1-1.89.17,10.8,10.8,0,0,1-1.5-.1c-.69-.1-1.38-.27-2.07-.35A11.51,11.51,0,0,1,39.54,26a3,3,0,0,1-1.23-2.85,3.59,3.59,0,0,1,1.26-2.49,4.61,4.61,0,0,1,2.19-1.29,5,5,0,0,0,.81-.38A2.14,2.14,0,0,1,43,19,.18.18,0,0,0,43,18.9l1.08-.32.43-.1a9.12,9.12,0,0,0,.9-.23.31.31,0,0,0,.1-.27c-.09-.13-.21-.3-.36-.34a1.09,1.09,0,0,0-.26,0l-.37,0h0A3.12,3.12,0,0,1,42,16.18a1.08,1.08,0,0,1,0-1.06,3.71,3.71,0,0,1,1-1.34,21.36,21.36,0,0,1,2.13-1.91,7.52,7.52,0,0,1,1.92-1.13c.08,0,.15-.14.26-.25l.57-.09-.08-.23a.28.28,0,0,0,.24.14c.17,0,.35-.15.53-.15M43,18.9h0m5.53-9.24a1.2,1.2,0,0,0-.47.12h0a.5.5,0,0,0-.3-.11.54.54,0,0,0-.25.06.59.59,0,0,0-.22.25l-.1,0a.46.46,0,0,0-.27.13l-.13.14,0,0a8.51,8.51,0,0,0-2,1.18,22.58,22.58,0,0,0-2.17,1.95A4.16,4.16,0,0,0,41.52,15a1.54,1.54,0,0,0,.09,1.53A3.73,3.73,0,0,0,44,18.09H44l-.73.21-.34.1-.15.07h0a1.3,1.3,0,0,0-.37.09,2.28,2.28,0,0,0-.35.18,1.55,1.55,0,0,1-.35.17,5,5,0,0,0-2.44,1.41,4,4,0,0,0-1.42,2.84,3.53,3.53,0,0,0,1.44,3.28,11.92,11.92,0,0,0,4.07,1.47c.37,0,.72.11,1.1.18l1,.17a11.84,11.84,0,0,0,1.57.11,11,11,0,0,0,2-.18c.92-.17,1.87-.34,2.81-.42l.43,0,.78,0c.28,0,.56,0,.85,0H54c.9,0,1.95-.05,3-.16a7.28,7.28,0,0,0,1.93-.47,8,8,0,0,0,2.87-2,5.51,5.51,0,0,0,1.6-3.09,3.69,3.69,0,0,0-.75-2.78,1.13,1.13,0,0,0-.74-.43h0l-.46,0a2,2,0,0,0-.68.1c-.73.23-1.47.5-2.18.76l-.7.26-.21.09h0a.54.54,0,0,0-.25-.06.52.52,0,0,0-.21,0l-.28.13a3.71,3.71,0,0,1-.48.21c-.29.1-.59.18-.91.27l-.28.08A8,8,0,0,1,53,21l-.53,0a.39.39,0,0,0,.15-.11l.08-.08.58-.15a15.28,15.28,0,0,0,3.57-1.37l.14-.07a4.24,4.24,0,0,0,1.94-1.62l0-.09a5.38,5.38,0,0,0,.72-1.74,2.27,2.27,0,0,0-.78-2.23,4.17,4.17,0,0,0-1.81-1.13,11.57,11.57,0,0,0-2-.41,6.93,6.93,0,0,0-.77,0,4.87,4.87,0,0,0-1.9.36,7.22,7.22,0,0,1-2.71.69H49.5a2,2,0,0,1-1-.29.75.75,0,0,1-.29-.48,1.26,1.26,0,0,1,.2-.92c.12-.17.27-.35.42-.53l.25-.29a.5.5,0,0,0,.08-.47.47.47,0,0,0-.35-.33.66.66,0,0,0-.21,0Z"></path> </g> <g id="_Group_8" data-name="&lt;Group&gt;"> <path id="_Path_52" data-name="&lt;Path&gt;" class="cls-1" d="M38.32,28.71c.33-.16.49-.16.6.21a2.6,2.6,0,0,0,.52.85,5.18,5.18,0,0,1,1,1.94,14.4,14.4,0,0,0,1,2.29,9,9,0,0,1,.92,2.71,1.21,1.21,0,0,0,1.09,1.11c.6.09,1.22.11,1.83.2a14.24,14.24,0,0,0,3.13.08c1.27-.11,2.55-.21,3.84-.26.65,0,1.3.09,2,.1a1.74,1.74,0,0,0,1.45-.84,2,2,0,0,0,.36-.85,6.26,6.26,0,0,1,1.44-3c1.11-1.37,2.31-2.68,3.48-4,.2-.23.41-.12.59,0s.1.33,0,.49c-.51.55-1.06,1.08-1.54,1.66a2.52,2.52,0,0,0-.47.94,4.32,4.32,0,0,1-1.15,1.78A5.69,5.69,0,0,0,57,36.22a15.07,15.07,0,0,1-1,1.93.59.59,0,0,0,0,.39c.07.22,0,.35-.2.36a7.08,7.08,0,0,1-1.13,0c-.82,0-1.64-.15-2.46-.14s-1.78.15-2.67.18c-.65,0-1.31-.07-2-.06-1.21,0-2.43.07-3.64.08a10.77,10.77,0,0,1-1.6-.12.6.6,0,0,1-.39-.34c-.56-1.28-1.11-2.56-1.62-3.85-.64-1.63-1.26-3.26-1.86-4.91A5.32,5.32,0,0,1,38.32,28.71Z"></path> <path id="_Path_53" data-name="&lt;Path&gt;" class="cls-1" d="M45.46,29.67c.26,1.17.54,2.28.74,3.41a11.68,11.68,0,0,1,.08,1.68.92.92,0,0,0,0,.25c.09.23.16.49-.07.65a.84.84,0,0,1-.58.12c-.26-.06-.38-.3-.42-.59-.07-.62-.12-1.26-.25-1.87s-.35-1.06-.52-1.59a4.32,4.32,0,0,1-.17-.71c0-.29-.16-.69,0-.84a3.31,3.31,0,0,1,1-.51A.48.48,0,0,1,45.46,29.67Z"></path> <path id="_Path_54" data-name="&lt;Path&gt;" class="cls-1" d="M52.27,29.43c-.24.6-.46,1.18-.71,1.75-.6,1.4-1.21,2.78-1.82,4.17-.08.18-.15.3-.42.25s-.24-.24-.23-.42a6.75,6.75,0,0,1,.49-2.68c.41-.82.89-1.6,1.37-2.37a1.33,1.33,0,0,1,1.15-.74Z"></path> <path id="_Path_55" data-name="&lt;Path&gt;" class="cls-1" d="M51.62,36.19c.11-.34.19-.68.33-1a23.1,23.1,0,0,1,2.63-4.64c.09-.13.22-.23.31-.35s.41-.2.62-.1.24.35.17.55a1.76,1.76,0,0,1-.29.56Q54.73,32.1,54,33a8.14,8.14,0,0,0-1.64,3.58c0,.08-.12.2-.19.2a.5.5,0,0,1-.54-.35s0-.13,0-.19Z"></path> </g> </g> </svg> 