<?xml version="1.0" encoding="utf-8"?>
<!-- Generator: Adobe Illustrator 21.1.0, SVG Export Plug-In . SVG Version: 6.00 Build 0)  -->
<svg version="1.1" id="Layer_1" xmlns="http://www.w3.org/2000/svg" xmlns:xlink="http://www.w3.org/1999/xlink" x="0px" y="0px"
	 viewBox="0 0 181.2 56.7" style="enable-background:new 0 0 181.2 56.7;" xml:space="preserve">
<style type="text/css">
	.st0{fill:#D31245;}
</style>
<title>Coke_Dine</title>
<path class="st0" d="M63.9,23.2c7.9-7.7,19.2-1.3,19.2,6.4V51c-0.1,1.6,0.5,3.3,1.7,4.4H71.5C72.7,54.6,73,53,73,51V29.6
	c0.2-2.2-1.5-4.2-3.7-4.4c-2.2-0.2-4.2,1.5-4.4,3.7c0,0.2,0,0.5,0,0.7V51c0,1.7,0.7,3.3,2,4.4H53.3c1.3-1.1,2-2.7,1.9-4.4V29.6
	c0-5.9-8-5.9-8,0V51c0,2,0.3,3.5,1.1,4.4H35.3c1.3-1.1,2-2.7,1.9-4.4V31.8c0-3.9-0.9-6-3.1-7.5l13.2-4v3.1
	C51.1,19,59.2,18.1,63.9,23.2L63.9,23.2z"/>
<path class="st0" d="M87.2,12.7c0-3.3,2.3-6,5.2-6s5.2,2.7,5.2,6s-2.3,6-5.2,6S87.2,16,87.2,12.7z"/>
<path class="st0" d="M119.2,50.9c-1.7,1.3-5.8,0.6-5.8-3.1v-24h5l1.7-3.5h-6.9v-8.6L101,23.9h1.6c0.9,0,1.2,0.5,1.2,2V48
	c0,4.3,3.9,8.2,8.9,8.2s6.2-2,7.4-3.5c0.3-0.5,0.6-1,0.8-1.6l-1-0.8C120,50.3,119.7,50.5,119.2,50.9L119.2,50.9z"/>
<path class="st0" d="M132.6,22.8V5.4l-12.9,5.3c2.3,0.9,2.8,2.2,2.8,5.3V51c0.1,1.7-0.6,3.3-1.9,4.4h13.1c-1-1-1.1-2.4-1.1-4.4V29.6
	c0-5.9,8-5.9,8,0V51c0.1,1.7-0.6,3.3-1.9,4.4h13.1c-1.3-1.1-2-2.7-2-4.4V29.6C149.8,21.4,139.5,15.8,132.6,22.8L132.6,22.8z"/>
<path class="st0" d="M150.7,20c-2.4-0.4-4.2-2.5-4-5c0-2.9,2-5.2,4.5-5.2s4.5,2.3,4.5,5.2c-0.3,3.9-1.5,6.8-4.2,9.2
	c-0.4,0.4-0.8-0.1-0.1-1.1c0.5-0.7,0.7-1.5,0.6-2.4C151.8,20.2,151.4,20.1,150.7,20L150.7,20z"/>
<path class="st0" d="M176,53.6c0.1-1.3,1.3-2.2,2.5-2c1.3,0.1,2.2,1.3,2,2.5c-0.1,1.2-1.1,2-2.3,2C176.9,56.1,175.9,55,176,53.6
	C176,53.6,176,53.6,176,53.6z M178.2,55.7c1.2,0.2,2.3-0.6,2.4-1.8s-0.6-2.3-1.8-2.4c-1.2-0.2-2.3,0.6-2.4,1.8c0,0.1,0,0.2,0,0.3
	C176.3,54.7,177.1,55.6,178.2,55.7C178.2,55.7,178.2,55.7,178.2,55.7z M177.8,55.1h-0.4v-2.9h1c0.6,0,0.9,0.3,0.9,0.8
	c0,0.4-0.2,0.8-0.6,0.8c0,0,0,0,0,0l0.7,1.3h-0.4l-0.7-1.3h-0.4L177.8,55.1L177.8,55.1z M178.2,53.5c0.3,0,0.6,0,0.6-0.5
	s-0.3-0.4-0.6-0.4h-0.5v0.9L178.2,53.5L178.2,53.5z"/>
<path class="st0" d="M22.8,43.7c0-12.5-19.2-15.5-21.6-27.8C-1.3,3,12.8-2,19.5,1.7c4.4,2.4,6.1,1.1,8.4-0.2v16.7
	c0,0.3-0.2,0.6-0.6,0.6c-0.3,0-0.5-0.2-0.5-0.4c-1.7-4.8-3.5-9.7-7.4-12.5c-7.9-5.7-13.5,3.4-3.5,11.4c5.4,4.3,16.7,10.9,17.7,20.8
	c0,0.5,1.6,10.4-6.7,15.9c-2.7,1.8-7.4,2.7-12.1,2c-6.1-0.9-6.3-2.9-9.3-3.3c-2.5-0.3-4.5,2.4-5,2.7c0-0.1,0-11.8,0-17.6
	c0.4-0.2,0.9-0.1,1.2,0.3c1.1,4.7,3.8,8.9,7.6,11.8C12.2,52,22.8,53.4,22.8,43.7L22.8,43.7z"/>
<path class="st0" d="M168.5,48c-0.6-8.2-13.3-10.1-14.5-18.3c-1.4-9.2,9.1-11.8,13.9-9.3c3.1,1.6,4.3,0.7,6-0.1v11
	c0,0.2-0.1,0.4-0.3,0.4c-0.2,0-0.4-0.1-0.4-0.3l0,0c-1.2-3.2-2.4-6.5-5.3-8.2c-5.1-3-9.2,2.7-2.1,7.2c6,3.7,11,8.3,11.5,14
	c0,0.3,1.1,6.9-4.8,10.4c-2.6,1.3-5.7,1.8-8.6,1.3c-4.3-0.6-4.4-1.9-6.6-2.1c-1.8-0.2-3.2,1.4-3.6,1.6c0-0.1,0-7.6,0-11.4
	c0.3-0.1,0.6-0.1,0.8,0.2c0.8,3.2,2.7,5.9,5.4,7.8C162.1,53.4,169,54.3,168.5,48L168.5,48z"/>
<path class="st0" d="M98.9,20.3l-13.2,4c2.3,1.5,3.1,3.6,3.1,7.5V51c0.1,1.7-0.6,3.3-1.9,4.4h14.2c-1.6-0.8-2.3-2.4-2.3-4.5
	L98.9,20.3L98.9,20.3z"/>
</svg>
