<?xml version="1.0" encoding="utf-8"?>
<!-- Generator: Adobe Illustrator 21.1.0, SVG Export Plug-In . SVG Version: 6.00 Build 0)  -->
<svg version="1.1" id="Layer_1" xmlns="http://www.w3.org/2000/svg" xmlns:xlink="http://www.w3.org/1999/xlink" x="0px" y="0px"
	 viewBox="0 0 193 163.8" style="enable-background:new 0 0 193 163.8;" xml:space="preserve">
<style type="text/css">
	.st0{fill:#9A9390;}
	.st1{fill:#807873;}
	.st2{fill:none;}
	.st3{fill:#EF3523;}
	.st4{fill:#B42418;}
	.st5{fill:#BE442B;}
	.st6{fill:#FCFCFC;}
	.st7{fill:#F59322;}
</style>
<title>Casual dining</title>
<path class="st0" d="M100.3,32.3c0.4,1.8,1.2,3.6,3,4.1c5.5,1.7,10.4,1.1,11.2-5.9c0.4-3.6,0.5-7.1,0.5-10.7c0-0.3,0.1-1,0.1-1.8
	c0-4.5-0.1-8.9-2.3-13c-1.8-3.3-4.7-4.7-8.1-4c-2.8,0.6-4.4,2.8-4.6,6.5c-0.5,7-0.3,13.9-0.3,20.9C99.8,29.8,100,31.1,100.3,32.3z
	 M106.6,7.5c1.3,1.3,2,3.1,1.9,4.9c0.3,5.6,0.2,11.1-0.3,16.7c-0.1,0.6,0.2,1.6-0.9,1.6s-1.1-1-1.1-1.6c0-5.1,0-10.2,0-15.2
	C106.2,11.8,105.9,9.7,106.6,7.5L106.6,7.5z"/>
<path class="st1" d="M127.3,20.5c-0.4-1-0.4-2.2,0.2-3.2c1.8-3.6,3.1-7.4,3.8-11.4c0.8-4.1,0.8-4.1-3.4-4c-0.2,0-0.4,0-0.6,0
	c-1.3-0.2-1.8,0.2-1.8,1.6c0,1.3-0.2,2.7-0.5,4c-0.5,2.1-0.9,4.3-2.5,6c-0.2-2.9-0.2-5.8-0.2-8.7c0-3.3,0-3.3-3.3-2.9
	s-3.3,0.5-3.1,3.6c0.4,8.9,0.9,17.7,0.8,26.6c0,1.4-1.1,3.2-0.1,4c0.9,0.6,2.7-0.3,4.1-0.2c1.8,0.1,2-0.8,2-2.3
	c-0.1-2.8,0-5.6,0-8.8c1.4,3.4,2.7,6.5,3.8,9.6c0.2,1.1,1.2,1.8,2.3,1.6c1.3-0.1,2.5-0.2,3.9-0.3C130.9,30.5,129.1,25.5,127.3,20.5z
	"/>
<path class="st0" d="M64.3,37.9c4.5-0.4,7.3-3.8,7-8.6c-0.1-1.3-0.3-2.5-0.8-3.7c-1.3-3.4-2.9-6.8-4.8-9.9c-1.1-1.8-2-3.7-2.7-5.7
	c-0.3-0.9-0.7-2.1,0.6-2.5s1.6,0.9,1.9,1.8c0.3,1.2,0.5,2.3,0.7,3.5c0.1,0.5,0,1,0.8,1c3.2,0.1,5.1-2,4.7-5.2c-0.6-4.8-3.7-8-7.8-8
	c-5.6,0-8.6,3.6-7.6,9.1c0.3,1.9,0.9,3.7,1.7,5.4c1.5,3.1,3.2,6.1,4.7,9.2c0.9,1.5,1.4,3.2,1.5,5c0,0.8,0.2,2-1,2s-0.9-1.2-0.9-1.9
	c0.3-1.3-0.6-2.6-1.9-2.9c0,0-0.1,0-0.1,0c-5-1.6-5.3-1.3-4.6,4C56.3,35.6,59.6,38.3,64.3,37.9z"/>
<path class="st1" d="M133.2,18.6c0,5.1,0,10.2,0,15.2c0,1.3,0.1,2.1,1.8,2c2.2-0.1,4.5,0.2,6.8,0.3c4.8,0.1,4.8,0.1,4.8-4.7
	c0-1.4-0.4-1.9-1.8-1.7c-0.9,0.1-1.8,0.1-2.8,0c-1.5,0-2.3-0.6-2.2-2.3c0.2-2.3,0.2-4.7,0-7c-0.1-2.1,0.5-2.8,2.6-2.7
	c3.4,0.2,3.4,0,3.4-3.4s0-3.3-3.4-3.2c-0.9,0-2,0.3-2.5-0.6c-0.9-1.7,0.2-3.4,2.2-3.4c4.2-0.1,4.1,0,3.3-4.2
	c-0.2-1.2-0.6-1.8-1.9-1.7c-2.9,0.1-5.8,0.2-8.7,0.3c-1.4,0-1.8,0.6-1.7,1.9C133.3,8.6,133.2,13.6,133.2,18.6z"/>
<path class="st0" d="M152.5,21.6c-0.1,4.4-0.1,8.9-0.1,13.3c0,0.7,0,1.4,0.9,1.3c1.5-0.1,3.3,0,4.5-0.6c0.9-0.5,0.3-2.2,0.4-3.4
	c0.1-0.8,0.1-1.7,0.1-2.5c0-6.2,0.6-12.2,3-18c1.3-3.1,2.1-6.4,3.1-9.7c-1.6-0.3-2.9,0.3-4.3,0.3c-1.1-0.2-2.1,0.6-2.3,1.7
	c0,0.1,0,0.1,0,0.2c-0.6,2.4-1.3,4.8-2.2,7.6c-1.1-3.1-2-5.6-2.9-8.2c-0.2-0.7-0.4-1.3-1.3-1.4c-1.8-0.3-3.7-0.4-5.5-0.2
	c2,5.4,3.9,10.8,5.9,16.1C152.4,19.2,152.5,20.4,152.5,21.6z"/>
<path class="st1" d="M98.6,34.1c0-9-0.5-18-1.6-27c-0.6-5.4-0.7-5.4-6.1-5.4c-1.3,0-1.6,0.4-1.7,1.7c-0.1,3.8-0.9,7.5-3.4,10.7
	c-1.1-1-2-2.2-2.7-3.6c-1.1-2.3-2.1-4.6-2.9-7c-0.2-0.4-0.1-1.2-0.7-1.2c-1.8,0.1-3.6,0.4-5.4,1c-1,0.4-0.7,1.9-0.8,2.9
	C73.2,14.1,73.4,22,74,29.9c0.1,1.9-0.3,4.3,0.7,5.5c1.1,1.5,3.7,0.5,5.6,0.9c0.1,0,0.3,0,0.4,0.1c1.4,0.4,1.7-0.2,1.6-1.5
	c-0.3-3.5-0.6-7-0.9-10.5c0.3-1-0.3-2,0.4-2.9c1.1,2.9,2.6,5.5,4.6,7.9c2-3.1,2.9-6.5,4.2-9.9c0.5,1.5,0.8,3.1,0.7,4.7
	c0.1,3.5,0.3,7,0.4,10.6c0,1,0.3,1.9,1.4,1.4c1.8-0.8,4.4,0.8,5.6-1.8C98.7,34.3,98.6,34.2,98.6,34.1z"/>
<path class="st2" d="M25.3,12.9c-3-0.2-5.9,0.1-8.8,0.7c-1.7,0.3-2,1-2,2.5c-0.1,7.3-0.3,14.7-0.4,22C13.7,60.1,13.4,82,13,103.9
	h-0.4c0,6.7,0,13.4,0,20.1c0,1-0.4,2.2,1.3,2.4c4.9,0.3,9.7,0.5,14.4-1.5c3.7-1.5,6.3-4.9,6.6-8.9c1.1-8.3,1.4-16.6,0.8-24.9
	c-0.4-5.9-1.3-11.8-4.2-17.1c-1.9-3.5-4.5-6.2-8.6-6.8c-1.4-0.2-1.3-1-1.1-2c0.6-3.5,1.3-6.9,1.9-10.4c0.2-1,0.4-1.5,1.7-1.6
	c5.7-0.5,10.1-3.4,12.3-8.7c3.1-7.1,3.3-15.1,0.5-22.3C35.9,16.4,31.4,13.5,25.3,12.9z"/>
<path class="st3" d="M85,127.1c1.7-5,2.1-10.2,2.4-15.4c0.5-8.2,0.4-16.5,0.7-24.8c0-5.6,0.1-11.3,0-16.9c-0.1-6.8,0-13.5-2.3-20.1
	c-2.6-7.6-8.5-10.7-16.4-9.7c-7,0.9-11,5.6-13.7,11.6C52,60,50.8,68.7,50.6,77.4c-0.3,12.4-0.1,24.8,0.8,37.2
	c0.2,4.8,1.1,9.5,2.8,14.1c1.6,4.1,4.4,6.7,8.8,7.3c3.9,0.6,7.9,0.6,11.8,0C80.1,135.3,83.3,132.1,85,127.1z"/>
<path class="st4" d="M121.1,40.5c-1.7,0.3-3.9,0.2-5,1.3s0,3.3,0.1,5.1c0,0.1,0,0.1,0,0.2c1.3,15.9,1.4,31.9,1.3,47.9
	c0,1.5,0,2.9,0,4.4c-1.7-4.4-3.1-9-4.3-13.6c-4-14.8-8-29.5-11.9-44.3c-0.4-1.4-0.9-1.9-2.5-1.6c-2.4,0.4-4.8,0.6-7.2,0.7
	c-1.5,0.1-1.9,0.6-1.7,2c1.7,11.9,2.2,23.9,2.4,35.9c0.4,18.8,0.2,37.7-0.7,56.5c0,1,0.1,1.7,1.2,2c2.7,0.8,5.4,1.6,8.1,2.5
	c1.1,0.4,1.5,0.1,1.5-1.1c-0.2-12.3-0.3-24.6-0.5-36.8c-0.1-6.6,0-13.2,0-19.8l0.2-0.1c1.4,5.4,2.9,10.8,4.3,16.3
	c3.1,12.4,6.2,24.7,9.2,37.1c0.3,1.3,0.7,1.8,2.1,1.7c2.3-0.2,4.5-0.2,6.8-0.2c1.4,0,1.8-0.4,1.9-1.8c0.6-8.9,0.8-17.8,0.9-26.6
	c0.1-21.3-0.5-42.5-1.4-63.7C125.7,39.7,125.7,39.6,121.1,40.5z"/>
<path class="st4" d="M185.7,65.8c1.7-0.6,3.3-1.1,5.1-1.5c1.4-0.3,1.8-0.9,1.7-2.3c-0.3-3.9-1.2-7.8-2.7-11.5
	c-3.4-8.1-9.2-11.5-17.9-10.5c-9.3,1-14.2,6.7-14,15.9c0.1,2.3,0.4,4.6,0.9,6.9c2.4,9.6,6.7,18.2,11.8,26.5
	c3.6,5.6,6.7,11.4,9.3,17.6c1.5,3.8,2.8,7.6,2.5,11.7c-0.4,5.1-4,8.5-9.4,8.7c-4.2,0.2-7-2.7-7.7-7.9c-0.1-0.3-0.1-0.7-0.1-1
	c0.6-3.9-1.7-5.2-5-6c-4.2-1-4.2-1.3-3.8,3.4c0,1.6,0.2,3.3,0.5,4.9c1.8,10.3,8,15.3,18.1,14.7c10.6-0.6,17.3-8.7,16-19.2
	c-0.7-5.6-2.3-11.1-4.6-16.3c-4.2-9.6-9.9-18.4-14.7-27.6c-2.2-4.2-4.2-8.5-4.9-13.2s2-9.2,6.2-10.2c4.5-1.1,8.4,1.3,10.1,6.2
	c1,3.1,1.4,6.4,1.2,9.6C184.3,65.9,184.6,66.2,185.7,65.8z"/>
<path class="st5" d="M131.9,41.7c0,3.9,0,7.8,0.1,11.7c0,7.7,0.1,15.4,0.1,23.1c0,7.8,0.1,15.5,0.1,23.3c0,11.7-0.2,23.4-0.3,35.1
	c0,1.1,0.4,1.4,1.5,1.4c2.5,0,4.9,0.2,7.4,0.3c5.7,0.2,11.5,0.1,17.2-0.4c-1.2-2.7-3-5-3.3-7.9c-0.1-1.3-0.7-1.4-1.8-1.3
	c-2.7,0.3-5.3,0.4-8,0.4c-1.5,0-2.4-0.4-2.3-2.1c0.1-1.5,0.1-3-0.1-4.4c-0.3-9.2-0.2-18.4,0-27.5c0-0.9,0.4-1.4,1.4-1.5
	c2.3-0.4,4.7-0.4,7-0.1c0.8,0.1,1.5,0.2,1.5-1c-0.1-2.8,0-5.6,0-8.5c0-0.9-0.4-1.3-1.2-1.3c-2.3-0.1-4.5-0.6-6.8-0.2
	c-1.6,0.3-2-0.2-2-1.8c0.1-9.2,0.2-18.3,0.2-27.5c0-1.5,0.5-1.9,2-1.9c2.7-0.2,5.5-0.2,8.3,0c0.6,0.1,1.4,0.3,1.5-0.9
	c0.4-2.7,1.6-5.2,3.3-7.4c-0.6-0.4-1.2-0.6-1.9-0.6c-7.5-1.2-15.1-0.3-22.6-0.4C131.8,40,131.9,40.8,131.9,41.7z"/>
<path class="st4" d="M45.9,49.1c3.8-8.8,4.2-17.9,2.2-27.2C45.2,8.6,33.1-0.5,18.8,1.7C14.1,2.4,9.7,4.2,5,4.8C3.6,4.9,4,5.9,4,6.7
	c-0.3,8.3-0.5,16.6-0.7,25C2.8,53,2.4,74.4,2,95.8c-0.1,7.5-0.3,15-0.4,22.4c-0.1,6.3-0.2,12.6-0.3,18.9c0,0.7-0.4,1.8,1.1,1.7
	c6.8-0.3,13,2,19.4,3.7c3.3,0.9,6.7,1.3,10.1,0.9c6.1-0.8,11-3.5,13.4-9.3c1.6-4,2.4-8.3,2.2-12.6c-0.3-10.7-1.2-21.4-1.4-32.1
	c0-7.5-1.2-14.9-3.7-22c-1.2-3.2-2.6-6.1-5.9-8C40.8,57.1,44.1,53.5,45.9,49.1z M37.6,44.4c-2.3,5.3-6.6,8.2-12.3,8.7
	c-1.2,0.1-1.5,0.6-1.7,1.6c-0.6,3.5-1.3,6.9-1.9,10.4c-0.2,1-0.3,1.8,1.1,2c4.1,0.7,6.7,3.3,8.6,6.8c2.9,5.3,3.8,11.2,4.2,17.1
	c0.5,8.3,0.3,16.6-0.8,24.9c-0.3,4-2.9,7.4-6.6,8.9c-4.6,2-9.5,1.9-14.4,1.5c-1.7-0.1-1.3-1.4-1.3-2.4c0-6.7,0-13.4,0-20.1H13
	C13.4,82,13.7,60,14.1,38.1c0.1-7.3,0.3-14.7,0.4-22c0-1.5,0.3-2.3,2-2.5c2.9-0.6,5.9-0.8,8.8-0.6c6.1,0.5,10.6,3.5,12.8,9.2
	C40.9,29.4,40.7,37.4,37.6,44.4L37.6,44.4z"/>
<path class="st6" d="M73.9,99.3c0.2-0.8,0.4-1.3,0.6-1.9c1.4-4.1,1.7-8.5,1-12.7c-0.6-3-2.1-5.5-3.2-8.3c-2.6-6.8-4.7-13.6-2.3-21
	c0.3-0.4,0.9-0.9,0.4-1.3s-0.7,0.3-0.9,0.8c-3.5,4.8-4.2,10.2-3.2,15.9c0.7,3.8,1.6,7.6,1.6,11.5c0,3-0.1,6.1-1.8,9.2
	c-0.9-4.4-1.6-8.6-5.8-10.7c3,4.2,2.8,8.9,2,13.6c-0.7,3.3-1.3,6.6-1.6,10c-0.2,3.6,0.1,7.1,2,10.2c1.7,2.8,5.1,4.2,8.3,3.3
	c2.9-0.6,4.1-2.3,4.5-6.1c0.6-5.1,0.5-10.4,3.7-15C76.9,96.6,75.6,98.1,73.9,99.3z"/>
<path class="st7" d="M117.5,152.3c-3.1,0-5.5,1.5-6.2,3.8c-0.7,1.9-0.2,4.1,1.3,5.4c2.3,2.2,7.8,2.3,10.3,0.3c0.4-0.4,1-0.8,0.9-1.3
	c-0.1-0.8-0.9-0.5-1.4-0.6c-1.3-0.1-2.6-0.7-3.7,0.6c-0.4,0.5-1.2,0.2-1.7-0.3c-0.5-0.3-0.7-0.9-0.6-1.5c0.3-0.8,1.1-0.4,1.6-0.5
	c0.8-0.1,1.6,0,2.3,0h1.9c2.2,0,2.4-0.3,1.6-2.4C123,153.6,120.7,152.3,117.5,152.3z M117.9,157.1c-0.6-0.2-1.5,0.4-1.5-0.7
	c-0.1-0.8,0.5-1.4,1.3-1.5c0.1,0,0.1,0,0.2,0c0.7,0,1.3,0.6,1.3,1.4c0,0,0,0,0,0C119.2,157.4,118.3,156.8,117.9,157.1L117.9,157.1z"
	/>
<path class="st7" d="M185.2,154.3v-1.3c0-4.8,0-4.8-4.7-4.7c-1.8,0-3,1.5-1.8,2.7c1.6,1.7,0.9,3.5,1,5.2c0.1,1.3,0.5,2.7-0.9,4
	c-1.2,1.1,0,2.9,1.8,2.9h3.4c2.1,0,3-0.8,2-2.6C184.9,158.3,185.5,156.1,185.2,154.3z"/>
<path class="st7" d="M156.4,153.6c-0.2,0.2-0.4,0.4-0.8,0.7c0-1.3-0.6-1.8-1.7-1.6c-1,0.1-2,0-3,0c-0.7,0.1-1.8-0.5-1.9,0.6
	c-0.1,0.9-0.5,1.9,0.7,2.8c0.9,0.7,1.1,2,0.4,2.9c-0.1,0.2-0.3,0.3-0.4,0.4c-1.3,0.9-0.7,1.9-0.7,2.8c0.1,1.2,1.2,0.7,1.9,0.7
	c1.5,0.1,3,0.1,4.4,0c0.7,0,1.9,0.5,1.9-0.6s1-2.4-0.9-2.9c-1-0.3-0.3-1.1,0.1-1.5c0.7-0.7,1.6-1,2.5-1c0.4,0,1.1,0.2,1.2-0.5
	c0.1-1.3,0.6-3-0.3-3.8S157.4,152.7,156.4,153.6z"/>
<path class="st7" d="M97,157.2c0-4.6,0-4.6-4.5-4.5c-0.7,0-1.8-0.5-2,0.6c-0.3,0.9-0.2,2,0.5,2.7c1,0.9,1,2.4,0.1,3.4
	c-0.1,0.1-0.2,0.2-0.2,0.2c-0.9,0.8-0.5,1.9-0.3,2.8s1.2,0.5,1.8,0.6c0.6,0,1.1,0,1.7,0h1.7c2,0,2.9-1.3,1.9-3
	C97.1,159.1,96.9,158.2,97,157.2z"/>
<path class="st7" d="M167.8,157.1c0-4.4,0-4.4-4.4-4.4c-0.7,0-1.8-0.5-2,0.5c-0.4,1-0.2,2.1,0.5,2.9c0.9,0.9,0.9,2.5,0,3.4
	c0,0-0.1,0.1-0.1,0.1c-1,0.9-0.6,2-0.4,2.9s1.2,0.4,1.9,0.5c0.6,0,1.1,0,1.7,0h1.5c2.2,0,3.1-1.2,1.9-3.1
	C167.9,159,167.7,158.1,167.8,157.1z"/>
<path class="st7" d="M94.1,151.8c1.2-0.3,2.8-0.2,2.7-2s-1.6-1.9-2.8-1.9s-2.9,0.1-2.8,2S92.9,151.4,94.1,151.8z"/>
<path class="st7" d="M164.9,151.6c1.2,0,2.8-0.1,2.8-1.9s-1.6-1.7-2.9-1.9c-1.1,0.3-2.8,0.1-2.8,1.9
	C161.9,151.7,163.6,151.6,164.9,151.6z"/>
<path class="st7" d="M14.8,155.1c1.8-0.9,2.6-2.1,2.2-3.8s-1.7-2.6-3.5-2.9c-3.5-0.6-7-0.2-10.6-0.3c-1.9,0-3.1,1.8-1.9,3
	c1.6,1.7,0.9,3.4,1.1,5.2c0.1,1.1,0.5,2.4-1,3.3c-0.4,0.3-0.3,1.9-0.1,2.8s1.2,0.5,1.9,0.5c3.3,0,6.6,0,10-0.1c2-0.1,4-0.7,4.6-3
	S16.9,156.2,14.8,155.1z M9,151.5c0.9,0.1,2,0.1,2,1.4s-0.9,1.2-1.9,1.3c-0.8,0.1-1.3-0.2-1.3-1.2C7.8,152,7.9,151.4,9,151.5z
	 M9.1,159.6c-1,0.1-1.3-0.4-1.3-1.4c0-1.1,0.5-1.5,1.4-1.3s2.1,0.1,2,1.4S10.1,159.6,9.1,159.6L9.1,159.6z"/>
<path class="st7" d="M68,156.1c1.7-0.5,0.5-1.9,0.8-2.8s-0.5-0.9-1.2-1c-2.5-0.6-3.2,1.2-4.1,2.9c-0.9-0.6-1.6-1.5-2.2-2.4
	c-0.4-0.5-0.4-1.2,0.3-1.4c1.7-0.5,1.2-1.8,1-2.8c-0.3-1.1-1.6-0.7-2.4-0.7c-3.4,0.1-5.4,1.5-4.9,3.8c0.4,1.8-0.3,2.4-1.7,3.1
	c-1.8,0.9-2.7,2.9-2.2,4.8c0.4,2,1.8,3,3.8,3.4c1.7,0.3,3.5,0.1,5.2-0.5c0.4-0.1,0.9-0.7,1.3-0.4c1.8,1.5,3.8,0.5,5.7,0.8
	c1.2,0.2,1.5-0.5,1.3-1.5c-0.2-0.9,0.7-2.4-1.2-2.2c-0.6,0.1-1.3-0.2-1.6-0.8c-0.4-0.8,0.5-1.1,0.7-1.6S67.4,156.3,68,156.1z
	 M59,160.2c-0.6,0.4-1.4,0.3-2-0.1c-0.7-0.4-1.1-1.2-1-2c0-0.6,0.3-1.1,0.8-1.4c0.7-0.4,0.9,0.3,1.3,0.7c0.5,0.6,1,1.3,1.5,1.9
	C59.7,159.9,59.3,160,59,160.2L59,160.2z"/>
<path class="st7" d="M144.5,155.1c-0.4,0-0.8,0-1.3,0c-0.7,0.1-1.8-0.4-2,0.6c-0.1,0.8-0.7,1.9,0.9,2.4c0.8,0.2,0.2,0.9-0.1,1.3
	c-1,0.8-2.5,0.6-3.2-0.4c-0.2-0.3-0.3-0.6-0.4-0.9c-0.2-1.2-0.2-2.4-0.2-3.6c-0.2-1.2,0.5-2.3,1.6-2.7c1.2-0.5,2.5-0.1,3.2,0.9
	c1.1,1.4,2.5,0.9,3.7,0.6c1-0.2,0.3-1.5,0.5-2.2c0.1-0.3,0-0.6,0-0.8c0.3-1.8-0.7-2.3-2.1-1.9c-1.4,0.3-2.9,0.2-4.4-0.1
	c-4.6-0.7-8.3,1.9-9.1,6.2c-0.8,4.5,1.9,8,6.7,8.8c4.1,0.7,7.5-0.7,8.9-3.7S147.8,155.1,144.5,155.1z"/>
<path class="st7" d="M88.1,148.1c-1.8,0.1-3.5,0-5.3,0s-3.8,0-5.7,0c-0.6,0-1.6-0.3-1.6,0.8c0,1-0.7,2.3,0.6,2.8
	c1,0.4,0.8,1,0.9,1.6c0,1.3,0,2.5,0,3.8c0,0.9,0.3,1.8-1.1,2.3c-0.9,0.4-0.4,1.9-0.3,2.9c0.1,0.8,0.9,0.5,1.4,0.5c2,0,4.1,0,6.1,0
	c0.6,0,1.5,0.2,1.3-0.8s1-2.4-0.8-2.8c-1-0.2-0.8-0.7-0.9-1.3c-0.1-0.9,0.5-1.1,1.2-1c1.2,0.2,1.3-0.5,1.4-1.5
	c0-1.2-0.3-1.7-1.5-1.6c-0.5,0.1-1,0.1-1-0.7c0-0.5-0.2-1.3,0.3-1.3c0.9-0.1,2.2-0.7,2.8,0.4c1,1.6,2.4,0.7,3.6,0.6
	c1-0.1,0.4-1.3,0.5-2c0.1-0.3,0-0.7,0-1.1C90.1,148.6,89.6,148,88.1,148.1z"/>
<path class="st7" d="M33.3,159.9c-1.6-0.7-0.9-1.9-1-2.8c-0.1-1.4-0.1-2.7-1.3-3.6c-2-1.6-9.2-1.4-11.2,0.2
	c-0.6,0.3-0.9,0.9-0.9,1.6c1.9,0,3.7,0.8,5.4-0.4c0.3-0.2,1-0.1,1.4,0.1c0.7,0.1,1.1,0.7,1,1.4c0,0.1,0,0.1,0,0.2
	c-0.2,0.9-0.9,0.3-1.4,0.2c-1.6-0.3-3.3-0.1-4.8,0.6c-1.2,0.5-1.9,1.6-1.8,2.8c0.1,1.3,1,2.4,2.3,2.8c0.7,0.3,1.5,0.3,2.3,0.3
	c2.8-0.5,5.7,0,8.5-0.1c0.6,0,1.4,0.4,1.6-0.5S34,160.2,33.3,159.9z M26.8,159.4c0.1,1-0.5,1.4-1.4,1.4c-0.7,0.1-1.4-0.4-1.5-1.1
	c0-0.1,0-0.2,0-0.3c0-0.9,0.7-1.2,1.6-1.2S26.9,158.5,26.8,159.4L26.8,159.4z"/>
<path class="st7" d="M176.4,154.2c0-0.8,0-1.2,0-1.6c0-4.5,0-4.5-4.6-4.4c-1.1-0.1-2,0.7-2.1,1.8c0,0.5,0.1,0.9,0.4,1.3
	c1.1,2.1,1.1,6.6,0.1,8.6c-0.9,1.7-0.1,3.2,1.7,3.2h3.4c2,0,2.8-0.8,1.9-2.5C176,158.3,176.7,156.1,176.4,154.2z"/>
<path class="st7" d="M41.6,153.7c-0.2,0.2-0.2,0.6-0.2,0.9l-0.6-0.3c0.1-1.3-0.3-1.7-1.5-1.6s-2.3,0-3.4,0c-0.6,0-1.5-0.3-1.5,0.6
	s-0.5,1.8,0.4,2.5c1.1,0.8,1.3,2.3,0.5,3.3c-0.1,0.2-0.2,0.3-0.4,0.4c-1,0.8-0.5,1.8-0.5,2.7s0.9,0.6,1.5,0.6c1.7,0,3.4,0,5.1,0
	c0.6,0,1.6,0.3,1.7-0.8c0-0.9,0.6-2.1-0.7-2.6c-1.6-0.6-0.6-1.3-0.1-1.8c0.7-0.5,1.5-0.8,2.3-0.8c0.4,0,1.2,0.2,1.2-0.5
	c0.1-1.3,0.6-3.1-0.2-3.9S42.6,152.7,41.6,153.7z"/>
<path class="st7" d="M109.8,152.7c-1-0.7-2.4,0.1-3.4,1.1c-0.2,0.2-0.2,0.6-0.3,0.8l-0.6-0.2c0.1-1.5-0.6-1.8-1.7-1.7
	c-0.9,0.1-1.8-0.1-2.8,0c-0.7,0.1-1.8-0.5-1.9,0.7c-0.1,0.8-0.6,1.9,0.7,2.6c0.9,0.5,0.9,3.1,0,3.6c-1.4,0.7-0.7,1.9-0.7,2.8
	c0.1,1.2,1.2,0.6,1.9,0.7c1.4,0.1,2.8,0.1,4.2,0c0.7,0,1.8,0.5,1.9-0.6c0.1-0.9,0.9-2.2-0.8-2.8c-0.9-0.3-0.4-1.1,0.1-1.5
	c0.7-0.6,1.6-1,2.5-0.9c0.5,0,1.1,0.1,1.1-0.6C110.1,155.2,110.8,153.4,109.8,152.7z"/>
</svg>
