<svg id="Layer_1" data-name="Layer 1" xmlns="http://www.w3.org/2000/svg" viewBox="0 0 250 250"><defs><style>.cls-1{fill:#fff;}.cls-2{fill:#ed1c24;}.cls-3{fill:#f6d056;}.cls-4{stroke:#231f20;stroke-miterlimit:10;stroke-width:0.1px;}.cls-5{fill:red;}.cls-6{fill:#f9e8a0;}</style></defs><title>Smoothie Shop</title><polygon class="cls-1" points="156.4 53.85 181.5 53.85 205.3 97.25 165.1 97.45 156.4 53.85"/><polygon class="cls-2" points="125 53.85 123.7 97.85 166.7 97.45 156.4 53.85 125 53.85"/><polygon class="cls-1" points="83.5 97.85 124.9 97.65 125.6 53.85 93.4 53.85 83.5 97.85"/><polygon class="cls-2" points="68.9 53.85 43.7 98.15 83.5 97.85 93.4 53.85 68.9 53.85"/><polygon class="cls-3" points="56.9 98.15 57.4 196.25 191.7 195.75 192.3 97.25 56.9 98.15"/><path class="cls-2" d="M46.2,98.65s-4.9.1-2.5,5.9,6.7,15.1,18.5,14.6,19.5-11.5,19.5-11.5,3.8-10.3-1-9.5S46.2,98.65,46.2,98.65Z"/><path class="cls-1" d="M87.2,98.65s-4.9.1-2.5,5.9,6.7,15.1,18.5,14.6,19.5-11.5,19.5-11.5,3.8-10.3-1-9.5S87.2,98.65,87.2,98.65Z"/><path class="cls-2" d="M128.2,98.65s-4.9.1-2.5,5.9,6.7,15.1,18.5,14.6,19.5-11.5,19.5-11.5,3.8-10.3-1-9.5S128.2,98.65,128.2,98.65Z"/><path class="cls-1" d="M169.2,98.65s-4.9.1-2.5,5.9,6.7,15.1,18.5,14.6,19.5-11.5,19.5-11.5,3.8-10.3-1-9.5S169.2,98.65,169.2,98.65Z"/><path class="cls-4" d="M57.5,197.85a2.55,2.55,0,0,1-1.3-.6v-74.5c0-1.9-.6-3.2-2.6-3.9-5.8-2.6-9-7.1-10.9-12.8a26.73,26.73,0,0,1-.6-3.2v-4.5l.6-.6,5.8-10.3C53.6,75.85,60.1,65,66.5,54c.6-.6.6-1.3,1.3-1.9H181.5c.6.6,1.3.6,1.3,1.3,5.8,9.6,10.9,19.3,16.1,28.3a70.56,70.56,0,0,1,6.4,12.2l2.6,4.5v1.9c-.6,8.4-5.1,14.1-12.2,18-1.9.6-2.6,2.6-2.6,4.5v71.9h0V196c0,.7,0,1.3-1.9,1.3H58.2c-.1.5-.1.5-.7.5Zm1.9-3.2h131v-73.9h-3.1c-7.7,0-14.1-3.2-19.3-9.6l-1.9-3.2-1.9,3.2a21.47,21.47,0,0,1-18,9.6c-7.7,0-13.5-3.2-18.6-9.6l-1.9-3.2-1.9,3.2c-4.5,5.8-10.9,9.6-18.6,9.6a22.51,22.51,0,0,1-18.6-9.6l-2.6-2.6-2.6,3.2c-4.5,6.4-10.9,9.6-19.3,9.6H58.9v73.2h.5ZM168,102.15a18.88,18.88,0,0,0,18.6,15.4h0a18.79,18.79,0,0,0,18.6-15.4l.7-3.2H168Zm-82.2,0a18.88,18.88,0,0,0,18.6,15.4h1.9c8.4-.6,16.1-8.4,16.7-15.4v-2.6H85.1Zm41.1,0c.6,7.7,8.4,15.4,18.6,15.4h.6c9.6-.6,16.7-8.4,18-15.4l.6-3.2H126.9Zm-82.2,0q0,4.8,3.9,9.6a21.92,21.92,0,0,0,14.8,6.4h0c10.3,0,17.3-9,18-15.4v-2.6H44.7Zm26.9-46.9c-1.9,0-3.2.6-3.9,1.9-4.5,9-9.6,17.3-14.1,25.7l-4.5,7.7a.59.59,0,0,1-.6.6l-1.9,4.5H202.7l-1.9-3.9v-.6l-1.9-3.9c-5.8-9.6-11.6-19.9-17.3-30.2-.6-1.3-2.6-1.9-3.9-1.9H110.2Z"/><path class="cls-5" d="M109.33,151.32h31s-1.4-16.62-15-16.71S109.33,151.32,109.33,151.32Z"/><path class="cls-6" d="M141.13,150.43c-.58-6.91-4.61-13.25-10.95-15.55l-.58,1.73c5.76,2.3,9.22,7.49,9.79,13.83H111.17c.58-6.91,5.18-12.67,10.95-14.4v4.61h-2.3v2.3h10.37v-2.3h-2.3V123.35h-6.34V134.3a15.83,15.83,0,0,0-9.22,5.76,17.94,17.94,0,0,0-4,10.37h-1.73v5.76H110l2.88,34.56H137.1L140,156.19h3.46v-5.76Z"/><path d="M143.43,150.43h-2.3c-.58-6.91-4.61-13.25-10.95-15.55l-.58,1.73c5.76,2.3,9.22,7.49,9.79,13.83H111.17c.58-6.91,5.18-12.67,10.95-14.4v4.61h-2.3v2.3h10.37v-2.3h-2.3V123.35h-6.34V134.3a15.83,15.83,0,0,0-9.22,5.76,18,18,0,0,0-4,10.37h-1.73v5.76H110l2.88,34.56H137.1L140,156.19h3.46Zm-17.28-25.35v15h-2.3v-15ZM114.63,189l-.58-7.49h21.31l-.58,7.49Zm22.47-24.77H114.63v2.3H137.1l-1.15,12.67H114.05l-1.73-23h25.35Zm4-9.79H108.29v-2.3h32.84Z"/></svg>