<?xml version="1.0" encoding="utf-8"?>
<!-- Generator: Adobe Illustrator 21.1.0, SVG Export Plug-In . SVG Version: 6.00 Build 0)  -->
<svg version="1.1" id="Layer_1" xmlns="http://www.w3.org/2000/svg" xmlns:xlink="http://www.w3.org/1999/xlink" x="0px" y="0px"
	 viewBox="0 0 233.4 109.7" style="enable-background:new 0 0 233.4 109.7;" xml:space="preserve">
<style type="text/css">
	.st0{fill:#EE3B44;}
	.st1{fill:#FBDC2A;}
	.st2{fill:#0A68AF;}
	.st3{fill:#96A7D2;}
	.st4{fill:#C6C769;}
	.st5{fill:#617583;}
	.st6{fill:#386E97;}
	.st7{fill:#F0EDD4;}
	.st8{fill:#3C6A96;}
	.st9{fill:#35629B;}
	.st10{fill:#466BA4;}
	.st11{fill:#4B6D8F;}
	.st12{fill:#6B797D;}
</style>
<title>Fast Food</title>
<path class="st0" d="M202.4,61.3c1.9-0.4,3.7-1.1,5.5-1.9l-1.3,9.5c0.3,1.6,0,2.2-1.1,2.9c-0.3,0.1-0.6,0.3-0.9,0.4
	c-1.8,0.7-3.8,1.1-5.8,1.3c-4,0.3-8,0.3-11.8-1.3c-4.2-1.6-7.5-5.1-8.8-9.5c-2.7-8.1-1.5-17.1,3.3-24.2c0.1-0.2,0.3-0.4,0.4-0.6
	c0.2-0.3,0.4-0.6,0.6-0.9c4-4.3,9.5-7,15.4-7.4c4.4-0.4,8.9-0.1,13.2,0.7c1.6,0.4,1.7,0.8,1,2.8c-0.3,2.3-0.6,4.7-0.9,7
	c-0.1,1-0.3,2.1-0.4,3.2l-1.5-0.6c-0.3,0-0.7-0.1-1-0.2c-2.5-1-5.1-1.5-7.8-1.5c-2.8,0.1-5.5,1.3-7.4,3.3c-0.3,0.3-0.6,0.6-0.8,0.9
	c-2.2,3.4-3.1,7.5-2.4,11.5c0.3,2,1.7,3.6,3.5,4.3c1.9,0.7,4.1,0.9,6.1,0.6C200.6,61.5,201.5,61,202.4,61.3z"/>
<path class="st1" d="M116,20.1c2.7-0.3,5.3-0.9,7.9-1.4c10-1.9,20-3.8,29.9-5.7l32.8-6.3c9.7-1.8,19.4-3.7,29.1-5.5
	c4.1-0.9,8.4-0.9,12.5-0.1c0.8,0.2,1.6,0.5,2.3,0.9c2,1,2.9,3.4,1.9,5.4c-0.1,0.1-0.1,0.3-0.2,0.4c-0.1,0.2-0.2,0.3-0.4,0.3
	c-0.1-0.1-0.2-0.3-0.1-0.5c0.1-2.8-1.8-4-3.8-4.4c-2.2-0.4-4.5-0.4-6.7-0.1c-5.4,0.5-10.6,1.7-15.9,2.7c-14.9,2.8-29.8,5.7-44.7,8.5
	l-28.1,5.4c-16.8,3.2-33.6,6.5-50.4,9.6c-0.6,0.1-1.2,0.2-1.7,0.4c-7.2,1.3-14.3,2.7-21.5,4.1c-0.9,0.2-1.7,0.4-2.6,0.3
	c-0.1,0-0.3-0.1-0.2-0.2c0.3-0.9-0.2-1.4-0.9-1.9C55,32,55,31.8,55.1,31.7c0,0,0.1-0.1,0.1-0.1c2.6-0.8,5.3-1.1,7.9-1.6
	c6.5-1.3,13-2.5,19.5-3.7c7.1-1.3,14.1-2.7,21.2-4c-5.7-1.1-11.4-2.2-17.1-3.3l-47.2-9C31.6,8.5,23.8,7,16,5.5
	C13.3,5,10.5,4.7,7.8,4.8C6.9,4.8,5.9,5,5.1,5.2c-1,0.1-1.6,1-1.5,2c0,0.1,0.1,0.3,0.1,0.4c0.6,1.8,1.5,3.5,2.7,4.9
	c1.5,1.9,3.1,3.7,4.8,5.5c4.4,4.7,8.9,9.3,13.3,14.1c0.8,0.9,1.7,1.6,2.5,2.6c0.3,0.6,1,0.9,1.2,1.6c-0.6,1.2-1.3,2.4-2.1,3.6
	c-0.3,0.5-1,0.4-1.5,0.5c-3.4,0.6-6.4,2.5-8.5,5.3c-3.3,4.6-2.8,10.9,1.1,15.1c1.1,1.2,2.4,2.1,3.8,2.9c0.4,0.2,1,0.4,0.9,0.9
	c0,0.7-0.4,1.3-1.1,1.5c-5.7-2-9.4-7.4-9.1-13.4C12,43.3,17,38.4,26.2,37.3c-1.1-1.2-2.1-2.2-3.1-3.3c-5.2-5.5-10.5-11-15.7-16.5
	c-1.5-1.6-2.9-3.3-4.1-5.1c-1.1-1.5-1.8-3.2-2.3-5c-0.4-1.4,0.2-3,1.4-3.8C4,2.5,5.7,1.9,7.6,2c4.2,0,8.4,0.5,12.5,1.4
	C37,6.6,54,9.9,70.9,13.1c12,2.3,23.9,4.5,35.9,6.9c0.4,0.1,0.7,0.1,1.1,0.2c2.1,0.6,4.4,0.6,6.5,0C114.9,20.1,115.4,20.1,116,20.1z
	"/>
<path class="st2" d="M205.3,71.6c1.4-0.5,1.1-1.7,1.3-2.7c3.7,6.7,7.4,13.4,11.1,20.1c1.2,2.1,1.9,4.5,2.3,6.9
	c0.1,0.6,0.2,1.3,0.2,1.9c0,2.5-1.6,4.7-4,5.4c-2.7,0.8-5.6,0.9-8.4,0.2c-8.9-1.8-17.8-3.7-26.7-5.5l-36.1-7.5l-26.4-5.5
	c-19.5-4.1-39-8.1-58.5-12.1c-3.7-0.8-7.3-1.5-11-2.3c-0.4-0.1-0.8-0.2-1.2-0.3c-0.4-0.4-0.1-0.6,0.2-0.8c0.7-0.6,1.4-1.2,2.1-1.7
	c0.6,0,1.2,0.1,1.8,0.3c3.5,0.7,6.9,1.4,10.4,2.1c-4.2-4-6.6-9.6-6.5-15.4c-0.2-5.4,1.8-10.6,5.5-14.5c0.6-0.7,1.1-1.5,2.1-1.7
	c0.1,0.1,0.1,0.2,0.1,0.3c-0.1,0.4-0.4,0.9-0.7,1.2c-2.9,3.7-4.5,8.3-4.3,13c0,5.1,1.9,9.9,5.3,13.7c2.7,2.9,6.2,4.8,10,5.6
	c6.8,1.5,13.9,0.6,20.2-2.6c0.2-0.2,0.5-0.3,0.8-0.2c0.2,0,0.3,0.2,0.3,0.4c-0.1,0.3-0.4,0.6-0.7,0.8c-3,2-6.3,3.3-9.8,4
	c-0.2,0-0.5,0-0.7,0c2.5,0.3,5.1,0.9,7.7,1.5c6.7,1.4,13.4,2.8,20.1,4.2c11.7,2.4,23.4,4.8,35.1,7.3c10.2,2.1,20.4,4.2,30.6,6.3
	c10.3,2.1,20.6,4.3,30.9,6.4c1.9,0.5,3.9,0.6,5.9,0.2c1.8-0.2,3.1-1.8,2.9-3.6c0-0.1,0-0.2-0.1-0.3c-0.3-2.6-1.2-5.2-2.5-7.4
	c-3-5.5-6.1-10.9-9.1-16.4C205.4,72.4,205.1,72.1,205.3,71.6z"/>
<path class="st2" d="M80.4,29.4c3.7-0.7,7.5-1.5,11.2-2.2l34.9-6.7l37.9-7.2l46.1-8.8c4.4-1,8.9-1.6,13.5-1.9
	c1.8-0.2,3.7,0.1,5.4,0.7c2,0.6,3.2,2.7,2.6,4.8c-0.3,1.6-1,3.1-1.9,4.4c-1.7,2.5-3.5,4.8-5.6,7c-4,4.5-8.1,9-12.1,13.5
	c0-0.3,0-0.7,0.1-1c0.3-1,0-1.5-1.1-1.6c0-0.7,0.5-1.1,0.9-1.5c3.1-3.4,6.2-7,9.4-10.4c2.3-2.4,4.3-4.9,6.2-7.6
	c0.6-0.8,1-1.8,1.4-2.7c0.4-1.4,0-2.1-1.4-2.4c-1.2-0.3-2.4-0.4-3.6-0.4c-3.3,0.2-6.5,0.7-9.8,1.3l-36.6,7l-42.9,8.2
	c-10.2,2-20.4,3.9-30.6,5.8l-11.8,2.3c-0.4,0.1-0.8,0.1-1.2,0.1c-2,0-4-0.5-6.1-0.4c-1.4,0.2-2.8,0.2-4.1,0.2
	C80.7,29.7,80.4,29.7,80.4,29.4z"/>
<path class="st1" d="M47.8,70l23.7,4.9l42.6,8.8l28,5.8l56,11.6c3.7,0.8,7.3,1.5,11,2.2c2,0.4,4.1,0.4,6.1,0
	c2.7-0.5,4.7-2.7,4.8-5.4c0.2-0.1-0.1-0.5,0.3-0.6c0.4,4.3-2.2,7.2-6.7,7.5c-2.9,0-5.8-0.3-8.6-1c-12.8-2.6-25.7-5.3-38.4-7.9
	L130,88.4L74.9,77.2L64.4,75c-0.9,0.1-1.7,0-2.5-0.3c-0.6-0.1-1.3-0.1-1.9,0.1c-7.6,2.6-15.1,5.3-22.7,7.9
	c-4.2,1.4-8.4,2.9-12.5,4.4c-2.3,0.8-4.8,1-7.2,0.7c-1.4-0.1-2.6-0.8-3.5-1.8c-0.8-0.7-1.2-1.7-1.1-2.7c-0.2-3,1.1-6,3.3-8
	c1.5-1.5,3-2.9,4.4-4.4c0.8,0,1.7,0.3,2.2,1c-0.6,1-1.5,1.9-2.4,2.6c-1.3,1.1-2.6,2.4-3.6,3.8c-0.6,0.9-1.1,1.9-1.3,3
	c-0.4,2.2,0.6,3.6,2.8,3.8c1.9,0.2,3.8,0,5.6-0.7c5.2-1.9,10.4-3.7,15.6-5.5s10.5-3.7,15.8-5.6c0.3-0.1,0.5-0.1,0.8-0.2
	c0.1,0-0.1-0.1,0,0s0,0.1-0.1,0.1c-0.4,0-0.8,0-1.2-0.2c-2.5-0.5-5-1-7.5-1.5c-0.5-0.1-1.2-0.1-1.1-1C46.7,70.4,47.1,69.8,47.8,70z"
	/>
<path class="st3" d="M116,20.1c-3.2,1.1-6.4,0.8-9.8,0.2c-9.9-2-19.8-3.8-29.8-5.7l-19.8-3.8L23.9,4.4C20.4,3.8,16.9,3,13.3,2.6
	c-2.8-0.5-5.6-0.5-8.3,0.1C2.2,3.3,1.2,4.5,1,7.3c-1-1.8-0.4-4,1.3-5.1C3.7,1.3,5.4,0.8,7,0.7c4.6-0.6,9.1,0.2,13.6,1.1
	C29.1,3.4,37.6,5,46,6.6l19,3.7l24.3,4.6l20.1,3.9C111.6,19.2,113.8,19.6,116,20.1z"/>
<path class="st2" d="M22.7,72.1l-2.1-1c-0.5-0.3-1.1-0.6-1.6-0.9s-0.5-0.5-0.2-0.9c0.7-1.1,1.4-2.2,2-3.4c1.2-1.6,1.2-1.6-0.4-2.4
	c-4.7-2.5-7.4-7.6-6.7-12.8c1-5.4,5.3-9.7,10.7-10.6c0.9,0,1.8-0.6,2.1-1.5c0.4-0.8,1-1.6,1.5-2.4c0-0.1,0-0.3,0.1-0.4
	c0.3-0.4,0.7-0.8,1.2-1.1c0.3-0.2,0.5-0.5,0.9-0.3c0,0.1,0,0.2,0,0.3c-0.6,1.3-1.5,2.4-2,3.7c-1.7,4.3-0.7,10.3,3.1,13.5
	c2,1.5,4.2,2.7,6.6,3.6c1.1,0.4,2.2,0.9,3.2,1.5c1.1,0.9,1.6,2.4,1.2,3.8c-0.2,1.2-1.3,2.1-2.5,2.1c-0.3-0.5-0.4-1-0.2-1.5
	c0.1-1.1-0.6-2.1-1.6-2.4c-1.6-0.7-3.3-1.4-4.9-2.1c-3.5-1.6-6.4-3.7-7.7-7.5c-0.7-1.8-0.9-3.8-0.8-5.7c0-0.5,0-0.8-0.6-0.6
	C20.6,44,18,46,16.8,49.5c-1.3,4,0.2,8.3,3.6,10.7c0.5,0.4,1,0.7,1.6,1c0.6,0.3,1.1,0.5,1.7-0.1s1.1-0.1,1.8,0.9
	c0,0.4-0.2,0.8-0.4,1.1c-0.9,1.5-1.8,3-2.8,4.4c-0.5,0.9-0.5,1,0.3,1.5c4.8,2.7,10.2,4,15.7,3.7c2.3-0.1,4.5-0.6,6.6-1.5
	c0.4-0.2,0.9-0.6,1.4-0.2c0,0.5-0.5,0.8-0.8,1c-2.2,1.4-4.6,2.3-7.2,2.6c-5,0.6-10-0.1-14.6-1.9C23.3,72.6,22.9,72.4,22.7,72.1z"/>
<path class="st3" d="M12.8,83.5c1.1,3.1,2.7,4.3,6.1,4.4c2.1,0,4.1-0.3,6.1-1c11.7-4.1,23.4-8.2,35.2-12.3c0.5-0.2,1-0.2,1.4-0.1
	c0.9,0.2,1.9,0.4,2.8,0.6l-13.1,4.7c-8.8,3.1-17.7,6.3-26.5,9.4c-2.7,1-5.6,1.2-8.4,0.5c-2.5-0.5-4.2-2.9-3.7-5.4
	C12.7,83.9,12.7,83.7,12.8,83.5z"/>
<path class="st2" d="M202.4,61.3c-0.9,0.3-1.8,0.4-2.7,0.4c-0.2,0-0.4-0.2-0.4-0.3c-1.5-2.3-2.5-4.8-3.1-7.4c-0.4-1.9-0.2-4,0.5-5.8
	c0.7-1.7,1.5-3.3,2.4-4.9c-1.7-0.1-3.4,0.2-4.9,0.9c-0.3,0.2-0.6,0.3-1,0.3c-0.2,0-0.3-0.1-0.3-0.3c2.7-3.1,6.2-3.9,10.1-3.5
	c2.3,0.2,4.4,0.8,6.4,1.9c-0.1,0.8-0.2,1.7-0.3,2.5c0,0.6-0.2,0.7-0.8,0.4c-1.5-0.8-3.1-1.4-4.8-1.9c-0.4-0.1-0.7-0.3-1.1,0.1
	c-2.2,2.4-3.7,5.2-3.7,8.5c0.1,2.1,0.8,4.1,1.9,5.9C201.3,59.2,201.9,60.3,202.4,61.3z"/>
<path class="st4" d="M220.3,97.3l-0.3,0.6v-2C220.2,96.3,220.3,96.8,220.3,97.3z"/>
<path class="st1" d="M91.2,29.8l26.3-5l28.4-5.4l31.8-6.1l36.7-7c3.2-0.6,6.4-1.1,9.7-1.2c1.3-0.1,2.7,0,4,0.4
	c1.4,0.4,1.7,1.1,1.3,2.5c-0.8,2.3-2.1,4.4-3.8,6.2c-4.6,5.3-9.3,10.5-13.9,15.7c-0.1,0.2-0.3,0.3-0.4,0.5c-1.9-0.2-3.9-0.5-5.9-0.7
	c-6.7-0.5-13.2,0.2-18.9,4.2c-1.3,1-2.6,2.1-3.8,3.2c-0.3,0.2-0.4,0.6-0.7,0.8c-3.9,4-6.3,9.2-6.8,14.8c-0.5,3.8-0.2,7.6,1,11.2
	c1.7,5.2,6.1,9.2,11.4,10.3c4.9,1.2,9.9,1,14.7-0.6c1-0.2,1.8-0.8,2.2-1.7l0.8-0.3c3.1,5.6,6.2,11.2,9.3,16.8
	c1.4,2.3,2.4,4.9,2.8,7.6c0.4,3.3-1,4.8-4.3,5c-2.2,0-4.5-0.2-6.6-0.8l-42-8.7L115,81.3L84.4,75c-0.3-0.1-0.6-0.2-1-0.3
	c4.3-0.6,8.3-2.3,11.8-4.9c0.2-0.4,0.5-0.7,0.8-1c1.8-1.4,3.4-2.9,4.9-4.7c2.3-3.1,3.8-6.8,4.1-10.6c0.5-4.4,0-8.8-1.6-12.9
	c-1.8-5-6-8.8-11.1-10.1C91.9,30.4,91.4,30.3,91.2,29.8z"/>
<path class="st1" d="M193.2,44.4c2-1.1,4.4-1.6,6.7-1.3c-0.8,1-1.5,2.2-2,3.4c-2.1,3.8-1.8,7.6,0,11.4c0.6,1.3,1.3,2.6,2,3.9
	c-4.5,0.8-8.8-0.5-9.9-4.7c-0.5-2-0.5-4-0.1-6c0.3-2.2,1.2-4.3,2.5-6.1C192.6,44.7,192.8,44.5,193.2,44.4z"/>
<path class="st2" d="M204.6,71.9c0.1,0.7-0.3,1.1-0.9,1.4c-2,0.9-4,1.4-6.2,1.6c-3.5,0.5-7.1,0.3-10.5-0.6
	c-6.1-1.8-10-5.8-11.4-11.9c-1.7-6.9-0.7-14.3,3-20.5c0.9-1.6,2.1-3,3.5-4.2c0.2-0.1,0.3,0,0.2,0.2c-5,7.1-6.1,14.9-4.2,23.1
	c1.6,7,6.4,10.9,13.4,12C195.9,73.7,200.4,73.3,204.6,71.9z"/>
<path class="st5" d="M193.2,44.4l-0.8,0.6c0.1-0.3,0.3-0.6,0.6-0.8L193.2,44.4z"/>
<path class="st6" d="M182.3,37.8l-0.2-0.2c0.1-0.3,0.4-0.5,0.7-0.5C182.8,37.4,182.6,37.7,182.3,37.8z"/>
<path class="st3" d="M30.2,34.3c-0.7,0.5-1.4,1-2,1.6c-0.7-0.1-0.9-0.7-1.4-1c-6-6.4-12.1-12.7-18.1-19.1c-1.8-1.9-3.4-4-4.6-6.2
	C2.4,6.4,3,5.1,6.5,4.6c2.7-0.3,5.4-0.2,8,0.4c7.5,1.2,14.8,2.8,22.3,4.2c10.8,2.1,21.7,4.1,32.5,6.2L98.6,21c2,0.4,4,0.8,6.1,1.3
	L55,31.8c-0.5,0.2-0.8-0.1-1.2-0.3c-5.9-2.7-12.7-2.8-18.7-0.3c-1.5,0.7-2.9,1.6-4.1,2.8C30.8,34.1,30.5,34.2,30.2,34.3z"/>
<path class="st0" d="M30.8,33.8c3.3-3.3,7.5-4.3,11.9-4.7c4.3-0.4,8.6,0.5,12.4,2.6c0.1,0.1,0.3,0.2,0.5,0.3c0.9,0.4,1.2,1,0.5,1.8
	c0,0.7-0.6,1.1-0.9,1.7s-0.6,0.9-0.9,1.4c-0.7,0.9-1.3,1.9-1.9,2.8c-0.2,0.6-0.9,0.9-1.5,0.6c-0.1,0-0.1-0.1-0.2-0.1
	c-2-1-4.1-1.7-6.3-2.2c-1.6-0.4-3.3,0.1-4.4,1.3c-0.2,0.2-0.3,0.4-0.4,0.6c-0.1,0.3-0.3,0.7-0.4,1c-0.4,1.1,0,2.3,1,2.9
	c1.8,1.1,3.7,2,5.7,2.7c3.3,1.6,6.2,3.7,7.5,7.3c1.7,4.3,1,9.2-1.9,12.9c-0.3,0.4-0.7,0.8-1.2,1L47.8,70c-0.6,0.1-0.9,0.8-1.5,0.9
	c0,0.1-0.1,0.1-0.1,0.1c-3.3,1.5-6.8,2.2-10.4,2c-4.9-0.2-9.6-1.6-13.8-4c-0.6-0.3-0.6-0.6-0.3-1.1c1.2-1.9,2.4-3.9,3.6-5.9
	c0.2-0.8,0.6-1.5,1.2-2.2c0.3-0.4,0.7-0.4,1.1,0c2,1.6,4.5,2.7,7.1,2.9c1.4,0.2,2.8,0.2,4.2,0c0.3-0.1,0.7-0.1,1,0
	c1.8-0.4,2.9-2.2,2.5-4c-0.1-0.3-0.2-0.6-0.3-0.9c-0.3-0.5-0.7-0.8-1.3-1c-1.7-0.8-3.4-1.6-5.1-2.3c-9.5-3.9-10.2-14.2-5.3-20.1
	C30.4,34.3,30.6,34,30.8,33.8z"/>
<path class="st2" d="M54.1,36.8c0.6-1.1,1.3-2.1,2-3l10.2-1.9l14.1-2.7l0.4,0.2c-0.1,0.4-0.4,0.4-0.7,0.4c-3.6,0.6-7.1,2-10.3,3.9
	c-0.3,0.2-0.6,0.3-1,0.4c-4.3,0.9-8.6,1.7-13,2.5C55.3,37,54.7,37.3,54.1,36.8z"/>
<path class="st7" d="M26.9,34.8c0.6,0.1,0.8,0.8,1.4,1l-0.2,0.3C27.6,35.7,27.2,35.3,26.9,34.8z"/>
<path class="st0" d="M69,34.1c2.9-1.9,6.2-3.2,9.6-4.1l2.3-0.5c2.7,0,5.3-0.5,8,0c0.8,0.1,1.6,0.2,2.3,0.3c2.7,0.6,5.2,1.9,7.4,3.6
	c3.2,2.7,5.3,6.3,6.1,10.4c1.3,5.2,1,10.6-0.8,15.6c-1.3,3.5-3.7,6.6-6.8,8.7c-0.4,0.3-0.6,0.8-1.2,1c-0.3,0.1-0.6,0.5-1,0.5
	c-5.2,2.8-11.1,4-17,3.6C66.8,72.5,59.6,65.3,58.6,55c-0.7-5.8,1.1-11.7,5-16.1c0.1-0.3,0.3-0.6,0.5-0.8
	C65.4,36.5,67.1,35.1,69,34.1z"/>
<path class="st1" d="M69,34.1c-1.6,1.1-3.1,2.4-4.5,3.7c-0.1,0.1-0.2,0.3-0.3,0.4s-0.3,0.3-0.6,0.3c-4.7,4.2-7.4,9.4-7.4,15.8
	s2.1,11.8,6.9,16.2l-12.9-2.7c2.4-2.5,3.7-5.8,3.7-9.3c0.1-4.1-2-8-5.5-10.2c-1.9-1.1-3.8-2.1-5.8-2.8c-0.8-0.3-1.5-0.7-2.3-1.2
	c-1.6-1.1-1.9-2-1.3-3.8c0.1-0.3,0.2-0.5,0.4-0.8c0.3-0.2,0.5-0.3,0.8-0.4c1.7-0.1,3.4,0.2,5,0.9c1.1,0.4,2.2,0.8,3.2,1.4
	c0.4,0.3,0.9,0.3,1.2-0.1c0.1-0.1,0.1-0.2,0.2-0.3c0.3-0.4,0.5-1,1-1.1c0.7,0.3,1,0.1,1.4-0.5c0.6-1,1.3-1.9,1.9-2.8l12.2-2.3
	L69,34.1z"/>
<path class="st8" d="M95,69.6c0.3-0.3,0.6-0.5,1-0.5c-0.2,0.3-0.4,0.6-0.8,0.7L95,69.6z"/>
<path class="st9" d="M63.6,38.5c0.1-0.2,0.3-0.4,0.6-0.3c-0.1,0.3-0.3,0.5-0.6,0.6L63.6,38.5z"/>
<path class="st3" d="M46.2,71c0-0.1,0.1-0.1,0.1-0.1c0,0,0,0,0,0c-0.1,0.6,0.4,0.5,0.7,0.6l8.4,1.7c0.3,0.1,0.6,0.1,1.1,0.3
	l-6.2,2.2L23.8,85c-1.8,0.6-3.7,0.9-5.6,0.7c-2.5-0.2-3.6-1.8-3.1-4.2c0.4-1.7,1.3-3.3,2.7-4.5c1.6-1.6,3.3-3.2,4.9-4.8
	c4.3,1.8,9,2.7,13.6,2.5c3.3-0.1,6.4-1.1,9.2-2.9C45.8,71.5,46.1,71.4,46.2,71z"/>
<path class="st1" d="M39.8,62.7c-2.3,0.6-4.8,0.6-7.1-0.1c-2-0.4-3.9-1.3-5.4-2.7c-0.4-0.4-0.6-0.3-0.8,0.1
	c-0.4,0.6-0.8,1.3-1.2,1.9L24,61c-0.1,0-0.1,0-0.2,0.1c-0.4,1-1,1-1.9,0.5c-5.2-2.7-7.3-8.3-5-13.2c1.6-3.3,4.5-5,8.1-5.9
	c-0.3,1.8-0.2,3.7,0.2,5.4c0.8,3.7,3.2,6.1,6.3,7.9c1.9,1,4,1.7,5.9,2.6C39.8,59.5,40.2,60.2,39.8,62.7z"/>
<path class="st10" d="M30.8,33.8c-0.1,0.3-0.3,0.5-0.6,0.6v-0.3C30.3,34,30.6,33.8,30.8,33.8z"/>
<path class="st0" d="M122.5,51.6c-0.5,2.6-0.9,5.2-1.4,7.8c-0.7,3.9-1.3,7.9-2,11.8c-0.1,0.5-0.3,0.6-0.8,0.6s-0.8,0-1.2,0
	c-0.4,0.2-0.8,0.3-1.2,0.2c-2.2,0-4.4,0-6.6,0c-1.4,0-1.7-0.3-1.4-1.6c1.5-9.6,3-19.2,4.5-28.8c0.4-2.5,0.8-5,1.2-7.5
	c0-0.5,0.2-1,0.5-1.4c0,0,0-0.1,0-0.1c0.5-1.7,0.5-1.7,2.3-1.7c2.7,0,5.4,0,8.1,0c0.7-0.1,1.3,0.4,1.6,1c4,6.8,8,13.6,12,20.5
	c0.1,0.2,0.3,0.4,0.5,0.6c0.7,0.4,0.8,1.3,1.4,1.8c0.6-3.6,1.1-7.2,1.7-10.8c0.5-3.4,1-6.8,1.6-10.2c0.1-0.3,0-0.7,0.4-1
	c0.5-1.8,0.5-1.8,2.5-1.8c2.6,0,5.3,0,7.9,0c0.8,0,1,0.2,0.9,1c-0.6,3.5-1.1,7.1-1.6,10.6c-0.8,5.4-1.7,10.7-2.5,16.1
	c-0.6,4-1.3,8-1.8,12c-0.2,1.5-1.2,0.9-2,1.1c-0.3,0.1-0.6,0.1-0.9,0c-2.5,0-5,0-7.5,0c-0.8,0.1-1.6-0.4-2-1.2
	c-4-7.1-8-14.2-12.1-21.3c-0.2-0.5-0.5-1-0.8-1.4C122.9,49.2,123.1,50.5,122.5,51.6z"/>
<path class="st0" d="M162.2,32.6c0.5-1.8,0.5-1.8,2.6-1.8c2.9,0,5.7,0,8.6,0c0.7,0,0.9,0.1,0.8,0.9c-1.3,7.9-2.5,15.8-3.8,23.7
	c-0.8,5.2-1.6,10.4-2.4,15.5c-0.1,0.6-0.3,0.9-0.9,0.8c-0.3,0-0.6,0-0.9,0c-0.3,0.2-0.7,0.3-1.1,0.2c-2.5,0-4.9,0-7.4,0
	c-1.4,0-1.6-0.2-1.4-1.6c0.9-6,1.9-12.1,2.8-18.1s1.9-12,2.8-18C161.7,33.6,161.9,33,162.2,32.6z"/>
<path class="st2" d="M113.9,32.7c-0.4,2.9-0.8,5.7-1.3,8.6c-1.1,7.5-2.3,14.9-3.5,22.4c-0.4,2.4-0.7,4.8-1.1,7.2c-0.1,0.7,0,1,0.8,1
	c2.8,0,5.5,0,8.3,0c-0.2,1.8-0.2,1.8-2,1.8c-2.8,0-5.7,0-8.5,0c-0.7,0-0.9-0.1-0.8-0.9c1.6-10,3.1-20,4.7-30.1
	c0.5-3.1,1-6.1,1.4-9.2c0.1-0.7,0.3-1,1-0.9C113.3,32.7,113.6,32.8,113.9,32.7z"/>
<path class="st2" d="M122.5,51.6l0.6-4.1c0.5,0,0.5,0.4,0.6,0.7c4.3,7.5,8.5,15,12.7,22.5c0.3,0.7,1.1,1.2,1.9,1.1
	c2.8-0.1,5.6,0,8.4,0c-0.3,1.9-0.3,1.9-2.1,1.9c-2.8,0-5.7,0-8.5,0c-0.7,0.1-1.4-0.3-1.7-1c-3.8-6.8-7.7-13.5-11.5-20.3
	C122.8,52,122.6,51.8,122.5,51.6z"/>
<path class="st2" d="M162.2,32.6c-0.3,3-0.9,6-1.3,9c-1.2,8-2.4,15.9-3.7,23.8c-0.3,1.9-0.5,3.7-0.9,5.5c-0.1,0.7,0.1,0.8,0.7,0.8
	c3,0,6,0,9.1,0c-0.4,1.9-0.4,1.9-2.2,1.9c-2.9,0-5.9,0-8.8,0c-0.7,0-0.9-0.2-0.8-0.9c1.5-9.6,3-19.2,4.5-28.8
	c0.5-3.5,1.1-6.9,1.6-10.4C160.6,32.1,161.5,32.7,162.2,32.6z"/>
<path class="st2" d="M143.4,32.7c-0.5,3.4-1,6.9-1.5,10.3c-0.6,3.9-1.2,7.7-1.8,11.6c0,0.3-0.1,0.6-0.2,1l-1.5-2.7
	c0.3-2.4,0.6-4.8,0.9-7.2c0.5-4.1,1-8.1,1.4-12.2c0.1-0.6,0.3-0.9,0.9-0.8C142.3,32.7,142.9,32.7,143.4,32.7z"/>
<path class="st2" d="M50.7,40.2c-0.5,0.7-0.8,1.7-1.5,2s-1.5-0.6-2.3-0.9c-2.1-1.1-4.5-1.6-6.9-1.7c-0.3,0.1-0.5,0.1-0.5-0.3
	c1.1-1.6,2.8-1.7,4.5-1.5C46.5,38.3,48.7,39,50.7,40.2z"/>
<path class="st11" d="M39.7,39.4c0.1,0.2,0.3,0.2,0.5,0.3c-0.2,0.2-0.5,0.2-0.8,0.2C39.4,39.6,39.5,39.5,39.7,39.4z"/>
<path class="st1" d="M87.1,60.5c-3.9,3.2-9.5,3.5-13.7,0.5c-1.8-1.4-2.9-3.4-3-5.7c-0.5-3.9,0.5-7.8,2.9-10.8c0.5-0.6,1.1-1,1.6-1.6
	c1.8-1.2,3.9-1.7,6.1-1.7c4.6,0.1,7.9,2.4,9.2,6.9c1,3.4,1,6.8-0.9,10c-0.4,0.6-0.8,1.1-1.3,1.6c0,0,0,0.1,0,0.1
	C87.6,60.2,87.4,60.4,87.1,60.5z"/>
<path class="st2" d="M87.9,59.8c0.7-1.1,1.4-2.2,1.9-3.4c1.4-3.9,0.8-8.3-1.7-11.6c-2.5-3.4-7.7-4.2-12.2-2.1
	c-0.3,0.2-0.6,0.4-1,0.3c2.6-2.6,6.4-3.7,10-3.1c4,0.7,6.7,3.6,7.5,8c0.9,4.1-0.4,8.4-3.6,11.3C88.6,59.4,88.4,59.8,87.9,59.8z"/>
<path class="st12" d="M87.1,60.5c0.2-0.3,0.4-0.6,0.8-0.6C87.8,60.3,87.5,60.5,87.1,60.5z"/>
<path class="st2" d="M216.2,107.6h0.4l0.4,0.8h0.3l-0.4-0.9c0.1,0,0.2-0.1,0.3-0.2c0.1-0.1,0.1-0.2,0.1-0.3c0-0.2-0.1-0.3-0.2-0.4
	c-0.2-0.1-0.4-0.1-0.6-0.1h-0.7v1.9h0.3L216.2,107.6z M216.2,106.7h0.4c0.1,0,0.2,0,0.3,0.1c0.1,0.1,0.1,0.2,0.1,0.3
	c0,0.1,0,0.2-0.1,0.3c-0.1,0-0.2,0.1-0.3,0.1h-0.4L216.2,106.7z"/>
<path class="st2" d="M215.4,108.6c0.2,0.2,0.3,0.3,0.6,0.4c0.2,0.1,0.4,0.1,0.6,0.1h0.1c0.2,0,0.4,0,0.6-0.1
	c0.2-0.1,0.4-0.2,0.6-0.4c0.2-0.1,0.3-0.3,0.4-0.5c0.1-0.2,0.1-0.4,0.1-0.6c0-0.2,0-0.4-0.1-0.6c-0.1-0.2-0.2-0.4-0.4-0.5
	c-0.2-0.2-0.3-0.3-0.6-0.4c-0.2-0.1-0.4-0.1-0.6-0.1h-0.1c-0.2,0-0.4,0-0.6,0.1c-0.2,0.1-0.4,0.2-0.5,0.4c-0.2,0.2-0.3,0.4-0.4,0.6
	c-0.1,0.2-0.1,0.4-0.1,0.6c0,0.2,0,0.4,0.1,0.6C215.2,108.3,215.3,108.5,215.4,108.6z M215.3,106.9c0.1-0.2,0.2-0.3,0.3-0.5
	c0.3-0.3,0.6-0.4,1-0.4h0.1c0.2,0,0.3,0.1,0.5,0.1c0.2,0.1,0.3,0.2,0.5,0.3c0.1,0.1,0.2,0.3,0.3,0.5c0.1,0.2,0.1,0.4,0.1,0.6
	c0,0.2,0,0.4-0.1,0.6c-0.1,0.2-0.2,0.3-0.3,0.5c-0.1,0.1-0.3,0.3-0.5,0.3c-0.2,0.1-0.3,0.1-0.5,0.1h-0.1c-0.2,0-0.4,0-0.6-0.1
	c-0.2-0.1-0.3-0.2-0.5-0.3c-0.1-0.1-0.2-0.3-0.3-0.5c-0.1-0.2-0.1-0.4-0.1-0.6C215.1,107.3,215.2,107.1,215.3,106.9L215.3,106.9z"/>
</svg>
