<?xml version="1.0" encoding="utf-8"?>
<!-- Generator: Adobe Illustrator 21.1.0, SVG Export Plug-In . SVG Version: 6.00 Build 0)  -->
<svg version="1.1" id="Layer_1" xmlns="http://www.w3.org/2000/svg" xmlns:xlink="http://www.w3.org/1999/xlink" x="0px" y="0px"
	 viewBox="0 0 232.4 67.8" style="enable-background:new 0 0 232.4 67.8;" xml:space="preserve">
<style type="text/css">
	.st0{fill:#FEFEFE;}
	.st1{fill:#E73A36;}
	.st2{fill:#30AE58;}
	.st3{fill:#252122;}
	.st4{fill:#292526;}
	.st5{fill:#E53D38;}
	.st6{fill:#262324;}
	.st7{fill:#272324;}
	.st8{fill:#333031;}
	.st9{fill:#FCFCFC;}
	.st10{fill:#FAFAFA;}
	.st11{fill:#F8F8F8;}
	.st12{fill:#ECECEC;}
</style>
<title>Fast Casual</title>
<path class="st0" d="M199.8,19.1c-0.2,0-0.4,0-0.6,0c-2.1-0.3-4.3-0.5-6.4-0.4c-4.1,0-8.1,1.2-11.5,3.4c-3.7,2.4-6.1,5.9-7.9,9.9
	c-0.2,0.4,0,0.4,0.3,0.4c2,0,3.9,0,5.9,0c0.4,0,0.8-0.2,1-0.5c2.2-2.9,5-5.3,8.3-6.8c5.2-2.5,10.7-2.8,16.3-1.9
	c3.3,0.5,6.4,1.5,9.4,2.9c0.4,0.2,1.1,0.5,1.4,0.1s-0.2-0.9-0.6-1.3c-0.7-0.6-1.5-1.1-2.4-1.4c-0.4-0.1-0.8-0.3-1.2-0.6
	c0.2-0.3,0.1-0.8,0.3-1.1c3.9,0.1,7.6,1.7,10.3,4.5c2.9,2.9,4.3,6.9,4,11c-0.2,2.8-1.1,5.6-2.4,8.1c-3,6.5-8.5,11.5-15.3,13.9
	c-3.1,1.1-6.4,1.7-9.7,2c-2.9,0.3-5.9,0.2-8.8-0.5c-0.3-0.1-0.6-0.1-0.9-0.1c-0.6,0-0.8,0.3-0.5,0.9c0.4,0.6,1,1,1.6,1.1
	c1.1,0.3,2.3,0.4,3.4,0.5c3,0.6,6,0.8,9,0.8c4-0.1,8-0.8,11.9-2c4.2-1.2,7.9-3.6,10.6-6.9c4.3-5.1,6.6-11.6,6.5-18.2
	c0-4.9-2.3-9.6-6.4-12.5c-2.9-2.1-6.3-3.5-9.9-4c-1-0.3-2.1-0.4-3.2-0.4c0.4-2.1,1-4.2,1.9-6.2c0.5-0.9,0.7-2,0.7-3.1
	c0-0.6-0.3-0.7-0.7-0.3c-0.4,0.4-0.8,0.8-1,1.3c-1,1.7-1.8,3.6-2.4,5.5c0,0.4-0.3,0.7-0.6,0.9c0-1,0-2.1,0.1-3.1
	c0.1-1.4,0.5-2.7,0.5-4.1c0-1.4,0.2-2.7,0.8-4c1-2.3-0.2-3.9-2.8-3.7c-1.8,0.2-2.6,0.8-3,2.3c-0.2,0.8-0.4,1.5-0.5,2.3
	c-0.4,3.2-0.9,6.5-0.9,9.7c0,0.1,0,0.3,0,0.4c-0.3-0.8-0.5-1.6-0.6-2.4c-0.3-2.9-0.6-5.8-0.9-8.7c-0.2-1.8-0.6-3.5-1.4-5.2
	c-0.2-0.7-1-1.2-1.7-1c-0.1,0-0.2,0.1-0.3,0.1c-0.9,0.3-1.8,0.8-2.4,1.6c-1.5,1.7-1.8,2.1-0.3,4.2c0.9,1.3,1.4,2.8,1.5,4.3
	C198.6,13.7,199.5,16.3,199.8,19.1z M10.2,36.8c-1.2,0.1-2.4,0-3.6-0.3c-1-0.2-1.6-1.1-1.4-2.1c0-0.2,0.1-0.4,0.2-0.5
	c0.5-1,1.1-1.9,2-2.5c1-0.9,2.3-1.3,3.6-1.1c0.8,0.1,1.6,0.1,2.4,0.1c0.9,0.1,1.8-0.5,1.9-1.5c0-0.3,0-0.6-0.1-0.8
	c-0.1-0.3-0.1-0.5-0.2-0.8c-0.2-0.7-1-1.2-1.7-1.2c-2,0.1-4,0.6-5.8,1.6c-2.7,1.3-4.5,3.8-4.9,6.7c-0.5,2.4,1,4.8,3.4,5.3
	c0.3,0.1,0.6,0.1,1,0.1c1.4,0,2.9-0.1,4.3-0.2c2.3-0.2,4.6-0.1,6.9,0.3c0.6,0,1.2,0.4,1.4,1c0.1,0.7-0.2,1.3-0.8,1.7
	c-0.6,0.5-1.3,0.8-2,1.1c-2.3,0.8-4.6,1.2-7,1.2C8,45,6.3,44.6,4.9,43.7c-0.9-0.6-1.9-0.8-3-0.8c-0.6,0-1.1,0.1-1.3,0.8
	c-0.2,0.6,0,1.2,0.5,1.6c0.5,0.4,1,0.7,1.6,0.9c4.5,1.7,9.5,1.7,14.1,0.1c1.8-0.5,3.4-1.5,4.8-2.8c1.9-2,1.5-6.5-2-7
	c-0.4-0.1-0.9-0.1-1.3-0.2C15.6,36.5,12.9,36.6,10.2,36.8z M123,41c0,1.7-0.1,3.5-0.3,5.2c-0.1,1-0.3,1.9-0.5,2.8
	c-0.1,0.7,0.1,1.1,0.5,1.2c1.1,0.2,2.2-0.3,2.7-1.3c0.4-0.9,0.6-2,0.6-3c0-2.2-0.1-4.3-0.4-6.5c-0.2-1.8-0.3-3.6-0.3-5.3
	c0.1-1,0.2-1.2,1.2-1.4c0.7-0.2,1.5-0.3,2.2-0.3c0.3,0,0.7-0.1,0.8-0.5s-0.2-0.7-0.5-0.9c-0.3-0.1-0.7-0.2-1-0.3
	c-0.9-0.1-1.7-0.1-2.6-0.3c-0.8-0.1-1.4-0.7-1.5-1.5c-0.1-0.5-0.2-1.1-0.2-1.7c0-0.6-0.2-1.3-0.5-1.8c-0.4-0.6-1.3-0.9-2-0.7
	c-0.5,0.2-0.7,0.5-0.5,1.5s0.3,1.6,0.4,2.3c0.2,1.1-0.5,2.1-1.5,2.4c-0.1,0-0.1,0-0.2,0c-0.9,0.2-1.8,0.4-2.7,0.5
	c-0.7,0.1-1.5,0.2-2.2,0.5c-0.3,0.1-0.6,0.5-0.6,0.9c0,0.3,0.3,0.6,0.6,0.7c0.2,0.1,0.5,0.2,0.7,0.2c1.5,0.2,3,0.2,4.5-0.1
	c1.8-0.2,2.2,0,2.8,1.8c0,0.1,0,0.1,0,0.2C122.9,37.3,123.1,39.1,123,41z M152.8,43.6c0,2-0.2,4-0.5,5.9c-0.2,0.8-0.3,1.7-0.3,2.6
	c0,0.8,0.7,1.4,1.5,1.4c0.2,0,0.4-0.1,0.6-0.2c0.5-0.2,0.9-0.5,1.1-1c0.3-0.7,0.5-1.4,0.6-2.2c0.1-2.5,0-5.1-0.3-7.6
	c-0.3-1.9-0.4-3.9-0.3-5.8c0.1-1.2,0.2-1.3,1.4-1.6c0.6-0.1,1.3-0.2,1.9-0.3c0.3,0,0.7-0.1,0.8-0.5c0-0.4-0.2-0.7-0.6-0.8
	c-0.3-0.1-0.6-0.2-0.9-0.2c-0.7-0.1-1.4-0.2-2.1-0.2c-1.1,0-2-0.8-2.1-1.9c-0.1-0.4-0.1-0.9-0.2-1.3c0-0.6-0.2-1.1-0.4-1.6
	c-0.4-0.7-1.2-1-2-0.8c-0.5,0.2-0.6,0.6-0.5,1.5c0.1,0.6,0.2,1.2,0.3,1.9c0.4,1-0.2,2.2-1.2,2.6c-0.2,0.1-0.3,0.1-0.5,0.1
	c-0.7,0.2-1.4,0.3-2,0.4c-0.9,0.1-1.8,0.3-2.7,0.6c-0.4,0.1-0.6,0.4-0.6,0.8c0,0.4,0.3,0.6,0.6,0.8c0.4,0.1,0.7,0.2,1.1,0.3
	c1.4,0.1,2.7,0,4.1-0.2c1.8-0.2,1.7-0.4,2.6,1.6c0.1,0.2,0.1,0.3,0.1,0.5C152.8,40.1,152.9,41.9,152.8,43.6L152.8,43.6z M63.1,48.5
	c0-0.6,0-1.2,0-1.8c0-0.9,0-0.9,0.8-0.7c0.1,0,0.3,0,0.4,0c1.7,0.1,3.4-0.2,5-0.8c2.3-0.8,3.9-3.1,3.7-5.5c-0.1-2.5-1.9-4.5-4.3-4.9
	c-1.5-0.3-3-0.3-4.5,0c-0.4,0-0.9,0.3-1.1,0.6c-0.6,0.8-1.2,1.7-1.6,2.6c-1,2.6-1.4,5.4-1.4,8.2c0.1,0.9,0.1,1.7,0,2.6
	c-0.2,0.6-0.3,1.3-0.4,1.9c-0.3,1.1,0,2.2,0.7,3.1c0.2,0.2,0.3,0.3,0.6,0.2c1-0.3,1.8-1.1,2.1-2.2C63.2,50.7,63.2,49.6,63.1,48.5
	L63.1,48.5z M101.2,44.6c-0.1-0.7-0.3-1.3-0.8-1.8c-1.1-1.5-2-3.1-2.8-4.8c-0.5-1-1.1-2-1.9-2.8c-2.1-2-5.8-2.2-7.6,0.9
	c-1.5,2.5-2.8,5.2-4,7.9c-0.3,0.6-0.5,1.3-0.6,1.9c0,0.4,0.1,0.8,0.6,1c0.9,0.3,1.9-0.1,2.3-1c0.1-0.3,0.3-0.6,0.4-0.9
	c0.2-1,1-1.7,1.9-2c1.9-0.7,3.8-1.2,5.8-1.6c0.6-0.2,1.2,0.1,1.6,0.6c0.5,0.7,1,1.4,1.4,2.2c0.4,0.7,0.9,1.3,1.5,1.9
	c0.4,0.3,0.9,0.4,1.3,0.2C101,45.9,101.3,45.3,101.2,44.6z M136.8,33.8c-1.3,0.1-2.6,0.8-3.3,1.9c-1.8,2.7-3.3,5.6-4.5,8.7
	c-0.2,0.5-0.4,1-0.4,1.5c-0.1,0.5,0,0.9,0.6,1.1c0.9,0.3,1.9-0.1,2.3-1c0.2-0.5,0.4-1,0.6-1.4c0.2-0.5,0.5-0.9,1-1.2
	c2.2-0.9,4.4-1.6,6.7-2c0.5-0.1,1,0.1,1.3,0.6c0.5,0.7,0.9,1.4,1.4,2.1c0.4,0.7,0.9,1.3,1.4,1.8c0.7,0.5,1,0.5,1.6,0.2
	c0.6-0.3,0.9-1,0.7-1.6c-0.2-0.7-0.5-1.4-1-2c-0.6-0.9-1.2-1.8-1.7-2.8c-0.5-1.1-1-2.1-1.7-3.1C140.7,34.8,138.8,33.7,136.8,33.8
	L136.8,33.8z M57.1,42c0.1-0.5,0-1.1-0.2-1.6c-0.8-1.4-2.1-2.5-3.7-3c-0.8-0.3-1.7-0.1-2.3,0.5c-0.5,0.6-0.9,1.2-1.3,1.9
	c-0.8,1.3-1.9,2.6-3,3.7c-0.9,0.8-1.4,0.8-2.1-0.2c-0.8-1.1-1.2-2.3-1.3-3.6c0-1.4-1.2-2.6-2.6-2.6c-1-0.1-1.6,0.3-1.6,1.2
	c0,1.3,0.2,2.5,0.8,3.7c0.8,1.8,2.1,3.3,3.8,4.3c1.3,0.8,3,0.8,4.2,0c1.7-1.2,3.2-2.8,4.3-4.5c0.2-0.4,0.5-0.6,0.9-0.8
	c0.5-0.2,0.6-0.1,0.6,0.4s-0.2,1.2-0.3,1.9c-0.2,0.6-0.2,1.2,0.1,1.8c0.4,0.6,0.9,1.2,1.5,1.7c1.3,1,1.7,1,2.9-0.1
	c0.6-0.4,0.7-1.3,0.3-1.9c0-0.1-0.1-0.1-0.1-0.1C57.3,43.9,57,42.9,57.1,42L57.1,42z M188.3,38.4c0-0.6,0-1.2-0.1-1.7
	c-0.1-0.3-0.3-0.6-0.6-0.7c-1.3-0.3-2.7,0.4-3.2,1.7c-0.1,0.2-0.1,0.4,0,0.6c0.4,1,0.6,2,0.6,3c0.2,1.3,0,2.7-0.6,3.9
	c-0.4,0.8-0.3,0.8,0.4,1.3l0.3,0.2c0.9,0.5,2,0.2,2.6-0.6c0.5-0.7,1-1.5,1.4-2.3c0.5-1,1.1-1.9,1.9-2.7c0.5-0.5,1.3-0.8,2-0.7
	c0.8,0.1,1.5,0.3,2.2,0.6c0.5,0.2,0.9,0.6,1.1,1.1c0.4,0.9,0.7,1.7,0.9,2.6c0.1,0.5,0.4,1.1,0.7,1.5c0.4,0.5,1.1,0.7,1.7,0.4
	c0.6-0.2,0.7-0.7,0.7-1.2s0-1.2,0-1.8c-0.1-2.8-2.1-5.2-4.9-5.9c-0.4-0.1-0.9-0.2-1.4-0.3c-2.2-0.4-4.5,0.6-5.7,2.5
	c-0.1,0.1-0.1,0.2-0.2,0.2s-0.1-0.2-0.1-0.3C188.2,39.5,188.3,38.9,188.3,38.4L188.3,38.4z M107.2,38.6c0-0.6,0-1.2-0.1-1.8
	c-0.1-0.3-0.3-0.6-0.7-0.7c-1.3-0.2-2.6,0.5-3.1,1.7c-0.1,0.2-0.1,0.5,0,0.7c0.4,1.1,0.6,2.3,0.6,3.6c0.1,1.2-0.1,2.3-0.6,3.4
	c-0.4,0.9-0.4,0.9,0.4,1.4c0.8,0.5,1.8,0.5,2.6-0.2c0.4-0.4,0.7-0.9,1-1.4c0.5-1.2,1.2-2.4,2-3.5c1.5-1.4,3.9-1.4,5.4,0
	c0.1,0.2,0.3,0.3,0.3,0.5c0.4,0.8,0.6,1.6,0.9,2.5c0.1,0.8,0.5,1.5,1,2c0.5,0.4,1.1,0.5,1.6,0.2c0.4-0.2,0.7-0.6,0.6-1.1
	c0.1-1.2,0-2.3-0.2-3.5c-0.4-1.3-1.3-2.5-2.5-3.2c-1.5-1.1-3.3-1.5-5.2-1.3c-1.7,0.1-3.2,1.1-4,2.6c-0.1,0.1-0.1,0.2-0.3,0.2
	s-0.1-0.2-0.1-0.3C107.2,39.7,107.2,39.1,107.2,38.6L107.2,38.6z M30.2,36.2c-1.5,0-3,0.5-4.2,1.5c-1.6,1.4-2.1,3.7-1,5.6
	c2,2.8,5.6,4,8.9,2.9c2-0.8,3.3-2.8,3.3-5c-0.1-2.1-1.5-3.9-3.6-4.4C32.6,36.3,31.4,36.1,30.2,36.2z M176,46.4
	c3.1,0.1,5.9-2,6.5-5.1c0.5-2.7-0.8-4.7-3.3-5.2c-1-0.1-2-0.1-2.9,0.1c-2.4,0.3-4.3,1.5-5.1,3.9c-1,2.3,0.1,4.9,2.3,5.8
	c0.3,0.1,0.6,0.2,0.9,0.3C174.9,46.3,175.4,46.3,176,46.4L176,46.4z M78.3,46.3c1,0,1.9-0.5,2.5-1.2c0.4-0.4,0.4-1,0-1.4
	c-0.1-0.2-0.3-0.3-0.5-0.3c-0.6-0.1-1.1-0.5-1.2-1.1c-0.1-0.2-0.1-0.5-0.2-0.7c-0.6-2.9-0.8-5.9-1.3-8.8c-0.1-1.1-0.3-2.2-0.6-3.3
	c-0.3-0.6-0.5-0.8-1.2-0.6c-0.5,0.2-1,0.4-1.4,0.6c-0.5,0.2-0.8,0.7-0.7,1.3c0,0.1,0,0.1,0.1,0.2c0.2,0.4,0.3,0.7,0.4,1.2
	c0.1,1.5,0.3,3,0.6,4.5c0.2,2.4,0.6,4.7,1.2,7c0.2,0.5,0.3,1.1,0.2,1.7c-0.1,0.3,0.1,0.5,0.4,0.7C77.1,46.2,77.7,46.4,78.3,46.3z
	 M165.5,35.5c-0.8-0.1-1.7,0.1-2.4,0.5c-0.6,0.4-0.7,0.6-0.2,1.2c0.3,0.3,0.5,0.6,0.6,1c0.5,2.6,0.8,5.1,0.9,7.8
	c0,0.4,0.2,0.7,0.6,0.8c1,0.3,2,0.2,3-0.1c0.4-0.1,0.7-0.6,0.7-1c0-0.3-0.1-0.7-0.1-1c-0.2-0.6-0.3-1.3-0.4-1.9
	c0-2.2-0.4-4.4-1.1-6.4c-0.1-0.5-0.5-0.9-1-0.9C165.7,35.5,165.5,35.5,165.5,35.5L165.5,35.5z M117.8,58.9c0-1.3,0-2.5,0-3.7
	c0-1.5,0-1.5-1.5-1.2c-0.3,0.1-0.4,0.2-0.4,0.5c0.1,3.1,0.1,6.2,0,9.3c0,0.1,0,0.3,0.1,0.3c1.4,0.9,3.2,1,4.7,0.1
	c1.9-1.3,1.9-4.4-0.2-5.3C119.7,58.5,118.7,58.5,117.8,58.9z M55.2,59L55.2,59c0-1.3,0-2.6,0-3.9c0-1.5,0-1.5-1.5-1.2h-0.1
	c-0.3,0.1-0.4,0.1-0.3,0.5c0.1,1.3,0.2,2.7,0.1,4c0,0.3-0.1,0.4-0.4,0.3c-0.3-0.1-0.7-0.1-1-0.1c-1.5-0.1-2.7,1-2.9,2.4
	c-0.4,1.6,0.5,3.2,2,3.7c1.3,0.4,2.8,0.2,3.9-0.5c0.1-0.1,0.2-0.2,0.2-0.4C55.2,62.2,55.2,60.6,55.2,59z M174.7,49.7l-0.1,0.1
	c2.9,3,5.9,5.9,10,7.2c1.1,0.3,2.1,0.9,2.8,1.9c0.1,0.2,0.3,0.2,0.5,0.1c0.8-0.2,1.1-0.8,1.5-1.4c0.2-0.2,0.2-0.5,0.1-0.8
	c-0.2-0.3-0.5-0.2-0.7-0.2c-0.4,0.1-0.9,0.1-1.4-0.1c-3.5-1.2-6.6-3.5-8.7-6.6c-0.1-0.2-0.2-0.4-0.4-0.4H174.7z M132.1,62.1
	c0.2,0.1,0.4,0.3,0.6,0.5c0.6,0.7,1.2,1.4,1.8,2.1c0.1,0.1,0.2,0.3,0.4,0.2c0.4-0.3,0.9-0.6,1.4-0.9c-0.7-0.8-1.3-1.5-2-2.2
	c-0.3-0.3-0.2-0.4,0-0.6c0.6-0.5,1.1-1,1.7-1.6c-0.4-0.3-0.7-0.5-0.9-0.8s-0.5-0.3-0.8,0c-0.5,0.6-1.1,1.1-1.6,1.7
	c-0.1,0.1-0.3,0.4-0.6,0.4c0-2,0-3.9,0-5.8c0-1.5,0-1.6-1.5-1.2h-0.1c-0.3,0-0.4,0.2-0.4,0.5c0.1,2.9,0,5.9,0.1,8.8
	c0,0.4-0.2,1,0,1.3s0.9,0,1.3,0.1s0.5-0.2,0.5-0.5C132,63.5,132.1,62.8,132.1,62.1z M92.4,63.4c0,0.8,0,1.6,0,2.4
	c0,0.4-0.3,1.1,0.1,1.3s0.9,0.1,1.4,0.2c0.3,0,0.4,0,0.3-0.3c0-0.6,0-1.2,0-1.8s0-0.6,0.6-0.5c1.5,0.5,3.2-0.4,3.7-1.9
	c0,0,0-0.1,0-0.1c0.6-1.6-0.2-3.3-1.8-3.8c0,0,0,0-0.1,0c-1.3-0.4-2.8-0.2-4,0.5c-0.1,0.1-0.2,0.1-0.2,0.3
	C92.6,60.8,92.6,62.1,92.4,63.4L92.4,63.4z M91,61.6v-1.5c0-1.4,0-1.4-1.4-1.4c-0.4,0-0.5,0.1-0.5,0.5c0,1.1,0,2.1,0,3.2
	c0,0.3-0.1,0.6-0.4,0.7c-0.9,0.6-1.7,0.2-1.7-0.9c0-0.7,0-1.3,0-2c0-1.6,0-1.6-1.6-1.4h-0.1c-0.2,0-0.2,0.1-0.2,0.2
	c0,1.3,0,2.6,0.1,3.9c0.1,1.3,1.2,2.2,2.5,2.1c0.3,0,0.7-0.1,1-0.3c0.3-0.1,0.6-0.7,0.8,0.1c0,0,0.1,0,0.2,0l1.4-0.3
	c0.1,0,0.1-0.1,0.1-0.2C91,63.4,91,62.5,91,61.6L91,61.6z M77.5,61.7c-0.1,1.7,1.2,3.1,2.9,3.2c0.1,0,0.3,0,0.4,0
	c1.8-0.1,3.1-1.6,3-3.3c-0.1-1.8-1.6-3.1-3.3-3C78.9,58.6,77.5,60,77.5,61.7z M35.8,60.8c-0.9-0.3-1.8-0.2-2.7,0.2
	C32.4,61.3,32,62,32,62.8c0,0.8,0.5,1.5,1.2,1.8c0.8,0.4,1.7,0.3,2.4-0.1c0.3-0.1,0.5-0.3,0.6,0.2c0,0.2,0.2,0.2,0.3,0.2l1.1-0.3
	c0.2,0,0.3-0.1,0.2-0.3c-0.2-1.3-0.3-2.6-0.3-3.9c0.1-0.8-0.5-1.6-1.3-1.7c-1.1-0.3-2.3-0.2-3.4,0.1c-0.3,0.1-0.3,0.3-0.2,0.5
	c0.1,0.1,0.1,0.2,0.2,0.4c0.1,0.4,0.2,0.5,0.6,0.3c0.5-0.3,1.1-0.4,1.7-0.3C35.6,59.8,35.8,60.1,35.8,60.8z M126.8,60.8
	c-0.5-0.2-1.1-0.3-1.6-0.2c-1.2,0-2.1,1-2.1,2.2c0,0.3,0,0.5,0.1,0.7c0.6,1.2,2.2,1.7,3.4,1.1c0.3-0.1,0.6-0.5,0.7,0.1
	c0,0.1,0.1,0.1,0.2,0.1l1.2-0.3c0.1,0,0.2-0.1,0.1-0.3c-0.2-1.3-0.3-2.6-0.3-3.9c0.1-0.8-0.5-1.6-1.3-1.7c-1-0.3-2-0.3-3,0
	c-0.8,0.2-0.8,0.2-0.5,1c0.1,0.4,0.2,0.5,0.6,0.3c0.5-0.3,1-0.4,1.5-0.3C126.5,59.7,126.8,60,126.8,60.8L126.8,60.8z M46.1,60.8
	c-0.8-0.3-1.7-0.3-2.5,0.1c-1,0.4-1.6,1.5-1.2,2.5c0.2,0.6,0.7,1.1,1.3,1.3c0.7,0.3,1.6,0.2,2.3-0.1c0.2-0.1,0.5-0.3,0.6,0.1
	c0,0.2,0.2,0.2,0.3,0.2l1.1-0.3c0.2,0,0.3-0.1,0.2-0.3c-0.2-1.3-0.3-2.5-0.3-3.8c0.1-0.9-0.5-1.6-1.4-1.8c-0.9-0.2-1.9-0.2-2.8,0
	c-0.9,0.2-1,0.3-0.6,1.1c0.1,0.3,0.2,0.3,0.5,0.2c0.5-0.2,1-0.4,1.5-0.3C45.7,59.7,46,60,46.1,60.8L46.1,60.8z M140.6,62.2
	L140.6,62.2c0.6,0,1.3,0,1.9,0c0.3,0,0.5-0.1,0.5-0.4c0.2-1.5-0.7-2.9-2.1-3.2c-1.7-0.5-3.4,0.5-3.9,2.2c-0.2,0.6-0.1,1.3,0.1,1.8
	c0.7,1.8,2.6,2.7,4.4,2c0.2-0.1,0.4-0.2,0.6-0.3c0.2-0.1,0.6-0.2,0.4-0.6c-0.2-0.4-0.6-0.7-1.1-0.6c-0.5,0.2-1.1,0.3-1.7,0.1
	c-0.4-0.1-0.8-0.4-1-0.8c-0.1-0.2-0.1-0.3,0.2-0.3C139.4,62.2,140,62.2,140.6,62.2L140.6,62.2z M152.2,62.1
	c-0.5-0.7-0.9-1.5-1.2-2.4c-0.6-1.2-0.5-1.2-1.8-0.7c-0.4,0.2-0.4,0.4-0.3,0.7c0.6,1.3,1.3,2.5,2.1,3.7c0.2,0.2,0.2,0.6,0,0.8
	c-0.6,0.8-1.2,1.5-1.9,2.1c0,0,0,0.1,0,0.1c1.4,1.2,0.9,1.3,2.2,0c1.5-1.8,2.7-3.9,3.5-6.2c0.4-1.1,0.4-1.1-0.7-1.6
	c-0.4-0.2-0.5,0-0.7,0.4C153.1,60.1,152.7,61.1,152.2,62.1z M41.1,59.2c0-1.4,0-2.9,0-4.3c0-1.1,0-1.1-1.1-1
	c-0.8,0.1-0.8,0.1-0.8,0.9c0.1,3,0.1,5.9,0,8.9c0,1,0,1,1,1c0.2,0,0.3,0,0.5,0c0.3,0,0.4-0.1,0.4-0.4C41.1,62.6,41.1,60.9,41.1,59.2
	z M101.5,64.8c1.1,0.1,2.2-0.6,2.4-1.7c0.1-1.1-0.5-1.8-1.8-2.2c-0.3-0.1-0.5-0.2-0.8-0.3c-0.2-0.1-0.3-0.2-0.2-0.4
	c0-0.2,0.2-0.3,0.4-0.3c0.4-0.1,0.9,0.1,1.3,0.3c0.3,0.2,0.5,0.2,0.7-0.2c0.1-0.2,0.2-0.3,0.3-0.4c0.2-0.2,0.1-0.3-0.1-0.5
	c-0.7-0.4-1.6-0.6-2.4-0.5c-0.9,0.1-1.6,0.9-1.7,1.8c-0.1,0.9,0.3,1.5,1.4,1.9c0.3,0.1,0.5,0.2,0.8,0.3s0.6,0.2,0.5,0.6
	s-0.5,0.4-0.8,0.4c-0.4-0.1-0.7-0.2-1-0.4c-0.2-0.1-0.3-0.1-0.4,0.1c-0.6,0.9-0.5,1.1,0.5,1.5C100.8,64.8,101.2,64.8,101.5,64.8
	L101.5,64.8z M58.5,64.8c1.1,0.1,2.1-0.6,2.4-1.7c0.2-1.1-0.4-1.9-1.7-2.3c-0.2-0.1-0.4-0.1-0.7-0.2c-0.2-0.1-0.4-0.3-0.3-0.5
	s0.3-0.3,0.5-0.3c0.4,0,0.8,0.1,1.2,0.3c0.3,0.2,0.4,0.2,0.6-0.1c0.1-0.2,0.2-0.3,0.3-0.4c0.2-0.2,0.2-0.4-0.1-0.5
	c-0.7-0.4-1.4-0.6-2.2-0.5c-0.9,0.1-1.7,0.8-1.9,1.7c-0.1,0.9,0.3,1.5,1.3,1.9c0.3,0.1,0.6,0.2,0.9,0.3s0.5,0.2,0.4,0.5
	s-0.3,0.4-0.6,0.5c-0.4,0-0.8-0.1-1.1-0.4c-0.3-0.2-0.4-0.2-0.6,0.2c-0.5,0.9-0.5,0.9,0.5,1.3C57.7,64.7,58.1,64.8,58.5,64.8
	L58.5,64.8z M74.5,64.8h0.2c1,0,1.9-0.7,2.2-1.6c0.2-1.1-0.4-1.8-1.6-2.2c-0.3-0.1-0.5-0.2-0.8-0.3c-0.2-0.1-0.3-0.3-0.3-0.5
	c0.1-0.2,0.3-0.3,0.5-0.3c0.5,0,0.9,0.1,1.3,0.4c0.2,0.1,0.3,0.1,0.4-0.1c0.1-0.2,0.2-0.4,0.3-0.5c0.2-0.3,0.1-0.4-0.2-0.5
	c-0.7-0.4-1.4-0.6-2.2-0.5c-1,0.1-1.7,0.8-1.8,1.8c-0.1,0.9,0.3,1.5,1.3,1.9l1,0.4c0.2,0,0.4,0.2,0.4,0.4c0,0.2-0.2,0.4-0.4,0.5
	c-0.4,0.1-0.8,0.1-1.1-0.2c-0.5-0.4-0.8-0.2-1,0.3c0,0.1-0.1,0.1-0.1,0.2c-0.2,0.3-0.1,0.4,0.2,0.6C73.3,64.6,73.9,64.8,74.5,64.8
	L74.5,64.8z M28.6,64.8h0.2c1,0,1.9-0.6,2.2-1.6c0.2-1.1-0.4-1.8-1.6-2.2c-0.3-0.1-0.5-0.2-0.8-0.3s-0.4-0.3-0.4-0.5
	s0.3-0.3,0.5-0.3c0.4,0,0.8,0.1,1.1,0.3c0.3,0.2,0.5,0.2,0.7-0.2c0.1-0.1,0.1-0.3,0.2-0.4c0.2-0.2,0.2-0.4-0.1-0.5
	c-0.7-0.4-1.4-0.5-2.2-0.5c-1,0.1-1.7,0.8-1.9,1.8c-0.1,0.9,0.3,1.5,1.3,1.9c0.3,0.1,0.6,0.2,0.9,0.3s0.5,0.2,0.4,0.6
	s-0.3,0.4-0.6,0.4c-0.3,0-0.7-0.1-0.9-0.3c-0.5-0.4-0.7-0.3-0.9,0.3c0,0.1-0.1,0.2-0.2,0.3c-0.2,0.3-0.1,0.4,0.2,0.5
	C27.4,64.6,28,64.8,28.6,64.8L28.6,64.8z M145.8,59.4c0.2-0.7-0.1-0.8-0.5-0.7c-0.3,0-0.5,0-0.8,0c-0.3,0-0.4,0.1-0.3,0.4
	c0,1.4,0,2.9,0,4.3s0,1.3,1.3,1.3c0.4,0,0.5-0.1,0.4-0.5c-0.1-0.9-0.1-1.8,0-2.7c0-0.8,0.5-1.3,1.2-1.1c0.8,0.3,0.9-0.2,1-0.7
	c0-0.1,0.1-0.3,0.1-0.4c0.1-0.4,0-0.5-0.4-0.6C147.1,58.5,146.3,58.8,145.8,59.4L145.8,59.4z M68.2,61.3c0.1-0.9-0.6-1.6-1.5-1.7
	c-0.9-0.1-1.6,0.6-1.7,1.5c0,0.1,0,0.2,0,0.3C65,62.2,65.6,63,66.5,63c0.9,0.1,1.6-0.6,1.7-1.5C68.2,61.5,68.2,61.4,68.2,61.3z
	 M111.3,61.3c0.1-0.9-0.6-1.6-1.4-1.7c-0.9-0.1-1.6,0.6-1.7,1.4c0,0.1,0,0.2,0,0.2c-0.1,0.9,0.6,1.6,1.4,1.7
	c0.9,0.1,1.6-0.6,1.7-1.4C111.3,61.5,111.3,61.4,111.3,61.3z M163.3,30.8c-0.8,0-1.6,0.3-2.4,0.7c-0.4,0.3-0.4,0.6-0.1,0.8
	c1.3,0.6,2.9,0.6,4.2,0c0.5-0.3,0.5-0.7,0-1C164.5,31,163.9,30.8,163.3,30.8L163.3,30.8z M204.7,47.3h0.4c0.9-0.1,1.6-0.7,1.9-1.5
	c0.2-0.8-0.2-1.6-0.9-2c-1-0.6-2.2-0.5-3,0.2c-0.5,0.4-0.7,1.1-0.6,1.7C202.7,46.8,203.6,47.5,204.7,47.3L204.7,47.3z"/>
<path class="st1" d="M212.5,20c1.1,0,2.1,0.1,3.2,0.4c3.6,0.5,7,1.9,9.9,4c4,2.9,6.4,7.5,6.4,12.5c0.1,6.7-2.2,13.1-6.5,18.2
	c-2.8,3.3-6.5,5.7-10.7,6.9c-3.9,1.2-7.8,1.9-11.9,2c-3,0-6-0.2-9-0.8c-1.1-0.1-2.3-0.3-3.4-0.5c-0.7-0.1-1.3-0.5-1.6-1.1
	c-0.3-0.5-0.1-0.9,0.5-0.9c0.3,0,0.6,0,0.9,0.1c2.9,0.6,5.9,0.8,8.8,0.5c3.3-0.3,6.5-0.9,9.7-2c6.8-2.4,12.3-7.4,15.3-13.9
	c1.3-2.5,2.1-5.2,2.4-8.1c0.3-4.1-1.1-8.1-4-11c-2.7-2.8-6.4-4.5-10.3-4.5C212.1,21.1,212.3,20.5,212.5,20z"/>
<path class="st2" d="M212.5,20c-0.3,0.5-0.4,1.1-0.4,1.8c-0.2,0.3-0.1,0.8-0.3,1.1c-0.4,0-0.8-0.2-1.1-0.4c-2.9-1.3-6-2.3-9.1-3
	c-0.6,0-1.2-0.2-1.7-0.4c-0.3-2.8-1.3-5.4-1.4-8.2c-0.1-1.6-0.6-3.1-1.5-4.3c-1.5-2.1-1.2-2.5,0.3-4.2c0.6-0.7,1.5-1.3,2.4-1.6
	c0.7-0.4,1.5-0.1,1.9,0.5c0.1,0.1,0.1,0.2,0.1,0.3c0.8,1.6,1.2,3.4,1.4,5.2c0.3,2.9,0.6,5.8,0.9,8.7c0.1,0.8,0.2,1.6,0.6,2.4
	c0-0.1,0-0.3,0-0.4c0-3.3,0.6-6.5,0.9-9.7c0.1-0.8,0.3-1.5,0.5-2.3c0.4-1.5,1.3-2.2,3-2.3c2.5-0.2,3.8,1.4,2.8,3.7
	c-0.5,1.3-0.8,2.6-0.8,4c0,1.4-0.4,2.7-0.5,4.1c-0.1,1-0.2,2.1-0.1,3.1c0.3-0.2,0.5-0.5,0.6-0.9c0.6-1.9,1.4-3.7,2.4-5.5
	c0.2-0.5,0.6-1,1-1.3c0.4-0.3,0.7-0.2,0.7,0.3c0,1.1-0.2,2.1-0.7,3.1C213.5,15.7,212.9,17.8,212.5,20z"/>
<path class="st1" d="M199.8,19.1c0.6,0.2,1.1,0.4,1.7,0.4c3.1,0.7,6.2,1.7,9.1,3c0.4,0.2,0.7,0.3,1.1,0.4c0.4,0.2,0.8,0.4,1.2,0.6
	c0.9,0.3,1.7,0.8,2.4,1.4c0.4,0.3,0.9,0.8,0.6,1.3s-0.9,0.2-1.4-0.1c-3-1.4-6.2-2.3-9.4-2.9c-5.6-0.9-11.1-0.6-16.3,1.9
	c-3.3,1.5-6.2,3.9-8.3,6.8c-0.2,0.3-0.6,0.5-1,0.5c-2,0-3.9,0-5.9,0c-0.3,0-0.5,0-0.3-0.4c1.8-4,4.1-7.5,7.9-9.9
	c3.4-2.2,7.4-3.4,11.5-3.4c2.2,0,4.3,0.1,6.4,0.4C199.4,19.2,199.6,19.1,199.8,19.1z"/>
<path class="st3" d="M10.2,36.8c2.7-0.2,5.4-0.3,8.1-0.3c0.4,0,0.9,0.1,1.3,0.2c3.5,0.4,3.9,5,2,7c-1.3,1.3-3,2.3-4.8,2.8
	c-4.6,1.6-9.6,1.5-14.1-0.1c-0.6-0.2-1.1-0.5-1.6-0.9c-0.5-0.4-0.7-1-0.5-1.6C0.8,43.2,1.3,43,1.9,43c1.1-0.1,2.1,0.2,3,0.8
	c1.4,0.9,3.1,1.3,4.8,1.2c2.4,0,4.7-0.4,7-1.2c0.7-0.2,1.4-0.6,2-1.1c0.6-0.3,0.9-1,0.8-1.7c-0.2-0.6-0.8-1-1.4-1
	c-2.3-0.4-4.6-0.5-6.9-0.3c-1.4,0.1-2.9,0.2-4.3,0.2c-2.5,0-4.5-2-4.5-4.5c0-0.3,0-0.6,0.1-1c0.4-2.9,2.3-5.4,4.9-6.7
	c1.8-1,3.7-1.5,5.8-1.6c0.8-0.1,1.5,0.4,1.7,1.2c0.1,0.2,0.2,0.5,0.2,0.8c0.3,0.9-0.1,1.8-1,2.2c-0.3,0.1-0.5,0.1-0.8,0.1
	c-0.8,0-1.6,0-2.4-0.1c-1.3-0.2-2.6,0.2-3.6,1.1c-0.9,0.7-1.5,1.5-2,2.5c-0.5,0.9-0.2,1.9,0.7,2.4c0.2,0.1,0.3,0.2,0.5,0.2
	C7.7,36.8,9,36.9,10.2,36.8z"/>
<path class="st3" d="M123,41c0.1-1.8-0.1-3.6-0.6-5.4c0-0.1,0-0.1,0-0.2c-0.6-1.8-1-2-2.8-1.8c-1.5,0.3-3,0.3-4.5,0.1
	c-0.2-0.1-0.5-0.1-0.7-0.2c-0.3-0.1-0.6-0.4-0.6-0.7c0-0.4,0.2-0.7,0.6-0.9c0.7-0.3,1.4-0.5,2.2-0.5c0.9-0.1,1.8-0.3,2.7-0.5
	c1.1-0.1,1.9-1.1,1.8-2.2c0-0.1,0-0.1,0-0.2c-0.1-0.8-0.3-1.6-0.4-2.3s0-1.3,0.5-1.5c0.7-0.2,1.6,0.1,2,0.7c0.3,0.6,0.4,1.2,0.5,1.8
	c0.1,0.6,0.1,1.1,0.2,1.7c0.1,0.8,0.7,1.4,1.5,1.5c0.9,0.2,1.7,0.2,2.6,0.3c0.3,0,0.7,0.1,1,0.3c0.4,0.2,0.6,0.4,0.5,0.9
	s-0.4,0.4-0.8,0.5c-0.7,0.1-1.5,0.2-2.2,0.3c-1,0.2-1.1,0.4-1.2,1.4c-0.1,1.8,0,3.6,0.3,5.3c0.3,2.2,0.4,4.3,0.4,6.5
	c0,1-0.2,2.1-0.6,3c-0.5,1-1.6,1.5-2.7,1.3c-0.5-0.1-0.7-0.5-0.5-1.2c0.2-0.9,0.3-1.9,0.5-2.8C122.9,44.5,123,42.7,123,41z"/>
<path class="st3" d="M152.8,43.7c0.1-1.8-0.1-3.6-0.5-5.3c0-0.2-0.1-0.3-0.1-0.5c-0.9-2-0.8-1.8-2.6-1.6c-1.4,0.2-2.7,0.2-4.1,0.2
	c-0.4,0-0.8-0.1-1.1-0.3c-0.3-0.1-0.6-0.4-0.6-0.8c0-0.4,0.3-0.7,0.6-0.8c0.9-0.3,1.8-0.5,2.7-0.6c0.7-0.1,1.4-0.2,2-0.4
	c1.1-0.1,1.9-1.1,1.8-2.2c0-0.2-0.1-0.3-0.1-0.5c-0.1-0.6-0.2-1.3-0.3-1.9c-0.1-0.9,0-1.4,0.5-1.5c0.8-0.2,1.6,0.1,2,0.8
	c0.2,0.5,0.4,1.1,0.4,1.6c0.1,0.4,0.1,0.9,0.2,1.3c0.1,1.1,1,1.9,2.1,1.9c0.7,0.1,1.4,0.1,2.1,0.2c0.3,0,0.6,0.1,0.9,0.2
	c0.4,0.1,0.6,0.4,0.6,0.8c-0.1,0.4-0.4,0.5-0.8,0.5c-0.7,0-1.3,0.1-1.9,0.3c-1.1,0.2-1.3,0.4-1.4,1.6c-0.1,1.9,0,3.9,0.3,5.8
	c0.3,2.5,0.4,5,0.3,7.6c-0.1,0.8-0.3,1.5-0.6,2.2c-0.2,0.5-0.6,0.8-1.1,1c-0.7,0.4-1.6,0.1-1.9-0.6c-0.1-0.2-0.1-0.4-0.2-0.6
	c0-0.9,0.1-1.7,0.3-2.6C152.6,47.6,152.8,45.7,152.8,43.7z"/>
<path class="st3" d="M63.2,48.5c0.1,1.1,0,2.2-0.2,3.3c-0.2,1.1-1,1.9-2.1,2.2c-0.3,0.1-0.4-0.1-0.6-0.2c-0.7-0.8-1-2-0.7-3.1
	c0.1-0.6,0.3-1.3,0.4-1.9c0.1-0.9,0.1-1.7,0-2.6c0-2.8,0.4-5.6,1.4-8.2c0.5-0.9,1-1.7,1.6-2.5c0.3-0.4,0.7-0.6,1.1-0.6
	c1.5-0.3,3-0.3,4.5,0c2.4,0.4,4.2,2.5,4.3,4.9c0.2,2.5-1.3,4.7-3.7,5.5c-1.6,0.6-3.3,0.9-5,0.8c-0.1,0-0.3,0-0.4,0
	c-0.8-0.2-0.8-0.2-0.8,0.7C63.2,47.3,63.2,48,63.2,48.5z M64.6,44.2c0.2,0,0.5,0,0.8-0.1c1.5-0.1,2.9-0.7,4-1.7c1.1-1,1.3-2.8,0.4-4
	c-0.9-1.3-2.5-1.9-4.1-1.7c-0.5,0-0.9,0.3-0.9,0.8c-0.2,0.8-0.4,1.6-0.8,2.4c-0.5,1-0.8,2.1-0.9,3.3c-0.1,0.9,0,1,0.9,1L64.6,44.2z"
	/>
<path class="st3" d="M101.2,44.6c0.1,0.7-0.3,1.3-0.9,1.6c-0.4,0.2-1,0.2-1.3-0.2c-0.6-0.5-1.1-1.1-1.5-1.9
	c-0.4-0.8-0.9-1.5-1.4-2.2c-0.3-0.5-1-0.7-1.6-0.6c-1.9,0.4-3.9,0.9-5.7,1.6c-1,0.3-1.7,1-1.9,2c-0.1,0.3-0.2,0.6-0.4,0.9
	c-0.4,0.9-1.4,1.4-2.3,1.1c-0.5-0.1-0.6-0.5-0.6-1c0.1-0.7,0.3-1.3,0.6-1.9c1.2-2.7,2.5-5.3,4-7.9c1.7-3.1,5.5-2.9,7.6-0.9
	c0.8,0.8,1.5,1.7,1.9,2.8c0.8,1.7,1.7,3.3,2.8,4.8C100.9,43.4,101.2,44,101.2,44.6z M90.9,40.1c0.9,0,1.8-0.3,2.6-0.7
	c0.5-0.3,0.5-0.6,0.2-1c-0.4-0.8-1.2-1.2-2.1-1.1c-0.9,0.3-1.6,1-1.8,1.9c-0.1,0.3,0.1,0.7,0.4,0.8c0,0,0.1,0,0.1,0
	C90.5,40.1,90.7,40.1,90.9,40.1L90.9,40.1z"/>
<path class="st3" d="M136.8,33.8c2,0,3.9,1,5,2.8c0.6,1,1.2,2,1.7,3.1c0.5,1,1,1.9,1.7,2.8c0.5,0.6,0.8,1.3,1,2
	c0.2,0.6-0.1,1.3-0.7,1.6c-0.6,0.4-1,0.4-1.6-0.2c-0.6-0.5-1.1-1.1-1.4-1.8c-0.4-0.7-0.9-1.5-1.4-2.1c-0.3-0.4-0.8-0.7-1.3-0.6
	c-2.3,0.4-4.6,1.1-6.7,2c-0.5,0.2-0.8,0.7-1,1.2c-0.2,0.5-0.4,1-0.6,1.4c-0.4,0.9-1.4,1.3-2.3,1c-0.6-0.2-0.6-0.6-0.6-1.1
	c0.1-0.5,0.2-1,0.4-1.5c1.2-3,2.7-5.9,4.5-8.7C134.2,34.5,135.4,33.8,136.8,33.8z M135.9,40.1c0.9,0,1.8-0.3,2.6-0.8
	c0.3-0.1,0.4-0.4,0.3-0.7c0,0,0-0.1-0.1-0.1c-0.4-0.8-1.3-1.3-2.2-1.2c-0.9,0.3-1.6,1-1.8,1.9c-0.1,0.3,0.1,0.7,0.4,0.8
	c0.1,0,0.1,0,0.2,0C135.5,40.1,135.8,40.1,135.9,40.1L135.9,40.1z"/>
<path class="st3" d="M57.1,42c-0.1,0.9,0.2,1.9,0.8,2.6c0.5,0.5,0.5,1.4-0.1,1.9c0,0-0.1,0.1-0.1,0.1c-1.2,1.1-1.6,1.1-2.9,0.1
	c-0.6-0.5-1.1-1.1-1.5-1.7c-0.3-0.6-0.3-1.2-0.1-1.8c0.1-0.6,0.3-1.2,0.3-1.9s-0.1-0.6-0.6-0.4c-0.4,0.2-0.7,0.5-0.9,0.8
	c-1.2,1.8-2.6,3.3-4.3,4.5c-1.3,0.8-3,0.8-4.2,0c-1.7-1-3-2.5-3.8-4.3c-0.5-1.1-0.8-2.4-0.8-3.7c0-0.9,0.6-1.3,1.6-1.2
	c1.4,0,2.6,1.2,2.6,2.6c0.1,1.3,0.6,2.6,1.3,3.7c0.7,0.9,1.3,1,2.1,0.2c1.1-1.1,2.2-2.3,3-3.7c0.4-0.7,0.8-1.3,1.3-1.9
	c0.6-0.6,1.5-0.8,2.3-0.5c1.6,0.5,2.9,1.6,3.7,3C57.1,41,57.2,41.5,57.1,42z"/>
<path class="st3" d="M188.3,38.4c0,0.6,0,1.1-0.1,1.7c0,0.1-0.1,0.3,0.1,0.3s0.2-0.1,0.2-0.2c1.2-1.9,3.5-2.9,5.7-2.5
	c0.4,0.1,0.9,0.1,1.4,0.3c2.8,0.6,4.8,3,4.9,5.9c0,0.6,0,1.2,0,1.8s-0.1,1-0.7,1.2c-0.6,0.2-1.3,0.1-1.7-0.4
	c-0.4-0.4-0.6-0.9-0.7-1.5c-0.2-0.9-0.6-1.8-0.9-2.6c-0.2-0.5-0.6-1-1.2-1.2c-0.7-0.3-1.5-0.5-2.2-0.6c-0.7-0.1-1.5,0.2-2,0.7
	c-0.8,0.8-1.5,1.7-1.9,2.7c-0.4,0.8-0.8,1.6-1.4,2.3c-0.6,0.8-1.7,1.1-2.6,0.6l-0.3-0.2c-0.7-0.4-0.7-0.4-0.4-1.3
	c0.5-1.2,0.7-2.6,0.6-3.9c0-1-0.2-2-0.6-3c-0.1-0.2-0.1-0.4,0-0.6c0.5-1.3,1.8-2,3.2-1.7c0.3,0.1,0.5,0.3,0.6,0.7
	C188.3,37.2,188.3,37.8,188.3,38.4z"/>
<path class="st3" d="M107.2,38.5c0,0.5,0,1.1-0.1,1.6c0,0.1-0.1,0.2,0.1,0.3s0.2-0.1,0.3-0.2c0.8-1.5,2.3-2.5,4-2.6
	c1.8-0.3,3.7,0.2,5.2,1.3c1.2,0.7,2.1,1.9,2.5,3.2c0.3,1.1,0.3,2.3,0.2,3.5c0,0.5-0.2,0.9-0.7,1.1c-0.5,0.3-1.2,0.2-1.6-0.2
	c-0.5-0.5-0.9-1.2-1-2c-0.2-0.8-0.5-1.7-0.9-2.5c-0.1-0.2-0.2-0.4-0.3-0.5c-1.5-1.4-3.9-1.4-5.4,0c-0.8,1-1.5,2.2-2,3.5
	c-0.3,0.5-0.6,1-1,1.4c-0.7,0.6-1.8,0.7-2.6,0.2c-0.8-0.5-0.8-0.5-0.4-1.4c0.5-1.1,0.7-2.2,0.6-3.4c0-1.2-0.2-2.4-0.6-3.6
	c-0.1-0.2-0.1-0.5,0-0.7c0.5-1.2,1.8-1.9,3.1-1.7c0.3,0.1,0.6,0.4,0.7,0.7C107.2,37.3,107.3,37.9,107.2,38.5z"/>
<path class="st3" d="M30.2,36.2c1.2,0,2.3,0.2,3.4,0.5c2,0.5,3.5,2.3,3.6,4.5c0,2.2-1.3,4.2-3.3,5c-3.3,1.1-6.9-0.1-8.9-2.9
	c-1.1-1.9-0.6-4.2,1-5.6C27.2,36.7,28.7,36.1,30.2,36.2z M30.1,39c-0.4,0-0.8,0-1.2,0.2c-0.9,0.3-1.2,0.8-0.9,1.7
	c0.3,1.4,1.4,2.5,2.8,2.8c1.1,0.4,2.3-0.2,2.7-1.3c0.5-1,0.1-2.2-0.9-2.7C31.9,39.2,31,39,30.1,39z"/>
<path class="st3" d="M176,46.4c-0.5,0-1.1-0.1-1.6-0.2c-2.4-0.5-4-2.8-3.5-5.2c0.1-0.3,0.2-0.6,0.3-0.9c0.8-2.4,2.7-3.5,5.1-3.9
	c1-0.2,1.9-0.2,2.9-0.1c2.6,0.5,3.9,2.5,3.3,5.2C181.9,44.3,179.1,46.5,176,46.4z M179.4,40.9c0-0.7-0.4-1.4-1-1.7
	c-1.2-0.7-2.8-0.4-3.7,0.7c-0.7,0.6-0.9,1.5-0.7,2.3c0.3,0.7,1.1,1.2,1.9,1.3h0.2C177.7,43.7,179.2,42.6,179.4,40.9L179.4,40.9z"/>
<path class="st3" d="M78.3,46.3c-0.6,0-1.2-0.1-1.8-0.4c-0.3-0.2-0.5-0.4-0.4-0.7c0.1-0.6,0.1-1.2-0.2-1.7c-0.6-2.3-1-4.6-1.2-7
	c-0.2-1.5-0.5-3-0.6-4.5c-0.1-0.4-0.2-0.8-0.4-1.2c-0.3-0.5-0.1-1.1,0.4-1.4c0.1,0,0.1-0.1,0.2-0.1c0.5-0.2,0.9-0.4,1.4-0.6
	c0.7-0.2,1,0,1.2,0.6c0.3,1.1,0.5,2.2,0.6,3.3c0.5,2.9,0.7,5.9,1.3,8.8c0,0.2,0.1,0.5,0.2,0.7c0.1,0.6,0.6,1,1.2,1.1
	c0.5,0.1,0.9,0.6,0.8,1.2c0,0.2-0.1,0.4-0.3,0.5C80.2,45.8,79.3,46.3,78.3,46.3z"/>
<path class="st3" d="M165.5,35.5c0.1,0,0.3,0,0.5,0c0.5,0,0.9,0.4,1,0.9c0.7,2.1,1,4.3,1.1,6.4c0.1,0.6,0.2,1.3,0.4,1.9
	c0.1,0.3,0.1,0.7,0.1,1c0,0.4-0.2,0.9-0.7,1c-1,0.3-2,0.4-3,0.1c-0.4-0.1-0.5-0.4-0.6-0.8c-0.1-2.6-0.4-5.2-0.9-7.8
	c-0.1-0.4-0.3-0.7-0.6-1c-0.5-0.5-0.4-0.8,0.2-1.2C163.7,35.7,164.6,35.5,165.5,35.5z"/>
<path class="st4" d="M117.8,58.9c0.9-0.4,1.9-0.3,2.8,0.1c2,1,2.1,4,0.2,5.3c-1.5,0.8-3.3,0.8-4.7-0.1c-0.1-0.1-0.2-0.2-0.1-0.3
	c0.1-3.1,0.1-6.2,0-9.3c0-0.3,0.1-0.4,0.4-0.5c1.5-0.3,1.5-0.3,1.5,1.2C117.8,56.4,117.8,57.6,117.8,58.9z M117.8,61.7
	c0,0.3,0,0.6,0,0.9c-0.1,0.5,0.2,0.6,0.6,0.7c0.9,0.2,1.8-0.5,2-1.4c0-0.1,0-0.3,0-0.4c-0.1-0.8-0.8-1.4-1.6-1.3
	c-0.9,0-1.1,0.2-1.1,1.2C117.8,61.5,117.8,61.6,117.8,61.7L117.8,61.7z"/>
<path class="st3" d="M55.2,59c0,1.6,0,3.2,0,4.8c0,0.1-0.1,0.3-0.2,0.4c-1.2,0.7-2.6,0.9-3.9,0.5c-1.5-0.5-2.4-2.1-2-3.7
	c0.2-1.4,1.5-2.4,2.9-2.3c0.3,0,0.7,0,1,0.1c0.3,0.1,0.4,0,0.4-0.3c0-1.3,0-2.7-0.1-4c0-0.3,0.1-0.4,0.3-0.5h0.1
	c1.5-0.3,1.5-0.3,1.5,1.2C55.2,56.4,55.2,57.7,55.2,59L55.2,59z M53.4,61.7c0-0.2,0-0.4,0-0.6c0.1-0.6-0.2-0.8-0.7-0.9
	c-0.7-0.2-1.4,0.1-1.8,0.8c-0.3,0.7-0.1,1.5,0.4,2.1c0.5,0.3,1.1,0.4,1.7,0.1c0.6-0.2,0.3-0.7,0.3-1.1
	C53.4,61.9,53.4,61.8,53.4,61.7L53.4,61.7z"/>
<path class="st5" d="M174.7,49.8h3.7c0.3,0,0.3,0.2,0.4,0.4c2.2,3,5.2,5.3,8.7,6.6c0.4,0.2,0.9,0.2,1.4,0.1c0.3-0.1,0.6-0.1,0.7,0.2
	c0.1,0.3,0.1,0.6-0.1,0.8c-0.4,0.6-0.8,1.2-1.5,1.4c-0.2,0-0.4,0.1-0.5-0.1c-0.7-0.9-1.7-1.6-2.8-1.9c-4.1-1.4-7.1-4.2-10-7.2
	L174.7,49.8z"/>
<path class="st3" d="M132.1,62.1c0,0.7,0,1.4,0,2.1c0,0.4,0,0.6-0.5,0.5s-1,0.2-1.3-0.1s0-0.8,0-1.3c0-2.9,0.1-5.9-0.1-8.8
	c0-0.3,0.1-0.5,0.4-0.5h0.1c1.5-0.4,1.5-0.3,1.5,1.2c-0.1,1.9,0,3.8,0,5.8c0.3,0,0.4-0.2,0.6-0.4c0.6-0.6,1.1-1.1,1.6-1.7
	c0.3-0.3,0.5-0.3,0.8,0s0.5,0.4,0.9,0.8c-0.6,0.5-1.1,1.1-1.7,1.6c-0.3,0.2-0.3,0.4,0,0.6c0.7,0.7,1.3,1.4,2,2.2
	c-0.5,0.3-0.9,0.6-1.4,0.9c-0.3,0.2-0.3,0-0.4-0.2c-0.6-0.7-1.2-1.4-1.8-2.1C132.5,62.4,132.3,62.2,132.1,62.1z"/>
<path class="st3" d="M92.4,63.4c0.2-1.3,0.2-2.6,0-3.9c0-0.2,0.1-0.2,0.2-0.3c1.2-0.7,2.7-0.9,4-0.5c1.6,0.5,2.4,2.2,1.9,3.8
	c0,0,0,0,0,0.1c-0.4,1.6-2,2.5-3.6,2c0,0-0.1,0-0.1,0c-0.5-0.1-0.6,0-0.6,0.5s0,1.2,0,1.8c0,0.3-0.1,0.4-0.3,0.3
	c-0.5-0.1-1.1,0.1-1.4-0.2s0-0.9-0.1-1.3C92.4,65,92.4,64.2,92.4,63.4z M94.2,61.5c0,0.2,0,0.5,0,0.8c-0.1,0.6,0.2,0.8,0.7,0.9
	c0.8,0.3,1.7-0.2,1.9-1c0.1-0.4,0.1-0.7-0.1-1.1c-0.2-0.8-1-1.2-1.8-1c-0.7,0.1-0.8,0.2-0.8,1.3L94.2,61.5z"/>
<path class="st4" d="M91,61.6c0,0.9,0,1.8,0.1,2.7c0,0.1,0.1,0.2-0.1,0.2l-1.4,0.3c-0.1,0-0.2,0-0.2,0c-0.2-0.8-0.6-0.2-0.8-0.1
	c-1.1,0.6-2.5,0.2-3.1-0.9c-0.2-0.3-0.3-0.6-0.3-1c-0.1-1.3-0.1-2.6-0.1-3.9c0-0.2,0.1-0.3,0.2-0.2h0.1c1.6-0.1,1.6-0.1,1.6,1.4
	c0,0.7,0,1.3,0,2c0,1.1,0.8,1.5,1.7,0.9c0.3-0.1,0.4-0.4,0.4-0.7c0-1.1,0-2.1,0-3.2c0-0.4,0.1-0.5,0.5-0.5c1.4,0,1.4,0,1.4,1.4
	L91,61.6z"/>
<path class="st6" d="M77.5,61.7c-0.1-1.8,1.3-3.4,3.2-3.4c1.8-0.1,3.4,1.3,3.4,3.2s-1.3,3.4-3.2,3.4c0,0-0.1,0-0.1,0
	c-1.7,0.1-3.2-1.1-3.3-2.8C77.5,61.9,77.5,61.8,77.5,61.7z M80.8,60c-0.9,0-1.6,0.7-1.6,1.6c0,0,0,0.1,0,0.1
	c-0.1,0.9,0.6,1.6,1.5,1.7c0.9,0.1,1.6-0.6,1.7-1.5c0-0.1,0-0.2,0-0.3c0.1-0.9-0.5-1.6-1.4-1.7C80.9,60,80.9,60,80.8,60L80.8,60z"/>
<path class="st7" d="M35.8,60.8c0-0.6-0.2-1-0.8-1.1c-0.6-0.1-1.2,0-1.7,0.3c-0.4,0.2-0.5,0.1-0.6-0.3c0-0.1-0.1-0.3-0.2-0.4
	c-0.1-0.3-0.1-0.4,0.2-0.5c1.1-0.4,2.3-0.4,3.4-0.1c0.8,0.2,1.4,0.9,1.3,1.7c-0.1,1.3,0,2.6,0.3,3.9c0.1,0.2,0,0.3-0.2,0.3l-1.1,0.3
	c-0.2,0-0.3,0-0.3-0.2c-0.1-0.4-0.3-0.3-0.6-0.2C34.9,65,34,65,33.2,64.6c-0.7-0.3-1.2-1-1.2-1.8C32,62,32.4,61.3,33.1,61
	C34,60.5,34.9,60.5,35.8,60.8z M34.8,63.7c0.6,0,1-0.4,1-1s-0.4-1-1-1c-0.5-0.1-1,0.3-1.1,0.9c0,0,0,0.1,0,0.1c0,0.6,0.4,1,1,1
	C34.7,63.7,34.8,63.6,34.8,63.7L34.8,63.7z"/>
<path class="st6" d="M126.8,60.8c0-0.8-0.3-1.1-0.9-1.1c-0.5-0.1-1,0-1.5,0.3c-0.4,0.2-0.5,0.1-0.6-0.3c-0.3-0.8-0.3-0.8,0.5-1
	c1-0.3,2-0.3,3,0c0.8,0.2,1.4,0.9,1.3,1.8c-0.1,1.3,0,2.6,0.3,3.9c0,0.1,0,0.2-0.1,0.3l-1.2,0.3c-0.1,0-0.2,0-0.2-0.1
	c-0.1-0.6-0.4-0.3-0.7-0.1c-1.2,0.6-2.8,0.1-3.4-1.1c-0.4-1.1,0.2-2.4,1.3-2.8c0.2-0.1,0.5-0.1,0.7-0.1
	C125.7,60.5,126.3,60.6,126.8,60.8z M125.8,61.7c-0.6,0-1,0.4-1.1,0.9c0,0,0,0.1,0,0.1c0,0.6,0.4,1,1,1c0,0,0.1,0,0.1,0
	c0.6,0,1-0.4,1-1S126.3,61.7,125.8,61.7z"/>
<path class="st7" d="M46.1,60.8c0-0.8-0.3-1.1-1-1.2c-0.5,0-1,0.1-1.5,0.3c-0.3,0.1-0.4,0.1-0.5-0.2c-0.4-0.9-0.3-0.9,0.6-1.1
	c0.9-0.2,1.9-0.2,2.8,0c0.8,0.2,1.4,0.9,1.4,1.8c-0.1,1.3,0,2.6,0.3,3.8c0.1,0.2,0,0.3-0.2,0.3l-1.1,0.3c-0.2,0-0.3,0-0.3-0.2
	c-0.1-0.5-0.3-0.3-0.6-0.1c-0.7,0.4-1.5,0.4-2.3,0.1c-1.1-0.3-1.7-1.4-1.4-2.5c0.2-0.6,0.7-1.1,1.3-1.3
	C44.3,60.5,45.2,60.5,46.1,60.8z M45.1,61.7c-0.6,0-1,0.4-1.1,0.9c0,0,0,0,0,0.1c0,0.6,0.4,1,1,1c0,0,0.1,0,0.1,0c0.6,0,1-0.4,1-1
	S45.7,61.7,45.1,61.7L45.1,61.7z"/>
<path class="st6" d="M140.6,62.2c-0.6,0-1.1,0-1.7,0c-0.3,0-0.3,0.1-0.2,0.3c0.2,0.4,0.6,0.7,1,0.8c0.6,0.1,1.2,0.1,1.7-0.1
	c0.5-0.1,0.9,0.2,1.1,0.6c0.1,0.4-0.2,0.4-0.4,0.6c-1.6,1-3.8,0.4-4.7-1.2c-0.1-0.2-0.2-0.4-0.3-0.6c-0.6-1.7,0.3-3.5,2-4
	c0.6-0.2,1.2-0.2,1.8-0.1c1.4,0.4,2.3,1.8,2.1,3.2c-0.1,0.4-0.3,0.4-0.5,0.4C141.8,62.2,141.2,62.2,140.6,62.2L140.6,62.2z
	 M139.9,61c0.3,0,0.7,0,1,0s0.4-0.2,0.3-0.5c-0.2-0.5-0.7-0.9-1.3-0.8c-0.6,0-1.2,0.4-1.4,1c-0.1,0.3,0,0.4,0.3,0.4
	S139.6,61,139.9,61z"/>
<path class="st6" d="M152.2,62.1c0.5-1,0.9-2,1.2-3.1c0.1-0.4,0.2-0.5,0.7-0.4c1.1,0.4,1.2,0.4,0.7,1.6c-0.8,2.3-1.9,4.3-3.5,6.2
	c-1.3,1.4-0.8,1.2-2.2,0c0,0,0,0,0-0.1c0.7-0.6,1.4-1.3,1.9-2.1c0.2-0.2,0.2-0.6,0-0.8c-0.8-1.2-1.5-2.4-2.1-3.7
	c-0.1-0.4-0.2-0.6,0.3-0.7c1.3-0.5,1.2-0.5,1.8,0.7C151.4,60.5,151.8,61.3,152.2,62.1z"/>
<path class="st3" d="M41.1,59.2c0,1.7,0,3.4,0,5.1c0,0.3-0.1,0.4-0.4,0.4c-0.2,0-0.3,0-0.5,0c-1,0-1,0-1-1c0.1-3,0.1-5.9,0-8.9
	c0-0.8,0-0.8,0.8-0.9c1.2-0.2,1.2-0.2,1.1,1C41.1,56.3,41.1,57.8,41.1,59.2z"/>
<path class="st7" d="M101.5,64.8c-0.3,0-0.7,0-1-0.2c-1-0.4-1.1-0.5-0.5-1.5c0.2-0.2,0.2-0.2,0.4-0.1c0.3,0.2,0.6,0.4,1,0.4
	c0.3,0,0.7,0,0.8-0.4s-0.2-0.5-0.5-0.6s-0.5-0.2-0.8-0.3c-1.1-0.4-1.4-0.9-1.4-1.9c0.1-0.9,0.8-1.7,1.7-1.8c0.8-0.1,1.7,0.1,2.4,0.5
	c0.2,0.1,0.3,0.3,0.1,0.5c-0.1,0.1-0.2,0.3-0.3,0.4c-0.1,0.4-0.3,0.4-0.7,0.2c-0.4-0.3-0.8-0.4-1.3-0.3c-0.2,0-0.4,0.1-0.4,0.3
	c0,0.2,0.1,0.4,0.2,0.4c0.2,0.1,0.5,0.2,0.8,0.3c1.3,0.4,1.9,1.1,1.8,2.2C103.8,64.2,102.7,64.9,101.5,64.8z"/>
<path class="st7" d="M58.5,64.8c-0.4,0-0.8-0.1-1.2-0.2c-1-0.4-1-0.4-0.5-1.3c0.2-0.3,0.3-0.4,0.6-0.2c0.3,0.2,0.7,0.4,1.1,0.4
	c0.3,0,0.6-0.1,0.6-0.5s-0.2-0.4-0.4-0.5s-0.6-0.2-0.9-0.3c-1.1-0.4-1.4-1-1.3-1.9c0.2-0.9,0.9-1.6,1.9-1.7c0.8-0.1,1.5,0.1,2.2,0.5
	c0.3,0.1,0.3,0.3,0.1,0.5c-0.1,0.1-0.2,0.3-0.3,0.4c-0.1,0.3-0.3,0.3-0.6,0.1c-0.4-0.2-0.8-0.4-1.2-0.3c-0.2,0-0.4,0.1-0.5,0.3
	s0.1,0.4,0.3,0.5c0.2,0.1,0.4,0.2,0.7,0.2c1.3,0.4,1.9,1.1,1.7,2.3C60.6,64.2,59.6,64.9,58.5,64.8z"/>
<path class="st7" d="M74.5,64.8c-0.6,0-1.2-0.2-1.7-0.5c-0.3-0.1-0.4-0.3-0.2-0.6c0-0.1,0.1-0.1,0.1-0.2c0.2-0.5,0.4-0.7,1-0.3
	c0.3,0.3,0.7,0.3,1.1,0.2c0.2-0.1,0.4-0.3,0.4-0.5c0-0.2-0.1-0.4-0.3-0.4l-1-0.4c-1-0.4-1.4-1-1.3-1.9c0.1-0.9,0.9-1.7,1.8-1.8
	c0.8-0.1,1.5,0.1,2.2,0.5c0.3,0.1,0.3,0.3,0.2,0.5c-0.1,0.2-0.2,0.4-0.3,0.5c-0.1,0.2-0.2,0.2-0.4,0.1c-0.4-0.3-0.8-0.4-1.3-0.4
	c-0.2,0-0.4,0.1-0.5,0.3c0,0.2,0.1,0.4,0.3,0.5c0.3,0.1,0.5,0.2,0.8,0.3c1.2,0.4,1.8,1.2,1.6,2.2c-0.3,1-1.2,1.7-2.2,1.6L74.5,64.8z
	"/>
<path class="st7" d="M28.6,64.8c-0.6,0-1.2-0.2-1.8-0.5c-0.2-0.1-0.4-0.3-0.2-0.5c0.1-0.1,0.1-0.2,0.2-0.3c0.2-0.5,0.4-0.6,0.9-0.3
	c0.3,0.2,0.6,0.3,0.9,0.3c0.3,0,0.5-0.1,0.6-0.4s-0.2-0.5-0.4-0.6s-0.6-0.2-0.9-0.3c-1-0.4-1.4-1-1.3-1.9c0.1-0.9,0.9-1.7,1.9-1.8
	c0.8-0.1,1.5,0.1,2.2,0.5c0.3,0.1,0.3,0.3,0.1,0.5c-0.1,0.1-0.2,0.3-0.2,0.4c-0.1,0.4-0.3,0.4-0.7,0.2c-0.3-0.2-0.7-0.3-1.1-0.3
	c-0.3,0-0.5,0.1-0.5,0.3s0.1,0.4,0.4,0.5s0.5,0.2,0.8,0.3c1.2,0.4,1.8,1.2,1.6,2.2c-0.3,1-1.2,1.7-2.2,1.6L28.6,64.8z"/>
<path class="st7" d="M145.8,59.4c0.5-0.6,1.2-0.9,1.9-0.7c0.3,0.1,0.5,0.2,0.4,0.6c0,0.1-0.1,0.3-0.1,0.4c-0.1,0.5-0.1,1-1,0.7
	c-0.6-0.2-1.1,0.3-1.2,1.1c-0.1,0.9-0.1,1.8,0,2.7c0,0.4-0.1,0.5-0.4,0.5c-1.3,0-1.3,0-1.3-1.3s0-2.9,0-4.3c0-0.3,0.1-0.4,0.3-0.4
	c0.3,0,0.5,0,0.8,0C145.7,58.6,146,58.7,145.8,59.4z"/>
<path class="st6" d="M68.2,61.3c0.1,0.9-0.6,1.6-1.5,1.7c-0.9,0.1-1.6-0.6-1.7-1.5c0-0.1,0-0.2,0-0.3c-0.1-0.9,0.6-1.6,1.5-1.7
	c0.9-0.1,1.6,0.6,1.7,1.5C68.2,61.1,68.2,61.2,68.2,61.3z"/>
<path class="st6" d="M111.2,61.3c0.1,0.9-0.6,1.6-1.5,1.7c-0.9,0.1-1.6-0.6-1.7-1.5c0-0.1,0-0.2,0-0.2c-0.1-0.9,0.6-1.6,1.5-1.7
	c0.9-0.1,1.6,0.6,1.7,1.5C111.2,61.2,111.2,61.3,111.2,61.3z"/>
<path class="st7" d="M163.2,30.8c0.6,0,1.3,0.1,1.8,0.4c0.5,0.3,0.5,0.8,0,1c-1.3,0.6-2.9,0.6-4.2,0c-0.4-0.2-0.4-0.5,0.1-0.8
	C161.6,31.1,162.4,30.9,163.2,30.8z"/>
<path class="st8" d="M204.7,47.4c-1.1,0.1-2-0.6-2.3-1.6c-0.1-0.6,0.1-1.3,0.6-1.7c0.8-0.7,2-0.8,3-0.2c0.7,0.4,1.1,1.2,0.9,2
	c-0.3,0.8-1,1.4-1.9,1.5L204.7,47.4z M204.7,47c0.9,0.1,1.8-0.6,1.8-1.6c-0.2-1-1.1-1.7-2.1-1.6c-0.8,0.1-1.5,0.8-1.6,1.6
	C202.9,46.4,203.7,47.1,204.7,47L204.7,47z"/>
<path class="st9" d="M64.6,44.2H64c-0.9,0-1-0.1-0.9-1c0.2-1.1,0.5-2.2,0.9-3.3c0.3-0.8,0.6-1.6,0.8-2.4c0.1-0.5,0.5-0.8,0.9-0.8
	c1.6-0.3,3.1,0.4,4.1,1.7c0.9,1.2,0.7,3-0.4,4c-1.1,1-2.5,1.6-4,1.7C65.1,44.2,64.8,44.2,64.6,44.2z"/>
<path class="st10" d="M90.9,40.1c-0.2,0-0.4,0-0.6-0.1c-0.4,0-0.6-0.4-0.6-0.7c0,0,0-0.1,0-0.1c0.2-0.9,0.9-1.6,1.8-1.9
	c0.9-0.1,1.7,0.3,2.1,1.1c0.3,0.4,0.3,0.7-0.2,1C92.8,39.9,91.9,40.1,90.9,40.1z"/>
<path class="st10" d="M135.9,40.1c-0.1,0-0.4,0-0.6,0c-0.4,0-0.6-0.3-0.6-0.7c0-0.1,0-0.1,0-0.2c0.2-0.9,0.9-1.6,1.8-1.9
	c0.9-0.1,1.8,0.4,2.2,1.2c0.2,0.2,0.1,0.6-0.1,0.7c0,0-0.1,0.1-0.1,0.1C137.7,39.9,136.8,40.1,135.9,40.1z"/>
<path class="st9" d="M30.1,39c0.9,0,1.8,0.3,2.6,0.7c0.9,0.5,1.3,1.7,0.9,2.7c-0.4,1.1-1.6,1.7-2.7,1.3c-1.4-0.3-2.5-1.4-2.8-2.8
	c-0.3-0.9,0-1.4,0.9-1.7C29.2,39,29.7,38.9,30.1,39z"/>
<path class="st9" d="M179.4,41c-0.2,1.6-1.6,2.8-3.2,2.6c0,0,0,0-0.1,0h-0.2c-0.8,0-1.6-0.5-1.9-1.3c-0.2-0.8,0-1.7,0.7-2.3
	c0.9-1.1,2.5-1.3,3.7-0.7C179.1,39.6,179.4,40.3,179.4,41z"/>
<path class="st10" d="M117.8,61.7c0-0.1,0-0.3,0-0.4c0-1,0.2-1.2,1.1-1.2c0.8-0.1,1.5,0.5,1.6,1.3c0.1,1-0.6,1.8-1.6,1.9
	c-0.1,0-0.3,0-0.4,0c-0.4-0.1-0.7-0.2-0.6-0.7C117.8,62.3,117.8,62,117.8,61.7z"/>
<path class="st11" d="M53.4,61.7c0,0.1,0,0.2,0,0.4c-0.1,0.4,0.2,0.9-0.3,1.1c-0.6,0.3-1.2,0.2-1.7-0.1c-0.5-0.5-0.7-1.4-0.4-2.1
	c0.3-0.6,1.1-1,1.8-0.8c0.5,0.1,0.8,0.3,0.7,0.9C53.4,61.3,53.4,61.5,53.4,61.7z"/>
<path class="st11" d="M94.2,61.5c0-0.1,0-0.1,0-0.2c0-1.1,0.1-1.2,0.8-1.3c0.8-0.2,1.6,0.2,1.8,1c0.3,0.8,0,1.7-0.8,2
	c-0.3,0.2-0.7,0.2-1.1,0.1c-0.4-0.1-0.8-0.3-0.7-0.9C94.2,62,94.3,61.8,94.2,61.5z"/>
<path class="st10" d="M80.8,60c0.9,0,1.6,0.7,1.6,1.5c0,0,0,0.1,0,0.1c0.1,0.9-0.6,1.6-1.5,1.7c-0.9,0.1-1.6-0.6-1.7-1.5
	c0-0.1,0-0.2,0-0.3C79.2,60.7,79.9,60,80.8,60C80.8,60,80.8,60,80.8,60z"/>
<path class="st11" d="M34.8,63.6c-0.6,0-1-0.4-1.1-0.9c0,0,0-0.1,0-0.1c0-0.6,0.4-1,1-1c0,0,0.1,0,0.1,0c0.6,0,1,0.4,1,1
	S35.4,63.6,34.8,63.6L34.8,63.6z"/>
<path class="st11" d="M125.8,61.7c0.6,0,1,0.4,1,1s-0.4,1-1,1c-0.6,0-1-0.4-1.1-0.9c0,0,0-0.1,0-0.1
	C124.7,62.1,125.2,61.6,125.8,61.7C125.8,61.6,125.8,61.6,125.8,61.7z"/>
<path class="st10" d="M45.1,61.7c0.6,0,1,0.4,1,1s-0.4,1-1,1c-0.5,0.1-1-0.3-1.1-0.9c0,0,0-0.1,0-0.1c0-0.6,0.4-1,1-1
	C45,61.6,45,61.6,45.1,61.7z"/>
<path class="st12" d="M139.9,61c-0.3,0-0.7,0-1,0s-0.4-0.1-0.3-0.4c0.2-0.6,0.7-1,1.4-1c0.6,0,1.1,0.3,1.3,0.8
	c0.1,0.3,0.1,0.5-0.3,0.5S140.2,61,139.9,61z"/>
<path class="st12" d="M204.7,47c-1,0.1-1.8-0.6-1.9-1.6c0,0,0,0,0,0c0.2-1,1.1-1.7,2.1-1.6c0.8,0.1,1.5,0.8,1.6,1.6
	C206.5,46.3,205.6,47,204.7,47z M203.7,45.3c0,0.3,0,0.5,0,0.7s-0.1,0.5,0.3,0.5s0.4-0.2,0.4-0.4c0-0.1-0.1-0.3,0.2-0.3
	s0.4,0,0.5,0.2c0,0.1,0.1,0.3,0.1,0.4c0.1,0.2,0.2,0.1,0.4,0.1s0.3,0,0.2-0.2c-0.1-0.5-0.3-0.9,0-1.4c0.1-0.1-0.1-0.4-0.3-0.4
	c-0.5-0.2-1.1-0.2-1.6-0.1C203.5,44.5,203.7,45.1,203.7,45.3L203.7,45.3z"/>
<path class="st4" d="M203.7,45.4c0.1-0.3-0.2-0.9,0.1-1c0.5-0.2,1.1-0.1,1.6,0.1c0.2,0.1,0.4,0.3,0.3,0.4c-0.3,0.5-0.1,0.9,0,1.4
	c0,0.2-0.1,0.2-0.2,0.2s-0.3,0.1-0.4-0.1c0-0.1,0-0.3-0.1-0.4c-0.1-0.2-0.3-0.2-0.5-0.2s-0.2,0.2-0.2,0.3c0,0.3,0,0.5-0.4,0.4
	s-0.3-0.3-0.3-0.5S203.7,45.6,203.7,45.4z M205.1,45c0-0.2-0.2-0.2-0.4-0.3s-0.3,0-0.3,0.3s0,0.4,0.2,0.4S205,45.3,205.1,45
	L205.1,45z"/>
<path class="st12" d="M205.1,45c-0.1,0.3-0.3,0.3-0.5,0.3s-0.2-0.2-0.2-0.4s0.1-0.3,0.3-0.3S205,44.8,205.1,45z"/>
</svg>
