<?xml version="1.0" encoding="utf-8"?>
<!-- Generator: Adobe Illustrator 21.1.0, SVG Export Plug-In . SVG Version: 6.00 Build 0)  -->
<svg version="1.1" id="Layer_1" xmlns="http://www.w3.org/2000/svg" xmlns:xlink="http://www.w3.org/1999/xlink" x="0px" y="0px"
	 viewBox="0 0 237.5 46.8" style="enable-background:new 0 0 237.5 46.8;" xml:space="preserve">
<style type="text/css">
	.st0{fill:#FFFFFF;}
</style>
<title>Speedee Mart</title>
<path d="M138.7,46.3H72.8c-0.5-0.2-1-0.4-1.5-0.4c-8.2-0.1-16.3-0.2-24.5-0.2c-0.8,0-1.5,0.1-2.3,0c-1.5,0.1-2.7-1.1-2.8-2.5
	c0,0,0-0.1,0-0.1c-0.1-0.4-0.2-0.8-0.3-1.1c-1,0.3-2.1,0.6-3,0.9c-2.8,1.2-5.7,2-8.8,2.2C24.3,45.2,19,45.2,13.7,45
	c-2.2-0.1-4.4-1-6.6-1.5c-0.1,0-0.2-0.1-0.3-0.2c-1.1-0.7-2.2-1.4-3.3-2.2c-1.9-1.1-3-3.2-3-5.4c0-3.1,1.4-5.8,2.7-8.5
	c0.5-1.1,1.6-1.8,2.8-1.6c1.9,0.1,3.8-0.1,5.7-0.1c0.3,0,0.9-0.2,1-0.4c0.1-0.4,0-0.9-0.2-1.2c-0.1-0.3-0.5-0.4-0.7-0.6
	c-1.5-1.1-2.5-2.6-3-4.3c-0.4-2.4,0-4.9,1.1-7c1-2.3,2.6-4.4,4.6-6c2-1.7,4.4-2.8,6.9-3.2c0.3-0.1,0.6-0.2,0.9-0.3
	c1.1-0.3,2.3-0.7,3.4-0.9s2.3-0.5,3.4-0.7c0.5-0.1,1-0.2,1.7-0.4h11c1.1,0.2,2.1,0.5,3.2,0.8c3.6,0.7,6.9,1.5,9.6,4.1
	c0.6,0.8,1.6,0.9,2.4,0.4c0,0,0.1,0,0.1-0.1c0.4-0.2,0.9-0.3,1.4-0.3c3.2,0,6.5,0,9.7,0c0.9,0,1.7-0.1,2.6-0.4
	c2.6-0.8,4.9,0.1,7,1.5c1,0.7,2,1.4,3.3,0.6c1.7-1.1,3.6-1.7,5.6-1.8c0.2,0,0.4-0.1,0.7-0.2c4.4-0.8,8.6-0.3,12.1,2.8
	c0.6,0.7,1.7,0.8,2.5,0.1c1.6-1.5,3.6-2.4,5.8-2.6c0.3,0,0.7-0.1,1-0.2c4-1.2,8.3-0.6,11.7,1.7c0.4,0.2,0.7,0.5,1,0.8
	c0.5,0.4,1.1,0.6,1.6,0c2.2-2.2,5-2.8,7.9-3.1c0.4,0,0.9,0,1.3,0.1c2.1,0.5,2.2,0.4,3-1.5s1-2.1,3.1-2.1c3,0,6,0,9,0
	c2.3,0,3.2,1.1,2.8,3.3c-0.2,0.9,0.2,1.2,1,1.1c0.8,0,1.5-0.1,2.2-0.3c3.4-1.2,6.7-0.2,10,0.5c0.2,0.1,0.4,0.2,0.6,0.3
	c0.8,0.7,1.6,1.4,2.5,2c0.7,0.5,1.7,0.5,2.4-0.2c1.5-1.3,3.4-2.2,5.4-2.4c0.7-0.1,1.5-0.4,2.2-0.4c1.7-0.2,3.4-0.3,5.2-0.2
	c1.6,0.3,3.2,0.7,4.8,1.2c0.4,0.1,0.8,0,1.1-0.1c1.9-0.5,3.7-1.2,5.5-2c1.4-0.7,3-1.2,4.6-1.3c0.3-0.1,0.6-0.1,0.9-0.3
	c0.7-0.4,1.5-0.6,2.3-0.8c3.6-0.1,7.1-0.1,10.6-0.1c0.5,0,1.3,0.1,1.4,0.6c-0.1,0.6-0.4,1.1-0.8,1.5c-0.3,0.3-0.5,0.5-0.9,0.7
	c-1.2,0.9-2.5,1.7-3.7,2.7c-0.7,0.6-0.4,1.1,0.4,1.3c0.4,0.1,0.8,0.1,1.2,0.1c5.7,0.7,11.2-1,16.7-1.8c0.3-0.1,0.7-0.2,1-0.4
	c1.8-0.7,3.6-1.4,5.3-2.1c0.4-0.2,0.7-0.4,1.1-0.6l3.9-2v4c-0.3,0.6-0.6,1.1-0.7,1.7c-0.5,2.5-1,5.1-1.5,7.6c-0.5,2.3-1,4.6-1.5,6.9
	c-0.5,2.5-0.9,5-1.4,7.4c-0.3,1.4-0.6,2.7-1,4.1c0,0.1-0.1,0.2-0.1,0.3c-1.1,1.1-2.1,2.2-3.2,3.2c-0.7,0.6-1.5,1.2-2.3,1.7
	c-1.1,0.8-2.2,1.5-3.4,2.2c-1.4,0.7-2.9,1.2-4.3,1.9c-2.3,1.2-4.8,2.1-7.4,2.6c-0.5,0.1-0.9,0.6-1.3,0.9h-20.6
	c-0.2-0.3-0.3-0.5-0.6-0.7c-2-1.5-2.1-1.7-0.9-3.9c0.1-0.2,0.3-0.4,0.3-0.6c-0.1-0.6-0.2-1.1-0.3-1.7c-0.5,0.4-1.2,0.6-1.5,1.1
	c-1,1.9-1.9,3.9-2.9,5.9h-40C140.7,44.8,140.1,44.8,138.7,46.3z M42.7,15.4L42.7,15.4c2.3,0,4.6,0.1,6.9,0c0.7,0,1.3-0.4,1.7-0.9
	c1.1-1.8,2-3.8,1.7-6c-0.2-0.9-0.7-1.8-1.5-2.4c-2.5-1.6-5.3-2.4-8.3-2.5c-4.5-0.2-9-0.1-13.5-0.1c-1.2,0-2.4,0.2-3.5,0.6
	c-2.3,0.6-4.6,1.2-6.9,2c-1.3,0.5-2.5,1.2-3.6,2c-2.3,1.7-3.5,4.1-4.7,6.6c-1.2,2.3-0.6,5.2,1.5,6.8c1.1,0.8,2.2,1.5,3.4,2
	c3.3,1.5,6.6,2.9,9.9,4.4c1.1,0.4,1.7,1.4,1.7,2.6c-0.2,3.1-2.9,5.6-6,5.5c-1.9,0-2.5-1-1.6-2.8c0.5-1,1.1-1.9,1.5-3
	c0.6-1.6,0.4-2.3-1.4-2.3c-4.4,0.1-8.8,0-13.1,0c-1.1-0.1-2,0.6-2.3,1.6c-0.5,1.2-1.1,2.4-1.6,3.7C2,35.8,3,38.7,5.3,39.8
	c3.3,1.4,6.9,2.2,10.5,2.4c4.5,0.4,9,0.2,13.4-0.8c2.5-0.5,5.1-1.1,7.6-1.8c1.3-0.5,2.6-1.2,3.7-2c1.7-1.3,3.1-2.9,4-4.9
	c1.1-2.1,2.1-4.3,1.7-6.8c-0.1-0.7-0.3-1.4-0.8-2c-1.1-1.1-2.4-2-3.8-2.7c-3.5-1.6-7.1-3-10.6-4.5c-1.3-0.4-2.2-1.7-2-3.1
	c0.5-2.7,3.1-4.5,5.8-4c0.7,0,1.2,0.6,1.1,1.3c0,0.2-0.1,0.4-0.1,0.5c-0.3,0.8-0.7,1.5-0.9,2.3c-0.5,1.3-0.3,1.6,1.2,1.7
	C38.1,15.4,40.4,15.4,42.7,15.4z M64.4,27.4c3.4-0.4,6.2-1.2,7.4-4.3c1.7-3.9,3.2-7.9,4.7-11.8c0.7-1.2,0.2-2.8-1-3.4
	c-0.2-0.1-0.5-0.2-0.7-0.2C72.9,7,70.8,7.1,69,8c-0.9,0.4-1.7,0.9-2.5-0.1c-0.3-0.2-0.7-0.3-1.1-0.3c-1.8,0-3.6,0-5.4,0
	C59.1,7.5,58.3,8,58,8.8c-1,2.4-2,4.8-2.9,7.2c-1.5,3.8-2.9,7.5-4.5,11.3c-1.5,3.8-3,7.4-4.5,11.1c-0.4,0.9-0.7,1.8-1,2.8
	c-0.3,0.9,0.1,1.3,1.1,1.3c1.7,0,3.5-0.1,5.2,0c1.1,0.1,2.1-0.6,2.4-1.7c1.5-3.6,2.9-7.3,4.4-10.9c0.5-1.1,1-2.2,1.5-3.3
	c0.3-0.6,0.7-0.7,1.3-0.4C62.2,26.7,63.5,27,64.4,27.4L64.4,27.4z M115.5,36.1l0.4,0.1c0,0.6-0.1,1.2-0.2,1.8c-0.3,1-0.8,2-1.3,2.9
	c-0.5,1.2-0.3,1.6,1,1.6c2.3,0.1,4.5,0.1,6.8,0c0.6,0,1.2-0.4,1.5-0.9c1.5-3.3,2.8-6.6,4.2-9.9c0.5-1.1,0.1-1.6-1.2-1.6
	c-3.8,0-7.7,0-11.5,0c-0.7,0-1.3,0.3-1.8,0.8c-0.9,0.9-1.7,2-2.5,3c-0.4,0.4-0.9,0.8-1.4,1.2l-0.4-0.1c-0.1-1.1-0.2-2.2-0.3-3.3
	c0-0.9-0.4-1.5-1.3-1.5c-4.1,0-8.1,0-12.2,0c-0.7,0-1.4,0.5-1.5,1.2c-0.4,1.3-1.1,2.5-1.6,3.7c-0.8,2-1.7,4-2.4,6
	c-0.4,1.1,0,1.4,1.1,1.4c1.9,0,3.7,0,5.6,0c2.3,0,2.5-0.2,3.3-2.4c0.4-1.1,0.8-2.1,1.3-3.2c0.2-0.4,0.7-0.6,1.1-0.9
	c0.2,0.4,0.3,0.7,0.4,1.1c0.1,1.3,0.2,2.5,0.2,3.8c0,1.1,0.5,1.6,1.6,1.6c1.3,0,2.7,0.1,4,0c0.8-0.1,1.5-0.4,2.1-1
	C112.4,39.8,113.9,37.9,115.5,36.1L115.5,36.1z M133,26.9v-0.2c0.9,0,1.7,0,2.6,0c0.9,0.1,1.8-0.5,2.1-1.4c0.8-2,1.6-4.1,2.4-6.2
	s1.7-4.2,2.5-6.4c1-2.7,2-5.3,3-7.9c0.3-0.8,0.1-1.4-0.9-1.4c-1.9,0-3.9,0-5.8,0c-0.9,0-1.6,0.6-1.8,1.4c-0.3,1-0.8,1.9-1.1,2.9
	c-0.1,0.4-0.5,0.7-0.9,0.7c-0.2,0-0.3-0.1-0.4-0.2c-1.5-1-3.2-0.9-4.9-0.8c-3,0.1-5.6,1.9-6.6,4.7c-1.4,3.3-2.7,6.7-3.9,10.1
	c-0.3,0.9-0.4,1.8-0.3,2.7c0.1,0.6,0.5,1.2,1.1,1.5c1.6,1,3.6,1.2,5.3,0.5c1-0.4,2-0.6,3.1-0.6C129.9,26.4,131.5,26.6,133,26.9
	L133,26.9z M159.6,17.6L159.6,17.6c0.6,0,1.2,0,1.8,0c1.1,0.2,2.1-0.4,2.4-1.5c0.5-1.2,0.9-2.4,1.2-3.7c0.1-0.9-0.1-1.8-0.5-2.5
	c-1-1.5-2.7-2.4-4.5-2.4c-3.3-0.2-6.5-0.3-9.6,1.1c-1.8,0.7-3.3,1.9-4.2,3.6c-1.4,2.9-2.7,5.9-3.8,9c-0.8,2.4-0.2,4.4,2.8,5.3
	c4.5,1.4,9.5,0.8,13.5-1.7c1.6-1,2.8-2.5,3.4-4.3c0.3-0.5,0.1-1.1-0.4-1.4c-0.2-0.1-0.4-0.2-0.6-0.1c-1.7,0-3.3,0-5,0
	c-1-0.1-1.9,0.6-2.1,1.6c-0.3,0.8-0.7,1.6-1.1,2.3c-0.4,0.7-1.3,1.1-2.1,0.7c-0.9-0.4-0.5-1.1-0.2-1.7s0.5-1.3,0.7-2
	c0.6-1.8,1.5-2.3,3.3-2.2S157.9,17.6,159.6,17.6L159.6,17.6z M172.3,27.5c2.2-0.3,4.3-0.8,6.4-1.4c2.5-0.8,4.5-2.7,5.5-5.2
	c0.5-1.3,0.1-1.9-1.4-2s-2.7,0-4,0c-1.2-0.1-2.4,0.7-2.6,1.9c-0.3,0.8-0.7,1.6-1.3,2.2c-0.5,0.3-1.1,0.5-1.7,0.3
	c-0.2,0-0.3-0.9-0.4-1.3c0-0.3,0.1-0.7,0.3-1c1-3.3,1.6-3.7,5-3.5c2,0.1,4,0.1,6-0.1c0.7-0.1,1.3-0.4,1.6-0.9
	c0.8-1.7,1.8-3.5,1.4-5.5c-0.2-0.9-0.6-1.7-1.3-2.2c-1.3-1-3-1.5-4.6-1.5c-2.9,0-5.8,0-8.6,1.2c-2,0.7-3.6,2.2-4.5,4.1
	c-1.3,2.9-2.5,5.9-3.6,9c-0.7,1.7,0,3.7,1.8,4.5c0.1,0,0.2,0.1,0.2,0.1C168.4,26.8,170.3,27.2,172.3,27.5L172.3,27.5z M112.3,7.4
	c-2.2-0.1-4.5,0.3-6.5,1.1c-2.1,0.7-3.8,2.3-4.8,4.3c-1.3,2.8-2.3,5.7-3.4,8.7c-0.8,2.3,0.2,4.1,2.5,4.9c3.5,1.2,7.4,1.2,10.9-0.1
	c2.8-0.7,5.1-2.8,6.2-5.5c0.5-1.2,0.1-1.8-1.2-1.8s-2.5,0-3.8,0c-1.9,0-2.5,0.4-3.2,2.2c-0.2,0.7-0.6,1.4-1.1,1.9
	c-0.5,0.3-1.1,0.5-1.7,0.4c-0.2,0-0.5-0.9-0.4-1.3c0.2-1,0.8-2,1-3c0.1-0.8,0.9-1.5,1.7-1.5c0.5,0,1-0.1,1.5-0.1
	c2.2,0,4.4,0.1,6.6,0c0.8,0,1.5-0.4,2-0.9c1-1.6,1.5-3.5,1.4-5.4c-0.1-1.1-0.7-2.1-1.7-2.7C116.5,7.3,114.4,7.3,112.3,7.4L112.3,7.4
	z M90.3,7.4c-2.3-0.1-4.6,0.3-6.7,1.1c-2,0.7-3.7,2.1-4.7,4c-1.3,3-2.5,6-3.7,9c-0.7,1.9,0.2,4,2.1,4.7c0.1,0,0.1,0.1,0.2,0.1
	c4.6,1.6,9.6,1.1,13.8-1.3c1.7-0.9,3-2.5,3.6-4.3c0.4-1.1,0-1.8-1.3-1.8c-1.4,0-2.8,0-4.3,0c-1.2-0.1-2.3,0.7-2.5,1.8
	c-0.2,0.8-0.7,1.6-1.2,2.3c-0.5,0.3-1.1,0.5-1.8,0.4c-0.3-0.4-0.4-0.9-0.3-1.3c0.2-1,0.8-1.9,1-2.9c0.2-1,1.1-1.7,2.2-1.6
	c2.1,0,4.2,0.1,6.4,0.1c1.2,0,2.8,0.2,3.4-1.1c0.7-1.7,1.1-3.5,1.4-5.3c0.2-1.2-0.7-2-1.7-2.7C94.4,7.3,92.4,7.4,90.3,7.4L90.3,7.4z
	 M170.7,30v0.1c-2.9,0-5.8,0-8.6,0c-1,0-1.8,0.2-2.2,1.4c-0.4,1.1-0.9,2-1.3,3c-0.9,2.1-1.8,4.2-2.6,6.3c-0.5,1.4-0.2,1.7,1.3,1.7
	c2.4,0,4.8,0,7.2,0c1.1,0.1,2.2-0.6,2.5-1.8c0.4-1,0.8-2,1.2-3s1.4-0.9,2.3-0.8s0.9,0.9,0.7,1.6s-0.6,1.5-0.9,2.3
	c-0.4,1.2-0.1,1.6,1.1,1.6c2.4,0,4.7,0,7.1,0c0.8,0.1,1.7-0.4,1.9-1.2c0.3-0.9,0.7-1.8,1.1-2.6c0.4-0.6,0.2-1.4-0.4-1.7c0,0,0,0,0,0
	c-0.7-0.5-0.4-0.9,0.1-1.3c0.7-0.4,1.4-1,2-1.6c1-1.1,1-1.9-0.2-2.9c-0.6-0.5-1.3-0.8-2.1-0.9C177.5,30.2,174.1,30.1,170.7,30z
	 M144.1,30.1c-2.2,0-4.4-0.1-6.6,0c-0.7,0-1.4,0.2-1.9,0.7c-2.9,3.3-5.8,6.7-8.6,10c-0.3,0.4-0.5,0.8-0.6,1.3c0.5,0.2,1,0.4,1.5,0.4
	c2.6,0,5.2,0.1,7.8,0c0.7,0,1.3-0.3,1.8-0.9c0.8-1.1,2.1-1.7,3.5-1.5c0.7,0.1,1.1,0.3,1.2,1c0.1,1.1,0.8,1.4,1.8,1.4
	c2.5,0,5,0,7.5,0c1.7,0,1.9-0.2,1.8-1.9c-0.3-3.1-0.6-6.1-0.9-9.2c-0.1-1-0.6-1.4-1.6-1.3C148.5,30.1,146.2,30.1,144.1,30.1
	L144.1,30.1z M199.5,30.1h-10.1c-0.5,0-1.1-0.1-1.4,0.1c-0.4,0.3-0.7,0.8-0.8,1.3c-0.1,0.7,0.4,1,1,1c0.9,0,1.8,0,2.7,0
	c1.3,0,1.8,0.6,1.3,1.8c-0.9,2.2-1.8,4.4-2.7,6.5c-0.5,1.2-0.3,1.6,1,1.6c2.7,0,5.4,0,8.2,0c0.7,0.1,1.4-0.4,1.6-1.1
	c1-2.4,2-4.7,2.9-7.1c0.3-1.2,1.4-2,2.6-1.8c1.3,0,2.7,0,4-0.1c0.8,0,1.4-0.6,1.4-1.4c0,0,0-0.1,0-0.1c-0.1-0.9-0.8-0.8-1.4-0.8
	L199.5,30.1z M191.3,10.9c0,0.9,0,1.5,1,1.3c2.2-0.4,4.5-0.8,6.7-1.1c1,0,1.9-0.7,2.1-1.7c0.4-1.6,0.9-3.1,1.4-4.6
	c0.4-1.3,0.3-1.7-1.2-1.6c-0.5,0-0.9,0.1-1.4,0.2c-1.4,0.3-2.7,0.7-4,1.1c-1.2,0.5-2.6,1-3.2,2C191.9,7.9,191.7,9.7,191.3,10.9
	L191.3,10.9z M188.4,27.7L188.4,27.7c1.7-0.1,3.5-0.3,5.2-0.5c0.5,0,1.1-0.3,1.4-0.7c0.9-1.8,1.6-3.6,2.3-5.5c0.3-1-0.2-1.3-1.2-1.1
	c-2.2,0.3-4.4,0.7-6.5,1c-0.5,0.1-0.9,0.3-1.2,0.7c-0.7,1.6-1.3,3.2-1.9,4.8c-0.3,0.7,0.1,1.2,0.9,1.3L188.4,27.7z M235.4,6.2
	l-0.4-1.3l-1.2,0.5c-0.4,0.2-0.7,0.3-1.1,0.5c-1.2,0.6-2.5,1.1-3.7,1.7c-0.2,0.1-0.4,0.4-0.5,0.6c-0.4,1.7-0.9,3.4-1.2,5.1
	c-0.2,0.9,0.3,1.3,1.2,0.9c1.4-0.6,2.9-1.2,4.3-2c0.6-0.3,1.1-0.8,1.4-1.3C234.6,9.4,234.9,7.8,235.4,6.2L235.4,6.2z M206.7,44.4
	c0.7-0.1,1.9-0.2,3.1-0.6c0.6-0.1,1.1-0.5,1.5-1c0.5-1.4,0.9-2.9,1.2-4.4c0.2-1-0.3-1.3-1.2-1.2c-0.7,0.1-1.3,0.4-1.9,0.5
	c-2.3,0.1-4.3,1.7-4.8,4C203.9,43.7,204.1,44.4,206.7,44.4z M217.7,22.4c1.5-0.2,2.6-0.4,3.6-0.5c2.3-0.4,3.9-1.4,3.9-4
	c0-0.3,0.1-0.5,0.2-0.8c0.4-1.4,0-1.8-1.5-1.5c-1.1,0.3-2.2,0.8-3.3,1c-3.4,0.4-3.3,0.7-3.7,4c0,0.2-0.2,0.5-0.1,0.7
	C217.2,21.7,217.5,22,217.7,22.4z M226.1,26.4c0.9-0.4,2.1-0.9,3.3-1.4c1.6-0.7,2.8-1.6,2.9-3.6c0.1-0.7,0.3-1.4,0.4-2.1
	c0.1-0.4,0.1-1-0.1-1.2s-0.8-0.2-1.2,0c-1.6,0.5-3.1,1.2-4.6,1.9c-0.7,0.4-1.3,1.1-1.6,1.8c-0.3,1.1-0.5,2.2-0.5,3.4
	C224.7,25.9,225.1,26.3,226.1,26.4L226.1,26.4z M215,35.9c2.2-0.6,4-1.1,5.9-1.7c0.3-0.1,0.5-0.4,0.6-0.7c0.4-1.4,0.8-2.9,1.2-4.3
	c0.1-0.3,0.1-0.9-0.1-1.1c-0.4-0.2-0.8-0.3-1.2-0.2c-1.3,0.4-2.6,0.8-3.9,1.2c-0.3,0.1-0.8,0.3-0.9,0.5c-0.8,1.6-1.5,3.3-2.2,4.9
	C214.3,35,214.7,35.5,215,35.9L215,35.9z M210.4,27.7L210.4,27.7c1,0.1,2,0.1,3.1,0c0.6-0.1,1.2-0.5,1.5-1c0.3-1,0.4-2,0.4-3
	c0-1.1-0.4-1.3-1.4-1c-1.8,0.6-3.7,0.7-5.5,0.3c-0.5,0-0.9,0.2-1.2,0.5c-0.4,0.9-0.8,1.8-1,2.8c-0.2,0.9,0.1,1.4,1.1,1.4
	S209.4,27.7,210.4,27.7L210.4,27.7z M221,38.7c0.1,0.2,0.3,0.7,0.5,0.8s0.7-0.2,1-0.4c1.1-0.7,2.2-1.3,3.3-2c1.5-1,2.9-2.1,4.2-3.3
	c0.4-0.5,0.5-1.1,0.5-1.8c0-0.7-0.3-1.3-1.3-0.8c-1.8,1-3.6,2-5.5,2.7c-1,0.3-1.8,1.1-2.1,2.1C221.4,37.1,221.2,37.9,221,38.7
	L221,38.7z M212.3,14.9l2.4-0.2c1.6-0.2,2.7-1.6,2.6-3.1c0-0.3-0.1-0.7-0.3-1c-0.2-0.3-0.5-0.4-0.9-0.5c-1.4,0-2.8,0-4.1,0
	c-0.9,0-1.7,0.5-2,1.4C208.8,14.1,209.4,15.1,212.3,14.9L212.3,14.9z M206.3,21.3c0.2-0.2,0.8-0.5,0.9-0.9c0.4-1.2,0.6-2.4,0.8-3.7
	c0-0.5-0.2-1-0.5-1.3c-0.8-0.5-1.6-0.9-2.5-1.3c-1-0.4-1.4-0.1-1.7,1s-0.4,2.2-0.7,3.2c-0.3,1,0.3,2,1.3,2.4
	C204.5,21,205.2,21.1,206.3,21.3L206.3,21.3z"/>
<path class="st0" d="M42.7,15.4c-2.3,0-4.6,0-6.9,0c-1.5,0-1.7-0.3-1.2-1.7c0.3-0.8,0.7-1.5,0.9-2.3c0.3-0.6,0.1-1.3-0.5-1.6
	c-0.2-0.1-0.3-0.1-0.5-0.1c-2.7-0.5-5.3,1.3-5.8,4c-0.2,1.4,0.7,2.7,2,3.1c3.6,1.5,7.2,2.9,10.6,4.5c1.4,0.7,2.7,1.6,3.8,2.7
	c0.5,0.6,0.7,1.3,0.8,2c0.4,2.5-0.6,4.7-1.7,6.8c-0.9,2-2.3,3.6-4,4.9c-1.1,0.8-2.4,1.5-3.7,2c-2.5,0.8-5,1.3-7.6,1.8
	c-4.4,0.9-8.9,1.2-13.4,0.8c-3.6-0.2-7.2-1-10.5-2.5C2.9,38.6,2,35.8,3.1,33c0.5-1.2,1.1-2.4,1.6-3.7C5,28.4,6,27.8,7,27.9
	c4.4,0,8.8,0.1,13.1,0c1.8,0,2,0.7,1.4,2.3c-0.4,1-1,2-1.5,3c-0.9,1.8-0.3,2.8,1.6,2.8c3.2,0.1,5.9-2.3,6.1-5.5
	c0.1-1.2-0.6-2.3-1.8-2.7c-3.3-1.5-6.6-2.9-9.9-4.4c-1.2-0.5-2.4-1.2-3.4-2c-2.1-1.6-2.7-4.5-1.5-6.8c1.2-2.5,2.5-4.9,4.7-6.6
	c1.1-0.8,2.3-1.5,3.6-2c2.3-0.8,4.6-1.4,6.9-2c1.1-0.3,2.3-0.5,3.5-0.6c4.5,0,9-0.2,13.5,0.1c2.9,0.1,5.8,1,8.3,2.5
	c0.8,0.6,1.3,1.5,1.4,2.4c0.3,2.2-0.7,4.2-1.7,6c-0.4,0.5-1.1,0.9-1.7,0.9C47.3,15.4,45,15.3,42.7,15.4L42.7,15.4z"/>
<path class="st0" d="M64.4,27.4c-0.9-0.3-2.2-0.7-3.4-1.3c-0.7-0.3-1.1-0.2-1.3,0.4c-0.5,1.1-1.1,2.2-1.5,3.3
	c-1.5,3.6-2.9,7.3-4.4,10.9c-0.3,1.1-1.3,1.8-2.4,1.7c-1.7-0.1-3.5,0-5.2,0c-1,0-1.3-0.4-1.1-1.3c0.3-0.9,0.6-1.9,1-2.8
	c1.5-3.7,3-7.4,4.5-11.1s3-7.5,4.5-11.3c1-2.4,2-4.8,2.9-7.2C58.2,8,59,7.5,59.8,7.6c1.8,0,3.6,0,5.4,0c0.4,0,0.8,0.1,1.1,0.3
	c0.9,1,1.6,0.5,2.5,0.1c1.9-0.9,4-1,5.9-0.3c1.4,0.3,2.3,1.6,2,3c0,0.2-0.1,0.5-0.2,0.7c-1.5,4-3.1,7.9-4.7,11.8
	C70.6,26.1,67.7,26.9,64.4,27.4z M67.8,11.9c-0.2-0.3-0.3-0.7-0.6-0.9c-0.4-0.1-0.8-0.1-1.1,0.1c-0.4,0.3-0.8,0.7-1,1.1
	c-1.3,3.3-2.6,6.7-3.9,10c-0.1,0.4,0,0.8,0.3,1.1c0.4,0.2,0.9,0.2,1.3,0c0.5-0.5,0.8-1,1.1-1.6c0.9-2.2,1.8-4.4,2.7-6.6
	C67,14.1,67.4,13,67.8,11.9L67.8,11.9z"/>
<path class="st0" d="M115.5,36.1c-1.6,1.8-3.2,3.7-4.8,5.4c-0.6,0.6-1.3,0.9-2.1,1c-1.3,0.2-2.7,0-4,0c-1.1,0-1.6-0.5-1.6-1.6
	c0-1.3-0.1-2.5-0.2-3.8c-0.1-0.4-0.2-0.8-0.4-1.1c-0.4,0.3-0.9,0.5-1.1,0.9c-0.5,1-0.9,2.1-1.3,3.2c-0.8,2.2-1,2.4-3.3,2.4
	c-1.9,0-3.7,0-5.6,0c-1.2,0-1.5-0.4-1.1-1.4c0.7-2,1.6-4,2.4-6c0.5-1.2,1.1-2.4,1.6-3.7c0.1-0.7,0.8-1.2,1.5-1.2c4.1,0,8.1,0,12.2,0
	c0.9,0,1.3,0.6,1.3,1.5c0,1.1,0.2,2.2,0.3,3.3l0.4,0.1c0.5-0.4,1-0.8,1.4-1.2c0.9-1,1.6-2.1,2.5-3c0.5-0.4,1.1-0.7,1.8-0.8
	c3.8-0.1,7.7,0,11.5,0c1.2,0,1.6,0.5,1.2,1.6c-1.4,3.3-2.7,6.6-4.2,9.9c-0.3,0.5-0.9,0.8-1.5,0.9c-2.3,0.1-4.5,0.1-6.8,0
	c-1.3,0-1.5-0.4-1-1.6c0.4-1,0.9-1.9,1.3-2.9c0.1-0.6,0.2-1.2,0.2-1.8L115.5,36.1z"/>
<path class="st0" d="M133,26.9c-1.5-0.3-3-0.5-4.5-0.7c-1.1,0-2.1,0.2-3.1,0.6c-1.8,0.7-3.7,0.5-5.3-0.5c-0.5-0.3-0.9-0.9-1.1-1.5
	c-0.1-0.9,0-1.8,0.3-2.7c1.2-3.4,2.6-6.8,3.9-10.1c1-2.8,3.6-4.7,6.5-4.7c1.7-0.1,3.4-0.2,4.9,0.8c0.3,0.3,0.8,0.3,1.1,0
	c0.1-0.1,0.2-0.3,0.2-0.4c0.4-1,0.8-1.9,1.1-2.9c0.2-0.8,1-1.4,1.8-1.4c1.9,0,3.9,0,5.8,0c1,0,1.2,0.5,0.9,1.4c-1,2.7-2,5.3-3,7.9
	c-0.8,2.1-1.7,4.2-2.5,6.4s-1.6,4.1-2.4,6.2c-0.3,0.9-1.2,1.5-2.1,1.4c-0.9,0-1.7,0-2.6,0L133,26.9z M127.7,22.7
	c0.3,0.3,0.6,0.9,0.8,0.8c0.5-0.1,1.2-0.4,1.4-0.8c1.1-2.4,2.1-4.9,3.1-7.4c0.4-1,0.8-2,1.1-3.1c0.1-0.4-0.3-1-0.5-1.5
	c-0.5,0.2-1,0.4-1.4,0.6c-0.1,0.1-0.2,0.3-0.3,0.5c-0.9,2.3-1.9,4.5-2.8,6.7C128.6,20,128.2,21.3,127.7,22.7L127.7,22.7z"/>
<path class="st0" d="M159.5,17.6c-1.7,0-3.4,0-5,0s-2.6,0.4-3.3,2.2c-0.2,0.7-0.5,1.3-0.7,2s-0.6,1.4,0.2,1.7
	c0.8,0.4,1.7,0.1,2.1-0.7c0.5-0.7,0.9-1.5,1.1-2.3c0.2-1,1.1-1.6,2.1-1.6c1.7,0,3.3,0,5,0c0.6-0.1,1.1,0.4,1.1,0.9
	c0,0.2,0,0.4-0.1,0.6c-0.6,1.8-1.8,3.3-3.4,4.3c-4,2.5-9,3.1-13.5,1.7c-3.1-0.9-3.7-2.9-2.8-5.3c1.1-3.1,2.4-6.1,3.8-9
	c0.9-1.7,2.4-2.9,4.2-3.6c3.1-1.4,6.4-1.3,9.6-1.1c1.8,0,3.5,0.9,4.5,2.4c0.4,0.8,0.6,1.7,0.5,2.5c-0.2,1.3-0.6,2.5-1.2,3.7
	c-0.3,1-1.3,1.7-2.4,1.5C160.8,17.6,160.2,17.6,159.5,17.6L159.5,17.6z M153.9,13.5c0.2,0.2,0.5,0.7,0.9,0.8c0.8,0.2,1.9-1,1.9-2.2
	c-0.1-0.5-0.4-0.9-0.9-1.1C155.1,10.7,154.1,12,153.9,13.5L153.9,13.5z"/>
<path class="st0" d="M172.2,27.5c-2-0.1-3.9-0.6-5.7-1.4c-1.8-0.6-2.7-2.6-2.1-4.3c0-0.1,0.1-0.2,0.1-0.2c1.1-3,2.3-6,3.6-9
	c0.9-1.9,2.5-3.3,4.5-4.1c2.8-1.2,5.7-1.2,8.6-1.2c1.7,0,3.3,0.5,4.6,1.5c0.7,0.6,1.2,1.4,1.3,2.2c0.4,2-0.6,3.8-1.4,5.5
	c-0.4,0.5-1,0.9-1.6,0.9c-2,0.2-4,0.2-6,0.1c-3.5-0.2-4.1,0.2-5,3.5c-0.1,0.3-0.2,0.7-0.3,1c0,0.5,0.2,1.3,0.4,1.3
	c0.6,0.1,1.2,0,1.7-0.3c0.5-0.7,1-1.4,1.3-2.2c0.3-1.2,1.4-2,2.6-1.9c1.3,0,2.7,0,4,0s1.8,0.7,1.4,2c-1,2.5-3,4.4-5.5,5.2
	C176.7,26.9,174.5,27.4,172.2,27.5z M179.1,11.6c-0.2-0.2-0.5-0.7-0.9-0.8c-0.6-0.2-2.1,1.6-2,2.5c0.1,0.5,0.5,0.8,0.9,1
	C178,14.5,179.1,13.1,179.1,11.6z"/>
<path class="st0" d="M112.3,7.3c2.2,0,4.3,0,6.2,1.2c1,0.5,1.6,1.5,1.7,2.7c0,1.9-0.4,3.8-1.4,5.4c-0.5,0.6-1.2,0.9-2,0.9
	c-2.2,0.1-4.4,0-6.6,0c-0.5,0-1,0-1.5,0.1c-0.9,0-1.6,0.6-1.7,1.5c-0.3,1-0.8,2-1,3c-0.1,0.4,0.2,1.3,0.4,1.3
	c0.6,0.1,1.2-0.1,1.7-0.4c0.5-0.6,0.9-1.2,1.1-1.9c0.7-1.8,1.2-2.2,3.2-2.2c1.3,0,2.5,0,3.8,0s1.7,0.7,1.2,1.8
	c-1.1,2.7-3.4,4.7-6.2,5.5c-3.5,1.2-7.4,1.3-10.9,0.1c-2.3-0.8-3.3-2.7-2.5-4.9c1.1-2.9,2.2-5.8,3.4-8.7c0.9-2,2.7-3.6,4.8-4.3
	C107.8,7.6,110,7.2,112.3,7.3z M112.3,12.1c-0.3-0.6-0.5-1.2-0.8-1.2c-0.5,0-0.9,0.1-1.2,0.4c-0.4,0.4-0.7,0.9-0.9,1.5
	c-0.1,0.4-0.1,0.9,0.2,1.2c0.4,0.2,0.9,0.3,1.3,0.1C111.3,13.5,111.8,12.8,112.3,12.1L112.3,12.1z"/>
<path class="st0" d="M90.3,7.3c2,0,4.1,0,5.9,1.2c1,0.7,1.9,1.5,1.7,2.7c-0.2,1.8-0.7,3.6-1.4,5.3c-0.6,1.3-2.2,1.1-3.4,1.1
	c-2.1,0-4.2-0.1-6.4-0.1c-1-0.1-2,0.6-2.2,1.6c-0.3,1-0.8,1.9-1,2.9c-0.1,0.5,0,0.9,0.3,1.3c0.6,0.1,1.2,0,1.8-0.4
	c0.5-0.7,1-1.4,1.2-2.3c0.3-1.2,1.4-1.9,2.5-1.8c1.4,0,2.8,0,4.3,0c1.2,0,1.7,0.6,1.3,1.8c-0.6,1.8-1.9,3.4-3.6,4.3
	c-4.2,2.4-9.2,2.9-13.8,1.3c-1.9-0.6-3-2.6-2.4-4.5c0-0.1,0-0.1,0.1-0.2c1.2-3,2.4-6.1,3.7-9c1-1.9,2.6-3.3,4.7-4
	C85.8,7.7,88,7.3,90.3,7.3z M89.9,11.7c-0.2-0.2-0.4-0.7-0.8-0.8c-0.7-0.2-2.2,1.7-2,2.5c0.1,0.4,0.5,0.8,0.9,0.9
	C88.7,14.5,89.9,13.1,89.9,11.7z"/>
<path class="st0" d="M170.7,30c3.4,0.1,6.8,0.3,10.2,0.5c0.8,0.1,1.5,0.4,2.1,0.9c1.2,0.9,1.3,1.7,0.2,2.9c-0.6,0.6-1.3,1.1-2,1.6
	c-0.6,0.4-0.8,0.8-0.1,1.3c0.6,0.4,0.8,1.1,0.4,1.7c0,0,0,0,0,0c-0.4,0.9-0.8,1.7-1.1,2.6c-0.3,0.8-1.1,1.3-1.9,1.2
	c-2.4,0-4.7,0-7.1,0c-1.2,0-1.5-0.4-1.1-1.6c0.3-0.8,0.6-1.5,0.9-2.3s0.2-1.4-0.7-1.6s-1.8-0.3-2.3,0.8s-0.8,2-1.2,3
	c-0.3,1.1-1.3,1.9-2.5,1.8c-2.4-0.1-4.8,0-7.2,0c-1.5,0-1.8-0.4-1.3-1.7c0.8-2.1,1.7-4.2,2.6-6.3c0.4-1,1-2,1.3-3
	c0.3-1,1.1-1.4,2.2-1.4c2.9,0,5.8,0,8.6,0L170.7,30z M170.7,34.8c1.7,0,2.5-0.5,2.5-1.3s-0.4-1.4-1.3-1.5s-1.9,0.8-1.8,1.6
	C170.1,34.2,170.6,34.6,170.7,34.8z"/>
<path class="st0" d="M144,30.1c2.2,0,4.4,0,6.6,0c1,0,1.5,0.4,1.6,1.3c0.3,3.1,0.6,6.1,0.9,9.2c0.1,1.7-0.1,1.9-1.8,1.9
	c-2.5,0-5,0-7.5,0c-1,0-1.7-0.2-1.8-1.4c-0.1-0.7-0.5-0.9-1.2-1c-1.3-0.2-2.7,0.4-3.5,1.5c-0.5,0.5-1.1,0.8-1.8,0.9
	c-2.6,0.1-5.2,0.1-7.8,0c-0.5-0.1-1-0.2-1.5-0.4c0.2-0.5,0.4-0.9,0.6-1.3c2.8-3.4,5.7-6.7,8.6-10c0.5-0.4,1.2-0.7,1.9-0.7
	C139.6,30.1,141.8,30.1,144,30.1z M143.1,35.4c0-0.3,0-0.5-0.1-0.8c-0.1-0.2-0.7-0.3-0.8-0.2c-0.7,0.6-1.3,1.4-1.8,2.2
	c-0.6,1.1-0.2,1.7,1.1,1.6S143.1,37.6,143.1,35.4L143.1,35.4z"/>
<path class="st0" d="M199.4,30.2h10.3c0.6,0,1.4-0.1,1.4,0.8c0.1,0.7-0.5,1.4-1.2,1.5c0,0-0.1,0-0.1,0c-1.3,0.1-2.7,0.1-4,0.1
	c-1.2-0.1-2.3,0.6-2.6,1.8c-1,2.4-2,4.7-2.9,7.1c-0.2,0.7-0.9,1.2-1.6,1.1c-2.7,0-5.4,0-8.2,0c-1.3,0-1.5-0.4-1-1.6
	c0.9-2.2,1.8-4.3,2.7-6.5c0.5-1.2,0-1.8-1.3-1.8c-0.9,0-1.8,0-2.7,0c-0.7,0-1.1-0.3-1-1c0.1-0.5,0.4-1,0.8-1.3
	c0.3-0.2,0.9-0.1,1.4-0.1L199.4,30.2L199.4,30.2z"/>
<path class="st0" d="M191.3,11c0.4-1.3,0.6-3,1.5-4.3c0.6-1,2.1-1.5,3.2-2c1.3-0.5,2.6-0.8,4-1.1c0.5-0.1,0.9-0.2,1.4-0.2
	c1.4-0.1,1.6,0.2,1.2,1.6c-0.5,1.5-1,3.1-1.4,4.6c-0.2,1-1.1,1.7-2.1,1.7c-2.3,0.3-4.5,0.6-6.7,1.1C191.2,12.5,191.3,11.9,191.3,11z
	"/>
<path class="st0" d="M188.3,27.7h-1.1c-0.9,0-1.2-0.5-0.9-1.3c0.6-1.6,1.2-3.3,1.9-4.8c0.3-0.4,0.7-0.7,1.2-0.7
	c2.2-0.4,4.4-0.7,6.5-1c1-0.2,1.5,0.2,1.2,1.1c-0.6,1.9-1.4,3.7-2.3,5.5c-0.3,0.4-0.9,0.7-1.4,0.7C191.8,27.5,190.1,27.6,188.3,27.7
	L188.3,27.7z"/>
<path class="st0" d="M235.3,6.2c-0.4,1.6-0.7,3.2-1.3,4.7c-0.3,0.6-0.8,1.1-1.4,1.3c-1.4,0.7-2.8,1.4-4.3,2c-0.9,0.4-1.3,0-1.2-0.9
	c0.3-1.7,0.8-3.4,1.2-5.1c0.1-0.3,0.2-0.5,0.5-0.6c1.2-0.6,2.5-1.2,3.7-1.7c0.4-0.2,0.7-0.3,1.1-0.5l1.2-0.5L235.3,6.2z"/>
<path class="st0" d="M206.7,44.4c-2.6,0-2.8-0.6-2.1-2.6c0.5-2.3,2.5-3.9,4.8-4c0.7-0.1,1.3-0.4,1.9-0.5c0.9-0.1,1.4,0.2,1.2,1.2
	c-0.3,1.5-0.7,2.9-1.2,4.4c-0.3,0.5-0.9,0.9-1.5,1C208.6,44.1,207.4,44.2,206.7,44.4z"/>
<path class="st0" d="M217.7,22.4c-0.3-0.4-0.5-0.8-0.7-1.2c-0.1-0.2,0-0.5,0.1-0.7c0.4-3.3,0.2-3.6,3.7-4c1.1-0.2,2.2-0.7,3.3-1
	c1.5-0.3,1.9,0.1,1.5,1.5c-0.1,0.3-0.2,0.5-0.2,0.8c0,2.7-1.6,3.7-3.9,4C220.3,22,219.2,22.2,217.7,22.4z"/>
<path class="st0" d="M226.1,26.4c-1.1-0.1-1.5-0.4-1.3-1.3c0.1-1.1,0.2-2.3,0.5-3.4c0.3-0.8,0.9-1.4,1.6-1.8c1.5-0.7,3-1.4,4.6-1.9
	c0.4-0.1,1-0.2,1.2,0s0.1,0.8,0.1,1.2c-0.2,0.7-0.4,1.4-0.4,2.1c0,2-1.2,2.9-2.9,3.6C228.2,25.4,227.1,26,226.1,26.4z"/>
<path class="st0" d="M215,35.9c-0.2-0.4-0.7-0.9-0.6-1.1c0.6-1.7,1.4-3.3,2.2-4.9c0.1-0.3,0.6-0.4,0.9-0.5c1.3-0.4,2.6-0.9,3.9-1.2
	c0.4-0.1,0.8-0.1,1.2,0.2c0.2,0.1,0.2,0.7,0.1,1.1c-0.4,1.4-0.8,2.9-1.2,4.3c-0.1,0.3-0.3,0.5-0.6,0.7C219,34.8,217.1,35.3,215,35.9
	z"/>
<path class="st0" d="M210.4,27.7c-1,0-2,0-3,0s-1.4-0.5-1.1-1.4c0.2-1,0.6-1.9,1-2.8c0.3-0.4,0.7-0.6,1.2-0.5
	c1.8,0.5,3.7,0.4,5.5-0.3c1.1-0.3,1.4-0.1,1.4,1c0,1-0.1,2-0.4,3c-0.3,0.5-0.9,0.9-1.5,1C212.4,27.8,211.4,27.8,210.4,27.7
	L210.4,27.7z"/>
<path class="st0" d="M221,38.8c0.1-0.8,0.3-1.7,0.5-2.5c0.3-1,1.1-1.8,2.1-2.1c1.9-0.8,3.7-1.7,5.5-2.7c1-0.6,1.3,0,1.3,0.8
	c0.1,0.6-0.1,1.3-0.5,1.8c-1.3,1.2-2.8,2.2-4.2,3.3c-1,0.7-2.2,1.4-3.3,2c-0.3,0.2-0.7,0.4-1,0.4S221.2,39,221,38.8z"/>
<path class="st0" d="M212.3,14.9c-2.8,0.2-3.5-0.8-2.3-3.4c0.3-0.9,1.1-1.4,2-1.4c1.4,0,2.8-0.1,4.1,0c0.3,0,0.6,0.2,0.9,0.5
	c0.7,1.4,0.1,3.2-1.3,3.9c-0.3,0.2-0.7,0.3-1,0.3L212.3,14.9z"/>
<path class="st0" d="M206.2,21.3c-1-0.2-1.7-0.3-2.4-0.6c-1-0.3-1.5-1.4-1.3-2.4c0.2-1.1,0.4-2.2,0.7-3.2c0.2-1.1,0.7-1.4,1.7-1
	c0.9,0.3,1.7,0.8,2.5,1.3c0.4,0.3,0.6,0.8,0.5,1.3c-0.2,1.2-0.4,2.5-0.8,3.7C207,20.8,206.5,21.4,206.2,21.3z"/>
<path d="M67.8,11.9c-0.4,1.2-0.8,2.3-1.3,3.3c-0.9,2.2-1.7,4.4-2.7,6.6c-0.2,0.6-0.6,1.2-1.1,1.7c-0.4,0.2-0.9,0.2-1.3,0
	c-0.3-0.3-0.4-0.7-0.3-1.1c1.2-3.3,2.5-6.7,3.9-10c0.2-0.5,0.6-0.9,1-1.1c0.3-0.2,0.7-0.3,1.1-0.1C67.5,11.1,67.6,11.6,67.8,11.9z"
	/>
<path d="M127.7,22.7c0.5-1.4,0.9-2.7,1.5-4c0.9-2.3,1.9-4.5,2.8-6.7c0.1-0.2,0.1-0.4,0.3-0.5c0.5-0.3,1-0.4,1.4-0.6
	c0.2,0.5,0.6,1,0.5,1.5c-0.3,1.1-0.7,2.1-1.1,3.1c-1,2.5-2,5-3.1,7.4c-0.2,0.4-0.9,0.7-1.4,0.8C128.3,23.6,128,23,127.7,22.7z"/>
<path d="M153.9,13.5c0.2-1.4,1.2-2.8,1.9-2.5c0.5,0.2,0.8,0.6,0.9,1.1c0,1.2-1.1,2.5-1.9,2.2C154.4,14.2,154.1,13.7,153.9,13.5z"/>
<path d="M179.1,11.6c0,1.5-1.1,2.8-1.9,2.7c-0.5-0.2-0.8-0.5-0.9-1c-0.1-0.8,1.3-2.6,2-2.5C178.6,11,178.9,11.5,179.1,11.6z"/>
<path d="M112.2,12.1c-0.4,0.7-0.9,1.4-1.5,2c-0.4,0.2-0.9,0.2-1.3-0.1c-0.2-0.4-0.3-0.8-0.2-1.2c0.2-0.6,0.5-1.1,0.9-1.5
	c0.3-0.3,0.8-0.5,1.2-0.4C111.7,11,111.9,11.6,112.2,12.1z"/>
<path d="M89.9,11.7c0,1.4-1.2,2.8-2,2.6c-0.4-0.1-0.8-0.5-0.9-0.9c-0.2-0.9,1.4-2.7,2-2.5C89.4,10.9,89.7,11.5,89.9,11.7z"/>
<path d="M170.7,34.8c-0.1-0.2-0.6-0.6-0.6-1.1c-0.1-0.9,0.9-1.7,1.8-1.6s1.3,0.6,1.3,1.5S172.4,34.8,170.7,34.8z"/>
<path d="M143.2,35.4c-0.1,2.2-0.4,2.7-1.7,2.8s-1.7-0.5-1.1-1.6c0.5-0.8,1.1-1.5,1.8-2.2c0.1-0.1,0.7,0,0.8,0.2
	C143.1,34.9,143.2,35.1,143.2,35.4z"/>
</svg>
