<?xml version="1.0" encoding="utf-8"?>
<!-- Generator: Adobe Illustrator 21.1.0, SVG Export Plug-In . SVG Version: 6.00 Build 0)  -->
<svg version="1.1" id="Layer_1" xmlns="http://www.w3.org/2000/svg" xmlns:xlink="http://www.w3.org/1999/xlink" x="0px" y="0px"
	 viewBox="0 0 181 107.6" style="enable-background:new 0 0 181 107.6;" xml:space="preserve">
<style type="text/css">
	.st0{fill:#1E5CA2;}
	.st1{fill:#FEFEFE;}
	.st2{fill:#FDF115;}
</style>
<title>CR</title>
<path class="st0" d="M92.2,0.5c7.5,0.1,15,0.7,22.4,1.9c10.1,1.5,19.9,4.3,29.3,8.3c7,2.9,13.6,6.8,19.5,11.5
	c5.4,4.2,9.9,9.5,13.1,15.5c2.3,4.4,3.7,9.2,3.9,14.1c0.5,9.3-2.5,17.4-8.1,24.6c-4.7,5.8-10.4,10.8-16.9,14.5
	c-8.9,5.3-18.4,9.2-28.5,11.7c-6.8,1.8-13.8,3-20.8,3.7c-6.6,0.7-13.2,0.9-19.8,0.7c-13.8-0.3-27.4-2.6-40.5-6.8
	c-8.3-2.7-16.2-6.5-23.4-11.3c-5.8-3.7-10.8-8.5-14.9-14c-3.7-5-6.1-10.8-6.8-17c-0.8-6.6,0.3-13.2,3.2-19.1
	c3.1-6.2,7.5-11.7,12.9-16c7.8-6.5,16.8-11,26.3-14.5c7.5-2.7,15.3-4.7,23.3-5.9c6.4-1,12.8-1.6,19.2-1.8C87.8,0.5,90,0.5,92.2,0.5z
	 M88.8,3.4c-1.2,0-2.5,0-3.7,0c-5,0.1-9.9,0.5-14.9,1.2c-8.4,1.1-16.6,3-24.6,5.7c-8.2,2.7-15.9,6.6-23,11.5
	c-5.5,3.7-10.2,8.4-13.9,13.9c-3.3,4.8-5.2,10.4-5.6,16.3c-0.4,6.7,1.4,13.4,5,19.1c3.7,5.8,8.5,10.7,14.2,14.6
	c8.1,5.6,17,9.9,26.4,12.7c14.3,4.3,29.1,6.3,44,6c6.2-0.1,12.4-0.6,18.5-1.4c7.6-1,15.1-2.8,22.4-5.1c9.2-2.9,18-7.2,25.8-12.9
	c5.3-3.8,9.8-8.5,13.2-14.1c4.7-7.8,6.2-16.1,3.9-25c-1.7-6.6-5.4-12.1-10.1-16.9c-5.8-5.8-12.7-10.6-20.2-14
	c-12-5.6-24.8-9.2-38-10.6C101.9,3.6,95.4,3.2,88.8,3.4L88.8,3.4z"/>
<path class="st1" d="M88.9,3.4c6.5-0.2,13,0.2,19.5,0.9c13.2,1.4,26,5,38,10.6c7.5,3.4,14.3,8.2,20.2,14c4.7,4.8,8.3,10.3,10.1,16.9
	c2.3,8.9,0.8,17.2-3.9,25c-3.4,5.5-7.9,10.3-13.2,14.1c-7.9,5.7-16.6,10-25.8,12.9c-7.3,2.4-14.8,4.1-22.4,5.1
	c-6.1,0.9-12.3,1.3-18.5,1.4c-14.9,0.3-29.7-1.7-44-6c-9.4-2.8-18.3-7.1-26.4-12.7c-5.7-3.9-10.5-8.8-14.2-14.6
	c-3.6-5.7-5.4-12.4-5-19.1c0.4-5.8,2.3-11.4,5.6-16.3c3.7-5.5,8.4-10.2,13.9-14c7.1-4.9,14.8-8.8,23-11.5c8-2.7,16.2-4.6,24.6-5.7
	c4.9-0.7,9.9-1.1,14.9-1.2C86.4,3.4,87.6,3.4,88.9,3.4z M91.9,101.6c1.4,0,2.7,0,4.1,0c5.3-0.2,10.6-0.6,15.9-1.4
	c8.1-1.2,16-3.1,23.7-5.8c8.4-2.8,16.3-7,23.3-12.2c4.9-3.6,9.1-8.2,12.2-13.4c5.4-9.5,5.7-19.2,0.6-28.9
	c-3.1-5.6-7.3-10.4-12.4-14.2c-6.4-4.9-13.6-8.8-21.2-11.7c-9.5-3.6-19.5-6.1-29.6-7.2c-7.1-0.9-14.2-1.2-21.3-1.1
	c-5.9,0.1-11.8,0.6-17.7,1.4c-7.9,1.1-15.7,2.9-23.2,5.5c-7.6,2.5-14.8,6.1-21.4,10.5c-5.5,3.6-10.3,8.3-14,13.8
	c-5.4,8.4-6.8,17.3-3.4,26.8c2.2,6.1,6.1,11,10.8,15.3c5.4,4.8,11.4,8.7,18,11.6c12.6,5.8,25.9,8.9,39.6,10.3
	C81.2,101.6,86.5,101.8,91.9,101.6L91.9,101.6z"/>
<path class="st0" d="M91.9,101.7c-5.3,0.2-10.6,0-15.9-0.6c-13.7-1.4-27-4.5-39.6-10.3c-6.6-2.9-12.6-6.9-18-11.6
	c-4.7-4.3-8.6-9.3-10.8-15.3c-3.4-9.5-2-18.4,3.4-26.8c3.7-5.5,8.5-10.2,14-13.8c6.6-4.5,13.8-8,21.3-10.6
	c7.6-2.6,15.4-4.4,23.3-5.5c5.9-0.8,11.8-1.3,17.8-1.4c7.1-0.1,14.2,0.2,21.2,1.1c10.1,1.2,20,3.6,29.6,7.2
	c7.6,2.8,14.7,6.7,21.2,11.7c5.1,3.8,9.4,8.6,12.4,14.2c5,9.7,4.8,19.4-0.6,28.9c-3.1,5.3-7.3,9.8-12.2,13.4
	c-7.1,5.3-14.9,9.4-23.3,12.3c-7.7,2.7-15.6,4.6-23.6,5.8c-5.3,0.8-10.6,1.3-15.9,1.4C94.6,101.7,93.2,101.7,91.9,101.7z
	 M90.4,100.4c1.6,0,3.1,0,4.7,0c5.2-0.1,10.4-0.6,15.6-1.3c8-1.1,15.9-2.9,23.5-5.6c7.9-2.6,15.4-6.4,22.2-11.2
	c5.3-3.6,9.8-8.3,13.1-13.7c5.2-8.8,5.8-17.9,1.4-27.2c-2.3-4.6-5.5-8.7-9.4-12.1c-5.5-4.8-11.6-8.8-18.3-11.7
	c-12-5.3-24.8-8.6-37.9-9.8C99.5,7.2,93.7,7,87.9,7.1c-5.5,0.1-11,0.5-16.5,1.2c-8.5,1.1-16.9,3-25,5.8c-8,2.7-15.6,6.5-22.5,11.5
	c-5.2,3.6-9.6,8.3-12.9,13.8C7,46.4,5.8,53.9,8.3,61.9c1.9,6.1,5.5,11.1,10.1,15.4c5.5,5.1,11.7,9.2,18.5,12.3
	c9.4,4.3,19.4,7.3,29.6,8.9C74.4,99.8,82.4,100.5,90.4,100.4z"/>
<path class="st2" d="M90.4,100.4c-8,0.1-16-0.5-23.9-1.9c-10.2-1.6-20.2-4.6-29.6-8.9c-6.8-3.1-13.1-7.2-18.5-12.3
	c-4.6-4.4-8.2-9.3-10.1-15.4C5.8,53.9,7,46.4,11.1,39.3c3.3-5.4,7.7-10.1,12.9-13.8c6.9-4.9,14.5-8.8,22.5-11.5
	c8.1-2.8,16.5-4.7,25-5.8C77,7.6,82.5,7.2,88,7.1c5.8-0.1,11.6,0.1,17.4,0.7c13.1,1.2,25.9,4.5,37.9,9.8c6.6,2.9,12.8,6.9,18.2,11.8
	c3.9,3.4,7,7.5,9.3,12.1c4.4,9.3,3.8,18.4-1.4,27.2c-3.4,5.4-7.8,10.1-13.1,13.7c-6.8,4.8-14.3,8.6-22.2,11.2
	c-7.6,2.6-15.5,4.5-23.5,5.6c-5.2,0.7-10.4,1.2-15.6,1.3C93.5,100.4,91.9,100.4,90.4,100.4z M59.7,34.2l-0.2,0.2l0,0
	c-0.6,0.3-1.3,0-1.9,0c-0.4,0.1-0.8-0.2-1.2-0.3c-2.9-0.8-5.8-1.3-8.7-1.6c0-0.2-0.2-0.1-0.3-0.2c-2.1-0.2-4.2-0.2-6.4,0
	c-0.1,0-0.2,0-0.3,0.1c-0.1,0-0.2,0-0.3,0.1c-3.8,0.2-7.4,1.3-10.7,3.2c-2,1-3.6,2.7-4.5,4.8c-0.9,2.2-0.9,4.4,0.9,6.2
	c0.1,0.1,0.1,0.2,0.2,0.3l0.7,1c0.1,0.2,0.2,0.3,0.5,0.3l0,0c0.2,0.3,0.5,0.6,1.3,0.9c3.1,1.2,6.4,1.9,9.8,1.9
	c2.8,0,5.5,0.3,8.2,0.9c0.1,0,0.3,0.1,0.3-0.1l0.3,0.1c-0.2,0.7-0.6,1.2-1.3,1.5c-1.8,0.9-3.9,1.4-5.9,1.4c-3,0.2-6.1-0.1-9.1-0.8
	c-1.2-0.2-2.4-0.7-3.4-1.4c0-0.1-0.1-0.2,0-0.3c0.3,0,0.5-0.3,0.7-0.4l-0.8-0.4c0-0.2-0.3-0.2-0.4-0.3l0.5-0.4
	c-0.6-0.3-1.2-0.5-1.6-0.8s-0.8-0.2-1.1,0.2c-2.3,2.7-4.6,5.4-6.8,8.2c-0.2,0.2-0.4,0.5-0.5,0.7l1.1,0.5L18.8,60
	c-0.3,0.2-0.5,0.3,0,0.5c0.2,0.1,0.4,0.1,0.6,0.2c0.6,0.5,1.4,0.4,1.9-0.2c0.2-0.2,0.6-0.3,0.9-0.2c2.8,1,5.7,1.6,8.6,1.9
	c4.8,0.7,9.7,0.6,14.6-0.2c3.6-0.6,7.1-2,10-4.2c1.8-1.3,3.1-3.3,3.6-5.5c0.3-1.1,0.3-2.3-0.2-3.3l0,0c0-0.1,0-0.3-0.1-0.4
	c-0.2-0.4-0.3-0.8-0.7-1c-0.3-0.8-0.9-1.5-1.5-2c-1.1-0.8-2.3-1.4-3.7-1.8c-3.4-0.8-7-1.2-10.5-1.2c-1.8,0-3.6-0.2-5.4-0.6
	c-0.1-0.1-0.3-0.1-0.4-0.1l0,0c0-0.1-0.3-0.1-0.2-0.3c0.8-0.4,1.6-0.8,2.4-1c4.1-0.9,8.3-0.9,12.3,0.1c0.8,0.2,1.5,0.4,2.3,0.6
	c0.1,0,0.2,0.1,0.3,0.3c-0.4,0.7-0.4,0.7,0.3,1c0.1,0,0.2,0.1,0.3,0.2L54.2,43c-0.1,0.2-0.2,0.3,0.1,0.4c0.4,0.1,0.8,0.3,1.2,0.5
	c0.4,0.2,0.6,0.1,0.9-0.2c1.4-1.7,2.9-3.4,4.3-5.1l2.3-2.7l-0.6-0.3l-0.6-0.3c0.4-0.6,0.4-0.6-0.3-0.9c-0.4-0.1-0.8-0.3-1.2-0.4
	c-0.1-0.1-0.3-0.1-0.4,0.1L59.7,34.2L59.7,34.2z M133.6,42.3c-0.3,0.3-0.3,0.5,0.2,0.6c0.1,0,0.3,0.1,0.4,0.1l0.8,0.6
	c0.2,0.3,0.5,0.5,0.6,0.8c1.3,1.8,2.5,3.6,3.8,5.4c0.2,0.3,0.1,0.5-0.1,0.7l-2.1,1.6c-1.9,1.5-3.8,2.9-5.7,4.4
	c-1.5,1.2-3.1,2.5-4.6,3.7c-0.1,0-0.2,0-0.2,0.1l0,0c-0.3,0-0.7,0-1-0.1l0.1-0.8l-0.1-0.1l0,0v-0.3c0.2-0.2,0.2-0.5,0.3-0.7
	c1.2-4.6,2.4-9.1,3.5-13.7c0.2-0.8,0.5-1.3,1.4-1.5c0.5-0.1,0.9-1,0.7-1.5c-0.3-0.2-0.6,0-1-0.1l0.4-1.1h-9.8
	c-0.2,0-0.4,0.1-0.4,0.3c-0.4,0.9-0.4,1,0.5,1.3c0,0,0.1,0,0.1,0.1c0.1,0.3-0.5,0.6,0.1,0.8l-1.7,6.5l-5.2-6.1l0.2-0.3
	c0.6,0.1,0.8-0.3,0.9-0.8c0.2-0.7,0.2-0.7-0.6-0.7l-0.3-0.1c0-0.2,0-0.4,0.1-0.6c0.2-0.4,0-0.5-0.4-0.5c-4,0-8,0-12,0
	c-0.3,0-0.5,0.2-0.6,0.4c-0.3,0.9-0.3,0.9,0.6,1.2l0.1,0.1c0,0.3-0.4,0.6,0.1,0.8c-1.3,5.1-2.6,10.3-3.9,15.4
	c-0.1,0.4-0.4,0.7-0.8,0.7c-0.6,0-1,0.4-1,1c0,0,0,0.1,0,0.1c0,0.2-0.1,0.3-0.1,0.4h0.9v0.3c-0.2,0.8-0.2,0.8,0.6,0.8
	c2.9,0,5.7,0,8.5,0c0.8,0,0.6-0.6,0.8-1s-0.4-0.4-0.6-0.5l-0.2-0.1c0-0.3,0.2-0.5,0.1-0.8l-0.2-0.1l0,0l-0.1-0.3
	c0,0,0.1-0.1,0.1-0.2l2.3-9.1c0.1-0.2,0.2,0,0.3,0l0,0l0.1,0.2l0.8,0.9l5.8,6.9c0.7,0.8,0.6,1.2-0.5,1.5c-0.2,0.1-0.5,0.1-0.6,0.4
	c-0.3,1-0.3,1,0.7,1.1v0.2c0.1,0.2-0.6,0.8,0.2,0.8c2.8,0,5.6,0,8.4,0c0.2,0,0.3,0.1,0.1,0.3c-0.4,0.3-0.7,0.6-1.1,0.9
	c-0.7,0.7-1.5,1.1-2.4,1.4c-0.3,0.1-0.6,0.2-0.6,0.6S120.3,65,120,65c-0.9,0-1.8,0-2.8,0c0.4,0.5,1,0.7,1.6,0.6c0.8,0,1.6,0,2.4,0
	v0.3c-0.2,0.8-0.2,0.8,0.6,0.8h13.4c1,0,0.9,0,1.1-0.9c0.1-0.6-0.1-0.7-0.6-0.6c-0.3-0.2,0.1-0.4,0.1-0.5l2.8-3l5.1-5.5
	c0.1,0,0.2-0.2,0.3-0.1l1.6,2.3c0.3,0.4,0.2,0.6-0.3,0.6s-0.7,0.1-0.8,0.6c-0.1,0.9-0.2,0.9,0.7,0.9v0.3c0,0.3-0.5,0.8,0.4,0.8
	c3.9,0,7.7,0,11.6,0c0.8,0,0.5-0.6,0.6-1s-0.3-0.4-0.6-0.4l-0.2-0.1c0.2-0.6,0.1-1-0.6-1c-0.3-0.1-0.6-0.3-0.8-0.6
	c-1.9-2.7-3.8-5.3-5.7-7.9l0.2-0.2c0.2,0,0.4-0.2,0.5-0.3l6.3-5.2c0.9-0.9,1.9-1.5,3.1-1.9c0.4-0.3,0.6-0.8,0.7-1.3
	c-0.2-0.3-0.5-0.1-0.7-0.1h-0.2c0-0.2,0.1-0.4,0.1-0.6c0.2-0.4,0.1-0.5-0.4-0.5c-3.5,0-6.9,0-10.4,0c-0.8,0-0.6,0.6-0.7,1
	s0.3,0.4,0.6,0.4s0.4,0.2,0.2,0.4c-0.1,0.1-0.2,0.3-0.3,0.4c-0.9,0.6-1.7,1.3-2.5,2c-0.4,0.4-0.7,0.4-1-0.1s-0.6-0.9-0.9-1.3
	l0.1-0.2h0.8c0.5-0.2,0.8-0.7,0.7-1.2c-0.1-0.4-0.5-0.1-0.7-0.1h-0.1c0-0.2,0.1-0.4,0.1-0.6c0.1-0.4,0-0.5-0.4-0.5h-11.7
	c-0.2,0-0.4,0-0.4,0.2s-0.4,0.7-0.3,1s0.5,0.1,0.7,0.2c0.1,0,0.1,0.1,0.2,0.1L133.6,42.3z M102.4,64.5L102.4,64.5
	c0.9,0.8,2.1,1.1,3.2,1c0.9-0.1,1.9,0,2.8,0c0.1,0,0.3,0.1,0.4-0.1c-0.5-0.3-1-0.8-1.6-0.8C105.7,64.5,104.1,64.5,102.4,64.5
	L102.4,64.5z M93.8,60.1L93.7,60c0-0.3,0.2-0.5,0.1-0.8l-0.2-0.1l0,0l-0.1-0.3c0.1-0.1,0.1-0.3,0.2-0.4c1.2-4.6,2.5-9.1,3.6-13.7
	c0.3-1,0.6-1.6,1.7-1.8c0.6-0.1,0.5-0.8,0.5-1.2s-0.4-0.1-0.7-0.2h-0.3l0.3-1c-0.1-0.2-0.3-0.1-0.4-0.1h-9.9c-0.1,0-0.3-0.1-0.4,0.1
	c-0.5,1-0.5,1,0.5,1.6c0,0.3-0.4,0.6,0.1,0.8c0,0.1,0,0.2-0.1,0.3c-1.3,4.9-2.6,9.8-3.8,14.7c-0.1,0.7-0.6,1.2-1.3,1.3
	c-0.2,0-0.4,0-0.5,0.3c-0.4,0.9-0.3,1.1,0.7,1.2v0.2c-0.4,0.8-0.3,0.8,0.5,0.8c3.2,0,6.3,0,9.5,0c0.8,0,0.7-0.6,0.9-1
	S94,60.3,93.8,60.1L93.8,60.1z M57.1,60.8c-0.2,0.8-0.2,0.8,0.6,0.8c3.3,0,6.6,0,10,0c0.9,0,0.7-0.6,0.8-1s-0.3-0.3-0.6-0.4L67.6,60
	c-0.1-0.3,0.4-0.6-0.1-0.9v-0.4c0.3-1.2,0.7-2.4,1-3.7c0.1-0.4,0.3-0.5,0.7-0.5c1.4,0,2.8,0,4.2,0c2.7,0,5.3-0.4,7.9-1.3
	c3.8-1.5,5.6-5.6,4.5-8.4c-0.1-0.3-0.3-0.6-0.6-0.8l0,0l-0.1-0.2c-0.7-1.5-2.1-2.5-3.7-2.9c-1.3-0.4-2.6-0.5-4-0.5
	c-0.1-0.1-0.3-0.1-0.4-0.1H62.2c-0.2,0-0.3-0.1-0.5,0.1c-0.4,1.1-0.4,1.1,0.6,1.6c-0.1,0.3-0.5,0.7,0.2,0.8c0,0.1,0,0.3-0.1,0.4
	c-1.4,5-2.8,9.9-4.1,14.9c-0.2,0.6-0.4,0.9-1,0.9c-0.7,0-1,0.5-1,1.1c0,0.1,0,0.3-0.1,0.4h1L57.1,60.8z M63,77.7L63,77.7l0.9-4.7
	c-0.8,0.1-1.5,0.3-2.2,0.6c0.3,0.2,0.8,0,0.6,0.6c-0.4,1.8-0.8,3.6-1.2,5.5c-0.2,1-0.2,1,0.8,0.9c0.3,0,0.4-0.1,0.5-0.4
	c0.1-0.5,0.2-0.9,0.3-1.4c0-0.3,0.2-0.5,0.5-0.6c0.1,0.6,0.2,1.1,0.4,1.6c0.1,0.5,0.6,0.9,1.2,0.8c0,0,0,0,0.1,0
	c0.6-0.2,1.1-0.8,1.3-1.4c0-0.1,0-0.2-0.1-0.2c-0.1,0-0.2,0.1-0.2,0.1s-0.3,0.6-0.6,0.3c-0.6-0.5-0.4-1.3-0.6-2
	c-0.1-0.3,0.1-0.4,0.3-0.6l0.1-0.1c0.5-0.4,1.1-0.7,1.7-1H64c0.2,0.3,0.6,0.1,0.6,0.4s-0.3,0.4-0.5,0.5C63.8,77.2,63.4,77.4,63,77.7
	L63,77.7z M52.2,75.9L52.2,75.9c-0.2,1.3-0.5,2.5-0.8,3.7c-0.1,0.4-0.3,0.8-0.8,0.8c-0.1,0-0.3,0-0.3,0.2s0.2,0.2,0.3,0.2
	c0.9-0.1,1.9-0.1,2.8,0c0.1,0,0.2,0,0.3-0.1c0-0.1,0-0.2-0.1-0.2c0,0,0,0,0,0c-0.5,0-0.5-0.3-0.4-0.7c0.4-1.7,0.8-3.4,1.1-5.1
	c0.1-0.4,0.2-0.8,0.7-0.8c0.2,0,0.2-0.1,0.2-0.2s-0.2-0.1-0.3-0.1c-0.4,0-0.8,0-1.2,0c-0.4-0.1-0.7,0.1-0.9,0.5
	c-0.8,1.3-1.6,2.6-2.4,3.9C50.3,77.8,50.3,78,50,78c-0.3-1.4-0.5-2.7-0.8-4.1c0-0.2,0.1-0.5-0.3-0.6c-0.6,0-1.2,0-1.8,0
	c-0.1,0-0.2,0-0.2,0.1s0,0.2,0.2,0.2c0.6,0,0.5,0.4,0.4,0.8c-0.4,1.6-0.7,3.3-1.1,4.9c-0.1,0.4-0.2,0.8-0.7,0.9
	c-0.1,0-0.3,0.1-0.2,0.2s0.2,0.1,0.3,0.1h1.4c0.1,0,0.3,0.1,0.3-0.1s-0.1-0.2-0.2-0.2c-0.5-0.1-0.4-0.4-0.3-0.8s0.1-0.6,0.2-0.9
	c0.2-1,0.4-1.9,0.6-2.9H48l1,5.1l0.6-0.9C50.5,78.6,51.3,77.2,52.2,75.9L52.2,75.9z M34,65.5v-0.1c-0.8-0.6-1.8-1.1-2.6-1.7
	c-0.9-0.6-1.9-0.9-3-0.9c-4.4-0.1-8.8-0.2-13.2-0.3c-0.2-0.1-0.5,0-0.7,0.1c1.4,0.9,2.7,1.7,4,2.5c0.3,0.2,0.6,0.3,1,0.3
	c3,0,6,0,9,0L34,65.5z M38.1,63.1v0.1l3.5,2.2c0.2,0.1,0.4,0.1,0.6,0.1h8.3h1.8c-1.1-0.8-2.1-1.4-3.2-2.1c-0.2-0.1-0.4-0.1-0.6-0.1
	L38.1,63.1z M112,73.3h-4.9c-0.1,0-0.3,0-0.3,0.1s0.1,0.2,0.3,0.2c0.4,0,0.4,0.3,0.4,0.6c-0.4,1.7-0.8,3.5-1.2,5.2
	c-0.1,0.4-0.2,0.7-0.7,0.7c-0.1,0-0.3,0-0.3,0.3s0.2,0.1,0.3,0.1h3.8c0.5,0,1.2,0.2,1.6-0.1s0.3-1,0.5-1.5c0-0.1,0.2-0.3,0-0.4
	s-0.3,0-0.4,0.2c-0.6,1.1-1.6,1.2-2.7,1.2c-0.3,0-0.3-0.1-0.3-0.4c0.2-0.7,0.3-1.3,0.4-2c0.1-0.8,0.6-0.5,1-0.5s0.6,0.2,0.5,0.6
	c0,0.1,0,0.2,0.1,0.3s0.2-0.1,0.3-0.2c0.1-0.6,0.3-1.1,0.4-1.7c0-0.1,0.2-0.3,0-0.4s-0.2,0.1-0.3,0.2c-0.3,0.6-0.9,0.5-1.4,0.5
	c-0.2,0-0.2-0.2-0.2-0.3c0.2-0.7,0.3-1.4,0.5-2c0-0.1,0.1-0.3,0.3-0.3c0.8-0.3,1.6,0.1,1.8,0.9c0,0.1,0,0.1,0,0.2
	c0,0.1,0,0.3,0.2,0.3s0.2-0.1,0.2-0.3C111.8,74.4,111.9,73.9,112,73.3z M80.4,76.5c0.1,0,0.2,0,0.2,0c0.3,0.1,0.5,0.3,0.7-0.1
	c0.1-0.2,0.1-0.4-0.1-0.5c-0.3-0.3-0.5,0-0.7,0.1c-0.2,0.1-0.4,0.2-0.7,0.1c-0.9-0.5-2.1-0.3-2.8,0.6c-0.6,0.7-0.6,1.7,0.1,2.3
	c0,0,0,0,0.1,0.1c-1.2,0.6-1.3,0.8-0.7,1.6c-0.2,0.1-0.5,0.2-0.7,0.3c-0.5,0.2-0.7,0.7-0.6,1.2c0.1,0.3,0.3,0.5,0.6,0.6
	c1.2,0.6,2.6,0.5,3.7-0.2c0.6-0.3,0.8-1.1,0.5-1.6c-0.1-0.2-0.3-0.4-0.6-0.5c-0.3-0.1-0.7-0.3-1-0.4c-0.3-0.1-0.8-0.2-0.8-0.5
	s0.5-0.1,0.8-0.2C80.2,79.1,81,77.9,80.4,76.5z M66.9,65.5l0.1-0.1c-0.8-0.5-1.5-1-2.3-1.5c-0.3-0.2-0.7-0.3-1.1-0.3
	c-2.5,0-5-0.1-7.5-0.1c-0.3,0-0.6-0.2-0.9,0.1l2.9,1.9c0.2,0.1,0.4,0.1,0.6,0.1H66.9z M86.6,80.7L86.6,80.7h1.1c1.7,0,1.7,0,2.3-1.6
	c0.1-0.2,0.3-0.4,0.1-0.6s-0.4,0.2-0.5,0.4c-0.5,0.8-1.4,1.3-2.4,1.2c-0.4,0-0.6-0.1-0.5-0.5c0.4-1.7,0.7-3.3,1.1-5
	c0.1-0.4,0.2-0.8,0.7-0.9c0.2,0,0.2-0.1,0.2-0.3s-0.2-0.1-0.3-0.1h-2.8c-0.1,0-0.3,0-0.3,0.2s0.1,0.2,0.3,0.2c0.3,0,0.4,0.2,0.4,0.5
	c-0.4,1.8-0.8,3.6-1.2,5.4c-0.1,0.4-0.3,0.6-0.7,0.6c-0.1,0-0.3,0-0.3,0.2s0.2,0.1,0.4,0.1L86.6,80.7z M72.1,77.3
	c0.1-0.4,0.2-0.8,0.3-1.2c0-0.2,0.1-0.4-0.2-0.3l-1.7,0.4c-0.1,0-0.2,0.1-0.2,0.2s0.1,0.1,0.2,0.1c0.5,0,0.4,0.3,0.4,0.6
	c-0.2,1-0.4,2-0.7,3c0,0.2-0.2,0.4,0.1,0.5c0.5,0.2,1.1,0,1.3-0.6c0,0,0-0.1,0-0.1c0.1-1.1,0.6-2,1.4-2.8c0.2-0.1,0.3-0.4,0.5-0.2
	s0.1,0.4,0.1,0.6c-0.2,0.8-0.5,1.5-0.6,2.3c-0.1,0.6,0.2,0.9,0.8,0.9c0.8-0.2,1.5-0.8,1.7-1.6c0-0.1,0-0.2-0.1-0.2
	c-0.1-0.1-0.2,0-0.2,0.1c-0.1,0.1-0.1,0.2-0.2,0.3c-0.1,0.1-0.2,0.3-0.3,0.2s-0.1-0.3-0.1-0.4c0.2-0.7,0.3-1.3,0.5-2
	c0.1-0.4,0.3-0.9-0.1-1.2s-0.9-0.1-1.3,0.2c-0.1,0.1-0.3,0.2-0.4,0.3L72.1,77.3z M60.2,75.7c-0.6,0.3-1-0.1-1.6,0.3
	c-0.3,0.3-0.9-0.4-1.4-0.2h-0.2c-1.6,0.7-2.6,2.3-2.4,4c0.1,0.6,0.6,1.1,1.2,1c0,0,0,0,0,0c0.8,0,1.3-0.6,1.7-1.2
	c0.1,1.1,0.7,1.5,1.6,0.9c0.4-0.3,0.7-0.7,0.9-1.1c0.1-0.1,0.3-0.3,0-0.4s-0.2,0.1-0.3,0.2s-0.2,0.5-0.5,0.4s0-0.4,0-0.6
	C59.6,77.9,59.9,76.9,60.2,75.7L60.2,75.7z M114.9,79.7c0.1,0.4-0.1,0.9,0.4,1c0.5,0.2,1,0.1,1.4-0.3c0.3-0.3,0.5-0.6,0.7-0.9
	c0.1-0.2,0.4-0.4,0.1-0.5s-0.3,0.2-0.4,0.3s-0.2,0.4-0.4,0.3s-0.1-0.3,0-0.5c0.3-0.9,0.5-1.9,0.8-2.8c0.1-0.3,0.1-0.5-0.3-0.4
	s-0.9-0.3-1.1,0.4c-0.4-0.2-0.7-0.5-1.2-0.4h-0.3c-1.7,0.6-2.7,2.3-2.4,4.1c0.1,0.5,0.5,0.9,1.1,0.9C114,80.9,114.4,80.3,114.9,79.7
	L114.9,79.7z M96.8,74.5c0-0.1,0-0.3,0.1-0.4s0-0.3,0.2-0.3s0.2,0.1,0.3,0.2c0.2,0.3,0.4,0.5,0.8,0.4c0.3-0.1,0.4-0.4,0.4-0.7
	c-0.1-0.4-0.4-0.7-0.8-0.7c-0.7-0.1-1.3,0.3-1.6,0.8c-0.4,0.5-0.6,1.2-0.7,1.8c-0.1,0.4-0.3,0.5-0.6,0.5c-0.2,0-0.5-0.1-0.5,0.2
	s0.3,0.2,0.5,0.2s0.5-0.1,0.4,0.3c-0.3,1.6-0.6,3.2-0.7,4.8c0,0.2,0,0.5-0.3,0.5s-0.3-0.2-0.4-0.3c-0.1-0.3-0.4-0.4-0.7-0.3
	c-0.3,0.1-0.5,0.4-0.4,0.7c0.1,0.6,0.8,0.9,1.5,0.5c0.6-0.3,1-0.9,1.2-1.5c0.5-1.3,0.9-2.7,1.2-4.2c0.1-0.4,0.1-0.8,0.7-0.6
	c0.1,0,0.4,0.1,0.4-0.2s-0.2-0.2-0.4-0.2s-0.5,0-0.4-0.3C96.9,75.4,96.9,74.9,96.8,74.5L96.8,74.5z M69.9,63.8
	c0.7,0.4,1.4,0.9,2.1,1.4c0.3,0.2,0.7,0.4,1.1,0.4c1.5,0,2.9,0,4.4,0h2c-0.7-0.6-1.4-1.1-2.2-1.6c-0.1-0.1-0.3-0.1-0.4-0.1
	L69.9,63.8z M127.5,80.8c1,0,1.9-0.4,2.4-1.2c0.1-0.1,0.4-0.3,0.1-0.5s-0.3,0.2-0.4,0.3c-0.4,0.4-0.9,0.6-1.4,0.6
	c-0.5,0-0.8-0.4-0.8-0.9c0,0,0,0,0,0c0-0.5,0.5-0.4,0.8-0.4c0.7,0,1.4-0.2,1.9-0.6c0.5-0.3,0.7-0.9,0.6-1.5
	c-0.1-0.6-0.7-0.7-1.2-0.7c-1.8,0-3.3,1.4-3.5,3.2C125.8,80.2,126.3,80.8,127.5,80.8z M97.6,79.1c0,1.2,0.4,1.6,1.6,1.7
	c1,0,1.9-0.5,2.4-1.3c0.1-0.1,0.3-0.3,0.1-0.4s-0.3,0.1-0.4,0.2c-0.4,0.4-1,0.7-1.5,0.6C99.3,79.8,99,79.4,99,79
	c0-0.5,0.5-0.3,0.7-0.3c0.7,0,1.3-0.2,1.9-0.5c0.6-0.3,0.8-1,0.7-1.6c-0.2-0.6-0.7-0.7-1.2-0.7C99.2,75.8,97.7,77.2,97.6,79.1
	L97.6,79.1z M121.7,77.4c0.1-0.4,0.2-0.8,0.3-1.2c0-0.2,0-0.3-0.2-0.3c-0.5,0-1-0.1-1.5-0.1c-0.5-0.1-1,0.2-1.3,0.7
	c-0.3,0.5-0.2,1.1,0.2,1.5c0.4,0.5,0.8,0.9,1.2,1.3c0.2,0.2,0.5,0.5,0.2,0.8s-0.6,0.3-1,0.1c-0.4-0.3-0.7-0.7-0.8-1.2
	c0-0.1,0-0.3-0.2-0.2s-0.1,0.1-0.1,0.3c-0.1,0.5-0.1,0.9-0.2,1.4c0,0.1,0,0.2,0.2,0.3c0.6,0,1.3,0.1,1.9,0.1c0.7,0,1.4-0.5,1.4-1.3
	c0.1-0.5-0.1-1-0.5-1.4c-0.4-0.4-0.7-0.8-1.1-1.2c-0.2-0.2-0.2-0.4,0-0.6c0.1-0.2,0.4-0.2,0.6-0.2c0.3,0.1,0.6,0.3,0.7,0.6
	C121.4,77,121.4,77.2,121.7,77.4L121.7,77.4z M91,65.7v-0.1c-0.4-0.3-0.9-0.6-1.3-0.9c-0.4-0.3-0.9-0.5-1.5-0.5
	c-1.3,0-2.6-0.1-3.9-0.1c-0.6,0-1.2,0-1.9,0l1.9,1.3c0.2,0.1,0.4,0.3,0.6,0.3L91,65.7z M133.4,75.8l-1.8,0.4c-0.1,0-0.2,0.1-0.2,0.2
	c0,0.1,0.1,0.2,0.2,0.2c0.5,0,0.4,0.3,0.3,0.6c-0.2,1-0.5,2.1-0.7,3.1c0,0.1-0.2,0.3,0.1,0.4c0.5,0.2,1.1,0,1.3-0.5
	c0-0.1,0-0.1,0.1-0.2c0.1-0.9,0.4-1.7,0.9-2.5c0.2-0.3,0.4-0.5,0.7-0.1c0.2,0.2,0.5,0.2,0.7,0c0.3-0.2,0.5-0.6,0.5-1.1
	c0-0.3-0.2-0.5-0.5-0.6c-0.4-0.1-0.8,0.1-1,0.4c-0.3,0.3-0.4,0.7-0.8,0.9C133.2,76.7,133.4,76.3,133.4,75.8z M93.4,75.8l-2.2,0.4
	c-0.1,0-0.3,0-0.3,0.2s0,0.2,0.2,0.1c0.7,0,0.5,0.4,0.4,0.8c-0.2,0.8-0.4,1.6-0.6,2.5s0.1,1,0.9,1s1.2-0.7,1.6-1.3
	c0.1-0.1,0.3-0.3,0.1-0.5s-0.3,0.2-0.4,0.3s-0.2,0.4-0.4,0.3s-0.1-0.3,0-0.5L93.4,75.8z M125.1,75.8l-2.2,0.4c-0.1,0-0.2,0-0.3,0.2
	s0,0.2,0.1,0.2c0.8,0,0.5,0.4,0.4,0.8c-0.2,0.8-0.4,1.6-0.6,2.5s0.1,1,0.9,1c0.9,0,1.2-0.7,1.6-1.4c0.1-0.1,0.3-0.3,0.1-0.4
	s-0.3,0.1-0.4,0.3s-0.2,0.4-0.5,0.3s-0.1-0.3,0-0.5C124.5,78,124.8,76.9,125.1,75.8L125.1,75.8z M67.5,80.8c0.9,0,1.3-0.7,1.7-1.4
	c0.1-0.1,0.3-0.3,0.1-0.4s-0.3,0.1-0.3,0.3s-0.2,0.5-0.5,0.3s-0.1-0.4,0-0.6c0.2-0.9,0.5-1.9,0.7-2.8c0-0.1,0.2-0.4-0.2-0.4
	c-0.7,0.1-1.3,0.3-2,0.4c-0.1,0-0.1,0.1-0.2,0.2s0.1,0.1,0.1,0.1c0.9,0,0.4,0.6,0.4,1c-0.2,0.8-0.4,1.6-0.6,2.4
	C66.7,80.6,66.9,80.8,67.5,80.8L67.5,80.8z M100.5,65.5c-0.8-0.6-1.4-1.3-2.5-1.3c-1.5,0.1-3.1,0-4.7,0c0.4,0.3,0.8,0.5,1.2,0.8
	s0.5,0.5,0.9,0.5L100.5,65.5z M116.2,65.5c-0.6-0.6-1.5-1-2.3-0.9c-1.1,0.1-2.3,0-3.5,0c0.6,0.3,1,0.8,1.6,0.8
	C113.3,65.6,114.7,65.5,116.2,65.5L116.2,65.5z M162.4,42.5c-1,0-1.8,0.8-1.8,1.7c0,0,0,0.1,0,0.1c0,1,0.8,1.8,1.8,1.8c0,0,0,0,0,0
	c1,0,1.7-0.8,1.7-1.8c0,0,0,0,0,0c0.1-1-0.7-1.8-1.6-1.8C162.5,42.5,162.5,42.5,162.4,42.5L162.4,42.5z M69.5,74
	c0-0.4-0.3-0.8-0.8-0.8c0,0,0,0-0.1,0c-0.5,0-0.7,0.4-0.8,0.8c0,0.4,0.2,0.7,0.6,0.8c0.1,0,0.1,0,0.2,0C69.1,74.8,69.4,74.5,69.5,74
	C69.5,74.1,69.5,74.1,69.5,74z M93.6,74c0-0.4-0.3-0.8-0.7-0.8c0,0-0.1,0-0.1,0c-0.5,0-0.7,0.4-0.7,0.9c0,0.4,0.2,0.7,0.6,0.7
	c0.1,0,0.1,0,0.2,0C93.3,74.8,93.7,74.6,93.6,74L93.6,74z M124.5,74.8c0.5-0.1,0.8-0.2,0.8-0.8c0-0.4-0.3-0.8-0.8-0.8c0,0,0,0-0.1,0
	c-0.5,0-0.7,0.4-0.7,0.9S124.1,74.8,124.5,74.8z"/>
<path class="st0" d="M18.9,59.8l-1.1-0.5c0.1-0.3,0.3-0.5,0.5-0.7c2.3-2.7,4.6-5.4,6.8-8.2c0.3-0.4,0.6-0.6,1.1-0.2s1,0.5,1.6,0.8
	l-0.5,0.4c-0.6,0.4-0.6,0.6-0.1,1.1c0.2,0.2,0.4,0.3,0.6,0.4c1.1,0.7,2.2,1.1,3.4,1.4c3,0.7,6,1,9.1,0.8c2.1,0,4.1-0.5,5.9-1.4
	c0.7-0.3,1.1-0.8,1.3-1.5c0.1-0.6-0.4-0.8-0.8-1c-1-0.4-2.1-0.7-3.3-0.8c-2.5-0.3-5.1-0.3-7.6-0.5c-3.3-0.3-6.5-0.7-9.3-2.7
	c0,0-0.1,0-0.1,0c-0.1-0.1-0.1-0.2-0.2-0.3c-1.8-1.8-1.8-4-0.9-6.2c0.9-2.1,2.5-3.7,4.5-4.8c3.3-1.9,6.9-3,10.7-3.2
	c0.1,0,0.2,0,0.3-0.1c2.3-0.2,4.6-0.2,6.9,0c3,0.3,5.9,0.8,8.8,1.6c0.4,0.1,0.7,0.3,1.2,0.3c0.6,0.2,1.3,0.5,1.9,0l0,0l0.2-0.2l0,0
	l0.1-0.2c0.1-0.1,0.3-0.2,0.4-0.1c0.4,0.2,0.8,0.3,1.2,0.4c0.7,0.3,0.7,0.3,0.3,0.9c-2,2.3-4,4.6-6,7c-0.5,0.6-0.9,0.8-1.6,0.4
	c-0.1-0.1-0.2-0.1-0.3-0.2c-0.7-0.3-0.7-0.3-0.3-1c0.4-0.4,0.3-0.7-0.2-0.9c-0.4-0.2-0.8-0.3-1.2-0.5c-3.7-1.1-7.6-1.5-11.5-1.1
	c-1.6,0.1-3.2,0.5-4.7,1.2c-0.4,0.2-1.1,0.5-1,1.1s0.8,0.6,1.3,0.6l0,0c0.1,0.1,0.3,0.1,0.4,0.1c1.8,0.3,3.6,0.5,5.4,0.6
	c3.5,0,7,0.4,10.5,1.2c1.3,0.3,2.6,0.9,3.7,1.8c0.7,0.5,1.2,1.2,1.5,2c0.4,1,0.6,2.2,0.3,3.3c-0.5,2.6-2,4.9-4.3,6.3
	c-3.6,2.4-7.8,3.9-12.2,4.2c-3.8,0.4-7.6,0.3-11.4-0.1c-3.1-0.3-6.1-0.9-9-1.9c-0.4-0.1-0.7,0-1,0.2C20.2,60,19.4,60.1,18.9,59.8z"
	/>
<path class="st0" d="M102.6,42.1l-0.1-0.1c-0.9-0.3-0.9-0.3-0.6-1.2c0-0.3,0.3-0.5,0.6-0.4c4,0,8,0,12,0c0.4,0,0.5,0.1,0.4,0.5
	c0,0.2-0.1,0.4-0.1,0.6c-0.1,0.2-0.1,0.3-0.4,0.4c-0.7,0.2-0.7,0.4-0.3,1c0.1,0.1,0.3,0.3,0.4,0.4l5.2,6.1l1.7-6.5
	c0.1-0.3,0.3-0.6-0.1-0.8c0,0-0.1-0.1-0.1-0.1c-0.9-0.3-0.9-0.4-0.5-1.3c0-0.2,0.2-0.3,0.4-0.3h9.8l-0.4,1.1
	c-0.1,0.4-0.4,0.4-0.7,0.5c-0.5,0-0.9,0.4-1.1,0.9c-1.3,5.1-2.6,10.1-4,15.1c-0.2,0.9-0.1,1.1,0.9,1.1l0,0l0.1,0.1l-0.1,0.8
	c-0.1,0.5-0.4,0.5-0.8,0.5c-3.1,0-6.1,0-9.2,0c-1.1-0.1-1.1,0-0.7-1.1c0.1-0.3,0.3-0.4,0.6-0.4c1-0.4,1.2-0.7,0.5-1.5l-5.8-6.9
	l-0.7-0.8c0-0.1,0-0.2-0.1-0.2l0,0c-0.3-0.5-0.6-0.9-1-1.3c-0.1,0.2-0.1,0.4-0.2,0.6l-2.3,9c-0.3,1-0.2,1.1,0.9,1.3l0,0l0.2,0.1
	c0.1,0.3-0.1,0.6-0.1,0.8c0,0.5-0.3,0.5-0.8,0.5c-2.8,0-5.6,0-8.3,0h-0.9c0-0.1,0.1-0.3,0.1-0.4c0-0.6,0.4-1,0.9-1.1
	c0,0,0.1,0,0.1,0c0.4,0,0.7-0.3,0.8-0.7c1.3-5.1,2.6-10.3,3.9-15.4C102.8,42.6,103.1,42.3,102.6,42.1z"/>
<path class="st0" d="M126.9,60.1c1.5-1.2,3.1-2.5,4.6-3.7c1.9-1.5,3.8-3,5.7-4.4l2.1-1.6c0.3-0.2,0.4-0.3,0.1-0.7
	c-1.3-1.8-2.5-3.6-3.8-5.4c-0.2-0.3-0.4-0.5-0.6-0.8c-0.3-0.6-0.8-1.2-1.4-1.5c-0.1,0-0.1-0.1-0.2-0.1c-0.2-0.2-0.6,0-0.7-0.2
	s0.2-0.7,0.3-1s0.3-0.2,0.4-0.2h11.8c0.4,0,0.5,0.1,0.4,0.5c-0.1,0.2-0.1,0.4-0.1,0.6c-0.1,0.2-0.2,0.3-0.4,0.3s-0.8-0.1-0.9,0.2
	s0.2,0.7,0.5,1c0,0,0.1,0.1,0.1,0.1c0.3,0.4,0.6,0.8,0.9,1.3s0.6,0.5,1,0.1c0.8-0.7,1.6-1.4,2.5-2c0.1-0.1,0.2-0.2,0.3-0.4
	c0.2-0.3,0.2-0.4-0.2-0.4s-0.7,0.1-0.6-0.4s-0.1-1,0.7-1c3.5,0,6.9,0,10.4,0c0.4,0,0.6,0.1,0.4,0.5c-0.1,0.2-0.1,0.4-0.1,0.6
	c-0.1,0.1-0.1,0.3-0.4,0.3c-1,0.3-1.9,0.8-2.7,1.5c-2.3,1.8-4.5,3.6-6.7,5.4c-1,0.8-1,0.8-0.2,1.8c1.9,2.7,3.8,5.3,5.7,7.9
	c0.2,0.3,0.5,0.5,0.8,0.6c0.7,0.1,0.9,0.4,0.6,1c-0.1,0.5-0.4,0.5-0.8,0.5c-3.7,0-7.4,0-11.1,0c-0.9,0-0.9,0-0.7-0.9
	c0.1-0.5,0.3-0.6,0.8-0.6s0.6-0.2,0.3-0.6l-1.6-2.3c-0.1-0.3-0.3-0.6-0.5-0.9c-0.1-0.2-0.3-0.2-0.4,0s-0.3,0.2-0.3,0.4l-0.1,0.1
	l-0.1,0.1l-0.1,0.1l-0.1,0.1l-0.2,0.2l-0.1,0.1l-0.1,0.1l-0.1,0.1c-0.5,0.5-0.9,1-1.4,1.5l-0.1,0.1l-0.1,0.1
	c-0.1,0.1-0.3,0.2-0.3,0.3l-0.1,0.1l-1.9,2l0.1,0.1c0.6-0.7,1.3-1.3,1.8-2l0.1-0.1c0.1-0.1,0.3-0.2,0.3-0.3l0.1-0.1l0.1-0.1
	c0.5-0.5,0.9-0.9,1.4-1.5l0.1-0.1l0.1-0.1l0.1-0.1c0.1-0.1,0.2-0.1,0.1-0.3c0.1,0.1,0.1,0,0.2-0.1l0.1-0.1l0.1-0.1l0.1-0.2
	c0.3-0.3,0.5-0.3,0.6,0.1c0.1,0.1,0.2,0.3,0.3,0.4l-5.1,5.5l-2.8,3c-0.1-0.3,0.5-0.9-0.4-1l2.2-2.4l-0.1-0.1c-1,0.9-1.9,1.9-2.7,3
	c0.8-0.1,0.8,0.1,0.7,0.7s-0.3,0.8-1,0.8c-1.3-0.1-2.7,0-4,0h-9.4c-0.8,0-1.6-0.1-2.4,0c-0.6,0.1-1.2-0.2-1.6-0.6c1,0,1.9,0,2.8,0
	c0.3,0,0.6,0.1,0.6-0.4s0.2-0.5,0.6-0.6c0.9-0.2,1.8-0.7,2.4-1.4c0.4-0.3,0.7-0.6,1.1-0.9c0.8-0.5,1.5-1,2.2-1.7l0,0L126.9,60.1z
	 M126.7,63.5l0.1,0.1c0.7,0,1.4-0.1,2.1,0c0.8,0.1,1.5-0.2,2-0.8c0.9-0.9,1.9-1.8,3-2.8c-1.6,0.1-3.1-0.4-4.3,1
	c-0.4,0.4-0.8,0.7-1.3,1.1L126.7,63.5z M138.4,56c-0.7,0-1.2,0-1.8,0c-0.3,0-0.7-0.1-0.9,0.1c-0.9,0.8-1.9,1.5-2.9,2.4h2.4
	c0.2,0,0.4,0.1,0.6-0.1L138.4,56z M141.9,52.7l-0.1-0.1c-0.8,0.2-1.7-0.3-2.4,0.3s-1.3,1.1-1.9,1.6c0.6,0.1,1.3,0.1,1.9,0.1
	c0.2,0,0.4,0,0.5-0.2L141.9,52.7z M145.1,49.8c-1.7-0.6-2.6,0.6-3.6,1.5C143.1,51.9,144.2,50.9,145.1,49.8L145.1,49.8z M144.8,48.4
	c1.2,0.4,2.5-0.2,3.1-1.4C146.4,46.8,146,47,144.8,48.4L144.8,48.4z M150.3,44.9c-1-0.2-2.1,0.2-2.6,1.2
	C149.2,46.2,149.3,46.1,150.3,44.9L150.3,44.9z M152.5,43c-1.1-0.4-1.7,0.4-2.4,1C151.3,44.4,151.8,43.6,152.5,43L152.5,43z
	 M154.3,41.5c-1-0.3-1.5,0.4-2.1,0.9C153.2,42.7,153.7,42,154.3,41.5L154.3,41.5z"/>
<path class="st0" d="M57.2,60.6h-1c0-0.1,0.1-0.3,0.1-0.4c0-0.7,0.3-1.1,1-1.1c0.6,0,0.8-0.4,1-0.9c1.4-5,2.7-9.9,4.1-14.9
	c0.1-0.1,0.1-0.3,0.1-0.4c0.1-0.3,0.4-0.7-0.2-0.8c-1-0.5-1-0.5-0.6-1.6h15.7c1.4,0,2.7,0.2,4,0.5c1.6,0.4,2.9,1.4,3.7,2.9
	c0,0.1,0,0.2,0.1,0.2l0,0c0.1,0.4,0.1,0.9,0.2,1.3c0,2.7-1.5,5.1-3.9,6.3c-1.9,0.9-4,1.5-6.2,1.6c-2.2,0.2-4.5,0.2-6.8,0.1
	c-0.3-0.1-0.7,0.2-0.7,0.5c0,0,0,0,0,0.1c-0.3,1.3-0.7,2.7-1.1,4c-0.3,0.9-0.2,1,0.8,1.2c0.5,0.3,0,0.6,0.1,0.9s-0.3,0.5-0.7,0.5
	C63.7,60.6,60.4,60.6,57.2,60.6z M70,49c1.9,0.1,3.8,0,5.7-0.3c0.9-0.2,1.5-0.9,1.6-1.8c0,0,0.1,0.1,0.2,0c0,0,0,0,0-0.1
	c0.1-0.8-0.2-1.2-1.1-1.4c-2-0.2-4-0.3-6-0.3c-0.3,0-0.3,0.3-0.4,0.5c-0.3,1-0.5,1.9-0.8,2.9c-0.2,0.6,0,0.6,0.5,0.6L70,49z"/>
<path class="st0" d="M93.8,59.2c0.1,0.3-0.1,0.6-0.1,0.8s-0.3,0.5-0.7,0.5c-3.1,0-6.2,0-9.3,0c-1-0.1-1.1-0.3-0.7-1.2
	c0.1-0.3,0.3-0.2,0.5-0.3c0.7-0.1,1.2-0.6,1.3-1.3c1.2-4.9,2.6-9.8,3.8-14.7c0-0.1,0-0.2,0.1-0.3c0.1-0.3,0.4-0.6-0.1-0.8
	c-1-0.5-1-0.5-0.5-1.6h10.7l-0.3,1c-0.1,0.2-0.3,0.3-0.5,0.3c-0.9,0.1-1.2,0.7-1.4,1.4c-1.3,4.9-2.6,9.8-3.8,14.7
	c-0.3,0.9-0.2,1.1,0.8,1.2l0,0L93.8,59.2z"/>
<path class="st0" d="M34,65.5h-5.5c-3,0-6,0-9,0c-0.4,0-0.7-0.1-1-0.3c-1.3-0.8-2.6-1.7-4-2.5c0.2-0.1,0.5-0.2,0.7-0.1
	c4.4,0.1,8.8,0.2,13.1,0.3c1.1-0.1,2.1,0.3,3,0.9c0.8,0.6,1.7,1.1,2.6,1.7L34,65.5z"/>
<path class="st0" d="M58.9,48.9c0.4,1.1,0.5,2.2,0.2,3.3c-0.5,2.2-1.8,4.2-3.6,5.5c-2.9,2.2-6.4,3.7-10,4.2
	c-4.8,0.8-9.7,0.8-14.6,0.2c-2.9-0.3-5.8-0.9-8.6-1.9c-0.3-0.1-0.6,0-0.9,0.2c-0.5,0.6-1.3,0.7-1.9,0.2c-0.2-0.1-0.4-0.2-0.6-0.2
	c-0.5-0.2-0.3-0.3,0-0.5c0.5,0.4,1.2,0.3,1.6-0.1c0.2-0.2,0.5-0.5,0.9-0.3c2.9,1,5.8,1.6,8.8,1.9c4.8,0.6,9.6,0.6,14.3-0.2
	c3.5-0.5,6.8-1.9,9.7-3.9c2.1-1.4,3.6-3.5,4.3-5.9C58.7,50.6,58.8,49.8,58.9,48.9z"/>
<path class="st0" d="M52.2,75.9c-0.9,1.3-1.7,2.7-2.6,4L49,80.8l-1-5.1h-0.1c-0.2,1-0.4,1.9-0.6,2.9c-0.1,0.3-0.1,0.6-0.2,0.9
	s-0.2,0.7,0.3,0.8c0.1,0,0.2,0.1,0.2,0.2s-0.2,0.1-0.3,0.1h-1.4c-0.1,0-0.3,0.1-0.3-0.1s0.1-0.2,0.2-0.2c0.5-0.1,0.6-0.5,0.7-0.9
	c0.4-1.6,0.8-3.3,1.1-4.9c0.1-0.4,0.2-0.8-0.4-0.8c-0.1,0-0.2-0.1-0.2-0.2s0.1-0.1,0.2-0.1c0.6,0,1.2,0,1.8,0c0.3,0,0.2,0.4,0.3,0.6
	c0.3,1.4,0.6,2.7,0.8,4.1c0.2,0,0.3-0.2,0.3-0.3c0.8-1.3,1.6-2.6,2.4-3.9c0.1-0.3,0.5-0.5,0.9-0.5c0.4,0,0.8,0,1.2,0
	c0.1,0,0.3,0,0.3,0.1s-0.1,0.2-0.2,0.2c-0.5,0-0.6,0.4-0.7,0.8c-0.4,1.7-0.8,3.4-1.1,5.1c-0.1,0.4,0,0.7,0.4,0.7
	c0.1,0,0.2,0.1,0.2,0.2c0,0,0,0,0,0c0,0.1-0.1,0.2-0.3,0.1c-0.9-0.1-1.9-0.1-2.8,0c-0.1,0-0.3,0-0.3-0.2s0.2-0.2,0.3-0.2
	c0.5,0,0.7-0.4,0.8-0.8c0.3-1.2,0.6-2.4,0.8-3.6c0.1-0.1,0.1-0.2,0-0.3L52.2,75.9z"/>
<path class="st0" d="M38.1,63.1l10.3,0.2c0.2,0,0.4,0,0.6,0.1c1.1,0.6,2.2,1.3,3.2,2.1h-1.8h-8.3c-0.2,0-0.4,0-0.6-0.1L38.1,63.1
	L38.1,63.1z"/>
<path class="st0" d="M85.7,44.9c1.1,2.8-0.7,6.9-4.5,8.4c-2.5,0.9-5.2,1.3-7.9,1.3c-1.4,0-2.8,0-4.2,0c-0.4,0-0.6,0.1-0.7,0.5
	c-0.3,1.2-0.7,2.5-1,3.7c-0.7,0-0.8,0-0.6-0.7c0.3-1.3,0.7-2.5,1.1-3.8c0-0.3,0.3-0.5,0.6-0.5c0,0,0,0,0.1,0c1.5,0,3,0,4.5,0
	c2.6,0,5.2-0.4,7.6-1.4c2.9-1.1,4.8-3.7,4.9-6.8C85.7,45.4,85.4,45.1,85.7,44.9z"/>
<path class="st0" d="M112,73.3c-0.1,0.6-0.1,1.1-0.2,1.6c0,0.1,0,0.3-0.2,0.3s-0.2-0.1-0.2-0.3c-0.2-0.8-0.9-1.3-1.7-1.1
	c-0.1,0-0.1,0-0.2,0c-0.1,0-0.3,0.2-0.3,0.3c-0.1,0.7-0.3,1.4-0.5,2c0,0.1-0.1,0.3,0.2,0.3c0.6,0,1.1,0.1,1.4-0.5
	c0.1-0.1,0.1-0.3,0.3-0.2s0.1,0.3,0,0.4c-0.1,0.6-0.3,1.1-0.4,1.7c0,0.1-0.1,0.3-0.3,0.2s-0.1-0.2-0.1-0.3c0-0.4-0.1-0.7-0.5-0.6
	s-1-0.3-1,0.5c-0.1,0.7-0.2,1.3-0.4,2c-0.1,0.3,0,0.4,0.3,0.4c1.1,0,2.1-0.1,2.7-1.2c0.1-0.2,0.2-0.3,0.4-0.2s0.1,0.3,0,0.4
	c-0.1,0.5-0.1,1.2-0.5,1.5s-1,0.1-1.6,0.1h-3.8c-0.1,0-0.3,0-0.3-0.1s0.1-0.2,0.3-0.3c0.5,0,0.6-0.4,0.7-0.7
	c0.4-1.7,0.8-3.5,1.2-5.2c0.1-0.3,0-0.6-0.4-0.6c-0.1,0-0.3-0.1-0.3-0.2s0.2-0.1,0.3-0.1L112,73.3z"/>
<path class="st0" d="M80.4,76.5c0.6,1.5-0.2,2.6-1.9,2.8c-0.3,0-0.8-0.2-0.8,0.2s0.5,0.4,0.8,0.5c0.3,0.1,0.7,0.2,1,0.4
	c0.6,0.3,0.9,1,0.7,1.6c-0.1,0.3-0.3,0.5-0.5,0.6c-1.1,0.7-2.5,0.8-3.7,0.2c-0.5-0.2-0.7-0.7-0.6-1.2c0.1-0.3,0.3-0.5,0.6-0.6
	c0.2-0.1,0.4-0.2,0.7-0.3c-0.7-0.8-0.6-1,0.7-1.6c-0.7-0.6-0.8-1.6-0.2-2.3c0,0,0,0,0.1-0.1c0.7-0.8,1.8-1.1,2.8-0.6
	c0.2,0.1,0.5,0,0.7-0.1c0.2-0.1,0.5-0.4,0.7-0.1c0.2,0.1,0.2,0.4,0.1,0.5c-0.2,0.3-0.5,0.2-0.7,0.1C80.5,76.4,80.5,76.4,80.4,76.5z
	 M78.1,82.6c0.1,0,0.3,0,0.4,0c0.3-0.1,0.7-0.2,0.8-0.6s-0.2-0.6-0.6-0.8s-0.8-0.3-1.2-0.5s-0.6,0.1-0.7,0.4
	C76.4,81.9,77,82.6,78.1,82.6z M79.3,76.9c0-0.4,0-0.6-0.2-0.7c-0.3-0.1-0.6,0-0.7,0.3c-0.3,0.5-0.5,1-0.6,1.6c0,0.3,0,0.6,0.3,0.7
	s0.5-0.1,0.7-0.3C79.1,77.9,79.3,77.4,79.3,76.9L79.3,76.9z"/>
<path class="st0" d="M63,77.7c0.4-0.3,0.8-0.5,1.1-0.8c0.2-0.1,0.5-0.2,0.5-0.5S64.2,76.3,64,76h2.5c-0.6,0.3-1.2,0.6-1.7,1L64.7,77
	c-0.2,0.1-0.4,0.3-0.3,0.6c0.2,0.7,0,1.5,0.6,2c0.3,0.2,0.4-0.1,0.6-0.3s0.1-0.2,0.2-0.1c0.1,0,0.1,0.1,0.1,0.2
	c-0.1,0.7-0.6,1.2-1.3,1.5c-0.5,0.1-1.1-0.2-1.2-0.7c0,0,0,0,0-0.1c-0.2-0.5-0.3-1.1-0.4-1.6c-0.3,0.1-0.5,0.3-0.5,0.6
	c-0.1,0.5-0.2,0.9-0.3,1.4c-0.1,0.3-0.2,0.4-0.5,0.4c-1,0-1,0-0.8-0.9c0.4-1.8,0.8-3.7,1.2-5.5c0.2-0.6-0.3-0.4-0.6-0.6
	c0.7-0.3,1.5-0.5,2.2-0.6l-1,4.6v0.1L63,77.7z"/>
<path class="st0" d="M66.9,65.5h-8.4c-0.2,0-0.4,0-0.6-0.1l-2.9-1.9c0.3-0.2,0.7-0.1,0.9-0.1c2.5,0,5,0.1,7.5,0.1
	c0.4,0,0.8,0.1,1.1,0.3c0.8,0.5,1.5,1,2.3,1.5L66.9,65.5z"/>
<path class="st0" d="M86.6,80.7h-2.4c-0.2,0-0.3,0.1-0.4-0.1s0.2-0.2,0.3-0.2c0.4,0,0.6-0.3,0.7-0.6c0.4-1.8,0.8-3.6,1.2-5.4
	c0.1-0.3,0-0.5-0.4-0.5c-0.1,0-0.3,0-0.3-0.2s0.2-0.2,0.3-0.2h2.8c0.1,0,0.2,0,0.3,0.1s-0.1,0.2-0.2,0.3c-0.5,0.1-0.6,0.4-0.7,0.9
	c-0.4,1.7-0.7,3.3-1.1,5c-0.1,0.5,0,0.6,0.5,0.5c1,0,1.9-0.4,2.4-1.2c0.1-0.2,0.2-0.5,0.5-0.4s0,0.4-0.1,0.6
	c-0.6,1.6-0.6,1.6-2.3,1.6L86.6,80.7L86.6,80.7z"/>
<path class="st0" d="M72.1,77.3l1.1-0.9c0.1-0.1,0.3-0.2,0.4-0.3c0.4-0.2,0.8-0.5,1.3-0.2s0.3,0.8,0.1,1.2c-0.2,0.7-0.3,1.3-0.5,2
	c0,0.1-0.1,0.3,0.1,0.4s0.2-0.1,0.3-0.2c0.1-0.1,0.2-0.2,0.2-0.3c0.1-0.1,0.2-0.1,0.2-0.1c0.1,0.1,0.1,0.1,0.1,0.2
	c-0.2,0.8-0.9,1.4-1.7,1.6c-0.6,0-0.9-0.3-0.8-0.9c0.1-0.8,0.5-1.5,0.6-2.3c0-0.2,0.2-0.4-0.1-0.6S73.1,77,73,77.2
	c-0.8,0.7-1.3,1.7-1.4,2.8c-0.1,0.5-0.7,0.9-1.2,0.7c0,0-0.1,0-0.1,0c-0.3-0.1-0.1-0.3-0.1-0.5c0.2-1,0.4-2,0.7-3
	c0.1-0.4,0.2-0.6-0.4-0.6c-0.1,0-0.2,0-0.2-0.1s0.1-0.2,0.2-0.2l1.7-0.4c0.3-0.1,0.3,0.1,0.2,0.3C72.3,76.5,72.2,77,72.1,77.3z"/>
<path class="st0" d="M60.2,75.7c-0.3,1.2-0.6,2.3-0.9,3.3c-0.1,0.2-0.2,0.5,0,0.6s0.4-0.2,0.5-0.4s0.1-0.3,0.3-0.2s0.1,0.3,0,0.4
	c-0.2,0.4-0.5,0.8-0.9,1.1c-0.9,0.6-1.5,0.2-1.6-0.9c-0.5,0.6-0.9,1.2-1.7,1.2c-0.6,0.1-1.2-0.4-1.2-1c0,0,0,0,0,0
	c-0.2-1.7,0.8-3.3,2.4-4h0.2c0.5-0.2,1.1,0.5,1.4,0.2C59.2,75.5,59.7,76,60.2,75.7z M56.2,78.9c0,0.4,0,0.7,0.3,0.9s0.6-0.1,0.9-0.4
	c0.6-0.7,1-1.5,1.1-2.4c0.1-0.4-0.1-0.7-0.4-0.9c-0.4-0.2-0.7,0.1-0.9,0.4C56.6,77.2,56.3,78,56.2,78.9L56.2,78.9z"/>
<path class="st0" d="M114.9,79.7c-0.5,0.6-1,1.2-1.8,1.1c-0.5,0-1-0.4-1.1-0.9c-0.2-1.8,0.8-3.5,2.5-4.1h0.3
	c0.5-0.1,0.8,0.2,1.2,0.4c0.2-0.7,0.7-0.3,1.1-0.4s0.4,0.2,0.3,0.4c-0.3,0.9-0.5,1.9-0.8,2.8c0,0.2-0.2,0.4,0,0.5s0.3-0.1,0.4-0.3
	s0.1-0.4,0.4-0.3s0,0.4-0.1,0.5c-0.2,0.4-0.4,0.7-0.7,0.9c-0.4,0.3-0.9,0.5-1.4,0.3C114.8,80.5,115,80.1,114.9,79.7z M113.4,79
	c0,0.3,0,0.6,0.3,0.8c0.2,0.1,0.4,0.1,0.6-0.1c0.8-0.7,1.4-1.8,1.4-2.9c0-0.3-0.1-0.6-0.5-0.8c-0.3-0.1-0.6,0-0.8,0.3
	C113.9,77.1,113.5,78,113.4,79z"/>
<path class="st0" d="M96.8,74.5c0.1,0.4,0.1,0.9,0,1.3c-0.1,0.4,0.2,0.3,0.4,0.3s0.4-0.1,0.4,0.2s-0.3,0.2-0.4,0.2
	c-0.6-0.1-0.6,0.2-0.7,0.6c-0.2,1.4-0.6,2.8-1.2,4.2c-0.2,0.6-0.6,1.2-1.2,1.5c-0.7,0.3-1.4,0.1-1.5-0.5c-0.1-0.3,0.1-0.6,0.4-0.7
	c0.3-0.1,0.6,0,0.7,0.3c0.1,0.2,0.2,0.4,0.4,0.3s0.3-0.3,0.3-0.5c0.1-1.6,0.4-3.2,0.7-4.8c0.1-0.4-0.2-0.3-0.4-0.3s-0.5,0.1-0.5-0.2
	s0.3-0.2,0.5-0.2c0.4,0,0.6-0.1,0.6-0.5c0.1-0.7,0.4-1.3,0.7-1.8c0.3-0.6,1-0.9,1.6-0.8c0.4,0,0.7,0.3,0.8,0.7
	c0.1,0.3-0.1,0.6-0.4,0.7c-0.4,0.1-0.6-0.1-0.8-0.4c-0.1-0.1-0.1-0.2-0.3-0.2s-0.2,0.2-0.2,0.3S96.8,74.3,96.8,74.5z"/>
<path class="st1" d="M58.9,48.9c0,0.8-0.2,1.7-0.3,2.5c-0.7,2.4-2.2,4.5-4.3,5.9c-2.9,2-6.2,3.3-9.7,3.9c-4.7,0.7-9.6,0.8-14.3,0.2
	c-3-0.3-6-0.9-8.8-1.9c-0.4-0.1-0.7,0.1-0.9,0.3c-0.4,0.5-1.2,0.6-1.7,0.1c0,0,0,0,0,0l0.1-0.2c0.5,0.3,1.2,0.2,1.6-0.3
	c0.3-0.3,0.6-0.4,1-0.2c2.9,1,5.9,1.6,9,1.9c3.8,0.5,7.6,0.5,11.4,0.1c4.3-0.3,8.5-1.8,12.2-4.2c2.3-1.4,3.8-3.7,4.4-6.3
	c0.2-1.1,0.1-2.3-0.3-3.3c0.4,0.2,0.6,0.6,0.7,1C58.8,48.6,58.7,48.8,58.9,48.9L58.9,48.9z"/>
<path class="st0" d="M131.6,41.5c0.2,0.5-0.2,1.4-0.7,1.5c-0.9,0.2-1.2,0.7-1.4,1.5c-1.1,4.6-2.4,9.1-3.5,13.7
	c-0.1,0.2-0.1,0.5-0.3,0.7c-0.6-0.1-0.6-0.4-0.4-0.9c1.3-4.9,2.6-9.8,3.9-14.8c0.1-0.5,0.5-0.9,1-1c0.2,0,0.5,0,0.6-0.3
	C130.9,41.5,131.2,41.5,131.6,41.5z"/>
<path class="st0" d="M98.8,41.5c0.2,0.1,0.7-0.2,0.7,0.2s0.1,1.1-0.5,1.2c-1.1,0.2-1.4,0.8-1.7,1.8c-1.2,4.6-2.4,9.1-3.6,13.7
	c0,0.1-0.1,0.3-0.2,0.4c-0.6,0-0.6-0.4-0.4-0.8c1.3-4.9,2.6-9.8,3.9-14.8c0.1-0.6,0.4-0.9,1-1C98.3,42.2,98.8,42.1,98.8,41.5z"/>
<path class="st0" d="M160.3,41.5c0.3,0,0.6-0.2,0.7,0.1c-0.1,0.5-0.3,0.9-0.7,1.3c-1.2,0.4-2.2,1-3.1,1.9l-6.4,5.2
	c-0.2,0.1-0.3,0.3-0.5,0.3c-0.5-0.7-0.5-0.7,0.2-1.3c2.1-1.7,4.3-3.5,6.4-5.2c0.8-0.8,1.8-1.3,2.9-1.7
	C160.1,42,160.3,41.8,160.3,41.5z"/>
<path class="st0" d="M69.9,63.8h6.9c0.1,0,0.3,0,0.4,0.1c0.8,0.5,1.5,1,2.2,1.6h-2c-1.5,0-2.9,0-4.4,0c-0.4,0-0.8-0.1-1.1-0.4
	C71.3,64.7,70.6,64.3,69.9,63.8z"/>
<path class="st0" d="M53.4,41.3c-0.8-0.1-1.6-0.3-2.3-0.6c-4-0.9-8.3-1-12.3-0.1c-0.9,0.2-1.7,0.6-2.4,1l-0.2-0.1
	c-0.2-0.1-0.6-0.1-0.6-0.3s0.3-0.4,0.5-0.5c0.9-0.6,1.9-0.9,3-1.1c3-0.4,6-0.5,9-0.1c1.7,0.2,3.4,0.6,4.9,1.3
	C53.2,40.8,53.5,40.9,53.4,41.3z"/>
<path class="st0" d="M47.3,51.9C47.2,52.1,47,52,46.9,52c-2.7-0.6-5.4-0.9-8.2-0.9c-3.4,0-6.7-0.7-9.8-1.9c-0.8-0.3-1.1-0.6-1.3-0.9
	c0.4,0,0.7,0.3,1.1,0.4c3.2,1.1,6.5,1.6,9.9,1.6c2.2,0,4.5,0.2,6.6,0.7C46,51.1,46.7,51.4,47.3,51.9z"/>
<path class="st0" d="M127.5,80.8c-1.1,0-1.7-0.6-1.6-1.8c0.2-1.8,1.7-3.2,3.5-3.2c0.5,0,1.1,0.1,1.2,0.7c0.2,0.6-0.1,1.2-0.6,1.5
	c-0.6,0.4-1.2,0.6-1.9,0.6c-0.3,0-0.8-0.2-0.8,0.4c0,0.5,0.3,0.9,0.8,0.9c0,0,0,0,0,0c0.5,0,1-0.2,1.4-0.6c0.1-0.1,0.2-0.4,0.4-0.3
	s0,0.4-0.1,0.5C129.3,80.4,128.4,80.8,127.5,80.8z M127.5,78.3c0.9,0.1,1.7-0.6,1.9-1.5c0-0.2,0.1-0.5-0.1-0.6s-0.4,0-0.6,0.2
	C128.1,76.9,127.7,77.6,127.5,78.3L127.5,78.3z"/>
<path class="st0" d="M97.6,79.1c0.1-1.9,1.6-3.3,3.5-3.3c0.5,0,1,0.1,1.2,0.7c0.2,0.6-0.1,1.3-0.7,1.6c-0.6,0.3-1.2,0.5-1.9,0.5
	c-0.3,0-0.7-0.2-0.7,0.3c0,0.4,0.3,0.8,0.7,0.9c0.6,0.1,1.2-0.2,1.5-0.6c0.1-0.1,0.2-0.4,0.4-0.2s0,0.3-0.1,0.4
	c-0.5,0.8-1.4,1.3-2.4,1.3C98,80.7,97.5,80.3,97.6,79.1z M101,76.5c0-0.4-0.3-0.4-0.6-0.2c-0.6,0.5-1.1,1.1-1.2,1.9
	c-0.1,0.3,0.2,0.2,0.3,0.2C100.3,78.1,100.9,77.4,101,76.5z"/>
<path class="st0" d="M135.8,65.2c0.5-0.1,0.7,0,0.6,0.6c-0.2,0.9-0.2,0.9-1.1,0.9h-13.3c-0.8,0-0.8,0-0.6-0.8h0.8c4.3,0,8.7,0,13,0
	C135.5,65.9,135.8,65.8,135.8,65.2z"/>
<path class="st0" d="M62.4,35.5l0.6,0.3l-2.3,2.7c-1.4,1.7-2.9,3.4-4.3,5.1c-0.3,0.3-0.5,0.4-0.9,0.2c-0.4-0.2-0.8-0.4-1.2-0.5
	C54,43.3,54,43.2,54.2,43c0.1,0,0.3,0,0.4,0.1c0.6,0.4,1,0.1,1.4-0.4c1.9-2.3,3.8-4.5,5.7-6.8C61.8,35.7,61.9,35.4,62.4,35.5z"/>
<path class="st1" d="M85.7,44.9c-0.3,0.2-0.1,0.5-0.1,0.7c-0.1,3-2.1,5.7-4.9,6.8c-2.4,0.9-5,1.4-7.6,1.4c-1.5,0.1-3,0-4.5,0
	c-0.3-0.1-0.6,0.1-0.6,0.4c0,0,0,0,0,0.1c-0.3,1.3-0.7,2.5-1.1,3.8c-0.2,0.7-0.1,0.7,0.6,0.7v0.4c-1-0.1-1.1-0.2-0.8-1.2
	c0.4-1.3,0.7-2.7,1.1-4c0-0.3,0.3-0.6,0.7-0.6c0,0,0,0,0.1,0c2.3,0.1,4.5,0,6.8-0.1c2.1-0.1,4.3-0.6,6.2-1.6
	c2.4-1.2,3.9-3.6,3.9-6.3c0-0.4-0.1-0.9-0.2-1.3C85.4,44.2,85.7,44.5,85.7,44.9z"/>
<path class="st0" d="M121.7,77.4c-0.3-0.2-0.3-0.4-0.3-0.6c-0.1-0.3-0.4-0.5-0.7-0.6c-0.2-0.1-0.4,0-0.6,0.2c-0.2,0.2-0.2,0.4,0,0.6
	c0.4,0.4,0.7,0.8,1.1,1.2c0.4,0.4,0.5,0.9,0.5,1.4c0,0.7-0.7,1.3-1.4,1.3c-0.6,0-1.3-0.1-1.9-0.1c-0.2,0-0.2-0.1-0.2-0.3
	c0.1-0.5,0.1-0.9,0.2-1.4c0-0.1,0-0.2,0.1-0.3s0.2,0.1,0.2,0.2c0.1,0.5,0.4,0.9,0.8,1.2c0.3,0.2,0.7,0.3,1-0.1s0-0.6-0.2-0.8
	c-0.4-0.4-0.8-0.9-1.2-1.3c-0.4-0.4-0.5-1-0.2-1.5c0.3-0.5,0.8-0.7,1.3-0.7c0.5,0,1,0.1,1.5,0.1c0.2,0,0.3,0.1,0.2,0.3
	C121.9,76.6,121.8,77,121.7,77.4z"/>
<path class="st1" d="M47.3,51.9c-0.5-0.5-1.2-0.9-2-0.9c-2.2-0.4-4.4-0.6-6.6-0.7c-3.4,0-6.7-0.6-9.9-1.6c-0.4-0.1-0.7-0.4-1.1-0.4
	l0,0C27.6,48,27.4,48,27.2,48l-0.7-1c0,0,0.1,0,0.1,0c2.8,2,6,2.4,9.3,2.7c2.5,0.2,5.1,0.2,7.6,0.5c1.1,0.1,2.2,0.3,3.3,0.8
	c0.4,0.2,0.9,0.4,0.8,1L47.3,51.9z"/>
<path class="st0" d="M90.9,65.7h-6.1c-0.3,0-0.4-0.2-0.6-0.3l-1.9-1.3c0.7,0,1.3,0,1.9,0c1.3,0,2.6,0.1,3.9,0.1c0.5,0,1,0.1,1.5,0.5
	c0.4,0.3,0.9,0.6,1.3,0.9L90.9,65.7z"/>
<path class="st0" d="M157.5,60.2c0.3,0,0.7,0,0.6,0.4s0.2,1-0.6,1c-3.9,0-7.7,0-11.6,0c-0.8,0-0.4-0.5-0.4-0.8c3.8,0,7.6,0,11.4,0
	C157.3,60.9,157.5,60.7,157.5,60.2z"/>
<path class="st0" d="M133.4,75.8c0,0.5-0.2,0.9-0.1,1.3c0.4-0.2,0.5-0.6,0.8-0.9c0.2-0.3,0.6-0.5,1-0.4c0.3,0.1,0.4,0.3,0.5,0.6
	c0,0.4-0.1,0.8-0.5,1.1c-0.2,0.2-0.5,0.2-0.7,0c-0.4-0.4-0.5-0.1-0.7,0.1c-0.5,0.7-0.8,1.6-0.9,2.5c-0.1,0.5-0.7,0.9-1.2,0.7
	c-0.1,0-0.1,0-0.2-0.1c-0.3-0.1-0.1-0.3-0.1-0.4c0.2-1,0.5-2.1,0.7-3.1c0.1-0.3,0.2-0.6-0.3-0.6c-0.1,0-0.2,0-0.2-0.2
	c0-0.1,0.1-0.2,0.2-0.2L133.4,75.8z M133.3,77.3L133.3,77.3c-0.1-0.1-0.1,0-0.1,0s0,0.1,0,0.1L133.3,77.3z"/>
<path class="st0" d="M67.8,60.2c0.3,0.1,0.7,0,0.6,0.4s0.1,1.1-0.8,1c-3.3,0-6.6,0-10,0c-0.8,0-0.8,0-0.6-0.8c3.3,0,6.6,0,9.9,0
	C67.6,60.9,67.9,60.7,67.8,60.2z"/>
<path class="st0" d="M93.8,60.1c0.2,0.2,0.8-0.1,0.6,0.5s0,1-0.9,1c-3.2,0-6.3,0-9.5,0c-0.8,0-0.8,0-0.5-0.8c3.1,0,6.2,0,9.4,0
	C93.5,60.9,93.8,60.7,93.8,60.1z"/>
<path class="st1" d="M131.6,41.5c-0.4,0-0.7,0-0.8,0.5c-0.1,0.3-0.4,0.2-0.6,0.3c-0.5,0.1-0.9,0.5-1,1c-1.3,4.9-2.6,9.9-3.9,14.8
	c-0.1,0.4-0.2,0.8,0.4,0.9v0.3c-1-0.1-1.1-0.2-0.9-1.1c1.3-5,2.7-10.1,4-15.1c0.1-0.5,0.5-0.9,1.1-0.9c0.3-0.1,0.6-0.2,0.7-0.5
	C130.9,41.5,131.3,41.4,131.6,41.5z"/>
<path class="st0" d="M93.4,75.8l-0.9,3.3c0,0.2-0.2,0.4,0,0.5s0.3-0.2,0.4-0.3s0.1-0.5,0.4-0.3c0.3,0.2,0,0.3-0.1,0.5
	c-0.3,0.6-0.7,1.3-1.6,1.3s-1-0.3-0.9-1s0.4-1.6,0.6-2.5c0.1-0.4,0.3-0.8-0.4-0.8c-0.1,0-0.2-0.1-0.2-0.1s0.2-0.2,0.3-0.2L93.4,75.8
	z"/>
<path class="st0" d="M125.1,75.8c-0.3,1.1-0.6,2.2-0.9,3.3c0,0.2-0.2,0.4,0,0.5s0.3-0.2,0.5-0.3s0.1-0.5,0.4-0.3s0,0.3-0.1,0.4
	c-0.4,0.6-0.7,1.3-1.6,1.4c-0.7,0-1-0.3-0.9-1s0.4-1.6,0.6-2.5c0.1-0.4,0.3-0.9-0.4-0.8c-0.1,0-0.1-0.1-0.1-0.2s0.1-0.1,0.3-0.2
	L125.1,75.8z"/>
<path class="st0" d="M67.6,80.8c-0.6,0-0.8-0.2-0.8-0.9c0.1-0.8,0.3-1.6,0.6-2.4c0.1-0.4,0.6-1-0.4-1c0,0-0.1-0.1-0.1-0.1
	s0.1-0.2,0.2-0.2c0.7-0.1,1.3-0.3,2-0.4c0.4-0.1,0.2,0.3,0.2,0.4c-0.2,0.9-0.5,1.9-0.7,2.8c0,0.2-0.3,0.4,0,0.6s0.3-0.2,0.5-0.3
	s0.1-0.4,0.3-0.3s0,0.3-0.1,0.4C68.9,80.1,68.5,80.8,67.6,80.8z"/>
<path class="st1" d="M53.4,41.3c0.1-0.4-0.2-0.4-0.4-0.5c-1.6-0.7-3.2-1.1-4.9-1.3c-3-0.4-6-0.4-9,0.1c-1.1,0.1-2.1,0.5-3,1.1
	c-0.2,0.1-0.5,0.3-0.5,0.5s0.4,0.3,0.6,0.3l0.2,0.1c-0.1,0.2,0.2,0.2,0.2,0.3c-0.5-0.1-1.2-0.1-1.3-0.6s0.5-0.8,1-1.1
	c1.5-0.7,3-1.1,4.7-1.2c3.9-0.4,7.8,0,11.5,1.1c0.4,0.1,0.8,0.3,1.2,0.5c0.5,0.2,0.6,0.5,0.2,0.9C53.6,41.4,53.5,41.3,53.4,41.3z"/>
<path class="st0" d="M107,60.2c0.3,0.1,0.8-0.1,0.6,0.5s0.1,1-0.8,1c-2.9,0-5.7,0-8.5,0c-0.8,0-0.8,0-0.6-0.8c2.9,0,5.7,0,8.5,0
	C106.8,60.9,107.1,60.7,107,60.2z"/>
<path class="st1" d="M98.8,41.5c0,0.6-0.4,0.7-0.8,0.7c-0.6,0.1-0.9,0.4-1,1c-1.3,4.9-2.6,9.8-3.9,14.8c-0.1,0.4-0.2,0.8,0.5,0.8
	l0.1,0.3c-1-0.1-1.1-0.3-0.8-1.2c1.3-4.9,2.6-9.8,3.8-14.7c0.2-0.8,0.5-1.4,1.4-1.4c0.2,0,0.4-0.1,0.5-0.3L98.8,41.5z"/>
<path class="st0" d="M100.5,65.5h-5c-0.4,0-0.6-0.3-0.9-0.5s-0.8-0.5-1.2-0.8c1.6,0,3.1,0,4.7,0C99,64.2,99.7,64.9,100.5,65.5z"/>
<path class="st0" d="M124.4,61.6c-2.8,0-5.6,0-8.4,0c-0.8,0-0.1-0.5-0.2-0.8h9.5L124.4,61.6z"/>
<path class="st0" d="M109,49.6l-2.3,9.1c0,0.1-0.1,0.1-0.1,0.2c-0.6,0-0.6-0.3-0.5-0.8c0.5-1.9,1-3.7,1.5-5.6
	c0.3-1.1,0.6-2.2,0.9-3.3C108.8,49.2,108.9,49.4,109,49.6z"/>
<path class="st1" d="M135.8,65.2c0,0.6-0.3,0.7-0.8,0.7c-4.3,0-8.7,0-13,0h-0.8v-0.3h9.4c1.3,0,2.7,0,4,0c0.6,0,0.9-0.2,1-0.8
	s0.1-0.9-0.7-0.7c0.8-1.1,1.7-2.1,2.7-3l0.1,0.1l-2.2,2.4c0.9,0.1,0.3,0.6,0.4,1C135.9,64.9,135.5,65,135.8,65.2z"/>
<path class="st1" d="M160.3,41.5c0,0.3-0.2,0.5-0.5,0.6c-1.1,0.3-2.1,0.9-2.9,1.7c-2.1,1.7-4.3,3.5-6.4,5.2
	c-0.7,0.6-0.7,0.6-0.2,1.3l-0.2,0.2c-0.8-1-0.8-1,0.2-1.8c2.2-1.8,4.4-3.6,6.7-5.4c0.8-0.7,1.7-1.2,2.7-1.5c0.2,0,0.3-0.2,0.4-0.3
	L160.3,41.5z"/>
<path class="st0" d="M102.4,64.6c1.6-0.1,3.3-0.1,4.9,0.1c0.6,0,1,0.6,1.6,0.8c-0.1,0.2-0.3,0.1-0.4,0.1c-0.9,0-1.9-0.1-2.8,0
	C104.5,65.7,103.3,65.3,102.4,64.6L102.4,64.6z"/>
<path class="st1" d="M109,49.6c-0.1-0.2-0.2-0.4-0.5-0.4c-0.3,1.1-0.6,2.2-0.9,3.3c-0.5,1.9-1,3.7-1.5,5.6c-0.1,0.4-0.1,0.8,0.5,0.8
	l0.1,0.3c-1-0.1-1.1-0.3-0.9-1.3l2.3-9c0-0.2,0.1-0.3,0.2-0.6c0.4,0.4,0.7,0.8,1,1.3C109.2,49.5,109.1,49.4,109,49.6z"/>
<path class="st1" d="M62.4,35.5c-0.4-0.2-0.6,0.2-0.8,0.5c-1.9,2.2-3.8,4.5-5.7,6.8c-0.4,0.5-0.8,0.8-1.4,0.4
	c-0.1,0-0.2-0.1-0.4-0.1l0.1-0.4c0.7,0.4,1.1,0.1,1.6-0.4c2-2.4,4-4.7,6-7L62.4,35.5z"/>
<path class="st0" d="M116.1,65.5c-1.5,0-2.9,0-4.3,0c-0.6,0-1-0.5-1.6-0.8c1.2,0,2.4,0,3.5,0C114.7,64.6,115.5,64.9,116.1,65.5z"/>
<path class="st0" d="M162.4,42.5c1,0,1.8,0.7,1.8,1.7c0,0,0,0.1,0,0.1c0,1-0.7,1.8-1.7,1.8c0,0,0,0,0,0c-1,0-1.8-0.8-1.8-1.8
	c0,0,0,0,0,0C160.6,43.4,161.4,42.5,162.4,42.5C162.4,42.5,162.4,42.5,162.4,42.5z M161,44.3c0,0.8,0.6,1.5,1.4,1.5
	c0.8,0,1.4-0.7,1.4-1.5c0-0.8-0.6-1.5-1.4-1.5c0,0,0,0,0,0C161.6,42.8,161,43.5,161,44.3z"/>
<path class="st1" d="M124.4,61.6l0.8-0.8h-9.5v-0.2c3.1,0,6.1,0,9.2,0c0.4,0,0.7-0.1,0.8-0.5c0.3,0.1,0.7,0.2,1,0.1
	c-0.7,0.6-1.4,1.2-2.2,1.7C124.7,61.6,124.6,61.6,124.4,61.6z"/>
<path class="st1" d="M157.5,60.2c0,0.5-0.2,0.7-0.7,0.7c-3.8,0-7.6,0-11.4,0v-0.3c3.7,0,7.4,0,11.1,0c0.4,0,0.7-0.1,0.8-0.5
	L157.5,60.2z"/>
<path class="st1" d="M67.8,60.2c0,0.6-0.2,0.7-0.8,0.7c-3.3,0-6.6,0-9.9,0v-0.2c3.3,0,6.5,0,9.7,0c0.4,0,0.6-0.1,0.7-0.5L67.8,60.2z
	"/>
<path class="st1" d="M93.8,60.1c0,0.6-0.3,0.7-0.8,0.7c-3.1,0-6.2,0-9.4,0v-0.2c3.1,0,6.2,0,9.3,0c0.4,0,0.6-0.1,0.7-0.5L93.8,60.1z
	"/>
<path class="st1" d="M107,60.2c0,0.5-0.2,0.7-0.8,0.7c-2.9,0-5.7,0-8.5,0v-0.3c2.8,0,5.6,0,8.3,0c0.4,0,0.7-0.1,0.8-0.5L107,60.2z"
	/>
<path class="st0" d="M69.5,74c0,0.4-0.3,0.8-0.7,0.8c0,0-0.1,0-0.1,0c-0.4,0-0.7-0.2-0.8-0.6c0-0.1,0-0.1,0-0.2
	c0-0.5,0.2-0.8,0.8-0.8C69.1,73.2,69.5,73.5,69.5,74C69.5,74,69.5,74,69.5,74z"/>
<path class="st0" d="M93.7,74c0,0.5-0.3,0.8-0.8,0.8c-0.4,0.1-0.7-0.2-0.8-0.6c0-0.1,0-0.1,0-0.2c0-0.5,0.2-0.8,0.7-0.9
	C93.2,73.2,93.6,73.5,93.7,74C93.7,73.9,93.7,74,93.7,74z"/>
<path class="st0" d="M124.5,74.8c-0.4,0-0.8-0.2-0.8-0.7s0.2-0.8,0.7-0.9c0.4,0,0.8,0.3,0.9,0.7c0,0,0,0,0,0.1
	C125.3,74.6,125,74.7,124.5,74.8z"/>
<path class="st1" d="M77.4,40.5H61.7c0.1-0.2,0.3-0.1,0.5-0.1H77C77.1,40.4,77.3,40.3,77.4,40.5z"/>
<path class="st0" d="M145.7,41.5c0.2,0,0.6-0.2,0.7,0.1c0.1,0.5-0.2,1-0.7,1.2h-0.8c0-0.1,0-0.1-0.1-0.2s-0.4-0.3-0.3-0.5
	s0.4-0.1,0.6-0.1C145.6,42.1,145.7,41.9,145.7,41.5z"/>
<path class="st1" d="M47.7,32.5c-2.3-0.2-4.6-0.2-6.9,0c0-0.2,0.2-0.1,0.3-0.1c2.1-0.2,4.2-0.2,6.4,0C47.5,32.4,47.7,32.3,47.7,32.5
	z"/>
<path class="st0" d="M115.1,41.5c0.8-0.1,0.7-0.1,0.6,0.7c-0.1,0.5-0.2,0.9-0.9,0.8c-0.1-0.1-0.3-0.3-0.4-0.4s-0.2-0.3,0.1-0.3
	C115,42.2,115,41.8,115.1,41.5z"/>
<path class="st1" d="M98.7,40.5H88c0.1-0.2,0.3-0.1,0.4-0.1h9.9C98.5,40.4,98.6,40.3,98.7,40.5z"/>
<path class="st1" d="M115.1,41.5c-0.1,0.3-0.1,0.7-0.6,0.7c-0.3,0-0.2,0.2-0.1,0.3s0.2,0.3,0.4,0.4l-0.2,0.3
	c-0.1-0.1-0.3-0.3-0.4-0.4c-0.5-0.6-0.4-0.8,0.3-1c0.2-0.1,0.3-0.2,0.4-0.4L115.1,41.5z"/>
<path class="st1" d="M145.7,41.5c0,0.3-0.1,0.6-0.5,0.6c-0.2,0-0.5-0.1-0.6,0.1s0.2,0.3,0.3,0.5s0,0.1,0.1,0.2l-0.1,0.2
	c0,0-0.1-0.1-0.1-0.1c-0.2-0.3-0.6-0.6-0.5-1s0.6-0.2,0.9-0.2s0.3-0.1,0.4-0.3L145.7,41.5z"/>
<path class="st1" d="M27.9,52.8c-0.2-0.1-0.4-0.2-0.6-0.4c-0.5-0.5-0.5-0.7,0.1-1.1c0.1,0.1,0.4,0.1,0.4,0.3c-0.2-0.1-0.4,0-0.4,0.2
	c0,0,0,0,0,0c0,0.2,0.1,0.2,0.2,0.3l0.3,0.3C27.8,52.6,27.8,52.7,27.9,52.8z"/>
<path class="st0" d="M27.9,52.5l-0.3-0.3c-0.1-0.1-0.3-0.2-0.2-0.3c0.1-0.2,0.3-0.3,0.4-0.2c0,0,0,0,0,0l0.8,0.4
	C28.4,52.2,28.3,52.5,27.9,52.5z"/>
<path class="st1" d="M142.8,55.7c0-0.2,0.2-0.3,0.3-0.4s0.3-0.2,0.4,0c0.2,0.3,0.4,0.6,0.5,0.9c-0.1-0.1-0.2,0.1-0.3,0.1
	c-0.1-0.1-0.2-0.3-0.3-0.4C143.4,55.4,143.1,55.5,142.8,55.7L142.8,55.7z"/>
<path class="st1" d="M133.7,42c0.6,0.3,1.1,0.9,1.4,1.5l-0.8-0.6c-0.1-0.3-0.4-0.4-0.6-0.7L133.7,42z"/>
<path class="st1" d="M62.3,42c0.6,0.1,0.3,0.5,0.2,0.8C61.8,42.7,62.2,42.3,62.3,42z"/>
<path class="st1" d="M59.6,34.4c-0.6,0.5-1.3,0.2-1.9,0C58.3,34.4,58.9,34.6,59.6,34.4z"/>
<path class="st0" d="M133.6,42.3c0.2,0.2,0.5,0.4,0.6,0.7c-0.1,0-0.3-0.1-0.4-0.1C133.3,42.8,133.3,42.6,133.6,42.3z"/>
<path class="st1" d="M88.5,42c0.5,0.2,0.2,0.5,0.1,0.8C88.1,42.6,88.5,42.3,88.5,42z"/>
<path class="st1" d="M102.6,42.1c0.4,0.2,0.1,0.6,0.1,0.8C102.2,42.7,102.6,42.4,102.6,42.1z"/>
<path class="st1" d="M121.4,42c0.5,0.2,0.2,0.5,0.1,0.8C120.9,42.7,121.5,42.3,121.4,42z"/>
<path class="st0" d="M27.2,48c0.2,0,0.4,0,0.5,0.3C27.4,48.4,27.3,48.2,27.2,48z"/>
<path class="st0" d="M58.9,48.9c-0.2-0.1-0.1-0.3-0.1-0.4C58.9,48.6,58.9,48.8,58.9,48.9z"/>
<path class="st1" d="M36.9,42c-0.2,0-0.3,0-0.4-0.1C36.6,41.9,36.8,41.9,36.9,42z"/>
<path class="st1" d="M59.9,34l-0.1,0.2L59.9,34z"/>
<path class="st1" d="M93.8,59.2l-0.2-0.1L93.8,59.2z"/>
<path class="st1" d="M106.9,59.2l-0.2-0.1L106.9,59.2z"/>
<path class="st1" d="M125.8,59.2l-0.1-0.1L125.8,59.2z"/>
<path class="st1" d="M126.9,60.1l-0.2,0.1C126.7,60.1,126.8,60,126.9,60.1z"/>
<path class="st1" d="M85.2,44.1c-0.1,0-0.1-0.1-0.1-0.2L85.2,44.1z"/>
<path class="st1" d="M109.3,49.6c0.1,0,0.2,0.1,0.1,0.2L109.3,49.6z"/>
<path class="st1" d="M59.7,34.2l-0.2,0.2L59.7,34.2z"/>
<polygon class="st0" points="102.4,64.5 102.4,64.5 102.4,64.6 "/>
<path class="st2" d="M126.7,63.5l1.6-1.3c0.5-0.3,0.9-0.7,1.3-1.1c1.1-1.4,2.7-0.9,4.3-1c-1.1,1-2.1,1.8-3,2.8
	c-0.5,0.6-1.2,0.9-2,0.8c-0.7-0.1-1.4,0-2.1,0V63.5z"/>
<path class="st2" d="M138.4,56l-2.7,2.4c-0.1,0.1-0.4,0.1-0.6,0.1h-2.4c1.1-0.9,2-1.7,2.9-2.4c0.3-0.2,0.6-0.1,0.9-0.1
	C137.2,56,137.7,56,138.4,56z"/>
<path class="st2" d="M141.9,52.7l-2,1.8c-0.1,0.1-0.3,0.2-0.5,0.2c-0.6,0-1.3,0-1.9-0.1c0.6-0.5,1.3-1.1,1.9-1.6s1.6-0.2,2.4-0.3
	L141.9,52.7z"/>
<path class="st2" d="M145.1,49.8c-0.9,1.1-1.9,2.1-3.6,1.5C142.5,50.4,143.4,49.2,145.1,49.8z"/>
<path class="st2" d="M144.8,48.4c1.2-1.4,1.6-1.6,3.1-1.4C147.3,48.2,146,48.8,144.8,48.4z"/>
<path class="st2" d="M150.3,44.9c-1,1.2-1.1,1.3-2.6,1.2C148.3,45.1,149.3,44.7,150.3,44.9z"/>
<path class="st2" d="M152.5,43c-0.7,0.6-1.3,1.4-2.4,1C150.8,43.4,151.4,42.7,152.5,43z"/>
<path class="st2" d="M154.3,41.4c-0.7,0.5-1.1,1.3-2.1,0.9C152.8,41.9,153.3,41.1,154.3,41.4z"/>
<path class="st1" d="M139.8,59c-0.5,0.7-1.2,1.3-1.8,2l-0.1-0.1l1.9-2L139.8,59z"/>
<path class="st1" d="M140.4,58.3c0.4-0.5,0.9-1,1.4-1.5l0.1,0.1C141.4,57.4,141,57.9,140.4,58.3L140.4,58.3z"/>
<path class="st1" d="M140.2,58.6c-0.1,0.1-0.2,0.3-0.3,0.3l-0.1-0.1C139.9,58.7,140,58.6,140.2,58.6L140.2,58.6z"/>
<path class="st1" d="M142.1,56.4l0.2-0.2l0,0C142.4,56.4,142.3,56.4,142.1,56.4L142.1,56.4z"/>
<path class="st1" d="M142.1,56.6l-0.1,0.1l-0.1-0.1L142.1,56.6L142.1,56.6z"/>
<path class="st1" d="M142,56.5l0.1-0.1l0.1,0.1L142,56.5L142,56.5z"/>
<path class="st1" d="M140.4,58.5l-0.1,0.1l-0.1-0.1L140.4,58.5L140.4,58.5z"/>
<path class="st1" d="M142.3,56.2l0.1-0.1l0.1,0.1C142.5,56.2,142.4,56.3,142.3,56.2L142.3,56.2z"/>
<path class="st1" d="M140.3,58.4l0.1-0.1l0.1,0.1L140.3,58.4L140.3,58.4z"/>
<path class="st1" d="M142.5,56.1l0.1-0.1l0.1,0.1L142.5,56.1L142.5,56.1z"/>
<path class="st1" d="M142.6,56l0.1-0.1l0.1,0.1L142.6,56L142.6,56z"/>
<path class="st1" d="M142.9,55.8l-0.1,0.2l-0.1-0.1L142.9,55.8L142.9,55.8z"/>
<path class="st1" d="M139.7,59l0.1-0.1l0.1,0.1L139.7,59L139.7,59z"/>
<path class="st1" d="M141.7,56.8l0.1-0.1l0.1,0.1L141.7,56.8L141.7,56.8z"/>
<path class="st2" d="M77.3,46.9c-0.1,0.9-0.8,1.6-1.6,1.8C73.8,49,71.9,49.1,70,49l0.1-0.5l0.7-2.3h2.7c1.1,0,2.3,0.1,3.4,0.2
	C77.2,46.5,77.3,46.6,77.3,46.9z"/>
<path class="st1" d="M70.1,48.5L70,49h-0.3c-0.5,0.1-0.7,0-0.5-0.6c0.3-0.9,0.5-1.9,0.8-2.9c0.1-0.2,0.1-0.5,0.4-0.5
	c2-0.1,4,0,6,0.3c0.9,0.2,1.2,0.6,1.1,1.4c0,0.1,0,0.1-0.1,0.1c0,0,0,0-0.1,0c0-0.3-0.1-0.3-0.3-0.4c-1.1-0.2-2.3-0.3-3.4-0.2h-2.7
	c0.2-0.2,0.4-0.1,0.6-0.1c1.7-0.1,3.4,0,5.1,0.1c0.2,0,0.4,0.2,0.5-0.1c0-0.2-0.1-0.4-0.3-0.5c0,0,0,0,0,0c-0.3-0.1-0.6-0.1-0.9-0.1
	c-1.1-0.1-2.3-0.1-3.4-0.1c-0.6,0-1.3-0.2-1.8,0.1s-0.4,1.1-0.6,1.7c-0.1,0.2-0.1,0.5-0.2,0.7C69.4,48.4,69.5,48.5,70.1,48.5z"/>
<path class="st2" d="M52.2,75.9l0.1-0.2C52.4,75.8,52.4,75.9,52.2,75.9L52.2,75.9z"/>
<path class="st2" d="M78.1,82.6c-1.1,0-1.7-0.7-1.3-1.5c0.1-0.3,0.3-0.6,0.7-0.4s0.8,0.3,1.2,0.5s0.6,0.3,0.6,0.8s-0.4,0.5-0.8,0.6
	C78.3,82.6,78.2,82.6,78.1,82.6z"/>
<path class="st2" d="M79.3,76.9c-0.1,0.5-0.2,1-0.6,1.5c-0.2,0.2-0.4,0.4-0.7,0.3s-0.3-0.4-0.3-0.7c0-0.6,0.2-1.1,0.6-1.6
	c0.1-0.3,0.4-0.4,0.7-0.3C79.4,76.3,79.4,76.5,79.3,76.9z"/>
<path class="st2" d="M63,77.7l-0.1,0.1v-0.1L63,77.7z"/>
<path class="st2" d="M56.2,78.9c0.1-0.9,0.4-1.8,1-2.5c0.2-0.3,0.5-0.5,0.9-0.4c0.3,0.2,0.5,0.5,0.4,0.9c-0.1,0.9-0.5,1.8-1.1,2.4
	c-0.2,0.2-0.5,0.5-0.9,0.4S56.2,79.3,56.2,78.9z"/>
<path class="st2" d="M113.4,79c0.1-1,0.4-1.9,1.1-2.6c0.2-0.3,0.5-0.4,0.8-0.3c0.3,0.1,0.5,0.4,0.5,0.8c0,1.1-0.6,2.2-1.4,2.9
	c-0.2,0.2-0.4,0.2-0.6,0.1C113.4,79.6,113.4,79.3,113.4,79z"/>
<path class="st2" d="M127.5,78.3c0.2-0.7,0.6-1.4,1.1-1.9c0.2-0.1,0.4-0.3,0.6-0.2s0.1,0.4,0.1,0.6
	C129.2,77.7,128.4,78.3,127.5,78.3z"/>
<path class="st2" d="M101,76.5c0,0.9-0.7,1.7-1.6,1.9c-0.1,0-0.4,0.1-0.3-0.2c0.2-0.7,0.6-1.4,1.2-1.9C100.7,76.1,101,76.1,101,76.5
	z"/>
<path class="st2" d="M133.3,77.3l-0.1,0.1C133.2,77.4,133.2,77.3,133.3,77.3c-0.1,0-0.1-0.1,0-0.1L133.3,77.3z"/>
<path class="st2" d="M161,44.3c0-0.8,0.6-1.5,1.4-1.5c0.8,0,1.4,0.7,1.4,1.5c0,0,0,0,0,0c0,0.8-0.6,1.5-1.4,1.5
	C161.6,45.8,161,45.1,161,44.3z M161.7,44.3c0,0.1,0,0.3,0,0.4c0,0.2-0.1,0.5,0.1,0.5s0.2-0.3,0.2-0.5s0-0.3,0.2-0.3s0.3,0,0.4,0.2
	s0.1,0.3,0.1,0.5c0,0.1,0.2,0.2,0.3,0.1c0,0,0,0,0,0c0.1,0,0.1-0.1,0.1-0.2c-0.2-0.4-0.2-0.9,0-1.3c0-0.1,0-0.2-0.1-0.2
	c-0.3-0.4-0.7-0.3-1.1-0.2s-0.2,0.4-0.2,0.6C161.7,44,161.7,44.2,161.7,44.3L161.7,44.3z"/>
<path class="st0" d="M70.1,48.5c-0.5,0.1-0.7-0.1-0.5-0.7c0.1-0.2,0.1-0.4,0.2-0.7c0.2-0.6,0.1-1.4,0.6-1.7s1.2-0.1,1.8-0.1
	c1.1,0,2.3,0,3.4,0.1c0.3,0,0.6,0.1,0.9,0.1c0.2,0,0.4,0.2,0.4,0.5c0,0,0,0,0,0c0,0.3-0.3,0.1-0.5,0.1c-1.7-0.1-3.4-0.2-5.1-0.1
	c-0.2,0-0.4-0.1-0.6,0.1L70.1,48.5z"/>
<path class="st0" d="M161.7,44.4c0-0.1,0-0.3,0-0.4c0-0.2-0.1-0.5,0.2-0.6s0.8-0.2,1.1,0.2c0,0.1,0.1,0.2,0.1,0.2
	c-0.2,0.4-0.2,0.9,0,1.3c0,0.1,0,0.2-0.1,0.2c-0.1,0-0.2,0-0.3-0.1c0,0,0,0,0,0c-0.1-0.2-0.1-0.3-0.1-0.5s-0.2-0.2-0.4-0.2
	s-0.2,0.1-0.2,0.3s0.1,0.5-0.2,0.5s-0.1-0.3-0.1-0.5C161.7,44.7,161.7,44.5,161.7,44.4z M162.7,43.9c0-0.2-0.2-0.3-0.4-0.4
	s-0.3,0-0.3,0.3s0,0.4,0.3,0.4S162.7,44.2,162.7,43.9L162.7,43.9z"/>
<path class="st2" d="M162.8,43.9c-0.1,0.2-0.2,0.3-0.4,0.3s-0.3-0.2-0.3-0.4s0.1-0.3,0.3-0.3S162.8,43.7,162.8,43.9z"/>
</svg>
