<?xml version="1.0" encoding="utf-8"?>
<!-- Generator: Adobe Illustrator 21.1.0, SVG Export Plug-In . SVG Version: 6.00 Build 0)  -->
<svg version="1.1" id="Layer_1" xmlns="http://www.w3.org/2000/svg" xmlns:xlink="http://www.w3.org/1999/xlink" x="0px" y="0px"
	 viewBox="0 0 181 67" style="enable-background:new 0 0 181 67;" xml:space="preserve">
<style type="text/css">
	.st0{fill:#7AC141;}
	.st1{fill:#0179C2;}
</style>
<title>Grocery</title>
<path class="st0" d="M145.8,66.5c-0.2-0.1-0.2-0.3-0.3-0.5l-6.6-20.4c-0.4-1.2-0.8-2.3-1.1-3.5c-0.1-0.5-0.5-0.8-1-0.7c0,0,0,0,0,0
	c-8.4,0-16.7,0-25.1,0c-0.2,0-0.5,0-0.7-0.1l2.9-2.1l15.2-11c1-0.7,1.9-1.4,2.9-2.1c0.3-0.2,0.4-0.5,0.3-0.8
	c-0.9-2.8-1.8-5.6-2.8-8.4l-4.2-13.1c-0.3-0.9-0.6-1.8-0.9-2.7c0-0.1-0.2-0.3,0-0.4s0.3,0.1,0.4,0.2l8.9,6.5
	c3.9,2.8,7.7,5.6,11.6,8.4c0.3,0.3,0.8,0.3,1.1,0c0,0,0,0,0,0c3.4-2.5,6.8-5,10.2-7.4l10.3-7.5c0.1-0.1,0.2-0.2,0.4-0.2
	c0,0.2,0,0.5-0.1,0.7c-0.9,2.8-1.9,5.7-2.8,8.5c-1.2,3.8-2.5,7.6-3.7,11.5c-0.4,1.3-0.8,2.5-1.3,3.8c-0.2,0.4,0,0.8,0.3,1
	c3.4,2.4,6.7,4.9,10.1,7.3l6.9,5.1l3.5,2.6c0.1,0.1,0.3,0.1,0.2,0.3s-0.2,0.1-0.3,0.1h-2.1c-7.7,0-15.4,0-23.1,0
	c-0.5-0.1-1,0.3-1.1,0.8c-1.4,4.5-2.9,8.9-4.3,13.4c-1.2,3.6-2.3,7.1-3.5,10.7C146,66.3,146,66.4,145.8,66.5z"/>
<path class="st1" d="M74.7,39.4c-0.5,0.4-1,0.8-1.5,1.2c-1.6,1.3-3.6,2.1-5.7,2.3c-2.5,0.4-5,0.2-7.5-0.4c-2.8-0.8-4.7-2.5-4.9-5.6
	c-0.1-2,0.4-3.9,1.4-5.6c1.3-2.1,3.3-3.7,5.5-4.7c3-1.3,6.2-2.1,9.4-2.3c2.7-0.3,5.4-0.2,8.1-0.2c0.4,0.1,0.7-0.2,0.9-0.5
	c0.5-0.9,0.8-1.8,1-2.8c0.3-1.9-0.6-3-2.6-3.1c-2.9-0.2-5.8,0.9-7.9,2.9c-0.7,0.7-1.4,1.3-2.1,2c-0.4,0.5-1.2,0.6-1.7,0.2
	c0,0,0,0-0.1-0.1c-2.3-1.5-2.3-4.4,0.1-6c2.4-1.6,5.1-2.6,7.9-3c2.3-0.4,4.6-0.5,6.9-0.4c2.9,0,5.8,0.6,8.4,1.9
	c1.6,0.7,2.8,2.1,3.2,3.8c0.2,1.1,0,2.3-0.4,3.3c-2.2,6.2-4.3,12.4-6.3,18.7c-0.4,1.3-0.4,1.3-1.7,1.3H74.8c-0.7,0-0.8,0-0.6-0.8
	S74.6,40.1,74.7,39.4L74.7,39.4z M70.8,36c2.3,0.1,4.6-1,6-2.8c1-1.4,1.8-3,2.4-4.6c0.1-0.3,0-0.4-0.3-0.4c-1,0-2.1,0-3.2,0
	c-2.2,0.1-4.3,0.8-6.2,2c-1,0.6-1.7,1.6-1.9,2.6c-0.3,1.1,0.2,2.3,1.2,2.8C69.4,35.8,70.1,36,70.8,36L70.8,36z"/>
<path class="st1" d="M16.3,42.8c-3.6,0.1-7.2-0.7-10.4-2.3c-1.8-0.8-3.4-2.2-4.5-3.9c-1.2-1.8-1.1-4.2,0.3-5.8c1-1.3,2.4-2.3,4-2.9
	c0.8-0.3,1.1-0.2,1.6,0.5c0.5,0.7,1,1.5,1.4,2.3c0.8,1.6,1.8,3.1,3,4.4c0.9,1.2,2.3,1.9,3.8,1.9c0.9,0.1,1.8-0.4,2.2-1.2
	c0.4-0.8,0.3-1.8-0.3-2.5c-0.7-1-1.5-1.9-2.4-2.8c-1.4-1.3-2.7-2.7-3.9-4.1c-0.8-1-1.5-2.1-1.9-3.4c-0.8-2.4-0.3-5,1.5-6.8
	c1.9-1.9,4.2-3.2,6.8-3.8c2.4-0.7,4.9-1,7.4-1c2.7-0.1,5.3,0.5,7.7,1.7c1.6,0.8,2.8,2.2,3.5,3.8c0.6,1.7,0,3.5-1.4,4.6
	c-1.1,0.8-2.3,1.4-3.7,1.6c-1.2,0.2-1.6-0.1-1.9-1.3c-0.2-0.8-0.3-1.6-0.6-2.4c-0.3-1.3-1.1-2.4-2.2-3c-1.5-0.6-3.3-0.4-4.6,0.5
	c-0.5,0.4-0.6,1.1-0.4,1.7c0.3,0.6,0.7,1.1,1.1,1.6c1.6,1.7,3.5,3.2,5.3,4.8c1.7,1.4,3.1,3.2,4,5.2c1.4,3.2,0.3,7-2.5,9
	c-2.3,1.5-5,2.5-7.8,2.9C19.7,42.6,18,42.8,16.3,42.8z"/>
<path class="st1" d="M57.4,19.3c-1,0-2.1,0-3.1,0c-0.3-0.1-0.6,0.2-0.7,0.5c-1.5,4.9-3.2,9.7-4.6,14.6c-0.2,0.7-0.2,1.4,0,2.1
	c0.2,0.8,0.9,1.4,1.8,1.5c0.7,0,1.5-0.1,2.1-0.4c0.3-0.1,0.4-0.1,0.5,0.3c0.2,0.8,0.4,1.6,0.7,2.3c0.1,0.4,0,0.5-0.3,0.7
	c-2,1-4.2,1.7-6.4,2c-2.5,0.4-5,0.4-7.4,0c-1-0.2-1.9-0.6-2.7-1.3c-1.2-1.2-1.7-2.9-1.3-4.5c0.4-2,1-4,1.8-5.9
	c1.2-3.6,2.4-7.2,3.6-10.8c0.3-1,0.3-1-0.7-1c-0.8,0-1.5,0-2.2,0c-0.4,0-0.6-0.1-0.4-0.5c0.5-1.5,0.9-3,1.3-4.4
	c0-0.3,0.3-0.5,0.6-0.5c0,0,0,0,0,0c1,0,1.9,0,2.9,0c0.4,0.1,0.8-0.2,0.9-0.6c0,0,0,0,0,0c0.4-1.6,1-3.1,1.4-4.7
	C45,8.2,45.3,8,45.6,8c3.7-0.8,7.4-1.4,11.2-2c0.6-0.1,0.6,0,0.4,0.5c-0.7,2.2-1.3,4.4-2,6.5c-0.2,0.8-0.2,0.8,0.6,0.8h6
	c0.9,0,0.9,0,0.7,0.9c-0.3,1.3-0.7,2.6-1,3.9c0,0.4-0.4,0.8-0.9,0.7c0,0-0.1,0-0.1,0C59.3,19.3,58.4,19.3,57.4,19.3z"/>
<path class="st1" d="M108.8,17.6c0.8-0.8,1.7-1.5,2.6-2.1c1.8-1.3,3.9-2.1,6.1-2.3c3.6-0.2,6,0.9,7.9,4.2c1.1,1.9,0.5,4.2-1.4,5.4
	c-1,0.7-2.2,1.2-3.4,1.4c-0.9,0.3-1.9-0.2-2.2-1.1c0,0,0,0,0,0c-0.3-0.6-0.6-1.1-1-1.6c-1.2-1.4-2.8-1.5-4.5-1.3
	c-2.6,0.4-4.8,2.1-5.7,4.6c-0.6,1.6-1.1,3.2-1.5,4.8c-1.2,4-2.5,8.1-3.7,12.1c-0.1,0.3-0.3,0.5-0.6,0.5c-3.8,0-7.7,0-11.5,0
	c-0.5,0-0.5-0.1-0.4-0.5c2.2-6.5,4.4-13,6.5-19.5c0.8-2.3,1.6-4.7,2.4-7c0.1-0.4,0.5-0.7,0.9-0.7c1.5,0,3,0,4.5,0l5.3-0.1
	c0.7,0,0.8,0,0.5,0.7L108.8,17.6z"/>
<path class="st0" d="M80.5,49.4c0.3-0.2,0.5-0.3,0.7-0.5c1.1-0.6,2.4-0.8,3.6-0.4c0.4,0.1,0.7,0.4,0.8,0.8c0.1,0.4,0.2,0.4,0.5,0.1
	c0.9-0.8,2.2-1.3,3.4-1.1c1.2,0.1,1.8,0.6,1.7,1.9c-0.1,1-0.4,2-0.8,2.9c-0.6,1.8-1.3,3.6-1.8,5.5c-0.1,0.4-0.4,0.7-0.8,0.6
	c0,0,0,0,0,0c-0.5,0-1.1,0-1.6,0c-0.7,0-0.8,0-0.6-0.7c0.5-1.4,1-2.9,1.5-4.4c0.3-0.8,0.6-1.7,0.8-2.5s-0.1-1.1-0.9-1
	c-0.6,0.1-1.2,0.4-1.5,1c-0.3,0.5-0.5,1.1-0.7,1.7c-0.6,1.8-1.2,3.6-1.8,5.4c-0.1,0.4-0.4,0.6-0.8,0.6c-0.6,0-1.2,0-1.8,0
	s-0.7-0.1-0.5-0.6l2.2-6.4c0.1-0.2,0.1-0.4,0.2-0.7c0.2-0.7-0.2-1-0.9-1c-0.7,0-1.3,0.5-1.6,1.1c-0.4,1-0.8,2.1-1.1,3.1
	c-0.5,1.3-0.9,2.5-1.3,3.8c-0.1,0.5-0.4,0.7-0.9,0.6s-1.3,0-1.9,0c-0.4,0-0.5-0.1-0.3-0.5c1.1-3.2,2.2-6.4,3.2-9.7
	c0.1-0.3,0.3-0.5,0.6-0.4c0.5,0,1,0,1.5,0C80.6,48.6,80.6,48.6,80.5,49.4z"/>
<path class="st0" d="M112.6,52.1c0.2,0,0.4-0.1,0.5-0.3c1-1,2.1-1.9,3.1-2.9c0.2-0.2,0.5-0.4,0.9-0.3c0.7,0,1.5,0,2.2,0
	c0.1,0,0.4-0.1,0.4,0.1s-0.1,0.3-0.2,0.4c-1.2,1.1-2.5,2.2-3.7,3.3c-0.3,0.3-0.5,0.7-0.3,1.1c0.4,1.7,0.9,3.4,1.3,5.1
	c0.1,0.5,0,0.6-0.5,0.6c-0.7,0-1.4,0-2.1,0c-0.3,0.1-0.6-0.1-0.7-0.5c0,0,0-0.1,0-0.1c-0.2-1-0.4-2.1-0.7-3.1
	c-0.1-0.6-0.2-0.6-0.6-0.2c-0.7,0.4-1.1,1.1-1.3,1.9c-0.1,0.4-0.2,0.7-0.4,1.1c-0.3,0.9-0.3,0.9-1.3,0.9h-1.4
	c-0.6,0-0.7-0.1-0.5-0.6l1.9-5.5c0.8-2.4,1.6-4.8,2.4-7.3c0.1-0.4,0.4-0.7,0.8-0.6c0.6,0,1.2,0,1.8,0s0.6,0.1,0.4,0.6
	c-0.6,1.9-1.3,3.9-2,5.8C112.7,51.7,112.6,51.9,112.6,52.1z"/>
<path class="st0" d="M97.1,59.2c-0.2,0-0.5,0-0.7,0c-0.4,0-0.7-0.1-0.7-0.6c0-0.3-0.1-0.3-0.3-0.1c-0.9,0.8-2.1,1.2-3.2,1
	c-0.9,0.1-1.7-0.6-1.8-1.5c0-0.2,0-0.3,0-0.5c0.1-1.8,1.3-3.4,3.1-4c1.1-0.4,2.2-0.5,3.3-0.9c0.7-0.2,1.1-0.8,1.2-1.5
	c0.1-0.3-0.2-0.7-0.5-0.7c0,0-0.1,0-0.1,0c-0.8-0.1-1.6,0.3-1.9,1.1C95.4,51.8,95,52,94.7,52c-0.5,0-1.1,0-1.6,0s-0.6-0.1-0.4-0.6
	c0.7-1.7,2.3-2.9,4.2-2.9c1-0.1,2,0,3,0.2c0.8,0.2,1.4,1,1.2,1.9c0,0.1,0,0.1,0,0.1c-0.3,1.2-0.8,2.4-1.1,3.6s-0.7,2.1-1.1,3.1
	c-0.1,0.4-0.2,0.8-0.2,1.3c0,0.4-0.1,0.6-0.6,0.6S97.4,59.2,97.1,59.2z M97.1,54.1c-0.9,0.4-1.7,0.4-2.4,0.8
	c-0.7,0.4-1.1,1.1-1.1,1.9c0,0.5,0.2,0.7,0.7,0.7c0.7,0,1.3-0.3,1.8-0.8C96.5,55.8,96.8,55,97.1,54.1L97.1,54.1z"/>
<path class="st0" d="M124.2,54.4c-0.8,0-1.6,0-2.4,0c-0.3,0-0.6,0.1-0.6,0.4c-0.2,0.5-0.3,1-0.4,1.5c-0.1,1,0.5,1.4,1.4,1.1
	c0.6-0.3,1-0.7,1.2-1.3c0.1-0.4,0.5-0.6,0.9-0.6c0.5,0,1,0,1.6,0s0.5,0.1,0.4,0.5c-0.8,2.1-2.7,3.4-4.9,3.4c-0.7,0-1.4,0-2.1-0.2
	c-1-0.2-1.6-1.1-1.6-2.1c0-0.9,0.2-1.8,0.5-2.7c0.3-1,0.7-2,1.2-3c1.3-2.5,4.2-3.6,6.9-2.9c1,0.1,1.6,1,1.5,2
	c-0.1,1.2-0.3,2.4-0.7,3.5c-0.1,0.3-0.3,0.3-0.6,0.3L124.2,54.4L124.2,54.4z M123.3,52.6h1c0.2,0,0.4-0.1,0.5-0.3
	c0.1-0.4,0.2-0.8,0.2-1.3c0-0.5-0.2-0.7-0.8-0.8c-1,0-1.8,0.7-2.1,1.6c-0.3,0.7-0.3,0.7,0.4,0.7L123.3,52.6z"/>
<path class="st0" d="M133.7,45.6c1.5,0,1.5,0,1.1,1.4c-0.1,0.4-0.2,0.7-0.4,1.1c-0.1,0.3,0,0.4,0.3,0.4s0.4,0,0.6,0
	c0.5,0,0.6,0.2,0.4,0.6c0,0.1,0,0.1-0.1,0.2c-0.4,1.1-0.4,1.1-1.6,1.1c-0.3,0-0.6,0.2-0.7,0.5c-0.6,1.8-1.2,3.6-1.8,5.4
	c-0.2,0.6,0,0.8,0.6,0.9s0.8,0,0.5,0.8c-0.4,1.3-0.4,1.3-1.8,1.3c-0.6,0-1.2,0-1.8-0.1c-0.6,0-1-0.5-1-1.1c0-0.1,0-0.2,0.1-0.3
	c0.1-0.6,0.3-1.3,0.5-1.9c0.6-1.6,1.1-3.3,1.7-4.9c0.1-0.4,0-0.5-0.4-0.5c-0.9,0-0.9,0-0.6-0.9c0-0.1,0.1-0.3,0.1-0.4
	c0-0.4,0.4-0.7,0.8-0.6c0,0,0,0,0,0c0.8,0,0.8,0,1.1-0.8c0.2-0.5,0.4-1.1,0.5-1.6c0-0.4,0.4-0.6,0.7-0.6c0,0,0,0,0,0
	C133.1,45.6,133.4,45.6,133.7,45.6z"/>
<path class="st0" d="M106.2,49.6c0.3-0.1,0.6-0.4,0.9-0.6c0.6-0.4,1.3-0.6,2.1-0.6c0.4,0,0.5,0.2,0.4,0.5c-0.2,0.5-0.4,1.1-0.5,1.6
	c-0.1,0.4-0.4,0.6-0.8,0.5c0,0,0,0,0,0c-0.5-0.1-1.1,0-1.6,0.2c-0.8,0.3-1.3,1-1.6,1.8c-0.6,1.9-1.3,3.7-1.9,5.6
	c-0.1,0.4-0.4,0.7-0.8,0.6c0,0,0,0,0,0c-0.6,0-1.2,0-1.8,0c-0.4,0-0.5-0.1-0.4-0.6c0.7-2,1.3-4,2-6c0.4-1.2,0.8-2.3,1.2-3.5
	c0.1-0.4,0.3-0.6,0.8-0.6s1.1,0,1.6,0s0.6,0,0.5,0.6C106.2,49.3,106.1,49.5,106.2,49.6z"/>
<path class="st0" d="M153.3,59.7c0.5,0,1,0.1,1.4,0.4c0.5,0.2,0.8,0.6,1.1,1.1c0.5,0.9,0.5,2,0,2.9c-0.3,0.5-0.6,0.8-1.1,1.1
	c-0.9,0.5-2,0.5-2.9,0c-0.5-0.3-0.8-0.6-1.1-1.1c-0.5-0.9-0.5-2,0-2.9c0.3-0.5,0.6-0.8,1.1-1.1C152.3,59.9,152.8,59.7,153.3,59.7z
	 M153.3,60.3c-0.4,0-0.8,0.1-1.2,0.3c-0.4,0.2-0.7,0.5-0.9,0.9c-0.4,0.7-0.4,1.6,0,2.4c0.2,0.4,0.5,0.7,0.9,0.9
	c0.7,0.4,1.6,0.4,2.4,0c0.4-0.2,0.7-0.5,0.9-0.9c0.4-0.7,0.4-1.6,0-2.4c-0.2-0.4-0.5-0.7-0.9-0.9C154.1,60.4,153.7,60.3,153.3,60.3
	L153.3,60.3z M152,64.2v-3.1h1.6c0.2,0,0.3,0,0.5,0.1c0.1,0.1,0.2,0.2,0.3,0.3c0.1,0.1,0.1,0.3,0.1,0.4c0,0.2-0.1,0.4-0.2,0.6
	c-0.2,0.2-0.4,0.3-0.6,0.3c0.1,0,0.2,0.1,0.2,0.1c0.1,0.1,0.1,0.2,0.2,0.2l0.2,0.4l0.4,0.6h-0.8l-0.3-0.5c-0.1-0.2-0.3-0.5-0.4-0.6
	c-0.1-0.1-0.3-0.1-0.4-0.1h-0.2v1.3L152,64.2z M152.6,62.5h0.3c0.2,0,0.5,0,0.7,0c0.1,0,0.2-0.1,0.2-0.1c0.1-0.1,0.1-0.2,0.1-0.2
	c0-0.1,0-0.2-0.1-0.2c-0.1-0.1-0.1-0.1-0.2-0.1c-0.2,0-0.5,0-0.7,0h-0.3V62.5z"/>
</svg>
