<?xml version="1.0" encoding="utf-8"?>
<!-- Generator: Adobe Illustrator 21.1.0, SVG Export Plug-In . SVG Version: 6.00 Build 0)  -->
<svg version="1.1" id="Layer_1" xmlns="http://www.w3.org/2000/svg" xmlns:xlink="http://www.w3.org/1999/xlink" x="0px" y="0px"
	 viewBox="0 0 181 105.2" style="enable-background:new 0 0 181 105.2;" xml:space="preserve">
<style type="text/css">
	.st0{fill:#A51E36;}
	.st1{fill:#FFFFFF;}
</style>
<title>CR</title>
<path class="st0" d="M180.4,104.7c-2.5-4.9-6.8-7.4-11.6-9.4c-3.8-1.5-7.8-2.5-11.9-3.1c-7.3-1.2-14.7-1.7-22.1-1.7
	c-12.5,0-25,0-37.5,0c-12.2,0-24.4,0-36.6,0c-7.7,0.1-15.3-0.9-22.7-2.9c-7.5-2-14.4-5.5-20.4-10.4C10,70.9,4.7,62.3,2.3,52.8
	c-1.5-5.9-2.1-12.1-1.6-18.2C1.5,22.5,5.6,10.8,12.5,0.9c0.1-0.2,0.2-0.3,0.4-0.4c-0.1,0.2-0.2,0.4-0.2,0.5C10,6.6,8,12.4,6.9,18.5
	c-1.5,7.4-1,15.1,1.5,22.3c2.8,7.8,8.1,14.4,15.1,18.9c5.6,3.6,11.8,6.3,18.2,7.8c4.9,1.2,9.9,2.1,15,2.6c5.9,0.5,11.8,0.7,17.8,0.6
	c8.2,0,16.3-0.1,24.5-0.1c10.5,0,20.9-0.1,31.4,0c4.5,0,9.1,0.2,13.6,0.5c5.8,0.3,11.6,1.3,17.2,3c3,0.9,5.8,2.2,8.5,3.9
	c5.3,3.5,8.9,8.9,10.1,15.2C180.5,97,180.7,100.9,180.4,104.7z M101.6,81.4c0-0.1-0.1-0.2-0.1-0.3c-0.3-1.2-0.4-1.3-1.6-1.5
	c-0.1,0-0.1,0-0.2,0c-0.9-0.4-1.4-0.4-2,0.4s-0.9,1.6-1.5,2.3c-0.6,0.8-1.2,1.6-1.9,2.3c-0.2,0.2-0.6,0.3-0.8,0
	c-0.1-0.1-0.1-0.2-0.2-0.3c-0.3-0.8-0.2-1.8,0.3-2.5c0.9-1.2,1.8-2.5,2.6-3.8c0.9-1.5,1.5-3,2.3-4.6c0.3-0.5,0.1-1.2-0.4-1.5
	c-0.5-0.5-1.2-0.6-1.9-0.4c-0.6,0.2-0.7,0.8-0.9,1.3c-1,2.8-2.1,5.5-3.1,8.3c-0.1,0.4-0.5,0.7-0.9,0.8c-0.2,0-0.4,0.1-0.5,0.3
	c-0.7,1.4-1.8,2.4-3.2,3c-1.1,0.5-1.7,0-1.6-1.3c0,0,0-0.1,0-0.1c0.4-1.6,1.1-3.1,2.3-4.2c0.2-0.2,0.4-0.3,0.6-0.4l0.1,0.1
	c-0.2,0.5-0.4,1.1-0.6,1.6c-0.1,0.4-0.2,0.7,0.3,1c0.3,0.2,0.8,0.1,1-0.2c0,0,0-0.1,0.1-0.1c0.3-0.6,0.6-1.3,0.8-1.9
	c0-0.4-0.1-0.8-0.4-1.1c-1-0.8-2.4-0.7-3.2,0.2c-1.2,1.2-2,2.8-2.3,4.4c-0.3,1.1,0.3,2.3,1.4,2.6c0.3,0.1,0.5,0.1,0.8,0.1
	c1.5,0,3-0.7,3.9-1.9c0.3-0.4,0.6-0.8,0.9-1.2c-0.3,1.1,0.2,2.2,1.2,2.7c1.2,0.6,2.1-0.1,2.9-0.9c0.3,0.8,1.1,1.4,1.9,1.4
	c0.8,0,1.5-0.3,2-0.8c0.5-0.6,1-1.2,1.3-1.9c0.2-0.6,0.8-1.1,1.5-1.2c-0.6,0.9-1.2,1.7-1.8,2.5c-0.1,0.3-0.2,0.5-0.2,0.8
	c0.2,0,0.5-0.1,0.7-0.1c0.3-0.1,0.5-0.1,0.8,0c0.5,0.2,0.9,0.5,1.4,0.8c0.4,0.3,1,0.4,1.4,0.1c0.5-0.3,0.8-0.9,0.7-1.4
	c-0.1-0.6-0.2-1.2-0.4-1.8c-0.4-0.9-0.4-1.9-0.3-2.9c0.3-0.7,0.6-1.5,1-2.2c-0.1-0.1-0.3-0.2-0.4-0.3c-0.9-0.5-1.3-0.3-1.4,0.7
	c-0.2,1.1-0.8,2-1.8,2.6C102,81.2,101.8,81.3,101.6,81.4z M46.2,76.4l0.1,0.1c-0.1,0.9-0.2,1.9-0.3,2.8s-0.1,1.9,0,2.9
	c0,0.9,0.1,1.8,0.3,2.7c0.1,0.7,0.8,1.2,1.5,1.1c0.3-0.1,0.6-0.2,0.8-0.4c0.2-0.2,0.4-0.5,0.5-0.8c0.3-0.6,0.6-1.3,0.9-1.9
	c1.7-3.6,3.6-7.1,5.6-10.5c0.4-0.6,0.2-0.8-0.5-0.9c-0.7,0-1.4,0.4-1.7,1.1c-2,3.4-3.8,6.9-5.4,10.5c-0.1,0.2-0.2,0.4-0.3,0.6h-0.2
	c0-0.7,0-1.5,0-2.2c0-2.2,0.3-4.3,0.8-6.4c0.1-0.4-0.1-0.7-0.4-0.9c0,0,0,0,0,0c-0.4-0.2-0.9-0.2-1.2,0.1c-0.5,0.4-0.9,0.9-1.3,1.4
	c-1.6,2.1-3,4.4-4.2,6.7L41,82.8l-0.2-0.1c0.4-1.7,0.7-3.4,1.1-5.1s0.8-3.1,1.2-4.6c0.2-0.8-0.2-1.1-1-0.9c-0.5,0.1-0.9,0.5-1.1,1.1
	c-0.4,1.5-0.8,2.9-1,4.4c-0.4,2.2-0.7,4.4-1,6.7c-0.1,0.5,0.3,1.1,0.8,1.2c0,0,0,0,0.1,0c0.6,0.2,1.2-0.1,1.5-0.7
	c0.7-1.2,1.3-2.4,1.9-3.6C44.3,79.6,45.2,78,46.2,76.4L46.2,76.4z M76.1,82.6c1,0.4,1.6,0.3,2.3-0.3c0.5-0.5,1-1.1,1.3-1.8
	c0.6-1.4,0.4-1.8-1-2.2c-0.7-0.4-1.7-0.2-2.1,0.6c0,0,0,0,0,0.1c-0.9,1.1-1.5,2.4-1.8,3.7c-0.2,0.7-0.5,1.3-1.1,1.7
	c-0.2,0.1-0.5,0.2-0.8,0.3c-0.1-0.3-0.2-0.5-0.2-0.8c0.2-1.5,0.8-2.9,1.9-3.9c0.4-0.4,0.4-0.8-0.2-1c-0.3-0.1-0.7-0.1-1,0.1
	c-0.3,0.3-0.7,0.3-1,0.2c-0.2-0.4-0.2-0.9-0.4-1.1c-0.4-0.3-0.9-0.1-1.3,0.2c-0.2,0.1-0.4,0.3-0.4,0.5c-0.1,0.2-0.1,0.4,0.1,0.6
	c0.3,0.2,0.2,0.4,0.1,0.7c-0.5,1.5-1.4,2.9-2.6,3.9c-0.2,0.2-0.5,0.3-0.7,0.4c-0.1-0.3-0.1-0.6,0-0.8c0.5-1.1,1-2.2,1.6-3.3
	c0.3-0.6,0.2-1-0.4-1c-0.7-0.1-1.4-0.2-2.1-0.6c-0.6-0.3-1.3,0.1-1.8,0.5c-1.4,1.1-2.3,2.7-2.8,4.4c-0.1,0.2-0.1,0.5-0.1,0.7
	c-0.1,0.7,0.4,1.3,1.1,1.4c0.1,0,0.3,0,0.4,0c0.6-0.1,1.2-0.4,1.7-0.7c0.4-0.3,0.8-0.6,1.1-1c0,0.1,0,0.2,0,0.4
	c0,0.7,0.5,1.2,1.2,1.2c0.2,0,0.3,0,0.4-0.1c0.3-0.1,0.6-0.2,0.8-0.5c1.2-1.3,2.5-2.5,3.1-4.2c0.2-0.5,0.4-0.6,0.8-0.3
	c-0.2,0.3-0.3,0.7-0.4,1c-0.3,0.8-0.5,1.7-0.6,2.6c-0.1,0.7,0.5,1.4,1.2,1.5c0.1,0,0.2,0,0.3,0c0.6,0,1.2-0.2,1.7-0.6l0.5-0.5
	c0.3,0.8,1.1,1.3,1.9,1.2c2.1-0.3,3.9-1.7,4.7-3.6c0-0.2-0.1-0.4-0.2-0.6c-0.2,0.1-0.4,0.2-0.5,0.3c-0.7,0.8-1.3,1.6-2,2.3
	c-0.4,0.4-1,0.6-1.5,0.8c-0.3,0.2-0.8,0-0.9-0.3c0-0.1-0.1-0.2-0.1-0.3C76.1,83.7,76.1,83.1,76.1,82.6z M125.1,84.8
	c0.3,1.1,1.5,1.6,2.5,1.3c0,0,0.1,0,0.1,0c0.7-0.2,1.3-0.6,1.7-1.1c0.4-0.6,0.7-1.3,1.1-1.9c0.1-0.2,0.2-0.4,0.4-0.4
	c0.8-0.3,1.4-0.7,1.9-1.4c0.2-0.3,0.7-0.6,0.3-1s-0.7,0.1-1,0.4l-1.3,1c-0.1-0.3-0.1-0.3-0.1-0.4c-0.2-1.1-0.5-1.3-1.5-1.4
	c-0.1,0-0.2,0-0.3-0.1c-0.5-0.4-1.3-0.3-1.7,0.2c-0.5,0.5-0.9,1-1.2,1.5c-0.5,0.7-0.8,1.5-1.3,2.1c-0.3,0.4-0.7,0.8-1.1,1.1
	c-0.5,0.4-0.9,0.2-0.9-0.5c0-0.3,0-0.6,0.1-0.9C123.3,81,124,79,125,77c0.1-0.2,0.3-0.3,0.5-0.3c1.4-0.1,2.8-0.2,4.2-0.3
	c0.2,0,0.4-0.2,0.5-0.3c-0.1-0.2-0.3-0.3-0.4-0.5c-0.1-0.1-0.3-0.1-0.5-0.1c-0.7,0-1.4-0.1-2.1-0.1c-0.5,0-1.1,0-1.6,0
	c0.1-0.3,0.3-0.6,0.4-0.9s0-0.5-0.3-0.6c-0.5-0.2-1,0-1.3,0.4c-0.1,0.2-0.3,0.4-0.3,0.6c-0.1,0.6-0.5,0.7-1,0.7
	c-0.9,0.1-1.8,0.2-2.7,0.3c-0.2,0-0.3,0.3-0.5,0.4c0.1,0.1,0.3,0.4,0.4,0.4c0.3,0.1,0.7,0.1,1,0.1c0.6,0,1.2,0,1.8,0
	c-0.4,1.1-0.8,2.1-1.1,3.2c-0.5,1.3-0.8,2.6-0.8,4c-0.1,0.8,0.5,1.5,1.4,1.6c0.2,0,0.4,0,0.6-0.1C124,85.4,124.5,85.1,125.1,84.8
	L125.1,84.8z M151.6,83.9c0,0.1,0,0.2,0,0.3c0,0.8,0.6,1.5,1.4,1.5c0.2,0,0.3,0,0.5-0.1c0.4-0.1,0.8-0.3,1.1-0.6
	c0.6-0.7,1.1-1.5,1.6-2.2c0.2-0.3,0.1-0.6-0.2-0.7s-0.5,0-0.7,0.3c-0.3,0.5-0.6,1-0.9,1.5c-0.2,0.3-0.5,0.5-0.7,0.8
	c-0.3,0.2-0.6,0.1-0.6-0.3c0-0.4,0-0.9,0.1-1.3c0.4-1.1,0.9-2.2,1.3-3.2c0.2-0.5,0.2-0.7-0.3-1c-0.4-0.3-1-0.1-1.3,0.3
	c0,0.1-0.1,0.2-0.1,0.2c-0.7,1.4-1.4,2.8-2.1,4.2c-0.2,0.4-0.5,0.7-0.8,1c-0.2,0.1-0.4,0.2-0.6,0.1c-0.2-0.1-0.3-0.3-0.3-0.6
	c0-0.3,0-0.6,0.1-0.9c0.5-1.2,1.1-2.4,1.7-3.6c0.2-0.3,0.2-0.6-0.1-0.9c0,0-0.1-0.1-0.1-0.1c-0.5-0.3-1.1-0.1-1.4,0.4
	c-0.4,0.6-0.9,1.1-1.4,1.6c-0.3,0.3-0.6,0.5-1,0.7c-0.1-0.2-0.1-0.3-0.1-0.4c-0.2-1.1-0.5-1.3-1.5-1.4c-0.1,0-0.2,0-0.3-0.1
	c-0.4-0.4-1.1-0.4-1.5-0.1c-1.4,1.2-2.3,2.9-2.4,4.7c-0.1,0.8,0.5,1.5,1.3,1.7c1.1,0.3,2.2-0.1,2.9-0.9c0.5-0.7,0.9-1.4,1.3-2.1
	c0.1-0.1,0.1-0.3,0.3-0.4c0.4-0.2,0.8-0.3,1.2-0.5c-0.1,0.3-0.2,0.6-0.2,0.9c-0.1,0.3-0.1,0.6-0.1,0.9c0,0.4,0.2,0.8,0.4,1.1
	c0.5,0.7,1.4,0.8,2.1,0.3c0,0,0.1-0.1,0.1-0.1C150.7,84.8,151.2,84.4,151.6,83.9L151.6,83.9z M107.5,82.5c0.8,0.5,1.8,0.4,2.4-0.3
	c0.6-0.6,1-1.3,1.3-2c0.5-1.4,0.1-1.8-1-2H110c-0.7-0.4-1.7-0.2-2.1,0.6c0,0,0,0,0,0c-0.9,1.1-1.5,2.5-1.9,3.9
	c-0.1,0.5-0.1,0.9-0.1,1.4c0,0.9,0.7,1.6,1.6,1.7c0,0,0,0,0.1,0c1,0.1,2.1-0.2,2.8-0.9c1.4-1,2.5-2.4,3.2-4c0.2-0.5,0.4-0.5,0.7-0.3
	c-0.4,1.1-0.7,2.2-0.9,3.3c-0.2,0.8,0.3,1.7,1.1,1.9c0.5,0.1,0.9,0,1.3-0.3c1.1-0.7,2-1.8,2.5-3c0-0.2-0.1-0.4-0.2-0.5
	c-0.2,0-0.4,0-0.5,0.1c-0.1,0.1-0.2,0.4-0.3,0.5c-0.5,0.6-1,1.2-1.5,1.8c-0.2,0.2-0.4,0.2-0.7,0.2c-0.2-0.1-0.3-0.4-0.2-0.7
	c0.2-1.5,0.8-2.9,1.9-4c0.4-0.4,0.4-0.8-0.2-1c-0.3-0.1-0.7-0.1-1,0.1c-0.3,0.3-0.8,0.3-1.2,0.1c0-0.1,0-0.2,0-0.3
	c-0.1-0.2-0.1-0.6-0.3-0.7c-0.6-0.2-1.2,0-1.6,0.5c-0.1,0.2-0.2,0.5-0.2,0.8c0,0,0.1,0.1,0.1,0.2s0.2,0.3,0.1,0.5
	c-0.4,1.8-1.5,3.4-3,4.5c-0.4,0.3-0.8,0.5-1.3,0.6c-0.4,0.2-0.8,0-0.9-0.4c0-0.1-0.1-0.2-0.1-0.3C107.5,83.7,107.5,83.1,107.5,82.5z
	 M138.7,84c0,0.1,0,0.2,0,0.2c-0.2,0.9-0.4,1.7-0.6,2.6c-0.6,1.9-1.1,2.1-3,1.6h-0.1c-0.4-0.1-0.7-0.3-0.8-0.7
	c-0.1-0.4-0.4-0.6-0.8-0.4c-0.3,0.1-0.4,0.4-0.2,0.7c0,0.1,0.1,0.1,0.1,0.2c0.5,0.6,1.1,1,1.8,1.4c1.4,0.6,4.4-0.5,4.7-2.7
	c0.3-1.7,0.7-3.3,1.2-4.9c0.3-0.9,0.7-1.7,1.3-2.5c0.3-0.5,0.3-0.8-0.1-1.1c-0.5-0.3-1.1-0.2-1.5,0.2c-0.1,0.1-0.1,0.2-0.2,0.4
	c-0.5,1.7-1.4,3.2-2.5,4.6c-0.2,0.2-0.4,0.4-0.6,0.6c-0.1-0.2-0.1-0.3-0.1-0.4c0.2-1.4,0.7-2.7,1.5-3.9c0.3-0.5,0.3-0.6-0.2-0.9
	c-0.4-0.2-0.9-0.1-1.2,0.2c-1.2,1.3-1.7,3.1-1.5,4.9c0,0.6,0.6,1.1,1.2,1.1c0.3,0,0.5-0.1,0.7-0.3C138,84.7,138.3,84.3,138.7,84
	L138.7,84z M53.4,82.6c0.7,0.4,1.6,0.4,2.2-0.2c0.8-0.6,1.4-1.5,1.6-2.6c0.2-1,0-1.3-1-1.5c-0.1,0-0.3-0.1-0.4-0.1
	c-0.5-0.3-1.2-0.2-1.6,0.3c-1.3,1.4-2.2,3.3-2.3,5.3c-0.2,0.9,0.5,1.8,1.4,2c0.2,0,0.3,0,0.5,0c2.1-0.3,4-1.6,4.8-3.6
	c0.1-0.2-0.1-0.4-0.2-0.7c-0.2,0.1-0.4,0.2-0.5,0.3c-0.6,1-1.3,1.9-2.3,2.5c-0.4,0.3-0.8,0.4-1.3,0.6c-0.4,0.1-0.8,0-0.9-0.4
	c0-0.1,0-0.1,0-0.2C53.4,83.8,53.4,83.2,53.4,82.6z"/>
<path class="st0" d="M115.6,59.5v6.1h-4.4V48.8c-0.2,0.2-0.3,0.3-0.4,0.4c-1,1-2.2,1.8-3.6,2.3c-0.3,0-0.5,0.3-0.4,0.6
	c0,0,0,0,0,0.1c0.2,1.5,0.1,3-0.4,4.5c-0.7,2.9-3.2,5-6.2,5.1c-2.4,0.3-4.9-0.4-6.8-1.9c-0.4-0.3-0.9-0.3-1.4-0.1
	c-0.6,0.3-1.1,0.7-1.6,1c-1.5,1-3.3,1.3-5,0.8c-1.2-0.2-2.1-1.2-2.2-2.4c-0.2-1.4-0.2-2.9-0.3-4.3c-0.1-1-0.1-2-0.3-2.9
	c0-0.9-0.6-1.7-1.5-1.9c-0.9-0.1-1.9,0.3-2.3,1.1c-0.6,0.8-0.9,1.7-0.9,2.6c0,2.3,0,4.5-0.1,6.8c0,1.1,0.1,1-0.9,1h-3.2v-5L71.3,57
	c-0.2-0.7,0-1.4,0.4-2c1.3-1.5,1.9-3.3,1.8-5.3c0-2,0-4,0.1-5.9c0-0.3,0-0.6,0-0.9h4.2v5.6c0.1-0.1,0.2-0.1,0.3-0.2
	c1.1-1.8,3.2-2.5,5.2-1.8c1.9,0.5,3.3,2.2,3.3,4.2c0.2,1.6,0.2,3.3,0.4,4.9c0.1,0.9,0.2,1.8,0.5,2.6c0.7,1.9,2.5,2.3,4,0.9l0.2-0.2
	c0.5-0.3,0.6-1,0.3-1.5c-0.7-1.7-0.8-3.6-0.3-5.3c0.5-2.7,2.7-4.8,5.4-5.4c3.2-0.8,6.1-0.2,8.2,2.4c0.6,0.9,1.8,1.1,2.8,0.6
	c1.3-0.5,2.3-1.5,2.8-2.8l0.2-0.5h4h0.4v2.1c1.3-1.8,3.1-2.1,4.9-2.2c3.5-0.3,6.6,2.3,7,5.9c0.2,1.7,0.1,3.5-0.4,5.2
	c-0.5,1.9-2.1,3.5-4,4c-2.2,0.9-4.6,0.5-6.5-0.9C116.2,60.1,115.9,59.8,115.6,59.5z M123.3,53.8c-0.1-0.9-0.3-1.8-0.5-2.8
	c-0.3-1.4-1.6-2.4-3-2.4c-1.4,0-2.7,1-3.1,2.3c-0.6,1.8-0.5,3.8,0.1,5.6c0.4,1.3,1.7,2.2,3.1,2.2c1.3-0.1,2.5-1,2.8-2.3
	C123,55.6,123.2,54.7,123.3,53.8L123.3,53.8z M102.5,53.9c-0.1-1-0.3-2-0.5-3c-0.3-1.2-1.3-2.1-2.6-2.1c-1.3,0-2.4,0.8-2.8,2
	c-0.2,0.6-0.4,1.3-0.4,2c-0.2,1.4,0,2.8,0.5,4.2c0.3,1.1,1.3,1.8,2.4,1.9c1.3,0.1,2.5-0.8,2.8-2.1C102.2,55.8,102.4,54.9,102.5,53.9
	L102.5,53.9z"/>
<path class="st0" d="M48.3,13.8V10h4.8v3.9h7c-0.4,1.1-0.9,2.1-1.3,3.1c0,0.1-0.3,0.2-0.5,0.2h-5.1c0,0.1,0,0.2-0.1,0.3
	c0,2.3,0.1,4.6,0.1,6.9c0,0.4,0.1,0.9,0.2,1.3c0.1,1.3,1.3,2.3,2.7,2.2c0.2,0,0.3,0,0.5-0.1c1.5-0.1,2.8-1.2,3.2-2.6
	c0.4-1.3,0.6-2.5,0.8-3.8c0.2-0.9,0.3-1.8,0.4-2.8c0.3-2.1,1.9-3.8,4-4.3c1.9-0.6,3.9-0.4,5.7,0.5c1.8,1,2.7,3,2.4,5
	c-0.1,2-1.7,3.7-3.7,4c-1.3,0.2-2.5,0.3-3.8,0.3c-0.5,0-0.7,0.2-0.7,0.6c0,0.6,0.2,1.2,0.6,1.6c0.9,1.1,2.1,1.7,3.5,1.8
	c2.5,0.2,4.9-0.9,6.4-2.9c0.6-0.7,0.9-1.6,0.9-2.5c0-2.2,0-4.4,0.1-6.7c0-0.2,0-0.4,0-0.6H81c0,0.3,0,0.7,0,1c0,2.6,0,5.3,0,7.9
	c0,0.9,0.2,1.9,0.7,2.7c0.4,0.9,1.4,1.3,2.3,0.9c0.5-0.2,0.8-0.6,1-1c0.5-0.9,0.7-1.9,0.6-2.9c0-2.5,0-4.9,0-7.4c0-0.2,0-0.3,0-0.5
	h3.9c0,0.2,0,0.4,0,0.6c0,2.5-0.1,4.9,0,7.4c0.1,0.9,0.3,1.8,0.6,2.7c0.3,0.9,1.3,1.4,2.2,1.1c0.5-0.2,0.9-0.5,1.1-1
	c0.4-0.7,0.6-1.5,0.6-2.3c0.1-2.3,0-4.5-0.1-6.8c-0.1-0.6,0.1-1.1,0.6-1.5c1-0.8,1.9-1.7,3-2.6c0.3,1,0.5,1.9,0.7,2.8
	c0.5,2.7,0.6,5.5,0.2,8.3c-0.6,4.3-4.5,6-8.1,4.8c-1-0.4-1.9-0.9-2.8-1.4c-4.5,3-8.2,2.3-10.6-2.2C75,28.5,72.2,30,69.1,30
	c-3.2,0.1-6.1-1.5-7.9-4.1c-0.1,0.2-0.2,0.4-0.3,0.6c-1.5,1.7-3.6,2.9-5.8,3.3c-1,0.2-2,0.2-3,0c-2.3-0.5-3.5-2.2-3.6-4.7
	s0-4.9-0.1-7.4c0-0.2,0-0.4,0-0.7h-3.4c0.3-1.1,0.6-2.1,0.8-3c0-0.1,0.3-0.2,0.4-0.2C46.9,13.8,47.5,13.8,48.3,13.8z M69,19.1
	c0-0.8-0.2-1.6-0.7-2.3c-0.5-0.7-1.5-1-2.2-0.5c-0.1,0.1-0.3,0.2-0.4,0.3c-1.2,1.4-1.3,3.4-0.3,4.9c0.5,0.8,1.5,1,2.3,0.5
	c0.2-0.1,0.3-0.2,0.4-0.4C68.7,21,69,20.1,69,19.1L69,19.1z"/>
<path class="st0" d="M27.7,32.9c-3.3,0-6.6-0.6-9.7-1.8c-2.2-0.8-3.8-2.5-4.4-4.8c-1-3.6,1.5-5.6,4-6c1.4-0.3,2.8-0.2,4.2,0.2
	c0.5,0.2,0.9,0.4,1.3,0.7c0.2,0.1,0.3,0.3,0.3,0.5c0,0.1-0.3,0.3-0.5,0.3c-0.6,0.1-1.3,0.3-1.9,0.5c-0.7,0.3-1.3,0.7-1.9,1.1
	c-1,0.9-1.2,2.5-0.3,3.5c0.7,1,1.8,1.8,3,2.1c4.5,1.4,9.4,1.3,13.8-0.2c1.1-0.4,2.2-1.1,2.9-2c1-1.3,0.8-3.2-0.5-4.3
	c0,0-0.1-0.1-0.1-0.1c-1.4-0.9-2.9-1.5-4.6-1.8c-2.8-0.5-5.6-1-8.3-1.5c-2.1-0.3-4-1-5.9-1.9c-1.1-0.6-2.1-1.4-3-2.2
	c-2.4-2.3-2.7-7.9,1-10.3c1.9-1.2,4-2,6.2-2.4C28.6,1.7,34,2.1,39,3.9c1.1,0.4,2.2,1,3.1,1.7c1.1,0.8,1.9,2,2,3.3
	c0.2,1.5-0.5,3-1.8,3.8c-1.3,0.8-2.8,1.2-4.3,0.9c-0.2,0-0.5-0.2-0.6-0.4s0.2-0.4,0.4-0.6c0.2-0.1,0.3-0.3,0.5-0.4
	c1.3-0.9,1.7-2.7,0.8-4C39.1,8.1,39.1,8,39,8c-0.8-1.1-1.9-1.8-3.1-2.3C32.1,4.4,28,4.2,24.2,5.2c-1.3,0.3-2.4,1-3.3,1.9
	c-1.1,1.1-1.1,3,0,4.1c0.1,0.1,0.2,0.2,0.4,0.3c1.7,1.2,3.7,2,5.8,2.3c3.1,0.6,6.2,1,9.3,1.6c2.1,0.3,4,1.1,5.8,2.2
	c3,2.1,3.8,6.2,1.8,9.2c-0.1,0.2-0.2,0.3-0.3,0.5c-1,1.1-2.2,2.1-3.5,2.8c-2.5,1.3-5.3,2.2-8.1,2.4C30.5,32.8,29.1,32.8,27.7,32.9z"
	/>
<path class="st0" d="M116.5,15.4c0,0.3,0,0.4,0,0.7c0,3.1,0,6.1,0,9.2c-0.2,1.3,0.7,2.5,1.9,2.8c1.4,0.4,2.9-0.3,3.4-1.6
	c0.4-1.1,0.6-2.2,0.7-3.4c0-1.8-0.2-3.5-0.3-5.3c-0.1-0.3-0.2-0.5-0.4-0.8c-0.6-0.6-0.6-1.5-0.1-2.2c0.5-0.8,1.5-1.1,2.4-0.9
	c0.3,0.2,0.6,0.5,0.9,0.8c0.2,0.2,0.4,0.4,0.6,0.5c1.1,0.3,2.2,0.3,3.3,0c2.1-0.5,3,0.2,3.1,2.4c0,2,0,4,0.1,6
	c0.1,0.8,0.2,1.5,0.4,2.2c0.4,1.5,1.9,2.3,3.4,1.9c0.3-0.1,0.6-0.2,0.9-0.4c1-0.8,1.8-1.9,2-3.2c0.1-0.7,0.2-1.3,0.2-2
	c0-1.4,0-2.9,0.1-4.3c0-0.5-0.2-0.7-0.7-0.7c-0.9,0-1.8,0-2.8,0c0.3-1,0.5-2,0.8-3c0-0.1,0.3-0.2,0.5-0.2c0.7,0,1.4,0,2.1,0v-3.8
	h4.8v3.8h7c-0.3,0.7-0.6,1.4-0.9,2.2c-0.1,0.8-0.8,1.3-1.6,1.2c0,0-0.1,0-0.1,0c-1.2-0.1-2.5,0-3.7,0h-0.6c-0.1,0.1-0.1,0.1-0.1,0.2
	c-0.1,2.5,0,5.1,0.3,7.6c0.1,0.8,0.4,1.6,1,2.2c0.8,0.8,2,1.1,3.1,0.8c1.2-0.4,2.2-1.3,2.9-2.3c0.1-0.2,0.2-0.4,0.3-0.4
	c0.2-0.1,0.4-0.2,0.7-0.3c0,0.2,0.1,0.4,0.1,0.6c-0.4,1.3-1.3,2.4-2.4,3.2c-1.5,1-3.3,1.5-5.1,1.5c-2.3,0.1-4.4-1.2-5.4-3.3
	c0-0.1-0.1-0.2-0.2-0.3l-0.3,0.6c-1.4,2.3-4.1,3.4-6.7,2.8c-2.2-0.6-3.7-2.6-3.7-4.9c-0.1-1.5-0.1-3-0.2-4.5c0-0.4-0.1-0.7-0.2-1.1
	c-0.1-0.6-0.5-1.1-1.1-1.3c-0.7-0.3-1.4-0.5-2.2-0.8c0,0.4,0,0.6,0,0.9c0.1,2.2,0,4.3-0.3,6.5c-0.5,2.3-1.6,4.2-4,4.9
	c-2.9,0.9-5.6,0.5-7.8-1.9c-0.1-0.1-0.2-0.2-0.2-0.3c-0.5,0.4-0.9,0.8-1.3,1.1c-1.3,1-2.9,1.5-4.5,1.5c-2.1-0.1-4.1-1.3-5.1-3.2
	c-1.8-3.2-1.6-7.3,0.6-10.3c2.1-2.7,5.7-3.6,8.9-2.2c0.3,0.1,0.6,0.3,0.8,0.5c0.5,0.5,1.2,0.7,1.8,0.6
	C114.6,15.4,115.5,15.4,116.5,15.4z M111.8,21.3c0-0.4,0-0.9-0.1-1.3c-0.1-0.5-0.2-0.9-0.3-1.4c-0.4-1.4-2-2.3-3.4-1.8
	c-0.1,0-0.3,0.1-0.4,0.2c-3.5,1.7-3.7,7.1-1.4,9.2c1.3,1.2,3.3,1.1,4.5-0.1c0.2-0.2,0.4-0.5,0.5-0.8C111.6,24,111.9,22.7,111.8,21.3
	L111.8,21.3z"/>
<path class="st0" d="M54.3,62c2.4,0.1,4.7-0.4,6.9-1.2c0.9-0.4,1.8-1,2.4-1.7c1-1.3,0.8-3.1-0.5-4.1c0,0-0.1,0-0.1-0.1
	c-1.4-1-3-1.6-4.7-1.9c-2.8-0.6-5.6-1-8.4-1.6c-1.9-0.4-3.8-1.1-5.5-2.1c-1.8-1-3.1-2.6-3.6-4.6c-0.3-1.4-0.2-2.8,0.3-4.1
	c0.3-1,1-1.8,1.8-2.4c1.8-1.3,3.8-2.2,6-2.5c5.1-1.1,10.4-0.7,15.3,1c1.5,0.5,2.8,1.3,3.9,2.5c1,1,1.3,2.4,1,3.8
	c-0.2,0.9-0.7,1.7-1.6,2.2c-1.2,0.8-2.6,1.1-4,1c-0.3-0.1-0.6-0.2-0.8-0.4c0.2-0.3,0.3-0.5,0.5-0.8c0.1-0.1,0.3-0.2,0.4-0.3
	c1.3-0.8,1.6-2.5,0.7-3.8c0-0.1-0.1-0.1-0.1-0.2c-0.7-1-1.8-1.8-3-2.2c-3.5-1.3-7.4-1.5-11-0.6c-1.2,0.3-2.4,0.9-3.3,1.8
	c-1.1,1-1.2,2.8-0.2,3.9c0.1,0.1,0.3,0.3,0.5,0.4c1.6,1.2,3.5,1.9,5.5,2.2c2.8,0.5,5.5,0.9,8.3,1.5c1.4,0.3,2.8,0.7,4.2,1.2
	c1.1,0.4,2.2,1.1,3,2c2.5,2.6,1.7,6.7-0.2,8.5c-2.1,2-4.6,3.4-7.5,4c-5,1.3-10.3,1.2-15.3-0.4c-1.5-0.4-2.8-1.1-3.9-2.2
	c-1.2-1.1-1.8-2.7-1.8-4.3c0-1.3,0.6-2.6,1.7-3.3c0.8-0.6,1.7-0.9,2.7-1c1.5-0.3,3-0.1,4.3,0.6c0.3,0.2,0.8,0.6,0.8,0.9
	c0,0.5-0.6,0.3-1,0.4c-1,0.2-2,0.6-2.9,1.2c-1.2,0.8-1.4,2.4-0.6,3.6c0,0.1,0.1,0.1,0.2,0.2c0.8,1.1,2,1.8,3.3,2.1
	C50.2,61.8,52.2,62,54.3,62z"/>
<path class="st0" d="M165.9,33c-2.9,0.1-5.9-0.4-8.6-1.4c-1.5-0.6-2.7-1.8-3.3-3.3c-0.8-1.8,0-3.9,1.9-4.7c0.2-0.1,0.5-0.2,0.7-0.2
	c1.2-0.3,2.5-0.3,3.7,0.1c0.4,0.1,0.7,0.3,1,0.6c0.1,0.1,0.2,0.2,0.2,0.4c0,0.1-0.2,0.2-0.4,0.3c-0.4,0.1-0.8,0.2-1.3,0.3
	c-0.6,0.2-1.1,0.5-1.6,0.9c-0.8,0.7-1,1.9-0.3,2.8c0.6,0.8,1.4,1.4,2.4,1.7c1.9,0.6,3.9,0.9,5.9,0.7c1.6,0,3.2-0.3,4.8-0.8
	c0.7-0.3,1.3-0.7,1.9-1.1c1-0.7,1.3-2.2,0.5-3.2c-0.2-0.2-0.4-0.5-0.7-0.6c-1.3-0.8-2.7-1.4-4.2-1.6c-2.5-0.5-5-0.9-7.4-1.5
	c-1.9-0.4-3.6-1.3-5-2.6c-2.1-1.9-2.3-6.5,0.9-8.3c1.7-0.9,3.5-1.6,5.4-1.8c3.3-0.5,6.8-0.3,10,0.7c1.1,0.4,2.2,0.8,3.3,1.4
	c1.1,0.6,1.9,1.6,2.1,2.8c0.2,1.2-0.3,2.4-1.4,3.1c-0.9,0.5-1.9,0.8-2.9,0.8c-0.2,0-0.4-0.1-0.6-0.1c-0.4-0.1-0.4-0.4-0.1-0.6
	c0.2-0.2,0.4-0.3,0.6-0.4c1-0.7,1.3-2.1,0.6-3.1c-0.1-0.1-0.1-0.2-0.2-0.2c-0.6-0.8-1.5-1.4-2.4-1.7c-2.9-1-6-1.2-9-0.4
	c-1,0.2-1.9,0.7-2.6,1.4c-0.9,0.9-1,2.3-0.1,3.3c0.1,0.1,0.2,0.2,0.3,0.3c1.2,0.9,2.6,1.5,4.1,1.8c2.5,0.5,5,0.8,7.4,1.4
	c1.3,0.3,2.6,0.7,3.8,1.2c1.5,0.6,2.7,1.9,3,3.6c0.4,1.8-0.1,3.7-1.5,5c-1.9,1.7-4.3,2.8-6.9,3.2C168.2,32.8,166.7,32.9,165.9,33z"
	/>
<path class="st0" d="M140.2,62.9c1.7,0,3.4-0.2,5-0.8c0.6-0.3,1.2-0.6,1.7-1c1-0.7,1.2-2.1,0.4-3.1c-0.1-0.2-0.3-0.3-0.4-0.4
	c-1.2-0.8-2.6-1.4-4-1.6c-2.4-0.5-4.8-0.9-7.1-1.5c-1.5-0.3-2.9-1.1-4.1-2.1c-1.8-1.5-2.4-4.1-1.4-6.2c0.4-0.8,0.9-1.4,1.6-1.9
	c1.6-1,3.5-1.7,5.4-1.8c3.3-0.5,6.6-0.2,9.8,0.9c1.1,0.4,2.1,0.9,3,1.5c1.2,0.7,1.8,2.2,1.5,3.6c-0.1,0.6-0.5,1.2-1,1.6
	c-0.9,0.7-2,0.9-3.2,0.8c-0.2-0.1-0.5-0.2-0.7-0.3c0.1-0.2,0.3-0.4,0.4-0.6c1.5-1.1,1.6-2.5,0.3-3.8c-1-0.9-2.3-1.5-3.7-1.7
	c-2.2-0.5-4.4-0.5-6.6,0c-1,0.2-1.9,0.7-2.6,1.4c-0.8,0.8-0.8,2.2,0,3c0.1,0.1,0.1,0.1,0.2,0.2c1.4,1,3,1.7,4.6,1.9
	c2.4,0.5,4.8,0.9,7.1,1.4c1.2,0.2,2.4,0.8,3.5,1.5c2.2,1.5,2.8,4.6,1.2,6.8c-0.3,0.4-0.6,0.7-1,1c-1.7,1.4-3.8,2.3-5.9,2.6
	c-3.6,0.7-7.4,0.6-10.9-0.5c-1.4-0.3-2.6-1.1-3.4-2.2c-0.4-0.6-0.8-1.4-0.9-2.1c-0.4-1.8,0.7-3.6,2.5-3.9c0.1,0,0.2,0,0.3-0.1
	c1.1-0.3,2.3-0.2,3.4,0.2c0.1,0,0.2,0.1,0.4,0.1c0.3,0.2,0.5,0.4,0.8,0.7l-0.9,0.4c-0.7,0.2-1.4,0.5-2.1,0.9
	c-0.9,0.6-1.2,1.7-0.6,2.6c0,0.1,0.1,0.1,0.1,0.2c0.6,0.8,1.3,1.3,2.3,1.6C136.8,62.6,138.5,62.9,140.2,62.9z"/>
<path class="st0" d="M152.8,10.9l1-4.9l1.8,1L152.8,10.9L152.8,10.9z"/>
<path class="st1" d="M101.6,81.4c0.2-0.1,0.4-0.2,0.6-0.3c1-0.6,1.6-1.5,1.8-2.6c0.1-1,0.5-1.2,1.4-0.7c0.2,0.1,0.3,0.2,0.4,0.3
	c-0.4,0.7-0.7,1.4-1,2.2c-0.2,1-0.1,1.9,0.3,2.9c0.2,0.6,0.3,1.2,0.4,1.8c0.1,0.6-0.2,1.1-0.7,1.4c-0.4,0.3-1,0.2-1.4-0.1
	c-0.5-0.3-0.9-0.6-1.4-0.8c-0.3-0.1-0.5-0.1-0.8,0c-0.2,0-0.5,0-0.7,0.1c0-0.3,0.1-0.5,0.2-0.8c0.6-0.9,1.2-1.7,1.8-2.5
	c-0.7,0.1-1.3,0.5-1.6,1.2c-0.3,0.7-0.7,1.4-1.3,1.9c-0.5,0.5-1.2,0.8-2,0.8c-0.9,0.1-1.7-0.5-1.9-1.4c-0.9,0.8-1.7,1.5-2.9,0.9
	c-1-0.5-1.5-1.6-1.2-2.7c-0.3,0.4-0.6,0.8-0.9,1.2c-0.9,1.2-2.4,1.9-3.9,1.9c-1.1,0.1-2.2-0.8-2.3-1.9c0-0.3,0-0.5,0.1-0.8
	c0.3-1.7,1.1-3.2,2.3-4.4c0.8-0.9,2.3-1,3.2-0.2c0.3,0.3,0.4,0.7,0.4,1.1c-0.2,0.7-0.4,1.3-0.8,1.9c-0.2,0.4-0.6,0.5-1,0.3
	c0,0-0.1,0-0.1-0.1c-0.4-0.2-0.4-0.6-0.3-1c0.2-0.5,0.4-1.1,0.6-1.6l-0.1-0.1c-0.2,0.1-0.4,0.2-0.6,0.4c-1.1,1.2-1.9,2.6-2.3,4.2
	c0,0,0,0.1,0,0.1c-0.1,1.2,0.4,1.7,1.6,1.3c1.4-0.6,2.5-1.6,3.2-3c0.1-0.2,0.3-0.3,0.5-0.3c0.4-0.1,0.8-0.4,0.9-0.8
	c1-2.8,2.1-5.5,3.1-8.3c0.2-0.5,0.2-1.1,0.9-1.3c0.6-0.2,1.4-0.1,1.9,0.4c0.5,0.3,0.7,1,0.4,1.5c-0.7,1.6-1.4,3.1-2.3,4.6
	c-0.8,1.3-1.7,2.6-2.6,3.8c-0.5,0.7-0.6,1.7-0.3,2.5c0.1,0.3,0.4,0.5,0.7,0.4c0.1,0,0.2-0.1,0.3-0.2c0.7-0.7,1.3-1.5,1.9-2.3
	c0.5-0.7,0.9-1.6,1.5-2.3s1.1-0.8,2-0.4c0.1,0,0.1,0,0.2,0c1.2,0.1,1.3,0.3,1.6,1.5C101.5,81.2,101.6,81.3,101.6,81.4z M97.3,84.4
	c0.1,0.1,0.2,0.5,0.4,0.6s0.5-0.1,0.8-0.2c0.1,0,0.2-0.1,0.3-0.2c0.8-0.8,1.3-1.9,1.4-3.1c0-0.3-0.1-0.6-0.3-0.8
	c-0.1-0.1-0.6,0-0.7,0.2C98.1,81.8,97.4,83,97.3,84.4L97.3,84.4z M93.7,80.3l0.2,0.1c1.3-2.1,2.5-4.3,3.3-6.7c0-0.1,0.1-0.2,0.1-0.3
	c0-0.2-0.1-0.3-0.1-0.5c-0.1,0.1-0.3,0.2-0.4,0.3c-0.3,0.6-0.6,1.2-0.8,1.8C95.2,76.6,94.5,78.4,93.7,80.3L93.7,80.3z M104.3,85.1
	l-0.6-2.6l-1.3,2L104.3,85.1z"/>
<path class="st1" d="M46.2,76.4c-0.9,1.6-1.9,3.1-2.8,4.7c-0.7,1.2-1.3,2.4-1.9,3.6c-0.2,0.6-0.9,0.9-1.5,0.7
	c-0.5-0.1-0.9-0.6-0.9-1.1c0,0,0,0,0-0.1c0.3-2.2,0.6-4.5,1-6.7c0.3-1.5,0.7-2.9,1-4.4c0.1-0.5,0.5-0.9,1.1-1.1
	c0.8-0.2,1.1,0.1,1,0.9c-0.4,1.5-0.8,3.1-1.2,4.6s-0.8,3.4-1.1,5.1l0.2,0.1l0.3-0.5c1.2-2.4,2.6-4.6,4.2-6.7c0.4-0.5,0.9-1,1.3-1.4
	c0.3-0.3,0.8-0.3,1.2-0.1c0.4,0.1,0.6,0.5,0.5,0.8c0,0,0,0,0,0c-0.5,2.1-0.7,4.3-0.8,6.4c0,0.7,0,1.5,0,2.2h0.2
	c0.1-0.2,0.2-0.4,0.3-0.6c1.6-3.6,3.4-7.1,5.4-10.4c0.3-0.7,0.9-1.1,1.7-1.1c0.7,0,0.8,0.3,0.5,0.9c-2.1,3.4-3.9,6.9-5.6,10.5
	c-0.3,0.6-0.6,1.3-0.9,1.9c-0.1,0.3-0.3,0.5-0.5,0.8c-0.5,0.6-1.3,0.6-1.9,0.1c-0.2-0.2-0.4-0.5-0.4-0.8C46.1,83.9,46,83,46,82.1
	c0-0.9,0-1.9,0-2.9s0.2-1.9,0.3-2.8L46.2,76.4z"/>
<path class="st1" d="M76.1,82.6c0,0.6,0,1.1,0,1.7c0,0.4,0.3,0.7,0.7,0.7c0.1,0,0.2,0,0.3-0.1c0.6-0.2,1.1-0.4,1.5-0.8
	c0.7-0.7,1.3-1.5,2-2.3c0.2-0.1,0.3-0.2,0.5-0.3c0.1,0.2,0.2,0.4,0.2,0.6c-0.9,1.9-2.6,3.3-4.7,3.6c-0.8,0.1-1.7-0.4-1.9-1.2
	L74.1,85c-0.4,0.4-1,0.6-1.6,0.6c-0.7,0-1.4-0.5-1.4-1.3c0-0.1,0-0.2,0-0.3c0.1-0.9,0.3-1.7,0.6-2.6c0.1-0.3,0.2-0.7,0.4-1
	c-0.4-0.3-0.7-0.2-0.8,0.3c-0.6,1.7-1.9,2.9-3.1,4.2c-0.2,0.2-0.5,0.4-0.8,0.5c-0.6,0.2-1.3,0-1.5-0.6c-0.1-0.1-0.1-0.3-0.1-0.4
	c0-0.1,0-0.3,0-0.4c-0.3,0.4-0.7,0.7-1.1,1c-0.5,0.3-1.1,0.6-1.7,0.7c-0.7,0.1-1.4-0.3-1.5-1c0-0.1,0-0.3,0-0.4c0-0.2,0-0.5,0.1-0.7
	c0.4-1.7,1.4-3.3,2.8-4.4c0.5-0.4,1.2-0.9,1.8-0.5c0.7,0.3,1.4,0.5,2.1,0.6c0.6,0.1,0.7,0.4,0.4,1c-0.5,1.1-1.1,2.2-1.6,3.3
	c-0.1,0.3-0.1,0.6,0,0.8c0.3-0.1,0.5-0.2,0.7-0.4c1.2-1,2.1-2.4,2.6-3.9c0.1-0.3,0.1-0.5-0.1-0.7c-0.1-0.2-0.1-0.4-0.1-0.6
	c0.1-0.2,0.3-0.4,0.4-0.5c0.4-0.3,0.9-0.5,1.3-0.2c0.2,0.2,0.3,0.6,0.4,1.1c0.3,0.2,0.7,0.1,1-0.2c0.3-0.2,0.7-0.2,1-0.1
	c0.6,0.2,0.6,0.6,0.2,1c-1.1,1.1-1.7,2.5-1.9,3.9c0,0.3,0.1,0.6,0.2,0.8c0.3-0.1,0.6-0.2,0.8-0.3c0.6-0.4,0.9-1,1.1-1.7
	c0.3-1.3,0.9-2.6,1.8-3.7c0.4-0.8,1.3-1.1,2.1-0.7c0,0,0,0,0.1,0c1.4,0.5,1.6,0.9,1,2.2c-0.3,0.7-0.8,1.3-1.3,1.8
	C77.7,82.9,77.1,83,76.1,82.6z M62.8,84.9c0.2,0,0.4-0.1,0.5-0.2c1.4-1.1,2.5-2.6,3.2-4.4c0.2-0.4-0.1-0.6-0.4-0.4
	c-0.4,0.1-0.7,0.3-1,0.6c-1,1-1.7,2.2-2.2,3.6C62.8,84.3,62.8,84.6,62.8,84.9L62.8,84.9z M78.5,80.1c-0.1-0.2-0.2-0.4-0.3-0.6
	c-0.1,0-0.3,0-0.4,0.1c-0.4,0.6-0.8,1.2-1.1,1.8c-0.1,0.1,0.1,0.5,0.3,0.6c0.2,0.1,0.5,0,0.7-0.2C78,81.3,78.2,80.7,78.5,80.1z"/>
<path class="st1" d="M125.1,84.7c-0.5,0.3-1,0.6-1.6,0.9c-0.8,0.3-1.6-0.1-1.9-0.8c-0.1-0.2-0.1-0.4-0.1-0.6c0-1.4,0.3-2.7,0.8-4
	c0.3-1,0.7-2.1,1.1-3.2c-0.6,0-1.2,0-1.8,0c-0.3,0-0.7,0-1-0.1c-0.2-0.1-0.3-0.3-0.4-0.4c0.2-0.1,0.3-0.4,0.5-0.4
	c0.9-0.2,1.8-0.3,2.7-0.3c0.5,0,0.9-0.1,1-0.7c0.1-0.2,0.2-0.5,0.3-0.6c0.3-0.4,0.8-0.6,1.3-0.4c0.3,0.1,0.4,0.3,0.3,0.6
	s-0.3,0.6-0.4,0.9c0.6,0,1.1,0,1.6,0c0.7,0,1.4,0,2.1,0.1c0.2,0,0.3,0,0.5,0.1c0.2,0.1,0.3,0.3,0.4,0.5c-0.2,0.1-0.4,0.3-0.5,0.3
	c-1.4,0.1-2.8,0.2-4.2,0.3c-0.2,0-0.4,0.1-0.5,0.3c-0.9,2-1.6,4-2.1,6.1c-0.1,0.3-0.1,0.6-0.1,0.9c0,0.6,0.4,0.8,0.9,0.5
	c0.4-0.3,0.8-0.7,1.1-1.1c0.5-0.7,0.8-1.4,1.3-2.1c0.4-0.5,0.8-1.1,1.2-1.5c0.4-0.5,1.2-0.6,1.7-0.2c0.1,0.1,0.2,0.1,0.3,0.1
	c1.1,0.1,1.3,0.3,1.5,1.4c0,0.1,0,0.2,0.1,0.4l1.3-1c0.3-0.2,0.6-0.8,1-0.4s-0.1,0.7-0.3,1c-0.5,0.6-1.2,1.1-1.9,1.4
	c-0.1,0-0.3,0.3-0.4,0.4c-0.4,0.6-0.7,1.3-1.1,1.9c-0.4,0.6-1,1-1.7,1.1c-1,0.5-2.2,0-2.6-1C125.1,84.9,125.1,84.8,125.1,84.7z
	 M126.6,84.4c0.1,0.1,0.2,0.5,0.4,0.6s0.5-0.1,0.8-0.2c0.1,0,0.2-0.1,0.3-0.2c0.8-0.8,1.3-2,1.4-3.1c0-0.3-0.1-0.5-0.3-0.8
	c-0.1-0.1-0.6,0-0.7,0.2C127.4,81.7,126.7,83,126.6,84.4L126.6,84.4z"/>
<path class="st1" d="M151.6,83.9c-0.4,0.5-0.9,0.9-1.4,1.4c-0.6,0.6-1.5,0.5-2.1-0.1c0,0-0.1-0.1-0.1-0.1c-0.2-0.3-0.3-0.7-0.4-1.1
	c0-0.3,0-0.6,0.1-0.9c0.1-0.3,0.1-0.6,0.2-0.9c-0.4,0.2-0.8,0.3-1.2,0.5c-0.1,0.1-0.2,0.3-0.3,0.4c-0.4,0.7-0.8,1.5-1.3,2.1
	c-0.7,0.9-1.8,1.2-2.9,0.9c-0.8-0.1-1.4-0.9-1.3-1.7c0.1-1.8,0.9-3.6,2.3-4.7c0.4-0.4,1.1-0.4,1.5-0.1c0.1,0.1,0.2,0.1,0.3,0.1
	c1,0.1,1.3,0.3,1.5,1.4c0,0.1,0,0.2,0.1,0.4c0.4-0.2,0.7-0.4,1-0.7c0.5-0.5,1-1.1,1.4-1.6c0.3-0.5,0.9-0.6,1.4-0.4
	c0.3,0.1,0.4,0.5,0.3,0.8c0,0,0,0.1-0.1,0.1c-0.6,1.2-1.1,2.4-1.7,3.6c-0.1,0.3-0.2,0.6-0.1,0.9c0,0.2,0.1,0.4,0.3,0.6
	c0.2,0.1,0.4,0,0.6-0.1c0.3-0.3,0.6-0.6,0.8-1c0.7-1.4,1.4-2.8,2.1-4.2c0.1-0.5,0.6-0.8,1.1-0.7c0.1,0,0.2,0.1,0.2,0.1
	c0.5,0.3,0.5,0.5,0.3,1c-0.5,1.1-0.9,2.1-1.3,3.2c-0.1,0.4-0.2,0.8-0.1,1.3c0,0.4,0.3,0.5,0.6,0.3c0.3-0.2,0.5-0.5,0.7-0.8
	c0.3-0.5,0.6-1,0.9-1.5c0.1-0.3,0.3-0.5,0.7-0.3s0.4,0.4,0.2,0.7c-0.5,0.8-1,1.5-1.6,2.2c-0.3,0.3-0.7,0.5-1.1,0.6
	c-0.8,0.3-1.6-0.1-1.8-0.9c-0.1-0.2-0.1-0.4-0.1-0.6C151.6,84.1,151.6,84,151.6,83.9z M142.7,84.4c0.1,0.1,0.2,0.5,0.4,0.6
	s0.5-0.1,0.8-0.2c0.1,0,0.2-0.1,0.3-0.2c0.8-0.9,1.3-2,1.4-3.1c0-0.3-0.1-0.6-0.2-0.7c-0.3-0.1-0.6,0-0.8,0.1
	C143.5,81.7,142.8,83,142.7,84.4L142.7,84.4z"/>
<path class="st1" d="M107.5,82.5c0,0.6,0,1.1,0,1.7c0,0.4,0.3,0.7,0.7,0.7c0.1,0,0.2,0,0.3-0.1c0.4-0.1,0.9-0.3,1.3-0.6
	c1.5-1.1,2.6-2.7,3-4.5c0-0.1-0.1-0.3-0.1-0.5s-0.1-0.1-0.1-0.2c0-0.3,0.1-0.5,0.2-0.8c0.4-0.5,1-0.7,1.6-0.5
	c0.2,0.1,0.2,0.4,0.3,0.7c0,0.1,0,0.2,0,0.3c0.4,0.2,0.8,0.2,1.2-0.1c0.3-0.2,0.7-0.2,1-0.1c0.6,0.2,0.6,0.6,0.2,1
	c-1.1,1.1-1.8,2.5-1.9,4c0,0.2,0.1,0.6,0.2,0.7c0.2,0.1,0.5,0,0.7-0.2c0.5-0.6,1-1.2,1.5-1.8c0.1-0.2,0.2-0.4,0.3-0.5
	c0.1-0.1,0.3-0.2,0.5-0.1c0.1,0.1,0.2,0.3,0.2,0.5c-0.5,1.2-1.4,2.3-2.5,3c-0.7,0.5-1.7,0.4-2.2-0.3c-0.3-0.4-0.4-0.9-0.3-1.3
	c0.2-1.1,0.5-2.2,0.9-3.3c-0.3-0.2-0.6-0.2-0.7,0.3c-0.7,1.6-1.8,3-3.2,4c-0.8,0.7-1.8,1-2.8,0.9c-0.9,0-1.7-0.7-1.7-1.6
	c0,0,0,0,0-0.1c0-0.5,0-0.9,0.1-1.4c0.3-1.4,0.9-2.8,1.9-3.9c0.4-0.7,1.3-1,2.1-0.6c0,0,0,0,0,0h0.1c1.2,0.2,1.5,0.6,1,2
	c-0.3,0.7-0.7,1.4-1.3,2C109.2,82.8,108.3,83,107.5,82.5z M109.9,80.1c-0.1-0.3-0.1-0.5-0.3-0.6c-0.1-0.1-0.3-0.1-0.4,0
	c-0.6,0.4-1,1.1-1.2,1.8c0,0.2,0.1,0.5,0.3,0.6c0.2,0,0.5,0,0.6-0.2C109.4,81.3,109.7,80.7,109.9,80.1L109.9,80.1z"/>
<path class="st1" d="M138.7,84c-0.3,0.3-0.6,0.6-1,0.9c-0.5,0.4-1.2,0.4-1.6-0.1c-0.2-0.2-0.3-0.4-0.3-0.7c-0.2-1.8,0.3-3.5,1.5-4.9
	c0.3-0.4,0.8-0.4,1.2-0.2c0.5,0.2,0.5,0.4,0.2,0.9c-0.8,1.2-1.3,2.5-1.5,3.9c0,0.1,0.1,0.2,0.1,0.4c0.2-0.2,0.4-0.4,0.6-0.6
	c1.2-1.3,2-2.9,2.5-4.6c0.1-0.6,0.7-0.9,1.3-0.8c0.1,0,0.2,0.1,0.4,0.2c0.4,0.3,0.4,0.6,0.1,1.1c-0.5,0.8-1,1.6-1.3,2.5
	c-0.5,1.6-0.9,3.2-1.2,4.9c-0.3,2.2-3.3,3.3-4.7,2.7c-0.7-0.4-1.3-0.8-1.8-1.4c-0.2-0.2-0.2-0.5,0-0.7c0-0.1,0.1-0.1,0.2-0.1
	c0.4-0.2,0.7,0,0.8,0.4c0.1,0.4,0.4,0.7,0.8,0.7h0.1c1.9,0.6,2.4,0.3,3-1.6c0.3-0.9,0.4-1.7,0.6-2.6C138.7,84.1,138.7,84.1,138.7,84
	z"/>
<path class="st1" d="M53.4,82.6c0,0.6,0,1.2,0,1.7c0,0.4,0.4,0.7,0.7,0.6c0.1,0,0.1,0,0.2,0c0.4-0.1,0.9-0.3,1.3-0.6
	c0.9-0.6,1.7-1.5,2.3-2.5c0.1-0.1,0.3-0.2,0.5-0.3c0.1,0.2,0.3,0.5,0.2,0.7c-0.9,2-2.7,3.3-4.8,3.6c-1,0.1-1.8-0.6-1.9-1.5
	c0-0.2,0-0.3,0-0.5c0.1-2,0.9-3.8,2.3-5.3c0.4-0.5,1.1-0.6,1.6-0.3c0.1,0.1,0.3,0.1,0.4,0.1c1,0.3,1.2,0.5,1,1.5
	c-0.2,1-0.8,1.9-1.6,2.6C55,82.9,54.1,83,53.4,82.6z M55.8,80.2c-0.1-0.3-0.2-0.5-0.3-0.6c-0.1-0.1-0.3-0.1-0.4,0
	c-0.6,0.4-1,1.1-1.2,1.8c0,0.2,0.1,0.5,0.3,0.6c0.2,0,0.4,0,0.6-0.2C55.3,81.3,55.5,80.7,55.8,80.2L55.8,80.2z"/>
<path class="st0" d="M97.3,84.3c0.1-1.4,0.8-2.6,1.8-3.5c0.2-0.1,0.6-0.3,0.7-0.2c0.2,0.2,0.3,0.5,0.3,0.8c-0.1,1.2-0.6,2.3-1.4,3.1
	c-0.1,0.1-0.2,0.2-0.3,0.2c-0.3,0.1-0.6,0.3-0.8,0.2S97.4,84.5,97.3,84.3z"/>
<path class="st0" d="M93.7,80.2c0.7-1.8,1.5-3.6,2.2-5.3c0.3-0.6,0.5-1.2,0.8-1.8c0.1-0.1,0.3-0.2,0.4-0.3c0.1,0.2,0.1,0.3,0.1,0.5
	c0,0.1,0,0.2-0.1,0.3c-0.9,2.3-2,4.6-3.3,6.7L93.7,80.2z"/>
<path class="st0" d="M104.3,85.1l-1.9-0.6l1.3-2L104.3,85.1z"/>
<path class="st0" d="M62.8,84.9c0-0.3,0-0.5,0.1-0.8c0.4-1.4,1.2-2.6,2.2-3.6c0.3-0.3,0.6-0.5,1-0.6c0.3-0.1,0.6,0.1,0.4,0.4
	c-0.6,1.7-1.7,3.2-3.2,4.4C63.1,84.8,62.9,84.8,62.8,84.9z"/>
<path class="st0" d="M78.5,80.1c-0.3,0.6-0.6,1.2-0.9,1.7C77.4,82,77.2,82.1,77,82c-0.2-0.1-0.3-0.5-0.3-0.6
	c0.3-0.6,0.7-1.2,1.1-1.8c0.1-0.1,0.3-0.1,0.4-0.1C78.3,79.7,78.4,79.9,78.5,80.1z"/>
<path class="st0" d="M126.6,84.4c0.1-1.4,0.8-2.6,1.8-3.5c0.2-0.1,0.6-0.3,0.7-0.2c0.2,0.2,0.3,0.5,0.3,0.8
	c-0.1,1.2-0.6,2.3-1.4,3.1c-0.1,0.1-0.2,0.2-0.3,0.2c-0.3,0.1-0.6,0.3-0.8,0.2S126.7,84.5,126.6,84.4z"/>
<path class="st0" d="M142.7,84.4c0.1-1.4,0.8-2.6,1.8-3.5c0.2-0.2,0.5-0.2,0.8-0.1c0.2,0.1,0.3,0.5,0.2,0.7
	c-0.1,1.2-0.6,2.3-1.4,3.1c-0.1,0.1-0.2,0.2-0.3,0.2c-0.3,0.1-0.6,0.3-0.8,0.2S142.8,84.5,142.7,84.4z"/>
<path class="st0" d="M109.9,80.1c-0.3,0.5-0.5,1.1-0.9,1.7c-0.2,0.2-0.4,0.3-0.6,0.2c-0.2-0.1-0.3-0.4-0.3-0.6
	c0.1-0.7,0.6-1.4,1.2-1.8c0.1-0.1,0.3-0.1,0.4,0C109.8,79.7,109.8,79.8,109.9,80.1z"/>
<path class="st0" d="M55.8,80.1c-0.3,0.6-0.6,1.2-0.9,1.7c-0.2,0.2-0.4,0.2-0.6,0.2c-0.2-0.1-0.3-0.4-0.3-0.6
	c0.1-0.7,0.5-1.4,1.2-1.8c0.1-0.1,0.3-0.1,0.4,0C55.7,79.6,55.7,79.8,55.8,80.1z"/>
</svg>
