<?xml version="1.0" encoding="utf-8"?>
<!-- Generator: Adobe Illustrator 21.1.0, SVG Export Plug-In . SVG Version: 6.00 Build 0)  -->
<svg version="1.1" id="Layer_1" xmlns="http://www.w3.org/2000/svg" xmlns:xlink="http://www.w3.org/1999/xlink" x="0px" y="0px"
	 viewBox="0 0 169.8 176.6" style="enable-background:new 0 0 169.8 176.6;" xml:space="preserve">
<style type="text/css">
	.st0{fill:#04589A;}
	.st1{fill:#C70B24;}
	.st2{fill:#FEFDFD;}
</style>
<title>Stripes</title>
<path class="st0" d="M168.8,94.8c-1.4,7.3-6.2,11-13.1,12.5c-0.8,0.2-1.6,0.3-2.3,0.4c-6.1,0.3-11.7-0.9-16.2-5.4
	c-0.4-0.4-0.6-0.4-1,0c-3,3.1-6.8,4.5-10.8,5.3c-5.9,0.7-11.9-1.1-16.4-5c-0.4-0.5-0.8-0.9-1.2-1.4c-0.5-0.7-0.8-0.6-1.4,0
	c-3.6,4.4-9.2,6.8-14.9,6.4c-1.1-0.1-1.2,0.4-1.2,1.3c0,2,0,4,0,6.1c0.2,1.3-0.8,2.5-2.1,2.7c-0.1,0-0.3,0-0.4,0
	c-4.4,0.1-8.8,0.1-13.1,0c-1.8,0-2.6-1-2.6-2.8c0-1-0.1-2-0.1-3c0.3-4.6,0.3-4.6-4.3-4.6c-4.2,0-8.5,0.1-12.7,0.1
	c-3.3-0.2-6.6-0.3-9.9-0.1c-4.4,0.1-8.4-0.7-11.9-3.6c-0.4-0.3-0.7-0.6-1.1-0.1c-1.3,1.3-3,2-4.4,3c-0.1,0.1-0.2,0.2-0.3,0.3l0,0
	c-0.6-0.4-1,0.1-1.5,0.2c-5.4,1.6-11.3,1.1-16.3-1.4c-4.1-2.1-7.2-5.8-8.3-10.3c-0.1-0.4-0.2-0.7-0.5-1c-0.2-1.9-0.2-3.8,0-5.7
	c0.9-0.8,1.3-2.1,1.1-3.4c-1.4-7,3-13.6,10.2-15.9c1.5-0.5,3.2-0.7,4.8-1c3.8-0.3,7.6,0.4,11.1,2c0.1-0.3,0.2-0.3,0.2-0.4
	c0-1.6,0-3.3,0-4.9c0-2.3,0.9-3.2,3.2-3.2c3.3,0,6.6,0,9.9,0c4.8,0,4.8,0,5.2,4.7c-0.2,2.4-0.2,2.4,2.2,2.4c4,0,8,0,11.9,0
	c1.1,0,1.6-0.2,1.5-1.5c-0.1-1.7,0-3.4,0-5c0-2.7,0.8-3.4,3.4-3.4l10.2-0.1c0.3,0.1,0.7,0.1,1,0.1c3.3,0.1,3.8,0.6,3.8,3.8
	c0,2.9,0,5.8,0,9c4.1-2.8,9-4,13.9-3.6c5,0.8,9.3,2.8,12.6,6.8c0.3,0.4,0.6,0.4,0.9,0c1.7-2.2,4.1-3.6,6.3-5.1c0.2,0,0.3,0,0.5,0
	c7.9-3.1,15.1-2,21.4,3.7c0.3,0.3,0.6,0.6,1,0.1c1.5-1.8,3.6-2.8,5.4-4.2c1.9-0.4,3.7-0.9,5.6-1.1c4.2-0.7,8.6,0.1,12.4,2.1
	c6.1,3.3,9.3,10.1,8,16.9c-0.2,1.5,0.2,3,1,4.3 M85.1,100.1c0.4,0.3,0.6,0.4,0.8,0.5c4.4,3,10.2,2.9,14.5-0.3
	c4.6-3.5,6.4-8.2,5.9-13.9c-0.6-7.6-7.1-13.3-14.7-13c-7.5,0-13.7,5.9-14,13.4c-0.2,8.1-0.1,16.3-0.1,24.4c0,1,0.4,1.2,1.3,1.2
	c1.6-0.1,3.3-0.1,4.9,0c1.1,0.1,1.4-0.3,1.4-1.4C85,107.4,85.1,103.9,85.1,100.1L85.1,100.1z M126.4,91.1h8.8c0.7,0,1.4,0.1,1.4-0.9
	c0.4-5.1-1.1-11.2-6.6-14.6c-6.8-4.1-15.6-1.9-19.7,4.9c-1.9,3.2-2.5,7-1.7,10.6c1.4,6,5.2,9.8,11.2,11c6.9,1.4,13.6-2.1,15.8-8.1
	c0.4-1.1,0.3-1.5-1-1.5c-1.7,0.1-3.5,0.1-5.2,0c-0.8-0.1-1.6,0.3-2.1,1c-2.4,2.7-6.6,2.9-9.2,0.5c-0.5-0.4-0.9-0.9-1.3-1.5
	c-0.6-1-0.8-1.6,0.8-1.5C120.5,91.1,123.4,91.1,126.4,91.1L126.4,91.1z M159.1,82.7h1.7c2.7,0,2.8-0.1,1.7-2.5
	c-1.9-4.3-5.6-6.2-10.1-6.5c-4.8-0.3-9.4,0.4-12.3,4.9c-2.2,3.2-1.3,7.6,1.9,9.7c0.3,0.2,0.6,0.3,0.9,0.5c2.1,1.1,4.4,1.7,6.7,2
	c1.8,0.2,3.5,0.6,5.3,1.1c0.7,0.2,1.2,0.8,1.2,1.5c0,0.7-0.4,1.3-1.1,1.6c-2.1,1.2-6.5,0.9-7.9-0.9c-1.3-1.7-2.7-1.6-4.4-1.6
	c-1,0-1.9,0.1-2.9,0c-1.4-0.1-1.8,0.3-1.4,1.7c1,3.6,3.8,6.4,7.4,7.5c4.7,1.5,9.3,1.4,13.6-1.3c2.9-1.6,4.6-4.9,4.1-8.3
	c-0.3-3.6-2.7-5.4-5.8-6.4c-1.9-0.6-3.9-1.1-5.9-1.4c-1.5-0.1-3-0.5-4.4-1c-1.1-0.5-1.2-1.3-0.3-2.1c1.7-1.4,6-1.2,7.4,0.5
	c0.5,0.7,1.3,1,2.1,0.9C157.6,82.6,158.4,82.7,159.1,82.7L159.1,82.7z M9.8,92.5c-0.9,0-1.8,0.1-2.7,0c-1.1-0.1-1.2,0.5-1,1.3
	c0.4,1.8,1.3,3.5,2.6,4.8c4.4,4.6,14.8,5,19.7,0.9c3.8-3.2,4.5-11.1-2.1-13.6c-2-0.7-4.1-1.2-6.2-1.6c-1.6-0.2-3.2-0.6-4.7-1.3
	c-1.3-0.7-1.3-1.7-0.1-2.4c2.5-1.4,5.6-0.8,7.5,1.2c0.3,0.4,0.7,0.7,1.2,0.7c1.8,0,3.7,0,5.6,0c0.9,0,1.1-0.4,0.9-1.2
	c-0.4-1.9-1.5-3.7-2.9-5c-4.4-4-13.8-3.9-18.1,0.1c-3.4,3.1-4.3,9.9,2.1,12.5c2.3,0.8,4.6,1.4,7,1.7c1.4,0.1,2.7,0.5,4,1.1
	c0.9,0.3,1.3,1.2,1,2.1c-0.1,0.4-0.4,0.7-0.8,0.9c-2.2,1.4-7.2,0.5-8.8-1.6c-0.3-0.5-0.9-0.8-1.5-0.7C11.5,92.5,10.7,92.5,9.8,92.5z
	 M33.5,80.5c0.2,3.6-0.3,8,0.3,12.3c0.7,5.6,4.7,9,10.3,9.1c2.4,0,2.4,0,2.4-2.3c0-1.1-0.1-2.1,0-3.2s-0.3-1.3-1.3-1.4
	c-3.1-0.2-4.3-1.6-4.4-4.8c0-2.1,0-4.2,0-6.2c0-3.3,0-3.4,3.3-3.3c1.7,0.1,2.4-0.4,2.1-2.1c-0.2-1.4,0.6-3.1-0.3-4.1
	s-2.5-0.3-3.8-0.3c-1,0-1.2-0.4-1.2-1.3c0.1-1.4-0.1-2.8,0-4.2c0.1-1.1-0.3-1.5-1.4-1.5c-1.5,0.1-3,0.1-4.6,0
	c-1.1-0.1-1.5,0.3-1.4,1.4C33.5,72.4,33.5,76,33.5,80.5L33.5,80.5z M56.1,76.4c0.7-2.5-0.7-2.1-1.9-2.1c-1.3,0-2.7,0.1-4,0
	c-1-0.1-1.2,0.3-1.2,1.3c0,8.4,0,16.7,0,25.1c0,1,0.3,1.4,1.3,1.4c1.5-0.1,3-0.1,4.5,0c1.2,0.1,1.6-0.3,1.5-1.5
	c-0.1-4.1,0-8.2,0-12.3c0-4.8,2.5-8.1,7.4-7.5c0.9,0.1,1.2-0.3,1.1-1.1c0-1.5-0.1-3,0-4.5c0.1-1.2-0.5-1.5-1.5-1.6
	C60.7,73.4,58.1,74.4,56.1,76.4L56.1,76.4z M74.8,88.3c0-4.2,0-8.4,0-12.6c0-1-0.2-1.4-1.3-1.4c-1.6,0.1-3.3,0.1-4.9,0
	c-0.9,0-1.3,0.2-1.3,1.2c0,8.4,0,16.8,0,25.3c0,1,0.4,1.3,1.3,1.2c1.5-0.1,2.9-0.1,4.4,0c1.4,0.1,1.8-0.3,1.8-1.7
	C74.8,96.3,74.8,92.3,74.8,88.3z M71.1,71.5c3.7,0,3.7,0,3.7-3.6c0-3.2,0-3.2-3.3-3.2c-4.1,0-4.1,0-4.1,3.2
	C67.4,71.5,67.4,71.5,71.1,71.5L71.1,71.5z"/>
<path class="st1" d="M46.3,66.5c-0.3-4.7-0.3-4.7-5.2-4.7c-3.3,0-6.6,0-9.9,0c-2.3,0-3.1,0.9-3.2,3.2c0,1.6,0,3.3,0,4.9
	c0,0.1-0.1,0.2-0.2,0.4c-3.5-1.6-7.3-2.3-11.1-2.1c0.4-0.4,0.8-0.9,1.3-1.3L82.9,1.9c1.9-1.9,1.9-1.9,3.8,0c3.5,3.5,7,7.1,10.6,10.6
	c1,1,1.2,1.8,0.1,2.9c-17,17-34,33.9-50.9,50.9C46.5,66.4,46.4,66.4,46.3,66.5z"/>
<path class="st1" d="M94.2,68.3c-4.9-0.4-9.8,0.8-13.9,3.6c0-3.3,0-6.1,0-9c0-3.2-0.5-3.8-3.8-3.8c-0.3,0-0.7-0.1-1-0.1
	C86.4,48,97.3,37,108.2,26.1c1-1,1.8-0.9,2.7,0.1c3.6,3.7,7.3,7.3,11,11c1.6,1.6,1.6,1.8,0,3.4L95,67.4C94.7,67.7,94.5,68,94.2,68.3
	z"/>
<path class="st1" d="M142.3,69.6c-1.8,1.4-3.9,2.4-5.4,4.2c-0.4,0.4-0.7,0.1-1-0.1c-6.4-5.7-13.5-6.8-21.4-3.7c-0.2,0-0.3,0-0.5,0
	l15.6-15.8c1.2-1.2,2.4-2.4,3.6-3.6c0.4-0.6,1.3-0.7,1.9-0.3c0.1,0.1,0.2,0.2,0.3,0.3l11.8,11.8c0.6,0.5,0.8,1.4,0.3,2
	c-0.1,0.1-0.2,0.2-0.3,0.3C145.5,66.3,144,67.9,142.3,69.6z"/>
<path class="st1" d="M125.4,107.6c4.1-0.8,7.9-2.2,10.8-5.3c0.4-0.4,0.6-0.4,1,0c4.5,4.6,10.1,5.6,16.2,5.4c-2.3,2.4-4.6,4.7-7,7.1
	l-59.8,59.8c-2,2-2,2-4,0l-10.2-10.3c-1.7-1.7-1.7-1.8,0.1-3.6l51.8-51.8C124.7,108.5,125.1,108,125.4,107.6z"/>
<path class="st1" d="M72,111.8c0,1,0.1,2,0.1,3c0.1,1.8,0.9,2.8,2.6,2.8c4.4,0.1,8.8,0.1,13.1,0c1.3,0.1,2.5-0.9,2.6-2.3
	c0-0.1,0-0.3,0-0.4c0-2,0-4,0-6.1c0-0.9,0.1-1.3,1.2-1.3c5.7,0.4,11.3-2,14.9-6.4c0.6-0.6,0.9-0.8,1.4,0c0.4,0.5,0.8,0.9,1.2,1.4
	c-0.3,0.4-0.6,0.8-1,1.1l-46.2,46.2c-1.9,1.9-2,1.9-3.9,0c-3.6-3.6-7.1-7.2-10.7-10.7c-0.9-0.9-1.1-1.7-0.1-2.7
	C55.5,128.3,63.8,120,72,111.8z"/>
<path class="st1" d="M27.7,106.4c1.5-1,3.2-1.7,4.4-3c0.4-0.4,0.8-0.2,1.1,0.1c3.5,2.9,7.5,3.7,11.9,3.6c3.3-0.2,6.6-0.1,9.9,0.1
	c-6.2,6.2-12.4,12.4-18.5,18.6c-0.9,0.9-1.7,0.9-2.6,0c-3.8-3.8-7.6-7.6-11.4-11.4c-1-1-0.8-1.7,0.1-2.7c1.6-1.7,3.5-3.1,4.8-5.1"/>
<path class="st2" d="M85.1,100.1c0,3.8,0,7.4,0,10.9c0,1.1-0.3,1.5-1.4,1.4c-1.6-0.1-3.3-0.1-4.9,0c-0.9,0-1.3-0.2-1.3-1.2
	c0-8.1-0.1-16.3,0.1-24.4c0.3-7.5,6.5-13.5,14-13.4c7.6-0.3,14.1,5.4,14.7,13c0.5,5.7-1.3,10.4-5.9,13.9c-4.2,3.2-10.1,3.4-14.5,0.3
	C85.7,100.4,85.5,100.3,85.1,100.1z M98.6,88c0-4.2-2.9-7.3-6.7-7.3s-6.8,3.3-6.8,7.4c0,4.1,3,7.6,6.8,7.6S98.6,92.3,98.6,88
	L98.6,88z"/>
<path class="st2" d="M126.3,91.1c-2.9,0-5.8,0.1-8.8,0c-1.6,0-1.4,0.5-0.8,1.5c1.9,3.1,5.9,4.1,9,2.3c0.6-0.3,1.1-0.8,1.5-1.3
	c0.5-0.7,1.3-1.1,2.1-1c1.7,0.1,3.5,0.1,5.2,0c1.3-0.1,1.4,0.4,1,1.5c-2.2,6-8.9,9.6-15.8,8.1c-6-1.3-9.8-5-11.2-11
	c-1.8-7.7,3-15.5,10.7-17.3c3.6-0.9,7.5-0.3,10.7,1.7c5.5,3.4,6.9,9.4,6.6,14.6c-0.1,1-0.8,0.9-1.4,0.9L126.3,91.1z M116.4,84.7
	c3.8,0,7.5,0,11.3,0c0.9,0,0.9-0.3,0.6-1c-1.2-2.4-3.8-3.7-6.4-3.4C119.3,80.5,117.1,82.2,116.4,84.7L116.4,84.7z"/>
<path class="st2" d="M159.1,82.7c-0.7,0-1.5,0-2.2,0c-0.8,0.1-1.7-0.2-2.1-0.9c-1.4-1.7-5.6-1.9-7.4-0.5c-0.9,0.7-0.9,1.6,0.3,2.1
	c1.4,0.5,2.9,0.9,4.4,1c2,0.3,4,0.7,5.9,1.4c3.1,1.1,5.5,2.9,5.8,6.4c0.4,3.3-1.2,6.6-4.1,8.3c-4.3,2.6-8.9,2.8-13.6,1.3
	c-3.6-1-6.5-3.9-7.5-7.6c-0.4-1.4,0-1.8,1.4-1.7c0.9,0.1,1.9,0,2.9,0c1.6,0,3.1-0.1,4.4,1.6c1.4,1.9,5.8,2.1,7.9,0.9
	c0.7-0.2,1.1-0.9,1.1-1.6c0-0.7-0.5-1.3-1.2-1.5c-1.7-0.6-3.5-1-5.3-1.1c-2.3-0.3-4.6-0.9-6.7-2c-3.5-1.7-4.9-5.9-3.3-9.3
	c0.1-0.3,0.3-0.6,0.5-0.9c2.9-4.5,7.4-5.3,12.3-4.9c4.5,0.3,8.1,2.2,10.1,6.5c1.1,2.5,1,2.5-1.7,2.5L159.1,82.7z"/>
<path class="st2" d="M9.8,92.5c0.8,0,1.7,0,2.5,0c0.6-0.1,1.2,0.2,1.5,0.7c1.6,2.1,6.6,3,8.8,1.6c0.8-0.4,1.1-1.4,0.7-2.2
	c-0.2-0.4-0.5-0.7-0.9-0.8c-1.3-0.6-2.6-1-4-1.1c-2.4-0.3-4.7-0.8-7-1.7C5.1,86.5,6,79.6,9.4,76.6c4.4-4,13.7-4.1,18.1-0.1
	c1.5,1.3,2.5,3.1,2.9,5c0.2,0.8,0,1.2-0.9,1.2c-1.8,0-3.7,0-5.6,0c-0.5,0-1-0.3-1.2-0.7c-1.9-2.1-5-2.6-7.5-1.2
	c-1.2,0.8-1.2,1.7,0.1,2.4c1.5,0.7,3.1,1.1,4.7,1.3c2.1,0.3,4.2,0.8,6.2,1.6c6.6,2.5,6,10.4,2.1,13.6c-4.9,4.1-15.2,3.7-19.7-0.9
	c-1.3-1.3-2.2-3-2.6-4.8c-0.2-0.9-0.1-1.4,1-1.3C8,92.6,8.9,92.5,9.8,92.5z"/>
<path class="st2" d="M33.5,80.5c0-4.4,0-8.1,0-11.7c0-1.1,0.3-1.5,1.4-1.4c1.5,0.1,3,0.1,4.6,0c1.1-0.1,1.5,0.4,1.4,1.5
	c-0.1,1.4,0,2.8,0,4.2c0,0.9,0.1,1.3,1.2,1.3c1.3,0,3.1-0.6,3.9,0.3s0.1,2.7,0.3,4.1c0.3,1.7-0.4,2.2-2.1,2.1
	c-3.3-0.2-3.3,0-3.3,3.3c0,2.1,0,4.2,0,6.2c0,3.2,1.2,4.6,4.4,4.8c1,0.1,1.4,0.4,1.3,1.4s0,2.1,0,3.2c0,2.3,0,2.3-2.4,2.3
	c-5.7-0.1-9.6-3.5-10.3-9.1C33.2,88.4,33.6,84.1,33.5,80.5z"/>
<path class="st2" d="M56.1,76.3c1.9-1.9,4.5-3,7.3-2.9c1.1,0,1.6,0.3,1.5,1.6c-0.1,1.5-0.1,3,0,4.5c0,0.8-0.2,1.3-1.1,1.1
	c-4.9-0.7-7.5,2.7-7.4,7.5c0,4.1,0,8.2,0,12.3c0,1.2-0.4,1.6-1.5,1.5c-1.5-0.1-3-0.1-4.5,0c-1.1,0.1-1.3-0.4-1.3-1.4
	c0-8.4,0-16.7,0-25.1c0-0.9,0.3-1.3,1.2-1.3c1.3,0.1,2.7,0,4,0C55.4,74.2,56.8,73.8,56.1,76.3z"/>
<path class="st2" d="M74.8,88.3c0,4-0.1,8,0,12c0,1.5-0.4,1.8-1.8,1.7c-1.5-0.1-2.9-0.1-4.4,0c-0.9,0-1.3-0.2-1.3-1.2
	c0-8.4,0-16.8,0-25.3c0-1,0.3-1.3,1.3-1.2c1.6,0.1,3.3,0.1,4.9,0c1.1-0.1,1.3,0.4,1.3,1.4C74.8,79.8,74.8,84,74.8,88.3z"/>
<path class="st2" d="M71.1,71.5c-3.7,0-3.7,0-3.7-3.7c0-3.2,0-3.2,4.1-3.2c3.3,0,3.3,0,3.3,3.2C74.8,71.5,74.8,71.5,71.1,71.5z"/>
<path class="st0" d="M98.6,88c0,4.3-2.9,7.6-6.7,7.6S85,92.1,85.1,88s3.1-7.3,6.8-7.4S98.6,83.8,98.6,88z"/>
<path class="st0" d="M116.4,84.7c0.7-2.5,2.9-4.2,5.4-4.4c2.6-0.3,5.2,1.1,6.4,3.4c0.3,0.7,0.3,1-0.6,1
	C124,84.7,120.2,84.7,116.4,84.7z"/>
<path class="st0" d="M165.8,113.4c-1.7,0-3.1-1.4-3.1-3.1c0-1.7,1.4-3.1,3.1-3.1c1.7,0,3.1,1.4,3.1,3.1
	C169,112,167.6,113.4,165.8,113.4z M165.8,107.6c-1.5,0-2.6,1.2-2.6,2.6c0,1.5,1.2,2.6,2.6,2.6c1.5,0,2.6-1.2,2.6-2.6
	C168.5,108.8,167.3,107.6,165.8,107.6C165.8,107.6,165.8,107.6,165.8,107.6z"/>
<path class="st0" d="M164.6,111.7v-2.9h1.3c0.2,0,0.4,0,0.6,0.1c0.1,0.1,0.2,0.2,0.3,0.3c0.1,0.1,0.1,0.3,0.1,0.4
	c0,0.2-0.1,0.4-0.2,0.5c-0.2,0.2-0.4,0.3-0.6,0.3c0.1,0,0.2,0.1,0.2,0.1c0.1,0.1,0.2,0.2,0.3,0.4l0.5,0.8h-0.5l-0.4-0.6
	c-0.1-0.2-0.2-0.3-0.3-0.4c-0.1-0.1-0.1-0.1-0.2-0.2c-0.1,0-0.1-0.1-0.2-0.1H165v1.3L164.6,111.7z M164.9,110.1h0.8
	c0.1,0,0.3,0,0.4-0.1c0.1,0,0.2-0.1,0.2-0.2c0.1-0.1,0.1-0.2,0.1-0.3c0-0.1-0.1-0.3-0.1-0.3c-0.1-0.1-0.3-0.1-0.5-0.1H165
	L164.9,110.1z"/>
</svg>
