<?xml version="1.0" encoding="utf-8"?>
<!-- Generator: Adobe Illustrator 21.1.0, SVG Export Plug-In . SVG Version: 6.00 Build 0)  -->
<svg version="1.1" id="Layer_1" xmlns="http://www.w3.org/2000/svg" xmlns:xlink="http://www.w3.org/1999/xlink" x="0px" y="0px"
	 viewBox="0 0 181.1 112.5" style="enable-background:new 0 0 181.1 112.5;" xml:space="preserve">
<style type="text/css">
	.st0{fill:#175388;}
	.st1{fill:#FCE401;}
	.st2{fill:#E12E3D;}
	.st3{fill:#165288;}
</style>
<title>CR</title>
<path class="st0" d="M0.5,58.4l6-2.6l10.3-4.4c0.3-0.1,0.6-0.4,0.7-0.7c0.8-1.8,1.5-3.6,2.3-5.4c1.3-3.2,4.5-5.3,7.9-5.2
	c4.5-0.1,9,0,13.5,0c1,0.1,1.9-0.2,2.8-0.6c0.6-0.3,1.2-0.5,1.8-0.8c-0.1-0.4-0.5-0.5-0.7-0.7c-1-0.8-2.1-1.5-3.1-2.3
	c-0.3-0.3-0.7-0.4-1.1-0.2c-1.6,0.8-2.8,0.2-4.2-0.8C30,29.6,23.1,24.5,16.3,19.5c-0.2-0.1-0.3-0.2-0.5-0.4l4.7-1.9
	c2.4-1,4.8-1.9,7.1-2.8c0.4-0.1,0.8-0.5,0.7-1c0.4-4.2,0.8-8.4,1.2-12.8l2.5,1.8c6.7,4.9,13.3,9.8,20,14.8c0.4,0.3,0.7,0.8,0.6,1.3
	c-0.2,2.3-0.2,2.3,1.7,3.7c3.5,2.6,7,5.2,10.5,7.8c0.3,0.3,0.8,0.4,1.2,0.2c7.6-3.2,15.1-6.5,22.7-9.7c0.6-0.3,1.3-0.3,1.8,0
	c15.5,6.5,31,13.1,46.5,19.6c0.3,0.1,0.7,0.2,1,0.2h24c1.7-0.1,3.3,0.3,4.8,1c3.5,1.7,5.1,5.8,3.7,9.4c-0.3,0.9-0.7,1.7-1.1,2.5
	c-0.2,0.4-0.1,0.6,0.3,0.8c3.3,1.4,6.6,2.7,9.9,4.1l1,0.4c-0.2,0.1-0.4,0.2-0.6,0.3c-5.2,2.2-10.3,4.4-15.5,6.6
	c-0.5,0.2-0.8,0.5-1,1c-0.9,2.1-1.9,4.2-2.9,6.3c-1.4,3.2-4.6,5.3-8.1,5.2c-5.4,0.1-10.7,0-16.1,0c-0.8,0-1.7,0.1-2.4,0.5
	c-0.8,0.4-1.6,0.7-2.6,1.1l7,5.2c1.3,0.9,1.3,0.9,2.2-0.3l3.1-4.2l16.7,31.9l-35.4-6.6l3.2-4.4c0.6-0.8,0.6-0.8-0.2-1.4
	c-5.1-3.8-10.3-7.6-15.4-11.4c-0.3-0.3-0.8-0.4-1.3-0.1c-7.1,3.1-14.3,6.1-21.4,9.1c-0.4,0.2-0.8,0.2-1.2,0l-43.5-19
	c-0.5-0.2-1-0.3-1.5-0.3c-8.5,0-17,0-25.5,0c-4,0.1-7.5-2.8-8.1-6.7c-0.3-1.6-0.1-3.3,0.6-4.8c0.1-0.2,0.2-0.4,0.3-0.7
	c0.3-0.6,0.9-1.4,0.7-1.9c-0.2-0.5-1.1-0.6-1.8-0.9l-8.9-4.1C0.9,58.7,0.8,58.6,0.5,58.4z M172.1,58.5l-0.8-0.4
	c-2-0.8-3.9-1.7-5.9-2.5c-0.5-0.2-0.6-0.4-0.4-0.9c0.8-1.7,1.6-3.4,2.3-5.2c1-2,0.1-4.5-1.9-5.5c-0.1-0.1-0.3-0.1-0.4-0.2
	c-1.1-0.4-2.2-0.6-3.3-0.5H97.5c-0.3,0-0.6,0.1-0.8-0.2l33-2.5c-0.2-0.4-0.5-0.4-0.7-0.5L90.3,23.9c-0.4-0.2-0.9-0.2-1.4,0
	L44.1,43.2c-0.5,0.2-1,0.3-1.5,0.3c-4.8,0-9.6,0-14.4,0c-2.4-0.1-4.6,1.3-5.4,3.6c-0.8,2.1-1.8,4.1-2.7,6.2
	c-0.1,0.4-0.4,0.6-0.8,0.8c-3.3,1.4-6.6,2.8-9.9,4.2c-0.2,0.1-0.5,0.1-0.7,0.4c2.3,1,4.5,2.1,6.8,3.1c0.6,0.2,0.7,0.4,0.4,1
	c-0.8,1.6-1.5,3.2-2.1,4.8c-0.8,2-0.7,4,1,5.6c1.1,1,2.5,1.5,4,1.4h64.9v0.2L52,77.4l0.7,0.3l36.4,15.9c0.3,0.1,0.6,0.1,0.9,0
	L133.7,75c0.6-0.3,1.2-0.4,1.8-0.4c5.7,0,11.3,0,17,0c2.2,0.1,4.3-1.2,5.2-3.3c1-2.2,2-4.3,2.9-6.5c0.4-1.1,1.3-1.9,2.4-2.3
	C166,61.2,169,59.9,172.1,58.5z M32.1,6c-0.2,0.2-0.2,0.4-0.2,0.7c-0.3,2.9-0.5,5.8-0.8,8.7c0,0.4-0.3,0.8-0.7,0.9
	c-2.7,1-5.4,2.1-8.1,3.2c-0.2,0.1-0.4,0.1-0.6,0.4l0.6,0.4c5,3.8,10.1,7.4,15.1,11.3c1.3,1,2.4,1.5,3.9,0.8c0.4-0.2,0.9-0.1,1.3,0.2
	c2,1.5,4,2.9,5.9,4.4c0.3,0.2,0.7,0.3,1,0.1c2.2-1,4.4-1.9,6.7-2.9l6-2.6c-0.2-0.2-0.4-0.3-0.5-0.4c-3.8-2.8-7.6-5.7-11.4-8.5
	c-0.6-0.3-1-1-0.8-1.7c0-0.5,0.1-0.9,0.1-1.4c0.1-0.5-0.1-0.9-0.6-1.2c-4-3-8-6-12.1-8.9L32.1,6z M155.2,108.1l-1.9-3.7
	c-3.2-6.1-6.3-12.1-9.5-18.2c-0.3-0.5-0.4-0.6-0.8-0.1c-0.7,1-1.5,1.9-2.1,2.9c-0.4,0.5-0.6,0.5-1.1,0.2c-3.6-2.7-7.2-5.3-10.8-8
	c-0.4-0.3-0.9-0.4-1.3-0.1c-2.6,1.1-5.3,2.3-7.9,3.4l-4.6,2l1,0.8c5.4,4,10.8,8,16.1,11.9c0.5,0.4,0.6,0.6,0.2,1.1
	c-0.7,0.8-1.3,1.7-1.9,2.6c-0.3,0.4-0.4,0.6,0.3,0.7c5.6,1,11.3,2.1,16.9,3.2L155.2,108.1z"/>
<path class="st0" d="M141,80.5c0,1-0.9,1.9-1.9,1.8s-1.9-0.9-1.8-1.9c0-1,0.9-1.8,1.9-1.8C140.2,78.6,141,79.5,141,80.5
	C141,80.5,141,80.5,141,80.5z M139.1,82.1c0.9,0,1.5-0.7,1.5-1.6c0,0,0,0,0-0.1c0-0.9-0.7-1.6-1.6-1.6c-0.9,0.1-1.5,0.8-1.5,1.7
	C137.6,81.4,138.3,82.1,139.1,82.1C139.1,82.1,139.1,82.1,139.1,82.1z"/>
<path class="st1" d="M172.1,58.5c-3.1,1.3-6.1,2.7-9.2,3.9c-1.1,0.4-2,1.2-2.4,2.3c-0.9,2.2-1.9,4.4-2.9,6.5
	c-0.9,2.1-2.9,3.4-5.2,3.3c-5.7,0-11.3,0-17,0c-0.6,0-1.3,0.1-1.8,0.4L89.9,93.6c-0.3,0.1-0.6,0.1-0.9,0L52.6,77.7l-0.7-0.3
	l31.8-2.6v-0.2H18.8c-1.5,0.1-2.9-0.4-4-1.4c-1.7-1.6-1.7-3.6-1-5.6c0.6-1.6,1.3-3.3,2.1-4.8c0.3-0.6,0.1-0.8-0.4-1
	c-2.3-1-4.5-2.1-6.8-3.1c0.2-0.3,0.4-0.3,0.7-0.4c3.3-1.4,6.6-2.8,9.9-4.2c0.4-0.1,0.7-0.4,0.8-0.8c0.9-2.1,1.8-4.1,2.7-6.2
	c0.8-2.3,3-3.7,5.4-3.6c4.8,0,9.6,0,14.4,0c0.5,0,1-0.1,1.5-0.3l44.8-19.2c0.4-0.2,0.9-0.2,1.4,0l38.6,16.2c0.2,0.1,0.5,0.1,0.7,0.5
	l-33,2.5c0.3,0.3,0.6,0.2,0.8,0.2h64.2c1.1-0.1,2.2,0.1,3.3,0.5c2.1,0.7,3.3,3.1,2.5,5.2c0,0.1-0.1,0.3-0.2,0.4
	c-0.7,1.8-1.5,3.5-2.3,5.2c-0.2,0.5-0.1,0.7,0.4,0.9c2,0.8,4,1.6,5.9,2.5L172.1,58.5z M75.5,60.4c0.7,3.6,1.3,7,1.9,10.4
	c0.1,0.5,0.3,0.7,0.8,0.6c2,0,4.1,0,6.1,0c0.5,0,0.9-0.2,1.1-0.7c3.1-7.6,6.3-15.1,9.4-22.7l0.6-1.3H82.2c0,0.2,0.1,0.2,0.2,0.2
	c1.3,0.3,2.7,0.7,4,0.9c0.6,0.1,0.6,0.3,0.4,0.8c-1.2,2.8-2.3,5.6-3.5,8.4c-0.1,0.2-0.1,0.4-0.3,0.6c-0.6-3.5-1.2-7-1.8-10.5
	c-0.1-0.5-0.2-0.6-0.7-0.6c-2.2,0-4.5,0-6.7,0c-0.3,0-0.7,0.2-0.8,0.5c-3.3,7.9-6.6,15.8-9.9,23.7c-0.3,0.6,0,0.6,0.5,0.6
	c2.2,0,4.4,0,6.7,0c0.4,0.1,0.8-0.2,0.9-0.6c1.1-2.8,2.3-5.5,3.4-8.2C74.8,62,75.1,61.3,75.5,60.4z M108.5,46.7L108.5,46.7
	c-2.1,0-4.3-0.1-6.4,0c-2.1-0.1-3.9,1.2-4.6,3.2c-0.8,2-1.6,4-2.5,6c-1.7,4-3.3,8-5,12c-0.8,2,0.1,3.5,2.1,3.5c4.3,0,8.5,0.1,12.8,0
	c2,0.1,3.9-1.2,4.5-3.1c1.7-4.2,3.5-8.4,5.2-12.6c0.8-2,1.7-3.9,2.4-5.9c0.5-1.1,0.1-2.4-1-2.9c-0.4-0.2-0.8-0.3-1.2-0.2L108.5,46.7
	L108.5,46.7z M144.5,71.5c2.1,0,4.2,0.1,6.3,0c2,0.1,3.8-1.2,4.6-3.1c2.4-5.9,4.9-11.8,7.4-17.7c0.2-0.4,0.3-0.7,0.4-1.1
	c0.4-1.1-0.2-2.3-1.3-2.7c-0.3-0.1-0.5-0.1-0.8-0.1c-4.4,0-8.8-0.1-13.2,0c-1.9-0.1-3.6,1.1-4.3,2.8c-2.6,6.1-5.1,12.3-7.7,18.4
	c-0.9,2.1,0.1,3.5,2.4,3.5L144.5,71.5z M50,66.1l8.1-19.4c-2.5,0-4.8,0-7.2,0c-0.5-0.1-0.9,0.2-1,0.7c-1.4,3.4-2.8,6.7-4.2,10.1
	c-1.5,3.5-3,7-4.4,10.6c-0.8,1.9,0.1,3.5,2.1,3.5c4.3,0,8.5,0.1,12.8,0c1.8,0,3.5-0.7,4.3-2.5c3.1-7.2,6.1-14.5,9.1-21.8
	c0.2-0.5,0.1-0.6-0.4-0.6c-2.1,0-4.2,0.1-6.3,0c-0.6-0.1-1.2,0.3-1.4,0.9c-2.5,6-5,11.9-7.4,17.9c-0.1,0.3-0.2,0.6-0.7,0.6
	C52.3,66.1,51.2,66.1,50,66.1L50,66.1z M35.5,54.8h7.6c0.2,0,0.3,0,0.4-0.2c0.8-1.7,1.5-3.4,2-5.2c0.4-1-0.2-2.2-1.3-2.5
	c-0.2-0.1-0.5-0.1-0.7-0.1c-4.4,0-8.9-0.1-13.3,0c-2,0-3.7,1.2-4.4,3.1c-0.9,2.2-1.8,4.4-2.8,6.6s-0.3,3.2,1.8,3.9s4.4,1.4,6.6,2.1
	c0.4,0.1,0.6,0.2,0.4,0.7c-0.4,0.8-0.7,1.7-1,2.5c0,0.2-0.2,0.4-0.5,0.4H27c0.3-0.8,0.6-1.6,1-2.3c0.2-0.4,0.1-0.5-0.3-0.5
	c-2.3,0-4.6,0-7,0c-0.3,0-0.5,0-0.6,0.3c-0.6,1.6-1.3,3.1-1.9,4.7c-0.5,1.1-0.1,2.4,1,2.9c0.4,0.2,0.8,0.3,1.2,0.2
	c4.3,0,8.5,0.1,12.7,0c2.1,0.1,4-1.2,4.6-3.2c0.7-2,1.7-4,2.5-6c0.8-2,0.3-3.3-1.8-4s-4.5-1.4-6.7-2.1c-0.4-0.1-0.6-0.3-0.3-0.7
	c0.4-0.9,0.8-1.8,1.2-2.8c0.1-0.3,0.3-0.4,0.6-0.4c1,0,2,0,2.9,0c0.4,0,0.4,0.1,0.3,0.4C36.1,53.4,35.8,54.1,35.5,54.8z M131.2,52.3
	c-0.3,0.7-0.6,1.4-0.8,2c-0.2,0.4-0.1,0.5,0.3,0.5h7c0.2,0,0.4,0,0.5-0.3c0.7-1.7,1.4-3.3,2-5c0.4-1.1-0.1-2.3-1.2-2.7
	c-0.3-0.1-0.6-0.2-0.9-0.1c-4.4,0-8.8-0.1-13.1,0c-2,0-3.8,1.2-4.5,3.2c-1.4,3.6-3,7.2-4.4,10.7c-1,2.5-2.1,5-3.1,7.5
	c-0.7,1.8,0.2,3.3,2.1,3.3c4.3,0,8.6,0.1,13,0c1.7,0.1,3.4-0.9,4.1-2.5c0.9-2,1.7-4.1,2.6-6.1c0.2-0.5,0.1-0.5-0.4-0.5
	c-2.3,0-4.5,0-6.8,0c-0.3,0-0.7,0.2-0.7,0.5c-0.4,0.9-0.8,1.8-1.1,2.7c-0.1,0.3-0.4,0.5-0.7,0.5c-0.9,0-1.8,0-2.7,0
	c-0.5,0-0.5-0.1-0.4-0.5c1.8-4.3,3.6-8.5,5.4-12.8c0.1-0.3,0.4-0.5,0.6-0.4C128.9,52.4,130,52.3,131.2,52.3L131.2,52.3z"/>
<path class="st2" d="M32.1,6L37,9.6c4,3,8,6,12.1,8.9c0.4,0.2,0.6,0.7,0.6,1.2c0,0.5,0,0.9-0.1,1.4c-0.2,0.7,0.1,1.4,0.8,1.7
	c3.8,2.8,7.6,5.6,11.4,8.5c0.2,0.1,0.3,0.2,0.5,0.4l-6,2.6c-2.2,0.9-4.4,1.9-6.7,2.9c-0.3,0.2-0.7,0.1-1-0.1c-2-1.5-3.9-3-5.9-4.4
	c-0.3-0.3-0.8-0.4-1.3-0.2c-1.5,0.7-2.7,0.2-3.9-0.8c-5-3.8-10.1-7.5-15.2-11.3l-0.6-0.4c0.1-0.3,0.4-0.3,0.6-0.4
	c2.7-1.1,5.4-2.2,8.1-3.2c0.4-0.1,0.7-0.5,0.7-0.9c0.3-2.9,0.5-5.8,0.8-8.7C31.9,6.4,31.9,6.2,32.1,6z"/>
<path class="st2" d="M155.2,108.1l-7.4-1.4c-5.6-1.1-11.3-2.1-16.9-3.2c-0.6-0.1-0.6-0.3-0.3-0.7c0.7-0.9,1.2-1.8,1.9-2.6
	c0.4-0.5,0.3-0.8-0.2-1.1c-5.4-4-10.8-7.9-16.1-11.9l-1-0.8l4.6-2c2.6-1.1,5.3-2.2,7.9-3.4c0.4-0.2,1-0.2,1.3,0.1
	c3.6,2.7,7.2,5.3,10.8,8c0.5,0.4,0.7,0.4,1.1-0.2c0.7-1,1.4-1.9,2.1-2.9c0.4-0.5,0.5-0.5,0.8,0.1c3.2,6.1,6.3,12.1,9.5,18.2
	L155.2,108.1z"/>
<path class="st3" d="M75.5,60.4c-0.4,0.9-0.7,1.6-1,2.2c-1.1,2.7-2.3,5.5-3.4,8.2c-0.1,0.4-0.5,0.7-0.9,0.6c-2.2,0-4.4,0-6.7,0
	c-0.5,0-0.7,0-0.5-0.6c3.3-7.9,6.6-15.8,9.9-23.7c0.1-0.3,0.4-0.6,0.8-0.5c2.2,0,4.5,0,6.7,0c0.5,0,0.6,0.2,0.7,0.6
	c0.6,3.5,1.2,7,1.8,10.5c0.3-0.1,0.3-0.4,0.3-0.6c1.2-2.8,2.3-5.6,3.5-8.4c0.2-0.5,0.2-0.7-0.4-0.8c-1.3-0.3-2.7-0.6-4-0.9
	c-0.1,0-0.2,0-0.2-0.2h13.1l-0.6,1.3c-3.1,7.6-6.3,15.1-9.4,22.7c-0.1,0.5-0.6,0.8-1.1,0.7c-2,0-4.1,0-6.1,0c-0.5,0-0.7-0.1-0.8-0.6
	C76.8,67.5,76.2,64.1,75.5,60.4z"/>
<path class="st3" d="M108.5,46.7h6.4c1.2-0.1,2.3,0.8,2.4,2c0,0.4,0,0.8-0.2,1.2c-0.8,2-1.6,3.9-2.4,5.9c-1.8,4.2-3.5,8.4-5.2,12.6
	c-0.7,1.9-2.5,3.2-4.5,3.1c-4.3,0.1-8.5,0-12.8,0c-2,0-3-1.5-2.1-3.5c1.7-4,3.3-8,5-12c0.8-2,1.7-4,2.5-6c0.7-2,2.5-3.3,4.6-3.2
	C104.2,46.7,106.4,46.8,108.5,46.7L108.5,46.7z M98.6,66.1c1.1,0,2.2,0,3.2,0c0.4,0,0.7-0.2,0.8-0.6c0.4-1,0.8-2,1.3-3
	c1.3-3.2,2.7-6.4,4-9.6c0.2-0.5,0.2-0.7-0.4-0.6c-0.8,0-1.6,0-2.4,0c-0.5-0.1-0.9,0.2-1,0.6c-1.1,2.8-2.3,5.5-3.4,8.3L98.6,66.1z"/>
<path class="st3" d="M144.5,71.5h-6.2c-2.2,0-3.2-1.4-2.4-3.5c2.5-6.2,5.1-12.3,7.7-18.4c0.7-1.7,2.4-2.9,4.3-2.8
	c4.4-0.1,8.8-0.1,13.2,0c1.2,0,2.1,0.9,2.2,2.1c0,0.3,0,0.5-0.1,0.8c-0.1,0.4-0.2,0.7-0.4,1.1c-2.5,5.9-5,11.8-7.4,17.7
	c-0.7,1.9-2.5,3.1-4.6,3.1C148.7,71.6,146.6,71.5,144.5,71.5z M144.6,66.1h1.3c0.8,0,1.8,0.3,2.4-0.1s0.7-1.4,1.1-2.2
	c1.5-3.6,3-7.2,4.5-10.9c0.2-0.5,0.2-0.7-0.4-0.6c-0.8,0-1.7,0-2.5,0c-0.4-0.1-0.8,0.2-0.9,0.6c-0.8,1.9-1.6,3.9-2.4,5.8L144.6,66.1
	z"/>
<path class="st3" d="M50,66.1c1.2,0,2.3,0,3.3,0c0.5,0,0.5-0.3,0.7-0.6c2.5-6,5-11.9,7.4-17.9c0.1-0.6,0.7-1,1.4-0.9
	c2.1,0.1,4.2,0,6.3,0c0.5,0,0.6,0.1,0.4,0.6c-3,7.2-6,14.5-9.1,21.7c-0.8,1.8-2.5,2.4-4.3,2.5c-4.3,0.1-8.5,0.1-12.8,0
	c-2,0-2.9-1.5-2.1-3.5c1.4-3.5,2.9-7.1,4.4-10.6c1.4-3.3,2.8-6.7,4.2-10.1c0.1-0.4,0.5-0.7,1-0.7c2.4,0,4.7,0,7.2,0L50,66.1z"/>
<path class="st3" d="M35.5,54.8c0.3-0.8,0.6-1.4,0.9-2.1c0.1-0.3,0.1-0.4-0.3-0.4c-1,0-2,0-2.9,0c-0.3,0-0.5,0.2-0.6,0.4
	c-0.4,0.9-0.7,1.8-1.2,2.8c-0.2,0.4-0.1,0.6,0.3,0.7c2.2,0.7,4.5,1.4,6.7,2.1s2.7,1.9,1.8,4c-0.9,2.1-1.8,4-2.5,6
	c-0.7,2-2.5,3.3-4.6,3.2c-4.2,0.1-8.5,0.1-12.7,0c-1.2,0.1-2.3-0.7-2.4-1.9c-0.1-0.4,0-0.8,0.2-1.2c0.6-1.6,1.3-3.2,1.9-4.7
	c0.1-0.3,0.3-0.3,0.6-0.3c2.3,0,4.6,0,7,0c0.4,0,0.5,0.1,0.3,0.5c-0.3,0.7-0.6,1.5-1,2.3h3.4c0.2,0,0.4-0.1,0.5-0.4
	c0.3-0.8,0.6-1.7,1-2.5c0.2-0.5,0-0.6-0.4-0.7c-2.2-0.7-4.4-1.4-6.6-2.1s-2.7-1.8-1.8-3.9s1.9-4.4,2.8-6.6c0.6-1.9,2.4-3.1,4.4-3.1
	c4.4-0.1,8.9-0.1,13.3,0c1.1-0.1,2,0.8,2.1,1.9c0,0.3,0,0.5-0.1,0.7c-0.6,1.8-1.2,3.5-2,5.2c-0.1,0.2-0.2,0.2-0.4,0.2H35.5z"/>
<path class="st3" d="M131.2,52.3c-1.2,0-2.2,0-3.3,0c-0.3,0-0.6,0.1-0.6,0.4c-1.8,4.3-3.6,8.6-5.4,12.8c-0.2,0.4-0.1,0.5,0.4,0.5
	c0.9,0,1.8,0,2.7,0c0.3,0.1,0.6-0.2,0.7-0.5c0.4-0.9,0.8-1.8,1.1-2.7c0.1-0.3,0.4-0.6,0.7-0.5c2.3,0,4.5,0,6.8,0
	c0.4,0,0.6,0,0.4,0.5c-0.9,2-1.6,4.1-2.6,6.1c-0.7,1.6-2.4,2.6-4.1,2.5c-4.3,0.1-8.6,0.1-13,0c-1.9,0-2.8-1.5-2.1-3.3
	c1-2.5,2.1-5,3.1-7.5c1.5-3.6,3-7.1,4.4-10.7c0.6-1.9,2.5-3.2,4.5-3.2c4.4-0.1,8.8-0.1,13.1,0c1.1-0.1,2.1,0.8,2.2,1.9
	c0,0.3,0,0.6-0.1,0.9c-0.6,1.7-1.3,3.3-2,5c-0.1,0.3-0.3,0.3-0.5,0.3h-7c-0.4,0-0.5-0.1-0.3-0.5C130.6,53.7,130.9,53.1,131.2,52.3z"
	/>
<path class="st1" d="M98.7,66.1l2-4.9c1.1-2.8,2.3-5.5,3.4-8.3c0.1-0.5,0.5-0.7,1-0.6c0.8,0,1.6,0,2.4,0c0.6,0,0.6,0.2,0.4,0.6
	c-1.4,3.2-2.7,6.4-4,9.6c-0.4,1-0.9,2-1.3,3c-0.1,0.4-0.4,0.6-0.8,0.6C100.9,66.1,99.8,66.1,98.7,66.1z"/>
<path class="st1" d="M144.7,66.1l3.1-7.4c0.8-1.9,1.6-3.9,2.4-5.8c0.1-0.4,0.5-0.6,0.9-0.6c0.8,0,1.7,0,2.5,0c0.6,0,0.6,0.2,0.4,0.6
	c-1.5,3.6-3,7.2-4.5,10.9c-0.3,0.8-0.4,1.8-1.1,2.2s-1.6,0.1-2.4,0.1L144.7,66.1z"/>
<path class="st0" d="M138.5,79.4c0.2,0,0.4,0,0.6,0c0.2,0,0.5,0,0.6,0.2c0.1,0.1,0.2,0.3,0.2,0.4c0,0.3-0.2,0.5-0.4,0.6l0,0
	c0.2,0.1,0.3,0.3,0.3,0.4c0,0.2,0.1,0.4,0.2,0.6h-0.3c-0.1-0.2-0.1-0.4-0.1-0.5c-0.1-0.3-0.2-0.4-0.4-0.4h-0.3v1h-0.3V79.4z
	 M138.8,80.4h0.3c0.3,0,0.5-0.2,0.5-0.4s-0.2-0.4-0.5-0.4c-0.1,0-0.2,0-0.3,0V80.4z"/>
</svg>
