<svg id="Layer_1" data-name="Layer 1" xmlns="http://www.w3.org/2000/svg" viewBox="0 0 250 250"><defs><style>.cls-1{fill:#f9e8a0;}.cls-2{fill:red;}.cls-3{fill:#414042;}</style></defs><title>Supercenter</title><path class="cls-1" d="M99.8,195.8V135.34s8-8,23.07-7.16,24.66,6.36,24.66,6.36V195H99.8Z"/><rect class="cls-2" x="48.1" y="109.09" width="19.89" height="85.11"/><rect class="cls-2" x="181.73" y="109.89" width="19.89" height="85.11"/><path class="cls-1" d="M47.3,40.68v68.41l154.32-1.59V40.68Zm88.3,40.57a3.42,3.42,0,0,1-3.18,3.18H118.89a3.42,3.42,0,0,1-3.18-3.18V61.36a3.42,3.42,0,0,1,3.18-3.18h13.52c1.59-.8,3.18.8,3.18,3.18Z"/><rect class="cls-3" x="118.1" y="111.48" width="13.52" height="80.34"/><rect class="cls-3" x="118.1" y="111.48" width="13.52" height="80.34"/><path class="cls-3" d="M118.1,57.39a3.42,3.42,0,0,0-3.18,3.18V80.45a3.42,3.42,0,0,0,3.18,3.18h13.52a3.42,3.42,0,0,0,3.18-3.18V61.36a3.42,3.42,0,0,0-3.18-3.18H118.1Zm10.34,20.68h-6.36V64.55h6.36Z"/><path class="cls-3" d="M48.1,98a3.42,3.42,0,0,0,3.18-3.18V43.86h148V94a3.18,3.18,0,1,0,6.36,0V40.68a3.42,3.42,0,0,0-3.18-3.18H48.1c-2.39,0-4,1.59-4,3.18V94.77C44.12,96.36,45.71,98,48.1,98Z"/><path class="cls-3" d="M118.1,57.39a3.42,3.42,0,0,0-3.18,3.18V80.45a3.42,3.42,0,0,0,3.18,3.18h13.52a3.42,3.42,0,0,0,3.18-3.18V61.36a3.42,3.42,0,0,0-3.18-3.18H118.1Zm10.34,20.68h-6.36V64.55h6.36Z"/><path class="cls-3" d="M222.3,205.34H27.42a3.42,3.42,0,0,0-3.18,3.18c0,2.39,1.59,4,3.18,4H222.3a3.42,3.42,0,0,0,3.18-3.18C226.28,206.93,224.69,205.34,222.3,205.34Z"/><path class="cls-3" d="M148.33,185.45a3.42,3.42,0,0,0,3.18-3.18V135.34a2.92,2.92,0,0,0-.8-2.39s-8-8-26.25-8S99,132.16,98.21,133a2.92,2.92,0,0,0-.8,2.39v46.93a3.18,3.18,0,1,0,6.36,0V136.93c2.39-1.59,7.16-4,16.7-4.77v33.41a3.18,3.18,0,1,0,0,6.36v10.34a3.18,3.18,0,0,0,6.36,0V171.93a3.18,3.18,0,0,0,0-6.36V132.16c9.55.8,15.11,3.18,16.7,4.77v45.34C145.14,183.86,146.73,185.45,148.33,185.45Z"/><path class="cls-3" d="M84.69,195.8A3.42,3.42,0,0,0,87.87,199h74a3.18,3.18,0,0,0,0-6.36h-74C86.28,191.82,84.69,193.41,84.69,195.8Z"/><path class="cls-3" d="M40.94,191.82a3.18,3.18,0,1,0,0,6.36H74.35a3.18,3.18,0,1,0,0-6.36H71.17V111.48H178.55v80.34h-3.18a3.18,3.18,0,0,0,0,6.36h33.41a3.18,3.18,0,1,0,0-6.36H205.6V111.48h3.18a3.18,3.18,0,1,0,0-6.36H40.94a3.18,3.18,0,1,0,0,6.36h3.18v80.34Zm144.77-80.34h13.52v80.34H185.71Zm-134.43,0H64.8v80.34H51.28Z"/><path class="cls-3" d="M118.1,57.39a3.42,3.42,0,0,0-3.18,3.18V80.45a3.42,3.42,0,0,0,3.18,3.18h13.52a3.42,3.42,0,0,0,3.18-3.18V61.36a3.42,3.42,0,0,0-3.18-3.18H118.1Zm10.34,20.68h-6.36V64.55h6.36Z"/><path class="cls-3" d="M131.62,57.39H118.1a3.42,3.42,0,0,0-3.18,3.18V80.45a3.42,3.42,0,0,0,3.18,3.18h13.52a3.42,3.42,0,0,0,3.18-3.18V61.36C135.6,59,134,57.39,131.62,57.39Zm-3.18,20.68h-6.36V64.55h6.36Z"/></svg>