<?xml version="1.0" encoding="utf-8"?>
<!-- Generator: Adobe Illustrator 21.1.0, SVG Export Plug-In . SVG Version: 6.00 Build 0)  -->
<svg version="1.1" id="Layer_1" xmlns="http://www.w3.org/2000/svg" xmlns:xlink="http://www.w3.org/1999/xlink" x="0px" y="0px"
	 viewBox="0 0 216.8 92" style="enable-background:new 0 0 216.8 92;" xml:space="preserve">
<style type="text/css">
	.st0{fill:#FEFDFD;}
	.st1{fill:#E93935;}
	.st2{fill:#2EAF57;}
	.st3{fill:#252122;}
	.st4{fill:#262223;}
	.st5{fill:#E93B37;}
	.st6{fill:#272324;}
	.st7{fill:#292526;}
	.st8{fill:#282425;}
	.st9{fill:#343031;}
	.st10{fill:#FBFBFB;}
	.st11{fill:#FAFAFA;}
	.st12{fill:#F5F5F5;}
</style>
<title>Fast Casual</title>
<path class="st0" d="M188,31.9l0.4-1.6c1.3,0,2.6,0.2,3.8,0.4c8.3,1.7,14.7,8.3,16.1,16.7c0.6,4.2,0.1,8.4-1.5,12.3
	c-3.7,9.8-10,17.3-19.4,21.9c-6.2,3-12.8,4.1-19.6,4.6c-3.4,0.3-6.8,0-10.2-0.9c-0.4-0.1-0.8-0.2-1.2-0.2c-0.4-0.1-0.8,0.1-1,0.4
	c-0.2,0.4,0,0.7,0.2,1c0.6,0.8,1.5,1.4,2.5,1.5c1.7,0.3,3.4,0.6,5.1,0.8c2.6,0.5,5.2,0.8,7.8,1c6.9,0.3,13.7-0.6,20.3-2.6
	c5.9-1.8,11.2-4.5,15.2-9.3c6.5-7.6,10-16.6,9.7-26.6c0-7.6-4-14.6-10.6-18.5c-3.8-2.3-8-3.9-12.4-4.6c-1.4-0.4-2.9-0.5-4.4-0.5
	c0.6-3,1.5-6,2.7-8.8c0.7-1.3,1-2.8,0.9-4.3c-0.1-0.7-0.3-0.8-0.9-0.5c-0.5,0.3-0.9,0.7-1.1,1.2c-1.6,2.6-2.8,5.3-3.8,8.2
	c-0.1,0.3-0.3,0.7-0.4,1c-0.1,0.2-0.2,0.4-0.4,0.3s-0.1-0.3-0.1-0.4c0.1-1.2,0.1-2.4,0.2-3.7c0.2-2.5,0.8-4.9,0.8-7.4
	c0-1.3,0.3-2.5,0.8-3.6c0.2-0.4,0.4-0.9,0.5-1.3c0.8-2.9-0.9-4.8-3.9-4.5c-0.6,0.1-1.2,0.2-1.8,0.3c-1.4,0.3-2.5,1.4-2.7,2.9
	c-0.2,1-0.4,2-0.7,3c-0.4,2.2-0.6,4.3-0.7,6.5c-0.2,2.5-0.8,4.9-0.6,7.4c0,0.3,0,0.6-0.1,0.8c-0.2-0.6-0.4-1.1-0.5-1.7
	c-0.8-4.3-0.9-8.7-1.4-13c-0.2-2.8-1-5.6-2.1-8.2c-0.3-1.1-1.5-1.6-2.5-1.3c-0.1,0-0.1,0-0.2,0.1c-0.6,0.1-1.1,0.4-1.6,0.7
	c-1.4,1-2.5,2.2-3.4,3.6c-0.3,0.4-0.3,1-0.2,1.4c0.4,1.2,1,2.3,1.8,3.3c0.8,0.9,1.3,2,1.4,3.2c0.2,4.6,1.6,9.1,2.2,13.6
	c-3.3-0.5-6.7-0.7-10.1-0.7c-5.6,0-11.1,1.7-15.9,4.7c-5.6,3.5-9,8.7-11.5,14.7c-0.3,0.6,0.1,0.6,0.5,0.6c2.7,0,5.4,0,8.2,0
	c0.5,0,1-0.2,1.2-0.7c4-5.7,9.9-10,16.6-12c5.1-1.5,10.5-2,15.8-1.3c5.5,0.7,10.9,2.1,16,4.4c0.5,0.2,1,0.4,1.5,0.4
	c0.6,0,0.8-0.2,0.6-0.8c-0.4-0.9-1.1-1.6-1.9-2C190.7,33,189.4,32.4,188,31.9z M33.1,39c1,0,2,0,3-0.2c3-0.3,6-1.3,8.5-3
	c1.5-0.9,2.6-2.3,3.2-4c1.2-3.7-0.8-6.7-4.6-7.2c-2.8-0.3-5.6,0.1-8.4,0.3c-1.7,0.2-3.4,0.1-5.1-0.2c-1.8-0.5-2.5-1.8-1.8-3.6
	c0.6-1.3,1.4-2.5,2.5-3.5c1.1-1,2.5-1.5,4-1.3c1,0.1,2,0.2,3,0.1c0.7,0,1.3-0.4,1.6-1c0.5-1.2,0.3-2.6-0.5-3.7
	c-0.6-1-1.6-0.8-2.5-0.7c-6.2,1-9.8,4-11.4,9.8c-0.5,1.7-0.3,3.5,0.4,5.1c0.6,1.5,1.8,2.5,3.3,2.8c1.3,0.2,2.7,0.2,4,0.1
	c3.3-0.5,6.7-0.5,10,0.1c0.7,0,1.4,0.5,1.6,1.2c0.2,0.7,0,1.5-0.6,2.1c-0.8,0.8-1.7,1.4-2.8,1.8c-2.5,1-5.1,1.5-7.8,1.5
	c-2,0.2-4-0.4-5.6-1.5c-1-0.7-2.2-1.1-3.4-1c-0.6,0-1.2,0.1-1.5,0.8c-0.3,0.7-0.2,1.4,0.3,2c0.5,0.5,1.1,1,1.7,1.3
	C27.1,38.4,30.1,39,33.1,39z M62.5,60.4c-0.1,0.9-0.1,1.8,0.1,2.7c0.1,0.7,0.6,1.2,1.3,1.3c1.3,0.2,2.5-0.7,2.7-1.9
	c0-0.1,0-0.2,0-0.3c0.4-3.6-0.5-7.2-2.5-10.2c-0.7-1-1.9-1.4-3.1-1.1c-1,0.2-2,0.6-2.8,1.3c-1.1,0.7-2.2,1.5-3.3,2.3
	c-1.9,1.2-2.3,1.1-3.4-0.9c-0.8-1.5-1.7-2.9-2.8-4.2c-1-1.3-2.6-1.9-4.3-1.8c-1,0-1.9,0.8-2,1.8c-0.6,3.3-1.4,6.6-2.4,9.8
	c-0.8,2.6-1.4,5.2-1.6,7.9c-0.1,1.7,0.7,2.6,2.3,2.4c0.6-0.1,1.1-0.4,1.4-0.8c0.4-0.5,0.7-1.1,0.9-1.8c0.6-2.6,1-5.2,1.1-7.8
	c0.1-1.4,0.3-2.8,0.7-4.1c0.4-1.1,0.9-1.3,1.9-0.7c0.7,0.5,1.3,1.1,1.7,1.9c0.5,0.9,1,1.8,1.6,2.6c0.8,1,2.1,1.4,3.3,1
	c1.2-0.4,2.2-1,3.1-1.8c0.8-0.7,1.6-1.4,2.4-2c1.7-1.1,3.2-0.4,3.5,1.6C62.6,58.5,62.6,59.4,62.5,60.4L62.5,60.4z M10.9,59.2
	c0,2.3,0,4.5,0,6.8c0,1.4,0.1,2.9,0.5,4.3c0.1,0.5,0.3,0.9,0.7,1.2c1.2,0.8,2.3,0.6,2.8-0.8c0.5-1.5,0.7-3,0.6-4.6
	c0-4.6-0.5-9.2-0.8-13.8c-0.1-1.6-0.1-3.3,0.2-4.9c0.1-0.8,0.7-1.5,1.5-1.8c1-0.3,2-0.5,3-0.6c1.2-0.1,2.3-0.3,3.5-0.6
	c0.7-0.3,1.2-1,1.2-1.8c-0.1-0.8-0.6-1.1-1.3-1.3c-0.6-0.2-1.3-0.4-2-0.4c-5.3-0.4-10.6,0.1-15.9,0.5c-1.3,0.1-2.5,0.4-3.6,1
	c-0.6,0.3-0.9,1-0.6,1.6c0.1,0.1,0.1,0.3,0.2,0.4C1.2,44.7,1.6,45,2,45.2c0.6,0.3,1.3,0.4,2,0.3c1.3,0,2.5-0.1,3.8-0.1
	c1.1-0.1,2.1,0.6,2.4,1.7c0.5,1.3,0.7,2.7,0.8,4.1C11.2,53.8,11.2,56.5,10.9,59.2L10.9,59.2z M77.5,22.7c0-1.4-0.4-2.1-1.3-2.3
	s-1.4,0.2-1.9,1.1c-0.2,0.4-0.4,0.9-0.5,1.3c-0.2,1-0.3,2.1-0.3,3.2c0,1.4-0.1,2.9-0.5,4.3c-0.1,0.5-0.5,0.8-1,0.7c0,0,0,0,0,0
	c-1.1-0.2-2.2-0.8-2.9-1.7c-0.8-0.8-1.4-1.7-2.3-2.4c-1-1-2.7-1-3.7,0c0,0-0.1,0.1-0.1,0.1c-0.6,0.7-1.2,1.4-1.6,2.3
	c-0.4,0.8-0.9,1.5-1.5,2.2c-0.2,0.4-0.7,0.5-1.1,0.2c-0.1,0-0.1-0.1-0.2-0.2c-0.6-0.5-1.1-1.2-1.4-1.9c-0.8-1.5-1.5-2.9-2.3-4.4
	c-0.8-1.7-1.8-3.2-3.1-4.6c-0.5-0.6-1.2-1-2-1.1c-0.6-0.1-1.2-0.2-1.6,0.3s0,1,0.2,1.5c0.6,1,1.3,2,2.1,2.8c1.5,1.7,2.7,3.6,3.4,5.8
	c0.4,1.4,1,2.7,1.7,4c0.4,0.8,0.9,1.5,1.5,2.2c0.8,1,2.3,1.1,3.3,0.3c0.9-0.6,1.6-1.4,2.1-2.4c0.2-0.5,0.5-1.1,0.8-1.6
	c0.4-1,1.5-1.4,2.5-1c0.2,0.1,0.4,0.2,0.5,0.3c0.8,0.6,1.4,1.3,2,2.1c0.7,0.9,1.4,1.8,2.2,2.7c1.1,1.1,2.8,1.3,4.1,0.3
	c1-0.7,1.7-1.9,1.9-3.1C77.3,30,76.6,26.1,77.5,22.7L77.5,22.7z M128,38.4c-0.1,0.7,0.1,1.4,0.6,1.9c0.8,0.6,1.9,0.6,2.8,0
	c0.8-0.4,1.3-1.3,1.1-2.3c-0.3-1.9-0.8-3.7-1.3-5.5c-0.9-3.1-1.5-6.3-2-9.4c-0.3-1,0.3-2.1,1.3-2.4c1-0.4,2-0.7,3-0.9
	c1-0.1,2.1-0.4,3-0.9c0.6-0.3,0.9-1.1,0.7-1.7c-0.2-0.6-0.7-1-1.3-1c-0.5,0-0.9,0-1.4,0.1c-1.4,0.3-2.7,0.8-4.1,1
	c-2.1,0.4-2.3,0.1-2.7-1.9c-0.3-1.3-0.3-2.7-0.6-4c-0.1-1.1-1.1-1.9-2.2-1.8c-0.2,0-0.3,0.1-0.5,0.1c-1.6,0.4-2.2,1.3-1.8,2.8
	c0.2,0.5,0.3,1,0.5,1.5c0.3,0.7,0.5,1.4,0.6,2.1c0.2,1.1-0.5,2.2-1.6,2.4c-0.1,0-0.2,0-0.3,0c-0.8,0.1-1.6,0.1-2.5,0.1
	c-1.4,0-2.9,0.5-4,1.3c-0.5,0.4-1.1,0.8-1,1.5s0.8,1.1,1.4,1.3c0.3,0.1,0.6,0.2,0.9,0.2c1,0.1,2-0.1,2.9-0.5c1-0.4,2-0.7,3-0.9
	c0.9-0.2,1.9,0.2,2.4,1c0.5,0.7,0.8,1.4,1,2.3C127.3,29.4,128,33.9,128,38.4L128,38.4z M97.4,51.7c0.7,0,0.7,0,1.1,0.8
	c0.6,1.1,0.9,2.4,1.1,3.7c0.5,4.8,0.4,9.6-0.4,14.3c-0.2,0.9-0.3,1.9-0.1,2.8c0.2,0.9,1,1.5,1.9,1.3c0.2,0,0.4-0.1,0.6-0.2
	c0.6-0.3,1.1-0.9,1.3-1.6c0.4-1.1,0.6-2.3,0.6-3.4c0-3.7-0.1-7.3-0.6-10.9c-0.3-2.2-0.3-4.4-0.2-6.6c0-0.6,0.4-1.1,1-1.2
	c0.9-0.2,1.8-0.4,2.8-0.5c0.4,0,0.8-0.1,0.9-0.6c0.1-0.5-0.2-0.9-0.6-1.1c-0.4-0.2-0.8-0.3-1.3-0.4l-2.5-0.3c-1.1-0.1-2-0.9-2.2-2
	c-0.1-0.6-0.2-1.3-0.3-1.9c0-0.9-0.2-1.8-0.6-2.6c-0.5-0.8-1.4-1.1-2.2-0.8c-0.8,0.3-0.7,1-0.7,1.6c0,0.3,0.1,0.5,0.1,0.8
	c0.1,0.9,0.3,1.8,0.4,2.8c0.2,1.3-0.7,2.6-2,2.8c-0.5,0.2-1.1,0.3-1.6,0.4c-1.3,0.1-2.6,0.4-3.9,0.8c-0.5,0.2-0.8,0.6-0.8,1.2
	c0,0.6,0.4,0.8,0.8,1c0.9,0.3,1.9,0.5,2.8,0.4C94.4,52,95.8,51.9,97.4,51.7L97.4,51.7z M81.5,29c0,0.9,0.1,1.8,0.3,2.7
	c0.6,2.7,1.8,4.9,4.6,5.9c2.2,1,4.7,1.1,7,0.4c1.2-0.4,2.2-1.3,2.7-2.5c0.3-0.6,0.1-1.3-0.4-1.7c-0.5-0.4-1,0-1.4,0.3
	s-0.7,0.6-1,0.9c-1.8,1.4-4.5,1.1-5.9-0.7c-0.4-0.5-0.6-1-0.8-1.6c-0.2-1.1-0.1-1.4,1-1.7s2.3-0.6,3.4-0.9c2.4-0.6,4.2-2.5,4.5-4.9
	c0.5-2-0.5-4.2-2.4-5.1c-1.1-0.5-2.4-0.7-3.7-0.5C84.8,20.3,81.5,24.3,81.5,29z M79.8,49.4c-1.5,0.1-2.9,0.9-3.6,2.3
	c-2.1,3.6-3.9,7.5-5.4,11.5c-0.2,0.6-0.4,1.2-0.4,1.9c0,0.8,0.3,1.1,1.1,1.2c1,0.2,2-0.4,2.3-1.4c0.3-0.6,0.4-1.3,0.7-1.9
	c0.2-0.6,0.5-1.1,1.1-1.4c2.5-1.2,5.1-2,7.7-2.5c0.6-0.1,1.1,0.1,1.4,0.6c0.7,1,1.3,2,1.8,3.1c0.4,0.8,1,1.6,1.7,2.2
	c0.5,0.5,1.2,0.5,1.7,0c0.5-0.4,0.8-1,0.8-1.7c-0.1-1-0.4-1.9-1-2.7c-1-1.6-1.9-3.2-2.6-4.9c-0.5-1.3-1.2-2.6-2-3.7
	C83.8,50.4,81.9,49.4,79.8,49.4L79.8,49.4z M110.1,37.4c0.6-0.1,1.1-0.1,1.6-0.1c1.3-0.1,2.6-0.7,3.4-1.7c0.4-0.6,0.9-1.4,0.4-2
	s-1.3-0.1-1.9,0.2l-0.1,0.1c-1.8,0.9-3.9,1-5.8,0.1c-1.2-0.5-1.4-1.5-0.7-2.6c0.5-0.6,1.2-1.2,2-1.5c1-0.4,1.9-0.9,2.8-1.5
	c0.5-0.3,0.9-0.8,1.1-1.3c0.5-1.6-0.5-4.4-2-5.1c-2-1.2-4.5-1.2-6.5,0c-3.9,2.5-6,7.8-2.7,12.6c0.5,0.7,1.1,1.2,1.9,1.6
	C105.6,37,107.8,37.4,110.1,37.4L110.1,37.4z M135.5,64.6c0.5,0,1-0.1,1.5-0.1c1.6-0.1,3-0.9,3.9-2.3c0.5-0.8,0.3-1.1-0.6-1.2
	c-0.9,0-1.8,0.2-2.5,0.6c-2.1,1-4.5,0.7-6.4-0.7c-1-0.7-1-1.4,0-2.1c0.8-0.4,1.6-0.8,2.5-1c1.5-0.3,2.9-0.8,4.2-1.5
	c1.4-0.7,2.3-2.1,2.3-3.6c0-1.6-1.1-2.4-2.4-3.1c-0.3-0.1-0.7-0.3-1.1-0.4c-4.1-1.2-8.5,1.4-10.4,3.8c-2.2,2.9-1.1,8.7,2.8,10.1
	C131.3,64.1,133.4,64.6,135.5,64.6L135.5,64.6z M27.2,53.2c-0.6,0-1.2,0-1.8,0.2c-4.4,0.8-6.7,6.3-3.6,9.8c1.7,2.1,4.2,3.2,6.9,3.2
	c2.6-0.1,4.9-1.7,5.7-4.2c1-2.4,0.5-5.2-1.4-7C31.3,53.8,29.3,53.1,27.2,53.2z M108.6,60c0,1.2,0.3,2.4,1,3.4
	c1.5,2.2,4.9,3.1,7.7,1.9c3-1.4,4.9-4.4,4.7-7.7c-0.1-2.9-1.6-4.6-4.2-5c-1-0.1-1.9-0.1-2.9,0.1C110.3,53.3,108.8,56.6,108.6,60z
	 M148.2,66.8h0.6c4-0.1,6-2.7,5-6.6c-0.4-2.2-1.7-4.1-3.6-5.4c-0.4-0.2-0.7-0.5-1.1-0.9c-1.2-1-1.4-2.8-0.4-4.1
	c0.3-0.3,0.6-0.6,0.9-0.7c0.7-0.4,1.5-0.7,2.3-1c0.8-0.2,1.6-0.6,2.3-1.2c0.5-0.5,0.9-1,0.4-1.7c-0.3-0.6-0.9-0.6-1.7-0.2
	c-1,0.5-2,1-2.9,1.4c-1.2,0.5-2.4,1.2-3.5,1.9c-2.4,1.8-3.3,4.1-0.9,6.8c1.1,1.3,2.2,2.5,3.3,3.7c0.6,0.6,1.1,1.4,1.4,2.2
	c0.5,1.1,0,2.3-1.1,2.8c-0.4,0.2-0.9,0.3-1.4,0.4c-1,0.1-1.9,0.2-2.9,0.4c-0.3,0.1-0.7,0.2-0.7,0.6s0.3,0.6,0.6,0.7
	C145.9,66.6,147,66.8,148.2,66.8L148.2,66.8z M134,67.7c0.1,0.1,0.1,0.3,0.2,0.4c0.2,0.3,0.4,0.6,0.6,0.9c1.9,2.4,4.1,4.6,6.5,6.5
	c2.7,2.3,5.8,4,9.2,5.1c1.3,0.4,2.4,1.2,3.2,2.3c0.2,0.3,0.4,0.2,0.6,0.2c1.2-0.2,1.7-1.2,2.3-2.1c0.3-0.3,0.3-0.7,0.1-1
	c-0.2-0.3-0.6-0.4-0.9-0.3c-0.7,0.2-1.5,0.1-2.2-0.2c-5.7-2.3-10.5-5.7-13.3-11.4c-0.1-0.3-0.3-0.5-0.6-0.5
	C137.8,67.7,135.9,67.7,134,67.7L134,67.7z M34.3,80.4L34.3,80.4c0,0.5,0,0.9,0,1.4c0,1.1,0,1.1-1.1,0.9c-1.5-0.2-3,0.8-3.3,2.4
	c-0.5,1.6,0.4,3.3,2,3.8c1.3,0.4,2.7,0.2,3.9-0.4c0.3-0.1,0.3-0.3,0.3-0.6c0-3.2-0.1-6.3,0-9.5c0-0.1,0.1-0.4-0.1-0.4
	c-0.6-0.1-1.2-0.1-1.7,0.1c-0.4,0.1-0.2,0.6-0.2,0.8C34.2,79.4,34.3,80,34.3,80.4z M100.1,83c0-1.4,0-2.8,0-4.1c0-1.1,0-1.2-1.1-1
	c-0.2,0-0.3,0.1-0.5,0.1c-0.4,0-0.4,0.2-0.4,0.5c0.2,2.8,0,5.6,0.1,8.3c0,0.5-0.4,1.2,0.2,1.6c0.5,0.3,1.1,0.5,1.6,0.6
	c0.5,0.1,1,0.1,1.5,0c1.5-0.2,2.7-1.3,2.9-2.8c0.3-1.5-0.5-2.9-1.9-3.4C101.8,82.6,100.9,82.7,100.1,83z M114.7,86.1
	c0.7,0.8,1.2,1.4,1.8,2.1c0.9,1.1,0.9,1.1,2.1,0.3h0.1c0.3-0.1,0.3-0.3,0.1-0.5c-0.6-0.6-1.1-1.2-1.6-1.8c-0.4-0.4-0.4-0.6,0-1
	s1-0.9,1.6-1.4c-0.2-0.2-0.4-0.3-0.5-0.5c-0.5-0.6-0.9-0.6-1.5,0.1c-0.5,0.7-1.2,1.3-1.9,1.8c0-2.2,0-4.4,0-6.6
	c0-0.2,0.1-0.6-0.1-0.7c-0.5-0.1-1.1-0.1-1.6,0.1c-0.4,0.1-0.2,0.5-0.2,0.8c0.1,2.9,0.1,5.9,0.1,8.8c0,1.4,0,1.4,1.4,1.3
	c0.4,0,0.5-0.1,0.5-0.6C114.6,87.7,114.7,87,114.7,86.1L114.7,86.1z M76,88.8l0.6,0.1c1.6,0.5,3.3-0.4,3.7-2c0-0.1,0-0.2,0.1-0.2
	c0.5-1.6-0.4-3.3-2-3.8c-0.1,0-0.1,0-0.2-0.1c-1.3-0.3-2.6-0.1-3.7,0.5c-0.2,0.1-0.3,0.1-0.3,0.4c0.1,2.2,0.1,4.3,0,6.5
	c0,1.4,0,1.3,1.3,1.4c0.4,0,0.5-0.1,0.5-0.5C76,90.3,76,89.6,76,88.8z M62.4,82.6c-1.8,0-3.3,1.4-3.3,3.2c0,1.8,1.4,3.3,3.2,3.3l0,0
	c1.8,0.1,3.3-1.2,3.5-3c0-0.1,0-0.2,0-0.3c0-1.8-1.4-3.2-3.2-3.2C62.5,82.6,62.5,82.6,62.4,82.6L62.4,82.6z M72.7,85.6
	c0-0.6,0-1.1,0-1.6c0-1.3,0-1.3-1.3-1.3c-0.5,0-0.6,0.1-0.6,0.6c0,1,0,1.9,0,2.9c0.1,0.6-0.4,1.1-1,1.2c-0.1,0-0.1,0-0.2,0
	c-0.8,0-0.9-0.6-0.9-1.1s0-1.4,0-2.2c0-1.5,0-1.5-1.5-1.4h-0.1c-0.3,0-0.4,0.1-0.4,0.4c0,1.1,0,2.2,0,3.4c0.1,2.2,1.8,3.2,3.8,2.2
	c0.1-0.1,0.3-0.3,0.4-0.1c0.4,0.9,1,0.1,1.5,0.2c0.2,0,0.4-0.1,0.3-0.5C72.7,87.5,72.7,86.6,72.7,85.6L72.7,85.6z M16.4,85
	c-0.9-0.3-1.8-0.3-2.7,0.1c-1.1,0.4-1.6,1.7-1.1,2.7c0.2,0.5,0.6,0.9,1.1,1.1c0.8,0.3,1.7,0.3,2.5,0c0.2-0.1,0.4-0.3,0.5-0.1
	c0.5,0.9,1.1,0,1.6,0.1c0.2,0,0.2-0.1,0.2-0.4c-0.2-1.3-0.3-2.7-0.3-4.1c0-0.8-0.6-1.5-1.3-1.7c-1-0.3-2.1-0.2-3.2,0.1
	c-0.4,0.1-0.8,0.1-0.5,0.7s0.3,0.9,0.9,0.5c0.3-0.1,0.6-0.2,0.9-0.3C15.8,83.7,16.1,84,16.4,85z M109.3,85c-0.8-0.3-1.8-0.2-2.6,0.1
	c-0.8,0.3-1.4,1.1-1.3,2c0,0.9,0.6,1.7,1.5,1.9c0.7,0.2,1.5,0.2,2.3-0.1c0.1-0.1,0.3-0.3,0.4-0.1c0.4,0.9,1,0.1,1.6,0.1
	c0.2,0,0.3-0.1,0.2-0.4c-0.2-1.3-0.3-2.6-0.3-3.9c0.1-0.9-0.5-1.6-1.4-1.8c-1.1-0.3-2.3-0.2-3.4,0.1c-0.3,0.1-0.4,0.2-0.3,0.6
	c0.2,0.5,0.3,1,1,0.5c0.3-0.2,0.7-0.2,1-0.2C108.8,83.7,109.2,84.1,109.3,85L109.3,85z M26.8,85c-0.8-0.3-1.8-0.3-2.6,0.1
	c-0.8,0.3-1.4,1.1-1.3,2c0,0.9,0.6,1.7,1.4,1.9c0.8,0.3,1.6,0.2,2.3-0.1c0.2-0.1,0.3-0.3,0.5-0.1c0.5,0.9,1.1,0,1.7,0.1
	c0.1,0,0.1-0.2,0.1-0.3c-0.3-1.3-0.3-2.7-0.3-4c0-0.7-0.4-1.4-1.1-1.7c-1.2-0.4-2.5-0.4-3.7,0.1c-0.3,0.1-0.4,0.2-0.2,0.5
	c0.2,0.4,0.2,1.1,1,0.6c0.3-0.2,0.7-0.3,1.1-0.2c0.6-0.1,1.1,0.3,1.2,0.9C26.8,84.8,26.9,84.9,26.8,85z M123.4,86.4h1.8
	c0.5,0,0.7-0.2,0.7-0.7c0.1-1.7-1.2-3.1-2.8-3.2c-0.4,0-0.8,0-1.2,0.2c-1.2,0.4-2.1,1.5-2.2,2.7c-0.2,1.3,0.4,2.6,1.5,3.3
	c1.3,0.6,2.8,0.5,4-0.2c0.1-0.1,0.3-0.2,0.2-0.4c-0.4-0.3-0.5-1-1.3-0.6c-0.9,0.4-1.9,0.2-2.5-0.5c-0.2-0.4-0.2-0.6,0.3-0.6
	S122.9,86.4,123.4,86.4L123.4,86.4z M135.3,86.4c-0.5-1-0.9-1.8-1.2-2.6c-0.6-1.2-0.5-1.2-1.8-0.7c-0.5,0.2-0.5,0.4-0.3,0.8
	c0.6,1.3,1.3,2.5,2.1,3.7c0.2,0.3,0.2,0.7,0,0.9c-0.5,0.6-1,1.2-1.6,1.8c-0.1,0.1-0.4,0.2-0.3,0.4c0.3,0.6,1,0.9,1.6,0.6
	c0,0,0.1,0,0.1-0.1c2-2.2,3.5-4.9,4.4-7.8c0.1-0.3,0-0.3-0.2-0.4c-0.3-0.1-0.5-0.2-0.8-0.3c-0.5-0.3-0.7-0.1-0.8,0.4
	C136.2,84.3,135.8,85.3,135.3,86.4L135.3,86.4z M21.7,83.5L21.7,83.5c0-1.6,0-3.3,0-5c0-0.6-0.2-0.8-0.7-0.6s-1.3-0.2-1.3,0.8
	c0,3,0,6,0.1,8.9c0,1.3,0,1.3,1.3,1.3c0.5,0,0.7-0.2,0.6-0.7C21.7,86.6,21.7,85.1,21.7,83.5z M55.9,89.1c1.1,0.1,2.2-0.7,2.4-1.8
	c0.2-1.1-0.4-1.8-1.7-2.2c-0.2-0.1-0.5-0.1-0.7-0.2c-0.2-0.1-0.4-0.2-0.4-0.5s0.3-0.3,0.6-0.3c0.4,0,0.8,0.1,1.2,0.4
	c0.5,0.3,0.5-0.2,0.7-0.4s0.5-0.4,0.1-0.7c-1.1-0.8-2.6-0.7-3.7,0.1c-0.8,0.7-0.8,1.8-0.2,2.6c0.2,0.2,0.4,0.3,0.6,0.4
	c0.4,0.2,0.8,0.3,1.3,0.5c0.3,0.1,0.5,0.3,0.4,0.6c-0.1,0.3-0.3,0.4-0.6,0.4c-0.4,0-0.8-0.1-1.1-0.4c-0.3-0.2-0.4-0.2-0.6,0.1
	c-0.5,0.9-0.5,0.9,0.4,1.3C55,89,55.4,89.1,55.9,89.1z M39.5,89.1c1.1,0.1,2.1-0.6,2.4-1.7c0.2-1.1-0.4-1.9-1.7-2.3
	c-0.2-0.1-0.5-0.1-0.7-0.2c-0.2-0.1-0.4-0.3-0.3-0.6s0.3-0.3,0.5-0.3c0.4,0,0.8,0.1,1.2,0.4c0.3,0.2,0.4,0.1,0.6-0.1
	c0.5-0.8,0.5-0.9-0.4-1.3c-0.6-0.2-1.2-0.3-1.8-0.3c-1,0.1-1.8,0.9-1.9,1.9c-0.1,0.9,0.3,1.4,1.4,1.9l1,0.4c0.2,0.1,0.4,0.3,0.3,0.5
	c0,0.3-0.3,0.4-0.5,0.4c-0.4,0.1-0.9-0.1-1.2-0.3c-0.4-0.3-0.5-0.2-0.7,0.2c-0.5,0.8-0.5,0.9,0.4,1.3C38.6,89,39.1,89.1,39.5,89.1
	L39.5,89.1z M86,83.4c-0.7-0.5-1.6-0.8-2.6-0.7c-1,0.1-1.7,0.8-1.9,1.8c-0.1,1,0.3,1.6,1.4,2l1,0.4c0.2,0.1,0.4,0.3,0.3,0.5
	c0,0.3-0.2,0.4-0.4,0.4c-0.5,0.1-0.9,0-1.3-0.3c-0.4-0.3-0.5-0.2-0.7,0.2c-0.5,0.8-0.4,0.9,0.4,1.3c0.5,0.2,1,0.3,1.6,0.3
	c1,0,2-0.7,2.2-1.8c0.1-1.1-0.6-2-1.6-2.2c-0.4-0.2-1.3-0.1-1.1-0.8s1-0.3,1.5,0s0.7,0.2,0.9-0.3C85.7,83.8,85.9,83.6,86,83.4z
	 M9,89.1c1.2,0.1,2.2-0.7,2.4-1.8c0.2-1-0.5-1.8-1.7-2.2C9.4,85,9.2,84.9,9,84.8c-0.2-0.1-0.4-0.3-0.4-0.5s0.3-0.3,0.6-0.3
	c0.4,0,0.8,0.2,1.2,0.4c0.6,0.3,0.5-0.4,0.8-0.6s0.2-0.4-0.1-0.6c-0.7-0.4-1.5-0.6-2.2-0.5c-1,0.1-1.8,0.8-1.9,1.8
	c-0.1,1.1,0.2,1.6,1.4,2c0.3,0.1,0.6,0.2,0.8,0.3s0.6,0.2,0.5,0.6c-0.1,0.3-0.4,0.4-0.7,0.4c-0.4,0-0.7-0.2-1-0.4
	c-0.3-0.2-0.4-0.1-0.6,0.1c-0.5,0.9-0.5,1,0.5,1.4C8.2,89,8.6,89.1,9,89.1L9,89.1z M128.8,83.4c-0.1-1-0.8-0.4-1.3-0.6
	s-0.6,0.1-0.6,0.6c0,1.4,0,2.9,0,4.3c0,1.2,0,1.2,1.3,1.2c0.5,0,0.6-0.1,0.5-0.6c-0.1-0.9-0.1-1.7,0-2.6c0-1,0.6-1.3,1.5-1.2
	c0.2,0,0.4,0.3,0.5,0c0.1-0.6,0.6-1.2,0.3-1.6s-1-0.3-1.5,0C129.3,83.1,129,83.2,128.8,83.4L128.8,83.4z M157.1,63.9
	c0,1.7,1.3,3,2.9,3.1c0.1,0,0.1,0,0.2,0c1.7,0.1,3.2-1.2,3.3-2.9c0,0,0-0.1,0-0.1c0-1.8-1.4-3.2-3.2-3.2S157.1,62.2,157.1,63.9
	L157.1,63.9L157.1,63.9z M47.8,83.9c-0.9,0-1.6,0.6-1.7,1.5c0,0,0,0,0,0.1c0,0.9,0.7,1.6,1.6,1.7c0.9,0,1.6-0.7,1.7-1.6
	C49.4,84.6,48.7,83.9,47.8,83.9C47.9,83.9,47.8,83.9,47.8,83.9L47.8,83.9z M93.4,85.4c0-0.9-0.7-1.6-1.5-1.6c0,0-0.1,0-0.1,0
	c-0.9,0-1.6,0.7-1.6,1.6c0,0,0,0,0,0c0,0.9,0.8,1.6,1.7,1.6C92.7,87.1,93.4,86.4,93.4,85.4C93.4,85.5,93.4,85.5,93.4,85.4L93.4,85.4
	z"/>
<path class="st1" d="M188.9,27.8c1.5,0,3,0.1,4.4,0.5c4.4,0.7,8.6,2.2,12.4,4.6c6.5,3.9,10.6,10.9,10.6,18.5
	c0.3,10.1-3.2,19-9.7,26.6c-4,4.7-9.4,7.5-15.2,9.3c-6.6,2-13.4,2.9-20.3,2.6c-2.6-0.2-5.2-0.5-7.8-1c-1.7-0.2-3.4-0.4-5.1-0.8
	c-1-0.2-1.9-0.7-2.5-1.5c-0.2-0.3-0.4-0.7-0.2-1c0.2-0.3,0.6-0.4,1-0.4c0.4,0,0.8,0.1,1.2,0.2c3.3,0.8,6.8,1.1,10.2,0.9
	c6.8-0.4,13.4-1.6,19.6-4.6c9.5-4.6,15.8-12.1,19.4-21.9c1.6-3.9,2.1-8.2,1.5-12.3c-1.4-8.3-7.8-15-16.1-16.7
	c-1.3-0.2-2.5-0.4-3.8-0.4C188.4,29.5,188.6,28.6,188.9,27.8z"/>
<path class="st2" d="M188.9,27.8c-0.3,0.8-0.5,1.6-0.6,2.5l-0.4,1.6c-0.4-0.1-0.8-0.3-1.2-0.4c-2.3-1-4.7-1.9-7.1-2.7
	c-2.8-0.9-5.7-1.6-8.6-2.2c-0.6-4.6-2-9-2.2-13.6c-0.1-1.2-0.6-2.3-1.4-3.2c-0.8-1-1.4-2.1-1.8-3.3c-0.2-0.5-0.1-1,0.2-1.4
	c0.9-1.4,2.1-2.7,3.4-3.6c0.5-0.3,1-0.6,1.6-0.7c1-0.4,2.2,0.1,2.6,1.1c0,0,0,0.1,0,0.1c1.1,2.6,1.8,5.4,2.1,8.2
	c0.6,4.3,0.7,8.7,1.4,13c0.1,0.6,0.3,1.2,0.5,1.7c0.1-0.3,0.1-0.6,0.1-0.8c-0.2-2.5,0.4-4.9,0.6-7.4c0.1-2.2,0.3-4.4,0.7-6.5
	c0.2-1,0.4-2,0.7-3c0.2-1.4,1.3-2.5,2.7-2.9c0.6-0.2,1.2-0.3,1.8-0.3c3-0.3,4.6,1.7,3.9,4.5c-0.1,0.5-0.3,0.9-0.5,1.3
	c-0.6,1.1-0.8,2.4-0.8,3.6c0.1,2.5-0.6,4.9-0.8,7.4c-0.1,1.2-0.2,2.4-0.2,3.7c0,0.2-0.1,0.3,0.1,0.4s0.3-0.1,0.4-0.3
	c0.2-0.3,0.3-0.7,0.4-1c0.9-2.9,2.2-5.6,3.8-8.2c0.3-0.5,0.7-0.9,1.1-1.2c0.6-0.3,0.9-0.2,0.9,0.5c0.1,1.5-0.3,2.9-0.9,4.3
	C190.4,21.8,189.5,24.8,188.9,27.8z"/>
<path class="st1" d="M171.1,26.6c2.9,0.6,5.8,1.3,8.6,2.2c2.4,0.8,4.8,1.7,7.1,2.7c0.4,0.2,0.8,0.3,1.2,0.4c1.4,0.5,2.7,1.2,4,1.9
	c0.8,0.4,1.5,1.1,1.9,2c0.2,0.6,0,0.8-0.6,0.8c-0.5,0-1.1-0.2-1.5-0.4c-5.1-2.2-10.5-3.7-16-4.4c-5.3-0.6-10.7-0.2-15.8,1.3
	c-6.7,2-12.6,6.3-16.6,12c-0.3,0.4-0.7,0.7-1.2,0.7c-2.7,0-5.4,0-8.2,0c-0.4,0-0.8,0-0.5-0.6c2.5-5.9,6-11.2,11.5-14.7
	c4.8-3,10.3-4.6,15.9-4.7C164.3,25.9,167.7,26.1,171.1,26.6z"/>
<path class="st3" d="M33.1,39c-3,0.1-6-0.5-8.7-1.8c-0.7-0.3-1.2-0.7-1.7-1.3c-0.5-0.6-0.6-1.3-0.3-2c0.3-0.7,0.9-0.8,1.5-0.8
	c1.2-0.1,2.4,0.3,3.4,1c1.6,1.2,3.6,1.7,5.6,1.5c2.7-0.1,5.3-0.6,7.8-1.6c1.1-0.4,2-0.9,2.8-1.7c0.6-0.5,0.8-1.3,0.6-2.1
	c-0.3-0.7-0.9-1.2-1.7-1.2c-3.3-0.6-6.7-0.6-10-0.1c-1.3,0.2-2.7,0.2-4-0.1c-1.5-0.3-2.8-1.4-3.3-2.8c-0.8-1.6-0.9-3.4-0.4-5.1
	c1.5-5.8,5.2-8.8,11.4-9.8c0.9-0.1,1.9-0.3,2.5,0.7c0.8,1.1,1,2.5,0.5,3.7c-0.3,0.6-0.9,1-1.6,1c-1,0.1-2,0-3-0.1
	c-1.5-0.2-2.9,0.3-4,1.3c-1.1,0.9-2,2.1-2.5,3.5c-0.7,1.8,0,3,1.8,3.6c1.7,0.4,3.4,0.4,5.1,0.2c2.8-0.2,5.6-0.6,8.4-0.3
	c3.8,0.4,5.7,3.5,4.6,7.2c-0.6,1.7-1.7,3.1-3.2,4c-2.6,1.7-5.5,2.7-8.5,3C35.1,38.9,34.1,39,33.1,39z"/>
<path class="st3" d="M62.5,60.4c0.1-0.9,0.1-1.9-0.1-2.8c-0.3-2-1.8-2.6-3.5-1.6c-0.9,0.6-1.7,1.2-2.4,1.9c-0.9,0.8-1.9,1.5-3.1,1.8
	c-1.2,0.4-2.5,0-3.3-1c-0.6-0.8-1.2-1.7-1.6-2.6c-0.4-0.8-1-1.4-1.7-1.9c-1-0.6-1.5-0.4-1.9,0.7c-0.4,1.3-0.6,2.7-0.7,4.1
	c-0.1,2.6-0.5,5.3-1.1,7.8c-0.2,0.6-0.5,1.2-0.9,1.8c-0.3,0.5-0.8,0.8-1.4,0.8c-1.6,0.2-2.4-0.7-2.3-2.4c0.3-2.7,0.8-5.3,1.6-7.9
	c1-3.2,1.8-6.5,2.4-9.8c0.1-1,1-1.8,2-1.8c1.6-0.2,3.2,0.5,4.3,1.8c1.1,1.3,2,2.7,2.8,4.2c1.1,2,1.5,2.1,3.4,0.9
	c1.1-0.7,2.2-1.5,3.3-2.3c0.8-0.6,1.8-1,2.8-1.3c1.1-0.3,2.4,0.1,3,1.1c2,3,2.9,6.6,2.5,10.2c0,1.3-1.1,2.3-2.4,2.2
	c-0.1,0-0.2,0-0.3,0c-0.7,0-1.2-0.6-1.3-1.3C62.4,62.2,62.4,61.3,62.5,60.4z"/>
<path class="st3" d="M10.9,59.2c0.3-2.7,0.3-5.3,0.1-8c-0.1-1.4-0.3-2.8-0.8-4.1c-0.3-1.1-1.3-1.8-2.4-1.7c-1.3,0.1-2.5,0.1-3.8,0.1
	c-0.7,0-1.4-0.1-2-0.3c-0.5-0.2-0.8-0.5-1.1-0.8c-0.5-0.5-0.5-1.2,0-1.7c0.1-0.1,0.2-0.2,0.4-0.2c1.1-0.6,2.3-0.9,3.6-1
	c5.3-0.4,10.6-0.9,15.9-0.5c0.7,0,1.3,0.2,2,0.4c0.6,0.2,1.2,0.6,1.3,1.3c0,0.8-0.5,1.5-1.2,1.8c-1.1,0.4-2.3,0.6-3.5,0.6
	c-1,0.1-2,0.3-3,0.6c-0.8,0.2-1.4,0.9-1.5,1.8c-0.2,1.6-0.3,3.3-0.1,4.9c0.2,4.6,0.8,9.2,0.8,13.8c0.1,1.5-0.1,3.1-0.6,4.6
	c-0.5,1.4-1.6,1.7-2.8,0.8c-0.4-0.3-0.6-0.7-0.7-1.2c-0.3-1.4-0.5-2.8-0.5-4.3C10.8,63.7,10.9,61.4,10.9,59.2z"/>
<path class="st3" d="M77.5,22.7c-0.9,3.3-0.2,7.2-1,10.9c-0.2,1.3-0.9,2.4-1.9,3.1c-1.2,0.9-3,0.8-4-0.3c-0.8-0.8-1.5-1.7-2.2-2.6
	c-0.6-0.8-1.2-1.5-2-2.1c-0.8-0.7-2-0.7-2.7,0.1c-0.1,0.2-0.3,0.3-0.3,0.5c-0.3,0.5-0.6,1-0.8,1.6c-0.5,1-1.2,1.9-2.1,2.5
	c-1,0.8-2.5,0.7-3.3-0.3c-0.6-0.6-1.1-1.4-1.5-2.2c-0.7-1.3-1.2-2.6-1.7-4c-0.7-2.2-1.8-4.1-3.4-5.8c-0.8-0.9-1.5-1.8-2.1-2.8
	c-0.3-0.4-0.6-1-0.2-1.5s1-0.4,1.6-0.3c0.8,0.2,1.5,0.6,2,1.1c1.3,1.3,2.3,2.9,3.1,4.6c0.8,1.5,1.5,2.9,2.3,4.4
	c0.4,0.7,0.8,1.4,1.4,1.9c0.3,0.3,0.8,0.4,1.1,0.1c0.1-0.1,0.1-0.1,0.2-0.2c0.6-0.7,1.1-1.4,1.5-2.2c0.4-0.8,0.9-1.6,1.6-2.3
	c1-1.1,2.6-1.2,3.7-0.2c0,0,0.1,0.1,0.1,0.1c0.8,0.7,1.5,1.6,2.3,2.4c0.7,0.9,1.7,1.5,2.9,1.7c0.5,0.1,0.9-0.2,1-0.7c0,0,0,0,0,0
	c0.3-1.4,0.5-2.8,0.5-4.3c0-1.1,0.1-2.1,0.3-3.2c0.1-0.5,0.3-0.9,0.5-1.3c0.5-0.9,1.2-1.3,1.9-1.1S77.6,21.3,77.5,22.7z"/>
<path class="st3" d="M128,38.4c-0.1-4.6-0.7-9.1-2-13.4c-0.2-0.8-0.5-1.6-1-2.3c-0.5-0.8-1.5-1.2-2.4-1c-1,0.2-2,0.6-3,0.9
	c-0.9,0.4-1.9,0.5-2.9,0.5c-0.3,0-0.6-0.1-0.9-0.2c-0.6-0.3-1.3-0.6-1.4-1.3s0.5-1.1,1-1.5c1.1-0.9,2.6-1.3,4-1.3
	c0.8,0.1,1.7,0,2.5-0.1c1.1-0.1,2-1.1,1.9-2.2c0-0.1,0-0.2,0-0.3c-0.1-0.7-0.3-1.5-0.6-2.1c-0.2-0.5-0.4-1-0.5-1.5
	c-0.4-1.5,0.2-2.4,1.8-2.8c1-0.4,2.2,0.1,2.6,1.2c0.1,0.2,0.1,0.3,0.1,0.5c0.4,1.3,0.4,2.7,0.6,4c0.4,2,0.6,2.3,2.7,1.9
	c1.4-0.3,2.7-0.7,4.1-1c0.4-0.1,0.9-0.1,1.4-0.1c0.6,0,1.2,0.4,1.3,1c0.2,0.7-0.1,1.4-0.7,1.7c-0.9,0.5-2,0.8-3,0.9
	c-1,0.2-2,0.5-3,0.9c-1,0.3-1.6,1.4-1.3,2.4c0.5,3.2,1.1,6.3,2,9.4c0.4,1.8,1,3.7,1.3,5.5c0.2,0.9-0.3,1.8-1.1,2.3
	c-0.8,0.6-1.9,0.6-2.8,0C128.1,39.8,127.9,39.1,128,38.4z"/>
<path class="st3" d="M97.4,51.7c-1.6,0.1-3,0.3-4.4,0.4c-1,0.1-1.9,0-2.8-0.4c-0.5-0.2-0.8-0.5-0.8-1c0-0.5,0.3-1,0.8-1.2
	c1.3-0.4,2.6-0.7,3.9-0.8c0.5-0.1,1.1-0.2,1.6-0.4c1.3-0.2,2.2-1.5,2-2.8c0-0.9-0.2-1.8-0.4-2.8c0-0.3-0.1-0.5-0.1-0.8
	c0-0.6-0.1-1.3,0.7-1.6c0.8-0.3,1.8,0.1,2.2,0.8c0.4,0.8,0.6,1.7,0.6,2.6c0.1,0.6,0.1,1.3,0.3,1.9c0.1,1.1,1,1.9,2.2,2l2.5,0.3
	c0.4,0.1,0.9,0.2,1.3,0.4c0.4,0.2,0.7,0.6,0.6,1.1c-0.1,0.5-0.5,0.6-0.9,0.6c-0.9,0.1-1.8,0.3-2.8,0.5c-0.6,0.1-1,0.6-1,1.2
	c-0.2,2.2-0.1,4.4,0.2,6.6c0.4,3.6,0.6,7.3,0.6,10.9c0,1.2-0.2,2.3-0.6,3.4c-0.2,0.7-0.7,1.2-1.3,1.6c-0.8,0.5-1.7,0.2-2.2-0.5
	c-0.1-0.2-0.2-0.4-0.2-0.6c-0.2-0.9-0.2-1.9,0.1-2.8c0.8-4.7,0.9-9.6,0.4-14.3c-0.1-1.3-0.5-2.5-1.1-3.7
	C98.1,51.7,98.1,51.7,97.4,51.7z"/>
<path class="st4" d="M81.5,29c0-4.6,3.3-8.6,7.8-9.3c1.2-0.2,2.5,0,3.7,0.5c1.9,0.9,2.9,3,2.4,5.1c-0.3,2.4-2.1,4.4-4.5,4.9
	c-1.1,0.3-2.3,0.6-3.4,0.9s-1.2,0.7-1,1.7c0.6,2.2,2.9,3.6,5.1,3c0.6-0.1,1.1-0.4,1.6-0.8c0.3-0.3,0.7-0.6,1-0.9s0.9-0.7,1.4-0.3
	c0.5,0.4,0.7,1.1,0.4,1.7c-0.5,1.2-1.4,2.1-2.7,2.5c-2.3,0.7-4.8,0.6-7-0.4c-2.8-1-3.9-3.3-4.6-5.9C81.5,30.8,81.4,29.9,81.5,29z
	 M87.8,28.2c2.1-0.3,3.7-1.9,4.1-3.9c0.1-0.6-0.3-1.2-0.8-1.4c-0.8-0.4-1.6-0.3-2.4,0.1c-1.1,0.6-2,1.5-2.5,2.6
	C85.4,27,86.2,28.2,87.8,28.2L87.8,28.2z"/>
<path class="st3" d="M79.8,49.5c2,0,4,0.9,5.2,2.6c0.8,1.1,1.5,2.4,2,3.7c0.7,1.7,1.6,3.4,2.6,4.9c0.6,0.8,0.9,1.7,1,2.7
	c0.1,0.7-0.2,1.3-0.8,1.7c-0.5,0.5-1.2,0.5-1.7,0c-0.7-0.6-1.3-1.4-1.7-2.2c-0.5-1.1-1.1-2.1-1.8-3.1c-0.3-0.5-0.9-0.7-1.4-0.6
	c-2.7,0.5-5.3,1.3-7.7,2.5c-0.5,0.3-0.9,0.8-1,1.3c-0.2,0.6-0.4,1.3-0.7,1.9c-0.3,1-1.3,1.6-2.3,1.4c-0.8-0.1-1.1-0.4-1.1-1.2
	c0-0.6,0.2-1.3,0.4-1.9c1.4-4,3.2-7.8,5.4-11.5C77,50.4,78.3,49.5,79.8,49.5z M78.9,57.5c1,0,2.1-0.3,2.9-0.9
	c0.3-0.2,0.5-0.4,0.4-0.8c-0.3-1-1.1-1.7-2.2-1.8c-1,0-2,0.7-2.3,1.7C77.2,56.9,77.6,57.5,78.9,57.5L78.9,57.5z"/>
<path class="st3" d="M110.1,37.4c-2.3,0-4.5-0.5-6.6-1.3c-0.8-0.3-1.4-0.9-1.9-1.6c-3.3-4.8-1.2-10.1,2.7-12.6c2-1.2,4.5-1.2,6.5,0
	c1.5,0.7,2.5,3.5,2,5.1c-0.2,0.6-0.6,1-1.1,1.3c-0.9,0.6-1.8,1.1-2.8,1.5c-0.8,0.3-1.5,0.8-2,1.5c-0.8,1.1-0.6,2.1,0.7,2.6
	c1.8,0.9,4,0.8,5.8-0.1l0.1-0.1c0.6-0.3,1.4-0.7,1.9-0.2s0.1,1.4-0.4,2c-0.8,1-2.1,1.7-3.4,1.7C111.2,37.4,110.7,37.4,110.1,37.4z
	 M107.3,23.9c-1.1,0-2.4,1.2-2.9,2.7c-0.2,0.6-0.3,1.2,0.2,1.7c0.6,0.4,1.4,0.4,1.9,0c1-0.6,1.7-1.4,2.1-2.5
	C109.1,24.6,108.6,23.9,107.3,23.9L107.3,23.9z"/>
<path class="st4" d="M135.5,64.6c-2.1-0.1-4.2-0.5-6.2-1.2c-4-1.4-5-7.3-2.8-10.1c1.9-2.4,6.2-5,10.4-3.8c0.4,0.1,0.7,0.2,1.1,0.4
	c1.3,0.6,2.4,1.5,2.4,3.1c0,1.5-0.9,2.9-2.3,3.6c-1.3,0.6-2.8,1.1-4.2,1.5c-0.9,0.2-1.7,0.6-2.5,1c-1.1,0.7-1.1,1.4,0,2.1
	c1.8,1.4,4.3,1.7,6.4,0.7c0.8-0.4,1.7-0.6,2.5-0.6c0.9,0.1,1.1,0.4,0.6,1.2c-0.9,1.3-2.3,2.2-3.9,2.3
	C136.5,64.6,136,64.6,135.5,64.6z M132.3,56.3c1.7,0,3.3-1,3.9-2.6c0.3-0.7,0-1.5-0.6-1.8c-0.1-0.1-0.2-0.1-0.4-0.1
	c-1.7-0.4-3.5,0.3-4.4,1.9C129.8,55.6,130.1,56,132.3,56.3L132.3,56.3z"/>
<path class="st3" d="M27.2,53.2c2.1-0.1,4.2,0.6,5.8,2c1.9,1.8,2.4,4.6,1.4,7c-0.8,2.4-3.1,4.1-5.7,4.2c-2.7,0.1-5.2-1.1-6.9-3.2
	c-3.1-3.6-0.8-9,3.6-9.8C25.9,53.2,26.6,53.1,27.2,53.2z M26.7,56.7c-0.6,0-1.1,0.1-1.6,0.4c-0.4,0.2-0.6,0.7-0.6,1.1
	c0.1,1.8,1.3,3.3,3,3.8c0.6,0.2,1.4,0.1,1.8-0.4c1.1-0.9,1.3-2.6,0.3-3.7c-0.3-0.3-0.6-0.5-0.9-0.7C28.1,56.9,27.4,56.7,26.7,56.7z"
	/>
<path class="st3" d="M108.6,60c0.2-3.4,1.8-6.6,6.4-7.3c0.9-0.2,1.9-0.2,2.9-0.1c2.6,0.4,4,2.1,4.2,5c0.2,3.3-1.7,6.4-4.7,7.7
	c-2.8,1.1-6.2,0.3-7.7-1.9C108.9,62.4,108.6,61.2,108.6,60z M115.6,56.2c-2,0.1-3.5,1.8-3.5,3.8c0,0.6,0.4,1.2,0.9,1.6
	c1,0.7,2.3,0.8,3.4,0.3c1.4-0.7,2.1-2.1,1.9-3.6C118,56.9,116.8,56.1,115.6,56.2L115.6,56.2z"/>
<path class="st4" d="M148.2,66.8c-1.2,0-2.3-0.2-3.3-0.7c-0.3-0.1-0.7-0.3-0.6-0.7s0.4-0.5,0.7-0.6c0.9-0.2,1.9-0.3,2.9-0.4
	c0.5-0.1,0.9-0.2,1.4-0.4c1-0.5,1.5-1.7,1.1-2.8c-0.3-0.8-0.8-1.6-1.4-2.2c-1.1-1.2-2.2-2.5-3.3-3.7c-2.3-2.7-1.4-5,0.9-6.8
	c1.1-0.8,2.2-1.4,3.5-1.9c1-0.4,2-0.9,2.9-1.4c0.8-0.4,1.4-0.3,1.7,0.2c0.4,0.7,0.1,1.2-0.4,1.7c-0.7,0.5-1.4,0.9-2.3,1.2
	c-0.8,0.3-1.5,0.6-2.3,1c-1.4,0.7-2,2.5-1.3,3.9c0.2,0.4,0.4,0.7,0.7,0.9c0.3,0.3,0.7,0.6,1.1,0.9c1.9,1.2,3.2,3.2,3.6,5.4
	c1,3.9-1,6.5-5,6.6L148.2,66.8z"/>
<path class="st5" d="M134,67.7c2,0,3.8,0,5.6,0c0.4,0,0.5,0.2,0.6,0.5c2.8,5.7,7.6,9.1,13.3,11.4c0.7,0.3,1.5,0.4,2.2,0.2
	c0.3-0.1,0.7,0,0.9,0.3c0.2,0.3,0.1,0.7-0.1,1c-0.6,0.9-1.1,1.9-2.3,2.1c-0.2,0-0.5,0.1-0.6-0.2c-0.8-1.1-1.9-1.9-3.2-2.3
	c-3.4-1.1-6.5-2.8-9.2-5.1c-2.4-1.9-4.6-4.1-6.5-6.5c-0.2-0.3-0.4-0.6-0.6-0.9C134.1,68,134,67.9,134,67.7z"/>
<path class="st6" d="M34.3,80.4c0-0.5-0.1-1.1-0.1-1.6c0-0.3-0.3-0.7,0.2-0.8c0.6-0.2,1.2-0.2,1.7-0.1c0.2,0,0.1,0.3,0.1,0.4
	c-0.2,3.2-0.1,6.3,0,9.5c0,0.3,0,0.5-0.3,0.6c-1.2,0.6-2.6,0.8-3.9,0.4c-1.6-0.5-2.5-2.2-2.1-3.8c0.3-1.5,1.8-2.6,3.3-2.4
	c1.1,0.1,1.1,0.1,1.1-0.9C34.3,81.4,34.3,80.9,34.3,80.4L34.3,80.4z M34.3,86.1c0-0.4,0-0.7,0-1c0-0.2-0.1-0.5-0.3-0.6
	c-0.6-0.3-1.4-0.2-1.9,0.3c-0.5,0.6-0.5,1.4-0.1,2.1c0.4,0.6,1.2,0.8,1.8,0.6C34.7,87.3,34.2,86.5,34.3,86.1L34.3,86.1z"/>
<path class="st4" d="M100.1,83c0.8-0.3,1.7-0.3,2.5-0.1c1.4,0.4,2.3,1.9,2,3.4c-0.2,1.5-1.4,2.6-2.9,2.8c-0.5,0.1-1,0.1-1.5,0
	c-0.6-0.1-1.1-0.3-1.6-0.6c-0.7-0.4-0.2-1.1-0.2-1.6c-0.1-2.8,0.1-5.6-0.1-8.3c0-0.3,0-0.5,0.4-0.5c0.2,0,0.3-0.1,0.5-0.1
	c1.1-0.2,1.1-0.1,1.1,1C100.1,80.2,100.1,81.5,100.1,83z M100.1,85.8c0,0.4,0,0.7,0,1c0,0.2,0.1,0.4,0.2,0.6
	c0.8,0.3,1.6,0.1,2.1-0.6c0.5-0.7,0.4-1.7-0.2-2.2c-0.5-0.4-1.2-0.5-1.8-0.1C99.8,84.8,100.3,85.4,100.1,85.8L100.1,85.8z"/>
<path class="st3" d="M114.7,86.1c0,0.9,0,1.6,0,2.2c0,0.4,0,0.6-0.5,0.6c-1.4,0-1.4,0.1-1.4-1.3c0-2.9,0.1-5.9-0.1-8.8
	c0-0.3-0.2-0.6,0.2-0.8c0.5-0.2,1.1-0.2,1.6-0.1c0.2,0.1,0.1,0.4,0.1,0.7c0,2.2,0,4.3,0,6.6c0.7-0.5,1.4-1.1,1.9-1.8
	c0.5-0.7,0.9-0.7,1.5-0.1c0.1,0.2,0.3,0.3,0.5,0.5c-0.5,0.5-1,1-1.6,1.4s-0.4,0.6,0,1c0.6,0.6,1.1,1.2,1.6,1.8
	c0.2,0.2,0.3,0.4-0.1,0.5h-0.1c-1.2,0.8-1.2,0.8-2.1-0.3C115.9,87.6,115.3,87,114.7,86.1z"/>
<path class="st6" d="M76,88.8c0,0.8,0,1.6,0,2.3c0,0.4-0.1,0.5-0.5,0.5c-1.4-0.1-1.4-0.1-1.3-1.4c0.1-2.2,0.1-4.3,0-6.5
	c0-0.3,0.1-0.3,0.3-0.4c1.1-0.6,2.5-0.8,3.7-0.5c1.7,0.4,2.7,2,2.3,3.7c0,0.1,0,0.1-0.1,0.2c-0.3,1.6-1.9,2.7-3.5,2.4
	c-0.1,0-0.2,0-0.3-0.1L76,88.8z M76,85.8c0.2,0.5-0.3,1.1,0.3,1.5c0.6,0.4,1.4,0.3,1.9-0.2c0.5-0.6,0.6-1.4,0.3-2.1
	c-0.4-0.6-1.2-0.9-1.9-0.7C75.7,84.4,76.2,85.2,76,85.8L76,85.8z"/>
<path class="st7" d="M62.4,82.6c1.8-0.1,3.3,1.3,3.4,3c0,0.1,0,0.1,0,0.2c0,1.8-1.4,3.3-3.2,3.3c-0.1,0-0.2,0-0.3,0
	c-1.8,0-3.2-1.5-3.2-3.3C59.1,84,60.6,82.6,62.4,82.6L62.4,82.6L62.4,82.6z M60.7,85.9c-0.1,0.9,0.5,1.7,1.4,1.8
	c0.9,0.1,1.7-0.5,1.8-1.4c0-0.1,0-0.2,0-0.4c0-0.9-0.7-1.6-1.6-1.6S60.7,85,60.7,85.9C60.7,85.9,60.7,85.9,60.7,85.9z"/>
<path class="st6" d="M72.7,85.7c-0.1,0.9,0,1.8,0.1,2.7c0.1,0.4-0.1,0.5-0.3,0.5c-0.5-0.1-1.1,0.7-1.5-0.2c-0.1-0.1-0.3,0.1-0.4,0.1
	c-2,1-3.7,0-3.8-2.2c0-1.1,0-2.2,0-3.4c0-0.3,0.1-0.4,0.4-0.4h0.1c1.5-0.1,1.5-0.1,1.5,1.4c0,0.7,0,1.4,0,2.2s0.1,1.1,0.9,1.1
	c0.6,0.1,1.1-0.4,1.2-1c0-0.1,0-0.1,0-0.2c0-1,0-1.9,0-2.9c0-0.5,0.1-0.6,0.6-0.6c1.3,0,1.3,0,1.3,1.3C72.7,84.5,72.7,85,72.7,85.7z
	"/>
<path class="st7" d="M16.4,85c-0.3-1-0.6-1.3-1.5-1.2c-0.3,0-0.6,0.1-0.9,0.3c-0.6,0.4-0.7,0-0.9-0.5s0.1-0.6,0.5-0.7
	c1-0.3,2.1-0.3,3.2-0.1c0.8,0.2,1.3,0.9,1.3,1.7c0,1.4,0,2.7,0.3,4.1c0.1,0.2,0,0.4-0.2,0.4c-0.5-0.1-1.1,0.8-1.6-0.1
	c-0.1-0.2-0.3,0-0.5,0.1c-0.8,0.3-1.7,0.3-2.5,0c-1-0.5-1.5-1.7-1.1-2.7c0.2-0.5,0.6-0.9,1.1-1.1C14.6,84.7,15.5,84.6,16.4,85z
	 M16.4,86.8c0-0.6-0.4-1-1-1c0,0-0.1,0-0.1,0c-0.6,0-1.1,0.4-1.1,1c0.1,0.6,0.6,1,1.1,1C15.9,87.9,16.4,87.5,16.4,86.8
	C16.4,86.9,16.4,86.9,16.4,86.8L16.4,86.8z"/>
<path class="st8" d="M109.3,85c-0.1-0.9-0.4-1.2-1.2-1.1c-0.3,0-0.7,0.1-1,0.2c-0.7,0.4-0.8,0-1-0.5c-0.1-0.3,0-0.5,0.3-0.6
	c1.1-0.4,2.3-0.4,3.4-0.1c0.8,0.2,1.4,0.9,1.4,1.8c-0.1,1.3,0,2.6,0.3,3.9c0.1,0.3,0,0.4-0.2,0.4c-0.5-0.1-1.1,0.7-1.6-0.1
	c-0.1-0.1-0.3,0.1-0.4,0.1c-0.7,0.3-1.5,0.4-2.3,0.1c-0.9-0.2-1.5-1-1.5-1.9c-0.1-0.9,0.5-1.7,1.3-2C107.5,84.7,108.5,84.7,109.3,85
	z M109.4,87c0-0.6-0.4-1-1-1c0,0,0,0-0.1,0c-0.5-0.1-1,0.3-1.1,0.9c0,0,0,0.1,0,0.1c0,0.6,0.4,1,1,1c0,0,0.1,0,0.1,0
	c0.5,0.1,1-0.3,1.1-0.9C109.4,87,109.4,86.9,109.4,87L109.4,87z"/>
<path class="st8" d="M26.8,85c0.1-0.6-0.4-1.1-1-1.1c-0.1,0-0.2,0-0.2,0c-0.4,0-0.7,0.1-1.1,0.2c-0.8,0.5-0.8-0.2-1-0.6
	c-0.1-0.3,0-0.4,0.2-0.5c1.2-0.4,2.5-0.5,3.7-0.1c0.7,0.3,1.1,0.9,1.1,1.6c-0.1,1.3,0,2.7,0.3,4c0,0.1,0,0.4-0.1,0.3
	c-0.5-0.1-1.1,0.8-1.7-0.1c-0.1-0.2-0.3,0-0.5,0.1c-0.7,0.3-1.6,0.4-2.3,0.1c-0.8-0.3-1.4-1.1-1.4-1.9c0-0.9,0.5-1.7,1.3-2
	C25.1,84.7,26,84.6,26.8,85z M25.8,88c0.6,0,1-0.4,1-1c0,0,0-0.1,0-0.1c0-0.6-0.4-1-1-1c0,0-0.1,0-0.1,0c-0.6,0-1,0.4-1.1,0.9
	c0,0,0,0.1,0,0.1C24.7,87.5,25.2,88,25.8,88C25.8,88,25.8,88,25.8,88z"/>
<path class="st8" d="M123.4,86.4c-0.5,0-1.1,0-1.6,0s-0.5,0.2-0.3,0.6c0.6,0.7,1.6,0.9,2.5,0.5c0.8-0.4,0.9,0.3,1.3,0.6
	c0.2,0.1-0.1,0.3-0.2,0.4c-1.2,0.7-2.7,0.8-4,0.2c-1.1-0.7-1.8-2-1.5-3.3c0.1-1.3,1-2.4,2.2-2.7c1.6-0.6,3.3,0.3,3.8,1.8
	c0.1,0.4,0.2,0.8,0.2,1.2c0,0.5-0.2,0.7-0.7,0.7L123.4,86.4z M122.8,85.2c0.3,0,0.6,0,0.9,0c0.6,0.1,0.6-0.3,0.4-0.7
	c-0.4-0.7-1.3-0.9-2-0.5c-0.1,0-0.1,0.1-0.2,0.2c-0.2,0.2-0.5,0.5-0.4,0.8s0.5,0.1,0.7,0.1C122.3,85.2,122.5,85.2,122.8,85.2
	L122.8,85.2z"/>
<path class="st8" d="M135.3,86.3c0.5-1,0.9-2.1,1.2-3.1c0.1-0.5,0.3-0.7,0.8-0.4c0.2,0.1,0.5,0.2,0.8,0.3c0.2,0.1,0.3,0.2,0.2,0.4
	c-0.9,2.9-2.4,5.5-4.4,7.8c-0.6,0.3-1.3,0.2-1.6-0.4c0,0,0-0.1-0.1-0.1c-0.1-0.2,0.2-0.3,0.3-0.4c0.6-0.5,1.1-1.1,1.6-1.8
	c0.2-0.3,0.2-0.7,0-0.9c-0.8-1.2-1.5-2.4-2.1-3.6c-0.2-0.4-0.2-0.6,0.3-0.8c1.2-0.5,1.2-0.5,1.8,0.7
	C134.4,84.6,134.8,85.3,135.3,86.3z"/>
<path class="st7" d="M21.7,83.5c0,1.6,0,3.2,0,4.8c0,0.5-0.1,0.7-0.6,0.7c-1.3,0-1.3,0-1.3-1.3c0-3,0-6-0.1-8.9
	c0-1.1,0.8-0.7,1.3-0.8s0.7,0,0.7,0.6C21.7,80.1,21.7,81.8,21.7,83.5L21.7,83.5z"/>
<path class="st7" d="M55.9,89.1c-0.4,0-0.9-0.1-1.3-0.3c-0.9-0.4-0.9-0.5-0.4-1.3c0.2-0.3,0.3-0.3,0.6-0.1c0.3,0.2,0.7,0.4,1.1,0.4
	c0.3,0,0.5-0.1,0.6-0.4c0.1-0.3-0.1-0.5-0.4-0.6c-0.4-0.2-0.9-0.3-1.3-0.5c-0.9-0.4-1.3-1.5-0.9-2.4c0.1-0.2,0.3-0.4,0.4-0.6
	c1.1-0.8,2.5-0.8,3.7-0.1c0.4,0.3,0,0.5-0.1,0.7s-0.2,0.7-0.7,0.4c-0.4-0.2-0.8-0.4-1.2-0.4c-0.3,0-0.5,0-0.6,0.3s0.1,0.4,0.4,0.5
	c0.2,0.1,0.4,0.2,0.7,0.2c1.3,0.4,1.9,1.1,1.7,2.2C58.1,88.4,57,89.2,55.9,89.1z"/>
<path class="st7" d="M39.6,89.1c-0.5,0-0.9-0.1-1.4-0.3c-0.9-0.4-0.9-0.4-0.4-1.3c0.2-0.4,0.3-0.4,0.7-0.2c0.3,0.3,0.8,0.4,1.2,0.3
	c0.2-0.1,0.5-0.1,0.5-0.4c0-0.2-0.1-0.4-0.3-0.5l-1-0.4c-1.1-0.4-1.5-0.9-1.4-1.9c0.1-1,0.9-1.8,1.9-1.9c0.6-0.1,1.2,0,1.8,0.3
	c0.9,0.4,0.9,0.5,0.4,1.3c-0.2,0.3-0.3,0.3-0.6,0.1c-0.4-0.2-0.8-0.4-1.2-0.4c-0.2,0-0.4,0.1-0.5,0.3s0.1,0.5,0.3,0.6
	c0.2,0.1,0.4,0.2,0.7,0.2c1.3,0.4,1.9,1.1,1.7,2.3C41.7,88.4,40.7,89.2,39.6,89.1z"/>
<path class="st7" d="M86,83.4c-0.1,0.2-0.2,0.4-0.3,0.6c-0.2,0.5-0.4,0.6-0.9,0.3s-1.2-0.7-1.5,0s0.6,0.7,1.1,0.8
	c1.1,0.2,1.8,1.2,1.6,2.2c-0.2,1-1.1,1.7-2.2,1.8c-0.5,0-1.1-0.1-1.6-0.3c-0.9-0.4-0.9-0.4-0.4-1.3c0.2-0.4,0.3-0.4,0.7-0.2
	c0.3,0.3,0.8,0.4,1.3,0.3c0.2-0.1,0.4-0.2,0.4-0.4c0-0.2-0.1-0.4-0.3-0.5l-1-0.4c-1.1-0.4-1.6-1-1.4-2c0.2-1,0.9-1.7,1.9-1.8
	C84.3,82.6,85.2,82.8,86,83.4z"/>
<path class="st8" d="M9,89.1c-0.4,0-0.8-0.1-1.2-0.2c-1-0.4-1-0.5-0.5-1.4c0.2-0.3,0.3-0.4,0.6-0.1c0.3,0.2,0.6,0.4,1,0.4
	c0.3,0.1,0.6-0.1,0.7-0.4c0.1-0.4-0.2-0.5-0.5-0.6s-0.5-0.2-0.8-0.3c-1.2-0.4-1.5-0.9-1.4-2c0.1-1,0.9-1.7,1.9-1.8
	c0.8-0.1,1.6,0.1,2.2,0.5c0.3,0.2,0.4,0.4,0.1,0.6s-0.1,0.9-0.8,0.6C10,84.1,9.6,84,9.2,84c-0.3,0-0.5,0.1-0.6,0.3s0.1,0.4,0.4,0.5
	c0.2,0.1,0.4,0.2,0.7,0.2c1.3,0.4,1.9,1.2,1.7,2.2C11.2,88.4,10.1,89.2,9,89.1z"/>
<path class="st8" d="M128.8,83.4c0.2-0.2,0.5-0.3,0.8-0.4c0.5-0.2,1.2-0.4,1.5,0s-0.1,1.1-0.3,1.6c-0.1,0.3-0.3,0-0.5,0
	c-0.9-0.2-1.4,0.2-1.5,1.2c-0.1,0.9-0.1,1.7,0,2.6c0,0.5-0.1,0.6-0.5,0.6c-1.3,0-1.3,0-1.3-1.2c0-1.4,0-2.9,0-4.3
	c0-0.4,0.1-0.7,0.6-0.6S128.7,82.4,128.8,83.4z"/>
<path class="st9" d="M157.1,63.9c0-1.8,1.4-3.2,3.2-3.2s3.2,1.4,3.2,3.2l0,0c0,1.7-1.5,3-3.2,3c0,0-0.1,0-0.1,0
	c-1.7,0.1-3.1-1.2-3.1-2.9C157.1,64,157.1,63.9,157.1,63.9z M162.9,63.9c-0.1-1.4-1.2-2.4-2.5-2.4c-1.4,0-2.5,1.1-2.5,2.4
	c0,1.4,1.1,2.5,2.4,2.5c0,0,0,0,0,0C161.7,66.4,162.8,65.3,162.9,63.9L162.9,63.9z"/>
<path class="st7" d="M47.8,83.9c0.9,0,1.6,0.7,1.6,1.5c0,0,0,0.1,0,0.1c0,0.9-0.8,1.6-1.7,1.6c-0.9,0-1.6-0.8-1.6-1.7
	C46.2,84.6,46.9,83.9,47.8,83.9C47.8,83.9,47.8,83.9,47.8,83.9z"/>
<path class="st7" d="M93.4,85.5c0,0.9-0.7,1.6-1.5,1.7c0,0,0,0,0,0c-0.9,0-1.6-0.7-1.7-1.6c0-0.9,0.7-1.6,1.6-1.6c0,0,0,0,0,0
	c0.8-0.1,1.6,0.6,1.6,1.4C93.4,85.4,93.4,85.4,93.4,85.5z"/>
<path class="st10" d="M87.8,28.2c-1.6,0-2.4-1.2-1.7-2.6c0.5-1.1,1.4-2,2.5-2.6c0.7-0.4,1.6-0.4,2.4-0.1c0.6,0.2,0.9,0.8,0.8,1.4
	C91.5,26.3,89.9,27.9,87.8,28.2z"/>
<path class="st11" d="M78.9,57.5c-1.4,0-1.8-0.6-1.1-1.9c0.3-1,1.3-1.7,2.3-1.7c1,0.1,1.9,0.8,2.2,1.8c0.1,0.4-0.2,0.6-0.4,0.8
	C81,57.2,80,57.5,78.9,57.5z"/>
<path class="st11" d="M107.3,23.9c1.3,0,1.8,0.8,1.3,1.9c-0.4,1.1-1.2,1.9-2.1,2.5c-0.6,0.4-1.4,0.4-1.9,0c-0.6-0.5-0.4-1.1-0.2-1.7
	C104.9,25.1,106.2,23.9,107.3,23.9z"/>
<path class="st10" d="M132.3,56.3c-2.2-0.3-2.5-0.7-1.5-2.6c0.9-1.6,2.7-2.3,4.4-1.9c0.7,0.1,1.2,0.8,1.1,1.6c0,0.1-0.1,0.2-0.1,0.4
	C135.6,55.3,134,56.3,132.3,56.3z"/>
<path class="st10" d="M26.7,56.7c0.7,0,1.4,0.2,2.1,0.5c1.3,0.6,1.9,2.2,1.3,3.5c-0.2,0.4-0.4,0.7-0.7,0.9c-0.5,0.5-1.2,0.6-1.8,0.4
	c-1.7-0.6-2.9-2.1-3-3.8c0-0.5,0.2-0.9,0.6-1.1C25.6,56.8,26.1,56.7,26.7,56.7z"/>
<path class="st10" d="M115.6,56.2c1.3-0.1,2.5,0.7,2.7,2c0.2,1.5-0.6,3-1.9,3.6c-1.1,0.5-2.4,0.4-3.4-0.3c-0.6-0.3-0.9-0.9-0.9-1.6
	C112.1,58,113.6,56.4,115.6,56.2z"/>
<path class="st12" d="M34.3,86.1c-0.1,0.4,0.3,1.2-0.5,1.4c-0.7,0.3-1.4,0-1.8-0.6c-0.4-0.7-0.3-1.5,0.1-2.1
	c0.5-0.5,1.3-0.6,1.9-0.3c0.2,0.1,0.4,0.3,0.3,0.6C34.3,85.4,34.3,85.7,34.3,86.1z"/>
<path class="st12" d="M100.1,85.8c0.2-0.4-0.3-1,0.3-1.4c0.6-0.3,1.3-0.3,1.8,0.1c0.7,0.5,0.8,1.5,0.2,2.2c-0.5,0.7-1.4,0.9-2.1,0.6
	c-0.2-0.1-0.3-0.3-0.2-0.6C100.1,86.6,100.1,86.2,100.1,85.8z"/>
<path class="st11" d="M76,85.7c0.2-0.5-0.3-1.3,0.6-1.5c0.7-0.2,1.5,0.1,1.9,0.7c0.4,0.7,0.3,1.5-0.3,2.1c-0.5,0.5-1.3,0.5-1.9,0.2
	C75.7,86.8,76.2,86.2,76,85.7z"/>
<path class="st11" d="M60.7,85.9c0-0.9,0.7-1.6,1.6-1.6s1.6,0.7,1.6,1.6c0,0,0,0,0,0c0.1,0.9-0.5,1.7-1.4,1.8
	c-0.9,0.1-1.7-0.5-1.8-1.4C60.7,86.1,60.7,86,60.7,85.9z"/>
<path class="st12" d="M16.4,86.8c0.1,0.5-0.3,1-0.9,1.1c-0.1,0-0.1,0-0.2,0c-0.6,0-1.1-0.4-1.1-1c0-0.6,0.5-1,1.1-1
	C15.9,85.9,16.4,86.3,16.4,86.8C16.4,86.8,16.4,86.8,16.4,86.8z"/>
<path class="st12" d="M109.4,86.9c0,0.6-0.4,1-1,1c0,0-0.1,0-0.1,0c-0.6,0-1-0.4-1.1-0.9c0,0,0-0.1,0-0.1c0-0.6,0.4-1,1-1
	c0,0,0.1,0,0.1,0C108.9,85.9,109.3,86.3,109.4,86.9C109.4,86.8,109.4,86.9,109.4,86.9z"/>
<path class="st12" d="M25.8,88c-0.6,0-1.1-0.4-1.1-1c0,0,0,0,0,0c0-0.6,0.4-1,0.9-1.1c0,0,0.1,0,0.1,0c0.5-0.1,1,0.3,1.1,0.9
	c0,0,0,0.1,0,0.1C26.9,87.4,26.5,87.9,25.8,88C25.9,88,25.9,88,25.8,88z"/>
<path class="st11" d="M122.8,85.2c-0.2,0-0.4,0-0.6,0c-0.2,0-0.6,0.2-0.7-0.1s0.1-0.6,0.4-0.8c0.6-0.5,1.5-0.5,2,0.1
	c0.1,0.1,0.1,0.1,0.2,0.2c0.2,0.4,0.3,0.7-0.4,0.7C123.3,85.2,123,85.2,122.8,85.2z"/>
<path class="st12" d="M162.9,64c-0.1,1.4-1.2,2.4-2.6,2.4c-1.4-0.1-2.4-1.2-2.3-2.6c0.1-1.4,1.2-2.4,2.6-2.3
	C161.8,61.6,162.9,62.6,162.9,64z M158.9,63.9c0,0.4,0,0.7,0,1s-0.1,0.7,0.5,0.7s0.5-0.3,0.5-0.7c0-0.2-0.1-0.5,0.2-0.5
	s0.6,0,0.7,0.4c0,0.2,0.1,0.3,0.1,0.5c0,0.4,0.4,0.3,0.6,0.3s0.3-0.2,0.3-0.4s0-0.6-0.3-0.9s-0.2-0.2,0-0.4c0.4-0.2,0.5-0.7,0.3-1.1
	c0,0,0,0,0,0c-0.2-0.4-0.7-0.6-1.1-0.5C158.9,62.2,158.9,62.2,158.9,63.9L158.9,63.9z"/>
<path class="st9" d="M158.9,63.9c0-1.7,0-1.7,1.7-1.6c0.4,0,0.9,0.2,1.1,0.5c0.2,0.4,0.1,0.9-0.2,1.1c0,0,0,0,0,0
	c-0.2,0.1-0.1,0.3,0,0.4s0.2,0.6,0.3,0.9s0,0.4-0.3,0.4s-0.6,0.1-0.6-0.3c0-0.2,0-0.3-0.1-0.5c-0.1-0.4-0.4-0.4-0.7-0.4
	s-0.2,0.3-0.2,0.5c0,0.4,0,0.7-0.5,0.7s-0.4-0.4-0.5-0.7S158.9,64.2,158.9,63.9z M159.9,63.4c0,0.2,0,0.4,0.4,0.3s0.6-0.1,0.6-0.4
	s-0.4-0.4-0.6-0.4S159.8,63.1,159.9,63.4L159.9,63.4z"/>
<path class="st12" d="M159.8,63.4c0-0.3,0-0.6,0.3-0.5s0.6,0,0.6,0.4s-0.3,0.4-0.6,0.4S159.8,63.6,159.8,63.4z"/>
</svg>
