<?xml version="1.0" encoding="utf-8"?>
<!-- Generator: Adobe Illustrator 21.1.0, SVG Export Plug-In . SVG Version: 6.00 Build 0)  -->
<svg version="1.1" id="Layer_1" xmlns="http://www.w3.org/2000/svg" xmlns:xlink="http://www.w3.org/1999/xlink" x="0px" y="0px"
	 viewBox="0 0 232.1 89.7" style="enable-background:new 0 0 232.1 89.7;" xml:space="preserve">
<style type="text/css">
	.st0{fill:#EB008B;}
	.st1{fill:#2E3191;}
	.st2{fill:#FFF100;}
</style>
<title>Fast Food</title>
<path class="st0" d="M89.7,50.9c3.7-5,12.7-11.5,16.7-13.8c7.9-4.7,23.7-11.3,30.6-10.8c-7.7,1.9-15.2,4.9-22.2,8.7
	c-6.3,3.6-17.6,11.3-20.1,18.6c-0.9,2.6-0.4,4.6,1.7,5.6c6.7,3.4,22.2-3.1,25.3-4.4c6.1-2.8,14.7-7.9,19.2-12.5l0.1-0.1l0.1-0.1
	l0.2-0.2c0.3-0.3,0.7-0.7,1.1-1.2c2.3-2.7,5.4-7.5-1-9.6c-3-1-10.3,0-15.2,1.8c-2.5,0.9-9.2,3.6-11,4.4c2.7-2.6,11.7-6.3,15-7.5
	c2.8-1,11.7-3.5,14.5-3.6c1.3,0.1,2.6,0.2,3.9,0.5h0.1h-0.1c-4.4-0.9-6.5-0.9-8.2-1.5c-1.4-0.6-2.6-1.5-3.6-2.7
	c-3.4-3.7-8-9.5-11.5-12.3C119.2,5.3,116,5,109,5.8c-2.2-3.1-6.3-4.3-9.8-2.8c-0.3,0.2-0.7,0.3-1,0.5c-1.7,2-2.1,4.8-0.9,7.1
	c0,0,5.9-3.9,9.9-4.1L105.8,7l-1.1,0.4c-0.6,0.3-1.2,0.5-1.7,0.8c-1.2,0.6-2.4,1.3-3.4,2.1c-5.7,4.2-7.6,9-5.9,18.5
	c0.3,1.8,0.9,4.9,1.4,7.7c0.4,2.2,0.7,4.1,0.9,5.2c-1.7,1.3-4.3,5.2-5.2,6.6C90.5,49.3,90.2,50.1,89.7,50.9L89.7,50.9L89.7,50.9z
	 M123.6,12.2c3.7,3.6,6.5,8.3,9.3,11c0.2,0.2,0.4,0.4,0.6,0.6c0.5,0.6,1.2,1,1.9,1.2c-2,0-4.1,0.2-6.1,0.7c-1.3-1-5.7-7.7-8.4-11.5
	c-2-3.1-5-5.4-8.5-6.6c-0.8-0.2-1.7-0.3-2.5-0.2c-0.3,0-0.3-0.2,0-0.2c1.6-0.3,3.3-0.3,4.9-0.1C118,7.7,121.4,10.1,123.6,12.2
	L123.6,12.2z"/>
<path class="st1" d="M229.4,88.9c1.2,0,2.2-1,2.2-2.2s-1-2.2-2.2-2.2s-2.2,1-2.2,2.2v0C227.3,88,228.2,88.9,229.4,88.9z M229.4,88.6
	c-1,0-1.8-0.8-1.8-1.8s0.8-1.8,1.8-1.8s1.8,0.8,1.8,1.8v0C231.2,87.8,230.4,88.6,229.4,88.6z"/>
<path class="st1" d="M229,86.9h0.4l0.7,1.1h0.4l-0.7-1.1c0.4,0,0.6-0.3,0.6-0.7c0,0,0,0,0,0c0-0.5-0.3-0.7-0.9-0.7h-0.9v2.4h0.4
	L229,86.9L229,86.9z M229,86.6v-0.8h0.5c0.3,0,0.5,0.1,0.5,0.4s-0.3,0.4-0.6,0.4L229,86.6z"/>
<polygon class="st1" points="28.8,71 0.5,71 3,75.6 9,75.6 9,88.9 19.9,88.9 19.9,75.6 26.4,75.6 28.8,71 "/>
<path class="st1" d="M22.5,88.9H33l1.8-3.9h8.3l1.8,3.9h10.7L46,71H32.2L22.5,88.9z M39.1,75.1l2.2,5.4h-4.9L39.1,75.1L39.1,75.1z"
	/>
<path class="st1" d="M148.7,83.6c0-3.3-3.6-4-3.6-4c1.9-0.5,3.2-2.2,3.1-4.2c0.1-2.8-3.5-4.4-6-4.4h-20.7v18h19.3
	C144.5,88.9,148.6,88.1,148.7,83.6L148.7,83.6z M136.8,74.7c1.2,0,1.6,0.4,1.7,1.5c0.1,1.7-1.9,1.7-3.8,1.7h-2.6v-3.2H136.8z
	 M132.1,85.1v-3.7h4.5c1.5,0,2.2,0.8,2.3,1.8c0.1,2-2.5,1.9-3.2,1.9H132.1z"/>
<path class="st1" d="M79.2,88.2v-4.9c-2.7,0.6-5.5,0.9-8.3,0.9C67.5,84,65,82.8,65,80c0-3.8,3.4-4.4,5.9-4.5
	c5.6-0.2,6.2,0.2,6.6,0.4l2.4-4.4L79,71.2c-2.7-0.4-5.4-0.6-8.1-0.7c-4.1,0-9.5,0.5-13.2,2.7c-2.8,1.6-3.8,3.5-3.9,6.8
	c-0.1,2.9,1.4,5.6,3.9,7c3.6,1.9,8.6,2.4,13.2,2.2C77.5,88.9,79.2,88.3,79.2,88.2L79.2,88.2z"/>
<path class="st1" d="M198.4,88.9l2.5-4.7h-13.4V71h-10.9v14.7c0,1.8,1.4,3.2,3.1,3.2c0,0,0,0,0.1,0L198.4,88.9z"/>
<polygon class="st1" points="150.4,88.9 175,88.9 175,84.4 161.3,84.4 161.3,82 172.7,82 172.7,77.7 161.3,77.7 161.3,75.6 
	173.1,75.6 175.6,71 150.4,71 150.4,88.9 "/>
<path class="st1" d="M95.5,89.1c10.3,0,15.5-3.4,15.5-9.2s-5.9-9.2-15.5-9.2C86.2,70.7,80,74,80,79.9C80,87.3,87.7,89.1,95.5,89.1z
	 M95.5,84.9c-2.6,0-4.1-1.8-4.1-5c0-3.6,1.4-5,4.1-5c2.5,0,4.1,1.3,4.1,5C99.6,82.6,99,84.9,95.5,84.9z"/>
<path class="st1" d="M223.7,88.9l2.5-4.7h-13.4V71h-10.9v14.7c0,1.8,1.4,3.2,3.1,3.2c0,0,0,0,0.1,0L223.7,88.9z"/>
<path class="st1" d="M117.3,62H148V41.3C139.2,50.1,128.8,57.1,117.3,62z"/>
<polygon class="st1" points="149.7,62.2 150.3,62.2 150.3,59.7 151.2,59.7 151.2,59.2 148.8,59.2 148.8,59.7 149.7,59.7 149.7,62.2 
	"/>
<polygon class="st1" points="151.7,62.2 152.3,62.2 152.3,59.8 152.9,62.2 153.5,62.2 154.1,59.8 154.1,62.2 154.7,62.2 154.7,59.2 
	153.8,59.2 153.2,61.3 152.7,59.2 151.7,59.2 151.7,62.2 "/>
<path class="st1" d="M75.2,31.5V62h7c0.5-4.3,1.7-5.3,4.8-10.9c2.8-4.9,1-9.6,0.2-16.3c-1.7-13.5,4.8-20.7,6.8-22.4
	c-0.7-3.3,0.5-6.8,3-9.1c-4.5,1.3-12.4,5.5-17.9,14.8C78.4,19.3,75.2,25,75.2,31.5L75.2,31.5z"/>
<path class="st1" d="M109.4,5.3l2.3-0.2c0.6-0.1,1.2-0.1,1.8-0.1c4.8,0.1,9.5,1.8,13.2,5c1.3,1.1,12.4,12.4,12.9,12.7
	c2.3,1.4,4.9,2.2,7.6,2.2c-0.1-2.7-4.1-9-5.3-10.5c-6.6-8-16.3-13-26.7-13.7c-4-0.4-8,0-11.9,1C105.6,2.2,107.8,3.5,109.4,5.3
	L109.4,5.3z"/>
<path class="st1" d="M98.2,3.5L98.2,3.5c-2.9,2-4.2,5.7-3.2,9.1c-5.9,5.4-7.2,12.4-6.1,20.4c0.4,2.6,1.6,9.7,1.9,11.9
	c0.2,1.2,0.2,2.4,0,3.6c0.9-1.4,3.5-5.3,5.2-6.6c-0.4-2.5-1.7-9.7-2.3-12.9c-1.7-9.5,0.2-14.3,5.9-18.5c2.4-1.6,5-2.9,7.7-3.9
	c-3.9,0.2-9.9,4.1-9.9,4.1C96.2,8.3,96.5,5.5,98.2,3.5L98.2,3.5z"/>
<path class="st1" d="M96.9,56.3c1.3,3.2,11.8,2.6,27.5-5.2c9.4-4.7,20.2-12.7,17.8-16.6c-2.5-4.1-17,0.5-24.7,4.1
	C113.4,40.5,94.6,50.5,96.9,56.3L96.9,56.3z"/>
<path class="st1" d="M106.4,37.1c-3.9,2.3-13,8.8-16.7,13.8c-1.1,1.8-2.1,3.6-3.1,5.5c-0.7,1.5-0.8,3.1-0.5,4.7
	c0.9,2.6,5,3.4,7.4,3.4c5,0.1,13.7-2.1,18.5-3.8c9.8-3.5,19.2-8.2,27.8-14c3.3-2.3,15.7-11.3,12.9-17.2c-0.8-1.7-2.6-2.3-4.4-2.7
	c-1.3-0.3-2.6-0.4-3.9-0.5c-2.8,0-11.7,2.5-14.5,3.6c-3.3,1.2-12.3,4.9-15,7.5c1.9-0.8,8.6-3.5,11-4.4c4.9-1.7,12.2-2.7,15.2-1.8
	c8,2.6,1.1,9.6-0.4,11.1c-4.5,4.6-13,9.7-19.2,12.5c-3.1,1.4-18.5,7.8-25.3,4.4c-2.1-1.1-2.6-3-1.7-5.6c2.5-7.3,13.8-15.1,20.1-18.6
	c7-3.8,14.5-6.7,22.2-8.7C130.1,25.8,114.3,32.4,106.4,37.1L106.4,37.1z"/>
<path class="st2" d="M112,51.2c-2.6,1.1-4.8,1.3-7.2,0.3c-1-0.5-2-1.2-2.9-1.9l-1.3,1.1l0.1,0.1l0.1,0.1l0.2,0.2l0.4,0.4
	c0.3,0.3,0.7,0.6,1.1,0.9c3.2,2.4,6.8,1.8,10.2,0.4c4.2-1.5,6.5-6.2,4.9-10.4c-0.1-0.2-0.1-0.4-0.2-0.6c-3.3,0.9-9.7,3.5-11.5,5.2
	C106.2,50.5,109.4,51.6,112,51.2L112,51.2z"/>
</svg>
