<?xml version="1.0" encoding="utf-8"?>
<!-- Generator: Adobe Illustrator 21.1.0, SVG Export Plug-In . SVG Version: 6.00 Build 0)  -->
<svg version="1.1" id="Layer_1" xmlns="http://www.w3.org/2000/svg" xmlns:xlink="http://www.w3.org/1999/xlink" x="0px" y="0px"
	 viewBox="0 0 142.4 181" style="enable-background:new 0 0 142.4 181;" xml:space="preserve">
<style type="text/css">
	.st0{fill:#CC0000;}
</style>
<title>Mass</title>
<path class="st0" d="M71.6,0.5c38.7,0,70.1,31.3,70.1,70s-31.3,70.1-70,70.1c-38.7,0-70.1-31.3-70.1-70c0,0,0-0.1,0-0.1
	C1.7,31.9,33,0.6,71.6,0.5z M71.6,23.8c-25.8,0-46.7,21-46.7,46.8c0,25.8,21,46.7,46.8,46.7c25.8,0,46.7-20.9,46.7-46.7
	C118.4,44.7,97.4,23.8,71.6,23.8C71.6,23.8,71.6,23.8,71.6,23.8L71.6,23.8z"/>
<path d="M64,167.7c0.1,0.1,0.2,0.1,0.3,0.2c1.5,0.5,2.6,1.8,3,3.3c0.3,1,0.5,2,0.5,3.1c0,1.2,0.1,2.3,0.3,3.5c0.1,0.7,0.3,1.4,0.6,2
	c-0.2,0.2-0.4,0.2-0.6,0.2h-4.3c-0.7,0-0.7,0-0.9-0.6c-0.3-1.1-0.4-2.3-0.5-3.4c-0.1-0.9-0.2-1.8-0.3-2.7c-0.1-0.5-0.2-0.9-0.4-1.3
	c-0.4-0.9-1.2-1.6-2.2-1.8c-0.5-0.1-0.9-0.2-1.4-0.2H53c-0.7,0-0.7,0-0.7,0.7c0,2.8,0,5.5,0,8.3c0,0.2,0,0.4,0,0.6s-0.1,0.5-0.5,0.5
	h-1.8c-0.9,0-1.9,0-2.8,0c-0.4,0-0.6-0.1-0.6-0.5c0-0.2,0-0.3,0-0.5c0-7.9,0-15.9,0-23.8c0-1-0.1-0.9,0.9-0.9h12.9
	c1.1,0,2.1,0.2,3.1,0.5c3,1.2,4.9,4.3,4.4,7.5c-0.1,1.5-0.7,2.9-1.7,4C65.7,166.9,64.9,167.4,64,167.7z M56,165.8h2.9h0.5
	c1.4,0,2.5-0.9,2.9-2.2c0.2-0.6,0.2-1.2,0.2-1.8c0-1.7-1.3-3.1-3-3.2c-0.1,0-0.2,0-0.2,0c-2.1-0.1-4.3,0-6.4,0
	c-0.4,0-0.5,0.1-0.5,0.5c0,2.1,0,4.2,0,6.3c0,0.4,0.2,0.5,0.6,0.5C53.9,165.8,55,165.8,56,165.8L56,165.8z"/>
<path d="M90.6,177l-0.6,0.7c-1.6,1.7-3.8,2.8-6.2,2.8c-3.6,0.2-7-1.2-9.5-3.8c-1.6-1.8-2.7-4-3.1-6.4c-0.6-3-0.4-6.1,0.8-9
	c1.5-4.2,5.3-7.1,9.7-7.6c2.5-0.4,5,0,7.3,1.1c2.9,1.4,4.9,4.1,5.4,7.3c0,0.1,0,0.3,0,0.4c-0.5,0.1-1,0.1-1.6,0.1
	c-1.1,0-2.1,0-3.2,0c-0.3,0.1-0.6-0.2-0.7-0.5c0,0,0,0,0,0c-0.5-1.8-1.9-3.2-3.8-3.6c-3-0.8-6.1,0.6-7.5,3.4c-0.5,1.1-0.9,2.3-1,3.6
	c-0.3,2-0.1,4,0.6,5.9c0.6,2.1,2.3,3.7,4.4,4.2c1.5,0.4,3,0.4,4.5-0.1c2.1-0.7,3.5-2.6,3.6-4.8c0-0.4-0.2-0.4-0.4-0.4h-4.8
	c-0.3,0-0.5-0.1-0.5-0.5c0-1.1,0-2.1,0-3.2c0-0.5,0.3-0.5,0.6-0.5h9.5c0.7,0,0.7,0,0.7,0.7c0,4.2,0,8.3,0,12.5c0,0.6,0,0.7-0.6,0.7
	s-1.6,0-2.4,0c-0.6,0-0.6,0-0.7-0.6C91,178.5,90.8,177.8,90.6,177z"/>
<path d="M98.7,167c0-3.9,0-7.9,0-11.8c0-0.2,0-0.4,0-0.6s0.1-0.4,0.4-0.4h18.4c0.3,0,0.4,0.1,0.4,0.4c0,1.3,0,2.6,0,3.8
	c0,0.3-0.1,0.5-0.5,0.4s-0.5,0-0.7,0h-11.4c-0.2,0-0.4,0-0.6,0c-0.4,0-0.5,0.2-0.5,0.6c0,1.4,0,2.9,0,4.3c0,0.7,0,0.7,0.8,0.7h11.3
	c0.3,0,0.4,0.1,0.4,0.4c0,1.2,0,2.4,0,3.6c0,0.3-0.1,0.4-0.4,0.4h-11c-0.2,0-0.4,0-0.6,0c-0.4,0-0.5,0.1-0.5,0.5c0,1.8,0,3.6,0,5.4
	c0,0.3,0.1,0.5,0.5,0.5c0.2,0,0.4,0,0.6,0h11.8c0.2,0,0.4,0,0.6,0c0.4-0.1,0.5,0.2,0.5,0.6c0,1.2,0,2.4,0,3.6c0,0.6,0,0.6-0.6,0.6
	H99.7c-1.1,0-1,0.1-1-1C98.7,174.9,98.7,171,98.7,167z"/>
<path d="M44.3,179.7c-0.2,0.1-0.4,0.2-0.6,0.1h-4.5c-0.7,0-0.7,0-0.9-0.6c-0.5-1.5-1-3-1.5-4.5c-0.1-0.4-0.4-0.7-0.8-0.6
	c-2.8,0-5.6,0-8.4,0c-0.4-0.1-0.8,0.2-0.8,0.6c-0.5,1.5-1.1,3-1.6,4.6c-0.1,0.3-0.2,0.6-0.6,0.6c-1.6,0-3.3,0-4.9,0
	c-0.1,0-0.1,0-0.2-0.1c0-0.3,0-0.5,0.2-0.8c3.1-8.1,6.1-16.1,9.2-24.2c0.3-0.8,0.2-0.7,1-0.7h4.4c0.7,0,0.7-0.1,0.9,0.6l5.7,15.3
	l3.4,9C44.2,179.3,44.2,179.5,44.3,179.7z M31.9,160.5c-1.3,3.1-2.4,6.2-3.3,9.4h6.6L31.9,160.5z"/>
<path d="M11.1,154.2h10.1c0.3,0,0.4,0.1,0.4,0.4c0,1.3,0,2.6,0,3.9c0,0.3-0.1,0.4-0.4,0.4h-6.5c-0.9,0-0.9,0-0.9,0.9
	c0,5.8,0,11.5,0,17.3c0,0.7,0,1.5,0,2.2s0,0.7-0.6,0.7c-1.5,0-2.9,0-4.4,0c-0.6,0-0.6,0-0.6-0.6c0-0.2,0-0.4,0-0.6
	c0-6.3,0-12.6,0-18.9c0-1.1,0-1-1-1h-6c-0.7,0-0.7,0-0.7-0.7c0-1.1,0-2.2,0-3.3c0-0.7,0-0.7,0.8-0.7L11.1,154.2L11.1,154.2z"/>
<path d="M131.4,154.2h9.5c0.2,0,0.4,0,0.6,0s0.5,0.1,0.5,0.4c0,1.3,0,2.5,0,3.8c0,0.4-0.1,0.5-0.5,0.5c-0.9,0-1.7,0-2.6,0h-4.1
	c-0.6,0-0.6,0-0.6,0.6s0,1.1,0,1.7c0,5.9,0,11.8,0,17.7c0,0.2,0,0.4,0,0.6s-0.1,0.4-0.4,0.4H129c-0.3,0-0.4-0.1-0.4-0.4s0-0.4,0-0.6
	c0-6.3,0-12.5,0-18.8c0-1.4,0.2-1.2-1.2-1.2h-5.9c-0.6,0-0.6,0-0.6-0.6c0-1.1,0-2.3,0-3.4c0-0.6,0-0.6,0.6-0.7L131.4,154.2
	L131.4,154.2z"/>
<path class="st0" d="M71.6,94.5c-13.3,0-24-10.7-24-24s10.7-24,24-24s24,10.7,24,24v0c0,13.2-10.7,24-23.9,24
	C71.7,94.5,71.6,94.5,71.6,94.5z"/>
</svg>
