<?xml version="1.0" encoding="utf-8"?>
<!-- Generator: Adobe Illustrator 21.1.0, SVG Export Plug-In . SVG Version: 6.00 Build 0)  -->
<svg version="1.1" id="Layer_1" xmlns="http://www.w3.org/2000/svg" xmlns:xlink="http://www.w3.org/1999/xlink" x="0px" y="0px"
	 viewBox="0 0 209.9 110.7" style="enable-background:new 0 0 209.9 110.7;" xml:space="preserve">
<style type="text/css">
	.st0{fill:#231F20;}
	.st1{fill:none;stroke:#FFD600;stroke-width:1.3091;stroke-miterlimit:2.6131;}
	.st2{fill:#FFE200;}
	.st3{fill:none;stroke:#EC1C24;stroke-width:0.4749;stroke-miterlimit:2.6131;}
	.st4{fill:#719171;}
	.st5{fill:none;stroke:#FFD600;stroke-width:0.9544;stroke-miterlimit:2.6131;}
	.st6{fill:none;stroke:#FFD600;stroke-width:0.3273;stroke-miterlimit:2.6131;}
	.st7{fill:#FFFFFF;}
	.st8{fill:#EC1C24;}
	.st9{fill:none;stroke:#EC1C24;stroke-width:2.1846;stroke-miterlimit:2.6131;}
	.st10{fill:none;stroke:#EC1C24;stroke-width:2.0967;stroke-miterlimit:2.6131;}
	.st11{fill:none;stroke:#EC1C24;stroke-width:2.2132;stroke-miterlimit:2.6131;}
	.st12{fill:none;stroke:#EC1C24;stroke-width:2.1714;stroke-miterlimit:2.6131;}
	.st13{fill:none;stroke:#EC1C24;stroke-width:2.2347;stroke-miterlimit:2.6131;}
	.st14{fill:none;stroke:#FFD600;stroke-width:0.6546;stroke-miterlimit:2.6131;}
	.st15{fill:#FAFDFF;}
</style>
<title>Casual dining</title>
<path class="st0" d="M129.8,24c0,13-10.5,23.5-23.5,23.5c-13,0-23.5-10.5-23.5-23.5c0-13,10.5-23.5,23.5-23.5c0,0,0,0,0,0
	C119.3,0.5,129.8,11,129.8,24z"/>
<path class="st0" d="M187.6,83.3c0,5.7-4.6,10.3-10.3,10.3c0,0,0,0,0,0h-142c-5.7,0-10.3-4.6-10.3-10.2c0,0,0,0,0,0V53
	c0-5.7,4.6-10.3,10.3-10.3h142c5.7,0,10.3,4.6,10.3,10.3v0L187.6,83.3L187.6,83.3z"/>
<path class="st0" d="M151.4,64.2c0,7.3-3.3,13.3-7.4,13.3H66.6c-4.1,0-7.4-5.9-7.4-13.3V39c0-7.3,3.3-13.3,7.4-13.3H144
	c4.1,0,7.4,5.9,7.4,13.3L151.4,64.2L151.4,64.2z"/>
<path class="st0" d="M209.4,73.8c0,3.5-7.5,6.4-16.8,6.4H17.3c-9.3,0-16.8-2.9-16.8-6.4V61.7c0-3.5,7.5-6.4,16.8-6.4h175.3
	c9.3,0,16.8,2.9,16.8,6.4V73.8z"/>
<path class="st0" d="M152.6,96.9c0,7.3-3.4,13.3-7.5,13.3h-78c-4.1,0-7.5-5.9-7.5-13.3V71.7c0-7.3,3.3-13.3,7.5-13.3h78
	c4.1,0,7.5,5.9,7.5,13.3V96.9z"/>
<path class="st1" d="M125.3,23.1c0,10.7-8.7,19.4-19.5,19.4s-19.4-8.7-19.4-19.5s8.7-19.4,19.5-19.4c0,0,0,0,0,0
	C116.7,3.6,125.4,12.3,125.3,23.1C125.4,23.1,125.4,23.1,125.3,23.1L125.3,23.1z"/>
<path class="st2" d="M67.8,97.5c2.5-0.6,4.7-1.5,5-2.8c0.1-0.4-0.2-0.7-0.8-0.7c-1.3,0.1-2.5,0.4-3.6,1L67.8,97.5L67.8,97.5z
	 M64.7,103.2c0.1-0.2,0.2-0.4,0.3-0.6l1.8-6.9c0,0-0.1,0-0.2,0c-0.2,0-0.3-0.2-0.2-0.7c0.1-0.4,0.3-0.8,0.7-1l0.1-0.4
	c0-0.2,0-0.3,0-0.5c0.1-0.5,0.6-0.8,1.1-0.8c0.5,0,0.7,0.4,0.4,1v0.2c1.2-0.6,2.6-1,4-1c1.2,0,1.9,0.7,1.6,1.9
	c-0.5,1.8-2.5,3.3-5.8,3.9l3.9,4.2c0.3-0.1,0.6,0,0.8,0.3c0.1,0.1,0.1,0.3,0,0.4c-0.1,0.6-0.6,1-1.2,1c-0.3,0-0.5-0.2-0.6-0.5
	l-4.2-4.6l-0.9,3.5c0,0.2,0,0.4,0,0.6c-0.2,0.6-0.7,1-1.3,0.9C64.7,104,64.6,103.6,64.7,103.2L64.7,103.2L64.7,103.2z"/>
<path class="st3" d="M67.8,97.5c2.5-0.6,4.7-1.5,5-2.8c0.1-0.4-0.2-0.7-0.8-0.7c-1.3,0.1-2.5,0.4-3.6,1L67.8,97.5L67.8,97.5z
	 M64.7,103.2c0.1-0.2,0.2-0.4,0.3-0.6l1.8-6.9c0,0-0.1,0-0.2,0c-0.2,0-0.3-0.2-0.2-0.7c0.1-0.4,0.3-0.8,0.7-1l0.1-0.4
	c0-0.2,0-0.3,0-0.5c0.1-0.5,0.6-0.8,1.1-0.8c0.5,0,0.7,0.4,0.4,1v0.2c1.2-0.6,2.6-1,4-1c1.2,0,1.9,0.7,1.6,1.9
	c-0.5,1.8-2.5,3.3-5.8,3.9l3.9,4.2c0.3-0.1,0.6,0,0.8,0.3c0.1,0.1,0.1,0.3,0,0.4c-0.1,0.6-0.6,1-1.2,1c-0.3,0-0.5-0.2-0.6-0.5
	l-4.2-4.6l-0.9,3.5c0,0.2,0,0.4,0,0.6c-0.2,0.6-0.7,1-1.3,0.9C64.7,104,64.6,103.6,64.7,103.2L64.7,103.2L64.7,103.2z"/>
<path class="st2" d="M80.9,93.5c-1.6,0-4.2,3.3-4.9,6c-0.4,1.6-0.3,3.5,1.1,3.5c1.7,0,4-2.2,4.7-5.3C82.6,94.8,82.2,93.5,80.9,93.5
	L80.9,93.5z M81.4,92.1c1.8,0,3,1.5,2,5.5s-4.1,6.8-6.9,6.8c-2.5,0-2.6-2.7-2.1-4.7C75.4,96.1,78.8,92.1,81.4,92.1L81.4,92.1z"/>
<path class="st3" d="M80.9,93.5c-1.6,0-4.2,3.3-4.9,6c-0.4,1.6-0.3,3.5,1.1,3.5c1.7,0,4-2.2,4.7-5.3C82.6,94.8,82.2,93.5,80.9,93.5
	L80.9,93.5z M81.4,92.1c1.8,0,3,1.5,2,5.5s-4.1,6.8-6.9,6.8c-2.5,0-2.6-2.7-2.1-4.7C75.4,96.1,78.8,92.1,81.4,92.1L81.4,92.1z"/>
<path class="st2" d="M89.8,98.4l-0.4-3.3l-2.3,3.5L89.8,98.4z M86.2,100.1c-0.6,0.8-1.2,1.7-1.7,2.6c-0.1,0.3-0.2,0.5-0.2,0.8
	c-0.1,0.5-0.6,0.8-1.1,0.8c-0.6,0-0.7-0.4-0.6-0.8c0.4-0.8,0.9-1.6,1.4-2.4l4.2-6.1c0.3-0.5,0.7-1,0.9-1.5c0.1-0.6,0.6-1.1,1.2-1.2
	c0.3,0,0.6,0.2,0.6,0.5c0,0.1,0,0.1,0,0.2c-0.1,0.3-0.2,0.4-0.3,0.7c0.1,1.5,0.3,3,0.6,4.4c0.4,1.7,0.6,3.4,0.5,5.1
	c-0.1,0.6-0.6,1-1.2,1.1c-0.5,0-0.7-0.3-0.6-0.7s0.2-0.5,0.3-0.6c0.1-1,0-2.1-0.2-3.1L86.2,100.1L86.2,100.1z"/>
<path class="st3" d="M89.8,98.4l-0.4-3.3l-2.3,3.5L89.8,98.4z M86.2,100.1c-0.6,0.8-1.2,1.7-1.7,2.6c-0.1,0.3-0.2,0.5-0.2,0.8
	c-0.1,0.5-0.6,0.8-1.1,0.8c-0.6,0-0.7-0.4-0.6-0.8c0.4-0.8,0.9-1.6,1.4-2.4l4.2-6.1c0.3-0.5,0.7-1,0.9-1.5c0.1-0.6,0.6-1.1,1.2-1.2
	c0.3,0,0.6,0.2,0.6,0.5c0,0.1,0,0.1,0,0.2c-0.1,0.3-0.2,0.4-0.3,0.7c0.1,1.5,0.3,3,0.6,4.4c0.4,1.7,0.6,3.4,0.5,5.1
	c-0.1,0.6-0.6,1-1.2,1.1c-0.5,0-0.7-0.3-0.6-0.7s0.2-0.5,0.3-0.6c0.1-1,0-2.1-0.2-3.1L86.2,100.1L86.2,100.1z"/>
<path class="st2" d="M94.6,102.7c1.5-0.2,3-0.9,4.1-2c1.1-1.1,2-2.5,2.4-4.1c0.3-1.3-0.2-2.7-1.5-2.7c-1.1,0.1-2.1,0.4-3,0.9
	L94.6,102.7L94.6,102.7z M92.8,103.6c0.1-0.3,0.2-0.5,0.4-0.7l2.3-9c0-0.2,0-0.4,0-0.6c0.2-0.5,0.6-0.8,1.1-0.8
	c0.6,0,0.6,0.4,0.4,0.8c1-0.5,2.2-0.8,3.3-0.8c1.9,0,2.8,2,2.3,4c-1.1,4.3-4.8,7.5-9.2,7.8C92.8,104.3,92.6,104.1,92.8,103.6
	L92.8,103.6L92.8,103.6z"/>
<path class="st3" d="M94.6,102.7c1.5-0.2,3-0.9,4.1-2c1.1-1.1,2-2.5,2.4-4.1c0.3-1.3-0.2-2.7-1.5-2.7c-1.1,0.1-2.1,0.4-3,0.9
	L94.6,102.7L94.6,102.7z M92.8,103.6c0.1-0.3,0.2-0.5,0.4-0.7l2.3-9c0-0.2,0-0.4,0-0.6c0.2-0.5,0.6-0.8,1.1-0.8
	c0.6,0,0.6,0.4,0.4,0.8c1-0.5,2.2-0.8,3.3-0.8c1.9,0,2.8,2,2.3,4c-1.1,4.3-4.8,7.5-9.2,7.8C92.8,104.3,92.6,104.1,92.8,103.6
	L92.8,103.6L92.8,103.6z"/>
<path class="st2" d="M104.1,102.8c0,0.2,0,0.4,0,0.6c-0.1,0.4-0.5,0.8-0.9,0.8c-0.7,0-0.9-0.3-0.8-0.7c0.1-0.2,0.2-0.4,0.3-0.6
	l1-3.9c-0.1-0.2-0.2-0.4-0.1-0.6c0.1-0.5,0.3-0.8,0.5-0.9l0.9-3.6c0-0.2,0-0.3,0-0.5c0.2-0.5,0.7-0.8,1.2-0.8c0.3,0,0.6,0.3,0.5,0.7
	c0,0,0,0.1,0,0.1c0,0.2-0.1,0.4-0.3,0.6l-0.9,3.4l4.6-0.3l0.8-3c-0.1-0.2-0.1-0.4,0-0.7c0.1-0.4,0.5-0.7,1-0.8
	c0.4,0,0.8,0.4,0.7,0.7c0,0.2-0.1,0.4-0.3,0.6l-2.3,9c0,0.2,0,0.4,0,0.6c-0.2,0.4-0.6,0.7-1.1,0.7c-0.4,0-0.7-0.2-0.7-0.6
	c0-0.1,0-0.2,0-0.2c0.1-0.2,0.2-0.4,0.3-0.6l1.1-4.2l-4.6,0.3L104.1,102.8L104.1,102.8z"/>
<path class="st3" d="M104.1,102.8c0,0.2,0,0.4,0,0.6c-0.1,0.4-0.5,0.8-0.9,0.8c-0.7,0-0.9-0.3-0.8-0.7c0.1-0.2,0.2-0.4,0.3-0.6
	l1-3.9c-0.1-0.2-0.2-0.4-0.1-0.6c0.1-0.5,0.3-0.8,0.5-0.9l0.9-3.6c0-0.2,0-0.3,0-0.5c0.2-0.5,0.7-0.8,1.2-0.8c0.3,0,0.6,0.3,0.5,0.7
	c0,0,0,0.1,0,0.1c0,0.2-0.1,0.4-0.3,0.6l-0.9,3.4l4.6-0.3l0.8-3c-0.1-0.2-0.1-0.4,0-0.7c0.1-0.4,0.5-0.7,1-0.8
	c0.4,0,0.8,0.4,0.7,0.7c0,0.2-0.1,0.4-0.3,0.6l-2.3,9c0,0.2,0,0.4,0,0.6c-0.2,0.4-0.6,0.7-1.1,0.7c-0.4,0-0.7-0.2-0.7-0.6
	c0-0.1,0-0.2,0-0.2c0.1-0.2,0.2-0.4,0.3-0.6l1.1-4.2l-4.6,0.3L104.1,102.8L104.1,102.8z"/>
<path class="st2" d="M118.8,93.5c-1.6,0-4.2,3.3-4.9,6c-0.4,1.6-0.3,3.5,1.1,3.5c1.7,0,4-2.2,4.7-5.3
	C120.5,94.9,120,93.5,118.8,93.5L118.8,93.5z M119.3,92.1c1.8,0,3,1.5,2,5.5s-4.1,6.8-6.9,6.8c-2.5,0-2.6-2.7-2.1-4.7
	C113.2,96.2,116.6,92.1,119.3,92.1L119.3,92.1z"/>
<path class="st3" d="M118.8,93.5c-1.6,0-4.2,3.3-4.9,6c-0.4,1.6-0.3,3.5,1.1,3.5c1.7,0,4-2.2,4.7-5.3
	C120.5,94.9,120,93.5,118.8,93.5L118.8,93.5z M119.3,92.1c1.8,0,3,1.5,2,5.5s-4.1,6.8-6.9,6.8c-2.5,0-2.6-2.7-2.1-4.7
	C113.2,96.2,116.6,92.1,119.3,92.1L119.3,92.1z"/>
<path class="st2" d="M123.7,104.4c-2,0-2.2-1.5-1.9-2.6l2-8c-0.1-0.5,0.3-1.1,0.8-1.1c0.1,0,0.1,0,0.2,0c0.6,0,0.6,0.7,0.5,1
	l-2.1,8.2c0,0.5,0.4,0.9,1,0.9c0,0,0,0,0,0c1.4,0,2.8-0.8,3.5-2l1.8-7.1c-0.1-0.1-0.1-0.3,0-0.4c0.1-0.5,0.6-0.8,1.1-0.8
	c0.3,0,0.5,0.2,0.5,0.5c0,0.1,0,0.2,0,0.2c0,0.1-0.1,0.3-0.2,0.4l-1.9,7.5c-0.3,0.8-0.9,1.4-1.5,1.9
	C126.4,103.8,125.1,104.3,123.7,104.4L123.7,104.4z"/>
<path class="st3" d="M123.7,104.4c-2,0-2.2-1.5-1.9-2.6l2-8c-0.1-0.5,0.3-1.1,0.8-1.1c0.1,0,0.1,0,0.2,0c0.6,0,0.6,0.7,0.5,1
	l-2.1,8.2c0,0.5,0.4,0.9,1,0.9c0,0,0,0,0,0c1.4,0,2.8-0.8,3.5-2l1.8-7.1c-0.1-0.1-0.1-0.3,0-0.4c0.1-0.5,0.6-0.8,1.1-0.8
	c0.3,0,0.5,0.2,0.5,0.5c0,0.1,0,0.2,0,0.2c0,0.1-0.1,0.3-0.2,0.4l-1.9,7.5c-0.3,0.8-0.9,1.4-1.5,1.9
	C126.4,103.8,125.1,104.3,123.7,104.4L123.7,104.4z"/>
<path class="st2" d="M137.8,92.6c1.4,0,2.3,1,2.1,1.8c-0.1,0.4-0.4,0.7-0.9,0.7c-0.6,0-0.8-0.3-0.7-0.6c-0.1-0.3-0.5-0.5-1.1-0.5
	c-1.7,0.1-3.2,1.2-3.8,2.8c-0.2,0.6,0.1,0.9,0.4,0.9c0.7-0.1,1.3-0.2,1.9-0.4c0.8-0.3,1.5-0.4,2.3-0.4c1.3,0,2.1,0.8,1.7,2.4
	c-0.3,1-0.8,2-1.5,2.7c-1.5,1.5-3.5,2.4-5.6,2.5c-1.1,0.1-2-0.7-2.1-1.7c0-0.2,0-0.4,0-0.5c0.1-0.5,0.6-0.9,1.1-1
	c0.5,0,0.4,0.7,0.5,1.1c0.1,0.5,0.5,0.8,0.9,0.7c0,0,0,0,0.1,0c1.5-0.1,2.9-0.8,4-1.8c0.6-0.5,0.9-1.2,1.1-1.9c0.2-0.8-0.1-1-0.7-1
	c-0.7,0-1.5,0.2-2.1,0.4c-0.7,0.3-1.5,0.4-2.2,0.4c-1.1,0-1.7-0.6-1.3-2.2C132.8,94.5,135.1,92.8,137.8,92.6L137.8,92.6z"/>
<path class="st3" d="M137.8,92.6c1.4,0,2.3,1,2.1,1.8c-0.1,0.4-0.4,0.7-0.9,0.7c-0.6,0-0.8-0.3-0.7-0.6c-0.1-0.3-0.5-0.5-1.1-0.5
	c-1.7,0.1-3.2,1.2-3.8,2.8c-0.2,0.6,0.1,0.9,0.4,0.9c0.7-0.1,1.3-0.2,1.9-0.4c0.8-0.3,1.5-0.4,2.3-0.4c1.3,0,2.1,0.8,1.7,2.4
	c-0.3,1-0.8,2-1.5,2.7c-1.5,1.5-3.5,2.4-5.6,2.5c-1.1,0.1-2-0.7-2.1-1.7c0-0.2,0-0.4,0-0.5c0.1-0.5,0.6-0.9,1.1-1
	c0.5,0,0.4,0.7,0.5,1.1c0.1,0.5,0.5,0.8,0.9,0.7c0,0,0,0,0.1,0c1.5-0.1,2.9-0.8,4-1.8c0.6-0.5,0.9-1.2,1.1-1.9c0.2-0.8-0.1-1-0.7-1
	c-0.7,0-1.5,0.2-2.1,0.4c-0.7,0.3-1.5,0.4-2.2,0.4c-1.1,0-1.7-0.6-1.3-2.2C132.8,94.5,135.1,92.8,137.8,92.6L137.8,92.6z"/>
<path class="st2" d="M141.9,102.7l4.3-0.4c0.1-0.2,0.3-0.2,0.6-0.3c0.4,0,0.7,0.3,0.7,0.6c0,0.1,0,0.1,0,0.2
	c-0.2,0.8-0.7,0.9-1.5,0.9l-4.4,0.4c-0.3,0.2-0.6,0.3-0.9,0.3c-0.4,0-0.7-0.3-0.6-0.9c0.1-0.3,0.2-0.6,0.4-0.8l0.9-3.4
	c-0.1-0.2-0.2-0.5-0.1-0.8c0.1-0.3,0.3-0.6,0.5-0.8l0.7-2.8c-0.2-0.2-0.2-0.5-0.1-0.7c0.1-0.3,0.2-0.5,0.4-0.7c0-0.1,0-0.2,0-0.3
	c0.2-0.4,0.6-0.7,1-0.6c0.5,0,0.7,0.3,0.6,0.6l3.7-0.4c0.2-0.1,0.4-0.2,0.6-0.3c0.3,0,0.6,0.2,0.7,0.5c0,0.1,0,0.2,0,0.3
	c-0.1,0.6-0.6,1-1.1,1.1c-0.2,0-0.3-0.1-0.5-0.1l-3.8,0.4l-0.8,3l3-0.4c0.2-0.1,0.4-0.2,0.6-0.3c0.5,0,0.7,0.5,0.6,0.9
	c-0.1,0.5-0.6,0.9-1.1,0.9c-0.1,0-0.2,0-0.3-0.1l-3.2,0.4L141.9,102.7L141.9,102.7z"/>
<path class="st3" d="M141.9,102.7l4.3-0.4c0.1-0.2,0.3-0.2,0.6-0.3c0.4,0,0.7,0.3,0.7,0.6c0,0.1,0,0.1,0,0.2
	c-0.2,0.8-0.7,0.9-1.5,0.9l-4.4,0.4c-0.3,0.2-0.6,0.3-0.9,0.3c-0.4,0-0.7-0.3-0.6-0.9c0.1-0.3,0.2-0.6,0.4-0.8l0.9-3.4
	c-0.1-0.2-0.2-0.5-0.1-0.8c0.1-0.3,0.3-0.6,0.5-0.8l0.7-2.8c-0.2-0.2-0.2-0.5-0.1-0.7c0.1-0.3,0.2-0.5,0.4-0.7c0-0.1,0-0.2,0-0.3
	c0.2-0.4,0.6-0.7,1-0.6c0.5,0,0.7,0.3,0.6,0.6l3.7-0.4c0.2-0.1,0.4-0.2,0.6-0.3c0.3,0,0.6,0.2,0.7,0.5c0,0.1,0,0.2,0,0.3
	c-0.1,0.6-0.6,1-1.1,1.1c-0.2,0-0.3-0.1-0.5-0.1l-3.8,0.4l-0.8,3l3-0.4c0.2-0.1,0.4-0.2,0.6-0.3c0.5,0,0.7,0.5,0.6,0.9
	c-0.1,0.5-0.6,0.9-1.1,0.9c-0.1,0-0.2,0-0.3-0.1l-3.2,0.4L141.9,102.7L141.9,102.7z"/>
<path class="st4" d="M90.9,23.8h8.3V11.7l5.9,0.5v5.4l1.1,0.6l0.6,0.1l1.6,0.3l1.5,0.2l0.2,0.3l6,0.3l2,0.2v0.8l-0.1,2.2l0.9,0.4
	l-0.1,1.8l0.6,0.1l-0.3,4.6c0,0-5.9,3.4-7.4,6.2c0,1.2,0.1,2.4,0.3,3.6c-1.4,0.7-3.1,0.2-4.1-1l-5.1-7.6c0,0-2.5-0.9-2.9-0.6
	c0,0-0.3,2.1-0.6,2.1l-1.2,0.1l-0.6-0.5C97.5,31.7,90.7,24.2,90.9,23.8L90.9,23.8z"/>
<path class="st5" d="M90.9,23.8h8.3V11.7l5.9,0.5v5.4l1.1,0.6l0.6,0.1l1.6,0.3l1.5,0.2l0.2,0.3l6,0.3l2,0.2v0.8l-0.1,2.2l0.9,0.4
	l-0.1,1.8l0.6,0.1l-0.3,4.6c0,0-5.9,3.4-7.4,6.2c0,1.2,0.1,2.4,0.3,3.6c-1.4,0.7-3.1,0.2-4.1-1l-5.1-7.6c0,0-2.5-0.9-2.9-0.6
	c0,0-0.3,2.1-0.6,2.1l-1.2,0.1l-0.6-0.5C97.5,31.7,90.7,24.2,90.9,23.8L90.9,23.8z"/>
<polygon class="st0" points="98.3,14.8 95.9,14.5 94.7,14.9 93.8,15 92.8,15.6 92.6,16.5 93.6,17.5 95.2,18.4 97.3,18.7 98.2,18.3 
	100.7,17.6 102.8,16.7 104.3,15.6 106.2,14.9 108.4,14 110.2,13.7 112.7,13.7 113,13.6 113.3,12.7 112.1,11.9 111,11.8 108.6,11.4 
	107.4,11.4 106.6,11.1 106.1,10.6 105.6,9.9 105.2,9.3 104.8,8.8 104.3,8.1 103.8,7.7 103.3,7.5 102.3,7.4 101.5,7.4 100.4,7.4 
	99.4,7.6 98.7,8.1 98.1,8.8 98,9.9 98,10.7 98.1,11.8 98.4,13 98.5,13.8 98.3,14.8 "/>
<path class="st6" d="M98.3,14.8l-2.3-0.3l-1.2,0.4L93.8,15l-1,0.6l-0.2,0.9l1,1l1.6,0.9l2.1,0.3l0.9-0.4l2.6-0.7l2.1-0.9l1.5-1.1
	l1.9-0.7l2.2-0.8l1.8-0.4h2.5l0.3-0.1l0.4-0.9l-1.2-0.7l-1.1-0.2l-2.5-0.4h-1.2l-0.8-0.3l-0.5-0.6l-0.6-0.7l-0.4-0.6l-0.4-0.6
	l-0.6-0.6l-0.5-0.5l-0.6-0.2l-1-0.1h-1.9l-1,0.2l-0.6,0.6l-0.6,0.7l-0.1,1v0.8l0.1,1.1l0.3,1.2l0.1,0.8L98.3,14.8L98.3,14.8z
	 M93.3,15.3l0.9-0.2l0.9-0.5l0.8-0.2l0.4,0.3l0.4,3.7l3.2-1.8l0.9-1.1l0.8-1.2c0,0-2.6,1.7-3.4,0s0.2-0.1,0.2-0.1l0.6-2l0.6-0.6
	l0.7-1l0.3-1.5l0.3-0.9l0.5-0.6l0.6-0.4h0.8l0.6,0.1l0.6,0.2 M99.9,16.6c0,0,1.7-2.9,4-3.7c1.6-0.6,2-1.8,8.3-1 M98.3,14.7l-2.4-0.2
	l-1.2,0.4L93.8,15l-1,0.6l-0.2,0.9l1,1l1.6,0.9l2.1,0.3l0.9-0.4l2.6-0.7l2.1-0.9l1.5-1.1l1.9-0.7l2.2-0.8l1.8-0.4h2.5l0.3-0.1
	l0.4-0.9l-1.2-0.7l-1.1-0.2l-2.5-0.4h-1.2l-0.8-0.3l-0.5-0.6l-0.6-0.7l-0.4-0.6l-0.4-0.6l-0.6-0.6l-0.5-0.5l-0.6-0.2l-1-0.1h-0.8
	L100.1,7l-0.9,0.4l-0.8,0.8l-0.2,0.6l-0.1,1v0.8l0.1,1.1l0.3,1.2l0.1,0.8L98.3,14.7L98.3,14.7z"/>
<path class="st7" d="M84,32c-0.1,0.8-0.8,1.4-1.6,1.4H65.7c-0.8,0.1-1.5-0.6-1.6-1.4l0,0c0.1-0.8,0.8-1.4,1.6-1.4h16.7
	C83.2,30.5,84,31.2,84,32L84,32z"/>
<path class="st7" d="M148.2,32c-0.1,0.8-0.8,1.4-1.6,1.4h-16.7c-0.8,0.1-1.5-0.6-1.6-1.4l0,0c0.1-0.8,0.8-1.4,1.6-1.4h16.7
	C147.5,30.5,148.2,31.2,148.2,32L148.2,32z"/>
<path class="st7" d="M87.4,39c0,0.8-0.9,1.4-2,1.4H63.8c-1.1,0-2-0.6-2-1.4l0,0c0-0.8,0.9-1.4,2-1.4h21.6
	C86.5,37.6,87.4,38.2,87.4,39L87.4,39z"/>
<path class="st7" d="M150.7,39c0,0.8-0.9,1.4-2,1.4h-21.6c-1.1,0-2-0.6-2-1.4l0,0c0-0.8,0.9-1.4,2-1.4h21.6
	C149.8,37.6,150.7,38.2,150.7,39L150.7,39z"/>
<path class="st7" d="M50.3,45.8c-0.1,0.8-0.8,1.4-1.6,1.4h-17c-0.8,0.1-1.5-0.6-1.6-1.4l0,0c0.1-0.8,0.8-1.4,1.6-1.4h17
	C49.5,44.4,50.2,45,50.3,45.8z"/>
<path class="st7" d="M84,45.8c0,0.8-1.3,1.4-3,1.4H49.6c-1.6,0-3-0.6-3-1.4l0,0c0-0.8,1.3-1.4,3-1.4H81C82.7,44.4,84,45,84,45.8
	L84,45.8z"/>
<path class="st7" d="M94.6,45.8c-0.1,0.8-0.8,1.4-1.6,1.4H76c-0.8,0.1-1.5-0.6-1.6-1.4l0,0c0.1-0.8,0.8-1.4,1.6-1.4h17
	C93.8,44.4,94.6,45,94.6,45.8z"/>
<path class="st7" d="M137.9,45.8c-0.1,0.8-0.8,1.4-1.6,1.4h-17c-0.8,0.1-1.5-0.6-1.6-1.4l0,0c0.1-0.8,0.8-1.4,1.6-1.4h17
	C137.1,44.4,137.9,45,137.9,45.8z"/>
<path class="st7" d="M171.6,45.8c0,0.8-1.3,1.4-3,1.4h-31.4c-1.6,0-3-0.6-3-1.4l0,0c0-0.8,1.3-1.4,3-1.4h31.4
	C170.3,44.4,171.6,45,171.6,45.8z"/>
<path class="st7" d="M182.3,45.8c-0.1,0.8-0.8,1.4-1.6,1.4h-17c-0.8,0.1-1.5-0.6-1.6-1.4l0,0c0.1-0.8,0.8-1.4,1.6-1.4h17
	C181.5,44.4,182.2,45,182.3,45.8z"/>
<path class="st7" d="M78.1,89.6c0,0.8-1.7,1.4-3.8,1.4H33.9c-2.1,0-3.8-0.6-3.8-1.4l0,0c0-0.8,1.7-1.4,3.8-1.4h40.4
	C76.3,88.2,78.1,88.9,78.1,89.6z"/>
<path class="st7" d="M158.1,89.6c0,0.8-3.1,1.4-7,1.4H76.5c-3.9,0-7-0.6-7-1.4l0,0c0-0.8,3.2-1.4,7-1.4H151
	C154.9,88.2,158,88.9,158.1,89.6L158.1,89.6z"/>
<path class="st7" d="M183.3,89.6c0,0.8-1.7,1.4-3.8,1.4h-40.4c-2.1,0-3.8-0.6-3.8-1.4l0,0c0-0.8,1.7-1.4,3.8-1.4h40.4
	C181.6,88.2,183.3,88.9,183.3,89.6L183.3,89.6z"/>
<path class="st7" d="M93.7,107.8c0,0.6-0.8,1.1-1.8,1.1H72.5c-1,0-1.8-0.5-1.8-1.1l0,0c0-0.6,0.8-1.1,1.8-1.1h19.4
	C92.8,106.6,93.7,107.1,93.7,107.8z"/>
<path class="st7" d="M132,107.8c0,0.6-1.5,1.1-3.4,1.1H92.9c-1.9,0-3.4-0.5-3.4-1.1l0,0c0-0.6,1.5-1.1,3.4-1.1h35.7
	C130.5,106.6,132.1,107.1,132,107.8L132,107.8z"/>
<path class="st7" d="M144.1,107.8c0,0.6-0.8,1.1-1.8,1.1h-19.4c-1,0-1.8-0.5-1.8-1.1l0,0c0-0.6,0.8-1.1,1.8-1.1h19.4
	C143.3,106.6,144.1,107.1,144.1,107.8L144.1,107.8z"/>
<polygon class="st8" points="33.5,56.6 33.5,50.5 58.6,50.5 58.6,56.6 49.4,56.6 49.4,83.8 42.7,83.8 42.7,56.6 33.5,56.6 "/>
<polygon class="st9" points="33.5,56.6 33.5,50.5 58.6,50.5 58.6,56.6 49.4,56.6 49.4,83.8 42.7,83.8 42.7,56.6 33.5,56.6 "/>
<polygon class="st8" points="84.2,50.5 84.2,56.6 69.3,56.6 69.3,63.8 83,63.8 83,69.5 69.3,69.5 69.3,77.7 84.5,77.7 84.5,83.8 
	63.1,83.8 63.1,50.5 84.2,50.5 "/>
<polygon class="st10" points="84.2,50.5 84.2,56.6 69.3,56.6 69.3,63.8 83,63.8 83,69.5 69.3,69.5 69.3,77.7 84.5,77.7 84.5,83.8 
	63.1,83.8 63.1,50.5 84.2,50.5 "/>
<polygon class="st8" points="90.6,50.5 98.6,50.5 104.8,61.2 111.2,50.5 118.7,50.5 108.7,66.4 119.6,83.8 111.4,83.8 104.5,72.3 
	97.5,83.8 89.8,83.8 100.7,66.4 90.6,50.5 "/>
<polygon class="st11" points="90.6,50.5 98.6,50.5 104.8,61.2 111.2,50.5 118.7,50.5 108.7,66.4 119.6,83.8 111.4,83.8 104.5,72.3 
	97.5,83.8 89.8,83.8 100.7,66.4 90.6,50.5 "/>
<path class="st8" d="M141.8,71l-3.8-12.2h-0.1L133.9,71H141.8z M141.4,50.5l11.3,33.2h-6.9l-2.3-7.4h-11.3l-2.4,7.4h-6.7l11.4-33.2
	H141.4z"/>
<path class="st12" d="M141.8,71l-3.8-12.2h-0.1L133.9,71H141.8z M141.4,50.5l11.3,33.2h-6.9l-2.3-7.4h-11.3l-2.4,7.4h-6.7l11.4-33.2
	H141.4z"/>
<path class="st8" d="M159.4,75.6c0.3,0.7,0.8,1.4,1.4,1.9c0.6,0.5,1.3,0.9,2,1.1c0.8,0.2,1.6,0.4,2.4,0.4c0.6,0,1.2-0.1,1.8-0.2
	c0.6-0.1,1.3-0.3,1.8-0.6c0.6-0.3,1.1-0.7,1.4-1.3c0.4-0.6,0.6-1.3,0.6-2.1c0-0.8-0.2-1.6-0.8-2.2c-0.6-0.6-1.2-1.1-2-1.4
	c-0.9-0.4-1.8-0.7-2.8-1c-1-0.3-2.1-0.6-3.1-0.9c-1.1-0.3-2.1-0.7-3.1-1.1c-1-0.4-1.9-1-2.8-1.7c-0.8-0.7-1.5-1.6-2-2.7
	c-0.5-1.2-0.8-2.5-0.8-3.9c0-1.5,0.3-3,0.9-4.4c0.6-1.2,1.4-2.3,2.5-3.1c1-0.8,2.2-1.5,3.5-1.9c1.3-0.4,2.6-0.6,3.9-0.6
	c1.5,0,2.9,0.2,4.3,0.6c1.3,0.4,2.6,1,3.7,1.9c1.1,0.9,2,2,2.6,3.3c0.7,1.5,1,3.2,0.9,4.9h-6c0-0.9-0.2-1.7-0.6-2.5
	c-0.3-0.6-0.7-1.1-1.2-1.5c-0.5-0.4-1.1-0.6-1.8-0.8c-0.7-0.2-1.4-0.2-2.2-0.2c-0.5,0-1,0.1-1.6,0.2c-1,0.2-1.9,0.9-2.4,1.8
	c-0.3,0.5-0.4,1.2-0.4,1.8c0,0.5,0.1,1.1,0.3,1.6c0.3,0.5,0.7,0.9,1.3,1.1c0.8,0.4,1.7,0.8,2.6,1l4.4,1.3c0.5,0.1,1.3,0.3,2.2,0.7
	c1,0.4,2,0.9,2.9,1.6c1,0.8,1.8,1.8,2.4,2.9c0.7,1.4,1.1,3,1,4.6c0,1.4-0.3,2.9-0.8,4.2c-0.5,1.3-1.3,2.4-2.3,3.4
	c-1.1,1-2.4,1.7-3.7,2.2c-1.7,0.6-3.4,0.8-5.2,0.8c-1.6,0-3.1-0.2-4.6-0.7c-1.4-0.4-2.8-1.1-3.9-2.1c-1.2-1-2.1-2.3-2.7-3.7
	c-0.7-1.7-1.1-3.5-1-5.3h6.2C158.9,73.7,159.1,74.6,159.4,75.6L159.4,75.6z"/>
<path class="st13" d="M159.4,75.6c0.3,0.7,0.8,1.4,1.4,1.9c0.6,0.5,1.3,0.9,2,1.1c0.8,0.2,1.6,0.4,2.4,0.4c0.6,0,1.2-0.1,1.8-0.2
	c0.6-0.1,1.3-0.3,1.8-0.6c0.6-0.3,1.1-0.7,1.4-1.3c0.4-0.6,0.6-1.3,0.6-2.1c0-0.8-0.2-1.6-0.8-2.2c-0.6-0.6-1.2-1.1-2-1.4
	c-0.9-0.4-1.8-0.7-2.8-1c-1-0.3-2.1-0.6-3.1-0.9c-1.1-0.3-2.1-0.7-3.1-1.1c-1-0.4-1.9-1-2.8-1.7c-0.8-0.7-1.5-1.6-2-2.7
	c-0.5-1.2-0.8-2.5-0.8-3.9c0-1.5,0.3-3,0.9-4.4c0.6-1.2,1.4-2.3,2.5-3.1c1-0.8,2.2-1.5,3.5-1.9c1.3-0.4,2.6-0.6,3.9-0.6
	c1.5,0,2.9,0.2,4.3,0.6c1.3,0.4,2.6,1,3.7,1.9c1.1,0.9,2,2,2.6,3.3c0.7,1.5,1,3.2,0.9,4.9h-6c0-0.9-0.2-1.7-0.6-2.5
	c-0.3-0.6-0.7-1.1-1.2-1.5c-0.5-0.4-1.1-0.6-1.8-0.8c-0.7-0.2-1.4-0.2-2.2-0.2c-0.5,0-1,0.1-1.6,0.2c-1,0.2-1.9,0.9-2.4,1.8
	c-0.3,0.5-0.4,1.2-0.4,1.8c0,0.5,0.1,1.1,0.3,1.6c0.3,0.5,0.7,0.9,1.3,1.1c0.8,0.4,1.7,0.8,2.6,1l4.4,1.3c0.5,0.1,1.3,0.3,2.2,0.7
	c1,0.4,2,0.9,2.9,1.6c1,0.8,1.8,1.8,2.4,2.9c0.7,1.4,1.1,3,1,4.6c0,1.4-0.3,2.9-0.8,4.2c-0.5,1.3-1.3,2.4-2.3,3.4
	c-1.1,1-2.4,1.7-3.7,2.2c-1.7,0.6-3.4,0.8-5.2,0.8c-1.6,0-3.1-0.2-4.6-0.7c-1.4-0.4-2.8-1.1-3.9-2.1c-1.2-1-2.1-2.3-2.7-3.7
	c-0.7-1.7-1.1-3.5-1-5.3h6.2C158.9,73.7,159.1,74.6,159.4,75.6L159.4,75.6z"/>
<path class="st14" d="M33.5,56.6v-6.1h25.1v6.1h-9.2v27.1h-6.8V56.6H33.5z M84.2,50.5v6.1H69.3v7.2h13.6v5.6H69.3v8.2h15.2v6.1H63.1
	V50.5H84.2z M90.6,50.5h8l6.2,10.6l6.4-10.6h7.6l-10.1,15.9l11,17.4h-8.2l-6.9-11.5l-7,11.5h-7.8l11-17.4L90.6,50.5L90.6,50.5z
	 M141.8,71l-3.8-12.2h-0.1L133.9,71H141.8z M141.4,50.5l11.3,33.2h-6.9l-2.3-7.4h-11.3l-2.4,7.4h-6.7l11.4-33.2H141.4z M159.4,75.5
	c0.3,0.7,0.8,1.4,1.4,1.9c0.6,0.5,1.3,0.9,2,1.1c0.8,0.2,1.6,0.4,2.4,0.4c0.6,0,1.2-0.1,1.8-0.2c0.6-0.1,1.3-0.3,1.8-0.6
	c0.6-0.3,1.1-0.7,1.4-1.3c0.4-0.6,0.6-1.3,0.6-2.1c0-0.8-0.2-1.6-0.8-2.2c-0.6-0.6-1.2-1.1-2-1.4c-0.9-0.4-1.8-0.7-2.8-1
	c-1-0.3-2.1-0.6-3.1-0.9c-1.1-0.3-2.1-0.7-3.1-1.1c-1-0.4-1.9-1-2.8-1.7c-0.8-0.7-1.5-1.6-2-2.7c-0.5-1.2-0.8-2.5-0.8-3.9
	c0-1.5,0.3-3,0.9-4.4c0.6-1.2,1.4-2.3,2.5-3.1c1-0.8,2.2-1.5,3.5-1.9c1.3-0.4,2.6-0.6,3.9-0.6c1.5,0,2.9,0.2,4.3,0.6
	c1.3,0.4,2.6,1,3.7,1.9c1.1,0.9,2,2,2.6,3.3c0.7,1.5,1,3.2,0.9,4.9h-6c0-0.9-0.2-1.7-0.6-2.5c-0.3-0.6-0.7-1.1-1.2-1.5
	c-0.5-0.4-1.1-0.6-1.8-0.8c-0.7-0.2-1.4-0.2-2.2-0.2c-0.5,0-1,0.1-1.6,0.2c-1,0.2-1.9,0.9-2.4,1.8c-0.3,0.5-0.4,1.2-0.4,1.8
	c0,0.5,0.1,1.1,0.3,1.6c0.3,0.5,0.7,0.9,1.3,1.1c0.8,0.4,1.7,0.8,2.6,1l4.4,1.3c0.5,0.1,1.3,0.4,2.2,0.7c1,0.4,2,0.9,2.9,1.6
	c1,0.8,1.8,1.8,2.4,2.9c0.7,1.4,1.1,3,1,4.6c0,1.4-0.3,2.9-0.8,4.2c-0.5,1.3-1.3,2.4-2.3,3.4c-1.1,1-2.4,1.7-3.7,2.2
	c-1.7,0.6-3.4,0.8-5.2,0.8c-1.6,0-3.1-0.2-4.6-0.7c-1.4-0.4-2.8-1.1-3.9-2.1c-1.2-1-2.1-2.3-2.7-3.7c-0.7-1.7-1.1-3.5-1-5.3h6.2
	C158.9,73.6,159.1,74.6,159.4,75.5L159.4,75.5z"/>
<path class="st15" d="M23.9,60.5c0,0.7-0.6,1.3-1.3,1.3H8.5c-0.7,0-1.3-0.6-1.3-1.3l0,0c0-0.7,0.6-1.3,1.3-1.3h14.2
	C23.4,59.2,23.9,59.8,23.9,60.5z"/>
<path class="st15" d="M24.6,67.7c0,0.7-0.8,1.3-1.8,1.3H3.7c-1,0-1.8-0.6-1.8-1.3l0,0c0-0.7,0.8-1.3,1.8-1.3h19.2
	C23.9,66.4,24.6,67,24.6,67.7z"/>
<path class="st15" d="M24.2,74.5c0,0.7-0.7,1.3-1.4,1.3H7.5c-0.7,0-1.4-0.5-1.4-1.3l0,0c0-0.7,0.7-1.3,1.4-1.3h15.3
	C23.6,73.2,24.2,73.8,24.2,74.5L24.2,74.5z"/>
<path class="st15" d="M185.9,60.5c0,0.7,0.6,1.3,1.3,1.3h14.2c0.7,0,1.3-0.6,1.3-1.3l0,0c0-0.7-0.6-1.3-1.3-1.3h-14.2
	C186.5,59.2,185.9,59.8,185.9,60.5L185.9,60.5z"/>
<path class="st15" d="M185.2,67.7c0,0.7,0.8,1.3,1.8,1.3h19.2c1,0,1.8-0.6,1.8-1.3l0,0c0-0.7-0.8-1.3-1.8-1.3H187
	C186,66.4,185.2,67,185.2,67.7z"/>
<path class="st15" d="M185.6,74.5c0,0.7,0.7,1.3,1.4,1.3h15.3c0.7,0,1.4-0.5,1.4-1.3l0,0c0-0.7-0.7-1.3-1.4-1.3H187
	C186.3,73.2,185.7,73.8,185.6,74.5z"/>
<path class="st0" d="M156.4,96.8h0.3c0.2,0,0.4,0.1,0.4,0.3s-0.1,0.4-0.5,0.4h-0.2L156.4,96.8L156.4,96.8z M156,98.3h0.3v-0.7h0.4
	l0.5,0.8l0.3-0.1l-0.6-0.8c0.2-0.1,0.4-0.3,0.4-0.5c0-0.3-0.3-0.4-0.7-0.4h-0.7L156,98.3L156,98.3z M156.7,99.2
	c0.9,0,1.7-0.7,1.7-1.6s-0.7-1.7-1.6-1.7s-1.7,0.7-1.7,1.6c0,0,0,0,0,0C155.1,98.4,155.8,99.1,156.7,99.2z M156.7,98.9
	c-0.8,0-1.4-0.6-1.4-1.3c0-0.8,0.6-1.4,1.3-1.4c0.8,0,1.4,0.6,1.4,1.3c0,0,0,0,0,0.1C158,98.3,157.4,98.9,156.7,98.9z"/>
</svg>
