<?xml version="1.0" encoding="utf-8"?>
<!-- Generator: Adobe Illustrator 21.1.0, SVG Export Plug-In . SVG Version: 6.00 Build 0)  -->
<svg version="1.1" id="Layer_1" xmlns="http://www.w3.org/2000/svg" xmlns:xlink="http://www.w3.org/1999/xlink" x="0px" y="0px"
	 viewBox="0 0 121.9 151" style="enable-background:new 0 0 121.9 151;" xml:space="preserve">
<style type="text/css">
	.st0{fill:#DB261E;}
	.st1{fill:#FFFFFF;}
</style>
<title>CR</title>
<path class="st0" d="M0.5,67.3C0.4,27.4,27.2,2,57.5,0.6c17.2-0.8,32.2,4.6,44.7,16.5c12.8,12.2,19.2,27.3,18.9,45
	c-0.1,14.8-5.8,29-16.1,39.7c-11.5,12.3-25.8,18.9-42.7,19.3c-16.3,0.6-32.1-5.6-43.6-17.1C6.6,92.2,0.7,77.7,0.5,67.3z M95.5,109.5
	c0-0.2,0-0.4-0.1-0.6l-6.1-19.6c-2.1-6.6-4.1-13.3-6.2-20c-0.4-0.7-0.1-1.6,0.6-1.9c0,0,0,0,0,0c5.4-3.8,10.7-7.7,16-11.6l14.7-10.7
	c0.9-0.7,1.8-1.3,2.7-2l-0.1-0.2h-1c-13.5,0-27.1,0-40.6,0c-0.5,0.1-1.1-0.2-1.2-0.8c0,0,0,0,0-0.1c-2.1-6.5-4.3-13.1-6.5-19.6
	L62.2,5.2c-0.4-1.2-0.8-2.3-1.2-3.5h-0.3L47.5,43H4.7l-0.2,0.3c0.2,0.1,0.4,0.2,0.5,0.3c2.3,1.6,4.6,3.3,6.8,4.9
	c8.8,6.4,17.7,12.9,26.5,19.3c0.3,0.2,0.5,0.6,0.3,0.9c0,0,0,0,0,0c-1.3,4.1-2.6,8.2-3.9,12.3c-2.4,7.6-4.9,15.3-7.3,22.9l-1.5,4.6
	c0.6-0.2,1.3-0.6,1.8-1l12.4-8.8c4.3-3,8.5-6,12.7-9c0.5-0.3,0.9-0.9,0.8-1.5c0-8.8,0-17.6,0-26.4c0-0.7-0.2-1-1-1
	c-3.2,0-6.4,0-9.7,0c-0.3,0-0.6,0-1,0V49.5c0.3,0,0.6-0.1,0.8-0.1c11.8,0,23.5,0,35.3,0c0.7,0,0.9,0.2,0.9,0.9c0,3.2,0,6.4,0,9.7
	c0,0.8-0.2,1-1,0.9c-3.3,0-6.6,0-9.9,0c-0.6,0-0.9,0.2-0.9,0.8c0,8.7,0,17.4,0,26.1c0,0.4,0.2,0.7,0.5,0.9c1.8,1.4,3.6,2.8,5.4,4.1
	l16.6,12.5C91.8,106.8,93.6,108.1,95.5,109.5L95.5,109.5z"/>
<path class="st0" d="M58.9,147.9c0.6-1.4,1.1-2.8,1.7-4.1c1.6-3.9,3.1-7.7,4.6-11.6c0.1-0.4,0.5-0.7,1-0.7c1.8,0,3.6,0,5.4,0
	c0.4,0,0.7,0.2,0.9,0.5c2.4,5.9,4.7,11.7,7,17.6c0,0.1,0,0.2,0,0.3c-0.3,0-0.5,0.1-0.8,0.1c-1.6,0-3.1,0-4.6,0
	c-0.6,0.1-1.2-0.3-1.4-0.9c-0.4-1.4-0.5-1.4-1.9-1.4s-2.8,0-4.2,0c-0.6-0.1-1.1,0.3-1.2,0.9c0,0,0,0,0,0c-0.5,1.6-0.5,1.6-2.2,1.6
	l-9.7-0.1c-0.5,0-1-0.2-1.2-0.7c-0.8-1.4-1.7-2.8-2.7-4.5c-1,1.4-1.9,2.7-2.6,4c-0.3,0.8-1.1,1.3-2,1.2c-2-0.1-4,0-6.2,0l2.6-3.6
	c1.4-1.9,2.8-3.8,4.2-5.7c0.1-0.3,0.1-0.6,0-0.9c-1.7-2.3-3.4-4.6-5-6.9c-0.3-0.4-0.6-0.8-1-1.4h3.5c0.7,0.1,1.4,0.1,2.1,0
	c1.3-0.3,2.5,0.5,2.9,1.7c0.5,1,1.1,2,1.8,3c0.8-1.3,1.6-2.4,2.3-3.6c0.3-0.7,1.1-1.2,1.9-1.1c2,0.1,4,0,6.1,0
	c-0.1,0.2-0.1,0.4-0.3,0.6c-2,2.5-3.9,4.9-5.9,7.4c-0.3,0.4-0.5,0.8-0.2,1.3l4.9,6.9C58.6,147.7,58.7,147.7,58.9,147.9z M66.9,143.5
	H71l-1.9-5.9h-0.3L66.9,143.5z"/>
<path class="st0" d="M110.9,150.4c-2.8,0.2-5.6-0.7-7.7-2.5c-1.5-1.3-2.6-3-3-5c-0.6-2.2-0.3-4.5,0.6-6.5c1.3-2.7,3.8-4.5,6.6-5.1
	c2.8-0.7,5.8-0.5,8.5,0.6c3.3,1.4,5.5,4.6,5.5,8.2c0.1,2.4-0.6,4.8-2.1,6.6c-1.9,2.3-4.7,3.6-7.6,3.7
	C111.4,150.5,111,150.4,110.9,150.4z M114.8,140.9c-0.2-1-0.3-1.9-0.5-2.7c-0.3-1.4-1.5-2.4-2.9-2.5c-2.1-0.1-3.4,0.4-4,2
	c-1,2.1-0.9,4.5,0.2,6.4c0.6,1.2,1.9,1.9,3.3,1.8c1.3,0.2,2.6-0.6,3.1-1.8C114.3,143,114.5,142,114.8,140.9L114.8,140.9z"/>
<path class="st0" d="M37.9,135.6c-0.4,0-0.8,0-1.1,0c-2.7,0-5.5,0-8.2,0c-0.7,0-0.9,0.2-0.9,0.9c0.1,2.2-0.2,1.8,1.8,1.9s4,0,6,0
	c0.6,0,0.8,0.2,0.8,0.8c0,0.9,0,1.7,0,2.6c0,0.6-0.2,0.8-0.8,0.8c-2.2,0-4.5,0-6.7,0c-0.8,0-1.2,0.2-1.1,1.1
	c0.1,2.2-0.2,1.9,1.9,1.9c2.6,0,5.2,0,7.8,0c0.8,0,1,0.2,0.9,1c-0.1,1.1,0,2.1,0,3.3c-0.4,0-0.7,0.1-1,0.1c-5,0-10.1,0-15.1,0
	c-0.8,0-1.1-0.2-1.1-1c0-5.5,0-11,0-16.6c0-0.7,0.2-0.9,0.9-0.9c5,0,10.1,0,15.1,0c0.6,0,0.9,0.1,0.8,0.8
	C37.9,133.3,37.9,134.4,37.9,135.6z"/>
<path class="st0" d="M98.9,138.3c-1.9,0-3.8,0-5.6,0c-0.2,0-0.4-0.2-0.6-0.4c-0.5-1.6-2-2.6-3.7-2.3c-1.8,0-3.2,1.4-3.4,3.1
	c-0.3,1.6-0.3,3.2,0.2,4.8c0.6,1.8,1.8,2.5,3.8,2.5c1.6,0.1,3.1-1.1,3.2-2.7c0-0.1,0.1-0.2,0.1-0.4h6.2c-0.2,0.8-0.4,1.6-0.6,2.3
	c-1,2.5-3.1,4.3-5.8,4.9c-2.8,0.8-5.9,0.6-8.6-0.5c-3.3-1.5-5.5-4.7-5.5-8.4c-0.1-2,0.4-4.1,1.4-5.8c1.5-2.3,3.9-3.8,6.6-4.2
	c2.6-0.5,5.3-0.2,7.7,0.8c2.3,0.9,4,3,4.5,5.5C98.9,137.7,98.9,138,98.9,138.3z"/>
<path class="st0" d="M0.7,131.5h18.6v4.8h-3.6c-2.3,0-2.3,0-2.3,2.3c0,3.6,0,7.1,0,10.6c0,0.7-0.2,0.9-0.9,0.9c-1.6,0-3.2-0.1-4.8,0
	c-0.9,0-1-0.3-1-1.1c0-3.9,0-7.8,0-11.7c0-0.8-0.2-1.1-1-1c-1.4,0.1-2.9,0-4.3,0c-0.2,0-0.7-0.3-0.7-0.5
	C0.6,134.4,0.7,133,0.7,131.5z"/>
<path class="st1" d="M95.5,109.6c-2-1.5-3.7-2.8-5.5-4.1L73.4,92.9c-1.8-1.4-3.6-2.7-5.4-4.1c-0.3-0.2-0.5-0.6-0.5-0.9
	c0-8.7,0-17.4,0-26.1c0-0.7,0.3-0.8,0.9-0.8c3.3,0,6.6,0,9.9,0c0.7,0,1-0.2,1-0.9c0-3.2,0-6.4,0-9.7c0-0.7-0.3-0.9-0.9-0.9
	c-11.8,0-23.5,0-35.3,0c-0.3,0-0.5,0-0.8,0.1v11.4c0.3,0,0.6,0,1,0c3.2,0,6.4,0,9.7,0c0.8,0,1,0.2,1,1c0,8.8,0,17.6,0,26.4
	c0,0.6-0.3,1.2-0.8,1.5c-4.3,3-8.5,6-12.7,9L28,107.5c-0.6,0.4-1.2,0.8-1.8,1l1.5-4.6c2.4-7.6,4.9-15.3,7.3-22.9
	c1.3-4.1,2.6-8.2,3.9-12.3c0.2-0.3,0-0.8-0.3-0.9c0,0,0,0,0,0C29.6,61.4,20.7,55,11.9,48.5c-2.3-1.6-4.5-3.3-6.8-4.9
	c-0.2-0.1-0.3-0.2-0.5-0.3L4.8,43h42.7L60.7,1.8h0.3c0.4,1.2,0.8,2.3,1.2,3.5l5.8,17.3c2.2,6.5,4.4,13.1,6.5,19.6
	c0.1,0.5,0.6,0.9,1.1,0.9c0,0,0,0,0.1,0c13.5,0,27.1,0,40.6,0h1l0.1,0.2c-0.9,0.7-1.8,1.4-2.7,2L99.8,55.9
	c-5.3,3.9-10.6,7.7-16,11.6c-0.7,0.4-1,1.2-0.7,1.9c0,0,0,0,0,0c2.1,6.6,4.1,13.3,6.2,20l6.1,19.6C95.5,109.2,95.5,109.4,95.5,109.6
	z"/>
</svg>
