<?xml version="1.0" encoding="utf-8"?>
<!-- Generator: Adobe Illustrator 21.1.0, SVG Export Plug-In . SVG Version: 6.00 Build 0)  -->
<svg version="1.1" id="Layer_1" xmlns="http://www.w3.org/2000/svg" xmlns:xlink="http://www.w3.org/1999/xlink" x="0px" y="0px"
	 viewBox="0 0 231.5 97.5" style="enable-background:new 0 0 231.5 97.5;" xml:space="preserve">
<style type="text/css">
	.st0{fill:#060606;}
	.st1{fill:#191818;}
	.st2{fill:#0C0C0C;}
	.st3{fill:#090909;}
	.st4{fill:#0A0A0A;}
	.st5{fill:#0C0D0D;}
	.st6{fill:#0B0C0C;}
	.st7{fill:#030303;}
	.st8{fill:#F9FCFC;}
	.st9{fill:#F5F7F8;}
	.st10{fill:#F6F7F7;}
	.st11{fill:#202121;}
	.st12{fill:#DCDDDD;}
	.st13{fill:none;stroke:#0B0C0C;stroke-width:1.18;stroke-miterlimit:10;}
</style>
<title>Fine Dining</title>
<path class="st0" d="M86,51.4c0,0.1,0,0.3,0,0.4c0,3,0,5.9,0,8.9c0,0.6,0.1,1.3,0.2,1.9c0.2,1.1,1.1,1.8,2.1,1.9l1.3,0.2v0.9H77.4
	v-0.9l1.2-0.2c0.9-0.1,1.7-0.7,1.9-1.6c0.2-0.5,0.3-1.1,0.3-1.7c0-2.1,0-4.2,0-6.3c0-5.3,0-10.5,0-15.8c0-0.5-0.1-1-0.2-1.5
	c-0.1-1.2-1.2-2.2-2.5-2.1h-0.8v-0.9h3c2.5,0,5.1,0,7.6,0c2.6-0.2,5.2,0.1,7.7,1c2.7,1,4.6,3.4,4.8,6.3c0.1,1.1,0.1,2.3-0.2,3.4
	c-0.4,1.9-1.6,3.5-3.3,4.5c-1.5,0.9-3.1,1.4-4.8,1.5C90.2,51.3,88.1,51.3,86,51.4z M86,35.9v13.6c1.3,0.3,2.6,0.4,3.9,0.3
	c2.1-0.2,4-1.6,4.6-3.7c0.4-1.3,0.5-2.7,0.3-4.1c-0.2-2.2-1.6-4.2-3.6-5.3C89.6,36,87.8,35.7,86,35.9L86,35.9z"/>
<path class="st0" d="M32.4,56.4l0.2,5c0,0.1-0.1,0.1-0.1,0.2c-2.6,1.9-5.5,3.2-8.5,4.1c-2.6,0.6-5.3,0.7-8,0.4
	c-2.6-0.2-5.2-1.1-7.4-2.6C5,61.2,2.6,57.6,2,53.5c-0.6-3.3-0.2-6.7,1.1-9.8c1.7-3.9,5-6.9,9-8.3c2-0.7,4.1-1.1,6.2-1.2
	c4.4-0.1,8.8,0.6,13,2.1c0.3,0.1,0.6,0.4,0.5,0.7c0,2.2,0,4.5,0,6.7c0,0.1,0,0.3,0,0.4h-1l-0.1-0.6c-0.7-3.6-3.4-6.5-7-7.5
	c-2.9-1-6.2-0.9-9,0.5c-2.9,1.4-5.1,4-6,7.2c-0.8,2.5-1,5.1-0.6,7.7c0.3,2.6,1.2,5.1,2.7,7.4c1.4,2.3,3.4,4,5.9,5
	c2.9,1.1,6.1,0.8,8.7-0.7c2.4-1.3,4.5-3.2,6-5.4c0.2-0.3,0.4-0.6,0.6-0.9C32.2,56.6,32.3,56.5,32.4,56.4z"/>
<path class="st0" d="M132,43h-1.5l0.4-8.4h27.8l0.2,8.4h-1.4c-0.1-0.7-0.2-1.4-0.4-2.1c-0.5-2.5-1.8-3.7-4.3-3.9
	c-1.8-0.1-3.6,0-5.4,0c0,0.2,0,0.4,0,0.6c0,7.6,0,15.2,0,22.9c0,0.7,0.1,1.5,0.2,2.2c0.2,1.1,1.1,1.9,2.2,1.9l1,0.1v0.9h-12.4v-0.9
	l1.2-0.1c1,0,1.9-0.8,2.1-1.8c0.2-0.7,0.3-1.4,0.3-2.1c0-7.7,0-15.4,0-23.2c0-0.1,0-0.3,0-0.5c-0.2,0-0.3,0-0.4,0c-1.5,0-3,0-4.5,0
	c-0.5,0-1,0.1-1.5,0.2c-1.1,0.3-2.1,1.1-2.5,2.1c-0.4,1-0.7,2.2-0.9,3.3L132,43z"/>
<path class="st0" d="M54.3,33.8c0.5,1.1,0.9,2.1,1.3,3.1c3.2,7.6,6.5,15.1,9.7,22.7c0.4,0.8,0.8,1.7,1.2,2.4
	c0.7,1.4,2.1,2.4,3.7,2.6c0.2,0,0.3,0.1,0.5,0.1v0.9h-13c0-0.1,0-0.3-0.1-0.5s0-0.3,0-0.5c0.5-0.1,1.1-0.1,1.6-0.2
	c0.9-0.1,1.5-0.8,1.4-1.7c0-0.1,0-0.3-0.1-0.4c-0.1-0.5-0.3-0.9-0.5-1.4c-0.8-2-1.6-4-2.4-6h-9.9c-0.3,0.8-0.6,1.6-0.9,2.5
	c-0.5,1.3-1,2.6-1.4,3.9c-0.2,0.5-0.3,1.1-0.3,1.6c-0.1,0.7,0.4,1.2,1,1.4c0.4,0.1,0.8,0.2,1.2,0.2c0.3,0,0.7,0.1,1.1,0.1v1H38.2
	v-0.9c0.2-0.1,0.4-0.1,0.6-0.1c1.5-0.1,2.8-1,3.5-2.2c0.6-0.8,1-1.7,1.4-2.6c3.4-8.3,6.8-16.6,10.2-25C54,34.4,54.1,34.2,54.3,33.8z
	 M52.4,42.1l-4,11.3h8.7L52.4,42.1z"/>
<path class="st0" d="M178.1,33.7l2,4.7c3.1,7.1,6.1,14.2,9.2,21.4c0.4,0.9,0.8,1.7,1.4,2.6c0.7,1.2,2,2.1,3.4,2.2
	c0.2,0,0.4,0.1,0.5,0.1v0.9h-13v-1c0.5-0.1,0.9-0.1,1.4-0.2c0.9,0,1.6-0.7,1.6-1.5c0-0.2,0-0.3-0.1-0.5c0-0.3-0.1-0.6-0.2-0.9
	c-0.9-2.2-1.8-4.4-2.7-6.7h-9.8c-0.3,0.8-0.6,1.6-0.9,2.4c-0.5,1.3-0.9,2.6-1.4,3.9c-0.1,0.4-0.3,0.9-0.3,1.4
	c-0.2,0.8,0.3,1.6,1.1,1.8c0,0,0.1,0,0.1,0c0.4,0.1,0.9,0.2,1.3,0.2c0.2,0,0.5,0,0.8,0.1v1h-10.5v-0.9c0.1,0,0.3-0.1,0.4-0.1
	c1.4-0.1,2.7-0.8,3.5-1.9c0.7-0.9,1.2-1.9,1.6-2.9l10.2-25L178.1,33.7z M176.3,42.3h-0.1l-3.9,11.1h8.7L176.3,42.3z"/>
<path class="st0" d="M202.1,65.5v-0.9c0.4,0,0.8-0.1,1.2-0.1c1.1,0,2.1-0.8,2.3-1.9c0.1-0.7,0.2-1.4,0.2-2.1c0-7,0-14,0-21
	c0-0.8-0.1-1.6-0.3-2.3c-0.3-0.9-1.1-1.5-2-1.6c-0.4,0-0.9-0.1-1.4-0.1v-1h12.5v0.9l-1.3,0.1c-1,0-1.8,0.7-2.1,1.7
	c-0.2,0.7-0.3,1.3-0.3,2c0,6.8,0,13.5,0,20.3c0,0.6,0.1,1.2,0.2,1.8c0.1,1.4,1.2,2.5,2.6,2.5c2.3,0.4,4.7,0.3,6.9-0.2
	c1.9-0.4,3.4-1.8,4.1-3.6c0.3-0.8,0.5-1.5,0.8-2.4l1.3,0.1l-0.7,7.8L202.1,65.5z"/>
<path class="st0" d="M109.5,35.6v-1h12.1v1h-0.7c-1.3-0.1-2.5,0.8-2.6,2.2c0,0.1,0,0.2,0,0.2c-0.1,0.7-0.1,1.3-0.1,2
	c0,6.8,0,13.5,0,20.3c0,0.8,0.1,1.6,0.3,2.4c0.2,1,1,1.7,2,1.8l1.2,0.1v0.9h-12.1v-0.9l1.2-0.1c1,0,1.9-0.7,2.1-1.7
	c0.1-0.3,0.1-0.6,0.2-0.9c0-0.3,0.1-0.7,0.1-1c0-7.1,0-14.3,0-21.4c0-0.6-0.1-1.2-0.2-1.8c-0.2-1.1-1.1-1.9-2.3-1.9
	C110.2,35.5,109.9,35.6,109.5,35.6z"/>
<path class="st1" d="M227.2,34.1c2.1,0,3.8,1.7,3.8,3.8c0,2.1-1.7,3.8-3.8,3.8c-2.1,0-3.8-1.7-3.8-3.8
	C223.4,35.8,225.1,34.1,227.2,34.1z M224,37.9c0,1.8,1.4,3.2,3.2,3.2c1.8,0,3.2-1.4,3.2-3.2c0,0,0,0,0,0c0-1.8-1.4-3.2-3.2-3.2
	C225.4,34.7,224,36.1,224,37.9C224,37.9,224,37.9,224,37.9z"/>
<path class="st0" d="M110.3,8.8c0,0.1-0.1,0.1-0.1,0.1c0,2.1,0,4.3,0,6.4c0,0.9,0.4,1.2,1.3,1.4l0.5,0.1v0.4h-6.5
	c0-0.2-0.1-0.4,0.2-0.5h0.2c1-0.2,1.3-0.5,1.4-1.5c0-0.2,0-0.4,0-0.7c0-3.8,0-7.5,0-11.3c0-0.3,0-0.7-0.1-1
	c-0.2-0.8-0.5-1.1-1.3-1.3L105.4,1V0.5h6.5V1c-1.3,0.2-1.8,0.3-1.8,2.1c0,1.5,0,3,0,4.5c0,0.1,0,0.2,0,0.4h8.8
	c0-0.1,0.1-0.2,0.1-0.3c0-1.5,0-3,0-4.5c0-0.2,0-0.4-0.1-0.7c0-0.7-0.5-1.3-1.2-1.4c-0.2,0-0.3,0-0.4,0c-0.2-0.4,0-0.5,0.3-0.5h3.4
	h2.7v0.4c-0.1,0-0.1,0.1-0.1,0.1c-1.3,0.1-1.6,0.4-1.7,1.7c0,0.2,0,0.5,0,0.7c0,3.6,0,7.3,0,10.9c0,0.4,0,0.8,0.1,1.2
	c0,0.6,0.5,1.1,1.1,1.1c0.1,0,0.3,0,0.4,0.1c0.1,0.1,0.2,0.2,0.3,0.4h-6.6v-0.4c0.2,0,0.4-0.1,0.7-0.1c0.6,0,1-0.5,1.1-1.1
	c0.1-0.3,0.1-0.7,0.1-1c0-1.8,0-3.6,0-5.4c0-0.1,0-0.2,0-0.3C116.1,8.7,113.2,8.7,110.3,8.8z"/>
<path class="st2" d="M154,17.2v-0.4l0.6-0.1c0.7-0.1,1.2-0.6,1.2-1.3c0-0.3,0-0.5,0-0.8c0-3.8,0-7.5,0-11.3c0-0.3,0-0.6-0.1-0.9
	c0-0.7-0.6-1.3-1.4-1.3h-0.4c-0.1-0.1-0.1-0.3,0-0.5h11.4l0.4,3.9H165l-0.2-0.8c-0.3-1.2-1.3-2.1-2.5-2.2c-1.2-0.1-2.4-0.1-3.7-0.2
	v6.9c1.1,0.1,2.2,0.1,3.3-0.1c0.6-0.1,1.1-0.6,1.1-1.2c0-0.3,0.1-0.6,0.1-1h0.7v5.5h-0.7l-0.1-0.7c-0.1-0.9-0.6-1.4-1.5-1.5
	s-1.9,0-2.9,0c0,0.1,0,0.3-0.1,0.4c0,1.6,0,3.2,0,4.8c0,0.2,0,0.3,0,0.5c0,0.7,0.6,1.3,1.3,1.3c0,0,0,0,0,0c1.2,0.1,2.3,0.1,3.5-0.2
	c1.2-0.2,2.2-1.1,2.5-2.3l0.2-0.9l0.7,0.1l-0.3,4.2L154,17.2z"/>
<path class="st0" d="M64.6,17.2v-0.5c0.2,0,0.4-0.1,0.7-0.1c0.6,0,1.1-0.5,1.1-1.1c0.1-0.3,0.1-0.7,0.1-1c0-4.1,0-8.2,0-12.3
	c0-0.1,0-0.2,0-0.5c-1.2-0.1-2.4,0-3.5,0.2c-0.7,0.2-1.2,0.7-1.4,1.4c-0.2,0.5-0.3,1.1-0.4,1.7h-0.7l0.2-4.5h14.9L75.7,5h-0.7
	c-0.1-0.5-0.2-0.9-0.3-1.3c-0.2-1-1-1.8-2-1.8c-1-0.1-2.1-0.1-3.2-0.2c0,0.3-0.1,0.4-0.1,0.6c0,4,0,8,0,12.1c0,0.4,0,0.7,0.1,1.1
	c0,0.6,0.5,1.1,1.1,1.2l0.6,0.1v0.4L64.6,17.2z"/>
<path class="st3" d="M57.3,88.8c0.9,1.6,1.7,3.2,2.6,4.8c0.3,0.5,0.5,0.9,0.8,1.4c0.4,0.8,1.3,1.3,2.2,1.3l0.1,0.5
	c-0.1,0-0.1,0-0.2,0c-0.9,0.1-1.8,0.1-2.7-0.1c-1.1-0.2-2.1-0.9-2.7-1.9c-0.5-0.9-1-1.8-1.5-2.7c-0.3-0.5-0.5-1-0.7-1.4
	c-0.3-0.9-1.3-1.5-2.3-1.2c0,0.2,0,0.4,0,0.6c0,1.2,0,2.5,0,3.7c0,0.1,0,0.1,0,0.2c0,1.7,0.3,2,2,2.3l0.1,0.5h-6.5l0-0.4
	c0.1,0,0.2,0,0.2-0.1c1-0.1,1.3-0.4,1.5-1.4c0-0.3,0.1-0.7,0.1-1c0-3.3,0-6.7,0-10c0-0.3,0-0.7-0.1-1c0-0.7-0.5-1.3-1.2-1.3
	c0,0-0.1,0-0.1,0h-0.3v-0.4h0.1c2.5,0,5-0.1,7.5-0.1c0.8,0,1.7,0.2,2.4,0.6c1.1,0.6,1.9,1.8,1.9,3.1c0.2,1.9-0.9,3.6-2.7,4.1
	L57.3,88.8z M52.9,81.5v7c0.6,0,1.1,0,1.7,0c2.1-0.3,3.1-1.1,2.9-3.5c0,0,0-0.1,0-0.1c-0.1-1.5-1.2-2.8-2.7-3.2
	C54.1,81.6,53.5,81.5,52.9,81.5z"/>
<path class="st4" d="M14.7,95.3c0-1.2,0-2.4,0-3.6c0-0.7-0.3-1-1-1.2l-0.6-0.1v-0.5H19v0.4l-0.3,0.1c-1.2,0.2-1.3,0.6-1.4,1.7
	c0,1,0,1.9,0,2.9c0,0.1,0,0.3,0,0.6c-1.1,0.3-2.1,0.7-3.2,1c-2.2,0.6-4.6,0.6-6.8-0.1C3,95.1,0.7,90.6,2.1,86.4
	C3,83.8,5,81.9,7.6,81.2c1.8-0.5,3.7-0.6,5.6-0.4c1.1,0.2,2.2,0.4,3.4,0.6c0.2,0.1,0.5,0.1,0.7,0.2v3.8h-0.5c0-0.1-0.1-0.3-0.1-0.5
	c-0.3-1.5-1.5-2.8-3-3.2c-1.5-0.5-3.1-0.5-4.6-0.1c-1.8,0.4-3.3,1.8-3.7,3.6c-0.9,2.7-0.4,5.7,1.2,8.1c1.2,1.9,3.3,2.9,5.5,2.8
	C13,96.2,13.9,95.9,14.7,95.3z"/>
<path class="st5" d="M225.8,92.6l0.6,0.1l-0.3,4h-11.7v-0.4c1.5-0.3,1.8-0.5,1.8-2.1c0-3.6,0-7.2,0-10.8c0-0.1,0-0.1,0-0.2
	c-0.1-1.3-0.4-1.7-1.7-1.8l-0.1-0.5h10.8l0.4,3.6h-0.6c-0.1-0.2-0.1-0.4-0.2-0.6c-0.2-1.2-1.2-2.1-2.3-2.2c-0.3-0.1-0.6-0.1-0.9-0.1
	c-0.9,0-1.8,0-2.7,0v6.4c1,0,1.9,0.1,2.8,0s1.2-0.5,1.3-1.3c0-0.3,0.1-0.5,0.1-0.8h0.6v5.2l-0.6,0.1c-0.1-0.3-0.1-0.6-0.1-0.8
	c0-0.6-0.5-1.1-1.1-1.2c-0.6-0.1-1.2-0.1-1.8-0.1c-0.4,0-0.8,0-1.2,0c0,0.2,0,0.4,0,0.6c0,1.4,0,2.9,0,4.3c0,0.3,0,0.6,0.1,0.9
	c0.1,0.5,0.5,0.9,1,0.9c1.2,0.2,2.5,0.1,3.7-0.2c1-0.2,1.7-0.9,2-1.9C225.6,93.3,225.7,93,225.8,92.6z"/>
<path class="st6" d="M172,96.6v-0.4h0.3c1.1-0.1,1.4-0.5,1.5-1.5c0-0.2,0-0.4,0-0.6c0-3.5,0-7,0-10.5c0-0.3,0-0.5,0-0.8
	c0-0.7-0.5-1.3-1.2-1.3c-0.1,0-0.1,0-0.2,0h-0.4L172,81h6.3v0.4c-0.1,0-0.1,0.1-0.2,0.1c-1.3,0.1-1.6,0.5-1.7,1.8c0,2.3,0,4.5,0,6.8
	c0,1.2,0,2.4,0,3.6c0,0.2,0,0.4,0,0.6c0.1,1.1,0.5,1.6,1.7,1.7c1,0,1.9,0,2.9-0.1c1.2-0.1,2.3-1,2.6-2.2l0.3-0.9l0.6,0.1l-0.3,3.9
	L172,96.6z"/>
<path class="st0" d="M141.5,92.7l0.6,0.1l-0.3,3.9h-11.5c-0.2,0-0.3,0-0.5,0c-0.1,0-0.2-0.2-0.3-0.3c0.1-0.1,0.2-0.1,0.2-0.1
	c1.3-0.1,1.6-0.4,1.7-1.7c0-0.2,0-0.4,0-0.6c0-3.4,0-6.8,0-10.2c0-0.4-0.1-0.7-0.1-1c0-0.7-0.6-1.3-1.3-1.3c0,0-0.1,0-0.1,0
	c-0.1,0-0.2,0-0.3,0c0-0.1-0.1-0.1-0.1-0.2c0-0.1,0-0.2,0-0.3h6.3v0.4l-0.4,0.1c-0.9,0.1-1.2,0.3-1.4,1.2c-0.1,0.3-0.1,0.7-0.1,1
	c0,3.2,0,6.4,0,9.6c0,0.4,0,0.9,0.1,1.3c0,0.6,0.5,1.1,1.1,1.2c1.4,0.3,2.8,0.2,4.2-0.2c0.8-0.3,1.4-0.9,1.7-1.8
	C141.3,93.5,141.4,93.1,141.5,92.7z"/>
<path class="st7" d="M92.6,81.4V81h6.1v0.4c-1.4,0.2-1.7,0.4-1.8,1.8c0,0.4,0,0.7,0,1.1c0,3.1,0,6.2,0,9.3c0,0.4,0,0.8,0.1,1.3
	c0.1,0.9,0.4,1.2,1.3,1.3h0.3v0.4h-6.1v-0.4c1.4-0.2,1.8-0.6,1.8-2c0-3.6,0-7.3,0-10.9c0,0,0-0.1,0-0.1
	C94.3,82.2,94.2,81.5,92.6,81.4z"/>
<path class="st6" d="M74.8,90.4c-1.2,0-2.3-1-2.3-2.2c0,0,0,0,0,0c-0.1-1.3,0.9-2.4,2.2-2.5c1.3-0.1,2.4,0.9,2.5,2.2
	c0,0.1,0,0.2,0,0.3C77.1,89.4,76.1,90.4,74.8,90.4C74.8,90.4,74.8,90.4,74.8,90.4z"/>
<path class="st6" d="M157.5,90.4c-1.2,0-2.3-1-2.3-2.2c0,0,0-0.1,0-0.1c-0.1-1.3,0.9-2.4,2.2-2.5c1.3-0.1,2.4,0.9,2.5,2.2
	c0,0.1,0,0.2,0,0.3C159.8,89.4,158.8,90.4,157.5,90.4C157.6,90.4,157.5,90.4,157.5,90.4z"/>
<path class="st6" d="M198.9,90.4c-1.2,0-2.3-1-2.3-2.2c0,0,0-0.1,0-0.1c0-1.2,1-2.3,2.2-2.3c1.3,0,2.3,1,2.4,2.3c0,0,0,0,0,0.1
	C201.1,89.4,200.1,90.4,198.9,90.4z"/>
<path class="st6" d="M113.9,88.1c0-1.2,0.9-2.3,2.2-2.3c0,0,0.1,0,0.1,0c1.3,0,2.3,1,2.3,2.3c0,1.2-1,2.3-2.3,2.3
	c-1.2,0.1-2.3-0.9-2.3-2.1C113.9,88.2,113.9,88.2,113.9,88.1z"/>
<path class="st6" d="M31.2,88.1c-0.1-1.2,0.8-2.3,2.1-2.4c0.1,0,0.1,0,0.2,0c1.3,0,2.3,1,2.3,2.3s-1,2.3-2.3,2.3
	C32.2,90.4,31.2,89.4,31.2,88.1C31.2,88.2,31.2,88.2,31.2,88.1z"/>
<path class="st8" d="M86.1,35.9c1.8-0.2,3.6,0.1,5.2,0.9c2,1,3.3,3,3.6,5.3c0.3,1.4,0.2,2.8-0.3,4.1c-0.6,2.1-2.5,3.5-4.6,3.7
	c-1.3,0.1-2.6,0-3.9-0.3L86.1,35.9z"/>
<path class="st9" d="M52.4,42.1l4.7,11.3h-8.7L52.4,42.1z"/>
<path class="st9" d="M176.3,42.3l4.6,11.1h-8.7l3.9-11.1L176.3,42.3z"/>
<path class="st10" d="M52.9,81.5c0.6,0,1.2,0.1,1.9,0.2c1.5,0.3,2.7,1.6,2.7,3.2c0,0,0,0.1,0,0.1c0.2,2.4-0.8,3.3-2.9,3.5
	c-0.6,0-1.1,0-1.7,0V81.5z"/>
<path class="st11" d="M226.7,35.9h0.7c0.5-0.1,1,0.1,1.3,0.6c0.2,0.5,0,1-0.4,1.3l-0.3,0.2c0.2,0.3,0.4,0.6,0.6,0.9s0.4,0.6,0.6,0.8
	c-0.4,0.2-0.8,0-1-0.3c0,0,0,0,0,0c-0.3-0.4-0.6-0.9-0.9-1.3c0.1-0.1,0.1-0.2,0.2-0.2c0.5-0.2,0.8-0.8,0.6-1.3
	c-0.1-0.4-0.4-0.6-1-0.6c-0.1,0-0.2,0-0.4,0C226.7,36,226.7,35.9,226.7,35.9z"/>
<path class="st3" d="M226.7,35.9C226.7,35.9,226.7,36,226.7,35.9v2v0.2v0.2c0,0.5-0.2,1,0.3,1.5h-1.1c0.1-0.2,0.1-0.4,0.2-0.7
	c0-0.8,0-1.7,0-2.5c0-0.3,0-0.6-0.4-0.7L226.7,35.9z"/>
<path class="st12" d="M226.7,38.2v-0.2h0.1h0.1l0,0L226.7,38.2z"/>
<path class="st11" d="M226.8,38.1L226.8,38.1h-0.1v-0.2L226.8,38.1z"/>
<line class="st13" x1="0.5" y1="22.4" x2="231" y2="22.4"/>
<line class="st13" x1="0.5" y1="73.8" x2="231" y2="73.8"/>
</svg>
