<?xml version="1.0" encoding="utf-8"?>
<!-- Generator: Adobe Illustrator 21.1.0, SVG Export Plug-In . SVG Version: 6.00 Build 0)  -->
<svg version="1.1" id="Layer_1" xmlns="http://www.w3.org/2000/svg" xmlns:xlink="http://www.w3.org/1999/xlink" x="0px" y="0px"
	 viewBox="0 0 217 106" style="enable-background:new 0 0 217 106;" xml:space="preserve">
<style type="text/css">
	.st0{fill:#A98F3B;}
</style>
<title>Casual dining</title>
<path class="st0" d="M87.8,71.4c-0.6-2.3-1-4.8-1.7-7.1c-0.3-1.3-2-1.5-3-0.5c-1,0.9-2.3,1.4-3.6,1.3h-5.3c-1.7,0-2-1.8-2-3v-5.3
	c0.2-1.3,1-2.3,2.3-2.7c4.9-1.4,10.1-0.9,15.2-0.9c10.1-0.1,9.8,2.1,14.8,2.3c2,0.1,3.8-1.4,3.9-3.4c0-0.1,0-0.3,0-0.4
	c-0.2-4.3-7.9-4.8-12.4-4.9c-7.3-0.2-14.6,1.6-21.8,2.7c-6.5,1-13.2,1.2-19.8,0.5c-4.8-0.4-4.3-3.2-6.8-3.2
	c-1.8-0.1-3.6,1.9-3.8,3.7c-0.3,2.5,1.1,4.6,5.1,5.2c4.1,0.5,8.3-0.7,12.4-1.1c2.2-0.3,3.2,0.6,3.2,1.8v32.9c0,6.7-0.2,8-3.1,13.2
	c-1.6,2.8,0.6,3.6,1.6,3c4.1-2.5,7.5-5.3,11.4-7.7c1-0.6,0.4-2.1-0.3-2.7c-1.5-1.4-1.7-4.8-1.7-7.3V73.1c0-1.8,0.7-2.5,1.7-2.5h6.7
	c1.8,0,4.3,0.3,5.2,1.9C86.9,73.8,88.2,73.2,87.8,71.4z"/>
<path class="st0" d="M212.7,66h-5.3c-1.3,0-2,0.5-2,1.3c0,1.1,2,1.3,2,2.6c0,0.3-0.1,0.6-0.3,0.9l-3.1,7.1l-3.2-7.2
	c-0.2-0.3-0.3-0.7-0.3-1.1c0-0.9,2-1.2,2-2.4c0-0.7-0.6-1.2-1.7-1.2h-7.1c-1.4,0-2,0.4-2,1.3c0,1.1,0.8,1.3,1.7,1.8
	c0.7,0.5,1.2,1.3,1.4,2.1l5.8,13.4l0,0c-7.5,14.2-16,13.8-17.3,13.5c-2.8-0.5-3.8-3.4-3-4.6c0.6-0.8-1.1-1.7-1.8-1.7
	s-3.4,1.4-3.7,3.1c-0.9,4,2.6,4.9,5.4,6.5c1.9,1.1,6.2,0.4,10.1-1.1c3.1-1.2,12.4-8.8,15-15.4l5.9-14.6c0.2-0.7,0.7-1.3,1.4-1.7
	c0.7-0.4,1.2-0.4,1.2-1.3C213.9,66.6,213.4,66,212.7,66z"/>
<path class="st0" d="M182.3,84c0-1-0.8-1.1-1.5-1.7c-0.7-0.5-1-1.3-0.9-2.1v-4.8c0-2.9,1.1-4.4,3.2-4.4c1,0,1.6,0.6,2.2,1.6
	c0.4,0.7,0.7,1,1.1,1c0.9,0,1-1,1.4-2.6c0.6-1.4,1-2.9,1.4-4.4c0-0.8-1-1.2-2.7-1.2c-2.5,0-4.4,1.6-6.7,4.6v-3.5
	c0-0.9-0.2-1.4-0.7-1.4c-0.4,0-0.8,0.1-1.1,0.4l0,0l-4.4,2.6c-1.3,0.7-2,1.2-2,1.8s0.6,0.9,1.4,1.3s1,0.5,1,1.5v7.4
	c0.1,0.8-0.3,1.7-1,2.1c-0.8,0.6-1.6,0.7-1.6,1.7c0,0.8,0.6,1.4,1.4,1.4c0.1,0,0.1,0,0.2,0h7.7c0.7,0.1,1.4-0.4,1.5-1.1
	C182.3,84.2,182.3,84.1,182.3,84z"/>
<path class="st0" d="M166.9,68.4c-2.2-1.9-5-3-7.9-3c-2.9-0.1-5.7,1-7.7,3.1c-1.9,1.9-2.9,4.6-2.9,7.3c0,6.1,4.3,10,11.6,10l0,0
	c6.6,0,10.8-3.6,10.8-9.1C170.8,73.6,169.3,70.5,166.9,68.4z M161,82.9c-2.1,0-3.7-1.5-5.1-4.5c-1-1.9-1.5-4-1.5-6.1l0,0
	c0-2.7,1.3-4.3,3.2-4.3c1.7,0,3.8,1.5,5.1,4c1.1,2,1.7,4.2,1.8,6.4C164.5,81.3,163.1,82.9,161,82.9z"/>
<path class="st0" d="M146.8,80.5h-0.1c-1.1,0-2.5,1.6-3.8,1.6c-1.5,0-1.8-0.9-1.8-2.8v-10h5.1c0.9,0,1.4-1,1.4-2.6
	c0-0.6-0.1-0.7-0.7-0.7H141v-5.3c0-1.6-0.1-2.3-1-2.3c-0.6,0-1,0.7-1.8,1.7l-5.5,6.5c-0.5,0.6-1,1-1,1.7s0.4,1,1.4,1h2.1v9.1
	c-0.1,1.1-0.3,2.3-0.5,3.4c0,1.9,2.6,4,5.9,4c4.4,0,7.2-2.5,7.2-4.3C147.8,81,147.3,80.5,146.8,80.5z"/>
<path class="st0" d="M129,78.9c-0.7,0-1.2,0.8-2.1,1.6c-1.3,1.3-3,2-4.8,2.1c-3.2,0-5.7-3-5.7-7.6c0-4.3,1.8-6.8,4.4-6.8
	c1.6,0,3.1,1.1,3.7,3.2c0.6,1.8,0.7,2.9,1.6,2.9c0.4,0,0.8-0.3,1-0.9l0,0l2-4.1c0.1-0.2,0.2-0.5,0.2-0.8c0-1-3.5-3-7.9-3
	c-2.9-0.1-5.8,0.9-8,2.8c-2.3,1.9-3.6,4.7-3.7,7.6c0,5.9,4.4,10,11,10c2.8,0.1,5.6-1,7.5-3c1.2-1.3,1.8-2.3,1.8-3
	C129.9,79.4,129.5,78.9,129,78.9C129,78.9,129,78.9,129,78.9z"/>
<path class="st0" d="M109.6,81.7c-0.2,0-0.4,0.4-1,0.4c-1.1,0-1.9-1-2.5-3.2l-2-6.4c-1.6-4.9-3.7-7.1-8-7.1c-4.8,0-8,2.9-8,4.6
	c0,0.5,0.3,1,0.8,1c0,0,0,0,0,0c1.1,0,2.5-2,5.1-2s3.4,1.1,4.2,4.1c-0.5,0-1,0-1.5,0c-6.4,0-10.2,2.8-10.2,7c0,3.2,2.7,5.7,7,5.7
	c2.8,0,5.5-0.9,7.8-2.5l0,0c1.1,1.5,2.9,2.4,4.8,2.3c2.6,0,4.2-1.1,4.2-2.6C110.2,82.2,109.9,81.7,109.6,81.7z M96.5,82.5
	c-2.2,0-3.7-1.4-3.7-3.3s1.6-3.5,4.1-3.5c1.3,0,2.1,0.4,2.3,1.2l0,0l0.6,2.2c0.1,0.3,0.1,0.7,0.1,1C100,81.5,98.7,82.5,96.5,82.5
	L96.5,82.5z"/>
<path class="st0" d="M59.5,36.9c-0.6,0-1.4,0.7-2.8,1.5c-1.1,0.7-2.4,1.1-3.7,1.1c-2.7,0-4.7-1.6-5.6-4.6l11-3.6
	c0.9-0.3,1.2-0.4,1.2-0.9c-0.3-1.5-0.9-2.9-1.9-4c-1.8-2.3-4.6-3.7-7.6-3.6c-2.7,0-5.2,1-7.2,2.9c-2,1.8-3.1,4.4-3,7.2
	c0,5.9,4.5,10.3,10.9,10.3c3,0,5.9-1.1,8.1-3.1c0.7-0.5,1.2-1.3,1.4-2.2C60.5,37.3,60.1,36.9,59.5,36.9
	C59.5,36.9,59.5,36.9,59.5,36.9z M46.7,32.8L46.7,32.8c-0.4-1.1-0.6-2.2-0.7-3.4c0-2.4,1.3-3.9,3.1-3.9c2.2,0,4,2.4,4,4.4
	c0,0.4-0.3,0.8-1,1L46.7,32.8L46.7,32.8z"/>
<path class="st0" d="M215.6,36.9c-0.6,0-1.4,0.7-2.8,1.5c-1.1,0.7-2.4,1.1-3.7,1.1c-2.8,0-4.7-1.6-5.6-4.6l11.1-3.6
	c0.8-0.3,1.2-0.4,1.2-0.9c-0.2-1.5-0.9-2.9-1.9-4c-1.8-2.4-4.7-3.7-7.6-3.6c-2.6,0-5.2,1-7.1,2.9c-2,1.8-3.1,4.4-3.1,7.2
	c0,5.9,4.5,10.3,10.9,10.3c3,0,5.9-1.1,8.2-3.1c0.7-0.5,1.2-1.3,1.3-2.2C216.5,37.4,216.2,36.9,215.6,36.9
	C215.6,36.9,215.6,36.9,215.6,36.9z M202.8,32.8L202.8,32.8c-0.4-1.1-0.6-2.2-0.7-3.4c0-2.4,1.3-3.9,3-3.9c2.2,0,4,2.4,4,4.4
	c0,0.4-0.3,0.8-1,1L202.8,32.8L202.8,32.8z"/>
<path class="st0" d="M195.2,40c-1.1-0.6-1.6-1.8-2.5-3.6l-4-8.2c0.8-1,1.8-1.8,3-2.2c1.1-0.3,1.9-0.4,1.9-1.5s-0.6-1.2-1.8-1.2H186
	c-1.1,0-1.6,0.3-1.6,1.2c0,1.1,1.6,1.1,1.6,1.8s-1.3,2.2-4,4.4V10.1c0-0.8-0.2-1.2-0.8-1.2c-0.4,0-0.7,0.2-1,0.4l-4.6,2.9
	c-1.1,0.7-1.6,1.1-1.6,1.7c0,0.8,0.6,0.9,1.4,1.2s0.9,0.6,0.9,1.6l0,0v20.8c0.1,0.8-0.2,1.5-0.9,2c-0.7,0.6-1.5,0.7-1.5,1.7
	c0,0.7,0.5,1.3,1.3,1.4c0.1,0,0.2,0,0.2,0h7.6c0.7,0.1,1.4-0.4,1.5-1.1c0-0.1,0-0.1,0-0.2c0-1-0.7-1.1-1.5-1.7c-0.7-0.4-1.1-1.2-1-2
	v-2.9l2.6-2.4l4.5,9.1c0.4,0.9,0.6,1.2,1.4,1.2h4.5c0.6,0,1.1-0.4,1.2-1c0-0.1,0-0.1,0-0.2C196.1,40.5,195.8,40.4,195.2,40z"/>
<path class="st0" d="M172,39c-0.1,0-0.4,0.4-1,0.4c-1.1,0-1.9-1-2.5-3.2l-2-6.3c-1.5-4.9-3.7-7-8-7c-4.8,0-8,2.9-8,4.5
	c0,0.5,0.3,1,0.8,1c0,0,0,0,0.1,0c1,0,2.4-2,5-2s3.4,1.1,4.2,4.1c-0.5,0-1,0-1.5,0c-6.4,0-10.1,2.8-10.1,7c0,3.2,2.7,5.7,6.9,5.7
	c2.8,0,5.4-0.9,7.7-2.5l0,0c1.1,1.5,2.9,2.4,4.8,2.3c2.6,0,4.1-1.1,4.1-2.6C172.5,39.5,172.2,39,172,39z M159,39.7
	c-2.2,0-3.6-1.3-3.6-3.3s1.5-3.4,4.1-3.4c1.3,0,2.1,0.4,2.3,1.2l0,0l0.6,2.2c0.1,0.3,0.2,0.7,0.2,1C162.5,38.7,161.1,39.7,159,39.7
	L159,39.7z"/>
<path class="st0" d="M145,36.1c-0.7,0-1.2,0.8-2.1,1.6c-1.3,1.3-3,2-4.8,2c-3.2,0-5.6-3-5.6-7.6c0-4.3,1.8-6.8,4.3-6.8
	c1.6,0,3,1.1,3.7,3.2c0.6,1.8,0.7,2.9,1.5,2.9c0.4,0,0.8-0.3,1.1-0.8l1.9-4.1c0.1-0.2,0.2-0.5,0.2-0.8c0-1-3.5-3-7.9-3
	c-2.9,0-5.7,1-7.9,2.9c-2.2,1.9-3.6,4.6-3.7,7.6c0,5.9,4.4,9.9,10.9,9.9c2.8,0.1,5.6-1,7.5-3c1.2-1.2,1.8-2.2,1.8-3
	C146,36.6,145.6,36.1,145,36.1z"/>
<path class="st0" d="M124.2,36.9c-0.6,0-1.4,0.7-2.8,1.5c-1.1,0.7-2.4,1.1-3.7,1.1c-2.8,0-4.7-1.6-5.6-4.6l0,0l11.1-3.6
	c0.8-0.3,1.2-0.4,1.2-0.9c-0.2-1.5-0.9-2.9-1.9-4c-1.8-2.4-4.7-3.7-7.6-3.6c-2.6,0-5.2,1-7.1,2.9c-2,1.8-3.1,4.4-3.1,7.2
	c0,5.9,4.5,10.3,10.9,10.3c3,0,5.9-1.1,8.2-3.1c0.7-0.5,1.2-1.3,1.3-2.2C125.1,37.4,124.7,36.9,124.2,36.9
	C124.2,36.9,124.2,36.9,124.2,36.9z M110.8,29.4c0-2.4,1.3-3.9,3-3.9c2.2,0,4,2.4,4,4.4c0,0.4-0.3,0.8-1,1l-5.4,1.9
	C111,31.7,110.8,30.6,110.8,29.4L110.8,29.4z"/>
<path class="st0" d="M96.1,30.3c-4.4-1.3-6.7-1.7-6.7-3.2c0-0.9,1-1.5,2.5-1.5c2.4,0,4.2,1,6.3,2.4c1,0.7,1.5,1.2,2.1,1.2
	s0.8-0.3,0.8-0.9c-0.1-0.4-0.2-0.8-0.5-1.2L98,23.1c-0.3-0.5-0.6-0.8-1-0.8c-0.7,0-1.4,1.3-2.3,1.3s-2.7-0.7-5-0.7
	c-3.9,0-6.5,2.4-6.5,5.3c0,3.6,2.7,4.9,7.8,6.7c3.2,1.1,5,1.6,5,3c0,1.1-1.3,1.9-3.5,1.9c-2.1,0-4.1-0.6-5.9-1.8
	c-1.9-1.3-2.8-2.4-3.4-2.4c-0.4,0-0.7,0.3-0.7,0.7c0,0,0,0,0,0l0,0c0.2,0.8,0.5,1.5,0.9,2.2l2,4c0.7,1.3,1.1,2,1.7,2
	c0.4,0,0.6-0.4,1.1-1s0.6-1,1.6-1c1.8,0.3,3.6,0.5,5.3,0.7c4.5,0,7.4-2.6,7.4-6.4C102.5,33.6,100.3,31.6,96.1,30.3z"/>
<path class="st0" d="M80.2,36.9c-0.6,0-1.4,0.7-2.8,1.5c-1.1,0.7-2.4,1.1-3.7,1.1c-2.7,0-4.7-1.6-5.6-4.6l0,0l11.1-3.6
	c0.9-0.3,1.2-0.4,1.2-0.9c-0.3-1.5-0.9-2.9-1.9-4c-1.8-2.3-4.7-3.7-7.6-3.6c-2.7,0-5.2,1-7.2,2.9c-2,1.8-3.1,4.4-3,7.2
	c0,5.9,4.5,10.3,10.9,10.3c3,0,5.9-1.1,8.1-3.1c0.7-0.5,1.2-1.3,1.4-2.2C81.2,37.3,80.8,36.9,80.2,36.9
	C80.3,36.9,80.3,36.9,80.2,36.9z M66.8,29.4c0-2.4,1.3-3.9,3.1-3.9c2.2,0,4,2.4,4,4.4c0,0.4-0.3,0.8-1,1l-5.4,1.8
	C67.1,31.7,66.9,30.6,66.8,29.4z"/>
<path class="st0" d="M33.9,61.9c-17.3,0.2-22.6-16.2-22.7-28.2C11,19,18.3,8.6,28.7,7.6C36,6.9,44.2,13.1,47.6,21
	c1.1,2.4,5.6,2.2,4.6-1.4C50.5,13.7,47.6,8.4,45,2.9c-0.7-1.4-2.7-0.7-3.9,1.3c-0.7,1.2-2.1,1.7-3.4,1.1c-2.7-0.9-5.5-1.4-8.4-1.4
	l0,0c-18.3-0.2-29,17.7-28.9,32c0.1,16,10.7,31.7,29.4,31.5c7.7,0,14.9-3.7,19.4-9.9c-0.8-0.5-1.7-0.9-2.6-1.3
	C43.3,59.7,38.7,61.7,33.9,61.9z"/>
<path class="st0" d="M52.9,5.8c0.4,0,0.8-0.6,1.7-1.3c0.8-0.8,1.9-1.3,3-1.2c0.9,0,1.1,0.2,1.1,0.9v9.2c0,0.5-0.1,0.8-0.5,0.9
	s-1,0.3-1,0.9s0.4,0.9,1.3,0.9h4.1c0.8,0,1.3-0.3,1.3-0.9s-0.5-0.7-1-0.9c-0.3-0.2-0.5-0.5-0.5-0.9V4.1c0-0.7,0.3-1,1.3-0.9l2.8,0.1
	c0.6,0,0.1,2.5,0.5,2.5c0.3,0,0.6-0.2,0.6-0.5c0,0,0,0,0,0c0.4-1.4,1.1-2.7,2-3.8C70,0.6,69.5,0.7,69,0.7s-0.6,0.6-1.7,0.6H56.8
	c-1,0-0.9-0.7-1.5-0.7c-0.3,0-0.7,0.4-1.1,1.1c-1.1,2-1.8,3.2-1.8,3.6C52.4,5.5,52.5,5.7,52.9,5.8C52.8,5.7,52.9,5.8,52.9,5.8z"/>
<path class="st0" d="M90.4,13.4c-0.3,0-0.8,0.3-1.5,0.8c-0.6,0.3-1.3,0.5-1.9,0.5c-1.4,0-2.6-0.9-2.9-2.3l5.8-1.8
	c0.4-0.2,0.6-0.2,0.6-0.4c-0.1-0.7-0.5-1.4-1-2c-1-1.2-2.5-1.8-4-1.8c-1.4,0-2.7,0.5-3.7,1.4c-1,0.9-1.6,2.2-1.6,3.5
	c0,2.9,2.3,5.1,5.7,5.1c1.6,0,3.1-0.5,4.3-1.5c0.4-0.2,0.6-0.6,0.7-1.1C90.8,13.6,90.7,13.4,90.4,13.4z M83.4,9.8
	c0-1.2,0.7-1.9,1.6-1.9c1.2,0.1,2.1,1,2.1,2.2c0,0.2-0.2,0.4-0.5,0.5l-2.8,0.9C83.6,10.9,83.4,10.3,83.4,9.8z"/>
<path class="st0" d="M68.4,4.3c0,0.4,0.3,0.4,0.7,0.6s0.5,0.3,0.5,0.7V14c0,0.4-0.1,0.7-0.5,0.9c-0.4,0.2-0.8,0.3-0.8,0.7
	s0.3,0.6,0.8,0.6h4c0.5,0,0.8-0.3,0.8-0.6s-0.4-0.5-0.8-0.7c-0.3-0.2-0.5-0.5-0.5-0.9V10c0-1.1,0.6-1.7,1.4-1.7s1.2,0.7,1.7,2.1
	c0.3,0.9,0.5,1.9,0.7,2.8c0.2,1.9,0,6.6-2.7,7.8c-0.9,0.4-0.2,0.9,0.3,0.7c1-0.5,4.9-3.1,5.2-6.6c0.1-1.3,0-2.6-0.3-3.9l-0.6-2
	c-0.6-1.9-1.5-2.8-3-2.8c-1,0-1.9,0.5-2.6,1.2v-5c0-0.4-0.1-0.5-0.4-0.5c-0.2,0-0.4,0.1-0.6,0.2l-2.5,1.3
	C68.7,3.9,68.4,4.1,68.4,4.3z"/>
<path class="st0" d="M27.4,56.3c-1.7,0.9-0.3,2,0.7,1.4c1.9-1.1,9.4-7.1,9.9-14.9c0.2-3,0-6-0.5-9l-1.1-4.5c-1.1-4.3-3-6.4-5.7-6.4
	c-1.8,0-3.4,0.8-5.1,2.7V14.1c0-0.8-0.2-1.2-0.8-1.2c-0.4,0-0.7,0.1-1,0.4l-4.7,2.9c-1.1,0.7-1.6,1.2-1.6,1.7c0,0.8,0.5,1,1.4,1.3
	s0.9,0.6,0.9,1.6v16.8c0.1,0.8-0.2,1.6-0.9,2.1c-0.8,0.6-1.5,0.6-1.5,1.7c0,0.7,0.5,1.3,1.3,1.4c0.1,0,0.2,0,0.2,0h7.6
	c0.7,0.1,1.4-0.4,1.5-1.2c0-0.1,0-0.1,0-0.2c0-1-0.7-1.1-1.5-1.7c-0.7-0.4-1.1-1.2-1-2l0,0V31c0-2.4,1.1-3.8,2.7-3.8
	s2.3,1.5,3.2,4.8c0.6,2.1,1.1,4.3,1.3,6.5C33,42.8,32.5,53.6,27.4,56.3z"/>
</svg>
