<?xml version="1.0" encoding="utf-8"?>
<!-- Generator: Adobe Illustrator 21.1.0, SVG Export Plug-In . SVG Version: 6.00 Build 0)  -->
<svg version="1.1" id="Layer_1" xmlns="http://www.w3.org/2000/svg" xmlns:xlink="http://www.w3.org/1999/xlink" x="0px" y="0px"
	 viewBox="0 0 216.2 99.3" style="enable-background:new 0 0 216.2 99.3;" xml:space="preserve">
<title>Fast Casual</title>
<path d="M171.8,41.6l-29-27.3c0,1.3,0.1,2.6,0.4,3.8c1.1,7.9,2.6,15.8,4.6,23.6c0.2,0.8,0.5,1.1,1.4,1c1.5-0.2,3-0.3,4.5-0.2
	c0.4,0,0.9,0,0.9,0.6s-0.5,0.6-0.9,0.6c-4,0.2-8,0.8-11.9,1.8c-0.2,0-0.3,0.1-0.5,0.1c-0.4,0.1-0.8,0-0.9-0.4s0.1-0.6,0.5-0.7
	c1-0.3,1.9-0.7,2.9-0.9c0.7-0.2,0.9-0.5,0.9-1.2c-0.3-7.9-1.2-15.8-2.6-23.6c-0.3-1.9-0.7-3.7-1-5.6c-0.1-0.8-0.6-1.4-1.3-1.8
	c-1.2-0.7-2.7-0.8-4.1-0.5c-0.2,0-0.4,0.1-0.6,0.1s-0.6,0-0.7-0.3s0.3-0.4,0.5-0.5c1.4-0.4,2.9-0.4,4.3-0.8c2.7-0.8,4.5,0.1,6.5,2
	c7.5,7.2,15.3,14.2,22.9,21.3l1.1,1c0-1.2-0.1-2.4-0.4-3.6c-1-7.8-2.5-15.6-4.4-23.3c-0.2-0.7-0.4-1-1.2-0.9
	c-1.2,0.2-2.5,0.2-3.7,0.1c-0.4,0-0.9-0.1-0.9-0.6s0.4-0.6,0.9-0.6c3.8-0.1,7.6-0.7,11.3-1.7c0.4-0.1,0.9-0.3,1.1,0.3
	s-0.4,0.7-0.8,0.8c-0.9,0.3-1.8,0.6-2.7,0.8c-0.8,0.2-0.9,0.5-0.9,1.2c0.2,6.4,0.8,12.7,1.7,19c0.7,5.1,1.6,10.1,2.6,15.1
	c0.2,0.9,0.5,0.7,1,0.3c0.7-0.6,1.2-1.4,1.4-2.3c2.7-11.5,5.4-22.9,8.1-34.4c0.4-2.5,2.8-4.1,5.2-3.7c1.5,0.3,2.8,1.3,3.4,2.7
	c4.5,9,9.1,17.9,13.7,26.9c0.8,1.5,1.6,3.1,2.4,4.6c0.7,1.9,2.8,2.8,4.7,2.1c0.1,0,0.1-0.1,0.2-0.1c0.9-0.3,1.9-0.1,2.5,0.6
	c0.9,0.9,0.8,2.4-0.1,3.3c-0.4,0.4-1,0.6-1.6,0.6c-2.9,0-5.8,0-8.7,0.2c-2.4,0.1-4.7,0.7-6.8,1.7c-0.9,0.6-2,0.5-2.8-0.3
	c-0.7-0.6-0.9-1.6-0.6-2.5c0.3-1,1.3-1.6,2.3-1.6c1.6,0,3.3-0.2,4.8-0.7c1.1-0.4,1.3-0.7,1-1.8c-1-3-2.3-5.8-3.9-8.5
	c-0.1-0.3-0.5-0.5-0.8-0.3C193,28.4,188,29,183,29.2c-0.5-0.1-0.9,0.3-1,0.7c0,0,0,0,0,0c-0.7,2.7-1.3,5.4-1.7,8.2
	c-0.3,2,0.1,2.4,2.2,2.4c1.4-0.1,2.8-0.2,4.1-0.6c1.2-0.3,2.5,0.4,2.8,1.6c0.1,0.5,0.1,1-0.1,1.5c-0.3,1-1.3,1.6-2.3,1.4
	c-4.1-1.2-8.1-0.1-12,0.8c-1.3,0.3-2.7,0.6-4,1c-0.9,0.3-1.9,0-2.5-0.8c-0.6-0.7-0.7-1.7-0.2-2.4c0.4-0.9,1.4-1.4,2.3-1.2
	C171.1,41.9,171.5,41.8,171.8,41.6z M187.5,5.6l-0.9,4.3c-1,4.7-1.9,9.4-2.9,14.1c-0.1,0.4-0.4,0.9,0.5,0.8
	c3.6-0.4,7.3-0.6,10.9-1.3c0.9-0.2,0.9-0.4,0.5-1.1c-2.6-5.4-5.1-10.7-7.7-16.1C187.9,6.2,187.8,5.8,187.5,5.6L187.5,5.6z"/>
<path d="M35.5,50.9c0.3,0.7,0.4,1.1,0.6,1.5c2.6,6.2,5.2,12.4,7.7,18.6c0.2,0.6,0.7,1.1,1.3,1.5c1.8,1,3.6,2.1,5.4,3.2
	c0.4,0.2,0.8,0.6,0.9,1.1c0.5,1.2,1,2.5,1.5,3.7c0.3,0.7,0.3,1-0.5,1.4c-5,2-9.9,4.1-14.8,6.2c-1.2,0.5-2.4,1-3.6,1.5
	c-0.4,0.2-0.9,0.2-1.3-0.1c-1.9-1.1-3.8-2.3-5.8-3.4c-0.3-0.2-0.6-0.5-0.8-0.9c-0.7-1.8-1.4-3.5-2.2-5.3c-0.2-0.5-0.2-0.8,0.3-1
	c0.4-0.2,0.8-0.4,1.1-0.7c1.5-0.9,1.9-1.6,1.5-3.4c-0.2-0.8-0.4-1.6-0.8-2.4c-1.1-2.8-2.3-5.6-3.5-8.4c-0.2-0.6-0.4-0.8-1.1-0.5
	c-1.3,0.5-2.6,1.5-4,1.5c-1.4-0.2-2.7-0.7-4-1.3c-1.4-0.5-2.8-1-4.2-1.5c-0.4-0.1-0.7-0.4-0.9-0.8c-2.6-6.3-5.2-12.5-7.8-18.8
	c-0.3-0.6-0.1-0.8,0.5-1c10.4-4.3,20.8-8.7,31.2-13c0.4-0.2,0.9-0.2,1.3,0.1c2.3,1.3,4.5,2.7,6.8,4c0.4,0.2,0.7,0.6,0.9,1
	c2.4,5.9,4.9,11.8,7.4,17.7c0.3,0.6,0.2,0.8-0.4,1.1c-1.8,0.7-3.6,1.5-5.3,2.2c-0.4,0.2-0.9,0.2-1.3-0.1
	C39.7,53.3,37.7,52.2,35.5,50.9z M10.5,48.1c0-0.2,0-0.4,0-0.6c0.1-1.8,0.9-3,2.2-3.5c1.2-0.4,2.3,0.2,3.5,1.8
	c0.9,1.2,1.6,2.6,2.1,4c2.2,5.3,4.4,10.6,6.6,15.9c1.2,2.8,2.5,5.6,3.4,8.5s0.5,3.7-2,5.3c-0.1,0.1-0.2,0.1-0.3,0.1
	c-0.5,0.2-0.5,0.5-0.3,1c0.4,0.8,0.7,1.6,1,2.4c0.3,0.8,0.6,0.9,1.4,0.6c4.5-1.9,9-3.8,13.5-5.7c0.8-0.3,2-0.4,2.2-1.1
	s-0.5-1.6-0.8-2.4c-0.6-1.5-0.6-1.5-2.2-1.1c-1.3,0.5-2.7,0-3.5-1.1c-0.6-0.7-1-1.5-1.4-2.3c-3.5-8.3-6.9-16.5-10.3-24.8
	c-0.6-1.3-0.9-2.7-0.9-4.1c-0.1-1.5,1-2.7,2.4-2.9c0.5,0,1.1,0.1,1.6,0.4c0.6,0.3,1.1,0.7,1.6,1.2c1,1.1,1.9,2.3,2.5,3.6
	c0.9,1.7,1.6,3.4,2.3,5.2c0.3,0.6,0.5,0.9,1.2,0.5c0.8-0.4,1.6-0.7,2.5-1c0.7-0.2,0.7-0.5,0.5-1.2c-2.2-5.3-4.4-10.6-6.6-15.9
	c-0.3-0.7-0.6-0.7-1.2-0.4c-2.8,1.2-5.7,2.4-8.5,3.5L3.1,42.2c-0.4,0.2-1,0.2-0.6,0.9c2.3,5.5,4.6,10.9,6.8,16.4
	c0.2,0.5,0.5,0.5,0.9,0.3c0.9-0.4,1.9-0.8,2.9-1.2c0.5-0.2,0.6-0.4,0.4-0.9c-0.5-1.2-1-2.4-1.5-3.6C11.1,52.3,10.6,50.2,10.5,48.1
	L10.5,48.1z"/>
<path d="M93.1,47.2c-0.2-1.1-0.4-2.2-0.7-3.4c-1.2-5.8-2.3-11.6-3.5-17.4c-0.1-0.7-0.1-1,0.7-1.1c1.8-0.3,3.6-0.7,5.4-1.1
	c0.8-0.2,1,0.1,1.2,0.8c1.3,6.6,2.6,13.1,3.9,19.7c0.2,0.9,0.4,1.4,1.5,1.1c1.7-0.5,3.4-0.7,5.2-1c0.7-0.1,0.8-0.4,0.7-1
	c-1.3-6.5-2.6-12.9-3.9-19.4c-0.3-1.6-0.5-1.2,1-1.5s3.3-0.6,4.9-1c0.8-0.2,1.1-0.1,1.3,0.8c1.2,6.5,2.6,13.1,3.8,19.6
	c0.2,0.8,0.4,0.9,1.2,0.8s1.4-0.3,2.1-0.4c0.4-0.1,0.6,0,0.7,0.4c0.4,2.1,0.8,4.1,1.2,6.2c0.1,0.6-0.3,0.6-0.6,0.6l-11,2.2
	c-4.2,0.8-8.5,1.6-12.7,2.5c-0.9,0.2-1.2,0-1.4-0.9c-0.3-1.7-0.7-3.4-1-5.1C92.9,48.1,92.9,47.6,93.1,47.2z"/>
<path d="M64.3,49.1c-0.2,1.2-0.4,2.4-0.5,3.7c-0.1,0.3,0,0.5,0.1,0.8c0.8,2.1,1.9,4.1,3.3,5.9c0.6,0.7,1.3,1.2,2.2,1.5
	c0.6,0.1,1,0.1,1-0.7s0.3-1.3,0.2-1.9c0-1.1,0.5-1.3,1.4-1.4c4.5-0.7,8.9-2,13-3.9c1.2-0.6,2.4-1.2,3.5-2c-0.7,1.9-1.6,3.7-2.6,5.5
	c-0.3,0.5-1,0.7-1.5,0.9c-3.8,1.7-7.7,3.1-11.8,4.1h-0.2c-3.5,1-4.9,0.4-6.8-2.7c-1-1.6-1.8-3.4-2.3-5.2c-0.4-1.3,0.2-2.6,0.2-4
	c0-0.1,0-0.3,0.1-0.4c-0.2-2.2,0.9-3.2,2.9-3.7c1.5-0.5,2.9-1.1,4.3-1.8c0.5-0.2,0.7-0.1,0.9,0.4c0.5,1.6,1.1,3.2,1.7,4.8
	c0.2,0.6,0.4,0.7,1,0.5c0.7-0.2,1.3-0.4,2-0.6c0.7-0.2,0.8-0.5,0.5-1.1c-1.7-4.8-3.4-9.7-5.1-14.5c-0.4-1.1-0.5-2.3-0.4-3.4
	c0.2-1.8,0.3-3.6,0.4-5.4c0-0.5,0.3-1,0.8-1.1c2.1-0.7,4.1-1.5,6.2-2.3c0.8-0.3,1,0,1.2,0.7c2.6,7.7,5.2,15.4,7.8,23.1
	c0.3,0.8,0.5,1.5,0.8,2.3c0.4,0.8,0.2,1.8-0.5,2.4c-0.7,0.7-1.5,1.4-2.3,1.8c-3.9,2.1-8.1,3.6-12.4,4.4c-4,0.7-6.1-0.5-7.7-4.3
	c-0.3-0.8-0.6-1.6-0.9-2.4L64.3,49.1z M72.9,25.9h-0.2c-0.2,1.4-0.4,2.9-0.6,4.3c-0.1,0.4,0,0.7,0.1,1.1c1.9,5.5,3.8,10.9,5.7,16.4
	c0.1,0.2,0.1,0.6,0.4,0.5c0.7,0,1.3-0.3,1.8-0.7c0.4-0.4,0.2-0.8,0-1.2l-4.4-12.7C74.7,31.1,73.8,28.5,72.9,25.9z"/>
<path d="M129.5,34.1c-0.4,1.8-1.1,3.4-2.1,4.9c-2,2.8-4.3,3.2-7.1,1.2c-1.5-1.1-2.6-2.7-3.3-4.4c-2.7-6.3-3-13.3-1-19.8
	c0.3-1.1,0.9-2.2,1.6-3.1c1.6-2.3,4.8-2.9,7.1-1.3c0,0,0,0,0,0c0.3,0.2,0.7,0.3,1.1,0.3c0.7-0.1,1.4-0.1,2.1-0.2
	c0.9-0.1,1.6-0.1,2,0.9c0.2,0.6,0.8,0.8,1.5,0.3s1.1-0.3,1.2,0.6c0.2,1.3,0.2,2.7,0.1,4c0,2.9,0.3,5.9,0.8,8.7
	c0.2,0.8,0.4,1.5,0.8,2.2c0.3,0.9,1.4,1.4,2.3,1.1c0.4-0.1,0.7-0.4,0.9-0.7c0.9-1.1,1.5-2.3,1.8-3.7c0.2-0.6,0.3-1.2,0.6-1.8
	c0.2-0.5,0.6-0.5,0.8,0c0.5,1.8,1.5,3.5,0.5,5.6c-0.8,1.8-1.9,3.5-3.1,4.9c-2.6,2.7-5.3,2.9-8.3,0.6
	C129.8,34.3,129.7,34.2,129.5,34.1z M122.3,22.7c0.1,1.4,0.2,3.3,0.4,5.1c0.1,1.8,0.5,3.6,1.3,5.3c0.2,0.6,0.8,1,1.4,1
	c0.7,0,1.1-0.6,1.3-1.2c0.3-0.9,0.4-1.8,0.4-2.8c0-4.4-0.9-8.7-1.5-13.1c-0.2-1.2-0.9-1.9-1.7-1.8c-1.1,0.1-1.3,1.1-1.4,1.9
	C122.3,19,122.2,20.8,122.3,22.7z"/>
<path d="M113.3,73.5c0.3-6.1,0.4-10.2,0.6-14.4c-0.1-0.7,0.4-1.3,1.1-1.4c0,0,0.1,0,0.1,0c2.7-0.5,5.5-1.1,8.2-1.7
	c0.5-0.2,1.1,0,1.3,0.5c0,0,0,0.1,0,0.1c3.8,7.5,7.6,15,11.4,22.4c0.4,0.9,0.3,1.2-0.7,1.4c-2.3,0.5-4.6,0.9-6.9,1.5
	c-0.8,0.2-1.1-0.1-1.4-0.8c-0.4-1.2-1-2.4-1.5-3.6c-0.1-0.2-0.1-0.5-0.3-0.6c-1-0.6-1.9,0.2-2.8,0.3c-0.6,0-0.6,0.5-0.6,1
	c0.1,1.4,0.1,2.8,0.1,4.2c0.1,0.5-0.3,1.1-0.8,1.1c0,0-0.1,0-0.1,0c-2.4,0.5-4.8,1-7.1,1.5c-0.9,0.2-1.1-0.1-1.1-0.9
	C113.1,79.8,113.2,75.6,113.3,73.5z M122,69l-0.3,0.1c0,1.3,0,2.6,0,3.9c0,0.6,0.5,0.4,0.8,0.3s1.2,0,1-0.6
	C123.1,71.5,122.6,70.2,122,69L122,69z"/>
<path d="M164.3,47.4c2.1,0,4.1,0.5,5.9,1.5c1.4,0.9,2.5,2.2,3,3.8c0.2,0.6,0.1,1-0.6,1.2c-2.2,0.5-4.3,1.1-6.5,1.6
	c-0.6,0.1-1,0.1-1.4-0.5c-0.2-0.3-0.5-0.5-0.8-0.6c-0.4-0.2-0.9-0.1-1.2,0.3c-0.3,0.4,0,0.8,0.3,1c0.5,0.4,1,0.7,1.7,0.9
	c1.3,0.4,2.7,0.8,4,1.2c1,0.3,2,0.7,3,1.2c4.9,2.5,4.4,7.3,2.5,10.2c-0.6,0.9-1.3,1.7-2.2,2.3c-3.3,2.3-7.4,3.1-11.3,2.2
	c-3.2-0.8-5.7-3.5-6.2-6.8c-0.1-0.5,0.1-0.7,0.6-0.8l6.2-1.6c0.4-0.1,0.8,0,1,0.4c0,0,0,0.1,0,0.1c0.3,0.8,0.8,1.5,1.5,1.9
	c0.6,0.4,1.4,0.3,1.9-0.3c0,0,0,0,0,0c0.4-0.8-0.1-1.3-0.8-1.6c-1.8-0.8-3.6-1.5-5.4-2c-1.6-0.5-3-1.2-4.3-2.2
	c-2.7-2-3.3-5.9-1.3-8.6c0.1-0.1,0.1-0.1,0.2-0.2c2.1-2.9,5.1-4.1,8.5-4.6C163.2,47.5,163.8,47.4,164.3,47.4z"/>
<path d="M85.3,64c0.3-0.1,0.6,0.1,0.7,0.4c0,0,0,0.1,0,0.1c0.4,1.8,0.8,3.6,1.2,5.5c0.2,0.7-0.3,0.8-0.9,0.9c-2.2,0.5-4.4,1-6.6,1.4
	c-0.9,0.2-1.3,0.5-1,1.5c0.1,0.2,0.1,0.4,0.2,0.7c0.1,0.7,0.4,0.9,1.1,0.7c0.9-0.3,1.9-0.4,2.8-0.6c0.6-0.1,1,0,1.1,0.7
	c0.3,1.7,0.7,3.5,1.1,5.2c0.2,0.7-0.1,1-0.7,1.1c-0.9,0.2-1.8,0.4-2.7,0.6s-0.9,0.5-0.8,1.2c0.5,2.4,1,4.8,1.6,7.2
	c0.2,0.8,0,1.1-0.8,1.3c-2.6,0.5-5.1,1-7.6,1.6c-0.6,0.1-0.9,0-1.1-0.7c-1.7-8-3.4-16.1-5.1-24.1c-0.1-0.6,0-0.9,0.6-1l16.8-3.6
	L85.3,64z"/>
<path d="M140.6,79.2c-0.8,0.1-0.9-0.3-1-0.8c-1-4.9-2.1-9.9-3.2-14.8c-0.2-0.6-0.3-1.2-0.4-1.9c-0.1-1-0.6-1.1-1.4-0.9
	c-1.3,0.3-2.5,0.5-3.8,0.8c-0.7,0.2-1.1,0-1.3-0.8c-0.3-1.7-0.7-3.4-1.1-5.1c-0.2-0.7,0.1-0.9,0.7-1.1c6.6-1.4,13.2-2.8,19.7-4.2
	c0.7-0.1,0.9,0.1,1,0.7c0.4,1.7,0.7,3.5,1.1,5.2c0.2,0.7-0.1,1-0.7,1.1c-1.3,0.3-2.7,0.6-4,0.8c-0.9,0.1-1.1,0.6-0.9,1.4
	c1.2,5.4,2.3,10.8,3.5,16.2c0.3,1.5,0.3,1.5-1.2,1.8l-6.7,1.4C140.9,79.1,140.7,79.2,140.6,79.2z"/>
<path d="M96.6,61.6c0.6,0,0.6,0.4,0.7,0.9l2.2,10.4c0.5,2.1,0.9,4.3,1.4,6.4c0.1,0.6,0.3,0.8,1,0.6c2.4-0.6,4.8-1,7.2-1.6
	c0.8-0.2,1,0.1,1.1,0.8c0.3,1.8,0.7,3.5,1.1,5.3c0.2,0.7,0,1-0.7,1.1c-5.5,1.1-10.9,2.3-16.4,3.5c-0.8,0.2-1-0.3-1.1-0.9
	c-1.2-5.8-2.4-11.5-3.7-17.3c-0.4-2-0.9-4.1-1.3-6.1c-0.3-1.2-0.2-1.3,1-1.6l6.9-1.5L96.6,61.6z"/>
<path d="M63.5,67.2l0.7-0.2c0.2-0.1,0.5-0.1,0.6,0.2c0.2,0.7,0.5,1.4,0.7,2.2c0.1,0.3-0.2,0.4-0.4,0.4l-6.1,2
	c-0.2,0.1-0.4,0.2-0.5,0c-0.3-0.8-0.6-1.6-0.8-2.4C57.6,69,58.1,69,58.3,69c0.7-0.1,0.8-0.4,0.6-1.1c-1.3-3.8-2.6-7.6-3.8-11.4
	c-0.2-0.5-0.4-0.9-1-0.6s-0.9,0.1-1-0.5c-0.1-0.3-0.2-0.7-0.3-1c-0.3-0.7-0.4-1.2,0.6-1.3c0.5-0.1,0.5-0.4,0.3-0.7
	c-1.5-4.4-2.9-8.8-4.4-13.3c-0.2-0.6-0.5-0.5-0.9-0.3s-0.7,0.1-0.9-0.4c-0.8-2.1-0.8-2.1,1.3-2.9c1.4-0.5,2.8-0.9,4.2-1.4
	c0.7-0.3,1-0.1,1.2,0.6c0.1,0.3,0.2,0.6,0.3,0.8c0.3,0.7,0.4,1.3-0.6,1.4c-0.5,0.1-0.5,0.3-0.4,0.8c1.5,4.4,2.9,8.8,4.4,13.2
	c0.2,0.6,0.5,0.6,1,0.4s0.9-0.2,1,0.5c0.1,0.4,0.2,0.8,0.4,1.1c0.3,0.7,0.3,1.1-0.6,1.3c-0.5,0.1-0.6,0.4-0.4,0.8
	c1.3,3.9,2.6,7.9,3.9,11.8C63.1,66.9,63.2,67.2,63.5,67.2z"/>
<path d="M174,86.1c-0.5,1-0.9,2.1-1.2,3.2c-0.1,0.5-0.2,1-0.8,1.2s-0.8-0.4-1.2-0.8c-0.9-1-1.7-2.1-2.4-3.3c-0.2,1.7-0.2,3.4,0,5.1
	c0.1,0.6,0.3,1.1,1,1c0.3,0,0.6,0.1,0.6,0.4s-0.2,0.4-0.5,0.4c-1.1,0.1-2.2,0.3-3.4,0.5c-0.3,0.1-0.6,0.1-0.7-0.2s0.2-0.5,0.4-0.6
	c0.6-0.3,0.9-1,0.8-1.7c-0.1-1.2-0.2-2.4-0.4-3.6c-0.1-0.5-0.2-1-0.9-1.2s-0.4-0.5-0.1-0.7c0.6-0.4,0.5-1,0.4-1.6s-0.3-1-0.4-1.6
	c-0.1-0.7-0.4-1.3-1.3-1.4c-0.2,0-0.4,0-0.5-0.3s0.2-0.3,0.4-0.4c1.3-0.6,2.6-1,4-1.1c0.3,0,0.8,0,0.6,0.4c-0.4,1,0.3,1.6,0.6,2.3
	c0.4,0.9,0.9,1.8,1.4,2.6c0.3-1.7,0.6-3.2,0.8-4.6c0.1-0.4-0.2-0.8-0.6-0.9c-0.2-0.1-0.4-0.2-0.3-0.4s0.3-0.2,0.4-0.2
	c1.8-0.4,3.6-0.5,5.5-0.3c0.1,0,0.3,0,0.3,0.2c0,0.2,0,0.3-0.2,0.4c0,0,0,0,0,0c-1.4,0.4-1.1,1.3-0.9,2.3c0.2,0.7,0.4,1.5,0.5,2.2
	c0,0.5,0.4,0.6,0.8,0.8s0.5,0.5,0.1,0.7s-0.5,0.6-0.5,1.1c0.1,1.3,0.3,2.5,0.7,3.7c0.1,0.9,0.8,1.5,1.7,1.6c0.3,0,0.9,0,0.9,0.6
	s-0.6,0.3-0.9,0.3c-1.4,0-2.8,0.2-4.2,0.4c-0.3,0-0.7,0.2-0.9-0.2s0.3-0.5,0.6-0.6c0.8-0.1,0.9-0.7,0.8-1.3
	C174.8,89.1,174.5,87.6,174,86.1z"/>
<path d="M46.1,15.9c0.5,0.5,1,1.1,1.4,1.7c0.7,1.1,2,1.8,3.3,1.8c1.4,0.1,2.8,0.4,4.3,0.6c-0.8,1.3-1.5,2.6-2.3,3.8
	c-0.4,0.5-0.4,1.1-0.1,1.7c0.6,1.3,1.1,2.6,1.7,4.1c-1.5-0.4-2.9-0.7-4.2-1.1c-0.7-0.3-1.5-0.1-1.9,0.5c-1,1-2.1,1.8-3.3,2.9
	c-0.1-1.6-0.3-2.9-0.3-4.3c0-0.6-0.3-1.2-0.8-1.4c-1.2-0.7-2.3-1.5-3.6-2.3c1.3-0.9,2.6-1.8,3.9-2.7c0.7-0.4,1.1-1,1.2-1.8
	C45.5,18.3,45.8,17.2,46.1,15.9z"/>
<path d="M153.3,93.8c-1.5-1.2-2.9-2.7-4-4.3c-0.9,1.2-1.6,2.5-2.2,3.8c-0.3,0.5,0.3,0.4,0.6,0.5s0.9,0,0.9,0.6s-0.5,0.6-1,0.7
	c-1.6,0.3-3.2,0.5-4.8,0.8c-0.3,0-0.7,0.1-0.9-0.3s0.2-0.7,0.5-0.9c0.1,0,0.1-0.1,0.2-0.1c2.9-0.4,3.2-3.2,4.6-5
	c0.3-0.3,0-0.5-0.3-0.7c-0.5-0.3-0.8-0.5-0.1-0.9c0.5-0.2,0.4-0.5,0.1-0.9c-0.9-1.1-1.8-2.2-2.8-3.3c-0.4-0.5-1.1-0.7-1.7-0.6
	c-0.3,0-0.7,0.1-0.8-0.3s0.3-0.6,0.6-0.6c1.4-0.5,2.8-0.8,4.3-0.9c0.4,0,0.9-0.1,1,0.4s-0.4,0.6-0.8,0.8c-0.1,0-0.2,0.1-0.5,0.2
	l2.1,2c0.4,0.4,0.5,0.2,0.7-0.2c0.4-0.8,0.8-1.6,1.3-2.4c0.2-0.4,0.2-0.6-0.3-0.6c-0.3,0-0.7-0.2-0.7-0.5s0.5-0.4,0.8-0.5
	c1.3-0.2,2.7-0.3,4.1-0.4c0.3,0,0.8-0.1,0.8,0.3s-0.3,0.5-0.6,0.5c-1.3,0.2-1.9,1.1-2.3,2.2c-0.3,0.9-0.8,1.9-1.3,2.7
	c-0.4,0.7-0.2,1,0.5,1.1c0.6,0.1,1.1,0.2,0.3,0.8c-0.3,0.2-0.2,0.5,0,0.6c1.2,1.2,2.2,2.5,3.1,3.9c0.4,0.7,1.2,1.2,2,1.2
	c0.3,0,0.6,0.2,0.7,0.5c0,0,0,0,0,0.1c0,0.4-0.3,0.4-0.6,0.4c-1.7-0.1-3.4,0.5-5,0.6c-0.2,0-0.3,0.1-0.5,0.1c-0.3,0-0.7,0.1-0.8-0.4
	s0.2-0.7,0.6-0.8C151.9,94.2,152.6,94,153.3,93.8z"/>
<path d="M184.6,91.3h-4.2c-0.3,0-0.6,0-0.7-0.4c-0.1-0.3,0.1-0.6,0.5-0.7c0,0,0,0,0,0c1.3-0.2,1.3-1.1,1.3-2.1c0-0.7,0.2-1.5-0.1-2
	c-0.6-0.7-0.7-1.7-0.3-2.5c0.3-1-0.2-2.1-0.4-3.2c-0.1-0.6-0.5-0.8-1-0.9c-0.4-0.1-0.9-0.1-0.9-0.6s0.6-0.6,1-0.6
	c1.6-0.2,3.1-0.4,4.7-0.5c1.1-0.1,2.2-0.2,3.3-0.4c0.5-0.1,0.8,0,0.9,0.6c0.2,1,0.3,2.1,0.4,3.2c0,0.3,0.1,0.6-0.3,0.7
	s-0.5-0.1-0.6-0.4s-0.6-0.7-0.8-1c-0.4-0.6-1.2-0.8-1.9-0.7c-0.3,0-0.7,0.1-1,0.1c-1.5,0.1-1.5,0.1-1.2,1.6c0,0.4,0.1,0.8,0.2,1.2
	c0.1,0.3-0.2,0.9,0.5,0.9s1.2-0.1,1.4-0.9c0-0.5,0.2-0.9,0.4-1.3c0.1-0.2,0.3-0.5,0.6-0.4c0.2,0.1,0.4,0.3,0.4,0.5
	c0.1,1.6,0.2,3.1,0.1,4.7c0,0.3-0.2,0.5-0.5,0.6c-0.4,0-0.5-0.3-0.7-0.5c-0.2-0.5-0.2-1.5-1.1-1.1s-0.1,1.1-0.1,1.6
	c0,0.1,0,0.3,0.1,0.4c0.2,0.6-0.2,1.4,0.4,1.8s3.1-0.4,3.6-0.9s0.8-1,1.4-0.8s0,0.9,0,1.4c0,0.2-0.1,0.4-0.2,0.7
	c-0.4,1.9-0.4,1.9-2.3,1.8C186.3,91.2,185.4,91.2,184.6,91.3z"/>
<path d="M202.3,78c-0.6-0.1-1.1-0.2-1.5-0.3c-0.2-0.1-0.5-0.2-0.5-0.4s0.3-0.4,0.4-0.4c1.6-0.2,3.3-0.2,4.9,0
	c0.5,0.1,0.5,0.4,0.1,0.7c0,0-0.1,0.1-0.2,0.1c-2.5,0.7-3.4,3.1-5,4.8c-0.3,0.3-0.6,0.6,0.1,1c0.4,0.2,0.1,0.6-0.1,0.7
	c-0.7,0.4-0.4,0.6,0,1c0.9,0.7,1.6,1.5,2.3,2.4c0.7,1,1.8,1.7,3,1.9c0.4,0,0.8,0.2,0.7,0.6s-0.5,0.3-0.8,0.4
	c-1.3,0.1-2.5,0.3-3.8,0.3c-0.4,0-1.1,0.2-1.2-0.4c-0.2-0.7,0.6-0.5,1-0.8c-0.4-0.6-0.9-1.1-1.5-1.4c-0.9-0.7-1.7-1.5-2.4-2.4
	c-0.4-0.6-0.7-0.5-1.1,0.1c-0.8,1.1-1.5,2.2-2.3,3.3c-0.3,0.4-0.5,0.7,0.2,0.8c0.3,0.1,0.5,0.2,0.5,0.6s-0.4,0.4-0.6,0.4
	c-1.3,0.2-2.6,0.4-4,0.5c-0.2,0-0.4,0.1-0.5-0.2c-0.1-0.2,0.1-0.5,0.3-0.6c2.6-0.7,3.2-3.3,4.9-4.9c0.6-0.5,0.7-1-0.3-1.2
	s-0.9-0.5-0.1-0.9c0.5-0.3,0.6-0.6,0.1-1c-0.5-0.5-0.9-1.1-1.1-1.8c-0.5-0.9-1-1.7-2.2-1.7c-0.4,0-0.9-0.3-0.9-0.7s0.5-0.6,0.9-0.6
	c1.1-0.1,2.2-0.3,3.3-0.4c0.4,0,0.9,0,1,0.4s-0.4,0.6-0.7,0.8c-0.8,0.3-0.6,0.6-0.2,1.2c0.6,0.9,1.3,1.7,2.2,2.3
	c0.2,0.1,0.4,0.4,0.7,0.1C199.2,80.5,200.9,79.5,202.3,78z"/>
<path d="M139.9,85.4c0,0.1,0,0.2,0,0.3c-0.1,0.4,0.1,1-0.3,1.2s-0.7-0.4-1-0.7c-0.3-0.4-0.8-0.6-1.2-0.4c-0.2,0-0.4,0.1-0.6,0.2
	c-1.6,0.5-1.6,0.5-1.1,2.2c0.1,0.4,0.2,0.7,0.3,1.1s0,0.5,0.4,0.5s0.4-0.3,0.4-0.5s-0.1-0.8,0.4-0.8s0.6,0.4,0.8,0.8
	c0.3,0.8,0.4,1.6,0.4,2.4c0,0.4-0.2,0.7-0.6,0.7c-0.4,0.1-0.5-0.3-0.5-0.6s-0.1-0.6-0.5-0.5s-0.2,0.4-0.2,0.6
	c0.1,0.8,0.3,1.5,0.4,2.3c0,0.2,0.1,0.4,0.4,0.4c0.9,0.1,1.8-0.4,2.3-1.2c0.2-0.4,0.3-1,0.9-0.8s0.5,0.7,0.4,1.1
	c0,0.7-0.1,1.3-0.2,2c0,0.4-0.3,0.6-0.8,0.6l-6.1,0.8c-0.4,0-0.9,0.2-1.1-0.3s0.3-0.9,0.7-1c0.8-0.2,0.8-0.7,0.7-1.4
	c-0.1-0.4-0.1-0.7-0.1-1.1c0.1-0.6-0.3-1.1-0.9-1.3c-0.7-0.2-0.7-0.5-0.2-1c0.7-0.8,0.7-3.7-0.1-4.5c-0.3-0.3-0.7-0.3-1-0.4
	s-0.4-0.2-0.5-0.4c-0.1-0.3,0.1-0.6,0.3-0.7c0.4-0.2,0.8-0.4,1.3-0.5c1.6-0.3,3.3-0.6,4.9-0.9S140,83.6,139.9,85.4z"/>
<path d="M119.6,92.2c-0.6-0.2-0.6-0.6-0.6-0.9c-0.2-1-0.3-2-0.6-2.9c-0.1-0.5,0-0.6,0.5-0.7c2.4-0.2,4.7-0.5,7-1
	c0.8-0.2,1.7-0.5,2.4-0.9c1.1-0.4,1.5-0.2,1.7,1c0.1,0.9,0.4,1.7,0.5,2.5c0.1,0.3,0.1,0.8-0.3,0.9s-0.5-0.4-0.6-0.7
	s-0.2-0.6-0.3-0.9c-0.1-0.4-0.5-0.6-0.9-0.5c-1,0.2-2.1,0.4-3.1,0.6c-0.4,0.1-0.4,0.3-0.4,0.5c0.1,0.7,0.1,1.3,0.2,2
	c0,0.4,0.3,0.6,0.7,0.7c0.6,0.2,0.6,0.5,0.2,0.9c-0.6,1-0.3,2.2,0.7,2.8c0,0,0.1,0,0.1,0.1c0.6,0.1,1.1,0.3,1.6,0.5
	c0.3,0.2,0.5,0.4,0.4,0.7c-0.1,0.3-0.4,0.5-0.7,0.5c-1.6,0.1-3.1,0.5-4.5,1.1c-0.3,0.1-0.5,0.1-0.8,0.1c-0.2,0-0.4-0.1-0.5-0.3
	c-0.1-0.2,0.1-0.4,0.2-0.5s0.3-0.2,0.5-0.4c0.5-0.4,1.3-0.5,1.4-1.2c0.1-0.9,0.1-1.8-0.1-2.7c0-0.1,0-0.3-0.1-0.3
	c-1.3-0.3-0.7-1-0.6-1.9c-0.1-0.8-0.4-1.6-0.8-2.3c-0.1-0.3-0.5-0.2-0.7-0.1c-0.6,0.2-1.2,0.3-1.8,0.3c-0.4,0-0.4,0.2-0.4,0.5
	C119.8,90.8,119.7,91.5,119.6,92.2z"/>
<path d="M160.9,87.6c-1.4,0.2-2.7,0.3-4.1,0.4c-0.6,0-1.1-0.1-0.9-0.8c0.1-0.5,0.3-0.8,1.1-0.7c0.9,0,1.8-0.1,2.8-0.2
	c0.5-0.1,1.1-0.1,1.6-0.1s1,0.1,0.9,0.7s-0.3,1-1,0.8L160.9,87.6z"/>
<path d="M26.2,57.6c-1.1-0.2-2.2,0.2-2.8,1c-1.3-3-2.5-6-3.7-8.9c-0.5-1.2-1-2.4-1.6-3.6c-0.3-0.6-0.6-1.1-1-1.6
	c-1.1-1.4-2.5-2.3-4.4-1.7c-1.8,0.5-3.2,2.1-3.3,4c-0.2,2.6,0.3,5.1,1.3,7.5c0.4,1,0.7,1.9,1.2,2.9c0.4,0.8-0.2,0.8-0.6,1
	s-0.9,0.5-1.2-0.3C8.1,53.2,6.1,48.6,4.1,44c-0.3-0.8,0.1-0.9,0.6-1.1l20.1-8.4c2-0.8,4.1-1.7,6.1-2.6c0.5-0.2,0.7-0.2,1,0.4
	c1.9,4.7,3.8,9.3,5.8,13.9c0.3,0.8-0.2,0.8-0.6,1s-0.9,0.5-1.2-0.3c-0.6-1.7-1.4-3.4-2.3-5c-0.8-1.4-1.8-2.7-3-3.8
	c-1.1-1.1-2.7-1.5-4.3-1.2c-2.4,0.6-3.5,2.5-3,5.2c0.2,1.2,0.6,2.4,1.1,3.5c1.5,3.5,2.9,7,4.4,10.5c-0.2,0.3-0.5,0.1-0.7,0.2
	c-0.7,0.2-1.4,0.4-1.6,1.1s0.6,0.8,1,1.1c0.2,0.2,0.4,0.4,0.6,0.5c1.4,0.6,1.8,1.6,1.9,3.1c0.2,2.9,0.8,5.7,1.7,8.4
	c0.1,0.4,0.2,0.8,0.2,1.2c-0.4-0.8-0.9-1.6-1.3-2.3c-1.3-2.5-3-4.8-4.9-6.9c-0.2-0.2-0.4-0.4-0.3-0.7C25.9,60.4,25.8,59,26.2,57.6
	c-0.5-1.8-0.5-3.8,0-5.6c0.1-0.3-0.1-0.5-0.3-0.7c-1.5-1.4-2.8-3-3.8-4.8c-0.5-0.8-1-1.6-1.5-2.4c-0.1,0.1-0.1,0.3,0,0.4
	c0.9,2.7,1.4,5.6,1.3,8.5c0,0.2,0,0.5,0.2,0.6C23.9,54.5,25,56.1,26.2,57.6z"/>
</svg>
