<?xml version="1.0" encoding="utf-8"?>
<!-- Generator: Adobe Illustrator 21.1.0, SVG Export Plug-In . SVG Version: 6.00 Build 0)  -->
<svg version="1.1" id="Layer_1" xmlns="http://www.w3.org/2000/svg" xmlns:xlink="http://www.w3.org/1999/xlink" x="0px" y="0px"
	 viewBox="0 0 216.7 41.2" style="enable-background:new 0 0 216.7 41.2;" xml:space="preserve">
<style type="text/css">
	.st0{fill:#B8B8B8;}
	.st1{fill:#FE0417;}
	.st2{fill:#00EFCC;}
	.st3{fill:#2B66FE;}
	.st4{fill:#FC9D3F;}
	.st5{fill:#C1BFBF;}
</style>
<title>Tom Thumb Convenience Store</title>
<path class="st0" d="M29.3,0.9c3.1,0.8,5.6,2.8,8.2,4.6C42,8.7,46.6,11.7,51,15c3.1,2.3,3.7,6.7,1.4,9.8c-0.4,0.5-0.9,1-1.4,1.4
	c-5.2,3.8-10.6,7.4-15.8,11.2c-1.8,1.3-3.7,2.2-5.8,2.9c-1.5,0.4-3,0.4-4.5,0c-1.6-0.6-3.1-1.3-4.5-2.2c-4.6-3.3-9.3-6.5-13.9-9.7
	c-2.5-1.7-4.9-3.4-5.7-6.5c-0.3-0.9-0.3-1.8,0-2.6c0.2-0.6,0.5-1.1,0.7-1.7c0.9-2.2,2.8-3.3,4.6-4.5c6.3-4,11.9-9.3,18.9-12.3
	C26.3,0.4,27.9,0.4,29.3,0.9z M26.8,38.8c2,0.1,4.1-0.4,5.8-1.6c5.8-4,11.5-8,17.2-12.1c2.5-1.7,3.2-5.2,1.4-7.7
	c-0.4-0.6-0.9-1.1-1.5-1.4C44,12,38.4,7.9,32.6,4.1c-3.3-2.3-7.6-2.3-10.9,0.1C16,7.9,10.5,11.8,5,15.8c-3.8,2.7-3.8,7.1,0,9.8
	c5.5,3.9,11,7.7,16.6,11.6C23.1,38.2,24.9,38.8,26.8,38.8L26.8,38.8z"/>
<path class="st1" d="M216.2,25.7c-0.1,0-0.2,0.1-0.2,0.1c-1.8,4.3-5.9,6.1-10.1,4.3c-1.1-0.5-2.3-0.5-3.3-0.1
	c-0.7,0.2-1.4,0.4-2.1,0.6c-0.4-0.3-0.2-0.6-0.2-0.9c0-5.5,0-10.9,0-16.4c0-0.8,0.2-1.3,1.1-1.4c1.1-0.2,2.1-0.6,3.1-0.9
	c0.8-0.3,1.2-0.3,1.1,0.8c-0.1,1.6,0,3.2,0,4.9c0,0.7,0.1,0.9,0.9,0.7c1.7-0.5,3.6-0.5,5.3,0c2.5,0.7,3.8,2.6,4.5,4.9L216.2,25.7z
	 M205.5,23.8c0,2.6,0.3,3,2.4,3c1.5,0.2,2.8-0.9,3-2.4c0-0.2,0-0.4,0-0.6c0.1-1.5-0.9-2.8-2.4-2.9c-0.2,0-0.4,0-0.6,0
	C205.9,20.9,205.5,21.3,205.5,23.8L205.5,23.8z"/>
<path class="st1" d="M100.3,17.9c1.6-0.7,3.3-1,5-1c0.7,0,1.5,0.1,2.1,0.5c1,0.9,2,0.6,3.1,0.2c1.5-0.6,3.1-0.8,4.6-0.6
	c2.1,0.1,3.7,1.8,3.6,3.9c0.1,2.9,0,5.8,0,8.7c0,0.6-0.1,0.8-0.7,0.8c-1.3,0-2.5,0-3.8,0c-0.7,0-0.8-0.3-0.8-0.9c0-2.1,0-4.3,0-6.4
	c0-1.4-0.5-1.9-1.7-1.9c-1.6,0-2.2,0.6-2.2,2c0,2.1,0,4.1,0,6.2c0,0.8-0.1,1.2-1.1,1.1c-1.1-0.1-2.2-0.1-3.3,0c-0.9,0.1-1-0.3-1-1.1
	c0-2.1,0-4.2,0-6.3c0-1.4-0.5-1.9-1.8-1.9c-1.6,0-2.2,0.6-2.2,1.9c0,2.1,0,4.2,0,6.3c0,0.8-0.1,1.1-1,1.1c-1.4-0.1-3.2,0.5-4.1-0.2
	s-0.2-2.6-0.3-4c0-2.3,0-4.6,0-7c0-0.9,0.3-1.3,1.2-1.5c0.9-0.2,1.9-0.5,2.8-0.8C99.9,16.5,100.7,16.2,100.3,17.9z"/>
<path class="st1" d="M179,16.4l0.1,1.4c0.9-0.3,1.8-0.6,2.8-0.7c1.8-0.3,3.6-0.3,5.1,0.9c0.5,0.4,0.8,0.2,1.2,0
	c1.7-0.7,3.5-1.1,5.4-1c2.5,0.2,3.9,1.6,4,4.2c0.1,2.8,0,5.5,0,8.3c0,0.8-0.2,1-1,0.9c-1.1-0.1-2.3-0.1-3.4,0c-0.8,0-1-0.3-0.9-1
	c0-2.1,0-4.2,0-6.3c0-0.8-0.1-1.6-0.9-1.8c-1-0.3-2.1-0.1-2.9,0.6c-0.3,0.2-0.1,0.7-0.1,1c0,2.2,0,4.4,0,6.6c0,0.8-0.2,1.1-1,1
	c-1.1-0.1-2.2-0.1-3.3,0c-0.8,0.1-1-0.3-1-1c0.1-2.1,0-4.2,0-6.3c0-1.4-0.5-1.9-1.8-1.9c-1.6,0-2.2,0.6-2.2,1.9c0,2.1,0,4.2,0,6.3
	c0,0.8-0.1,1.1-1,1.1c-1.1-0.1-2.2-0.1-3.3,0c-0.8,0-1.1-0.1-1.1-1c0-3.5,0-7,0-10.5c0-0.4,0-0.9,0.6-1
	C175.8,17.4,177.3,16.9,179,16.4z"/>
<path class="st1" d="M142.3,10.6c0,2.2,0,4.3,0,6.4c0,0.8,0.2,0.9,0.9,0.6c1.6-0.6,3.2-0.8,4.9-0.7c2.8,0.3,4.2,1.7,4.2,4.5
	c0,2.6,0,5.3,0,7.9c0,0.8-0.2,1.1-1,1c-1.1-0.1-2.3-0.1-3.4,0c-0.7,0-0.9-0.2-0.9-0.9c0-2.1,0-4.1,0-6.2c0-1.8-0.6-2.3-2.4-2.2
	c-2,0.2-2.3,0.6-2.3,2.4s-0.1,3.8,0,5.6c0,1-0.3,1.2-1.2,1.1c-1-0.1-2.1-0.1-3.1,0c-0.7,0-1-0.1-1-0.9c0-5.5,0-10.9,0-16.4
	c-0.1-0.5,0.2-1,0.7-1.1c0,0,0.1,0,0.1,0C139.2,11.6,140.7,11.1,142.3,10.6z"/>
<path class="st1" d="M154.8,22.3c0-1.4,0-2.8,0-4.2c0-0.6,0.2-0.9,0.8-0.8c1.2,0,2.5,0.1,3.7,0c0.8,0,0.9,0.3,0.9,0.9
	c0,2.2,0,4.3,0,6.5c0,0.9,0.2,1.6,1.2,1.8c1.1,0.3,2.3,0,3.2-0.6c0.2-0.1,0.1-0.6,0.1-0.9c0-2.1,0-4.2,0-6.3c0-1,0.1-1.4,1.3-1.3
	c0.9,0.1,1.8,0.1,2.8,0c1-0.1,1.4,0.2,1.3,1.3c-0.1,2.3,0,4.6,0,6.8c0,1.2,0.4,1.8,1.6,1.6c0.6-0.1,0.6,0.1,0.6,0.6
	c0.1,2.4-0.3,2.9-2.7,3.1c-1.3,0.3-2.7-0.1-3.9-0.9c-0.5-0.4-0.9-0.2-1.3,0c-1.7,0.7-3.5,0.9-5.3,0.9c-2.8-0.3-4.2-1.7-4.2-4.5
	C154.7,24.8,154.8,23.6,154.8,22.3z"/>
<path class="st1" d="M84.6,30.7c-0.7-0.1-1.5-0.1-2.2-0.2c-4-0.6-6.1-3-6.1-6.6s2.1-6.2,6.1-6.8c2-0.4,4.1-0.2,6.1,0.4
	c3.5,1.4,5.2,5.3,3.8,8.7c-0.7,1.7-2,3.1-3.7,3.8C87.3,30.5,85.9,30.7,84.6,30.7z M84.5,26.7c1.6,0,2.9-1.3,2.9-2.9
	c0-1.6-1.3-2.9-2.9-2.9c-1.6,0-2.9,1.3-2.9,2.9c-0.2,1.5,0.9,2.8,2.3,2.9C84.1,26.7,84.3,26.7,84.5,26.7L84.5,26.7z"/>
<path class="st1" d="M69.3,10.7c2.4,0,4.8,0,7.2,0c0.9,0,1.2,0.3,1.1,1.1c-0.1,1.1,0.5,2.5-0.2,3.2s-2.1,0.2-3.2,0.2
	c-2.3,0-2.3,0-2.3,2.4c0,3.9,0,7.9,0,11.8c0,0.8-0.2,1.1-1,1c-1.1-0.1-2.2-0.1-3.3,0c-0.8,0.1-1-0.2-1-1c0-4.3,0-8.7,0-13
	c0-0.9-0.2-1.3-1.1-1.2c-1.2,0.1-2.4,0-3.6,0c-0.8,0-1.1-0.1-1.1-1c0-3.5-0.1-3.5,3.4-3.5L69.3,10.7z"/>
<path class="st1" d="M130.4,22.8c0,2.2,0,4.5,0,6.7c0,0.7-0.2,0.9-0.9,0.9c-1.1-0.1-2.3-0.1-3.4,0c-0.8,0.1-1-0.2-1-1
	c0-4.3,0-8.7,0-13c0-0.9-0.2-1.2-1.1-1.2c-1.2,0.1-2.5,0-3.7,0c-0.7,0-0.9-0.2-0.9-0.9c-0.1-3.6-0.1-3.6,3.4-3.6c4.1,0,8.2,0,12.2,0
	c0.8,0,1.2,0.1,1.1,1c-0.1,1.1,0.5,2.6-0.2,3.3s-2.1,0.2-3.2,0.2c-2.3,0-2.3,0-2.3,2.3C130.4,19.3,130.4,21,130.4,22.8z"/>
<path class="st1" d="M14.7,11.8c3.1-2.2,6-4.4,9.1-6.2c2.4-1.4,5.5-1.2,7.7,0.4c2.3,1.6,4.6,3.2,6.9,4.8c0.7,0.5,0.7,0.7,0.1,1.3
	c-3.6,3.4-7.8,4.3-12.5,3.4C22.1,14.8,18.3,13.5,14.7,11.8z"/>
<path class="st2" d="M38,20.3c0.1-2.5,0.8-4.9,2.1-7.1c0.3-0.6,0.6-0.8,1.3-0.3c2.3,1.7,4.6,3.2,6.9,4.8c2.3,1.7,2.3,4.1,0,5.8
	c-2.3,1.7-4.6,3.2-6.8,4.8c-0.8,0.6-1.1,0.3-1.5-0.4C38.7,25.6,38,23,38,20.3z"/>
<path class="st3" d="M18.5,32c-0.6-0.1-1.1-0.4-1.6-0.8C13.3,28.6,9.7,26,6,23.5c-1.5-1.1-1.9-3.2-0.8-4.7C5.4,18.4,5.7,18.2,6,18
	c2.4-1.7,4.8-3.4,7.2-5.1c0.3-0.2,0.6-0.6,0.9-0.3s0.1,0.7,0,1c-1.2,4.3-0.9,8.8,0.9,12.9c0.7,1.6,1.7,3.1,3,4.4
	C18.1,31.1,18.6,31.3,18.5,32z"/>
<path class="st4" d="M38.6,29.3L38.6,29.3l-1.9-1l-0.4-0.1c-0.3-0.1-0.7-0.3-0.8-0.3c-0.3-0.1-0.5-0.3-0.8-0.4
	c-4.8-1.1-8.5,1.3-10.1,6.1c-0.8,2.2-0.3,2.8,2.1,2.9c4.4,0.3,7.1-2.6,10.1-5l0.9-0.5l0,0l0.8-0.5l0,0C38.5,30,39.8,30,38.6,29.3z"
	/>
<path class="st5" d="M46.7,39.3c-1.5,0-2.8-1.2-2.8-2.8c0-1.5,1.2-2.8,2.8-2.8c1.5,0,2.8,1.2,2.8,2.8c0,0,0,0,0,0
	C49.5,38,48.3,39.3,46.7,39.3z M46.7,34.3c-1.2,0-2.3,1-2.3,2.3c0,1.2,1,2.3,2.3,2.3s2.3-1,2.3-2.3l0,0C49,35.3,48,34.3,46.7,34.3
	C46.7,34.3,46.7,34.2,46.7,34.3L46.7,34.3z"/>
<path class="st0" d="M45.7,37.6v-2.3h1c0.2,0,0.4,0,0.5,0.1c0.1,0,0.2,0.1,0.3,0.2c0.1,0.1,0.1,0.2,0.1,0.4c0,0.2,0,0.3-0.2,0.4
	c-0.1,0.1-0.3,0.2-0.5,0.2c0.1,0.1,0.2,0.1,0.2,0.2c0.1,0.1,0.2,0.2,0.3,0.4l0.3,0.4h-0.5l-0.3-0.5c-0.1-0.1-0.2-0.2-0.2-0.3
	c0,0-0.1-0.1-0.1-0.1c-0.1,0-0.2,0-0.2,0h-0.1v0.9H45.7z M46.2,36.3h0.3c0.1,0,0.3,0,0.4,0c0.1,0,0.1-0.1,0.1-0.1c0-0.1,0-0.1,0-0.2
	c0-0.1,0-0.1-0.1-0.2c0,0-0.1-0.1-0.2-0.1h-0.7L46.2,36.3z"/>
</svg>
