<?xml version="1.0" encoding="utf-8"?>
<!-- Generator: Adobe Illustrator 21.1.0, SVG Export Plug-In . SVG Version: 6.00 Build 0)  -->
<svg version="1.1" id="Layer_1" xmlns="http://www.w3.org/2000/svg" xmlns:xlink="http://www.w3.org/1999/xlink" x="0px" y="0px"
	 viewBox="0 0 237 57.8" style="enable-background:new 0 0 237 57.8;" xml:space="preserve">
<style type="text/css">
	.st0{fill:#120C17;}
	.st1{fill:#130C18;}
	.st2{fill:#E1A062;}
	.st3{fill:#A01D21;}
	.st4{fill:#A31E23;}
	.st5{fill:#9E1D21;}
</style>
<title>Casual dining</title>
<path class="st0" d="M36.1,51.5c-0.1,0-0.2-0.1-0.3-0.2c2.1-1.2,1.7-3.9-0.5-4.9c-0.6-0.3-1.2-0.4-1.8-0.4c-1.5,0-2.9,0-4.4,0
	c-0.4,0-0.5,0.1-0.5,0.5c0,2.1,0,4.3,0,6.5c0,1.3,0,2.5,0,3.8c0,0.3,0,0.5,0.4,0.5c1.7,0,3.4,0,5.1,0c0.8,0,1.5-0.3,2.1-0.7
	C38.2,55.2,37.9,52.3,36.1,51.5z M31.9,48.1c0.6,0,1.2,0,1.8,0.1c0.2,0,0.4,0.1,0.6,0.2c0.3,0.2,0.5,0.5,0.5,0.9
	c0,0.4-0.3,0.7-0.6,0.8c-0.6,0.2-1.2,0.2-1.8,0.2c-0.4,0-0.9,0.2-1.2-0.1s-0.1-0.8-0.1-1.3C31.1,48,31,48.1,31.9,48.1L31.9,48.1z
	 M34.3,54.9c-0.5,0.1-1,0.2-1.4,0.2c-0.6,0.1-1.1,0-1.7-0.1c0-0.5,0-1.1,0-1.6c0-1,0-1,1-1h0.4l0,0c0.5,0,1,0.1,1.5,0.1
	c0.5,0,1,0.4,1.1,0.9c0.2,0.6-0.2,1.3-0.8,1.4C34.3,54.9,34.3,54.9,34.3,54.9z"/>
<path class="st0" d="M15.5,52.2c1.3-0.5,2.1-1.9,1.9-3.3c-0.1-1.4-1.1-2.6-2.5-2.8c-0.4-0.1-0.8-0.2-1.2-0.2c-1.5,0-2.9,0-4.4,0
	c-0.4,0-0.5,0.1-0.5,0.5c0,1.4,0,2.8,0,4.2c0,2,0,4,0,6c0,0.5,0,0.5,0.5,0.5s1,0,1.5,0s0.5-0.1,0.5-0.5c0-1.1,0-2.3,0-3.4
	c0-0.6,0-0.6,0.5-0.6c0.1,0,0.1,0,0.2,0c0.6-0.1,0.9,0.2,1.2,0.7c0.5,1.1,1.1,2.2,1.7,3.3c0.1,0.2,0.1,0.4,0.4,0.4h2.4l-2.4-4.8
	L15.5,52.2z M13.8,50.5c-0.4,0-0.8,0-1.2,0s-1,0.2-1.3-0.1s-0.1-0.8-0.1-1.3c0-1.1,0-1.1,1.1-1.1c0.5,0,1.1,0,1.6,0.1
	c0.6,0,1.1,0.5,1.1,1.1c0,0,0,0.1,0,0.1C15,49.9,14.5,50.5,13.8,50.5C13.9,50.5,13.9,50.5,13.8,50.5L13.8,50.5z"/>
<path class="st0" d="M141.4,45.9h-3.3c-0.7,0-0.7-0.1-0.7,0.7c0,1.6,0,3.2,0,4.9s0,3.3,0,5.1c0,0.6-0.1,0.6,0.6,0.6h3.4
	c0.5,0,1-0.1,1.5-0.2c1.8-0.3,3.1-1.6,3.5-3.4c0.2-0.9,0.3-1.8,0.2-2.7C146.5,47.6,144.6,46,141.4,45.9z M144.2,53.1
	c-0.1,0.9-0.9,1.7-1.8,1.8c-0.7,0.1-1.3,0.2-2,0.1c-0.5,0-0.5,0-0.5-0.5c0-1,0-2,0-3s0-1.9,0-2.9c0-0.6,0-0.6,0.6-0.6
	c0.7,0,1.4,0,2.1,0.2c0.8,0.2,1.5,0.8,1.6,1.6C144.4,51,144.4,52.1,144.2,53.1L144.2,53.1z"/>
<path class="st0" d="M116.1,45.8c-2-0.1-3.8,1-4.6,2.9c-0.8,1.8-0.8,3.8,0,5.6c0.7,1.8,2.6,3,4.5,2.9c2,0.1,3.8-1,4.6-2.9
	c0.4-0.8,0.6-1.7,0.6-2.6c0-1.1-0.2-2.1-0.6-3.1C119.9,46.9,118.1,45.7,116.1,45.8z M118.4,53.5c-0.3,1-1.3,1.7-2.4,1.6
	c-1,0-2-0.6-2.3-1.6c-0.5-1.3-0.5-2.7,0-4c0.3-1,1.3-1.7,2.4-1.6c1,0,2,0.6,2.3,1.6c0.2,0.6,0.3,1.3,0.3,2
	C118.8,52.2,118.7,52.9,118.4,53.5L118.4,53.5z"/>
<path class="st0" d="M129.1,45.8c-2.3-0.1-4.4,1.4-5,3.6c-0.4,1.4-0.4,3,0.1,4.4c0.9,2.6,3.7,4,6.3,3.2c1.5-0.5,2.7-1.6,3.2-3.1
	c0.3-0.8,0.4-1.6,0.4-2.4c0-0.6,0-1.1-0.2-1.7C133.4,47.6,131.4,45.9,129.1,45.8z M131.2,53.6c-0.3,1-1.3,1.6-2.3,1.6
	c-1,0.1-1.9-0.6-2.3-1.5c-0.5-1.3-0.5-2.8,0-4.1c0.3-1,1.3-1.6,2.3-1.5c1,0,1.9,0.6,2.3,1.5c0.2,0.7,0.4,1.4,0.4,2.1
	C131.6,52.2,131.5,52.9,131.2,53.6z"/>
<path class="st0" d="M215.1,51c-0.4-0.6-0.4-0.4,0.1-0.9l3.2-3.6l0.4-0.5c-0.9,0-1.6,0-2.3,0c-0.3,0-0.6,0.1-0.8,0.4
	c-0.8,0.9-1.5,1.7-2.3,2.6c-0.3,0.4-0.6,0.7-1.1,1.1c0-0.3,0-0.4,0-0.5c0-1.1,0-2.1,0-3.2c0-0.4-0.1-0.5-0.5-0.5s-1,0-1.5,0
	s-0.5,0-0.5,0.6c0,1.8,0,3.5,0,5.3c0,1.6,0,3.2,0,4.8c0,0.5,0,0.5,0.5,0.5s1,0,1.5,0s0.5-0.1,0.5-0.5c0-1,0-2,0-2.9
	c0-0.6,0.3-1.2,0.9-1.5l0.2,0.4l2.7,4.1c0.1,0.2,0.2,0.4,0.5,0.4c0.8,0,1.6,0,2.4,0c0-0.3-0.2-0.5-0.3-0.7L215.1,51z"/>
<path class="st0" d="M169.6,50.7c-0.8-0.3-1.5-0.5-2.3-0.6c-0.5-0.1-1-0.3-1.5-0.5c-0.4-0.2-0.6-0.8-0.3-1.2
	c0.1-0.1,0.2-0.2,0.3-0.3c0.2-0.1,0.5-0.2,0.8-0.2c0.9-0.1,1.7,0.1,2.5,0.6c0.3,0.2,0.6,0.4,1,0.7l1.2-2c-1.1-0.7-2.3-1.1-3.5-1.2
	c-1.2-0.2-2.4,0.1-3.4,0.7c-1.5,1-2.2,4,0.4,5.1c0.4,0.2,0.7,0.3,1.1,0.4c0.7,0.2,1.3,0.3,2,0.5c0.4,0.1,0.7,0.2,1.1,0.4
	c0.5,0.2,0.8,0.8,0.5,1.3c-0.1,0.2-0.2,0.4-0.4,0.5c-0.2,0.1-0.4,0.2-0.7,0.3c-1.2,0.3-2.4,0.1-3.4-0.4c-0.4-0.2-0.7-0.4-1.1-0.7
	c-0.3,0.6-0.5,1.1-0.8,1.7c-0.1,0.3-0.1,0.4,0.2,0.6c1,0.6,2.1,0.9,3.3,1.1c1.2,0.1,2.4,0,3.5-0.6c1-0.4,1.8-1.3,2-2.4
	C172.1,52.6,171.1,51.1,169.6,50.7z"/>
<path class="st0" d="M72.9,50.9c-0.7-0.3-1.4-0.5-2.1-0.7c-0.7-0.1-1.4-0.3-2-0.5c-0.6-0.2-0.7-0.5-0.7-1c0.1-0.4,0.4-0.8,0.9-0.8
	c0.6-0.1,1.1,0,1.7,0.1c0.8,0.2,1.5,0.6,2.1,1.1l1.2-2c-1.2-0.8-2.6-1.2-4.1-1.3c-0.9,0-1.8,0.1-2.6,0.6C66,47,65.4,48.5,65.8,50
	c0.3,0.9,1,1.5,1.9,1.8c0.7,0.3,1.4,0.5,2.2,0.6c0.5,0.1,1,0.3,1.5,0.5c0.4,0.1,0.7,0.5,0.7,0.9c0.1,0.5-0.2,0.9-0.6,1.1
	c-0.2,0.1-0.4,0.2-0.6,0.2c-1.4,0.3-2.8,0-4-0.8c-0.2-0.1-0.3-0.3-0.5-0.3c-0.3,0.6-0.5,1.1-0.8,1.7c-0.1,0.2-0.1,0.3,0.2,0.5
	c1.7,1.1,3.8,1.4,5.7,1c0.9-0.2,1.7-0.7,2.4-1.4c1.2-1.2,1.1-3.2-0.2-4.3C73.4,51.2,73.2,51,72.9,50.9z"/>
<path class="st0" d="M229,50.9c-0.4-0.2-0.9-0.4-1.4-0.5l-1.8-0.4c-0.3-0.1-0.7-0.2-1-0.4c-0.3-0.1-0.5-0.4-0.5-0.8
	c0-0.4,0.2-0.7,0.5-0.8c0.3-0.1,0.7-0.2,1-0.2c0.9,0,1.9,0.3,2.6,0.9c0.2,0.1,0.3,0.3,0.6,0.3c0.4-0.6,0.8-1.3,1.1-1.9
	c-0.3-0.2-0.6-0.3-0.9-0.5c-1.4-0.7-3-0.9-4.5-0.6c-1.1,0.1-2.1,0.8-2.6,1.9c-0.7,1.3-0.2,3,1.1,3.7c0.1,0,0.1,0.1,0.2,0.1
	c0.5,0.2,0.9,0.4,1.4,0.5c0.9,0.2,1.8,0.4,2.6,0.7c0.5,0.2,0.8,0.4,0.8,1c0,0.5-0.4,0.9-0.9,1c-0.6,0.2-1.2,0.3-1.8,0.2
	c-1.1-0.1-2.2-0.5-3-1.3c-0.3,0.6-0.6,1.2-0.9,1.7c-0.1,0.2-0.1,0.4,0.1,0.5c1.4,0.9,3.1,1.2,4.7,1.1c1.1-0.1,2.2-0.5,3.1-1.2
	c1.3-1.2,1.3-3.1,0.2-4.4C229.7,51.3,229.4,51,229,50.9z"/>
<path class="st0" d="M47.6,50.6c-0.9-0.3-1.7-0.5-2.6-0.7c-0.4-0.1-0.8-0.2-1.1-0.4c-0.4-0.2-0.6-0.7-0.4-1.2
	c0.1-0.2,0.2-0.3,0.4-0.4c0.3-0.1,0.6-0.2,0.8-0.2c1,0,2,0.3,2.8,0.9c0.2,0.1,0.3,0.3,0.6,0.4c0.3-0.5,0.7-1.1,1-1.6
	c0.2-0.3,0.1-0.4-0.2-0.5c-1.2-0.7-2.5-1-3.9-1.1c-0.8,0-1.7,0.2-2.4,0.6c-1.1,0.6-1.7,1.7-1.6,2.9c0,1.1,0.7,2,1.8,2.4
	c0.4,0.2,0.8,0.3,1.2,0.4l1.8,0.4c0.4,0.1,0.8,0.2,1.1,0.4c0.5,0.2,0.7,0.8,0.5,1.3c-0.1,0.2-0.2,0.3-0.4,0.4
	c-0.2,0.2-0.5,0.3-0.8,0.3c-1.4,0.3-2.8,0-4-0.9c-0.1-0.1-0.3-0.2-0.5-0.3l-1,2c1.1,0.7,2.4,1.2,3.7,1.3c1.4,0.2,2.8-0.1,3.9-0.9
	c1.3-0.8,1.8-2.4,1.3-3.8C49.2,51.6,48.5,50.9,47.6,50.6z"/>
<path class="st0" d="M96.2,50.9c-0.5-1.5-1-3-1.5-4.5c-0.1-0.3-0.3-0.5-0.6-0.4c-0.4,0-0.9,0-1.3,0c-0.4,0-0.6,0.1-0.7,0.5
	c-0.4,1.4-0.9,2.7-1.4,4.1l-2.3,6.6c0.7,0,1.3,0,1.8,0c0.2,0,0.5-0.1,0.5-0.4c0,0,0,0,0,0c0.2-0.6,0.5-1.3,0.7-1.9
	c0-0.3,0.3-0.5,0.6-0.4c0.9,0,1.7,0,2.6,0c0.3,0,0.5,0.1,0.6,0.4c0.2,0.7,0.5,1.3,0.7,2c0.1,0.2,0.1,0.3,0.4,0.3h2.2l-0.1-0.4
	L96.2,50.9z M92.1,52.5l1-3.3h0.1l1,3.3L92.1,52.5z"/>
<path class="st0" d="M204.9,50.8c-0.5-1.5-1-2.9-1.5-4.4c0-0.3-0.3-0.5-0.6-0.4c0,0,0,0,0,0c-0.4,0-0.8,0-1.3,0
	c-0.7,0-0.6-0.1-0.8,0.6c-1.1,3.2-2.2,6.3-3.2,9.5c-0.2,0.4-0.3,0.7-0.3,1.1c0.6,0,1.3,0,1.9,0c0.3,0,0.3-0.1,0.4-0.3
	c0.2-0.6,0.4-1.2,0.6-1.9c0.1-0.4,0.3-0.6,0.7-0.6c0.8,0,1.6,0,2.4,0c0.3-0.1,0.6,0.1,0.6,0.4c0,0,0,0,0,0c0.2,0.6,0.5,1.3,0.7,1.9
	c0.1,0.2,0.2,0.4,0.4,0.4c0.7,0,1.4,0,2,0c0.1-0.2,0-0.3-0.1-0.5L204.9,50.8z M200.9,52.5l1.1-3.5l1.1,3.5H200.9z"/>
<path class="st0" d="M85.2,55.3c0-0.2-0.1-0.3-0.3-0.3h-0.5c-1.2,0-2.4,0-3.6,0c-0.4,0-0.5-0.1-0.5-0.5c0-0.6,0-1.1,0-1.7
	c0-0.3,0.1-0.4,0.4-0.4c0.6,0,1.2,0,1.8,0c0.3,0,0.4-0.1,0.4-0.4c0-0.4,0-0.9,0-1.3c0-0.3-0.1-0.4-0.4-0.4c-0.6,0-1.2,0-1.8,0
	c-0.3,0-0.4-0.1-0.4-0.4c0-0.5,0-1,0-1.5c0-0.3,0.1-0.4,0.4-0.4c0.2,0,0.3,0,0.4,0c1.1,0,2.2,0,3.3,0c0.3,0,0.5-0.1,0.5-0.4
	c0-0.4,0-0.8,0-1.2c0-0.4-0.1-0.5-0.5-0.5c-2,0-4,0-6,0c-0.5,0-0.5,0-0.5,0.5c0,1.7,0,3.4,0,5.1s0,3.4,0,5.1c0,0.5,0,0.5,0.5,0.5
	c1.7,0,3.5,0,5.2,0c0.5,0,1.2,0.2,1.5-0.1s0.1-1,0.1-1.6C85.2,55.4,85.2,55.4,85.2,55.3z"/>
<path class="st0" d="M194.1,55.4c0-0.2-0.1-0.3-0.3-0.3h-0.5c-1.2,0-2.4,0-3.6,0c-0.3,0-0.5-0.1-0.5-0.4s0-0.7,0-1.1c0-1,0-1,1-1.1
	c0.5,0.1,1.1,0,1.6-0.1c0-0.5,0-1.1,0-1.6c0-0.3-0.1-0.4-0.4-0.4c-0.5,0-1.1,0-1.6,0s-0.6,0-0.6-0.6c0-0.3,0-0.7,0-1
	c0-0.7,0-0.7,0.7-0.7c1.1,0,2.3,0,3.4,0c0.3,0,0.5-0.1,0.5-0.4s0-0.7,0-1.1c0-0.6,0-0.6-0.6-0.6h-5.9c-0.6,0-0.6,0-0.6,0.6
	c0,1.7,0,3.3,0,5s0,3.3,0,5c0,0.6,0,0.6,0.6,0.6c1.7,0,3.4,0,5.1,0c0.5,0,1.2,0.2,1.5-0.1s0.1-1,0.1-1.6
	C194.1,55.4,194.1,55.4,194.1,55.4z"/>
<path class="st0" d="M107.7,45.9c-2,0-4,0-5.9,0c-0.5,0-0.5,0-0.5,0.5c0,1.7,0,3.4,0,5.1c0,0.9,0,1.8,0,2.6c0,0.9,0,1.7,0,2.6
	c0,0.2,0,0.4,0.3,0.4h1.8c0.2,0,0.3-0.1,0.3-0.3s0-0.3,0-0.5c0-1.1,0-2.3,0-3.4c0-0.3,0.1-0.4,0.4-0.4c0.5,0,1,0,1.5,0c1,0,1,0,1-1
	c0-1.1,0-1.1-1.2-1.1c-0.6,0.1-1.1,0.1-1.7,0c-0.1-0.6-0.1-1.2-0.1-1.8c0-0.3,0.1-0.5,0.4-0.4c0.2,0,0.3,0,0.4,0c1.1,0,2.1,0,3.2,0
	c0.3,0,0.5-0.1,0.5-0.4c0-0.4,0-0.8,0-1.3C108.2,46,108.1,45.9,107.7,45.9z"/>
<path class="st0" d="M182.4,46.7c0-0.8,0.1-0.7-0.7-0.7c-1.6,0-3.3,0-4.9,0c-0.5-0.1-1.1,0-1.6,0.1v1.6c0,0,0,0,0,0.1
	c0,0.3,0.1,0.3,0.4,0.3c0.5,0,1,0,1.5,0s0.5,0.1,0.5,0.5c0,1.4,0,2.7,0,4s0,2.7,0,4.1c0,0.3,0.1,0.4,0.4,0.4c0.5,0,1.1,0,1.6,0
	c0.4,0,0.4-0.1,0.4-0.5c0-1.4,0-2.8,0-4.2s0-2.6,0-4c0-0.4,0.1-0.5,0.5-0.5s1,0,1.5,0c0.3,0,0.5-0.1,0.5-0.4S182.4,47,182.4,46.7z"
	/>
<path class="st1" d="M23.6,45.9c-0.5,0-1,0-1.5,0c-0.3,0-0.4,0.1-0.4,0.4c0,3.5,0,7,0,10.5c0,0.3,0.1,0.3,0.4,0.3h1.6
	c0.5,0,0.5,0,0.5-0.5c0-1.7,0-3.4,0-5.1s0-3.3,0-5C24.2,46,24.2,46,23.6,45.9z"/>
<path class="st2" d="M59.1,49.5h-2.3c-0.3,0-0.5,0.1-0.5,0.4c0,0.8,0,1.6,0,2.4c0,0.3,0.2,0.4,0.5,0.4h2.3c0.3,0,0.4-0.1,0.4-0.4
	c0-0.8,0-1.6,0-2.4C59.5,49.6,59.4,49.5,59.1,49.5z"/>
<path class="st2" d="M155.5,49.5h-2.5c-0.2,0-0.4,0.1-0.4,0.4c0,0.9,0,1.7,0,2.6c0,0.2,0.1,0.3,0.2,0.3c0,0,0.1,0,0.1,0h2.6
	c0.2,0,0.3-0.1,0.4-0.3c0,0,0-0.1,0-0.1c0-0.4,0-0.8,0-1.3l0,0c0-0.4,0-0.8,0-1.3S155.8,49.5,155.5,49.5z"/>
<path class="st3" d="M234.1,7.9c-1.3-0.1-2.5,0.9-2.5,2.2c-0.1,1.3,0.9,2.5,2.2,2.5c0.1,0,0.2,0,0.3,0c1.3,0,2.4-1.1,2.4-2.4
	C236.5,9,235.5,7.9,234.1,7.9z M234.1,12.3c-1.1,0-1.9-0.8-1.9-1.9c0,0,0-0.1,0-0.1c0-1.1,0.9-1.9,1.9-1.9s1.9,0.9,1.9,1.9
	C236.1,11.3,235.2,12.2,234.1,12.3C234.2,12.3,234.1,12.3,234.1,12.3L234.1,12.3z"/>
<path class="st4" d="M235.2,9.4c-0.1-0.4-0.4-0.5-0.8-0.5s-0.6,0-0.9,0s-0.3,0-0.3,0.2c0,0.8,0,1.6,0,2.3c0,0.1,0.1,0.2,0.1,0.2
	c0,0,0,0,0,0c0.1,0,0.2-0.1,0.2-0.2c0,0,0,0,0,0c0-0.2,0-0.5,0-0.7c0-0.2,0.1-0.3,0.3-0.3c0.1,0,0.1,0,0.2,0.1
	c0.1,0.1,0.2,0.2,0.3,0.3c0.1,0.2,0.3,0.4,0.4,0.6s0.2,0.2,0.4,0.1s0-0.2,0-0.3l-0.5-0.8l0.2-0.1C235.1,10.2,235.3,9.8,235.2,9.4z
	 M234,10.1c-0.3,0-0.4,0-0.4-0.4s0.1-0.5,0.5-0.5s0.6,0,0.7,0.4S234.5,10.1,234,10.1L234,10.1z"/>
<path class="st5" d="M102.6,1.7c0,0,0,0.1,0,0.2c0,0.2,0.1,0.3,0.2,0.3c0,0,0,0,0,0l0.4,0.1c1.3,0.1,2.4,1.1,2.6,2.5
	c0.2,0.9,0.3,1.8,0.3,2.7c0,7,0,14.1,0,21.1c0,0.6-0.1,1.3-0.2,1.9c0,1-0.7,1.9-1.7,2.1c-0.2,0-0.3,0.2-0.3,0.4c0,0,0,0,0,0
	c0,0.1,0,0.3,0,0.4c0,0.7,0,0.6,0.6,0.6h9c0.1,0,0.2,0,0.2-0.1c0-0.3,0-0.7,0-1c-0.1-0.3-0.4-0.2-0.6-0.3c-0.6-0.1-1.1-0.6-1.3-1.3
	c-0.2-0.9-0.3-1.7-0.3-2.6c0-2.5,0-5,0-7.5c0-0.5,0-1,0-1.5c0-0.1,0-0.3,0.2-0.3c0.4,0,0.9,0,1.3,0c0.3,0,0.4,0.4,0.6,0.6
	c5.1,6.9,10.2,13.7,15.2,20.6c0.2,0.4,0.6,0.6,1.1,0.6c1.3,0,2.6,0,3.8,0h95.2c0.4,0,1,0.2,1.3-0.1s0.1-0.9,0.1-1.3c0-1.2,0.2-1-1-1
	c-30.1,0-60.2,0-90.2,0c-1.3,0-2.6-0.4-3.7-1.1c-0.4-0.3-0.8-0.6-1.2-0.9c-2.7-2.2-5.2-4.7-7.5-7.3c-2.5-2.8-4.8-5.8-7.2-8.7
	l-1.2-1.4c0.8-0.2,1.5-0.2,2.2-0.4c2.5-0.6,4.6-2.1,6-4.2c1.5-2.4,1.8-5.3,0.9-7.9c-0.7-2.7-2.9-4.9-5.6-5.7
	c-1.4-0.4-2.9-0.6-4.3-0.6c-4.7,0-9.3,0-14,0C102.4,0.5,102.6,0.2,102.6,1.7z M111.7,15.7V9.9c0-2.1,0-4.2,0-6.3
	c0-0.6,0-0.6,0.6-0.6c1.3,0,2.6,0,3.9,0.1c2.9,0.3,5.2,2.6,5.5,5.5c0.2,1,0.1,2.1-0.1,3.1c-0.5,2.6-2.5,4.6-5.1,4.9
	c-1.5,0.2-3,0.2-4.5,0.2c-0.3,0-0.3-0.1-0.3-0.4S111.7,15.9,111.7,15.7z"/>
<path class="st5" d="M158.3,9.9c0.7,0.2,1.2,0.8,1.3,1.5c0.1,0.5,0.2,1,0.2,1.5c0.1,5.5,0.1,10.9,0,16.4c0,0.7,0,1.3-0.2,2
	c-0.1,0.6-0.5,1-1.1,1.2c-0.7,0.2-0.6,0.3-0.6,1c0,0.4,0.1,0.5,0.5,0.5c1.9,0,3.8,0,5.7,0c0.3,0,0.5-0.1,0.4-0.4c0-0.1,0-0.2,0-0.4
	c0.1-0.4-0.1-0.6-0.5-0.7c-0.7-0.1-1.2-0.7-1.4-1.4c-0.1-0.5-0.2-1-0.2-1.5c-0.1-4.5,0-8.9,0-13.4c0-0.1,0-0.2,0.1-0.3
	c0.2,0.2,0.3,0.4,0.3,0.6l6.1,14.3c0.5,1.1,1,2.2,1.4,3.4c0.1,0.3,0.4,0.5,0.6,0.4c0.7,0,0.7,0,1-0.7l5.1-12.1l2.4-5.7h0.1
	c0,0.1,0,0.3,0,0.4c0,1.7,0,3.5,0,5.2c0,2.5,0,5,0,7.6c0,0.5-0.1,1-0.2,1.5c-0.2,0.8-0.8,1.4-1.6,1.6c-0.4,0.1-0.5,0.2-0.5,0.6
	c0,0.8,0,0.8,0.8,0.8h15.6c0.8,0,0.8,0,0.8-0.8c0-0.4-0.2-0.5-0.5-0.6c-0.1,0-0.3,0-0.4-0.1c-1.4-0.3-1.8-0.9-1.4-2.3
	c0,0,0-0.1,0-0.1c0.4-1.3,0.9-2.5,1.3-3.8c0.1-0.3,0.3-0.5,0.6-0.4c2.8,0,5.7,0,8.5,0c0.3,0,0.6,0.2,0.6,0.5
	c0.4,1.3,0.9,2.5,1.3,3.7c0.1,0.2,0.1,0.4,0.1,0.6c0.2,0.7-0.2,1.4-0.9,1.7c0,0-0.1,0-0.1,0c-0.1,0.1-0.2,0.1-0.4,0.1
	c-0.4,0-0.5,0.2-0.5,0.6c0,0.8,0,0.8,0.8,0.8h9.9c0.1,0,0.2,0,0.2-0.1c0.1-0.3,0.1-0.7,0-1c-0.1-0.2-0.4-0.2-0.6-0.2
	c-1-0.2-1.9-0.7-2.4-1.6c-0.3-0.5-0.6-1.1-0.8-1.6c-2.9-6.8-5.9-13.7-8.8-20.5c-0.4-0.9-0.8-1.3-1.8-1.2c-0.5,0-0.9,0.3-1,0.7
	c-2.9,6.7-5.7,13.4-8.6,20.2c-0.3,0.8-0.7,1.6-1.1,2.4c-0.2,0.5-0.6,0.9-1,1.2c-0.6,0.5-1.5,0.4-2-0.3c-0.1-0.1-0.2-0.3-0.2-0.5
	c-0.2-0.5-0.3-1-0.3-1.5c-0.1-5.5-0.1-11,0-16.5c0-0.6,0-1.2,0.2-1.8c0.1-0.8,0.7-1.5,1.5-1.7c0.4-0.1,0.4-0.2,0.4-0.6
	c0-0.1,0-0.3,0-0.4c0-0.3-0.1-0.4-0.4-0.4c-2,0-4,0-6.1,0c-0.3,0-0.5,0.1-0.6,0.4c-0.1,0.2-0.1,0.3-0.2,0.5l-6.9,16.3
	c-0.1,0.2-0.1,0.5-0.4,0.7l-0.2-0.5c-2.5-5.6-4.9-11.1-7.4-16.7c-0.1-0.4-0.5-0.7-1-0.7c-1.7,0-3.5,0-5.2,0c-0.9,0-0.8-0.1-0.8,0.8
	c0,0,0,0,0,0.1C157.8,9.6,158,9.9,158.3,9.9C158.3,9.9,158.3,9.9,158.3,9.9z M198.2,15.9c1.3,2.5,2.4,5,3.3,7.6h-6.1H195
	C196,20.9,197.1,18.4,198.2,15.9L198.2,15.9z"/>
<path class="st5" d="M50.1,9.9c0.5,0.1,0.9,0.6,1,1.1c0.1,0.5,0.2,1.1,0.2,1.7c0.1,5.7,0.1,11.3,0,17c0,0.5,0,1-0.1,1.5
	c-0.1,0.7-0.5,1.2-1.2,1.4c-0.2,0-0.4,0.2-0.4,0.5c0,0,0,0,0,0.1c0,0.1,0,0.2,0,0.4c0,0.6,0,0.6,0.6,0.6h5.3c0.6,0,0.6,0,0.6-0.6
	c0-0.1,0-0.3,0-0.4c0-0.2-0.1-0.4-0.2-0.4c0,0,0,0-0.1,0c-0.9-0.2-1.5-1-1.5-1.8c-0.1-0.7-0.1-1.4-0.1-2.1c0-4.8,0-9.5,0-14.3
	c0-0.2,0-0.4,0.1-0.6l0.5,0.6l11.3,14.5l4.2,5.3c0.2,0.2,0.3,0.5,0.6,0.5c0.5,0,1,0,1.5,0.1c0.3,0,0.3-0.1,0.3-0.4s0-0.3,0-0.5
	c0-3.6,0-7.2,0-10.8c0-3.4,0-6.8,0-10.2c0-0.5,0.1-1.1,0.2-1.6c0.2-1,1.2-1.6,2.2-1.4c0.1,0,0.1,0,0.2,0c0.8,0.2,1.5,0.6,2.1,1.1
	c0.6,0.6,1.1,1.2,1.6,1.9l6.2,9.4c0.2,0.2,0.2,0.5,0.2,0.8c0,2,0,3.9,0,5.9c0,0.7-0.1,1.5-0.3,2.2c-0.2,0.6-0.7,1.1-1.3,1.3
	c-0.6,0.2-0.6,0.2-0.6,0.9s0,0.6,0.6,0.6h8.6c0.7,0,0.7,0,0.7-0.7s0-0.6-0.6-0.7c-0.7-0.1-1.2-0.7-1.4-1.4c-0.1-0.3-0.1-0.7-0.2-1
	c-0.2-2.3,0-4.7-0.1-7c0-0.4,0.1-0.8,0.3-1.2c1.8-2.7,3.5-5.3,5.2-8c0.6-0.9,1.1-1.7,1.7-2.6c0.7-1,1.7-1.6,2.9-1.7
	c0.6-0.1,0.6-0.1,0.6-0.7c0,0,0,0,0-0.1c0-0.5,0-0.5-0.5-0.5h-6.5c-0.2,0-0.4-0.1-0.5,0.1c-0.1,0.3-0.1,0.7-0.1,1
	c0,0.3,0.2,0.3,0.4,0.4c0.7,0.3,0.8,0.6,0.6,1.4c-0.2,0.4-0.4,0.8-0.7,1.2l-4.3,6.7c-0.1,0.1-0.1,0.3-0.3,0.4c0,0-0.1,0-0.1-0.1
	l-4.7-7c-0.2-0.3-0.3-0.6-0.4-0.9c-0.3-0.6,0-1.3,0.6-1.5c0,0,0.1,0,0.1,0c0.3-0.1,0.6-0.4,0.5-0.8c0-1,0.1-0.8-0.8-0.8H69
	c-1,0-0.9-0.2-0.9,1c0,0.3,0.1,0.4,0.4,0.5c0.7,0.2,1.2,0.8,1.3,1.5c0.2,0.8,0.3,1.6,0.3,2.5c0,3.7,0,7.3,0,11
	c0,0.1,0.1,0.3-0.1,0.4c-0.2-0.2-0.4-0.4-0.5-0.6c-4-5.3-8-10.5-12-15.8c-0.2-0.3-0.6-0.5-1-0.5c-2,0-4.1,0-6.1,0H50
	c-0.2,0-0.4,0.1-0.3,0.3c0,0.1,0,0.3,0,0.4c-0.1,0.3,0.1,0.6,0.4,0.7C50.1,9.9,50.1,9.9,50.1,9.9z"/>
<path class="st5" d="M142.8,34.7c0.9,0,1.8-0.1,2.7-0.3c3.5-0.6,6.7-2.6,8.8-5.6c2.9-3.7,3.4-8.8,1.4-13c-2.7-5.9-9.2-9.2-15.6-7.9
	c-3.9,0.7-7.4,3.1-9.4,6.6c-2.3,3.6-2.6,8.2-0.6,12.1C132.5,31.9,137,34.4,142.8,34.7z M135.8,15.7c0.3-1,0.9-2,1.5-2.9
	c1.4-1.7,3.5-2.6,5.7-2.5c3.7,0.1,5.7,2.4,6.7,5.4c0.6,1.8,0.8,3.6,0.8,5.5c0,2.2-0.3,4.3-1.1,6.3c-0.6,1.6-1.7,2.9-3.2,3.8
	c-3.5,1.9-7.8,0.6-9.7-2.8c-0.2-0.3-0.3-0.6-0.4-0.9c-0.5-1.1-0.8-2.4-1-3.6C134.7,21.2,134.9,18.4,135.8,15.7L135.8,15.7z"/>
<path class="st5" d="M22.1,14.4c-2.6,4-2.7,9.2-0.1,13.3c2.7,4.6,6.9,6.7,12.2,6.9c0.9,0,1.9-0.1,2.8-0.3c3.4-0.7,6.5-2.6,8.6-5.4
	c3.5-4.6,3.5-10.9,0.1-15.5c-3-4.3-8.3-6.5-13.5-5.7C28,8.3,24.2,10.8,22.1,14.4z M27.5,14.9c0.6-1.6,1.8-3,3.4-3.8
	c3.4-1.8,7.7-0.5,9.5,2.9c0.7,1.4,1.2,2.9,1.4,4.4c0.4,2.8,0.2,5.6-0.6,8.3c-0.5,1.6-1.4,3-2.7,4c-3.2,2.3-7.7,1.7-10-1.5
	c-0.2-0.3-0.4-0.5-0.5-0.8c-0.8-1.7-1.3-3.5-1.5-5.3c-0.1-0.6-0.1-1.2-0.1-1.6C26.3,19.1,26.7,16.9,27.5,14.9z"/>
<path class="st5" d="M9.6,41.2H126c-0.5-0.7-1-1.3-1.4-1.9c-0.3-0.4-0.8-0.7-1.3-0.6H9.1c-0.3,0-0.4,0.1-0.4,0.4s0,0.8,0,1.2
	C8.7,41.3,8.6,41.2,9.6,41.2z"/>
<path class="st5" d="M10.5,3.4c0.8,0,0.7-0.1,0.7,0.7c0,0.1,0,0.2,0,0.2c0,7.7,0,15.3,0,23c0,0.7,0,1.5,0,2.2c0,0.6-0.1,1.2-0.3,1.7
	c-0.2,0.6-0.6,1.1-1.2,1.3C9,32.8,9,32.8,9,33.4S9,34.1,9.7,34.1h8.8c0.3,0,0.4-0.1,0.4-0.4c0-0.1,0-0.3,0-0.4
	c0.1-0.4-0.1-0.5-0.5-0.6c-0.8-0.1-1.4-0.8-1.5-1.6c-0.1-0.8-0.2-1.7-0.2-2.5c0-8.2,0-16.3,0-24.5c0-0.1,0-0.1,0-0.2
	c0-0.4,0.1-0.5,0.5-0.5c1.3,0,2.5,0,3.8,0c0.7,0,1.4,0.1,2.1,0.1c1.2,0.1,2.3,1,2.6,2.2c0.3,1,0.3,0.9,1.3,0.9
	c0.3,0,0.5-0.1,0.5-0.4c-0.1-1.8-0.2-3.5-0.3-5.3c0-0.3-0.1-0.4-0.4-0.4c-0.3,0-0.3,0-0.4,0H0.8C0.8,2,0.7,3.5,0.6,4.9
	c0,0.4,0,0.9-0.1,1.3c0,0.1-0.1,0.3,0.2,0.3c0.4,0.1,0.8,0.1,1.2,0c0.3-0.1,0.2-0.5,0.3-0.7s0.1-0.4,0.2-0.6c0.3-0.9,1.1-1.6,2-1.7
	c0.5-0.1,1-0.2,1.5-0.2C7.5,3.3,9,3.4,10.5,3.4z"/>
<path class="st5" d="M229.4,21.5c-1-0.9-2.1-1.7-3.3-2.3c-1.4-0.7-2.8-1.4-4.1-2.2c-1.2-0.6-2.1-1.6-2.6-2.9
	c-0.7-1.7,0.1-3.6,1.8-4.3c0.3-0.1,0.6-0.2,1-0.2c2.1-0.3,4.2,0.8,5.2,2.6c0.5,0.8,0.8,1.6,0.9,2.5c0.1,0.4,0.3,0.5,0.6,0.5
	c0.1,0,0.2,0,0.4,0c0.5,0,0.6,0,0.6-0.6c0-1,0-2.1,0-3.1s0-1.9,0-2.8s0.2-0.9-1-0.9c-0.2,0-0.4,0.1-0.5,0.3
	c-0.1,0.2-0.2,0.4-0.3,0.5c-0.5,0.7-0.6,0.8-1.3,0.3c-2.9-1.9-6.7-1.7-9.5,0.4c-1.2,0.9-2,2.3-2.2,3.8c-0.5,3,0.8,5.9,3.3,7.6
	c0.8,0.5,1.7,1,2.5,1.5c1.4,0.7,2.8,1.4,4.1,2.2c1.1,0.6,2,1.6,2.5,2.7c0.9,2-0.1,4.4-2.1,5.2c-0.2,0.1-0.4,0.2-0.6,0.2
	c-0.8,0.2-1.6,0.2-2.4,0c-2.5-0.6-4.5-2.2-5.6-4.5c-0.6-1.1-0.6-1.1-1.8-1c-0.3,0-0.4,0.1-0.4,0.4c0,0,0,0.1,0,0.2
	c0,1.9,0,3.8,0,5.7c0,0.6,0,0.6,0.6,0.6s1.1,0,1.3-0.6c0-0.1,0.1-0.1,0.2-0.2c0.2-0.3,0.5-0.5,0.9-0.3c0,0,0.1,0,0.1,0
	c0.6,0.3,1.2,0.6,1.9,0.9c2.7,1.4,5.8,1.3,8.5-0.1c2.6-1.3,4.2-4.1,4-7C231.7,24.6,230.9,22.8,229.4,21.5z"/>
<path class="st5" d="M209.8,8c0.5,0.1,0.5,0.1,0.4,0.7c-0.2,1.2-0.7,2.4-1.5,3.3c-0.3,0.4-0.6,0.8-0.9,1.2c0.3,0.3,0.7,0.6,1,0.8
	s0.4,0.2,0.6,0c2.5-1.7,4.1-4.4,4.6-7.3c0.2-1.1,0.1-2.2-0.4-3.2c-0.7-1.5-2.3-2.2-3.8-1.9c-1.5,0.4-2.5,1.7-2.5,3.2
	C207.2,6.4,208.3,7.7,209.8,8z"/>
</svg>
