<?xml version="1.0" encoding="utf-8"?>
<!-- Generator: Adobe Illustrator 21.1.0, SVG Export Plug-In . SVG Version: 6.00 Build 0)  -->
<svg version="1.1" id="Layer_1" xmlns="http://www.w3.org/2000/svg" xmlns:xlink="http://www.w3.org/1999/xlink" x="0px" y="0px"
	 viewBox="0 0 165.4 105.6" style="enable-background:new 0 0 165.4 105.6;" xml:space="preserve">
<style type="text/css">
	.st0{fill:#009156;}
	.st1{fill:#D9052B;}
	.st2{fill:#FDFDFD;}
</style>
<title>Top Food</title>
<rect x="36.6" y="72.2" class="st0" width="127.5" height="32.9"/>
<path class="st1" d="M127,71.7c-0.7,4.7-5.4,8.6-10.3,8.8c-2.9,0-5.4-2-5.9-4.9c-0.2-1.3-0.4-2.6-0.5-4c0.2-8.1,0.5-16.2,0.5-24.2
	c0-7.8-0.2-15.5-0.4-23.3c0-1.5-0.3-2.6-2.2-3.2c-3.1-1-4.9-3.3-5.5-6.6c-0.6-3.1,0.1-6.1,0.9-9c0.4-1.6,1.4-3.7,4.6-2.3
	s6.6,0.9,10,0.7c9.8-0.5,19.6-0.4,29,2.6c6.9,2.2,13.2,5.1,16.2,12.4c3.1,7.5,1.4,14.3-5,19.2c-8,6.1-17.5,8.4-27,11
	c-5.6,1.6-5,0.2-4.9,6.3C126.5,60.7,126.2,66.2,127,71.7z M137.1,19c-2.8,0-5.6,0-8.4,0c-1.4,0-2.1,0.5-2.1,2c0,3.3-0.1,6.5-0.2,9.8
	c0,1,0.2,1.9,1.5,1.6c7.8-2,15.8-3.6,22.8-7.9c1-0.6,1.9-1.4,1.8-2.7s-1.5-1.6-2.6-1.9C145.6,18.8,141.3,19,137.1,19L137.1,19z"/>
<path class="st2" d="M106.2,95.3h-3.7c-0.5,0-0.6-0.4-0.9-0.7s-0.3-0.2-0.5,0c-1.6,0.9-3.5,1.1-5.2,0.6c-1.1-0.3-2-1.2-2.2-2.3
	c-0.3-1.3,0.2-2.6,1.3-3.3c0.2-0.1,0.4-0.4,0.6-0.5c0.8-0.3,0.6-0.7,0.2-1.2c-0.8-1.1-0.8-2.5-0.1-3.6c0.7-1,1.8-1.5,2.9-1.5
	c0.9-0.1,1.8,0,2.6,0.5c1.4,0.8,1.8,2.6,1,4c-0.1,0.2-0.3,0.4-0.5,0.6c-0.4,0.4-0.8,0.8-1.3,1.1l1.5,1.7c0.4-0.4,0.8-1,1.1-1.5
	c0.1-0.2,0.3-0.3,0.5-0.3h2.4c-0.4,1.2-1.1,2.4-2,3.3c-0.4,0.4-0.3,0.7,0,1C104.8,93.7,105.4,94.5,106.2,95.3z M98.2,93.3
	c0.5-0.1,1-0.3,1.5-0.5c0.3-0.1,0.1-0.2,0-0.3L98,90.6c-0.1-0.1-0.2-0.2-0.4-0.1c-0.6,0.3-1,1-0.9,1.7
	C96.8,92.9,97.5,93.3,98.2,93.3L98.2,93.3z M99.1,84.8c-0.4,0-1.1,0.5-1.1,0.9s0.9,1.5,1.1,1.5c0.5-0.3,0.9-0.8,1.1-1.4
	C100.1,85.3,99.6,84.8,99.1,84.8L99.1,84.8z"/>
<path class="st2" d="M148.7,94.8c-0.6-0.1-1.1-0.7-1-1.3c0,0,0,0,0,0l0,0c0.1-0.7,0.7-0.9,1.2-1.1c-0.3-0.3-0.8-0.4-1.2-0.7
	c-0.8-0.7-1.2-1.8-1-2.8c0.2-1.3,1.2-2.4,2.5-2.6c0.7-0.1,1.4-0.2,2.1-0.1h4.5c0.4,0,0.6,0.1,0.5,0.6c0,0.1,0,0.2,0,0.3
	c0,1.1,0,1.1-1.1,1.1c0.3,0.7,0.4,1.4,0.3,2.1c-0.4,1.5-1.7,2.5-3.2,2.5c-0.4,0-0.9,0.2-1.3,0.2c-0.3,0-0.5,0.2-0.5,0.5
	c0,0.3,0.3,0.3,0.5,0.4c0.9,0.2,1.9,0.2,2.8,0.4c1.5,0.2,2.5,1.6,2.3,3.1c-0.1,0.5-0.3,0.9-0.6,1.3c-0.6,0.7-1.6,1.2-2.5,1.2
	c-1.7,0.3-3.4,0.2-5-0.4c-1.2-0.3-1.9-1.6-1.5-2.8c0-0.1,0-0.1,0.1-0.2C146.9,95.5,147.7,94.9,148.7,94.8z M149.7,89.5
	c0,0.8,0.7,1.5,1.5,1.6c0.9-0.1,1.6-0.8,1.7-1.7c0.1-0.7-0.9-1.5-1.7-1.5C150.3,88,149.7,88.7,149.7,89.5
	C149.7,89.5,149.7,89.5,149.7,89.5L149.7,89.5L149.7,89.5z M151.3,98.1c0.6,0,1.2-0.1,1.7-0.4c0.4-0.2,0.5-0.6,0.4-0.9
	c-0.1-0.2-0.2-0.3-0.4-0.4c-1-0.4-2.2-0.5-3.2-0.1c-0.4,0.1-0.6,0.4-0.6,0.8c0,0.4,0.3,0.7,0.6,0.8C150.3,98,150.8,98.1,151.3,98.1
	L151.3,98.1z"/>
<path class="st2" d="M120.3,94.6c-1.9,1.4-4.5,1-5.9-0.9c-0.4-0.5-0.6-1.1-0.8-1.7c-0.5-1.7-0.1-3.4,0.9-4.8
	c1.2-1.3,3.1-1.8,4.8-1.3l1,0.3v-3.9c0-0.9,0-0.9,0.9-0.9c0.7,0,1.6-0.3,1.9,0.1s0.1,1.3,0.1,1.9v11.1c0,0.5-0.1,0.6-0.6,0.6
	s-1.1,0-1.7,0S120.4,95.3,120.3,94.6z M120.3,90.5v-1.7c0-0.2,0-0.4-0.2-0.5c-0.8-0.6-2-0.6-2.8,0.1c-0.5,0.5-0.8,1.2-0.8,1.9
	c-0.2,1.3,0.4,2.5,1.6,3c0.7,0.2,1.4,0,2-0.4c0.5-0.3,0.2-0.8,0.3-1.2C120.4,91.3,120.4,90.9,120.3,90.5L120.3,90.5z"/>
<path class="st2" d="M82.4,86.3v-4.2c0-0.4,0.1-0.6,0.6-0.5h2c0.3,0,0.4,0.1,0.4,0.4v12.9c0,0.3-0.1,0.5-0.4,0.4h-1.8
	c-0.4,0-0.8,0.1-0.7-0.6c-1.7,1.1-3.9,0.9-5.4-0.4c-1.5-1.7-1.8-4.2-0.8-6.2C77,86.4,79.1,85.1,82.4,86.3z M82.4,90.5v-1.7
	c0-0.2,0-0.4-0.2-0.5c-0.6-0.4-1.4-0.5-2.1-0.3c-1.2,0.4-1.4,1.6-1.5,2.6c-0.1,0.9,0.3,1.9,1.1,2.4c0.7,0.4,1.5,0.3,2.2-0.1
	c0.6-0.3,0.4-0.8,0.4-1.3C82.4,91.3,82.5,90.9,82.4,90.5z"/>
<path class="st2" d="M68.8,95.4c-1.6,0.2-3.3-0.5-4.3-1.8c-0.6-0.6-0.9-1.4-0.9-2.2c-0.2-3.3,1.2-5,4.4-5.5c1.7-0.4,3.5,0.2,4.7,1.4
	c2.3,2.3,1.6,6.6-1.7,7.7C70.2,95.3,69.5,95.4,68.8,95.4z M66.6,90.6c0,0.4,0,0.8,0.1,1.2c0.1,0.9,0.9,1.7,1.9,1.7
	c0.9,0,1.5-0.5,1.8-1.6c0.2-0.8,0.2-1.6,0.1-2.4c-0.1-1.1-1-1.8-2.1-1.8c-0.4,0-0.8,0.2-1.1,0.4C66.8,88.8,66.6,89.7,66.6,90.6z"/>
<path class="st2" d="M56.5,95.4c-2.6,0.2-4.9-1.7-5.2-4.3c-0.2-2.1,1-4,2.8-4.8c1.7-0.7,3.7-0.6,5.3,0.4c1.3,0.7,2.1,2.1,2.2,3.5
	c0.2,1.5-0.3,2.9-1.4,3.9C59.3,95.1,57.9,95.5,56.5,95.4z M58.5,90.5c0-0.5-0.1-1-0.3-1.5c-0.2-0.7-0.8-1.2-1.5-1.3
	c-0.7-0.2-1.5,0.2-1.9,0.9c-0.6,1.1-0.6,2.4-0.2,3.5c0.2,0.8,0.9,1.4,1.7,1.4c0.9,0.1,1.6-0.5,1.8-1.3
	C58.4,91.7,58.5,91.1,58.5,90.5L58.5,90.5z"/>
<path class="st2" d="M141.6,94.2c-1.7,1.6-3.7,1.7-5.2,0.5c-0.6-0.5-1-1.2-1-2v-6c0-0.4,0.1-0.6,0.5-0.6c0.6,0,1.3,0,1.9,0
	c0.4,0,0.5,0.1,0.5,0.5v4.7c0,0.1,0,0.3,0,0.4c0.1,1,0.6,1.8,1.4,1.7c1-0.1,1.8-0.9,1.9-1.9v-4.9c0-0.4,0.1-0.5,0.5-0.5h2.2
	c0.3,0,0.4,0.1,0.4,0.4c0,2.8,0,5.6,0,8.4c0,0.3-0.1,0.4-0.4,0.4c-0.7,0-1.3,0-2,0c-0.6,0-0.8-0.1-0.7-0.7
	C141.5,94.5,141.6,94.3,141.6,94.2z"/>
<path class="st2" d="M45.7,91.6v-3c0-0.5-0.1-0.6-0.6-0.6s-0.8-0.1-0.8-0.7c0-0.1,0-0.2,0-0.3c0-0.9,0-0.9,0.9-0.9
	c0.4,0,0.4-0.2,0.4-0.5c0-1,0.2-1.9,0.8-2.7c0.6-0.8,1.5-1.3,2.6-1.4c0.7-0.1,1.5,0,2.2,0.1c0.3,0,0.2,0.2,0.2,0.4v1.7
	c0,0.6-0.2,0.4-0.5,0.4c-0.3-0.1-0.5-0.1-0.8-0.1c-0.9,0-1.6,0.8-1.6,1.7c0,0.1,0,0.1,0,0.2c0.1,0.4,0.3,0.3,0.5,0.2
	c0.7-0.1,0.9,0.2,0.8,0.9c0,0.1,0,0.2,0,0.3c0.1,0.7-0.1,0.9-0.8,0.8c-0.4-0.1-0.5,0.1-0.5,0.6v6.1c0,0.4-0.1,0.6-0.6,0.6
	c-0.6,0-1.3,0-1.9,0c-0.3,0-0.4-0.1-0.4-0.4C45.7,93.7,45.7,92.7,45.7,91.6z"/>
<path class="st2" d="M129,88.3c0.6-0.8,0.8-1.6,1.6-2.1c1-0.6,2.3-0.5,3.1,0.3c0.2,0.2,0.1,0.4,0.1,0.6c-0.2,0.7-0.4,1.3-0.6,2
	c-0.1,0.4-0.3,0.3-0.5,0.1c-0.5-0.5-1.3-0.6-2-0.3c-0.6,0.4-1.1,1-1.4,1.7c-0.3,1-0.4,2.1-0.3,3.1c0,1.6,0,1.6-1.6,1.6
	c-1.6,0-1.5,0-1.5-1.5v-7.2c0-0.5,0.1-0.6,0.6-0.6c0.6,0,1.2,0,1.8,0c0.5,0,0.7,0.1,0.6,0.6S129,87.7,129,88.3z"/>
<path class="st0" d="M98.2,93.3c-0.7,0-1.3-0.4-1.5-1.1c-0.1-0.7,0.3-1.4,0.9-1.7c0.2-0.1,0.3,0,0.4,0.1l1.7,1.8
	c0.1,0.1,0.2,0.2,0,0.3C99.2,93.1,98.7,93.2,98.2,93.3z"/>
<path class="st0" d="M149.7,89.5c-0.1-0.8,0.6-1.5,1.4-1.6c0,0,0,0,0,0l0,0c0.9,0,1.8,0.8,1.7,1.5c-0.1,0.9-0.8,1.6-1.7,1.7
	C150.4,90.9,149.8,90.3,149.7,89.5z"/>
<path class="st0" d="M151.3,98.1c-0.5,0-1-0.1-1.5-0.3c-0.4-0.1-0.6-0.4-0.6-0.8c0-0.4,0.3-0.7,0.6-0.8c1-0.4,2.2-0.4,3.2,0.1
	c0.4,0.2,0.5,0.6,0.4,0.9c-0.1,0.2-0.2,0.3-0.4,0.4C152.5,97.9,151.9,98,151.3,98.1z"/>
<path class="st0" d="M120.4,90.5v1.1c0,0.4,0.2,0.9-0.3,1.2c-0.6,0.4-1.3,0.6-2,0.4c-1.1-0.5-1.8-1.8-1.5-3c0-0.7,0.3-1.4,0.8-1.9
	c0.8-0.7,2-0.7,2.8-0.1c0.2,0.1,0.2,0.3,0.2,0.5L120.4,90.5z"/>
<path class="st0" d="M82.4,90.5v1.1c0,0.4,0.2,1-0.4,1.3c-0.7,0.5-1.5,0.5-2.2,0.1c-0.8-0.5-1.3-1.4-1.1-2.4
	c-0.1-1.1,0.5-2.2,1.5-2.6c0.7-0.2,1.5-0.1,2.1,0.3c0.2,0.1,0.2,0.3,0.2,0.5C82.4,89.4,82.4,90,82.4,90.5z"/>
<path class="st0" d="M66.6,90.6c-0.1-0.9,0.2-1.8,0.8-2.5c0.8-0.7,2-0.5,2.7,0.3c0.2,0.3,0.4,0.7,0.4,1.1c0.1,0.8,0.1,1.6-0.1,2.4
	c-0.3,1.1-0.9,1.6-1.8,1.6c-1,0-1.8-0.8-1.9-1.7C66.7,91.5,66.6,91,66.6,90.6z"/>
<path class="st0" d="M58.5,90.5c0,0.6-0.1,1.1-0.3,1.7c-0.2,0.8-1,1.4-1.8,1.3c-0.8,0-1.5-0.6-1.7-1.4c-0.4-1.2-0.3-2.4,0.2-3.5
	c0.3-0.7,1.1-1,1.9-0.9c0.7,0.1,1.3,0.6,1.5,1.3C58.4,89.5,58.5,90,58.5,90.5z"/>
<path class="st1" d="M36.8,77.7c-2.5,1.4-4.5,3.5-7.8,3.2c-4.9-0.4-7.2-2.4-7.1-7.4c0.1-9.8,0.5-19.6,0.7-29.3
	c0.2-7.9-0.5-15.7-0.7-23.6c-0.1-1.9-0.7-2.6-2.6-2.2c-3.2,0.6-6.3,1.7-9.2,3.3c-3.7,2.2-7.7,1.1-8.6-3s-1.7-8.4-0.2-12.6
	c0.4-1.3,1.2-2.3,2.2-1.9c3,1.3,5.8,0.3,8.6,0C28.5,2.5,44.8,2.8,61,3.9C63.3,4,65.6,4,67.4,5.7c1.4,1.4,2.4,0,3.5-0.6
	c5.4-3.3,11-5.6,17.6-4.2c4.3,0.9,7.4,4,11.1,5.8c1.8,0.8,1.7,3.4,0.8,4.5c-2.4,3.1-0.4,5,1.2,7.2c4.2,6,7.1,12.5,6.6,20.1
	c-1,16.8-11.4,29.2-27.7,33.2c-0.1,0-0.2,0-0.3,0c-0.2-0.3-0.1-0.3,0.3-0.3c-3.2,0.5-6.5,0.5-9.8,0c-14-2.9-22.2-12.3-22.6-26.4
	c-0.2-8.4,2.1-16.2,5.9-23.6c1.7-3.3,1.7-3.4-2-3.6c-3.3-0.2-6.5,0-9.8-0.2c-1.9-0.1-2.5,0.6-2.5,2.5c0.1,3,0,6.1-0.2,9.1
	c-0.7,14.1-0.1,28.3,0.4,42.4L36.8,77.7z M66.4,46.5c-0.1,2.6,0.2,5.2,0.9,7.7c1.2,3.3,2.6,6.3,6.5,7s7-0.7,9.7-3.5
	c1.9-2,3.2-4.4,4.1-6.9c3.3-9.5,3.7-19-1.4-28.1c-3.1-5.5-4.9-6-9.4-1.8C69.4,27.8,67,36.8,66.4,46.5L66.4,46.5z"/>
</svg>
