<?xml version="1.0" encoding="utf-8"?>
<!-- Generator: Adobe Illustrator 21.1.0, SVG Export Plug-In . SVG Version: 6.00 Build 0)  -->
<svg version="1.1" id="Layer_1" xmlns="http://www.w3.org/2000/svg" xmlns:xlink="http://www.w3.org/1999/xlink" x="0px" y="0px"
	 viewBox="0 0 181.1 126.1" style="enable-background:new 0 0 181.1 126.1;" xml:space="preserve">
<style type="text/css">
	.st0{fill:#BFBFBF;}
	.st1{fill:#FDFDFD;}
	.st2{fill:#E13929;}
	.st3{fill:#50A3DA;}
	.st4{fill:#4D6BB0;}
	.st5{fill:#EDB467;}
	.st6{fill:#ED1B2E;}
</style>
<title>CR</title>
<path class="st0" d="M145,40.5c0-2.9-0.8-5.6-2.4-8c-1.2-1.9-2.8-3.6-4.7-4.8c-7.6-5.2-15-10.5-22.5-15.6c-4.7-3.2-9.1-6.9-14.3-9.5
	c-2.3-1-4.8-1.7-7.3-1.9c-9.4-1.2-16.5,3-23.6,8.3c-8.5,6.3-17.2,12.2-26,18c-1.5,1-2.9,2.2-4.1,3.6c-2.4,2.7-3.8,6.2-3.8,9.9
	c0,2.4,0.6,4.8,1.7,6.9c1.4,2.7,3.5,5,6.1,6.7c8.8,5.9,17.5,11.9,26,18.2c7.1,5.3,14.2,9.6,23.6,8.3c2.5-0.2,5-0.9,7.3-1.9
	c5.2-2.6,9.5-6.4,14.3-9.6c7.6-5.2,15-10.5,22.5-15.7c2.6-1.7,4.6-4.2,5.9-7C144.6,44.6,145,42.6,145,40.5z M101.6,74.2
	c-6.9,4.7-16,4.5-22.8-0.3c-10.5-7.3-20.9-14.5-31.4-21.8h0.2c-1.7-1.1-3.3-2.4-4.8-3.8c-2-2.1-3.3-4.9-3.4-7.8
	c0.1-2.9,1.3-5.7,3.4-7.8c0.6-0.7,1.3-1.3,2.1-1.9l0.4-0.3l6.5-4.5l81.3,3c-7.4-5.1-14.9-10.3-22.2-15.5
	c7.4,5.1,14.8,10.3,22.2,15.5l0,0l0.3,0.2l2,1.4l0.7,0.5h0.1l0.4,0.4c2.7,2.1,4.4,5.4,4.6,8.8c0,0.1,0,0.2,0,0.2s0,0.1,0,0.2
	c-0.1,3.6-2.2,7.2-6.1,9.9l-31.2,1.3l29.8-0.1C123.1,59.3,112.4,66.8,101.6,74.2z"/>
<path class="st0" d="M103.9,51.9l-56.2,0.3c0.9,0.6,1.9,1.3,2.8,1.9L103.9,51.9z"/>
<path class="st1" d="M90.6,3.6c4.5,0.2,8.9,1.7,12.6,4.4c10.5,7.6,21.2,14.9,31.8,22.3c8,5.5,8.3,14.6,0.3,20.2
	c-11.2,8-22.5,15.9-33.8,23.7c-6.9,4.7-16,4.5-22.8-0.3c-11.2-7.8-22.3-15.5-33.5-23.3c-6.7-4.7-7.8-12.1-2.5-18
	c2.1-2.3,5-4,7.6-5.8c9.6-6.7,19.1-13.5,28.7-20.1C82.6,4.6,86.6,3.4,90.6,3.6z M73.6,64.5c0.3,0.3,0.6,0.9,1,0.5s-0.3-0.7-0.6-0.9
	c-0.4-0.4-0.7-0.8-1.1-1.2c-7.8-7.7-11.4-17-10.7-28c0.4-4,1.1-8,2.1-11.8c-6.1,4.3-11.9,8.2-17.4,12.5c-3.8,3-3.5,7.9,0.7,10.9
	C56.2,52.5,64.9,58.5,73.6,64.5z M64.9,22.7c8.5,3.6,16.7,6.9,25.6,8.1c8.5,1.3,17.1-1.5,23.2-7.5c1.2-1.1,1-1.6-0.3-2.4
	c-4.7-3.2-9.2-6.6-14-9.7c-5.6-3.6-11.4-4-17.2-0.4c-4.4,2.8-8.6,5.8-12.9,8.8C68,20.5,66.6,21.5,64.9,22.7z M136.7,40.4
	c-0.1-2.3-1.3-4.4-3.1-5.7c-4.7-3.4-9.6-6.7-14.3-10.1c-1.3-0.9-1.9-0.6-2.5,0.6c-5.8,10.3-5.6,20.6-0.2,30.9
	c0.6,1.2,1.2,1.4,2.4,0.6c4.8-3.4,9.6-6.7,14.3-10.1C135.4,45.3,136.7,43,136.7,40.4L136.7,40.4z M115.3,59.2
	c-1.7-1.4-3.6-2.6-5.7-3.3c-4.9-2-9.9-2.7-14.9-0.7C88,57.9,85.4,63.6,84,70.1c-0.3,1.4,0.5,1.9,1.6,2.1c4.5,1.1,9,1.1,13-1.5
	C104.2,67.1,109.6,63.2,115.3,59.2z"/>
<path class="st2" d="M64.9,22.7c1.7-1.2,3.1-2.2,4.5-3.2c4.3-2.9,8.5-6,12.9-8.8c5.7-3.6,11.6-3.2,17.2,0.4c4.8,3.1,9.3,6.5,14,9.7
	c1.3,0.9,1.4,1.3,0.3,2.4c-6.1,6-14.7,8.8-23.2,7.5C81.6,29.6,73.4,26.2,64.9,22.7z"/>
<path class="st3" d="M136.7,40.4c-0.1,2.5-1.4,4.9-3.5,6.3c-4.8,3.4-9.6,6.7-14.3,10.1c-1.1,0.8-1.7,0.7-2.4-0.6
	c-5.4-10.3-5.6-20.6,0.2-30.9c0.7-1.2,1.2-1.6,2.5-0.6c4.7,3.4,9.6,6.7,14.3,10.1C135.4,36.1,136.6,38.2,136.7,40.4z"/>
<path class="st4" d="M73.6,64.5c-8.7-6-17.4-12-26-18.2c-4.1-3-4.5-7.8-0.7-10.9c5.4-4.3,11.3-8.1,17.4-12.5
	c-1.1,3.9-1.8,7.8-2.1,11.8c-0.8,11,2.9,20.3,10.7,28c0.4,0.4,0.8,0.8,1.1,1.2L73.6,64.5z"/>
<path class="st5" d="M115.3,59.2c-5.7,4-11.1,7.9-16.7,11.6c-4,2.6-8.4,2.6-13,1.5c-1.1-0.3-1.9-0.7-1.6-2.1
	c1.4-6.5,4-12.2,10.7-14.9c5-2,10-1.3,14.9,0.7C111.6,56.6,113.6,57.8,115.3,59.2z"/>
<path class="st4" d="M74,64.1c0.4,0.2,1,0.5,0.6,0.9s-0.7-0.2-1-0.5L74,64.1z"/>
<path class="st6" d="M106.3,125.5c-0.8-0.2-1.7-0.3-2.5-0.5c-0.3,0-0.4-0.2-0.4-0.4c0-1.3,0-2.6,0-3.9c0-0.4,0.1-0.4,0.4-0.4
	s0.8,0.1,1.1,0.1c1.2,0.1,2.4-0.5,3-1.6c0.5-0.7,0.9-1.5,1.4-2.3c0.2-0.4,0.2-0.8,0-1.2c-2.1-4.1-4.2-8.2-6.3-12.4
	c-0.2-0.5-0.5-0.9-0.7-1.4c-0.1-0.3-0.2-0.4,0.2-0.4c2,0,4.1,0,6.1,0c0.4,0,0.5,0.3,0.6,0.6c1.1,2.2,2.2,4.5,3.4,6.7
	c0.1,0.2,0.1,0.4,0.4,0.5l1.5-2.9c0.7-1.4,1.5-2.9,2.2-4.4c0.1-0.3,0.4-0.5,0.8-0.5c1.9,0,3.8,0,5.7,0c0.6,0,0.6,0.2,0.4,0.6
	c-2.4,4.8-4.8,9.5-7.3,14.3c-1,2.2-2.2,4.2-3.6,6.2c-0.8,1.2-1.8,2.1-3,2.7c-0.6,0.3-1.3,0.3-1.9,0.6L106.3,125.5z"/>
<path class="st6" d="M0.6,92.9c0.3,0,0.5,0,0.8,0h19.4c0.8,0,0.8,0,0.8,0.8c0,1.4,0,2.8,0,4.2c0,0.5-0.1,0.6-0.6,0.6c-2,0-4,0-6,0
	c-0.6,0-0.7,0.2-0.7,0.7c0,5.9,0,11.8,0,17.7c0,0.8,0,0.8-0.8,0.8c-1.7,0-3.5,0-5.2,0c-0.5,0-0.7-0.1-0.7-0.7c0-5.9,0-11.8,0-17.7
	c0-0.9,0-0.9-0.8-0.9H0.5L0.6,92.9z"/>
<path class="st6" d="M180.6,117.6h-6.3c-0.3,0-0.4-0.1-0.4-0.4c0-0.1,0-0.2,0-0.3c0-7,0-14.1,0-21.1c0-0.7,0.2-1,0.9-1.2
	c1.9-0.5,3.9-1.1,5.8-1.7L180.6,117.6z"/>
<path class="st6" d="M147,105.3c0,3.9,0,7.8,0,11.7c0,0.5-0.1,0.7-0.7,0.7c-1.8,0-3.6,0-5.3,0c-0.5,0-0.7-0.1-0.7-0.7
	c0-2.9,0-5.8,0-8.7c0-0.5-0.1-0.7-0.6-0.7c-2.4,0-4.7,0-7.1,0c-0.5,0-0.7,0.2-0.7,0.7c0,2.9,0,5.8,0,8.6c0,0.5-0.1,0.7-0.7,0.7
	c-1.8,0-3.5,0-5.3,0c-0.5,0-0.7-0.2-0.7-0.7c0-7.8,0-15.7,0-23.5c0-0.5,0.1-0.6,0.6-0.6c1.8,0,3.6,0,5.4,0c0.5,0,0.6,0.2,0.6,0.7
	c0,2.6,0,5.1,0,7.6c0,0.5,0.1,0.7,0.7,0.7c2.4,0,4.7,0,7.1,0c0.5,0,0.6-0.2,0.6-0.7c0-2.5,0-5.1,0-7.6c0-0.5,0.1-0.7,0.7-0.7
	c1.7,0,3.5,0,5.2,0c0.8,0,0.8,0,0.8,0.8C147,97.6,147,101.4,147,105.3z"/>
<path class="st6" d="M80.4,117.6c-0.2,0.1-0.4,0.1-0.6,0.1c-2.1,0-4.2,0-6.3,0c-0.3,0-0.6-0.1-0.8-0.4c-1.3-1.8-2.7-3.5-4-5.2
	c-0.5-0.4-1.2-0.6-1.9-0.4c-0.2,0.1-0.1,0.3-0.1,0.5c0,1.6,0,3.3,0,4.9c0,0.5-0.2,0.7-0.7,0.7c-1.8,0-3.6,0-5.4,0
	c-0.5,0-0.6-0.1-0.6-0.6c0-7.2,0-14.4,0-21.6c-0.1-0.4,0.2-0.7,0.5-0.7c0,0,0,0,0,0c1.8-0.5,3.7-1.1,5.5-1.6
	c0.5-0.1,0.7-0.1,0.7,0.5c0,4.1,0,8.2,0,12.3c0,0.6,0.2,0.8,0.8,0.8s1.3,0,1.9-0.1c1.7-0.1,2.9-1.6,2.8-3.2c0-0.2,0-0.4-0.1-0.5
	c0-0.3-0.1-0.7-0.2-1c-0.3-0.5-0.2-0.6,0.4-0.6c1.9,0,3.7,0,5.6,0c0.4-0.1,0.7,0.2,0.8,0.6c0.8,2.9-0.2,6-2.7,7.7
	c-1,0.7-1,0.7-0.3,1.7c1.5,2,3,4,4.5,5.9C80.2,117.2,80.4,117.3,80.4,117.6z"/>
<path class="st6" d="M21.2,107.1c0-1.8,0-3.6,0-5.4c0-0.4,0.1-0.6,0.6-0.6c1.8,0,3.7,0,5.5,0c0.5,0,0.6,0.2,0.6,0.6
	c0,2.9,0,5.8,0,8.6c0,2.1,1.3,2.6,3,2.4c0.8-0.1,1.5-0.3,2.2-0.6c0.4-0.1,0.6-0.4,0.6-0.8c0-3.1,0-6.3,0-9.5c0-0.8,0-0.8,0.9-0.8
	c1.7,0,3.4,0,5.1,0c0.5,0,0.6,0.1,0.6,0.6c0,3,0,6,0,9c0,0.2,0,0.4,0,0.6c0,1.7,0.7,2.3,2.3,2c0.5-0.1,0.6,0,0.6,0.5c0,1,0,2,0,2.9
	c0,0.3,0,0.5-0.3,0.6c-2.1,0.8-4.4,0.9-6.5,0.4c-0.6-0.1-1.1-0.5-1.6-0.9c-0.2-0.2-0.5-0.3-0.8-0.1c-2.1,0.9-4.3,1.4-6.5,1.4
	c-1.5,0.1-3-0.3-4.3-1.1c-1.4-1.1-2.1-2.8-2-4.5C21.2,110.6,21.2,108.9,21.2,107.1z"/>
<path class="st6" d="M93.9,110.7c-1.9,0-3.7,0-5.6,0c-0.5,0-0.5,0.1-0.5,0.6c0.3,1.7,2,2.5,3.7,2.7c2.8,0.2,5.5-0.2,8.1-1.3
	c0.7-0.3,0.7-0.2,0.7,0.4c0,1,0,2,0,2.9c0,0.3-0.1,0.5-0.4,0.6c0,0,0,0,0,0c-1.6,0.6-3.3,1-5,1.3c-2.4,0.3-4.8,0.2-7.2-0.3
	c-1.6-0.4-3.1-1.2-4.3-2.4c-1.1-1.2-1.8-2.8-2-4.5c-0.4-2.3,0.2-4.6,1.6-6.4c1.1-1.4,2.7-2.4,4.4-2.9c1.3-0.4,2.6-0.6,3.9-0.6
	c2.1-0.2,4.3,0.1,6.3,1c3,1.3,4.4,4.8,3.1,7.8c0,0,0,0,0,0c-0.2,0.7-0.9,1.1-1.6,1.1C97.3,110.6,95.6,110.7,93.9,110.7z M91.6,107.4
	L91.6,107.4c1,0,2,0,3.1,0c0.4,0,0.5-0.1,0.5-0.5c0.1-0.7-0.3-1.4-0.9-1.7c-0.9-0.4-2-0.6-3-0.4c-1.3,0-2.5,0.8-3,2.1
	c-0.2,0.4-0.1,0.5,0.3,0.5H91.6z"/>
<path class="st6" d="M169.6,105.3c0,3.9,0,7.7,0,11.6c0,0.6-0.1,0.8-0.8,0.8c-1.8,0-3.5,0-5.3,0c-0.5,0-0.6-0.1-0.6-0.6
	c0-7.2,0-14.4,0-21.6c0-0.4,0.1-0.7,0.6-0.8c1.8-0.5,3.7-1.1,5.5-1.6c0.5-0.2,0.6,0,0.6,0.5C169.6,97.4,169.6,101.3,169.6,105.3z"/>
<path class="st6" d="M51.8,102.9c1.1-0.7,2.2-1.2,3.4-1.6c0.8-0.3,1.7-0.5,2.5-0.7c0.4-0.1,0.6,0,0.6,0.5c0,1.7,0,3.3,0,5
	c0,0.4-0.1,0.5-0.5,0.5c-1.9,0.1-3.8,0.4-5.6,1.1c-0.3,0.1-0.5,0.4-0.5,0.7c0,2.8,0,5.7,0,8.5c0,0.5-0.1,0.7-0.7,0.7
	c-1.8,0-3.6,0-5.3,0c-0.5,0-0.7-0.1-0.7-0.6c0-4.8,0-9.6,0-14.4c0-0.4,0-0.6,0.4-0.7c1.9-0.5,3.8-1.1,5.6-1.6c0.4-0.1,0.6,0,0.6,0.4
	C51.8,101.4,51.8,102,51.8,102.9z"/>
<path class="st6" d="M158.6,109c0,2.7,0,5.3,0,8c0,0.5-0.1,0.6-0.6,0.6c-1.8,0-3.7,0-5.5,0c-0.5,0-0.6-0.2-0.6-0.6
	c0-4.7,0-9.4,0-14.1c0-0.4,0.1-0.6,0.4-0.7c1.9-0.5,3.8-1.1,5.7-1.7c0.5-0.1,0.6,0,0.6,0.4C158.6,103.6,158.6,106.3,158.6,109z"/>
</svg>
