<?xml version="1.0" encoding="utf-8"?>
<!-- Generator: Adobe Illustrator 21.1.0, SVG Export Plug-In . SVG Version: 6.00 Build 0)  -->
<svg version="1.1" id="Layer_1" xmlns="http://www.w3.org/2000/svg" xmlns:xlink="http://www.w3.org/1999/xlink" x="0px" y="0px"
	 viewBox="0 0 224.3 124.6" style="enable-background:new 0 0 224.3 124.6;" xml:space="preserve">
<style type="text/css">
	.st0{fill:#231F20;}
	.st1{fill:#FEFEFE;}
	.st2{fill:#8B8889;}
	.st3{fill:#8F8E8E;}
	.st4{fill:#4A683E;}
	.st5{fill:#4A693E;}
	.st6{fill:#4A693F;}
	.st7{fill:#516E45;}
</style>
<title>Casual dining</title>
<path class="st0" d="M211.1,64.3h-5.7l1.3,1.6c1.6,1.9,3.1,4,4.4,6.1c1.4,2.4,2.3,5.1,2.6,7.9c0.4,3.1,0.8,6.1,1.2,9.1
	c0.5,3.5-0.9,6.9-3.6,9.1l-0.1,0.1c0.1,0.2,0.3,0.1,0.4,0.1c2.8,0,5.5,0,8.3,0c0.4,0,0.5,0.1,0.6,0.5c0.8,5.7,1.6,11.5,2.4,17.2
	c0.4,2.5,0.7,5,1.1,7.4c0.1,0.5,0,0.6-0.5,0.6H1.1c-0.7,0-0.7,0-0.6-0.7c0.6-4.3,1.2-8.7,1.8-13c0.6-3.9,1.1-7.8,1.6-11.7
	c0-0.4,0.3-0.3,0.5-0.3h7.4c1,0,2,0,3,0c0.3,0,0.4-0.1,0.5-0.4c0.3-2.3,0.6-4.6,0.9-6.9c0.4-3.4,0.9-6.8,1.3-10.2
	c0.5-3.7,0.9-7.3,1.4-11c0.5-3.7,0.9-7.4,1.4-11.1c0.2-1.5,0.4-3,0.6-4.4c0-0.4-0.1-0.4-0.4-0.4c-1.7,0-3.4,0-5.1,0
	c-0.4,0-0.5-0.1-0.4-0.5c0.6-4.5,1.2-9,1.8-13.5c0-0.4,0.2-0.5,0.6-0.5h22.7c0.5,0,0.9-0.2,1.2-0.5c5.9-5.5,11.8-11.1,17.7-16.6
	c5.2-4.9,10.3-9.7,15.4-14.6c2.6-2.6,5.6-4.6,9-6c2.1-0.8,4.4-1.2,6.7-1.2c2.6-0.1,5.2,0.4,7.6,1.3c2.5,1.1,4.7,2.7,6.6,4.6
	c2.8,2.6,5.7,5.2,8.5,7.7c0.3,0.2,0.4,0.2,0.6,0c2.8-2.6,5.4-5.4,8.3-7.9c2.6-2.4,5.7-4.1,9-5.1c6.7-1.7,12.8-0.5,18.1,4.2
	c6.7,5.9,13.4,11.7,20.2,17.6L188,39.2c0.3,0.2,0.6,0.4,1,0.4c2.3,0.1,4.6-0.3,6.9-0.3c2.4,0,4.9,0.5,7.1,1.5
	c3.5,1.6,5.9,4.9,6.1,8.8c0.5,3.8,1,7.6,1.5,11.4L211.1,64.3z"/>
<path class="st1" d="M43.4,71l2.3-11c1.1-5,2.1-10,3.2-15c0.1-0.4,0.2-0.5,0.6-0.5c2.2,0,4.4,0,6.6,0c0.3,0,0.4,0.1,0.4,0.4
	c0.1,4.3,0.2,8.6,0.3,12.9c0.1,3.9,0.2,7.9,0.3,11.9c0,0.8,0,1.5,0,2.3h0.2c0.1-0.8,0.3-1.6,0.4-2.4l3.7-21.2
	c0.2-1.2,0.4-2.4,0.6-3.6c0-0.3,0.1-0.4,0.4-0.4c1.8,0,3.6,0,5.4,0c0.3,0,0.3,0,0.3,0.3c-1,5.7-2,11.4-2.9,17.1
	c-0.8,5-1.7,10-2.5,14.9c-0.9,5.6-1.9,11.1-2.8,16.7c-0.1,0.7-0.2,1.3-0.3,2c0,0.3-0.1,0.3-0.4,0.3c-2.3,0-4.5,0-6.8,0
	c-0.3,0-0.3-0.1-0.3-0.3c-0.1-3.2-0.2-6.4-0.3-9.5c-0.1-3.7-0.2-7.4-0.3-11.2c-0.1-3.3-0.2-6.6-0.3-9.9c0-0.3,0-0.7-0.1-1
	c-0.3,1.2-0.5,2.4-0.8,3.6l-3.9,18.8c-0.6,3-1.3,6.1-1.9,9.1c-0.1,0.4-0.2,0.4-0.5,0.4c-2.2,0-4.4,0-6.7,0c-0.5,0-0.5-0.2-0.5-0.6
	c0.1-4.2,0.2-8.4,0.3-12.6c0.1-4.9,0.2-9.9,0.2-14.8c0.1-3.8,0.1-7.5,0.2-11.3c0-2.4,0.1-4.7,0.1-7.1c0-0.4-0.1-0.5-0.5-0.5
	c-1.2,0-2.4,0-3.6,0c-0.3,0-0.3,0.1-0.4,0.3c-0.3,2.7-0.7,5.5-1,8.2c-0.4,3.3-0.8,6.5-1.2,9.8c-0.4,3.3-0.8,6.5-1.2,9.7l-1.1,9.3
	c-0.4,3.1-0.8,6.1-1.1,9.2c0,0.4-0.2,0.4-0.5,0.4c-2,0-3.9,0-5.9,0c-0.4,0-0.4-0.1-0.4-0.4c0.5-3.6,0.9-7.3,1.4-10.9
	c0.5-3.9,1-7.8,1.5-11.7c0.5-3.7,0.9-7.3,1.4-11L26.5,51c0.1-0.5,0.1-1,0.2-1.4s0-0.4-0.4-0.4c-1.7,0-3.4,0-5.1,0
	c-0.4,0-0.5-0.1-0.4-0.5c0.2-1.2,0.3-2.4,0.5-3.6c0-0.4,0.1-0.5,0.5-0.5c7.2,0,14.3,0,21.5,0c0.4,0,0.5,0.1,0.5,0.5
	c-0.1,3.8-0.2,7.6-0.3,11.4c-0.1,4.8-0.2,9.5-0.3,14.3c-0.1,0.2,0.1,0.4,0,0.6C43.3,71.3,43.3,71.1,43.4,71z"/>
<path class="st1" d="M112.1,122H3.6c-0.7,0-0.7,0-0.6-0.7c0.6-4.3,1.2-8.7,1.8-13c0.3-2.4,0.7-4.9,1-7.4c0-0.3,0.1-0.4,0.4-0.3
	c0.1,0,0.3,0,0.4,0h211.2c0.4,0,0.6,0.1,0.6,0.6c0.6,4.3,1.2,8.5,1.8,12.8c0.4,2.5,0.7,5,1.1,7.5c0.1,0.6-0.2,0.6-0.6,0.6L112.1,122
	z"/>
<path class="st1" d="M132.5,70.1c-0.1-4.1-0.2-8.2-0.4-12.4c-0.1-3.4-0.2-6.8-0.3-10.2c0-0.9,0-1.8-0.1-2.7c0-0.3,0-0.4,0.4-0.4
	c4.6,0,9.1,0,13.7,0c0.3,0,0.4,0.1,0.4,0.4c0,1.3,0.1,2.5,0.2,3.8c0,0.3-0.1,0.4-0.4,0.4c-2.4,0-4.8,0-7.1,0c-0.4,0-0.6,0.1-0.5,0.5
	c0.1,3.7,0.3,7.4,0.4,11.1c0,1.5,0.1,2.9,0.1,4.4c0,0.5,0.2,0.6,0.6,0.6c2.2,0,4.5,0,6.7,0c0.4,0,0.5,0.1,0.5,0.5
	c0,1.3,0.1,2.6,0.2,3.9c0,0.3-0.1,0.4-0.4,0.4c-2.3,0-4.6,0-7,0c-0.4,0-0.5,0.1-0.5,0.5c0.1,4,0.3,8,0.4,12c0.1,2.6,0.2,5.2,0.3,7.8
	c0,0.3,0.1,0.4,0.4,0.4h8.1c0.2,0,0.4,0,0.4-0.3c0.3-3.1,0.5-6.2,0.8-9.2c0.3-3.7,0.7-7.3,1-11c0.3-2.9,0.5-5.9,0.8-8.8
	c0.3-3.2,0.6-6.4,0.9-9.7c0.2-2.3,0.4-4.6,0.6-6.8c0-0.5,0.1-0.7,0.7-0.7c2.1,0,4.2,0,6.4,0c0.4,0,0.5,0.1,0.5,0.4
	c1.2,5.6,2.4,11.2,3.6,16.8l4.2,19.2c1.1,4.9,2.1,9.8,3.2,14.7c0.1,0.3,0,0.3-0.3,0.3h-6.1c-0.3,0-0.3-0.1-0.4-0.3
	c-0.7-3.5-1.4-7-2.2-10.5c-0.3-1.2-0.5-2.4-0.7-3.6c-0.1-0.3-0.1-0.5-0.5-0.4c-1.7,0-3.3,0-5,0c-0.4,0-0.4,0.1-0.5,0.5
	c-0.3,4.7-0.7,9.4-1,14.1c0,0.3-0.1,0.4-0.5,0.4c-6.8,0-13.6,0-20.4,0c-0.4,0-0.4-0.1-0.5-0.5c-0.1-5.2-0.3-10.5-0.4-15.7
	C132.7,76.5,132.6,73.3,132.5,70.1L132.5,70.1z"/>
<path class="st1" d="M88.8,69.6c-0.2,5.5-0.4,10.9-0.6,16.4c-0.1,3.1-0.2,6.1-0.3,9.2c0,0.5-0.1,0.6-0.6,0.6c-1.9,0-3.8,0-5.7,0
	c-0.4,0-0.4-0.1-0.4-0.4c0.3-6.5,0.6-13,0.8-19.4c0.3-6.7,0.6-13.3,0.8-20c0.2-3.7,0.3-7.3,0.5-11c0-0.3,0.1-0.4,0.4-0.4
	c2.4,0,4.7,0,7.1,0c0.3,0,0.4,0.1,0.5,0.4c0.8,5,1.6,9.9,2.3,14.9c0.5,3.4,1.1,6.7,1.6,10.1c0,0.2,0.1,0.4,0.3,0.4
	c0-0.9,0-1.7,0-2.5c0.1-4,0.2-8,0.3-12.1c0.1-3.6,0.2-7.3,0.3-10.9c0-0.4,0.1-0.5,0.5-0.5c1.8,0,3.7,0,5.5,0c0.3,0,0.5,0,0.5,0.4
	c-0.1,2.9-0.1,5.8-0.2,8.7c-0.1,5.1-0.2,10.2-0.3,15.3c0,2.4-0.1,4.8-0.1,7.2c-0.1,5-0.2,10.1-0.3,15.1c0,1.4-0.1,2.9-0.1,4.3
	c0,0.3-0.1,0.4-0.4,0.4c-2.5,0-5,0-7.5,0c-0.4,0-0.4-0.1-0.5-0.4c-0.9-5.5-1.8-11.1-2.7-16.6c-0.5-3.1-1-6.2-1.5-9.3
	c-0.1-0.2-0.2-0.3-0.1-0.5C88.9,69.2,89,69.4,88.8,69.6z"/>
<path class="st1" d="M193.1,95.8h-3.1c-1.1,0-2.2,0-3.4,0c-0.3,0-0.6-0.1-0.6-0.4c-2.6-5.9-5.2-11.8-7.8-17.6c0-0.1-0.1-0.2-0.2-0.3
	c0.1,0.6,0.1,1.3,0.2,2c0.3,3.8,0.7,7.6,1,11.3c0.1,1.6,0.3,3.1,0.4,4.7c0,0.3,0,0.4-0.4,0.4c-2,0-4,0-5.9,0c-0.4,0-0.4-0.1-0.4-0.4
	c-0.4-5.2-0.9-10.5-1.3-15.7c-0.4-4.3-0.7-8.6-1.1-12.9c-0.4-4.7-0.8-9.5-1.2-14.2c-0.2-2.5-0.4-5-0.6-7.6c0-0.4,0-0.5,0.4-0.5
	c1.8,0,3.7,0,5.5,0c0.4,0,0.5,0.2,0.5,0.5c0.4,4.6,0.8,9.2,1.2,13.9c0,0.1,0,0.1,0.1,0.3c0.1-0.5,0.3-0.9,0.4-1.3
	c1.2-4.4,2.5-8.7,3.7-13.1c0-0.3,0.3-0.4,0.5-0.4c0,0,0,0,0.1,0c1.8,0,3.5,0,5.3,0c0.4,0,0.5,0.1,0.4,0.5c-1.7,5.9-3.3,11.9-5,17.8
	c-0.4,1.5-0.8,3-1.3,4.5c-0.1,0.3-0.1,0.7,0.1,1c4.1,9,8.3,18,12.4,27.1C192.9,95.5,193,95.6,193.1,95.8z"/>
<path class="st1" d="M190.6,78.9h1c1.6,0,3.2,0,4.8,0c0.4,0,0.5,0.1,0.5,0.5c0.4,3.3,0.8,6.6,1.1,9.9c0,1,0.8,1.9,1.8,1.9
	c0.9,0.2,1.8,0.1,2.7-0.1c0.6-0.1,0.8-0.4,0.8-1.1c0-1-0.2-2-0.3-2.9c-0.3-2.3-0.6-4.6-0.9-6.9c-0.3-2.1-1.2-4.1-2.6-5.7
	c-2.7-3.5-5.5-6.9-8.2-10.3c-1.6-1.9-2.7-4.2-3.1-6.7c-0.3-2-0.4-4-0.7-5.9c-0.2-0.9-0.2-1.9-0.1-2.9c0.4-1.8,1.8-3.3,3.6-3.8
	c3.3-1.1,6.8-1,10,0.3c1.8,0.7,3.1,2.5,3.2,4.4c0.4,3,0.8,6.1,1.2,9.1c0.1,0.6,0.1,0.6-0.5,0.6c-1.7,0-3.4,0-5.2,0
	c-0.3,0-0.5-0.1-0.5-0.4c-0.4-2.9-0.7-5.9-1.1-8.8c0-0.6-0.5-1.2-1.1-1.3c-0.7-0.2-1.3-0.2-2,0c-0.6,0-1,0.5-0.9,1.1
	c0,0.1,0,0.1,0,0.2c0.3,2.5,0.5,5,0.9,7.4c0.3,1.5,0.9,2.9,1.9,4c2.8,3.5,5.6,7,8.4,10.6c1.6,1.9,2.7,4.2,3.3,6.6
	c0.3,1.7,0.5,3.5,0.8,5.3s0.4,3.4,0.6,5.1c0.4,3.5-1,5.7-4.4,6.6c-2.8,0.7-5.7,0.7-8.5-0.1c-3.3-0.9-5-3-5.4-6.5
	S191,82.3,190.6,78.9z"/>
<path class="st1" d="M113,70.1c0-6.6,0-13.2,0-19.8c0-1.8,0-3.6,0-5.5c0-0.3,0-0.4,0.4-0.4c3.3,0,6.6,0,9.9,0.1
	c1.4,0,2.9,0.3,4.2,0.9c1.8,0.8,3,2.6,3,4.6c0.1,4.3,0.2,8.7,0.3,13c0,0.7,0.1,1.5,0,2.2c-0.1,2.1-1.4,3.9-3.4,4.6
	c-1.4,0.6-3,1-4.6,0.9c-1,0-2,0-2.9,0c-0.3,0-0.4,0.1-0.4,0.4c0,5.2,0.1,10.4,0.1,15.6c0,2.9,0,5.8,0,8.7c0,0.3-0.1,0.3-0.4,0.3
	c-2,0-4,0-6,0c-0.3,0-0.4-0.1-0.4-0.4c0-0.1,0-0.1,0-0.2C112.9,86.8,112.9,78.4,113,70.1L113,70.1z"/>
<path class="st1" d="M128.7,34.9h-4.3c-0.2,0-0.3-0.1-0.5-0.3l-20.4-18.5c-1.9-1.7-3.8-3.4-5.7-5.2c-3.7-3.3-9.2-3.1-12.8-1.1
	c-2.2,1.3-4.2,2.9-6,4.6L62.7,30l-4.9,4.6c-0.1,0.2-0.3,0.3-0.6,0.3h-4.2l2.3-2.2c4.7-4.4,9.4-8.9,14.1-13.3c3.3-3.1,6.5-6.3,10-9.3
	c2-1.9,4.3-3.2,6.9-4.1c5.3-1.4,10.1-0.5,14.2,3.3s8.5,7.7,12.7,11.6c0.3,0.3,0.4,0.2,0.6-0.1c3.3-3.2,6.6-6.5,10-9.7
	c2-2.1,4.5-3.8,7.2-4.9c5.3-1.8,10.2-1.3,14.5,2.5c6.8,5.9,13.6,11.8,20.4,17.7l9,7.8l0.6,0.6h-4.5c-0.2,0-0.3-0.1-0.4-0.3l-17.3-15
	c-3.3-2.9-6.6-5.8-10-8.7c-1.5-1.4-3.5-2.3-5.6-2.5c-2.8-0.3-5.7,0.4-8.1,1.9c-2.1,1.5-4.1,3.1-5.9,5c-2.5,2.5-5.1,4.9-7.6,7.4
	c-0.1,0.1-0.2,0.2-0.3,0.3c-0.2,0.2-0.2,0.3,0,0.5c1.4,1.3,2.8,2.5,4.2,3.8L128.7,34.9z"/>
<path class="st1" d="M70.3,70.2c0.3-5.4,0.7-10.8,1-16.2c0.2-3,0.4-6.1,0.5-9.1c0-0.3,0.1-0.4,0.4-0.4c1.9,0,3.8,0,5.7,0
	c0.3,0,0.4,0.1,0.4,0.4c-0.4,7.3-0.8,14.7-1.2,22.1c-0.4,6.9-0.8,13.9-1.2,20.8c-0.1,2.5-0.3,5-0.4,7.4c0,0.5-0.2,0.7-0.7,0.6
	c-1.9,0-3.8,0-5.6,0c-0.4,0-0.4-0.1-0.4-0.4c0.3-4.4,0.5-8.7,0.8-13.1C69.8,78.3,70,74.2,70.3,70.2L70.3,70.2z"/>
<path class="st1" d="M102.1,22.8c-0.2,1-0.4,1.9-0.7,2.8c-0.2,0.6-0.6,1.2-1,1.7c-0.6,0.8-1.8,0.9-2.6,0.3c-0.7-0.5-1.4-1.2-1.8-1.9
	c-1.1-1.7-2.1-3.5-2.8-5.4c-0.1-0.2-0.1-0.3-0.3-0.4c-0.4,1.5-0.9,2.9-1.6,4.3c-0.4,0.7-0.8,1.4-1.4,2c-0.8,0.9-2.1,1-3,0.2
	c-0.2-0.1-0.3-0.3-0.4-0.5c-0.6-0.9-1-1.9-1.1-3c-0.2-1-0.3-2-0.2-3c-0.5,0.7-1.1,1.5-1.8,2.1c-0.9,1.1-2.1,1.9-3.5,2.3
	c-0.4,0.1-0.9,0.1-1.3,0.1c-0.7,0-1.1-0.6-1.1-1.3c0-0.7,0.1-1.3,0.4-1.9c2-4.4,5.4-7.9,9.8-9.9c3.3-1.5,6.5-0.8,9.3,1.3
	c2.1,1.6,4,3.4,5.8,5.3c3.2,3.2,6.3,6.4,9.5,9.6c0.3,0.2,0.5,0.5,0.6,0.8c0.1,0.2,0.1,0.4-0.3,0.4c-0.4,0-0.9-0.1-1.3-0.3
	c-2.1-0.9-4.1-2-5.9-3.3C104.3,24.5,103.1,23.6,102.1,22.8z"/>
<path class="st1" d="M145.6,20.8c0,1.4-0.3,2.7-0.9,4c-0.2,0.5-0.5,0.9-0.8,1.3c-1,1-2.6,1.1-3.6,0.1c-1.2-0.9-2.1-2.1-2.9-3.3
	c-0.5-0.9-1-1.8-1.5-2.8c-0.3,1.4-0.8,2.8-1.4,4.2c-0.4,0.9-0.9,1.7-1.7,2.4c-0.9,0.8-2.2,0.8-3.1-0.1c-0.2-0.3-0.4-0.6-0.5-0.9
	c-0.4-1.2-0.4-2.5-0.2-3.8c0.1-0.3,0.1-0.7,0.1-1.1c-0.3,0-0.4,0.2-0.5,0.4c-0.9,0.9-1.9,1.7-2.9,2.4c-0.4,0.2-0.8,0.4-1.2,0.6
	c-1,0.3-1.5-0.1-1.6-1.1c0-0.7,0.2-1.4,0.5-2c1.2-2.5,2.9-4.7,4.9-6.5c1.3-1.2,2.7-2.2,4.3-3c2.4-1.2,5.2-1.2,7.6,0
	c1.8,0.9,3.4,2.2,4.8,3.6c3.6,3.4,7,7,10.5,10.5c0.4,0.4,0.7,0.8,0.9,1.2c0.2,0.4,0.1,0.7-0.4,0.6c-0.8-0.1-1.6-0.3-2.4-0.7
	c-2.3-1.3-4.5-2.8-6.4-4.6C146.8,21.9,146.2,21.3,145.6,20.8z"/>
<path class="st2" d="M88.8,69.6v-0.7c0.1,0.2,0.2,0.4,0.2,0.6C88.9,69.5,88.9,69.6,88.8,69.6z"/>
<path class="st3" d="M43.4,71c0.1,0.2-0.1,0.3-0.1,0.4c-0.1-0.2-0.1-0.5,0-0.7C43.4,70.8,43.3,71,43.4,71z"/>
<path class="st4" d="M112.1,119.3H6.8c-0.9,0-0.9,0-0.8-0.9c0.7-4.8,1.3-9.5,2-14.3c0.1-1,0.1-1,1.2-1h205.8c1.1,0,1,0,1.2,1
	c0.7,4.6,1.3,9.2,1.9,13.8c0.1,0.4,0.1,0.7,0.1,1.1s0,0.3-0.3,0.3s-0.4,0-0.7,0L112.1,119.3z"/>
<path class="st0" d="M157.1,54.4l1.6,9.3c0.7,3.9,1.3,7.9,2,11.8c0.1,0.3,0.1,0.4-0.3,0.4c-1.3,0-2.6,0-4,0c-0.3,0-0.4-0.1-0.4-0.4
	c0.2-4.2,0.4-8.5,0.6-12.7c0.1-2.7,0.3-5.4,0.4-8.1c0-0.1,0-0.2,0-0.3L157.1,54.4z"/>
<path class="st0" d="M119.4,57.6c0-2.7,0-5.4,0-8c0-0.4,0.1-0.5,0.5-0.5c1,0,1.9,0,2.9,0.2c0.7,0,1.2,0.6,1.2,1.3c0,0,0,0.1,0,0.1
	c0.1,2.8,0.1,5.5,0.1,8.3c0,1.9,0.1,3.7,0.1,5.6c0.1,0.7-0.3,1.4-1,1.5c0,0-0.1,0-0.1,0c-1.1,0.2-2.2,0.3-3.4,0.2
	c-0.3,0-0.2-0.3-0.2-0.4c0-1.3,0-2.6,0-3.9c0-1.4,0-2.9,0-4.3L119.4,57.6z"/>
<path class="st1" d="M199.8,110.4c-0.4,1-0.7,2-1,3.1c-0.2,0.6-0.4,1.2-0.5,1.8c-0.1,0.2-0.2,0.3-0.4,0.3h-0.1c-1.2,0-1.2,0-1.7-1.1
	c-0.9-2.3-1.9-4.6-3-6.8c-0.1-0.3-0.1-0.4,0.1-0.5c0.4-0.2,0.9-0.4,1.3-0.5c0.3-0.1,0.3,0.2,0.4,0.3c0.7,1.6,1.4,3.1,2,4.7
	c0,0.1,0.1,0.2,0.2,0.4c0.4-0.9,0.7-1.8,0.9-2.7c0.2-0.6,0.4-1.3,0.5-1.9c0.1-0.3,0.2-0.3,0.5-0.4c1.3,0,1.3,0,1.7,1.1
	s1.2,2.5,1.7,3.9c0.4-1,0.7-2,0.9-3c0.1-0.7,0.3-1.3,0.4-2c0.1-0.4,0.2-0.5,0.6-0.3c0.3,0.1,0.7,0.3,1.1,0.4
	c0.3,0.1,0.4,0.2,0.3,0.5c-0.7,2.6-1.4,5.1-1.9,7.8c0,0.1,0,0.1,0,0.1c-0.5,0.2-1,0-1.4,0.1c-0.2,0-0.3-0.1-0.3-0.3
	C201.4,113.7,200.5,112.1,199.8,110.4z"/>
<path class="st1" d="M150.2,110.2c0,0.8,0,1.5,0,2.2c0,0.9,0.1,1.9,0.1,2.8c0,0.4-0.1,0.5-0.5,0.5s-1.1,0.1-1.3-0.1
	s-0.1-0.9-0.1-1.3c-0.1-2.1-0.1-4.3-0.2-6.4c-0.1-0.3,0.1-0.6,0.4-0.6c1-0.4,1-0.5,1.8,0.4c1.1,1.3,2.2,2.6,3.3,3.9l0.4,0.4
	c0.1-0.9,0.1-1.8,0-2.6c-0.1-0.7-0.1-1.4-0.1-2.1c0-0.2,0-0.3,0.3-0.3c0.5,0,1.1-0.2,1.4,0.1s0.1,0.9,0.1,1.4
	c0.1,2.1,0.2,4.2,0.3,6.3c0,0.5-0.8,1.2-1.3,1.1c-0.1,0-0.2-0.2-0.4-0.3c-1.3-1.4-2.4-2.9-3.6-4.3
	C150.8,110.8,150.6,110.5,150.2,110.2z"/>
<path class="st1" d="M85.7,110.2c-0.2,1.6-0.1,3.2-0.2,4.7c0,0.7,0,0.7-0.7,0.7c-1.3,0-1.2,0-1.2-1.3c0.1-2.2,0.2-4.4,0.3-6.5
	c0-0.4,0.1-0.5,0.4-0.6c0.1,0,0.2-0.1,0.3-0.1c0.5-0.4,0.8-0.2,1.2,0.3c1.1,1.2,1.9,2.5,2.9,3.8c0.2,0.3,0.5,0.6,0.8,1
	c0-1.6,0.1-3.1,0.1-4.6c0-0.4,0.1-0.6,0.6-0.6c1.3,0,1.3,0,1.3,1.3c-0.1,2.2-0.2,4.4-0.2,6.6c0,0.3-0.1,0.5-0.4,0.5
	c-0.1,0-0.1,0-0.2,0.1c-0.9,0.4-0.9,0.4-1.5-0.4c-0.9-1.2-1.8-2.4-2.7-3.6C86.3,110.9,86,110.6,85.7,110.2z"/>
<path class="st1" d="M63,115.7c-1.5,0-1.4,0-1.3-1.4c0.2-1.9,0.3-3.8,0.4-5.6c0-0.5,0.1-1,0.2-1.5c0-0.2,0.1-0.3,0.3-0.3
	c1.4-0.1,2.8,0.1,4.1,0.5c1.5,0.3,2.5,1.5,2.7,3c0.3,1.7-0.5,3.5-2,4.3C66.1,115.3,64.5,115.7,63,115.7z"/>
<path class="st1" d="M73.2,111.8c-0.2,0.5-0.2,1-0.2,1.5c0,0.6,0,1.3,0,2c0,0.3-0.1,0.5-0.5,0.4c-0.1,0-0.1,0-0.2,0
	c-1.3,0-1.3,0-1.3-1.3c0.1-2.4,0.3-4.7,0.4-7.1c0-0.3,0.1-0.4,0.4-0.4c1.1-0.1,2.2,0,3.2,0.2c2.4,0.6,2.5,2.8,1.2,4.2
	c-0.5,0.5-0.5,0.6,0,1.1s1.2,1.3,1.8,2c0.2,0.1,0.2,0.4,0.1,0.6c0,0-0.1,0.1-0.1,0.1l-0.6,0.5c-0.6,0.5-0.6,0.5-1.1-0.1
	C75.3,114.2,74.3,113,73.2,111.8z"/>
<path class="st1" d="M95.6,112.5c0,0.9,0,1.7,0,2.6c0,0.4-0.2,0.6-0.6,0.6s-1,0.2-1.2-0.1s-0.1-0.8-0.1-1.2c0.1-2.4,0.1-4.7,0.2-7.1
	c0-0.3,0.1-0.4,0.4-0.4c0.5,0,1.1-0.2,1.4,0.1s0.1,0.9,0.1,1.4c0,0.6,0,1.3,0,1.9c0.7-0.6,1.4-1.2,2-1.9c0.5-0.5,0.9-0.9,1.3-1.4
	c0.2-0.3,0.4-0.2,0.6,0s0.6,0.5,0.8,0.8s0,0.3-0.1,0.4c-0.8,1-1.8,1.9-2.8,2.8c-0.3,0.3-0.3,0.4,0,0.7c1,0.9,1.9,1.9,3,2.7
	c0.2,0.1,0.2,0.3,0,0.4l-0.1,0.1c-1.4,1.4-0.8,1.3-2.2,0.1c-0.7-0.6-1.3-1.2-1.9-1.8C96.3,112.9,96,112.7,95.6,112.5L95.6,112.5z"/>
<path class="st1" d="M16,115.6c-0.9,0-1.8,0-2.6,0c-0.3,0-0.3-0.1-0.3-0.4c0.4-2.6,0.7-5.2,1-7.9c0-0.4,0.1-0.5,0.5-0.5
	c1.7,0,3.3,0,5,0c0.3,0,0.5,0,0.3,0.4s0,1-0.2,1.2s-0.9,0.1-1.3,0.1c-0.7,0-1.3,0-2,0c-0.4,0-0.6,0.1-0.6,0.5
	c-0.1,1.1-0.4,1.1,0.9,1.1c0.8,0,1.7,0,2.5,0c0.3,0,0.4,0.1,0.4,0.4s0,1-0.2,1.2s-0.8,0-1.2,0c-0.8,0-1.5,0-2.3,0
	c-0.2,0-0.3,0-0.4,0.2c-0.1,0.5-0.2,1-0.2,1.5c0,0.2,0.2,0.2,0.4,0.2c0.9,0.1,1.9,0.1,2.8,0.1h0.1c0.7,0,0.7,0,0.6,0.7
	c0,0.4,0.1,0.9-0.2,1.1s-0.7,0.1-1.1,0.1H16z"/>
<path class="st1" d="M140.6,111.3c-0.1-1.3-0.1-2.6-0.2-4c0-0.3,0.1-0.4,0.4-0.4c1.7,0,3.4,0,5.1,0c0.3,0,0.4,0.1,0.4,0.4
	c0.1,1.3,0.1,1.3-1.1,1.3c-0.8,0-1.6,0-2.3,0c-0.4,0-0.4,0.1-0.5,0.4c-0.1,1.1,0,1.2,1,1.2c0.9,0,1.8,0,2.6,0c0.3,0,0.4,0.1,0.4,0.4
	s0.1,1-0.1,1.3s-0.8,0-1.2,0c-0.7,0-1.5,0-2.2,0c-0.3,0-0.4,0.1-0.4,0.4c0,0.4,0,0.9,0,1.3s0.2,0.2,0.4,0.2c1.1,0,2.1,0,3.2,0
	c0.4,0,0.6,0.2,0.6,0.6c0,1.2,0,1.2-1.2,1.2c-1.5,0-2.9,0-4.4,0c-0.4,0-0.5-0.1-0.5-0.4C140.6,113.8,140.6,112.5,140.6,111.3
	L140.6,111.3z"/>
<path class="st1" d="M189.9,115.6c-0.8,0-1.6,0-2.5,0c-0.3,0-0.5,0-0.5-0.4c-0.2-2.6-0.4-5.3-0.7-8c0-0.3,0.1-0.3,0.3-0.3h5.2
	c0.1,0,0.2,0,0.3,0.1c0.1,0.5,0.1,1,0.1,1.5c-0.1,0.1-0.3,0.1-0.4,0.1c-1,0-2.1,0-3.1,0c-0.4,0-0.4,0.1-0.4,0.4
	c0.1,1.2,0.1,1.2,1.3,1.2c0.8,0,1.6,0,2.4,0c0.4,0,0.5,0.1,0.5,0.5c0,0.3,0,0.7,0.1,1c0,0.3-0.1,0.4-0.4,0.3c-1-0.1-2.1-0.1-3.1-0.1
	c-0.3,0-0.4,0.1-0.4,0.4c0,1.5,0,1.5,1.5,1.5c0.8,0,1.5,0,2.3,0c0.3,0,0.4,0.1,0.4,0.4c0.2,1.4,0.2,1.4-1.2,1.4L189.9,115.6z"/>
<path class="st1" d="M25.2,106.7c0.5-0.1,0.6,0.2,0.8,0.6c0.8,2.4,1.6,4.8,2.5,7.1c0.2,0.4,0.1,0.6-0.3,0.8s-0.9,0.4-1.3,0.6
	c-0.2,0.1-0.2,0-0.3-0.1c-0.2-0.9-0.6-1.7-0.8-2.5c0-0.2-0.2-0.4-0.4-0.4c0,0,0,0,0,0c-0.7,0-1.3,0-2,0c-0.2,0-0.5,0.1-0.6,0.3
	c-0.5,0.8-1,1.6-1.4,2.5c-0.1,0.3-0.3,0.3-0.5,0.2s-0.7-0.4-1.1-0.6c-0.2-0.1-0.1-0.2,0-0.3c1.5-2.5,2.8-5.2,4.5-7.6
	C24.5,106.7,24.5,106.7,25.2,106.7z"/>
<path class="st1" d="M177,112.7c0.8-1.9,1.4-3.7,2.1-5.5c0.2-0.6,0.3-0.6,0.9-0.3c1.1,0.5,1.1,0.5,0.7,1.7c-0.9,2.3-1.8,4.5-2.7,6.8
	c-0.1,0.3-0.4,0.5-0.7,0.5c-0.6,0.1-1.3-0.3-1.4-0.9c-1.1-2.3-2.3-4.6-3.6-6.8c-0.2-0.4-0.1-0.6,0.2-0.8l0.1-0.1
	c1.1-0.7,1.2-0.6,1.7,0.5c0.8,1.6,1.6,3.1,2.4,4.6C176.8,112.3,176.9,112.5,177,112.7z"/>
<path class="st1" d="M210.5,106.8c1.4,0.1,1-0.3,1.4,1.2c0,0.1,0,0.2,0.1,0.3c0.1,0.3,0,0.4-0.3,0.3c-0.6-0.1-1.2-0.2-1.7-0.1h-0.3
	c-0.3,0.1-0.7,0.2-0.8,0.5s0.2,0.5,0.4,0.7c0.5,0.4,1,0.7,1.6,1c1,0.4,1.7,1.4,1.7,2.4c0,0.7-0.3,1.4-0.9,1.8
	c-1.3,0.8-2.8,1.1-4.3,0.7c-0.1,0-0.2-0.1-0.2-0.2c0,0,0,0,0,0c0-0.4-0.1-0.8-0.2-1.2c-0.1-0.4,0.1-0.5,0.4-0.4
	c0.7,0.2,1.5,0.2,2.3,0.1c0.4-0.1,0.7-0.2,0.8-0.7s-0.2-0.7-0.6-0.9s-0.9-0.3-1.3-0.5c-1.3-0.5-2-1.8-1.9-3.2
	c0.2-0.9,0.9-1.5,1.8-1.6C209.2,106.9,209.9,106.8,210.5,106.8z"/>
<path class="st1" d="M101.2,114.7c-0.1-1-0.1-1,0.9-0.9c0.6,0.1,1.2,0.1,1.8,0c0.4-0.1,0.8-0.3,0.9-0.7s-0.3-0.7-0.7-0.9
	s-1-0.4-1.4-0.7c-1.1-0.5-1.7-1.8-1.1-3c0.1-0.3,0.3-0.6,0.6-0.8c1.1-1,2.6-1.4,4.1-1c0.2,0,0.3,0.2,0.3,0.4c0,0.4,0.1,0.9,0.1,1.3
	s-0.1,0.3-0.3,0.3c-0.6-0.1-1.2-0.2-1.8-0.1c-0.2,0-0.3,0.1-0.4,0.1c-0.6,0.3-0.7,0.5-0.2,1c0.5,0.5,1.1,0.8,1.8,1.1
	c0.9,0.4,1.4,1.4,1.2,2.4c-0.1,0.6-0.4,1.1-0.8,1.4c-1.3,1-3,1.3-4.5,1c-0.2,0-0.3-0.1-0.2-0.3S101.2,114.9,101.2,114.7z"/>
<path class="st1" d="M37.9,115.7c-1.5,0-1.5,0-1.5-1.3c0-0.6,0-0.6,0.7-0.6c0.7,0.1,1.5,0.1,2.2,0c0.4-0.1,0.8-0.3,0.8-0.7
	s-0.2-0.7-0.6-0.9s-0.8-0.4-1.2-0.6c-1.1-0.4-1.7-1.7-1.3-2.8c0.1-0.4,0.4-0.7,0.7-1c1.2-1,2.8-1.4,4.3-1.1c0.2,0,0.3,0.2,0.3,0.4
	c0,0.4,0,0.8,0,1.1s-0.1,0.5-0.5,0.4c-0.7-0.2-1.3-0.2-2-0.1c-0.4,0.1-0.7,0.2-0.8,0.6c-0.1,0.4,0.1,0.7,0.5,0.8
	c0.4,0.2,0.8,0.4,1.2,0.6c0.9,0.3,1.5,1.1,1.4,2.1c0.1,0.9-0.4,1.8-1.2,2.3C40,115.5,39,115.8,37.9,115.7z"/>
<path class="st1" d="M129.8,106.8c1.1,0,1.1,0,1.2,0.9s0.1,0.9-0.8,0.9c-0.5-0.1-1-0.1-1.5,0c-0.3,0.1-0.6,0.2-0.7,0.6
	c-0.1,0.3,0.2,0.6,0.4,0.8c0.5,0.3,1.1,0.6,1.6,0.9c1.2,0.5,1.7,1.8,1.2,3c-0.2,0.4-0.4,0.7-0.8,1c-1.2,1-2.8,1.3-4.3,0.9
	c-0.1,0-0.2,0-0.2-0.2c0-0.5-0.1-0.9-0.1-1.4c0-0.3,0.1-0.4,0.4-0.3c0.7,0.2,1.5,0.2,2.2,0.1c0.2,0,0.3-0.1,0.5-0.1
	c0.7-0.3,0.8-0.8,0.2-1.2c-0.3-0.2-0.6-0.4-0.9-0.6l-1.2-0.7c-0.8-0.4-1.2-1.3-1-2.1c0-0.9,0.6-1.7,1.4-2
	C128.1,106.9,129,106.8,129.8,106.8z"/>
<path class="st1" d="M168.1,113.9c1,0,1,0,0.9,1c0,0.8,0,0.8-0.9,0.8c-1.8,0.1-3.6-0.6-4.9-1.8c-1.6-1.5-1.8-5.4,1.3-6.5
	c1.2-0.4,2.4-0.6,3.6-0.6c0.2,0,0.3,0.1,0.3,0.3c0,0.5,0.3,1,0.1,1.4s-0.8,0.1-1.2,0.2c-0.6,0.1-1.2,0.2-1.8,0.4
	c-1.2,0.4-1.8,1.7-1.3,2.9c0.1,0.4,0.4,0.7,0.7,1C165.9,113.6,167,114,168.1,113.9z"/>
<path class="st1" d="M138.3,113.9c1.1,0,1.1,0,0.9,1c-0.1,0.8-0.1,0.8-0.9,0.8c-1.3,0-2.6-0.3-3.8-1c-1.9-1.1-2.7-3.5-1.6-5.4
	c0.3-0.6,0.8-1.1,1.4-1.5c1.2-0.7,2.7-1.1,4.1-1c0.3,0,0.4,0.1,0.4,0.4c0,0.3,0,0.6,0.1,0.9c0.1,0.3,0,0.5-0.4,0.5
	c-0.8,0-1.7,0.1-2.4,0.4c-1,0.3-1.7,1.1-1.7,2.2c0,1,0.6,1.9,1.5,2.3C136.7,113.7,137.5,113.9,138.3,113.9z"/>
<path class="st1" d="M32.9,106.9c1.1,0,2.3,0,3.4,0c0.4,0,0.5,0.1,0.4,0.5c-0.1,0.3-0.1,0.5-0.1,0.8c0,0.4-0.2,0.4-0.5,0.4
	c-0.6,0-1.2,0-1.9,0c-0.4,0-0.5,0.1-0.6,0.5c-0.3,1.6-0.4,3.3-0.5,4.9c0,0,0,0,0,0.1c-0.1,1.6-0.1,1.6-1.7,1.6
	c-0.3,0-0.4-0.1-0.3-0.4c0.1-1.2,0.2-2.4,0.4-3.6c0.1-0.9,0.2-1.8,0.3-2.8c0-0.2,0-0.3-0.2-0.3c-0.8-0.1-1.5-0.1-2.3,0
	c-0.3,0.1-0.4-0.1-0.4-0.3c0-0.4,0.1-0.8,0.1-1.2c0-0.3,0.2-0.2,0.3-0.2L32.9,106.9z"/>
<path class="st1" d="M159.5,115.6c-0.9,0-0.9,0-1-0.9c-0.1-2.4-0.2-4.9-0.4-7.4c0-0.4,0.1-0.5,0.5-0.5c0.3,0,0.7,0,1,0
	c0.4,0,0.5,0.1,0.6,0.5c0.1,2.5,0.2,5,0.3,7.5c0,0.7,0,0.7-0.7,0.7L159.5,115.6z"/>
<path class="st1" d="M183.6,115.6c-0.9,0-0.9,0-1-0.9c-0.2-2.4-0.4-4.9-0.6-7.3c0-0.4,0-0.6,0.5-0.5s1-0.2,1.3,0.1s0.1,0.8,0.2,1.2
	c0.2,2.4,0.4,4.7,0.6,7.1c0,0.3-0.1,0.4-0.4,0.4S183.8,115.6,183.6,115.6z"/>
<path class="st1" d="M81.4,109c-0.1,2.1-0.2,4.2-0.2,6.3c0,0.3-0.1,0.4-0.4,0.4s-0.5,0-0.8,0c-0.8,0-0.8,0-0.8-0.8
	c0.1-2.5,0.2-5,0.3-7.5c0-0.4,0.1-0.5,0.5-0.4s1.1-0.2,1.3,0.1s0.1,0.9,0.1,1.3C81.5,108.5,81.5,108.7,81.4,109L81.4,109z"/>
<path class="st1" d="M52,108.1l0.3,0.4c0.7,0.8,1.1,1.7,1.7,2.5c0.1,0.1,0.1,0.2,0,0.3c-0.6,1-1.3,1.9-2.2,2.8
	c-0.2,0.2-0.3,0.2-0.5-0.1c-0.4-0.8-0.9-1.6-1.5-2.4c-0.2-0.2-0.2-0.5,0-0.6c0.6-1,1.4-1.8,2.1-2.7C51.9,108.3,52,108.2,52,108.1z"
	/>
<path class="st1" d="M116.6,108.2c0.5,0.4,0.8,0.8,1.1,1.3c0.2,0.3,0.4,0.7,0.7,1c0.6,0.8,0.6,0.8,0,1.6c-0.5,0.8-1.1,1.6-1.8,2.3
	c-0.6-0.9-1.3-1.9-1.9-2.8c-0.1-0.2-0.1-0.4,0-0.6C115.3,110,116,109.2,116.6,108.2z"/>
<path class="st5" d="M64.1,113.9c-0.4,0.1-0.5-0.1-0.5-0.6c0.1-1.4,0.2-2.8,0.2-4.2c0-0.5,0.2-0.6,0.6-0.5c0.7,0,1.4,0.3,2,0.7
	c1.1,0.9,1.2,2.5,0.2,3.6c-0.3,0.3-0.6,0.5-0.9,0.7C65.3,113.8,64.7,113.9,64.1,113.9z"/>
<path class="st6" d="M73.1,110.4c0-0.4,0.1-1,0.2-1.6c0-0.1,0-0.2,0.1-0.2c0.4-0.1,0.8,0,1.2,0.2c0.3,0.2,0.5,0.6,0.3,1
	c-0.1,0.6-0.6,1.1-1.2,1.3C73.1,111.2,73.1,111.1,73.1,110.4z"/>
<path class="st7" d="M24.6,109.8c0.2,0.4,0.4,0.8,0.4,1.2c0,0-0.1,0.1-0.1,0c-0.3,0-0.8,0.1-0.9-0.1s0.2-0.6,0.4-0.9
	C24.5,109.9,24.6,109.9,24.6,109.8z"/>
</svg>
