<svg id="svg" xmlns="http://www.w3.org/2000/svg" viewBox="0 0 250 250"><defs><style>.cls-1{fill:#3953a4;}.cls-2,.cls-4{fill:#fff;}.cls-3{fill:#ed2024;}.cls-4{stroke:#3953a4;stroke-miterlimit:10;}</style></defs><title>Uni Mart</title><ellipse class="cls-1" cx="125" cy="125" rx="120" ry="40.9"/><ellipse class="cls-2" cx="125" cy="125" rx="116" ry="36.6"/><ellipse class="cls-3" cx="125" cy="125" rx="113.4" ry="34.5"/><path class="cls-4" d="M46.8,140.3a18.77,18.77,0,0,1-5.1-.6,7.46,7.46,0,0,1-3.3-1.8,6.38,6.38,0,0,1-1.7-3,16.66,16.66,0,0,1-.5-4.2v-21h8.5V132a3.75,3.75,0,0,0,.1,1.1,2.24,2.24,0,0,0,.3,1,1.56,1.56,0,0,0,.6.8,2.13,2.13,0,0,0,1.2.3,2.38,2.38,0,0,0,1.2-.3,1.56,1.56,0,0,0,.6-.8,3.55,3.55,0,0,0,.2-1c0-.3.1-.6.1-1.1V109.7h8.5v21.1A17.27,17.27,0,0,1,57,135a6.91,6.91,0,0,1-1.7,3,7.46,7.46,0,0,1-3.3,1.8A26.2,26.2,0,0,1,46.8,140.3Z"/><path class="cls-4" d="M61.8,139.9V118.3h7.7v2.2a9.38,9.38,0,0,1,6-2.6,4.9,4.9,0,0,1,3.6,1.4,5.32,5.32,0,0,1,1.3,3.8V140H72.7V124a1.8,1.8,0,0,0-.3-1.1,1.22,1.22,0,0,0-.9-.3,5.19,5.19,0,0,0-1.9.6V140C67,139.9,64.4,139.9,61.8,139.9Z"/><path class="cls-4" d="M84.4,114.5v-4.3h7.7v4.3C89.5,114.4,87,114.5,84.4,114.5Zm0,25.5V118.3h7.7v21.8C89.5,140,87,140,84.4,140Z"/><path class="cls-4" d="M97.1,128.3v-4.2h11.6v4.2Z"/><path class="cls-4" d="M113.9,140.1l.6-30.6h9.3c1.1,5.3,2.1,10.5,3.2,15.8,1.2-5.3,2.3-10.5,3.5-15.8h8.9c.2,10.3.4,20.5.6,30.8h-5.9c-.2-6.7-.4-13.3-.7-20-1.2,6.7-2.4,13.3-3.5,19.9h-5.4c-1.3-6.7-2.6-13.4-3.8-20.1l-.6,20.1C117.9,140.1,115.9,140.1,113.9,140.1Z"/><path class="cls-4" d="M149.8,140.6a6.69,6.69,0,0,1-2.6-.5,5.33,5.33,0,0,1-1.9-1.3,4.52,4.52,0,0,1-1.1-1.7,4.33,4.33,0,0,1-.4-1.9,6.45,6.45,0,0,1,.3-2,6,6,0,0,1,.8-1.6,4,4,0,0,1,1.3-1.3,6.53,6.53,0,0,1,1.5-1,13.76,13.76,0,0,1,1.7-.8c.7-.3,1.2-.5,1.7-.7s1-.3,1.7-.6,1.1-.4,1.4-.5v-2.4c0-.9-.4-1.4-1.2-1.4a1,1,0,0,0-.9.4,1.49,1.49,0,0,0-.3,1,11,11,0,0,0-.2,1.8l-7.1-.3v-.7a7.41,7.41,0,0,1,2.6-5.5q2.25-1.8,6.6-1.8a8.47,8.47,0,0,1,5.7,1.8,6.19,6.19,0,0,1,2,4.7v10.4a12.75,12.75,0,0,0,.1,2c0,.7.1,1.2.1,1.5a10.51,10.51,0,0,0,.2,1.3,4.53,4.53,0,0,1,.1.8h-6.8c-.4-2-.6-3-.6-3.1a5.34,5.34,0,0,1-1.7,2.5A5.07,5.07,0,0,1,149.8,140.6Zm2.6-4.4a2.23,2.23,0,0,0,1.7-.9v-6a5.32,5.32,0,0,0-2.6,2.1,5,5,0,0,0-1,2.6,2.54,2.54,0,0,0,.5,1.6A2.16,2.16,0,0,0,152.4,136.2Z"/><path class="cls-4" d="M165.6,140.3V118.2h7.7v3.9c1.5-2.7,3.1-4.1,4.8-4.1a5.16,5.16,0,0,1,1.1.2v5.7h-.6a6.81,6.81,0,0,0-5.2,2.9v13.6C170.7,140.3,168.1,140.3,165.6,140.3Z"/><path class="cls-4" d="M189.2,140.6a8.52,8.52,0,0,1-2.3-.4,6.69,6.69,0,0,1-1.7-.7,6.28,6.28,0,0,1-1.2-1.1,10,10,0,0,1-.8-1.4,7.09,7.09,0,0,1-.4-1.7,11,11,0,0,1-.2-1.8v-11h-2.3V118h2.3v-6.8h7.8v6.9h3.4v4.5h-3.4v10.7a1.43,1.43,0,0,0,.6,1.2,3.36,3.36,0,0,0,1.6.5h.9a5.64,5.64,0,0,0,.7-.1.44.44,0,0,0,.3-.1v5.5a32.76,32.76,0,0,1-4.3.4A3.4,3.4,0,0,0,189.2,140.6Z"/><path class="cls-4" d="M205.5,140.8a11.06,11.06,0,0,1-5.4-1.2,10.52,10.52,0,0,1-3.8-4.2c1.7-.7,3.4-1.4,5.1-2.2a8.39,8.39,0,0,0,1.9,2.2,3.59,3.59,0,0,0,1.8.8h.2a1.23,1.23,0,0,0,.8-.4,1.14,1.14,0,0,0,.3-.8,1.42,1.42,0,0,0-.2-.6l-.7-.7c-.3-.3-.6-.5-.8-.7s-.6-.5-1.1-.8a9.82,9.82,0,0,0-1-.7,7.63,7.63,0,0,0-1.1-.8,20.15,20.15,0,0,1-3.3-3.2,5.6,5.6,0,0,1-1.3-3.4,5.43,5.43,0,0,1,2.4-4.5,9.14,9.14,0,0,1,5.6-1.8,10,10,0,0,1,5.3,1.4,8.91,8.91,0,0,1,3.2,4.3c-1.6.7-3.3,1.4-4.9,2.2a6.25,6.25,0,0,0-1.3-2,2.76,2.76,0,0,0-1.8-1c-.5,0-.8,0-1.1.3a.87.87,0,0,0-.4.7,1.08,1.08,0,0,0,.2.7,4.37,4.37,0,0,0,.7.8,6.47,6.47,0,0,0,.9.8c.3.2.6.5,1.2.9s.9.7,1.2.9a8.65,8.65,0,0,0,1,.7c.1.1.2.1.3.2.6.4,1,.8,1.3,1a10,10,0,0,1,1.2,1.1c.5.5.8.9,1.1,1.2a5.17,5.17,0,0,1,.6,1.3,4.15,4.15,0,0,1,.3,1.6,4.62,4.62,0,0,1-.7,2.6,5.75,5.75,0,0,1-1.9,1.9,12.27,12.27,0,0,1-2.6,1.2C207.6,140.7,206.6,140.8,205.5,140.8Z"/></svg>