<?xml version="1.0" encoding="utf-8"?>
<!-- Generator: Adobe Illustrator 21.1.0, SVG Export Plug-In . SVG Version: 6.00 Build 0)  -->
<svg version="1.1" id="Layer_1" xmlns="http://www.w3.org/2000/svg" xmlns:xlink="http://www.w3.org/1999/xlink" x="0px" y="0px"
	 viewBox="0 0 151 87.3" style="enable-background:new 0 0 151 87.3;" xml:space="preserve">
<style type="text/css">
	.st0{fill:#F58939;}
	.st1{fill:#EC194C;}
	.st2{fill:#6B2380;}
	.st3{fill:#FEFCFB;}
	.st4{fill:#FEFAFB;}
</style>
<title>CR</title>
<path class="st0" d="M0.5,30.6c0-7.3-0.1-14.5,0-21.8c0.2-4.5,3.8-8.2,8.4-8.3h132.6c4.9-0.1,8.9,3.8,9,8.6c0,0.1,0,0.3,0,0.4
	c0,7,0,14,0,21c-0.4,0-0.8,0.1-1.1,0.1L0.5,30.6L0.5,30.6z M25.8,16c0,1.1,0,2.2,0,3.3c0,0.8-0.2,1.6-0.6,2.2
	c-1.1,1.5-2.6,1.6-4.2,1.4c-1.5-0.2-2.6-1.4-2.8-2.8c-0.3-2.6-0.4-5.2-0.2-7.8c0-0.7,0.5-1.3,1.2-1.6c0.6-0.2,0.9-1,0.7-1.6
	c-0.1-0.3-0.3-0.5-0.6-0.6c-0.2-0.1-0.4-0.2-0.7-0.3c-2.5-0.7-5.1-0.7-7.6,0c-1.6,0.4-1.8,1.5-0.5,2.6c0.6,0.5,1,1.3,0.9,2.1
	c0,2.3,0,4.5,0,6.8c-0.1,3.1,2,5.9,5,6.7c2.1,0.6,4.3,0.7,6.4,0.4c4.8-0.8,6.8-3.2,6.8-8c0-2,0-4.1,0-6.1c-0.1-1,0.4-2,1.3-2.4
	c0.9-0.4,0.8-1.4,0-1.9c-0.5-0.3-1.1-0.5-1.7-0.5c-1.6-0.2-3.1-0.1-4.7,0.3c-0.6,0.1-1,0.6-1,1.2c0,0.6,0.4,0.9,0.9,1.1
	c0.9,0.3,1.4,1.2,1.3,2.2C25.8,13.7,25.8,14.9,25.8,16z M105.1,15.8c0-2.1,0-4.2,0-6.3c0-1.2-0.4-1.6-1.3-1.5
	c-1.4,0.1-2.7,0.4-4.1,0.7c-0.6,0.2-1.2,0.4-1.8,0.8c-0.9,0.7-0.8,1.4,0.2,1.9c0.2,0.1,0.5,0.2,0.7,0.3c0.5,0.4,0.6,1.1,0.3,1.7
	c-0.3,0.7-0.8,0.1-1.1,0c-0.6-0.3-1.3-0.4-1.9-0.4c-3,0-4.9,1.5-6.2,4.1c-1.7,3.4,0.3,8.3,3.8,9.5c1.6,0.6,3.5,0.3,4.9-0.8
	c0.6-0.5,1-0.5,1.1,0.4c0.1,0.6,0.5,0.7,1,0.7c0.7,0,1.3-0.1,2-0.2c1.1-0.1,2.2-0.4,3.1-0.9c0.9-0.6,1-1.4,0.2-2.1
	c-0.6-0.5-0.9-1.3-0.9-2.1C105.1,19.7,105.1,17.7,105.1,15.8z M39.4,20.7c0-0.8,0-1.7,0.1-2.5c0.1-0.6,0.6-1,1.2-1.1
	c0.6-0.1,1.3,0.2,1.6,0.8c0.2,0.4,0.3,0.8,0.4,1.3c0.1,1.3,0.1,2.6-0.2,3.9c0,0.6-0.3,1.2-0.7,1.6c-0.4,0.4-0.4,1.1,0,1.5
	c0.1,0.1,0.3,0.2,0.4,0.3c0.5,0.2,1,0.3,1.6,0.3c1.6,0.2,3.3,0.1,4.9-0.3c1.1-0.3,1.6-1.2,0.9-1.9c-0.7-0.8-1-1.8-0.9-2.8
	c0-1.7-0.1-3.4-0.3-5.1c-0.1-1.6-1.3-3-2.9-3.4c-1.8-0.4-3.5-0.3-4.7,1.4c-0.2,0.3-0.4,0.7-0.9,0.6s-0.4-0.6-0.4-1
	c0-0.7-0.3-1.3-1.1-1.2c-2,0.2-3.9,0.9-5.7,1.8c-1,0.6-1,1.2-0.1,2c0.4,0.4,0.9,0.7,0.9,1.4c0,1.5,0,2.9-0.1,4.4
	c0,0.6-0.2,1.3-0.7,1.7c-0.9,0.7-0.7,1.7,0.4,2.1c0.6,0.2,1.2,0.3,1.8,0.3c1.5,0.1,3,0,4.4-0.3c1-0.3,1.5-1.1,1-1.7
	C39.3,23.6,39.4,22.2,39.4,20.7z M83.8,20.5h2.4c1.6,0,2.1-0.5,2-2.1c0-0.5-0.1-0.9-0.3-1.4c-1.1-3-4.4-4.6-7.9-3.8
	c-3,0.6-5.2,3.1-5.6,6.1c-0.4,2.9,1.2,5.7,3.8,6.9c2.6,1.3,6.7,0.6,8.6-1.3c0.5-0.4,0.8-1.1,0.7-1.8c0-0.6-0.5-1-1.1-1
	c-0.2,0-0.4,0.1-0.6,0.2c-0.5,0.3-0.9,0.5-1.4,0.7c-1.5,0.6-3.2,0-4.1-1.4c-0.4-0.8-0.3-1.2,0.6-1.2L83.8,20.5z M63.5,19.8
	L63.5,19.8c0,1,0,1.9,0,2.9c0,1.5,0.7,2.8,2,3.5c1.5,0.8,3.2,0.9,4.8,0.4c1.4-0.3,2.6-1.1,3.3-2.3c0.3-0.5,0.2-1.2-0.3-1.6
	c-0.4-0.5-0.8-0.2-1.3,0c-1.4,0.7-2.3,0.1-2.4-1.4c0-0.9,0-1.9,0-2.8c0-2.5,0-2.5,2.5-2.5c1.3,0,1.5-0.1,1.5-1.4
	c0-1.5,0-1.5-1.5-1.5h-0.5c-2.2,0-2,0.3-2-1.9c0-1.3-0.3-1.5-1.6-1.4c-0.3,0-0.6,0.1-0.9,0.3c-1.9,1.2-3.8,2.5-5.8,3.7
	c-0.8,0.5-0.5,1.2-0.4,1.8c0,0.6,0.7,0.4,1.1,0.4c0.2,0,0.3,0,0.5,0c0.7-0.1,0.9,0.2,0.9,0.8C63.4,17.8,63.5,18.8,63.5,19.8
	L63.5,19.8z M59.4,18.2L59.4,18.2c0-1.4,0-2.8,0-4.1c0-0.7-0.3-1.1-1.1-1c-1.4,0.2-2.8,0.5-4.1,0.9c-0.7,0.2-1.4,0.5-2,1
	c-0.7,0.6-0.7,1.3,0.1,1.7c0.9,0.4,1.4,1.4,1.2,2.3c0,1,0,2.1,0,3.1c0.1,0.7-0.2,1.5-0.8,1.9c-0.5,0.4-1,0.7-0.8,1.4
	s0.8,0.9,1.4,1.1c1.9,0.4,3.9,0.4,5.9,0.1c0.5-0.1,1-0.3,1.4-0.6c0.5-0.4,0.6-1.1,0.3-1.6c-0.1-0.1-0.2-0.2-0.3-0.3
	c-0.7-0.5-1.1-1.3-1-2.1C59.4,20.8,59.4,19.5,59.4,18.2L59.4,18.2z M54.4,12.2c1.4,0,2.7-0.3,3.9-1c0.6-0.4,0.9-1.1,0.8-1.8
	c-0.1-0.7-0.7-1.2-1.3-1.3C56.2,7.8,54.5,8.1,53,9c-0.8,0.3-1.3,1.1-1.1,1.9c0.2,0.8,0.9,1.4,1.8,1.4C53.9,12.3,54.2,12.3,54.4,12.2
	L54.4,12.2z"/>
<path class="st1" d="M150.5,57.2c0,7.1,0,14.1,0,21.2c-0.1,4.8-4,8.5-8.8,8.5H9.6c-4.8,0.2-8.9-3.6-9.1-8.4c0-0.2,0-0.5,0-0.7
	c0-6.6,0-13.2,0-19.8c0-0.3,0-0.6,0-0.8h73.3c0.4,0,0.9,0.1,1.2,0.3c1.6,0.8,3.5,0.8,5.1,0.1c0.6-0.3,1.2-0.4,1.9-0.4h67.5
	C149.9,57.1,150.2,57.1,150.5,57.2z M82.8,73.5L82.8,73.5c-0.1-1.2,0-2.4-0.1-3.6c-0.1-1.5-1.3-2.7-2.7-2.9
	c-1.9-0.4-3.8,0.3-5.1,1.7c-0.5,0.5-0.9,0.6-1.3-0.1c-0.8-1.4-2.1-1.8-3.6-1.6c-1.4,0.1-2.7,0.8-3.7,1.9c-0.2,0.2-0.4,0.5-0.7,0.4
	s-0.3-0.5-0.3-0.7s0-0.4,0-0.6c0-0.8-0.4-1-1.2-0.9c-1.3,0.2-2.7,0.5-3.9,0.9c-0.6,0.2-1.2,0.4-1.7,0.8c-0.7,0.6-0.7,1.1,0,1.7
	c0.4,0.3,0.7,0.8,0.7,1.3c0.2,1.7,0.2,3.3,0,5c-0.1,0.6-0.4,1.2-0.8,1.6c-0.9,0.9-0.8,1.6,0.5,2c1.4,0.3,2.8,0.4,4.2,0.3
	c0.7,0,1.3-0.1,1.9-0.4c0.7-0.1,1.2-0.8,1.1-1.5c0-0.2-0.1-0.4-0.2-0.6c-0.3-0.6-0.4-1.2-0.4-1.8c0-1.2,0-2.4,0-3.7
	c0-0.3,0.1-0.7,0.2-1c0.1-0.5,0.6-0.8,1.1-0.8c0.5,0,1,0.3,1.2,0.8c0.1,0.3,0.2,0.7,0.2,1c0,1.4,0,2.7,0,4c0,0.6-0.3,1.1-0.7,1.5
	c-0.9,0.8-0.7,1.7,0.5,2.1c1.3,0.3,2.6,0.4,3.9,0.3c0.9,0,1.7-0.2,2.5-0.5c0.6-0.2,1-0.9,0.7-1.5c0-0.1-0.1-0.2-0.2-0.3
	c-1.1-2.1-0.8-4.3-0.5-6.5c0.1-0.5,0.6-0.9,1.1-0.9c0.5,0,1,0.3,1.1,0.9c0.1,0.4,0.2,0.7,0.2,1.1c0,1.1,0,2.1,0,3.2
	c0.1,0.8-0.1,1.6-0.6,2.3c-0.4,0.4-0.4,1,0,1.4c0.1,0.1,0.3,0.2,0.5,0.3c2,0.9,4.3,0.9,6.3,0.1c0.9-0.4,1.1-1.1,0.5-2
	c-0.4-0.6-0.6-1.3-0.6-2C82.8,75.2,82.8,74.4,82.8,73.5z M18.7,61.7L18.7,61.7c-2.1,0-4.3,0-6.4,0c-0.6,0-1.1,0.1-1.7,0.3
	c-0.5,0.2-0.8,0.7-0.8,1.2c0,0.5,0.3,0.9,0.8,1c0.7,0.2,1.2,0.8,1.2,1.5c0.2,3.4,0.2,6.7,0,10.1c0.1,0.9-0.4,1.7-1.2,2
	c-0.6,0.2-1,0.7-0.9,1.4c0.1,0.8,0.5,1.1,1.2,1.3c1.2,0.3,2.4,0.4,3.6,0.3c1.8,0.1,3.6-0.1,5.3-0.6c0.5-0.1,0.9-0.6,0.9-1.2
	c0.1-0.5-0.3-1-0.9-1.1c0,0,0,0-0.1,0c-0.9-0.1-1.6-1-1.6-1.9c-0.1-0.9,0-1.8,0-2.7c0-0.7,0.4-1,1.1-0.9c1.1,0.1,1.5,0.4,1.8,1.9
	c0.1,0.5,0.2,1,0.8,1.1c0.5,0.1,1-0.2,1.3-0.6c0.2-0.3,0.3-0.5,0.4-0.9c0.4-1.3,0.5-2.7,0.3-4c0-0.8-0.2-1.5-0.5-2.2
	c-0.2-0.4-0.7-0.7-1.1-0.7c-0.5,0-0.9,0.4-1,0.8c-0.1,0.3-0.2,0.7-0.3,1c-0.5,0.8-1.2,0.6-1.9,0.5s-0.7-0.6-0.7-1.1
	c0-0.7,0.1-1.4,0.2-2.1c0.1-0.7,0.8-1.3,1.5-1.2c2.1-0.1,4,0.2,5.4,2.2c0.4,0.6,1.2,0.8,1.8,0.4c0.3-0.2,0.5-0.6,0.6-1
	c0.3-1.3,0-2.6-0.8-3.7c-0.4-0.7-1.1-1-1.8-0.9C22.9,61.7,20.8,61.7,18.7,61.7z M34,66.9c-1.8,0.1-3.5,0.5-5,1.4
	c-0.7,0.3-1.2,0.8-1.6,1.4c-0.4,0.5-0.4,1.2,0,1.8c0.4,0.5,1.1,0.7,1.7,0.5c0.8-0.2,1.5-0.7,1.9-1.4c0.5-0.6,0.9-1.6,2-1.2
	c1.1,0.4,0.8,1.3,0.9,2.1c0.1,1.2-0.1,1.3-1.3,1.4c-1.6-0.1-3.3,0.4-4.6,1.3c-1.1,0.7-1.8,2.1-1.6,3.4c0.1,1.4,1,2.5,2.3,2.9
	c1.6,0.7,3.5,0.5,5-0.6c0.6-0.4,1-0.5,1.5,0.1c0.8,0.9,2.1,1.2,3.2,0.7c1.3-0.3,2.3-1.3,2.8-2.6c0.1-0.3,0.2-0.8-0.3-0.9
	c-1-0.2-1.1-1-1.2-1.8c-0.1-1.4-0.1-2.8-0.1-4.2c0-1.8-1.2-3.4-3-3.8C35.8,67,34.9,66.8,34,66.9L34,66.9z M94.4,74.3h2.3
	c1.9,0,2.5-0.7,2.1-2.6c-0.6-3-3.3-5-6.8-4.9c-3.2,0.1-6,2.3-6.8,5.4c-0.7,3,0.6,6.1,3.3,7.6c2.8,1.5,7,0.9,9-1.2
	c0.4-0.4,0.6-0.9,0.7-1.4c0-0.5-0.2-1-0.6-1.3c-0.4-0.3-0.8,0-1.1,0.2c-0.7,0.4-1.5,0.7-2.3,0.8c-1.4,0.1-2.7-0.6-3.3-1.9
	c-0.2-0.6-0.1-0.9,0.6-0.9C92.5,74.3,93.4,74.3,94.4,74.3L94.4,74.3z M47.5,80.7c1.2,0,2.4-0.1,3.6-0.4c0.7-0.2,1.2-0.6,1.2-1.4
	s-0.6-1.1-1.2-1.2s-0.9-0.4-1-1C50,75.4,50,74.2,50,72.9c0-0.4,0-1,0.5-1.2s0.7,0.3,1,0.6c1.2,1.1,3.1,1.1,4.2-0.1
	c1.2-1.2,1.3-3.1,0.2-4.4c-1.2-1.5-3.3-1.3-4.7,0.4c-0.2,0.3-0.4,0.8-0.8,0.7s-0.4-0.6-0.4-1c-0.1-0.9-0.6-1.1-1.4-1
	c-1.1,0.1-2.2,0.3-3.2,0.6c-0.9,0.2-1.7,0.6-2.4,1.1c-0.8,0.7-0.7,1.5,0.2,1.9c0.5,0.2,0.8,0.7,0.8,1.2c0.1,1.5,0.1,3.1-0.2,4.6
	c-0.1,0.5-0.3,1-0.8,1.2c-0.6,0.3-0.9,0.9-0.8,1.5c0.2,0.7,0.7,1,1.3,1.2C45,80.6,46.3,80.7,47.5,80.7z M104.8,80.7
	c1.2,0,2.4-0.1,3.6-0.4c0.7-0.2,1.2-0.6,1.3-1.4s-0.5-1.1-1.2-1.3c-0.6-0.1-1-0.6-1-1.2c-0.1-1.1-0.2-2.1-0.1-3.2
	c0-0.6-0.1-1.3,0.5-1.5s0.8,0.4,1.2,0.7c1.1,0.9,2.8,0.9,3.9-0.1c1.2-1,1.5-2.8,0.7-4.1c-0.7-1.2-2.2-1.7-3.5-1.2
	c-0.6,0.3-1.2,0.7-1.6,1.3c-0.2,0.2-0.3,0.6-0.7,0.5s-0.4-0.5-0.4-0.9c-0.1-1-0.4-1.3-1.4-1.1c-1.1,0.1-2.2,0.3-3.2,0.6
	c-0.9,0.2-1.7,0.6-2.4,1.2c-0.7,0.6-0.6,1.5,0.1,1.8c0.8,0.3,1.2,1.2,1.1,2c0,1.2,0,2.4-0.1,3.6c0,0.7-0.4,1.3-0.9,1.6
	c-0.5,0.3-0.9,0.7-0.8,1.4c0.2,0.6,0.7,1.1,1.3,1.2C102.3,80.6,103.5,80.7,104.8,80.7L104.8,80.7z M120.5,66.8c-2.6,0-4.4,1.2-5,3
	c-0.6,2.1,0.1,4,2.2,5.3c0.7,0.5,1.5,0.9,2.3,1.4c0.4,0.2,0.6,0.7,0.4,1.1c0,0,0,0,0,0.1c-0.3,0.4-0.8,0.6-1.2,0.4
	c-0.5-0.2-1-0.6-1.4-1c-0.4-0.5-0.9-1-1.4-1.4c-0.4-0.3-1-0.3-1.3,0.1c-0.1,0.1-0.2,0.3-0.2,0.5c-0.1,1.5,0.5,2.9,1.6,4
	c0.3,0.2,0.6,0.3,1,0.2c1-0.1,2.1,0,3.1,0.2c0.9,0.1,1.8,0.1,2.6-0.1c1.7-0.5,3.1-1.4,3.5-3.2s-0.3-3.2-2.2-4.4
	c-0.4-0.3-0.9-0.5-1.3-0.7s-1.1-0.6-1.6-0.9s-0.8-0.8-0.4-1.4c0.4-0.4,1-0.5,1.4-0.1c0,0,0,0,0,0c0.2,0.2,0.5,0.4,0.7,0.6
	c0.3,0.3,0.7,0.6,1.1,0.9c0.5,0.4,1.2,0.4,1.8,0c0.5-0.4,0.7-1,0.4-1.6c-0.2-0.8-0.6-1.5-1.1-2.2c-0.4-0.6-1.2-0.9-1.9-0.6
	c-0.4,0.2-0.9,0.2-1.3,0.1C121.6,67,120.9,66.9,120.5,66.8z"/>
<path class="st2" d="M0.6,55.5c0-1.3,0-2.6,0-3.8c0-6.2,0-12.4,0-18.6c0-0.4,0-0.8,0-1.2h148.8c0.4,0,0.8,0,1.1,0
	c0,7.9,0,15.7,0,23.6c-0.3,0-0.6,0-0.9,0H83.7c-0.3,0-0.6,0.1-0.8-0.1s0.2-0.5,0.4-0.8s0.3-0.6,0.5-0.9c1.3-2.7,2.1-5.6,3.2-8.3
	c0.5-1.3,1.1-2.6,2.6-3.1c0.5-0.1,0.8-0.6,0.7-1.1c0-0.5-0.3-0.9-0.8-1c-1.5-0.6-3.3-0.5-4.8,0.2c-0.5,0.1-0.9,0.7-0.7,1.2
	c0,0.2,0.2,0.4,0.3,0.5c0.9,1.1,0.5,2.2-0.1,3.2c-0.2,0.3-0.5,0.6-0.9,0.4c-1-0.8-1.4-2.2-1.1-3.4c0.6-1.1,0.3-1.9-0.9-2.2
	c-2.4-0.6-4.8-0.4-7.1,0.4c-0.6,0.1-1,0.7-1,1.2c0,0.7,0.4,1,0.9,1.2c0.6,0.3,1.1,0.8,1.3,1.4c1.2,2.5,2.4,5,3.6,7.6
	c0.3,0.6,0.5,1.2,0.6,1.8c0.2,0.6-0.1,1.3-0.7,1.5c0,0,0,0-0.1,0c-0.8,0.2-0.8-0.5-1-1l-0.1-0.2c-0.5-1.3-1.2-1.8-2.3-1.6
	c-1.2,0.1-2,1.1-2,2.3c0,0.8-0.3,0.8-1,0.8L0.6,55.5z M16.7,53.4L16.7,53.4c1.5,0,3.1,0,4.6,0c2.5,0.1,5-0.8,6.8-2.6
	c2.2-2.3,2.7-5.1,2.5-8.2c-0.1-4.2-3.3-7.7-7.6-8c-3.7-0.2-7.3-0.3-11-0.2c-0.6,0-1.1,0.1-1.6,0.5c-0.5,0.4-0.6,1.1-0.3,1.6
	c0.1,0.1,0.2,0.2,0.3,0.3c1.3,0.5,1.4,1.5,1.4,2.6c-0.1,2.7-0.1,5.4-0.2,8.1c0,0.7-0.1,1.4-0.2,2.1c-0.1,0.6-0.5,1-1.1,1.2
	c-0.5,0.1-0.9,0.4-0.9,1c0,0.6,0.3,1.1,0.9,1.3c0.6,0.2,1.2,0.3,1.8,0.3C13.8,53.4,15.2,53.4,16.7,53.4L16.7,53.4z M39.7,39.8
	c-1.6,0-3.2,0.3-4.6,1c-0.8,0.3-1.5,0.8-2.1,1.4c-0.6,0.6-0.7,1.5-0.2,2.2c0.5,0.7,1.3,0.6,2.1,0.4c0.5-0.2,0.9-0.5,1.2-1
	c0.3-0.3,0.5-0.7,0.8-1c0.3-0.5,0.9-0.7,1.4-0.6c0.5,0.1,0.7,0.6,0.8,1.1c0.1,0.4,0.1,0.7,0.2,1.1c0.1,1.2,0,1.3-1.2,1.3
	c-1.8-0.1-3.6,0.5-5,1.6c-1.5,1.2-1.8,3.4-0.6,5c0.4,0.5,1,1,1.7,1.2c1.6,0.6,3.5,0.4,4.9-0.6c0.4-0.3,0.8-0.6,1.3-0.1
	c1.6,1.4,4,1.2,5.4-0.4c0.2-0.2,0.3-0.4,0.5-0.6c0.2-0.3,0.3-0.7,0.3-1.1c0-0.3,0-0.6-0.3-0.6c-1-0.1-1.1-0.9-1.1-1.6
	c-0.1-1.3-0.1-2.6-0.1-3.9c0.1-2-1.1-3.7-3-4.3C41.3,39.9,40.5,39.8,39.7,39.8L39.7,39.8z M62.9,53.5c0.9,0,1.8,0,2.6,0
	c0.3,0,0.6-0.1,0.9-0.2c0.7-0.2,1.3-0.5,1.3-1.4s-0.5-1.1-1.2-1.3c-0.6-0.1-1-0.6-1-1.2c0-1.2-0.1-2.4-0.1-3.6c0-0.4,0-1,0.5-1.1
	s0.7,0.3,1,0.6c0.9,1,2.4,1.2,3.6,0.4c1.2-0.6,1.8-1.9,1.6-3.2c-0.2-1.6-1.6-2.8-3.2-2.6c-0.8,0.1-1.6,0.5-2.1,1.2
	c-0.1,0.2-0.3,0.3-0.4,0.5s-0.3,0.4-0.5,0.3s-0.3-0.3-0.3-0.5c-0.4-1.7-0.4-1.7-2.1-1.4c-0.3,0-0.6,0.1-0.8,0.1
	c-1.3,0.2-2.6,0.6-3.7,1.2c-1.1,0.7-1.1,1.6,0,2.3c0.4,0.2,0.7,0.7,0.7,1.1c0.1,1.5,0.1,3-0.1,4.4c0,0.6-0.3,1.1-0.8,1.4
	c-0.6,0.4-1,0.8-0.8,1.5c0.2,0.6,0.8,1.1,1.4,1.2C60.6,53.5,61.8,53.6,62.9,53.5L62.9,53.5z M55.5,44.9L55.5,44.9c0-1,0-1.9,0-2.9
	c0-2.3,0-2.3-2.3-1.9c-1.6,0.2-3.1,0.6-4.6,1.4c-1.1,0.7-1.2,1.5,0,2.2c0.5,0.2,0.8,0.7,0.8,1.3c0.1,1.5,0.1,3.1-0.1,4.6
	c0,0.5-0.3,1-0.8,1.4c-0.5,0.2-0.8,0.8-0.7,1.4c0.2,0.6,0.7,1,1.3,1.1c1.9,0.4,3.9,0.4,5.9,0.1c0.5-0.1,1-0.3,1.5-0.6
	c0.5-0.3,0.7-1,0.3-1.5c-0.1-0.1-0.2-0.2-0.3-0.3c-0.7-0.5-1.1-1.3-1-2.2C55.5,47.5,55.5,46.2,55.5,44.9z M52.8,34.7
	c-1.4,0-2.7,0.4-3.9,1.1c-0.6,0.3-0.9,1-0.8,1.7c0.1,0.7,0.7,1.2,1.4,1.3c1.4,0.3,2.8,0.1,4.1-0.4c1.4-0.5,2-1.3,1.9-2.3
	S54.2,34.7,52.8,34.7L52.8,34.7z"/>
<path class="st3" d="M0.6,55.5h72c0.6,0,1,0,1-0.8c0-1.2,0.8-2.2,2-2.3c1.1-0.2,1.8,0.3,2.3,1.6l0.1,0.2c0.2,0.4,0.3,1.2,1,1
	c0.6-0.2,1-0.9,0.8-1.5c0,0,0,0,0-0.1c-0.2-0.6-0.4-1.2-0.6-1.8c-1.2-2.5-2.4-5-3.6-7.6c-0.2-0.6-0.7-1.1-1.3-1.4
	c-0.5-0.2-1-0.5-0.9-1.2c0-0.6,0.4-1.1,1-1.2c2.3-0.8,4.8-0.9,7.1-0.4c1.2,0.3,1.5,1.1,0.9,2.2c-0.3,1.3,0.1,2.6,1.1,3.4
	c0.5,0.2,0.7-0.1,0.9-0.4c0.6-1.1,1-2.1,0.1-3.2c-0.4-0.4-0.4-1-0.1-1.4c0.1-0.2,0.3-0.3,0.5-0.3c1.5-0.7,3.2-0.8,4.8-0.2
	c0.4,0.1,0.7,0.5,0.8,1c0.1,0.5-0.2,1-0.7,1.1c-1.5,0.5-2.1,1.8-2.6,3.1c-1.1,2.8-1.9,5.7-3.2,8.3c-0.1,0.3-0.3,0.6-0.5,0.9
	s-0.6,0.5-0.4,0.8s0.5,0.1,0.8,0.1h65.8c0.3,0,0.6,0,0.9,0v1.7c-0.3,0-0.6,0-0.9,0H82c-0.7,0-1.3,0.1-1.9,0.4
	c-1.6,0.8-3.5,0.7-5.1-0.1c-0.4-0.2-0.8-0.3-1.2-0.3H0.5L0.6,55.5z"/>
<path class="st3" d="M150.5,31.9c-0.4,0-0.8,0-1.1,0H0.6v-1.3h148.8c0.4,0,0.8,0,1.1-0.1L150.5,31.9z"/>
<path class="st3" d="M25.8,16c0-1.1,0-2.3,0-3.4c0.1-0.9-0.5-1.8-1.3-2.2c-0.5-0.2-0.9-0.4-0.9-1.1c0-0.6,0.4-1.1,1-1.2
	c1.5-0.4,3.1-0.5,4.7-0.3c0.6,0,1.2,0.2,1.7,0.5c0.8,0.6,0.9,1.5,0,1.9c-1,0.4-1.5,1.4-1.4,2.4c0,2,0,4.1,0,6.1c0,4.8-2,7.2-6.8,8
	c-2.1,0.4-4.3,0.2-6.4-0.4c-3-0.8-5.1-3.6-5-6.7c0-2.3,0-4.5,0-6.8c0.1-0.8-0.3-1.6-0.9-2.1c-1.2-1.1-1-2.2,0.5-2.6
	c2.5-0.7,5.1-0.7,7.6,0c0.2,0.1,0.5,0.2,0.7,0.3c0.6,0.3,0.8,1.1,0.5,1.7c-0.1,0.3-0.4,0.5-0.6,0.6c-0.7,0.2-1.2,0.8-1.2,1.6
	c-0.2,2.6-0.2,5.2,0.2,7.8c0.2,1.5,1.3,2.6,2.8,2.8c1.6,0.3,3.2,0.1,4.2-1.4c0.4-0.7,0.7-1.4,0.6-2.2C25.8,18.2,25.8,17.1,25.8,16z"
	/>
<path class="st3" d="M105.1,15.8c0,2,0,4,0,5.9c-0.1,0.8,0.2,1.6,0.9,2.1c0.8,0.7,0.7,1.5-0.2,2.1c-1,0.5-2,0.8-3.1,0.9
	c-0.7,0.1-1.3,0.1-2,0.2c-0.4,0-0.9-0.1-1-0.7c-0.1-0.9-0.5-0.9-1.1-0.4c-1.3,1.1-3.2,1.5-4.9,0.8c-3.5-1.3-5.4-6.1-3.8-9.5
	C91,14.6,93,13,96,13c0.7,0,1.3,0.2,1.9,0.4c0.4,0.1,0.9,0.7,1.1,0c0.3-0.6,0.2-1.3-0.3-1.7c-0.2-0.1-0.4-0.2-0.7-0.3
	c-1-0.5-1-1.2-0.2-1.9c0.5-0.4,1.1-0.7,1.8-0.8c1.3-0.3,2.7-0.6,4.1-0.7c0.9-0.1,1.3,0.3,1.3,1.5C105.1,11.6,105.1,13.7,105.1,15.8z
	 M99.2,19.4c0-0.8-0.1-1.6-0.3-2.4c-0.1-0.5-0.5-0.9-1-1c-0.5-0.1-1.1,0.2-1.4,0.6c-1,1.9-1.1,4.2-0.3,6.2c0.3,0.6,0.8,0.9,1.5,0.8
	c0.6-0.1,1.1-0.5,1.2-1.1C99.2,21.5,99.3,20.4,99.2,19.4L99.2,19.4z"/>
<path class="st3" d="M39.4,20.7c0,1.5-0.1,2.9,0.8,4.1c0.4,0.7-0.1,1.4-1,1.7c-1.4,0.4-2.9,0.5-4.4,0.3c-0.6,0-1.2-0.1-1.8-0.3
	c-1.1-0.5-1.3-1.4-0.4-2.1c0.5-0.4,0.7-1.1,0.7-1.7c0.1-1.5,0.1-2.9,0.1-4.4c0-0.7-0.4-1-0.9-1.4c-0.9-0.8-0.9-1.4,0.1-2
	c1.8-0.9,3.7-1.6,5.7-1.8c0.7-0.1,1,0.5,1.1,1.2c0,0.4-0.1,0.8,0.4,1s0.7-0.3,0.9-0.6c1.3-1.6,2.9-1.8,4.7-1.4
	c1.6,0.4,2.8,1.8,2.9,3.4c0.2,1.7,0.4,3.4,0.3,5.1c-0.1,1,0.3,2,0.9,2.8c0.7,0.7,0.2,1.7-0.9,1.9c-1.6,0.4-3.2,0.5-4.9,0.3
	c-0.5,0-1.1-0.1-1.6-0.3c-0.6-0.2-0.8-0.8-0.7-1.3c0.1-0.2,0.1-0.3,0.3-0.4c0.4-0.5,0.6-1,0.7-1.6c0.2-1.3,0.3-2.6,0.2-3.9
	c-0.1-0.4-0.2-0.9-0.4-1.3c-0.3-0.6-0.9-0.9-1.6-0.8c-0.6,0-1.1,0.5-1.2,1C39.4,19,39.3,19.8,39.4,20.7z"/>
<path class="st3" d="M83.8,20.5h-2.7c-0.9,0-1.1,0.3-0.6,1.2c0.9,1.4,2.6,2,4.1,1.4c0.5-0.2,1-0.4,1.4-0.7c0.5-0.3,1.1-0.2,1.5,0.3
	c0.1,0.2,0.2,0.4,0.2,0.6c0.1,0.7-0.2,1.3-0.7,1.8c-1.9,1.9-6,2.6-8.6,1.3c-2.6-1.3-4.2-4.1-3.8-6.9c0.4-3,2.6-5.5,5.6-6.1
	c3.5-0.8,6.8,0.8,7.9,3.8c0.2,0.4,0.3,0.9,0.3,1.4c0,1.6-0.5,2.1-2,2.1L83.8,20.5z M81.5,17.9c0.6-0.1,1.6,0.3,1.6-0.9
	c0-0.8-0.6-1.5-1.5-1.6c0,0,0,0,0,0c-0.8,0.1-1.5,0.8-1.5,1.6C80,18.2,80.9,17.8,81.5,17.9z"/>
<path class="st3" d="M63.5,19.8c0-1,0-2,0-3c0-0.7-0.2-0.9-0.9-0.8c-0.2,0-0.3,0-0.5,0c-0.4-0.1-1,0.2-1.1-0.4
	c-0.1-0.7-0.3-1.3,0.4-1.8c1.9-1.2,3.9-2.5,5.8-3.7c0.3-0.2,0.6-0.3,0.9-0.3c1.3-0.1,1.6,0.1,1.6,1.4c0,2.2-0.2,1.9,2,1.9h0.5
	c1.5,0,1.5,0,1.5,1.5c0,1.3-0.1,1.4-1.5,1.4c-2.5,0-2.5,0-2.5,2.5c0,0.9,0,1.9,0,2.8c0.1,1.6,1,2.1,2.4,1.4c0.4-0.2,0.8-0.5,1.3,0
	c0.4,0.4,0.5,1,0.3,1.6c-0.7,1.2-1.9,2.1-3.3,2.3c-1.6,0.6-3.3,0.4-4.8-0.4c-1.3-0.7-2-2.1-2-3.5C63.5,21.7,63.5,20.8,63.5,19.8
	L63.5,19.8z"/>
<path class="st3" d="M59.4,18.2c0,1.3,0,2.6,0,3.8c-0.1,0.8,0.3,1.6,1,2.1c0.5,0.4,0.6,1.1,0.3,1.6c-0.1,0.1-0.2,0.2-0.3,0.3
	c-0.4,0.3-0.9,0.6-1.4,0.6C57,27,55,26.9,53,26.5c-0.6-0.1-1.2-0.4-1.4-1.1s0.3-1.1,0.8-1.4c0.6-0.5,0.8-1.2,0.8-1.9
	c0.1-1,0-2.1,0-3.1c0.2-1-0.3-1.9-1.2-2.3c-0.7-0.4-0.7-1.2-0.1-1.7c0.6-0.5,1.3-0.8,2-1c1.4-0.4,2.7-0.7,4.1-0.9
	c0.8-0.1,1.1,0.2,1.1,1c0,1.4,0,2.8,0,4.1L59.4,18.2z"/>
<path class="st4" d="M54.4,12.2c-0.2,0-0.5,0-0.8,0c-0.8,0-1.6-0.6-1.8-1.4C51.7,10,52.2,9.2,53,9c1.5-0.9,3.2-1.2,4.9-0.8
	c0.7,0.1,1.2,0.6,1.3,1.3c0.1,0.7-0.2,1.4-0.8,1.8C57.2,11.9,55.8,12.3,54.4,12.2z"/>
<path class="st4" d="M82.8,73.5c0,0.9,0,1.7,0,2.5c0,0.7,0.2,1.4,0.6,2c0.6,0.9,0.4,1.6-0.5,2c-2,0.8-4.3,0.8-6.3-0.1
	c-0.5-0.1-0.9-0.7-0.7-1.2c0-0.2,0.1-0.4,0.3-0.5c0.5-0.7,0.7-1.5,0.6-2.3c0-1.1,0-2.1,0-3.2c0-0.4-0.1-0.7-0.2-1.1
	c-0.1-0.5-0.6-0.9-1.1-0.9c-0.5-0.1-1,0.3-1.1,0.9c-0.3,2.2-0.6,4.4,0.5,6.5c0.4,0.5,0.3,1.3-0.2,1.7c-0.1,0.1-0.2,0.1-0.3,0.2
	c-0.8,0.4-1.6,0.5-2.5,0.5c-1.3,0.1-2.6,0-3.9-0.3c-1.2-0.4-1.4-1.3-0.5-2.1c0.4-0.4,0.7-0.9,0.7-1.5c0-1.4,0-2.7,0-4
	c0-0.3-0.1-0.7-0.2-1c-0.1-0.5-0.6-0.8-1.2-0.8c-0.5,0-1,0.3-1.1,0.8c-0.1,0.3-0.2,0.7-0.2,1c0,1.2,0,2.4,0,3.7
	c0,0.6,0.2,1.2,0.4,1.8c0.4,0.6,0.3,1.4-0.3,1.8c-0.2,0.1-0.4,0.2-0.6,0.2c-0.6,0.2-1.3,0.3-1.9,0.4c-1.4,0.2-2.8,0.1-4.2-0.3
	c-1.3-0.4-1.4-1.1-0.5-2c0.5-0.4,0.8-1,0.8-1.6c0.2-1.7,0.2-3.3,0-5c0-0.5-0.3-1-0.7-1.3c-0.7-0.6-0.7-1.1,0-1.7
	c0.5-0.4,1.1-0.7,1.7-0.9c1.3-0.4,2.6-0.7,3.9-0.9c0.8-0.1,1.1,0.2,1.2,0.9c0,0.2,0,0.4,0,0.6s0,0.6,0.3,0.7s0.5-0.1,0.7-0.4
	c0.9-1.1,2.3-1.8,3.7-1.9c1.5-0.1,2.8,0.2,3.6,1.6c0.4,0.8,0.7,0.7,1.3,0.1c1.3-1.4,3.2-2.1,5.1-1.7c1.5,0.2,2.6,1.4,2.7,2.9
	c0.1,1.2,0,2.4,0,3.6L82.8,73.5z"/>
<path class="st4" d="M18.7,61.7c2.1,0,4.2,0,6.3,0c0.7-0.1,1.4,0.3,1.8,0.9c0.7,1.1,1,2.4,0.8,3.7c-0.1,0.7-0.7,1.2-1.4,1.2
	c-0.4,0-0.7-0.3-1-0.6c-1.4-1.9-3.3-2.2-5.4-2.2c-0.8-0.1-1.4,0.5-1.5,1.2c-0.1,0.7-0.2,1.4-0.2,2.1c0,0.6,0.1,1,0.7,1.1
	s1.5,0.3,1.9-0.5c0.1-0.3,0.3-0.7,0.3-1c0.1-0.5,0.5-0.8,1-0.8c0.5,0,0.9,0.2,1.1,0.7c0.3,0.7,0.5,1.4,0.5,2.2c0.2,1.3,0,2.7-0.3,4
	c-0.1,0.3-0.2,0.6-0.4,0.9c-0.3,0.5-0.8,0.7-1.3,0.6c-0.6-0.1-0.7-0.6-0.8-1.1c-0.3-1.5-0.6-1.8-1.8-1.9c-0.7,0-1.1,0.2-1.1,0.9
	c0,0.9,0,1.8,0,2.7c-0.1,1,0.6,1.8,1.6,1.9c0.6,0,1,0.5,1,1c0,0,0,0,0,0.1c0,0.6-0.3,1.1-0.9,1.2c-1.7,0.5-3.5,0.7-5.3,0.6
	c-1.2,0.1-2.5,0-3.6-0.3c-0.7-0.2-1.1-0.5-1.2-1.3c-0.1-0.6,0.3-1.2,0.9-1.4c0.8-0.3,1.3-1.1,1.2-2c0.2-3.4,0.2-6.7,0-10.1
	c0-0.7-0.5-1.4-1.2-1.6c-0.5-0.1-0.8-0.5-0.8-1c0-0.5,0.3-1,0.8-1.2c0.5-0.2,1.1-0.3,1.7-0.3c2.1,0,4.3,0,6.4,0L18.7,61.7z"/>
<path class="st4" d="M34,66.8c0.9,0,1.8,0.1,2.7,0.5c1.8,0.5,3,2,3,3.8c0,1.4,0,2.8,0.1,4.2c0,0.8,0.1,1.6,1.2,1.8
	c0.5,0.1,0.4,0.6,0.3,0.9c-0.4,1.3-1.5,2.2-2.8,2.6c-1.1,0.5-2.4,0.2-3.2-0.7c-0.5-0.6-1-0.5-1.5-0.1c-1.5,1.1-3.4,1.3-5,0.6
	c-1.3-0.4-2.2-1.6-2.3-2.9c-0.2-1.3,0.5-2.7,1.6-3.4c1.4-0.9,3-1.4,4.6-1.3c1.2,0,1.4-0.2,1.3-1.4c-0.1-0.8,0-1.8-0.9-2.1
	s-1.5,0.6-2,1.2c-0.4,0.7-1.1,1.2-1.9,1.4c-0.6,0.2-1.3,0-1.7-0.5c-0.4-0.5-0.4-1.2,0-1.8c0.4-0.6,0.9-1.1,1.6-1.4
	C30.6,67.4,32.3,66.9,34,66.8z M34,75.9c-0.1-0.5,0.1-1.2-0.8-1.2c-0.8,0.1-1.4,0.8-1.4,1.6c0,0.7,0.3,1.3,1.1,1.4S34,77.2,34,75.9
	L34,75.9z"/>
<path class="st4" d="M94.4,74.3c-0.9,0-1.9,0-2.8,0c-0.7,0-0.8,0.3-0.6,0.9c0.6,1.3,1.9,2,3.3,1.9c0.8-0.1,1.6-0.4,2.3-0.8
	c0.4-0.2,0.7-0.5,1.1-0.2c0.4,0.3,0.7,0.8,0.6,1.3c0,0.5-0.3,1-0.7,1.4c-2,2.1-6.3,2.6-9,1.2c-2.7-1.5-4-4.6-3.3-7.6
	c0.8-3.1,3.6-5.3,6.8-5.4c3.4-0.1,6.2,1.8,6.8,4.9c0.4,1.8-0.3,2.6-2.1,2.6H94.4z M92.2,71.7c0.7-0.1,1.6,0.2,1.6-1
	c0-0.8-0.7-1.5-1.5-1.6c-0.9,0.1-1.6,0.8-1.6,1.7C90.7,72,91.6,71.7,92.2,71.7z"/>
<path class="st4" d="M47.5,80.7c-1.3,0.1-2.5-0.1-3.7-0.4c-0.6-0.2-1.2-0.5-1.3-1.2c-0.1-0.6,0.2-1.2,0.8-1.5
	c0.4-0.3,0.7-0.7,0.8-1.2c0.2-1.5,0.3-3.1,0.2-4.6c0-0.5-0.3-1-0.8-1.2c-0.9-0.4-1-1.3-0.2-1.9c0.7-0.5,1.5-0.9,2.4-1.1
	c1.1-0.3,2.1-0.5,3.2-0.6c0.8-0.1,1.3,0.1,1.4,1c0,0.3-0.1,0.9,0.4,1s0.6-0.4,0.8-0.7c1.4-1.7,3.5-1.8,4.7-0.4
	c1.1,1.3,1,3.2-0.2,4.4c-1.2,1.2-3,1.2-4.2,0.1c-0.3-0.3-0.5-0.7-1-0.6S50.1,72.5,50,73c0,1.2,0,2.4,0.2,3.7c0.1,0.6,0.5,0.8,1,1
	s1.2,0.4,1.2,1.2s-0.5,1.2-1.2,1.4C50,80.6,48.8,80.7,47.5,80.7z"/>
<path class="st4" d="M104.8,80.7c-1.3,0.1-2.5-0.1-3.7-0.4c-0.6-0.1-1.1-0.6-1.3-1.2c-0.1-0.7,0.3-1.1,0.8-1.4
	c0.5-0.4,0.9-1,0.9-1.7c0.1-1.2,0.2-2.4,0.1-3.6c0.1-0.8-0.3-1.7-1.1-2c-0.7-0.3-0.8-1.1-0.1-1.8c0.7-0.6,1.5-1,2.4-1.2
	c1.1-0.3,2.1-0.5,3.2-0.6c1-0.1,1.3,0.1,1.4,1.1c0,0.3,0,0.8,0.4,0.9s0.5-0.3,0.7-0.5c0.4-0.6,0.9-1,1.6-1.3c1.3-0.5,2.8,0,3.5,1.2
	c0.8,1.4,0.5,3.1-0.7,4.1c-1.1,1-2.7,1-3.9,0.1c-0.4-0.3-0.7-1-1.2-0.7s-0.5,1-0.5,1.5c0,1.1,0,2.1,0.1,3.2c0,0.6,0.4,1.1,1,1.2
	c0.7,0.2,1.2,0.5,1.2,1.3s-0.6,1.2-1.3,1.4C107.2,80.6,106,80.7,104.8,80.7z"/>
<path class="st4" d="M120.5,66.8c0.4,0.1,1.1,0.1,1.8,0.3c0.4,0.1,0.9,0.1,1.3-0.1c0.7-0.3,1.5-0.1,1.9,0.6c0.5,0.6,0.9,1.4,1.1,2.2
	c0.2,0.6,0.1,1.2-0.4,1.6c-0.5,0.4-1.2,0.4-1.8,0c-0.4-0.3-0.7-0.6-1.1-0.9c-0.2-0.2-0.5-0.4-0.7-0.6c-0.4-0.4-1.1-0.3-1.4,0.1
	c0,0,0,0,0,0c-0.4,0.6-0.1,1,0.4,1.4s1.1,0.6,1.6,0.9s0.9,0.5,1.3,0.7c1.8,1.2,2.6,2.6,2.2,4.4s-1.8,2.8-3.5,3.2
	c-0.9,0.2-1.7,0.2-2.6,0.1c-1-0.2-2.1-0.3-3.1-0.2c-0.4,0.1-0.7,0-1-0.2c-1.1-1.1-1.6-2.5-1.6-4c0.1-0.5,0.5-0.9,1.1-0.8
	c0.2,0,0.3,0.1,0.5,0.2c0.5,0.4,1,0.8,1.4,1.4c0.4,0.4,0.8,0.8,1.4,1c0.5,0.2,1,0,1.2-0.4c0.2-0.4,0.1-0.9-0.3-1.1c0,0,0,0-0.1,0
	c-0.7-0.5-1.5-0.9-2.3-1.4c-2.1-1.3-2.8-3.2-2.2-5.3C116.1,68,117.9,66.8,120.5,66.8z"/>
<path class="st4" d="M16.7,53.4c-1.5,0-3,0-4.4,0c-0.6,0-1.2,0-1.8-0.3C10,53,9.6,52.4,9.7,51.9c0-0.6,0.4-0.9,0.9-1
	c0.6-0.2,1-0.6,1.1-1.2c0.1-0.7,0.2-1.4,0.2-2.1c0-2.7,0.1-5.4,0.2-8.1c0-1.1-0.1-2.1-1.4-2.6c-0.5-0.3-0.7-1-0.4-1.5
	c0.1-0.1,0.2-0.3,0.3-0.3c0.5-0.3,1-0.5,1.6-0.5c3.7-0.1,7.3-0.1,11,0.2c4.2,0.3,7.5,3.8,7.6,8c0.2,3.1-0.3,5.9-2.5,8.2
	c-1.8,1.8-4.3,2.7-6.8,2.6C19.8,53.5,18.2,53.5,16.7,53.4L16.7,53.4z M18.3,43.8L18.3,43.8c0,1.8,0,3.6,0,5.4c0,1.1,0.4,1.4,1.5,1.5
	c1.5,0.1,2.9-0.8,3.3-2.3c1-2.8,0.9-5.9-0.2-8.7c-0.5-1.3-1.8-2.2-3.2-2.2c-1.1-0.1-1.4,0.2-1.4,1.3C18.3,40.5,18.3,42.1,18.3,43.8z
	"/>
<path class="st4" d="M39.8,39.8c0.8,0,1.6,0.2,2.3,0.5c1.9,0.5,3.1,2.3,3,4.3c0,1.3,0,2.6,0.1,3.9c0,0.7,0.1,1.5,1.1,1.6
	c0.3,0,0.3,0.3,0.3,0.6c0,0.4-0.1,0.7-0.3,1.1c-1,1.8-3.4,2.5-5.2,1.5c-0.2-0.1-0.4-0.3-0.6-0.5c-0.5-0.5-0.9-0.2-1.3,0.1
	c-1.4,1-3.3,1.2-4.9,0.6c-1.9-0.6-2.9-2.6-2.3-4.4c0.2-0.7,0.6-1.3,1.2-1.7c1.4-1.1,3.2-1.6,5-1.6c1.2-0.1,1.3-0.1,1.2-1.3
	c0-0.4-0.1-0.7-0.2-1.1c-0.1-0.5-0.3-0.9-0.8-1.1c-0.5-0.1-1.1,0.1-1.4,0.6c-0.3,0.3-0.5,0.7-0.8,1c-0.3,0.5-0.7,0.8-1.2,1
	c-0.7,0.2-1.5,0.3-2.1-0.4c-0.5-0.7-0.4-1.6,0.2-2.2c0.6-0.6,1.3-1.1,2.1-1.4C36.5,40.1,38.1,39.8,39.8,39.8z M39.4,48.9
	c-0.1-0.5,0.2-1.2-0.7-1.3c-0.8,0.1-1.5,0.8-1.4,1.6c0,0.7,0.2,1.3,1.1,1.4S39.4,50.2,39.4,48.9L39.4,48.9z"/>
<path class="st4" d="M62.9,53.5c-1.2,0.1-2.4,0.1-3.6-0.2c-0.7-0.1-1.2-0.6-1.4-1.2c-0.2-0.7,0.3-1.2,0.8-1.5
	c0.5-0.3,0.8-0.9,0.8-1.4c0.2-1.5,0.2-2.9,0.1-4.4c0-0.5-0.3-0.9-0.7-1.1c-1.1-0.6-1.1-1.6,0-2.3c1.2-0.6,2.4-1,3.7-1.2
	c0.3-0.1,0.6-0.1,0.8-0.1c1.7-0.3,1.7-0.3,2.1,1.4c0.1,0.2,0.1,0.4,0.3,0.5s0.4-0.2,0.5-0.3s0.3-0.3,0.4-0.5
	c0.9-1.3,2.7-1.6,4.1-0.7c0.7,0.5,1.1,1.2,1.2,2.1c0.2,1.3-0.4,2.6-1.6,3.2c-1.1,0.7-2.6,0.5-3.5-0.4c-0.3-0.3-0.5-0.7-1-0.6
	s-0.5,0.7-0.5,1.1c0,1.2,0.1,2.4,0.1,3.6c0,0.6,0.4,1.1,1,1.2c0.7,0.2,1.2,0.5,1.2,1.3s-0.7,1.1-1.3,1.4c-0.3,0.1-0.6,0.2-0.9,0.2
	C64.7,53.5,63.8,53.5,62.9,53.5z"/>
<path class="st4" d="M55.5,44.9c0,1.3,0,2.6,0,3.9c-0.1,0.9,0.3,1.7,1,2.2c0.5,0.3,0.7,1,0.3,1.5c-0.1,0.1-0.2,0.2-0.3,0.3
	c-0.4,0.3-0.9,0.5-1.5,0.6c-2,0.3-3.9,0.3-5.9-0.1c-0.6,0-1.1-0.5-1.3-1.1c-0.1-0.6,0.2-1.2,0.7-1.4c0.4-0.3,0.7-0.8,0.8-1.4
	c0.2-1.5,0.2-3.1,0.1-4.6c0-0.5-0.3-1-0.8-1.3c-1.1-0.7-1.1-1.5,0-2.2c1.4-0.7,3-1.2,4.6-1.4c2.4-0.4,2.4-0.4,2.4,1.9
	C55.5,43,55.5,43.9,55.5,44.9L55.5,44.9z"/>
<path class="st4" d="M52.8,34.7c1.4,0,2.4,0.5,2.6,1.4s-0.5,1.8-1.9,2.3c-1.3,0.5-2.7,0.7-4.1,0.4c-0.7-0.1-1.3-0.6-1.4-1.3
	c-0.1-0.7,0.2-1.3,0.8-1.7C50.1,35.1,51.4,34.8,52.8,34.7z"/>
<path class="st0" d="M99.3,19.4c0,1.1-0.1,2.1-0.4,3.2c-0.1,0.6-0.6,1-1.2,1.1c-0.6,0.1-1.2-0.3-1.5-0.8c-0.8-2-0.7-4.2,0.3-6.2
	c0.3-0.5,0.8-0.7,1.4-0.6c0.5,0.1,0.9,0.5,1,1C99.2,17.8,99.3,18.6,99.3,19.4z"/>
<path class="st0" d="M81.5,17.9c-0.6-0.1-1.5,0.3-1.5-0.9c0.1-0.8,0.7-1.5,1.5-1.6c0.8,0,1.5,0.7,1.5,1.5c0,0,0,0,0,0
	C83.1,18.2,82.2,17.8,81.5,17.9z"/>
<path class="st1" d="M34,75.9c0,1.3-0.4,1.9-1.1,1.8s-1.1-0.7-1.1-1.4c0-0.8,0.6-1.5,1.4-1.6C34.2,74.7,34,75.5,34,75.9z"/>
<path class="st1" d="M92.2,71.7c-0.6-0.1-1.5,0.3-1.5-0.8c0-0.9,0.7-1.6,1.6-1.7c0.8,0.1,1.4,0.7,1.5,1.6
	C93.8,72,92.9,71.7,92.2,71.7z"/>
<path class="st2" d="M18.3,43.8c0-1.7,0-3.4,0-5.1c0-1.1,0.3-1.4,1.4-1.3c1.4,0,2.7,0.9,3.2,2.2c1.1,2.8,1.2,5.9,0.2,8.7
	c-0.4,1.4-1.8,2.4-3.3,2.3c-1.1,0-1.5-0.4-1.5-1.5C18.3,47.4,18.3,45.6,18.3,43.8L18.3,43.8z"/>
<path class="st2" d="M39.4,48.9c0,1.3-0.4,1.8-1.1,1.8s-1-0.7-1.1-1.4c0-0.8,0.6-1.6,1.5-1.6C39.6,47.7,39.3,48.4,39.4,48.9z"/>
</svg>
