<?xml version="1.0" encoding="utf-8"?>
<!-- Generator: Adobe Illustrator 21.1.0, SVG Export Plug-In . SVG Version: 6.00 Build 0)  -->
<svg version="1.1" id="Layer_1" xmlns="http://www.w3.org/2000/svg" xmlns:xlink="http://www.w3.org/1999/xlink" x="0px" y="0px"
	 viewBox="0 0 166.1 111" style="enable-background:new 0 0 166.1 111;" xml:space="preserve">
<style type="text/css">
	.st0{fill:#016C87;}
	.st1{fill:#F9B728;}
</style>
<title>CR</title>
<path class="st0" d="M43,15.6L36.4,0.5h0.7c8.8,0,17.6,0,26.4,0c0.4-0.1,0.8,0.2,0.9,0.6C65.2,3.6,66,6,66.8,8.4
	c0.2,1.1,0.7,2.1,0.9,3.1c0.1,0.8,0.8,1.4,1.6,1.5c2.8,0.4,4.8,3.1,4.3,6c0,0.1,0,0.2-0.1,0.3c-0.7-2-2.4-3.5-4.5-3.7l2.6,8.1
	c0,0.3-0.2,0.5-0.3,0.7c-1.2,1.9-2.5,3.9-3.7,5.8c-1.7,2.8-3.3,5.7-3.6,9.1c-0.4,3.9,0.8,7.3,4.2,9.7c2.4,1.7,5.3,1.9,8.1,1.6
	c4.8-0.6,9.3-2.4,13.2-5.2c3.4-2.3,6.6-4.9,10-7.3c4.6-3.4,9.5-6.6,14.5-9.5c9.9-5.6,20.6-8.8,31.7-10.5c1.3-0.2,2.5-0.9,3.3-2
	c0.1-0.2,0.3-0.4,0.4-0.6c0.8,0.3,0.9,0.6,0.6,1.3c-0.5,1.2-1.3,2.2-2.3,3c-0.8,0.5-1.7,0.7-2.6,0.7c-6.2,1-12.4,2.5-18.3,4.6
	c-6.9,2.5-13.4,5.8-19.5,9.9c-1.3,0.8-2.6,1.7-3.9,2.6c-0.4,0.2-0.7,0.6-0.8,1c-4.6,10.5-9.2,21-13.8,31.6c-0.2,0.5-0.7,0.8-1.2,0.8
	c-6.6,0-13.3,0-19.9,0c-0.4,0-0.8-0.2-0.9-0.6c-7-16-14.1-32.1-21.1-48.1c-0.2-0.6-0.4-0.6-1-0.3c-6.9,3.5-13.3,7.9-19.2,12.9
	c-1.4,1.3-3.4,1.9-5.4,1.4l-0.5-0.1c-0.5,0-0.9-0.4-0.9-0.9c0-0.1,0-0.3,0.1-0.4c0.2-0.4,0.4-0.8,0.7-1.2c0.7,0.1,1.5,0.2,2.2,0.2
	c1,0.1,2.1-0.2,2.9-0.8c3.6-3.2,7.4-6.1,11.5-8.6c2.6-1.7,5.2-3.2,7.9-4.7c0.2-0.1,0.5-0.2,0.3-0.5C44,18,43.7,16.8,43,15.6z"/>
<path class="st0" d="M78,19.8c0.2,1.7-0.1,3.3-0.7,4.9c-0.8,2-1.8,3.9-2.9,5.6c-0.2,0.2-0.3,0.5-0.2,0.8c1.3,3.9,2.5,7.7,3.8,11.7
	c0.4-1.3,0.8-2.5,1.2-3.7l9.4-28.9c1-3,2-6.1,3-9.2c0.1-0.4,0.3-0.6,0.8-0.6c8.9,0,17.8,0,26.6,0h0.6l-1.8,4.1l-9.9,22.4
	c-0.1,0.1-0.1,0.2-0.1,0.4s-0.3,0.3-0.5,0.4c-6.2,3.8-12.1,8-17.9,12.4c-2.5,2-5.3,3.5-8.3,4.7c-2.2,0.9-4.6,1.4-7,1.4
	c-2.8,0.1-5.2-1.8-5.6-4.6c-0.2-1.1-0.2-2.3,0.2-3.4c0.9-2.6,2.1-5.1,3.7-7.4c1.7-2.4,3.2-5,4.5-7.6C77.3,22.1,77.7,21,78,19.8z"/>
<path class="st1" d="M78,19.8c-0.3,1.2-0.7,2.3-1.2,3.4c-1.3,2.6-2.8,5.2-4.5,7.6c-1.6,2.3-2.9,4.8-3.7,7.4
	c-0.3,1.1-0.4,2.3-0.2,3.4c0.4,2.8,2.8,4.7,5.6,4.6c2.4,0,4.8-0.5,7-1.4c3-1.2,5.8-2.7,8.3-4.7c5.7-4.4,11.7-8.6,17.9-12.4
	c0.2-0.1,0.4-0.3,0.5-0.4c1.5-0.9,3.1-1.8,4.6-2.6c6.8-3.7,14-6.6,21.5-8.7c4.6-1.3,9.3-2.3,14-3.2c0.6-0.1,1.1-0.1,1.7,0
	c0.4,0,0.8,0.3,0.8,0.8c0,0.2,0,0.3-0.1,0.5c-0.2,0.4-0.4,0.9-0.6,1.3c-0.1,0.2-0.3,0.4-0.4,0.6c-0.8,1.1-2,1.8-3.3,2
	c-11.1,1.6-21.8,4.8-31.7,10.4c-5,2.9-9.8,6-14.5,9.5c-3.3,2.4-6.6,5-10,7.3c-3.9,2.8-8.5,4.6-13.2,5.2c-2.9,0.3-5.7,0.1-8.1-1.6
	c-3.3-2.3-4.5-5.7-4.2-9.7c0.3-3.4,1.9-6.3,3.6-9.1c1.2-2,2.4-3.9,3.7-5.8c0.2-0.2,0.3-0.4,0.3-0.7c0.9-1.3,1.6-2.8,1.9-4.3
	c0.6-2.8-1.2-5.6-4-6.2c-0.1,0-0.2,0-0.3-0.1c-0.8-0.1-1.5-0.7-1.6-1.5c-0.2-1.1-0.7-2-0.9-3.1c2.8-0.1,5.4,0.8,7.6,2.4
	c2.6,2,3.9,5.2,3.5,8.4C77.9,19.5,78,19.6,78,19.8z"/>
<path class="st0" d="M146.3,110.5c-3.8,0.1-7.5-1.3-10.4-3.8c-2.5-2.3-3.9-5.5-4-8.8c-0.4-7.8,4.8-13.7,12.6-14.5
	c3.1-0.4,6.2,0.1,9,1.4c5.2,2.6,7.7,6.9,7.6,12.7c-0.1,6.2-4.1,11-10.4,12.5C149.2,110.3,147.7,110.5,146.3,110.5z M151,97.3
	c0.3-2.6-1.6-4.8-4.1-5.1c-0.1,0-0.2,0-0.3,0c-2.5-0.1-4.6,1.8-4.8,4.2c-0.3,3.1,1.4,5.3,4.4,5.4c2.5,0.2,4.6-1.6,4.9-4
	C151,97.7,151,97.5,151,97.3z"/>
<path class="st0" d="M115.1,102.4c0,2.3,0,4.6,0,7c0,0.5-0.1,0.7-0.7,0.7c-2.8,0-5.6,0-8.5,0c-0.4,0-0.6-0.1-0.6-0.6
	c0-8.4,0-16.9,0-25.3c0-0.4,0.1-0.6,0.6-0.6c4,0,8,0,11.9,0c1.4,0,2.7,0.2,4,0.6c3.8,1,6.4,4.5,6.2,8.4c0,0.7,0,1.4-0.2,2.1
	c-0.3,2-1.7,3.7-3.6,4.5l-1.1,0.5c0,0,0,0-0.1,0.1c1.4,1.1,2.2,2.7,3.2,4.1c1.2,1.8,2.4,3.6,3.6,5.4c0.2,0.2,0.3,0.4,0.3,0.6
	c-0.2,0.1-0.4,0.1-0.6,0.1c-3.3,0-6.7,0-10,0c-0.4,0-0.8-0.2-0.9-0.6c-1.1-2.3-2.2-4.5-3.3-6.8l-0.2-0.3L115.1,102.4z M115.1,93.1
	c0,0.1,0,0.3,0,0.5c0,0.5-0.3,1.2,0.1,1.5s1.2,0.1,1.8-0.1c1-0.3,1.4-0.9,1.3-2.1c0-0.9-0.7-1.6-1.6-1.6c-0.4-0.1-0.9,0-1.3-0.1
	s-0.5,0.1-0.4,0.4S115.1,92.6,115.1,93.1z"/>
<path class="st0" d="M81.7,96.8c0-4.2,0-8.4,0-12.5c0-0.5,0.1-0.6,0.7-0.6c5.6,0,11.1,0,16.7,0c0.5,0,0.7,0.1,0.7,0.6
	c0,2.1,0,4.2,0,6.3c0,0.6-0.2,0.6-0.7,0.6c-2.2,0-4.5,0-6.7,0c-0.5,0-0.6,0.1-0.6,0.7c0,1.4,0,1.4,1.4,1.4c1.8,0,3.5,0,5.3,0
	c0.5,0,0.6,0.1,0.6,0.6c0,2,0,4,0,6c0,0.6-0.2,0.6-0.7,0.6c-2,0-4,0-6,0c-0.5,0-0.6,0.1-0.6,0.6c0,1.5,0,1.5,1.5,1.5
	c2.1,0,4.1,0,6.2,0c0.5,0,0.6,0.1,0.6,0.6c0,2.1,0,4.2,0,6.4c0,0.5-0.1,0.6-0.6,0.6c-5.7,0-11.3,0-17,0c-0.5,0-0.7-0.1-0.7-0.7
	C81.7,105.2,81.7,101,81.7,96.8z"/>
<path class="st0" d="M41.7,96c-0.8,3.3-1.8,6.5-2.8,9.7c-0.4,1.3-0.8,2.6-1.1,3.8c0,0.3-0.3,0.5-0.6,0.5c0,0,0,0,0,0
	c-3.1,0-6.3,0-9.4,0c-0.6,0-0.4-0.3-0.3-0.6l6.2-16c1.2-3.1,2.4-6.2,3.6-9.3c0.1-0.3,0.4-0.6,0.8-0.5c2.4,0,4.8,0,7.2,0
	c0.3,0,0.7,0.2,0.7,0.5c3.2,8.4,6.5,16.8,9.8,25.2c0.3,0.7,0.3,0.7-0.5,0.7h-9c-0.3,0-0.6,0-0.7-0.4c-1.2-4.2-2.4-8.5-3.7-12.7
	C41.9,96.6,41.9,96.3,41.7,96z"/>
<path class="st0" d="M29.2,83.6c-0.4,1.1-0.8,2.2-1.3,3.3c-2.9,7.5-5.8,15.1-8.7,22.6c-0.1,0.4-0.4,0.6-0.8,0.6c-2.4,0-4.8,0-7.2,0
	c-0.3,0.1-0.6-0.2-0.7-0.5c-3.3-8.4-6.5-16.9-9.8-25.3c-0.1-0.2-0.2-0.4-0.1-0.6H5c1.8,0,3.5,0,5.3,0c0.3,0,0.5,0.1,0.6,0.4
	c1.2,4.3,2.5,8.7,3.7,13c0,0.2,0.1,0.4,0.1,0.6c0.2,0,0.2-0.1,0.2-0.2c1.1-4.5,2.6-8.9,3.8-13.3c0.1-0.3,0.2-0.4,0.5-0.4L29.2,83.6z
	"/>
<path class="st0" d="M58.7,96.8c0-4.1,0-8.3,0-12.4c0-0.6,0.2-0.7,0.8-0.7c2.8,0,5.7,0,8.5,0c0.6,0,0.7,0.2,0.7,0.7
	c0,5.4,0,10.8,0,16.2c0,0.6,0.2,0.7,0.8,0.7c2.2,0,4.4,0,6.6,0c0.5,0,0.6,0.1,0.6,0.6c0,2.5,0,5.1,0,7.6c0,0.4-0.1,0.5-0.6,0.5
	c-5.6,0-11.2,0-16.7,0c-0.5,0-0.5-0.2-0.5-0.6C58.8,105.2,58.8,101,58.7,96.8L58.7,96.8z"/>
<path class="st1" d="M43,15.6c0.6,1.1,1.1,2.4,1.6,3.6c0.2,0.4-0.1,0.4-0.3,0.5c-2.7,1.4-5.3,3-7.9,4.7c-4.1,2.5-7.9,5.4-11.5,8.6
	c-0.8,0.7-1.8,1-2.9,0.8c-0.7,0-1.5-0.1-2.2-0.2c-0.7-0.3-0.9-0.7-0.7-1.4c0.2-0.5,0.5-0.9,0.9-1.3c4-3.5,8.2-6.6,12.7-9.4
	C36.1,19.4,39.5,17.4,43,15.6z"/>
<path class="st0" d="M165.6,86.7c0.1,1.2-0.9,2.3-2.1,2.3c-0.1,0-0.1,0-0.2,0c-1.3,0-2.3-1-2.3-2.3c0-1.3,1-2.3,2.3-2.3
	c1.2,0,2.3,0.9,2.3,2.2C165.6,86.6,165.6,86.7,165.6,86.7z M164.5,88.1c0.8-0.6,0.9-1.7,0.3-2.5c0,0-0.1-0.1-0.1-0.1
	c-0.6-0.7-1.6-0.8-2.3-0.3c0,0,0,0,0,0h0.7c0.2,0,0.5,0,0.7,0c0.6,0.1,1,0.6,0.8,1C164.1,86.9,164.6,87.4,164.5,88.1L164.5,88.1z
	 M164.5,88.2c-0.8,0.1-0.6-0.3-0.6-0.6s-0.3-0.5-0.6-0.5s-0.4,0.3-0.4,0.6s0.1,0.8-0.6,0.6C162.9,88.7,163.8,88.7,164.5,88.2
	L164.5,88.2z M162.2,85.3c-0.8,0.5-1,1.6-0.4,2.4c0.1,0.2,0.3,0.3,0.4,0.4V85.3z M163.2,86.6c0.4,0,0.8,0,0.7-0.4s-0.4-0.4-0.6-0.4
	s-0.4,0-0.4,0.4S162.9,86.6,163.2,86.6L163.2,86.6z"/>
</svg>
