<?xml version="1.0" encoding="utf-8"?>
<!-- Generator: Adobe Illustrator 21.1.0, SVG Export Plug-In . SVG Version: 6.00 Build 0)  -->
<svg version="1.1" id="Layer_1" xmlns="http://www.w3.org/2000/svg" xmlns:xlink="http://www.w3.org/1999/xlink" x="0px" y="0px"
	 viewBox="0 0 185.2 125.9" style="enable-background:new 0 0 185.2 125.9;" xml:space="preserve">
<style type="text/css">
	.st0{fill:#4A2401;}
	.st1{fill:#E16F34;}
	.st2{fill:#F9D201;}
	.st3{fill:#492300;}
</style>
<title>Midscale</title>
<path class="st0" d="M0.5,8.3c0.1-0.5,0.2-1,0.4-1.4c0.9-3.1,2.7-5.3,5.9-6.2c0.5-0.1,1-0.2,1.4-0.2c56.2,0,112.5,0,168.7,0
	c2.9,0,4.9,1.7,6.4,4.1c0.6,1.1,1.1,2.3,1.2,3.5c0,0.1,0,0.2,0.1,0.3v3c-0.3,1-0.6,2-0.9,3l-11.4,39c-6,20.7-12.1,41.5-18.1,62.3
	c-0.5,2.1-1.3,4.1-2.5,5.9c-1.7,2.5-4.6,3.9-7.6,3.9c-0.6,0-1.3,0-1.9,0H42.1c-1.8,0.1-3.7-0.3-5.3-1c-2.2-1.1-3.9-3-4.8-5.4
	c-0.9-2.6-1.7-5.2-2.4-7.8C26.2,99.6,22.8,88,19.4,76.4C13.3,55.3,7.2,34.2,1,13.2c-0.1-0.6-0.3-1.2-0.5-1.8L0.5,8.3z M92.6,2.8H8.5
	C7.2,2.8,6,3.3,5.1,4.2c-2.2,2-3,5.2-2,8c1.6,5.7,3.3,11.3,4.9,17l7.1,24.3l5.5,18.8l6.8,23.4c1.6,5.4,3.2,10.9,4.8,16.3
	c0.6,2.2,1.3,4.4,2.1,6.6c0.7,1.9,2.2,3.4,4.1,4.2c1.8,0.5,3.6,0.7,5.5,0.5c0.3,0,0.2-0.2,0.3-0.4c0-0.6,0.5-1,1-1s1,0.5,1,1
	c0,0.3,0.1,0.4,0.4,0.4c0.6,0,1.3,0,1.9,0c0.7,0.1,1.4-0.3,1.6-1c4.4-8.4,11.2-15.3,19.7-19.6c6.1-3.3,12.8-5.2,19.7-5.6
	c9.7-0.7,19.3,1.6,27.7,6.5c4.8,2.8,9,6.4,12.5,10.6c2.3,2.7,4.2,5.6,5.8,8.8c0.1,0.3,0.4,0.5,0.7,0.4c0.8,0,1.6,0,2.4,0
	c0.3,0,0.5-0.1,0.5-0.4c0-0.6,0.5-1,1-1s1,0.5,1,1c0,0.4,0.1,0.4,0.4,0.4c1.3,0,2.6,0,3.9-0.1c1.8-0.2,3.5-1.1,4.6-2.5
	c1.1-1.6,1.9-3.4,2.3-5.3c3.6-12.3,7.2-24.7,10.8-37l8.9-30.5c3.4-11.6,6.8-23.3,10.2-34.9c0.7-1.9,0.7-4,0.1-5.9
	c-0.8-2.6-3.2-4.3-5.9-4.2L92.6,2.8z M51.7,123.1h81c0.6,0,0.6,0,0.3-0.6c-2.5-4.6-5.7-8.7-9.6-12.1c-8.2-7.3-18.7-11.4-29.7-11.6
	c-4.2-0.2-8.4,0.3-12.5,1.4c-12.8,3.3-22.6,10.6-29.1,22.1C51.9,122.5,51.7,122.8,51.7,123.1z"/>
<path class="st1" d="M92.6,2.8h83.5c2.7-0.2,5.2,1.6,5.9,4.2c0.6,1.9,0.6,4-0.1,5.9c-3.4,11.6-6.8,23.3-10.2,34.9l-8.9,30.5
	c-3.6,12.3-7.2,24.7-10.8,37c-0.4,1.9-1.2,3.7-2.3,5.3c-1.1,1.5-2.8,2.4-4.6,2.5c-1.3,0.1-2.6,0.1-3.9,0.1c-0.3,0-0.4,0-0.4-0.4
	c0-0.6-0.4-1-1-1s-1,0.4-1,1l0,0c0,0.4-0.1,0.4-0.5,0.4c-0.8,0-1.6,0-2.4,0c-0.3,0-0.6-0.1-0.7-0.4c-1.6-3.1-3.5-6.1-5.8-8.8
	c-3.5-4.2-7.8-7.8-12.6-10.6c-8.4-4.9-18-7.1-27.7-6.5c-6.9,0.4-13.6,2.3-19.6,5.6c-8.4,4.4-15.3,11.2-19.7,19.7
	c-0.2,0.7-0.9,1.1-1.6,1c-0.6,0-1.3,0-1.9,0c-0.3,0-0.4,0-0.4-0.4c0-0.6-0.5-1-1-1s-1,0.5-1,1c0,0.2,0,0.4-0.3,0.4
	c-1.8,0.2-3.7,0-5.5-0.5c-1.9-0.8-3.4-2.3-4.1-4.2c-0.8-2.1-1.5-4.3-2.1-6.6c-1.6-5.4-3.2-10.9-4.8-16.3l-6.8-23.4l-5.5-18.8L8,29.1
	c-1.7-5.7-3.3-11.3-4.9-17c-1-2.8-0.2-6,2-8C6,3.3,7.2,2.8,8.5,2.8L92.6,2.8z M117.8,46.4l-0.9,0.4c-2.2,1-3.2,3.6-2.2,5.9
	c0.1,0.1,0.1,0.2,0.2,0.4c0.7,1.5,2,2.6,3.5,3.1c4.1,1.5,8.5,1.5,12.7,0.2c1.7-0.4,3.1-1.5,3.9-3c1.5-2.6,1.4-7-2.9-8.8
	c-1.6-0.6-3.4-1-5.1-1c-1.6-0.1-3.2-0.1-4.8-0.2c-1.4-0.1-2-1-1.6-2.2c0.1-0.4,0.3-0.5,0.8-0.4c2.7,1,5.7,0.8,8.2-0.5
	c3.1-1.5,4.5-5.1,3.2-8.3c-0.1-0.3,0-0.4,0.3-0.4c0.6,0,1.3,0,1.9,0c0.4,0,0.5-0.1,0.5-0.5c0-1.1,0-2.3,0-3.4c0-0.4-0.1-0.5-0.5-0.5
	c-2.2,0-4.4,0-6.7,0c-0.3,0-0.5,0-0.8-0.1c-1.9-0.4-3.9-0.4-5.8,0.2c-3.7,0.9-5.9,4.6-5,8.3c0.2,1,0.7,1.9,1.3,2.7
	c0.3,0.3,0.1,0.4-0.2,0.5c-2.1,1-3,3.5-2,5.6C116.3,45.2,117,45.9,117.8,46.4L117.8,46.4z M41.2,34.8l-0.4-1.2
	c-0.5-1.8-1.1-3.6-1.8-5.3c-1.8-4.1-3.7-8.2-5.4-12.3c-0.1-0.3-0.4-0.5-0.7-0.4c-1.9,0-3.9,0-5.9,0c-0.5,0-0.5,0.1-0.3,0.5
	c4.6,10.2,9.2,20.4,13.8,30.6c0.1,0.2,0.1,0.6,0.5,0.5s0.5-0.3,0.6-0.6l3.2-7.4C48.2,31.5,51.6,23.8,55,16c0.2-0.4,0.1-0.5-0.3-0.5
	c-1.7,0-3.4,0-5.1,0c-0.4-0.1-0.7,0.2-0.8,0.5c-0.8,1.9-1.6,3.7-2.4,5.6c-1.3,3-2.7,5.9-3.7,9C42.1,32,41.7,33.4,41.2,34.8z M144,39
	h14.4c0.4,0,0.6-0.1,0.6-0.6c0-0.9,0-1.8-0.2-2.7c-0.3-2.8-1.8-5.3-4-6.9c-2.4-1.6-5.3-2.3-8.1-1.8c-5.5,0.6-9.6,5.5-9,11
	c0,0,0,0,0,0c0.2,3.7,2.6,7,6.1,8.3c2.4,1,5,1.3,7.5,0.9c2.1-0.2,4.1-1,5.8-2.4c0.2-0.2,0.5-0.3,0.1-0.7c-1-1.1-2-2.1-3-3.2
	c-0.2-0.2-0.3-0.2-0.6-0.1c-1.6,1-3.6,1.5-5.5,1.3C146.3,42.2,144.6,40.9,144,39z M104.8,44.4h0.1c0,0.7-0.1,1.3-0.1,2
	c0,0.4,0.1,0.5,0.5,0.5c1.7,0,3.4,0,5.1,0c0.4,0,0.6-0.1,0.6-0.6c0-3.1,0-6.2,0-9.3c0-1,0-1.9-0.1-2.9c-0.2-3.2-2.5-6-5.6-6.9
	c-1.5-0.4-3.2-0.5-4.8-0.4C98,27,95.7,28,93.9,29.7c-0.2,0.2-0.3,0.3-0.1,0.6c1,1,1.9,2,2.8,3c0.2,0.2,0.4,0.3,0.7,0.1
	c1.2-1,2.8-1.5,4.4-1.4c1.6-0.1,2.9,1.1,3,2.7c0.1,0.8,0.2,0.7-0.6,0.7c-2.3-0.1-4.6,0-6.9,0.3c-1.6,0.2-3,1-4,2.2
	c-1,1.5-1.3,3.3-0.9,5c0.3,1.6,1.3,3,2.8,3.8c1,0.5,2.2,0.8,3.4,0.8c2.2,0.3,4.4-0.6,5.8-2.3C104.4,44.8,104.6,44.6,104.8,44.4
	L104.8,44.4z M110.8,65.7c0-0.9,0-1.7,0-2.4c0-0.4,0-0.5-0.5-0.5c-1.7,0-3.4,0.1-5.1,0c-0.4,0-0.6,0.1-0.6,0.6c0,6.2,0,12.3,0,18.5
	c0,0.5,0.2,0.6,0.6,0.6c1.6,0,3.2,0,4.9,0c0.6,0,0.7-0.2,0.7-0.8c0-3.4,0-6.8,0-10.2c-0.1-1.4,0.7-2.6,2-3.1
	c0.8-0.3,1.7-0.5,2.6-0.3c1.3,0.1,2.4,1.1,2.6,2.4c0.1,0.5,0.1,1,0.1,1.4c0,3.3,0,6.7,0,10c0,0.5,0.1,0.6,0.6,0.6
	c1.6,0,3.2-0.1,4.8,0c0.7,0,0.7,0.1,0.7-0.7c0-3.6,0-7.3,0-10.9c0-1.1-0.2-2.3-0.5-3.4c-1.1-3.8-5.1-6-8.9-4.9
	c-0.8,0.2-1.6,0.6-2.3,1.2C112,64.4,111.4,65,110.8,65.7L110.8,65.7z M85.5,65.7c0-0.9,0.1-1.7,0.1-2.4c0-0.4-0.1-0.5-0.5-0.5
	c-1.7,0-3.3,0-5,0c-0.4,0-0.6,0.1-0.6,0.6c0,6.2,0,12.3,0,18.5c0,0.4,0.1,0.5,0.5,0.5c1.6,0,3.2,0,4.8,0c0.6,0,0.8-0.1,0.8-0.7
	c0-3.2,0-6.4,0-9.6c0-2.3,1.1-3.6,3.2-4s3.7,0.6,4.1,2.5c0.1,0.4,0.1,0.7,0.1,1.1c0,3.4,0,6.7,0,10.1c0,0.5,0.1,0.7,0.6,0.7
	c1.6,0,3.3,0,4.9,0c0.5,0,0.6-0.1,0.6-0.7c0-3.6,0-7.3,0-10.9c0-1.3-0.2-2.6-0.7-3.8c-0.8-2.5-3.1-4.3-5.7-4.6
	c-2.5-0.4-5,0.6-6.6,2.6C86.1,65.3,85.8,65.6,85.5,65.7L85.5,65.7z M87.6,31.4c0-4.9,0-9.9,0-14.8c0-0.3-0.1-0.7-0.3-0.9
	c-1.3-1.3-2.5-2.5-3.8-3.8c-0.3-0.3-0.4-0.3-0.7,0c-1.3,1.3-2.5,2.5-3.8,3.8c-0.2,0.2-0.3,0.4,0,0.6c0.6,0.5,1.1,1.1,1.7,1.6
	c0.6,0.5,0.9,1.2,0.8,1.9c0,8.8,0,17.7,0,26.5c0,0.5,0.2,0.7,0.7,0.7c1.6,0,3.2,0,4.8,0c0.5,0,0.7-0.1,0.6-0.7
	C87.6,41.3,87.6,36.4,87.6,31.4z M75.3,31.4c0-5,0-9.9,0-14.9c0-0.3,0-0.5-0.2-0.8c-1.3-1.3-2.6-2.6-3.9-3.9c-0.2-0.2-0.4-0.2-0.6,0
	c-1.3,1.3-2.6,2.6-3.9,3.9c-0.2,0.2-0.2,0.4,0,0.6c0.7,0.7,1.3,1.4,2,2c0.3,0.3,0.5,0.7,0.5,1.1c0,9,0,18,0,26.9
	c0,0.5,0.1,0.7,0.7,0.6c1.6,0,3.2,0,4.8,0c0.5,0,0.6-0.1,0.6-0.6C75.3,41.3,75.3,36.4,75.3,31.4L75.3,31.4z M74.2,67.5
	c0-4.8,0-9.6,0-14.4c0-0.1,0-0.3,0-0.4s-0.1-0.4-0.4-0.4h-5.4c-0.3,0-0.4,0.1-0.3,0.3s0.1,0.8,0,1.2c0,9.4,0.1,18.8-0.1,28.2
	c0,0.4,0.1,0.5,0.5,0.5c1.7,0,3.3,0,5,0c0.5,0,0.7-0.1,0.7-0.7C74.1,77,74.2,72.2,74.2,67.5L74.2,67.5z M57,37.2c0,3.1,0,6.2,0,9.2
	c0,0.4,0.1,0.6,0.6,0.6c1.7,0,3.4,0,5.1,0c0.4,0,0.6-0.1,0.6-0.6c0-6.2,0-12.4,0-18.6c0-0.4-0.1-0.5-0.5-0.5c-1.7,0-3.4,0-5.1,0
	c-0.5,0-0.6,0.1-0.6,0.6C57,31,57,34.1,57,37.2z M63.5,21.4c-0.1-0.1-0.1-0.1-0.2-0.2c-1-1-2.1-2.1-3.1-3.1c-0.2-0.2-0.3-0.1-0.5,0
	c-1,1-2,2-3,3c-0.3,0.3-0.2,0.4,0,0.6c1,1,2,2,3,3c0.2,0.3,0.4,0.2,0.6,0c1-1,2-2,3-3C63.4,21.6,63.5,21.6,63.5,21.4L63.5,21.4z
	 M130.5,80.2c-1.1,0-2,0.9-2,2s0.9,2,2,2c1.1,0,2-0.9,2-2C132.5,81.1,131.7,80.3,130.5,80.2L130.5,80.2z M67.8,99.3c0-0.6-0.5-1-1-1
	s-1,0.5-1,1s0.5,1,1,1S67.8,99.9,67.8,99.3z M95.3,91.8c-0.6,0-1,0.4-1.1,1c0,0.6,0.5,1,1.1,1.1c0.6,0,1-0.4,1-1
	C96.4,92.3,95.9,91.8,95.3,91.8C95.4,91.8,95.4,91.8,95.3,91.8L95.3,91.8z M132.9,110.3c0-0.6-0.4-1-1-1c-0.6,0-1,0.4-1,1
	c0,0,0,0,0,0.1c0.1,0.6,0.5,1,1.1,1C132.5,111.3,132.9,110.8,132.9,110.3L132.9,110.3z M61.8,103.5c0.6,0,1-0.5,1-1.1
	c0-0.6-0.5-1-1.1-1c-0.6,0-1,0.5-1,1.1C60.7,103.1,61.2,103.5,61.8,103.5L61.8,103.5z M127.7,105c-0.6,0-1,0.4-1,1
	c0,0.6,0.4,1,1,1.1c0.6,0,1-0.5,1.1-1c0-0.6-0.4-1-0.9-1.1C127.8,105,127.7,105,127.7,105z M93.4,92.8c0-0.6-0.4-1-1-1.1
	c-0.6,0-1.1,0.4-1.1,1c0,0.6,0.4,1.1,1,1.1l0,0C92.9,93.8,93.4,93.4,93.4,92.8z M108.1,94.7c0-0.6-0.5-1-1.1-1s-1,0.5-1,1.1
	s0.5,1,1.1,1S108.1,95.3,108.1,94.7L108.1,94.7z M83.5,94.5c0.6,0,1-0.4,1.1-0.9c0,0,0,0,0-0.1c0-0.6-0.5-1-1-1s-1,0.5-1,1
	C82.5,94.1,82.9,94.5,83.5,94.5C83.5,94.5,83.5,94.5,83.5,94.5L83.5,94.5z M56,108.2c0-0.6-0.4-1-1-1s-1,0.4-1,1s0.4,1,1,1
	S56,108.7,56,108.2z M59.4,105.3c0.6,0,1-0.5,1-1.1c0-0.6-0.5-1-1.1-1c-0.6,0-1,0.4-1,1c0,0,0,0,0,0.1
	C58.4,104.8,58.9,105.3,59.4,105.3z M105.2,94c0-0.6-0.4-1-0.9-1c0,0,0,0-0.1,0c-0.6,0-1,0.4-1.1,1c0,0.6,0.4,1,1,1.1
	C104.7,95,105.1,94.6,105.2,94C105.2,94,105.2,94,105.2,94z M51.2,111.5c-0.6,0-1,0.4-1.1,1c0,0.6,0.4,1,1,1.1l0,0
	c0.6,0,1-0.4,1.1-1C52.2,112.1,51.8,111.6,51.2,111.5C51.2,111.6,51.2,111.6,51.2,111.5L51.2,111.5z M87.5,93c0-0.6-0.4-1-1-1
	c0,0,0,0-0.1,0c-0.6,0-1,0.5-1,1.1c0,0.6,0.5,1,1.1,1C87.1,94,87.5,93.6,87.5,93L87.5,93z M81.7,94c0-0.5-0.5-1-1-1
	c-0.5,0.1-1,0.5-1,1.1c0,0.6,0.5,1,1.1,1C81.3,95,81.7,94.6,81.7,94L81.7,94z M48.8,117.5c0-0.6-0.5-1-1-1s-1,0.5-1,1s0.5,1,1,1
	S48.8,118.1,48.8,117.5z M72.1,97.8c0.6,0,1-0.4,1.1-1c0-0.6-0.4-1-1-1.1c-0.6,0-1,0.4-1,1C71.2,97.3,71.6,97.7,72.1,97.8z
	 M112.7,95.7c-0.6,0-1,0.4-1.1,0.9c0,0,0,0,0,0.1c0,0.6,0.4,1,1,1.1c0.6,0,1-0.4,1.1-1C113.7,96.2,113.3,95.7,112.7,95.7
	C112.7,95.7,112.7,95.7,112.7,95.7z M46.3,121.1c0.6,0,1-0.4,1.1-1c0-0.6-0.5-1-1-1s-1,0.5-1,1C45.4,120.7,45.8,121.1,46.3,121.1z
	 M115.3,98.9c0.6,0,1-0.5,1-1.1c0,0,0,0,0,0c0-0.6-0.4-1-1-1c-0.5,0-1,0.5-1,1C114.3,98.4,114.8,98.9,115.3,98.9L115.3,98.9z
	 M119,99.2c0-0.6-0.4-1-1-1.1c-0.6,0-1,0.4-1,1s0.4,1,1,1C118.6,100.1,119,99.8,119,99.2L119,99.2z M123,103.4c0.6,0,1-0.5,0.9-1.1
	c0-0.6-0.5-1-1.1-0.9c-0.5,0-0.9,0.5-0.9,1C122,102.9,122.4,103.4,123,103.4C123,103.4,123,103.4,123,103.4L123,103.4z M90.4,92.9
	c0-0.6-0.4-1-0.9-1c0,0,0,0-0.1,0c-0.6,0-1,0.4-1.1,0.9c0,0,0,0,0,0.1c0,0.6,0.4,1,1,1.1c0.6,0,1-0.4,1.1-0.9
	C90.4,92.9,90.4,92.9,90.4,92.9L90.4,92.9z M99.3,93c0-0.6-0.4-1-1-1s-1,0.4-1,1c0.1,0.6,0.5,1,1.1,1C98.9,94,99.3,93.6,99.3,93
	L99.3,93z M110.9,95.7c0.1-0.5-0.3-1-0.9-1.1c0,0,0,0-0.1,0c-0.6,0-1.1,0.4-1.1,1c0,0,0,0,0,0c0,0.5,0.5,1,1,1.1
	C110.3,96.7,110.8,96.3,110.9,95.7C110.9,95.7,110.9,95.7,110.9,95.7L110.9,95.7z M129.8,107.1c-0.6,0-1,0.5-1,1s0.5,1,1,1
	s1-0.5,1-1S130.4,107.1,129.8,107.1z M64.2,99.8c-0.6,0-1,0.4-1,1c0,0.5,0.5,1,1,1c0.6,0,1-0.5,1-1S64.8,99.7,64.2,99.8L64.2,99.8
	L64.2,99.8z M120.6,99.7c-0.6,0-1,0.4-1,1s0.4,1,1,1s1-0.4,1-1C121.5,100.2,121.1,99.7,120.6,99.7L120.6,99.7z M75.9,95.7
	c0-0.5-0.5-1-1-1c-0.5,0-1,0.5-1,1c0,0.5,0.5,1,1,1C75.5,96.7,75.9,96.2,75.9,95.7L75.9,95.7z M52.9,111.3c0.6,0,1-0.4,1.1-0.9
	c0,0,0,0,0-0.1c0-0.6-0.4-1-1-1c-0.6,0-1,0.4-1.1,0.9c0,0,0,0,0,0.1C51.9,110.9,52.4,111.3,52.9,111.3
	C52.9,111.4,52.9,111.4,52.9,111.3L52.9,111.3z M137,116.4c-0.6,0-1,0.5-1,1s0.5,1,1,1c0.6,0,1-0.4,1-1
	C138.1,116.9,137.6,116.4,137,116.4C137.1,116.4,137.1,116.4,137,116.4L137,116.4z M138.5,121c0.5,0.1,1-0.3,1.1-0.9
	c0,0,0-0.1,0-0.1c-0.1-0.6-0.5-1-1.1-1c-0.6,0-1,0.4-1,1C137.5,120.6,137.9,121,138.5,121C138.5,121,138.5,121,138.5,121L138.5,121z
	 M100.2,93.5c0,0.6,0.4,1,1,1s1-0.4,1-1s-0.4-1-1-1C100.6,92.5,100.2,92.9,100.2,93.5L100.2,93.5z M136.5,115c0-0.6-0.4-1-0.9-1.1
	c0,0,0,0-0.1,0c-0.6,0-1,0.4-1,1c0,0.6,0.4,1,1,1C136,116,136.5,115.5,136.5,115L136.5,115z M49.4,116c0.6,0,1-0.4,1-1s-0.4-1-1-1
	s-1,0.4-1,1S48.8,116,49.4,116z M125.4,105.1c0.6,0,1-0.4,1-1s-0.4-1-1-1s-1,0.4-1,1S124.8,105.1,125.4,105.1z M68.4,97.9
	c0,0.6,0.4,1,1,1s1-0.4,1-1c0-0.6-0.4-1-0.9-1.1c0,0-0.1,0-0.1,0C68.8,96.9,68.4,97.4,68.4,97.9L68.4,97.9z M77.7,93.7
	c-0.6,0-1,0.4-1,1s0.4,1,1,1s1-0.4,1-1C78.6,94.2,78.2,93.8,77.7,93.7L77.7,93.7z M134.7,112.5c0-0.6-0.4-1-1-1c-0.5,0-1,0.3-1,0.9
	c0,0,0,0.1,0,0.1c0,0.6,0.4,1,1,1S134.7,113.1,134.7,112.5z M58.1,106.1c0-0.6-0.4-1-1-1s-1,0.4-1,1s0.4,1,1,1
	C57.6,107.2,58.1,106.8,58.1,106.1C58.2,106.2,58.2,106.2,58.1,106.1L58.1,106.1z"/>
<path class="st2" d="M51.7,123.1c0.1-0.3,0.2-0.6,0.4-0.9c6.5-11.5,16.3-18.8,29.1-22.1c4.1-1.1,8.3-1.5,12.5-1.4
	c11,0.2,21.5,4.4,29.7,11.6c3.9,3.4,7.2,7.6,9.6,12.1c0.3,0.6,0.3,0.6-0.3,0.6L51.7,123.1L51.7,123.1z M87.5,115.1
	c-0.8-2.3-1.7-4.5-2.8-6.7c-0.1-0.1-0.1-0.3-0.3-0.3h-2.7c0,0.1,0.1,0.2,0.1,0.3l5.3,10.5c0.1,0.1,0.1,0.3,0.3,0.3s0.3-0.2,0.4-0.4
	l4.2-8.5c0.3-0.7,0.7-1.4,1.1-2.2c-0.7,0-1.4,0-2,0c-0.4-0.1-0.8,0.2-0.9,0.6C89.2,110.8,88,112.8,87.5,115.1L87.5,115.1z
	 M95.1,113.5c0,1.7,0,3.4,0,5c0,0.3,0,0.5,0.4,0.5c0.6,0,1.3,0,1.9,0c0.3,0,0.4-0.1,0.4-0.4c0-3.4,0-6.7,0-10.1
	c0-0.3-0.1-0.4-0.4-0.4c-0.6,0-1.2,0-1.8,0c-0.4,0-0.5,0.1-0.5,0.5C95.1,110.3,95.1,111.9,95.1,113.5L95.1,113.5z M94.7,104
	c0,0.9,0.7,1.7,1.6,1.8c0,0,0.1,0,0.1,0c0.9,0,1.7-0.7,1.8-1.6c0,0,0,0,0-0.1c0-1-0.7-1.7-1.7-1.8c0,0,0,0,0,0
	C95.6,102.2,94.8,103,94.7,104C94.7,103.9,94.7,104,94.7,104L94.7,104z"/>
<path class="st3" d="M117.8,46.4c-0.8-0.5-1.5-1.2-1.9-2.1c-1-2.1-0.1-4.6,2-5.6c0.2-0.1,0.4-0.2,0.2-0.5c-2.4-2.9-2-7.3,1-9.7
	c0.8-0.6,1.7-1.1,2.7-1.3c1.9-0.6,3.9-0.6,5.8-0.2c0.3,0.1,0.5,0.1,0.8,0.1c2.2,0,4.4,0,6.7,0c0.4,0,0.6,0.1,0.5,0.5
	c0,1.1,0,2.3,0,3.4c0,0.4-0.1,0.5-0.5,0.5c-0.6,0-1.3,0-1.9,0c-0.3,0-0.4,0-0.3,0.4c1.3,3.2-0.1,6.8-3.2,8.3
	c-2.5,1.3-5.5,1.5-8.2,0.5c-0.5-0.2-0.6,0-0.8,0.4c-0.5,1.1,0.2,2.1,1.6,2.2c1.6,0.1,3.2,0.2,4.8,0.2c1.8,0,3.5,0.4,5.1,1
	c4.3,1.7,4.4,6.1,2.9,8.8c-0.9,1.5-2.3,2.6-3.9,3c-4.1,1.3-8.6,1.3-12.7-0.2c-1.5-0.5-2.8-1.6-3.5-3.1c-1.2-2.1-0.4-4.8,1.7-6
	c0.1-0.1,0.2-0.1,0.4-0.2L117.8,46.4z M125,52.5c0.3,0,0.6,0,0.9,0c0.9,0,1.8-0.2,2.6-0.6c0.6-0.4,1-1.1,0.8-1.8
	c-0.1-0.7-0.6-0.9-1.2-1c-0.2-0.1-0.4-0.1-0.6-0.1c-2-0.3-4.1-0.3-6.2-0.5c-0.3-0.1-0.7,0.1-0.8,0.5c-0.6,1.1-0.1,2.4,1,3
	c0,0,0,0,0,0C122.7,52.4,123.8,52.6,125,52.5z M127.8,34.1c0.1-1.4-1.1-2.7-2.5-2.7c-0.1,0-0.2,0-0.3,0c-1.5-0.2-2.8,0.8-3,2.3
	c0,0.1,0,0.2,0,0.3c-0.1,1.5,1.1,2.7,2.6,2.8c0.1,0,0.2,0,0.3,0c1.5,0.1,2.8-0.9,2.9-2.4C127.8,34.3,127.8,34.2,127.8,34.1z"/>
<path class="st3" d="M41.2,34.8c0.5-1.4,0.9-2.8,1.3-4.1c1-3.1,2.5-6,3.7-9c0.8-1.9,1.6-3.7,2.4-5.6c0.1-0.4,0.5-0.6,0.8-0.5
	c1.7,0,3.4,0,5.1,0c0.4,0,0.5,0.1,0.3,0.5c-3.4,7.7-6.7,15.4-10.1,23.2l-3.2,7.4c-0.1,0.3-0.2,0.5-0.6,0.6s-0.4-0.3-0.5-0.5
	c-4.6-10.2-9.2-20.4-13.8-30.6c-0.2-0.4-0.2-0.5,0.3-0.5c1.9,0,3.9,0,5.9,0c0.3-0.1,0.6,0.1,0.7,0.4c1.8,4.1,3.7,8.2,5.4,12.3
	c0.7,1.7,1.3,3.5,1.8,5.3L41.2,34.8z"/>
<path class="st3" d="M144,39c0.5,1.9,2.3,3.2,4.3,3.3c1.9,0.2,3.9-0.3,5.5-1.3c0.3-0.2,0.4-0.2,0.6,0.1c1,1.1,2,2.2,3,3.2
	c0.3,0.3,0.1,0.5-0.1,0.7c-1.7,1.3-3.7,2.2-5.8,2.4c-2.5,0.4-5.1,0.1-7.5-0.9c-3.5-1.3-5.9-4.5-6.1-8.3c-0.6-5.5,3.4-10.5,9-11
	c0,0,0,0,0,0c2.8-0.5,5.7,0.1,8.1,1.7c2.2,1.7,3.7,4.2,4,6.9c0.1,0.9,0.2,1.8,0.2,2.7c0,0.5-0.2,0.6-0.6,0.6L144,39L144,39z
	 M148.3,35.5h4c0.2,0,0.5,0.1,0.4-0.3c-0.2-1-0.7-1.9-1.5-2.5c-1-0.7-2.3-0.9-3.5-0.7c-1.7,0.1-3.1,1.3-3.6,2.9
	c-0.2,0.5,0,0.6,0.5,0.6C145.8,35.4,147.1,35.5,148.3,35.5L148.3,35.5z"/>
<path class="st3" d="M104.8,44.4c-0.2,0.2-0.4,0.4-0.5,0.6c-1.4,1.7-3.6,2.6-5.8,2.3c-1.2,0-2.3-0.3-3.4-0.8
	c-1.5-0.7-2.5-2.1-2.8-3.8c-0.5-1.7-0.1-3.5,0.9-5c1-1.2,2.4-2,4-2.2c2.3-0.3,4.6-0.4,6.9-0.3c0.8,0,0.7,0.1,0.6-0.7
	c-0.1-1.6-1.4-2.7-3-2.7c-1.6-0.1-3.2,0.4-4.5,1.5c-0.3,0.3-0.4,0.2-0.7-0.1c-0.9-1-1.9-2-2.8-3c-0.3-0.3-0.2-0.4,0.1-0.6
	c1.8-1.7,4.2-2.7,6.7-2.8c1.6-0.2,3.2,0,4.8,0.4c3.1,0.9,5.3,3.6,5.6,6.9c0.1,1,0.1,1.9,0.1,2.9c0,3.1,0,6.2,0,9.3
	c0,0.4-0.1,0.6-0.6,0.6c-1.7,0-3.4,0-5.1,0c-0.4,0-0.5-0.1-0.5-0.5c0.1-0.7,0.1-1.3,0.1-2L104.8,44.4z M102.2,39L102.2,39
	c-0.8,0-1.5,0-2.3,0c-0.9,0-1.7,0.7-1.8,1.6c-0.1,0.9,0.5,1.7,1.4,1.8c1.1,0.3,2.2,0.2,3.2-0.1c1.3-0.3,2.2-1.6,2-2.9
	c0-0.3-0.1-0.4-0.4-0.4C103.6,39,102.9,39,102.2,39z"/>
<path class="st3" d="M110.8,65.7c0.5-0.7,1.2-1.4,1.8-2c3.2-2.4,7.7-1.7,10,1.4c0.5,0.7,0.9,1.5,1.2,2.3c0.3,1.1,0.5,2.2,0.5,3.4
	c0,3.6,0,7.3,0,10.9c0,0.8,0,0.8-0.7,0.7c-1.6-0.1-3.2-0.1-4.8,0c-0.5,0-0.6-0.1-0.6-0.6c0-3.3,0-6.7,0-10c0-0.5,0-1-0.1-1.4
	c-0.2-1.3-1.3-2.3-2.6-2.4c-0.9-0.1-1.8,0-2.6,0.3c-1.3,0.5-2.1,1.8-2,3.1c0,3.4,0,6.8,0,10.2c0,0.6-0.1,0.8-0.7,0.8
	c-1.6,0-3.2,0-4.9,0c-0.4,0-0.6-0.1-0.6-0.6c0-6.2,0-12.3,0-18.5c0-0.4,0.1-0.6,0.6-0.6c1.7,0.1,3.4,0,5.1,0c0.4,0,0.5,0.1,0.5,0.5
	C110.8,64,110.8,64.8,110.8,65.7z"/>
<path class="st3" d="M85.5,65.7c0.3-0.2,0.5-0.4,0.7-0.7c1.5-2,4.1-3,6.6-2.6c2.6,0.3,4.9,2,5.7,4.6c0.5,1.2,0.7,2.5,0.7,3.8
	c0,3.6,0,7.3,0,10.9c0,0.5-0.1,0.7-0.6,0.7c-1.6,0-3.3,0-4.9,0c-0.5,0-0.6-0.2-0.6-0.7c0-3.4,0-6.7,0-10.1c0-0.4,0-0.7-0.1-1.1
	c-0.4-1.9-1.9-2.9-4.1-2.5s-3.2,1.7-3.2,4c0,3.2,0,6.4,0,9.6c0,0.6-0.2,0.7-0.8,0.7c-1.6,0-3.2,0-4.8,0c-0.4,0-0.5-0.1-0.5-0.5
	c0-6.2,0-12.3,0-18.5c0-0.4,0.1-0.6,0.6-0.6c1.7,0,3.3,0,5,0c0.4,0,0.6,0.1,0.5,0.5C85.6,64.1,85.6,64.9,85.5,65.7z"/>
<path class="st3" d="M87.6,31.4c0,5,0,9.9,0,14.9c0,0.5-0.1,0.7-0.6,0.7c-1.6,0-3.2,0-4.8,0c-0.5,0-0.7-0.1-0.7-0.7
	c0-8.8,0-17.7,0-26.5c0.1-0.7-0.2-1.5-0.8-1.9c-0.6-0.5-1.1-1.1-1.7-1.6c-0.3-0.2-0.2-0.4,0-0.6c1.3-1.3,2.5-2.5,3.8-3.8
	c0.3-0.3,0.4-0.3,0.7,0c1.3,1.3,2.5,2.5,3.8,3.8c0.2,0.2,0.3,0.6,0.3,0.9C87.6,21.5,87.6,26.5,87.6,31.4z"/>
<path class="st3" d="M75.3,31.4c0,5,0,10,0,15c0,0.5-0.1,0.6-0.6,0.6c-1.6,0-3.2,0-4.8,0c-0.5,0-0.7-0.1-0.7-0.6c0-9,0-18,0-26.9
	c0-0.4-0.1-0.8-0.5-1.1c-0.7-0.7-1.3-1.3-2-2c-0.2-0.2-0.2-0.3,0-0.6c1.3-1.3,2.6-2.6,3.9-3.9c0.2-0.2,0.4-0.2,0.6,0
	c1.3,1.3,2.6,2.6,3.9,3.9c0.2,0.2,0.2,0.5,0.2,0.8C75.3,21.5,75.3,26.4,75.3,31.4z"/>
<path class="st3" d="M74.2,67.4c0,4.8,0,9.6,0,14.4c0,0.6-0.2,0.7-0.7,0.7c-1.7,0-3.3,0-5,0c-0.4,0-0.5-0.1-0.5-0.5
	c0.1-9.4,0-18.8,0.1-28.2c0-0.4,0-0.8,0-1.2s0.1-0.3,0.3-0.3h5.4c0.3,0,0.4,0.1,0.4,0.4s0,0.3,0,0.4C74.2,57.9,74.2,62.7,74.2,67.4z
	"/>
<path class="st3" d="M57,37.2c0-3.1,0-6.2,0-9.3c0-0.5,0.1-0.6,0.6-0.6c1.7,0,3.4,0,5.1,0c0.4,0,0.5,0.1,0.5,0.5
	c0,6.2,0,12.4,0,18.6c0,0.4-0.1,0.6-0.6,0.6c-1.7,0-3.4,0-5.1,0c-0.4,0-0.6-0.1-0.6-0.6C57,43.3,57,40.2,57,37.2z"/>
<path class="st3" d="M63.5,21.4c0,0.2-0.1,0.3-0.2,0.4c-1,1-2,2-3,3c-0.2,0.2-0.4,0.3-0.6,0c-1-1-2-2-3-3c-0.2-0.2-0.3-0.4,0-0.6
	c1-1,2-2,3-3c0.2-0.2,0.3-0.3,0.5,0c1,1,2.1,2.1,3.1,3.1C63.4,21.3,63.5,21.3,63.5,21.4z"/>
<path class="st0" d="M130.6,80.2c1.1,0,2,0.8,2.1,1.9c0,1.1-0.9,2-2,2c-1.1,0-2-0.9-2-2C128.7,81.1,129.5,80.3,130.6,80.2z
	 M132.2,82.2c0-0.9-0.6-1.6-1.5-1.6c0,0-0.1,0-0.1,0c-0.9,0-1.5,0.7-1.5,1.6c0,0.9,0.7,1.6,1.6,1.7c0,0,0,0,0,0
	C131.5,83.8,132.2,83.1,132.2,82.2L132.2,82.2z"/>
<path class="st0" d="M67.8,99.3c0,0.6-0.5,1-1,1s-1-0.5-1-1s0.5-1,1-1S67.8,98.7,67.8,99.3z"/>
<path class="st0" d="M95.3,91.8c0.6,0,1,0.4,1,1c0,0.6-0.4,1-1,1c-0.6,0-1-0.5-1.1-1.1C94.4,92.2,94.8,91.8,95.3,91.8z"/>
<path class="st0" d="M132.9,110.3c0,0.6-0.4,1-1,1.1c-0.6,0-1-0.4-1.1-1c0-0.6,0.4-1,0.9-1c0,0,0,0,0.1,0
	C132.4,109.2,132.8,109.7,132.9,110.3C132.9,110.2,132.9,110.2,132.9,110.3z"/>
<path class="st0" d="M61.8,103.5c-0.6,0-1-0.4-1.1-1c0-0.6,0.4-1.1,1-1.1c0.6,0,1.1,0.4,1.1,1C62.8,103,62.4,103.5,61.8,103.5z"/>
<path class="st0" d="M127.7,105c0.6,0,1,0.4,1,1c0,0.5-0.5,1-1.1,1c-0.6,0-1-0.5-1-1.1C126.7,105.4,127.1,105,127.7,105z"/>
<path class="st0" d="M93.4,92.8c0,0.6-0.5,1-1.1,1c-0.6,0-1-0.5-1-1.1c0-0.6,0.5-1,1.1-1l0,0C93,91.7,93.5,92.2,93.4,92.8z"/>
<path class="st0" d="M108.1,94.7c0,0.6-0.5,1-1,1c-0.6,0-1-0.5-1-1c0-0.5,0.4-1,0.9-1C107.6,93.7,108,94.2,108.1,94.7z"/>
<path class="st0" d="M83.5,94.5c-0.6,0-1-0.4-1-1c0-0.6,0.5-1,1-1s1,0.5,1,1C84.6,94.1,84.2,94.5,83.5,94.5
	C83.6,94.5,83.5,94.5,83.5,94.5z"/>
<path class="st0" d="M56,108.2c0,0.6-0.4,1-1,1c-0.6,0-1-0.5-1-1c0-0.6,0.5-1,1-1C55.6,107.1,56,107.6,56,108.2
	C56,108.1,56,108.2,56,108.2z"/>
<path class="st0" d="M59.4,105.3c-0.5,0-1-0.5-1-1c0-0.6,0.4-1,0.9-1c0,0,0,0,0.1,0c0.6,0,1,0.4,1.1,1
	C60.5,104.8,60,105.3,59.4,105.3z"/>
<path class="st0" d="M105.2,94c0,0.6-0.4,1-1,1c-0.6,0-1-0.5-1-1.1c0-0.6,0.5-1,1.1-1C104.8,93,105.2,93.4,105.2,94
	C105.2,94,105.2,94,105.2,94z"/>
<path class="st0" d="M51.1,111.6c0.6,0,1,0.4,1,1c0,0,0,0,0,0.1c0,0.6-0.5,1-1.1,1c-0.6,0-1-0.5-1-1.1
	C50.1,112,50.5,111.6,51.1,111.6L51.1,111.6L51.1,111.6z"/>
<path class="st0" d="M87.5,93.1c0,0.6-0.4,1-1,1.1c-0.6,0-1-0.4-1.1-1c0-0.6,0.4-1,1-1.1C87,92,87.4,92.4,87.5,93.1
	C87.5,93,87.5,93,87.5,93.1z"/>
<path class="st0" d="M81.7,94.1c0,0.6-0.4,1-1,1c-0.6,0-1-0.4-1.1-1c0-0.5,0.5-1,1-1.1C81.2,93,81.6,93.5,81.7,94.1z"/>
<path class="st0" d="M48.8,117.5c0,0.6-0.5,1-1,1s-1-0.5-1-1s0.5-1,1-1S48.8,116.9,48.8,117.5z"/>
<path class="st0" d="M72.1,97.8c-0.6,0-1-0.4-1-1c0,0,0,0,0-0.1c0-0.6,0.4-1,1-1c0.6,0.1,1,0.5,1,1.1C73.1,97.3,72.7,97.7,72.1,97.8
	z"/>
<path class="st0" d="M112.7,95.7c0.6,0,1,0.4,1,1c0,0.6-0.5,1-1.1,1c-0.6,0-1-0.5-1-1.1C111.6,96.1,112.1,95.6,112.7,95.7
	C112.6,95.7,112.6,95.7,112.7,95.7z"/>
<path class="st0" d="M46.3,121.1c-0.6,0-1-0.4-1-1c0,0,0,0,0-0.1c0-0.6,0.5-1,1-1s1,0.5,1,1C47.3,120.7,46.9,121.1,46.3,121.1z"/>
<path class="st0" d="M115.4,98.9c-0.5,0-1-0.5-1.1-1c0-0.5,0.5-1,1-1c0.6,0,1,0.4,1,1C116.3,98.4,115.9,98.9,115.4,98.9z"/>
<path class="st0" d="M119.1,99.2c0,0.6-0.5,1-1.1,1c-0.6,0-1-0.4-1-1s0.4-1,1-1C118.5,98.2,119,98.7,119.1,99.2z"/>
<path class="st0" d="M123.1,103.4c-0.6,0-1-0.4-1-1c0-0.6,0.4-1,1-1c0.5,0,1,0.4,1,0.9C124.1,102.9,123.7,103.4,123.1,103.4
	C123.1,103.4,123.1,103.4,123.1,103.4z"/>
<path class="st0" d="M90.4,92.9c0,0.6-0.4,1-1,1c-0.6-0.1-1-0.5-1-1.1c0-0.6,0.4-1,1-1c0,0,0,0,0.1,0C90.1,91.8,90.5,92.3,90.4,92.9
	C90.4,92.9,90.4,92.9,90.4,92.9z"/>
<path class="st0" d="M99.3,93.1c0,0.6-0.4,1-0.9,1.1c0,0,0,0-0.1,0c-0.6,0-1-0.4-1.1-1c0-0.6,0.4-1,1-1
	C98.8,92.1,99.3,92.5,99.3,93.1C99.3,93.1,99.3,93.1,99.3,93.1z"/>
<path class="st0" d="M110.9,95.7c0,0.6-0.4,1-1,1c-0.5-0.1-1-0.5-1-1.1c0-0.6,0.5-1,1.1-1c0,0,0,0,0,0
	C110.5,94.7,110.9,95.2,110.9,95.7z"/>
<path class="st0" d="M129.8,107.1c0.6,0,1,0.5,1,1s-0.5,1-1,1s-1-0.5-1-1S129.2,107.1,129.8,107.1z"/>
<path class="st0" d="M64.2,99.8c0.6,0,1,0.5,1,1s-0.5,1-1,1c-0.5,0-1-0.5-1-1C63.2,100.3,63.6,99.8,64.2,99.8
	C64.2,99.8,64.2,99.8,64.2,99.8z"/>
<path class="st0" d="M120.6,99.7c0.5,0,1,0.5,1,1c0,0.6-0.4,1-1,1s-1-0.4-1-1S120,99.7,120.6,99.7z"/>
<path class="st0" d="M75.9,95.7c0,0.6-0.4,1-1,1c-0.5,0-1-0.5-1-1c0-0.5,0.5-1,1-1C75.5,94.7,75.9,95.1,75.9,95.7z"/>
<path class="st0" d="M53,111.4c-0.6,0-1-0.4-1-1c0-0.6,0.4-1,1-1c0,0,0,0,0.1,0c0.6,0,1,0.4,1,1C54,110.9,53.6,111.4,53,111.4
	C53,111.4,53,111.4,53,111.4z"/>
<path class="st0" d="M137.1,116.4c0.6,0,1,0.4,1,1s-0.4,1-1,1c-0.6,0-1-0.5-1-1S136.5,116.3,137.1,116.4L137.1,116.4z"/>
<path class="st0" d="M138.5,121c-0.6,0-1-0.4-1-1c0,0,0,0,0-0.1c0-0.6,0.4-1,1-1c0.6,0,1,0.4,1.1,1c0,0.6-0.4,1-0.9,1.1
	C138.6,121.1,138.6,121.1,138.5,121z"/>
<path class="st0" d="M100.2,93.5c0-0.6,0.4-1,0.9-1.1c0,0,0,0,0.1,0c0.6,0,1,0.4,1,1s-0.4,1-1,1S100.2,94,100.2,93.5L100.2,93.5z"/>
<path class="st0" d="M136.5,115c0,0.6-0.5,1-1,1c-0.6,0-1-0.5-1-1c0-0.6,0.4-1,1-1C136.1,113.9,136.5,114.4,136.5,115
	C136.5,115,136.5,115,136.5,115z"/>
<path class="st0" d="M49.4,116c-0.6,0-1-0.4-1-1s0.4-1,1-1s1,0.4,1,1S49.9,116,49.4,116z"/>
<path class="st0" d="M125.4,105.2c-0.6,0-1-0.4-1-1s0.4-1,1-1s1,0.4,1,1S125.9,105.2,125.4,105.2z"/>
<path class="st0" d="M68.4,97.9c0-0.6,0.4-1,1-1c0.6,0,1,0.4,1,1c0,0,0,0.1,0,0.1c0,0.6-0.5,1-1,1S68.4,98.5,68.4,97.9L68.4,97.9z"
	/>
<path class="st0" d="M77.7,93.8c0.6,0,1,0.4,1,1s-0.4,1-1,1s-1-0.4-1-1S77.2,93.8,77.7,93.8z"/>
<path class="st0" d="M134.8,112.5c0,0.6-0.4,1-1,1s-1-0.4-1-1c0-0.5,0.3-1,0.9-1c0,0,0.1,0,0.1,0C134.3,111.5,134.8,112,134.8,112.5
	z"/>
<path class="st0" d="M58.2,106.1c0,0.6-0.4,1-1,1s-1-0.4-1-1s0.4-1,1-1S58.2,105.6,58.2,106.1z"/>
<path class="st0" d="M87.5,115.1c0.6-2.4,1.8-4.3,2.6-6.4c0.1-0.4,0.5-0.6,0.9-0.6c0.7,0,1.3,0,2,0c-0.4,0.8-0.7,1.5-1.1,2.2
	l-4.2,8.5c-0.1,0.2-0.1,0.4-0.4,0.4s-0.3-0.2-0.3-0.3l-5.3-10.5c0,0,0-0.1-0.1-0.3h2.7c0.2,0,0.2,0.1,0.3,0.3
	C85.7,110.6,86.7,112.8,87.5,115.1z"/>
<path class="st0" d="M95.1,113.5c0-1.6,0-3.2,0-4.9c0-0.4,0.1-0.5,0.5-0.5c0.6,0,1.2,0,1.8,0c0.3,0,0.4,0.1,0.4,0.4
	c0,3.4,0,6.7,0,10.1c0,0.3,0,0.4-0.4,0.4c-0.6,0-1.3,0-1.9,0c-0.4,0-0.4-0.2-0.4-0.5C95.1,116.9,95.1,115.2,95.1,113.5z"/>
<path class="st0" d="M94.7,104c0-0.9,0.8-1.7,1.7-1.7c0,0,0,0,0.1,0c1,0,1.7,0.8,1.7,1.7c0,0,0,0,0,0c0,0.9-0.8,1.7-1.7,1.7
	c0,0,0,0-0.1,0c-0.9,0-1.7-0.7-1.7-1.6C94.7,104.1,94.7,104,94.7,104z"/>
<path class="st1" d="M125,52.5c-1.1,0.1-2.3-0.1-3.4-0.6c-1.1-0.5-1.6-1.9-1-3c0,0,0,0,0,0c0.1-0.3,0.4-0.5,0.8-0.5
	c2,0.2,4.1,0.2,6.2,0.5c0.2,0,0.4,0.1,0.6,0.1c0.6,0.2,1.1,0.4,1.2,1c0.2,0.7-0.2,1.4-0.8,1.8c-0.8,0.4-1.7,0.6-2.6,0.6
	C125.6,52.5,125.3,52.5,125,52.5z"/>
<path class="st1" d="M127.8,34.1c0,1.5-1.1,2.7-2.6,2.7c-0.1,0-0.2,0-0.3,0c-1.5,0.1-2.8-1-2.9-2.5c0-0.1,0-0.2,0-0.4
	c0-1.5,1.2-2.7,2.7-2.7c0.1,0,0.2,0,0.3,0c1.4-0.1,2.7,0.9,2.8,2.4C127.8,33.9,127.8,34,127.8,34.1z"/>
<path class="st1" d="M148.3,35.5c-1.3,0-2.5,0-3.8,0c-0.5,0-0.6-0.1-0.5-0.6c0.5-1.6,1.9-2.7,3.6-2.8c1.2-0.2,2.5,0,3.5,0.7
	c0.8,0.6,1.4,1.5,1.5,2.5c0.1,0.4-0.2,0.3-0.4,0.3L148.3,35.5z"/>
<path class="st1" d="M102.2,39c0.7,0,1.4,0,2.2,0c0.3,0,0.4,0.1,0.4,0.4c0.2,1.3-0.7,2.6-2,2.9c-1,0.4-2.2,0.4-3.2,0.1
	c-0.9-0.1-1.5-1-1.4-1.8c0.1-0.9,0.8-1.6,1.8-1.6C100.7,39,101.4,39,102.2,39L102.2,39z"/>
<path class="st1" d="M132.2,82.2c0,0.9-0.7,1.6-1.6,1.6c-0.9,0-1.6-0.8-1.6-1.7c0,0,0,0,0,0c0-0.9,0.7-1.6,1.5-1.6
	c0.9,0,1.6,0.6,1.6,1.5C132.2,82.1,132.2,82.2,132.2,82.2z M129.8,82.2L129.8,82.2c0,0.3,0,0.6,0,0.9c0,0.1,0,0.3,0.2,0.3
	s0.2-0.1,0.2-0.2s-0.1-0.6,0.1-0.7s0.4,0.4,0.6,0.6c0,0,0.1,0.1,0.1,0.1c0.1,0.1,0.2,0.3,0.4,0.2s0-0.3-0.1-0.4
	c-0.2-0.3-0.4-0.5,0-0.8s0.1-0.9-0.3-1c-0.9-0.2-1.2-0.1-1.2,0.9C129.8,82.1,129.8,82.1,129.8,82.2L129.8,82.2z"/>
<path class="st0" d="M129.8,82.2c0-0.1,0-0.1,0-0.2c0-1,0.2-1.2,1.2-0.9c0.5,0.1,0.7,0.8,0.3,1s-0.2,0.5,0,0.8
	c0.1,0.1,0.3,0.3,0.1,0.4s-0.3-0.1-0.4-0.2c0-0.1-0.1-0.1-0.1-0.1c-0.2-0.2-0.2-0.6-0.6-0.6s-0.1,0.4-0.1,0.7s0,0.2-0.2,0.2
	s-0.2-0.1-0.2-0.3C129.9,82.7,129.9,82.4,129.8,82.2L129.8,82.2z M130.6,82c0.2,0,0.5,0,0.5-0.3s-0.3-0.3-0.5-0.4s-0.4,0.1-0.4,0.4
	S130.4,82,130.6,82z"/>
<path class="st1" d="M130.6,82c-0.2,0-0.4,0-0.4-0.3s0.1-0.4,0.4-0.4s0.5,0,0.5,0.4S130.8,82,130.6,82z"/>
</svg>
