<svg id="Layer_1" data-name="Layer 1" xmlns="http://www.w3.org/2000/svg" viewBox="0 0 201.01 71.51"><defs><style>.cls-1{fill:#252120;}.cls-2{fill:#2a2627;}.cls-3{fill:#fdf000;}.cls-4{fill:#fcf000;}.cls-5{fill:#242020;}</style></defs><title>Waffle House</title><path class="cls-1" d="M131.81.5V28.23c0,.44-.08.58-.56.58H104.62c-.43,0-.55-.09-.55-.54V1.09A1.14,1.14,0,0,0,104,.5ZM118.33,1h-12.5c-.37,0-.51.06-.51.48V26.4c0,.41.13.49.51.49h25c.38,0,.5-.08.5-.49V1.46c0-.4-.12-.49-.5-.49h-12.5Z"/><path class="cls-2" d="M52,65V37.44c0-.46.08-.61.58-.61H79.24c.48,0,.57.15.57.59q0,12.85,0,25.7a7.42,7.42,0,0,0,0,1.88ZM66.35,63.2H78.79c.41,0,.56-.06.56-.53V37.83c0-.46-.13-.54-.56-.54H53.9c-.41,0-.53.09-.53.51V62.69c0,.43.13.51.53.51,4.16,0,8.31,0,12.46,0Z"/><path class="cls-1" d="M28.22.5V2.4q0,12.94,0,25.88c0,.45-.12.53-.54.53H.5V.94C.5.58.57.5.93.51ZM14.72,26.87H27.16c.47,0,.61-.11.61-.6V1.53c0-.43-.07-.59-.56-.59H2.32c-.41,0-.53.08-.53.51V26.34c0,.42.12.52.53.52Z"/><path class="cls-1" d="M62.81.5q0,13.87,0,27.75c0,.46-.12.56-.57.56H35.64c-.45,0-.57-.11-.57-.56q0-13.6,0-27.2V.5ZM49.33,26.87H61.82c.42,0,.52-.12.52-.53V1.45c0-.38-.08-.5-.49-.5h-25c-.39,0-.5.1-.5.49V26.33c0,.47.15.54.57.53Z"/><path class="cls-1" d="M166.3.5V28.42c0,.33-.11.38-.4.38H139.21c-.5,0-.66-.09-.66-.63V.5ZM152.84,1H140.35c-.43,0-.55.1-.55.54V26.36c0,.47.14.54.56.54H165.3c.45,0,.58-.1.58-.57V1.54c0-.43-.09-.56-.54-.56h-12.5Z"/><path class="cls-2" d="M86.61,65V37.44c0-.46.07-.62.58-.62h26.65c.41,0,.53.11.52.52V64.93ZM100.9,63.2h12.55c.38,0,.47-.09.47-.47V37.79c0-.39-.09-.5-.49-.5h-25c-.42,0-.52.11-.52.52V62.7c0,.39.1.49.49.49Z"/><path class="cls-2" d="M155.9,65V37.4c0-.44.09-.58.56-.58h26.68c.43,0,.51.13.51.53V65Zm27.29-14.75V37.85c0-.43-.08-.55-.54-.55H157.76c-.46,0-.57.12-.57.58V62.67c0,.44.1.55.54.55h24.94c.42,0,.52-.11.51-.52q0-6.24,0-12.46Z"/><path class="cls-2" d="M17.42,65V37.4c0-.44.09-.58.56-.58H44.66c.43,0,.51.13.51.53V65Zm14.3-1.79h12.5c.42,0,.51-.11.51-.52V37.84c0-.43-.08-.55-.54-.55H19.3c-.46,0-.57.12-.57.57V62.65c0,.44.1.55.55.55,4.14,0,8.29,0,12.43,0Z"/><path class="cls-1" d="M97.21.5q0,13.89,0,27.78c0,.46-.14.53-.55.53H70c-.41,0-.55-.06-.55-.53V.5ZM83.71,26.87h12.5c.44,0,.55-.11.55-.55V1.48c0-.42-.11-.52-.52-.52h-25c-.4,0-.49.11-.49.49q0,12.45,0,24.89c0,.48.16.53.57.53Z"/><path class="cls-2" d="M121.31,65V37.3c0-.39.11-.46.47-.46h26.73c.31,0,.47,0,.47.42q0,13.8,0,27.59V65Zm14.2-1.79H148c.42,0,.52-.1.52-.52V37.84c0-.43-.1-.55-.55-.55H123.08c-.45,0-.54.13-.54.55V62.68c0,.41.1.52.52.52C127.24,63.19,131.39,63.2,135.51,63.2Z"/><path class="cls-1" d="M200.51.5V28.24c0,.44-.09.57-.56.57H173.46c-.36,0-.51,0-.51-.47V.51Zm-13.3,26.37h12.5c.42,0,.52-.12.52-.53q0-12.45,0-24.9c0-.4-.11-.49-.5-.49h-25c-.39,0-.5.09-.5.49q0,12.45,0,24.9c0,.43.13.52.53.52h12.45Z"/><path class="cls-2" d="M187.9,65c0-.16-.18-.17-.27-.24a2.25,2.25,0,1,1,3.43-2.55,2.28,2.28,0,0,1-.88,2.56c-.1.07-.26.07-.28.24Zm1-.19a1.91,1.91,0,1,0-1.83-2v0a1.84,1.84,0,0,0,1.74,1.94h.09Z"/><path class="cls-3" d="M118.32,1h12.5c.38,0,.5.08.5.49V26.4c0,.41-.12.49-.5.49h-25c-.38,0-.51-.08-.51-.49V1.46c0-.42.15-.48.51-.48ZM109.9,14.19V24c0,.34.08.46.44.45h3.75c.44,0,.51-.14.51-.54v-7.3c0-.47.09-.62.59-.61h9.7c.37,0,.49-.08.48-.47v-3c0-.48-.16-.56-.59-.56h-9.65c-.4,0-.55-.08-.53-.51V8.85c0-.44.11-.55.55-.55h11.1c.42,0,.53-.12.52-.53V4.32c0-.43-.13-.51-.53-.51H110.45c-.41,0-.53.08-.52.51C109.91,7.66,109.9,10.92,109.9,14.19Z"/><path class="cls-3" d="M66.36,63.2H53.92c-.4,0-.53-.07-.53-.51V37.8c0-.42.12-.51.53-.51H78.81c.43,0,.56.08.56.54V62.67c0,.47-.15.53-.56.53C74.65,63.19,70.51,63.2,66.36,63.2Zm-.11-1.85a11,11,0,1,0-11-11.12,11,11,0,0,0,11,11.12Z"/><path class="cls-4" d="M14.72,26.87H2.33c-.41,0-.53-.1-.53-.52V1.46C1.8,1,1.92,1,2.33,1H27.22c.48,0,.56.16.56.59V26.28c0,.49-.14.6-.61.6C23,26.86,18.86,26.87,14.72,26.87Zm5.35-13.39a2.18,2.18,0,0,1-.13-.28c-.72-3-1.62-5.93-2.38-8.91-.07-.29-.17-.41-.49-.4h-4c-.31,0-.42.11-.51.39-.36,1.28-.74,2.55-1.14,3.82-.56,1.78-1.14,3.56-1.72,5.34a17.31,17.31,0,0,1-.48-2.57Q8.8,7.58,8.41,4.28c0-.32-.17-.4-.48-.39H4.23c-.35,0-.39.09-.34.42q1.53,9.69,3,19.38c0,.32.21.35.47.35h3.1c.39,0,.53-.12.64-.49q1.71-5.89,3.41-11.81a.45.45,0,0,1,.23-.47l.06.22q1.65,6,3.28,12c.1.37.23.51.63.5h3c1,0,1,0,1.09-1q.81-5.51,1.65-11c.39-2.58.76-5.17,1.16-7.75.06-.36,0-.44-.39-.44H22c-.33,0-.46.09-.51.42-.45,3.11-.94,6.13-1.45,9.26Z"/><path class="cls-3" d="M49.33,26.87H36.94c-.41,0-.57-.07-.57-.53V1.45c0-.39.1-.5.5-.49h25c.41,0,.49.12.49.5V26.35c0,.41-.09.53-.52.53C57.66,26.86,53.51,26.87,49.33,26.87ZM59.44,24.5,59,23.4q-3.52-9.53-7.11-19.06a.63.63,0,0,0-.72-.49H47.5a.53.53,0,0,0-.6.43c-.9,2.41-1.82,4.82-2.74,7.23L39.41,24c-.17.44-.09.52.36.51h3.95a.49.49,0,0,0,.56-.4c.43-1.28.9-2.54,1.33-3.81a.49.49,0,0,1,.56-.4h6.25a.51.51,0,0,1,.6.4v0c.41,1.28.86,2.55,1.29,3.83.06.19.09.37.37.37C56.24,24.49,57.81,24.5,59.44,24.5Z"/><path class="cls-4" d="M152.84,1h12.49c.46,0,.54.13.54.56V26.32c0,.47-.13.57-.58.57H140.35c-.42,0-.56-.07-.56-.54V1.51c0-.45.12-.54.55-.54Zm-8.47,13.17v9.79c0,.32,0,.51.44.51h16c.37,0,.43-.13.43-.46v-3.5c0-.43-.12-.51-.53-.51h-11c-.5,0-.59-.14-.59-.61v-15c0-.36-.07-.49-.46-.48h-3.8c-.39,0-.46.11-.46.48q0,4.89,0,9.79Z"/><path class="cls-3" d="M100.9,63.2H88.4c-.39,0-.49-.1-.49-.49V37.82c0-.41.1-.52.52-.52h25c.4,0,.49.11.49.5V62.74c0,.37-.09.47-.47.47C109.26,63.19,105.08,63.2,100.9,63.2Zm8.41-16.4h0V40.7c0-.33-.09-.42-.42-.42h-3.65c-.42,0-.55.08-.55.53v10.3a10.71,10.71,0,0,1-.3,2.92,2.64,2.64,0,0,1-2.56,2.07,7.79,7.79,0,0,1-1.35,0,3.2,3.2,0,0,1-2.89-2.18,7.9,7.9,0,0,1-.42-2.85V40.72c0-.4-.12-.5-.51-.5H92.81c-.37,0-.4.14-.4.43v9.5a16.33,16.33,0,0,0,.33,4.46c.81,2.87,2.38,5,5.38,5.82a11.53,11.53,0,0,0,5,.21,6.33,6.33,0,0,0,4.31-2.55,10.18,10.18,0,0,0,1.84-5.56c.1-1.9,0-3.79,0-5.74Z"/><path class="cls-4" d="M183.2,50.24V62.68c0,.41-.09.52-.51.52H157.75c-.44,0-.55-.11-.54-.55V37.86c0-.45.11-.58.57-.58h24.89c.46,0,.54.13.54.55C183.19,42,183.2,46.11,183.2,50.24Zm-13-10h-8c-.39,0-.51.09-.5.5V60.38c0,.34.08.45.44.45h16c.32,0,.43-.07.42-.41v-3.5c0-.48-.16-.56-.59-.56H167c-.43,0-.62-.07-.6-.56V52.9c0-.41.1-.53.52-.52h9.75c.37,0,.52-.06.5-.48v-3c0-.45-.11-.54-.55-.54h-9.75c-.36,0-.49-.08-.48-.46V45.25c0-.48.1-.61.59-.61h11c.42,0,.6-.06.59-.55v-3.4c0-.47-.14-.54-.56-.53-2.53.08-5.15.07-7.76.07Z"/><path class="cls-4" d="M31.71,63.2H19.26c-.44,0-.55-.11-.55-.55V37.86c0-.46.11-.57.57-.57H44.17c.46,0,.54.13.54.55V62.68c0,.41-.09.52-.51.52Zm-9-12.86v9.75c0,.4.11.5.5.49H27c.4,0,.54-.09.53-.52V52.91c0-.4.07-.54.51-.53h7.8c.42,0,.52.11.52.52v7.2c0,.37.09.48.47.48h3.7c.36,0,.44-.12.44-.46V40.68c0-.34-.09-.46-.45-.45h-3.7c-.39,0-.47.12-.46.48v7.2c0,.45-.13.55-.56.55H28.06c-.43,0-.52-.12-.52-.53v-7.2c0-.4-.11-.51-.5-.5h-3.8c-.41,0-.53.09-.53.52q0,4.78,0,9.59Z"/><path class="cls-3" d="M83.71,26.87H71.26c-.4,0-.57,0-.57-.53V1.45c0-.39.09-.49.49-.49h25c.41,0,.52.1.52.52V26.32c0,.44-.11.55-.55.55ZM75.32,14.19V24c0,.34.08.45.44.45h3.8c.39,0,.47-.11.46-.48v-7.4c0-.47.13-.57.58-.56h9.7c.4,0,.51-.1.5-.5V12.6c0-.45-.11-.58-.57-.58H80.48c-.34,0-.46-.07-.45-.43V8.89c0-.45.11-.58.57-.58h11c.48,0,.58-.14.57-.59V4.37c0-.44-.1-.55-.55-.55H75.82c-.47,0-.53.15-.53.56C75.33,7.69,75.32,10.94,75.32,14.19Z"/><path class="cls-3" d="M135.51,63.2H123.07c-.42,0-.52-.11-.52-.52V37.84c0-.43.09-.55.54-.55H148c.45,0,.55.12.55.55q0,12.42,0,24.84c0,.42-.1.52-.52.52C143.87,63.19,139.7,63.2,135.51,63.2Zm-8.39-7.13v2.1a.51.51,0,0,0,.43.59,34,34,0,0,0,7.53,1.69,12.14,12.14,0,0,0,5.42-.56c3.68-1.38,4.39-6.38,2.5-8.61A8.58,8.58,0,0,0,139.82,49,30.39,30.39,0,0,0,135,47.5a14.86,14.86,0,0,1-2.06-.6,1,1,0,0,1-.48-1.75,2.46,2.46,0,0,1,1.26-.85,7.37,7.37,0,0,1,3.41-.16,21,21,0,0,1,5.83,1.67c.25.11.39.15.38-.21V41.75c0-.25-.08-.34-.32-.39-.8-.16-1.59-.35-2.39-.52a20.42,20.42,0,0,0-7.12-.64,9.22,9.22,0,0,0-4.67,1.87,4.47,4.47,0,0,0,0,7.19,10,10,0,0,0,2.7,1.48c1.62.63,3.31,1,5,1.49a8.11,8.11,0,0,1,2,.81,1.22,1.22,0,0,1,.62,1.61,2.31,2.31,0,0,1-1.62,1.68,4.28,4.28,0,0,1-1.28.2,12.62,12.62,0,0,1-4-.75,31.71,31.71,0,0,1-4.72-2c-.31-.16-.39-.12-.38.24,0,.65,0,1.35,0,2.05Z"/><path class="cls-4" d="M187.2,26.86H174.75c-.4,0-.54-.09-.53-.52V1.44c0-.4.12-.49.5-.49h25c.38,0,.5.09.5.49v24.9c0,.41-.09.53-.52.53Zm-8.47-12.7q0,4.92,0,9.85c0,.32,0,.47.42.47h16c.31,0,.43-.07.43-.41V20.52c0-.46-.14-.54-.56-.54H183.87c-.38,0-.47-.1-.46-.47V16.56c0-.45.12-.55.55-.54h9.75c.33,0,.47-.07.46-.43v-3c0-.45-.13-.55-.56-.54H184c-.46,0-.64-.08-.62-.59V8.91c0-.45.11-.58.57-.58h11.1c.39,0,.51-.1.5-.5V4.33c0-.41-.13-.48-.5-.48h-15.9c-.44,0-.51.14-.51.54.09,3.28.09,6.53.09,9.78Z"/><path class="cls-1" d="M109.9,14.19V4.39c0-.43.12-.51.52-.51h15.79c.4,0,.54.07.53.51V7.84c0,.41-.1.53-.52.53h-11.1c-.44,0-.57.1-.55.55v2.65c0,.43.13.52.53.51h9.65c.44,0,.61.08.59.56v3c0,.39-.12.47-.48.47h-9.7c-.5,0-.59.15-.59.61V24c0,.4-.07.55-.51.54h-3.75c-.36,0-.44-.11-.44-.45C109.91,20.74,109.9,17.47,109.9,14.19Z"/><path class="cls-5" d="M66.25,61.35A11,11,0,1,1,77.31,50.42q0,.12,0,.25A11,11,0,0,1,66.25,61.35Zm6-11.05a6,6,0,1,0-6,6,6,6,0,0,0,6-6Z"/><path class="cls-5" d="M20.06,13.48c.5-3.13,1-6.15,1.47-9.18,0-.33.18-.43.51-.42h3.2c.35,0,.45.07.39.44-.4,2.58-.78,5.17-1.16,7.75q-.82,5.5-1.65,11c-.14,1-.12,1-1.09,1h-3c-.39,0-.53-.13-.63-.5q-1.62-6-3.28-12l-.06-.22c-.2.11-.19.31-.23.47q-1.71,5.89-3.4,11.79c-.11.37-.25.5-.64.49H7.39c-.26,0-.42,0-.47-.35q-1.49-9.69-3-19.38c0-.33,0-.42.34-.42H8c.31,0,.44.08.48.39q.39,3.3.81,6.59a17.31,17.31,0,0,0,.48,2.57c.57-1.78,1.16-3.55,1.72-5.34.4-1.27.78-2.54,1.14-3.82.08-.29.19-.4.51-.39h4c.32,0,.42.11.49.4.76,3,1.67,5.92,2.38,8.91A2.18,2.18,0,0,0,20.06,13.48Z"/><path class="cls-5" d="M59.44,24.5H54.68c-.29,0-.31-.18-.37-.37-.43-1.28-.88-2.55-1.29-3.83a.51.51,0,0,0-.58-.42H46.17a.49.49,0,0,0-.56.4c-.43,1.28-.9,2.54-1.33,3.81a.49.49,0,0,1-.56.4H39.77c-.45,0-.53-.07-.36-.51q2.39-6.24,4.75-12.49C45.07,9.08,46,6.68,46.9,4.26a.53.53,0,0,1,.6-.43h3.7a.63.63,0,0,1,.72.49Q55.46,13.86,59,23.38ZM49.44,9h-.09l-.88,2.8c-.45,1.43-.89,2.86-1.35,4.28-.11.34,0,.43.31.42h3.95c.23,0,.35,0,.27-.3q-1.14-3.6-2.26-7.2Z"/><path class="cls-5" d="M144.37,14.15V4.36c0-.36.08-.48.46-.48h3.8c.39,0,.46.12.46.48v15c0,.47.09.61.59.61h11c.41,0,.54.08.53.51V24c0,.33-.06.46-.43.46h-16c-.43,0-.44-.19-.44-.51Q144.38,19,144.37,14.15Z"/><path class="cls-5" d="M109.3,46.79c0,1.92.07,3.84,0,5.75a10.18,10.18,0,0,1-1.84,5.56,6.33,6.33,0,0,1-4.31,2.55,11.53,11.53,0,0,1-5-.21c-3-.82-4.57-2.95-5.38-5.82a16.33,16.33,0,0,1-.33-4.46v-9.5c0-.3,0-.44.4-.43h3.85c.39,0,.51.09.51.5V51.08a7.9,7.9,0,0,0,.42,2.85,3.2,3.2,0,0,0,2.89,2.18,7.79,7.79,0,0,0,1.35,0A2.64,2.64,0,0,0,104.42,54a10.71,10.71,0,0,0,.3-2.92V40.82c0-.46.13-.54.55-.53h3.65c.33,0,.42.09.42.42v6.1Z"/><path class="cls-1" d="M170.22,40.23h7.85c.42,0,.58.07.56.53v3.4c0,.49-.16.55-.59.55H167c-.49,0-.62.13-.59.61V48c0,.39.11.46.48.46h9.75c.44,0,.56.09.55.54v3c0,.41-.13.48-.5.48H167c-.42,0-.53.11-.52.52v2.9c0,.49.17.56.6.56h11c.43,0,.6.08.59.56v3.5c0,.34-.1.41-.42.41h-16c-.36,0-.44-.11-.44-.45V40.81c0-.4.12-.5.5-.5C164.88,40.24,167.51,40.23,170.22,40.23Z"/><path class="cls-1" d="M22.67,50.34v-9.6c0-.43.12-.53.53-.52H27c.39,0,.51.1.5.5v7.2c0,.41.09.53.52.53h7.75c.43,0,.57-.09.56-.55V40.7c0-.36.07-.49.46-.48h3.7c.36,0,.45.11.45.45V60.11c0,.34-.08.46-.44.46H36.8c-.38,0-.47-.11-.47-.48v-7.2c0-.41-.1-.53-.52-.52H28c-.44,0-.51.13-.51.53v7.15c0,.43-.13.53-.53.52h-3.8c-.39,0-.5-.1-.5-.49Q22.67,55.22,22.67,50.34Z"/><path class="cls-1" d="M75.32,14.19V4.44c0-.41.06-.56.53-.56h15.8c.45,0,.56.11.55.55V7.78c0,.45-.09.59-.57.59h-11c-.46,0-.59.12-.57.58v2.7c0,.36.12.44.45.43h9.75c.46,0,.59.12.57.58v2.95c0,.4-.11.5-.5.5h-9.7c-.44,0-.58.1-.58.56v7.4c0,.37-.08.49-.46.48h-3.8c-.36,0-.44-.1-.44-.45C75.32,20.74,75.32,17.47,75.32,14.19Z"/><path class="cls-1" d="M127.15,56.07V54c0-.35.08-.39.38-.24a31.71,31.71,0,0,0,4.72,2,12.62,12.62,0,0,0,4,.75,4.28,4.28,0,0,0,1.28-.2,2.31,2.31,0,0,0,1.62-1.68,1.22,1.22,0,0,0-.62-1.61,8.11,8.11,0,0,0-2-.81c-1.66-.49-3.35-.86-5-1.49a10,10,0,0,1-2.66-1.45,4.47,4.47,0,0,1,0-7.19,9.22,9.22,0,0,1,4.67-1.87,20.42,20.42,0,0,1,7.12.64c.8.17,1.59.36,2.39.52.25,0,.32.14.32.39v3.85c0,.36-.13.33-.38.21a21,21,0,0,0-5.83-1.67,7.37,7.37,0,0,0-3.41.16,2.46,2.46,0,0,0-1.26.85,1,1,0,0,0,.48,1.75,14.86,14.86,0,0,0,2.06.6A30.39,30.39,0,0,1,139.88,49a8.58,8.58,0,0,1,3.18,2.27c1.89,2.24,1.18,7.23-2.5,8.61a12.14,12.14,0,0,1-5.42.56,34,34,0,0,1-7.53-1.69c-.32-.1-.45-.24-.43-.59C127.17,57.47,127.15,56.74,127.15,56.07Z"/><path class="cls-1" d="M178.74,14.17V4.42c0-.4.07-.54.51-.54h15.9c.38,0,.51.07.5.48v3.5c0,.4-.1.5-.5.5H184c-.46,0-.59.13-.57.58v2.55c0,.51.16.59.62.59h9.6c.43,0,.58.09.56.54v3c0,.37-.13.43-.46.43H184c-.43,0-.57.09-.55.54v2.95c0,.37.08.47.46.47h11.15c.42,0,.57.08.56.54V24.1c0,.34-.11.41-.43.41h-16c-.39,0-.42-.16-.42-.47Q178.74,19.09,178.74,14.17Z"/><path class="cls-2" d="M190,64.15a.41.41,0,0,1-.56-.16l0-.07c-.13-.25-.3-.48-.45-.72s-.26-.13-.4-.11-.11.18-.11.29v.55c0,.18,0,.27-.19.27S188,64.12,188,64V61.82c0-.17.07-.24.24-.23h1a.65.65,0,0,1,.65.58.64.64,0,0,1-.42.8c-.3.09-.16.2-.08.34Zm-1.24-2.26c-.18,0-.35,0-.32.4s0,.53.37.46.74.07.74-.44-.38-.39-.79-.42Z"/><path class="cls-3" d="M72.22,50.3a6,6,0,1,1-6-6A6,6,0,0,1,72.22,50.3Z"/><path class="cls-4" d="M49.39,9l2.2,7.2c.08.27,0,.31-.27.3H47.37c-.36,0-.42-.09-.31-.42.46-1.42.9-2.85,1.35-4.28L49.29,9Z"/></svg>