<?xml version="1.0" encoding="utf-8"?>
<!-- Generator: Adobe Illustrator 21.1.0, SVG Export Plug-In . SVG Version: 6.00 Build 0)  -->
<svg version="1.1" id="Layer_1" xmlns="http://www.w3.org/2000/svg" xmlns:xlink="http://www.w3.org/1999/xlink" x="0px" y="0px"
	 viewBox="0 0 181 57.9" style="enable-background:new 0 0 181 57.9;" xml:space="preserve">
<style type="text/css">
	.st0{fill:#73B745;}
	.st1{fill:#0073AC;}
	.st2{fill:#EFB541;}
	.st3{fill:#F8FBF6;}
</style>
<title>Grocery</title>
<path class="st0" d="M70.8,36.4c21.2,0,42.6,0,63.8,0c1.8-0.1,3.5,0.5,4.7,1.8c1.2,1.2,1.8,2.8,1.8,4.5c0,2.9,0,5.7,0,8.6
	c0.1,3.4-2.6,6.1-6,6.2c0,0-0.1,0-0.1,0c-42.7,0-85.6,0-128.3,0c-3.3,0.1-6.1-2.5-6.2-5.9c0-0.1,0-0.2,0-0.3c0.1-2.8,0.1-5.9,0-8.6
	c-0.1-3.3,2.5-6.1,5.8-6.2c0.1,0,0.3,0,0.4,0C28,36.4,49.5,36.4,70.8,36.4z M101.2,44.7h0.1c0.1,2.1,0.2,4.1,0.3,6.2
	c0,1.1,0,1.1,1.1,1.1c0.4,0,0.5-0.1,0.5-0.6c-0.1-1.4-0.1-2.8-0.2-4.1c-0.1-2.1-0.3-4.1-0.4-6.2c0-0.5-0.2-0.6-0.6-0.6
	c-0.2,0-0.4,0-0.6,0c-0.4-0.1-0.6,0.1-0.7,0.6c-0.5,2.2-1.1,4.3-1.6,6.5c-0.1,0.2,0.1,0.5-0.3,0.6c-0.6-2.2-1.1-4.4-1.7-6.5
	c-0.3-1.2-0.3-1.2-1.6-1.1c-0.4,0-0.5,0.1-0.5,0.5c-0.2,3.4-0.4,6.8-0.6,10.2c0,0.4-0.1,0.8,0.5,0.8c0.5-0.1,1.1,0.2,1.1-0.7
	c0-1.6,0.1-3.1,0.2-4.7c0-0.6,0.1-1.1,0.1-1.6c0.7,2.1,1.2,4.2,1.8,6.4c0.1,0.4,0.2,0.6,0.8,0.6s0.7-0.4,0.8-0.8
	C100.1,49,100.6,46.8,101.2,44.7z M11.6,48c-0.9-2.3-1.9-4.5-2.7-6.7c-0.1-0.6-0.7-1-1.3-0.8c0,0,0,0,0,0C7.2,40.5,7,40.6,7,41
	c0,3.5,0,7,0,10.5c0,0.8,0.6,0.4,1,0.5c0.4,0.1,0.6,0,0.6-0.5c0-0.7,0-1.4,0-2.1c0-1.6,0-3.3,0-5c0.1,0.1,0.1,0.2,0.2,0.4
	c0.9,2.2,1.8,4.5,2.7,6.7c0.3,0.8,0.9,0.4,1.4,0.4s0.3-0.5,0.3-0.7c0-3.3,0-6.6,0-10c0-0.6-0.2-0.7-0.8-0.7s-0.8,0.1-0.8,0.7
	C11.7,43.4,11.6,45.7,11.6,48L11.6,48z M29.8,51.6c0.3,1.6-0.5,2.4-2,2.1c-0.2,0-0.3-0.1-0.5-0.1c-0.2-0.1-0.5-0.3-0.5,0.1
	s-0.6,0.9,0,1.2c1.3,0.6,2.7,0.4,3.8-0.4c0.7-0.8,1.1-1.8,1-2.9c0-2.4,0-4.8,0-7.2c0-0.3,0.3-0.7-0.1-0.8c-0.4-0.2-0.9-0.1-1.3,0.1
	c-0.1,0.1-0.2,0.2-0.4,0.1c-1.1-0.7-2.4-0.3-3.1,0.7c-0.1,0.2-0.2,0.4-0.2,0.5c-0.7,1.7-0.7,3.6,0,5.2c0.2,0.5,0.5,0.9,0.9,1.3
	C28.2,52,29.1,52,29.8,51.6L29.8,51.6z M87,43.8c-2-0.6-3.1-0.1-3.7,1.9c-0.5,1.7-0.4,3.6,0.4,5.1c0.4,1,1.6,1.5,2.6,1.1
	c0.1-0.1,0.3-0.1,0.4-0.2c0.2-0.1,0.3-0.3,0.6,0.1s0.8,0.2,1.2,0.1s0.2-0.4,0.2-0.7c0-3.5,0-6.9,0-10.4c0-0.5-0.1-0.7-0.7-0.6
	c-0.2,0-0.3,0-0.5,0c-0.5-0.1-0.6,0.2-0.6,0.6C87.1,41.8,87.1,42.8,87,43.8L87,43.8z M43.2,44c0-1,0-1.9,0-2.7
	c0-0.5,0.2-1.1-0.8-1.1s-0.8,0.5-0.8,1.1c0,3.3,0.1,6.7-0.1,10c0,0.2-0.2,0.6,0.2,0.7s1,0.3,1.3-0.2c0.2-0.3,0.2-0.2,0.5-0.1
	c0.9,0.7,2.1,0.5,2.8-0.4c0.1-0.1,0.1-0.2,0.2-0.3c0.9-1.7,1.1-3.7,0.5-5.5c-0.2-0.7-0.6-1.3-1.3-1.7C44.8,43.3,43.8,43.4,43.2,44z
	 M63.1,44c0-1.1-0.1-2.1,0-3.1c0.1-0.8-0.4-0.6-0.9-0.6s-0.9-0.1-0.9,0.6c0,3.5,0,7,0,10.5c0,0.9,0.6,0.6,1,0.6s0.7-0.1,0.7-0.6
	c0-1.6,0-3.2,0-4.8c0-0.3,0-0.7,0.2-1c0.2-0.4,0.5-0.7,1-0.6c0.4,0.1,0.7,0.5,0.7,0.9c0,0.3,0,0.7,0,1c0,1.5,0,3,0,4.5
	c0,0.4,0.1,0.6,0.6,0.6c0.2,0,0.5,0,0.7,0c0.3,0,0.4-0.1,0.4-0.4c0-1.9,0.1-3.8,0-5.7S65.1,42.8,63.1,44L63.1,44z M35.6,44
	c0-1.1-0.1-2.1,0-3.1c0.1-0.8-0.3-0.7-0.9-0.7s-0.9,0-0.9,0.8c0.1,3.3,0,6.6,0,9.9c0,1.3-0.2,1.1,1.1,1.1c0.5,0,0.6-0.2,0.6-0.7
	c0-1.6,0-3.1,0-4.6c0-0.4,0.1-0.8,0.3-1.2c0.2-0.4,0.5-0.6,0.9-0.5c0.4,0.1,0.7,0.4,0.7,0.8c0.1,0.4,0.1,0.8,0.1,1.1
	c0,1.4,0,2.7,0,4.1c0,1.1,0,1.1,1.2,1.1c0.3,0,0.5-0.1,0.5-0.5c0-2,0-3.9,0-5.9c0-1-0.7-1.9-1.7-2.1C36.8,43.4,36.1,43.6,35.6,44
	L35.6,44z M119.1,48.6h0.2c0.4,0.8,0.8,1.6,1.1,2.3c0.5,1.2,0.6,1.2,1.9,1.1c0.4,0,0.4-0.2,0.3-0.5c-0.6-1.1-1-2.2-1.6-3.2
	c-0.5-0.6-0.5-1.6,0.1-2.2c0.6-0.8,1.1-1.6,1.6-2.5c-0.3,0-0.6,0-0.9,0c-0.7-0.2-1.3,0.2-1.5,0.9c-0.3,0.7-0.7,1.3-1.2,1.9
	c0-1.8,0-3.5,0-5.1c0-1.1,0.1-1-1-1c-0.1,0-0.2,0-0.3,0c-0.3,0-0.4,0.1-0.4,0.4c0,3.6,0,7.2,0,10.8c0,0.2-0.1,0.4,0.1,0.4
	c0.4,0.1,0.9,0.1,1.4,0c0.4-0.1,0.2-0.6,0.2-0.9C119,50.2,119,49.4,119.1,48.6L119.1,48.6z M81.6,47.8c0.1-0.9-0.1-1.7-0.4-2.6
	c-0.3-1-1.3-1.7-2.4-1.8c-1.1,0-2,0.6-2.4,1.6c-0.9,1.9-0.8,4.1,0.3,5.9c0.8,1.1,2.3,1.4,3.4,0.6c0.3-0.2,0.5-0.4,0.6-0.6
	C81.3,50,81.6,48.9,81.6,47.8L81.6,47.8z M74.3,47.8c0-0.8-0.1-1.6-0.4-2.4c-0.3-1-1.2-1.8-2.3-1.8c-1.1-0.1-2,0.5-2.4,1.5
	c-1,1.9-0.9,4.2,0.3,6c0.8,1.1,2.3,1.4,3.4,0.6c0.3-0.2,0.5-0.4,0.6-0.6C74.1,50,74.4,48.9,74.3,47.8L74.3,47.8z M48.7,48
	c0,1.1,0.3,2.1,0.8,3c0.7,1.1,2.2,1.5,3.4,0.8c0.3-0.2,0.6-0.4,0.8-0.8c1-1.7,1.1-3.7,0.4-5.5c-0.3-1.1-1.3-1.9-2.4-1.9
	c-1.2,0-2.2,0.8-2.5,1.9C48.8,46.2,48.7,47.1,48.7,48L48.7,48z M110.1,48.7c0-0.9,0-1.6,0-2.4c0-2.8-2.3-3.3-4.3-2.4
	c-0.1,0.1-0.4,0.1-0.3,0.4s0.1,0.7,0.4,0.9s0.4-0.2,0.7-0.2c0.2,0,0.3-0.1,0.5-0.1c0.8-0.1,1.2,0.2,1.3,0.9c0.1,0.9-0.5,0.7-0.9,0.8
	c-1.6,0.3-2.7,1.8-2.4,3.3c0,0.1,0,0.2,0.1,0.3c0.1,1.1,1.1,1.9,2.2,1.8c0.4,0,0.7-0.2,1-0.4c0.1-0.1,0.3-0.3,0.3-0.1
	c0.3,0.7,0.9,0.2,1.3,0.3c0.3,0.1,0.3-0.1,0.3-0.4C110,50.6,110,49.6,110.1,48.7L110.1,48.7z M127.1,48.1h1.5c0.2,0,0.4,0,0.4-0.3
	c0.2-1.4-0.2-2.8-1.2-3.9c-1.1-0.8-2.6-0.5-3.4,0.6c-0.1,0.2-0.2,0.4-0.3,0.6c-0.7,1.4-0.8,3-0.3,4.4c0.7,2.5,2.5,2.9,4.6,2.2
	c0.8-0.3,0.2-0.8,0.1-1.2s-0.4-0.2-0.6-0.1c-1.5,0.4-2.3,0-2.6-1.5c-0.2-0.7-0.1-0.8,0.6-0.9H127.1z M18.7,48.1c0.5,0,0.9,0,1.4,0
	s0.5-0.1,0.5-0.4c0-0.8,0-1.5-0.3-2.3c-0.2-1.1-1.1-1.8-2.2-1.9c-1.1,0-2,0.6-2.4,1.5c-0.7,1.3-0.8,2.8-0.5,4.2
	c0.6,2.6,2.1,3.2,4.5,2.6c0.8-0.2,0.4-0.8,0.3-1.2s-0.4-0.3-0.7-0.2c-0.4,0.1-0.9,0.2-1.3,0.1c-0.9-0.3-1.4-1.2-1.3-2.1
	c0.1-0.7,0.8-0.2,1.3-0.3C18.3,48,18.5,48,18.7,48.1L18.7,48.1z M132.7,41.8c-0.3,0-0.5,0.1-0.7,0.2c-0.6,0.2-1.1,0.4-1,1.2
	c0.1,0.4-0.3,0.4-0.6,0.4c-0.4,0-0.4,0.3-0.3,0.6s-0.2,0.8,0.3,0.7c0.7,0,0.6,0.4,0.6,0.8c0,1.5-0.1,3,0.1,4.5c0,1.1,0.9,1.9,2,1.9
	c0.3,0,0.5-0.1,0.7-0.2c0.7-0.2,0.3-0.8,0.3-1.2s-0.2-0.3-0.5-0.3c-0.7,0.1-0.9-0.3-0.9-0.9c0-1.1,0-2.3,0-3.4s0-1.2,1.1-1.2
	c0.4,0,0.5-0.3,0.4-0.6s0.2-0.7-0.4-0.8c-0.4,0-0.9,0.2-1.1-0.1s-0.1-0.8-0.1-1.2C132.7,42.1,132.7,41.9,132.7,41.8L132.7,41.8z
	 M56.3,47.8L56.3,47.8c0,1.2,0,2.4,0,3.6c0,0.8,0.4,0.7,0.9,0.7s0.9,0,0.8-0.7c-0.1-1.4,0-2.8,0-4.2c-0.1-0.9,0.5-1.8,1.4-1.9
	c0,0,0.1,0,0.1,0c0.2,0,0.3,0,0.3-0.2c0-0.5,0.2-1.1-0.1-1.4s-0.9,0-1.3,0.2c-0.1,0-0.2,0-0.3,0.1c-0.2,0.1-0.3,0.3-0.4-0.1
	c-0.3-0.6-0.9-0.2-1.3-0.2s-0.3,0.4-0.3,0.6C56.2,45.4,56.2,46.5,56.3,47.8L56.3,47.8z M113.9,44.3c-0.1-1-0.8-0.6-1.2-0.6
	s-0.4,0.4-0.4,0.7c0,2.3,0,4.6,0,6.9c0,0.3-0.1,0.6,0.2,0.7c0.4,0.1,0.9,0.1,1.3,0c0.4-0.1,0.2-0.6,0.2-0.9c0-1.5,0-3,0.1-4.5
	c0-0.7,0.6-1.3,1.4-1.3c0.2,0,0.4,0,0.4-0.2c0-0.5,0.2-1.1-0.1-1.4s-0.9,0-1.3,0.3C114.2,44,114,44.1,113.9,44.3L113.9,44.3z
	 M24.1,47.8c0-1.2,0-2.4,0-3.6c0-0.6-0.3-0.6-0.8-0.6s-1-0.2-1,0.6c0,2.4,0,4.8,0,7.2c0,0.7,0.4,0.6,0.9,0.6s0.9,0.2,0.9-0.6
	C24.1,50.2,24.1,48.9,24.1,47.8L24.1,47.8z M24.3,41.8c-0.1-0.5-0.6-0.9-1.2-0.8c-0.4,0.1-0.7,0.4-0.8,0.7c0,0.6,0.4,1,0.9,1.1
	c0,0,0,0,0,0C23.8,42.8,24.2,42.3,24.3,41.8L24.3,41.8z"/>
<path class="st1" d="M9.9,25.1c0.5-1,0.8-2.1,0.9-3.2c1.2-5,2.3-9.9,3.4-14.9c0.2-0.8,0.5-1,1.3-0.9c1.3,0.1,2.7,0,4.1,0
	c0.4,0,0.6,0.1,0.7,0.5c0.9,4.5,1.9,8.9,2.8,13.4c0.4,1.8,0.7,3.7,1,5.7c0.5-3.2,1.2-6.2,1.8-9.3c0.7-3.2,1.3-6.4,2-9.6
	c0.1-0.5,0.3-0.7,0.8-0.7c1.4,0,2.7,0,4.1,0c0.6,0,0.7,0.2,0.5,0.7c-0.8,3.1-1.7,6.3-2.5,9.4c-1.3,4.9-2.6,9.8-3.8,14.6
	c-0.1,0.6-0.4,0.8-0.9,0.9c-0.9,0.1-1.7,0.1-2.6,0c-1.7-0.3-3-1.7-3.2-3.4c-0.9-4.1-1.8-8.2-2.6-12.3c-0.2-1.1-0.3-2.2-0.5-3.6
	c-0.3,1.4-0.5,2.7-0.8,3.9c-1,4.1-2,8.1-3,12.2c-0.2,0.9-0.4,1.8-0.7,2.7c0,0.2-0.1,0.4-0.4,0.5c-1.1,0.2-2.2,0.3-3.3,0.1
	c-1.4-0.3-2.4-1.4-2.7-2.8c-0.8-3-1.5-6-2.3-9c-1-4.3-2.1-8.5-3.1-12.8c-0.2-1-0.2-0.9,0.7-0.9c1.4,0,2.8,0,4.2,0
	c0.4,0,0.6,0.1,0.7,0.6C7.2,10.9,8,15,8.8,19.2C9.2,21.1,9.5,23.1,9.9,25.1z"/>
<path class="st1" d="M65.8,14.9c2.4-3.8,8.8-4,10.9,0.5c0.6-0.8,1.4-1.6,2.2-2.2c2.9-2,6.9-1.4,8.8,1.2c0.9,1.2,1.4,2.7,1.5,4.3
	c0.3,4.1,0.1,8.2,0.1,12.3c0,0.4-0.1,0.6-0.6,0.6c-1.3,0-2.7,0-4,0c-0.5,0-0.6-0.2-0.6-0.7c0-3.3,0-6.6,0-9.9c0-0.8-0.1-1.5-0.3-2.2
	c-0.2-1.3-1.3-2.3-2.6-2.4c-1.4-0.1-2.8,0.7-3.3,2.1c-0.2,0.6-0.3,1.3-0.3,1.9c0,3.5,0,7,0,10.5c0,0.6-0.2,0.8-0.7,0.7
	c-1.3,0-2.6,0-3.8,0c-0.5,0-0.6-0.2-0.6-0.7c0-3.4,0-6.8,0-10.3c0-0.9-0.1-1.8-0.5-2.6c-0.6-1.4-2.2-2.1-3.6-1.5
	c-0.2,0.1-0.4,0.2-0.6,0.3c-1.1,0.7-1.7,1.9-1.7,3.1c0,3.6,0,7.2,0,10.8c0,0.6-0.2,0.8-0.8,0.8c-1.3,0-2.6,0-3.9,0
	c-0.4,0-0.6-0.1-0.6-0.5c0-6,0-12,0-18.1c0-0.4,0.2-0.5,0.6-0.5c1.3,0,2.6,0,3.8,0c0.5,0,0.6,0.2,0.6,0.6
	C65.8,13.7,65.8,14.3,65.8,14.9z"/>
<path class="st1" d="M107.9,23.9c-0.1,2.4,0,4.8,0.3,7.3c0.1,0.4,0,0.5-0.4,0.6c-1.9,0.4-3.6,0.1-4.5-1.8c-0.3-0.5-0.4-0.2-0.6,0
	c-2,2-4.9,2.6-7.6,1.7c-2.4-0.8-3.9-3.1-3.7-5.7c0.1-3.3,2.3-5.2,4.9-6.1c1.8-0.6,3.8-0.9,5.7-0.9c0.6,0,0.7-0.2,0.6-0.8
	c-0.2-1.5-1.6-2.5-3.1-2.4c-1.8-0.1-3.6,0.3-5.2,1.1c-0.5,0.3-0.7,0.2-0.8-0.4c-0.2-0.8-0.4-1.6-0.7-2.4c-0.1-0.3-0.1-0.5,0.2-0.6
	c3.2-1.6,6.8-2,10.2-1c2.4,0.7,4.1,2.8,4.4,5.3C107.9,19.9,108,21.9,107.9,23.9z M102.8,24.1c0-1.8,0-1.9-1.5-1.8
	c-1.3,0-2.6,0.4-3.7,1.2c-0.9,0.7-1.2,1.9-0.9,2.9c0.3,0.9,1.1,1.6,2.1,1.7c0.7,0.1,1.3,0,1.9-0.3C102.2,27.3,103,25.7,102.8,24.1
	L102.8,24.1z"/>
<path class="st1" d="M48.7,24.4c0,2.2,0.1,4.4,0.3,6.5c0.1,0.5-0.1,0.8-0.6,0.8c-1.7,0.2-3.4,0.2-4.3-1.9c-0.3-0.6-0.4,0-0.6,0.1
	c-2,1.9-4.9,2.6-7.5,1.6c-3.9-1.3-5.1-6.7-2.2-9.7c1.7-1.6,4-2.6,6.3-2.8C41,19,41.9,19,42.8,19c0.7,0,0.7-0.3,0.6-0.8
	c-0.2-1.5-1.6-2.5-3.1-2.4c-1.8-0.1-3.6,0.3-5.1,1.1c-0.6,0.3-0.8,0.2-0.9-0.4c-0.2-0.8-0.4-1.5-0.7-2.3c-0.1-0.3,0-0.5,0.3-0.6
	c3.2-1.6,7-2,10.4-0.9c2.9,1,4.1,3.3,4.3,6.2C48.8,20.7,48.7,22.6,48.7,24.4z M43.6,24.1c0-1.8,0-1.9-1.5-1.8
	c-1.3,0-2.7,0.4-3.7,1.2c-0.9,0.8-1.2,2-0.8,3.1c0.4,1,1.4,1.6,2.4,1.5c0.5,0,1.1-0.1,1.5-0.4C43,27.2,43.8,25.7,43.6,24.1z"/>
<path class="st1" d="M124.6,16c0-3.1,0-6.2,0-9.3c0-0.5,0.1-0.7,0.6-0.7c1.3,0,2.6,0,3.9,0c0.5,0,0.6,0.1,0.6,0.6c0,1.6,0,3.2,0,4.9
	c0,0.5,0.1,0.6,0.6,0.6c1.1,0,2.2,0,3.3,0c0.4,0,0.5,0.1,0.5,0.5c0,1.3,0,2.5,0,3.8c0,0.5-0.2,0.6-0.6,0.6c-1.1,0-2.2,0-3.3,0
	c-0.4,0-0.6,0.1-0.6,0.5c0.1,2.5-0.1,5,0.1,7.6c0.2,2.1,1.2,2.8,3.3,2.4c0.9-0.2,0.9-0.2,0.9,0.8s0,1.8,0,2.7c0,0.3,0,0.5-0.3,0.6
	c-1.8,0.6-3.8,0.6-5.6,0.1c-1.8-0.6-3.1-2.2-3.2-4.1c-0.2-1.9-0.3-3.9-0.2-5.9C124.6,19.8,124.6,17.9,124.6,16z"/>
<path class="st1" d="M52.2,18.8c0-4,0-8,0-12c0-0.7,0.2-0.8,0.8-0.8c1.3,0.1,2.5,0,3.8,0c0.4,0,0.6,0.1,0.6,0.6c0,8.1,0,16.2,0,24.3
	c0,0.5-0.2,0.6-0.6,0.6c-1.3,0-2.6,0-3.8,0c-0.6,0-0.7-0.2-0.7-0.7C52.2,26.9,52.2,22.9,52.2,18.8z"/>
<path class="st1" d="M116,15.9c0.6-1.5,1.8-2.7,3.3-3.4c0.8-0.4,1.8-0.5,2.7-0.4c0.4,0,0.6,0.1,0.6,0.6c0,1.3,0,2.6,0,3.9
	c0,0.4-0.2,0.5-0.6,0.5c-0.6-0.1-1.1-0.1-1.7,0c-2,0.2-3.6,1.8-3.6,3.8c-0.1,3.2,0,6.5-0.1,9.7c0,1,0,1-1,1c-1.3,0-2.5,0-3.8,0
	c-0.4,0-0.6-0.1-0.6-0.6c0-6,0-12,0-18c0-0.4,0.1-0.6,0.5-0.6c1.2,0,2.4,0,3.6,0c0.4,0,0.5,0.1,0.5,0.5C116,14,116,15,116,15.9z"/>
<path class="st2" d="M158,0.5c0.6,0,1.1,0.2,1.6,0.5c0.5,0.3,0.8,0.9,0.7,1.5c-0.3,3.1-0.5,6.1-0.8,9.2c-0.1,1-1,1.6-2,1.5
	c-0.1,0-0.2,0-0.3-0.1c-0.9-0.3-1.2-0.6-1.3-1.6c-0.3-2.9-0.5-5.8-0.8-8.7C155,1.4,155.9,0.5,158,0.5z"/>
<path class="st2" d="M174.3,27c-0.1,1.1-0.7,2.1-1.6,2.8c-0.6,0.5-1.5,0.4-2.1-0.1c-2.3-1.8-4.8-3.5-7.2-5.2c-0.7-0.4-1-1.3-0.6-2
	c0,0,0-0.1,0.1-0.1c0.6-1.1,1.3-1.4,2.2-0.9c2.7,1.2,5.4,2.5,8,3.7C173.9,25.4,174.4,26.2,174.3,27z"/>
<path class="st2" d="M141.2,26.9c-0.1-0.8,0.4-1.5,1.1-1.8l8-3.7c0.8-0.4,1.7-0.1,2.1,0.7c0,0,0,0.1,0,0.1c0.5,0.9,0.4,1.7-0.3,2.2
	c-2.5,1.7-4.9,3.3-7.3,5.2c-0.8,0.7-2.1,0.6-2.8-0.3c-0.1-0.1-0.1-0.2-0.2-0.3C141.4,28.5,141.1,27.7,141.2,26.9z"/>
<path class="st2" d="M157.7,37.9c-0.6,0-1.2-0.2-1.8-0.5c-0.6-0.3-0.9-1-0.8-1.6c0.3-3.1,0.6-6.3,0.9-9.4c0.1-0.7,0.6-0.9,1.1-1.1
	c0.9-0.4,1.9,0.1,2.3,0.9c0.1,0.3,0.1,0.5,0.1,0.8c0.2,2.7,0.3,5.4,0.7,8C160.5,37.1,159.3,37.8,157.7,37.9z"/>
<path class="st2" d="M143.7,8.4c0.4,0.1,0.7,0.2,1,0.4L152,14c0.8,0.6,0.9,1.2,0.4,2.2c-0.3,0.8-1.2,1.2-2,0.9c0,0-0.1,0-0.1-0.1
	c-2.8-1.3-5.6-2.6-8.4-3.9c-0.9-0.4-0.8-1.2-0.8-2C141.3,9.7,142.3,8.6,143.7,8.4z"/>
<path class="st2" d="M162.7,15.1c-0.1-0.4,0.2-0.9,0.6-1.1c2.4-1.6,4.7-3.3,7.1-4.9c1.6-1.1,3-0.7,3.7,1.1c0.2,0.4,0.3,0.9,0.3,1.4
	c0,0.6-0.3,1.2-0.9,1.5c-2.8,1.3-5.5,2.6-8.3,3.8c-0.9,0.4-1.9-0.1-2.3-1C162.7,15.7,162.6,15.4,162.7,15.1z"/>
<path class="st3" d="M101.2,44.7c-0.6,2.1-1.1,4.2-1.7,6.4c-0.1,0.4-0.2,0.8-0.8,0.8s-0.6-0.2-0.8-0.6c-0.5-2.1-1.1-4.2-1.8-6.4
	c0,0.6-0.1,1.1-0.1,1.6c-0.1,1.6-0.2,3.1-0.2,4.7c0,0.9-0.6,0.7-1.1,0.7c-0.6,0.1-0.6-0.4-0.5-0.8c0.2-3.4,0.4-6.8,0.6-10.2
	c0-0.4,0.1-0.5,0.5-0.5c1.3-0.1,1.3-0.1,1.6,1.1c0.6,2.2,1.1,4.3,1.7,6.5c0.4-0.1,0.2-0.4,0.3-0.6c0.6-2.1,1.1-4.3,1.6-6.5
	c0.1-0.4,0.3-0.6,0.7-0.6c0.2,0,0.4,0,0.6,0c0.4,0,0.6,0.1,0.6,0.6c0.1,2.1,0.3,4.1,0.4,6.2c0.1,1.4,0.1,2.8,0.2,4.1
	c0,0.4-0.1,0.5-0.5,0.6c-1.1,0-1.1,0-1.1-1.1C101.5,48.8,101.4,46.8,101.2,44.7L101.2,44.7z"/>
<path class="st3" d="M11.6,48c0-2.4,0-4.6,0-6.8c0-0.6,0.2-0.7,0.8-0.7s0.8,0.1,0.8,0.7c0,3.3,0,6.6,0,10c0,0.3,0.2,0.7-0.3,0.7
	s-1.1,0.3-1.4-0.4c-0.9-2.3-1.8-4.5-2.7-6.7c0-0.1-0.1-0.2-0.2-0.4c0,1.7,0,3.3,0,5c0,0.7,0,1.4,0,2.1c0,0.5-0.3,0.6-0.6,0.5
	c-0.3-0.1-1,0.3-1-0.5c0-3.5,0-7,0-10.5c0-0.4,0.2-0.5,0.6-0.5c0.6-0.1,1.2,0.2,1.3,0.8c0,0,0,0,0,0C9.8,43.5,10.7,45.7,11.6,48z"/>
<path class="st3" d="M29.8,51.6c-0.7,0.4-1.7,0.4-2.4,0c-0.4-0.3-0.8-0.8-0.9-1.3c-0.7-1.7-0.7-3.6,0-5.2c0.4-1.2,1.6-1.9,2.8-1.5
	c0.2,0.1,0.4,0.1,0.5,0.2c0.2,0.1,0.2,0,0.4-0.1c0.4-0.2,0.9-0.3,1.3-0.1c0.4,0.1,0.1,0.5,0.1,0.8c0,2.4,0,4.8,0,7.2
	c0.1,1-0.3,2.1-1,2.9c-1.1,0.8-2.6,1-3.8,0.4c-0.7-0.3-0.1-0.8,0-1.2s0.3-0.2,0.5-0.1c0.2,0.1,0.3,0.1,0.5,0.1
	C29.3,54,30.2,53.2,29.8,51.6z M29.9,47.7c0.1-0.6,0.1-1.3-0.1-1.9c-0.1-0.4-0.4-0.8-0.8-0.8c-0.5,0-0.9,0.3-1,0.7
	c-0.5,1.3-0.5,2.6,0,3.9c0.2,0.5,0.5,0.9,1,0.8s0.8-0.5,0.8-1C29.9,48.8,29.9,48.3,29.9,47.7z"/>
<path class="st3" d="M87.1,43.8c0-1,0-2,0-3c0-0.4,0.1-0.7,0.6-0.6c0.2,0,0.3,0,0.5,0c0.5-0.1,0.7,0.1,0.7,0.6c0,3.5,0,6.9,0,10.4
	c0,0.2,0.2,0.6-0.2,0.7s-1,0.3-1.2-0.1s-0.4-0.2-0.6-0.1c-0.9,0.6-2.2,0.4-2.8-0.5c-0.1-0.1-0.2-0.3-0.2-0.4
	c-0.8-1.6-0.9-3.4-0.4-5.1C83.9,43.7,85.1,43.1,87.1,43.8z M87.1,47.7c0-0.7,0-1.3-0.1-2c-0.1-0.4-0.4-0.7-0.9-0.8
	c-0.4,0-0.8,0.3-0.9,0.7c-0.5,1.4-0.5,2.8,0,4.2c0.1,0.4,0.4,0.7,0.8,0.7c0.4,0,0.7-0.3,0.8-0.7C87,49.1,87.1,48.4,87.1,47.7
	L87.1,47.7z"/>
<path class="st3" d="M43.2,44c0.7-0.6,1.6-0.7,2.4-0.3c0.6,0.4,1.1,1,1.3,1.7c0.6,1.8,0.4,3.8-0.5,5.5c-0.5,1-1.7,1.4-2.7,1
	c-0.1-0.1-0.2-0.1-0.3-0.2c-0.2-0.1-0.3-0.2-0.5,0.1c-0.3,0.4-0.8,0.2-1.3,0.2s-0.2-0.4-0.2-0.7c0.2-3.3,0.1-6.7,0.1-10
	c0-0.6-0.1-1.1,0.8-1.1s0.8,0.6,0.8,1.1C43.2,42.1,43.2,43,43.2,44z M43.2,47.7c-0.1,0.7,0,1.4,0.2,2c0.2,0.4,0.4,0.8,0.9,0.8
	s0.8-0.4,0.9-0.9c0.4-1.3,0.4-2.6,0-3.8c-0.1-0.5-0.4-0.9-0.9-0.9s-0.7,0.4-0.9,0.8C43.2,46.4,43.1,47,43.2,47.7L43.2,47.7z"/>
<path class="st3" d="M63,44c2-1.2,3.5,0,3.6,1.8s0,3.8,0,5.7c0,0.3-0.1,0.4-0.4,0.4c-0.2,0-0.5,0-0.7,0c-0.4,0-0.6-0.2-0.6-0.6
	c0-1.5,0-3,0-4.5c0-0.3,0-0.7,0-1c0-0.5-0.3-0.9-0.7-1c-0.5-0.1-0.8,0.2-1,0.6c-0.2,0.3-0.2,0.7-0.2,1c0,1.6,0,3.2,0,4.8
	c0,0.6-0.2,0.7-0.7,0.6s-1,0.3-1-0.6c0-3.5,0-7,0-10.5c0-0.8,0.4-0.6,0.9-0.6s0.9-0.2,0.9,0.6C63,41.9,63,42.9,63,44z"/>
<path class="st3" d="M35.6,44c0.6-0.4,1.3-0.6,1.9-0.5c1,0.2,1.7,1.1,1.7,2.1c0.1,2,0,3.9,0,5.9c0,0.3-0.1,0.4-0.5,0.5
	c-1.2,0.1-1.2,0.1-1.2-1.1c0-1.4,0-2.7,0-4.1c0-0.4,0-0.8-0.1-1.1c0-0.4-0.3-0.7-0.7-0.8c-0.4,0-0.8,0.2-0.9,0.5
	c-0.2,0.4-0.3,0.8-0.3,1.2c0,1.6,0,3.1,0,4.6c0,0.5-0.1,0.7-0.6,0.7c-1.3-0.1-1.1,0.2-1.1-1.1c0-3.3,0-6.6,0-9.9
	c0-0.8,0.4-0.8,0.9-0.8s0.9-0.1,0.9,0.7C35.5,41.9,35.6,42.9,35.6,44z"/>
<path class="st3" d="M119.1,48.5c-0.1,0.8-0.1,1.7-0.1,2.5c0,0.3,0.2,0.7-0.2,0.9c-0.4,0.1-0.9,0.1-1.4,0c-0.2,0-0.1-0.3-0.1-0.4
	c0-3.6,0-7.2,0-10.8c0-0.3,0.1-0.5,0.4-0.4c0.1,0,0.2,0,0.3,0c1.2,0,1-0.1,1,1c0,1.7,0,3.3,0,5.1c0.5-0.6,0.9-1.2,1.2-1.9
	c0.2-0.6,0.9-1,1.5-0.9c0.3,0,0.6,0,0.9,0c-0.5,0.9-1,1.7-1.6,2.5c-0.6,0.6-0.6,1.5-0.1,2.2c0.6,1,1.1,2.1,1.6,3.2
	c0.2,0.3,0.2,0.5-0.3,0.5c-1.3,0.1-1.3,0.1-1.9-1.1c-0.4-0.8-0.7-1.6-1.1-2.3L119.1,48.5z"/>
<path class="st3" d="M81.5,47.7c0.1,1.1-0.2,2.3-0.8,3.3c-0.8,1.1-2.3,1.4-3.4,0.6c-0.3-0.2-0.5-0.4-0.6-0.6c-1.1-1.8-1.2-4-0.3-5.9
	c0.4-1,1.3-1.6,2.4-1.6c1.1,0,2,0.7,2.3,1.7C81.5,46,81.6,46.9,81.5,47.7z M77.5,47.7c0,0.7,0.1,1.4,0.3,2.1
	c0.2,0.4,0.4,0.7,0.8,0.7c0.4,0,0.7-0.3,0.8-0.7c0.5-1.4,0.5-2.8,0-4.2c-0.1-0.4-0.4-0.8-0.9-0.8s-0.7,0.4-0.8,0.8
	C77.6,46.3,77.5,47,77.5,47.7L77.5,47.7z"/>
<path class="st3" d="M74.3,47.7c0.1,1.1-0.2,2.3-0.8,3.3c-0.8,1.1-2.3,1.4-3.4,0.6c-0.3-0.2-0.5-0.4-0.6-0.6c-1.1-1.8-1.2-4.1-0.3-6
	c0.4-1,1.4-1.6,2.4-1.5c1.1,0.1,2,0.8,2.3,1.8C74.2,46.1,74.3,46.9,74.3,47.7z M72.6,47.7c0-0.8-0.1-1.5-0.4-2.3
	c-0.1-0.3-0.4-0.6-0.8-0.6c-0.4,0-0.7,0.2-0.8,0.6c-0.6,1.5-0.6,3.1,0,4.6c0.1,0.3,0.4,0.6,0.8,0.6c0.4,0,0.7-0.2,0.8-0.6
	C72.5,49.2,72.7,48.5,72.6,47.7L72.6,47.7z"/>
<path class="st3" d="M48.7,47.9c0-0.9,0.1-1.8,0.4-2.6c0.3-1.1,1.4-1.9,2.5-1.9c1.2,0,2.2,0.8,2.4,1.9c0.7,1.8,0.5,3.8-0.4,5.5
	c-0.7,1.1-2.2,1.5-3.4,0.8c-0.3-0.2-0.6-0.4-0.8-0.8C48.9,50,48.7,49,48.7,47.9z M50.4,47.7c-0.1,0.7,0,1.5,0.3,2.2
	c0.1,0.4,0.5,0.7,0.9,0.7c0.4,0,0.7-0.3,0.8-0.6c0.5-1.4,0.5-2.9,0-4.3c-0.1-0.4-0.4-0.7-0.8-0.7c-0.5,0-0.7,0.4-0.9,0.8
	C50.4,46.3,50.3,47,50.4,47.7L50.4,47.7z"/>
<path class="st3" d="M110,48.6c0,1,0,1.9,0.1,2.9c0,0.2,0,0.4-0.3,0.4c-0.4-0.1-1,0.4-1.3-0.3c-0.1-0.2-0.2,0-0.3,0.1
	c-0.9,0.7-2.1,0.5-2.8-0.4c-0.2-0.3-0.4-0.7-0.4-1c-0.4-1.6,0.5-3.2,2-3.6c0.1,0,0.2-0.1,0.3-0.1c0.4-0.1,1.1,0.1,0.9-0.8
	c-0.1-0.7-0.5-1-1.3-0.9c-0.2,0-0.3,0.1-0.5,0.1c-0.3,0-0.5,0.4-0.7,0.2s-0.3-0.6-0.4-0.9s0.1-0.3,0.3-0.4c2-1,4.3-0.5,4.3,2.4
	C110,47,110,47.8,110,48.6z M108.4,48.8c0-0.2,0-0.4,0-0.6s-0.1-0.4-0.4-0.4c-0.9,0.1-1.5,0.9-1.4,1.8c0,0.1,0,0.2,0.1,0.3
	c0.1,0.4,0.3,0.7,0.7,0.7c0.4,0,0.8-0.2,0.9-0.6C108.4,49.6,108.4,49.2,108.4,48.8z"/>
<path class="st3" d="M127,48h-1.2c-0.7,0-0.8,0.1-0.6,0.9c0.3,1.5,1.1,1.9,2.6,1.5c0.2-0.1,0.5-0.4,0.6,0.1s0.6,1-0.1,1.2
	c-2.1,0.7-3.9,0.3-4.6-2.2c-0.4-1.5-0.3-3.1,0.3-4.4c0.5-1.3,1.9-1.9,3.1-1.5c0.2,0.1,0.4,0.2,0.6,0.3c1,1,1.4,2.5,1.2,3.9
	c-0.1,0.3-0.3,0.3-0.4,0.3H127L127,48z M126.2,46.7c1.1,0,1.1,0,1.1-0.4c0-0.8-0.4-1.5-1-1.5s-1.1,0.8-1.1,1.5
	S125.9,46.5,126.2,46.7L126.2,46.7z"/>
<path class="st3" d="M18.7,48c-0.2,0-0.4,0-0.6,0c-0.4,0.1-1.1-0.4-1.3,0.3c-0.2,0.9,0.4,1.8,1.3,2.1c0.4,0.1,0.9,0,1.3-0.1
	c0.3-0.1,0.6-0.3,0.7,0.2s0.4,1-0.3,1.2c-2.4,0.6-3.9,0-4.5-2.6c-0.4-1.4-0.2-2.9,0.5-4.2c0.4-0.9,1.4-1.6,2.4-1.5
	c1.1,0.1,1.9,0.8,2.2,1.9c0.2,0.7,0.3,1.5,0.3,2.3c0,0.4-0.2,0.5-0.5,0.4S19.2,48,18.7,48z M17.7,46.7c1.2,0,1.2,0,1.2-0.3
	c0-0.7-0.5-1.5-1-1.5s-1.1,0.8-1.1,1.5S17.5,46.5,17.7,46.7L17.7,46.7z"/>
<path class="st3" d="M132.7,41.7c0,0.2,0,0.3,0,0.5c0,0.4-0.2,0.9,0.1,1.2s0.7,0.1,1.1,0.1c0.6,0,0.3,0.5,0.4,0.8s0,0.5-0.4,0.6
	c-1.1,0.1-1.1,0.1-1.1,1.2s0,2.3,0,3.4c0,0.6,0.2,1,0.9,0.9c0.3,0,0.5-0.1,0.5,0.3s0.4,1-0.3,1.2c-1,0.4-2.1,0-2.6-1
	c-0.1-0.2-0.2-0.5-0.2-0.7c-0.2-1.5,0-3-0.1-4.5c0-0.4,0.1-0.9-0.6-0.8c-0.5,0-0.3-0.5-0.3-0.7s-0.1-0.6,0.3-0.6
	c0.3,0,0.7,0,0.6-0.4c-0.1-0.8,0.3-1.1,1-1.2C132.2,41.9,132.4,41.7,132.7,41.7z"/>
<path class="st3" d="M56.2,47.7c0-1.2,0-2.3,0-3.5c0-0.2-0.2-0.6,0.3-0.6s1-0.3,1.3,0.2c0.2,0.4,0.3,0.2,0.4,0.1
	c0.1-0.1,0.2-0.1,0.2-0.2c0.4-0.2,0.9-0.6,1.3-0.2s0.1,0.9,0.1,1.4c0,0.2-0.2,0.2-0.3,0.2c-0.9,0.1-1.6,0.9-1.6,1.8c0,0,0,0.1,0,0.1
	c0,1.4,0,2.8,0,4.2c0,0.7-0.3,0.7-0.8,0.7s-1,0.1-0.9-0.7C56.3,50.1,56.2,48.9,56.2,47.7L56.2,47.7z"/>
<path class="st3" d="M113.9,44.2c0.2-0.2,0.3-0.3,0.5-0.4c0.4-0.2,0.9-0.6,1.3-0.3s0.1,0.9,0.1,1.4c0,0.3-0.2,0.2-0.4,0.2
	c-0.7,0-1.3,0.6-1.4,1.3c-0.1,1.5-0.2,3-0.1,4.5c0,0.3,0.2,0.8-0.2,0.9c-0.4,0.1-0.9,0.1-1.3,0c-0.3-0.1-0.2-0.4-0.2-0.7
	c0-2.3,0-4.6,0-6.9c0-0.3-0.2-0.8,0.4-0.7S113.8,43.2,113.9,44.2z"/>
<path class="st3" d="M24.1,47.7c0,1.2,0,2.4,0,3.6c0,0.8-0.5,0.6-0.9,0.6s-0.9,0.1-0.9-0.6c0-2.4,0-4.8,0-7.2c0-0.8,0.5-0.6,1-0.6
	s0.8,0,0.8,0.6C24.1,45.4,24.1,46.5,24.1,47.7z"/>
<path class="st3" d="M24.2,41.8c0,0.5-0.5,1-1,1c-0.6,0-1-0.5-0.9-1.1c0,0,0,0,0,0c0.1-0.5,0.7-0.9,1.2-0.7
	C23.9,41.1,24.2,41.4,24.2,41.8L24.2,41.8z"/>
<path class="st0" d="M29.9,47.7c0,0.6,0,1.1,0,1.7c-0.1,0.5-0.3,1-0.8,1s-0.9-0.3-1-0.8c-0.5-1.3-0.5-2.6,0-3.9
	c0.1-0.4,0.5-0.7,1-0.7c0.4,0,0.7,0.4,0.8,0.8C30,46.4,30,47,29.9,47.7z"/>
<path class="st0" d="M87.1,47.7c0.1,0.7,0,1.4-0.2,2.1c-0.2,0.4-0.4,0.7-0.8,0.7c-0.4,0-0.8-0.3-0.8-0.7c-0.5-1.4-0.5-2.8,0-4.2
	c0.1-0.4,0.5-0.7,0.9-0.7c0.4,0.1,0.8,0.4,0.9,0.8C87.1,46.4,87.1,47.1,87.1,47.7z"/>
<path class="st0" d="M43.2,47.7c-0.1-0.6,0-1.3,0.2-1.9c0.2-0.4,0.4-0.8,0.9-0.8s0.8,0.4,0.9,0.9c0.4,1.3,0.4,2.6,0,3.8
	c-0.2,0.5-0.4,0.9-0.9,0.9s-0.7-0.4-0.9-0.8C43.2,49,43.1,48.4,43.2,47.7z"/>
<path class="st0" d="M77.6,47.7c0-0.7,0.1-1.4,0.3-2.1c0.1-0.4,0.3-0.8,0.8-0.8s0.8,0.4,0.9,0.8c0.5,1.4,0.5,2.8,0,4.2
	c-0.1,0.4-0.4,0.7-0.8,0.7c-0.5,0-0.7-0.3-0.8-0.7C77.7,49.2,77.5,48.5,77.6,47.7z"/>
<path class="st0" d="M72.7,47.7c0,0.8-0.1,1.5-0.4,2.3c-0.1,0.3-0.4,0.6-0.8,0.6c-0.4,0-0.7-0.2-0.8-0.6c-0.6-1.5-0.6-3.1,0-4.6
	c0.1-0.3,0.4-0.6,0.8-0.6c0.3,0,0.6,0.3,0.8,0.6C72.5,46.2,72.7,46.9,72.7,47.7z"/>
<path class="st0" d="M50.4,47.7c-0.1-0.7,0-1.4,0.3-2.1c0.2-0.4,0.3-0.8,0.9-0.8c0.4,0,0.7,0.3,0.8,0.7c0.5,1.4,0.5,2.9,0,4.3
	c-0.1,0.4-0.4,0.6-0.8,0.6c-0.4,0-0.8-0.3-0.9-0.7C50.4,49.2,50.3,48.5,50.4,47.7z"/>
<path class="st0" d="M108.4,48.8c0,0.4,0,0.8-0.2,1.2c-0.1,0.4-0.5,0.6-0.9,0.6c-0.4,0-0.6-0.4-0.7-0.7c-0.3-0.9,0.2-1.8,1.1-2
	c0.1,0,0.2,0,0.3-0.1c0.3,0,0.5,0,0.4,0.4S108.4,48.6,108.4,48.8z"/>
<path class="st0" d="M126.2,46.7c-0.3-0.2-0.9,0.4-1-0.4s0.6-1.5,1.1-1.5s0.9,0.7,1,1.5C127.3,46.7,127.3,46.7,126.2,46.7z"/>
<path class="st0" d="M17.7,46.7c-0.2-0.2-0.8,0.4-0.8-0.3s0.6-1.5,1.1-1.5s1,0.8,1,1.5C18.9,46.7,18.9,46.7,17.7,46.7z"/>
<path class="st2" d="M178.7,32.3c-1,0-1.8-0.8-1.8-1.8c0-1,0.8-1.8,1.8-1.8s1.8,0.8,1.8,1.8S179.7,32.3,178.7,32.3L178.7,32.3z
	 M178.7,29c-0.8,0-1.5,0.7-1.5,1.5s0.7,1.5,1.5,1.5c0.8,0,1.5-0.7,1.5-1.5l0,0C180.2,29.6,179.5,29,178.7,29
	C178.7,29,178.7,29,178.7,29z"/>
<path class="st2" d="M177.9,31.3v-1.7h0.7c0.1,0,0.3,0,0.4,0c0.1,0,0.2,0.1,0.2,0.2c0.1,0.1,0.1,0.2,0.1,0.3c0,0.1,0,0.2-0.1,0.3
	c-0.1,0.1-0.2,0.1-0.3,0.2c0.1,0,0.1,0.1,0.2,0.2c0.1,0.1,0.1,0.2,0.2,0.3l0.2,0.3h-0.4l-0.3-0.4c-0.1-0.1-0.1-0.2-0.2-0.3
	c0,0-0.1-0.1-0.1-0.1h-0.2h-0.1v0.7L177.9,31.3z M178.3,30.3h0.3c0.1,0,0.2,0,0.3,0c0,0,0.1,0,0.1-0.1c0,0,0-0.1,0-0.1
	c0,0,0-0.1,0-0.1c0,0-0.1-0.1-0.1-0.1h-0.5L178.3,30.3z"/>
</svg>
