<svg xmlns="http://www.w3.org/2000/svg" viewBox="0 0 230.94 303.94"><defs><style>.cls-1{fill:#0073af;}.cls-2{fill:#d09532;}.cls-3{fill:#fff;}</style></defs><title>Wetzels Pretzels</title><g id="Layer_2" data-name="Layer 2"><g id="Layer_1-2" data-name="Layer 1"><path class="cls-1" d="M4.19,7.2.07,40.13,0,40.71l.09.57L6.78,82.44l0-.89-3.6,61.22v.29l0,.29,3.6,42.19,0-.82L.07,241.82l0,.41,0,.42,4.63,53L5,299l3.41.29,42.18,3.6.37,0,.36,0,38.07-3.6h-.66l60.71,4.12.4,0,.39-.06,35.5-4.62h-1l38.07,4.63,4.21.51.33-4.23,3.6-46.82,0-.39-.05-.4-5.14-43.21v.8l4.63-57.61,0-.4,0-.4-5.66-48.87v.84l3.09-34V3.06l-4.6.62-26.75,3.6,1.32,0-34-6.69-.53-.1-.54,0L119.56,3.65h.64L78,.06,77.34,0l-.66.16L43.76,8.4l1.49-.09L8.73,3.68l-4-.52Zm41.54,9.08L78.65,8.05l-1.33.1,42.19,3.6.31,0,.32,0,43.22-3.09-1.08-.07,33.95,6.69.66.13.67-.09,26.75-3.6-4.6-4V68.56l-3.08,34,0,.42.05.42,5.66,48.87,0-.79L217.66,209l0,.41.05.4,5.14,43.21v-.79l-3.6,46.81,4.54-3.72-38.07-4.62-.51-.07-.51.07-35.49,4.63.79,0-60.7-4.11-.33,0-.33,0-38.06,3.6h.72l-42.18-3.6,3.7,3.7-4.63-53v.83l6.69-57.11,0-.41,0-.41-3.6-42.18v.59L14.85,82l0-.44-.07-.44L8.11,40l0,1.15L12.25,8.21,7.71,11.74l36.52,4.63.76.09Z"/><path class="cls-2" d="M83.85,272.64h7s-1.85-4.07-6.16-4.07-6.89,3.33-6.89,7.14,3,6.77,6.15,6.77H99.85L95.91,288H81.14s-10.58-2.46-10.58-12.8S79.79,262.05,84,262.05s13,4.43,13,12.43v4.06H83.85A3.25,3.25,0,0,1,82,275.47,2.75,2.75,0,0,1,83.85,272.64Z"/><path class="cls-2" d="M155.67,272.64h7s-1.85-4.07-6.15-4.07-6.9,3.33-6.9,7.14,3,6.77,6.16,6.77h15.88L167.74,288H153s-10.58-2.46-10.58-12.8,9.23-13.17,13.42-13.17,13,4.43,13,12.43v4.06H155.67a3.25,3.25,0,0,1-1.84-3.07A2.75,2.75,0,0,1,155.67,272.64Z"/><path class="cls-2" d="M101.7,256.63h7v7.57h28.07s4.61.74,4.61,4.62c0,2.83-4.61,5.54-4.61,5.54s-8.86,6.28-8.86,8.12h14l-3.51,6.1H119.79a6,6,0,0,1-2.77-4.81c0-3.13,13.67-12.18,13.67-12.18s-.37-.74-3.88-.74h-18.1v11.63h6.84l-3.88,5.91h-7.39a5.79,5.79,0,0,1-2.4-4.25V270.48H98.56s-1.11-.55-1.11-3.32.92-2.77.92-2.77h3.33Z"/><path class="cls-2" d="M171.74,252.82v29.85s.18,4.52,4.52,4.52h6.19l5.76-5.77h-6.13s-2-.23-2-3.74V252.82Z"/><path class="cls-2" d="M210.14,263.16H193a4.88,4.88,0,0,0-4.31,4.92c0,4.43,14.28,9.85,14.28,13.79H190s-1.47.37-1.47,3.07,1.47,2.71,1.47,2.71h20.81s2.83-1.84,2.83-4.43c0-4.06-14.4-11.32-14.4-13.91h10.58s2.09-.24,2.09-3.32S210.14,263.16,210.14,263.16Z"/><path class="cls-2" d="M22.12,254.05v33.42h8.13V261.25h8.67s2,1.11,2,4.43-1.66,4.62-4.61,4.62-3.79,5.81,0,6.27,13.48-1.1,13.48-11.44-10.9-11.27-10.9-11.27Z"/><path class="cls-2" d="M51.66,262.91v24.93h7.76V272.7s.92-4.25,10.15-4.25c0,0,1.66-2,0-5.54,0,0-7.57-1.48-10.71,3.69v-3.87Z"/><path class="cls-1" d="M158.27,194.32l-7-8.89,11.23-24.34.47-29s2.34-3.74-8.42-14c0,0,.46,12.64-9.83,27.15,0,0,6.08,1.87,6.08,7.95s-3.74,8-9.83,8.9-8-4.69-6.55-8a165.28,165.28,0,0,0-18.72,7c-8,3.74-23.87,14-23.87,14L74,176.54s13.79,13.92,17.32,35.1c0,0,7-1.4,7-27.15,0,0,20.83-3.51,25.27-8,0,0,17.79,10.22,25.28,34.63,0,0,23.87-16.85,32.29-16.85C181.2,194.32,171.2,186.69,158.27,194.32Zm-29.49-48.21c6.09,5.15,11.24,2.81,11.7,0s-6.08-10.29-7.49-14,.47-9.36.47-9.36L126,109.6c-13.57,7.49-16.85,11.71-17.31,16.85S122.7,141,128.78,146.11Zm42.34-35.89L152.84,106s11.82,7.76,11.45,20.31S168,114.1,171.12,110.22ZM130.13,50s6.09,5.35,8.49,22.52l17.55-8.49,16.24-.74S166.51,44.49,168,40.8s10.34-5,9.05-13.3S161.7,7,146.75,26c0,0-1.66,1.85-3,.37s-3.69-6.09-8.67-6.09-21.94,1-20.5,19.2C115.73,53.54,130.13,50,130.13,50Zm21.12,19.79-13.11,7.49c1.55,30.05,35.93,28.48,35.93,28.48-2.58-3.88-2.7-14.44-2.7-14.44,8.43.47,10.78-.76,7.6-6.6A94.67,94.67,0,0,1,171.84,68Zm13.22,12a3.33,3.33,0,1,1,3.45-3.33A3.39,3.39,0,0,1,164.47,81.85Z"/><path class="cls-2" d="M152.39,112.78c-.9-10.78-18.86-26.64-24.84-26.34,0,0,2.69-24.25-2.1-29S104.2,39.75,99.11,40.05s-46.39,17.36-50,24.54S38.65,92.13,39,116.07s7.18,33.52,13.77,37.41,28.57,6.76,37.41,10.78c3.3,1.49,9.28,1.49,17.66-3s17.06-8.37,21.85-9.57l-14.36-11.08s-12.58,5.69-20.36.9-4.49-6.28-4.49-6.28l10.18-17.66s8.38,1.49,14.36-4.19a16.66,16.66,0,0,0,5.39-12.57s6.59-1.5,8.38,2.09,9.28,14.67,9,19.46,0,12.57,2.4,15.26l2.39,2.69S153.29,123.55,152.39,112.78ZM71.87,138.52c-10.77,0-8.08-21.25-8.08-21.25l19.76,2.09S82.65,138.52,71.87,138.52ZM109,83.75C90.43,75.66,88.34,102.3,88.34,102.3l-.3.9-27.84-3c-.9-23.35,29.63-35.92,36.22-35s14.37,5.39,15,10.47A10.23,10.23,0,0,1,109,83.75Z"/><path class="cls-3" d="M90.43,54.71l-9-2.39L77.56,60.1l6,3.29Zm23.65-.6-8.08-3-3,5.39,4.79,2.39Zm-42.8,12-4.79,5.08L71.58,73l3.29-2.39-2.69-5.09ZM60.5,69.68l-2.09-6-7.49,3,4.19,4.79ZM53,89.73l-2.1-6.28-6.58,2.69,2.39,7.78Zm-3.89,24c1.49,6.88,10.17-2.7,10.17-2.7l-2.69-5.09S47.63,106.79,49.13,113.68Zm-7.48,18.25,6,3.59,3.29-1.79v-3.89l-6.58-.6Zm49.08-23.34-9.58-1.5-.28.64-1.81,4.15,5.69,2.1Zm22.15-28.74,4.19,6,3.89-.9.6-7.48-7.78,1.2ZM60.2,150.49l3,3.89,6-2.39,2.1-6-6.89-1.2Zm29,8.08,4.49,3.59,3.9-2.09,1.79-6.89-6.29-.6Zm-1.49-20.95-5.09,3.29,4.79,4.19,3-2.69Zm21.55,13.77c0,.9,9,0,9,0l.6-5.39-5.69-1.2S109.29,150.49,109.29,151.39ZM109,93.92l-1.8-5.09h-5.08l.29,6.29Zm-1.8,7.78-7.48,4.79,2.69,6.29,5.39-.3,2.1-7.78Zm19.76-9,2.39,7.79,6-3.3L132,91.83Zm22.75,24-8.39.3-.89,4.49,3,3,6.88-4.19Z"/><path class="cls-1" d="M21.69,216.26h8.86v25.36s.35,2.49,3.83,2.49,3.56-2.49,3.56-2.49V216.26h8.64v25.36s.8,2.32,4.18,2.32,4.1-2.32,4.1-2.32V216.26h8.46v27.5s-2,7.21-11.94,7.21a9,9,0,0,1-8.46-5.07,9.75,9.75,0,0,1-9,5.07c-10.59,0-12.24-7.83-12.24-7.83Z"/><path class="cls-1" d="M79.79,235.58h7s-1.84-4.06-6.15-4.06-6.89,3.33-6.89,7.14,2.95,6.77,6.15,6.77H95.79L91.85,251H77.08s-10.59-2.46-10.59-12.8S75.73,225,79.91,225s13,4.43,13,12.43v4.07H79.79a3.27,3.27,0,0,1-1.85-3.08A2.77,2.77,0,0,1,79.79,235.58Z"/><path class="cls-1" d="M151.61,235.58h7s-1.85-4.06-6.16-4.06-6.89,3.33-6.89,7.14,2.95,6.77,6.15,6.77h15.88L163.67,251H148.9s-10.58-2.46-10.58-12.8S147.55,225,151.73,225s13.05,4.43,13.05,12.43v4.07H151.61a3.27,3.27,0,0,1-1.84-3.08A2.77,2.77,0,0,1,151.61,235.58Z"/><path class="cls-1" d="M98,219h7v7.57h28.07s4.61.74,4.61,4.61c0,2.84-4.61,5.54-4.61,5.54s-8.87,6.28-8.87,8.13h14l-3.51,6.09H116.1a6,6,0,0,1-2.77-4.8c0-3.14,13.66-12.19,13.66-12.19s-.37-.74-3.87-.74H105v11.64h6.83L108,250.73h-7.39a5.81,5.81,0,0,1-2.4-4.25V232.82H94.87s-1.11-.56-1.11-3.33.92-2.77.92-2.77H98Z"/><path class="cls-1" d="M168.91,216.26v29.85s.18,4.52,4.52,4.52h6.18l5.77-5.77h-6.14s-2-.23-2-3.74V216.26Z"/><polygon class="cls-1" points="182.57 216.26 190.51 216.26 184.78 228.38 180.35 228.38 182.57 216.26"/><path class="cls-1" d="M208.17,226.48H191.06a4.88,4.88,0,0,0-4.31,4.92c0,4.43,14.28,9.85,14.28,13.79H188s-1.47.37-1.47,3.07S188,251,188,251h20.81s2.83-1.85,2.83-4.43c0-4.06-14.41-11.32-14.41-13.91H207.8s2.09-.24,2.09-3.32S208.17,226.48,208.17,226.48Z"/><path class="cls-1" d="M215.15,225.29a3.58,3.58,0,1,1-3.55,3.57,3.53,3.53,0,0,1,3.55-3.57Zm0,.56a3,3,0,0,0,0,6,2.91,2.91,0,0,0,2.86-3,2.94,2.94,0,0,0-2.86-3Zm-.67,5.09h-.64v-4a7,7,0,0,1,1.13-.1,2.15,2.15,0,0,1,1.24.3,1,1,0,0,1,.36.83,1,1,0,0,1-.77,1v0c.35.06.58.38.66,1a3.12,3.12,0,0,0,.26,1H216a3.09,3.09,0,0,1-.27-1,.74.74,0,0,0-.86-.7h-.44Zm0-2.2h.46c.52,0,1-.19,1-.69s-.26-.7-1-.7a2.43,2.43,0,0,0-.46,0Z"/></g></g></svg>