<?xml version="1.0" encoding="utf-8"?>
<!-- Generator: Adobe Illustrator 21.1.0, SVG Export Plug-In . SVG Version: 6.00 Build 0)  -->
<svg version="1.1" id="Layer_1" xmlns="http://www.w3.org/2000/svg" xmlns:xlink="http://www.w3.org/1999/xlink" x="0px" y="0px"
	 viewBox="0 0 228.4 40.7" style="enable-background:new 0 0 228.4 40.7;" xml:space="preserve">
<style type="text/css">
	.st0{fill:#FDFDFD;}
	.st1{fill:#040302;}
	.st2{fill:#030303;}
	.st3{fill:#050505;}
	.st4{fill:#020202;}
	.st5{fill:#030302;}
	.st6{fill:#FCC32E;}
	.st7{fill:#FCFCFC;}
	.st8{fill:#FEFEFE;}
	.st9{fill:#FDC32F;}
	.st10{fill:#020100;}
</style>
<title>Fast Casual</title>
<path class="st0" d="M135.5,8.3l-2.9-7.8l-3.3,8l-0.2-0.4c-0.9-2.3-1.9-4.5-2.8-6.8c-0.1-0.2-0.3-0.4-0.5-0.3h-8.1h-0.3l10.1,24.4
	l4.6-8.3l4.5,8.3c0.1,0,0.1-0.1,0.1-0.1l1.2-2.7l8.9-21.1c0.1-0.2,0.3-0.4-0.2-0.4c-2.6,0-5.3,0-7.9,0c-0.2,0-0.3,0.1-0.4,0.3
	c-0.4,0.9-0.8,1.8-1.1,2.7L135.5,8.3z M201.9,12.6c0-3.8,0-7.5,0-11.3c0-0.3-0.1-0.4-0.4-0.4c-2.6,0-5.1,0-7.7,0
	c-0.3,0-0.4,0.1-0.4,0.4c0,2.2,0,4.4,0,6.7c0,0.3-0.1,0.4-0.4,0.4c-1,0-1.9,0-2.9,0c-0.3,0-0.4-0.1-0.4-0.4c0-2.2,0-4.4,0-6.7
	c0-0.3-0.1-0.4-0.3-0.3c-2.6,0-5.1,0-7.7,0c-0.3,0-0.4,0.1-0.4,0.4c0,7.5,0,15.1,0,22.6c0,0.3,0,0.4,0.4,0.4c2.6,0,5.1,0,7.7,0
	c0.3,0,0.4-0.1,0.4-0.4c0-2.5,0-5,0-7.4c0-0.3,0.1-0.3,0.3-0.3c1,0,2,0,2.9,0c0.3,0,0.4,0.1,0.4,0.3c0,2.5,0,5,0,7.4
	c0,0.3,0.1,0.4,0.4,0.4c2.5,0,5.1,0,7.6,0c0.3,0,0.4-0.1,0.4-0.4C201.9,20.2,201.9,16.4,201.9,12.6L201.9,12.6z M88.9,12.6
	c0,3.8,0,7.5,0,11.3c0,0.3,0,0.4,0.3,0.4c2.6,0,5.1,0,7.7,0c0.3,0,0.4-0.1,0.4-0.4c0-2.5,0-5,0-7.4c0-0.3,0.1-0.3,0.3-0.3
	c1,0,1.9,0,2.9,0c0.3,0,0.4,0.1,0.4,0.4c0,2.5,0,4.9,0,7.4c0,0.3,0.1,0.4,0.4,0.4c2.5,0,5.1,0,7.6,0c0.3,0,0.4-0.1,0.4-0.4
	c0-7.5,0-15.1,0-22.6c0-0.3-0.1-0.4-0.4-0.4c-2.5,0-5.1,0-7.6,0c-0.3,0-0.4,0.1-0.4,0.4c0,2.2,0,4.4,0,6.6c0,0.3,0,0.4-0.3,0.4
	c-1,0-1.9,0-2.9,0c-0.3,0-0.4-0.1-0.4-0.4c0-2.2,0-4.4,0-6.6c0-0.3-0.1-0.4-0.4-0.4c-2.5,0-5.1,0-7.6,0c-0.3,0-0.4,0.1-0.4,0.4
	C88.9,5.1,88.9,8.9,88.9,12.6L88.9,12.6z M53.5,12.6c0-3.8,0-7.6,0-11.4c0-0.3-0.1-0.3-0.3-0.3c-2.6,0-5.1,0-7.7,0
	c-0.3,0-0.4,0.1-0.4,0.4c0,2.2,0,4.4,0,6.6c0,0.3-0.1,0.4-0.4,0.4c-0.9,0-1.9,0-2.8,0c-0.3,0-0.4-0.1-0.4-0.4c0-2.2,0-4.4,0-6.6
	c0-0.3,0-0.4-0.4-0.4c-2.5,0-5.1,0-7.6,0c-0.3,0-0.4,0.1-0.4,0.4c0,7.5,0,15.1,0,22.6c0,0.3,0,0.4,0.3,0.4c2.6,0,5.1,0,7.7,0
	c0.3,0,0.3-0.1,0.3-0.4c0-2.5,0-5,0-7.4c0-0.3,0.1-0.3,0.3-0.3c1,0,2,0,2.9,0c0.3,0,0.4,0.1,0.4,0.4c0,2.5,0,5,0,7.4
	c0,0.3,0.1,0.3,0.3,0.3c2.6,0,5.1,0,7.7,0c0.3,0,0.4-0.1,0.4-0.4c0.1-3.7,0.1-7.4,0.1-11.2L53.5,12.6z M76.3,24.8
	c2.9,0.1,5.7-1,7.8-3c1.6-1.6,2.9-3.6,3.5-5.8c0.1-0.3-0.1-0.3-0.2-0.3l-7.2-2.1c-0.5-0.1-0.5-0.1-0.6,0.3c-0.1,0.6-0.4,1.2-0.8,1.8
	c-1.3,1.3-3.4,1.2-4.7-0.1c-0.2-0.2-0.3-0.4-0.5-0.6c-0.8-1.5-0.8-3.2,0-4.6c0.4-0.8,1.2-1.4,2.1-1.6c1.6-0.4,3.2,0.6,3.6,2.1
	c0.1,0.3,0.2,0.6,0.3,0.8s0.2,0.3,0.4,0.2c2.2-0.9,4.5-1.8,6.7-2.6c0.7-0.3,0.6-0.3,0.4-0.9c-0.7-2.3-2.1-4.3-4-5.7
	c-2.3-1.7-5.2-2.5-8-2.2c-1.9,0.1-3.8,0.7-5.4,1.8c-4.1,2.6-6.2,7.5-5.3,12.3c0.7,6,5.8,10.4,11.8,10.2L76.3,24.8z M169,24.8
	c2.7,0.1,5.3-0.8,7.3-2.6c1.9-1.6,3.2-3.7,3.9-6.1c0.1-0.3,0-0.3-0.2-0.4l-7.1-2c-0.6-0.2-0.6-0.2-0.8,0.4c-0.1,0.6-0.4,1.2-0.8,1.7
	c-1.4,1.3-3.5,1.2-4.7-0.2c0,0-0.1-0.1-0.1-0.1c-1.1-1.7-1.1-3.9,0.1-5.6c0.8-0.9,1.9-1.3,3.1-1c1.1,0.1,2,0.9,2.3,2
	c0.1,0.3,0.2,0.6,0.3,0.9s0.1,0.4,0.5,0.3c2.3-0.9,4.6-1.8,6.9-2.7c0.5-0.2,0.5-0.2,0.3-0.7c-1.5-5-6.2-8.3-11.5-8
	c-2.1,0.1-4.2,0.7-6,1.8c-4,2.7-6.1,7.5-5.3,12.3c0.8,5.9,5.9,10.3,11.9,10.1L169,24.8z M216.3,1c-6.4,0-11.6,5.2-11.6,11.5
	s5.2,11.6,11.5,11.6c6.3,0,11.5-5,11.6-11.3c0.1-6.4-5.1-11.6-11.5-11.7L216.3,1z M147.5,12.6c0,3.8,0,7.5,0,11.3
	c0,0.3,0.1,0.4,0.4,0.4c2.6,0,5.2,0,7.8,0c0.3,0,0.4-0.1,0.4-0.4c0-7.5,0-15.1,0-22.6c0-0.3-0.1-0.4-0.4-0.4c-2.6,0-5.2,0-7.8,0
	c-0.3,0-0.4,0.1-0.4,0.4c0.1,3.9,0.1,7.7,0.1,11.4L147.5,12.6z M54.8,12.6c0,3.8,0,7.6,0,11.3c0,0.3,0.1,0.4,0.4,0.4
	c2.6,0,5.2,0,7.8,0c0.3,0,0.4-0.1,0.4-0.4c0-7.5,0-15,0-22.6c0-0.3-0.1-0.4-0.4-0.4c-2.6,0-5.2,0-7.8,0c-0.3,0-0.4,0.1-0.4,0.4
	C54.9,5.1,54.9,8.9,54.8,12.6L54.8,12.6z M90.8,34.9c0-2.9-2.3-5.2-5.2-5.2c-2.9,0-5.2,2.3-5.2,5.2c0,2.8,2.2,5.2,5.1,5.2
	c2.8,0.1,5.2-2.1,5.3-4.9C90.9,35.1,90.9,35,90.8,34.9L90.8,34.9z M66,34.9c0,1.5,0,3.1,0,4.6c0,0.3,0.1,0.3,0.3,0.3
	c0.7,0,1.4,0,2,0c0.2,0,0.3-0.1,0.3-0.3c0-0.8,0-1.5,0-2.3c0-0.3,0.1-0.3,0.3-0.3s0.7,0,1.1,0c0.2,0,0.3,0.1,0.4,0.2
	c0.5,0.8,1,1.6,1.4,2.4c0.1,0.1,0.1,0.3,0.3,0.3h2.5c0.2,0,0.2-0.1,0.2-0.3s-0.1-0.2-0.2-0.3l-1.8-3.1c-0.1-0.1-0.2-0.2,0-0.3
	c0.7-0.4,1.1-1.1,1.2-1.9c0.4-1.8-0.6-3.5-2.4-4c-0.3-0.1-0.7-0.1-1-0.1c-1.4,0-2.9,0-4.3,0C66,29.9,66,30,66,30.3
	C66.1,31.9,66.1,33.4,66,34.9L66,34.9z M92.5,34.9c0,1.5,0,3.1,0,4.6c0,0.3,0.1,0.4,0.3,0.4c0.6,0,1.3,0,1.9,0
	c0.3,0,0.4-0.1,0.4-0.3c0-0.8,0-1.5,0-2.3c0-0.2,0.1-0.3,0.3-0.3s0.7,0,1.1,0c0.2,0,0.4,0.1,0.4,0.3c0.5,0.8,0.9,1.6,1.4,2.4
	c0.1,0.2,0.3,0.3,0.5,0.3c0.7,0,1.4,0,2,0c0.2,0,0.4,0.1,0.4-0.1s-0.1-0.3-0.2-0.5c-0.6-1-1.2-2-1.8-3.1c-0.1-0.2-0.1-0.3,0.1-0.4
	c0.3-0.2,0.5-0.4,0.7-0.7c0.4-0.8,0.6-1.8,0.4-2.7c-0.3-1.6-1.7-2.7-3.3-2.6c-1.4,0-2.9,0-4.3,0c-0.3,0-0.3,0.1-0.3,0.4
	C92.6,31.9,92.6,33.4,92.5,34.9L92.5,34.9z M135.3,34.9c0,1.5,0,3.1,0,4.6c0,0.1-0.1,0.3,0.2,0.3c1.5,0,3,0.1,4.5-0.1
	c1.6-0.1,3.1-1.2,3.6-2.8c0.3-1,0.4-2,0.3-3c0-2.3-1.9-4.1-4.1-4.1c-0.1,0-0.2,0-0.3,0c-1.3,0-2.5,0-3.8,0c-0.3,0-0.4,0.1-0.4,0.4
	C135.3,31.9,135.3,33.4,135.3,34.9L135.3,34.9z M148.7,34.7c-0.1-0.1-0.1-0.2-0.1-0.3c-0.4-1.4-0.9-2.7-1.3-4.1
	c-0.1-0.3-0.2-0.4-0.5-0.4c-0.7,0-1.3,0-2,0c-0.3,0-0.3,0.1-0.2,0.3c1.1,3.2,2.4,6.4,3.6,9.5c0,0.1,0.1,0.3,0.2,0.3s0.2-0.2,0.3-0.3
	l1.8-3.9c0-0.1,0-0.2,0.2-0.3c0.6,1.4,1.2,2.7,1.8,4.1c0.1,0.1,0.1,0.3,0.3,0.3s0.2-0.2,0.3-0.4c0.3-0.8,0.6-1.5,0.9-2.3l2.8-7
	c0.2-0.4,0.2-0.4-0.3-0.4s-1.2,0-1.8,0c-0.2,0-0.4,0.1-0.4,0.3c0,0,0,0,0,0c-0.4,1.4-0.9,2.8-1.3,4.2c0,0.1,0,0.2-0.1,0.2l-1.7-4.5
	c0-0.1-0.1-0.3-0.3-0.3s-0.2,0.2-0.3,0.3c-0.2,0.5-0.4,1.1-0.6,1.6L148.7,34.7z M130.6,34.4c-0.9-0.8-1.7-1.5-2.5-2.2
	c-0.8-0.7-1.9-1.7-3-2.4c-0.1-0.1-0.1-0.2-0.3-0.1s-0.1,0.2-0.1,0.3c0,0.4,0,0.8,0,1.1c-0.1,2.8,0,5.6,0,8.4c0,0.3,0.1,0.4,0.4,0.4
	c0.6,0,1.2,0,1.8,0c0.3,0,0.3-0.1,0.3-0.3c0-1,0-2.1,0-3.1v-1l1.4,1.2c1.3,1.2,2.7,2.4,4.1,3.5c0.1,0.1,0.2,0.2,0.3,0.1
	s0.1-0.1,0.1-0.2c0-3.2,0-6.4,0-9.6c0-0.2-0.1-0.3-0.3-0.3c-0.6,0-1.2,0-1.9,0c-0.3,0-0.4,0.1-0.4,0.4
	C130.7,31.7,130.7,33.1,130.6,34.4L130.6,34.4z M181.8,34.9c0-1.5,0-3.1,0-4.6c0-0.2,0-0.3-0.3-0.3c-0.7,0-1.3,0-2,0
	c-0.3,0-0.3,0.1-0.3,0.3c0,1,0,1.9,0,2.9c0,0.3-0.1,0.4-0.4,0.3c-0.9,0-1.8,0-2.6,0c-0.3,0-0.3-0.1-0.3-0.3c0-1,0-2,0-2.9
	c0-0.2,0-0.3-0.3-0.3c-0.7,0-1.4,0-2,0c-0.2,0-0.3,0.1-0.3,0.3c0,3.1,0,6.2,0,9.3c0,0.2,0.1,0.3,0.3,0.3c0.7,0,1.3,0,2,0
	c0.3,0,0.4-0.1,0.4-0.4c0-1.1,0-2.2,0-3.3c0-0.3,0.1-0.3,0.3-0.3c0.9,0,1.8,0,2.7,0c0.3,0,0.3,0.1,0.3,0.3c0,1.1,0,2.2,0,3.3
	c0,0.3,0.1,0.4,0.4,0.4c0.6,0,1.3,0,1.9,0c0.3,0,0.4-0.1,0.4-0.4C181.9,38,181.9,36.4,181.8,34.9L181.8,34.9z M184,34.9
	c0,1.5,0,3.1,0,4.6c0,0.2,0,0.4,0.3,0.4c2.1,0,4.3,0,6.4,0c0.2,0,0.3-0.1,0.3-0.3c0-0.6,0-1.1,0-1.6c0-0.3-0.1-0.4-0.4-0.4
	c-1.3,0-2.5,0-3.8,0.1c-0.2,0-0.3,0-0.3-0.3c0-0.4,0-0.7,0-1.1c0-0.3,0.1-0.3,0.3-0.3c1.2,0,2.4,0,3.5,0c0.3,0,0.4-0.1,0.4-0.4
	c0-0.5,0-1,0-1.4c0-0.3-0.1-0.4-0.4-0.4c-1.2,0-2.4,0-3.5,0c-0.2,0-0.3,0-0.3-0.3c0-0.3,0-0.7,0-1c0-0.2,0-0.3,0.3-0.3
	c1.2,0,2.4,0,3.7,0.1c0.3,0,0.4-0.1,0.4-0.4c0-0.5,0-1,0-1.5c0-0.3-0.1-0.3-0.3-0.3c-2.1,0-4.2,0-6.3,0c-0.3,0-0.3,0.1-0.3,0.3
	C184.1,31.8,184.1,33.3,184,34.9L184,34.9z M43.5,33.5c0,1,0,2.1,0,3.1c0,0.5-0.2,0.9-0.7,1.2c-0.7,0.5-1.7,0.3-2.1-0.4
	c-0.2-0.3-0.3-0.6-0.3-1c0-2,0-4,0-6.1c0-0.1,0-0.3-0.2-0.3c-0.7,0-1.5,0-2.2,0c-0.2,0-0.2,0-0.2,0.2c0,2.2,0,4.4,0,6.5
	c0,1.3,0.8,2.5,2,3c0.8,0.3,1.8,0.4,2.7,0.4c1.8,0.1,3.3-1.3,3.4-3.1c0-0.1,0-0.2,0-0.3c0.1-2.2,0-4.4,0-6.6c0-0.2-0.1-0.2-0.3-0.2
	c-0.7,0-1.3,0-2,0c-0.3,0-0.3,0.1-0.3,0.3C43.5,31.3,43.5,32.4,43.5,33.5z M168,40.1c1.8-0.1,3.3-1.2,4-2.8c0.1-0.2,0.1-0.4-0.2-0.4
	c-0.6-0.2-1.3-0.4-1.9-0.5c-0.1-0.1-0.3,0-0.3,0.1c0,0,0,0,0,0c-0.4,0.9-1.4,1.3-2.4,1.1c-1-0.1-1.8-0.8-2-1.8c-0.1-0.5-0.1-1,0-1.6
	c0.1-1,0.9-1.8,1.9-2c1-0.2,2,0.2,2.5,1.2c0.1,0.2,0.2,0.2,0.4,0.1l1.7-0.6c0.5-0.2,0.5-0.2,0.2-0.7c-1.1-2-3.4-3-5.5-2.4
	c-2.6,0.6-4.4,3-4,5.7C162.7,38.3,164.8,40.1,168,40.1L168,40.1z M57.5,34.9c0,1.5,0,3.1,0,4.6c0,0.2,0,0.3,0.3,0.3h6.5
	c0.2,0,0.3-0.1,0.3-0.3c0-0.5,0-1,0-1.6s-0.1-0.4-0.4-0.4c-1.2,0-2.5,0-3.7,0.1c-0.3,0-0.3-0.1-0.3-0.3c0-0.3,0-0.7,0-1
	c0-0.3,0.1-0.4,0.4-0.4H64c0.3,0,0.3-0.1,0.3-0.3c0-0.5,0-0.9,0-1.4c0-0.4-0.1-0.5-0.5-0.5c-1.2,0-2.3,0-3.5,0
	c-0.3,0-0.3-0.1-0.3-0.3c0-0.3,0-0.7,0-1c0-0.2,0-0.3,0.3-0.3c1.2,0,2.5,0,3.7,0.1c0.3,0,0.3-0.1,0.3-0.3c0-0.5,0-1,0-1.5
	c0-0.3-0.1-0.3-0.3-0.3c-2.1,0-4.2,0-6.3,0c-0.3,0-0.3,0.1-0.3,0.3C57.5,31.8,57.5,33.3,57.5,34.9L57.5,34.9z M48.1,34.9
	c0,1.6,0,3.1,0,4.6c0,0.2,0,0.3,0.3,0.3c0.7,0,1.4,0,2.1,0c0.2,0,0.3-0.1,0.3-0.3c0-0.6,0-1.3,0-1.9c0-0.3,0.1-0.3,0.3-0.3
	c0.7,0,1.4,0,2.1-0.1c1.3-0.1,2.5-1.1,2.8-2.4c0.1-0.6,0.2-1.2,0.1-1.8c-0.1-1.8-1.6-3.2-3.4-3.1c0,0,0,0,0,0c-1.4,0-2.8,0-4.1,0
	c-0.3,0-0.3,0.1-0.3,0.3C48.1,31.9,48.1,33.4,48.1,34.9L48.1,34.9z M108.8,40.1c1,0.1,2-0.2,2.9-0.7c1-0.6,1.5-1.8,1.3-2.9
	c0-1.1-0.8-2.1-1.9-2.5c-0.4-0.1-0.7-0.2-1.1-0.3c-0.6-0.1-1.2-0.2-1.8-0.4c-0.4-0.2-0.5-0.5-0.5-0.9c0-0.4,0.3-0.6,0.7-0.7
	c0.9-0.3,1.8,0.2,2.2,1c0.1,0.2,0.2,0.2,0.4,0.1c0.5-0.2,1-0.4,1.4-0.6c0.3-0.1,0.3-0.2,0.2-0.4c-0.3-0.7-0.8-1.3-1.6-1.6
	c-1.3-0.6-2.9-0.6-4.2,0.1c-1.1,0.6-1.8,1.8-1.6,3.1c0.1,1.2,0.9,2.2,2.1,2.4c0.4,0.1,0.8,0.2,1.2,0.2c0.5,0,0.9,0.2,1.3,0.4
	c0.3,0.2,0.5,0.5,0.4,0.8c0,0.3-0.2,0.6-0.5,0.7c-1,0.5-2.2,0.1-2.7-0.9c-0.1-0.2-0.2-0.2-0.4-0.1c-0.5,0.2-1,0.4-1.5,0.6
	c-0.3,0.1-0.3,0.2-0.2,0.5c0.3,0.8,0.9,1.4,1.6,1.7C107.5,40,108.2,40.1,108.8,40.1L108.8,40.1z M32.3,40.1c0.5,0,1,0,1.5-0.2
	c1.2-0.2,2.2-1,2.5-2.2c0.6-1.5-0.2-3.2-1.7-3.8c-0.2-0.1-0.4-0.1-0.6-0.2l-0.5-0.1c-0.6,0-1.2-0.2-1.8-0.4
	c-0.4-0.2-0.5-0.5-0.5-0.9c0-0.4,0.3-0.6,0.7-0.7c0.9-0.3,1.8,0.2,2.2,1c0.1,0.2,0.2,0.2,0.4,0.1c0.5-0.2,0.9-0.4,1.4-0.6
	c0.3-0.1,0.3-0.3,0.2-0.5c-0.2-0.6-0.7-1.2-1.3-1.5c-1.5-0.7-3.2-0.7-4.6,0.1c-1.1,0.6-1.6,1.8-1.4,3.1c0.1,1.1,0.8,2,1.9,2.3
	c0.5,0.1,0.9,0.2,1.4,0.3c0.5,0,0.9,0.2,1.3,0.4c0.3,0.2,0.5,0.5,0.4,0.9c0,0.3-0.2,0.6-0.5,0.7c-1,0.5-2.2,0-2.7-1c0,0,0,0,0,0
	c-0.1-0.2-0.2-0.2-0.3-0.1c-0.5,0.2-1,0.4-1.5,0.6c-0.3,0.1-0.3,0.3-0.2,0.5c0.3,0.8,0.9,1.4,1.7,1.7C30.9,40,31.6,40.1,32.3,40.1
	L32.3,40.1z M195.8,40.1c0.7,0,1.4-0.1,2.1-0.3c1.4-0.5,2.2-1.9,2-3.3c-0.1-1.3-1.1-2.4-2.3-2.6c-0.2-0.1-0.4-0.1-0.7-0.1
	c-0.6-0.1-1.2-0.2-1.8-0.4c-0.4-0.2-0.6-0.5-0.5-0.9c0-0.4,0.3-0.7,0.7-0.7c0.9-0.3,1.8,0.2,2.2,1c0.1,0.2,0.2,0.2,0.3,0.1
	c0.5-0.2,1-0.4,1.5-0.6c0.2-0.1,0.3-0.2,0.2-0.4c-0.2-0.7-0.8-1.3-1.4-1.6c-1.4-0.7-3-0.6-4.4,0.1c-1.1,0.6-1.7,1.8-1.5,3
	c0.1,1.2,0.9,2.2,2.1,2.5c0.4,0.1,0.8,0.2,1.3,0.2c0.5,0,0.9,0.2,1.4,0.4c0.3,0.2,0.5,0.5,0.4,0.8c0,0.3-0.2,0.6-0.5,0.7
	c-1,0.5-2.2,0.1-2.7-0.9c-0.1-0.2-0.2-0.2-0.3-0.1c-0.5,0.2-1,0.4-1.6,0.6c-0.2,0.1-0.3,0.2-0.2,0.4c0.3,0.9,1,1.5,1.8,1.8
	C194.5,40,195.1,40.1,195.8,40.1L195.8,40.1z M118.5,38.4c0.5,0,1,0,1.5,0c0.1,0,0.3,0.1,0.3,0.2c0.1,0.3,0.3,0.6,0.4,0.9
	c0,0.2,0.2,0.3,0.4,0.3c0.8,0,1.6,0,2.4,0c0.3,0,0.3-0.1,0.2-0.3c-1.6-3.2-3.2-6.4-4.8-9.7c-0.1-0.1-0.1-0.3-0.3-0.3
	s-0.2,0.1-0.3,0.3c-0.5,1-1,1.9-1.5,2.9c-1.1,2.2-2.2,4.5-3.3,6.7c-0.1,0.3-0.1,0.4,0.2,0.4s0.8,0,1.2,0s0.9,0.1,1.2-0.1
	s0.4-0.7,0.5-1.1c0-0.2,0.2-0.3,0.4-0.3C117.5,38.5,118,38.5,118.5,38.4L118.5,38.4z M158,34.9c0,1.5,0,3.1,0,4.6
	c0,0.3,0.1,0.3,0.3,0.3c0.7,0,1.4,0,2.1,0c0.3,0,0.3-0.1,0.3-0.3c0-3.1,0-6.2,0-9.3c0-0.2,0-0.3-0.3-0.3c-0.7,0-1.4,0-2.1,0
	c-0.3,0-0.3,0.1-0.3,0.3C157.9,31.8,157.9,33.4,158,34.9L158,34.9z M76.2,34.9c0,1.5,0,3.1,0,4.6c0,0.3,0.1,0.3,0.3,0.3
	c0.7,0,1.4,0,2.1,0c0.2,0,0.3,0,0.3-0.3c0-3.1,0-6.2,0-9.3c0-0.2-0.1-0.3-0.3-0.3c-0.7,0-1.4,0-2.1,0c-0.3,0-0.3,0.1-0.3,0.4
	C76.2,31.9,76.2,33.4,76.2,34.9L76.2,34.9z M205.3,0.9c-1,0-1.8,0.8-1.8,1.8c0,0,0,0,0,0c0,1,0.8,1.8,1.8,1.8c1,0,1.8-0.8,1.8-1.8
	c0,0,0,0,0,0C207.1,1.7,206.3,0.9,205.3,0.9L205.3,0.9z"/>
<path class="st1" d="M0.5,1h11.1c0.2,0,0.4,0.1,0.4,0.3c1,2.2,2,4.5,3,6.7c0,0.1,0.1,0.2,0.2,0.3l3.5-6.8L22,8l0.5-1.2
	C23.2,5,24,3.2,24.7,1.3C24.8,1.1,25,1,25.2,1c2.3,0,4.7,0,7,0c0.3,0,0.4,0,0.3,0.4c-2.3,5.9-4.6,11.8-6.8,17.8
	c-0.1,0.2,0,0.4,0.1,0.5c0,0,0,0,0,0c2.1,1.6,2.6,4.6,1,6.8c-0.4,0.5-0.8,0.9-1.3,1.2c-1.4,0.8-2.9,1.3-4.5,1.3
	c-1.7,0-3.4,0.1-5.2,0.4c-1.3,0.2-2.5,0.5-3.7,0.9c-1.5,0.4-3.1,0.6-4.7,0.6c-2.5,0-4.8-1.5-5.9-3.8c-0.5-1-0.6-2.2-0.3-3.4
	c0.2-0.9,0.8-1.8,1.7-2.3c1.9-1.2,3.9-2.1,6.1-2.8c0.3-0.1,0.2-0.2,0.1-0.4L3.2,6.3L0.7,1.4C0.7,1.3,0.7,1.2,0.5,1L0.5,1z M18.8,12
	l0.2,0.4c0.7,1.8,1.3,3.6,2,5.3c0,0.2,0.2,0.3,0.4,0.3c0.8,0.2,1.6,0.4,2.4,0.7c0.3,0.1,0.4,0.1,0.5-0.2c1.5-4.1,3.1-8.1,4.7-12.2
	l1.5-3.9c-1.4,0-2.8,0-4.2,0c-0.2,0-0.4,0.1-0.5,0.3c-0.8,2-1.6,4.1-2.5,6.1l-1.1,2.8l-3.3-6.9l-3.5,6.9c-0.1-0.1-0.2-0.2-0.2-0.3
	c-1.3-2.8-2.6-5.7-3.9-8.5c-0.1-0.2-0.3-0.4-0.5-0.3c-2.5,0-5,0-7.4,0H2.9c0,0,0,0.1,0,0.1l7.6,15.3c0.1,0.2,0.2,0.2,0.4,0.2
	c1.7-0.3,3.4-0.5,5.1-0.5c0.2,0,0.4-0.1,0.5-0.3C17.3,15.5,18,13.8,18.8,12L18.8,12z M22,25.9c0.3,0,0.5,0,0.8,0c1-0.1,2-0.4,2.8-1
	c0.6-0.4,0.8-1,0.7-1.7c-0.1-0.9-0.5-1.6-1.1-2.3c-0.2-0.2-0.3-0.3-0.5,0.1c-0.7,1.3-1.5,2.5-2.4,3.6c-0.1,0.1-0.2,0.2-0.3,0.2
	s-0.1-0.2-0.1-0.3c0,0,0,0,0-0.1c-0.4-1.7-1-3.4-1.8-5.1c-0.1-0.2-0.2-0.3-0.4-0.3c-0.5-0.1-1.1-0.1-1.6-0.2
	c-0.8-0.1-0.8-0.1-1.1,0.7c-1,1.9-1.9,3.9-2.7,5.9c-0.1,0.4-0.2,0.4-0.5,0.1c-0.2-0.2-0.4-0.4-0.5-0.6c-1.3-1.6-2.3-3.3-3.2-5.1
	c0-0.1,0-0.2-0.2-0.2c-0.5,0.1-0.9,0.3-1.2,0.6c-1.1,2-1.5,4.3-1.2,6.5c0,0.1,0.1,0.2,0,0.3s-0.2,0-0.3-0.1
	c-0.2-0.1-0.3-0.3-0.5-0.5c-1.1-1.2-1.9-2.5-2.5-4c0-0.1-0.1-0.2-0.2-0.1c-0.4,0.2-0.7,0.5-1,0.9c-0.5,0.9-0.6,2-0.2,3
	c0.3,0.9,1.1,1.5,2,1.6l0.3,0.1c1.5,0.3,3,0.1,4.4-0.4c3-1,6.2-1.6,9.4-1.7C19.8,25.8,20.9,25.9,22,25.9L22,25.9z M16,18.8
	c-1.6,0.1-3.2,0.2-4.7,0.5c-0.3,0-0.3,0.1-0.2,0.3c0.7,1.4,1.5,2.7,2.3,3.9c0.1,0.1,0.1,0.3,0.3,0.3C14.4,22.2,15.2,20.6,16,18.8
	L16,18.8z M23,27.3c-0.6,0-1.2,0-1.7,0c-2.6-0.2-5.2,0-7.7,0.5c-2.1,0.4-4.1,1.3-6.4,1.6c1.2,0.1,2.3,0,3.5-0.2
	c1.5-0.3,2.9-0.8,4.4-1.1c1.9-0.3,3.7-0.4,5.6-0.4C21.4,27.6,22.2,27.5,23,27.3L23,27.3z M6.5,24.7c0.1-1.4,0.4-2.9,0.9-4.2
	c-0.7,0.3-1.4,0.6-2,0.9c-0.2,0.1-0.3,0.3-0.3,0.5c0,0,0,0,0,0.1C5.5,23,5.9,23.9,6.5,24.7L6.5,24.7z M22.4,22.6
	c0.4-0.7,0.8-1.3,1.2-1.9c0.2-0.4,0.2-0.4-0.2-0.6c-0.7-0.2-1.3-0.4-2-0.5C21.7,20.5,22.1,21.5,22.4,22.6L22.4,22.6z M18,17.6
	l1.4,0.1l-0.7-1.8L18,17.6z M23.2,27.2L23.2,27.2z"/>
<path class="st2" d="M135.5,8.3l1.8-4.3c0.4-0.9,0.8-1.8,1.1-2.7c0-0.2,0.2-0.3,0.4-0.3c2.6,0,5.3,0,7.9,0c0.4,0,0.3,0.2,0.2,0.4
	l-8.9,21.1l-1.2,2.7c0,0,0,0.1-0.1,0.1l-4.5-8.3l-4.6,8.3L117.4,1h0.3h8.1c0.2,0,0.5,0.1,0.5,0.3c0.9,2.3,1.9,4.5,2.8,6.8l0.2,0.4
	l3.3-8L135.5,8.3z M136.5,21.8c0,0,0.1-0.1,0.1-0.1c2.7-6.3,5.3-12.6,8-18.9c0.1-0.3,0-0.3-0.2-0.3c-1.5,0-3,0-4.5,0
	c-0.2,0-0.4,0.1-0.4,0.3c-1.3,3.1-2.6,6.2-3.8,9.3c0,0.1,0,0.3-0.2,0.3l-2.9-7.7l-3.2,7.8l-0.1-0.3c-1.3-3.1-2.6-6.3-3.9-9.4
	c-0.1-0.2-0.3-0.4-0.5-0.3c-1.6,0-3.2,0-4.8,0c-0.1,0-0.2,0-0.3,0.1l8,19.3l4.4-8L136.5,21.8z"/>
<path class="st3" d="M201.9,12.7c0,3.8,0,7.5,0,11.3c0,0.3-0.1,0.4-0.4,0.4c-2.5,0-5.1,0-7.6,0c-0.3,0-0.4-0.1-0.4-0.4
	c0-2.5,0-5,0-7.4c0-0.3-0.1-0.3-0.4-0.3c-1,0-2,0-2.9,0c-0.3,0-0.3,0.1-0.3,0.3c0,2.5,0,5,0,7.4c0,0.3,0,0.4-0.4,0.4
	c-2.6,0-5.1,0-7.7,0c-0.3,0-0.4-0.1-0.4-0.4c0-7.5,0-15.1,0-22.6c0-0.3,0.1-0.4,0.4-0.4c2.6,0,5.1,0,7.7,0c0.3,0,0.3,0.1,0.3,0.3
	c0,2.2,0,4.4,0,6.7c0,0.3,0.1,0.4,0.4,0.4c1,0,1.9,0,2.9,0c0.3,0,0.4-0.1,0.4-0.4c0-2.2,0-4.4,0-6.7c0-0.3,0.1-0.4,0.4-0.4
	c2.6,0,5.1,0,7.7,0c0.3,0,0.4,0.1,0.4,0.4C201.9,5.1,201.9,8.9,201.9,12.7z M200.4,12.7c0-3.3,0-6.6,0-9.8c0-0.3,0-0.3-0.3-0.3
	c-1.5,0-3.1,0-4.6,0c-0.3,0-0.3,0.1-0.3,0.3c0,2.2,0,4.5,0,6.7c0,0.3-0.1,0.3-0.3,0.3c-2,0-4,0-6,0c-0.3,0-0.4-0.1-0.4-0.4
	c0-2.2,0-4.4,0-6.7c0-0.3,0-0.4-0.4-0.4c-1.5,0-3.1,0-4.6,0c-0.3,0-0.4,0.1-0.4,0.3c0,6.5,0,13.1,0,19.6c0,0.3,0.1,0.3,0.3,0.3
	c1.5,0,3.1,0,4.6,0c0.3,0,0.4-0.1,0.4-0.4c0-2.5,0-5,0-7.4c0-0.3,0-0.4,0.3-0.4c2,0,4,0,6,0c0.3,0,0.3,0.1,0.3,0.4c0,2.5,0,5,0,7.5
	c0,0.3,0.1,0.3,0.3,0.3c1.5,0,3.1,0,4.6,0c0.3,0,0.4,0,0.4-0.4C200.3,19.2,200.3,16,200.4,12.7L200.4,12.7z"/>
<path class="st3" d="M88.9,12.7c0-3.8,0-7.5,0-11.3C88.9,1.1,89,1,89.3,1c2.5,0,5.1,0,7.6,0c0.3,0,0.4,0.1,0.4,0.4
	c0,2.2,0,4.4,0,6.6c0,0.3,0,0.4,0.4,0.4c1,0,1.9,0,2.9,0c0.3,0,0.4-0.1,0.3-0.4c0-2.2,0-4.4,0-6.6c0-0.3,0.1-0.4,0.4-0.4
	c2.5,0,5.1,0,7.6,0c0.3,0,0.4,0.1,0.4,0.4c0,7.5,0,15.1,0,22.6c0,0.3-0.1,0.4-0.4,0.4c-2.5,0-5.1,0-7.6,0c-0.3,0-0.4-0.1-0.4-0.4
	c0-2.5,0-4.9,0-7.4c0-0.3-0.1-0.4-0.4-0.4c-1,0-1.9,0-2.9,0c-0.3,0-0.3,0.1-0.3,0.3c0,2.5,0,5,0,7.4c0,0.3,0,0.4-0.4,0.4
	c-2.6,0-5.1,0-7.7,0c-0.3,0-0.3-0.1-0.3-0.4C88.9,20.2,88.9,16.5,88.9,12.7z M107.8,12.7c0-3.3,0-6.5,0-9.8c0-0.3,0-0.4-0.4-0.4
	c-1.5,0-3,0-4.6,0c-0.3,0-0.4,0.1-0.4,0.4c0,2.2,0,4.4,0,6.7c0,0.3,0,0.4-0.3,0.4c-2,0-4,0-6,0c-0.3,0-0.4-0.1-0.3-0.4
	c0-2.2,0-4.5,0-6.7c0-0.3-0.1-0.3-0.3-0.3c-1.5,0-3.1,0-4.7,0c-0.3,0-0.3,0-0.3,0.3c0,6.6,0,13.1,0,19.7c0,0.3,0.1,0.3,0.4,0.3
	c1.5,0,3,0,4.6,0c0.3,0,0.4-0.1,0.4-0.4c0-2.5,0-4.9,0-7.4c0-0.3,0.1-0.4,0.4-0.4c2,0,4,0,5.9,0c0.3,0,0.4,0.1,0.4,0.4
	c0,2.5,0,5,0,7.4c0,0.3,0.1,0.3,0.3,0.3c1.5,0,3,0,4.6,0c0.3,0,0.4-0.1,0.4-0.4C107.8,19.2,107.8,16,107.8,12.7L107.8,12.7z"/>
<path class="st4" d="M53.5,12.7c0,3.8,0,7.5,0,11.3c0,0.3-0.1,0.4-0.4,0.4c-2.6,0-5.1,0-7.7,0c-0.3,0-0.3-0.1-0.3-0.3
	c0-2.5,0-5,0-7.4c0-0.3-0.1-0.4-0.4-0.4c-1,0-2,0-2.9,0c-0.3,0-0.3,0.1-0.3,0.3c0,2.5,0,5,0,7.4c0,0.3,0,0.4-0.3,0.4
	c-2.6,0-5.1,0-7.7,0c-0.3,0-0.3-0.1-0.3-0.4c0-7.5,0-15.1,0-22.6c0-0.3,0-0.4,0.4-0.4c2.5,0,5.1,0,7.6,0c0.3,0,0.4,0.1,0.4,0.4
	c0,2.2,0,4.4,0,6.6c0,0.3,0.1,0.4,0.4,0.4c0.9,0,1.9,0,2.8,0c0.3,0,0.4,0,0.4-0.4c0-2.2,0-4.4,0-6.6c0-0.3,0.1-0.4,0.4-0.4
	c2.6,0,5.1,0,7.7,0c0.3,0,0.3,0.1,0.3,0.3C53.5,5.2,53.5,8.9,53.5,12.7z M34.8,12.7c0,3.3,0,6.5,0,9.8c0,0.3,0,0.4,0.3,0.4
	c1.5,0,3.1,0,4.6,0c0.3,0,0.4-0.1,0.4-0.4c0-2.5,0-4.9,0-7.4c0-0.3,0.1-0.4,0.4-0.4c2,0,3.9,0,5.9,0c0.3,0,0.4,0.1,0.4,0.4
	c0,2.5,0,4.9,0,7.4c0,0.3,0.1,0.3,0.3,0.3c1.5,0,3.1,0,4.6,0c0.3,0,0.4-0.1,0.4-0.4c0-6.5,0-13.1,0-19.6c0-0.3,0-0.4-0.3-0.4
	c-1.5,0-3.1,0-4.7,0c-0.3,0-0.3,0.1-0.3,0.4c0,2.2,0,4.4,0,6.7c0,0.3,0,0.4-0.3,0.4c-2,0-4,0-6,0c-0.3,0-0.3-0.1-0.3-0.3
	c0-2.2,0-4.5,0-6.7c0-0.3-0.1-0.3-0.3-0.3c-1.5,0-3,0-4.6,0c-0.3,0-0.4,0.1-0.4,0.4C34.8,6.2,34.8,9.4,34.8,12.7z"/>
<path class="st2" d="M76.4,24.9c-5.9,0.1-11-4.2-11.7-10.1c-0.9-4.8,1.2-9.6,5.3-12.3c1.6-1.1,3.5-1.7,5.4-1.8
	c2.8-0.3,5.7,0.4,8,2.2c1.9,1.4,3.3,3.4,4,5.7c0.2,0.7,0.2,0.7-0.4,0.9c-2.3,0.9-4.5,1.7-6.7,2.6c-0.3,0.1-0.4,0.1-0.4-0.2
	s-0.2-0.6-0.3-0.8c-0.4-1.6-2-2.5-3.6-2.1c-0.9,0.1-1.7,0.7-2.1,1.6c-0.8,1.5-0.8,3.2,0,4.6c0.9,1.6,3,2.1,4.5,1.2
	c0.2-0.1,0.4-0.3,0.6-0.5c0.4-0.5,0.7-1.1,0.8-1.8c0.2-0.5,0.2-0.5,0.6-0.3l7.2,2.1c0.1,0,0.3,0,0.2,0.3c-0.6,2.2-1.9,4.2-3.5,5.8
	C82.1,23.9,79.3,25,76.4,24.9z M66,12.8c0,0.9,0.1,1.7,0.3,2.6c1.1,5.4,6.4,8.9,11.9,7.9c3.6-0.5,6-2.8,7.5-6c0.1-0.3,0-0.3-0.2-0.3
	l-4.4-1.3c-0.2-0.1-0.3,0-0.4,0.2c-0.7,1.6-2.4,2.7-4.2,2.6c-1.8,0.1-3.5-0.9-4.3-2.5c-0.8-1.6-0.9-3.4-0.3-5
	c0.5-1.9,2.2-3.3,4.2-3.5c2-0.2,3.9,0.9,4.7,2.7c0.1,0.2,0.2,0.2,0.3,0.1C82.5,9.6,84,9,85.4,8.5c0.2-0.1,0.2-0.2,0.2-0.4
	C85,7,84.4,6,83.5,5.1C80.1,1.5,74.4,1.6,71,3.7S66.2,8.9,66,12.8L66,12.8z"/>
<path class="st2" d="M169,24.9c-6,0.1-11.1-4.2-11.9-10.1c-0.7-4.8,1.3-9.5,5.3-12.2c1.8-1.1,3.9-1.8,6-1.8c5.2-0.3,10,3,11.5,8
	c0.2,0.5,0.2,0.5-0.3,0.7c-2.3,0.9-4.6,1.8-6.9,2.7c-0.3,0.1-0.4,0-0.5-0.3s-0.2-0.6-0.3-0.9c-0.3-1.1-1.2-1.9-2.3-2
	c-1.1-0.3-2.3,0.1-3.1,1c-1.2,1.7-1.2,3.9-0.1,5.6c1.2,1.4,3.3,1.6,4.7,0.4c0,0,0.1-0.1,0.1-0.1c0.4-0.5,0.7-1.1,0.8-1.7
	c0.2-0.6,0.2-0.6,0.8-0.4l7.1,2c0.3,0.1,0.3,0.1,0.2,0.4c-0.7,2.4-2.1,4.5-3.9,6.1C174.3,24,171.7,24.9,169,24.9z M169.1,23.4
	c4,0,7.6-2.4,9.1-6.2c0.1-0.2,0.1-0.3-0.1-0.3c-1.5-0.4-3-0.9-4.5-1.3c-0.2-0.1-0.3,0-0.3,0.2c-0.7,1.6-2.4,2.7-4.1,2.6
	c-1.8,0.1-3.5-0.9-4.3-2.6c-0.9-1.8-0.9-3.9,0-5.6c0.7-1.7,2.4-2.8,4.2-2.7c1.9-0.1,3.6,0.9,4.3,2.7c0.1,0.2,0.2,0.2,0.4,0.1
	c1.4-0.6,2.8-1.1,4.3-1.7c0.2-0.1,0.3-0.2,0.2-0.4c-0.6-1.2-1.3-2.3-2.3-3.2c-3.4-3.3-8.9-3.2-12.2-1.2c-3.7,2.3-5.6,6.6-4.9,10.9
	C159.5,19.6,164,23.4,169.1,23.4L169.1,23.4z"/>
<path class="st5" d="M216.4,1.1c6.4,0,11.6,5.2,11.5,11.6c0,6.4-5.2,11.6-11.6,11.5c-6.4,0-11.5-5.2-11.5-11.6
	C204.8,6.3,210,1.1,216.4,1.1z M216.4,2.7c-5.5,0-10,4.4-10.1,9.9c0,5.5,4.4,10,9.9,10.1s10-4.4,10.1-9.9c0,0,0,0,0-0.1
	C226.3,7.2,221.8,2.7,216.4,2.7L216.4,2.7z"/>
<path class="st2" d="M147.5,12.7c0-3.8,0-7.5,0-11.3c0-0.3,0.1-0.4,0.4-0.4c2.6,0,5.2,0,7.8,0c0.3,0,0.4,0.1,0.4,0.4
	c0,7.5,0,15.1,0,22.6c0,0.3-0.1,0.4-0.4,0.4c-2.6,0-5.2,0-7.8,0c-0.3,0-0.4-0.1-0.4-0.4C147.5,20.2,147.5,16.5,147.5,12.7z
	 M154.5,12.7c0-3.3,0-6.5,0-9.8c0-0.3,0-0.4-0.3-0.4c-1.6,0-3.2,0-4.8,0c-0.3,0-0.3,0.1-0.3,0.3c0,6.6,0,13.1,0,19.7
	c0,0.3,0.1,0.3,0.4,0.3c1.6,0,3.2,0,4.8,0c0.3,0,0.4-0.1,0.4-0.4C154.5,19.2,154.5,16,154.5,12.7L154.5,12.7z"/>
<path class="st2" d="M54.9,12.7c0-3.8,0-7.5,0-11.3C54.9,1.1,55,1,55.3,1c2.6,0,5.2,0,7.8,0c0.3,0,0.4,0.1,0.4,0.4
	c0,7.5,0,15,0,22.6c0,0.3-0.1,0.4-0.4,0.4c-2.6,0-5.2,0-7.8,0c-0.3,0-0.4-0.1-0.4-0.4C54.9,20.2,54.9,16.4,54.9,12.7z M56.4,12.7
	c0,3.3,0,6.5,0,9.8c0,0.3,0.1,0.4,0.4,0.4c1.6,0,3.2,0,4.8,0c0.3,0,0.4,0,0.4-0.3c0-6.6,0-13.1,0-19.7c0-0.3-0.1-0.3-0.3-0.3
	c-1.6,0-3.2,0-4.8,0c-0.3,0-0.4,0.1-0.4,0.4C56.4,6.2,56.4,9.4,56.4,12.7z"/>
<path class="st4" d="M90.9,35c0,2.9-2.3,5.2-5.2,5.2c-2.9,0-5.2-2.3-5.2-5.2s2.3-5.2,5.2-5.2c0,0,0,0,0.1,0
	C88.6,29.8,90.9,32.1,90.9,35C90.9,34.9,90.9,34.9,90.9,35z M83.3,35c-0.1,1.1,0.6,2.2,1.7,2.5c1.3,0.5,2.6-0.2,3.1-1.4
	c0.1-0.3,0.1-0.5,0.1-0.8c0.3-1.3-0.6-2.7-1.9-3c-0.3-0.1-0.6-0.1-0.8,0C84.1,32.4,83.1,33.6,83.3,35C83.3,34.9,83.3,34.9,83.3,35
	L83.3,35z"/>
<path class="st2" d="M66.1,34.9c0-1.5,0-3.1,0-4.6c0-0.3,0.1-0.4,0.3-0.4c1.4,0,2.9,0,4.3,0c1.8-0.1,3.4,1.2,3.5,3.1
	c0,0.3,0,0.7-0.1,1c-0.1,0.8-0.5,1.5-1.2,1.9c-0.2,0.1-0.1,0.2,0,0.3l1.8,3.1c0.1,0.1,0.1,0.2,0.2,0.3s0.1,0.3-0.2,0.3h-2.6
	c-0.2,0-0.3-0.2-0.3-0.3c-0.4-0.8-0.9-1.6-1.4-2.4C70.4,37,70.2,37,70.1,37c-0.4,0-0.7,0-1.1,0s-0.3,0.1-0.3,0.3c0,0.8,0,1.5,0,2.3
	c0,0.2-0.1,0.3-0.3,0.3c-0.7,0-1.4,0-2,0c-0.3,0-0.3-0.1-0.3-0.3C66.1,38,66.1,36.5,66.1,34.9z M68.7,33.6c0,0.4,0,0.8,0,1.1
	c0,0.2,0,0.3,0.3,0.3s0.6,0,0.9,0c0.8,0.1,1.5-0.5,1.5-1.2c0-0.2,0-0.5-0.1-0.7c-0.1-0.5-0.6-0.9-1.1-0.9c-0.4,0-0.9,0-1.3,0
	c-0.2,0-0.2,0.1-0.2,0.3C68.7,32.8,68.7,33.2,68.7,33.6z"/>
<path class="st4" d="M92.6,34.9c0-1.5,0-3.1,0-4.6c0-0.3,0.1-0.4,0.3-0.4c1.4,0,2.9,0,4.3,0c1.6-0.1,3,1,3.3,2.6
	c0.2,0.9,0.1,1.8-0.4,2.7c-0.2,0.3-0.4,0.5-0.7,0.7c-0.2,0.1-0.2,0.2-0.1,0.4c0.6,1,1.2,2,1.8,3.1c0.1,0.1,0.3,0.3,0.2,0.5
	s-0.3,0.1-0.4,0.1c-0.7,0-1.4,0-2,0c-0.2,0-0.4-0.1-0.5-0.3c-0.4-0.8-0.9-1.6-1.4-2.4c-0.1-0.2-0.3-0.3-0.4-0.3c-0.4,0-0.7,0-1.1,0
	s-0.3,0.1-0.3,0.3c0,0.8,0,1.5,0,2.3c0,0.3-0.1,0.4-0.4,0.3c-0.6,0-1.3,0-1.9,0c-0.3,0-0.3-0.1-0.3-0.4C92.6,38,92.6,36.5,92.6,34.9
	z M95.2,33.6c0,0.4,0,0.8,0,1.2c0,0.2,0,0.2,0.2,0.2c0.3,0,0.7,0,1,0c1.2,0.1,1.6-0.8,1.5-1.8c-0.1-0.6-0.5-1-1.1-1
	c-0.4,0-0.8,0-1.3,0c-0.2,0-0.3,0.1-0.3,0.3C95.2,32.8,95.2,33.2,95.2,33.6L95.2,33.6z"/>
<path class="st4" d="M135.3,34.9c0-1.5,0-3,0-4.6c0-0.3,0.1-0.4,0.4-0.4c1.3,0,2.5,0,3.8,0c2.3-0.2,4.3,1.5,4.4,3.8
	c0,0.1,0,0.2,0,0.3c0.1,1,0,2-0.3,3c-0.5,1.6-2,2.6-3.6,2.8c-1.5,0.2-3,0-4.5,0.1c-0.3,0-0.2-0.2-0.2-0.3
	C135.3,38,135.3,36.5,135.3,34.9z M137.9,34.9c0,0.9,0,1.7,0,2.6c0,0.2,0.1,0.3,0.3,0.3c0.4,0,0.9,0,1.3,0c0.6,0,1.1-0.4,1.4-0.9
	c0.6-1.2,0.6-2.6-0.1-3.8c-0.3-0.6-0.9-1-1.6-0.9c-0.3,0-0.7,0-1,0s-0.3,0.1-0.3,0.3C137.9,33.2,137.9,34,137.9,34.9L137.9,34.9z"/>
<path class="st4" d="M148.8,34.8l1.1-2.9c0.2-0.5,0.4-1.1,0.6-1.6c0.1-0.1,0.1-0.3,0.3-0.3s0.2,0.2,0.3,0.3l1.7,4.5
	c0.1,0,0.1-0.1,0.1-0.2c0.4-1.4,0.9-2.8,1.3-4.2c0-0.2,0.2-0.3,0.4-0.3c0,0,0,0,0,0c0.6,0,1.2,0,1.8,0s0.5,0,0.3,0.4l-2.8,7
	c-0.3,0.8-0.6,1.5-0.9,2.3c-0.1,0.1,0,0.4-0.3,0.4s-0.2-0.2-0.3-0.3c-0.6-1.3-1.2-2.7-1.8-4.1c-0.1,0-0.1,0.2-0.2,0.3l-1.8,3.9
	c-0.1,0.1-0.1,0.3-0.3,0.3s-0.2-0.2-0.2-0.3c-1.2-3.2-2.5-6.3-3.6-9.5c-0.1-0.2-0.1-0.3,0.2-0.3c0.7,0,1.3,0,2,0
	c0.3,0,0.4,0.1,0.5,0.4c0.4,1.4,0.9,2.7,1.3,4.1C148.7,34.6,148.7,34.6,148.8,34.8z"/>
<path class="st2" d="M130.7,34.5c0-1.4,0-2.8,0-4.1c0-0.3,0.1-0.4,0.4-0.4c0.6,0,1.2,0,1.9,0c0.2,0,0.3,0.1,0.3,0.3
	c0,3.2,0,6.4,0,9.6c0,0.1,0,0.2-0.1,0.2s-0.2-0.1-0.3-0.1c-1.4-1.1-2.8-2.3-4.1-3.5l-1.4-1.2v1.1c0,1,0,2.1,0,3.1
	c0,0.3-0.1,0.3-0.3,0.3c-0.6,0-1.2,0-1.8,0c-0.3,0-0.4-0.1-0.4-0.4c0-2.8-0.1-5.6,0-8.4c0-0.4,0-0.8,0-1.1c0-0.1,0-0.2,0.1-0.3
	s0.2,0.1,0.3,0.1c1,0.8,2,1.6,3,2.4C129.2,33.1,129.8,33.7,130.7,34.5z"/>
<path class="st4" d="M181.9,34.9c0,1.5,0,3.1,0,4.6c0,0.3-0.1,0.4-0.4,0.4c-0.6,0-1.3,0-1.9,0c-0.3,0-0.4-0.1-0.4-0.4
	c0-1.1,0-2.2,0-3.3c0-0.3-0.1-0.3-0.3-0.3c-0.9,0-1.8,0-2.7,0c-0.3,0-0.3,0.1-0.3,0.3c0,1.1,0,2.2,0,3.3c0,0.3-0.1,0.4-0.4,0.4
	c-0.7,0-1.3,0-2,0c-0.2,0-0.3-0.1-0.3-0.3c0-3.1,0-6.2,0-9.3c0-0.2,0.1-0.3,0.3-0.3c0.7,0,1.4,0,2,0c0.3,0,0.3,0.1,0.3,0.3
	c0,1,0,2,0,2.9c0,0.3,0.1,0.3,0.3,0.3c0.9,0,1.8,0,2.6,0c0.3,0,0.4-0.1,0.4-0.3c0-1,0-1.9,0-2.9c0-0.3,0.1-0.3,0.3-0.3
	c0.7,0,1.3,0,2,0c0.3,0,0.3,0.1,0.3,0.3C181.9,31.8,181.9,33.3,181.9,34.9z"/>
<path class="st3" d="M184.1,34.9c0-1.5,0-3,0-4.6c0-0.3,0-0.3,0.3-0.3c2.1,0,4.2,0,6.3,0c0.3,0,0.4,0,0.3,0.3c0,0.5,0,1,0,1.5
	c0,0.3-0.1,0.4-0.4,0.4c-1.2,0-2.4,0-3.7-0.1c-0.3,0-0.3,0.1-0.3,0.3c0,0.3,0,0.7,0,1c0,0.3,0.1,0.3,0.3,0.3c1.2,0,2.4,0,3.5,0
	c0.3,0,0.4,0.1,0.4,0.4c0,0.5,0,1,0,1.4c0,0.3-0.1,0.4-0.4,0.4c-1.2,0-2.4,0-3.5,0c-0.3,0-0.3,0.1-0.3,0.3c0,0.4,0,0.7,0,1.1
	c0,0.2,0.1,0.3,0.3,0.3c1.3,0,2.5,0,3.8-0.1c0.3,0,0.4,0.1,0.4,0.4c0,0.5,0,1.1,0,1.6c0,0.2-0.1,0.3-0.3,0.3c-2.1,0-4.3,0-6.4,0
	c-0.3,0-0.3-0.1-0.3-0.4C184.1,38,184.1,36.4,184.1,34.9z"/>
<path class="st4" d="M43.5,33.5c0-1.1,0-2.1,0-3.2c0-0.2,0-0.3,0.3-0.3c0.7,0,1.3,0,2,0c0.1,0,0.3,0,0.3,0.2c0,2.2,0.1,4.4,0,6.6
	c0,1.8-1.4,3.3-3.2,3.3c-0.1,0-0.2,0-0.3,0c-0.9,0.1-1.8,0-2.7-0.4c-1.2-0.5-2-1.7-2-3c-0.1-2.2,0-4.4,0-6.5C38,30,38,30,38.2,30
	c0.7,0,1.5,0,2.2,0c0.3,0,0.2,0.2,0.2,0.3c0,2,0,4,0,6.1c0,0.8,0.6,1.6,1.5,1.6c0.3,0,0.7-0.1,0.9-0.3c0.4-0.2,0.7-0.7,0.7-1.2
	C43.5,35.5,43.5,34.5,43.5,33.5z"/>
<path class="st4" d="M168,40.1c-3.3,0-5.4-1.9-5.7-4.5c-0.4-2.7,1.4-5.1,4-5.7c2.2-0.6,4.5,0.4,5.5,2.4c0.2,0.5,0.2,0.5-0.2,0.7
	l-1.7,0.6c-0.2,0.1-0.3,0.1-0.4-0.1c-0.5-0.9-1.5-1.4-2.5-1.2c-1,0.2-1.7,1-1.9,2c-0.1,0.5-0.1,1,0,1.6c0.2,0.9,1,1.7,1.9,1.8
	c1,0.2,1.9-0.2,2.4-1.1c0-0.1,0.2-0.2,0.3-0.2c0,0,0,0,0,0c0.6,0.2,1.3,0.4,1.9,0.5c0.3,0.1,0.3,0.2,0.2,0.4
	C171.3,38.9,169.8,40,168,40.1z"/>
<path class="st2" d="M57.5,34.9c0-1.5,0-3,0-4.6c0-0.3,0.1-0.3,0.3-0.3c2.1,0,4.2,0,6.3,0c0.3,0,0.3,0.1,0.3,0.3c0,0.5,0,1,0,1.5
	c0,0.2-0.1,0.3-0.3,0.3c-1.2,0-2.5,0-3.7-0.1c-0.3,0-0.3,0.1-0.3,0.3c0,0.3,0,0.7,0,1c0,0.3,0.1,0.3,0.3,0.3c1.2,0,2.3,0,3.5,0
	c0.4,0,0.5,0.1,0.5,0.5c0,0.5,0,0.9,0,1.4c0,0.3-0.1,0.3-0.3,0.3h-3.5c-0.3,0-0.4,0-0.4,0.4c0,0.3,0,0.7,0,1c0,0.3,0.1,0.3,0.3,0.3
	c1.2,0,2.4,0,3.7-0.1c0.3,0,0.5,0.1,0.4,0.4s0,1,0,1.6c0,0.2-0.1,0.3-0.3,0.3h-6.5c-0.3,0-0.3-0.1-0.3-0.3
	C57.5,38,57.5,36.4,57.5,34.9z"/>
<path class="st4" d="M48.1,34.9c0-1.5,0-3.1,0-4.6c0-0.3,0.1-0.4,0.3-0.3c1.4,0,2.8,0,4.1,0c1.8-0.1,3.4,1.3,3.5,3.1c0,0,0,0,0,0
	c0.1,0.6,0.1,1.2-0.1,1.8c-0.3,1.3-1.4,2.2-2.8,2.4c-0.7,0.1-1.4,0.1-2.1,0.1c-0.2,0-0.3,0.1-0.3,0.3c0,0.6,0,1.3,0,1.9
	c0,0.2-0.1,0.3-0.3,0.3c-0.7,0-1.4,0-2.1,0c-0.3,0-0.3-0.1-0.3-0.3C48.1,38,48.1,36.5,48.1,34.9z M50.7,33.7c0,0.4,0,0.9,0,1.3
	c0,0.1,0,0.2,0.2,0.2c0.4,0,0.8,0,1.2,0c0.8,0,1.3-0.7,1.3-1.5c0-0.1,0-0.1,0-0.2c0-0.8-0.6-1.4-1.3-1.4c0,0-0.1,0-0.1,0
	c-0.3,0-0.6,0-1,0s-0.3,0-0.3,0.3C50.7,32.8,50.7,33.3,50.7,33.7L50.7,33.7z"/>
<path class="st4" d="M108.8,40.1c-0.7,0-1.3-0.1-1.9-0.4c-0.8-0.3-1.4-1-1.6-1.7c-0.1-0.3-0.1-0.4,0.2-0.5c0.5-0.2,1-0.4,1.5-0.6
	c0.2-0.1,0.3-0.1,0.4,0.1c0.5,1,1.7,1.4,2.7,0.9c0.3-0.1,0.5-0.4,0.5-0.7c0-0.3-0.1-0.6-0.4-0.8c-0.4-0.2-0.9-0.3-1.3-0.4
	c-0.4,0-0.8-0.1-1.2-0.2c-1.1-0.3-2-1.3-2.1-2.4c-0.2-1.3,0.4-2.5,1.6-3.1c1.3-0.7,2.9-0.7,4.2-0.1c0.7,0.3,1.3,0.9,1.6,1.6
	c0.1,0.2,0.1,0.4-0.2,0.4c-0.5,0.2-1,0.4-1.4,0.6c-0.2,0.1-0.3,0.1-0.4-0.1c-0.4-0.8-1.3-1.3-2.2-1c-0.4,0.1-0.6,0.3-0.7,0.7
	c-0.1,0.4,0.1,0.8,0.5,0.9c0.6,0.2,1.2,0.4,1.8,0.4c0.4,0.1,0.8,0.1,1.1,0.3c1.1,0.3,1.8,1.3,1.9,2.5c0.2,1.1-0.4,2.3-1.3,2.9
	C110.8,39.9,109.8,40.2,108.8,40.1z"/>
<path class="st4" d="M32.3,40.1c-0.7,0-1.4-0.1-2.1-0.4c-0.8-0.3-1.4-1-1.6-1.7c-0.1-0.2-0.1-0.4,0.2-0.5c0.5-0.2,1-0.4,1.5-0.6
	c0.2-0.1,0.2-0.1,0.3,0.1c0.5,1,1.6,1.5,2.6,1c0,0,0,0,0,0c0.3-0.1,0.5-0.4,0.5-0.7c0.1-0.4-0.1-0.7-0.4-0.9
	c-0.4-0.2-0.9-0.3-1.3-0.4c-0.5,0-1-0.1-1.4-0.3c-1-0.3-1.8-1.2-1.9-2.3c-0.3-1.2,0.3-2.5,1.4-3.1c1.4-0.8,3.1-0.9,4.6-0.1
	c0.6,0.3,1.1,0.8,1.3,1.5c0.1,0.3,0.1,0.4-0.2,0.5c-0.5,0.2-0.9,0.4-1.4,0.6c-0.2,0.1-0.3,0.1-0.4-0.1c-0.4-0.8-1.3-1.3-2.2-1
	c-0.4,0.1-0.6,0.3-0.7,0.7c-0.1,0.4,0.1,0.8,0.5,0.9c0.6,0.2,1.2,0.4,1.8,0.4l0.5,0.1c1.6,0.2,2.7,1.7,2.5,3.3
	c0,0.2-0.1,0.4-0.2,0.6c-0.3,1.2-1.3,2-2.5,2.2C33.3,40,32.8,40.1,32.3,40.1z"/>
<path class="st4" d="M195.8,40.1c-0.6,0-1.3-0.1-1.9-0.3c-0.9-0.3-1.5-1-1.8-1.8c-0.1-0.2-0.1-0.3,0.2-0.4c0.5-0.2,1-0.4,1.6-0.6
	c0.2-0.1,0.2-0.1,0.3,0.1c0.5,1,1.7,1.4,2.7,0.9c0.3-0.1,0.5-0.4,0.5-0.7c0-0.3-0.1-0.6-0.4-0.8c-0.4-0.2-0.9-0.4-1.4-0.4
	c-0.4,0-0.9-0.1-1.3-0.2c-1.1-0.3-2-1.3-2-2.5c-0.2-1.2,0.4-2.4,1.5-3c1.4-0.7,3-0.7,4.4-0.1c0.7,0.3,1.2,0.9,1.4,1.6
	c0.1,0.2,0,0.3-0.2,0.4c-0.5,0.2-1,0.4-1.5,0.6c-0.2,0.1-0.3,0-0.3-0.1c-0.4-0.8-1.3-1.3-2.2-1c-0.4,0-0.7,0.3-0.7,0.7
	c-0.1,0.4,0.2,0.8,0.5,0.9c0.6,0.2,1.2,0.4,1.8,0.4c0.2,0,0.4,0.1,0.7,0.1c1.3,0.2,2.3,1.3,2.3,2.6c0.2,1.4-0.6,2.8-2,3.3
	C197.2,40,196.5,40.1,195.8,40.1z"/>
<path class="st4" d="M118.5,38.5c-0.5,0-1,0-1.4,0c-0.2,0-0.4,0.1-0.4,0.3c-0.2,0.4-0.2,0.9-0.5,1.1s-0.8,0-1.2,0.1s-0.8,0-1.2,0
	s-0.4-0.1-0.2-0.4c1.1-2.2,2.2-4.5,3.3-6.7c0.5-1,1-1.9,1.5-2.9c0.1-0.1,0.1-0.3,0.3-0.3s0.2,0.1,0.3,0.3c1.6,3.2,3.2,6.4,4.8,9.7
	c0.1,0.3,0.1,0.3-0.2,0.3c-0.8,0-1.6,0-2.4,0c-0.2,0-0.4-0.1-0.4-0.3c-0.1-0.3-0.3-0.6-0.4-0.9c0-0.1-0.2-0.2-0.3-0.2
	C119.5,38.5,119,38.5,118.5,38.5z M117.5,36.5h2l-1-2.2L117.5,36.5z"/>
<path class="st3" d="M157.9,34.9c0-1.6,0-3.1,0-4.6c0-0.2,0.1-0.3,0.3-0.3c0.7,0,1.4,0,2.1,0c0.3,0,0.3,0.1,0.3,0.3
	c0,3.1,0,6.2,0,9.3c0,0.2-0.1,0.3-0.3,0.3c-0.7,0-1.4,0-2.1,0c-0.3,0-0.3-0.1-0.3-0.3C157.9,38,157.9,36.5,157.9,34.9z"/>
<path class="st3" d="M76.2,34.9c0-1.5,0-3.1,0-4.6c0-0.3,0-0.4,0.3-0.4c0.7,0,1.4,0,2.1,0c0.2,0,0.3,0.1,0.3,0.3c0,3.1,0,6.2,0,9.3
	c0,0.2-0.1,0.3-0.3,0.3c-0.7,0-1.4,0-2.1,0c-0.2,0-0.3-0.1-0.3-0.3C76.2,38,76.2,36.5,76.2,34.9z"/>
<path class="st3" d="M205.3,1c1,0,1.8,0.8,1.8,1.8c0,0,0,0,0,0c0,1-0.8,1.8-1.8,1.8c-1,0-1.8-0.8-1.8-1.8c0,0,0,0,0,0
	C203.5,1.8,204.3,1,205.3,1C205.3,1,205.3,1,205.3,1z M206.2,3.8c0.1,0.1,0.1,0,0.1,0c0.4-0.5,0.5-1.2,0.2-1.8
	c-0.4-0.7-1.3-0.9-1.9-0.5c-0.4,0.2-0.6,0.6-0.7,1.1c-0.1,0.6,0.2,1.2,0.7,1.5c0.4,0.3,1.1,0.3,1.5,0C206.1,4,206.3,4,206.2,3.8
	L206.2,3.8z"/>
<path class="st0" d="M18.8,12c-0.8,1.8-1.5,3.5-2.2,5.2c-0.1,0.2-0.3,0.4-0.5,0.3c-1.7,0-3.4,0.2-5.1,0.5c-0.2,0-0.3,0-0.4-0.2
	L2.9,2.6c0,0,0-0.1,0-0.1h0.3c2.5,0,5,0,7.4,0c0.2,0,0.5,0.1,0.5,0.3c1.3,2.8,2.6,5.7,3.9,8.5c0,0.1,0.1,0.2,0.2,0.3l3.5-6.9
	l3.3,6.9l1.1-2.8c0.8-2,1.7-4.1,2.5-6.1c0-0.2,0.2-0.3,0.5-0.3c1.4,0,2.8,0,4.2,0l-1.5,3.9c-1.6,4.1-3.1,8.1-4.7,12.2
	c-0.1,0.3-0.2,0.3-0.5,0.2c-0.8-0.3-1.6-0.5-2.4-0.7c-0.2,0-0.3-0.2-0.4-0.3c-0.7-1.8-1.3-3.6-2-5.3L18.8,12z"/>
<path class="st6" d="M22,25.9c-1.1-0.1-2.2-0.1-3.3-0.1c-3.2,0.1-6.4,0.7-9.4,1.7c-1.4,0.5-2.9,0.7-4.4,0.4l-0.3-0.1
	c-0.9-0.1-1.7-0.7-2-1.6c-0.4-1-0.3-2.1,0.2-3c0.3-0.4,0.6-0.7,1-0.9c0.2-0.1,0.2,0,0.2,0.1c0.6,1.5,1.4,2.8,2.5,4
	c0.1,0.2,0.3,0.3,0.5,0.5C7.1,27,7.2,27.1,7.3,27s0-0.2,0-0.3c-0.3-2.2,0.1-4.5,1.2-6.5c0.3-0.3,0.8-0.5,1.2-0.6
	c0.1,0,0.1,0.1,0.2,0.2c0.9,1.8,2,3.5,3.3,5.1c0.2,0.2,0.3,0.4,0.5,0.6c0.3,0.3,0.3,0.3,0.5-0.1c0.8-2,1.7-4,2.7-5.9
	c0.4-0.7,0.4-0.7,1.1-0.7c0.5,0,1.1,0.1,1.6,0.2c0.2,0,0.4,0.1,0.4,0.3c0.8,1.6,1.4,3.3,1.8,5.1c0,0,0,0,0,0.1
	c0.1,0.1,0,0.3,0.1,0.3s0.2-0.1,0.3-0.2c0.9-1.1,1.7-2.3,2.4-3.6c0.2-0.3,0.3-0.3,0.5-0.1c0.6,0.6,1,1.4,1.1,2.3
	c0.1,0.7-0.2,1.3-0.7,1.7c-0.8,0.6-1.8,0.9-2.8,1C22.6,25.9,22.3,25.9,22,25.9z"/>
<path class="st6" d="M16,18.8c-0.9,1.7-1.6,3.4-2.3,5.1c-0.2,0-0.2-0.2-0.3-0.3c-0.8-1.3-1.6-2.6-2.3-3.9c-0.1-0.2-0.1-0.3,0.2-0.3
	C12.9,19,14.4,18.9,16,18.8z"/>
<path class="st6" d="M23,27.3c-0.7,0.2-1.5,0.3-2.3,0.4c-1.9,0-3.8,0.2-5.6,0.4c-1.5,0.3-3,0.8-4.4,1.1c-1.1,0.3-2.3,0.3-3.5,0.2
	c2.3-0.3,4.3-1.2,6.4-1.6c2.5-0.5,5.1-0.7,7.7-0.5C21.8,27.3,22.4,27.3,23,27.3z"/>
<path class="st6" d="M6.5,24.7C5.9,23.9,5.4,23,5.1,22c-0.1-0.2,0-0.4,0.2-0.5c0,0,0,0,0.1,0c0.7-0.3,1.3-0.7,2-0.9
	C6.9,21.9,6.6,23.3,6.5,24.7z"/>
<path class="st6" d="M22.4,22.6c-0.3-1.1-0.7-2-1-3.1c0.7,0.1,1.3,0.3,2,0.5c0.5,0.2,0.5,0.2,0.2,0.6C23.2,21.3,22.8,21.9,22.4,22.6
	z"/>
<path class="st7" d="M18,17.5l0.7-1.7l0.7,1.8L18,17.5z"/>
<polygon class="st6" points="23.2,27.2 23.1,27.2 23.2,27.2 "/>
<path class="st0" d="M136.5,21.9l-4.4-8l-4.4,8l-8-19.3c0.1-0.1,0.2-0.1,0.3-0.1c1.6,0,3.2,0,4.8,0c0.2,0,0.4,0.1,0.5,0.3
	c1.3,3.1,2.6,6.3,3.9,9.4l0.1,0.3l3.2-7.8l2.9,7.7c0.1-0.1,0.1-0.2,0.2-0.3c1.3-3.1,2.6-6.2,3.8-9.3c0-0.2,0.2-0.3,0.4-0.3
	c1.5,0,3,0,4.5,0c0.2,0,0.4,0,0.2,0.3c-2.7,6.3-5.3,12.6-8,18.9C136.5,21.8,136.5,21.8,136.5,21.9z"/>
<path class="st8" d="M200.3,12.7c0,3.3,0,6.5,0,9.7c0,0.3-0.1,0.4-0.4,0.4c-1.5,0-3.1,0-4.6,0c-0.3,0-0.3-0.1-0.3-0.3
	c0-2.5,0-5,0-7.5c0-0.3,0-0.4-0.3-0.4c-2,0-4,0-6,0c-0.3,0-0.3,0.1-0.3,0.4c0,2.5,0,5,0,7.4c0,0.3-0.1,0.4-0.4,0.4
	c-1.5,0-3.1,0-4.6,0c-0.3,0-0.3-0.1-0.3-0.3c0-6.5,0-13.1,0-19.6c0-0.3,0.1-0.3,0.4-0.3c1.5,0,3.1,0,4.6,0c0.3,0,0.4,0.1,0.4,0.4
	c0,2.2,0,4.4,0,6.7c0,0.3,0.1,0.4,0.4,0.4c2,0,4,0,6,0c0.3,0,0.4-0.1,0.3-0.3c0-2.2,0-4.5,0-6.7c0-0.3,0.1-0.3,0.3-0.3
	c1.5,0,3.1,0,4.6,0c0.3,0,0.3,0.1,0.3,0.3C200.4,6.1,200.3,9.4,200.3,12.7z"/>
<path class="st8" d="M107.8,12.7c0,3.3,0,6.5,0,9.7c0,0.3,0,0.4-0.4,0.4c-1.5,0-3,0-4.6,0c-0.3,0-0.3-0.1-0.3-0.3c0-2.5,0-5,0-7.4
	c0-0.3-0.1-0.4-0.4-0.4c-2,0-4,0-5.9,0c-0.3,0-0.4,0.1-0.4,0.4c0,2.5,0,4.9,0,7.4c0,0.3,0,0.4-0.4,0.4c-1.5,0-3,0-4.6,0
	c-0.3,0-0.4,0-0.4-0.3c0-6.6,0-13.1,0-19.7c0-0.3,0.1-0.3,0.3-0.3c1.5,0,3.1,0,4.7,0c0.3,0,0.3,0.1,0.3,0.3c0,2.2,0,4.5,0,6.7
	c0,0.3,0,0.4,0.3,0.4c2,0,4,0,6,0c0.3,0,0.4-0.1,0.3-0.4c0-2.2,0-4.4,0-6.7c0-0.3,0.1-0.4,0.4-0.4c1.5,0,3,0,4.6,0
	c0.3,0,0.4,0.1,0.4,0.4C107.8,6.2,107.8,9.4,107.8,12.7z"/>
<path class="st7" d="M34.8,12.7c0-3.3,0-6.5,0-9.7c0-0.3,0.1-0.4,0.4-0.4c1.5,0,3,0,4.6,0c0.3,0,0.3,0.1,0.3,0.3c0,2.2,0,4.5,0,6.7
	c0,0.3,0.1,0.3,0.3,0.3c2,0,4,0,6,0c0.3,0,0.3-0.1,0.3-0.4c0-2.2,0-4.4,0-6.7c0-0.3,0-0.4,0.3-0.4c1.5,0,3.1,0,4.7,0
	c0.3,0,0.3,0.1,0.3,0.4c0,6.5,0,13.1,0,19.6c0,0.3-0.1,0.4-0.4,0.4c-1.5,0-3.1,0-4.6,0c-0.3,0-0.3-0.1-0.3-0.3c0-2.5,0-4.9,0-7.4
	c0-0.3,0-0.4-0.4-0.4c-2,0-3.9,0-5.9,0c-0.3,0-0.4,0.1-0.4,0.4c0,2.5,0,4.9,0,7.4c0,0.3-0.1,0.4-0.4,0.4c-1.5,0-3.1,0-4.6,0
	c-0.3,0-0.3-0.1-0.3-0.4C34.8,19.2,34.8,16,34.8,12.7z"/>
<path class="st0" d="M66,12.8c0.2-3.8,1.6-7,5-9.1S80.1,1.4,83.5,5c0.8,0.9,1.5,1.9,2.1,3c0.1,0.2,0.1,0.3-0.2,0.4
	C83.9,9,82.5,9.5,81,10.1c-0.2,0.1-0.2,0.1-0.3-0.1c-0.8-1.8-2.7-2.9-4.6-2.7c-2,0.1-3.7,1.5-4.2,3.4c-0.6,1.6-0.4,3.4,0.3,5
	c0.8,1.6,2.5,2.7,4.3,2.6c1.8,0.1,3.4-0.9,4.2-2.6c0.1-0.2,0.2-0.2,0.4-0.2l4.4,1.3c0.2,0.1,0.3,0.1,0.2,0.3c-1.5,3.2-3.9,5.5-7.5,6
	c-5.4,1-10.7-2.5-11.8-7.9C66.1,14.5,66,13.6,66,12.8z"/>
<path class="st0" d="M169.1,23.3c-5.2,0.1-9.7-3.7-10.4-8.9c-0.7-4.3,1.2-8.6,4.9-10.9c3.4-2,8.9-2.1,12.2,1.2
	c0.9,0.9,1.7,2,2.3,3.2c0.1,0.2,0.1,0.3-0.2,0.4c-1.4,0.5-2.8,1.1-4.3,1.7c-0.2,0.1-0.3,0.1-0.4-0.1c-0.7-1.7-2.4-2.8-4.3-2.7
	c-1.8-0.1-3.5,1-4.2,2.7c-0.9,1.8-0.9,3.9,0,5.6c0.7,1.7,2.5,2.8,4.4,2.7c1.8,0.1,3.5-0.9,4.2-2.6c0.1-0.2,0.2-0.2,0.3-0.2
	c1.5,0.4,3,0.9,4.5,1.3c0.2,0.1,0.2,0.1,0.1,0.3C176.8,21,173.1,23.4,169.1,23.3z"/>
<path class="st9" d="M216.3,2.7c5.5,0,10,4.4,10,10c0,5.5-4.4,10-10,10c-5.5,0-10-4.4-10-10c0,0,0-0.1,0-0.1
	C206.4,7.2,210.9,2.7,216.3,2.7z M214,14.2c0,0.6,0,1.2,0,1.8c0,0.3,0.1,0.3,0.3,0.3c0.8-0.1,1.7-0.2,2.5-0.3c0.2,0,0.3-0.1,0.3-0.3
	c0-0.4,0-0.9,0-1.3c0-0.2,0.1-0.4,0.3-0.5c1-0.4,1.9-1,2.7-1.7c1.7-1.7,1.7-4.5,0-6.2c-0.6-0.6-1.3-1-2-1.2c-1.4-0.4-3-0.4-4.4,0
	c-0.2,0-0.2,0.2-0.2,0.3c0,0.9-0.1,1.8-0.1,2.6c0,0.3,0.1,0.2,0.3,0.2c0.5-0.1,1.1-0.1,1.6-0.2c0.5-0.1,1.1,0,1.6,0.2
	c0.8,0.3,1.1,1.1,0.8,1.9c-0.1,0.2-0.2,0.4-0.4,0.6c-0.3,0.3-0.7,0.5-1.1,0.7c-0.6,0.3-1.3,0.5-2,0.7c-0.2,0-0.3,0.2-0.3,0.3
	c0,0,0,0,0,0C214,13,214,13.6,214,14.2L214,14.2z M217.6,19.2c0-1.1-0.9-2-2-2c-1.1,0-2,0.8-2,1.8c0,0,0,0,0,0.1c0,1.1,0.9,2,2,2
	S217.6,20.3,217.6,19.2L217.6,19.2z"/>
<path class="st0" d="M154.5,12.7c0,3.3,0,6.5,0,9.8c0,0.3-0.1,0.4-0.4,0.4c-1.6,0-3.2,0-4.8,0c-0.3,0-0.4,0-0.4-0.3
	c0-6.6,0-13.1,0-19.7c0-0.3,0.1-0.3,0.3-0.3c1.6,0,3.2,0,4.8,0c0.3,0,0.3,0.1,0.3,0.4C154.5,6.2,154.5,9.4,154.5,12.7z"/>
<path class="st0" d="M56.4,12.7c0-3.3,0-6.5,0-9.7c0-0.3,0.1-0.4,0.4-0.4c1.6,0,3.2,0,4.8,0c0.3,0,0.3,0.1,0.3,0.3
	c0,6.6,0,13.1,0,19.7c0,0.3-0.1,0.3-0.4,0.3c-1.6,0-3.2,0-4.8,0c-0.3,0-0.4-0.1-0.4-0.4C56.4,19.2,56.4,15.9,56.4,12.7z"/>
<path class="st7" d="M83.3,35c-0.1-1.3,0.8-2.5,2.1-2.6c1.4-0.2,2.6,0.8,2.8,2.2c0,0.3,0,0.6,0,0.8c0,1.3-1.1,2.4-2.5,2.4
	c-0.2,0-0.5-0.1-0.7-0.1C83.8,37.2,83.1,36.1,83.3,35z"/>
<path class="st7" d="M68.7,33.6c0-0.4,0-0.8,0-1.1c0-0.2,0-0.3,0.2-0.3c0.4,0,0.9,0,1.3,0c0.5,0,1,0.4,1.1,0.9
	c0.3,0.7,0,1.5-0.8,1.8C70.3,35,70.1,35,69.9,35c-0.3,0-0.6,0-0.9,0s-0.3-0.1-0.3-0.3C68.7,34.3,68.7,33.9,68.7,33.6z"/>
<path class="st7" d="M95.2,33.6c0-0.4,0-0.8,0-1.1c0-0.2,0-0.3,0.3-0.3c0.4,0,0.8,0,1.3,0c0.6,0,1.1,0.4,1.1,1
	c0.2,1-0.3,1.9-1.5,1.8c-0.3,0-0.7,0-1,0c-0.2,0-0.2-0.1-0.2-0.2C95.2,34.3,95.2,34,95.2,33.6z"/>
<path class="st0" d="M137.9,34.9c0-0.9,0-1.7,0-2.6c0-0.2,0.1-0.3,0.3-0.3s0.7,0,1,0c0.7-0.1,1.3,0.3,1.6,0.9
	c0.6,1.2,0.6,2.6,0.1,3.8c-0.2,0.6-0.8,0.9-1.4,0.9c-0.4,0-0.9,0-1.3,0c-0.2,0-0.3-0.1-0.3-0.3C137.9,36.6,137.9,35.8,137.9,34.9z"
	/>
<path class="st7" d="M50.7,33.7c0-0.4,0-0.9,0-1.3c0-0.2,0.1-0.3,0.3-0.3s0.6,0,1,0c0.8,0,1.4,0.6,1.4,1.3c0,0,0,0.1,0,0.1
	c0.1,0.7-0.4,1.5-1.1,1.6c-0.1,0-0.1,0-0.2,0c-0.4,0-0.8,0-1.2,0c-0.2,0-0.2-0.1-0.2-0.2C50.7,34.6,50.7,34.1,50.7,33.7z"/>
<path class="st7" d="M117.5,36.5l1-2.2l1,2.2H117.5z"/>
<path class="st7" d="M206.2,3.8C206.3,4,206.1,4,206,4c-0.4,0.3-1.1,0.3-1.5,0c-0.5-0.3-0.8-0.9-0.7-1.5c0.1-0.8,0.8-1.3,1.6-1.2
	c0.4,0.1,0.8,0.3,1.1,0.7c0.3,0.6,0.3,1.3-0.2,1.8C206.3,3.8,206.2,3.9,206.2,3.8l-0.5-0.6c-0.1-0.1-0.2-0.2,0-0.3
	c0.2-0.1,0.3-0.4,0.2-0.7c0-0.2-0.2-0.4-0.5-0.4c-0.2,0-0.5,0-0.7,0c-0.2,0-0.3,0.1-0.2,0.3c0,0.5,0,1,0,1.6c0,0.2,0,0.3,0.3,0.3
	s0.2-0.1,0.2-0.3c0-0.1,0-0.3,0-0.4C205.4,3.5,205.6,4,206.2,3.8z"/>
<path class="st10" d="M214,14.2c0-0.6,0-1.2,0-1.8c0-0.2,0.1-0.3,0.2-0.3c0,0,0,0,0,0c0.7-0.2,1.4-0.4,2-0.7
	c0.4-0.2,0.7-0.4,1.1-0.7c0.6-0.5,0.7-1.5,0.1-2.1c-0.2-0.2-0.4-0.3-0.6-0.4c-0.5-0.2-1.1-0.3-1.6-0.2c-0.5,0-1.1,0.1-1.6,0.2
	c-0.2,0-0.3,0-0.3-0.2c0.1-0.9,0.1-1.8,0.1-2.6c0-0.1,0-0.3,0.2-0.3c1.4-0.4,3-0.4,4.4,0c2.3,0.6,3.8,3,3.2,5.3
	c-0.2,0.8-0.6,1.5-1.2,2c-0.8,0.8-1.7,1.4-2.7,1.7c-0.2,0-0.3,0.2-0.3,0.5c0,0.4,0,0.9,0,1.3c0,0.2-0.1,0.3-0.3,0.3
	c-0.8,0.1-1.7,0.2-2.5,0.3c-0.2,0-0.3,0-0.3-0.3C214,15.4,214,14.8,214,14.2z"/>
<path class="st10" d="M217.6,19.2c0,1.1-0.9,2-2,2s-2-0.9-2-2c0-1.1,0.9-1.9,1.9-1.9c0,0,0,0,0.1,0
	C216.7,17.3,217.6,18.1,217.6,19.2z"/>
<path class="st3" d="M206.2,3.8c-0.6,0.3-0.9-0.3-1.1-0.7c0,0.1,0,0.3,0,0.4c0,0.2,0,0.3-0.2,0.3s-0.3-0.1-0.3-0.3c0-0.5,0-1,0-1.6
	c0-0.2,0-0.3,0.2-0.3c0.2,0,0.5,0,0.7,0c0.2,0,0.4,0.2,0.5,0.4c0.1,0.2,0,0.5-0.2,0.7c-0.2,0.1-0.1,0.2,0,0.3L206.2,3.8L206.2,3.8z
	 M205,2.4c0,0.1-0.1,0.3,0.1,0.3s0.3-0.1,0.3-0.3s-0.1-0.2-0.3-0.3S205,2.3,205,2.4L205,2.4z"/>
<path class="st7" d="M205,2.3c0-0.1,0-0.3,0.2-0.2s0.3,0.1,0.3,0.3s-0.1,0.2-0.3,0.3S205.1,2.5,205,2.3z"/>
</svg>
