<?xml version="1.0" encoding="utf-8"?>
<!-- Generator: Adobe Illustrator 21.1.0, SVG Export Plug-In . SVG Version: 6.00 Build 0)  -->
<svg version="1.1" id="Layer_1" xmlns="http://www.w3.org/2000/svg" xmlns:xlink="http://www.w3.org/1999/xlink" x="0px" y="0px"
	 viewBox="0 0 162.2 112.9" style="enable-background:new 0 0 162.2 112.9;" xml:space="preserve">
<style type="text/css">
	.st0{fill:#006F52;}
</style>
<title>Grocery</title>
<path class="st0" d="M151.9,92.8c0-1.2,1-2.1,2.1-2.1s2.1,1,2.1,2.1c0,1.1-1,2.1-2.1,2.1c-1.1,0-2.1-0.9-2.1-2
	C151.9,92.9,151.9,92.9,151.9,92.8 M151.4,92.8c0,1.5,1.2,2.7,2.7,2.7c1.5,0,2.7-1.2,2.7-2.7c0-1.5-1.2-2.7-2.7-2.7
	C152.6,90.1,151.4,91.3,151.4,92.8C151.4,92.8,151.4,92.8,151.4,92.8 M153,94.3h0.5V93h0.3l0.9,1.3h0.6l-0.9-1.3
	c0.5,0,0.8-0.4,0.8-0.9c0,0,0,0,0,0c0-0.6-0.4-0.9-1.1-0.9H153L153,94.3z M153.6,91.7h0.5c0.4,0,0.7,0.1,0.7,0.4s-0.4,0.4-0.8,0.4
	h-0.4L153.6,91.7"/>
<path class="st0" d="M75.6,36.4c0-11.9,7.1-15.5,13.9-19.2c0.3-0.1,0.1-0.7-0.3-0.7c-3.4,0.5-5.4-1.8-7.8-1.8
	c-2.6,0-3.8,2.4-4.8,2.4s-1.1-0.5-1.1-1.2c0-2.3,3.8-6.3,8.5-6.3c4.2,0,8.1,3.3,10.3,3.3c0.6,0,1-0.2,1-0.5c0-0.8-1.8-0.9-4-2.7
	S86,6,83,6c-3.9,0-6.7,2.6-7.3,4c-0.5,1.1-0.9,1.9-1.7,1.9c-0.9,0-1.1-0.9-1.1-1.9c0-2.6,3.8-9.4,10.3-9.4c4.6,0,8.4,3.6,11.7,7
	c0.9,1,2.2,1.6,3.6,1.6c1.3,0.1,3.2,0.4,3.2,2.2c0,3.7-6.4,5.6-11.8,9.6c-5,3.7-7,7.4-7,15.3c0,6.8,3,14.3,10.1,14.3
	c6.6,0,9.2-7,9.2-13.3c0-8.9-1.6-12.2-6.3-15.5c-0.5-0.2-0.7-0.7-0.7-1.3c0-0.5,0.4-1,0.9-1.2c0.3,0,0.5-0.1,0.8-0.1
	c7.3,0,12.8,8.2,12.8,17.1c0,10.3-5.7,18-17.6,18C80.8,54.3,75.6,45.5,75.6,36.4"/>
<path class="st0" d="M33.3,65c-0.6,0-0.9-0.3-1.4-1.1c-1.4-2.2-2.1-2.4-7.4-2.4c-3.8,0-4.1,0.1-4.1,2.1v7.7h6.4
	c1.5,0,2.2,0.6,2.2,1.8s-0.8,1.7-2.2,1.7h-5.3c-0.2,0-0.5,0.1-0.7,0.2c-0.4,0.1-0.4,0.5-0.4,1.6v10.3c-0.1,0.7,0,1.4,0.2,2
	c0.2,0.4,0.6,0.7,1.1,0.7h1.2c0.8,0,1.4,0.7,1.3,1.4c0,0,0,0,0,0c0,1.1-0.6,1.5-2.5,1.5h-9.5c-1.8,0-2.4-0.4-2.4-1.5
	c0-0.7,0.6-1.4,1.3-1.4h1c0.4,0,0.7-0.3,0.9-0.7c0.2-0.7,0.2-1.3,0.2-2V63.7c0-0.7,0-1.3-0.2-2c-0.1-0.4-0.5-0.6-0.9-0.7h-1
	c-0.7,0-1.3-0.7-1.2-1.4c0,0,0,0,0,0c0-1.1,0.6-1.5,2.3-1.5h19c0.8,0,1,0.1,1.2,0.2c0.4,0.3,0.6,0.7,0.8,1.2l1.3,3.5
	c0.1,0.3,0.2,0.5,0.2,0.8C34.6,64.5,34,65.1,33.3,65C33.3,65.1,33.3,65.1,33.3,65"/>
<path class="st0" d="M82.4,89.5c-5.8,0-9.3-5.3-9.3-14.1S76.6,61,82.3,61s9.3,5.5,9.3,14.4C91.7,84,88.1,89.5,82.4,89.5 M49.6,89.5
	c-5.8,0-9.3-5.3-9.3-14.1S43.8,61,49.5,61s9.3,5.5,9.3,14.4C58.8,84,55.3,89.5,49.6,89.5 M82.4,57.4c-8.6,0-14.6,4.9-16.4,12.8
	c-1.7-7.9-7.8-12.8-16.5-12.8c-10.4,0-16.9,7-16.9,18c0,10.8,6.6,17.8,16.8,17.8c8.7,0,14.8-4.9,16.5-12.9
	c1.7,7.9,7.8,12.9,16.3,12.9c10.5,0,17.1-7.1,17.1-18.1C99.4,64.3,92.8,57.4,82.4,57.4"/>
<path class="st0" d="M113.6,60.7c-1.4-0.1-2.7,0.3-3.9,1c-0.7,0.5-0.8,1.1-0.8,4.1v19.4c0,2.1,0,2.5,0.4,3c0.6,0.8,2.1,1.3,4.1,1.3
	c6.3,0,10-5.3,10-14.3S119.8,60.7,113.6,60.7 M125.2,89.6c-3,2.4-7,3.6-12.7,3.6c-5.4,0-11.5-1.2-13.3-2.6c-0.4-0.3-0.6-0.7-0.6-1.1
	c0-0.8,0.6-1.4,1.4-1.4c0,0,0,0,0,0c1.6-0.3,1.7-0.4,1.7-1.5l0.1-1.1V65.2l-0.1-1.1c-0.1-1.4-0.2-1.6-1.6-1.6c-1,0-1.6-0.6-1.6-1.3
	c0-0.5,0.3-0.9,0.7-1.2c1.8-1.4,7.8-2.5,13.6-2.5c6.2,0,10.4,1.4,13.5,4.6c3,3,4.7,7.7,4.7,13.3C131.2,81.4,129,86.6,125.2,89.6"/>
<path class="st0" d="M142.1,93.2c-1.8,0-3.7-0.2-5.4-0.7c-0.4-0.1-0.7-0.2-1.1-0.2c-0.4,0-0.8,0.2-1.1,0.5c-0.3,0.3-0.7,0.5-1.2,0.5
	c-0.9,0-1.3-0.5-1.6-1.7l-1.3-5.2c-0.1-0.3-0.2-0.7-0.2-1c0-0.9,0.8-1.6,1.7-1.6c0.5,0,1,0.3,1.3,0.6l0.7,1c1.7,2.5,4.6,4,7.6,4.1
	c3.4,0,5.6-1.9,5.6-4.6c0-1.5-0.6-2.8-1.6-3.9c-1.7-1.7-3.5-3.2-5.5-4.4c-4.9-3.4-5.4-3.7-6.9-5.6c-1.3-1.5-2-3.4-2-5.4
	c0-5,3.8-8.3,9.5-8.3c1.5,0,3,0.2,4.4,0.5c0.4,0.1,0.8,0.2,1.3,0.3c0.2,0.1,0.5,0.1,0.7,0.1c0.4,0,0.8-0.2,1.2-0.5
	c0.3-0.3,0.7-0.4,1.1-0.4c0.8,0,1.2,0.5,1.4,1.4l1.2,5.6c0.1,0.2,0.1,0.5,0.1,0.7c-0.1,0.8-0.7,1.3-1.5,1.3c0,0,0,0,0,0
	c-0.6,0-0.9-0.2-1.3-0.9c-0.6-1.1-1.4-2.1-2.5-2.8c-1.4-1.1-3.1-1.7-4.8-1.7c-2.4,0-3.9,1.4-3.9,3.5c0,0.7,0.2,1.5,0.6,2.1
	c0.6,0.9,1.5,1.7,2.4,2.4c0.6,0.5,1.4,1,2.5,1.8c4.1,2.8,5.4,3.9,7,5.6c1.8,1.9,2.8,4.4,2.8,7c0,6-4.4,9.9-11.2,9.9"/>
<path class="st0" d="M135.2,47.4L135,48l-1.6,3.9c-0.5,1.3-0.9,1.6-2.5,1.6h-19.8c-1.7,0-2.3-0.4-2.3-1.5c0-0.7,0.5-1.4,1.3-1.4
	c0,0,0,0,0,0h1c0.4,0,0.7-0.3,0.9-0.7c0.2-0.6,0.3-1.3,0.2-1.9V24.7c0.1-0.7,0-1.4-0.2-2c-0.1-0.4-0.5-0.7-0.9-0.7h-1
	c-0.8,0-1.4-0.6-1.4-1.4c0,0,0,0,0,0c0-1.1,0.6-1.5,2.4-1.5h9.5c1.9,0,2.5,0.4,2.5,1.5c0,0.8-0.6,1.4-1.3,1.4h-1.1
	c-0.5,0-0.9,0.2-1.1,0.7c-0.2,0.7-0.2,1.3-0.1,2v21.6c0,2.3,0.1,2.8,0.7,3.2s1.5,0.4,5,0.4c3.1,0,3.7,0,4.5-0.4s1.5-1,2.8-2.8
	c0.6-0.9,0.9-1.1,1.5-1.1c0.7-0.1,1.3,0.4,1.4,1.1C135.3,47,135.3,47.2,135.2,47.4"/>
<path class="st0" d="M161.3,48.8l-1.5,3.4c-0.4,0.9-0.6,1.1-1.4,1.1l-1,0.1h-20.2c-1.7,0-2.3-0.4-2.3-1.5c0-0.7,0.5-1.4,1.3-1.4
	c0,0,0,0,0,0h1c0.4,0,0.7-0.3,0.8-0.7c0.2-0.7,0.3-1.4,0.2-2.1v-23c0.1-0.7,0-1.4-0.2-2c-0.1-0.4-0.4-0.7-0.8-0.8h-1
	c-0.8,0-1.3-0.7-1.3-1.4c0-1.1,0.6-1.5,2.4-1.5H157c1.1,0,1.5,0.3,1.8,1l1.5,3.8c0.1,0.3,0.2,0.6,0.3,0.9c-0.1,0.7-0.7,1.2-1.4,1.2
	c-0.2,0-0.4-0.1-0.6-0.2c-0.3-0.1-0.5-0.3-0.7-0.5c-0.2-0.3-0.4-0.6-0.6-0.9c-1-1.5-2-1.8-5.2-1.8h-3.5c-2.8,0-3.1,0.4-3.1,3.1v6.6
	h6.6c1.5,0,2,0.5,2,1.7s-0.7,1.8-2,1.8h-4c-1.5,0-1.8,0.1-2.1,0.2s-0.5,0.7-0.5,1.9V46c0,2.7,0.2,3.3,1,3.6s1.7,0.4,4.4,0.4
	c1.6,0,3.2,0,4.8-0.2c1.4-0.3,2.5-1.2,3.2-2.5c0.6-0.9,0.9-1.1,1.5-1.1c0.7-0.1,1.3,0.4,1.3,1.1c0,0.1,0,0.1,0,0.2
	C161.7,47.9,161.6,48.3,161.3,48.8"/>
<path class="st0" d="M75.3,50.5h-1c-0.4,0-0.7-0.3-0.9-0.6c-0.2-0.6-0.3-1.3-0.2-2V24.7c-0.1-0.7,0-1.4,0.2-2
	c0.1-0.4,0.5-0.6,0.9-0.7h1c0.8,0,1.4-0.7,1.3-1.4c0-1.1-0.6-1.5-2.4-1.5h-9.4c-1.8,0-2.4,0.4-2.4,1.5c0,0.8,0.6,1.4,1.4,1.4
	c0,0,0,0,0,0h1c0.4,0,0.8,0.3,0.9,0.7c0.2,0.6,0.2,1.3,0.2,2v7.6H54.8v-7.6c0-0.7,0-1.3,0.2-2c0.2-0.4,0.6-0.7,1-0.7h1
	c0.8,0,1.3-0.7,1.3-1.4c0,0,0,0,0,0c0-1.1-0.6-1.5-2.3-1.5H39c-1.4,0-2,0.4-2,1.4c0,0.8,0.5,1.3,1.7,1.4s1.8,0.6,1.8,1.4
	c0,0.4-0.1,0.8-0.2,1.2l-6.1,19.7L28,25.4c-0.3-0.7-0.5-1.4-0.5-2.2c0-0.9,0.3-1.2,1.7-1.4c1.1-0.2,1.7-0.6,1.7-1.4S30.4,19,29.2,19
	H19.1c-1.2,0-1.8,0.6-1.8,1.6c0,0.8,0.4,1.1,1.5,1.4s1.6,0.6,1.9,1.3c0.1,0.2,0.2,0.6,0.4,1.2l2.4,6.9l-4.8,13.3l-7-19.4l-0.4-1.2
	c-0.1-0.4-0.2-0.8-0.2-1.1c0-0.8,0.5-1.2,1.6-1.3c1.3-0.1,1.8-0.4,1.8-1.3S14,19,12.8,19H2.2c-1.2,0-1.8,0.5-1.8,1.3
	s0.3,1.2,1.4,1.4c1.7,0.4,1.9,0.6,2.7,2.7l10.1,27.1c0.7,1.9,1.4,2.6,2.9,2.6c0.6,0,1.2-0.2,1.8-0.6c0.5-0.6,0.8-1.3,1-2l5-14.1
	l4.7,14.1c0.6,1.9,1.4,2.6,2.9,2.6c1.5,0,2.2-0.7,3-3.2l8.2-26.4c0.6-1.8,0.9-2.3,2-2.5h0.3c0.4,0,0.7,0.3,0.9,0.7
	c0.2,0.6,0.2,1.3,0.2,2v23.1c0.1,0.7,0,1.3-0.2,2c-0.1,0.4-0.5,0.6-0.9,0.6h-1c-0.8,0-1.3,0.7-1.3,1.4c0,1.1,0.6,1.5,2.4,1.5H56
	c1.7,0,2.2-0.4,2.2-1.4c0.1-0.7-0.5-1.4-1.2-1.5c0,0,0,0,0,0h-1c-0.4,0-0.8-0.2-1-0.6c-0.1-0.7-0.2-1.3-0.2-2v-9.4
	c0-2.4,0.2-2.6,2.1-2.6h7c1,0,1.6,0.2,1.8,0.5s0.3,0.5,0.3,2.4v9.1c0.1,0.7,0,1.3-0.2,2c-0.2,0.4-0.5,0.6-0.9,0.6h-1
	c-0.8,0-1.3,0.7-1.3,1.4c0,1.1,0.6,1.5,2.3,1.5h9.4c1.8,0,2.4-0.4,2.4-1.5c0-0.8-0.6-1.4-1.3-1.4c0,0,0,0,0,0"/>
<path class="st0" d="M151.6,96.5c4.4,0,7.9,3.6,7.9,7.9s-3.6,7.9-7.9,7.9H11.8c-4.4,0-7.9-3.6-7.9-7.9s3.6-7.9,7.9-7.9H151.6
	 M147,101.7c0-0.1,0-0.1,0-0.2l-0.4-1.1c0-0.1-0.1-0.2-0.2-0.3c-0.1-0.1-0.2-0.1-0.3-0.1h-5.7c-0.3,0-0.4,0-0.5,0.4l-0.4,1
	c0,0.1-0.1,0.2-0.1,0.3c0,0.2,0.2,0.3,0.4,0.3c0.1,0,0.2-0.1,0.4-0.3l0.1-0.1c0.2-0.4,0.7-0.7,1.2-0.6c0.8,0,0.8,0,0.8,0.6v0.4v5.5
	c0,0.2,0,0.4-0.1,0.5c0,0.1-0.1,0.2-0.3,0.2h-0.4c-0.2,0-0.3,0.2-0.3,0.4c0,0,0,0,0,0c0,0.3,0.1,0.4,0.6,0.4h2.6
	c0.4,0,0.6-0.1,0.6-0.4c0-0.2-0.2-0.4-0.4-0.4l0,0h-0.4c-0.1,0-0.2-0.1-0.3-0.2c0-0.1,0-0.2,0-0.5v-5.9c0-0.6,0.1-0.6,0.7-0.6
	c0.3,0,0.6,0,0.8,0.1c0.2,0.1,0.4,0.3,0.5,0.5c0,0.1,0.1,0.1,0.1,0.2c0.1,0.2,0.3,0.3,0.4,0.3C146.9,102,147.1,101.8,147,101.7
	 M123.1,107.2c0-0.2-0.1-0.3-0.3-0.3c0,0,0,0,0,0c-0.2,0-0.2,0.1-0.4,0.3c-0.2,0.3-0.5,0.6-0.8,0.6c-0.4,0-0.8,0-1.2,0
	c-0.4,0-0.8,0-1.1-0.1c-0.2-0.1-0.3-0.2-0.3-0.9v-2.1c0-0.3,0-0.4,0.1-0.5c0.2,0,0.4-0.1,0.6-0.1h1c0.4,0,0.5-0.2,0.5-0.5
	s-0.1-0.4-0.5-0.4h-1.7v-1.7c0-0.7,0.1-0.8,0.8-0.8h0.9c0.8,0,1.1,0.1,1.4,0.5c0.1,0.1,0.1,0.2,0.2,0.2c0,0.1,0.1,0.1,0.2,0.1
	c0,0,0.1,0,0.1,0c0.2,0,0.3-0.1,0.4-0.3c0-0.1,0-0.2-0.1-0.2l-0.4-1c-0.1-0.2-0.2-0.3-0.5-0.3h-5.1c-0.5,0-0.6,0.1-0.6,0.4
	c0,0.2,0.2,0.4,0.3,0.4c0,0,0,0,0,0h0.3c0.1,0,0.2,0.1,0.2,0.2c0.1,0.2,0.1,0.3,0.1,0.5v5.9c0,0.2,0,0.4-0.1,0.5
	c0,0.1-0.1,0.2-0.2,0.2h-0.3c-0.2,0-0.3,0.1-0.3,0.3c0,0,0,0,0,0c0,0.3,0.1,0.4,0.6,0.4h5.4c0.2,0,0.3-0.1,0.4-0.3l0.4-0.9
	c0.1-0.1,0.1-0.2,0.1-0.4 M99.6,108.5c0-0.3-0.1-0.4-0.4-0.4s-0.3,0-0.4-0.1c-0.2-0.2-0.3-0.4-0.5-0.6l-2.5-3.8l1.6-2.1
	c0.2-0.2,0.4-0.4,0.6-0.6c0.1-0.1,0.3-0.1,0.4-0.2c0.3-0.1,0.4-0.1,0.4-0.4s-0.1-0.4-0.4-0.4h-2.2c-0.3,0-0.4,0.2-0.4,0.4
	s0.1,0.4,0.6,0.4c0.2,0,0.3,0.1,0.3,0.2c0,0.1,0,0.1-0.1,0.1l-0.3,0.3l-1.9,2.5c-0.1,0.1-0.1,0.2-0.2,0.4c0,0.1,0.1,0.3,0.2,0.4
	l2.6,3.8c0.1,0.3,0.4,0.4,0.7,0.4h1.4C99.4,108.8,99.6,108.7,99.6,108.5 M94.9,108.5c0-0.2-0.1-0.4-0.3-0.4h-0.3
	c-0.1,0-0.2-0.1-0.2-0.2c-0.1-0.1-0.1-0.2-0.1-0.5v-5.9c0-0.2,0-0.4,0.1-0.5c0-0.1,0.1-0.2,0.2-0.2h0.3c0.2,0,0.3-0.2,0.3-0.3
	c0,0,0,0,0,0c0-0.3-0.1-0.4-0.6-0.4h-2.4c-0.4,0-0.6,0.1-0.6,0.4c0,0.2,0.2,0.4,0.3,0.4c0,0,0,0,0,0h0.3c0.1,0,0.2,0.1,0.2,0.2
	c0,0.2,0,0.4,0,0.5v5.9c0,0.2,0,0.3,0,0.5c0,0.1-0.1,0.2-0.2,0.2h-0.3c-0.2,0-0.3,0.2-0.4,0.4c0,0.3,0.1,0.4,0.6,0.4h2.4
	C94.7,108.8,94.9,108.8,94.9,108.5 M74.9,108.5c0-0.1-0.1-0.2-0.2-0.3c-0.1-0.1-0.2-0.1-0.4-0.1c-0.3-0.1-0.5-0.2-0.8-0.7l-1.7-2.9
	c1.1-0.2,1.8-1.1,1.8-2.2c0-1.6-1.2-2.5-3.4-2.5c-1.1,0-2.3,0.2-3.3,0.6c-0.1,0.1-0.1,0.2-0.1,0.3c0,0.2,0.1,0.3,0.4,0.3
	s0.4,0.1,0.4,0.5v5.8c0,0.3,0,0.4,0,0.5c0,0.1-0.1,0.2-0.2,0.2h-0.3c-0.2,0-0.3,0.2-0.3,0.4c0,0.3,0.1,0.4,0.6,0.4h2.4
	c0.4,0,0.6-0.1,0.6-0.4c0-0.2-0.1-0.4-0.3-0.4c0,0,0,0,0,0h-0.3c-0.1,0-0.2-0.1-0.2-0.2c0-0.2,0-0.3,0-0.5v-5.5c0-0.6,0.1-0.8,0.2-1
	c0.2-0.2,0.4-0.3,0.7-0.3c0.8,0,1.3,0.7,1.3,1.7s-0.4,1.5-1.3,1.7c-0.3,0-0.5,0.1-0.5,0.4c0,0.2,0.1,0.4,0.2,0.6l2,3.4
	c0.1,0.3,0.4,0.4,0.7,0.4h1.5c0.3,0,0.5-0.1,0.5-0.4 M44.9,105.2h2l-1-3.1L44.9,105.2 M49.9,108.7H47c-0.3,0-0.4-0.1-0.4-0.4
	s0.2-0.4,0.5-0.4s0.4-0.1,0.4-0.3c0-0.1,0-0.2-0.1-0.4l-0.3-0.8l-0.1-0.2c-0.1-0.2-0.2-0.3-0.5-0.3H45c-0.1,0-0.2,0-0.4,0.1
	c-0.1,0-0.1,0.1-0.1,0.1c0,0.1,0,0.2-0.1,0.3l-0.3,0.8c0,0.1-0.1,0.2-0.1,0.4c0,0.2,0.1,0.3,0.4,0.3s0.5,0.1,0.5,0.4
	s-0.2,0.4-0.4,0.4h-1.9c-0.3,0-0.5-0.1-0.5-0.3s0.1-0.3,0.4-0.4c0.1,0,0.3-0.1,0.4-0.2c0.1-0.2,0.2-0.4,0.2-0.5l2.3-6.7
	c0.2-0.7,0.4-0.9,0.8-0.9s0.6,0.2,0.8,0.9l2.2,6.6c0.2,0.6,0.3,0.7,0.6,0.8L50,108c0.1,0,0.2,0.2,0.2,0.3c0,0.3-0.2,0.4-0.5,0.4
	 M25.7,108.5c0-0.2-0.1-0.4-0.3-0.4h-0.2c-0.1,0-0.2-0.1-0.3-0.2c-0.1-0.2-0.1-0.3-0.1-0.5v-6c0-0.2,0-0.4,0.1-0.5
	c0-0.1,0.1-0.2,0.3-0.2h0.2c0.2,0,0.3-0.2,0.3-0.4c0,0,0,0,0,0c0-0.3-0.1-0.4-0.5-0.4h-1.5c-0.2,0-0.3,0.1-0.4,0.2l-0.1,0.2
	l-2.3,3.6l-2.4-3.6c-0.2-0.3-0.2-0.3-0.3-0.3s-0.1,0-0.2,0h-1.4c-0.5,0-0.6,0.1-0.6,0.4c0,0.2,0.1,0.4,0.3,0.4c0,0,0,0,0,0h0.3
	c0.1,0,0.2,0.1,0.2,0.2c0,0.2,0,0.4,0,0.5v6c0,0.2,0,0.3,0,0.5c0,0.1-0.1,0.2-0.2,0.2h-0.3c-0.2,0-0.3,0.2-0.3,0.4
	c0,0.3,0.1,0.4,0.6,0.4h1.7c0.5,0,0.6-0.1,0.6-0.4c0-0.2-0.2-0.4-0.4-0.4h-0.3c-0.1,0-0.2-0.1-0.2-0.2c0-0.2,0-0.3,0-0.5v-4.9
	l2.2,3.3c0.2,0.3,0.2,0.3,0.4,0.3c0.2,0,0.4-0.1,0.4-0.3l2-3.2v4.8c0,0.4,0,0.4-0.1,0.5c0,0.1-0.1,0.2-0.2,0.2h-0.2
	c-0.2,0-0.3,0.2-0.3,0.4c0,0.3,0.1,0.4,0.6,0.4h2.4C25.6,108.9,25.8,108.8,25.7,108.5"/>
</svg>
