<?xml version="1.0" encoding="utf-8"?>
<!-- Generator: Adobe Illustrator 21.1.0, SVG Export Plug-In . SVG Version: 6.00 Build 0)  -->
<svg version="1.1" id="Layer_1" xmlns="http://www.w3.org/2000/svg" xmlns:xlink="http://www.w3.org/1999/xlink" x="0px" y="0px"
	 viewBox="0 0 158.9 61" style="enable-background:new 0 0 158.9 61;" xml:space="preserve">
<style type="text/css">
	.st0{fill:#C4232B;}
</style>
<title>Grocery</title>
<path class="st0" d="M23.8,18.1c-0.1,0.1-0.2,0.2-0.2,0.3c-2.9,5.1-5.8,10.1-8.7,15.2c-0.1,0.3-0.4,0.4-0.7,0.4H2.5
	c-0.3,0-0.3,0-0.3-0.3c0-0.5-0.1-1.1-0.1-1.6c-0.1-1.9-0.2-3.8-0.3-5.6c-0.1-1.6-0.2-3.2-0.3-4.8l-0.3-6.2L1,10.5
	c-0.1-2-0.2-4.1-0.3-6.1c0-0.9-0.1-1.9-0.2-2.8c0-0.3,0-0.3,0.3-0.3h14.5c0.3,0,0.3,0,0.3,0.3c-0.1,1-0.1,2-0.2,3
	c0,0.8-0.1,1.5-0.2,2.2l-0.3,4.3c-0.1,1-0.1,2-0.2,3c-0.1,1.4-0.2,2.9-0.3,4.3c0,0.5-0.1,0.9-0.1,1.4c0.2-0.1,0.2-0.2,0.2-0.3l3-5.9
	c2.1-4,4.1-8,6.2-12c0.1-0.2,0.3-0.4,0.6-0.3c3.9,0,7.7,0,11.6,0h0.1c0.3,0,0.3,0,0.3,0.3c-0.1,1.8-0.2,3.7-0.2,5.5
	c0,0.7,0,1.3-0.1,2c-0.1,1.4-0.1,2.8-0.2,4.1c-0.1,2.1-0.2,4.2-0.3,6.3c0,0.1,0,0.2,0,0.4c0.1-0.1,0.2-0.2,0.2-0.4l6.9-14.4
	c0.6-1.2,1.2-2.4,1.7-3.6c0.1-0.2,0.2-0.3,0.4-0.3h10.7c0.1,0,0.2,0,0.2,0c0,0.1-0.1,0.3-0.2,0.4l-6.3,10.9l-12.1,21
	c-0.1,0.2-0.3,0.3-0.5,0.3h-12c-0.4,0-0.4,0-0.4-0.4c-0.1-3.8-0.1-7.7-0.2-11.5c0-1.2,0-2.4,0-3.6C24,18.3,23.9,18.2,23.8,18.1z"/>
<path class="st0" d="M119.3,14.6c0.1-0.4,0.2-0.7,0.2-1.1c0.2-0.9,0.1-1.9-0.2-2.7c-0.2-1-1-1.7-2-1.9c-0.9-0.2-1.8,0.1-2.5,0.7
	c-0.6,0.5-1.2,1.2-1.6,1.9c-0.9,1.4-1.5,3-2,4.6c-0.6,1.8-1,3.6-1.2,5.4c-0.1,0.7-0.1,1.3-0.1,2c0,0.4,0.1,0.8,0.2,1.3
	c0.2,1,1.1,1.6,2.1,1.6c1.3,0.1,2.7-0.4,3.5-1.5c0.7-0.8,1.3-1.7,1.8-2.6c0.2-0.5,0.5-0.9,0.7-1.4c0-0.1,0.2-0.2,0.3-0.2l2.9,0.2
	l1.5,0.1l5.6,0.3l1.2,0.1c0.3,0,0.3,0,0.2,0.3c-0.7,2.3-1.8,4.5-3.4,6.4c-2,2.5-4.6,4.4-7.6,5.5c-1.4,0.6-2.9,0.9-4.5,1.1
	c-1.1,0.1-2.2,0.2-3.3,0.2c-2.2,0-4.3-0.5-6.3-1.3c-4-1.5-6.9-4.9-8-9c-0.5-1.9-0.6-3.8-0.4-5.7c0.3-2.8,1.1-5.5,2.5-8
	c1.5-2.7,3.6-5,6.1-6.7c2.3-1.6,5-2.7,7.8-3.2c1.6-0.3,3.3-0.4,4.9-0.3c1.6,0.1,3.1,0.3,4.7,0.8c1.9,0.6,3.6,1.5,5.1,2.8
	c2,1.7,3.3,4,3.7,6.6c0.2,1.2,0.2,2.5-0.1,3.7c-0.1,0.3-0.1,0.3-0.4,0.3h-11C119.5,14.7,119.4,14.7,119.3,14.6z"/>
<path class="st0" d="M63.9,33.9c-0.1-0.1,0-0.3,0.1-0.4c1.2-4.2,2.3-8.4,3.5-12.7c0.4-1.5,0.9-3,1.2-4.6c0.5-1.9,0.7-3.8,0.7-5.7
	c0,0,0-0.1,0-0.1c0-0.2,0.1-0.2,0.2-0.2l1.7-0.1l2.9-0.2l2.5-0.2l2.8-0.2c0.3,0,0.3,0,0.3,0.2l0.4,4.2c0,0.1,0,0.1,0,0.2
	s0.2-0.2,0.2-0.3c0.5-0.9,1-1.7,1.7-2.4c0.9-1,2-1.7,3.3-2c0.8-0.2,1.7-0.3,2.6-0.2c0.9,0.1,1.7,0.3,2.5,0.6c2,0.8,3.4,2.6,3.8,4.7
	c0.3,1.4,0.2,2.9-0.1,4.3c-0.3,1.3-0.7,2.6-1.1,3.9c-0.5,1.7-1,3.4-1.5,5.1c-0.1,0.3-0.1,0.5-0.1,0.8c0,0.1,0,0.1,0,0.2
	c-0.1,0.6,0.4,1.2,1,1.2c0,0,0.1,0,0.1,0c0.4,0,0.4,0,0.4,0.4c0,0.7-0.1,1.3-0.1,2c0,0.2-0.1,0.4-0.3,0.5c-1,0.7-2.1,1.1-3.2,1.2
	c-1.6,0.2-3.2,0.1-4.7-0.3c-0.9-0.2-1.7-0.6-2.5-1.1c-1.1-0.8-1.7-2-1.8-3.3c-0.1-1.1,0-2.3,0.3-3.3c0.4-2,1.1-3.9,1.7-5.8
	c0.2-0.7,0.5-1.4,0.6-2.2c0.2-0.5,0.2-1.1,0.1-1.6c0-0.1-0.1-0.3-0.1-0.4c-0.1-0.3-0.4-0.5-0.7-0.4c-0.7,0-1.3,0.3-1.8,0.9
	c-0.3,0.4-0.6,0.9-0.7,1.4c-0.3,1-0.6,2-0.8,2.9c-1.1,4.1-2.3,8.3-3.4,12.4c0,0.1,0,0.1-0.1,0.2c0,0.1-0.1,0.2-0.2,0.2c0,0,0,0,0,0
	H64.3C64.1,33.9,64,33.9,63.9,33.9z"/>
<path class="st0" d="M145.6,9.3c2.2,0,4.4,0.4,6.4,1.3c2.1,0.9,3.8,2.4,4.9,4.3c0.7,1.2,1.1,2.4,1.3,3.8c0.5,3.6-0.4,7.2-2.6,10.1
	c-2,2.7-4.9,4.6-8.2,5.3c-1.4,0.3-2.9,0.4-4.3,0.3c-2-0.1-4-0.6-5.8-1.5c-1.8-0.9-3.3-2.3-4.4-4c-0.7-1.2-1.2-2.6-1.3-4.1
	c-0.3-2.5,0.1-5,1.2-7.3c1.3-2.9,3.6-5.2,6.4-6.7c1.5-0.8,3.1-1.3,4.8-1.5C144.6,9.3,145.2,9.3,145.6,9.3z M148,16.2
	c0-0.4,0-0.8-0.2-1.2c-0.1-0.4-0.4-0.7-0.8-0.8c-0.4-0.2-0.9-0.1-1.2,0.2c-0.4,0.4-0.7,0.8-0.9,1.3c-0.5,0.9-0.8,1.8-1.1,2.8
	c-0.6,1.9-1.1,3.8-1.4,5.8c-0.2,1.1-0.4,2.3-0.5,3.5c0,0.4,0,0.7,0.1,1.1c0,0.2,0.1,0.3,0.2,0.4c0.3,0.6,1,0.8,1.6,0.5
	c0.1,0,0.2-0.1,0.3-0.2c0.4-0.3,0.7-0.8,0.9-1.2c0.4-0.7,0.7-1.5,1-2.3c0.6-1.9,1.1-3.8,1.5-5.8C147.7,18.9,147.9,17.5,148,16.2z"/>
<path class="st0" d="M91.5,59.9l0.4-1.6L96,42.1c0.1-0.5,0-0.4,0.5-0.4h7.4c1.2,0,2.4,0.1,3.5,0.4c1.8,0.5,3.3,1.5,4.4,3
	c0.8,1.1,1.2,2.4,1.2,3.8c0.1,4.7-2.9,8.9-7.3,10.5c-1.1,0.4-2.2,0.6-3.3,0.6H91.8C91.7,60,91.6,60,91.5,59.9z M105.4,48.6
	c0-0.4,0-0.8-0.1-1.3c-0.2-0.5-0.6-0.9-1.1-1c-0.4,0-0.8,0-1.1,0c-0.1,0-0.1,0.1-0.2,0.1l-0.1,0.2c-0.7,2.8-1.4,5.5-2.1,8.3
	c0,0.2-0.2,0.4-0.1,0.6s0.4,0.1,0.6,0.1c0.8,0,1.6-0.3,2.1-0.9c0.4-0.5,0.8-1,1.1-1.6C105.1,51.6,105.4,50.1,105.4,48.6z"/>
<path class="st0" d="M66.2,9.8l-0.3,1.1l-4.6,16.6C61.2,28,61.1,28.5,61,29c-0.1,0.6,0.4,1.1,1,1.2c0,0,0.1,0,0.1,0h0.1
	c0.2,0,0.2,0,0.2,0.2c0,0.8,0,1.6-0.1,2.3c0,0.1-0.1,0.2-0.2,0.3c-0.9,0.6-1.9,1-2.9,1.2c-1.7,0.3-3.5,0.2-5.2-0.2
	c-0.7-0.2-1.4-0.5-2.1-0.9c-1.2-0.8-2-2.1-2.1-3.5c-0.1-1.4,0-2.8,0.4-4.1c1.4-5.2,2.8-10.3,4.2-15.5c0.1-0.5,0-0.4,0.5-0.4h10.6
	C65.9,9.7,66.1,9.8,66.2,9.8z"/>
<path class="st0" d="M75.8,60.5c-1.4,0-2.8-0.2-4.1-0.8c-2.4-1-4.1-3.2-4.4-5.8c-0.3-2,0-4.1,0.9-6c1.7-3.8,5.4-6.3,9.5-6.5
	c1.5-0.1,3,0,4.3,0.5c2.7,0.9,4.6,3.2,5,6c0.3,1.9,0,3.8-0.7,5.6c-1.1,2.9-3.4,5.1-6.3,6.2C78.6,60.2,77.2,60.5,75.8,60.5z
	 M79.7,47.5c0-0.3,0-0.7-0.1-1c-0.1-0.3-0.4-0.6-0.7-0.6c-0.4-0.1-0.8,0-1.2,0.2c-0.2,0.1-0.4,0.3-0.5,0.4c-0.4,0.4-0.6,0.8-0.9,1.3
	c-0.7,1.5-1.2,3-1.5,4.6c-0.2,0.7-0.2,1.5-0.2,2.2c0,0.3,0.1,0.5,0.2,0.7c0.1,0.3,0.4,0.5,0.7,0.6c0.5,0.1,1-0.1,1.4-0.4
	c0.4-0.4,0.7-0.9,1-1.4c0.6-1.2,1.1-2.6,1.4-3.9C79.5,49.3,79.7,48.4,79.7,47.5L79.7,47.5z"/>
<path class="st0" d="M50.3,60.5c-1.5,0-2.9-0.3-4.3-0.9c-2.3-1-3.8-3.1-4.2-5.5c-0.4-2.1,0-4.3,0.9-6.2c2.3-4.9,7.7-7.5,13-6.2
	c3.3,0.7,5.8,3.6,5.9,7c0.4,6.2-4.4,11.5-10.6,11.9C50.8,60.4,50.5,60.5,50.3,60.5z M54.2,47.5c0-0.3,0-0.6-0.1-0.9
	c-0.1-0.3-0.4-0.6-0.7-0.7c-0.4-0.1-0.9,0-1.2,0.2c-0.2,0.2-0.4,0.4-0.6,0.6c-0.4,0.5-0.7,1-0.9,1.5C49.7,50,49.2,52,49,54.1
	c0,0.4,0,0.8,0.1,1.2c0.1,0.4,0.4,0.6,0.8,0.7c0.5,0.1,1-0.1,1.4-0.5c0.4-0.4,0.7-0.8,0.9-1.3c0.6-1.1,1.1-2.4,1.4-3.6
	C54,49.5,54.1,48.5,54.2,47.5L54.2,47.5z"/>
<path class="st0" d="M137.5,44.8c-0.1,0.1-0.1,0.2-0.3,0.2l-3.3,2.6l-0.1,0.1c0,0.1-0.1,0.1-0.2,0c0,0,0,0,0,0l-0.2-0.2
	c-1.1-1-2.3-1.7-3.7-2.1c-0.5-0.2-1-0.2-1.5-0.1c-0.5,0.1-0.8,0.5-0.8,1c0,0.2,0.1,0.4,0.3,0.5c0.2,0.2,0.5,0.5,0.8,0.6
	c0.5,0.3,1.1,0.5,1.6,0.8c0.9,0.4,1.7,0.8,2.5,1.3c0.8,0.4,1.4,1,2,1.6c1.1,1.4,1.3,3.3,0.5,4.9c-0.5,1.2-1.5,2.2-2.6,2.8
	c-1.1,0.7-2.4,1.1-3.7,1.3c-1.2,0.2-2.3,0.3-3.5,0.2c-3.2-0.1-6.2-1.5-8.4-3.7l-0.1-0.1c-0.1,0-0.1-0.1,0-0.2c0,0,0,0,0,0l0.1-0.1
	l3.3-2.6l0.1-0.1c0.1-0.1,0.1-0.1,0.2,0c0.1,0.1,0.2,0.2,0.3,0.4c1.2,1.2,2.7,1.9,4.3,2.3c0.4,0.1,0.8,0.1,1.1,0
	c0.5-0.1,0.9-0.7,0.7-1.2c0-0.2-0.1-0.4-0.3-0.5c-0.2-0.2-0.5-0.4-0.8-0.6c-0.8-0.5-1.7-0.9-2.6-1.3c-0.9-0.4-1.7-1-2.4-1.6
	c-0.8-0.7-1.3-1.6-1.5-2.7c-0.1-1,0.1-2,0.5-2.8c0.6-1.1,1.5-2.1,2.6-2.7c1.1-0.7,2.4-1.1,3.7-1.3c1.1-0.2,2.3-0.2,3.5-0.1
	C132.8,41.6,135.4,42.8,137.5,44.8L137.5,44.8z"/>
<path class="st0" d="M16.8,60c0-0.1,0-0.2,0-0.3L21.2,42c0.1-0.3,0.1-0.3,0.4-0.3h17c0.1,0.1,0,0.2,0,0.2l-1.2,4.9
	c-0.1,0.3-0.1,0.3-0.4,0.3h-8.9c-0.1,0-0.2,0.1-0.2,0.2l-0.5,2c0,0,0,0.1,0,0.1c0.1,0,0.2,0,0.3,0h5.5c0.2,0,0.2,0.1,0.2,0.2
	c-0.2,0.6-0.3,1.2-0.4,1.7L32.5,53c-0.1,0.3-0.1,0.3-0.4,0.3h-5.5c-0.3,0-0.3,0-0.4,0.3l-1.5,6c0,0.1,0,0.1,0,0.2
	c0,0.1-0.1,0.2-0.2,0.2c0,0,0,0,0,0h-7.4C17,60,16.9,60,16.8,60z"/>
<path class="st0" d="M61.8,7.9c-1.4,0-2.7-0.3-3.9-1c-0.5-0.3-1-0.6-1.3-1.1c-0.7-0.8-0.7-2,0-2.9c0.5-0.6,1.1-1,1.7-1.3
	c1.1-0.5,2.3-0.7,3.5-0.7c1.3,0,2.5,0.2,3.7,0.7c0.6,0.2,1.1,0.6,1.5,1C68,3.6,68,5,67.1,5.9c0,0-0.1,0.1-0.1,0.1
	c-0.7,0.7-1.5,1.2-2.5,1.4C63.7,7.8,62.8,7.9,61.8,7.9z"/>
</svg>
