<?xml version="1.0" encoding="utf-8"?>
<!-- Generator: Adobe Illustrator 21.1.0, SVG Export Plug-In . SVG Version: 6.00 Build 0)  -->
<svg version="1.1" id="Layer_1" xmlns="http://www.w3.org/2000/svg" xmlns:xlink="http://www.w3.org/1999/xlink" x="0px" y="0px"
	 viewBox="0 0 234.5 71.8" style="enable-background:new 0 0 234.5 71.8;" xml:space="preserve">
<style type="text/css">
	.st0{fill:#FFFFFF;}
	.st1{fill:#1C3C34;}
</style>
<title>Fast Casual</title>
<path class="st0" d="M147.3,57L147.3,57z M51.9,66.1L51.9,66.1L39.6,48.9l0,0c2.8-1.9,5.6-3.7,8.5-5.4l0,0c1.1-0.7,1.8-1.9,1.8-3.2
	l0,0c0-1.3-0.8-2.5-1.9-3.1l0,0c-0.8-0.4-1.4-0.9-1.9-1.6l0,0c-0.6-0.8-1.6-1.4-2.6-1.4l0,0C39.9,33.8,38,32.7,37,31l0,0
	c-0.6-1-1.5-1.6-2.6-1.8l0,0c-3.9-0.5-5.9-1.7-6.9-3.7l0,0c-0.5-1-1.4-1.7-2.4-1.9l0,0c-3.2-0.8-4.7-1.9-5.5-3.9l0,0
	c-0.4-1-1.3-1.8-2.3-2.1l0,0c-2.9-0.9-4.2-2-4.9-3.8l0,0c-0.4-0.9-1-1.6-1.9-1.9l66,0.4h0.3c1.3,0,2.6,0.2,3.8,0.7l0,0
	c0.7,0.4,0.4,0.2,0.5,0.5l0,0c0,3,1.5,5.9,3.9,7.6l0,0c1.2,0.9,2.7,1,4,0.2l0,0c0.3-0.2,0.6-0.4,0.9-0.7l2.6-1l0,0
	c1.2-0.5,2.1-1.7,2.2-3l0.1-1.5l1.5-0.3l0,0c1.3-0.2,2.4-1.2,2.8-2.5l0.4-1.5h1.5l0,0c1.3,0,2.6-0.7,3.3-1.8l0.7-1.4l1.5,0.4l0,0
	c1.3,0.3,2.7-0.1,3.6-1.1l1-1.2l1.4,0.7l0,0c1.2,0.6,2.7,0.4,3.7-0.4l1.2-0.9l1.2,0.9l0,0c1.1,0.8,2.5,1,3.7,0.4l1.4-0.7l1,1.2l0,0
	c0.9,1,2.2,1.5,3.6,1.2l1.5-0.4l0.7,1.4l0,0c0.6,1.2,1.9,1.9,3.2,1.9h1.5l0.4,1.5l0,0c0.4,1.3,1.4,2.3,2.8,2.5l1.5,0.3l0.1,1.6l0,0
	c0.1,1.3,1,2.5,2.2,3l2.7,1.1l0,0c0.2,0.2,0.5,0.4,0.8,0.6l0,0c1.3,0.7,2.8,0.6,4-0.3l0,0c2.3-1.7,3.7-4.3,3.8-7.1l0,0
	c0-0.1,0-0.3,0-0.4l0,0c0-0.2-0.1,0,0.6-0.5l0,0c1.3-0.5,2.7-0.7,4.1-0.6l66,0.4l0,0c-0.8,0.4-1.5,1.1-1.9,1.9l0,0
	c-0.8,1.8-2.1,2.9-5,3.8l0,0c-1.1,0.3-1.9,1.1-2.4,2.1l0,0c-0.8,2-2.4,3.1-5.6,3.9l0,0c-1.1,0.2-1.9,0.9-2.4,1.9l0,0
	c-1,2-3,3.1-6.9,3.6l0,0c-1.1,0.1-2.1,0.8-2.6,1.8l0,0c-1,1.7-3,2.8-6.5,3.1l0,0c-1,0.1-2,0.6-2.6,1.4l0,0c-0.5,0.7-1.2,1.2-1.9,1.6
	l0,0c-1.2,0.6-1.9,1.8-1.9,3.1l0,0c0,1.3,0.6,2.5,1.7,3.2l0,0c2.9,1.7,5.7,3.6,8.5,5.5l-12.6,17.1l0,0l-0.7-0.2l0,0
	c-0.2-0.9-0.7-1.6-1.5-2.1l0,0c-9.8-6.5-20.5-11.5-31.9-14.7l0,0c-0.8-0.2-1.6-0.2-2.3,0.1l-3.6,1.5l0,0c-1.2,0.5-2.1,1.7-2.2,3
	l-0.1,1.5l-1,0.2l0,0c-1.4,0.2-2.5,1.2-2.8,2.6l0,0c-0.4,0.4-0.8,0.9-0.9,1.5l-1.5-0.1l0,0c-1.3-0.1-2.6,0.7-3.3,1.9l-0.7,1.4
	l-1.5-0.4l0,0c-1.3-0.3-2.7,0.1-3.6,1.1l-1,1.2l-1.4-0.7l0,0c-1.2-0.6-2.7-0.4-3.7,0.4l-1.2,0.9l-1.2-1l0,0c-1.1-0.8-2.5-1-3.7-0.4
	l-1.4,0.6l-1-1.2l0,0c-0.9-1-2.2-1.5-3.6-1.2l-1.5,0.4l-0.7-1.4l0,0c-0.6-1.2-1.9-1.9-3.2-1.9h-1.5l0,0c-0.2-0.6-0.5-1.1-0.9-1.5
	l0,0c-0.4-1.3-1.4-2.3-2.8-2.6l-1-0.2l-0.1-1.5l0,0c-0.1-1.3-1-2.5-2.2-3l-3.6-1.5l0,0c-0.7-0.3-1.6-0.4-2.3-0.1l0,0
	c-11.3,3.1-22.1,7.9-32,14.3l0,0c-0.8,0.5-1.3,1.3-1.5,2.2l0,0L51.9,66.1z"/>
<path class="st0" d="M91.7,28.6l-49,6.6c2.3,6.1,9.5,6.8,19.1,4.9c17.7-3.4,32.5-6.1,32.5-6.1L91.7,28.6z"/>
<path class="st1" d="M90.9,29l0.8-0.4L90.9,29z M53.2,40.1c2.8,0,5.6-0.3,8.4-0.9l0,0c14.8-2.8,27.6-5.2,31.4-5.9l0,0l-1.8-3.9
	L44,35.9C45.6,38.8,48.6,40.1,53.2,40.1L53.2,40.1z M41.9,35.5l-0.4-1l50.1-6.7l0.6-0.1l3.3,7l-1.1,0.2c0,0-14.8,2.7-32.5,6.1l0,0
	c-2.9,0.6-5.8,0.9-8.8,0.9H53C47.8,41.8,43.6,39.9,41.9,35.5L41.9,35.5z"/>
<path class="st0" d="M83.1,25.2L34,30.9c2.2,6.1,9.4,7,19,5.3c17.7-3.1,32.6-5.5,32.6-5.5L83.1,25.2z"/>
<path class="st1" d="M82.3,25.5l0.8-0.3L82.3,25.5z M44.8,36c2.7,0,5.4-0.2,8-0.7l0,0c14.9-2.6,27.7-4.7,31.5-5.3l0,0l-1.7-3.9
	l-47.3,5.5C36.8,34.6,40,35.9,44.8,36L44.8,36z M33.1,31.2l-0.4-1L83,24.3l0.6-0.1l3.1,7.1l-1.1,0.2c0,0-14.8,2.4-32.6,5.5l0,0
	c-2.7,0.5-5.5,0.8-8.3,0.8h-0.2C39.1,37.7,34.8,35.8,33.1,31.2z"/>
<path class="st0" d="M73.7,22.3l-49.3,3.1c1.9,6.2,9,7.4,18.7,6.3c17.8-2.2,32.8-3.8,32.8-3.8L73.7,22.3z"/>
<path class="st1" d="M72.9,22.6l0.8-0.3L72.9,22.6z M36.5,31.2c2.2,0,4.3-0.1,6.5-0.4l0,0c15-1.8,27.9-3.3,31.7-3.7l0,0l-1.5-4
	l-47.5,3C27.2,29.6,30.9,31,36.5,31.2L36.5,31.2z M23.6,25.6l-0.3-1l50.4-3.2h0.6l2.7,7.3L76,28.8c0,0-14.9,1.7-32.8,3.8l0,0
	c-2.2,0.3-4.5,0.4-6.7,0.4h-0.2C30,32.9,25.1,30.9,23.6,25.6L23.6,25.6z"/>
<path class="st0" d="M66,18.4l-49.4,1.4c1.6,6.3,8.8,7.8,18.4,6.9C53,25.2,68,24,68,24L66,18.4z"/>
<path class="st1" d="M65.2,18.6l0.8-0.3L65.2,18.6z M29.7,26c1.8,0,3.5,0,5.3-0.2l0,0c15-1.3,28-2.3,31.8-2.6l0,0l-1.3-4l-47.6,1.3
	C19.3,24.3,23.5,25.9,29.7,26z M15.8,20l-0.3-1L66,17.6h0.7l2.5,7.3L68,25c0,0-15,1.1-32.9,2.7l0,0c-1.8,0.2-3.6,0.2-5.5,0.2h-0.2
	C22.6,27.7,17.2,25.6,15.8,20L15.8,20z"/>
<path class="st0" d="M58.7,13.8L9.3,13.5c1.4,6.3,8.5,8,18.2,7.6c18-0.9,33-1.5,33-1.5L58.7,13.8z"/>
<path class="st1" d="M57.9,14.1l0.8-0.3L57.9,14.1z M23.6,20.3c1.2,0,2.5,0,3.8-0.1l0,0c15.1-0.8,28.1-1.3,31.9-1.4l0,0l-1.2-4.1
	l-47.7-0.3C11.9,18.4,16.5,20.1,23.6,20.3L23.6,20.3z M8.4,13.7l-0.2-1.1l50.5,0.3h0.6l2.2,7.4h-1.1c0,0-15,0.6-33,1.5l0,0
	c-1.4,0.1-2.7,0.1-4,0.1h-0.2c-7.6-0.2-13.6-2.3-15-8.3L8.4,13.7z"/>
<path class="st0" d="M96.8,25.3l-49.2,4.8c2.1,6.2,9.3,7.1,18.9,5.6c17.8-2.8,32.7-4.9,32.7-4.9L96.8,25.3z"/>
<path class="st1" d="M96,25.6l0.8-0.3L96,25.6z M58.8,35.5c2.5,0,5-0.2,7.5-0.6l0,0c14.9-2.3,27.8-4.2,31.5-4.8l0,0l-1.7-3.9
	l-47.4,4.7C50.4,34.1,53.8,35.4,58.8,35.5L58.8,35.5z M46.8,30.4l-0.3-1l50.3-5l0.6-0.1l3,7.2l-1.1,0.2c0,0-15,2.2-32.7,4.9l0,0
	c-2.6,0.4-5.2,0.6-7.8,0.6h-0.2C52.9,37.1,48.4,35.2,46.8,30.4L46.8,30.4z"/>
<path class="st0" d="M90.4,22.2L41,25.3c1.9,6.2,9,7.5,18.7,6.3c17.8-2.2,32.8-3.8,32.8-3.8L90.4,22.2z"/>
<path class="st1" d="M89.6,22.5l0.8-0.3L89.6,22.5z M53.1,31.1c2.2,0,4.3-0.1,6.5-0.4l0,0c15-1.8,27.9-3.3,31.7-3.7l0,0l-1.5-4
	l-47.5,3C43.8,29.5,47.5,30.9,53.1,31.1L53.1,31.1z M40.2,25.6l-0.3-1l50.4-3.2h0.6l2.8,7.3l-1.1,0.1c0,0-14.9,1.6-32.8,3.8l0,0
	c-2.2,0.3-4.5,0.4-6.7,0.4h-0.2C46.6,32.8,41.7,30.8,40.2,25.6L40.2,25.6z"/>
<path class="st0" d="M84.2,18.5l-49.4,1.4c1.7,6.3,8.8,7.8,18.4,6.9c17.9-1.5,32.9-2.7,32.9-2.7L84.2,18.5z"/>
<path class="st1" d="M83.4,18.8l0.8-0.3L83.4,18.8z M47.9,26.1c1.8,0,3.5,0,5.3-0.2l0,0c15-1.3,28-2.3,31.8-2.6l0,0l-1.3-4L36,20.7
	C37.5,24.4,41.7,26,47.9,26.1L47.9,26.1z M33.9,20.1L33.6,19l50.5-1.4h0.6l2.5,7.3L86.2,25c0,0-15,1.1-32.9,2.7l0,0
	c-1.8,0.2-3.6,0.2-5.4,0.2h-0.2C40.8,27.7,35.4,25.6,33.9,20.1L33.9,20.1z"/>
<path class="st0" d="M87,23.7c0,0-6.3-1.8-6.6-5.8c-0.3-3.3-2.2-3.8-5.9-3.8l-44.4,1c0,3.6,6.4,6.7,17.3,6.5
	c8-0.1,25.9-1.5,25.9-1.5s2.1,4.7,7,5.6c3.2,0.6,6.6,1.5,6.5,1.4S87,23.7,87,23.7z"/>
<path class="st1" d="M87.6,26.9L87.6,26.9L87.6,26.9L87.6,26.9z M74.1,19.7c0.4,0.8,0.9,1.6,1.5,2.3l0,0c1.2,1.5,2.9,2.5,4.8,2.9
	l0,0c2.1,0.4,4.3,0.9,5.5,1.2l0,0c0-0.6,0.1-1.3,0.2-1.8l0,0c-1.7-0.6-6.1-2.4-6.5-6.4l0,0c-0.3-2.7-1.1-2.8-4.5-3h-0.5l-43.4,1
	c0.4,1,1.5,2,3.4,2.8l0,0c3.5,1.4,7.2,2,11,2l0,0c0.6,0,1.2,0,1.9,0l0,0c7.9-0.1,25.8-1.5,25.8-1.5l0,0h0.6L74.1,19.7L74.1,19.7z
	 M86.7,26.2L86.7,26.2h0.1l0,0C86.8,26.2,86.7,26.2,86.7,26.2L86.7,26.2z M86.7,27.9h0.2h1l-0.3-1l0,0c0,0,0,0.1,0,0.1l0,0
	c0,0,0,0,0-0.1l0,0l0,0v-0.1l0,0c0-0.1,0-0.1-0.1-0.2l0,0c0.1,0.1,0.1,0.1,0.1,0.2l0,0c0-0.6,0.3-3.1,0.3-3.1l0.1-0.7l-0.7-0.2
	L87,23.7l0.2-0.8l0,0c-1-0.3-2.1-0.7-3-1.3l0,0c-1.5-0.9-2.9-2.2-3-3.8l0,0c-0.2-3.6-2.9-4.7-6.2-4.6l0,0c-0.2,0-0.4,0-0.6,0
	l-45.1,1v0.8l0,0c0.2,4.5,6.5,7.1,16.3,7.3l0,0c0.6,0,1.3,0,1.9,0l0,0c7.2-0.1,22.2-1.2,25.4-1.5l0,0c1.5,2.8,4.2,4.8,7.3,5.5l0,0
	C83,27.1,85.9,27.9,86.7,27.9L86.7,27.9z"/>
<path class="st0" d="M87.9,19.7c-2.5-1.2-4.2-3.7-4.2-6.4c0-2.5-3.2-3.8-7.3-3.8l-75-0.4c1.5,4.6,8.6,6,17.5,6l57.8,0.3
	c0,0,1.1,4.5,4.6,6.5c2.1,1.1,4.5,1.7,6.9,1.8C88.2,23.6,87.9,19.7,87.9,19.7z"/>
<path class="st1" d="M77.6,15.3c0.2,0.8,0.5,1.6,0.9,2.3l0,0c0.7,1.5,1.9,2.8,3.3,3.6l0,0c1.7,0.8,3.6,1.4,5.5,1.7l0,0
	c-0.1-0.8-0.1-1.9-0.2-2.5l0,0c-2.6-1.4-4.2-4.1-4.3-7l0,0c0-0.8-0.4-1.4-1.5-2l0,0c-1.5-0.6-3-0.9-4.6-0.9h-0.3L2.8,9.9
	c1.9,2.9,7.6,4.2,14.9,4.3l0,0h1.2l0,0l57.8,0.3l0,0C77.1,14.5,77.5,14.8,77.6,15.3L77.6,15.3z M88.3,22.9L88.3,22.9z M88.4,22.9
	L88.4,22.9z M88.4,22.9L88.4,22.9z M88.4,22.9L88.4,22.9L88.4,22.9z M89,23.7c0-0.1,0-0.2,0-0.2l0,0C89,23.6,89,23.6,89,23.7z
	 M80.8,22.6c-2.3-1.5-4-3.7-4.8-6.3l0,0L18.8,16l0,0h-1.2l0,0C9.3,15.8,2.4,14.5,0.5,9.3l0,0c-0.1-0.3,0-0.6,0.1-0.8l0,0
	c0.2-0.2,0.4-0.4,0.7-0.4l0,0l74.9,0.4c0.1,0,0.2,0,0.4,0l0,0c4,0.1,7.7,1.3,7.8,4.7l0,0c-0.1,4,3.7,5.6,3.7,5.6l0,0l-0.3,0.8H87
	h0.9l0.4-0.8c0.3,0.1,0.5,0.4,0.5,0.7l0,0c0,0,0.2,2.9,0.3,3.8l0,0l0,0c0.1,0.3,0,0.6-0.2,0.8l0,0l-0.1,0.1l0,0
	c-0.1,0.1-0.2,0.2-0.4,0.2H88C85.5,24.3,83.1,23.7,80.8,22.6L80.8,22.6z"/>
<path class="st0" d="M142.7,28.9l48.9,7.1c-2.4,6-9.6,6.7-19.1,4.7c-17.6-3.6-32.4-6.4-32.4-6.4L142.7,28.9z"/>
<path class="st1" d="M172.7,39.9c2.5,0.5,5.1,0.9,7.7,0.9l0,0c4.9,0.1,8.3-1.1,10-4.2l0,0l-47.1-6.9l-1.8,3.8
	C145.1,34.4,157.9,36.9,172.7,39.9L172.7,39.9z M180.3,42.6c-2.7-0.1-5.4-0.4-8-1l0,0c-17.6-3.6-32.4-6.4-32.4-6.4l0,0l-1.1-0.2
	l3.1-6.4l0.3-0.6l50.6,7.4l-0.4,1C190.6,41,186,42.7,180.3,42.6L180.3,42.6L180.3,42.6z"/>
<path class="st0" d="M151.4,25.5l49,6.3c-2.3,6.1-9.5,6.8-19,5.1c-17.7-3.3-32.5-5.9-32.5-5.9L151.4,25.5z"/>
<path class="st1" d="M181.6,36c2.4,0.5,4.8,0.7,7.2,0.8l0,0c5.2,0.1,8.7-1.2,10.4-4.3l0,0l-47.3-6l-1.8,3.9
	C153.9,31.1,166.8,33.3,181.6,36L181.6,36z M188.7,38.6c-2.5-0.1-5-0.4-7.5-0.8l0,0c-17.7-3.3-32.4-5.9-32.5-5.9l0,0l-1.1-0.2
	l2.9-6.5l0.3-0.6l50.8,6.5l-0.4,1c-1.8,4.8-6.5,6.6-12.4,6.5L188.7,38.6L188.7,38.6z"/>
<path class="st0" d="M160.7,22.8l49.3,3.7c-1.9,6.2-9.1,7.3-18.7,6.1c-17.8-2.4-32.8-4.2-32.8-4.2L160.7,22.8z"/>
<path class="st1" d="M191.4,31.7c1.8,0.3,3.7,0.4,5.5,0.4l0,0c6.1,0.1,10.2-1.3,11.9-4.9l0,0l-47.5-3.6l-1.6,4
	C163.5,28.1,176.5,29.7,191.4,31.7L191.4,31.7z M196.9,33.8c-1.9-0.1-3.8-0.2-5.7-0.5l0,0c-17.8-2.4-32.7-4.2-32.8-4.2l0,0l-1.1-0.1
	l2.6-6.6l0.2-0.6l51,3.8l-0.3,1c-1.7,5.4-7,7.3-13.8,7.1L196.9,33.8L196.9,33.8z"/>
<path class="st0" d="M168.5,18.9l49.4,2c-1.7,6.3-8.8,7.7-18.5,6.7c-17.9-1.7-32.9-3-32.9-3L168.5,18.9z"/>
<path class="st1" d="M199.5,26.8c1.4,0.1,2.8,0.2,4.1,0.3l0,0c6.9,0.1,11.4-1.4,13.1-5.3l0,0l-47.6-1.9l-1.4,4
	C171.5,24.2,184.4,25.3,199.5,26.8L199.5,26.8z M203.6,28.8c-1.4,0-2.8-0.1-4.3-0.3l0,0c-17.9-1.7-32.8-3-32.9-3l0,0l-1.1-0.1
	l2.4-6.7l0.2-0.6l51.1,2l-0.3,1.1c-1.6,5.9-7.5,7.8-15,7.6L203.6,28.8L203.6,28.8z"/>
<path class="st0" d="M175.9,14.5l49.4,0.3c-1.5,6.3-8.6,8-18.3,7.4c-17.9-1.1-33-1.9-33-1.9L175.9,14.5z"/>
<path class="st1" d="M207.1,21.2c0.9,0.1,1.7,0.1,2.5,0.1l0,0c7.7,0.1,12.9-1.4,14.5-5.8l0,0l-47.6-0.2l-1.3,4
	C179.1,19.6,192.1,20.2,207.1,21.2L207.1,21.2z M209.6,23.1c-0.8,0-1.7-0.1-2.6-0.1l0,0c-17.9-1.1-32.9-1.9-32.9-1.9l0,0l-1.1-0.1
	l2.1-6.8l0.2-0.6l51.2,0.3l-0.3,1.1c-1.6,6.4-8.1,8.3-16.4,8.1L209.6,23.1L209.6,23.1z"/>
<path class="st0" d="M137.7,25.5l49.1,5.4c-2.2,6.1-9.4,7-18.9,5.4c-17.7-3-32.6-5.3-32.6-5.3L137.7,25.5z"/>
<path class="st1" d="M168,35.5c2.2,0.4,4.4,0.6,6.7,0.7l0,0c5.5,0.1,9.2-1.2,10.9-4.5l0,0l-47.3-5.2l-1.7,3.9
	C140.3,30.9,153.1,33,168,35.5z M174.6,37.9c-2.3-0.1-4.6-0.3-6.9-0.7l0,0c-17.7-3-32.5-5.3-32.6-5.3l0,0l-1.1-0.2l2.8-6.5l0.3-0.6
	l50.9,5.6l-0.4,1c-1.8,5-6.7,6.8-12.8,6.7L174.6,37.9L174.6,37.9z"/>
<path class="st0" d="M144.1,22.5l49.3,3.7c-1.9,6.2-9.1,7.3-18.7,6.1c-17.8-2.4-32.8-4.2-32.8-4.2L144.1,22.5z"/>
<path class="st1" d="M174.8,31.4c1.8,0.3,3.7,0.4,5.5,0.4l0,0c6.1,0.1,10.2-1.3,11.9-4.9l0,0l-47.5-3.6l-1.6,3.9
	C146.9,27.8,159.8,29.4,174.8,31.4L174.8,31.4z M180.3,33.6c-1.9-0.1-3.8-0.2-5.7-0.5l0,0c-17.8-2.4-32.7-4.2-32.7-4.2l0,0l-1.1-0.1
	l2.6-6.6l0.2-0.6l51,3.8l-0.3,1.1c-1.7,5.4-7,7.3-13.8,7.1L180.3,33.6L180.3,33.6z"/>
<path class="st0" d="M150.3,18.9l49.4,2c-1.7,6.3-8.8,7.7-18.5,6.7c-17.9-1.8-32.9-3-32.9-3L150.3,18.9z"/>
<path class="st1" d="M181.3,26.7c1.4,0.1,2.8,0.2,4.1,0.3l0,0c6.9,0.1,11.4-1.4,13.1-5.3l0,0l-47.6-1.9l-1.4,4
	C153.3,24.1,166.3,25.2,181.3,26.7L181.3,26.7z M185.4,28.7c-1.4,0-2.8-0.1-4.3-0.3l0,0c-17.9-1.8-32.8-3-32.9-3l0,0l-1.1-0.1
	l2.4-6.7l0.2-0.6l51.1,2l-0.3,1.1c-1.6,5.9-7.5,7.8-15,7.6L185.4,28.7L185.4,28.7z"/>
<path class="st0" d="M147.4,24c0,0,6.3-1.7,6.6-5.8c0.3-3.3,2.2-3.7,6-3.7l44.4,1.6c0,3.6-6.5,6.6-17.4,6.3
	c-8-0.2-25.8-1.8-25.8-1.8s-2.2,4.7-7,5.5c-3.2,0.6-6.6,1.4-6.5,1.3S147.4,24,147.4,24z"/>
<path class="st1" d="M148.5,26.4c1.2-0.3,3.5-0.8,5.6-1.1l0,0c1.9-0.4,3.6-1.4,4.8-2.8l0,0c0.6-0.7,1.1-1.4,1.5-2.2l0,0l0.3-0.6
	l0.6,0.1c0,0,17.9,1.6,25.8,1.8h0.4c4.1,0.2,8.2-0.3,12.1-1.6l0,0c2.2-0.9,3.4-1.9,3.8-3l0,0l-43.3-1.5c-3.8,0.2-4.8,0.1-5.1,2.9
	l0,0c-0.5,4-4.9,5.7-6.6,6.3l0,0C148.4,25.1,148.4,25.8,148.5,26.4L148.5,26.4z M147.6,28.3c-0.1,0-0.2,0-0.3-0.1l0,0
	c-0.4-0.1-0.6-0.5-0.6-0.8l0,0c0-0.1,0-0.1,0-0.2l0,0c0-0.6-0.2-3.2-0.2-3.2l0,0l0.9-0.1l0.2,0.8l-0.2-0.8l-0.9,0.1l-0.1-0.7
	l0.7-0.2c0,0,5.9-1.8,6-5l0,0c0.2-3.9,3.2-4.7,6.9-4.5l0,0l45.2,1.6v0.8l0,0c-0.4,4.7-7.2,7.2-17.9,7.1H187
	c-7.2-0.2-22.2-1.5-25.3-1.8l0,0c-1.5,2.8-4.2,4.8-7.4,5.5l0,0c-2.4,0.4-4.8,1-6,1.2l0,0v0.2L147.6,28.3L147.6,28.3z"/>
<path class="st0" d="M146.6,20.1c2.5-1.1,4.2-3.6,4.3-6.4c0-2.5,3.3-3.7,7.3-3.7l75,0.4c-1.6,4.6-8.7,5.9-17.6,5.8l-57.8-0.4
	c0,0-1.1,4.4-4.7,6.4c-2.2,1.1-4.5,1.6-6.9,1.7C146.3,23.9,146.6,20.1,146.6,20.1z"/>
<path class="st1" d="M147.2,23.2c1.9-0.2,3.8-0.8,5.5-1.6l0,0c3.2-1.7,4.3-5.8,4.3-5.8l0,0c0.1-0.4,0.4-0.7,0.8-0.7l0,0l57.8,0.3
	l0,0c7.9,0.1,14.1-1.1,16.2-4.1l0,0l-73.6-0.4c-1.6-0.1-3.3,0.2-4.8,0.8l0,0c-1.2,0.6-1.6,1.2-1.6,2l0,0v0.1l0,0l0,0l0,0l0,0l0,0
	c-0.1,2.9-1.8,5.5-4.3,6.8l0,0C147.4,21.2,147.3,22.3,147.2,23.2L147.2,23.2z M234,10.6L234,10.6L234,10.6c-2,5.5-9.5,6.5-18.4,6.5
	l0,0l-57.2-0.3l0,0c-0.8,2.6-2.6,4.8-4.9,6.3l0,0c-2.3,1.1-4.7,1.7-7.2,1.9l0,0c-0.1,0-0.2,0-0.3,0l0,0c-0.1,0-0.5,0.1-0.7-0.9l0,0
	c0-0.1,0-0.1,0-0.2l0,0c0,0,0,0,0-0.1l0,0c0-0.1,0-0.3,0-0.5l0,0c0-0.4,0.1-0.9,0.1-1.3l0,0c0.1-1,0.2-1.9,0.2-1.9l0,0
	c0-0.3,0.2-0.6,0.5-0.7l0,0c0,0,3.7-1.6,3.8-5.5l0,0c0,0,0-0.1,0-0.1l0,0c0.2-3.4,4.1-4.5,8.2-4.5l0,0l75,0.4c0.3,0,0.5,0.1,0.7,0.4
	l0,0c0.1,0.1,0.1,0.2,0.1,0.3L234,10.6L234,10.6z M147,24.3c0,0,0-0.1,0-0.1l0,0C147,24.2,147,24.2,147,24.3z"/>
<path class="st1" d="M50.6,68.5c21.1-6.9,43-10.1,66.4-10l0,0c1.1,0,2.2,0,3.3,0l0,0c21.4,0.3,42.7,3.9,63,10.7l0,0l-0.6,1.6
	c-20.1-6.8-41.2-10.4-62.5-10.6l0,0h-3.3l0,0c-23.3-0.1-45,3.1-65.9,9.9l0,0L50.6,68.5L50.6,68.5z"/>
<polygon class="st1" points="117.4,0.5 120.8,3.1 124.7,1.3 127.4,4.6 131.6,3.6 133.6,7.4 137.9,7.3 139.1,11.4 143.3,12.2 
	143.6,16.5 147.6,18.2 147,22.4 150.5,24.9 149.1,28.9 152,32 149.7,35.7 152,39.3 149,42.4 150.4,46.5 146.9,48.9 147.4,53.1 
	143.4,54.7 143.1,59 138.8,59.8 137.6,63.9 133.3,63.7 131.2,67.5 127.1,66.5 124.3,69.7 120.4,67.8 117,70.4 113.6,67.8 
	109.7,69.6 107,66.3 102.8,67.3 100.8,63.5 96.5,63.6 95.3,59.5 91.1,58.7 90.8,54.4 86.8,52.8 87.4,48.5 83.9,46.1 85.4,42.1 
	82.4,38.9 84.7,35.3 82.4,31.6 85.4,28.5 84,24.5 87.6,22.1 87,17.8 91,16.2 91.4,11.9 95.6,11.2 96.8,7.1 101.1,7.2 103.2,3.4 
	107.3,4.5 110.1,1.2 114,3.1 "/>
<path class="st0" d="M114.4,51.3l0.2-31.5c0-0.6,0.5-1.1,1.2-1.1c0,0,0,0,0,0l0,0c0.6,0,1.1,0.5,1.1,1.2c0,0,0,0,0,0l0,0l-0.2,31.5
	c0,0.6-0.5,1.2-1.2,1.1l0,0C114.9,52.4,114.4,51.9,114.4,51.3L114.4,51.3z"/>
<path class="st0" d="M117.5,51.4l0.2-31.7c0-0.6,0.5-1.2,1.1-1.2c0,0,0,0,0,0l0,0c0.6,0,1.2,0.5,1.2,1.2l0,0l-0.2,31.7
	c0,0.6-0.5,1.2-1.1,1.2c0,0,0,0,0,0l0,0C118,52.6,117.5,52,117.5,51.4L117.5,51.4z"/>
<path class="st0" d="M120.5,50.7l0.2-30.4c0-0.6,0.5-1.1,1.1-1.1c0,0,0,0,0,0l0,0c0.6,0,1.1,0.5,1.1,1.2l0,0l-0.2,30.4
	c0,0.6-0.5,1.2-1.2,1.1l0,0C121.1,51.9,120.6,51.3,120.5,50.7L120.5,50.7z"/>
<path class="st0" d="M123.6,49.4l0.2-27.7c0-0.6,0.5-1.2,1.2-1.2l0,0l0,0c0.6,0,1.1,0.5,1.2,1.2l0,0l-0.2,27.7
	c0,0.6-0.5,1.2-1.2,1.2l0,0C124.1,50.5,123.6,50,123.6,49.4L123.6,49.4z"/>
<path class="st0" d="M126.7,47.3l0.1-23.4c0-0.6,0.5-1.2,1.1-1.2c0,0,0,0,0,0l0,0c0.6,0,1.2,0.5,1.2,1.1c0,0,0,0,0,0l0,0L129,47.3
	c0,0.6-0.5,1.2-1.2,1.1l0,0C127.2,48.4,126.7,47.9,126.7,47.3L126.7,47.3z"/>
<path class="st0" d="M129.8,43.4l0.1-15.6c0-0.6,0.5-1.2,1.2-1.2l0,0c0.6,0,1.1,0.5,1.1,1.2l0,0l-0.1,15.6c0,0.6-0.5,1.1-1.2,1.1
	c0,0,0,0,0,0l0,0C130.3,44.5,129.8,44,129.8,43.4L129.8,43.4z"/>
<path class="st0" d="M111.4,50.7l0.2-30.3c0-0.6,0.5-1.2,1.2-1.2c0,0,0,0,0,0l0,0c0.6,0,1.1,0.5,1.1,1.2l0,0l-0.2,30.3
	c0,0.6-0.5,1.2-1.2,1.2l0,0C111.9,51.8,111.4,51.3,111.4,50.7L111.4,50.7z"/>
<path class="st0" d="M108.3,49.3l0.2-27.6c0-0.6,0.5-1.1,1.2-1.1l0,0c0.6,0,1.1,0.5,1.1,1.2c0,0,0,0,0,0l0,0l-0.2,27.6
	c0,0.6-0.5,1.1-1.2,1.1l0,0C108.8,50.4,108.3,49.9,108.3,49.3L108.3,49.3z"/>
<path class="st0" d="M105.3,47.1l0.1-23.2c0-0.6,0.5-1.2,1.2-1.2h0l0,0c0.6,0,1.2,0.5,1.2,1.2l0,0l-0.1,23.2c0,0.6-0.5,1.2-1.2,1.1
	c0,0,0,0,0,0l0,0C105.8,48.2,105.3,47.7,105.3,47.1L105.3,47.1z"/>
<path class="st0" d="M102.2,43.4l0.1-15.7c0-0.6,0.5-1.2,1.2-1.2l0,0c0.6,0,1.2,0.5,1.2,1.2c0,0,0,0,0,0l0,0l-0.1,15.7
	c0,0.6-0.5,1.1-1.1,1.2c0,0,0,0,0,0l0,0C102.7,44.5,102.2,44,102.2,43.4L102.2,43.4z"/>
<path class="st0" d="M116.6,65.1h0.4c16.2,0.1,29.4-12.8,29.8-29l0,0c0-0.1,0-0.3,0-0.4l0,0c0.1-16.2-12.8-29.4-29-29.8h-0.4
	c-16.2-0.1-29.4,12.8-29.8,29l0,0c0,0.1,0,0.3,0,0.4l0,0C87.5,51.5,100.4,64.7,116.6,65.1L116.6,65.1z M116.6,66.2
	c-16.8-0.3-30.2-14.1-30.2-30.9l0,0c0-0.1,0-0.3,0-0.4l0,0C86.8,18,100.6,4.6,117.4,4.7h0.4C134.7,5,148.1,18.8,148,35.6l0,0
	c0,0.1,0,0.3,0,0.4l0,0c-0.3,16.8-14.1,30.2-30.9,30.1L116.6,66.2L116.6,66.2z"/>
<path class="st0" d="M116.9,53.5h0.3c9.8,0.1,17.8-7.8,18-17.5l0,0c0-0.1,0-0.2,0-0.3l0,0c0.1-9.8-7.8-17.8-17.5-18h-0.3
	c-9.8-0.1-17.8,7.8-18,17.5l0,0c0,0.1,0,0.2,0,0.3l0,0C99.2,45.3,107.1,53.3,116.9,53.5L116.9,53.5z M116.9,54.6
	c-10.4-0.2-18.7-8.7-18.7-19.2l0,0c0-0.1,0-0.2,0-0.3l0,0c0.2-10.4,8.7-18.7,19.1-18.7h0.3c10.4,0.2,18.8,8.7,18.7,19.2l0,0
	c0,0.1,0,0.2,0,0.3l0,0c-0.2,10.4-8.7,18.7-19.2,18.7L116.9,54.6L116.9,54.6z"/>
<path class="st0" d="M117.1,48.2c23.8,0,46.9,7.6,66,21.9l15.4-20.9c-48.3-35.6-114-35.9-162.7-0.9l15.1,21.1
	C70.2,55.4,93.4,48,117.1,48.2z"/>
<path class="st1" d="M51.1,68.1c19.3-13.7,42.4-21,66-20.8l0,0h1.7l0,0c23.1,0.3,45.5,7.8,64.1,21.5l0,0l14.4-19.5
	c-22.7-16.5-50-25.7-78.1-26.2l0,0h-1.9l0,0C88.5,22.9,60.4,31.8,37,48.4l0,0L51.1,68.1L51.1,68.1z M50.8,70.2
	c-0.2,0-0.4-0.2-0.6-0.4l0,0L35.1,48.7c-0.3-0.4-0.2-0.9,0.2-1.2c0,0,0,0,0,0l0,0c23.9-17.2,52.6-26.4,82-26.2l0,0h1.9l0,0
	c28.8,0.5,56.6,10,79.8,27.1l0,0c0.4,0.3,0.5,0.8,0.2,1.2c0,0,0,0,0,0l0,0l-15.4,20.9c-0.1,0.2-0.3,0.3-0.6,0.4l0,0
	c-0.2,0-0.5,0-0.6-0.2l0,0c-18.5-13.8-40.8-21.4-63.8-21.7l0,0h-1.7l0,0C93.5,48.8,70.4,56.2,51.3,70l0,0
	C51.2,70.1,51,70.2,50.8,70.2L50.8,70.2L50.8,70.2z"/>
<path class="st0" d="M159.9,31.4C119,17.7,74,24.1,38.6,48.7l12.8,17.8c39.6-27.3,92-27,131.3,0.7l12.9-17.6
	C184.7,41.8,172.7,35.6,159.9,31.4z"/>
<path class="st1" d="M51,66.8L38.2,49c-0.1-0.1-0.1-0.2-0.1-0.4l0,0c0-0.1,0.1-0.2,0.2-0.3l0,0c23.2-16.1,50.8-24.7,79-24.5l0,0h1.9
	l0,0c13.9,0.3,27.7,2.7,40.8,7.1l0,0l-0.1,0.4l-0.2,0.4c-13.1-4.4-26.8-6.7-40.6-7l0,0h-1.9l0,0c-27.8-0.2-55.1,8.2-78,24l0,0
	l12.2,17c19.3-13.3,42.2-20.3,65.7-20.1l0,0h1.7l0,0c22.9,0.3,45.1,7.6,63.8,20.9l0,0l12.4-16.8C184.2,42,172.3,36,159.7,31.8l0,0
	l0.2-0.4l0.1-0.4c12.8,4.3,24.9,10.4,35.9,18.3l0,0c0.1,0.1,0.2,0.2,0.2,0.3l0,0c0,0.1,0,0.2-0.1,0.4l0,0l-12.9,17.6
	c-0.2,0.2-0.5,0.3-0.7,0.1c0,0,0,0,0,0l0,0c-18.6-13.3-40.8-20.6-63.6-21l0,0h-1.6l0,0c-23.4-0.2-46.3,6.9-65.5,20.2l0,0
	c-0.1,0.1-0.2,0.1-0.3,0.1l0,0C51.1,66.9,51,66.8,51,66.8L51,66.8z"/>
<path class="st1" d="M118,37c0.9,0,1.6-0.7,1.7-1.6c0-0.9-0.8-1.7-1.7-1.7c-0.9,0-1.7,0.7-1.7,1.7C116.4,36.3,117.1,37.1,118,37z"/>
<path class="st0" d="M117.6,36.6c0.9,0,1.6-0.8,1.6-1.7c0-0.9-0.8-1.6-1.7-1.6c-0.9,0-1.6,0.7-1.6,1.6
	C115.9,35.9,116.7,36.6,117.6,36.6C117.6,36.6,117.6,36.6,117.6,36.6z"/>
<path class="st1" d="M117.2,36.2c0.9,0,1.6-0.8,1.6-1.7c0-0.9-0.8-1.6-1.7-1.6c-0.9,0-1.6,0.7-1.6,1.6
	C115.5,35.5,116.3,36.2,117.2,36.2C117.2,36.2,117.2,36.2,117.2,36.2z"/>
<path class="st1" d="M73.8,36.9c-0.2-0.4-0.1-0.6,0.5-0.8l-0.2-0.7l-4.3,1.5l0.3,0.7c0.6-0.2,0.8-0.1,0.9,0.3l4.3,11.6
	c0.2,0.4,0.1,0.6-0.5,0.8L75,51l4.3-1.5l-0.3-0.7c-0.6,0.2-0.8,0.1-1-0.3L73.8,36.9z"/>
<path class="st0" d="M73.1,36.6c-0.2-0.4-0.1-0.6,0.5-0.8l-0.2-0.7L69,36.6l0.2,0.7c0.7-0.2,0.8-0.1,0.9,0.3l4.4,11.6
	c0.2,0.4,0.1,0.6-0.5,0.9l0.2,0.7l4.3-1.5l-0.3-0.7c-0.6,0.2-0.8,0.1-1-0.3L73.1,36.6z"/>
<path class="st1" d="M72.3,36.2c-0.2-0.4-0.1-0.6,0.5-0.8l-0.3-0.7l-4.3,1.5l0.3,0.7c0.7-0.2,0.8-0.1,0.9,0.3l4.4,11.7
	c0.2,0.4,0.1,0.6-0.5,0.8l0.3,0.7l4.3-1.5l-0.3-0.7c-0.7,0.2-0.8,0.1-1-0.3L72.3,36.2z"/>
<path class="st1" d="M92.2,32c-0.1-0.4,0-0.6,0.4-0.7l-0.2-0.7l-3.6,0.7L89,32c0.5-0.1,0.6,0.1,0.7,0.5l2,7.6l-10.4-7l-4.5,1.3
	l0.2,0.7c0.4-0.1,0.5,0.1,0.6,0.5l3.8,11.7c0.1,0.4,0.1,0.6-0.3,0.7l0.2,0.7l3.4-1l-0.2-0.7c-0.4,0.1-0.6,0-0.7-0.5l-3.1-9.3
	l10.7,7.3c0.3,0.2,0.8,0.5,0.6,0.7l0.2,0.7l3.6-0.7l-0.2-0.7c-0.4,0.1-0.6-0.2-0.7-0.7L92.2,32z"/>
<path class="st0" d="M91.4,31.6c-0.1-0.4,0-0.6,0.4-0.7l-0.2-0.7L88,30.9l0.2,0.7c0.5-0.1,0.6,0.1,0.7,0.5l2.1,8.2l-9.9-6.6
	c-0.4-0.2-0.6-0.4-0.6-0.4l-0.2-0.6L76,34.2l0.3,0.7c0.4-0.1,0.5,0.1,0.6,0.5l3.8,11.7c0.1,0.4,0.1,0.6-0.3,0.7l0.2,0.7l3.4-1
	l-0.2-0.7c-0.4,0.1-0.6,0-0.7-0.5L80,37.1l10.7,7.2c0.3,0.2,0.8,0.4,0.6,0.7l0.2,0.7L95,45l-0.2-0.7c-0.4,0.1-0.6-0.2-0.7-0.7
	L91.4,31.6z"/>
<path class="st1" d="M90.6,31.2c-0.1-0.4,0-0.6,0.4-0.7l-0.2-0.7l-3.6,0.7l0.2,0.7c0.5-0.1,0.6,0,0.7,0.5l2.1,8.8l-10.3-6.8
	c-0.4-0.2-0.5-0.4-0.3-0.5l-0.2-0.7l-4.2,1.3l0.2,0.7c0.4-0.1,0.5,0.1,0.6,0.5L80,46.7c0.1,0.5,0.1,0.6-0.3,0.7l0.2,0.7l3.4-1.1
	l-0.2-0.7c-0.4,0.1-0.6,0-0.7-0.5l-3.2-9.3L90,43.9c0.3,0.2,0.8,0.4,0.6,0.6l0.2,0.7l3.6-0.7l-0.2-0.7c-0.4,0.1-0.6-0.4-0.7-0.9
	L90.6,31.2z"/>
<path class="st1" d="M106.2,35.7c-0.4,0-0.7-0.2-0.7-0.5h-0.7l0.2,3.6h0.7c0-0.3,0.2-0.5,0.6-0.5l3-0.2l0.1,1.7
	c-1.3,1-2.9,1.6-4.5,1.6c-3.1,0.2-6-1.3-6.2-5c-0.2-3.5,2.4-5.3,5.8-5.6c2.7-0.2,4.5,0.7,4.5,1.4c0,0.1,0,0.2,0,0.4l0.6,0.3l1.7-3.5
	l-0.6-0.3c-0.1,0.2-0.3,0.2-0.4,0.3c-0.6-0.1-1.2-0.3-1.7-0.6c-1.4-0.4-2.8-0.5-4.3-0.4c-4.2,0.3-8.8,2.9-8.4,8.2
	c0.4,5.4,4.6,7.4,9.2,7.1c2.8-0.3,5.4-1.2,7.7-2.8v-0.6c-0.3-0.1-0.4-0.2-0.4-0.5l-0.2-3.2c0-0.4,0.1-0.6,0.3-0.7v-0.7L106.2,35.7z"
	/>
<path class="st0" d="M105.5,35.2c-0.4,0-0.7-0.2-0.7-0.4h-0.7l0.2,3.6h0.7c0-0.3,0.2-0.5,0.6-0.5l3-0.2l0.1,1.7
	c-1.3,1-2.9,1.5-4.5,1.6c-3.1,0.2-6-1.3-6.2-5s2.4-5.4,5.8-5.6c2.7-0.2,4.6,0.8,4.6,1.4c0,0.1,0,0.2,0,0.4l0.6,0.3l1.7-3.5l-0.6-0.3
	c-0.1,0.1-0.3,0.2-0.4,0.3c-0.6-0.1-1.2-0.3-1.7-0.6c-1.4-0.4-2.9-0.6-4.4-0.5c-4.2,0.3-8.8,2.9-8.4,8.3s4.6,7.4,9.2,7.1
	c2.8-0.3,5.5-1.3,7.8-2.9v-0.6c-0.3,0-0.4-0.2-0.4-0.5l-0.2-3.1c0-0.4,0.1-0.6,0.3-0.7v-0.6L105.5,35.2z"/>
<path class="st1" d="M105,34.8c-0.4,0-0.7-0.2-0.7-0.5l-0.7,0.1l0.2,3.6h0.7c0-0.3,0.2-0.5,0.6-0.5l3-0.2l0.2,1.6
	c-1.3,1-2.9,1.6-4.5,1.6c-3.1,0.2-6-1.3-6.2-5c-0.2-3.5,2.4-5.3,5.8-5.6c2.7-0.2,4.6,0.8,4.6,1.4c0,0.1,0,0.2,0,0.3l0.7,0.3l1.7-3.5
	l-0.6-0.3c-0.1,0.2-0.3,0.3-0.4,0.3c-0.6-0.1-1.2-0.3-1.7-0.6c-1.4-0.4-2.9-0.6-4.4-0.5c-4.2,0.3-8.8,2.9-8.4,8.2s4.6,7.4,9.2,7.1
	c2.8-0.3,5.4-1.2,7.7-2.8v-0.6c-0.3,0-0.4-0.2-0.4-0.5l-0.2-3.2c0-0.4,0.2-0.6,0.3-0.7v-0.7L105,34.8z"/>
<path class="st1" d="M139.4,31l-0.6-0.3c-0.1,0.1-0.1,0.1-0.4,0.1c-1.8-1.1-3.8-1.8-5.9-2c-4.1-0.4-7.9,0.7-8.3,4.2
	c-0.7,6.9,12,3,11.6,7.1c-0.1,1.1-1.5,2.1-5.3,1.7c-2.7-0.3-5-1.2-4.8-2.4c0-0.1,0.1-0.2,0.1-0.3l-0.6-0.4L123,42l0.6,0.3
	c0.1,0,0.2-0.2,0.3-0.1c0.5,0.1,1.4,1.6,6.6,2.1c5.4,0.5,8.2-1.3,8.5-4.1c0.8-7.5-12.1-3.8-11.8-7.2c0.1-1.3,1.6-2.1,4.9-1.8
	s4.7,1.8,4.9,2s-0.1,0.2-0.1,0.3l0.6,0.4L139.4,31z"/>
<path class="st0" d="M138.8,30.5l-0.6-0.3c-0.1,0.1-0.1,0.1-0.4,0.1c-1.8-1.1-3.9-1.8-6-2c-4-0.4-7.9,0.7-8.2,4.1
	c-0.7,6.9,11.9,3,11.5,7.1c-0.1,1.1-1.5,2.1-5.3,1.7c-2.7-0.3-4.9-1.2-4.8-2.4c0-0.1,0-0.2,0.1-0.3l-0.6-0.4l-2.1,3.3l0.6,0.3
	c0.1-0.1,0.2-0.1,0.3-0.1c0.5,0.1,1.4,1.6,6.6,2.1c5.4,0.5,8.2-1.3,8.5-4.1c0.8-7.5-12.1-3.8-11.7-7.2c0.1-1.3,1.6-2.1,4.9-1.8
	s4.9,1.8,4.9,2.1c0,0.1,0,0.2-0.1,0.3l0.6,0.4L138.8,30.5z"/>
<path class="st1" d="M138.4,29.9l-0.6-0.3c-0.1,0.1-0.2,0.2-0.4,0.1c-1.8-1.1-3.9-1.8-6-2c-4.1-0.4-7.9,0.7-8.3,4.2
	c-0.7,6.9,12,3,11.6,7.1c-0.1,1.1-1.5,2.1-5.3,1.7c-2.7-0.3-5-1.2-4.8-2.4c0-0.1,0-0.2,0.1-0.3l-0.6-0.4l-2.1,3.3l0.6,0.3
	c0.1,0,0.2-0.1,0.3-0.1c0.5,0,1.5,1.6,6.6,2.1c5.4,0.5,8.2-1.3,8.5-4.1c0.8-7.5-12.1-3.7-11.7-7.1c0.1-1.3,1.6-2.1,4.9-1.8
	c3.4,0.3,4.9,1.8,4.9,2.1c0,0.1,0,0.2-0.1,0.3l0.6,0.4L138.4,29.9z"/>
<path class="st1" d="M148.7,35.1l4.4,1.1c0.5,0.2,0.7,0.4,0.6,0.8l0.7,0.2l1-3.5l-0.8-0.2c-0.1,0.3-0.3,0.4-0.8,0.3
	c0,0-4.2-1.1-5.9-1.5c-1.6-0.4-6.2-1.4-6.2-1.4c-0.5-0.1-0.7-0.3-0.6-0.7l-0.7-0.1l-0.7,3.5l0.7,0.1c0.1-0.3,0.3-0.5,0.8-0.4
	l4.4,0.9L142.8,45c-0.1,0.4-0.3,0.6-0.8,0.5l-0.2,0.7l4.2,1l0.2-0.7c-0.5-0.1-0.6-0.4-0.4-0.8L148.7,35.1z"/>
<path class="st0" d="M148.2,34.4l4.4,1.1c0.5,0.2,0.7,0.4,0.6,0.8l0.7,0.2l1.1-3.5l-0.8-0.2c-0.1,0.3-0.3,0.4-0.8,0.3
	c0,0-4.2-1.1-5.9-1.5c-1.6-0.4-6.2-1.4-6.2-1.4c-0.5-0.1-0.7-0.3-0.6-0.6l-0.7-0.1l-0.7,3.4L140,33c0.1-0.3,0.3-0.5,0.8-0.3l4.4,0.9
	l-3,10.7c-0.1,0.4-0.3,0.6-0.8,0.5l-0.2,0.7l4.2,1l0.1-0.7c-0.5-0.1-0.5-0.4-0.4-0.8L148.2,34.4z"/>
<path class="st1" d="M147.7,33.7l4.4,1.1c0.5,0.2,0.7,0.4,0.6,0.8l0.7,0.2l1-3.5l-0.8-0.2c-0.1,0.3-0.3,0.4-0.8,0.3
	c0,0-4.2-1.1-5.9-1.5s-6.2-1.3-6.2-1.3c-0.5-0.1-0.7-0.3-0.6-0.7l-0.7-0.1l-0.7,3.5l0.7,0.1c0.1-0.3,0.3-0.5,0.8-0.3l4.4,0.9
	l-2.9,10.6c-0.1,0.4-0.2,0.7-0.8,0.5l-0.1,0.7l4.2,1l0.2-0.7c-0.5-0.1-0.5-0.4-0.4-0.8L147.7,33.7z"/>
<path class="st1" d="M162.2,38.4c2.9,1.1,4.5,3.7,3.3,6.9s-4.3,4.1-7.2,3s-4.5-3.7-3.3-6.9S159.3,37.3,162.2,38.4L162.2,38.4z
	 M163.1,36.1c-4.4-1.6-9-0.4-10.8,4.3c-1.8,4.7,0.7,8.6,5.1,10.2s8.9,0.4,10.8-4.3S167.5,37.7,163.1,36.1z"/>
<path class="st0" d="M161.9,37.7c2.9,1.1,4.5,3.7,3.3,6.9s-4.3,4.1-7.2,3s-4.6-3.7-3.3-6.9S159,36.6,161.9,37.7L161.9,37.7z
	 M162.8,35.4c-4.4-1.6-8.9-0.4-10.8,4.3c-1.8,4.7,0.6,8.6,5,10.2s8.9,0.4,10.8-4.3S167.1,37,162.8,35.4z"/>
<path class="st1" d="M161.5,37.1c2.9,1.1,4.6,3.7,3.3,6.9s-4.3,4.1-7.2,3s-4.5-3.7-3.3-6.9S158.6,36,161.5,37.1L161.5,37.1z
	 M162.4,34.8c-4.4-1.6-8.9-0.4-10.8,4.3c-1.9,4.7,0.7,8.6,5.1,10.2s8.9,0.4,10.8-4.3S166.8,36.4,162.4,34.8z"/>
<path class="st1" d="M175.2,44.8c0,0,1.9,0.9,2.9,1.4s2.7,1.5,2.7,1.5c1.5,0.9,1.8,1.4,1.2,2.5c-0.6,1.2-1.2,1.3-2.7,0.6
	c0,0-1.6-0.9-2.7-1.4s-3-1.5-3-1.5L175.2,44.8L175.2,44.8z M172.4,50.1c0,0,1.9,0.9,3,1.5s2.4,1.1,2.4,1.1c3.3,1.6,5.1,0.6,6.3-1.6
	s0.4-4.4-2.5-5.9c0,0-2.7-1.3-3.8-1.9s-4.7-2.3-4.7-2.3l-0.3,0.6c0.5,0.2,0.5,0.4,0.3,0.8l-5.8,11c-0.2,0.4-0.4,0.6-0.9,0.3
	l-0.3,0.6l3.7,1.8l0.3-0.7c-0.4-0.2-0.4-0.4-0.2-0.8L172.4,50.1z"/>
<path class="st0" d="M174.7,43.9c0,0,1.9,0.9,2.9,1.4s2.8,1.5,2.8,1.5c1.4,0.9,1.8,1.5,1.2,2.5c-0.6,1.2-1.2,1.3-2.7,0.6
	c0,0-1.6-0.9-2.7-1.4s-3-1.5-3-1.5L174.7,43.9L174.7,43.9z M172,49.1c0,0,1.9,0.9,3,1.5l2.6,1.4c3.3,1.6,5,0.7,6.3-1.5
	s0.5-4.4-2.5-5.9l-4-2.1c-1.1-0.6-4.7-2.3-4.7-2.3l-0.3,0.6c0.4,0.2,0.4,0.4,0.2,0.8l-5.8,11c-0.2,0.4-0.4,0.5-0.9,0.3l-0.3,0.6
	l3.7,1.8l0.3-0.6c-0.5-0.2-0.5-0.4-0.2-0.8L172,49.1z"/>
<path class="st1" d="M174.4,43.2c0,0,1.9,0.9,2.9,1.4s2.8,1.5,2.8,1.5c1.4,0.9,1.8,1.5,1.2,2.5c-0.6,1.2-1.3,1.3-2.7,0.6
	c0,0-1.6-0.9-2.7-1.5l-3-1.5L174.4,43.2L174.4,43.2z M171.7,48.4c0,0,1.9,0.9,3,1.5s2.7,1.4,2.7,1.4c3.3,1.6,5,0.7,6.3-1.5
	s0.4-4.4-2.5-5.9l-4.1-2.2c-1.1-0.6-4.7-2.3-4.7-2.3l-0.3,0.6c0.4,0.2,0.4,0.4,0.2,0.8l-5.8,11c-0.2,0.4-0.4,0.5-0.9,0.3l-0.3,0.7
	l3.7,1.8l0.3-0.6c-0.4-0.2-0.4-0.4-0.2-0.8L171.7,48.4z"/>
<path class="st1" d="M64.4,39.1l0.3,0.6c0.2-0.1,0.3,0,0.4,0.2c0.1,0.2,0.1,0.4,0.1,0.6l1.6,7.9l0,0l-5.6-6.1
	c-0.1-0.1-0.3-0.3-0.4-0.5c-0.1-0.1-0.1-0.3,0.1-0.4l-0.3-0.6l-3.8,1.9l0.3,0.6c0.2-0.1,0.3,0,0.4,0.2c0.1,0.2,0.1,0.4,0.1,0.6
	l1.4,8.1l0,0L54,46.1c-0.1-0.1-0.3-0.3-0.4-0.4c-0.1-0.2-0.1-0.4,0.1-0.5l-0.3-0.6l-3.8,2.2l0.4,0.6c0.3-0.1,0.3-0.2,0.9,0.4
	l7.6,8.6c0.3,0.3,0.5,0.5,0.7,0.9c0.1,0.1,0.2,0.3-0.1,0.4l0.3,0.7l3.7-2l-0.3-0.7c-0.3,0.1-0.3-0.2-0.4-0.4s-0.1-0.6-0.2-0.8
	l-1.5-8.5l0,0l5.9,6.6c0.2,0.2,0.3,0.4,0.5,0.6c0.1,0.1,0.1,0.3,0,0.4l0.3,0.7l3.8-1.7l-0.3-0.7c-0.1,0.1-0.3,0-0.4-0.1
	c0,0,0,0,0-0.1c-0.1-0.3-0.2-0.7-0.2-1L68,39.5c-0.2-0.9-0.1-1,0.1-1.2l-0.2-0.7L64.4,39.1z"/>
<path class="st0" d="M63.7,38.8l0.3,0.7c0.2-0.1,0.3-0.1,0.4,0.2c0.1,0.2,0.1,0.4,0.1,0.6l1.7,8.4l0,0l-5.9-6.5
	c-0.1-0.1-0.3-0.3-0.4-0.5c-0.1-0.1-0.2-0.3,0.1-0.4l-0.3-0.6l-3.5,1.8l0.3,0.6c0.2-0.1,0.3,0,0.4,0.2c0.1,0.2,0.1,0.4,0.2,0.6
	l1.6,8.7l0,0L53,45.9c-0.1-0.1-0.2-0.3-0.4-0.4c-0.1-0.2-0.1-0.3,0.1-0.5l-0.3-0.6l-3.6,2.1l0.4,0.6c0.3-0.1,0.3-0.2,0.9,0.4
	l7.6,8.6c0.3,0.3,0.5,0.5,0.7,0.8c0.1,0.1,0.2,0.3-0.1,0.4l0.3,0.7l3.7-2l-0.3-0.7c-0.2,0.1-0.3-0.2-0.3-0.4s-0.1-0.6-0.2-0.7
	l-1.5-8.5l0,0l5.9,6.6c0.2,0.2,0.3,0.4,0.5,0.6c0.1,0.1,0.1,0.3,0,0.4l0.3,0.7l3.7-1.7L70,51.7c-0.2,0.1-0.3,0-0.4-0.2
	c-0.1-0.3-0.2-0.7-0.2-1l-2.2-11.1c-0.2-0.9-0.1-1,0.1-1.2l-0.3-0.7L63.7,38.8z"/>
<path class="st1" d="M63,38.4l0.3,0.7c0.2-0.1,0.3,0,0.4,0.1c0.1,0.2,0.1,0.4,0.1,0.6l1.9,9l0,0l-6.3-7c-0.1-0.1-0.3-0.3-0.4-0.5
	c-0.1-0.1-0.2-0.3,0.1-0.4l-0.3-0.6l-3.3,1.7l0.3,0.6c0.2-0.1,0.3,0,0.4,0.2c0.1,0.2,0.1,0.4,0.1,0.6l1.7,9.2l0,0l-5.9-6.9
	c-0.1-0.1-0.2-0.3-0.4-0.4c-0.1-0.2-0.1-0.4,0.1-0.5l-0.3-0.6L48.2,46l0.4,0.6c0.3-0.1,0.3-0.2,0.9,0.4l7.5,8.9
	c0.3,0.3,0.5,0.6,0.7,0.9c0.1,0.1,0.2,0.3-0.1,0.4l0.3,0.7l3.7-2l-0.3-0.7C61.1,55.3,61,55,61,54.8s0-0.3,0-0.4l-1.7-9l0,0l5.9,6.7
	c0.2,0.2,0.4,0.4,0.5,0.6c0.1,0.1,0.1,0.3-0.1,0.4l0.3,0.6l3.8-1.7l-0.3-0.7c-0.2,0.1-0.3-0.1-0.4-0.2C69,50.9,69,50.6,69,50.3
	l-2.3-11.5c-0.2-0.9-0.1-1,0.1-1.2l-0.3-0.7L63,38.4z"/>
<path class="st0" d="M99.3,55.2c0.5,0.4,0.6,0.3,0.8,0.1l2.2-2.9c0.2-0.2,0.2-0.4-0.2-0.7l0.2-0.2c0.5,0.4,1,0.8,1.5,1.2
	s1.1,0.8,1.6,1.2c-0.3,0.3-0.6,0.8-0.8,1.1l-0.3-0.2c0.5-0.7,0.1-1-0.4-1.5l-0.2-0.2c-0.1-0.1-0.2-0.1-0.3,0l-1,1.4l0.4,0.3
	c0.4,0.3,0.7,0.4,1-0.1l0.2,0.2c-0.2,0.2-0.3,0.4-0.6,0.6s-0.4,0.6-0.5,0.7l-0.2-0.2c0.3-0.5,0.3-0.7-0.2-1l-0.4-0.3l-1.1,1.4
	c-0.1,0.2-0.1,0.3,0.1,0.4l0.2,0.2c0.7,0.5,1.2,0.8,1.8,0.2l0.3,0.2c-0.4,0.3-0.7,0.6-1.1,0.9c-0.5-0.4-1-0.9-1.6-1.3
	s-1.1-0.8-1.7-1.3L99.3,55.2z"/>
<path class="st0" d="M99.1,55.4c0.6,0.4,1.1,0.8,1.7,1.3l0,0c0.5,0.4,1.1,0.8,1.6,1.3l0,0c0.3-0.3,0.7-0.6,1.1-0.9l0,0l-0.2-0.2
	c-0.2,0.2-0.5,0.3-0.8,0.3l0,0c-0.4-0.1-0.8-0.2-1.1-0.5l0,0l-0.2-0.2c-0.1-0.1-0.2-0.2-0.2-0.3l0,0c0-0.1,0-0.1,0.1-0.2l0,0
	l1.1-1.4l0.4,0.3c0.3,0.2,0.4,0.4,0.4,0.6l0,0c0,0.2-0.1,0.3-0.2,0.5l0,0l0.2,0.2c0.2-0.3,0.3-0.5,0.5-0.7l0,0
	c0.2-0.2,0.3-0.4,0.6-0.6l0,0l-0.2-0.2c-0.2,0.2-0.3,0.3-0.5,0.3l0,0c-0.2,0-0.4-0.1-0.5-0.3l0,0l-0.4-0.4l1-1.3
	c0-0.1,0.1-0.1,0.2-0.1l0,0c0.1,0,0.1,0,0.2,0.1l0,0l0.2,0.2c0.4,0.3,0.7,0.6,0.7,0.9l0,0c0,0.2-0.1,0.4-0.3,0.6l0,0l0.2,0.2
	c0.2-0.3,0.5-0.7,0.8-1l0,0c-0.5-0.4-1.1-0.8-1.6-1.2l0,0c-0.5-0.4-1-0.8-1.5-1.2l0,0l-0.2,0.2c0.3,0.2,0.4,0.3,0.4,0.5l0,0
	c0,0.1,0,0.2-0.1,0.3l0,0l-2.2,2.9c-0.1,0.1-0.2,0.2-0.3,0.2l0,0c-0.2,0-0.4-0.1-0.5-0.3l0,0L99.1,55.4L99.1,55.4z M100.8,56.8
	l-1.7-1.3l0,0l0.2-0.2l0,0l0,0c0.1,0.1,0.3,0.2,0.5,0.3l0,0c0.1,0,0.2-0.1,0.3-0.2l0,0l2.2-2.8c0.1-0.1,0.1-0.2,0.1-0.3l0,0
	c0-0.1-0.1-0.2-0.3-0.4l0,0l0.2-0.2c0.5,0.4,1,0.8,1.5,1.2l0,0c0.5,0.4,1,0.8,1.6,1.2l0,0c-0.3,0.3-0.6,0.8-0.8,1.1l0,0l-0.3-0.3
	c0.1-0.2,0.2-0.4,0.2-0.6l0,0c0-0.3-0.3-0.6-0.7-0.9l0,0l-0.2-0.2c0,0-0.1-0.1-0.2-0.1l0,0c0,0-0.1,0-0.1,0.1l0,0l-1,1.3l0.4,0.4
	c0.1,0.1,0.3,0.2,0.5,0.2l0,0c0.2,0,0.3-0.1,0.5-0.3l0,0l0.2,0.2c-0.1,0.2-0.3,0.4-0.5,0.6l0,0c-0.2,0.3-0.4,0.5-0.5,0.7l0,0
	l-0.2-0.2c0.1-0.1,0.2-0.3,0.2-0.5l0,0c0-0.2-0.1-0.3-0.4-0.5l0,0l-0.4-0.3l-1.1,1.4c0,0-0.1,0.1-0.1,0.1l0,0c0,0.1,0,0.1,0.1,0.2
	l0,0l0.3,0.2c0.3,0.3,0.7,0.5,1.1,0.5l0,0c0.3,0,0.6-0.1,0.8-0.3l0,0l0.3,0.2c-0.4,0.3-0.7,0.6-1.1,0.9l0,0
	C101.8,57.6,101.4,57.2,100.8,56.8L100.8,56.8z"/>
<path class="st0" d="M103.8,58.6c0.4,0.2,1,0.1,1.3-0.2l1.5-0.9l-0.4-2.4c-0.1-0.3-0.2-0.4-0.5-0.6l0.1-0.3l1.2,0.6
	c0.4,0.2,0.9,0.4,1.2,0.5l-0.1,0.3l-0.1-0.1c-0.2-0.1-0.3-0.1-0.4,0c0,0.1,0,0.3,0,0.4l0.1,1.3l1.1-0.7c0.1-0.1,0.2-0.2,0.3-0.3
	c0.1-0.1-0.1-0.2-0.2-0.3h-0.1l0.1-0.3c0.3,0.2,0.6,0.3,0.9,0.4s0.5,0.2,0.7,0.3l-0.1,0.3c-0.3-0.2-0.7-0.2-0.9,0l-1.7,1l0.3,2.3
	c0.1,0.6,0.1,0.6,0.6,0.9l-0.1,0.3c-0.4-0.2-0.8-0.4-1.3-0.6l-1.2-0.5l0.1-0.3l0.1,0.1c0.2,0.1,0.4,0.2,0.4,0c0-0.1,0-0.3,0-0.4
	l-0.2-1.5l-1.4,0.8c-0.2,0.1-0.2,0.2-0.3,0.2s0.3,0.3,0.4,0.4l-0.1,0.3c-0.2-0.1-0.5-0.3-0.7-0.4s-0.6-0.3-1-0.4L103.8,58.6z"/>
<path class="st0" d="M106.2,60l1.2,0.5l0,0c0.4,0.2,0.8,0.4,1.2,0.6l0,0l0.1-0.2c-0.4-0.1-0.7-0.5-0.6-0.9l0,0l-0.3-2.3l1.7-1
	c0.1-0.1,0.3-0.2,0.5-0.2l0,0c0.2,0,0.3,0.1,0.4,0.1l0,0l0.1-0.2c-0.2-0.1-0.5-0.2-0.7-0.3l0,0c-0.3-0.1-0.6-0.3-0.8-0.4l0,0
	l-0.2,0.2h0.1c0.1,0.1,0.3,0.1,0.3,0.2l0,0v0.1c-0.1,0.1-0.2,0.2-0.3,0.3l0,0l-1.2,0.7l-0.1-1.3c0-0.1,0-0.2,0-0.2l0,0
	c0,0,0-0.1,0-0.1l0,0c0-0.1,0.1-0.1,0.1-0.1c0,0,0,0,0,0l0,0c0.1,0,0.2,0.1,0.3,0.1l0,0l0.1,0.1l0.1-0.2c-0.3-0.1-0.8-0.3-1.2-0.5
	l0,0c-0.5-0.2-0.9-0.4-1.2-0.6l0,0l-0.1,0.2c0.3,0.1,0.5,0.3,0.6,0.6l0,0l0.4,2.4l-1.5,0.9c-0.3,0.2-0.6,0.3-0.9,0.3l0,0
	c-0.1,0-0.3,0-0.4-0.1l0,0l-0.1,0.2l1,0.4l0,0c0.2,0.1,0.5,0.2,0.7,0.4l0,0l0.1-0.2c-0.1,0-0.4-0.2-0.4-0.4l0,0l0,0
	c0.1-0.1,0.2-0.2,0.3-0.2l0,0l1.4-0.8l0.2,1.5c0,0.1,0,0.2,0,0.3l0,0c0,0.1,0,0.1,0,0.2l0,0c0,0-0.1,0.1-0.2,0.1l0,0
	c-0.1,0-0.2,0-0.3-0.1l0,0l-0.1-0.1L106.2,60L106.2,60z M107.4,60.5c-0.4-0.2-0.8-0.3-1.2-0.5l0,0l0.2-0.3l0.1,0.1
	c0.1,0,0.2,0.1,0.3,0.1l0,0c0,0,0.1,0,0.1,0l0,0c0,0,0-0.1,0-0.1l0,0c0-0.1,0-0.1,0-0.3l0,0l-0.1-1.4l-1.4,0.8
	c-0.2,0.1-0.2,0.2-0.2,0.2l0,0c0,0.1,0.3,0.3,0.4,0.4l0,0l-0.2,0.3l-0.7-0.4l0,0c-0.3-0.1-0.7-0.3-1-0.4l0,0l0.1-0.3l0,0l0,0
	c0.1,0.1,0.3,0.1,0.4,0.1l0,0c0.3,0,0.6-0.1,0.9-0.3l0,0l1.5-0.9l-0.4-2.4c-0.1-0.3-0.2-0.4-0.5-0.6l0,0l0.2-0.3
	c0.3,0.1,0.7,0.4,1.2,0.6l0,0c0.4,0.2,0.9,0.4,1.3,0.6l0,0l-0.2,0.3l-0.1-0.1c-0.1,0-0.2-0.1-0.3-0.1l0,0c-0.1,0-0.1,0-0.1,0l0,0
	c0,0,0,0.1,0,0.1l0,0c0,0.1,0,0.2,0,0.2l0,0l0.1,1.3l1.1-0.7c0.1-0.1,0.2-0.1,0.3-0.3l0,0c0-0.1-0.1-0.1-0.2-0.2l0,0l-0.1-0.1
	l0.2-0.3c0.3,0.2,0.6,0.3,0.9,0.4l0,0c0.2,0.1,0.5,0.2,0.7,0.3l0,0l-0.2,0.3c-0.1-0.1-0.3-0.1-0.4-0.1l0,0c-0.2,0-0.3,0.1-0.5,0.2
	l0,0l-1.6,1l0.3,2.3c0.1,0.5,0.1,0.6,0.6,0.9l0,0l-0.2,0.3C108.2,61,107.8,60.8,107.4,60.5L107.4,60.5z"/>
<path class="st0" d="M112.3,59.9c0.2,0.1,0.4,0.1,0.7,0.2c1.1,0.2,2.1,0,2.3-1.3s-1.1-1.7-1.7-1.8s-0.9-0.1-1.3-0.2
	s-0.8-0.2-1.3-0.3v0.3c0.6,0.1,0.6,0.3,0.6,0.6l-0.6,3.5c-0.1,0.3-0.1,0.4-0.8,0.3l-0.1,0.3l1.3,0.2c0.5,0.1,0.9,0.2,1.4,0.3
	l0.1-0.3l-0.3-0.1c-0.5-0.1-0.5-0.3-0.4-0.5L112.3,59.9z M112.7,57.5c0-0.2,0.3-0.2,0.5-0.2c0.8,0.1,1,0.6,0.8,1.4c0,0.6-0.5,1-1,1
	c-0.1,0-0.2,0-0.3-0.1c-0.1,0-0.3-0.1-0.4-0.1L112.7,57.5z"/>
<path class="st0" d="M112.4,59.5c0.1,0.1,0.3,0.1,0.4,0.1l0,0h0.2l0,0c0.5,0,1-0.4,1.1-0.9l0,0c0-0.1,0-0.2,0-0.3l0,0
	c0.1-0.5-0.3-0.9-0.8-1c0,0,0,0-0.1,0l0,0c-0.1,0-0.1,0-0.2,0l0,0c-0.2,0-0.2,0-0.3,0.2l0,0L112.4,59.5L112.4,59.5z M112.8,59.6
	c-0.1,0-0.3-0.1-0.4-0.1l0,0l0.4-2c0-0.1,0.2-0.2,0.3-0.2l0,0c0.1,0,0.1,0,0.2,0l0,0c0.5,0.1,0.9,0.5,0.9,1l0,0c0,0.1,0,0.2,0,0.3
	l0,0c0,0.6-0.5,1-1.1,1c0,0,0,0,0,0l0,0L112.8,59.6L112.8,59.6z M110,61.5L110,61.5l0.1-0.3l0,0c0.1,0,0.2,0.1,0.4,0.1l0,0
	c0.3,0,0.4-0.1,0.4-0.4l0.6-3.5l0,0c0-0.1,0-0.1,0-0.1l0,0c0-0.2-0.1-0.3-0.6-0.4l0.1-0.3l0,0c0.4,0.1,0.8,0.2,1.2,0.3l0,0
	c0.5,0.1,0.9,0.1,1.3,0.2l0,0c0.5,0.1,1.7,0.3,1.7,1.4l0,0c0,0.1,0,0.2,0,0.3l0,0c-0.1,0.8-0.8,1.4-1.6,1.3c0,0,0,0-0.1,0l0,0
	c-0.2,0-0.4,0-0.6-0.1l0,0l-0.7-0.1l0,0l0,0l-0.2,1.3l0,0c0,0.1,0,0.1,0,0.2l0,0c0,0.2,0.1,0.3,0.5,0.4h0.3l-0.1,0.3l0,0
	c-0.5-0.1-0.9-0.2-1.4-0.3l0,0C111,61.6,110.6,61.5,110,61.5L110,61.5z M111.3,61.7c-0.4-0.1-0.8-0.1-1.3-0.2l0,0l0.1-0.3h0.4l0,0
	c0.3,0,0.3-0.1,0.4-0.3l0,0l0.6-3.5c0-0.1,0-0.1,0-0.1l0,0c0-0.2-0.1-0.3-0.6-0.4l0,0l0.1-0.3c0.4,0.1,0.8,0.2,1.3,0.3l0,0
	c0.5,0.1,0.8,0.1,1.3,0.2l0,0c0.5,0.1,1.7,0.3,1.7,1.5l0,0c0,0.1,0,0.2,0,0.3l0,0c-0.1,0.8-0.8,1.4-1.6,1.4c0,0,0,0-0.1,0l0,0
	c-0.2,0-0.4,0-0.6-0.1l0,0c-0.2,0-0.4-0.1-0.6-0.1l0,0l-0.2,1.2c0,0.1,0,0.1,0,0.2l0,0c0,0.1,0.1,0.2,0.5,0.3l0,0l0.3,0.1l-0.1,0.3
	C112.3,61.9,111.9,61.8,111.3,61.7L111.3,61.7z"/>
<path class="st0" d="M116,62.1c0.6,0,0.7-0.2,0.7-0.5l-0.1-3.6c0-0.3-0.1-0.4-0.6-0.4v-0.3c0.6,0,1.3,0,1.9,0s1.3-0.1,2-0.1
	c0,0.4,0.1,1,0.1,1.3h-0.4c-0.1-0.9-0.6-0.9-1.3-0.9H118c-0.2,0-0.2,0.1-0.2,0.2l0.1,1.7h0.6c0.6,0,0.8-0.2,0.7-0.7h0.3
	c0,0.2,0,0.5,0,0.9s0,0.7,0.1,0.9h-0.3c0-0.6-0.2-0.7-0.8-0.7h-0.6v1.8c0,0.2,0.1,0.3,0.3,0.3h0.3c0.8,0,1.4-0.2,1.6-1h0.3
	c-0.1,0.5-0.2,0.9-0.2,1.4c-0.7,0-1.4,0-2.1,0s-1.4,0.1-2.1,0.1L116,62.1z"/>
<path class="st0" d="M116,62.4l2.1-0.1l0,0c0.7,0,1.4,0,2,0l0,0c0-0.5,0.1-0.9,0.3-1.4l0,0h-0.3c-0.2,0.9-0.8,1-1.6,1h-0.4
	c-0.1,0-0.3-0.1-0.3-0.2c0,0,0,0,0,0l0,0v-1.8h0.7c0.5,0,0.7,0.2,0.6,0.7h0.3c0-0.2-0.1-0.6-0.1-0.9l0,0c0-0.2,0-0.3,0-0.5l0,0
	c0-0.1,0-0.2,0-0.3h-0.3c0,0,0,0.1,0,0.1l0,0c0,0.5-0.2,0.6-0.8,0.6h-0.6l-0.1-1.7l0,0c0-0.1,0.1-0.2,0.2-0.2h0.3c0.1,0,0.2,0,0.4,0
	l0,0c0.5,0,0.9,0.2,0.9,0.9h0.3c-0.1-0.4-0.1-0.8-0.1-1.3l0,0c-0.7,0-1.3,0.1-2,0.1l0,0c-0.7,0-1.3,0-1.9,0l0,0v0.3h0.1
	c0.5,0,0.6,0.2,0.6,0.5l0,0l0.1,3.6v0.1c0,0.3-0.1,0.4-0.7,0.4l0,0L116,62.4L116,62.4z M116,62.1L116,62.1L116,62.1
	c0.6,0,0.6-0.1,0.6-0.4l0,0c0,0,0,0,0-0.1l0,0l-0.1-3.6c0-0.3,0-0.4-0.5-0.4l0,0c0,0-0.1,0-0.1,0l0,0v-0.3c0.7,0,1.3,0,1.9,0l0,0
	c0.7,0,1.3-0.1,2-0.1l0,0c0,0.4,0.1,0.9,0.1,1.3h-0.4c-0.1-0.7-0.4-0.8-0.9-0.9H118c-0.2,0-0.2,0-0.2,0.2l0,0l0,0l0,0v1.7h0.6
	c0.5,0,0.7-0.1,0.7-0.6l0,0c0,0,0-0.1,0-0.1l0,0h0.3c0,0.1,0,0.2,0,0.3l0,0c0,0.1,0,0.3,0,0.5l0,0c0,0.3,0,0.7,0.1,0.9l0,0h-0.3
	c0-0.5-0.2-0.6-0.6-0.7h-0.1h-0.5l0.1,1.8c0,0.2,0.1,0.2,0.2,0.3l0,0h0.1h0.3c0.8,0,1.4-0.1,1.6-1l0,0h0.4c-0.1,0.5-0.2,0.9-0.2,1.4
	l0,0h-2.1l0,0c-0.7,0-1.4,0.1-2.1,0.1l0,0L116,62.1L116,62.1z"/>
<path class="st0" d="M123,59.5l0.4-0.1c0.2,0,0.3,0,1.3,1.1c0.4,0.5,0.7,0.7,0.9,0.7l1.3-0.3l-0.1-0.3c-0.3,0.1-0.4,0-1.1-0.7
	c-0.3-0.5-0.9-0.8-1.4-0.9l0,0c0.7-0.3,1-1,0.8-1.7c-0.3-1-1.2-0.9-2-0.7c-0.4,0.1-0.8,0.3-1.3,0.4s-0.8,0.2-1.2,0.3l0.1,0.3
	c0.6-0.1,0.6,0,0.7,0.3l0.9,3.5c0.1,0.3,0.1,0.4-0.4,0.6l0.1,0.3c0.3-0.1,0.7-0.2,1.1-0.3s0.8-0.2,1.1-0.3l-0.1-0.3
	c-0.5,0.1-0.6,0-0.7-0.3L123,59.5L123,59.5z M122.3,57.1l0.4-0.1c0.6-0.2,1,0.1,1.2,0.8c0.2,0.4,0,1-0.4,1.2c-0.1,0-0.2,0.1-0.2,0.1
	l-0.4,0.1L122.3,57.1z"/>
<path class="st0" d="M122.9,59.1l0.4-0.1c0.4-0.1,0.7-0.4,0.7-0.8l0,0c0-0.1,0-0.3-0.1-0.4l0,0c-0.1-0.5-0.4-0.8-0.8-0.8l0,0
	c-0.1,0-0.2,0-0.4,0.1l0,0l-0.4,0.1L122.9,59.1L122.9,59.1z M122.3,57.1L122.3,57.1L122.3,57.1l0.4-0.1c0.1,0,0.2,0,0.4-0.1l0,0
	c0.4,0,0.7,0.3,0.9,0.8l0,0c0,0.1,0.1,0.3,0.1,0.4l0,0c0,0.4-0.3,0.8-0.7,0.8l0,0l-0.5,0.1L122.3,57.1L122.3,57.1z M121.3,57.7
	L121.3,57.7c0-0.2-0.1-0.3-0.4-0.3l0,0c-0.1,0-0.3,0-0.4,0.1l-0.1-0.3l0,0c0.4-0.1,0.8-0.1,1.2-0.2l0,0c0.5-0.1,0.9-0.3,1.4-0.4l0,0
	c0.3-0.1,0.6-0.1,0.9-0.1l0,0c0.5,0,1,0.3,1.1,0.8l0,0c0,0.1,0,0.3,0,0.4l0,0c0,0.5-0.4,1-0.9,1.3v0l0,0c0.6,0.1,1.1,0.5,1.4,0.9
	l0,0c0.6,0.6,0.8,0.8,1,0.8l0,0h0.2v0.3l-1.3,0.2l0,0c-0.2,0-0.4-0.3-0.8-0.7l0,0c-0.8-0.9-1-1.1-1.2-1.1l0,0c0,0-0.1,0-0.1,0
	l-0.4,0.1l0,0l0,0l0.3,1.5l0,0c0.1,0.2,0.1,0.3,0.4,0.3l0,0c0.1,0,0.2,0,0.4,0v0.3l0,0c-0.4,0.1-0.8,0.1-1.1,0.2l0,0l-1.1,0.3v-0.3
	l0,0c0.3-0.1,0.5-0.2,0.5-0.4l0,0c0-0.1,0-0.1,0-0.2L121.3,57.7L121.3,57.7z M121.8,61.7c0.3-0.1,0.4-0.2,0.4-0.3l0,0
	c0-0.1,0-0.1,0-0.2l0,0l-0.9-3.5c-0.1-0.2-0.1-0.3-0.3-0.3l0,0c-0.1,0-0.2,0-0.4,0l0,0l-0.1-0.3c0.4-0.1,0.8-0.2,1.2-0.3l0,0
	c0.5-0.1,0.9-0.3,1.3-0.4l0,0c0.3-0.1,0.6-0.1,0.9-0.1l0,0c0.5,0,1,0.3,1.2,0.8l0,0c0,0.1,0.1,0.3,0.1,0.4l0,0
	c0,0.6-0.4,1.1-0.9,1.3l0,0c0.6,0.1,1.1,0.5,1.4,0.9l0,0c0.6,0.6,0.8,0.7,0.9,0.7h0.2v0.3l-1.3,0.3l0,0c-0.2,0-0.5-0.3-0.9-0.7l0,0
	c-0.8-0.9-1-1.1-1.1-1.1h-0.1l-0.4,0.1l0.4,1.4c0,0.2,0.1,0.3,0.3,0.3l0,0h0.4l0,0v0.3c-0.4,0.1-0.8,0.2-1.1,0.3l0,0
	c-0.4,0.1-0.8,0.2-1.1,0.3l0,0L121.8,61.7L121.8,61.7z"/>
<path class="st0" d="M126.8,55.6l-0.3,0.1c-0.4,0.1-0.7,0.6-0.6,1c0,0.1,0,0.1,0.1,0.2l-0.3,0.2l-0.5-1.2l2-0.9l1.9-1l0.6,1.1
	l-0.3,0.1c-0.2-0.4-0.7-0.6-1.1-0.4c0,0-0.1,0-0.1,0.1L128,55l1.8,3.5c0.1,0.3,0.2,0.4,0.8,0.1l0.1,0.3c-0.4,0.2-0.8,0.4-1.2,0.6
	s-0.7,0.4-1.1,0.6l-0.1-0.3c0.6-0.3,0.5-0.4,0.4-0.7L126.8,55.6z"/>
<path class="st0" d="M128.6,59c0,0.1,0.1,0.2,0.1,0.3l0,0c0,0.2-0.1,0.3-0.5,0.4l0,0l0.1,0.2c0.4-0.2,0.8-0.4,1.1-0.6l0,0
	c0.4-0.2,0.8-0.4,1.1-0.5l0,0l-0.1-0.2c-0.2,0.1-0.3,0.1-0.5,0.2l0,0c-0.2,0-0.3-0.1-0.3-0.3l0,0l-1.8-3.5l0.2-0.1
	c0.2-0.1,0.4-0.2,0.6-0.2l0,0c0.3,0,0.6,0.2,0.7,0.5l0,0l0.3-0.1l-0.6-1.1l-1.9,1l0,0c-0.7,0.4-1.3,0.7-1.9,0.9l0,0l0.5,1.1l0.3-0.1
	c-0.1-0.1-0.1-0.3-0.1-0.5l0,0c0-0.4,0.3-0.7,0.6-0.8l0,0l0.3-0.1l0,0l0,0L128.6,59L128.6,59z M128.2,59.7c0.4-0.2,0.5-0.3,0.5-0.4
	l0,0c0-0.1,0-0.2-0.1-0.2l0,0l-1.8-3.5l-0.2,0.1c-0.3,0.2-0.6,0.4-0.6,0.7l0,0c0,0.2,0,0.3,0.1,0.5l0,0l-0.3,0.1l-0.5-1.2
	c0.6-0.3,1.3-0.6,2-0.9l0,0c0.7-0.4,1.3-0.7,1.9-1l0,0l0.6,1.1l-0.3,0.1c-0.1-0.3-0.4-0.4-0.7-0.4l0,0c-0.2,0-0.4,0.1-0.6,0.2l0,0
	L128,55l1.8,3.5c0.1,0.1,0.1,0.2,0.3,0.2l0,0c0.2,0,0.4-0.1,0.5-0.2l0,0l0.1,0.3c-0.4,0.2-0.8,0.4-1.2,0.6l0,0
	c-0.4,0.2-0.7,0.4-1.2,0.6l0,0L128.2,59.7L128.2,59.7z"/>
<path class="st0" d="M133,52.7l-0.3,0.3c-0.4-0.5-0.9-0.8-1.6-0.2c-0.3,0.2-0.4,0.6-0.2,1c0,0,0,0,0,0c0.6,0.8,2.5-1.2,3.6,0.3
	c0.6,0.7,0.5,1.8-0.3,2.4c-0.1,0.1-0.1,0.1-0.2,0.1c-0.5,0.4-1,0.6-1.6,0.7c-0.2-0.3-0.6-0.8-0.9-1.1l0.4-0.3
	c0.5,0.6,1.1,0.9,1.8,0.4c0.4-0.3,0.7-0.8,0.4-1.1c-0.7-0.9-2.5,1-3.7-0.4c-0.6-0.8-0.4-1.6,0.5-2.3c0.4-0.3,0.9-0.6,1.3-0.8
	L133,52.7z"/>
<path class="st0" d="M131.6,56.2c0.3,0.4,0.6,0.7,0.8,1.1l0,0c0.6-0.1,1.1-0.4,1.6-0.7l0,0c0.5-0.4,0.8-0.9,0.9-1.5l0,0
	c0-0.4-0.1-0.7-0.4-1l0,0c-0.3-0.3-0.6-0.5-1.1-0.6l0,0c-0.8,0-1.6,0.5-2.1,0.5l0,0c-0.2,0-0.3-0.1-0.4-0.2l0,0
	c-0.1-0.1-0.2-0.3-0.2-0.4l0,0c0-0.3,0.2-0.5,0.4-0.6l0,0c0.2-0.2,0.4-0.3,0.7-0.3l0,0c0.4,0,0.7,0.2,0.9,0.6l0,0l0.3-0.3l-0.8-1.1
	c-0.5,0.2-0.9,0.5-1.3,0.8l0,0c-0.5,0.3-0.8,0.8-0.8,1.4l0,0c0,0.3,0.1,0.6,0.3,0.9l0,0c0.2,0.3,0.6,0.5,1,0.5l0,0
	c0.7,0,1.5-0.4,2-0.4l0,0c0.2,0,0.4,0.1,0.6,0.3l0,0c0.1,0.1,0.1,0.2,0.1,0.4l0,0c-0.1,0.3-0.2,0.6-0.5,0.8l0,0
	c-0.2,0.2-0.5,0.3-0.7,0.3l0,0c-0.4,0-0.8-0.3-1-0.6l0,0L131.6,56.2L131.6,56.2z M131.6,56.2l0.4-0.3c0.2,0.3,0.6,0.6,1,0.6l0,0
	c0.3,0,0.5-0.1,0.7-0.3l0,0c0.3-0.2,0.4-0.5,0.5-0.8l0,0c0-0.1,0-0.3-0.1-0.4l0,0c-0.1-0.2-0.3-0.3-0.6-0.3l0,0
	c-0.6,0-1.3,0.4-2,0.4l0,0c-0.4,0-0.8-0.2-1.1-0.5l0,0c-0.2-0.3-0.3-0.6-0.3-0.9l0,0c0.1-0.6,0.4-1.1,0.8-1.4l0,0
	c0.4-0.3,0.9-0.6,1.4-0.8l0,0l0.8,1.1l0,0l0,0l-0.4,0.3c-0.2-0.3-0.5-0.5-0.9-0.5l0,0c-0.3,0-0.5,0.1-0.7,0.3l0,0
	c-0.2,0.1-0.3,0.3-0.4,0.6l0,0c0,0.2,0.1,0.3,0.2,0.4l0,0c0.1,0.1,0.2,0.2,0.4,0.2l0,0c0.5,0,1.3-0.5,2.1-0.5l0,0
	c0.4,0,0.8,0.2,1.1,0.6l0,0c0.2,0.3,0.4,0.6,0.4,1l0,0c-0.1,0.6-0.4,1.2-0.9,1.6l0,0c-0.5,0.4-1,0.6-1.6,0.7l0,0
	C132.2,57,131.8,56.5,131.6,56.2L131.6,56.2z"/>
<path class="st0" d="M98.3,17.1L98,17.3c-0.4,0.3-0.5,0.8-0.2,1.2c0,0,0.1,0.1,0.1,0.1l-0.2,0.2l-0.9-0.9c0.5-0.5,1-0.9,1.6-1.5
	s1-1,1.5-1.5l0.9,0.9l-0.2,0.2c-0.3-0.3-0.8-0.4-1.2,0c0,0-0.1,0.1-0.1,0.1l-0.2,0.2l2.7,2.8c0.2,0.2,0.3,0.3,0.8-0.2l0.2,0.2
	c-0.4,0.3-0.7,0.6-1,0.9s-0.6,0.6-0.9,0.9l-0.2-0.2c0.4-0.4,0.4-0.6,0.2-0.8L98.3,17.1z"/>
<path class="st0" d="M101,19.9c0.1,0.1,0.2,0.2,0.2,0.3l0,0c0,0.1-0.1,0.3-0.3,0.5l0,0l0.2,0.2l0.9-0.9l0,0c0.3-0.3,0.6-0.6,1-0.8
	l0,0l-0.2-0.2c-0.3,0.2-0.4,0.3-0.5,0.3l0,0c-0.1,0-0.2-0.1-0.3-0.2l0,0l-2.7-2.8l0.2-0.2c0.2-0.2,0.4-0.4,0.7-0.4l0,0
	c0.2,0,0.4,0.1,0.6,0.3l0,0l0.2-0.2l-0.9-0.9c-0.5,0.5-1,1-1.5,1.6l0,0c-0.6,0.6-1.1,1-1.6,1.5l0,0l0.8,0.9l0.2-0.2
	c-0.2-0.2-0.3-0.4-0.3-0.6l0,0c0-0.3,0.2-0.5,0.4-0.7l0,0l0.2-0.2l0,0L101,19.9L101,19.9z M100.8,20.7c0.2-0.2,0.3-0.4,0.3-0.5l0,0
	c0-0.1-0.1-0.2-0.1-0.3l0,0l-2.7-2.8l-0.2,0.2c-0.2,0.2-0.3,0.4-0.4,0.7l0,0c0,0.2,0.1,0.5,0.3,0.6l0,0l-0.3,0.2l-0.9-1
	c0.5-0.5,1-0.9,1.6-1.5l0,0c0.6-0.5,1-1,1.6-1.5l0,0l0.9,0.9l-0.3,0.2c-0.2-0.2-0.4-0.3-0.6-0.3l0,0c-0.3,0-0.5,0.1-0.7,0.3l0,0
	l-0.2,0.2l2.8,2.8c0.1,0.1,0.2,0.1,0.3,0.2l0,0c0.1,0,0.3-0.1,0.5-0.3l0,0l0.2,0.3c-0.4,0.3-0.7,0.6-1,0.9l0,0
	c-0.3,0.3-0.6,0.6-0.9,0.9l0,0L100.8,20.7L100.8,20.7z"/>
<path class="st0" d="M105.7,13.7l-0.7-1.2c-0.2-0.3-0.3-0.4-0.8-0.1l-0.2-0.3c0.4-0.2,0.7-0.4,1.1-0.6l1-0.7l0.1,0.3
	c-0.5,0.3-0.5,0.4-0.3,0.7l1.8,3.1c0.2,0.3,0.3,0.4,0.8,0.1l0.2,0.3c-0.4,0.2-0.7,0.4-1.1,0.6s-0.7,0.4-1,0.7l-0.2-0.3
	c0.5-0.3,0.4-0.4,0.3-0.7l-0.9-1.5l-1.9,1.1l0.9,1.5c0.1,0.3,0.3,0.3,0.7,0.1l0.2,0.3c-0.4,0.2-0.7,0.4-1.1,0.6s-0.7,0.4-1,0.7
	l-0.1-0.3c0.5-0.3,0.5-0.4,0.3-0.7l-1.8-3.1c-0.2-0.3-0.3-0.3-0.8-0.1l-0.2-0.3c0.4-0.2,0.7-0.4,1.1-0.6s0.7-0.4,1-0.7l0.1,0.3
	c-0.5,0.3-0.5,0.4-0.3,0.7l0.7,1.2L105.7,13.7z"/>
<path class="st0" d="M102,14.2l1.8,3.1c0.1,0.1,0.1,0.2,0.1,0.3l0,0c0,0.1-0.1,0.3-0.4,0.4l0,0l0.1,0.2c0.3-0.2,0.7-0.4,1-0.7l0,0
	c0.3-0.2,0.7-0.4,1.1-0.5l0,0l-0.1-0.3c-0.1,0.1-0.3,0.2-0.5,0.2l0,0c-0.2,0-0.2-0.1-0.3-0.3l0,0l-0.9-1.6l2-1.1l0.9,1.5
	c0.1,0.1,0.1,0.2,0.1,0.3l0,0c0,0.1-0.1,0.3-0.4,0.4l0,0l0.1,0.2l1-0.6l0,0c0.3-0.2,0.7-0.4,1.1-0.6l0,0l-0.1-0.2
	c-0.1,0.1-0.3,0.2-0.5,0.2l0,0c-0.2,0-0.2-0.1-0.3-0.3l0,0l-1.8-3.1c-0.1-0.1-0.1-0.2-0.1-0.3l0,0c0-0.2,0.1-0.3,0.4-0.4l0,0
	l-0.1-0.2c-0.3,0.2-0.7,0.4-1,0.7l0,0c-0.3,0.2-0.7,0.4-1.1,0.5l0,0l0.1,0.3c0.1-0.1,0.3-0.2,0.5-0.2l0,0c0.2,0,0.2,0.1,0.3,0.3l0,0
	l0.7,1.2l0,0l0,0l-2,1.1l-0.7-1.2c-0.1-0.1-0.1-0.2-0.1-0.3l0,0c0-0.2,0.1-0.3,0.4-0.4l0,0l-0.1-0.3c-0.3,0.2-0.7,0.4-1,0.7l0,0
	c-0.3,0.2-0.7,0.4-1.1,0.6l0,0l0.1,0.3c0.1-0.1,0.3-0.2,0.5-0.2l0,0C101.9,13.9,101.9,14,102,14.2L102,14.2z M103.5,17.9
	c0.3-0.2,0.4-0.3,0.4-0.4l0,0c0-0.1,0-0.2-0.1-0.3l0,0l-1.8-3.1c-0.1-0.1-0.2-0.2-0.3-0.2l0,0c-0.2,0-0.3,0.1-0.5,0.2l0,0l-0.1-0.3
	c0.4-0.2,0.7-0.4,1.1-0.6l0,0c0.3-0.2,0.7-0.4,1.1-0.6l0,0l0.1,0.3c-0.3,0.2-0.4,0.3-0.4,0.4l0,0c0,0.1,0,0.2,0.1,0.2l0,0l0.7,1.2
	l1.9-1.1l-0.7-1.2c-0.1-0.2-0.2-0.2-0.3-0.2l0,0c-0.2,0-0.3,0.1-0.5,0.2l0,0l-0.1-0.3l1.1-0.6l0,0c0.3-0.2,0.7-0.4,1.1-0.6l0,0
	l0.2,0.3c-0.3,0.2-0.4,0.3-0.4,0.4l0,0c0,0.1,0,0.2,0.1,0.3l0,0l1.8,3.1c0.1,0.1,0.2,0.2,0.3,0.2l0,0c0.2,0,0.3-0.1,0.5-0.2l0,0
	l0.1,0.3c-0.4,0.2-0.7,0.4-1.1,0.6l0,0c-0.3,0.2-0.7,0.4-1.1,0.7l0,0l-0.1-0.3c0.3-0.2,0.4-0.3,0.4-0.4l0,0c0-0.1,0-0.2-0.1-0.3l0,0
	l-0.8-1.5l-1.9,1.1l0.9,1.5c0.1,0.1,0.1,0.2,0.3,0.2l0,0c0.2,0,0.3-0.1,0.5-0.1l0,0l0.2,0.3c-0.4,0.2-0.7,0.4-1.1,0.6l0,0l-1.1,0.7
	l0,0L103.5,17.9L103.5,17.9z"/>
<path class="st0" d="M109,14.9c0.6-0.2,0.6-0.3,0.5-0.6l-1-3.4c-0.1-0.3-0.2-0.4-0.7-0.3l-0.1-0.3c0.6-0.2,1.3-0.3,1.9-0.5
	s1.3-0.4,1.9-0.6c0.1,0.4,0.3,0.9,0.4,1.2l-0.3,0.1c-0.3-0.8-0.8-0.7-1.5-0.5l-0.3,0.1c-0.2,0-0.2,0.1-0.2,0.3l0.5,1.6l0.6-0.2
	c0.5-0.2,0.7-0.3,0.5-0.8l0.3-0.1c0.1,0.2,0.1,0.5,0.2,0.8c0.1,0.3,0.2,0.6,0.3,0.8l-0.3,0.1c-0.2-0.6-0.4-0.6-0.9-0.5l-0.5,0.2
	l0.5,1.7c0.1,0.2,0.2,0.2,0.4,0.2l0.3-0.1c0.8-0.2,1.3-0.5,1.2-1.4l0.3-0.1c0,0.5,0,0.9,0.1,1.4l-2,0.5l-2,0.6L109,14.9z"/>
<path class="st0" d="M109,15.2c0.7-0.2,1.3-0.4,2-0.6l0,0c0.7-0.2,1.3-0.4,2-0.5l0,0c-0.1-0.5-0.1-0.9-0.1-1.4l0,0l-0.3,0.1
	c0,0.1,0,0.1,0,0.2l0,0c0,0.7-0.6,1-1.3,1.2l0,0l-0.3,0.1h-0.2l0,0c-0.1,0-0.2-0.1-0.3-0.2l0,0l-0.5-1.7l0.5-0.2
	c0.1,0,0.3-0.1,0.4-0.1l0,0c0.3,0,0.4,0.2,0.5,0.6l0,0l0.3-0.1c-0.1-0.3-0.2-0.6-0.3-0.8l0,0c-0.1-0.3-0.1-0.5-0.2-0.8l0,0l-0.3,0.1
	c0,0.1,0,0.2,0.1,0.3l0,0c0,0.3-0.2,0.4-0.6,0.6l0,0l-0.6,0.1l-0.5-1.6c0,0,0-0.1,0-0.1l0,0c0-0.1,0.1-0.2,0.2-0.2l0,0l0.3-0.1
	c0.2-0.1,0.5-0.2,0.8-0.2l0,0c0.3,0,0.6,0.2,0.7,0.7l0,0h0.3c-0.2-0.4-0.3-0.8-0.4-1.2l0,0l-1.9,0.6l0,0c-0.6,0.2-1.3,0.3-1.9,0.5
	l0,0l0.1,0.3c0.1,0,0.3-0.1,0.4-0.1l0,0c0.2,0,0.3,0.2,0.3,0.3l0,0l1,3.5c0,0.1,0,0.2,0,0.2l0,0c0,0.2-0.1,0.3-0.6,0.4l0,0L109,15.2
	L109,15.2z M108.9,14.9L108.9,14.9L108.9,14.9c0.4-0.1,0.5-0.3,0.5-0.4l0,0c0-0.1,0-0.1,0-0.2l0,0l-1-3.4c-0.1-0.2-0.1-0.3-0.3-0.3
	l0,0c-0.1,0-0.3,0-0.4,0l0,0l-0.1-0.3c0.6-0.2,1.3-0.3,1.9-0.5l0,0l1.9-0.6l0,0c0.1,0.4,0.3,0.9,0.4,1.3l0,0l-0.4,0.1
	c-0.2-0.5-0.4-0.6-0.7-0.7l0,0c-0.3,0-0.5,0.1-0.7,0.2l0,0l-0.3,0.1c-0.1,0-0.2,0.1-0.2,0.1l0,0c0,0,0,0.1,0,0.1l0,0l0.4,1.6
	l0.5-0.2c0.4-0.1,0.6-0.2,0.6-0.5l0,0c0-0.1,0-0.2,0-0.4l0,0l0.3-0.1c0,0.2,0.1,0.5,0.2,0.8l0,0l0.3,0.9l0,0l-0.3,0.1
	c-0.1-0.4-0.3-0.5-0.5-0.5l0,0c-0.1,0-0.3,0-0.4,0.1l0,0l-0.5,0.1l0.5,1.7c0,0.1,0.1,0.2,0.2,0.2l0,0h0.1l0,0l0.3-0.1
	c0.7-0.2,1.2-0.4,1.2-1.2l0,0c0-0.1,0-0.1,0-0.2l0,0l0.4-0.1c0,0.5,0.1,0.9,0.1,1.4l0,0l-2,0.5l0,0c-0.7,0.2-1.3,0.4-2.1,0.6l0,0
	L108.9,14.9L108.9,14.9z"/>
<path class="st0" d="M115.8,8.5c0.4,0,0.7,0.1,1.1,0.1s0.7,0,1,0v0.3h-0.1c-0.2,0-0.2,0.1-0.2,0.2c0,0.1,0,0.3,0.1,0.4l0.6,2.9l0,0
	l1-2.3L119,9.4C119,9,118.9,9,118.6,9h-0.2V8.7c0.3,0,0.7,0.1,1.1,0.1s0.8,0,1.2,0.1v0.3h-0.1c-0.3,0-0.4,0-0.4,0.2
	c0,0.2,0,0.3,0.1,0.5l0.4,2.9l0,0l1.2-2.8c0.1-0.1,0.1-0.3,0.1-0.4c0-0.2-0.1-0.2-0.4-0.2h-0.2V9l0.8,0.1c0.2,0,0.5,0,0.7,0v0.3
	c-0.3,0-0.5,0.2-0.6,0.5l-1.8,4.1l-0.8-0.1l-0.6-3l0,0l-1.2,2.8l-0.8-0.1l-1-4.4c-0.1-0.5-0.2-0.6-0.5-0.6L115.8,8.5z"/>
<path class="st0" d="M119.3,10.9l0.5,3l0.8,0.1l1.8-4.1c0.1-0.3,0.3-0.6,0.6-0.6l0,0V9.1h-0.5h-0.3l0,0c-0.3,0-0.5-0.1-0.8-0.1l0,0
	v0.3h0.2c0.2,0,0.4,0.1,0.4,0.2l0,0c0,0.2-0.1,0.3-0.1,0.4l0,0l-1.3,2.9l0,0l-0.4-2.9c0-0.2-0.1-0.3-0.1-0.5l0,0l0,0l0,0
	c0-0.2,0.2-0.2,0.4-0.2l0,0h0.1V8.9h-1.2l0,0c-0.4,0-0.7-0.1-1.1-0.2l0,0L118.3,9h0.2c0.3,0,0.4,0.1,0.4,0.4l0,0l0.1,0.7l-1,2.3l0,0
	l-0.6-2.9c0-0.1-0.1-0.3-0.1-0.4l0,0c0-0.1,0-0.2,0.2-0.2l0,0h0.1V8.7c-0.3,0-0.7,0-1,0l0,0l-1-0.1l0,0v0.3c0.4,0,0.4,0.1,0.6,0.6
	l0,0l1,4.3l0.8,0.1L119.3,10.9L119.3,10.9z M119.8,13.9l-0.5-2.9l-1.2,2.8l-0.8-0.1l-1-4.4c-0.1-0.5-0.1-0.5-0.5-0.6l0,0V8.4l0,0
	l0,0c0.4,0,0.7,0.1,1.1,0.1l0,0c0.3,0,0.7,0,1,0.1l0,0l-0.1,0.3h-0.1c-0.2,0-0.2,0.1-0.2,0.2l0,0c0,0.1,0,0.3,0.1,0.4l0,0l0.6,2.9
	l0.9-2.3l-0.1-0.7c-0.1-0.4-0.1-0.4-0.4-0.4l0,0l-0.2-0.1l0.1-0.3c0.4,0,0.7,0.1,1.1,0.1l0,0c0.4,0,0.8,0,1.2,0.1l0,0v0.3h-0.2
	c-0.2,0-0.3,0-0.3,0.2l0,0c0,0.2,0,0.3,0,0.5l0,0l0.4,2.9l1.3-2.8c0.1-0.1,0.1-0.3,0.1-0.4l0,0l0,0c0-0.1-0.1-0.2-0.3-0.2l0,0h-0.2
	V9c0.3,0,0.6,0.1,0.8,0.1h0.3c0.2,0,0.3,0,0.5,0l0,0v0.3l0,0c-0.3,0-0.4,0.2-0.6,0.5l0,0l-1.8,4.1L119.8,13.9L119.8,13.9z"/>
<path class="st0" d="M122.5,14c0.5,0.2,0.6,0,0.7-0.3l1-3.4c0.1-0.3,0.1-0.4-0.4-0.6l0.1-0.3c0.4,0.1,0.8,0.3,1.2,0.4
	s0.8,0.2,1.2,0.3l-0.1,0.3c-0.5-0.2-0.6,0-0.7,0.3l-1,3.4c-0.1,0.3-0.1,0.4,0.5,0.6l-0.1,0.3c-0.4-0.1-0.8-0.3-1.2-0.4
	s-0.8-0.2-1.2-0.3L122.5,14z"/>
<path class="st0" d="M122.4,14.3c0.4,0.1,0.8,0.2,1.2,0.3l0,0c0.4,0.1,0.8,0.3,1.1,0.4l0,0l0.1-0.3c-0.4-0.1-0.5-0.3-0.5-0.4l0,0
	c0-0.1,0-0.1,0-0.2l0,0l1-3.4c0.1-0.2,0.1-0.3,0.4-0.3l0,0c0.1,0,0.2,0,0.3,0.1l0,0l0.1-0.3c-0.4-0.1-0.8-0.2-1.2-0.3l0,0
	c-0.4-0.1-0.8-0.2-1.1-0.4l0,0l-0.1,0.2c0.4,0.1,0.5,0.3,0.5,0.4l0,0c0,0.1,0,0.1,0,0.2l0,0l-1.1,3.4c-0.1,0.2-0.1,0.3-0.4,0.3l0,0
	c-0.1,0-0.2,0-0.4-0.1l0,0L122.4,14.3L122.4,14.3z M123.6,14.7c-0.4-0.1-0.8-0.2-1.2-0.3l0,0l0.1-0.3l0,0l0,0c0.1,0,0.2,0.1,0.4,0.1
	l0,0c0.2,0,0.3-0.1,0.3-0.3l0,0l1.1-3.4c0-0.1,0-0.1,0-0.2l0,0c0-0.1-0.1-0.3-0.5-0.4l0,0l0.1-0.3c0.4,0.2,0.8,0.3,1.2,0.4l0,0
	c0.4,0.1,0.8,0.2,1.2,0.3l0,0l-0.1,0.3c-0.1,0-0.2-0.1-0.4-0.1l0,0c-0.2,0-0.3,0.1-0.3,0.3l0,0l-1,3.4c0,0.1,0,0.1,0,0.2l0,0
	c0,0.2,0.1,0.3,0.5,0.4l0,0l-0.1,0.3C124.3,14.9,124,14.8,123.6,14.7L123.6,14.7z"/>
<path class="st0" d="M127.9,11.3c0-0.2-0.2-0.4-0.4-0.4h-0.1l0.1-0.3c0.3,0.2,0.5,0.3,0.8,0.5s0.5,0.3,0.8,0.4l0.8,4.1l0,0l1.2-2.2
	c0.1-0.3,0.2-0.4-0.4-0.7l0.1-0.3c0.3,0.2,0.5,0.3,0.8,0.5c0.2,0.1,0.4,0.2,0.7,0.3l-0.1,0.3c-0.4-0.2-0.5-0.1-0.7,0.1l-2.1,3.8
	l-0.5-0.3l-0.9-5.1l0,0l-1.6,2.9c-0.1,0.3-0.2,0.4,0.4,0.7l-0.1,0.3c-0.3-0.2-0.5-0.3-0.8-0.5c-0.2-0.1-0.5-0.3-0.8-0.4l0.1-0.3
	c0.6,0.3,0.7,0.2,0.8-0.1L127.9,11.3z"/>
<path class="st0" d="M128.1,12l0.9,5.1l0.5,0.3l2.1-3.8c0.1-0.2,0.2-0.3,0.3-0.3l0,0c0.1,0,0.2,0.1,0.3,0.1l0,0l0.1-0.2
	c-0.2-0.1-0.5-0.2-0.7-0.3l0,0c-0.3-0.1-0.5-0.3-0.8-0.5l0,0l-0.1,0.2c0.3,0.2,0.5,0.3,0.5,0.5l0,0c0,0.1,0,0.2-0.1,0.3l0,0
	l-1.2,2.2l0,0l0,0l0,0l-0.8-4c-0.3-0.2-0.6-0.3-0.8-0.4l0,0c-0.3-0.1-0.5-0.3-0.7-0.5l0,0l-0.1,0.2h0.1c0.2,0.1,0.3,0.3,0.4,0.4l0,0
	l-1.8,3.4c-0.1,0.1-0.1,0.3-0.3,0.3l0,0c-0.2,0-0.3-0.1-0.5-0.2l0,0l-0.2,0.2c0.3,0.1,0.6,0.3,0.8,0.4l0,0c0.3,0.1,0.5,0.3,0.8,0.5
	l0,0l0.1-0.2c-0.4-0.2-0.5-0.3-0.5-0.5l0,0c0-0.1,0-0.2,0.1-0.2l0,0L128.1,12L128.1,12L128.1,12z M129,17.1l-0.9-5.1l-1.6,2.9
	c0,0.1-0.1,0.1-0.1,0.2l0,0c0,0.1,0.1,0.3,0.5,0.5l0,0l-0.2,0.3c-0.3-0.2-0.5-0.3-0.8-0.5l0,0c-0.2-0.1-0.5-0.3-0.8-0.4l0,0l0.2-0.3
	c0.1,0.1,0.3,0.2,0.5,0.2l0,0c0.1,0,0.2-0.1,0.3-0.2l0,0l1.8-3.3c0-0.2-0.2-0.3-0.3-0.4l0,0l-0.1-0.1l0.2-0.3
	c0.3,0.2,0.5,0.3,0.8,0.4l0,0c0.3,0.2,0.5,0.3,0.8,0.4l0,0l0.8,4l1.2-2.1c0-0.1,0.1-0.1,0.1-0.2l0,0c0-0.1-0.1-0.3-0.5-0.5l0,0
	l0.2-0.3c0.3,0.2,0.6,0.3,0.8,0.5l0,0c0.2,0.1,0.5,0.3,0.7,0.4l0,0l-0.2,0.3c-0.1-0.1-0.2-0.1-0.4-0.1l0,0c-0.1,0-0.2,0.1-0.3,0.3
	l0,0l-2.1,3.8L129,17.1L129,17.1z"/>
<path class="st0" d="M134.2,19.4c0.2-0.1,0.2-0.4,0.1-0.6c0,0-0.1-0.1-0.1-0.1l-0.2-0.2l0.2-0.2c0.3,0.3,0.6,0.6,0.9,0.9
	c0.3,0.3,0.7,0.6,1,0.9l-0.2,0.2l-0.1-0.1c-0.2-0.2-0.4-0.3-0.7,0l-0.9,1c-0.6-0.3-1.2-0.7-1.7-1.2c-1.1-0.9-1.3-2.6-0.4-3.7
	c0.9-1.1,2.6-1.3,3.7-0.4c0.1,0.1,0.3,0.2,0.4,0.4c0.5,0.5,0.9,1,1.2,1.6l-1,1l-0.3-0.3c0.5-0.5,0.5-1.3,0-1.8c0,0-0.1-0.1-0.1-0.1
	c-0.9-0.9-1.9-0.5-2.7,0.4c-0.8,0.7-1,2-0.3,2.8c0,0,0,0,0,0c0.1,0.1,0.3,0.3,0.5,0.4L134.2,19.4z"/>
<path class="st0" d="M132.2,16.2c-0.5,0.4-0.7,1.1-0.8,1.7l0,0c0,0.8,0.4,1.6,1,2.1l0,0c0.5,0.5,1.1,0.9,1.7,1.2l0,0l0.9-1
	c0.1-0.1,0.2-0.2,0.4-0.2l0,0c0.1,0,0.3,0.1,0.4,0.2l0,0l0.1,0.1l0.2-0.2c-0.3-0.3-0.6-0.5-1-0.9l0,0c-0.3-0.3-0.6-0.6-0.9-0.9l0,0
	l-0.2,0.2l0.2,0.2c0.1,0.1,0.2,0.2,0.2,0.4l0,0c0,0.1-0.1,0.3-0.2,0.3l0,0l-0.8,0.8c-0.2-0.1-0.3-0.2-0.5-0.4l0,0
	c-0.3-0.3-0.5-0.8-0.5-1.2l0,0c0-0.6,0.3-1.2,0.8-1.6l0,0c0.4-0.5,1-0.8,1.7-0.9l0,0c0.4,0,0.8,0.2,1.1,0.5l0,0
	c0.3,0.3,0.5,0.6,0.5,1.1l0,0c0,0.3-0.2,0.6-0.4,0.9l0,0l0.3,0.3l1-1c-0.3-0.6-0.7-1.2-1.2-1.7l0,0c-0.5-0.6-1.2-0.9-2-0.9l0,0
	C133.3,15.3,132.6,15.6,132.2,16.2L132.2,16.2z M132.4,20.1c-0.6-0.6-1-1.3-1-2.2l0,0c0-0.7,0.3-1.3,0.8-1.7l0,0
	c0.5-0.5,1.2-0.9,1.9-0.8l0,0c0.8,0,1.5,0.4,2,0.9l0,0c0.5,0.5,0.9,1.1,1.3,1.7l0,0l-1.1,0.9l-0.3-0.4c0.2-0.2,0.4-0.5,0.4-0.9l0,0
	c0-0.4-0.2-0.7-0.5-1l0,0c-0.3-0.3-0.7-0.5-1.1-0.5l0,0c-0.6,0.1-1.2,0.4-1.6,0.9l0,0c-0.4,0.4-0.7,1-0.7,1.6l0,0
	c0,0.5,0.2,0.9,0.5,1.2l0,0c0.1,0.1,0.3,0.2,0.5,0.4l0,0l0.8-0.8c0.1-0.1,0.2-0.2,0.2-0.3l0,0c0-0.1-0.1-0.2-0.2-0.3l0,0l-0.2-0.2
	l0.3-0.2c0.3,0.3,0.6,0.6,0.9,0.9l0,0c0.3,0.3,0.7,0.6,1,0.9l0,0l-0.3,0.2l-0.1-0.1c-0.1-0.1-0.2-0.2-0.3-0.2l0,0
	c-0.1,0-0.2,0.1-0.3,0.2l0,0l-1,1C133.5,20.9,133,20.5,132.4,20.1L132.4,20.1z"/>
<path class="st1" d="M188.9,68.6h-0.2v0.6h0.2c0.2,0,0.4-0.1,0.4-0.3S189.1,68.6,188.9,68.6L188.9,68.6z M189.4,70.4l-0.6-0.8h-0.2
	v0.8h-0.5v-2.1h0.7c0.5,0,0.8,0.2,0.8,0.6c0,0.3-0.2,0.5-0.4,0.6l0.6,0.8L189.4,70.4L189.4,70.4z M188.9,67.7c0.9,0,1.7,0.7,1.8,1.6
	s-0.7,1.7-1.6,1.8s-1.7-0.7-1.8-1.6c0,0,0-0.1,0-0.1c-0.1-0.9,0.6-1.6,1.4-1.7C188.8,67.7,188.8,67.7,188.9,67.7z M188.9,71.3
	c-1,0-1.8-0.7-1.9-1.7c0-0.1,0-0.1,0-0.2c0-1,0.9-1.9,1.9-1.8c1,0,1.9,0.9,1.8,1.9C190.8,70.5,189.9,71.3,188.9,71.3z"/>
</svg>
