<svg xmlns="http://www.w3.org/2000/svg" viewBox="0 0 1414.65 747.57"><defs><style>.cls-1,.cls-2{fill:#bc2428;}.cls-2{fill-rule:evenodd;}</style></defs><title>Your_Pie_logo</title><g id="Layer_2" data-name="Layer 2"><g id="Layer_1-2" data-name="Layer 1"><path class="cls-1" d="M400.4,428.32H116.94q-41.25,0-82.49-.06c-13.26,0-16.87-3.74-16.86-17,0-12.34-.16-24.67,0-37,.16-9.67,4.56-14,13.69-14q289,0,577.95,0c38,0,76,.1,114-.12,5.39,0,8.89,1.7,12.28,5.83,14.26,17.4,30.35,32.72,51.08,42.39,19.18,8.95,38.59,10.91,58.38,2.13,16.23-7.2,24.31-20.06,25.65-37.47a83.22,83.22,0,0,0,.29-10.47c-.39-7.21-3.76-9.25-10.2-6.21a49.33,49.33,0,0,0-7.25,4.4c-5.69,4-12.07,4.8-17.15.36-8.46-7.4-16.08-15.78-23.8-24-.9-.95-.44-3.42-.25-5.14.93-8.22,2.81-16.43,2.86-24.66.31-45,.18-90,.2-135,0-17.35,8.81-26.21,26.12-26.2,65.32.06,130.64.25,196,.18,37.81,0,75.63-1.13,113.43-.57,48.69.73,94,13.71,135,40.68,54.8,36.07,91.09,85.76,108.25,148.93,13.13,48.32,11.69,96.68-3.93,144.32-16.91,51.6-47.55,93.48-91.24,125.68-28.8,21.24-60.61,36.21-95.87,42.84-14.81,2.79-30,4.83-45,5-82,1-163.91,1.28-245.86,1.77q-26.25.16-52.49.06c-7.83,0-15.66-.21-23.47-.64-12.43-.69-20.76-9.57-20.79-22.29-.08-31.33,0-62.66,0-94,0-20.66-.12-41.32,0-62,.17-29.42-20.23-48-48.58-47.94-41.83.15-83.65.07-125.48.07h-241ZM848.23,260.5c0,.42,0,.84,0,1.26a11.48,11.48,0,0,0,2.38,1.38c18.52,5.28,34.19,15.34,46,30.34s22.23,31.54,33.81,47c4.46,5.95,5,11.52,3.64,18.5a201,201,0,0,0,9.4,112c15.91,42.07,42.72,75.9,80.4,100.56,48.55,31.76,101.49,42.52,158.48,30.5,35.74-7.54,67.27-23.77,94.8-47.88,16.58-14.51,30.86-31,41.78-50,29.48-51.24,36.84-105.69,21-162.89-11.92-43.17-35.93-78.73-70.85-106.31-39.77-31.4-85.36-47.34-136.37-45.26a232.7,232.7,0,0,0-43,5.74c-31.45,7.34-59.58,21.93-84.39,42.68-3.26,2.72-5.12,2.52-7.45-1-3.84-5.84-7.9-11.55-12.22-17-11.43-14.53-23.85-28-42.22-33.79-4.66-1.48-9.32-4.06-16-1.83,2.66,1.23,4.06,1.9,5.48,2.51,4.27,1.84,8.71,3.35,12.78,5.54,22,11.88,34.75,31.95,45.93,53.22.7,1.34-.17,4.24-1.27,5.69-9.92,13.14-20.09,26.08-30.08,39.17-1.63,2.13-3.15,2.87-5.37,1.11-7.85-6.24-15.65-12.55-19.45-22.3-3.93-10.08-7.36-20.39-11.78-30.25-4.54-10.15-9-20.61-15.31-29.62-9.77-13.86-25.18-19.66-41-24.07-.89-.25-2,.32-3,.51a10.49,10.49,0,0,0,4.78,4.29,83.29,83.29,0,0,1,28.43,21.59c10.83,12.67,18.26,27.36,25.37,42.27,7.85,16.48,14,34,27.63,47.12,1,1,1.2,3.78.63,5.31-3.59,9.66-7.48,19.21-11.34,28.77a41,41,0,0,1-3,4.76c-3.88-5.25-7.58-9.48-10.41-14.24-6.88-11.59-13.33-23.45-20-35.16-6.24-10.92-14.92-19.37-26.83-23.59-8.76-3.11-17.92-5.08-27-7.33C851.39,259.37,849.74,260.21,848.23,260.5Z"/><path class="cls-1" d="M699,245.26c6.8,3.11,12.19,5.68,17.66,8.05,28.38,12.31,50,32,67.06,57.83,11.72,17.68,26.08,33.63,39.58,50.08a40.45,40.45,0,0,0,10.87,8.65c7.64,4.5,15.6,5.42,23.5.17a31.51,31.51,0,0,1,4.73-2,30.82,30.82,0,0,1-5.11,22.15c-7.51,11.19-19.16,14.95-31.89,16-23.7,1.92-42.51-8.8-59.56-23.66-20.64-18-36.46-40.11-52.59-61.95-4.85-6.56-9.68-13.14-14.36-19.83-9.19-13.12-22.27-21.25-36-28.56-4.14-2.2-4.4.37-4.57,3.44q-1.17,21.67-2.46,43.35a21.18,21.18,0,0,1-.48,3.46c-2.42,10.32-3.49,11.19-14.07,11.16-12.5,0-25-.29-37.49-.12-4.41.06-6.66-1.72-8.17-5.67-4.42-11.51-6.9-23.5-6.39-35.7,1.19-28.1,2.92-56.19,4.91-84.25,1.28-18.1,3.41-36.14,5.19-54.21.44-4.46-.79-7.25-5.85-8a123,123,0,0,1-15.56-3.58c-3.12-.88-4.17.09-4.6,3.11-2.91,20.77-6,41.53-8.93,62.29-1.6,11.2-3.27,22.4-4.66,33.63-2.37,19.09-2.78,38.21.64,57.21,1.56,8.71,5.47,16.46,12.81,21.92,3.4,2.52,3.77,5.09.38,7.54-3.6,2.6-7.27,5.51-11.38,6.91-10.93,3.74-22.35,3-33.65,1.95-4.76-.45-7.89-3.12-8.58-8.27-.3-2.23-1.36-4.35-2.19-6.88a13.53,13.53,0,0,0-3.12,1.19c-12.1,9.07-26.1,11.73-40.79,13-13.63,1.14-26.93.93-39.75-4.31-17.21-7-27.89-20.45-35.67-36.72-8-16.71-11-34.62-11.79-52.79C385,205,390.42,169.06,401.71,134c1.18-3.68,3.17-5.42,7-5.84,21.06-2.28,40.26,3.18,58.31,13.64a13.08,13.08,0,0,1,2.24,2.31c-14,14-15.81,32.44-17.65,50.33-2.35,23-3.36,46.13-4.17,69.24-.46,13.1,1.78,26.14,9.08,37.36,3.24,5,8.38,8.78,12.93,12.8,3.09,2.74,6.14,1.28,8-1.76,5-8.23,10.4-16.3,14.25-25.05,7.56-17.19,11-35.59,13.54-54.12,4.44-32.16,9-64.31,13.33-96.48.56-4.09,2.89-6.14,6.4-7.43,8.07-3,16.3-2.46,24.66-1.49,2.69.32,5.61-.64,8.34-1.35,5.62-1.47,11.08-3.89,16.78-4.64,23.93-3.16,47.93-5.74,71.89-8.75,11.37-1.43,22.64-3.6,34-4.93a40.76,40.76,0,0,1,14.33.5c17,4.2,33.78,9,50.64,13.56a33.73,33.73,0,0,1,3.74,1.41c6,2.46,9.41,6,9.44,13.38.07,22.13,1.6,44.27,1.21,66.39-.13,7.6-3.43,15.53-6.81,22.58-3.26,6.81-10.3,9.35-17.71,10.68-10.47,1.88-20.85,4.24-31.24,6.49C702.88,243.11,701.64,244,699,245.26ZM659.54,188c0,9,.1,18-.06,26.92-.06,3.62,1.2,4.88,4.76,4,2.59-.61,5.26-.85,7.86-1.42q15.82-3.45,31.63-7c2.23-.51,3.76-1.39,3.41-4.43-1.94-16.84-3.51-33.72-5.47-50.55-.69-5.92-2-11.77-3.24-17.62-.71-3.46-2.93-4.44-6.34-3.56-7.72,2-15.54,3.62-23.19,5.84a7.68,7.68,0,0,0-4.41,4.32C659.71,158.61,660.68,173.34,659.54,188Z"/><path class="cls-1" d="M459.82,666.12c-12,0-24,.4-35.92-.17a59,59,0,0,1-18.28-3.74c-5.1-2-4.84-4.78-.74-8.4,10.29-9.08,23.15-13,35.6-17.59a223.67,223.67,0,0,1,21.45-6.69c4.78-1.24,4.51-4.81,4.7-8.19.5-9.48.92-19,1.18-28.46,1-35.27-3.42-69.75-14.81-103.28-1.41-4.17-3.58-6.31-7.83-5.84-7.4.81-14.88,1.38-22.13,2.95-11.55,2.5-22.94,5.73-34.4,8.65-3.67.94-5.49,2.75-5.18,7.08,2.41,33.21,4.42,66.44,6.86,99.64,1.53,20.75,2.86,41.56,5.67,62.15,2.1,15.45,6.42,30.6,9.72,45.89.71,3.25,1.26,6.54,1.94,9.8,1.6,7.67.23,11.73-6.66,15.34-5.11,2.68-10.77,4.31-16.24,6.26-3,1.06-6.33,1.3-9,2.8-12.13,6.76-20.92,2.06-27.27-5.75-8.07-9.92-12-21.78-15.62-33.76C324,675.66,322,645.58,321.49,615.42c-.57-37.18-4.05-74.13-7.5-111.09a53.43,53.43,0,0,1-.43-5.48c.09-8.83-2-16-11.44-19.63-4.57-1.74-4.2-3.55-.41-6.77,14-11.94,30.42-17.77,48.61-18.33,20.4-.62,39.89-5.32,58.95-12.14,4.71-1.69,9.19-2.41,14.11-1.21,21.67,5.3,43.34,10.6,65.08,15.59,9.76,2.23,16.49,8,21.89,16.05,12.47,18.59,18.47,39.33,20.92,61.3,3.55,31.88.2,63.49-4.43,95-1.27,8.63-4.6,17-6.94,25.44-1.39,5-4.95,7.33-9.84,7.82-11.91,1.18-23.82,2.4-35.74,3.33-4.81.38-9.66.07-14.5.07Z"/><path class="cls-1" d="M382.45,199.83c.36,33.47-10,57.49-24.41,80.21-12.42,19.63-28.72,35.14-50,44.62-27.27,12.18-55.63,15.31-84.75,7.15-6.72-1.89-13.61-3.62-19.89-6.56-25.81-12.07-39.24-32.8-39.93-61.13-.65-26.45,3.17-52.65,9.91-78.08,4.73-17.84,15.84-32.54,31.33-43.31,26.71-18.56,55.78-29.43,88.81-30.59,28-1,65.82,18.35,78.42,42.75C380.21,170.82,382.14,188.12,382.45,199.83ZM237.21,234.25c1.1,8.74,1.78,17.56,3.38,26.2,3.09,16.66,11.15,30.14,26.33,38.72,3.23,1.83,6.22,2.22,9.31,0,4.85-3.49,9.93-6.72,14.49-10.56,15.71-13.19,25.39-30.65,33.74-48.91,8.2-17.93,11.73-36.63,8.38-56.36-2.91-17.13-24.11-31.49-40.86-26.66-9.87,2.84-19.37,7.13-28.74,11.4a20.59,20.59,0,0,0-8.38,7.52C243.67,193.47,237.3,212.86,237.21,234.25Z"/><path class="cls-1" d="M128.42,159.21c5-10.66,9.59-20,13.75-29.59,11.22-25.81,21.8-52,37.55-75.45C187.28,42.91,196.92,33,206,22.81,211.49,16.6,218,11.29,223.46,5,227.36.49,231.8-.67,237.13.34c4.71.89,9.57,1.67,13.94,3.5,8.6,3.6,9.53,11.92,2.89,18.33-8,7.73-16.52,15.18-23.14,24S219.13,65.5,213.9,75.52c-15.65,30-31.77,59.7-46.32,90.19-10.8,22.62-14.83,47-13.93,72.34,1,28.27.85,56.6.3,84.89-.28,14.07-1.2,14.41-15.28,14.29-9.27-.07-18.54-1.26-27.79-2.12-5.41-.51-8.47-3.91-9-9.1-1.11-10.23-2.5-20.49-2.64-30.76-.3-22,.22-43.95.14-65.93a12.15,12.15,0,0,0-2.78-7C57.41,175.14,26.85,123.19,8.62,64.48,4.75,52,2.87,38.93.22,26.09-.72,21.55,1.38,19.84,6,20.23c14.26,1.2,28.54,2.16,42.81,3.24,5.41.41,8.33,3.07,10.12,8.53,9.71,29.61,24.64,56.78,40.48,83.42,8,13.45,16.84,26.39,25.35,39.53A50,50,0,0,0,128.42,159.21Z"/><path class="cls-1" d="M785.36,590.23c-1.91,26.82-6.83,50.29-24.29,69.38-15,16.36-33.41,23.73-55.43,21.73-15.57-1.42-31.57-1.5-46.54-5.41-24.82-6.49-42.81-22.78-36-53.78,4.78-21.71,12.11-42.87,18.61-64.17,2.2-7.21,2.51-6.74-4.66-9-11.47-3.54-19-11.9-22.94-22.73-4.89-13.54-5.77-27.6-1.34-41.69,5.25-16.7,17.61-25.45,33.64-29.49a256,256,0,0,1,32.41-5.89c5.83-.69,12,.23,17.86,1.17,15.43,2.45,30.83,5.21,46.19,8.12a22.59,22.59,0,0,1,8.06,3.69c3.17,2.15,3.72,5.34,1.9,8.82-2.07,4-4,8-6.22,11.94-3.38,6-7.18,7.47-13.7,5.07-8.28-3.05-16.49-6.31-24.77-9.34-6.79-2.5-13.56-1.33-19.93,1.31-2.36,1-5.13,3.45-5.73,5.76-1.86,7.19-3.53,14.6-3.88,22-.43,9.4,8.44,17.22,20.17,18.46,9.59,1,19.25,1.31,28.86,2.14a151.49,151.49,0,0,1,17.8,2.32c2.43.5,4.51,2.69,6.74,4.12-1.74,1.85-3.14,4.51-5.28,5.42-10.41,4.38-20.76,9.3-31.63,12.09-12.1,3.11-19,10.66-22.82,21.51-7.93,22.86-8,46-1,69.19,1.52,5,4.47,6.54,9.38,5.42,10.24-2.33,16.88-9.08,21.56-17.9a52.35,52.35,0,0,0,6.27-23.37c.26-8.22,2.36-16.41,4-24.55.76-3.83,3.38-5.94,7.57-5.8,10.44.36,20.89.55,31.32,1,1.76.08,3.5,1,5.21,1.67C782.64,581.73,786.44,585.38,785.36,590.23Z"/><path class="cls-1" d="M606.23,550.72a533,533,0,0,1-9.37,101.11c-.73,4-2.57,6.22-6.27,7.46-11.2,3.76-22.35,7.71-33.57,11.42-5,1.67-6.83.67-7.4-4.74-1.68-15.89-3.53-31.8-4.37-47.75q-2.64-49.87-4.22-99.82c-.54-16.76-.31-33.57.14-50.34.23-8.63,1.76-9.4,10.22-10.08,11.83-1,23.55-1.11,35.14,2.11,4.22,1.17,6.76,3.24,8.17,7.66C603.75,496,606.77,525,606.23,550.72Z"/><path class="cls-1" d="M947,363l31.42,18.84c4.94-7.39,3.95-12.79-2.24-16.75-7.44-4.75-14.78-9.67-22.26-14.35-3.16-2-4.32-4.22-2.87-7.9,3.47-8.82,6.79-17.7,10-26.6,1.41-3.87,3.44-4.07,6.86-2.24,7.48,4,15.08,7.82,22.81,11.3,1.74.79,4.84.71,6.25-.36,2.94-2.23,2.1-4.95-1.36-6.89-7.41-4.14-14.75-8.42-22.18-12.53-4-2.24-5.11-5-2.17-8.86,8.17-10.7,16.29-21.45,24.54-32.08,2.43-3.13,4.42-3,6.8.73A213.6,213.6,0,0,0,1017,285c4.24,5.13,4.74,4.85,9.24.16,1-1.06,2-2.16,2.51-2.73-5.95-8.32-11.5-16.34-17.33-24.16-3-4-2.51-6.82,1.39-10,32.15-26.65,68.93-41.92,110.56-45.23,34.59-2.75,67.83,2.9,99.17,17.9,43.41,20.78,75.52,53.08,95.32,97a190.11,190.11,0,0,1,14.69,110.81c-7.16,43.93-26.92,81.33-59.21,111.83A190.05,190.05,0,0,1,1189,587.09c-38.69,9.94-76.84,8.26-114.65-4.28-4.45-1.48-9.64-1.43-13.56-3.69-29.52-17-57.87-35.32-78.48-63.7-17.66-24.33-29.83-50.78-35.55-80.12a187.91,187.91,0,0,1-.67-69.53A21.35,21.35,0,0,1,947,363Zm83.19-28.65c-.25.68-.49,1.36-.73,2-2.38,0-4.86.45-7.1-.09q-10.44-2.47-20.72-5.61c-3.52-1.07-5.8-.43-7,3.18-2.84,8.33-6.16,16.53-8.46,25-2.87,10.53-2.39,10.39,7.52,15.68,14.72,7.86,29.72,15,45.78,19.71,1.54.45,2.66,2.29,4,3.49-1.8.51-3.66,1.59-5.39,1.41a107,107,0,0,1-16.77-2.51c-11.57-3-23-6.52-34.44-10.11-3.89-1.22-5.71-.74-5.61,3.68.11,5.47-.21,11,.06,16.43.87,17.59,4.15,34.83,11.11,51,16,37,41.42,65.42,78.09,83.48,32.61,16.06,66.69,20.5,102,13.55a153,153,0,0,0,60.52-26.29c37.3-27,60.3-63.07,66.18-108.61,7.26-56.14-10.86-103.91-53.07-141.75-26.8-24-58.9-37.06-94.72-39.44-42.06-2.79-79.44,10.27-112.3,36.49-2.41,1.92-4.5,4.23-7.49,7.08,1.58,1.07,2.6,1.65,3.51,2.38A179,179,0,0,0,1090.43,315c11,3.73,22.58,5.49,33.88,8.27a39.16,39.16,0,0,1,5.77,2.45c-.18.56-.37,1.12-.56,1.69a31.88,31.88,0,0,1-5.84.22c-12-1.66-24.13-2.86-36-5.38-22.5-4.79-43.81-12.74-62.09-27.27-2.87-2.28-4.94-2.3-7,.64-4.76,6.62-9.42,13.31-14.3,19.84-2.79,3.73-1.22,5.61,2.34,7.13,5.66,2.42,11.33,4.83,16.89,7.46A64.46,64.46,0,0,1,1030.23,334.31Z"/><path class="cls-2" d="M1386.09,122.52c12.73-.07,22.83,9.92,22.9,23.24.08,13.54-9.91,23.57-22.64,23.64s-23-9.85-23-23.39c-.08-13.32,9.91-23.42,22.78-23.49l0-4.69c-15.48.09-28.51,12.06-28.42,28.21.09,16.3,13.25,28.13,28.73,28.05,15.32-.09,28.36-12.06,28.27-28.36-.09-16.15-13.25-28-28.58-27.9l0,4.69Z"/><path class="cls-2" d="M1380.2,133.94l6.7,0c3.43,0,7.07.71,7.1,4.73,0,5-3.7,5.3-7.86,5.32l-5.88,0,0,4.17,5.66,0,8.63,14,5.51,0-9.31-14.24c4.76-.62,8.39-3.17,8.36-9,0-6.4-3.84-9.21-11.51-9.17l-12.35.07.18,32.44,4.91,0-.16-28.27Z"/></g></g></svg>